<?xml version="1.0" standalone="no"?>
<!DOCTYPE svg PUBLIC "-//W3C//DTD SVG 1.1//EN" "http://www.w3.org/Graphics/SVG/1.1/DTD/svg11.dtd" >
<svg xmlns="http://www.w3.org/2000/svg" xmlns:xlink="http://www.w3.org/1999/xlink" version="1.1">
<metadata>
Created by FontForge 20230101 at Fri Mar  3 05:24:34 2023
 By Glenn Lewis
Copyright 2012 The Fjalla Project Authors (https://github.com/SorkinType/FjallaOne)
</metadata>
<defs>
<font id="FjallaOne-Regular" horiz-adv-x="0" >
  <font-face 
    font-family="Fjalla One"
    font-weight="400"
    font-stretch="normal"
    units-per-em="2048"
    panose-1="0 0 0 0 0 0 0 0 0 0"
    ascent="1638"
    descent="-410"
    x-height="1377"
    cap-height="1708"
    bbox="-408 -531 2514 2702"
    underline-thickness="163"
    underline-position="-171"
    unicode-range="U+000D-FB02"
  />
<missing-glyph horiz-adv-x="1316" 
d="M100 1943h1116v-1943h-1116v1943zM515 399l87 203l56 158l55 -158l87 -203h224l-265 545l265 537h-236l-85 -205l-47 -138l-45 138l-84 205h-236l264 -536l-264 -546h224z" />
    <glyph glyph-name="f_f" unicode="ff" horiz-adv-x="1212" 
d="M754 1185h-115v192h115v99q0 150 40.5 227.5t109.5 105t153 27.5q37 0 85.5 -8.5t82.5 -25.5v-178q-42 11 -94 11q-49 0 -86.5 -34.5t-37.5 -124.5v-99h201v-192h-201v-1185h-253v1185zM148 1185h-115v192h115v79q0 150 41 227.5t109.5 105t152.5 27.5q37 0 85.5 -8.5
t82.5 -25.5v-178q-42 11 -94 11q-49 0 -86.5 -34.5t-37.5 -124.5v-79h201v-192h-201v-1185h-253v1185z" />
    <glyph glyph-name="f_f_i" unicode="ffi" horiz-adv-x="1723" 
d="M1465 1568q-70 0 -112.5 44t-42.5 124q0 89 42.5 126t113.5 37q74 0 115.5 -40t41.5 -123q0 -78 -42 -123t-116 -45zM754 1185h-115v192h115v99q0 150 40.5 227.5t109.5 105t153 27.5q37 0 85.5 -8.5t82.5 -25.5v-178q-42 11 -94 11q-49 0 -86.5 -34.5t-37.5 -124.5v-99
h201v-192h-201v-1185h-253v1185zM148 1185h-115v192h115v99q0 150 41 227.5t109.5 105t152.5 27.5q37 0 85.5 -8.5t82.5 -25.5v-178q-42 11 -94 11q-49 0 -86.5 -34.5t-37.5 -124.5v-99h201v-192h-201v-1185h-253v1185zM1341 1377h253v-1377h-253v1377z" />
    <glyph glyph-name="f_f_l" unicode="ffl" horiz-adv-x="1734" 
d="M148 1185h-115v192h115v99q0 150 41 227.5t109.5 105t152.5 27.5q37 0 85.5 -8.5t82.5 -25.5v-178q-42 11 -94 11q-49 0 -86.5 -34.5t-37.5 -124.5v-99h201v-192h-201v-1185h-253v1185zM768 1185h-115v192h115v99q0 150 41 227.5t109.5 105t152.5 27.5q37 0 85.5 -8.5
t82.5 -25.5v-178q-42 11 -94 11q-49 0 -86.5 -34.5t-37.5 -124.5v-99h201v-192h-201v-1185h-253v1185zM1352 1819h253v-1819h-253v1819z" />
    <glyph glyph-name="fi" unicode="fi" horiz-adv-x="1117" 
d="M858 1568q-70 0 -112.5 44t-42.5 124q0 89 42.5 126t113.5 37q74 0 115.5 -40t41.5 -123q0 -78 -42 -123t-116 -45zM148 1185h-115v192h115v99q0 150 41 227.5t109.5 105t152.5 27.5q35 0 80.5 -8.5t77.5 -25.5v-178q-38 11 -84 11q-49 0 -86.5 -34.5t-37.5 -124.5v-99
h201v-192h-201v-1185h-253v1185zM732 1377h253v-1377h-253v1377z" />
    <glyph glyph-name="fl" unicode="fl" horiz-adv-x="1117" 
d="M148 1185h-115v192h115v99q0 150 41 227.5t109.5 105t152.5 27.5q35 0 80.5 -8.5t77.5 -25.5v-178q-38 11 -84 11q-49 0 -86.5 -34.5t-37.5 -124.5v-99h201v-192h-201v-1185h-253v1185zM735 1819h253v-1819h-253v1819z" />
    <glyph glyph-name=".notdef" horiz-adv-x="1316" 
d="M100 1943h1116v-1943h-1116v1943zM515 399l87 203l56 158l55 -158l87 -203h224l-265 545l265 537h-236l-85 -205l-47 -138l-45 138l-84 205h-236l264 -536l-264 -546h224z" />
    <glyph glyph-name="A" unicode="A" horiz-adv-x="957" 
d="M332 1708h292l319 -1708h-260l-47 306h-316l-45 -306h-261zM606 501l-122 855h-11l-123 -855h256z" />
    <glyph glyph-name="Aacute" unicode="&#xc1;" horiz-adv-x="957" 
d="M332 1708h292l319 -1708h-260l-47 306h-316l-45 -306h-261zM606 501l-122 855h-11l-123 -855h256zM479 1776l-125 94l241 286l169 -127z" />
    <glyph glyph-name="Abreve" unicode="&#x102;" horiz-adv-x="957" 
d="M332 1708h292l319 -1708h-260l-47 306h-316l-45 -306h-261zM606 501l-122 855h-11l-123 -855h256zM474 1786q-160 0 -237 74.5t-77 191.5q0 34 6 67h178q-7 -16 -8.5 -34t-1.5 -37q0 -99 139 -99q158 0 158 99v37t-8 34h169q6 -33 6 -67q0 -111 -80 -188.5t-244 -77.5z
" />
    <glyph glyph-name="uni1EAE" unicode="&#x1eae;" horiz-adv-x="957" 
d="M332 1708h292l319 -1708h-260l-47 306h-316l-45 -306h-261zM606 501l-122 855h-11l-123 -855h256zM474 1786q-160 0 -237 74.5t-77 191.5q0 34 6 67h178q-7 -16 -8.5 -34t-1.5 -37q0 -99 139 -99q158 0 158 99v37t-8 34h169q6 -33 6 -67q0 -111 -80 -188.5t-244 -77.5z
M479 2157l-125 94l241 286l169 -127z" />
    <glyph glyph-name="uni1EB6" unicode="&#x1eb6;" horiz-adv-x="957" 
d="M332 1708h292l319 -1708h-260l-47 306h-316l-45 -306h-261zM606 501l-122 855h-11l-123 -855h256zM323 -257q0 89 42.5 126t113.5 37q74 0 115.5 -40t41.5 -123q0 -78 -42 -123t-116 -45q-70 0 -112.5 44t-42.5 124zM474 1786q-160 0 -237 74.5t-77 191.5q0 34 6 67h178
q-7 -16 -8.5 -34t-1.5 -37q0 -99 139 -99q158 0 158 99v37t-8 34h169q6 -33 6 -67q0 -111 -80 -188.5t-244 -77.5z" />
    <glyph glyph-name="uni1EB0" unicode="&#x1eb0;" horiz-adv-x="957" 
d="M332 1708h292l319 -1708h-260l-47 306h-316l-45 -306h-261zM606 501l-122 855h-11l-123 -855h256zM474 1786q-160 0 -237 74.5t-77 191.5q0 34 6 67h178q-7 -16 -8.5 -34t-1.5 -37q0 -99 139 -99q158 0 158 99v37t-8 34h169q6 -33 6 -67q0 -111 -80 -188.5t-244 -77.5z
M482 2137l-285 253l169 127l241 -286z" />
    <glyph glyph-name="uni1EB2" unicode="&#x1eb2;" horiz-adv-x="957" 
d="M332 1708h292l319 -1708h-260l-47 306h-316l-45 -306h-261zM606 501l-122 855h-11l-123 -855h256zM474 1786q-160 0 -237 74.5t-77 191.5q0 34 6 67h178q-7 -16 -8.5 -34t-1.5 -37q0 -99 139 -99q158 0 158 99v37t-8 34h169q6 -33 6 -67q0 -111 -80 -188.5t-244 -77.5z
M387 2200v116q53 0 80.5 21.5t27.5 53.5q0 47 -54 80t-146 41l36 136q154 -16 243 -90t89 -172q0 -81 -67 -127t-209 -59z" />
    <glyph glyph-name="uni1EB4" unicode="&#x1eb4;" horiz-adv-x="957" 
d="M332 1708h292l319 -1708h-260l-47 306h-316l-45 -306h-261zM606 501l-122 855h-11l-123 -855h256zM474 1786q-160 0 -237 74.5t-77 191.5q0 34 6 67h178q-7 -16 -8.5 -34t-1.5 -37q0 -99 139 -99q158 0 158 99v37t-8 34h169q6 -33 6 -67q0 -111 -80 -188.5t-244 -77.5z
M616 2169q-51 0 -88 16t-72 47q-40 38 -57.5 58t-43.5 20q-36 0 -36 -58v-66h-148q0 11 -1.5 38t-1.5 36q0 123 55.5 169.5t128.5 46.5q49 0 82.5 -15.5t66.5 -45.5q22 -22 50.5 -51t54.5 -29q42 0 42 52v71h132q9 -64 9 -96q0 -95 -52.5 -144t-120.5 -49z" />
    <glyph glyph-name="uni01CD" unicode="&#x1cd;" horiz-adv-x="957" 
d="M332 1708h292l319 -1708h-260l-47 306h-316l-45 -306h-261zM606 501l-122 855h-11l-123 -855h256zM595 2086h249l-246 -310h-234l-250 310h248l84 -130l40 -56l40 56z" />
    <glyph glyph-name="Acircumflex" unicode="&#xc2;" horiz-adv-x="957" 
d="M332 1708h292l319 -1708h-260l-47 306h-316l-45 -306h-261zM606 501l-122 855h-11l-123 -855h256zM526 1936l-40 56l-40 -56l-84 -130h-248l250 310h234l246 -310h-249z" />
    <glyph glyph-name="uni1EA4" unicode="&#x1ea4;" horiz-adv-x="957" 
d="M332 1708h292l319 -1708h-260l-47 306h-316l-45 -306h-261zM606 501l-122 855h-11l-123 -855h256zM526 1936l-40 56l-40 -56l-84 -130h-248l250 310h234l246 -310h-249zM479 2154l-125 94l241 286l169 -127z" />
    <glyph glyph-name="uni1EAC" unicode="&#x1eac;" horiz-adv-x="957" 
d="M332 1708h292l319 -1708h-260l-47 306h-316l-45 -306h-261zM606 501l-122 855h-11l-123 -855h256zM323 -257q0 89 42.5 126t113.5 37q74 0 115.5 -40t41.5 -123q0 -78 -42 -123t-116 -45q-70 0 -112.5 44t-42.5 124zM526 1936l-40 56l-40 -56l-84 -130h-248l250 310h234
l246 -310h-249z" />
    <glyph glyph-name="uni1EA6" unicode="&#x1ea6;" horiz-adv-x="957" 
d="M332 1708h292l319 -1708h-260l-47 306h-316l-45 -306h-261zM606 501l-122 855h-11l-123 -855h256zM526 1936l-40 56l-40 -56l-84 -130h-248l250 310h234l246 -310h-249zM482 2134l-285 253l169 127l241 -286z" />
    <glyph glyph-name="uni1EA8" unicode="&#x1ea8;" horiz-adv-x="957" 
d="M332 1708h292l319 -1708h-260l-47 306h-316l-45 -306h-261zM606 501l-122 855h-11l-123 -855h256zM526 1936l-40 56l-40 -56l-84 -130h-248l250 310h234l246 -310h-249zM387 2197v116q53 0 80.5 21.5t27.5 53.5q0 47 -54 80t-146 41l36 136q154 -16 243 -90t89 -172
q0 -81 -67 -127t-209 -59z" />
    <glyph glyph-name="uni1EAA" unicode="&#x1eaa;" horiz-adv-x="957" 
d="M332 1708h292l319 -1708h-260l-47 306h-316l-45 -306h-261zM606 501l-122 855h-11l-123 -855h256zM526 1936l-40 56l-40 -56l-84 -130h-248l250 310h234l246 -310h-249zM616 2166q-51 0 -88 16t-72 47q-40 38 -57.5 58t-43.5 20q-36 0 -36 -58v-66h-148q0 11 -1.5 38
t-1.5 36q0 123 55.5 169.5t128.5 46.5q49 0 82.5 -15.5t66.5 -45.5q22 -22 50.5 -51t54.5 -29q42 0 42 52v71h132q9 -64 9 -96q0 -95 -52.5 -144t-120.5 -49z" />
    <glyph glyph-name="Adieresis" unicode="&#xc4;" horiz-adv-x="957" 
d="M332 1708h292l319 -1708h-260l-47 306h-316l-45 -306h-261zM606 501l-122 855h-11l-123 -855h256zM256 1784q-78 0 -107.5 39t-29.5 114q0 80 29 121t108 41q82 0 113.5 -39.5t31.5 -122.5q0 -72 -31.5 -112.5t-113.5 -40.5zM693 1784q-78 0 -107 39t-29 114
q0 80 28.5 121t107.5 41q82 0 114 -39.5t32 -122.5q0 -72 -32 -112.5t-114 -40.5z" />
    <glyph glyph-name="uni01DE" unicode="&#x1de;" horiz-adv-x="957" 
d="M332 1708h292l319 -1708h-260l-47 306h-316l-45 -306h-261zM606 501l-122 855h-11l-123 -855h256zM256 1784q-78 0 -107.5 39t-29.5 114q0 80 29 121t108 41q82 0 113.5 -39.5t31.5 -122.5q0 -72 -31.5 -112.5t-113.5 -40.5zM693 1784q-78 0 -107 39t-29 114
q0 80 28.5 121t107.5 41q82 0 114 -39.5t32 -122.5q0 -72 -32 -112.5t-114 -40.5zM167 2399h623v-193h-623v193z" />
    <glyph glyph-name="uni1EA0" unicode="&#x1ea0;" horiz-adv-x="957" 
d="M332 1708h292l319 -1708h-260l-47 306h-316l-45 -306h-261zM606 501l-122 855h-11l-123 -855h256zM323 -257q0 89 42.5 126t113.5 37q74 0 115.5 -40t41.5 -123q0 -78 -42 -123t-116 -45q-70 0 -112.5 44t-42.5 124z" />
    <glyph glyph-name="Agrave" unicode="&#xc0;" horiz-adv-x="957" 
d="M332 1708h292l319 -1708h-260l-47 306h-316l-45 -306h-261zM606 501l-122 855h-11l-123 -855h256zM482 1756l-285 253l169 127l241 -286z" />
    <glyph glyph-name="uni1EA2" unicode="&#x1ea2;" horiz-adv-x="957" 
d="M332 1708h292l319 -1708h-260l-47 306h-316l-45 -306h-261zM606 501l-122 855h-11l-123 -855h256zM387 1819v116q53 0 80.5 21.5t27.5 53.5q0 47 -54 80t-146 41l36 136q154 -16 243 -90t89 -172q0 -81 -67 -127t-209 -59z" />
    <glyph glyph-name="Amacron" unicode="&#x100;" horiz-adv-x="957" 
d="M332 1708h292l319 -1708h-260l-47 306h-316l-45 -306h-261zM606 501l-122 855h-11l-123 -855h256zM167 2028h623v-193h-623v193z" />
    <glyph glyph-name="Aogonek" unicode="&#x104;" horiz-adv-x="957" 
d="M332 1708h292l319 -1708h-260l-47 306h-316l-45 -306h-261zM606 501l-122 855h-11l-123 -855h256zM838 13l105 -13q-60 -67 -65 -121t25 -86t75 -32h16.5t16.5 1l7 -151q-41 -16 -75.5 -23t-75.5 -7q-31 0 -79.5 17t-86 65.5t-37.5 142.5q0 78 34.5 128.5t50.5 65.5z" />
    <glyph glyph-name="Aring" unicode="&#xc5;" horiz-adv-x="957" 
d="M14 0l284 1526q-67 41 -100 108.5t-33 141.5q0 78 33.5 143.5t103 105.5t177.5 40q164 0 244 -85t80 -204q0 -72 -36 -141t-109 -111l285 -1524h-260l-47 306h-316l-45 -306h-261zM478 1643q80 0 119 41.5t39 87.5q0 56 -39 93.5t-119 37.5q-72 0 -105.5 -37.5
t-33.5 -93.5q0 -49 34.5 -89t104.5 -40zM350 501h256l-122 855h-11z" />
    <glyph glyph-name="Aringacute" unicode="&#x1fa;" horiz-adv-x="957" 
d="M14 0l282 1447q-66 41 -98.5 108t-32.5 141q0 78 33.5 143.5t103 105.5t177.5 40q29 0 57 -3l242 163l129 -167l-177 -85q73 -77 73 -197q0 -71 -35.5 -140t-107.5 -111l283 -1445h-260l-47 306h-316l-45 -306h-261zM478 1563q80 0 119 41.5t39 87.5q0 56 -39 93.5
t-119 37.5q-72 0 -105.5 -37.5t-33.5 -93.5q0 -49 34.5 -89t104.5 -40zM350 501h256l-122 775h-11z" />
    <glyph glyph-name="Aringacute" unicode="&#x1fb;" horiz-adv-x="957" 
d="M14 0l282 1447q-66 41 -98.5 108t-32.5 141q0 78 33.5 143.5t103 105.5t177.5 40q29 0 57 -3l242 163l129 -167l-177 -85q73 -77 73 -197q0 -71 -35.5 -140t-107.5 -111l283 -1445h-260l-47 306h-316l-45 -306h-261zM478 1563q80 0 119 41.5t39 87.5q0 56 -39 93.5
t-119 37.5q-72 0 -105.5 -37.5t-33.5 -93.5q0 -49 34.5 -89t104.5 -40zM350 501h256l-122 775h-11z" />
    <glyph glyph-name="Aringacute" unicode="&#x1fb;" horiz-adv-x="957" 
d="M14 0l282 1447q-66 41 -98.5 108t-32.5 141q0 78 33.5 143.5t103 105.5t177.5 40q29 0 57 -3l242 163l129 -167l-177 -85q73 -77 73 -197q0 -71 -35.5 -140t-107.5 -111l283 -1445h-260l-47 306h-316l-45 -306h-261zM478 1563q80 0 119 41.5t39 87.5q0 56 -39 93.5
t-119 37.5q-72 0 -105.5 -37.5t-33.5 -93.5q0 -49 34.5 -89t104.5 -40zM350 501h256l-122 775h-11z" />
    <glyph glyph-name="Atilde" unicode="&#xc3;" horiz-adv-x="957" 
d="M332 1708h292l319 -1708h-260l-47 306h-316l-45 -306h-261zM606 501l-122 855h-11l-123 -855h256zM616 1788q-51 0 -88 16t-72 47q-40 38 -57.5 58t-43.5 20q-36 0 -36 -58v-66h-148q0 11 -1.5 38t-1.5 36q0 123 55.5 169.5t128.5 46.5q49 0 82.5 -15.5t66.5 -45.5
q22 -22 50.5 -51t54.5 -29q42 0 42 52v71h132q9 -64 9 -96q0 -95 -52.5 -144t-120.5 -49z" />
    <glyph glyph-name="AE" unicode="&#xc6;" horiz-adv-x="1261" 
d="M438 1708h797v-205h-394v-508h307v-224h-307v-566h394v-205h-650v306h-255l-63 -306h-261zM585 492v864h-37l-179 -864h216z" />
    <glyph glyph-name="AEacute" unicode="&#x1fc;" horiz-adv-x="1261" 
d="M438 1708h797v-205h-394v-508h307v-224h-307v-566h394v-205h-650v306h-255l-63 -306h-261zM585 492v864h-37l-179 -864h216zM733 1776l-125 94l241 286l169 -127z" />
    <glyph glyph-name="uni01E2" unicode="&#x1e2;" horiz-adv-x="1261" 
d="M438 1708h797v-205h-394v-508h307v-224h-307v-566h394v-205h-650v306h-255l-63 -306h-261zM585 492v864h-37l-179 -864h216zM421 2028h623v-193h-623v193z" />
    <glyph glyph-name="B" unicode="B" horiz-adv-x="1039" 
d="M141 1708h262q87 0 180 -11t173 -48.5t129.5 -115.5t49.5 -212v-83q0 -136 -64.5 -221.5t-143.5 -114.5v-8q116 -46 176 -132t60 -238v-87q0 -139 -44.5 -225.5t-121.5 -132.5t-176 -62.5t-208 -16.5h-272v1708zM445 977q104 0 166 51.5t62 171.5v70q0 119 -50 184
t-178 65h-45v-542h45zM469 189q104 0 165.5 51.5t61.5 171.5v133q0 120 -49.5 184.5t-177.5 64.5h-69v-605h69z" />
    <glyph glyph-name="uni1E04" unicode="&#x1e04;" horiz-adv-x="1039" 
d="M141 1708h262q87 0 180 -11t173 -48.5t129.5 -115.5t49.5 -212v-83q0 -136 -64.5 -221.5t-143.5 -114.5v-8q116 -46 176 -132t60 -238v-87q0 -139 -44.5 -225.5t-121.5 -132.5t-176 -62.5t-208 -16.5h-272v1708zM445 977q104 0 166 51.5t62 171.5v70q0 119 -50 184
t-178 65h-45v-542h45zM469 189q104 0 165.5 51.5t61.5 171.5v133q0 120 -49.5 184.5t-177.5 64.5h-69v-605h69zM364 -257q0 89 42.5 126t113.5 37q74 0 115.5 -40t41.5 -123q0 -78 -42 -123t-116 -45q-70 0 -112.5 44t-42.5 124z" />
    <glyph glyph-name="C" unicode="C" horiz-adv-x="928" 
d="M532 -15q-62 0 -135.5 18t-139.5 75t-108 171.5t-42 306.5v605q0 154 28.5 256.5t75 164t103 92t113 40t104.5 9.5q132 0 209 -49t110.5 -131.5t33.5 -181.5q0 -55 -8.5 -101.5t-19.5 -102.5h-200v82q0 281 -132 281q-71 0 -108.5 -61.5t-37.5 -225.5v-770
q0 -159 37.5 -217t116.5 -58q55 0 91 46.5t36 149.5v162h227v-158q0 -205 -91 -304t-263 -99z" />
    <glyph glyph-name="Cacute" unicode="&#x106;" horiz-adv-x="928" 
d="M532 -15q-62 0 -135.5 18t-139.5 75t-108 171.5t-42 306.5v605q0 154 28.5 256.5t75 164t103 92t113 40t104.5 9.5q132 0 209 -49t110.5 -131.5t33.5 -181.5q0 -55 -8.5 -101.5t-19.5 -102.5h-200v82q0 281 -132 281q-71 0 -108.5 -61.5t-37.5 -225.5v-770
q0 -159 37.5 -217t116.5 -58q55 0 91 46.5t36 149.5v162h227v-158q0 -205 -91 -304t-263 -99zM464 1776l-125 94l241 286l169 -127z" />
    <glyph glyph-name="Ccaron" unicode="&#x10c;" horiz-adv-x="928" 
d="M532 -15q-62 0 -135.5 18t-139.5 75t-108 171.5t-42 306.5v605q0 154 28.5 256.5t75 164t103 92t113 40t104.5 9.5q132 0 209 -49t110.5 -131.5t33.5 -181.5q0 -55 -8.5 -101.5t-19.5 -102.5h-200v82q0 281 -132 281q-71 0 -108.5 -61.5t-37.5 -225.5v-770
q0 -159 37.5 -217t116.5 -58q55 0 91 46.5t36 149.5v162h227v-158q0 -205 -91 -304t-263 -99zM580 2086h249l-246 -310h-234l-250 310h248l84 -130l40 -56l40 56z" />
    <glyph glyph-name="Ccedilla" unicode="&#xc7;" horiz-adv-x="928" 
d="M532 -15q-62 0 -135.5 18t-139.5 75t-108 171.5t-42 306.5v605q0 154 28.5 256.5t75 164t103 92t113 40t104.5 9.5q132 0 209 -49t110.5 -131.5t33.5 -181.5q0 -55 -8.5 -101.5t-19.5 -102.5h-200v82q0 281 -132 281q-71 0 -108.5 -61.5t-37.5 -225.5v-770
q0 -159 37.5 -217t116.5 -58q55 0 91 46.5t36 149.5v162h227v-158q0 -205 -91 -304t-263 -99zM614 13l7 -117q6 -107 -18.5 -170t-63.5 -94.5t-78.5 -41t-63.5 -9.5q-41 0 -75.5 7t-75.5 23l7 151q8 -1 16.5 -1h16.5q68 0 108.5 33.5t45.5 149.5l3 69h171z" />
    <glyph glyph-name="Ccircumflex" unicode="&#x108;" horiz-adv-x="928" 
d="M532 -15q-62 0 -135.5 18t-139.5 75t-108 171.5t-42 306.5v605q0 154 28.5 256.5t75 164t103 92t113 40t104.5 9.5q132 0 209 -49t110.5 -131.5t33.5 -181.5q0 -55 -8.5 -101.5t-19.5 -102.5h-200v82q0 281 -132 281q-71 0 -108.5 -61.5t-37.5 -225.5v-770
q0 -159 37.5 -217t116.5 -58q55 0 91 46.5t36 149.5v162h227v-158q0 -205 -91 -304t-263 -99zM511 1936l-40 56l-40 -56l-84 -130h-248l250 310h234l246 -310h-249z" />
    <glyph glyph-name="Cdotaccent" unicode="&#x10a;" horiz-adv-x="928" 
d="M532 -15q-62 0 -135.5 18t-139.5 75t-108 171.5t-42 306.5v605q0 154 28.5 256.5t75 164t103 92t113 40t104.5 9.5q132 0 209 -49t110.5 -131.5t33.5 -181.5q0 -55 -8.5 -101.5t-19.5 -102.5h-200v82q0 281 -132 281q-71 0 -108.5 -61.5t-37.5 -225.5v-770
q0 -159 37.5 -217t116.5 -58q55 0 91 46.5t36 149.5v162h227v-158q0 -205 -91 -304t-263 -99zM462 1790q-70 0 -112.5 44t-42.5 124q0 89 42.5 126t113.5 37q74 0 115.5 -40t41.5 -123q0 -78 -42 -123t-116 -45z" />
    <glyph glyph-name="D" unicode="D" horiz-adv-x="1051" 
d="M410 0h-269v1708h269q73 0 150 -7t148.5 -36t128.5 -93.5t90.5 -178t33.5 -291.5v-496q0 -178 -33.5 -292t-90.5 -178.5t-128.5 -93t-148.5 -35.5t-150 -7zM400 1511v-1314h56q94 0 144.5 34t70 122t19.5 248v506q0 161 -19.5 248.5t-70 121.5t-144.5 34h-56z" />
    <glyph glyph-name="Eth" unicode="&#xd0;" horiz-adv-x="1027" 
d="M123 817h-85v202h85v706h278q58 0 129 -8.5t142.5 -38.5t131 -94t96 -174.5t36.5 -280.5v-523q0 -173 -36.5 -285.5t-96 -177.5t-131 -95.5t-142.5 -39t-129 -8.5h-278v817zM413 179q139 0 196.5 91.5t57.5 286.5v619q0 183 -54.5 276.5t-199.5 93.5h-38v-527h165v-202
h-165v-638h38z" />
    <glyph glyph-name="Dcaron" unicode="&#x10e;" horiz-adv-x="1051" 
d="M410 0h-269v1708h269q73 0 150 -7t148.5 -36t128.5 -93.5t90.5 -178t33.5 -291.5v-496q0 -178 -33.5 -292t-90.5 -178.5t-128.5 -93t-148.5 -35.5t-150 -7zM400 1511v-1314h56q94 0 144.5 34t70 122t19.5 248v506q0 161 -19.5 248.5t-70 121.5t-144.5 34h-56zM642 2086
h249l-246 -310h-234l-250 310h248l84 -130l40 -56l40 56z" />
    <glyph glyph-name="uni1E12" unicode="&#x1e12;" horiz-adv-x="1051" 
d="M410 0h-269v1708h269q73 0 150 -7t148.5 -36t128.5 -93.5t90.5 -178t33.5 -291.5v-496q0 -178 -33.5 -292t-90.5 -178.5t-128.5 -93t-148.5 -35.5t-150 -7zM400 1511v-1314h56q94 0 144.5 34t70 122t19.5 248v506q0 161 -19.5 248.5t-70 121.5t-144.5 34h-56zM610 -65
l276 -401h-219l-88 152l-51 82l-50 -82l-94 -152h-218l270 401h174z" />
    <glyph glyph-name="Dcroat" unicode="&#x110;" horiz-adv-x="1027" 
d="M123 817h-85v202h85v706h278q58 0 129 -8.5t142.5 -38.5t131 -94t96 -174.5t36.5 -280.5v-523q0 -173 -36.5 -285.5t-96 -177.5t-131 -95.5t-142.5 -39t-129 -8.5h-278v817zM413 179q139 0 196.5 91.5t57.5 286.5v619q0 183 -54.5 276.5t-199.5 93.5h-38v-527h165v-202
h-165v-638h38z" />
    <glyph glyph-name="uni1E0C" unicode="&#x1e0c;" horiz-adv-x="1051" 
d="M410 0h-269v1708h269q73 0 150 -7t148.5 -36t128.5 -93.5t90.5 -178t33.5 -291.5v-496q0 -178 -33.5 -292t-90.5 -178.5t-128.5 -93t-148.5 -35.5t-150 -7zM400 1511v-1314h56q94 0 144.5 34t70 122t19.5 248v506q0 161 -19.5 248.5t-70 121.5t-144.5 34h-56zM370 -257
q0 89 42.5 126t113.5 37q74 0 115.5 -40t41.5 -123q0 -78 -42 -123t-116 -45q-70 0 -112.5 44t-42.5 124z" />
    <glyph glyph-name="Dmacronbelow" unicode="&#x1e0e;" horiz-adv-x="1051" 
d="M410 0h-269v1708h269q73 0 150 -7t148.5 -36t128.5 -93.5t90.5 -178t33.5 -291.5v-496q0 -178 -33.5 -292t-90.5 -178.5t-128.5 -93t-148.5 -35.5t-150 -7zM400 1511v-1314h56q94 0 144.5 34t70 122t19.5 248v506q0 161 -19.5 248.5t-70 121.5t-144.5 34h-56zM214 -156
h623v-193h-623v193z" />
    <glyph glyph-name="Dtail" unicode="&#x189;" horiz-adv-x="1027" 
d="M123 817h-85v202h85v706h278q58 0 129 -8.5t142.5 -38.5t131 -94t96 -174.5t36.5 -280.5v-523q0 -173 -36.5 -285.5t-96 -177.5t-131 -95.5t-142.5 -39t-129 -8.5h-278v817zM413 179q139 0 196.5 91.5t57.5 286.5v619q0 183 -54.5 276.5t-199.5 93.5h-38v-527h165v-202
h-165v-638h38z" />
    <glyph glyph-name="Dtail" unicode="&#x256;" horiz-adv-x="1027" 
d="M123 817h-85v202h85v706h278q58 0 129 -8.5t142.5 -38.5t131 -94t96 -174.5t36.5 -280.5v-523q0 -173 -36.5 -285.5t-96 -177.5t-131 -95.5t-142.5 -39t-129 -8.5h-278v817zM413 179q139 0 196.5 91.5t57.5 286.5v619q0 183 -54.5 276.5t-199.5 93.5h-38v-527h165v-202
h-165v-638h38z" />
    <glyph glyph-name="Dtail" unicode="&#x256;" horiz-adv-x="1027" 
d="M123 817h-85v202h85v706h278q58 0 129 -8.5t142.5 -38.5t131 -94t96 -174.5t36.5 -280.5v-523q0 -173 -36.5 -285.5t-96 -177.5t-131 -95.5t-142.5 -39t-129 -8.5h-278v817zM413 179q139 0 196.5 91.5t57.5 286.5v619q0 183 -54.5 276.5t-199.5 93.5h-38v-527h165v-202
h-165v-638h38z" />
    <glyph glyph-name="E" unicode="E" horiz-adv-x="820" 
d="M141 1708h653v-204h-394v-511h309v-204h-309v-585h394v-204h-653v1708z" />
    <glyph glyph-name="Eacute" unicode="&#xc9;" horiz-adv-x="820" 
d="M141 1708h653v-204h-394v-511h309v-204h-309v-585h394v-204h-653v1708zM460 1776l-125 94l241 286l169 -127z" />
    <glyph glyph-name="Ebreve" unicode="&#x114;" horiz-adv-x="820" 
d="M141 1708h653v-204h-394v-511h309v-204h-309v-585h394v-204h-653v1708zM455 1786q-160 0 -237 74.5t-77 191.5q0 34 6 67h178q-7 -16 -8.5 -34t-1.5 -37q0 -99 139 -99q158 0 158 99v37t-8 34h169q6 -33 6 -67q0 -111 -80 -188.5t-244 -77.5z" />
    <glyph glyph-name="Ecaron" unicode="&#x11a;" horiz-adv-x="820" 
d="M141 1708h653v-204h-394v-511h309v-204h-309v-585h394v-204h-653v1708zM576 2086h249l-246 -310h-234l-250 310h248l84 -130l40 -56l40 56z" />
    <glyph glyph-name="uni0228" unicode="&#x228;" horiz-adv-x="820" 
d="M141 1708h653v-204h-394v-511h309v-204h-309v-585h394v-204h-653v1708zM560 13l7 -117q6 -107 -18.5 -170t-63.5 -94.5t-78.5 -41t-63.5 -9.5q-41 0 -75.5 7t-75.5 23l7 151q8 -1 16.5 -1h16.5q68 0 108.5 33.5t45.5 149.5l3 69h171z" />
    <glyph glyph-name="Ecircumflex" unicode="&#xca;" horiz-adv-x="820" 
d="M141 1708h653v-204h-394v-511h309v-204h-309v-585h394v-204h-653v1708zM507 1936l-40 56l-40 -56l-84 -130h-248l250 310h234l246 -310h-249z" />
    <glyph glyph-name="uni1EBE" unicode="&#x1ebe;" horiz-adv-x="820" 
d="M141 1708h653v-204h-394v-511h309v-204h-309v-585h394v-204h-653v1708zM507 1936l-40 56l-40 -56l-84 -130h-248l250 310h234l246 -310h-249zM460 2154l-125 94l241 286l169 -127z" />
    <glyph glyph-name="uni1EC6" unicode="&#x1ec6;" horiz-adv-x="820" 
d="M141 1708h653v-204h-394v-511h309v-204h-309v-585h394v-204h-653v1708zM254 -257q0 89 42.5 126t113.5 37q74 0 115.5 -40t41.5 -123q0 -78 -42 -123t-116 -45q-70 0 -112.5 44t-42.5 124zM507 1936l-40 56l-40 -56l-84 -130h-248l250 310h234l246 -310h-249z" />
    <glyph glyph-name="uni1EC0" unicode="&#x1ec0;" horiz-adv-x="820" 
d="M141 1708h653v-204h-394v-511h309v-204h-309v-585h394v-204h-653v1708zM507 1936l-40 56l-40 -56l-84 -130h-248l250 310h234l246 -310h-249zM463 2134l-285 253l169 127l241 -286z" />
    <glyph glyph-name="uni1EC2" unicode="&#x1ec2;" horiz-adv-x="820" 
d="M141 1708h653v-204h-394v-511h309v-204h-309v-585h394v-204h-653v1708zM507 1936l-40 56l-40 -56l-84 -130h-248l250 310h234l246 -310h-249zM368 2197v116q53 0 80.5 21.5t27.5 53.5q0 47 -54 80t-146 41l36 136q154 -16 243 -90t89 -172q0 -81 -67 -127t-209 -59z" />
    <glyph glyph-name="uni1EC4" unicode="&#x1ec4;" horiz-adv-x="820" 
d="M141 1708h653v-204h-394v-511h309v-204h-309v-585h394v-204h-653v1708zM507 1936l-40 56l-40 -56l-84 -130h-248l250 310h234l246 -310h-249zM597 2166q-51 0 -88 16t-72 47q-40 38 -57.5 58t-43.5 20q-36 0 -36 -58v-66h-148q0 11 -1.5 38t-1.5 36q0 123 55.5 169.5
t128.5 46.5q49 0 82.5 -15.5t66.5 -45.5q22 -22 50.5 -51t54.5 -29q42 0 42 52v71h132q9 -64 9 -96q0 -95 -52.5 -144t-120.5 -49z" />
    <glyph glyph-name="Edieresis" unicode="&#xcb;" horiz-adv-x="820" 
d="M141 1708h653v-204h-394v-511h309v-204h-309v-585h394v-204h-653v1708zM237 1784q-78 0 -107.5 39t-29.5 114q0 80 29 121t108 41q82 0 113.5 -39.5t31.5 -122.5q0 -72 -31.5 -112.5t-113.5 -40.5zM674 1784q-78 0 -107 39t-29 114q0 80 28.5 121t107.5 41
q82 0 114 -39.5t32 -122.5q0 -72 -32 -112.5t-114 -40.5z" />
    <glyph glyph-name="Edotaccent" unicode="&#x116;" horiz-adv-x="820" 
d="M141 1708h653v-204h-394v-511h309v-204h-309v-585h394v-204h-653v1708zM458 1790q-70 0 -112.5 44t-42.5 124q0 89 42.5 126t113.5 37q74 0 115.5 -40t41.5 -123q0 -78 -42 -123t-116 -45z" />
    <glyph glyph-name="uni1EB8" unicode="&#x1eb8;" horiz-adv-x="820" 
d="M141 1708h653v-204h-394v-511h309v-204h-309v-585h394v-204h-653v1708zM254 -257q0 89 42.5 126t113.5 37q74 0 115.5 -40t41.5 -123q0 -78 -42 -123t-116 -45q-70 0 -112.5 44t-42.5 124z" />
    <glyph glyph-name="Egrave" unicode="&#xc8;" horiz-adv-x="820" 
d="M141 1708h653v-204h-394v-511h309v-204h-309v-585h394v-204h-653v1708zM463 1756l-285 253l169 127l241 -286z" />
    <glyph glyph-name="uni1EBA" unicode="&#x1eba;" horiz-adv-x="820" 
d="M141 1708h653v-204h-394v-511h309v-204h-309v-585h394v-204h-653v1708zM368 1819v116q53 0 80.5 21.5t27.5 53.5q0 47 -54 80t-146 41l36 136q154 -16 243 -90t89 -172q0 -81 -67 -127t-209 -59z" />
    <glyph glyph-name="Emacron" unicode="&#x112;" horiz-adv-x="820" 
d="M141 1708h653v-204h-394v-511h309v-204h-309v-585h394v-204h-653v1708zM148 2028h623v-193h-623v193z" />
    <glyph glyph-name="Eogonek" unicode="&#x118;" horiz-adv-x="820" 
d="M141 1708h653v-204h-394v-511h309v-204h-309v-585h394v-204h-653v1708zM624 13l105 -13q-60 -67 -65 -121t25 -86t75 -32h16.5t16.5 1l7 -151q-41 -16 -75.5 -23t-75.5 -7q-31 0 -79.5 17t-86 65.5t-37.5 142.5q0 78 34.5 128.5t50.5 65.5z" />
    <glyph glyph-name="uni0190" unicode="&#x190;" horiz-adv-x="971" 
d="M916 549q13 -55 19 -106.5t6 -94.5q0 -172 -103 -267.5t-299 -95.5q-115 0 -211.5 40t-155 133t-58.5 250v113q0 168 67.5 249t167.5 115v8q-51 25 -99.5 69t-79.5 112.5t-31 165.5v105q0 181 96.5 279.5t314.5 98.5q135 0 222.5 -54.5t130 -137.5t42.5 -170
q0 -55 -8 -104.5t-19 -99.5h-200v82q0 135 -44 208t-124 73q-144 0 -144 -184v-164q0 -106 43.5 -150.5t107.5 -44.5h109v-185h-109q-100 0 -138 -58t-38 -167v-182q0 -108 42 -153t116 -45q75 0 125 61t50 221v80h202z" />
    <glyph glyph-name="uni018E" unicode="&#x18e;" horiz-adv-x="820" 
d="M679 1708v-1708h-653v204h394v585h-309v204h309v511h-394v204h653z" />
    <glyph glyph-name="uni01A9" unicode="&#x1a9;" horiz-adv-x="761" 
d="M14 0v137l366 758l-366 676v137h721v-204h-431l330 -610l-330 -690h431v-204h-721z" />
    <glyph glyph-name="uni1EBC" unicode="&#x1ebc;" horiz-adv-x="820" 
d="M141 1708h653v-204h-394v-511h309v-204h-309v-585h394v-204h-653v1708zM597 1788q-51 0 -88 16t-72 47q-40 38 -57.5 58t-43.5 20q-36 0 -36 -58v-66h-148q0 11 -1.5 38t-1.5 36q0 123 55.5 169.5t128.5 46.5q49 0 82.5 -15.5t66.5 -45.5q22 -22 50.5 -51t54.5 -29
q42 0 42 52v71h132q9 -64 9 -96q0 -95 -52.5 -144t-120.5 -49z" />
    <glyph glyph-name="uni018F" unicode="&#x18f;" horiz-adv-x="1012" 
d="M898 1171v-623q0 -153 -28.5 -255.5t-76 -164t-104 -93t-113 -41.5t-103.5 -10q-96 0 -178 47.5t-131.5 164t-49.5 321.5q0 104 9.5 210.5t25.5 188.5h479v316q0 167 -32 228.5t-124 61.5q-49 0 -90 -50.5t-41 -185.5v-104h-220v78q0 242 99.5 353.5t286.5 111.5
q38 0 88.5 -9.5t103.5 -39.5t98 -90.5t73 -161.5t28 -253zM365 706q-2 -27 -3 -107.5t-1 -169.5q0 -141 30.5 -191.5t97.5 -51.5q47 0 78 17t46 69t15 156v278h-263z" />
    <glyph glyph-name="uni01B7" unicode="&#x1b7;" horiz-adv-x="976" 
d="M356 977l213 527h-431v204h721v-137l-241 -637q74 0 140.5 -43t108 -134t41.5 -236v-113q0 -157 -58.5 -250t-155 -133t-211.5 -40q-196 0 -299 95.5t-103 267.5q0 43 6 94.5t19 106.5h202v-80q0 -160 50 -221t125 -61q74 0 116 45t42 153v182q0 109 -38 167t-138 58
h-109v185z" />
    <glyph glyph-name="uni01EE" unicode="&#x1ee;" horiz-adv-x="976" 
d="M356 977l213 527h-431v204h721v-137l-241 -637q74 0 140.5 -43t108 -134t41.5 -236v-113q0 -157 -58.5 -250t-155 -133t-211.5 -40q-196 0 -299 95.5t-103 267.5q0 43 6 94.5t19 106.5h202v-80q0 -160 50 -221t125 -61q74 0 116 45t42 153v182q0 109 -38 167t-138 58
h-109v185zM599 2086h249l-246 -310h-234l-250 310h248l84 -130l40 -56l40 56z" />
    <glyph glyph-name="F" unicode="F" horiz-adv-x="816" 
d="M141 1708h653v-212h-394v-503h309v-204h-309v-789h-259v1708z" />
    <glyph glyph-name="G" unicode="G" horiz-adv-x="1029" 
d="M489 -16q-36 0 -85.5 11t-101 43t-96 95t-72 166t-27.5 257v605q0 154 29 256.5t76.5 164t105.5 92t116 40t107 9.5q139 0 220.5 -49t117 -131.5t35.5 -181.5q0 -55 -8 -101.5t-19 -102.5h-200v82q0 281 -153 281q-82 0 -119 -61.5t-37 -225.5v-770q0 -159 38 -217.5
t120 -58.5q86 0 125 83.5t39 206.5v218h-133v170h381v-865h-168l-28 163q-36 -71 -106 -125t-157 -54z" />
    <glyph glyph-name="Gbreve" unicode="&#x11e;" horiz-adv-x="1029" 
d="M489 -16q-36 0 -85.5 11t-101 43t-96 95t-72 166t-27.5 257v605q0 154 29 256.5t76.5 164t105.5 92t116 40t107 9.5q139 0 220.5 -49t117 -131.5t35.5 -181.5q0 -55 -8 -101.5t-19 -102.5h-200v82q0 281 -153 281q-82 0 -119 -61.5t-37 -225.5v-770q0 -159 38 -217.5
t120 -58.5q86 0 125 83.5t39 206.5v218h-133v170h381v-865h-168l-28 163q-36 -71 -106 -125t-157 -54zM510 1786q-160 0 -237 74.5t-77 191.5q0 34 6 67h178q-7 -16 -8.5 -34t-1.5 -37q0 -99 139 -99q158 0 158 99v37t-8 34h169q6 -33 6 -67q0 -111 -80 -188.5t-244 -77.5z
" />
    <glyph glyph-name="Gcaron" unicode="&#x1e6;" horiz-adv-x="1029" 
d="M489 -16q-36 0 -85.5 11t-101 43t-96 95t-72 166t-27.5 257v605q0 154 29 256.5t76.5 164t105.5 92t116 40t107 9.5q139 0 220.5 -49t117 -131.5t35.5 -181.5q0 -55 -8 -101.5t-19 -102.5h-200v82q0 281 -153 281q-82 0 -119 -61.5t-37 -225.5v-770q0 -159 38 -217.5
t120 -58.5q86 0 125 83.5t39 206.5v218h-133v170h381v-865h-168l-28 163q-36 -71 -106 -125t-157 -54zM631 2086h249l-246 -310h-234l-250 310h248l84 -130l40 -56l40 56z" />
    <glyph glyph-name="Gcircumflex" unicode="&#x11c;" horiz-adv-x="1029" 
d="M489 -16q-36 0 -85.5 11t-101 43t-96 95t-72 166t-27.5 257v605q0 154 29 256.5t76.5 164t105.5 92t116 40t107 9.5q139 0 220.5 -49t117 -131.5t35.5 -181.5q0 -55 -8 -101.5t-19 -102.5h-200v82q0 281 -153 281q-82 0 -119 -61.5t-37 -225.5v-770q0 -159 38 -217.5
t120 -58.5q86 0 125 83.5t39 206.5v218h-133v170h381v-865h-168l-28 163q-36 -71 -106 -125t-157 -54zM562 1936l-40 56l-40 -56l-84 -130h-248l250 310h234l246 -310h-249z" />
    <glyph glyph-name="uni0122" unicode="&#x122;" horiz-adv-x="1029" 
d="M489 -16q-36 0 -85.5 11t-101 43t-96 95t-72 166t-27.5 257v605q0 154 29 256.5t76.5 164t105.5 92t116 40t107 9.5q139 0 220.5 -49t117 -131.5t35.5 -181.5q0 -55 -8 -101.5t-19 -102.5h-200v82q0 281 -153 281q-82 0 -119 -61.5t-37 -225.5v-770q0 -159 38 -217.5
t120 -58.5q86 0 125 83.5t39 206.5v218h-133v170h381v-865h-168l-28 163q-36 -71 -106 -125t-157 -54zM636 -97l-108 -434h-195l62 434h241z" />
    <glyph glyph-name="Gdotaccent" unicode="&#x120;" horiz-adv-x="1029" 
d="M489 -16q-36 0 -85.5 11t-101 43t-96 95t-72 166t-27.5 257v605q0 154 29 256.5t76.5 164t105.5 92t116 40t107 9.5q139 0 220.5 -49t117 -131.5t35.5 -181.5q0 -55 -8 -101.5t-19 -102.5h-200v82q0 281 -153 281q-82 0 -119 -61.5t-37 -225.5v-770q0 -159 38 -217.5
t120 -58.5q86 0 125 83.5t39 206.5v218h-133v170h381v-865h-168l-28 163q-36 -71 -106 -125t-157 -54zM513 1790q-70 0 -112.5 44t-42.5 124q0 89 42.5 126t113.5 37q74 0 115.5 -40t41.5 -123q0 -78 -42 -123t-116 -45z" />
    <glyph glyph-name="uni1E20" unicode="&#x1e20;" horiz-adv-x="1029" 
d="M489 -16q-36 0 -85.5 11t-101 43t-96 95t-72 166t-27.5 257v605q0 154 29 256.5t76.5 164t105.5 92t116 40t107 9.5q139 0 220.5 -49t117 -131.5t35.5 -181.5q0 -55 -8 -101.5t-19 -102.5h-200v82q0 281 -153 281q-82 0 -119 -61.5t-37 -225.5v-770q0 -159 38 -217.5
t120 -58.5q86 0 125 83.5t39 206.5v218h-133v170h381v-865h-168l-28 163q-36 -71 -106 -125t-157 -54zM203 2028h623v-193h-623v193z" />
    <glyph glyph-name="uni01E4" unicode="&#x1e4;" horiz-adv-x="1149" 
d="M489 -16q-36 0 -85.5 11t-101 43t-96 95t-72 166t-27.5 257v605q0 154 29 256.5t76.5 164t105.5 92t116 40t107 9.5q139 0 220.5 -49t117 -131.5t35.5 -181.5q0 -55 -8 -101.5t-19 -102.5h-200v82q0 281 -153 281q-82 0 -119 -61.5t-37 -225.5v-770q0 -159 38 -217.5
t120 -58.5q86 0 125 83.5t39 206.5v218h-133v170h381v-865h-168l-28 163q-36 -71 -106 -125t-157 -54zM520 444v190h600v-190h-600z" />
    <glyph glyph-name="H" unicode="H" horiz-adv-x="1107" 
d="M141 1708h259v-715h307v715h259v-1708h-259v789h-307v-789h-259v1708z" />
    <glyph glyph-name="Hbar" unicode="&#x126;" horiz-adv-x="1107" 
d="M20 1376h121v332h259v-332h307v332h259v-332h121v-193h-121v-1183h-259v789h-307v-789h-259v1183h-121v193zM400 993h307v190h-307v-190z" />
    <glyph glyph-name="uni1E2A" unicode="&#x1e2a;" horiz-adv-x="1107" 
d="M141 1708h259v-715h307v715h259v-1708h-259v789h-307v-789h-259v1708zM549 -444q-106 0 -176 44t-104 114t-34 148q0 34 6 67h178q-7 -16 -8.5 -34t-1.5 -37q0 -52 34.5 -95.5t104.5 -43.5q80 0 119 44.5t39 94.5v37t-8 34h169q6 -33 6 -67q0 -74 -35.5 -144.5
t-107.5 -116t-181 -45.5z" />
    <glyph glyph-name="Hcircumflex" unicode="&#x124;" horiz-adv-x="1107" 
d="M141 1708h259v-715h307v715h259v-1708h-259v789h-307v-789h-259v1708zM601 1936l-40 56l-40 -56l-84 -130h-248l250 310h234l246 -310h-249z" />
    <glyph glyph-name="uni1E24" unicode="&#x1e24;" horiz-adv-x="1107" 
d="M141 1708h259v-715h307v715h259v-1708h-259v789h-307v-789h-259v1708zM398 -257q0 89 42.5 126t113.5 37q74 0 115.5 -40t41.5 -123q0 -78 -42 -123t-116 -45q-70 0 -112.5 44t-42.5 124z" />
    <glyph glyph-name="uniA78D" unicode="&#x265;" horiz-adv-x="1012" 
d="M884 0h-253v593l13 236q-56 -77 -125 -105.5t-139 -28.5q-120 0 -186 85t-66 253v675h253v-645q0 -91 28 -126.5t82 -35.5q38 0 75 26t65 70v711h253v-1708z" />
    <glyph glyph-name="uniA78D" unicode="&#xa78d;" horiz-adv-x="1012" 
d="M884 0h-253v593l13 236q-56 -77 -125 -105.5t-139 -28.5q-120 0 -186 85t-66 253v675h253v-645q0 -91 28 -126.5t82 -35.5q38 0 75 26t65 70v711h253v-1708z" />
    <glyph glyph-name="uniA78D" unicode="&#xa78d;" horiz-adv-x="1012" 
d="M884 0h-253v593l13 236q-56 -77 -125 -105.5t-139 -28.5q-120 0 -186 85t-66 253v675h253v-645q0 -91 28 -126.5t82 -35.5q38 0 75 26t65 70v711h253v-1708z" />
    <glyph glyph-name="I" unicode="I" horiz-adv-x="545" 
d="M143 1708h259v-1708h-259v1708z" />
    <glyph glyph-name="IJ" unicode="&#x132;" horiz-adv-x="1356" 
d="M143 1708h259v-1708h-259v1708zM547 362q0 54 7 122t21 135h207v-201q0 -132 24.5 -181.5t79.5 -49.5q47 0 73.5 41t26.5 157v1323h259v-1294q0 -177 -51.5 -269.5t-133.5 -126.5t-174 -34q-129 0 -203 51.5t-105 137.5t-31 189z" />
    <glyph glyph-name="Iacute" unicode="&#xcd;" horiz-adv-x="545" 
d="M143 1708h259v-1708h-259v1708zM273 1776l-125 94l241 286l169 -127z" />
    <glyph glyph-name="Ibreve" unicode="&#x12c;" horiz-adv-x="545" 
d="M143 1708h259v-1708h-259v1708zM268 1786q-160 0 -237 74.5t-77 191.5q0 34 6 67h178q-7 -16 -8.5 -34t-1.5 -37q0 -99 139 -99q158 0 158 99v37t-8 34h169q6 -33 6 -67q0 -111 -80 -188.5t-244 -77.5z" />
    <glyph glyph-name="uni01CF" unicode="&#x1cf;" horiz-adv-x="545" 
d="M143 1708h259v-1708h-259v1708zM389 2086h249l-246 -310h-234l-250 310h248l84 -130l40 -56l40 56z" />
    <glyph glyph-name="Icircumflex" unicode="&#xce;" horiz-adv-x="545" 
d="M143 1708h259v-1708h-259v1708zM320 1936l-40 56l-40 -56l-84 -130h-248l250 310h234l246 -310h-249z" />
    <glyph glyph-name="Idieresis" unicode="&#xcf;" horiz-adv-x="545" 
d="M143 1708h259v-1708h-259v1708zM50 1784q-78 0 -107.5 39t-29.5 114q0 80 29 121t108 41q82 0 113.5 -39.5t31.5 -122.5q0 -72 -31.5 -112.5t-113.5 -40.5zM487 1784q-78 0 -107 39t-29 114q0 80 28.5 121t107.5 41q82 0 114 -39.5t32 -122.5q0 -72 -32 -112.5
t-114 -40.5z" />
    <glyph glyph-name="uni1E2E" unicode="&#x1e2e;" horiz-adv-x="545" 
d="M143 1708h259v-1708h-259v1708zM50 1784q-78 0 -107.5 39t-29.5 114q0 80 29 121t108 41q82 0 113.5 -39.5t31.5 -122.5q0 -72 -31.5 -112.5t-113.5 -40.5zM487 1784q-78 0 -107 39t-29 114q0 80 28.5 121t107.5 41q82 0 114 -39.5t32 -122.5q0 -72 -32 -112.5
t-114 -40.5zM273 2147l-125 94l241 286l169 -127z" />
    <glyph glyph-name="Idotaccent" unicode="&#x130;" horiz-adv-x="545" 
d="M143 1708h259v-1708h-259v1708zM271 1790q-70 0 -112.5 44t-42.5 124q0 89 42.5 126t113.5 37q74 0 115.5 -40t41.5 -123q0 -78 -42 -123t-116 -45z" />
    <glyph glyph-name="uni1ECA" unicode="&#x1eca;" horiz-adv-x="545" 
d="M143 1708h259v-1708h-259v1708zM117 -257q0 89 42.5 126t113.5 37q74 0 115.5 -40t41.5 -123q0 -78 -42 -123t-116 -45q-70 0 -112.5 44t-42.5 124z" />
    <glyph glyph-name="Igrave" unicode="&#xcc;" horiz-adv-x="545" 
d="M143 1708h259v-1708h-259v1708zM276 1756l-285 253l169 127l241 -286z" />
    <glyph glyph-name="uni1EC8" unicode="&#x1ec8;" horiz-adv-x="545" 
d="M143 1708h259v-1708h-259v1708zM181 1819v116q53 0 80.5 21.5t27.5 53.5q0 47 -54 80t-146 41l36 136q154 -16 243 -90t89 -172q0 -81 -67 -127t-209 -59z" />
    <glyph glyph-name="Imacron" unicode="&#x12a;" horiz-adv-x="545" 
d="M143 1708h259v-1708h-259v1708zM-39 2028h623v-193h-623v193z" />
    <glyph glyph-name="Iogonek" unicode="&#x12e;" horiz-adv-x="545" 
d="M143 1708h259v-1708h-259v1708zM297 13l105 -13q-60 -67 -65 -121t25 -86t75 -32h16.5t16.5 1l7 -151q-41 -16 -75.5 -23t-75.5 -7q-31 0 -79.5 17t-86 65.5t-37.5 142.5q0 78 34.5 128.5t50.5 65.5z" />
    <glyph glyph-name="uni0197" unicode="&#x197;" horiz-adv-x="545" 
d="M143 1708h259v-1708h-259v1708zM-31 831v190h600v-190h-600z" />
    <glyph glyph-name="Itilde" unicode="&#x128;" horiz-adv-x="545" 
d="M143 1708h259v-1708h-259v1708zM410 1788q-51 0 -88 16t-72 47q-40 38 -57.5 58t-43.5 20q-36 0 -36 -58v-66h-148q0 11 -1.5 38t-1.5 36q0 123 55.5 169.5t128.5 46.5q49 0 82.5 -15.5t66.5 -45.5q22 -22 50.5 -51t54.5 -29q42 0 42 52v71h132q9 -64 9 -96
q0 -95 -52.5 -144t-120.5 -49z" />
    <glyph glyph-name="J" unicode="J" horiz-adv-x="821" 
d="M12 362q0 54 7 122t21 135h207v-201q0 -132 24.5 -181.5t79.5 -49.5q47 0 73.5 41t26.5 157v1323h259v-1294q0 -177 -51.5 -269.5t-133.5 -126.5t-174 -34q-129 0 -203 51.5t-105 137.5t-31 189z" />
    <glyph glyph-name="uni004A0301" horiz-adv-x="821" 
d="M12 362q0 54 7 122t21 135h207v-201q0 -132 24.5 -181.5t79.5 -49.5q47 0 73.5 41t26.5 157v1323h259v-1294q0 -177 -51.5 -269.5t-133.5 -126.5t-174 -34q-129 0 -203 51.5t-105 137.5t-31 189zM577 1776l-125 94l241 286l169 -127z" />
    <glyph glyph-name="Jcircumflex" unicode="&#x134;" horiz-adv-x="821" 
d="M12 362q0 54 7 122t21 135h207v-201q0 -132 24.5 -181.5t79.5 -49.5q47 0 73.5 41t26.5 157v1323h259v-1294q0 -177 -51.5 -269.5t-133.5 -126.5t-174 -34q-129 0 -203 51.5t-105 137.5t-31 189zM624 1936l-40 56l-40 -56l-84 -130h-248l250 310h234l246 -310h-249z" />
    <glyph glyph-name="K" unicode="K" horiz-adv-x="1011" 
d="M141 1708h259v-746h8l296 746h258l-329 -801l366 -907h-277l-314 813h-8v-813h-259v1708z" />
    <glyph glyph-name="uni01E8" unicode="&#x1e8;" horiz-adv-x="1011" 
d="M141 1708h259v-746h8l296 746h258l-329 -801l366 -907h-277l-314 813h-8v-813h-259v1708zM622 2086h249l-246 -310h-234l-250 310h248l84 -130l40 -56l40 56z" />
    <glyph glyph-name="uni0136" unicode="&#x136;" horiz-adv-x="1011" 
d="M141 1708h259v-746h8l296 746h258l-329 -801l366 -907h-277l-314 813h-8v-813h-259v1708zM627 -97l-108 -434h-195l62 434h241z" />
    <glyph glyph-name="Kmacronbelow" unicode="&#x1e34;" horiz-adv-x="1011" 
d="M141 1708h259v-746h8l296 746h258l-329 -801l366 -907h-277l-314 813h-8v-813h-259v1708zM194 -156h623v-193h-623v193z" />
    <glyph glyph-name="L" unicode="L" horiz-adv-x="766" 
d="M141 1708h259v-1504h353v-204h-612v1708z" />
    <glyph glyph-name="Lacute" unicode="&#x139;" horiz-adv-x="766" 
d="M141 1708h259v-1504h353v-204h-612v1708zM271 1776l-125 94l241 286l169 -127z" />
    <glyph glyph-name="Lcaron" unicode="&#x13d;" horiz-adv-x="766" 
d="M141 1708h259v-1504h353v-204h-612v1708zM513 1820h237l-46 -373h-211z" />
    <glyph glyph-name="uni1E3C" unicode="&#x1e3c;" horiz-adv-x="766" 
d="M141 1708h259v-1504h353v-204h-612v1708zM517 -65l276 -401h-219l-88 152l-51 82l-50 -82l-94 -152h-218l270 401h174z" />
    <glyph glyph-name="uni013B" unicode="&#x13b;" horiz-adv-x="766" 
d="M141 1708h259v-1504h353v-204h-612v1708zM554 -97l-108 -434h-195l62 434h241z" />
    <glyph glyph-name="Ldot" unicode="&#x13f;" horiz-adv-x="784" 
d="M141 1708h259v-1504h353v-204h-612v1708zM669 601q-72 0 -107.5 51t-35.5 113q0 68 35 121t108 53q76 0 113 -52.5t37 -121.5q0 -60 -37 -112t-113 -52z" />
    <glyph glyph-name="uni1E36" unicode="&#x1e36;" horiz-adv-x="766" 
d="M141 1708h259v-1504h353v-204h-612v1708zM277 -257q0 89 42.5 126t113.5 37q74 0 115.5 -40t41.5 -123q0 -78 -42 -123t-116 -45q-70 0 -112.5 44t-42.5 124z" />
    <glyph glyph-name="uni1E38" unicode="&#x1e38;" horiz-adv-x="766" 
d="M141 1708h259v-1504h353v-204h-612v1708zM277 -257q0 89 42.5 126t113.5 37q74 0 115.5 -40t41.5 -123q0 -78 -42 -123t-116 -45q-70 0 -112.5 44t-42.5 124zM-41 2028h623v-193h-623v193z" />
    <glyph glyph-name="Lmacronbelow" unicode="&#x1e3a;" horiz-adv-x="766" 
d="M141 1708h259v-1504h353v-204h-612v1708zM121 -156h623v-193h-623v193z" />
    <glyph glyph-name="Lslash" unicode="&#x141;" horiz-adv-x="791" 
d="M161 763l-104 -81l-118 155l222 178v710h256v-494l197 160l130 -168l-327 -253v-763h354v-207h-610v763z" />
    <glyph glyph-name="M" unicode="M" horiz-adv-x="1412" 
d="M141 1708h321l171 -691q27 -109 42 -209.5t28 -187.5h8q14 87 28.5 187.5t41.5 209.5l169 691h321v-1708h-232v565q0 174 4.5 327t11 268t11.5 175h-19l-258 -1115h-164l-260 1115h-19q6 -60 12 -175t10.5 -268t4.5 -327v-565h-232v1708z" />
    <glyph glyph-name="uni1E3E" unicode="&#x1e3e;" horiz-adv-x="1412" 
d="M141 1708h321l171 -691q27 -109 42 -209.5t28 -187.5h8q14 87 28.5 187.5t41.5 209.5l169 691h321v-1708h-232v565q0 174 4.5 327t11 268t11.5 175h-19l-258 -1115h-164l-260 1115h-19q6 -60 12 -175t10.5 -268t4.5 -327v-565h-232v1708zM706 1776l-125 94l241 286
l169 -127z" />
    <glyph glyph-name="uni1E40" unicode="&#x1e40;" horiz-adv-x="1412" 
d="M141 1708h321l171 -691q27 -109 42 -209.5t28 -187.5h8q14 87 28.5 187.5t41.5 209.5l169 691h321v-1708h-232v565q0 174 4.5 327t11 268t11.5 175h-19l-258 -1115h-164l-260 1115h-19q6 -60 12 -175t10.5 -268t4.5 -327v-565h-232v1708zM704 1790q-70 0 -112.5 44
t-42.5 124q0 89 42.5 126t113.5 37q74 0 115.5 -40t41.5 -123q0 -78 -42 -123t-116 -45z" />
    <glyph glyph-name="uni1E42" unicode="&#x1e42;" horiz-adv-x="1412" 
d="M141 1708h321l171 -691q27 -109 42 -209.5t28 -187.5h8q14 87 28.5 187.5t41.5 209.5l169 691h321v-1708h-232v565q0 174 4.5 327t11 268t11.5 175h-19l-258 -1115h-164l-260 1115h-19q6 -60 12 -175t10.5 -268t4.5 -327v-565h-232v1708zM550 -247q0 89 42.5 126
t113.5 37q74 0 115.5 -40t41.5 -123q0 -78 -42 -123t-116 -45q-70 0 -112.5 44t-42.5 124z" />
    <glyph glyph-name="N" unicode="N" horiz-adv-x="1113" 
d="M141 1708h205l417 -1123h6q-4 53 -10.5 118.5t-11.5 157.5t-5 224v623h230v-1708h-207l-415 1093h-8q5 -60 11 -131t11 -179t5 -281v-502h-228v1708z" />
    <glyph glyph-name="Nacute" unicode="&#x143;" horiz-adv-x="1113" 
d="M141 1708h205l417 -1123h6q-4 53 -10.5 118.5t-11.5 157.5t-5 224v623h230v-1708h-207l-415 1093h-8q5 -60 11 -131t11 -179t5 -281v-502h-228v1708zM557 1776l-125 94l241 286l169 -127z" />
    <glyph glyph-name="Ncaron" unicode="&#x147;" horiz-adv-x="1113" 
d="M141 1708h205l417 -1123h6q-4 53 -10.5 118.5t-11.5 157.5t-5 224v623h230v-1708h-207l-415 1093h-8q5 -60 11 -131t11 -179t5 -281v-502h-228v1708zM673 2086h249l-246 -310h-234l-250 310h248l84 -130l40 -56l40 56z" />
    <glyph glyph-name="uni1E4A" unicode="&#x1e4a;" horiz-adv-x="1113" 
d="M141 1708h205l417 -1123h6q-4 53 -10.5 118.5t-11.5 157.5t-5 224v623h230v-1708h-207l-415 1093h-8q5 -60 11 -131t11 -179t5 -281v-502h-228v1708zM641 -65l276 -401h-219l-88 152l-51 82l-50 -82l-94 -152h-218l270 401h174z" />
    <glyph glyph-name="uni0145" unicode="&#x145;" horiz-adv-x="1113" 
d="M141 1708h205l417 -1123h6q-4 53 -10.5 118.5t-11.5 157.5t-5 224v623h230v-1708h-207l-415 1093h-8q5 -60 11 -131t11 -179t5 -281v-502h-228v1708zM678 -97l-108 -434h-195l62 434h241z" />
    <glyph glyph-name="uni1E44" unicode="&#x1e44;" horiz-adv-x="1113" 
d="M141 1708h205l417 -1123h6q-4 53 -10.5 118.5t-11.5 157.5t-5 224v623h230v-1708h-207l-415 1093h-8q5 -60 11 -131t11 -179t5 -281v-502h-228v1708zM555 1790q-70 0 -112.5 44t-42.5 124q0 89 42.5 126t113.5 37q74 0 115.5 -40t41.5 -123q0 -78 -42 -123t-116 -45z" />
    <glyph glyph-name="uni1E46" unicode="&#x1e46;" horiz-adv-x="1113" 
d="M141 1708h205l417 -1123h6q-4 53 -10.5 118.5t-11.5 157.5t-5 224v623h230v-1708h-207l-415 1093h-8q5 -60 11 -131t11 -179t5 -281v-502h-228v1708zM401 -257q0 89 42.5 126t113.5 37q74 0 115.5 -40t41.5 -123q0 -78 -42 -123t-116 -45q-70 0 -112.5 44t-42.5 124z" />
    <glyph glyph-name="uni019D" unicode="&#x19d;" horiz-adv-x="1113" 
d="M121 -444q-30 0 -61 5.5t-61 18.5v147q8 -1 16 -1.5t16 -0.5q44 0 76.5 34.5t32.5 124.5v1824h206l417 -1123h6q-4 53 -10.5 118.5t-11.5 157.5t-5 224v623h230v-1708h-207l-415 1093h-8q5 -60 11 -131t11 -179t5 -281v-586q0 -150 -32.5 -227.5t-88.5 -105t-127 -27.5z
" />
    <glyph glyph-name="Nmacronbelow" unicode="&#x1e48;" horiz-adv-x="1113" 
d="M141 1708h205l417 -1123h6q-4 53 -10.5 118.5t-11.5 157.5t-5 224v623h230v-1708h-207l-415 1093h-8q5 -60 11 -131t11 -179t5 -281v-502h-228v1708zM245 -156h623v-193h-623v193z" />
    <glyph glyph-name="Ntilde" unicode="&#xd1;" horiz-adv-x="1113" 
d="M141 1708h205l417 -1123h6q-4 53 -10.5 118.5t-11.5 157.5t-5 224v623h230v-1708h-207l-415 1093h-8q5 -60 11 -131t11 -179t5 -281v-502h-228v1708zM694 1788q-51 0 -88 16t-72 47q-40 38 -57.5 58t-43.5 20q-36 0 -36 -58v-66h-148q0 11 -1.5 38t-1.5 36
q0 123 55.5 169.5t128.5 46.5q49 0 82.5 -15.5t66.5 -45.5q22 -22 50.5 -51t54.5 -29q42 0 42 52v71h132q9 -64 9 -96q0 -95 -52.5 -144t-120.5 -49z" />
    <glyph glyph-name="Eng" unicode="&#x14a;" horiz-adv-x="1094" 
d="M678 -444q-30 0 -61 5.5t-61 18.5v147q8 -1 16 -1.5t16 -0.5q44 0 77.5 34.5t33.5 124.5v1472q0 91 -32.5 126.5t-113.5 35.5q-53 0 -91.5 -25t-67.5 -69v-1424h-253v1708h193l25 -147v-1q59 95 136.5 129.5t168.5 34.5q288 0 288 -338v-1470q0 -150 -39 -227.5
t-101.5 -105t-133.5 -27.5z" />
    <glyph glyph-name="O" unicode="O" horiz-adv-x="1074" 
d="M539 -15q-62 0 -135.5 18t-139.5 75t-108 171.5t-42 306.5v605q0 154 28.5 256.5t75 164t103 92t113.5 40t105 9.5q46 0 102.5 -9t112.5 -38.5t102.5 -90.5t75 -164t28.5 -260v-605q0 -190 -44 -304t-111 -171.5t-138.5 -76.5t-127.5 -19zM539 188q77 0 114 58t37 217
v770q0 164 -37 225.5t-114 61.5q-79 0 -116.5 -61.5t-37.5 -225.5v-770q0 -159 37.5 -217t116.5 -58z" />
    <glyph glyph-name="Oacute" unicode="&#xd3;" horiz-adv-x="1074" 
d="M539 -15q-62 0 -135.5 18t-139.5 75t-108 171.5t-42 306.5v605q0 154 28.5 256.5t75 164t103 92t113.5 40t105 9.5q46 0 102.5 -9t112.5 -38.5t102.5 -90.5t75 -164t28.5 -260v-605q0 -190 -44 -304t-111 -171.5t-138.5 -76.5t-127.5 -19zM539 188q77 0 114 58t37 217
v770q0 164 -37 225.5t-114 61.5q-79 0 -116.5 -61.5t-37.5 -225.5v-770q0 -159 37.5 -217t116.5 -58zM537 1776l-125 94l241 286l169 -127z" />
    <glyph glyph-name="Obreve" unicode="&#x14e;" horiz-adv-x="1074" 
d="M539 -15q-62 0 -135.5 18t-139.5 75t-108 171.5t-42 306.5v605q0 154 28.5 256.5t75 164t103 92t113.5 40t105 9.5q46 0 102.5 -9t112.5 -38.5t102.5 -90.5t75 -164t28.5 -260v-605q0 -190 -44 -304t-111 -171.5t-138.5 -76.5t-127.5 -19zM539 188q77 0 114 58t37 217
v770q0 164 -37 225.5t-114 61.5q-79 0 -116.5 -61.5t-37.5 -225.5v-770q0 -159 37.5 -217t116.5 -58zM532 1786q-160 0 -237 74.5t-77 191.5q0 34 6 67h178q-7 -16 -8.5 -34t-1.5 -37q0 -99 139 -99q158 0 158 99v37t-8 34h169q6 -33 6 -67q0 -111 -80 -188.5t-244 -77.5z
" />
    <glyph glyph-name="uni01D1" unicode="&#x1d1;" horiz-adv-x="1074" 
d="M539 -15q-62 0 -135.5 18t-139.5 75t-108 171.5t-42 306.5v605q0 154 28.5 256.5t75 164t103 92t113.5 40t105 9.5q46 0 102.5 -9t112.5 -38.5t102.5 -90.5t75 -164t28.5 -260v-605q0 -190 -44 -304t-111 -171.5t-138.5 -76.5t-127.5 -19zM539 188q77 0 114 58t37 217
v770q0 164 -37 225.5t-114 61.5q-79 0 -116.5 -61.5t-37.5 -225.5v-770q0 -159 37.5 -217t116.5 -58zM653 2086h249l-246 -310h-234l-250 310h248l84 -130l40 -56l40 56z" />
    <glyph glyph-name="Ocircumflex" unicode="&#xd4;" horiz-adv-x="1074" 
d="M539 -15q-62 0 -135.5 18t-139.5 75t-108 171.5t-42 306.5v605q0 154 28.5 256.5t75 164t103 92t113.5 40t105 9.5q46 0 102.5 -9t112.5 -38.5t102.5 -90.5t75 -164t28.5 -260v-605q0 -190 -44 -304t-111 -171.5t-138.5 -76.5t-127.5 -19zM539 188q77 0 114 58t37 217
v770q0 164 -37 225.5t-114 61.5q-79 0 -116.5 -61.5t-37.5 -225.5v-770q0 -159 37.5 -217t116.5 -58zM584 1936l-40 56l-40 -56l-84 -130h-248l250 310h234l246 -310h-249z" />
    <glyph glyph-name="uni1ED0" unicode="&#x1ed0;" horiz-adv-x="1074" 
d="M539 -15q-62 0 -135.5 18t-139.5 75t-108 171.5t-42 306.5v605q0 154 28.5 256.5t75 164t103 92t113.5 40t105 9.5q46 0 102.5 -9t112.5 -38.5t102.5 -90.5t75 -164t28.5 -260v-605q0 -190 -44 -304t-111 -171.5t-138.5 -76.5t-127.5 -19zM539 188q77 0 114 58t37 217
v770q0 164 -37 225.5t-114 61.5q-79 0 -116.5 -61.5t-37.5 -225.5v-770q0 -159 37.5 -217t116.5 -58zM584 1936l-40 56l-40 -56l-84 -130h-248l250 310h234l246 -310h-249zM537 2154l-125 94l241 286l169 -127z" />
    <glyph glyph-name="uni1ED8" unicode="&#x1ed8;" horiz-adv-x="1074" 
d="M539 -15q-62 0 -135.5 18t-139.5 75t-108 171.5t-42 306.5v605q0 154 28.5 256.5t75 164t103 92t113.5 40t105 9.5q46 0 102.5 -9t112.5 -38.5t102.5 -90.5t75 -164t28.5 -260v-605q0 -190 -44 -304t-111 -171.5t-138.5 -76.5t-127.5 -19zM539 188q77 0 114 58t37 217
v770q0 164 -37 225.5t-114 61.5q-79 0 -116.5 -61.5t-37.5 -225.5v-770q0 -159 37.5 -217t116.5 -58zM381 -257q0 89 42.5 126t113.5 37q74 0 115.5 -40t41.5 -123q0 -78 -42 -123t-116 -45q-70 0 -112.5 44t-42.5 124zM584 1936l-40 56l-40 -56l-84 -130h-248l250 310h234
l246 -310h-249z" />
    <glyph glyph-name="uni1ED2" unicode="&#x1ed2;" horiz-adv-x="1074" 
d="M539 -15q-62 0 -135.5 18t-139.5 75t-108 171.5t-42 306.5v605q0 154 28.5 256.5t75 164t103 92t113.5 40t105 9.5q46 0 102.5 -9t112.5 -38.5t102.5 -90.5t75 -164t28.5 -260v-605q0 -190 -44 -304t-111 -171.5t-138.5 -76.5t-127.5 -19zM539 188q77 0 114 58t37 217
v770q0 164 -37 225.5t-114 61.5q-79 0 -116.5 -61.5t-37.5 -225.5v-770q0 -159 37.5 -217t116.5 -58zM584 1936l-40 56l-40 -56l-84 -130h-248l250 310h234l246 -310h-249zM540 2134l-285 253l169 127l241 -286z" />
    <glyph glyph-name="uni1ED4" unicode="&#x1ed4;" horiz-adv-x="1074" 
d="M539 -15q-62 0 -135.5 18t-139.5 75t-108 171.5t-42 306.5v605q0 154 28.5 256.5t75 164t103 92t113.5 40t105 9.5q46 0 102.5 -9t112.5 -38.5t102.5 -90.5t75 -164t28.5 -260v-605q0 -190 -44 -304t-111 -171.5t-138.5 -76.5t-127.5 -19zM539 188q77 0 114 58t37 217
v770q0 164 -37 225.5t-114 61.5q-79 0 -116.5 -61.5t-37.5 -225.5v-770q0 -159 37.5 -217t116.5 -58zM584 1936l-40 56l-40 -56l-84 -130h-248l250 310h234l246 -310h-249zM445 2197v116q53 0 80.5 21.5t27.5 53.5q0 47 -54 80t-146 41l36 136q154 -16 243 -90t89 -172
q0 -81 -67 -127t-209 -59z" />
    <glyph glyph-name="uni1ED6" unicode="&#x1ed6;" horiz-adv-x="1074" 
d="M539 -15q-62 0 -135.5 18t-139.5 75t-108 171.5t-42 306.5v605q0 154 28.5 256.5t75 164t103 92t113.5 40t105 9.5q46 0 102.5 -9t112.5 -38.5t102.5 -90.5t75 -164t28.5 -260v-605q0 -190 -44 -304t-111 -171.5t-138.5 -76.5t-127.5 -19zM539 188q77 0 114 58t37 217
v770q0 164 -37 225.5t-114 61.5q-79 0 -116.5 -61.5t-37.5 -225.5v-770q0 -159 37.5 -217t116.5 -58zM584 1936l-40 56l-40 -56l-84 -130h-248l250 310h234l246 -310h-249zM674 2166q-51 0 -88 16t-72 47q-40 38 -57.5 58t-43.5 20q-36 0 -36 -58v-66h-148q0 11 -1.5 38
t-1.5 36q0 123 55.5 169.5t128.5 46.5q49 0 82.5 -15.5t66.5 -45.5q22 -22 50.5 -51t54.5 -29q42 0 42 52v71h132q9 -64 9 -96q0 -95 -52.5 -144t-120.5 -49z" />
    <glyph glyph-name="Odieresis" unicode="&#xd6;" horiz-adv-x="1074" 
d="M539 -15q-62 0 -135.5 18t-139.5 75t-108 171.5t-42 306.5v605q0 154 28.5 256.5t75 164t103 92t113.5 40t105 9.5q46 0 102.5 -9t112.5 -38.5t102.5 -90.5t75 -164t28.5 -260v-605q0 -190 -44 -304t-111 -171.5t-138.5 -76.5t-127.5 -19zM539 188q77 0 114 58t37 217
v770q0 164 -37 225.5t-114 61.5q-79 0 -116.5 -61.5t-37.5 -225.5v-770q0 -159 37.5 -217t116.5 -58zM314 1784q-78 0 -107.5 39t-29.5 114q0 80 29 121t108 41q82 0 113.5 -39.5t31.5 -122.5q0 -72 -31.5 -112.5t-113.5 -40.5zM751 1784q-78 0 -107 39t-29 114
q0 80 28.5 121t107.5 41q82 0 114 -39.5t32 -122.5q0 -72 -32 -112.5t-114 -40.5z" />
    <glyph glyph-name="uni022A" unicode="&#x22a;" horiz-adv-x="1074" 
d="M539 -15q-62 0 -135.5 18t-139.5 75t-108 171.5t-42 306.5v605q0 154 28.5 256.5t75 164t103 92t113.5 40t105 9.5q46 0 102.5 -9t112.5 -38.5t102.5 -90.5t75 -164t28.5 -260v-605q0 -190 -44 -304t-111 -171.5t-138.5 -76.5t-127.5 -19zM539 188q77 0 114 58t37 217
v770q0 164 -37 225.5t-114 61.5q-79 0 -116.5 -61.5t-37.5 -225.5v-770q0 -159 37.5 -217t116.5 -58zM314 1784q-78 0 -107.5 39t-29.5 114q0 80 29 121t108 41q82 0 113.5 -39.5t31.5 -122.5q0 -72 -31.5 -112.5t-113.5 -40.5zM751 1784q-78 0 -107 39t-29 114
q0 80 28.5 121t107.5 41q82 0 114 -39.5t32 -122.5q0 -72 -32 -112.5t-114 -40.5zM225 2399h623v-193h-623v193z" />
    <glyph glyph-name="uni1ECC" unicode="&#x1ecc;" horiz-adv-x="1074" 
d="M539 -15q-62 0 -135.5 18t-139.5 75t-108 171.5t-42 306.5v605q0 154 28.5 256.5t75 164t103 92t113.5 40t105 9.5q46 0 102.5 -9t112.5 -38.5t102.5 -90.5t75 -164t28.5 -260v-605q0 -190 -44 -304t-111 -171.5t-138.5 -76.5t-127.5 -19zM539 188q77 0 114 58t37 217
v770q0 164 -37 225.5t-114 61.5q-79 0 -116.5 -61.5t-37.5 -225.5v-770q0 -159 37.5 -217t116.5 -58zM381 -257q0 89 42.5 126t113.5 37q74 0 115.5 -40t41.5 -123q0 -78 -42 -123t-116 -45q-70 0 -112.5 44t-42.5 124z" />
    <glyph glyph-name="Ograve" unicode="&#xd2;" horiz-adv-x="1074" 
d="M539 -15q-62 0 -135.5 18t-139.5 75t-108 171.5t-42 306.5v605q0 154 28.5 256.5t75 164t103 92t113.5 40t105 9.5q46 0 102.5 -9t112.5 -38.5t102.5 -90.5t75 -164t28.5 -260v-605q0 -190 -44 -304t-111 -171.5t-138.5 -76.5t-127.5 -19zM539 188q77 0 114 58t37 217
v770q0 164 -37 225.5t-114 61.5q-79 0 -116.5 -61.5t-37.5 -225.5v-770q0 -159 37.5 -217t116.5 -58zM540 1756l-285 253l169 127l241 -286z" />
    <glyph glyph-name="uni1ECE" unicode="&#x1ece;" horiz-adv-x="1074" 
d="M539 -15q-62 0 -135.5 18t-139.5 75t-108 171.5t-42 306.5v605q0 154 28.5 256.5t75 164t103 92t113.5 40t105 9.5q46 0 102.5 -9t112.5 -38.5t102.5 -90.5t75 -164t28.5 -260v-605q0 -190 -44 -304t-111 -171.5t-138.5 -76.5t-127.5 -19zM539 188q77 0 114 58t37 217
v770q0 164 -37 225.5t-114 61.5q-79 0 -116.5 -61.5t-37.5 -225.5v-770q0 -159 37.5 -217t116.5 -58zM445 1819v116q53 0 80.5 21.5t27.5 53.5q0 47 -54 80t-146 41l36 136q154 -16 243 -90t89 -172q0 -81 -67 -127t-209 -59z" />
    <glyph glyph-name="Ohorn" unicode="&#x1a0;" horiz-adv-x="1074" 
d="M539 -15q-62 0 -135.5 18t-139.5 75t-108 171.5t-42 306.5v605q0 154 28.5 256.5t75 164t103 92t113.5 40t105 9.5q46 0 102.5 -9t112.5 -38.5t102.5 -90.5t75 -164t28.5 -260v-605q0 -190 -44 -304t-111 -171.5t-138.5 -76.5t-127.5 -19zM539 188q77 0 114 58t37 217
v770q0 164 -37 225.5t-114 61.5q-79 0 -116.5 -61.5t-37.5 -225.5v-770q0 -159 37.5 -217t116.5 -58zM750 1589l-84 119h83q97 0 136 50t39 135q0 20 -8.5 53.5t-25.5 67.5h192q15 -44 17 -84t2 -58q0 -113 -52.5 -174.5t-133 -85t-165.5 -23.5z" />
    <glyph glyph-name="uni1EDA" unicode="&#x1eda;" horiz-adv-x="1074" 
d="M539 -15q-62 0 -135.5 18t-139.5 75t-108 171.5t-42 306.5v605q0 154 28.5 256.5t75 164t103 92t113.5 40t105 9.5q46 0 102.5 -9t112.5 -38.5t102.5 -90.5t75 -164t28.5 -260v-605q0 -190 -44 -304t-111 -171.5t-138.5 -76.5t-127.5 -19zM539 188q77 0 114 58t37 217
v770q0 164 -37 225.5t-114 61.5q-79 0 -116.5 -61.5t-37.5 -225.5v-770q0 -159 37.5 -217t116.5 -58zM750 1589l-84 119h83q97 0 136 50t39 135q0 20 -8.5 53.5t-25.5 67.5h192q15 -44 17 -84t2 -58q0 -113 -52.5 -174.5t-133 -85t-165.5 -23.5zM537 1776l-125 94l241 286
l169 -127z" />
    <glyph glyph-name="uni1EE2" unicode="&#x1ee2;" horiz-adv-x="1074" 
d="M539 -15q-62 0 -135.5 18t-139.5 75t-108 171.5t-42 306.5v605q0 154 28.5 256.5t75 164t103 92t113.5 40t105 9.5q46 0 102.5 -9t112.5 -38.5t102.5 -90.5t75 -164t28.5 -260v-605q0 -190 -44 -304t-111 -171.5t-138.5 -76.5t-127.5 -19zM539 188q77 0 114 58t37 217
v770q0 164 -37 225.5t-114 61.5q-79 0 -116.5 -61.5t-37.5 -225.5v-770q0 -159 37.5 -217t116.5 -58zM750 1589l-84 119h83q97 0 136 50t39 135q0 20 -8.5 53.5t-25.5 67.5h192q15 -44 17 -84t2 -58q0 -113 -52.5 -174.5t-133 -85t-165.5 -23.5zM381 -257q0 89 42.5 126
t113.5 37q74 0 115.5 -40t41.5 -123q0 -78 -42 -123t-116 -45q-70 0 -112.5 44t-42.5 124z" />
    <glyph glyph-name="uni1EDC" unicode="&#x1edc;" horiz-adv-x="1074" 
d="M539 -15q-62 0 -135.5 18t-139.5 75t-108 171.5t-42 306.5v605q0 154 28.5 256.5t75 164t103 92t113.5 40t105 9.5q46 0 102.5 -9t112.5 -38.5t102.5 -90.5t75 -164t28.5 -260v-605q0 -190 -44 -304t-111 -171.5t-138.5 -76.5t-127.5 -19zM539 188q77 0 114 58t37 217
v770q0 164 -37 225.5t-114 61.5q-79 0 -116.5 -61.5t-37.5 -225.5v-770q0 -159 37.5 -217t116.5 -58zM750 1589l-84 119h83q97 0 136 50t39 135q0 20 -8.5 53.5t-25.5 67.5h192q15 -44 17 -84t2 -58q0 -113 -52.5 -174.5t-133 -85t-165.5 -23.5zM540 1756l-285 253l169 127
l241 -286z" />
    <glyph glyph-name="uni1EDE" unicode="&#x1ede;" horiz-adv-x="1074" 
d="M539 -15q-62 0 -135.5 18t-139.5 75t-108 171.5t-42 306.5v605q0 154 28.5 256.5t75 164t103 92t113.5 40t105 9.5q46 0 102.5 -9t112.5 -38.5t102.5 -90.5t75 -164t28.5 -260v-605q0 -190 -44 -304t-111 -171.5t-138.5 -76.5t-127.5 -19zM539 188q77 0 114 58t37 217
v770q0 164 -37 225.5t-114 61.5q-79 0 -116.5 -61.5t-37.5 -225.5v-770q0 -159 37.5 -217t116.5 -58zM750 1589l-84 119h83q97 0 136 50t39 135q0 20 -8.5 53.5t-25.5 67.5h192q15 -44 17 -84t2 -58q0 -113 -52.5 -174.5t-133 -85t-165.5 -23.5zM445 1819v116
q53 0 80.5 21.5t27.5 53.5q0 47 -54 80t-146 41l36 136q154 -16 243 -90t89 -172q0 -81 -67 -127t-209 -59z" />
    <glyph glyph-name="uni1EE0" unicode="&#x1ee0;" horiz-adv-x="1074" 
d="M539 -15q-62 0 -135.5 18t-139.5 75t-108 171.5t-42 306.5v605q0 154 28.5 256.5t75 164t103 92t113.5 40t105 9.5q46 0 102.5 -9t112.5 -38.5t102.5 -90.5t75 -164t28.5 -260v-605q0 -190 -44 -304t-111 -171.5t-138.5 -76.5t-127.5 -19zM539 188q77 0 114 58t37 217
v770q0 164 -37 225.5t-114 61.5q-79 0 -116.5 -61.5t-37.5 -225.5v-770q0 -159 37.5 -217t116.5 -58zM750 1589l-84 119h83q97 0 136 50t39 135q0 20 -8.5 53.5t-25.5 67.5h192q15 -44 17 -84t2 -58q0 -113 -52.5 -174.5t-133 -85t-165.5 -23.5zM674 1788q-51 0 -88 16
t-72 47q-40 38 -57.5 58t-43.5 20q-36 0 -36 -58v-66h-148q0 11 -1.5 38t-1.5 36q0 123 55.5 169.5t128.5 46.5q49 0 82.5 -15.5t66.5 -45.5q22 -22 50.5 -51t54.5 -29q42 0 42 52v71h132q9 -64 9 -96q0 -95 -52.5 -144t-120.5 -49z" />
    <glyph glyph-name="Ohungarumlaut" unicode="&#x150;" horiz-adv-x="1074" 
d="M539 -15q-62 0 -135.5 18t-139.5 75t-108 171.5t-42 306.5v605q0 154 28.5 256.5t75 164t103 92t113.5 40t105 9.5q46 0 102.5 -9t112.5 -38.5t102.5 -90.5t75 -164t28.5 -260v-605q0 -190 -44 -304t-111 -171.5t-138.5 -76.5t-127.5 -19zM539 188q77 0 114 58t37 217
v770q0 164 -37 225.5t-114 61.5q-79 0 -116.5 -61.5t-37.5 -225.5v-770q0 -159 37.5 -217t116.5 -58zM112 1850l271 236l129 -167l-295 -186zM562 1850l271 236l129 -167l-295 -186z" />
    <glyph glyph-name="Omacron" unicode="&#x14c;" horiz-adv-x="1074" 
d="M539 -15q-62 0 -135.5 18t-139.5 75t-108 171.5t-42 306.5v605q0 154 28.5 256.5t75 164t103 92t113.5 40t105 9.5q46 0 102.5 -9t112.5 -38.5t102.5 -90.5t75 -164t28.5 -260v-605q0 -190 -44 -304t-111 -171.5t-138.5 -76.5t-127.5 -19zM539 188q77 0 114 58t37 217
v770q0 164 -37 225.5t-114 61.5q-79 0 -116.5 -61.5t-37.5 -225.5v-770q0 -159 37.5 -217t116.5 -58zM225 2028h623v-193h-623v193z" />
    <glyph glyph-name="uni1E52" unicode="&#x1e52;" horiz-adv-x="1074" 
d="M539 -15q-62 0 -135.5 18t-139.5 75t-108 171.5t-42 306.5v605q0 154 28.5 256.5t75 164t103 92t113.5 40t105 9.5q46 0 102.5 -9t112.5 -38.5t102.5 -90.5t75 -164t28.5 -260v-605q0 -190 -44 -304t-111 -171.5t-138.5 -76.5t-127.5 -19zM539 188q77 0 114 58t37 217
v770q0 164 -37 225.5t-114 61.5q-79 0 -116.5 -61.5t-37.5 -225.5v-770q0 -159 37.5 -217t116.5 -58zM225 2028h623v-193h-623v193zM537 2066l-125 94l241 286l169 -127z" />
    <glyph glyph-name="uni1E50" unicode="&#x1e50;" horiz-adv-x="1074" 
d="M539 -15q-62 0 -135.5 18t-139.5 75t-108 171.5t-42 306.5v605q0 154 28.5 256.5t75 164t103 92t113.5 40t105 9.5q46 0 102.5 -9t112.5 -38.5t102.5 -90.5t75 -164t28.5 -260v-605q0 -190 -44 -304t-111 -171.5t-138.5 -76.5t-127.5 -19zM539 188q77 0 114 58t37 217
v770q0 164 -37 225.5t-114 61.5q-79 0 -116.5 -61.5t-37.5 -225.5v-770q0 -159 37.5 -217t116.5 -58zM225 2028h623v-193h-623v193zM540 2046l-285 253l169 127l241 -286z" />
    <glyph glyph-name="uni0186" unicode="&#x186;" horiz-adv-x="928" 
d="M821 556q0 -192 -42 -306.5t-108 -171.5t-139.5 -75t-135.5 -18q-172 0 -263 99t-91 304v158h227v-162q0 -103 36 -149.5t91 -46.5q79 0 116.5 58t37.5 217v770q0 164 -37.5 225.5t-108.5 61.5q-132 0 -132 -281v-82h-200q-11 56 -19.5 102.5t-8.5 101.5q0 99 33.5 181.5
t111 131.5t208.5 49q48 0 104.5 -9.5t113 -40t103 -92t75 -163.5t28.5 -257v-605z" />
    <glyph glyph-name="Oslash" unicode="&#xd8;" horiz-adv-x="1029" 
d="M240 94q-61 65 -102.5 187t-41.5 325v503q0 205 42.5 327.5t108 183.5t138 80.5t132.5 19.5q37 0 80 -6t87 -25l46 169h125l-66 -242q62 -64 103 -184t41 -323v-503q0 -202 -43 -325.5t-109 -187.5t-137 -86t-127 -22q-39 0 -83.5 7t-88.5 27l-51 -190h-125zM622 1465
q-35 58 -105 58q-79 0 -115.5 -70t-36.5 -237v-672zM408 244q34 -56 109 -56q77 0 113 67t36 227v683z" />
    <glyph glyph-name="Oslashacute" unicode="&#x1fe;" horiz-adv-x="1029" 
d="M240 94q-61 65 -102.5 187t-41.5 325v503q0 205 42.5 327.5t108 183.5t138 80.5t132.5 19.5q37 0 80 -6t87 -25l46 169h125l-66 -242q62 -64 103 -184t41 -323v-503q0 -202 -43 -325.5t-109 -187.5t-137 -86t-127 -22q-39 0 -83.5 7t-88.5 27l-51 -190h-125zM622 1465
q-35 58 -105 58q-79 0 -115.5 -70t-36.5 -237v-672zM408 244q34 -56 109 -56q77 0 113 67t36 227v683zM517 1776l-125 94l241 286l169 -127z" />
    <glyph glyph-name="Otilde" unicode="&#xd5;" horiz-adv-x="1074" 
d="M539 -15q-62 0 -135.5 18t-139.5 75t-108 171.5t-42 306.5v605q0 154 28.5 256.5t75 164t103 92t113.5 40t105 9.5q46 0 102.5 -9t112.5 -38.5t102.5 -90.5t75 -164t28.5 -260v-605q0 -190 -44 -304t-111 -171.5t-138.5 -76.5t-127.5 -19zM539 188q77 0 114 58t37 217
v770q0 164 -37 225.5t-114 61.5q-79 0 -116.5 -61.5t-37.5 -225.5v-770q0 -159 37.5 -217t116.5 -58zM674 1788q-51 0 -88 16t-72 47q-40 38 -57.5 58t-43.5 20q-36 0 -36 -58v-66h-148q0 11 -1.5 38t-1.5 36q0 123 55.5 169.5t128.5 46.5q49 0 82.5 -15.5t66.5 -45.5
q22 -22 50.5 -51t54.5 -29q42 0 42 52v71h132q9 -64 9 -96q0 -95 -52.5 -144t-120.5 -49z" />
    <glyph glyph-name="uni1E4C" unicode="&#x1e4c;" horiz-adv-x="1074" 
d="M539 -15q-62 0 -135.5 18t-139.5 75t-108 171.5t-42 306.5v605q0 154 28.5 256.5t75 164t103 92t113.5 40t105 9.5q46 0 102.5 -9t112.5 -38.5t102.5 -90.5t75 -164t28.5 -260v-605q0 -190 -44 -304t-111 -171.5t-138.5 -76.5t-127.5 -19zM539 188q77 0 114 58t37 217
v770q0 164 -37 225.5t-114 61.5q-79 0 -116.5 -61.5t-37.5 -225.5v-770q0 -159 37.5 -217t116.5 -58zM674 1788q-51 0 -88 16t-72 47q-40 38 -57.5 58t-43.5 20q-36 0 -36 -58v-66h-148q0 11 -1.5 38t-1.5 36q0 123 55.5 169.5t128.5 46.5q49 0 82.5 -15.5t66.5 -45.5
q22 -22 50.5 -51t54.5 -29q42 0 42 52v71h132q9 -64 9 -96q0 -95 -52.5 -144t-120.5 -49zM537 2124l-125 94l241 286l169 -127z" />
    <glyph glyph-name="OE" unicode="&#x152;" horiz-adv-x="1360" 
d="M98 1077q0 181 36.5 298t97 184.5t132.5 99.5t144 40.5t131 8.5h654v-205h-394v-508h307v-224h-307v-566h394v-205h-654q-59 0 -131 8.5t-144 40t-132.5 99.5t-97 185t-36.5 298v446zM642 187v1334h-16q-148 0 -204 -97.5t-56 -300.5v-541q0 -209 59.5 -302t200.5 -93h16
z" />
    <glyph glyph-name="P" unicode="P" horiz-adv-x="995" 
d="M141 1708h259q59 0 129.5 -7.5t140.5 -34t128.5 -83.5t93.5 -155t35 -249v-60q0 -164 -32.5 -273t-86.5 -174.5t-120.5 -98t-134.5 -43t-128 -10.5h-25v-520h-259v1708zM413 710q141 0 194.5 84t53.5 277v154q0 152 -50.5 224t-197.5 72h-13v-811h13z" />
    <glyph glyph-name="Thorn" unicode="&#xde;" horiz-adv-x="995" 
d="M141 1708h257v-255h11q58 0 127.5 -7.5t138 -34t126 -83t92 -154.5t34.5 -249v-61q0 -164 -32.5 -273t-86.5 -174.5t-120.5 -98.5t-134.5 -43.5t-128 -10.5h-25v-264h-259v1708zM413 455q141 0 194.5 84.5t53.5 277.5v153q0 152 -50.5 223.5t-197.5 71.5h-13v-810h13z
" />
    <glyph glyph-name="Q" unicode="Q" horiz-adv-x="1060" 
d="M878 -308q-49 -22 -92 -30t-91 -8q-31 0 -76.5 7.5t-89 34t-73 81.5t-29.5 151v67q-57 11 -113.5 42.5t-103.5 94t-75 166t-28 258.5v605q0 154 28.5 256.5t75 164t103 92t113.5 40t105 9.5q46 0 102.5 -9t112.5 -38.5t102.5 -90.5t75 -164t28.5 -260v-605
q0 -197 -47 -312.5t-118 -171t-143 -73.5v-15q0 -97 45.5 -125t133.5 -28h28t26 1v-140zM532 188q77 0 114 58t37 217v770q0 164 -37 225.5t-114 61.5q-79 0 -116.5 -61.5t-37.5 -225.5v-770q0 -159 37.5 -217t116.5 -58z" />
    <glyph glyph-name="R" unicode="R" horiz-adv-x="1060" 
d="M141 1708h281q59 0 130 -7t141 -31.5t128 -77t93.5 -143t35.5 -229.5v-43q0 -384 -231 -494l281 -683h-276l-235 639h-89v-639h-259v1708zM434 826q142 0 195.5 66t53.5 238v135q0 132 -50.5 194t-198.5 62h-34v-695h34z" />
    <glyph glyph-name="Racute" unicode="&#x154;" horiz-adv-x="1060" 
d="M141 1708h281q59 0 130 -7t141 -31.5t128 -77t93.5 -143t35.5 -229.5v-43q0 -384 -231 -494l281 -683h-276l-235 639h-89v-639h-259v1708zM434 826q142 0 195.5 66t53.5 238v135q0 132 -50.5 194t-198.5 62h-34v-695h34zM530 1776l-125 94l241 286l169 -127z" />
    <glyph glyph-name="Rcaron" unicode="&#x158;" horiz-adv-x="1060" 
d="M141 1708h281q59 0 130 -7t141 -31.5t128 -77t93.5 -143t35.5 -229.5v-43q0 -384 -231 -494l281 -683h-276l-235 639h-89v-639h-259v1708zM434 826q142 0 195.5 66t53.5 238v135q0 132 -50.5 194t-198.5 62h-34v-695h34zM646 2086h249l-246 -310h-234l-250 310h248
l84 -130l40 -56l40 56z" />
    <glyph glyph-name="uni0156" unicode="&#x156;" horiz-adv-x="1060" 
d="M141 1708h281q59 0 130 -7t141 -31.5t128 -77t93.5 -143t35.5 -229.5v-43q0 -384 -231 -494l281 -683h-276l-235 639h-89v-639h-259v1708zM434 826q142 0 195.5 66t53.5 238v135q0 132 -50.5 194t-198.5 62h-34v-695h34zM651 -97l-108 -434h-195l62 434h241z" />
    <glyph glyph-name="uni1E5C" unicode="&#x1e5c;" horiz-adv-x="1060" 
d="M141 1708h281q59 0 130 -7t141 -31.5t128 -77t93.5 -143t35.5 -229.5v-43q0 -384 -231 -494l281 -683h-276l-235 639h-89v-639h-259v1708zM434 826q142 0 195.5 66t53.5 238v135q0 132 -50.5 194t-198.5 62h-34v-695h34zM374 -257q0 89 42.5 126t113.5 37q74 0 115.5 -40
t41.5 -123q0 -78 -42 -123t-116 -45q-70 0 -112.5 44t-42.5 124zM218 2028h623v-193h-623v193z" />
    <glyph glyph-name="Rmacronbelow" unicode="&#x1e5e;" horiz-adv-x="1060" 
d="M141 1708h281q59 0 130 -7t141 -31.5t128 -77t93.5 -143t35.5 -229.5v-43q0 -384 -231 -494l281 -683h-276l-235 639h-89v-639h-259v1708zM434 826q142 0 195.5 66t53.5 238v135q0 132 -50.5 194t-198.5 62h-34v-695h34zM218 -156h623v-193h-623v193z" />
    <glyph glyph-name="S" unicode="S" horiz-adv-x="936" 
d="M65 346q0 55 6.5 102t19.5 100h201v-76q0 -138 42 -211.5t129 -73.5q150 0 150 147q0 57 -24.5 120t-95.5 154l-270 339q-71 92 -110.5 184t-39.5 205q0 170 105.5 278.5t292.5 108.5q151 0 237 -54.5t121.5 -137.5t35.5 -170q0 -55 -8.5 -101.5t-19.5 -102.5h-200v82
q0 135 -43 208t-123 73q-73 0 -110.5 -40.5t-37.5 -108.5q0 -58 24 -105.5t61 -97.5l301 -382q83 -107 126.5 -203.5t43.5 -214.5q0 -177 -113 -280.5t-301 -103.5q-154 0 -241.5 52.5t-123 135.5t-35.5 174z" />
    <glyph glyph-name="Sacute" unicode="&#x15a;" horiz-adv-x="936" 
d="M65 346q0 55 6.5 102t19.5 100h201v-76q0 -138 42 -211.5t129 -73.5q150 0 150 147q0 57 -24.5 120t-95.5 154l-270 339q-71 92 -110.5 184t-39.5 205q0 170 105.5 278.5t292.5 108.5q151 0 237 -54.5t121.5 -137.5t35.5 -170q0 -55 -8.5 -101.5t-19.5 -102.5h-200v82
q0 135 -43 208t-123 73q-73 0 -110.5 -40.5t-37.5 -108.5q0 -58 24 -105.5t61 -97.5l301 -382q83 -107 126.5 -203.5t43.5 -214.5q0 -177 -113 -280.5t-301 -103.5q-154 0 -241.5 52.5t-123 135.5t-35.5 174zM468 1776l-125 94l241 286l169 -127z" />
    <glyph glyph-name="uniA78B" unicode="&#xa78b;" horiz-adv-x="541" 
d="M141 1708h259v-1101h-259v1101z" />
    <glyph glyph-name="Scaron" unicode="&#x160;" horiz-adv-x="936" 
d="M65 346q0 55 6.5 102t19.5 100h201v-76q0 -138 42 -211.5t129 -73.5q150 0 150 147q0 57 -24.5 120t-95.5 154l-270 339q-71 92 -110.5 184t-39.5 205q0 170 105.5 278.5t292.5 108.5q151 0 237 -54.5t121.5 -137.5t35.5 -170q0 -55 -8.5 -101.5t-19.5 -102.5h-200v82
q0 135 -43 208t-123 73q-73 0 -110.5 -40.5t-37.5 -108.5q0 -58 24 -105.5t61 -97.5l301 -382q83 -107 126.5 -203.5t43.5 -214.5q0 -177 -113 -280.5t-301 -103.5q-154 0 -241.5 52.5t-123 135.5t-35.5 174zM584 2086h249l-246 -310h-234l-250 310h248l84 -130l40 -56
l40 56z" />
    <glyph glyph-name="Scedilla" unicode="&#x15e;" horiz-adv-x="936" 
d="M65 346q0 55 6.5 102t19.5 100h201v-76q0 -138 42 -211.5t129 -73.5q150 0 150 147q0 57 -24.5 120t-95.5 154l-270 339q-71 92 -110.5 184t-39.5 205q0 170 105.5 278.5t292.5 108.5q151 0 237 -54.5t121.5 -137.5t35.5 -170q0 -55 -8.5 -101.5t-19.5 -102.5h-200v82
q0 135 -43 208t-123 73q-73 0 -110.5 -40.5t-37.5 -108.5q0 -58 24 -105.5t61 -97.5l301 -382q83 -107 126.5 -203.5t43.5 -214.5q0 -177 -113 -280.5t-301 -103.5q-154 0 -241.5 52.5t-123 135.5t-35.5 174zM618 13l7 -117q6 -107 -18.5 -170t-63.5 -94.5t-78.5 -41
t-63.5 -9.5q-41 0 -75.5 7t-75.5 23l7 151q8 -1 16.5 -1h16.5q68 0 108.5 33.5t45.5 149.5l3 69h171z" />
    <glyph glyph-name="Scircumflex" unicode="&#x15c;" horiz-adv-x="936" 
d="M65 346q0 55 6.5 102t19.5 100h201v-76q0 -138 42 -211.5t129 -73.5q150 0 150 147q0 57 -24.5 120t-95.5 154l-270 339q-71 92 -110.5 184t-39.5 205q0 170 105.5 278.5t292.5 108.5q151 0 237 -54.5t121.5 -137.5t35.5 -170q0 -55 -8.5 -101.5t-19.5 -102.5h-200v82
q0 135 -43 208t-123 73q-73 0 -110.5 -40.5t-37.5 -108.5q0 -58 24 -105.5t61 -97.5l301 -382q83 -107 126.5 -203.5t43.5 -214.5q0 -177 -113 -280.5t-301 -103.5q-154 0 -241.5 52.5t-123 135.5t-35.5 174zM515 1936l-40 56l-40 -56l-84 -130h-248l250 310h234l246 -310
h-249z" />
    <glyph glyph-name="uni0218" unicode="&#x218;" horiz-adv-x="936" 
d="M65 346q0 55 6.5 102t19.5 100h201v-76q0 -138 42 -211.5t129 -73.5q150 0 150 147q0 57 -24.5 120t-95.5 154l-270 339q-71 92 -110.5 184t-39.5 205q0 170 105.5 278.5t292.5 108.5q151 0 237 -54.5t121.5 -137.5t35.5 -170q0 -55 -8.5 -101.5t-19.5 -102.5h-200v82
q0 135 -43 208t-123 73q-73 0 -110.5 -40.5t-37.5 -108.5q0 -58 24 -105.5t61 -97.5l301 -382q83 -107 126.5 -203.5t43.5 -214.5q0 -177 -113 -280.5t-301 -103.5q-154 0 -241.5 52.5t-123 135.5t-35.5 174zM589 -97l-108 -434h-195l62 434h241z" />
    <glyph glyph-name="uni1E62" unicode="&#x1e62;" horiz-adv-x="936" 
d="M65 346q0 55 6.5 102t19.5 100h201v-76q0 -138 42 -211.5t129 -73.5q150 0 150 147q0 57 -24.5 120t-95.5 154l-270 339q-71 92 -110.5 184t-39.5 205q0 170 105.5 278.5t292.5 108.5q151 0 237 -54.5t121.5 -137.5t35.5 -170q0 -55 -8.5 -101.5t-19.5 -102.5h-200v82
q0 135 -43 208t-123 73q-73 0 -110.5 -40.5t-37.5 -108.5q0 -58 24 -105.5t61 -97.5l301 -382q83 -107 126.5 -203.5t43.5 -214.5q0 -177 -113 -280.5t-301 -103.5q-154 0 -241.5 52.5t-123 135.5t-35.5 174zM312 -257q0 89 42.5 126t113.5 37q74 0 115.5 -40t41.5 -123
q0 -78 -42 -123t-116 -45q-70 0 -112.5 44t-42.5 124z" />
    <glyph glyph-name="uni1E9E" unicode="&#x1e9e;" horiz-adv-x="1186" 
d="M141 0v1066q0 188 39 312.5t108 196.5t161 102.5t198 30.5h476l-286 -659q42 -4 91 -24t92.5 -67.5t71 -134t27.5 -225.5v-117q0 -175 -33.5 -273.5t-87 -142.5t-116 -54.5t-119.5 -10.5h-160v200h84q52 0 89.5 19.5t57.5 73.5t20 156v188q0 103 -31 156t-74 72t-80 19
h-127l265 621h-160q-98 0 -151.5 -50.5t-74.5 -136t-21 -191.5v-1127h-259z" />
    <glyph glyph-name="T" unicode="T" horiz-adv-x="856" 
d="M299 1504h-275v204h808v-204h-274v-1504h-259v1504z" />
    <glyph glyph-name="Tbar" unicode="&#x166;" horiz-adv-x="856" 
d="M56 1149h243v355h-275v204h808v-204h-274v-355h243v-203h-243v-946h-259v946h-243v203z" />
    <glyph glyph-name="Tcaron" unicode="&#x164;" horiz-adv-x="856" 
d="M299 1504h-275v204h808v-204h-274v-1504h-259v1504zM544 2086h249l-246 -310h-234l-250 310h248l84 -130l40 -56l40 56z" />
    <glyph glyph-name="uni0162" unicode="&#x162;" horiz-adv-x="856" 
d="M299 1504h-275v204h808v-204h-274v-1504h-259v1504zM512 13l7 -117q6 -107 -18.5 -170t-63.5 -94.5t-78.5 -41t-63.5 -9.5q-41 0 -75.5 7t-75.5 23l7 151q8 -1 16.5 -1h16.5q68 0 108.5 33.5t45.5 149.5l3 69h171z" />
    <glyph glyph-name="uni1E70" unicode="&#x1e70;" horiz-adv-x="856" 
d="M299 1504h-275v204h808v-204h-274v-1504h-259v1504zM512 -65l276 -401h-219l-88 152l-51 82l-50 -82l-94 -152h-218l270 401h174z" />
    <glyph glyph-name="uni021A" unicode="&#x21a;" horiz-adv-x="856" 
d="M299 1504h-275v204h808v-204h-274v-1504h-259v1504zM549 -97l-108 -434h-195l62 434h241z" />
    <glyph glyph-name="uni021A" unicode="&#x21b;" horiz-adv-x="856" 
d="M299 1504h-275v204h808v-204h-274v-1504h-259v1504zM549 -97l-108 -434h-195l62 434h241z" />
    <glyph glyph-name="uni021A" unicode="&#x21b;" horiz-adv-x="856" 
d="M299 1504h-275v204h808v-204h-274v-1504h-259v1504zM549 -97l-108 -434h-195l62 434h241z" />
    <glyph glyph-name="uni1E6C" unicode="&#x1e6c;" horiz-adv-x="856" 
d="M299 1504h-275v204h808v-204h-274v-1504h-259v1504zM272 -257q0 89 42.5 126t113.5 37q74 0 115.5 -40t41.5 -123q0 -78 -42 -123t-116 -45q-70 0 -112.5 44t-42.5 124z" />
    <glyph glyph-name="Tmacronbelow" unicode="&#x1e6e;" horiz-adv-x="856" 
d="M299 1504h-275v204h808v-204h-274v-1504h-259v1504zM116 -156h623v-193h-623v193z" />
    <glyph glyph-name="uni01AE" unicode="&#x1ae;" horiz-adv-x="856" 
d="M578 -444q-70 0 -134 27.5t-104.5 105t-40.5 227.5v1588h-275v204h808v-204h-274v-1620q0 -90 33 -124.5t77 -34.5q8 0 16.5 0.5t15.5 1.5v-147q-30 -13 -61 -18.5t-61 -5.5z" />
    <glyph glyph-name="U" unicode="U" horiz-adv-x="1095" 
d="M547 -15q-44 0 -98.5 8.5t-108.5 37t-99 87t-72.5 157.5t-27.5 250v1183h259v-1244q0 -159 35.5 -217.5t111.5 -58.5q77 0 112.5 58.5t35.5 217.5v1244h258v-1183q0 -151 -27.5 -250t-72.5 -157.5t-99 -87t-108 -37t-99 -8.5z" />
    <glyph glyph-name="Uacute" unicode="&#xda;" horiz-adv-x="1095" 
d="M547 -15q-44 0 -98.5 8.5t-108.5 37t-99 87t-72.5 157.5t-27.5 250v1183h259v-1244q0 -159 35.5 -217.5t111.5 -58.5q77 0 112.5 58.5t35.5 217.5v1244h258v-1183q0 -151 -27.5 -250t-72.5 -157.5t-99 -87t-108 -37t-99 -8.5zM548 1776l-125 94l241 286l169 -127z" />
    <glyph glyph-name="Ubreve" unicode="&#x16c;" horiz-adv-x="1095" 
d="M547 -15q-44 0 -98.5 8.5t-108.5 37t-99 87t-72.5 157.5t-27.5 250v1183h259v-1244q0 -159 35.5 -217.5t111.5 -58.5q77 0 112.5 58.5t35.5 217.5v1244h258v-1183q0 -151 -27.5 -250t-72.5 -157.5t-99 -87t-108 -37t-99 -8.5zM543 1786q-160 0 -237 74.5t-77 191.5
q0 34 6 67h178q-7 -16 -8.5 -34t-1.5 -37q0 -99 139 -99q158 0 158 99v37t-8 34h169q6 -33 6 -67q0 -111 -80 -188.5t-244 -77.5z" />
    <glyph glyph-name="uni01D3" unicode="&#x1d3;" horiz-adv-x="1095" 
d="M547 -15q-44 0 -98.5 8.5t-108.5 37t-99 87t-72.5 157.5t-27.5 250v1183h259v-1244q0 -159 35.5 -217.5t111.5 -58.5q77 0 112.5 58.5t35.5 217.5v1244h258v-1183q0 -151 -27.5 -250t-72.5 -157.5t-99 -87t-108 -37t-99 -8.5zM664 2086h249l-246 -310h-234l-250 310h248
l84 -130l40 -56l40 56z" />
    <glyph glyph-name="Ucircumflex" unicode="&#xdb;" horiz-adv-x="1095" 
d="M547 -15q-44 0 -98.5 8.5t-108.5 37t-99 87t-72.5 157.5t-27.5 250v1183h259v-1244q0 -159 35.5 -217.5t111.5 -58.5q77 0 112.5 58.5t35.5 217.5v1244h258v-1183q0 -151 -27.5 -250t-72.5 -157.5t-99 -87t-108 -37t-99 -8.5zM595 1936l-40 56l-40 -56l-84 -130h-248
l250 310h234l246 -310h-249z" />
    <glyph glyph-name="Udieresis" unicode="&#xdc;" horiz-adv-x="1095" 
d="M547 -15q-44 0 -98.5 8.5t-108.5 37t-99 87t-72.5 157.5t-27.5 250v1183h259v-1244q0 -159 35.5 -217.5t111.5 -58.5q77 0 112.5 58.5t35.5 217.5v1244h258v-1183q0 -151 -27.5 -250t-72.5 -157.5t-99 -87t-108 -37t-99 -8.5zM325 1784q-78 0 -107.5 39t-29.5 114
q0 80 29 121t108 41q82 0 113.5 -39.5t31.5 -122.5q0 -72 -31.5 -112.5t-113.5 -40.5zM762 1784q-78 0 -107 39t-29 114q0 80 28.5 121t107.5 41q82 0 114 -39.5t32 -122.5q0 -72 -32 -112.5t-114 -40.5z" />
    <glyph glyph-name="uni01D7" unicode="&#x1d7;" horiz-adv-x="1095" 
d="M547 -15q-44 0 -98.5 8.5t-108.5 37t-99 87t-72.5 157.5t-27.5 250v1183h259v-1244q0 -159 35.5 -217.5t111.5 -58.5q77 0 112.5 58.5t35.5 217.5v1244h258v-1183q0 -151 -27.5 -250t-72.5 -157.5t-99 -87t-108 -37t-99 -8.5zM325 1784q-78 0 -107.5 39t-29.5 114
q0 80 29 121t108 41q82 0 113.5 -39.5t31.5 -122.5q0 -72 -31.5 -112.5t-113.5 -40.5zM762 1784q-78 0 -107 39t-29 114q0 80 28.5 121t107.5 41q82 0 114 -39.5t32 -122.5q0 -72 -32 -112.5t-114 -40.5zM548 2147l-125 94l241 286l169 -127z" />
    <glyph glyph-name="uni01D9" unicode="&#x1d9;" horiz-adv-x="1095" 
d="M547 -15q-44 0 -98.5 8.5t-108.5 37t-99 87t-72.5 157.5t-27.5 250v1183h259v-1244q0 -159 35.5 -217.5t111.5 -58.5q77 0 112.5 58.5t35.5 217.5v1244h258v-1183q0 -151 -27.5 -250t-72.5 -157.5t-99 -87t-108 -37t-99 -8.5zM325 1784q-78 0 -107.5 39t-29.5 114
q0 80 29 121t108 41q82 0 113.5 -39.5t31.5 -122.5q0 -72 -31.5 -112.5t-113.5 -40.5zM762 1784q-78 0 -107 39t-29 114q0 80 28.5 121t107.5 41q82 0 114 -39.5t32 -122.5q0 -72 -32 -112.5t-114 -40.5zM664 2457h249l-246 -310h-234l-250 310h248l84 -130l40 -56l40 56z
" />
    <glyph glyph-name="uni01DB" unicode="&#x1db;" horiz-adv-x="1095" 
d="M547 -15q-44 0 -98.5 8.5t-108.5 37t-99 87t-72.5 157.5t-27.5 250v1183h259v-1244q0 -159 35.5 -217.5t111.5 -58.5q77 0 112.5 58.5t35.5 217.5v1244h258v-1183q0 -151 -27.5 -250t-72.5 -157.5t-99 -87t-108 -37t-99 -8.5zM325 1784q-78 0 -107.5 39t-29.5 114
q0 80 29 121t108 41q82 0 113.5 -39.5t31.5 -122.5q0 -72 -31.5 -112.5t-113.5 -40.5zM762 1784q-78 0 -107 39t-29 114q0 80 28.5 121t107.5 41q82 0 114 -39.5t32 -122.5q0 -72 -32 -112.5t-114 -40.5zM551 2127l-285 253l169 127l241 -286z" />
    <glyph glyph-name="uni01D5" unicode="&#x1d5;" horiz-adv-x="1095" 
d="M547 -15q-44 0 -98.5 8.5t-108.5 37t-99 87t-72.5 157.5t-27.5 250v1183h259v-1244q0 -159 35.5 -217.5t111.5 -58.5q77 0 112.5 58.5t35.5 217.5v1244h258v-1183q0 -151 -27.5 -250t-72.5 -157.5t-99 -87t-108 -37t-99 -8.5zM325 1784q-78 0 -107.5 39t-29.5 114
q0 80 29 121t108 41q82 0 113.5 -39.5t31.5 -122.5q0 -72 -31.5 -112.5t-113.5 -40.5zM762 1784q-78 0 -107 39t-29 114q0 80 28.5 121t107.5 41q82 0 114 -39.5t32 -122.5q0 -72 -32 -112.5t-114 -40.5zM236 2399h623v-193h-623v193z" />
    <glyph glyph-name="uni1EE4" unicode="&#x1ee4;" horiz-adv-x="1095" 
d="M547 -15q-44 0 -98.5 8.5t-108.5 37t-99 87t-72.5 157.5t-27.5 250v1183h259v-1244q0 -159 35.5 -217.5t111.5 -58.5q77 0 112.5 58.5t35.5 217.5v1244h258v-1183q0 -151 -27.5 -250t-72.5 -157.5t-99 -87t-108 -37t-99 -8.5zM392 -257q0 89 42.5 126t113.5 37
q74 0 115.5 -40t41.5 -123q0 -78 -42 -123t-116 -45q-70 0 -112.5 44t-42.5 124z" />
    <glyph glyph-name="Ugrave" unicode="&#xd9;" horiz-adv-x="1095" 
d="M547 -15q-44 0 -98.5 8.5t-108.5 37t-99 87t-72.5 157.5t-27.5 250v1183h259v-1244q0 -159 35.5 -217.5t111.5 -58.5q77 0 112.5 58.5t35.5 217.5v1244h258v-1183q0 -151 -27.5 -250t-72.5 -157.5t-99 -87t-108 -37t-99 -8.5zM551 1756l-285 253l169 127l241 -286z" />
    <glyph glyph-name="uni1EE6" unicode="&#x1ee6;" horiz-adv-x="1095" 
d="M547 -15q-44 0 -98.5 8.5t-108.5 37t-99 87t-72.5 157.5t-27.5 250v1183h259v-1244q0 -159 35.5 -217.5t111.5 -58.5q77 0 112.5 58.5t35.5 217.5v1244h258v-1183q0 -151 -27.5 -250t-72.5 -157.5t-99 -87t-108 -37t-99 -8.5zM456 1819v116q53 0 80.5 21.5t27.5 53.5
q0 47 -54 80t-146 41l36 136q154 -16 243 -90t89 -172q0 -81 -67 -127t-209 -59z" />
    <glyph glyph-name="Uhorn" unicode="&#x1af;" horiz-adv-x="1095" 
d="M547 -15q-44 0 -98.5 8.5t-108.5 37t-99 87t-72.5 157.5t-27.5 250v1183h259v-1244q0 -159 35.5 -217.5t111.5 -58.5q77 0 112.5 58.5t35.5 217.5v1244h258v-1183q0 -151 -27.5 -250t-72.5 -157.5t-99 -87t-108 -37t-99 -8.5zM895 1589l-84 119h83q97 0 136 50t39 135
q0 20 -8.5 53.5t-25.5 67.5h192q15 -44 17 -84t2 -58q0 -113 -52.5 -174.5t-133 -85t-165.5 -23.5z" />
    <glyph glyph-name="uni1EE8" unicode="&#x1ee8;" horiz-adv-x="1095" 
d="M547 -15q-44 0 -98.5 8.5t-108.5 37t-99 87t-72.5 157.5t-27.5 250v1183h259v-1244q0 -159 35.5 -217.5t111.5 -58.5q77 0 112.5 58.5t35.5 217.5v1244h258v-1183q0 -151 -27.5 -250t-72.5 -157.5t-99 -87t-108 -37t-99 -8.5zM895 1589l-84 119h83q97 0 136 50t39 135
q0 20 -8.5 53.5t-25.5 67.5h192q15 -44 17 -84t2 -58q0 -113 -52.5 -174.5t-133 -85t-165.5 -23.5zM548 1776l-125 94l241 286l169 -127z" />
    <glyph glyph-name="uni1EF0" unicode="&#x1ef0;" horiz-adv-x="1095" 
d="M547 -15q-44 0 -98.5 8.5t-108.5 37t-99 87t-72.5 157.5t-27.5 250v1183h259v-1244q0 -159 35.5 -217.5t111.5 -58.5q77 0 112.5 58.5t35.5 217.5v1244h258v-1183q0 -151 -27.5 -250t-72.5 -157.5t-99 -87t-108 -37t-99 -8.5zM895 1589l-84 119h83q97 0 136 50t39 135
q0 20 -8.5 53.5t-25.5 67.5h192q15 -44 17 -84t2 -58q0 -113 -52.5 -174.5t-133 -85t-165.5 -23.5zM392 -257q0 89 42.5 126t113.5 37q74 0 115.5 -40t41.5 -123q0 -78 -42 -123t-116 -45q-70 0 -112.5 44t-42.5 124z" />
    <glyph glyph-name="uni1EEA" unicode="&#x1eea;" horiz-adv-x="1095" 
d="M547 -15q-44 0 -98.5 8.5t-108.5 37t-99 87t-72.5 157.5t-27.5 250v1183h259v-1244q0 -159 35.5 -217.5t111.5 -58.5q77 0 112.5 58.5t35.5 217.5v1244h258v-1183q0 -151 -27.5 -250t-72.5 -157.5t-99 -87t-108 -37t-99 -8.5zM895 1589l-84 119h83q97 0 136 50t39 135
q0 20 -8.5 53.5t-25.5 67.5h192q15 -44 17 -84t2 -58q0 -113 -52.5 -174.5t-133 -85t-165.5 -23.5zM551 1756l-285 253l169 127l241 -286z" />
    <glyph glyph-name="uni1EEC" unicode="&#x1eec;" horiz-adv-x="1095" 
d="M547 -15q-44 0 -98.5 8.5t-108.5 37t-99 87t-72.5 157.5t-27.5 250v1183h259v-1244q0 -159 35.5 -217.5t111.5 -58.5q77 0 112.5 58.5t35.5 217.5v1244h258v-1183q0 -151 -27.5 -250t-72.5 -157.5t-99 -87t-108 -37t-99 -8.5zM895 1589l-84 119h83q97 0 136 50t39 135
q0 20 -8.5 53.5t-25.5 67.5h192q15 -44 17 -84t2 -58q0 -113 -52.5 -174.5t-133 -85t-165.5 -23.5zM456 1819v116q53 0 80.5 21.5t27.5 53.5q0 47 -54 80t-146 41l36 136q154 -16 243 -90t89 -172q0 -81 -67 -127t-209 -59z" />
    <glyph glyph-name="uni1EEE" unicode="&#x1eee;" horiz-adv-x="1095" 
d="M547 -15q-44 0 -98.5 8.5t-108.5 37t-99 87t-72.5 157.5t-27.5 250v1183h259v-1244q0 -159 35.5 -217.5t111.5 -58.5q77 0 112.5 58.5t35.5 217.5v1244h258v-1183q0 -151 -27.5 -250t-72.5 -157.5t-99 -87t-108 -37t-99 -8.5zM895 1589l-84 119h83q97 0 136 50t39 135
q0 20 -8.5 53.5t-25.5 67.5h192q15 -44 17 -84t2 -58q0 -113 -52.5 -174.5t-133 -85t-165.5 -23.5zM685 1788q-51 0 -88 16t-72 47q-40 38 -57.5 58t-43.5 20q-36 0 -36 -58v-66h-148q0 11 -1.5 38t-1.5 36q0 123 55.5 169.5t128.5 46.5q49 0 82.5 -15.5t66.5 -45.5
q22 -22 50.5 -51t54.5 -29q42 0 42 52v71h132q9 -64 9 -96q0 -95 -52.5 -144t-120.5 -49z" />
    <glyph glyph-name="Uhungarumlaut" unicode="&#x170;" horiz-adv-x="1095" 
d="M547 -15q-44 0 -98.5 8.5t-108.5 37t-99 87t-72.5 157.5t-27.5 250v1183h259v-1244q0 -159 35.5 -217.5t111.5 -58.5q77 0 112.5 58.5t35.5 217.5v1244h258v-1183q0 -151 -27.5 -250t-72.5 -157.5t-99 -87t-108 -37t-99 -8.5zM123 1850l271 236l129 -167l-295 -186z
M573 1850l271 236l129 -167l-295 -186z" />
    <glyph glyph-name="Umacron" unicode="&#x16a;" horiz-adv-x="1095" 
d="M547 -15q-44 0 -98.5 8.5t-108.5 37t-99 87t-72.5 157.5t-27.5 250v1183h259v-1244q0 -159 35.5 -217.5t111.5 -58.5q77 0 112.5 58.5t35.5 217.5v1244h258v-1183q0 -151 -27.5 -250t-72.5 -157.5t-99 -87t-108 -37t-99 -8.5zM236 2028h623v-193h-623v193z" />
    <glyph glyph-name="Uogonek" unicode="&#x172;" horiz-adv-x="1095" 
d="M141 1708h259v-1244q0 -159 35.5 -217.5t111.5 -58.5q77 0 112.5 58.5t35.5 217.5v1244h258v-1183q0 -170 -34.5 -274.5t-89 -160t-116.5 -79.5q-49 -63 -50 -120.5t28.5 -93.5t72.5 -36h16.5t16.5 1l7 -151q-41 -16 -75.5 -23t-75.5 -7q-31 0 -79.5 17t-86 65.5
t-37.5 142.5q0 52 17 100t36 80q-56 4 -119 25.5t-118 77t-90 160.5t-35 276v1183z" />
    <glyph glyph-name="Upsilonlatin" unicode="&#x1b1;" horiz-adv-x="1151" 
d="M633 1708h494v-190h-317q116 -177 188 -390.5t72 -504.5q0 -176 -46 -297.5t-120.5 -195t-160.5 -106.5t-167 -33q-87 0 -175 33t-160.5 106.5t-117 195t-44.5 297.5q0 292 72.5 505t185.5 390h-313v190h495v-182q-27 -72 -60 -149.5t-63 -177.5t-49.5 -239.5
t-19.5 -336.5q1 -171 33.5 -265.5t88 -131.5t125.5 -37t125.5 37t88.5 131.5t33 265.5q0 204 -19 344.5t-48.5 238.5t-62 173t-58.5 147v182z" />
    <glyph glyph-name="Uring" unicode="&#x16e;" horiz-adv-x="1095" 
d="M547 -15q-44 0 -98.5 8.5t-108.5 37t-99 87t-72.5 157.5t-27.5 250v1183h259v-1244q0 -159 35.5 -217.5t111.5 -58.5q77 0 112.5 58.5t35.5 217.5v1244h258v-1183q0 -151 -27.5 -250t-72.5 -157.5t-99 -87t-108 -37t-99 -8.5zM543 1765q-106 0 -176 42.5t-104 111
t-34 146.5q0 81 33.5 149.5t103 110t177.5 41.5q164 0 244 -89t80 -212q0 -74 -35.5 -143t-107.5 -113t-181 -44zM542 1928q80 0 119 41.5t39 91.5q0 62 -39 102t-119 40q-72 0 -105.5 -41t-33.5 -101q0 -52 34.5 -92.5t104.5 -40.5z" />
    <glyph glyph-name="Utilde" unicode="&#x168;" horiz-adv-x="1095" 
d="M547 -15q-44 0 -98.5 8.5t-108.5 37t-99 87t-72.5 157.5t-27.5 250v1183h259v-1244q0 -159 35.5 -217.5t111.5 -58.5q77 0 112.5 58.5t35.5 217.5v1244h258v-1183q0 -151 -27.5 -250t-72.5 -157.5t-99 -87t-108 -37t-99 -8.5zM685 1788q-51 0 -88 16t-72 47
q-40 38 -57.5 58t-43.5 20q-36 0 -36 -58v-66h-148q0 11 -1.5 38t-1.5 36q0 123 55.5 169.5t128.5 46.5q49 0 82.5 -15.5t66.5 -45.5q22 -22 50.5 -51t54.5 -29q42 0 42 52v71h132q9 -64 9 -96q0 -95 -52.5 -144t-120.5 -49z" />
    <glyph glyph-name="V" unicode="V" horiz-adv-x="945" 
d="M324 0l-310 1708h265l188 -1357h11l189 1357h264l-311 -1708h-296z" />
    <glyph glyph-name="uni0245" unicode="&#x245;" horiz-adv-x="945" 
d="M14 0l311 1708h296l310 -1708h-265l-188 1357h-11l-189 -1357h-264z" />
    <glyph glyph-name="W" unicode="W" horiz-adv-x="1469" 
d="M32 1708h248l115 -1032l13 -241h25l24 241l184 1032h207l176 -1032l20 -241h26l12 241l105 1032h249l-239 -1708h-263l-141 821l-44 357h-20l-43 -357l-148 -821h-260z" />
    <glyph glyph-name="Wacute" unicode="&#x1e82;" horiz-adv-x="1469" 
d="M32 1708h248l115 -1032l13 -241h25l24 241l184 1032h207l176 -1032l20 -241h26l12 241l105 1032h249l-239 -1708h-263l-141 821l-44 357h-20l-43 -357l-148 -821h-260zM735 1796l-125 94l241 286l169 -127z" />
    <glyph glyph-name="Wcircumflex" unicode="&#x174;" horiz-adv-x="1469" 
d="M32 1708h248l115 -1032l13 -241h25l24 241l184 1032h207l176 -1032l20 -241h26l12 241l105 1032h249l-239 -1708h-263l-141 821l-44 357h-20l-43 -357l-148 -821h-260zM782 1956l-40 56l-40 -56l-84 -130h-248l250 310h234l246 -310h-249z" />
    <glyph glyph-name="Wdieresis" unicode="&#x1e84;" horiz-adv-x="1469" 
d="M32 1708h248l115 -1032l13 -241h25l24 241l184 1032h207l176 -1032l20 -241h26l12 241l105 1032h249l-239 -1708h-263l-141 821l-44 357h-20l-43 -357l-148 -821h-260zM512 1804q-78 0 -107.5 39t-29.5 114q0 80 29 121t108 41q82 0 113.5 -39.5t31.5 -122.5
q0 -72 -31.5 -112.5t-113.5 -40.5zM949 1804q-78 0 -107 39t-29 114q0 80 28.5 121t107.5 41q82 0 114 -39.5t32 -122.5q0 -72 -32 -112.5t-114 -40.5z" />
    <glyph glyph-name="Wgrave" unicode="&#x1e80;" horiz-adv-x="1469" 
d="M32 1708h248l115 -1032l13 -241h25l24 241l184 1032h207l176 -1032l20 -241h26l12 241l105 1032h249l-239 -1708h-263l-141 821l-44 357h-20l-43 -357l-148 -821h-260zM738 1776l-285 253l169 127l241 -286z" />
    <glyph glyph-name="X" unicode="X" horiz-adv-x="921" 
d="M336 860l-312 848h274l162 -546h10l159 546h268l-313 -849l313 -859h-264l-165 549h-17l-169 -549h-258z" />
    <glyph glyph-name="Y" unicode="Y" horiz-adv-x="949" 
d="M344 599l-334 1109h261l198 -824h12l198 824h260l-336 -1109v-599h-259v599z" />
    <glyph glyph-name="Yacute" unicode="&#xdd;" horiz-adv-x="949" 
d="M344 599l-334 1109h261l198 -824h12l198 824h260l-336 -1109v-599h-259v599zM475 1776l-125 94l241 286l169 -127z" />
    <glyph glyph-name="Ycircumflex" unicode="&#x176;" horiz-adv-x="949" 
d="M344 599l-334 1109h261l198 -824h12l198 824h260l-336 -1109v-599h-259v599zM522 1936l-40 56l-40 -56l-84 -130h-248l250 310h234l246 -310h-249z" />
    <glyph glyph-name="Ydieresis" unicode="&#x178;" horiz-adv-x="949" 
d="M344 599l-334 1109h261l198 -824h12l198 824h260l-336 -1109v-599h-259v599zM252 1784q-78 0 -107.5 39t-29.5 114q0 80 29 121t108 41q82 0 113.5 -39.5t31.5 -122.5q0 -72 -31.5 -112.5t-113.5 -40.5zM689 1784q-78 0 -107 39t-29 114q0 80 28.5 121t107.5 41
q82 0 114 -39.5t32 -122.5q0 -72 -32 -112.5t-114 -40.5z" />
    <glyph glyph-name="uni1E8E" unicode="&#x1e8e;" horiz-adv-x="949" 
d="M344 599l-334 1109h261l198 -824h12l198 824h260l-336 -1109v-599h-259v599zM473 1790q-70 0 -112.5 44t-42.5 124q0 89 42.5 126t113.5 37q74 0 115.5 -40t41.5 -123q0 -78 -42 -123t-116 -45z" />
    <glyph glyph-name="uni1EF4" unicode="&#x1ef4;" horiz-adv-x="949" 
d="M344 599l-334 1109h261l198 -824h12l198 824h260l-336 -1109v-599h-259v599zM319 -257q0 89 42.5 126t113.5 37q74 0 115.5 -40t41.5 -123q0 -78 -42 -123t-116 -45q-70 0 -112.5 44t-42.5 124z" />
    <glyph glyph-name="Ygrave" unicode="&#x1ef2;" horiz-adv-x="949" 
d="M344 599l-334 1109h261l198 -824h12l198 824h260l-336 -1109v-599h-259v599zM478 1756l-285 253l169 127l241 -286z" />
    <glyph glyph-name="uni1EF6" unicode="&#x1ef6;" horiz-adv-x="949" 
d="M344 599l-334 1109h261l198 -824h12l198 824h260l-336 -1109v-599h-259v599zM383 1819v116q53 0 80.5 21.5t27.5 53.5q0 47 -54 80t-146 41l36 136q154 -16 243 -90t89 -172q0 -81 -67 -127t-209 -59z" />
    <glyph glyph-name="uni0232" unicode="&#x232;" horiz-adv-x="949" 
d="M344 599l-334 1109h261l198 -824h12l198 824h260l-336 -1109v-599h-259v599zM163 2028h623v-193h-623v193z" />
    <glyph glyph-name="uni1EF8" unicode="&#x1ef8;" horiz-adv-x="949" 
d="M344 599l-334 1109h261l198 -824h12l198 824h260l-336 -1109v-599h-259v599zM612 1788q-51 0 -88 16t-72 47q-40 38 -57.5 58t-43.5 20q-36 0 -36 -58v-66h-148q0 11 -1.5 38t-1.5 36q0 123 55.5 169.5t128.5 46.5q49 0 82.5 -15.5t66.5 -45.5q22 -22 50.5 -51t54.5 -29
q42 0 42 52v71h132q9 -64 9 -96q0 -95 -52.5 -144t-120.5 -49z" />
    <glyph glyph-name="Z" unicode="Z" horiz-adv-x="855" 
d="M24 137l517 1367h-431v204h721v-137l-518 -1367h518v-204h-807v137z" />
    <glyph glyph-name="Zacute" unicode="&#x179;" horiz-adv-x="855" 
d="M24 137l517 1367h-431v204h721v-137l-518 -1367h518v-204h-807v137zM428 1776l-125 94l241 286l169 -127z" />
    <glyph glyph-name="Zcaron" unicode="&#x17d;" horiz-adv-x="855" 
d="M24 137l517 1367h-431v204h721v-137l-518 -1367h518v-204h-807v137zM544 2086h249l-246 -310h-234l-250 310h248l84 -130l40 -56l40 56z" />
    <glyph glyph-name="Zdotaccent" unicode="&#x17b;" horiz-adv-x="855" 
d="M24 137l517 1367h-431v204h721v-137l-518 -1367h518v-204h-807v137zM426 1790q-70 0 -112.5 44t-42.5 124q0 89 42.5 126t113.5 37q74 0 115.5 -40t41.5 -123q0 -78 -42 -123t-116 -45z" />
    <glyph glyph-name="uni1E92" unicode="&#x1e92;" horiz-adv-x="855" 
d="M24 137l517 1367h-431v204h721v-137l-518 -1367h518v-204h-807v137zM272 -257q0 89 42.5 126t113.5 37q74 0 115.5 -40t41.5 -123q0 -78 -42 -123t-116 -45q-70 0 -112.5 44t-42.5 124z" />
    <glyph glyph-name="Zmacronbelow" unicode="&#x1e94;" horiz-adv-x="855" 
d="M24 137l517 1367h-431v204h721v-137l-518 -1367h518v-204h-807v137zM116 -156h623v-193h-623v193z" />
    <glyph glyph-name="uni013B.loclMAH" horiz-adv-x="766" 
d="M141 1708h259v-1504h353v-204h-612v1708zM339 -71h210l-91 -422h-182z" />
    <glyph glyph-name="uni0145.loclMAH" horiz-adv-x="1113" 
d="M141 1708h205l417 -1123h6q-4 53 -10.5 118.5t-11.5 157.5t-5 224v623h230v-1708h-207l-415 1093h-8q5 -60 11 -131t11 -179t5 -281v-502h-228v1708zM463 -71h210l-91 -422h-182z" />
    <glyph glyph-name="Eng.loclNSM" horiz-adv-x="1113" 
d="M742 -444q-30 0 -61 5.5t-61 18.5v147q8 -1 16 -1.5t16 -0.5q44 0 76.5 34.5t32.5 124.5l4 116l-415 1093h-8q5 -60 11 -131t11 -179t5 -281v-502h-228v1708h205l417 -1123h6q-4 53 -10.5 118.5t-11.5 157.5t-5 224v623h230v-1792q0 -150 -28 -227.5t-79.5 -105
t-122.5 -27.5z" />
    <glyph glyph-name="a" unicode="a" horiz-adv-x="914" 
d="M372 765q38 19 82 39t81 33v167q0 52 -4.5 97t-27 73.5t-76.5 28.5t-97 -44t-43 -163v-55h-193q-18 78 -18 136q0 154 101 234.5t258 80.5q137 0 214 -38.5t108 -116t31 -196.5v-1041h-195l-18 118q-40 -58 -106 -96t-153 -38q-90 0 -148 46t-86.5 121.5t-28.5 164.5
q0 170 81 270.5t238 178.5zM428 177q32 0 59 16.5t48 40.5v434q-19 -8 -41 -19t-51 -29q-53 -33 -99 -98.5t-46 -166.5q0 -79 31 -128.5t99 -49.5z" />
    <glyph glyph-name="aacute" unicode="&#xe1;" horiz-adv-x="914" 
d="M372 765q38 19 82 39t81 33v167q0 52 -4.5 97t-27 73.5t-76.5 28.5t-97 -44t-43 -163v-55h-193q-18 78 -18 136q0 154 101 234.5t258 80.5q137 0 214 -38.5t108 -116t31 -196.5v-1041h-195l-18 118q-40 -58 -106 -96t-153 -38q-90 0 -148 46t-86.5 121.5t-28.5 164.5
q0 170 81 270.5t238 178.5zM428 177q32 0 59 16.5t48 40.5v434q-19 -8 -41 -19t-51 -29q-53 -33 -99 -98.5t-46 -166.5q0 -79 31 -128.5t99 -49.5zM307 1567l290 416l169 -137l-334 -384z" />
    <glyph glyph-name="abreve" unicode="&#x103;" horiz-adv-x="914" 
d="M372 765q38 19 82 39t81 33v167q0 52 -4.5 97t-27 73.5t-76.5 28.5t-97 -44t-43 -163v-55h-193q-18 78 -18 136q0 154 101 234.5t258 80.5q137 0 214 -38.5t108 -116t31 -196.5v-1041h-195l-18 118q-40 -58 -106 -96t-153 -38q-90 0 -148 46t-86.5 121.5t-28.5 164.5
q0 170 81 270.5t238 178.5zM428 177q32 0 59 16.5t48 40.5v434q-19 -8 -41 -19t-51 -29q-53 -33 -99 -98.5t-46 -166.5q0 -79 31 -128.5t99 -49.5zM452 1504q-106 0 -176 44t-104 114t-34 148q0 34 6 67h178q-7 -16 -8.5 -34t-1.5 -37q0 -52 34.5 -95.5t104.5 -43.5
q80 0 119 44.5t39 94.5v37t-8 34h169q6 -33 6 -67q0 -74 -35.5 -144.5t-107.5 -116t-181 -45.5z" />
    <glyph glyph-name="uni1EAF" unicode="&#x1eaf;" horiz-adv-x="914" 
d="M372 765q38 19 82 39t81 33v167q0 52 -4.5 97t-27 73.5t-76.5 28.5t-97 -44t-43 -163v-55h-193q-18 78 -18 136q0 154 101 234.5t258 80.5q137 0 214 -38.5t108 -116t31 -196.5v-1041h-195l-18 118q-40 -58 -106 -96t-153 -38q-90 0 -148 46t-86.5 121.5t-28.5 164.5
q0 170 81 270.5t238 178.5zM428 177q32 0 59 16.5t48 40.5v434q-19 -8 -41 -19t-51 -29q-53 -33 -99 -98.5t-46 -166.5q0 -79 31 -128.5t99 -49.5zM499 1872l-113 94l261 375l152 -124zM453 1504q-96 0 -159 39.5t-93.5 102.5t-30.5 133q0 28 5 61h161q-7 -15 -8 -31t-1 -33
q0 -47 30.5 -86t94.5 -39q71 0 106.5 40t35.5 85q0 17 0.5 33.5t-7.5 30.5h152q5 -33 5 -61q0 -66 -32 -129.5t-96.5 -104.5t-162.5 -41z" />
    <glyph glyph-name="uni1EB7" unicode="&#x1eb7;" horiz-adv-x="914" 
d="M372 765q38 19 82 39t81 33v167q0 52 -4.5 97t-27 73.5t-76.5 28.5t-97 -44t-43 -163v-55h-193q-18 78 -18 136q0 154 101 234.5t258 80.5q137 0 214 -38.5t108 -116t31 -196.5v-1041h-195l-18 118q-40 -58 -106 -96t-153 -38q-90 0 -148 46t-86.5 121.5t-28.5 164.5
q0 170 81 270.5t238 178.5zM428 177q32 0 59 16.5t48 40.5v434q-19 -8 -41 -19t-51 -29q-53 -33 -99 -98.5t-46 -166.5q0 -79 31 -128.5t99 -49.5zM301 -257q0 89 42.5 126t113.5 37q74 0 115.5 -40t41.5 -123q0 -78 -42 -123t-116 -45q-70 0 -112.5 44t-42.5 124zM452 1504
q-106 0 -176 44t-104 114t-34 148q0 34 6 67h178q-7 -16 -8.5 -34t-1.5 -37q0 -52 34.5 -95.5t104.5 -43.5q80 0 119 44.5t39 94.5v37t-8 34h169q6 -33 6 -67q0 -74 -35.5 -144.5t-107.5 -116t-181 -45.5z" />
    <glyph glyph-name="uni1EB1" unicode="&#x1eb1;" horiz-adv-x="914" 
d="M372 765q38 19 82 39t81 33v167q0 52 -4.5 97t-27 73.5t-76.5 28.5t-97 -44t-43 -163v-55h-193q-18 78 -18 136q0 154 101 234.5t258 80.5q137 0 214 -38.5t108 -116t31 -196.5v-1041h-195l-18 118q-40 -58 -106 -96t-153 -38q-90 0 -148 46t-86.5 121.5t-28.5 164.5
q0 170 81 270.5t238 178.5zM428 177q32 0 59 16.5t48 40.5v434q-19 -8 -41 -19t-51 -29q-53 -33 -99 -98.5t-46 -166.5q0 -79 31 -128.5t99 -49.5zM456 1872l-300 345l152 124l261 -375zM453 1504q-96 0 -158.5 39.5t-93.5 102.5t-31 133q0 28 5 61h161q-7 -15 -8 -31
t-1 -33q0 -47 30.5 -86t94.5 -39q71 0 106.5 40t35.5 85q0 17 0.5 33.5t-7.5 30.5h152q5 -33 5 -61q0 -66 -32 -129.5t-96.5 -104.5t-162.5 -41z" />
    <glyph glyph-name="uni1EB3" unicode="&#x1eb3;" horiz-adv-x="914" 
d="M372 765q38 19 82 39t81 33v167q0 52 -4.5 97t-27 73.5t-76.5 28.5t-97 -44t-43 -163v-55h-193q-18 78 -18 136q0 154 101 234.5t258 80.5q137 0 214 -38.5t108 -116t31 -196.5v-1041h-195l-18 118q-40 -58 -106 -96t-153 -38q-90 0 -148 46t-86.5 121.5t-28.5 164.5
q0 170 81 270.5t238 178.5zM428 177q32 0 59 16.5t48 40.5v434q-19 -8 -41 -19t-51 -29q-53 -33 -99 -98.5t-46 -166.5q0 -79 31 -128.5t99 -49.5zM424 1887v104q47 0 72 19.5t25 48.5q0 43 -48.5 72.5t-131.5 36.5l33 122q138 -14 218.5 -81t80.5 -155q0 -145 -249 -167z
M453 1504q-96 0 -159 39.5t-93.5 102.5t-30.5 133q0 28 5 61h161q-7 -15 -8 -31t-1 -33q0 -47 30.5 -86t94.5 -39q71 0 106.5 40t35.5 85q0 17 0.5 33.5t-7.5 30.5h152q5 -33 5 -61q0 -66 -32 -129.5t-96.5 -104.5t-162.5 -41z" />
    <glyph glyph-name="uni1EB5" unicode="&#x1eb5;" horiz-adv-x="914" 
d="M372 765q38 19 82 39t81 33v167q0 52 -4.5 97t-27 73.5t-76.5 28.5t-97 -44t-43 -163v-55h-193q-18 78 -18 136q0 154 101 234.5t258 80.5q137 0 214 -38.5t108 -116t31 -196.5v-1041h-195l-18 118q-40 -58 -106 -96t-153 -38q-90 0 -148 46t-86.5 121.5t-28.5 164.5
q0 170 81 270.5t238 178.5zM428 177q32 0 59 16.5t48 40.5v434q-19 -8 -41 -19t-51 -29q-53 -33 -99 -98.5t-46 -166.5q0 -79 31 -128.5t99 -49.5zM592 1917q-50 0 -86 16t-70 47q-39 35 -56.5 52.5t-42.5 17.5q-35 0 -35 -52v-58h-144q-1 9 -2 33.5t-1 32.5q0 114 53.5 152
t125.5 38q47 0 80.5 -15.5t65.5 -46.5q21 -20 49 -45.5t53 -25.5q40 0 40 48v70h129q5 -28 7 -45t2 -32q0 -93 -51.5 -140t-116.5 -47zM453 1504q-96 0 -158.5 39.5t-93.5 102.5t-31 133q0 28 5 61h161q-7 -15 -8 -31t-1 -33q0 -47 30.5 -86t94.5 -39q71 0 106.5 40t35.5 85
q0 17 0.5 33.5t-7.5 30.5h152q5 -33 5 -61q0 -66 -32 -129.5t-96.5 -104.5t-162.5 -41z" />
    <glyph glyph-name="uni01CE" unicode="&#x1ce;" horiz-adv-x="914" 
d="M372 765q38 19 82 39t81 33v167q0 52 -4.5 97t-27 73.5t-76.5 28.5t-97 -44t-43 -163v-55h-193q-18 78 -18 136q0 154 101 234.5t258 80.5q137 0 214 -38.5t108 -116t31 -196.5v-1041h-195l-18 118q-40 -58 -106 -96t-153 -38q-90 0 -148 46t-86.5 121.5t-28.5 164.5
q0 170 81 270.5t238 178.5zM428 177q32 0 59 16.5t48 40.5v434q-19 -8 -41 -19t-51 -29q-53 -33 -99 -98.5t-46 -166.5q0 -79 31 -128.5t99 -49.5zM367 1505l-270 491h218l94 -192l50 -132l51 132l88 192h219l-276 -491h-174z" />
    <glyph glyph-name="acircumflex" unicode="&#xe2;" horiz-adv-x="914" 
d="M372 765q38 19 82 39t81 33v167q0 52 -4.5 97t-27 73.5t-76.5 28.5t-97 -44t-43 -163v-55h-193q-18 78 -18 136q0 154 101 234.5t258 80.5q137 0 214 -38.5t108 -116t31 -196.5v-1041h-195l-18 118q-40 -58 -106 -96t-153 -38q-90 0 -148 46t-86.5 121.5t-28.5 164.5
q0 170 81 270.5t238 178.5zM428 177q32 0 59 16.5t48 40.5v434q-19 -8 -41 -19t-51 -29q-53 -33 -99 -98.5t-46 -166.5q0 -79 31 -128.5t99 -49.5zM541 1996l276 -491h-219l-88 192l-51 132l-50 -132l-94 -192h-218l270 491h174z" />
    <glyph glyph-name="uni1EA5" unicode="&#x1ea5;" horiz-adv-x="914" 
d="M372 765q38 19 82 39t81 33v167q0 52 -4.5 97t-27 73.5t-76.5 28.5t-97 -44t-43 -163v-55h-193q-18 78 -18 136q0 154 101 234.5t258 80.5q137 0 214 -38.5t108 -116t31 -196.5v-1041h-195l-18 118q-40 -58 -106 -96t-153 -38q-90 0 -148 46t-86.5 121.5t-28.5 164.5
q0 170 81 270.5t238 178.5zM428 177q32 0 59 16.5t48 40.5v434q-19 -8 -41 -19t-51 -29q-53 -33 -99 -98.5t-46 -166.5q0 -79 31 -128.5t99 -49.5zM640 1966l261 375l152 -124l-300 -345zM533 1947l248 -442h-197l-79 173l-46 119l-45 -119l-85 -173h-196l243 442h157z" />
    <glyph glyph-name="uni1EAD" unicode="&#x1ead;" horiz-adv-x="914" 
d="M372 765q38 19 82 39t81 33v167q0 52 -4.5 97t-27 73.5t-76.5 28.5t-97 -44t-43 -163v-55h-193q-18 78 -18 136q0 154 101 234.5t258 80.5q137 0 214 -38.5t108 -116t31 -196.5v-1041h-195l-18 118q-40 -58 -106 -96t-153 -38q-90 0 -148 46t-86.5 121.5t-28.5 164.5
q0 170 81 270.5t238 178.5zM428 177q32 0 59 16.5t48 40.5v434q-19 -8 -41 -19t-51 -29q-53 -33 -99 -98.5t-46 -166.5q0 -79 31 -128.5t99 -49.5zM301 -257q0 89 42.5 126t113.5 37q74 0 115.5 -40t41.5 -123q0 -78 -42 -123t-116 -45q-70 0 -112.5 44t-42.5 124zM541 1996
l276 -491h-219l-88 192l-51 132l-50 -132l-94 -192h-218l270 491h174z" />
    <glyph glyph-name="uni1EA7" unicode="&#x1ea7;" horiz-adv-x="914" 
d="M372 765q38 19 82 39t81 33v167q0 52 -4.5 97t-27 73.5t-76.5 28.5t-97 -44t-43 -163v-55h-193q-18 78 -18 136q0 154 101 234.5t258 80.5q137 0 214 -38.5t108 -116t31 -196.5v-1041h-195l-18 118q-40 -58 -106 -96t-153 -38q-90 0 -148 46t-86.5 121.5t-28.5 164.5
q0 170 81 270.5t238 178.5zM428 177q32 0 59 16.5t48 40.5v434q-19 -8 -41 -19t-51 -29q-53 -33 -99 -98.5t-46 -166.5q0 -79 31 -128.5t99 -49.5zM840 1966l-113 -94l-300 345l152 124zM533 1947l248 -442h-197l-79 173l-46 119l-45 -119l-85 -173h-196l243 442h157z" />
    <glyph glyph-name="uni1EA9" unicode="&#x1ea9;" horiz-adv-x="914" 
d="M372 765q38 19 82 39t81 33v167q0 52 -4.5 97t-27 73.5t-76.5 28.5t-97 -44t-43 -163v-55h-193q-18 78 -18 136q0 154 101 234.5t258 80.5q137 0 214 -38.5t108 -116t31 -196.5v-1041h-195l-18 118q-40 -58 -106 -96t-153 -38q-90 0 -148 46t-86.5 121.5t-28.5 164.5
q0 170 81 270.5t238 178.5zM428 177q32 0 59 16.5t48 40.5v434q-19 -8 -41 -19t-51 -29q-53 -33 -99 -98.5t-46 -166.5q0 -79 31 -128.5t99 -49.5zM711 1787v104q47 0 72 19.5t25 48.5q0 42 -48.5 72t-131.5 37l33 122q138 -14 218.5 -81t80.5 -155q0 -145 -249 -167z
M533 1947l248 -442h-197l-79 173l-46 119l-45 -119l-85 -173h-196l243 442h157z" />
    <glyph glyph-name="uni1EAB" unicode="&#x1eab;" horiz-adv-x="914" 
d="M372 765q38 19 82 39t81 33v167q0 52 -4.5 97t-27 73.5t-76.5 28.5t-97 -44t-43 -163v-55h-193q-18 78 -18 136q0 154 101 234.5t258 80.5q137 0 214 -38.5t108 -116t31 -196.5v-1041h-195l-18 118q-40 -58 -106 -96t-153 -38q-90 0 -148 46t-86.5 121.5t-28.5 164.5
q0 170 81 270.5t238 178.5zM428 177q32 0 59 16.5t48 40.5v434q-19 -8 -41 -19t-51 -29q-53 -33 -99 -98.5t-46 -166.5q0 -79 31 -128.5t99 -49.5zM400 2047q-39 35 -56.5 52.5t-42.5 17.5q-35 0 -35 -52v-58h-144q-1 9 -2 33.5t-1 32.5q0 114 53.5 152t125.5 38
q47 0 80.5 -15.5t65.5 -46.5q21 -20 49 -45.5t53 -25.5q40 0 40 48v70h129q5 -28 7 -45t2 -32q0 -93 -51.5 -140t-116.5 -47q-50 0 -86 16t-70 47zM497 1917l248 -412h-197l-79 153l-46 119l-45 -119l-85 -153h-196l243 412h157z" />
    <glyph glyph-name="adieresis" unicode="&#xe4;" horiz-adv-x="914" 
d="M372 765q38 19 82 39t81 33v167q0 52 -4.5 97t-27 73.5t-76.5 28.5t-97 -44t-43 -163v-55h-193q-18 78 -18 136q0 154 101 234.5t258 80.5q137 0 214 -38.5t108 -116t31 -196.5v-1041h-195l-18 118q-40 -58 -106 -96t-153 -38q-90 0 -148 46t-86.5 121.5t-28.5 164.5
q0 170 81 270.5t238 178.5zM428 177q32 0 59 16.5t48 40.5v434q-19 -8 -41 -19t-51 -29q-53 -33 -99 -98.5t-46 -166.5q0 -79 31 -128.5t99 -49.5zM234 1510q-78 0 -107.5 42.5t-29.5 122.5q0 86 29 130t108 44q82 0 113.5 -43t31.5 -131q0 -77 -31.5 -121t-113.5 -44z
M671 1510q-78 0 -107 42.5t-29 122.5q0 86 28.5 130t107.5 44q82 0 114 -43t32 -131q0 -77 -32 -121t-114 -44z" />
    <glyph glyph-name="uni01DF" unicode="&#x1df;" horiz-adv-x="914" 
d="M372 765q38 19 82 39t81 33v167q0 52 -4.5 97t-27 73.5t-76.5 28.5t-97 -44t-43 -163v-55h-193q-18 78 -18 136q0 154 101 234.5t258 80.5q137 0 214 -38.5t108 -116t31 -196.5v-1041h-195l-18 118q-40 -58 -106 -96t-153 -38q-90 0 -148 46t-86.5 121.5t-28.5 164.5
q0 170 81 270.5t238 178.5zM428 177q32 0 59 16.5t48 40.5v434q-19 -8 -41 -19t-51 -29q-53 -33 -99 -98.5t-46 -166.5q0 -79 31 -128.5t99 -49.5zM234 1510q-78 0 -107.5 42.5t-29.5 122.5q0 86 29 130t108 44q82 0 113.5 -43t31.5 -131q0 -77 -31.5 -121t-113.5 -44z
M671 1510q-78 0 -107 42.5t-29 122.5q0 86 28.5 130t107.5 44q82 0 114 -43t32 -131q0 -77 -32 -121t-114 -44zM145 2148h623v-193h-623v193z" />
    <glyph glyph-name="uni1EA1" unicode="&#x1ea1;" horiz-adv-x="914" 
d="M372 765q38 19 82 39t81 33v167q0 52 -4.5 97t-27 73.5t-76.5 28.5t-97 -44t-43 -163v-55h-193q-18 78 -18 136q0 154 101 234.5t258 80.5q137 0 214 -38.5t108 -116t31 -196.5v-1041h-195l-18 118q-40 -58 -106 -96t-153 -38q-90 0 -148 46t-86.5 121.5t-28.5 164.5
q0 170 81 270.5t238 178.5zM428 177q32 0 59 16.5t48 40.5v434q-19 -8 -41 -19t-51 -29q-53 -33 -99 -98.5t-46 -166.5q0 -79 31 -128.5t99 -49.5zM301 -257q0 89 42.5 126t113.5 37q74 0 115.5 -40t41.5 -123q0 -78 -42 -123t-116 -45q-70 0 -112.5 44t-42.5 124z" />
    <glyph glyph-name="agrave" unicode="&#xe0;" horiz-adv-x="914" 
d="M372 765q38 19 82 39t81 33v167q0 52 -4.5 97t-27 73.5t-76.5 28.5t-97 -44t-43 -163v-55h-193q-18 78 -18 136q0 154 101 234.5t258 80.5q137 0 214 -38.5t108 -116t31 -196.5v-1041h-195l-18 118q-40 -58 -106 -96t-153 -38q-90 0 -148 46t-86.5 121.5t-28.5 164.5
q0 170 81 270.5t238 178.5zM428 177q32 0 59 16.5t48 40.5v434q-19 -8 -41 -19t-51 -29q-53 -33 -99 -98.5t-46 -166.5q0 -79 31 -128.5t99 -49.5zM157 1846l169 137l290 -416l-125 -105z" />
    <glyph glyph-name="uni1EA3" unicode="&#x1ea3;" horiz-adv-x="914" 
d="M372 765q38 19 82 39t81 33v167q0 52 -4.5 97t-27 73.5t-76.5 28.5t-97 -44t-43 -163v-55h-193q-18 78 -18 136q0 154 101 234.5t258 80.5q137 0 214 -38.5t108 -116t31 -196.5v-1041h-195l-18 118q-40 -58 -106 -96t-153 -38q-90 0 -148 46t-86.5 121.5t-28.5 164.5
q0 170 81 270.5t238 178.5zM428 177q32 0 59 16.5t48 40.5v434q-19 -8 -41 -19t-51 -29q-53 -33 -99 -98.5t-46 -166.5q0 -79 31 -128.5t99 -49.5zM365 1488v116q53 0 80.5 21.5t27.5 53.5q0 47 -54 80t-146 41l36 136q154 -16 243 -90t89 -172q0 -81 -67 -127t-209 -59z
" />
    <glyph glyph-name="amacron" unicode="&#x101;" horiz-adv-x="914" 
d="M372 765q38 19 82 39t81 33v167q0 52 -4.5 97t-27 73.5t-76.5 28.5t-97 -44t-43 -163v-55h-193q-18 78 -18 136q0 154 101 234.5t258 80.5q137 0 214 -38.5t108 -116t31 -196.5v-1041h-195l-18 118q-40 -58 -106 -96t-153 -38q-90 0 -148 46t-86.5 121.5t-28.5 164.5
q0 170 81 270.5t238 178.5zM428 177q32 0 59 16.5t48 40.5v434q-19 -8 -41 -19t-51 -29q-53 -33 -99 -98.5t-46 -166.5q0 -79 31 -128.5t99 -49.5zM145 1746h623v-193h-623v193z" />
    <glyph glyph-name="aogonek" unicode="&#x105;" horiz-adv-x="914" 
d="M372 765q38 19 82 39t81 33v167q0 52 -4.5 97t-27 73.5t-76.5 28.5t-97 -44t-43 -163v-55h-193q-18 78 -18 136q0 154 101 234.5t258 80.5q137 0 214 -38.5t108 -116t31 -196.5v-1041h-195l-18 118q-40 -58 -106 -96t-153 -38q-90 0 -148 46t-86.5 121.5t-28.5 164.5
q0 170 81 270.5t238 178.5zM428 177q32 0 59 16.5t48 40.5v434q-19 -8 -41 -19t-51 -29q-53 -33 -99 -98.5t-46 -166.5q0 -79 31 -128.5t99 -49.5zM683 12l105 -13q-60 -67 -65 -121t25 -86t75 -32h16.5t16.5 1l7 -151q-41 -16 -75.5 -23t-75.5 -7q-31 0 -79.5 17t-86 65.5
t-37.5 142.5q0 78 34.5 128.5t50.5 65.5z" />
    <glyph glyph-name="aring" unicode="&#xe5;" horiz-adv-x="914" 
d="M372 765q38 19 82 39t81 33v167q0 52 -4.5 97t-27 73.5t-76.5 28.5t-97 -44t-43 -163v-55h-193q-18 78 -18 136q0 154 101 234.5t258 80.5q137 0 214 -38.5t108 -116t31 -196.5v-1041h-195l-18 118q-40 -58 -106 -96t-153 -38q-90 0 -148 46t-86.5 121.5t-28.5 164.5
q0 170 81 270.5t238 178.5zM428 177q32 0 59 16.5t48 40.5v434q-19 -8 -41 -19t-51 -29q-53 -33 -99 -98.5t-46 -166.5q0 -79 31 -128.5t99 -49.5zM452 1501q-106 0 -176 42.5t-104 111t-34 146.5q0 81 33.5 149.5t103 110t177.5 41.5q164 0 244 -89t80 -212
q0 -74 -35.5 -143t-107.5 -113t-181 -44zM451 1664q80 0 119 41.5t39 91.5q0 62 -39 102t-119 40q-72 0 -105.5 -41t-33.5 -101q0 -52 34.5 -92.5t104.5 -40.5z" />
    <glyph glyph-name="atilde" unicode="&#xe3;" horiz-adv-x="914" 
d="M372 765q38 19 82 39t81 33v167q0 52 -4.5 97t-27 73.5t-76.5 28.5t-97 -44t-43 -163v-55h-193q-18 78 -18 136q0 154 101 234.5t258 80.5q137 0 214 -38.5t108 -116t31 -196.5v-1041h-195l-18 118q-40 -58 -106 -96t-153 -38q-90 0 -148 46t-86.5 121.5t-28.5 164.5
q0 170 81 270.5t238 178.5zM428 177q32 0 59 16.5t48 40.5v434q-19 -8 -41 -19t-51 -29q-53 -33 -99 -98.5t-46 -166.5q0 -79 31 -128.5t99 -49.5zM622 1497q-61 0 -105.5 20t-86.5 58q-48 42 -69.5 64t-52.5 22q-43 0 -43 -64v-72h-178q-1 11 -2.5 41.5t-1.5 40.5
q0 94 30.5 144.5t81 70.5t109.5 20t99.5 -19.5t80.5 -57.5q26 -25 60.5 -56.5t65.5 -31.5q50 0 50 59v87h159q11 -65 11 -95q0 -115 -63.5 -173t-144.5 -58z" />
    <glyph glyph-name="uni0250" unicode="&#x250;" horiz-adv-x="914" 
d="M542 612q-37 -19 -81.5 -38.5t-81.5 -33.5v-167q0 -51 4.5 -96.5t27.5 -74t76 -28.5q54 0 97 44.5t43 162.5v55h193q18 -78 18 -136q0 -154 -100.5 -234.5t-258.5 -80.5q-137 0 -214 38.5t-108 116.5t-31 196v1041h195l18 -118q41 59 106.5 96.5t152.5 37.5
q90 0 148.5 -46t86.5 -121.5t28 -164.5q0 -169 -80.5 -270t-238.5 -179zM486 1200q-31 0 -58.5 -16.5t-48.5 -40.5v-434q20 8 42 19t50 29q53 33 99 98.5t46 166.5q0 79 -31 128.5t-99 49.5z" />
    <glyph glyph-name="ae" unicode="&#xe6;" horiz-adv-x="1352" 
d="M350 -16q-107 0 -172.5 45.5t-95 121t-29.5 163.5q0 169 81 269.5t238 177.5q38 19 82 39t81 33v166q0 51 -4.5 96.5t-27 73.5t-76.5 28t-97 -44t-43 -162v-55h-193q-18 78 -18 136q0 153 101 233t258 80q95 0 157 -33t99 -79h8q53 64 120.5 88.5t124.5 24.5
q83 0 157.5 -38t121.5 -131t47 -259q0 -82 -9.5 -168.5t-24.5 -151.5h-448v-139q0 -179 30 -253t116 -74q47 0 85 40.5t38 148.5v60h205v-63q0 -194 -86 -284t-250 -90q-191 0 -279 167h-8q-51 -79 -127.5 -123t-161.5 -44zM788 807h247q2 22 3 66t1 71q0 136 -29 195.5
t-92 59.5q-67 0 -98.5 -67.5t-31.5 -243.5v-81zM428 176q32 0 59 16.5t48 40.5v432q-19 -8 -41 -19t-51 -29q-53 -33 -99 -98t-46 -166q0 -78 31 -127.5t99 -49.5z" />
    <glyph glyph-name="aeacute" unicode="&#x1fd;" horiz-adv-x="1352" 
d="M350 -16q-107 0 -172.5 45.5t-95 121t-29.5 163.5q0 169 81 269.5t238 177.5q38 19 82 39t81 33v166q0 51 -4.5 96.5t-27 73.5t-76.5 28t-97 -44t-43 -162v-55h-193q-18 78 -18 136q0 153 101 233t258 80q95 0 157 -33t99 -79h8q53 64 120.5 88.5t124.5 24.5
q83 0 157.5 -38t121.5 -131t47 -259q0 -82 -9.5 -168.5t-24.5 -151.5h-448v-139q0 -179 30 -253t116 -74q47 0 85 40.5t38 148.5v60h205v-63q0 -194 -86 -284t-250 -90q-191 0 -279 167h-8q-51 -79 -127.5 -123t-161.5 -44zM788 807h247q2 22 3 66t1 71q0 136 -29 195.5
t-92 59.5q-67 0 -98.5 -67.5t-31.5 -243.5v-81zM428 176q32 0 59 16.5t48 40.5v432q-19 -8 -41 -19t-51 -29q-53 -33 -99 -98t-46 -166q0 -78 31 -127.5t99 -49.5zM526 1567l290 416l169 -137l-334 -384z" />
    <glyph glyph-name="uni01E3" unicode="&#x1e3;" horiz-adv-x="1352" 
d="M350 -16q-107 0 -172.5 45.5t-95 121t-29.5 163.5q0 169 81 269.5t238 177.5q38 19 82 39t81 33v166q0 51 -4.5 96.5t-27 73.5t-76.5 28t-97 -44t-43 -162v-55h-193q-18 78 -18 136q0 153 101 233t258 80q95 0 157 -33t99 -79h8q53 64 120.5 88.5t124.5 24.5
q83 0 157.5 -38t121.5 -131t47 -259q0 -82 -9.5 -168.5t-24.5 -151.5h-448v-139q0 -179 30 -253t116 -74q47 0 85 40.5t38 148.5v60h205v-63q0 -194 -86 -284t-250 -90q-191 0 -279 167h-8q-51 -79 -127.5 -123t-161.5 -44zM788 807h247q2 22 3 66t1 71q0 136 -29 195.5
t-92 59.5q-67 0 -98.5 -67.5t-31.5 -243.5v-81zM428 176q32 0 59 16.5t48 40.5v432q-19 -8 -41 -19t-51 -29q-53 -33 -99 -98t-46 -166q0 -78 31 -127.5t99 -49.5zM364 1746h623v-193h-623v193z" />
    <glyph glyph-name="b" unicode="b" horiz-adv-x="985" 
d="M129 1819h253v-367l-8 -182l1 -1q35 48 91 85.5t138 37.5q32 0 79.5 -12.5t95 -59t79.5 -146.5t32 -276v-417q0 -175 -32.5 -275.5t-81 -148t-98 -60.5t-84.5 -13q-97 0 -154.5 44.5t-91.5 99.5l-21 -128h-198v1819zM382 297q17 -38 46.5 -68.5t79.5 -30.5q37 0 65.5 20
t45 74.5t16.5 156.5v488q0 103 -16 156.5t-44.5 73.5t-65.5 20q-46 0 -77 -27.5t-50 -65.5v-797z" />
    <glyph glyph-name="uni1E05" unicode="&#x1e05;" horiz-adv-x="985" 
d="M129 1819h253v-367l-8 -182l1 -1q35 48 91 85.5t138 37.5q32 0 79.5 -12.5t95 -59t79.5 -146.5t32 -276v-417q0 -175 -32.5 -275.5t-81 -148t-98 -60.5t-84.5 -13q-97 0 -154.5 44.5t-91.5 99.5l-21 -128h-198v1819zM382 297q17 -38 46.5 -68.5t79.5 -30.5q37 0 65.5 20
t45 74.5t16.5 156.5v488q0 103 -16 156.5t-44.5 73.5t-65.5 20q-46 0 -77 -27.5t-50 -65.5v-797zM337 -257q0 89 42.5 126t113.5 37q74 0 115.5 -40t41.5 -123q0 -78 -42 -123t-116 -45q-70 0 -112.5 44t-42.5 124z" />
    <glyph glyph-name="uni0298" unicode="&#x298;" horiz-adv-x="1060" 
d="M107 556v605q0 154 28.5 256.5t75 164t103 92t113.5 40t105 9.5q46 0 102.5 -9t112.5 -38.5t102.5 -90.5t75 -164t28.5 -260v-605q0 -190 -44 -304t-111 -171.5t-138.5 -76.5t-127.5 -19q-62 0 -135.5 18t-139.5 75t-108 171.5t-42 306.5zM683 463v770q0 164 -37 225.5
t-114 61.5q-79 0 -116.5 -61.5t-37.5 -225.5v-770q0 -159 37.5 -217t116.5 -58q77 0 114 58t37 217zM422 853q0 77 29 104.5t78 27.5q51 0 79.5 -30t28.5 -102q0 -68 -29 -101.5t-80 -33.5q-47 0 -76.5 32.5t-29.5 102.5z" />
    <glyph glyph-name="c" unicode="c" horiz-adv-x="863" 
d="M95 564v260q0 158 26.5 262t69.5 166t95 92t103 39.5t93 9.5q140 0 227 -74t87 -229q0 -47 -4.5 -82t-12.5 -67h-192v43q0 104 -28.5 162.5t-84.5 58.5q-61 0 -93 -67.5t-32 -245.5v-391q0 -180 28.5 -254t102.5 -74q38 0 72.5 40.5t34.5 149.5v60h205v-63
q0 -196 -84 -285.5t-256 -89.5q-174 0 -265.5 136t-91.5 443z" />
    <glyph glyph-name="cacute" unicode="&#x107;" horiz-adv-x="863" 
d="M95 564v260q0 158 26.5 262t69.5 166t95 92t103 39.5t93 9.5q140 0 227 -74t87 -229q0 -47 -4.5 -82t-12.5 -67h-192v43q0 104 -28.5 162.5t-84.5 58.5q-61 0 -93 -67.5t-32 -245.5v-391q0 -180 28.5 -254t102.5 -74q38 0 72.5 40.5t34.5 149.5v60h205v-63
q0 -196 -84 -285.5t-256 -89.5q-174 0 -265.5 136t-91.5 443zM282 1567l290 416l169 -137l-334 -384z" />
    <glyph glyph-name="ccaron" unicode="&#x10d;" horiz-adv-x="863" 
d="M95 564v260q0 158 26.5 262t69.5 166t95 92t103 39.5t93 9.5q140 0 227 -74t87 -229q0 -47 -4.5 -82t-12.5 -67h-192v43q0 104 -28.5 162.5t-84.5 58.5q-61 0 -93 -67.5t-32 -245.5v-391q0 -180 28.5 -254t102.5 -74q38 0 72.5 40.5t34.5 149.5v60h205v-63
q0 -196 -84 -285.5t-256 -89.5q-174 0 -265.5 136t-91.5 443zM342 1505l-270 491h218l94 -192l50 -132l51 132l88 192h219l-276 -491h-174z" />
    <glyph glyph-name="ccedilla" unicode="&#xe7;" horiz-adv-x="863" 
d="M95 564v260q0 158 26.5 262t69.5 166t95 92t103 39.5t93 9.5q140 0 227 -74t87 -229q0 -47 -4.5 -82t-12.5 -67h-192v43q0 104 -28.5 162.5t-84.5 58.5q-61 0 -93 -67.5t-32 -245.5v-391q0 -180 28.5 -254t102.5 -74q38 0 72.5 40.5t34.5 149.5v60h205v-63
q0 -196 -84 -285.5t-256 -89.5q-174 0 -265.5 136t-91.5 443zM582 13l7 -117q6 -107 -18.5 -170t-63.5 -94.5t-78.5 -41t-63.5 -9.5q-41 0 -75.5 7t-75.5 23l7 151q8 -1 16.5 -1h16.5q68 0 108.5 33.5t45.5 149.5l3 69h171z" />
    <glyph glyph-name="ccircumflex" unicode="&#x109;" horiz-adv-x="863" 
d="M95 564v260q0 158 26.5 262t69.5 166t95 92t103 39.5t93 9.5q140 0 227 -74t87 -229q0 -47 -4.5 -82t-12.5 -67h-192v43q0 104 -28.5 162.5t-84.5 58.5q-61 0 -93 -67.5t-32 -245.5v-391q0 -180 28.5 -254t102.5 -74q38 0 72.5 40.5t34.5 149.5v60h205v-63
q0 -196 -84 -285.5t-256 -89.5q-174 0 -265.5 136t-91.5 443zM516 1996l276 -491h-219l-88 192l-51 132l-50 -132l-94 -192h-218l270 491h174z" />
    <glyph glyph-name="cdotaccent" unicode="&#x10b;" horiz-adv-x="863" 
d="M95 564v260q0 158 26.5 262t69.5 166t95 92t103 39.5t93 9.5q140 0 227 -74t87 -229q0 -47 -4.5 -82t-12.5 -67h-192v43q0 104 -28.5 162.5t-84.5 58.5q-61 0 -93 -67.5t-32 -245.5v-391q0 -180 28.5 -254t102.5 -74q38 0 72.5 40.5t34.5 149.5v60h205v-63
q0 -196 -84 -285.5t-256 -89.5q-174 0 -265.5 136t-91.5 443zM430 1538q-70 0 -112.5 44t-42.5 124q0 89 42.5 126t113.5 37q74 0 115.5 -40t41.5 -123q0 -78 -42 -123t-116 -45z" />
    <glyph glyph-name="d" unicode="d" horiz-adv-x="985" 
d="M95 481v437q0 139 23 228t59.5 139.5t78 73t79.5 28t62 5.5q75 0 130 -36.5t83 -78.5l1 1l-8 174v367h252v-1819h-197l-22 128q-33 -55 -91 -99.5t-154 -44.5q-35 0 -84.5 13t-98 60.5t-81 148t-32.5 275.5zM603 289v797q-19 41 -50.5 71t-76.5 30q-37 0 -65.5 -19.5
t-45 -73t-16.5 -156.5v-497q0 -102 16.5 -156.5t45.5 -74.5t66 -20q50 0 80 30.5t46 68.5z" />
    <glyph glyph-name="eth" unicode="&#xf0;" horiz-adv-x="963" 
d="M487 -15q-66 0 -135.5 18.5t-128 78.5t-95 183t-36.5 332v198q0 164 26 272.5t67.5 172.5t89.5 95.5t93 41t77 9.5q52 0 70 -5.5t36 -13.5q-41 159 -126 266l-104 -124l-127 106l103 128q-83 48 -179 50v166q81 0 154 -20t137 -56l111 137l132 -116l-106 -127
q107 -107 179 -262t109 -341t37 -385v-192q0 -206 -37 -328.5t-95.5 -183.5t-125 -80.5t-126.5 -19.5zM489 149q74 0 95 75.5t21 264.5v392q0 189 -21 266t-95 77q-77 0 -100 -77t-23 -266v-392q0 -189 23 -264.5t100 -75.5z" />
    <glyph glyph-name="dcaron" unicode="&#x10f;" horiz-adv-x="1167" 
d="M95 481v437q0 139 23 228t59.5 139.5t78 73t79.5 28t62 5.5q75 0 130 -36.5t83 -78.5l1 1l-8 174v367h252v-1819h-197l-22 128q-33 -55 -91 -99.5t-154 -44.5q-35 0 -84.5 13t-98 60.5t-81 148t-32.5 275.5zM603 289v797q-19 41 -50.5 71t-76.5 30q-37 0 -65.5 -19.5
t-45 -73t-16.5 -156.5v-497q0 -102 16.5 -156.5t45.5 -74.5t66 -20q50 0 80 30.5t46 68.5zM920 1820h237l-46 -373h-211z" />
    <glyph glyph-name="uni1E13" unicode="&#x1e13;" horiz-adv-x="985" 
d="M95 481v437q0 139 23 228t59.5 139.5t78 73t79.5 28t62 5.5q75 0 130 -36.5t83 -78.5l1 1l-8 174v367h252v-1819h-197l-22 128q-33 -55 -91 -99.5t-154 -44.5q-35 0 -84.5 13t-98 60.5t-81 148t-32.5 275.5zM603 289v797q-19 41 -50.5 71t-76.5 30q-37 0 -65.5 -19.5
t-45 -73t-16.5 -156.5v-497q0 -102 16.5 -156.5t45.5 -74.5t66 -20q50 0 80 30.5t46 68.5zM577 -65l276 -401h-219l-88 152l-51 82l-50 -82l-94 -152h-218l270 401h174z" />
    <glyph glyph-name="dcroat" unicode="&#x111;" horiz-adv-x="985" 
d="M411 1682h192v137h252v-137h131v-183h-131v-1499h-197l-22 128q-33 -55 -91 -99.5t-154 -44.5q-35 0 -84.5 13t-98 60.5t-81 148t-32.5 275.5v437q0 139 23 228t59.5 139.5t78 73t79.5 28t62 5.5q75 0 130 -36.5t83 -78.5l1 1l-8 174v47h-192v183zM477 190q50 0 80 30.5
t46 68.5v797q-19 41 -50.5 71t-76.5 30q-37 0 -65.5 -19.5t-45 -73t-16.5 -156.5v-497q0 -102 16.5 -156.5t45.5 -74.5t66 -20z" />
    <glyph glyph-name="uni1E0D" unicode="&#x1e0d;" horiz-adv-x="985" 
d="M95 481v437q0 139 23 228t59.5 139.5t78 73t79.5 28t62 5.5q75 0 130 -36.5t83 -78.5l1 1l-8 174v367h252v-1819h-197l-22 128q-33 -55 -91 -99.5t-154 -44.5q-35 0 -84.5 13t-98 60.5t-81 148t-32.5 275.5zM603 289v797q-19 41 -50.5 71t-76.5 30q-37 0 -65.5 -19.5
t-45 -73t-16.5 -156.5v-497q0 -102 16.5 -156.5t45.5 -74.5t66 -20q50 0 80 30.5t46 68.5zM337 -257q0 89 42.5 126t113.5 37q74 0 115.5 -40t41.5 -123q0 -78 -42 -123t-116 -45q-70 0 -112.5 44t-42.5 124z" />
    <glyph glyph-name="dmacronbelow" unicode="&#x1e0f;" horiz-adv-x="985" 
d="M95 481v437q0 139 23 228t59.5 139.5t78 73t79.5 28t62 5.5q75 0 130 -36.5t83 -78.5l1 1l-8 174v367h252v-1819h-197l-22 128q-33 -55 -91 -99.5t-154 -44.5q-35 0 -84.5 13t-98 60.5t-81 148t-32.5 275.5zM603 289v797q-19 41 -50.5 71t-76.5 30q-37 0 -65.5 -19.5
t-45 -73t-16.5 -156.5v-497q0 -102 16.5 -156.5t45.5 -74.5t66 -20q50 0 80 30.5t46 68.5zM181 -156h623v-193h-623v193z" />
    <glyph glyph-name="e" unicode="e" horiz-adv-x="914" 
d="M95 564v260q0 158 27 262t71.5 166t98 92t106.5 39.5t97 9.5q91 0 168 -38.5t123.5 -132t46.5 -259.5q0 -83 -9 -169.5t-24 -152.5h-451v-140q0 -180 30.5 -254t116.5 -74q47 0 85 40.5t38 149.5v60h208v-63q0 -196 -93.5 -285.5t-270.5 -89.5q-178 0 -273 136t-95 443z
M597 811q2 22 3 66.5t1 71.5q0 137 -29 196t-92 60q-67 0 -99 -67.5t-32 -245.5v-81h248z" />
    <glyph glyph-name="eacute" unicode="&#xe9;" horiz-adv-x="914" 
d="M95 564v260q0 158 27 262t71.5 166t98 92t106.5 39.5t97 9.5q91 0 168 -38.5t123.5 -132t46.5 -259.5q0 -83 -9 -169.5t-24 -152.5h-451v-140q0 -180 30.5 -254t116.5 -74q47 0 85 40.5t38 149.5v60h208v-63q0 -196 -93.5 -285.5t-270.5 -89.5q-178 0 -273 136t-95 443z
M597 811q2 22 3 66.5t1 71.5q0 137 -29 196t-92 60q-67 0 -99 -67.5t-32 -245.5v-81h248zM307 1567l290 416l169 -137l-334 -384z" />
    <glyph glyph-name="ebreve" unicode="&#x115;" horiz-adv-x="914" 
d="M95 564v260q0 158 27 262t71.5 166t98 92t106.5 39.5t97 9.5q91 0 168 -38.5t123.5 -132t46.5 -259.5q0 -83 -9 -169.5t-24 -152.5h-451v-140q0 -180 30.5 -254t116.5 -74q47 0 85 40.5t38 149.5v60h208v-63q0 -196 -93.5 -285.5t-270.5 -89.5q-178 0 -273 136t-95 443z
M597 811q2 22 3 66.5t1 71.5q0 137 -29 196t-92 60q-67 0 -99 -67.5t-32 -245.5v-81h248zM452 1504q-106 0 -176 44t-104 114t-34 148q0 34 6 67h178q-7 -16 -8.5 -34t-1.5 -37q0 -52 34.5 -95.5t104.5 -43.5q80 0 119 44.5t39 94.5v37t-8 34h169q6 -33 6 -67
q0 -74 -35.5 -144.5t-107.5 -116t-181 -45.5z" />
    <glyph glyph-name="ecaron" unicode="&#x11b;" horiz-adv-x="914" 
d="M95 564v260q0 158 27 262t71.5 166t98 92t106.5 39.5t97 9.5q91 0 168 -38.5t123.5 -132t46.5 -259.5q0 -83 -9 -169.5t-24 -152.5h-451v-140q0 -180 30.5 -254t116.5 -74q47 0 85 40.5t38 149.5v60h208v-63q0 -196 -93.5 -285.5t-270.5 -89.5q-178 0 -273 136t-95 443z
M597 811q2 22 3 66.5t1 71.5q0 137 -29 196t-92 60q-67 0 -99 -67.5t-32 -245.5v-81h248zM367 1505l-270 491h218l94 -192l50 -132l51 132l88 192h219l-276 -491h-174z" />
    <glyph glyph-name="uni0229" unicode="&#x229;" horiz-adv-x="914" 
d="M95 564v260q0 158 27 262t71.5 166t98 92t106.5 39.5t97 9.5q91 0 168 -38.5t123.5 -132t46.5 -259.5q0 -83 -9 -169.5t-24 -152.5h-451v-140q0 -180 30.5 -254t116.5 -74q47 0 85 40.5t38 149.5v60h208v-63q0 -196 -93.5 -285.5t-270.5 -89.5q-178 0 -273 136t-95 443z
M597 811q2 22 3 66.5t1 71.5q0 137 -29 196t-92 60q-67 0 -99 -67.5t-32 -245.5v-81h248zM607 13l7 -117q6 -107 -18.5 -170t-63.5 -94.5t-78.5 -41t-63.5 -9.5q-41 0 -75.5 7t-75.5 23l7 151q8 -1 16.5 -1h16.5q68 0 108.5 33.5t45.5 149.5l3 69h171z" />
    <glyph glyph-name="ecircumflex" unicode="&#xea;" horiz-adv-x="914" 
d="M95 564v260q0 158 27 262t71.5 166t98 92t106.5 39.5t97 9.5q91 0 168 -38.5t123.5 -132t46.5 -259.5q0 -83 -9 -169.5t-24 -152.5h-451v-140q0 -180 30.5 -254t116.5 -74q47 0 85 40.5t38 149.5v60h208v-63q0 -196 -93.5 -285.5t-270.5 -89.5q-178 0 -273 136t-95 443z
M597 811q2 22 3 66.5t1 71.5q0 137 -29 196t-92 60q-67 0 -99 -67.5t-32 -245.5v-81h248zM541 1996l276 -491h-219l-88 192l-51 132l-50 -132l-94 -192h-218l270 491h174z" />
    <glyph glyph-name="uni1EBF" unicode="&#x1ebf;" horiz-adv-x="914" 
d="M95 564v260q0 158 27 262t71.5 166t98 92t106.5 39.5t97 9.5q91 0 168 -38.5t123.5 -132t46.5 -259.5q0 -83 -9 -169.5t-24 -152.5h-451v-140q0 -180 30.5 -254t116.5 -74q47 0 85 40.5t38 149.5v60h208v-63q0 -196 -93.5 -285.5t-270.5 -89.5q-178 0 -273 136t-95 443z
M597 811q2 22 3 66.5t1 71.5q0 137 -29 196t-92 60q-67 0 -99 -67.5t-32 -245.5v-81h248zM640 1966l261 375l152 -124l-300 -345zM533 1947l248 -442h-197l-79 173l-46 119l-45 -119l-85 -173h-196l243 442h157z" />
    <glyph glyph-name="uni1EC7" unicode="&#x1ec7;" horiz-adv-x="914" 
d="M95 564v260q0 158 27 262t71.5 166t98 92t106.5 39.5t97 9.5q91 0 168 -38.5t123.5 -132t46.5 -259.5q0 -83 -9 -169.5t-24 -152.5h-451v-140q0 -180 30.5 -254t116.5 -74q47 0 85 40.5t38 149.5v60h208v-63q0 -196 -93.5 -285.5t-270.5 -89.5q-178 0 -273 136t-95 443z
M597 811q2 22 3 66.5t1 71.5q0 137 -29 196t-92 60q-67 0 -99 -67.5t-32 -245.5v-81h248zM301 -257q0 89 42.5 126t113.5 37q74 0 115.5 -40t41.5 -123q0 -78 -42 -123t-116 -45q-70 0 -112.5 44t-42.5 124zM541 1996l276 -491h-219l-88 192l-51 132l-50 -132l-94 -192h-218
l270 491h174z" />
    <glyph glyph-name="uni1EC1" unicode="&#x1ec1;" horiz-adv-x="914" 
d="M95 564v260q0 158 27 262t71.5 166t98 92t106.5 39.5t97 9.5q91 0 168 -38.5t123.5 -132t46.5 -259.5q0 -83 -9 -169.5t-24 -152.5h-451v-140q0 -180 30.5 -254t116.5 -74q47 0 85 40.5t38 149.5v60h208v-63q0 -196 -93.5 -285.5t-270.5 -89.5q-178 0 -273 136t-95 443z
M597 811q2 22 3 66.5t1 71.5q0 137 -29 196t-92 60q-67 0 -99 -67.5t-32 -245.5v-81h248zM840 1966l-113 -94l-300 345l152 124zM533 1947l248 -442h-197l-79 173l-46 119l-45 -119l-85 -173h-196l243 442h157z" />
    <glyph glyph-name="uni1EC3" unicode="&#x1ec3;" horiz-adv-x="914" 
d="M95 564v260q0 158 27 262t71.5 166t98 92t106.5 39.5t97 9.5q91 0 168 -38.5t123.5 -132t46.5 -259.5q0 -83 -9 -169.5t-24 -152.5h-451v-140q0 -180 30.5 -254t116.5 -74q47 0 85 40.5t38 149.5v60h208v-63q0 -196 -93.5 -285.5t-270.5 -89.5q-178 0 -273 136t-95 443z
M597 811q2 22 3 66.5t1 71.5q0 137 -29 196t-92 60q-67 0 -99 -67.5t-32 -245.5v-81h248zM711 1787v104q47 0 72 19.5t25 48.5q0 42 -48.5 72t-131.5 37l33 122q138 -14 218.5 -81t80.5 -155q0 -145 -249 -167zM533 1947l248 -442h-197l-79 173l-46 119l-45 -119l-85 -173
h-196l243 442h157z" />
    <glyph glyph-name="uni1EC5" unicode="&#x1ec5;" horiz-adv-x="914" 
d="M95 564v260q0 158 27 262t71.5 166t98 92t106.5 39.5t97 9.5q91 0 168 -38.5t123.5 -132t46.5 -259.5q0 -83 -9 -169.5t-24 -152.5h-451v-140q0 -180 30.5 -254t116.5 -74q47 0 85 40.5t38 149.5v60h208v-63q0 -196 -93.5 -285.5t-270.5 -89.5q-178 0 -273 136t-95 443z
M597 811q2 22 3 66.5t1 71.5q0 137 -29 196t-92 60q-67 0 -99 -67.5t-32 -245.5v-81h248zM400 2047q-39 35 -56.5 52.5t-42.5 17.5q-35 0 -35 -52v-58h-144q-1 9 -2 33.5t-1 32.5q0 114 53.5 152t125.5 38q47 0 80.5 -15.5t65.5 -46.5q21 -20 49 -45.5t53 -25.5q40 0 40 48
v70h129q5 -28 7 -45t2 -32q0 -93 -51.5 -140t-116.5 -47q-50 0 -86 16t-70 47zM497 1917l248 -412h-197l-79 153l-46 119l-45 -119l-85 -153h-196l243 412h157z" />
    <glyph glyph-name="edieresis" unicode="&#xeb;" horiz-adv-x="914" 
d="M95 564v260q0 158 27 262t71.5 166t98 92t106.5 39.5t97 9.5q91 0 168 -38.5t123.5 -132t46.5 -259.5q0 -83 -9 -169.5t-24 -152.5h-451v-140q0 -180 30.5 -254t116.5 -74q47 0 85 40.5t38 149.5v60h208v-63q0 -196 -93.5 -285.5t-270.5 -89.5q-178 0 -273 136t-95 443z
M597 811q2 22 3 66.5t1 71.5q0 137 -29 196t-92 60q-67 0 -99 -67.5t-32 -245.5v-81h248zM234 1510q-78 0 -107.5 42.5t-29.5 122.5q0 86 29 130t108 44q82 0 113.5 -43t31.5 -131q0 -77 -31.5 -121t-113.5 -44zM671 1510q-78 0 -107 42.5t-29 122.5q0 86 28.5 130t107.5 44
q82 0 114 -43t32 -131q0 -77 -32 -121t-114 -44z" />
    <glyph glyph-name="edotaccent" unicode="&#x117;" horiz-adv-x="914" 
d="M95 564v260q0 158 27 262t71.5 166t98 92t106.5 39.5t97 9.5q91 0 168 -38.5t123.5 -132t46.5 -259.5q0 -83 -9 -169.5t-24 -152.5h-451v-140q0 -180 30.5 -254t116.5 -74q47 0 85 40.5t38 149.5v60h208v-63q0 -196 -93.5 -285.5t-270.5 -89.5q-178 0 -273 136t-95 443z
M597 811q2 22 3 66.5t1 71.5q0 137 -29 196t-92 60q-67 0 -99 -67.5t-32 -245.5v-81h248zM455 1538q-70 0 -112.5 44t-42.5 124q0 89 42.5 126t113.5 37q74 0 115.5 -40t41.5 -123q0 -78 -42 -123t-116 -45z" />
    <glyph glyph-name="uni1EB9" unicode="&#x1eb9;" horiz-adv-x="914" 
d="M95 564v260q0 158 27 262t71.5 166t98 92t106.5 39.5t97 9.5q91 0 168 -38.5t123.5 -132t46.5 -259.5q0 -83 -9 -169.5t-24 -152.5h-451v-140q0 -180 30.5 -254t116.5 -74q47 0 85 40.5t38 149.5v60h208v-63q0 -196 -93.5 -285.5t-270.5 -89.5q-178 0 -273 136t-95 443z
M597 811q2 22 3 66.5t1 71.5q0 137 -29 196t-92 60q-67 0 -99 -67.5t-32 -245.5v-81h248zM301 -257q0 89 42.5 126t113.5 37q74 0 115.5 -40t41.5 -123q0 -78 -42 -123t-116 -45q-70 0 -112.5 44t-42.5 124z" />
    <glyph glyph-name="egrave" unicode="&#xe8;" horiz-adv-x="914" 
d="M95 564v260q0 158 27 262t71.5 166t98 92t106.5 39.5t97 9.5q91 0 168 -38.5t123.5 -132t46.5 -259.5q0 -83 -9 -169.5t-24 -152.5h-451v-140q0 -180 30.5 -254t116.5 -74q47 0 85 40.5t38 149.5v60h208v-63q0 -196 -93.5 -285.5t-270.5 -89.5q-178 0 -273 136t-95 443z
M597 811q2 22 3 66.5t1 71.5q0 137 -29 196t-92 60q-67 0 -99 -67.5t-32 -245.5v-81h248zM157 1846l169 137l290 -416l-125 -105z" />
    <glyph glyph-name="uni1EBB" unicode="&#x1ebb;" horiz-adv-x="914" 
d="M95 564v260q0 158 27 262t71.5 166t98 92t106.5 39.5t97 9.5q91 0 168 -38.5t123.5 -132t46.5 -259.5q0 -83 -9 -169.5t-24 -152.5h-451v-140q0 -180 30.5 -254t116.5 -74q47 0 85 40.5t38 149.5v60h208v-63q0 -196 -93.5 -285.5t-270.5 -89.5q-178 0 -273 136t-95 443z
M597 811q2 22 3 66.5t1 71.5q0 137 -29 196t-92 60q-67 0 -99 -67.5t-32 -245.5v-81h248zM365 1488v116q53 0 80.5 21.5t27.5 53.5q0 47 -54 80t-146 41l36 136q154 -16 243 -90t89 -172q0 -81 -67 -127t-209 -59z" />
    <glyph glyph-name="emacron" unicode="&#x113;" horiz-adv-x="914" 
d="M95 564v260q0 158 27 262t71.5 166t98 92t106.5 39.5t97 9.5q91 0 168 -38.5t123.5 -132t46.5 -259.5q0 -83 -9 -169.5t-24 -152.5h-451v-140q0 -180 30.5 -254t116.5 -74q47 0 85 40.5t38 149.5v60h208v-63q0 -196 -93.5 -285.5t-270.5 -89.5q-178 0 -273 136t-95 443z
M597 811q2 22 3 66.5t1 71.5q0 137 -29 196t-92 60q-67 0 -99 -67.5t-32 -245.5v-81h248zM145 1746h623v-193h-623v193z" />
    <glyph glyph-name="eogonek" unicode="&#x119;" horiz-adv-x="914" 
d="M95 564v260q0 158 27 262t71.5 166t98 92t106.5 39.5t97 9.5q91 0 168 -38.5t123.5 -132t46.5 -259.5q0 -83 -9 -169.5t-24 -152.5h-451v-140q0 -180 30.5 -254t116.5 -74q47 0 85 40.5t38 149.5v60h208v-63q0 -196 -93.5 -285.5t-270.5 -89.5q-178 0 -273 136t-95 443z
M597 811q2 22 3 66.5t1 71.5q0 137 -29 196t-92 60q-67 0 -99 -67.5t-32 -245.5v-81h248zM496 14l105 -13q-60 -67 -65 -121t25 -86t75 -32h16.5t16.5 1l7 -151q-41 -16 -75.5 -23t-75.5 -7q-31 0 -79.5 17t-86 65.5t-37.5 142.5q0 78 34.5 128.5t50.5 65.5z" />
    <glyph glyph-name="uni025B" unicode="&#x25b;" horiz-adv-x="1025" 
d="M893 444q13 -44 19 -85.5t6 -75.5q0 -139 -103 -215t-299 -76q-115 0 -211.5 32t-155 106.5t-58.5 200.5v90q0 135 67.5 200t167.5 92v7q-51 20 -99.5 55t-79.5 90t-31 133v84q0 145 96.5 224t314.5 79q135 0 222.5 -43.5t130 -110.5t42.5 -136q0 -44 -8 -84t-19 -80
h-200v66q0 108 -44 166.5t-124 58.5q-144 0 -144 -147v-132q0 -85 43.5 -120.5t107.5 -35.5h109v-148h-109q-100 0 -138 -47t-38 -134v-146q0 -86 42 -122t116 -36q75 0 125 49t50 177v64h202z" />
    <glyph glyph-name="uni0258" unicode="&#x258;" horiz-adv-x="914" 
d="M819 564q0 -307 -95 -443t-273 -136q-177 0 -270.5 89.5t-93.5 285.5v63h208v-60q0 -109 38.5 -149.5t84.5 -40.5q86 0 116.5 74t30.5 254v140h-451q-15 66 -24 152.5t-9 169.5q0 166 46.5 259.5t123.5 132t168 38.5q44 0 97 -9.5t106.5 -39.5t98 -92t71.5 -166t27 -262
v-260zM317 811h248v81q0 178 -32 245.5t-99 67.5q-63 -1 -92 -60t-29 -196q0 -27 1 -71.5t3 -66.5z" />
    <glyph glyph-name="uni0283" unicode="&#x283;" horiz-adv-x="606" 
d="M148 0v1476q0 150 41 227.5t109.5 105t152.5 27.5q37 0 85.5 -8.5t82.5 -25.5v-178q-42 11 -94 11q-49 0 -86.5 -34.5t-37.5 -124.5v-1476q0 -149 -40.5 -227t-109.5 -105.5t-153 -27.5q-37 0 -85 8.5t-83 25.5v178q42 -11 94 -11q50 0 87 34.5t37 124.5z" />
    <glyph glyph-name="uni1EBD" unicode="&#x1ebd;" horiz-adv-x="914" 
d="M95 564v260q0 158 27 262t71.5 166t98 92t106.5 39.5t97 9.5q91 0 168 -38.5t123.5 -132t46.5 -259.5q0 -83 -9 -169.5t-24 -152.5h-451v-140q0 -180 30.5 -254t116.5 -74q47 0 85 40.5t38 149.5v60h208v-63q0 -196 -93.5 -285.5t-270.5 -89.5q-178 0 -273 136t-95 443z
M597 811q2 22 3 66.5t1 71.5q0 137 -29 196t-92 60q-67 0 -99 -67.5t-32 -245.5v-81h248zM622 1497q-61 0 -105.5 20t-86.5 58q-48 42 -69.5 64t-52.5 22q-43 0 -43 -64v-72h-178q-1 11 -2.5 41.5t-1.5 40.5q0 94 30.5 144.5t81 70.5t109.5 20t99.5 -19.5t80.5 -57.5
q26 -25 60.5 -56.5t65.5 -31.5q50 0 50 59v87h159q11 -65 11 -95q0 -115 -63.5 -173t-144.5 -58z" />
    <glyph glyph-name="uni01DD" unicode="&#x1dd;" horiz-adv-x="914" 
d="M833 813v-260q0 -158 -27 -262t-71.5 -166t-98 -92t-106.5 -39.5t-97 -9.5q-91 0 -168 38.5t-123.5 132t-46.5 259.5q0 83 9 169.5t24 152.5h451v140q0 180 -30.5 254t-116.5 74q-46 0 -84.5 -40.5t-38.5 -149.5v-60h-208v63q0 196 93.5 285.5t270.5 89.5
q178 0 273 -135.5t95 -443.5zM331 566q-2 -22 -3 -66.5t-1 -71.5q0 -136 29 -195.5t92 -60.5q67 0 99 67.5t32 245.5v81h-248z" />
    <glyph glyph-name="uni0259" unicode="&#x259;" horiz-adv-x="914" 
d="M833 813v-260q0 -158 -27 -262t-71.5 -166t-98 -92t-106.5 -39.5t-97 -9.5q-91 0 -168 38.5t-123.5 132t-46.5 259.5q0 83 9 169.5t24 152.5h451v140q0 180 -30.5 254t-116.5 74q-46 0 -84.5 -40.5t-38.5 -149.5v-60h-208v63q0 196 93.5 285.5t270.5 89.5
q178 0 273 -135.5t95 -443.5zM331 566q-2 -22 -3 -66.5t-1 -71.5q0 -136 29 -195.5t92 -60.5q67 0 99 67.5t32 245.5v81h-248z" />
    <glyph glyph-name="uni0292" unicode="&#x292;" horiz-adv-x="847" 
d="M407 -192q-169 0 -261 86t-92 242q0 39 5.5 86t16.5 96h183v-72q0 -145 44 -200t104 -55t96.5 40.5t36.5 138.5v164q0 98 -29.5 151t-119.5 53h-99v167l183 480h-390v192h662v-126l-215 -567q60 -29 117.5 -91t95 -141t37.5 -159v-103q0 -142 -52.5 -225.5t-138 -120
t-184.5 -36.5z" />
    <glyph glyph-name="uni01EF" unicode="&#x1ef;" horiz-adv-x="847" 
d="M407 -192q-169 0 -261 86t-92 242q0 39 5.5 86t16.5 96h183v-72q0 -145 44 -200t104 -55t96.5 40.5t36.5 138.5v164q0 98 -29.5 151t-119.5 53h-99v167l183 480h-390v192h662v-126l-215 -567q60 -29 117.5 -91t95 -141t37.5 -159v-103q0 -142 -52.5 -225.5t-138 -120
t-184.5 -36.5zM325 1505l-270 491h218l94 -192l50 -132l51 132l88 192h219l-276 -491h-174z" />
    <glyph glyph-name="f" unicode="f" horiz-adv-x="606" 
d="M148 1185h-115v192h115v99q0 150 41 227.5t109.5 105t152.5 27.5q37 0 85.5 -8.5t82.5 -25.5v-178q-42 11 -94 11q-49 0 -86.5 -34.5t-37.5 -124.5v-99h201v-192h-201v-1185h-253v1185z" />
    <glyph glyph-name="g" unicode="g" horiz-adv-x="984" 
d="M333 -94q0 -88 33.5 -125.5t101.5 -37.5q38 0 70.5 16.5t52.5 60.5t20 128v217q-34 -43 -87 -75t-133 -32q-35 0 -84.5 13t-98 60.5t-81 148.5t-32.5 276v362q0 168 32.5 264t81 141t100 57t88.5 12q101 0 155.5 -47.5t82.5 -102.5l23 136h197v-1322q0 -230 -91 -365.5
t-293 -135.5q-91 0 -166 22.5t-119.5 81.5t-44.5 167q0 34 13 80h179zM477 264q50 0 80 31t46 69v722q-19 41 -50.5 71t-76.5 30q-37 0 -65.5 -19.5t-45 -73t-16.5 -156.5v-422q0 -102 16.5 -156.5t45.5 -75t66 -20.5z" />
    <glyph glyph-name="gbreve" unicode="&#x11f;" horiz-adv-x="984" 
d="M333 -94q0 -88 33.5 -125.5t101.5 -37.5q38 0 70.5 16.5t52.5 60.5t20 128v217q-34 -43 -87 -75t-133 -32q-35 0 -84.5 13t-98 60.5t-81 148.5t-32.5 276v362q0 168 32.5 264t81 141t100 57t88.5 12q101 0 155.5 -47.5t82.5 -102.5l23 136h197v-1322q0 -230 -91 -365.5
t-293 -135.5q-91 0 -166 22.5t-119.5 81.5t-44.5 167q0 34 13 80h179zM477 264q50 0 80 31t46 69v722q-19 41 -50.5 71t-76.5 30q-37 0 -65.5 -19.5t-45 -73t-16.5 -156.5v-422q0 -102 16.5 -156.5t45.5 -75t66 -20.5zM487 1504q-106 0 -176 44t-104 114t-34 148q0 34 6 67
h178q-7 -16 -8.5 -34t-1.5 -37q0 -52 34.5 -95.5t104.5 -43.5q80 0 119 44.5t39 94.5v37t-8 34h169q6 -33 6 -67q0 -74 -35.5 -144.5t-107.5 -116t-181 -45.5z" />
    <glyph glyph-name="gcaron" unicode="&#x1e7;" horiz-adv-x="984" 
d="M333 -94q0 -88 33.5 -125.5t101.5 -37.5q38 0 70.5 16.5t52.5 60.5t20 128v217q-34 -43 -87 -75t-133 -32q-35 0 -84.5 13t-98 60.5t-81 148.5t-32.5 276v362q0 168 32.5 264t81 141t100 57t88.5 12q101 0 155.5 -47.5t82.5 -102.5l23 136h197v-1322q0 -230 -91 -365.5
t-293 -135.5q-91 0 -166 22.5t-119.5 81.5t-44.5 167q0 34 13 80h179zM477 264q50 0 80 31t46 69v722q-19 41 -50.5 71t-76.5 30q-37 0 -65.5 -19.5t-45 -73t-16.5 -156.5v-422q0 -102 16.5 -156.5t45.5 -75t66 -20.5zM402 1505l-270 491h218l94 -192l50 -132l51 132l88 192
h219l-276 -491h-174z" />
    <glyph glyph-name="gcircumflex" unicode="&#x11d;" horiz-adv-x="984" 
d="M333 -94q0 -88 33.5 -125.5t101.5 -37.5q38 0 70.5 16.5t52.5 60.5t20 128v217q-34 -43 -87 -75t-133 -32q-35 0 -84.5 13t-98 60.5t-81 148.5t-32.5 276v362q0 168 32.5 264t81 141t100 57t88.5 12q101 0 155.5 -47.5t82.5 -102.5l23 136h197v-1322q0 -230 -91 -365.5
t-293 -135.5q-91 0 -166 22.5t-119.5 81.5t-44.5 167q0 34 13 80h179zM477 264q50 0 80 31t46 69v722q-19 41 -50.5 71t-76.5 30q-37 0 -65.5 -19.5t-45 -73t-16.5 -156.5v-422q0 -102 16.5 -156.5t45.5 -75t66 -20.5zM576 1996l276 -491h-219l-88 192l-51 132l-50 -132
l-94 -192h-218l270 491h174z" />
    <glyph glyph-name="uni0123" unicode="&#x123;" horiz-adv-x="984" 
d="M333 -94q0 -88 33.5 -125.5t101.5 -37.5q38 0 70.5 16.5t52.5 60.5t20 128v217q-34 -43 -87 -75t-133 -32q-35 0 -84.5 13t-98 60.5t-81 148.5t-32.5 276v362q0 168 32.5 264t81 141t100 57t88.5 12q101 0 155.5 -47.5t82.5 -102.5l23 136h197v-1322q0 -230 -91 -365.5
t-293 -135.5q-91 0 -166 22.5t-119.5 81.5t-44.5 167q0 34 13 80h179zM477 264q50 0 80 31t46 69v722q-19 41 -50.5 71t-76.5 30q-37 0 -65.5 -19.5t-45 -73t-16.5 -156.5v-422q0 -102 16.5 -156.5t45.5 -75t66 -20.5zM340 1573l108 434h195l-62 -434h-241z" />
    <glyph glyph-name="gdotaccent" unicode="&#x121;" horiz-adv-x="984" 
d="M333 -94q0 -88 33.5 -125.5t101.5 -37.5q38 0 70.5 16.5t52.5 60.5t20 128v217q-34 -43 -87 -75t-133 -32q-35 0 -84.5 13t-98 60.5t-81 148.5t-32.5 276v362q0 168 32.5 264t81 141t100 57t88.5 12q101 0 155.5 -47.5t82.5 -102.5l23 136h197v-1322q0 -230 -91 -365.5
t-293 -135.5q-91 0 -166 22.5t-119.5 81.5t-44.5 167q0 34 13 80h179zM477 264q50 0 80 31t46 69v722q-19 41 -50.5 71t-76.5 30q-37 0 -65.5 -19.5t-45 -73t-16.5 -156.5v-422q0 -102 16.5 -156.5t45.5 -75t66 -20.5zM490 1538q-70 0 -112.5 44t-42.5 124q0 89 42.5 126
t113.5 37q74 0 115.5 -40t41.5 -123q0 -78 -42 -123t-116 -45z" />
    <glyph glyph-name="uni1E21" unicode="&#x1e21;" horiz-adv-x="984" 
d="M333 -94q0 -88 33.5 -125.5t101.5 -37.5q38 0 70.5 16.5t52.5 60.5t20 128v217q-34 -43 -87 -75t-133 -32q-35 0 -84.5 13t-98 60.5t-81 148.5t-32.5 276v362q0 168 32.5 264t81 141t100 57t88.5 12q101 0 155.5 -47.5t82.5 -102.5l23 136h197v-1322q0 -230 -91 -365.5
t-293 -135.5q-91 0 -166 22.5t-119.5 81.5t-44.5 167q0 34 13 80h179zM477 264q50 0 80 31t46 69v722q-19 41 -50.5 71t-76.5 30q-37 0 -65.5 -19.5t-45 -73t-16.5 -156.5v-422q0 -102 16.5 -156.5t45.5 -75t66 -20.5zM180 1746h623v-193h-623v193z" />
    <glyph glyph-name="uni0261" unicode="&#x261;" horiz-adv-x="984" 
d="M333 -94q0 -88 33.5 -125.5t101.5 -37.5q38 0 70.5 16.5t52.5 60.5t20 128v217q-34 -43 -87 -75t-133 -32q-35 0 -84.5 13t-98 60.5t-81 148.5t-32.5 276v362q0 168 32.5 262t81 135.5t100 51.5t88.5 10h458v-1321q0 -230 -91 -365.5t-293 -135.5q-91 0 -166 22.5
t-119.5 81.5t-44.5 167q0 34 13 80h179zM603 364v823h-127q-37 0 -65.5 -19.5t-45 -73t-16.5 -156.5v-422q0 -102 16.5 -156.5t45.5 -75t66 -20.5q50 0 80 31t46 69z" />
    <glyph glyph-name="uni01E5" unicode="&#x1e5;" horiz-adv-x="1016" 
d="M386 -93v190h225v188q-34 -43 -87 -75t-133 -32q-35 0 -84.5 13t-98 60.5t-81 148.5t-32.5 276v242q0 168 32.5 264t81 141t100 57t88.5 12q101 0 155.5 -47.5t82.5 -102.5l23 136h197v-1281h132v-190h-135q-16 -193 -107.5 -304t-273.5 -111q-91 0 -166 21.5t-119.5 74
t-44.5 145.5q0 34 13 80h179q0 -133 135 -133q38 0 70.5 16.5t52.5 60.5t20 128v22h-225zM477 384q50 0 80 31t46 69v602q-19 41 -50.5 71t-76.5 30q-37 0 -65.5 -19.5t-45 -73t-16.5 -156.5v-302q0 -102 16.5 -156.5t45.5 -75t66 -20.5z" />
    <glyph glyph-name="h" unicode="h" horiz-adv-x="1012" 
d="M128 1819h253v-324l-13 -236q56 77 125 105.5t139 28.5q120 0 186 -85t66 -253v-1055h-253v1025q0 91 -28 126.5t-82 35.5q-38 0 -74.5 -26t-65.5 -70v-1091h-253v1819z" />
    <glyph glyph-name="hbar" unicode="&#x127;" horiz-adv-x="1011" 
d="M128 1505h-124v171h124v134h253v-134h221v-171h-221v-17l-13 -235q56 77 125 105t139 28q120 0 186 -84.5t66 -251.5v-1050h-253v1008q0 90 -28 125.5t-82 35.5q-79 0 -140 -83v-1086h-253v1505z" />
    <glyph glyph-name="uni1E2B" unicode="&#x1e2b;" horiz-adv-x="1012" 
d="M128 1819h253v-324l-13 -236q56 77 125 105.5t139 28.5q120 0 186 -85t66 -253v-1055h-253v1025q0 91 -28 126.5t-82 35.5q-38 0 -74.5 -26t-65.5 -70v-1091h-253v1819zM501 -444q-106 0 -176 44t-104 114t-34 148q0 34 6 67h178q-7 -16 -8.5 -34t-1.5 -37
q0 -52 34.5 -95.5t104.5 -43.5q80 0 119 44.5t39 94.5v37t-8 34h169q6 -33 6 -67q0 -74 -35.5 -144.5t-107.5 -116t-181 -45.5z" />
    <glyph glyph-name="hcircumflex" unicode="&#x125;" horiz-adv-x="1012" 
d="M128 1819h253v-324l-13 -236q56 77 125 105.5t139 28.5q120 0 186 -85t66 -253v-1055h-253v1025q0 91 -28 126.5t-82 35.5q-38 0 -74.5 -26t-65.5 -70v-1091h-253v1819zM303 2047l-40 56l-40 -56l-84 -130h-248l250 310h234l246 -310h-249z" />
    <glyph glyph-name="uni1E25" unicode="&#x1e25;" horiz-adv-x="1012" 
d="M128 1819h253v-324l-13 -236q56 77 125 105.5t139 28.5q120 0 186 -85t66 -253v-1055h-253v1025q0 91 -28 126.5t-82 35.5q-38 0 -74.5 -26t-65.5 -70v-1091h-253v1819zM350 -257q0 89 42.5 126t113.5 37q74 0 115.5 -40t41.5 -123q0 -78 -42 -123t-116 -45
q-70 0 -112.5 44t-42.5 124z" />
    <glyph glyph-name="hmacronbelow" unicode="&#x1e96;" horiz-adv-x="1012" 
d="M128 1819h253v-324l-13 -236q56 77 125 105.5t139 28.5q120 0 186 -85t66 -253v-1055h-253v1025q0 91 -28 126.5t-82 35.5q-38 0 -74.5 -26t-65.5 -70v-1091h-253v1819zM194 -156h623v-193h-623v193z" />
    <glyph glyph-name="i" unicode="i" horiz-adv-x="511" 
d="M254 1568q-70 0 -112.5 44t-42.5 124q0 89 42.5 126t113.5 37q74 0 115.5 -40t41.5 -123q0 -78 -42 -123t-116 -45zM129 1377h253v-1377h-253v1377z" />
    <glyph glyph-name="dotlessi" unicode="&#x131;" horiz-adv-x="511" 
d="M129 1377h253v-1377h-253v1377z" />
    <glyph glyph-name="iacute" unicode="&#xed;" horiz-adv-x="511" 
d="M129 1377h253v-1377h-253v1377zM106 1567l290 416l169 -137l-334 -384z" />
    <glyph glyph-name="ibreve" unicode="&#x12d;" horiz-adv-x="511" 
d="M129 1377h253v-1377h-253v1377zM251 1504q-106 0 -176 44t-104 114t-34 148q0 34 6 67h178q-7 -16 -8.5 -34t-1.5 -37q0 -52 34.5 -95.5t104.5 -43.5q80 0 119 44.5t39 94.5v37t-8 34h169q6 -33 6 -67q0 -74 -35.5 -144.5t-107.5 -116t-181 -45.5z" />
    <glyph glyph-name="uni01D0" unicode="&#x1d0;" horiz-adv-x="511" 
d="M129 1377h253v-1377h-253v1377zM166 1505l-270 491h218l94 -192l50 -132l51 132l88 192h219l-276 -491h-174z" />
    <glyph glyph-name="icircumflex" unicode="&#xee;" horiz-adv-x="511" 
d="M129 1377h253v-1377h-253v1377zM340 1996l276 -491h-219l-88 192l-51 132l-50 -132l-94 -192h-218l270 491h174z" />
    <glyph glyph-name="idieresis" unicode="&#xef;" horiz-adv-x="511" 
d="M129 1377h253v-1377h-253v1377zM33 1510q-78 0 -107.5 42.5t-29.5 122.5q0 86 29 130t108 44q82 0 113.5 -43t31.5 -131q0 -77 -31.5 -121t-113.5 -44zM470 1510q-78 0 -107 42.5t-29 122.5q0 86 28.5 130t107.5 44q82 0 114 -43t32 -131q0 -77 -32 -121t-114 -44z" />
    <glyph glyph-name="uni1E2F" unicode="&#x1e2f;" horiz-adv-x="511" 
d="M129 1377h253v-1377h-253v1377zM33 1510q-78 0 -107.5 42.5t-29.5 122.5q0 86 29 130t108 44q82 0 113.5 -43t31.5 -131q0 -77 -31.5 -121t-113.5 -44zM470 1510q-78 0 -107 42.5t-29 122.5q0 86 28.5 130t107.5 44q82 0 114 -43t32 -131q0 -77 -32 -121t-114 -44z
M106 1969l290 416l169 -137l-334 -384z" />
    <glyph glyph-name="i.loclTRK" horiz-adv-x="511" 
d="M129 1377h253v-1377h-253v1377zM254 1538q-70 0 -112.5 44t-42.5 124q0 89 42.5 126t113.5 37q74 0 115.5 -40t41.5 -123q0 -78 -42 -123t-116 -45z" />
    <glyph glyph-name="uni1ECB" unicode="&#x1ecb;" horiz-adv-x="511" 
d="M254 1568q-70 0 -112.5 44t-42.5 124q0 89 42.5 126t113.5 37q74 0 115.5 -40t41.5 -123q0 -78 -42 -123t-116 -45zM129 1377h253v-1377h-253v1377zM100 -257q0 89 42.5 126t113.5 37q74 0 115.5 -40t41.5 -123q0 -78 -42 -123t-116 -45q-70 0 -112.5 44t-42.5 124z" />
    <glyph glyph-name="igrave" unicode="&#xec;" horiz-adv-x="511" 
d="M129 1377h253v-1377h-253v1377zM-44 1846l169 137l290 -416l-125 -105z" />
    <glyph glyph-name="uni1EC9" unicode="&#x1ec9;" horiz-adv-x="511" 
d="M129 1377h253v-1377h-253v1377zM164 1488v116q53 0 80.5 21.5t27.5 53.5q0 47 -54 80t-146 41l36 136q154 -16 243 -90t89 -172q0 -81 -67 -127t-209 -59z" />
    <glyph glyph-name="ij" unicode="&#x133;" horiz-adv-x="1024" 
d="M254 1568q-70 0 -112.5 44t-42.5 124q0 89 42.5 126t113.5 37q74 0 115.5 -40t41.5 -123q0 -78 -42 -123t-116 -45zM129 1377h253v-1377h-253v1377zM767 1568q-70 0 -112.5 44t-42.5 124q0 89 42.5 126t113.5 37q74 0 115.5 -40t41.5 -123q0 -78 -42 -123t-116 -45z
M642 1377h253v-1461q0 -150 -38.5 -227.5t-100.5 -105t-133 -27.5q-30 0 -61 5.5t-61 18.5v147q8 -1 16 -1.5t16 -0.5q44 0 76.5 34.5t32.5 124.5v1493z" />
    <glyph glyph-name="imacron" unicode="&#x12b;" horiz-adv-x="511" 
d="M129 1377h253v-1377h-253v1377zM-56 1746h623v-193h-623v193z" />
    <glyph glyph-name="iogonek" unicode="&#x12f;" horiz-adv-x="511" 
d="M129 1377h253v-1377h-253v1377zM254 1538q-70 0 -112.5 44t-42.5 124q0 89 42.5 126t113.5 37q74 0 115.5 -40t41.5 -123q0 -78 -42 -123t-116 -45zM277 12l105 -13q-60 -67 -65 -121t25 -86t75 -32h16.5t16.5 1l7 -151q-41 -16 -75.5 -23t-75.5 -7q-31 0 -79.5 17
t-86 65.5t-37.5 142.5q0 78 34.5 128.5t50.5 65.5z" />
    <glyph glyph-name="uni0268" unicode="&#x268;" horiz-adv-x="620" 
d="M182 1377h253v-1377h-253v1377zM307 1538q-70 0 -112.5 44t-42.5 124q0 89 42.5 126t113.5 37q74 0 115.5 -40t41.5 -123q0 -78 -42 -123t-116 -45zM10 779v190h600v-190h-600z" />
    <glyph glyph-name="itilde" unicode="&#x129;" horiz-adv-x="511" 
d="M129 1377h253v-1377h-253v1377zM421 1497q-61 0 -105.5 20t-86.5 58q-48 42 -69.5 64t-52.5 22q-43 0 -43 -64v-72h-178q-1 11 -2.5 41.5t-1.5 40.5q0 94 30.5 144.5t81 70.5t109.5 20t99.5 -19.5t80.5 -57.5q26 -25 60.5 -56.5t65.5 -31.5q50 0 50 59v87h159
q11 -65 11 -95q0 -115 -63.5 -173t-144.5 -58z" />
    <glyph glyph-name="j" unicode="j" horiz-adv-x="511" 
d="M254 1568q-70 0 -112.5 44t-42.5 124q0 89 42.5 126t113.5 37q74 0 115.5 -40t41.5 -123q0 -78 -42 -123t-116 -45zM129 1377h253v-1461q0 -150 -38.5 -227.5t-100.5 -105t-133 -27.5q-30 0 -61 5.5t-61 18.5v147q8 -1 16 -1.5t16 -0.5q44 0 76.5 34.5t32.5 124.5v1493z
" />
    <glyph glyph-name="uni0237" unicode="&#x237;" horiz-adv-x="511" 
d="M129 1377h253v-1461q0 -150 -38.5 -227.5t-100.5 -105t-133 -27.5q-30 0 -61 5.5t-61 18.5v147q8 -1 16 -1.5t16 -0.5q44 0 76.5 34.5t32.5 124.5v1493z" />
    <glyph glyph-name="uni006A0301" horiz-adv-x="511" 
d="M129 1377h253v-1461q0 -150 -38.5 -227.5t-100.5 -105t-133 -27.5q-30 0 -61 5.5t-61 18.5v147q8 -1 16 -1.5t16 -0.5q44 0 76.5 34.5t32.5 124.5v1493zM106 1567l290 416l169 -137l-334 -384z" />
    <glyph glyph-name="jcircumflex" unicode="&#x135;" horiz-adv-x="511" 
d="M129 1377h253v-1461q0 -150 -38.5 -227.5t-100.5 -105t-133 -27.5q-30 0 -61 5.5t-61 18.5v147q8 -1 16 -1.5t16 -0.5q44 0 76.5 34.5t32.5 124.5v1493zM340 1996l276 -491h-219l-88 192l-51 132l-50 -132l-94 -192h-218l270 491h174z" />
    <glyph glyph-name="k" unicode="k" horiz-adv-x="949" 
d="M129 1819h253v-1047h8l276 605h243l-295 -618l324 -759h-256l-292 683h-8v-683h-253v1819z" />
    <glyph glyph-name="uni01E9" unicode="&#x1e9;" horiz-adv-x="949" 
d="M129 1819h253v-1047h8l276 605h243l-295 -618l324 -759h-256l-292 683h-8v-683h-253v1819zM165 1946l-270 491h218l94 -192l50 -132l51 132l88 192h219l-276 -491h-174z" />
    <glyph glyph-name="uni0137" unicode="&#x137;" horiz-adv-x="949" 
d="M129 1819h253v-1047h8l276 605h243l-295 -618l324 -759h-256l-292 683h-8v-683h-253v1819zM596 -97l-108 -434h-195l62 434h241z" />
    <glyph glyph-name="kgreenlandic" unicode="&#x138;" horiz-adv-x="949" 
d="M129 1370h253v-643h8l276 643h243l-295 -656l324 -714h-256l-292 639h-8v-639h-253v1370z" />
    <glyph glyph-name="kmacronbelow" unicode="&#x1e35;" horiz-adv-x="949" 
d="M129 1819h253v-1047h8l276 605h243l-295 -618l324 -759h-256l-292 683h-8v-683h-253v1819zM163 -156h623v-193h-623v193z" />
    <glyph glyph-name="l" unicode="l" horiz-adv-x="511" 
d="M129 1819h253v-1819h-253v1819z" />
    <glyph glyph-name="lacute" unicode="&#x13a;" horiz-adv-x="511" 
d="M129 1819h253v-1819h-253v1819zM106 2286l290 416l169 -137l-334 -384z" />
    <glyph glyph-name="lcaron" unicode="&#x13e;" horiz-adv-x="511" 
d="M129 1819h253v-1819h-253v1819zM511 2539h237l-46 -373h-211z" />
    <glyph glyph-name="uni1E3D" unicode="&#x1e3d;" horiz-adv-x="511" 
d="M129 1819h253v-1819h-253v1819zM340 -65l276 -401h-219l-88 152l-51 82l-50 -82l-94 -152h-218l270 401h174z" />
    <glyph glyph-name="uni013C" unicode="&#x13c;" horiz-adv-x="511" 
d="M129 1819h253v-1819h-253v1819zM377 -97l-108 -434h-195l62 434h241z" />
    <glyph glyph-name="ldot" unicode="&#x140;" horiz-adv-x="757" 
d="M129 1810h253v-1810h-253v1810zM614 712q-61 0 -100 46.5t-39 131.5q0 95 38.5 133.5t101.5 38.5q132 0 132 -172q0 -82 -34 -130t-99 -48z" />
    <glyph glyph-name="uni1E37" unicode="&#x1e37;" horiz-adv-x="511" 
d="M129 1819h253v-1819h-253v1819zM100 -257q0 89 42.5 126t113.5 37q74 0 115.5 -40t41.5 -123q0 -78 -42 -123t-116 -45q-70 0 -112.5 44t-42.5 124z" />
    <glyph glyph-name="uni1E39" unicode="&#x1e39;" horiz-adv-x="511" 
d="M129 1819h253v-1819h-253v1819zM100 -257q0 89 42.5 126t113.5 37q74 0 115.5 -40t41.5 -123q0 -78 -42 -123t-116 -45q-70 0 -112.5 44t-42.5 124zM-56 2465h623v-193h-623v193z" />
    <glyph glyph-name="lmacronbelow" unicode="&#x1e3b;" horiz-adv-x="511" 
d="M129 1819h253v-1819h-253v1819zM-56 -156h623v-193h-623v193z" />
    <glyph glyph-name="lslash" unicode="&#x142;" horiz-adv-x="608" 
d="M-60 830l228 216v764h252v-542l130 123l118 -122l-248 -235v-1034h-252v813l-110 -104z" />
    <glyph glyph-name="m" unicode="m" horiz-adv-x="1514" 
d="M129 1377h194l24 -147v-1q59 95 134.5 129.5t151.5 34.5q165 0 222 -156q59 89 132.5 122.5t148.5 33.5q119 0 185 -85t66 -253v-1055h-253v1025q0 91 -27.5 126.5t-89.5 35.5q-34 0 -69.5 -26t-64.5 -70q1 -9 1 -18v-18v-1055h-253v1025q0 91 -27.5 126.5t-89.5 35.5
q-34 0 -69 -25t-63 -69v-1093h-253v1377z" />
    <glyph glyph-name="uni1E3F" unicode="&#x1e3f;" horiz-adv-x="1514" 
d="M129 1377h194l24 -147v-1q59 95 134.5 129.5t151.5 34.5q165 0 222 -156q59 89 132.5 122.5t148.5 33.5q119 0 185 -85t66 -253v-1055h-253v1025q0 91 -27.5 126.5t-89.5 35.5q-34 0 -69.5 -26t-64.5 -70q1 -9 1 -18v-18v-1055h-253v1025q0 91 -27.5 126.5t-89.5 35.5
q-34 0 -69 -25t-63 -69v-1093h-253v1377zM607 1567l290 416l169 -137l-334 -384z" />
    <glyph glyph-name="uni1E41" unicode="&#x1e41;" horiz-adv-x="1514" 
d="M129 1377h194l24 -147v-1q59 95 134.5 129.5t151.5 34.5q165 0 222 -156q59 89 132.5 122.5t148.5 33.5q119 0 185 -85t66 -253v-1055h-253v1025q0 91 -27.5 126.5t-89.5 35.5q-34 0 -69.5 -26t-64.5 -70q1 -9 1 -18v-18v-1055h-253v1025q0 91 -27.5 126.5t-89.5 35.5
q-34 0 -69 -25t-63 -69v-1093h-253v1377zM755 1538q-70 0 -112.5 44t-42.5 124q0 89 42.5 126t113.5 37q74 0 115.5 -40t41.5 -123q0 -78 -42 -123t-116 -45z" />
    <glyph glyph-name="uni1E43" unicode="&#x1e43;" horiz-adv-x="1514" 
d="M129 1377h194l24 -147v-1q59 95 134.5 129.5t151.5 34.5q165 0 222 -156q59 89 132.5 122.5t148.5 33.5q119 0 185 -85t66 -253v-1055h-253v1025q0 91 -27.5 126.5t-89.5 35.5q-34 0 -69.5 -26t-64.5 -70q1 -9 1 -18v-18v-1055h-253v1025q0 91 -27.5 126.5t-89.5 35.5
q-34 0 -69 -25t-63 -69v-1093h-253v1377zM601 -257q0 89 42.5 126t113.5 37q74 0 115.5 -40t41.5 -123q0 -78 -42 -123t-116 -45q-70 0 -112.5 44t-42.5 124z" />
    <glyph glyph-name="uni026F" unicode="&#x26f;" horiz-adv-x="1514" 
d="M1385 0h-194l-24 147v1q-59 -94 -134 -129t-152 -35q-165 0 -222 156q-59 -89 -132.5 -122.5t-148.5 -33.5q-119 0 -185 85t-66 253v1055h253v-1025q0 -91 28 -126.5t89 -35.5q35 0 70.5 26t63.5 70q-1 9 -1 18v18v1055h253v-1025q0 -91 28 -126.5t89 -35.5q34 0 69 25.5
t63 68.5v1093h253v-1377z" />
    <glyph glyph-name="n" unicode="n" horiz-adv-x="1011" 
d="M129 1377h193l25 -147v-1q59 95 134 129.5t151 34.5q120 0 186 -85t66 -253v-1055h-253v1025q0 91 -28 126.5t-82 35.5q-38 0 -74 -25t-65 -69v-1093h-253v1377z" />
    <glyph glyph-name="nacute" unicode="&#x144;" horiz-adv-x="1011" 
d="M129 1377h193l25 -147v-1q59 95 134 129.5t151 34.5q120 0 186 -85t66 -253v-1055h-253v1025q0 91 -28 126.5t-82 35.5q-38 0 -74 -25t-65 -69v-1093h-253v1377zM356 1567l290 416l169 -137l-334 -384z" />
    <glyph glyph-name="ncaron" unicode="&#x148;" horiz-adv-x="1011" 
d="M129 1377h193l25 -147v-1q59 95 134 129.5t151 34.5q120 0 186 -85t66 -253v-1055h-253v1025q0 91 -28 126.5t-82 35.5q-38 0 -74 -25t-65 -69v-1093h-253v1377zM416 1505l-270 491h218l94 -192l50 -132l51 132l88 192h219l-276 -491h-174z" />
    <glyph glyph-name="uni1E4B" unicode="&#x1e4b;" horiz-adv-x="1011" 
d="M129 1377h193l25 -147v-1q59 95 134 129.5t151 34.5q120 0 186 -85t66 -253v-1055h-253v1025q0 91 -28 126.5t-82 35.5q-38 0 -74 -25t-65 -69v-1093h-253v1377zM590 -65l276 -401h-219l-88 152l-51 82l-50 -82l-94 -152h-218l270 401h174z" />
    <glyph glyph-name="uni0146" unicode="&#x146;" horiz-adv-x="1011" 
d="M129 1377h193l25 -147v-1q59 95 134 129.5t151 34.5q120 0 186 -85t66 -253v-1055h-253v1025q0 91 -28 126.5t-82 35.5q-38 0 -74 -25t-65 -69v-1093h-253v1377zM627 -97l-108 -434h-195l62 434h241z" />
    <glyph glyph-name="uni1E45" unicode="&#x1e45;" horiz-adv-x="1011" 
d="M129 1377h193l25 -147v-1q59 95 134 129.5t151 34.5q120 0 186 -85t66 -253v-1055h-253v1025q0 91 -28 126.5t-82 35.5q-38 0 -74 -25t-65 -69v-1093h-253v1377zM504 1538q-70 0 -112.5 44t-42.5 124q0 89 42.5 126t113.5 37q74 0 115.5 -40t41.5 -123q0 -78 -42 -123
t-116 -45z" />
    <glyph glyph-name="uni1E47" unicode="&#x1e47;" horiz-adv-x="1011" 
d="M129 1377h193l25 -147v-1q59 95 134 129.5t151 34.5q120 0 186 -85t66 -253v-1055h-253v1025q0 91 -28 126.5t-82 35.5q-38 0 -74 -25t-65 -69v-1093h-253v1377zM350 -257q0 89 42.5 126t113.5 37q74 0 115.5 -40t41.5 -123q0 -78 -42 -123t-116 -45q-70 0 -112.5 44
t-42.5 124z" />
    <glyph glyph-name="uni0272" unicode="&#x272;" horiz-adv-x="1011" 
d="M109 -444q-30 0 -61 5.5t-61 18.5v147q8 -1 16 -1.5t16 -0.5q44 0 77 34.5t33 124.5v1493h193l25 -147v-1q59 95 134 129.5t151 34.5q120 0 186 -85t66 -253v-1055h-253v1025q0 91 -28 126.5t-82 35.5q-38 0 -74 -25t-65 -69v-1177q0 -150 -33.5 -227.5t-95 -105
t-144.5 -27.5z" />
    <glyph glyph-name="nmacronbelow" unicode="&#x1e49;" horiz-adv-x="1011" 
d="M129 1377h193l25 -147v-1q59 95 134 129.5t151 34.5q120 0 186 -85t66 -253v-1055h-253v1025q0 91 -28 126.5t-82 35.5q-38 0 -74 -25t-65 -69v-1093h-253v1377zM194 -156h623v-193h-623v193z" />
    <glyph glyph-name="ntilde" unicode="&#xf1;" horiz-adv-x="1011" 
d="M129 1377h193l25 -147v-1q59 95 134 129.5t151 34.5q120 0 186 -85t66 -253v-1055h-253v1025q0 91 -28 126.5t-82 35.5q-38 0 -74 -25t-65 -69v-1093h-253v1377zM671 1497q-61 0 -105.5 20t-86.5 58q-48 42 -69.5 64t-52.5 22q-43 0 -43 -64v-72h-178q-1 11 -2.5 41.5
t-1.5 40.5q0 94 30.5 144.5t81 70.5t109.5 20t99.5 -19.5t80.5 -57.5q26 -25 60.5 -56.5t65.5 -31.5q50 0 50 59v87h159q11 -65 11 -95q0 -115 -63.5 -173t-144.5 -58z" />
    <glyph glyph-name="eng" unicode="&#x14b;" horiz-adv-x="1011" 
d="M611 -444q-30 0 -61 5.5t-61 18.5v147q8 -1 16 -1.5t16 -0.5q44 0 77 34.5t33 124.5v1141q0 91 -28 126.5t-82 35.5q-38 0 -74 -25t-65 -69v-1093h-253v1377h193l25 -147v-1q59 95 134 129.5t151 34.5q120 0 186 -85t66 -253v-1139q0 -150 -33.5 -227.5t-95 -105
t-144.5 -27.5z" />
    <glyph glyph-name="o" unicode="o" horiz-adv-x="948" 
d="M476 -15q-66 0 -133 19.5t-123.5 79.5t-90.5 181.5t-34 325.5v216q0 201 35 318.5t92 175t124 75t131 17.5q62 0 128 -16.5t122 -73t91 -175t35 -321.5v-216q0 -201 -36 -321.5t-93 -182t-122.5 -82t-125.5 -20.5zM478 173q68 0 94.5 75t26.5 268v343q0 194 -26.5 270
t-94.5 76q-71 0 -100 -76t-29 -270v-343q0 -193 29 -268t100 -75z" />
    <glyph glyph-name="oacute" unicode="&#xf3;" horiz-adv-x="948" 
d="M476 -15q-66 0 -133 19.5t-123.5 79.5t-90.5 181.5t-34 325.5v216q0 201 35 318.5t92 175t124 75t131 17.5q62 0 128 -16.5t122 -73t91 -175t35 -321.5v-216q0 -201 -36 -321.5t-93 -182t-122.5 -82t-125.5 -20.5zM478 173q68 0 94.5 75t26.5 268v343q0 194 -26.5 270
t-94.5 76q-71 0 -100 -76t-29 -270v-343q0 -193 29 -268t100 -75zM324 1567l290 416l169 -137l-334 -384z" />
    <glyph glyph-name="uni0275" unicode="&#x275;" horiz-adv-x="948" 
d="M476 -15q-66 0 -133 19.5t-123.5 79.5t-90.5 181.5t-34 325.5v216q0 201 35 318.5t92 175t124 75t131 17.5q62 0 128 -16.5t122 -73t91 -175t35 -321.5v-216q0 -201 -36 -321.5t-93 -182t-122.5 -82t-125.5 -20.5zM478 173q68 0 94.5 75t26.5 268v343q0 194 -26.5 270
t-94.5 76q-71 0 -100 -76t-29 -270v-343q0 -193 29 -268t100 -75zM174 592v190h600v-190h-600z" />
    <glyph glyph-name="obreve" unicode="&#x14f;" horiz-adv-x="948" 
d="M476 -15q-66 0 -133 19.5t-123.5 79.5t-90.5 181.5t-34 325.5v216q0 201 35 318.5t92 175t124 75t131 17.5q62 0 128 -16.5t122 -73t91 -175t35 -321.5v-216q0 -201 -36 -321.5t-93 -182t-122.5 -82t-125.5 -20.5zM478 173q68 0 94.5 75t26.5 268v343q0 194 -26.5 270
t-94.5 76q-71 0 -100 -76t-29 -270v-343q0 -193 29 -268t100 -75zM469 1504q-106 0 -176 44t-104 114t-34 148q0 34 6 67h178q-7 -16 -8.5 -34t-1.5 -37q0 -52 34.5 -95.5t104.5 -43.5q80 0 119 44.5t39 94.5v37t-8 34h169q6 -33 6 -67q0 -74 -35.5 -144.5t-107.5 -116
t-181 -45.5z" />
    <glyph glyph-name="uni01D2" unicode="&#x1d2;" horiz-adv-x="948" 
d="M476 -15q-66 0 -133 19.5t-123.5 79.5t-90.5 181.5t-34 325.5v216q0 201 35 318.5t92 175t124 75t131 17.5q62 0 128 -16.5t122 -73t91 -175t35 -321.5v-216q0 -201 -36 -321.5t-93 -182t-122.5 -82t-125.5 -20.5zM478 173q68 0 94.5 75t26.5 268v343q0 194 -26.5 270
t-94.5 76q-71 0 -100 -76t-29 -270v-343q0 -193 29 -268t100 -75zM384 1505l-270 491h218l94 -192l50 -132l51 132l88 192h219l-276 -491h-174z" />
    <glyph glyph-name="ocircumflex" unicode="&#xf4;" horiz-adv-x="948" 
d="M476 -15q-66 0 -133 19.5t-123.5 79.5t-90.5 181.5t-34 325.5v216q0 201 35 318.5t92 175t124 75t131 17.5q62 0 128 -16.5t122 -73t91 -175t35 -321.5v-216q0 -201 -36 -321.5t-93 -182t-122.5 -82t-125.5 -20.5zM478 173q68 0 94.5 75t26.5 268v343q0 194 -26.5 270
t-94.5 76q-71 0 -100 -76t-29 -270v-343q0 -193 29 -268t100 -75zM558 1996l276 -491h-219l-88 192l-51 132l-50 -132l-94 -192h-218l270 491h174z" />
    <glyph glyph-name="uni1ED1" unicode="&#x1ed1;" horiz-adv-x="948" 
d="M476 -15q-66 0 -133 19.5t-123.5 79.5t-90.5 181.5t-34 325.5v216q0 201 35 318.5t92 175t124 75t131 17.5q62 0 128 -16.5t122 -73t91 -175t35 -321.5v-216q0 -201 -36 -321.5t-93 -182t-122.5 -82t-125.5 -20.5zM478 173q68 0 94.5 75t26.5 268v343q0 194 -26.5 270
t-94.5 76q-71 0 -100 -76t-29 -270v-343q0 -193 29 -268t100 -75zM657 1966l261 375l152 -124l-300 -345zM550 1947l248 -442h-197l-79 173l-46 119l-45 -119l-85 -173h-196l243 442h157z" />
    <glyph glyph-name="uni1ED9" unicode="&#x1ed9;" horiz-adv-x="948" 
d="M476 -15q-66 0 -133 19.5t-123.5 79.5t-90.5 181.5t-34 325.5v216q0 201 35 318.5t92 175t124 75t131 17.5q62 0 128 -16.5t122 -73t91 -175t35 -321.5v-216q0 -201 -36 -321.5t-93 -182t-122.5 -82t-125.5 -20.5zM478 173q68 0 94.5 75t26.5 268v343q0 194 -26.5 270
t-94.5 76q-71 0 -100 -76t-29 -270v-343q0 -193 29 -268t100 -75zM318 -257q0 89 42.5 126t113.5 37q74 0 115.5 -40t41.5 -123q0 -78 -42 -123t-116 -45q-70 0 -112.5 44t-42.5 124zM558 1996l276 -491h-219l-88 192l-51 132l-50 -132l-94 -192h-218l270 491h174z" />
    <glyph glyph-name="uni1ED3" unicode="&#x1ed3;" horiz-adv-x="948" 
d="M476 -15q-66 0 -133 19.5t-123.5 79.5t-90.5 181.5t-34 325.5v216q0 201 35 318.5t92 175t124 75t131 17.5q62 0 128 -16.5t122 -73t91 -175t35 -321.5v-216q0 -201 -36 -321.5t-93 -182t-122.5 -82t-125.5 -20.5zM478 173q68 0 94.5 75t26.5 268v343q0 194 -26.5 270
t-94.5 76q-71 0 -100 -76t-29 -270v-343q0 -193 29 -268t100 -75zM857 1966l-113 -94l-300 345l152 124zM550 1947l248 -442h-197l-79 173l-46 119l-45 -119l-85 -173h-196l243 442h157z" />
    <glyph glyph-name="uni1ED5" unicode="&#x1ed5;" horiz-adv-x="948" 
d="M476 -15q-66 0 -133 19.5t-123.5 79.5t-90.5 181.5t-34 325.5v216q0 201 35 318.5t92 175t124 75t131 17.5q62 0 128 -16.5t122 -73t91 -175t35 -321.5v-216q0 -201 -36 -321.5t-93 -182t-122.5 -82t-125.5 -20.5zM478 173q68 0 94.5 75t26.5 268v343q0 194 -26.5 270
t-94.5 76q-71 0 -100 -76t-29 -270v-343q0 -193 29 -268t100 -75zM728 1787v104q47 0 72 19.5t25 48.5q0 42 -48.5 72t-131.5 37l33 122q138 -14 218.5 -81t80.5 -155q0 -145 -249 -167zM550 1947l248 -442h-197l-79 173l-46 119l-45 -119l-85 -173h-196l243 442h157z" />
    <glyph glyph-name="uni1ED7" unicode="&#x1ed7;" horiz-adv-x="948" 
d="M476 -15q-66 0 -133 19.5t-123.5 79.5t-90.5 181.5t-34 325.5v216q0 201 35 318.5t92 175t124 75t131 17.5q62 0 128 -16.5t122 -73t91 -175t35 -321.5v-216q0 -201 -36 -321.5t-93 -182t-122.5 -82t-125.5 -20.5zM478 173q68 0 94.5 75t26.5 268v343q0 194 -26.5 270
t-94.5 76q-71 0 -100 -76t-29 -270v-343q0 -193 29 -268t100 -75zM417 2047q-39 35 -56.5 52.5t-42.5 17.5q-35 0 -35 -52v-58h-144q-1 9 -2 33.5t-1 32.5q0 114 53.5 152t125.5 38q47 0 80.5 -15.5t65.5 -46.5q21 -20 49 -45.5t53 -25.5q40 0 40 48v70h129q5 -28 7 -45
t2 -32q0 -93 -51.5 -140t-116.5 -47q-50 0 -86 16t-70 47zM514 1917l248 -412h-197l-79 153l-46 119l-45 -119l-85 -153h-196l243 412h157z" />
    <glyph glyph-name="odieresis" unicode="&#xf6;" horiz-adv-x="948" 
d="M476 -15q-66 0 -133 19.5t-123.5 79.5t-90.5 181.5t-34 325.5v216q0 201 35 318.5t92 175t124 75t131 17.5q62 0 128 -16.5t122 -73t91 -175t35 -321.5v-216q0 -201 -36 -321.5t-93 -182t-122.5 -82t-125.5 -20.5zM478 173q68 0 94.5 75t26.5 268v343q0 194 -26.5 270
t-94.5 76q-71 0 -100 -76t-29 -270v-343q0 -193 29 -268t100 -75zM251 1510q-78 0 -107.5 42.5t-29.5 122.5q0 86 29 130t108 44q82 0 113.5 -43t31.5 -131q0 -77 -31.5 -121t-113.5 -44zM688 1510q-78 0 -107 42.5t-29 122.5q0 86 28.5 130t107.5 44q82 0 114 -43t32 -131
q0 -77 -32 -121t-114 -44z" />
    <glyph glyph-name="uni022B" unicode="&#x22b;" horiz-adv-x="948" 
d="M476 -15q-66 0 -133 19.5t-123.5 79.5t-90.5 181.5t-34 325.5v216q0 201 35 318.5t92 175t124 75t131 17.5q62 0 128 -16.5t122 -73t91 -175t35 -321.5v-216q0 -201 -36 -321.5t-93 -182t-122.5 -82t-125.5 -20.5zM478 173q68 0 94.5 75t26.5 268v343q0 194 -26.5 270
t-94.5 76q-71 0 -100 -76t-29 -270v-343q0 -193 29 -268t100 -75zM251 1510q-78 0 -107.5 42.5t-29.5 122.5q0 86 29 130t108 44q82 0 113.5 -43t31.5 -131q0 -77 -31.5 -121t-113.5 -44zM688 1510q-78 0 -107 42.5t-29 122.5q0 86 28.5 130t107.5 44q82 0 114 -43t32 -131
q0 -77 -32 -121t-114 -44zM162 2148h623v-193h-623v193z" />
    <glyph glyph-name="uni1ECD" unicode="&#x1ecd;" horiz-adv-x="948" 
d="M476 -15q-66 0 -133 19.5t-123.5 79.5t-90.5 181.5t-34 325.5v216q0 201 35 318.5t92 175t124 75t131 17.5q62 0 128 -16.5t122 -73t91 -175t35 -321.5v-216q0 -201 -36 -321.5t-93 -182t-122.5 -82t-125.5 -20.5zM478 173q68 0 94.5 75t26.5 268v343q0 194 -26.5 270
t-94.5 76q-71 0 -100 -76t-29 -270v-343q0 -193 29 -268t100 -75zM318 -257q0 89 42.5 126t113.5 37q74 0 115.5 -40t41.5 -123q0 -78 -42 -123t-116 -45q-70 0 -112.5 44t-42.5 124z" />
    <glyph glyph-name="ograve" unicode="&#xf2;" horiz-adv-x="948" 
d="M476 -15q-66 0 -133 19.5t-123.5 79.5t-90.5 181.5t-34 325.5v216q0 201 35 318.5t92 175t124 75t131 17.5q62 0 128 -16.5t122 -73t91 -175t35 -321.5v-216q0 -201 -36 -321.5t-93 -182t-122.5 -82t-125.5 -20.5zM478 173q68 0 94.5 75t26.5 268v343q0 194 -26.5 270
t-94.5 76q-71 0 -100 -76t-29 -270v-343q0 -193 29 -268t100 -75zM174 1846l169 137l290 -416l-125 -105z" />
    <glyph glyph-name="uni1ECF" unicode="&#x1ecf;" horiz-adv-x="948" 
d="M476 -15q-66 0 -133 19.5t-123.5 79.5t-90.5 181.5t-34 325.5v216q0 201 35 318.5t92 175t124 75t131 17.5q62 0 128 -16.5t122 -73t91 -175t35 -321.5v-216q0 -201 -36 -321.5t-93 -182t-122.5 -82t-125.5 -20.5zM478 173q68 0 94.5 75t26.5 268v343q0 194 -26.5 270
t-94.5 76q-71 0 -100 -76t-29 -270v-343q0 -193 29 -268t100 -75zM382 1488v116q53 0 80.5 21.5t27.5 53.5q0 47 -54 80t-146 41l36 136q154 -16 243 -90t89 -172q0 -81 -67 -127t-209 -59z" />
    <glyph glyph-name="ohorn" unicode="&#x1a1;" horiz-adv-x="948" 
d="M476 -15q-66 0 -133 19.5t-123.5 79.5t-90.5 181.5t-34 325.5v216q0 201 35 318.5t92 175t124 75t131 17.5q62 0 128 -16.5t122 -73t91 -175t35 -321.5v-216q0 -201 -36 -321.5t-93 -182t-122.5 -82t-125.5 -20.5zM478 173q68 0 94.5 75t26.5 268v343q0 194 -26.5 270
t-94.5 76q-71 0 -100 -76t-29 -270v-343q0 -193 29 -268t100 -75zM664 1258l-84 119h83q97 0 136 50t39 135q0 20 -8.5 53.5t-25.5 67.5h192q15 -44 17 -84t2 -58q0 -113 -52.5 -174.5t-133 -85t-165.5 -23.5z" />
    <glyph glyph-name="uni1EDB" unicode="&#x1edb;" horiz-adv-x="948" 
d="M476 -15q-66 0 -133 19.5t-123.5 79.5t-90.5 181.5t-34 325.5v216q0 201 35 318.5t92 175t124 75t131 17.5q62 0 128 -16.5t122 -73t91 -175t35 -321.5v-216q0 -201 -36 -321.5t-93 -182t-122.5 -82t-125.5 -20.5zM478 173q68 0 94.5 75t26.5 268v343q0 194 -26.5 270
t-94.5 76q-71 0 -100 -76t-29 -270v-343q0 -193 29 -268t100 -75zM664 1258l-84 119h83q97 0 136 50t39 135q0 20 -8.5 53.5t-25.5 67.5h192q15 -44 17 -84t2 -58q0 -113 -52.5 -174.5t-133 -85t-165.5 -23.5zM324 1567l290 416l169 -137l-334 -384z" />
    <glyph glyph-name="uni1EE3" unicode="&#x1ee3;" horiz-adv-x="948" 
d="M476 -15q-66 0 -133 19.5t-123.5 79.5t-90.5 181.5t-34 325.5v216q0 201 35 318.5t92 175t124 75t131 17.5q62 0 128 -16.5t122 -73t91 -175t35 -321.5v-216q0 -201 -36 -321.5t-93 -182t-122.5 -82t-125.5 -20.5zM478 173q68 0 94.5 75t26.5 268v343q0 194 -26.5 270
t-94.5 76q-71 0 -100 -76t-29 -270v-343q0 -193 29 -268t100 -75zM664 1258l-84 119h83q97 0 136 50t39 135q0 20 -8.5 53.5t-25.5 67.5h192q15 -44 17 -84t2 -58q0 -113 -52.5 -174.5t-133 -85t-165.5 -23.5zM318 -257q0 89 42.5 126t113.5 37q74 0 115.5 -40t41.5 -123
q0 -78 -42 -123t-116 -45q-70 0 -112.5 44t-42.5 124z" />
    <glyph glyph-name="uni1EDD" unicode="&#x1edd;" horiz-adv-x="948" 
d="M476 -15q-66 0 -133 19.5t-123.5 79.5t-90.5 181.5t-34 325.5v216q0 201 35 318.5t92 175t124 75t131 17.5q62 0 128 -16.5t122 -73t91 -175t35 -321.5v-216q0 -201 -36 -321.5t-93 -182t-122.5 -82t-125.5 -20.5zM478 173q68 0 94.5 75t26.5 268v343q0 194 -26.5 270
t-94.5 76q-71 0 -100 -76t-29 -270v-343q0 -193 29 -268t100 -75zM664 1258l-84 119h83q97 0 136 50t39 135q0 20 -8.5 53.5t-25.5 67.5h192q15 -44 17 -84t2 -58q0 -113 -52.5 -174.5t-133 -85t-165.5 -23.5zM174 1846l169 137l290 -416l-125 -105z" />
    <glyph glyph-name="uni1EDF" unicode="&#x1edf;" horiz-adv-x="948" 
d="M476 -15q-66 0 -133 19.5t-123.5 79.5t-90.5 181.5t-34 325.5v216q0 201 35 318.5t92 175t124 75t131 17.5q62 0 128 -16.5t122 -73t91 -175t35 -321.5v-216q0 -201 -36 -321.5t-93 -182t-122.5 -82t-125.5 -20.5zM478 173q68 0 94.5 75t26.5 268v343q0 194 -26.5 270
t-94.5 76q-71 0 -100 -76t-29 -270v-343q0 -193 29 -268t100 -75zM664 1258l-84 119h83q97 0 136 50t39 135q0 20 -8.5 53.5t-25.5 67.5h192q15 -44 17 -84t2 -58q0 -113 -52.5 -174.5t-133 -85t-165.5 -23.5zM382 1488v116q53 0 80.5 21.5t27.5 53.5q0 47 -54 80t-146 41
l36 136q154 -16 243 -90t89 -172q0 -81 -67 -127t-209 -59z" />
    <glyph glyph-name="uni1EE1" unicode="&#x1ee1;" horiz-adv-x="948" 
d="M476 -15q-66 0 -133 19.5t-123.5 79.5t-90.5 181.5t-34 325.5v216q0 201 35 318.5t92 175t124 75t131 17.5q62 0 128 -16.5t122 -73t91 -175t35 -321.5v-216q0 -201 -36 -321.5t-93 -182t-122.5 -82t-125.5 -20.5zM478 173q68 0 94.5 75t26.5 268v343q0 194 -26.5 270
t-94.5 76q-71 0 -100 -76t-29 -270v-343q0 -193 29 -268t100 -75zM664 1258l-84 119h83q97 0 136 50t39 135q0 20 -8.5 53.5t-25.5 67.5h192q15 -44 17 -84t2 -58q0 -113 -52.5 -174.5t-133 -85t-165.5 -23.5zM639 1497q-61 0 -105.5 20t-86.5 58q-48 42 -69.5 64t-52.5 22
q-43 0 -43 -64v-72h-178q-1 11 -2.5 41.5t-1.5 40.5q0 94 30.5 144.5t81 70.5t109.5 20t99.5 -19.5t80.5 -57.5q26 -25 60.5 -56.5t65.5 -31.5q50 0 50 59v87h159q11 -65 11 -95q0 -115 -63.5 -173t-144.5 -58z" />
    <glyph glyph-name="ohungarumlaut" unicode="&#x151;" horiz-adv-x="948" 
d="M476 -15q-66 0 -133 19.5t-123.5 79.5t-90.5 181.5t-34 325.5v216q0 201 35 318.5t92 175t124 75t131 17.5q62 0 128 -16.5t122 -73t91 -175t35 -321.5v-216q0 -201 -36 -321.5t-93 -182t-122.5 -82t-125.5 -20.5zM478 173q68 0 94.5 75t26.5 268v343q0 194 -26.5 270
t-94.5 76q-71 0 -100 -76t-29 -270v-343q0 -193 29 -268t100 -75zM52 1567l270 426l165 -137l-314 -394zM442 1567l290 416l164 -137l-334 -384z" />
    <glyph glyph-name="omacron" unicode="&#x14d;" horiz-adv-x="948" 
d="M476 -15q-66 0 -133 19.5t-123.5 79.5t-90.5 181.5t-34 325.5v216q0 201 35 318.5t92 175t124 75t131 17.5q62 0 128 -16.5t122 -73t91 -175t35 -321.5v-216q0 -201 -36 -321.5t-93 -182t-122.5 -82t-125.5 -20.5zM478 173q68 0 94.5 75t26.5 268v343q0 194 -26.5 270
t-94.5 76q-71 0 -100 -76t-29 -270v-343q0 -193 29 -268t100 -75zM162 1746h623v-193h-623v193z" />
    <glyph glyph-name="uni1E53" unicode="&#x1e53;" horiz-adv-x="948" 
d="M476 -15q-66 0 -133 19.5t-123.5 79.5t-90.5 181.5t-34 325.5v216q0 201 35 318.5t92 175t124 75t131 17.5q62 0 128 -16.5t122 -73t91 -175t35 -321.5v-216q0 -201 -36 -321.5t-93 -182t-122.5 -82t-125.5 -20.5zM478 173q68 0 94.5 75t26.5 268v343q0 194 -26.5 270
t-94.5 76q-71 0 -100 -76t-29 -270v-343q0 -193 29 -268t100 -75zM162 1746h623v-193h-623v193zM324 1886l290 416l169 -137l-334 -384z" />
    <glyph glyph-name="uni1E51" unicode="&#x1e51;" horiz-adv-x="948" 
d="M476 -15q-66 0 -133 19.5t-123.5 79.5t-90.5 181.5t-34 325.5v216q0 201 35 318.5t92 175t124 75t131 17.5q62 0 128 -16.5t122 -73t91 -175t35 -321.5v-216q0 -201 -36 -321.5t-93 -182t-122.5 -82t-125.5 -20.5zM478 173q68 0 94.5 75t26.5 268v343q0 194 -26.5 270
t-94.5 76q-71 0 -100 -76t-29 -270v-343q0 -193 29 -268t100 -75zM162 1746h623v-193h-623v193zM174 2165l169 137l290 -416l-125 -105z" />
    <glyph glyph-name="uni0254" unicode="&#x254;" horiz-adv-x="863" 
d="M768 564q0 -307 -91.5 -443t-265.5 -136q-172 0 -256 89.5t-84 285.5v63h205v-60q0 -109 34.5 -149.5t72.5 -40.5q74 0 102.5 74t28.5 254v391q0 178 -31.5 245.5t-93.5 67.5q-55 0 -84 -58.5t-29 -162.5v-43h-192q-8 32 -12.5 67t-4.5 82q0 155 87 229t227 74
q42 0 93 -9.5t103 -39.5t95 -92t69.5 -166t26.5 -262v-260z" />
    <glyph glyph-name="oslash" unicode="&#xf8;" horiz-adv-x="948" 
d="M95 588v215q0 200 35 317t92 174t124 74.5t131 17.5q45 0 93 -7t93 -32l72 194h117l-102 -273q46 -62 74.5 -173.5t28.5 -291.5v-215q0 -199 -36 -319.5t-93 -181.5t-122.5 -81.5t-125.5 -20.5q-47 0 -96 8.5t-94 34.5l-74 -199h-117l105 280q-47 65 -76 180t-29 299z
M329 513q0 -30 1 -56l255 682q-32 71 -107 71q-82 0 -115.5 -79t-33.5 -276v-342zM619 513v342q0 33 -1 61l-254 -681q33 -74 114 -74q79 0 110 77t31 275z" />
    <glyph glyph-name="oslashacute" unicode="&#x1ff;" horiz-adv-x="948" 
d="M95 588v215q0 200 35 317t92 174t124 74.5t131 17.5q45 0 93 -7t93 -32l72 194h117l-102 -273q46 -62 74.5 -173.5t28.5 -291.5v-215q0 -199 -36 -319.5t-93 -181.5t-122.5 -81.5t-125.5 -20.5q-47 0 -96 8.5t-94 34.5l-74 -199h-117l105 280q-47 65 -76 180t-29 299z
M329 513q0 -30 1 -56l255 682q-32 71 -107 71q-82 0 -115.5 -79t-33.5 -276v-342zM619 513v342q0 33 -1 61l-254 -681q33 -74 114 -74q79 0 110 77t31 275zM324 1567l290 416l169 -137l-334 -384z" />
    <glyph glyph-name="otilde" unicode="&#xf5;" horiz-adv-x="948" 
d="M476 -15q-66 0 -133 19.5t-123.5 79.5t-90.5 181.5t-34 325.5v216q0 201 35 318.5t92 175t124 75t131 17.5q62 0 128 -16.5t122 -73t91 -175t35 -321.5v-216q0 -201 -36 -321.5t-93 -182t-122.5 -82t-125.5 -20.5zM478 173q68 0 94.5 75t26.5 268v343q0 194 -26.5 270
t-94.5 76q-71 0 -100 -76t-29 -270v-343q0 -193 29 -268t100 -75zM639 1497q-61 0 -105.5 20t-86.5 58q-48 42 -69.5 64t-52.5 22q-43 0 -43 -64v-72h-178q-1 11 -2.5 41.5t-1.5 40.5q0 94 30.5 144.5t81 70.5t109.5 20t99.5 -19.5t80.5 -57.5q26 -25 60.5 -56.5t65.5 -31.5
q50 0 50 59v87h159q11 -65 11 -95q0 -115 -63.5 -173t-144.5 -58z" />
    <glyph glyph-name="uni1E4D" unicode="&#x1e4d;" horiz-adv-x="948" 
d="M476 -15q-66 0 -133 19.5t-123.5 79.5t-90.5 181.5t-34 325.5v216q0 201 35 318.5t92 175t124 75t131 17.5q62 0 128 -16.5t122 -73t91 -175t35 -321.5v-216q0 -201 -36 -321.5t-93 -182t-122.5 -82t-125.5 -20.5zM478 173q68 0 94.5 75t26.5 268v343q0 194 -26.5 270
t-94.5 76q-71 0 -100 -76t-29 -270v-343q0 -193 29 -268t100 -75zM639 1497q-61 0 -105.5 20t-86.5 58q-48 42 -69.5 64t-52.5 22q-43 0 -43 -64v-72h-178q-1 11 -2.5 41.5t-1.5 40.5q0 94 30.5 144.5t81 70.5t109.5 20t99.5 -19.5t80.5 -57.5q26 -25 60.5 -56.5t65.5 -31.5
q50 0 50 59v87h159q11 -65 11 -95q0 -115 -63.5 -173t-144.5 -58zM324 2082l290 416l169 -137l-334 -384z" />
    <glyph glyph-name="oe" unicode="&#x153;" horiz-adv-x="1418" 
d="M476 -15q-66 0 -133 19t-123.5 79.5t-90.5 181t-34 323.5v215q0 200 35 317t92 174t124 74.5t131 17.5q61 0 130 -21.5t123 -91.5h8q63 71 133.5 92t127.5 21q91 0 167.5 -38t122.5 -131t46 -259q0 -82 -9 -168.5t-24 -151.5h-449v-139q0 -179 30.5 -253t116.5 -74
q47 0 85 40.5t38 148.5v60h205v-63q0 -194 -84.5 -283.5t-266.5 -89.5q-75 0 -139 31.5t-108 81.5h-8q-53 -66 -120 -89.5t-126 -23.5zM478 172q68 0 94.5 74.5t26.5 266.5v342q0 192 -26.5 268t-94.5 76q-71 0 -100 -76t-29 -268v-342q0 -192 29 -266.5t100 -74.5z
M1101 807q2 22 3 66t1 71q0 136 -29 195.5t-92 59.5q-67 0 -99 -67.5t-32 -243.5v-81h248z" />
    <glyph glyph-name="p" unicode="p" horiz-adv-x="985" 
d="M381 -78v-367h-253v1822h198l23 -145q35 57 96 108.5t159 51.5q32 0 79.5 -12.5t95 -59t79.5 -146.5t32 -276v-417q0 -175 -32.5 -275.5t-81 -148t-98 -60.5t-84.5 -13q-80 0 -133.5 32t-87.5 75zM381 299q17 -39 46.5 -70t80.5 -31q37 0 65.5 20t45 74.5t16.5 156.5v488
q0 103 -16 156.5t-44.5 73.5t-65.5 20q-47 0 -78 -28.5t-50 -66.5v-793z" />
    <glyph glyph-name="thorn" unicode="&#xfe;" horiz-adv-x="985" 
d="M382 -59v-384h-253v2253h253v-365l-8 -181l1 -1q35 47 91 84.5t138 37.5q32 0 79.5 -12.5t95 -58.5t79.5 -146t32 -274v-415q0 -174 -32.5 -274.5t-81 -147.5t-98 -60t-84.5 -13q-77 0 -136.5 36.5t-89.5 74.5zM382 296q17 -38 46.5 -68.5t79.5 -30.5q37 0 65.5 20t45 74
t16.5 156v475q0 102 -16 156t-44.5 73.5t-65.5 19.5q-46 0 -77 -24.5t-50 -57.5v-793z" />
    <glyph glyph-name="q" unicode="q" horiz-adv-x="984" 
d="M391 -16q-35 0 -84.5 13t-98 60.5t-81 148t-32.5 275.5v417q0 176 32 276t79.5 146.5t95.5 59t79 12.5q98 0 158.5 -51t94.5 -107l24 143h197v-1823h-252v367l7 168q-34 -43 -86.5 -74t-132.5 -31zM477 190q50 0 80 30.5t46 68.5v797q-19 41 -50.5 71t-76.5 30
q-37 0 -65.5 -20t-45 -74t-16.5 -157v-495q0 -102 16.5 -156.5t45.5 -74.5t66 -20z" />
    <glyph glyph-name="r" unicode="r" horiz-adv-x="782" 
d="M129 1377h185l22 -140q41 78 96 117t112 39q213 0 213 -268q0 -34 -10 -89.5t-24 -97.5h-176v107q0 83 -25 112.5t-62 29.5q-47 0 -78 -74v-1113h-253v1377z" />
    <glyph glyph-name="racute" unicode="&#x155;" horiz-adv-x="782" 
d="M129 1377h185l22 -140q41 78 96 117t112 39q213 0 213 -268q0 -34 -10 -89.5t-24 -97.5h-176v107q0 83 -25 112.5t-62 29.5q-47 0 -78 -74v-1113h-253v1377zM241 1567l290 416l169 -137l-334 -384z" />
    <glyph glyph-name="rcaron" unicode="&#x159;" horiz-adv-x="782" 
d="M129 1377h185l22 -140q41 78 96 117t112 39q213 0 213 -268q0 -34 -10 -89.5t-24 -97.5h-176v107q0 83 -25 112.5t-62 29.5q-47 0 -78 -74v-1113h-253v1377zM301 1505l-270 491h218l94 -192l50 -132l51 132l88 192h219l-276 -491h-174z" />
    <glyph glyph-name="uni0157" unicode="&#x157;" horiz-adv-x="782" 
d="M129 1377h185l22 -140q41 78 96 117t112 39q213 0 213 -268q0 -34 -10 -89.5t-24 -97.5h-176v107q0 83 -25 112.5t-62 29.5q-47 0 -78 -74v-1113h-253v1377zM376 -97l-108 -434h-195l62 434h241z" />
    <glyph glyph-name="uni1E5D" unicode="&#x1e5d;" horiz-adv-x="782" 
d="M129 1377h185l22 -140q41 78 96 117t112 39q213 0 213 -268q0 -34 -10 -89.5t-24 -97.5h-176v107q0 83 -25 112.5t-62 29.5q-47 0 -78 -74v-1113h-253v1377zM99 -257q0 89 42.5 126t113.5 37q74 0 115.5 -40t41.5 -123q0 -78 -42 -123t-116 -45q-70 0 -112.5 44
t-42.5 124zM79 1746h623v-193h-623v193z" />
    <glyph glyph-name="rmacronbelow" unicode="&#x1e5f;" horiz-adv-x="782" 
d="M129 1377h185l22 -140q41 78 96 117t112 39q213 0 213 -268q0 -34 -10 -89.5t-24 -97.5h-176v107q0 83 -25 112.5t-62 29.5q-47 0 -78 -74v-1113h-253v1377zM-57 -156h623v-193h-623v193z" />
    <glyph glyph-name="uni0279" unicode="&#x279;" horiz-adv-x="782" 
d="M653 0h-185l-22 140q-41 -78 -96 -117t-112 -39q-213 0 -213 268q0 35 10 90t24 97h176v-107q0 -83 25 -112.5t62 -29.5q47 0 78 74v1113h253v-1377z" />
    <glyph glyph-name="s" unicode="s" horiz-adv-x="810" 
d="M65 288q0 45 8.5 87t16.5 67h178q0 -150 37.5 -209.5t107.5 -59.5q50 0 78 30.5t28 72.5q0 44 -23.5 85t-64.5 90l-177 218q-72 91 -128.5 190.5t-56.5 219.5q0 107 47 176.5t124 103.5t167 34q149 0 238 -71.5t89 -214.5q0 -47 -8.5 -92.5t-16.5 -77.5h-175
q-2 136 -32 202t-99 66q-58 0 -80 -36t-22 -80q0 -48 24 -86.5t62 -86.5l200 -242q29 -36 67 -91.5t66.5 -125t28.5 -150.5q0 -145 -91 -233.5t-260 -88.5q-92 0 -168 28.5t-120.5 95t-44.5 179.5z" />
    <glyph glyph-name="sacute" unicode="&#x15b;" horiz-adv-x="810" 
d="M65 288q0 45 8.5 87t16.5 67h178q0 -150 37.5 -209.5t107.5 -59.5q50 0 78 30.5t28 72.5q0 44 -23.5 85t-64.5 90l-177 218q-72 91 -128.5 190.5t-56.5 219.5q0 107 47 176.5t124 103.5t167 34q149 0 238 -71.5t89 -214.5q0 -47 -8.5 -92.5t-16.5 -77.5h-175
q-2 136 -32 202t-99 66q-58 0 -80 -36t-22 -80q0 -48 24 -86.5t62 -86.5l200 -242q29 -36 67 -91.5t66.5 -125t28.5 -150.5q0 -145 -91 -233.5t-260 -88.5q-92 0 -168 28.5t-120.5 95t-44.5 179.5zM255 1567l290 416l169 -137l-334 -384z" />
    <glyph glyph-name="uniA78C" unicode="&#xa78c;" horiz-adv-x="511" 
d="M129 1708h253v-704h-253v704z" />
    <glyph glyph-name="scaron" unicode="&#x161;" horiz-adv-x="810" 
d="M65 288q0 45 8.5 87t16.5 67h178q0 -150 37.5 -209.5t107.5 -59.5q50 0 78 30.5t28 72.5q0 44 -23.5 85t-64.5 90l-177 218q-72 91 -128.5 190.5t-56.5 219.5q0 107 47 176.5t124 103.5t167 34q149 0 238 -71.5t89 -214.5q0 -47 -8.5 -92.5t-16.5 -77.5h-175
q-2 136 -32 202t-99 66q-58 0 -80 -36t-22 -80q0 -48 24 -86.5t62 -86.5l200 -242q29 -36 67 -91.5t66.5 -125t28.5 -150.5q0 -145 -91 -233.5t-260 -88.5q-92 0 -168 28.5t-120.5 95t-44.5 179.5zM315 1505l-270 491h218l94 -192l50 -132l51 132l88 192h219l-276 -491h-174
z" />
    <glyph glyph-name="scedilla" unicode="&#x15f;" horiz-adv-x="810" 
d="M65 288q0 45 8.5 87t16.5 67h178q0 -150 37.5 -209.5t107.5 -59.5q50 0 78 30.5t28 72.5q0 44 -23.5 85t-64.5 90l-177 218q-72 91 -128.5 190.5t-56.5 219.5q0 107 47 176.5t124 103.5t167 34q149 0 238 -71.5t89 -214.5q0 -47 -8.5 -92.5t-16.5 -77.5h-175
q-2 136 -32 202t-99 66q-58 0 -80 -36t-22 -80q0 -48 24 -86.5t62 -86.5l200 -242q29 -36 67 -91.5t66.5 -125t28.5 -150.5q0 -145 -91 -233.5t-260 -88.5q-92 0 -168 28.5t-120.5 95t-44.5 179.5zM555 13l7 -117q6 -107 -18.5 -170t-63.5 -94.5t-78.5 -41t-63.5 -9.5
q-41 0 -75.5 7t-75.5 23l7 151q8 -1 16.5 -1h16.5q68 0 108.5 33.5t45.5 149.5l3 69h171z" />
    <glyph glyph-name="scircumflex" unicode="&#x15d;" horiz-adv-x="810" 
d="M65 288q0 45 8.5 87t16.5 67h178q0 -150 37.5 -209.5t107.5 -59.5q50 0 78 30.5t28 72.5q0 44 -23.5 85t-64.5 90l-177 218q-72 91 -128.5 190.5t-56.5 219.5q0 107 47 176.5t124 103.5t167 34q149 0 238 -71.5t89 -214.5q0 -47 -8.5 -92.5t-16.5 -77.5h-175
q-2 136 -32 202t-99 66q-58 0 -80 -36t-22 -80q0 -48 24 -86.5t62 -86.5l200 -242q29 -36 67 -91.5t66.5 -125t28.5 -150.5q0 -145 -91 -233.5t-260 -88.5q-92 0 -168 28.5t-120.5 95t-44.5 179.5zM489 1996l276 -491h-219l-88 192l-51 132l-50 -132l-94 -192h-218l270 491
h174z" />
    <glyph glyph-name="uni0219" unicode="&#x219;" horiz-adv-x="810" 
d="M65 288q0 45 8.5 87t16.5 67h178q0 -150 37.5 -209.5t107.5 -59.5q50 0 78 30.5t28 72.5q0 44 -23.5 85t-64.5 90l-177 218q-72 91 -128.5 190.5t-56.5 219.5q0 107 47 176.5t124 103.5t167 34q149 0 238 -71.5t89 -214.5q0 -47 -8.5 -92.5t-16.5 -77.5h-175
q-2 136 -32 202t-99 66q-58 0 -80 -36t-22 -80q0 -48 24 -86.5t62 -86.5l200 -242q29 -36 67 -91.5t66.5 -125t28.5 -150.5q0 -145 -91 -233.5t-260 -88.5q-92 0 -168 28.5t-120.5 95t-44.5 179.5zM526 -97l-108 -434h-195l62 434h241z" />
    <glyph glyph-name="uni1E63" unicode="&#x1e63;" horiz-adv-x="810" 
d="M65 288q0 45 8.5 87t16.5 67h178q0 -150 37.5 -209.5t107.5 -59.5q50 0 78 30.5t28 72.5q0 44 -23.5 85t-64.5 90l-177 218q-72 91 -128.5 190.5t-56.5 219.5q0 107 47 176.5t124 103.5t167 34q149 0 238 -71.5t89 -214.5q0 -47 -8.5 -92.5t-16.5 -77.5h-175
q-2 136 -32 202t-99 66q-58 0 -80 -36t-22 -80q0 -48 24 -86.5t62 -86.5l200 -242q29 -36 67 -91.5t66.5 -125t28.5 -150.5q0 -145 -91 -233.5t-260 -88.5q-92 0 -168 28.5t-120.5 95t-44.5 179.5zM249 -257q0 89 42.5 126t113.5 37q74 0 115.5 -40t41.5 -123
q0 -78 -42 -123t-116 -45q-70 0 -112.5 44t-42.5 124z" />
    <glyph glyph-name="germandbls" unicode="&#xdf;" horiz-adv-x="1026" 
d="M129 1408q0 212 108.5 316t291.5 104q202 0 296 -99.5t94 -254.5q0 -84 -24.5 -161.5t-74.5 -178.5q-48 -79 -60.5 -117.5t-12.5 -68.5q0 -34 12.5 -70t36.5 -88l92 -197q35 -94 54.5 -159.5t19.5 -136.5q0 -80 -27 -152.5t-86 -118t-156 -45.5q-46 0 -84 8.5t-72 21.5
v166q23 -5 32.5 -6t28.5 -1q39 0 73 30t34 96q0 50 -26 114.5t-77 182.5q-50 118 -73.5 185t-23.5 129q0 55 19.5 104t68.5 129q52 106 70 168t18 128q0 83 -40 138t-117 55q-59 0 -100.5 -32t-41.5 -112v-1928h-253v1851z" />
    <glyph glyph-name="t" unicode="t" horiz-adv-x="661" 
d="M149 1185h-117v192h139l51 357h180v-357h230v-192h-230v-844q0 -90 32.5 -114t76.5 -24q70 0 120 31v-160q-43 -53 -100 -71.5t-110 -18.5q-70 0 -132.5 27.5t-101 105t-38.5 226.5v842z" />
    <glyph glyph-name="tbar" unicode="&#x167;" horiz-adv-x="661" 
d="M30 956h119v229h-117v192h139l51 357h180v-357h230v-192h-230v-229h229v-190h-229v-425q0 -90 32.5 -114t76.5 -24q70 0 120 31v-160q-43 -53 -100 -71.5t-110 -18.5q-70 0 -132.5 27.5t-101 105t-38.5 226.5v423h-119v190z" />
    <glyph glyph-name="tcaron" unicode="&#x165;" horiz-adv-x="759" 
d="M149 1185h-117v192h139l51 357h180v-357h230v-192h-230v-844q0 -90 32.5 -114t76.5 -24q70 0 120 31v-160q-43 -53 -100 -71.5t-110 -18.5q-70 0 -132.5 27.5t-101 105t-38.5 226.5v842zM512 1820h237l-46 -373h-211z" />
    <glyph glyph-name="uni0163" unicode="&#x163;" horiz-adv-x="661" 
d="M149 1185h-117v192h139l51 357h180v-357h230v-192h-230v-844q0 -90 32.5 -114t76.5 -24q70 0 120 31v-160q-43 -53 -100 -71.5t-110 -18.5q-70 0 -132.5 27.5t-101 105t-38.5 226.5v842zM481 13l7 -117q6 -107 -18.5 -170t-63.5 -94.5t-78.5 -41t-63.5 -9.5
q-41 0 -75.5 7t-75.5 23l7 151q8 -1 16.5 -1h16.5q68 0 108.5 33.5t45.5 149.5l3 69h171z" />
    <glyph glyph-name="uni1E71" unicode="&#x1e71;" horiz-adv-x="661" 
d="M149 1185h-117v192h139l51 357h180v-357h230v-192h-230v-844q0 -90 32.5 -114t76.5 -24q70 0 120 31v-160q-43 -53 -100 -71.5t-110 -18.5q-70 0 -132.5 27.5t-101 105t-38.5 226.5v842zM415 -65l276 -401h-219l-88 152l-51 82l-50 -82l-94 -152h-218l270 401h174z" />
    <glyph glyph-name="uni1E97" unicode="&#x1e97;" horiz-adv-x="661" 
d="M149 1185h-117v192h139l51 357h180v-357h230v-192h-230v-844q0 -90 32.5 -114t76.5 -24q70 0 120 31v-160q-43 -53 -100 -71.5t-110 -18.5q-70 0 -132.5 27.5t-101 105t-38.5 226.5v842zM108 1867q-78 0 -107.5 42.5t-29.5 122.5q0 86 29 130t108 44q82 0 113.5 -43
t31.5 -131q0 -77 -31.5 -121t-113.5 -44zM545 1867q-78 0 -107 42.5t-29 122.5q0 86 28.5 130t107.5 44q82 0 114 -43t32 -131q0 -77 -32 -121t-114 -44z" />
    <glyph glyph-name="uni1E6D" unicode="&#x1e6d;" horiz-adv-x="661" 
d="M149 1185h-117v192h139l51 357h180v-357h230v-192h-230v-844q0 -90 32.5 -114t76.5 -24q70 0 120 31v-160q-43 -53 -100 -71.5t-110 -18.5q-70 0 -132.5 27.5t-101 105t-38.5 226.5v842zM175 -257q0 89 42.5 126t113.5 37q74 0 115.5 -40t41.5 -123q0 -78 -42 -123
t-116 -45q-70 0 -112.5 44t-42.5 124z" />
    <glyph glyph-name="tmacronbelow" unicode="&#x1e6f;" horiz-adv-x="661" 
d="M149 1185h-117v192h139l51 357h180v-357h230v-192h-230v-844q0 -90 32.5 -114t76.5 -24q70 0 120 31v-160q-43 -53 -100 -71.5t-110 -18.5q-70 0 -132.5 27.5t-101 105t-38.5 226.5v842zM19 -156h623v-193h-623v193z" />
    <glyph glyph-name="uni0288" unicode="&#x288;" horiz-adv-x="661" 
d="M149 1185h-117v192h139l51 357h180v-357h230v-192h-230v-1271q0 -90 32.5 -114t76.5 -24q70 0 120 31v-160q-43 -53 -100 -71.5t-110 -18.5q-70 0 -132.5 27.5t-101 105t-38.5 226.5v1269z" />
    <glyph glyph-name="u" unicode="u" horiz-adv-x="1011" 
d="M127 1377h253v-1013q0 -91 28 -126.5t82 -35.5q80 0 139 81v1094h253v-1377h-193l-25 147h-1q-59 -94 -133.5 -128.5t-150.5 -34.5q-120 0 -186 84.5t-66 253.5v1055z" />
    <glyph glyph-name="uacute" unicode="&#xfa;" horiz-adv-x="1011" 
d="M127 1377h253v-1013q0 -91 28 -126.5t82 -35.5q80 0 139 81v1094h253v-1377h-193l-25 147h-1q-59 -94 -133.5 -128.5t-150.5 -34.5q-120 0 -186 84.5t-66 253.5v1055zM356 1567l290 416l169 -137l-334 -384z" />
    <glyph glyph-name="ubreve" unicode="&#x16d;" horiz-adv-x="1011" 
d="M127 1377h253v-1013q0 -91 28 -126.5t82 -35.5q80 0 139 81v1094h253v-1377h-193l-25 147h-1q-59 -94 -133.5 -128.5t-150.5 -34.5q-120 0 -186 84.5t-66 253.5v1055zM501 1504q-106 0 -176 44t-104 114t-34 148q0 34 6 67h178q-7 -16 -8.5 -34t-1.5 -37
q0 -52 34.5 -95.5t104.5 -43.5q80 0 119 44.5t39 94.5v37t-8 34h169q6 -33 6 -67q0 -74 -35.5 -144.5t-107.5 -116t-181 -45.5z" />
    <glyph glyph-name="uni01D4" unicode="&#x1d4;" horiz-adv-x="1011" 
d="M127 1377h253v-1013q0 -91 28 -126.5t82 -35.5q80 0 139 81v1094h253v-1377h-193l-25 147h-1q-59 -94 -133.5 -128.5t-150.5 -34.5q-120 0 -186 84.5t-66 253.5v1055zM416 1505l-270 491h218l94 -192l50 -132l51 132l88 192h219l-276 -491h-174z" />
    <glyph glyph-name="ucircumflex" unicode="&#xfb;" horiz-adv-x="1011" 
d="M127 1377h253v-1013q0 -91 28 -126.5t82 -35.5q80 0 139 81v1094h253v-1377h-193l-25 147h-1q-59 -94 -133.5 -128.5t-150.5 -34.5q-120 0 -186 84.5t-66 253.5v1055zM590 1996l276 -491h-219l-88 192l-51 132l-50 -132l-94 -192h-218l270 491h174z" />
    <glyph glyph-name="udieresis" unicode="&#xfc;" horiz-adv-x="1011" 
d="M127 1377h253v-1013q0 -91 28 -126.5t82 -35.5q80 0 139 81v1094h253v-1377h-193l-25 147h-1q-59 -94 -133.5 -128.5t-150.5 -34.5q-120 0 -186 84.5t-66 253.5v1055zM283 1510q-78 0 -107.5 42.5t-29.5 122.5q0 86 29 130t108 44q82 0 113.5 -43t31.5 -131
q0 -77 -31.5 -121t-113.5 -44zM720 1510q-78 0 -107 42.5t-29 122.5q0 86 28.5 130t107.5 44q82 0 114 -43t32 -131q0 -77 -32 -121t-114 -44z" />
    <glyph glyph-name="uni01D8" unicode="&#x1d8;" horiz-adv-x="1011" 
d="M127 1377h253v-1013q0 -91 28 -126.5t82 -35.5q80 0 139 81v1094h253v-1377h-193l-25 147h-1q-59 -94 -133.5 -128.5t-150.5 -34.5q-120 0 -186 84.5t-66 253.5v1055zM283 1510q-78 0 -107.5 42.5t-29.5 122.5q0 86 29 130t108 44q82 0 113.5 -43t31.5 -131
q0 -77 -31.5 -121t-113.5 -44zM720 1510q-78 0 -107 42.5t-29 122.5q0 86 28.5 130t107.5 44q82 0 114 -43t32 -131q0 -77 -32 -121t-114 -44zM356 1969l290 416l169 -137l-334 -384z" />
    <glyph glyph-name="uni01DA" unicode="&#x1da;" horiz-adv-x="1011" 
d="M127 1377h253v-1013q0 -91 28 -126.5t82 -35.5q80 0 139 81v1094h253v-1377h-193l-25 147h-1q-59 -94 -133.5 -128.5t-150.5 -34.5q-120 0 -186 84.5t-66 253.5v1055zM283 1510q-78 0 -107.5 42.5t-29.5 122.5q0 86 29 130t108 44q82 0 113.5 -43t31.5 -131
q0 -77 -31.5 -121t-113.5 -44zM720 1510q-78 0 -107 42.5t-29 122.5q0 86 28.5 130t107.5 44q82 0 114 -43t32 -131q0 -77 -32 -121t-114 -44zM416 1907l-270 491h218l94 -192l50 -132l51 132l88 192h219l-276 -491h-174z" />
    <glyph glyph-name="uni01DC" unicode="&#x1dc;" horiz-adv-x="1011" 
d="M127 1377h253v-1013q0 -91 28 -126.5t82 -35.5q80 0 139 81v1094h253v-1377h-193l-25 147h-1q-59 -94 -133.5 -128.5t-150.5 -34.5q-120 0 -186 84.5t-66 253.5v1055zM283 1510q-78 0 -107.5 42.5t-29.5 122.5q0 86 29 130t108 44q82 0 113.5 -43t31.5 -131
q0 -77 -31.5 -121t-113.5 -44zM720 1510q-78 0 -107 42.5t-29 122.5q0 86 28.5 130t107.5 44q82 0 114 -43t32 -131q0 -77 -32 -121t-114 -44zM206 2248l169 137l290 -416l-125 -105z" />
    <glyph glyph-name="uni01D6" unicode="&#x1d6;" horiz-adv-x="1011" 
d="M127 1377h253v-1013q0 -91 28 -126.5t82 -35.5q80 0 139 81v1094h253v-1377h-193l-25 147h-1q-59 -94 -133.5 -128.5t-150.5 -34.5q-120 0 -186 84.5t-66 253.5v1055zM283 1510q-78 0 -107.5 42.5t-29.5 122.5q0 86 29 130t108 44q82 0 113.5 -43t31.5 -131
q0 -77 -31.5 -121t-113.5 -44zM720 1510q-78 0 -107 42.5t-29 122.5q0 86 28.5 130t107.5 44q82 0 114 -43t32 -131q0 -77 -32 -121t-114 -44zM194 2148h623v-193h-623v193z" />
    <glyph glyph-name="uni1EE5" unicode="&#x1ee5;" horiz-adv-x="1011" 
d="M127 1377h253v-1013q0 -91 28 -126.5t82 -35.5q80 0 139 81v1094h253v-1377h-193l-25 147h-1q-59 -94 -133.5 -128.5t-150.5 -34.5q-120 0 -186 84.5t-66 253.5v1055zM350 -257q0 89 42.5 126t113.5 37q74 0 115.5 -40t41.5 -123q0 -78 -42 -123t-116 -45
q-70 0 -112.5 44t-42.5 124z" />
    <glyph glyph-name="ugrave" unicode="&#xf9;" horiz-adv-x="1011" 
d="M127 1377h253v-1013q0 -91 28 -126.5t82 -35.5q80 0 139 81v1094h253v-1377h-193l-25 147h-1q-59 -94 -133.5 -128.5t-150.5 -34.5q-120 0 -186 84.5t-66 253.5v1055zM206 1846l169 137l290 -416l-125 -105z" />
    <glyph glyph-name="uni1EE7" unicode="&#x1ee7;" horiz-adv-x="1011" 
d="M127 1377h253v-1013q0 -91 28 -126.5t82 -35.5q80 0 139 81v1094h253v-1377h-193l-25 147h-1q-59 -94 -133.5 -128.5t-150.5 -34.5q-120 0 -186 84.5t-66 253.5v1055zM414 1488v116q53 0 80.5 21.5t27.5 53.5q0 47 -54 80t-146 41l36 136q154 -16 243 -90t89 -172
q0 -81 -67 -127t-209 -59z" />
    <glyph glyph-name="uhorn" unicode="&#x1b0;" horiz-adv-x="1011" 
d="M127 1377h253v-1013q0 -91 28 -126.5t82 -35.5q80 0 139 81v1094h253v-1377h-193l-25 147h-1q-59 -94 -133.5 -128.5t-150.5 -34.5q-120 0 -186 84.5t-66 253.5v1055zM857 1258l-84 119h83q97 0 136 50t39 135q0 20 -8.5 53.5t-25.5 67.5h192q15 -44 17 -84t2 -58
q0 -113 -52.5 -174.5t-133 -85t-165.5 -23.5z" />
    <glyph glyph-name="uni1EE9" unicode="&#x1ee9;" horiz-adv-x="1011" 
d="M127 1377h253v-1013q0 -91 28 -126.5t82 -35.5q80 0 139 81v1094h253v-1377h-193l-25 147h-1q-59 -94 -133.5 -128.5t-150.5 -34.5q-120 0 -186 84.5t-66 253.5v1055zM857 1258l-84 119h83q97 0 136 50t39 135q0 20 -8.5 53.5t-25.5 67.5h192q15 -44 17 -84t2 -58
q0 -113 -52.5 -174.5t-133 -85t-165.5 -23.5zM356 1567l290 416l169 -137l-334 -384z" />
    <glyph glyph-name="uni1EF1" unicode="&#x1ef1;" horiz-adv-x="1011" 
d="M127 1377h253v-1013q0 -91 28 -126.5t82 -35.5q80 0 139 81v1094h253v-1377h-193l-25 147h-1q-59 -94 -133.5 -128.5t-150.5 -34.5q-120 0 -186 84.5t-66 253.5v1055zM857 1258l-84 119h83q97 0 136 50t39 135q0 20 -8.5 53.5t-25.5 67.5h192q15 -44 17 -84t2 -58
q0 -113 -52.5 -174.5t-133 -85t-165.5 -23.5zM350 -257q0 89 42.5 126t113.5 37q74 0 115.5 -40t41.5 -123q0 -78 -42 -123t-116 -45q-70 0 -112.5 44t-42.5 124z" />
    <glyph glyph-name="uni1EEB" unicode="&#x1eeb;" horiz-adv-x="1011" 
d="M127 1377h253v-1013q0 -91 28 -126.5t82 -35.5q80 0 139 81v1094h253v-1377h-193l-25 147h-1q-59 -94 -133.5 -128.5t-150.5 -34.5q-120 0 -186 84.5t-66 253.5v1055zM857 1258l-84 119h83q97 0 136 50t39 135q0 20 -8.5 53.5t-25.5 67.5h192q15 -44 17 -84t2 -58
q0 -113 -52.5 -174.5t-133 -85t-165.5 -23.5zM206 1846l169 137l290 -416l-125 -105z" />
    <glyph glyph-name="uni1EED" unicode="&#x1eed;" horiz-adv-x="1011" 
d="M127 1377h253v-1013q0 -91 28 -126.5t82 -35.5q80 0 139 81v1094h253v-1377h-193l-25 147h-1q-59 -94 -133.5 -128.5t-150.5 -34.5q-120 0 -186 84.5t-66 253.5v1055zM857 1258l-84 119h83q97 0 136 50t39 135q0 20 -8.5 53.5t-25.5 67.5h192q15 -44 17 -84t2 -58
q0 -113 -52.5 -174.5t-133 -85t-165.5 -23.5zM414 1488v116q53 0 80.5 21.5t27.5 53.5q0 47 -54 80t-146 41l36 136q154 -16 243 -90t89 -172q0 -81 -67 -127t-209 -59z" />
    <glyph glyph-name="uni1EEF" unicode="&#x1eef;" horiz-adv-x="1011" 
d="M127 1377h253v-1013q0 -91 28 -126.5t82 -35.5q80 0 139 81v1094h253v-1377h-193l-25 147h-1q-59 -94 -133.5 -128.5t-150.5 -34.5q-120 0 -186 84.5t-66 253.5v1055zM857 1258l-84 119h83q97 0 136 50t39 135q0 20 -8.5 53.5t-25.5 67.5h192q15 -44 17 -84t2 -58
q0 -113 -52.5 -174.5t-133 -85t-165.5 -23.5zM671 1497q-61 0 -105.5 20t-86.5 58q-48 42 -69.5 64t-52.5 22q-43 0 -43 -64v-72h-178q-1 11 -2.5 41.5t-1.5 40.5q0 94 30.5 144.5t81 70.5t109.5 20t99.5 -19.5t80.5 -57.5q26 -25 60.5 -56.5t65.5 -31.5q50 0 50 59v87h159
q11 -65 11 -95q0 -115 -63.5 -173t-144.5 -58z" />
    <glyph glyph-name="uhungarumlaut" unicode="&#x171;" horiz-adv-x="1011" 
d="M127 1377h253v-1013q0 -91 28 -126.5t82 -35.5q80 0 139 81v1094h253v-1377h-193l-25 147h-1q-59 -94 -133.5 -128.5t-150.5 -34.5q-120 0 -186 84.5t-66 253.5v1055zM84 1567l270 426l165 -137l-314 -394zM474 1567l290 416l164 -137l-334 -384z" />
    <glyph glyph-name="umacron" unicode="&#x16b;" horiz-adv-x="1011" 
d="M127 1377h253v-1013q0 -91 28 -126.5t82 -35.5q80 0 139 81v1094h253v-1377h-193l-25 147h-1q-59 -94 -133.5 -128.5t-150.5 -34.5q-120 0 -186 84.5t-66 253.5v1055zM194 1746h623v-193h-623v193z" />
    <glyph glyph-name="uogonek" unicode="&#x173;" horiz-adv-x="1011" 
d="M127 1377h253v-1013q0 -91 28 -126.5t82 -35.5q80 0 139 81v1094h253v-1377h-193l-25 147h-1q-59 -94 -133.5 -128.5t-150.5 -34.5q-120 0 -186 84.5t-66 253.5v1055zM777 13l105 -13q-60 -67 -65 -121t25 -86t75 -32h16.5t16.5 1l7 -151q-41 -16 -75.5 -23t-75.5 -7
q-31 0 -79.5 17t-86 65.5t-37.5 142.5q0 78 34.5 128.5t50.5 65.5z" />
    <glyph glyph-name="uni028A" unicode="&#x28a;" horiz-adv-x="1071" 
d="M482 1377v-186q-26 -55 -51 -115t-44.5 -141.5t-31 -199.5t-11.5 -290q0 -114 24.5 -172.5t69 -79t103.5 -20.5q60 0 101.5 20.5t63.5 79t22 172.5q1 167 -9.5 284t-29 200t-42.5 144.5t-51 117.5v186h375v-192h-233q113 -136 175.5 -306t62.5 -394q0 -138 -43 -233.5
t-111 -154t-143 -85.5t-140 -27q-62 0 -138 27t-146 85.5t-115 154t-45 233.5q0 224 62.5 394t177.5 306h-237v192h384z" />
    <glyph glyph-name="uring" unicode="&#x16f;" horiz-adv-x="1011" 
d="M127 1377h253v-1013q0 -91 28 -126.5t82 -35.5q80 0 139 81v1094h253v-1377h-193l-25 147h-1q-59 -94 -133.5 -128.5t-150.5 -34.5q-120 0 -186 84.5t-66 253.5v1055zM501 1501q-106 0 -176 42.5t-104 111t-34 146.5q0 81 33.5 149.5t103 110t177.5 41.5q164 0 244 -89
t80 -212q0 -74 -35.5 -143t-107.5 -113t-181 -44zM500 1664q80 0 119 41.5t39 91.5q0 62 -39 102t-119 40q-72 0 -105.5 -41t-33.5 -101q0 -52 34.5 -92.5t104.5 -40.5z" />
    <glyph glyph-name="utilde" unicode="&#x169;" horiz-adv-x="1011" 
d="M127 1377h253v-1013q0 -91 28 -126.5t82 -35.5q80 0 139 81v1094h253v-1377h-193l-25 147h-1q-59 -94 -133.5 -128.5t-150.5 -34.5q-120 0 -186 84.5t-66 253.5v1055zM671 1497q-61 0 -105.5 20t-86.5 58q-48 42 -69.5 64t-52.5 22q-43 0 -43 -64v-72h-178
q-1 11 -2.5 41.5t-1.5 40.5q0 94 30.5 144.5t81 70.5t109.5 20t99.5 -19.5t80.5 -57.5q26 -25 60.5 -56.5t65.5 -31.5q50 0 50 59v87h159q11 -65 11 -95q0 -115 -63.5 -173t-144.5 -58z" />
    <glyph glyph-name="v" unicode="v" horiz-adv-x="864" 
d="M11 1377h252l133 -732l33 -293h8l38 293l132 732h244l-314 -1377h-216z" />
    <glyph glyph-name="uni028C" unicode="&#x28c;" horiz-adv-x="864" 
d="M853 0h-252l-133 732l-33 293h-8l-38 -293l-132 -732h-244l314 1377h216z" />
    <glyph glyph-name="w" unicode="w" horiz-adv-x="1328" 
d="M257 0l-227 1377h241l99 -746l24 -279h8l30 279l132 746h213l136 -746l37 -279h8l17 279l87 746h236l-223 -1377h-233l-143 766l-32 211h-8l-29 -211l-130 -766h-243z" />
    <glyph glyph-name="wacute" unicode="&#x1e83;" horiz-adv-x="1328" 
d="M257 0l-227 1377h241l99 -746l24 -279h8l30 279l132 746h213l136 -746l37 -279h8l17 279l87 746h236l-223 -1377h-233l-143 766l-32 211h-8l-29 -211l-130 -766h-243zM514 1567l290 416l169 -137l-334 -384z" />
    <glyph glyph-name="wcircumflex" unicode="&#x175;" horiz-adv-x="1328" 
d="M257 0l-227 1377h241l99 -746l24 -279h8l30 279l132 746h213l136 -746l37 -279h8l17 279l87 746h236l-223 -1377h-233l-143 766l-32 211h-8l-29 -211l-130 -766h-243zM748 1996l276 -491h-219l-88 192l-51 132l-50 -132l-94 -192h-218l270 491h174z" />
    <glyph glyph-name="wdieresis" unicode="&#x1e85;" horiz-adv-x="1328" 
d="M257 0l-227 1377h241l99 -746l24 -279h8l30 279l132 746h213l136 -746l37 -279h8l17 279l87 746h236l-223 -1377h-233l-143 766l-32 211h-8l-29 -211l-130 -766h-243zM441 1510q-78 0 -107.5 42.5t-29.5 122.5q0 86 29 130t108 44q82 0 113.5 -43t31.5 -131
q0 -77 -31.5 -121t-113.5 -44zM878 1510q-78 0 -107 42.5t-29 122.5q0 86 28.5 130t107.5 44q82 0 114 -43t32 -131q0 -77 -32 -121t-114 -44z" />
    <glyph glyph-name="wgrave" unicode="&#x1e81;" horiz-adv-x="1328" 
d="M257 0l-227 1377h241l99 -746l24 -279h8l30 279l132 746h213l136 -746l37 -279h8l17 279l87 746h236l-223 -1377h-233l-143 766l-32 211h-8l-29 -211l-130 -766h-243zM364 1846l169 137l290 -416l-125 -105z" />
    <glyph glyph-name="uni028D" unicode="&#x28d;" horiz-adv-x="1328" 
d="M30 0l223 1377h233l143 -766l32 -211h8l29 211l130 766h243l227 -1377h-241l-99 746l-24 279h-8l-30 -279l-132 -746h-213l-136 746l-37 279h-8l-17 -279l-87 -746h-236z" />
    <glyph glyph-name="x" unicode="x" horiz-adv-x="892" 
d="M306 699l-272 678h259l147 -451h2l156 451h242l-261 -654l293 -723h-259l-170 475h-8l-172 -475h-243z" />
    <glyph glyph-name="y" unicode="y" horiz-adv-x="888" 
d="M79 -265q115 -16 188 47.5t79 209.5l-326 1385h252l145 -762l42 -263h8l29 263l117 762h244l-283 -1428q-39 -198 -120 -296t-242 -98q-65 0 -133 25v155z" />
    <glyph glyph-name="yacute" unicode="&#xfd;" horiz-adv-x="888" 
d="M79 -265q115 -16 188 47.5t79 209.5l-326 1385h252l145 -762l42 -263h8l29 263l117 762h244l-283 -1428q-39 -198 -120 -296t-242 -98q-65 0 -133 25v155zM294 1567l290 416l169 -137l-334 -384z" />
    <glyph glyph-name="ycircumflex" unicode="&#x177;" horiz-adv-x="888" 
d="M79 -265q115 -16 188 47.5t79 209.5l-326 1385h252l145 -762l42 -263h8l29 263l117 762h244l-283 -1428q-39 -198 -120 -296t-242 -98q-65 0 -133 25v155zM528 1996l276 -491h-219l-88 192l-51 132l-50 -132l-94 -192h-218l270 491h174z" />
    <glyph glyph-name="ydieresis" unicode="&#xff;" horiz-adv-x="888" 
d="M79 -265q115 -16 188 47.5t79 209.5l-326 1385h252l145 -762l42 -263h8l29 263l117 762h244l-283 -1428q-39 -198 -120 -296t-242 -98q-65 0 -133 25v155zM221 1510q-78 0 -107.5 42.5t-29.5 122.5q0 86 29 130t108 44q82 0 113.5 -43t31.5 -131q0 -77 -31.5 -121
t-113.5 -44zM658 1510q-78 0 -107 42.5t-29 122.5q0 86 28.5 130t107.5 44q82 0 114 -43t32 -131q0 -77 -32 -121t-114 -44z" />
    <glyph glyph-name="uni1E8F" unicode="&#x1e8f;" horiz-adv-x="888" 
d="M79 -265q115 -16 188 47.5t79 209.5l-326 1385h252l145 -762l42 -263h8l29 263l117 762h244l-283 -1428q-39 -198 -120 -296t-242 -98q-65 0 -133 25v155zM442 1538q-70 0 -112.5 44t-42.5 124q0 89 42.5 126t113.5 37q74 0 115.5 -40t41.5 -123q0 -78 -42 -123t-116 -45
z" />
    <glyph glyph-name="uni1EF5" unicode="&#x1ef5;" horiz-adv-x="888" 
d="M79 -265q115 -16 188 47.5t79 209.5l-326 1385h252l145 -762l42 -263h8l29 263l117 762h244l-283 -1428q-39 -198 -120 -296t-242 -98q-65 0 -133 25v155zM618 -257q0 89 42.5 126t113.5 37q74 0 115.5 -40t41.5 -123q0 -78 -42 -123t-116 -45q-70 0 -112.5 44t-42.5 124
z" />
    <glyph glyph-name="ygrave" unicode="&#x1ef3;" horiz-adv-x="888" 
d="M79 -265q115 -16 188 47.5t79 209.5l-326 1385h252l145 -762l42 -263h8l29 263l117 762h244l-283 -1428q-39 -198 -120 -296t-242 -98q-65 0 -133 25v155zM144 1846l169 137l290 -416l-125 -105z" />
    <glyph glyph-name="uni1EF7" unicode="&#x1ef7;" horiz-adv-x="888" 
d="M79 -265q115 -16 188 47.5t79 209.5l-326 1385h252l145 -762l42 -263h8l29 263l117 762h244l-283 -1428q-39 -198 -120 -296t-242 -98q-65 0 -133 25v155zM352 1488v116q53 0 80.5 21.5t27.5 53.5q0 47 -54 80t-146 41l36 136q154 -16 243 -90t89 -172q0 -81 -67 -127
t-209 -59z" />
    <glyph glyph-name="uni0233" unicode="&#x233;" horiz-adv-x="888" 
d="M79 -265q115 -16 188 47.5t79 209.5l-326 1385h252l145 -762l42 -263h8l29 263l117 762h244l-283 -1428q-39 -198 -120 -296t-242 -98q-65 0 -133 25v155zM132 1746h623v-193h-623v193z" />
    <glyph glyph-name="uni1EF9" unicode="&#x1ef9;" horiz-adv-x="888" 
d="M79 -265q115 -16 188 47.5t79 209.5l-326 1385h252l145 -762l42 -263h8l29 263l117 762h244l-283 -1428q-39 -198 -120 -296t-242 -98q-65 0 -133 25v155zM609 1497q-61 0 -105.5 20t-86.5 58q-48 42 -69.5 64t-52.5 22q-43 0 -43 -64v-72h-178q-1 11 -2.5 41.5
t-1.5 40.5q0 94 30.5 144.5t81 70.5t109.5 20t99.5 -19.5t80.5 -57.5q26 -25 60.5 -56.5t65.5 -31.5q50 0 50 59v87h159q11 -65 11 -95q0 -115 -63.5 -173t-144.5 -58z" />
    <glyph glyph-name="uni028E" unicode="&#x28e;" horiz-adv-x="888" 
d="M798 1197q-115 17 -188 -47t-79 -210l326 -1385h-252l-145 762l-42 263h-8l-29 -263l-117 -762h-244l283 1428q38 198 120 296t242 98q65 0 133 -25v-155z" />
    <glyph glyph-name="z" unicode="z" horiz-adv-x="687" 
d="M14 126l381 1059h-361v192h632v-126l-382 -1059h389v-192h-659v126z" />
    <glyph glyph-name="zacute" unicode="&#x17a;" horiz-adv-x="687" 
d="M14 126l381 1059h-361v192h632v-126l-382 -1059h389v-192h-659v126zM194 1567l290 416l169 -137l-334 -384z" />
    <glyph glyph-name="zcaron" unicode="&#x17e;" horiz-adv-x="687" 
d="M14 126l381 1059h-361v192h632v-126l-382 -1059h389v-192h-659v126zM254 1505l-270 491h218l94 -192l50 -132l51 132l88 192h219l-276 -491h-174z" />
    <glyph glyph-name="zdotaccent" unicode="&#x17c;" horiz-adv-x="687" 
d="M14 126l381 1059h-361v192h632v-126l-382 -1059h389v-192h-659v126zM342 1538q-70 0 -112.5 44t-42.5 124q0 89 42.5 126t113.5 37q74 0 115.5 -40t41.5 -123q0 -78 -42 -123t-116 -45z" />
    <glyph glyph-name="uni1E93" unicode="&#x1e93;" horiz-adv-x="687" 
d="M14 126l381 1059h-361v192h632v-126l-382 -1059h389v-192h-659v126zM188 -257q0 89 42.5 126t113.5 37q74 0 115.5 -40t41.5 -123q0 -78 -42 -123t-116 -45q-70 0 -112.5 44t-42.5 124z" />
    <glyph glyph-name="zmacronbelow" unicode="&#x1e95;" horiz-adv-x="687" 
d="M14 126l381 1059h-361v192h632v-126l-382 -1059h389v-192h-659v126zM32 -156h623v-193h-623v193z" />
    <glyph glyph-name="uni013C.loclMAH" horiz-adv-x="511" 
d="M129 1819h253v-1819h-253v1819zM162 -71h210l-91 -422h-182z" />
    <glyph glyph-name="uni0146.loclMAH" horiz-adv-x="1011" 
d="M129 1377h193l25 -147v-1q59 95 134 129.5t151 34.5q120 0 186 -85t66 -253v-1055h-253v1025q0 91 -28 126.5t-82 35.5q-38 0 -74 -25t-65 -69v-1093h-253v1377zM412 -71h210l-91 -422h-182z" />
    <glyph glyph-name="uni01C2" unicode="&#x1c2;" horiz-adv-x="600" 
d="M170 -221v806h-170v192h170v369h-170v192h170v517h259v-517h171v-192h-171v-369h171v-192h-171v-806h-259z" />
    <glyph glyph-name="uni01C0" unicode="&#x1c0;" horiz-adv-x="541" 
d="M141 -221v2076h259v-2076h-259z" />
    <glyph glyph-name="uni01C1" unicode="&#x1c1;" horiz-adv-x="1012" 
d="M612 -221v2076h259v-2076h-259zM141 -221v2076h259v-2076h-259z" />
    <glyph glyph-name="uni01C3" unicode="&#x1c3;" horiz-adv-x="680" 
d="M238 559l-35 1258h273l-31 -1258h-207zM341 -10q-70 0 -112.5 48.5t-42.5 142.5q0 105 42 150.5t114 45.5q74 0 115.5 -48.5t41.5 -147.5q0 -91 -42 -141t-116 -50z" />
    <glyph glyph-name="ordfeminine" unicode="&#xaa;" horiz-adv-x="826" 
d="M304 649q-86 0 -139 37.5t-77 96t-24 122.5q0 83 31.5 144.5t81 105.5t103 73.5t98.5 47.5q19 8 51.5 21.5t64.5 22.5v159q0 54 -19 86t-72 32q-54 0 -88 -35t-34 -124v-46h-182q-8 38 -11 66t-3 56q0 61 32.5 117.5t103 93t183.5 36.5q135 0 203 -42.5t91.5 -108.5
t23.5 -138v-804h-172l-17 72q-36 -36 -99.5 -63.5t-129.5 -27.5zM395 814q31 0 55.5 11t43.5 27v323q-17 -6 -28.5 -10t-37.5 -15q-46 -19 -96 -70t-50 -131q0 -60 29.5 -97.5t83.5 -37.5z" />
    <glyph glyph-name="ordmasculine" unicode="&#xba;" horiz-adv-x="909" 
d="M466 666q-55 0 -115 16t-112 57t-84.5 113.5t-32.5 186.5v350q0 113 32.5 186t84.5 113.5t112 56.5t115 16q54 0 114 -16t112 -57t84.5 -114t32.5 -187v-347q0 -114 -32.5 -187t-84.5 -114t-112 -57t-114 -16zM466 830q71 0 96.5 52t25.5 157v348q0 106 -25.5 158
t-96.5 52t-97 -51.5t-26 -156.5v-349q0 -106 26 -158t97 -52z" />
    <glyph glyph-name="uni03A9" unicode="&#x3a9;" horiz-adv-x="1151" 
d="M24 0v190h317q-115 177 -187.5 390.5t-72.5 504.5q0 176 46 297.5t120.5 195t160.5 106.5t167 33q87 0 175 -33t160.5 -106.5t117 -195t44.5 -297.5q0 -292 -72.5 -505t-185.5 -390h313v-190h-495v182q27 72 60 149.5t63 177.5t49.5 239.5t19.5 336.5q0 172 -33 266
t-88.5 131t-125.5 37t-125.5 -37t-88.5 -131t-33 -266q0 -204 19 -344.5t48.5 -238.5t62 -173t58.5 -147v-182h-494z" />
    <glyph glyph-name="pi" unicode="&#x3c0;" horiz-adv-x="1200" 
d="M958 -6q-116 0 -177.5 40.5t-84 113.5t-22.5 168v893h-230l-81 -1208h-211l85 1208h-158v168h981v-168h-178q0 -33 0.5 -109.5t0.5 -180.5t0.5 -223t0.5 -237q0 -122 13 -178t33.5 -71.5t41.5 -15.5q35 0 75.5 4.5t74.5 30.5v-154q-16 -31 -67 -56t-97 -25z" />
    <glyph glyph-name="zero" unicode="0" horiz-adv-x="1065" 
d="M535 -15q-61 0 -133.5 18t-138 70.5t-107.5 154.5t-42 270v722q0 169 43 269.5t109 151t138.5 66.5t130.5 16q56 0 127 -15t137 -64.5t109 -150.5t43 -273v-722q0 -168 -43.5 -270t-110 -154.5t-137 -70.5t-125.5 -18zM535 187q77 0 115 48t38 154v925q0 111 -38 162.5
t-115 51.5q-79 0 -117.5 -51.5t-38.5 -162.5v-925q0 -106 38.5 -154t117.5 -48z" />
    <glyph glyph-name="one" unicode="1" horiz-adv-x="826" 
d="M150 0v195h198v1165l-212 -187l-112 131l388 404h193v-1513h197v-195h-652z" />
    <glyph glyph-name="two" unicode="2" horiz-adv-x="975" 
d="M97 0v152l377 726q67 129 98 214t40.5 142.5t9.5 101.5q0 184 -147 184q-80 0 -123.5 -73t-43.5 -208v-82h-200q-10 56 -18.5 102.5t-8.5 101.5q0 87 41 170t128 137.5t225 54.5q224 0 322 -102t98 -285q0 -69 -15.5 -137.5t-51.5 -153t-97 -201.5l-337 -640h499v-204
h-796z" />
    <glyph glyph-name="three" unicode="3" horiz-adv-x="1002" 
d="M487 -15q-196 0 -299 95.5t-103 267.5q0 43 6 94.5t19 106.5h202v-80q0 -160 50 -221t125 -61q74 0 116 45t42 153v182q0 109 -38 167t-138 58h-109v185h109q65 0 108 44.5t43 150.5v164q0 184 -144 184q-80 0 -124 -73t-44 -208v-82h-200q-10 50 -18.5 99.5t-8.5 104.5
q0 87 42.5 170t130.5 137.5t222 54.5q218 0 314.5 -98.5t96.5 -279.5v-105q0 -97 -31 -165.5t-79 -112.5t-100 -69v-8q100 -34 167.5 -115t67.5 -249v-113q0 -157 -58.5 -250t-155 -133t-211.5 -40z" />
    <glyph glyph-name="four" unicode="4" horiz-adv-x="1090" 
d="M642 0v306h-566v136l498 1266h309v-1199h158v-203h-158v-306h-241zM340 509h302v252l26 574h-32z" />
    <glyph glyph-name="five" unicode="5" horiz-adv-x="1020" 
d="M512 -15q-190 0 -290.5 99t-100.5 267q0 91 25 198h202v-134q0 -121 36 -175t116 -54q82 0 116 59.5t34 169.5v324q0 85 -19 129t-50.5 59.5t-71.5 15.5q-56 0 -96 -31.5t-66 -75.5h-191v872h734v-229h-518v-422q42 47 105.5 74.5t132.5 27.5q159 0 233 -107t74 -315
v-290q0 -175 -57.5 -276t-150 -143.5t-197.5 -42.5z" />
    <glyph glyph-name="six" unicode="6" horiz-adv-x="1040" 
d="M537 -15q-209 0 -321.5 118t-112.5 404v702q0 177 44 280.5t111 153.5t140 65t131 15q142 0 228.5 -51t126 -128t39.5 -156q0 -35 -6.5 -77.5t-20.5 -83.5h-200v37q0 108 -17 165t-54 78t-96 21q-80 0 -120.5 -48.5t-40.5 -177.5v-333q38 41 97 69.5t139 28.5
q58 0 117.5 -19t109.5 -65.5t80.5 -128.5t30.5 -209v-166q0 -182 -50 -290.5t-140.5 -156t-214.5 -47.5zM368 407q0 -117 39 -168.5t127 -51.5q77 0 110.5 55.5t33.5 164.5v247q0 124 -39 171.5t-109 47.5q-54 0 -95.5 -29t-66.5 -64v-373z" />
    <glyph glyph-name="seven" unicode="7" horiz-adv-x="838" 
d="M65 0l473 1480h-502v229h780v-137l-470 -1572h-281z" />
    <glyph glyph-name="eight" unicode="8" horiz-adv-x="1032" 
d="M516 -15q-78 0 -154.5 18t-140 64.5t-101.5 130.5t-38 216v105q0 151 60.5 235.5t151.5 129.5v8q-45 24 -88 65t-71.5 105.5t-28.5 156.5v120q0 125 42 201.5t106.5 116t135 53t127.5 13.5q58 0 128.5 -13.5t135 -53t106.5 -115.5t42 -201v-120q0 -92 -28.5 -156.5
t-71.5 -105.5t-88 -65v-8q92 -45 152 -129.5t60 -235.5v-105q0 -132 -38.5 -216t-102.5 -131t-141 -65t-155 -18zM505 976h24q59 0 98 42t39 160v126q0 105 -34.5 160.5t-114.5 55.5t-113.5 -56t-33.5 -162v-125q0 -113 35.5 -157t99.5 -44zM516 187q44 0 83 17.5t63.5 63.5
t24.5 133v181q0 112 -42.5 160.5t-115.5 48.5h-25q-73 0 -114.5 -50.5t-41.5 -159.5v-181q0 -87 23.5 -133t62 -63t82.5 -17z" />
    <glyph glyph-name="nine" unicode="9" horiz-adv-x="1040" 
d="M503 1723q209 0 321.5 -118t112.5 -404v-702q0 -177 -44 -280.5t-111 -153.5t-140 -65t-131 -15q-141 0 -228 51t-126.5 128t-39.5 156q0 35 7 77.5t20 83.5h200v-37q0 -107 17 -164.5t54 -78.5t96 -21q80 0 120.5 48.5t40.5 177.5v333q-38 -41 -97 -69.5t-139 -28.5
q-58 0 -117.5 19t-109.5 65.5t-80.5 128.5t-30.5 209v166q0 182 50 290.5t141 156t214 47.5zM672 1301q0 117 -39 168.5t-127 51.5q-76 0 -110 -55t-34 -165v-247q0 -124 39 -171.5t109 -47.5q54 0 95.5 29t66.5 64v373z" />
    <glyph glyph-name="zero.tf" horiz-adv-x="1043" 
d="M103 1220q0 169 43 269.5t109 151t138.5 66.5t130.5 16q56 0 127 -15t137 -64.5t109 -150.5t43 -273v-722q0 -168 -43.5 -270t-110 -154.5t-137 -70.5t-125.5 -18q-61 0 -133.5 18t-138 70.5t-107.5 154.5t-42 270v722zM368 389q0 -106 38.5 -154t117.5 -48q77 0 115 48
t38 154v925q0 111 -38 162.5t-115 51.5q-79 0 -117.5 -51.5t-38.5 -162.5v-925z" />
    <glyph glyph-name="one.tf" horiz-adv-x="1043" 
d="M197 195h248v1165l-252 -157l-112 131l428 374h193v-1513h237v-195h-742v195z" />
    </font>
</defs>
</svg>
