<?xml version="1.0" standalone="no"?>
<!DOCTYPE svg PUBLIC "-//W3C//DTD SVG 1.1//EN" "http://www.w3.org/Graphics/SVG/1.1/DTD/svg11.dtd" >
<svg xmlns="http://www.w3.org/2000/svg" xmlns:xlink="http://www.w3.org/1999/xlink" version="1.1">
<metadata>
Created by FontForge 20230101 at Fri Oct 21 06:11:42 2022
 By Glenn Lewis
Copyright 2019 The Chivo Project Authors (https://github.com/Omnibus-Type/Chivo)
</metadata>
<defs>
<font id="Chivo-MediumItalic" horiz-adv-x="0" >
  <font-face 
    font-family="Chivo Medium"
    font-weight="500"
    font-style="italic"
    font-stretch="normal"
    units-per-em="1000"
    panose-1="0 0 0 0 0 0 0 0 0 0"
    ascent="800"
    descent="-200"
    x-height="511"
    cap-height="686"
    bbox="-196 -337 1296 1111"
    underline-thickness="72"
    underline-position="-206"
    slope="-8.05"
    unicode-range="U+000D-1FA9D"
  />
<missing-glyph horiz-adv-x="500" 
d="M0 0v700h500v-700h-500zM80 50h340l-170 255zM50 95l170 255l-170 255v-510zM450 95v510l-170 -255zM250 395l170 255h-340z" />
    <glyph glyph-name="f_f" unicode="ff" horiz-adv-x="687" 
d="M-2 -184q-15 0 -32 2.5t-32.5 6.5t-26.5 10l10 79q11 -5 30 -9t30 -4q23 0 41.5 12.5t24.5 52.5l66 458h-59l11 87h60l11 78q7 50 28 80.5t54.5 44.5t75.5 14q15 0 32.5 -2.5t34.5 -6.5t28 -11l-11 -78q-11 5 -29.5 9t-30.5 4q-28 0 -44 -13.5t-22 -54.5l-10 -64h218
l11 78q7 50 28 80.5t54.5 44.5t75.5 14q15 0 32.5 -2.5t34.5 -6.5t28 -11l-11 -78q-11 5 -29.5 9t-30.5 4q-27 0 -43.5 -13.5t-22.5 -54.5l-10 -64h120l-11 -87h-120l-65 -456q-11 -81 -55 -116.5t-109 -35.5q-15 0 -32 2.5t-32.5 6.5t-26.5 10l10 79q11 -5 30 -9t31 -4
q23 0 41 12.5t24 52.5l67 458h-218l-65 -456q-11 -81 -55 -116.5t-109 -35.5z" />
    <glyph glyph-name="f_f_i" unicode="ffi" horiz-adv-x="949" 
d="M-2 -184q-15 0 -32 2.5t-32.5 6.5t-26.5 10l10 79q11 -5 30 -9t30 -4q23 0 41.5 12.5t24.5 52.5l66 458h-59l11 87h60l11 78q7 50 28 80.5t54.5 44.5t75.5 14q15 0 32.5 -2.5t34.5 -6.5t28 -11l-11 -78q-11 5 -29.5 9t-30.5 4q-28 0 -44 -13.5t-22 -54.5l-10 -64h218
l11 78q7 50 28 80.5t54.5 44.5t75.5 14q15 0 32.5 -2.5t34.5 -6.5t28 -11l-11 -78q-11 5 -29.5 9t-30.5 4q-27 0 -43.5 -13.5t-22.5 -54.5l-10 -64h120l-11 -87h-120l-65 -456q-11 -81 -55 -116.5t-109 -35.5q-15 0 -32 2.5t-32.5 6.5t-26.5 10l10 79q11 -5 30 -9t31 -4
q23 0 41 12.5t24 52.5l67 458h-218l-65 -456q-11 -81 -55 -116.5t-109 -35.5zM710 0l72 511h118l-72 -511h-118zM796 620l13 100h122l-14 -100h-121z" />
    <glyph glyph-name="f_f_l" unicode="ffl" horiz-adv-x="948" 
d="M-2 -184q-15 0 -32 2.5t-32.5 6.5t-26.5 10l10 79q11 -5 30 -9t30 -4q23 0 41.5 12.5t24.5 52.5l66 458h-59l11 87h60l11 78q7 50 28 80.5t54.5 44.5t75.5 14q15 0 32.5 -2.5t34.5 -6.5t28 -11l-11 -78q-11 5 -29.5 9t-30.5 4q-28 0 -44 -13.5t-22 -54.5l-10 -64h218
l11 78q7 50 28 80.5t54.5 44.5t75.5 14q15 0 32.5 -2.5t34.5 -6.5t28 -11l-11 -78q-11 5 -29.5 9t-30.5 4q-27 0 -43.5 -13.5t-22.5 -54.5l-10 -64h120l-11 -87h-120l-65 -456q-11 -81 -55 -116.5t-109 -35.5q-15 0 -32 2.5t-32.5 6.5t-26.5 10l10 79q11 -5 30 -9t31 -4
q23 0 41 12.5t24 52.5l67 458h-218l-65 -456q-11 -81 -55 -116.5t-109 -35.5zM707 0l101 720h118l-101 -720h-118z" />
    <glyph glyph-name="fi" unicode="fi" horiz-adv-x="620" 
d="M-2 -184q-15 0 -32 2.5t-32.5 6.5t-26.5 10l10 79q11 -5 30 -9t30 -4q23 0 41.5 12.5t24.5 52.5l66 458h-59l11 87h60l11 78q7 50 28 80.5t54.5 44.5t75.5 14q15 0 32.5 -2.5t34.5 -6.5t28 -11l-11 -78q-11 5 -29.5 9t-30.5 4q-26 0 -43.5 -13t-22.5 -51l-10 -68h120
l-12 -87h-119l-65 -456q-11 -81 -55 -116.5t-109 -35.5zM382 0l72 511h118l-72 -511h-118zM468 620l14 100h121l-14 -100h-121z" />
    <glyph glyph-name="fl" unicode="fl" horiz-adv-x="624" 
d="M-2 -184q-15 0 -32 2.5t-32.5 6.5t-26.5 10l10 79q11 -5 30 -9t30 -4q23 0 41.5 12.5t24.5 52.5l66 458h-59l11 87h60l11 78q7 50 28 80.5t54.5 44.5t75.5 14q15 0 32.5 -2.5t34.5 -6.5t28 -11l-11 -78q-11 5 -29.5 9t-30.5 4q-26 0 -43.5 -13t-22.5 -51l-10 -68h120
l-12 -87h-119l-65 -456q-11 -81 -55 -116.5t-109 -35.5zM382 0l101 720h118l-101 -720h-118z" />
    <glyph glyph-name=".notdef" horiz-adv-x="500" 
d="M0 0v700h500v-700h-500zM80 50h340l-170 255zM50 95l170 255l-170 255v-510zM450 95v510l-170 -255zM250 395l170 255h-340z" />
    <glyph glyph-name="A" unicode="A" horiz-adv-x="667" 
d="M-41 0l356 686h143l162 -686h-131l-34 143h-303l-73 -143h-120zM205 244h227l-68 302h-5z" />
    <glyph glyph-name="Aacute" unicode="&#xc1;" horiz-adv-x="667" 
d="M-41 0l356 686h143l162 -686h-131l-34 143h-303l-73 -143h-120zM205 244h227l-68 302h-5zM360 755l114 135h113v-3l-132 -132h-95z" />
    <glyph glyph-name="Abreve" unicode="&#x102;" horiz-adv-x="667" 
d="M-41 0l356 686h143l162 -686h-131l-34 143h-303l-73 -143h-120zM205 244h227l-68 302h-5zM397 760q-76 0 -113 36.5t-33 89.5h74q3 -32 22 -46.5t55 -14.5q39 0 63.5 14.5t37.5 46.5h73q-11 -53 -56.5 -89.5t-122.5 -36.5z" />
    <glyph glyph-name="uni1EAE" unicode="&#x1eae;" horiz-adv-x="667" 
d="M-41 0l356 686h143l162 -686h-131l-34 143h-303l-73 -143h-120zM205 244h227l-68 302h-5zM364 897l115 145h103v-3l-137 -142h-81zM399 760q-58 0 -97 17t-57 45.5t-13 63.5h74q4 -32 28.5 -46.5t70.5 -14.5q47 0 76 14.5t43 46.5h73q-5 -35 -30.5 -63.5t-68 -45.5
t-99.5 -17z" />
    <glyph glyph-name="uni1EB6" unicode="&#x1eb6;" horiz-adv-x="667" 
d="M-41 0l356 686h143l162 -686h-131l-34 143h-303l-73 -143h-120zM205 244h227l-68 302h-5zM209 -187l15 109h105l-16 -109h-104z" />
    <glyph glyph-name="uni1EB0" unicode="&#x1eb0;" horiz-adv-x="667" 
d="M-41 0l356 686h143l162 -686h-131l-34 143h-303l-73 -143h-120zM205 244h227l-68 302h-5zM385 897l-97 142l2 3h103l73 -145h-81zM400 760q-58 0 -97 17t-57 45.5t-13 63.5h74q4 -32 28.5 -46.5t70.5 -14.5q47 0 76 14.5t43 46.5h73q-5 -35 -30.5 -63.5t-68 -45.5
t-99.5 -17z" />
    <glyph glyph-name="uni1EB2" unicode="&#x1eb2;" horiz-adv-x="667" 
d="M-41 0l356 686h143l162 -686h-131l-34 143h-303l-73 -143h-120zM205 244h227l-68 302h-5zM393 897l7 49q29 2 46 16t17 36q0 14 -11.5 21.5t-28.5 7.5q-11 0 -25 -2.5t-30 -7.5l9 61q15 5 30.5 7t29.5 2q38 0 62.5 -19t24.5 -54q0 -32 -19 -58t-49 -41.5t-63 -17.5z
M398 760q-58 0 -97 17t-57 45.5t-13 63.5h74q4 -32 28.5 -46.5t70.5 -14.5q47 0 76 14.5t43 46.5h73q-5 -35 -30.5 -63.5t-68 -45.5t-99.5 -17z" />
    <glyph glyph-name="uni1EB4" unicode="&#x1eb4;" horiz-adv-x="667" 
d="M-41 0l356 686h143l162 -686h-131l-34 143h-303l-73 -143h-120zM205 244h227l-68 302h-5zM232 923q4 28 21 55t45 44.5t67 17.5q32 0 54 -8.5t42 -17.5t47 -9q22 0 36.5 9t22.5 26h56q-4 -27 -20.5 -54t-45 -45t-67.5 -18q-31 0 -52 8.5t-41 17.5t-50 10q-22 0 -36 -9.5
t-22 -26.5h-57zM397 760q-58 0 -97 17t-57 45.5t-13 63.5h74q4 -32 28.5 -46.5t70.5 -14.5q47 0 76 14.5t43 46.5h73q-5 -35 -30.5 -63.5t-68 -45.5t-99.5 -17z" />
    <glyph glyph-name="uni01CD" unicode="&#x1cd;" horiz-adv-x="667" 
d="M-41 0l356 686h143l162 -686h-131l-34 143h-303l-73 -143h-120zM205 244h227l-68 302h-5zM341 760l-99 125h97l78 -99h-35l107 99h96l-131 -125h-113z" />
    <glyph glyph-name="Acircumflex" unicode="&#xc2;" horiz-adv-x="667" 
d="M-41 0l356 686h143l162 -686h-131l-34 143h-303l-73 -143h-120zM205 244h227l-68 302h-5zM223 760l131 125h113l101 -125h-97l-78 99h35l-109 -99h-96z" />
    <glyph glyph-name="uni1EA4" unicode="&#x1ea4;" horiz-adv-x="667" 
d="M-41 0l356 686h143l162 -686h-131l-34 143h-303l-73 -143h-120zM205 244h227l-68 302h-5zM378 921l101 129h103l1 -3l-124 -126h-81zM215 760l154 125h90l118 -125h-88l-80 69l-101 -69h-93z" />
    <glyph glyph-name="uni1EAC" unicode="&#x1eac;" horiz-adv-x="667" 
d="M-41 0l356 686h143l162 -686h-131l-34 143h-303l-73 -143h-120zM205 244h227l-68 302h-5zM209 -187l15 109h105l-16 -109h-104z" />
    <glyph glyph-name="uni1EA6" unicode="&#x1ea6;" horiz-adv-x="667" 
d="M-41 0l356 686h143l162 -686h-131l-34 143h-303l-73 -143h-120zM205 244h227l-68 302h-5zM379 921l-88 126l1 3h103l65 -129h-81zM216 760l154 125h90l118 -125h-88l-80 69l-101 -69h-93z" />
    <glyph glyph-name="uni1EA8" unicode="&#x1ea8;" horiz-adv-x="667" 
d="M-41 0l356 686h143l162 -686h-131l-34 143h-303l-73 -143h-120zM205 244h227l-68 302h-5zM403 921l7 49q29 2 45.5 16t16.5 36q0 15 -11.5 22.5t-28.5 7.5q-11 0 -25 -2.5t-30 -8.5l8 61q16 5 31.5 7t29.5 2q38 0 62 -18.5t24 -53.5q0 -33 -19 -59t-48.5 -41.5
t-61.5 -17.5zM215 760l154 125h90l118 -125h-88l-80 69l-101 -69h-93z" />
    <glyph glyph-name="uni1EAA" unicode="&#x1eaa;" horiz-adv-x="667" 
d="M-41 0l356 686h143l162 -686h-131l-34 143h-303l-73 -143h-120zM205 244h227l-68 302h-5zM232 922q4 28 21 55t45.5 44.5t66.5 17.5q32 0 54 -8.5t42 -17.5t47 -9q22 0 36.5 9t22.5 26h56q-4 -27 -20.5 -54t-45 -45t-67.5 -18q-31 0 -52 8.5t-41 17.5t-50 10
q-22 0 -36 -9.5t-22 -26.5h-57zM215 760l154 125h90l118 -125h-88l-80 69l-101 -69h-93z" />
    <glyph glyph-name="uni0200" unicode="&#x200;" horiz-adv-x="667" 
d="M-41 0l356 686h143l162 -686h-131l-34 143h-303l-73 -143h-120zM205 244h227l-68 302h-5zM448 750l-98 142l2 3h99l74 -145h-77zM278 750l-98 142l1 3h100l74 -145h-77z" />
    <glyph glyph-name="Adieresis" unicode="&#xc4;" horiz-adv-x="667" 
d="M-41 0l356 686h143l162 -686h-131l-34 143h-303l-73 -143h-120zM205 244h227l-68 302h-5zM233 769l14 103h104l-14 -103h-104zM459 769l14 103h103l-14 -103h-103z" />
    <glyph glyph-name="uni1EA0" unicode="&#x1ea0;" horiz-adv-x="667" 
d="M-41 0l356 686h143l162 -686h-131l-34 143h-303l-73 -143h-120zM205 244h227l-68 302h-5zM209 -187l15 109h105l-16 -109h-104z" />
    <glyph glyph-name="Agrave" unicode="&#xc0;" horiz-adv-x="667" 
d="M-41 0l356 686h143l162 -686h-131l-34 143h-303l-73 -143h-120zM205 244h227l-68 302h-5zM361 755l-99 132v3h105l81 -135h-87z" />
    <glyph glyph-name="uni1EA2" unicode="&#x1ea2;" horiz-adv-x="667" 
d="M-41 0l356 686h143l162 -686h-131l-34 143h-303l-73 -143h-120zM205 244h227l-68 302h-5zM367 729l8 59q35 3 55 19t20 43q0 17 -12.5 26t-34.5 9q-13 0 -30 -3t-37 -9l10 73q20 6 38.5 8.5t34.5 2.5q47 0 75.5 -22t28.5 -64q0 -39 -23 -70.5t-58.5 -50.5t-74.5 -21z" />
    <glyph glyph-name="uni0202" unicode="&#x202;" horiz-adv-x="667" 
d="M-41 0l356 686h143l162 -686h-131l-34 143h-303l-73 -143h-120zM205 244h227l-68 302h-5zM213 760q5 35 30 63.5t67 45.5t99 17q59 0 98 -17t57.5 -45.5t13.5 -63.5h-74q-4 32 -28 46.5t-71 14.5q-46 0 -75.5 -14.5t-43.5 -46.5h-73z" />
    <glyph glyph-name="Amacron" unicode="&#x100;" horiz-adv-x="667" 
d="M-41 0l356 686h143l162 -686h-131l-34 143h-303l-73 -143h-120zM205 244h227l-68 302h-5zM240 785l10 66h319l-10 -66h-319z" />
    <glyph glyph-name="Aogonek" unicode="&#x104;" horiz-adv-x="667" 
d="M-41 0l356 686h143l162 -686h-131l-34 143h-303l-73 -143h-120zM205 244h227l-68 302h-5zM517 -143q-32 0 -60 13.5t-28 47.5q0 28 18.5 49.5t40.5 32.5h65q-25 -13 -40 -29t-15 -36q0 -17 12.5 -24t26.5 -7q17 0 35 4.5t34 9.5l7 -37q-23 -12 -47 -18t-49 -6z" />
    <glyph glyph-name="Aring" unicode="&#xc5;" horiz-adv-x="667" 
d="M-41 0l356 686h143l162 -686h-131l-34 143h-303l-73 -143h-120zM205 244h227l-68 302h-5zM390 729q-39 0 -62.5 23t-23.5 60q0 33 16.5 60t43.5 42.5t58 15.5q39 0 62.5 -23t23.5 -60q0 -33 -16.5 -60t-43 -42.5t-58.5 -15.5zM399 781q24 0 39 17.5t15 39.5
q0 17 -10.5 28.5t-29.5 11.5q-24 0 -39 -17t-15 -40q0 -17 10.5 -28.5t29.5 -11.5z" />
    <glyph glyph-name="Aringacute" unicode="&#x1fa;" horiz-adv-x="667" 
d="M-41 0l356 686h143l162 -686h-131l-34 143h-303l-73 -143h-120zM205 244h227l-68 302h-5zM389 986l77 117h93l1 -2l-98 -115h-73zM382 742q-39 0 -62.5 23t-23.5 60q0 33 16.5 60t43.5 42.5t58 15.5q39 0 62.5 -23t23.5 -60q0 -33 -16.5 -60t-43 -42.5t-58.5 -15.5z
M391 794q24 0 39 17.5t15 39.5q0 17 -10.5 28.5t-29.5 11.5q-24 0 -39 -17t-15 -40q0 -17 10.5 -28.5t29.5 -11.5z" />
    <glyph glyph-name="Atilde" unicode="&#xc3;" horiz-adv-x="667" 
d="M-41 0l356 686h143l162 -686h-131l-34 143h-303l-73 -143h-120zM205 244h227l-68 302h-5zM213 761q6 35 20.5 62.5t39 44t59.5 16.5q38 0 63.5 -10.5t46 -21.5t42.5 -11t35 11.5t21 31.5h56q-5 -33 -19.5 -61t-38.5 -45t-60 -17q-38 0 -64.5 11t-47 22t-43.5 11
q-19 0 -31 -10.5t-22 -33.5h-57z" />
    <glyph glyph-name="AE" unicode="&#xc6;" horiz-adv-x="992" 
d="M-40 0l450 686h587l-30 -105h-405l18 -179h335l-15 -103h-311l20 -194h296v-105h-418l-14 143h-303l-93 -143h-117zM238 244h228l-27 302h-5z" />
    <glyph glyph-name="AEacute" unicode="&#x1fc;" horiz-adv-x="992" 
d="M-40 0l450 686h587l-30 -105h-405l18 -179h335l-15 -103h-311l20 -194h296v-105h-418l-14 143h-303l-93 -143h-117zM238 244h228l-27 302h-5zM488 755l114 135h113v-3l-132 -132h-95z" />
    <glyph glyph-name="B" unicode="B" horiz-adv-x="649" 
d="M38 0l97 686h313q48 0 85 -18t58.5 -50.5t21.5 -77.5q0 -58 -23 -95.5t-56 -58t-63 -28.5l-1 -5q17 -3 36.5 -13t37 -27.5t28.5 -42.5t11 -60q0 -64 -29 -111t-78 -73t-110 -26h-328zM172 94h180q29 0 54 15t40 42.5t15 64.5q0 35 -22.5 60.5t-59.5 25.5h-178zM215 396
h175q27 0 50.5 17.5t38 44.5t14.5 55q0 41 -22 60t-56 19h-174z" />
    <glyph glyph-name="C" unicode="C" horiz-adv-x="672" 
d="M300 -10q-70 0 -127.5 28.5t-91.5 83.5t-34 134q0 21 6 65.5t12 87.5q11 76 38.5 133.5t70.5 96t98 58t119 19.5h10q68 0 121.5 -25t85 -74.5t31.5 -123.5q0 -13 -1 -26.5t-3 -27.5h-121q2 11 2.5 21t1.5 22q0 44 -17 72.5t-46.5 42.5t-68.5 14q-52 0 -92.5 -22
t-66.5 -66.5t-36 -113.5q-5 -37 -8.5 -61.5t-5.5 -40.5t-2.5 -26.5t-0.5 -19.5q0 -49 18 -81.5t50.5 -48.5t75.5 -16q48 0 85.5 18t62 56t32.5 96h115q-13 -91 -55 -152.5t-106.5 -92t-145.5 -30.5h-6z" />
    <glyph glyph-name="Cacute" unicode="&#x106;" horiz-adv-x="672" 
d="M300 -10q-70 0 -127.5 28.5t-91.5 83.5t-34 134q0 21 6 65.5t12 87.5q11 76 38.5 133.5t70.5 96t98 58t119 19.5h10q68 0 121.5 -25t85 -74.5t31.5 -123.5q0 -13 -1 -26.5t-3 -27.5h-121q2 11 2.5 21t1.5 22q0 44 -17 72.5t-46.5 42.5t-68.5 14q-52 0 -92.5 -22
t-66.5 -66.5t-36 -113.5q-5 -37 -8.5 -61.5t-5.5 -40.5t-2.5 -26.5t-0.5 -19.5q0 -49 18 -81.5t50.5 -48.5t75.5 -16q48 0 85.5 18t62 56t32.5 96h115q-13 -91 -55 -152.5t-106.5 -92t-145.5 -30.5h-6zM356 755l114 135h113v-3l-132 -132h-95z" />
    <glyph glyph-name="Ccaron" unicode="&#x10c;" horiz-adv-x="672" 
d="M300 -10q-70 0 -127.5 28.5t-91.5 83.5t-34 134q0 21 6 65.5t12 87.5q11 76 38.5 133.5t70.5 96t98 58t119 19.5h10q68 0 121.5 -25t85 -74.5t31.5 -123.5q0 -13 -1 -26.5t-3 -27.5h-121q2 11 2.5 21t1.5 22q0 44 -17 72.5t-46.5 42.5t-68.5 14q-52 0 -92.5 -22
t-66.5 -66.5t-36 -113.5q-5 -37 -8.5 -61.5t-5.5 -40.5t-2.5 -26.5t-0.5 -19.5q0 -49 18 -81.5t50.5 -48.5t75.5 -16q48 0 85.5 18t62 56t32.5 96h115q-13 -91 -55 -152.5t-106.5 -92t-145.5 -30.5h-6zM337 760l-99 125h97l78 -99h-35l107 99h96l-131 -125h-113z" />
    <glyph glyph-name="Ccedilla" unicode="&#xc7;" horiz-adv-x="672" 
d="M300 -10q-70 0 -127.5 28.5t-91.5 83.5t-34 134q0 21 6 65.5t12 87.5q11 76 38.5 133.5t70.5 96t98 58t119 19.5h10q68 0 121.5 -25t85 -74.5t31.5 -123.5q0 -13 -1 -26.5t-3 -27.5h-121q2 11 2.5 21t1.5 22q0 44 -17 72.5t-46.5 42.5t-68.5 14q-52 0 -92.5 -22
t-66.5 -66.5t-36 -113.5q-5 -37 -8.5 -61.5t-5.5 -40.5t-2.5 -26.5t-0.5 -19.5q0 -49 18 -81.5t50.5 -48.5t75.5 -16q48 0 85.5 18t62 56t32.5 96h115q-13 -91 -55 -152.5t-106.5 -92t-145.5 -30.5h-6zM258 -209q-26 0 -52 5.5t-43 17.5l21 50q9 -8 27 -15t46 -7q16 0 31 5
t25 15.5t10 28.5q0 20 -11.5 27.5t-32.5 7.5h-20l7 45h31q35 0 64 -16.5t29 -57.5t-23 -64.5t-53.5 -32.5t-55.5 -9z" />
    <glyph glyph-name="Ccircumflex" unicode="&#x108;" horiz-adv-x="672" 
d="M300 -10q-70 0 -127.5 28.5t-91.5 83.5t-34 134q0 21 6 65.5t12 87.5q11 76 38.5 133.5t70.5 96t98 58t119 19.5h10q68 0 121.5 -25t85 -74.5t31.5 -123.5q0 -13 -1 -26.5t-3 -27.5h-121q2 11 2.5 21t1.5 22q0 44 -17 72.5t-46.5 42.5t-68.5 14q-52 0 -92.5 -22
t-66.5 -66.5t-36 -113.5q-5 -37 -8.5 -61.5t-5.5 -40.5t-2.5 -26.5t-0.5 -19.5q0 -49 18 -81.5t50.5 -48.5t75.5 -16q48 0 85.5 18t62 56t32.5 96h115q-13 -91 -55 -152.5t-106.5 -92t-145.5 -30.5h-6zM219 760l131 125h113l101 -125h-97l-78 99h35l-109 -99h-96z" />
    <glyph glyph-name="Cdotaccent" unicode="&#x10a;" horiz-adv-x="672" 
d="M300 -10q-70 0 -127.5 28.5t-91.5 83.5t-34 134q0 21 6 65.5t12 87.5q11 76 38.5 133.5t70.5 96t98 58t119 19.5h10q68 0 121.5 -25t85 -74.5t31.5 -123.5q0 -13 -1 -26.5t-3 -27.5h-121q2 11 2.5 21t1.5 22q0 44 -17 72.5t-46.5 42.5t-68.5 14q-52 0 -92.5 -22
t-66.5 -66.5t-36 -113.5q-5 -37 -8.5 -61.5t-5.5 -40.5t-2.5 -26.5t-0.5 -19.5q0 -49 18 -81.5t50.5 -48.5t75.5 -16q48 0 85.5 18t62 56t32.5 96h115q-13 -91 -55 -152.5t-106.5 -92t-145.5 -30.5h-6zM341 769l14 104h105l-14 -104h-105z" />
    <glyph glyph-name="D" unicode="D" horiz-adv-x="681" 
d="M38 0l97 686h255q72 0 128 -28t88.5 -82t32.5 -134q0 -11 -1 -24t-4 -38.5t-10 -77.5q-10 -76 -37.5 -133t-71.5 -94.5t-103.5 -56t-132.5 -18.5h-241zM178 105h124q49 0 89 19.5t67.5 61t36.5 105.5q6 46 10 73t5.5 44.5t1.5 31.5q0 48 -18.5 79t-50.5 46.5t-75 15.5
h-124z" />
    <glyph glyph-name="uni01C4" unicode="&#x1c4;" horiz-adv-x="1293" 
d="M38 0l97 686h255q72 0 128 -28t88.5 -82t32.5 -134q0 -11 -1 -24t-4 -38.5t-10 -77.5q-10 -76 -37.5 -133t-71.5 -94.5t-103.5 -56t-132.5 -18.5h-241zM178 105h124q49 0 89 19.5t67.5 61t36.5 105.5q6 46 10 73t5.5 44.5t1.5 31.5q0 48 -18.5 79t-50.5 46.5t-75 15.5
h-124zM673 0l6 43l418 538h-318l15 105h502l-6 -44l-418 -537h350l-15 -105h-534zM989 760l-99 125h97l78 -99h-35l107 99h96l-131 -125h-113z" />
    <glyph glyph-name="Eth" unicode="&#xd0;" horiz-adv-x="681" 
d="M38 0l97 686h255q72 0 128 -28t88.5 -82t32.5 -134q0 -11 -1 -24t-4 -38.5t-10 -77.5q-10 -76 -37.5 -133t-71.5 -94.5t-103.5 -56t-132.5 -18.5h-241zM178 105h124q49 0 89 19.5t67.5 61t36.5 105.5q6 46 10 73t5.5 44.5t1.5 31.5q0 48 -18.5 79t-50.5 46.5t-75 15.5
h-124zM16 303l13 90h325l-13 -90h-325z" />
    <glyph glyph-name="Dcaron" unicode="&#x10e;" horiz-adv-x="681" 
d="M38 0l97 686h255q72 0 128 -28t88.5 -82t32.5 -134q0 -11 -1 -24t-4 -38.5t-10 -77.5q-10 -76 -37.5 -133t-71.5 -94.5t-103.5 -56t-132.5 -18.5h-241zM178 105h124q49 0 89 19.5t67.5 61t36.5 105.5q6 46 10 73t5.5 44.5t1.5 31.5q0 48 -18.5 79t-50.5 46.5t-75 15.5
h-124zM339 760l-99 125h97l78 -99h-35l107 99h96l-131 -125h-113z" />
    <glyph glyph-name="Dcroat" unicode="&#x110;" horiz-adv-x="681" 
d="M38 0l97 686h255q72 0 128 -28t88.5 -82t32.5 -134q0 -11 -1 -24t-4 -38.5t-10 -77.5q-10 -76 -37.5 -133t-71.5 -94.5t-103.5 -56t-132.5 -18.5h-241zM178 105h124q49 0 89 19.5t67.5 61t36.5 105.5q6 46 10 73t5.5 44.5t1.5 31.5q0 48 -18.5 79t-50.5 46.5t-75 15.5
h-124zM16 303l13 90h325l-13 -90h-325z" />
    <glyph glyph-name="uni01C5" unicode="&#x1c5;" horiz-adv-x="1155" 
d="M38 0l97 686h255q72 0 128 -28t88.5 -82t32.5 -134q0 -11 -1 -24t-4 -38.5t-10 -77.5q-10 -76 -37.5 -133t-71.5 -94.5t-103.5 -56t-132.5 -18.5h-241zM178 105h124q49 0 89 19.5t67.5 61t36.5 105.5q6 46 10 73t5.5 44.5t1.5 31.5q0 48 -18.5 79t-50.5 46.5t-75 15.5
h-124zM679 0l6 44l288 380h-221l12 87h380l-6 -43l-289 -381h243l-11 -87h-402zM1157 758l-149 -170h-99l-101 170h90l92 -157h-63l136 157h94z" />
    <glyph glyph-name="E" unicode="E" horiz-adv-x="595" 
d="M38 0l97 686h465l-28 -96h-327l-27 -191h300l-14 -96h-300l-29 -207h332l1 -96h-470z" />
    <glyph glyph-name="Eacute" unicode="&#xc9;" horiz-adv-x="595" 
d="M38 0l97 686h465l-28 -96h-327l-27 -191h300l-14 -96h-300l-29 -207h332l1 -96h-470zM343 755l114 135h113v-3l-132 -132h-95z" />
    <glyph glyph-name="Ebreve" unicode="&#x114;" horiz-adv-x="595" 
d="M38 0l97 686h465l-28 -96h-327l-27 -191h300l-14 -96h-300l-29 -207h332l1 -96h-470zM380 760q-76 0 -113 36.5t-33 89.5h74q3 -32 22 -46.5t55 -14.5q39 0 63.5 14.5t37.5 46.5h73q-11 -53 -56.5 -89.5t-122.5 -36.5z" />
    <glyph glyph-name="Ecaron" unicode="&#x11a;" horiz-adv-x="595" 
d="M38 0l97 686h465l-28 -96h-327l-27 -191h300l-14 -96h-300l-29 -207h332l1 -96h-470zM324 760l-99 125h97l78 -99h-35l107 99h96l-131 -125h-113z" />
    <glyph glyph-name="Ecircumflex" unicode="&#xca;" horiz-adv-x="595" 
d="M38 0l97 686h465l-28 -96h-327l-27 -191h300l-14 -96h-300l-29 -207h332l1 -96h-470zM206 760l131 125h113l101 -125h-97l-78 99h35l-109 -99h-96z" />
    <glyph glyph-name="uni1EBE" unicode="&#x1ebe;" horiz-adv-x="595" 
d="M38 0l97 686h465l-28 -96h-327l-27 -191h300l-14 -96h-300l-29 -207h332l1 -96h-470zM361 921l101 129h103l1 -3l-124 -126h-81zM198 760l154 125h90l118 -125h-88l-80 69l-101 -69h-93z" />
    <glyph glyph-name="uni1EC6" unicode="&#x1ec6;" horiz-adv-x="595" 
d="M38 0l97 686h465l-28 -96h-327l-27 -191h300l-14 -96h-300l-29 -207h332l1 -96h-470zM205 -187l15 109h105l-16 -109h-104z" />
    <glyph glyph-name="uni1EC0" unicode="&#x1ec0;" horiz-adv-x="595" 
d="M38 0l97 686h465l-28 -96h-327l-27 -191h300l-14 -96h-300l-29 -207h332l1 -96h-470zM362 921l-88 126l1 3h103l65 -129h-81zM199 760l154 125h90l118 -125h-88l-80 69l-101 -69h-93z" />
    <glyph glyph-name="uni1EC2" unicode="&#x1ec2;" horiz-adv-x="595" 
d="M38 0l97 686h465l-28 -96h-327l-27 -191h300l-14 -96h-300l-29 -207h332l1 -96h-470zM386 921l7 49q29 2 45.5 16t16.5 36q0 15 -11.5 22.5t-28.5 7.5q-11 0 -25 -2.5t-30 -8.5l8 61q16 5 31.5 7t29.5 2q38 0 62 -18.5t24 -53.5q0 -33 -19 -59t-48.5 -41.5t-61.5 -17.5z
M198 760l154 125h90l118 -125h-88l-80 69l-101 -69h-93z" />
    <glyph glyph-name="uni1EC4" unicode="&#x1ec4;" horiz-adv-x="595" 
d="M38 0l97 686h465l-28 -96h-327l-27 -191h300l-14 -96h-300l-29 -207h332l1 -96h-470zM215 922q4 28 21 55t45.5 44.5t66.5 17.5q32 0 54 -8.5t42 -17.5t47 -9q22 0 36.5 9t22.5 26h56q-4 -27 -20.5 -54t-45 -45t-67.5 -18q-31 0 -52 8.5t-41 17.5t-50 10q-22 0 -36 -9.5
t-22 -26.5h-57zM198 760l154 125h90l118 -125h-88l-80 69l-101 -69h-93z" />
    <glyph glyph-name="uni0204" unicode="&#x204;" horiz-adv-x="595" 
d="M38 0l97 686h465l-28 -96h-327l-27 -191h300l-14 -96h-300l-29 -207h332l1 -96h-470zM431 750l-98 142l2 3h99l74 -145h-77zM261 750l-98 142l1 3h100l74 -145h-77z" />
    <glyph glyph-name="Edieresis" unicode="&#xcb;" horiz-adv-x="595" 
d="M38 0l97 686h465l-28 -96h-327l-27 -191h300l-14 -96h-300l-29 -207h332l1 -96h-470zM216 769l14 103h104l-14 -103h-104zM442 769l14 103h103l-14 -103h-103z" />
    <glyph glyph-name="Edotaccent" unicode="&#x116;" horiz-adv-x="595" 
d="M38 0l97 686h465l-28 -96h-327l-27 -191h300l-14 -96h-300l-29 -207h332l1 -96h-470zM328 769l14 104h105l-14 -104h-105z" />
    <glyph glyph-name="uni1EB8" unicode="&#x1eb8;" horiz-adv-x="595" 
d="M38 0l97 686h465l-28 -96h-327l-27 -191h300l-14 -96h-300l-29 -207h332l1 -96h-470zM205 -187l15 109h105l-16 -109h-104z" />
    <glyph glyph-name="Egrave" unicode="&#xc8;" horiz-adv-x="595" 
d="M38 0l97 686h465l-28 -96h-327l-27 -191h300l-14 -96h-300l-29 -207h332l1 -96h-470zM344 755l-99 132v3h105l81 -135h-87z" />
    <glyph glyph-name="uni1EBA" unicode="&#x1eba;" horiz-adv-x="595" 
d="M38 0l97 686h465l-28 -96h-327l-27 -191h300l-14 -96h-300l-29 -207h332l1 -96h-470zM350 729l8 59q35 3 55 19t20 43q0 17 -12.5 26t-34.5 9q-13 0 -30 -3t-37 -9l10 73q20 6 38.5 8.5t34.5 2.5q47 0 75.5 -22t28.5 -64q0 -39 -23 -70.5t-58.5 -50.5t-74.5 -21z" />
    <glyph glyph-name="uni0206" unicode="&#x206;" horiz-adv-x="595" 
d="M38 0l97 686h465l-28 -96h-327l-27 -191h300l-14 -96h-300l-29 -207h332l1 -96h-470zM196 760q5 35 30 63.5t67 45.5t99 17q59 0 98 -17t57.5 -45.5t13.5 -63.5h-74q-4 32 -28 46.5t-71 14.5q-46 0 -75.5 -14.5t-43.5 -46.5h-73z" />
    <glyph glyph-name="Emacron" unicode="&#x112;" horiz-adv-x="595" 
d="M38 0l97 686h465l-28 -96h-327l-27 -191h300l-14 -96h-300l-29 -207h332l1 -96h-470zM223 785l10 66h319l-10 -66h-319z" />
    <glyph glyph-name="Eogonek" unicode="&#x118;" horiz-adv-x="595" 
d="M38 0l97 686h465l-28 -96h-327l-27 -191h300l-14 -96h-300l-29 -207h332l1 -96h-470zM466 -143q-32 0 -60 13.5t-28 47.5q0 28 18.5 49.5t40.5 32.5h65q-25 -13 -40 -29t-15 -36q0 -17 12.5 -24t26.5 -7q17 0 35 4.5t34 9.5l7 -37q-23 -12 -47 -18t-49 -6z" />
    <glyph glyph-name="uni1EBC" unicode="&#x1ebc;" horiz-adv-x="595" 
d="M38 0l97 686h465l-28 -96h-327l-27 -191h300l-14 -96h-300l-29 -207h332l1 -96h-470zM196 761q6 35 20.5 62.5t39 44t59.5 16.5q38 0 63.5 -10.5t46 -21.5t42.5 -11t35 11.5t21 31.5h56q-5 -33 -19.5 -61t-38.5 -45t-60 -17q-38 0 -64.5 11t-47 22t-43.5 11
q-19 0 -31 -10.5t-22 -33.5h-57z" />
    <glyph glyph-name="uni018F" unicode="&#x18f;" horiz-adv-x="702" 
d="M308 -10q-74 0 -130.5 27t-88 80t-31.5 132q0 13 1 27t4 34t7 51h125q-5 -34 -8 -55t-4 -33t-1 -21q0 -47 15.5 -77.5t47 -45t77.5 -14.5q39 0 72 12.5t58 37.5t41.5 63t23.5 89q5 37 8.5 61.5t5.5 40.5t2.5 26.5t0.5 19.5q0 50 -18 82t-50.5 48t-75.5 16q-44 0 -83 -16
t-65 -48.5t-31 -82.5l-1 -10h-122l2 16q8 60 36 105.5t71 77t94 47.5t105 16h8q73 0 131 -28.5t92 -83.5t34 -134q0 -21 -6 -65l-12 -88q-10 -76 -39 -133.5t-72 -96t-97.5 -58t-116.5 -19.5h-10zM76 236l15 105h535l-15 -105h-535z" />
    <glyph glyph-name="F" unicode="F" horiz-adv-x="557" 
d="M38 0l97 686h447l-29 -96h-309l-28 -202h274l-15 -96h-273l-41 -292h-123z" />
    <glyph glyph-name="uni0191" unicode="&#x191;" horiz-adv-x="557" 
d="M-7 -186q-15 0 -32.5 2.5t-33.5 6.5t-27 10l10 81q11 -5 29.5 -9.5t29.5 -4.5q20 0 39 12t25 56l102 718h447l-29 -96h-309l-28 -202h274l-15 -96h-273l-43 -309q-12 -88 -53.5 -128.5t-112.5 -40.5z" />
    <glyph glyph-name="G" unicode="G" horiz-adv-x="686" 
d="M291 -10q-71 0 -126.5 29t-86.5 84t-31 133q0 21 6 65.5t12 87.5q10 75 38 132t71.5 96t100 59t123.5 20h10q64 0 116.5 -24.5t83.5 -71t31 -113.5q0 -11 -0.5 -22t-2.5 -21h-120q1 8 1.5 15t0.5 14q0 42 -17.5 68t-47.5 38t-67 12q-52 0 -92.5 -22t-66.5 -66.5
t-36 -113.5q-5 -37 -8.5 -61.5t-5.5 -40.5t-2.5 -26.5t-0.5 -19.5q0 -49 18 -81.5t50.5 -48.5t75.5 -16q35 0 64.5 8.5t52.5 27t37.5 48t18.5 71.5l2 18h-176l14 99h294l-33 -235q-6 -40 -9 -73t-3 -59h-71l-10 80q-39 -43 -88.5 -66.5t-113.5 -23.5h-6z" />
    <glyph glyph-name="Gbreve" unicode="&#x11e;" horiz-adv-x="686" 
d="M291 -10q-71 0 -126.5 29t-86.5 84t-31 133q0 21 6 65.5t12 87.5q10 75 38 132t71.5 96t100 59t123.5 20h10q64 0 116.5 -24.5t83.5 -71t31 -113.5q0 -11 -0.5 -22t-2.5 -21h-120q1 8 1.5 15t0.5 14q0 42 -17.5 68t-47.5 38t-67 12q-52 0 -92.5 -22t-66.5 -66.5
t-36 -113.5q-5 -37 -8.5 -61.5t-5.5 -40.5t-2.5 -26.5t-0.5 -19.5q0 -49 18 -81.5t50.5 -48.5t75.5 -16q35 0 64.5 8.5t52.5 27t37.5 48t18.5 71.5l2 18h-176l14 99h294l-33 -235q-6 -40 -9 -73t-3 -59h-71l-10 80q-39 -43 -88.5 -66.5t-113.5 -23.5h-6zM406 760
q-76 0 -113 36.5t-33 89.5h74q3 -32 22 -46.5t55 -14.5q39 0 63.5 14.5t37.5 46.5h73q-11 -53 -56.5 -89.5t-122.5 -36.5z" />
    <glyph glyph-name="Gcaron" unicode="&#x1e6;" horiz-adv-x="686" 
d="M291 -10q-71 0 -126.5 29t-86.5 84t-31 133q0 21 6 65.5t12 87.5q10 75 38 132t71.5 96t100 59t123.5 20h10q64 0 116.5 -24.5t83.5 -71t31 -113.5q0 -11 -0.5 -22t-2.5 -21h-120q1 8 1.5 15t0.5 14q0 42 -17.5 68t-47.5 38t-67 12q-52 0 -92.5 -22t-66.5 -66.5
t-36 -113.5q-5 -37 -8.5 -61.5t-5.5 -40.5t-2.5 -26.5t-0.5 -19.5q0 -49 18 -81.5t50.5 -48.5t75.5 -16q35 0 64.5 8.5t52.5 27t37.5 48t18.5 71.5l2 18h-176l14 99h294l-33 -235q-6 -40 -9 -73t-3 -59h-71l-10 80q-39 -43 -88.5 -66.5t-113.5 -23.5h-6zM350 760l-99 125h97
l78 -99h-35l107 99h96l-131 -125h-113z" />
    <glyph glyph-name="Gcircumflex" unicode="&#x11c;" horiz-adv-x="686" 
d="M291 -10q-71 0 -126.5 29t-86.5 84t-31 133q0 21 6 65.5t12 87.5q10 75 38 132t71.5 96t100 59t123.5 20h10q64 0 116.5 -24.5t83.5 -71t31 -113.5q0 -11 -0.5 -22t-2.5 -21h-120q1 8 1.5 15t0.5 14q0 42 -17.5 68t-47.5 38t-67 12q-52 0 -92.5 -22t-66.5 -66.5
t-36 -113.5q-5 -37 -8.5 -61.5t-5.5 -40.5t-2.5 -26.5t-0.5 -19.5q0 -49 18 -81.5t50.5 -48.5t75.5 -16q35 0 64.5 8.5t52.5 27t37.5 48t18.5 71.5l2 18h-176l14 99h294l-33 -235q-6 -40 -9 -73t-3 -59h-71l-10 80q-39 -43 -88.5 -66.5t-113.5 -23.5h-6zM232 760l131 125
h113l101 -125h-97l-78 99h35l-109 -99h-96z" />
    <glyph glyph-name="uni0122" unicode="&#x122;" horiz-adv-x="686" 
d="M291 -10q-71 0 -126.5 29t-86.5 84t-31 133q0 21 6 65.5t12 87.5q10 75 38 132t71.5 96t100 59t123.5 20h10q64 0 116.5 -24.5t83.5 -71t31 -113.5q0 -11 -0.5 -22t-2.5 -21h-120q1 8 1.5 15t0.5 14q0 42 -17.5 68t-47.5 38t-67 12q-52 0 -92.5 -22t-66.5 -66.5
t-36 -113.5q-5 -37 -8.5 -61.5t-5.5 -40.5t-2.5 -26.5t-0.5 -19.5q0 -49 18 -81.5t50.5 -48.5t75.5 -16q35 0 64.5 8.5t52.5 27t37.5 48t18.5 71.5l2 18h-176l14 99h294l-33 -235q-6 -40 -9 -73t-3 -59h-71l-10 80q-39 -43 -88.5 -66.5t-113.5 -23.5h-6zM201 -337l2 12
q30 29 48 62t22 66h-48l18 127h109l-16 -109q-6 -43 -26 -85t-52 -73h-57z" />
    <glyph glyph-name="Gdotaccent" unicode="&#x120;" horiz-adv-x="686" 
d="M291 -10q-71 0 -126.5 29t-86.5 84t-31 133q0 21 6 65.5t12 87.5q10 75 38 132t71.5 96t100 59t123.5 20h10q64 0 116.5 -24.5t83.5 -71t31 -113.5q0 -11 -0.5 -22t-2.5 -21h-120q1 8 1.5 15t0.5 14q0 42 -17.5 68t-47.5 38t-67 12q-52 0 -92.5 -22t-66.5 -66.5
t-36 -113.5q-5 -37 -8.5 -61.5t-5.5 -40.5t-2.5 -26.5t-0.5 -19.5q0 -49 18 -81.5t50.5 -48.5t75.5 -16q35 0 64.5 8.5t52.5 27t37.5 48t18.5 71.5l2 18h-176l14 99h294l-33 -235q-6 -40 -9 -73t-3 -59h-71l-10 80q-39 -43 -88.5 -66.5t-113.5 -23.5h-6zM354 769l14 104h105
l-14 -104h-105z" />
    <glyph glyph-name="uni01E4" unicode="&#x1e4;" horiz-adv-x="686" 
d="M291 -10q-71 0 -126.5 29t-86.5 84t-31 133q0 21 6 65.5t12 87.5q10 75 38 132t71.5 96t100 59t123.5 20h10q64 0 116.5 -24.5t83.5 -71t31 -113.5q0 -11 -0.5 -22t-2.5 -21h-120q1 8 1.5 15t0.5 14q0 42 -17.5 68t-47.5 38t-67 12q-52 0 -92.5 -22t-66.5 -66.5
t-36 -113.5q-7 -49 -10.5 -77t-5 -43.5t-1.5 -27.5q0 -49 18 -81.5t50.5 -48.5t75.5 -16q35 0 64.5 8.5t52.5 27t37.5 48t18.5 71.5l2 18h-176l14 99h294l-33 -235q-6 -40 -9 -73t-3 -59h-71l-10 80q-39 -43 -88.5 -66.5t-113.5 -23.5h-6zM337 157l9 68h317l-9 -68h-317z
" />
    <glyph glyph-name="H" unicode="H" horiz-adv-x="692" 
d="M38 0l97 686h124l-40 -282h278l40 282h124l-97 -686h-124l42 297h-278l-42 -297h-124z" />
    <glyph glyph-name="Hbar" unicode="&#x126;" horiz-adv-x="692" 
d="M38 0l97 686h124l-40 -282h278l40 282h124l-97 -686h-124l42 297h-278l-42 -297h-124zM43 492l11 90h657l-12 -90h-656z" />
    <glyph glyph-name="Hcircumflex" unicode="&#x124;" horiz-adv-x="692" 
d="M38 0l97 686h124l-40 -282h278l40 282h124l-97 -686h-124l42 297h-278l-42 -297h-124zM231 760l131 125h113l101 -125h-97l-78 99h35l-109 -99h-96z" />
    <glyph glyph-name="uni1E24" unicode="&#x1e24;" horiz-adv-x="692" 
d="M38 0l97 686h124l-40 -282h278l40 282h124l-97 -686h-124l42 297h-278l-42 -297h-124zM225 -187l15 109h105l-16 -109h-104z" />
    <glyph glyph-name="I" unicode="I" horiz-adv-x="409" 
d="M17 0l15 105h81l66 476h-80l15 105h285l-15 -105h-80l-67 -476h80l-15 -105h-285z" />
    <glyph glyph-name="IJ" unicode="&#x132;" horiz-adv-x="935" 
d="M17 0l15 105h81l66 476h-80l15 105h285l-15 -105h-80l-67 -476h80l-15 -105h-285zM590 -10q-47 0 -89 17.5t-67.5 53t-25.5 87.5q0 9 0.5 24t6.5 45h119q-2 -9 -4 -23t-2 -22q0 -34 22 -55.5t58 -21.5q42 0 70.5 24t34.5 65l71 502h122l-70 -501q-9 -65 -40.5 -108.5
t-80.5 -65t-111 -21.5h-14z" />
    <glyph glyph-name="Iacute" unicode="&#xcd;" horiz-adv-x="409" 
d="M17 0l15 105h81l66 476h-80l15 105h285l-15 -105h-80l-67 -476h80l-15 -105h-285zM226 755l114 135h113v-3l-132 -132h-95z" />
    <glyph glyph-name="Ibreve" unicode="&#x12c;" horiz-adv-x="409" 
d="M17 0l15 105h81l66 476h-80l15 105h285l-15 -105h-80l-67 -476h80l-15 -105h-285zM263 760q-76 0 -113 36.5t-33 89.5h74q3 -32 22 -46.5t55 -14.5q39 0 63.5 14.5t37.5 46.5h73q-11 -53 -56.5 -89.5t-122.5 -36.5z" />
    <glyph glyph-name="uni01CF" unicode="&#x1cf;" horiz-adv-x="409" 
d="M17 0l15 105h81l66 476h-80l15 105h285l-15 -105h-80l-67 -476h80l-15 -105h-285zM207 760l-99 125h97l78 -99h-35l107 99h96l-131 -125h-113z" />
    <glyph glyph-name="Icircumflex" unicode="&#xce;" horiz-adv-x="409" 
d="M17 0l15 105h81l66 476h-80l15 105h285l-15 -105h-80l-67 -476h80l-15 -105h-285zM89 760l131 125h113l101 -125h-97l-78 99h35l-109 -99h-96z" />
    <glyph glyph-name="uni0208" unicode="&#x208;" horiz-adv-x="409" 
d="M17 0l15 105h81l66 476h-80l15 105h285l-15 -105h-80l-67 -476h80l-15 -105h-285zM314 750l-98 142l2 3h99l74 -145h-77zM144 750l-98 142l1 3h100l74 -145h-77z" />
    <glyph glyph-name="Idieresis" unicode="&#xcf;" horiz-adv-x="409" 
d="M17 0l15 105h81l66 476h-80l15 105h285l-15 -105h-80l-67 -476h80l-15 -105h-285zM99 769l14 103h104l-14 -103h-104zM325 769l14 103h103l-14 -103h-103z" />
    <glyph glyph-name="Idotaccent" unicode="&#x130;" horiz-adv-x="409" 
d="M17 0l15 105h81l66 476h-80l15 105h285l-15 -105h-80l-67 -476h80l-15 -105h-285zM211 769l14 104h105l-14 -104h-105z" />
    <glyph glyph-name="uni1ECA" unicode="&#x1eca;" horiz-adv-x="409" 
d="M17 0l15 105h81l66 476h-80l15 105h285l-15 -105h-80l-67 -476h80l-15 -105h-285zM75 -187l15 109h105l-16 -109h-104z" />
    <glyph glyph-name="Igrave" unicode="&#xcc;" horiz-adv-x="409" 
d="M17 0l15 105h81l66 476h-80l15 105h285l-15 -105h-80l-67 -476h80l-15 -105h-285zM227 755l-99 132v3h105l81 -135h-87z" />
    <glyph glyph-name="uni1EC8" unicode="&#x1ec8;" horiz-adv-x="409" 
d="M17 0l15 105h81l66 476h-80l15 105h285l-15 -105h-80l-67 -476h80l-15 -105h-285zM233 729l8 59q35 3 55 19t20 43q0 17 -12.5 26t-34.5 9q-13 0 -30 -3t-37 -9l10 73q20 6 38.5 8.5t34.5 2.5q47 0 75.5 -22t28.5 -64q0 -39 -23 -70.5t-58.5 -50.5t-74.5 -21z" />
    <glyph glyph-name="uni020A" unicode="&#x20a;" horiz-adv-x="409" 
d="M17 0l15 105h81l66 476h-80l15 105h285l-15 -105h-80l-67 -476h80l-15 -105h-285zM79 760q5 35 30 63.5t67 45.5t99 17q59 0 98 -17t57.5 -45.5t13.5 -63.5h-74q-4 32 -28 46.5t-71 14.5q-46 0 -75.5 -14.5t-43.5 -46.5h-73z" />
    <glyph glyph-name="Imacron" unicode="&#x12a;" horiz-adv-x="409" 
d="M17 0l15 105h81l66 476h-80l15 105h285l-15 -105h-80l-67 -476h80l-15 -105h-285zM106 785l10 66h319l-10 -66h-319z" />
    <glyph glyph-name="Iogonek" unicode="&#x12e;" horiz-adv-x="409" 
d="M17 0l15 105h81l66 476h-80l15 105h285l-15 -105h-80l-67 -476h80l-15 -105h-285zM251 -143q-32 0 -60 13.5t-28 47.5q0 28 18.5 49.5t40.5 32.5h65q-25 -13 -40 -29t-15 -36q0 -17 12.5 -24t26.5 -7q17 0 35 4.5t34 9.5l7 -37q-23 -12 -47 -18t-49 -6z" />
    <glyph glyph-name="uni0197" unicode="&#x197;" horiz-adv-x="409" 
d="M78 393h273l-14 -99h-273zM17 0l15 105h81l66 476h-80l15 105h285l-15 -105h-80l-67 -476h80l-15 -105h-285z" />
    <glyph glyph-name="Itilde" unicode="&#x128;" horiz-adv-x="409" 
d="M17 0l15 105h81l66 476h-80l15 105h285l-15 -105h-80l-67 -476h80l-15 -105h-285zM79 761q6 35 20.5 62.5t39 44t59.5 16.5q38 0 63.5 -10.5t46 -21.5t42.5 -11t35 11.5t21 31.5h56q-5 -33 -19.5 -61t-38.5 -45t-60 -17q-38 0 -64.5 11t-47 22t-43.5 11q-19 0 -31 -10.5
t-22 -33.5h-57z" />
    <glyph glyph-name="J" unicode="J" horiz-adv-x="526" 
d="M181 -10q-47 0 -89 17.5t-67.5 53t-25.5 87.5q0 9 0.5 24t6.5 45h119q-2 -9 -4 -23t-2 -22q0 -34 22 -55.5t58 -21.5q42 0 70.5 24t34.5 65l71 502h122l-70 -501q-9 -65 -40.5 -108.5t-80.5 -65t-111 -21.5h-14z" />
    <glyph glyph-name="Jcircumflex" unicode="&#x134;" horiz-adv-x="526" 
d="M181 -10q-47 0 -89 17.5t-67.5 53t-25.5 87.5q0 9 0.5 24t6.5 45h119q-2 -9 -4 -23t-2 -22q0 -34 22 -55.5t58 -21.5q42 0 70.5 24t34.5 65l71 502h122l-70 -501q-9 -65 -40.5 -108.5t-80.5 -65t-111 -21.5h-14z" />
    <glyph glyph-name="K" unicode="K" horiz-adv-x="639" 
d="M38 0l97 686h123l-48 -337l322 337h141l-285 -297l195 -389h-142l-145 294l-108 -100l-27 -194h-123z" />
    <glyph glyph-name="uni0136" unicode="&#x136;" horiz-adv-x="639" 
d="M38 0l97 686h123l-48 -337l322 337h141l-285 -297l195 -389h-142l-145 294l-108 -100l-27 -194h-123zM195 -337l2 12q30 29 48 62t22 66h-48l18 127h109l-16 -109q-6 -43 -26 -85t-52 -73h-57z" />
    <glyph glyph-name="L" unicode="L" horiz-adv-x="532" 
d="M38 0l97 686h124l-81 -579h299v-107h-439z" />
    <glyph glyph-name="uni01C7" unicode="&#x1c7;" horiz-adv-x="1058" 
d="M38 0l97 686h124l-81 -579h299v-107h-439zM713 -10q-47 0 -89 17.5t-67.5 53t-25.5 87.5q0 9 0.5 24t6.5 45h119q-2 -9 -4 -23t-2 -22q0 -34 22 -55.5t58 -21.5q42 0 70.5 24t34.5 65l71 502h122l-70 -501q-9 -65 -40.5 -108.5t-80.5 -65t-111 -21.5h-14z" />
    <glyph glyph-name="Lacute" unicode="&#x139;" horiz-adv-x="532" 
d="M38 0l97 686h124l-81 -579h299v-107h-439zM167 755l114 135h113v-3l-132 -132h-95z" />
    <glyph glyph-name="Lcaron" unicode="&#x13d;" horiz-adv-x="532" 
d="M38 0l97 686h124l-81 -579h299v-107h-439zM419 416l1 12q28 28 45 57.5t22 60.5h-47l17 118h105l-14 -100q-6 -42 -25.5 -80t-48.5 -68h-55z" />
    <glyph glyph-name="uni013B" unicode="&#x13b;" horiz-adv-x="532" 
d="M38 0l97 686h124l-81 -579h299v-107h-439zM160 -337l2 12q30 29 48 62t22 66h-48l18 127h109l-16 -109q-6 -43 -26 -85t-52 -73h-57z" />
    <glyph glyph-name="Ldot" unicode="&#x13f;" horiz-adv-x="532" 
d="M38 0l97 686h124l-81 -579h299v-107h-439zM341 328l18 127h121l-17 -127h-122z" />
    <glyph glyph-name="uni01C8" unicode="&#x1c8;" horiz-adv-x="801" 
d="M38 0l97 686h124l-81 -579h299v-107h-439zM523 -186q-15 0 -32.5 2.5t-33.5 6.5t-27 10l10 81q11 -5 29.5 -9.5t29.5 -4.5q20 0 39 12t25 56l77 543h118l-74 -528q-13 -88 -51.5 -128.5t-109.5 -40.5zM654 620l13 100h122l-14 -100h-121z" />
    <glyph glyph-name="Lslash" unicode="&#x141;" horiz-adv-x="532" 
d="M38 0l97 686h124l-81 -579h299v-107h-439zM7 267l11 79l338 160l-11 -79z" />
    <glyph glyph-name="M" unicode="M" horiz-adv-x="951" 
d="M38 0l97 686h198l122 -500h4l264 500h197l-97 -686h-123l76 541h-6l-286 -541h-119l-133 541h-5l-76 -541h-113z" />
    <glyph glyph-name="N" unicode="N" horiz-adv-x="693" 
d="M38 0l97 686h107l206 -389l34 -67l3 2l64 454h113l-97 -686h-105l-207 390l-34 69l-3 -2l-65 -457h-113z" />
    <glyph glyph-name="uni01CA" unicode="&#x1ca;" horiz-adv-x="1219" 
d="M38 0l97 686h107l206 -389l34 -67l3 2l64 454h113l-97 -686h-105l-207 390l-34 69l-3 -2l-65 -457h-113zM874 -10q-47 0 -89 17.5t-67.5 53t-25.5 87.5q0 9 0.5 24t6.5 45h119q-2 -9 -4 -23t-2 -22q0 -34 22 -55.5t58 -21.5q42 0 70.5 24t34.5 65l71 502h122l-70 -501
q-9 -65 -40.5 -108.5t-80.5 -65t-111 -21.5h-14z" />
    <glyph glyph-name="Nacute" unicode="&#x143;" horiz-adv-x="693" 
d="M38 0l97 686h107l206 -389l34 -67l3 2l64 454h113l-97 -686h-105l-207 390l-34 69l-3 -2l-65 -457h-113zM360 755l114 135h113v-3l-132 -132h-95z" />
    <glyph glyph-name="Ncaron" unicode="&#x147;" horiz-adv-x="693" 
d="M38 0l97 686h107l206 -389l34 -67l3 2l64 454h113l-97 -686h-105l-207 390l-34 69l-3 -2l-65 -457h-113zM341 760l-99 125h97l78 -99h-35l107 99h96l-131 -125h-113z" />
    <glyph glyph-name="uni0145" unicode="&#x145;" horiz-adv-x="693" 
d="M38 0l97 686h107l206 -389l34 -67l3 2l64 454h113l-97 -686h-105l-207 390l-34 69l-3 -2l-65 -457h-113zM209 -337l2 12q30 29 48 62t22 66h-48l18 127h109l-16 -109q-6 -43 -26 -85t-52 -73h-57z" />
    <glyph glyph-name="uni019D" unicode="&#x19d;" horiz-adv-x="693" 
d="M-7 -186q-15 0 -32.5 2.5t-33.5 6.5t-27 10l10 81q11 -5 29.5 -9.5t29.5 -4.5q20 0 39 12t25 56l102 718h107l206 -389l34 -67l3 2l64 454h113l-97 -686h-105l-207 390l-34 69l-3 -2l-67 -474q-13 -88 -49 -128.5t-107 -40.5z" />
    <glyph glyph-name="uni01CB" unicode="&#x1cb;" horiz-adv-x="962" 
d="M38 0l97 686h107l206 -389l34 -67l3 2l64 454h113l-97 -686h-105l-207 390l-34 69l-3 -2l-65 -457h-113zM684 -186q-15 0 -32.5 2.5t-33.5 6.5t-27 10l10 81q11 -5 29.5 -9.5t29.5 -4.5q20 0 39 12t25 56l77 543h118l-74 -528q-13 -88 -51.5 -128.5t-109.5 -40.5z
M815 620l13 100h122l-14 -100h-121z" />
    <glyph glyph-name="Ntilde" unicode="&#xd1;" horiz-adv-x="693" 
d="M38 0l97 686h107l206 -389l34 -67l3 2l64 454h113l-97 -686h-105l-207 390l-34 69l-3 -2l-65 -457h-113zM213 761q6 35 20.5 62.5t39 44t59.5 16.5q38 0 63.5 -10.5t46 -21.5t42.5 -11t35 11.5t21 31.5h56q-5 -33 -19.5 -61t-38.5 -45t-60 -17q-38 0 -64.5 11t-47 22
t-43.5 11q-19 0 -31 -10.5t-22 -33.5h-57z" />
    <glyph glyph-name="Eng" unicode="&#x14a;" horiz-adv-x="693" 
d="M401 -186q-14 0 -31.5 2.5t-34 6.5t-27.5 10l11 81q11 -5 29.5 -9.5t29.5 -4.5q20 0 39 12t25 56l7 51l-196 371l-34 69l-3 -2l-65 -457h-113l97 686h107l206 -389l34 -67l3 2l64 454h113l-100 -703q-12 -88 -50.5 -128.5t-110.5 -40.5z" />
    <glyph glyph-name="O" unicode="O" horiz-adv-x="698" 
d="M298 -10q-70 0 -127 28.5t-90.5 83.5t-33.5 134q0 21 6 65.5t12 87.5q11 76 39.5 133.5t72.5 96t100.5 58t122.5 19.5h6q70 0 127 -28.5t90.5 -83.5t33.5 -134q0 -21 -6 -65l-12 -88q-10 -76 -39 -133.5t-73 -96t-100.5 -58t-122.5 -19.5h-6zM318 95q39 0 72 12.5
t58 37.5t41.5 63t23.5 89q5 37 8.5 61.5t5.5 40.5t2.5 26.5t0.5 19.5q0 50 -18 82t-50.5 48t-75.5 16q-39 0 -72 -12.5t-58 -37.5t-41.5 -63t-23.5 -89q-5 -37 -8.5 -61.5t-5.5 -40.5t-2.5 -26.5t-0.5 -19.5q0 -49 18 -81.5t50.5 -48.5t75.5 -16z" />
    <glyph glyph-name="Oacute" unicode="&#xd3;" horiz-adv-x="698" 
d="M298 -10q-70 0 -127 28.5t-90.5 83.5t-33.5 134q0 21 6 65.5t12 87.5q11 76 39.5 133.5t72.5 96t100.5 58t122.5 19.5h6q70 0 127 -28.5t90.5 -83.5t33.5 -134q0 -21 -6 -65l-12 -88q-10 -76 -39 -133.5t-73 -96t-100.5 -58t-122.5 -19.5h-6zM318 95q39 0 72 12.5
t58 37.5t41.5 63t23.5 89q5 37 8.5 61.5t5.5 40.5t2.5 26.5t0.5 19.5q0 50 -18 82t-50.5 48t-75.5 16q-39 0 -72 -12.5t-58 -37.5t-41.5 -63t-23.5 -89q-5 -37 -8.5 -61.5t-5.5 -40.5t-2.5 -26.5t-0.5 -19.5q0 -49 18 -81.5t50.5 -48.5t75.5 -16zM371 755l114 135h113v-3
l-132 -132h-95z" />
    <glyph glyph-name="Obreve" unicode="&#x14e;" horiz-adv-x="698" 
d="M298 -10q-70 0 -127 28.5t-90.5 83.5t-33.5 134q0 21 6 65.5t12 87.5q11 76 39.5 133.5t72.5 96t100.5 58t122.5 19.5h6q70 0 127 -28.5t90.5 -83.5t33.5 -134q0 -21 -6 -65l-12 -88q-10 -76 -39 -133.5t-73 -96t-100.5 -58t-122.5 -19.5h-6zM318 95q39 0 72 12.5
t58 37.5t41.5 63t23.5 89q5 37 8.5 61.5t5.5 40.5t2.5 26.5t0.5 19.5q0 50 -18 82t-50.5 48t-75.5 16q-39 0 -72 -12.5t-58 -37.5t-41.5 -63t-23.5 -89q-5 -37 -8.5 -61.5t-5.5 -40.5t-2.5 -26.5t-0.5 -19.5q0 -49 18 -81.5t50.5 -48.5t75.5 -16zM408 760q-76 0 -113 36.5
t-33 89.5h74q3 -32 22 -46.5t55 -14.5q39 0 63.5 14.5t37.5 46.5h73q-11 -53 -56.5 -89.5t-122.5 -36.5z" />
    <glyph glyph-name="uni01D1" unicode="&#x1d1;" horiz-adv-x="698" 
d="M298 -10q-70 0 -127 28.5t-90.5 83.5t-33.5 134q0 21 6 65.5t12 87.5q11 76 39.5 133.5t72.5 96t100.5 58t122.5 19.5h6q70 0 127 -28.5t90.5 -83.5t33.5 -134q0 -21 -6 -65l-12 -88q-10 -76 -39 -133.5t-73 -96t-100.5 -58t-122.5 -19.5h-6zM318 95q39 0 72 12.5
t58 37.5t41.5 63t23.5 89q5 37 8.5 61.5t5.5 40.5t2.5 26.5t0.5 19.5q0 50 -18 82t-50.5 48t-75.5 16q-39 0 -72 -12.5t-58 -37.5t-41.5 -63t-23.5 -89q-5 -37 -8.5 -61.5t-5.5 -40.5t-2.5 -26.5t-0.5 -19.5q0 -49 18 -81.5t50.5 -48.5t75.5 -16zM352 760l-99 125h97l78 -99
h-35l107 99h96l-131 -125h-113z" />
    <glyph glyph-name="Ocircumflex" unicode="&#xd4;" horiz-adv-x="698" 
d="M298 -10q-70 0 -127 28.5t-90.5 83.5t-33.5 134q0 21 6 65.5t12 87.5q11 76 39.5 133.5t72.5 96t100.5 58t122.5 19.5h6q70 0 127 -28.5t90.5 -83.5t33.5 -134q0 -21 -6 -65l-12 -88q-10 -76 -39 -133.5t-73 -96t-100.5 -58t-122.5 -19.5h-6zM318 95q39 0 72 12.5
t58 37.5t41.5 63t23.5 89q5 37 8.5 61.5t5.5 40.5t2.5 26.5t0.5 19.5q0 50 -18 82t-50.5 48t-75.5 16q-39 0 -72 -12.5t-58 -37.5t-41.5 -63t-23.5 -89q-5 -37 -8.5 -61.5t-5.5 -40.5t-2.5 -26.5t-0.5 -19.5q0 -49 18 -81.5t50.5 -48.5t75.5 -16zM234 760l131 125h113
l101 -125h-97l-78 99h35l-109 -99h-96z" />
    <glyph glyph-name="uni1ED0" unicode="&#x1ed0;" horiz-adv-x="698" 
d="M298 -10q-70 0 -127 28.5t-90.5 83.5t-33.5 134q0 21 6 65.5t12 87.5q11 76 39.5 133.5t72.5 96t100.5 58t122.5 19.5h6q70 0 127 -28.5t90.5 -83.5t33.5 -134q0 -21 -6 -65l-12 -88q-10 -76 -39 -133.5t-73 -96t-100.5 -58t-122.5 -19.5h-6zM318 95q39 0 72 12.5
t58 37.5t41.5 63t23.5 89q5 37 8.5 61.5t5.5 40.5t2.5 26.5t0.5 19.5q0 50 -18 82t-50.5 48t-75.5 16q-39 0 -72 -12.5t-58 -37.5t-41.5 -63t-23.5 -89q-5 -37 -8.5 -61.5t-5.5 -40.5t-2.5 -26.5t-0.5 -19.5q0 -49 18 -81.5t50.5 -48.5t75.5 -16zM389 921l101 129h103l1 -3
l-124 -126h-81zM226 760l154 125h90l118 -125h-88l-80 69l-101 -69h-93z" />
    <glyph glyph-name="uni1ED8" unicode="&#x1ed8;" horiz-adv-x="698" 
d="M298 -10q-70 0 -127 28.5t-90.5 83.5t-33.5 134q0 21 6 65.5t12 87.5q11 76 39.5 133.5t72.5 96t100.5 58t122.5 19.5h6q70 0 127 -28.5t90.5 -83.5t33.5 -134q0 -21 -6 -65l-12 -88q-10 -76 -39 -133.5t-73 -96t-100.5 -58t-122.5 -19.5h-6zM318 95q39 0 72 12.5
t58 37.5t41.5 63t23.5 89q5 37 8.5 61.5t5.5 40.5t2.5 26.5t0.5 19.5q0 50 -18 82t-50.5 48t-75.5 16q-39 0 -72 -12.5t-58 -37.5t-41.5 -63t-23.5 -89q-5 -37 -8.5 -61.5t-5.5 -40.5t-2.5 -26.5t-0.5 -19.5q0 -49 18 -81.5t50.5 -48.5t75.5 -16zM224 -187l15 109h105
l-16 -109h-104z" />
    <glyph glyph-name="uni1ED2" unicode="&#x1ed2;" horiz-adv-x="698" 
d="M298 -10q-70 0 -127 28.5t-90.5 83.5t-33.5 134q0 21 6 65.5t12 87.5q11 76 39.5 133.5t72.5 96t100.5 58t122.5 19.5h6q70 0 127 -28.5t90.5 -83.5t33.5 -134q0 -21 -6 -65l-12 -88q-10 -76 -39 -133.5t-73 -96t-100.5 -58t-122.5 -19.5h-6zM318 95q39 0 72 12.5
t58 37.5t41.5 63t23.5 89q5 37 8.5 61.5t5.5 40.5t2.5 26.5t0.5 19.5q0 50 -18 82t-50.5 48t-75.5 16q-39 0 -72 -12.5t-58 -37.5t-41.5 -63t-23.5 -89q-5 -37 -8.5 -61.5t-5.5 -40.5t-2.5 -26.5t-0.5 -19.5q0 -49 18 -81.5t50.5 -48.5t75.5 -16zM390 921l-88 126l1 3h103
l65 -129h-81zM227 760l154 125h90l118 -125h-88l-80 69l-101 -69h-93z" />
    <glyph glyph-name="uni1ED4" unicode="&#x1ed4;" horiz-adv-x="698" 
d="M298 -10q-70 0 -127 28.5t-90.5 83.5t-33.5 134q0 21 6 65.5t12 87.5q11 76 39.5 133.5t72.5 96t100.5 58t122.5 19.5h6q70 0 127 -28.5t90.5 -83.5t33.5 -134q0 -21 -6 -65l-12 -88q-10 -76 -39 -133.5t-73 -96t-100.5 -58t-122.5 -19.5h-6zM318 95q39 0 72 12.5
t58 37.5t41.5 63t23.5 89q5 37 8.5 61.5t5.5 40.5t2.5 26.5t0.5 19.5q0 50 -18 82t-50.5 48t-75.5 16q-39 0 -72 -12.5t-58 -37.5t-41.5 -63t-23.5 -89q-5 -37 -8.5 -61.5t-5.5 -40.5t-2.5 -26.5t-0.5 -19.5q0 -49 18 -81.5t50.5 -48.5t75.5 -16zM414 921l7 49q29 2 45.5 16
t16.5 36q0 15 -11.5 22.5t-28.5 7.5q-11 0 -25 -2.5t-30 -8.5l8 61q16 5 31.5 7t29.5 2q38 0 62 -18.5t24 -53.5q0 -33 -19 -59t-48.5 -41.5t-61.5 -17.5zM226 760l154 125h90l118 -125h-88l-80 69l-101 -69h-93z" />
    <glyph glyph-name="uni1ED6" unicode="&#x1ed6;" horiz-adv-x="698" 
d="M298 -10q-70 0 -127 28.5t-90.5 83.5t-33.5 134q0 21 6 65.5t12 87.5q11 76 39.5 133.5t72.5 96t100.5 58t122.5 19.5h6q70 0 127 -28.5t90.5 -83.5t33.5 -134q0 -21 -6 -65l-12 -88q-10 -76 -39 -133.5t-73 -96t-100.5 -58t-122.5 -19.5h-6zM318 95q39 0 72 12.5
t58 37.5t41.5 63t23.5 89q5 37 8.5 61.5t5.5 40.5t2.5 26.5t0.5 19.5q0 50 -18 82t-50.5 48t-75.5 16q-39 0 -72 -12.5t-58 -37.5t-41.5 -63t-23.5 -89q-5 -37 -8.5 -61.5t-5.5 -40.5t-2.5 -26.5t-0.5 -19.5q0 -49 18 -81.5t50.5 -48.5t75.5 -16zM243 922q4 28 21 55
t45.5 44.5t66.5 17.5q32 0 54 -8.5t42 -17.5t47 -9q22 0 36.5 9t22.5 26h56q-4 -27 -20.5 -54t-45 -45t-67.5 -18q-31 0 -52 8.5t-41 17.5t-50 10q-22 0 -36 -9.5t-22 -26.5h-57zM226 760l154 125h90l118 -125h-88l-80 69l-101 -69h-93z" />
    <glyph glyph-name="uni020C" unicode="&#x20c;" horiz-adv-x="698" 
d="M298 -10q-70 0 -127 28.5t-90.5 83.5t-33.5 134q0 21 6 65.5t12 87.5q11 76 39.5 133.5t72.5 96t100.5 58t122.5 19.5h6q70 0 127 -28.5t90.5 -83.5t33.5 -134q0 -21 -6 -65l-12 -88q-10 -76 -39 -133.5t-73 -96t-100.5 -58t-122.5 -19.5h-6zM318 95q39 0 72 12.5
t58 37.5t41.5 63t23.5 89q5 37 8.5 61.5t5.5 40.5t2.5 26.5t0.5 19.5q0 50 -18 82t-50.5 48t-75.5 16q-39 0 -72 -12.5t-58 -37.5t-41.5 -63t-23.5 -89q-5 -37 -8.5 -61.5t-5.5 -40.5t-2.5 -26.5t-0.5 -19.5q0 -49 18 -81.5t50.5 -48.5t75.5 -16zM459 750l-98 142l2 3h99
l74 -145h-77zM289 750l-98 142l1 3h100l74 -145h-77z" />
    <glyph glyph-name="Odieresis" unicode="&#xd6;" horiz-adv-x="698" 
d="M298 -10q-70 0 -127 28.5t-90.5 83.5t-33.5 134q0 21 6 65.5t12 87.5q11 76 39.5 133.5t72.5 96t100.5 58t122.5 19.5h6q70 0 127 -28.5t90.5 -83.5t33.5 -134q0 -21 -6 -65l-12 -88q-10 -76 -39 -133.5t-73 -96t-100.5 -58t-122.5 -19.5h-6zM318 95q39 0 72 12.5
t58 37.5t41.5 63t23.5 89q5 37 8.5 61.5t5.5 40.5t2.5 26.5t0.5 19.5q0 50 -18 82t-50.5 48t-75.5 16q-39 0 -72 -12.5t-58 -37.5t-41.5 -63t-23.5 -89q-5 -37 -8.5 -61.5t-5.5 -40.5t-2.5 -26.5t-0.5 -19.5q0 -49 18 -81.5t50.5 -48.5t75.5 -16zM244 769l14 103h104
l-14 -103h-104zM470 769l14 103h103l-14 -103h-103z" />
    <glyph glyph-name="uni022A" unicode="&#x22a;" horiz-adv-x="698" 
d="M298 -10q-70 0 -127 28.5t-90.5 83.5t-33.5 134q0 21 6 65.5t12 87.5q11 76 39.5 133.5t72.5 96t100.5 58t122.5 19.5h6q70 0 127 -28.5t90.5 -83.5t33.5 -134q0 -21 -6 -65l-12 -88q-10 -76 -39 -133.5t-73 -96t-100.5 -58t-122.5 -19.5h-6zM318 95q39 0 72 12.5
t58 37.5t41.5 63t23.5 89q5 37 8.5 61.5t5.5 40.5t2.5 26.5t0.5 19.5q0 50 -18 82t-50.5 48t-75.5 16q-39 0 -72 -12.5t-58 -37.5t-41.5 -63t-23.5 -89q-5 -37 -8.5 -61.5t-5.5 -40.5t-2.5 -26.5t-0.5 -19.5q0 -49 18 -81.5t50.5 -48.5t75.5 -16zM278 921l10 70h307l-10 -70
h-307zM262 775l14 104h104l-14 -104h-104zM458 775l14 104h103l-14 -104h-103z" />
    <glyph glyph-name="uni0230" unicode="&#x230;" horiz-adv-x="698" 
d="M298 -10q-70 0 -127 28.5t-90.5 83.5t-33.5 134q0 21 6 65.5t12 87.5q11 76 39.5 133.5t72.5 96t100.5 58t122.5 19.5h6q70 0 127 -28.5t90.5 -83.5t33.5 -134q0 -21 -6 -65l-12 -88q-10 -76 -39 -133.5t-73 -96t-100.5 -58t-122.5 -19.5h-6zM318 95q39 0 72 12.5
t58 37.5t41.5 63t23.5 89q5 37 8.5 61.5t5.5 40.5t2.5 26.5t0.5 19.5q0 50 -18 82t-50.5 48t-75.5 16q-39 0 -72 -12.5t-58 -37.5t-41.5 -63t-23.5 -89q-5 -37 -8.5 -61.5t-5.5 -40.5t-2.5 -26.5t-0.5 -19.5q0 -49 18 -81.5t50.5 -48.5t75.5 -16zM276 921l10 70h307l-10 -70
h-307zM358 775l14 104h104l-14 -104h-104z" />
    <glyph glyph-name="uni1ECC" unicode="&#x1ecc;" horiz-adv-x="698" 
d="M298 -10q-70 0 -127 28.5t-90.5 83.5t-33.5 134q0 21 6 65.5t12 87.5q11 76 39.5 133.5t72.5 96t100.5 58t122.5 19.5h6q70 0 127 -28.5t90.5 -83.5t33.5 -134q0 -21 -6 -65l-12 -88q-10 -76 -39 -133.5t-73 -96t-100.5 -58t-122.5 -19.5h-6zM318 95q39 0 72 12.5
t58 37.5t41.5 63t23.5 89q5 37 8.5 61.5t5.5 40.5t2.5 26.5t0.5 19.5q0 50 -18 82t-50.5 48t-75.5 16q-39 0 -72 -12.5t-58 -37.5t-41.5 -63t-23.5 -89q-5 -37 -8.5 -61.5t-5.5 -40.5t-2.5 -26.5t-0.5 -19.5q0 -49 18 -81.5t50.5 -48.5t75.5 -16zM224 -187l15 109h105
l-16 -109h-104z" />
    <glyph glyph-name="Ograve" unicode="&#xd2;" horiz-adv-x="698" 
d="M298 -10q-70 0 -127 28.5t-90.5 83.5t-33.5 134q0 21 6 65.5t12 87.5q11 76 39.5 133.5t72.5 96t100.5 58t122.5 19.5h6q70 0 127 -28.5t90.5 -83.5t33.5 -134q0 -21 -6 -65l-12 -88q-10 -76 -39 -133.5t-73 -96t-100.5 -58t-122.5 -19.5h-6zM318 95q39 0 72 12.5
t58 37.5t41.5 63t23.5 89q5 37 8.5 61.5t5.5 40.5t2.5 26.5t0.5 19.5q0 50 -18 82t-50.5 48t-75.5 16q-39 0 -72 -12.5t-58 -37.5t-41.5 -63t-23.5 -89q-5 -37 -8.5 -61.5t-5.5 -40.5t-2.5 -26.5t-0.5 -19.5q0 -49 18 -81.5t50.5 -48.5t75.5 -16zM372 755l-99 132v3h105
l81 -135h-87z" />
    <glyph glyph-name="uni1ECE" unicode="&#x1ece;" horiz-adv-x="698" 
d="M298 -10q-70 0 -127 28.5t-90.5 83.5t-33.5 134q0 21 6 65.5t12 87.5q11 76 39.5 133.5t72.5 96t100.5 58t122.5 19.5h6q70 0 127 -28.5t90.5 -83.5t33.5 -134q0 -21 -6 -65l-12 -88q-10 -76 -39 -133.5t-73 -96t-100.5 -58t-122.5 -19.5h-6zM318 95q39 0 72 12.5
t58 37.5t41.5 63t23.5 89q5 37 8.5 61.5t5.5 40.5t2.5 26.5t0.5 19.5q0 50 -18 82t-50.5 48t-75.5 16q-39 0 -72 -12.5t-58 -37.5t-41.5 -63t-23.5 -89q-5 -37 -8.5 -61.5t-5.5 -40.5t-2.5 -26.5t-0.5 -19.5q0 -49 18 -81.5t50.5 -48.5t75.5 -16zM378 729l8 59q35 3 55 19
t20 43q0 17 -12.5 26t-34.5 9q-13 0 -30 -3t-37 -9l10 73q20 6 38.5 8.5t34.5 2.5q47 0 75.5 -22t28.5 -64q0 -39 -23 -70.5t-58.5 -50.5t-74.5 -21z" />
    <glyph glyph-name="Ohorn" unicode="&#x1a0;" horiz-adv-x="698" 
d="M298 -10q-70 0 -127 28.5t-90.5 83.5t-33.5 134q0 21 6 65.5t12 87.5q11 76 39.5 133.5t72.5 96t100.5 58t122.5 19.5h6q70 0 127 -28.5t90.5 -83.5t33.5 -134q0 -21 -6 -65l-12 -88q-10 -76 -39 -133.5t-73 -96t-100.5 -58t-122.5 -19.5h-6zM318 95q39 0 72 12.5
t58 37.5t41.5 63t23.5 89q5 37 8.5 61.5t5.5 40.5t2.5 26.5t0.5 19.5q0 50 -18 82t-50.5 48t-75.5 16q-39 0 -72 -12.5t-58 -37.5t-41.5 -63t-23.5 -89q-5 -37 -8.5 -61.5t-5.5 -40.5t-2.5 -26.5t-0.5 -19.5q0 -49 18 -81.5t50.5 -48.5t75.5 -16zM517 581l10 71
q50 8 74.5 41t33.5 97h106q-7 -50 -37.5 -95.5t-78.5 -76.5t-108 -37z" />
    <glyph glyph-name="uni1EDA" unicode="&#x1eda;" horiz-adv-x="698" 
d="M298 -10q-70 0 -127 28.5t-90.5 83.5t-33.5 134q0 21 6 65.5t12 87.5q11 76 39.5 133.5t72.5 96t100.5 58t122.5 19.5h6q70 0 127 -28.5t90.5 -83.5t33.5 -134q0 -21 -6 -65l-12 -88q-10 -76 -39 -133.5t-73 -96t-100.5 -58t-122.5 -19.5h-6zM318 95q39 0 72 12.5
t58 37.5t41.5 63t23.5 89q5 37 8.5 61.5t5.5 40.5t2.5 26.5t0.5 19.5q0 50 -18 82t-50.5 48t-75.5 16q-39 0 -72 -12.5t-58 -37.5t-41.5 -63t-23.5 -89q-5 -37 -8.5 -61.5t-5.5 -40.5t-2.5 -26.5t-0.5 -19.5q0 -49 18 -81.5t50.5 -48.5t75.5 -16zM517 581l10 71
q50 8 74.5 41t33.5 97h106q-7 -50 -37.5 -95.5t-78.5 -76.5t-108 -37zM371 755l114 135h113v-3l-132 -132h-95z" />
    <glyph glyph-name="uni1EE2" unicode="&#x1ee2;" horiz-adv-x="698" 
d="M298 -10q-70 0 -127 28.5t-90.5 83.5t-33.5 134q0 21 6 65.5t12 87.5q11 76 39.5 133.5t72.5 96t100.5 58t122.5 19.5h6q70 0 127 -28.5t90.5 -83.5t33.5 -134q0 -21 -6 -65l-12 -88q-10 -76 -39 -133.5t-73 -96t-100.5 -58t-122.5 -19.5h-6zM318 95q39 0 72 12.5
t58 37.5t41.5 63t23.5 89q5 37 8.5 61.5t5.5 40.5t2.5 26.5t0.5 19.5q0 50 -18 82t-50.5 48t-75.5 16q-39 0 -72 -12.5t-58 -37.5t-41.5 -63t-23.5 -89q-5 -37 -8.5 -61.5t-5.5 -40.5t-2.5 -26.5t-0.5 -19.5q0 -49 18 -81.5t50.5 -48.5t75.5 -16zM517 581l10 71
q50 8 74.5 41t33.5 97h106q-7 -50 -37.5 -95.5t-78.5 -76.5t-108 -37zM224 -187l15 109h105l-16 -109h-104z" />
    <glyph glyph-name="uni1EDC" unicode="&#x1edc;" horiz-adv-x="698" 
d="M298 -10q-70 0 -127 28.5t-90.5 83.5t-33.5 134q0 21 6 65.5t12 87.5q11 76 39.5 133.5t72.5 96t100.5 58t122.5 19.5h6q70 0 127 -28.5t90.5 -83.5t33.5 -134q0 -21 -6 -65l-12 -88q-10 -76 -39 -133.5t-73 -96t-100.5 -58t-122.5 -19.5h-6zM318 95q39 0 72 12.5
t58 37.5t41.5 63t23.5 89q5 37 8.5 61.5t5.5 40.5t2.5 26.5t0.5 19.5q0 50 -18 82t-50.5 48t-75.5 16q-39 0 -72 -12.5t-58 -37.5t-41.5 -63t-23.5 -89q-5 -37 -8.5 -61.5t-5.5 -40.5t-2.5 -26.5t-0.5 -19.5q0 -49 18 -81.5t50.5 -48.5t75.5 -16zM517 581l10 71
q50 8 74.5 41t33.5 97h106q-7 -50 -37.5 -95.5t-78.5 -76.5t-108 -37zM372 755l-99 132v3h105l81 -135h-87z" />
    <glyph glyph-name="uni1EDE" unicode="&#x1ede;" horiz-adv-x="698" 
d="M298 -10q-70 0 -127 28.5t-90.5 83.5t-33.5 134q0 21 6 65.5t12 87.5q11 76 39.5 133.5t72.5 96t100.5 58t122.5 19.5h6q70 0 127 -28.5t90.5 -83.5t33.5 -134q0 -21 -6 -65l-12 -88q-10 -76 -39 -133.5t-73 -96t-100.5 -58t-122.5 -19.5h-6zM318 95q39 0 72 12.5
t58 37.5t41.5 63t23.5 89q5 37 8.5 61.5t5.5 40.5t2.5 26.5t0.5 19.5q0 50 -18 82t-50.5 48t-75.5 16q-39 0 -72 -12.5t-58 -37.5t-41.5 -63t-23.5 -89q-5 -37 -8.5 -61.5t-5.5 -40.5t-2.5 -26.5t-0.5 -19.5q0 -49 18 -81.5t50.5 -48.5t75.5 -16zM517 581l10 71
q50 8 74.5 41t33.5 97h106q-7 -50 -37.5 -95.5t-78.5 -76.5t-108 -37zM378 729l8 59q35 3 55 19t20 43q0 17 -12.5 26t-34.5 9q-13 0 -30 -3t-37 -9l10 73q20 6 38.5 8.5t34.5 2.5q47 0 75.5 -22t28.5 -64q0 -39 -23 -70.5t-58.5 -50.5t-74.5 -21z" />
    <glyph glyph-name="uni1EE0" unicode="&#x1ee0;" horiz-adv-x="698" 
d="M298 -10q-70 0 -127 28.5t-90.5 83.5t-33.5 134q0 21 6 65.5t12 87.5q11 76 39.5 133.5t72.5 96t100.5 58t122.5 19.5h6q70 0 127 -28.5t90.5 -83.5t33.5 -134q0 -21 -6 -65l-12 -88q-10 -76 -39 -133.5t-73 -96t-100.5 -58t-122.5 -19.5h-6zM318 95q39 0 72 12.5
t58 37.5t41.5 63t23.5 89q5 37 8.5 61.5t5.5 40.5t2.5 26.5t0.5 19.5q0 50 -18 82t-50.5 48t-75.5 16q-39 0 -72 -12.5t-58 -37.5t-41.5 -63t-23.5 -89q-5 -37 -8.5 -61.5t-5.5 -40.5t-2.5 -26.5t-0.5 -19.5q0 -49 18 -81.5t50.5 -48.5t75.5 -16zM517 581l10 71
q50 8 74.5 41t33.5 97h106q-7 -50 -37.5 -95.5t-78.5 -76.5t-108 -37zM224 761q6 35 20.5 62.5t39 44t59.5 16.5q38 0 63.5 -10.5t46 -21.5t42.5 -11t35 11.5t21 31.5h56q-5 -33 -19.5 -61t-38.5 -45t-60 -17q-38 0 -64.5 11t-47 22t-43.5 11q-19 0 -31 -10.5t-22 -33.5h-57
z" />
    <glyph glyph-name="Ohungarumlaut" unicode="&#x150;" horiz-adv-x="698" 
d="M298 -10q-70 0 -127 28.5t-90.5 83.5t-33.5 134q0 21 6 65.5t12 87.5q11 76 39.5 133.5t72.5 96t100.5 58t122.5 19.5h6q70 0 127 -28.5t90.5 -83.5t33.5 -134q0 -21 -6 -65l-12 -88q-10 -76 -39 -133.5t-73 -96t-100.5 -58t-122.5 -19.5h-6zM318 95q39 0 72 12.5
t58 37.5t41.5 63t23.5 89q5 37 8.5 61.5t5.5 40.5t2.5 26.5t0.5 19.5q0 50 -18 82t-50.5 48t-75.5 16q-39 0 -72 -12.5t-58 -37.5t-41.5 -63t-23.5 -89q-5 -37 -8.5 -61.5t-5.5 -40.5t-2.5 -26.5t-0.5 -19.5q0 -49 18 -81.5t50.5 -48.5t75.5 -16zM432 755l115 135h106l1 -3
l-138 -132h-84zM271 755l115 135h105l2 -3l-139 -132h-83z" />
    <glyph glyph-name="uni020E" unicode="&#x20e;" horiz-adv-x="698" 
d="M298 -10q-70 0 -127 28.5t-90.5 83.5t-33.5 134q0 21 6 65.5t12 87.5q11 76 39.5 133.5t72.5 96t100.5 58t122.5 19.5h6q70 0 127 -28.5t90.5 -83.5t33.5 -134q0 -21 -6 -65l-12 -88q-10 -76 -39 -133.5t-73 -96t-100.5 -58t-122.5 -19.5h-6zM318 95q39 0 72 12.5
t58 37.5t41.5 63t23.5 89q5 37 8.5 61.5t5.5 40.5t2.5 26.5t0.5 19.5q0 50 -18 82t-50.5 48t-75.5 16q-39 0 -72 -12.5t-58 -37.5t-41.5 -63t-23.5 -89q-5 -37 -8.5 -61.5t-5.5 -40.5t-2.5 -26.5t-0.5 -19.5q0 -49 18 -81.5t50.5 -48.5t75.5 -16zM224 760q5 35 30 63.5
t67 45.5t99 17q59 0 98 -17t57.5 -45.5t13.5 -63.5h-74q-4 32 -28 46.5t-71 14.5q-46 0 -75.5 -14.5t-43.5 -46.5h-73z" />
    <glyph glyph-name="Omacron" unicode="&#x14c;" horiz-adv-x="698" 
d="M298 -10q-70 0 -127 28.5t-90.5 83.5t-33.5 134q0 21 6 65.5t12 87.5q11 76 39.5 133.5t72.5 96t100.5 58t122.5 19.5h6q70 0 127 -28.5t90.5 -83.5t33.5 -134q0 -21 -6 -65l-12 -88q-10 -76 -39 -133.5t-73 -96t-100.5 -58t-122.5 -19.5h-6zM318 95q39 0 72 12.5
t58 37.5t41.5 63t23.5 89q5 37 8.5 61.5t5.5 40.5t2.5 26.5t0.5 19.5q0 50 -18 82t-50.5 48t-75.5 16q-39 0 -72 -12.5t-58 -37.5t-41.5 -63t-23.5 -89q-5 -37 -8.5 -61.5t-5.5 -40.5t-2.5 -26.5t-0.5 -19.5q0 -49 18 -81.5t50.5 -48.5t75.5 -16zM251 785l10 66h319l-10 -66
h-319z" />
    <glyph glyph-name="uni01EA" unicode="&#x1ea;" horiz-adv-x="698" 
d="M298 -10q-70 0 -127 28.5t-90.5 83.5t-33.5 134q0 21 6 65.5t12 87.5q11 76 39.5 133.5t72.5 96t100.5 58t122.5 19.5h6q70 0 127 -28.5t90.5 -83.5t33.5 -134q0 -21 -6 -65l-12 -88q-10 -76 -39 -133.5t-73 -96t-100.5 -58t-122.5 -19.5h-6zM318 95q39 0 72 12.5
t58 37.5t41.5 63t23.5 89q5 37 8.5 61.5t5.5 40.5t2.5 26.5t0.5 19.5q0 50 -18 82t-50.5 48t-75.5 16q-39 0 -72 -12.5t-58 -37.5t-41.5 -63t-23.5 -89q-5 -37 -8.5 -61.5t-5.5 -40.5t-2.5 -26.5t-0.5 -19.5q0 -49 18 -81.5t50.5 -48.5t75.5 -16zM357 -143q-32 0 -60 13.5
t-28 47.5q0 28 18.5 49.5t40.5 32.5h65q-25 -13 -40 -29t-15 -36q0 -17 12.5 -24t26.5 -7q17 0 35 4.5t34 9.5l7 -37q-23 -12 -47 -18t-49 -6z" />
    <glyph glyph-name="Oslash" unicode="&#xd8;" horiz-adv-x="698" 
d="M298 -10q-70 0 -127 28.5t-90.5 83.5t-33.5 134q0 21 6 65.5t12 87.5q11 76 39.5 133.5t72.5 96t100.5 58t122.5 19.5h6q70 0 127 -28.5t90.5 -83.5t33.5 -134q0 -21 -6 -65l-12 -88q-10 -76 -39 -133.5t-73 -96t-100.5 -58t-122.5 -19.5h-6zM318 95q39 0 72 12.5
t58 37.5t41.5 63t23.5 89q5 37 8.5 61.5t5.5 40.5t2.5 26.5t0.5 19.5q0 50 -18 82t-50.5 48t-75.5 16q-39 0 -72 -12.5t-58 -37.5t-41.5 -63t-23.5 -89q-5 -37 -8.5 -61.5t-5.5 -40.5t-2.5 -26.5t-0.5 -19.5q0 -49 18 -81.5t50.5 -48.5t75.5 -16zM5 -77l608 819h74
l-608 -819h-74z" />
    <glyph glyph-name="Oslashacute" unicode="&#x1fe;" horiz-adv-x="698" 
d="M298 -10q-70 0 -127 28.5t-90.5 83.5t-33.5 134q0 21 6 65.5t12 87.5q11 76 39.5 133.5t72.5 96t100.5 58t122.5 19.5h6q70 0 127 -28.5t90.5 -83.5t33.5 -134q0 -21 -6 -65l-12 -88q-10 -76 -39 -133.5t-73 -96t-100.5 -58t-122.5 -19.5h-6zM318 95q39 0 72 12.5
t58 37.5t41.5 63t23.5 89q5 37 8.5 61.5t5.5 40.5t2.5 26.5t0.5 19.5q0 50 -18 82t-50.5 48t-75.5 16q-39 0 -72 -12.5t-58 -37.5t-41.5 -63t-23.5 -89q-5 -37 -8.5 -61.5t-5.5 -40.5t-2.5 -26.5t-0.5 -19.5q0 -49 18 -81.5t50.5 -48.5t75.5 -16zM5 -77l608 819h74
l-608 -819h-74zM376 750l113 145h104v-3l-137 -142h-80z" />
    <glyph glyph-name="Otilde" unicode="&#xd5;" horiz-adv-x="698" 
d="M298 -10q-70 0 -127 28.5t-90.5 83.5t-33.5 134q0 21 6 65.5t12 87.5q11 76 39.5 133.5t72.5 96t100.5 58t122.5 19.5h6q70 0 127 -28.5t90.5 -83.5t33.5 -134q0 -21 -6 -65l-12 -88q-10 -76 -39 -133.5t-73 -96t-100.5 -58t-122.5 -19.5h-6zM318 95q39 0 72 12.5
t58 37.5t41.5 63t23.5 89q5 37 8.5 61.5t5.5 40.5t2.5 26.5t0.5 19.5q0 50 -18 82t-50.5 48t-75.5 16q-39 0 -72 -12.5t-58 -37.5t-41.5 -63t-23.5 -89q-5 -37 -8.5 -61.5t-5.5 -40.5t-2.5 -26.5t-0.5 -19.5q0 -49 18 -81.5t50.5 -48.5t75.5 -16zM224 761q6 35 20.5 62.5
t39 44t59.5 16.5q38 0 63.5 -10.5t46 -21.5t42.5 -11t35 11.5t21 31.5h56q-5 -33 -19.5 -61t-38.5 -45t-60 -17q-38 0 -64.5 11t-47 22t-43.5 11q-19 0 -31 -10.5t-22 -33.5h-57z" />
    <glyph glyph-name="uni022C" unicode="&#x22c;" horiz-adv-x="698" 
d="M298 -10q-70 0 -127 28.5t-90.5 83.5t-33.5 134q0 21 6 65.5t12 87.5q11 76 39.5 133.5t72.5 96t100.5 58t122.5 19.5h6q70 0 127 -28.5t90.5 -83.5t33.5 -134q0 -21 -6 -65l-12 -88q-10 -76 -39 -133.5t-73 -96t-100.5 -58t-122.5 -19.5h-6zM318 95q39 0 72 12.5
t58 37.5t41.5 63t23.5 89q5 37 8.5 61.5t5.5 40.5t2.5 26.5t0.5 19.5q0 50 -18 82t-50.5 48t-75.5 16q-39 0 -72 -12.5t-58 -37.5t-41.5 -63t-23.5 -89q-5 -37 -8.5 -61.5t-5.5 -40.5t-2.5 -26.5t-0.5 -19.5q0 -49 18 -81.5t50.5 -48.5t75.5 -16zM259 923l8 61h342l-8 -61
h-342zM218 745q4 28 20.5 55t44.5 44.5t67 17.5q32 0 54 -8.5t42 -17.5t47 -9q22 0 37 9t22 26h56q-4 -27 -20.5 -54t-44.5 -45t-67 -18q-31 0 -52 8.5t-41 17.5t-50 10q-22 0 -36 -9.5t-22 -26.5h-57z" />
    <glyph glyph-name="OE" unicode="&#x152;" horiz-adv-x="1028" 
d="M297 -10q-72 0 -128.5 28.5t-89 84t-32.5 135.5q0 15 1.5 28t5.5 40t11 83q11 77 40.5 134.5t75 96t102.5 57.5t121 19q47 0 88 -13.5t72 -39.5l7 43h461l-30 -105h-321l-25 -178h294l-15 -104h-294l-27 -194h326v-105h-466l5 40q-38 -25 -83.5 -37.5t-98.5 -12.5z
M318 95q37 0 69 11.5t57 34.5t42.5 59.5t24.5 85.5q8 51 12 80.5t6 47t2 31.5q0 49 -18.5 81.5t-50.5 48.5t-75 16q-39 0 -72 -12.5t-58 -37.5t-41.5 -63t-23.5 -89q-6 -49 -10 -77t-5.5 -43.5t-1.5 -28.5q0 -49 18 -81t50 -48t75 -16z" />
    <glyph glyph-name="P" unicode="P" horiz-adv-x="627" 
d="M38 0l97 686h306q52 0 94 -21.5t67 -60t25 -90.5q0 -69 -30 -123t-83.5 -84.5t-124.5 -30.5h-188l-39 -276h-124zM214 372h171q39 0 65.5 17.5t40.5 46t14 61.5q0 39 -23 66t-67 27h-170z" />
    <glyph glyph-name="Thorn" unicode="&#xde;" horiz-adv-x="633" 
d="M38 0l97 686h124l-17 -119h188q52 0 92.5 -21.5t64 -60t23.5 -90.5q0 -68 -32 -121.5t-85.5 -84.5t-119.5 -31h-189l-22 -158h-124zM198 254h174q32 0 58 18.5t42 47t16 59.5q0 41 -22.5 66.5t-63.5 25.5h-174z" />
    <glyph glyph-name="Q" unicode="Q" horiz-adv-x="698" 
d="M430 -149q-53 0 -91.5 18.5t-59 50.5t-21.5 72q-52 7 -100.5 34.5t-79.5 79t-31 130.5q0 21 6 65.5t12 87.5q11 76 39.5 133.5t72.5 96t100.5 58t122.5 19.5h6q70 0 127 -28.5t90.5 -83.5t33.5 -134q0 -21 -6 -65l-12 -88q-10 -76 -37 -130t-63.5 -89t-78 -54.5
t-80.5 -25.5q3 -14 12.5 -28.5t27.5 -23.5t47 -9q27 0 56 7.5t67 19.5l-11 -78q-7 -4 -28 -12.5t-51.5 -15.5t-69.5 -7zM318 95q39 0 72 12.5t58 37.5t41.5 63t23.5 89q5 37 8.5 61.5t5.5 40.5t2.5 26.5t0.5 19.5q0 50 -18 82t-50.5 48t-75.5 16q-39 0 -72 -12.5t-58 -37.5
t-41.5 -63t-23.5 -89q-5 -37 -8.5 -61.5t-5.5 -40.5t-2.5 -26.5t-0.5 -19.5q0 -49 18 -81.5t50.5 -48.5t75.5 -16z" />
    <glyph glyph-name="R" unicode="R" horiz-adv-x="668" 
d="M525 -6q-25 0 -46 7.5t-33 27t-12 56.5q0 20 3.5 43t3.5 38q0 33 -7.5 55t-20.5 35.5t-29 19t-34 5.5h-150l-39 -281h-122l96 686h301q54 0 98 -16.5t70 -50t26 -85.5q0 -44 -17 -83t-50 -68t-80 -45l-1 -6q11 -4 25.5 -12t28 -23t23 -39.5t9.5 -61.5q0 -20 -3.5 -47
t-3.5 -41q0 -21 4.5 -35.5t13 -23.5t20.5 -14l-4 -31q-13 -4 -32 -7t-38 -3zM214 377h179q28 0 53.5 18.5t42.5 48t17 63.5q0 35 -19 59t-60 24h-183z" />
    <glyph glyph-name="Racute" unicode="&#x154;" horiz-adv-x="668" 
d="M525 -6q-25 0 -46 7.5t-33 27t-12 56.5q0 20 3.5 43t3.5 38q0 33 -7.5 55t-20.5 35.5t-29 19t-34 5.5h-150l-39 -281h-122l96 686h301q54 0 98 -16.5t70 -50t26 -85.5q0 -44 -17 -83t-50 -68t-80 -45l-1 -6q11 -4 25.5 -12t28 -23t23 -39.5t9.5 -61.5q0 -20 -3.5 -47
t-3.5 -41q0 -21 4.5 -35.5t13 -23.5t20.5 -14l-4 -31q-13 -4 -32 -7t-38 -3zM214 377h179q28 0 53.5 18.5t42.5 48t17 63.5q0 35 -19 59t-60 24h-183zM355 755l114 135h113v-3l-132 -132h-95z" />
    <glyph glyph-name="Rcaron" unicode="&#x158;" horiz-adv-x="668" 
d="M525 -6q-25 0 -46 7.5t-33 27t-12 56.5q0 20 3.5 43t3.5 38q0 33 -7.5 55t-20.5 35.5t-29 19t-34 5.5h-150l-39 -281h-122l96 686h301q54 0 98 -16.5t70 -50t26 -85.5q0 -44 -17 -83t-50 -68t-80 -45l-1 -6q11 -4 25.5 -12t28 -23t23 -39.5t9.5 -61.5q0 -20 -3.5 -47
t-3.5 -41q0 -21 4.5 -35.5t13 -23.5t20.5 -14l-4 -31q-13 -4 -32 -7t-38 -3zM214 377h179q28 0 53.5 18.5t42.5 48t17 63.5q0 35 -19 59t-60 24h-183zM336 760l-99 125h97l78 -99h-35l107 99h96l-131 -125h-113z" />
    <glyph glyph-name="uni0156" unicode="&#x156;" horiz-adv-x="668" 
d="M525 -6q-25 0 -46 7.5t-33 27t-12 56.5q0 20 3.5 43t3.5 38q0 33 -7.5 55t-20.5 35.5t-29 19t-34 5.5h-150l-39 -281h-122l96 686h301q54 0 98 -16.5t70 -50t26 -85.5q0 -44 -17 -83t-50 -68t-80 -45l-1 -6q11 -4 25.5 -12t28 -23t23 -39.5t9.5 -61.5q0 -20 -3.5 -47
t-3.5 -41q0 -21 4.5 -35.5t13 -23.5t20.5 -14l-4 -31q-13 -4 -32 -7t-38 -3zM214 377h179q28 0 53.5 18.5t42.5 48t17 63.5q0 35 -19 59t-60 24h-183zM203 -337l2 12q30 29 48 62t22 66h-48l18 127h109l-16 -109q-6 -43 -26 -85t-52 -73h-57z" />
    <glyph glyph-name="uni0210" unicode="&#x210;" horiz-adv-x="668" 
d="M525 -6q-25 0 -46 7.5t-33 27t-12 56.5q0 20 3.5 43t3.5 38q0 33 -7.5 55t-20.5 35.5t-29 19t-34 5.5h-150l-39 -281h-122l96 686h301q54 0 98 -16.5t70 -50t26 -85.5q0 -44 -17 -83t-50 -68t-80 -45l-1 -6q11 -4 25.5 -12t28 -23t23 -39.5t9.5 -61.5q0 -20 -3.5 -47
t-3.5 -41q0 -21 4.5 -35.5t13 -23.5t20.5 -14l-4 -31q-13 -4 -32 -7t-38 -3zM214 377h179q28 0 53.5 18.5t42.5 48t17 63.5q0 35 -19 59t-60 24h-183zM443 750l-98 142l2 3h99l74 -145h-77zM273 750l-98 142l1 3h100l74 -145h-77z" />
    <glyph glyph-name="uni0212" unicode="&#x212;" horiz-adv-x="668" 
d="M525 -6q-25 0 -46 7.5t-33 27t-12 56.5q0 20 3.5 43t3.5 38q0 33 -7.5 55t-20.5 35.5t-29 19t-34 5.5h-150l-39 -281h-122l96 686h301q54 0 98 -16.5t70 -50t26 -85.5q0 -44 -17 -83t-50 -68t-80 -45l-1 -6q11 -4 25.5 -12t28 -23t23 -39.5t9.5 -61.5q0 -20 -3.5 -47
t-3.5 -41q0 -21 4.5 -35.5t13 -23.5t20.5 -14l-4 -31q-13 -4 -32 -7t-38 -3zM214 377h179q28 0 53.5 18.5t42.5 48t17 63.5q0 35 -19 59t-60 24h-183zM208 760q5 35 30 63.5t67 45.5t99 17q59 0 98 -17t57.5 -45.5t13.5 -63.5h-74q-4 32 -28 46.5t-71 14.5
q-46 0 -75.5 -14.5t-43.5 -46.5h-73z" />
    <glyph glyph-name="S" unicode="S" horiz-adv-x="632" 
d="M261 -10q-66 0 -119.5 17.5t-85 55.5t-31.5 101q0 13 2 29t5 26h120q-3 -4 -4 -17t-1 -19q0 -29 14.5 -50t43 -32t71.5 -11q57 0 94 13.5t55.5 38.5t18.5 59q0 30 -19.5 47.5t-51.5 29t-70.5 21t-77 21.5t-70.5 32t-51.5 52t-19.5 82q0 70 36.5 116.5t100.5 70t145 23.5
q63 0 115 -17t82.5 -53.5t30.5 -94.5q0 -7 -0.5 -17.5t-3.5 -25.5h-119q2 11 2.5 16.5t0.5 9.5q0 38 -31.5 60t-84.5 22q-46 0 -79.5 -11t-52 -31.5t-18.5 -51.5q0 -29 19.5 -46.5t52 -28.5t71 -20.5t77 -21.5t71 -31.5t52 -51t19.5 -79.5q0 -58 -21.5 -102t-61.5 -73
t-97 -43.5t-129 -14.5z" />
    <glyph glyph-name="Sacute" unicode="&#x15a;" horiz-adv-x="632" 
d="M261 -10q-66 0 -119.5 17.5t-85 55.5t-31.5 101q0 13 2 29t5 26h120q-3 -4 -4 -17t-1 -19q0 -29 14.5 -50t43 -32t71.5 -11q57 0 94 13.5t55.5 38.5t18.5 59q0 30 -19.5 47.5t-51.5 29t-70.5 21t-77 21.5t-70.5 32t-51.5 52t-19.5 82q0 70 36.5 116.5t100.5 70t145 23.5
q63 0 115 -17t82.5 -53.5t30.5 -94.5q0 -7 -0.5 -17.5t-3.5 -25.5h-119q2 11 2.5 16.5t0.5 9.5q0 38 -31.5 60t-84.5 22q-46 0 -79.5 -11t-52 -31.5t-18.5 -51.5q0 -29 19.5 -46.5t52 -28.5t71 -20.5t77 -21.5t71 -31.5t52 -51t19.5 -79.5q0 -58 -21.5 -102t-61.5 -73
t-97 -43.5t-129 -14.5zM334 755l114 135h113v-3l-132 -132h-95z" />
    <glyph glyph-name="Scaron" unicode="&#x160;" horiz-adv-x="632" 
d="M261 -10q-66 0 -119.5 17.5t-85 55.5t-31.5 101q0 13 2 29t5 26h120q-3 -4 -4 -17t-1 -19q0 -29 14.5 -50t43 -32t71.5 -11q57 0 94 13.5t55.5 38.5t18.5 59q0 30 -19.5 47.5t-51.5 29t-70.5 21t-77 21.5t-70.5 32t-51.5 52t-19.5 82q0 70 36.5 116.5t100.5 70t145 23.5
q63 0 115 -17t82.5 -53.5t30.5 -94.5q0 -7 -0.5 -17.5t-3.5 -25.5h-119q2 11 2.5 16.5t0.5 9.5q0 38 -31.5 60t-84.5 22q-46 0 -79.5 -11t-52 -31.5t-18.5 -51.5q0 -29 19.5 -46.5t52 -28.5t71 -20.5t77 -21.5t71 -31.5t52 -51t19.5 -79.5q0 -58 -21.5 -102t-61.5 -73
t-97 -43.5t-129 -14.5zM315 760l-99 125h97l78 -99h-35l107 99h96l-131 -125h-113z" />
    <glyph glyph-name="Scedilla" unicode="&#x15e;" horiz-adv-x="632" 
d="M261 -10q-66 0 -119.5 17.5t-85 55.5t-31.5 101q0 13 2 29t5 26h120q-3 -4 -4 -17t-1 -19q0 -29 14.5 -50t43 -32t71.5 -11q57 0 94 13.5t55.5 38.5t18.5 59q0 30 -19.5 47.5t-51.5 29t-70.5 21t-77 21.5t-70.5 32t-51.5 52t-19.5 82q0 70 36.5 116.5t100.5 70t145 23.5
q63 0 115 -17t82.5 -53.5t30.5 -94.5q0 -7 -0.5 -17.5t-3.5 -25.5h-119q2 11 2.5 16.5t0.5 9.5q0 38 -31.5 60t-84.5 22q-46 0 -79.5 -11t-52 -31.5t-18.5 -51.5q0 -29 19.5 -46.5t52 -28.5t71 -20.5t77 -21.5t71 -31.5t52 -51t19.5 -79.5q0 -58 -21.5 -102t-61.5 -73
t-97 -43.5t-129 -14.5zM239 -209q-26 0 -52 5.5t-43 17.5l21 50q9 -8 27 -15t46 -7q16 0 31 5t25 15.5t10 28.5q0 20 -11.5 27.5t-32.5 7.5h-20l7 45h31q35 0 64 -16.5t29 -57.5t-23 -64.5t-53.5 -32.5t-55.5 -9z" />
    <glyph glyph-name="Scircumflex" unicode="&#x15c;" horiz-adv-x="632" 
d="M261 -10q-66 0 -119.5 17.5t-85 55.5t-31.5 101q0 13 2 29t5 26h120q-3 -4 -4 -17t-1 -19q0 -29 14.5 -50t43 -32t71.5 -11q57 0 94 13.5t55.5 38.5t18.5 59q0 30 -19.5 47.5t-51.5 29t-70.5 21t-77 21.5t-70.5 32t-51.5 52t-19.5 82q0 70 36.5 116.5t100.5 70t145 23.5
q63 0 115 -17t82.5 -53.5t30.5 -94.5q0 -7 -0.5 -17.5t-3.5 -25.5h-119q2 11 2.5 16.5t0.5 9.5q0 38 -31.5 60t-84.5 22q-46 0 -79.5 -11t-52 -31.5t-18.5 -51.5q0 -29 19.5 -46.5t52 -28.5t71 -20.5t77 -21.5t71 -31.5t52 -51t19.5 -79.5q0 -58 -21.5 -102t-61.5 -73
t-97 -43.5t-129 -14.5zM197 760l131 125h113l101 -125h-97l-78 99h35l-109 -99h-96z" />
    <glyph glyph-name="uni0218" unicode="&#x218;" horiz-adv-x="632" 
d="M261 -10q-66 0 -119.5 17.5t-85 55.5t-31.5 101q0 13 2 29t5 26h120q-3 -4 -4 -17t-1 -19q0 -29 14.5 -50t43 -32t71.5 -11q57 0 94 13.5t55.5 38.5t18.5 59q0 30 -19.5 47.5t-51.5 29t-70.5 21t-77 21.5t-70.5 32t-51.5 52t-19.5 82q0 70 36.5 116.5t100.5 70t145 23.5
q63 0 115 -17t82.5 -53.5t30.5 -94.5q0 -7 -0.5 -17.5t-3.5 -25.5h-119q2 11 2.5 16.5t0.5 9.5q0 38 -31.5 60t-84.5 22q-46 0 -79.5 -11t-52 -31.5t-18.5 -51.5q0 -29 19.5 -46.5t52 -28.5t71 -20.5t77 -21.5t71 -31.5t52 -51t19.5 -79.5q0 -58 -21.5 -102t-61.5 -73
t-97 -43.5t-129 -14.5zM174 -337l2 12q30 29 48 62t22 66h-48l18 127h109l-16 -109q-6 -43 -26 -85t-52 -73h-57z" />
    <glyph glyph-name="uni1E62" unicode="&#x1e62;" horiz-adv-x="632" 
d="M261 -10q-66 0 -119.5 17.5t-85 55.5t-31.5 101q0 13 2 29t5 26h120q-3 -4 -4 -17t-1 -19q0 -29 14.5 -50t43 -32t71.5 -11q57 0 94 13.5t55.5 38.5t18.5 59q0 30 -19.5 47.5t-51.5 29t-70.5 21t-77 21.5t-70.5 32t-51.5 52t-19.5 82q0 70 36.5 116.5t100.5 70t145 23.5
q63 0 115 -17t82.5 -53.5t30.5 -94.5q0 -7 -0.5 -17.5t-3.5 -25.5h-119q2 11 2.5 16.5t0.5 9.5q0 38 -31.5 60t-84.5 22q-46 0 -79.5 -11t-52 -31.5t-18.5 -51.5q0 -29 19.5 -46.5t52 -28.5t71 -20.5t77 -21.5t71 -31.5t52 -51t19.5 -79.5q0 -58 -21.5 -102t-61.5 -73
t-97 -43.5t-129 -14.5zM200 -187l15 109h105l-16 -109h-104z" />
    <glyph glyph-name="uni1E9E" unicode="&#x1e9e;" horiz-adv-x="756" 
d="M432 -10q-100 0 -152 41t-52 126q0 11 1 22.5t3 23.5h116q-1 -10 -2 -18t-1 -16q0 -41 22.5 -58.5t70.5 -17.5q66 0 97.5 33t31.5 91q0 47 -35 65t-94 18h-94l14 98h100q38 0 67.5 11.5t46 35t16.5 58.5q0 46 -42 68t-116 22q-55 0 -101 -16t-76.5 -54.5t-39.5 -104.5
l-59 -418h-123l55 392q16 115 67.5 181t128.5 94.5t170 28.5q75 0 134 -20t93 -58.5t34 -94.5q0 -45 -18.5 -78.5t-47.5 -55t-60 -32.5v-4q44 -13 73 -48.5t29 -91.5q0 -69 -33.5 -119t-91.5 -77t-132 -27z" />
    <glyph glyph-name="T" unicode="T" horiz-adv-x="567" 
d="M177 0l81 581h-205l15 105h534l-15 -105h-205l-82 -581h-123z" />
    <glyph glyph-name="Tbar" unicode="&#x166;" horiz-adv-x="567" 
d="M177 0l81 581h-205l15 105h534l-15 -105h-205l-82 -581h-123zM116 289l13 90h325l-13 -90h-325z" />
    <glyph glyph-name="Tcaron" unicode="&#x164;" horiz-adv-x="567" 
d="M177 0l81 581h-205l15 105h534l-15 -105h-205l-82 -581h-123zM286 760l-99 125h97l78 -99h-35l107 99h96l-131 -125h-113z" />
    <glyph glyph-name="uni0162" unicode="&#x162;" horiz-adv-x="567" 
d="M177 0l81 581h-205l15 105h534l-15 -105h-205l-82 -581h-123zM199 -209q-26 0 -52 5.5t-43 17.5l21 50q9 -8 27 -15t46 -7q16 0 31 5t25 15.5t10 28.5q0 20 -11.5 27.5t-32.5 7.5h-20l7 45h31q35 0 64 -16.5t29 -57.5t-23 -64.5t-53.5 -32.5t-55.5 -9z" />
    <glyph glyph-name="uni021A" unicode="&#x21a;" horiz-adv-x="567" 
d="M177 0l81 581h-205l15 105h534l-15 -105h-205l-82 -581h-123zM134 -337l2 12q30 29 48 62t22 66h-48l18 127h109l-16 -109q-6 -43 -26 -85t-52 -73h-57z" />
    <glyph glyph-name="uni1E6C" unicode="&#x1e6c;" horiz-adv-x="567" 
d="M177 0l81 581h-205l15 105h534l-15 -105h-205l-82 -581h-123zM160 -187l15 109h105l-16 -109h-104z" />
    <glyph glyph-name="U" unicode="U" horiz-adv-x="678" 
d="M283 -10q-104 0 -162 52t-58 134q0 11 1 26.5t3.5 37t6.5 51t9 68t11.5 87t15 108.5t18.5 132h124q-14 -99 -24.5 -173t-18 -128t-12.5 -91t-7 -61t-2 -40q0 -49 31 -74t89 -25q64 0 106.5 35.5t49.5 91.5l65 465h124l-65 -467q-10 -71 -47.5 -122.5t-97.5 -79
t-140 -27.5h-20z" />
    <glyph glyph-name="Uacute" unicode="&#xda;" horiz-adv-x="678" 
d="M283 -10q-104 0 -162 52t-58 134q0 11 1 26.5t3.5 37t6.5 51t9 68t11.5 87t15 108.5t18.5 132h124q-14 -99 -24.5 -173t-18 -128t-12.5 -91t-7 -61t-2 -40q0 -49 31 -74t89 -25q64 0 106.5 35.5t49.5 91.5l65 465h124l-65 -467q-10 -71 -47.5 -122.5t-97.5 -79
t-140 -27.5h-20zM358 755l114 135h113v-3l-132 -132h-95z" />
    <glyph glyph-name="uni0244" unicode="&#x244;" horiz-adv-x="678" 
d="M39 438h635l-14 -99h-635zM283 -10q-104 0 -162 52t-58 134q0 11 1 26.5t3.5 37t6.5 51t9 68t11.5 87t15 108.5t18.5 132h124q-14 -99 -24.5 -173t-18 -128t-12.5 -91t-7 -61t-2 -40q0 -49 31 -74t89 -25q64 0 106.5 35.5t49.5 91.5l65 465h124l-65 -467
q-10 -71 -47.5 -122.5t-97.5 -79t-140 -27.5h-20z" />
    <glyph glyph-name="Ubreve" unicode="&#x16c;" horiz-adv-x="678" 
d="M283 -10q-104 0 -162 52t-58 134q0 11 1 26.5t3.5 37t6.5 51t9 68t11.5 87t15 108.5t18.5 132h124q-14 -99 -24.5 -173t-18 -128t-12.5 -91t-7 -61t-2 -40q0 -49 31 -74t89 -25q64 0 106.5 35.5t49.5 91.5l65 465h124l-65 -467q-10 -71 -47.5 -122.5t-97.5 -79
t-140 -27.5h-20zM395 760q-76 0 -113 36.5t-33 89.5h74q3 -32 22 -46.5t55 -14.5q39 0 63.5 14.5t37.5 46.5h73q-11 -53 -56.5 -89.5t-122.5 -36.5z" />
    <glyph glyph-name="uni01D3" unicode="&#x1d3;" horiz-adv-x="678" 
d="M283 -10q-104 0 -162 52t-58 134q0 11 1 26.5t3.5 37t6.5 51t9 68t11.5 87t15 108.5t18.5 132h124q-14 -99 -24.5 -173t-18 -128t-12.5 -91t-7 -61t-2 -40q0 -49 31 -74t89 -25q64 0 106.5 35.5t49.5 91.5l65 465h124l-65 -467q-10 -71 -47.5 -122.5t-97.5 -79
t-140 -27.5h-20zM339 760l-99 125h97l78 -99h-35l107 99h96l-131 -125h-113z" />
    <glyph glyph-name="Ucircumflex" unicode="&#xdb;" horiz-adv-x="678" 
d="M283 -10q-104 0 -162 52t-58 134q0 11 1 26.5t3.5 37t6.5 51t9 68t11.5 87t15 108.5t18.5 132h124q-14 -99 -24.5 -173t-18 -128t-12.5 -91t-7 -61t-2 -40q0 -49 31 -74t89 -25q64 0 106.5 35.5t49.5 91.5l65 465h124l-65 -467q-10 -71 -47.5 -122.5t-97.5 -79
t-140 -27.5h-20zM221 760l131 125h113l101 -125h-97l-78 99h35l-109 -99h-96z" />
    <glyph glyph-name="uni0214" unicode="&#x214;" horiz-adv-x="678" 
d="M283 -10q-104 0 -162 52t-58 134q0 11 1 26.5t3.5 37t6.5 51t9 68t11.5 87t15 108.5t18.5 132h124q-14 -99 -24.5 -173t-18 -128t-12.5 -91t-7 -61t-2 -40q0 -49 31 -74t89 -25q64 0 106.5 35.5t49.5 91.5l65 465h124l-65 -467q-10 -71 -47.5 -122.5t-97.5 -79
t-140 -27.5h-20zM446 750l-98 142l2 3h99l74 -145h-77zM276 750l-98 142l1 3h100l74 -145h-77z" />
    <glyph glyph-name="Udieresis" unicode="&#xdc;" horiz-adv-x="678" 
d="M283 -10q-104 0 -162 52t-58 134q0 11 1 26.5t3.5 37t6.5 51t9 68t11.5 87t15 108.5t18.5 132h124q-14 -99 -24.5 -173t-18 -128t-12.5 -91t-7 -61t-2 -40q0 -49 31 -74t89 -25q64 0 106.5 35.5t49.5 91.5l65 465h124l-65 -467q-10 -71 -47.5 -122.5t-97.5 -79
t-140 -27.5h-20zM231 769l14 103h104l-14 -103h-104zM457 769l14 103h103l-14 -103h-103z" />
    <glyph glyph-name="uni01D7" unicode="&#x1d7;" horiz-adv-x="678" 
d="M283 -10q-104 0 -162 52t-58 134q0 11 1 26.5t3.5 37t6.5 51t9 68t11.5 87t15 108.5t18.5 132h124q-14 -99 -24.5 -173t-18 -128t-12.5 -91t-7 -61t-2 -40q0 -49 31 -74t89 -25q64 0 106.5 35.5t49.5 91.5l65 465h124l-65 -467q-10 -71 -47.5 -122.5t-97.5 -79
t-140 -27.5h-20zM377 914l100 129h104l-1 -3l-123 -126h-80zM246 775l15 104h104l-15 -104h-104zM442 775l15 104h103l-15 -104h-103z" />
    <glyph glyph-name="uni01D9" unicode="&#x1d9;" horiz-adv-x="678" 
d="M283 -10q-104 0 -162 52t-58 134q0 11 1 26.5t3.5 37t6.5 51t9 68t11.5 87t15 108.5t18.5 132h124q-14 -99 -24.5 -173t-18 -128t-12.5 -91t-7 -61t-2 -40q0 -49 31 -74t89 -25q64 0 106.5 35.5t49.5 91.5l65 465h124l-65 -467q-10 -71 -47.5 -122.5t-97.5 -79
t-140 -27.5h-20zM371 914l-118 125h91l80 -68l101 68h90l-154 -125h-90zM246 775l15 104h104l-15 -104h-104zM442 775l15 104h103l-15 -104h-103z" />
    <glyph glyph-name="uni01DB" unicode="&#x1db;" horiz-adv-x="678" 
d="M283 -10q-104 0 -162 52t-58 134q0 11 1 26.5t3.5 37t6.5 51t9 68t11.5 87t15 108.5t18.5 132h124q-14 -99 -24.5 -173t-18 -128t-12.5 -91t-7 -61t-2 -40q0 -49 31 -74t89 -25q64 0 106.5 35.5t49.5 91.5l65 465h124l-65 -467q-10 -71 -47.5 -122.5t-97.5 -79
t-140 -27.5h-20zM374 914l-89 126l1 3h104l64 -129h-80zM246 775l15 104h103l-15 -104h-103zM441 775l15 104h104l-15 -104h-104z" />
    <glyph glyph-name="uni01D5" unicode="&#x1d5;" horiz-adv-x="678" 
d="M283 -10q-104 0 -162 52t-58 134q0 11 1 26.5t3.5 37t6.5 51t9 68t11.5 87t15 108.5t18.5 132h124q-14 -99 -24.5 -173t-18 -128t-12.5 -91t-7 -61t-2 -40q0 -49 31 -74t89 -25q64 0 106.5 35.5t49.5 91.5l65 465h124l-65 -467q-10 -71 -47.5 -122.5t-97.5 -79
t-140 -27.5h-20zM265 921l10 70h307l-10 -70h-307zM249 775l14 104h104l-14 -104h-104zM445 775l14 104h103l-14 -104h-103z" />
    <glyph glyph-name="uni1EE4" unicode="&#x1ee4;" horiz-adv-x="678" 
d="M283 -10q-104 0 -162 52t-58 134q0 11 1 26.5t3.5 37t6.5 51t9 68t11.5 87t15 108.5t18.5 132h124q-14 -99 -24.5 -173t-18 -128t-12.5 -91t-7 -61t-2 -40q0 -49 31 -74t89 -25q64 0 106.5 35.5t49.5 91.5l65 465h124l-65 -467q-10 -71 -47.5 -122.5t-97.5 -79
t-140 -27.5h-20zM218 -187l15 109h105l-16 -109h-104z" />
    <glyph glyph-name="Ugrave" unicode="&#xd9;" horiz-adv-x="678" 
d="M283 -10q-104 0 -162 52t-58 134q0 11 1 26.5t3.5 37t6.5 51t9 68t11.5 87t15 108.5t18.5 132h124q-14 -99 -24.5 -173t-18 -128t-12.5 -91t-7 -61t-2 -40q0 -49 31 -74t89 -25q64 0 106.5 35.5t49.5 91.5l65 465h124l-65 -467q-10 -71 -47.5 -122.5t-97.5 -79
t-140 -27.5h-20zM359 755l-99 132v3h105l81 -135h-87z" />
    <glyph glyph-name="uni1EE6" unicode="&#x1ee6;" horiz-adv-x="678" 
d="M283 -10q-104 0 -162 52t-58 134q0 11 1 26.5t3.5 37t6.5 51t9 68t11.5 87t15 108.5t18.5 132h124q-14 -99 -24.5 -173t-18 -128t-12.5 -91t-7 -61t-2 -40q0 -49 31 -74t89 -25q64 0 106.5 35.5t49.5 91.5l65 465h124l-65 -467q-10 -71 -47.5 -122.5t-97.5 -79
t-140 -27.5h-20zM365 729l8 59q35 3 55 19t20 43q0 17 -12.5 26t-34.5 9q-13 0 -30 -3t-37 -9l10 73q20 6 38.5 8.5t34.5 2.5q47 0 75.5 -22t28.5 -64q0 -39 -23 -70.5t-58.5 -50.5t-74.5 -21z" />
    <glyph glyph-name="Uhorn" unicode="&#x1af;" horiz-adv-x="678" 
d="M283 -10q-104 0 -162 52t-58 134q0 11 1 26.5t3.5 37t6.5 51t9 68t11.5 87t15 108.5t18.5 132h124q-14 -99 -24.5 -173t-18 -128t-12.5 -91t-7 -61t-2 -40q0 -49 31 -74t89 -25q64 0 106.5 35.5t49.5 91.5l65 465h124l-65 -467q-10 -71 -47.5 -122.5t-97.5 -79
t-140 -27.5h-20zM544 615l10 71q50 8 74.5 41t33.5 97h106q-7 -50 -37.5 -95.5t-78.5 -76.5t-108 -37z" />
    <glyph glyph-name="uni1EE8" unicode="&#x1ee8;" horiz-adv-x="678" 
d="M283 -10q-104 0 -162 52t-58 134q0 11 1 26.5t3.5 37t6.5 51t9 68t11.5 87t15 108.5t18.5 132h124q-14 -99 -24.5 -173t-18 -128t-12.5 -91t-7 -61t-2 -40q0 -49 31 -74t89 -25q64 0 106.5 35.5t49.5 91.5l65 465h124l-65 -467q-10 -71 -47.5 -122.5t-97.5 -79
t-140 -27.5h-20zM544 615l10 71q50 8 74.5 41t33.5 97h106q-7 -50 -37.5 -95.5t-78.5 -76.5t-108 -37zM358 755l114 135h113v-3l-132 -132h-95z" />
    <glyph glyph-name="uni1EF0" unicode="&#x1ef0;" horiz-adv-x="678" 
d="M283 -10q-104 0 -162 52t-58 134q0 11 1 26.5t3.5 37t6.5 51t9 68t11.5 87t15 108.5t18.5 132h124q-14 -99 -24.5 -173t-18 -128t-12.5 -91t-7 -61t-2 -40q0 -49 31 -74t89 -25q64 0 106.5 35.5t49.5 91.5l65 465h124l-65 -467q-10 -71 -47.5 -122.5t-97.5 -79
t-140 -27.5h-20zM544 615l10 71q50 8 74.5 41t33.5 97h106q-7 -50 -37.5 -95.5t-78.5 -76.5t-108 -37zM218 -187l15 109h105l-16 -109h-104z" />
    <glyph glyph-name="uni1EEA" unicode="&#x1eea;" horiz-adv-x="678" 
d="M283 -10q-104 0 -162 52t-58 134q0 11 1 26.5t3.5 37t6.5 51t9 68t11.5 87t15 108.5t18.5 132h124q-14 -99 -24.5 -173t-18 -128t-12.5 -91t-7 -61t-2 -40q0 -49 31 -74t89 -25q64 0 106.5 35.5t49.5 91.5l65 465h124l-65 -467q-10 -71 -47.5 -122.5t-97.5 -79
t-140 -27.5h-20zM544 615l10 71q50 8 74.5 41t33.5 97h106q-7 -50 -37.5 -95.5t-78.5 -76.5t-108 -37zM359 755l-99 132v3h105l81 -135h-87z" />
    <glyph glyph-name="uni1EEC" unicode="&#x1eec;" horiz-adv-x="678" 
d="M283 -10q-104 0 -162 52t-58 134q0 11 1 26.5t3.5 37t6.5 51t9 68t11.5 87t15 108.5t18.5 132h124q-14 -99 -24.5 -173t-18 -128t-12.5 -91t-7 -61t-2 -40q0 -49 31 -74t89 -25q64 0 106.5 35.5t49.5 91.5l65 465h124l-65 -467q-10 -71 -47.5 -122.5t-97.5 -79
t-140 -27.5h-20zM544 615l10 71q50 8 74.5 41t33.5 97h106q-7 -50 -37.5 -95.5t-78.5 -76.5t-108 -37zM365 729l8 59q35 3 55 19t20 43q0 17 -12.5 26t-34.5 9q-13 0 -30 -3t-37 -9l10 73q20 6 38.5 8.5t34.5 2.5q47 0 75.5 -22t28.5 -64q0 -39 -23 -70.5t-58.5 -50.5
t-74.5 -21z" />
    <glyph glyph-name="uni1EEE" unicode="&#x1eee;" horiz-adv-x="678" 
d="M283 -10q-104 0 -162 52t-58 134q0 11 1 26.5t3.5 37t6.5 51t9 68t11.5 87t15 108.5t18.5 132h124q-14 -99 -24.5 -173t-18 -128t-12.5 -91t-7 -61t-2 -40q0 -49 31 -74t89 -25q64 0 106.5 35.5t49.5 91.5l65 465h124l-65 -467q-10 -71 -47.5 -122.5t-97.5 -79
t-140 -27.5h-20zM544 615l10 71q50 8 74.5 41t33.5 97h106q-7 -50 -37.5 -95.5t-78.5 -76.5t-108 -37zM211 761q6 35 20.5 62.5t39 44t59.5 16.5q38 0 63.5 -10.5t46 -21.5t42.5 -11t35 11.5t21 31.5h56q-5 -33 -19.5 -61t-38.5 -45t-60 -17q-38 0 -64.5 11t-47 22t-43.5 11
q-19 0 -31 -10.5t-22 -33.5h-57z" />
    <glyph glyph-name="Uhungarumlaut" unicode="&#x170;" horiz-adv-x="678" 
d="M283 -10q-104 0 -162 52t-58 134q0 11 1 26.5t3.5 37t6.5 51t9 68t11.5 87t15 108.5t18.5 132h124q-14 -99 -24.5 -173t-18 -128t-12.5 -91t-7 -61t-2 -40q0 -49 31 -74t89 -25q64 0 106.5 35.5t49.5 91.5l65 465h124l-65 -467q-10 -71 -47.5 -122.5t-97.5 -79
t-140 -27.5h-20zM419 755l115 135h106l1 -3l-138 -132h-84zM258 755l115 135h105l2 -3l-139 -132h-83z" />
    <glyph glyph-name="uni0216" unicode="&#x216;" horiz-adv-x="678" 
d="M283 -10q-104 0 -162 52t-58 134q0 11 1 26.5t3.5 37t6.5 51t9 68t11.5 87t15 108.5t18.5 132h124q-14 -99 -24.5 -173t-18 -128t-12.5 -91t-7 -61t-2 -40q0 -49 31 -74t89 -25q64 0 106.5 35.5t49.5 91.5l65 465h124l-65 -467q-10 -71 -47.5 -122.5t-97.5 -79
t-140 -27.5h-20zM211 760q5 35 30 63.5t67 45.5t99 17q59 0 98 -17t57.5 -45.5t13.5 -63.5h-74q-4 32 -28 46.5t-71 14.5q-46 0 -75.5 -14.5t-43.5 -46.5h-73z" />
    <glyph glyph-name="Umacron" unicode="&#x16a;" horiz-adv-x="678" 
d="M283 -10q-104 0 -162 52t-58 134q0 11 1 26.5t3.5 37t6.5 51t9 68t11.5 87t15 108.5t18.5 132h124q-14 -99 -24.5 -173t-18 -128t-12.5 -91t-7 -61t-2 -40q0 -49 31 -74t89 -25q64 0 106.5 35.5t49.5 91.5l65 465h124l-65 -467q-10 -71 -47.5 -122.5t-97.5 -79
t-140 -27.5h-20zM238 785l10 66h319l-10 -66h-319z" />
    <glyph glyph-name="Uogonek" unicode="&#x172;" horiz-adv-x="678" 
d="M283 -10q-104 0 -162 52t-58 134q0 11 1 26.5t3.5 37t6.5 51t9 68t11.5 87t15 108.5t18.5 132h124q-14 -99 -24.5 -173t-18 -128t-12.5 -91t-7 -61t-2 -40q0 -49 31 -74t89 -25q64 0 106.5 35.5t49.5 91.5l65 465h124l-65 -467q-10 -71 -47.5 -122.5t-97.5 -79
t-140 -27.5h-20zM351 -143q-32 0 -60 13.5t-28 47.5q0 28 18.5 49.5t40.5 32.5h65q-25 -13 -40 -29t-15 -36q0 -17 12.5 -24t26.5 -7q17 0 35 4.5t34 9.5l7 -37q-23 -12 -47 -18t-49 -6z" />
    <glyph glyph-name="Uring" unicode="&#x16e;" horiz-adv-x="678" 
d="M283 -10q-104 0 -162 52t-58 134q0 11 1 26.5t3.5 37t6.5 51t9 68t11.5 87t15 108.5t18.5 132h124q-14 -99 -24.5 -173t-18 -128t-12.5 -91t-7 -61t-2 -40q0 -49 31 -74t89 -25q64 0 106.5 35.5t49.5 91.5l65 465h124l-65 -467q-10 -71 -47.5 -122.5t-97.5 -79
t-140 -27.5h-20zM388 729q-39 0 -62.5 23t-23.5 60q0 33 16.5 60t43.5 42.5t58 15.5q39 0 62.5 -23t23.5 -60q0 -33 -16.5 -60t-43 -42.5t-58.5 -15.5zM397 781q24 0 39 17.5t15 39.5q0 17 -10.5 28.5t-29.5 11.5q-24 0 -39 -17t-15 -40q0 -17 10.5 -28.5t29.5 -11.5z" />
    <glyph glyph-name="Utilde" unicode="&#x168;" horiz-adv-x="678" 
d="M283 -10q-104 0 -162 52t-58 134q0 11 1 26.5t3.5 37t6.5 51t9 68t11.5 87t15 108.5t18.5 132h124q-14 -99 -24.5 -173t-18 -128t-12.5 -91t-7 -61t-2 -40q0 -49 31 -74t89 -25q64 0 106.5 35.5t49.5 91.5l65 465h124l-65 -467q-10 -71 -47.5 -122.5t-97.5 -79
t-140 -27.5h-20zM211 761q6 35 20.5 62.5t39 44t59.5 16.5q38 0 63.5 -10.5t46 -21.5t42.5 -11t35 11.5t21 31.5h56q-5 -33 -19.5 -61t-38.5 -45t-60 -17q-38 0 -64.5 11t-47 22t-43.5 11q-19 0 -31 -10.5t-22 -33.5h-57z" />
    <glyph glyph-name="V" unicode="V" horiz-adv-x="621" 
d="M195 0l-138 686h131l102 -524h6l250 524h120l-333 -686h-138z" />
    <glyph glyph-name="W" unicode="W" horiz-adv-x="941" 
d="M158 0l-97 686h131l65 -486h6l203 486h123l65 -486h6l203 486h118l-294 -686h-132l-62 457h-7l-195 -457h-133z" />
    <glyph glyph-name="Wacute" unicode="&#x1e82;" horiz-adv-x="941" 
d="M158 0l-97 686h131l65 -486h6l203 486h123l65 -486h6l203 486h118l-294 -686h-132l-62 457h-7l-195 -457h-133zM496 755l114 135h113v-3l-132 -132h-95z" />
    <glyph glyph-name="Wcircumflex" unicode="&#x174;" horiz-adv-x="941" 
d="M158 0l-97 686h131l65 -486h6l203 486h123l65 -486h6l203 486h118l-294 -686h-132l-62 457h-7l-195 -457h-133zM359 760l131 125h113l101 -125h-97l-78 99h35l-109 -99h-96z" />
    <glyph glyph-name="Wdieresis" unicode="&#x1e84;" horiz-adv-x="941" 
d="M158 0l-97 686h131l65 -486h6l203 486h123l65 -486h6l203 486h118l-294 -686h-132l-62 457h-7l-195 -457h-133zM369 769l14 103h104l-14 -103h-104zM595 769l14 103h103l-14 -103h-103z" />
    <glyph glyph-name="Wgrave" unicode="&#x1e80;" horiz-adv-x="941" 
d="M158 0l-97 686h131l65 -486h6l203 486h123l65 -486h6l203 486h118l-294 -686h-132l-62 457h-7l-195 -457h-133zM497 755l-99 132v3h105l81 -135h-87z" />
    <glyph glyph-name="X" unicode="X" horiz-adv-x="642" 
d="M-39 0l291 357l-172 328h146l117 -228h4l186 228h135l-265 -324l190 -361h-147l-134 261h-4l-213 -261h-134z" />
    <glyph glyph-name="Y" unicode="Y" horiz-adv-x="601" 
d="M193 0l38 264l-179 422h140l122 -297h5l205 297h128l-298 -422l-37 -264h-124z" />
    <glyph glyph-name="Yacute" unicode="&#xdd;" horiz-adv-x="601" 
d="M193 0l38 264l-179 422h140l122 -297h5l205 297h128l-298 -422l-37 -264h-124zM320 755l114 135h113v-3l-132 -132h-95z" />
    <glyph glyph-name="Ycircumflex" unicode="&#x176;" horiz-adv-x="601" 
d="M193 0l38 264l-179 422h140l122 -297h5l205 297h128l-298 -422l-37 -264h-124zM183 760l131 125h113l101 -125h-97l-78 99h35l-109 -99h-96z" />
    <glyph glyph-name="Ydieresis" unicode="&#x178;" horiz-adv-x="601" 
d="M193 0l38 264l-179 422h140l122 -297h5l205 297h128l-298 -422l-37 -264h-124zM193 769l14 103h104l-14 -103h-104zM419 769l14 103h103l-14 -103h-103z" />
    <glyph glyph-name="uni1EF4" unicode="&#x1ef4;" horiz-adv-x="601" 
d="M193 0l38 264l-179 422h140l122 -297h5l205 297h128l-298 -422l-37 -264h-124zM175 -187l15 109h105l-16 -109h-104z" />
    <glyph glyph-name="Ygrave" unicode="&#x1ef2;" horiz-adv-x="601" 
d="M193 0l38 264l-179 422h140l122 -297h5l205 297h128l-298 -422l-37 -264h-124zM321 755l-99 132v3h105l81 -135h-87z" />
    <glyph glyph-name="uni1EF6" unicode="&#x1ef6;" horiz-adv-x="601" 
d="M193 0l38 264l-179 422h140l122 -297h5l205 297h128l-298 -422l-37 -264h-124zM327 729l8 59q35 3 55 19t20 43q0 17 -12.5 26t-34.5 9q-13 0 -30 -3t-37 -9l10 73q20 6 38.5 8.5t34.5 2.5q47 0 75.5 -22t28.5 -64q0 -39 -23 -70.5t-58.5 -50.5t-74.5 -21z" />
    <glyph glyph-name="uni0232" unicode="&#x232;" horiz-adv-x="601" 
d="M193 0l38 264l-179 422h140l122 -297h5l205 297h128l-298 -422l-37 -264h-124zM200 785l10 66h319l-10 -66h-319z" />
    <glyph glyph-name="uni1EF8" unicode="&#x1ef8;" horiz-adv-x="601" 
d="M193 0l38 264l-179 422h140l122 -297h5l205 297h128l-298 -422l-37 -264h-124zM173 761q6 35 20.5 62.5t39 44t59.5 16.5q38 0 63.5 -10.5t46 -21.5t42.5 -11t35 11.5t21 31.5h56q-5 -33 -19.5 -61t-38.5 -45t-60 -17q-38 0 -64.5 11t-47 22t-43.5 11q-19 0 -31 -10.5
t-22 -33.5h-57z" />
    <glyph glyph-name="Z" unicode="Z" horiz-adv-x="612" 
d="M-8 0l6 43l418 538h-318l15 105h502l-6 -44l-418 -537h350l-15 -105h-534z" />
    <glyph glyph-name="Zacute" unicode="&#x179;" horiz-adv-x="612" 
d="M-8 0l6 43l418 538h-318l15 105h502l-6 -44l-418 -537h350l-15 -105h-534zM327 755l114 135h113v-3l-132 -132h-95z" />
    <glyph glyph-name="Zcaron" unicode="&#x17d;" horiz-adv-x="612" 
d="M-8 0l6 43l418 538h-318l15 105h502l-6 -44l-418 -537h350l-15 -105h-534zM308 760l-99 125h97l78 -99h-35l107 99h96l-131 -125h-113z" />
    <glyph glyph-name="Zdotaccent" unicode="&#x17b;" horiz-adv-x="612" 
d="M-8 0l6 43l418 538h-318l15 105h502l-6 -44l-418 -537h350l-15 -105h-534zM312 769l14 104h105l-14 -104h-105z" />
    <glyph glyph-name="Cacute.loclPLK" horiz-adv-x="672" 
d="M300 -10q-70 0 -127.5 28.5t-91.5 83.5t-34 134q0 21 6 65.5t12 87.5q11 76 38.5 133.5t70.5 96t98 58t119 19.5h10q68 0 121.5 -25t85 -74.5t31.5 -123.5q0 -13 -1 -26.5t-3 -27.5h-121q2 11 2.5 21t1.5 22q0 44 -17 72.5t-46.5 42.5t-68.5 14q-52 0 -92.5 -22
t-66.5 -66.5t-36 -113.5q-5 -37 -8.5 -61.5t-5.5 -40.5t-2.5 -26.5t-0.5 -19.5q0 -49 18 -81.5t50.5 -48.5t75.5 -16q48 0 85.5 18t62 56t32.5 96h115q-13 -91 -55 -152.5t-106.5 -92t-145.5 -30.5h-6zM354 750l53 145h108l1 -3l-79 -142h-83z" />
    <glyph glyph-name="Nacute.loclPLK" horiz-adv-x="693" 
d="M38 0l97 686h107l206 -389l34 -67l3 2l64 454h113l-97 -686h-105l-207 390l-34 69l-3 -2l-65 -457h-113zM358 750l53 145h108l1 -3l-79 -142h-83z" />
    <glyph glyph-name="Oacute.loclPLK" horiz-adv-x="698" 
d="M298 -10q-70 0 -127 28.5t-90.5 83.5t-33.5 134q0 21 6 65.5t12 87.5q11 76 39.5 133.5t72.5 96t100.5 58t122.5 19.5h6q70 0 127 -28.5t90.5 -83.5t33.5 -134q0 -21 -6 -65l-12 -88q-10 -76 -39 -133.5t-73 -96t-100.5 -58t-122.5 -19.5h-6zM318 95q39 0 72 12.5
t58 37.5t41.5 63t23.5 89q5 37 8.5 61.5t5.5 40.5t2.5 26.5t0.5 19.5q0 50 -18 82t-50.5 48t-75.5 16q-39 0 -72 -12.5t-58 -37.5t-41.5 -63t-23.5 -89q-5 -37 -8.5 -61.5t-5.5 -40.5t-2.5 -26.5t-0.5 -19.5q0 -49 18 -81.5t50.5 -48.5t75.5 -16zM369 750l53 145h108l1 -3
l-79 -142h-83z" />
    <glyph glyph-name="Sacute.loclPLK" horiz-adv-x="632" 
d="M261 -10q-66 0 -119.5 17.5t-85 55.5t-31.5 101q0 13 2 29t5 26h120q-3 -4 -4 -17t-1 -19q0 -29 14.5 -50t43 -32t71.5 -11q57 0 94 13.5t55.5 38.5t18.5 59q0 30 -19.5 47.5t-51.5 29t-70.5 21t-77 21.5t-70.5 32t-51.5 52t-19.5 82q0 70 36.5 116.5t100.5 70t145 23.5
q63 0 115 -17t82.5 -53.5t30.5 -94.5q0 -7 -0.5 -17.5t-3.5 -25.5h-119q2 11 2.5 16.5t0.5 9.5q0 38 -31.5 60t-84.5 22q-46 0 -79.5 -11t-52 -31.5t-18.5 -51.5q0 -29 19.5 -46.5t52 -28.5t71 -20.5t77 -21.5t71 -31.5t52 -51t19.5 -79.5q0 -58 -21.5 -102t-61.5 -73
t-97 -43.5t-129 -14.5zM332 750l53 145h108l1 -3l-79 -142h-83z" />
    <glyph glyph-name="Zacute.loclPLK" horiz-adv-x="612" 
d="M-8 0l6 43l418 538h-318l15 105h502l-6 -44l-418 -537h350l-15 -105h-534zM325 750l53 145h108l1 -3l-79 -142h-83z" />
    <glyph glyph-name="uni026A" unicode="&#x26a;" horiz-adv-x="366" 
d="M-16 0l13 89h105l46 333h-105l13 89h326l-13 -89h-105l-46 -333h105l-13 -89h-326z" />
    <glyph glyph-name="Ismallstroke" unicode="&#x1d7b;" horiz-adv-x="269" 
d="M16 326h253l-14 -94h-253zM37 0l71 511h118l-71 -511h-118z" />
    <glyph glyph-name="a" unicode="a" horiz-adv-x="603" 
d="M210 -10q-53 0 -92 22.5t-60 67t-21 110.5q0 75 18 135.5t50.5 104.5t76.5 67.5t96 23.5q50 0 86.5 -20.5t55.5 -53.5h6l32 64h84q-6 -41 -13.5 -92.5t-15 -104t-14 -98.5t-10 -76.5t-3.5 -37.5q0 -13 7 -19t18 -6t24 4.5t20 9.5l-11 -81q-13 -7 -35 -13.5t-48 -6.5
q-31 0 -50.5 9.5t-28.5 26.5t-11 39q-31 -34 -71 -54.5t-90 -20.5zM250 77q35 0 62.5 17t46 48.5t25.5 74.5q7 46 9 66.5t2 34.5q0 53 -23 83.5t-73 30.5q-39 0 -67.5 -20t-45.5 -54.5t-24 -76.5q-6 -43 -7.5 -61.5t-1.5 -31.5q0 -53 24 -82t73 -29z" />
    <glyph glyph-name="aacute" unicode="&#xe1;" horiz-adv-x="603" 
d="M210 -10q-53 0 -92 22.5t-60 67t-21 110.5q0 75 18 135.5t50.5 104.5t76.5 67.5t96 23.5q50 0 86.5 -20.5t55.5 -53.5h6l32 64h84q-6 -41 -13.5 -92.5t-15 -104t-14 -98.5t-10 -76.5t-3.5 -37.5q0 -13 7 -19t18 -6t24 4.5t20 9.5l-11 -81q-13 -7 -35 -13.5t-48 -6.5
q-31 0 -50.5 9.5t-28.5 26.5t-11 39q-31 -34 -71 -54.5t-90 -20.5zM250 77q35 0 62.5 17t46 48.5t25.5 74.5q7 46 9 66.5t2 34.5q0 53 -23 83.5t-73 30.5q-39 0 -67.5 -20t-45.5 -54.5t-24 -76.5q-6 -43 -7.5 -61.5t-1.5 -31.5q0 -53 24 -82t73 -29zM289 588l103 171h103
l1 -3l-128 -168h-79z" />
    <glyph glyph-name="abreve" unicode="&#x103;" horiz-adv-x="603" 
d="M210 -10q-53 0 -92 22.5t-60 67t-21 110.5q0 75 18 135.5t50.5 104.5t76.5 67.5t96 23.5q50 0 86.5 -20.5t55.5 -53.5h6l32 64h84q-6 -41 -13.5 -92.5t-15 -104t-14 -98.5t-10 -76.5t-3.5 -37.5q0 -13 7 -19t18 -6t24 4.5t20 9.5l-11 -81q-13 -7 -35 -13.5t-48 -6.5
q-31 0 -50.5 9.5t-28.5 26.5t-11 39q-31 -34 -71 -54.5t-90 -20.5zM250 77q35 0 62.5 17t46 48.5t25.5 74.5q7 46 9 66.5t2 34.5q0 53 -23 83.5t-73 30.5q-39 0 -67.5 -20t-45.5 -54.5t-24 -76.5q-6 -43 -7.5 -61.5t-1.5 -31.5q0 -53 24 -82t73 -29zM332 588q-54 0 -89 19.5
t-50.5 52.5t-12.5 74h74q2 -43 23.5 -62t61.5 -19q44 0 70.5 19t42.5 62h73q-8 -41 -33 -74t-65 -52.5t-95 -19.5z" />
    <glyph glyph-name="uni1EAF" unicode="&#x1eaf;" horiz-adv-x="603" 
d="M210 -10q-53 0 -92 22.5t-60 67t-21 110.5q0 75 18 135.5t50.5 104.5t76.5 67.5t96 23.5q50 0 86.5 -20.5t55.5 -53.5h6l32 64h84q-6 -41 -13.5 -92.5t-15 -104t-14 -98.5t-10 -76.5t-3.5 -37.5q0 -13 7 -19t18 -6t24 4.5t20 9.5l-11 -81q-13 -7 -35 -13.5t-48 -6.5
q-31 0 -50.5 9.5t-28.5 26.5t-11 39q-31 -34 -71 -54.5t-90 -20.5zM250 77q35 0 62.5 17t46 48.5t25.5 74.5q7 46 9 66.5t2 34.5q0 53 -23 83.5t-73 30.5q-39 0 -67.5 -20t-45.5 -54.5t-24 -76.5q-6 -43 -7.5 -61.5t-1.5 -31.5q0 -53 24 -82t73 -29zM282 739l115 145h103v-3
l-137 -142h-81zM317 603q-58 0 -97.5 17t-57.5 45.5t-13 63.5h74q4 -32 28.5 -46.5t70.5 -14.5q47 0 76 14.5t43 46.5h73q-5 -35 -30 -63.5t-67.5 -45.5t-99.5 -17z" />
    <glyph glyph-name="uni1EB7" unicode="&#x1eb7;" horiz-adv-x="603" 
d="M210 -10q-53 0 -92 22.5t-60 67t-21 110.5q0 75 18 135.5t50.5 104.5t76.5 67.5t96 23.5q50 0 86.5 -20.5t55.5 -53.5h6l32 64h84q-6 -41 -13.5 -92.5t-15 -104t-14 -98.5t-10 -76.5t-3.5 -37.5q0 -13 7 -19t18 -6t24 4.5t20 9.5l-11 -81q-13 -7 -35 -13.5t-48 -6.5
q-31 0 -50.5 9.5t-28.5 26.5t-11 39q-31 -34 -71 -54.5t-90 -20.5zM250 77q35 0 62.5 17t46 48.5t25.5 74.5q7 46 9 66.5t2 34.5q0 53 -23 83.5t-73 30.5q-39 0 -67.5 -20t-45.5 -54.5t-24 -76.5q-6 -43 -7.5 -61.5t-1.5 -31.5q0 -53 24 -82t73 -29zM186 -187l15 109h105
l-16 -109h-104zM332 588q-54 0 -89 19.5t-50.5 52.5t-12.5 74h74q2 -43 23.5 -62t61.5 -19q44 0 70.5 19t42.5 62h73q-8 -41 -33 -74t-65 -52.5t-95 -19.5z" />
    <glyph glyph-name="uni1EB1" unicode="&#x1eb1;" horiz-adv-x="603" 
d="M210 -10q-53 0 -92 22.5t-60 67t-21 110.5q0 75 18 135.5t50.5 104.5t76.5 67.5t96 23.5q50 0 86.5 -20.5t55.5 -53.5h6l32 64h84q-6 -41 -13.5 -92.5t-15 -104t-14 -98.5t-10 -76.5t-3.5 -37.5q0 -13 7 -19t18 -6t24 4.5t20 9.5l-11 -81q-13 -7 -35 -13.5t-48 -6.5
q-31 0 -50.5 9.5t-28.5 26.5t-11 39q-31 -34 -71 -54.5t-90 -20.5zM250 77q35 0 62.5 17t46 48.5t25.5 74.5q7 46 9 66.5t2 34.5q0 53 -23 83.5t-73 30.5q-39 0 -67.5 -20t-45.5 -54.5t-24 -76.5q-6 -43 -7.5 -61.5t-1.5 -31.5q0 -53 24 -82t73 -29zM303 749l-97 142l2 3
h103l73 -145h-81zM318 613q-58 0 -97.5 17t-57.5 45.5t-13 63.5h74q4 -32 28.5 -46.5t70.5 -14.5q47 0 76 14.5t43 46.5h73q-5 -35 -30 -63.5t-67.5 -45.5t-99.5 -17z" />
    <glyph glyph-name="uni1EB3" unicode="&#x1eb3;" horiz-adv-x="603" 
d="M210 -10q-53 0 -92 22.5t-60 67t-21 110.5q0 75 18 135.5t50.5 104.5t76.5 67.5t96 23.5q50 0 86.5 -20.5t55.5 -53.5h6l32 64h84q-6 -41 -13.5 -92.5t-15 -104t-14 -98.5t-10 -76.5t-3.5 -37.5q0 -13 7 -19t18 -6t24 4.5t20 9.5l-11 -81q-13 -7 -35 -13.5t-48 -6.5
q-31 0 -50.5 9.5t-28.5 26.5t-11 39q-31 -34 -71 -54.5t-90 -20.5zM250 77q35 0 62.5 17t46 48.5t25.5 74.5q7 46 9 66.5t2 34.5q0 53 -23 83.5t-73 30.5q-39 0 -67.5 -20t-45.5 -54.5t-24 -76.5q-6 -43 -7.5 -61.5t-1.5 -31.5q0 -53 24 -82t73 -29zM311 749l7 49
q29 2 46 16t17 36q0 14 -11.5 21.5t-28.5 7.5q-11 0 -25 -2.5t-30 -7.5l9 61q15 5 30.5 7t29.5 2q38 0 62.5 -19t24.5 -54q0 -32 -19 -58t-49 -41.5t-63 -17.5zM318 613q-58 0 -97.5 17t-57.5 45.5t-13 63.5h74q4 -32 28.5 -46.5t70.5 -14.5q47 0 76 14.5t43 46.5h73
q-5 -35 -30 -63.5t-67.5 -45.5t-99.5 -17z" />
    <glyph glyph-name="uni1EB5" unicode="&#x1eb5;" horiz-adv-x="603" 
d="M210 -10q-53 0 -92 22.5t-60 67t-21 110.5q0 75 18 135.5t50.5 104.5t76.5 67.5t96 23.5q50 0 86.5 -20.5t55.5 -53.5h6l32 64h84q-6 -41 -13.5 -92.5t-15 -104t-14 -98.5t-10 -76.5t-3.5 -37.5q0 -13 7 -19t18 -6t24 4.5t20 9.5l-11 -81q-13 -7 -35 -13.5t-48 -6.5
q-31 0 -50.5 9.5t-28.5 26.5t-11 39q-31 -34 -71 -54.5t-90 -20.5zM250 77q35 0 62.5 17t46 48.5t25.5 74.5q7 46 9 66.5t2 34.5q0 53 -23 83.5t-73 30.5q-39 0 -67.5 -20t-45.5 -54.5t-24 -76.5q-6 -43 -7.5 -61.5t-1.5 -31.5q0 -53 24 -82t73 -29zM151 775q4 28 21 55
t45.5 44.5t66.5 17.5q32 0 54 -8.5t42 -17.5t47 -9q22 0 36.5 9t22.5 26h56q-4 -27 -20.5 -54t-45 -45t-67.5 -18q-31 0 -52 8.5t-41 17.5t-50 10q-22 0 -36 -9.5t-22 -26.5h-57zM317 613q-58 0 -97.5 17t-57.5 45.5t-13 63.5h74q4 -32 28.5 -46.5t70.5 -14.5q47 0 76 14.5
t43 46.5h73q-5 -35 -30 -63.5t-67.5 -45.5t-99.5 -17z" />
    <glyph glyph-name="uni01CE" unicode="&#x1ce;" horiz-adv-x="603" 
d="M210 -10q-53 0 -92 22.5t-60 67t-21 110.5q0 75 18 135.5t50.5 104.5t76.5 67.5t96 23.5q50 0 86.5 -20.5t55.5 -53.5h6l32 64h84q-6 -41 -13.5 -92.5t-15 -104t-14 -98.5t-10 -76.5t-3.5 -37.5q0 -13 7 -19t18 -6t24 4.5t20 9.5l-11 -81q-13 -7 -35 -13.5t-48 -6.5
q-31 0 -50.5 9.5t-28.5 26.5t-11 39q-31 -34 -71 -54.5t-90 -20.5zM250 77q35 0 62.5 17t46 48.5t25.5 74.5q7 46 9 66.5t2 34.5q0 53 -23 83.5t-73 30.5q-39 0 -67.5 -20t-45.5 -54.5t-24 -76.5q-6 -43 -7.5 -61.5t-1.5 -31.5q0 -53 24 -82t73 -29zM529 758l-149 -170h-99
l-101 170h90l92 -157h-63l136 157h94z" />
    <glyph glyph-name="acircumflex" unicode="&#xe2;" horiz-adv-x="603" 
d="M210 -10q-53 0 -92 22.5t-60 67t-21 110.5q0 75 18 135.5t50.5 104.5t76.5 67.5t96 23.5q50 0 86.5 -20.5t55.5 -53.5h6l32 64h84q-6 -41 -13.5 -92.5t-15 -104t-14 -98.5t-10 -76.5t-3.5 -37.5q0 -13 7 -19t18 -6t24 4.5t20 9.5l-11 -81q-13 -7 -35 -13.5t-48 -6.5
q-31 0 -50.5 9.5t-28.5 26.5t-11 39q-31 -34 -71 -54.5t-90 -20.5zM250 77q35 0 62.5 17t46 48.5t25.5 74.5q7 46 9 66.5t2 34.5q0 53 -23 83.5t-73 30.5q-39 0 -67.5 -20t-45.5 -54.5t-24 -76.5q-6 -43 -7.5 -61.5t-1.5 -31.5q0 -53 24 -82t73 -29zM158 588l149 170h99
l101 -170h-90l-97 157h73l-141 -157h-94z" />
    <glyph glyph-name="uni1EA5" unicode="&#x1ea5;" horiz-adv-x="603" 
d="M210 -10q-53 0 -92 22.5t-60 67t-21 110.5q0 75 18 135.5t50.5 104.5t76.5 67.5t96 23.5q50 0 86.5 -20.5t55.5 -53.5h6l32 64h84q-6 -41 -13.5 -92.5t-15 -104t-14 -98.5t-10 -76.5t-3.5 -37.5q0 -13 7 -19t18 -6t24 4.5t20 9.5l-11 -81q-13 -7 -35 -13.5t-48 -6.5
q-31 0 -50.5 9.5t-28.5 26.5t-11 39q-31 -34 -71 -54.5t-90 -20.5zM250 77q35 0 62.5 17t46 48.5t25.5 74.5q7 46 9 66.5t2 34.5q0 53 -23 83.5t-73 30.5q-39 0 -67.5 -20t-45.5 -54.5t-24 -76.5q-6 -43 -7.5 -61.5t-1.5 -31.5q0 -53 24 -82t73 -29zM300 778l113 145h104
l1 -3l-138 -142h-80zM132 593l156 145h89l117 -145h-88l-78 88l-102 -88h-94z" />
    <glyph glyph-name="uni1EAD" unicode="&#x1ead;" horiz-adv-x="603" 
d="M210 -10q-53 0 -92 22.5t-60 67t-21 110.5q0 75 18 135.5t50.5 104.5t76.5 67.5t96 23.5q50 0 86.5 -20.5t55.5 -53.5h6l32 64h84q-6 -41 -13.5 -92.5t-15 -104t-14 -98.5t-10 -76.5t-3.5 -37.5q0 -13 7 -19t18 -6t24 4.5t20 9.5l-11 -81q-13 -7 -35 -13.5t-48 -6.5
q-31 0 -50.5 9.5t-28.5 26.5t-11 39q-31 -34 -71 -54.5t-90 -20.5zM250 77q35 0 62.5 17t46 48.5t25.5 74.5q7 46 9 66.5t2 34.5q0 53 -23 83.5t-73 30.5q-39 0 -67.5 -20t-45.5 -54.5t-24 -76.5q-6 -43 -7.5 -61.5t-1.5 -31.5q0 -53 24 -82t73 -29zM186 -187l15 109h105
l-16 -109h-104zM158 588l149 170h99l101 -170h-90l-97 157h73l-141 -157h-94z" />
    <glyph glyph-name="uni1EA7" unicode="&#x1ea7;" horiz-adv-x="603" 
d="M210 -10q-53 0 -92 22.5t-60 67t-21 110.5q0 75 18 135.5t50.5 104.5t76.5 67.5t96 23.5q50 0 86.5 -20.5t55.5 -53.5h6l32 64h84q-6 -41 -13.5 -92.5t-15 -104t-14 -98.5t-10 -76.5t-3.5 -37.5q0 -13 7 -19t18 -6t24 4.5t20 9.5l-11 -81q-13 -7 -35 -13.5t-48 -6.5
q-31 0 -50.5 9.5t-28.5 26.5t-11 39q-31 -34 -71 -54.5t-90 -20.5zM250 77q35 0 62.5 17t46 48.5t25.5 74.5q7 46 9 66.5t2 34.5q0 53 -23 83.5t-73 30.5q-39 0 -67.5 -20t-45.5 -54.5t-24 -76.5q-6 -43 -7.5 -61.5t-1.5 -31.5q0 -53 24 -82t73 -29zM298 778l-98 142l1 3
h104l73 -145h-80zM134 593l156 145h89l117 -145h-88l-78 88l-102 -88h-94z" />
    <glyph glyph-name="uni1EA9" unicode="&#x1ea9;" horiz-adv-x="603" 
d="M210 -10q-53 0 -92 22.5t-60 67t-21 110.5q0 75 18 135.5t50.5 104.5t76.5 67.5t96 23.5q50 0 86.5 -20.5t55.5 -53.5h6l32 64h84q-6 -41 -13.5 -92.5t-15 -104t-14 -98.5t-10 -76.5t-3.5 -37.5q0 -13 7 -19t18 -6t24 4.5t20 9.5l-11 -81q-13 -7 -35 -13.5t-48 -6.5
q-31 0 -50.5 9.5t-28.5 26.5t-11 39q-31 -34 -71 -54.5t-90 -20.5zM250 77q35 0 62.5 17t46 48.5t25.5 74.5q7 46 9 66.5t2 34.5q0 53 -23 83.5t-73 30.5q-39 0 -67.5 -20t-45.5 -54.5t-24 -76.5q-6 -43 -7.5 -61.5t-1.5 -31.5q0 -53 24 -82t73 -29zM322 779l7 49
q28 3 44.5 16.5t16.5 35.5q0 15 -10.5 22.5t-28.5 7.5q-11 0 -25 -2.5t-30 -7.5l8 61q16 5 31 6.5t29 1.5q38 0 62.5 -18.5t24.5 -53.5q0 -33 -19.5 -59t-49 -41.5t-60.5 -17.5zM133 593l156 145h89l117 -145h-88l-78 88l-102 -88h-94z" />
    <glyph glyph-name="uni1EAB" unicode="&#x1eab;" horiz-adv-x="603" 
d="M210 -10q-53 0 -92 22.5t-60 67t-21 110.5q0 75 18 135.5t50.5 104.5t76.5 67.5t96 23.5q50 0 86.5 -20.5t55.5 -53.5h6l32 64h84q-6 -41 -13.5 -92.5t-15 -104t-14 -98.5t-10 -76.5t-3.5 -37.5q0 -13 7 -19t18 -6t24 4.5t20 9.5l-11 -81q-13 -7 -35 -13.5t-48 -6.5
q-31 0 -50.5 9.5t-28.5 26.5t-11 39q-31 -34 -71 -54.5t-90 -20.5zM250 77q35 0 62.5 17t46 48.5t25.5 74.5q7 46 9 66.5t2 34.5q0 53 -23 83.5t-73 30.5q-39 0 -67.5 -20t-45.5 -54.5t-24 -76.5q-6 -43 -7.5 -61.5t-1.5 -31.5q0 -53 24 -82t73 -29zM151 775q4 28 20.5 55
t45 44.5t66.5 17.5q32 0 54 -8.5t42 -17.5t47 -9q22 0 37 9t22 26h56q-4 -27 -20.5 -54t-44.5 -45t-67 -18q-31 0 -52 8.5t-41 17.5t-50 10q-22 0 -36 -9.5t-22 -26.5h-57zM132 593l156 145h89l117 -145h-88l-78 88l-102 -88h-94z" />
    <glyph glyph-name="uni0201" unicode="&#x201;" horiz-adv-x="603" 
d="M210 -10q-53 0 -92 22.5t-60 67t-21 110.5q0 75 18 135.5t50.5 104.5t76.5 67.5t96 23.5q50 0 86.5 -20.5t55.5 -53.5h6l32 64h84q-6 -41 -13.5 -92.5t-15 -104t-14 -98.5t-10 -76.5t-3.5 -37.5q0 -13 7 -19t18 -6t24 4.5t20 9.5l-11 -81q-13 -7 -35 -13.5t-48 -6.5
q-31 0 -50.5 9.5t-28.5 26.5t-11 39q-31 -34 -71 -54.5t-90 -20.5zM250 77q35 0 62.5 17t46 48.5t25.5 74.5q7 46 9 66.5t2 34.5q0 53 -23 83.5t-73 30.5q-39 0 -67.5 -20t-45.5 -54.5t-24 -76.5q-6 -43 -7.5 -61.5t-1.5 -31.5q0 -53 24 -82t73 -29zM366 593l-97 142l1 3
h103l74 -145h-81zM196 593l-98 142l2 3h103l73 -145h-80z" />
    <glyph glyph-name="adieresis" unicode="&#xe4;" horiz-adv-x="603" 
d="M210 -10q-53 0 -92 22.5t-60 67t-21 110.5q0 75 18 135.5t50.5 104.5t76.5 67.5t96 23.5q50 0 86.5 -20.5t55.5 -53.5h6l32 64h84q-6 -41 -13.5 -92.5t-15 -104t-14 -98.5t-10 -76.5t-3.5 -37.5q0 -13 7 -19t18 -6t24 4.5t20 9.5l-11 -81q-13 -7 -35 -13.5t-48 -6.5
q-31 0 -50.5 9.5t-28.5 26.5t-11 39q-31 -34 -71 -54.5t-90 -20.5zM250 77q35 0 62.5 17t46 48.5t25.5 74.5q7 46 9 66.5t2 34.5q0 53 -23 83.5t-73 30.5q-39 0 -67.5 -20t-45.5 -54.5t-24 -76.5q-6 -43 -7.5 -61.5t-1.5 -31.5q0 -53 24 -82t73 -29zM150 608l16 115h128
l-16 -115h-128zM392 608l16 115h128l-16 -115h-128z" />
    <glyph glyph-name="uni1EA1" unicode="&#x1ea1;" horiz-adv-x="603" 
d="M210 -10q-53 0 -92 22.5t-60 67t-21 110.5q0 75 18 135.5t50.5 104.5t76.5 67.5t96 23.5q50 0 86.5 -20.5t55.5 -53.5h6l32 64h84q-6 -41 -13.5 -92.5t-15 -104t-14 -98.5t-10 -76.5t-3.5 -37.5q0 -13 7 -19t18 -6t24 4.5t20 9.5l-11 -81q-13 -7 -35 -13.5t-48 -6.5
q-31 0 -50.5 9.5t-28.5 26.5t-11 39q-31 -34 -71 -54.5t-90 -20.5zM250 77q35 0 62.5 17t46 48.5t25.5 74.5q7 46 9 66.5t2 34.5q0 53 -23 83.5t-73 30.5q-39 0 -67.5 -20t-45.5 -54.5t-24 -76.5q-6 -43 -7.5 -61.5t-1.5 -31.5q0 -53 24 -82t73 -29zM186 -187l15 109h105
l-16 -109h-104z" />
    <glyph glyph-name="agrave" unicode="&#xe0;" horiz-adv-x="603" 
d="M210 -10q-53 0 -92 22.5t-60 67t-21 110.5q0 75 18 135.5t50.5 104.5t76.5 67.5t96 23.5q50 0 86.5 -20.5t55.5 -53.5h6l32 64h84q-6 -41 -13.5 -92.5t-15 -104t-14 -98.5t-10 -76.5t-3.5 -37.5q0 -13 7 -19t18 -6t24 4.5t20 9.5l-11 -81q-13 -7 -35 -13.5t-48 -6.5
q-31 0 -50.5 9.5t-28.5 26.5t-11 39q-31 -34 -71 -54.5t-90 -20.5zM250 77q35 0 62.5 17t46 48.5t25.5 74.5q7 46 9 66.5t2 34.5q0 53 -23 83.5t-73 30.5q-39 0 -67.5 -20t-45.5 -54.5t-24 -76.5q-6 -43 -7.5 -61.5t-1.5 -31.5q0 -53 24 -82t73 -29zM277 588l-80 168l1 3h98
l55 -171h-74z" />
    <glyph glyph-name="uni1EA3" unicode="&#x1ea3;" horiz-adv-x="603" 
d="M210 -10q-53 0 -92 22.5t-60 67t-21 110.5q0 75 18 135.5t50.5 104.5t76.5 67.5t96 23.5q50 0 86.5 -20.5t55.5 -53.5h6l32 64h84q-6 -41 -13.5 -92.5t-15 -104t-14 -98.5t-10 -76.5t-3.5 -37.5q0 -13 7 -19t18 -6t24 4.5t20 9.5l-11 -81q-13 -7 -35 -13.5t-48 -6.5
q-31 0 -50.5 9.5t-28.5 26.5t-11 39q-31 -34 -71 -54.5t-90 -20.5zM250 77q35 0 62.5 17t46 48.5t25.5 74.5q7 46 9 66.5t2 34.5q0 53 -23 83.5t-73 30.5q-39 0 -67.5 -20t-45.5 -54.5t-24 -76.5q-6 -43 -7.5 -61.5t-1.5 -31.5q0 -53 24 -82t73 -29zM295 572l8 59
q35 3 55 19t20 43q0 17 -12.5 26t-34.5 9q-13 0 -30 -3t-37 -9l10 73q20 6 38.5 8.5t34.5 2.5q47 0 75.5 -22t28.5 -64q0 -39 -23 -70.5t-58.5 -50.5t-74.5 -21z" />
    <glyph glyph-name="uni0203" unicode="&#x203;" horiz-adv-x="603" 
d="M210 -10q-53 0 -92 22.5t-60 67t-21 110.5q0 75 18 135.5t50.5 104.5t76.5 67.5t96 23.5q50 0 86.5 -20.5t55.5 -53.5h6l32 64h84q-6 -41 -13.5 -92.5t-15 -104t-14 -98.5t-10 -76.5t-3.5 -37.5q0 -13 7 -19t18 -6t24 4.5t20 9.5l-11 -81q-13 -7 -35 -13.5t-48 -6.5
q-31 0 -50.5 9.5t-28.5 26.5t-11 39q-31 -34 -71 -54.5t-90 -20.5zM250 77q35 0 62.5 17t46 48.5t25.5 74.5q7 46 9 66.5t2 34.5q0 53 -23 83.5t-73 30.5q-39 0 -67.5 -20t-45.5 -54.5t-24 -76.5q-6 -43 -7.5 -61.5t-1.5 -31.5q0 -53 24 -82t73 -29zM132 603q5 35 30.5 63.5
t68 45.5t99.5 17q59 0 97.5 -17t56.5 -45.5t13 -63.5h-74q-4 32 -28 46.5t-71 14.5q-46 0 -75.5 -14.5t-43.5 -46.5h-73z" />
    <glyph glyph-name="amacron" unicode="&#x101;" horiz-adv-x="603" 
d="M210 -10q-53 0 -92 22.5t-60 67t-21 110.5q0 75 18 135.5t50.5 104.5t76.5 67.5t96 23.5q50 0 86.5 -20.5t55.5 -53.5h6l32 64h84q-6 -41 -13.5 -92.5t-15 -104t-14 -98.5t-10 -76.5t-3.5 -37.5q0 -13 7 -19t18 -6t24 4.5t20 9.5l-11 -81q-13 -7 -35 -13.5t-48 -6.5
q-31 0 -50.5 9.5t-28.5 26.5t-11 39q-31 -34 -71 -54.5t-90 -20.5zM250 77q35 0 62.5 17t46 48.5t25.5 74.5q7 46 9 66.5t2 34.5q0 53 -23 83.5t-73 30.5q-39 0 -67.5 -20t-45.5 -54.5t-24 -76.5q-6 -43 -7.5 -61.5t-1.5 -31.5q0 -53 24 -82t73 -29zM177 619l10 66h319
l-10 -66h-319z" />
    <glyph glyph-name="aogonek" unicode="&#x105;" horiz-adv-x="603" 
d="M210 -10q-53 0 -92 22.5t-60 67t-21 110.5q0 75 18 135.5t50.5 104.5t76.5 67.5t96 23.5q50 0 86.5 -20.5t55.5 -53.5h6l32 64h84q-6 -41 -13.5 -92.5t-15 -104t-14 -98.5t-10 -76.5t-3.5 -37.5q0 -13 7 -19t18 -6t24 4.5t20 9.5l-11 -81q-13 -7 -35 -13.5t-48 -6.5
q-31 0 -50.5 9.5t-28.5 26.5t-11 39q-31 -34 -71 -54.5t-90 -20.5zM250 77q35 0 62.5 17t46 48.5t25.5 74.5q7 46 9 66.5t2 34.5q0 53 -23 83.5t-73 30.5q-39 0 -67.5 -20t-45.5 -54.5t-24 -76.5q-6 -43 -7.5 -61.5t-1.5 -31.5q0 -53 24 -82t73 -29zM486 -142
q-32 0 -60 13.5t-28 47.5q0 28 18.5 49.5t40.5 32.5h65q-25 -13 -40 -29t-15 -36q0 -17 12.5 -24t26.5 -7q17 0 35 4.5t34 9.5l7 -37q-23 -12 -47 -18t-49 -6z" />
    <glyph glyph-name="aring" unicode="&#xe5;" horiz-adv-x="603" 
d="M210 -10q-53 0 -92 22.5t-60 67t-21 110.5q0 75 18 135.5t50.5 104.5t76.5 67.5t96 23.5q50 0 86.5 -20.5t55.5 -53.5h6l32 64h84q-6 -41 -13.5 -92.5t-15 -104t-14 -98.5t-10 -76.5t-3.5 -37.5q0 -13 7 -19t18 -6t24 4.5t20 9.5l-11 -81q-13 -7 -35 -13.5t-48 -6.5
q-31 0 -50.5 9.5t-28.5 26.5t-11 39q-31 -34 -71 -54.5t-90 -20.5zM250 77q35 0 62.5 17t46 48.5t25.5 74.5q7 46 9 66.5t2 34.5q0 53 -23 83.5t-73 30.5q-39 0 -67.5 -20t-45.5 -54.5t-24 -76.5q-6 -43 -7.5 -61.5t-1.5 -31.5q0 -53 24 -82t73 -29zM329 586q-39 0 -62.5 23
t-23.5 60q0 33 16.5 60t43.5 42.5t58 15.5q39 0 62.5 -23t23.5 -60q0 -33 -16.5 -60t-43 -42.5t-58.5 -15.5zM338 638q24 0 39 17.5t15 39.5q0 17 -10.5 28.5t-29.5 11.5q-24 0 -39 -17t-15 -40q0 -17 10.5 -28.5t29.5 -11.5z" />
    <glyph glyph-name="aringacute" unicode="&#x1fb;" horiz-adv-x="603" 
d="M210 -10q-53 0 -92 22.5t-60 67t-21 110.5q0 75 18 135.5t50.5 104.5t76.5 67.5t96 23.5q50 0 86.5 -20.5t55.5 -53.5h6l32 64h84q-6 -41 -13.5 -92.5t-15 -104t-14 -98.5t-10 -76.5t-3.5 -37.5q0 -13 7 -19t18 -6t24 4.5t20 9.5l-11 -81q-13 -7 -35 -13.5t-48 -6.5
q-31 0 -50.5 9.5t-28.5 26.5t-11 39q-31 -34 -71 -54.5t-90 -20.5zM250 77q35 0 62.5 17t46 48.5t25.5 74.5q7 46 9 66.5t2 34.5q0 53 -23 83.5t-73 30.5q-39 0 -67.5 -20t-45.5 -54.5t-24 -76.5q-6 -43 -7.5 -61.5t-1.5 -31.5q0 -53 24 -82t73 -29zM309 830l84 131h90l1 -2
l-106 -129h-69zM303 586q-39 0 -62.5 23t-23.5 60q0 33 16.5 60t43.5 42.5t58 15.5q39 0 62.5 -23t23.5 -60q0 -33 -16.5 -60t-43 -42.5t-58.5 -15.5zM312 638q24 0 39 17.5t15 39.5q0 17 -10.5 28.5t-29.5 11.5q-24 0 -39 -17t-15 -40q0 -17 10.5 -28.5t29.5 -11.5z" />
    <glyph glyph-name="atilde" unicode="&#xe3;" horiz-adv-x="603" 
d="M210 -10q-53 0 -92 22.5t-60 67t-21 110.5q0 75 18 135.5t50.5 104.5t76.5 67.5t96 23.5q50 0 86.5 -20.5t55.5 -53.5h6l32 64h84q-6 -41 -13.5 -92.5t-15 -104t-14 -98.5t-10 -76.5t-3.5 -37.5q0 -13 7 -19t18 -6t24 4.5t20 9.5l-11 -81q-13 -7 -35 -13.5t-48 -6.5
q-31 0 -50.5 9.5t-28.5 26.5t-11 39q-31 -34 -71 -54.5t-90 -20.5zM250 77q35 0 62.5 17t46 48.5t25.5 74.5q7 46 9 66.5t2 34.5q0 53 -23 83.5t-73 30.5q-39 0 -67.5 -20t-45.5 -54.5t-24 -76.5q-6 -43 -7.5 -61.5t-1.5 -31.5q0 -53 24 -82t73 -29zM144 600q6 33 22 64.5
t42 51.5t63 20q38 0 63 -13.5t44.5 -27.5t41.5 -14q24 0 39 14.5t24 41.5h56q-5 -32 -21 -63.5t-42 -52t-63 -20.5q-38 0 -64 14t-46 28t-43 14q-21 0 -34.5 -14t-24.5 -43h-57z" />
    <glyph glyph-name="ae" unicode="&#xe6;" horiz-adv-x="906" 
d="M178 -10q-29 0 -57 5.5t-50 19t-35 37.5t-13 61q0 64 27.5 103t77 59t116.5 27t146 7q3 18 4.5 29.5t2 18.5t0.5 11q0 17 -7.5 32.5t-28 25.5t-59.5 10q-51 0 -78.5 -20.5t-35.5 -61.5h-114q0 49 31 86.5t85 59t123 21.5h14q61 0 101.5 -15t60.5 -42q69 57 169 57h11
q60 0 103 -22t66.5 -62t23.5 -96q0 -11 -2 -35.5t-10 -72.5h-352q-5 -50 3.5 -85t33.5 -53.5t68 -18.5q37 0 61 12.5t38.5 31t21 38t8.5 32.5h111q-8 -60 -42.5 -105t-88 -70t-119.5 -25h-6q-66 0 -113.5 26t-72.5 75q-27 -33 -61 -55.5t-74.5 -34t-87.5 -11.5zM231 76
q32 0 63 15.5t53 44.5t28 70l4 26q-54 0 -97.5 -4.5t-74 -15t-46.5 -29t-16 -47.5q0 -36 22 -48t64 -12zM511 309h233q10 57 -15 91.5t-79 34.5q-52 0 -88.5 -32.5t-50.5 -93.5z" />
    <glyph glyph-name="aeacute" unicode="&#x1fd;" horiz-adv-x="906" 
d="M178 -10q-29 0 -57 5.5t-50 19t-35 37.5t-13 61q0 64 27.5 103t77 59t116.5 27t146 7q3 18 4.5 29.5t2 18.5t0.5 11q0 17 -7.5 32.5t-28 25.5t-59.5 10q-51 0 -78.5 -20.5t-35.5 -61.5h-114q0 49 31 86.5t85 59t123 21.5h14q61 0 101.5 -15t60.5 -42q69 57 169 57h11
q60 0 103 -22t66.5 -62t23.5 -96q0 -11 -2 -35.5t-10 -72.5h-352q-5 -50 3.5 -85t33.5 -53.5t68 -18.5q37 0 61 12.5t38.5 31t21 38t8.5 32.5h111q-8 -60 -42.5 -105t-88 -70t-119.5 -25h-6q-66 0 -113.5 26t-72.5 75q-27 -33 -61 -55.5t-74.5 -34t-87.5 -11.5zM231 76
q32 0 63 15.5t53 44.5t28 70l4 26q-54 0 -97.5 -4.5t-74 -15t-46.5 -29t-16 -47.5q0 -36 22 -48t64 -12zM511 309h233q10 57 -15 91.5t-79 34.5q-52 0 -88.5 -32.5t-50.5 -93.5zM462 588l103 171h103l1 -3l-128 -168h-79z" />
    <glyph glyph-name="b" unicode="b" horiz-adv-x="588" 
d="M284 -10q-113 0 -158 90l-52 -80h-44l101 720h118l-39 -271q25 28 66 50t94 22q72 0 119.5 -49.5t47.5 -146.5q0 -56 -14 -114.5t-44 -108.5t-78 -81t-117 -31zM271 77q39 0 67 16t45.5 46.5t23.5 71.5q5 33 8 60.5t3 44.5q0 55 -23 85.5t-73 30.5q-35 0 -63 -17.5
t-46.5 -49t-25.5 -74.5q-5 -35 -8 -60.5t-3 -42.5q0 -36 10 -61t31 -37.5t54 -12.5z" />
    <glyph glyph-name="c" unicode="c" horiz-adv-x="556" 
d="M243 -10q-61 0 -107 24.5t-71.5 70t-25.5 109.5q0 66 15.5 125.5t48.5 104.5t84.5 71t122.5 26h12q55 0 98.5 -21t69.5 -60.5t26 -95.5v-17t-2 -18h-117q1 7 1.5 13.5t0.5 13.5q0 44 -22.5 71t-69.5 27q-40 0 -68.5 -16t-45.5 -46t-24 -72q-5 -33 -8 -60.5t-3 -44.5
q0 -48 23 -83t77 -35q37 0 64 15t43.5 43t21.5 66h112q-10 -70 -44 -117t-85.5 -70.5t-114.5 -23.5h-12z" />
    <glyph glyph-name="cacute" unicode="&#x107;" horiz-adv-x="556" 
d="M243 -10q-61 0 -107 24.5t-71.5 70t-25.5 109.5q0 66 15.5 125.5t48.5 104.5t84.5 71t122.5 26h12q55 0 98.5 -21t69.5 -60.5t26 -95.5v-17t-2 -18h-117q1 7 1.5 13.5t0.5 13.5q0 44 -22.5 71t-69.5 27q-40 0 -68.5 -16t-45.5 -46t-24 -72q-5 -33 -8 -60.5t-3 -44.5
q0 -48 23 -83t77 -35q37 0 64 15t43.5 43t21.5 66h112q-10 -70 -44 -117t-85.5 -70.5t-114.5 -23.5h-12zM273 588l103 171h103l1 -3l-128 -168h-79z" />
    <glyph glyph-name="ccaron" unicode="&#x10d;" horiz-adv-x="556" 
d="M243 -10q-61 0 -107 24.5t-71.5 70t-25.5 109.5q0 66 15.5 125.5t48.5 104.5t84.5 71t122.5 26h12q55 0 98.5 -21t69.5 -60.5t26 -95.5v-17t-2 -18h-117q1 7 1.5 13.5t0.5 13.5q0 44 -22.5 71t-69.5 27q-40 0 -68.5 -16t-45.5 -46t-24 -72q-5 -33 -8 -60.5t-3 -44.5
q0 -48 23 -83t77 -35q37 0 64 15t43.5 43t21.5 66h112q-10 -70 -44 -117t-85.5 -70.5t-114.5 -23.5h-12zM513 758l-149 -170h-99l-101 170h90l92 -157h-63l136 157h94z" />
    <glyph glyph-name="ccedilla" unicode="&#xe7;" horiz-adv-x="556" 
d="M243 -10q-61 0 -107 24.5t-71.5 70t-25.5 109.5q0 66 15.5 125.5t48.5 104.5t84.5 71t122.5 26h12q55 0 98.5 -21t69.5 -60.5t26 -95.5v-17t-2 -18h-117q1 7 1.5 13.5t0.5 13.5q0 44 -22.5 71t-69.5 27q-40 0 -68.5 -16t-45.5 -46t-24 -72q-5 -33 -8 -60.5t-3 -44.5
q0 -48 23 -83t77 -35q37 0 64 15t43.5 43t21.5 66h112q-10 -70 -44 -117t-85.5 -70.5t-114.5 -23.5h-12zM207 -209q-26 0 -52 5.5t-43 17.5l21 50q9 -8 27 -15t46 -7q16 0 31 5t25 15.5t10 28.5q0 20 -11.5 27.5t-32.5 7.5h-20l7 45h31q35 0 64 -16.5t29 -57.5t-23 -64.5
t-53.5 -32.5t-55.5 -9z" />
    <glyph glyph-name="ccircumflex" unicode="&#x109;" horiz-adv-x="556" 
d="M243 -10q-61 0 -107 24.5t-71.5 70t-25.5 109.5q0 66 15.5 125.5t48.5 104.5t84.5 71t122.5 26h12q55 0 98.5 -21t69.5 -60.5t26 -95.5v-17t-2 -18h-117q1 7 1.5 13.5t0.5 13.5q0 44 -22.5 71t-69.5 27q-40 0 -68.5 -16t-45.5 -46t-24 -72q-5 -33 -8 -60.5t-3 -44.5
q0 -48 23 -83t77 -35q37 0 64 15t43.5 43t21.5 66h112q-10 -70 -44 -117t-85.5 -70.5t-114.5 -23.5h-12zM142 588l149 170h99l101 -170h-90l-97 157h73l-141 -157h-94z" />
    <glyph glyph-name="cdotaccent" unicode="&#x10b;" horiz-adv-x="556" 
d="M243 -10q-61 0 -107 24.5t-71.5 70t-25.5 109.5q0 66 15.5 125.5t48.5 104.5t84.5 71t122.5 26h12q55 0 98.5 -21t69.5 -60.5t26 -95.5v-17t-2 -18h-117q1 7 1.5 13.5t0.5 13.5q0 44 -22.5 71t-69.5 27q-40 0 -68.5 -16t-45.5 -46t-24 -72q-5 -33 -8 -60.5t-3 -44.5
q0 -48 23 -83t77 -35q37 0 64 15t43.5 43t21.5 66h112q-10 -70 -44 -117t-85.5 -70.5t-114.5 -23.5h-12zM254 614l14 105h130l-14 -105h-130z" />
    <glyph glyph-name="d" unicode="d" horiz-adv-x="608" 
d="M214 -10q-76 0 -126.5 49t-50.5 152q0 67 16 126.5t47.5 105.5t76 72t101.5 26q53 0 88 -21.5t51 -50.5l38 271h118q-5 -34 -12 -82.5t-15 -105t-16.5 -115t-16 -112.5t-13.5 -98t-9.5 -71.5t-3.5 -31.5q0 -14 7 -20.5t17 -6.5q11 0 24 4.5t21 9.5l-12 -81
q-12 -7 -34 -13.5t-49 -6.5q-30 0 -49.5 9t-28.5 25.5t-11 37.5q-31 -33 -69.5 -52.5t-88.5 -19.5zM250 77q36 0 63.5 17t46 48.5t25.5 74.5q7 46 9 66.5t2 34.5q0 53 -23 83.5t-73 30.5q-40 0 -68 -20t-45 -54.5t-23 -76.5q-6 -43 -8 -61.5t-2 -31.5q0 -53 23.5 -82
t72.5 -29z" />
    <glyph glyph-name="eth" unicode="&#xf0;" horiz-adv-x="594" 
d="M242 -10q-63 0 -110 24t-72.5 69.5t-25.5 109.5q0 68 18.5 127t54 104t86 70.5t113.5 25.5q10 0 21 -1t21 -5q-8 13 -19 27.5t-23 29.5t-25 29l-98 -41l-35 37l95 42q-19 19 -40.5 33.5t-38.5 24.5l77 35q21 -10 43 -23.5t44 -29.5l95 41l31 -37l-85 -38q50 -46 87.5 -98
t58 -109t20.5 -118q0 -95 -32.5 -169.5t-94.5 -117t-153 -42.5h-13zM260 77q47 0 81.5 26.5t49.5 75.5q15 52 21 81t6 58q0 57 -29.5 86.5t-79.5 29.5q-56 0 -92 -34.5t-50 -94.5q-4 -21 -8 -41.5t-6 -38.5t-2 -31q0 -57 29.5 -87t79.5 -30z" />
    <glyph glyph-name="dcaron" unicode="&#x10f;" horiz-adv-x="654" 
d="M604 423l48 133h-51l18 128h122l-15 -103l-60 -158h-62zM214 -10q-76 0 -126.5 49t-50.5 152q0 67 16 126.5t47.5 105.5t76 72t101.5 26q53 0 88 -21.5t51 -50.5l38 271h118q-5 -34 -12 -82.5t-15 -105t-16.5 -115t-16 -112.5t-13.5 -98t-9.5 -71.5t-3.5 -31.5
q0 -14 7 -20.5t17 -6.5q11 0 24 4.5t21 9.5l-12 -81q-12 -7 -34 -13.5t-49 -6.5q-30 0 -49.5 9t-28.5 25.5t-11 37.5q-31 -33 -69.5 -52.5t-88.5 -19.5zM250 77q36 0 63.5 17t46 48.5t25.5 74.5q7 46 9 66.5t2 34.5q0 53 -23 83.5t-73 30.5q-40 0 -68 -20t-45 -54.5
t-23 -76.5q-6 -43 -8 -61.5t-2 -31.5q0 -53 23.5 -82t72.5 -29z" />
    <glyph glyph-name="dcroat" unicode="&#x111;" horiz-adv-x="608" 
d="M214 -10q-76 0 -126.5 49t-50.5 152q0 67 16 126.5t47.5 105.5t76 72t101.5 26q53 0 88 -21.5t51 -50.5l38 271h118q-5 -34 -12 -82.5t-15 -105t-16.5 -115t-16 -112.5t-13.5 -98t-9.5 -71.5t-3.5 -31.5q0 -14 7 -20.5t17 -6.5q11 0 24 4.5t21 9.5l-12 -81
q-12 -7 -34 -13.5t-49 -6.5q-30 0 -49.5 9t-28.5 25.5t-11 37.5q-31 -33 -69.5 -52.5t-88.5 -19.5zM250 77q36 0 63.5 17t46 48.5t25.5 74.5q7 46 9 66.5t2 34.5q0 53 -23 83.5t-73 30.5q-40 0 -68 -20t-45 -54.5t-23 -76.5q-6 -43 -8 -61.5t-2 -31.5q0 -53 23.5 -82
t72.5 -29zM292 572l13 90h325l-13 -90h-325z" />
    <glyph glyph-name="uni01C6" unicode="&#x1c6;" horiz-adv-x="1082" 
d="M214 -10q-76 0 -126.5 49t-50.5 152q0 67 16 126.5t47.5 105.5t76 72t101.5 26q53 0 88 -21.5t51 -50.5l38 271h118q-5 -34 -12 -82.5t-15 -105t-16.5 -115t-16 -112.5t-13.5 -98t-9.5 -71.5t-3.5 -31.5q0 -14 7 -20.5t17 -6.5q11 0 24 4.5t21 9.5l-12 -81
q-12 -7 -34 -13.5t-49 -6.5q-30 0 -49.5 9t-28.5 25.5t-11 37.5q-31 -33 -69.5 -52.5t-88.5 -19.5zM250 77q36 0 63.5 17t46 48.5t25.5 74.5q7 46 9 66.5t2 34.5q0 53 -23 83.5t-73 30.5q-40 0 -68 -20t-45 -54.5t-23 -76.5q-6 -43 -8 -61.5t-2 -31.5q0 -53 23.5 -82
t72.5 -29zM606 0l6 44l288 380h-221l12 87h380l-6 -43l-289 -381h243l-11 -87h-402zM1084 758l-149 -170h-99l-101 170h90l92 -157h-63l136 157h94z" />
    <glyph glyph-name="e" unicode="e" horiz-adv-x="569" 
d="M249 -10q-62 0 -109.5 24t-74 69.5t-26.5 111.5q0 68 17.5 127t52 103.5t86 70t120.5 25.5h12q56 0 101.5 -21t72 -61t26.5 -97q0 -12 -1.5 -28.5t-4.5 -36.5t-7 -44h-354q-1 -9 -2 -20t-1 -18q0 -51 26 -84.5t83 -33.5q44 0 71 18t40.5 44.5t17.5 50.5h112
q-9 -65 -43.5 -110t-87.5 -67.5t-117 -22.5h-10zM170 309h236q2 11 2.5 18t0.5 14q0 44 -25.5 68.5t-72.5 24.5q-52 0 -89.5 -31.5t-51.5 -93.5z" />
    <glyph glyph-name="eacute" unicode="&#xe9;" horiz-adv-x="569" 
d="M249 -10q-62 0 -109.5 24t-74 69.5t-26.5 111.5q0 68 17.5 127t52 103.5t86 70t120.5 25.5h12q56 0 101.5 -21t72 -61t26.5 -97q0 -12 -1.5 -28.5t-4.5 -36.5t-7 -44h-354q-1 -9 -2 -20t-1 -18q0 -51 26 -84.5t83 -33.5q44 0 71 18t40.5 44.5t17.5 50.5h112
q-9 -65 -43.5 -110t-87.5 -67.5t-117 -22.5h-10zM170 309h236q2 11 2.5 18t0.5 14q0 44 -25.5 68.5t-72.5 24.5q-52 0 -89.5 -31.5t-51.5 -93.5zM280 588l103 171h103l1 -3l-128 -168h-79z" />
    <glyph glyph-name="ebreve" unicode="&#x115;" horiz-adv-x="569" 
d="M249 -10q-62 0 -109.5 24t-74 69.5t-26.5 111.5q0 68 17.5 127t52 103.5t86 70t120.5 25.5h12q56 0 101.5 -21t72 -61t26.5 -97q0 -12 -1.5 -28.5t-4.5 -36.5t-7 -44h-354q-1 -9 -2 -20t-1 -18q0 -51 26 -84.5t83 -33.5q44 0 71 18t40.5 44.5t17.5 50.5h112
q-9 -65 -43.5 -110t-87.5 -67.5t-117 -22.5h-10zM170 309h236q2 11 2.5 18t0.5 14q0 44 -25.5 68.5t-72.5 24.5q-52 0 -89.5 -31.5t-51.5 -93.5zM323 588q-54 0 -89 19.5t-50.5 52.5t-12.5 74h74q2 -43 23.5 -62t61.5 -19q44 0 70.5 19t42.5 62h73q-8 -41 -33 -74t-65 -52.5
t-95 -19.5z" />
    <glyph glyph-name="ecaron" unicode="&#x11b;" horiz-adv-x="569" 
d="M249 -10q-62 0 -109.5 24t-74 69.5t-26.5 111.5q0 68 17.5 127t52 103.5t86 70t120.5 25.5h12q56 0 101.5 -21t72 -61t26.5 -97q0 -12 -1.5 -28.5t-4.5 -36.5t-7 -44h-354q-1 -9 -2 -20t-1 -18q0 -51 26 -84.5t83 -33.5q44 0 71 18t40.5 44.5t17.5 50.5h112
q-9 -65 -43.5 -110t-87.5 -67.5t-117 -22.5h-10zM170 309h236q2 11 2.5 18t0.5 14q0 44 -25.5 68.5t-72.5 24.5q-52 0 -89.5 -31.5t-51.5 -93.5zM520 758l-149 -170h-99l-101 170h90l92 -157h-63l136 157h94z" />
    <glyph glyph-name="ecircumflex" unicode="&#xea;" horiz-adv-x="569" 
d="M249 -10q-62 0 -109.5 24t-74 69.5t-26.5 111.5q0 68 17.5 127t52 103.5t86 70t120.5 25.5h12q56 0 101.5 -21t72 -61t26.5 -97q0 -12 -1.5 -28.5t-4.5 -36.5t-7 -44h-354q-1 -9 -2 -20t-1 -18q0 -51 26 -84.5t83 -33.5q44 0 71 18t40.5 44.5t17.5 50.5h112
q-9 -65 -43.5 -110t-87.5 -67.5t-117 -22.5h-10zM170 309h236q2 11 2.5 18t0.5 14q0 44 -25.5 68.5t-72.5 24.5q-52 0 -89.5 -31.5t-51.5 -93.5zM149 588l149 170h99l101 -170h-90l-97 157h73l-141 -157h-94z" />
    <glyph glyph-name="uni1EBF" unicode="&#x1ebf;" horiz-adv-x="569" 
d="M249 -10q-62 0 -109.5 24t-74 69.5t-26.5 111.5q0 68 17.5 127t52 103.5t86 70t120.5 25.5h12q56 0 101.5 -21t72 -61t26.5 -97q0 -12 -1.5 -28.5t-4.5 -36.5t-7 -44h-354q-1 -9 -2 -20t-1 -18q0 -51 26 -84.5t83 -33.5q44 0 71 18t40.5 44.5t17.5 50.5h112
q-9 -65 -43.5 -110t-87.5 -67.5t-117 -22.5h-10zM170 309h236q2 11 2.5 18t0.5 14q0 44 -25.5 68.5t-72.5 24.5q-52 0 -89.5 -31.5t-51.5 -93.5zM311 778l113 145h104l1 -3l-138 -142h-80zM143 593l156 145h89l117 -145h-88l-78 88l-102 -88h-94z" />
    <glyph glyph-name="uni1EC7" unicode="&#x1ec7;" horiz-adv-x="569" 
d="M249 -10q-62 0 -109.5 24t-74 69.5t-26.5 111.5q0 68 17.5 127t52 103.5t86 70t120.5 25.5h12q56 0 101.5 -21t72 -61t26.5 -97q0 -12 -1.5 -28.5t-4.5 -36.5t-7 -44h-354q-1 -9 -2 -20t-1 -18q0 -51 26 -84.5t83 -33.5q44 0 71 18t40.5 44.5t17.5 50.5h112
q-9 -65 -43.5 -110t-87.5 -67.5t-117 -22.5h-10zM170 309h236q2 11 2.5 18t0.5 14q0 44 -25.5 68.5t-72.5 24.5q-52 0 -89.5 -31.5t-51.5 -93.5zM172 -187l15 109h105l-16 -109h-104zM149 588l149 170h99l101 -170h-90l-97 157h73l-141 -157h-94z" />
    <glyph glyph-name="uni1EC1" unicode="&#x1ec1;" horiz-adv-x="569" 
d="M249 -10q-62 0 -109.5 24t-74 69.5t-26.5 111.5q0 68 17.5 127t52 103.5t86 70t120.5 25.5h12q56 0 101.5 -21t72 -61t26.5 -97q0 -12 -1.5 -28.5t-4.5 -36.5t-7 -44h-354q-1 -9 -2 -20t-1 -18q0 -51 26 -84.5t83 -33.5q44 0 71 18t40.5 44.5t17.5 50.5h112
q-9 -65 -43.5 -110t-87.5 -67.5t-117 -22.5h-10zM170 309h236q2 11 2.5 18t0.5 14q0 44 -25.5 68.5t-72.5 24.5q-52 0 -89.5 -31.5t-51.5 -93.5zM309 778l-98 142l1 3h104l73 -145h-80zM145 593l156 145h89l117 -145h-88l-78 88l-102 -88h-94z" />
    <glyph glyph-name="uni1EC3" unicode="&#x1ec3;" horiz-adv-x="569" 
d="M249 -10q-62 0 -109.5 24t-74 69.5t-26.5 111.5q0 68 17.5 127t52 103.5t86 70t120.5 25.5h12q56 0 101.5 -21t72 -61t26.5 -97q0 -12 -1.5 -28.5t-4.5 -36.5t-7 -44h-354q-1 -9 -2 -20t-1 -18q0 -51 26 -84.5t83 -33.5q44 0 71 18t40.5 44.5t17.5 50.5h112
q-9 -65 -43.5 -110t-87.5 -67.5t-117 -22.5h-10zM170 309h236q2 11 2.5 18t0.5 14q0 44 -25.5 68.5t-72.5 24.5q-52 0 -89.5 -31.5t-51.5 -93.5zM333 779l7 49q28 3 44.5 16.5t16.5 35.5q0 15 -10.5 22.5t-28.5 7.5q-11 0 -25 -2.5t-30 -7.5l8 61q16 5 31 6.5t29 1.5
q38 0 62.5 -18.5t24.5 -53.5q0 -33 -19.5 -59t-49 -41.5t-60.5 -17.5zM144 593l156 145h89l117 -145h-88l-78 88l-102 -88h-94z" />
    <glyph glyph-name="uni1EC5" unicode="&#x1ec5;" horiz-adv-x="569" 
d="M249 -10q-62 0 -109.5 24t-74 69.5t-26.5 111.5q0 68 17.5 127t52 103.5t86 70t120.5 25.5h12q56 0 101.5 -21t72 -61t26.5 -97q0 -12 -1.5 -28.5t-4.5 -36.5t-7 -44h-354q-1 -9 -2 -20t-1 -18q0 -51 26 -84.5t83 -33.5q44 0 71 18t40.5 44.5t17.5 50.5h112
q-9 -65 -43.5 -110t-87.5 -67.5t-117 -22.5h-10zM170 309h236q2 11 2.5 18t0.5 14q0 44 -25.5 68.5t-72.5 24.5q-52 0 -89.5 -31.5t-51.5 -93.5zM162 775q4 28 20.5 55t45 44.5t66.5 17.5q32 0 54 -8.5t42 -17.5t47 -9q22 0 37 9t22 26h56q-4 -27 -20.5 -54t-44.5 -45
t-67 -18q-31 0 -52 8.5t-41 17.5t-50 10q-22 0 -36 -9.5t-22 -26.5h-57zM143 593l156 145h89l117 -145h-88l-78 88l-102 -88h-94z" />
    <glyph glyph-name="uni0205" unicode="&#x205;" horiz-adv-x="569" 
d="M249 -10q-62 0 -109.5 24t-74 69.5t-26.5 111.5q0 68 17.5 127t52 103.5t86 70t120.5 25.5h12q56 0 101.5 -21t72 -61t26.5 -97q0 -12 -1.5 -28.5t-4.5 -36.5t-7 -44h-354q-1 -9 -2 -20t-1 -18q0 -51 26 -84.5t83 -33.5q44 0 71 18t40.5 44.5t17.5 50.5h112
q-9 -65 -43.5 -110t-87.5 -67.5t-117 -22.5h-10zM170 309h236q2 11 2.5 18t0.5 14q0 44 -25.5 68.5t-72.5 24.5q-52 0 -89.5 -31.5t-51.5 -93.5zM377 593l-97 142l1 3h103l74 -145h-81zM207 593l-98 142l2 3h103l73 -145h-80z" />
    <glyph glyph-name="edieresis" unicode="&#xeb;" horiz-adv-x="569" 
d="M249 -10q-62 0 -109.5 24t-74 69.5t-26.5 111.5q0 68 17.5 127t52 103.5t86 70t120.5 25.5h12q56 0 101.5 -21t72 -61t26.5 -97q0 -12 -1.5 -28.5t-4.5 -36.5t-7 -44h-354q-1 -9 -2 -20t-1 -18q0 -51 26 -84.5t83 -33.5q44 0 71 18t40.5 44.5t17.5 50.5h112
q-9 -65 -43.5 -110t-87.5 -67.5t-117 -22.5h-10zM170 309h236q2 11 2.5 18t0.5 14q0 44 -25.5 68.5t-72.5 24.5q-52 0 -89.5 -31.5t-51.5 -93.5zM141 608l16 115h128l-16 -115h-128zM383 608l16 115h128l-16 -115h-128z" />
    <glyph glyph-name="edotaccent" unicode="&#x117;" horiz-adv-x="569" 
d="M249 -10q-62 0 -109.5 24t-74 69.5t-26.5 111.5q0 68 17.5 127t52 103.5t86 70t120.5 25.5h12q56 0 101.5 -21t72 -61t26.5 -97q0 -12 -1.5 -28.5t-4.5 -36.5t-7 -44h-354q-1 -9 -2 -20t-1 -18q0 -51 26 -84.5t83 -33.5q44 0 71 18t40.5 44.5t17.5 50.5h112
q-9 -65 -43.5 -110t-87.5 -67.5t-117 -22.5h-10zM170 309h236q2 11 2.5 18t0.5 14q0 44 -25.5 68.5t-72.5 24.5q-52 0 -89.5 -31.5t-51.5 -93.5zM261 614l14 105h130l-14 -105h-130z" />
    <glyph glyph-name="uni1EB9" unicode="&#x1eb9;" horiz-adv-x="569" 
d="M249 -10q-62 0 -109.5 24t-74 69.5t-26.5 111.5q0 68 17.5 127t52 103.5t86 70t120.5 25.5h12q56 0 101.5 -21t72 -61t26.5 -97q0 -12 -1.5 -28.5t-4.5 -36.5t-7 -44h-354q-1 -9 -2 -20t-1 -18q0 -51 26 -84.5t83 -33.5q44 0 71 18t40.5 44.5t17.5 50.5h112
q-9 -65 -43.5 -110t-87.5 -67.5t-117 -22.5h-10zM170 309h236q2 11 2.5 18t0.5 14q0 44 -25.5 68.5t-72.5 24.5q-52 0 -89.5 -31.5t-51.5 -93.5zM172 -187l15 109h105l-16 -109h-104z" />
    <glyph glyph-name="egrave" unicode="&#xe8;" horiz-adv-x="569" 
d="M249 -10q-62 0 -109.5 24t-74 69.5t-26.5 111.5q0 68 17.5 127t52 103.5t86 70t120.5 25.5h12q56 0 101.5 -21t72 -61t26.5 -97q0 -12 -1.5 -28.5t-4.5 -36.5t-7 -44h-354q-1 -9 -2 -20t-1 -18q0 -51 26 -84.5t83 -33.5q44 0 71 18t40.5 44.5t17.5 50.5h112
q-9 -65 -43.5 -110t-87.5 -67.5t-117 -22.5h-10zM170 309h236q2 11 2.5 18t0.5 14q0 44 -25.5 68.5t-72.5 24.5q-52 0 -89.5 -31.5t-51.5 -93.5zM268 588l-80 168l1 3h98l55 -171h-74z" />
    <glyph glyph-name="uni1EBB" unicode="&#x1ebb;" horiz-adv-x="569" 
d="M249 -10q-62 0 -109.5 24t-74 69.5t-26.5 111.5q0 68 17.5 127t52 103.5t86 70t120.5 25.5h12q56 0 101.5 -21t72 -61t26.5 -97q0 -12 -1.5 -28.5t-4.5 -36.5t-7 -44h-354q-1 -9 -2 -20t-1 -18q0 -51 26 -84.5t83 -33.5q44 0 71 18t40.5 44.5t17.5 50.5h112
q-9 -65 -43.5 -110t-87.5 -67.5t-117 -22.5h-10zM170 309h236q2 11 2.5 18t0.5 14q0 44 -25.5 68.5t-72.5 24.5q-52 0 -89.5 -31.5t-51.5 -93.5zM306 572l8 59q35 3 55 19t20 43q0 17 -12.5 26t-34.5 9q-13 0 -30 -3t-37 -9l10 73q20 6 38.5 8.5t34.5 2.5q47 0 75.5 -22
t28.5 -64q0 -39 -23 -70.5t-58.5 -50.5t-74.5 -21z" />
    <glyph glyph-name="uni0207" unicode="&#x207;" horiz-adv-x="569" 
d="M249 -10q-62 0 -109.5 24t-74 69.5t-26.5 111.5q0 68 17.5 127t52 103.5t86 70t120.5 25.5h12q56 0 101.5 -21t72 -61t26.5 -97q0 -12 -1.5 -28.5t-4.5 -36.5t-7 -44h-354q-1 -9 -2 -20t-1 -18q0 -51 26 -84.5t83 -33.5q44 0 71 18t40.5 44.5t17.5 50.5h112
q-9 -65 -43.5 -110t-87.5 -67.5t-117 -22.5h-10zM170 309h236q2 11 2.5 18t0.5 14q0 44 -25.5 68.5t-72.5 24.5q-52 0 -89.5 -31.5t-51.5 -93.5zM143 603q5 35 30.5 63.5t68 45.5t99.5 17q59 0 97.5 -17t56.5 -45.5t13 -63.5h-74q-4 32 -28 46.5t-71 14.5q-46 0 -75.5 -14.5
t-43.5 -46.5h-73z" />
    <glyph glyph-name="emacron" unicode="&#x113;" horiz-adv-x="569" 
d="M249 -10q-62 0 -109.5 24t-74 69.5t-26.5 111.5q0 68 17.5 127t52 103.5t86 70t120.5 25.5h12q56 0 101.5 -21t72 -61t26.5 -97q0 -12 -1.5 -28.5t-4.5 -36.5t-7 -44h-354q-1 -9 -2 -20t-1 -18q0 -51 26 -84.5t83 -33.5q44 0 71 18t40.5 44.5t17.5 50.5h112
q-9 -65 -43.5 -110t-87.5 -67.5t-117 -22.5h-10zM170 309h236q2 11 2.5 18t0.5 14q0 44 -25.5 68.5t-72.5 24.5q-52 0 -89.5 -31.5t-51.5 -93.5zM168 619l10 66h319l-10 -66h-319z" />
    <glyph glyph-name="eogonek" unicode="&#x119;" horiz-adv-x="569" 
d="M249 -10q-62 0 -109.5 24t-74 69.5t-26.5 111.5q0 68 17.5 127t52 103.5t86 70t120.5 25.5h12q56 0 101.5 -21t72 -61t26.5 -97q0 -12 -1.5 -28.5t-4.5 -36.5t-7 -44h-354q-1 -9 -2 -20t-1 -18q0 -51 26 -84.5t83 -33.5q44 0 71 18t40.5 44.5t17.5 50.5h112
q-9 -65 -43.5 -110t-87.5 -67.5t-117 -22.5h-10zM170 309h236q2 11 2.5 18t0.5 14q0 44 -25.5 68.5t-72.5 24.5q-52 0 -89.5 -31.5t-51.5 -93.5zM302 -143q-32 0 -60 13.5t-28 47.5q0 28 18.5 49.5t40.5 32.5h65q-25 -13 -40 -29t-15 -36q0 -17 12.5 -24t26.5 -7
q17 0 35 4.5t34 9.5l7 -37q-23 -12 -47 -18t-49 -6z" />
    <glyph glyph-name="uni1EBD" unicode="&#x1ebd;" horiz-adv-x="569" 
d="M249 -10q-62 0 -109.5 24t-74 69.5t-26.5 111.5q0 68 17.5 127t52 103.5t86 70t120.5 25.5h12q56 0 101.5 -21t72 -61t26.5 -97q0 -12 -1.5 -28.5t-4.5 -36.5t-7 -44h-354q-1 -9 -2 -20t-1 -18q0 -51 26 -84.5t83 -33.5q44 0 71 18t40.5 44.5t17.5 50.5h112
q-9 -65 -43.5 -110t-87.5 -67.5t-117 -22.5h-10zM170 309h236q2 11 2.5 18t0.5 14q0 44 -25.5 68.5t-72.5 24.5q-52 0 -89.5 -31.5t-51.5 -93.5zM135 600q6 33 22 64.5t42 51.5t63 20q38 0 63 -13.5t44.5 -27.5t41.5 -14q24 0 39 14.5t24 41.5h56q-5 -32 -21 -63.5t-42 -52
t-63 -20.5q-38 0 -64 14t-46 28t-43 14q-21 0 -34.5 -14t-24.5 -43h-57z" />
    <glyph glyph-name="uni0259" unicode="&#x259;" horiz-adv-x="569" 
d="M320 521q62 0 109.5 -23.5t74 -69.5t26.5 -112q0 -67 -17.5 -126.5t-52 -104t-86 -70t-120.5 -25.5h-12q-56 0 -101.5 21t-72 61.5t-26.5 96.5q0 12 1.5 28.5t4.5 36.5t7 44h354q2 9 2.5 20t0.5 18q0 51 -26 84.5t-83 33.5q-44 0 -71 -18t-40.5 -44t-17.5 -51h-112
q9 66 43.5 110.5t87.5 67t117 22.5h10zM399 202h-236q-2 -11 -2.5 -18t-0.5 -14q0 -44 25.5 -68.5t72.5 -24.5q52 0 89.5 32t51.5 93z" />
    <glyph glyph-name="f" unicode="f" horiz-adv-x="351" 
d="M-2 -184q-15 0 -32 2.5t-32.5 6.5t-26.5 10l10 79q11 -5 30 -9t30 -4q23 0 41.5 12.5t24.5 52.5l66 458h-59l11 87h60l11 78q7 50 28 80.5t54.5 44.5t75.5 14q15 0 32.5 -2.5t34.5 -6.5t28 -11l-11 -78q-11 5 -29.5 9t-30.5 4q-28 0 -44 -13.5t-22 -54.5l-10 -64h120
l-12 -87h-119l-65 -456q-11 -81 -55 -116.5t-109 -35.5z" />
    <glyph glyph-name="g" unicode="g" horiz-adv-x="578" 
d="M229 -186q-49 0 -87 12t-64.5 34t-40 53t-13.5 68h118q0 -23 11 -41.5t33 -29t53 -10.5q39 0 65.5 17t41.5 44.5t19 58.5l9 72q-26 -31 -67 -51.5t-92 -20.5q-50 0 -88 22.5t-59 65.5t-21 102q0 58 15 113.5t45.5 100t78 71t111.5 26.5q56 0 96 -22.5t62 -67.5l53 80h44
l-67 -476q-9 -65 -39.5 -115t-84 -78t-132.5 -28zM262 106q48 0 82.5 31.5t44.5 80.5q7 27 12 57t5 53q0 50 -25.5 78t-74.5 28q-30 0 -57 -12.5t-46.5 -40t-27.5 -73.5q-7 -41 -8.5 -60.5t-1.5 -33.5q0 -51 24 -79.5t73 -28.5z" />
    <glyph glyph-name="gbreve" unicode="&#x11f;" horiz-adv-x="578" 
d="M229 -186q-49 0 -87 12t-64.5 34t-40 53t-13.5 68h118q0 -23 11 -41.5t33 -29t53 -10.5q39 0 65.5 17t41.5 44.5t19 58.5l9 72q-26 -31 -67 -51.5t-92 -20.5q-50 0 -88 22.5t-59 65.5t-21 102q0 58 15 113.5t45.5 100t78 71t111.5 26.5q56 0 96 -22.5t62 -67.5l53 80h44
l-67 -476q-9 -65 -39.5 -115t-84 -78t-132.5 -28zM262 106q48 0 82.5 31.5t44.5 80.5q7 27 12 57t5 53q0 50 -25.5 78t-74.5 28q-30 0 -57 -12.5t-46.5 -40t-27.5 -73.5q-7 -41 -8.5 -60.5t-1.5 -33.5q0 -51 24 -79.5t73 -28.5zM337 588q-54 0 -89 19.5t-50.5 52.5t-12.5 74
h74q2 -43 23.5 -62t61.5 -19q44 0 70.5 19t42.5 62h73q-8 -41 -33 -74t-65 -52.5t-95 -19.5z" />
    <glyph glyph-name="gcaron" unicode="&#x1e7;" horiz-adv-x="578" 
d="M229 -186q-49 0 -87 12t-64.5 34t-40 53t-13.5 68h118q0 -23 11 -41.5t33 -29t53 -10.5q39 0 65.5 17t41.5 44.5t19 58.5l9 72q-26 -31 -67 -51.5t-92 -20.5q-50 0 -88 22.5t-59 65.5t-21 102q0 58 15 113.5t45.5 100t78 71t111.5 26.5q56 0 96 -22.5t62 -67.5l53 80h44
l-67 -476q-9 -65 -39.5 -115t-84 -78t-132.5 -28zM262 106q48 0 82.5 31.5t44.5 80.5q7 27 12 57t5 53q0 50 -25.5 78t-74.5 28q-30 0 -57 -12.5t-46.5 -40t-27.5 -73.5q-7 -41 -8.5 -60.5t-1.5 -33.5q0 -51 24 -79.5t73 -28.5zM534 758l-149 -170h-99l-101 170h90l92 -157
h-63l136 157h94z" />
    <glyph glyph-name="gcircumflex" unicode="&#x11d;" horiz-adv-x="578" 
d="M229 -186q-49 0 -87 12t-64.5 34t-40 53t-13.5 68h118q0 -23 11 -41.5t33 -29t53 -10.5q39 0 65.5 17t41.5 44.5t19 58.5l9 72q-26 -31 -67 -51.5t-92 -20.5q-50 0 -88 22.5t-59 65.5t-21 102q0 58 15 113.5t45.5 100t78 71t111.5 26.5q56 0 96 -22.5t62 -67.5l53 80h44
l-67 -476q-9 -65 -39.5 -115t-84 -78t-132.5 -28zM262 106q48 0 82.5 31.5t44.5 80.5q7 27 12 57t5 53q0 50 -25.5 78t-74.5 28q-30 0 -57 -12.5t-46.5 -40t-27.5 -73.5q-7 -41 -8.5 -60.5t-1.5 -33.5q0 -51 24 -79.5t73 -28.5zM163 588l149 170h99l101 -170h-90l-97 157h73
l-141 -157h-94z" />
    <glyph glyph-name="uni0123" unicode="&#x123;" horiz-adv-x="578" 
d="M229 -186q-49 0 -87 12t-64.5 34t-40 53t-13.5 68h118q0 -23 11 -41.5t33 -29t53 -10.5q39 0 65.5 17t41.5 44.5t19 58.5l9 72q-26 -31 -67 -51.5t-92 -20.5q-50 0 -88 22.5t-59 65.5t-21 102q0 58 15 113.5t45.5 100t78 71t111.5 26.5q56 0 96 -22.5t62 -67.5l53 80h44
l-67 -476q-9 -65 -39.5 -115t-84 -78t-132.5 -28zM262 106q48 0 82.5 31.5t44.5 80.5q7 27 12 57t5 53q0 50 -25.5 78t-74.5 28q-30 0 -57 -12.5t-46.5 -40t-27.5 -73.5q-7 -41 -8.5 -60.5t-1.5 -33.5q0 -51 24 -79.5t73 -28.5zM431 860l-2 -12q-30 -29 -47.5 -62t-22.5 -66
h48l-18 -127h-109l16 109q6 43 26 85t52 73h57z" />
    <glyph glyph-name="gdotaccent" unicode="&#x121;" horiz-adv-x="578" 
d="M229 -186q-49 0 -87 12t-64.5 34t-40 53t-13.5 68h118q0 -23 11 -41.5t33 -29t53 -10.5q39 0 65.5 17t41.5 44.5t19 58.5l9 72q-26 -31 -67 -51.5t-92 -20.5q-50 0 -88 22.5t-59 65.5t-21 102q0 58 15 113.5t45.5 100t78 71t111.5 26.5q56 0 96 -22.5t62 -67.5l53 80h44
l-67 -476q-9 -65 -39.5 -115t-84 -78t-132.5 -28zM262 106q48 0 82.5 31.5t44.5 80.5q7 27 12 57t5 53q0 50 -25.5 78t-74.5 28q-30 0 -57 -12.5t-46.5 -40t-27.5 -73.5q-7 -41 -8.5 -60.5t-1.5 -33.5q0 -51 24 -79.5t73 -28.5zM275 614l14 105h130l-14 -105h-130z" />
    <glyph glyph-name="uni01E5" unicode="&#x1e5;" horiz-adv-x="578" 
d="M276 241l9 68h317l-9 -68h-317zM229 -186q-49 0 -87 12t-64.5 34t-40 53t-13.5 68h118q0 -23 11 -41.5t33 -29t53 -10.5q39 0 65.5 17t41.5 44.5t19 58.5l9 72q-26 -31 -67 -51.5t-92 -20.5q-50 0 -88 22.5t-59 65.5t-21 102q0 58 15 113.5t45.5 100t78 71t111.5 26.5
q56 0 96 -22.5t62 -67.5l53 80h44l-67 -476q-9 -65 -39.5 -115t-84 -78t-132.5 -28zM262 106q48 0 82.5 31.5t44.5 80.5q7 27 12 57t5 53q0 50 -25.5 78t-74.5 28q-30 0 -57 -12.5t-46.5 -40t-27.5 -73.5q-7 -41 -8.5 -60.5t-1.5 -33.5q0 -51 24 -79.5t73 -28.5z" />
    <glyph glyph-name="h" unicode="h" horiz-adv-x="595" 
d="M30 0l101 720h118l-38 -267q23 22 48.5 37t53.5 23t58 8q68 0 113 -33.5t45 -104.5q0 -10 -4.5 -48t-15.5 -118t-31 -217h-118q11 77 19.5 138.5t15 106.5t9.5 72.5t3 36.5q0 39 -22 58.5t-60 19.5q-30 0 -59 -16.5t-49.5 -44t-25.5 -62.5l-43 -309h-118z" />
    <glyph glyph-name="hbar" unicode="&#x127;" horiz-adv-x="595" 
d="M30 0l101 720h118l-38 -267q23 22 48.5 37t53.5 23t58 8q68 0 113 -33.5t45 -104.5q0 -10 -4.5 -48t-15.5 -118t-31 -217h-118q11 77 19.5 138.5t15 106.5t9.5 72.5t3 36.5q0 39 -22 58.5t-60 19.5q-30 0 -59 -16.5t-49.5 -44t-25.5 -62.5l-43 -309h-118zM48 562l13 90
h325l-13 -90h-325z" />
    <glyph glyph-name="hcircumflex" unicode="&#x125;" horiz-adv-x="595" 
d="M30 0l101 720h118l-38 -267q23 22 48.5 37t53.5 23t58 8q68 0 113 -33.5t45 -104.5q0 -10 -4.5 -48t-15.5 -118t-31 -217h-118q11 77 19.5 138.5t15 106.5t9.5 72.5t3 36.5q0 39 -22 58.5t-60 19.5q-30 0 -59 -16.5t-49.5 -44t-25.5 -62.5l-43 -309h-118zM20 760l131 125
h113l101 -125h-97l-78 99h35l-109 -99h-96z" />
    <glyph glyph-name="uni1E25" unicode="&#x1e25;" horiz-adv-x="595" 
d="M30 0l101 720h118l-38 -267q23 22 48.5 37t53.5 23t58 8q68 0 113 -33.5t45 -104.5q0 -10 -4.5 -48t-15.5 -118t-31 -217h-118q11 77 19.5 138.5t15 106.5t9.5 72.5t3 36.5q0 39 -22 58.5t-60 19.5q-30 0 -59 -16.5t-49.5 -44t-25.5 -62.5l-43 -309h-118zM171 -187
l15 109h105l-16 -109h-104z" />
    <glyph glyph-name="i" unicode="i" horiz-adv-x="268" 
d="M30 0l72 511h118l-72 -511h-118zM115 620l14 100h121l-14 -100h-121z" />
    <glyph glyph-name="dotlessi" unicode="&#x131;" horiz-adv-x="269" 
d="M37 0l71 511h118l-71 -511h-118z" />
    <glyph glyph-name="iacute" unicode="&#xed;" horiz-adv-x="269" 
d="M37 0l71 511h118l-71 -511h-118zM136 588l103 171h103l1 -3l-128 -168h-79z" />
    <glyph glyph-name="ibreve" unicode="&#x12d;" horiz-adv-x="269" 
d="M37 0l71 511h118l-71 -511h-118zM180 588q-44 0 -74 18t-42.5 51t-6.5 77h74q-2 -43 12.5 -62t42.5 -19q31 0 52 19t31 62h73q-6 -44 -27 -77t-55 -51t-80 -18z" />
    <glyph glyph-name="uni01D0" unicode="&#x1d0;" horiz-adv-x="269" 
d="M37 0l71 511h118l-71 -511h-118zM348 758l-122 -170h-89l-78 170h84l73 -157h-68l117 157h83z" />
    <glyph glyph-name="icircumflex" unicode="&#xee;" horiz-adv-x="269" 
d="M37 0l71 511h118l-71 -511h-118zM35 588l120 170h89l80 -170h-84l-73 157h68l-117 -157h-83z" />
    <glyph glyph-name="uni0209" unicode="&#x209;" horiz-adv-x="269" 
d="M37 0l71 511h118l-71 -511h-118zM233 593l-97 142l1 3h103l74 -145h-81zM63 593l-98 142l2 3h103l73 -145h-80z" />
    <glyph glyph-name="idieresis" unicode="&#xef;" horiz-adv-x="269" 
d="M37 0l71 511h118l-71 -511h-118zM41 610l14 103h104l-14 -103h-104zM221 610l14 103h103l-14 -103h-103z" />
    <glyph glyph-name="i.loclTRK" horiz-adv-x="269" 
d="M37 0l71 511h118l-71 -511h-118zM117 614l14 105h130l-14 -105h-130z" />
    <glyph glyph-name="uni1ECB" unicode="&#x1ecb;" horiz-adv-x="268" 
d="M30 0l72 511h118l-72 -511h-118zM115 620l14 100h121l-14 -100h-121zM9 -187l15 109h105l-16 -109h-104z" />
    <glyph glyph-name="igrave" unicode="&#xec;" horiz-adv-x="269" 
d="M37 0l71 511h118l-71 -511h-118zM124 588l-80 168l1 3h98l55 -171h-74z" />
    <glyph glyph-name="uni1EC9" unicode="&#x1ec9;" horiz-adv-x="269" 
d="M37 0l71 511h118l-71 -511h-118zM162 572l8 59q35 3 55 19t20 43q0 17 -12.5 26t-34.5 9q-13 0 -30 -3t-37 -9l10 73q20 6 38.5 8.5t34.5 2.5q47 0 75.5 -22t28.5 -64q0 -39 -23 -70.5t-58.5 -50.5t-74.5 -21z" />
    <glyph glyph-name="uni020B" unicode="&#x20b;" horiz-adv-x="269" 
d="M37 0l71 511h118l-71 -511h-118zM34 588q6 45 27 77.5t55.5 50.5t79.5 18t74.5 -18t42 -50.5t6.5 -77.5h-74q2 43 -12.5 62t-42.5 19q-31 0 -51.5 -19t-31.5 -62h-73z" />
    <glyph glyph-name="ij" unicode="&#x133;" horiz-adv-x="537" 
d="M30 0l72 511h118l-72 -511h-118zM115 620l14 100h121l-14 -100h-121zM259 -186q-15 0 -32.5 2.5t-33.5 6.5t-27 10l10 81q11 -5 29.5 -9.5t29.5 -4.5q20 0 39 12t25 56l77 543h118l-74 -528q-13 -88 -51.5 -128.5t-109.5 -40.5zM390 620l13 100h122l-14 -100h-121z" />
    <glyph glyph-name="imacron" unicode="&#x12b;" horiz-adv-x="269" 
d="M37 0l71 511h118l-71 -511h-118zM56 619l10 66h255l-10 -66h-255z" />
    <glyph glyph-name="iogonek" unicode="&#x12f;" horiz-adv-x="268" 
d="M30 0l72 511h118l-72 -511h-118zM115 620l14 100h121l-14 -100h-121zM59 -143q-32 0 -60 13.5t-28 47.5q0 28 18.5 49.5t40.5 32.5h65q-25 -13 -40 -29t-15 -36q0 -17 12.5 -24t26.5 -7q17 0 35 4.5t34 9.5l7 -37q-23 -12 -47 -18t-49 -6z" />
    <glyph glyph-name="uni0268" unicode="&#x268;" horiz-adv-x="268" 
d="M7 326h253l-14 -94h-253zM30 0l72 511h118l-72 -511h-118zM115 620l14 100h121l-14 -100h-121z" />
    <glyph glyph-name="itilde" unicode="&#x129;" horiz-adv-x="269" 
d="M37 0l71 511h118l-71 -511h-118zM23 600q4 35 17.5 66t37 50t57.5 19q32 0 51 -13t33.5 -26.5t32.5 -13.5q17 0 29.5 14.5t20.5 41.5h56q-6 -33 -18.5 -64.5t-35 -51.5t-58.5 -20q-30 0 -50 13.5t-35.5 27t-33.5 13.5q-16 0 -27.5 -15.5t-19.5 -40.5h-57z" />
    <glyph glyph-name="j" unicode="j" horiz-adv-x="269" 
d="M-9 -186q-15 0 -32.5 2.5t-33.5 6.5t-27 10l10 81q11 -5 29.5 -9.5t29.5 -4.5q20 0 39 12t25 56l77 543h118l-74 -528q-13 -88 -51.5 -128.5t-109.5 -40.5zM122 620l13 100h122l-14 -100h-121z" />
    <glyph glyph-name="uni0237" unicode="&#x237;" horiz-adv-x="269" 
d="M-9 -186q-15 0 -32.5 2.5t-33.5 6.5t-27 10l10 81q11 -5 29.5 -9.5t29.5 -4.5q20 0 39 12t25 56l77 543h118l-74 -528q-13 -88 -51.5 -128.5t-109.5 -40.5z" />
    <glyph glyph-name="jcircumflex" unicode="&#x135;" horiz-adv-x="269" 
d="M-9 -186q-15 0 -32.5 2.5t-33.5 6.5t-27 10l10 81q11 -5 29.5 -9.5t29.5 -4.5q20 0 39 12t25 56l77 543h118l-74 -528q-13 -88 -51.5 -128.5t-109.5 -40.5zM33 588l120 170h89l80 -170h-84l-73 157h68l-117 -157h-83z" />
    <glyph glyph-name="k" unicode="k" horiz-adv-x="547" 
d="M30 0l101 720h118l-67 -472l243 263h132l-228 -244l166 -267h-141l-114 182l-77 -71l-15 -111h-118z" />
    <glyph glyph-name="uni0137" unicode="&#x137;" horiz-adv-x="547" 
d="M30 0l101 720h118l-67 -472l243 263h132l-228 -244l166 -267h-141l-114 182l-77 -71l-15 -111h-118zM148 -337l2 12q30 29 48 62t22 66h-48l18 127h109l-16 -109q-6 -43 -26 -85t-52 -73h-57z" />
    <glyph glyph-name="kgreenlandic" unicode="&#x138;" horiz-adv-x="547" 
d="M30 0l72 511h118l-38 -263l243 263h132l-228 -244l166 -267h-141l-114 182l-77 -71l-15 -111h-118z" />
    <glyph glyph-name="l" unicode="l" horiz-adv-x="273" 
d="M32 0l101 720h118l-101 -720h-118z" />
    <glyph glyph-name="lacute" unicode="&#x13a;" horiz-adv-x="273" 
d="M32 0l101 720h118l-101 -720h-118z" />
    <glyph glyph-name="lcaron" unicode="&#x13e;" horiz-adv-x="336" 
d="M272 437l1 12q28 28 45 57.5t22 60.5h-47l17 118h105l-14 -100q-6 -42 -25.5 -80t-48.5 -68h-55zM32 0l101 720h118l-101 -720h-118z" />
    <glyph glyph-name="uni013C" unicode="&#x13c;" horiz-adv-x="273" 
d="M32 0l101 720h118l-101 -720h-118zM-17 -337l2 12q30 29 48 62t22 66h-48l18 127h109l-16 -109q-6 -43 -26 -85t-52 -73h-57z" />
    <glyph glyph-name="ldot" unicode="&#x140;" horiz-adv-x="346" 
d="M247 312l18 127h122l-19 -127h-121zM32 0l101 720h118l-101 -720h-118z" />
    <glyph glyph-name="uni01C9" unicode="&#x1c9;" horiz-adv-x="542" 
d="M32 0l101 720h118l-101 -720h-118zM264 -186q-15 0 -32.5 2.5t-33.5 6.5t-27 10l10 81q11 -5 29.5 -9.5t29.5 -4.5q20 0 39 12t25 56l77 543h118l-74 -528q-13 -88 -51.5 -128.5t-109.5 -40.5zM395 620l13 100h122l-14 -100h-121z" />
    <glyph glyph-name="lslash" unicode="&#x142;" horiz-adv-x="273" 
d="M32 0l101 720h118l-101 -720h-118zM-9 253l11 78l290 137l-11 -79z" />
    <glyph glyph-name="m" unicode="m" horiz-adv-x="868" 
d="M36 0l72 511h88l3 -75q25 30 51.5 49t55 27.5t57.5 8.5q50 0 85.5 -20.5t50.5 -63.5q39 48 81 66t85 18q62 0 103 -33.5t41 -102.5q0 -13 -5 -54.5t-16 -121t-30 -209.5h-118q11 78 19.5 140.5t15 108.5t9.5 73t3 33q0 42 -18 59.5t-50 17.5q-27 0 -53 -16t-44 -43.5
t-23 -62.5l-43 -310h-118q15 104 24 171.5t14 106t7.5 56t2.5 21.5q0 40 -18.5 58.5t-50.5 18.5q-28 0 -53.5 -16t-43.5 -43.5t-23 -62.5l-43 -310h-118z" />
    <glyph glyph-name="n" unicode="n" horiz-adv-x="595" 
d="M36 0l72 511h88l2 -75q24 27 52 46t60.5 29t67.5 10q68 0 113 -33.5t45 -104.5q0 -6 -1 -18t-4 -35t-9 -64.5t-15 -106t-23 -159.5h-118q13 89 21.5 149t13.5 97.5t8 58t4 30t1 14.5q0 41 -22.5 62t-59.5 21q-31 0 -60 -16.5t-49.5 -44t-25.5 -62.5l-43 -309h-118z" />
    <glyph glyph-name="nacute" unicode="&#x144;" horiz-adv-x="595" 
d="M36 0l72 511h88l2 -75q24 27 52 46t60.5 29t67.5 10q68 0 113 -33.5t45 -104.5q0 -6 -1 -18t-4 -35t-9 -64.5t-15 -106t-23 -159.5h-118q13 89 21.5 149t13.5 97.5t8 58t4 30t1 14.5q0 41 -22.5 62t-59.5 21q-31 0 -60 -16.5t-49.5 -44t-25.5 -62.5l-43 -309h-118z
M286 588l103 171h103l1 -3l-128 -168h-79z" />
    <glyph glyph-name="napostrophe" unicode="&#x149;" horiz-adv-x="595" 
d="M36 0l72 511h88l2 -75q24 27 52 46t60.5 29t67.5 10q68 0 113 -33.5t45 -104.5q0 -6 -1 -18t-4 -35t-9 -64.5t-15 -106t-23 -159.5h-118q13 89 21.5 149t13.5 97.5t8 58t4 30t1 14.5q0 41 -22.5 62t-59.5 21q-31 0 -60 -16.5t-49.5 -44t-25.5 -62.5l-43 -309h-118z
M42 548l1 11q26 26 42 53.5t20 56.5h-43l15 110h98l-13 -93q-5 -39 -23.5 -74.5t-45.5 -63.5h-51z" />
    <glyph glyph-name="ncaron" unicode="&#x148;" horiz-adv-x="595" 
d="M36 0l72 511h88l2 -75q24 27 52 46t60.5 29t67.5 10q68 0 113 -33.5t45 -104.5q0 -6 -1 -18t-4 -35t-9 -64.5t-15 -106t-23 -159.5h-118q13 89 21.5 149t13.5 97.5t8 58t4 30t1 14.5q0 41 -22.5 62t-59.5 21q-31 0 -60 -16.5t-49.5 -44t-25.5 -62.5l-43 -309h-118z
M526 758l-149 -170h-99l-101 170h90l92 -157h-63l136 157h94z" />
    <glyph glyph-name="uni0146" unicode="&#x146;" horiz-adv-x="595" 
d="M36 0l72 511h88l2 -75q24 27 52 46t60.5 29t67.5 10q68 0 113 -33.5t45 -104.5q0 -6 -1 -18t-4 -35t-9 -64.5t-15 -106t-23 -159.5h-118q13 89 21.5 149t13.5 97.5t8 58t4 30t1 14.5q0 41 -22.5 62t-59.5 21q-31 0 -60 -16.5t-49.5 -44t-25.5 -62.5l-43 -309h-118z
M156 -337l2 12q30 29 48 62t22 66h-48l18 127h109l-16 -109q-6 -43 -26 -85t-52 -73h-57z" />
    <glyph glyph-name="uni0272" unicode="&#x272;" horiz-adv-x="595" 
d="M-9 -186q-15 0 -32.5 2.5t-33.5 6.5t-27 10l10 81q11 -5 29.5 -9.5t29.5 -4.5q20 0 39 12t25 56l77 543h88l2 -75q24 27 52 46t60.5 29t67.5 10q68 0 113 -33.5t45 -104.5q0 -6 -1 -18t-4 -35t-9 -64.5t-15 -106t-23 -159.5h-118q13 89 21.5 149t13.5 97.5t8 58t4 30
t1 14.5q0 41 -22.5 62t-59.5 21q-31 0 -60 -16.5t-49.5 -44t-25.5 -62.5l-45 -326q-13 -88 -51.5 -128.5t-109.5 -40.5z" />
    <glyph glyph-name="uni01CC" unicode="&#x1cc;" horiz-adv-x="864" 
d="M36 0l72 511h88l2 -75q24 27 52 46t60.5 29t67.5 10q68 0 113 -33.5t45 -104.5q0 -6 -1 -18t-4 -35t-9 -64.5t-15 -106t-23 -159.5h-118q13 89 21.5 149t13.5 97.5t8 58t4 30t1 14.5q0 41 -22.5 62t-59.5 21q-31 0 -60 -16.5t-49.5 -44t-25.5 -62.5l-43 -309h-118z
M586 -186q-15 0 -32.5 2.5t-33.5 6.5t-27 10l10 81q11 -5 29.5 -9.5t29.5 -4.5q20 0 39 12t25 56l77 543h118l-74 -528q-13 -88 -51.5 -128.5t-109.5 -40.5zM717 620l13 100h122l-14 -100h-121z" />
    <glyph glyph-name="ntilde" unicode="&#xf1;" horiz-adv-x="595" 
d="M36 0l72 511h88l2 -75q24 27 52 46t60.5 29t67.5 10q68 0 113 -33.5t45 -104.5q0 -6 -1 -18t-4 -35t-9 -64.5t-15 -106t-23 -159.5h-118q13 89 21.5 149t13.5 97.5t8 58t4 30t1 14.5q0 41 -22.5 62t-59.5 21q-31 0 -60 -16.5t-49.5 -44t-25.5 -62.5l-43 -309h-118z
M141 600q6 33 22 64.5t42 51.5t63 20q38 0 63 -13.5t44.5 -27.5t41.5 -14q24 0 39 14.5t24 41.5h56q-5 -32 -21 -63.5t-42 -52t-63 -20.5q-38 0 -64 14t-46 28t-43 14q-21 0 -34.5 -14t-24.5 -43h-57z" />
    <glyph glyph-name="eng" unicode="&#x14b;" horiz-adv-x="595" 
d="M321 -186q-15 0 -32.5 2.5t-33.5 6.5t-27 10l11 81q11 -5 29 -9.5t29 -4.5q20 0 39.5 12t25.5 56q14 98 23 164t15 106.5t9 62.5t4 32.5t1 15.5q0 41 -22.5 62t-59.5 21q-31 0 -60 -16.5t-49.5 -44t-25.5 -62.5l-43 -309h-118l72 511h88l2 -75q24 27 52 46t60.5 29
t67.5 10q68 0 113 -33.5t45 -104.5q0 -7 -1.5 -20t-4.5 -38.5t-9.5 -68.5t-15.5 -110t-23 -163q-13 -88 -51.5 -128.5t-109.5 -40.5z" />
    <glyph glyph-name="o" unicode="o" horiz-adv-x="588" 
d="M250 -10q-60 0 -107.5 23.5t-75.5 68.5t-28 112q0 66 16.5 125.5t51 104.5t88 71t126.5 26h10q60 0 107.5 -23.5t75.5 -68.5t28 -112q0 -66 -16.5 -125.5t-51 -104.5t-87.5 -71t-127 -26h-10zM268 77q38 0 68 16t50 46.5t26 71.5q5 33 8 60.5t3 44.5q0 55 -28 86.5
t-82 31.5q-38 0 -68 -16t-49.5 -46t-26.5 -72q-5 -33 -8 -60.5t-3 -44.5q0 -55 28.5 -86.5t81.5 -31.5z" />
    <glyph glyph-name="oacute" unicode="&#xf3;" horiz-adv-x="588" 
d="M250 -10q-60 0 -107.5 23.5t-75.5 68.5t-28 112q0 66 16.5 125.5t51 104.5t88 71t126.5 26h10q60 0 107.5 -23.5t75.5 -68.5t28 -112q0 -66 -16.5 -125.5t-51 -104.5t-87.5 -71t-127 -26h-10zM268 77q38 0 68 16t50 46.5t26 71.5q5 33 8 60.5t3 44.5q0 55 -28 86.5
t-82 31.5q-38 0 -68 -16t-49.5 -46t-26.5 -72q-5 -33 -8 -60.5t-3 -44.5q0 -55 28.5 -86.5t81.5 -31.5zM287 588l103 171h103l1 -3l-128 -168h-79z" />
    <glyph glyph-name="obreve" unicode="&#x14f;" horiz-adv-x="588" 
d="M250 -10q-60 0 -107.5 23.5t-75.5 68.5t-28 112q0 66 16.5 125.5t51 104.5t88 71t126.5 26h10q60 0 107.5 -23.5t75.5 -68.5t28 -112q0 -66 -16.5 -125.5t-51 -104.5t-87.5 -71t-127 -26h-10zM268 77q38 0 68 16t50 46.5t26 71.5q5 33 8 60.5t3 44.5q0 55 -28 86.5
t-82 31.5q-38 0 -68 -16t-49.5 -46t-26.5 -72q-5 -33 -8 -60.5t-3 -44.5q0 -55 28.5 -86.5t81.5 -31.5zM330 588q-54 0 -89 19.5t-50.5 52.5t-12.5 74h74q2 -43 23.5 -62t61.5 -19q44 0 70.5 19t42.5 62h73q-8 -41 -33 -74t-65 -52.5t-95 -19.5z" />
    <glyph glyph-name="uni01D2" unicode="&#x1d2;" horiz-adv-x="588" 
d="M250 -10q-60 0 -107.5 23.5t-75.5 68.5t-28 112q0 66 16.5 125.5t51 104.5t88 71t126.5 26h10q60 0 107.5 -23.5t75.5 -68.5t28 -112q0 -66 -16.5 -125.5t-51 -104.5t-87.5 -71t-127 -26h-10zM268 77q38 0 68 16t50 46.5t26 71.5q5 33 8 60.5t3 44.5q0 55 -28 86.5
t-82 31.5q-38 0 -68 -16t-49.5 -46t-26.5 -72q-5 -33 -8 -60.5t-3 -44.5q0 -55 28.5 -86.5t81.5 -31.5zM527 758l-149 -170h-99l-101 170h90l92 -157h-63l136 157h94z" />
    <glyph glyph-name="ocircumflex" unicode="&#xf4;" horiz-adv-x="588" 
d="M250 -10q-60 0 -107.5 23.5t-75.5 68.5t-28 112q0 66 16.5 125.5t51 104.5t88 71t126.5 26h10q60 0 107.5 -23.5t75.5 -68.5t28 -112q0 -66 -16.5 -125.5t-51 -104.5t-87.5 -71t-127 -26h-10zM268 77q38 0 68 16t50 46.5t26 71.5q5 33 8 60.5t3 44.5q0 55 -28 86.5
t-82 31.5q-38 0 -68 -16t-49.5 -46t-26.5 -72q-5 -33 -8 -60.5t-3 -44.5q0 -55 28.5 -86.5t81.5 -31.5zM156 588l149 170h99l101 -170h-90l-97 157h73l-141 -157h-94z" />
    <glyph glyph-name="uni1ED1" unicode="&#x1ed1;" horiz-adv-x="588" 
d="M250 -10q-60 0 -107.5 23.5t-75.5 68.5t-28 112q0 66 16.5 125.5t51 104.5t88 71t126.5 26h10q60 0 107.5 -23.5t75.5 -68.5t28 -112q0 -66 -16.5 -125.5t-51 -104.5t-87.5 -71t-127 -26h-10zM268 77q38 0 68 16t50 46.5t26 71.5q5 33 8 60.5t3 44.5q0 55 -28 86.5
t-82 31.5q-38 0 -68 -16t-49.5 -46t-26.5 -72q-5 -33 -8 -60.5t-3 -44.5q0 -55 28.5 -86.5t81.5 -31.5zM318 778l113 145h104l1 -3l-138 -142h-80zM150 593l156 145h89l117 -145h-88l-78 88l-102 -88h-94z" />
    <glyph glyph-name="uni1ED9" unicode="&#x1ed9;" horiz-adv-x="588" 
d="M250 -10q-60 0 -107.5 23.5t-75.5 68.5t-28 112q0 66 16.5 125.5t51 104.5t88 71t126.5 26h10q60 0 107.5 -23.5t75.5 -68.5t28 -112q0 -66 -16.5 -125.5t-51 -104.5t-87.5 -71t-127 -26h-10zM268 77q38 0 68 16t50 46.5t26 71.5q5 33 8 60.5t3 44.5q0 55 -28 86.5
t-82 31.5q-38 0 -68 -16t-49.5 -46t-26.5 -72q-5 -33 -8 -60.5t-3 -44.5q0 -55 28.5 -86.5t81.5 -31.5zM180 -187l15 109h105l-16 -109h-104zM156 588l149 170h99l101 -170h-90l-97 157h73l-141 -157h-94z" />
    <glyph glyph-name="uni1ED3" unicode="&#x1ed3;" horiz-adv-x="588" 
d="M250 -10q-60 0 -107.5 23.5t-75.5 68.5t-28 112q0 66 16.5 125.5t51 104.5t88 71t126.5 26h10q60 0 107.5 -23.5t75.5 -68.5t28 -112q0 -66 -16.5 -125.5t-51 -104.5t-87.5 -71t-127 -26h-10zM268 77q38 0 68 16t50 46.5t26 71.5q5 33 8 60.5t3 44.5q0 55 -28 86.5
t-82 31.5q-38 0 -68 -16t-49.5 -46t-26.5 -72q-5 -33 -8 -60.5t-3 -44.5q0 -55 28.5 -86.5t81.5 -31.5zM316 778l-98 142l1 3h104l73 -145h-80zM152 593l156 145h89l117 -145h-88l-78 88l-102 -88h-94z" />
    <glyph glyph-name="uni1ED5" unicode="&#x1ed5;" horiz-adv-x="588" 
d="M250 -10q-60 0 -107.5 23.5t-75.5 68.5t-28 112q0 66 16.5 125.5t51 104.5t88 71t126.5 26h10q60 0 107.5 -23.5t75.5 -68.5t28 -112q0 -66 -16.5 -125.5t-51 -104.5t-87.5 -71t-127 -26h-10zM268 77q38 0 68 16t50 46.5t26 71.5q5 33 8 60.5t3 44.5q0 55 -28 86.5
t-82 31.5q-38 0 -68 -16t-49.5 -46t-26.5 -72q-5 -33 -8 -60.5t-3 -44.5q0 -55 28.5 -86.5t81.5 -31.5zM340 779l7 49q28 3 44.5 16.5t16.5 35.5q0 15 -10.5 22.5t-28.5 7.5q-11 0 -25 -2.5t-30 -7.5l8 61q16 5 31 6.5t29 1.5q38 0 62.5 -18.5t24.5 -53.5q0 -33 -19.5 -59
t-49 -41.5t-60.5 -17.5zM151 593l156 145h89l117 -145h-88l-78 88l-102 -88h-94z" />
    <glyph glyph-name="uni1ED7" unicode="&#x1ed7;" horiz-adv-x="588" 
d="M250 -10q-60 0 -107.5 23.5t-75.5 68.5t-28 112q0 66 16.5 125.5t51 104.5t88 71t126.5 26h10q60 0 107.5 -23.5t75.5 -68.5t28 -112q0 -66 -16.5 -125.5t-51 -104.5t-87.5 -71t-127 -26h-10zM268 77q38 0 68 16t50 46.5t26 71.5q5 33 8 60.5t3 44.5q0 55 -28 86.5
t-82 31.5q-38 0 -68 -16t-49.5 -46t-26.5 -72q-5 -33 -8 -60.5t-3 -44.5q0 -55 28.5 -86.5t81.5 -31.5zM169 775q4 28 20.5 55t45 44.5t66.5 17.5q32 0 54 -8.5t42 -17.5t47 -9q22 0 37 9t22 26h56q-4 -27 -20.5 -54t-44.5 -45t-67 -18q-31 0 -52 8.5t-41 17.5t-50 10
q-22 0 -36 -9.5t-22 -26.5h-57zM150 593l156 145h89l117 -145h-88l-78 88l-102 -88h-94z" />
    <glyph glyph-name="uni020D" unicode="&#x20d;" horiz-adv-x="588" 
d="M250 -10q-60 0 -107.5 23.5t-75.5 68.5t-28 112q0 66 16.5 125.5t51 104.5t88 71t126.5 26h10q60 0 107.5 -23.5t75.5 -68.5t28 -112q0 -66 -16.5 -125.5t-51 -104.5t-87.5 -71t-127 -26h-10zM268 77q38 0 68 16t50 46.5t26 71.5q5 33 8 60.5t3 44.5q0 55 -28 86.5
t-82 31.5q-38 0 -68 -16t-49.5 -46t-26.5 -72q-5 -33 -8 -60.5t-3 -44.5q0 -55 28.5 -86.5t81.5 -31.5zM384 593l-97 142l1 3h103l74 -145h-81zM214 593l-98 142l2 3h103l73 -145h-80z" />
    <glyph glyph-name="odieresis" unicode="&#xf6;" horiz-adv-x="588" 
d="M250 -10q-60 0 -107.5 23.5t-75.5 68.5t-28 112q0 66 16.5 125.5t51 104.5t88 71t126.5 26h10q60 0 107.5 -23.5t75.5 -68.5t28 -112q0 -66 -16.5 -125.5t-51 -104.5t-87.5 -71t-127 -26h-10zM268 77q38 0 68 16t50 46.5t26 71.5q5 33 8 60.5t3 44.5q0 55 -28 86.5
t-82 31.5q-38 0 -68 -16t-49.5 -46t-26.5 -72q-5 -33 -8 -60.5t-3 -44.5q0 -55 28.5 -86.5t81.5 -31.5zM148 608l16 115h128l-16 -115h-128zM390 608l16 115h128l-16 -115h-128z" />
    <glyph glyph-name="uni022B" unicode="&#x22b;" horiz-adv-x="588" 
d="M250 -10q-60 0 -107.5 23.5t-75.5 68.5t-28 112q0 66 16.5 125.5t51 104.5t88 71t126.5 26h10q60 0 107.5 -23.5t75.5 -68.5t28 -112q0 -66 -16.5 -125.5t-51 -104.5t-87.5 -71t-127 -26h-10zM268 77q38 0 68 16t50 46.5t26 71.5q5 33 8 60.5t3 44.5q0 55 -28 86.5
t-82 31.5q-38 0 -68 -16t-49.5 -46t-26.5 -72q-5 -33 -8 -60.5t-3 -44.5q0 -55 28.5 -86.5t81.5 -31.5zM201 760l10 71h307l-10 -71h-307zM185 615l14 103h104l-14 -103h-104zM381 615l14 103h103l-14 -103h-103z" />
    <glyph glyph-name="uni0231" unicode="&#x231;" horiz-adv-x="588" 
d="M250 -10q-60 0 -107.5 23.5t-75.5 68.5t-28 112q0 66 16.5 125.5t51 104.5t88 71t126.5 26h10q60 0 107.5 -23.5t75.5 -68.5t28 -112q0 -66 -16.5 -125.5t-51 -104.5t-87.5 -71t-127 -26h-10zM268 77q38 0 68 16t50 46.5t26 71.5q5 33 8 60.5t3 44.5q0 55 -28 86.5
t-82 31.5q-38 0 -68 -16t-49.5 -46t-26.5 -72q-5 -33 -8 -60.5t-3 -44.5q0 -55 28.5 -86.5t81.5 -31.5zM201 760l10 71h307l-10 -71h-307zM282 614l14 103h104l-14 -103h-104z" />
    <glyph glyph-name="uni1ECD" unicode="&#x1ecd;" horiz-adv-x="588" 
d="M250 -10q-60 0 -107.5 23.5t-75.5 68.5t-28 112q0 66 16.5 125.5t51 104.5t88 71t126.5 26h10q60 0 107.5 -23.5t75.5 -68.5t28 -112q0 -66 -16.5 -125.5t-51 -104.5t-87.5 -71t-127 -26h-10zM268 77q38 0 68 16t50 46.5t26 71.5q5 33 8 60.5t3 44.5q0 55 -28 86.5
t-82 31.5q-38 0 -68 -16t-49.5 -46t-26.5 -72q-5 -33 -8 -60.5t-3 -44.5q0 -55 28.5 -86.5t81.5 -31.5zM180 -187l15 109h105l-16 -109h-104z" />
    <glyph glyph-name="ograve" unicode="&#xf2;" horiz-adv-x="588" 
d="M250 -10q-60 0 -107.5 23.5t-75.5 68.5t-28 112q0 66 16.5 125.5t51 104.5t88 71t126.5 26h10q60 0 107.5 -23.5t75.5 -68.5t28 -112q0 -66 -16.5 -125.5t-51 -104.5t-87.5 -71t-127 -26h-10zM268 77q38 0 68 16t50 46.5t26 71.5q5 33 8 60.5t3 44.5q0 55 -28 86.5
t-82 31.5q-38 0 -68 -16t-49.5 -46t-26.5 -72q-5 -33 -8 -60.5t-3 -44.5q0 -55 28.5 -86.5t81.5 -31.5zM275 588l-80 168l1 3h98l55 -171h-74z" />
    <glyph glyph-name="uni1ECF" unicode="&#x1ecf;" horiz-adv-x="588" 
d="M250 -10q-60 0 -107.5 23.5t-75.5 68.5t-28 112q0 66 16.5 125.5t51 104.5t88 71t126.5 26h10q60 0 107.5 -23.5t75.5 -68.5t28 -112q0 -66 -16.5 -125.5t-51 -104.5t-87.5 -71t-127 -26h-10zM268 77q38 0 68 16t50 46.5t26 71.5q5 33 8 60.5t3 44.5q0 55 -28 86.5
t-82 31.5q-38 0 -68 -16t-49.5 -46t-26.5 -72q-5 -33 -8 -60.5t-3 -44.5q0 -55 28.5 -86.5t81.5 -31.5zM313 572l8 59q35 3 55 19t20 43q0 17 -12.5 26t-34.5 9q-13 0 -30 -3t-37 -9l10 73q20 6 38.5 8.5t34.5 2.5q47 0 75.5 -22t28.5 -64q0 -39 -23 -70.5t-58.5 -50.5
t-74.5 -21z" />
    <glyph glyph-name="ohorn" unicode="&#x1a1;" horiz-adv-x="588" 
d="M250 -10q-60 0 -107.5 23.5t-75.5 68.5t-28 112q0 66 16.5 125.5t51 104.5t88 71t126.5 26h10q60 0 107.5 -23.5t75.5 -68.5t28 -112q0 -66 -16.5 -125.5t-51 -104.5t-87.5 -71t-127 -26h-10zM268 77q38 0 68 16t50 46.5t26 71.5q5 33 8 60.5t3 44.5q0 55 -28 86.5
t-82 31.5q-38 0 -68 -16t-49.5 -46t-26.5 -72q-5 -33 -8 -60.5t-3 -44.5q0 -55 28.5 -86.5t81.5 -31.5zM442 406l10 71q50 8 74.5 41t33.5 97h106q-7 -50 -37.5 -95.5t-78.5 -76.5t-108 -37z" />
    <glyph glyph-name="uni1EDB" unicode="&#x1edb;" horiz-adv-x="588" 
d="M250 -10q-60 0 -107.5 23.5t-75.5 68.5t-28 112q0 66 16.5 125.5t51 104.5t88 71t126.5 26h10q60 0 107.5 -23.5t75.5 -68.5t28 -112q0 -66 -16.5 -125.5t-51 -104.5t-87.5 -71t-127 -26h-10zM268 77q38 0 68 16t50 46.5t26 71.5q5 33 8 60.5t3 44.5q0 55 -28 86.5
t-82 31.5q-38 0 -68 -16t-49.5 -46t-26.5 -72q-5 -33 -8 -60.5t-3 -44.5q0 -55 28.5 -86.5t81.5 -31.5zM442 406l10 71q50 8 74.5 41t33.5 97h106q-7 -50 -37.5 -95.5t-78.5 -76.5t-108 -37zM282 588l103 171h103l1 -3l-128 -168h-79z" />
    <glyph glyph-name="uni1EE3" unicode="&#x1ee3;" horiz-adv-x="588" 
d="M250 -10q-60 0 -107.5 23.5t-75.5 68.5t-28 112q0 66 16.5 125.5t51 104.5t88 71t126.5 26h10q60 0 107.5 -23.5t75.5 -68.5t28 -112q0 -66 -16.5 -125.5t-51 -104.5t-87.5 -71t-127 -26h-10zM268 77q38 0 68 16t50 46.5t26 71.5q5 33 8 60.5t3 44.5q0 55 -28 86.5
t-82 31.5q-38 0 -68 -16t-49.5 -46t-26.5 -72q-5 -33 -8 -60.5t-3 -44.5q0 -55 28.5 -86.5t81.5 -31.5zM442 406l10 71q50 8 74.5 41t33.5 97h106q-7 -50 -37.5 -95.5t-78.5 -76.5t-108 -37zM180 -187l15 109h105l-16 -109h-104z" />
    <glyph glyph-name="uni1EDD" unicode="&#x1edd;" horiz-adv-x="588" 
d="M250 -10q-60 0 -107.5 23.5t-75.5 68.5t-28 112q0 66 16.5 125.5t51 104.5t88 71t126.5 26h10q60 0 107.5 -23.5t75.5 -68.5t28 -112q0 -66 -16.5 -125.5t-51 -104.5t-87.5 -71t-127 -26h-10zM268 77q38 0 68 16t50 46.5t26 71.5q5 33 8 60.5t3 44.5q0 55 -28 86.5
t-82 31.5q-38 0 -68 -16t-49.5 -46t-26.5 -72q-5 -33 -8 -60.5t-3 -44.5q0 -55 28.5 -86.5t81.5 -31.5zM442 406l10 71q50 8 74.5 41t33.5 97h106q-7 -50 -37.5 -95.5t-78.5 -76.5t-108 -37zM270 588l-80 168l1 3h98l55 -171h-74z" />
    <glyph glyph-name="uni1EDF" unicode="&#x1edf;" horiz-adv-x="588" 
d="M250 -10q-60 0 -107.5 23.5t-75.5 68.5t-28 112q0 66 16.5 125.5t51 104.5t88 71t126.5 26h10q60 0 107.5 -23.5t75.5 -68.5t28 -112q0 -66 -16.5 -125.5t-51 -104.5t-87.5 -71t-127 -26h-10zM268 77q38 0 68 16t50 46.5t26 71.5q5 33 8 60.5t3 44.5q0 55 -28 86.5
t-82 31.5q-38 0 -68 -16t-49.5 -46t-26.5 -72q-5 -33 -8 -60.5t-3 -44.5q0 -55 28.5 -86.5t81.5 -31.5zM442 406l10 71q50 8 74.5 41t33.5 97h106q-7 -50 -37.5 -95.5t-78.5 -76.5t-108 -37zM308 572l8 59q35 3 55 19t20 43q0 17 -12.5 26t-34.5 9q-13 0 -30 -3t-37 -9
l10 73q20 6 38.5 8.5t34.5 2.5q47 0 75.5 -22t28.5 -64q0 -39 -23 -70.5t-58.5 -50.5t-74.5 -21z" />
    <glyph glyph-name="uni1EE1" unicode="&#x1ee1;" horiz-adv-x="588" 
d="M250 -10q-60 0 -107.5 23.5t-75.5 68.5t-28 112q0 66 16.5 125.5t51 104.5t88 71t126.5 26h10q60 0 107.5 -23.5t75.5 -68.5t28 -112q0 -66 -16.5 -125.5t-51 -104.5t-87.5 -71t-127 -26h-10zM268 77q38 0 68 16t50 46.5t26 71.5q5 33 8 60.5t3 44.5q0 55 -28 86.5
t-82 31.5q-38 0 -68 -16t-49.5 -46t-26.5 -72q-5 -33 -8 -60.5t-3 -44.5q0 -55 28.5 -86.5t81.5 -31.5zM442 406l10 71q50 8 74.5 41t33.5 97h106q-7 -50 -37.5 -95.5t-78.5 -76.5t-108 -37zM137 600q6 33 22 64.5t42 51.5t63 20q38 0 63 -13.5t44.5 -27.5t41.5 -14
q24 0 39 14.5t24 41.5h56q-5 -32 -21 -63.5t-42 -52t-63 -20.5q-38 0 -64 14t-46 28t-43 14q-21 0 -34.5 -14t-24.5 -43h-57z" />
    <glyph glyph-name="ohungarumlaut" unicode="&#x151;" horiz-adv-x="588" 
d="M250 -10q-60 0 -107.5 23.5t-75.5 68.5t-28 112q0 66 16.5 125.5t51 104.5t88 71t126.5 26h10q60 0 107.5 -23.5t75.5 -68.5t28 -112q0 -66 -16.5 -125.5t-51 -104.5t-87.5 -71t-127 -26h-10zM268 77q38 0 68 16t50 46.5t26 71.5q5 33 8 60.5t3 44.5q0 55 -28 86.5
t-82 31.5q-38 0 -68 -16t-49.5 -46t-26.5 -72q-5 -33 -8 -60.5t-3 -44.5q0 -55 28.5 -86.5t81.5 -31.5zM368 594l114 145h102l2 -3l-138 -142h-80zM197 594l114 145h103l1 -3l-137 -142h-81z" />
    <glyph glyph-name="uni020F" unicode="&#x20f;" horiz-adv-x="588" 
d="M250 -10q-60 0 -107.5 23.5t-75.5 68.5t-28 112q0 66 16.5 125.5t51 104.5t88 71t126.5 26h10q60 0 107.5 -23.5t75.5 -68.5t28 -112q0 -66 -16.5 -125.5t-51 -104.5t-87.5 -71t-127 -26h-10zM268 77q38 0 68 16t50 46.5t26 71.5q5 33 8 60.5t3 44.5q0 55 -28 86.5
t-82 31.5q-38 0 -68 -16t-49.5 -46t-26.5 -72q-5 -33 -8 -60.5t-3 -44.5q0 -55 28.5 -86.5t81.5 -31.5zM150 603q5 35 30.5 63.5t68 45.5t99.5 17q59 0 97.5 -17t56.5 -45.5t13 -63.5h-74q-4 32 -28 46.5t-71 14.5q-46 0 -75.5 -14.5t-43.5 -46.5h-73z" />
    <glyph glyph-name="omacron" unicode="&#x14d;" horiz-adv-x="588" 
d="M250 -10q-60 0 -107.5 23.5t-75.5 68.5t-28 112q0 66 16.5 125.5t51 104.5t88 71t126.5 26h10q60 0 107.5 -23.5t75.5 -68.5t28 -112q0 -66 -16.5 -125.5t-51 -104.5t-87.5 -71t-127 -26h-10zM268 77q38 0 68 16t50 46.5t26 71.5q5 33 8 60.5t3 44.5q0 55 -28 86.5
t-82 31.5q-38 0 -68 -16t-49.5 -46t-26.5 -72q-5 -33 -8 -60.5t-3 -44.5q0 -55 28.5 -86.5t81.5 -31.5zM175 619l10 66h319l-10 -66h-319z" />
    <glyph glyph-name="uni01EB" unicode="&#x1eb;" horiz-adv-x="588" 
d="M250 -10q-60 0 -107.5 23.5t-75.5 68.5t-28 112q0 66 16.5 125.5t51 104.5t88 71t126.5 26h10q60 0 107.5 -23.5t75.5 -68.5t28 -112q0 -66 -16.5 -125.5t-51 -104.5t-87.5 -71t-127 -26h-10zM268 77q38 0 68 16t50 46.5t26 71.5q5 33 8 60.5t3 44.5q0 55 -28 86.5
t-82 31.5q-38 0 -68 -16t-49.5 -46t-26.5 -72q-5 -33 -8 -60.5t-3 -44.5q0 -55 28.5 -86.5t81.5 -31.5zM313 -141q-32 0 -60 13.5t-28 47.5q0 28 18.5 49.5t40.5 32.5h65q-25 -13 -40 -29t-15 -36q0 -17 12.5 -24t26.5 -7q17 0 35 4.5t34 9.5l7 -37q-23 -12 -47 -18t-49 -6z
" />
    <glyph glyph-name="oslash" unicode="&#xf8;" horiz-adv-x="588" 
d="M250 -10q-60 0 -107.5 23.5t-75.5 68.5t-28 112q0 66 16.5 125.5t51 104.5t88 71t126.5 26h10q60 0 107.5 -23.5t75.5 -68.5t28 -112q0 -66 -16.5 -125.5t-51 -104.5t-87.5 -71t-127 -26h-10zM268 77q38 0 68 16t50 46.5t26 71.5q5 33 8 60.5t3 44.5q0 55 -28 86.5
t-82 31.5q-38 0 -68 -16t-49.5 -46t-26.5 -72q-5 -33 -8 -60.5t-3 -44.5q0 -55 28.5 -86.5t81.5 -31.5zM15 -58l478 623h67l-479 -623h-66z" />
    <glyph glyph-name="oslashacute" unicode="&#x1ff;" horiz-adv-x="588" 
d="M250 -10q-60 0 -107.5 23.5t-75.5 68.5t-28 112q0 66 16.5 125.5t51 104.5t88 71t126.5 26h10q60 0 107.5 -23.5t75.5 -68.5t28 -112q0 -66 -16.5 -125.5t-51 -104.5t-87.5 -71t-127 -26h-10zM268 77q38 0 68 16t50 46.5t26 71.5q5 33 8 60.5t3 44.5q0 55 -28 86.5
t-82 31.5q-38 0 -68 -16t-49.5 -46t-26.5 -72q-5 -33 -8 -60.5t-3 -44.5q0 -55 28.5 -86.5t81.5 -31.5zM15 -58l478 623h67l-479 -623h-66zM282 588l103 171h103l1 -3l-128 -168h-79z" />
    <glyph glyph-name="otilde" unicode="&#xf5;" horiz-adv-x="588" 
d="M250 -10q-60 0 -107.5 23.5t-75.5 68.5t-28 112q0 66 16.5 125.5t51 104.5t88 71t126.5 26h10q60 0 107.5 -23.5t75.5 -68.5t28 -112q0 -66 -16.5 -125.5t-51 -104.5t-87.5 -71t-127 -26h-10zM268 77q38 0 68 16t50 46.5t26 71.5q5 33 8 60.5t3 44.5q0 55 -28 86.5
t-82 31.5q-38 0 -68 -16t-49.5 -46t-26.5 -72q-5 -33 -8 -60.5t-3 -44.5q0 -55 28.5 -86.5t81.5 -31.5zM142 600q6 33 22 64.5t42 51.5t63 20q38 0 63 -13.5t44.5 -27.5t41.5 -14q24 0 39 14.5t24 41.5h56q-5 -32 -21 -63.5t-42 -52t-63 -20.5q-38 0 -64 14t-46 28t-43 14
q-21 0 -34.5 -14t-24.5 -43h-57z" />
    <glyph glyph-name="uni022D" unicode="&#x22d;" horiz-adv-x="588" 
d="M250 -10q-60 0 -107.5 23.5t-75.5 68.5t-28 112q0 66 16.5 125.5t51 104.5t88 71t126.5 26h10q60 0 107.5 -23.5t75.5 -68.5t28 -112q0 -66 -16.5 -125.5t-51 -104.5t-87.5 -71t-127 -26h-10zM268 77q38 0 68 16t50 46.5t26 71.5q5 33 8 60.5t3 44.5q0 55 -28 86.5
t-82 31.5q-38 0 -68 -16t-49.5 -46t-26.5 -72q-5 -33 -8 -60.5t-3 -44.5q0 -55 28.5 -86.5t81.5 -31.5zM142 607q4 28 20.5 55t45 44.5t66.5 17.5q32 0 54 -8.5t42 -17.5t47 -9q22 0 37 9t22 26h56q-4 -27 -20.5 -54t-44.5 -45t-67 -18q-31 0 -52 8.5t-41 17.5t-50 10
q-22 0 -36 -9.5t-22 -26.5h-57zM181 780l8 61h342l-8 -61h-342z" />
    <glyph glyph-name="oe" unicode="&#x153;" horiz-adv-x="944" 
d="M249 -10q-60 0 -107.5 23t-75 67.5t-27.5 111.5q0 66 17 125.5t52 105.5t89 72t127 26h10q54 0 98.5 -19t71.5 -57q35 35 83 55.5t109 20.5h11q57 0 101 -21t69 -61t25 -97q0 -12 -1.5 -28.5t-4.5 -36.5t-7 -44h-354q-2 -13 -2.5 -20.5t-0.5 -17.5q0 -51 26 -84.5
t83 -33.5q44 0 71 18t40.5 44.5t17.5 50.5h112q-9 -65 -44 -110t-88 -67.5t-118 -22.5h-9q-55 0 -99 19t-70 56q-34 -34 -82.5 -54.5t-112.5 -20.5h-10zM266 77q38 0 67.5 16.5t49.5 47t27 70.5q4 22 6.5 42t4.5 36.5t2 26.5q0 55 -26.5 86.5t-80.5 31.5q-38 0 -67.5 -16
t-49.5 -46t-28 -72q-6 -33 -9.5 -60.5t-3.5 -44.5q0 -55 27.5 -86.5t80.5 -31.5zM547 309h234q2 11 2.5 18t0.5 14q0 44 -25.5 68.5t-72.5 24.5q-52 0 -88.5 -33t-50.5 -92z" />
    <glyph glyph-name="p" unicode="p" horiz-adv-x="589" 
d="M17 -181l97 692h92l3 -67q31 35 71 56t92 21q76 0 126 -47t50 -149q0 -58 -14 -117t-43.5 -108.5t-76.5 -79.5t-113 -30q-53 0 -84 21.5t-48 50.5l-34 -243h-118zM282 77q39 0 67 16t45.5 46.5t23.5 71.5q5 33 8 60.5t3 44.5q0 55 -23 85.5t-73 30.5q-35 0 -63 -17.5
t-46.5 -49t-25.5 -74.5q-5 -35 -8 -60.5t-3 -42.5q0 -36 10 -61t31 -37.5t54 -12.5z" />
    <glyph glyph-name="thorn" unicode="&#xfe;" horiz-adv-x="589" 
d="M17 -181l126 901h118l-38 -261q29 29 66 45.5t83 16.5q76 0 126 -47t50 -149q0 -58 -14 -117t-43.5 -108.5t-76.5 -79.5t-113 -30q-53 0 -84 21.5t-48 50.5l-34 -243h-118zM282 77q39 0 67 16t45.5 46.5t23.5 71.5q5 33 8 60.5t3 44.5q0 55 -23 85.5t-73 30.5
q-35 0 -63 -17.5t-46.5 -49t-25.5 -74.5q-5 -35 -8 -60.5t-3 -42.5q0 -36 10 -61t31 -37.5t54 -12.5z" />
    <glyph glyph-name="q" unicode="q" horiz-adv-x="588" 
d="M336 -180l34 242q-16 -18 -39.5 -34.5t-53.5 -27t-66 -10.5q-72 0 -119.5 49.5t-47.5 146.5q0 56 14 114.5t43.5 108.5t78 81t117.5 31q56 0 95.5 -22.5t62.5 -67.5l52 80h44l-97 -691h-118zM257 77q35 0 62.5 17t46 48.5t25.5 74.5q5 31 7 49.5t3 30.5t1 21
q0 53 -23 83.5t-73 30.5q-39 0 -67.5 -20t-45.5 -54.5t-24 -76.5q-6 -43 -7.5 -61.5t-1.5 -31.5q0 -53 24 -82t73 -29z" />
    <glyph glyph-name="r" unicode="r" horiz-adv-x="489" 
d="M36 0l72 511h88l3 -76q2 4 12 17.5t29.5 29.5t49 27.5t69.5 11.5q62 0 94 -36.5t32 -92.5q0 -20 -4 -41.5t-8 -32.5h-101q2 10 3 20.5t1 16.5q0 17 -7 34.5t-23 29t-44 11.5q-24 0 -42.5 -10.5t-31.5 -28t-20.5 -38.5t-10.5 -43l-44 -310h-117z" />
    <glyph glyph-name="racute" unicode="&#x155;" horiz-adv-x="489" 
d="M36 0l72 511h88l3 -76q2 4 12 17.5t29.5 29.5t49 27.5t69.5 11.5q62 0 94 -36.5t32 -92.5q0 -20 -4 -41.5t-8 -32.5h-101q2 10 3 20.5t1 16.5q0 17 -7 34.5t-23 29t-44 11.5q-24 0 -42.5 -10.5t-31.5 -28t-20.5 -38.5t-10.5 -43l-44 -310h-117zM267 588l103 171h103l1 -3
l-128 -168h-79z" />
    <glyph glyph-name="rcaron" unicode="&#x159;" horiz-adv-x="489" 
d="M36 0l72 511h88l3 -76q2 4 12 17.5t29.5 29.5t49 27.5t69.5 11.5q62 0 94 -36.5t32 -92.5q0 -20 -4 -41.5t-8 -32.5h-101q2 10 3 20.5t1 16.5q0 17 -7 34.5t-23 29t-44 11.5q-24 0 -42.5 -10.5t-31.5 -28t-20.5 -38.5t-10.5 -43l-44 -310h-117zM507 758l-149 -170h-99
l-101 170h90l92 -157h-63l136 157h94z" />
    <glyph glyph-name="uni0157" unicode="&#x157;" horiz-adv-x="489" 
d="M36 0l72 511h88l3 -76q2 4 12 17.5t29.5 29.5t49 27.5t69.5 11.5q62 0 94 -36.5t32 -92.5q0 -20 -4 -41.5t-8 -32.5h-101q2 10 3 20.5t1 16.5q0 17 -7 34.5t-23 29t-44 11.5q-24 0 -42.5 -10.5t-31.5 -28t-20.5 -38.5t-10.5 -43l-44 -310h-117zM-12 -337l2 12
q30 29 48 62t22 66h-48l18 127h109l-16 -109q-6 -43 -26 -85t-52 -73h-57z" />
    <glyph glyph-name="uni0211" unicode="&#x211;" horiz-adv-x="489" 
d="M36 0l72 511h88l3 -76q2 4 12 17.5t29.5 29.5t49 27.5t69.5 11.5q62 0 94 -36.5t32 -92.5q0 -20 -4 -41.5t-8 -32.5h-101q2 10 3 20.5t1 16.5q0 17 -7 34.5t-23 29t-44 11.5q-24 0 -42.5 -10.5t-31.5 -28t-20.5 -38.5t-10.5 -43l-44 -310h-117zM364 593l-97 142l1 3h103
l74 -145h-81zM194 593l-98 142l2 3h103l73 -145h-80z" />
    <glyph glyph-name="uni0213" unicode="&#x213;" horiz-adv-x="489" 
d="M36 0l72 511h88l3 -76q2 4 12 17.5t29.5 29.5t49 27.5t69.5 11.5q62 0 94 -36.5t32 -92.5q0 -20 -4 -41.5t-8 -32.5h-101q2 10 3 20.5t1 16.5q0 17 -7 34.5t-23 29t-44 11.5q-24 0 -42.5 -10.5t-31.5 -28t-20.5 -38.5t-10.5 -43l-44 -310h-117zM130 603q5 35 30.5 63.5
t68 45.5t99.5 17q59 0 97.5 -17t56.5 -45.5t13 -63.5h-74q-4 32 -28 46.5t-71 14.5q-46 0 -75.5 -14.5t-43.5 -46.5h-73z" />
    <glyph glyph-name="s" unicode="s" horiz-adv-x="537" 
d="M204 -10q-62 0 -103.5 17.5t-62 47.5t-20.5 67q0 13 1.5 23.5t2.5 15.5h110q-1 -7 -1.5 -11t-0.5 -9q0 -23 15.5 -37.5t41.5 -20.5t55 -6q23 0 45 4t39.5 12.5t28.5 21.5t11 32q0 25 -22 37.5t-56.5 20t-73 15.5t-73 21.5t-56.5 39.5t-22 69q0 42 17 74t48.5 53.5
t74.5 32.5t95 11h14q40 0 74 -9t59 -25.5t39 -39t14 -49.5q0 -12 -1.5 -21t-3.5 -14h-109q1 4 1.5 8t0.5 7q0 17 -11 29.5t-32.5 19.5t-53.5 7q-31 0 -52.5 -5.5t-35 -15t-20 -20.5t-6.5 -22q0 -22 22 -34t56.5 -20t73.5 -16.5t73.5 -23t56.5 -39.5t22 -66q0 -53 -21 -88
t-57 -55.5t-81 -29.5t-93 -9h-23z" />
    <glyph glyph-name="sacute" unicode="&#x15b;" horiz-adv-x="537" 
d="M204 -10q-62 0 -103.5 17.5t-62 47.5t-20.5 67q0 13 1.5 23.5t2.5 15.5h110q-1 -7 -1.5 -11t-0.5 -9q0 -23 15.5 -37.5t41.5 -20.5t55 -6q23 0 45 4t39.5 12.5t28.5 21.5t11 32q0 25 -22 37.5t-56.5 20t-73 15.5t-73 21.5t-56.5 39.5t-22 69q0 42 17 74t48.5 53.5
t74.5 32.5t95 11h14q40 0 74 -9t59 -25.5t39 -39t14 -49.5q0 -12 -1.5 -21t-3.5 -14h-109q1 4 1.5 8t0.5 7q0 17 -11 29.5t-32.5 19.5t-53.5 7q-31 0 -52.5 -5.5t-35 -15t-20 -20.5t-6.5 -22q0 -22 22 -34t56.5 -20t73.5 -16.5t73.5 -23t56.5 -39.5t22 -66q0 -53 -21 -88
t-57 -55.5t-81 -29.5t-93 -9h-23zM266 588l103 171h103l1 -3l-128 -168h-79z" />
    <glyph glyph-name="scaron" unicode="&#x161;" horiz-adv-x="537" 
d="M204 -10q-62 0 -103.5 17.5t-62 47.5t-20.5 67q0 13 1.5 23.5t2.5 15.5h110q-1 -7 -1.5 -11t-0.5 -9q0 -23 15.5 -37.5t41.5 -20.5t55 -6q23 0 45 4t39.5 12.5t28.5 21.5t11 32q0 25 -22 37.5t-56.5 20t-73 15.5t-73 21.5t-56.5 39.5t-22 69q0 42 17 74t48.5 53.5
t74.5 32.5t95 11h14q40 0 74 -9t59 -25.5t39 -39t14 -49.5q0 -12 -1.5 -21t-3.5 -14h-109q1 4 1.5 8t0.5 7q0 17 -11 29.5t-32.5 19.5t-53.5 7q-31 0 -52.5 -5.5t-35 -15t-20 -20.5t-6.5 -22q0 -22 22 -34t56.5 -20t73.5 -16.5t73.5 -23t56.5 -39.5t22 -66q0 -53 -21 -88
t-57 -55.5t-81 -29.5t-93 -9h-23zM506 758l-149 -170h-99l-101 170h90l92 -157h-63l136 157h94z" />
    <glyph glyph-name="scedilla" unicode="&#x15f;" horiz-adv-x="537" 
d="M204 -10q-62 0 -103.5 17.5t-62 47.5t-20.5 67q0 13 1.5 23.5t2.5 15.5h110q-1 -7 -1.5 -11t-0.5 -9q0 -23 15.5 -37.5t41.5 -20.5t55 -6q23 0 45 4t39.5 12.5t28.5 21.5t11 32q0 25 -22 37.5t-56.5 20t-73 15.5t-73 21.5t-56.5 39.5t-22 69q0 42 17 74t48.5 53.5
t74.5 32.5t95 11h14q40 0 74 -9t59 -25.5t39 -39t14 -49.5q0 -12 -1.5 -21t-3.5 -14h-109q1 4 1.5 8t0.5 7q0 17 -11 29.5t-32.5 19.5t-53.5 7q-31 0 -52.5 -5.5t-35 -15t-20 -20.5t-6.5 -22q0 -22 22 -34t56.5 -20t73.5 -16.5t73.5 -23t56.5 -39.5t22 -66q0 -53 -21 -88
t-57 -55.5t-81 -29.5t-93 -9h-23zM192 -209q-26 0 -52 5.5t-43 17.5l21 50q9 -8 27 -15t46 -7q16 0 31 5t25 15.5t10 28.5q0 20 -11.5 27.5t-32.5 7.5h-20l7 45h31q35 0 64 -16.5t29 -57.5t-23 -64.5t-53.5 -32.5t-55.5 -9z" />
    <glyph glyph-name="scircumflex" unicode="&#x15d;" horiz-adv-x="537" 
d="M204 -10q-62 0 -103.5 17.5t-62 47.5t-20.5 67q0 13 1.5 23.5t2.5 15.5h110q-1 -7 -1.5 -11t-0.5 -9q0 -23 15.5 -37.5t41.5 -20.5t55 -6q23 0 45 4t39.5 12.5t28.5 21.5t11 32q0 25 -22 37.5t-56.5 20t-73 15.5t-73 21.5t-56.5 39.5t-22 69q0 42 17 74t48.5 53.5
t74.5 32.5t95 11h14q40 0 74 -9t59 -25.5t39 -39t14 -49.5q0 -12 -1.5 -21t-3.5 -14h-109q1 4 1.5 8t0.5 7q0 17 -11 29.5t-32.5 19.5t-53.5 7q-31 0 -52.5 -5.5t-35 -15t-20 -20.5t-6.5 -22q0 -22 22 -34t56.5 -20t73.5 -16.5t73.5 -23t56.5 -39.5t22 -66q0 -53 -21 -88
t-57 -55.5t-81 -29.5t-93 -9h-23zM135 588l149 170h99l101 -170h-90l-97 157h73l-141 -157h-94z" />
    <glyph glyph-name="uni0219" unicode="&#x219;" horiz-adv-x="537" 
d="M204 -10q-62 0 -103.5 17.5t-62 47.5t-20.5 67q0 13 1.5 23.5t2.5 15.5h110q-1 -7 -1.5 -11t-0.5 -9q0 -23 15.5 -37.5t41.5 -20.5t55 -6q23 0 45 4t39.5 12.5t28.5 21.5t11 32q0 25 -22 37.5t-56.5 20t-73 15.5t-73 21.5t-56.5 39.5t-22 69q0 42 17 74t48.5 53.5
t74.5 32.5t95 11h14q40 0 74 -9t59 -25.5t39 -39t14 -49.5q0 -12 -1.5 -21t-3.5 -14h-109q1 4 1.5 8t0.5 7q0 17 -11 29.5t-32.5 19.5t-53.5 7q-31 0 -52.5 -5.5t-35 -15t-20 -20.5t-6.5 -22q0 -22 22 -34t56.5 -20t73.5 -16.5t73.5 -23t56.5 -39.5t22 -66q0 -53 -21 -88
t-57 -55.5t-81 -29.5t-93 -9h-23zM127 -337l2 12q30 29 48 62t22 66h-48l18 127h109l-16 -109q-6 -43 -26 -85t-52 -73h-57z" />
    <glyph glyph-name="uni1E63" unicode="&#x1e63;" horiz-adv-x="537" 
d="M204 -10q-62 0 -103.5 17.5t-62 47.5t-20.5 67q0 13 1.5 23.5t2.5 15.5h110q-1 -7 -1.5 -11t-0.5 -9q0 -23 15.5 -37.5t41.5 -20.5t55 -6q23 0 45 4t39.5 12.5t28.5 21.5t11 32q0 25 -22 37.5t-56.5 20t-73 15.5t-73 21.5t-56.5 39.5t-22 69q0 42 17 74t48.5 53.5
t74.5 32.5t95 11h14q40 0 74 -9t59 -25.5t39 -39t14 -49.5q0 -12 -1.5 -21t-3.5 -14h-109q1 4 1.5 8t0.5 7q0 17 -11 29.5t-32.5 19.5t-53.5 7q-31 0 -52.5 -5.5t-35 -15t-20 -20.5t-6.5 -22q0 -22 22 -34t56.5 -20t73.5 -16.5t73.5 -23t56.5 -39.5t22 -66q0 -53 -21 -88
t-57 -55.5t-81 -29.5t-93 -9h-23zM153 -187l15 109h105l-16 -109h-104z" />
    <glyph glyph-name="germandbls" unicode="&#xdf;" horiz-adv-x="618" 
d="M42 -66l69 490h-59l13 87h58q11 68 46 116.5t89 74.5t121 26q40 0 77 -10t66 -29.5t46 -49t17 -67.5q0 -41 -15.5 -77t-43 -62.5t-63.5 -40.5l1 -5q45 -16 71.5 -58t26.5 -92q0 -70 -35 -123.5t-93.5 -83.5t-130.5 -30h-79l13 87h63q36 0 69 19t54 53t21 78t-30.5 73
t-78.5 29h-62l11 86h57q33 0 62 17t46.5 46.5t17.5 64.5q0 41 -25 64.5t-67 23.5q-53 0 -89 -34t-44 -88l-82 -585h-118z" />
    <glyph glyph-name="longs" unicode="&#x17f;" horiz-adv-x="351" 
d="M-2 -184q-15 0 -32 2.5t-32.5 6.5t-26.5 10l10 79q11 -5 30 -9t30 -4q23 0 41.5 12.5t24.5 52.5l66 458h-59l11 87h60l11 78q7 50 28 80.5t54.5 44.5t75.5 14q15 0 32.5 -2.5t34.5 -6.5t28 -11l-11 -78q-11 5 -29.5 9t-30.5 4q-28 0 -44 -13.5t-22 -54.5l-86 -607
q-11 -81 -55 -116.5t-109 -35.5z" />
    <glyph glyph-name="t" unicode="t" horiz-adv-x="356" 
d="M183 -10q-55 0 -88.5 22t-33.5 77q0 13 4 46t10.5 79.5t14 100.5t15.5 109h-56l12 87h56l62 163h87l-31 -163h119l-12 -87h-119q-12 -80 -21.5 -145t-15 -106.5t-5.5 -51.5q0 -30 15.5 -38t33.5 -8q11 0 31 5t33 10l-11 -82q-12 -5 -29.5 -9.5t-36 -6.5t-34.5 -2z" />
    <glyph glyph-name="tbar" unicode="&#x167;" horiz-adv-x="356" 
d="M183 -10q-55 0 -88.5 22t-33.5 77q0 13 4 46t10.5 79.5t14 100.5t15.5 109h-56l12 87h56l62 163h87l-31 -163h119l-12 -87h-119q-12 -80 -21.5 -145t-15 -106.5t-5.5 -51.5q0 -30 15.5 -38t33.5 -8q11 0 31 5t33 10l-11 -82q-12 -5 -29.5 -9.5t-36 -6.5t-34.5 -2zM22 229
l14 100h294l-13 -100h-295z" />
    <glyph glyph-name="tcaron" unicode="&#x165;" horiz-adv-x="356" 
d="M183 -10q-55 0 -88.5 22t-33.5 77q0 13 4 46t10.5 79.5t14 100.5t15.5 109h-56l12 87h56l62 163h87l-31 -163h119l-12 -87h-119q-12 -80 -21.5 -145t-15 -106.5t-5.5 -51.5q0 -30 15.5 -38t33.5 -8q11 0 31 5t33 10l-11 -82q-12 -5 -29.5 -9.5t-36 -6.5t-34.5 -2z
M320 559l1 12q28 28 45 57.5t22 60.5h-47l17 118h105l-14 -100q-6 -42 -25.5 -80t-48.5 -68h-55z" />
    <glyph glyph-name="uni0163" unicode="&#x163;" horiz-adv-x="356" 
d="M183 -10q-55 0 -88.5 22t-33.5 77q0 13 4 46t10.5 79.5t14 100.5t15.5 109h-56l12 87h56l62 163h87l-31 -163h119l-12 -87h-119q-12 -80 -21.5 -145t-15 -106.5t-5.5 -51.5q0 -30 15.5 -38t33.5 -8q11 0 31 5t33 10l-11 -82q-12 -5 -29.5 -9.5t-36 -6.5t-34.5 -2z
M128 -209q-26 0 -52 5.5t-43 17.5l21 50q9 -8 27 -15t46 -7q16 0 31 5t25 15.5t10 28.5q0 20 -11.5 27.5t-32.5 7.5h-20l7 45h31q35 0 64 -16.5t29 -57.5t-23 -64.5t-53.5 -32.5t-55.5 -9z" />
    <glyph glyph-name="uni021B" unicode="&#x21b;" horiz-adv-x="356" 
d="M183 -10q-55 0 -88.5 22t-33.5 77q0 13 4 46t10.5 79.5t14 100.5t15.5 109h-56l12 87h56l62 163h87l-31 -163h119l-12 -87h-119q-12 -80 -21.5 -145t-15 -106.5t-5.5 -51.5q0 -30 15.5 -38t33.5 -8q11 0 31 5t33 10l-11 -82q-12 -5 -29.5 -9.5t-36 -6.5t-34.5 -2z
M63 -337l2 12q30 29 48 62t22 66h-48l18 127h109l-16 -109q-6 -43 -26 -85t-52 -73h-57z" />
    <glyph glyph-name="uni1E6D" unicode="&#x1e6d;" horiz-adv-x="356" 
d="M183 -10q-55 0 -88.5 22t-33.5 77q0 13 4 46t10.5 79.5t14 100.5t15.5 109h-56l12 87h56l62 163h87l-31 -163h119l-12 -87h-119q-12 -80 -21.5 -145t-15 -106.5t-5.5 -51.5q0 -30 15.5 -38t33.5 -8q11 0 31 5t33 10l-11 -82q-12 -5 -29.5 -9.5t-36 -6.5t-34.5 -2z
M89 -187l15 109h105l-16 -109h-104z" />
    <glyph glyph-name="u" unicode="u" horiz-adv-x="615" 
d="M212 -10q-68 0 -111 34t-43 107q0 29 6 81t16.5 127t24.5 172h118q-16 -117 -25.5 -187t-13.5 -107.5t-4 -57.5q0 -43 19.5 -61.5t56.5 -18.5q36 0 65 18.5t48 49t24 64.5l42 300h118q-9 -63 -16.5 -114t-13.5 -91.5t-10.5 -71.5t-8 -53.5t-5.5 -38t-3 -25.5t-1 -15
q0 -13 8 -19t17 -6q11 0 24.5 4t20.5 8l-10 -79q-8 -4 -30 -12t-54 -8q-47 0 -67.5 21t-22.5 58q-18 -20 -44 -38t-57.5 -29.5t-67.5 -11.5z" />
    <glyph glyph-name="uacute" unicode="&#xfa;" horiz-adv-x="615" 
d="M212 -10q-68 0 -111 34t-43 107q0 29 6 81t16.5 127t24.5 172h118q-16 -117 -25.5 -187t-13.5 -107.5t-4 -57.5q0 -43 19.5 -61.5t56.5 -18.5q36 0 65 18.5t48 49t24 64.5l42 300h118q-9 -63 -16.5 -114t-13.5 -91.5t-10.5 -71.5t-8 -53.5t-5.5 -38t-3 -25.5t-1 -15
q0 -13 8 -19t17 -6q11 0 24.5 4t20.5 8l-10 -79q-8 -4 -30 -12t-54 -8q-47 0 -67.5 21t-22.5 58q-18 -20 -44 -38t-57.5 -29.5t-67.5 -11.5zM292 588l103 171h103l1 -3l-128 -168h-79z" />
    <glyph glyph-name="uni0289" unicode="&#x289;" horiz-adv-x="615" 
d="M18 341h582l-13 -94h-582zM212 -10q-68 0 -111 34t-43 107q0 29 6 81t16.5 127t24.5 172h118q-16 -117 -25.5 -187t-13.5 -107.5t-4 -57.5q0 -43 19.5 -61.5t56.5 -18.5q36 0 65 18.5t48 49t24 64.5l42 300h118q-9 -63 -16.5 -114t-13.5 -91.5t-10.5 -71.5t-8 -53.5
t-5.5 -38t-3 -25.5t-1 -15q0 -13 8 -19t17 -6q11 0 24.5 4t20.5 8l-10 -79q-8 -4 -30 -12t-54 -8q-47 0 -67.5 21t-22.5 58q-18 -20 -44 -38t-57.5 -29.5t-67.5 -11.5z" />
    <glyph glyph-name="ubreve" unicode="&#x16d;" horiz-adv-x="615" 
d="M212 -10q-68 0 -111 34t-43 107q0 29 6 81t16.5 127t24.5 172h118q-16 -117 -25.5 -187t-13.5 -107.5t-4 -57.5q0 -43 19.5 -61.5t56.5 -18.5q36 0 65 18.5t48 49t24 64.5l42 300h118q-9 -63 -16.5 -114t-13.5 -91.5t-10.5 -71.5t-8 -53.5t-5.5 -38t-3 -25.5t-1 -15
q0 -13 8 -19t17 -6q11 0 24.5 4t20.5 8l-10 -79q-8 -4 -30 -12t-54 -8q-47 0 -67.5 21t-22.5 58q-18 -20 -44 -38t-57.5 -29.5t-67.5 -11.5zM335 588q-54 0 -89 19.5t-50.5 52.5t-12.5 74h74q2 -43 23.5 -62t61.5 -19q44 0 70.5 19t42.5 62h73q-8 -41 -33 -74t-65 -52.5
t-95 -19.5z" />
    <glyph glyph-name="uni01D4" unicode="&#x1d4;" horiz-adv-x="615" 
d="M212 -10q-68 0 -111 34t-43 107q0 29 6 81t16.5 127t24.5 172h118q-16 -117 -25.5 -187t-13.5 -107.5t-4 -57.5q0 -43 19.5 -61.5t56.5 -18.5q36 0 65 18.5t48 49t24 64.5l42 300h118q-9 -63 -16.5 -114t-13.5 -91.5t-10.5 -71.5t-8 -53.5t-5.5 -38t-3 -25.5t-1 -15
q0 -13 8 -19t17 -6q11 0 24.5 4t20.5 8l-10 -79q-8 -4 -30 -12t-54 -8q-47 0 -67.5 21t-22.5 58q-18 -20 -44 -38t-57.5 -29.5t-67.5 -11.5zM532 758l-149 -170h-99l-101 170h90l92 -157h-63l136 157h94z" />
    <glyph glyph-name="ucircumflex" unicode="&#xfb;" horiz-adv-x="615" 
d="M212 -10q-68 0 -111 34t-43 107q0 29 6 81t16.5 127t24.5 172h118q-16 -117 -25.5 -187t-13.5 -107.5t-4 -57.5q0 -43 19.5 -61.5t56.5 -18.5q36 0 65 18.5t48 49t24 64.5l42 300h118q-9 -63 -16.5 -114t-13.5 -91.5t-10.5 -71.5t-8 -53.5t-5.5 -38t-3 -25.5t-1 -15
q0 -13 8 -19t17 -6q11 0 24.5 4t20.5 8l-10 -79q-8 -4 -30 -12t-54 -8q-47 0 -67.5 21t-22.5 58q-18 -20 -44 -38t-57.5 -29.5t-67.5 -11.5zM161 588l149 170h99l101 -170h-90l-97 157h73l-141 -157h-94z" />
    <glyph glyph-name="uni0215" unicode="&#x215;" horiz-adv-x="615" 
d="M212 -10q-68 0 -111 34t-43 107q0 29 6 81t16.5 127t24.5 172h118q-16 -117 -25.5 -187t-13.5 -107.5t-4 -57.5q0 -43 19.5 -61.5t56.5 -18.5q36 0 65 18.5t48 49t24 64.5l42 300h118q-9 -63 -16.5 -114t-13.5 -91.5t-10.5 -71.5t-8 -53.5t-5.5 -38t-3 -25.5t-1 -15
q0 -13 8 -19t17 -6q11 0 24.5 4t20.5 8l-10 -79q-8 -4 -30 -12t-54 -8q-47 0 -67.5 21t-22.5 58q-18 -20 -44 -38t-57.5 -29.5t-67.5 -11.5zM389 593l-97 142l1 3h103l74 -145h-81zM219 593l-98 142l2 3h103l73 -145h-80z" />
    <glyph glyph-name="udieresis" unicode="&#xfc;" horiz-adv-x="615" 
d="M212 -10q-68 0 -111 34t-43 107q0 29 6 81t16.5 127t24.5 172h118q-16 -117 -25.5 -187t-13.5 -107.5t-4 -57.5q0 -43 19.5 -61.5t56.5 -18.5q36 0 65 18.5t48 49t24 64.5l42 300h118q-9 -63 -16.5 -114t-13.5 -91.5t-10.5 -71.5t-8 -53.5t-5.5 -38t-3 -25.5t-1 -15
q0 -13 8 -19t17 -6q11 0 24.5 4t20.5 8l-10 -79q-8 -4 -30 -12t-54 -8q-47 0 -67.5 21t-22.5 58q-18 -20 -44 -38t-57.5 -29.5t-67.5 -11.5zM153 608l16 115h128l-16 -115h-128zM395 608l16 115h128l-16 -115h-128z" />
    <glyph glyph-name="uni01D8" unicode="&#x1d8;" horiz-adv-x="615" 
d="M212 -10q-68 0 -111 34t-43 107q0 29 6 81t16.5 127t24.5 172h118q-16 -117 -25.5 -187t-13.5 -107.5t-4 -57.5q0 -43 19.5 -61.5t56.5 -18.5q36 0 65 18.5t48 49t24 64.5l42 300h118q-9 -63 -16.5 -114t-13.5 -91.5t-10.5 -71.5t-8 -53.5t-5.5 -38t-3 -25.5t-1 -15
q0 -13 8 -19t17 -6q11 0 24.5 4t20.5 8l-10 -79q-8 -4 -30 -12t-54 -8q-47 0 -67.5 21t-22.5 58q-18 -20 -44 -38t-57.5 -29.5t-67.5 -11.5zM323 760l114 145h103l1 -3l-138 -142h-80zM190 615l14 103h104l-14 -103h-104zM386 615l14 103h103l-14 -103h-103z" />
    <glyph glyph-name="uni01DA" unicode="&#x1da;" horiz-adv-x="615" 
d="M212 -10q-68 0 -111 34t-43 107q0 29 6 81t16.5 127t24.5 172h118q-16 -117 -25.5 -187t-13.5 -107.5t-4 -57.5q0 -43 19.5 -61.5t56.5 -18.5q36 0 65 18.5t48 49t24 64.5l42 300h118q-9 -63 -16.5 -114t-13.5 -91.5t-10.5 -71.5t-8 -53.5t-5.5 -38t-3 -25.5t-1 -15
q0 -13 8 -19t17 -6q11 0 24.5 4t20.5 8l-10 -79q-8 -4 -30 -12t-54 -8q-47 0 -67.5 21t-22.5 58q-18 -20 -44 -38t-57.5 -29.5t-67.5 -11.5zM316 760l-116 145h90l78 -88l102 88h92l-157 -145h-89zM190 615l14 103h104l-14 -103h-104zM386 615l14 103h103l-14 -103h-103z
" />
    <glyph glyph-name="uni01DC" unicode="&#x1dc;" horiz-adv-x="615" 
d="M212 -10q-68 0 -111 34t-43 107q0 29 6 81t16.5 127t24.5 172h118q-16 -117 -25.5 -187t-13.5 -107.5t-4 -57.5q0 -43 19.5 -61.5t56.5 -18.5q36 0 65 18.5t48 49t24 64.5l42 300h118q-9 -63 -16.5 -114t-13.5 -91.5t-10.5 -71.5t-8 -53.5t-5.5 -38t-3 -25.5t-1 -15
q0 -13 8 -19t17 -6q11 0 24.5 4t20.5 8l-10 -79q-8 -4 -30 -12t-54 -8q-47 0 -67.5 21t-22.5 58q-18 -20 -44 -38t-57.5 -29.5t-67.5 -11.5zM316 760l-98 142l1 3h104l73 -145h-80zM190 615l14 103h104l-14 -103h-104zM386 615l14 103h103l-14 -103h-103z" />
    <glyph glyph-name="uni01D6" unicode="&#x1d6;" horiz-adv-x="615" 
d="M212 -10q-68 0 -111 34t-43 107q0 29 6 81t16.5 127t24.5 172h118q-16 -117 -25.5 -187t-13.5 -107.5t-4 -57.5q0 -43 19.5 -61.5t56.5 -18.5q36 0 65 18.5t48 49t24 64.5l42 300h118q-9 -63 -16.5 -114t-13.5 -91.5t-10.5 -71.5t-8 -53.5t-5.5 -38t-3 -25.5t-1 -15
q0 -13 8 -19t17 -6q11 0 24.5 4t20.5 8l-10 -79q-8 -4 -30 -12t-54 -8q-47 0 -67.5 21t-22.5 58q-18 -20 -44 -38t-57.5 -29.5t-67.5 -11.5zM206 760l10 71h307l-10 -71h-307zM190 615l14 103h104l-14 -103h-104zM386 615l14 103h103l-14 -103h-103z" />
    <glyph glyph-name="uni1EE5" unicode="&#x1ee5;" horiz-adv-x="615" 
d="M212 -10q-68 0 -111 34t-43 107q0 29 6 81t16.5 127t24.5 172h118q-16 -117 -25.5 -187t-13.5 -107.5t-4 -57.5q0 -43 19.5 -61.5t56.5 -18.5q36 0 65 18.5t48 49t24 64.5l42 300h118q-9 -63 -16.5 -114t-13.5 -91.5t-10.5 -71.5t-8 -53.5t-5.5 -38t-3 -25.5t-1 -15
q0 -13 8 -19t17 -6q11 0 24.5 4t20.5 8l-10 -79q-8 -4 -30 -12t-54 -8q-47 0 -67.5 21t-22.5 58q-18 -20 -44 -38t-57.5 -29.5t-67.5 -11.5zM189 -187l15 109h105l-16 -109h-104z" />
    <glyph glyph-name="ugrave" unicode="&#xf9;" horiz-adv-x="615" 
d="M212 -10q-68 0 -111 34t-43 107q0 29 6 81t16.5 127t24.5 172h118q-16 -117 -25.5 -187t-13.5 -107.5t-4 -57.5q0 -43 19.5 -61.5t56.5 -18.5q36 0 65 18.5t48 49t24 64.5l42 300h118q-9 -63 -16.5 -114t-13.5 -91.5t-10.5 -71.5t-8 -53.5t-5.5 -38t-3 -25.5t-1 -15
q0 -13 8 -19t17 -6q11 0 24.5 4t20.5 8l-10 -79q-8 -4 -30 -12t-54 -8q-47 0 -67.5 21t-22.5 58q-18 -20 -44 -38t-57.5 -29.5t-67.5 -11.5zM280 588l-80 168l1 3h98l55 -171h-74z" />
    <glyph glyph-name="uni1EE7" unicode="&#x1ee7;" horiz-adv-x="615" 
d="M212 -10q-68 0 -111 34t-43 107q0 29 6 81t16.5 127t24.5 172h118q-16 -117 -25.5 -187t-13.5 -107.5t-4 -57.5q0 -43 19.5 -61.5t56.5 -18.5q36 0 65 18.5t48 49t24 64.5l42 300h118q-9 -63 -16.5 -114t-13.5 -91.5t-10.5 -71.5t-8 -53.5t-5.5 -38t-3 -25.5t-1 -15
q0 -13 8 -19t17 -6q11 0 24.5 4t20.5 8l-10 -79q-8 -4 -30 -12t-54 -8q-47 0 -67.5 21t-22.5 58q-18 -20 -44 -38t-57.5 -29.5t-67.5 -11.5zM318 572l8 59q35 3 55 19t20 43q0 17 -12.5 26t-34.5 9q-13 0 -30 -3t-37 -9l10 73q20 6 38.5 8.5t34.5 2.5q47 0 75.5 -22
t28.5 -64q0 -39 -23 -70.5t-58.5 -50.5t-74.5 -21z" />
    <glyph glyph-name="uhorn" unicode="&#x1b0;" horiz-adv-x="615" 
d="M212 -10q-68 0 -111 34t-43 107q0 29 6 81t16.5 127t24.5 172h118q-16 -117 -25.5 -187t-13.5 -107.5t-4 -57.5q0 -43 19.5 -61.5t56.5 -18.5q36 0 65 18.5t48 49t24 64.5l42 300h118q-9 -63 -16.5 -114t-13.5 -91.5t-10.5 -71.5t-8 -53.5t-5.5 -38t-3 -25.5t-1 -15
q0 -13 8 -19t17 -6q11 0 24.5 4t20.5 8l-10 -79q-8 -4 -30 -12t-54 -8q-47 0 -67.5 21t-22.5 58q-18 -20 -44 -38t-57.5 -29.5t-67.5 -11.5zM446 440l10 71q50 8 74.5 41t33.5 97h106q-7 -50 -37.5 -95.5t-78.5 -76.5t-108 -37z" />
    <glyph glyph-name="uni1EE9" unicode="&#x1ee9;" horiz-adv-x="615" 
d="M212 -10q-68 0 -111 34t-43 107q0 29 6 81t16.5 127t24.5 172h118q-16 -117 -25.5 -187t-13.5 -107.5t-4 -57.5q0 -43 19.5 -61.5t56.5 -18.5q36 0 65 18.5t48 49t24 64.5l42 300h118q-9 -63 -16.5 -114t-13.5 -91.5t-10.5 -71.5t-8 -53.5t-5.5 -38t-3 -25.5t-1 -15
q0 -13 8 -19t17 -6q11 0 24.5 4t20.5 8l-10 -79q-8 -4 -30 -12t-54 -8q-47 0 -67.5 21t-22.5 58q-18 -20 -44 -38t-57.5 -29.5t-67.5 -11.5zM446 440l10 71q50 8 74.5 41t33.5 97h106q-7 -50 -37.5 -95.5t-78.5 -76.5t-108 -37zM292 588l103 171h103l1 -3l-128 -168h-79z
" />
    <glyph glyph-name="uni1EF1" unicode="&#x1ef1;" horiz-adv-x="615" 
d="M212 -10q-68 0 -111 34t-43 107q0 29 6 81t16.5 127t24.5 172h118q-16 -117 -25.5 -187t-13.5 -107.5t-4 -57.5q0 -43 19.5 -61.5t56.5 -18.5q36 0 65 18.5t48 49t24 64.5l42 300h118q-9 -63 -16.5 -114t-13.5 -91.5t-10.5 -71.5t-8 -53.5t-5.5 -38t-3 -25.5t-1 -15
q0 -13 8 -19t17 -6q11 0 24.5 4t20.5 8l-10 -79q-8 -4 -30 -12t-54 -8q-47 0 -67.5 21t-22.5 58q-18 -20 -44 -38t-57.5 -29.5t-67.5 -11.5zM446 440l10 71q50 8 74.5 41t33.5 97h106q-7 -50 -37.5 -95.5t-78.5 -76.5t-108 -37zM189 -187l15 109h105l-16 -109h-104z" />
    <glyph glyph-name="uni1EEB" unicode="&#x1eeb;" horiz-adv-x="615" 
d="M212 -10q-68 0 -111 34t-43 107q0 29 6 81t16.5 127t24.5 172h118q-16 -117 -25.5 -187t-13.5 -107.5t-4 -57.5q0 -43 19.5 -61.5t56.5 -18.5q36 0 65 18.5t48 49t24 64.5l42 300h118q-9 -63 -16.5 -114t-13.5 -91.5t-10.5 -71.5t-8 -53.5t-5.5 -38t-3 -25.5t-1 -15
q0 -13 8 -19t17 -6q11 0 24.5 4t20.5 8l-10 -79q-8 -4 -30 -12t-54 -8q-47 0 -67.5 21t-22.5 58q-18 -20 -44 -38t-57.5 -29.5t-67.5 -11.5zM446 440l10 71q50 8 74.5 41t33.5 97h106q-7 -50 -37.5 -95.5t-78.5 -76.5t-108 -37zM280 588l-80 168l1 3h98l55 -171h-74z" />
    <glyph glyph-name="uni1EED" unicode="&#x1eed;" horiz-adv-x="615" 
d="M212 -10q-68 0 -111 34t-43 107q0 29 6 81t16.5 127t24.5 172h118q-16 -117 -25.5 -187t-13.5 -107.5t-4 -57.5q0 -43 19.5 -61.5t56.5 -18.5q36 0 65 18.5t48 49t24 64.5l42 300h118q-9 -63 -16.5 -114t-13.5 -91.5t-10.5 -71.5t-8 -53.5t-5.5 -38t-3 -25.5t-1 -15
q0 -13 8 -19t17 -6q11 0 24.5 4t20.5 8l-10 -79q-8 -4 -30 -12t-54 -8q-47 0 -67.5 21t-22.5 58q-18 -20 -44 -38t-57.5 -29.5t-67.5 -11.5zM446 440l10 71q50 8 74.5 41t33.5 97h106q-7 -50 -37.5 -95.5t-78.5 -76.5t-108 -37zM318 572l8 59q35 3 55 19t20 43
q0 17 -12.5 26t-34.5 9q-13 0 -30 -3t-37 -9l10 73q20 6 38.5 8.5t34.5 2.5q47 0 75.5 -22t28.5 -64q0 -39 -23 -70.5t-58.5 -50.5t-74.5 -21z" />
    <glyph glyph-name="uni1EEF" unicode="&#x1eef;" horiz-adv-x="615" 
d="M212 -10q-68 0 -113.5 33t-45.5 105q0 16 7 70.5t19 136t26 176.5h118q-17 -113 -27.5 -186.5t-15.5 -113t-5 -52.5q0 -43 22.5 -61.5t59.5 -18.5q31 0 59.5 16.5t49.5 44.5t26 62l43 309h118q-9 -63 -16.5 -114t-13.5 -91.5t-10.5 -71.5t-8 -53.5t-5.5 -38t-3 -25.5
t-1 -15q0 -13 8 -19t17 -6q11 0 24.5 4t20.5 8l-10 -79q-8 -4 -30 -12t-54 -8q-47 0 -67.5 21t-22.5 58q-18 -20 -44 -38t-57.5 -29.5t-67.5 -11.5zM137 604q4 28 22 53.5t46.5 42.5t65.5 17q31 0 60 -9t55.5 -18t49.5 -9q21 0 36.5 9.5t22.5 26.5h57q-4 -29 -22 -55
t-47 -42t-65 -16q-24 0 -45.5 5.5t-41 12.5t-38.5 12.5t-40 5.5q-22 0 -36 -9.5t-22 -26.5h-58zM446 440l10 71q50 8 74.5 41t33.5 97h106q-7 -50 -37.5 -95.5t-78.5 -76.5t-108 -37z" />
    <glyph glyph-name="uhungarumlaut" unicode="&#x171;" horiz-adv-x="615" 
d="M212 -10q-68 0 -111 34t-43 107q0 29 6 81t16.5 127t24.5 172h118q-16 -117 -25.5 -187t-13.5 -107.5t-4 -57.5q0 -43 19.5 -61.5t56.5 -18.5q36 0 65 18.5t48 49t24 64.5l42 300h118q-9 -63 -16.5 -114t-13.5 -91.5t-10.5 -71.5t-8 -53.5t-5.5 -38t-3 -25.5t-1 -15
q0 -13 8 -19t17 -6q11 0 24.5 4t20.5 8l-10 -79q-8 -4 -30 -12t-54 -8q-47 0 -67.5 21t-22.5 58q-18 -20 -44 -38t-57.5 -29.5t-67.5 -11.5zM373 594l114 145h102l2 -3l-138 -142h-80zM202 594l114 145h103l1 -3l-137 -142h-81z" />
    <glyph glyph-name="uni0217" unicode="&#x217;" horiz-adv-x="615" 
d="M212 -10q-68 0 -111 34t-43 107q0 29 6 81t16.5 127t24.5 172h118q-16 -117 -25.5 -187t-13.5 -107.5t-4 -57.5q0 -43 19.5 -61.5t56.5 -18.5q36 0 65 18.5t48 49t24 64.5l42 300h118q-9 -63 -16.5 -114t-13.5 -91.5t-10.5 -71.5t-8 -53.5t-5.5 -38t-3 -25.5t-1 -15
q0 -13 8 -19t17 -6q11 0 24.5 4t20.5 8l-10 -79q-8 -4 -30 -12t-54 -8q-47 0 -67.5 21t-22.5 58q-18 -20 -44 -38t-57.5 -29.5t-67.5 -11.5zM155 603q5 35 30.5 63.5t68 45.5t99.5 17q59 0 97.5 -17t56.5 -45.5t13 -63.5h-74q-4 32 -28 46.5t-71 14.5q-46 0 -75.5 -14.5
t-43.5 -46.5h-73z" />
    <glyph glyph-name="umacron" unicode="&#x16b;" horiz-adv-x="615" 
d="M212 -10q-68 0 -111 34t-43 107q0 29 6 81t16.5 127t24.5 172h118q-16 -117 -25.5 -187t-13.5 -107.5t-4 -57.5q0 -43 19.5 -61.5t56.5 -18.5q36 0 65 18.5t48 49t24 64.5l42 300h118q-9 -63 -16.5 -114t-13.5 -91.5t-10.5 -71.5t-8 -53.5t-5.5 -38t-3 -25.5t-1 -15
q0 -13 8 -19t17 -6q11 0 24.5 4t20.5 8l-10 -79q-8 -4 -30 -12t-54 -8q-47 0 -67.5 21t-22.5 58q-18 -20 -44 -38t-57.5 -29.5t-67.5 -11.5zM180 619l10 66h319l-10 -66h-319z" />
    <glyph glyph-name="uogonek" unicode="&#x173;" horiz-adv-x="615" 
d="M212 -10q-68 0 -111 34t-43 107q0 29 6 81t16.5 127t24.5 172h118q-16 -117 -25.5 -187t-13.5 -107.5t-4 -57.5q0 -43 19.5 -61.5t56.5 -18.5q36 0 65 18.5t48 49t24 64.5l42 300h118q-9 -63 -16.5 -114t-13.5 -91.5t-10.5 -71.5t-8 -53.5t-5.5 -38t-3 -25.5t-1 -15
q0 -13 8 -19t17 -6q11 0 24.5 4t20.5 8l-10 -79q-8 -4 -30 -12t-54 -8q-47 0 -67.5 21t-22.5 58q-18 -20 -44 -38t-57.5 -29.5t-67.5 -11.5zM496 -143q-32 0 -60 13.5t-28 47.5q0 28 18.5 49.5t40.5 32.5h65q-25 -13 -40 -29t-15 -36q0 -17 12.5 -24t26.5 -7q17 0 35 4.5
t34 9.5l7 -37q-23 -12 -47 -18t-49 -6z" />
    <glyph glyph-name="uring" unicode="&#x16f;" horiz-adv-x="615" 
d="M212 -10q-68 0 -111 34t-43 107q0 29 6 81t16.5 127t24.5 172h118q-16 -117 -25.5 -187t-13.5 -107.5t-4 -57.5q0 -43 19.5 -61.5t56.5 -18.5q36 0 65 18.5t48 49t24 64.5l42 300h118q-9 -63 -16.5 -114t-13.5 -91.5t-10.5 -71.5t-8 -53.5t-5.5 -38t-3 -25.5t-1 -15
q0 -13 8 -19t17 -6q11 0 24.5 4t20.5 8l-10 -79q-8 -4 -30 -12t-54 -8q-47 0 -67.5 21t-22.5 58q-18 -20 -44 -38t-57.5 -29.5t-67.5 -11.5zM332 586q-39 0 -62.5 23t-23.5 60q0 33 16.5 60t43.5 42.5t58 15.5q39 0 62.5 -23t23.5 -60q0 -33 -16.5 -60t-43 -42.5
t-58.5 -15.5zM341 638q24 0 39 17.5t15 39.5q0 17 -10.5 28.5t-29.5 11.5q-24 0 -39 -17t-15 -40q0 -17 10.5 -28.5t29.5 -11.5z" />
    <glyph glyph-name="utilde" unicode="&#x169;" horiz-adv-x="615" 
d="M212 -10q-68 0 -111 34t-43 107q0 29 6 81t16.5 127t24.5 172h118q-16 -117 -25.5 -187t-13.5 -107.5t-4 -57.5q0 -43 19.5 -61.5t56.5 -18.5q36 0 65 18.5t48 49t24 64.5l42 300h118q-9 -63 -16.5 -114t-13.5 -91.5t-10.5 -71.5t-8 -53.5t-5.5 -38t-3 -25.5t-1 -15
q0 -13 8 -19t17 -6q11 0 24.5 4t20.5 8l-10 -79q-8 -4 -30 -12t-54 -8q-47 0 -67.5 21t-22.5 58q-18 -20 -44 -38t-57.5 -29.5t-67.5 -11.5zM147 600q6 33 22 64.5t42 51.5t63 20q38 0 63 -13.5t44.5 -27.5t41.5 -14q24 0 39 14.5t24 41.5h56q-5 -32 -21 -63.5t-42 -52
t-63 -20.5q-38 0 -64 14t-46 28t-43 14q-21 0 -34.5 -14t-24.5 -43h-57z" />
    <glyph glyph-name="v" unicode="v" horiz-adv-x="523" 
d="M158 0l-116 511h118l80 -379h4l187 379h115l-258 -511h-130z" />
    <glyph glyph-name="w" unicode="w" horiz-adv-x="814" 
d="M137 0l-91 511h118l58 -352h5l157 352h117l55 -352h5l156 352h115l-233 -511h-127l-57 324h-5l-145 -324h-128z" />
    <glyph glyph-name="wacute" unicode="&#x1e83;" horiz-adv-x="814" 
d="M137 0l-91 511h118l58 -352h5l157 352h117l55 -352h5l156 352h115l-233 -511h-127l-57 324h-5l-145 -324h-128zM406 588l103 171h103l1 -3l-128 -168h-79z" />
    <glyph glyph-name="wcircumflex" unicode="&#x175;" horiz-adv-x="814" 
d="M137 0l-91 511h118l58 -352h5l157 352h117l55 -352h5l156 352h115l-233 -511h-127l-57 324h-5l-145 -324h-128zM275 588l149 170h99l101 -170h-90l-97 157h73l-141 -157h-94z" />
    <glyph glyph-name="wdieresis" unicode="&#x1e85;" horiz-adv-x="814" 
d="M137 0l-91 511h118l58 -352h5l157 352h117l55 -352h5l156 352h115l-233 -511h-127l-57 324h-5l-145 -324h-128zM267 608l16 115h128l-16 -115h-128zM509 608l16 115h128l-16 -115h-128z" />
    <glyph glyph-name="wgrave" unicode="&#x1e81;" horiz-adv-x="814" 
d="M137 0l-91 511h118l58 -352h5l157 352h117l55 -352h5l156 352h115l-233 -511h-127l-57 324h-5l-145 -324h-128zM394 588l-80 168l1 3h98l55 -171h-74z" />
    <glyph glyph-name="x" unicode="x" horiz-adv-x="534" 
d="M-26 0l220 261l-137 250h138l85 -161h4l132 161h128l-207 -246l146 -265h-139l-94 176h-4l-144 -176h-128z" />
    <glyph glyph-name="y" unicode="y" horiz-adv-x="522" 
d="M64 -186q-24 0 -43.5 3.5t-33.5 10.5l12 89q10 -5 27.5 -9.5t33.5 -4.5q17 0 36.5 9t40.5 33.5t39 68.5l-128 497h125l81 -351h5l177 351h116l-255 -487q-30 -58 -65 -105.5t-76.5 -76t-91.5 -28.5z" />
    <glyph glyph-name="yacute" unicode="&#xfd;" horiz-adv-x="522" 
d="M64 -186q-24 0 -43.5 3.5t-33.5 10.5l12 89q10 -5 27.5 -9.5t33.5 -4.5q17 0 36.5 9t40.5 33.5t39 68.5l-128 497h125l81 -351h5l177 351h116l-255 -487q-30 -58 -65 -105.5t-76.5 -76t-91.5 -28.5zM255 588l103 171h103l1 -3l-128 -168h-79z" />
    <glyph glyph-name="ycircumflex" unicode="&#x177;" horiz-adv-x="522" 
d="M64 -186q-24 0 -43.5 3.5t-33.5 10.5l12 89q10 -5 27.5 -9.5t33.5 -4.5q17 0 36.5 9t40.5 33.5t39 68.5l-128 497h125l81 -351h5l177 351h116l-255 -487q-30 -58 -65 -105.5t-76.5 -76t-91.5 -28.5zM124 588l149 170h99l101 -170h-90l-97 157h73l-141 -157h-94z" />
    <glyph glyph-name="ydieresis" unicode="&#xff;" horiz-adv-x="522" 
d="M64 -186q-24 0 -43.5 3.5t-33.5 10.5l12 89q10 -5 27.5 -9.5t33.5 -4.5q17 0 36.5 9t40.5 33.5t39 68.5l-128 497h125l81 -351h5l177 351h116l-255 -487q-30 -58 -65 -105.5t-76.5 -76t-91.5 -28.5zM116 608l16 115h128l-16 -115h-128zM358 608l16 115h128l-16 -115h-128
z" />
    <glyph glyph-name="uni1EF5" unicode="&#x1ef5;" horiz-adv-x="522" 
d="M64 -186q-24 0 -43.5 3.5t-33.5 10.5l12 89q10 -5 27.5 -9.5t33.5 -4.5q17 0 36.5 9t40.5 33.5t39 68.5l-128 497h125l81 -351h5l177 351h116l-255 -487q-30 -58 -65 -105.5t-76.5 -76t-91.5 -28.5zM282 -178l15 109h105l-16 -109h-104z" />
    <glyph glyph-name="ygrave" unicode="&#x1ef3;" horiz-adv-x="522" 
d="M64 -186q-24 0 -43.5 3.5t-33.5 10.5l12 89q10 -5 27.5 -9.5t33.5 -4.5q17 0 36.5 9t40.5 33.5t39 68.5l-128 497h125l81 -351h5l177 351h116l-255 -487q-30 -58 -65 -105.5t-76.5 -76t-91.5 -28.5zM243 588l-80 168l1 3h98l55 -171h-74z" />
    <glyph glyph-name="uni1EF7" unicode="&#x1ef7;" horiz-adv-x="522" 
d="M64 -186q-24 0 -43.5 3.5t-33.5 10.5l12 89q10 -5 27.5 -9.5t33.5 -4.5q17 0 36.5 9t40.5 33.5t39 68.5l-128 497h125l81 -351h5l177 351h116l-255 -487q-30 -58 -65 -105.5t-76.5 -76t-91.5 -28.5zM281 572l8 59q35 3 55 19t20 43q0 17 -12.5 26t-34.5 9q-13 0 -30 -3
t-37 -9l10 73q20 6 38.5 8.5t34.5 2.5q47 0 75.5 -22t28.5 -64q0 -39 -23 -70.5t-58.5 -50.5t-74.5 -21z" />
    <glyph glyph-name="uni0233" unicode="&#x233;" horiz-adv-x="522" 
d="M64 -186q-24 0 -43.5 3.5t-33.5 10.5l12 89q10 -5 27.5 -9.5t33.5 -4.5q17 0 36.5 9t40.5 33.5t39 68.5l-128 497h125l81 -351h5l177 351h116l-255 -487q-30 -58 -65 -105.5t-76.5 -76t-91.5 -28.5zM143 619l10 66h319l-10 -66h-319z" />
    <glyph glyph-name="uni1EF9" unicode="&#x1ef9;" horiz-adv-x="522" 
d="M64 -186q-24 0 -43.5 3.5t-33.5 10.5l12 89q10 -5 27.5 -9.5t33.5 -4.5q17 0 36.5 9t40.5 33.5t39 68.5l-128 497h125l81 -351h5l177 351h116l-255 -487q-30 -58 -65 -105.5t-76.5 -76t-91.5 -28.5zM110 600q6 33 22 64.5t42 51.5t63 20q38 0 63 -13.5t44.5 -27.5
t41.5 -14q24 0 39 14.5t24 41.5h56q-5 -32 -21 -63.5t-42 -52t-63 -20.5q-38 0 -64 14t-46 28t-43 14q-21 0 -34.5 -14t-24.5 -43h-57z" />
    <glyph glyph-name="z" unicode="z" horiz-adv-x="474" 
d="M-2 0l6 44l288 380h-221l12 87h380l-6 -43l-289 -381h243l-11 -87h-402z" />
    <glyph glyph-name="zacute" unicode="&#x17a;" horiz-adv-x="474" 
d="M-2 0l6 44l288 380h-221l12 87h380l-6 -43l-289 -381h243l-11 -87h-402zM236 588l103 171h103l1 -3l-128 -168h-79z" />
    <glyph glyph-name="zcaron" unicode="&#x17e;" horiz-adv-x="474" 
d="M-2 0l6 44l288 380h-221l12 87h380l-6 -43l-289 -381h243l-11 -87h-402zM476 758l-149 -170h-99l-101 170h90l92 -157h-63l136 157h94z" />
    <glyph glyph-name="zdotaccent" unicode="&#x17c;" horiz-adv-x="474" 
d="M-2 0l6 44l288 380h-221l12 87h380l-6 -43l-289 -381h243l-11 -87h-402zM217 614l14 105h130l-14 -105h-130z" />
    <glyph glyph-name="cacute.loclPLK" horiz-adv-x="556" 
d="M243 -10q-61 0 -107 24.5t-71.5 70t-25.5 109.5q0 66 15.5 125.5t48.5 104.5t84.5 71t122.5 26h12q55 0 98.5 -21t69.5 -60.5t26 -95.5v-17t-2 -18h-117q1 7 1.5 13.5t0.5 13.5q0 44 -22.5 71t-69.5 27q-40 0 -68.5 -16t-45.5 -46t-24 -72q-5 -33 -8 -60.5t-3 -44.5
q0 -48 23 -83t77 -35q37 0 64 15t43.5 43t21.5 66h112q-10 -70 -44 -117t-85.5 -70.5t-114.5 -23.5h-12zM274 575l53 145h108l1 -3l-78 -142h-84z" />
    <glyph glyph-name="nacute.loclPLK" horiz-adv-x="595" 
d="M36 0l72 511h88l2 -75q24 27 52 46t60.5 29t67.5 10q68 0 113 -33.5t45 -104.5q0 -6 -1 -18t-4 -35t-9 -64.5t-15 -106t-23 -159.5h-118q13 89 21.5 149t13.5 97.5t8 58t4 30t1 14.5q0 41 -22.5 62t-59.5 21q-31 0 -60 -16.5t-49.5 -44t-25.5 -62.5l-43 -309h-118z
M302 575l53 145h108l1 -3l-78 -142h-84z" />
    <glyph glyph-name="oacute.loclPLK" horiz-adv-x="588" 
d="M250 -10q-60 0 -107.5 23.5t-75.5 68.5t-28 112q0 66 16.5 125.5t51 104.5t88 71t126.5 26h10q60 0 107.5 -23.5t75.5 -68.5t28 -112q0 -66 -16.5 -125.5t-51 -104.5t-87.5 -71t-127 -26h-10zM268 77q38 0 68 16t50 46.5t26 71.5q5 33 8 60.5t3 44.5q0 55 -28 86.5
t-82 31.5q-38 0 -68 -16t-49.5 -46t-26.5 -72q-5 -33 -8 -60.5t-3 -44.5q0 -55 28.5 -86.5t81.5 -31.5zM288 575l53 145h108l1 -3l-78 -142h-84z" />
    <glyph glyph-name="sacute.loclPLK" horiz-adv-x="537" 
d="M204 -10q-62 0 -103.5 17.5t-62 47.5t-20.5 67q0 13 1.5 23.5t2.5 15.5h110q-1 -7 -1.5 -11t-0.5 -9q0 -23 15.5 -37.5t41.5 -20.5t55 -6q23 0 45 4t39.5 12.5t28.5 21.5t11 32q0 25 -22 37.5t-56.5 20t-73 15.5t-73 21.5t-56.5 39.5t-22 69q0 42 17 74t48.5 53.5
t74.5 32.5t95 11h14q40 0 74 -9t59 -25.5t39 -39t14 -49.5q0 -12 -1.5 -21t-3.5 -14h-109q1 4 1.5 8t0.5 7q0 17 -11 29.5t-32.5 19.5t-53.5 7q-31 0 -52.5 -5.5t-35 -15t-20 -20.5t-6.5 -22q0 -22 22 -34t56.5 -20t73.5 -16.5t73.5 -23t56.5 -39.5t22 -66q0 -53 -21 -88
t-57 -55.5t-81 -29.5t-93 -9h-23zM267 575l53 145h108l1 -3l-78 -142h-84z" />
    <glyph glyph-name="zacute.loclPLK" horiz-adv-x="474" 
d="M-2 0l6 44l288 380h-221l12 87h380l-6 -43l-289 -381h243l-11 -87h-402zM237 575l53 145h108l1 -3l-78 -142h-84z" />
    <glyph glyph-name="uni207F" unicode="&#x207f;" horiz-adv-x="351" 
d="M60 379l43 310h53l2 -45q21 23 48 37.5t61 14.5q42 0 69 -21t27 -63q0 -5 -1 -14.5t-4 -32.5t-9 -67.5t-17 -118.5h-72q9 61 14.5 101t9 63t4.5 34t1 14q0 26 -13.5 38.5t-36.5 12.5q-28 0 -52.5 -22t-28.5 -53l-26 -188h-72z" />
    <glyph glyph-name="ordfeminine" unicode="&#xaa;" horiz-adv-x="405" 
d="M178 373q-48 0 -76.5 31t-28.5 91q0 45 11 82t30.5 63.5t46.5 41t58 14.5t53 -12.5t33 -32.5h5l19 39h51q-3 -21 -6.5 -47t-7.5 -53.5t-7.5 -53t-6.5 -46.5t-4.5 -33.5t-1.5 -14.5q0 -16 15 -16q6 0 14 2.5t13 5.5l-6 -48q-8 -4 -21 -8.5t-30 -4.5q-28 0 -41 13t-14 33
q-19 -21 -43 -33.5t-55 -12.5zM202 426q33 0 52.5 22t28 56t8.5 69q0 38 -16.5 53.5t-42.5 15.5q-35 0 -54.5 -24.5t-26.5 -59t-7 -64.5q0 -37 16 -52.5t42 -15.5z" />
    <glyph glyph-name="ordmasculine" unicode="&#xba;" horiz-adv-x="380" 
d="M186 373q-58 0 -94 31t-36 92q0 55 18 100t57 72.5t100 27.5q57 0 93.5 -30.5t36.5 -92.5q0 -54 -18 -99.5t-56.5 -73t-100.5 -27.5zM193 426q38 0 59 22.5t29 56.5t8 66q0 38 -18.5 55t-46.5 17q-38 0 -59 -22.5t-29 -55.5t-8 -67q0 -37 18.5 -54.5t46.5 -17.5z" />
    <glyph glyph-name="uni0394" unicode="&#x394;" horiz-adv-x="647" 
d="M-2 0l10 71l318 615h112l145 -615l-10 -71h-575zM111 83h373l-117 497z" />
    <glyph glyph-name="uni03A9" unicode="&#x3a9;" horiz-adv-x="711" 
d="M-3 0l13 107h30l90 -13q-33 33 -51 78t-18 107q0 98 24.5 175t69.5 131t106 82t134 28h26q69 0 124 -27.5t86.5 -82.5t31.5 -140q0 -60 -9.5 -112t-28 -95.5t-45.5 -79.5t-62 -64l92 13h29l-14 -107h-273l8 57q47 11 77 39t48.5 76.5t28.5 120.5q6 41 9.5 67t5 41.5t2 25
t0.5 16.5q0 54 -16 87t-46.5 47.5t-74.5 14.5q-42 0 -74 -12.5t-55.5 -38.5t-39 -66.5t-23.5 -96.5q-8 -59 -12.5 -92t-6 -50.5t-1.5 -30.5q0 -43 10 -73.5t31.5 -48.5t54.5 -26l-8 -57h-273z" />
    <glyph glyph-name="uni03BC" unicode="&#x3bc;" horiz-adv-x="612" 
d="M17 -161l95 672h118q-13 -86 -21.5 -145.5t-13.5 -97.5t-7.5 -60t-3.5 -32t-1 -14q0 -41 22 -62t59 -21q31 0 59.5 16.5t49.5 44.5t26 62l43 309h118q-15 -105 -26 -180.5t-18 -124.5t-10 -74t-3 -30q0 -13 7.5 -19t17.5 -6q11 0 24.5 4t19.5 8l-11 -79q-7 -4 -29 -12
t-54 -8q-48 0 -68 21t-21 58q-28 -30 -72 -54.5t-98 -24.5q-19 0 -36.5 3t-31.5 10q2 -10 2.5 -23t-1.5 -24l-17 -117h-118z" />
    <glyph glyph-name="pi" unicode="&#x3c0;" horiz-adv-x="651" 
d="M41 0q19 39 38.5 93t37.5 113.5t32 116.5t21 102q-44 0 -71.5 -3t-47.5 -9l-4 67q22 15 64 23t112 8h439l-23 -86h-84q-12 -86 -20.5 -145.5t-13.5 -98.5t-8 -63.5t-4 -41t-1 -31.5q0 -13 0.5 -24.5t1.5 -20.5h-112q-3 5 -4.5 16.5t-1.5 27.5q0 13 1.5 30t4.5 42.5
t8.5 65.5t13.5 99.5t20 143.5h-156q-7 -37 -18 -83t-24.5 -95t-28.5 -96t-30.5 -86t-29.5 -65h-112z" />
    <glyph glyph-name="uni2099" unicode="&#x2099;" horiz-adv-x="352" 
d="M-10 -121l43 310h53l2 -45q21 23 48 37.5t61 14.5q42 0 69 -21t27 -63q0 -5 -1 -14.5t-4 -32.5t-9 -67.5t-17 -118.5h-72q9 61 14.5 101t9 63t4.5 34t1 14q0 26 -13.5 38.5t-36.5 12.5q-28 0 -52.5 -22t-28.5 -53l-26 -188h-72z" />
    <glyph glyph-name="zero" unicode="0" horiz-adv-x="614" 
d="M250 -10q-60 0 -106 25.5t-72 70.5t-26 103q0 14 1.5 34.5t5.5 51t10.5 76t16.5 110.5q10 68 45.5 121t92.5 83.5t131 30.5h21q60 0 105.5 -25t71.5 -70t26 -104q0 -14 -1.5 -34.5t-5.5 -51t-10.5 -76t-16.5 -110.5q-10 -67 -45.5 -120.5t-92 -84t-130.5 -30.5h-21z
M274 92q41 0 71 16t47.5 44t22.5 62q9 61 15 105t10 75t6.5 50t3.5 30t1 16q0 46 -28 75t-78 29q-41 0 -70.5 -16t-47.5 -43.5t-23 -62.5q-9 -61 -15 -105t-10 -75t-6.5 -50t-3.5 -30t-1 -16q0 -46 28.5 -75t77.5 -29z" />
    <glyph glyph-name="one" unicode="1" horiz-adv-x="614" 
d="M46 0l14 104h174l60 432h-175l11 76q36 3 79.5 13t90 26.5t92.5 36.5h45l-82 -584h172l-15 -104h-466z" />
    <glyph glyph-name="two" unicode="2" horiz-adv-x="614" 
d="M21 0l4 31q6 47 26 82.5t46.5 61t51.5 41.5l208 141q35 24 55 47.5t29 47.5t9 48q0 22 -9.5 43t-32.5 35t-64 14q-40 0 -72.5 -18.5t-51 -51.5t-18.5 -75h-117q0 22 8 53.5t26.5 65.5t49.5 63.5t77.5 48t110.5 18.5h8q74 0 120 -27.5t67 -69.5t21 -86q0 -41 -14 -81
t-45 -78t-83 -73l-191 -131q-16 -10 -29.5 -22t-17.5 -21h328l-14 -107h-486z" />
    <glyph glyph-name="three" unicode="3" horiz-adv-x="614" 
d="M246 -10q-72 0 -120 21.5t-72.5 60t-24.5 88.5q0 10 1.5 21t2.5 22h116q-2 -11 -2.5 -15.5t-0.5 -9.5q0 -42 29.5 -63.5t87.5 -21.5q45 0 80 13t55 40.5t20 69.5q0 35 -19 53t-48.5 24.5t-62.5 6.5h-74l14 98h80q35 0 65.5 12.5t50 38.5t19.5 64q0 42 -31.5 61t-76.5 19
q-48 0 -85.5 -25.5t-45.5 -77.5h-114q6 66 42 112t93 70t125 24h14q60 0 105.5 -20t71 -56t25.5 -85q0 -46 -17.5 -80.5t-47 -58t-64.5 -39.5l1 -4q46 -15 73 -49t27 -88q0 -68 -37 -119t-99 -79t-137 -28h-19z" />
    <glyph glyph-name="four" unicode="4" horiz-adv-x="614" 
d="M311 0l23 165h-313l14 103q29 37 57.5 77.5t56.5 84.5t54 89t49.5 89.5t42.5 87.5h122q-19 -50 -47.5 -102t-61 -102.5t-65 -94.5t-60 -77.5t-46.5 -52.5h212l24 177q14 19 26.5 38.5t23.5 39.5t20.5 40t17.5 40h53l-47 -335h90l-15 -102h-89l-23 -165h-119z" />
    <glyph glyph-name="five" unicode="5" horiz-adv-x="614" 
d="M260 -10q-66 0 -114.5 25t-75 68.5t-26.5 101.5q0 8 0.5 15.5t1.5 15.5h116q-1 -4 -1 -7.5v-7.5q0 -49 32.5 -78t78.5 -29q39 0 73 16.5t54.5 50.5t20.5 85q0 44 -29 75t-77 31q-39 0 -71.5 -16t-56.5 -45l-102 15l81 380h399l-15 -108h-301l-38 -178q25 18 61.5 34
t81.5 16q65 0 106.5 -24.5t62 -66t20.5 -93.5q0 -82 -34 -144t-97 -97t-151 -35z" />
    <glyph glyph-name="six" unicode="6" horiz-adv-x="614" 
d="M261 -10q-60 0 -107.5 24.5t-75 69t-27.5 105.5q0 8 1 20.5t4.5 39t10.5 77t19 134.5q10 66 46 119.5t93 85t130 31.5h10q59 0 105 -22.5t72 -64t26 -100.5q0 -11 -0.5 -19.5t-2.5 -18.5h-116q1 5 1 10v10q0 45 -27 73.5t-76 28.5q-33 0 -63 -16t-50 -43t-25 -61
l-15 -103q32 30 73 46.5t84 16.5q56 0 99.5 -22t68.5 -61.5t25 -93.5q0 -61 -21 -110.5t-58 -84t-87 -53t-108 -18.5h-9zM280 91q44 0 76 18.5t49.5 51.5t17.5 77q0 45 -30 72.5t-78 27.5q-40 0 -73 -18.5t-52.5 -51.5t-19.5 -77q0 -46 31 -73t79 -27z" />
    <glyph glyph-name="seven" unicode="7" horiz-adv-x="614" 
d="M123 0q12 84 45 164.5t79.5 154.5t98.5 139.5t102 119.5h-342l16 108h488l-9 -62q-67 -70 -124.5 -142t-102 -148t-73.5 -159t-39 -175h-139z" />
    <glyph glyph-name="eight" unicode="8" horiz-adv-x="614" 
d="M261 -10q-100 0 -161 42.5t-61 122.5q0 53 18.5 90t50 62t69.5 42l1 4q-31 21 -51.5 47t-20.5 72q0 71 35 121t92.5 76.5t126.5 26.5q59 0 104 -19t70 -55t25 -89q0 -51 -15.5 -84.5t-41.5 -55.5t-56 -40l-1 -4q41 -22 66.5 -52t25.5 -81q0 -53 -20 -95t-56.5 -71
t-87 -44.5t-112.5 -15.5zM274 89q40 0 72.5 14.5t51.5 43t19 68.5q0 44 -32.5 66t-80.5 22q-36 0 -68.5 -14t-53 -42.5t-20.5 -70.5q0 -43 32.5 -65t79.5 -22zM318 397q36 0 63.5 15.5t43.5 42t16 59.5q0 35 -24.5 59t-70.5 24q-32 0 -60.5 -14t-45.5 -40t-17 -63
q0 -36 25 -59.5t70 -23.5z" />
    <glyph glyph-name="nine" unicode="9" horiz-adv-x="614" 
d="M260 -10q-94 0 -151 49.5t-57 137.5q0 17 3 38h117q-1 -5 -1.5 -10.5t-0.5 -10.5q0 -45 27 -73t76 -28q36 0 65.5 16t49 43.5t23.5 60.5l15 103q-32 -30 -72.5 -46.5t-84.5 -16.5q-55 0 -99 22.5t-69 62.5t-25 94q0 82 37 141t100.5 91t141.5 32q63 0 111.5 -24.5
t75.5 -69t27 -105.5q0 -6 -1.5 -20t-5.5 -43t-10.5 -79.5t-17.5 -128.5q-9 -67 -47 -120.5t-96.5 -84.5t-130.5 -31zM307 348q40 0 72 18.5t51 52t19 76.5q0 46 -30.5 73t-78.5 27q-40 0 -72.5 -18t-52 -51t-19.5 -77q0 -46 31 -73.5t80 -27.5z" />
    </font>
</defs>
</svg>
