<?xml version="1.0" standalone="no"?>
<!DOCTYPE svg PUBLIC "-//W3C//DTD SVG 1.1//EN" "http://www.w3.org/Graphics/SVG/1.1/DTD/svg11.dtd" >
<svg xmlns="http://www.w3.org/2000/svg" xmlns:xlink="http://www.w3.org/1999/xlink" version="1.1">
<metadata>
Created by FontForge 20230101 at Fri May 30 12:37:16 2014
 By Glenn Lewis
Copyright (c) 2013, Tiro Typeworks Ltd (www.tiro.com).
</metadata>
<defs>
<font id="Slabo27px-Regular" horiz-adv-x="420" >
  <font-face 
    font-family="Slabo 27px"
    font-weight="400"
    font-stretch="normal"
    units-per-em="810"
    panose-1="2 6 5 3 3 5 5 2 4 4"
    ascent="648"
    descent="-162"
    x-height="390"
    cap-height="540"
    bbox="-313 -190 1030 740"
    underline-thickness="45"
    underline-position="-68"
    unicode-range="U+000D-FB04"
  />
<missing-glyph horiz-adv-x="390" 
d="M390 26q0 -26 -26 -26h-337q-27 0 -27 26v488q0 26 27 26h337q26 0 26 -26v-488zM209 246q46 7 76.5 39.5t30.5 80.5q0 23 -7.5 42.5t-23 34t-38 24t-51.5 9.5q-39 0 -67.5 -10t-34.5 -15q-9 -7 -9 -17t6 -18t15 -8q5 0 10 2q7 3 24 9.5t44 6.5q41 0 57 -19t16 -46
q0 -36 -19.5 -53.5t-50.5 -19.5q-15 -1 -24 -9t-9 -22v-67q0 -14 6.5 -19.5t18.5 -5.5q14 0 22 5.5t8 19.5v56zM143 94q0 -14 10.5 -25t25.5 -11q18 0 29.5 11t11.5 25q0 19 -11.5 30t-29.5 11q-15 0 -25.5 -11t-10.5 -30z" />
    <glyph glyph-name="f_b" unicode="fb" horiz-adv-x="630" 
d="M345 365l2 -1q42 36 99 36q65 0 104.5 -55t39.5 -141q0 -100 -50.5 -157t-138.5 -57q-57 0 -116 19v541q-23 7 -51 7q-50 0 -72 -20.5t-22 -64.5v-82h90v-50h-90v-290h50v-50h-160v50h50v290h-50v50h50v73q0 72 41 107t112 35q33 0 66 -8l42 5h4v-237zM345 46
q30 -6 59 -6q60 0 91.5 37t31.5 118q0 72 -24.5 113.5t-74.5 41.5q-44 0 -83 -33v-271z" />
    <glyph glyph-name="f_f" unicode="ff" horiz-adv-x="450" 
d="M502 500h-52v54q-15 3 -30 3q-37 0 -53.5 -20t-16.5 -65v-82h90v-50h-90v-290h50v-50h-160v50h50v290h-150v-290h50v-50h-160v50h50v290h-50v50h50v70q0 40 10.5 66.5t28.5 43t41.5 23.5t49.5 7q41 0 80 -18v-52q-37 22 -76 22q-42 0 -58 -20t-16 -63v-79h150v73
q0 72 34.5 107t94.5 35q40 0 83 -15v-90z" />
    <glyph glyph-name="f_f_b" unicode="ffb" horiz-adv-x="840" 
d="M290 541q-28 11 -61 11q-50 0 -69.5 -20.5t-19.5 -64.5v-77h150v73q0 72 41 107t112 35q33 0 66 -8l42 5h4v-237l2 -1q42 36 99 36q65 0 104.5 -55t39.5 -141q0 -100 -50.5 -157t-138.5 -57q-57 0 -116 19v541q-23 7 -51 7q-50 0 -72 -20.5t-22 -64.5v-82h90v-50h-90
v-290h50v-50h-160v50h50v290h-150v-290h50v-50h-160v50h50v290h-50v50h50v68q0 72 38.5 107t109.5 35q30 0 62 -7v-52zM555 46q30 -6 59 -6q60 0 91.5 37t31.5 118q0 72 -24.5 113.5t-74.5 41.5q-44 0 -83 -33v-271z" />
    <glyph glyph-name="f_f_h" unicode="ffh" horiz-adv-x="840" 
d="M290 541q-28 11 -61 11q-50 0 -69.5 -20.5t-19.5 -64.5v-77h150v73q0 72 41 107t112 35q32 0 64 -8l39 5h4v-258h1q54 56 123 56q50 0 73 -28.5t23 -80.5v-241h50v-50h-150v50h40v233q0 40 -14 53.5t-39 13.5q-58 0 -107 -57v-243h40v-50h-140v50h40v501q-21 6 -46 6
q-50 0 -72 -20.5t-22 -64.5v-82h90v-50h-90v-290h40v-50h-150v50h50v290h-150v-290h50v-50h-160v50h50v290h-50v50h50v68q0 72 38.5 107t109.5 35q30 0 62 -7v-52z" />
    <glyph glyph-name="f_f_i" unicode="ffi" horiz-adv-x="630" 
d="M290 541q-28 11 -61 11q-50 0 -69.5 -20.5t-19.5 -64.5v-77h150v73q0 70 39 106t119 36q58 0 112 -17v-108h-60v71q-26 6 -54 6q-51 0 -73.5 -20.5t-22.5 -66.5v-80h210v-340h50v-50h-160v50h50v290h-150v-290h50v-50h-160v50h50v290h-150v-290h50v-50h-160v50h50v290
h-50v50h50v68q0 72 38.5 107t109.5 35q30 0 62 -7v-52z" />
    <glyph glyph-name="f_f_iogonek" unicode="ff&#x12f;" horiz-adv-x="630" 
d="M290 541q-28 11 -61 11q-50 0 -69.5 -20.5t-19.5 -64.5v-77h150v73q0 70 39 106t119 36q58 0 112 -17v-108h-60v71q-26 6 -54 6q-51 0 -73.5 -20.5t-22.5 -66.5v-80h210v-340h50v-50h-160v50h50v290h-150v-290h50v-50h-160v50h50v290h-150v-290h50v-50h-160v50h50v290
h-50v50h50v68q0 72 38.5 107t109.5 35q30 0 62 -7v-52zM569 -135q21 0 41 10v-48q-22 -12 -49 -12q-36 0 -61 20.5t-25 56.5q0 55 59 106v10h55v-8q-59 -48 -59 -96q0 -21 11.5 -30t27.5 -9z" />
    <glyph glyph-name="f_f_ij" unicode="ff&#x133;" horiz-adv-x="810" 
d="M290 541q-28 11 -61 11q-50 0 -69.5 -20.5t-19.5 -64.5v-77h150v73q0 70 39 106t119 36q58 0 112 -17v-108h-60v71q-26 6 -54 6q-51 0 -73.5 -20.5t-22.5 -66.5v-80h210v-340h50v-50h-160v50h50v290h-150v-290h50v-50h-160v50h50v290h-150v-290h50v-50h-160v50h50v290
h-50v50h50v68q0 72 38.5 107t109.5 35q30 0 62 -7v-52zM735 -149q-24 -33 -77 -33q-14 0 -28 2v50q8 -1 17 -1q31 0 42 16t11 57v398h-50v50h110v-439q0 -68 -25 -100zM683 496q0 21 11.5 32.5t31.5 11.5q19 0 31 -11.5t12 -30.5q0 -20 -12 -31.5t-32 -11.5
q-19 0 -30.5 11.5t-11.5 29.5z" />
    <glyph glyph-name="f_f_j" unicode="ffj" horiz-adv-x="600" 
d="M290 541q-28 11 -61 11q-50 0 -69.5 -20.5t-19.5 -64.5v-77h150v73q0 70 37.5 106t114.5 36q56 0 108 -17v-108h-60v71q-24 6 -50 6q-48 0 -69 -20.5t-21 -66.5v-80h200v-439q0 -68 -25 -100q-24 -33 -77 -33q-14 0 -28 2v50q8 -1 17 -1q31 0 42 16t11 57v398h-140v-290
h50v-50h-160v50h50v290h-150v-290h50v-50h-160v50h50v290h-50v50h50v68q0 72 38.5 107t109.5 35q30 0 62 -7v-52z" />
    <glyph glyph-name="f_f_k" unicode="ffk" horiz-adv-x="810" 
d="M290 541q-28 11 -61 11q-50 0 -69.5 -20.5t-19.5 -64.5v-77h150v73q0 72 41 107t112 35q34 0 69 -9l44 6h4v-552h40v-50h-140v50h40v499q-25 8 -56 8q-50 0 -72 -20.5t-22 -64.5v-82h90v-50h-90v-290h40v-50h-150v50h50v290h-150v-290h50v-50h-160v50h50v290h-50v50h50
v68q0 72 38.5 107t109.5 35q30 0 62 -7v-52zM650 390h150v-50h-53l-114 -121l131 -169h46v-50h-155v50h37l1 2l-123 161l117 127h-37v50z" />
    <glyph glyph-name="f_f_l" unicode="ffl" horiz-adv-x="630" 
d="M560 602v-552h50v-50h-150v50h40v499q-25 8 -56 8q-50 0 -72 -20.5t-22 -64.5v-82h90v-50h-90v-290h40v-50h-150v50h50v290h-150v-290h50v-50h-160v50h50v290h-50v50h50v68q0 72 38.5 107t109.5 35q30 0 62 -7v-52q-28 11 -61 11q-50 0 -69.5 -20.5t-19.5 -64.5v-77h150
v73q0 72 41 107t112 35q34 0 69 -9l44 6h4z" />
    <glyph glyph-name="f_h" unicode="fh" horiz-adv-x="630" 
d="M340 602v-258h1q54 56 123 56q50 0 73 -28.5t23 -80.5v-241h50v-50h-150v50h40v233q0 40 -14 53.5t-39 13.5q-58 0 -107 -57v-243h40v-50h-140v50h40v501q-21 6 -46 6q-50 0 -72 -20.5t-22 -64.5v-82h90v-50h-90v-290h40v-50h-150v50h50v290h-50v50h50v73q0 72 41 107
t112 35q32 0 64 -8l39 5h4z" />
    <glyph glyph-name="f_i" unicode="fi" 
d="M350 480h-60v71q-26 6 -54 6q-51 0 -73.5 -20.5t-22.5 -66.5v-80h210v-340h50v-50h-160v50h50v290h-150v-290h50v-50h-160v50h50v290h-50v50h50v73q0 70 39 106t119 36q58 0 112 -17v-108z" />
    <glyph glyph-name="f_iogonek" unicode="f&#x12f;" 
d="M350 480h-60v71q-26 6 -54 6q-51 0 -73.5 -20.5t-22.5 -66.5v-80h210v-340h50v-50h-160v50h50v290h-150v-290h50v-50h-160v50h50v290h-50v50h50v73q0 70 39 106t119 36q58 0 112 -17v-108zM359 -135q21 0 41 10v-48q-22 -12 -49 -12q-36 0 -61 20.5t-25 56.5q0 55 59 106
v10h55v-8q-59 -48 -59 -96q0 -21 11.5 -30t27.5 -9z" />
    <glyph glyph-name="f_ij" unicode="f&#x133;" horiz-adv-x="600" 
d="M350 480h-60v71q-26 6 -54 6q-51 0 -73.5 -20.5t-22.5 -66.5v-80h210v-340h50v-50h-160v50h50v290h-150v-290h50v-50h-160v50h50v290h-50v50h50v73q0 70 39 106t119 36q58 0 112 -17v-108zM525 -149q-24 -33 -77 -33q-14 0 -28 2v50q8 -1 17 -1q31 0 42 16t11 57v398h-50
v50h110v-439q0 -68 -25 -100zM473 496q0 21 11.5 32.5t31.5 11.5q19 0 31 -11.5t12 -30.5q0 -20 -12 -31.5t-32 -11.5q-19 0 -30.5 11.5t-11.5 29.5z" />
    <glyph glyph-name="f_j" unicode="fj" horiz-adv-x="390" 
d="M280 -58v398h-140v-290h50v-50h-160v50h50v290h-50v50h50v73q0 70 37.5 106t114.5 36q56 0 108 -17v-108h-60v71q-24 6 -50 6q-48 0 -69 -20.5t-21 -66.5v-80h200v-439q0 -68 -25 -100q-24 -33 -77 -33q-14 0 -28 2v50q8 -1 17 -1q31 0 42 16t11 57z" />
    <glyph glyph-name="f_k" unicode="fk" horiz-adv-x="600" 
d="M350 602v-552h40v-50h-140v50h40v499q-25 8 -56 8q-50 0 -72 -20.5t-22 -64.5v-82h90v-50h-90v-290h40v-50h-150v50h50v290h-50v50h50v73q0 72 41 107t112 35q34 0 69 -9l44 6h4zM440 390h150v-50h-53l-114 -121l131 -169h46v-50h-155v50h37l1 2l-123 161l117 127h-37v50
z" />
    <glyph glyph-name="f_l" unicode="fl" 
d="M350 602v-552h50v-50h-150v50h40v499q-25 8 -56 8q-50 0 -72 -20.5t-22 -64.5v-82h90v-50h-90v-290h40v-50h-150v50h50v290h-50v50h50v73q0 72 41 107t112 35q34 0 69 -9l44 6h4z" />
    <glyph glyph-name=".notdef" horiz-adv-x="390" 
d="M390 26q0 -26 -26 -26h-337q-27 0 -27 26v488q0 26 27 26h337q26 0 26 -26v-488zM209 246q46 7 76.5 39.5t30.5 80.5q0 23 -7.5 42.5t-23 34t-38 24t-51.5 9.5q-39 0 -67.5 -10t-34.5 -15q-9 -7 -9 -17t6 -18t15 -8q5 0 10 2q7 3 24 9.5t44 6.5q41 0 57 -19t16 -46
q0 -36 -19.5 -53.5t-50.5 -19.5q-15 -1 -24 -9t-9 -22v-67q0 -14 6.5 -19.5t18.5 -5.5q14 0 22 5.5t8 19.5v56zM143 94q0 -14 10.5 -25t25.5 -11q18 0 29.5 11t11.5 25q0 19 -11.5 30t-29.5 11q-15 0 -25.5 -11t-10.5 -30z" />
    <glyph glyph-name="NULL" horiz-adv-x="0" 
 />
    <glyph glyph-name="nonmarkingreturn" unicode="&#xd;" horiz-adv-x="150" 
 />
    <glyph glyph-name="space" unicode=" " horiz-adv-x="150" 
 />
    <glyph glyph-name="uni00A0" unicode="&#xa0;" horiz-adv-x="150" 
 />
    <glyph glyph-name="A" unicode="A" horiz-adv-x="480" 
d="M160 50v-50h-160v50h50l161 495h58l164 -495h47v-50h-160v50h50l-49 150h-167l-47 -150h53zM235 460l-66 -210h136l-68 210h-2z" />
    <glyph glyph-name="B" unicode="B" horiz-adv-x="450" 
d="M307 292q53 -13 78 -49t25 -85q0 -74 -48.5 -116t-149.5 -42h-182v50h60v440h-60v50h183q90 0 133 -33t43 -95q0 -42 -19.5 -72.5t-62.5 -45.5v-2zM214 50q67 0 99.5 24.5t32.5 83.5q0 52 -30.5 77t-96.5 25h-69v-210h64zM214 310q112 0 112 93q0 47 -28 67t-89 20h-59
v-180h64z" />
    <glyph glyph-name="C" unicode="C" horiz-adv-x="450" 
d="M420 30q-74 -40 -150 -40q-107 0 -168.5 74.5t-61.5 205.5q0 130 63 205t168 75q73 0 149 -32v-118h-55v79q-40 16 -96 16q-80 0 -123 -54.5t-43 -166.5q0 -117 45 -173t125 -56q67 0 147 40v-55z" />
    <glyph glyph-name="D" unicode="D" horiz-adv-x="510" 
d="M30 50h60v440h-60v50h179q130 0 192 -64.5t62 -191.5q0 -140 -70.5 -212t-201.5 -72h-161v50zM150 50h48q97 0 149.5 55t52.5 173q0 110 -48 161t-154 51h-48v-440z" />
    <glyph glyph-name="E" unicode="E" 
d="M337 50v70h53v-120h-360v50h60v440h-60v50h350v-120h-53v70h-177v-190h100v50h50v-160h-50v60h-100v-200h187z" />
    <glyph glyph-name="F" unicode="F" horiz-adv-x="390" 
d="M150 240v-190h70v-50h-190v50h60v440h-60v50h350v-120h-53v70h-177v-200h110v50h50v-160h-50v60h-110z" />
    <glyph glyph-name="G" unicode="G" horiz-adv-x="510" 
d="M310 250h170v-50h-40v-175q-75 -35 -156 -35q-116 0 -180 74.5t-64 205.5q0 130 66 205t177 75q77 0 157 -32v-128h-55v89q-44 16 -104 16q-86 0 -132 -54.5t-46 -166.5q0 -117 48 -173t135 -56q46 0 95 14v141h-71v50z" />
    <glyph glyph-name="H" unicode="H" horiz-adv-x="570" 
d="M30 50h60v440h-60v50h180v-50h-60v-190h270v190h-60v50h180v-50h-60v-440h60v-50h-180v50h60v200h-270v-200h60v-50h-180v50z" />
    <glyph glyph-name="I" unicode="I" horiz-adv-x="240" 
d="M30 50h60v440h-60v50h180v-50h-60v-440h60v-50h-180v50z" />
    <glyph glyph-name="J" unicode="J" horiz-adv-x="240" 
d="M6 -95q13 -1 24 -1q33 0 46.5 15t13.5 61v510h-60v50h180v-50h-60v-503q0 -67 -25.5 -102t-88.5 -35q-15 0 -30 3v52z" />
    <glyph glyph-name="K" unicode="K" horiz-adv-x="480" 
d="M300 490v50h160v-50h-50l-184 -204l193 -236h61v-50h-180v50h41v2l-186 229l187 207v2h-42zM30 50h60v440h-60v50h180v-50h-60v-440h60v-50h-180v50z" />
    <glyph glyph-name="L" unicode="L" horiz-adv-x="390" 
d="M210 490h-60v-440h167v70h53v-120h-340v50h60v440h-60v50h180v-50z" />
    <glyph glyph-name="M" unicode="M" horiz-adv-x="690" 
d="M539 453l-175 -458h-46l-174 449h-2l-10 -394h48v-50h-160v50h57l13 440h-59v50h140l173 -447h2l170 447h141v-50h-57l11 -440h59v-50h-170v50h51l-10 403h-2z" />
    <glyph glyph-name="N" unicode="N" horiz-adv-x="540" 
d="M394 490h-60v50h176v-50h-60v-490h-58l-244 421h-2v-371h60v-50h-176v50h60v440h-60v50h120l242 -416h2v366z" />
    <glyph glyph-name="O" unicode="O" horiz-adv-x="510" 
d="M47 271q0 130 57.5 204.5t155.5 74.5q96 0 149.5 -72t53.5 -200q0 -136 -57.5 -212t-153.5 -76q-93 0 -149 74.5t-56 206.5zM110 274q0 -112 38.5 -170.5t106.5 -58.5t106.5 58.5t38.5 171.5q0 109 -36.5 164.5t-106.5 55.5q-71 0 -109 -54t-38 -167z" />
    <glyph glyph-name="P" unicode="P" 
d="M150 220v-170h70v-50h-190v50h60v440h-60v50h181q88 0 130 -38.5t42 -111.5q0 -83 -47.5 -126.5t-138.5 -43.5h-47zM200 270q58 0 89 26.5t31 86.5q0 61 -28 84t-87 23h-55v-220h50z" />
    <glyph glyph-name="Q" unicode="Q" horiz-adv-x="510" 
d="M47 271q0 130 58 204.5t155 74.5q95 0 149 -72t54 -200q0 -119 -42 -189t-104 -88v-2q26 -47 68 -72t92 -25q48 0 93 19v-51q-47 -20 -100 -20q-69 0 -127.5 38.5t-94.5 101.5q-91 3 -146 76.5t-55 204.5zM110 274q0 -112 38.5 -170.5t106.5 -58.5t106.5 58.5t38.5 171.5
q0 109 -36 164.5t-107 55.5t-109 -54t-38 -167z" />
    <glyph glyph-name="R" unicode="R" horiz-adv-x="450" 
d="M150 50h60v-50h-180v50h60v440h-53v50h174q93 0 136 -34t43 -101q0 -119 -126 -146v-2q14 -8 30 -24.5t40 -61.5l66 -121h50v-50h-96q-12 27 -23 48t-21 39l-37 69q-20 35 -32 53t-27 30q-15 11 -39 11h-25v-200zM198 300q64 0 96.5 23.5t32.5 75.5q0 51 -29.5 71
t-92.5 20h-55v-190h48z" />
    <glyph glyph-name="S" unicode="S" horiz-adv-x="390" 
d="M177 -10q-76 0 -141 28v112h54v-74q35 -13 92 -13q55 0 85.5 25.5t30.5 69.5q0 23 -8.5 39.5t-23 29t-36.5 23t-50 21.5q-27 10 -53.5 21.5t-48 28.5t-35 43t-13.5 62q0 65 48 104.5t130 39.5q72 0 132 -30v-110h-54v72q-36 15 -83 15q-55 0 -83 -26t-28 -62
q0 -22 8.5 -37.5t24 -27.5t38 -21t50.5 -20t54.5 -23.5t47 -30t33 -43t12.5 -64.5q0 -69 -49.5 -110.5t-133.5 -41.5z" />
    <glyph glyph-name="T" unicode="T" 
d="M110 50h70v440h-110v-80h-53v130h386v-130h-53v80h-110v-440h70v-50h-200v50z" />
    <glyph glyph-name="U" unicode="U" horiz-adv-x="540" 
d="M140 173q0 -63 35 -95.5t94 -32.5q64 0 99.5 34t35.5 97v314h-61v50h177v-50h-60v-311q0 -84 -51.5 -136.5t-140.5 -52.5q-86 0 -137 49.5t-51 132.5v318h-60v50h180v-50h-60v-317z" />
    <glyph glyph-name="V" unicode="V" horiz-adv-x="480" 
d="M245 80l126 410h-51v50h160v-50h-52l-159 -495h-58l-162 495h-49v50h160v-50h-48l131 -410h2z" />
    <glyph glyph-name="W" unicode="W" horiz-adv-x="720" 
d="M490 80l121 410h-51v50h160v-50h-52l-154 -495h-58l-96 293h-2l-94 -293h-58l-157 495h-49v50h160v-50h-48l126 -410h2l93 289l-40 121h-53v50h170v-50h-57l135 -410h2z" />
    <glyph glyph-name="X" unicode="X" horiz-adv-x="450" 
d="M64 490h-54v50h170v-50h-48l98 -162l100 162h-50v50h160v-50h-49l-133 -208l142 -232h50v-50h-170v50h51l-113 185l-109 -185h51v-50h-160v50h48l143 230z" />
    <glyph glyph-name="Y" unicode="Y" horiz-adv-x="480" 
d="M210 240l-164 250h-46v50h160v-50h-46l130 -198l126 198h-50v50h160v-50h-47l-163 -250v-190h70v-50h-200v50h70v190z" />
    <glyph glyph-name="Z" unicode="Z" horiz-adv-x="450" 
d="M30 45l293 445h-230v-70h-53v120h360v-45l-293 -445h250v70h53v-120h-380v45z" />
    <glyph glyph-name="Agrave" unicode="&#xc0;" horiz-adv-x="480" 
d="M160 50v-50h-160v50h50l161 495h58l164 -495h47v-50h-160v50h50l-49 150h-167l-47 -150h53zM235 460l-66 -210h136l-68 210h-2zM265 580h-44l-86 110h70z" />
    <glyph glyph-name="Aacute" unicode="&#xc1;" horiz-adv-x="480" 
d="M160 50v-50h-160v50h50l161 495h58l164 -495h47v-50h-160v50h50l-49 150h-167l-47 -150h53zM235 460l-66 -210h136l-68 210h-2zM275 690h70l-86 -110h-44z" />
    <glyph glyph-name="Acircumflex" unicode="&#xc2;" horiz-adv-x="480" 
d="M160 50v-50h-160v50h50l161 495h58l164 -495h47v-50h-160v50h50l-49 150h-167l-47 -150h53zM235 460l-66 -210h136l-68 210h-2zM239 644l-49 -64h-60l85 110h50l85 -110h-60l-49 64h-2z" />
    <glyph glyph-name="Atilde" unicode="&#xc3;" horiz-adv-x="480" 
d="M160 50v-50h-160v50h50l161 495h58l164 -495h47v-50h-160v50h50l-49 150h-167l-47 -150h53zM235 460l-66 -210h136l-68 210h-2zM135 583v51q23 21 54 21q25 0 60 -19q26 -13 44 -13q30 0 50 23h2v-51q-23 -21 -54 -21q-25 0 -60 19q-26 13 -44 13q-30 0 -50 -23h-2z" />
    <glyph glyph-name="Adieresis" unicode="&#xc4;" horiz-adv-x="480" 
d="M160 50v-50h-160v50h50l161 495h58l164 -495h47v-50h-160v50h50l-49 150h-167l-47 -150h53zM235 460l-66 -210h136l-68 210h-2zM125 620q0 20 11.5 31.5t29.5 11.5q20 0 31 -11.5t11 -30.5t-11 -30t-32 -11q-18 0 -29 11t-11 29zM272 620q0 20 11.5 31.5t29.5 11.5
q20 0 31 -11.5t11 -30.5t-11 -30t-32 -11q-18 0 -29 11t-11 29z" />
    <glyph glyph-name="Amacron" unicode="&#x100;" horiz-adv-x="480" 
d="M160 50v-50h-160v50h50l161 495h58l164 -495h47v-50h-160v50h50l-49 150h-167l-47 -150h53zM235 460l-66 -210h136l-68 210h-2zM145 637h190v-47h-190v47z" />
    <glyph glyph-name="Abreve" unicode="&#x102;" horiz-adv-x="480" 
d="M160 50v-50h-160v50h50l161 495h58l164 -495h47v-50h-160v50h50l-49 150h-167l-47 -150h53zM235 460l-66 -210h136l-68 210h-2zM240 626q27 0 44 16t20 48h44q-4 -53 -33 -81.5t-75 -28.5t-75 28.5t-33 81.5h44q3 -32 20 -48t44 -16z" />
    <glyph glyph-name="Aring" unicode="&#xc5;" horiz-adv-x="480" 
d="M160 50v-50h-160v50h50l161 495h58l164 -495h47v-50h-160v50h50l-49 150h-167l-47 -150h53zM235 460l-66 -210h136l-68 210h-2zM168 637q0 30 20 46.5t54 16.5t52 -16.5t18 -44.5t-19.5 -46t-54.5 -18q-33 0 -51.5 17.5t-18.5 44.5zM207 639q0 -18 8.5 -26t24.5 -8
q15 0 24 9t9 25q0 15 -9 23t-24 8q-16 0 -24.5 -8t-8.5 -23z" />
    <glyph glyph-name="Aogonek" unicode="&#x104;" horiz-adv-x="480" 
d="M379 -135q21 0 41 10v-48q-22 -12 -49 -12q-36 0 -61 20.5t-25 58.5q0 74 91 139l-55 167h-167l-47 -150h53v-50h-160v50h50l161 495h58l164 -495h47v-50h-81q-59 -48 -59 -96q0 -21 11.5 -30t27.5 -9zM235 460l-66 -210h136l-68 210h-2z" />
    <glyph glyph-name="AE" unicode="&#xc6;" horiz-adv-x="660" 
d="M577 50v70h53v-120h-360v50h60v150h-155l-78 -150h43v-50h-150v50h46l257 490h327v-120h-53v70h-177v-190h100v50h50v-160h-50v60h-100v-200h187zM202 250h128v240h-2z" />
    <glyph glyph-name="Cacute" unicode="&#x106;" horiz-adv-x="450" 
d="M420 30q-74 -40 -150 -40q-107 0 -168.5 74.5t-61.5 205.5q0 130 63 205t168 75q73 0 149 -32v-118h-55v79q-40 16 -96 16q-80 0 -123 -54.5t-43 -166.5q0 -117 45 -173t125 -56q67 0 147 40v-55zM305 690h70l-86 -110h-44z" />
    <glyph glyph-name="Ccircumflex" unicode="&#x108;" horiz-adv-x="450" 
d="M420 30q-74 -40 -150 -40q-107 0 -168.5 74.5t-61.5 205.5q0 130 63 205t168 75q73 0 149 -32v-118h-55v79q-40 16 -96 16q-80 0 -123 -54.5t-43 -166.5q0 -117 45 -173t125 -56q67 0 147 40v-55zM269 644l-49 -64h-60l85 110h50l85 -110h-60l-49 64h-2z" />
    <glyph glyph-name="Ccaron" unicode="&#x10c;" horiz-adv-x="450" 
d="M420 30q-74 -40 -150 -40q-107 0 -168.5 74.5t-61.5 205.5q0 130 63 205t168 75q73 0 149 -32v-118h-55v79q-40 16 -96 16q-80 0 -123 -54.5t-43 -166.5q0 -117 45 -173t125 -56q67 0 147 40v-55zM271 626l49 64h60l-85 -110h-50l-85 110h60l49 -64h2z" />
    <glyph glyph-name="Cdotaccent" unicode="&#x10a;" horiz-adv-x="450" 
d="M420 30q-74 -40 -150 -40q-107 0 -168.5 74.5t-61.5 205.5q0 130 63 205t168 75q73 0 149 -32v-118h-55v79q-40 16 -96 16q-80 0 -123 -54.5t-43 -166.5q0 -117 45 -173t125 -56q67 0 147 40v-55zM227 621q0 21 11.5 32.5t31.5 11.5q19 0 31 -11.5t12 -30.5
q0 -20 -12 -31.5t-32 -11.5q-19 0 -30.5 11.5t-11.5 29.5z" />
    <glyph glyph-name="Ccedilla" unicode="&#xc7;" horiz-adv-x="450" 
d="M420 30q-74 -40 -150 -40q-107 0 -168.5 74.5t-61.5 205.5q0 130 63 205t168 75q73 0 149 -32v-118h-55v79q-40 16 -96 16q-80 0 -123 -54.5t-43 -166.5q0 -117 45 -173t125 -56q67 0 147 40v-55zM195 -135q19 -4 39 -4q19 0 30 7.5t11 25.5q0 32 -57 32l30 82h46
l-19 -52q30 -7 42.5 -24.5t12.5 -39.5q0 -35 -26 -56t-68 -21q-20 0 -41 5v45z" />
    <glyph glyph-name="Dcaron" unicode="&#x10e;" horiz-adv-x="510" 
d="M30 50h60v440h-60v50h179q130 0 192 -64.5t62 -191.5q0 -140 -70.5 -212t-201.5 -72h-161v50zM150 50h48q97 0 149.5 55t52.5 173q0 110 -48 161t-154 51h-48v-440zM211 626l49 64h60l-85 -110h-50l-85 110h60l49 -64h2z" />
    <glyph glyph-name="Dcroat" unicode="&#x110;" horiz-adv-x="510" 
d="M30 300h60v190h-60v50h179q130 0 192 -64.5t62 -191.5q0 -140 -70.5 -212t-201.5 -72h-161v50h60v200h-60v50zM150 50h48q97 0 149.5 55t52.5 173q0 110 -48 161t-154 51h-48v-190h100v-50h-100v-200z" />
    <glyph glyph-name="Egrave" unicode="&#xc8;" 
d="M337 50v70h53v-120h-360v50h60v440h-60v50h350v-120h-53v70h-177v-190h100v50h50v-160h-50v60h-100v-200h187zM250 580h-44l-86 110h70z" />
    <glyph glyph-name="Eacute" unicode="&#xc9;" 
d="M337 50v70h53v-120h-360v50h60v440h-60v50h350v-120h-53v70h-177v-190h100v50h50v-160h-50v60h-100v-200h187zM260 690h70l-86 -110h-44z" />
    <glyph glyph-name="Ecircumflex" unicode="&#xca;" 
d="M337 50v70h53v-120h-360v50h60v440h-60v50h350v-120h-53v70h-177v-190h100v50h50v-160h-50v60h-100v-200h187zM224 644l-49 -64h-60l85 110h50l85 -110h-60l-49 64h-2z" />
    <glyph glyph-name="Ecaron" unicode="&#x11a;" 
d="M337 50v70h53v-120h-360v50h60v440h-60v50h350v-120h-53v70h-177v-190h100v50h50v-160h-50v60h-100v-200h187zM226 626l49 64h60l-85 -110h-50l-85 110h60l49 -64h2z" />
    <glyph glyph-name="Edieresis" unicode="&#xcb;" 
d="M337 50v70h53v-120h-360v50h60v440h-60v50h350v-120h-53v70h-177v-190h100v50h50v-160h-50v60h-100v-200h187zM110 620q0 20 11.5 31.5t29.5 11.5q20 0 31 -11.5t11 -30.5t-11 -30t-32 -11q-18 0 -29 11t-11 29zM257 620q0 20 11.5 31.5t29.5 11.5q20 0 31 -11.5
t11 -30.5t-11 -30t-32 -11q-18 0 -29 11t-11 29z" />
    <glyph glyph-name="Emacron" unicode="&#x112;" 
d="M337 50v70h53v-120h-360v50h60v440h-60v50h350v-120h-53v70h-177v-190h100v50h50v-160h-50v60h-100v-200h187zM130 637h190v-47h-190v47z" />
    <glyph glyph-name="Ebreve" unicode="&#x114;" 
d="M337 50v70h53v-120h-360v50h60v440h-60v50h350v-120h-53v70h-177v-190h100v50h50v-160h-50v60h-100v-200h187zM225 626q27 0 44 16t20 48h44q-4 -53 -33 -81.5t-75 -28.5t-75 28.5t-33 81.5h44q3 -32 20 -48t44 -16z" />
    <glyph glyph-name="Edotaccent" unicode="&#x116;" 
d="M337 50v70h53v-120h-360v50h60v440h-60v50h350v-120h-53v70h-177v-190h100v50h50v-160h-50v60h-100v-200h187zM182 621q0 21 11.5 32.5t31.5 11.5q19 0 31 -11.5t12 -30.5q0 -20 -12 -31.5t-32 -11.5q-19 0 -30.5 11.5t-11.5 29.5z" />
    <glyph glyph-name="Eogonek" unicode="&#x118;" 
d="M337 50v70h53v-120h-360v50h60v440h-60v50h350v-120h-53v70h-177v-190h100v50h50v-160h-50v60h-100v-200h187zM349 -135q21 0 41 10v-48q-22 -12 -49 -12q-36 0 -61 20.5t-25 56.5q0 55 59 106v10h55v-8q-59 -48 -59 -96q0 -21 11.5 -30t27.5 -9z" />
    <glyph glyph-name="Gcircumflex" unicode="&#x11c;" horiz-adv-x="510" 
d="M310 250h170v-50h-40v-175q-75 -35 -156 -35q-116 0 -180 74.5t-64 205.5q0 130 66 205t177 75q77 0 157 -32v-128h-55v89q-44 16 -104 16q-86 0 -132 -54.5t-46 -166.5q0 -117 48 -173t135 -56q46 0 95 14v141h-71v50zM284 644l-49 -64h-60l85 110h50l85 -110h-60
l-49 64h-2z" />
    <glyph glyph-name="Gbreve" unicode="&#x11e;" horiz-adv-x="510" 
d="M310 250h170v-50h-40v-175q-75 -35 -156 -35q-116 0 -180 74.5t-64 205.5q0 130 66 205t177 75q77 0 157 -32v-128h-55v89q-44 16 -104 16q-86 0 -132 -54.5t-46 -166.5q0 -117 48 -173t135 -56q46 0 95 14v141h-71v50zM285 626q27 0 44 16t20 48h44q-4 -53 -33 -81.5
t-75 -28.5t-75 28.5t-33 81.5h44q3 -32 20 -48t44 -16z" />
    <glyph glyph-name="Gdotaccent" unicode="&#x120;" horiz-adv-x="510" 
d="M310 250h170v-50h-40v-175q-75 -35 -156 -35q-116 0 -180 74.5t-64 205.5q0 130 66 205t177 75q77 0 157 -32v-128h-55v89q-44 16 -104 16q-86 0 -132 -54.5t-46 -166.5q0 -117 48 -173t135 -56q46 0 95 14v141h-71v50zM242 621q0 21 11.5 32.5t31.5 11.5q19 0 31 -11.5
t12 -30.5q0 -20 -12 -31.5t-32 -11.5q-19 0 -30.5 11.5t-11.5 29.5z" />
    <glyph glyph-name="Gcommaaccent" unicode="&#x122;" horiz-adv-x="510" 
d="M310 250h170v-50h-40v-175q-75 -35 -156 -35q-116 0 -180 74.5t-64 205.5q0 130 66 205t177 75q77 0 157 -32v-128h-55v89q-44 16 -104 16q-86 0 -132 -54.5t-46 -166.5q0 -117 48 -173t135 -56q46 0 95 14v141h-71v50zM255 -40h63l-41 -120h-41z" />
    <glyph glyph-name="Hcircumflex" unicode="&#x124;" horiz-adv-x="570" 
d="M30 50h60v440h-60v50h180v-50h-60v-190h270v190h-60v50h180v-50h-60v-440h60v-50h-180v50h60v200h-270v-200h60v-50h-180v50zM284 644l-49 -64h-60l85 110h50l85 -110h-60l-49 64h-2z" />
    <glyph glyph-name="Hbar" unicode="&#x126;" horiz-adv-x="570" 
d="M540 365h-60v-315h60v-50h-180v50h60v190h-270v-190h60v-50h-180v50h60v315h-60v50h60v75h-60v50h180v-50h-60v-75h270v75h-60v50h180v-50h-60v-75h60v-50zM420 290v75h-270v-75h270z" />
    <glyph glyph-name="Igrave" unicode="&#xcc;" horiz-adv-x="240" 
d="M30 50h60v440h-60v50h180v-50h-60v-440h60v-50h-180v50zM145 580h-44l-86 110h70z" />
    <glyph glyph-name="Iacute" unicode="&#xcd;" horiz-adv-x="240" 
d="M30 50h60v440h-60v50h180v-50h-60v-440h60v-50h-180v50zM155 690h70l-86 -110h-44z" />
    <glyph glyph-name="Icircumflex" unicode="&#xce;" horiz-adv-x="240" 
d="M30 50h60v440h-60v50h180v-50h-60v-440h60v-50h-180v50zM119 644l-49 -64h-60l85 110h50l85 -110h-60l-49 64h-2z" />
    <glyph glyph-name="Itilde" unicode="&#x128;" horiz-adv-x="240" 
d="M30 50h60v440h-60v50h180v-50h-60v-440h60v-50h-180v50zM15 583v51q23 21 54 21q25 0 60 -19q26 -13 44 -13q30 0 50 23h2v-51q-23 -21 -54 -21q-25 0 -60 19q-26 13 -44 13q-30 0 -50 -23h-2z" />
    <glyph glyph-name="Idieresis" unicode="&#xcf;" horiz-adv-x="240" 
d="M30 50h60v440h-60v50h180v-50h-60v-440h60v-50h-180v50zM5 620q0 20 11.5 31.5t29.5 11.5q20 0 31 -11.5t11 -30.5t-11 -30t-32 -11q-18 0 -29 11t-11 29zM152 620q0 20 11.5 31.5t29.5 11.5q20 0 31 -11.5t11 -30.5t-11 -30t-32 -11q-18 0 -29 11t-11 29z" />
    <glyph glyph-name="Imacron" unicode="&#x12a;" horiz-adv-x="240" 
d="M30 50h60v440h-60v50h180v-50h-60v-440h60v-50h-180v50zM25 637h190v-47h-190v47z" />
    <glyph glyph-name="Ibreve" unicode="&#x12c;" horiz-adv-x="240" 
d="M30 50h60v440h-60v50h180v-50h-60v-440h60v-50h-180v50zM120 626q27 0 44 16t20 48h44q-4 -53 -33 -81.5t-75 -28.5t-75 28.5t-33 81.5h44q3 -32 20 -48t44 -16z" />
    <glyph glyph-name="Idotaccent" unicode="&#x130;" horiz-adv-x="240" 
d="M30 50h60v440h-60v50h180v-50h-60v-440h60v-50h-180v50zM77 621q0 21 11.5 32.5t31.5 11.5q19 0 31 -11.5t12 -30.5q0 -20 -12 -31.5t-32 -11.5q-19 0 -30.5 11.5t-11.5 29.5z" />
    <glyph glyph-name="Iogonek" unicode="&#x12e;" horiz-adv-x="240" 
d="M30 50h60v440h-60v50h180v-50h-60v-440h60v-50h-180v50zM169 -135q21 0 41 10v-48q-22 -12 -49 -12q-36 0 -61 20.5t-25 56.5q0 55 59 106v10h55v-8q-59 -48 -59 -96q0 -21 11.5 -30t27.5 -9z" />
    <glyph glyph-name="Jcircumflex" unicode="&#x134;" horiz-adv-x="240" 
d="M6 -95q13 -1 24 -1q33 0 46.5 15t13.5 61v510h-60v50h180v-50h-60v-503q0 -67 -25.5 -102t-88.5 -35q-15 0 -30 3v52zM119 644l-49 -64h-60l85 110h50l85 -110h-60l-49 64h-2z" />
    <glyph glyph-name="Kcommaaccent" unicode="&#x136;" horiz-adv-x="480" 
d="M300 490v50h160v-50h-50l-184 -204l193 -236h61v-50h-180v50h41v2l-186 229l187 207v2h-42zM30 50h60v440h-60v50h180v-50h-60v-440h60v-50h-180v50zM225 -40h63l-41 -120h-41z" />
    <glyph glyph-name="Lacute" unicode="&#x139;" horiz-adv-x="390" 
d="M210 490h-60v-440h167v70h53v-120h-340v50h60v440h-60v50h180v-50zM155 690h70l-86 -110h-44z" />
    <glyph glyph-name="Lcaron" unicode="&#x13d;" horiz-adv-x="390" 
d="M210 490h-60v-440h167v70h53v-120h-340v50h60v440h-60v50h180v-50zM292 550h61l-40 -130h-43z" />
    <glyph glyph-name="Lcommaaccent" unicode="&#x13b;" horiz-adv-x="390" 
d="M210 490h-60v-440h167v70h53v-120h-340v50h60v440h-60v50h180v-50zM180 -40h63l-41 -120h-41z" />
    <glyph glyph-name="Lslash" unicode="&#x141;" horiz-adv-x="390" 
d="M210 490h-60v-181l120 61v-55l-120 -61v-204h167v70h53v-120h-340v50h60v177l-60 -30v55l60 30v208h-60v50h180v-50z" />
    <glyph glyph-name="Ldot" unicode="&#x13f;" horiz-adv-x="390" 
d="M210 490h-60v-440h167v70h53v-120h-340v50h60v440h-60v50h180v-50zM273 299q0 21 11 32.5t31 11.5q19 0 30.5 -11.5t11.5 -30.5q0 -20 -11.5 -31.5t-31.5 -11.5q-19 0 -30 11.5t-11 29.5z" />
    <glyph glyph-name="Nacute" unicode="&#x143;" horiz-adv-x="540" 
d="M394 490h-60v50h176v-50h-60v-490h-58l-244 421h-2v-371h60v-50h-176v50h60v440h-60v50h120l242 -416h2v366zM305 690h70l-86 -110h-44z" />
    <glyph glyph-name="Ntilde" unicode="&#xd1;" horiz-adv-x="540" 
d="M394 490h-60v50h176v-50h-60v-490h-58l-244 421h-2v-371h60v-50h-176v50h60v440h-60v50h120l242 -416h2v366zM165 583v51q23 21 54 21q25 0 60 -19q26 -13 44 -13q30 0 50 23h2v-51q-23 -21 -54 -21q-25 0 -60 19q-26 13 -44 13q-30 0 -50 -23h-2z" />
    <glyph glyph-name="Ncaron" unicode="&#x147;" horiz-adv-x="540" 
d="M394 490h-60v50h176v-50h-60v-490h-58l-244 421h-2v-371h60v-50h-176v50h60v440h-60v50h120l242 -416h2v366zM271 626l49 64h60l-85 -110h-50l-85 110h60l49 -64h2z" />
    <glyph glyph-name="Ncommaaccent" unicode="&#x145;" horiz-adv-x="540" 
d="M394 490h-60v50h176v-50h-60v-490h-58l-244 421h-2v-371h60v-50h-176v50h60v440h-60v50h120l242 -416h2v366zM240 -40h63l-41 -120h-41z" />
    <glyph glyph-name="Ograve" unicode="&#xd2;" horiz-adv-x="510" 
d="M47 271q0 130 57.5 204.5t155.5 74.5q96 0 149.5 -72t53.5 -200q0 -136 -57.5 -212t-153.5 -76q-93 0 -149 74.5t-56 206.5zM110 274q0 -112 38.5 -170.5t106.5 -58.5t106.5 58.5t38.5 171.5q0 109 -36.5 164.5t-106.5 55.5q-71 0 -109 -54t-38 -167zM280 580h-44
l-86 110h70z" />
    <glyph glyph-name="Oacute" unicode="&#xd3;" horiz-adv-x="510" 
d="M47 271q0 130 57.5 204.5t155.5 74.5q96 0 149.5 -72t53.5 -200q0 -136 -57.5 -212t-153.5 -76q-93 0 -149 74.5t-56 206.5zM110 274q0 -112 38.5 -170.5t106.5 -58.5t106.5 58.5t38.5 171.5q0 109 -36.5 164.5t-106.5 55.5q-71 0 -109 -54t-38 -167zM290 690h70
l-86 -110h-44z" />
    <glyph glyph-name="Ocircumflex" unicode="&#xd4;" horiz-adv-x="510" 
d="M47 271q0 130 57.5 204.5t155.5 74.5q96 0 149.5 -72t53.5 -200q0 -136 -57.5 -212t-153.5 -76q-93 0 -149 74.5t-56 206.5zM110 274q0 -112 38.5 -170.5t106.5 -58.5t106.5 58.5t38.5 171.5q0 109 -36.5 164.5t-106.5 55.5q-71 0 -109 -54t-38 -167zM254 644l-49 -64
h-60l85 110h50l85 -110h-60l-49 64h-2z" />
    <glyph glyph-name="Otilde" unicode="&#xd5;" horiz-adv-x="510" 
d="M47 271q0 130 57.5 204.5t155.5 74.5q96 0 149.5 -72t53.5 -200q0 -136 -57.5 -212t-153.5 -76q-93 0 -149 74.5t-56 206.5zM110 274q0 -112 38.5 -170.5t106.5 -58.5t106.5 58.5t38.5 171.5q0 109 -36.5 164.5t-106.5 55.5q-71 0 -109 -54t-38 -167zM150 583v51
q23 21 54 21q25 0 60 -19q26 -13 44 -13q30 0 50 23h2v-51q-23 -21 -54 -21q-25 0 -60 19q-26 13 -44 13q-30 0 -50 -23h-2z" />
    <glyph glyph-name="Odieresis" unicode="&#xd6;" horiz-adv-x="510" 
d="M47 271q0 130 57.5 204.5t155.5 74.5q96 0 149.5 -72t53.5 -200q0 -136 -57.5 -212t-153.5 -76q-93 0 -149 74.5t-56 206.5zM110 274q0 -112 38.5 -170.5t106.5 -58.5t106.5 58.5t38.5 171.5q0 109 -36.5 164.5t-106.5 55.5q-71 0 -109 -54t-38 -167zM140 620
q0 20 11.5 31.5t29.5 11.5q20 0 31 -11.5t11 -30.5t-11 -30t-32 -11q-18 0 -29 11t-11 29zM287 620q0 20 11.5 31.5t29.5 11.5q20 0 31 -11.5t11 -30.5t-11 -30t-32 -11q-18 0 -29 11t-11 29z" />
    <glyph glyph-name="Omacron" unicode="&#x14c;" horiz-adv-x="510" 
d="M47 271q0 130 57.5 204.5t155.5 74.5q96 0 149.5 -72t53.5 -200q0 -136 -57.5 -212t-153.5 -76q-93 0 -149 74.5t-56 206.5zM110 274q0 -112 38.5 -170.5t106.5 -58.5t106.5 58.5t38.5 171.5q0 109 -36.5 164.5t-106.5 55.5q-71 0 -109 -54t-38 -167zM160 637h190v-47
h-190v47z" />
    <glyph glyph-name="Obreve" unicode="&#x14e;" horiz-adv-x="510" 
d="M47 271q0 130 57.5 204.5t155.5 74.5q96 0 149.5 -72t53.5 -200q0 -136 -57.5 -212t-153.5 -76q-93 0 -149 74.5t-56 206.5zM110 274q0 -112 38.5 -170.5t106.5 -58.5t106.5 58.5t38.5 171.5q0 109 -36.5 164.5t-106.5 55.5q-71 0 -109 -54t-38 -167zM255 626q27 0 44 16
t20 48h44q-4 -53 -33 -81.5t-75 -28.5t-75 28.5t-33 81.5h44q3 -32 20 -48t44 -16z" />
    <glyph glyph-name="Ohungarumlaut" unicode="&#x150;" horiz-adv-x="510" 
d="M47 271q0 130 57.5 204.5t155.5 74.5q96 0 149.5 -72t53.5 -200q0 -136 -57.5 -212t-153.5 -76q-93 0 -149 74.5t-56 206.5zM110 274q0 -112 38.5 -170.5t106.5 -58.5t106.5 58.5t38.5 171.5q0 109 -36.5 164.5t-106.5 55.5q-71 0 -109 -54t-38 -167zM240 690h62
l-78 -110h-44zM344 690h65l-86 -110h-43z" />
    <glyph glyph-name="Oslash" unicode="&#xd8;" horiz-adv-x="510" 
d="M47 271q0 130 57.5 204.5t155.5 74.5q67 0 115 -36l37 61l38 -23l-43 -71q56 -72 56 -203q0 -136 -57.5 -212t-153.5 -76q-69 0 -115 40l-39 -65l-38 23l45 75q-58 73 -58 208zM110 274q0 -98 29 -154l205 343q-34 32 -87 32q-71 0 -109 -54t-38 -167zM255 45
q68 0 106.5 58.5t38.5 171.5q0 94 -27 148l-206 -343q36 -35 88 -35z" />
    <glyph glyph-name="OE" unicode="&#x152;" horiz-adv-x="690" 
d="M607 50v70h53v-120h-300v14q-41 -24 -97 -24q-101 0 -158.5 73.5t-57.5 205.5q0 133 59 207t163 74q50 0 91 -18v8h290v-120h-53v70h-177v-190h100v50h50v-160h-50v60h-100v-200h187zM267 495q-78 0 -117.5 -53.5t-39.5 -166.5q0 -112 39.5 -171t115.5 -59q57 0 95 29
v397q-38 24 -93 24z" />
    <glyph glyph-name="Racute" unicode="&#x154;" horiz-adv-x="450" 
d="M150 50h60v-50h-180v50h60v440h-53v50h174q93 0 136 -34t43 -101q0 -119 -126 -146v-2q14 -8 30 -24.5t40 -61.5l66 -121h50v-50h-96q-12 27 -23 48t-21 39l-37 69q-20 35 -32 53t-27 30q-15 11 -39 11h-25v-200zM198 300q64 0 96.5 23.5t32.5 75.5q0 51 -29.5 71
t-92.5 20h-55v-190h48zM245 690h70l-86 -110h-44z" />
    <glyph glyph-name="Rcaron" unicode="&#x158;" horiz-adv-x="450" 
d="M150 50h60v-50h-180v50h60v440h-53v50h174q93 0 136 -34t43 -101q0 -119 -126 -146v-2q14 -8 30 -24.5t40 -61.5l66 -121h50v-50h-96q-12 27 -23 48t-21 39l-37 69q-20 35 -32 53t-27 30q-15 11 -39 11h-25v-200zM198 300q64 0 96.5 23.5t32.5 75.5q0 51 -29.5 71
t-92.5 20h-55v-190h48zM211 626l49 64h60l-85 -110h-50l-85 110h60l49 -64h2z" />
    <glyph glyph-name="Rcommaaccent" unicode="&#x156;" horiz-adv-x="450" 
d="M150 50h60v-50h-180v50h60v440h-53v50h174q93 0 136 -34t43 -101q0 -119 -126 -146v-2q14 -8 30 -24.5t40 -61.5l66 -121h50v-50h-96q-12 27 -23 48t-21 39l-37 69q-20 35 -32 53t-27 30q-15 11 -39 11h-25v-200zM198 300q64 0 96.5 23.5t32.5 75.5q0 51 -29.5 71
t-92.5 20h-55v-190h48zM210 -40h63l-41 -120h-41z" />
    <glyph glyph-name="Sacute" unicode="&#x15a;" horiz-adv-x="390" 
d="M177 -10q-76 0 -141 28v112h54v-74q35 -13 92 -13q55 0 85.5 25.5t30.5 69.5q0 23 -8.5 39.5t-23 29t-36.5 23t-50 21.5q-27 10 -53.5 21.5t-48 28.5t-35 43t-13.5 62q0 65 48 104.5t130 39.5q72 0 132 -30v-110h-54v72q-36 15 -83 15q-55 0 -83 -26t-28 -62
q0 -22 8.5 -37.5t24 -27.5t38 -21t50.5 -20t54.5 -23.5t47 -30t33 -43t12.5 -64.5q0 -69 -49.5 -110.5t-133.5 -41.5zM230 690h70l-86 -110h-44z" />
    <glyph glyph-name="Scircumflex" unicode="&#x15c;" horiz-adv-x="390" 
d="M177 -10q-76 0 -141 28v112h54v-74q35 -13 92 -13q55 0 85.5 25.5t30.5 69.5q0 23 -8.5 39.5t-23 29t-36.5 23t-50 21.5q-27 10 -53.5 21.5t-48 28.5t-35 43t-13.5 62q0 65 48 104.5t130 39.5q72 0 132 -30v-110h-54v72q-36 15 -83 15q-55 0 -83 -26t-28 -62
q0 -22 8.5 -37.5t24 -27.5t38 -21t50.5 -20t54.5 -23.5t47 -30t33 -43t12.5 -64.5q0 -69 -49.5 -110.5t-133.5 -41.5zM194 644l-49 -64h-60l85 110h50l85 -110h-60l-49 64h-2z" />
    <glyph glyph-name="Scaron" unicode="&#x160;" horiz-adv-x="390" 
d="M177 -10q-76 0 -141 28v112h54v-74q35 -13 92 -13q55 0 85.5 25.5t30.5 69.5q0 23 -8.5 39.5t-23 29t-36.5 23t-50 21.5q-27 10 -53.5 21.5t-48 28.5t-35 43t-13.5 62q0 65 48 104.5t130 39.5q72 0 132 -30v-110h-54v72q-36 15 -83 15q-55 0 -83 -26t-28 -62
q0 -22 8.5 -37.5t24 -27.5t38 -21t50.5 -20t54.5 -23.5t47 -30t33 -43t12.5 -64.5q0 -69 -49.5 -110.5t-133.5 -41.5zM196 626l49 64h60l-85 -110h-50l-85 110h60l49 -64h2z" />
    <glyph glyph-name="uni0218" unicode="&#x218;" horiz-adv-x="390" 
d="M177 -10q-76 0 -141 28v112h54v-74q35 -13 92 -13q55 0 85.5 25.5t30.5 69.5q0 23 -8.5 39.5t-23 29t-36.5 23t-50 21.5q-27 10 -53.5 21.5t-48 28.5t-35 43t-13.5 62q0 65 48 104.5t130 39.5q72 0 132 -30v-110h-54v72q-36 15 -83 15q-55 0 -83 -26t-28 -62
q0 -22 8.5 -37.5t24 -27.5t38 -21t50.5 -20t54.5 -23.5t47 -30t33 -43t12.5 -64.5q0 -69 -49.5 -110.5t-133.5 -41.5zM155 -40h63l-41 -120h-41z" />
    <glyph glyph-name="uni015E" unicode="&#x15e;" horiz-adv-x="390" 
d="M177 -10q-76 0 -141 28v112h54v-74q35 -13 92 -13q55 0 85.5 25.5t30.5 69.5q0 23 -8.5 39.5t-23 29t-36.5 23t-50 21.5q-27 10 -53.5 21.5t-48 28.5t-35 43t-13.5 62q0 65 48 104.5t130 39.5q72 0 132 -30v-110h-54v72q-36 15 -83 15q-55 0 -83 -26t-28 -62
q0 -22 8.5 -37.5t24 -27.5t38 -21t50.5 -20t54.5 -23.5t47 -30t33 -43t12.5 -64.5q0 -69 -49.5 -110.5t-133.5 -41.5zM110 -135q19 -4 39 -4q19 0 30 7.5t11 25.5q0 32 -57 32l30 82h46l-19 -52q30 -7 42.5 -24.5t12.5 -39.5q0 -35 -26 -56t-68 -21q-20 0 -41 5v45z" />
    <glyph glyph-name="Tcaron" unicode="&#x164;" 
d="M110 50h70v440h-110v-80h-53v130h386v-130h-53v80h-110v-440h70v-50h-200v50zM211 626l49 64h60l-85 -110h-50l-85 110h60l49 -64h2z" />
    <glyph glyph-name="Tcommaaccent" unicode="&#x21a;" 
d="M110 50h70v440h-110v-80h-53v130h386v-130h-53v80h-110v-440h70v-50h-200v50zM180 -40h63l-41 -120h-41z" />
    <glyph glyph-name="uni0162" unicode="&#x162;" 
d="M110 50h70v440h-110v-80h-53v130h386v-130h-53v80h-110v-440h70v-50h-200v50zM135 -135q19 -4 39 -4q19 0 30 7.5t11 25.5q0 32 -57 32l30 82h46l-19 -52q30 -7 42.5 -24.5t12.5 -39.5q0 -35 -26 -56t-68 -21q-20 0 -41 5v45z" />
    <glyph glyph-name="Tbar" unicode="&#x166;" 
d="M110 50h70v200h-90v50h90v190h-110v-80h-53v130h386v-130h-53v80h-110v-190h90v-50h-90v-200h70v-50h-200v50z" />
    <glyph glyph-name="Ugrave" unicode="&#xd9;" horiz-adv-x="540" 
d="M140 173q0 -63 35 -95.5t94 -32.5q64 0 99.5 34t35.5 97v314h-61v50h177v-50h-60v-311q0 -84 -51.5 -136.5t-140.5 -52.5q-86 0 -137 49.5t-51 132.5v318h-60v50h180v-50h-60v-317zM295 580h-44l-86 110h70z" />
    <glyph glyph-name="Uacute" unicode="&#xda;" horiz-adv-x="540" 
d="M140 173q0 -63 35 -95.5t94 -32.5q64 0 99.5 34t35.5 97v314h-61v50h177v-50h-60v-311q0 -84 -51.5 -136.5t-140.5 -52.5q-86 0 -137 49.5t-51 132.5v318h-60v50h180v-50h-60v-317zM305 690h70l-86 -110h-44z" />
    <glyph glyph-name="Ucircumflex" unicode="&#xdb;" horiz-adv-x="540" 
d="M140 173q0 -63 35 -95.5t94 -32.5q64 0 99.5 34t35.5 97v314h-61v50h177v-50h-60v-311q0 -84 -51.5 -136.5t-140.5 -52.5q-86 0 -137 49.5t-51 132.5v318h-60v50h180v-50h-60v-317zM269 644l-49 -64h-60l85 110h50l85 -110h-60l-49 64h-2z" />
    <glyph glyph-name="Utilde" unicode="&#x168;" horiz-adv-x="540" 
d="M140 173q0 -63 35 -95.5t94 -32.5q64 0 99.5 34t35.5 97v314h-61v50h177v-50h-60v-311q0 -84 -51.5 -136.5t-140.5 -52.5q-86 0 -137 49.5t-51 132.5v318h-60v50h180v-50h-60v-317zM165 583v51q23 21 54 21q25 0 60 -19q26 -13 44 -13q30 0 50 23h2v-51q-23 -21 -54 -21
q-25 0 -60 19q-26 13 -44 13q-30 0 -50 -23h-2z" />
    <glyph glyph-name="Udieresis" unicode="&#xdc;" horiz-adv-x="540" 
d="M140 173q0 -63 35 -95.5t94 -32.5q64 0 99.5 34t35.5 97v314h-61v50h177v-50h-60v-311q0 -84 -51.5 -136.5t-140.5 -52.5q-86 0 -137 49.5t-51 132.5v318h-60v50h180v-50h-60v-317zM155 620q0 20 11.5 31.5t29.5 11.5q20 0 31 -11.5t11 -30.5t-11 -30t-32 -11
q-18 0 -29 11t-11 29zM302 620q0 20 11.5 31.5t29.5 11.5q20 0 31 -11.5t11 -30.5t-11 -30t-32 -11q-18 0 -29 11t-11 29z" />
    <glyph glyph-name="Umacron" unicode="&#x16a;" horiz-adv-x="540" 
d="M140 173q0 -63 35 -95.5t94 -32.5q64 0 99.5 34t35.5 97v314h-61v50h177v-50h-60v-311q0 -84 -51.5 -136.5t-140.5 -52.5q-86 0 -137 49.5t-51 132.5v318h-60v50h180v-50h-60v-317zM175 637h190v-47h-190v47z" />
    <glyph glyph-name="Ubreve" unicode="&#x16c;" horiz-adv-x="540" 
d="M140 173q0 -63 35 -95.5t94 -32.5q64 0 99.5 34t35.5 97v314h-61v50h177v-50h-60v-311q0 -84 -51.5 -136.5t-140.5 -52.5q-86 0 -137 49.5t-51 132.5v318h-60v50h180v-50h-60v-317zM270 626q27 0 44 16t20 48h44q-4 -53 -33 -81.5t-75 -28.5t-75 28.5t-33 81.5h44
q3 -32 20 -48t44 -16z" />
    <glyph glyph-name="Uring" unicode="&#x16e;" horiz-adv-x="540" 
d="M140 173q0 -63 35 -95.5t94 -32.5q64 0 99.5 34t35.5 97v314h-61v50h177v-50h-60v-311q0 -84 -51.5 -136.5t-140.5 -52.5q-86 0 -137 49.5t-51 132.5v318h-60v50h180v-50h-60v-317zM198 637q0 30 20 46.5t54 16.5t52 -16.5t18 -44.5t-19.5 -46t-54.5 -18
q-33 0 -51.5 17.5t-18.5 44.5zM237 639q0 -18 8.5 -26t24.5 -8q15 0 24 9t9 25q0 15 -9 23t-24 8q-16 0 -24.5 -8t-8.5 -23z" />
    <glyph glyph-name="Uhungarumlaut" unicode="&#x170;" horiz-adv-x="540" 
d="M140 173q0 -63 35 -95.5t94 -32.5q64 0 99.5 34t35.5 97v314h-61v50h177v-50h-60v-311q0 -84 -51.5 -136.5t-140.5 -52.5q-86 0 -137 49.5t-51 132.5v318h-60v50h180v-50h-60v-317zM255 690h62l-78 -110h-44zM359 690h65l-86 -110h-43z" />
    <glyph glyph-name="Uogonek" unicode="&#x172;" horiz-adv-x="540" 
d="M140 173q0 -63 35 -95.5t94 -32.5q64 0 99.5 34t35.5 97v314h-61v50h177v-50h-60v-311q0 -84 -51.5 -136.5t-140.5 -52.5q-86 0 -137 49.5t-51 132.5v318h-60v50h180v-50h-60v-317zM319 -135q21 0 41 10v-48q-22 -12 -49 -12q-36 0 -61 20.5t-25 56.5q0 55 59 106v10h55
v-8q-59 -48 -59 -96q0 -21 11.5 -30t27.5 -9z" />
    <glyph glyph-name="Wgrave" unicode="&#x1e80;" horiz-adv-x="720" 
d="M490 80l121 410h-51v50h160v-50h-52l-154 -495h-58l-96 293h-2l-94 -293h-58l-157 495h-49v50h160v-50h-48l126 -410h2l93 289l-40 121h-53v50h170v-50h-57l135 -410h2zM385 580h-44l-86 110h70z" />
    <glyph glyph-name="Wacute" unicode="&#x1e82;" horiz-adv-x="720" 
d="M490 80l121 410h-51v50h160v-50h-52l-154 -495h-58l-96 293h-2l-94 -293h-58l-157 495h-49v50h160v-50h-48l126 -410h2l93 289l-40 121h-53v50h170v-50h-57l135 -410h2zM395 690h70l-86 -110h-44z" />
    <glyph glyph-name="Wcircumflex" unicode="&#x174;" horiz-adv-x="720" 
d="M490 80l121 410h-51v50h160v-50h-52l-154 -495h-58l-96 293h-2l-94 -293h-58l-157 495h-49v50h160v-50h-48l126 -410h2l93 289l-40 121h-53v50h170v-50h-57l135 -410h2zM359 644l-49 -64h-60l85 110h50l85 -110h-60l-49 64h-2z" />
    <glyph glyph-name="Wdieresis" unicode="&#x1e84;" horiz-adv-x="720" 
d="M490 80l121 410h-51v50h160v-50h-52l-154 -495h-58l-96 293h-2l-94 -293h-58l-157 495h-49v50h160v-50h-48l126 -410h2l93 289l-40 121h-53v50h170v-50h-57l135 -410h2zM245 620q0 20 11.5 31.5t29.5 11.5q20 0 31 -11.5t11 -30.5t-11 -30t-32 -11q-18 0 -29 11t-11 29z
M392 620q0 20 11.5 31.5t29.5 11.5q20 0 31 -11.5t11 -30.5t-11 -30t-32 -11q-18 0 -29 11t-11 29z" />
    <glyph glyph-name="Ygrave" unicode="&#x1ef2;" horiz-adv-x="480" 
d="M210 240l-164 250h-46v50h160v-50h-46l130 -198l126 198h-50v50h160v-50h-47l-163 -250v-190h70v-50h-200v50h70v190zM265 580h-44l-86 110h70z" />
    <glyph glyph-name="Yacute" unicode="&#xdd;" horiz-adv-x="480" 
d="M210 240l-164 250h-46v50h160v-50h-46l130 -198l126 198h-50v50h160v-50h-47l-163 -250v-190h70v-50h-200v50h70v190zM275 690h70l-86 -110h-44z" />
    <glyph glyph-name="Ycircumflex" unicode="&#x176;" horiz-adv-x="480" 
d="M210 240l-164 250h-46v50h160v-50h-46l130 -198l126 198h-50v50h160v-50h-47l-163 -250v-190h70v-50h-200v50h70v190zM239 644l-49 -64h-60l85 110h50l85 -110h-60l-49 64h-2z" />
    <glyph glyph-name="Ydieresis" unicode="&#x178;" horiz-adv-x="480" 
d="M210 240l-164 250h-46v50h160v-50h-46l130 -198l126 198h-50v50h160v-50h-47l-163 -250v-190h70v-50h-200v50h70v190zM125 620q0 20 11.5 31.5t29.5 11.5q20 0 31 -11.5t11 -30.5t-11 -30t-32 -11q-18 0 -29 11t-11 29zM272 620q0 20 11.5 31.5t29.5 11.5q20 0 31 -11.5
t11 -30.5t-11 -30t-32 -11q-18 0 -29 11t-11 29z" />
    <glyph glyph-name="Zacute" unicode="&#x179;" horiz-adv-x="450" 
d="M30 45l293 445h-230v-70h-53v120h360v-45l-293 -445h250v70h53v-120h-380v45zM260 690h70l-86 -110h-44z" />
    <glyph glyph-name="Zcaron" unicode="&#x17d;" horiz-adv-x="450" 
d="M30 45l293 445h-230v-70h-53v120h360v-45l-293 -445h250v70h53v-120h-380v45zM226 626l49 64h60l-85 -110h-50l-85 110h60l49 -64h2z" />
    <glyph glyph-name="Zdotaccent" unicode="&#x17b;" horiz-adv-x="450" 
d="M30 45l293 445h-230v-70h-53v120h360v-45l-293 -445h250v70h53v-120h-380v45zM182 621q0 21 11.5 32.5t31.5 11.5q19 0 31 -11.5t12 -30.5q0 -20 -12 -31.5t-32 -11.5q-19 0 -30.5 11.5t-11.5 29.5z" />
    <glyph glyph-name="Eng" unicode="&#x14a;" horiz-adv-x="540" 
d="M394 490h-60v50h176v-50h-60v-507q0 -63 -25 -98t-86 -35q-14 0 -29 3v52q13 -1 24 -1q33 0 46.5 15t13.5 61v20l-246 421h-2v-371h60v-50h-176v50h60v440h-60v50h120l242 -415h2v365z" />
    <glyph glyph-name="Eth" unicode="&#xd0;" horiz-adv-x="510" 
d="M30 300h60v190h-60v50h179q130 0 192 -64.5t62 -191.5q0 -140 -70.5 -212t-201.5 -72h-161v50h60v200h-60v50zM150 50h48q97 0 149.5 55t52.5 173q0 110 -48 161t-154 51h-48v-190h100v-50h-100v-200z" />
    <glyph glyph-name="Thorn" unicode="&#xde;" 
d="M30 50h60v440h-60v50h180v-50h-60v-50h61q88 0 130 -38.5t42 -111.5q0 -83 -47.5 -126.5t-138.5 -43.5h-47v-70h60v-50h-180v50zM200 170q58 0 89 26.5t31 86.5q0 61 -28 84t-87 23h-55v-220h50z" />
    <glyph glyph-name="IJ" unicode="&#x132;" horiz-adv-x="480" 
d="M30 50h60v440h-60v50h180v-50h-60v-440h60v-50h-180v50zM246 -95q13 -1 24 -1q33 0 46.5 15t13.5 61v510h-60v50h180v-50h-60v-503q0 -67 -25.5 -102t-88.5 -35q-15 0 -30 3v52z" />
    <glyph glyph-name="uni01320301" horiz-adv-x="480" 
d="M30 50h60v440h-60v50h180v-50h-60v-440h60v-50h-180v50zM155 690h70l-86 -110h-44zM246 -95q13 -1 24 -1q33 0 46.5 15t13.5 61v510h-60v50h180v-50h-60v-503q0 -67 -25.5 -102t-88.5 -35q-15 0 -30 3v52zM395 690h70l-86 -110h-44z" />
    <glyph glyph-name="a" unicode="a" horiz-adv-x="390" 
d="M60 361q69 39 141 39q62 0 95.5 -28.5t33.5 -90.5v-231h50v-50h-104l-3 45l-2 1q-48 -56 -118 -56q-52 0 -82.5 30.5t-30.5 77.5q0 63 54.5 94t158.5 31h17v59q0 37 -17.5 52.5t-58.5 15.5q-49 0 -82 -16v-54h-52v81zM246 180q-69 0 -106 -17.5t-37 -61.5q0 -32 18 -46.5
t46 -14.5q60 0 103 49v91h-24z" />
    <glyph glyph-name="b" unicode="b" 
d="M135 46q30 -6 59 -6q60 0 91.5 37t31.5 118q0 72 -24.5 113.5t-74.5 41.5q-44 0 -83 -33v-271zM135 365l2 -1q42 36 99 36q65 0 104.5 -55t39.5 -141q0 -100 -50.5 -157t-138.5 -57q-57 0 -116 19v541h-50v50h110v-235z" />
    <glyph glyph-name="c" unicode="c" horiz-adv-x="360" 
d="M320 15q-48 -25 -105 -25q-81 0 -128 52t-47 149q0 98 49.5 153.5t128.5 55.5q55 0 102 -23v-97h-53v61q-22 9 -54 9q-56 0 -83 -35.5t-27 -112.5q0 -82 29 -121t84 -39q54 0 104 27v-54z" />
    <glyph glyph-name="d" unicode="d" 
d="M230 550v50h120v-550h50v-50h-107l-3 34l-2 1q-42 -45 -100 -45q-68 0 -108 55t-40 144q0 94 48 152.5t124 58.5q38 0 76 -18l2 1v167h-60zM290 336q-37 14 -75 14q-57 0 -84.5 -37.5t-27.5 -116.5q0 -76 24.5 -116t75.5 -40q50 0 87 40v256z" />
    <glyph glyph-name="e" unicode="e" horiz-adv-x="360" 
d="M320 75v-54q-50 -31 -117 -31q-79 0 -123.5 53t-44.5 148q0 98 47 153.5t118 55.5q58 0 94 -46t36 -131v-31h-233q2 -70 27.5 -109t81.5 -41q62 0 114 33zM270 240q0 57 -21 83.5t-59 26.5q-37 0 -62 -27.5t-30 -82.5h172z" />
    <glyph glyph-name="f" unicode="f" horiz-adv-x="240" 
d="M292 500h-52v54q-15 3 -30 3q-37 0 -53.5 -20t-16.5 -65v-82h90v-50h-90v-290h50v-50h-160v50h50v290h-50v50h50v73q0 72 34.5 107t94.5 35q39 0 83 -15v-90z" />
    <glyph glyph-name="g" unicode="g" horiz-adv-x="360" 
d="M40 259q0 62 39 101.5t100 39.5q22 0 40 -5q16 -5 36 -5h95v-48h-57v-1q19 -33 19 -73q0 -66 -38.5 -107t-99.5 -41q-28 0 -50 8q-19 -22 -19 -42q0 -12 8 -19t25 -7h70q66 0 101.5 -27t35.5 -80q0 -65 -52 -104t-131 -39q-64 0 -103 30t-39 77q0 54 54 99q-24 20 -24 52
q0 40 43 76q-53 41 -53 115zM111 0q-31 -30 -31 -70q0 -34 22 -53.5t68 -19.5q54 0 84.5 22.5t30.5 58.5q0 31 -20.5 46.5t-56.5 15.5h-97zM102 264q0 -45 19 -70.5t57 -25.5q36 0 54 23t18 70q0 46 -18.5 67.5t-56.5 21.5q-36 0 -54.5 -21t-18.5 -65z" />
    <glyph glyph-name="h" unicode="h" 
d="M70 550h-50v50h110v-256h1q54 56 123 56q50 0 73 -28.5t23 -80.5v-241h50v-50h-150v50h40v233q0 40 -14 53.5t-39 13.5q-58 0 -107 -57v-243h40v-50h-150v50h50v500z" />
    <glyph glyph-name="i" unicode="i" horiz-adv-x="210" 
d="M30 50h50v290h-50v50h110v-340h50v-50h-160v50zM63 496q0 21 11.5 32.5t31.5 11.5q19 0 31 -11.5t12 -30.5q0 -20 -12 -31.5t-32 -11.5q-19 0 -30.5 11.5t-11.5 29.5z" />
    <glyph glyph-name="j" unicode="j" horiz-adv-x="180" 
d="M105 -149q-24 -33 -77 -33q-14 0 -28 2v50q8 -1 17 -1q31 0 42 16t11 57v398h-50v50h110v-439q0 -68 -25 -100zM53 496q0 21 11.5 32.5t31.5 11.5q19 0 31 -11.5t12 -30.5q0 -20 -12 -31.5t-32 -11.5q-19 0 -30.5 11.5t-11.5 29.5z" />
    <glyph glyph-name="k" unicode="k" horiz-adv-x="390" 
d="M30 50h50v500h-50v50h110v-550h40v-50h-150v50zM230 390h150v-50h-53l-114 -121l131 -169h46v-50h-155v50h37l1 2l-123 161l117 127h-37v50z" />
    <glyph glyph-name="l" unicode="l" horiz-adv-x="210" 
d="M30 50h50v500h-50v50h110v-550h50v-50h-160v50z" />
    <glyph glyph-name="m" unicode="m" horiz-adv-x="630" 
d="M30 50h50v290h-50v50h106l3 -52h1q53 62 121 62q72 0 87 -63h2q54 63 124 63q50 0 73 -28.5t23 -80.5v-241h50v-50h-150v50h40v233q0 40 -14 53.5t-39 13.5q-54 0 -102 -56v-244h40v-50h-140v50h40v233q0 40 -13.5 53.5t-37.5 13.5q-57 0 -104 -62v-238h40v-50h-150v50z
" />
    <glyph glyph-name="n" unicode="n" 
d="M30 50h50v290h-50v50h106l3 -52h1q54 62 124 62q50 0 73 -28.5t23 -80.5v-241h50v-50h-150v50h40v233q0 40 -14 53.5t-39 13.5q-58 0 -107 -62v-238h40v-50h-150v50z" />
    <glyph glyph-name="o" unicode="o" horiz-adv-x="390" 
d="M35 193q0 95 46.5 151t117.5 56t113.5 -52t42.5 -146q0 -96 -45 -154t-118 -58q-72 0 -114.5 55.5t-42.5 147.5zM98 202q0 -79 25.5 -120.5t73.5 -41.5q45 0 70 38.5t25 117.5q0 154 -98 154q-47 0 -71.5 -35.5t-24.5 -112.5z" />
    <glyph glyph-name="p" unicode="p" 
d="M132 390l3 -32h2q45 42 101 42q64 0 103 -52.5t39 -138.5q0 -98 -47.5 -158.5t-120.5 -60.5q-38 0 -75 18l-2 -1v-137h60v-50h-170v50h50v470h-50v50h107zM135 55q30 -15 70 -15q53 0 82.5 39t29.5 120q0 78 -26 114.5t-70 36.5q-48 0 -86 -43v-252z" />
    <glyph glyph-name="q" unicode="q" horiz-adv-x="390" 
d="M400 -130v-50h-170v50h60v162l-2 1q-41 -43 -101 -43q-66 0 -106.5 55t-40.5 142q0 95 48 154t137 59q54 0 125 -21v-509h50zM290 341q-38 9 -71 9q-58 0 -87 -37t-29 -118t27.5 -118t72.5 -37q50 0 87 38v263z" />
    <glyph glyph-name="r" unicode="r" horiz-adv-x="270" 
d="M30 50h50v290h-50v50h107l3 -56h2q19 32 42 47t55 15q12 0 21 -2v-63q-15 3 -31 3q-29 0 -50.5 -13.5t-38.5 -43.5v-227h60v-50h-170v50z" />
    <glyph glyph-name="s" unicode="s" horiz-adv-x="330" 
d="M154 -10q-62 0 -114 24v86h52v-52q30 -9 66 -9q45 0 63.5 15.5t18.5 43.5q0 26 -22 41.5t-69 32.5q-66 24 -90 51.5t-24 64.5q0 49 39 80.5t100 31.5q56 0 106 -24v-86h-52v53q-23 9 -57 9q-38 0 -57 -15.5t-19 -40.5t20.5 -39.5t64.5 -30.5q63 -22 91.5 -49t28.5 -72
q0 -52 -40 -83.5t-106 -31.5z" />
    <glyph glyph-name="t" unicode="t" horiz-adv-x="240" 
d="M163 -10q-43 0 -68 22.5t-25 66.5v261h-50v50h50v90l60 11v-101h90v-50h-90v-251q0 -29 11.5 -39t30.5 -10q24 0 48 12v-49q-27 -13 -57 -13z" />
    <glyph glyph-name="u" unicode="u" 
d="M290 340h-50v50h110v-340h50v-50h-105l-3 43h-2q-44 -53 -111 -53q-53 0 -81 28t-28 81v241h-50v50h110v-281q0 -40 17.5 -54.5t47.5 -14.5q58 0 95 47v253z" />
    <glyph glyph-name="v" unicode="v" horiz-adv-x="390" 
d="M218 -5h-57l-116 345h-45v50h150v-50h-44l87 -268h2l90 268h-45v50h150v-50h-50z" />
    <glyph glyph-name="w" unicode="w" horiz-adv-x="600" 
d="M433 -5h-57l-79 231h-2l-82 -231h-57l-111 345h-45v50h150v-50h-44l82 -268h2l82 224l-15 44h-47v50h160v-50h-54l92 -268h2l85 268h-45v50h150v-50h-50z" />
    <glyph glyph-name="x" unicode="x" horiz-adv-x="360" 
d="M254 338v2h-34v50h135v-50h-47l-99 -137l104 -153h47v-50h-150v50h35v2l-72 106l-74 -106v-2h41v-50h-140v50h45l104 146l-98 144h-46v50h145v-50h-32v-2l67 -98z" />
    <glyph glyph-name="y" unicode="y" horiz-adv-x="390" 
d="M340 340l-129 -365q-12 -35 -25.5 -64t-31 -50.5t-41.5 -32.5t-57 -11q-18 0 -36 3v55q19 -3 37 -3q16 0 29.5 3.5t25.5 14t25 35t29 70.5h-5l-116 345h-45v50h150v-50h-44l87 -268h2l91 268h-46v50h150v-50h-50z" />
    <glyph glyph-name="z" unicode="z" horiz-adv-x="360" 
d="M30 43l216 299h-164v-62h-52v110h290v-43l-215 -299h173v62h52v-110h-300v43z" />
    <glyph glyph-name="agrave" unicode="&#xe0;" horiz-adv-x="390" 
d="M60 361q69 39 141 39q62 0 95.5 -28.5t33.5 -90.5v-231h50v-50h-104l-3 45l-2 1q-48 -56 -118 -56q-52 0 -82.5 30.5t-30.5 77.5q0 63 54.5 94t158.5 31h17v59q0 37 -17.5 52.5t-58.5 15.5q-49 0 -82 -16v-54h-52v81zM246 180q-69 0 -106 -17.5t-37 -61.5q0 -32 18 -46.5
t46 -14.5q60 0 103 49v91h-24zM226 430h-46l-80 120h70z" />
    <glyph glyph-name="aacute" unicode="&#xe1;" horiz-adv-x="390" 
d="M60 361q69 39 141 39q62 0 95.5 -28.5t33.5 -90.5v-231h50v-50h-104l-3 45l-2 1q-48 -56 -118 -56q-52 0 -82.5 30.5t-30.5 77.5q0 63 54.5 94t158.5 31h17v59q0 37 -17.5 52.5t-58.5 15.5q-49 0 -82 -16v-54h-52v81zM246 180q-69 0 -106 -17.5t-37 -61.5q0 -32 18 -46.5
t46 -14.5q60 0 103 49v91h-24zM220 550h70l-80 -120h-46z" />
    <glyph glyph-name="acircumflex" unicode="&#xe2;" horiz-adv-x="390" 
d="M60 361q69 39 141 39q62 0 95.5 -28.5t33.5 -90.5v-231h50v-50h-104l-3 45l-2 1q-48 -56 -118 -56q-52 0 -82.5 30.5t-30.5 77.5q0 63 54.5 94t158.5 31h17v59q0 37 -17.5 52.5t-58.5 15.5q-49 0 -82 -16v-54h-52v81zM246 180q-69 0 -106 -17.5t-37 -61.5q0 -32 18 -46.5
t46 -14.5q60 0 103 49v91h-24zM194 505l-57 -75h-60l94 120h48l94 -120h-60l-57 75h-2z" />
    <glyph glyph-name="atilde" unicode="&#xe3;" horiz-adv-x="390" 
d="M60 361q69 39 141 39q62 0 95.5 -28.5t33.5 -90.5v-231h50v-50h-104l-3 45l-2 1q-48 -56 -118 -56q-52 0 -82.5 30.5t-30.5 77.5q0 63 54.5 94t158.5 31h17v59q0 37 -17.5 52.5t-58.5 15.5q-49 0 -82 -16v-54h-52v81zM246 180q-69 0 -106 -17.5t-37 -61.5q0 -32 18 -46.5
t46 -14.5q60 0 103 49v91h-24zM80 463v51q31 22 64 22q26 0 61 -18q25 -12 43 -12q32 0 60 24h2v-51q-31 -22 -64 -22q-26 0 -61 18q-25 12 -43 12q-32 0 -60 -24h-2z" />
    <glyph glyph-name="adieresis" unicode="&#xe4;" horiz-adv-x="390" 
d="M60 361q69 39 141 39q62 0 95.5 -28.5t33.5 -90.5v-231h50v-50h-104l-3 45l-2 1q-48 -56 -118 -56q-52 0 -82.5 30.5t-30.5 77.5q0 63 54.5 94t158.5 31h17v59q0 37 -17.5 52.5t-58.5 15.5q-49 0 -82 -16v-54h-52v81zM246 180q-69 0 -106 -17.5t-37 -61.5q0 -32 18 -46.5
t46 -14.5q60 0 103 49v91h-24zM80 496q0 20 12 32t30 12q20 0 31.5 -12t11.5 -31t-11.5 -30.5t-32.5 -11.5q-18 0 -29.5 11.5t-11.5 29.5zM225 496q0 20 12 32t30 12q20 0 31.5 -12t11.5 -31t-11.5 -30.5t-32.5 -11.5q-18 0 -29.5 11.5t-11.5 29.5z" />
    <glyph glyph-name="amacron" unicode="&#x101;" horiz-adv-x="390" 
d="M60 361q69 39 141 39q62 0 95.5 -28.5t33.5 -90.5v-231h50v-50h-104l-3 45l-2 1q-48 -56 -118 -56q-52 0 -82.5 30.5t-30.5 77.5q0 63 54.5 94t158.5 31h17v59q0 37 -17.5 52.5t-58.5 15.5q-49 0 -82 -16v-54h-52v81zM246 180q-69 0 -106 -17.5t-37 -61.5q0 -32 18 -46.5
t46 -14.5q60 0 103 49v91h-24zM90 510h210v-48h-210v48z" />
    <glyph glyph-name="abreve" unicode="&#x103;" horiz-adv-x="390" 
d="M60 361q69 39 141 39q62 0 95.5 -28.5t33.5 -90.5v-231h50v-50h-104l-3 45l-2 1q-48 -56 -118 -56q-52 0 -82.5 30.5t-30.5 77.5q0 63 54.5 94t158.5 31h17v59q0 37 -17.5 52.5t-58.5 15.5q-49 0 -82 -16v-54h-52v81zM246 180q-69 0 -106 -17.5t-37 -61.5q0 -32 18 -46.5
t46 -14.5q60 0 103 49v91h-24zM131 550q2 -35 19.5 -53.5t44.5 -18.5q28 0 45 19t20 53h43q-1 -55 -30.5 -87.5t-77.5 -32.5q-47 0 -76 32.5t-32 87.5h44z" />
    <glyph glyph-name="aring" unicode="&#xe5;" horiz-adv-x="390" 
d="M60 361q69 39 141 39q62 0 95.5 -28.5t33.5 -90.5v-231h50v-50h-104l-3 45l-2 1q-48 -56 -118 -56q-52 0 -82.5 30.5t-30.5 77.5q0 63 54.5 94t158.5 31h17v59q0 37 -17.5 52.5t-58.5 15.5q-49 0 -82 -16v-54h-52v81zM246 180q-69 0 -106 -17.5t-37 -61.5q0 -32 18 -46.5
t46 -14.5q60 0 103 49v91h-24zM120 495q0 30 21 47.5t55 17.5q36 0 55 -17.5t19 -46.5q0 -28 -20.5 -47t-56.5 -19q-34 0 -53.5 18.5t-19.5 46.5zM161 496q0 -18 9 -26.5t25 -8.5q15 0 24.5 9.5t9.5 25.5t-9.5 24.5t-24.5 8.5q-16 0 -25 -8.5t-9 -24.5z" />
    <glyph glyph-name="aogonek" unicode="&#x105;" horiz-adv-x="390" 
d="M60 361q69 39 141 39q62 0 95.5 -28.5t33.5 -90.5v-231h50v-50h-104l-3 45l-2 1q-48 -56 -118 -56q-52 0 -82.5 30.5t-30.5 77.5q0 63 54.5 94t158.5 31h17v59q0 37 -17.5 52.5t-58.5 15.5q-49 0 -82 -16v-54h-52v81zM246 180q-69 0 -106 -17.5t-37 -61.5q0 -32 18 -46.5
t46 -14.5q60 0 103 49v91h-24zM339 -135q21 0 41 10v-48q-22 -12 -49 -12q-36 0 -61 20.5t-25 56.5q0 55 59 106v10h55v-8q-59 -48 -59 -96q0 -21 11.5 -30t27.5 -9z" />
    <glyph glyph-name="ae" unicode="&#xe6;" horiz-adv-x="570" 
d="M530 75v-54q-48 -31 -112 -31q-86 0 -129 69h-2q-57 -69 -138 -69q-50 0 -79.5 30t-29.5 78q0 63 52 94t152 31h16v59q0 37 -16.5 52.5t-54.5 15.5q-46 0 -77 -16v-54h-52v81q66 39 136 39q83 0 108 -53h2q43 53 110 53q55 0 89.5 -46t34.5 -131v-31h-220q2 -70 26 -109
t77 -41q58 0 107 33zM237 180q-63 0 -97.5 -17.5t-34.5 -61.5q0 -31 16 -46t39 -15q62 -1 111 60q-11 33 -13 80h-21zM480 240q0 57 -19.5 83.5t-54.5 26.5q-34 0 -57 -27.5t-28 -82.5h159z" />
    <glyph glyph-name="cacute" unicode="&#x107;" horiz-adv-x="360" 
d="M320 15q-48 -25 -105 -25q-81 0 -128 52t-47 149q0 98 49.5 153.5t128.5 55.5q55 0 102 -23v-97h-53v61q-22 9 -54 9q-56 0 -83 -35.5t-27 -112.5q0 -82 29 -121t84 -39q54 0 104 27v-54zM235 550h70l-80 -120h-46z" />
    <glyph glyph-name="ccircumflex" unicode="&#x109;" horiz-adv-x="360" 
d="M320 15q-48 -25 -105 -25q-81 0 -128 52t-47 149q0 98 49.5 153.5t128.5 55.5q55 0 102 -23v-97h-53v61q-22 9 -54 9q-56 0 -83 -35.5t-27 -112.5q0 -82 29 -121t84 -39q54 0 104 27v-54zM209 505l-57 -75h-60l94 120h48l94 -120h-60l-57 75h-2z" />
    <glyph glyph-name="ccaron" unicode="&#x10d;" horiz-adv-x="360" 
d="M320 15q-48 -25 -105 -25q-81 0 -128 52t-47 149q0 98 49.5 153.5t128.5 55.5q55 0 102 -23v-97h-53v61q-22 9 -54 9q-56 0 -83 -35.5t-27 -112.5q0 -82 29 -121t84 -39q54 0 104 27v-54zM211 475l57 75h60l-94 -120h-48l-94 120h60l57 -75h2z" />
    <glyph glyph-name="cdotaccent" unicode="&#x10b;" horiz-adv-x="360" 
d="M320 15q-48 -25 -105 -25q-81 0 -128 52t-47 149q0 98 49.5 153.5t128.5 55.5q55 0 102 -23v-97h-53v61q-22 9 -54 9q-56 0 -83 -35.5t-27 -112.5q0 -82 29 -121t84 -39q54 0 104 27v-54zM167 496q0 21 11.5 32.5t31.5 11.5q19 0 31 -11.5t12 -30.5q0 -20 -12 -31.5
t-32 -11.5q-19 0 -30.5 11.5t-11.5 29.5z" />
    <glyph glyph-name="ccedilla" unicode="&#xe7;" horiz-adv-x="360" 
d="M320 15q-48 -25 -105 -25q-81 0 -128 52t-47 149q0 98 49.5 153.5t128.5 55.5q55 0 102 -23v-97h-53v61q-22 9 -54 9q-56 0 -83 -35.5t-27 -112.5q0 -82 29 -121t84 -39q54 0 104 27v-54zM135 -135q19 -4 39 -4q19 0 30 7.5t11 25.5q0 32 -57 32l30 82h46l-19 -52
q30 -7 42.5 -24.5t12.5 -39.5q0 -35 -26 -56t-68 -21q-20 0 -41 5v45z" />
    <glyph glyph-name="dcaron" unicode="&#x10f;" horiz-adv-x="480" 
d="M230 550v50h120v-550h50v-50h-107l-3 34l-2 1q-42 -45 -100 -45q-68 0 -108 55t-40 144q0 94 48 152.5t124 58.5q38 0 76 -18l2 1v167h-60zM290 336q-37 14 -75 14q-57 0 -84.5 -37.5t-27.5 -116.5q0 -76 24.5 -116t75.5 -40q50 0 87 40v256zM420 550h60l-40 -130h-42z
" />
    <glyph glyph-name="dcroat" unicode="&#x111;" 
d="M230 550v50h120v-104h50v-46h-50v-400h50v-50h-107l-3 34l-2 1q-42 -45 -100 -45q-68 0 -108 55t-40 144q0 94 48 152.5t124 58.5q38 0 76 -18l2 1v67h-110v46h110v54h-60zM290 336q-37 14 -75 14q-57 0 -84.5 -37.5t-27.5 -116.5q0 -76 24.5 -116t75.5 -40q50 0 87 40
v256z" />
    <glyph glyph-name="egrave" unicode="&#xe8;" horiz-adv-x="360" 
d="M320 75v-54q-50 -31 -117 -31q-79 0 -123.5 53t-44.5 148q0 98 47 153.5t118 55.5q58 0 94 -46t36 -131v-31h-233q2 -70 27.5 -109t81.5 -41q62 0 114 33zM270 240q0 57 -21 83.5t-59 26.5q-37 0 -62 -27.5t-30 -82.5h172zM226 430h-46l-80 120h70z" />
    <glyph glyph-name="eacute" unicode="&#xe9;" horiz-adv-x="360" 
d="M320 75v-54q-50 -31 -117 -31q-79 0 -123.5 53t-44.5 148q0 98 47 153.5t118 55.5q58 0 94 -46t36 -131v-31h-233q2 -70 27.5 -109t81.5 -41q62 0 114 33zM270 240q0 57 -21 83.5t-59 26.5q-37 0 -62 -27.5t-30 -82.5h172zM220 550h70l-80 -120h-46z" />
    <glyph glyph-name="ecircumflex" unicode="&#xea;" horiz-adv-x="360" 
d="M320 75v-54q-50 -31 -117 -31q-79 0 -123.5 53t-44.5 148q0 98 47 153.5t118 55.5q58 0 94 -46t36 -131v-31h-233q2 -70 27.5 -109t81.5 -41q62 0 114 33zM270 240q0 57 -21 83.5t-59 26.5q-37 0 -62 -27.5t-30 -82.5h172zM194 505l-57 -75h-60l94 120h48l94 -120h-60
l-57 75h-2z" />
    <glyph glyph-name="ecaron" unicode="&#x11b;" horiz-adv-x="360" 
d="M320 75v-54q-50 -31 -117 -31q-79 0 -123.5 53t-44.5 148q0 98 47 153.5t118 55.5q58 0 94 -46t36 -131v-31h-233q2 -70 27.5 -109t81.5 -41q62 0 114 33zM270 240q0 57 -21 83.5t-59 26.5q-37 0 -62 -27.5t-30 -82.5h172zM196 475l57 75h60l-94 -120h-48l-94 120h60
l57 -75h2z" />
    <glyph glyph-name="edieresis" unicode="&#xeb;" horiz-adv-x="360" 
d="M320 75v-54q-50 -31 -117 -31q-79 0 -123.5 53t-44.5 148q0 98 47 153.5t118 55.5q58 0 94 -46t36 -131v-31h-233q2 -70 27.5 -109t81.5 -41q62 0 114 33zM270 240q0 57 -21 83.5t-59 26.5q-37 0 -62 -27.5t-30 -82.5h172zM80 496q0 20 12 32t30 12q20 0 31.5 -12
t11.5 -31t-11.5 -30.5t-32.5 -11.5q-18 0 -29.5 11.5t-11.5 29.5zM225 496q0 20 12 32t30 12q20 0 31.5 -12t11.5 -31t-11.5 -30.5t-32.5 -11.5q-18 0 -29.5 11.5t-11.5 29.5z" />
    <glyph glyph-name="emacron" unicode="&#x113;" horiz-adv-x="360" 
d="M320 75v-54q-50 -31 -117 -31q-79 0 -123.5 53t-44.5 148q0 98 47 153.5t118 55.5q58 0 94 -46t36 -131v-31h-233q2 -70 27.5 -109t81.5 -41q62 0 114 33zM270 240q0 57 -21 83.5t-59 26.5q-37 0 -62 -27.5t-30 -82.5h172zM90 510h210v-48h-210v48z" />
    <glyph glyph-name="ebreve" unicode="&#x115;" horiz-adv-x="360" 
d="M320 75v-54q-50 -31 -117 -31q-79 0 -123.5 53t-44.5 148q0 98 47 153.5t118 55.5q58 0 94 -46t36 -131v-31h-233q2 -70 27.5 -109t81.5 -41q62 0 114 33zM270 240q0 57 -21 83.5t-59 26.5q-37 0 -62 -27.5t-30 -82.5h172zM131 550q2 -35 19.5 -53.5t44.5 -18.5
q28 0 45 19t20 53h43q-1 -55 -30.5 -87.5t-77.5 -32.5q-47 0 -76 32.5t-32 87.5h44z" />
    <glyph glyph-name="edotaccent" unicode="&#x117;" horiz-adv-x="360" 
d="M320 75v-54q-50 -31 -117 -31q-79 0 -123.5 53t-44.5 148q0 98 47 153.5t118 55.5q58 0 94 -46t36 -131v-31h-233q2 -70 27.5 -109t81.5 -41q62 0 114 33zM270 240q0 57 -21 83.5t-59 26.5q-37 0 -62 -27.5t-30 -82.5h172zM152 496q0 21 11.5 32.5t31.5 11.5
q19 0 31 -11.5t12 -30.5q0 -20 -12 -31.5t-32 -11.5q-19 0 -30.5 11.5t-11.5 29.5z" />
    <glyph glyph-name="eogonek" unicode="&#x119;" horiz-adv-x="360" 
d="M320 75v-54q-80 -59 -80 -117q0 -21 11.5 -30t27.5 -9q21 0 41 10v-48q-22 -12 -49 -12q-36 0 -61 20.5t-25 56.5q0 53 50 99v2q-17 -3 -32 -3q-79 0 -123.5 53t-44.5 148q0 98 47 153.5t118 55.5q58 0 94 -46t36 -131v-31h-233q2 -70 27.5 -109t81.5 -41q62 0 114 33z
M270 240q0 57 -21 83.5t-59 26.5q-37 0 -62 -27.5t-30 -82.5h172z" />
    <glyph glyph-name="gcircumflex" unicode="&#x11d;" horiz-adv-x="360" 
d="M40 259q0 62 39 101.5t100 39.5q22 0 40 -5q16 -5 36 -5h95v-48h-57v-1q19 -33 19 -73q0 -66 -38.5 -107t-99.5 -41q-28 0 -50 8q-19 -22 -19 -42q0 -12 8 -19t25 -7h70q66 0 101.5 -27t35.5 -80q0 -65 -52 -104t-131 -39q-64 0 -103 30t-39 77q0 54 54 99q-24 20 -24 52
q0 40 43 76q-53 41 -53 115zM111 0q-31 -30 -31 -70q0 -34 22 -53.5t68 -19.5q54 0 84.5 22.5t30.5 58.5q0 31 -20.5 46.5t-56.5 15.5h-97zM102 264q0 -45 19 -70.5t57 -25.5q36 0 54 23t18 70q0 46 -18.5 67.5t-56.5 21.5q-36 0 -54.5 -21t-18.5 -65zM179 505l-57 -75h-60
l94 120h48l94 -120h-60l-57 75h-2z" />
    <glyph glyph-name="gbreve" unicode="&#x11f;" horiz-adv-x="360" 
d="M40 259q0 62 39 101.5t100 39.5q22 0 40 -5q16 -5 36 -5h95v-48h-57v-1q19 -33 19 -73q0 -66 -38.5 -107t-99.5 -41q-28 0 -50 8q-19 -22 -19 -42q0 -12 8 -19t25 -7h70q66 0 101.5 -27t35.5 -80q0 -65 -52 -104t-131 -39q-64 0 -103 30t-39 77q0 54 54 99q-24 20 -24 52
q0 40 43 76q-53 41 -53 115zM111 0q-31 -30 -31 -70q0 -34 22 -53.5t68 -19.5q54 0 84.5 22.5t30.5 58.5q0 31 -20.5 46.5t-56.5 15.5h-97zM102 264q0 -45 19 -70.5t57 -25.5q36 0 54 23t18 70q0 46 -18.5 67.5t-56.5 21.5q-36 0 -54.5 -21t-18.5 -65zM116 550
q2 -35 19.5 -53.5t44.5 -18.5q28 0 45 19t20 53h43q-1 -55 -30.5 -87.5t-77.5 -32.5q-47 0 -76 32.5t-32 87.5h44z" />
    <glyph glyph-name="gdotaccent" unicode="&#x121;" horiz-adv-x="360" 
d="M40 259q0 62 39 101.5t100 39.5q22 0 40 -5q16 -5 36 -5h95v-48h-57v-1q19 -33 19 -73q0 -66 -38.5 -107t-99.5 -41q-28 0 -50 8q-19 -22 -19 -42q0 -12 8 -19t25 -7h70q66 0 101.5 -27t35.5 -80q0 -65 -52 -104t-131 -39q-64 0 -103 30t-39 77q0 54 54 99q-24 20 -24 52
q0 40 43 76q-53 41 -53 115zM111 0q-31 -30 -31 -70q0 -34 22 -53.5t68 -19.5q54 0 84.5 22.5t30.5 58.5q0 31 -20.5 46.5t-56.5 15.5h-97zM102 264q0 -45 19 -70.5t57 -25.5q36 0 54 23t18 70q0 46 -18.5 67.5t-56.5 21.5q-36 0 -54.5 -21t-18.5 -65zM137 496
q0 21 11.5 32.5t31.5 11.5q19 0 31 -11.5t12 -30.5q0 -20 -12 -31.5t-32 -11.5q-19 0 -30.5 11.5t-11.5 29.5z" />
    <glyph glyph-name="gcommaaccent" unicode="&#x123;" horiz-adv-x="360" 
d="M40 259q0 62 39 101.5t100 39.5q22 0 40 -5q16 -5 36 -5h95v-48h-57v-1q19 -33 19 -73q0 -66 -38.5 -107t-99.5 -41q-28 0 -50 8q-19 -22 -19 -42q0 -12 8 -19t25 -7h70q66 0 101.5 -27t35.5 -80q0 -65 -52 -104t-131 -39q-64 0 -103 30t-39 77q0 54 54 99q-24 20 -24 52
q0 40 43 76q-53 41 -53 115zM111 0q-31 -30 -31 -70q0 -34 22 -53.5t68 -19.5q54 0 84.5 22.5t30.5 58.5q0 31 -20.5 46.5t-56.5 15.5h-97zM102 264q0 -45 19 -70.5t57 -25.5q36 0 54 23t18 70q0 46 -18.5 67.5t-56.5 21.5q-36 0 -54.5 -21t-18.5 -65zM210 430h-63l41 120
h41z" />
    <glyph glyph-name="hcircumflex" unicode="&#x125;" 
d="M70 550h-50v50h110v-256h1q54 56 123 56q50 0 73 -28.5t23 -80.5v-241h50v-50h-150v50h40v233q0 40 -14 53.5t-39 13.5q-58 0 -107 -57v-243h40v-50h-150v50h50v500zM209 694l-49 -64h-60l85 110h50l85 -110h-60l-49 64h-2z" />
    <glyph glyph-name="hbar" unicode="&#x127;" 
d="M70 450h-50v46h50v54h-50v50h110v-104h110v-46h-110v-106h1q54 56 123 56q50 0 73 -28.5t23 -80.5v-241h50v-50h-150v50h40v233q0 40 -14 53.5t-39 13.5q-58 0 -107 -57v-243h40v-50h-150v50h50v400z" />
    <glyph glyph-name="i.TRK" horiz-adv-x="210" 
d="M30 50h50v290h-50v50h110v-340h50v-50h-160v50zM63 496q0 21 11.5 32.5t31.5 11.5q19 0 31 -11.5t12 -30.5q0 -20 -12 -31.5t-32 -11.5q-19 0 -30.5 11.5t-11.5 29.5z" />
    <glyph glyph-name="dotlessi" unicode="&#x131;" horiz-adv-x="210" 
d="M30 50h50v290h-50v50h110v-340h50v-50h-160v50z" />
    <glyph glyph-name="igrave" unicode="&#xec;" horiz-adv-x="210" 
d="M30 50h50v290h-50v50h110v-340h50v-50h-160v50zM136 430h-46l-80 120h70z" />
    <glyph glyph-name="iacute" unicode="&#xed;" horiz-adv-x="210" 
d="M30 50h50v290h-50v50h110v-340h50v-50h-160v50zM130 550h70l-80 -120h-46z" />
    <glyph glyph-name="icircumflex" unicode="&#xee;" horiz-adv-x="210" 
d="M30 50h50v290h-50v50h110v-340h50v-50h-160v50zM104 505l-57 -75h-60l94 120h48l94 -120h-60l-57 75h-2z" />
    <glyph glyph-name="itilde" unicode="&#x129;" horiz-adv-x="210" 
d="M30 50h50v290h-50v50h110v-340h50v-50h-160v50zM-10 463v51q31 22 64 22q26 0 61 -18q25 -12 43 -12q32 0 60 24h2v-51q-31 -22 -64 -22q-26 0 -61 18q-25 12 -43 12q-32 0 -60 -24h-2z" />
    <glyph glyph-name="idieresis" unicode="&#xef;" horiz-adv-x="210" 
d="M30 50h50v290h-50v50h110v-340h50v-50h-160v50zM-10 496q0 20 12 32t30 12q20 0 31.5 -12t11.5 -31t-11.5 -30.5t-32.5 -11.5q-18 0 -29.5 11.5t-11.5 29.5zM135 496q0 20 12 32t30 12q20 0 31.5 -12t11.5 -31t-11.5 -30.5t-32.5 -11.5q-18 0 -29.5 11.5t-11.5 29.5z" />
    <glyph glyph-name="imacron" unicode="&#x12b;" horiz-adv-x="210" 
d="M30 50h50v290h-50v50h110v-340h50v-50h-160v50zM0 510h210v-48h-210v48z" />
    <glyph glyph-name="ibreve" unicode="&#x12d;" horiz-adv-x="210" 
d="M30 50h50v290h-50v50h110v-340h50v-50h-160v50zM41 550q2 -35 19.5 -53.5t44.5 -18.5q28 0 45 19t20 53h43q-1 -55 -30.5 -87.5t-77.5 -32.5q-47 0 -76 32.5t-32 87.5h44z" />
    <glyph glyph-name="iogonek" unicode="&#x12f;" horiz-adv-x="210" 
d="M30 50h50v290h-50v50h110v-340h50v-50h-160v50zM63 496q0 21 11.5 32.5t31.5 11.5q19 0 31 -11.5t12 -30.5q0 -20 -12 -31.5t-32 -11.5q-19 0 -30.5 11.5t-11.5 29.5zM149 -135q21 0 41 10v-48q-22 -12 -49 -12q-36 0 -61 20.5t-25 56.5q0 55 59 106v10h55v-8
q-59 -48 -59 -96q0 -21 11.5 -30t27.5 -9z" />
    <glyph glyph-name="uni0237" unicode="&#x237;" horiz-adv-x="180" 
d="M105 -149q-24 -33 -77 -33q-14 0 -28 2v50q8 -1 17 -1q31 0 42 16t11 57v398h-50v50h110v-439q0 -68 -25 -100z" />
    <glyph glyph-name="jcircumflex" unicode="&#x135;" horiz-adv-x="180" 
d="M105 -149q-24 -33 -77 -33q-14 0 -28 2v50q8 -1 17 -1q31 0 42 16t11 57v398h-50v50h110v-439q0 -68 -25 -100zM89 505l-57 -75h-60l94 120h48l94 -120h-60l-57 75h-2z" />
    <glyph glyph-name="kcommaaccent" unicode="&#x137;" horiz-adv-x="390" 
d="M30 50h50v500h-50v50h110v-550h40v-50h-150v50zM230 390h150v-50h-53l-114 -121l131 -169h46v-50h-155v50h37l1 2l-123 161l117 127h-37v50zM180 -40h63l-41 -120h-41z" />
    <glyph glyph-name="lacute" unicode="&#x13a;" horiz-adv-x="210" 
d="M30 50h50v500h-50v50h110v-550h50v-50h-160v50zM140 740h70l-86 -110h-44z" />
    <glyph glyph-name="lcaron" unicode="&#x13e;" horiz-adv-x="270" 
d="M30 50h50v500h-50v50h110v-550h50v-50h-160v50zM210 550h60l-40 -130h-42z" />
    <glyph glyph-name="lcommaaccent" unicode="&#x13c;" horiz-adv-x="210" 
d="M30 50h50v500h-50v50h110v-550h50v-50h-160v50zM80 -40h63l-41 -120h-41z" />
    <glyph glyph-name="lslash" unicode="&#x142;" horiz-adv-x="210" 
d="M30 50h50v258l-60 -22v52l60 22v190h-50v50h110v-222l60 22v-52l-60 -22v-276h50v-50h-160v50z" />
    <glyph glyph-name="ldot" unicode="&#x140;" horiz-adv-x="240" 
d="M190 299q0 20 10.5 31t29.5 11q18 0 29 -11t11 -29q0 -19 -11 -30t-30 -11q-18 0 -28.5 11t-10.5 28zM30 50h50v500h-50v50h110v-550h50v-50h-160v50z" />
    <glyph glyph-name="nacute" unicode="&#x144;" 
d="M30 50h50v290h-50v50h106l3 -52h1q54 62 124 62q50 0 73 -28.5t23 -80.5v-241h50v-50h-150v50h40v233q0 40 -14 53.5t-39 13.5q-58 0 -107 -62v-238h40v-50h-150v50zM250 550h70l-80 -120h-46z" />
    <glyph glyph-name="ncaron" unicode="&#x148;" 
d="M30 50h50v290h-50v50h106l3 -52h1q54 62 124 62q50 0 73 -28.5t23 -80.5v-241h50v-50h-150v50h40v233q0 40 -14 53.5t-39 13.5q-58 0 -107 -62v-238h40v-50h-150v50zM226 475l57 75h60l-94 -120h-48l-94 120h60l57 -75h2z" />
    <glyph glyph-name="ntilde" unicode="&#xf1;" 
d="M30 50h50v290h-50v50h106l3 -52h1q54 62 124 62q50 0 73 -28.5t23 -80.5v-241h50v-50h-150v50h40v233q0 40 -14 53.5t-39 13.5q-58 0 -107 -62v-238h40v-50h-150v50zM110 463v51q31 22 64 22q26 0 61 -18q25 -12 43 -12q32 0 60 24h2v-51q-31 -22 -64 -22q-26 0 -61 18
q-25 12 -43 12q-32 0 -60 -24h-2z" />
    <glyph glyph-name="ncommaaccent" unicode="&#x146;" 
d="M30 50h50v290h-50v50h106l3 -52h1q54 62 124 62q50 0 73 -28.5t23 -80.5v-241h50v-50h-150v50h40v233q0 40 -14 53.5t-39 13.5q-58 0 -107 -62v-238h40v-50h-150v50zM190 -40h63l-41 -120h-41z" />
    <glyph glyph-name="ograve" unicode="&#xf2;" horiz-adv-x="390" 
d="M35 193q0 95 46.5 151t117.5 56t113.5 -52t42.5 -146q0 -96 -45 -154t-118 -58q-72 0 -114.5 55.5t-42.5 147.5zM98 202q0 -79 25.5 -120.5t73.5 -41.5q45 0 70 38.5t25 117.5q0 154 -98 154q-47 0 -71.5 -35.5t-24.5 -112.5zM226 430h-46l-80 120h70z" />
    <glyph glyph-name="oacute" unicode="&#xf3;" horiz-adv-x="390" 
d="M35 193q0 95 46.5 151t117.5 56t113.5 -52t42.5 -146q0 -96 -45 -154t-118 -58q-72 0 -114.5 55.5t-42.5 147.5zM98 202q0 -79 25.5 -120.5t73.5 -41.5q45 0 70 38.5t25 117.5q0 154 -98 154q-47 0 -71.5 -35.5t-24.5 -112.5zM220 550h70l-80 -120h-46z" />
    <glyph glyph-name="ocircumflex" unicode="&#xf4;" horiz-adv-x="390" 
d="M35 193q0 95 46.5 151t117.5 56t113.5 -52t42.5 -146q0 -96 -45 -154t-118 -58q-72 0 -114.5 55.5t-42.5 147.5zM98 202q0 -79 25.5 -120.5t73.5 -41.5q45 0 70 38.5t25 117.5q0 154 -98 154q-47 0 -71.5 -35.5t-24.5 -112.5zM194 505l-57 -75h-60l94 120h48l94 -120h-60
l-57 75h-2z" />
    <glyph glyph-name="otilde" unicode="&#xf5;" horiz-adv-x="390" 
d="M35 193q0 95 46.5 151t117.5 56t113.5 -52t42.5 -146q0 -96 -45 -154t-118 -58q-72 0 -114.5 55.5t-42.5 147.5zM98 202q0 -79 25.5 -120.5t73.5 -41.5q45 0 70 38.5t25 117.5q0 154 -98 154q-47 0 -71.5 -35.5t-24.5 -112.5zM80 463v51q31 22 64 22q26 0 61 -18
q25 -12 43 -12q32 0 60 24h2v-51q-31 -22 -64 -22q-26 0 -61 18q-25 12 -43 12q-32 0 -60 -24h-2z" />
    <glyph glyph-name="odieresis" unicode="&#xf6;" horiz-adv-x="390" 
d="M35 193q0 95 46.5 151t117.5 56t113.5 -52t42.5 -146q0 -96 -45 -154t-118 -58q-72 0 -114.5 55.5t-42.5 147.5zM98 202q0 -79 25.5 -120.5t73.5 -41.5q45 0 70 38.5t25 117.5q0 154 -98 154q-47 0 -71.5 -35.5t-24.5 -112.5zM80 496q0 20 12 32t30 12q20 0 31.5 -12
t11.5 -31t-11.5 -30.5t-32.5 -11.5q-18 0 -29.5 11.5t-11.5 29.5zM225 496q0 20 12 32t30 12q20 0 31.5 -12t11.5 -31t-11.5 -30.5t-32.5 -11.5q-18 0 -29.5 11.5t-11.5 29.5z" />
    <glyph glyph-name="omacron" unicode="&#x14d;" horiz-adv-x="390" 
d="M35 193q0 95 46.5 151t117.5 56t113.5 -52t42.5 -146q0 -96 -45 -154t-118 -58q-72 0 -114.5 55.5t-42.5 147.5zM98 202q0 -79 25.5 -120.5t73.5 -41.5q45 0 70 38.5t25 117.5q0 154 -98 154q-47 0 -71.5 -35.5t-24.5 -112.5zM90 510h210v-48h-210v48z" />
    <glyph glyph-name="obreve" unicode="&#x14f;" horiz-adv-x="390" 
d="M35 193q0 95 46.5 151t117.5 56t113.5 -52t42.5 -146q0 -96 -45 -154t-118 -58q-72 0 -114.5 55.5t-42.5 147.5zM98 202q0 -79 25.5 -120.5t73.5 -41.5q45 0 70 38.5t25 117.5q0 154 -98 154q-47 0 -71.5 -35.5t-24.5 -112.5zM131 550q2 -35 19.5 -53.5t44.5 -18.5
q28 0 45 19t20 53h43q-1 -55 -30.5 -87.5t-77.5 -32.5q-47 0 -76 32.5t-32 87.5h44z" />
    <glyph glyph-name="ohungarumlaut" unicode="&#x151;" horiz-adv-x="390" 
d="M35 193q0 95 46.5 151t117.5 56t113.5 -52t42.5 -146q0 -96 -45 -154t-118 -58q-72 0 -114.5 55.5t-42.5 147.5zM98 202q0 -79 25.5 -120.5t73.5 -41.5q45 0 70 38.5t25 117.5q0 154 -98 154q-47 0 -71.5 -35.5t-24.5 -112.5zM169 550h63l-73 -120h-45zM274 550h65
l-80 -120h-44z" />
    <glyph glyph-name="oslash" unicode="&#xf8;" horiz-adv-x="390" 
d="M35 193q0 92 46 149.5t118 57.5q49 0 85 -26l32 51l34 -20l-37 -59q42 -53 42 -144q0 -94 -45 -153t-118 -59q-49 0 -85 27l-32 -52l-35 20l38 61q-43 56 -43 147zM98 202q0 -60 16 -100l141 225q-24 23 -61 23q-45 0 -70.5 -35t-25.5 -113zM197 40q45 0 70 39.5
t25 116.5q0 57 -14 93l-141 -224q23 -25 60 -25z" />
    <glyph glyph-name="oe" unicode="&#x153;" horiz-adv-x="600" 
d="M570 192h-229q2 -70 27 -109t81 -41q61 0 111 33v-54q-48 -31 -115 -31q-93 0 -134 75h-2q-44 -75 -123 -75q-68 0 -109.5 56t-41.5 147q0 92 44.5 149.5t113.5 57.5q80 0 120 -72h2q47 72 127 72q58 0 93 -46t35 -131v-31zM98 202q0 -77 24 -119.5t69 -42.5
q42 0 65.5 39.5t23.5 116.5q0 75 -23 114.5t-69 39.5q-42 0 -66 -35t-24 -113zM510 240q0 57 -20 83.5t-58 26.5q-36 0 -60.5 -27.5t-29.5 -82.5h168z" />
    <glyph glyph-name="racute" unicode="&#x155;" horiz-adv-x="270" 
d="M30 50h50v290h-50v50h107l3 -56h2q19 32 42 47t55 15q12 0 21 -2v-63q-15 3 -31 3q-29 0 -50.5 -13.5t-38.5 -43.5v-227h60v-50h-170v50zM175 550h70l-80 -120h-46z" />
    <glyph glyph-name="rcaron" unicode="&#x159;" horiz-adv-x="270" 
d="M30 50h50v290h-50v50h107l3 -56h2q19 32 42 47t55 15q12 0 21 -2v-63q-15 3 -31 3q-29 0 -50.5 -13.5t-38.5 -43.5v-227h60v-50h-170v50zM151 475l57 75h60l-94 -120h-48l-94 120h60l57 -75h2z" />
    <glyph glyph-name="rcommaaccent" unicode="&#x157;" horiz-adv-x="270" 
d="M30 50h50v290h-50v50h107l3 -56h2q19 32 42 47t55 15q12 0 21 -2v-63q-15 3 -31 3q-29 0 -50.5 -13.5t-38.5 -43.5v-227h60v-50h-170v50zM80 -40h63l-41 -120h-41z" />
    <glyph glyph-name="sacute" unicode="&#x15b;" horiz-adv-x="330" 
d="M154 -10q-62 0 -114 24v86h52v-52q30 -9 66 -9q45 0 63.5 15.5t18.5 43.5q0 26 -22 41.5t-69 32.5q-66 24 -90 51.5t-24 64.5q0 49 39 80.5t100 31.5q56 0 106 -24v-86h-52v53q-23 9 -57 9q-38 0 -57 -15.5t-19 -40.5t20.5 -39.5t64.5 -30.5q63 -22 91.5 -49t28.5 -72
q0 -52 -40 -83.5t-106 -31.5zM190 550h70l-80 -120h-46z" />
    <glyph glyph-name="scircumflex" unicode="&#x15d;" horiz-adv-x="330" 
d="M154 -10q-62 0 -114 24v86h52v-52q30 -9 66 -9q45 0 63.5 15.5t18.5 43.5q0 26 -22 41.5t-69 32.5q-66 24 -90 51.5t-24 64.5q0 49 39 80.5t100 31.5q56 0 106 -24v-86h-52v53q-23 9 -57 9q-38 0 -57 -15.5t-19 -40.5t20.5 -39.5t64.5 -30.5q63 -22 91.5 -49t28.5 -72
q0 -52 -40 -83.5t-106 -31.5zM164 505l-57 -75h-60l94 120h48l94 -120h-60l-57 75h-2z" />
    <glyph glyph-name="scaron" unicode="&#x161;" horiz-adv-x="330" 
d="M154 -10q-62 0 -114 24v86h52v-52q30 -9 66 -9q45 0 63.5 15.5t18.5 43.5q0 26 -22 41.5t-69 32.5q-66 24 -90 51.5t-24 64.5q0 49 39 80.5t100 31.5q56 0 106 -24v-86h-52v53q-23 9 -57 9q-38 0 -57 -15.5t-19 -40.5t20.5 -39.5t64.5 -30.5q63 -22 91.5 -49t28.5 -72
q0 -52 -40 -83.5t-106 -31.5zM166 475l57 75h60l-94 -120h-48l-94 120h60l57 -75h2z" />
    <glyph glyph-name="scommaaccent" unicode="&#x219;" horiz-adv-x="330" 
d="M154 -10q-62 0 -114 24v86h52v-52q30 -9 66 -9q45 0 63.5 15.5t18.5 43.5q0 26 -22 41.5t-69 32.5q-66 24 -90 51.5t-24 64.5q0 49 39 80.5t100 31.5q56 0 106 -24v-86h-52v53q-23 9 -57 9q-38 0 -57 -15.5t-19 -40.5t20.5 -39.5t64.5 -30.5q63 -22 91.5 -49t28.5 -72
q0 -52 -40 -83.5t-106 -31.5zM135 -40h63l-41 -120h-41z" />
    <glyph glyph-name="scedilla" unicode="&#x15f;" horiz-adv-x="330" 
d="M154 -10q-62 0 -114 24v86h52v-52q30 -9 66 -9q45 0 63.5 15.5t18.5 43.5q0 26 -22 41.5t-69 32.5q-66 24 -90 51.5t-24 64.5q0 49 39 80.5t100 31.5q56 0 106 -24v-86h-52v53q-23 9 -57 9q-38 0 -57 -15.5t-19 -40.5t20.5 -39.5t64.5 -30.5q63 -22 91.5 -49t28.5 -72
q0 -52 -40 -83.5t-106 -31.5zM90 -135q19 -4 39 -4q19 0 30 7.5t11 25.5q0 32 -57 32l30 82h46l-19 -52q30 -7 42.5 -24.5t12.5 -39.5q0 -35 -26 -56t-68 -21q-20 0 -41 5v45z" />
    <glyph glyph-name="germandbls" unicode="&#xdf;" horiz-adv-x="450" 
d="M140 0h-110v50h50v290h-50v50h50v65q0 71 46 110.5t119 39.5q66 0 105.5 -32.5t39.5 -87.5q0 -27 -7 -45.5t-18 -32t-24.5 -23t-26.5 -17.5q-29 -17 -41.5 -30t-12.5 -33q0 -23 20 -39.5t55 -35.5q16 -9 30.5 -19t27 -23.5t20 -32t7.5 -42.5q0 -57 -37.5 -89.5
t-99.5 -32.5q-37 0 -73 10v53q37 -13 73 -13q40 0 58.5 15.5t18.5 46.5q0 26 -16 42.5t-49 34.5q-18 10 -34.5 21t-29 24t-20.5 30.5t-8 39.5q0 23 6 38t15 26.5t22 22t27 19.5t24.5 16.5t18 17t11.5 21t4 27.5q0 37 -22.5 56t-68.5 19q-47 0 -73.5 -22t-26.5 -71v-464z" />
    <glyph glyph-name="tcaron" unicode="&#x165;" horiz-adv-x="270" 
d="M163 -10q-43 0 -68 22.5t-25 66.5v261h-50v50h50v90l60 11v-101h90v-50h-90v-251q0 -29 11.5 -39t30.5 -10q24 0 48 12v-49q-27 -13 -57 -13zM210 550h60l-40 -130h-42z" />
    <glyph glyph-name="tcommaaccent" unicode="&#x21b;" horiz-adv-x="240" 
d="M163 -10q-43 0 -68 22.5t-25 66.5v261h-50v50h50v90l60 11v-101h90v-50h-90v-251q0 -29 11.5 -39t30.5 -10q24 0 48 12v-49q-27 -13 -57 -13zM120 -40h63l-41 -120h-41z" />
    <glyph glyph-name="tcedilla" unicode="&#x163;" horiz-adv-x="240" 
d="M163 -10q-43 0 -68 22.5t-25 66.5v261h-50v50h50v90l60 11v-101h90v-50h-90v-251q0 -29 11.5 -39t30.5 -10q24 0 48 12v-49q-27 -13 -57 -13zM75 -135q19 -4 39 -4q19 0 30 7.5t11 25.5q0 32 -57 32l30 82h46l-19 -52q30 -7 42.5 -24.5t12.5 -39.5q0 -35 -26 -56t-68 -21
q-20 0 -41 5v45z" />
    <glyph glyph-name="tbar" unicode="&#x167;" horiz-adv-x="240" 
d="M163 -10q-43 0 -68 22.5t-25 66.5v141h-50v50h50v70h-50v50h50v90l60 11v-101h80v-50h-80v-70h80v-50h-80v-131q0 -29 11.5 -39t30.5 -10q24 0 48 12v-49q-27 -13 -57 -13z" />
    <glyph glyph-name="ugrave" unicode="&#xf9;" 
d="M290 340h-50v50h110v-340h50v-50h-105l-3 43h-2q-44 -53 -111 -53q-53 0 -81 28t-28 81v241h-50v50h110v-281q0 -40 17.5 -54.5t47.5 -14.5q58 0 95 47v253zM226 430h-46l-80 120h70z" />
    <glyph glyph-name="uacute" unicode="&#xfa;" 
d="M290 340h-50v50h110v-340h50v-50h-105l-3 43h-2q-44 -53 -111 -53q-53 0 -81 28t-28 81v241h-50v50h110v-281q0 -40 17.5 -54.5t47.5 -14.5q58 0 95 47v253zM220 550h70l-80 -120h-46z" />
    <glyph glyph-name="ucircumflex" unicode="&#xfb;" 
d="M290 340h-50v50h110v-340h50v-50h-105l-3 43h-2q-44 -53 -111 -53q-53 0 -81 28t-28 81v241h-50v50h110v-281q0 -40 17.5 -54.5t47.5 -14.5q58 0 95 47v253zM194 505l-57 -75h-60l94 120h48l94 -120h-60l-57 75h-2z" />
    <glyph glyph-name="utilde" unicode="&#x169;" 
d="M290 340h-50v50h110v-340h50v-50h-105l-3 43h-2q-44 -53 -111 -53q-53 0 -81 28t-28 81v241h-50v50h110v-281q0 -40 17.5 -54.5t47.5 -14.5q58 0 95 47v253zM80 463v51q31 22 64 22q26 0 61 -18q25 -12 43 -12q32 0 60 24h2v-51q-31 -22 -64 -22q-26 0 -61 18
q-25 12 -43 12q-32 0 -60 -24h-2z" />
    <glyph glyph-name="udieresis" unicode="&#xfc;" 
d="M290 340h-50v50h110v-340h50v-50h-105l-3 43h-2q-44 -53 -111 -53q-53 0 -81 28t-28 81v241h-50v50h110v-281q0 -40 17.5 -54.5t47.5 -14.5q58 0 95 47v253zM80 496q0 20 12 32t30 12q20 0 31.5 -12t11.5 -31t-11.5 -30.5t-32.5 -11.5q-18 0 -29.5 11.5t-11.5 29.5z
M225 496q0 20 12 32t30 12q20 0 31.5 -12t11.5 -31t-11.5 -30.5t-32.5 -11.5q-18 0 -29.5 11.5t-11.5 29.5z" />
    <glyph glyph-name="umacron" unicode="&#x16b;" 
d="M290 340h-50v50h110v-340h50v-50h-105l-3 43h-2q-44 -53 -111 -53q-53 0 -81 28t-28 81v241h-50v50h110v-281q0 -40 17.5 -54.5t47.5 -14.5q58 0 95 47v253zM90 510h210v-48h-210v48z" />
    <glyph glyph-name="ubreve" unicode="&#x16d;" 
d="M290 340h-50v50h110v-340h50v-50h-105l-3 43h-2q-44 -53 -111 -53q-53 0 -81 28t-28 81v241h-50v50h110v-281q0 -40 17.5 -54.5t47.5 -14.5q58 0 95 47v253zM131 550q2 -35 19.5 -53.5t44.5 -18.5q28 0 45 19t20 53h43q-1 -55 -30.5 -87.5t-77.5 -32.5q-47 0 -76 32.5
t-32 87.5h44z" />
    <glyph glyph-name="uring" unicode="&#x16f;" 
d="M290 340h-50v50h110v-340h50v-50h-105l-3 43h-2q-44 -53 -111 -53q-53 0 -81 28t-28 81v241h-50v50h110v-281q0 -40 17.5 -54.5t47.5 -14.5q58 0 95 47v253zM120 495q0 30 21 47.5t55 17.5q36 0 55 -17.5t19 -46.5q0 -28 -20.5 -47t-56.5 -19q-34 0 -53.5 18.5
t-19.5 46.5zM161 496q0 -18 9 -26.5t25 -8.5q15 0 24.5 9.5t9.5 25.5t-9.5 24.5t-24.5 8.5q-16 0 -25 -8.5t-9 -24.5z" />
    <glyph glyph-name="uhungarumlaut" unicode="&#x171;" 
d="M290 340h-50v50h110v-340h50v-50h-105l-3 43h-2q-44 -53 -111 -53q-53 0 -81 28t-28 81v241h-50v50h110v-281q0 -40 17.5 -54.5t47.5 -14.5q58 0 95 47v253zM169 550h63l-73 -120h-45zM274 550h65l-80 -120h-44z" />
    <glyph glyph-name="uogonek" unicode="&#x173;" 
d="M290 340h-50v50h110v-340h50v-50h-105l-3 43h-2q-44 -53 -111 -53q-53 0 -81 28t-28 81v241h-50v50h110v-281q0 -40 17.5 -54.5t47.5 -14.5q58 0 95 47v253zM359 -135q21 0 41 10v-48q-22 -12 -49 -12q-36 0 -61 20.5t-25 56.5q0 55 59 106v10h55v-8q-59 -48 -59 -96
q0 -21 11.5 -30t27.5 -9z" />
    <glyph glyph-name="wgrave" unicode="&#x1e81;" horiz-adv-x="600" 
d="M433 -5h-57l-79 231h-2l-82 -231h-57l-111 345h-45v50h150v-50h-44l82 -268h2l82 224l-15 44h-47v50h160v-50h-54l92 -268h2l85 268h-45v50h150v-50h-50zM331 430h-46l-80 120h70z" />
    <glyph glyph-name="wacute" unicode="&#x1e83;" horiz-adv-x="600" 
d="M433 -5h-57l-79 231h-2l-82 -231h-57l-111 345h-45v50h150v-50h-44l82 -268h2l82 224l-15 44h-47v50h160v-50h-54l92 -268h2l85 268h-45v50h150v-50h-50zM325 550h70l-80 -120h-46z" />
    <glyph glyph-name="wcircumflex" unicode="&#x175;" horiz-adv-x="600" 
d="M433 -5h-57l-79 231h-2l-82 -231h-57l-111 345h-45v50h150v-50h-44l82 -268h2l82 224l-15 44h-47v50h160v-50h-54l92 -268h2l85 268h-45v50h150v-50h-50zM299 505l-57 -75h-60l94 120h48l94 -120h-60l-57 75h-2z" />
    <glyph glyph-name="wdieresis" unicode="&#x1e85;" horiz-adv-x="600" 
d="M433 -5h-57l-79 231h-2l-82 -231h-57l-111 345h-45v50h150v-50h-44l82 -268h2l82 224l-15 44h-47v50h160v-50h-54l92 -268h2l85 268h-45v50h150v-50h-50zM185 496q0 20 12 32t30 12q20 0 31.5 -12t11.5 -31t-11.5 -30.5t-32.5 -11.5q-18 0 -29.5 11.5t-11.5 29.5z
M330 496q0 20 12 32t30 12q20 0 31.5 -12t11.5 -31t-11.5 -30.5t-32.5 -11.5q-18 0 -29.5 11.5t-11.5 29.5z" />
    <glyph glyph-name="ygrave" unicode="&#x1ef3;" horiz-adv-x="390" 
d="M340 340l-129 -365q-12 -35 -25.5 -64t-31 -50.5t-41.5 -32.5t-57 -11q-18 0 -36 3v55q19 -3 37 -3q16 0 29.5 3.5t25.5 14t25 35t29 70.5h-5l-116 345h-45v50h150v-50h-44l87 -268h2l91 268h-46v50h150v-50h-50zM226 430h-46l-80 120h70z" />
    <glyph glyph-name="yacute" unicode="&#xfd;" horiz-adv-x="390" 
d="M340 340l-129 -365q-12 -35 -25.5 -64t-31 -50.5t-41.5 -32.5t-57 -11q-18 0 -36 3v55q19 -3 37 -3q16 0 29.5 3.5t25.5 14t25 35t29 70.5h-5l-116 345h-45v50h150v-50h-44l87 -268h2l91 268h-46v50h150v-50h-50zM220 550h70l-80 -120h-46z" />
    <glyph glyph-name="ycircumflex" unicode="&#x177;" horiz-adv-x="390" 
d="M340 340l-129 -365q-12 -35 -25.5 -64t-31 -50.5t-41.5 -32.5t-57 -11q-18 0 -36 3v55q19 -3 37 -3q16 0 29.5 3.5t25.5 14t25 35t29 70.5h-5l-116 345h-45v50h150v-50h-44l87 -268h2l91 268h-46v50h150v-50h-50zM194 505l-57 -75h-60l94 120h48l94 -120h-60l-57 75h-2z
" />
    <glyph glyph-name="ydieresis" unicode="&#xff;" horiz-adv-x="390" 
d="M340 340l-129 -365q-12 -35 -25.5 -64t-31 -50.5t-41.5 -32.5t-57 -11q-18 0 -36 3v55q19 -3 37 -3q16 0 29.5 3.5t25.5 14t25 35t29 70.5h-5l-116 345h-45v50h150v-50h-44l87 -268h2l91 268h-46v50h150v-50h-50zM80 496q0 20 12 32t30 12q20 0 31.5 -12t11.5 -31
t-11.5 -30.5t-32.5 -11.5q-18 0 -29.5 11.5t-11.5 29.5zM225 496q0 20 12 32t30 12q20 0 31.5 -12t11.5 -31t-11.5 -30.5t-32.5 -11.5q-18 0 -29.5 11.5t-11.5 29.5z" />
    <glyph glyph-name="zacute" unicode="&#x17a;" horiz-adv-x="360" 
d="M30 43l216 299h-164v-62h-52v110h290v-43l-215 -299h173v62h52v-110h-300v43zM205 550h70l-80 -120h-46z" />
    <glyph glyph-name="zcaron" unicode="&#x17e;" horiz-adv-x="360" 
d="M30 43l216 299h-164v-62h-52v110h290v-43l-215 -299h173v62h52v-110h-300v43zM181 475l57 75h60l-94 -120h-48l-94 120h60l57 -75h2z" />
    <glyph glyph-name="zdotaccent" unicode="&#x17c;" horiz-adv-x="360" 
d="M30 43l216 299h-164v-62h-52v110h290v-43l-215 -299h173v62h52v-110h-300v43zM137 496q0 21 11.5 32.5t31.5 11.5q19 0 31 -11.5t12 -30.5q0 -20 -12 -31.5t-32 -11.5q-19 0 -30.5 11.5t-11.5 29.5z" />
    <glyph glyph-name="eng" unicode="&#x14b;" 
d="M300 -58v341q0 40 -14 53.5t-39 13.5q-58 0 -107 -62v-238h40v-50h-150v50h50v290h-50v50h106l3 -52h1q54 62 124 62q50 0 73 -28.5t23 -80.5v-340q0 -68 -25 -100q-24 -33 -77 -33q-14 0 -28 2v50q8 -1 17 -1q31 0 42 16t11 57z" />
    <glyph glyph-name="eth" unicode="&#xf0;" 
d="M126 472l67 50q-41 24 -105 28v50q85 -3 147 -46l67 50l28 -36l-59 -44q98 -101 98 -282q0 -120 -45.5 -186t-124.5 -66q-75 0 -119.5 55.5t-44.5 145.5t47 144.5t124 54.5q44 0 84 -21l2 1q-17 73 -62 123l-76 -57zM208 340q-56 0 -83 -34t-27 -108q0 -76 26.5 -117
t78.5 -41q53 0 78 48t25 149q0 43 -5 80q-45 23 -93 23z" />
    <glyph glyph-name="thorn" unicode="&#xfe;" 
d="M380 207q0 -96 -47.5 -156.5t-120.5 -60.5q-38 0 -75 18l-2 -1v-137h60v-50h-170v50h50v680h-50v50h110v-235l2 -1q42 36 99 36q65 0 104.5 -55t39.5 -138zM317 198q0 69 -24.5 110.5t-74.5 41.5q-44 0 -83 -33v-262q30 -15 70 -15q53 0 82.5 39t29.5 119z" />
    <glyph glyph-name="ij" unicode="&#x133;" horiz-adv-x="390" 
d="M30 50h50v290h-50v50h110v-340h50v-50h-160v50zM63 496q0 21 11.5 32.5t31.5 11.5q19 0 31 -11.5t12 -30.5q0 -20 -12 -31.5t-32 -11.5q-19 0 -30.5 11.5t-11.5 29.5zM315 -149q-24 -33 -77 -33q-14 0 -28 2v50q8 -1 17 -1q31 0 42 16t11 57v398h-50v50h110v-439
q0 -68 -25 -100zM263 496q0 21 11.5 32.5t31.5 11.5q19 0 31 -11.5t12 -30.5q0 -20 -12 -31.5t-32 -11.5q-19 0 -30.5 11.5t-11.5 29.5z" />
    <glyph glyph-name="uni01330300" horiz-adv-x="390" 
d="M30 50h50v290h-50v50h110v-340h50v-50h-160v50zM315 -149q-24 -33 -77 -33q-14 0 -28 2v50q8 -1 17 -1q31 0 42 16t11 57v398h-50v50h110v-439q0 -68 -25 -100zM130 550h70l-80 -120h-46zM325 550h70l-80 -120h-46z" />
    <glyph glyph-name="f.alt" horiz-adv-x="240" 
d="M270 500h-50v55q-9 2 -21 2q-32 0 -45.5 -19.5t-13.5 -61.5v-86h80v-50h-80v-290h50v-50h-160v50h50v290h-50v50h50v77q0 69 32 103.5t88 34.5q37 0 70 -13v-92z" />
    <glyph glyph-name="ampersand" unicode="&#x26;" horiz-adv-x="540" 
d="M410 280h-50v50h160v-50h-58q-5 -96 -46 -171q32 -33 54 -48.5t44 -15.5q14 0 26 2v-47q-18 -5 -37 -5q-29 0 -54.5 14t-67.5 54q-67 -73 -161 -73q-77 0 -125 44.5t-48 108.5q0 96 103 156q-60 68 -60 124t36.5 91.5t95.5 35.5q56 0 92 -30.5t36 -80.5
q0 -42 -27.5 -76.5t-87.5 -70.5q16 -18 36 -38.5t39 -40.5l68 -67q30 61 32 134zM110 155q0 -51 32.5 -83t85.5 -32q66 0 117 56q-32 31 -74 72.5t-91 96.5q-70 -40 -70 -110zM292 435q0 31 -20 48t-52 17t-51.5 -18t-19.5 -53q0 -47 56 -104q44 24 65.5 51t21.5 59z" />
    <glyph glyph-name="grave" unicode="`" horiz-adv-x="180" 
d="M150 430h-46l-80 120h70z" />
    <glyph glyph-name="acute" unicode="&#xb4;" horiz-adv-x="180" 
d="M86 550h70l-80 -120h-46z" />
    <glyph glyph-name="circumflex" unicode="&#x2c6;" horiz-adv-x="300" 
d="M149 505l-57 -75h-60l94 120h48l94 -120h-60l-57 75h-2z" />
    <glyph glyph-name="caron" unicode="&#x2c7;" horiz-adv-x="300" 
d="M151 475l57 75h60l-94 -120h-48l-94 120h60l57 -75h2z" />
    <glyph glyph-name="tilde" unicode="&#x2dc;" horiz-adv-x="300" 
d="M35 463v51q31 22 64 22q26 0 61 -18q25 -12 43 -12q32 0 60 24h2v-51q-31 -22 -64 -22q-26 0 -61 18q-25 12 -43 12q-32 0 -60 -24h-2z" />
    <glyph glyph-name="dieresis" unicode="&#xa8;" horiz-adv-x="300" 
d="M35 496q0 20 12 32t30 12q20 0 31.5 -12t11.5 -31t-11.5 -30.5t-32.5 -11.5q-18 0 -29.5 11.5t-11.5 29.5zM180 496q0 20 12 32t30 12q20 0 31.5 -12t11.5 -31t-11.5 -30.5t-32.5 -11.5q-18 0 -29.5 11.5t-11.5 29.5z" />
    <glyph glyph-name="ring" unicode="&#x2da;" horiz-adv-x="240" 
d="M45 495q0 30 21 47.5t55 17.5q36 0 55 -17.5t19 -46.5q0 -28 -20.5 -47t-56.5 -19q-34 0 -53.5 18.5t-19.5 46.5zM86 496q0 -18 9 -26.5t25 -8.5q15 0 24.5 9.5t9.5 25.5t-9.5 24.5t-24.5 8.5q-16 0 -25 -8.5t-9 -24.5z" />
    <glyph glyph-name="macron" unicode="&#xaf;" horiz-adv-x="270" 
d="M30 510h210v-48h-210v48z" />
    <glyph glyph-name="breve" unicode="&#x2d8;" horiz-adv-x="300" 
d="M86 550q2 -35 19.5 -53.5t44.5 -18.5q28 0 45 19t20 53h43q-1 -55 -30.5 -87.5t-77.5 -32.5q-47 0 -76 32.5t-32 87.5h44z" />
    <glyph glyph-name="dotaccent" unicode="&#x2d9;" horiz-adv-x="210" 
d="M62 496q0 21 11.5 32.5t31.5 11.5q19 0 31 -11.5t12 -30.5q0 -20 -12 -31.5t-32 -11.5q-19 0 -30.5 11.5t-11.5 29.5z" />
    <glyph glyph-name="hungarumlaut" unicode="&#x2dd;" horiz-adv-x="270" 
d="M85 550h63l-73 -120h-45zM190 550h65l-80 -120h-44z" />
    <glyph glyph-name="cedilla" unicode="&#xb8;" horiz-adv-x="210" 
d="M30 -135q19 -4 39 -4q19 0 30 7.5t11 25.5q0 32 -57 32l30 82h46l-19 -52q30 -7 42.5 -24.5t12.5 -39.5q0 -35 -26 -56t-68 -21q-20 0 -41 5v45z" />
    <glyph glyph-name="ogonek" unicode="&#x2db;" horiz-adv-x="180" 
d="M116 -135q21 0 41 10v-48q-22 -12 -49 -12q-36 0 -61 20.5t-25 56.5q0 55 59 106v10h55v-8q-59 -48 -59 -96q0 -21 11.5 -30t27.5 -9z" />
    <glyph glyph-name="uni0300" unicode="&#x300;" horiz-adv-x="0" 
d="M-164 430h-46l-80 120h70z" />
    <glyph glyph-name="uni0300.cap" horiz-adv-x="0" 
d="M-170 580h-44l-86 110h70z" />
    <glyph glyph-name="uni0301" unicode="&#x301;" horiz-adv-x="0" 
d="M-170 550h70l-80 -120h-46z" />
    <glyph glyph-name="uni0301.cap" horiz-adv-x="0" 
d="M-160 690h70l-86 -110h-44z" />
    <glyph glyph-name="uni0302" unicode="&#x302;" horiz-adv-x="0" 
d="M-196 505l-57 -75h-60l94 120h48l94 -120h-60l-57 75h-2z" />
    <glyph glyph-name="uni0302.cap" horiz-adv-x="0" 
d="M-196 644l-49 -64h-60l85 110h50l85 -110h-60l-49 64h-2z" />
    <glyph glyph-name="uni030C" unicode="&#x30c;" horiz-adv-x="0" 
d="M-194 475l57 75h60l-94 -120h-48l-94 120h60l57 -75h2z" />
    <glyph glyph-name="uni030C.cap" horiz-adv-x="0" 
d="M-194 626l49 64h60l-85 -110h-50l-85 110h60l49 -64h2z" />
    <glyph glyph-name="uni0303" unicode="&#x303;" horiz-adv-x="0" 
d="M-310 463v51q31 22 64 22q26 0 61 -18q25 -12 43 -12q32 0 60 24h2v-51q-31 -22 -64 -22q-26 0 -61 18q-25 12 -43 12q-32 0 -60 -24h-2z" />
    <glyph glyph-name="uni0303.cap" horiz-adv-x="0" 
d="M-300 583v51q23 21 54 21q25 0 60 -19q26 -13 44 -13q30 0 50 23h2v-51q-23 -21 -54 -21q-25 0 -60 19q-26 13 -44 13q-30 0 -50 -23h-2z" />
    <glyph glyph-name="uni0308" unicode="&#x308;" horiz-adv-x="0" 
d="M-310 496q0 20 12 32t30 12q20 0 31.5 -12t11.5 -31t-11.5 -30.5t-32.5 -11.5q-18 0 -29.5 11.5t-11.5 29.5zM-165 496q0 20 12 32t30 12q20 0 31.5 -12t11.5 -31t-11.5 -30.5t-32.5 -11.5q-18 0 -29.5 11.5t-11.5 29.5z" />
    <glyph glyph-name="uni0308.cap" horiz-adv-x="0" 
d="M-310 620q0 20 11.5 31.5t29.5 11.5q20 0 31 -11.5t11 -30.5t-11 -30t-32 -11q-18 0 -29 11t-11 29zM-163 620q0 20 11.5 31.5t29.5 11.5q20 0 31 -11.5t11 -30.5t-11 -30t-32 -11q-18 0 -29 11t-11 29z" />
    <glyph glyph-name="uni0304" unicode="&#x304;" horiz-adv-x="0" 
d="M-300 510h210v-48h-210v48z" />
    <glyph glyph-name="uni0304.cap" horiz-adv-x="0" 
d="M-290 637h190v-47h-190v47z" />
    <glyph glyph-name="uni0306" unicode="&#x306;" horiz-adv-x="0" 
d="M-259 550q2 -35 19.5 -53.5t44.5 -18.5q28 0 45 19t20 53h43q-1 -55 -30.5 -87.5t-77.5 -32.5q-47 0 -76 32.5t-32 87.5h44z" />
    <glyph glyph-name="uni0306.cap" horiz-adv-x="0" 
d="M-195 626q27 0 44 16t20 48h44q-4 -53 -33 -81.5t-75 -28.5t-75 28.5t-33 81.5h44q3 -32 20 -48t44 -16z" />
    <glyph glyph-name="uni0307" unicode="&#x307;" horiz-adv-x="0" 
d="M-238 496q0 21 11.5 32.5t31.5 11.5q19 0 31 -11.5t12 -30.5q0 -20 -12 -31.5t-32 -11.5q-19 0 -30.5 11.5t-11.5 29.5z" />
    <glyph glyph-name="uni0307.cap" horiz-adv-x="0" 
d="M-238 621q0 21 11.5 32.5t31.5 11.5q19 0 31 -11.5t12 -30.5q0 -20 -12 -31.5t-32 -11.5q-19 0 -30.5 11.5t-11.5 29.5z" />
    <glyph glyph-name="uni030A" unicode="&#x30a;" horiz-adv-x="0" 
d="M-270 495q0 30 21 47.5t55 17.5q36 0 55 -17.5t19 -46.5q0 -28 -20.5 -47t-56.5 -19q-34 0 -53.5 18.5t-19.5 46.5zM-229 496q0 -18 9 -26.5t25 -8.5q15 0 24.5 9.5t9.5 25.5t-9.5 24.5t-24.5 8.5q-16 0 -25 -8.5t-9 -24.5z" />
    <glyph glyph-name="uni030A.cap" horiz-adv-x="0" 
d="M-267 637q0 30 20 46.5t54 16.5t52 -16.5t18 -44.5t-19.5 -46t-54.5 -18q-33 0 -51.5 17.5t-18.5 44.5zM-228 639q0 -18 8.5 -26t24.5 -8q15 0 24 9t9 25q0 15 -9 23t-24 8q-16 0 -24.5 -8t-8.5 -23z" />
    <glyph glyph-name="uni030B" unicode="&#x30b;" horiz-adv-x="0" 
d="M-221 550h63l-73 -120h-45zM-116 550h65l-80 -120h-44z" />
    <glyph glyph-name="uni030B.cap" horiz-adv-x="0" 
d="M-210 690h62l-78 -110h-44zM-106 690h65l-86 -110h-43z" />
    <glyph glyph-name="uni0312" unicode="&#x312;" horiz-adv-x="0" 
d="M-165 430h-63l41 120h41z" />
    <glyph glyph-name="uni0315" unicode="&#x315;" horiz-adv-x="60" 
d="M0 550h60l-40 -130h-42z" />
    <glyph glyph-name="uni0315.cap" horiz-adv-x="0" 
d="M-98 550h61l-40 -130h-43z" />
    <glyph glyph-name="uni0326" unicode="&#x326;" horiz-adv-x="0" 
d="M-225 -40h63l-41 -120h-41z" />
    <glyph glyph-name="uni0327" unicode="&#x327;" horiz-adv-x="0" 
d="M-270 -135q19 -4 39 -4q19 0 30 7.5t11 25.5q0 32 -57 32l30 82h46l-19 -52q30 -7 42.5 -24.5t12.5 -39.5q0 -35 -26 -56t-68 -21q-20 0 -41 5v45z" />
    <glyph glyph-name="uni0328" unicode="&#x328;" horiz-adv-x="0" 
d="M-71 -135q21 0 41 10v-48q-22 -12 -49 -12q-36 0 -61 20.5t-25 56.5q0 55 59 106v10h55v-8q-59 -48 -59 -96q0 -21 11.5 -30t27.5 -9z" />
    <glyph glyph-name="comma" unicode="," horiz-adv-x="210" 
d="M109 118q46 -43 46 -90q0 -65 -76 -132l-31 29q43 41 42 79q0 30 -38 65z" />
    <glyph glyph-name="semicolon" unicode=";" horiz-adv-x="210" 
d="M60 337q0 24 13.5 38.5t36.5 14.5t36.5 -14.5t13.5 -34.5q0 -25 -14 -39t-38 -14q-22 0 -35 14t-13 35zM119 118q46 -43 46 -90q0 -65 -76 -132l-31 29q43 41 42 79q0 30 -38 65z" />
    <glyph glyph-name="colon" unicode=":" horiz-adv-x="210" 
d="M60 39q0 24 13.5 38.5t36.5 14.5t36.5 -14.5t13.5 -34.5q0 -25 -14 -39t-38 -14q-22 0 -35 14t-13 35zM60 337q0 24 13.5 38.5t36.5 14.5t36.5 -14.5t13.5 -34.5q0 -25 -14 -39t-38 -14q-22 0 -35 14t-13 35z" />
    <glyph glyph-name="period" unicode="." horiz-adv-x="180" 
d="M50 39q0 24 13.5 38.5t36.5 14.5t36.5 -14.5t13.5 -34.5q0 -25 -14 -39t-38 -14q-22 0 -35 14t-13 35z" />
    <glyph glyph-name="ellipsis" unicode="&#x2026;" horiz-adv-x="540" 
d="M50 39q0 24 13.5 38.5t36.5 14.5t36.5 -14.5t13.5 -34.5q0 -25 -14 -39t-38 -14q-22 0 -35 14t-13 35zM230 39q0 24 13.5 38.5t36.5 14.5t36.5 -14.5t13.5 -34.5q0 -25 -14 -39t-38 -14q-22 0 -35 14t-13 35zM410 39q0 24 13.5 38.5t36.5 14.5t36.5 -14.5t13.5 -34.5
q0 -25 -14 -39t-38 -14q-22 0 -35 14t-13 35z" />
    <glyph glyph-name="exclam" unicode="!" horiz-adv-x="240" 
d="M92 540h74l-16 -390h-41zM80 39q0 24 13.5 38.5t36.5 14.5t36.5 -14.5t13.5 -34.5q0 -25 -14 -39t-38 -14q-22 0 -35 14t-13 35z" />
    <glyph glyph-name="exclamdown" unicode="&#xa1;" horiz-adv-x="240" 
d="M148 -150h-74l16 390h41zM60 347q0 24 13.5 38.5t36.5 14.5t36.5 -14.5t13.5 -34.5q0 -25 -14 -39t-38 -14q-22 0 -35 14t-13 35z" />
    <glyph glyph-name="exclamdown.case" horiz-adv-x="240" 
d="M148 0h-74l16 390h41zM60 497q0 24 13.5 38.5t36.5 14.5t36.5 -14.5t13.5 -34.5q0 -25 -14 -39t-38 -14q-22 0 -35 14t-13 35z" />
    <glyph glyph-name="question" unicode="?" horiz-adv-x="300" 
d="M60 537q39 13 81 13q61 0 101 -35t40 -95q0 -44 -18 -74t-51 -56q-33 -27 -49.5 -48.5t-16.5 -51.5q0 -18 6 -40h-44q-11 30 -11 60q0 34 15.5 59.5t43.5 47.5q27 22 45 43t18 58q0 39 -24.5 59t-64.5 20q-32 0 -71 -12v52zM80 39q0 24 13.5 38.5t36.5 14.5t36.5 -14.5
t13.5 -34.5q0 -25 -14 -39t-38 -14q-22 0 -35 14t-13 35z" />
    <glyph glyph-name="questiondown" unicode="&#xbf;" horiz-adv-x="300" 
d="M240 -147q-39 -13 -81 -13q-61 0 -101 35t-40 95q0 44 18 74t51 56q33 27 49.5 48.5t16.5 51.5q0 18 -6 40h44q11 -30 11 -60q0 -34 -15.5 -59.5t-43.5 -47.5q-27 -22 -45 -43t-18 -58q0 -39 24.5 -59t64.5 -20q32 0 71 12v-52zM220 351q0 -24 -13.5 -38.5t-36.5 -14.5
t-36.5 14.5t-13.5 34.5q0 25 14 39t38 14q22 0 35 -14t13 -35z" />
    <glyph glyph-name="questiondown.case" horiz-adv-x="300" 
d="M240 3q-39 -13 -81 -13q-61 0 -101 35t-40 95q0 44 18 74t51 56q33 27 49.5 48.5t16.5 51.5q0 18 -6 40h44q11 -30 11 -60q0 -34 -15.5 -59.5t-43.5 -47.5q-27 -22 -45 -43t-18 -58q0 -39 24.5 -59t64.5 -20q32 0 71 12v-52zM220 501q0 -24 -13.5 -38.5t-36.5 -14.5
t-36.5 14.5t-13.5 34.5q0 25 14 39t38 14q22 0 35 -14t13 -35z" />
    <glyph glyph-name="slash" unicode="/" horiz-adv-x="240" 
d="M200 540h52l-212 -660h-52z" />
    <glyph glyph-name="backslash" unicode="\" horiz-adv-x="240" 
d="M252 -120h-52l-212 660h52z" />
    <glyph glyph-name="bar" unicode="|" horiz-adv-x="240" 
d="M95 610h50v-800h-50v800z" />
    <glyph glyph-name="parenleft" unicode="(" horiz-adv-x="270" 
d="M110 243q0 -211 140 -363h-58q-146 162 -145 359q-1 196 145 361h58q-140 -151 -140 -357z" />
    <glyph glyph-name="parenright" unicode=")" horiz-adv-x="270" 
d="M160 239q0 210 -140 361h58q146 -165 145 -357q1 -201 -145 -363h-58q140 152 140 359z" />
    <glyph glyph-name="bracketleft" unicode="[" horiz-adv-x="240" 
d="M60 600h140v-50h-85v-620h85v-50h-140v720z" />
    <glyph glyph-name="bracketright" unicode="]" horiz-adv-x="240" 
d="M180 -120h-140v50h85v620h-85v50h140v-720z" />
    <glyph glyph-name="braceleft" unicode="{" horiz-adv-x="270" 
d="M80 239q36 -10 53 -35t17 -68v-158q0 -28 13 -38t32 -10h35v-50h-35q-50 0 -75 24t-25 77v156q0 43 -18 61t-52 18v48q34 0 52 17.5t18 59.5v158q0 53 26.5 77t75.5 24h33v-50h-37q-18 0 -30.5 -9.5t-12.5 -38.5v-158q0 -44 -17 -69t-53 -34v-2z" />
    <glyph glyph-name="braceright" unicode="}" horiz-adv-x="270" 
d="M190 241q-36 9 -53 34t-17 69v158q0 29 -12.5 38.5t-30.5 9.5h-37v50h33q49 0 75.5 -24t26.5 -77v-158q0 -42 18 -59.5t52 -17.5v-48q-34 0 -52 -18t-18 -61v-156q0 -53 -25 -77t-75 -24h-35v50h35q19 0 32 10t13 38v158q0 43 17 68t53 35v2z" />
    <glyph glyph-name="parenleft.case" horiz-adv-x="270" 
d="M110 273q0 -211 140 -363h-58q-146 162 -145 359q-1 196 145 361h58q-140 -151 -140 -357z" />
    <glyph glyph-name="parenright.case" horiz-adv-x="270" 
d="M160 269q0 210 -140 361h58q146 -165 145 -357q1 -201 -145 -363h-58q140 152 140 359z" />
    <glyph glyph-name="bracketleft.case" horiz-adv-x="240" 
d="M60 630h140v-50h-85v-620h85v-50h-140v720z" />
    <glyph glyph-name="bracketright.case" horiz-adv-x="240" 
d="M180 -90h-140v50h85v620h-85v50h140v-720z" />
    <glyph glyph-name="braceleft.case" horiz-adv-x="270" 
d="M80 269q36 -10 53 -35t17 -68v-158q0 -28 13 -38t32 -10h35v-50h-35q-50 0 -75 24t-25 77v156q0 43 -18 61t-52 18v48q34 0 52 17.5t18 59.5v158q0 53 26.5 77t75.5 24h33v-50h-37q-18 0 -30.5 -9.5t-12.5 -38.5v-158q0 -44 -17 -69t-53 -34v-2z" />
    <glyph glyph-name="braceright.case" horiz-adv-x="270" 
d="M190 271q-36 9 -53 34t-17 69v158q0 29 -12.5 38.5t-30.5 9.5h-37v50h33q49 0 75.5 -24t26.5 -77v-158q0 -42 18 -59.5t52 -17.5v-48q-34 0 -52 -18t-18 -61v-156q0 -53 -25 -77t-75 -24h-35v50h35q19 0 32 10t13 38v158q0 43 17 68t53 35v2z" />
    <glyph glyph-name="quotesingle" unicode="'" horiz-adv-x="150" 
d="M42 540h66l-13 -180h-40z" />
    <glyph glyph-name="quotedbl" unicode="&#x22;" horiz-adv-x="270" 
d="M42 540h66l-13 -180h-40zM162 540h66l-13 -180h-40z" />
    <glyph glyph-name="asterisk" unicode="*" horiz-adv-x="360" 
d="M216 570l-9 -112l106 42l17 -60l-109 -23l74 -89l-50 -38l-60 99l-60 -98l-49 38l72 88l-109 24l19 59l104 -41l-8 111h62z" />
    <glyph glyph-name="hyphen" unicode="-" horiz-adv-x="210" 
d="M30 230h150v-50h-150v50z" />
    <glyph glyph-name="uni00AD" unicode="&#xad;" horiz-adv-x="210" 
d="M30 230h150v-50h-150v50z" />
    <glyph glyph-name="endash" unicode="&#x2013;" 
d="M30 230h360v-50h-360v50z" />
    <glyph glyph-name="emdash" unicode="&#x2014;" horiz-adv-x="810" 
d="M30 230h750v-50h-750v50z" />
    <glyph glyph-name="hyphen.case" horiz-adv-x="210" 
d="M30 300h150v-50h-150v50z" />
    <glyph glyph-name="uni00AD.case" horiz-adv-x="210" 
d="M30 300h150v-50h-150v50z" />
    <glyph glyph-name="endash.case" 
d="M30 300h360v-50h-360v50z" />
    <glyph glyph-name="emdash.case" horiz-adv-x="810" 
d="M30 300h750v-50h-750v50z" />
    <glyph glyph-name="quoteleft" unicode="&#x2018;" horiz-adv-x="150" 
d="M73 340q-43 41 -43 85q0 62 71 125l29 -27q-40 -39 -40 -75q0 -29 36 -63z" />
    <glyph glyph-name="quoteright" unicode="&#x2019;" horiz-adv-x="150" 
d="M77 550q43 -41 43 -85q0 -62 -71 -125l-29 27q40 39 40 75q0 29 -36 63z" />
    <glyph glyph-name="quotedblleft" unicode="&#x201c;" horiz-adv-x="270" 
d="M73 340q-43 41 -43 85q0 62 71 125l29 -27q-40 -39 -40 -75q0 -29 36 -63zM193 340q-43 41 -43 85q0 62 71 125l29 -27q-40 -39 -40 -75q0 -29 36 -63z" />
    <glyph glyph-name="quotedblright" unicode="&#x201d;" horiz-adv-x="270" 
d="M77 550q43 -41 43 -85q0 -62 -71 -125l-29 27q40 39 40 75q0 29 -36 63zM197 550q43 -41 43 -85q0 -62 -71 -125l-29 27q40 39 40 75q0 29 -36 63z" />
    <glyph glyph-name="quotesinglbase" unicode="&#x201a;" horiz-adv-x="150" 
d="M77 118q43 -41 43 -85q0 -62 -71 -125l-29 27q40 39 40 75q0 29 -36 63z" />
    <glyph glyph-name="quotedblbase" unicode="&#x201e;" horiz-adv-x="270" 
d="M77 118q43 -41 43 -85q0 -62 -71 -125l-29 27q40 39 40 75q0 29 -36 63zM197 118q43 -41 43 -85q0 -62 -71 -125l-29 27q40 39 40 75q0 29 -36 63z" />
    <glyph glyph-name="guilsinglleft" unicode="&#x2039;" horiz-adv-x="210" 
d="M30 195l85 135h65l-85 -135l85 -135h-65z" />
    <glyph glyph-name="guilsinglright" unicode="&#x203a;" horiz-adv-x="210" 
d="M180 195l-85 -135h-65l85 135l-85 135h65z" />
    <glyph glyph-name="guillemotleft" unicode="&#xab;" horiz-adv-x="330" 
d="M30 195l85 135h65l-85 -135l85 -135h-65zM150 195l85 135h65l-85 -135l85 -135h-65z" />
    <glyph glyph-name="guillemotright" unicode="&#xbb;" horiz-adv-x="330" 
d="M180 195l-85 -135h-65l85 135l-85 135h65zM300 195l-85 -135h-65l85 135l-85 135h65z" />
    <glyph glyph-name="guilsinglleft.case" horiz-adv-x="210" 
d="M30 255l85 135h65l-85 -135l85 -135h-65z" />
    <glyph glyph-name="guilsinglright.case" horiz-adv-x="210" 
d="M180 255l-85 -135h-65l85 135l-85 135h65z" />
    <glyph glyph-name="guillemotleft.case" horiz-adv-x="330" 
d="M30 255l85 135h65l-85 -135l85 -135h-65zM150 255l85 135h65l-85 -135l85 -135h-65z" />
    <glyph glyph-name="guillemotright.case" horiz-adv-x="330" 
d="M180 255l-85 -135h-65l85 135l-85 135h65zM300 255l-85 -135h-65l85 135l-85 135h65z" />
    <glyph glyph-name="dagger" unicode="&#x2020;" horiz-adv-x="360" 
d="M205 390h125v-45h-125v-495h-50v495h-125v45h125v150h50v-150z" />
    <glyph glyph-name="daggerdbl" unicode="&#x2021;" horiz-adv-x="360" 
d="M155 0h-125v45h125v300h-125v45h125v150h50v-150h125v-45h-125v-300h125v-45h-125v-150h-50v150z" />
    <glyph glyph-name="paragraph" unicode="&#xb6;" horiz-adv-x="450" 
d="M180 -150v390q-81 2 -125.5 42t-44.5 114q0 69 42.5 106.5t131.5 37.5h226v-50h-50v-640h-60v640h-60v-640h-60z" />
    <glyph glyph-name="section" unicode="&#xa7;" 
d="M70 424q0 57 41.5 91.5t113.5 34.5q60 0 115 -25v-95h-52v60q-35 10 -68 10q-40 0 -65 -16t-25 -48q0 -18 8 -32t21.5 -24.5t31 -19t37.5 -17.5q23 -10 46 -22t42.5 -28.5t31.5 -39t12 -55.5q0 -84 -83 -120v-2q73 -38 73 -110q0 -57 -41.5 -91.5t-113.5 -34.5
q-60 0 -115 25v95h52v-60q34 -10 68 -10q40 0 65 16t25 48q0 18 -8.5 32t-22.5 25t-31.5 19.5t-35.5 16.5q-26 11 -50 23.5t-42 29t-29 39t-11 52.5q0 83 84 121v2q-74 36 -74 110zM300 186q0 21 -8.5 36t-22.5 26.5t-32.5 20.5t-52.5 24q-64 -29 -64 -91q0 -20 8 -35
t22.5 -26t33 -20t52.5 -24q64 28 64 89z" />
    <glyph glyph-name="periodcentered" unicode="&#xb7;" horiz-adv-x="180" 
d="M40 193q0 24 13.5 38.5t36.5 14.5t36.5 -14.5t13.5 -34.5q0 -25 -14 -39t-38 -14q-22 0 -35 14t-13 35z" />
    <glyph glyph-name="bullet" unicode="&#x2022;" horiz-adv-x="240" 
d="M55 274q0 30 17.5 48t47.5 18q29 0 47 -17.5t18 -46.5q0 -31 -18 -48.5t-49 -17.5q-28 0 -45.5 17.5t-17.5 46.5z" />
    <glyph glyph-name="asciicircum" unicode="^" horiz-adv-x="360" 
d="M179 480l-94 -210h-58l131 275h45l131 -275h-58l-95 210h-2z" />
    <glyph glyph-name="asciitilde" unicode="~" 
d="M30 215q51 36 104 36q28 0 48 -7.5t37 -15.5q16 -8 31.5 -13.5t34.5 -5.5q53 0 105 40v-53q-53 -36 -106 -36q-27 0 -46.5 7.5t-36.5 15.5q-16 8 -32 14t-36 6q-50 0 -103 -41v53z" />
    <glyph glyph-name="brokenbar" unicode="&#xa6;" horiz-adv-x="240" 
d="M90 210h60v-220h-60v220zM90 550h60v-220h-60v220z" />
    <glyph glyph-name="underscore" unicode="_" horiz-adv-x="300" 
d="M-10 -45h320v-45h-320v45z" />
    <glyph glyph-name="at" unicode="@" horiz-adv-x="660" 
d="M480 -124q-73 -26 -150 -26q-128 0 -204 81.5t-76 215.5q0 142 84.5 237.5t217.5 95.5q121 0 194.5 -79.5t73.5 -197.5q0 -90 -42 -151.5t-104 -61.5q-37 0 -60.5 22.5t-23.5 65.5h-1q-37 -88 -103 -88q-42 0 -66.5 38t-24.5 97q0 87 43.5 146t118.5 59q45 0 100 -18
l-10 -137q-6 -59 -6 -90q0 -44 33 -44q38 0 63 46.5t25 115.5q0 100 -59.5 162t-151.5 62q-104 0 -172.5 -77.5t-68.5 -196.5q0 -115 61 -181.5t163 -66.5q69 0 146 26v-55zM397 278q-20 6 -43 6q-43 0 -68.5 -44.5t-25.5 -110.5q0 -41 9.5 -63.5t31.5 -22.5q35 0 59.5 54.5
t30.5 113.5z" />
    <glyph glyph-name="copyright" unicode="&#xa9;" horiz-adv-x="630" 
d="M430 135q-53 -32 -114 -32q-77 0 -121.5 45.5t-44.5 120.5q0 76 44.5 122t121.5 46q58 0 114 -27v-93h-50v59q-26 14 -65 14q-53 0 -79 -30.5t-26 -85.5q0 -57 28 -90.5t82 -33.5q51 0 110 34v-49zM40 270q0 126 76 203t198 77t199 -77.5t77 -202.5q0 -126 -77 -203
t-199 -77t-198 77t-76 203zM90 270q0 -109 59.5 -172t164.5 -63t165.5 63t60.5 172q0 111 -60.5 173t-165.5 62t-164.5 -62t-59.5 -173z" />
    <glyph glyph-name="trademark" unicode="&#x2122;" horiz-adv-x="840" 
d="M100 267h52v226h-65v-63h-47v110h280v-110h-45v63h-68v-226h53v-47h-160v47zM700 466l-99 -248h-41l-101 241h-2l-7 -192h40v-47h-135v47h47l9 226h-51v47h124l99 -237h2l96 237h121v-47h-48l9 -226h47v-47h-140v47h40l-8 199h-2z" />
    <glyph glyph-name="registered" unicode="&#xae;" horiz-adv-x="630" 
d="M265 150h41v-46h-136v46h40v240h-40v46h138q68 0 100 -23.5t32 -66.5q0 -36 -19 -61t-67 -34v-2q12 -3 25.5 -12.5t26.5 -30.5l33 -56h41v-46h-82q-12 24 -26 48l-24 42q-16 29 -29.5 38t-35.5 9h-18v-91zM296 285q45 0 64.5 13t19.5 43q0 25 -18 37t-59 12h-38v-105h31z
M40 270q0 126 76 203t198 77t199 -77.5t77 -202.5q0 -126 -77 -203t-199 -77t-198 77t-76 203zM90 270q0 -109 59.5 -172t164.5 -63t165.5 63t60.5 172q0 111 -60.5 173t-165.5 62t-164.5 -62t-59.5 -173z" />
    <glyph glyph-name="currency" unicode="&#xa4;" horiz-adv-x="450" 
d="M56 10l-44 43l77 75q-29 44 -29 96q0 56 29 97l-77 75l42 42l73 -78q44 30 98 30t96 -28l75 78l42 -44l-78 -74q30 -42 30 -98q0 -52 -30 -97l77 -75l-42 -43l-75 78q-41 -27 -95 -27t-95 27zM115 224q0 -54 30 -84t79 -30q51 0 81 30t30 84t-30 85t-81 31q-49 0 -79 -31
t-30 -85z" />
    <glyph glyph-name="Euro" unicode="&#x20ac;" horiz-adv-x="450" 
d="M28 240h43q-1 14 -1 29q0 14 1 31h-49l8 45h46q17 97 75 151t148 54q65 0 121 -22v-93h-50v55q-29 10 -72 10q-138 0 -161 -155h225l-10 -45h-219q-1 -12 -1 -26q0 -17 1 -34h207l-10 -45h-192q13 -78 54.5 -116.5t107.5 -38.5q53 0 120 23v-50q-61 -23 -123 -23
q-91 0 -148 52.5t-74 152.5h-56z" />
    <glyph glyph-name="dollar" unicode="$" 
d="M180 -70v68q-71 1 -140 25v107h52v-69q34 -11 88 -12v200q-78 32 -110 65.5t-32 86.5q0 57 37.5 94t104.5 45v70h46v-69q73 -4 126 -26v-95h-52v59q-34 11 -74 12v-196q76 -32 110 -66.5t34 -86.5q0 -56 -36.5 -94t-107.5 -47v-71h-46zM308 132q0 38 -22 60t-60 39v-180
q42 7 62 29t20 52zM100 409q0 -37 21 -58t59 -37v176q-41 -5 -60.5 -27.5t-19.5 -53.5z" />
    <glyph glyph-name="uni0192" unicode="&#x192;" horiz-adv-x="330" 
d="M330 486q-25 4 -42 4q-49 0 -72 -25t-28 -91l-5 -59h97v-45h-100l-16 -200q-7 -90 -43 -140t-101 -50q-22 0 -40 4v49q16 -3 35 -3q43 0 64 34t27 108l16 198h-72v45h76l6 62q6 80 43 121.5t107 41.5q25 0 48 -4v-50z" />
    <glyph glyph-name="cent" unicode="&#xa2;" horiz-adv-x="360" 
d="M180 -70v70q-66 8 -103 56t-37 136q0 91 38.5 140t101.5 57v71h46v-69q30 -2 56 -8.5t48 -16.5v-89h-50v56q-12 4 -25.5 6.5t-28.5 3.5v-295q47 3 104 35v-53q-49 -28 -104 -31v-69h-46zM180 341q-41 -9 -59.5 -42t-18.5 -100q0 -69 19.5 -104t58.5 -44v290z" />
    <glyph glyph-name="sterling" unicode="&#xa3;" horiz-adv-x="390" 
d="M40 280h58q-18 78 -18 114q0 68 42 107t112 39q62 0 116 -28v-100h-52v66q-31 12 -67 12q-44 0 -67.5 -23.5t-23.5 -67.5q0 -34 19 -119h131v-45h-123q3 -21 3 -37q0 -90 -63 -146v-2h201v70h52v-120h-320v43q70 54 70 152q0 19 -3 40h-67v45z" />
    <glyph glyph-name="yen" unicode="&#xa5;" 
d="M217 285l103 205h-50v50h150v-50h-46l-106 -205h92v-45h-120v-60h120v-45h-120v-85h60v-50h-180v50h60v85h-119v45h119v60h-119v45h91l-110 205h-42v50h149v-50h-43l109 -205h2z" />
    <glyph glyph-name="numbersign" unicode="#" 
d="M390 340l-4 -40h-79l-11 -120h80l-4 -40h-80l-12 -140h-50l13 140h-86l-12 -140h-49l13 140h-79l4 40h78l11 120h-79l4 40h79l13 140h48l-13 -140h87l13 140h48l-13 -140h80zM161 180h86l11 120h-86z" />
    <glyph glyph-name="zero" unicode="0" 
d="M40 224q0 111 47.5 173.5t127.5 62.5q74 0 119.5 -60.5t45.5 -169.5q0 -108 -46.5 -174t-125.5 -66q-76 0 -122 64t-46 170zM103 228q0 -91 28.5 -139.5t77.5 -48.5q52 0 80 49.5t28 140.5q0 87 -26.5 133.5t-79.5 46.5q-51 0 -79.5 -45.5t-28.5 -136.5z" />
    <glyph glyph-name="one" unicode="1" horiz-adv-x="240" 
d="M110 0v400h-70v50h130v-450h-60z" />
    <glyph glyph-name="two" unicode="2" horiz-adv-x="360" 
d="M330 110v-110h-300v45q94 76 157 154.5t63 132.5q0 36 -17 57t-63 21q-39 0 -78 -17v-73h-52v102q69 38 137 38q66 0 101 -32.5t35 -89.5q0 -65 -63.5 -145t-139.5 -141v-2h168v60h52z" />
    <glyph glyph-name="three" unicode="3" horiz-adv-x="360" 
d="M10 -32q57 -17 116 -17q69 0 105 27.5t36 82.5q0 52 -34.5 76t-103.5 24h-29v49h20q60 0 93.5 30t33.5 83q0 42 -23 64.5t-72 22.5q-44 0 -80 -15v-65h-52v95q66 35 136 35q72 0 113 -37t41 -96q0 -89 -96 -133v-2q116 -25 116 -131q0 -35 -13.5 -64.5t-39.5 -51
t-65 -33.5t-89 -12q-60 0 -113 16v52z" />
    <glyph glyph-name="four" unicode="4" 
d="M270 60h-250v44l261 346h49v-340h60v-50h-60v-120h-60v120zM87 110h183v242h-2l-181 -240v-2z" />
    <glyph glyph-name="five" unicode="5" horiz-adv-x="390" 
d="M40 -36q49 -13 99 -13q70 0 109 31.5t39 96.5q0 59 -38.5 90t-119.5 31q-37 0 -79 -4v254h272v-110h-52v60h-165v-152q21 2 38 2q93 0 150 -42.5t57 -124.5q0 -80 -57 -131.5t-156 -51.5q-52 0 -97 11v53z" />
    <glyph glyph-name="six" unicode="6" 
d="M350 495q-33 5 -55 5q-94 0 -141.5 -58.5t-50.5 -165.5l2 -1q53 55 129 55q69 0 112.5 -44t43.5 -110q0 -74 -47 -125t-123 -51q-84 0 -132 65.5t-48 186.5q0 138 67.5 218t187.5 80q24 0 55 -5v-50zM103 227q5 -78 34.5 -127.5t84.5 -49.5q46 0 75.5 31t29.5 86
q0 51 -27.5 82t-76.5 31q-68 0 -120 -53z" />
    <glyph glyph-name="seven" unicode="7" horiz-adv-x="360" 
d="M110 -90q3 63 20.5 129t42.5 129.5t55 122t59 107.5l-1 2h-204v-67h-52v117h320v-43q-35 -57 -65.5 -117t-54 -122t-37.5 -126.5t-15 -131.5h-68z" />
    <glyph glyph-name="eight" unicode="8" 
d="M145 285v2q-98 49 -98 125q0 62 47.5 100t121.5 38q73 0 115 -35t42 -93q0 -78 -104 -131v-2q58 -30 86 -65t28 -79q0 -62 -49 -103.5t-128 -41.5q-77 0 -123 38t-46 99q0 92 108 148zM189 263q-89 -45 -89 -123q0 -45 30 -67.5t78 -22.5q51 0 81.5 24t30.5 62
t-31.5 66.5t-99.5 60.5zM227 312q86 47 86 108q0 40 -28.5 60t-73.5 20t-74.5 -20t-29.5 -55q0 -20 9.5 -35.5t25.5 -28.5t38 -24.5t47 -24.5z" />
    <glyph glyph-name="nine" unicode="9" 
d="M70 -45q32 -5 55 -5q93 0 141 60.5t51 172.5l-2 1q-53 -54 -129 -54q-69 0 -112.5 44t-43.5 112q0 74 47 124t123 50q85 0 132.5 -65.5t47.5 -186.5q0 -142 -68 -225t-187 -83q-24 0 -55 5v50zM317 233q-5 78 -34.5 127.5t-84.5 49.5q-46 0 -75.5 -31t-29.5 -86
q0 -51 27.5 -82t76.5 -31q67 0 120 53z" />
    <glyph glyph-name="uni2070" unicode="&#x2070;" horiz-adv-x="360" 
d="M50 379q0 84 37 127.5t97 43.5q58 0 92 -43.5t34 -121.5q0 -87 -36.5 -131t-95.5 -44q-57 0 -92.5 44t-35.5 125zM106 382q0 -62 18.5 -93.5t55.5 -31.5q36 0 55 31.5t19 93.5q0 61 -17.5 91t-56.5 30q-36 0 -55 -28.5t-19 -92.5z" />
    <glyph glyph-name="onesuperior" unicode="&#xb9;" horiz-adv-x="240" 
d="M120 220v273h-60v47h115v-320h-55z" />
    <glyph glyph-name="twosuperior" unicode="&#xb2;" horiz-adv-x="330" 
d="M290 310v-90h-250v44q77 54 130.5 105t53.5 92q0 21 -15.5 32t-46.5 11q-34 0 -65 -14v-60h-47v88q57 32 120 32q55 0 82.5 -22t27.5 -62q0 -54 -48.5 -103.5t-109.5 -94.5v-2h121v44h47z" />
    <glyph glyph-name="threesuperior" unicode="&#xb3;" horiz-adv-x="330" 
d="M40 275q48 -19 101 -19q40 0 66.5 12.5t26.5 41.5q0 24 -23 37t-78 13h-23v44h16q49 0 71.5 14t22.5 40q0 20 -16 33t-53 13q-36 0 -64 -10v-44h-47v71q55 29 115 29q53 0 86 -23.5t33 -62.5q0 -52 -56 -73v-2q72 -16 72 -79q0 -48 -41.5 -74t-104.5 -26q-62 0 -104 16
v49z" />
    <glyph glyph-name="uni2074" unicode="&#x2074;" horiz-adv-x="330" 
d="M180 295h-170v40l177 210h53v-205h60v-45h-60v-75h-60v75zM73 340h107v128h-2l-106 -126z" />
    <glyph glyph-name="fraction" unicode="&#x2044;" horiz-adv-x="90" 
d="M260 550l-370 -550h-60l370 550h60z" />
    <glyph glyph-name="uni2215" unicode="&#x2215;" horiz-adv-x="90" 
d="M260 550l-370 -550h-60l370 550h60z" />
    <glyph glyph-name="onequarter" unicode="&#xbc;" horiz-adv-x="690" 
d="M120 220v273h-60v47h115v-320h-55zM545 550l-370 -550h-60l370 550h60zM540 86h-170v40l177 210h53v-205h60v-45h-60v-75h-60v75zM433 131h107v128h-2l-106 -126z" />
    <glyph glyph-name="onehalf" unicode="&#xbd;" horiz-adv-x="720" 
d="M120 220v273h-60v47h115v-320h-55zM545 550l-370 -550h-60l370 550h60zM680 101v-90h-250v44q77 54 130.5 105t53.5 92q0 21 -15.5 32t-46.5 11q-34 0 -65 -14v-60h-47v88q57 32 120 32q55 0 82.5 -22t27.5 -62q0 -54 -48.5 -103.5t-109.5 -94.5v-2h121v44h47z" />
    <glyph glyph-name="threequarters" unicode="&#xbe;" horiz-adv-x="750" 
d="M40 275q48 -19 101 -19q40 0 66.5 12.5t26.5 41.5q0 24 -23 37t-78 13h-23v44h16q49 0 71.5 14t22.5 40q0 20 -16 33t-53 13q-36 0 -64 -10v-44h-47v71q55 29 115 29q53 0 86 -23.5t33 -62.5q0 -52 -56 -73v-2q72 -16 72 -79q0 -48 -41.5 -74t-104.5 -26q-62 0 -104 16
v49zM605 550l-370 -550h-60l370 550h60zM600 86h-170v40l177 210h53v-205h60v-45h-60v-75h-60v75zM493 131h107v128h-2l-106 -126z" />
    <glyph glyph-name="percent" unicode="%" horiz-adv-x="780" 
d="M50 379q0 84 37 127.5t97 43.5q58 0 92 -43.5t34 -121.5q0 -87 -36.5 -131t-95.5 -44q-57 0 -92.5 44t-35.5 125zM106 382q0 -62 18.5 -93.5t55.5 -31.5q36 0 55 31.5t19 93.5q0 61 -17.5 91t-56.5 30q-36 0 -55 -28.5t-19 -92.5zM605 550l-370 -550h-60l370 550h60z
M470 170q0 84 37 127.5t97 43.5q58 0 92 -43.5t34 -121.5q0 -87 -36.5 -131t-95.5 -44q-57 0 -92.5 44t-35.5 125zM526 173q0 -62 18.5 -93.5t55.5 -31.5q36 0 55 31.5t19 93.5q0 61 -17.5 91t-56.5 30q-36 0 -55 -28.5t-19 -92.5z" />
    <glyph glyph-name="perthousand" unicode="&#x2030;" horiz-adv-x="1080" 
d="M50 379q0 84 37 127.5t97 43.5q58 0 92 -43.5t34 -121.5q0 -87 -36.5 -131t-95.5 -44q-57 0 -92.5 44t-35.5 125zM106 382q0 -62 18.5 -93.5t55.5 -31.5q36 0 55 31.5t19 93.5q0 61 -17.5 91t-56.5 30q-36 0 -55 -28.5t-19 -92.5zM605 550l-370 -550h-60l370 550h60z
M470 170q0 84 37 127.5t97 43.5q58 0 92 -43.5t34 -121.5q0 -87 -36.5 -131t-95.5 -44q-57 0 -92.5 44t-35.5 125zM526 173q0 -62 18.5 -93.5t55.5 -31.5q36 0 55 31.5t19 93.5q0 61 -17.5 91t-56.5 30q-36 0 -55 -28.5t-19 -92.5zM770 170q0 84 37 127.5t97 43.5
q58 0 92 -43.5t34 -121.5q0 -87 -36.5 -131t-95.5 -44q-57 0 -92.5 44t-35.5 125zM826 173q0 -62 18.5 -93.5t55.5 -31.5q36 0 55 31.5t19 93.5q0 61 -17.5 91t-56.5 30q-36 0 -55 -28.5t-19 -92.5z" />
    <glyph glyph-name="plus" unicode="+" horiz-adv-x="390" 
d="M222 50h-54v133h-138v54h138v133h54v-133h138v-54h-138v-133z" />
    <glyph glyph-name="minus" unicode="&#x2212;" horiz-adv-x="390" 
d="M30 183v54h330v-54h-330z" />
    <glyph glyph-name="plusminus" unicode="&#xb1;" horiz-adv-x="390" 
d="M222 80h-54v103h-138v54h138v103h54v-103h138v-54h-138v-103zM30 3v54h330v-54h-330z" />
    <glyph glyph-name="multiply" unicode="&#xd7;" horiz-adv-x="395" 
d="M355 88l-38 -38l-122 122l-122 -122l-38 38l122 122l-122 122l38 38l122 -122l122 122l38 -38l-122 -122z" />
    <glyph glyph-name="divide" unicode="&#xf7;" horiz-adv-x="390" 
d="M152 85q0 21 11.5 33t32.5 12q19 0 30 -11.5t11 -31.5t-11 -31.5t-31 -11.5t-31.5 11.5t-11.5 29.5zM152 331q0 21 11.5 33t32.5 12q19 0 30 -11.5t11 -31.5t-11 -31.5t-31 -11.5t-31.5 11.5t-11.5 29.5zM30 183v54h330v-54h-330z" />
    <glyph glyph-name="equal" unicode="=" horiz-adv-x="390" 
d="M30 246v54h330v-54h-330zM30 120v54h330v-54h-330z" />
    <glyph glyph-name="less" unicode="&#x3c;" horiz-adv-x="390" 
d="M97 209l263 -92v-57l-330 123v54l330 123v-55l-263 -94v-2z" />
    <glyph glyph-name="greater" unicode="&#x3e;" horiz-adv-x="390" 
d="M293 211l-263 94v55l330 -123v-54l-330 -123v57l263 92v2z" />
    <glyph glyph-name="logicalnot" unicode="&#xac;" horiz-adv-x="390" 
d="M354 50h-54v133h-270v54h324v-187z" />
    <glyph glyph-name="ordfeminine" unicode="&#xaa;" horiz-adv-x="330" 
d="M50 487q51 23 108 23q53 0 80 -25t27 -74v-144h45v-47h-94l-3 35h-2q-39 -45 -92 -45q-40 0 -64.5 22.5t-24.5 59.5q0 93 165 93h15v15q0 63 -59 63q-52 0 -101 -24v48zM194 345q-52 0 -80 -11t-28 -39q0 -18 12.5 -28t34.5 -10q47 0 77 40v48h-16z" />
    <glyph glyph-name="ordmasculine" unicode="&#xba;" horiz-adv-x="330" 
d="M30 359q0 67 37.5 109t102.5 42q61 0 95.5 -40t34.5 -105q0 -69 -37.5 -112t-98.5 -43q-62 0 -98 41t-36 108zM87 366q0 -53 20.5 -81t59.5 -28t57.5 26.5t18.5 77.5q0 49 -18.5 75.5t-60.5 26.5q-37 0 -57 -23.5t-20 -73.5z" />
    <glyph glyph-name="degree" unicode="&#xb0;" horiz-adv-x="300" 
d="M30 425q0 54 34.5 89.5t90.5 35.5q55 0 90 -35.5t35 -89.5t-35 -89.5t-90 -35.5q-56 0 -90.5 35.5t-34.5 89.5zM84 425q0 -33 20 -54t51 -21q33 0 52.5 21t19.5 54t-19.5 53.5t-52.5 20.5q-31 0 -51 -20.5t-20 -53.5z" />
    <glyph glyph-name="uni00B5" unicode="&#xb5;" horiz-adv-x="390" 
d="M50 -180v570h60v-292q21 -58 75 -58q56 0 85 59v291h60v-340h50v-50h-103l-3 45h-2q-33 -55 -84 -55q-53 0 -76 45h-2v-215h-60z" />
    </font>
</defs>
</svg>
