<?xml version="1.0" standalone="no"?>
<!DOCTYPE svg PUBLIC "-//W3C//DTD SVG 1.1//EN" "http://www.w3.org/Graphics/SVG/1.1/DTD/svg11.dtd" >
<svg xmlns="http://www.w3.org/2000/svg" xmlns:xlink="http://www.w3.org/1999/xlink" version="1.1">
<metadata>
Created by FontForge 20230101 at Tue Mar 29 13:04:51 2022
 By Glenn Lewis
</metadata>
<defs>
<font id="MRKMaston-Bold" horiz-adv-x="0" >
  <font-face 
    font-family="MRK Maston Bold"
    font-weight="700"
    font-stretch="normal"
    units-per-em="1000"
    panose-1="0 0 0 0 0 0 0 0 0 0"
    ascent="800"
    descent="-200"
    cap-height="700"
    bbox="-41 -238 1145 966"
    underline-thickness="50"
    underline-position="-125"
    unicode-range="U+0020-2265"
  />
<missing-glyph horiz-adv-x="500" 
d="M410 -200h-317v1000h317v-1000zM333 -131v33h-102l70 47h32v33h-166v-33h70l-70 -47v-33h166zM333 5v113h-166v-113h166zM333 178v113h-100v-56h34v23h33v-47h-100v80h-33v-113h166zM333 313v100h-33v-66h-133v-34h166zM267 370v70h66v33h-166v-33h66v-37h-66v-33h100z
M333 500v34h-66v70h-100v-104h166zM333 630v33h-66v37h66v33h-165v-33h65v-37h-66v-33h166zM200 85h100v-47h-100v47zM200 570h33v-36h-33v36z" />
    <glyph glyph-name=".notdef" horiz-adv-x="500" 
d="M410 -200h-317v1000h317v-1000zM333 -131v33h-102l70 47h32v33h-166v-33h70l-70 -47v-33h166zM333 5v113h-166v-113h166zM333 178v113h-100v-56h34v23h33v-47h-100v80h-33v-113h166zM333 313v100h-33v-66h-133v-34h166zM267 370v70h66v33h-166v-33h66v-37h-66v-33h100z
M333 500v34h-66v70h-100v-104h166zM333 630v33h-66v37h66v33h-165v-33h65v-37h-66v-33h166zM200 85h100v-47h-100v47zM200 570h33v-36h-33v36z" />
    <glyph glyph-name="space" unicode=" " horiz-adv-x="220" 
 />
    <glyph glyph-name="space" unicode="&#xa0;" horiz-adv-x="220" 
 />
    <glyph glyph-name="space" unicode="&#xa0;" horiz-adv-x="220" 
 />
    <glyph glyph-name="A" unicode="A" horiz-adv-x="552" 
d="M27 30q5 15 22 72t21 81l84 517h244l84 -517q4 -24 21 -81t22 -72l9 -30h-156q-13 43 -30 155q-43 4 -72 4q-21 0 -37 -1t-36 -4q-17 -111 -30 -154h-155zM276 275q35 0 58 3l-14 87q-21 131 -39 254h-11q-18 -123 -39 -254l-14 -87q30 -3 59 -3z" />
    <glyph glyph-name="A" unicode="a" horiz-adv-x="552" 
d="M27 30q5 15 22 72t21 81l84 517h244l84 -517q4 -24 21 -81t22 -72l9 -30h-156q-13 43 -30 155q-43 4 -72 4q-21 0 -37 -1t-36 -4q-17 -111 -30 -154h-155zM276 275q35 0 58 3l-14 87q-21 131 -39 254h-11q-18 -123 -39 -254l-14 -87q30 -3 59 -3z" />
    <glyph glyph-name="A" unicode="a" horiz-adv-x="552" 
d="M27 30q5 15 22 72t21 81l84 517h244l84 -517q4 -24 21 -81t22 -72l9 -30h-156q-13 43 -30 155q-43 4 -72 4q-21 0 -37 -1t-36 -4q-17 -111 -30 -154h-155zM276 275q35 0 58 3l-14 87q-21 131 -39 254h-11q-18 -123 -39 -254l-14 -87q30 -3 59 -3z" />
    <glyph glyph-name="Aacute" unicode="&#xc1;" horiz-adv-x="552" 
d="M27 30q5 15 22 72t21 81l84 517h244l84 -517q4 -24 21 -81t22 -72l9 -30h-156q-13 43 -30 155q-43 4 -72 4q-21 0 -37 -1t-36 -4q-17 -111 -30 -154h-155zM276 275q35 0 58 3l-14 87q-21 131 -39 254h-11q-18 -123 -39 -254l-14 -87q30 -3 59 -3zM188 799l43 71
q16 24 35 64l14 28q39 -39 84 -63l-27 -26l-48 -49l-50 -59z" />
    <glyph glyph-name="Aacute" unicode="&#xe1;" horiz-adv-x="552" 
d="M27 30q5 15 22 72t21 81l84 517h244l84 -517q4 -24 21 -81t22 -72l9 -30h-156q-13 43 -30 155q-43 4 -72 4q-21 0 -37 -1t-36 -4q-17 -111 -30 -154h-155zM276 275q35 0 58 3l-14 87q-21 131 -39 254h-11q-18 -123 -39 -254l-14 -87q30 -3 59 -3zM188 799l43 71
q16 24 35 64l14 28q39 -39 84 -63l-27 -26l-48 -49l-50 -59z" />
    <glyph glyph-name="Aacute" unicode="&#xe1;" horiz-adv-x="552" 
d="M27 30q5 15 22 72t21 81l84 517h244l84 -517q4 -24 21 -81t22 -72l9 -30h-156q-13 43 -30 155q-43 4 -72 4q-21 0 -37 -1t-36 -4q-17 -111 -30 -154h-155zM276 275q35 0 58 3l-14 87q-21 131 -39 254h-11q-18 -123 -39 -254l-14 -87q30 -3 59 -3zM188 799l43 71
q16 24 35 64l14 28q39 -39 84 -63l-27 -26l-48 -49l-50 -59z" />
    <glyph glyph-name="Abreve" unicode="&#x102;" horiz-adv-x="552" 
d="M27 30q5 15 22 72t21 81l84 517h244l84 -517q4 -24 21 -81t22 -72l9 -30h-156q-13 43 -30 155q-43 4 -72 4q-21 0 -37 -1t-36 -4q-17 -111 -30 -154h-155zM276 275q35 0 58 3l-14 87q-21 131 -39 254h-11q-18 -123 -39 -254l-14 -87q30 -3 59 -3zM182 820.5
q-39 36.5 -50 88.5h85q5 -23 22 -35.5t38 -12.5t37.5 12.5t20.5 35.5h85q-11 -52 -49.5 -88.5t-93.5 -36.5q-56 0 -95 36.5z" />
    <glyph glyph-name="Abreve" unicode="&#x103;" horiz-adv-x="552" 
d="M27 30q5 15 22 72t21 81l84 517h244l84 -517q4 -24 21 -81t22 -72l9 -30h-156q-13 43 -30 155q-43 4 -72 4q-21 0 -37 -1t-36 -4q-17 -111 -30 -154h-155zM276 275q35 0 58 3l-14 87q-21 131 -39 254h-11q-18 -123 -39 -254l-14 -87q30 -3 59 -3zM182 820.5
q-39 36.5 -50 88.5h85q5 -23 22 -35.5t38 -12.5t37.5 12.5t20.5 35.5h85q-11 -52 -49.5 -88.5t-93.5 -36.5q-56 0 -95 36.5z" />
    <glyph glyph-name="Abreve" unicode="&#x103;" horiz-adv-x="552" 
d="M27 30q5 15 22 72t21 81l84 517h244l84 -517q4 -24 21 -81t22 -72l9 -30h-156q-13 43 -30 155q-43 4 -72 4q-21 0 -37 -1t-36 -4q-17 -111 -30 -154h-155zM276 275q35 0 58 3l-14 87q-21 131 -39 254h-11q-18 -123 -39 -254l-14 -87q30 -3 59 -3zM182 820.5
q-39 36.5 -50 88.5h85q5 -23 22 -35.5t38 -12.5t37.5 12.5t20.5 35.5h85q-11 -52 -49.5 -88.5t-93.5 -36.5q-56 0 -95 36.5z" />
    <glyph glyph-name="Acircumflex" unicode="&#xc2;" horiz-adv-x="552" 
d="M27 30q5 15 22 72t21 81l84 517h244l84 -517q4 -24 21 -81t22 -72l9 -30h-156q-13 43 -30 155q-43 4 -72 4q-21 0 -37 -1t-36 -4q-17 -111 -30 -154h-155zM276 275q35 0 58 3l-14 87q-21 131 -39 254h-11q-18 -123 -39 -254l-14 -87q30 -3 59 -3zM172.5 865
q12.5 13 27.5 30q16 18 27 32.5t23 34.5h51q12 -20 23 -34.5t27 -32.5q15 -17 27.5 -30t32.5 -30l-60 -51q-28 39 -37 50l-14 18l-22 31l-25 -31q-8 -11 -22 -27q-16 -19 -31 -41l-60 51q20 17 32.5 30z" />
    <glyph glyph-name="Acircumflex" unicode="&#xe2;" horiz-adv-x="552" 
d="M27 30q5 15 22 72t21 81l84 517h244l84 -517q4 -24 21 -81t22 -72l9 -30h-156q-13 43 -30 155q-43 4 -72 4q-21 0 -37 -1t-36 -4q-17 -111 -30 -154h-155zM276 275q35 0 58 3l-14 87q-21 131 -39 254h-11q-18 -123 -39 -254l-14 -87q30 -3 59 -3zM172.5 865
q12.5 13 27.5 30q16 18 27 32.5t23 34.5h51q12 -20 23 -34.5t27 -32.5q15 -17 27.5 -30t32.5 -30l-60 -51q-28 39 -37 50l-14 18l-22 31l-25 -31q-8 -11 -22 -27q-16 -19 -31 -41l-60 51q20 17 32.5 30z" />
    <glyph glyph-name="Acircumflex" unicode="&#xe2;" horiz-adv-x="552" 
d="M27 30q5 15 22 72t21 81l84 517h244l84 -517q4 -24 21 -81t22 -72l9 -30h-156q-13 43 -30 155q-43 4 -72 4q-21 0 -37 -1t-36 -4q-17 -111 -30 -154h-155zM276 275q35 0 58 3l-14 87q-21 131 -39 254h-11q-18 -123 -39 -254l-14 -87q30 -3 59 -3zM172.5 865
q12.5 13 27.5 30q16 18 27 32.5t23 34.5h51q12 -20 23 -34.5t27 -32.5q15 -17 27.5 -30t32.5 -30l-60 -51q-28 39 -37 50l-14 18l-22 31l-25 -31q-8 -11 -22 -27q-16 -19 -31 -41l-60 51q20 17 32.5 30z" />
    <glyph glyph-name="Adieresis" unicode="&#xc4;" horiz-adv-x="552" 
d="M27 30q5 15 22 72t21 81l84 517h244l84 -517q4 -24 21 -81t22 -72l9 -30h-156q-13 43 -30 155q-43 4 -72 4q-21 0 -37 -1t-36 -4q-17 -111 -30 -154h-155zM276 275q35 0 58 3l-14 87q-21 131 -39 254h-11q-18 -123 -39 -254l-14 -87q30 -3 59 -3zM318.5 809.5
q-19.5 19.5 -19.5 54.5q0 36 19.5 54.5t54.5 18.5t54.5 -19t19.5 -54t-20 -54.5t-54 -19.5q-35 0 -54.5 19.5zM125 918q20 19 55 19t54 -19t19 -54q0 -36 -19.5 -55t-53.5 -19q-36 0 -55.5 19.5t-19.5 54.5t20 54z" />
    <glyph glyph-name="Adieresis" unicode="&#xe4;" horiz-adv-x="552" 
d="M27 30q5 15 22 72t21 81l84 517h244l84 -517q4 -24 21 -81t22 -72l9 -30h-156q-13 43 -30 155q-43 4 -72 4q-21 0 -37 -1t-36 -4q-17 -111 -30 -154h-155zM276 275q35 0 58 3l-14 87q-21 131 -39 254h-11q-18 -123 -39 -254l-14 -87q30 -3 59 -3zM318.5 809.5
q-19.5 19.5 -19.5 54.5q0 36 19.5 54.5t54.5 18.5t54.5 -19t19.5 -54t-20 -54.5t-54 -19.5q-35 0 -54.5 19.5zM125 918q20 19 55 19t54 -19t19 -54q0 -36 -19.5 -55t-53.5 -19q-36 0 -55.5 19.5t-19.5 54.5t20 54z" />
    <glyph glyph-name="Adieresis" unicode="&#xe4;" horiz-adv-x="552" 
d="M27 30q5 15 22 72t21 81l84 517h244l84 -517q4 -24 21 -81t22 -72l9 -30h-156q-13 43 -30 155q-43 4 -72 4q-21 0 -37 -1t-36 -4q-17 -111 -30 -154h-155zM276 275q35 0 58 3l-14 87q-21 131 -39 254h-11q-18 -123 -39 -254l-14 -87q30 -3 59 -3zM318.5 809.5
q-19.5 19.5 -19.5 54.5q0 36 19.5 54.5t54.5 18.5t54.5 -19t19.5 -54t-20 -54.5t-54 -19.5q-35 0 -54.5 19.5zM125 918q20 19 55 19t54 -19t19 -54q0 -36 -19.5 -55t-53.5 -19q-36 0 -55.5 19.5t-19.5 54.5t20 54z" />
    <glyph glyph-name="Agrave" unicode="&#xc0;" horiz-adv-x="552" 
d="M27 30q5 15 22 72t21 81l84 517h244l84 -517q4 -24 21 -81t22 -72l9 -30h-156q-13 43 -30 155q-43 4 -72 4q-21 0 -37 -1t-36 -4q-17 -111 -30 -154h-155zM276 275q35 0 58 3l-14 87q-21 131 -39 254h-11q-18 -123 -39 -254l-14 -87q30 -3 59 -3zM276 777q-18 30 -37 57
q-19 24 -31 37.5t-30 31.5l84 63q13 -26 21.5 -39t27.5 -38q17 -23 29.5 -36.5t32.5 -34.5l-84 -62z" />
    <glyph glyph-name="Agrave" unicode="&#xe0;" horiz-adv-x="552" 
d="M27 30q5 15 22 72t21 81l84 517h244l84 -517q4 -24 21 -81t22 -72l9 -30h-156q-13 43 -30 155q-43 4 -72 4q-21 0 -37 -1t-36 -4q-17 -111 -30 -154h-155zM276 275q35 0 58 3l-14 87q-21 131 -39 254h-11q-18 -123 -39 -254l-14 -87q30 -3 59 -3zM276 777q-18 30 -37 57
q-19 24 -31 37.5t-30 31.5l84 63q13 -26 21.5 -39t27.5 -38q17 -23 29.5 -36.5t32.5 -34.5l-84 -62z" />
    <glyph glyph-name="Agrave" unicode="&#xe0;" horiz-adv-x="552" 
d="M27 30q5 15 22 72t21 81l84 517h244l84 -517q4 -24 21 -81t22 -72l9 -30h-156q-13 43 -30 155q-43 4 -72 4q-21 0 -37 -1t-36 -4q-17 -111 -30 -154h-155zM276 275q35 0 58 3l-14 87q-21 131 -39 254h-11q-18 -123 -39 -254l-14 -87q30 -3 59 -3zM276 777q-18 30 -37 57
q-19 24 -31 37.5t-30 31.5l84 63q13 -26 21.5 -39t27.5 -38q17 -23 29.5 -36.5t32.5 -34.5l-84 -62z" />
    <glyph glyph-name="Amacron" unicode="&#x100;" horiz-adv-x="552" 
d="M27 30q5 15 22 72t21 81l84 517h244l84 -517q4 -24 21 -81t22 -72l9 -30h-156q-13 43 -30 155q-43 4 -72 4q-21 0 -37 -1t-36 -4q-17 -111 -30 -154h-155zM276 275q35 0 58 3l-14 87q-21 131 -39 254h-11q-18 -123 -39 -254l-14 -87q30 -3 59 -3zM182 904q44 -3 92 -3
q36 0 63.5 1t70.5 5v-98l-48 3q-39 3 -86 3q-48 0 -90 -3l-41 -3v98z" />
    <glyph glyph-name="Amacron" unicode="&#x101;" horiz-adv-x="552" 
d="M27 30q5 15 22 72t21 81l84 517h244l84 -517q4 -24 21 -81t22 -72l9 -30h-156q-13 43 -30 155q-43 4 -72 4q-21 0 -37 -1t-36 -4q-17 -111 -30 -154h-155zM276 275q35 0 58 3l-14 87q-21 131 -39 254h-11q-18 -123 -39 -254l-14 -87q30 -3 59 -3zM182 904q44 -3 92 -3
q36 0 63.5 1t70.5 5v-98l-48 3q-39 3 -86 3q-48 0 -90 -3l-41 -3v98z" />
    <glyph glyph-name="Amacron" unicode="&#x101;" horiz-adv-x="552" 
d="M27 30q5 15 22 72t21 81l84 517h244l84 -517q4 -24 21 -81t22 -72l9 -30h-156q-13 43 -30 155q-43 4 -72 4q-21 0 -37 -1t-36 -4q-17 -111 -30 -154h-155zM276 275q35 0 58 3l-14 87q-21 131 -39 254h-11q-18 -123 -39 -254l-14 -87q30 -3 59 -3zM182 904q44 -3 92 -3
q36 0 63.5 1t70.5 5v-98l-48 3q-39 3 -86 3q-48 0 -90 -3l-41 -3v98z" />
    <glyph glyph-name="Aogonek" unicode="&#x104;" horiz-adv-x="552" 
d="M27 30q5 15 22 72t21 81l84 517h244l84 -517q4 -24 21 -81t22 -72l9 -30h-117l29 -34q15 -18 48 -49l27 -26l-19 -10q-56 -28 -77 -49l-16 30q-14 29 -34 61l-48 77l46 18q-12 52 -25 137q-43 4 -72 4q-21 0 -37 -1t-36 -4q-17 -111 -30 -154h-155zM276 275q35 0 58 3
l-14 87q-21 131 -39 254h-11q-18 -123 -39 -254l-14 -87q30 -3 59 -3z" />
    <glyph glyph-name="Aogonek" unicode="&#x105;" horiz-adv-x="552" 
d="M27 30q5 15 22 72t21 81l84 517h244l84 -517q4 -24 21 -81t22 -72l9 -30h-117l29 -34q15 -18 48 -49l27 -26l-19 -10q-56 -28 -77 -49l-16 30q-14 29 -34 61l-48 77l46 18q-12 52 -25 137q-43 4 -72 4q-21 0 -37 -1t-36 -4q-17 -111 -30 -154h-155zM276 275q35 0 58 3
l-14 87q-21 131 -39 254h-11q-18 -123 -39 -254l-14 -87q30 -3 59 -3z" />
    <glyph glyph-name="Aogonek" unicode="&#x105;" horiz-adv-x="552" 
d="M27 30q5 15 22 72t21 81l84 517h244l84 -517q4 -24 21 -81t22 -72l9 -30h-117l29 -34q15 -18 48 -49l27 -26l-19 -10q-56 -28 -77 -49l-16 30q-14 29 -34 61l-48 77l46 18q-12 52 -25 137q-43 4 -72 4q-21 0 -37 -1t-36 -4q-17 -111 -30 -154h-155zM276 275q35 0 58 3
l-14 87q-21 131 -39 254h-11q-18 -123 -39 -254l-14 -87q30 -3 59 -3z" />
    <glyph glyph-name="Aring" unicode="&#xc5;" horiz-adv-x="552" 
d="M27 30q5 15 22 72t21 81l84 517h244l84 -517q4 -24 21 -81t22 -72l9 -30h-156q-13 43 -30 155q-43 4 -72 4q-21 0 -37 -1t-36 -4q-17 -111 -30 -154h-155zM276 275q35 0 58 3l-14 87q-21 131 -39 254h-11q-18 -123 -39 -254l-14 -87q30 -3 59 -3zM206 792q-25 25 -25 69
t25 67.5t70 23.5q44 0 69 -24.5t25 -66.5q0 -45 -25 -69.5t-69 -24.5q-45 0 -70 25zM247 829.5q10 -11.5 29 -11.5q18 0 28 12t10 32t-10 31t-28 11t-28.5 -11.5t-10.5 -30.5q0 -21 10 -32.5z" />
    <glyph glyph-name="Aring" unicode="&#xe5;" horiz-adv-x="552" 
d="M27 30q5 15 22 72t21 81l84 517h244l84 -517q4 -24 21 -81t22 -72l9 -30h-156q-13 43 -30 155q-43 4 -72 4q-21 0 -37 -1t-36 -4q-17 -111 -30 -154h-155zM276 275q35 0 58 3l-14 87q-21 131 -39 254h-11q-18 -123 -39 -254l-14 -87q30 -3 59 -3zM206 792q-25 25 -25 69
t25 67.5t70 23.5q44 0 69 -24.5t25 -66.5q0 -45 -25 -69.5t-69 -24.5q-45 0 -70 25zM247 829.5q10 -11.5 29 -11.5q18 0 28 12t10 32t-10 31t-28 11t-28.5 -11.5t-10.5 -30.5q0 -21 10 -32.5z" />
    <glyph glyph-name="Aring" unicode="&#xe5;" horiz-adv-x="552" 
d="M27 30q5 15 22 72t21 81l84 517h244l84 -517q4 -24 21 -81t22 -72l9 -30h-156q-13 43 -30 155q-43 4 -72 4q-21 0 -37 -1t-36 -4q-17 -111 -30 -154h-155zM276 275q35 0 58 3l-14 87q-21 131 -39 254h-11q-18 -123 -39 -254l-14 -87q30 -3 59 -3zM206 792q-25 25 -25 69
t25 67.5t70 23.5q44 0 69 -24.5t25 -66.5q0 -45 -25 -69.5t-69 -24.5q-45 0 -70 25zM247 829.5q10 -11.5 29 -11.5q18 0 28 12t10 32t-10 31t-28 11t-28.5 -11.5t-10.5 -30.5q0 -21 10 -32.5z" />
    <glyph glyph-name="Atilde" unicode="&#xc3;" horiz-adv-x="552" 
d="M27 30q5 15 22 72t21 81l84 517h244l84 -517q4 -24 21 -81t22 -72l9 -30h-156q-13 43 -30 155q-43 4 -72 4q-21 0 -37 -1t-36 -4q-17 -111 -30 -154h-155zM276 275q35 0 58 3l-14 87q-21 131 -39 254h-11q-18 -123 -39 -254l-14 -87q30 -3 59 -3zM286.5 768.5
q-15.5 14.5 -31.5 42.5q-9 18 -17.5 27.5t-21.5 9.5q-23 0 -31.5 -16.5t-8.5 -52.5v-17h-54v47q0 39 20 73t64 34q35 0 52 -15.5t29 -42.5q10 -20 17.5 -28.5t22.5 -8.5q31 0 40 17.5t9 51.5v18h54v-48q0 -38 -24 -72t-74 -34q-30 0 -45.5 14.5z" />
    <glyph glyph-name="Atilde" unicode="&#xe3;" horiz-adv-x="552" 
d="M27 30q5 15 22 72t21 81l84 517h244l84 -517q4 -24 21 -81t22 -72l9 -30h-156q-13 43 -30 155q-43 4 -72 4q-21 0 -37 -1t-36 -4q-17 -111 -30 -154h-155zM276 275q35 0 58 3l-14 87q-21 131 -39 254h-11q-18 -123 -39 -254l-14 -87q30 -3 59 -3zM286.5 768.5
q-15.5 14.5 -31.5 42.5q-9 18 -17.5 27.5t-21.5 9.5q-23 0 -31.5 -16.5t-8.5 -52.5v-17h-54v47q0 39 20 73t64 34q35 0 52 -15.5t29 -42.5q10 -20 17.5 -28.5t22.5 -8.5q31 0 40 17.5t9 51.5v18h54v-48q0 -38 -24 -72t-74 -34q-30 0 -45.5 14.5z" />
    <glyph glyph-name="Atilde" unicode="&#xe3;" horiz-adv-x="552" 
d="M27 30q5 15 22 72t21 81l84 517h244l84 -517q4 -24 21 -81t22 -72l9 -30h-156q-13 43 -30 155q-43 4 -72 4q-21 0 -37 -1t-36 -4q-17 -111 -30 -154h-155zM276 275q35 0 58 3l-14 87q-21 131 -39 254h-11q-18 -123 -39 -254l-14 -87q30 -3 59 -3zM286.5 768.5
q-15.5 14.5 -31.5 42.5q-9 18 -17.5 27.5t-21.5 9.5q-23 0 -31.5 -16.5t-8.5 -52.5v-17h-54v47q0 39 20 73t64 34q35 0 52 -15.5t29 -42.5q10 -20 17.5 -28.5t22.5 -8.5q31 0 40 17.5t9 51.5v18h54v-48q0 -38 -24 -72t-74 -34q-30 0 -45.5 14.5z" />
    <glyph glyph-name="AE" unicode="&#xc6;" horiz-adv-x="752" 
d="M27 32q5 15 22 72t21 81l84 515h541l-20 -121q-22 3 -39 4t-39 1q-27 0 -46.5 -2t-26.5 -3v-124q33 -3 62 -3q20 0 36.5 1t40.5 4v-126q-22 3 -38.5 4t-38.5 1q-27 0 -62 -3v-213q39 -4 82 -4q54 0 108 6l-20 -122h-321v170q-20 1 -98 1q-21 0 -37 -1t-36 -4
q-17 -111 -30 -164h-154zM275 287q78 0 98 1v295q-36 2 -50 2q-20 0 -54 -2q-11 -74 -32 -179q-17 -89 -21 -114q30 -3 59 -3z" />
    <glyph glyph-name="AE" unicode="&#xe6;" horiz-adv-x="752" 
d="M27 32q5 15 22 72t21 81l84 515h541l-20 -121q-22 3 -39 4t-39 1q-27 0 -46.5 -2t-26.5 -3v-124q33 -3 62 -3q20 0 36.5 1t40.5 4v-126q-22 3 -38.5 4t-38.5 1q-27 0 -62 -3v-213q39 -4 82 -4q54 0 108 6l-20 -122h-321v170q-20 1 -98 1q-21 0 -37 -1t-36 -4
q-17 -111 -30 -164h-154zM275 287q78 0 98 1v295q-36 2 -50 2q-20 0 -54 -2q-11 -74 -32 -179q-17 -89 -21 -114q30 -3 59 -3z" />
    <glyph glyph-name="AE" unicode="&#xe6;" horiz-adv-x="752" 
d="M27 32q5 15 22 72t21 81l84 515h541l-20 -121q-22 3 -39 4t-39 1q-27 0 -46.5 -2t-26.5 -3v-124q33 -3 62 -3q20 0 36.5 1t40.5 4v-126q-22 3 -38.5 4t-38.5 1q-27 0 -62 -3v-213q39 -4 82 -4q54 0 108 6l-20 -122h-321v170q-20 1 -98 1q-21 0 -37 -1t-36 -4
q-17 -111 -30 -164h-154zM275 287q78 0 98 1v295q-36 2 -50 2q-20 0 -54 -2q-11 -74 -32 -179q-17 -89 -21 -114q30 -3 59 -3z" />
    <glyph glyph-name="B" unicode="B" horiz-adv-x="512" 
d="M59 183v333q0 55 -21 184h162q105 0 177 -35t72 -122v-52q0 -77 -52 -113q87 -40 87 -138v-74q0 -72 -44.5 -108.5t-105 -47t-134.5 -10.5h-162q21 143 21 183zM293 127q31 9 40.5 26.5t9.5 47.5v54q0 43 -32.5 59.5t-110.5 16.5v-213q62 0 93 9zM270.5 441
q24.5 6 34 19.5t9.5 36.5v23q0 34 -26.5 48.5t-87.5 14.5v-148q46 0 70.5 6z" />
    <glyph glyph-name="B" unicode="b" horiz-adv-x="512" 
d="M59 183v333q0 55 -21 184h162q105 0 177 -35t72 -122v-52q0 -77 -52 -113q87 -40 87 -138v-74q0 -72 -44.5 -108.5t-105 -47t-134.5 -10.5h-162q21 143 21 183zM293 127q31 9 40.5 26.5t9.5 47.5v54q0 43 -32.5 59.5t-110.5 16.5v-213q62 0 93 9zM270.5 441
q24.5 6 34 19.5t9.5 36.5v23q0 34 -26.5 48.5t-87.5 14.5v-148q46 0 70.5 6z" />
    <glyph glyph-name="B" unicode="b" horiz-adv-x="512" 
d="M59 183v333q0 55 -21 184h162q105 0 177 -35t72 -122v-52q0 -77 -52 -113q87 -40 87 -138v-74q0 -72 -44.5 -108.5t-105 -47t-134.5 -10.5h-162q21 143 21 183zM293 127q31 9 40.5 26.5t9.5 47.5v54q0 43 -32.5 59.5t-110.5 16.5v-213q62 0 93 9zM270.5 441
q24.5 6 34 19.5t9.5 36.5v23q0 34 -26.5 48.5t-87.5 14.5v-148q46 0 70.5 6z" />
    <glyph glyph-name="C" unicode="C" horiz-adv-x="505" 
d="M111.5 46q-55.5 61 -66.5 170q-7 77 -7 134q0 59 7 134q11 109 66.5 170t141.5 61q98 0 144 -39.5t58 -93.5q7 -33 9.5 -52t2.5 -43q-19 3 -65 3q-45 0 -66 -3v23q0 35 -17 61.5t-60 26.5q-40 0 -58 -23.5t-18 -78.5v-292q0 -55 18 -78.5t58 -23.5q43 0 60 30t17 68v27
q21 -3 66 -3q46 0 65 3q-1 -5 -5 -49.5t-19 -85.5q-19 -49 -61 -78t-129 -29q-86 0 -141.5 61z" />
    <glyph glyph-name="C" unicode="c" horiz-adv-x="505" 
d="M111.5 46q-55.5 61 -66.5 170q-7 77 -7 134q0 59 7 134q11 109 66.5 170t141.5 61q98 0 144 -39.5t58 -93.5q7 -33 9.5 -52t2.5 -43q-19 3 -65 3q-45 0 -66 -3v23q0 35 -17 61.5t-60 26.5q-40 0 -58 -23.5t-18 -78.5v-292q0 -55 18 -78.5t58 -23.5q43 0 60 30t17 68v27
q21 -3 66 -3q46 0 65 3q-1 -5 -5 -49.5t-19 -85.5q-19 -49 -61 -78t-129 -29q-86 0 -141.5 61z" />
    <glyph glyph-name="C" unicode="c" horiz-adv-x="505" 
d="M111.5 46q-55.5 61 -66.5 170q-7 77 -7 134q0 59 7 134q11 109 66.5 170t141.5 61q98 0 144 -39.5t58 -93.5q7 -33 9.5 -52t2.5 -43q-19 3 -65 3q-45 0 -66 -3v23q0 35 -17 61.5t-60 26.5q-40 0 -58 -23.5t-18 -78.5v-292q0 -55 18 -78.5t58 -23.5q43 0 60 30t17 68v27
q21 -3 66 -3q46 0 65 3q-1 -5 -5 -49.5t-19 -85.5q-19 -49 -61 -78t-129 -29q-86 0 -141.5 61z" />
    <glyph glyph-name="Cacute" unicode="&#x106;" horiz-adv-x="505" 
d="M111.5 46q-55.5 61 -66.5 170q-7 77 -7 134q0 59 7 134q11 109 66.5 170t141.5 61q98 0 144 -39.5t58 -93.5q7 -33 9.5 -52t2.5 -43q-19 3 -65 3q-45 0 -66 -3v23q0 35 -17 61.5t-60 26.5q-40 0 -58 -23.5t-18 -78.5v-292q0 -55 18 -78.5t58 -23.5q43 0 60 30t17 68v27
q21 -3 66 -3q46 0 65 3q-1 -5 -5 -49.5t-19 -85.5q-19 -49 -61 -78t-129 -29q-86 0 -141.5 61zM165 799l43 71q16 24 35 64l14 28q39 -39 84 -63l-27 -26l-48 -49l-50 -59z" />
    <glyph glyph-name="Cacute" unicode="&#x107;" horiz-adv-x="505" 
d="M111.5 46q-55.5 61 -66.5 170q-7 77 -7 134q0 59 7 134q11 109 66.5 170t141.5 61q98 0 144 -39.5t58 -93.5q7 -33 9.5 -52t2.5 -43q-19 3 -65 3q-45 0 -66 -3v23q0 35 -17 61.5t-60 26.5q-40 0 -58 -23.5t-18 -78.5v-292q0 -55 18 -78.5t58 -23.5q43 0 60 30t17 68v27
q21 -3 66 -3q46 0 65 3q-1 -5 -5 -49.5t-19 -85.5q-19 -49 -61 -78t-129 -29q-86 0 -141.5 61zM165 799l43 71q16 24 35 64l14 28q39 -39 84 -63l-27 -26l-48 -49l-50 -59z" />
    <glyph glyph-name="Cacute" unicode="&#x107;" horiz-adv-x="505" 
d="M111.5 46q-55.5 61 -66.5 170q-7 77 -7 134q0 59 7 134q11 109 66.5 170t141.5 61q98 0 144 -39.5t58 -93.5q7 -33 9.5 -52t2.5 -43q-19 3 -65 3q-45 0 -66 -3v23q0 35 -17 61.5t-60 26.5q-40 0 -58 -23.5t-18 -78.5v-292q0 -55 18 -78.5t58 -23.5q43 0 60 30t17 68v27
q21 -3 66 -3q46 0 65 3q-1 -5 -5 -49.5t-19 -85.5q-19 -49 -61 -78t-129 -29q-86 0 -141.5 61zM165 799l43 71q16 24 35 64l14 28q39 -39 84 -63l-27 -26l-48 -49l-50 -59z" />
    <glyph glyph-name="Ccaron" unicode="&#x10c;" horiz-adv-x="505" 
d="M111.5 46q-55.5 61 -66.5 170q-7 77 -7 134q0 59 7 134q11 109 66.5 170t141.5 61q98 0 144 -39.5t58 -93.5q7 -33 9.5 -52t2.5 -43q-19 3 -65 3q-45 0 -66 -3v23q0 35 -17 61.5t-60 26.5q-40 0 -58 -23.5t-18 -78.5v-292q0 -55 18 -78.5t58 -23.5q43 0 60 30t17 68v27
q21 -3 66 -3q46 0 65 3q-1 -5 -5 -49.5t-19 -85.5q-19 -49 -61 -78t-129 -29q-86 0 -141.5 61zM199 805q-9 12 -33 40q-16 19 -27.5 30t-26.5 23l-18 16l67 51q35 -49 59 -77q25 -27 33 -34l33 34q18 22 45 59l13 18l67 -51l-18 -16q-15 -12 -26.5 -23t-27.5 -30
q-24 -28 -33 -40t-24 -37h-59q-15 25 -24 37z" />
    <glyph glyph-name="Ccaron" unicode="&#x10d;" horiz-adv-x="505" 
d="M111.5 46q-55.5 61 -66.5 170q-7 77 -7 134q0 59 7 134q11 109 66.5 170t141.5 61q98 0 144 -39.5t58 -93.5q7 -33 9.5 -52t2.5 -43q-19 3 -65 3q-45 0 -66 -3v23q0 35 -17 61.5t-60 26.5q-40 0 -58 -23.5t-18 -78.5v-292q0 -55 18 -78.5t58 -23.5q43 0 60 30t17 68v27
q21 -3 66 -3q46 0 65 3q-1 -5 -5 -49.5t-19 -85.5q-19 -49 -61 -78t-129 -29q-86 0 -141.5 61zM199 805q-9 12 -33 40q-16 19 -27.5 30t-26.5 23l-18 16l67 51q35 -49 59 -77q25 -27 33 -34l33 34q18 22 45 59l13 18l67 -51l-18 -16q-15 -12 -26.5 -23t-27.5 -30
q-24 -28 -33 -40t-24 -37h-59q-15 25 -24 37z" />
    <glyph glyph-name="Ccaron" unicode="&#x10d;" horiz-adv-x="505" 
d="M111.5 46q-55.5 61 -66.5 170q-7 77 -7 134q0 59 7 134q11 109 66.5 170t141.5 61q98 0 144 -39.5t58 -93.5q7 -33 9.5 -52t2.5 -43q-19 3 -65 3q-45 0 -66 -3v23q0 35 -17 61.5t-60 26.5q-40 0 -58 -23.5t-18 -78.5v-292q0 -55 18 -78.5t58 -23.5q43 0 60 30t17 68v27
q21 -3 66 -3q46 0 65 3q-1 -5 -5 -49.5t-19 -85.5q-19 -49 -61 -78t-129 -29q-86 0 -141.5 61zM199 805q-9 12 -33 40q-16 19 -27.5 30t-26.5 23l-18 16l67 51q35 -49 59 -77q25 -27 33 -34l33 34q18 22 45 59l13 18l67 -51l-18 -16q-15 -12 -26.5 -23t-27.5 -30
q-24 -28 -33 -40t-24 -37h-59q-15 25 -24 37z" />
    <glyph glyph-name="Ccedilla" unicode="&#xc7;" horiz-adv-x="505" 
d="M138 -114l-19 10l27 26q33 31 48 49l16 18q-69 14 -112 73t-53 154q-7 77 -7 134q0 59 7 134q11 109 66.5 170t141.5 61q98 0 144 -39.5t58 -93.5q7 -33 9.5 -52t2.5 -43q-19 3 -65 3q-45 0 -66 -3v23q0 35 -17 61.5t-60 26.5q-40 0 -58 -23.5t-18 -78.5v-292
q0 -55 18 -78.5t58 -23.5q43 0 60 30t17 68v27q21 -3 66 -3q46 0 65 3q-1 -5 -5 -49.5t-19 -85.5q-16 -42 -48 -69t-94 -35l-36 -60q-15 -24 -34 -62l-16 -29q-21 21 -77 49z" />
    <glyph glyph-name="Ccedilla" unicode="&#xe7;" horiz-adv-x="505" 
d="M138 -114l-19 10l27 26q33 31 48 49l16 18q-69 14 -112 73t-53 154q-7 77 -7 134q0 59 7 134q11 109 66.5 170t141.5 61q98 0 144 -39.5t58 -93.5q7 -33 9.5 -52t2.5 -43q-19 3 -65 3q-45 0 -66 -3v23q0 35 -17 61.5t-60 26.5q-40 0 -58 -23.5t-18 -78.5v-292
q0 -55 18 -78.5t58 -23.5q43 0 60 30t17 68v27q21 -3 66 -3q46 0 65 3q-1 -5 -5 -49.5t-19 -85.5q-16 -42 -48 -69t-94 -35l-36 -60q-15 -24 -34 -62l-16 -29q-21 21 -77 49z" />
    <glyph glyph-name="Ccedilla" unicode="&#xe7;" horiz-adv-x="505" 
d="M138 -114l-19 10l27 26q33 31 48 49l16 18q-69 14 -112 73t-53 154q-7 77 -7 134q0 59 7 134q11 109 66.5 170t141.5 61q98 0 144 -39.5t58 -93.5q7 -33 9.5 -52t2.5 -43q-19 3 -65 3q-45 0 -66 -3v23q0 35 -17 61.5t-60 26.5q-40 0 -58 -23.5t-18 -78.5v-292
q0 -55 18 -78.5t58 -23.5q43 0 60 30t17 68v27q21 -3 66 -3q46 0 65 3q-1 -5 -5 -49.5t-19 -85.5q-16 -42 -48 -69t-94 -35l-36 -60q-15 -24 -34 -62l-16 -29q-21 21 -77 49z" />
    <glyph glyph-name="Ccircumflex" unicode="&#x108;" horiz-adv-x="505" 
d="M111.5 46q-55.5 61 -66.5 170q-7 77 -7 134q0 59 7 134q11 109 66.5 170t141.5 61q98 0 144 -39.5t58 -93.5q7 -33 9.5 -52t2.5 -43q-19 3 -65 3q-45 0 -66 -3v23q0 35 -17 61.5t-60 26.5q-40 0 -58 -23.5t-18 -78.5v-292q0 -55 18 -78.5t58 -23.5q43 0 60 30t17 68v27
q21 -3 66 -3q46 0 65 3q-1 -5 -5 -49.5t-19 -85.5q-19 -49 -61 -78t-129 -29q-86 0 -141.5 61zM149.5 865q12.5 13 27.5 30q16 18 27 32.5t23 34.5h51q12 -20 23 -34.5t27 -32.5q15 -17 27.5 -30t32.5 -30l-60 -51q-28 39 -37 50l-14 18l-22 31l-25 -31q-8 -11 -22 -27
q-16 -19 -31 -41l-60 51q20 17 32.5 30z" />
    <glyph glyph-name="Ccircumflex" unicode="&#x109;" horiz-adv-x="505" 
d="M111.5 46q-55.5 61 -66.5 170q-7 77 -7 134q0 59 7 134q11 109 66.5 170t141.5 61q98 0 144 -39.5t58 -93.5q7 -33 9.5 -52t2.5 -43q-19 3 -65 3q-45 0 -66 -3v23q0 35 -17 61.5t-60 26.5q-40 0 -58 -23.5t-18 -78.5v-292q0 -55 18 -78.5t58 -23.5q43 0 60 30t17 68v27
q21 -3 66 -3q46 0 65 3q-1 -5 -5 -49.5t-19 -85.5q-19 -49 -61 -78t-129 -29q-86 0 -141.5 61zM149.5 865q12.5 13 27.5 30q16 18 27 32.5t23 34.5h51q12 -20 23 -34.5t27 -32.5q15 -17 27.5 -30t32.5 -30l-60 -51q-28 39 -37 50l-14 18l-22 31l-25 -31q-8 -11 -22 -27
q-16 -19 -31 -41l-60 51q20 17 32.5 30z" />
    <glyph glyph-name="Ccircumflex" unicode="&#x109;" horiz-adv-x="505" 
d="M111.5 46q-55.5 61 -66.5 170q-7 77 -7 134q0 59 7 134q11 109 66.5 170t141.5 61q98 0 144 -39.5t58 -93.5q7 -33 9.5 -52t2.5 -43q-19 3 -65 3q-45 0 -66 -3v23q0 35 -17 61.5t-60 26.5q-40 0 -58 -23.5t-18 -78.5v-292q0 -55 18 -78.5t58 -23.5q43 0 60 30t17 68v27
q21 -3 66 -3q46 0 65 3q-1 -5 -5 -49.5t-19 -85.5q-19 -49 -61 -78t-129 -29q-86 0 -141.5 61zM149.5 865q12.5 13 27.5 30q16 18 27 32.5t23 34.5h51q12 -20 23 -34.5t27 -32.5q15 -17 27.5 -30t32.5 -30l-60 -51q-28 39 -37 50l-14 18l-22 31l-25 -31q-8 -11 -22 -27
q-16 -19 -31 -41l-60 51q20 17 32.5 30z" />
    <glyph glyph-name="Cdotaccent" unicode="&#x10a;" horiz-adv-x="505" 
d="M111.5 46q-55.5 61 -66.5 170q-7 77 -7 134q0 59 7 134q11 109 66.5 170t141.5 61q98 0 144 -39.5t58 -93.5q7 -33 9.5 -52t2.5 -43q-19 3 -65 3q-45 0 -66 -3v23q0 35 -17 61.5t-60 26.5q-40 0 -58 -23.5t-18 -78.5v-292q0 -55 18 -78.5t58 -23.5q43 0 60 30t17 68v27
q21 -3 66 -3q46 0 65 3q-1 -5 -5 -49.5t-19 -85.5q-19 -49 -61 -78t-129 -29q-86 0 -141.5 61zM199 918q20 19 55 19t54 -19t19 -54q0 -36 -19.5 -55t-53.5 -19q-36 0 -55.5 19.5t-19.5 54.5t20 54z" />
    <glyph glyph-name="Cdotaccent" unicode="&#x10b;" horiz-adv-x="505" 
d="M111.5 46q-55.5 61 -66.5 170q-7 77 -7 134q0 59 7 134q11 109 66.5 170t141.5 61q98 0 144 -39.5t58 -93.5q7 -33 9.5 -52t2.5 -43q-19 3 -65 3q-45 0 -66 -3v23q0 35 -17 61.5t-60 26.5q-40 0 -58 -23.5t-18 -78.5v-292q0 -55 18 -78.5t58 -23.5q43 0 60 30t17 68v27
q21 -3 66 -3q46 0 65 3q-1 -5 -5 -49.5t-19 -85.5q-19 -49 -61 -78t-129 -29q-86 0 -141.5 61zM199 918q20 19 55 19t54 -19t19 -54q0 -36 -19.5 -55t-53.5 -19q-36 0 -55.5 19.5t-19.5 54.5t20 54z" />
    <glyph glyph-name="Cdotaccent" unicode="&#x10b;" horiz-adv-x="505" 
d="M111.5 46q-55.5 61 -66.5 170q-7 77 -7 134q0 59 7 134q11 109 66.5 170t141.5 61q98 0 144 -39.5t58 -93.5q7 -33 9.5 -52t2.5 -43q-19 3 -65 3q-45 0 -66 -3v23q0 35 -17 61.5t-60 26.5q-40 0 -58 -23.5t-18 -78.5v-292q0 -55 18 -78.5t58 -23.5q43 0 60 30t17 68v27
q21 -3 66 -3q46 0 65 3q-1 -5 -5 -49.5t-19 -85.5q-19 -49 -61 -78t-129 -29q-86 0 -141.5 61zM199 918q20 19 55 19t54 -19t19 -54q0 -36 -19.5 -55t-53.5 -19q-36 0 -55.5 19.5t-19.5 54.5t20 54z" />
    <glyph glyph-name="D" unicode="D" horiz-adv-x="526" 
d="M62 183v333q0 55 -24 184h157q125 0 208 -44t84 -171l1 -269q1 -133 -89 -174.5t-202 -41.5h-159q24 143 24 183zM313.5 148q29.5 35 29.5 105v219q0 45 -11 69.5t-41 36t-88 11.5v-477q81 1 110.5 36z" />
    <glyph glyph-name="D" unicode="d" horiz-adv-x="526" 
d="M62 183v333q0 55 -24 184h157q125 0 208 -44t84 -171l1 -269q1 -133 -89 -174.5t-202 -41.5h-159q24 143 24 183zM313.5 148q29.5 35 29.5 105v219q0 45 -11 69.5t-41 36t-88 11.5v-477q81 1 110.5 36z" />
    <glyph glyph-name="D" unicode="d" horiz-adv-x="526" 
d="M62 183v333q0 55 -24 184h157q125 0 208 -44t84 -171l1 -269q1 -133 -89 -174.5t-202 -41.5h-159q24 143 24 183zM313.5 148q29.5 35 29.5 105v219q0 45 -11 69.5t-41 36t-88 11.5v-477q81 1 110.5 36z" />
    <glyph glyph-name="Eth" unicode="&#xd0;" horiz-adv-x="622" 
d="M134 452v64q0 55 -24 184h157q125 0 208 -44t84 -171l1 -269q1 -133 -89 -174.5t-202 -41.5h-159q24 143 24 183v153q-38 -1 -84 -5v126q44 -4 84 -5zM385.5 148q29.5 35 29.5 105v219q0 45 -11 69.5t-41 36t-88 11.5v-135q17 0 44 3v-126l-44 3v-222q81 1 110.5 36z" />
    <glyph glyph-name="Eth" unicode="&#xf0;" horiz-adv-x="622" 
d="M134 452v64q0 55 -24 184h157q125 0 208 -44t84 -171l1 -269q1 -133 -89 -174.5t-202 -41.5h-159q24 143 24 183v153q-38 -1 -84 -5v126q44 -4 84 -5zM385.5 148q29.5 35 29.5 105v219q0 45 -11 69.5t-41 36t-88 11.5v-135q17 0 44 3v-126l-44 3v-222q81 1 110.5 36z" />
    <glyph glyph-name="Eth" unicode="&#xf0;" horiz-adv-x="622" 
d="M134 452v64q0 55 -24 184h157q125 0 208 -44t84 -171l1 -269q1 -133 -89 -174.5t-202 -41.5h-159q24 143 24 183v153q-38 -1 -84 -5v126q44 -4 84 -5zM385.5 148q29.5 35 29.5 105v219q0 45 -11 69.5t-41 36t-88 11.5v-135q17 0 44 3v-126l-44 3v-222q81 1 110.5 36z" />
    <glyph glyph-name="Dcaron" unicode="&#x10e;" horiz-adv-x="526" 
d="M62 183v333q0 55 -24 184h157q125 0 208 -44t84 -171l1 -269q1 -133 -89 -174.5t-202 -41.5h-159q24 143 24 183zM313.5 148q29.5 35 29.5 105v219q0 45 -11 69.5t-41 36t-88 11.5v-477q81 1 110.5 36zM213 805q-9 12 -33 40q-16 19 -27.5 30t-26.5 23l-18 16l67 51
q35 -49 59 -77q25 -27 33 -34l33 34q18 22 45 59l13 18l67 -51l-18 -16q-15 -12 -26.5 -23t-27.5 -30q-24 -28 -33 -40t-24 -37h-59q-15 25 -24 37z" />
    <glyph glyph-name="Dcaron" unicode="&#x10f;" horiz-adv-x="526" 
d="M62 183v333q0 55 -24 184h157q125 0 208 -44t84 -171l1 -269q1 -133 -89 -174.5t-202 -41.5h-159q24 143 24 183zM313.5 148q29.5 35 29.5 105v219q0 45 -11 69.5t-41 36t-88 11.5v-477q81 1 110.5 36zM213 805q-9 12 -33 40q-16 19 -27.5 30t-26.5 23l-18 16l67 51
q35 -49 59 -77q25 -27 33 -34l33 34q18 22 45 59l13 18l67 -51l-18 -16q-15 -12 -26.5 -23t-27.5 -30q-24 -28 -33 -40t-24 -37h-59q-15 25 -24 37z" />
    <glyph glyph-name="Dcaron" unicode="&#x10f;" horiz-adv-x="526" 
d="M62 183v333q0 55 -24 184h157q125 0 208 -44t84 -171l1 -269q1 -133 -89 -174.5t-202 -41.5h-159q24 143 24 183zM313.5 148q29.5 35 29.5 105v219q0 45 -11 69.5t-41 36t-88 11.5v-477q81 1 110.5 36zM213 805q-9 12 -33 40q-16 19 -27.5 30t-26.5 23l-18 16l67 51
q35 -49 59 -77q25 -27 33 -34l33 34q18 22 45 59l13 18l67 -51l-18 -16q-15 -12 -26.5 -23t-27.5 -30q-24 -28 -33 -40t-24 -37h-59q-15 25 -24 37z" />
    <glyph glyph-name="Dcroat" unicode="&#x110;" horiz-adv-x="622" 
d="M134 452v64q0 55 -24 184h157q125 0 208 -44t84 -171l1 -269q1 -133 -89 -174.5t-202 -41.5h-159q24 143 24 183v153q-38 -1 -84 -5v126q44 -4 84 -5zM385.5 148q29.5 35 29.5 105v219q0 45 -11 69.5t-41 36t-88 11.5v-135q17 0 44 3v-126l-44 3v-222q81 1 110.5 36z" />
    <glyph glyph-name="Dcroat" unicode="&#x111;" horiz-adv-x="622" 
d="M134 452v64q0 55 -24 184h157q125 0 208 -44t84 -171l1 -269q1 -133 -89 -174.5t-202 -41.5h-159q24 143 24 183v153q-38 -1 -84 -5v126q44 -4 84 -5zM385.5 148q29.5 35 29.5 105v219q0 45 -11 69.5t-41 36t-88 11.5v-135q17 0 44 3v-126l-44 3v-222q81 1 110.5 36z" />
    <glyph glyph-name="Dcroat" unicode="&#x111;" horiz-adv-x="622" 
d="M134 452v64q0 55 -24 184h157q125 0 208 -44t84 -171l1 -269q1 -133 -89 -174.5t-202 -41.5h-159q24 143 24 183v153q-38 -1 -84 -5v126q44 -4 84 -5zM385.5 148q29.5 35 29.5 105v219q0 45 -11 69.5t-41 36t-88 11.5v-135q17 0 44 3v-126l-44 3v-222q81 1 110.5 36z" />
    <glyph glyph-name="E" unicode="E" horiz-adv-x="445" 
d="M59 183v333q0 55 -21 184h350l-20 -126q-22 3 -41 4t-47 1q-30 0 -52 -2.5t-28 -3.5v-118q27 -3 56 -3q26 0 44.5 1t42.5 4v-126q-22 3 -40.5 4t-46.5 1q-27 0 -56 -3v-207q43 -5 89 -5q64 0 118 6l-20 -127h-349q21 143 21 183z" />
    <glyph glyph-name="E" unicode="e" horiz-adv-x="445" 
d="M59 183v333q0 55 -21 184h350l-20 -126q-22 3 -41 4t-47 1q-30 0 -52 -2.5t-28 -3.5v-118q27 -3 56 -3q26 0 44.5 1t42.5 4v-126q-22 3 -40.5 4t-46.5 1q-27 0 -56 -3v-207q43 -5 89 -5q64 0 118 6l-20 -127h-349q21 143 21 183z" />
    <glyph glyph-name="E" unicode="e" horiz-adv-x="445" 
d="M59 183v333q0 55 -21 184h350l-20 -126q-22 3 -41 4t-47 1q-30 0 -52 -2.5t-28 -3.5v-118q27 -3 56 -3q26 0 44.5 1t42.5 4v-126q-22 3 -40.5 4t-46.5 1q-27 0 -56 -3v-207q43 -5 89 -5q64 0 118 6l-20 -127h-349q21 143 21 183z" />
    <glyph glyph-name="Eacute" unicode="&#xc9;" horiz-adv-x="445" 
d="M59 183v333q0 55 -21 184h350l-20 -126q-22 3 -41 4t-47 1q-30 0 -52 -2.5t-28 -3.5v-118q27 -3 56 -3q26 0 44.5 1t42.5 4v-126q-22 3 -40.5 4t-46.5 1q-27 0 -56 -3v-207q43 -5 89 -5q64 0 118 6l-20 -127h-349q21 143 21 183zM121 799l43 71q16 24 35 64l14 28
q39 -39 84 -63l-27 -26l-48 -49l-50 -59z" />
    <glyph glyph-name="Eacute" unicode="&#xe9;" horiz-adv-x="445" 
d="M59 183v333q0 55 -21 184h350l-20 -126q-22 3 -41 4t-47 1q-30 0 -52 -2.5t-28 -3.5v-118q27 -3 56 -3q26 0 44.5 1t42.5 4v-126q-22 3 -40.5 4t-46.5 1q-27 0 -56 -3v-207q43 -5 89 -5q64 0 118 6l-20 -127h-349q21 143 21 183zM121 799l43 71q16 24 35 64l14 28
q39 -39 84 -63l-27 -26l-48 -49l-50 -59z" />
    <glyph glyph-name="Eacute" unicode="&#xe9;" horiz-adv-x="445" 
d="M59 183v333q0 55 -21 184h350l-20 -126q-22 3 -41 4t-47 1q-30 0 -52 -2.5t-28 -3.5v-118q27 -3 56 -3q26 0 44.5 1t42.5 4v-126q-22 3 -40.5 4t-46.5 1q-27 0 -56 -3v-207q43 -5 89 -5q64 0 118 6l-20 -127h-349q21 143 21 183zM121 799l43 71q16 24 35 64l14 28
q39 -39 84 -63l-27 -26l-48 -49l-50 -59z" />
    <glyph glyph-name="Ecaron" unicode="&#x11a;" horiz-adv-x="445" 
d="M59 183v333q0 55 -21 184h350l-20 -126q-22 3 -41 4t-47 1q-30 0 -52 -2.5t-28 -3.5v-118q27 -3 56 -3q26 0 44.5 1t42.5 4v-126q-22 3 -40.5 4t-46.5 1q-27 0 -56 -3v-207q43 -5 89 -5q64 0 118 6l-20 -127h-349q21 143 21 183zM155 805q-9 12 -33 40q-16 19 -27.5 30
t-26.5 23l-18 16l67 51q35 -49 59 -77q25 -27 33 -34l33 34q18 22 45 59l13 18l67 -51l-18 -16q-15 -12 -26.5 -23t-27.5 -30q-24 -28 -33 -40t-24 -37h-59q-15 25 -24 37z" />
    <glyph glyph-name="Ecaron" unicode="&#x11b;" horiz-adv-x="445" 
d="M59 183v333q0 55 -21 184h350l-20 -126q-22 3 -41 4t-47 1q-30 0 -52 -2.5t-28 -3.5v-118q27 -3 56 -3q26 0 44.5 1t42.5 4v-126q-22 3 -40.5 4t-46.5 1q-27 0 -56 -3v-207q43 -5 89 -5q64 0 118 6l-20 -127h-349q21 143 21 183zM155 805q-9 12 -33 40q-16 19 -27.5 30
t-26.5 23l-18 16l67 51q35 -49 59 -77q25 -27 33 -34l33 34q18 22 45 59l13 18l67 -51l-18 -16q-15 -12 -26.5 -23t-27.5 -30q-24 -28 -33 -40t-24 -37h-59q-15 25 -24 37z" />
    <glyph glyph-name="Ecaron" unicode="&#x11b;" horiz-adv-x="445" 
d="M59 183v333q0 55 -21 184h350l-20 -126q-22 3 -41 4t-47 1q-30 0 -52 -2.5t-28 -3.5v-118q27 -3 56 -3q26 0 44.5 1t42.5 4v-126q-22 3 -40.5 4t-46.5 1q-27 0 -56 -3v-207q43 -5 89 -5q64 0 118 6l-20 -127h-349q21 143 21 183zM155 805q-9 12 -33 40q-16 19 -27.5 30
t-26.5 23l-18 16l67 51q35 -49 59 -77q25 -27 33 -34l33 34q18 22 45 59l13 18l67 -51l-18 -16q-15 -12 -26.5 -23t-27.5 -30q-24 -28 -33 -40t-24 -37h-59q-15 25 -24 37z" />
    <glyph glyph-name="Ecircumflex" unicode="&#xca;" horiz-adv-x="445" 
d="M59 183v333q0 55 -21 184h350l-20 -126q-22 3 -41 4t-47 1q-30 0 -52 -2.5t-28 -3.5v-118q27 -3 56 -3q26 0 44.5 1t42.5 4v-126q-22 3 -40.5 4t-46.5 1q-27 0 -56 -3v-207q43 -5 89 -5q64 0 118 6l-20 -127h-349q21 143 21 183zM105.5 865q12.5 13 27.5 30
q16 18 27 32.5t23 34.5h51q12 -20 23 -34.5t27 -32.5q15 -17 27.5 -30t32.5 -30l-60 -51q-28 39 -37 50l-14 18l-22 31l-25 -31q-8 -11 -22 -27q-16 -19 -31 -41l-60 51q20 17 32.5 30z" />
    <glyph glyph-name="Ecircumflex" unicode="&#xea;" horiz-adv-x="445" 
d="M59 183v333q0 55 -21 184h350l-20 -126q-22 3 -41 4t-47 1q-30 0 -52 -2.5t-28 -3.5v-118q27 -3 56 -3q26 0 44.5 1t42.5 4v-126q-22 3 -40.5 4t-46.5 1q-27 0 -56 -3v-207q43 -5 89 -5q64 0 118 6l-20 -127h-349q21 143 21 183zM105.5 865q12.5 13 27.5 30
q16 18 27 32.5t23 34.5h51q12 -20 23 -34.5t27 -32.5q15 -17 27.5 -30t32.5 -30l-60 -51q-28 39 -37 50l-14 18l-22 31l-25 -31q-8 -11 -22 -27q-16 -19 -31 -41l-60 51q20 17 32.5 30z" />
    <glyph glyph-name="Ecircumflex" unicode="&#xea;" horiz-adv-x="445" 
d="M59 183v333q0 55 -21 184h350l-20 -126q-22 3 -41 4t-47 1q-30 0 -52 -2.5t-28 -3.5v-118q27 -3 56 -3q26 0 44.5 1t42.5 4v-126q-22 3 -40.5 4t-46.5 1q-27 0 -56 -3v-207q43 -5 89 -5q64 0 118 6l-20 -127h-349q21 143 21 183zM105.5 865q12.5 13 27.5 30
q16 18 27 32.5t23 34.5h51q12 -20 23 -34.5t27 -32.5q15 -17 27.5 -30t32.5 -30l-60 -51q-28 39 -37 50l-14 18l-22 31l-25 -31q-8 -11 -22 -27q-16 -19 -31 -41l-60 51q20 17 32.5 30z" />
    <glyph glyph-name="Edieresis" unicode="&#xcb;" horiz-adv-x="445" 
d="M59 183v333q0 55 -21 184h350l-20 -126q-22 3 -41 4t-47 1q-30 0 -52 -2.5t-28 -3.5v-118q27 -3 56 -3q26 0 44.5 1t42.5 4v-126q-22 3 -40.5 4t-46.5 1q-27 0 -56 -3v-207q43 -5 89 -5q64 0 118 6l-20 -127h-349q21 143 21 183zM251.5 809.5q-19.5 19.5 -19.5 54.5
q0 36 19.5 54.5t54.5 18.5t54.5 -19t19.5 -54t-20 -54.5t-54 -19.5q-35 0 -54.5 19.5zM58 918q20 19 55 19t54 -19t19 -54q0 -36 -19.5 -55t-53.5 -19q-36 0 -55.5 19.5t-19.5 54.5t20 54z" />
    <glyph glyph-name="Edieresis" unicode="&#xeb;" horiz-adv-x="445" 
d="M59 183v333q0 55 -21 184h350l-20 -126q-22 3 -41 4t-47 1q-30 0 -52 -2.5t-28 -3.5v-118q27 -3 56 -3q26 0 44.5 1t42.5 4v-126q-22 3 -40.5 4t-46.5 1q-27 0 -56 -3v-207q43 -5 89 -5q64 0 118 6l-20 -127h-349q21 143 21 183zM251.5 809.5q-19.5 19.5 -19.5 54.5
q0 36 19.5 54.5t54.5 18.5t54.5 -19t19.5 -54t-20 -54.5t-54 -19.5q-35 0 -54.5 19.5zM58 918q20 19 55 19t54 -19t19 -54q0 -36 -19.5 -55t-53.5 -19q-36 0 -55.5 19.5t-19.5 54.5t20 54z" />
    <glyph glyph-name="Edieresis" unicode="&#xeb;" horiz-adv-x="445" 
d="M59 183v333q0 55 -21 184h350l-20 -126q-22 3 -41 4t-47 1q-30 0 -52 -2.5t-28 -3.5v-118q27 -3 56 -3q26 0 44.5 1t42.5 4v-126q-22 3 -40.5 4t-46.5 1q-27 0 -56 -3v-207q43 -5 89 -5q64 0 118 6l-20 -127h-349q21 143 21 183zM251.5 809.5q-19.5 19.5 -19.5 54.5
q0 36 19.5 54.5t54.5 18.5t54.5 -19t19.5 -54t-20 -54.5t-54 -19.5q-35 0 -54.5 19.5zM58 918q20 19 55 19t54 -19t19 -54q0 -36 -19.5 -55t-53.5 -19q-36 0 -55.5 19.5t-19.5 54.5t20 54z" />
    <glyph glyph-name="Edotaccent" unicode="&#x116;" horiz-adv-x="445" 
d="M59 183v333q0 55 -21 184h350l-20 -126q-22 3 -41 4t-47 1q-30 0 -52 -2.5t-28 -3.5v-118q27 -3 56 -3q26 0 44.5 1t42.5 4v-126q-22 3 -40.5 4t-46.5 1q-27 0 -56 -3v-207q43 -5 89 -5q64 0 118 6l-20 -127h-349q21 143 21 183zM155 918q20 19 55 19t54 -19t19 -54
q0 -36 -19.5 -55t-53.5 -19q-36 0 -55.5 19.5t-19.5 54.5t20 54z" />
    <glyph glyph-name="Edotaccent" unicode="&#x117;" horiz-adv-x="445" 
d="M59 183v333q0 55 -21 184h350l-20 -126q-22 3 -41 4t-47 1q-30 0 -52 -2.5t-28 -3.5v-118q27 -3 56 -3q26 0 44.5 1t42.5 4v-126q-22 3 -40.5 4t-46.5 1q-27 0 -56 -3v-207q43 -5 89 -5q64 0 118 6l-20 -127h-349q21 143 21 183zM155 918q20 19 55 19t54 -19t19 -54
q0 -36 -19.5 -55t-53.5 -19q-36 0 -55.5 19.5t-19.5 54.5t20 54z" />
    <glyph glyph-name="Edotaccent" unicode="&#x117;" horiz-adv-x="445" 
d="M59 183v333q0 55 -21 184h350l-20 -126q-22 3 -41 4t-47 1q-30 0 -52 -2.5t-28 -3.5v-118q27 -3 56 -3q26 0 44.5 1t42.5 4v-126q-22 3 -40.5 4t-46.5 1q-27 0 -56 -3v-207q43 -5 89 -5q64 0 118 6l-20 -127h-349q21 143 21 183zM155 918q20 19 55 19t54 -19t19 -54
q0 -36 -19.5 -55t-53.5 -19q-36 0 -55.5 19.5t-19.5 54.5t20 54z" />
    <glyph glyph-name="Egrave" unicode="&#xc8;" horiz-adv-x="445" 
d="M59 183v333q0 55 -21 184h350l-20 -126q-22 3 -41 4t-47 1q-30 0 -52 -2.5t-28 -3.5v-118q27 -3 56 -3q26 0 44.5 1t42.5 4v-126q-22 3 -40.5 4t-46.5 1q-27 0 -56 -3v-207q43 -5 89 -5q64 0 118 6l-20 -127h-349q21 143 21 183zM209 777q-18 30 -37 57q-19 24 -31 37.5
t-30 31.5l84 63q13 -26 21.5 -39t27.5 -38q17 -23 29.5 -36.5t32.5 -34.5l-84 -62z" />
    <glyph glyph-name="Egrave" unicode="&#xe8;" horiz-adv-x="445" 
d="M59 183v333q0 55 -21 184h350l-20 -126q-22 3 -41 4t-47 1q-30 0 -52 -2.5t-28 -3.5v-118q27 -3 56 -3q26 0 44.5 1t42.5 4v-126q-22 3 -40.5 4t-46.5 1q-27 0 -56 -3v-207q43 -5 89 -5q64 0 118 6l-20 -127h-349q21 143 21 183zM209 777q-18 30 -37 57q-19 24 -31 37.5
t-30 31.5l84 63q13 -26 21.5 -39t27.5 -38q17 -23 29.5 -36.5t32.5 -34.5l-84 -62z" />
    <glyph glyph-name="Egrave" unicode="&#xe8;" horiz-adv-x="445" 
d="M59 183v333q0 55 -21 184h350l-20 -126q-22 3 -41 4t-47 1q-30 0 -52 -2.5t-28 -3.5v-118q27 -3 56 -3q26 0 44.5 1t42.5 4v-126q-22 3 -40.5 4t-46.5 1q-27 0 -56 -3v-207q43 -5 89 -5q64 0 118 6l-20 -127h-349q21 143 21 183zM209 777q-18 30 -37 57q-19 24 -31 37.5
t-30 31.5l84 63q13 -26 21.5 -39t27.5 -38q17 -23 29.5 -36.5t32.5 -34.5l-84 -62z" />
    <glyph glyph-name="Emacron" unicode="&#x112;" horiz-adv-x="445" 
d="M59 183v333q0 55 -21 184h350l-20 -126q-22 3 -41 4t-47 1q-30 0 -52 -2.5t-28 -3.5v-118q27 -3 56 -3q26 0 44.5 1t42.5 4v-126q-22 3 -40.5 4t-46.5 1q-27 0 -56 -3v-207q43 -5 89 -5q64 0 118 6l-20 -127h-349q21 143 21 183zM115 904q44 -3 92 -3q36 0 63.5 1t70.5 5
v-98l-48 3q-39 3 -86 3q-48 0 -90 -3l-41 -3v98z" />
    <glyph glyph-name="Emacron" unicode="&#x113;" horiz-adv-x="445" 
d="M59 183v333q0 55 -21 184h350l-20 -126q-22 3 -41 4t-47 1q-30 0 -52 -2.5t-28 -3.5v-118q27 -3 56 -3q26 0 44.5 1t42.5 4v-126q-22 3 -40.5 4t-46.5 1q-27 0 -56 -3v-207q43 -5 89 -5q64 0 118 6l-20 -127h-349q21 143 21 183zM115 904q44 -3 92 -3q36 0 63.5 1t70.5 5
v-98l-48 3q-39 3 -86 3q-48 0 -90 -3l-41 -3v98z" />
    <glyph glyph-name="Emacron" unicode="&#x113;" horiz-adv-x="445" 
d="M59 183v333q0 55 -21 184h350l-20 -126q-22 3 -41 4t-47 1q-30 0 -52 -2.5t-28 -3.5v-118q27 -3 56 -3q26 0 44.5 1t42.5 4v-126q-22 3 -40.5 4t-46.5 1q-27 0 -56 -3v-207q43 -5 89 -5q64 0 118 6l-20 -127h-349q21 143 21 183zM115 904q44 -3 92 -3q36 0 63.5 1t70.5 5
v-98l-48 3q-39 3 -86 3q-48 0 -90 -3l-41 -3v98z" />
    <glyph glyph-name="Eogonek" unicode="&#x118;" horiz-adv-x="445" 
d="M59 183v333q0 55 -21 184h350l-20 -126q-22 3 -41 4t-47 1q-30 0 -52 -2.5t-28 -3.5v-118q27 -3 56 -3q26 0 44.5 1t42.5 4v-126q-22 3 -40.5 4t-46.5 1q-27 0 -56 -3v-207q43 -5 89 -5q64 0 118 6l-20 -127h-89l29 -34q15 -18 48 -49l27 -26l-19 -10q-56 -28 -77 -49
l-16 30q-14 29 -34 61l-48 77h-170q21 143 21 183z" />
    <glyph glyph-name="Eogonek" unicode="&#x119;" horiz-adv-x="445" 
d="M59 183v333q0 55 -21 184h350l-20 -126q-22 3 -41 4t-47 1q-30 0 -52 -2.5t-28 -3.5v-118q27 -3 56 -3q26 0 44.5 1t42.5 4v-126q-22 3 -40.5 4t-46.5 1q-27 0 -56 -3v-207q43 -5 89 -5q64 0 118 6l-20 -127h-89l29 -34q15 -18 48 -49l27 -26l-19 -10q-56 -28 -77 -49
l-16 30q-14 29 -34 61l-48 77h-170q21 143 21 183z" />
    <glyph glyph-name="Eogonek" unicode="&#x119;" horiz-adv-x="445" 
d="M59 183v333q0 55 -21 184h350l-20 -126q-22 3 -41 4t-47 1q-30 0 -52 -2.5t-28 -3.5v-118q27 -3 56 -3q26 0 44.5 1t42.5 4v-126q-22 3 -40.5 4t-46.5 1q-27 0 -56 -3v-207q43 -5 89 -5q64 0 118 6l-20 -127h-89l29 -34q15 -18 48 -49l27 -26l-19 -10q-56 -28 -77 -49
l-16 30q-14 29 -34 61l-48 77h-170q21 143 21 183z" />
    <glyph glyph-name="uni1EBC" unicode="&#x1ebc;" horiz-adv-x="445" 
d="M59 183v333q0 55 -21 184h350l-20 -126q-22 3 -41 4t-47 1q-30 0 -52 -2.5t-28 -3.5v-118q27 -3 56 -3q26 0 44.5 1t42.5 4v-126q-22 3 -40.5 4t-46.5 1q-27 0 -56 -3v-207q43 -5 89 -5q64 0 118 6l-20 -127h-349q21 143 21 183zM219.5 768.5q-15.5 14.5 -31.5 42.5
q-9 18 -17.5 27.5t-21.5 9.5q-23 0 -31.5 -16.5t-8.5 -52.5v-17h-54v47q0 39 20 73t64 34q35 0 52 -15.5t29 -42.5q10 -20 17.5 -28.5t22.5 -8.5q31 0 40 17.5t9 51.5v18h54v-48q0 -38 -24 -72t-74 -34q-30 0 -45.5 14.5z" />
    <glyph glyph-name="uni1EBC" unicode="&#x1ebd;" horiz-adv-x="445" 
d="M59 183v333q0 55 -21 184h350l-20 -126q-22 3 -41 4t-47 1q-30 0 -52 -2.5t-28 -3.5v-118q27 -3 56 -3q26 0 44.5 1t42.5 4v-126q-22 3 -40.5 4t-46.5 1q-27 0 -56 -3v-207q43 -5 89 -5q64 0 118 6l-20 -127h-349q21 143 21 183zM219.5 768.5q-15.5 14.5 -31.5 42.5
q-9 18 -17.5 27.5t-21.5 9.5q-23 0 -31.5 -16.5t-8.5 -52.5v-17h-54v47q0 39 20 73t64 34q35 0 52 -15.5t29 -42.5q10 -20 17.5 -28.5t22.5 -8.5q31 0 40 17.5t9 51.5v18h54v-48q0 -38 -24 -72t-74 -34q-30 0 -45.5 14.5z" />
    <glyph glyph-name="uni1EBC" unicode="&#x1ebd;" horiz-adv-x="445" 
d="M59 183v333q0 55 -21 184h350l-20 -126q-22 3 -41 4t-47 1q-30 0 -52 -2.5t-28 -3.5v-118q27 -3 56 -3q26 0 44.5 1t42.5 4v-126q-22 3 -40.5 4t-46.5 1q-27 0 -56 -3v-207q43 -5 89 -5q64 0 118 6l-20 -127h-349q21 143 21 183zM219.5 768.5q-15.5 14.5 -31.5 42.5
q-9 18 -17.5 27.5t-21.5 9.5q-23 0 -31.5 -16.5t-8.5 -52.5v-17h-54v47q0 39 20 73t64 34q35 0 52 -15.5t29 -42.5q10 -20 17.5 -28.5t22.5 -8.5q31 0 40 17.5t9 51.5v18h54v-48q0 -38 -24 -72t-74 -34q-30 0 -45.5 14.5z" />
    <glyph glyph-name="uni018F" unicode="&#x18f;" horiz-adv-x="515" 
d="M97.5 34.5q-56.5 48.5 -57.5 140.5l-2 242q97 -11 187 -11q52 0 107 5v85q0 43 -18.5 74.5t-57.5 31.5q-34 0 -53.5 -19t-23.5 -50q-13 2 -65 2t-66 -2q16 93 63 137.5t145 44.5q91 0 147 -60.5t67 -170.5q7 -64 7 -140q0 -72 -7 -132q-13 -111 -68 -168.5t-146 -57.5
q-102 0 -158.5 48.5zM179 200q1 -42 19 -69.5t58 -27.5t58.5 28t18.5 69v91h-155z" />
    <glyph glyph-name="uni018F" unicode="&#x259;" horiz-adv-x="515" 
d="M97.5 34.5q-56.5 48.5 -57.5 140.5l-2 242q97 -11 187 -11q52 0 107 5v85q0 43 -18.5 74.5t-57.5 31.5q-34 0 -53.5 -19t-23.5 -50q-13 2 -65 2t-66 -2q16 93 63 137.5t145 44.5q91 0 147 -60.5t67 -170.5q7 -64 7 -140q0 -72 -7 -132q-13 -111 -68 -168.5t-146 -57.5
q-102 0 -158.5 48.5zM179 200q1 -42 19 -69.5t58 -27.5t58.5 28t18.5 69v91h-155z" />
    <glyph glyph-name="uni018F" unicode="&#x259;" horiz-adv-x="515" 
d="M97.5 34.5q-56.5 48.5 -57.5 140.5l-2 242q97 -11 187 -11q52 0 107 5v85q0 43 -18.5 74.5t-57.5 31.5q-34 0 -53.5 -19t-23.5 -50q-13 2 -65 2t-66 -2q16 93 63 137.5t145 44.5q91 0 147 -60.5t67 -170.5q7 -64 7 -140q0 -72 -7 -132q-13 -111 -68 -168.5t-146 -57.5
q-102 0 -158.5 48.5zM179 200q1 -42 19 -69.5t58 -27.5t58.5 28t18.5 69v91h-155z" />
    <glyph glyph-name="F" unicode="F" horiz-adv-x="436" 
d="M63 183v333q0 55 -25 184h362l-20 -126q-22 3 -39 4t-39 1q-46 0 -98 -5v-142q10 -1 21.5 -3t44.5 -2q20 0 36 1t39 4v-126q-6 1 -25 3t-50 2q-32 0 -43.5 -2t-22.5 -3v-123q0 -40 21 -183h-187q25 143 25 183z" />
    <glyph glyph-name="F" unicode="f" horiz-adv-x="436" 
d="M63 183v333q0 55 -25 184h362l-20 -126q-22 3 -39 4t-39 1q-46 0 -98 -5v-142q10 -1 21.5 -3t44.5 -2q20 0 36 1t39 4v-126q-6 1 -25 3t-50 2q-32 0 -43.5 -2t-22.5 -3v-123q0 -40 21 -183h-187q25 143 25 183z" />
    <glyph glyph-name="F" unicode="f" horiz-adv-x="436" 
d="M63 183v333q0 55 -25 184h362l-20 -126q-22 3 -39 4t-39 1q-46 0 -98 -5v-142q10 -1 21.5 -3t44.5 -2q20 0 36 1t39 4v-126q-6 1 -25 3t-50 2q-32 0 -43.5 -2t-22.5 -3v-123q0 -40 21 -183h-187q25 143 25 183z" />
    <glyph glyph-name="G" unicode="G" horiz-adv-x="505" 
d="M113 43.5q-55 57.5 -68 168.5q-7 60 -7 132q0 76 7 140q11 110 67 170.5t147 60.5q98 0 145 -44.5t63 -137.5q-19 3 -65 3q-45 0 -66 -3q-4 31 -23.5 50t-53.5 19q-39 0 -57.5 -31.5t-18.5 -74.5l-1 -296q0 -41 18.5 -69t58.5 -28t58 27.5t19 69.5l1 63q-51 -2 -74 -5
v128q58 -7 96 -7q34 0 55 1.5t33.5 3t19.5 2.5l-2 -211q-1 -87 -54 -138t-152 -51q-91 0 -146 57.5z" />
    <glyph glyph-name="G" unicode="g" horiz-adv-x="505" 
d="M113 43.5q-55 57.5 -68 168.5q-7 60 -7 132q0 76 7 140q11 110 67 170.5t147 60.5q98 0 145 -44.5t63 -137.5q-19 3 -65 3q-45 0 -66 -3q-4 31 -23.5 50t-53.5 19q-39 0 -57.5 -31.5t-18.5 -74.5l-1 -296q0 -41 18.5 -69t58.5 -28t58 27.5t19 69.5l1 63q-51 -2 -74 -5
v128q58 -7 96 -7q34 0 55 1.5t33.5 3t19.5 2.5l-2 -211q-1 -87 -54 -138t-152 -51q-91 0 -146 57.5z" />
    <glyph glyph-name="G" unicode="g" horiz-adv-x="505" 
d="M113 43.5q-55 57.5 -68 168.5q-7 60 -7 132q0 76 7 140q11 110 67 170.5t147 60.5q98 0 145 -44.5t63 -137.5q-19 3 -65 3q-45 0 -66 -3q-4 31 -23.5 50t-53.5 19q-39 0 -57.5 -31.5t-18.5 -74.5l-1 -296q0 -41 18.5 -69t58.5 -28t58 27.5t19 69.5l1 63q-51 -2 -74 -5
v128q58 -7 96 -7q34 0 55 1.5t33.5 3t19.5 2.5l-2 -211q-1 -87 -54 -138t-152 -51q-91 0 -146 57.5z" />
    <glyph glyph-name="Gbreve" unicode="&#x11e;" horiz-adv-x="505" 
d="M113 43.5q-55 57.5 -68 168.5q-7 60 -7 132q0 76 7 140q11 110 67 170.5t147 60.5q98 0 145 -44.5t63 -137.5q-19 3 -65 3q-45 0 -66 -3q-4 31 -23.5 50t-53.5 19q-39 0 -57.5 -31.5t-18.5 -74.5l-1 -296q0 -41 18.5 -69t58.5 -28t58 27.5t19 69.5l1 63q-51 -2 -74 -5
v128q58 -7 96 -7q34 0 55 1.5t33.5 3t19.5 2.5l-2 -211q-1 -87 -54 -138t-152 -51q-91 0 -146 57.5zM159 820.5q-39 36.5 -50 88.5h85q5 -23 22 -35.5t38 -12.5t37.5 12.5t20.5 35.5h85q-11 -52 -49.5 -88.5t-93.5 -36.5q-56 0 -95 36.5z" />
    <glyph glyph-name="Gbreve" unicode="&#x11f;" horiz-adv-x="505" 
d="M113 43.5q-55 57.5 -68 168.5q-7 60 -7 132q0 76 7 140q11 110 67 170.5t147 60.5q98 0 145 -44.5t63 -137.5q-19 3 -65 3q-45 0 -66 -3q-4 31 -23.5 50t-53.5 19q-39 0 -57.5 -31.5t-18.5 -74.5l-1 -296q0 -41 18.5 -69t58.5 -28t58 27.5t19 69.5l1 63q-51 -2 -74 -5
v128q58 -7 96 -7q34 0 55 1.5t33.5 3t19.5 2.5l-2 -211q-1 -87 -54 -138t-152 -51q-91 0 -146 57.5zM159 820.5q-39 36.5 -50 88.5h85q5 -23 22 -35.5t38 -12.5t37.5 12.5t20.5 35.5h85q-11 -52 -49.5 -88.5t-93.5 -36.5q-56 0 -95 36.5z" />
    <glyph glyph-name="Gbreve" unicode="&#x11f;" horiz-adv-x="505" 
d="M113 43.5q-55 57.5 -68 168.5q-7 60 -7 132q0 76 7 140q11 110 67 170.5t147 60.5q98 0 145 -44.5t63 -137.5q-19 3 -65 3q-45 0 -66 -3q-4 31 -23.5 50t-53.5 19q-39 0 -57.5 -31.5t-18.5 -74.5l-1 -296q0 -41 18.5 -69t58.5 -28t58 27.5t19 69.5l1 63q-51 -2 -74 -5
v128q58 -7 96 -7q34 0 55 1.5t33.5 3t19.5 2.5l-2 -211q-1 -87 -54 -138t-152 -51q-91 0 -146 57.5zM159 820.5q-39 36.5 -50 88.5h85q5 -23 22 -35.5t38 -12.5t37.5 12.5t20.5 35.5h85q-11 -52 -49.5 -88.5t-93.5 -36.5q-56 0 -95 36.5z" />
    <glyph glyph-name="Gcircumflex" unicode="&#x11c;" horiz-adv-x="505" 
d="M113 43.5q-55 57.5 -68 168.5q-7 60 -7 132q0 76 7 140q11 110 67 170.5t147 60.5q98 0 145 -44.5t63 -137.5q-19 3 -65 3q-45 0 -66 -3q-4 31 -23.5 50t-53.5 19q-39 0 -57.5 -31.5t-18.5 -74.5l-1 -296q0 -41 18.5 -69t58.5 -28t58 27.5t19 69.5l1 63q-51 -2 -74 -5
v128q58 -7 96 -7q34 0 55 1.5t33.5 3t19.5 2.5l-2 -211q-1 -87 -54 -138t-152 -51q-91 0 -146 57.5zM149.5 865q12.5 13 27.5 30q16 18 27 32.5t23 34.5h51q12 -20 23 -34.5t27 -32.5q15 -17 27.5 -30t32.5 -30l-60 -51q-28 39 -37 50l-14 18l-22 31l-25 -31q-8 -11 -22 -27
q-16 -19 -31 -41l-60 51q20 17 32.5 30z" />
    <glyph glyph-name="Gcircumflex" unicode="&#x11d;" horiz-adv-x="505" 
d="M113 43.5q-55 57.5 -68 168.5q-7 60 -7 132q0 76 7 140q11 110 67 170.5t147 60.5q98 0 145 -44.5t63 -137.5q-19 3 -65 3q-45 0 -66 -3q-4 31 -23.5 50t-53.5 19q-39 0 -57.5 -31.5t-18.5 -74.5l-1 -296q0 -41 18.5 -69t58.5 -28t58 27.5t19 69.5l1 63q-51 -2 -74 -5
v128q58 -7 96 -7q34 0 55 1.5t33.5 3t19.5 2.5l-2 -211q-1 -87 -54 -138t-152 -51q-91 0 -146 57.5zM149.5 865q12.5 13 27.5 30q16 18 27 32.5t23 34.5h51q12 -20 23 -34.5t27 -32.5q15 -17 27.5 -30t32.5 -30l-60 -51q-28 39 -37 50l-14 18l-22 31l-25 -31q-8 -11 -22 -27
q-16 -19 -31 -41l-60 51q20 17 32.5 30z" />
    <glyph glyph-name="Gcircumflex" unicode="&#x11d;" horiz-adv-x="505" 
d="M113 43.5q-55 57.5 -68 168.5q-7 60 -7 132q0 76 7 140q11 110 67 170.5t147 60.5q98 0 145 -44.5t63 -137.5q-19 3 -65 3q-45 0 -66 -3q-4 31 -23.5 50t-53.5 19q-39 0 -57.5 -31.5t-18.5 -74.5l-1 -296q0 -41 18.5 -69t58.5 -28t58 27.5t19 69.5l1 63q-51 -2 -74 -5
v128q58 -7 96 -7q34 0 55 1.5t33.5 3t19.5 2.5l-2 -211q-1 -87 -54 -138t-152 -51q-91 0 -146 57.5zM149.5 865q12.5 13 27.5 30q16 18 27 32.5t23 34.5h51q12 -20 23 -34.5t27 -32.5q15 -17 27.5 -30t32.5 -30l-60 -51q-28 39 -37 50l-14 18l-22 31l-25 -31q-8 -11 -22 -27
q-16 -19 -31 -41l-60 51q20 17 32.5 30z" />
    <glyph glyph-name="uni0122" unicode="&#x122;" horiz-adv-x="505" 
d="M113 43.5q-55 57.5 -68 168.5q-7 60 -7 132q0 76 7 140q11 110 67 170.5t147 60.5q98 0 145 -44.5t63 -137.5q-19 3 -65 3q-45 0 -66 -3q-4 31 -23.5 50t-53.5 19q-39 0 -57.5 -31.5t-18.5 -74.5l-1 -296q0 -41 18.5 -69t58.5 -28t58 27.5t19 69.5l1 63q-51 -2 -74 -5
v128q58 -7 96 -7q34 0 55 1.5t33.5 3t19.5 2.5l-2 -211q-1 -87 -54 -138t-152 -51q-91 0 -146 57.5zM186 -208l11 23q27 62 36 86l28 73l59 -13l-15 -82q-10 -48 -18 -117q-42 20 -101 30z" />
    <glyph glyph-name="uni0122" unicode="&#x123;" horiz-adv-x="505" 
d="M113 43.5q-55 57.5 -68 168.5q-7 60 -7 132q0 76 7 140q11 110 67 170.5t147 60.5q98 0 145 -44.5t63 -137.5q-19 3 -65 3q-45 0 -66 -3q-4 31 -23.5 50t-53.5 19q-39 0 -57.5 -31.5t-18.5 -74.5l-1 -296q0 -41 18.5 -69t58.5 -28t58 27.5t19 69.5l1 63q-51 -2 -74 -5
v128q58 -7 96 -7q34 0 55 1.5t33.5 3t19.5 2.5l-2 -211q-1 -87 -54 -138t-152 -51q-91 0 -146 57.5zM186 -208l11 23q27 62 36 86l28 73l59 -13l-15 -82q-10 -48 -18 -117q-42 20 -101 30z" />
    <glyph glyph-name="uni0122" unicode="&#x123;" horiz-adv-x="505" 
d="M113 43.5q-55 57.5 -68 168.5q-7 60 -7 132q0 76 7 140q11 110 67 170.5t147 60.5q98 0 145 -44.5t63 -137.5q-19 3 -65 3q-45 0 -66 -3q-4 31 -23.5 50t-53.5 19q-39 0 -57.5 -31.5t-18.5 -74.5l-1 -296q0 -41 18.5 -69t58.5 -28t58 27.5t19 69.5l1 63q-51 -2 -74 -5
v128q58 -7 96 -7q34 0 55 1.5t33.5 3t19.5 2.5l-2 -211q-1 -87 -54 -138t-152 -51q-91 0 -146 57.5zM186 -208l11 23q27 62 36 86l28 73l59 -13l-15 -82q-10 -48 -18 -117q-42 20 -101 30z" />
    <glyph glyph-name="Gdotaccent" unicode="&#x120;" horiz-adv-x="505" 
d="M113 43.5q-55 57.5 -68 168.5q-7 60 -7 132q0 76 7 140q11 110 67 170.5t147 60.5q98 0 145 -44.5t63 -137.5q-19 3 -65 3q-45 0 -66 -3q-4 31 -23.5 50t-53.5 19q-39 0 -57.5 -31.5t-18.5 -74.5l-1 -296q0 -41 18.5 -69t58.5 -28t58 27.5t19 69.5l1 63q-51 -2 -74 -5
v128q58 -7 96 -7q34 0 55 1.5t33.5 3t19.5 2.5l-2 -211q-1 -87 -54 -138t-152 -51q-91 0 -146 57.5zM199 918q20 19 55 19t54 -19t19 -54q0 -36 -19.5 -55t-53.5 -19q-36 0 -55.5 19.5t-19.5 54.5t20 54z" />
    <glyph glyph-name="Gdotaccent" unicode="&#x121;" horiz-adv-x="505" 
d="M113 43.5q-55 57.5 -68 168.5q-7 60 -7 132q0 76 7 140q11 110 67 170.5t147 60.5q98 0 145 -44.5t63 -137.5q-19 3 -65 3q-45 0 -66 -3q-4 31 -23.5 50t-53.5 19q-39 0 -57.5 -31.5t-18.5 -74.5l-1 -296q0 -41 18.5 -69t58.5 -28t58 27.5t19 69.5l1 63q-51 -2 -74 -5
v128q58 -7 96 -7q34 0 55 1.5t33.5 3t19.5 2.5l-2 -211q-1 -87 -54 -138t-152 -51q-91 0 -146 57.5zM199 918q20 19 55 19t54 -19t19 -54q0 -36 -19.5 -55t-53.5 -19q-36 0 -55.5 19.5t-19.5 54.5t20 54z" />
    <glyph glyph-name="Gdotaccent" unicode="&#x121;" horiz-adv-x="505" 
d="M113 43.5q-55 57.5 -68 168.5q-7 60 -7 132q0 76 7 140q11 110 67 170.5t147 60.5q98 0 145 -44.5t63 -137.5q-19 3 -65 3q-45 0 -66 -3q-4 31 -23.5 50t-53.5 19q-39 0 -57.5 -31.5t-18.5 -74.5l-1 -296q0 -41 18.5 -69t58.5 -28t58 27.5t19 69.5l1 63q-51 -2 -74 -5
v128q58 -7 96 -7q34 0 55 1.5t33.5 3t19.5 2.5l-2 -211q-1 -87 -54 -138t-152 -51q-91 0 -146 57.5zM199 918q20 19 55 19t54 -19t19 -54q0 -36 -19.5 -55t-53.5 -19q-36 0 -55.5 19.5t-19.5 54.5t20 54z" />
    <glyph glyph-name="uni1E20" unicode="&#x1e20;" horiz-adv-x="505" 
d="M113 43.5q-55 57.5 -68 168.5q-7 60 -7 132q0 76 7 140q11 110 67 170.5t147 60.5q98 0 145 -44.5t63 -137.5q-19 3 -65 3q-45 0 -66 -3q-4 31 -23.5 50t-53.5 19q-39 0 -57.5 -31.5t-18.5 -74.5l-1 -296q0 -41 18.5 -69t58.5 -28t58 27.5t19 69.5l1 63q-51 -2 -74 -5
v128q58 -7 96 -7q34 0 55 1.5t33.5 3t19.5 2.5l-2 -211q-1 -87 -54 -138t-152 -51q-91 0 -146 57.5zM159 904q44 -3 92 -3q36 0 63.5 1t70.5 5v-98l-48 3q-39 3 -86 3q-48 0 -90 -3l-41 -3v98z" />
    <glyph glyph-name="uni1E20" unicode="&#x1e21;" horiz-adv-x="505" 
d="M113 43.5q-55 57.5 -68 168.5q-7 60 -7 132q0 76 7 140q11 110 67 170.5t147 60.5q98 0 145 -44.5t63 -137.5q-19 3 -65 3q-45 0 -66 -3q-4 31 -23.5 50t-53.5 19q-39 0 -57.5 -31.5t-18.5 -74.5l-1 -296q0 -41 18.5 -69t58.5 -28t58 27.5t19 69.5l1 63q-51 -2 -74 -5
v128q58 -7 96 -7q34 0 55 1.5t33.5 3t19.5 2.5l-2 -211q-1 -87 -54 -138t-152 -51q-91 0 -146 57.5zM159 904q44 -3 92 -3q36 0 63.5 1t70.5 5v-98l-48 3q-39 3 -86 3q-48 0 -90 -3l-41 -3v98z" />
    <glyph glyph-name="uni1E20" unicode="&#x1e21;" horiz-adv-x="505" 
d="M113 43.5q-55 57.5 -68 168.5q-7 60 -7 132q0 76 7 140q11 110 67 170.5t147 60.5q98 0 145 -44.5t63 -137.5q-19 3 -65 3q-45 0 -66 -3q-4 31 -23.5 50t-53.5 19q-39 0 -57.5 -31.5t-18.5 -74.5l-1 -296q0 -41 18.5 -69t58.5 -28t58 27.5t19 69.5l1 63q-51 -2 -74 -5
v128q58 -7 96 -7q34 0 55 1.5t33.5 3t19.5 2.5l-2 -211q-1 -87 -54 -138t-152 -51q-91 0 -146 57.5zM159 904q44 -3 92 -3q36 0 63.5 1t70.5 5v-98l-48 3q-39 3 -86 3q-48 0 -90 -3l-41 -3v98z" />
    <glyph glyph-name="H" unicode="H" horiz-adv-x="541" 
d="M200 183v128q41 5 65 5q22 0 38 -1t38 -4v-128q0 -40 -11 -183h173q-21 143 -21 183v333q0 51 21 184h-173q11 -129 11 -184v-79q-23 -3 -39.5 -4t-36.5 -1q-25 0 -65 5v79q0 51 11 184h-173q21 -129 21 -184v-333q0 -40 -21 -183h173q-11 143 -11 183z" />
    <glyph glyph-name="H" unicode="h" horiz-adv-x="541" 
d="M200 183v128q41 5 65 5q22 0 38 -1t38 -4v-128q0 -40 -11 -183h173q-21 143 -21 183v333q0 51 21 184h-173q11 -129 11 -184v-79q-23 -3 -39.5 -4t-36.5 -1q-25 0 -65 5v79q0 51 11 184h-173q21 -129 21 -184v-333q0 -40 -21 -183h173q-11 143 -11 183z" />
    <glyph glyph-name="H" unicode="h" horiz-adv-x="541" 
d="M200 183v128q41 5 65 5q22 0 38 -1t38 -4v-128q0 -40 -11 -183h173q-21 143 -21 183v333q0 51 21 184h-173q11 -129 11 -184v-79q-23 -3 -39.5 -4t-36.5 -1q-25 0 -65 5v79q0 51 11 184h-173q21 -129 21 -184v-333q0 -40 -21 -183h173q-11 143 -11 183z" />
    <glyph glyph-name="Hcircumflex" unicode="&#x124;" horiz-adv-x="541" 
d="M200 183v128q41 5 65 5q22 0 38 -1t38 -4v-128q0 -40 -11 -183h173q-21 143 -21 183v333q0 51 21 184h-173q11 -129 11 -184v-79q-23 -3 -39.5 -4t-36.5 -1q-25 0 -65 5v79q0 51 11 184h-173q21 -129 21 -184v-333q0 -40 -21 -183h173q-11 143 -11 183zM167.5 865
q12.5 13 27.5 30q16 18 27 32.5t23 34.5h51q12 -20 23 -34.5t27 -32.5q15 -17 27.5 -30t32.5 -30l-60 -51q-28 39 -37 50l-14 18l-22 31l-25 -31q-8 -11 -22 -27q-16 -19 -31 -41l-60 51q20 17 32.5 30z" />
    <glyph glyph-name="Hcircumflex" unicode="&#x125;" horiz-adv-x="541" 
d="M200 183v128q41 5 65 5q22 0 38 -1t38 -4v-128q0 -40 -11 -183h173q-21 143 -21 183v333q0 51 21 184h-173q11 -129 11 -184v-79q-23 -3 -39.5 -4t-36.5 -1q-25 0 -65 5v79q0 51 11 184h-173q21 -129 21 -184v-333q0 -40 -21 -183h173q-11 143 -11 183zM167.5 865
q12.5 13 27.5 30q16 18 27 32.5t23 34.5h51q12 -20 23 -34.5t27 -32.5q15 -17 27.5 -30t32.5 -30l-60 -51q-28 39 -37 50l-14 18l-22 31l-25 -31q-8 -11 -22 -27q-16 -19 -31 -41l-60 51q20 17 32.5 30z" />
    <glyph glyph-name="Hcircumflex" unicode="&#x125;" horiz-adv-x="541" 
d="M200 183v128q41 5 65 5q22 0 38 -1t38 -4v-128q0 -40 -11 -183h173q-21 143 -21 183v333q0 51 21 184h-173q11 -129 11 -184v-79q-23 -3 -39.5 -4t-36.5 -1q-25 0 -65 5v79q0 51 11 184h-173q21 -129 21 -184v-333q0 -40 -21 -183h173q-11 143 -11 183zM167.5 865
q12.5 13 27.5 30q16 18 27 32.5t23 34.5h51q12 -20 23 -34.5t27 -32.5q15 -17 27.5 -30t32.5 -30l-60 -51q-28 39 -37 50l-14 18l-22 31l-25 -31q-8 -11 -22 -27q-16 -19 -31 -41l-60 51q20 17 32.5 30z" />
    <glyph glyph-name="I" unicode="I" horiz-adv-x="259" 
d="M59 183v333q0 55 -21 184h183q-21 -133 -21 -184v-333q0 -40 21 -183h-183q21 143 21 183z" />
    <glyph glyph-name="I" unicode="i" horiz-adv-x="259" 
d="M59 183v333q0 55 -21 184h183q-21 -133 -21 -184v-333q0 -40 21 -183h-183q21 143 21 183z" />
    <glyph glyph-name="I" unicode="i" horiz-adv-x="259" 
d="M59 183v333q0 55 -21 184h183q-21 -133 -21 -184v-333q0 -40 21 -183h-183q21 143 21 183z" />
    <glyph glyph-name="IJ" unicode="&#x132;" horiz-adv-x="722" 
d="M59 183v333q0 55 -21 184h183q-21 -133 -21 -184v-333q0 -40 21 -183h-183q21 143 21 183zM290.5 33.5q-53.5 48.5 -53.5 176.5h146q0 -58 14 -83.5t41 -25.5q25 0 38.5 18t13.5 50q0 58 -1 101.5t-2 72.5q-4 114 -4 173q0 55 -14 184h169q-14 -133 -14 -184v-375
q0 -52 -27 -87t-68.5 -52t-85.5 -17q-99 0 -152.5 48.5z" />
    <glyph glyph-name="IJ" unicode="&#x133;" horiz-adv-x="722" 
d="M59 183v333q0 55 -21 184h183q-21 -133 -21 -184v-333q0 -40 21 -183h-183q21 143 21 183zM290.5 33.5q-53.5 48.5 -53.5 176.5h146q0 -58 14 -83.5t41 -25.5q25 0 38.5 18t13.5 50q0 58 -1 101.5t-2 72.5q-4 114 -4 173q0 55 -14 184h169q-14 -133 -14 -184v-375
q0 -52 -27 -87t-68.5 -52t-85.5 -17q-99 0 -152.5 48.5z" />
    <glyph glyph-name="IJ" unicode="&#x133;" horiz-adv-x="722" 
d="M59 183v333q0 55 -21 184h183q-21 -133 -21 -184v-333q0 -40 21 -183h-183q21 143 21 183zM290.5 33.5q-53.5 48.5 -53.5 176.5h146q0 -58 14 -83.5t41 -25.5q25 0 38.5 18t13.5 50q0 58 -1 101.5t-2 72.5q-4 114 -4 173q0 55 -14 184h169q-14 -133 -14 -184v-375
q0 -52 -27 -87t-68.5 -52t-85.5 -17q-99 0 -152.5 48.5z" />
    <glyph glyph-name="Icircumflex" unicode="&#xce;" horiz-adv-x="259" 
d="M59 183v333q0 55 -21 184h183q-21 -133 -21 -184v-333q0 -40 21 -183h-183q21 143 21 183zM26.5 865q12.5 13 27.5 30q16 18 27 32.5t23 34.5h51q12 -20 23 -34.5t27 -32.5q15 -17 27.5 -30t32.5 -30l-60 -51q-28 39 -37 50l-14 18l-22 31l-25 -31q-8 -11 -22 -27
q-16 -19 -31 -41l-60 51q20 17 32.5 30z" />
    <glyph glyph-name="Icircumflex" unicode="&#xee;" horiz-adv-x="259" 
d="M59 183v333q0 55 -21 184h183q-21 -133 -21 -184v-333q0 -40 21 -183h-183q21 143 21 183zM26.5 865q12.5 13 27.5 30q16 18 27 32.5t23 34.5h51q12 -20 23 -34.5t27 -32.5q15 -17 27.5 -30t32.5 -30l-60 -51q-28 39 -37 50l-14 18l-22 31l-25 -31q-8 -11 -22 -27
q-16 -19 -31 -41l-60 51q20 17 32.5 30z" />
    <glyph glyph-name="Icircumflex" unicode="&#xee;" horiz-adv-x="259" 
d="M59 183v333q0 55 -21 184h183q-21 -133 -21 -184v-333q0 -40 21 -183h-183q21 143 21 183zM26.5 865q12.5 13 27.5 30q16 18 27 32.5t23 34.5h51q12 -20 23 -34.5t27 -32.5q15 -17 27.5 -30t32.5 -30l-60 -51q-28 39 -37 50l-14 18l-22 31l-25 -31q-8 -11 -22 -27
q-16 -19 -31 -41l-60 51q20 17 32.5 30z" />
    <glyph glyph-name="Idieresis" unicode="&#xcf;" horiz-adv-x="259" 
d="M59 183v333q0 55 -21 184h183q-21 -133 -21 -184v-333q0 -40 21 -183h-183q21 143 21 183zM172.5 809.5q-19.5 19.5 -19.5 54.5q0 36 19.5 54.5t54.5 18.5t54.5 -19t19.5 -54t-20 -54.5t-54 -19.5q-35 0 -54.5 19.5zM-21 918q20 19 55 19t54 -19t19 -54q0 -36 -19.5 -55
t-53.5 -19q-36 0 -55.5 19.5t-19.5 54.5t20 54z" />
    <glyph glyph-name="Idieresis" unicode="&#xef;" horiz-adv-x="259" 
d="M59 183v333q0 55 -21 184h183q-21 -133 -21 -184v-333q0 -40 21 -183h-183q21 143 21 183zM172.5 809.5q-19.5 19.5 -19.5 54.5q0 36 19.5 54.5t54.5 18.5t54.5 -19t19.5 -54t-20 -54.5t-54 -19.5q-35 0 -54.5 19.5zM-21 918q20 19 55 19t54 -19t19 -54q0 -36 -19.5 -55
t-53.5 -19q-36 0 -55.5 19.5t-19.5 54.5t20 54z" />
    <glyph glyph-name="Idieresis" unicode="&#xef;" horiz-adv-x="259" 
d="M59 183v333q0 55 -21 184h183q-21 -133 -21 -184v-333q0 -40 21 -183h-183q21 143 21 183zM172.5 809.5q-19.5 19.5 -19.5 54.5q0 36 19.5 54.5t54.5 18.5t54.5 -19t19.5 -54t-20 -54.5t-54 -19.5q-35 0 -54.5 19.5zM-21 918q20 19 55 19t54 -19t19 -54q0 -36 -19.5 -55
t-53.5 -19q-36 0 -55.5 19.5t-19.5 54.5t20 54z" />
    <glyph glyph-name="Idotaccent" unicode="&#x130;" horiz-adv-x="259" 
d="M59 183v333q0 55 -21 184h183q-21 -133 -21 -184v-333q0 -40 21 -183h-183q21 143 21 183zM76 918q20 19 55 19t54 -19t19 -54q0 -36 -19.5 -55t-53.5 -19q-36 0 -55.5 19.5t-19.5 54.5t20 54z" />
    <glyph glyph-name="Igrave" unicode="&#xcc;" horiz-adv-x="259" 
d="M59 183v333q0 55 -21 184h183q-21 -133 -21 -184v-333q0 -40 21 -183h-183q21 143 21 183zM130 777q-18 30 -37 57q-19 24 -31 37.5t-30 31.5l84 63q13 -26 21.5 -39t27.5 -38q17 -23 29.5 -36.5t32.5 -34.5l-84 -62z" />
    <glyph glyph-name="Igrave" unicode="&#xec;" horiz-adv-x="259" 
d="M59 183v333q0 55 -21 184h183q-21 -133 -21 -184v-333q0 -40 21 -183h-183q21 143 21 183zM130 777q-18 30 -37 57q-19 24 -31 37.5t-30 31.5l84 63q13 -26 21.5 -39t27.5 -38q17 -23 29.5 -36.5t32.5 -34.5l-84 -62z" />
    <glyph glyph-name="Igrave" unicode="&#xec;" horiz-adv-x="259" 
d="M59 183v333q0 55 -21 184h183q-21 -133 -21 -184v-333q0 -40 21 -183h-183q21 143 21 183zM130 777q-18 30 -37 57q-19 24 -31 37.5t-30 31.5l84 63q13 -26 21.5 -39t27.5 -38q17 -23 29.5 -36.5t32.5 -34.5l-84 -62z" />
    <glyph glyph-name="Itilde" unicode="&#x128;" horiz-adv-x="259" 
d="M59 183v333q0 55 -21 184h183q-21 -133 -21 -184v-333q0 -40 21 -183h-183q21 143 21 183zM140.5 768.5q-15.5 14.5 -31.5 42.5q-9 18 -17.5 27.5t-21.5 9.5q-23 0 -31.5 -16.5t-8.5 -52.5v-17h-54v47q0 39 20 73t64 34q35 0 52 -15.5t29 -42.5q10 -20 17.5 -28.5
t22.5 -8.5q31 0 40 17.5t9 51.5v18h54v-48q0 -38 -24 -72t-74 -34q-30 0 -45.5 14.5z" />
    <glyph glyph-name="Itilde" unicode="&#x129;" horiz-adv-x="259" 
d="M59 183v333q0 55 -21 184h183q-21 -133 -21 -184v-333q0 -40 21 -183h-183q21 143 21 183zM140.5 768.5q-15.5 14.5 -31.5 42.5q-9 18 -17.5 27.5t-21.5 9.5q-23 0 -31.5 -16.5t-8.5 -52.5v-17h-54v47q0 39 20 73t64 34q35 0 52 -15.5t29 -42.5q10 -20 17.5 -28.5
t22.5 -8.5q31 0 40 17.5t9 51.5v18h54v-48q0 -38 -24 -72t-74 -34q-30 0 -45.5 14.5z" />
    <glyph glyph-name="Itilde" unicode="&#x129;" horiz-adv-x="259" 
d="M59 183v333q0 55 -21 184h183q-21 -133 -21 -184v-333q0 -40 21 -183h-183q21 143 21 183zM140.5 768.5q-15.5 14.5 -31.5 42.5q-9 18 -17.5 27.5t-21.5 9.5q-23 0 -31.5 -16.5t-8.5 -52.5v-17h-54v47q0 39 20 73t64 34q35 0 52 -15.5t29 -42.5q10 -20 17.5 -28.5
t22.5 -8.5q31 0 40 17.5t9 51.5v18h54v-48q0 -38 -24 -72t-74 -34q-30 0 -45.5 14.5z" />
    <glyph glyph-name="J" unicode="J" horiz-adv-x="455" 
d="M69.5 33.5q-53.5 48.5 -53.5 176.5h146q0 -58 14 -83.5t41 -25.5q25 0 38.5 18t13.5 50q0 58 -1 101.5t-2 72.5q-4 114 -4 173q0 55 -14 184h169q-14 -133 -14 -184v-375q0 -52 -27 -87t-68.5 -52t-85.5 -17q-99 0 -152.5 48.5z" />
    <glyph glyph-name="J" unicode="j" horiz-adv-x="455" 
d="M69.5 33.5q-53.5 48.5 -53.5 176.5h146q0 -58 14 -83.5t41 -25.5q25 0 38.5 18t13.5 50q0 58 -1 101.5t-2 72.5q-4 114 -4 173q0 55 -14 184h169q-14 -133 -14 -184v-375q0 -52 -27 -87t-68.5 -52t-85.5 -17q-99 0 -152.5 48.5z" />
    <glyph glyph-name="J" unicode="j" horiz-adv-x="455" 
d="M69.5 33.5q-53.5 48.5 -53.5 176.5h146q0 -58 14 -83.5t41 -25.5q25 0 38.5 18t13.5 50q0 58 -1 101.5t-2 72.5q-4 114 -4 173q0 55 -14 184h169q-14 -133 -14 -184v-375q0 -52 -27 -87t-68.5 -52t-85.5 -17q-99 0 -152.5 48.5z" />
    <glyph glyph-name="uni004A0301" horiz-adv-x="455" 
d="M69.5 33.5q-53.5 48.5 -53.5 176.5h146q0 -58 14 -83.5t41 -25.5q25 0 38.5 18t13.5 50q0 58 -1 101.5t-2 72.5q-4 114 -4 173q0 55 -14 184h169q-14 -133 -14 -184v-375q0 -52 -27 -87t-68.5 -52t-85.5 -17q-99 0 -152.5 48.5zM129 799l43 71q16 24 35 64l14 28
q39 -39 84 -63l-27 -26l-48 -49l-50 -59z" />
    <glyph glyph-name="Jcircumflex" unicode="&#x134;" horiz-adv-x="455" 
d="M69.5 33.5q-53.5 48.5 -53.5 176.5h146q0 -58 14 -83.5t41 -25.5q25 0 38.5 18t13.5 50q0 58 -1 101.5t-2 72.5q-4 114 -4 173q0 55 -14 184h169q-14 -133 -14 -184v-375q0 -52 -27 -87t-68.5 -52t-85.5 -17q-99 0 -152.5 48.5zM113.5 865q12.5 13 27.5 30q16 18 27 32.5
t23 34.5h51q12 -20 23 -34.5t27 -32.5q15 -17 27.5 -30t32.5 -30l-60 -51q-28 39 -37 50l-14 18l-22 31l-25 -31q-8 -11 -22 -27q-16 -19 -31 -41l-60 51q20 17 32.5 30z" />
    <glyph glyph-name="Jcircumflex" unicode="&#x135;" horiz-adv-x="455" 
d="M69.5 33.5q-53.5 48.5 -53.5 176.5h146q0 -58 14 -83.5t41 -25.5q25 0 38.5 18t13.5 50q0 58 -1 101.5t-2 72.5q-4 114 -4 173q0 55 -14 184h169q-14 -133 -14 -184v-375q0 -52 -27 -87t-68.5 -52t-85.5 -17q-99 0 -152.5 48.5zM113.5 865q12.5 13 27.5 30q16 18 27 32.5
t23 34.5h51q12 -20 23 -34.5t27 -32.5q15 -17 27.5 -30t32.5 -30l-60 -51q-28 39 -37 50l-14 18l-22 31l-25 -31q-8 -11 -22 -27q-16 -19 -31 -41l-60 51q20 17 32.5 30z" />
    <glyph glyph-name="Jcircumflex" unicode="&#x135;" horiz-adv-x="455" 
d="M69.5 33.5q-53.5 48.5 -53.5 176.5h146q0 -58 14 -83.5t41 -25.5q25 0 38.5 18t13.5 50q0 58 -1 101.5t-2 72.5q-4 114 -4 173q0 55 -14 184h169q-14 -133 -14 -184v-375q0 -52 -27 -87t-68.5 -52t-85.5 -17q-99 0 -152.5 48.5zM113.5 865q12.5 13 27.5 30q16 18 27 32.5
t23 34.5h51q12 -20 23 -34.5t27 -32.5q15 -17 27.5 -30t32.5 -30l-60 -51q-28 39 -37 50l-14 18l-22 31l-25 -31q-8 -11 -22 -27q-16 -19 -31 -41l-60 51q20 17 32.5 30z" />
    <glyph glyph-name="K" unicode="K" horiz-adv-x="533" 
d="M59 183v333q0 55 -21 184h183q-21 -133 -21 -184v-100q77 170 107 284h159q-15 -26 -40 -74.5t-36 -72.5l-67 -130q63 -172 198 -423h-178q-22 82 -45 151q-11 37 -26.5 69.5t-47.5 92.5l-24 -48v-82q0 -40 21 -183h-183q21 143 21 183z" />
    <glyph glyph-name="K" unicode="k" horiz-adv-x="533" 
d="M59 183v333q0 55 -21 184h183q-21 -133 -21 -184v-100q77 170 107 284h159q-15 -26 -40 -74.5t-36 -72.5l-67 -130q63 -172 198 -423h-178q-22 82 -45 151q-11 37 -26.5 69.5t-47.5 92.5l-24 -48v-82q0 -40 21 -183h-183q21 143 21 183z" />
    <glyph glyph-name="K" unicode="k" horiz-adv-x="533" 
d="M59 183v333q0 55 -21 184h183q-21 -133 -21 -184v-100q77 170 107 284h159q-15 -26 -40 -74.5t-36 -72.5l-67 -130q63 -172 198 -423h-178q-22 82 -45 151q-11 37 -26.5 69.5t-47.5 92.5l-24 -48v-82q0 -40 21 -183h-183q21 143 21 183z" />
    <glyph glyph-name="uni0136" unicode="&#x136;" horiz-adv-x="533" 
d="M59 183v333q0 55 -21 184h183q-21 -133 -21 -184v-100q77 170 107 284h159q-15 -26 -40 -74.5t-36 -72.5l-67 -130q63 -172 198 -423h-178q-22 82 -45 151q-11 37 -26.5 69.5t-47.5 92.5l-24 -48v-82q0 -40 21 -183h-183q21 143 21 183zM213 -208l11 23q27 62 36 86
l28 73l59 -13l-15 -82q-10 -48 -18 -117q-42 20 -101 30z" />
    <glyph glyph-name="uni0136" unicode="&#x137;" horiz-adv-x="533" 
d="M59 183v333q0 55 -21 184h183q-21 -133 -21 -184v-100q77 170 107 284h159q-15 -26 -40 -74.5t-36 -72.5l-67 -130q63 -172 198 -423h-178q-22 82 -45 151q-11 37 -26.5 69.5t-47.5 92.5l-24 -48v-82q0 -40 21 -183h-183q21 143 21 183zM213 -208l11 23q27 62 36 86
l28 73l59 -13l-15 -82q-10 -48 -18 -117q-42 20 -101 30z" />
    <glyph glyph-name="uni0136" unicode="&#x137;" horiz-adv-x="533" 
d="M59 183v333q0 55 -21 184h183q-21 -133 -21 -184v-100q77 170 107 284h159q-15 -26 -40 -74.5t-36 -72.5l-67 -130q63 -172 198 -423h-178q-22 82 -45 151q-11 37 -26.5 69.5t-47.5 92.5l-24 -48v-82q0 -40 21 -183h-183q21 143 21 183zM213 -208l11 23q27 62 36 86
l28 73l59 -13l-15 -82q-10 -48 -18 -117q-42 20 -101 30z" />
    <glyph glyph-name="L" unicode="L" horiz-adv-x="435" 
d="M59 183v333q0 55 -21 184h183q-21 -133 -21 -184v-293q0 -13 6 -71l3 -28q50 -3 98 -3q40 0 62.5 1t49.5 4l-20 -126h-361q21 143 21 183z" />
    <glyph glyph-name="L" unicode="l" horiz-adv-x="435" 
d="M59 183v333q0 55 -21 184h183q-21 -133 -21 -184v-293q0 -13 6 -71l3 -28q50 -3 98 -3q40 0 62.5 1t49.5 4l-20 -126h-361q21 143 21 183z" />
    <glyph glyph-name="L" unicode="l" horiz-adv-x="435" 
d="M59 183v333q0 55 -21 184h183q-21 -133 -21 -184v-293q0 -13 6 -71l3 -28q50 -3 98 -3q40 0 62.5 1t49.5 4l-20 -126h-361q21 143 21 183z" />
    <glyph glyph-name="Lacute" unicode="&#x139;" horiz-adv-x="435" 
d="M59 183v333q0 55 -21 184h183q-21 -133 -21 -184v-293q0 -13 6 -71l3 -28q50 -3 98 -3q40 0 62.5 1t49.5 4l-20 -126h-361q21 143 21 183zM141 799l43 71q16 24 35 64l14 28q39 -39 84 -63l-27 -26l-48 -49l-50 -59z" />
    <glyph glyph-name="Lacute" unicode="&#x13a;" horiz-adv-x="435" 
d="M59 183v333q0 55 -21 184h183q-21 -133 -21 -184v-293q0 -13 6 -71l3 -28q50 -3 98 -3q40 0 62.5 1t49.5 4l-20 -126h-361q21 143 21 183zM141 799l43 71q16 24 35 64l14 28q39 -39 84 -63l-27 -26l-48 -49l-50 -59z" />
    <glyph glyph-name="Lacute" unicode="&#x13a;" horiz-adv-x="435" 
d="M59 183v333q0 55 -21 184h183q-21 -133 -21 -184v-293q0 -13 6 -71l3 -28q50 -3 98 -3q40 0 62.5 1t49.5 4l-20 -126h-361q21 143 21 183zM141 799l43 71q16 24 35 64l14 28q39 -39 84 -63l-27 -26l-48 -49l-50 -59z" />
    <glyph glyph-name="Lcaron" unicode="&#x13d;" horiz-adv-x="435" 
d="M59 183v333q0 55 -21 184h183q-21 -133 -21 -184v-293q0 -13 6 -71l3 -28q50 -3 98 -3q40 0 62.5 1t49.5 4l-20 -126h-361q21 143 21 183zM273 433q-6 2 -8.5 4t-2.5 6t6 24.5t10 46.5q6 36 7 66l3 39q50 -22 101 -25l-15 -35q-19 -46 -25 -63q-12 -39 -20 -57t-18 -16
q-22 3 -38 10z" />
    <glyph glyph-name="Lcaron" unicode="&#x13e;" horiz-adv-x="435" 
d="M59 183v333q0 55 -21 184h183q-21 -133 -21 -184v-293q0 -13 6 -71l3 -28q50 -3 98 -3q40 0 62.5 1t49.5 4l-20 -126h-361q21 143 21 183zM273 433q-6 2 -8.5 4t-2.5 6t6 24.5t10 46.5q6 36 7 66l3 39q50 -22 101 -25l-15 -35q-19 -46 -25 -63q-12 -39 -20 -57t-18 -16
q-22 3 -38 10z" />
    <glyph glyph-name="Lcaron" unicode="&#x13e;" horiz-adv-x="435" 
d="M59 183v333q0 55 -21 184h183q-21 -133 -21 -184v-293q0 -13 6 -71l3 -28q50 -3 98 -3q40 0 62.5 1t49.5 4l-20 -126h-361q21 143 21 183zM273 433q-6 2 -8.5 4t-2.5 6t6 24.5t10 46.5q6 36 7 66l3 39q50 -22 101 -25l-15 -35q-19 -46 -25 -63q-12 -39 -20 -57t-18 -16
q-22 3 -38 10z" />
    <glyph glyph-name="uni013B" unicode="&#x13b;" horiz-adv-x="435" 
d="M59 183v333q0 55 -21 184h183q-21 -133 -21 -184v-293q0 -13 6 -71l3 -28q50 -3 98 -3q40 0 62.5 1t49.5 4l-20 -126h-361q21 143 21 183zM162 -208l11 23q27 62 36 86l28 73l59 -13l-15 -82q-10 -48 -18 -117q-42 20 -101 30z" />
    <glyph glyph-name="uni013B" unicode="&#x13c;" horiz-adv-x="435" 
d="M59 183v333q0 55 -21 184h183q-21 -133 -21 -184v-293q0 -13 6 -71l3 -28q50 -3 98 -3q40 0 62.5 1t49.5 4l-20 -126h-361q21 143 21 183zM162 -208l11 23q27 62 36 86l28 73l59 -13l-15 -82q-10 -48 -18 -117q-42 20 -101 30z" />
    <glyph glyph-name="uni013B" unicode="&#x13c;" horiz-adv-x="435" 
d="M59 183v333q0 55 -21 184h183q-21 -133 -21 -184v-293q0 -13 6 -71l3 -28q50 -3 98 -3q40 0 62.5 1t49.5 4l-20 -126h-361q21 143 21 183zM162 -208l11 23q27 62 36 86l28 73l59 -13l-15 -82q-10 -48 -18 -117q-42 20 -101 30z" />
    <glyph glyph-name="Lslash" unicode="&#x141;" horiz-adv-x="510" 
d="M100 183v152l-50 -26v108l50 18v81q0 55 -21 184h183q-21 -133 -21 -184v-21q24 11 61 30l40 20v-108l-46 -17q-33 -13 -55 -22v-175q0 -13 6 -71l3 -28q50 -3 98 -3q40 0 62.5 1t49.5 4l-20 -126h-361q21 143 21 183z" />
    <glyph glyph-name="Lslash" unicode="&#x142;" horiz-adv-x="510" 
d="M100 183v152l-50 -26v108l50 18v81q0 55 -21 184h183q-21 -133 -21 -184v-21q24 11 61 30l40 20v-108l-46 -17q-33 -13 -55 -22v-175q0 -13 6 -71l3 -28q50 -3 98 -3q40 0 62.5 1t49.5 4l-20 -126h-361q21 143 21 183z" />
    <glyph glyph-name="Lslash" unicode="&#x142;" horiz-adv-x="510" 
d="M100 183v152l-50 -26v108l50 18v81q0 55 -21 184h183q-21 -133 -21 -184v-21q24 11 61 30l40 20v-108l-46 -17q-33 -13 -55 -22v-175q0 -13 6 -71l3 -28q50 -3 98 -3q40 0 62.5 1t49.5 4l-20 -126h-361q21 143 21 183z" />
    <glyph glyph-name="M" unicode="M" horiz-adv-x="586" 
d="M59 183v333q0 55 -21 184h183l75 -311l69 311h183q-21 -133 -21 -184v-333q0 -40 21 -183h-173q11 143 11 183v230l-93 -338l-93 338v-230q0 -40 11 -183h-173q21 143 21 183z" />
    <glyph glyph-name="M" unicode="m" horiz-adv-x="586" 
d="M59 183v333q0 55 -21 184h183l75 -311l69 311h183q-21 -133 -21 -184v-333q0 -40 21 -183h-173q11 143 11 183v230l-93 -338l-93 338v-230q0 -40 11 -183h-173q21 143 21 183z" />
    <glyph glyph-name="M" unicode="m" horiz-adv-x="586" 
d="M59 183v333q0 55 -21 184h183l75 -311l69 311h183q-21 -133 -21 -184v-333q0 -40 21 -183h-173q11 143 11 183v230l-93 -338l-93 338v-230q0 -40 11 -183h-173q21 143 21 183z" />
    <glyph glyph-name="N" unicode="N" horiz-adv-x="540" 
d="M59 183v333q0 55 -21 184h183l130 -451l-11 267q-2 55 -11 184h173q-21 -133 -21 -184v-333q0 -40 21 -183h-183l-119 433v-250q0 -40 11 -183h-173q21 143 21 183z" />
    <glyph glyph-name="N" unicode="n" horiz-adv-x="540" 
d="M59 183v333q0 55 -21 184h183l130 -451l-11 267q-2 55 -11 184h173q-21 -133 -21 -184v-333q0 -40 21 -183h-183l-119 433v-250q0 -40 11 -183h-173q21 143 21 183z" />
    <glyph glyph-name="N" unicode="n" horiz-adv-x="540" 
d="M59 183v333q0 55 -21 184h183l130 -451l-11 267q-2 55 -11 184h173q-21 -133 -21 -184v-333q0 -40 21 -183h-183l-119 433v-250q0 -40 11 -183h-173q21 143 21 183z" />
    <glyph glyph-name="Nacute" unicode="&#x143;" horiz-adv-x="540" 
d="M59 183v333q0 55 -21 184h183l130 -451l-11 267q-2 55 -11 184h173q-21 -133 -21 -184v-333q0 -40 21 -183h-183l-119 433v-250q0 -40 11 -183h-173q21 143 21 183zM182 799l43 71q16 24 35 64l14 28q39 -39 84 -63l-27 -26l-48 -49l-50 -59z" />
    <glyph glyph-name="Nacute" unicode="&#x144;" horiz-adv-x="540" 
d="M59 183v333q0 55 -21 184h183l130 -451l-11 267q-2 55 -11 184h173q-21 -133 -21 -184v-333q0 -40 21 -183h-183l-119 433v-250q0 -40 11 -183h-173q21 143 21 183zM182 799l43 71q16 24 35 64l14 28q39 -39 84 -63l-27 -26l-48 -49l-50 -59z" />
    <glyph glyph-name="Nacute" unicode="&#x144;" horiz-adv-x="540" 
d="M59 183v333q0 55 -21 184h183l130 -451l-11 267q-2 55 -11 184h173q-21 -133 -21 -184v-333q0 -40 21 -183h-183l-119 433v-250q0 -40 11 -183h-173q21 143 21 183zM182 799l43 71q16 24 35 64l14 28q39 -39 84 -63l-27 -26l-48 -49l-50 -59z" />
    <glyph glyph-name="Ncaron" unicode="&#x147;" horiz-adv-x="540" 
d="M59 183v333q0 55 -21 184h183l130 -451l-11 267q-2 55 -11 184h173q-21 -133 -21 -184v-333q0 -40 21 -183h-183l-119 433v-250q0 -40 11 -183h-173q21 143 21 183zM216 805q-9 12 -33 40q-16 19 -27.5 30t-26.5 23l-18 16l67 51q35 -49 59 -77q25 -27 33 -34l33 34
q18 22 45 59l13 18l67 -51l-18 -16q-15 -12 -26.5 -23t-27.5 -30q-24 -28 -33 -40t-24 -37h-59q-15 25 -24 37z" />
    <glyph glyph-name="Ncaron" unicode="&#x148;" horiz-adv-x="540" 
d="M59 183v333q0 55 -21 184h183l130 -451l-11 267q-2 55 -11 184h173q-21 -133 -21 -184v-333q0 -40 21 -183h-183l-119 433v-250q0 -40 11 -183h-173q21 143 21 183zM216 805q-9 12 -33 40q-16 19 -27.5 30t-26.5 23l-18 16l67 51q35 -49 59 -77q25 -27 33 -34l33 34
q18 22 45 59l13 18l67 -51l-18 -16q-15 -12 -26.5 -23t-27.5 -30q-24 -28 -33 -40t-24 -37h-59q-15 25 -24 37z" />
    <glyph glyph-name="Ncaron" unicode="&#x148;" horiz-adv-x="540" 
d="M59 183v333q0 55 -21 184h183l130 -451l-11 267q-2 55 -11 184h173q-21 -133 -21 -184v-333q0 -40 21 -183h-183l-119 433v-250q0 -40 11 -183h-173q21 143 21 183zM216 805q-9 12 -33 40q-16 19 -27.5 30t-26.5 23l-18 16l67 51q35 -49 59 -77q25 -27 33 -34l33 34
q18 22 45 59l13 18l67 -51l-18 -16q-15 -12 -26.5 -23t-27.5 -30q-24 -28 -33 -40t-24 -37h-59q-15 25 -24 37z" />
    <glyph glyph-name="uni0145" unicode="&#x145;" horiz-adv-x="540" 
d="M59 183v333q0 55 -21 184h183l130 -451l-11 267q-2 55 -11 184h173q-21 -133 -21 -184v-333q0 -40 21 -183h-183l-119 433v-250q0 -40 11 -183h-173q21 143 21 183zM203 -208l11 23q27 62 36 86l28 73l59 -13l-15 -82q-10 -48 -18 -117q-42 20 -101 30z" />
    <glyph glyph-name="uni0145" unicode="&#x146;" horiz-adv-x="540" 
d="M59 183v333q0 55 -21 184h183l130 -451l-11 267q-2 55 -11 184h173q-21 -133 -21 -184v-333q0 -40 21 -183h-183l-119 433v-250q0 -40 11 -183h-173q21 143 21 183zM203 -208l11 23q27 62 36 86l28 73l59 -13l-15 -82q-10 -48 -18 -117q-42 20 -101 30z" />
    <glyph glyph-name="uni0145" unicode="&#x146;" horiz-adv-x="540" 
d="M59 183v333q0 55 -21 184h183l130 -451l-11 267q-2 55 -11 184h173q-21 -133 -21 -184v-333q0 -40 21 -183h-183l-119 433v-250q0 -40 11 -183h-173q21 143 21 183zM203 -208l11 23q27 62 36 86l28 73l59 -13l-15 -82q-10 -48 -18 -117q-42 20 -101 30z" />
    <glyph glyph-name="Ntilde" unicode="&#xd1;" horiz-adv-x="540" 
d="M59 183v333q0 55 -21 184h183l130 -451l-11 267q-2 55 -11 184h173q-21 -133 -21 -184v-333q0 -40 21 -183h-183l-119 433v-250q0 -40 11 -183h-173q21 143 21 183zM280.5 768.5q-15.5 14.5 -31.5 42.5q-9 18 -17.5 27.5t-21.5 9.5q-23 0 -31.5 -16.5t-8.5 -52.5v-17h-54
v47q0 39 20 73t64 34q35 0 52 -15.5t29 -42.5q10 -20 17.5 -28.5t22.5 -8.5q31 0 40 17.5t9 51.5v18h54v-48q0 -38 -24 -72t-74 -34q-30 0 -45.5 14.5z" />
    <glyph glyph-name="Ntilde" unicode="&#xf1;" horiz-adv-x="540" 
d="M59 183v333q0 55 -21 184h183l130 -451l-11 267q-2 55 -11 184h173q-21 -133 -21 -184v-333q0 -40 21 -183h-183l-119 433v-250q0 -40 11 -183h-173q21 143 21 183zM280.5 768.5q-15.5 14.5 -31.5 42.5q-9 18 -17.5 27.5t-21.5 9.5q-23 0 -31.5 -16.5t-8.5 -52.5v-17h-54
v47q0 39 20 73t64 34q35 0 52 -15.5t29 -42.5q10 -20 17.5 -28.5t22.5 -8.5q31 0 40 17.5t9 51.5v18h54v-48q0 -38 -24 -72t-74 -34q-30 0 -45.5 14.5z" />
    <glyph glyph-name="Ntilde" unicode="&#xf1;" horiz-adv-x="540" 
d="M59 183v333q0 55 -21 184h183l130 -451l-11 267q-2 55 -11 184h173q-21 -133 -21 -184v-333q0 -40 21 -183h-183l-119 433v-250q0 -40 11 -183h-173q21 143 21 183zM280.5 768.5q-15.5 14.5 -31.5 42.5q-9 18 -17.5 27.5t-21.5 9.5q-23 0 -31.5 -16.5t-8.5 -52.5v-17h-54
v47q0 39 20 73t64 34q35 0 52 -15.5t29 -42.5q10 -20 17.5 -28.5t22.5 -8.5q31 0 40 17.5t9 51.5v18h54v-48q0 -38 -24 -72t-74 -34q-30 0 -45.5 14.5z" />
    <glyph glyph-name="O" unicode="O" horiz-adv-x="518" 
d="M112 43.5q-55 57.5 -67 168.5q-7 63 -7 136q0 74 7 136q12 110 67.5 170.5t146.5 60.5t146.5 -60.5t67.5 -170.5q8 -70 8 -136q0 -64 -8 -136q-12 -111 -67 -168.5t-147 -57.5t-147 57.5zM200.5 130q19.5 -27 58.5 -27t58.5 27t19.5 84l-1 273q0 112 -77 112t-77 -112
l-1 -273q0 -57 19.5 -84z" />
    <glyph glyph-name="O" unicode="o" horiz-adv-x="518" 
d="M112 43.5q-55 57.5 -67 168.5q-7 63 -7 136q0 74 7 136q12 110 67.5 170.5t146.5 60.5t146.5 -60.5t67.5 -170.5q8 -70 8 -136q0 -64 -8 -136q-12 -111 -67 -168.5t-147 -57.5t-147 57.5zM200.5 130q19.5 -27 58.5 -27t58.5 27t19.5 84l-1 273q0 112 -77 112t-77 -112
l-1 -273q0 -57 19.5 -84z" />
    <glyph glyph-name="O" unicode="o" horiz-adv-x="518" 
d="M112 43.5q-55 57.5 -67 168.5q-7 63 -7 136q0 74 7 136q12 110 67.5 170.5t146.5 60.5t146.5 -60.5t67.5 -170.5q8 -70 8 -136q0 -64 -8 -136q-12 -111 -67 -168.5t-147 -57.5t-147 57.5zM200.5 130q19.5 -27 58.5 -27t58.5 27t19.5 84l-1 273q0 112 -77 112t-77 -112
l-1 -273q0 -57 19.5 -84z" />
    <glyph glyph-name="Oacute" unicode="&#xd3;" horiz-adv-x="518" 
d="M112 43.5q-55 57.5 -67 168.5q-7 63 -7 136q0 74 7 136q12 110 67.5 170.5t146.5 60.5t146.5 -60.5t67.5 -170.5q8 -70 8 -136q0 -64 -8 -136q-12 -111 -67 -168.5t-147 -57.5t-147 57.5zM200.5 130q19.5 -27 58.5 -27t58.5 27t19.5 84l-1 273q0 112 -77 112t-77 -112
l-1 -273q0 -57 19.5 -84zM171 799l43 71q16 24 35 64l14 28q39 -39 84 -63l-27 -26l-48 -49l-50 -59z" />
    <glyph glyph-name="Oacute" unicode="&#xf3;" horiz-adv-x="518" 
d="M112 43.5q-55 57.5 -67 168.5q-7 63 -7 136q0 74 7 136q12 110 67.5 170.5t146.5 60.5t146.5 -60.5t67.5 -170.5q8 -70 8 -136q0 -64 -8 -136q-12 -111 -67 -168.5t-147 -57.5t-147 57.5zM200.5 130q19.5 -27 58.5 -27t58.5 27t19.5 84l-1 273q0 112 -77 112t-77 -112
l-1 -273q0 -57 19.5 -84zM171 799l43 71q16 24 35 64l14 28q39 -39 84 -63l-27 -26l-48 -49l-50 -59z" />
    <glyph glyph-name="Oacute" unicode="&#xf3;" horiz-adv-x="518" 
d="M112 43.5q-55 57.5 -67 168.5q-7 63 -7 136q0 74 7 136q12 110 67.5 170.5t146.5 60.5t146.5 -60.5t67.5 -170.5q8 -70 8 -136q0 -64 -8 -136q-12 -111 -67 -168.5t-147 -57.5t-147 57.5zM200.5 130q19.5 -27 58.5 -27t58.5 27t19.5 84l-1 273q0 112 -77 112t-77 -112
l-1 -273q0 -57 19.5 -84zM171 799l43 71q16 24 35 64l14 28q39 -39 84 -63l-27 -26l-48 -49l-50 -59z" />
    <glyph glyph-name="Ocircumflex" unicode="&#xd4;" horiz-adv-x="518" 
d="M112 43.5q-55 57.5 -67 168.5q-7 63 -7 136q0 74 7 136q12 110 67.5 170.5t146.5 60.5t146.5 -60.5t67.5 -170.5q8 -70 8 -136q0 -64 -8 -136q-12 -111 -67 -168.5t-147 -57.5t-147 57.5zM200.5 130q19.5 -27 58.5 -27t58.5 27t19.5 84l-1 273q0 112 -77 112t-77 -112
l-1 -273q0 -57 19.5 -84zM155.5 865q12.5 13 27.5 30q16 18 27 32.5t23 34.5h51q12 -20 23 -34.5t27 -32.5q15 -17 27.5 -30t32.5 -30l-60 -51q-28 39 -37 50l-14 18l-22 31l-25 -31q-8 -11 -22 -27q-16 -19 -31 -41l-60 51q20 17 32.5 30z" />
    <glyph glyph-name="Ocircumflex" unicode="&#xf4;" horiz-adv-x="518" 
d="M112 43.5q-55 57.5 -67 168.5q-7 63 -7 136q0 74 7 136q12 110 67.5 170.5t146.5 60.5t146.5 -60.5t67.5 -170.5q8 -70 8 -136q0 -64 -8 -136q-12 -111 -67 -168.5t-147 -57.5t-147 57.5zM200.5 130q19.5 -27 58.5 -27t58.5 27t19.5 84l-1 273q0 112 -77 112t-77 -112
l-1 -273q0 -57 19.5 -84zM155.5 865q12.5 13 27.5 30q16 18 27 32.5t23 34.5h51q12 -20 23 -34.5t27 -32.5q15 -17 27.5 -30t32.5 -30l-60 -51q-28 39 -37 50l-14 18l-22 31l-25 -31q-8 -11 -22 -27q-16 -19 -31 -41l-60 51q20 17 32.5 30z" />
    <glyph glyph-name="Ocircumflex" unicode="&#xf4;" horiz-adv-x="518" 
d="M112 43.5q-55 57.5 -67 168.5q-7 63 -7 136q0 74 7 136q12 110 67.5 170.5t146.5 60.5t146.5 -60.5t67.5 -170.5q8 -70 8 -136q0 -64 -8 -136q-12 -111 -67 -168.5t-147 -57.5t-147 57.5zM200.5 130q19.5 -27 58.5 -27t58.5 27t19.5 84l-1 273q0 112 -77 112t-77 -112
l-1 -273q0 -57 19.5 -84zM155.5 865q12.5 13 27.5 30q16 18 27 32.5t23 34.5h51q12 -20 23 -34.5t27 -32.5q15 -17 27.5 -30t32.5 -30l-60 -51q-28 39 -37 50l-14 18l-22 31l-25 -31q-8 -11 -22 -27q-16 -19 -31 -41l-60 51q20 17 32.5 30z" />
    <glyph glyph-name="Odieresis" unicode="&#xd6;" horiz-adv-x="518" 
d="M112 43.5q-55 57.5 -67 168.5q-7 63 -7 136q0 74 7 136q12 110 67.5 170.5t146.5 60.5t146.5 -60.5t67.5 -170.5q8 -70 8 -136q0 -64 -8 -136q-12 -111 -67 -168.5t-147 -57.5t-147 57.5zM200.5 130q19.5 -27 58.5 -27t58.5 27t19.5 84l-1 273q0 112 -77 112t-77 -112
l-1 -273q0 -57 19.5 -84zM301.5 809.5q-19.5 19.5 -19.5 54.5q0 36 19.5 54.5t54.5 18.5t54.5 -19t19.5 -54t-20 -54.5t-54 -19.5q-35 0 -54.5 19.5zM108 918q20 19 55 19t54 -19t19 -54q0 -36 -19.5 -55t-53.5 -19q-36 0 -55.5 19.5t-19.5 54.5t20 54z" />
    <glyph glyph-name="Odieresis" unicode="&#xf6;" horiz-adv-x="518" 
d="M112 43.5q-55 57.5 -67 168.5q-7 63 -7 136q0 74 7 136q12 110 67.5 170.5t146.5 60.5t146.5 -60.5t67.5 -170.5q8 -70 8 -136q0 -64 -8 -136q-12 -111 -67 -168.5t-147 -57.5t-147 57.5zM200.5 130q19.5 -27 58.5 -27t58.5 27t19.5 84l-1 273q0 112 -77 112t-77 -112
l-1 -273q0 -57 19.5 -84zM301.5 809.5q-19.5 19.5 -19.5 54.5q0 36 19.5 54.5t54.5 18.5t54.5 -19t19.5 -54t-20 -54.5t-54 -19.5q-35 0 -54.5 19.5zM108 918q20 19 55 19t54 -19t19 -54q0 -36 -19.5 -55t-53.5 -19q-36 0 -55.5 19.5t-19.5 54.5t20 54z" />
    <glyph glyph-name="Odieresis" unicode="&#xf6;" horiz-adv-x="518" 
d="M112 43.5q-55 57.5 -67 168.5q-7 63 -7 136q0 74 7 136q12 110 67.5 170.5t146.5 60.5t146.5 -60.5t67.5 -170.5q8 -70 8 -136q0 -64 -8 -136q-12 -111 -67 -168.5t-147 -57.5t-147 57.5zM200.5 130q19.5 -27 58.5 -27t58.5 27t19.5 84l-1 273q0 112 -77 112t-77 -112
l-1 -273q0 -57 19.5 -84zM301.5 809.5q-19.5 19.5 -19.5 54.5q0 36 19.5 54.5t54.5 18.5t54.5 -19t19.5 -54t-20 -54.5t-54 -19.5q-35 0 -54.5 19.5zM108 918q20 19 55 19t54 -19t19 -54q0 -36 -19.5 -55t-53.5 -19q-36 0 -55.5 19.5t-19.5 54.5t20 54z" />
    <glyph glyph-name="Ograve" unicode="&#xd2;" horiz-adv-x="518" 
d="M112 43.5q-55 57.5 -67 168.5q-7 63 -7 136q0 74 7 136q12 110 67.5 170.5t146.5 60.5t146.5 -60.5t67.5 -170.5q8 -70 8 -136q0 -64 -8 -136q-12 -111 -67 -168.5t-147 -57.5t-147 57.5zM200.5 130q19.5 -27 58.5 -27t58.5 27t19.5 84l-1 273q0 112 -77 112t-77 -112
l-1 -273q0 -57 19.5 -84zM259 777q-18 30 -37 57q-19 24 -31 37.5t-30 31.5l84 63q13 -26 21.5 -39t27.5 -38q17 -23 29.5 -36.5t32.5 -34.5l-84 -62z" />
    <glyph glyph-name="Ograve" unicode="&#xf2;" horiz-adv-x="518" 
d="M112 43.5q-55 57.5 -67 168.5q-7 63 -7 136q0 74 7 136q12 110 67.5 170.5t146.5 60.5t146.5 -60.5t67.5 -170.5q8 -70 8 -136q0 -64 -8 -136q-12 -111 -67 -168.5t-147 -57.5t-147 57.5zM200.5 130q19.5 -27 58.5 -27t58.5 27t19.5 84l-1 273q0 112 -77 112t-77 -112
l-1 -273q0 -57 19.5 -84zM259 777q-18 30 -37 57q-19 24 -31 37.5t-30 31.5l84 63q13 -26 21.5 -39t27.5 -38q17 -23 29.5 -36.5t32.5 -34.5l-84 -62z" />
    <glyph glyph-name="Ograve" unicode="&#xf2;" horiz-adv-x="518" 
d="M112 43.5q-55 57.5 -67 168.5q-7 63 -7 136q0 74 7 136q12 110 67.5 170.5t146.5 60.5t146.5 -60.5t67.5 -170.5q8 -70 8 -136q0 -64 -8 -136q-12 -111 -67 -168.5t-147 -57.5t-147 57.5zM200.5 130q19.5 -27 58.5 -27t58.5 27t19.5 84l-1 273q0 112 -77 112t-77 -112
l-1 -273q0 -57 19.5 -84zM259 777q-18 30 -37 57q-19 24 -31 37.5t-30 31.5l84 63q13 -26 21.5 -39t27.5 -38q17 -23 29.5 -36.5t32.5 -34.5l-84 -62z" />
    <glyph glyph-name="Ohungarumlaut" unicode="&#x150;" horiz-adv-x="518" 
d="M112 43.5q-55 57.5 -67 168.5q-7 63 -7 136q0 74 7 136q12 110 67.5 170.5t146.5 60.5t146.5 -60.5t67.5 -170.5q8 -70 8 -136q0 -64 -8 -136q-12 -111 -67 -168.5t-147 -57.5t-147 57.5zM200.5 130q19.5 -27 58.5 -27t58.5 27t19.5 84l-1 273q0 112 -77 112t-77 -112
l-1 -273q0 -57 19.5 -84zM245 794l43 71q20 32 30 55q12 24 20 38q32 -36 76 -59l-19 -18q-28 -26 -56 -57l-51 -59zM147 870q14 21 31 57q5 10 18 35q19 -19 36 -32.5t40 -25.5q-12 -13 -30 -29q-22 -20 -45 -46l-50 -60l-44 30z" />
    <glyph glyph-name="Ohungarumlaut" unicode="&#x151;" horiz-adv-x="518" 
d="M112 43.5q-55 57.5 -67 168.5q-7 63 -7 136q0 74 7 136q12 110 67.5 170.5t146.5 60.5t146.5 -60.5t67.5 -170.5q8 -70 8 -136q0 -64 -8 -136q-12 -111 -67 -168.5t-147 -57.5t-147 57.5zM200.5 130q19.5 -27 58.5 -27t58.5 27t19.5 84l-1 273q0 112 -77 112t-77 -112
l-1 -273q0 -57 19.5 -84zM245 794l43 71q20 32 30 55q12 24 20 38q32 -36 76 -59l-19 -18q-28 -26 -56 -57l-51 -59zM147 870q14 21 31 57q5 10 18 35q19 -19 36 -32.5t40 -25.5q-12 -13 -30 -29q-22 -20 -45 -46l-50 -60l-44 30z" />
    <glyph glyph-name="Ohungarumlaut" unicode="&#x151;" horiz-adv-x="518" 
d="M112 43.5q-55 57.5 -67 168.5q-7 63 -7 136q0 74 7 136q12 110 67.5 170.5t146.5 60.5t146.5 -60.5t67.5 -170.5q8 -70 8 -136q0 -64 -8 -136q-12 -111 -67 -168.5t-147 -57.5t-147 57.5zM200.5 130q19.5 -27 58.5 -27t58.5 27t19.5 84l-1 273q0 112 -77 112t-77 -112
l-1 -273q0 -57 19.5 -84zM245 794l43 71q20 32 30 55q12 24 20 38q32 -36 76 -59l-19 -18q-28 -26 -56 -57l-51 -59zM147 870q14 21 31 57q5 10 18 35q19 -19 36 -32.5t40 -25.5q-12 -13 -30 -29q-22 -20 -45 -46l-50 -60l-44 30z" />
    <glyph glyph-name="Omacron" unicode="&#x14c;" horiz-adv-x="518" 
d="M112 43.5q-55 57.5 -67 168.5q-7 63 -7 136q0 74 7 136q12 110 67.5 170.5t146.5 60.5t146.5 -60.5t67.5 -170.5q8 -70 8 -136q0 -64 -8 -136q-12 -111 -67 -168.5t-147 -57.5t-147 57.5zM200.5 130q19.5 -27 58.5 -27t58.5 27t19.5 84l-1 273q0 112 -77 112t-77 -112
l-1 -273q0 -57 19.5 -84zM165 904q44 -3 92 -3q36 0 63.5 1t70.5 5v-98l-48 3q-39 3 -86 3q-48 0 -90 -3l-41 -3v98z" />
    <glyph glyph-name="Omacron" unicode="&#x14d;" horiz-adv-x="518" 
d="M112 43.5q-55 57.5 -67 168.5q-7 63 -7 136q0 74 7 136q12 110 67.5 170.5t146.5 60.5t146.5 -60.5t67.5 -170.5q8 -70 8 -136q0 -64 -8 -136q-12 -111 -67 -168.5t-147 -57.5t-147 57.5zM200.5 130q19.5 -27 58.5 -27t58.5 27t19.5 84l-1 273q0 112 -77 112t-77 -112
l-1 -273q0 -57 19.5 -84zM165 904q44 -3 92 -3q36 0 63.5 1t70.5 5v-98l-48 3q-39 3 -86 3q-48 0 -90 -3l-41 -3v98z" />
    <glyph glyph-name="Omacron" unicode="&#x14d;" horiz-adv-x="518" 
d="M112 43.5q-55 57.5 -67 168.5q-7 63 -7 136q0 74 7 136q12 110 67.5 170.5t146.5 60.5t146.5 -60.5t67.5 -170.5q8 -70 8 -136q0 -64 -8 -136q-12 -111 -67 -168.5t-147 -57.5t-147 57.5zM200.5 130q19.5 -27 58.5 -27t58.5 27t19.5 84l-1 273q0 112 -77 112t-77 -112
l-1 -273q0 -57 19.5 -84zM165 904q44 -3 92 -3q36 0 63.5 1t70.5 5v-98l-48 3q-39 3 -86 3q-48 0 -90 -3l-41 -3v98z" />
    <glyph glyph-name="Oslash" unicode="&#xd8;" horiz-adv-x="582" 
d="M50 105l38 51q-7 23 -10 56q-7 63 -7 136q0 74 7 136q12 110 67.5 170.5t146.5 60.5q100 0 157 -73l35 46l48 -55l-46 -60q14 -37 20 -89q8 -70 8 -136q0 -64 -8 -136q-12 -111 -67 -168.5t-147 -57.5q-119 0 -175 96l-24 -32zM234 129q19 -26 58 -26t58.5 27t19.5 84
l-1 203l-155 -206q1 -56 20 -82zM366 529q-13 70 -74 70q-77 0 -77 -112l-1 -161z" />
    <glyph glyph-name="Oslash" unicode="&#xf8;" horiz-adv-x="582" 
d="M50 105l38 51q-7 23 -10 56q-7 63 -7 136q0 74 7 136q12 110 67.5 170.5t146.5 60.5q100 0 157 -73l35 46l48 -55l-46 -60q14 -37 20 -89q8 -70 8 -136q0 -64 -8 -136q-12 -111 -67 -168.5t-147 -57.5q-119 0 -175 96l-24 -32zM234 129q19 -26 58 -26t58.5 27t19.5 84
l-1 203l-155 -206q1 -56 20 -82zM366 529q-13 70 -74 70q-77 0 -77 -112l-1 -161z" />
    <glyph glyph-name="Oslash" unicode="&#xf8;" horiz-adv-x="582" 
d="M50 105l38 51q-7 23 -10 56q-7 63 -7 136q0 74 7 136q12 110 67.5 170.5t146.5 60.5q100 0 157 -73l35 46l48 -55l-46 -60q14 -37 20 -89q8 -70 8 -136q0 -64 -8 -136q-12 -111 -67 -168.5t-147 -57.5q-119 0 -175 96l-24 -32zM234 129q19 -26 58 -26t58.5 27t19.5 84
l-1 203l-155 -206q1 -56 20 -82zM366 529q-13 70 -74 70q-77 0 -77 -112l-1 -161z" />
    <glyph glyph-name="Otilde" unicode="&#xd5;" horiz-adv-x="518" 
d="M112 43.5q-55 57.5 -67 168.5q-7 63 -7 136q0 74 7 136q12 110 67.5 170.5t146.5 60.5t146.5 -60.5t67.5 -170.5q8 -70 8 -136q0 -64 -8 -136q-12 -111 -67 -168.5t-147 -57.5t-147 57.5zM200.5 130q19.5 -27 58.5 -27t58.5 27t19.5 84l-1 273q0 112 -77 112t-77 -112
l-1 -273q0 -57 19.5 -84zM269.5 768.5q-15.5 14.5 -31.5 42.5q-9 18 -17.5 27.5t-21.5 9.5q-23 0 -31.5 -16.5t-8.5 -52.5v-17h-54v47q0 39 20 73t64 34q35 0 52 -15.5t29 -42.5q10 -20 17.5 -28.5t22.5 -8.5q31 0 40 17.5t9 51.5v18h54v-48q0 -38 -24 -72t-74 -34
q-30 0 -45.5 14.5z" />
    <glyph glyph-name="Otilde" unicode="&#xf5;" horiz-adv-x="518" 
d="M112 43.5q-55 57.5 -67 168.5q-7 63 -7 136q0 74 7 136q12 110 67.5 170.5t146.5 60.5t146.5 -60.5t67.5 -170.5q8 -70 8 -136q0 -64 -8 -136q-12 -111 -67 -168.5t-147 -57.5t-147 57.5zM200.5 130q19.5 -27 58.5 -27t58.5 27t19.5 84l-1 273q0 112 -77 112t-77 -112
l-1 -273q0 -57 19.5 -84zM269.5 768.5q-15.5 14.5 -31.5 42.5q-9 18 -17.5 27.5t-21.5 9.5q-23 0 -31.5 -16.5t-8.5 -52.5v-17h-54v47q0 39 20 73t64 34q35 0 52 -15.5t29 -42.5q10 -20 17.5 -28.5t22.5 -8.5q31 0 40 17.5t9 51.5v18h54v-48q0 -38 -24 -72t-74 -34
q-30 0 -45.5 14.5z" />
    <glyph glyph-name="Otilde" unicode="&#xf5;" horiz-adv-x="518" 
d="M112 43.5q-55 57.5 -67 168.5q-7 63 -7 136q0 74 7 136q12 110 67.5 170.5t146.5 60.5t146.5 -60.5t67.5 -170.5q8 -70 8 -136q0 -64 -8 -136q-12 -111 -67 -168.5t-147 -57.5t-147 57.5zM200.5 130q19.5 -27 58.5 -27t58.5 27t19.5 84l-1 273q0 112 -77 112t-77 -112
l-1 -273q0 -57 19.5 -84zM269.5 768.5q-15.5 14.5 -31.5 42.5q-9 18 -17.5 27.5t-21.5 9.5q-23 0 -31.5 -16.5t-8.5 -52.5v-17h-54v47q0 39 20 73t64 34q35 0 52 -15.5t29 -42.5q10 -20 17.5 -28.5t22.5 -8.5q31 0 40 17.5t9 51.5v18h54v-48q0 -38 -24 -72t-74 -34
q-30 0 -45.5 14.5z" />
    <glyph glyph-name="OE" unicode="&#x152;" horiz-adv-x="829" 
d="M448 109q-26 -61 -74 -92t-115 -31q-92 0 -147 57.5t-67 168.5q-7 63 -7 136q0 74 7 136q12 110 67.5 170.5t146.5 60.5q66 0 114.5 -33t74.5 -95v113h312l-20 -126q-22 3 -39 4t-39 1q-27 0 -46.5 -2t-26.5 -3v-119q33 -3 62 -3q20 0 36.5 1t40.5 4v-126q-22 3 -38.5 4
t-38.5 1q-27 0 -62 -3v-208q39 -4 82 -4q54 0 108 6l-20 -127h-311v109zM200.5 130q19.5 -27 58.5 -27t58.5 27t19.5 84l-1 273q0 112 -77 112t-77 -112l-1 -273q0 -57 19.5 -84z" />
    <glyph glyph-name="OE" unicode="&#x153;" horiz-adv-x="829" 
d="M448 109q-26 -61 -74 -92t-115 -31q-92 0 -147 57.5t-67 168.5q-7 63 -7 136q0 74 7 136q12 110 67.5 170.5t146.5 60.5q66 0 114.5 -33t74.5 -95v113h312l-20 -126q-22 3 -39 4t-39 1q-27 0 -46.5 -2t-26.5 -3v-119q33 -3 62 -3q20 0 36.5 1t40.5 4v-126q-22 3 -38.5 4
t-38.5 1q-27 0 -62 -3v-208q39 -4 82 -4q54 0 108 6l-20 -127h-311v109zM200.5 130q19.5 -27 58.5 -27t58.5 27t19.5 84l-1 273q0 112 -77 112t-77 -112l-1 -273q0 -57 19.5 -84z" />
    <glyph glyph-name="OE" unicode="&#x153;" horiz-adv-x="829" 
d="M448 109q-26 -61 -74 -92t-115 -31q-92 0 -147 57.5t-67 168.5q-7 63 -7 136q0 74 7 136q12 110 67.5 170.5t146.5 60.5q66 0 114.5 -33t74.5 -95v113h312l-20 -126q-22 3 -39 4t-39 1q-27 0 -46.5 -2t-26.5 -3v-119q33 -3 62 -3q20 0 36.5 1t40.5 4v-126q-22 3 -38.5 4
t-38.5 1q-27 0 -62 -3v-208q39 -4 82 -4q54 0 108 6l-20 -127h-311v109zM200.5 130q19.5 -27 58.5 -27t58.5 27t19.5 84l-1 273q0 112 -77 112t-77 -112l-1 -273q0 -57 19.5 -84z" />
    <glyph glyph-name="P" unicode="P" horiz-adv-x="491" 
d="M59 183v333q0 55 -21 184h163q62 0 116 -8.5t100 -45t46 -111.5v-114q0 -75 -44.5 -111.5t-99.5 -45.5t-119 -9v-72q0 -40 21 -183h-183q21 143 21 183zM201 370q49 0 75 9.5t36 28.5t10 53v34q0 34 -10 53.5t-36 28.5t-75 9h-1v-216h1z" />
    <glyph glyph-name="P" unicode="p" horiz-adv-x="491" 
d="M59 183v333q0 55 -21 184h163q62 0 116 -8.5t100 -45t46 -111.5v-114q0 -75 -44.5 -111.5t-99.5 -45.5t-119 -9v-72q0 -40 21 -183h-183q21 143 21 183zM201 370q49 0 75 9.5t36 28.5t10 53v34q0 34 -10 53.5t-36 28.5t-75 9h-1v-216h1z" />
    <glyph glyph-name="P" unicode="p" horiz-adv-x="491" 
d="M59 183v333q0 55 -21 184h163q62 0 116 -8.5t100 -45t46 -111.5v-114q0 -75 -44.5 -111.5t-99.5 -45.5t-119 -9v-72q0 -40 21 -183h-183q21 143 21 183zM201 370q49 0 75 9.5t36 28.5t10 53v34q0 34 -10 53.5t-36 28.5t-75 9h-1v-216h1z" />
    <glyph glyph-name="Thorn" unicode="&#xde;" horiz-adv-x="519" 
d="M59 183v333q0 55 -21 184h183q-10 -62 -16 -114h29q99 0 178 -30t79 -135v-114q0 -99 -81 -132t-178 -33h-29q5 -55 18 -142h-183q21 143 21 183zM232 266q47 0 72.5 9.5t35.5 29t10 52.5v24q0 34 -10 53t-35 28.5t-73 9.5h-32v-206h32z" />
    <glyph glyph-name="Thorn" unicode="&#xfe;" horiz-adv-x="519" 
d="M59 183v333q0 55 -21 184h183q-10 -62 -16 -114h29q99 0 178 -30t79 -135v-114q0 -99 -81 -132t-178 -33h-29q5 -55 18 -142h-183q21 143 21 183zM232 266q47 0 72.5 9.5t35.5 29t10 52.5v24q0 34 -10 53t-35 28.5t-73 9.5h-32v-206h32z" />
    <glyph glyph-name="Thorn" unicode="&#xfe;" horiz-adv-x="519" 
d="M59 183v333q0 55 -21 184h183q-10 -62 -16 -114h29q99 0 178 -30t79 -135v-114q0 -99 -81 -132t-178 -33h-29q5 -55 18 -142h-183q21 143 21 183zM232 266q47 0 72.5 9.5t35.5 29t10 52.5v24q0 34 -10 53t-35 28.5t-73 9.5h-32v-206h32z" />
    <glyph glyph-name="Q" unicode="Q" horiz-adv-x="518" 
d="M112 43.5q-55 57.5 -67 168.5q-7 63 -7 136q0 74 7 136q12 110 67.5 170.5t146.5 60.5t146.5 -60.5t67.5 -170.5q8 -70 8 -136q0 -64 -8 -136q-15 -140 -99 -195l2 -2q12 -16 23 -29t28 -30l-89 -71q-23 37 -42 65q-14 19 -29 36h-8q-92 0 -147 57.5zM200.5 130
q19.5 -27 58.5 -27t58.5 27t19.5 84l-1 273q0 112 -77 112t-77 -112l-1 -273q0 -57 19.5 -84z" />
    <glyph glyph-name="Q" unicode="q" horiz-adv-x="518" 
d="M112 43.5q-55 57.5 -67 168.5q-7 63 -7 136q0 74 7 136q12 110 67.5 170.5t146.5 60.5t146.5 -60.5t67.5 -170.5q8 -70 8 -136q0 -64 -8 -136q-15 -140 -99 -195l2 -2q12 -16 23 -29t28 -30l-89 -71q-23 37 -42 65q-14 19 -29 36h-8q-92 0 -147 57.5zM200.5 130
q19.5 -27 58.5 -27t58.5 27t19.5 84l-1 273q0 112 -77 112t-77 -112l-1 -273q0 -57 19.5 -84z" />
    <glyph glyph-name="Q" unicode="q" horiz-adv-x="518" 
d="M112 43.5q-55 57.5 -67 168.5q-7 63 -7 136q0 74 7 136q12 110 67.5 170.5t146.5 60.5t146.5 -60.5t67.5 -170.5q8 -70 8 -136q0 -64 -8 -136q-15 -140 -99 -195l2 -2q12 -16 23 -29t28 -30l-89 -71q-23 37 -42 65q-14 19 -29 36h-8q-92 0 -147 57.5zM200.5 130
q19.5 -27 58.5 -27t58.5 27t19.5 84l-1 273q0 112 -77 112t-77 -112l-1 -273q0 -57 19.5 -84z" />
    <glyph glyph-name="R" unicode="R" horiz-adv-x="514" 
d="M286.5 217q-20.5 38 -61.5 38h-25v-72q0 -40 11 -183h-173q21 143 21 183v333q0 55 -21 184h162l84 -1q91 -1 142 -48.5t51 -125.5v-104q0 -114 -88 -149q29 -33 42 -59.5t26 -75.5q14 -53 27 -137h-160l-12 127q-5 52 -25.5 90zM284 379q29 9 39.5 28.5t10.5 53.5v34
q0 34 -10.5 53.5t-39.5 28t-84 8.5v-215q55 0 84 9z" />
    <glyph glyph-name="R" unicode="r" horiz-adv-x="514" 
d="M286.5 217q-20.5 38 -61.5 38h-25v-72q0 -40 11 -183h-173q21 143 21 183v333q0 55 -21 184h162l84 -1q91 -1 142 -48.5t51 -125.5v-104q0 -114 -88 -149q29 -33 42 -59.5t26 -75.5q14 -53 27 -137h-160l-12 127q-5 52 -25.5 90zM284 379q29 9 39.5 28.5t10.5 53.5v34
q0 34 -10.5 53.5t-39.5 28t-84 8.5v-215q55 0 84 9z" />
    <glyph glyph-name="R" unicode="r" horiz-adv-x="514" 
d="M286.5 217q-20.5 38 -61.5 38h-25v-72q0 -40 11 -183h-173q21 143 21 183v333q0 55 -21 184h162l84 -1q91 -1 142 -48.5t51 -125.5v-104q0 -114 -88 -149q29 -33 42 -59.5t26 -75.5q14 -53 27 -137h-160l-12 127q-5 52 -25.5 90zM284 379q29 9 39.5 28.5t10.5 53.5v34
q0 34 -10.5 53.5t-39.5 28t-84 8.5v-215q55 0 84 9z" />
    <glyph glyph-name="Racute" unicode="&#x154;" horiz-adv-x="514" 
d="M286.5 217q-20.5 38 -61.5 38h-25v-72q0 -40 11 -183h-173q21 143 21 183v333q0 55 -21 184h162l84 -1q91 -1 142 -48.5t51 -125.5v-104q0 -114 -88 -149q29 -33 42 -59.5t26 -75.5q14 -53 27 -137h-160l-12 127q-5 52 -25.5 90zM284 379q29 9 39.5 28.5t10.5 53.5v34
q0 34 -10.5 53.5t-39.5 28t-84 8.5v-215q55 0 84 9zM173 799l43 71q16 24 35 64l14 28q39 -39 84 -63l-27 -26l-48 -49l-50 -59z" />
    <glyph glyph-name="Racute" unicode="&#x155;" horiz-adv-x="514" 
d="M286.5 217q-20.5 38 -61.5 38h-25v-72q0 -40 11 -183h-173q21 143 21 183v333q0 55 -21 184h162l84 -1q91 -1 142 -48.5t51 -125.5v-104q0 -114 -88 -149q29 -33 42 -59.5t26 -75.5q14 -53 27 -137h-160l-12 127q-5 52 -25.5 90zM284 379q29 9 39.5 28.5t10.5 53.5v34
q0 34 -10.5 53.5t-39.5 28t-84 8.5v-215q55 0 84 9zM173 799l43 71q16 24 35 64l14 28q39 -39 84 -63l-27 -26l-48 -49l-50 -59z" />
    <glyph glyph-name="Racute" unicode="&#x155;" horiz-adv-x="514" 
d="M286.5 217q-20.5 38 -61.5 38h-25v-72q0 -40 11 -183h-173q21 143 21 183v333q0 55 -21 184h162l84 -1q91 -1 142 -48.5t51 -125.5v-104q0 -114 -88 -149q29 -33 42 -59.5t26 -75.5q14 -53 27 -137h-160l-12 127q-5 52 -25.5 90zM284 379q29 9 39.5 28.5t10.5 53.5v34
q0 34 -10.5 53.5t-39.5 28t-84 8.5v-215q55 0 84 9zM173 799l43 71q16 24 35 64l14 28q39 -39 84 -63l-27 -26l-48 -49l-50 -59z" />
    <glyph glyph-name="Rcaron" unicode="&#x158;" horiz-adv-x="514" 
d="M286.5 217q-20.5 38 -61.5 38h-25v-72q0 -40 11 -183h-173q21 143 21 183v333q0 55 -21 184h162l84 -1q91 -1 142 -48.5t51 -125.5v-104q0 -114 -88 -149q29 -33 42 -59.5t26 -75.5q14 -53 27 -137h-160l-12 127q-5 52 -25.5 90zM284 379q29 9 39.5 28.5t10.5 53.5v34
q0 34 -10.5 53.5t-39.5 28t-84 8.5v-215q55 0 84 9zM207 805q-9 12 -33 40q-16 19 -27.5 30t-26.5 23l-18 16l67 51q35 -49 59 -77q25 -27 33 -34l33 34q18 22 45 59l13 18l67 -51l-18 -16q-15 -12 -26.5 -23t-27.5 -30q-24 -28 -33 -40t-24 -37h-59q-15 25 -24 37z" />
    <glyph glyph-name="Rcaron" unicode="&#x159;" horiz-adv-x="514" 
d="M286.5 217q-20.5 38 -61.5 38h-25v-72q0 -40 11 -183h-173q21 143 21 183v333q0 55 -21 184h162l84 -1q91 -1 142 -48.5t51 -125.5v-104q0 -114 -88 -149q29 -33 42 -59.5t26 -75.5q14 -53 27 -137h-160l-12 127q-5 52 -25.5 90zM284 379q29 9 39.5 28.5t10.5 53.5v34
q0 34 -10.5 53.5t-39.5 28t-84 8.5v-215q55 0 84 9zM207 805q-9 12 -33 40q-16 19 -27.5 30t-26.5 23l-18 16l67 51q35 -49 59 -77q25 -27 33 -34l33 34q18 22 45 59l13 18l67 -51l-18 -16q-15 -12 -26.5 -23t-27.5 -30q-24 -28 -33 -40t-24 -37h-59q-15 25 -24 37z" />
    <glyph glyph-name="Rcaron" unicode="&#x159;" horiz-adv-x="514" 
d="M286.5 217q-20.5 38 -61.5 38h-25v-72q0 -40 11 -183h-173q21 143 21 183v333q0 55 -21 184h162l84 -1q91 -1 142 -48.5t51 -125.5v-104q0 -114 -88 -149q29 -33 42 -59.5t26 -75.5q14 -53 27 -137h-160l-12 127q-5 52 -25.5 90zM284 379q29 9 39.5 28.5t10.5 53.5v34
q0 34 -10.5 53.5t-39.5 28t-84 8.5v-215q55 0 84 9zM207 805q-9 12 -33 40q-16 19 -27.5 30t-26.5 23l-18 16l67 51q35 -49 59 -77q25 -27 33 -34l33 34q18 22 45 59l13 18l67 -51l-18 -16q-15 -12 -26.5 -23t-27.5 -30q-24 -28 -33 -40t-24 -37h-59q-15 25 -24 37z" />
    <glyph glyph-name="uni0156" unicode="&#x156;" horiz-adv-x="514" 
d="M286.5 217q-20.5 38 -61.5 38h-25v-72q0 -40 11 -183h-173q21 143 21 183v333q0 55 -21 184h162l84 -1q91 -1 142 -48.5t51 -125.5v-104q0 -114 -88 -149q29 -33 42 -59.5t26 -75.5q14 -53 27 -137h-160l-12 127q-5 52 -25.5 90zM284 379q29 9 39.5 28.5t10.5 53.5v34
q0 34 -10.5 53.5t-39.5 28t-84 8.5v-215q55 0 84 9zM194 -208l11 23q27 62 36 86l28 73l59 -13l-15 -82q-10 -48 -18 -117q-42 20 -101 30z" />
    <glyph glyph-name="uni0156" unicode="&#x157;" horiz-adv-x="514" 
d="M286.5 217q-20.5 38 -61.5 38h-25v-72q0 -40 11 -183h-173q21 143 21 183v333q0 55 -21 184h162l84 -1q91 -1 142 -48.5t51 -125.5v-104q0 -114 -88 -149q29 -33 42 -59.5t26 -75.5q14 -53 27 -137h-160l-12 127q-5 52 -25.5 90zM284 379q29 9 39.5 28.5t10.5 53.5v34
q0 34 -10.5 53.5t-39.5 28t-84 8.5v-215q55 0 84 9zM194 -208l11 23q27 62 36 86l28 73l59 -13l-15 -82q-10 -48 -18 -117q-42 20 -101 30z" />
    <glyph glyph-name="uni0156" unicode="&#x157;" horiz-adv-x="514" 
d="M286.5 217q-20.5 38 -61.5 38h-25v-72q0 -40 11 -183h-173q21 143 21 183v333q0 55 -21 184h162l84 -1q91 -1 142 -48.5t51 -125.5v-104q0 -114 -88 -149q29 -33 42 -59.5t26 -75.5q14 -53 27 -137h-160l-12 127q-5 52 -25.5 90zM284 379q29 9 39.5 28.5t10.5 53.5v34
q0 34 -10.5 53.5t-39.5 28t-84 8.5v-215q55 0 84 9zM194 -208l11 23q27 62 36 86l28 73l59 -13l-15 -82q-10 -48 -18 -117q-42 20 -101 30z" />
    <glyph glyph-name="S" unicode="S" horiz-adv-x="473" 
d="M94.5 20.5q-45.5 35.5 -56 79.5t-10.5 100q20 -3 99 -3q30 0 50 3q0 -41 19.5 -71t58.5 -30q24 0 36.5 19t12.5 49q0 22 -6 44q-9 30 -37 55t-80 60q-49 34 -79 58.5t-51 58t-21 75.5q0 103 50 150t147 47q95 0 136.5 -50.5t41.5 -120.5q-13 5 -55 5q-44 0 -64 -6
q0 30 -21 48t-49 18q-24 0 -41.5 -15.5t-17.5 -43.5q0 -12 5 -32q6 -22 28.5 -40t68.5 -46q51 -31 84 -56t60.5 -63t36.5 -89q5 -32 5 -53q0 -88 -56.5 -137t-153.5 -49q-95 0 -140.5 35.5z" />
    <glyph glyph-name="S" unicode="s" horiz-adv-x="473" 
d="M94.5 20.5q-45.5 35.5 -56 79.5t-10.5 100q20 -3 99 -3q30 0 50 3q0 -41 19.5 -71t58.5 -30q24 0 36.5 19t12.5 49q0 22 -6 44q-9 30 -37 55t-80 60q-49 34 -79 58.5t-51 58t-21 75.5q0 103 50 150t147 47q95 0 136.5 -50.5t41.5 -120.5q-13 5 -55 5q-44 0 -64 -6
q0 30 -21 48t-49 18q-24 0 -41.5 -15.5t-17.5 -43.5q0 -12 5 -32q6 -22 28.5 -40t68.5 -46q51 -31 84 -56t60.5 -63t36.5 -89q5 -32 5 -53q0 -88 -56.5 -137t-153.5 -49q-95 0 -140.5 35.5z" />
    <glyph glyph-name="S" unicode="s" horiz-adv-x="473" 
d="M94.5 20.5q-45.5 35.5 -56 79.5t-10.5 100q20 -3 99 -3q30 0 50 3q0 -41 19.5 -71t58.5 -30q24 0 36.5 19t12.5 49q0 22 -6 44q-9 30 -37 55t-80 60q-49 34 -79 58.5t-51 58t-21 75.5q0 103 50 150t147 47q95 0 136.5 -50.5t41.5 -120.5q-13 5 -55 5q-44 0 -64 -6
q0 30 -21 48t-49 18q-24 0 -41.5 -15.5t-17.5 -43.5q0 -12 5 -32q6 -22 28.5 -40t68.5 -46q51 -31 84 -56t60.5 -63t36.5 -89q5 -32 5 -53q0 -88 -56.5 -137t-153.5 -49q-95 0 -140.5 35.5z" />
    <glyph glyph-name="Sacute" unicode="&#x15a;" horiz-adv-x="473" 
d="M94.5 20.5q-45.5 35.5 -56 79.5t-10.5 100q20 -3 99 -3q30 0 50 3q0 -41 19.5 -71t58.5 -30q24 0 36.5 19t12.5 49q0 22 -6 44q-9 30 -37 55t-80 60q-49 34 -79 58.5t-51 58t-21 75.5q0 103 50 150t147 47q95 0 136.5 -50.5t41.5 -120.5q-13 5 -55 5q-44 0 -64 -6
q0 30 -21 48t-49 18q-24 0 -41.5 -15.5t-17.5 -43.5q0 -12 5 -32q6 -22 28.5 -40t68.5 -46q51 -31 84 -56t60.5 -63t36.5 -89q5 -32 5 -53q0 -88 -56.5 -137t-153.5 -49q-95 0 -140.5 35.5zM140 799l43 71q16 24 35 64l14 28q39 -39 84 -63l-27 -26l-48 -49l-50 -59z" />
    <glyph glyph-name="Sacute" unicode="&#x15b;" horiz-adv-x="473" 
d="M94.5 20.5q-45.5 35.5 -56 79.5t-10.5 100q20 -3 99 -3q30 0 50 3q0 -41 19.5 -71t58.5 -30q24 0 36.5 19t12.5 49q0 22 -6 44q-9 30 -37 55t-80 60q-49 34 -79 58.5t-51 58t-21 75.5q0 103 50 150t147 47q95 0 136.5 -50.5t41.5 -120.5q-13 5 -55 5q-44 0 -64 -6
q0 30 -21 48t-49 18q-24 0 -41.5 -15.5t-17.5 -43.5q0 -12 5 -32q6 -22 28.5 -40t68.5 -46q51 -31 84 -56t60.5 -63t36.5 -89q5 -32 5 -53q0 -88 -56.5 -137t-153.5 -49q-95 0 -140.5 35.5zM140 799l43 71q16 24 35 64l14 28q39 -39 84 -63l-27 -26l-48 -49l-50 -59z" />
    <glyph glyph-name="Sacute" unicode="&#x15b;" horiz-adv-x="473" 
d="M94.5 20.5q-45.5 35.5 -56 79.5t-10.5 100q20 -3 99 -3q30 0 50 3q0 -41 19.5 -71t58.5 -30q24 0 36.5 19t12.5 49q0 22 -6 44q-9 30 -37 55t-80 60q-49 34 -79 58.5t-51 58t-21 75.5q0 103 50 150t147 47q95 0 136.5 -50.5t41.5 -120.5q-13 5 -55 5q-44 0 -64 -6
q0 30 -21 48t-49 18q-24 0 -41.5 -15.5t-17.5 -43.5q0 -12 5 -32q6 -22 28.5 -40t68.5 -46q51 -31 84 -56t60.5 -63t36.5 -89q5 -32 5 -53q0 -88 -56.5 -137t-153.5 -49q-95 0 -140.5 35.5zM140 799l43 71q16 24 35 64l14 28q39 -39 84 -63l-27 -26l-48 -49l-50 -59z" />
    <glyph glyph-name="Scaron" unicode="&#x160;" horiz-adv-x="473" 
d="M94.5 20.5q-45.5 35.5 -56 79.5t-10.5 100q20 -3 99 -3q30 0 50 3q0 -41 19.5 -71t58.5 -30q24 0 36.5 19t12.5 49q0 22 -6 44q-9 30 -37 55t-80 60q-49 34 -79 58.5t-51 58t-21 75.5q0 103 50 150t147 47q95 0 136.5 -50.5t41.5 -120.5q-13 5 -55 5q-44 0 -64 -6
q0 30 -21 48t-49 18q-24 0 -41.5 -15.5t-17.5 -43.5q0 -12 5 -32q6 -22 28.5 -40t68.5 -46q51 -31 84 -56t60.5 -63t36.5 -89q5 -32 5 -53q0 -88 -56.5 -137t-153.5 -49q-95 0 -140.5 35.5zM174 805q-9 12 -33 40q-16 19 -27.5 30t-26.5 23l-18 16l67 51q35 -49 59 -77
q25 -27 33 -34l33 34q18 22 45 59l13 18l67 -51l-18 -16q-15 -12 -26.5 -23t-27.5 -30q-24 -28 -33 -40t-24 -37h-59q-15 25 -24 37z" />
    <glyph glyph-name="Scaron" unicode="&#x161;" horiz-adv-x="473" 
d="M94.5 20.5q-45.5 35.5 -56 79.5t-10.5 100q20 -3 99 -3q30 0 50 3q0 -41 19.5 -71t58.5 -30q24 0 36.5 19t12.5 49q0 22 -6 44q-9 30 -37 55t-80 60q-49 34 -79 58.5t-51 58t-21 75.5q0 103 50 150t147 47q95 0 136.5 -50.5t41.5 -120.5q-13 5 -55 5q-44 0 -64 -6
q0 30 -21 48t-49 18q-24 0 -41.5 -15.5t-17.5 -43.5q0 -12 5 -32q6 -22 28.5 -40t68.5 -46q51 -31 84 -56t60.5 -63t36.5 -89q5 -32 5 -53q0 -88 -56.5 -137t-153.5 -49q-95 0 -140.5 35.5zM174 805q-9 12 -33 40q-16 19 -27.5 30t-26.5 23l-18 16l67 51q35 -49 59 -77
q25 -27 33 -34l33 34q18 22 45 59l13 18l67 -51l-18 -16q-15 -12 -26.5 -23t-27.5 -30q-24 -28 -33 -40t-24 -37h-59q-15 25 -24 37z" />
    <glyph glyph-name="Scaron" unicode="&#x161;" horiz-adv-x="473" 
d="M94.5 20.5q-45.5 35.5 -56 79.5t-10.5 100q20 -3 99 -3q30 0 50 3q0 -41 19.5 -71t58.5 -30q24 0 36.5 19t12.5 49q0 22 -6 44q-9 30 -37 55t-80 60q-49 34 -79 58.5t-51 58t-21 75.5q0 103 50 150t147 47q95 0 136.5 -50.5t41.5 -120.5q-13 5 -55 5q-44 0 -64 -6
q0 30 -21 48t-49 18q-24 0 -41.5 -15.5t-17.5 -43.5q0 -12 5 -32q6 -22 28.5 -40t68.5 -46q51 -31 84 -56t60.5 -63t36.5 -89q5 -32 5 -53q0 -88 -56.5 -137t-153.5 -49q-95 0 -140.5 35.5zM174 805q-9 12 -33 40q-16 19 -27.5 30t-26.5 23l-18 16l67 51q35 -49 59 -77
q25 -27 33 -34l33 34q18 22 45 59l13 18l67 -51l-18 -16q-15 -12 -26.5 -23t-27.5 -30q-24 -28 -33 -40t-24 -37h-59q-15 25 -24 37z" />
    <glyph glyph-name="Scedilla" unicode="&#x15e;" horiz-adv-x="473" 
d="M124 -114l-19 10l27 26q33 31 48 49l14 16q-76 8 -112.5 44t-45 77t-8.5 92q20 -3 99 -3q30 0 50 3q0 -41 19.5 -71t58.5 -30q24 0 36.5 19t12.5 49q0 22 -6 44q-9 30 -37 55t-80 60q-49 34 -79 58.5t-51 58t-21 75.5q0 103 50 150t147 47q95 0 136.5 -50.5t41.5 -120.5
q-13 5 -55 5q-44 0 -64 -6q0 30 -21 48t-49 18q-24 0 -41.5 -15.5t-17.5 -43.5q0 -12 5 -32q6 -22 28.5 -40t68.5 -46q51 -31 84 -56t60.5 -63t36.5 -89q5 -32 5 -54q0 -75 -41.5 -122t-115.5 -59l-37 -61q-15 -24 -34 -62l-16 -29q-21 21 -77 49z" />
    <glyph glyph-name="Scedilla" unicode="&#x15f;" horiz-adv-x="473" 
d="M124 -114l-19 10l27 26q33 31 48 49l14 16q-76 8 -112.5 44t-45 77t-8.5 92q20 -3 99 -3q30 0 50 3q0 -41 19.5 -71t58.5 -30q24 0 36.5 19t12.5 49q0 22 -6 44q-9 30 -37 55t-80 60q-49 34 -79 58.5t-51 58t-21 75.5q0 103 50 150t147 47q95 0 136.5 -50.5t41.5 -120.5
q-13 5 -55 5q-44 0 -64 -6q0 30 -21 48t-49 18q-24 0 -41.5 -15.5t-17.5 -43.5q0 -12 5 -32q6 -22 28.5 -40t68.5 -46q51 -31 84 -56t60.5 -63t36.5 -89q5 -32 5 -54q0 -75 -41.5 -122t-115.5 -59l-37 -61q-15 -24 -34 -62l-16 -29q-21 21 -77 49z" />
    <glyph glyph-name="Scedilla" unicode="&#x15f;" horiz-adv-x="473" 
d="M124 -114l-19 10l27 26q33 31 48 49l14 16q-76 8 -112.5 44t-45 77t-8.5 92q20 -3 99 -3q30 0 50 3q0 -41 19.5 -71t58.5 -30q24 0 36.5 19t12.5 49q0 22 -6 44q-9 30 -37 55t-80 60q-49 34 -79 58.5t-51 58t-21 75.5q0 103 50 150t147 47q95 0 136.5 -50.5t41.5 -120.5
q-13 5 -55 5q-44 0 -64 -6q0 30 -21 48t-49 18q-24 0 -41.5 -15.5t-17.5 -43.5q0 -12 5 -32q6 -22 28.5 -40t68.5 -46q51 -31 84 -56t60.5 -63t36.5 -89q5 -32 5 -54q0 -75 -41.5 -122t-115.5 -59l-37 -61q-15 -24 -34 -62l-16 -29q-21 21 -77 49z" />
    <glyph glyph-name="Scircumflex" unicode="&#x15c;" horiz-adv-x="473" 
d="M94.5 20.5q-45.5 35.5 -56 79.5t-10.5 100q20 -3 99 -3q30 0 50 3q0 -41 19.5 -71t58.5 -30q24 0 36.5 19t12.5 49q0 22 -6 44q-9 30 -37 55t-80 60q-49 34 -79 58.5t-51 58t-21 75.5q0 103 50 150t147 47q95 0 136.5 -50.5t41.5 -120.5q-13 5 -55 5q-44 0 -64 -6
q0 30 -21 48t-49 18q-24 0 -41.5 -15.5t-17.5 -43.5q0 -12 5 -32q6 -22 28.5 -40t68.5 -46q51 -31 84 -56t60.5 -63t36.5 -89q5 -32 5 -53q0 -88 -56.5 -137t-153.5 -49q-95 0 -140.5 35.5zM124.5 865q12.5 13 27.5 30q16 18 27 32.5t23 34.5h51q12 -20 23 -34.5t27 -32.5
q15 -17 27.5 -30t32.5 -30l-60 -51q-28 39 -37 50l-14 18l-22 31l-25 -31q-8 -11 -22 -27q-16 -19 -31 -41l-60 51q20 17 32.5 30z" />
    <glyph glyph-name="Scircumflex" unicode="&#x15d;" horiz-adv-x="473" 
d="M94.5 20.5q-45.5 35.5 -56 79.5t-10.5 100q20 -3 99 -3q30 0 50 3q0 -41 19.5 -71t58.5 -30q24 0 36.5 19t12.5 49q0 22 -6 44q-9 30 -37 55t-80 60q-49 34 -79 58.5t-51 58t-21 75.5q0 103 50 150t147 47q95 0 136.5 -50.5t41.5 -120.5q-13 5 -55 5q-44 0 -64 -6
q0 30 -21 48t-49 18q-24 0 -41.5 -15.5t-17.5 -43.5q0 -12 5 -32q6 -22 28.5 -40t68.5 -46q51 -31 84 -56t60.5 -63t36.5 -89q5 -32 5 -53q0 -88 -56.5 -137t-153.5 -49q-95 0 -140.5 35.5zM124.5 865q12.5 13 27.5 30q16 18 27 32.5t23 34.5h51q12 -20 23 -34.5t27 -32.5
q15 -17 27.5 -30t32.5 -30l-60 -51q-28 39 -37 50l-14 18l-22 31l-25 -31q-8 -11 -22 -27q-16 -19 -31 -41l-60 51q20 17 32.5 30z" />
    <glyph glyph-name="Scircumflex" unicode="&#x15d;" horiz-adv-x="473" 
d="M94.5 20.5q-45.5 35.5 -56 79.5t-10.5 100q20 -3 99 -3q30 0 50 3q0 -41 19.5 -71t58.5 -30q24 0 36.5 19t12.5 49q0 22 -6 44q-9 30 -37 55t-80 60q-49 34 -79 58.5t-51 58t-21 75.5q0 103 50 150t147 47q95 0 136.5 -50.5t41.5 -120.5q-13 5 -55 5q-44 0 -64 -6
q0 30 -21 48t-49 18q-24 0 -41.5 -15.5t-17.5 -43.5q0 -12 5 -32q6 -22 28.5 -40t68.5 -46q51 -31 84 -56t60.5 -63t36.5 -89q5 -32 5 -53q0 -88 -56.5 -137t-153.5 -49q-95 0 -140.5 35.5zM124.5 865q12.5 13 27.5 30q16 18 27 32.5t23 34.5h51q12 -20 23 -34.5t27 -32.5
q15 -17 27.5 -30t32.5 -30l-60 -51q-28 39 -37 50l-14 18l-22 31l-25 -31q-8 -11 -22 -27q-16 -19 -31 -41l-60 51q20 17 32.5 30z" />
    <glyph glyph-name="uni0218" unicode="&#x218;" horiz-adv-x="473" 
d="M94.5 20.5q-45.5 35.5 -56 79.5t-10.5 100q20 -3 99 -3q30 0 50 3q0 -41 19.5 -71t58.5 -30q24 0 36.5 19t12.5 49q0 22 -6 44q-9 30 -37 55t-80 60q-49 34 -79 58.5t-51 58t-21 75.5q0 103 50 150t147 47q95 0 136.5 -50.5t41.5 -120.5q-13 5 -55 5q-44 0 -64 -6
q0 30 -21 48t-49 18q-24 0 -41.5 -15.5t-17.5 -43.5q0 -12 5 -32q6 -22 28.5 -40t68.5 -46q51 -31 84 -56t60.5 -63t36.5 -89q5 -32 5 -53q0 -88 -56.5 -137t-153.5 -49q-95 0 -140.5 35.5zM172 -208l11 23q27 62 36 86l28 73l59 -13l-15 -82q-10 -48 -18 -117
q-42 20 -101 30z" />
    <glyph glyph-name="uni0218" unicode="&#x219;" horiz-adv-x="473" 
d="M94.5 20.5q-45.5 35.5 -56 79.5t-10.5 100q20 -3 99 -3q30 0 50 3q0 -41 19.5 -71t58.5 -30q24 0 36.5 19t12.5 49q0 22 -6 44q-9 30 -37 55t-80 60q-49 34 -79 58.5t-51 58t-21 75.5q0 103 50 150t147 47q95 0 136.5 -50.5t41.5 -120.5q-13 5 -55 5q-44 0 -64 -6
q0 30 -21 48t-49 18q-24 0 -41.5 -15.5t-17.5 -43.5q0 -12 5 -32q6 -22 28.5 -40t68.5 -46q51 -31 84 -56t60.5 -63t36.5 -89q5 -32 5 -53q0 -88 -56.5 -137t-153.5 -49q-95 0 -140.5 35.5zM172 -208l11 23q27 62 36 86l28 73l59 -13l-15 -82q-10 -48 -18 -117
q-42 20 -101 30z" />
    <glyph glyph-name="uni0218" unicode="&#x219;" horiz-adv-x="473" 
d="M94.5 20.5q-45.5 35.5 -56 79.5t-10.5 100q20 -3 99 -3q30 0 50 3q0 -41 19.5 -71t58.5 -30q24 0 36.5 19t12.5 49q0 22 -6 44q-9 30 -37 55t-80 60q-49 34 -79 58.5t-51 58t-21 75.5q0 103 50 150t147 47q95 0 136.5 -50.5t41.5 -120.5q-13 5 -55 5q-44 0 -64 -6
q0 30 -21 48t-49 18q-24 0 -41.5 -15.5t-17.5 -43.5q0 -12 5 -32q6 -22 28.5 -40t68.5 -46q51 -31 84 -56t60.5 -63t36.5 -89q5 -32 5 -53q0 -88 -56.5 -137t-153.5 -49q-95 0 -140.5 35.5zM172 -208l11 23q27 62 36 86l28 73l59 -13l-15 -82q-10 -48 -18 -117
q-42 20 -101 30z" />
    <glyph glyph-name="uni1E9E" unicode="&#xdf;" horiz-adv-x="652" 
d="M312 23.5q-39 31.5 -48.5 72t-10.5 97.5q26 -4 49 -4q27 0 46 5q0 -30 22 -56t55 -26q36 0 53.5 15t22.5 40.5t5 66.5q0 51 -20 74t-70 23q-25 0 -48 -5v121l34 -1q42 0 58.5 18t16.5 51q0 27 -19.5 41.5t-53.5 14.5h-204v-388q0 -40 21 -183h-183q21 143 21 183v333
q0 55 -21 184l374 1q95 0 141 -48t46 -127q0 -47 -20 -81.5t-48 -52.5q31 -19 48 -39.5t26 -57t9 -99.5q0 -204 -181 -204q-82 0 -121 31.5z" />
    <glyph glyph-name="uni1E9E" unicode="&#x1e9e;" horiz-adv-x="652" 
d="M312 23.5q-39 31.5 -48.5 72t-10.5 97.5q26 -4 49 -4q27 0 46 5q0 -30 22 -56t55 -26q36 0 53.5 15t22.5 40.5t5 66.5q0 51 -20 74t-70 23q-25 0 -48 -5v121l34 -1q42 0 58.5 18t16.5 51q0 27 -19.5 41.5t-53.5 14.5h-204v-388q0 -40 21 -183h-183q21 143 21 183v333
q0 55 -21 184l374 1q95 0 141 -48t46 -127q0 -47 -20 -81.5t-48 -52.5q31 -19 48 -39.5t26 -57t9 -99.5q0 -204 -181 -204q-82 0 -121 31.5z" />
    <glyph glyph-name="uni1E9E" unicode="&#x1e9e;" horiz-adv-x="652" 
d="M312 23.5q-39 31.5 -48.5 72t-10.5 97.5q26 -4 49 -4q27 0 46 5q0 -30 22 -56t55 -26q36 0 53.5 15t22.5 40.5t5 66.5q0 51 -20 74t-70 23q-25 0 -48 -5v121l34 -1q42 0 58.5 18t16.5 51q0 27 -19.5 41.5t-53.5 14.5h-204v-388q0 -40 21 -183h-183q21 143 21 183v333
q0 55 -21 184l374 1q95 0 141 -48t46 -127q0 -47 -20 -81.5t-48 -52.5q31 -19 48 -39.5t26 -57t9 -99.5q0 -204 -181 -204q-82 0 -121 31.5z" />
    <glyph glyph-name="T" unicode="T" horiz-adv-x="489" 
d="M169 183v293q0 28 -8 98q-30 5 -68 5q-33 0 -73 -6l8 127h441l-20 -126q-32 4 -61 4q-39 0 -69 -5q-9 -63 -9 -97v-293q0 -40 21 -183h-183q21 143 21 183z" />
    <glyph glyph-name="T" unicode="t" horiz-adv-x="489" 
d="M169 183v293q0 28 -8 98q-30 5 -68 5q-33 0 -73 -6l8 127h441l-20 -126q-32 4 -61 4q-39 0 -69 -5q-9 -63 -9 -97v-293q0 -40 21 -183h-183q21 143 21 183z" />
    <glyph glyph-name="T" unicode="t" horiz-adv-x="489" 
d="M169 183v293q0 28 -8 98q-30 5 -68 5q-33 0 -73 -6l8 127h441l-20 -126q-32 4 -61 4q-39 0 -69 -5q-9 -63 -9 -97v-293q0 -40 21 -183h-183q21 143 21 183z" />
    <glyph glyph-name="Tcaron" unicode="&#x164;" horiz-adv-x="489" 
d="M169 183v293q0 28 -8 98q-30 5 -68 5q-33 0 -73 -6l8 127h441l-20 -126q-32 4 -61 4q-39 0 -69 -5q-9 -63 -9 -97v-293q0 -40 21 -183h-183q21 143 21 183zM191 805q-9 12 -33 40q-16 19 -27.5 30t-26.5 23l-18 16l67 51q35 -49 59 -77q25 -27 33 -34l33 34q18 22 45 59
l13 18l67 -51l-18 -16q-15 -12 -26.5 -23t-27.5 -30q-24 -28 -33 -40t-24 -37h-59q-15 25 -24 37z" />
    <glyph glyph-name="Tcaron" unicode="&#x165;" horiz-adv-x="489" 
d="M169 183v293q0 28 -8 98q-30 5 -68 5q-33 0 -73 -6l8 127h441l-20 -126q-32 4 -61 4q-39 0 -69 -5q-9 -63 -9 -97v-293q0 -40 21 -183h-183q21 143 21 183zM191 805q-9 12 -33 40q-16 19 -27.5 30t-26.5 23l-18 16l67 51q35 -49 59 -77q25 -27 33 -34l33 34q18 22 45 59
l13 18l67 -51l-18 -16q-15 -12 -26.5 -23t-27.5 -30q-24 -28 -33 -40t-24 -37h-59q-15 25 -24 37z" />
    <glyph glyph-name="Tcaron" unicode="&#x165;" horiz-adv-x="489" 
d="M169 183v293q0 28 -8 98q-30 5 -68 5q-33 0 -73 -6l8 127h441l-20 -126q-32 4 -61 4q-39 0 -69 -5q-9 -63 -9 -97v-293q0 -40 21 -183h-183q21 143 21 183zM191 805q-9 12 -33 40q-16 19 -27.5 30t-26.5 23l-18 16l67 51q35 -49 59 -77q25 -27 33 -34l33 34q18 22 45 59
l13 18l67 -51l-18 -16q-15 -12 -26.5 -23t-27.5 -30q-24 -28 -33 -40t-24 -37h-59q-15 25 -24 37z" />
    <glyph glyph-name="uni0162" unicode="&#x162;" horiz-adv-x="489" 
d="M169 183v293q0 28 -8 98q-30 5 -68 5q-33 0 -73 -6l8 127h441l-20 -126q-32 4 -61 4q-39 0 -69 -5q-9 -63 -9 -97v-293q0 -40 21 -183h-64l-43 -72q-15 -24 -34 -62l-16 -29q-21 21 -77 49l-19 10l27 26q33 31 48 49l25 29h-30q21 143 21 183z" />
    <glyph glyph-name="uni0162" unicode="&#x163;" horiz-adv-x="489" 
d="M169 183v293q0 28 -8 98q-30 5 -68 5q-33 0 -73 -6l8 127h441l-20 -126q-32 4 -61 4q-39 0 -69 -5q-9 -63 -9 -97v-293q0 -40 21 -183h-64l-43 -72q-15 -24 -34 -62l-16 -29q-21 21 -77 49l-19 10l27 26q33 31 48 49l25 29h-30q21 143 21 183z" />
    <glyph glyph-name="uni0162" unicode="&#x163;" horiz-adv-x="489" 
d="M169 183v293q0 28 -8 98q-30 5 -68 5q-33 0 -73 -6l8 127h441l-20 -126q-32 4 -61 4q-39 0 -69 -5q-9 -63 -9 -97v-293q0 -40 21 -183h-64l-43 -72q-15 -24 -34 -62l-16 -29q-21 21 -77 49l-19 10l27 26q33 31 48 49l25 29h-30q21 143 21 183z" />
    <glyph glyph-name="uni021A" unicode="&#x21a;" horiz-adv-x="489" 
d="M169 183v293q0 28 -8 98q-30 5 -68 5q-33 0 -73 -6l8 127h441l-20 -126q-32 4 -61 4q-39 0 -69 -5q-9 -63 -9 -97v-293q0 -40 21 -183h-183q21 143 21 183zM145 -208l11 23q27 62 36 86l28 73l59 -13l-15 -82q-10 -48 -18 -117q-42 20 -101 30z" />
    <glyph glyph-name="uni021A" unicode="&#x21b;" horiz-adv-x="489" 
d="M169 183v293q0 28 -8 98q-30 5 -68 5q-33 0 -73 -6l8 127h441l-20 -126q-32 4 -61 4q-39 0 -69 -5q-9 -63 -9 -97v-293q0 -40 21 -183h-183q21 143 21 183zM145 -208l11 23q27 62 36 86l28 73l59 -13l-15 -82q-10 -48 -18 -117q-42 20 -101 30z" />
    <glyph glyph-name="uni021A" unicode="&#x21b;" horiz-adv-x="489" 
d="M169 183v293q0 28 -8 98q-30 5 -68 5q-33 0 -73 -6l8 127h441l-20 -126q-32 4 -61 4q-39 0 -69 -5q-9 -63 -9 -97v-293q0 -40 21 -183h-183q21 143 21 183zM145 -208l11 23q27 62 36 86l28 73l59 -13l-15 -82q-10 -48 -18 -117q-42 20 -101 30z" />
    <glyph glyph-name="U" unicode="U" horiz-adv-x="532" 
d="M140.5 13.5q-47.5 28.5 -65.5 81t-18 133.5v288q0 55 -21 184h176q-14 -133 -14 -184v-255q0 -60 6.5 -94t23 -50t46.5 -16q25 0 38 16t17.5 49.5t4.5 94.5v255q0 51 -14 184h176q-21 -129 -21 -184v-288q0 -119 -46.5 -181t-154.5 -62q-86 0 -133.5 28.5z" />
    <glyph glyph-name="U" unicode="u" horiz-adv-x="532" 
d="M140.5 13.5q-47.5 28.5 -65.5 81t-18 133.5v288q0 55 -21 184h176q-14 -133 -14 -184v-255q0 -60 6.5 -94t23 -50t46.5 -16q25 0 38 16t17.5 49.5t4.5 94.5v255q0 51 -14 184h176q-21 -129 -21 -184v-288q0 -119 -46.5 -181t-154.5 -62q-86 0 -133.5 28.5z" />
    <glyph glyph-name="U" unicode="u" horiz-adv-x="532" 
d="M140.5 13.5q-47.5 28.5 -65.5 81t-18 133.5v288q0 55 -21 184h176q-14 -133 -14 -184v-255q0 -60 6.5 -94t23 -50t46.5 -16q25 0 38 16t17.5 49.5t4.5 94.5v255q0 51 -14 184h176q-21 -129 -21 -184v-288q0 -119 -46.5 -181t-154.5 -62q-86 0 -133.5 28.5z" />
    <glyph glyph-name="Uacute" unicode="&#xda;" horiz-adv-x="532" 
d="M140.5 13.5q-47.5 28.5 -65.5 81t-18 133.5v288q0 55 -21 184h176q-14 -133 -14 -184v-255q0 -60 6.5 -94t23 -50t46.5 -16q25 0 38 16t17.5 49.5t4.5 94.5v255q0 51 -14 184h176q-21 -129 -21 -184v-288q0 -119 -46.5 -181t-154.5 -62q-86 0 -133.5 28.5zM178 799l43 71
q16 24 35 64l14 28q39 -39 84 -63l-27 -26l-48 -49l-50 -59z" />
    <glyph glyph-name="Uacute" unicode="&#xfa;" horiz-adv-x="532" 
d="M140.5 13.5q-47.5 28.5 -65.5 81t-18 133.5v288q0 55 -21 184h176q-14 -133 -14 -184v-255q0 -60 6.5 -94t23 -50t46.5 -16q25 0 38 16t17.5 49.5t4.5 94.5v255q0 51 -14 184h176q-21 -129 -21 -184v-288q0 -119 -46.5 -181t-154.5 -62q-86 0 -133.5 28.5zM178 799l43 71
q16 24 35 64l14 28q39 -39 84 -63l-27 -26l-48 -49l-50 -59z" />
    <glyph glyph-name="Uacute" unicode="&#xfa;" horiz-adv-x="532" 
d="M140.5 13.5q-47.5 28.5 -65.5 81t-18 133.5v288q0 55 -21 184h176q-14 -133 -14 -184v-255q0 -60 6.5 -94t23 -50t46.5 -16q25 0 38 16t17.5 49.5t4.5 94.5v255q0 51 -14 184h176q-21 -129 -21 -184v-288q0 -119 -46.5 -181t-154.5 -62q-86 0 -133.5 28.5zM178 799l43 71
q16 24 35 64l14 28q39 -39 84 -63l-27 -26l-48 -49l-50 -59z" />
    <glyph glyph-name="Ucircumflex" unicode="&#xdb;" horiz-adv-x="532" 
d="M140.5 13.5q-47.5 28.5 -65.5 81t-18 133.5v288q0 55 -21 184h176q-14 -133 -14 -184v-255q0 -60 6.5 -94t23 -50t46.5 -16q25 0 38 16t17.5 49.5t4.5 94.5v255q0 51 -14 184h176q-21 -129 -21 -184v-288q0 -119 -46.5 -181t-154.5 -62q-86 0 -133.5 28.5zM162.5 865
q12.5 13 27.5 30q16 18 27 32.5t23 34.5h51q12 -20 23 -34.5t27 -32.5q15 -17 27.5 -30t32.5 -30l-60 -51q-28 39 -37 50l-14 18l-22 31l-25 -31q-8 -11 -22 -27q-16 -19 -31 -41l-60 51q20 17 32.5 30z" />
    <glyph glyph-name="Ucircumflex" unicode="&#xfb;" horiz-adv-x="532" 
d="M140.5 13.5q-47.5 28.5 -65.5 81t-18 133.5v288q0 55 -21 184h176q-14 -133 -14 -184v-255q0 -60 6.5 -94t23 -50t46.5 -16q25 0 38 16t17.5 49.5t4.5 94.5v255q0 51 -14 184h176q-21 -129 -21 -184v-288q0 -119 -46.5 -181t-154.5 -62q-86 0 -133.5 28.5zM162.5 865
q12.5 13 27.5 30q16 18 27 32.5t23 34.5h51q12 -20 23 -34.5t27 -32.5q15 -17 27.5 -30t32.5 -30l-60 -51q-28 39 -37 50l-14 18l-22 31l-25 -31q-8 -11 -22 -27q-16 -19 -31 -41l-60 51q20 17 32.5 30z" />
    <glyph glyph-name="Ucircumflex" unicode="&#xfb;" horiz-adv-x="532" 
d="M140.5 13.5q-47.5 28.5 -65.5 81t-18 133.5v288q0 55 -21 184h176q-14 -133 -14 -184v-255q0 -60 6.5 -94t23 -50t46.5 -16q25 0 38 16t17.5 49.5t4.5 94.5v255q0 51 -14 184h176q-21 -129 -21 -184v-288q0 -119 -46.5 -181t-154.5 -62q-86 0 -133.5 28.5zM162.5 865
q12.5 13 27.5 30q16 18 27 32.5t23 34.5h51q12 -20 23 -34.5t27 -32.5q15 -17 27.5 -30t32.5 -30l-60 -51q-28 39 -37 50l-14 18l-22 31l-25 -31q-8 -11 -22 -27q-16 -19 -31 -41l-60 51q20 17 32.5 30z" />
    <glyph glyph-name="Udieresis" unicode="&#xdc;" horiz-adv-x="532" 
d="M140.5 13.5q-47.5 28.5 -65.5 81t-18 133.5v288q0 55 -21 184h176q-14 -133 -14 -184v-255q0 -60 6.5 -94t23 -50t46.5 -16q25 0 38 16t17.5 49.5t4.5 94.5v255q0 51 -14 184h176q-21 -129 -21 -184v-288q0 -119 -46.5 -181t-154.5 -62q-86 0 -133.5 28.5zM308.5 809.5
q-19.5 19.5 -19.5 54.5q0 36 19.5 54.5t54.5 18.5t54.5 -19t19.5 -54t-20 -54.5t-54 -19.5q-35 0 -54.5 19.5zM115 918q20 19 55 19t54 -19t19 -54q0 -36 -19.5 -55t-53.5 -19q-36 0 -55.5 19.5t-19.5 54.5t20 54z" />
    <glyph glyph-name="Udieresis" unicode="&#xfc;" horiz-adv-x="532" 
d="M140.5 13.5q-47.5 28.5 -65.5 81t-18 133.5v288q0 55 -21 184h176q-14 -133 -14 -184v-255q0 -60 6.5 -94t23 -50t46.5 -16q25 0 38 16t17.5 49.5t4.5 94.5v255q0 51 -14 184h176q-21 -129 -21 -184v-288q0 -119 -46.5 -181t-154.5 -62q-86 0 -133.5 28.5zM308.5 809.5
q-19.5 19.5 -19.5 54.5q0 36 19.5 54.5t54.5 18.5t54.5 -19t19.5 -54t-20 -54.5t-54 -19.5q-35 0 -54.5 19.5zM115 918q20 19 55 19t54 -19t19 -54q0 -36 -19.5 -55t-53.5 -19q-36 0 -55.5 19.5t-19.5 54.5t20 54z" />
    <glyph glyph-name="Udieresis" unicode="&#xfc;" horiz-adv-x="532" 
d="M140.5 13.5q-47.5 28.5 -65.5 81t-18 133.5v288q0 55 -21 184h176q-14 -133 -14 -184v-255q0 -60 6.5 -94t23 -50t46.5 -16q25 0 38 16t17.5 49.5t4.5 94.5v255q0 51 -14 184h176q-21 -129 -21 -184v-288q0 -119 -46.5 -181t-154.5 -62q-86 0 -133.5 28.5zM308.5 809.5
q-19.5 19.5 -19.5 54.5q0 36 19.5 54.5t54.5 18.5t54.5 -19t19.5 -54t-20 -54.5t-54 -19.5q-35 0 -54.5 19.5zM115 918q20 19 55 19t54 -19t19 -54q0 -36 -19.5 -55t-53.5 -19q-36 0 -55.5 19.5t-19.5 54.5t20 54z" />
    <glyph glyph-name="Ugrave" unicode="&#xd9;" horiz-adv-x="532" 
d="M140.5 13.5q-47.5 28.5 -65.5 81t-18 133.5v288q0 55 -21 184h176q-14 -133 -14 -184v-255q0 -60 6.5 -94t23 -50t46.5 -16q25 0 38 16t17.5 49.5t4.5 94.5v255q0 51 -14 184h176q-21 -129 -21 -184v-288q0 -119 -46.5 -181t-154.5 -62q-86 0 -133.5 28.5zM266 777
q-18 30 -37 57q-19 24 -31 37.5t-30 31.5l84 63q13 -26 21.5 -39t27.5 -38q17 -23 29.5 -36.5t32.5 -34.5l-84 -62z" />
    <glyph glyph-name="Ugrave" unicode="&#xf9;" horiz-adv-x="532" 
d="M140.5 13.5q-47.5 28.5 -65.5 81t-18 133.5v288q0 55 -21 184h176q-14 -133 -14 -184v-255q0 -60 6.5 -94t23 -50t46.5 -16q25 0 38 16t17.5 49.5t4.5 94.5v255q0 51 -14 184h176q-21 -129 -21 -184v-288q0 -119 -46.5 -181t-154.5 -62q-86 0 -133.5 28.5zM266 777
q-18 30 -37 57q-19 24 -31 37.5t-30 31.5l84 63q13 -26 21.5 -39t27.5 -38q17 -23 29.5 -36.5t32.5 -34.5l-84 -62z" />
    <glyph glyph-name="Ugrave" unicode="&#xf9;" horiz-adv-x="532" 
d="M140.5 13.5q-47.5 28.5 -65.5 81t-18 133.5v288q0 55 -21 184h176q-14 -133 -14 -184v-255q0 -60 6.5 -94t23 -50t46.5 -16q25 0 38 16t17.5 49.5t4.5 94.5v255q0 51 -14 184h176q-21 -129 -21 -184v-288q0 -119 -46.5 -181t-154.5 -62q-86 0 -133.5 28.5zM266 777
q-18 30 -37 57q-19 24 -31 37.5t-30 31.5l84 63q13 -26 21.5 -39t27.5 -38q17 -23 29.5 -36.5t32.5 -34.5l-84 -62z" />
    <glyph glyph-name="Uhungarumlaut" unicode="&#x170;" horiz-adv-x="532" 
d="M140.5 13.5q-47.5 28.5 -65.5 81t-18 133.5v288q0 55 -21 184h176q-14 -133 -14 -184v-255q0 -60 6.5 -94t23 -50t46.5 -16q25 0 38 16t17.5 49.5t4.5 94.5v255q0 51 -14 184h176q-21 -129 -21 -184v-288q0 -119 -46.5 -181t-154.5 -62q-86 0 -133.5 28.5zM252 794l43 71
q20 32 30 55q12 24 20 38q32 -36 76 -59l-19 -18q-28 -26 -56 -57l-51 -59zM154 870q14 21 31 57q5 10 18 35q19 -19 36 -32.5t40 -25.5q-12 -13 -30 -29q-22 -20 -45 -46l-50 -60l-44 30z" />
    <glyph glyph-name="Uhungarumlaut" unicode="&#x171;" horiz-adv-x="532" 
d="M140.5 13.5q-47.5 28.5 -65.5 81t-18 133.5v288q0 55 -21 184h176q-14 -133 -14 -184v-255q0 -60 6.5 -94t23 -50t46.5 -16q25 0 38 16t17.5 49.5t4.5 94.5v255q0 51 -14 184h176q-21 -129 -21 -184v-288q0 -119 -46.5 -181t-154.5 -62q-86 0 -133.5 28.5zM252 794l43 71
q20 32 30 55q12 24 20 38q32 -36 76 -59l-19 -18q-28 -26 -56 -57l-51 -59zM154 870q14 21 31 57q5 10 18 35q19 -19 36 -32.5t40 -25.5q-12 -13 -30 -29q-22 -20 -45 -46l-50 -60l-44 30z" />
    <glyph glyph-name="Uhungarumlaut" unicode="&#x171;" horiz-adv-x="532" 
d="M140.5 13.5q-47.5 28.5 -65.5 81t-18 133.5v288q0 55 -21 184h176q-14 -133 -14 -184v-255q0 -60 6.5 -94t23 -50t46.5 -16q25 0 38 16t17.5 49.5t4.5 94.5v255q0 51 -14 184h176q-21 -129 -21 -184v-288q0 -119 -46.5 -181t-154.5 -62q-86 0 -133.5 28.5zM252 794l43 71
q20 32 30 55q12 24 20 38q32 -36 76 -59l-19 -18q-28 -26 -56 -57l-51 -59zM154 870q14 21 31 57q5 10 18 35q19 -19 36 -32.5t40 -25.5q-12 -13 -30 -29q-22 -20 -45 -46l-50 -60l-44 30z" />
    <glyph glyph-name="Umacron" unicode="&#x16a;" horiz-adv-x="532" 
d="M140.5 13.5q-47.5 28.5 -65.5 81t-18 133.5v288q0 55 -21 184h176q-14 -133 -14 -184v-255q0 -60 6.5 -94t23 -50t46.5 -16q25 0 38 16t17.5 49.5t4.5 94.5v255q0 51 -14 184h176q-21 -129 -21 -184v-288q0 -119 -46.5 -181t-154.5 -62q-86 0 -133.5 28.5zM172 904
q44 -3 92 -3q36 0 63.5 1t70.5 5v-98l-48 3q-39 3 -86 3q-48 0 -90 -3l-41 -3v98z" />
    <glyph glyph-name="Umacron" unicode="&#x16b;" horiz-adv-x="532" 
d="M140.5 13.5q-47.5 28.5 -65.5 81t-18 133.5v288q0 55 -21 184h176q-14 -133 -14 -184v-255q0 -60 6.5 -94t23 -50t46.5 -16q25 0 38 16t17.5 49.5t4.5 94.5v255q0 51 -14 184h176q-21 -129 -21 -184v-288q0 -119 -46.5 -181t-154.5 -62q-86 0 -133.5 28.5zM172 904
q44 -3 92 -3q36 0 63.5 1t70.5 5v-98l-48 3q-39 3 -86 3q-48 0 -90 -3l-41 -3v98z" />
    <glyph glyph-name="Umacron" unicode="&#x16b;" horiz-adv-x="532" 
d="M140.5 13.5q-47.5 28.5 -65.5 81t-18 133.5v288q0 55 -21 184h176q-14 -133 -14 -184v-255q0 -60 6.5 -94t23 -50t46.5 -16q25 0 38 16t17.5 49.5t4.5 94.5v255q0 51 -14 184h176q-21 -129 -21 -184v-288q0 -119 -46.5 -181t-154.5 -62q-86 0 -133.5 28.5zM172 904
q44 -3 92 -3q36 0 63.5 1t70.5 5v-98l-48 3q-39 3 -86 3q-48 0 -90 -3l-41 -3v98z" />
    <glyph glyph-name="Uogonek" unicode="&#x172;" horiz-adv-x="532" 
d="M140.5 13.5q-47.5 28.5 -65.5 81t-18 133.5v288q0 55 -21 184h176q-14 -133 -14 -184v-255q0 -60 6.5 -94t23 -50t46.5 -16q25 0 38 16t17.5 49.5t4.5 94.5v255q0 51 -14 184h176q-21 -129 -21 -184v-288q0 -86 -23.5 -142.5t-77.5 -81.5l33 -38q15 -18 48 -49l27 -26
l-19 -10q-56 -28 -77 -49l-16 30q-14 29 -34 61l-39 63q-7 -1 -23 -1q-86 0 -133.5 28.5z" />
    <glyph glyph-name="Uogonek" unicode="&#x173;" horiz-adv-x="532" 
d="M140.5 13.5q-47.5 28.5 -65.5 81t-18 133.5v288q0 55 -21 184h176q-14 -133 -14 -184v-255q0 -60 6.5 -94t23 -50t46.5 -16q25 0 38 16t17.5 49.5t4.5 94.5v255q0 51 -14 184h176q-21 -129 -21 -184v-288q0 -86 -23.5 -142.5t-77.5 -81.5l33 -38q15 -18 48 -49l27 -26
l-19 -10q-56 -28 -77 -49l-16 30q-14 29 -34 61l-39 63q-7 -1 -23 -1q-86 0 -133.5 28.5z" />
    <glyph glyph-name="Uogonek" unicode="&#x173;" horiz-adv-x="532" 
d="M140.5 13.5q-47.5 28.5 -65.5 81t-18 133.5v288q0 55 -21 184h176q-14 -133 -14 -184v-255q0 -60 6.5 -94t23 -50t46.5 -16q25 0 38 16t17.5 49.5t4.5 94.5v255q0 51 -14 184h176q-21 -129 -21 -184v-288q0 -86 -23.5 -142.5t-77.5 -81.5l33 -38q15 -18 48 -49l27 -26
l-19 -10q-56 -28 -77 -49l-16 30q-14 29 -34 61l-39 63q-7 -1 -23 -1q-86 0 -133.5 28.5z" />
    <glyph glyph-name="Uring" unicode="&#x16e;" horiz-adv-x="532" 
d="M140.5 13.5q-47.5 28.5 -65.5 81t-18 133.5v288q0 55 -21 184h176q-14 -133 -14 -184v-255q0 -60 6.5 -94t23 -50t46.5 -16q25 0 38 16t17.5 49.5t4.5 94.5v255q0 51 -14 184h176q-21 -129 -21 -184v-288q0 -119 -46.5 -181t-154.5 -62q-86 0 -133.5 28.5zM196 792
q-25 25 -25 69t25 67.5t70 23.5q44 0 69 -24.5t25 -66.5q0 -45 -25 -69.5t-69 -24.5q-45 0 -70 25zM237 829.5q10 -11.5 29 -11.5q18 0 28 12t10 32t-10 31t-28 11t-28.5 -11.5t-10.5 -30.5q0 -21 10 -32.5z" />
    <glyph glyph-name="Uring" unicode="&#x16f;" horiz-adv-x="532" 
d="M140.5 13.5q-47.5 28.5 -65.5 81t-18 133.5v288q0 55 -21 184h176q-14 -133 -14 -184v-255q0 -60 6.5 -94t23 -50t46.5 -16q25 0 38 16t17.5 49.5t4.5 94.5v255q0 51 -14 184h176q-21 -129 -21 -184v-288q0 -119 -46.5 -181t-154.5 -62q-86 0 -133.5 28.5zM196 792
q-25 25 -25 69t25 67.5t70 23.5q44 0 69 -24.5t25 -66.5q0 -45 -25 -69.5t-69 -24.5q-45 0 -70 25zM237 829.5q10 -11.5 29 -11.5q18 0 28 12t10 32t-10 31t-28 11t-28.5 -11.5t-10.5 -30.5q0 -21 10 -32.5z" />
    <glyph glyph-name="Uring" unicode="&#x16f;" horiz-adv-x="532" 
d="M140.5 13.5q-47.5 28.5 -65.5 81t-18 133.5v288q0 55 -21 184h176q-14 -133 -14 -184v-255q0 -60 6.5 -94t23 -50t46.5 -16q25 0 38 16t17.5 49.5t4.5 94.5v255q0 51 -14 184h176q-21 -129 -21 -184v-288q0 -119 -46.5 -181t-154.5 -62q-86 0 -133.5 28.5zM196 792
q-25 25 -25 69t25 67.5t70 23.5q44 0 69 -24.5t25 -66.5q0 -45 -25 -69.5t-69 -24.5q-45 0 -70 25zM237 829.5q10 -11.5 29 -11.5q18 0 28 12t10 32t-10 31t-28 11t-28.5 -11.5t-10.5 -30.5q0 -21 10 -32.5z" />
    <glyph glyph-name="Utilde" unicode="&#x168;" horiz-adv-x="532" 
d="M140.5 13.5q-47.5 28.5 -65.5 81t-18 133.5v288q0 55 -21 184h176q-14 -133 -14 -184v-255q0 -60 6.5 -94t23 -50t46.5 -16q25 0 38 16t17.5 49.5t4.5 94.5v255q0 51 -14 184h176q-21 -129 -21 -184v-288q0 -119 -46.5 -181t-154.5 -62q-86 0 -133.5 28.5zM276.5 768.5
q-15.5 14.5 -31.5 42.5q-9 18 -17.5 27.5t-21.5 9.5q-23 0 -31.5 -16.5t-8.5 -52.5v-17h-54v47q0 39 20 73t64 34q35 0 52 -15.5t29 -42.5q10 -20 17.5 -28.5t22.5 -8.5q31 0 40 17.5t9 51.5v18h54v-48q0 -38 -24 -72t-74 -34q-30 0 -45.5 14.5z" />
    <glyph glyph-name="Utilde" unicode="&#x169;" horiz-adv-x="532" 
d="M140.5 13.5q-47.5 28.5 -65.5 81t-18 133.5v288q0 55 -21 184h176q-14 -133 -14 -184v-255q0 -60 6.5 -94t23 -50t46.5 -16q25 0 38 16t17.5 49.5t4.5 94.5v255q0 51 -14 184h176q-21 -129 -21 -184v-288q0 -119 -46.5 -181t-154.5 -62q-86 0 -133.5 28.5zM276.5 768.5
q-15.5 14.5 -31.5 42.5q-9 18 -17.5 27.5t-21.5 9.5q-23 0 -31.5 -16.5t-8.5 -52.5v-17h-54v47q0 39 20 73t64 34q35 0 52 -15.5t29 -42.5q10 -20 17.5 -28.5t22.5 -8.5q31 0 40 17.5t9 51.5v18h54v-48q0 -38 -24 -72t-74 -34q-30 0 -45.5 14.5z" />
    <glyph glyph-name="Utilde" unicode="&#x169;" horiz-adv-x="532" 
d="M140.5 13.5q-47.5 28.5 -65.5 81t-18 133.5v288q0 55 -21 184h176q-14 -133 -14 -184v-255q0 -60 6.5 -94t23 -50t46.5 -16q25 0 38 16t17.5 49.5t4.5 94.5v255q0 51 -14 184h176q-21 -129 -21 -184v-288q0 -119 -46.5 -181t-154.5 -62q-86 0 -133.5 28.5zM276.5 768.5
q-15.5 14.5 -31.5 42.5q-9 18 -17.5 27.5t-21.5 9.5q-23 0 -31.5 -16.5t-8.5 -52.5v-17h-54v47q0 39 20 73t64 34q35 0 52 -15.5t29 -42.5q10 -20 17.5 -28.5t22.5 -8.5q31 0 40 17.5t9 51.5v18h54v-48q0 -38 -24 -72t-74 -34q-30 0 -45.5 14.5z" />
    <glyph glyph-name="V" unicode="V" horiz-adv-x="563" 
d="M30 666l-10 34h154q2 0 22.5 -77t44 -206t39.5 -296h3q16 167 39.5 296t44 206t22.5 77h154l-10 -34q-37 -118 -42 -149l-104 -517h-211l-104 517q-5 31 -42 149z" />
    <glyph glyph-name="V" unicode="v" horiz-adv-x="563" 
d="M30 666l-10 34h154q2 0 22.5 -77t44 -206t39.5 -296h3q16 167 39.5 296t44 206t22.5 77h154l-10 -34q-37 -118 -42 -149l-104 -517h-211l-104 517q-5 31 -42 149z" />
    <glyph glyph-name="V" unicode="v" horiz-adv-x="563" 
d="M30 666l-10 34h154q2 0 22.5 -77t44 -206t39.5 -296h3q16 167 39.5 296t44 206t22.5 77h154l-10 -34q-37 -118 -42 -149l-104 -517h-211l-104 517q-5 31 -42 149z" />
    <glyph glyph-name="W" unicode="W" horiz-adv-x="803" 
d="M51 598q-17 57 -22 72l-9 30h164q2 0 17 -76.5t34.5 -205.5t35.5 -297h4q29 176 59 438q21 -3 62 -3q42 0 64 3q4 -29 7 -40l63 -398h3q16 168 35.5 297t34.5 205.5t17 76.5h163l-9 -30q-5 -15 -22 -72t-21 -81l-86 -517h-187l-57 315l-54 -315h-187l-88 517
q-4 24 -21 81z" />
    <glyph glyph-name="W" unicode="w" horiz-adv-x="803" 
d="M51 598q-17 57 -22 72l-9 30h164q2 0 17 -76.5t34.5 -205.5t35.5 -297h4q29 176 59 438q21 -3 62 -3q42 0 64 3q4 -29 7 -40l63 -398h3q16 168 35.5 297t34.5 205.5t17 76.5h163l-9 -30q-5 -15 -22 -72t-21 -81l-86 -517h-187l-57 315l-54 -315h-187l-88 517
q-4 24 -21 81z" />
    <glyph glyph-name="W" unicode="w" horiz-adv-x="803" 
d="M51 598q-17 57 -22 72l-9 30h164q2 0 17 -76.5t34.5 -205.5t35.5 -297h4q29 176 59 438q21 -3 62 -3q42 0 64 3q4 -29 7 -40l63 -398h3q16 168 35.5 297t34.5 205.5t17 76.5h163l-9 -30q-5 -15 -22 -72t-21 -81l-86 -517h-187l-57 315l-54 -315h-187l-88 517
q-4 24 -21 81z" />
    <glyph glyph-name="Wacute" unicode="&#x1e82;" horiz-adv-x="803" 
d="M51 598q-17 57 -22 72l-9 30h164q2 0 17 -76.5t34.5 -205.5t35.5 -297h4q29 176 59 438q21 -3 62 -3q42 0 64 3q4 -29 7 -40l63 -398h3q16 168 35.5 297t34.5 205.5t17 76.5h163l-9 -30q-5 -15 -22 -72t-21 -81l-86 -517h-187l-57 315l-54 -315h-187l-88 517
q-4 24 -21 81zM314 799l43 71q16 24 35 64l14 28q39 -39 84 -63l-27 -26l-48 -49l-50 -59z" />
    <glyph glyph-name="Wacute" unicode="&#x1e83;" horiz-adv-x="803" 
d="M51 598q-17 57 -22 72l-9 30h164q2 0 17 -76.5t34.5 -205.5t35.5 -297h4q29 176 59 438q21 -3 62 -3q42 0 64 3q4 -29 7 -40l63 -398h3q16 168 35.5 297t34.5 205.5t17 76.5h163l-9 -30q-5 -15 -22 -72t-21 -81l-86 -517h-187l-57 315l-54 -315h-187l-88 517
q-4 24 -21 81zM314 799l43 71q16 24 35 64l14 28q39 -39 84 -63l-27 -26l-48 -49l-50 -59z" />
    <glyph glyph-name="Wacute" unicode="&#x1e83;" horiz-adv-x="803" 
d="M51 598q-17 57 -22 72l-9 30h164q2 0 17 -76.5t34.5 -205.5t35.5 -297h4q29 176 59 438q21 -3 62 -3q42 0 64 3q4 -29 7 -40l63 -398h3q16 168 35.5 297t34.5 205.5t17 76.5h163l-9 -30q-5 -15 -22 -72t-21 -81l-86 -517h-187l-57 315l-54 -315h-187l-88 517
q-4 24 -21 81zM314 799l43 71q16 24 35 64l14 28q39 -39 84 -63l-27 -26l-48 -49l-50 -59z" />
    <glyph glyph-name="Wcircumflex" unicode="&#x174;" horiz-adv-x="803" 
d="M51 598q-17 57 -22 72l-9 30h164q2 0 17 -76.5t34.5 -205.5t35.5 -297h4q29 176 59 438q21 -3 62 -3q42 0 64 3q4 -29 7 -40l63 -398h3q16 168 35.5 297t34.5 205.5t17 76.5h163l-9 -30q-5 -15 -22 -72t-21 -81l-86 -517h-187l-57 315l-54 -315h-187l-88 517
q-4 24 -21 81zM298.5 865q12.5 13 27.5 30q16 18 27 32.5t23 34.5h51q12 -20 23 -34.5t27 -32.5q15 -17 27.5 -30t32.5 -30l-60 -51q-28 39 -37 50l-14 18l-22 31l-25 -31q-8 -11 -22 -27q-16 -19 -31 -41l-60 51q20 17 32.5 30z" />
    <glyph glyph-name="Wcircumflex" unicode="&#x175;" horiz-adv-x="803" 
d="M51 598q-17 57 -22 72l-9 30h164q2 0 17 -76.5t34.5 -205.5t35.5 -297h4q29 176 59 438q21 -3 62 -3q42 0 64 3q4 -29 7 -40l63 -398h3q16 168 35.5 297t34.5 205.5t17 76.5h163l-9 -30q-5 -15 -22 -72t-21 -81l-86 -517h-187l-57 315l-54 -315h-187l-88 517
q-4 24 -21 81zM298.5 865q12.5 13 27.5 30q16 18 27 32.5t23 34.5h51q12 -20 23 -34.5t27 -32.5q15 -17 27.5 -30t32.5 -30l-60 -51q-28 39 -37 50l-14 18l-22 31l-25 -31q-8 -11 -22 -27q-16 -19 -31 -41l-60 51q20 17 32.5 30z" />
    <glyph glyph-name="Wcircumflex" unicode="&#x175;" horiz-adv-x="803" 
d="M51 598q-17 57 -22 72l-9 30h164q2 0 17 -76.5t34.5 -205.5t35.5 -297h4q29 176 59 438q21 -3 62 -3q42 0 64 3q4 -29 7 -40l63 -398h3q16 168 35.5 297t34.5 205.5t17 76.5h163l-9 -30q-5 -15 -22 -72t-21 -81l-86 -517h-187l-57 315l-54 -315h-187l-88 517
q-4 24 -21 81zM298.5 865q12.5 13 27.5 30q16 18 27 32.5t23 34.5h51q12 -20 23 -34.5t27 -32.5q15 -17 27.5 -30t32.5 -30l-60 -51q-28 39 -37 50l-14 18l-22 31l-25 -31q-8 -11 -22 -27q-16 -19 -31 -41l-60 51q20 17 32.5 30z" />
    <glyph glyph-name="Wdieresis" unicode="&#x1e84;" horiz-adv-x="803" 
d="M51 598q-17 57 -22 72l-9 30h164q2 0 17 -76.5t34.5 -205.5t35.5 -297h4q29 176 59 438q21 -3 62 -3q42 0 64 3q4 -29 7 -40l63 -398h3q16 168 35.5 297t34.5 205.5t17 76.5h163l-9 -30q-5 -15 -22 -72t-21 -81l-86 -517h-187l-57 315l-54 -315h-187l-88 517
q-4 24 -21 81zM444.5 809.5q-19.5 19.5 -19.5 54.5q0 36 19.5 54.5t54.5 18.5t54.5 -19t19.5 -54t-20 -54.5t-54 -19.5q-35 0 -54.5 19.5zM251 918q20 19 55 19t54 -19t19 -54q0 -36 -19.5 -55t-53.5 -19q-36 0 -55.5 19.5t-19.5 54.5t20 54z" />
    <glyph glyph-name="Wdieresis" unicode="&#x1e85;" horiz-adv-x="803" 
d="M51 598q-17 57 -22 72l-9 30h164q2 0 17 -76.5t34.5 -205.5t35.5 -297h4q29 176 59 438q21 -3 62 -3q42 0 64 3q4 -29 7 -40l63 -398h3q16 168 35.5 297t34.5 205.5t17 76.5h163l-9 -30q-5 -15 -22 -72t-21 -81l-86 -517h-187l-57 315l-54 -315h-187l-88 517
q-4 24 -21 81zM444.5 809.5q-19.5 19.5 -19.5 54.5q0 36 19.5 54.5t54.5 18.5t54.5 -19t19.5 -54t-20 -54.5t-54 -19.5q-35 0 -54.5 19.5zM251 918q20 19 55 19t54 -19t19 -54q0 -36 -19.5 -55t-53.5 -19q-36 0 -55.5 19.5t-19.5 54.5t20 54z" />
    <glyph glyph-name="Wdieresis" unicode="&#x1e85;" horiz-adv-x="803" 
d="M51 598q-17 57 -22 72l-9 30h164q2 0 17 -76.5t34.5 -205.5t35.5 -297h4q29 176 59 438q21 -3 62 -3q42 0 64 3q4 -29 7 -40l63 -398h3q16 168 35.5 297t34.5 205.5t17 76.5h163l-9 -30q-5 -15 -22 -72t-21 -81l-86 -517h-187l-57 315l-54 -315h-187l-88 517
q-4 24 -21 81zM444.5 809.5q-19.5 19.5 -19.5 54.5q0 36 19.5 54.5t54.5 18.5t54.5 -19t19.5 -54t-20 -54.5t-54 -19.5q-35 0 -54.5 19.5zM251 918q20 19 55 19t54 -19t19 -54q0 -36 -19.5 -55t-53.5 -19q-36 0 -55.5 19.5t-19.5 54.5t20 54z" />
    <glyph glyph-name="Wgrave" unicode="&#x1e80;" horiz-adv-x="803" 
d="M51 598q-17 57 -22 72l-9 30h164q2 0 17 -76.5t34.5 -205.5t35.5 -297h4q29 176 59 438q21 -3 62 -3q42 0 64 3q4 -29 7 -40l63 -398h3q16 168 35.5 297t34.5 205.5t17 76.5h163l-9 -30q-5 -15 -22 -72t-21 -81l-86 -517h-187l-57 315l-54 -315h-187l-88 517
q-4 24 -21 81zM402 777q-18 30 -37 57q-19 24 -31 37.5t-30 31.5l84 63q13 -26 21.5 -39t27.5 -38q17 -23 29.5 -36.5t32.5 -34.5l-84 -62z" />
    <glyph glyph-name="Wgrave" unicode="&#x1e81;" horiz-adv-x="803" 
d="M51 598q-17 57 -22 72l-9 30h164q2 0 17 -76.5t34.5 -205.5t35.5 -297h4q29 176 59 438q21 -3 62 -3q42 0 64 3q4 -29 7 -40l63 -398h3q16 168 35.5 297t34.5 205.5t17 76.5h163l-9 -30q-5 -15 -22 -72t-21 -81l-86 -517h-187l-57 315l-54 -315h-187l-88 517
q-4 24 -21 81zM402 777q-18 30 -37 57q-19 24 -31 37.5t-30 31.5l84 63q13 -26 21.5 -39t27.5 -38q17 -23 29.5 -36.5t32.5 -34.5l-84 -62z" />
    <glyph glyph-name="Wgrave" unicode="&#x1e81;" horiz-adv-x="803" 
d="M51 598q-17 57 -22 72l-9 30h164q2 0 17 -76.5t34.5 -205.5t35.5 -297h4q29 176 59 438q21 -3 62 -3q42 0 64 3q4 -29 7 -40l63 -398h3q16 168 35.5 297t34.5 205.5t17 76.5h163l-9 -30q-5 -15 -22 -72t-21 -81l-86 -517h-187l-57 315l-54 -315h-187l-88 517
q-4 24 -21 81zM402 777q-18 30 -37 57q-19 24 -31 37.5t-30 31.5l84 63q13 -26 21.5 -39t27.5 -38q17 -23 29.5 -36.5t32.5 -34.5l-84 -62z" />
    <glyph glyph-name="X" unicode="X" horiz-adv-x="553" 
d="M116 183l75 187l-56 146q-21 54 -92 184h173q34 -130 50 -184l11 -37l10 37l50 184h172q-71 -130 -92 -184l-55 -146l72 -187q15 -40 101 -183h-183q-49 143 -59 183l-16 69l-17 -69q-9 -40 -59 -183h-183q82 143 98 183z" />
    <glyph glyph-name="X" unicode="x" horiz-adv-x="553" 
d="M116 183l75 187l-56 146q-21 54 -92 184h173q34 -130 50 -184l11 -37l10 37l50 184h172q-71 -130 -92 -184l-55 -146l72 -187q15 -40 101 -183h-183q-49 143 -59 183l-16 69l-17 -69q-9 -40 -59 -183h-183q82 143 98 183z" />
    <glyph glyph-name="X" unicode="x" horiz-adv-x="553" 
d="M116 183l75 187l-56 146q-21 54 -92 184h173q34 -130 50 -184l11 -37l10 37l50 184h172q-71 -130 -92 -184l-55 -146l72 -187q15 -40 101 -183h-183q-49 143 -59 183l-16 69l-17 -69q-9 -40 -59 -183h-183q82 143 98 183z" />
    <glyph glyph-name="Y" unicode="Y" horiz-adv-x="561" 
d="M207 183v98l-93 225q-21 51 -102 194h174q41 -110 54 -154l41 -136l40 136q16 56 54 154h174q-80 -143 -102 -194l-95 -225v-98q0 -40 21 -183h-187q21 143 21 183z" />
    <glyph glyph-name="Y" unicode="y" horiz-adv-x="561" 
d="M207 183v98l-93 225q-21 51 -102 194h174q41 -110 54 -154l41 -136l40 136q16 56 54 154h174q-80 -143 -102 -194l-95 -225v-98q0 -40 21 -183h-187q21 143 21 183z" />
    <glyph glyph-name="Y" unicode="y" horiz-adv-x="561" 
d="M207 183v98l-93 225q-21 51 -102 194h174q41 -110 54 -154l41 -136l40 136q16 56 54 154h174q-80 -143 -102 -194l-95 -225v-98q0 -40 21 -183h-187q21 143 21 183z" />
    <glyph glyph-name="Yacute" unicode="&#xdd;" horiz-adv-x="561" 
d="M207 183v98l-93 225q-21 51 -102 194h174q41 -110 54 -154l41 -136l40 136q16 56 54 154h174q-80 -143 -102 -194l-95 -225v-98q0 -40 21 -183h-187q21 143 21 183zM193 799l43 71q16 24 35 64l14 28q39 -39 84 -63l-27 -26l-48 -49l-50 -59z" />
    <glyph glyph-name="Yacute" unicode="&#xfd;" horiz-adv-x="561" 
d="M207 183v98l-93 225q-21 51 -102 194h174q41 -110 54 -154l41 -136l40 136q16 56 54 154h174q-80 -143 -102 -194l-95 -225v-98q0 -40 21 -183h-187q21 143 21 183zM193 799l43 71q16 24 35 64l14 28q39 -39 84 -63l-27 -26l-48 -49l-50 -59z" />
    <glyph glyph-name="Yacute" unicode="&#xfd;" horiz-adv-x="561" 
d="M207 183v98l-93 225q-21 51 -102 194h174q41 -110 54 -154l41 -136l40 136q16 56 54 154h174q-80 -143 -102 -194l-95 -225v-98q0 -40 21 -183h-187q21 143 21 183zM193 799l43 71q16 24 35 64l14 28q39 -39 84 -63l-27 -26l-48 -49l-50 -59z" />
    <glyph glyph-name="Ycircumflex" unicode="&#x176;" horiz-adv-x="561" 
d="M207 183v98l-93 225q-21 51 -102 194h174q41 -110 54 -154l41 -136l40 136q16 56 54 154h174q-80 -143 -102 -194l-95 -225v-98q0 -40 21 -183h-187q21 143 21 183zM177.5 865q12.5 13 27.5 30q16 18 27 32.5t23 34.5h51q12 -20 23 -34.5t27 -32.5q15 -17 27.5 -30
t32.5 -30l-60 -51q-28 39 -37 50l-14 18l-22 31l-25 -31q-8 -11 -22 -27q-16 -19 -31 -41l-60 51q20 17 32.5 30z" />
    <glyph glyph-name="Ycircumflex" unicode="&#x177;" horiz-adv-x="561" 
d="M207 183v98l-93 225q-21 51 -102 194h174q41 -110 54 -154l41 -136l40 136q16 56 54 154h174q-80 -143 -102 -194l-95 -225v-98q0 -40 21 -183h-187q21 143 21 183zM177.5 865q12.5 13 27.5 30q16 18 27 32.5t23 34.5h51q12 -20 23 -34.5t27 -32.5q15 -17 27.5 -30
t32.5 -30l-60 -51q-28 39 -37 50l-14 18l-22 31l-25 -31q-8 -11 -22 -27q-16 -19 -31 -41l-60 51q20 17 32.5 30z" />
    <glyph glyph-name="Ycircumflex" unicode="&#x177;" horiz-adv-x="561" 
d="M207 183v98l-93 225q-21 51 -102 194h174q41 -110 54 -154l41 -136l40 136q16 56 54 154h174q-80 -143 -102 -194l-95 -225v-98q0 -40 21 -183h-187q21 143 21 183zM177.5 865q12.5 13 27.5 30q16 18 27 32.5t23 34.5h51q12 -20 23 -34.5t27 -32.5q15 -17 27.5 -30
t32.5 -30l-60 -51q-28 39 -37 50l-14 18l-22 31l-25 -31q-8 -11 -22 -27q-16 -19 -31 -41l-60 51q20 17 32.5 30z" />
    <glyph glyph-name="Ydieresis" unicode="&#xff;" horiz-adv-x="561" 
d="M207 183v98l-93 225q-21 51 -102 194h174q41 -110 54 -154l41 -136l40 136q16 56 54 154h174q-80 -143 -102 -194l-95 -225v-98q0 -40 21 -183h-187q21 143 21 183zM323.5 809.5q-19.5 19.5 -19.5 54.5q0 36 19.5 54.5t54.5 18.5t54.5 -19t19.5 -54t-20 -54.5t-54 -19.5
q-35 0 -54.5 19.5zM130 918q20 19 55 19t54 -19t19 -54q0 -36 -19.5 -55t-53.5 -19q-36 0 -55.5 19.5t-19.5 54.5t20 54z" />
    <glyph glyph-name="Ydieresis" unicode="&#x178;" horiz-adv-x="561" 
d="M207 183v98l-93 225q-21 51 -102 194h174q41 -110 54 -154l41 -136l40 136q16 56 54 154h174q-80 -143 -102 -194l-95 -225v-98q0 -40 21 -183h-187q21 143 21 183zM323.5 809.5q-19.5 19.5 -19.5 54.5q0 36 19.5 54.5t54.5 18.5t54.5 -19t19.5 -54t-20 -54.5t-54 -19.5
q-35 0 -54.5 19.5zM130 918q20 19 55 19t54 -19t19 -54q0 -36 -19.5 -55t-53.5 -19q-36 0 -55.5 19.5t-19.5 54.5t20 54z" />
    <glyph glyph-name="Ydieresis" unicode="&#x178;" horiz-adv-x="561" 
d="M207 183v98l-93 225q-21 51 -102 194h174q41 -110 54 -154l41 -136l40 136q16 56 54 154h174q-80 -143 -102 -194l-95 -225v-98q0 -40 21 -183h-187q21 143 21 183zM323.5 809.5q-19.5 19.5 -19.5 54.5q0 36 19.5 54.5t54.5 18.5t54.5 -19t19.5 -54t-20 -54.5t-54 -19.5
q-35 0 -54.5 19.5zM130 918q20 19 55 19t54 -19t19 -54q0 -36 -19.5 -55t-53.5 -19q-36 0 -55.5 19.5t-19.5 54.5t20 54z" />
    <glyph glyph-name="Ygrave" unicode="&#x1ef2;" horiz-adv-x="561" 
d="M207 183v98l-93 225q-21 51 -102 194h174q41 -110 54 -154l41 -136l40 136q16 56 54 154h174q-80 -143 -102 -194l-95 -225v-98q0 -40 21 -183h-187q21 143 21 183zM281 777q-18 30 -37 57q-19 24 -31 37.5t-30 31.5l84 63q13 -26 21.5 -39t27.5 -38q17 -23 29.5 -36.5
t32.5 -34.5l-84 -62z" />
    <glyph glyph-name="Ygrave" unicode="&#x1ef3;" horiz-adv-x="561" 
d="M207 183v98l-93 225q-21 51 -102 194h174q41 -110 54 -154l41 -136l40 136q16 56 54 154h174q-80 -143 -102 -194l-95 -225v-98q0 -40 21 -183h-187q21 143 21 183zM281 777q-18 30 -37 57q-19 24 -31 37.5t-30 31.5l84 63q13 -26 21.5 -39t27.5 -38q17 -23 29.5 -36.5
t32.5 -34.5l-84 -62z" />
    <glyph glyph-name="Ygrave" unicode="&#x1ef3;" horiz-adv-x="561" 
d="M207 183v98l-93 225q-21 51 -102 194h174q41 -110 54 -154l41 -136l40 136q16 56 54 154h174q-80 -143 -102 -194l-95 -225v-98q0 -40 21 -183h-187q21 143 21 183zM281 777q-18 30 -37 57q-19 24 -31 37.5t-30 31.5l84 63q13 -26 21.5 -39t27.5 -38q17 -23 29.5 -36.5
t32.5 -34.5l-84 -62z" />
    <glyph glyph-name="uni1EF8" unicode="&#x1ef8;" horiz-adv-x="561" 
d="M207 183v98l-93 225q-21 51 -102 194h174q41 -110 54 -154l41 -136l40 136q16 56 54 154h174q-80 -143 -102 -194l-95 -225v-98q0 -40 21 -183h-187q21 143 21 183zM291.5 768.5q-15.5 14.5 -31.5 42.5q-9 18 -17.5 27.5t-21.5 9.5q-23 0 -31.5 -16.5t-8.5 -52.5v-17h-54
v47q0 39 20 73t64 34q35 0 52 -15.5t29 -42.5q10 -20 17.5 -28.5t22.5 -8.5q31 0 40 17.5t9 51.5v18h54v-48q0 -38 -24 -72t-74 -34q-30 0 -45.5 14.5z" />
    <glyph glyph-name="uni1EF8" unicode="&#x1ef9;" horiz-adv-x="561" 
d="M207 183v98l-93 225q-21 51 -102 194h174q41 -110 54 -154l41 -136l40 136q16 56 54 154h174q-80 -143 -102 -194l-95 -225v-98q0 -40 21 -183h-187q21 143 21 183zM291.5 768.5q-15.5 14.5 -31.5 42.5q-9 18 -17.5 27.5t-21.5 9.5q-23 0 -31.5 -16.5t-8.5 -52.5v-17h-54
v47q0 39 20 73t64 34q35 0 52 -15.5t29 -42.5q10 -20 17.5 -28.5t22.5 -8.5q31 0 40 17.5t9 51.5v18h54v-48q0 -38 -24 -72t-74 -34q-30 0 -45.5 14.5z" />
    <glyph glyph-name="uni1EF8" unicode="&#x1ef9;" horiz-adv-x="561" 
d="M207 183v98l-93 225q-21 51 -102 194h174q41 -110 54 -154l41 -136l40 136q16 56 54 154h174q-80 -143 -102 -194l-95 -225v-98q0 -40 21 -183h-187q21 143 21 183zM291.5 768.5q-15.5 14.5 -31.5 42.5q-9 18 -17.5 27.5t-21.5 9.5q-23 0 -31.5 -16.5t-8.5 -52.5v-17h-54
v47q0 39 20 73t64 34q35 0 52 -15.5t29 -42.5q10 -20 17.5 -28.5t22.5 -8.5q31 0 40 17.5t9 51.5v18h54v-48q0 -38 -24 -72t-74 -34q-30 0 -45.5 14.5z" />
    <glyph glyph-name="Z" unicode="Z" horiz-adv-x="509" 
d="M117 223l98 261q3 8 19 60q3 9 5.5 18.5t5.5 19.5l-100 2q-64 0 -119 -6l32 122h410q-88 -171 -108 -224l-98 -261q-10 -28 -25 -85q31 -4 62.5 -6.5t67.5 -2.5q65 0 128 7l-40 -128h-441q88 182 103 223z" />
    <glyph glyph-name="Z" unicode="z" horiz-adv-x="509" 
d="M117 223l98 261q3 8 19 60q3 9 5.5 18.5t5.5 19.5l-100 2q-64 0 -119 -6l32 122h410q-88 -171 -108 -224l-98 -261q-10 -28 -25 -85q31 -4 62.5 -6.5t67.5 -2.5q65 0 128 7l-40 -128h-441q88 182 103 223z" />
    <glyph glyph-name="Z" unicode="z" horiz-adv-x="509" 
d="M117 223l98 261q3 8 19 60q3 9 5.5 18.5t5.5 19.5l-100 2q-64 0 -119 -6l32 122h410q-88 -171 -108 -224l-98 -261q-10 -28 -25 -85q31 -4 62.5 -6.5t67.5 -2.5q65 0 128 7l-40 -128h-441q88 182 103 223z" />
    <glyph glyph-name="Zacute" unicode="&#x179;" horiz-adv-x="509" 
d="M117 223l98 261q3 8 19 60q3 9 5.5 18.5t5.5 19.5l-100 2q-64 0 -119 -6l32 122h410q-88 -171 -108 -224l-98 -261q-10 -28 -25 -85q31 -4 62.5 -6.5t67.5 -2.5q65 0 128 7l-40 -128h-441q88 182 103 223zM163 799l43 71q16 24 35 64l14 28q39 -39 84 -63l-27 -26
l-48 -49l-50 -59z" />
    <glyph glyph-name="Zacute" unicode="&#x17a;" horiz-adv-x="509" 
d="M117 223l98 261q3 8 19 60q3 9 5.5 18.5t5.5 19.5l-100 2q-64 0 -119 -6l32 122h410q-88 -171 -108 -224l-98 -261q-10 -28 -25 -85q31 -4 62.5 -6.5t67.5 -2.5q65 0 128 7l-40 -128h-441q88 182 103 223zM163 799l43 71q16 24 35 64l14 28q39 -39 84 -63l-27 -26
l-48 -49l-50 -59z" />
    <glyph glyph-name="Zacute" unicode="&#x17a;" horiz-adv-x="509" 
d="M117 223l98 261q3 8 19 60q3 9 5.5 18.5t5.5 19.5l-100 2q-64 0 -119 -6l32 122h410q-88 -171 -108 -224l-98 -261q-10 -28 -25 -85q31 -4 62.5 -6.5t67.5 -2.5q65 0 128 7l-40 -128h-441q88 182 103 223zM163 799l43 71q16 24 35 64l14 28q39 -39 84 -63l-27 -26
l-48 -49l-50 -59z" />
    <glyph glyph-name="Zcaron" unicode="&#x17d;" horiz-adv-x="509" 
d="M117 223l98 261q3 8 19 60q3 9 5.5 18.5t5.5 19.5l-100 2q-64 0 -119 -6l32 122h410q-88 -171 -108 -224l-98 -261q-10 -28 -25 -85q31 -4 62.5 -6.5t67.5 -2.5q65 0 128 7l-40 -128h-441q88 182 103 223zM197 805q-9 12 -33 40q-16 19 -27.5 30t-26.5 23l-18 16l67 51
q35 -49 59 -77q25 -27 33 -34l33 34q18 22 45 59l13 18l67 -51l-18 -16q-15 -12 -26.5 -23t-27.5 -30q-24 -28 -33 -40t-24 -37h-59q-15 25 -24 37z" />
    <glyph glyph-name="Zcaron" unicode="&#x17e;" horiz-adv-x="509" 
d="M117 223l98 261q3 8 19 60q3 9 5.5 18.5t5.5 19.5l-100 2q-64 0 -119 -6l32 122h410q-88 -171 -108 -224l-98 -261q-10 -28 -25 -85q31 -4 62.5 -6.5t67.5 -2.5q65 0 128 7l-40 -128h-441q88 182 103 223zM197 805q-9 12 -33 40q-16 19 -27.5 30t-26.5 23l-18 16l67 51
q35 -49 59 -77q25 -27 33 -34l33 34q18 22 45 59l13 18l67 -51l-18 -16q-15 -12 -26.5 -23t-27.5 -30q-24 -28 -33 -40t-24 -37h-59q-15 25 -24 37z" />
    <glyph glyph-name="Zcaron" unicode="&#x17e;" horiz-adv-x="509" 
d="M117 223l98 261q3 8 19 60q3 9 5.5 18.5t5.5 19.5l-100 2q-64 0 -119 -6l32 122h410q-88 -171 -108 -224l-98 -261q-10 -28 -25 -85q31 -4 62.5 -6.5t67.5 -2.5q65 0 128 7l-40 -128h-441q88 182 103 223zM197 805q-9 12 -33 40q-16 19 -27.5 30t-26.5 23l-18 16l67 51
q35 -49 59 -77q25 -27 33 -34l33 34q18 22 45 59l13 18l67 -51l-18 -16q-15 -12 -26.5 -23t-27.5 -30q-24 -28 -33 -40t-24 -37h-59q-15 25 -24 37z" />
    <glyph glyph-name="Zdotaccent" unicode="&#x17b;" horiz-adv-x="509" 
d="M117 223l98 261q3 8 19 60q3 9 5.5 18.5t5.5 19.5l-100 2q-64 0 -119 -6l32 122h410q-88 -171 -108 -224l-98 -261q-10 -28 -25 -85q31 -4 62.5 -6.5t67.5 -2.5q65 0 128 7l-40 -128h-441q88 182 103 223zM197 918q20 19 55 19t54 -19t19 -54q0 -36 -19.5 -55t-53.5 -19
q-36 0 -55.5 19.5t-19.5 54.5t20 54z" />
    <glyph glyph-name="Zdotaccent" unicode="&#x17c;" horiz-adv-x="509" 
d="M117 223l98 261q3 8 19 60q3 9 5.5 18.5t5.5 19.5l-100 2q-64 0 -119 -6l32 122h410q-88 -171 -108 -224l-98 -261q-10 -28 -25 -85q31 -4 62.5 -6.5t67.5 -2.5q65 0 128 7l-40 -128h-441q88 182 103 223zM197 918q20 19 55 19t54 -19t19 -54q0 -36 -19.5 -55t-53.5 -19
q-36 0 -55.5 19.5t-19.5 54.5t20 54z" />
    <glyph glyph-name="Zdotaccent" unicode="&#x17c;" horiz-adv-x="509" 
d="M117 223l98 261q3 8 19 60q3 9 5.5 18.5t5.5 19.5l-100 2q-64 0 -119 -6l32 122h410q-88 -171 -108 -224l-98 -261q-10 -28 -25 -85q31 -4 62.5 -6.5t67.5 -2.5q65 0 128 7l-40 -128h-441q88 182 103 223zM197 918q20 19 55 19t54 -19t19 -54q0 -36 -19.5 -55t-53.5 -19
q-36 0 -55.5 19.5t-19.5 54.5t20 54z" />
    <glyph glyph-name="uni013B.loclMAH" horiz-adv-x="435" 
d="M59 183v333q0 55 -21 184h183q-21 -133 -21 -184v-293q0 -13 6 -71l3 -28q50 -3 98 -3q40 0 62.5 1t49.5 4l-20 -126h-361q21 143 21 183zM162 -208l11 23q27 62 36 86l28 73l59 -13l-15 -82q-10 -48 -18 -117q-42 20 -101 30z" />
    <glyph glyph-name="uni0145.loclMAH" horiz-adv-x="540" 
d="M59 183v333q0 55 -21 184h183l130 -451l-11 267q-2 55 -11 184h173q-21 -133 -21 -184v-333q0 -40 21 -183h-183l-119 433v-250q0 -40 11 -183h-173q21 143 21 183zM203 -208l11 23q27 62 36 86l28 73l59 -13l-15 -82q-10 -48 -18 -117q-42 20 -101 30z" />
    <glyph glyph-name="dotlessi" unicode="&#x131;" horiz-adv-x="259" 
d="M59 183v333q0 55 -21 184h183q-21 -133 -21 -184v-333q0 -40 21 -183h-183q21 143 21 183z" />
    <glyph glyph-name="i.loclTRK" horiz-adv-x="259" 
d="M59 183v333q0 55 -21 184h183q-21 -133 -21 -184v-333q0 -40 21 -183h-183q21 143 21 183zM76 918q20 19 55 19t54 -19t19 -54q0 -36 -19.5 -55t-53.5 -19q-36 0 -55.5 19.5t-19.5 54.5t20 54z" />
    <glyph glyph-name="zero" unicode="0" horiz-adv-x="520" 
d="M147.5 11q-50.5 26 -80 77.5t-29.5 123.5v272q0 72 29.5 124t80.5 79.5t112 27.5t112 -27.5t80.5 -79.5t29.5 -124v-272q0 -72 -29.5 -123.5t-80 -77.5t-112.5 -26t-112.5 26zM260 100q63 0 79 64l-164 203l-1 -143q-2 -124 86 -124zM346 312l-1 164q0 122 -85 122
q-71 0 -82 -83z" />
    <glyph glyph-name="one" unicode="1" horiz-adv-x="332" 
d="M132 183v356l-102 -20v100q33 7 58 29.5t31 51.5h175q-21 -129 -21 -184v-333q0 -40 21 -183h-183q21 143 21 183z" />
    <glyph glyph-name="two" unicode="2" horiz-adv-x="500" 
d="M86.5 176q35.5 76 121.5 150q99 85 99 200q0 34 -18.5 53.5t-43.5 19.5q-28 0 -48 -22.5t-20 -62.5q-43 4 -70 4q-23 0 -75 -3q0 90 49.5 144.5t160.5 54.5q205 0 205 -201q0 -54 -9 -87.5t-26 -58.5t-54 -68q-15 -18 -48 -51q-41 -42 -62 -70t-23 -55q30 0 43 -1l68 -1
q36 0 94 9q20 5 38 6l-20 -136h-397q0 100 35.5 176z" />
    <glyph glyph-name="three" unicode="3" horiz-adv-x="492" 
d="M80.5 44q-49.5 59 -50.5 170q57 -3 85 -3q27 0 67 4q0 -47 15.5 -79.5t53.5 -32.5q35 0 51.5 26t16.5 86q0 59 -14.5 87.5t-49.5 28.5q-23 0 -53 -5v120q20 -3 47 -3q23 0 35.5 5t19.5 21.5t7 49.5q0 45 -18 62t-48 17q-32 0 -47.5 -24t-16.5 -54q-29 4 -62 4
q-36 0 -83 -3q1 100 55 146.5t156 46.5q97 0 150 -43t53 -119q0 -49 -7 -78.5t-20.5 -47t-37.5 -34.5q26 -18 40.5 -35.5t23.5 -52.5t9 -98q0 -102 -47 -161.5t-164 -59.5t-166.5 59z" />
    <glyph glyph-name="four" unicode="4" horiz-adv-x="487" 
d="M253 135h-233v122q81 162 110 242q27 77 73 201h209q-15 -129 -15 -184v-260l56 5v-129q-26 3 -37 3h-16q6 -54 18 -135h-181q10 81 16 135zM256 256v240q-12 -31 -41 -100q-40 -96 -53 -140h94z" />
    <glyph glyph-name="five" unicode="5" horiz-adv-x="464" 
d="M100 20.5q-44 34.5 -54.5 77.5t-10.5 98q40 -5 68 -5q30 0 71 5q0 -50 18 -70t44 -20q28 0 48 29t20 92q0 52 -14 79.5t-45 27.5q-25 0 -58 -16l-142 -4l14 227q4 60 -12 159h369l-20 -126q-42 5 -128 5q-17 0 -56 -3q-7 -43 -11 -77l-8 -68q44 21 83 21q47 0 83 -27
t56.5 -73.5t20.5 -103.5q0 -262 -200 -262q-92 0 -136 34.5z" />
    <glyph glyph-name="six" unicode="6" horiz-adv-x="467" 
d="M136 8.5q-45 23.5 -71 64t-26 89.5l-1 360q0 84 45 138.5t146 54.5q65 0 109 -27t65.5 -68t22.5 -83q-33 4 -70 4q-27 0 -72 -5q0 23 -13.5 37.5t-40.5 14.5q-28 0 -42.5 -19.5t-14.5 -68.5v-81q48 36 112 36q19 0 40 -3q58 -8 85 -52t27 -111v-129q0 -84 -57 -129.5
t-145 -45.5q-54 0 -99 23.5zM189 129q15 -24 47 -24q27 0 39 11t14.5 27.5t2.5 45.5v80q0 30 -13.5 51t-42.5 21q-30 0 -46 -22t-16 -55v-75q0 -36 15 -60z" />
    <glyph glyph-name="seven" unicode="7" horiz-adv-x="437" 
d="M135 126q11 69 17 124q8 70 33 162.5t54 163.5q-54 -1 -119.5 -4t-101.5 -7l22 135h377q-43 -92 -76 -177t-40 -130q-16 -105 -16 -212q0 -105 16 -181h-183z" />
    <glyph glyph-name="eight" unicode="8" horiz-adv-x="483" 
d="M123 12q-48 27 -69.5 65t-21.5 72v111q0 99 91 131q-71 33 -71 99v86q0 29 19.5 61t63 55t109.5 23q69 0 110.5 -22.5t58.5 -54.5t17 -62v-86q0 -68 -76 -101q97 -39 97 -129v-111q0 -36 -17.5 -73.5t-63.5 -64t-126 -26.5q-73 0 -121 27zM177 113.5q23 -28.5 67 -28.5
q46 0 66 27.5t20 71.5v76q0 30 -20 53t-66 23q-43 0 -66.5 -24t-23.5 -52v-76q0 -42 23 -70.5zM184.5 453q20.5 -23 59.5 -23q42 0 58 21.5t16 48.5v49q0 34 -17 52.5t-57 18.5q-39 0 -59.5 -19t-20.5 -52v-49q0 -24 20.5 -47z" />
    <glyph glyph-name="nine" unicode="9" horiz-adv-x="469" 
d="M131 12q-44 27 -65.5 68t-22.5 83q33 -4 70 -4q27 0 72 5q0 -23 13.5 -37.5t40.5 -14.5q28 0 42.5 19.5t14.5 68.5v81q-43 -32 -105 -32q-13 0 -47 4q-59 8 -85.5 49.5t-26.5 108.5v129q0 84 57 129.5t145 45.5q54 0 99 -23.5t71 -64t26 -89.5l1 -360q0 -84 -45 -138.5
t-146 -54.5q-65 0 -109 27zM190.5 380q13.5 -21 42.5 -21q30 0 46 22t16 55v75q0 36 -15 60t-47 24q-27 0 -39 -11t-14.5 -27.5t-2.5 -45.5v-80q0 -30 13.5 -51z" />
    <glyph glyph-name="period" unicode="." horiz-adv-x="195" 
d="M40.5 15.5q-20.5 20.5 -20.5 58.5q0 37 20.5 57t57.5 20q36 0 56.5 -20.5t20.5 -56.5q0 -38 -20.5 -58.5t-56.5 -20.5q-37 0 -57.5 20.5z" />
    <glyph glyph-name="comma" unicode="," horiz-adv-x="201" 
d="M55.5 47.5q3.5 20.5 9.5 70.5l126 -27q-19 -33 -26 -48t-18 -45l-10 -26q-7 -19 -8 -22q-13 -30 -27 -84h-92l31 118q11 43 14.5 63.5z" />
    <glyph glyph-name="colon" unicode=":" horiz-adv-x="195" 
d="M40.5 380q-20.5 21 -20.5 58q0 38 20.5 57.5t57.5 19.5t57 -20.5t20 -56.5q0 -38 -20.5 -58.5t-56.5 -20.5q-37 0 -57.5 21zM40.5 121q20.5 20 57.5 20q36 0 56.5 -20.5t20.5 -56.5q0 -38 -20.5 -58.5t-56.5 -20.5q-37 0 -57.5 20.5t-20.5 58.5q0 37 20.5 57z" />
    <glyph glyph-name="semicolon" unicode=";" horiz-adv-x="236" 
d="M65.5 47.5q3.5 20.5 9.5 70.5l126 -27q-19 -33 -26 -48t-18 -45l-10 -26q-7 -19 -8 -22q-13 -30 -27 -84h-92l31 118q11 43 14.5 63.5zM81.5 495.5q20.5 19.5 57.5 19.5t57 -20.5t20 -56.5q0 -38 -20.5 -58.5t-56.5 -20.5q-37 0 -57.5 21t-20.5 58q0 38 20.5 57.5z" />
    <glyph glyph-name="ellipsis" unicode="&#x2026;" horiz-adv-x="195" 
d="M40.5 15.5q-20.5 20.5 -20.5 58.5q0 37 20.5 57t57.5 20q36 0 56.5 -20.5t20.5 -56.5q0 -38 -20.5 -58.5t-56.5 -20.5q-37 0 -57.5 20.5z" />
    <glyph glyph-name="exclam" unicode="!" horiz-adv-x="222" 
d="M41 516q0 55 -21 184h182q-21 -133 -21 -184q0 -86 -4 -296h-131q-5 210 -5 296zM57.5 121q20.5 20 57.5 20q36 0 56.5 -20.5t20.5 -56.5q0 -38 -20.5 -58.5t-56.5 -20.5q-37 0 -57.5 20.5t-20.5 58.5q0 37 20.5 57z" />
    <glyph glyph-name="exclamdown" unicode="&#xa1;" horiz-adv-x="222" 
d="M41 6q0 86 5 296h131q4 -210 4 -296q0 -51 21 -184h-182q21 129 21 184zM57.5 516.5q20.5 20.5 57.5 20.5q36 0 56.5 -20.5t20.5 -58.5q0 -36 -20.5 -56.5t-56.5 -20.5q-37 0 -57.5 20t-20.5 57q0 38 20.5 58.5z" />
    <glyph glyph-name="question" unicode="?" horiz-adv-x="418" 
d="M174.5 388q15.5 33 43.5 67q17 21 26 36.5t13 33.5q2 7 2 22q0 25 -13.5 41t-39.5 16q-47 0 -47 -81q-42 7 -67 7q-42 0 -72 -6q0 81 45.5 136t136.5 55q88 0 142 -41t54 -113q0 -41 -14.5 -70t-43.5 -66q-28 -38 -41.5 -64t-13.5 -64v-99h-126v104q0 53 15.5 86z
M170.5 131q20.5 20 57.5 20q36 0 56.5 -20.5t20.5 -56.5q0 -38 -20.5 -58.5t-56.5 -20.5q-37 0 -57.5 20.5t-20.5 58.5q0 37 20.5 57z" />
    <glyph glyph-name="questiondown" unicode="&#xbf;" horiz-adv-x="418" 
d="M74 -119q-54 41 -54 113q0 41 14.5 70t43.5 66q28 38 41.5 64t13.5 64v99h126v-104q0 -53 -15.5 -86t-43.5 -67q-17 -21 -26 -36.5t-13 -33.5q-2 -7 -2 -22q0 -25 13.5 -41t39.5 -16q47 0 47 81q42 -7 67 -7q42 0 72 6q0 -81 -45.5 -136t-136.5 -55q-88 0 -142 41z
M133.5 539.5q20.5 20.5 56.5 20.5q37 0 57.5 -20.5t20.5 -58.5q0 -37 -20.5 -57t-57.5 -20q-36 0 -56.5 20.5t-20.5 56.5q0 38 20.5 58.5z" />
    <glyph glyph-name="periodcentered" unicode="&#xb7;" horiz-adv-x="195" 
d="M40.5 189.5q-20.5 20.5 -20.5 58.5q0 37 20.5 57t57.5 20q36 0 56.5 -20.5t20.5 -56.5q0 -38 -20.5 -58.5t-56.5 -20.5q-37 0 -57.5 20.5z" />
    <glyph glyph-name="bullet" unicode="&#x2022;" horiz-adv-x="341" 
d="M59.5 194q-39.5 40 -39.5 112q0 73 40 111t112 38q71 0 110 -39.5t39 -109.5q0 -73 -39.5 -112.5t-109.5 -39.5q-73 0 -112.5 40z" />
    <glyph glyph-name="asterisk" unicode="*" horiz-adv-x="404" 
d="M156 478q2 22 4 52q-6 -4 -12.5 -8t-13.5 -10q-49 -34 -64 -43l-50 87q20 11 63 31l35 17l-47 23q-45 21 -51 24l49 88q41 -27 59 -40l32 -22l-9 108h102l-4 -52q-4 -47 -5 -57l36 25q5 4 54 38l50 -88q-40 -21 -80 -38l-18 -9l20 -10q44 -20 78 -38l-49 -87l-59 39
l-32 22l3 -34q4 -37 6 -74h-102q5 53 5 56z" />
    <glyph glyph-name="numbersign" unicode="#" horiz-adv-x="727" 
d="M376 147h-116q-8 -53 -16 -162h-183q40 107 56 160l-97 -3v132l125 -4l27 126q-41 0 -113 -3v132l140 -4q10 58 16 164h183q-41 -105 -57 -165h117q9 58 16 165h183q-40 -104 -57 -163q43 0 107 3v-132l-135 4l-22 -105l-5 -22l123 4v-132l-149 4q-8 -53 -16 -161h-183
q41 110 56 162zM404 269l28 129h-118l-28 -129h118z" />
    <glyph glyph-name="slash" unicode="/" horiz-adv-x="449" 
d="M98 138l17 67q50 200 86 335q15 62 35 222h193q-61 -155 -77 -222q-36 -135 -86 -335l-17 -67q-12 -48 -36 -220h-193q66 173 78 220z" />
    <glyph glyph-name="backslash" unicode="\" horiz-adv-x="449" 
d="M200 138l-17 67q-50 200 -86 335q-16 67 -77 222h193q20 -160 35 -222q36 -135 86 -335l17 -67q12 -47 78 -220h-193q-24 173 -36 220z" />
    <glyph glyph-name="hyphen" unicode="-" horiz-adv-x="263" 
d="M74 388q24 -1 56 -1q30 0 54 1t59 4v-126q-33 3 -57 4t-56 1q-31 0 -55 -1t-55 -4v126q30 -3 54 -4z" />
    <glyph glyph-name="endash" unicode="&#x2013;" horiz-adv-x="461" 
d="M67.5 392q18.5 -1 29.5 -2q65 -5 132 -5q44 0 130 4q8 1 82 5v-131q10 0 -80 4q-80 4 -132 4q-53 0 -133 -4q-12 -1 -30 -2t-46 -2v131q29 -1 47.5 -2z" />
    <glyph glyph-name="emdash" unicode="&#x2014;" horiz-adv-x="873" 
d="M194 387q134 -6 240 -6q86 0 222 6q154 6 197 7v-139q-120 3 -189 7q-128 6 -230 6q-103 0 -233 -6q-68 -4 -181 -7v139q107 -3 174 -7z" />
    <glyph glyph-name="underscore" unicode="_" horiz-adv-x="461" 
d="M67.5 -25q18.5 -1 29.5 -2q65 -5 132 -5q44 0 130 4q8 1 82 5v-133q10 0 -80 4q-80 4 -132 4q-53 0 -133 -4q-12 -1 -30 -2t-46 -2v133q29 -1 47.5 -2z" />
    <glyph glyph-name="parenleft" unicode="(" horiz-adv-x="297" 
d="M85.5 41.5q-44.5 56.5 -57.5 170.5q-8 74 -8 139q0 64 8 133q12 99 57.5 155t126.5 56h65v-117h-25q-49 0 -73 -32t-24 -90l-1 -232q0 -58 26 -90.5t72 -32.5h25v-116h-65q-82 0 -126.5 56.5z" />
    <glyph glyph-name="parenright" unicode=")" horiz-adv-x="297" 
d="M20 101h25q46 0 72 32.5t26 90.5l-1 232q0 58 -24 90t-73 32h-25v117h65q81 0 126.5 -56t57.5 -155q8 -69 8 -133q0 -65 -8 -139q-13 -114 -57.5 -170.5t-126.5 -56.5h-65v116z" />
    <glyph glyph-name="braceleft" unicode="{" horiz-adv-x="374" 
d="M74.5 411q19.5 16 19.5 50q0 29 -3 53q-3 54 -3 73q0 36 1 60q4 60 42.5 84.5t91.5 23.5l131 -3l-2 -112l-26 1q-52 2 -72 -8t-21 -42q-1 -28 1 -66q2 -28 2 -47q0 -23 -1 -37q-4 -73 -89 -105q40 -15 63.5 -41.5t25.5 -64.5q1 -14 1 -37q0 -18 -2 -46q-2 -38 -1 -66
q1 -32 21 -42t72 -8l26 1l2 -112l-131 -3q-53 -1 -91.5 23.5t-42.5 84.5q-1 24 -1 59q0 19 3 73q3 24 3 52q0 36 -19.5 52t-54.5 21v108q35 5 54.5 21z" />
    <glyph glyph-name="braceright" unicode="}" horiz-adv-x="374" 
d="M299.5 261q-19.5 -16 -19.5 -50q0 -29 3 -53q3 -54 3 -73q0 -36 -1 -60q-4 -60 -42.5 -84.5t-91.5 -23.5l-131 3l2 112l26 -1q52 -2 72 8t21 42q1 28 -1 66q-2 28 -2 46q0 23 1 37q2 38 25.5 64.5t63.5 41.5q-85 32 -89 105q-1 14 -1 37q0 19 2 47q2 38 1 66
q-1 32 -21 42t-72 8l-26 -1l-2 112l131 3q53 1 91.5 -23.5t42.5 -84.5q1 -24 1 -59q0 -19 -3 -73q-3 -24 -3 -52q0 -36 19.5 -52t54.5 -21v-108q-35 -5 -54.5 -21z" />
    <glyph glyph-name="bracketleft" unicode="[" horiz-adv-x="392" 
d="M41 141v399q0 66 -21 220h333l-20 -120q-22 3 -39 4t-39 1q-27 0 -46.5 -2t-26.5 -3v-599q39 -4 82 -4q54 0 108 6l-20 -122h-332q21 172 21 220z" />
    <glyph glyph-name="bracketright" unicode="]" horiz-adv-x="392" 
d="M128 37q43 0 82 4v599q-7 1 -26.5 3t-46.5 2q-22 0 -39 -1t-39 -4l-20 120h333q-21 -154 -21 -220v-399q0 -48 21 -220h-332l-20 122q54 -6 108 -6z" />
    <glyph glyph-name="quotesinglbase" unicode="&#x201a;" horiz-adv-x="221" 
d="M55.5 47.5q3.5 20.5 9.5 70.5l126 -27q-19 -33 -26 -48t-18 -45l-10 -26q-7 -19 -8 -22q-13 -30 -27 -84h-92l31 118q11 43 14.5 63.5z" />
    <glyph glyph-name="quotedblbase" unicode="&#x201e;" horiz-adv-x="221" 
d="M55.5 47.5q3.5 20.5 9.5 70.5l126 -27q-19 -33 -26 -48t-18 -45l-10 -26q-7 -19 -8 -22q-13 -30 -27 -84h-92l31 118q11 43 14.5 63.5z" />
    <glyph glyph-name="quotedblleft" unicode="&#x201c;" horiz-adv-x="386" 
d="M209 508q7 15 18 45l10 26q7 18 19 60q3 11 8 28t13 43l89 -25l-33 -148q-10 -41 -13.5 -60.5t-9.5 -73.5l-127 57q19 33 26 48zM46 554q7 15 18 45l10 26q7 18 19 60q3 11 8 28t13 43l89 -25l-33 -148q-10 -41 -13.5 -60.5t-9.5 -73.5l-127 57q19 33 26 48z" />
    <glyph glyph-name="quotedblright" unicode="&#x201d;" horiz-adv-x="386" 
d="M183 425l33 148q10 41 13.5 60.5t9.5 73.5l127 -57q-19 -33 -26 -48t-18 -45l-10 -26q-7 -18 -19 -60q-3 -11 -8 -28t-13 -43zM53 619q10 41 13.5 60.5t9.5 73.5l127 -57q-19 -33 -26 -48t-18 -45l-10 -26q-7 -18 -19 -60q-3 -11 -8 -28t-13 -43l-89 25z" />
    <glyph glyph-name="quoteleft" unicode="&#x2018;" horiz-adv-x="223" 
d="M46 527q7 15 18 45l10 26q7 18 19 60q3 11 8 28t13 43l89 -25l-33 -148l-8 -30q-5 -18 -8.5 -37t-6.5 -51l-127 41q19 33 26 48z" />
    <glyph glyph-name="quoteright" unicode="&#x2019;" horiz-adv-x="223" 
d="M20 460l33 138l8 30q5 18 8.5 37t6.5 51l127 -41q-19 -33 -26 -48t-18 -45l-10 -26q-27 -74 -42 -121z" />
    <glyph glyph-name="guillemotleft" unicode="&#xab;" horiz-adv-x="592" 
d="M186 147q-45 62 -75 95q-27 28 -42.5 41.5t-48.5 39.5q33 26 48.5 39.5t42.5 41.5q30 33 75 95l22 31l117 -87q-57 -49 -79 -69t-47 -51q25 -31 47 -51t79 -69l-117 -87zM315.5 362.5q15.5 13.5 42.5 41.5q30 33 75 95l22 31l117 -87q-57 -49 -79 -69t-47 -51
q25 -31 47 -51t79 -69l-117 -87l-22 31q-45 62 -75 95q-27 28 -42.5 41.5t-48.5 39.5q33 26 48.5 39.5z" />
    <glyph glyph-name="guillemotright" unicode="&#xbb;" horiz-adv-x="592" 
d="M99 272q22 20 47 51q-25 31 -47 51t-79 69l117 87l22 -31q45 -62 75 -95q27 -28 42.5 -41.5t48.5 -39.5q-33 -26 -48.5 -39.5t-42.5 -41.5q-30 -33 -75 -95l-22 -31l-117 87q57 49 79 69zM346 272q22 20 47 51q-25 31 -47 51t-79 69l117 87l22 -31q45 -62 75 -95
q27 -28 42.5 -41.5t48.5 -39.5q-33 -26 -48.5 -39.5t-42.5 -41.5q-30 -33 -75 -95l-22 -31l-117 87q57 49 79 69z" />
    <glyph glyph-name="guilsinglleft" unicode="&#x2039;" horiz-adv-x="345" 
d="M186 90q-45 62 -75 95q-27 28 -42.5 41.5t-48.5 39.5q33 26 48.5 39.5t42.5 41.5q30 33 75 95l22 31l117 -87q-57 -49 -79 -69t-47 -51q25 -31 47 -51t79 -69l-117 -87z" />
    <glyph glyph-name="guilsinglright" unicode="&#x203a;" horiz-adv-x="345" 
d="M99 215q22 20 47 51q-25 31 -47 51t-79 69l117 87l22 -31q45 -62 75 -95q27 -28 42.5 -41.5t48.5 -39.5q-33 -26 -48.5 -39.5t-42.5 -41.5q-30 -33 -75 -95l-22 -31l-117 87q57 49 79 69z" />
    <glyph glyph-name="quotedbl" unicode="&#x22;" horiz-adv-x="351" 
d="M200 625.5q-2 21.5 -6 49.5l-5 30l142 -1q-10 -38 -13 -54.5t-5 -40.5t-3 -34q-3 -32 -3 -127h-104v122q-1 34 -3 55.5zM162 704q-10 -38 -13 -54.5t-5 -40.5t-3 -34q-3 -32 -3 -127h-104v122q-1 34 -3 55.5t-6 49.5l-5 30z" />
    <glyph glyph-name="quotesingle" unicode="'" horiz-adv-x="182" 
d="M31 625.5q-2 21.5 -6 49.5l-5 30l142 -1q-10 -38 -13 -54.5t-5 -40.5t-3 -34q-3 -32 -3 -127h-104v122q-1 34 -3 55.5z" />
    <glyph glyph-name="at" unicode="@" horiz-adv-x="806" 
d="M211 -15.5q-92 51.5 -141.5 145t-49.5 217.5q0 128 47.5 219.5t136 140t210.5 48.5q193 0 282.5 -109t89.5 -299v-48q0 -83 -23.5 -125.5t-55.5 -54.5t-72 -12q-31 0 -57 13t-45 33q-45 -42 -133 -46q-100 5 -147 57t-47 159v40q6 104 48.5 161.5t135.5 57.5
q41 0 69 -9.5t46 -29.5v25h90v-226q0 -90 13.5 -122t41.5 -32q25 0 34 25t9 86l1 48q0 156 -67.5 232t-212.5 76q-76 0 -139 -31t-101.5 -100t-38.5 -177q0 -161 69.5 -236.5t223.5 -75.5q23 0 34 1l6 -102q-13 -1 -40 -1q-125 0 -217 51.5zM332 232q20 -34 68 -34t73.5 15
t31.5 55v123q0 58 -26.5 79.5t-78.5 21.5q-47 0 -66 -26.5t-20 -71.5l-1 -68q-1 -60 19 -94z" />
    <glyph glyph-name="ampersand" unicode="&#x26;" horiz-adv-x="673" 
d="M132 10.5q-52 25.5 -82 70t-30 98.5v91q0 39 22 76t51 49q-20 25 -36.5 60t-16.5 62v69q0 29 17 58.5t56 50t100 20.5q56 0 93 -20.5t54.5 -50.5t17.5 -58v-14q-21 3 -52 3q-29 0 -49 -3q-5 29 -19 42.5t-45 13.5q-30 0 -45.5 -21t-15.5 -48v-25q0 -45 53 -106t153 -155
l53 -50q17 21 32 46.5t21 41.5l90 -74q-6 -5 -17.5 -14.5t-27.5 -29.5q-14 -18 -27 -32l171 -161h-141l-89 73q-29 -34 -49 -51t-50 -27t-77 -10q-63 0 -115 25.5zM149.5 145.5q14.5 -27.5 38 -42t48.5 -14.5q62 0 106 47l-172 163q-18 -10 -26.5 -34t-8.5 -55
q0 -37 14.5 -64.5z" />
    <glyph glyph-name="paragraph" unicode="&#xb6;" horiz-adv-x="699" 
d="M507 147v397q0 65 -21 218h193q-21 -158 -21 -218v-397q0 -47 21 -218h-193q21 170 21 218zM84.5 705.5q64.5 56.5 184.5 56.5h172q-21 -158 -21 -218v-397q0 -48 21 -218h-193q21 170 21 218v198q-120 0 -184.5 56.5t-64.5 151.5q0 96 64.5 152.5z" />
    <glyph glyph-name="section" unicode="&#xa7;" horiz-adv-x="405" 
d="M97 -20q-43 22 -61 55t-16 66q32 -5 58 -5q37 0 63 6q-4 -20 12 -37t52 -17q33 0 51 16t18 45q0 9 -1 14q-3 22 -19.5 35.5t-54.5 30.5l-41 21q-53 28 -86 70t-33 87q0 32 9.5 57t24.5 50q-44 44 -43 103q3 75 46.5 113.5t124.5 38.5q57 0 94.5 -19.5t54.5 -50t16 -62.5
q-33 5 -59 5q-37 0 -62 -6q3 18 -11.5 30.5t-42.5 12.5q-22 0 -36 -16t-14 -43q0 -10 1 -16q3 -22 19.5 -35.5t54.5 -30.5l41 -21q55 -30 89 -67.5t34 -80.5q0 -58 -38 -116q44 -44 43 -103q-6 -152 -177 -152q-68 0 -111 22zM166.5 325q19.5 -17 55.5 -37l43 -22
q13 28 13 51q0 25 -19.5 41.5t-39.5 27t-26 13.5l-37 19q-9 -25 -9 -49q0 -27 19.5 -44z" />
    <glyph glyph-name="copyright" unicode="&#xa9;" horiz-adv-x="833" 
d="M203 -17q-90 50 -136.5 145t-46.5 226q0 202 105 307t296 105q117 0 205.5 -50t137.5 -143.5t49 -218.5q0 -131 -50 -226t-139 -145t-203 -50q-128 0 -218 50zM214.5 122.5q70.5 -81.5 206.5 -81.5q134 0 202 78.5t68 234.5q0 145 -68.5 224.5t-201.5 79.5
q-142 0 -209.5 -73.5t-67.5 -230.5q0 -150 70.5 -231.5zM226 370q11 223 194 223q85 0 131 -44t62 -131q-14 2 -49 2q-34 0 -49 -2q-4 46 -26 63.5t-69 17.5t-69.5 -30.5t-23.5 -74.5l-1 -78q-1 -45 23 -78.5t71 -33.5q46 0 67 15t28 56q23 -3 51 -3q26 0 45 3
q-19 -83 -63 -123t-128 -40q-93 0 -143.5 55.5t-50.5 162.5v40z" />
    <glyph glyph-name="registered" unicode="&#xae;" horiz-adv-x="540" 
d="M85.5 337.5q-65.5 66.5 -65.5 185.5q0 122 65.5 185t185.5 63q118 0 183.5 -66t65.5 -182q0 -119 -66 -185.5t-183 -66.5q-120 0 -185.5 66.5zM143 389q45 -48 128 -48t126.5 46.5t43.5 135.5q0 84 -44 131t-126 47q-87 0 -130 -43.5t-43 -134.5q0 -86 45 -134zM203 482
v99q0 16 -9 76h64q26 0 44.5 -4t33 -21t14.5 -52v-10q0 -31 -7 -47t-24 -23q14 -9 19 -19.5t8 -23.5t5 -19l11 -41h-65q-1 10 -1 26q-2 35 -7 48.5t-24 19.5h-7v-11q0 -19 9 -83h-73q9 66 9 85zM289 544q6 7 6 26v10q0 32 -37 32v-75q25 0 31 7z" />
    <glyph glyph-name="trademark" unicode="&#x2122;" horiz-adv-x="562" 
d="M293 426v170q0 28 -11 104h93l39 -159l35 159h93q-11 -67 -11 -94v-170q0 -20 11 -93h-93q10 73 10 93v118l-47 -153l-47 153v-118q0 -20 10 -93h-93q11 63 11 83zM24 700h225l-10 -75q-16 2 -31 2q-17 0 -33 -2q-4 -36 -4 -50v-140q0 -21 11 -94h-99q10 73 10 94v140
q0 14 -4 50q-18 3 -32 3q-7 0 -37 -3z" />
    <glyph glyph-name="degree" unicode="&#xb0;" horiz-adv-x="335" 
d="M58.5 426.5q-38.5 39.5 -38.5 109.5q0 72 39 109t109 37t108.5 -39t38.5 -107q0 -71 -39 -110t-108 -39q-71 0 -109.5 39.5zM121.5 483.5q16.5 -18.5 46.5 -18.5q28 0 45 19.5t17 51.5q0 33 -17 51.5t-45 18.5q-29 0 -46 -19.5t-17 -50.5q0 -34 16.5 -52.5z" />
    <glyph glyph-name="bar" unicode="|" horiz-adv-x="233" 
d="M41 87v397q0 65 -21 218h193q-21 -158 -21 -218v-397q0 -48 21 -218h-193q21 171 21 218z" />
    <glyph glyph-name="brokenbar" unicode="&#xa6;" horiz-adv-x="186" 
d="M24 455q1 36 1 84q0 47 -1 82.5t-4 81.5h146q-3 -46 -4 -81.5t-1 -82.5q0 -44 1 -80.5t4 -88.5h-146q3 49 4 85zM24 -43q1 36 1 84q0 47 -1 82.5t-4 81.5h146q-3 -46 -4 -81.5t-1 -82.5q0 -44 1 -80.5t4 -88.5h-146q3 49 4 85z" />
    <glyph glyph-name="dagger" unicode="&#x2020;" horiz-adv-x="400" 
d="M128 264q4 86 5 189q-11 0 -41 -2q-10 -1 -27 -2t-45 -2v130l113 -7q-1 49 -4 82q-1 11 -2 29.5t-2 49.5h150q-1 -34 -5 -77q-2 -32 -4 -84l114 7v-130q5 0 -74 4q-28 2 -40 2q1 -114 6 -192l3 -57h-150z" />
    <glyph glyph-name="daggerdbl" unicode="&#x2021;" horiz-adv-x="520" 
d="M187 289q2 18 2.5 31t0.5 22q-65 -1 -144 -6l-26 -1v130l173 -8v94q-67 -1 -147 -6l-26 -1v130l170 -8l-3 59q0 10 -2 44h150l-6 -103l171 8v-130q-11 1 -32 1q-78 5 -142 6v-94l174 8v-130l-171 7q4 -67 6 -100h-150q2 36 2 47z" />
    <glyph glyph-name="dollar" unicode="$" horiz-adv-x="462" 
d="M171 -10q-89 17 -120 78.5t-31 131.5q19 -3 79 -3q49 0 70 3q0 -39 17.5 -65t50.5 -26q29 0 47.5 18.5t18.5 50.5q0 12 -3 25q-7 28 -34.5 54.5t-77.5 61.5q-52 39 -83 66t-53.5 65t-22.5 83q0 68 35 114t96 61q-3 42 -7 80h130l-7 -79q48 -10 82.5 -36t51.5 -60.5
t17 -68.5q-24 5 -66 5q-44 0 -67 -6q0 31 -19.5 49.5t-45.5 18.5q-27 0 -47 -21.5t-20 -61.5q0 -31 29 -60.5t91 -75.5q51 -38 83 -65.5t54.5 -62t22.5 -73.5q0 -94 -36.5 -143t-120.5 -60l8 -88h-130z" />
    <glyph glyph-name="Euro" unicode="&#x20ac;" horiz-adv-x="467" 
d="M257 12q-69 26 -113 77t-52 123v2l-72 -4v109l65 -4v66q-73 -4 -65 -4v109l72 -4v2q7 70 49 122.5t103.5 80.5t125.5 28h49t28 -1v-108q-3 1 -13.5 1.5t-23.5 0.5q-81 0 -132 -26t-51 -96v-8q47 1 88 4l72 4v-109l-48 3q-60 3 -112 4l-1 -73q48 1 88 4l73 4v-109l-48 3
q-60 3 -113 4v-3q0 -72 51 -97.5t133 -25.5q32 0 37 1v-106h-37q-84 0 -153 26z" />
    <glyph glyph-name="sterling" unicode="&#xa3;" horiz-adv-x="516" 
d="M85.5 173.5q19.5 21.5 19.5 70.5q0 39 -7 97q-10 -1 -26 -2t-41 -2v109l57 -3q-1 19 -1 64q0 36 1 56q6 85 60 119.5t131 34.5q21 0 42.5 -1.5t31.5 -1.5l27 -2l-3 -102l-37 1q-54 2 -78 -4.5t-32 -25t-8 -60.5q0 -25 4 -83q42 0 81 3q11 2 67 5v-109l-62 4l-78 3
q1 -27 1 -97q-1 -99 -85 -147l124 2q52 1 100 4.5t122 11.5l-43 -117h-433v143q46 8 65.5 29.5z" />
    <glyph glyph-name="plus" unicode="+" horiz-adv-x="437" 
d="M152 181q1 17 2 27l3 70l-70 -3q-10 -1 -26 -2t-41 -2v130l75 -4q25 -2 62 -4l-3 72q-1 10 -2 26.5t-2 42.5h137q-1 -25 -2 -41.5t-2 -27.5q-2 -29 -4 -72l46 3l92 5v-130q-27 1 -43.5 2t-26.5 2l-68 3l4 -76l4 -65h-137q1 27 2 44z" />
    <glyph glyph-name="minus" unicode="&#x2212;" horiz-adv-x="437" 
d="M64.5 378q17.5 -1 28.5 -2q60 -5 124 -5q42 0 122 4q8 1 78 5v-130q-29 1 -47 2t-28 2q-74 4 -125 4q-49 0 -125 -4q-83 -4 -72 -4v130q27 -1 44.5 -2z" />
    <glyph glyph-name="multiply" unicode="&#xd7;" horiz-adv-x="413" 
d="M66 239q50 43 60 53q-14 14 -48 43l-58 52l92 91l50 -55q23 -28 45 -50q14 15 41 46l53 59l92 -91l-58 -52q-34 -29 -48 -43q10 -10 60 -53q14 -14 46 -41l-92 -92q-7 8 -59 66l-35 39l-44 -48l-51 -57l-92 92q32 27 46 41z" />
    <glyph glyph-name="divide" unicode="&#xf7;" horiz-adv-x="462" 
d="M66 368q18 -1 31 -2q65 -5 133 -5q44 0 130 4q8 1 82 5v-130q-31 1 -49.5 2t-29.5 2q-80 4 -133 4t-133 -4q-11 -1 -29.5 -2t-47.5 -2v130q28 -1 46 -2zM170.5 162q20.5 20 57.5 20q36 0 56.5 -20.5t20.5 -56.5q0 -38 -20.5 -58.5t-56.5 -20.5q-37 0 -57.5 20.5
t-20.5 58.5q0 37 20.5 57zM170.5 568q20.5 20 57.5 20q36 0 56.5 -20.5t20.5 -56.5q0 -38 -20.5 -58.5t-56.5 -20.5q-37 0 -57.5 20.5t-20.5 58.5q0 37 20.5 57z" />
    <glyph glyph-name="equal" unicode="=" horiz-adv-x="437" 
d="M64.5 512q17.5 -1 28.5 -2q60 -5 124 -5q42 0 122 4q8 1 78 5v-130q-29 1 -47 2t-28 2q-74 4 -125 4q-49 0 -125 -4q-83 -4 -72 -4v130q27 -1 44.5 -2zM20 294q27 -1 44.5 -2t28.5 -2q60 -5 124 -5q42 0 122 4q8 1 78 5v-130q-29 1 -47 2t-28 2q-74 4 -125 4
q-49 0 -125 -4q-83 -4 -72 -4v130z" />
    <glyph glyph-name="notequal" unicode="&#x2260;" horiz-adv-x="437" 
d="M90 166l-21 -1l-49 -3v130q37 -1 78 -5q11 0 35 -2l30 95l-74 -3q-10 -1 -26.5 -2t-42.5 -2v130q25 -1 41.5 -2t27.5 -2q40 -4 108 -5q9 38 17 85h153q-21 -44 -37 -81l87 5v-130l-129 7l-31 -97q43 2 74 4l86 5v-130q5 0 -74 4q-74 4 -119 4l-19 -89h-153z" />
    <glyph glyph-name="greater" unicode="&#x3e;" horiz-adv-x="479" 
d="M398 210q-80 -36 -154 -76q-49 -25 -109 -61q-76 -44 -115 -64v157q194 83 369 166q-186 87 -369 165v157q39 -20 115 -64q60 -36 109 -61q74 -40 154 -76l61 -27v-189z" />
    <glyph glyph-name="less" unicode="&#x3c;" horiz-adv-x="479" 
d="M81 453q80 36 154 76q49 25 109 61q76 44 115 64v-157q-183 -78 -369 -165q175 -83 369 -166v-157q-39 20 -115 64q-60 36 -109 61q-74 40 -154 76l-61 27v189z" />
    <glyph glyph-name="greaterequal" unicode="&#x2265;" horiz-adv-x="527" 
d="M420 324q-78 -18 -157 -40q-71 -20 -138 -42l-105 -33v135l87 19q15 3 56.5 12.5t99.5 26.5q68 20 105 32l-105 31q-80 23 -164 41l-79 18v135l105 -33q67 -22 138 -42q79 -22 157 -40l87 -20v-180zM20 179q32 -1 53.5 -2t35.5 -2q73 -5 151 -5q50 0 150 4q12 1 97 5
v-130q-37 1 -59.5 2t-35.5 2q-92 4 -152 4t-152 -4q-98 -4 -88 -4v130z" />
    <glyph glyph-name="lessequal" unicode="&#x2264;" horiz-adv-x="527" 
d="M107 544q78 18 157 40q71 20 138 42l105 33v-135l-79 -18q-84 -18 -164 -41l-105 -31q38 -12 105 -32q58 -17 99.5 -26.5t56.5 -12.5l87 -19v-135l-105 33q-67 22 -138 42q-79 22 -157 40l-87 20v180zM20 179q85 -4 97 -5q100 -4 150 -4q78 0 151 5q14 1 35.5 2t53.5 2
v-130q10 0 -88 4q-92 4 -152 4t-152 -4q-13 -1 -35.5 -2t-59.5 -2v130z" />
    <glyph glyph-name="plusminus" unicode="&#xb1;" horiz-adv-x="477" 
d="M60 518q17 -1 30 -2l80 -4l-3 56q-1 9 -2 22.5t-2 34.5h150l-4 -62q-2 -20 -4 -51l61 3q4 0 91 5v-130l-62 3q-36 2 -90 4l3 -33l5 -76h-150l7 109q-54 -2 -92 -4l-58 -3v130q23 -1 40 -2zM20 229q23 -1 40 -2t30 -2q77 -5 147 -5q62 0 152 5q12 1 29 2t39 2v-130l-71 3
q-80 5 -149 5q-70 0 -150 -5l-67 -3v130z" />
    <glyph glyph-name="approxequal" unicode="&#x2248;" horiz-adv-x="543" 
d="M298 356.5q-28 23.5 -57 67.5q-19 29 -33.5 43.5t-34.5 14.5q-34 0 -42.5 -20.5t-8.5 -62.5v-14h-102v56q0 33 12.5 67t41.5 58t76 24q38 0 64.5 -13t43 -31t36.5 -47q20 -30 35 -44t37 -14q33 0 44 27.5t11 76.5v15h102v-78q0 -32 -15 -66.5t-48.5 -58.5t-85.5 -24
q-48 0 -76 23.5zM20 188q0 33 12.5 67t41.5 58t76 24q38 0 64.5 -13t43 -31t36.5 -47q20 -30 35 -44t37 -14q34 0 44.5 19.5t10.5 64.5v15h102v-58q0 -32 -15 -66.5t-48.5 -58.5t-85.5 -24q-48 0 -76 23.5t-57 67.5q-19 29 -33.5 43.5t-34.5 14.5q-24 0 -35 -12t-13.5 -32
t-2.5 -59v-14h-102v76z" />
    <glyph glyph-name="asciitilde" unicode="~" horiz-adv-x="543" 
d="M298 196.5q-28 23.5 -57 67.5q-19 29 -33.5 43.5t-34.5 14.5q-24 0 -35 -12t-13.5 -32t-2.5 -59v-14h-102v76q0 33 12.5 67t41.5 58t76 24q38 0 63.5 -13t40.5 -31t33 -47q17 -30 31 -44t36 -14q32 0 46.5 14t17.5 33.5t3 56.5v15h102v-78q0 -32 -15 -66.5t-48.5 -58.5
t-85.5 -24q-48 0 -76 23.5z" />
    <glyph glyph-name="logicalnot" unicode="&#xac;" horiz-adv-x="507" 
d="M68 342q19 -1 31 -2q68 -5 138 -5q46 0 134 4q7 1 86 5v-332q-21 3 -68 3q-48 0 -72 -3q0 -5 4 42q4 44 4 72q0 36 -5 74q0 5 -2 21q-21 1 -81 1q-55 0 -139 -4q-11 -1 -29.5 -2t-48.5 -2v130q29 -1 48 -2z" />
    <glyph glyph-name="asciicircum" unicode="^" horiz-adv-x="451" 
d="M70.5 508.5q14.5 16.5 42.5 54.5q28 37 40 56t35 63q16 -4 36 -4q22 0 39 4q23 -44 35 -63t40 -56q28 -38 42.5 -54.5t50.5 -53.5l-88 -61q-37 61 -76 121q-34 43 -41 51q-24 -28 -41 -52q-24 -34 -40 -59.5t-37 -60.5l-88 61q36 37 50.5 53.5z" />
    <glyph glyph-name="infinity" unicode="&#x221e;" horiz-adv-x="926" 
d="M617 174q-41 18 -73 42.5t-81 68.5q-49 -44 -81 -68.5t-73 -42.5t-86 -18q-98 0 -150.5 47t-52.5 138q0 94 53 140.5t150 46.5q45 0 85.5 -18t72.5 -42.5t82 -69.5q50 45 82 69.5t72.5 42.5t85.5 18q97 0 150 -46.5t53 -140.5q0 -91 -52.5 -138t-150.5 -47q-45 0 -86 18z
M169 294.5q25 -16.5 64 -16.5q38 0 61.5 6t42 18t52.5 39l-27 19q-37 26 -61.5 36t-67.5 10q-41 0 -65 -16t-24 -49q0 -30 25 -46.5zM589.5 302q18.5 -12 42 -18t61.5 -6q39 0 64 16.5t25 46.5q0 33 -24 49t-65 16q-43 0 -67.5 -10t-61.5 -36l-27 -19q34 -27 52.5 -39z" />
    <glyph glyph-name="integral" unicode="&#x222b;" horiz-adv-x="501" 
d="M88 72q22 0 33.5 9.5t16.5 30.5q5 29 20 183q26 274 44 362q14 60 58.5 84.5t94.5 19.5l126 -13l-19 -103l-25 6q-17 5 -37 5q-25 0 -37.5 -13.5t-19.5 -41.5q-4 -19 -23 -192q-28 -279 -43 -348q-9 -50 -66.5 -77.5t-124.5 -27.5q-37 0 -66 9l13 115q35 -8 55 -8z" />
    <glyph glyph-name="product" unicode="&#x220f;" horiz-adv-x="756" 
d="M444 135v397q0 36 -7 99h-116q-7 -65 -7 -99v-397q0 -47 21 -217h-193q21 170 21 217v397q0 24 -6 96q-11 1 -39 1q-22 0 -39 -1t-39 -4l-20 126h716l-20 -126q-22 3 -39 4t-39 1q-26 0 -36 -1q-7 -63 -7 -96v-397q0 -47 21 -217h-193q21 170 21 217z" />
    <glyph glyph-name="summation" unicode="&#x2211;" horiz-adv-x="459" 
d="M76 63q8 27 38 97q6 17 15 38.5t18 46.5q5 14 20 49t22 50q-1 3 -18.5 42.5t-23.5 57.5q-9 25 -18 46.5t-15 38.5q-30 70 -38 97q-9 29 -56 100h397l-24 -135q-50 5 -92 5q-21 0 -49 -2l96 -249v-1l-96 -250q18 -1 59 -1q64 0 128 6l-24 -136h-395q46 71 56 100z" />
    <glyph glyph-name="radical" unicode="&#x221a;" horiz-adv-x="744" 
d="M45 294q-7 24 -16.5 55.5t-8.5 31.5h171l5 -22q42 -194 77 -297h7q52 343 86 539.5t36 196.5h322l-39 -124q-41 5 -76 5q-25 0 -73 -5q-10 -33 -14 -54l-115 -677h-267l-69 260z" />
    <glyph glyph-name="partialdiff" unicode="&#x2202;" horiz-adv-x="519" 
d="M140 11q-59 26 -89.5 71.5t-30.5 104.5v109q2 59 35.5 93.5t100.5 47.5q36 6 68 6q42 0 75.5 -9.5t54.5 -25.5v82q0 62 -45 95t-144 48l31 111q303 -43 303 -252l-1 -330q0 -52 -32 -92.5t-82.5 -62.5t-101.5 -22q-83 0 -142 26zM203.5 122.5q28.5 -21.5 64.5 -21.5
q35 0 60 19t25 48v80q0 34 -26.5 56t-66.5 22q-36 0 -60.5 -22t-24.5 -55v-66q0 -39 28.5 -60.5z" />
    <glyph glyph-name="percent" unicode="%" horiz-adv-x="797" 
d="M226 182l21 35q128 214 180 299q30 51 89 184h183q-99 -129 -131 -184q-52 -85 -180 -299l-21 -35q-25 -39 -90 -182h-183q107 143 132 182zM62.5 674q42.5 41 120.5 41q76 0 118 -43t42 -119t-42.5 -119t-117.5 -43q-78 0 -120.5 43t-42.5 119q0 80 42.5 121zM122 485.5
q22 -24.5 61 -24.5q36 0 58 25.5t22 66.5q0 45 -21.5 68t-58.5 23q-39 0 -61 -25t-22 -66q0 -43 22 -67.5zM496.5 270q42.5 41 120.5 41q76 0 118 -43t42 -119t-42.5 -119t-117.5 -43q-78 0 -120.5 43t-42.5 119q0 80 42.5 121zM556 81.5q22 -24.5 61 -24.5q36 0 58 25.5
t22 66.5q0 45 -21.5 68t-58.5 23q-39 0 -61 -25t-22 -66q0 -43 22 -67.5z" />
    <glyph glyph-name="perthousand" unicode="&#x2030;" horiz-adv-x="1165" 
d="M226 182l21 35q128 214 180 299q30 51 89 184h183q-99 -129 -131 -184q-52 -85 -180 -299l-21 -35q-25 -39 -90 -182h-183q107 143 132 182zM62.5 674q42.5 41 120.5 41q76 0 118 -43t42 -119t-42.5 -119t-117.5 -43q-78 0 -120.5 43t-42.5 119q0 80 42.5 121zM122 485.5
q22 -24.5 61 -24.5q36 0 58 25.5t22 66.5q0 45 -21.5 68t-58.5 23q-39 0 -61 -25t-22 -66q0 -43 22 -67.5zM496.5 270q42.5 41 120.5 41q76 0 118 -43t42 -119t-42.5 -119t-117.5 -43q-78 0 -120.5 43t-42.5 119q0 80 42.5 121zM556 81.5q22 -24.5 61 -24.5q36 0 58 25.5
t22 66.5q0 45 -21.5 68t-58.5 23q-39 0 -61 -25t-22 -66q0 -43 22 -67.5zM864.5 270q42.5 41 120.5 41q76 0 118 -43t42 -119t-42.5 -119t-117.5 -43q-78 0 -120.5 43t-42.5 119q0 80 42.5 121zM924 81.5q22 -24.5 61 -24.5q36 0 58 25.5t22 66.5q0 45 -21.5 68t-58.5 23
q-39 0 -61 -25t-22 -66q0 -43 22 -67.5z" />
    <glyph glyph-name="uni0308" unicode="&#x308;" 
d="M263.5 609.5q-19.5 19.5 -19.5 54.5q0 36 19.5 54.5t54.5 18.5t54.5 -19t19.5 -54t-20 -54.5t-54 -19.5q-35 0 -54.5 19.5zM70 718q20 19 55 19t54 -19t19 -54q0 -36 -19.5 -55t-53.5 -19q-36 0 -55.5 19.5t-19.5 54.5t20 54z" />
    <glyph glyph-name="uni0307" unicode="&#x307;" 
d="M70 718q20 19 55 19t54 -19t19 -54q0 -36 -19.5 -55t-53.5 -19q-36 0 -55.5 19.5t-19.5 54.5t20 54z" />
    <glyph glyph-name="gravecomb" unicode="&#x300;" 
d="M148 577q-18 30 -37 57q-19 24 -31 37.5t-30 31.5l84 63q13 -26 21.5 -39t27.5 -38q17 -23 29.5 -36.5t32.5 -34.5l-84 -62z" />
    <glyph glyph-name="acutecomb" unicode="&#x301;" 
d="M50 599l43 71q16 24 35 64l14 28q39 -39 84 -63l-27 -26l-48 -49l-50 -59z" />
    <glyph glyph-name="uni030B" unicode="&#x30b;" 
d="M192 594l43 71q20 32 30 55q12 24 20 38q32 -36 76 -59l-19 -18q-28 -26 -56 -57l-51 -59zM94 670q14 21 31 57q5 10 18 35q19 -19 36 -32.5t40 -25.5q-12 -13 -30 -29q-22 -20 -45 -46l-50 -60l-44 30z" />
    <glyph glyph-name="uni030C.alt" 
d="M61 533q-6 2 -8.5 4t-2.5 6t6 24.5t10 46.5q6 36 7 66l3 39q50 -22 101 -25l-15 -35q-19 -46 -25 -63q-12 -39 -20 -57t-18 -16q-22 3 -38 10z" />
    <glyph glyph-name="uni0302" unicode="&#x302;" 
d="M82.5 665q12.5 13 27.5 30q16 18 27 32.5t23 34.5h51q12 -20 23 -34.5t27 -32.5q15 -17 27.5 -30t32.5 -30l-60 -51q-28 39 -37 50l-14 18l-22 31l-25 -31q-8 -11 -22 -27q-16 -19 -31 -41l-60 51q20 17 32.5 30z" />
    <glyph glyph-name="uni030C" unicode="&#x30c;" 
d="M155 605q-9 12 -33 40q-16 19 -27.5 30t-26.5 23l-18 16l67 51q35 -49 59 -77q25 -27 33 -34l33 34q18 22 45 59l13 18l67 -51l-18 -16q-15 -12 -26.5 -23t-27.5 -30q-24 -28 -33 -40t-24 -37h-59q-15 25 -24 37z" />
    <glyph glyph-name="uni0306" unicode="&#x306;" 
d="M100 620.5q-39 36.5 -50 88.5h85q5 -23 22 -35.5t38 -12.5t37.5 12.5t20.5 35.5h85q-11 -52 -49.5 -88.5t-93.5 -36.5q-56 0 -95 36.5z" />
    <glyph glyph-name="uni030A" unicode="&#x30a;" 
d="M75 592q-25 25 -25 69t25 67.5t70 23.5q44 0 69 -24.5t25 -66.5q0 -45 -25 -69.5t-69 -24.5q-45 0 -70 25zM116 629.5q10 -11.5 29 -11.5q18 0 28 12t10 32t-10 31t-28 11t-28.5 -11.5t-10.5 -30.5q0 -21 10 -32.5z" />
    <glyph glyph-name="tildecomb" unicode="&#x303;" 
d="M214.5 568.5q-15.5 14.5 -31.5 42.5q-9 18 -17.5 27.5t-21.5 9.5q-23 0 -31.5 -16.5t-8.5 -52.5v-17h-54v47q0 39 20 73t64 34q35 0 52 -15.5t29 -42.5q10 -20 17.5 -28.5t22.5 -8.5q31 0 40 17.5t9 51.5v18h54v-48q0 -38 -24 -72t-74 -34q-30 0 -45.5 14.5z" />
    <glyph glyph-name="uni0304" unicode="&#x304;" 
d="M89 704q44 -3 92 -3q36 0 63.5 1t70.5 5v-98l-48 3q-39 3 -86 3q-48 0 -90 -3l-41 -3v98z" />
    <glyph glyph-name="uni0312" unicode="&#x312;" 
d="M66.5 581q-20.5 27 -15.5 75q3 37 9 64t15 61l9 36h66l-9 -49q-6 -31 -6 -42q0 -3 4 -29q23 -7 38 -28t15 -46q0 -30 -21 -49.5t-51 -19.5q-33 0 -53.5 27z" />
    <glyph glyph-name="uni0326" unicode="&#x326;" 
d="M50 -208l11 23q27 62 36 86l28 73l59 -13l-15 -82q-10 -48 -18 -117q-42 20 -101 30z" />
    <glyph glyph-name="uni0327" unicode="&#x327;" 
d="M69 -122l-19 10l27 26q33 31 48 49l51 60l63 -31l-43 -72q-15 -24 -34 -62l-16 -29q-21 21 -77 49z" />
    <glyph glyph-name="uni0328" unicode="&#x328;" 
d="M132 -141q-14 29 -34 61l-48 77l68 26l51 -60q15 -18 48 -49l27 -26l-19 -10q-56 -28 -77 -49z" />
    </font>
</defs>
</svg>
