<?xml version="1.0" standalone="no"?>
<!DOCTYPE svg PUBLIC "-//W3C//DTD SVG 1.1//EN" "http://www.w3.org/Graphics/SVG/1.1/DTD/svg11.dtd" >
<svg xmlns="http://www.w3.org/2000/svg" xmlns:xlink="http://www.w3.org/1999/xlink" version="1.1">
<metadata>
Created by FontForge 20230101 at Mon Nov  2 07:38:01 2020
 By Glenn Lewis
Copyright (c) 2010, Caroline Hadilaksono &#38;amp; Micah Rich &#60;caroline@hadilaksono, micah@micahrich.com&#62;, with Reserved Font Name: "League Gothic".
</metadata>
<defs>
<font id="LeagueGothic-CondensedItalic" horiz-adv-x="232" >
  <font-face 
    font-family="League Gothic Condensed"
    font-weight="400"
    font-style="italic"
    font-stretch="ultra-condensed"
    units-per-em="1000"
    panose-1="0 0 0 0 0 0 0 0 0 0"
    ascent="735"
    descent="-265"
    x-height="547"
    cap-height="735"
    bbox="-89 -250 527.128 952"
    underline-thickness="50"
    underline-position="-125"
    unicode-range="U+000D-FB02"
  />
<missing-glyph horiz-adv-x="92" 
 />
    <glyph glyph-name=".notdef" horiz-adv-x="92" 
 />
    <glyph glyph-name="A" unicode="A" horiz-adv-x="254" 
d="M-42 0l223 735h97l-91 -735h-81l21 150h-46l-43 -150h-80zM191 556l-77 -292h31z" />
    <glyph glyph-name="Aacute" unicode="&#xc1;" horiz-adv-x="254" 
d="M329 890l-66 -90h-64l50 90h80zM-50 0l222 735h97l-90 -735h-81l21 150h-46l-43 -150h-80zM182 556l-77 -292h31z" />
    <glyph glyph-name="Abreve" unicode="&#x102;" horiz-adv-x="254" 
d="M323 869q-18 -21 -39.5 -34.5t-44.5 -13.5t-41 14.5t-23 33.5l53 57l3 -8t8.5 -16t14.5 -8q8 0 18 8t17 15.5l7 7.5zM-52 0l223 735h97l-91 -735h-81l21 150h-46l-43 -150h-80zM180 556l-77 -292h31z" />
    <glyph glyph-name="Acircumflex" unicode="&#xc2;" horiz-adv-x="254" 
d="M295 890l22 -90h-65l-8 39l-26 -39h-65l61 90h81zM-50 0l222 735h97l-90 -735h-81l21 150h-46l-43 -150h-80zM182 556l-77 -292h31z" />
    <glyph glyph-name="Adieresis" unicode="&#xc4;" horiz-adv-x="254" 
d="M171 898h74l-21 -98h-74zM268 898h73l-21 -98h-73zM-50 0l222 735h97l-90 -735h-81l20 150h-44l-44 -150h-80zM176 526l-70 -262h29z" />
    <glyph glyph-name="Agrave" unicode="&#xc0;" horiz-adv-x="254" 
d="M254 890l13 -90h-64l-29 90h80zM-50 0l222 735h97l-90 -735h-81l21 150h-46l-43 -150h-80zM182 556l-77 -292h31z" />
    <glyph glyph-name="Amacron" unicode="&#x100;" horiz-adv-x="254" 
d="M190 909h134l-16 -79h-134zM-51 0l222 735h97l-90 -735h-81l21 150h-46l-43 -150h-80zM181 556l-77 -292h31z" />
    <glyph glyph-name="Aogonek" unicode="&#x104;" horiz-adv-x="254" 
d="M168 0q-7 -10 -15.5 -22.5t-16.5 -27.5q-8 -16 -11 -33q-4 -22 1 -30t12 -8q4 0 14.5 6t23.5 14l-20 -75q-24 -12 -42 -12q-34 0 -46.5 25.5t-5.5 59.5q4 18 15 38t21 34l1.5 1.5l1.5 1.5l10 12.5t13 15.5h-8l21 150h-46l-43 -150h-80l223 735h97l-91 -735h-29zM201 556
l-77 -292h31z" />
    <glyph glyph-name="Aring" unicode="&#xc5;" horiz-adv-x="254" 
d="M192 860q7 31 27 50.5t42 19.5t33.5 -19.5t4.5 -50.5t-26.5 -50.5t-41.5 -19.5t-34 19.5t-5 50.5zM231 860q-3 -14 0 -23t8 -9t12 9t10 23t-0.5 22.5t-8.5 8.5t-11.5 -8.5t-9.5 -22.5zM-52 0l222 735h97l-90 -735h-81l20 150h-44l-44 -150h-80zM174 526l-70 -262h29z" />
    <glyph glyph-name="Atilde" unicode="&#xc3;" horiz-adv-x="254" 
d="M182 869q9 10 22 15.5t24 5.5q17 0 26 -8.5t23 -8.5q10 0 25 11t21 18l-17 -83q-8 -10 -20 -17.5t-26 -7.5q-17 0 -26 9.5t-24 9.5q-6 0 -15.5 -6t-18.5 -13t-12 -11zM-50 0l222 735h97l-90 -735h-81l20 150h-46l-42 -150h-80zM182 556l-77 -292h31z" />
    <glyph glyph-name="AE" unicode="&#xc6;" horiz-adv-x="352" 
d="M145 150h-49l-58 -150h-81l279 735h200l-24 -111h-83l-41 -193h60l-25 -118h-60l-43 -202h83l-24 -111h-166zM138 264h32q3 17 11 53.5t17.5 80.5t17.5 82t12 58z" />
    <glyph glyph-name="B" unicode="B" horiz-adv-x="248" 
d="M-24 0l156 735h73q32 0 49.5 -10.5t27.5 -32.5q11 -24 11.5 -61.5t-10.5 -90.5q-5 -26 -12.5 -51.5t-15.5 -43.5q-9 -16 -19.5 -31t-27.5 -26q11 -12 18 -26.5t8 -45.5q0 -17 -5.5 -49t-10.5 -59q-6 -27 -14.5 -56t-17 -53t-15.5 -36t-19 -26.5t-29 -25.5t-39 -11h-108z
M150 432q4 0 11 1t11 5q14 16 30 92q16 77 9 92q-4 5 -9 5.5t-10 0.5zM81 107q3 0 10 0.5t11 4.5q15 15 34 108q10 47 14 74t-2 34q-4 5 -9.5 5h-9.5z" />
    <glyph glyph-name="C" unicode="C" horiz-adv-x="238" 
d="M220 252l-24 -111q-8 -38 -24 -72.5t-42 -55.5t-64 -21t-54 23.5t-17 58.5t5 67l96 453q7 33 23 67.5t42.5 58t63.5 23.5q30 0 46 -15.5t22 -39.5t5 -49t-5 -45l-24 -111h-81l24 111q2 7 3 17t-1 18.5t-10 8.5q-10 0 -15 -14t-7 -26l-98 -457q-2 -10 -3 -27t8 -17
q12 0 18 17t8 27l24 111h81z" />
    <glyph glyph-name="Cacute" unicode="&#x106;" horiz-adv-x="238" 
d="M306 915l-67 -90h-63l50 90h80zM211 252l-24 -111q-8 -38 -24 -72.5t-42 -55.5t-64 -21t-54 23.5t-17 58.5t5 67l96 453q7 33 23 67.5t42.5 58t63.5 23.5q30 0 46 -15.5t22 -39.5t5 -49t-5 -45l-24 -111h-81l24 111q1 7 2.5 17t-0.5 18.5t-10 8.5q-10 0 -15 -14t-8 -26
l-97 -457q-2 -10 -3 -27t8 -17q12 0 18 17t8 27l24 111h81z" />
    <glyph glyph-name="Ccaron" unicode="&#x10c;" horiz-adv-x="238" 
d="M193 825l-23 90h65l9 -39l25 39h65l-60 -90h-81zM211 252l-24 -111q-8 -38 -24 -72.5t-42 -55.5t-64 -21t-54 23.5t-17 58.5t5 67l96 453q7 33 23 67.5t42.5 58t63.5 23.5q30 0 46 -15.5t22 -39.5t5 -49t-5 -45l-24 -111h-81l24 111q1 7 2.5 17t-0.5 18.5t-10 8.5
q-10 0 -15 -14t-8 -26l-97 -457q-2 -10 -3 -27t8 -17q12 0 18 17t8 27l24 111h81z" />
    <glyph glyph-name="Ccedilla" unicode="&#xc7;" horiz-adv-x="238" 
d="M230 252l-24 -111q-8 -38 -24 -72.5t-42.5 -55.5t-64.5 -21t-54.5 23.5t-17 58.5t5.5 67l96 453q7 33 23.5 67.5t43 58t63.5 23.5q30 0 46 -15.5t21.5 -39.5t4.5 -49t-5 -45l-23 -111h-81l23 111q2 7 3 17t-0.5 18.5t-9.5 8.5q-10 0 -15 -14t-8 -26l-97 -457
q-2 -10 -3 -27t8 -17q12 0 18 17t8 27l24 111h81zM82 -123l-27 -65h-49l26 65h-18l15 69h68z" />
    <glyph glyph-name="Ccircumflex" unicode="&#x108;" horiz-adv-x="238" 
d="M287 890l22 -90h-65l-9 39l-25 -39h-65l61 90h81zM212 252l-23 -111q-8 -38 -24.5 -72.5t-42.5 -55.5t-64 -21t-54 23.5t-17 58.5t6 67l95 453q7 33 23.5 67.5t43 58t63.5 23.5q30 0 46 -15.5t21.5 -39.5t4.5 -49t-5 -45l-24 -111h-81l24 111q2 7 3 17t-1 18.5t-10 8.5
q-10 0 -15 -14t-7 -26l-97 -457q-2 -10 -3.5 -27t7.5 -17q12 0 18.5 17t8.5 27l23 111h81z" />
    <glyph glyph-name="Cdotaccent" unicode="&#x10a;" horiz-adv-x="238" 
d="M212 923h79l-21 -101h-79zM210 252l-23 -111q-8 -38 -24 -72.5t-42.5 -55.5t-64.5 -21t-54 23.5t-17 58.5t6 67l95 453q7 33 23.5 67.5t43 58t63.5 23.5q30 0 46 -15.5t21.5 -39.5t4.5 -49t-5 -45l-23 -111h-81l23 111q2 7 3 17t-0.5 18.5t-9.5 8.5q-10 0 -15.5 -14
t-7.5 -26l-97 -457q-2 -10 -3 -27t8 -17q12 0 18 17t8 27l23 111h81z" />
    <glyph glyph-name="D" unicode="D" horiz-adv-x="253" 
d="M-24 0l156 735h69q50 0 69.5 -17t24.5 -59q4 -42 -8 -113t-35 -179t-42 -188.5t-38 -113.5q-16 -29 -41.5 -47t-75.5 -18h-79zM81 108q10 0 19 1.5t17 22.5q4 12 11 43.5t16.5 74t18.5 86.5q16 76 27 127t18 84.5t9 55.5q2 20 -7 21.5t-18 2.5z" />
    <glyph glyph-name="Eth" unicode="&#xd0;" horiz-adv-x="253" 
d="M49 431h18l65 304h60q51 0 76 -15t29 -54.5t-8.5 -111.5t-36.5 -187q-24 -113 -42.5 -185t-40 -111.5t-53 -55t-81.5 -15.5h-59l68 320h-18zM150 431h15l-23 -111h-15l-46 -212q8 2 21 7.5t20 27.5q11 27 24 83q6 26 13.5 61.5t17.5 80.5q9 45 16.5 80.5t12.5 61.5t8 48
t4 35q1 23 -8.5 28t-17.5 6z" />
    <glyph glyph-name="Dcaron" unicode="&#x10e;" horiz-adv-x="253" 
d="M195 825l-23 90h65l9 -39l25 39h65l-60 -90h-81zM-33 0l155 735h69q50 0 70 -17t24 -59t-8 -113t-35 -179t-42 -188.5t-37 -113.5q-16 -29 -41.5 -47t-75.5 -18h-79zM72 108q10 0 18.5 1.5t16.5 22.5q4 12 11.5 43.5t16.5 74t18 86.5q24 113 37.5 173t16.5 94
q2 20 -7 21.5t-18 2.5z" />
    <glyph glyph-name="Dcroat" unicode="&#x110;" horiz-adv-x="253" 
d="M-24 0l70 331h-35l17 79h35l69 325h69q50 0 69.5 -17t24.5 -59q4 -42 -8 -113t-35 -179t-42 -188.5t-38 -113.5q-16 -29 -41.5 -47t-75.5 -18h-79zM146 410h16l-17 -79h-16l-48 -223q10 0 19 1.5t17 22.5q4 12 11 43.5t16.5 74t18.5 86.5q16 76 27 127t18 84.5t9 55.5
q2 20 -7 21.5t-18 2.5z" />
    <glyph glyph-name="E" unicode="E" horiz-adv-x="214" 
d="M132 735h166l-24 -111h-83l-41 -193h60l-25 -118h-60l-43 -202h83l-24 -111h-165z" />
    <glyph glyph-name="Eacute" unicode="&#xc9;" horiz-adv-x="214" 
d="M312 890l-66 -90h-64l50 90h80zM123 735h166l-23 -111h-83l-41 -193h60l-25 -118h-60l-43 -202h83l-24 -111h-165z" />
    <glyph glyph-name="Ebreve" unicode="&#x114;" horiz-adv-x="214" 
d="M302 870q-8 -10 -20.5 -20.5t-29.5 -18.5h1q-7 -4 -16 -5.5t-19 -1.5q-20 0 -31.5 7t-19.5 16q-11 16 -13 23l54 59q5 -13 8 -21.5t7 -10.5q5 -3 10 -3t11 3.5t12 7.5l19 23zM121 735h166l-23 -111h-83l-41 -193h60l-25 -118h-60l-43 -202h83l-24 -111h-165z" />
    <glyph glyph-name="Ecaron" unicode="&#x11a;" horiz-adv-x="214" 
d="M183 825l-23 90h65l9 -39l25 39h65l-60 -90h-81zM122 735h166l-23 -111h-83l-41 -193h60l-26 -118h-60l-42 -202h83l-24 -111h-165z" />
    <glyph glyph-name="Ecircumflex" unicode="&#xca;" horiz-adv-x="214" 
d="M282 890l22 -90h-65l-8 39l-26 -39h-65l61 90h81zM123 735h166l-23 -111h-83l-41 -193h60l-25 -118h-60l-43 -202h83l-24 -111h-165z" />
    <glyph glyph-name="Edieresis" unicode="&#xcb;" horiz-adv-x="214" 
d="M158 898h74l-21 -98h-74zM255 898h73l-21 -98h-73zM123 735h166l-24 -111h-83l-41 -193h60l-25 -118h-60l-43 -202h83l-23 -111h-165z" />
    <glyph glyph-name="Edotaccent" unicode="&#x116;" horiz-adv-x="214" 
d="M200 923h79l-22 -101h-79zM122 735h166l-24 -111h-83l-41 -193h60l-25 -118h-60l-43 -202h83l-23 -111h-165z" />
    <glyph glyph-name="Egrave" unicode="&#xc8;" horiz-adv-x="214" 
d="M245 890l13 -90h-64l-29 90h80zM123 735h166l-23 -111h-83l-41 -193h60l-25 -118h-60l-43 -202h83l-24 -111h-165z" />
    <glyph glyph-name="Emacron" unicode="&#x112;" horiz-adv-x="214" 
d="M170 909h134l-16 -79h-134zM122 735h166l-23 -111h-83l-41 -193h60l-25 -118h-60l-43 -202h83l-24 -111h-165z" />
    <glyph glyph-name="Eogonek" unicode="&#x118;" horiz-adv-x="214" 
d="M122 0q-7 -8 -15 -20.5t-16 -29.5q-8 -16 -11 -33q-4 -22 1 -30t12 -8q4 0 14.5 6t23.5 14l-21 -75q-24 -12 -42 -12q-34 0 -46.5 25.5t-5.5 59.5q3 17 14.5 37.5t21.5 34.5l1.5 1.5l1.5 1.5q4 5 10.5 12.5t14.5 15.5h-94l156 735h166l-24 -111h-83l-41 -193h60l-25 -118
h-60l-43 -202h83l-24 -111h-29z" />
    <glyph glyph-name="F" unicode="F" horiz-adv-x="211" 
d="M280 624h-89l-41 -193h60l-23 -111h-60l-69 -320h-82l156 735h172z" />
    <glyph glyph-name="G" unicode="G" horiz-adv-x="246" 
d="M185 471l26 123q2 11 3 27.5t-10 16.5q-8 0 -14.5 -15t-9.5 -29l-98 -462q-4 -17 -3 -30.5t10 -13.5q14 0 20.5 15.5t9.5 28.5l30 143h-18l19 91h95l-78 -366h-43l-3 27q-10 -13 -29 -24t-33 -11q-27 0 -41.5 15.5t-19.5 39.5t-3.5 49.5t5.5 44.5l96 453q7 33 23.5 67.5
t43 58t63.5 23.5q30 0 46 -14.5t22.5 -37.5t5.5 -49t-6 -48l-26 -123h-83z" />
    <glyph glyph-name="Gbreve" unicode="&#x11e;" horiz-adv-x="246" 
d="M319 871q-18 -21 -39.5 -34.5t-44.5 -13.5t-41 14.5t-23 33.5l53 57l3 -8t8.5 -16t14.5 -8q8 0 18 8t17 15.5l7 7.5zM175 471l26 123q2 11 3 27.5t-10 16.5q-8 0 -14.5 -15t-9.5 -29l-98 -462q-4 -17 -3 -30.5t10 -13.5q14 0 20.5 15.5t9.5 28.5l30 143h-18l19 91h95
l-77 -366h-43l-4 27q-9 -13 -28.5 -24t-33.5 -11q-27 0 -41.5 15.5t-19 39.5t-3 49.5t5.5 44.5l95 453q7 33 23.5 67.5t43.5 58t64 23.5q30 0 46 -14.5t22 -37.5t5 -49t-6 -48l-26 -123h-83z" />
    <glyph glyph-name="Gcircumflex" unicode="&#x11c;" horiz-adv-x="246" 
d="M290 890l22 -90h-65l-9 39l-25 -39h-65l61 90h81zM177 471l26 123q2 11 3 27.5t-10 16.5q-8 0 -14.5 -15t-9.5 -29l-98 -462q-4 -17 -3 -30.5t10 -13.5q14 0 20.5 15.5t9.5 28.5l30 143h-18l19 91h95l-77 -366h-43l-4 27q-9 -13 -28.5 -24t-33.5 -11q-27 0 -41.5 15.5
t-19 39.5t-3 49.5t5.5 44.5l95 453q7 33 23.5 67.5t43.5 58t64 23.5q30 0 46 -14.5t22 -37.5t5 -49t-6 -48l-26 -123h-83z" />
    <glyph glyph-name="uni0122" unicode="&#x122;" horiz-adv-x="246" 
d="M194 471l26 123q3 11 4 27.5t-10 16.5q-8 0 -15 -15t-10 -29l-98 -462q-4 -17 -2.5 -30.5t10.5 -13.5q14 0 20 15.5t9 28.5l31 143h-18l19 91h95l-78 -366h-43l-3 27q-10 -13 -29.5 -24t-33.5 -11q-27 0 -41.5 15.5t-19 39.5t-3.5 49.5t5 44.5l96 453q7 33 23.5 67.5
t43.5 58t64 23.5q30 0 46 -14.5t22 -37.5t5 -49t-6 -48l-26 -123h-83zM82 -123l-27 -65h-49l30 65h-22l15 69h68z" />
    <glyph glyph-name="Gdotaccent" unicode="&#x120;" horiz-adv-x="246" 
d="M217 923h78l-21 -101h-78zM175 471l26 123q2 11 3.5 27.5t-9.5 16.5q-8 0 -15 -15t-10 -29l-98 -462q-4 -17 -2.5 -30.5t10.5 -13.5q14 0 20 15.5t9 28.5l30 143h-18l20 91h95l-78 -366h-43l-3 27q-10 -13 -29.5 -24t-33.5 -11q-27 0 -41.5 15.5t-19 39.5t-3 49.5
t5.5 44.5l95 453q7 33 23.5 67.5t43.5 58t64 23.5q30 0 46 -14.5t22 -37.5t5 -49t-6 -48l-26 -123h-83z" />
    <glyph glyph-name="H" unicode="H" horiz-adv-x="258" 
d="M159 320h-32l-69 -320h-82l156 735h83l-65 -304h32l65 304h83l-157 -735h-83z" />
    <glyph glyph-name="Hbar" unicode="&#x126;" horiz-adv-x="258" 
d="M314 548h-24l-117 -548h-83l69 320h-32l-69 -320h-82l116 548h-23l17 79h23l23 108h83l-23 -108h32l23 108h83l-23 -108h24zM207 548h-32l-25 -117h32z" />
    <glyph glyph-name="Hcircumflex" unicode="&#x124;" horiz-adv-x="258" 
d="M297 890l22 -90h-65l-8 39l-26 -39h-65l61 90h81zM150 320h-32l-68 -320h-82l155 735h83l-64 -304h32l64 304h83l-156 -735h-83z" />
    <glyph glyph-name="I" unicode="I" horiz-adv-x="143" 
d="M132 735h83l-157 -735h-82z" />
    <glyph glyph-name="IJ" unicode="&#x132;" horiz-adv-x="267" 
d="M132 735h83l-156 -735h-82zM98 102q16 -3 26 5.5t15 22t7 23.5l124 582h83l-127 -599q-9 -42 -26.5 -76t-47.5 -52t-76 -14z" />
    <glyph glyph-name="Iacute" unicode="&#xcd;" horiz-adv-x="148" 
d="M268 890l-66 -90h-64l50 90h80zM123 735h83l-156 -735h-82z" />
    <glyph glyph-name="Ibreve" unicode="&#x12c;" horiz-adv-x="143" 
d="M267 872q-18 -21 -40 -34.5t-45 -13.5t-40.5 14.5t-22.5 33.5l53 57l3 -8t8.5 -16t14.5 -8q8 0 17.5 8t16.5 15.5l7 7.5zM121 735h83l-156 -735h-82z" />
    <glyph glyph-name="Icircumflex" unicode="&#xce;" horiz-adv-x="139" 
d="M235 890l22 -90h-65l-8 39l-26 -39h-65l61 90h81zM121 735h82l-156 -735h-81z" />
    <glyph glyph-name="Idieresis" unicode="&#xcf;" horiz-adv-x="139" 
d="M114 898h74l-21 -98h-74zM211 898h73l-21 -98h-73zM121 735h83l-156 -735h-82z" />
    <glyph glyph-name="Idotaccent" unicode="&#x130;" horiz-adv-x="143" 
d="M165 923h79l-22 -101h-79zM122 735h83l-156 -735h-82z" />
    <glyph glyph-name="Igrave" unicode="&#xcc;" horiz-adv-x="148" 
d="M211 890l12 -90h-63l-29 90h80zM128 735h83l-156 -735h-82z" />
    <glyph glyph-name="Imacron" unicode="&#x12a;" horiz-adv-x="143" 
d="M134 909h134l-16 -79h-134zM122 735h83l-156 -735h-82z" />
    <glyph glyph-name="Iogonek" unicode="&#x12e;" horiz-adv-x="143" 
d="M39 0q-7 -10 -15.5 -22.5t-16.5 -27.5q-7 -13 -10 -33q-4 -22 0.5 -30t11.5 -8q4 0 14.5 6t23.5 14l-20 -75q-24 -12 -41 -12q-34 0 -46.5 25.5t-5.5 59.5q4 18 15 38t21 34l1.5 1.5l1.5 1.5l10 12.5t13 15.5h-10l156 735h83l-157 -735h-29z" />
    <glyph glyph-name="Itilde" unicode="&#x128;" horiz-adv-x="143" 
d="M131 896q8 10 21 15.5t24 5.5q17 0 26 -8.5t23 -8.5q10 0 25.5 11t21.5 18l-18 -83q-8 -10 -19.5 -17.5t-25.5 -7.5q-17 0 -26 9.5t-24 9.5q-9 0 -25.5 -12.5t-21.5 -17.5zM121 735h83l-156 -735h-82z" />
    <glyph glyph-name="J" unicode="J" horiz-adv-x="154" 
d="M-21 102q16 -3 25.5 5.5t14.5 22t7 23.5l124 582h83l-127 -599q-9 -42 -26.5 -76t-47 -52t-75.5 -14z" />
    <glyph glyph-name="Jcircumflex" unicode="&#x134;" horiz-adv-x="154" 
d="M251 890l22 -90h-65l-9 39l-25 -39h-65l61 90h81zM-32 102q16 -3 25.5 5.5t14.5 22t7 23.5l124 582h83l-127 -599q-9 -42 -27 -76t-47.5 -52t-75.5 -14z" />
    <glyph glyph-name="K" unicode="K" horiz-adv-x="255" 
d="M212 735l-45 -211l99 211h81l-130 -269l-29 -466h-81l23 350l-75 -350h-79l156 735h80z" />
    <glyph glyph-name="uni0136" unicode="&#x136;" horiz-adv-x="255" 
d="M222 735l-45 -211l99 211h81l-130 -269l-29 -466h-81l23 350l-75 -350h-79l156 735h80zM82 -123l-26 -65h-49l25 65h-18l15 69h68z" />
    <glyph glyph-name="L" unicode="L" horiz-adv-x="207" 
d="M132 735h83l-135 -635h86l-22 -100h-168z" />
    <glyph glyph-name="Lacute" unicode="&#x139;" horiz-adv-x="207" 
d="M289 915l-66 -90h-64l50 90h80zM122 735h83l-135 -635h86l-21 -100h-168z" />
    <glyph glyph-name="Lcaron" unicode="&#x13d;" horiz-adv-x="237" 
d="M323 737l-61 -130h-48l49 130h-21l24 111h81zM126 735h83l-135 -635h86l-22 -100h-168z" />
    <glyph glyph-name="uni013B" unicode="&#x13b;" horiz-adv-x="207" 
d="M142 735h83l-135 -635h86l-22 -100h-168zM82 -123l-26 -65h-49l25 65h-18l15 69h68z" />
    <glyph glyph-name="Ldot" unicode="&#x13f;" horiz-adv-x="223" 
d="M132 735h83l-135 -635h86l-22 -100h-168zM177 440h81l-24 -111h-81z" />
    <glyph glyph-name="Lslash" unicode="&#x141;" horiz-adv-x="214" 
d="M41 382l30 30h-1l69 323h83l-47 -222l44 46l-27 -128l-46 -48h1l-60 -283h86l-22 -100h-168l60 283q-1 0 -8.5 -8.5t-14.5 -16.5l-7 -8z" />
    <glyph glyph-name="M" unicode="M" horiz-adv-x="320" 
d="M83 0l46 362l-77 -362h-76l156 735h92l-36 -347l112 347h92l-157 -735h-77l75 362l-105 -362h-45z" />
    <glyph glyph-name="N" unicode="N" horiz-adv-x="267" 
d="M128 357l-76 -357h-76l156 735h70l-14 -347l74 347h77l-157 -735h-70z" />
    <glyph glyph-name="Nacute" unicode="&#x143;" horiz-adv-x="267" 
d="M319 915l-66 -90h-64l50 90h80zM119 357l-76 -357h-76l155 735h70l-14 -347l74 347h77l-156 -735h-70z" />
    <glyph glyph-name="Ncaron" unicode="&#x147;" horiz-adv-x="267" 
d="M205 825l-23 90h65l9 -39l25 39h65l-60 -90h-81zM119 357l-76 -357h-76l155 735h70l-14 -347l74 347h77l-156 -735h-70z" />
    <glyph glyph-name="uni0145" unicode="&#x145;" horiz-adv-x="267" 
d="M138 357l-76 -357h-76l156 735h70l-14 -347l74 347h77l-157 -735h-70zM82 -123l-26 -65h-49l25 65h-18l15 69h68z" />
    <glyph glyph-name="Eng" unicode="&#x14a;" horiz-adv-x="267" 
d="M345 735l-156 -735q-6 -23 -15 -45t-21 -39q-13 -19 -36 -29.5t-55 -6.5l23 104q8 -3 15 2t13 14l21 352l-75 -352h-76l155 735h71l-15 -349l74 349h77z" />
    <glyph glyph-name="Ntilde" unicode="&#xd1;" horiz-adv-x="267" 
d="M187 869q9 10 22 15.5t24 5.5q17 0 26 -8.5t23 -8.5q10 0 25 11t21 18l-17 -83q-8 -10 -20 -17.5t-26 -7.5q-17 0 -26 9.5t-24 9.5q-6 0 -15.5 -6t-18.5 -13t-12 -11zM119 357l-75 -357h-76l155 735h70l-14 -347l74 347h77l-156 -735h-70z" />
    <glyph glyph-name="O" unicode="O" horiz-adv-x="242" 
d="M200 141q-8 -38 -24 -72t-42.5 -55.5t-64.5 -21.5t-55 22.5t-19 57t5 69.5l96 453q8 38 24.5 72t43.5 55.5t64 21.5q30 0 46.5 -14.5t23 -37.5t5.5 -48.5t-6 -48.5zM214 594q4 17 2.5 30.5t-9.5 13.5t-15 -13t-11 -31l-97 -453q-4 -20 -1.5 -32t9.5 -12q8 0 15 13.5
t10 30.5z" />
    <glyph glyph-name="Oacute" unicode="&#xd3;" horiz-adv-x="242" 
d="M328 890l-67 -90h-64l51 90h80zM193 141q-8 -38 -24.5 -72t-43 -55.5t-64.5 -21.5t-55 22.5t-18.5 57t5.5 69.5l95 453q8 38 25 72t44 55.5t64 21.5q30 0 46.5 -14.5t22.5 -37.5t5 -48.5t-6 -48.5zM206 594q4 17 2.5 30.5t-9.5 13.5t-15 -13t-11 -31l-96 -453
q-4 -20 -2 -32t9 -12q8 0 15 13.5t11 30.5z" />
    <glyph glyph-name="Obreve" unicode="&#x14e;" horiz-adv-x="242" 
d="M317 872q-18 -21 -39.5 -34.5t-44.5 -13.5t-41 14.5t-23 33.5l53 57l3 -8t8.5 -16t14.5 -8q8 0 18 8t17 15.5l7 7.5zM191 141q-8 -38 -24.5 -72t-43 -55.5t-64.5 -21.5t-55 22.5t-18.5 57t5.5 69.5l95 453q8 38 25 72t44 55.5t64 21.5q30 0 46.5 -14.5t22.5 -37.5
t5 -48.5t-6 -48.5zM204 594q4 17 2.5 30.5t-9.5 13.5t-15 -13t-11 -31l-96 -453q-4 -20 -2 -32t9 -12q8 0 15 13.5t11 30.5z" />
    <glyph glyph-name="Ocircumflex" unicode="&#xd4;" horiz-adv-x="242" 
d="M292 890l22 -90h-65l-9 39l-25 -39h-65l61 90h81zM193 141q-8 -38 -24.5 -72t-43 -55.5t-64.5 -21.5t-55 22.5t-18.5 57t5.5 69.5l95 453q8 38 25 72t44 55.5t64 21.5q30 0 46.5 -14.5t22.5 -37.5t5 -48.5t-6 -48.5zM206 594q4 17 2.5 30.5t-9.5 13.5t-15 -13t-11 -31
l-96 -453q-4 -20 -2 -32t9 -12q8 0 15 13.5t11 30.5z" />
    <glyph glyph-name="Odieresis" unicode="&#xd6;" horiz-adv-x="242" 
d="M168 898h74l-21 -98h-74zM265 898h73l-21 -98h-73zM192 141q-8 -38 -24 -72t-42.5 -55.5t-64.5 -21.5t-55.5 22.5t-19 57t5.5 69.5l95 453q9 38 25.5 72t43.5 55.5t64 21.5q30 0 46.5 -14.5t22.5 -37.5t5 -48.5t-6 -48.5zM205 594q4 17 3 30.5t-9 13.5t-15 -13t-12 -31
l-96 -453q-4 -20 -1.5 -32t9.5 -12q8 0 14.5 13.5t10.5 30.5z" />
    <glyph glyph-name="Ograve" unicode="&#xd2;" horiz-adv-x="242" 
d="M249 890l13 -90h-64l-29 90h80zM193 141q-8 -38 -24.5 -72t-43 -55.5t-64.5 -21.5t-55 22.5t-18.5 57t5.5 69.5l95 453q8 38 25 72t44 55.5t64 21.5q30 0 46.5 -14.5t22.5 -37.5t5 -48.5t-6 -48.5zM206 594q4 17 2.5 30.5t-9.5 13.5t-15 -13t-11 -31l-96 -453
q-4 -20 -2 -32t9 -12q8 0 15 13.5t11 30.5z" />
    <glyph glyph-name="Ohungarumlaut" unicode="&#x150;" horiz-adv-x="242" 
d="M264 915l-67 -90h-63l50 90h80zM373 915l-67 -90h-64l51 90h80zM191 141q-8 -38 -24 -72t-42.5 -55.5t-64.5 -21.5t-55.5 22.5t-19 57t5.5 69.5l96 453q8 38 24.5 72t43.5 55.5t64 21.5q30 0 46.5 -14.5t22.5 -37.5t5.5 -48.5t-5.5 -48.5zM205 594q4 17 2.5 30.5
t-9.5 13.5t-15 -13t-11 -31l-97 -453q-4 -20 -1.5 -32t9.5 -12q8 0 14.5 13.5t10.5 30.5z" />
    <glyph glyph-name="Omacron" unicode="&#x14c;" horiz-adv-x="242" 
d="M185 909h134l-17 -79h-134zM192 141q-8 -38 -24.5 -72t-43 -55.5t-64.5 -21.5t-55 22.5t-18.5 57t5.5 69.5l95 453q8 38 25 72t44 55.5t64 21.5q30 0 46.5 -14.5t22.5 -37.5t5 -48.5t-6 -48.5zM205 594q4 17 2.5 30.5t-9.5 13.5t-15 -13t-11 -31l-96 -453q-4 -20 -2 -32
t9 -12q8 0 15 13.5t11 30.5z" />
    <glyph glyph-name="Oslash" unicode="&#xd8;" horiz-adv-x="242" 
d="M203 141q-8 -38 -24 -72t-42.5 -55.5t-64.5 -21.5q-14 0 -25 3.5t-20 8.5l-6 -14h-47l26 63q-4 20 -3 43t5 45l97 453q8 38 24.5 72t43.5 55.5t64 21.5q14 0 25 -3.5t20 -9.5l6 15h46l-26 -63q5 -21 3.5 -44.5t-5.5 -43.5zM217 594q4 17 2.5 30.5t-9.5 13.5t-15 -13
t-11 -31l-40 -186l69 168zM95 97q8 0 15 13.5t10 30.5l42 195l-69 -171l-6 -24q-4 -20 -1.5 -32t9.5 -12z" />
    <glyph glyph-name="Otilde" unicode="&#xd5;" horiz-adv-x="242" 
d="M176 869q8 10 21 15.5t24 5.5q17 0 26.5 -8.5t23.5 -8.5q10 0 25 11t21 18l-18 -83q-8 -10 -19.5 -17.5t-25.5 -7.5q-17 0 -26 9.5t-24 9.5q-9 0 -25.5 -12.5t-21.5 -17.5zM192 141q-8 -38 -24.5 -72t-43 -55.5t-64.5 -21.5t-55 22.5t-18.5 57t5.5 69.5l95 453
q8 38 25 72t44 55.5t64 21.5q30 0 46.5 -14.5t22.5 -37.5t5 -48.5t-6 -48.5zM205 594q4 17 3 30.5t-9 13.5t-15.5 -13t-11.5 -31l-96 -453q-4 -20 -1.5 -32t9.5 -12q8 0 14.5 13.5t10.5 30.5z" />
    <glyph glyph-name="OE" unicode="&#x152;" horiz-adv-x="318" 
d="M71 0q-55 3 -67.5 45t0.5 106l92 433q14 65 45.5 108t86.5 43h184l-24 -111h-83l-41 -193h60l-25 -118h-60l-43 -202h83l-24 -111h-184zM214 584q1 6 2 19t-0.5 24t-8.5 11q-5 0 -11 -10t-10.5 -23t-6.5 -21l-92 -433q-4 -20 -3 -37t8 -17q8 0 14 12t10.5 25t5.5 17z" />
    <glyph glyph-name="P" unicode="P" horiz-adv-x="241" 
d="M132 735h84q25 0 41.5 -9t26.5 -35q11 -26 11.5 -70t-13.5 -106q-13 -62 -32 -107.5t-41 -71.5q-19 -22 -42 -31.5t-46 -10.5l-63 -294h-82zM144 404q6 0 15 2.5t14 9.5q8 12 14.5 38t13.5 57t12.5 61.5t1.5 43.5q-1 8 -8.5 9.5t-14.5 1.5z" />
    <glyph glyph-name="Thorn" unicode="&#xde;" horiz-adv-x="242" 
d="M132 735h82l-24 -118q21 -1 39 -12t28 -34q11 -26 12.5 -69t-12.5 -105q-13 -62 -32 -104.5t-42 -68.5q-19 -22 -41.5 -34t-45.5 -14l-38 -176h-82zM119 286q8 2 15 6t13 14q8 12 14 34t13 53t10.5 54.5t-0.5 36.5q-1 11 -6 16.5t-12 6.5z" />
    <glyph glyph-name="Q" unicode="Q" horiz-adv-x="244" 
d="M199 141q-4 -22 -13 -44.5t-20 -42.5l-1 -1v-1q6 -14 19 -18l-19 -90q-35 0 -50.5 15.5t-19.5 36.5h-1q-6 -2 -9 -2l-13 -2h-8q-1 0 -1.5 0.5t-1.5 0.5q-35 3 -49.5 26t-15.5 56.5t6 65.5l96 453q8 38 24 72t42 55.5t63 21.5q30 0 46.5 -14.5t22.5 -37.5t5 -48.5
t-6 -48.5zM210 594q4 17 4 30.5t-8 13.5t-13.5 -13t-9.5 -31l-96 -453q-4 -17 -3.5 -30.5t7.5 -13.5q8 0 14 14.5t9 29.5z" />
    <glyph glyph-name="R" unicode="R" horiz-adv-x="247" 
d="M101 0l26 320l-69 -320h-82l156 735h84q59 0 73 -54t-8 -158q-11 -52 -30 -98t-44 -69l-25 -356h-81zM145 405q5 0 12 2.5t12 8.5q9 10 16.5 36.5t15.5 66.5q8 41 12 65.5t0 33.5q-4 8 -10.5 9t-10.5 1z" />
    <glyph glyph-name="Racute" unicode="&#x154;" horiz-adv-x="247" 
d="M309 915l-66 -90h-64l50 90h80zM92 0l25 320l-68 -320h-82l155 735h84q59 0 73.5 -54t-8.5 -158q-11 -52 -30 -98t-43 -69l-25 -356h-81zM135 405q5 0 12.5 2.5t11.5 8.5q9 10 16.5 36.5t15.5 66.5q9 41 13 65.5t-1 33.5q-3 8 -10 9t-11 1z" />
    <glyph glyph-name="Rcaron" unicode="&#x158;" horiz-adv-x="247" 
d="M195 825l-23 90h65l9 -39l25 39h65l-60 -90h-81zM92 0l25 320l-68 -320h-82l155 735h84q59 0 73.5 -54t-8.5 -158q-11 -52 -30 -98t-43 -69l-25 -356h-81zM135 405q5 0 12.5 2.5t11.5 8.5q9 10 16.5 36.5t15.5 66.5q9 41 13 65.5t-1 33.5q-3 8 -10 9t-11 1z" />
    <glyph glyph-name="uni0156" unicode="&#x156;" horiz-adv-x="247" 
d="M111 0l26 320l-69 -320h-82l156 735h84q59 0 73 -54t-8 -158q-11 -52 -30 -98t-44 -69l-25 -356h-81zM155 405q5 0 12 2.5t12 8.5q9 10 16.5 36.5t15.5 66.5q8 41 12 65.5t0 33.5q-4 8 -10.5 9t-10.5 1zM82 -123l-26 -65h-49l25 65h-18l15 69h68z" />
    <glyph glyph-name="S" unicode="S" horiz-adv-x="236" 
d="M197 537q2 10 5 27.5t5.5 36t2 31t-6.5 12.5q-9 0 -15.5 -20.5t-13.5 -52.5q-7 -36 -2.5 -77t14.5 -96q13 -65 19.5 -120t-5.5 -111q-6 -26 -16 -56.5t-25.5 -57.5t-39 -44t-55.5 -17q-31 0 -47.5 15.5t-22 40t-4 53.5t6.5 56.5t9 47.5l84 12q-2 -9 -6 -29t-6.5 -42.5
t-1.5 -38.5t9 -16q11 0 18 18t14 53q7 31 6 62t-7.5 69t-17.5 89q-7 44 -10.5 95t5.5 94q5 24 14.5 53t25 56t37.5 44.5t52 18.5q36 1 52 -20t18.5 -53t-2 -65t-9.5 -56z" />
    <glyph glyph-name="Sacute" unicode="&#x15a;" horiz-adv-x="236" 
d="M305 915l-67 -90h-64l51 90h80zM187 537l5.5 27.5t6 36t2 31t-6.5 12.5q-9 0 -15.5 -20.5t-13.5 -52.5q-7 -36 -2.5 -77t14.5 -96q13 -65 19.5 -120t-5.5 -111q-6 -26 -16 -56.5t-25.5 -57.5t-39 -44t-55.5 -17q-31 0 -47.5 15.5t-22 40t-3.5 53.5t7 56.5t9 47.5l82 12
q-1 -9 -5 -29t-7 -42.5t-1.5 -38.5t9.5 -16q11 0 18 18t14 53q7 31 6 62t-7.5 69t-17.5 89q-7 44 -10.5 95t5.5 94q5 24 14.5 53t25 56t37.5 44.5t52 18.5q36 1 52 -20t18.5 -53t-2 -65t-9.5 -56z" />
    <glyph glyph-name="Scaron" unicode="&#x160;" horiz-adv-x="236" 
d="M186 800l-23 90h65l9 -39l25 39h65l-60 -90h-81zM189 537l5.5 27.5t6 36t2 31t-6.5 12.5q-9 0 -16 -20.5t-14 -52.5q-7 -36 -2.5 -77t14.5 -96q14 -65 20 -120t-6 -111q-6 -26 -16 -56.5t-25.5 -57.5t-39 -44t-55.5 -17q-31 0 -47.5 15.5t-22 40t-3.5 53.5t7 56.5t9 47.5
l83 12q-2 -9 -6 -29t-6.5 -42.5t-1.5 -38.5t9 -16q11 0 18 18t14 53q7 31 6 62t-7.5 69t-17.5 89q-7 44 -10.5 95t5.5 94q5 24 15 53t25 56t37.5 44.5t52.5 18.5q36 1 51.5 -20t18 -53t-2 -65t-9.5 -56z" />
    <glyph glyph-name="Scedilla" unicode="&#x15e;" horiz-adv-x="236" 
d="M206 537l5.5 27.5t6 36t2 31t-6.5 12.5q-9 0 -16 -20.5t-14 -52.5q-7 -36 -2 -77t15 -96q13 -65 19 -120t-6 -111q-5 -26 -15 -56.5t-26 -57.5t-39.5 -44t-55.5 -17q-31 0 -47.5 15.5t-22 40t-4 53.5t7 56.5l9.5 47.5l83 12q-2 -9 -6 -29t-6.5 -42.5t-1.5 -38.5t9 -16
q11 0 18 18t14 53q7 31 6 62t-7.5 69t-17.5 89q-7 44 -10.5 95t5.5 94q5 24 15 53t25 56t37.5 44.5t52.5 18.5q36 1 52 -20t18.5 -53t-2 -65t-9.5 -56zM82 -123l-27 -65h-49l26 65h-18l14 69h68z" />
    <glyph glyph-name="Scircumflex" unicode="&#x15c;" horiz-adv-x="236" 
d="M287 890l22 -90h-65l-9 39l-25 -39h-65l61 90h81zM189 537l5.5 27.5t6 36t2 31t-6.5 12.5q-9 0 -16 -20.5t-14 -52.5q-7 -36 -2.5 -77t14.5 -96q14 -65 20 -120t-6 -111q-6 -26 -16 -56.5t-25.5 -57.5t-39 -44t-55.5 -17q-31 0 -47.5 15.5t-22 40t-3.5 53.5t7 56.5
t9 47.5l83 12q-2 -9 -6 -29t-6.5 -42.5t-1.5 -38.5t9 -16q11 0 18 18t14 53q7 31 6 62t-7.5 69t-17.5 89q-7 44 -10.5 95t5.5 94q5 24 15 53t25 56t37.5 44.5t52.5 18.5q36 1 51.5 -20t18 -53t-2 -65t-9.5 -56z" />
    <glyph glyph-name="T" unicode="T" horiz-adv-x="220" 
d="M85 624l24 111h205l-24 -111h-61l-133 -624h-83l133 624h-61z" />
    <glyph glyph-name="Tbar" unicode="&#x166;" horiz-adv-x="220" 
d="M229 624l-16 -74h28l-16 -79h-28l-101 -471h-83l101 471h-23l16 79h23l16 74h-61l24 111h205l-24 -111h-61z" />
    <glyph glyph-name="Tcaron" unicode="&#x164;" horiz-adv-x="220" 
d="M182 825l-23 90h65l9 -39l25 39h65l-60 -90h-81zM76 624l23 111h205l-23 -111h-61l-133 -624h-83l133 624h-61z" />
    <glyph glyph-name="U" unicode="U" horiz-adv-x="250" 
d="M322 735l-126 -594q-13 -62 -43.5 -105.5t-86.5 -43.5q-39 0 -56 21.5t-17.5 56t7.5 71.5l125 594h83l-126 -594q-9 -44 7 -44q9 0 14.5 13t9.5 31l126 594h83z" />
    <glyph glyph-name="Uacute" unicode="&#xda;" horiz-adv-x="250" 
d="M334 890l-66 -90h-64l50 90h80zM314 735l-126 -594q-13 -62 -43.5 -105.5t-86.5 -43.5q-39 0 -56 21.5t-17.5 56t7.5 71.5l125 594h83l-126 -594q-4 -21 -4 -32.5t10 -11.5q9 0 15 13t10 31l126 594h83z" />
    <glyph glyph-name="Ubreve" unicode="&#x16c;" horiz-adv-x="250" 
d="M320 872q-18 -21 -39.5 -34.5t-44.5 -13.5t-41 14.5t-23 33.5l53 57l3 -8t8.5 -16t14.5 -8q8 0 18 8t17 15.5l7 7.5zM312 735l-126 -594q-13 -62 -43.5 -105.5t-86.5 -43.5q-39 0 -56 21.5t-17.5 56t7.5 71.5l125 594h83l-126 -594q-4 -21 -4 -32.5t10 -11.5q9 0 15 13
t10 31l126 594h83z" />
    <glyph glyph-name="Ucircumflex" unicode="&#xdb;" horiz-adv-x="250" 
d="M287 890l22 -90h-65l-9 39l-25 -39h-65l61 90h81zM314 735l-126 -594q-13 -62 -43.5 -105.5t-86.5 -43.5q-39 0 -56 21.5t-17.5 56t7.5 71.5l125 594h83l-126 -594q-4 -21 -4 -32.5t10 -11.5q9 0 15 13t10 31l126 594h83z" />
    <glyph glyph-name="Udieresis" unicode="&#xdc;" horiz-adv-x="250" 
d="M164 898h74l-21 -98h-74zM261 898h73l-21 -98h-73zM313 735l-126 -594q-13 -62 -43 -105.5t-86 -43.5q-39 0 -56 21.5t-18 56t7 71.5l125 594h83l-126 -594q-9 -44 7 -44q9 0 14.5 13t9.5 31l126 594h83z" />
    <glyph glyph-name="Ugrave" unicode="&#xd9;" horiz-adv-x="250" 
d="M257 890l12 -90h-64l-28 90h80zM314 735l-126 -594q-13 -62 -43.5 -105.5t-86.5 -43.5q-39 0 -56 21.5t-17.5 56t7.5 71.5l125 594h83l-126 -594q-4 -21 -4 -32.5t10 -11.5q9 0 15 13t10 31l126 594h83z" />
    <glyph glyph-name="Uhungarumlaut" unicode="&#x170;" horiz-adv-x="250" 
d="M267 915l-66 -90h-64l50 90h80zM376 915l-66 -90h-64l50 90h80zM313 735l-127 -594q-13 -62 -43 -105.5t-86 -43.5q-39 0 -56 21.5t-18 56t7 71.5l126 594h83l-127 -594q-9 -44 7 -44q9 0 14.5 13t9.5 31l127 594h83z" />
    <glyph glyph-name="Umacron" unicode="&#x16a;" horiz-adv-x="250" 
d="M188 909h135l-17 -79h-135zM313 735l-126 -594q-13 -62 -43.5 -105.5t-86.5 -43.5q-39 0 -56 21.5t-17.5 56t7.5 71.5l125 594h83l-126 -594q-4 -21 -4 -32.5t10 -11.5q9 0 15 13t10 31l126 594h83z" />
    <glyph glyph-name="Uogonek" unicode="&#x172;" horiz-adv-x="250" 
d="M332 735l-127 -594q-10 -49 -31 -87.5t-57 -53.5h29q-7 -9 -14.5 -20.5t-16.5 -29.5q-8 -16 -11 -33q-4 -22 1 -30t12 -8q4 0 14.5 6t23.5 14l-20 -75q-24 -12 -42 -12q-34 0 -46.5 25.5t-5.5 59.5q4 18 15 38t21 34q2 4 7.5 10.5t12.5 13.5q-4 -1 -8.5 -1h-9.5h-4
q-39 1 -55.5 22.5t-17.5 55.5t6 71l127 594h83l-127 -594q-8 -40 5 -44l4.5 1.5t11 11t11.5 33.5l126 592h83z" />
    <glyph glyph-name="Uring" unicode="&#x16e;" horiz-adv-x="250" 
d="M194 882q7 31 27 50.5t42 19.5q23 0 34 -19.5t4 -50.5t-26 -50.5t-42 -19.5q-22 0 -34 19.5t-5 50.5zM235 882q-3 -14 -1.5 -24.5t6.5 -10.5t11.5 10.5t9.5 24.5t1 24.5t-7 10.5t-11 -10.5t-9 -24.5zM311 735l-127 -594q-13 -62 -43 -105.5t-86 -43.5q-39 0 -56 21.5
t-18 56t7 71.5l126 594h83l-127 -594q-9 -44 7 -44q9 0 14.5 13t9.5 31l127 594h83z" />
    <glyph glyph-name="Utilde" unicode="&#x168;" horiz-adv-x="250" 
d="M184 897q9 10 22 15.5t24 5.5q17 0 26 -8.5t23 -8.5q10 0 25 11t21 18l-17 -83q-8 -10 -20 -17.5t-26 -7.5q-17 0 -26 9.5t-24 9.5q-6 0 -15.5 -6t-18.5 -13t-12 -11zM312 735l-127 -594q-13 -62 -43 -105.5t-86 -43.5q-39 0 -56 21.5t-17.5 56t6.5 71.5l126 594h83
l-127 -594q-4 -21 -3.5 -32.5t10.5 -11.5q9 0 14.5 13t9.5 31l127 594h83z" />
    <glyph glyph-name="V" unicode="V" horiz-adv-x="240" 
d="M194 735l-52 -376l108 376h81l-225 -735h-82l89 735h81z" />
    <glyph glyph-name="W" unicode="W" horiz-adv-x="334" 
d="M187 352l-103 -352h-70l101 735h78l-53 -345l98 345h61l-48 -344q22 81 46.5 172t46.5 172h78l-211 -735h-71z" />
    <glyph glyph-name="Wcircumflex" unicode="&#x174;" horiz-adv-x="334" 
d="M331 890l22 -90h-65l-8 39l-26 -39h-65l61 90h81zM178 352l-103 -352h-70l100 735h78l-52 -345l97 345h61l-48 -344q22 81 46.5 172t46.5 172h78l-210 -735h-71z" />
    <glyph glyph-name="X" unicode="X" horiz-adv-x="246" 
d="M112 203l-75 -203h-80l153 386q0 41 0.5 87t1.5 87l2 175h82l-9 -178q16 44 33.5 89t33.5 89h82l-144 -349q-1 -31 -2 -62.5t-2 -63.5l-8 -260h-81z" />
    <glyph glyph-name="Y" unicode="Y" horiz-adv-x="235" 
d="M179 521q18 53 37 106.5t38 107.5h82l-159 -422l-67 -313h-83l67 313l21 422h82z" />
    <glyph glyph-name="Yacute" unicode="&#xdd;" horiz-adv-x="236" 
d="M318 890l-67 -90h-64l51 90h80zM171 521q18 53 37 106.5t37 107.5h82l-158 -422l-67 -313h-83l67 313l20 422h82z" />
    <glyph glyph-name="Ycircumflex" unicode="&#x176;" horiz-adv-x="235" 
d="M289 890l22 -90h-65l-8 39l-26 -39h-65l61 90h81zM171 521q18 53 37 106.5t37 107.5h82l-158 -422l-67 -313h-83l67 313l20 422h82z" />
    <glyph glyph-name="Ydieresis" unicode="&#x178;" horiz-adv-x="236" 
d="M166 898h74l-21 -98h-74zM263 898h73l-21 -98h-73zM171 521q18 53 37 106.5t37 107.5h82l-159 -422l-66 -313h-83l66 313l21 422h82z" />
    <glyph glyph-name="Z" unicode="Z" horiz-adv-x="214" 
d="M-17 116l209 512h-87l23 107h176l-23 -107l-215 -521h104l-23 -107h-189z" />
    <glyph glyph-name="Zacute" unicode="&#x179;" horiz-adv-x="214" 
d="M293 915l-67 -90h-63l50 90h80zM-26 116l208 512h-87l23 107h176l-23 -107l-214 -521h104l-23 -107h-189z" />
    <glyph glyph-name="Zcaron" unicode="&#x17d;" horiz-adv-x="214" 
d="M181 800l-23 90h65l9 -39l25 39h65l-60 -90h-81zM-25 116l209 512h-87l22 107h176l-22 -107l-215 -521h104l-23 -107h-189z" />
    <glyph glyph-name="Zdotaccent" unicode="&#x17b;" horiz-adv-x="214" 
d="M206 923h79l-22 -101h-79zM-27 116l209 512h-87l23 107h176l-23 -107l-215 -521h104l-22 -107h-189z" />
    <glyph glyph-name="uni021A" unicode="&#x21a;" horiz-adv-x="220" 
d="M95 624l24 111h205l-24 -111h-61l-133 -624h-83l133 624h-61zM82 -123l-26 -65h-49l25 65h-18l15 69h68z" />
    <glyph glyph-name="a" unicode="a" horiz-adv-x="230" 
d="M173 422q3 13 3.5 29.5t-6.5 16.5t-14.5 -17.5t-9.5 -28.5l-7 -36h-76l7 33q7 31 22.5 62t40.5 52.5t58 21.5q31 0 45.5 -20.5t17 -49t-4.5 -54.5l-71 -336q-8 -37 -11 -57t-5 -38h-67q-1 4 -3 16.5t-1 16.5q-10 -16 -26 -28.5t-34 -12.5q-20 0 -28 16t-8.5 39t2.5 45
t5 35q13 57 41 109t77 88q12 8 24.5 19.5t16.5 19.5zM136 251q-17 -17 -35.5 -53.5t-25.5 -69.5q0 -1 -2 -11.5t-1 -20t8 -9.5q10 0 18 11.5t11 25.5z" />
    <glyph glyph-name="aacute" unicode="&#xe1;" horiz-adv-x="230" 
d="M287 727l-67 -90h-64l51 90h80zM164 422q3 13 3.5 29.5t-6.5 16.5t-14.5 -17.5t-9.5 -28.5l-8 -36h-76l7 33q7 31 23 62t41 52.5t58 21.5q31 0 45.5 -20.5t17 -49t-4.5 -54.5l-71 -336q-8 -37 -11 -57t-5 -38h-67q-1 4 -3 16.5t-2 16.5q-9 -16 -25 -28.5t-34 -12.5
q-20 0 -28 16t-8.5 39t2.5 45t6 35q11 57 39.5 109t77.5 88q12 8 24.5 19.5t16.5 19.5zM127 251q-17 -17 -35.5 -53.5t-25.5 -69.5q0 -1 -2 -11.5t-1 -20t8 -9.5q10 0 18 11.5t11 25.5z" />
    <glyph glyph-name="abreve" unicode="&#x103;" horiz-adv-x="230" 
d="M282 683q-18 -21 -39.5 -34.5t-44.5 -13.5t-41 14.5t-23 33.5l53 57l3 -8t8.5 -16t14.5 -8q8 0 18 8t17 15.5l7 7.5zM163 422q3 13 3.5 29.5t-6.5 16.5t-14.5 -17.5t-9.5 -28.5l-7 -36h-76l7 33q7 31 23 62t41 52.5t58 21.5q31 0 45 -20.5t16.5 -49t-4.5 -54.5l-71 -336
q-8 -37 -10.5 -57t-4.5 -38h-67q-1 4 -3.5 16.5t-1.5 16.5q-10 -16 -26 -28.5t-34 -12.5q-20 0 -28 16t-8.5 39t3 45t6.5 35q11 57 39 109t77 88q12 8 24.5 19.5t16.5 19.5zM126 251q-17 -17 -35.5 -53.5t-25.5 -69.5q0 -1 -2 -11.5t-1 -20t8 -9.5q10 0 18 11.5t11 25.5z
" />
    <glyph glyph-name="acircumflex" unicode="&#xe2;" horiz-adv-x="230" 
d="M257 727l22 -90h-65l-9 39l-25 -39h-65l61 90h81zM164 422q3 13 3.5 29.5t-6.5 16.5t-14.5 -17.5t-9.5 -28.5l-8 -36h-76l7 33q7 31 23 62t41 52.5t58 21.5q31 0 45.5 -20.5t17 -49t-4.5 -54.5l-71 -336q-8 -37 -11 -57t-5 -38h-67q-1 4 -3 16.5t-2 16.5
q-9 -16 -25 -28.5t-34 -12.5q-20 0 -28 16t-8.5 39t2.5 45t6 35q11 57 39.5 109t77.5 88q12 8 24.5 19.5t16.5 19.5zM127 251q-17 -17 -35.5 -53.5t-25.5 -69.5q0 -1 -2 -11.5t-1 -20t8 -9.5q10 0 18 11.5t11 25.5z" />
    <glyph glyph-name="adieresis" unicode="&#xe4;" horiz-adv-x="230" 
d="M134 735h74l-21 -98h-74zM231 735h73l-21 -98h-73zM164 422q2 13 2.5 29.5t-6.5 16.5t-14 -17.5t-9 -28.5l-8 -36h-76l7 33q7 31 23 62t41 52.5t58 21.5q31 0 45 -20.5t16.5 -49t-3.5 -54.5l-72 -336q-7 -37 -10 -57t-5 -38h-67q-1 4 -3 16.5t-2 16.5q-10 -16 -26 -28.5
t-34 -12.5q-20 0 -28 16t-8 39t3 45t6 35q11 57 39.5 109t77.5 88q11 8 23.5 19.5t16.5 19.5zM126 251q-17 -17 -35.5 -53.5t-25.5 -69.5q0 -1 -2 -11.5t-1 -20t8 -9.5q10 0 18 11.5t11 25.5z" />
    <glyph glyph-name="agrave" unicode="&#xe0;" horiz-adv-x="230" 
d="M228 727l12 -90h-64l-28 90h80zM164 422q3 13 3.5 29.5t-6.5 16.5t-14.5 -17.5t-9.5 -28.5l-8 -36h-76l7 33q7 31 23 62t41 52.5t58 21.5q31 0 45.5 -20.5t17 -49t-4.5 -54.5l-71 -336q-8 -37 -11 -57t-5 -38h-67q-1 4 -3 16.5t-2 16.5q-9 -16 -25 -28.5t-34 -12.5
q-20 0 -28 16t-8.5 39t2.5 45t6 35q11 57 39.5 109t77.5 88q12 8 24.5 19.5t16.5 19.5zM127 251q-17 -17 -35.5 -53.5t-25.5 -69.5q0 -1 -2 -11.5t-1 -20t8 -9.5q10 0 18 11.5t11 25.5z" />
    <glyph glyph-name="amacron" unicode="&#x101;" horiz-adv-x="230" 
d="M149 721h134l-17 -79h-134zM164 422q3 13 3.5 29.5t-6.5 16.5t-14.5 -17.5t-9.5 -28.5l-7 -36h-76l7 33q7 31 23 62t41 52.5t58 21.5q31 0 45 -20.5t16.5 -49t-4.5 -54.5l-71 -336q-8 -37 -10.5 -57t-4.5 -38h-67q-1 4 -3.5 16.5t-1.5 16.5q-10 -16 -26 -28.5t-34 -12.5
q-20 0 -28 16t-8.5 39t3 45t6.5 35q11 57 39 109t78 88q11 8 23.5 19.5t16.5 19.5zM127 251q-17 -17 -35.5 -53.5t-25.5 -69.5q0 -1 -2 -11.5t-1 -20t8 -9.5q10 0 18 11.5t11 25.5z" />
    <glyph glyph-name="aogonek" unicode="&#x105;" horiz-adv-x="230" 
d="M183 422q2 13 3 29.5t-6 16.5t-14.5 -17.5t-9.5 -28.5l-8 -36h-76l7 33q7 31 23 62t41 52.5t58 21.5q31 0 45.5 -20.5t17 -49t-4.5 -54.5l-72 -336q-7 -37 -10 -57t-5 -38h-31q-16 -19 -33 -50q-4 -7 -6.5 -15.5t-4.5 -17.5q-4 -22 1 -30t12 -8q4 0 15 6t24 14l-21 -75
q-14 -7 -23.5 -9.5t-18.5 -2.5q-34 0 -46.5 25.5t-5.5 59.5q5 20 14.5 38.5t20.5 33.5q5 6 17 18t19 13q-1 4 -3 16.5t-2 16.5q-9 -16 -25.5 -28.5t-34.5 -12.5q-20 0 -28 16t-8.5 39t2.5 45t6 35q12 57 40.5 109t77.5 88q11 8 23.5 19.5t16.5 19.5zM145 251
q-16 -17 -34.5 -53.5t-26.5 -69.5q0 -1 -1.5 -11.5t-0.5 -20t8 -9.5q10 0 17.5 11.5t10.5 25.5z" />
    <glyph glyph-name="aring" unicode="&#xe5;" horiz-adv-x="230" 
d="M154 694q7 31 27 50.5t42 19.5t33.5 -19.5t4.5 -50.5t-26.5 -50.5t-41.5 -19.5t-34 19.5t-5 50.5zM193 694q-3 -14 0 -23t8 -9t12 9t10 23t-0.5 22.5t-8.5 8.5t-11.5 -8.5t-9.5 -22.5zM162 422q3 13 3.5 29.5t-6.5 16.5t-14.5 -17.5t-9.5 -28.5l-8 -36h-76l7 33
q7 31 23 62t41 52.5t58 21.5q31 0 45.5 -20.5t17 -49t-4.5 -54.5l-71 -336q-8 -37 -11 -57t-5 -38h-67q-1 4 -3 16.5t-2 16.5q-9 -16 -25 -28.5t-34 -12.5q-20 0 -28 16t-8.5 39t2.5 45t6 35q11 57 39.5 109t77.5 88q12 8 24 19.5t16 19.5zM125 251q-17 -17 -35.5 -53.5
t-25.5 -69.5q0 -1 -2 -11.5t-1 -20t8 -9.5q10 0 18 11.5t11 25.5z" />
    <glyph glyph-name="atilde" unicode="&#xe3;" horiz-adv-x="230" 
d="M143 705q8 10 21 15.5t24 5.5q17 0 26 -8.5t23 -8.5q10 0 25 11t22 18l-18 -83q-8 -10 -19.5 -17.5t-25.5 -7.5q-17 0 -26 9.5t-24 9.5q-9 0 -25.5 -12.5t-21.5 -17.5zM163 422q3 13 3.5 29.5t-6.5 16.5t-14.5 -17.5t-9.5 -28.5l-7 -36h-76l7 33q7 31 23 62t41 52.5
t58 21.5q31 0 45 -20.5t16.5 -49t-4.5 -54.5l-71 -336q-8 -37 -10.5 -57t-4.5 -38h-67q-1 4 -3.5 16.5t-1.5 16.5q-10 -16 -26 -28.5t-34 -12.5q-20 0 -28 16t-8.5 39t3 45t6.5 35q11 57 39 109t78 88q11 8 23.5 19.5t16.5 19.5zM126 251q-17 -17 -35.5 -53.5t-25.5 -69.5
q0 -1 -2 -11.5t-1 -20t8 -9.5q10 0 18 11.5t11 25.5z" />
    <glyph glyph-name="ae" unicode="&#xe6;" horiz-adv-x="333" 
d="M315 196l-15 -69q-7 -35 -22.5 -66t-40.5 -50t-64 -19t-53 27q-13 -13 -32 -20t-37 -7q-24 0 -35.5 16t-14.5 39t-1 45t4 35q13 57 41 109t77 88q12 8 24.5 19.5t16.5 19.5l12 59q3 13 3.5 29.5t-6.5 16.5t-14.5 -17.5t-9.5 -28.5l-7 -36h-76l7 33q7 31 22.5 62
t40.5 52.5t58 21.5q16 0 27.5 -6t18.5 -16q13 10 27 16t31 6q42 0 57.5 -21t15 -52.5t-7.5 -63.5l-34 -163h-109l-26 -119q-3 -16 -3.5 -35.5t7.5 -19.5q12 0 19.5 20.5t10.5 34.5l13 60h75zM235 334h34l17 77q5 20 5 38t-13 18q-6 0 -11.5 -10.5t-9 -24t-5.5 -21.5z
M138 251q-17 -17 -35.5 -53.5t-25.5 -69.5q0 -1 -2 -11.5t-1 -20t8 -9.5q10 0 18 11.5t11 25.5z" />
    <glyph glyph-name="b" unicode="b" horiz-adv-x="231" 
d="M132 735h79l-45 -211q5 10 21.5 20.5t26.5 10.5q26 0 35 -17.5t8.5 -42t-5.5 -47.5l-74 -349q-4 -19 -10.5 -44.5t-19.5 -44t-38 -18.5q-19 0 -33 14.5t-16 23.5l-6 -30h-78zM81 125q-3 -14 -2 -26t8 -12q8 0 13.5 11.5t8.5 26.5l66 306q3 14 1.5 25t-8.5 11t-13 -12
t-8 -24z" />
    <glyph glyph-name="c" unicode="c" horiz-adv-x="219" 
d="M86 126q-3 -15 -2 -29t8 -14q8 0 14 9t11 34l16 76h76l-13 -63q-8 -38 -20.5 -72t-37 -54.5t-68.5 -20.5q-29 0 -43.5 15.5t-19 39t-2.5 50t6 47.5l55 259q8 32 22.5 67t39.5 60t63 25q34 0 50 -13t20 -34t1 -47t-9 -53l-11 -53h-76l15 72q5 25 3 32.5t-9 7.5
t-14.5 -12.5t-10.5 -27.5z" />
    <glyph glyph-name="cacute" unicode="&#x107;" horiz-adv-x="219" 
d="M266 727l-66 -90h-64l50 90h80zM77 126q-3 -15 -2 -29t8 -14q8 0 14 9t11 34l16 76h76l-13 -63q-8 -38 -20.5 -72t-37 -54.5t-68.5 -20.5q-29 0 -43.5 15.5t-19 39t-2.5 50t6 47.5l55 259q7 32 22 67t40 60t63 25q34 0 50 -13t20 -34t1 -47t-9 -53l-11 -53h-76l15 72
q5 25 3 32.5t-9 7.5t-14.5 -12.5t-10.5 -27.5z" />
    <glyph glyph-name="ccaron" unicode="&#x10d;" horiz-adv-x="219" 
d="M154 637l-23 90h65l9 -39l25 39h65l-60 -90h-81zM77 126q-3 -15 -2 -29t8 -14q8 0 14 9t11 34l16 76h76l-13 -63q-8 -38 -20.5 -72t-37 -54.5t-68.5 -20.5q-29 0 -43.5 15.5t-19 39t-2.5 50t6 47.5l55 259q7 32 22 67t40 60t63 25q34 0 50 -13t20 -34t1 -47t-9 -53
l-11 -53h-76l15 72q5 25 3 32.5t-9 7.5t-14.5 -12.5t-10.5 -27.5z" />
    <glyph glyph-name="ccedilla" unicode="&#xe7;" horiz-adv-x="219" 
d="M96 126q-3 -15 -2 -29t8 -14q8 0 14 9t11 34l16 76h76l-13 -63q-9 -38 -21.5 -72t-37 -54.5t-68.5 -20.5q-29 0 -43.5 15.5t-19 39t-2 50t6.5 47.5l55 259q7 32 22 67t40 60t63 25q34 0 50 -13t20 -34t1 -47t-9 -53l-11 -53h-76l15 72q5 25 2.5 32.5t-9.5 7.5t-14 -12.5
t-10 -27.5zM83 -123l-27 -65h-49l26 65h-18l15 69h68z" />
    <glyph glyph-name="ccircumflex" unicode="&#x109;" horiz-adv-x="219" 
d="M260 727l22 -90h-65l-9 39l-25 -39h-65l61 90h81zM77 126q-3 -15 -2 -29t8 -14q8 0 14 9t11 34l16 76h76l-13 -63q-8 -38 -20.5 -72t-37 -54.5t-68.5 -20.5q-29 0 -43.5 15.5t-19 39t-2.5 50t6 47.5l55 259q7 32 22 67t40 60t63 25q34 0 50 -13t20 -34t1 -47t-9 -53
l-11 -53h-76l15 72q5 25 3 32.5t-9 7.5t-14.5 -12.5t-10.5 -27.5z" />
    <glyph glyph-name="cdotaccent" unicode="&#x10b;" horiz-adv-x="219" 
d="M183 735h78l-21 -101h-78zM77 126q-4 -15 -2.5 -29t8.5 -14q8 0 14 9t11 34l16 76h76l-14 -63q-8 -38 -20.5 -72t-37 -54.5t-68.5 -20.5q-29 0 -43.5 15.5t-19 39t-2 50t6.5 47.5l55 259q7 32 22 67t40 60t63 25q34 0 50 -13t20 -34t1 -47t-9 -53l-12 -53h-76l16 72
q5 25 2.5 32.5t-9.5 7.5t-14 -12.5t-10 -27.5z" />
    <glyph glyph-name="d" unicode="d" horiz-adv-x="231" 
d="M163 0h-79l6 30q-5 -9 -25 -23.5t-40 -14.5q-24 0 -28.5 18.5t-0.5 44t7 44.5l74 349q5 23 15 47.5t27 42t42 17.5q11 0 22.5 -10.5t11.5 -20.5l45 211h79zM176 431q2 12 1.5 24t-8.5 12q-7 0 -12.5 -11t-8.5 -25l-66 -306q-3 -15 -2.5 -26.5t8.5 -11.5t13.5 12t8.5 26z
" />
    <glyph glyph-name="eth" unicode="&#xf0;" horiz-adv-x="227" 
d="M232 751q2 -6 5.5 -19.5l3.5 -13.5l36 40l12 -44l-37 -43q6 -36 9 -90.5t-13 -127.5l-68 -320q-6 -28 -21.5 -61t-40.5 -56.5t-60 -23.5q-36 0 -50.5 23.5t-15 57t5.5 63.5l59 283q6 25 16.5 56.5t29.5 55.5t48 24q16 0 31 -17q2 16 2.5 33t0.5 29l-27 -31l-13 43l41 45
q-1 11 -5.5 20t-3.5 10zM166 421q4 19 2.5 32.5t-9.5 13.5q-5 0 -11 -10t-10.5 -21t-5.5 -15l-63 -295q-3 -16 -2 -30.5t10 -14.5q7 0 15.5 16.5t10.5 28.5z" />
    <glyph glyph-name="dcaron" unicode="&#x10f;" horiz-adv-x="322" 
d="M147 0h-79l3 13q-3 -2 -9.5 -7t-8.5 -7q-12 -7 -26 -7q-16 0 -24.5 11t-10.5 26q-3 15 -1.5 34t5.5 36l73 349q4 17 10.5 36t15.5 35q8 14 22 25t30 11q12 0 20 -6t15 -14l42 200h79zM383 624l-61 -130h-48l53 130h-25l23 111h81zM159 427q2 12 1.5 22.5t-3.5 10.5
t-7 -9.5t-7 -23.5l-66 -307q-3 -14 -3 -23.5t3 -9.5t8 9.5t8 23.5z" />
    <glyph glyph-name="dcroat" unicode="&#x111;" horiz-adv-x="231" 
d="M288 597h-14l-127 -597h-79l3 13q-3 -2 -9.5 -7t-8.5 -7q-12 -7 -26 -7q-16 0 -24.5 11t-10.5 26q-3 15 -1.5 34t5.5 36l73 349q4 17 10.5 36t15.5 35q8 14 22 25t30 11q12 0 20 -6t15 -14l13 62h-12l20 95h12l9 43h79l-9 -43h14zM159 427q2 12 1.5 22.5t-3.5 10.5
t-7 -9.5t-7 -23.5l-66 -307q-3 -14 -3 -23.5t3 -9.5t8 9.5t8 23.5z" />
    <glyph glyph-name="e" unicode="e" horiz-adv-x="223" 
d="M208 196l-15 -69q-7 -35 -22.5 -66t-40.5 -50t-64 -19q-34 0 -48.5 21.5t-15 53.5t5.5 63l61 285q7 33 22.5 65t40.5 53.5t58 21.5q42 0 57.5 -21t15 -52.5t-7.5 -63.5l-34 -163h-109l-26 -119q-3 -16 -3.5 -35.5t7.5 -19.5q12 0 19.5 20.5t10.5 34.5l13 60h75zM128 334
h34l17 77q5 20 5 38t-13 18q-6 0 -11.5 -10.5t-9 -24t-5.5 -21.5z" />
    <glyph glyph-name="eacute" unicode="&#xe9;" horiz-adv-x="223" 
d="M296 727l-67 -90h-64l51 90h80zM199 196l-15 -69q-7 -35 -22.5 -66t-40.5 -50t-64 -19q-34 0 -48.5 21.5t-14.5 53.5t6 63l60 285q7 33 22.5 65t40.5 53.5t58 21.5q42 0 57.5 -21t15 -52.5t-7.5 -63.5l-34 -163h-109l-26 -119q-3 -16 -3.5 -35.5t7.5 -19.5
q12 0 19.5 20.5t10.5 34.5l13 60h75zM119 334h34l17 77q4 20 4.5 38t-12.5 18q-6 0 -11.5 -10.5t-9 -24t-5.5 -21.5z" />
    <glyph glyph-name="ebreve" unicode="&#x115;" horiz-adv-x="223" 
d="M284 684q-18 -21 -39.5 -34.5t-44.5 -13.5t-41 14.5t-23 33.5l53 57l3 -8t8.5 -16t14.5 -8q8 0 18 8t17 15.5l7 7.5zM198 196l-14 -69q-7 -35 -22.5 -66t-41 -50t-64.5 -19q-34 0 -48.5 21.5t-14.5 53.5t6 63l60 285q7 33 23 65t41 53.5t58 21.5q42 0 57.5 -21
t14.5 -52.5t-8 -63.5l-34 -163h-109l-25 -119q-4 -16 -4.5 -35.5t7.5 -19.5q12 0 19.5 20.5t11.5 34.5l12 60h75zM119 334h34l16 77q5 20 5 38t-13 18q-6 0 -11.5 -10.5t-9 -24t-5.5 -21.5z" />
    <glyph glyph-name="ecaron" unicode="&#x11b;" horiz-adv-x="223" 
d="M159 637l-23 90h65l9 -39l25 39h65l-60 -90h-81zM199 196l-15 -69q-7 -35 -22.5 -66t-40.5 -50t-64 -19q-34 0 -48.5 21.5t-14.5 53.5t6 63l60 285q7 33 22.5 65t40.5 53.5t58 21.5q42 0 57.5 -21t15 -52.5t-7.5 -63.5l-34 -163h-109l-26 -119q-3 -16 -3.5 -35.5
t7.5 -19.5q12 0 19.5 20.5t10.5 34.5l13 60h75zM119 334h34l17 77q4 20 4.5 38t-12.5 18q-6 0 -11.5 -10.5t-9 -24t-5.5 -21.5z" />
    <glyph glyph-name="ecircumflex" unicode="&#xea;" horiz-adv-x="223" 
d="M259 727l22 -90h-65l-9 39l-25 -39h-65l61 90h81zM199 196l-15 -69q-7 -35 -22.5 -66t-40.5 -50t-64 -19q-34 0 -48.5 21.5t-14.5 53.5t6 63l60 285q7 33 22.5 65t40.5 53.5t58 21.5q42 0 57.5 -21t15 -52.5t-7.5 -63.5l-34 -163h-109l-26 -119q-3 -16 -3.5 -35.5
t7.5 -19.5q12 0 19.5 20.5t10.5 34.5l13 60h75zM119 334h34l17 77q4 20 4.5 38t-12.5 18q-6 0 -11.5 -10.5t-9 -24t-5.5 -21.5z" />
    <glyph glyph-name="edieresis" unicode="&#xeb;" horiz-adv-x="223" 
d="M135 735h74l-21 -98h-74zM232 735h73l-21 -98h-73zM199 196l-15 -69q-7 -35 -22.5 -66t-41 -50t-64.5 -19q-34 0 -48.5 21.5t-14.5 53.5t7 63l59 285q7 33 23 65t41 53.5t58 21.5q42 0 57.5 -21t15 -52.5t-7.5 -63.5l-35 -163h-109l-25 -119q-4 -16 -4.5 -35.5t7.5 -19.5
q12 0 20 20.5t11 34.5l13 60h75zM119 334h34l16 77q5 20 5 38t-13 18q-6 0 -11.5 -10.5t-9 -24t-5.5 -21.5z" />
    <glyph glyph-name="edotaccent" unicode="&#x117;" horiz-adv-x="223" 
d="M182 735h79l-21 -101h-79zM199 196l-15 -69q-7 -35 -22.5 -66t-41 -50t-64.5 -19q-34 0 -48.5 21.5t-14.5 53.5t7 63l59 285q7 33 23 65t41 53.5t58 21.5q42 0 57.5 -21t15 -52.5t-7.5 -63.5l-35 -163h-109l-25 -119q-4 -16 -4.5 -35.5t7.5 -19.5q12 0 20 20.5t11 34.5
l13 60h75zM119 334h34l16 77q5 20 5 38t-13 18q-6 0 -11.5 -10.5t-9 -24t-5.5 -21.5z" />
    <glyph glyph-name="egrave" unicode="&#xe8;" horiz-adv-x="223" 
d="M218 727l12 -90h-64l-28 90h80zM199 196l-15 -69q-7 -35 -22.5 -66t-40.5 -50t-64 -19q-34 0 -48.5 21.5t-14.5 53.5t6 63l60 285q7 33 22.5 65t40.5 53.5t58 21.5q42 0 57.5 -21t15 -52.5t-7.5 -63.5l-34 -163h-109l-26 -119q-3 -16 -3.5 -35.5t7.5 -19.5
q12 0 19.5 20.5t10.5 34.5l13 60h75zM119 334h34l17 77q4 20 4.5 38t-12.5 18q-6 0 -11.5 -10.5t-9 -24t-5.5 -21.5z" />
    <glyph glyph-name="emacron" unicode="&#x113;" horiz-adv-x="223" 
d="M152 721h134l-17 -79h-134zM199 196l-14 -69q-7 -35 -22.5 -66t-41 -50t-64.5 -19q-34 0 -48.5 21.5t-14.5 53.5t6 63l60 285q7 33 23 65t41 53.5t58 21.5q42 0 57.5 -21t15 -52.5t-7.5 -63.5l-35 -163h-109l-25 -119q-4 -16 -4.5 -35.5t7.5 -19.5q12 0 20 20.5t11 34.5
l12 60h75zM120 334h34l16 77q5 20 5 38t-13 18q-6 0 -11.5 -10.5t-9 -24t-5.5 -21.5z" />
    <glyph glyph-name="eogonek" unicode="&#x119;" horiz-adv-x="223" 
d="M218 196l-15 -69q-9 -42 -29 -77.5t-55 -49.5h18q-9 -10 -17 -21.5t-16 -28.5q-4 -7 -6.5 -15.5t-4.5 -17.5q-4 -22 1 -30t12 -8q4 0 15 6t24 14l-21 -75q-14 -7 -23.5 -9.5t-18.5 -2.5q-34 0 -47 25.5t-6 59.5q4 18 15 38t21 34q4 5 9.5 12t9.5 11q-2 -1 -3.5 -0.5
t-5.5 0.5h-4q-33 2 -46 23t-13 52.5t6 62.5l60 285q7 33 23 65t41 53.5t58 21.5q42 0 57.5 -21t15 -52.5t-7.5 -63.5l-35 -163h-109l-25 -119q-4 -16 -4.5 -35.5t7.5 -19.5q12 0 20 20.5t11 34.5l13 60h75zM138 334h34l16 77q5 20 5 38t-13 18q-6 0 -11.5 -10.5t-9 -24
t-5.5 -21.5z" />
    <glyph glyph-name="f" unicode="f" horiz-adv-x="169" 
d="M-11 0l96 456h-31l20 91h31l6 32q8 34 20 71t34 63t58 26q21 0 35 -10l-17 -83q-7 5 -15 5t-13 -4q-8 -7 -13 -25t-9 -37l-8 -38h31l-20 -91h-31l-97 -456h-77z" />
    <glyph glyph-name="g" unicode="g" horiz-adv-x="245" 
d="M228 264q-8 -29 -24.5 -60.5t-42 -53t-59.5 -21.5h-5q-3 -4 -6 -10t-5 -14q-3 -15 9.5 -23t23.5 -11q15 -4 29.5 -10.5t23.5 -20.5q10 -16 14 -39t-3 -57q-8 -36 -26 -68t-47 -52t-70 -20q-51 0 -72 29t-11 77q6 29 26.5 49t42.5 34h1q-16 8 -24.5 25t-2.5 48
q5 23 22 45.5t36 36.5q-13 29 -16.5 57t3.5 62l32 149q7 29 22.5 61.5t40 55t57.5 22.5q44 0 55 -34q16 15 33 24.5t37 9.5l-19 -90q-29 0 -39 -12q1 -3 0.5 -11t-1.5 -13zM183 417q4 17 5 33.5t-9 16.5q-7 0 -14 -17.5t-10 -32.5l-33 -155q-3 -14 -3.5 -31.5t6.5 -17.5
t12 9.5t8.5 21t4.5 18.5zM64 -27q-8 -7 -16.5 -18.5t-11.5 -27.5q-4 -16 1.5 -27t21.5 -11q17 0 29 11t16 26q4 18 -2.5 26.5t-15.5 12.5z" />
    <glyph glyph-name="gbreve" unicode="&#x11f;" horiz-adv-x="235" 
d="M297 684q-18 -21 -39.5 -34.5t-44.5 -13.5t-41 14.5t-23 33.5l53 57l3 -8t8.5 -16t14.5 -8q8 0 18 8t17 15.5l7 7.5zM218 264q-8 -29 -24.5 -60.5t-42 -53t-59.5 -21.5h-5q-3 -4 -6 -10t-5 -14q-3 -15 10 -23t23 -11q15 -4 29.5 -10.5t23.5 -20.5q10 -16 14 -39t-3 -57
q-8 -36 -26 -68t-47 -52t-70 -20q-51 0 -72 29t-11 77q7 29 27 49t42 34h1q-15 8 -24 25t-2 48q5 23 21.5 45.5t35.5 36.5q-13 29 -16.5 57t3.5 62l32 149q7 29 22.5 61.5t40.5 55t58 22.5q43 0 54 -34q17 15 34 24.5t37 9.5l-20 -90q-29 0 -39 -12q1 -3 0.5 -11t-1.5 -13z
M173 417q4 17 5 33.5t-9 16.5q-7 0 -14 -17.5t-10 -32.5l-33 -155q-3 -14 -3.5 -31.5t6.5 -17.5t12 9.5t8.5 21t4.5 18.5zM54 -27q-8 -7 -16 -18.5t-12 -27.5q-3 -16 2 -27t21 -11q17 0 29.5 11t15.5 26q4 18 -2.5 26.5t-15.5 12.5z" />
    <glyph glyph-name="gcircumflex" unicode="&#x11d;" horiz-adv-x="235" 
d="M269 727l22 -90h-65l-9 39l-25 -39h-65l61 90h81zM218 264q-7 -29 -23.5 -60.5t-42 -53t-59.5 -21.5h-5q-3 -4 -6 -10t-5 -14q-4 -15 9 -23t23 -11q16 -4 30.5 -10.5t23.5 -20.5q10 -16 14 -39t-4 -57q-7 -36 -25 -68t-47 -52t-70 -20q-51 0 -72 29t-11 77q6 29 26.5 49
t42.5 34h1q-15 8 -24 25t-3 48q5 23 22 45.5t36 36.5q-13 29 -16.5 57t3.5 62l32 149q7 29 22.5 61.5t40 55t57.5 22.5q44 0 55 -34q16 15 33 24.5t37 9.5l-19 -90q-29 0 -39 -12q1 -3 0.5 -11t-1.5 -13zM174 417q4 17 5 33.5t-9 16.5q-7 0 -14 -17.5t-10 -32.5l-33 -155
q-3 -14 -3.5 -31.5t6.5 -17.5t12 9.5t8.5 21t4.5 18.5zM55 -27q-9 -7 -17 -18.5t-11 -27.5q-4 -16 1.5 -27t21.5 -11q17 0 29 11t16 26q4 18 -2.5 26.5t-15.5 12.5z" />
    <glyph glyph-name="uni0123" unicode="&#x123;" horiz-adv-x="235" 
d="M193 793l61 130h48l-49 -130h21l-23 -111h-81zM208 264q-7 -29 -24 -60.5t-42.5 -53t-59.5 -21.5h-5q-3 -4 -6 -10t-5 -14q-3 -15 10 -23t23 -11q16 -4 30 -10.5t23 -20.5q11 -16 15 -39t-4 -57q-7 -36 -25.5 -68t-47.5 -52t-70 -20q-51 0 -71.5 29t-10.5 77q6 29 26 49
t42 34h1q-14 8 -23.5 25t-2.5 48q5 23 21.5 45.5t35.5 36.5q-13 29 -16 57t4 62l31 149q7 29 22.5 61.5t40.5 55t58 22.5q43 0 55 -34q16 15 33 24.5t37 9.5l-19 -90q-28 0 -40 -12q1 -3 0.5 -11t-1.5 -13zM164 417q3 17 4 33.5t-9 16.5q-7 0 -13.5 -17.5t-9.5 -32.5
l-33 -155q-3 -14 -4 -31.5t6 -17.5t12 9.5t9 21t5 18.5zM44 -27q-8 -7 -16 -18.5t-12 -27.5q-3 -16 2 -27t21 -11q17 0 29.5 11t15.5 26q4 18 -2.5 26.5t-15.5 12.5z" />
    <glyph glyph-name="gdotaccent" unicode="&#x121;" horiz-adv-x="235" 
d="M191 735h79l-21 -101h-79zM218 264q-7 -29 -24 -60.5t-42.5 -53t-59.5 -21.5h-5q-3 -4 -6 -10t-5 -14q-3 -15 10 -23t23 -11q16 -4 30 -10.5t23 -20.5q11 -16 15 -39t-4 -57q-8 -36 -26 -68t-47 -52t-70 -20q-51 0 -71.5 29t-10.5 77q6 29 26 49t42 34h1q-14 8 -23.5 25
t-2.5 48q5 23 21.5 45.5t35.5 36.5q-13 29 -16 57t4 62l31 149q7 29 22.5 61.5t40.5 55t58 22.5q43 0 55 -34q16 15 33 24.5t37 9.5l-19 -90q-28 0 -40 -12q1 -3 0.5 -11t-1.5 -13zM174 417q3 17 4 33.5t-9 16.5q-7 0 -13.5 -17.5t-9.5 -32.5l-33 -155q-3 -14 -4 -31.5
t6 -17.5t12 9.5t9 21t5 18.5zM54 -27q-8 -7 -16 -18.5t-12 -27.5q-3 -16 2 -27t21 -11q17 0 29.5 11t15.5 26q4 18 -2.5 26.5t-15.5 12.5z" />
    <glyph glyph-name="h" unicode="h" horiz-adv-x="229" 
d="M54 0h-78l156 735h79l-45 -211q4 10 20 20.5t29 10.5q19 0 28 -12t11.5 -29.5t1 -35.5t-4.5 -30l-96 -448h-75l92 431q2 9 3 22.5t-8 13.5q-8 0 -13.5 -13t-7.5 -23z" />
    <glyph glyph-name="hbar" unicode="&#x127;" 
d="M54 0h-78l130 612h-23l16 79h23l10 44h79l-10 -44h33l-16 -79h-33l-19 -87q5 10 20.5 20t28.5 10q19 0 28 -12t11.5 -29.5t1 -35.5t-4.5 -30l-96 -448h-75l92 431q2 9 3 22.5t-8 13.5q-8 0 -13.5 -13t-7.5 -23z" />
    <glyph glyph-name="hcircumflex" unicode="&#x125;" 
d="M190 639l-24 -114q5 10 20.5 20t28.5 10q19 0 28 -12t11.5 -29.5t1 -35.5t-4.5 -30l-96 -448h-75l92 431q2 9 3 22.5t-8 13.5q-8 0 -13.5 -13t-7.5 -23l-92 -431h-78l156 735h79l-2 -8h49l22 -90h-72l-7 20z" />
    <glyph glyph-name="i" unicode="i" horiz-adv-x="132" 
d="M132 735h79l-22 -101h-79zM-24 0l116 547h79l-117 -547h-78z" />
    <glyph glyph-name="dotlessi" unicode="&#x131;" horiz-adv-x="139" 
d="M-14 0l116 547h79l-117 -547h-78z" />
    <glyph glyph-name="iacute" unicode="&#xed;" horiz-adv-x="139" 
d="M241 727l-66 -90h-64l50 90h80zM-23 0l115 547h79l-116 -547h-78z" />
    <glyph glyph-name="ibreve" unicode="&#x12d;" horiz-adv-x="139" 
d="M238 684q-18 -21 -40 -34.5t-45 -13.5t-40.5 14.5t-22.5 33.5l53 57l3 -8t8.5 -16t14.5 -8q8 0 17.5 8t16.5 15.5l7 7.5zM-24 0l115 547h79l-116 -547h-78z" />
    <glyph glyph-name="icircumflex" unicode="&#xee;" horiz-adv-x="139" 
d="M211 727l22 -90h-65l-8 39l-26 -39h-65l61 90h81zM-23 0l115 547h79l-116 -547h-78z" />
    <glyph glyph-name="idieresis" unicode="&#xef;" horiz-adv-x="139" 
d="M87 735h74l-21 -98h-74zM184 735h73l-21 -98h-73zM-24 0l116 547h79l-117 -547h-78z" />
    <glyph glyph-name="igrave" unicode="&#xec;" horiz-adv-x="139" 
d="M177 727l13 -90h-64l-29 90h80zM-23 0l115 547h79l-116 -547h-78z" />
    <glyph glyph-name="ij" unicode="&#x133;" horiz-adv-x="245" 
d="M142 735h79l-22 -101h-79zM250 735h79l-22 -101h-79zM-14 0l116 547h79l-117 -547h-78zM289 547l-119 -561q-4 -21 -12 -51t-20 -57q-13 -26 -34 -46t-50 -20q-8 0 -15.5 1.5t-18.5 6.5l22 91q17 -6 25.5 3t12.5 24t6 26l124 583h79z" />
    <glyph glyph-name="imacron" unicode="&#x12b;" horiz-adv-x="139" 
d="M102 721h134l-16 -79h-134zM-23 0l116 547h79l-117 -547h-78z" />
    <glyph glyph-name="iogonek" unicode="&#x12f;" horiz-adv-x="139" 
d="M199 634h-79l22 101h79zM53 0q-7 -10 -15.5 -22.5t-16.5 -27.5q-8 -16 -11 -33q-4 -22 1 -30t12 -8q4 0 14.5 6t23.5 14l-21 -75q-14 -7 -23 -9.5t-17 -2.5q-34 0 -46.5 25.5t-5.5 59.5q4 18 14.5 38t20.5 34l5 6q8 10 22 25h-24l116 547h79l-117 -547h-11z" />
    <glyph glyph-name="itilde" unicode="&#x129;" horiz-adv-x="139" 
d="M99 709q19 21 45 21q17 0 26.5 -8.5t23.5 -8.5q10 0 25 11t21 18l-18 -83q-8 -10 -19.5 -17.5t-25.5 -7.5q-17 0 -26 9.5t-24 9.5q-9 0 -25.5 -12.5t-21.5 -17.5zM-24 0l115 547h79l-116 -547h-78z" />
    <glyph glyph-name="j" unicode="j" horiz-adv-x="137" 
d="M140 735h79l-22 -101h-79zM179 547l-119 -561q-4 -21 -12 -51t-20 -57q-13 -26 -33.5 -46t-49.5 -20q-8 0 -15.5 1.5t-18.5 6.5l22 91q17 -6 25.5 3t12.5 24t6 26l123 583h79z" />
    <glyph glyph-name="jcircumflex" unicode="&#x135;" horiz-adv-x="137" 
d="M200 645l-3 -11h-79l3 11h-41l60 90h81l23 -90h-44zM101 547h79l-119 -561q-4 -21 -12 -51t-20 -57q-13 -26 -33.5 -46t-49.5 -20q-8 0 -15.5 1.5t-18.5 6.5l22 91q17 -6 25.5 3t12.5 24t6 26z" />
    <glyph glyph-name="k" unicode="k" horiz-adv-x="218" 
d="M208 735l-64 -302l61 114h76l-107 -188l-12 -359h-76l15 232l-50 -232h-75l156 735h76z" />
    <glyph glyph-name="uni0137" unicode="&#x137;" horiz-adv-x="218" 
d="M218 735l-64 -302l61 114h76l-107 -188l-12 -359h-76l15 232l-50 -232h-75l156 735h76zM82 -123l-26 -65h-49l25 65h-18l15 69h68z" />
    <glyph glyph-name="kgreenlandic" unicode="&#x138;" horiz-adv-x="218" 
d="M208 735l-64 -302l61 114h76l-107 -188l-12 -359h-76l15 232l-50 -232h-75l156 735h76z" />
    <glyph glyph-name="l" unicode="l" horiz-adv-x="137" 
d="M-24 0l156 735h79l-157 -735h-78z" />
    <glyph glyph-name="lacute" unicode="&#x13a;" horiz-adv-x="139" 
d="M243 838l-66 -90h-64l50 90h80zM-29 0l155 735h79l-156 -735h-78z" />
    <glyph glyph-name="lcaron" unicode="&#x13e;" horiz-adv-x="229" 
d="M-24 0l156 735h79l-157 -735h-78zM305 624l-61 -130h-48l49 130h-21l24 111h81z" />
    <glyph glyph-name="uni013C" unicode="&#x13c;" horiz-adv-x="139" 
d="M-14 0l155 735h79l-156 -735h-78zM35 -116l-26 -65h-48l25 65h-18l15 69h67z" />
    <glyph glyph-name="ldot" unicode="&#x140;" horiz-adv-x="223" 
d="M-24 0l156 735h79l-157 -735h-78zM175 428h81l-23 -111h-81z" />
    <glyph glyph-name="lslash" unicode="&#x142;" horiz-adv-x="167" 
d="M-10 0l61 290q-8 -9 -19 -19.5t-18 -18.5l27 128l39 40h-1l67 315h79l-46 -214q9 9 19.5 20t17.5 18l-27 -128l-38 -40h1l-84 -391h-78z" />
    <glyph glyph-name="m" unicode="m" horiz-adv-x="329" 
d="M165 0h-72l92 433q8 34 -8 34q-7 0 -12.5 -11t-8.5 -25l-92 -431h-78l115 547h79l-6 -29q12 15 30 26t32 11q17 0 24.5 -12.5t5.5 -27.5q11 17 32.5 28.5t37.5 11.5q19 0 26.5 -12t8.5 -29.5t-2 -35.5t-6 -30l-95 -448h-73l92 431q3 16 1.5 26t-9.5 10t-14 -13.5
t-8 -22.5z" />
    <glyph glyph-name="n" unicode="n" 
d="M64 0h-78l115 547h79l-6 -28q11 11 29.5 23.5t31.5 12.5q19 0 27 -12t9.5 -29.5t-0.5 -35.5t-5 -30l-95 -448h-78l92 432q3 16 1.5 25.5t-9.5 9.5q-7 0 -12.5 -10t-8.5 -26z" />
    <glyph glyph-name="nacute" unicode="&#x144;" 
d="M272 727l-67 -90h-63l50 90h80zM55 0h-78l115 547h79l-6 -28q10 11 29 23.5t32 12.5q19 0 27 -12t9.5 -29.5t-0.5 -35.5t-5 -30l-95 -448h-78l92 432q3 16 1.5 25.5t-9.5 9.5q-7 0 -12.5 -10t-8.5 -26z" />
    <glyph glyph-name="napostrophe" unicode="&#x149;" 
d="M158 635l-28 -65h-48l26 65h-19l15 69h69zM56 0h-78l115 547h79l-6 -28q11 11 29.5 23.5t31.5 12.5q19 0 27 -12t9.5 -29.5t-0.5 -35.5t-5 -30l-95 -448h-78l92 432q3 16 1.5 25.5t-9.5 9.5q-7 0 -12.5 -10t-8.5 -26z" />
    <glyph glyph-name="ncaron" unicode="&#x148;" 
d="M156 637l-23 90h65l9 -39l25 39h65l-60 -90h-81zM55 0h-78l115 547h79l-6 -28q10 11 29 23.5t32 12.5q19 0 27 -12t9.5 -29.5t-0.5 -35.5t-5 -30l-95 -448h-78l92 432q3 16 1.5 25.5t-9.5 9.5q-7 0 -12.5 -10t-8.5 -26z" />
    <glyph glyph-name="uni0146" unicode="&#x146;" 
d="M74 0h-78l115 547h79l-6 -28q11 11 29.5 23.5t31.5 12.5q19 0 27 -12t9.5 -29.5t-0.5 -35.5t-5 -30l-95 -448h-78l92 432q3 16 1.5 25.5t-9.5 9.5q-7 0 -12.5 -10t-8.5 -26zM92 -123l-27 -65h-49l26 65h-18l15 69h68z" />
    <glyph glyph-name="eng" unicode="&#x14b;" 
d="M71 0h-78l115 547h79l-6 -28q11 11 29.5 23.5t31.5 12.5q19 0 27 -12t9.5 -29.5t-0.5 -35.5t-5 -30l-99 -467q-4 -21 -14 -42.5t-24 -38.5q-15 -16 -38.5 -25.5t-57.5 -6.5l19 87q18 -5 31 10h-1q5 9 10 29l93 439q3 15 1.5 24.5t-9.5 9.5q-7 0 -12.5 -10t-8.5 -26z" />
    <glyph glyph-name="ntilde" unicode="&#xf1;" 
d="M145 709q19 21 45 21q17 0 26.5 -8.5t23.5 -8.5q10 0 25 11t21 18l-18 -83q-8 -10 -19.5 -17.5t-25.5 -7.5q-17 0 -26 9.5t-24 9.5q-9 0 -25.5 -12.5t-21.5 -17.5zM54 0h-78l115 547h79l-6 -28q11 11 29.5 23.5t31.5 12.5q19 0 27 -12t9.5 -29.5t-0.5 -35.5t-5 -30
l-95 -448h-78l92 432q3 16 1.5 25.5t-9.5 9.5q-7 0 -12.5 -10t-8.5 -26z" />
    <glyph glyph-name="o" unicode="o" horiz-adv-x="223" 
d="M194 133q-13 -63 -41 -102t-82 -39q-39 0 -54 22t-14.5 55t6.5 67l59 275q8 38 23 71t39.5 53t61.5 20q40 0 55.5 -19t15 -51t-9.5 -71zM180 421q5 19 5 32.5t-12 13.5q-10 0 -16.5 -13t-11.5 -33l-63 -295q-4 -16 -3 -30.5t11 -14.5q8 0 14 9.5t9.5 20.5t3.5 15z" />
    <glyph glyph-name="oacute" unicode="&#xf3;" horiz-adv-x="223" 
d="M294 727l-66 -90h-64l50 90h80zM185 133q-13 -63 -41 -102t-82 -39q-39 0 -54 22t-14.5 55t6.5 67l59 275q8 38 23 71t39.5 53t61.5 20q40 0 55.5 -19t15 -51t-9.5 -71zM171 421q5 19 5 32.5t-12 13.5q-10 0 -16.5 -13t-11.5 -33l-63 -295q-4 -16 -3 -30.5t11 -14.5
q8 0 14 9.5t9.5 20.5t3.5 15z" />
    <glyph glyph-name="obreve" unicode="&#x14f;" horiz-adv-x="223" 
d="M277 684q-18 -21 -39.5 -34.5t-44.5 -13.5t-41 14.5t-23 33.5l53 57l3 -8t8.5 -16t14.5 -8q8 0 18 8t17 15.5l7 7.5zM184 133q-13 -63 -41 -102t-82 -39q-39 0 -54 22t-14.5 55t7.5 67l58 275q8 38 23 71t40 53t62 20q40 0 55.5 -19t14.5 -51t-9 -71zM170 421
q5 19 5 32.5t-12 13.5q-10 0 -16.5 -13t-11.5 -33l-63 -295q-4 -16 -3 -30.5t11 -14.5q8 0 14 9.5t9.5 20.5t3.5 15z" />
    <glyph glyph-name="ocircumflex" unicode="&#xf4;" horiz-adv-x="223" 
d="M259 727l22 -90h-65l-9 39l-25 -39h-65l61 90h81zM185 133q-13 -63 -41 -102t-82 -39q-39 0 -54 22t-14.5 55t6.5 67l59 275q8 38 23 71t39.5 53t61.5 20q40 0 55.5 -19t15 -51t-9.5 -71zM171 421q5 19 5 32.5t-12 13.5q-10 0 -16.5 -13t-11.5 -33l-63 -295
q-4 -16 -3 -30.5t11 -14.5q8 0 14 9.5t9.5 20.5t3.5 15z" />
    <glyph glyph-name="odieresis" unicode="&#xf6;" horiz-adv-x="223" 
d="M135 735h74l-21 -98h-74zM232 735h73l-21 -98h-73zM184 133q-13 -63 -41 -102t-82 -39q-39 0 -54 22t-14.5 55t7.5 67l58 275q8 38 23 71t40 53t62 20q40 0 55.5 -19t14.5 -51t-9 -71zM170 421q5 19 5 32.5t-12 13.5q-10 0 -16.5 -13t-11.5 -33l-62 -295
q-4 -16 -3.5 -30.5t10.5 -14.5q8 0 14 9.5t10 20.5t4 15z" />
    <glyph glyph-name="ograve" unicode="&#xf2;" horiz-adv-x="223" 
d="M217 727l12 -90h-64l-28 90h80zM185 133q-13 -63 -41 -102t-82 -39q-39 0 -54 22t-14.5 55t6.5 67l59 275q8 38 23 71t39.5 53t61.5 20q40 0 55.5 -19t15 -51t-9.5 -71zM171 421q5 19 5 32.5t-12 13.5q-10 0 -16.5 -13t-11.5 -33l-63 -295q-4 -16 -3 -30.5t11 -14.5
q8 0 14 9.5t9.5 20.5t3.5 15z" />
    <glyph glyph-name="ohungarumlaut" unicode="&#x151;" horiz-adv-x="223" 
d="M224 727l-67 -90h-64l51 90h80zM332 727l-66 -90h-64l50 90h80zM185 133q-13 -63 -41 -102t-82 -39q-39 0 -54 22t-14.5 55t6.5 67l59 275q8 38 23 71t39.5 53t61.5 20q40 0 55.5 -19t15 -51t-9.5 -71zM171 421q5 19 5 32.5t-12 13.5q-10 0 -16.5 -13t-11.5 -33l-63 -295
q-4 -16 -3 -30.5t11 -14.5q8 0 14 9.5t9.5 20.5t3.5 15z" />
    <glyph glyph-name="omacron" unicode="&#x14d;" horiz-adv-x="223" 
d="M145 721h134l-17 -79h-134zM185 133q-13 -63 -41 -102t-82 -39q-39 0 -54 22t-14.5 55t7.5 67l58 275q8 38 23 71t40 53t62 20q40 0 55.5 -19t14.5 -51t-9 -71zM171 421q5 19 5 32.5t-12 13.5q-10 0 -16.5 -13t-11.5 -33l-63 -295q-4 -16 -3 -30.5t11 -14.5q8 0 14 9.5
t9.5 20.5t3.5 15z" />
    <glyph glyph-name="oslash" unicode="&#xf8;" horiz-adv-x="229" 
d="M243 584h43l-27 -63q9 -19 6.5 -47t-9.5 -60l-59 -281q-13 -63 -41 -102t-82 -39q-16 0 -29 5l-13 -34h-44l24 63q-9 21 -7.5 50.5t7.5 59.5l59 275q8 38 23 71t39.5 53t61.5 20q18 0 33 -5zM176 467q-10 0 -16.5 -13t-11.5 -33l-29 -138l68 168q0 16 -11 16zM93 81
q8 0 14 9.5t9.5 20.5t3.5 15l24 112l-62 -150q4 -7 11 -7z" />
    <glyph glyph-name="otilde" unicode="&#xf5;" horiz-adv-x="223" 
d="M140 708q9 10 22 15.5t24 5.5q17 0 26 -8.5t23 -8.5q10 0 25 11t21 18l-18 -83q-7 -10 -19 -17.5t-26 -7.5q-17 0 -26 9.5t-24 9.5q-6 0 -15.5 -6t-18.5 -13t-12 -11zM184 133q-13 -63 -41 -102t-82 -39q-39 0 -54 22t-14.5 55t7.5 67l58 275q8 38 23 71t40 53t62 20
q40 0 55.5 -19t14.5 -51t-9 -71zM170 421q5 19 5 32.5t-12 13.5q-10 0 -16.5 -13t-11.5 -33l-63 -295q-4 -16 -3 -30.5t11 -14.5q8 0 14 9.5t9.5 20.5t3.5 15z" />
    <glyph glyph-name="oe" unicode="&#x153;" horiz-adv-x="322" 
d="M321 196l-15 -69q-7 -35 -22.5 -66t-40.5 -50t-64 -19q-31 0 -46 18q-13 -8 -28 -13t-33 -5q-39 0 -54 22t-14.5 55t6.5 67l59 275q8 38 23 71t39.5 53t61.5 20q38 0 55 -20q12 9 25.5 14.5t29.5 5.5q42 0 57.5 -21t15 -52.5t-7.5 -63.5l-34 -163h-109l-26 -119
q-3 -16 -3.5 -35.5t7.5 -19.5q12 0 19.5 20.5t10.5 34.5l13 60h75zM181 421q5 19 5 32.5t-12 13.5q-10 0 -16.5 -13t-11.5 -33l-63 -295q-4 -16 -3 -30.5t11 -14.5q8 0 14 9.5t9.5 20.5t3.5 15zM241 334h34l17 77q5 20 5 38t-13 18q-6 0 -11.5 -10.5t-9 -24t-5.5 -21.5z" />
    <glyph glyph-name="p" unicode="p" horiz-adv-x="231" 
d="M111 547h79l-6 -28q9 14 28 25t32 11q26 0 33.5 -19.5t5 -44.5t-6.5 -43l-74 -349q-4 -19 -13 -44.5t-24.5 -44t-40.5 -18.5q-13 0 -26 12t-17 28l-47 -220h-78zM100 120q-7 -33 8 -33q14 0 21 33l65 310q3 14 2.5 25.5t-8.5 11.5t-14 -11.5t-9 -25.5z" />
    <glyph glyph-name="thorn" unicode="&#xfe;" horiz-adv-x="231" 
d="M141 735h79l-45 -211q5 10 21 20.5t26 10.5q26 0 35.5 -17.5t9 -42t-5.5 -47.5l-74 -349q-5 -19 -11.5 -44.5t-19 -44t-37.5 -18.5q-19 0 -33 14.5t-16 23.5l-46 -218h-78zM90 125q-3 -14 -2 -26t8 -12q8 0 13.5 11.5t8.5 26.5l65 306q3 14 2 25t-8 11t-13.5 -12
t-8.5 -24z" />
    <glyph glyph-name="q" unicode="q" horiz-adv-x="231" 
d="M141 -188h-79l47 220q-11 -16 -29 -28t-32 -12q-24 0 -31.5 18.5t-5.5 44t5 44.5l74 349q4 18 12.5 43t24.5 44.5t41 19.5q14 0 27.5 -11t16.5 -25l6 28h79zM193 430q3 14 2 25.5t-9 11.5t-13.5 -11.5t-8.5 -25.5l-65 -310q-7 -33 7 -33q15 0 22 33z" />
    <glyph glyph-name="r" unicode="r" horiz-adv-x="178" 
d="M222 435q-21 14 -37 8t-26.5 -23.5t-15.5 -39.5l-81 -380h-76l115 547h77l-6 -30q11 14 30.5 26t44.5 12z" />
    <glyph glyph-name="racute" unicode="&#x155;" horiz-adv-x="178" 
d="M245 727l-67 -90h-63l50 90h80zM212 435q-20 14 -36 8t-26.5 -23.5t-15.5 -39.5l-81 -380h-76l115 547h77l-6 -30q11 14 30.5 26t44.5 12z" />
    <glyph glyph-name="rcaron" unicode="&#x159;" horiz-adv-x="178" 
d="M131 637l-23 90h65l9 -39l25 39h65l-60 -90h-81zM212 435q-20 14 -36 8t-26.5 -23.5t-15.5 -39.5l-81 -380h-76l115 547h77l-6 -30q11 14 30.5 26t44.5 12z" />
    <glyph glyph-name="uni0157" unicode="&#x157;" horiz-adv-x="178" 
d="M231 435q-20 14 -36 8t-26.5 -23.5t-15.5 -39.5l-81 -380h-76l115 547h77l-6 -30q11 14 30.5 26t44.5 12zM44 -117l-27 -65h-48l26 65h-19l15 69h68z" />
    <glyph glyph-name="s" unicode="s" horiz-adv-x="215" 
d="M175 407q2 9 4 24t1 27.5t-9 12.5q-10 0 -16.5 -20.5t-10.5 -36.5q-7 -32 0.5 -59.5t14.5 -49.5q13 -32 23.5 -77t-1.5 -104q-5 -23 -18 -54.5t-37.5 -54.5t-63.5 -23q-31 0 -46 15.5t-18.5 40.5t0 54t8.5 57h72q-3 -17 -5.5 -36.5t-1 -33t8.5 -13.5q11 0 17 17.5
t13 48.5q5 26 -1.5 56.5t-14.5 61.5q-7 26 -15 50.5t-10.5 52t4.5 62.5q11 53 39.5 91.5t73.5 38.5q31 0 45.5 -15t18 -38.5t0.5 -49t-7 -45.5h-68z" />
    <glyph glyph-name="sacute" unicode="&#x15b;" horiz-adv-x="215" 
d="M264 727l-66 -90h-64l50 90h80zM166 407q2 9 3.5 24t0.5 27.5t-9 12.5q-10 0 -16 -20.5t-10 -36.5q-7 -32 0.5 -59.5t14.5 -49.5q13 -32 23.5 -77t-1.5 -104q-5 -23 -18 -54.5t-37.5 -54.5t-63.5 -23q-31 0 -46.5 15.5t-18.5 40.5t0.5 54t9.5 57h71q-3 -17 -5.5 -36.5
t-1 -33t8.5 -13.5q11 0 17 17.5t13 48.5q5 26 -1.5 56.5t-14.5 61.5q-7 26 -15 50.5t-10.5 52t4.5 62.5q11 53 39.5 91.5t73.5 38.5q31 0 45.5 -15t18 -38.5t0.5 -49t-7 -45.5h-68z" />
    <glyph glyph-name="scaron" unicode="&#x161;" horiz-adv-x="215" 
d="M148 637l-23 90h65l9 -39l25 39h65l-60 -90h-81zM166 407q2 9 3.5 24t0.5 27.5t-9 12.5q-10 0 -16 -20.5t-10 -36.5q-7 -32 0.5 -59.5t14.5 -49.5q13 -32 23.5 -77t-1.5 -104q-5 -23 -18 -54.5t-37.5 -54.5t-63.5 -23q-31 0 -46.5 15.5t-18.5 40.5t0.5 54t9.5 57h71
q-3 -17 -5.5 -36.5t-1 -33t8.5 -13.5q11 0 17 17.5t13 48.5q5 26 -1.5 56.5t-14.5 61.5q-7 26 -15 50.5t-10.5 52t4.5 62.5q11 53 39.5 91.5t73.5 38.5q31 0 45.5 -15t18 -38.5t0.5 -49t-7 -45.5h-68z" />
    <glyph glyph-name="scedilla" unicode="&#x15f;" horiz-adv-x="215" 
d="M185 407q2 9 3.5 24t0.5 27.5t-9 12.5q-10 0 -16 -20.5t-10 -36.5q-7 -32 0.5 -59.5t14.5 -49.5q13 -32 23.5 -77t-2.5 -104q-5 -23 -18 -54.5t-37.5 -54.5t-63.5 -23q-31 0 -46.5 15.5t-18.5 40.5t0.5 54t9.5 57h72q-4 -17 -6.5 -36.5t-1 -33t8.5 -13.5q11 0 17 17.5
t13 48.5q6 26 -1 56.5t-15 61.5q-7 26 -15 50.5t-10.5 52t4.5 62.5q11 53 40 91.5t74 38.5q31 0 45.5 -15t18 -38.5t0.5 -49t-7 -45.5h-68zM81 -123l-27 -65h-49l26 65h-18l15 69h68z" />
    <glyph glyph-name="scircumflex" unicode="&#x15d;" horiz-adv-x="215" 
d="M251 727l22 -90h-65l-9 39l-25 -39h-65l61 90h81zM166 407q2 9 3.5 24t0.5 27.5t-9 12.5q-10 0 -16 -20.5t-10 -36.5q-7 -32 0.5 -59.5t14.5 -49.5q13 -32 23.5 -77t-1.5 -104q-5 -23 -18 -54.5t-37.5 -54.5t-63.5 -23q-31 0 -46.5 15.5t-18.5 40.5t0.5 54t9.5 57h71
q-3 -17 -5.5 -36.5t-1 -33t8.5 -13.5q11 0 17 17.5t13 48.5q5 26 -1.5 56.5t-14.5 61.5q-7 26 -15 50.5t-10.5 52t4.5 62.5q11 53 39.5 91.5t73.5 38.5q31 0 45.5 -15t18 -38.5t0.5 -49t-7 -45.5h-68z" />
    <glyph glyph-name="germandbls" unicode="&#xdf;" horiz-adv-x="251" 
d="M185 547q11 0 22 15.5t16 41.5q5 20 1 34.5t-17 14.5q-11 0 -19.5 -13.5t-13.5 -36.5l-128 -603h-78l127 603q8 36 25 68t44 52t62 20q39 0 56 -21.5t18.5 -53.5t-5.5 -64q-11 -50 -47 -85q9 -12 14.5 -30.5t5.5 -42.5q0 -28 -6 -69t-17 -96q-19 -91 -37 -146.5
t-38 -85.5q-19 -30 -44 -39.5t-57 -9.5l20 94q9 0 18 6.5t18 26.5t19 57t23 97q14 64 19.5 102.5t5.5 59.5t-6 28t-15 7z" />
    <glyph glyph-name="longs" unicode="&#x17f;" horiz-adv-x="169" 
d="M-36 0l121 573q13 61 30.5 94t39.5 46.5t47 13.5q24 0 50 -10l-25 -80q-17 8 -32 8q-17 0 -27.5 -16.5t-20.5 -63.5l-120 -565h-63z" />
    <glyph glyph-name="t" unicode="t" horiz-adv-x="175" 
d="M220 682l-28 -135h42l-20 -91h-42l-97 -456h-76l96 456h-33l20 91h33l28 135h77z" />
    <glyph glyph-name="tbar" unicode="&#x167;" horiz-adv-x="177" 
d="M170 456l-97 -456h-76l96 456h-33l20 91h33l20 95h-28l16 79h135l-16 -79h-30l-20 -95h42l-20 -91h-42z" />
    <glyph glyph-name="tcaron" unicode="&#x165;" horiz-adv-x="281" 
d="M352 624l-61 -130h-48l53 130h-25l24 111h81zM217 682l-28 -135h42l-20 -91h-42l-97 -456h-76l96 456h-33l20 91h33l28 135h77z" />
    <glyph glyph-name="u" unicode="u" 
d="M205 547h79l-116 -547h-79l6 28q-10 -11 -29 -23.5t-32 -12.5q-18 0 -26.5 12t-10 29.5t1 35.5t4.5 30l95 448h78l-92 -432q-3 -16 -1 -25.5t9 -9.5q8 0 13 10t9 26z" />
    <glyph glyph-name="uacute" unicode="&#xfa;" 
d="M299 727l-67 -90h-64l51 90h80zM196 547h79l-117 -547h-79l6 28q-10 -11 -28.5 -23.5t-31.5 -12.5q-18 0 -26.5 12t-10 29.5t0.5 35.5t5 30l95 448h78l-92 -432q-4 -16 -2 -25.5t9 -9.5q8 0 13.5 10t8.5 26z" />
    <glyph glyph-name="ubreve" unicode="&#x16d;" 
d="M282 684q-18 -21 -39.5 -34.5t-44.5 -13.5t-41 14.5t-23 33.5l53 57l3 -8t8.5 -16t14.5 -8q8 0 18 8t17 15.5l7 7.5zM195 547h79l-116 -547h-79l6 28q-10 -11 -29 -23.5t-32 -12.5q-18 0 -26.5 12t-9.5 29.5t1 35.5t5 30l94 448h78l-92 -432q-3 -16 -1 -25.5t9 -9.5
q8 0 13 10t8 26z" />
    <glyph glyph-name="ucircumflex" unicode="&#xfb;" 
d="M259 727l22 -90h-65l-9 39l-25 -39h-65l61 90h81zM196 547h79l-117 -547h-79l6 28q-10 -11 -28.5 -23.5t-31.5 -12.5q-18 0 -26.5 12t-10 29.5t0.5 35.5t5 30l95 448h78l-92 -432q-4 -16 -2 -25.5t9 -9.5q8 0 13.5 10t8.5 26z" />
    <glyph glyph-name="udieresis" unicode="&#xfc;" 
d="M134 735h74l-21 -98h-74zM231 735h73l-21 -98h-73zM195 547h79l-116 -547h-79l6 28q-10 -11 -29 -23.5t-32 -12.5q-18 0 -26.5 12t-9.5 29.5t1 35.5t5 30l94 448h78l-92 -432q-3 -16 -1 -25.5t9 -9.5q8 0 13 10t9 26z" />
    <glyph glyph-name="ugrave" unicode="&#xf9;" 
d="M221 727l12 -90h-64l-28 90h80zM196 547h79l-117 -547h-79l6 28q-10 -11 -28.5 -23.5t-31.5 -12.5q-18 0 -26.5 12t-10 29.5t0.5 35.5t5 30l95 448h78l-92 -432q-4 -16 -2 -25.5t9 -9.5q8 0 13.5 10t8.5 26z" />
    <glyph glyph-name="uhungarumlaut" unicode="&#x171;" 
d="M228 727l-66 -90h-64l50 90h80zM337 727l-66 -90h-64l50 90h80zM196 547h79l-117 -547h-79l6 28q-10 -11 -28.5 -23.5t-31.5 -12.5q-18 0 -26.5 12t-10 29.5t0.5 35.5t5 30l95 448h78l-92 -432q-4 -16 -2 -25.5t9 -9.5q8 0 13.5 10t8.5 26z" />
    <glyph glyph-name="umacron" unicode="&#x16b;" 
d="M150 721h134l-17 -79h-134zM196 547h79l-116 -547h-79l6 28q-10 -11 -29 -23.5t-32 -12.5q-18 0 -26.5 12t-9.5 29.5t1 35.5t5 30l94 448h78l-92 -432q-3 -16 -1 -25.5t9 -9.5q8 0 13 10t8 26z" />
    <glyph glyph-name="uni021B" unicode="&#x21b;" horiz-adv-x="177" 
d="M230 682l-28 -135h42l-20 -91h-42l-97 -456h-77l97 456h-33l20 91h33l28 135h77zM85 -123l-27 -65h-49l26 65h-18l15 69h68z" />
    <glyph glyph-name="uogonek" unicode="&#x173;" 
d="M215 547h79l-117 -547h-30q-7 -8 -15 -20.5t-16 -29.5q-8 -16 -11 -33q-4 -22 1 -30t12 -8q4 0 14.5 6t23.5 14l-21 -75q-24 -12 -42 -12q-34 0 -46.5 25.5t-5.5 59.5q3 17 14.5 37.5t21.5 34.5l1.5 1.5l1.5 1.5q4 5 10.5 12.5t14.5 15.5h-7l6 28q-10 -11 -28.5 -23.5
t-31.5 -12.5q-18 0 -26.5 12t-10 29.5t0.5 35.5t5 30l95 448h78l-92 -432q-4 -16 -2 -25.5t9 -9.5q8 0 13.5 10t8.5 26z" />
    <glyph glyph-name="uring" unicode="&#x16f;" 
d="M155 694q7 31 27 50.5t42 19.5q23 0 34 -19.5t4 -50.5t-26 -50.5t-42 -19.5q-22 0 -34 19.5t-5 50.5zM196 694q-3 -14 -1.5 -24.5t6.5 -10.5t11.5 10.5t9.5 24.5t1 24.5t-7 10.5t-11 -10.5t-9 -24.5zM194 547h79l-117 -547h-79l6 28q-10 -11 -28.5 -23.5t-31.5 -12.5
q-18 0 -26.5 12t-10 29.5t0.5 35.5t5 30l95 448h78l-92 -432q-4 -16 -2 -25.5t9 -9.5q8 0 13.5 10t8.5 26z" />
    <glyph glyph-name="utilde" unicode="&#x169;" 
d="M144 709q9 10 22 15.5t24 5.5q17 0 26 -8.5t23 -8.5q10 0 25 11t21 18l-17 -83q-8 -10 -20 -17.5t-26 -7.5q-17 0 -26 9.5t-24 9.5q-6 0 -15.5 -6t-18.5 -13t-12 -11zM195 547h79l-117 -547h-79l6 28q-10 -11 -28.5 -23.5t-31.5 -12.5q-18 0 -26.5 12t-9.5 29.5t1 35.5
t5 30l94 448h78l-92 -432q-4 -16 -1.5 -25.5t9.5 -9.5q8 0 13 10t8 26z" />
    <glyph glyph-name="v" unicode="v" horiz-adv-x="206" 
d="M24 0l59 547h74l-45 -321l92 321h74l-176 -547h-78z" />
    <glyph glyph-name="w" unicode="w" horiz-adv-x="295" 
d="M125 0l33 260l-78 -260h-64l68 547h71l-35 -251l76 251h48l-33 -251l73 251h71l-165 -547h-65z" />
    <glyph glyph-name="wcircumflex" unicode="&#x175;" horiz-adv-x="295" 
d="M287 727l22 -90h-65l-8 39l-26 -39h-65l61 90h81zM116 0l32 260l-77 -260h-64l67 547h71l-34 -251l75 251h48l-32 -251l72 251h71l-164 -547h-65z" />
    <glyph glyph-name="x" unicode="x" horiz-adv-x="217" 
d="M92 282l-4 265h74l-4 -137l56 137h74l-119 -265l-4 -282h-73l10 148q-6 -16 -16 -45t-19.5 -57.5t-16.5 -45.5h-73z" />
    <glyph glyph-name="y" unicode="y" horiz-adv-x="228" 
d="M-29 -104q22 -9 35 5q16 18 24 41t12 42l53 563h77l-39 -323q8 28 20.5 71t26.5 91t27 90.5t20 70.5h78l-193 -588q-7 -27 -20 -56t-30 -50q-24 -32 -54 -44.5t-56 -1.5z" />
    <glyph glyph-name="yacute" unicode="&#xfd;" horiz-adv-x="226" 
d="M301 727l-66 -90h-64l50 90h80zM-39 -104q22 -9 36 5q16 18 23.5 41t11.5 42l54 563h77l-40 -323q8 28 20.5 71t27 91t27 90.5t20.5 70.5h78l-193 -588q-8 -27 -21 -56t-30 -50q-24 -32 -54 -44.5t-56 -1.5z" />
    <glyph glyph-name="ycircumflex" unicode="&#x177;" horiz-adv-x="216" 
d="M271 727l22 -90h-65l-9 39l-25 -39h-65l61 90h81zM-39 -104q22 -9 36 5q16 18 23.5 41t11.5 42l54 563h77l-40 -323q8 28 20.5 71t27 91t27 90.5t20.5 70.5h78l-193 -588q-8 -27 -21 -56t-30 -50q-24 -32 -54 -44.5t-56 -1.5z" />
    <glyph glyph-name="ydieresis" unicode="&#xff;" horiz-adv-x="216" 
d="M144 735h74l-21 -98h-74zM241 735h73l-21 -98h-73zM-39 -104q22 -9 36 5q15 18 23 41t12 42l53 563h77l-39 -323q8 28 20.5 71t26.5 91t27 90.5t20 70.5h78l-193 -588q-7 -27 -20 -56t-30 -50q-24 -32 -54 -44.5t-56 -1.5z" />
    <glyph glyph-name="z" unicode="z" horiz-adv-x="186" 
d="M-16 82l161 373h-70l20 92h152l-18 -82l-162 -373h83l-20 -92h-164z" />
    <glyph glyph-name="zacute" unicode="&#x17a;" horiz-adv-x="186" 
d="M249 727l-66 -90h-64l50 90h80zM-26 82l162 373h-70l19 92h152l-17 -82l-163 -373h83l-19 -92h-164z" />
    <glyph glyph-name="zcaron" unicode="&#x17e;" horiz-adv-x="186" 
d="M136 637l-23 90h65l9 -39l25 39h65l-60 -90h-81zM-26 82l162 373h-70l19 92h152l-17 -82l-163 -373h83l-19 -92h-164z" />
    <glyph glyph-name="zdotaccent" unicode="&#x17c;" horiz-adv-x="186" 
d="M163 735h78l-22 -101h-78zM-26 82l161 373h-70l20 92h152l-18 -82l-162 -373h83l-20 -92h-164z" />
    <glyph glyph-name="fi" unicode="&#xfb01;" horiz-adv-x="256" 
d="M-11 0l96 456h-31l20 91h31l6 32q8 34 20 71t34 63t58 26q21 0 35 -10l-17 -83q-7 5 -15 5t-13 -4q-8 -7 -13 -25t-9 -37l-8 -38h109l-117 -547h-78l97 456h-31l-97 -456h-77z" />
    <glyph glyph-name="fl" unicode="&#xfb02;" horiz-adv-x="256" 
d="M97 0l97 456h-31l-97 -456h-77l96 456h-31l20 91h31l6 32q8 34 20 71t34 63t58 26q10 0 20.5 -2l10.5 -2h79l-157 -735h-79zM213 647q-8 -7 -13 -25t-9 -37l-8 -38h31l21 102q-13 5 -22 -2z" />
    <glyph glyph-name="zero" unicode="0" horiz-adv-x="242" 
d="M200 141q-8 -38 -24 -72t-42.5 -55.5t-64.5 -21.5t-55 22.5t-19 57t5 69.5l96 453q8 38 24.5 72t43.5 55.5t64 21.5q30 0 46.5 -14.5t23 -37.5t5.5 -48.5t-6 -48.5zM214 594q4 17 2.5 30.5t-9.5 13.5t-15 -13t-11 -31l-97 -453q-4 -20 -1.5 -32t9.5 -12q8 0 15 13.5
t10 30.5z" />
    <glyph glyph-name="one" unicode="1" horiz-adv-x="169" 
d="M81 576l14 67q20 7 37.5 23t30.5 31q5 8 11 18t10 20h57l-157 -735h-83l123 576h-43z" />
    <glyph glyph-name="two" unicode="2" horiz-adv-x="244" 
d="M76 502l11 51q6 27 16 60t26 62.5t40 48.5t58 19q35 0 50.5 -19t18.5 -48.5t-1.5 -60.5t-9.5 -55q-10 -50 -33 -109.5t-52.5 -121.5t-60.5 -119.5t-58 -102.5h103l-23 -107h-193l23 107q68 117 128 227.5t85 218.5q3 12 6 33.5t3 39t-7 17.5q-6 0 -12 -12t-11 -28.5
t-8.5 -30.5t-4.5 -19l-11 -51h-83z" />
    <glyph glyph-name="three" unicode="3" horiz-adv-x="231" 
d="M95 332l19 89q30 2 45 21t23 47.5t14 58.5q3 15 7.5 38t5.5 41t-7 18t-16.5 -21.5t-15.5 -50.5t-12 -50h-82q6 28 16.5 65t27.5 72.5t42 59t59 23.5q30 0 46 -17t21.5 -43.5t4 -54.5t-6.5 -49q-11 -53 -23.5 -90t-29 -63.5t-41.5 -50.5q22 -17 25.5 -62t-13.5 -125
q-10 -48 -26 -93t-43 -74t-70 -29q-29 0 -44 16.5t-20 43t-3 56.5t6.5 58t8.5 46h81q-5 -22 -10.5 -51.5t-6 -51.5t7.5 -22t15.5 18.5t13.5 42t9 39.5q11 56 13 87t-7.5 44t-33.5 14z" />
    <glyph glyph-name="four" unicode="4" horiz-adv-x="234" 
d="M109 160h-112l19 95l205 480h81l-102 -480h30l-20 -95h-30l-35 -160h-71zM179 482l-93 -227h45z" />
    <glyph glyph-name="five" unicode="5" horiz-adv-x="236" 
d="M163 348q5 23 3 38.5t-10 15.5t-15 -11.5t-11.5 -24.5t-5.5 -18h-72l82 387h174l-23 -107h-100l-33 -157q4 10 20.5 19.5t28.5 9.5q27 0 38.5 -16t13.5 -40t-1.5 -50t-7.5 -46l-37 -174q-6 -28 -16.5 -59.5t-27.5 -59.5t-41 -45.5t-57 -17.5q-30 0 -44.5 16.5t-18.5 43.5
t-1 57.5t8.5 58t9.5 46.5h82l-10 -49q-6 -28 -7.5 -53.5t5.5 -25.5q8 0 16.5 17.5t18.5 60.5z" />
    <glyph glyph-name="six" unicode="6" horiz-adv-x="235" 
d="M200 141q-7 -33 -24.5 -67.5t-45.5 -58t-67 -23.5q-30 0 -45 15.5t-20 39.5t-3.5 49.5t5.5 44.5l93 434q8 36 23 75t42 66t69 27q33 0 49 -17.5t20 -44t1.5 -55t-7.5 -51.5l-11 -52h-80q3 12 7 33t6.5 42.5t2 36t-7.5 14.5q-8 0 -14.5 -16.5t-11 -34.5t-5.5 -23l-29 -136
q2 5 14.5 11t23.5 6q29 0 43 -13.5t17 -34.5t0.5 -44t-6.5 -43zM81 129q-2 -10 -2 -26.5t11 -16.5q12 0 19 16.5t9 26.5l45 210q1 7 0.5 20t-12.5 13q-11 0 -16.5 -11t-8.5 -19z" />
    <glyph glyph-name="seven" unicode="7" horiz-adv-x="203" 
d="M186 628h-98l23 107h182l-23 -108l-199 -627h-84z" />
    <glyph glyph-name="eight" unicode="8" horiz-adv-x="234" 
d="M197 127q-6 -31 -22.5 -62t-42 -52t-61.5 -21t-52.5 22t-19.5 53.5t2 59.5l34 156q8 39 25.5 63.5t38.5 41.5q-13 17 -19.5 38t0.5 57l30 142q6 29 22 56t41 44.5t57 17.5q35 0 52 -18.5t20.5 -45.5t-2.5 -54l-30 -142q-7 -36 -21.5 -57t-37.5 -38q37 -24 20 -105z
M202 530q8 33 11 48.5t6 31.5q4 16 2.5 28.5t-10.5 12.5q-11 0 -17 -13.5t-9 -28.5l-7.5 -35t-9.5 -44q-6 -28 -8.5 -39.5t-5.5 -27.5q-4 -16 -0.5 -25t10.5 -9q6 0 13.5 9.5t10.5 23.5t6 28.5t8 39.5zM132 200q7 33 11.5 53.5t7.5 36.5q4 16 2.5 29t-10.5 13q-11 0 -17 -14
t-9 -29q-3 -14 -8.5 -40t-10.5 -49q-6 -28 -9.5 -44.5t-6.5 -32.5q-8 -34 9 -34q6 0 13.5 9.5t10.5 23.5t7.5 33.5t9.5 44.5z" />
    <glyph glyph-name="nine" unicode="9" horiz-adv-x="235" 
d="M89 594q8 33 25 67.5t45 58t67 23.5q30 0 45.5 -15.5t20.5 -39.5t3 -49t-6 -45l-92 -434q-8 -36 -23.5 -75t-42 -66t-69.5 -27q-33 0 -48.5 17.5t-19.5 44t-1 55.5t7 51l11 52h80q-3 -12 -7 -33t-7 -42.5t-2.5 -36t7.5 -14.5q8 0 15 16.5t11.5 35t5.5 22.5l28 136
q-2 -4 -14.5 -10.5t-23.5 -6.5q-29 0 -43 13.5t-17 34.5t-0.5 44.5t6.5 42.5zM208 606q2 11 2 27t-11 16q-12 0 -19 -16t-9 -27l-44 -210q-1 -7 -0.5 -20t12.5 -13q11 0 16.5 11t7.5 19z" />
    <glyph glyph-name="period" unicode="." horiz-adv-x="124" 
d="M24 111h81l-23 -111h-81z" />
    <glyph glyph-name="comma" unicode="," horiz-adv-x="121" 
d="M85 0l-60 -130h-47l51 130h-25l24 111h81z" />
    <glyph glyph-name="colon" unicode=":" horiz-adv-x="136" 
d="M100 547h81l-24 -111h-81zM7 111h81l-24 -111h-80z" />
    <glyph glyph-name="semicolon" unicode=";" horiz-adv-x="136" 
d="M107 547h81l-24 -111h-81zM71 0l-60 -130h-47l51 130h-24l23 111h81z" />
    <glyph glyph-name="ellipsis" unicode="&#x2026;" horiz-adv-x="318" 
d="M24 111h81l-23 -111h-81zM128 111h81l-23 -111h-81zM232 111h81l-23 -111h-81z" />
    <glyph glyph-name="exclam" unicode="!" horiz-adv-x="143" 
d="M130 735h88l-130 -537h-56zM0 111h81l-24 -111h-80z" />
    <glyph glyph-name="exclamdown" unicode="&#xa1;" horiz-adv-x="143" 
d="M113 547h81l-24 -111h-81zM84 349h56l-98 -537h-87z" />
    <glyph glyph-name="question" unicode="?" horiz-adv-x="153" 
d="M47 198l27 125q8 40 21.5 72.5t26.5 59.5t26 48.5t24 40.5q5 8 14 24.5t15.5 34t5 30t-18.5 12.5q-10 0 -18.5 -8t-16.5 -19q-9 -12 -15 -24.5t-10 -19.5l-51 41q5 12 18 33t30 42q17 20 38.5 34.5t46.5 14.5q40 0 55 -21t15.5 -51.5t-5.5 -57.5q-7 -31 -22 -60.5
t-32 -56.5q-4 -7 -9.5 -15.5t-10.5 -16.5q-11 -18 -22 -39t-20 -45q-4 -13 -7.5 -26t-6.5 -27l-27 -125h-71zM25 111h81l-24 -111h-81z" />
    <glyph glyph-name="questiondown" unicode="&#xbf;" horiz-adv-x="219" 
d="M203 436h-81l24 111h81zM181 349l-27 -125q-8 -40 -21.5 -72.5t-26.5 -59.5q-12 -27 -25 -48.5t-25 -40.5q-5 -8 -14 -24.5t-15 -34t-4.5 -30t17.5 -12.5q10 0 18.5 8t17.5 19q8 12 14 24.5t10 19.5l51 -41q-4 -12 -17.5 -33t-30.5 -42q-16 -20 -38 -34.5t-47 -14.5
q-39 0 -54 21.5t-15 51.5t6 57q6 31 21 60.5t31 56.5l10 16l10 16q11 18 22 39t20 45q5 13 8 26t6 27l27 125h71z" />
    <glyph glyph-name="periodcentered" unicode="&#xb7;" horiz-adv-x="93" 
d="M42 428h81l-24 -111h-81z" />
    <glyph glyph-name="bullet" unicode="&#x2022;" horiz-adv-x="224" 
d="M55 401q8 35 38 59.5t64 24.5q35 0 54.5 -24.5t11.5 -59.5q-7 -34 -37 -59t-65 -25q-34 0 -53.5 25t-12.5 59z" />
    <glyph glyph-name="asterisk" unicode="*" horiz-adv-x="229" 
d="M159 735h63l-21 -77l52 24v-69l-57 -19l29 -65l-58 -49l-18 61l-43 -61l-39 49l61 65l-52 19l29 69l43 -23z" />
    <glyph glyph-name="numbersign" unicode="#" horiz-adv-x="391" 
d="M39 309h58q4 14 9 31t10 32l19 63h-57l27 95h58q7 24 15 50.5t15 51.5l31 103h75l-60 -205h58q7 24 15 50.5t15 51.5l31 103h75l-61 -205h57l-28 -95h-56l-19 -63l-10 -32t-9 -31h56l-28 -95h-56l-32 -107q-7 -27 -15 -54t-16 -53h-76l63 214h-58l-32 -107
q-7 -27 -15 -54t-16 -53h-76l64 214h-59zM173 309h58q4 14 9 31t10 32l19 63h-58z" />
    <glyph glyph-name="slash" unicode="/" horiz-adv-x="241" 
d="M273 735h66l-329 -807h-67z" />
    <glyph glyph-name="backslash" unicode="\" horiz-adv-x="262" 
d="M181 -88h-67l15 914h66z" />
    <glyph glyph-name="parenleft" unicode="(" horiz-adv-x="194" 
d="M282 733q-31 -50 -59 -110t-56 -137q-28 -76 -48 -171q-20 -94 -25 -170.5t-2 -132.5q3 -64 12 -114l-71 -52q-12 67 -15.5 138.5t0.5 153.5q2 41 8.5 86t16.5 91q20 91 51 176t61 148q17 37 38 76.5t39 70.5z" />
    <glyph glyph-name="parenright" unicode=")" horiz-adv-x="194" 
d="M198 786q11 -66 14.5 -138t-0.5 -155q-2 -41 -8.5 -86t-16.5 -92q-20 -94 -51 -177.5t-61 -146.5q-16 -34 -35.5 -70.5t-41.5 -74.5l-49 52q31 48 59 111t56 136q13 38 25.5 81t22.5 89q19 89 23.5 168.5t2.5 134.5q-1 30 -4 61.5t-8 53.5z" />
    <glyph glyph-name="braceleft" unicode="{" 
d="M306 659q-34 -1 -51.5 -13.5t-26 -33.5t-14.5 -49l-41 -194q-7 -36 -28.5 -68.5t-44.5 -39.5q19 -14 27 -43.5t0 -64.5l-41 -194q-5 -31 -5.5 -52.5t12 -32.5t44.5 -11l-18 -84q-65 0 -92 21t-28 61t11 98l41 194q2 5 2.5 15.5t-1.5 22.5q-1 11 -6.5 20t-17.5 10l17 80
q12 0 21.5 8.5t15.5 20.5q7 11 10.5 22.5t4.5 16.5l41 194q14 61 33 101.5t54.5 60.5t98.5 18z" />
    <glyph glyph-name="braceright" unicode="}" 
d="M138 743q63 2 89.5 -18t28.5 -60.5t-10 -101.5l-41 -194q-1 -5 -2 -16.5t1 -22.5q2 -12 7.5 -20.5t17.5 -8.5l-17 -80q-12 -1 -21.5 -10t-16.5 -20q-7 -12 -10 -22.5t-5 -15.5l-41 -194q-12 -58 -30 -98t-53 -61t-101 -21l18 84q32 0 48.5 11t25.5 32.5t16 52.5l41 194
q8 35 28 64.5t45 43.5q-19 7 -26.5 39.5t-0.5 68.5l41 194q6 28 7 49t-11.5 33.5t-45.5 13.5z" />
    <glyph glyph-name="bracketleft" unicode="[" horiz-adv-x="188" 
d="M252 639h-59l-138 -647h59l-20 -96h-134l177 839h135z" />
    <glyph glyph-name="bracketright" unicode="]" horiz-adv-x="188" 
d="M130 735h135l-178 -839h-134l20 96h58l138 647h-59z" />
    <glyph glyph-name="hyphen" unicode="-" horiz-adv-x="160" 
d="M51 317h105l-20 -95h-105z" />
    <glyph glyph-name="endash" unicode="&#x2013;" horiz-adv-x="266" 
d="M61 412h211l-20 -95h-211z" />
    <glyph glyph-name="emdash" unicode="&#x2014;" horiz-adv-x="315" 
d="M61 412h259l-20 -95h-259z" />
    <glyph glyph-name="underscore" unicode="_" horiz-adv-x="354" 
d="M9 -75h299l-18 -84h-298z" />
    <glyph glyph-name="quotesinglbase" unicode="&#x201a;" horiz-adv-x="121" 
d="M85 0l-60 -130h-47l47 130h-21l24 111h81z" />
    <glyph glyph-name="quotedblbase" unicode="&#x201e;" horiz-adv-x="213" 
d="M88 0l-60 -130h-47l47 130h-21l24 111h81zM176 0l-60 -130h-48l48 130h-21l24 111h81z" />
    <glyph glyph-name="quotedblleft" unicode="&#x201c;" 
d="M70 605l60 130h48l-48 -130h21l-24 -111h-81zM178 605l60 130h48l-48 -130h21l-24 -111h-81z" />
    <glyph glyph-name="quotedblright" unicode="&#x201d;" horiz-adv-x="228" 
d="M155 624l-61 -130h-48l49 130h-21l23 111h81zM263 624l-61 -130h-48l49 130h-21l23 111h81z" />
    <glyph glyph-name="quoteleft" unicode="&#x2018;" horiz-adv-x="121" 
d="M68 605l60 130h48l-48 -130h21l-24 -111h-81z" />
    <glyph glyph-name="quoteright" unicode="&#x2019;" horiz-adv-x="121" 
d="M152 624l-61 -130h-48l49 130h-21l23 111h81z" />
    <glyph glyph-name="uni201F" unicode="&#x201f;" horiz-adv-x="228" 
d="M178 735l-23 -111h-25l-3 -130h-48l-5 130l23 111h81zM296 735l-23 -111h-25l-3 -130h-48l-5 130l23 111h81z" />
    <glyph glyph-name="quotedbl" unicode="&#x22;" horiz-adv-x="226" 
d="M76 466l48 269h81l-66 -269h-63zM177 466l48 269h81l-66 -269h-63z" />
    <glyph glyph-name="quotesingle" unicode="'" horiz-adv-x="97" 
d="M77 466l48 269h81l-66 -269h-63z" />
    <glyph glyph-name="space" unicode=" " horiz-adv-x="108" 
 />
    <glyph glyph-name="uni00A0" unicode="&#xa0;" horiz-adv-x="108" 
 />
    <glyph glyph-name="CR" unicode="&#xd;" horiz-adv-x="108" 
 />
    <glyph glyph-name="Euro" unicode="&#x20ac;" horiz-adv-x="268" 
d="M67 468h31l25 116q5 22 12 42t15 37q7 13 16.5 27.5t22.5 27.5q11 11 27 18t35 7q20 0 32.5 -7t19.5 -18q8 -14 11.5 -28t4.5 -27q3 -33 -5 -79l-9 -41h-79l9 41q3 15 2.5 26.5t-2.5 19.5h1q-4 8 -6 8t-6.5 -8.5t-9.5 -18.5q-2 -6 -4 -12.5t-4 -14.5l-25 -116h68l-14 -67
h-68l-15 -67h68l-14 -67h-68l-24 -116q-4 -16 -3.5 -27t2.5 -19h-1q1 -2 2 -5l1 -3q5 0 10.5 8.5t9.5 18.5q2 5 4.5 12.5t3.5 14.5l8 41h79l-8 -41q-6 -22 -13 -42.5t-15 -37.5q-7 -13 -17.5 -27t-22.5 -27q-11 -11 -26.5 -18t-35.5 -7q-37 0 -52 25q-6 12 -10.5 27t-4.5 27
q-5 35 6 80l24 116h-31l14 67h31l15 67h-31z" />
    <glyph glyph-name="cent" unicode="&#xa2;" horiz-adv-x="217" 
d="M95 221q-3 -15 -2 -29t8 -14q8 0 14 9t11 34l16 76h76l-13 -63q-8 -34 -18.5 -64.5t-29 -52t-51.5 -28.5l-32 -149h-54l33 147q-25 10 -33.5 37.5t-6.5 59.5t7 55l55 259q5 24 16.5 55.5t31.5 58t48 35.5l25 118h54l-25 -117q31 -6 40.5 -29t6.5 -53.5t-10 -62.5l-11 -53
h-76l15 72q5 25 3 32.5t-9 7.5t-14.5 -12.5t-10.5 -27.5z" />
    <glyph glyph-name="dollar" unicode="$" horiz-adv-x="234" 
d="M262 795l-13 -61q20 -3 31.5 -15.5t17.5 -31.5q5 -19 5.5 -42.5t-3.5 -48.5l-68 -12q3 25 0.5 43.5t-19.5 17.5q-8 0 -14.5 -7t-12.5 -18q-13 -25 -19 -54q-4 -21 -3 -42.5t5 -41.5q4 -21 10 -41.5t12 -39.5q4 -11 7 -23t7 -25q8 -25 12.5 -53t4.5 -57q0 -15 -1.5 -30.5
t-5.5 -31.5q-7 -33 -17.5 -63.5t-25.5 -54.5q-16 -25 -35.5 -41.5t-43.5 -20.5l-22 -106h-42l22 108q-22 6 -34 22t-17 39q-9 48 3 111l66 6q-3 -18 -3.5 -34.5t2.5 -28.5q2 -13 8 -20.5t18 -7.5q9 0 16.5 7.5t14.5 20.5q12 24 20 62q5 21 4 42.5t-6 42.5q-2 11 -4.5 21
t-5.5 20q-7 20 -12.5 40t-13.5 46q-6 26 -11 53.5t-5 57.5q0 15 1 30t5 31q11 56 38 103q13 23 31 40t40 24l14 64h42z" />
    <glyph glyph-name="sterling" unicode="&#xa3;" horiz-adv-x="269" 
d="M217 547q2 8 5 23.5t5 32t0 28.5t-10 12q-7 0 -14 -11.5t-12.5 -27t-8.5 -28.5t-4 -15q-7 -34 -9.5 -77t-4.5 -100h61l-15 -67h-51q-2 -50 -10 -85q-4 -20 -14.5 -49t-26.5 -58q4 -4 9.5 -11t14.5 -17l12 21q11 18 25 73l70 -14q-23 -91 -56 -138t-67 -47
q-17 0 -29.5 12.5t-21.5 25t-18 12.5q-4 0 -10 -8t-11 -17q-8 -12 -19 -37l-46 53q10 22 22.5 41t29.5 39q6 7 15.5 13t15.5 9q10 23 18.5 49.5t12.5 47.5q4 17 6 40.5t3 44.5h-55l15 67h44q-1 8 -1 15.5v15.5q2 41 4 79.5t8 66.5q7 31 18 63.5t27 58.5q17 26 39 42.5
t51 17.5q35 1 52 -16t22 -44q5 -28 1.5 -63.5t-11.5 -72.5h-81z" />
    <glyph glyph-name="yen" unicode="&#xa5;" horiz-adv-x="241" 
d="M29 233h51l14 67h-51l15 67h43l14 368h82l-15 -214q11 29 25.5 68l29 78t24.5 68h82l-143 -368h44l-15 -67h-52l-14 -67h52l-14 -67h-52l-36 -166h-83l36 166h-51z" />
    <glyph glyph-name="plus" unicode="+" horiz-adv-x="341" 
d="M60 401h108l36 169h69l-36 -169h108l-18 -84h-108l-36 -169h-69l36 169h-108z" />
    <glyph glyph-name="minus" unicode="&#x2212;" horiz-adv-x="257" 
d="M60 401h202l-18 -84h-202z" />
    <glyph glyph-name="equal" unicode="=" horiz-adv-x="340" 
d="M81 506h285l-18 -84h-285zM41 317h285l-18 -84h-285z" />
    <glyph glyph-name="greater" unicode="&#x3e;" horiz-adv-x="340" 
d="M328 320l-337 -248l22 107l244 177l-169 177l23 107l232 -248z" />
    <glyph glyph-name="less" unicode="&#x3c;" horiz-adv-x="340" 
d="M58 392l338 248l-23 -107l-246 -177q20 -21 42 -43.5t43 -44.5l86 -89l-23 -107l-232 248z" />
    <glyph glyph-name="asciitilde" unicode="~" horiz-adv-x="405" 
d="M88 663q15 38 35.5 68t45.5 56q25 23 57 23q26 0 44 -15t28 -30l4 -5q10 -14 19.5 -24.5t18.5 -10.5t20.5 13.5t21.5 30.5q5 7 11 18.5t11 23.5q1 2 2.5 6t1.5 5l49 -39q-34 -75 -81 -125q-25 -23 -55 -23q-29 0 -45 15t-30 34q-10 14 -19.5 25t-19.5 11t-22.5 -13.5
t-23.5 -30.5q-6 -10 -12.5 -23t-13.5 -30z" />
    <glyph glyph-name="asciicircum" unicode="^" horiz-adv-x="353" 
d="M301 735l38 -340h-76l-28 238l-129 -238h-76l184 340h87z" />
    <glyph glyph-name="percent" unicode="%" horiz-adv-x="409" 
d="M225 445q-9 -36 -33 -61t-59 -25q-38 0 -51 26.5t-6 59.5l45 213q8 36 33.5 60.5t59.5 24.5q40 0 50.5 -26.5t5.5 -58.5zM37 0l367 735h64l-364 -735h-67zM210 658q2 10 1.5 18.5t-9.5 8.5q-10 0 -14.5 -9.5t-6.5 -17.5l-45 -213q-2 -8 -3 -17.5t12 -9.5q11 0 15 9.5
t5 17.5zM383 77q-9 -35 -33 -60t-59 -25q-37 0 -50.5 26t-6.5 59l45 213q8 36 33.5 61t59.5 25q38 0 49.5 -27t6.5 -59zM368 290q2 10 1.5 18.5t-9.5 8.5q-10 0 -14.5 -9t-6.5 -18l-45 -213q-3 -9 -2 -18.5t11 -9.5q11 0 15 10.5t5 17.5z" />
    <glyph glyph-name="perthousand" unicode="&#x2030;" horiz-adv-x="833" 
 />
    <glyph glyph-name="at" unicode="@" horiz-adv-x="338" 
d="M310 190h-67l-7 31q-6 -13 -24 -25.5t-35 -12.5q-25 0 -33 27t0 65l49 233q8 37 27.5 63.5t55.5 26.5q12 0 19.5 -4.5t12.5 -9.5q1 8 0.5 19t-4.5 19q-4 11 -16 18.5t-32 7.5t-34 -7.5t-22 -18.5q-9 -10 -15.5 -23t-8.5 -21l-90 -426q-5 -21 5 -41q4 -10 14.5 -18.5
t30.5 -8.5q24 0 40.5 9.5t30.5 25.5l60 -50q-26 -32 -62 -56t-89 -24q-44 0 -69.5 19.5t-38.5 44.5q-11 26 -10.5 54t3.5 45l90 426q4 18 15.5 46.5t34.5 56.5q24 27 57.5 46t78.5 19q47 0 72 -19t38 -46q11 -27 10 -56t-5 -47zM293 500q3 17 -10 17q-11 0 -14 -17l-47 -219
q-1 -7 2 -12t7 -5q12 0 15 17z" />
    <glyph glyph-name="ampersand" unicode="&#x26;" horiz-adv-x="280" 
d="M285 317q-12 -50 -36.5 -98t-49.5 -93q2 -7 10.5 -15.5t18.5 -14.5l-22 -104q-31 10 -38.5 22t-15.5 31q-16 -28 -40.5 -40.5t-49.5 -12.5q-31 0 -48.5 15.5t-24.5 39.5t-6 49.5t5 45.5q8 38 26.5 79t40.5 79t39 67q-4 52 -0.5 106.5t14.5 109.5q6 23 15 50.5t23 52.5
t35 41t49 16q29 0 42.5 -17t17 -42t0.5 -51.5t-7 -46.5q-13 -59 -43 -112t-62 -103q2 -39 4 -76t4 -56q10 17 20.5 44.5t14.5 45.5zM213 586q6 23 7 47t-10 24q-7 0 -13.5 -12t-11.5 -28.5t-8 -30.5q-2 -9 -5 -29.5t-4.5 -42.5t0.5 -38q13 24 26.5 55.5t18.5 54.5zM133 127
q-8 36 -12.5 75t-6.5 62q-19 -43 -30 -69t-16 -52q-4 -22 -1.5 -43t17.5 -21q6 0 19.5 6.5t29.5 41.5z" />
    <glyph glyph-name="copyright" unicode="&#xa9;" horiz-adv-x="512" 
d="M46 367q16 77 48 145.5t75 120.5q41 51 90.5 80.5t99.5 29.5t87 -29.5t57 -80.5q20 -52 23.5 -120.5t-12.5 -145.5q-16 -76 -48.5 -144.5t-75.5 -120.5q-41 -51 -90.5 -80.5t-99.5 -29.5t-87 29.5t-57 80.5q-20 52 -23 120.5t13 144.5zM98 367q-14 -66 -11.5 -123
t19.5 -100t43.5 -68.5t62.5 -25.5q35 0 73.5 25.5t73.5 68.5q34 43 61 100t41 123t11.5 124t-18.5 101q-16 44 -44 68.5t-63 24.5q-36 0 -73 -24.5t-73 -68.5q-35 -43 -62 -101t-41 -124zM328 299l-13 -61q-13 -49 -42 -81q-15 -15 -42 -15t-37 15t-12 33q-2 23 4 48l55 259
q5 26 15.5 45.5t26.5 35.5q15 15 44 15q26 0 35.5 -15t10.5 -33q1 -10 0.5 -22t-3.5 -26l-13 -61h-58l13 61q2 8 2.5 15t-0.5 11q-1 0 -1 2l-5 -10q0 -1 -2 -3l-2.5 -7.5l-2.5 -7.5l-55 -259q-2 -10 -1.5 -16.5t1.5 -11.5q1 -1 0 -2l-1 -1q2 0 3.5 5t4.5 10q4 8 4 16l13 61
h58z" />
    <glyph glyph-name="registered" unicode="&#xae;" horiz-adv-x="512" 
d="M46 367q16 77 48 145.5t75 120.5q41 51 90.5 80.5t99.5 29.5t87 -29.5t57 -80.5q20 -52 23.5 -120.5t-12.5 -145.5q-16 -76 -48.5 -144.5t-75.5 -120.5q-41 -51 -90.5 -80.5t-99.5 -29.5t-87 29.5t-57 80.5q-20 52 -23 120.5t13 144.5zM98 367q-14 -66 -11.5 -123
t19.5 -100t43.5 -68.5t62.5 -25.5q35 0 73.5 25.5t73.5 68.5q34 43 61 100t41 123t11.5 124t-18.5 101q-16 44 -44 68.5t-63 24.5q-36 0 -73 -24.5t-73 -68.5q-35 -43 -62 -101t-41 -124zM325 582q41 0 51.5 -33.5t-2.5 -92.5q-6 -31 -15 -55.5t-34 -52.5h1l-10 -195h-63
l10 165l-35 -165h-61l91 429h67zM306 519l-27 -126h4q11 0 19 20q5 9 8.5 20t5.5 22t4 22.5t0 20.5q0 21 -10 21h-4z" />
    <glyph glyph-name="trademark" unicode="&#x2122;" horiz-adv-x="305" 
d="M98 684l10 51h112l-10 -51h-31l-61 -283h-51l61 283h-30zM224 401l20 176l-38 -176h-42l71 334h50l-8 -137q5 15 15.5 41.5t21.5 54t15 41.5h46l-71 -334h-43l38 176q-2 -6 -10 -31.5t-18 -56.5t-18 -56.5t-10 -31.5h-19z" />
    <glyph glyph-name="bar" unicode="|" horiz-adv-x="134" 
d="M-68 -250l227 1076h74l-228 -1076h-73z" />
    <glyph glyph-name="dieresis" unicode="&#xa8;" horiz-adv-x="330" 
d="M144 735h74l-21 -98h-74zM248 735h74l-21 -98h-74z" />
    <glyph glyph-name="dotaccent" unicode="&#x2d9;" horiz-adv-x="329" 
d="M193 735h79l-21 -101h-79z" />
    <glyph glyph-name="grave" unicode="`" horiz-adv-x="330" 
d="M240 727l11 -90h-64l-27 90h80z" />
    <glyph glyph-name="acute" unicode="&#xb4;" horiz-adv-x="330" 
d="M304 727l-67 -90h-64l51 90h80z" />
    <glyph glyph-name="hungarumlaut" unicode="&#x2dd;" horiz-adv-x="330" 
d="M247 727l-67 -90h-64l51 90h80zM356 727l-67 -90h-64l51 90h80z" />
    <glyph glyph-name="circumflex" unicode="&#x2c6;" horiz-adv-x="329" 
d="M273 727l21 -90h-65l-8 39l-26 -39h-65l62 90h81z" />
    <glyph glyph-name="caron" unicode="&#x2c7;" horiz-adv-x="329" 
d="M172 637l-22 90h65l8 -39l26 39h65l-61 -90h-81z" />
    <glyph glyph-name="breve" unicode="&#x2d8;" horiz-adv-x="330" 
d="M296 684q-18 -21 -39.5 -34.5t-44.5 -13.5t-41 14.5t-23 33.5l53 57l3 -8t8.5 -16t14.5 -8q8 0 18 8t17 15.5l7 7.5z" />
    <glyph glyph-name="ring" unicode="&#x2da;" horiz-adv-x="329" 
d="M169 694q7 31 27 50.5t42 19.5t33.5 -19.5t4.5 -50.5q-6 -31 -26 -50.5t-42 -19.5t-33.5 19.5t-5.5 50.5zM208 694q-3 -14 0 -23t8 -9t12 9t10 23t0 22.5t-8 8.5t-12 -8.5t-10 -22.5z" />
    <glyph glyph-name="tilde" unicode="&#x2dc;" horiz-adv-x="330" 
d="M161 709q8 10 21 15.5t24 5.5q17 0 26.5 -8.5t23.5 -8.5q10 0 25 11t21 18l-18 -83q-8 -10 -19.5 -17.5t-25.5 -7.5q-17 0 -26 9.5t-24 9.5q-9 0 -25.5 -12.5t-21.5 -17.5z" />
    <glyph glyph-name="macron" unicode="&#xaf;" horiz-adv-x="330" 
d="M163 721h134l-16 -79h-134z" />
    <glyph glyph-name="cedilla" unicode="&#xb8;" horiz-adv-x="330" 
d="M170 -123l-27 -65h-49l30 65h-22l15 69h68z" />
    <glyph glyph-name="ogonek" unicode="&#x2db;" horiz-adv-x="330" 
d="M186 0q-7 -9 -14.5 -21t-15.5 -29q-4 -7 -7 -15.5t-5 -17.5q-4 -22 1 -30t12 -8q4 0 14 5t25 13l-21 -73q-24 -12 -42 -12q-34 0 -46.5 25.5t-5.5 59.5q3 17 14.5 37.5t21.5 34.5l1.5 1.5l1.5 1.5q4 5 10 12t15 16h41z" />
    <glyph glyph-name="uni0093" 
d="M70 605l60 130h48l-48 -130h21l-24 -111h-81zM178 605l60 130h48l-48 -130h21l-24 -111h-81z" />
    <glyph glyph-name="uni0094" horiz-adv-x="228" 
d="M155 624l-61 -130h-48l49 130h-21l23 111h81zM263 624l-61 -130h-48l49 130h-21l23 111h81z" />
    </font>
</defs>
</svg>
