<?xml version="1.0" standalone="no"?>
<!DOCTYPE svg PUBLIC "-//W3C//DTD SVG 1.1//EN" "http://www.w3.org/Graphics/SVG/1.1/DTD/svg11.dtd" >
<svg xmlns="http://www.w3.org/2000/svg" xmlns:xlink="http://www.w3.org/1999/xlink" version="1.1">
<metadata>
Created by FontForge 20170924 at Fri Jan 13 13:55:33 2012
 By Glenn,,,
Copyright (c) 2011 Typesenses (typesenses@live.com.ar), with Reserved Font Name "Rouge Script"
</metadata>
<defs>
<font id="RougeScript-Regular" horiz-adv-x="462" >
  <font-face 
    font-family="Rouge Script"
    font-weight="400"
    font-stretch="normal"
    units-per-em="1250"
    panose-1="2 0 0 0 0 0 0 0 0 0"
    ascent="1000"
    descent="-250"
    x-height="424"
    cap-height="819"
    bbox="-419 -419 1409 1050"
    underline-thickness="62"
    underline-position="-125"
    unicode-range="U+0020-2122"
  />
<missing-glyph horiz-adv-x="339" 
 />
    <glyph glyph-name=".notdef" horiz-adv-x="339" 
 />
    <glyph glyph-name=".null" horiz-adv-x="0" 
 />
    <glyph glyph-name="nonmarkingreturn" horiz-adv-x="416" 
 />
    <glyph glyph-name="space" unicode=" " horiz-adv-x="300" 
 />
    <glyph glyph-name="exclam" unicode="!" horiz-adv-x="299" 
d="M158 153q-22 0 -22 44q0 10 4.5 40t37.5 261.5t41 286.5q3 21 20.5 21t28 -21.5t10.5 -39t-3 -31.5q-6 -33 -100 -541q-4 -20 -17 -20zM140 72q23 0 23 -31t-30 -50q-15 -10 -26 -10q-16 0 -20 13q9 0 13 19.5t12.5 39t27.5 19.5z" />
    <glyph glyph-name="quotedbl" unicode="&#x22;" horiz-adv-x="339" 
d="M157 615q-10 0 -10 21.5t2 39.5q5 48 17 90q7 29 31 29q12 0 17.5 -8.5t3.5 -21.5q-11 -47 -30 -98.5t-31 -51.5zM276 615q-10 0 -10 21.5t2 39.5q5 48 17 90q7 29 31 29q22 0 22 -23q0 -4 -6 -29t-25 -76.5t-31 -51.5z" />
    <glyph glyph-name="numbersign" unicode="#" horiz-adv-x="669" 
d="M198 206q-37 -203 -41 -224t-17 -21t-13 22t29 223h-145q-11 0 -11 8q0 16 32 22q8 1 23 1t105 -2l18 132h-144q-12 0 -11 9q2 22 50 22q21 0 109 -2q18 127 27 183q3 21 20 21t25 -26q4 -13 4 -30t-3 -36l-21 -113q45 -1 134 -5l28 189q4 21 20.5 21t24.5 -26
q4 -13 4 -30t-3 -36l-22 -119q54 -2 144 -2q10 0 10 -5q0 -14 -42 -15h-116q-4 -23 -13.5 -70t-13.5 -69q116 -2 152 -2q11 0 10 -6q-4 -14 -42 -14h-124q-37 -203 -41 -224t-17 -21t-13 22t29 223h-145zM229 367q-21 -113 -25 -133l142 -5l19 138h-136z" />
    <glyph glyph-name="dollar" unicode="$" horiz-adv-x="469" 
d="M259 700q2 0 4 -2q15 -6 15 -34q0 -8 -1 -17l-8 -48q46 -4 73 -28.5t27 -60.5q0 -12 -15.5 -17t-30.5 0t-15 17q0 55 -43 64l-36 -223q22 -22 33 -32t23.5 -23t18 -20.5t15.5 -20.5t14 -23.5t9 -23.5q10 -22 10 -55q0 -75 -51 -128.5t-133 -60.5l-10 -68q-2 -10 -5 -10
q-14 0 -14 27q0 8 1 17l4 33q-78 1 -118.5 38.5t-40.5 93.5q0 16 15 23t30 -0.5t15 -26.5q0 -48 22.5 -75.5t80.5 -28.5l44 306q-31 30 -47.5 48t-32.5 51t-16 69q0 56 37.5 95t103.5 43l14 90q2 11 8 11zM290 133q0 68 -74 138q-9 -61 -26 -164.5t-19 -118.5q56 7 87.5 49
t31.5 96zM176 546q-22 -26 -22 -70.5t51 -99.5q5 31 14.5 99.5t14.5 99.5q-36 -3 -58 -29z" />
    <glyph glyph-name="percent" unicode="%" horiz-adv-x="745" 
d="M158 -102q-10 0 -10 15t19 55t85.5 184.5t140.5 307t85 186.5q12 21 25 21t18 -11q10 -25 -19 -81q-3 -7 -148 -295.5t-181 -366.5q-7 -15 -15 -15zM250 477q0 100 -50 100q-31 0 -55 -26q-13 -13 -27 -10q-5 1 -2 6q36 53 95 53q65 0 80 -79q4 -21 4 -44q0 -60 -29 -127
q-39 -91 -101 -109q-12 -4 -25 -4q-43 0 -68 27q-27 31 -27 73t9 80t35 71t58 42q5 1 8 -3.5t2.5 -10t-3.5 -6.5q-31 -11 -49 -73q-13 -42 -13 -83q0 -95 48 -95t81 79q29 70 29 139zM579 199q0 100 -50 100q-31 0 -55 -26q-13 -13 -27 -10q-5 1 -2 6q36 53 95 53
q65 0 80 -79q4 -21 4 -44q0 -60 -29 -127q-39 -91 -101 -109q-12 -4 -25 -4q-43 0 -68 27q-27 31 -27 73t9 80t35 71t58 42q5 1 8 -3.5t2.5 -10t-3.5 -6.5q-31 -11 -50 -73q-12 -42 -12 -83q0 -95 48 -95t81 79q29 70 29 139z" />
    <glyph glyph-name="ampersand" unicode="&#x26;" horiz-adv-x="773" 
d="M673 450q0 79 -51 84q6 17 24 17q46 0 61 -54q5 -20 5 -40q0 -48 -28 -99q-55 -100 -177 -123q-30 -6 -60.5 -6t-41.5 2q-9 -101 -73 -176q91 -96 187 -96q58 0 87 23t29 52q0 4 4.5 6t8.5 0t4 -8q0 -33 -34.5 -65t-99.5 -32q-104 0 -209 95q-76 -67 -181 -67
q-81 0 -122 37.5t-41 100t42.5 115t116.5 105.5q-20 64 -20 112t12 85t48 59.5t87 22.5t75 -23.5t24 -62.5q0 -27 -9 -43t-14.5 -25t-18 -21t-19.5 -18.5t-24 -19.5t-24 -18t-27.5 -19t-26.5 -19q39 -152 130 -259q57 68 67 164q-69 20 -69 71q0 21 20 32q10 6 27.5 6
t30.5 -25t13 -65q16 -3 37 -3q136 0 198 98q32 50 32 100zM131 -13q95 0 161 59q-104 103 -158 246q-115 -93 -115 -201q0 -46 26.5 -75t85.5 -29zM267 576q-95 0 -95 -136q0 -37 8 -80q69 48 104 83.5t35 78.5q0 54 -52 54zM358 322q-18 0 -18 -21q0 -23 45 -41
q-2 62 -27 62z" />
    <glyph glyph-name="quotesingle" unicode="'" horiz-adv-x="343" 
d="M275 680q11 38 11 76t28 38t28 -35q0 -8 -1 -17q-8 -55 -42 -92q-19 -20 -32 -21q-20 0 -21 10l-1 3q19 0 30 38z" />
    <glyph glyph-name="parenleft" unicode="(" horiz-adv-x="305" 
d="M292 815q10 0 10 -9.5t-7 -9.5q-60 -9 -116.5 -133.5t-83.5 -262.5t-27 -254q0 -181 59 -218q7 -5 4.5 -11t-5.5 -6t-7 2q-64 35 -89 137q-17 65 -17 123q0 161 56 347q36 119 97 203t126 92z" />
    <glyph glyph-name="parenright" unicode=")" horiz-adv-x="390" 
d="M-4 -93q-10 0 -10 9.5t7 9.5q60 9 116.5 133.5t83.5 262.5t27 254q0 181 -59 218q-7 5 -4.5 11t5.5 6t7 -2q64 -35 90 -137q16 -65 16 -123q0 -161 -56 -347q-36 -119 -97 -203t-126 -92z" />
    <glyph glyph-name="asterisk" unicode="*" horiz-adv-x="655" 
d="M281 770q0 12 8 20t19.5 8t20 -8t8.5 -20q0 -81 -14 -130q38 27 117 56q11 4 22 -2q16 -8 16 -25q0 -19 -19 -26q-79 -29 -127 -32q37 -25 94 -93q7 -10 7 -20t-11 -19q-22 -17 -40 3q-55 67 -73 114q-14 -43 -69 -116q-8 -12 -20 -12t-20 6.5t-10 18t5 20.5q53 70 91 98
q-44 0 -131 27q-20 7 -20 26q0 17 13 24t24 4q87 -31 123 -56q-14 42 -14 134z" />
    <glyph glyph-name="plus" unicode="+" horiz-adv-x="673" 
d="M273 45q-2 -10 -5 -10t-8 4t-5 21.5t22 223.5q-70 -1 -191 -1q-11 0 -11 8q0 16 32 22q8 1 28 1t144 -4q13 127 22 196q1 11 7 11q2 0 5 -2q15 -6 15 -39t-21 -167q128 -4 194 -4q10 0 10 -5q0 -14 -42 -15q-107 0 -165 -1q-22 -150 -31 -239z" />
    <glyph glyph-name="comma" unicode="," horiz-adv-x="215" 
d="M59 -42q11 38 11 76t28 38t28 -35q0 -8 -1 -17q-8 -55 -42 -92q-19 -20 -32 -21q-20 0 -21 10l-1 3q19 0 30 38z" />
    <glyph glyph-name="hyphen" unicode="-" horiz-adv-x="610" 
d="M423 285l-317 -2q-11 0 -11 8q0 16 32 22q8 1 18 1l310 -9q10 0 10 -5q0 -14 -42 -15z" />
    <glyph glyph-name="period" unicode="." horiz-adv-x="209" 
d="M100 72q23 0 23 -31t-30 -50q-15 -10 -26 -10q-16 0 -20 13q9 0 13 19.5t12.5 39t27.5 19.5z" />
    <glyph glyph-name="slash" unicode="/" horiz-adv-x="508" 
d="M30 -102q-10 0 -10 15t19 55t85.5 184.5t140.5 307t85 186.5q12 21 27 21q18 0 18 -25q0 -27 -21 -67q-3 -7 -148 -295.5t-181 -366.5q-7 -15 -15 -15z" />
    <glyph glyph-name="zero" unicode="0" horiz-adv-x="503" 
d="M357 395q0 178 -92 178q-62 0 -103 -49q-18 -21 -35 -21q-10 0 -5 9q61 88 159.5 88t129.5 -109q12 -43 12 -104t-27 -147q-44 -143 -131 -209q-49 -38 -101.5 -38t-89 25.5t-51.5 66.5q-19 53 -19 103.5t12 97.5t33 92.5t55 79.5t73 45q6 2 9.5 -3t2.5 -12t-5 -8
q-32 -9 -59 -60q-53 -96 -53 -253q0 -63 23 -107.5t66 -44.5q85 0 144 139q52 121 52 241z" />
    <glyph glyph-name="one" unicode="1" horiz-adv-x="385" 
d="M191 -20q-59 0 -59 124q0 63 20.5 156.5t62.5 191.5q-85 -48 -135.5 -103t-50.5 -134q0 -18 7 -23t9 -5q-2 -12 -17 -12t-29 15t-14 50.5t21 74.5t62 71q67 53 162 99q65 139 125 139q31 0 31 -32q0 -28 -27.5 -51.5t-84.5 -55.5q-50 -136 -71 -307q-7 -62 -7 -102
q0 -72 24 -76q-10 -20 -29 -20zM355 600q-33 0 -69 -86q81 43 81 73q0 13 -12 13z" />
    <glyph glyph-name="two" unicode="2" horiz-adv-x="489" 
d="M344 197q36 0 36 -58t-34 -106q-45 -65 -123 -65q-36 0 -64 15t-43 33q-39 47 -65.5 47t-40.5 -19.5t-14 -34.5q0 -12 -19.5 -12.5t-19.5 12.5q0 33 95 109q96 77 176 164q41 43 68 97t27 105q0 91 -87 91q-75 0 -116 -81q-23 -48 -23 -93q0 -18 4 -36q11 -52 50 -52
q0 -14 -22 -14q-62 0 -80 61q-6 20 -6 40q0 45 27 94q59 106 181 106q68 0 103 -32.5t35 -83.5t-22.5 -96.5t-64.5 -88.5t-80 -75.5t-91 -73t-75 -60.5q7 1 12 1q24 0 72.5 -26t92.5 -26q74 0 107 61q14 26 14 43q0 41 -25 41q2 13 15 13z" />
    <glyph glyph-name="three" unicode="3" horiz-adv-x="498" 
d="M392 480q0 -74 -63 -132q33 -24 49 -61.5t16 -80t-19 -87t-50.5 -79t-82.5 -56.5t-112 -22q-105 0 -142 69q-18 33 -18 67.5t21 69.5q40 69 121 69q12 0 19.5 -6.5t9.5 -18.5q-13 4 -29 4q-55 0 -83 -57q-15 -30 -15 -58.5t13 -56.5q26 -57 103 -57q63 0 111 39
q86 71 86 196q0 65 -29 103q-51 -31 -111 -31t-60 33q0 24 29 39t66 15t67 -12q42 53 42 112q0 33 -16 59q-23 36 -75 36q-64 0 -91 -59q-11 -24 -11 -42.5t8 -32.5q9 -15 23 -16q0 -14 -22 -14q-39 0 -50 41q-2 12 -2 23q0 36 27 70q44 54 125.5 54t117.5 -44
q27 -34 27 -76zM151 331q0 -16 40.5 -16t79.5 34q-23 14 -62 14t-54 -23q-4 -5 -4 -9z" />
    <glyph glyph-name="four" unicode="4" horiz-adv-x="514" 
d="M145 620q58 0 58 -108q0 -63 -26 -150t-74 -153q4 -1 58.5 -18t87.5 -22q18 117 67 223t92 106q7 0 11 -3t4 -6v-3q-31 0 -64.5 -103.5t-48.5 -219.5h10q53 0 70 38q5 10 5 20t-6.5 15t-12.5 5q4 14 21 14q26 0 26 -34.5t-28.5 -57.5t-73.5 -23h-14q-4 -42 -4 -71
q0 -69 23 -69q-10 -20 -29 -20q-56 0 -56 105q0 28 5 62q-37 7 -96.5 25.5t-60.5 18.5q-44 -51 -88 -51t-50 27q-1 4 -1 8q0 20 23.5 32.5t46 12.5t50.5 -4q33 56 51.5 145t18.5 164t-24 75q10 20 29 20zM-26 175q0 -14 28.5 -14t55.5 38q-15 3 -29 3q-46 0 -54 -21
q-1 -3 -1 -6z" />
    <glyph glyph-name="five" unicode="5" horiz-adv-x="498" 
d="M384 672q24 0 24 -47.5t-35.5 -85.5t-94.5 -38q-34 0 -63 10q-39 14 -53 31q-3 -17 -8.5 -65t-10.5 -73q25 5 48 5q134 0 181 -95q20 -40 20 -85t-19 -95q-38 -98 -127 -144q-53 -28 -115 -28q-104 0 -142 69q-20 36 -20 70.5t16 66.5q35 69 107 69q10 0 10.5 -10.5
t-10.5 -10.5q-48 0 -71 -55q-12 -28 -12 -56t14 -56q29 -62 107 -62q91 0 148 90q43 68 43 145q0 119 -84 154q-27 12 -53 12t-44 -5q-20 -103 -67 -103q-33 0 -33 31q0 34 40 64q19 14 41 22q3 19 7.5 54t7.5 56.5t9 45.5q10 47 33 47h1q11 0 25 -12q42 -38 99.5 -38
t78.5 50q6 16 6 29t-6.5 21t-14.5 8q-1 0 0 4q3 10 17 10zM62 311q0 -10 11 -11q29 0 45 76q-41 -19 -53 -52q-3 -7 -3 -13z" />
    <glyph glyph-name="six" unicode="6" horiz-adv-x="480" 
d="M68 158q0 -165 95 -165q71 0 120 92q39 74 39 150q0 101 -59 111q-5 1 -11 1q-53 0 -89 -57.5t-38 -123.5q0 -14 -10.5 -10t-9.5 17q3 75 48 138t117 63q82 0 105 -81q7 -26 7 -54q0 -57 -30 -122q-44 -99 -124 -133q-31 -13 -65 -13q-120 0 -153 113q-11 39 -11 83
q0 76 34 167q52 142 147 216q66 50 134 50q38 0 57 -20t19 -46t-19 -31q-18 -3 -19 11v6q0 22 -13 38t-41 16q-93 0 -161.5 -140t-68.5 -276z" />
    <glyph glyph-name="seven" unicode="7" horiz-adv-x="368" 
d="M56 568q0 -22 21 -35t54 -13q58 0 149 40t112 40q6 0 6 -12t-6 -12q-61 0 -141.5 -144t-122.5 -288q-25 -84 -25 -114t12 -30q-10 -20 -29 -20q-47 0 -47 62q0 26 8 63q30 129 128 287q54 88 108 143q-120 -56 -192 -56t-88 50q-4 13 -4 31.5t17.5 40t45.5 21.5
q8 0 14 -4t9 -11q-19 0 -27 -24q-2 -8 -2 -15z" />
    <glyph glyph-name="eight" unicode="8" horiz-adv-x="459" 
d="M255 600q52 0 83 -25.5t31 -72t-33 -84.5t-95 -79q85 -79 103 -131q8 -25 8 -55q0 -80 -57.5 -135t-142 -55t-126 37.5t-41.5 94.5q0 76 57 133q30 30 54 48t66 46q-66 68 -66 133.5t42.5 105t116.5 39.5zM290 133q0 28 -6.5 43t-9.5 23.5t-12 20t-13 17t-16 17.5l-16 16
q-4 4 -17.5 16.5t-16.5 15.5q-71 -46 -110 -93.5t-39 -117.5q0 -46 28 -75t91 -29t100 43t37 103zM299.5 558q-20.5 18 -58.5 18t-62.5 -26.5t-24.5 -68.5q0 -55 65 -120q49 37 75 71.5t26 71t-20.5 54.5z" />
    <glyph glyph-name="nine" unicode="9" horiz-adv-x="499" 
d="M91 -3q103 0 178 133t75 291q0 107 -47 143q-18 14 -42 14q-74 0 -125 -94q-41 -75 -41 -153q0 -99 59 -109q5 -1 11 -1q52 0 89 59t39 125q0 14 10.5 10t9.5 -17q-3 -75 -48 -138t-117 -63q-83 0 -108 81q-8 29 -8 71.5t25 102.5q43 99 127 134q34 14 71 14
q112 0 150 -107q16 -45 16 -104.5t-26 -137.5q-47 -143 -148 -221q-77 -59 -166 -59q-50 0 -76.5 25t-26.5 52t21 30q18 -1 21 -15q0 -27 18.5 -46.5t58.5 -19.5z" />
    <glyph glyph-name="colon" unicode=":" horiz-adv-x="293" 
d="M88 72q24 0 24 -31t-29 -50q-14 -10 -25 -10q-16 0 -20 13q14 0 18 39q1 15 9 27t23 12zM129 352q24 0 24 -31t-29 -50q-14 -10 -25 -10q-16 0 -20 13q14 0 17 39q2 15 10 27t23 12z" />
    <glyph glyph-name="semicolon" unicode=";" horiz-adv-x="235" 
d="M58 37q-2 35 27 35t29 -38q0 -61 -39 -106q-19 -21 -32 -21q-20 0 -21 10l-1 3q19 0 28 35.5t9 56.5v25zM118 352q25 0 25 -31.5t-27 -49.5q-14 -10 -25 -10q-17 0 -21 13q13 0 16 39q1 15 9 27t23 12z" />
    <glyph glyph-name="less" unicode="&#x3c;" horiz-adv-x="508" 
d="M339 420q17 -3 17 -37t-69.5 -92.5t-134.5 -64.5q56 -28 103 -88t47 -101q0 -26 -12 -31l-5 -1q0 63 -76.5 133t-168.5 70q0 8 11 17q20 16 43 16q91 0 168 62.5t77 116.5z" />
    <glyph glyph-name="equal" unicode="=" horiz-adv-x="724" 
d="M531 369l-418 -2q-12 0 -11 9q2 16 32 21l18 1l411 -9q10 0 10 -5q0 -14 -42 -15zM508 208l-418 -2q-11 0 -11 8q0 16 32 22q8 1 18 1l411 -9q10 0 10 -5q0 -14 -42 -15z" />
    <glyph glyph-name="greater" unicode="&#x3e;" horiz-adv-x="548" 
d="M92 37q0 39 70 97t136 64q-57 27 -104.5 87.5t-47.5 101.5q0 13 4 21.5t12 11.5q0 -63 76.5 -133t168.5 -70q-3 -12 -18.5 -22.5t-34.5 -10.5q-92 0 -168.5 -62t-76.5 -117q-17 3 -17 32z" />
    <glyph glyph-name="question" unicode="?" horiz-adv-x="579" 
d="M190 72q24 0 24 -31t-29 -50q-14 -10 -25 -10q-16 0 -20 13q14 0 18 39q1 15 9 27t23 12zM216 161q0 -13 -19.5 -13t-19.5 13q0 91 105 193l86.5 86.5t74 100.5t30.5 119q0 91 -87 91q-75 0 -116 -81q-23 -48 -23 -93q0 -18 4 -36q11 -52 50 -52q0 -14 -22 -14
q-62 0 -80 61q-6 20 -6 40q0 45 27 94q59 106 181 106q68 0 103 -32.5t35 -83t-18 -92t-46.5 -74.5t-62.5 -65t-68.5 -63t-63.5 -62q-64 -70 -64 -143z" />
    <glyph glyph-name="at" unicode="@" horiz-adv-x="793" 
d="M295 98q-64 0 -64 89q0 58 34 121q52 94 128 94q20 0 31.5 -11.5t11.5 -20.5t-6 -12t-11.5 -2.5t-5.5 4.5q0 17 -20 17q-41 0 -75 -66q-35 -70 -35 -125t17 -63q20 0 47 40q40 58 60 100l36 74q7 17 12.5 19.5t10.5 2.5q11 0 15.5 -14t-0.5 -39.5t-8 -40.5t-7 -42
t-4 -42.5t2 -32.5q4 -33 31 -33q65 0 103 101q17 45 17 95t-25 105q-46 100 -191.5 100t-231.5 -121q-64 -92 -64 -205q0 -132 78 -195q46 -37 112 -37q71 0 109 30q32 27 39 47l3 9l16 -1q-4 -16 -17 -36t-30.5 -34t-51 -25.5t-76.5 -11.5q-141 0 -200 107q-32 58 -32 115
t13 106q35 130 139 207q91 66 211 66q157 0 208 -114q20 -45 20 -93.5t-17 -99.5q-30 -90 -89 -122q-22 -12 -45 -12q-78 0 -78 94q0 21 4 46q-76 -138 -124 -138z" />
    <glyph glyph-name="A" unicode="A" horiz-adv-x="1055" 
d="M1013 818q8 0 12 -5t5 -14q-104 0 -182 -103q52 -19 101 -30q54 70 99 70q10 0 17 -5.5t10 -16.5q-39 0 -81 -55q7 -1 21 -1q99 0 139 59q17 23 17 39q0 45 -40 45q9 14 29 14q39 0 51 -39q3 -12 3 -23q0 -33 -28 -65q-49 -54 -151 -54q-30 0 -54 4q-67 -107 -108 -304
q-29 -137 -29 -230q0 -40 5 -72q57 44 109 111t75 112l23 45h27q-8 -21 -34.5 -66.5t-51 -80t-63.5 -76.5t-79 -71q13 -38 37 -38q-10 -20 -29 -20q-32 0 -53 30q-72 -37 -140 -37q-99 0 -171 52q-105 -120 -253 -120t-215 105q-37 59 -37 127q0 28 6 57q21 97 95 138
q39 22 87 22q103 0 139 -80q15 -33 15 -67.5t-14 -69.5q-34 -84 -111 -84q-12 0 -20 5.5t-12 16.5q27 0 51 14q40 24 63 87q6 21 6 34.5t-2 31t-13 40.5t-38 37t-64 14q-95 0 -140 -84q-26 -48 -26 -91t9 -77q26 -95 109 -131q39 -17 86 -17q135 0 244 122q-48 51 -66 123
q-11 42 -11 75q0 104 60 165q44 44 107.5 44t114.5 -31q89 207 144 287q-7 2 -51.5 19t-56.5 21l-48 16q-84 28 -148 28q-130 0 -192 -98q-36 -55 -36 -114q0 -17 4 -35q11 -65 58 -78q9 -3 19 -3q-6 -22 -33 -22q-61 0 -86 65q-12 31 -12 69t20 85q42 101 148 138
q50 17 93.5 17t72 -4.5t68.5 -17t58.5 -18.5t72 -26.5t61.5 -23.5q86 114 188 114zM798 -1q-17 40 -17 97.5t-24 133t-70 123.5q-91 -240 -170 -340q62 -49 152 -49q64 0 129 35zM659 377q-38 27 -88.5 27t-89.5 -38q-56 -57 -56 -149q0 -102 57 -171q64 82 123 209
q21 47 54 122zM789 218q16 118 56 235.5t91 193.5q-42 10 -101 31q-47 -70 -94 -185q-14 -36 -44 -115q62 -55 92 -160z" />
    <glyph glyph-name="B" unicode="B" horiz-adv-x="903" 
d="M666 451q101 -88 101 -249q0 -155 -108 -258q-68 -65 -162.5 -65t-112.5 84q-4 19 -4 38q0 65 43 142q55 100 140 139q40 18 79 18q6 0 8 -6t-0.5 -11.5t-8.5 -5.5q-91 0 -165 -96q-68 -89 -68 -181q0 -72 54 -88q12 -3 27 -3q52 0 98 37q87 70 116 227q5 30 5 64.5
t-9 72.5q-15 68 -57 115q-101 -99 -239 -99h-7q-27 -224 -93 -308q-28 -34 -72 -57t-97.5 -23t-89 18t-51.5 46q-22 41 -22 75t10 63.5t29 58t50 46.5t67 18q20 0 28 -14l2 -5q-87 0 -133 -74q-26 -42 -26 -86q0 -20 5 -41q22 -78 110 -78q74 0 116 56q46 59 66 137
q22 82 38 178q-52 17 -68 55q-6 14 -6 33t18 42q27 38 88 53q19 88 47 134.5t75 46.5q14 0 18 -12l2 -5q-38 0 -58 -40.5t-31 -116.5q6 1 19 1q108 0 188 -46q53 79 53 158q0 58 -39.5 105t-129.5 47q-182 0 -288 -131q-81 -99 -81 -216q0 -83 47 -115q20 -14 47 -14
q-10 -23 -31 -23q-74 0 -100 77q-12 34 -12 81.5t27 113.5q52 131 175 199q95 53 216 53q76 0 128 -24q101 -46 101 -161q0 -92 -72 -180zM437 504l-22 -1q-9 -80 -16 -151h3q122 0 205 104q-66 48 -170 48zM360 492q-72 -24 -72 -75q0 -37 49 -55q16 98 23 130z" />
    <glyph glyph-name="C" unicode="C" horiz-adv-x="709" 
d="M182 914q-76 0 -137 -36q-113 -68 -133 -214q-3 -23 -3 -56t12 -74q17 -61 66.5 -110t123.5 -67q31 114 94 213.5t159 166t202 66.5q92 0 112 -74q6 -19 6 -40q0 -61 -46 -135q-72 -119 -210 -181q-108 -49 -233 -49h-20q-21 -74 -21 -143q0 -130 66 -180q9 82 42 154
t91.5 121t129.5 49q82 0 102 -73q5 -20 5 -41q0 -55 -35 -118q-55 -97 -153 -132q-71 -24 -141 -8q-1 -13 -1 -26q0 -73 31 -123q35 -59 114 -59q-3 -19 -33 -19q-80 0 -117.5 66t-37.5 156v19q-86 37 -114 142q-14 50 -14 106t16 119q-70 16 -121 58t-73 96q-29 71 -29 131
t19 113t54.5 100.5t95.5 77t132 29.5q142 0 194 -110q6 -12 -14 -16q-24 -2 -30 11q-30 90 -151 90zM553 777q-57 0 -115.5 -37.5t-106.5 -98.5q-102 -130 -149 -293h14q196 0 330 125q89 83 109 179q4 21 4 38q0 52 -38 75q-19 12 -48 12zM492 298q-81 0 -147.5 -99
t-81.5 -220q26 -8 55 -8q110 0 185 96q59 74 59 146t-52 83q-8 2 -18 2z" />
    <glyph glyph-name="D" unicode="D" horiz-adv-x="880" 
d="M37 91q11 0 22.5 -1.5t19.5 -2.5t22 -5.5t19.5 -6t22 -8t19.5 -8t22.5 -9.5t20.5 -9q49 56 83 174q-149 10 -214 120q-35 61 -35 132q0 41 11 85q34 125 141 196q93 61 218 61q88 0 157.5 -29t111 -77.5t66.5 -111.5q26 -66 26 -137t-11.5 -138.5t-44 -130.5
t-74.5 -111.5t-101.5 -77.5t-134.5 -29t-165 35q-57 -43 -138 -43q-107 0 -136 50q-7 13 -7 28.5t20 34.5t59 19zM260 19q75 -26 139 -26t112 27t83 73t63 105.5t39 125t11 131t-20.5 125t-55.5 105.5t-95 73t-137 27q-164 0 -251 -116q-61 -80 -61 -180q0 -136 93 -206
q50 -37 115 -44q12 48 28.5 129.5t28.5 134t30 107.5q37 111 111 111q14 0 19 -13l1 -4q-64 0 -89 -104q-13 -51 -20.5 -104t-18 -128.5t-22.5 -127.5q70 10 117.5 53t66.5 104q1 5 6.5 6t9 -2t2.5 -9q-22 -68 -75 -116t-133 -59q-32 -135 -97 -198zM-12 30q0 -19 27 -31.5
t77 -12.5t95 37q-100 43 -143.5 43t-53.5 -25q-2 -6 -2 -11z" />
    <glyph glyph-name="E" unicode="E" horiz-adv-x="706" 
d="M279 939q6 0 9.5 -4.5t3.5 -8.5v-4q-65 0 -112 -38q-66 -54 -66 -130q0 -33 14 -66q22 -54 81 -83q24 89 99.5 152.5t185.5 63.5q83 0 106 -56q7 -17 7 -35q0 -37 -30 -78q-74 -98 -237 -98q-50 0 -87 9q-3 -19 -3 -40t7 -42q61 22 129.5 22t83.5 -35q3 -8 3 -15
q0 -21 -32 -42t-99 -21t-108 46q-89 -57 -131 -168q-28 -74 -28 -144q0 -35 7 -68q21 -102 98 -137v6q0 93 30.5 182t96.5 153.5t152 64.5t111 -78q9 -28 9 -58q0 -55 -30 -120q-52 -111 -157 -161q-64 -30 -138 -30q-12 0 -32 2q3 -82 37 -133t98 -51q-4 -17 -25 -17
q-67 0 -105.5 58t-44.5 150q-72 18 -116 71q-54 64 -54 163q0 51 15 113.5t66 128t123 101.5q-16 34 -16 64.5t3 51.5q-45 21 -73 56q-38 49 -38 109q0 67 38 121q24 32 63 52.5t86 20.5zM467 301q-67 0 -124.5 -62.5t-88 -152.5t-32.5 -179q14 -3 30 -3q146 0 233 113
q64 83 64 169t-50 108q-14 7 -32 7zM339 579q116 0 182 72q39 42 39 82q0 9 -1 17q-12 47 -72 48q-82 0 -145.5 -64t-83.5 -147q37 -8 81 -8zM386 481q-62 0 -117 -25q27 -42 90.5 -42t81.5 28q4 7 4 12q0 13 -17.5 20t-41.5 7z" />
    <glyph glyph-name="F" unicode="F" horiz-adv-x="702" 
d="M370 348q-28 6 -46 19v19q20 -13 49 -19q30 184 45 219t30 61q30 49 81 49q14 0 19 -12l1 -5q-24 0 -42 -16t-28.5 -39t-18.5 -64q-13 -65 -18 -118t-5 -56q0 -11 -2 -21q43 6 77 23q6 61 33 107.5t68 46.5q25 0 25 -27q0 -53 -60 -106q-13 -12 -28 -22q-3 -21 -3 -38
q0 -74 36 -74q-1 -12 -17 -12q-27 0 -41 29t-14 74q-36 -16 -78 -20q-25 -213 -64 -287q-19 -36 -46 -69q-53 -65 -157 -65q-51 0 -87.5 19.5t-52.5 51.5q-20 41 -20 78t11 70.5t30.5 65t51.5 51t68 19.5q19 0 27 -14l3 -5q-84 0 -133 -77q-32 -51 -32 -105q0 -17 4 -35
q14 -73 80 -88q16 -4 43 -4t57 14.5t52 46t37.5 63.5t28.5 84q18 78 36 188zM769 816q33 0 33 -39q0 -30 -31.5 -55.5t-99 -25.5t-183.5 37t-176 37q-129 0 -201 -103q-49 -70 -49 -150q0 -114 78 -151q27 -13 61 -13q0 -7 -8 -15t-18 -8q-105 0 -146 87q-19 41 -19 86
t18 95q39 108 139 160q65 33 137.5 33t180 -32.5t164.5 -32.5q86 0 99 40q7 19 -4 25q-2 1 -3 1q6 24 28 24zM612 523q-17 0 -33 -31.5t-25 -76.5q50 40 63 86q2 8 2 15t-7 7z" />
    <glyph glyph-name="G" unicode="G" horiz-adv-x="760" 
d="M289 415q-39 -130 -39 -207q0 -181 104 -181q65 0 135 80q14 79 19 110.5t11.5 64t11.5 51t12 42.5t15 37t18 26q18 24 48 24q35 0 35 -48q0 -17 -4 -39q-21 -111 -105 -231q-24 -210 -75 -326q-50 -114 -122 -169q-88 -68 -216 -68q-149 0 -209 103q-29 50 -29 95.5
t11 81.5q26 90 99 127q35 17 75 17q106 0 145 -82q17 -36 17 -69t-12 -63q-26 -69 -85 -69q-9 0 -16 5t-11 14q45 0 70 61q12 30 12 60.5t-14 62.5q-27 61 -109 61t-129 -79q-32 -53 -32 -111q0 -24 6 -49q21 -94 108 -127q39 -15 99 -15t116.5 27.5t93 69t65 106
t44.5 122.5t30 135q-68 -63 -129.5 -63t-102 36.5t-51.5 87.5t-11 99q0 94 33 199q-58 14 -95.5 51.5t-48 75.5t-10.5 63q0 137 95 198q41 27 91 27q15 0 16 -12l1 -4q-49 0 -89 -24q-77 -46 -92 -144q-2 -17 -2 -38.5t9 -55.5t44 -67.5t88 -46.5q53 153 149 259.5
t206 106.5q83 0 83 -87q0 -62 -51 -137q-73 -109 -194 -153q-60 -21 -124 -21h-8zM572 790q-76 0 -151.5 -103t-123.5 -248h1q146 0 248 110q81 89 81 178q0 49 -37 61q-8 2 -18 2zM619 431q-25 0 -37 -49t-18 -109.5t-7 -68.5q62 108 73 187q2 10 2 17q0 23 -13 23z" />
    <glyph glyph-name="H" unicode="H" horiz-adv-x="861" 
d="M241 637l171 -11q48 109 123 109q14 0 19 -13l1 -4q-61 0 -96 -89q101 16 142 86q16 28 16 45q0 40 -28 40q6 17 24 17q34 0 34 -46.5t-37 -90.5q-54 -65 -160 -76q-22 -72 -36 -180t-16 -121q38 27 131 89t121 81q45 163 116.5 270t150.5 107q27 0 42.5 -17t15.5 -44
q0 -73 -70 -149t-195 -164q-45 -181 -45 -350q0 -150 43 -224q34 -58 92 -58q-6 -20 -28 -20q-67 0 -108 54q-62 80 -62 258q0 138 36 290q-226 -150 -245 -163q-30 -201 -77 -274q-45 -68 -114 -68q-32 0 -51 22t-19 59q0 101 193 247q43 265 77 353l-149 11
q-121 0 -173 -92q-25 -46 -25 -92q0 -24 6 -47q19 -71 75 -71q0 -8 -7.5 -15t-19.5 -7q-64 0 -89 66q-11 29 -11 66t21 84q41 94 138 122q34 10 73 10zM949 790q0 38 -32 38q-52 0 -103.5 -84.5t-89.5 -218.5q107 78 166 142.5t59 122.5zM158 1q0 -55 42.5 -55t68.5 67
t49 196q-160 -124 -160 -208z" />
    <glyph glyph-name="I" unicode="I" horiz-adv-x="720" 
d="M244 -113q-149 0 -210 104q-47 81 -21 175t98 131q34 17 74 17q106 0 145 -82q17 -36 17 -69t-12 -63q-26 -69 -85 -69q-18 0 -26 14l-2 5q43 0 67 61q12 30 12 60.5t-13 62.5q-25 61 -105 61t-127 -78q-31 -52 -31 -110q0 -24 5 -50q21 -94 108 -128q39 -15 97 -15
t108.5 26.5t82 73.5t53.5 104t36.5 128t24.5 134q28 179 51 247q-93 7 -97 7q-142 0 -199 -93q-26 -42 -26 -86q0 -21 6 -42q18 -60 66 -60q0 -8 -8 -15t-20 -7q-57 0 -81 59q-11 29 -11 63t20 76q44 95 161 121q37 8 67.5 8t129.5 -9q45 114 129 114q7 0 12.5 -4.5
t8.5 -12.5q-73 0 -104 -100h20q103 0 144 65q16 25 16 43q0 47 -33 47q6 18 23 18q29 0 39 -36q3 -13 3 -25q0 -36 -28 -71q-53 -64 -165 -64h-25q-18 -70 -27 -170.5t-19.5 -166t-24 -120.5t-40 -108t-62.5 -89.5t-93 -59t-129 -22.5z" />
    <glyph glyph-name="J" unicode="J" horiz-adv-x="776" 
d="M814 801q6 18 23.5 18t29 -14.5t11.5 -37.5t-12.5 -43.5t-30 -34.5t-48.5 -27q-43 -19 -128 -43q-24 -88 -35.5 -212.5t-23.5 -207.5t-27 -154.5t-44 -140t-68 -116.5t-100.5 -77t-140.5 -29q-157 0 -224 111q-35 58 -35 127q0 33 8 68q24 102 100 149q45 28 98 28
q108 0 148 -85q16 -36 16 -70.5t-11 -67.5q-27 -74 -88 -74q-17 0 -28 19q41 0 65 58q15 36 15 68t-9 59q-26 74 -107 74q-95 0 -149 -88q-37 -61 -37 -130q0 -24 5 -48q18 -106 107 -149q47 -23 119 -23t133 47t94.5 118.5t59 173t37.5 193.5q35 251 69 364
q-183 -53 -249 -118q-27 -28 -46 -70.5t-19 -94.5t26 -88t66 -36q0 -8 -8 -15t-20 -7q-49 0 -80.5 42t-31.5 93.5t12.5 87.5t31 62.5t50 50.5t59.5 40t71 33q64 24 147 48q47 131 135 131q7 0 12.5 -4.5t8.5 -12.5q-69 0 -103 -98q88 26 132.5 51t44.5 64q0 17 -9 27.5
t-22 10.5z" />
    <glyph glyph-name="K" unicode="K" horiz-adv-x="836" 
d="M248 637l170 -11h3q47 109 121 109q14 0 19 -13l1 -4q-61 0 -94 -88q99 15 139 85q16 27 16 44q0 41 -28 41q7 18 24 18q34 0 34 -47t-37 -91q-55 -63 -156 -75q-14 -46 -26 -126q79 -17 124 -87q72 60 155 212q32 58 66 112q76 120 160 120q10 0 15.5 -4.5t6.5 -13.5
q-92 0 -151 -132q-26 -58 -52.5 -120t-72 -123t-105.5 -93q32 -70 59 -244q9 -57 24 -111q30 -115 117 -115q-2 -18 -26 -18q-63 0 -101.5 31t-53.5 86t-21.5 111.5t-13.5 128t-20 115.5q-54 -21 -128 -21h-8q-36 -213 -109 -299q-28 -33 -72 -54.5t-96 -21.5t-87.5 18
t-50.5 46q-23 41 -23 75t10 63.5t29 58t50.5 46.5t67.5 18q19 0 27 -14l3 -5q-88 0 -134 -74q-26 -43 -26 -86q0 -20 5 -41q22 -78 110 -78q71 0 115 53q46 55 72 132q21 62 46 174q-49 18 -62 57q-4 13 -4 31t18 40q28 32 82 33q18 78 33 118l-152 10q-111 0 -159 -83
q-23 -40 -23 -70t7 -51q20 -53 65 -56q0 -8 -8 -15t-20 -7q-59 0 -80 60q-9 25 -9 58.5t21 76.5q55 111 194 111zM417 338q60 0 113 34q-33 69 -100 84l-18 -118h5zM373 461q-36 -3 -51.5 -21t-15.5 -31q0 -41 44 -60q9 42 23 112z" />
    <glyph glyph-name="L" unicode="L" horiz-adv-x="730" 
d="M638 831q92 0 92 -138q0 -88 -48 -203q-70 -167 -190 -257q-46 -34 -94 -52q-48 -124 -121 -181q100 -74 145 -96.5t87 -22.5q73 0 96 51q7 16 7 30t-7.5 23.5t-17.5 9.5q3 12 15 12q34 0 45 -38q4 -13 4 -25q0 -30 -23 -56q-32 -38 -95 -38q-79 0 -152 46
q-41 25 -59.5 39t-65.5 50q-62 -39 -137 -39q-111 0 -144 56q-9 17 -9 35.5t16 38.5q25 31 72 31q75 0 187 -81q45 46 81 137q-10 -1 -29 -1q-163 0 -239 130q-46 80 -46 177q0 33 5 67q18 127 94 194q52 44 118 44t102 -43t38 -106q0 -9 -10 -14.5t-20 -3t-10 12.5
q-2 60 -24 95.5t-79 35.5q-90 0 -145 -99q-44 -78 -44 -172q0 -172 111 -249q61 -43 148 -43q20 0 41 3q23 62 49 162.5t46.5 175t48.5 148.5q58 154 161 154zM627 802q-70 0 -107 -135q-18 -65 -32 -134q-41 -211 -76 -315q123 63 201 236q63 138 62 254q-3 92 -48 94z
M54 82q-45 0 -57.5 -31.5t27.5 -59.5q30 -21 91 -21t108 39q-98 73 -169 73z" />
    <glyph glyph-name="M" unicode="M" horiz-adv-x="1274" 
d="M856 702l-61 19q-48 -74 -102 -266q-22 -76 -48.5 -160.5t-61 -158t-79 -133.5t-110.5 -95t-148 -35q-147 0 -214 105q-37 59 -37 127q0 28 6 57q21 97 95 138q39 22 87 22q103 0 139 -80q15 -33 15 -67.5t-14 -69.5q-34 -84 -111 -84q-12 0 -20 5.5t-12 16.5q27 0 51 14
q40 24 62 87q7 21 7 34.5t-2 31t-13 40.5t-38 37t-64 14q-95 0 -140 -84q-26 -48 -26 -91t9 -77q26 -95 109 -131q39 -17 99 -17t121.5 33.5t106 91t80.5 128.5t65.5 153.5t53.5 156.5q64 190 111 265q-151 47 -219 47q-129 0 -192 -98q-36 -56 -36 -115q0 -17 4 -35
q11 -66 59 -79q9 -2 18 -2q-6 -21 -33 -21q-61 0 -86 65q-12 31 -12 69t20 85q42 101 148 138q50 17 114.5 17t227.5 -52q49 70 112 70q8 0 12 -5t5 -14q-59 0 -105 -59q45 -14 58 -19q42 73 79 73q17 0 20 -10l1 -3q-28 0 -59 -74l143 -46q67 126 140 126q10 0 16 -5t8 -15
q-75 0 -138 -114q54 -14 67 -16q59 117 106 117q17 0 20 -10l1 -3q-33 0 -80 -111q7 -1 19 -1q99 0 139 59q17 23 17 39q0 45 -40 45q9 14 29 14q39 0 51 -39q3 -12 3 -23q0 -33 -28 -65q-49 -54 -151 -54q-24 0 -47 4q-44 -113 -75.5 -261t-31.5 -264t47 -116
q-10 -20 -29 -20q-78 0 -78 171q0 101 32 240.5t87 258.5q-26 5 -68 17q-44 -86 -92.5 -251.5t-86 -271.5t-75.5 -106q-76 0 -76 182q0 111 32.5 260t86.5 254zM824.5 63q20.5 0 51 96t76 246t89.5 237q-90 28 -141 45q-44 -118 -73 -305q-23 -151 -23 -235t20.5 -84z" />
    <glyph glyph-name="N" unicode="N" horiz-adv-x="1154" 
d="M277 645q64 155 268 155q71 0 209 -46q46 64 105 64q8 0 12 -5t5 -14q-55 0 -97 -52q32 -8 64 -12q34 69 69 69q16 0 19 -10l1 -4q-24 0 -45 -57q58 1 79 46q7 14 7 26.5t-8.5 21t-19.5 8.5q5 15 21 15q29 0 38 -34q3 -10 3 -20q0 -30 -29 -58.5t-87 -28.5h-12
q-29 -95 -40.5 -228.5t-11.5 -222.5q0 -225 40 -225q17 0 42 81t56.5 196t70 230.5t95.5 196.5t122 81q14 0 23.5 -7t13.5 -22q-74 0 -134.5 -83.5t-99.5 -203.5t-71.5 -239.5t-65 -203t-64.5 -83.5q-50 0 -74 82t-24 188q0 122 21.5 254.5t54.5 212.5q-36 6 -68 15
q-56 -86 -107 -318q-20 -91 -54 -190t-75.5 -174t-114 -124t-168.5 -49q-147 0 -214 105q-37 59 -37 127q0 28 6 57q21 97 95 138q39 22 87 22q103 0 139 -80q15 -33 15 -67.5t-14 -69.5q-34 -84 -111 -84q-12 0 -20 5.5t-12 16.5q27 0 51 14q40 24 62 87q7 21 7 34.5t-2 31
t-13 40.5t-38 37t-64 14q-95 0 -140 -84q-26 -48 -26 -91t9 -77q26 -95 109 -131q39 -17 86 -17q86 0 154 47t110 118.5t79.5 167.5t60.5 184q60 223 117 317q-5 1 -26.5 8t-29 9t-27 7t-30.5 7t-28 5q-30 5 -66 5q-130 0 -192 -98q-36 -55 -36 -114q0 -17 4 -35
q11 -65 58 -78q9 -3 19 -3q-6 -22 -33 -22q-61 0 -86 65q-12 31 -12 69t20 85z" />
    <glyph glyph-name="O" unicode="O" horiz-adv-x="736" 
d="M339 340q0 -149 83 -149q-3 -19 -33 -19q-72 0 -97 91q-10 39 -10 92.5t23 128.5q42 135 131 189q44 27 94 27q96 0 117 -115q6 -32 6 -67q0 -99 -47 -227q-64 -177 -170 -273q-77 -71 -156 -71q-147 0 -203 136q-29 69 -29 147.5t20 161.5q44 183 158 304.5t255 121.5
q8 0 13 -5t6 -16q-138 0 -248 -155q-97 -137 -127 -319q-10 -61 -10 -113q0 -101 41 -170t125 -69q112 0 212 152q88 134 120 302q12 62 12 109q0 74 -29 112q-23 27 -57 27q-89 0 -148 -121q-52 -106 -52 -212z" />
    <glyph glyph-name="P" unicode="P" horiz-adv-x="730" 
d="M326 276q-85 23 -85 97q0 29 15.5 44.5t26.5 15.5q18 0 21 -11l1 -4q-26 0 -36 -29q-3 -10 -3 -20q0 -26 20.5 -43t44.5 -24q34 202 44 244q38 154 108 170q9 2 18 2q15 0 20 -12l1 -5q-42 0 -65 -46q-22 -46 -30.5 -102t-12.5 -88t-9.5 -84.5t-9.5 -85.5q123 4 203 109
q67 88 67 191q0 116 -82 167q-48 29 -117 29q-194 0 -295 -138q-70 -94 -70 -210q0 -114 60 -161q27 -22 62 -22q-9 -23 -31 -23q-84 0 -119 86q-19 46 -19 99t18 112q43 140 161 217q99 65 233 65q169 0 231 -109q29 -50 29 -102t-17 -103q-38 -114 -138 -180
q-81 -52 -179 -53q-30 -212 -99 -297q-27 -34 -69 -55t-93 -21t-87 18t-51 46q-23 41 -23 75t10 63.5t29 58t50 46.5t67 18q21 0 27 -14l3 -5q-87 0 -132 -74q-27 -43 -27 -86q0 -21 6 -41q21 -78 109 -78q39 0 71 20t53.5 50.5t39.5 80.5q27 75 50 202z" />
    <glyph glyph-name="Q" unicode="Q" horiz-adv-x="736" 
d="M339 340q0 -149 83 -149q-3 -19 -33 -19q-72 0 -97 91q-10 39 -10 92.5t23 128.5q42 135 131 189q44 27 94 27q96 0 117 -115q6 -32 6 -67q0 -99 -47 -227q-64 -177 -170 -273q-77 -71 -156 -71q-147 0 -203 136q-29 69 -29 147.5t20 161.5q44 183 158 304.5t255 121.5
q8 0 13 -5t6 -16q-138 0 -248 -155q-97 -137 -127 -319q-10 -61 -10 -113q0 -101 41 -170t125 -69q112 0 212 152q88 134 120 302q12 62 12 109q0 74 -29 112q-23 27 -57 27q-89 0 -148 -121q-52 -106 -52 -212zM10 -98q5 24 31 24t66.5 -20.5t76.5 -44.5t87.5 -44.5
t98.5 -20.5q93 0 123 58q9 18 9 33t-9 27q-8 10 -20 11q5 19 25 19q39 0 52 -41q5 -15 5 -29q0 -33 -25 -64q-42 -54 -135 -54q-55 0 -113 23t-98 50q-108 73 -174 73z" />
    <glyph glyph-name="R" unicode="R" horiz-adv-x="778" 
d="M487 700q14 0 18 -12l2 -5q-43 0 -63.5 -51.5t-31.5 -151.5q85 -16 130 -100q64 41 99.5 110t35.5 136t-50.5 116t-144.5 49q-181 0 -280 -129q-69 -91 -69 -194t53 -139q22 -14 48 -14q-10 -23 -31 -23q-75 0 -105 79q-15 38 -15 86.5t22 108.5q46 131 166 198
q92 52 211 52q85 0 144 -27t85 -69q28 -47 28 -100.5t-20.5 -102.5t-63 -95.5t-99.5 -74.5q25 -65 45 -242q7 -57 19 -111q26 -114 111 -114q-2 -18 -26 -18q-122 0 -148 116q-13 55 -16.5 111t-6.5 127.5t-14 115.5q-55 -20 -117 -20h-9q-28 -217 -95 -297
q-27 -33 -70.5 -55t-96 -22t-88 18t-51.5 46q-22 41 -22 75t10 63.5t29 58t50 46.5t67 18q20 0 28 -14l2 -5q-87 0 -133 -74q-26 -42 -26 -86q0 -20 5 -41q22 -78 110 -78q42 0 75.5 21t55 52t39.5 82q27 79 48 203q-38 13 -54 37.5t-16 37.5v18q5 26 30.5 46.5t66.5 21.5
q13 68 27 111.5t40 74t62 30.5zM402 338q56 0 109 24q-30 79 -101 95l-12 -119h4zM354 461q-36 -3 -51 -21.5t-15 -30.5q0 -41 47 -60q12 76 19 112z" />
    <glyph glyph-name="S" unicode="S" horiz-adv-x="769" 
d="M69 -12q-33 62 -33 146q0 78 26.5 139.5t58 99t77 60t96.5 22.5q72 0 115 -41l131 110q-4 35 -4 69q0 222 117 222q30 0 47 -21t19 -54q1 -48 -30.5 -96t-92.5 -105q31 -207 31 -281.5t-19 -144t-58 -126.5t-107 -89t-158 -32q-129 0 -195 88q-18 -63 -18 -143.5
t42.5 -145t109.5 -64.5q5 0 5.5 -10t-5.5 -10q-79 0 -130 74.5t-51 165.5t26 167zM426 395q28 -38 28 -85.5t-14.5 -85t-51 -66t-84.5 -28.5q-10 0 -15.5 5t-7.5 16q43 0 79 40q52 56 52 126q0 29 -11 56q-112 -96 -189 -188t-113 -200q57 -92 179 -92q75 0 131.5 31.5
t88.5 85.5q63 106 63 257q0 37 -18 225zM386 394q-32 34 -88 34t-101 -27q-83 -50 -119 -168q-16 -50 -16 -103q0 -59 19 -109q69 173 305 373zM587 644q0 -27 5 -72q99 97 99 164q0 52 -38 52q-66 0 -66 -144z" />
    <glyph glyph-name="T" unicode="T" horiz-adv-x="603" 
d="M529 696q14 0 19 -12l1 -5q-74 0 -95 -149q-10 -67 -17 -147.5t-21 -161t-39.5 -147t-79 -108t-131.5 -41.5q-51 0 -87.5 19.5t-52.5 51.5q-20 41 -20 78t11 70.5t30.5 65t51.5 51t68 19.5q19 0 27 -14l3 -5q-84 0 -133 -77q-32 -51 -32 -105q0 -17 4 -35q14 -73 80 -88
q16 -4 33 -4q60 0 102 41t64 106.5t37 145t27 159t28 145t46.5 106.5t75.5 41zM740 824q33 0 33 -39q0 -30 -31.5 -55.5t-99 -25.5t-169 33t-161.5 33q-129 0 -201 -103q-49 -70 -49 -150q0 -114 78 -151q27 -13 61 -13q0 -7 -8 -15t-18 -8q-105 0 -146 87q-19 41 -19 86
t18 95q39 108 139 160q65 33 137.5 33t165.5 -28.5t150 -28.5q86 0 99 40q7 19 -4 25q-2 1 -3 1q6 24 28 24z" />
    <glyph glyph-name="U" unicode="U" horiz-adv-x="713" 
d="M580 493q34 0 34 -41q0 -25 -12 -65q-31 -98 -110 -214q-1 -17 -1 -33q0 -83 17 -142q21 -69 69 -69q-5 -20 -28 -20q-52 0 -81 51.5t-35 134.5q-100 -117 -170 -117q-124 0 -124 134q0 56 23.5 129.5t52.5 134t52.5 136t23.5 139.5t-37 103t-102 39q-100 0 -163 -102
q-49 -81 -49 -171q0 -114 67 -145q20 -9 43 -9q77 0 117 86q2 4 6.5 4.5t8 -2.5t1.5 -7q-19 -47 -53 -75.5t-80 -28.5q-90 0 -122 91q-13 39 -13 88t21 110q39 115 125 162q43 23 91 23q92 0 141 -62.5t49 -165.5q0 -60 -21.5 -135.5t-48.5 -135.5q-69 -156 -69 -235.5
t59 -79.5q68 0 169 131v9q0 79 18 159t53 135.5t78 55.5zM495 228q92 151 92 215q0 18 -12 18q-26 0 -48.5 -68.5t-31.5 -164.5z" />
    <glyph glyph-name="V" unicode="V" horiz-adv-x="718" 
d="M508 221q-56 59 -56 201q0 128 53 218q35 60 82 60q45 0 45 -101q0 -63 -21.5 -160.5t-65.5 -199.5q26 -29 62 -29q-5 -20 -29.5 -20t-48.5 13q-48 -101 -107 -163t-121 -62q-127 0 -127 134q0 69 29 166t58 195.5t29 170t-37 110.5t-102 39q-100 0 -163 -102
q-49 -81 -49 -171q0 -114 67 -145q20 -9 43 -9q77 0 117 86q2 4 6.5 4.5t8 -2.5t1.5 -7q-19 -47 -53 -75.5t-80 -28.5q-90 0 -122 91q-13 39 -13 88t21 110q39 115 125 162q43 23 91 23q92 0 141 -62.5t49 -165.5q0 -75 -25.5 -174t-51.5 -190t-26 -137t13.5 -65.5
t48.5 -19.5q57 0 110.5 60t97.5 158zM605 607q0 61 -22.5 61t-42.5 -46q-38 -85 -38 -208q0 -94 25 -146q67 172 77 312q1 14 1 27z" />
    <glyph glyph-name="W" unicode="W" horiz-adv-x="963" 
d="M851 578q0 -141 -61 -312q26 -56 67 -56q-5 -20 -33 -20t-53 27q-41 -99 -94.5 -159.5t-112.5 -60.5q-77 0 -109 96q-88 -115 -171 -115q-127 0 -127 134q0 99 67 264q24 60 45 135.5t21 139.5t-37 103t-102 39q-100 0 -163 -102q-49 -81 -49 -171q0 -114 67 -145
q20 -9 43 -9q77 0 117 86q2 4 6.5 4.5t8 -2.5t1.5 -7q-19 -47 -53 -75.5t-80 -28.5q-90 0 -122 91q-13 39 -13 88t21 110q39 115 125 162q43 23 91 23q92 0 141 -62.5t49 -165.5q0 -75 -30 -174t-60 -190t-30 -137t13.5 -65.5t48.5 -19.5q79 0 163 122q-8 53 -8 102
q0 160 54 274q39 80 83 80q39 0 39 -69t-32 -166t-83 -185q12 -137 76 -137q96 0 178 216q-46 77 -46 218q0 83 21 152q26 87 74.5 87t48.5 -119zM825 585q0 80 -27 80q-20 0 -31.5 -57.5t-11.5 -98.5q0 -132 20 -204q50 163 50 280zM496 220v-9q39 75 65 156
q28 88 28 132.5t-19 49.5q-26 0 -50 -110.5t-24 -218.5z" />
    <glyph glyph-name="X" unicode="X" horiz-adv-x="923" 
d="M448 650q0 143 -127 143q-94 0 -155 -92q-47 -72 -47 -149q0 -102 70 -126q17 -6 38 -6q77 0 117 85q5 9 11.5 4.5t4.5 -9.5q-19 -47 -53 -75.5t-80 -28.5q-93 0 -122 86q-12 32 -12 76t25 103q41 101 124 139q38 17 89.5 17t91.5 -23.5t56 -63.5q23 -56 23 -131
q0 -35 -6 -74q81 145 157.5 225.5t163.5 80.5q31 0 48.5 -19t17.5 -54.5t-24 -75.5t-57.5 -72.5t-93.5 -72.5q-94 -62 -230 -136q-3 -18 -12 -68q-29 -147 -29 -215q0 -35 17 -84q17 -55 91 -55q95 0 161 104q52 83 52 163.5t-43 87.5l-9 1q-58 0 -93 -58t-35 -111.5
t22 -64.5q-4 -15 -18 -15q-44 0 -44 79q0 57 33 112q46 81 122 81q96 0 96 -116q0 -63 -37 -136q-52 -103 -137 -138q-34 -14 -83 -14t-89 22.5t-55 60.5q-19 49 -19 102t8 97q-77 -139 -146.5 -215.5t-144.5 -76.5q-43 0 -68 23t-25 62.5t25 80.5t58.5 73t97 73.5t109 67
t125.5 68.5q1 4 3 13q37 173 37 245zM47.5 98.5q-21.5 -36.5 -21.5 -67t16 -46t47 -15.5t65.5 22.5t62.5 53.5t63 88q49 79 118 212l3 13q-225 -122 -301 -194q-31 -30 -52.5 -66.5zM803 804q-34 0 -69.5 -21t-64.5 -52t-64 -84q-49 -75 -122 -212v-4q84 45 138.5 78
t110.5 76q113 86 113 171q0 48 -42 48z" />
    <glyph glyph-name="Y" unicode="Y" horiz-adv-x="771" 
d="M349 24q70 0 163 125q33 191 48 239q31 105 86 105q36 0 36 -43q0 -24 -11 -60q-27 -92 -99 -202q-28 -230 -76 -348q-51 -125 -124 -184q-40 -33 -97 -54t-125 -21q-149 0 -209 103q-29 50 -29 95.5t11 81.5q26 90 99 127q35 17 75 17q106 0 145 -82q17 -36 17 -69
t-12 -63q-26 -69 -85 -69q-9 0 -16 5t-11 14q45 0 70 61q12 30 12 60.5t-14 62.5q-27 61 -109 61t-129 -79q-32 -53 -32 -111q0 -24 6 -49q21 -94 108 -127q39 -15 89.5 -15t95 15.5t78 40.5t61.5 64t47.5 79t36.5 93q25 82 48 201q-89 -99 -153 -99q-124 0 -124 134
q0 56 22.5 126t49 126.5t49 129t22.5 136.5t-37 103t-102 39q-100 0 -163 -102q-49 -81 -49 -171q0 -114 67 -145q20 -9 43 -9q77 0 117 86q2 4 6.5 4.5t8 -2.5t1.5 -7q-19 -47 -53 -75.5t-80 -28.5q-90 0 -122 91q-13 39 -13 88t21 110q39 115 125 162q43 23 91 23
q92 0 141 -62.5t49 -165.5q0 -75 -32.5 -168.5t-65 -179.5t-32.5 -142q0 -75 59 -75zM641 461q-25 0 -37 -49t-25 -160q72 127 75 186q0 22 -13 23z" />
    <glyph glyph-name="Z" unicode="Z" horiz-adv-x="875" 
d="M748 831q50 0 50 -45q0 -39 -42.5 -78.5t-102.5 -39.5q-23 0 -34 2q-25 -46 -75.5 -155t-76.5 -160q122 52 169 191q2 6 11 7.5t17 -2.5t6 -11q-25 -75 -81.5 -133t-136.5 -83q-98 -183 -193 -262q51 -36 79.5 -53.5t75.5 -35.5t89 -18q91 0 154 98q51 78 50 157
q-7 69 -52 75q-58 0 -96 -59.5t-38 -112t19 -62.5q-5 -15 -18 -15q-42 0 -42 66.5t36 124.5q50 81 131 81q87 0 87 -108q0 -65 -42 -143q-55 -104 -142 -139q-34 -14 -73 -14t-76.5 10t-74 32t-56.5 37.5t-57 46.5q-62 -37 -130 -37q-109 0 -139 55q-9 16 -9 35.5t20 40.5
q29 34 80 34t97 -20.5t104 -59.5q86 71 174 236q-33 -5 -80 -5t-96 17.5t-78 47t-46.5 67.5t-17.5 80t9 84t32.5 80t54 67.5t73 47t92 17.5t95 -18t91 -44.5t76.5 -36.5q70 113 133 113zM319 781q-91 0 -153 -86q-53 -73 -53 -158q0 -125 101 -177q55 -28 132 -28q42 0 78 9
q26 49 81.5 166t84.5 168q-42 10 -90.5 37.5t-93 48t-87.5 20.5zM-39 80q0 -21 29 -42t89.5 -21t113.5 31q-48 40 -86.5 60.5t-83 20.5t-58.5 -31q-4 -9 -4 -18zM746 802q-47 0 -103 -91q18 -3 37 -3q46 0 74 41q14 19 14 30q0 23 -22 23z" />
    <glyph glyph-name="bracketleft" unicode="[" horiz-adv-x="302" 
d="M73 -86q31 0 51 -6t24 -12l5 -7h-173q31 158 142 896h173q-3 -9 -25 -17t-53 -8h-47q-8 -51 -69 -420.5t-70 -425.5h42z" />
    <glyph glyph-name="backslash" unicode="\" horiz-adv-x="457" 
d="M92 657q0 39 19 39q20 0 26 -27t72 -349t77 -368t11 -65t-14 -19q-8 0 -12 18q-17 81 -90.5 383.5t-81 334.5t-7.5 53z" />
    <glyph glyph-name="bracketright" unicode="]" horiz-adv-x="328" 
d="M202 760q-31 0 -51 6t-25 12l-4 7h173q-31 -158 -142 -896h-173q3 9 25 17t53 8h47q8 51 69 420.5t70 425.5h-42z" />
    <glyph glyph-name="asciicircum" unicode="^" horiz-adv-x="413" 
d="M414 387h-31l-136 127l-213 -127h-32l214 153h45z" />
    <glyph glyph-name="underscore" unicode="_" horiz-adv-x="655" 
d="M492 -65l-504 -2q-11 0 -11 8q0 16 32 22q8 1 18 1l497 -9q10 0 10 -5q0 -14 -42 -15z" />
    <glyph glyph-name="grave" unicode="`" horiz-adv-x="396" 
d="M179 637q36 -33 68.5 -72.5t32.5 -49t-10.5 -9.5t-45.5 25t-72 61q-14 14 -14 24t6 20t15.5 10t19.5 -9z" />
    <glyph glyph-name="a" unicode="a" 
d="M28 -1q-79 0 -79 119q0 69 36 151q50 111 127 145q27 11 54.5 11t43.5 -16t16 -36q0 -9 -9.5 -8.5t-9.5 9.5t-9.5 16.5t-27.5 7.5q-63 0 -114 -113q-48 -105 -48 -199q0 -58 25.5 -58t62 43.5t67.5 101.5q67 122 79 157t26 35q25 0 25 -42q0 -13 -3 -30
q-33 -160 -35.5 -185t-2.5 -36q0 -48 23 -48q26 0 73 69t81 138l34 69h27q-6 -12 -15.5 -32.5t-37.5 -73t-53.5 -92.5t-57 -72.5t-54.5 -32.5q-74 0 -74 108q0 36 8 84h-7q-102 -190 -171 -190z" />
    <glyph glyph-name="b" unicode="b" horiz-adv-x="371" 
d="M214 443q45 0 45 -94q0 -10 -1 -21q12 -4 35 -4t41 19t18 35q0 4 5 5.5t9.5 -0.5t4.5 -6q0 -29 -24.5 -55t-65.5 -26q-11 0 -25 2q-8 -68 -32 -134.5t-63.5 -115t-81.5 -48.5q-99 0 -99 137q0 85 36.5 244.5t97.5 296.5t116 137q42 0 42 -52q0 -18 -5 -42
q-19 -95 -88 -196q-52 -76 -95 -94q-51 -223 -51 -313.5t48 -90.5q52 0 94.5 89t57.5 190q-32 16 -45 50q-8 20 -8 34.5t4 25.5q8 27 30 27zM250 761q0 30 -18 31q-31 0 -69 -95t-72 -236q55 36 107 144t52 156z" />
    <glyph glyph-name="c" unicode="c" horiz-adv-x="339" 
d="M24 142q0 -117 81 -117q32 0 67.5 28.5t64.5 68.5q64 92 90 150l13 28h27q-17 -40 -50 -98.5t-63 -98.5t-71 -72.5t-78 -32.5q-104 0 -132 95q-9 30 -9 75.5t28 111.5q41 98 112 132q28 13 55.5 13t43.5 -15q19 -18 19 -41.5t-5 -43.5t-20.5 -35.5t-34.5 -15.5
q-8 0 -12 11q8 0 21.5 28.5t13.5 56.5t-24 28q-52 0 -94.5 -87t-42.5 -169z" />
    <glyph glyph-name="d" unicode="d" horiz-adv-x="469" 
d="M311.5 386.5q-16.5 -69.5 -36 -161t-19.5 -146.5t25 -55q27 0 74.5 69t81.5 138l33 69h27q-6 -12 -15.5 -32.5t-37.5 -73t-53.5 -92.5t-57.5 -72.5t-55 -32.5q-72 0 -72 106q0 39 11 102h-8q-111 -206 -180 -206q-79 0 -79 119q0 69 36 151q50 111 127 145q27 11 54.5 11
t43.5 -16t16 -36q0 -9 -9.5 -8.5t-9.5 9.5t-9.5 16.5t-27.5 7.5q-63 0 -114 -113q-48 -105 -48 -199q0 -58 25 -58q34 0 85 74t89.5 159t55 155.5t50.5 192.5q22 79 58 79q8 0 12 -5.5t3 -11t-30 -110.5t-45.5 -174.5z" />
    <glyph glyph-name="e" unicode="e" horiz-adv-x="345" 
d="M25 146q0 -121 86 -121q32 0 67.5 28.5t64.5 68.5q64 92 90 150l13 28h27q-17 -40 -50 -98.5t-63 -98.5t-71 -72.5t-78 -32.5q-148 0 -148 166q0 77 45 154q62 107 153 107q64 0 64 -70q0 -52 -40 -108q-56 -76 -131 -77q-11 0 -14 10l-1 4q52 0 99.5 68.5t47.5 114.5
q0 31 -24 31q-53 0 -99 -93q-38 -79 -38 -159z" />
    <glyph glyph-name="f" unicode="f" horiz-adv-x="282" 
d="M168 270q0 -89 28 -89q-1 -12 -17 -12q-25 0 -37.5 30.5t-12.5 76.5q-40 -17 -83 -20q-54 -337 -92 -461q-58 -195 -139 -195q-54 0 -54 56q0 25 11 62q31 104 115 217q39 52 68 75q6 38 19 120.5t20 125.5h-27q-5 0 -5 9.5t5 9.5h30q49 313 104 431q21 47 50 78t63 31
q63 0 63 -92q0 -75 -46 -162q-56 -105 -134 -129l-23 -5q-9 -49 -25 -151q42 3 81 22q5 53 24.5 90.5t49.5 37.5q24 0 24 -28q0 -53 -59 -98q-1 -15 -1 -30zM205 575q45 87 45 152t-32 65q-45 0 -77 -87.5t-62 -251.5q72 16 126 122zM-50 -19q-57 -59 -109 -169t-52 -147.5
t22 -37.5q46 0 78 92t61 262zM172 327q18 17 27.5 36t9.5 30.5t-6 13.5q-22 0 -31 -80z" />
    <glyph glyph-name="g" unicode="g" horiz-adv-x="388" 
d="M268 365q25 0 25 -42q0 -30 -33 -173.5t-59 -237.5t-49 -139.5t-55.5 -91.5t-71.5 -63t-90 -17q-95 0 -95 97q0 57 43 123q62 97 166 128q37 11 77 11q7 0 7 -14t-7 -14q-118 0 -198 -93q-59 -70 -59 -135t50 -75l16 -1q82 0 130 68q49 69 77 174q28 106 72 332h-8
q-108 -203 -178 -203q-79 0 -79 119q0 69 36 151q50 111 127 145q27 11 54.5 11t43.5 -16t16 -36q0 -9 -9.5 -8.5t-9.5 9.5t-9.5 16.5t-27.5 7.5q-63 0 -114 -113q-48 -105 -48 -199q0 -58 25 -58q33 0 86 78q80 118 125 231q12 28 24 28z" />
    <glyph glyph-name="h" unicode="h" horiz-adv-x="410" 
d="M201 815q45 0 45 -60q0 -15 -3 -35q-15 -95 -79 -196q-46 -73 -87 -92q-20 -108 -35 -196h7q84 187 170 187q31 0 48.5 -19t17.5 -52t-26 -144.5t-26 -155.5q0 -65 24 -65q0 -7 -9 -14t-21 -7q-58 0 -58 91q0 56 29.5 166.5t29.5 142.5t-25 32q-29 0 -64 -49t-65 -125
q-50 -122 -75 -204q-6 -20 -17 -20q-18 0 -27 22q-5 12 -5 25.5t8 50t26.5 128.5t31.5 152.5t30 136t32.5 123t35.5 91.5q38 86 87 86zM223 753q0 32 -18 39q-59 0 -122 -330q40 28 83 112q57 113 57 179z" />
    <glyph glyph-name="i" unicode="i" horiz-adv-x="230" 
d="M107 599q23 0 23 -31t-30 -50q-15 -10 -26 -10q-16 0 -19 10l-1 3q9 0 13 19.5t12.5 39t27.5 19.5zM43 24q26 0 73 69t81 138l34 69h27q-6 -12 -15.5 -32.5t-37.5 -73t-53.5 -92.5t-57 -72.5t-54.5 -32.5q-74 0 -74 96q0 72 41 234q4 17 6.5 26t5.5 23.5t6 26.5
q5 21 18 21q18 0 26 -26q4 -12 4 -29t-4 -35.5t-13 -54.5t-14 -59t-11 -56q-11 -55 -11 -97.5t23 -42.5z" />
    <glyph glyph-name="j" unicode="j" horiz-adv-x="174" 
d="M38 424q18 0 26 -26q4 -12 4 -29t-10 -57.5t-29.5 -127.5t-33.5 -148t-33 -134.5t-37 -122.5t-40 -93q-44 -86 -104 -86q-52 0 -52 52q0 25 13 64q34 102 122 215q47 62 81 83q17 77 75 389q3 21 18 21zM-243 -344q0 -29 21 -29q80 0 161 360q-56 -49 -119 -166t-63 -165
zM87 599q23 0 23 -31t-30 -50q-15 -10 -26 -10q-16 0 -19 10l-1 3q9 0 13 19.5t12.5 39t27.5 19.5z" />
    <glyph glyph-name="k" unicode="k" horiz-adv-x="381" 
d="M196 260q39 57 39 98t-27 41q-32 0 -70 -53.5t-68 -127.5q-58 -143 -71 -198q-6 -20 -17 -20q-18 0 -27 22q-5 12 -5 25.5t8 50t26.5 128.5t31.5 152.5t30 136t32.5 123t35.5 91.5q38 86 87 86q45 0 45 -60q0 -15 -3 -35q-15 -95 -79 -196q-46 -73 -87 -92
q-7 -37 -19 -106t-17 -96h5q85 193 173 193q66 0 66 -73q0 -48 -40.5 -104t-108.5 -72q34 -13 57.5 -45.5t32.5 -62.5q23 -79 46 -79q0 -7 -9 -14t-21 -7q-34 0 -53.5 32t-25.5 70t-22 70t-44 32h-2q-9 0 -13 14q62 0 114 76zM223 753q0 32 -18 39q-59 0 -122 -330
q40 28 83 112q57 113 57 179z" />
    <glyph glyph-name="l" unicode="l" horiz-adv-x="237" 
d="M219 627q36 94 36 128t-17 36q-47 0 -97.5 -150.5t-79 -312t-28.5 -228.5q0 -113 56 -113q0 -7 -9 -14t-21 -7q-82 0 -82 147q0 54 20 165.5t52 233.5t83 212.5t104 90.5q42 0 42 -53q0 -40 -25 -112q-48 -140 -138 -280q-24 -37 -43 -60q-5 -6 -5 4q-1 19 9 33
q82 123 143 280z" />
    <glyph glyph-name="m" unicode="m" horiz-adv-x="617" 
d="M-15 0q-28 0 -28 43q0 23 56 335q3 21 18 21q18 0 27 -26q5 -14 5 -30.5t-4 -35.5l-15 -76h6q88 198 170 198q28 0 44.5 -20t16.5 -48q0 -52 -16 -130h4q85 185 167 185q27 0 44 -20t17 -53t-25.5 -140t-25.5 -151q0 -65 24 -65q0 -7 -9 -14t-21 -7q-58 0 -58 91
q0 57 29 164.5t29 138t-20 30.5q-37 0 -86.5 -89.5t-79 -171.5t-34.5 -105.5t-18 -23.5q-28 0 -28 43q0 16 17 113q33 178 33 212.5t-20 34.5q-27 0 -63 -55.5t-65 -128.5q-63 -154 -74 -199q-4 -20 -17 -20z" />
    <glyph glyph-name="n" unicode="n" horiz-adv-x="407" 
d="M-15 0q-28 0 -28 43q0 23 56 335q3 21 18 21q18 0 27 -26q5 -14 5 -30.5t-4 -35.5l-16 -80h6q90 202 172 202q32 0 49 -19.5t17 -53.5t-27 -147t-27 -157q0 -65 24 -65q0 -7 -9 -14t-21 -7q-58 0 -58 91q0 56 30.5 169.5t30.5 145t-25 31.5q-36 0 -86.5 -94t-81 -179.5
t-35 -107.5t-17.5 -22z" />
    <glyph glyph-name="o" unicode="o" horiz-adv-x="393" 
d="M23 132q0 -105 56 -105q38 0 71 47q63 88 77 232q-35 15 -49 49q-9 21 -9 35.5t4 25.5q9 27 33 27t36.5 -30.5t12.5 -77.5v-7q12 -4 35.5 -4t41.5 19t18 35q0 4 5 5.5t9.5 -0.5t4.5 -6q0 -29 -24.5 -55t-65.5 -26q-10 0 -26 2q-6 -68 -28.5 -134.5t-62.5 -115t-86 -48.5
q-87 0 -107 93q-5 27 -5 55q0 63 29 135q38 94 94 117q29 10 40 3t14 -16q-46 0 -82 -86t-36 -169z" />
    <glyph glyph-name="p" unicode="p" horiz-adv-x="405" 
d="M122 27q38 0 83 103q46 109 46 199q0 62 -32 63q-31 0 -70.5 -50t-71.5 -118q-69 -149 -86 -223q-53 -240 -73 -298q-35 -102 -80 -102q-35 0 -35 48q0 28 12 74q31 111 97 213l27 37q9 45 24 130q30 171 43.5 226.5t32 76t31.5 20.5q25 0 18 -20q-25 -82 -52 -194h7
q98 213 177 213q64 0 80 -82q5 -26 5 -53q0 -66 -30 -143q-42 -110 -112 -139q-21 -9 -42 -9q-49 0 -57 54q-1 9 4 14t12 3t8 -10q5 -33 34 -33zM-165 -372q39 0 96 302q-59 -92 -95 -204q-16 -50 -16 -74t15 -24z" />
    <glyph glyph-name="q" unicode="q" horiz-adv-x="388" 
d="M-60 -35q134 0 219 133q70 108 70 230q0 79 -38 98q-9 5 -19 5q9 27 32 27q58 0 74 -75q6 -27 6 -57q0 -68 -31 -149q-54 -138 -158 -197q-44 -26 -94 -32q3 -1 23.5 -13t30.5 -16t31 -11q36 -14 92.5 -14t75.5 42q11 23 1 30q-2 1 -4 1q2 13 15 13q17 0 17 -24
q0 -52 -47 -88q-32 -25 -80 -25t-92 25t-80 50t-67 25q4 22 23 22zM166 406q-56 0 -98.5 -89t-42.5 -177t52 -88q-2 -16 -23 -16q-68 0 -83 80q-3 22 -3 44q0 63 31 135q41 96 104 119q16 5 28 5q22 0 35 -13z" />
    <glyph glyph-name="r" unicode="r" horiz-adv-x="322" 
d="M-14 0q-28 0 -28 43q0 23 56 335q4 21 18 21q18 0 27 -26q5 -14 5 -30.5t-4 -35.5l-16 -82h5q86 200 158 200q40 0 53 -39q5 -15 5 -34.5t-11 -42.5q-19 -39 -57 -39q-8 0 -12.5 4t-5.5 11q8 0 21 29.5t15 54.5t-17 29q-35 0 -83 -91t-77 -174t-34 -108t-18 -25z" />
    <glyph glyph-name="s" unicode="s" horiz-adv-x="317" 
d="M123 534h2q9 -1 14 -8t5 -14.5t-13.5 -31.5t-13.5 -38.5t4 -27t25 -60.5q46 -105 46 -187.5t-44.5 -136.5t-106 -54t-61.5 74.5t53 159.5q31 49 67 74q10 7 13.5 -3t-4.5 -16q-58 -42 -90 -133q-29 -82 -6 -114q8 -12 23 -12q44 0 69 59t25 147q0 76 -18 141t-20 75
q-30 -57 -65 -128h-27q57 113 88 170q4 64 35 64z" />
    <glyph glyph-name="t" unicode="t" horiz-adv-x="247" 
d="M-28 437q0 11 14 11h52q5 20 13 50l14 52q6 23 10.5 42t17.5 19q17 0 24 -26q3 -11 3 -27t-6 -41l-19 -69h62q9 0 12.5 -6t0 -11.5t-12.5 -5.5h-68q-62 -233 -62 -330q0 -71 32 -71q26 0 73 69t81 138l34 69h27q-6 -12 -15.5 -32.5t-37.5 -73t-53.5 -92.5t-57 -72.5
t-58.5 -32.5t-46.5 17.5t-25 50t-5.5 66.5q0 79 56 294h-45q-8 0 -11 4.5t-3 7.5z" />
    <glyph glyph-name="u" unicode="u" horiz-adv-x="467" 
d="M279 24q26 0 73 69t81 138l34 69h27q-6 -12 -15.5 -32.5t-37.5 -73t-53.5 -92.5t-57 -72.5t-59.5 -32.5t-46 17q-22 22 -22 77t19 145h-7q-115 -236 -191 -236q-67 0 -67 87q0 63 54 251l18 64.5t19 21.5q18 0 26 -26q4 -11 4 -27.5t-5 -36t-21 -74.5q-43 -148 -43 -199
q0 -33 20 -33q25 0 59 45q36 47 59 91t37 72t28 58.5t22.5 50.5t16.5 38.5t8 19.5q9 21 20 21q18 0 26 -26q4 -12 4 -29t-4 -35.5t-13 -54.5t-14 -59t-12 -56q-10 -55 -10 -97.5t23 -42.5z" />
    <glyph glyph-name="v" unicode="v" horiz-adv-x="362" 
d="M205 443q43 0 43 -83q0 -15 -2 -31q17 -5 39 -5t40 19t18 35q0 4 5 5.5t9.5 -0.5t4.5 -6q0 -29 -24.5 -55t-65.5 -26q-16 0 -29 3q-26 -160 -104 -251q-41 -48 -80 -48q-72 0 -88 48q-9 26 -9 55t8 69q13 65 54 209q6 21 19 21q18 0 26 -26q4 -11 4 -27.5t-6 -39.5
q-38 -143 -43 -172.5t-5 -50.5q0 -59 37 -59q54 0 100.5 90t63.5 191q-30 16 -39.5 42.5t-9.5 41t4 25.5q8 26 30 26z" />
    <glyph glyph-name="w" unicode="w" horiz-adv-x="574" 
d="M277 27q37 0 71 47q61 86 82 232q-32 16 -42.5 43t-10.5 42q0 52 34 52q42 0 42 -93v-21q15 -5 37.5 -5t40.5 19t18 35q0 4 4.5 5.5t9.5 -0.5t5 -6q0 -29 -24.5 -55t-65.5 -26q-15 0 -27 3q-18 -158 -93 -251q-39 -48 -83 -48q-70 0 -94 74q-59 -74 -113 -74
q-76 0 -94 52q-10 28 -10 60t7 71q15 74 58 221q6 21 19 21q18 0 26 -25q4 -12 4 -28.5t-5 -34.5t-12 -44t-12 -44t-11.5 -44t-10 -45t-6 -41t-0.5 -37.5t7 -28.5q10 -26 42 -26q48 0 103 79q-4 24 -4 49q0 67 25 143q35 104 71 104q29 0 29 -45q0 -18 -5 -42
q-15 -85 -66 -176q9 -112 54 -112zM257 275q14 42 15.5 56.5t1.5 24.5t-8 12q-17 0 -30 -55.5t-14 -122.5q21 43 35 85z" />
    <glyph glyph-name="x" unicode="x" horiz-adv-x="392" 
d="M279 -13q-3 -21 -29.5 -21t-48 17.5t-39.5 52.5q-29 56 -56 149q-59 -73 -97 -124t-40 -53q-6 -8 -10 0.5t-4 16t5 14t24 33.5q48 66 111 149q-40 132 -60 154q-11 12 -24 12q8 24 38 24q43 0 90 -136q122 150 162 150q10 0 17 -6.5t10 -19.5q-42 0 -178 -160
q4 -13 12.5 -39t13 -40.5t12.5 -37.5t13.5 -36.5t13.5 -31.5t15 -28t15 -20q15 -19 34 -19z" />
    <glyph glyph-name="y" unicode="y" horiz-adv-x="404" 
d="M-56 -399q-95 0 -95 97q0 57 43 123q62 97 166 128q37 11 77 11q7 0 7 -14t-7 -14q-118 0 -198 -93q-59 -70 -59 -135t50 -75l16 -1q83 0 133 70q35 50 52.5 101.5t26 82.5t19.5 81.5t17.5 85.5t19 100.5t19.5 103.5h-6q-121 -253 -199 -253q-67 0 -67 87q0 63 54 251
l18 64.5t19 21.5q18 0 26 -26q4 -11 4 -27.5t-5 -36t-21 -74.5q-43 -148 -43 -199q0 -33 20 -33q24 0 59.5 45t69.5 110q62 118 101 220q8 21 20 21q17 0 25 -26q4 -14 4 -31t-16.5 -98t-33 -155t-43 -174t-50 -149t-57 -100t-74.5 -70.5t-92 -19.5z" />
    <glyph glyph-name="z" unicode="z" horiz-adv-x="409" 
d="M-8.5 24.5q-18.5 -24.5 -33.5 -24.5t-15 7q0 3 2 5q135 170 274 317q-30 -8 -60 -8q-87 0 -109 51q-5 13 -5 28.5t14.5 32t32.5 16.5t26.5 -6.5t11.5 -19.5q-15 0 -19 -17q-1 -5 -1 -9q0 -20 28 -31q18 -7 53.5 -7t69.5 13q55 53 71 53q8 0 8 -6t-15 -27t-57 -44
q-74 -82 -234 -272q4 1 16.5 1t53 -19t72.5 -19q58 0 78 47q6 15 6 28.5t-7 22.5t-17 9q2 13 15 13q37 0 37 -58q0 -42 -32 -83t-90 -41q-28 0 -50 11.5t-33 24.5q-32 36 -52.5 36t-39 -24.5z" />
    <glyph glyph-name="braceleft" unicode="{" horiz-adv-x="403" 
d="M60 358q-8 0 -8 13.5t7 13.5q38 0 59.5 44.5t33 107.5t27 126.5t54 108t101.5 44.5q14 0 19 -12l1 -5q-52 0 -83.5 -27.5t-41.5 -69t-18 -93t-13 -98.5t-25 -86.5t-55 -55.5q22 -21 22 -67t-9 -91q-28 -137 -28 -205q0 -36 18 -62.5t61 -26.5q-4 -17 -20 -17
q-54 0 -75 47q-16 38 -16 89q0 48 10.5 128.5t10.5 107t-1 39.5q-3 47 -31 47z" />
    <glyph glyph-name="bar" unicode="|" horiz-adv-x="404" 
d="M153 -141q-8 0 -10 20q6 478 16 740q1 82 37 82q16 0 16 -24q0 -10 -18 -352t-20 -402q-2 -64 -21 -64z" />
    <glyph glyph-name="braceright" unicode="}" horiz-adv-x="356" 
d="M205 346q-23 22 -23 68.5t9 90.5q29 141 29 191t-18 76.5t-61 26.5q4 17 20 17q54 0 75 -47q16 -39 16 -91q0 -51 -10 -129t-10 -104.5v-39.5q4 -47 32 -47q8 0 8 -13.5t-8 -13.5q-38 0 -59.5 -44.5t-33 -107.5t-27 -126.5t-54 -108t-100.5 -44.5q-14 0 -18 12l-2 5
q61 0 93 37.5t41 94.5t14 116q14 148 87 181z" />
    <glyph glyph-name="asciitilde" unicode="~" horiz-adv-x="496" 
d="M367 410q-37 0 -99 -20t-90 -20t-50 14t-32 28l-9 13h26q17 -23 50 -23t96 24.5t99 24.5t70.5 -19.5t51.5 -39.5l16 -19h-26q-41 37 -96 37h-7z" />
    <glyph glyph-name="exclamdown" unicode="&#xa1;" horiz-adv-x="459" 
d="M257 426q24 0 24 -31t-29 -50q-14 -10 -25 -10q-16 0 -20 13q14 0 17 39q2 15 10 27t23 12zM193 241q0 13 19.5 13t19.5 -13q0 -91 -104 -193q-44 -43 -87.5 -86.5t-74 -100.5t-30.5 -119q0 -91 87 -91q75 0 116 81q23 48 23 93q0 18 -4 36q-11 52 -50 52q0 14 22 14
q62 0 80 -61q6 -20 6 -40q0 -45 -27 -94q-59 -106 -181 -106q-68 0 -103 32.5t-35 83t18 92t46.5 74.5t63 65t68.5 63t62 62q65 70 65 143z" />
    <glyph glyph-name="cent" unicode="&#xa2;" horiz-adv-x="339" 
d="M171 534q2 0 4 -2q12 -5 12 -22.5t-1 -28.5l-8 -57q32 -6 44 -32q8 -15 8 -27t-4 -21q-8 -24 -27 -24q-8 0 -12 11q5 0 9 14.5t-1 31t-21 20.5l-59 -371q27 4 53 26t38 42l13 20h27q-35 -71 -89 -101q-23 -13 -46 -15q-14 -93 -15.5 -102.5t-4.5 -9.5q-14 0 -14 27
q0 8 1 17l9 69q-93 8 -117 99q-8 29 -8 60q0 60 29 127q43 97 118 129q19 8 40 10l15 99q2 11 7 11zM22 142q0 -108 69 -117q26 186 54 370q-51 -17 -87 -98t-36 -155z" />
    <glyph glyph-name="sterling" unicode="&#xa3;" horiz-adv-x="697" 
d="M193 275q-12 0 -11 7q2 14 37 17l13 1h61q30 157 53 212q48 117 148 117q83 0 113 -66q12 -26 12 -52t-13 -53q-25 -47 -76 -48q-19 0 -27 14l-3 5q26 0 45 18q31 28 31 78q0 39 -23.5 58.5t-50 19.5t-42 -5t-27.5 -16.5t-21 -22.5t-17 -33t-13 -37t-11 -44t-8 -45
q-11 -71 -17 -102q35 -1 140 -1q11 0 10 -6q-4 -14 -42 -14q-80 0 -112 -1q-32 -183 -101 -248q104 -57 162 -57q73 0 96 51q7 16 7 30t-7.5 23.5t-17.5 9.5q3 12 15 12q34 0 45 -38q4 -13 4 -25q0 -30 -23 -56q-32 -38 -95 -38q-38 0 -78.5 12t-65 24.5t-63.5 34.5
q-49 -35 -128.5 -35t-98.5 42q-4 10 -4 19q0 20 23.5 39t67 19t126.5 -46q49 55 83 226h-96zM17 35q0 -15 23 -25t67 -10t80 30q-71 40 -114 40t-54 -25q-2 -5 -2 -10z" />
    <glyph glyph-name="currency" unicode="&#xa4;" horiz-adv-x="576" 
d="M414 407q11 0 11 -10q0 -6 -5 -12l-60 -60q17 -28 17 -68q0 -75 -44 -141l66 -66q6 -6 4.5 -12.5t-7.5 -8t-13 4.5l-64 64q-47 -57 -104 -57t-83 37l-48 -48q-5 -5 -10 -5q-11 0 -11 10q0 5 5 11l53 53q-8 21 -8 51t19 70q32 67 90 81q6 1 9 -3t2 -9t-4 -6
q-33 -9 -52 -64q-13 -37 -13 -72q0 -86 51 -86t83 66t32 127q0 89 -52 89q-32 0 -52.5 -18t-34.5 -14q-5 1 -2 5l-68 68q-6 6 -4.5 13t8 8t13.5 -5l67 -68q36 31 76.5 31t63.5 -20l59 59q5 5 10 5z" />
    <glyph glyph-name="yen" unicode="&#xa5;" horiz-adv-x="626" 
d="M277 71q-12 0 -11 6q12 14 50 16h34q18 54 31 124q-68 -71 -118 -71q-88 0 -88 85q0 48 34 151t34 159q0 86 -79 86q-67 0 -107 -69q-27 -46 -27 -93q0 -21 5 -43q19 -68 92 -68q-2 -17 -27 -17q-70 0 -91 70q-7 25 -7 60.5t22 83.5q47 100 140 100q62 0 96 -38.5
t34 -96.5t-33 -162.5t-33 -143.5t34 -39q56 0 126 87q16 115 34.5 177t33.5 78.5t35 16.5q34 0 34 -39q0 -19 -8 -47q-19 -64 -68 -140q-16 -134 -41 -213l51 -1q11 0 10 -5q-2 -12 -42 -12q-12 -1 -25 -1l-18 -44l55 -1q11 0 10 -5q-2 -12 -42 -12q-15 -1 -33 -1
q-66 -124 -193 -124q-95 0 -122 63q-8 19 -8 40.5t17.5 47.5t49.5 26q19 0 23 -12l2 -5q-42 0 -57 -39q-6 -14 -6 -32.5t20.5 -41.5t65.5 -23q94 0 149 99h-58q-12 0 -11 6q12 14 50 16h30q10 23 17 41h-66zM498 478q0 20 -12 20t-18 -30.5t-10 -67.5t-4 -41q44 82 44 119z
" />
    <glyph glyph-name="brokenbar" unicode="&#xa6;" horiz-adv-x="413" 
d="M196 701q16 0 16 -28t-17 -331h-43q6 262 7 277q1 82 37 82zM153 -141q-8 0 -10 20q1 73 7 367h40q-3 -58 -7 -132q-7 -136 -9 -193q-2 -62 -21 -62z" />
    <glyph glyph-name="section" unicode="&#xa7;" horiz-adv-x="583" 
d="M45 91q0 -49 23 -76.5t85.5 -27.5t99.5 43t37 103q0 72 -68 134q-29 26 -58 53q-68 63 -68 141q0 54 35.5 92t98.5 45q-21 39 -21 82q0 60 42.5 99.5t116.5 39.5q52 0 83 -25.5t31 -64.5q0 -19 -30.5 -19t-30.5 19q0 66 -65 66q-40 0 -64.5 -26.5t-24.5 -64.5t20.5 -70
t49.5 -59t58 -55q70 -69 70 -148q0 -59 -33.5 -107.5t-84.5 -69.5q5 -22 5 -42q0 -80 -57.5 -135t-142 -55t-126 38t-41.5 94q0 16 15 23t30 -0.5t15 -26.5zM178.5 549.5q-24.5 -26.5 -24.5 -65t22.5 -73t51.5 -59.5q83 -72 109 -130q29 19 47.5 55t18.5 73.5t-17.5 70
t-39.5 53.5t-53 50.5t-48 51.5h-2q-40 0 -64.5 -26.5z" />
    <glyph glyph-name="dieresis" unicode="&#xa8;" horiz-adv-x="303" 
d="M106 599q23 0 23 -31t-30 -50q-15 -10 -26 -10q-16 0 -19 10l-1 3q9 0 13 19.5t12.5 39t27.5 19.5zM232 599q23 0 23 -31t-30 -50q-15 -10 -26 -10q-16 0 -19 10l-1 3q9 0 13 19.5t12.5 39t27.5 19.5z" />
    <glyph glyph-name="copyright" unicode="&#xa9;" horiz-adv-x="773" 
d="M285 192q0 -88 62 -88q19 0 38.5 13t28.5 26l10 13l19 -6q-5 -8 -13.5 -19t-33.5 -29.5t-49 -18.5q-107 0 -107 123q0 58 34 117q47 80 114 80q20 0 32.5 -11.5t14 -28.5t-2.5 -33.5t-16 -28t-21 -11.5q-12 0 -14 8q6 0 16 21.5t10 42.5t-18 21q-39 0 -71.5 -65
t-32.5 -126zM96 209q0 -88 58 -153q69 -77 177 -77t193 77q98 88 98 213q0 90 -60 155q-69 77 -177 77t-192.5 -76.5t-94.5 -184.5q-2 -16 -2 -31zM387 521q116 0 190 -83q64 -71 64 -169q0 -14 -1 -29q-13 -116 -104 -198.5t-207 -82.5t-190 83q-63 70 -63 164q0 17 2 34
q11 116 102 198.5t207 82.5z" />
    <glyph glyph-name="ordfeminine" unicode="&#xaa;" horiz-adv-x="583" 
d="M350 634q-22 -103 -22 -148t24 -45q19 0 44.5 49t40.5 98l16 49h21q-3 -9 -7.5 -23.5t-18.5 -51.5t-28 -65.5t-33.5 -51.5t-36.5 -23q-65 0 -65 95q0 16 2 35h-6q-69 -128 -118 -128q-64 0 -64 89q0 58 34 121q52 94 128 94q20 0 31.5 -11.5t11.5 -20.5t-6 -12
t-11.5 -2.5t-5.5 4.5q0 17 -20 17q-41 0 -74 -66q-36 -70 -36 -125t17 -63q40 0 123 172q12 26 20.5 45t21 19t17 -14t0.5 -37z" />
    <glyph glyph-name="guillemotleft" unicode="&#xab;" horiz-adv-x="537" 
d="M170 68q-132 153 -132 164q0 6 6 10l178 113v-25l-139 -107l87 -128v-27zM348 68q-132 153 -132 164q0 6 6 10l178 113v-25l-139 -107l87 -128v-27z" />
    <glyph glyph-name="logicalnot" unicode="&#xac;" horiz-adv-x="768" 
d="M574 319.5q7 -8.5 7 -15.5t-2 -13l-82 -189h-24l55 182l-458 9v21l474 14h12.5t17.5 -8.5z" />
    <glyph glyph-name="uni00AD" unicode="&#xad;" horiz-adv-x="609" 
d="M423 285l-317 -2q-11 0 -11 8q0 16 32 22q8 1 18 1l310 -9q10 0 10 -5q0 -14 -42 -15z" />
    <glyph glyph-name="registered" unicode="&#xae;" horiz-adv-x="546" 
d="M309.5 750q67.5 0 108 -45t40.5 -104q0 -7 -1 -14q-8 -68 -60.5 -115.5t-120 -47.5t-107 44t-39.5 98q0 80 56 132t123.5 52zM373 467q73 52 73 136q0 52 -37.5 93.5t-100 41.5t-111.5 -44q-56 -51 -56 -125q0 -51 37 -92t99 -41q44 0 86 24q-23 3 -32 21t-11 55.5
t-4 46.5q-11 -4 -26 -4h-2q-12 -98 -71 -98q-30 0 -39 21q-4 10 -4 20.5t7 23.5q13 21 35 21l10 -7q-31 0 -39 -29q-2 -7 -2 -18.5t10.5 -16.5t17.5 -5q25 0 37.5 24t19.5 67q-20 8 -17.5 25.5t24.5 18.5q11 57 35 57q7 0 7 -5v-1q-20 0 -25 -53q20 -4 32 -24q31 22 31 59
q0 13 -6 25q-11 20 -40 20q-60 0 -83 -51q-9 -19 -9 -34t8 -25.5t20 -10.5q-2 -8 -11 -8q-31 0 -31 40.5t29.5 69.5t75 29t61.5 -25q9 -14 9 -28t-6 -27q-13 -31 -43 -46q6 -16 10 -47.5t10.5 -51t21.5 -22.5zM293 616l-4 -28q12 0 25 5q-6 17 -21 23zM262 603q0 -8 10 -12
q2 18 4 27q-14 -2 -14 -15z" />
    <glyph glyph-name="degree" unicode="&#xb0;" horiz-adv-x="349" 
d="M98 557q23 23 57.5 23t57.5 -23t23 -57t-23 -57t-57.5 -23t-57.5 23.5t-23 57t23 56.5zM154 446q22 0 38.5 16t16.5 38.5t-16 38.5t-39 16t-38.5 -16t-15.5 -38.5t16 -38.5t38 -16z" />
    <glyph glyph-name="plusminus" unicode="&#xb1;" horiz-adv-x="702" 
d="M447 266l-128 -1l-11 -83q-3 -15 -10 -6t-7 39q2 21 5 50q-57 -1 -166 -1q-12 0 -11 9q2 16 32 21l18 1q33 0 129 -4q15 146 15.5 156.5t6.5 10.5q2 0 5 -2q15 -6 15 -36q0 -7 -1 -15l-16 -115q116 -4 156 -4q10 0 10 -5q0 -14 -42 -15zM423 109l-317 -2q-11 0 -11 8
q0 16 32 22q8 1 18 1l310 -9q10 0 10 -5q0 -14 -42 -15z" />
    <glyph glyph-name="twosuperior" unicode="&#xb2;" horiz-adv-x="535" 
d="M239 615q-57 0 -57 69q0 39 29 77q40 54 109 54q45 0 68.5 -22t23.5 -55t-14 -62.5t-41.5 -58t-50 -48.5t-59.5 -48.5t-50 -39.5h2q16 0 48 -17.5t61 -17.5q49 0 69 43q8 14 8 25t-6 15.5t-11 4.5q2 13 14 13q24 0 24 -45t-31.5 -76.5t-67 -31.5t-56.5 16t-35 32t-30 16
t-26 -13.5t-10 -23.5q0 -8 -14.5 -8t-14.5 8q0 14 25.5 38.5t61 54.5t71 64t60.5 76.5t25 77t-12 48.5t-42 14q-51 0 -76 -58q-12 -29 -12 -50t8 -39.5t28 -18.5q-4 -13 -19 -13z" />
    <glyph glyph-name="threesuperior" unicode="&#xb3;" horiz-adv-x="498" 
d="M358 653q39 -32 39 -95q0 -84 -71 -134q-44 -31 -109 -31t-90 46q-11 22 -11 45t14 47q27 46 81 46q11 0 16.5 -5.5t5.5 -11.5v-5q-8 4 -24 4t-32 -15q-25 -22 -25 -62q0 -8 2 -23t20.5 -30t54 -15t66.5 26q56 46 56 127q0 41 -18 67q-31 -20 -73 -20t-42 26q0 20 28 31
q16 6 36.5 6t43.5 -7q24 34 24 62q0 66 -55 66q-43 0 -58 -40q-5 -14 -5 -26t7 -18.5t14 -6.5q-4 -13 -20 -13q-34 0 -34 43q0 30 28 56t78 26t71.5 -26t21.5 -55q0 -47 -40 -85zM237 641q0 -9 25.5 -9t49.5 21q-14 8 -30 8q-36 0 -44 -15q-1 -3 -1 -5z" />
    <glyph glyph-name="acute" unicode="&#xb4;" horiz-adv-x="388" 
d="M271 617q-30 -37 -67.5 -72t-48 -35t-10.5 11t23.5 47.5t56.5 73.5q12 15 23 15t21 -4.5t10 -14t-8 -21.5z" />
    <glyph glyph-name="mu" unicode="&#xb5;" horiz-adv-x="467" 
d="M279 24q26 0 73 69t81 138l34 69h27q-6 -12 -15.5 -32.5t-37.5 -73t-53.5 -92.5t-57 -72.5t-55 -32.5t-39.5 9q-34 19 -34 88q0 49 26 170q-124 -264 -204 -264q-38 0 -53 24q-30 -144 -30 -236t32 -92q-10 -20 -29 -20q-57 0 -57 107t58 322q17 64 37.5 135t46.5 163
q6 21 19 21q18 0 26 -26q4 -11 4 -27.5t-5 -36t-21 -74.5q-43 -148 -43 -199q0 -33 20 -33q35 0 93 93.5t98 187.5l41 94q5 21 18 21q18 0 26 -26q4 -12 4 -29t-4 -35.5t-13 -54.5t-14 -59t-12 -56q-10 -55 -10 -97.5t23 -42.5z" />
    <glyph glyph-name="mu" unicode="&#x3bc;" horiz-adv-x="467" 
d="M279 24q26 0 73 69t81 138l34 69h27q-6 -12 -15.5 -32.5t-37.5 -73t-53.5 -92.5t-57 -72.5t-55 -32.5t-39.5 9q-34 19 -34 88q0 49 26 170q-124 -264 -204 -264q-38 0 -53 24q-30 -144 -30 -236t32 -92q-10 -20 -29 -20q-57 0 -57 107t58 322q17 64 37.5 135t46.5 163
q6 21 19 21q18 0 26 -26q4 -11 4 -27.5t-5 -36t-21 -74.5q-43 -148 -43 -199q0 -33 20 -33q35 0 93 93.5t98 187.5l41 94q5 21 18 21q18 0 26 -26q4 -12 4 -29t-4 -35.5t-13 -54.5t-14 -59t-12 -56q-10 -55 -10 -97.5t23 -42.5z" />
    <glyph glyph-name="paragraph" unicode="&#xb6;" horiz-adv-x="756" 
d="M207 -113q-142 0 -191 86q-20 35 -20 67t12 61q29 70 96 70q20 0 28 -14l2 -5q-47 0 -73 -52q-15 -30 -15 -58t11 -54q35 -75 150 -75q84 0 142.5 44.5t87 113t49.5 158.5t31 173q25 208 76 293q-72 29 -119 29q-102 0 -170 -102q-56 -84 -56 -180q0 -102 64 -131
q20 -10 46 -10q-2 -16 -23 -16q-104 0 -148 88q-22 45 -22 91t14 91q35 109 133 161q62 32 134.5 32t159.5 -34l3 3q37 183 112 183q14 0 19 -12l1 -5q-71 0 -104 -140q32 20 67 20q49 0 59 -33q3 -7 3 -13q0 -21 -21.5 -36t-49 -15t-70.5 16q-11 -68 -19.5 -180.5
t-15.5 -200.5t-20 -175q-29 -182 -114 -182q-11 0 -15 7t-2 20q64 0 93 158q21 116 37 279.5t26 228.5q-31 -88 -58 -297q-10 -77 -33.5 -162.5t-56 -147.5t-94 -102.5t-146.5 -40.5zM705 741q-46 0 -75 -37q38 -15 70.5 -15t38.5 23q1 4 1 7q0 13 -17 19q-8 3 -18 3z" />
    <glyph glyph-name="periodcentered" unicode="&#xb7;" horiz-adv-x="369" 
d="M177 302q23 0 23 -31t-30 -50q-15 -10 -26 -10q-16 0 -20 13q9 0 13 19.5t12.5 39t27.5 19.5z" />
    <glyph glyph-name="cedilla" unicode="&#xb8;" horiz-adv-x="339" 
d="M16 -64q0 21 49 90h21l-44 -78q24 13 56 13q49 0 58 -37q1 -7 1 -14q0 -29 -33 -57.5t-90 -28.5t-57 37q0 15 13 21q4 2 9 2q11 0 13 -9v-3q-13 0 -15 -12q-2 -17 20 -22l13 -1q58 0 83 43q10 16 10 29t-9.5 23.5t-32 10.5t-54.5 -16h-2q-9 0 -9 9z" />
    <glyph glyph-name="onesuperior" unicode="&#xb9;" horiz-adv-x="430" 
d="M278 388q-39 0 -39 82q0 96 51 225q-54 -30 -86 -65t-32 -85q0 -12 5 -15t6 -3q0 -12 -12.5 -12t-22 11.5t-9.5 35.5t14 49.5t42 46.5q39 31 108 65q43 93 82 93q25 0 25 -25q0 -20 -19.5 -36.5t-59.5 -37.5q-31 -89 -43 -199q-3 -36 -3 -60q0 -51 16 -53q-3 -17 -23 -17
zM385 797q-21 0 -44 -55q52 28 52 46q0 9 -8 9z" />
    <glyph glyph-name="ordmasculine" unicode="&#xba;" horiz-adv-x="420" 
d="M236 693q-33 0 -58 -60.5t-25 -124t34 -63.5q26 0 48 33q44 64 55 162q-23 12 -30.5 30.5t-7.5 29t3 18.5q6 19 23 19t26 -21.5t9 -39v-21.5q9 -3 25.5 -3t29 13.5t12.5 21t3.5 8.5t7 -0.5t3.5 -4.5q0 -21 -17.5 -39.5t-38.5 -18.5t-27 1q-7 -77 -42 -144t-84 -67
q-80 0 -80 108q0 54 26 108q35 72 81 72q18 0 23 -12z" />
    <glyph glyph-name="guillemotright" unicode="&#xbb;" horiz-adv-x="557" 
d="M306 355q132 -153 132 -164q0 -6 -6 -10l-178 -113v25l139 107l-87 128v27zM128 355q132 -153 132 -164q0 -6 -6 -10l-178 -113v25l139 107l-87 128v27z" />
    <glyph glyph-name="onequarter" unicode="&#xbc;" horiz-adv-x="954" 
d="M749 322q14 0 14 -10v-3q-20 0 -42 -65t-33 -141h3q36 0 46 25q8 18 -6 22q-2 1 -4 1q2 14 19 14t17 -28t-29 -44q-17 -9 -42 -9h-6q-3 -28 -3 -47q0 -46 15 -46q-2 -17 -23 -17q-36 0 -36 68q0 21 3 47q-6 1 -100 27q-31 -36 -66.5 -36t-35.5 27q0 18 25 28q14 6 30.5 6
t30.5 -3q20 38 31 93.5t11 105t-17 49.5q4 17 24 17q39 0 39 -76q0 -38 -15 -94t-46 -101q81 -23 92 -25q13 78 44.5 146.5t59.5 68.5zM230 -102q-10 0 -10 15t19 55t85.5 184.5t140.5 307t85 186.5q12 21 27 21q18 0 18 -25q0 -27 -21 -67q-3 -7 -148 -295.5t-181 -366.5
q-7 -15 -15 -15zM261 194q-39 0 -39 82q0 96 51 225q-54 -30 -86 -65t-32 -85q0 -12 5 -15t6 -3q0 -12 -12.5 -12t-22 11.5t-9.5 35.5t14 49.5t42 46.5q39 31 108 65q43 93 82 93q25 0 25 -25q0 -20 -19.5 -36.5t-59.5 -37.5q-31 -89 -42 -199q-4 -36 -4 -60q0 -51 16 -53
q-3 -17 -23 -17zM368 603q-21 0 -44 -55q52 28 52 46q0 9 -8 9zM497 125q-30 0 -35 -14q0 -11 16 -13q21 0 38 25q-14 2 -19 2z" />
    <glyph glyph-name="onehalf" unicode="&#xbd;" horiz-adv-x="947" 
d="M574 192q-57 0 -57 69q0 39 29 77q41 53 109 54q45 0 68.5 -22t23.5 -55t-14 -62.5t-41.5 -58t-50 -48.5t-59.5 -48.5t-50 -39.5h2q16 0 48 -17.5t61 -17.5q49 0 69 43q8 14 8 25t-6 15.5t-11 4.5q2 13 14 13q24 0 24 -45t-31.5 -76.5t-67 -31.5t-56.5 16t-35 32t-28 16
t-23.5 -9.5t-14.5 -27.5q0 -8 -14.5 -8t-14.5 8q0 25 122 124q45 37 83 90.5t38 102.5q0 28 -12 42t-42 14q-51 0 -76 -58q-12 -29 -12 -50t8 -39.5t28 -18.5q-4 -13 -19 -13zM230 -102q-10 0 -10 15t19 55t85.5 184.5t140.5 307t85 186.5q12 21 27 21q18 0 18 -25
q0 -27 -21 -67q-3 -7 -148 -295.5t-181 -366.5q-7 -15 -15 -15zM261 194q-39 0 -39 82q0 96 51 225q-54 -30 -86 -65t-32 -85q0 -12 5 -15t6 -3q0 -12 -12.5 -12t-22 11.5t-9.5 35.5t14 49.5t42 46.5q39 31 108 65q43 93 82 93q25 0 25 -25q0 -20 -19.5 -36.5t-59.5 -37.5
q-31 -89 -42 -199q-4 -36 -4 -60q0 -51 16 -53q-3 -17 -23 -17zM368 603q-21 0 -44 -55q52 28 52 46q0 9 -8 9z" />
    <glyph glyph-name="threequarters" unicode="&#xbe;" horiz-adv-x="957" 
d="M298 454q39 -32 39 -95q0 -84 -71 -134q-44 -31 -109 -31t-90 46q-11 22 -11 45t14 47q27 46 81 46q11 0 16.5 -5.5t5.5 -10.5v-6q-8 4 -24 4t-32 -15q-25 -22 -25 -62q0 -8 2 -23t20.5 -30t54 -15t66.5 25q56 47 56 128q0 41 -18 67q-31 -20 -73 -20t-42 26q0 20 28 31
q16 6 36.5 6t43.5 -7q24 34 24 62q0 66 -55 66q-43 0 -58 -40q-5 -14 -5 -26t7 -18.5t14 -6.5q-4 -13 -20 -13q-34 0 -34 43q0 30 28 56t78 26t71.5 -26t21.5 -55q0 -47 -40 -85zM748 322q14 0 14 -10v-3q-20 0 -42 -65t-33 -141h3q36 0 46 25q8 18 -6 22q-2 1 -4 1
q2 14 19 14t17 -28t-29 -44q-17 -9 -42 -9h-6q-3 -28 -3 -47q0 -46 15 -46q-2 -17 -23 -17q-36 0 -36 68q0 21 3 47q-6 1 -100 27q-31 -36 -66.5 -36t-35.5 27q0 18 25 28q14 6 30.5 6t30.5 -3q20 38 31 93.5t11 105t-17 49.5q4 17 24 17q39 0 39 -76q0 -38 -15 -94
t-46 -101q81 -23 92 -25q13 78 44.5 146.5t59.5 68.5zM229 -102q-10 0 -10 15t19 55t85.5 184.5t140.5 307t85 186.5q12 21 27 21q18 0 18 -25q0 -27 -21 -67q-3 -7 -148 -295.5t-181 -366.5q-7 -15 -15 -15zM177 442q0 -9 25.5 -9t49.5 21q-14 8 -30 8q-36 0 -44 -15
q-1 -3 -1 -5zM496 125q-30 0 -35 -14q0 -11 16 -13q21 0 38 25q-14 2 -19 2z" />
    <glyph glyph-name="questiondown" unicode="&#xbf;" horiz-adv-x="469" 
d="M190 72q24 0 24 -31t-29 -50q-14 -10 -25 -10q-16 0 -20 13q14 0 18 39q1 15 9 27t23 12zM216 161q0 -13 -19.5 -13t-19.5 13q0 91 105 193l86.5 86.5t74 100.5t30.5 119q0 91 -87 91q-75 0 -116 -81q-23 -48 -23 -93q0 -18 4 -36q11 -52 50 -52q0 -14 -22 -14
q-62 0 -80 61q-6 20 -6 40q0 45 27 94q59 106 181 106q68 0 103 -32.5t35 -83t-18 -92t-46.5 -74.5t-62.5 -65t-68.5 -63t-63.5 -62q-64 -70 -64 -143z" />
    <glyph glyph-name="Agrave" unicode="&#xc0;" horiz-adv-x="1005" 
d="M919 1007q36 -33 68.5 -72.5t32.5 -49t-10.5 -9.5t-45.5 25t-72 61q-14 14 -14 24t6 20t15.5 10t19.5 -9zM1013 818q8 0 12 -5t5 -14q-104 0 -182 -103q52 -19 101 -30q54 70 99 70q10 0 17 -5.5t10 -16.5q-39 0 -81 -55q7 -1 21 -1q99 0 139 59q17 23 17 39q0 45 -40 45
q9 14 29 14q39 0 51 -39q3 -12 3 -23q0 -33 -28 -65q-49 -54 -151 -54q-30 0 -54 4q-67 -107 -108 -304q-29 -137 -29 -230q0 -40 5 -72q57 44 109 111t75 112l23 45h27q-8 -21 -34.5 -66.5t-51 -80t-63.5 -76.5t-79 -71q13 -38 37 -38q-10 -20 -29 -20q-32 0 -53 30
q-72 -37 -140 -37q-99 0 -171 52q-105 -120 -253 -120t-215 105q-37 59 -37 127q0 28 6 57q21 97 95 138q39 22 87 22q103 0 139 -80q15 -33 15 -67.5t-14 -69.5q-34 -84 -111 -84q-12 0 -20 5.5t-12 16.5q27 0 51 14q40 24 63 87q6 21 6 34.5t-2 31t-13 40.5t-38 37t-64 14
q-95 0 -140 -84q-26 -48 -26 -91t9 -77q26 -95 109 -131q39 -17 86 -17q135 0 244 122q-48 51 -66 123q-11 42 -11 75q0 104 60 165q44 44 107.5 44t114.5 -31q89 207 144 287q-7 2 -51.5 19t-56.5 21l-48 16q-84 28 -148 28q-130 0 -192 -98q-36 -55 -36 -114q0 -17 4 -35
q11 -65 58 -78q9 -3 19 -3q-6 -22 -33 -22q-61 0 -86 65q-12 31 -12 69t20 85q42 101 148 138q50 17 93.5 17t72 -4.5t68.5 -17t58.5 -18.5t72 -26.5t61.5 -23.5q86 114 188 114zM798 -1q-17 40 -17 97.5t-24 133t-70 123.5q-91 -240 -170 -340q62 -49 152 -49q64 0 129 35z
M659 377q-38 27 -88.5 27t-89.5 -38q-56 -57 -56 -149q0 -102 57 -171q64 82 123 209q21 47 54 122zM789 218q16 118 56 235.5t91 193.5q-42 10 -101 31q-47 -70 -94 -185q-14 -36 -44 -115q62 -55 92 -160z" />
    <glyph glyph-name="Aacute" unicode="&#xc1;" horiz-adv-x="1005" 
d="M1147 987q-30 -37 -67.5 -72t-48 -35t-10.5 11t23.5 47.5t56.5 73.5q12 15 23 15t21 -4.5t10 -14t-8 -21.5zM1013 818q8 0 12 -5t5 -14q-104 0 -182 -103q52 -19 101 -30q54 70 99 70q10 0 17 -5.5t10 -16.5q-39 0 -81 -55q7 -1 21 -1q99 0 139 59q17 23 17 39
q0 45 -40 45q9 14 29 14q39 0 51 -39q3 -12 3 -23q0 -33 -28 -65q-49 -54 -151 -54q-30 0 -54 4q-67 -107 -108 -304q-29 -137 -29 -230q0 -40 5 -72q57 44 109 111t75 112l23 45h27q-8 -21 -34.5 -66.5t-51 -80t-63.5 -76.5t-79 -71q13 -38 37 -38q-10 -20 -29 -20
q-32 0 -53 30q-72 -37 -140 -37q-99 0 -171 52q-105 -120 -253 -120t-215 105q-37 59 -37 127q0 28 6 57q21 97 95 138q39 22 87 22q103 0 139 -80q15 -33 15 -67.5t-14 -69.5q-34 -84 -111 -84q-12 0 -20 5.5t-12 16.5q27 0 51 14q40 24 63 87q6 21 6 34.5t-2 31t-13 40.5
t-38 37t-64 14q-95 0 -140 -84q-26 -48 -26 -91t9 -77q26 -95 109 -131q39 -17 86 -17q135 0 244 122q-48 51 -66 123q-11 42 -11 75q0 104 60 165q44 44 107.5 44t114.5 -31q89 207 144 287q-7 2 -51.5 19t-56.5 21l-48 16q-84 28 -148 28q-130 0 -192 -98
q-36 -55 -36 -114q0 -17 4 -35q11 -65 58 -78q9 -3 19 -3q-6 -22 -33 -22q-61 0 -86 65q-12 31 -12 69t20 85q42 101 148 138q50 17 93.5 17t72 -4.5t68.5 -17t58.5 -18.5t72 -26.5t61.5 -23.5q86 114 188 114zM798 -1q-17 40 -17 97.5t-24 133t-70 123.5
q-91 -240 -170 -340q62 -49 152 -49q64 0 129 35zM659 377q-38 27 -88.5 27t-89.5 -38q-56 -57 -56 -149q0 -102 57 -171q64 82 123 209q21 47 54 122zM789 218q16 118 56 235.5t91 193.5q-42 10 -101 31q-47 -70 -94 -185q-14 -36 -44 -115q62 -55 92 -160z" />
    <glyph glyph-name="Acircumflex" unicode="&#xc2;" horiz-adv-x="1005" 
d="M1016.5 984q6.5 0 9.5 -7l50 -99h-24l-38 64l-109 -64h-25q81 67 105.5 86.5t31 19.5zM1013 818q8 0 12 -5t5 -14q-104 0 -182 -103q52 -19 101 -30q54 70 99 70q10 0 17 -5.5t10 -16.5q-39 0 -81 -55q7 -1 21 -1q99 0 139 59q17 23 17 39q0 45 -40 45q9 14 29 14
q39 0 51 -39q3 -12 3 -23q0 -33 -28 -65q-49 -54 -151 -54q-30 0 -54 4q-67 -107 -108 -304q-29 -137 -29 -230q0 -40 5 -72q57 44 109 111t75 112l23 45h27q-8 -21 -34.5 -66.5t-51 -80t-63.5 -76.5t-79 -71q13 -38 37 -38q-10 -20 -29 -20q-32 0 -53 30q-72 -37 -140 -37
q-99 0 -171 52q-105 -120 -253 -120t-215 105q-37 59 -37 127q0 28 6 57q21 97 95 138q39 22 87 22q103 0 139 -80q15 -33 15 -67.5t-14 -69.5q-34 -84 -111 -84q-12 0 -20 5.5t-12 16.5q27 0 51 14q40 24 63 87q6 21 6 34.5t-2 31t-13 40.5t-38 37t-64 14q-95 0 -140 -84
q-26 -48 -26 -91t9 -77q26 -95 109 -131q39 -17 86 -17q135 0 244 122q-48 51 -66 123q-11 42 -11 75q0 104 60 165q44 44 107.5 44t114.5 -31q89 207 144 287q-7 2 -51.5 19t-56.5 21l-48 16q-84 28 -148 28q-130 0 -192 -98q-36 -55 -36 -114q0 -17 4 -35q11 -65 58 -78
q9 -3 19 -3q-6 -22 -33 -22q-61 0 -86 65q-12 31 -12 69t20 85q42 101 148 138q50 17 93.5 17t72 -4.5t68.5 -17t58.5 -18.5t72 -26.5t61.5 -23.5q86 114 188 114zM798 -1q-17 40 -17 97.5t-24 133t-70 123.5q-91 -240 -170 -340q62 -49 152 -49q64 0 129 35zM659 377
q-38 27 -88.5 27t-89.5 -38q-56 -57 -56 -149q0 -102 57 -171q64 82 123 209q21 47 54 122zM789 218q16 118 56 235.5t91 193.5q-42 10 -101 31q-47 -70 -94 -185q-14 -36 -44 -115q62 -55 92 -160z" />
    <glyph glyph-name="Atilde" unicode="&#xc3;" horiz-adv-x="1005" 
d="M921 920q-25 0 -49 -42h-23q2 6 12.5 21.5t20.5 24.5q26 25 61 25q19 0 47 -19.5t44.5 -19.5t28.5 9t22 27h22q-3 -8 -9.5 -20t-29.5 -31.5t-47.5 -19.5t-54.5 22.5t-45 22.5zM1013 818q8 0 12 -5t5 -14q-104 0 -182 -103q52 -19 101 -30q54 70 99 70q10 0 17 -5.5
t10 -16.5q-39 0 -81 -55q7 -1 21 -1q99 0 139 59q17 23 17 39q0 45 -40 45q9 14 29 14q39 0 51 -39q3 -12 3 -23q0 -33 -28 -65q-49 -54 -151 -54q-30 0 -54 4q-67 -107 -108 -304q-29 -137 -29 -230q0 -40 5 -72q57 44 109 111t75 112l23 45h27q-8 -21 -34.5 -66.5t-51 -80
t-63.5 -76.5t-79 -71q13 -38 37 -38q-10 -20 -29 -20q-32 0 -53 30q-72 -37 -140 -37q-99 0 -171 52q-105 -120 -253 -120t-215 105q-37 59 -37 127q0 28 6 57q21 97 95 138q39 22 87 22q103 0 139 -80q15 -33 15 -67.5t-14 -69.5q-34 -84 -111 -84q-12 0 -20 5.5t-12 16.5
q27 0 51 14q40 24 63 87q6 21 6 34.5t-2 31t-13 40.5t-38 37t-64 14q-95 0 -140 -84q-26 -48 -26 -91t9 -77q26 -95 109 -131q39 -17 86 -17q135 0 244 122q-48 51 -66 123q-11 42 -11 75q0 104 60 165q44 44 107.5 44t114.5 -31q89 207 144 287q-7 2 -51.5 19t-56.5 21
l-48 16q-84 28 -148 28q-130 0 -192 -98q-36 -55 -36 -114q0 -17 4 -35q11 -65 58 -78q9 -3 19 -3q-6 -22 -33 -22q-61 0 -86 65q-12 31 -12 69t20 85q42 101 148 138q50 17 93.5 17t72 -4.5t68.5 -17t58.5 -18.5t72 -26.5t61.5 -23.5q86 114 188 114zM798 -1
q-17 40 -17 97.5t-24 133t-70 123.5q-91 -240 -170 -340q62 -49 152 -49q64 0 129 35zM659 377q-38 27 -88.5 27t-89.5 -38q-56 -57 -56 -149q0 -102 57 -171q64 82 123 209q21 47 54 122zM789 218q16 118 56 235.5t91 193.5q-42 10 -101 31q-47 -70 -94 -185
q-14 -36 -44 -115q62 -55 92 -160z" />
    <glyph glyph-name="Adieresis" unicode="&#xc4;" horiz-adv-x="1005" 
d="M934 969q23 0 23 -31t-30 -50q-15 -10 -26 -10q-16 0 -19 10l-1 3q9 0 13 19.5t12.5 39t27.5 19.5zM1060 969q23 0 23 -31t-30 -50q-15 -10 -26 -10q-16 0 -19 10l-1 3q9 0 13 19.5t12.5 39t27.5 19.5zM1013 818q8 0 12 -5t5 -14q-104 0 -182 -103q52 -19 101 -30
q54 70 99 70q10 0 17 -5.5t10 -16.5q-39 0 -81 -55q7 -1 21 -1q99 0 139 59q17 23 17 39q0 45 -40 45q9 14 29 14q39 0 51 -39q3 -12 3 -23q0 -33 -28 -65q-49 -54 -151 -54q-30 0 -54 4q-67 -107 -108 -304q-29 -137 -29 -230q0 -40 5 -72q57 44 109 111t75 112l23 45h27
q-8 -21 -34.5 -66.5t-51 -80t-63.5 -76.5t-79 -71q13 -38 37 -38q-10 -20 -29 -20q-32 0 -53 30q-72 -37 -140 -37q-99 0 -171 52q-105 -120 -253 -120t-215 105q-37 59 -37 127q0 28 6 57q21 97 95 138q39 22 87 22q103 0 139 -80q15 -33 15 -67.5t-14 -69.5
q-34 -84 -111 -84q-12 0 -20 5.5t-12 16.5q27 0 51 14q40 24 63 87q6 21 6 34.5t-2 31t-13 40.5t-38 37t-64 14q-95 0 -140 -84q-26 -48 -26 -91t9 -77q26 -95 109 -131q39 -17 86 -17q135 0 244 122q-48 51 -66 123q-11 42 -11 75q0 104 60 165q44 44 107.5 44t114.5 -31
q89 207 144 287q-7 2 -51.5 19t-56.5 21l-48 16q-84 28 -148 28q-130 0 -192 -98q-36 -55 -36 -114q0 -17 4 -35q11 -65 58 -78q9 -3 19 -3q-6 -22 -33 -22q-61 0 -86 65q-12 31 -12 69t20 85q42 101 148 138q50 17 93.5 17t72 -4.5t68.5 -17t58.5 -18.5t72 -26.5
t61.5 -23.5q86 114 188 114zM798 -1q-17 40 -17 97.5t-24 133t-70 123.5q-91 -240 -170 -340q62 -49 152 -49q64 0 129 35zM659 377q-38 27 -88.5 27t-89.5 -38q-56 -57 -56 -149q0 -102 57 -171q64 82 123 209q21 47 54 122zM789 218q16 118 56 235.5t91 193.5
q-42 10 -101 31q-47 -70 -94 -185q-14 -36 -44 -115q62 -55 92 -160z" />
    <glyph glyph-name="Aring" unicode="&#xc5;" horiz-adv-x="1005" 
d="M951 1031q19 19 47.5 19t47.5 -19t19 -47t-19 -47t-47.5 -19t-47.5 19.5t-19 47t19 46.5zM966 952.5q13 -13.5 31.5 -13.5t32 13.5t13.5 32t-13.5 31.5t-32.5 13t-31.5 -13t-12.5 -31.5t13 -32zM1013 818q8 0 12 -5t5 -14q-104 0 -182 -103q52 -19 101 -30q54 70 99 70
q10 0 17 -5.5t10 -16.5q-39 0 -81 -55q7 -1 21 -1q99 0 139 59q17 23 17 39q0 45 -40 45q9 14 29 14q39 0 51 -39q3 -12 3 -23q0 -33 -28 -65q-49 -54 -151 -54q-30 0 -54 4q-67 -107 -108 -304q-29 -137 -29 -230q0 -40 5 -72q57 44 109 111t75 112l23 45h27
q-8 -21 -34.5 -66.5t-51 -80t-63.5 -76.5t-79 -71q13 -38 37 -38q-10 -20 -29 -20q-32 0 -53 30q-72 -37 -140 -37q-99 0 -171 52q-105 -120 -253 -120t-215 105q-37 59 -37 127q0 28 6 57q21 97 95 138q39 22 87 22q103 0 139 -80q15 -33 15 -67.5t-14 -69.5
q-34 -84 -111 -84q-12 0 -20 5.5t-12 16.5q27 0 51 14q40 24 63 87q6 21 6 34.5t-2 31t-13 40.5t-38 37t-64 14q-95 0 -140 -84q-26 -48 -26 -91t9 -77q26 -95 109 -131q39 -17 86 -17q135 0 244 122q-48 51 -66 123q-11 42 -11 75q0 104 60 165q44 44 107.5 44t114.5 -31
q89 207 144 287q-7 2 -51.5 19t-56.5 21l-48 16q-84 28 -148 28q-130 0 -192 -98q-36 -55 -36 -114q0 -17 4 -35q11 -65 58 -78q9 -3 19 -3q-6 -22 -33 -22q-61 0 -86 65q-12 31 -12 69t20 85q42 101 148 138q50 17 93.5 17t72 -4.5t68.5 -17t58.5 -18.5t72 -26.5
t61.5 -23.5q86 114 188 114zM798 -1q-17 40 -17 97.5t-24 133t-70 123.5q-91 -240 -170 -340q62 -49 152 -49q64 0 129 35zM659 377q-38 27 -88.5 27t-89.5 -38q-56 -57 -56 -149q0 -102 57 -171q64 82 123 209q21 47 54 122zM789 218q16 118 56 235.5t91 193.5
q-42 10 -101 31q-47 -70 -94 -185q-14 -36 -44 -115q62 -55 92 -160z" />
    <glyph glyph-name="AE" unicode="&#xc6;" horiz-adv-x="1424" 
d="M934 464q-16 33 -16 72t10.5 77t36 76t60 67t83.5 47t104 18q83 0 106 -56q7 -17 7 -35q0 -37 -30 -78q-59 -78 -182 -94l-55 -4l-1 25q116 0 182 72q39 42 39 82q0 9 -1 17q-12 47 -72 48q-75 0 -136.5 -56.5t-86.5 -131.5q-15 -43 -15 -74.5t8 -54.5q61 22 129.5 22
t83.5 -35q3 -8 3 -15q0 -21 -32 -42t-99 -21t-108 46q-89 -57 -131 -168q-28 -74 -28 -144q0 -35 7 -68q21 -102 98 -137v6q0 93 30.5 182t96.5 153.5t152 64.5t111 -78q9 -28 9 -58q0 -55 -30 -120q-52 -111 -157 -161q-64 -30 -138 -30q-12 0 -32 2q3 -82 37 -133t98 -51
q-4 -17 -25 -17q-67 0 -105.5 58t-44.5 150q-85 21 -128 87.5t-43 156.5q0 44 -26 112t-66 110q-91 -240 -170 -340q62 -49 152 -49l1 -23q-99 0 -171 52q-105 -120 -253 -120t-215 105q-37 59 -37 127q0 28 6 57q21 97 95 138q39 22 87 22q103 0 139 -80q15 -33 15 -67.5
t-14 -69.5q-34 -84 -111 -84q-12 0 -20 5.5t-12 16.5q27 0 51 14q40 24 63 87q6 21 6 34.5t-2 31t-13 40.5t-38 37t-64 14q-95 0 -140 -84q-26 -48 -26 -91t9 -77q26 -95 109 -131q39 -17 86 -17q135 0 244 122q-48 51 -66 123q-11 42 -11 75q0 104 60 165q44 44 107.5 44
t114.5 -31q85 197 113 241t55.5 80t52.5 54q61 44 123 44q8 0 12 -5t5 -14q-50 0 -102 -27q-27 -14 -81 -76q-48 -56 -122 -246q-9 -23 -28 -72q65 -56 93 -163q20 79 70 145.5t124 103.5zM1185 301q-67 0 -124.5 -62.5t-88 -152.5t-32.5 -179q13 -3 30 -3q146 0 233 113
q64 83 64 169t-50 108q-14 7 -32 7zM609 377q-38 27 -88.5 27t-89.5 -38q-56 -57 -56 -149q0 -102 57 -171q64 82 123 209q21 47 54 122zM1104 481q-62 0 -117 -25q27 -42 90.5 -42t81.5 28q4 7 4 12q0 13 -17.5 20t-41.5 7z" />
    <glyph glyph-name="Ccedilla" unicode="&#xc7;" horiz-adv-x="658" 
d="M125 324q-20 -80 -20 -140.5t13.5 -107.5t52 -76t97.5 -29q110 0 185 96q59 74 59 146t-52 83q-8 2 -18 2l-9 27q83 0 102 -73q5 -20 5 -41q0 -55 -36 -118q-54 -97 -152 -132q-40 -13 -82 -14l-31 -56q24 13 56 13q49 0 58 -37q1 -7 1 -14q0 -29 -33 -57.5t-87 -28.5
t-60 30q-4 21 13 28q4 2 9 2q11 0 13 -9v-3q-13 0 -15 -12q-2 -17 20 -22l13 -1q58 0 83 43q10 16 10 29t-9.5 23.5t-32 10.5t-54.5 -16h-2q-11 8 -2.5 28t27.5 50q-133 9 -180 120q-27 64 -27 132t15 134q-70 16 -121 58t-73 96q-29 71 -29 131t19 113t54.5 100.5t95.5 77
t132 29.5q142 0 194 -110q6 -12 -14 -16q-24 -2 -30 11q-30 90 -151 90q-76 0 -137 -36q-113 -68 -133 -214q-3 -23 -3 -56t12 -74q17 -61 66.5 -110t123.5 -67q31 114 94 213.5t159 166t202 66.5q92 0 112 -74q6 -19 6 -40q0 -61 -46 -135q-72 -119 -210 -181
q-108 -49 -233 -49h-20zM503 777q-57 0 -115.5 -37.5t-106.5 -98.5q-102 -130 -149 -293h14q196 0 330 125q89 83 109 179q4 21 4 38q0 52 -38 75q-19 12 -48 12z" />
    <glyph glyph-name="Egrave" unicode="&#xc8;" horiz-adv-x="657" 
d="M416 1007q36 -33 68.5 -72.5t32.5 -49t-10.5 -9.5t-45.5 25t-72 61q-14 14 -14 24t6 20t15.5 10t19.5 -9zM279 939q6 0 9.5 -4.5t3.5 -8.5v-4q-65 0 -112 -38q-66 -54 -66 -130q0 -33 14 -66q22 -54 81 -83q24 89 99.5 152.5t185.5 63.5q83 0 106 -56q7 -17 7 -35
q0 -37 -30 -78q-74 -98 -237 -98q-50 0 -87 9q-3 -19 -3 -40t7 -42q61 22 129.5 22t83.5 -35q3 -8 3 -15q0 -21 -32 -42t-99 -21t-108 46q-89 -57 -131 -168q-28 -74 -28 -144q0 -35 7 -68q21 -102 98 -137v6q0 93 30.5 182t96.5 153.5t152 64.5t111 -78q9 -28 9 -58
q0 -55 -30 -120q-52 -111 -157 -161q-64 -30 -138 -30q-12 0 -32 2q3 -82 37 -133t98 -51q-4 -17 -25 -17q-67 0 -105.5 58t-44.5 150q-72 18 -116 71q-54 64 -54 163q0 51 15 113.5t66 128t123 101.5q-16 34 -16 64.5t3 51.5q-45 21 -73 56q-38 49 -38 109q0 67 38 121
q24 32 63 52.5t86 20.5zM467 301q-67 0 -124.5 -62.5t-88 -152.5t-32.5 -179q14 -3 30 -3q146 0 233 113q64 83 64 169t-50 108q-14 7 -32 7zM339 579q116 0 182 72q39 42 39 82q0 9 -1 17q-12 47 -72 48q-82 0 -145.5 -64t-83.5 -147q37 -8 81 -8zM386 481q-62 0 -117 -25
q27 -42 90.5 -42t81.5 28q4 7 4 12q0 13 -17.5 20t-41.5 7z" />
    <glyph glyph-name="Eacute" unicode="&#xc9;" horiz-adv-x="657" 
d="M581 987q-30 -37 -67.5 -72t-48 -35t-10.5 11t23.5 47.5t56.5 73.5q12 15 23 15t21 -4.5t10 -14t-8 -21.5zM279 939q6 0 9.5 -4.5t3.5 -8.5v-4q-65 0 -112 -38q-66 -54 -66 -130q0 -33 14 -66q22 -54 81 -83q24 89 99.5 152.5t185.5 63.5q83 0 106 -56q7 -17 7 -35
q0 -37 -30 -78q-74 -98 -237 -98q-50 0 -87 9q-3 -19 -3 -40t7 -42q61 22 129.5 22t83.5 -35q3 -8 3 -15q0 -21 -32 -42t-99 -21t-108 46q-89 -57 -131 -168q-28 -74 -28 -144q0 -35 7 -68q21 -102 98 -137v6q0 93 30.5 182t96.5 153.5t152 64.5t111 -78q9 -28 9 -58
q0 -55 -30 -120q-52 -111 -157 -161q-64 -30 -138 -30q-12 0 -32 2q3 -82 37 -133t98 -51q-4 -17 -25 -17q-67 0 -105.5 58t-44.5 150q-72 18 -116 71q-54 64 -54 163q0 51 15 113.5t66 128t123 101.5q-16 34 -16 64.5t3 51.5q-45 21 -73 56q-38 49 -38 109q0 67 38 121
q24 32 63 52.5t86 20.5zM467 301q-67 0 -124.5 -62.5t-88 -152.5t-32.5 -179q14 -3 30 -3q146 0 233 113q64 83 64 169t-50 108q-14 7 -32 7zM339 579q116 0 182 72q39 42 39 82q0 9 -1 17q-12 47 -72 48q-82 0 -145.5 -64t-83.5 -147q37 -8 81 -8zM386 481q-62 0 -117 -25
q27 -42 90.5 -42t81.5 28q4 7 4 12q0 13 -17.5 20t-41.5 7z" />
    <glyph glyph-name="Ecircumflex" unicode="&#xca;" horiz-adv-x="657" 
d="M526 984q6 0 10 -7l50 -99h-24l-38 64l-109 -64h-25q81 67 105.5 86.5t30.5 19.5zM279 939q6 0 9.5 -4.5t3.5 -8.5v-4q-65 0 -112 -38q-66 -54 -66 -130q0 -33 14 -66q22 -54 81 -83q24 89 99.5 152.5t185.5 63.5q83 0 106 -56q7 -17 7 -35q0 -37 -30 -78
q-74 -98 -237 -98q-50 0 -87 9q-3 -19 -3 -40t7 -42q61 22 129.5 22t83.5 -35q3 -8 3 -15q0 -21 -32 -42t-99 -21t-108 46q-89 -57 -131 -168q-28 -74 -28 -144q0 -35 7 -68q21 -102 98 -137v6q0 93 30.5 182t96.5 153.5t152 64.5t111 -78q9 -28 9 -58q0 -55 -30 -120
q-52 -111 -157 -161q-64 -30 -138 -30q-12 0 -32 2q3 -82 37 -133t98 -51q-4 -17 -25 -17q-67 0 -105.5 58t-44.5 150q-72 18 -116 71q-54 64 -54 163q0 51 15 113.5t66 128t123 101.5q-16 34 -16 64.5t3 51.5q-45 21 -73 56q-38 49 -38 109q0 67 38 121q24 32 63 52.5
t86 20.5zM467 301q-67 0 -124.5 -62.5t-88 -152.5t-32.5 -179q14 -3 30 -3q146 0 233 113q64 83 64 169t-50 108q-14 7 -32 7zM339 579q116 0 182 72q39 42 39 82q0 9 -1 17q-12 47 -72 48q-82 0 -145.5 -64t-83.5 -147q37 -8 81 -8zM386 481q-62 0 -117 -25
q27 -42 90.5 -42t81.5 28q4 7 4 12q0 13 -17.5 20t-41.5 7z" />
    <glyph glyph-name="Edieresis" unicode="&#xcb;" horiz-adv-x="657" 
d="M440 969q23 0 23 -31t-30 -50q-15 -10 -26 -10q-16 0 -19 10l-1 3q9 0 13 19.5t12.5 39t27.5 19.5zM566 969q23 0 23 -31t-30 -50q-15 -10 -26 -10q-16 0 -19 10l-1 3q9 0 13 19.5t12.5 39t27.5 19.5zM279 939q6 0 9.5 -4.5t3.5 -8.5v-4q-65 0 -112 -38q-66 -54 -66 -130
q0 -33 14 -66q22 -54 81 -83q24 89 99.5 152.5t185.5 63.5q83 0 106 -56q7 -17 7 -35q0 -37 -30 -78q-74 -98 -237 -98q-50 0 -87 9q-3 -19 -3 -40t7 -42q61 22 129.5 22t83.5 -35q3 -8 3 -15q0 -21 -32 -42t-99 -21t-108 46q-89 -57 -131 -168q-28 -74 -28 -144
q0 -35 7 -68q21 -102 98 -137v6q0 93 30.5 182t96.5 153.5t152 64.5t111 -78q9 -28 9 -58q0 -55 -30 -120q-52 -111 -157 -161q-64 -30 -138 -30q-12 0 -32 2q3 -82 37 -133t98 -51q-4 -17 -25 -17q-67 0 -105.5 58t-44.5 150q-72 18 -116 71q-54 64 -54 163q0 51 15 113.5
t66 128t123 101.5q-16 34 -16 64.5t3 51.5q-45 21 -73 56q-38 49 -38 109q0 67 38 121q24 32 63 52.5t86 20.5zM467 301q-67 0 -124.5 -62.5t-88 -152.5t-32.5 -179q14 -3 30 -3q146 0 233 113q64 83 64 169t-50 108q-14 7 -32 7zM339 579q116 0 182 72q39 42 39 82
q0 9 -1 17q-12 47 -72 48q-82 0 -145.5 -64t-83.5 -147q37 -8 81 -8zM386 481q-62 0 -117 -25q27 -42 90.5 -42t81.5 28q4 7 4 12q0 13 -17.5 20t-41.5 7z" />
    <glyph glyph-name="Igrave" unicode="&#xcc;" horiz-adv-x="648" 
d="M624 1007q36 -33 68.5 -72.5t32.5 -49t-10.5 -9.5t-45.5 25t-72 61q-14 14 -14 24t6 20t15.5 10t19.5 -9zM244 -113q-149 0 -210 104q-47 81 -21 175t98 131q34 17 74 17q106 0 145 -82q17 -36 17 -69t-12 -63q-26 -69 -85 -69q-18 0 -26 14l-2 5q43 0 67 61
q12 30 12 60.5t-13 62.5q-25 61 -105 61t-127 -78q-31 -52 -31 -110q0 -24 5 -50q21 -94 108 -128q39 -15 97 -15t108.5 26.5t82 73.5t53.5 104t36.5 128t24.5 134q28 179 51 247q-93 7 -97 7q-142 0 -199 -93q-26 -42 -26 -86q0 -21 6 -42q18 -60 66 -60q0 -8 -8 -15
t-20 -7q-57 0 -81 59q-11 29 -11 63t20 76q44 95 161 121q37 8 67.5 8t129.5 -9q45 114 129 114q7 0 12.5 -4.5t8.5 -12.5q-73 0 -104 -100h20q103 0 144 65q16 25 16 43q0 47 -33 47q6 18 23 18q29 0 39 -36q3 -13 3 -25q0 -36 -28 -71q-53 -64 -165 -64h-25
q-18 -70 -27 -170.5t-19.5 -166t-24 -120.5t-40 -108t-62.5 -89.5t-93 -59t-129 -22.5z" />
    <glyph glyph-name="Iacute" unicode="&#xcd;" horiz-adv-x="648" 
d="M810 987q-30 -37 -67.5 -72t-48 -35t-10.5 11t23.5 47.5t56.5 73.5q12 15 23 15t21 -4.5t10 -14t-8 -21.5zM244 -113q-149 0 -210 104q-47 81 -21 175t98 131q34 17 74 17q106 0 145 -82q17 -36 17 -69t-12 -63q-26 -69 -85 -69q-18 0 -26 14l-2 5q43 0 67 61
q12 30 12 60.5t-13 62.5q-25 61 -105 61t-127 -78q-31 -52 -31 -110q0 -24 5 -50q21 -94 108 -128q39 -15 97 -15t108.5 26.5t82 73.5t53.5 104t36.5 128t24.5 134q28 179 51 247q-93 7 -97 7q-142 0 -199 -93q-26 -42 -26 -86q0 -21 6 -42q18 -60 66 -60q0 -8 -8 -15
t-20 -7q-57 0 -81 59q-11 29 -11 63t20 76q44 95 161 121q37 8 67.5 8t129.5 -9q45 114 129 114q7 0 12.5 -4.5t8.5 -12.5q-73 0 -104 -100h20q103 0 144 65q16 25 16 43q0 47 -33 47q6 18 23 18q29 0 39 -36q3 -13 3 -25q0 -36 -28 -71q-53 -64 -165 -64h-25
q-18 -70 -27 -170.5t-19.5 -166t-24 -120.5t-40 -108t-62.5 -89.5t-93 -59t-129 -22.5z" />
    <glyph glyph-name="Icircumflex" unicode="&#xce;" horiz-adv-x="648" 
d="M723.5 984q6.5 0 9.5 -7l50 -99h-24l-38 64l-109 -64h-25q81 67 105.5 86.5t31 19.5zM244 -113q-149 0 -210 104q-47 81 -21 175t98 131q34 17 74 17q106 0 145 -82q17 -36 17 -69t-12 -63q-26 -69 -85 -69q-18 0 -26 14l-2 5q43 0 67 61q12 30 12 60.5t-13 62.5
q-25 61 -105 61t-127 -78q-31 -52 -31 -110q0 -24 5 -50q21 -94 108 -128q39 -15 97 -15t108.5 26.5t82 73.5t53.5 104t36.5 128t24.5 134q28 179 51 247q-93 7 -97 7q-142 0 -199 -93q-26 -42 -26 -86q0 -21 6 -42q18 -60 66 -60q0 -8 -8 -15t-20 -7q-57 0 -81 59
q-11 29 -11 63t20 76q44 95 161 121q37 8 67.5 8t129.5 -9q45 114 129 114q7 0 12.5 -4.5t8.5 -12.5q-73 0 -104 -100h20q103 0 144 65q16 25 16 43q0 47 -33 47q6 18 23 18q29 0 39 -36q3 -13 3 -25q0 -36 -28 -71q-53 -64 -165 -64h-25q-18 -70 -27 -170.5t-19.5 -166
t-24 -120.5t-40 -108t-62.5 -89.5t-93 -59t-129 -22.5z" />
    <glyph glyph-name="Idieresis" unicode="&#xcf;" horiz-adv-x="648" 
d="M645 969q23 0 23 -31t-30 -50q-15 -10 -26 -10q-16 0 -19 10l-1 3q9 0 13 19.5t12.5 39t27.5 19.5zM771 969q23 0 23 -31t-30 -50q-15 -10 -26 -10q-16 0 -19 10l-1 3q9 0 13 19.5t12.5 39t27.5 19.5zM244 -113q-149 0 -210 104q-47 81 -21 175t98 131q34 17 74 17
q106 0 145 -82q17 -36 17 -69t-12 -63q-26 -69 -85 -69q-18 0 -26 14l-2 5q43 0 67 61q12 30 12 60.5t-13 62.5q-25 61 -105 61t-127 -78q-31 -52 -31 -110q0 -24 5 -50q21 -94 108 -128q39 -15 97 -15t108.5 26.5t82 73.5t53.5 104t36.5 128t24.5 134q28 179 51 247
q-93 7 -97 7q-142 0 -199 -93q-26 -42 -26 -86q0 -21 6 -42q18 -60 66 -60q0 -8 -8 -15t-20 -7q-57 0 -81 59q-11 29 -11 63t20 76q44 95 161 121q37 8 67.5 8t129.5 -9q45 114 129 114q7 0 12.5 -4.5t8.5 -12.5q-73 0 -104 -100h20q103 0 144 65q16 25 16 43q0 47 -33 47
q6 18 23 18q29 0 39 -36q3 -13 3 -25q0 -36 -28 -71q-53 -64 -165 -64h-25q-18 -70 -27 -170.5t-19.5 -166t-24 -120.5t-40 -108t-62.5 -89.5t-93 -59t-129 -22.5z" />
    <glyph glyph-name="Eth" unicode="&#xd0;" horiz-adv-x="830" 
d="M-13 91q11 0 22.5 -1.5t19.5 -2.5t22 -5.5t19.5 -6t22 -8t19.5 -8t22.5 -9.5t20.5 -9q49 56 83 174q-149 10 -214 120q-35 61 -35 132q0 41 11 85q34 125 141 196q93 61 218 61q88 0 157.5 -29t111 -77.5t66.5 -111.5q26 -66 26 -137t-11.5 -138.5t-44 -130.5
t-74.5 -111.5t-101.5 -77.5t-134.5 -29t-165 35q-57 -43 -138 -43q-107 0 -136 50q-7 13 -7 28.5t20 34.5t59 19zM144 454q-12 0 -11 9q2 16 32 21l18 1q49 0 114 -3q24 115 57 177t89 62q14 0 19 -13l1 -4q-53 0 -77 -66q-21 -55 -36 -158q108 -4 143 -4q11 0 10 -6
q-4 -14 -42 -14q-71 0 -114 -1q-25 -172 -34 -215q70 10 117.5 53t66.5 104q1 5 6.5 6t9 -2t2.5 -9q-22 -68 -75 -116t-133 -59q-32 -135 -97 -198q75 -26 139 -26t112 27t83 73t63 105.5t39 125t11 131t-20.5 125t-55.5 105.5t-95 73t-137 27q-164 0 -251 -116
q-61 -80 -61 -180q0 -136 93 -206q50 -37 115 -44q13 52 46 215h-147zM-62 30q0 -19 27 -31.5t77 -12.5t95 37q-100 43 -143.5 43t-53.5 -25q-2 -6 -2 -11z" />
    <glyph glyph-name="Ntilde" unicode="&#xd1;" horiz-adv-x="1104" 
d="M1000 953q-25 0 -49 -42h-23q2 6 12.5 21.5t20.5 25.5q26 24 61 24q19 0 47 -19.5t44.5 -19.5t28.5 9t22 27h22q-3 -8 -9.5 -20t-29.5 -31.5t-47.5 -19.5t-54.5 22.5t-45 22.5zM277 645q64 155 268 155q71 0 209 -46q46 64 105 64q8 0 12 -5t5 -14q-55 0 -97 -52
q32 -8 64 -12q34 69 69 69q16 0 19 -10l1 -4q-24 0 -45 -57q58 1 79 46q7 14 7 26.5t-8.5 21t-19.5 8.5q5 15 21 15q29 0 38 -34q3 -10 3 -20q0 -30 -29 -58.5t-87 -28.5h-12q-29 -95 -40.5 -228.5t-11.5 -222.5q0 -225 40 -225q17 0 42 81t56.5 196t70 230.5t95.5 196.5
t122 81q14 0 23.5 -7t13.5 -22q-74 0 -134.5 -83.5t-99.5 -203.5t-71.5 -239.5t-65 -203t-64.5 -83.5q-50 0 -74 82t-24 188q0 122 21.5 254.5t54.5 212.5q-36 6 -68 15q-56 -86 -107 -318q-20 -91 -54 -190t-75.5 -174t-114 -124t-168.5 -49q-147 0 -214 105
q-37 59 -37 127q0 28 6 57q21 97 95 138q39 22 87 22q103 0 139 -80q15 -33 15 -67.5t-14 -69.5q-34 -84 -111 -84q-12 0 -20 5.5t-12 16.5q27 0 51 14q40 24 62 87q7 21 7 34.5t-2 31t-13 40.5t-38 37t-64 14q-95 0 -140 -84q-26 -48 -26 -91t9 -77q26 -95 109 -131
q39 -17 86 -17q86 0 154 47t110 118.5t79.5 167.5t60.5 184q60 223 117 317q-5 1 -26.5 8t-29 9t-27 7t-30.5 7t-28 5q-30 5 -66 5q-130 0 -192 -98q-36 -55 -36 -114q0 -17 4 -35q11 -65 58 -78q9 -3 19 -3q-6 -22 -33 -22q-61 0 -86 65q-12 31 -12 69t20 85z" />
    <glyph glyph-name="Ograve" unicode="&#xd2;" horiz-adv-x="686" 
d="M461 1007q36 -33 68.5 -72.5t32.5 -49t-10.5 -9.5t-45.5 25t-72 61q-14 14 -14 24t6 20t15.5 10t19.5 -9zM339 340q0 -149 83 -149q-3 -19 -33 -19q-72 0 -97 91q-10 39 -10 92.5t23 128.5q42 135 131 189q44 27 94 27q96 0 117 -115q6 -32 6 -67q0 -99 -47 -227
q-64 -177 -170 -273q-77 -71 -156 -71q-147 0 -203 136q-29 69 -29 147.5t20 161.5q44 183 158 304.5t255 121.5q8 0 13 -5t6 -16q-138 0 -248 -155q-97 -137 -127 -319q-10 -61 -10 -113q0 -101 41 -170t125 -69q112 0 212 152q88 134 120 302q12 62 12 109q0 74 -29 112
q-23 27 -57 27q-89 0 -148 -121q-52 -106 -52 -212z" />
    <glyph glyph-name="Oacute" unicode="&#xd3;" horiz-adv-x="686" 
d="M648 987q-30 -37 -67.5 -72t-48 -35t-10.5 11t23.5 47.5t56.5 73.5q12 15 23 15t21 -4.5t10 -14t-8 -21.5zM339 340q0 -149 83 -149q-3 -19 -33 -19q-72 0 -97 91q-10 39 -10 92.5t23 128.5q42 135 131 189q44 27 94 27q96 0 117 -115q6 -32 6 -67q0 -99 -47 -227
q-64 -177 -170 -273q-77 -71 -156 -71q-147 0 -203 136q-29 69 -29 147.5t20 161.5q44 183 158 304.5t255 121.5q8 0 13 -5t6 -16q-138 0 -248 -155q-97 -137 -127 -319q-10 -61 -10 -113q0 -101 41 -170t125 -69q112 0 212 152q88 134 120 302q12 62 12 109q0 74 -29 112
q-23 27 -57 27q-89 0 -148 -121q-52 -106 -52 -212z" />
    <glyph glyph-name="Ocircumflex" unicode="&#xd4;" horiz-adv-x="686" 
d="M561.5 984q6.5 0 9.5 -7l50 -99h-24l-38 64l-109 -64h-25q81 67 105.5 86.5t31 19.5zM339 340q0 -149 83 -149q-3 -19 -33 -19q-72 0 -97 91q-10 39 -10 92.5t23 128.5q42 135 131 189q44 27 94 27q96 0 117 -115q6 -32 6 -67q0 -99 -47 -227q-64 -177 -170 -273
q-77 -71 -156 -71q-147 0 -203 136q-29 69 -29 147.5t20 161.5q44 183 158 304.5t255 121.5q8 0 13 -5t6 -16q-138 0 -248 -155q-97 -137 -127 -319q-10 -61 -10 -113q0 -101 41 -170t125 -69q112 0 212 152q88 134 120 302q12 62 12 109q0 74 -29 112q-23 27 -57 27
q-89 0 -148 -121q-52 -106 -52 -212z" />
    <glyph glyph-name="Otilde" unicode="&#xd5;" horiz-adv-x="686" 
d="M476 920q-25 0 -49 -42h-23q2 6 12.5 21.5t20.5 24.5q26 25 61 25q19 0 47 -19.5t44.5 -19.5t28.5 9t22 27h22q-3 -8 -9.5 -20t-29.5 -31.5t-47.5 -19.5t-54.5 22.5t-45 22.5zM339 340q0 -149 83 -149q-3 -19 -33 -19q-72 0 -97 91q-10 39 -10 92.5t23 128.5
q42 135 131 189q44 27 94 27q96 0 117 -115q6 -32 6 -67q0 -99 -47 -227q-64 -177 -170 -273q-77 -71 -156 -71q-147 0 -203 136q-29 69 -29 147.5t20 161.5q44 183 158 304.5t255 121.5q8 0 13 -5t6 -16q-138 0 -248 -155q-97 -137 -127 -319q-10 -61 -10 -113
q0 -101 41 -170t125 -69q112 0 212 152q88 134 120 302q12 62 12 109q0 74 -29 112q-23 27 -57 27q-89 0 -148 -121q-52 -106 -52 -212z" />
    <glyph glyph-name="Odieresis" unicode="&#xd6;" horiz-adv-x="686" 
d="M435 969q23 0 23 -31t-30 -50q-15 -10 -26 -10q-16 0 -19 10l-1 3q9 0 13 19.5t12.5 39t27.5 19.5zM561 969q23 0 23 -31t-30 -50q-15 -10 -26 -10q-16 0 -19 10l-1 3q9 0 13 19.5t12.5 39t27.5 19.5zM339 340q0 -149 83 -149q-3 -19 -33 -19q-72 0 -97 91
q-10 39 -10 92.5t23 128.5q42 135 131 189q44 27 94 27q96 0 117 -115q6 -32 6 -67q0 -99 -47 -227q-64 -177 -170 -273q-77 -71 -156 -71q-147 0 -203 136q-29 69 -29 147.5t20 161.5q44 183 158 304.5t255 121.5q8 0 13 -5t6 -16q-138 0 -248 -155q-97 -137 -127 -319
q-10 -61 -10 -113q0 -101 41 -170t125 -69q112 0 212 152q88 134 120 302q12 62 12 109q0 74 -29 112q-23 27 -57 27q-89 0 -148 -121q-52 -106 -52 -212z" />
    <glyph glyph-name="multiply" unicode="&#xd7;" horiz-adv-x="539" 
d="M66 3q-5 -5 -9.5 -5t-4.5 10.5t18 31.5l151 180q-32 56 -110 187q-7 12 4 14q2 1 5 1q18 0 40 -37t78 -144l152 180q5 6 9 6t7 -5t3 -15.5t-27.5 -43.5t-129.5 -148q62 -116 91 -166q8 -12 -2 -12q-14 0 -31 30l-75 129q-132 -148 -169 -193z" />
    <glyph glyph-name="Oslash" unicode="&#xd8;" horiz-adv-x="686" 
d="M489 697q113 -24 113 -194q0 -121 -69 -277t-176 -233q-59 -42 -117 -45q-25 -75 -30.5 -93.5t-9.5 -18.5t-9.5 3.5t-5.5 15t4 24.5l21 69q-138 10 -187 147q-24 66 -24 144t24 169q48 183 161 296t247 114q8 0 13 -5t6 -16q-138 0 -248 -155q-97 -137 -127 -319
q-9 -61 -9 -112q0 -101 39 -167t113 -72q48 150 180 557t134 414t7 7q23 0 23 -26q0 -12 -5 -26zM485 214.5q38 95.5 52 168.5t14 115t-8 76q-17 72 -67 84q-199 -597 -228 -685q70 8 134.5 77t102.5 164.5z" />
    <glyph glyph-name="Ugrave" unicode="&#xd9;" horiz-adv-x="664" 
d="M429 783q36 -33 68.5 -72.5t32.5 -49t-10.5 -9.5t-45.5 25t-72 61q-14 14 -14 24t6 20t15.5 10t19.5 -9zM580 493q34 0 34 -41q0 -25 -12 -65q-31 -98 -110 -214q-1 -17 -1 -33q0 -83 17 -142q21 -69 69 -69q-5 -20 -28 -20q-52 0 -81 51.5t-35 134.5
q-100 -117 -170 -117q-124 0 -124 134q0 56 23.5 129.5t52.5 134t52.5 136t23.5 139.5t-37 103t-102 39q-100 0 -163 -102q-49 -81 -49 -171q0 -114 67 -145q20 -9 43 -9q77 0 117 86q2 4 6.5 4.5t8 -2.5t1.5 -7q-19 -47 -53 -75.5t-80 -28.5q-90 0 -122 91q-13 39 -13 88
t21 110q39 115 125 162q43 23 91 23q92 0 141 -62.5t49 -165.5q0 -60 -21.5 -135.5t-48.5 -135.5q-69 -156 -69 -235.5t59 -79.5q68 0 169 131v9q0 79 18 159t53 135.5t78 55.5zM495 228q92 151 92 215q0 18 -12 18q-26 0 -48.5 -68.5t-31.5 -164.5z" />
    <glyph glyph-name="Uacute" unicode="&#xda;" horiz-adv-x="664" 
d="M573 753q-30 -37 -67.5 -72t-48 -35t-10.5 11t23.5 47.5t56.5 73.5q12 15 23 15t21 -4.5t10 -14t-8 -21.5zM580 493q34 0 34 -41q0 -25 -12 -65q-31 -98 -110 -214q-1 -17 -1 -33q0 -83 17 -142q21 -69 69 -69q-5 -20 -28 -20q-52 0 -81 51.5t-35 134.5
q-100 -117 -170 -117q-124 0 -124 134q0 56 23.5 129.5t52.5 134t52.5 136t23.5 139.5t-37 103t-102 39q-100 0 -163 -102q-49 -81 -49 -171q0 -114 67 -145q20 -9 43 -9q77 0 117 86q2 4 6.5 4.5t8 -2.5t1.5 -7q-19 -47 -53 -75.5t-80 -28.5q-90 0 -122 91q-13 39 -13 88
t21 110q39 115 125 162q43 23 91 23q92 0 141 -62.5t49 -165.5q0 -60 -21.5 -135.5t-48.5 -135.5q-69 -156 -69 -235.5t59 -79.5q68 0 169 131v9q0 79 18 159t53 135.5t78 55.5zM495 228q92 151 92 215q0 18 -12 18q-26 0 -48.5 -68.5t-31.5 -164.5z" />
    <glyph glyph-name="Ucircumflex" unicode="&#xdb;" horiz-adv-x="664" 
d="M583 691h-24l-38 64l-109 -64h-25q81 67 121 99q18 14 25 0zM580 493q34 0 34 -41q0 -25 -12 -65q-31 -98 -110 -214q-1 -17 -1 -33q0 -83 17 -142q21 -69 69 -69q-5 -20 -28 -20q-52 0 -81 51.5t-35 134.5q-100 -117 -170 -117q-124 0 -124 134q0 56 23.5 129.5
t52.5 134t52.5 136t23.5 139.5t-37 103t-102 39q-100 0 -163 -102q-49 -81 -49 -171q0 -114 67 -145q20 -9 43 -9q77 0 117 86q2 4 6.5 4.5t8 -2.5t1.5 -7q-19 -47 -53 -75.5t-80 -28.5q-90 0 -122 91q-13 39 -13 88t21 110q39 115 125 162q43 23 91 23q92 0 141 -62.5
t49 -165.5q0 -60 -21.5 -135.5t-48.5 -135.5q-69 -156 -69 -235.5t59 -79.5q68 0 169 131v9q0 79 18 159t53 135.5t78 55.5zM495 228q92 151 92 215q0 18 -12 18q-26 0 -48.5 -68.5t-31.5 -164.5z" />
    <glyph glyph-name="Udieresis" unicode="&#xdc;" horiz-adv-x="664" 
d="M455 745q23 0 23 -31t-30 -50q-15 -10 -26 -10q-16 0 -19 10l-1 3q9 0 13 19.5t12.5 39t27.5 19.5zM581 745q23 0 23 -31t-30 -50q-15 -10 -26 -10q-16 0 -19 10l-1 3q9 0 13 19.5t12.5 39t27.5 19.5zM580 493q34 0 34 -41q0 -25 -12 -65q-31 -98 -110 -214
q-1 -17 -1 -33q0 -83 17 -142q21 -69 69 -69q-5 -20 -28 -20q-52 0 -81 51.5t-35 134.5q-100 -117 -170 -117q-124 0 -124 134q0 56 23.5 129.5t52.5 134t52.5 136t23.5 139.5t-37 103t-102 39q-100 0 -163 -102q-49 -81 -49 -171q0 -114 67 -145q20 -9 43 -9q77 0 117 86
q2 4 6.5 4.5t8 -2.5t1.5 -7q-19 -47 -53 -75.5t-80 -28.5q-90 0 -122 91q-13 39 -13 88t21 110q39 115 125 162q43 23 91 23q92 0 141 -62.5t49 -165.5q0 -60 -21.5 -135.5t-48.5 -135.5q-69 -156 -69 -235.5t59 -79.5q68 0 169 131v9q0 79 18 159t53 135.5t78 55.5z
M495 228q92 151 92 215q0 18 -12 18q-26 0 -48.5 -68.5t-31.5 -164.5z" />
    <glyph glyph-name="Yacute" unicode="&#xdd;" horiz-adv-x="643" 
d="M672 749q-30 -37 -67.5 -72t-48 -35t-10.5 11t23.5 47.5t56.5 73.5q12 15 23 15t21 -4.5t10 -14t-8 -21.5zM349 24q70 0 163 125q33 191 48 239q31 105 86 105q36 0 36 -43q0 -24 -11 -60q-27 -92 -99 -202q-28 -230 -76 -348q-51 -125 -124 -184q-40 -33 -97 -54
t-125 -21q-149 0 -209 103q-29 50 -29 95.5t11 81.5q26 90 99 127q35 17 75 17q106 0 145 -82q17 -36 17 -69t-12 -63q-26 -69 -85 -69q-9 0 -16 5t-11 14q45 0 70 61q12 30 12 60.5t-14 62.5q-27 61 -109 61t-129 -79q-32 -53 -32 -111q0 -24 6 -49q21 -94 108 -127
q39 -15 89.5 -15t95 15.5t78 40.5t61.5 64t47.5 79t36.5 93q25 82 48 201q-89 -99 -153 -99q-124 0 -124 134q0 56 22.5 126t49 126.5t49 129t22.5 136.5t-37 103t-102 39q-100 0 -163 -102q-49 -81 -49 -171q0 -114 67 -145q20 -9 43 -9q77 0 117 86q2 4 6.5 4.5t8 -2.5
t1.5 -7q-19 -47 -53 -75.5t-80 -28.5q-90 0 -122 91q-13 39 -13 88t21 110q39 115 125 162q43 23 91 23q92 0 141 -62.5t49 -165.5q0 -75 -32.5 -168.5t-65 -179.5t-32.5 -142q0 -75 59 -75zM641 461q-25 0 -37 -49t-25 -160q72 127 75 186q0 22 -13 23z" />
    <glyph glyph-name="Thorn" unicode="&#xde;" horiz-adv-x="545" 
d="M-9 395q-10 -15 -10 -27.5t7 -23.5q16 -22 62 -27q41 220 58.5 298t31.5 97.5t28 19.5q18 0 16 -19q-7 -34 -38 -181.5t-44 -214.5q26 2 37 4q62 192 102 273q54 108 103 156q64 65 135 65q88 0 107 -76q5 -20 5 -41q0 -66 -48 -148q-74 -126 -212 -197q-81 -42 -173 -55
q-10 -29 -23.5 -70t-22.5 -67t-20 -58t-19 -51t-17 -37q-16 -34 -29 -34q-23 0 -23 42t41 270q-46 5 -69.5 25t-23.5 46t24 54.5t66 48.5l10 -22q-43 -22 -61 -50zM473 786q-64 0 -121 -71t-102 -173q-45 -105 -83 -216q157 36 266 177q91 117 91 218q0 55 -38 64
q-6 1 -13 1zM84 184q11 0 46 111l-33 -3q-20 -93 -18 -100q0 -8 5 -8z" />
    <glyph glyph-name="germandbls" unicode="&#xdf;" horiz-adv-x="390" 
d="M132 -2q40 0 58.5 32t18.5 70t-13.5 65.5t-29.5 44.5q-44 47 -44 95q0 64 57 116q24 22 48 43q57 52 57 104q0 31 -18.5 51.5t-51.5 20.5q-58 0 -94 -51t-52 -132.5t-28 -179.5t-29 -196.5t-45.5 -180t-88 -132.5t-147.5 -51q-106 0 -138 73q-11 24 -11 50t14 54
q24 45 68 45q21 0 27 -14l3 -5q-44 0 -63 -46q-8 -20 -8 -42.5t15 -46.5q28 -44 96.5 -44t118 51t74.5 132t42.5 179.5t33.5 197t38.5 179.5t66 132t103.5 51t90 -28t30 -65.5t-19 -64.5t-46 -48t-55 -41q-65 -49 -65 -105q0 -52 53 -101q21 -18 37.5 -48t16.5 -72t-32 -78
t-89.5 -36t-77.5 46q-10 23 -10 46t12 48q22 47 62 47q25 0 25 -21q-39 -13 -56 -52q-7 -16 -7 -35q0 -57 53 -57z" />
    <glyph glyph-name="agrave" unicode="&#xe0;" 
d="M180 637q36 -33 68.5 -72.5t32.5 -49t-10.5 -9.5t-45.5 25t-72 61q-14 14 -14 24t6 20t15.5 10t19.5 -9zM28 -1q-79 0 -79 119q0 69 36 151q50 111 127 145q27 11 54.5 11t43.5 -16t16 -36q0 -9 -9.5 -8.5t-9.5 9.5t-9.5 16.5t-27.5 7.5q-63 0 -114 -113
q-48 -105 -48 -199q0 -58 25.5 -58t62 43.5t67.5 101.5q67 122 79 157t26 35q25 0 25 -42q0 -13 -3 -30q-33 -160 -35.5 -185t-2.5 -36q0 -48 23 -48q26 0 73 69t81 138l34 69h27q-6 -12 -15.5 -32.5t-37.5 -73t-53.5 -92.5t-57 -72.5t-54.5 -32.5q-74 0 -74 108q0 36 8 84
h-7q-102 -190 -171 -190z" />
    <glyph glyph-name="aacute" unicode="&#xe1;" 
d="M297 617q-30 -37 -67.5 -72t-48 -35t-10.5 11t23.5 47.5t56.5 73.5q12 15 23 15t21 -4.5t10 -14t-8 -21.5zM28 -1q-79 0 -79 119q0 69 36 151q50 111 127 145q27 11 54.5 11t43.5 -16t16 -36q0 -9 -9.5 -8.5t-9.5 9.5t-9.5 16.5t-27.5 7.5q-63 0 -114 -113
q-48 -105 -48 -199q0 -58 25.5 -58t62 43.5t67.5 101.5q67 122 79 157t26 35q25 0 25 -42q0 -13 -3 -30q-33 -160 -35.5 -185t-2.5 -36q0 -48 23 -48q26 0 73 69t81 138l34 69h27q-6 -12 -15.5 -32.5t-37.5 -73t-53.5 -92.5t-57 -72.5t-54.5 -32.5q-74 0 -74 108q0 36 8 84
h-7q-102 -190 -171 -190z" />
    <glyph glyph-name="acircumflex" unicode="&#xe2;" 
d="M240.5 614q6.5 0 9.5 -7l50 -99h-24l-38 64l-109 -64h-25q81 67 105.5 86.5t31 19.5zM28 -1q-79 0 -79 119q0 69 36 151q50 111 127 145q27 11 54.5 11t43.5 -16t16 -36q0 -9 -9.5 -8.5t-9.5 9.5t-9.5 16.5t-27.5 7.5q-63 0 -114 -113q-48 -105 -48 -199q0 -58 25.5 -58
t62 43.5t67.5 101.5q67 122 79 157t26 35q25 0 25 -42q0 -13 -3 -30q-33 -160 -35.5 -185t-2.5 -36q0 -48 23 -48q26 0 73 69t81 138l34 69h27q-6 -12 -15.5 -32.5t-37.5 -73t-53.5 -92.5t-57 -72.5t-54.5 -32.5q-74 0 -74 108q0 36 8 84h-7q-102 -190 -171 -190z" />
    <glyph glyph-name="atilde" unicode="&#xe3;" 
d="M145 550q-25 0 -49 -42h-23q2 6 12.5 21.5t20.5 24.5q26 25 61 25q19 0 47 -19.5t44.5 -19.5t28.5 9t22 27h22q-3 -8 -9.5 -20t-29.5 -31.5t-47.5 -19.5t-54.5 22.5t-45 22.5zM28 -1q-79 0 -79 119q0 69 36 151q50 111 127 145q27 11 54.5 11t43.5 -16t16 -36
q0 -9 -9.5 -8.5t-9.5 9.5t-9.5 16.5t-27.5 7.5q-63 0 -114 -113q-48 -105 -48 -199q0 -58 25.5 -58t62 43.5t67.5 101.5q67 122 79 157t26 35q25 0 25 -42q0 -13 -3 -30q-33 -160 -35.5 -185t-2.5 -36q0 -48 23 -48q26 0 73 69t81 138l34 69h27q-6 -12 -15.5 -32.5
t-37.5 -73t-53.5 -92.5t-57 -72.5t-54.5 -32.5q-74 0 -74 108q0 36 8 84h-7q-102 -190 -171 -190z" />
    <glyph glyph-name="adieresis" unicode="&#xe4;" 
d="M174 599q23 0 23 -31t-30 -50q-15 -10 -26 -10q-16 0 -19 10l-1 3q9 0 13 19.5t12.5 39t27.5 19.5zM300 599q23 0 23 -31t-30 -50q-15 -10 -26 -10q-16 0 -19 10l-1 3q9 0 13 19.5t12.5 39t27.5 19.5zM28 -1q-79 0 -79 119q0 69 36 151q50 111 127 145q27 11 54.5 11
t43.5 -16t16 -36q0 -9 -9.5 -8.5t-9.5 9.5t-9.5 16.5t-27.5 7.5q-63 0 -114 -113q-48 -105 -48 -199q0 -58 25.5 -58t62 43.5t67.5 101.5q67 122 79 157t26 35q25 0 25 -42q0 -13 -3 -30q-33 -160 -35.5 -185t-2.5 -36q0 -48 23 -48q26 0 73 69t81 138l34 69h27
q-6 -12 -15.5 -32.5t-37.5 -73t-53.5 -92.5t-57 -72.5t-54.5 -32.5q-74 0 -74 108q0 36 8 84h-7q-102 -190 -171 -190z" />
    <glyph glyph-name="aring" unicode="&#xe5;" 
d="M179 633q19 19 47.5 19t47.5 -19t19 -47t-19 -47t-47.5 -19t-47.5 19.5t-19 47t19 46.5zM194 554.5q13 -13.5 31.5 -13.5t32 13.5t13.5 32t-13.5 31.5t-32.5 13t-31.5 -13t-12.5 -31.5t13 -32zM28 -1q-79 0 -79 119q0 69 36 151q50 111 127 145q27 11 54.5 11t43.5 -16
t16 -36q0 -9 -9.5 -8.5t-9.5 9.5t-9.5 16.5t-27.5 7.5q-63 0 -114 -113q-48 -105 -48 -199q0 -58 25.5 -58t62 43.5t67.5 101.5q67 122 79 157t26 35q25 0 25 -42q0 -13 -3 -30q-33 -160 -35.5 -185t-2.5 -36q0 -48 23 -48q26 0 73 69t81 138l34 69h27q-6 -12 -15.5 -32.5
t-37.5 -73t-53.5 -92.5t-57 -72.5t-54.5 -32.5q-74 0 -74 108q0 36 8 84h-7q-102 -190 -171 -190z" />
    <glyph glyph-name="ae" unicode="&#xe6;" horiz-adv-x="572" 
d="M252 146q0 -121 86 -121q32 0 67.5 28.5t63.5 68.5q65 92 91 150l13 28h27q-17 -40 -50 -98.5t-63 -98.5t-71 -72.5t-78 -32.5q-81 0 -117 52q-30 44 -30 106q0 12 1 25q-106 -182 -164 -182q-79 0 -79 119q0 69 36 151q50 111 127 145q27 11 54.5 11t43.5 -16t16 -36
q0 -9 -9.5 -8.5t-9.5 9.5t-9.5 16.5t-27.5 7.5q-63 0 -114 -113q-48 -105 -48 -199q0 -58 25 -58q22 0 58 42q63 75 120 191q80 164 177 164q64 0 64 -70q0 -52 -40 -108q-56 -76 -131 -77q-11 0 -14 10l-1 4q52 0 99.5 68.5t47.5 114.5q0 31 -24 31q-53 0 -98 -93
q-39 -79 -39 -159z" />
    <glyph glyph-name="ccedilla" unicode="&#xe7;" horiz-adv-x="339" 
d="M24 142q0 -117 81 -117q32 0 67.5 28.5t64.5 68.5q64 92 90 150l13 28h27q-3 -6 -8 -17t-21 -42.5t-32.5 -59.5t-41.5 -63t-49 -60q-59 -60 -110 -60l-29 -52q24 13 56 13q49 0 58 -37q1 -7 1 -14q0 -29 -33 -57.5t-87 -28.5t-60 30q-4 21 13 28q4 2 9 2q11 0 12 -9l1 -3
q-13 0 -15 -12q-2 -17 20 -22l13 -1q58 0 83 43q10 16 10 29t-9.5 23.5t-32 10.5t-54.5 -16h-2q-11 7 -3.5 26t26.5 49q-118 14 -118 159q0 84 49 165q60 101 147 101q27 0 43 -15q19 -18 19 -41.5t-5 -43.5t-20.5 -35.5t-34.5 -15.5q-8 0 -12 11q8 0 21.5 28.5t13.5 56.5
t-24 28q-52 0 -94.5 -87t-42.5 -169z" />
    <glyph glyph-name="egrave" unicode="&#xe8;" horiz-adv-x="345" 
d="M102 637q36 -33 68.5 -72.5t32.5 -49t-10.5 -9.5t-45.5 25t-72 61q-14 14 -14 24t6 20t15.5 10t19.5 -9zM25 146q0 -121 86 -121q32 0 67.5 28.5t64.5 68.5q64 92 90 150l13 28h27q-17 -40 -50 -98.5t-63 -98.5t-71 -72.5t-78 -32.5q-148 0 -148 166q0 77 45 154
q62 107 153 107q64 0 64 -70q0 -52 -40 -108q-56 -76 -131 -77q-11 0 -14 10l-1 4q52 0 99.5 68.5t47.5 114.5q0 31 -24 31q-53 0 -99 -93q-38 -79 -38 -159z" />
    <glyph glyph-name="eacute" unicode="&#xe9;" horiz-adv-x="345" 
d="M249 617q-30 -37 -67.5 -72t-48 -35t-10.5 11t23.5 47.5t56.5 73.5q12 15 23 15t21 -4.5t10 -14t-8 -21.5zM25 146q0 -121 86 -121q32 0 67.5 28.5t64.5 68.5q64 92 90 150l13 28h27q-17 -40 -50 -98.5t-63 -98.5t-71 -72.5t-78 -32.5q-148 0 -148 166q0 77 45 154
q62 107 153 107q64 0 64 -70q0 -52 -40 -108q-56 -76 -131 -77q-11 0 -14 10l-1 4q52 0 99.5 68.5t47.5 114.5q0 31 -24 31q-53 0 -99 -93q-38 -79 -38 -159z" />
    <glyph glyph-name="ecircumflex" unicode="&#xea;" horiz-adv-x="345" 
d="M171 614q6 0 10 -7l50 -99h-24l-38 64l-109 -64h-25q81 67 105.5 86.5t30.5 19.5zM25 146q0 -121 86 -121q32 0 67.5 28.5t64.5 68.5q64 92 90 150l13 28h27q-17 -40 -50 -98.5t-63 -98.5t-71 -72.5t-78 -32.5q-148 0 -148 166q0 77 45 154q62 107 153 107q64 0 64 -70
q0 -52 -40 -108q-56 -76 -131 -77q-11 0 -14 10l-1 4q52 0 99.5 68.5t47.5 114.5q0 31 -24 31q-53 0 -99 -93q-38 -79 -38 -159z" />
    <glyph glyph-name="edieresis" unicode="&#xeb;" horiz-adv-x="345" 
d="M115 599q23 0 23 -31t-30 -50q-15 -10 -26 -10q-16 0 -19 10l-1 3q9 0 13 19.5t12.5 39t27.5 19.5zM241 599q23 0 23 -31t-30 -50q-15 -10 -26 -10q-16 0 -19 10l-1 3q9 0 13 19.5t12.5 39t27.5 19.5zM25 146q0 -121 86 -121q32 0 67.5 28.5t64.5 68.5q64 92 90 150
l13 28h27q-17 -40 -50 -98.5t-63 -98.5t-71 -72.5t-78 -32.5q-148 0 -148 166q0 77 45 154q62 107 153 107q64 0 64 -70q0 -52 -40 -108q-56 -76 -131 -77q-11 0 -14 10l-1 4q52 0 99.5 68.5t47.5 114.5q0 31 -24 31q-53 0 -99 -93q-38 -79 -38 -159z" />
    <glyph glyph-name="igrave" unicode="&#xec;" horiz-adv-x="230" 
d="M43 24q26 0 73 69t81 138l34 69h27q-6 -12 -15.5 -32.5t-37.5 -73t-53.5 -92.5t-57 -72.5t-54.5 -32.5q-74 0 -74 96q0 72 41 234q4 17 6.5 26t5.5 23.5t6 26.5q5 21 18 21q18 0 26 -26q4 -12 4 -29t-4 -35.5t-13 -54.5t-14 -59t-11 -56q-11 -55 -11 -97.5t23 -42.5z
M14 637q36 -33 68.5 -72.5t32.5 -49t-10.5 -9.5t-45.5 25t-72 61q-14 14 -14 24t6 20t15.5 10t19.5 -9z" />
    <glyph glyph-name="iacute" unicode="&#xed;" horiz-adv-x="230" 
d="M43 24q26 0 73 69t81 138l34 69h27q-6 -12 -15.5 -32.5t-37.5 -73t-53.5 -92.5t-57 -72.5t-54.5 -32.5q-74 0 -74 96q0 72 41 234q4 17 6.5 26t5.5 23.5t6 26.5q5 21 18 21q18 0 26 -26q4 -12 4 -29t-4 -35.5t-13 -54.5t-14 -59t-11 -56q-11 -55 -11 -97.5t23 -42.5z
M171 617q-30 -37 -67.5 -72t-48 -35t-10.5 11t23.5 47.5t56.5 73.5q12 15 23 15t21 -4.5t10 -14t-8 -21.5z" />
    <glyph glyph-name="icircumflex" unicode="&#xee;" horiz-adv-x="230" 
d="M42 24q26 0 73 69t81 138l34 69h27q-6 -12 -15.5 -32.5t-37.5 -73t-53.5 -92.5t-57 -72.5t-54.5 -32.5q-74 0 -74 96q0 72 41 234q4 17 6.5 26t5.5 23.5t6 26.5q5 21 18 21q18 0 26 -26q4 -12 4 -29t-4 -35.5t-13 -54.5t-14 -59t-11 -56q-11 -55 -11 -97.5t23 -42.5z
M93.5 614q6.5 0 9.5 -7l50 -99h-24l-38 64l-109 -64h-25q81 67 105.5 86.5t31 19.5z" />
    <glyph glyph-name="idieresis" unicode="&#xef;" horiz-adv-x="230" 
d="M43 24q26 0 73 69t81 138l34 69h27q-6 -12 -15.5 -32.5t-37.5 -73t-53.5 -92.5t-57 -72.5t-54.5 -32.5q-74 0 -74 96q0 72 41 234q4 17 6.5 26t5.5 23.5t6 26.5q5 21 18 21q18 0 26 -26q4 -12 4 -29t-4 -35.5t-13 -54.5t-14 -59t-11 -56q-11 -55 -11 -97.5t23 -42.5z
M38 599q23 0 23 -31t-30 -50q-15 -10 -26 -10q-16 0 -19 10l-1 3q9 0 13 19.5t12.5 39t27.5 19.5zM164 599q23 0 23 -31t-30 -50q-15 -10 -26 -10q-16 0 -19 10l-1 3q9 0 13 19.5t12.5 39t27.5 19.5z" />
    <glyph glyph-name="eth" unicode="&#xf0;" horiz-adv-x="499" 
d="M311 525q49 -73 49 -196q0 -187 -109 -295q-64 -63 -152 -63q-99 0 -128 101q-11 36 -11 72q0 65 33 129q51 101 146 101q37 0 62 -18q42 -33 42 -107q0 -38 -12 -76q-5 -16 -19 -17q-8 -1 -4 10q14 36 14 66q0 115 -75 115q-63 0 -102 -89q-28 -63 -28 -126q0 -25 4 -50
q16 -89 86 -89q43 0 81 38q69 69 99 227q11 55 11 89q0 105 -24 158l-52 -28q-11 -7 -11 2q0 11 31 29q10 6 23 14q-29 52 -81 52l-7 26q74 0 122 -58l72 42q13 8 13 -2q0 -15 -36 -35z" />
    <glyph glyph-name="ntilde" unicode="&#xf1;" horiz-adv-x="407" 
d="M136 550q-25 0 -49 -42h-23q2 6 12.5 21.5t20.5 24.5q26 25 61 25q19 0 47 -19.5t44.5 -19.5t28.5 9t22 27h22q-3 -8 -9.5 -20t-29.5 -31.5t-47.5 -19.5t-54.5 22.5t-45 22.5zM-15 0q-28 0 -28 43q0 23 56 335q3 21 18 21q18 0 27 -26q5 -14 5 -30.5t-4 -35.5l-16 -80h6
q90 202 172 202q32 0 49 -19.5t17 -53.5t-27 -147t-27 -157q0 -65 24 -65q0 -7 -9 -14t-21 -7q-58 0 -58 91q0 56 30.5 169.5t30.5 145t-25 31.5q-36 0 -86.5 -94t-81 -179.5t-35 -107.5t-17.5 -22z" />
    <glyph glyph-name="ograve" unicode="&#xf2;" horiz-adv-x="393" 
d="M135 637q36 -33 68.5 -72.5t32.5 -49t-10.5 -9.5t-45.5 25t-72 61q-14 14 -14 24t6 20t15.5 10t19.5 -9zM23 132q0 -105 56 -105q38 0 71 47q63 88 77 232q-35 15 -49 49q-9 21 -9 35.5t4 25.5q9 27 33 27t36.5 -30.5t12.5 -77.5v-7q12 -4 35.5 -4t41.5 19t18 35
q0 4 5 5.5t9.5 -0.5t4.5 -6q0 -29 -24.5 -55t-65.5 -26q-10 0 -26 2q-6 -68 -28.5 -134.5t-62.5 -115t-86 -48.5q-87 0 -107 93q-5 27 -5 55q0 63 29 135q38 94 94 117q29 10 40 3t14 -16q-46 0 -82 -86t-36 -169z" />
    <glyph glyph-name="oacute" unicode="&#xf3;" horiz-adv-x="393" 
d="M262 617q-30 -37 -67.5 -72t-48 -35t-10.5 11t23.5 47.5t56.5 73.5q12 15 23 15t21 -4.5t10 -14t-8 -21.5zM23 132q0 -105 56 -105q38 0 71 47q63 88 77 232q-35 15 -49 49q-9 21 -9 35.5t4 25.5q9 27 33 27t36.5 -30.5t12.5 -77.5v-7q12 -4 35.5 -4t41.5 19t18 35
q0 4 5 5.5t9.5 -0.5t4.5 -6q0 -29 -24.5 -55t-65.5 -26q-10 0 -26 2q-6 -68 -28.5 -134.5t-62.5 -115t-86 -48.5q-87 0 -107 93q-5 27 -5 55q0 63 29 135q38 94 94 117q29 10 40 3t14 -16q-46 0 -82 -86t-36 -169z" />
    <glyph glyph-name="ocircumflex" unicode="&#xf4;" horiz-adv-x="393" 
d="M214 614q6 0 10 -7l50 -99h-24l-38 64l-109 -64h-25q81 67 105.5 86.5t30.5 19.5zM23 132q0 -105 56 -105q38 0 71 47q63 88 77 232q-35 15 -49 49q-9 21 -9 35.5t4 25.5q9 27 33 27t36.5 -30.5t12.5 -77.5v-7q12 -4 35.5 -4t41.5 19t18 35q0 4 5 5.5t9.5 -0.5t4.5 -6
q0 -29 -24.5 -55t-65.5 -26q-10 0 -26 2q-6 -68 -28.5 -134.5t-62.5 -115t-86 -48.5q-87 0 -107 93q-5 27 -5 55q0 63 29 135q38 94 94 117q29 10 40 3t14 -16q-46 0 -82 -86t-36 -169z" />
    <glyph glyph-name="otilde" unicode="&#xf5;" horiz-adv-x="393" 
d="M120 550q-25 0 -49 -42h-23q2 6 12.5 21.5t20.5 24.5q26 25 61 25q19 0 47 -19.5t44.5 -19.5t28.5 9t22 27h22q-3 -8 -9.5 -20t-29.5 -31.5t-47.5 -19.5t-54.5 22.5t-45 22.5zM23 132q0 -105 56 -105q38 0 71 47q63 88 77 232q-35 15 -49 49q-9 21 -9 35.5t4 25.5
q9 27 33 27t36.5 -30.5t12.5 -77.5v-7q12 -4 35.5 -4t41.5 19t18 35q0 4 5 5.5t9.5 -0.5t4.5 -6q0 -29 -24.5 -55t-65.5 -26q-10 0 -26 2q-6 -68 -28.5 -134.5t-62.5 -115t-86 -48.5q-87 0 -107 93q-5 27 -5 55q0 63 29 135q38 94 94 117q29 10 40 3t14 -16q-46 0 -82 -86
t-36 -169z" />
    <glyph glyph-name="odieresis" unicode="&#xf6;" horiz-adv-x="393" 
d="M125 599q23 0 23 -31t-30 -50q-15 -10 -26 -10q-16 0 -19 10l-1 3q9 0 13 19.5t12.5 39t27.5 19.5zM251 599q23 0 23 -31t-30 -50q-15 -10 -26 -10q-16 0 -19 10l-1 3q9 0 13 19.5t12.5 39t27.5 19.5zM23 132q0 -105 56 -105q38 0 71 47q63 88 77 232q-35 15 -49 49
q-9 21 -9 35.5t4 25.5q9 27 33 27t36.5 -30.5t12.5 -77.5v-7q12 -4 35.5 -4t41.5 19t18 35q0 4 5 5.5t9.5 -0.5t4.5 -6q0 -29 -24.5 -55t-65.5 -26q-10 0 -26 2q-6 -68 -28.5 -134.5t-62.5 -115t-86 -48.5q-87 0 -107 93q-5 27 -5 55q0 63 29 135q38 94 94 117q29 10 40 3
t14 -16q-46 0 -82 -86t-36 -169z" />
    <glyph glyph-name="divide" unicode="&#xf7;" horiz-adv-x="647" 
d="M484 301l-411 -2q-11 0 -11 8q0 16 32 22q8 1 18 1l404 -9q10 0 10 -5q0 -14 -42 -15zM269 238q24 0 24 -31t-29 -50q-14 -10 -25 -10q-16 0 -20 13q14 0 18 39q1 15 9 27t23 12zM321 490q24 0 24 -31t-29 -50q-14 -10 -25 -10q-16 0 -20 13q14 0 18 39q1 15 9 27t23 12z
" />
    <glyph glyph-name="oslash" unicode="&#xf8;" horiz-adv-x="396" 
d="M68 0q-103 7 -103 151q0 80 40 160q52 102 127 112l24 154q2 11 8 11q2 0 4 -2q15 -6 15 -34q0 -8 -3 -28.5t-17.5 -105t-35 -203.5t-31.5 -186q49 15 80 94t31 148q0 97 -48 97q9 26 32 26q56 0 56 -94.5t-45.5 -190.5t-109.5 -108q-9 -52 -18 -116q-2 -10 -5 -10
q-14 0 -14 27q0 8 13 98zM26 133q0 -97 46 -106l56 369q-45 -27 -73.5 -109.5t-28.5 -153.5z" />
    <glyph glyph-name="ugrave" unicode="&#xf9;" horiz-adv-x="467" 
d="M119 637q36 -33 68.5 -72.5t32.5 -49t-10.5 -9.5t-45.5 25t-72 61q-14 14 -14 24t6 20t15.5 10t19.5 -9zM279 24q26 0 73 69t81 138l34 69h27q-6 -12 -15.5 -32.5t-37.5 -73t-53.5 -92.5t-57 -72.5t-59.5 -32.5t-46 17q-22 22 -22 77t19 145h-7q-115 -236 -191 -236
q-67 0 -67 87q0 63 54 251l18 64.5t19 21.5q18 0 26 -26q4 -11 4 -27.5t-5 -36t-21 -74.5q-43 -148 -43 -199q0 -33 20 -33q25 0 59 45q36 47 59 91t37 72t28 58.5t22.5 50.5t16.5 38.5t8 19.5q9 21 20 21q18 0 26 -26q4 -12 4 -29t-4 -35.5t-13 -54.5t-14 -59t-12 -56
q-10 -55 -10 -97.5t23 -42.5z" />
    <glyph glyph-name="uacute" unicode="&#xfa;" horiz-adv-x="467" 
d="M298 617q-30 -37 -67.5 -72t-48 -35t-10.5 11t23.5 47.5t56.5 73.5q12 15 23 15t21 -4.5t10 -14t-8 -21.5zM279 24q26 0 73 69t81 138l34 69h27q-6 -12 -15.5 -32.5t-37.5 -73t-53.5 -92.5t-57 -72.5t-59.5 -32.5t-46 17q-22 22 -22 77t19 145h-7q-115 -236 -191 -236
q-67 0 -67 87q0 63 54 251l18 64.5t19 21.5q18 0 26 -26q4 -11 4 -27.5t-5 -36t-21 -74.5q-43 -148 -43 -199q0 -33 20 -33q25 0 59 45q36 47 59 91t37 72t28 58.5t22.5 50.5t16.5 38.5t8 19.5q9 21 20 21q18 0 26 -26q4 -12 4 -29t-4 -35.5t-13 -54.5t-14 -59t-12 -56
q-10 -55 -10 -97.5t23 -42.5z" />
    <glyph glyph-name="ucircumflex" unicode="&#xfb;" horiz-adv-x="467" 
d="M211.5 614q6.5 0 9.5 -7l50 -99h-24l-38 64l-109 -64h-25q81 67 105.5 86.5t31 19.5zM279 24q26 0 73 69t81 138l34 69h27q-6 -12 -15.5 -32.5t-37.5 -73t-53.5 -92.5t-57 -72.5t-59.5 -32.5t-46 17q-22 22 -22 77t19 145h-7q-115 -236 -191 -236q-67 0 -67 87
q0 63 54 251l18 64.5t19 21.5q18 0 26 -26q4 -11 4 -27.5t-5 -36t-21 -74.5q-43 -148 -43 -199q0 -33 20 -33q25 0 59 45q36 47 59 91t37 72t28 58.5t22.5 50.5t16.5 38.5t8 19.5q9 21 20 21q18 0 26 -26q4 -12 4 -29t-4 -35.5t-13 -54.5t-14 -59t-12 -56q-10 -55 -10 -97.5
t23 -42.5z" />
    <glyph glyph-name="udieresis" unicode="&#xfc;" horiz-adv-x="467" 
d="M135 599q23 0 23 -31t-30 -50q-15 -10 -26 -10q-16 0 -19 10l-1 3q9 0 13 19.5t12.5 39t27.5 19.5zM261 599q23 0 23 -31t-30 -50q-15 -10 -26 -10q-16 0 -19 10l-1 3q9 0 13 19.5t12.5 39t27.5 19.5zM279 24q26 0 73 69t81 138l34 69h27q-6 -12 -15.5 -32.5t-37.5 -73
t-53.5 -92.5t-57 -72.5t-59.5 -32.5t-46 17q-22 22 -22 77t19 145h-7q-115 -236 -191 -236q-67 0 -67 87q0 63 54 251l18 64.5t19 21.5q18 0 26 -26q4 -11 4 -27.5t-5 -36t-21 -74.5q-43 -148 -43 -199q0 -33 20 -33q25 0 59 45q36 47 59 91t37 72t28 58.5t22.5 50.5
t16.5 38.5t8 19.5q9 21 20 21q18 0 26 -26q4 -12 4 -29t-4 -35.5t-13 -54.5t-14 -59t-12 -56q-10 -55 -10 -97.5t23 -42.5z" />
    <glyph glyph-name="yacute" unicode="&#xfd;" horiz-adv-x="404" 
d="M268 617q-30 -37 -67.5 -72t-48 -35t-10.5 11t23.5 47.5t56.5 73.5q12 15 23 15t21 -4.5t10 -14t-8 -21.5zM-56 -399q-95 0 -95 97q0 57 43 123q62 97 166 128q37 11 77 11q7 0 7 -14t-7 -14q-118 0 -198 -93q-59 -70 -59 -135t50 -75l16 -1q83 0 133 70
q35 50 52.5 101.5t26 82.5t19.5 81.5t17.5 85.5t19 100.5t19.5 103.5h-6q-121 -253 -199 -253q-67 0 -67 87q0 63 54 251l18 64.5t19 21.5q18 0 26 -26q4 -11 4 -27.5t-5 -36t-21 -74.5q-43 -148 -43 -199q0 -33 20 -33q24 0 59.5 45t69.5 110q62 118 101 220q8 21 20 21
q17 0 25 -26q4 -14 4 -31t-16.5 -98t-33 -155t-43 -174t-50 -149t-57 -100t-74.5 -70.5t-92 -19.5z" />
    <glyph glyph-name="thorn" unicode="&#xfe;" horiz-adv-x="479" 
d="M256 429q32 0 49 -19.5t17 -53.5t-27 -147t-27 -157q0 -65 24 -65q0 -7 -9 -14t-21 -7q-58 0 -58 91q0 56 30.5 169.5t30.5 145t-25 31.5q-41 0 -79 -82.5t-66.5 -200.5t-54.5 -236t-53 -200.5t-52 -82.5q-18 3 -18 58.5t16 189t53.5 344t67.5 335.5q9 38 27.5 58.5
t31.5 20.5q25 0 18 -20q-50 -167 -94 -385.5t-62.5 -344t-18.5 -137t1 -11.5q14 0 32 74t40.5 180t51.5 212t75 180t100 74z" />
    <glyph glyph-name="ydieresis" unicode="&#xff;" horiz-adv-x="404" 
d="M145 599q23 0 23 -31t-30 -50q-15 -10 -26 -10q-16 0 -19 10l-1 3q9 0 13 19.5t12.5 39t27.5 19.5zM271 599q23 0 23 -31t-30 -50q-15 -10 -26 -10q-16 0 -19 10l-1 3q9 0 13 19.5t12.5 39t27.5 19.5zM-56 -399q-95 0 -95 97q0 57 43 123q62 97 166 128q37 11 77 11
q7 0 7 -14t-7 -14q-118 0 -198 -93q-59 -70 -59 -135t50 -75l16 -1q83 0 133 70q35 50 52.5 101.5t26 82.5t19.5 81.5t17.5 85.5t19 100.5t19.5 103.5h-6q-121 -253 -199 -253q-67 0 -67 87q0 63 54 251l18 64.5t19 21.5q18 0 26 -26q4 -11 4 -27.5t-5 -36t-21 -74.5
q-43 -148 -43 -199q0 -33 20 -33q24 0 59.5 45t69.5 110q62 118 101 220q8 21 20 21q17 0 25 -26q4 -14 4 -31t-16.5 -98t-33 -155t-43 -174t-50 -149t-57 -100t-74.5 -70.5t-92 -19.5z" />
    <glyph glyph-name="OE" unicode="&#x152;" horiz-adv-x="1186" 
d="M290 340q0 -149 83 -149q-3 -19 -33 -19q-72 0 -97 91q-10 39 -10 92.5t23 128.5q42 135 131 189q44 27 98.5 27t86 -46.5t31.5 -119t-21 -162.5q49 59 114 92q-16 34 -16 64.5t3 51.5q-46 21 -74 56q-37 49 -37 110q0 68 38 120q24 32 63 52.5t86 20.5q6 0 9.5 -4.5
t3.5 -8.5v-4q-65 0 -112 -38q-66 -55 -66 -130q0 -33 13 -66q23 -54 82 -83q24 89 99.5 152.5t185.5 63.5q83 0 106 -56q7 -17 7 -35q0 -37 -30 -78q-74 -98 -237 -98q-49 0 -87 9q-3 -19 -3 -40t7 -42q61 22 129.5 22t83.5 -35q3 -8 3 -15q0 -21 -32 -42t-99 -21t-108 46
q-89 -57 -131 -168q-28 -74 -28 -144q0 -35 7 -68q21 -102 98 -137v6q0 93 30.5 182t96.5 153.5t152 64.5t111 -78q9 -28 9 -58q0 -55 -30 -120q-52 -111 -157 -161q-64 -30 -138 -30q-12 0 -32 2q3 -82 37 -133t98 -51q-4 -17 -25 -17q-67 0 -105.5 58t-44.5 150
q-91 22 -134 95q-37 64 -37 144q0 13 1 26q-54 -93 -121.5 -149t-139.5 -56q-147 0 -203 136q-29 69 -29 147.5t20 161.5q44 183 158 304.5t255 121.5q8 0 13 -5t6 -16q-138 0 -248 -155q-97 -137 -127 -319q-10 -61 -10 -113q0 -101 41 -170t125 -69q112 0 212 152
q88 134 120 302q12 62 12 109q0 74 -29 112q-23 27 -57 27q-89 0 -148 -121q-52 -106 -52 -212zM947 301q-67 0 -124.5 -62.5t-88 -152.5t-32.5 -179q13 -3 30 -3q146 0 233 113q64 83 64 169t-50 108q-14 7 -32 7zM819 579q116 0 182 72q39 42 39 82q0 9 -1 17
q-12 47 -72 48q-82 0 -145.5 -64t-83.5 -147q37 -8 81 -8zM866 481q-62 0 -117 -25q27 -42 90.5 -42t81.5 28q4 7 4 12q0 13 -17.5 20t-41.5 7z" />
    <glyph glyph-name="oe" unicode="&#x153;" horiz-adv-x="576" 
d="M255 146q0 -121 86 -121q32 0 67.5 28.5t63.5 68.5q65 92 91 150l13 28h27q-17 -40 -50 -98.5t-63 -98.5t-71 -72.5t-78 -32.5q-116 0 -141 109q-53 -107 -124 -107q-112 0 -112 151q0 83 44 167q56 106 136 106q10 0 17 -4.5t10 -13.5q-62 0 -105 -92t-43 -181
q0 -106 56 -106q53 0 90.5 83t37.5 163q0 95 -49 95q9 26 32 26q44 0 53 -70q63 101 148 101q64 0 64 -70q0 -52 -40 -108q-56 -76 -131 -77q-11 0 -14 10l-1 4q52 0 99.5 68.5t47.5 114.5q0 31 -24 31q-53 0 -98 -93q-39 -79 -39 -159z" />
    <glyph glyph-name="Scaron" unicode="&#x160;" horiz-adv-x="718" 
d="M603 1013h24l54 -64l93 64h25q-81 -67 -121 -99q-18 -14 -25 0zM69 -12q-33 62 -33 146q0 78 26.5 139.5t58 99t77 60t96.5 22.5q72 0 115 -41l131 110q-4 35 -4 69q0 222 117 222q30 0 47 -21t19 -54q1 -48 -30.5 -96t-92.5 -105q31 -207 31 -281.5t-19 -144t-58 -126.5
t-107 -89t-158 -32q-129 0 -195 88q-18 -63 -18 -143.5t42.5 -145t109.5 -64.5q5 0 5.5 -10t-5.5 -10q-79 0 -130 74.5t-51 165.5t26 167zM426 395q28 -38 28 -85.5t-14.5 -85t-51 -66t-84.5 -28.5q-10 0 -15.5 5t-7.5 16q43 0 79 40q52 56 52 126q0 29 -11 56
q-112 -96 -189 -188t-113 -200q57 -92 179 -92q75 0 131.5 31.5t88.5 85.5q63 106 63 257q0 37 -18 225zM386 394q-32 34 -88 34t-101 -27q-83 -50 -119 -168q-16 -50 -16 -103q0 -59 19 -109q69 173 305 373zM587 644q0 -27 5 -72q99 97 99 164q0 52 -38 52q-66 0 -66 -144
z" />
    <glyph glyph-name="scaron" unicode="&#x161;" horiz-adv-x="317" 
d="M53 708h24l54 -64l93 64h25q-81 -67 -121 -99q-18 -14 -25 0zM123 534h2q9 -1 14 -8t5 -14.5t-13.5 -31.5t-13.5 -38.5t4 -27t25 -60.5q46 -105 46 -187.5t-44.5 -136.5t-106 -54t-61.5 74.5t53 159.5q31 49 67 74q10 7 13.5 -3t-4.5 -16q-58 -42 -90 -133
q-29 -82 -6 -114q8 -12 23 -12q44 0 69 59t25 147q0 76 -18 141t-20 75q-30 -57 -65 -128h-27q57 113 88 170q4 64 35 64z" />
    <glyph glyph-name="Ydieresis" unicode="&#x178;" horiz-adv-x="643" 
d="M527 760q23 0 23 -31t-30 -50q-15 -10 -26 -10q-16 0 -20 13q9 0 13 19.5t12.5 39t27.5 19.5zM653 760q23 0 23 -31t-30 -50q-15 -10 -26 -10q-16 0 -20 13q9 0 13 19.5t12.5 39t27.5 19.5zM349 24q70 0 163 125q33 191 48 239q31 105 86 105q36 0 36 -43q0 -24 -11 -60
q-27 -92 -99 -202q-28 -230 -76 -348q-51 -125 -124 -184q-40 -33 -97 -54t-125 -21q-149 0 -209 103q-29 50 -29 95.5t11 81.5q26 90 99 127q35 17 75 17q106 0 145 -82q17 -36 17 -69t-12 -63q-26 -69 -85 -69q-9 0 -16 5t-11 14q45 0 70 61q12 30 12 60.5t-14 62.5
q-27 61 -109 61t-129 -79q-32 -53 -32 -111q0 -24 6 -49q21 -94 108 -127q39 -15 89.5 -15t95 15.5t78 40.5t61.5 64t47.5 79t36.5 93q25 82 48 201q-89 -99 -153 -99q-124 0 -124 134q0 56 22.5 126t49 126.5t49 129t22.5 136.5t-37 103t-102 39q-100 0 -163 -102
q-49 -81 -49 -171q0 -114 67 -145q20 -9 43 -9q77 0 117 86q2 4 6.5 4.5t8 -2.5t1.5 -7q-19 -47 -53 -75.5t-80 -28.5q-90 0 -122 91q-13 39 -13 88t21 110q39 115 125 162q43 23 91 23q92 0 141 -62.5t49 -165.5q0 -75 -32.5 -168.5t-65 -179.5t-32.5 -142q0 -75 59 -75z
M641 461q-25 0 -37 -49t-25 -160q72 127 75 186q0 22 -13 23z" />
    <glyph glyph-name="Zcaron" unicode="&#x17d;" horiz-adv-x="825" 
d="M488 1013h24l54 -64l93 64h25q-81 -67 -121 -99q-18 -14 -25 0zM748 831q50 0 50 -45q0 -39 -42.5 -78.5t-102.5 -39.5q-23 0 -34 2q-25 -46 -75.5 -155t-76.5 -160q122 52 169 191q2 6 11 7.5t17 -2.5t6 -11q-25 -75 -81.5 -133t-136.5 -83q-98 -183 -193 -262
q51 -36 79.5 -53.5t75.5 -35.5t89 -18q91 0 154 98q51 78 50 157q-7 69 -52 75q-58 0 -96 -59.5t-38 -112t19 -62.5q-5 -15 -18 -15q-42 0 -42 66.5t36 124.5q50 81 131 81q87 0 87 -108q0 -65 -42 -143q-55 -104 -142 -139q-34 -14 -73 -14t-76.5 10t-74 32t-56.5 37.5
t-57 46.5q-62 -37 -130 -37q-109 0 -139 55q-9 16 -9 35.5t20 40.5q29 34 80 34t97 -20.5t104 -59.5q86 71 174 236q-33 -5 -80 -5t-96 17.5t-78 47t-46.5 67.5t-17.5 80t9 84t32.5 80t54 67.5t73 47t92 17.5t95 -18t91 -44.5t76.5 -36.5q70 113 133 113zM319 781
q-91 0 -153 -86q-53 -73 -53 -158q0 -125 101 -177q55 -28 132 -28q42 0 78 9q26 49 81.5 166t84.5 168q-42 10 -90.5 37.5t-93 48t-87.5 20.5zM-39 80q0 -21 29 -42t89.5 -21t113.5 31q-48 40 -86.5 60.5t-83 20.5t-58.5 -31q-4 -9 -4 -18zM746 802q-47 0 -103 -91
q18 -3 37 -3q46 0 74 41q14 19 14 30q0 23 -22 23z" />
    <glyph glyph-name="zcaron" unicode="&#x17e;" horiz-adv-x="409" 
d="M164 612h24l54 -64l93 64h25q-81 -67 -121 -99q-18 -14 -25 0zM-8.5 24.5q-18.5 -24.5 -33.5 -24.5t-15 7q0 3 2 5q135 170 274 317q-30 -8 -60 -8q-87 0 -109 51q-5 13 -5 28.5t14.5 32t32.5 16.5t26.5 -6.5t11.5 -19.5q-15 0 -19 -17q-1 -5 -1 -9q0 -20 28 -31
q18 -7 53.5 -7t69.5 13q55 53 71 53q8 0 8 -6t-15 -27t-57 -44q-74 -82 -234 -272q4 1 16.5 1t53 -19t72.5 -19q58 0 78 47q6 15 6 28.5t-7 22.5t-17 9q2 13 15 13q37 0 37 -58q0 -42 -32 -83t-90 -41q-28 0 -50 11.5t-33 24.5q-32 36 -52.5 36t-39 -24.5z" />
    <glyph glyph-name="florin" unicode="&#x192;" horiz-adv-x="251" 
d="M173 425h-96q-4 -33 -10.5 -94.5t-11 -99.5t-13 -95.5t-16.5 -95t-22 -85.5t-30 -79t-39.5 -64t-50.5 -52q-61 -43 -142 -43q-106 0 -138 73q-11 24 -11 50t14 54q24 45 68 45q21 0 27 -14l3 -5q-44 0 -63 -46q-8 -20 -8 -42.5t15 -46.5q28 -44 93 -44q77 0 133 63
q81 92 121 384q17 130 34 237h-58q-8 0 -12 6t-0.5 11.5t12.5 5.5h62q35 212 98 296q53 71 135.5 71t112.5 -66q12 -26 12 -52t-13 -53q-24 -48 -76 -48q-19 0 -27 14l-3 5q26 0 45 18q31 28 31 78q0 39 -23.5 58.5t-63.5 19.5t-73 -25.5t-54 -75.5q-35 -84 -55 -240h93
q9 0 12.5 -6t0 -11.5t-12.5 -5.5z" />
    <glyph glyph-name="circumflex" unicode="&#x2c6;" horiz-adv-x="298" 
d="M191.5 614q6.5 0 9.5 -7l50 -99h-24l-38 64l-109 -64h-25q81 67 105.5 86.5t31 19.5z" />
    <glyph glyph-name="dotaccent" unicode="&#x2d9;" horiz-adv-x="281" 
d="M155 600q23 0 23 -31t-30 -50q-15 -10 -26 -10q-16 0 -20 13q9 0 13 19.5t12.5 39t27.5 19.5z" />
    <glyph glyph-name="tilde" unicode="&#x2dc;" horiz-adv-x="385" 
d="M140 550q-25 0 -49 -42h-23q2 6 12.5 21.5t20.5 24.5q26 25 61 25q19 0 47 -19.5t44.5 -19.5t28.5 9t22 27h22q-3 -8 -9.5 -20t-29.5 -31.5t-47.5 -19.5t-54.5 22.5t-45 22.5z" />
    <glyph glyph-name="endash" unicode="&#x2013;" horiz-adv-x="708" 
d="M490 210l-406 -2q-11 0 -11 8q0 16 32 22q8 1 18 1l399 -9q10 0 10 -5q0 -14 -42 -15z" />
    <glyph glyph-name="emdash" unicode="&#x2014;" horiz-adv-x="855" 
d="M633 210l-549 -2q-11 0 -11 8q0 16 32 22q8 1 18 1l542 -9q10 0 10 -5q0 -14 -42 -15z" />
    <glyph glyph-name="quoteleft" unicode="&#x2018;" horiz-adv-x="207" 
d="M67 743q-11 -38 -11 -76t-28 -38t-28 35q0 8 1 17q8 55 42 92q19 20 32 21q20 0 22 -10v-3q-19 0 -30 -38z" />
    <glyph glyph-name="quoteright" unicode="&#x2019;" horiz-adv-x="221" 
d="M154 680q11 38 11 76t28 38t28 -35q0 -8 -1 -17q-8 -55 -42 -92q-19 -20 -32 -21q-20 0 -22 10v3q19 0 30 38z" />
    <glyph glyph-name="quotesinglbase" unicode="&#x201a;" horiz-adv-x="207" 
d="M59 -42q11 38 11 76t28 38t28 -35q0 -8 -1 -17q-8 -55 -42 -92q-19 -20 -32 -21q-20 0 -21 10l-1 3q19 0 30 38z" />
    <glyph glyph-name="quotedblleft" unicode="&#x201c;" horiz-adv-x="313" 
d="M189 743q-11 -38 -11 -76t-28 -38t-28 35q0 8 1 17q8 55 42 92q19 20 32 21q20 0 22 -10v-3q-19 0 -30 -38zM67 743q-11 -38 -11 -76t-28 -38t-28 35q0 8 1 17q8 55 42 92q19 20 32 21q20 0 22 -10v-3q-19 0 -30 -38z" />
    <glyph glyph-name="quotedblright" unicode="&#x201d;" horiz-adv-x="338" 
d="M154 680q11 38 11 76t28 38t28 -35q0 -8 -1 -17q-8 -55 -42 -92q-19 -20 -32 -21q-20 0 -22 10v3q19 0 30 38zM276 680q11 38 11 76t28 38t28 -35q0 -8 -1 -17q-8 -55 -42 -92q-19 -20 -32 -21q-20 0 -22 10v3q19 0 30 38z" />
    <glyph glyph-name="quotedblbase" unicode="&#x201e;" horiz-adv-x="355" 
d="M59 -42q11 38 11 76t28 38t28 -35q0 -8 -1 -17q-8 -55 -42 -92q-19 -20 -32 -21q-20 0 -21 10l-1 3q19 0 30 38zM181 -42q11 38 11 76t28 38t28 -35q0 -8 -1 -17q-8 -55 -42 -92q-19 -21 -32 -21q-20 0 -21 10l-1 3q19 0 30 38z" />
    <glyph glyph-name="dagger" unicode="&#x2020;" horiz-adv-x="508" 
d="M111 -106q-5 -18 -15.5 -18t-10.5 14q0 22 8.5 50t28.5 99t49 178t48 175h-145q-11 0 -11 8q0 16 32 22q8 1 38 1t94 -3q53 192 70 245q8 25 27.5 25t17.5 -41q-1 -22 -10 -51l-57 -180q110 -4 148 -4q10 0 10 -5q0 -14 -42 -15l-125 -1q-124 -386 -155 -499z" />
    <glyph glyph-name="daggerdbl" unicode="&#x2021;" horiz-adv-x="631" 
d="M167 -106q-5 -18 -15.5 -18t-10.5 14q0 22 23 100.5t60 215.5h-177q-11 0 -11 8q0 16 32 22q8 1 18 1l146 -3l36 134q-75 -1 -198 -1q-12 0 -11 9q2 22 45 22t171 -4q64 229 78 271q8 25 27.5 25t17.5 -41q-1 -22 -14 -65t-62 -192q102 -3 198 -3q10 0 10 -5
q0 -14 -42 -15q-109 0 -173 -1l-44 -136q154 -4 226 -4q11 0 10 -6q-4 -14 -42 -14l-202 -1q-71 -224 -96 -313z" />
    <glyph glyph-name="bullet" unicode="&#x2022;" horiz-adv-x="399" 
d="M219 382q21 -21 21 -51.5t-21 -52t-51.5 -21.5t-52 21.5t-21.5 52t21.5 51.5t52 21t51.5 -21z" />
    <glyph glyph-name="ellipsis" unicode="&#x2026;" horiz-adv-x="627" 
d="M100 72q23 0 23 -31t-30 -50q-15 -10 -26 -10q-16 0 -20 13q9 0 13 19.5t12.5 39t27.5 19.5zM309 72q23 0 23 -31t-30 -50q-15 -10 -26 -10q-16 0 -20 13q9 0 13 19.5t12.5 39t27.5 19.5zM518 72q23 0 23 -31t-30 -50q-15 -10 -26 -10q-16 0 -20 13q9 0 13 19.5t12.5 39
t27.5 19.5z" />
    <glyph glyph-name="perthousand" unicode="&#x2030;" horiz-adv-x="1051" 
d="M158 -102q-10 0 -10 15t19 55t85.5 184.5t140.5 307t85 186.5q12 21 25 21t18 -11q10 -25 -19 -81q-3 -7 -148 -295.5t-181 -366.5q-7 -15 -15 -15zM250 477q0 100 -50 100q-31 0 -55 -26q-13 -13 -27 -10q-5 1 -2 6q36 53 95 53q65 0 80 -79q4 -21 4 -44q0 -60 -29 -127
q-39 -91 -101 -109q-12 -4 -25 -4q-43 0 -68 27q-27 31 -27 73t9 80t35 71t58 42q5 1 8 -3.5t2.5 -10t-3.5 -6.5q-31 -11 -49 -73q-13 -42 -13 -83q0 -95 48 -95t81 79q29 70 29 139zM579 199q0 100 -50 100q-31 0 -55 -26q-13 -13 -27 -10q-5 1 -2 6q36 53 95 53
q65 0 80 -79q4 -21 4 -44q0 -60 -29 -127q-39 -91 -101 -109q-12 -4 -25 -4q-43 0 -68 27q-27 31 -27 73t9 80t35 71t58 42q5 1 8 -3.5t2.5 -10t-3.5 -6.5q-31 -11 -50 -73q-12 -42 -12 -83q0 -95 48 -95t81 79q29 70 29 139zM885 199q0 100 -50 100q-31 0 -55 -26
q-13 -13 -27 -10q-5 1 -2 6q36 53 95 53q65 0 80 -79q4 -21 4 -44q0 -60 -29 -127q-39 -91 -101 -109l-25 -4q-43 0 -68 27q-27 31 -27 73t9 80t35 71t58 42q5 1 8 -3.5t2.5 -10t-3.5 -6.5q-31 -11 -50 -73q-12 -42 -12 -83q0 -95 48 -95t81 79q29 70 29 139z" />
    <glyph glyph-name="guilsinglleft" unicode="&#x2039;" horiz-adv-x="359" 
d="M170 68q-132 153 -132 164q0 6 6 10l178 113v-25l-139 -107l87 -128v-27z" />
    <glyph glyph-name="guilsinglright" unicode="&#x203a;" horiz-adv-x="376" 
d="M128 355q132 -153 132 -164q0 -6 -6 -10l-178 -113v25l139 107l-87 128v27z" />
    <glyph glyph-name="Euro" unicode="&#x20ac;" horiz-adv-x="545" 
d="M302 218l-165 -1q-4 -34 -4 -76.5t14 -83.5q22 -64 80 -64q70 0 125 85q8 13 22 3q7 -7 5 -12q-67 -98 -157 -98t-129 69q-29 53 -29 125q0 25 3 51h-89q-11 0 -11 6q0 19 50 19h54q10 57 35 116h-105q-12 0 -11 7q2 14 37 17l13 1q51 0 76 -1q45 96 114 157.5t148 61.5
q38 0 57 -20t19 -46t-19 -31q-18 -3 -19 11v6q0 22 -13 38t-41 16q-55 0 -103 -54t-81 -140q53 -1 179 -1q11 0 10 -6q-4 -14 -42 -14l-155 -1q-21 -58 -30 -118q116 -2 194 -2q11 0 10 -6q-4 -14 -42 -14z" />
    <glyph glyph-name="trademark" unicode="&#x2122;" horiz-adv-x="604" 
d="M304 715q7 0 7 -5v-1q-29 0 -33 -101q-2 -37 -19 -68.5t-50 -31.5t-42 24q-4 10 -4 21.5t9 26.5q13 23 35 23q9 0 11 -9q-31 0 -41 -31q-3 -9 -3 -20.5t9.5 -17.5t18.5 -6q26 0 39.5 30.5t16 67.5t13.5 67.5t33 30.5zM209 616q-44 0 -44 50q0 29 23 52t49 23t51 -7t47 -7
t20 13l-2 3q1 7 10 7t8 -13q-8 -18 -33 -21q-21 0 -48.5 7.5t-44.5 7.5q-45 0 -60 -42q-5 -14 -5 -29t11 -26.5t25 -11.5q-1 -6 -7 -6zM408 519q-27 0 -27 73q0 44 14 92t35 48l5 -5q-12 0 -22.5 -51.5t-10.5 -92.5t8 -48q5 0 14.5 48.5t27.5 97.5t43 49q7 0 7 -4v-2
q-26 0 -42.5 -51t-27.5 -102.5t-24 -51.5zM491 509q-1 -6 -5 -6q-27 0 -27 56t17 109t35 53l6 -4q-15 0 -29 -73q-10 -57 -10 -96t13 -39zM414 738q5 0 7 -6q-24 0 -38.5 -36.5t-20.5 -80.5t-26 -80.5t-54 -36.5l-6 11q29 0 48 36t26.5 78.5t23.5 78.5t40 36z" />
    <glyph glyph-name="CR" horiz-adv-x="300" 
 />
    <glyph glyph-name="_0127" horiz-adv-x="0" 
 />
    </font>
</defs>
</svg>
