<?xml version="1.0" standalone="no"?>
<!DOCTYPE svg PUBLIC "-//W3C//DTD SVG 1.1//EN" "http://www.w3.org/Graphics/SVG/1.1/DTD/svg11.dtd" >
<svg xmlns="http://www.w3.org/2000/svg" xmlns:xlink="http://www.w3.org/1999/xlink" version="1.1">
<metadata>
Created by FontForge 20230101 at Fri Oct 28 03:02:17 2011
 By Glenn Lewis
Copyright (c) 2011, Sorkin Type Co (www.sorkintype.com)with Reserved Font Names "Fjord" and "Fjord One"This Font Software is licensed under the SIL Open Font License, Version 1.1. This license is copied below, and is also available with a FAQ at: http://scripts.sil.org/OFL
</metadata>
<defs>
<font id="Fjord-One" horiz-adv-x="1522" >
  <font-face 
    font-family="Fjord"
    font-weight="400"
    font-stretch="normal"
    units-per-em="2048"
    panose-1="2 6 5 3 5 5 0 5 10 3"
    ascent="1638"
    descent="-410"
    x-height="950"
    cap-height="1448"
    bbox="-52 -620 2015.67 1940"
    underline-thickness="120"
    underline-position="-88"
    unicode-range="U+0020-FB02"
  />
<missing-glyph horiz-adv-x="1583" 
d="M160 523q0 87 22.5 167.5t63.5 150.5t98 127.5t127.5 98.5t151.5 63.5t169 22.5q87 0 168 -22.5t151 -63.5t127.5 -98.5t98.5 -127.5t63.5 -150.5t22.5 -167.5q0 -132 -49.5 -247.5t-135 -200.5t-200.5 -134t-246 -49q-88 0 -169 22t-151.5 63t-127.5 98t-98 127.5
t-63.5 151.5t-22.5 169zM390 319q66 42 148.5 85t189.5 81q-42 -100 -78.5 -193t-56.5 -181q14 -14 39.5 -24t52.5 -15t52 -6t38 2q-5 102 -1.5 194.5t11.5 188.5q57 -81 115.5 -161t130.5 -153q20 7 40.5 22.5t38.5 35t32 40t21 37.5q-26 11 -64.5 34.5t-82 53t-88.5 61
t-84 59.5q51 3 106.5 8.5t108.5 13t101 17t85 20.5q3 20 0.5 44.5t-9.5 49.5t-18.5 48.5t-26.5 42.5q-33 -21 -73.5 -45t-84.5 -47.5t-91.5 -45t-93.5 -38.5q49 84 82.5 181t55.5 200q-34 23 -84 31.5t-101 -1.5q10 -96 5 -187.5t-10 -187.5q-53 89 -116 165t-143 149
q-17 -9 -36 -24.5t-36.5 -34.5t-31.5 -39t-20 -36q41 -20 83 -45.5t83 -53.5t80.5 -57.5t75.5 -57.5q-97 -2 -200 -11.5t-197 -35.5q-3 -21 -0.5 -46t9.5 -50t18 -48t25 -40z" />
    <glyph glyph-name=".notdef" horiz-adv-x="1583" 
d="M160 523q0 87 22.5 167.5t63.5 150.5t98 127.5t127.5 98.5t151.5 63.5t169 22.5q87 0 168 -22.5t151 -63.5t127.5 -98.5t98.5 -127.5t63.5 -150.5t22.5 -167.5q0 -132 -49.5 -247.5t-135 -200.5t-200.5 -134t-246 -49q-88 0 -169 22t-151.5 63t-127.5 98t-98 127.5
t-63.5 151.5t-22.5 169zM390 319q66 42 148.5 85t189.5 81q-42 -100 -78.5 -193t-56.5 -181q14 -14 39.5 -24t52.5 -15t52 -6t38 2q-5 102 -1.5 194.5t11.5 188.5q57 -81 115.5 -161t130.5 -153q20 7 40.5 22.5t38.5 35t32 40t21 37.5q-26 11 -64.5 34.5t-82 53t-88.5 61
t-84 59.5q51 3 106.5 8.5t108.5 13t101 17t85 20.5q3 20 0.5 44.5t-9.5 49.5t-18.5 48.5t-26.5 42.5q-33 -21 -73.5 -45t-84.5 -47.5t-91.5 -45t-93.5 -38.5q49 84 82.5 181t55.5 200q-34 23 -84 31.5t-101 -1.5q10 -96 5 -187.5t-10 -187.5q-53 89 -116 165t-143 149
q-17 -9 -36 -24.5t-36.5 -34.5t-31.5 -39t-20 -36q41 -20 83 -45.5t83 -53.5t80.5 -57.5t75.5 -57.5q-97 -2 -200 -11.5t-197 -35.5q-3 -21 -0.5 -46t9.5 -50t18 -48t25 -40z" />
    <glyph glyph-name=".null" horiz-adv-x="0" 
 />
    <glyph glyph-name="nonmarkingreturn" horiz-adv-x="730" 
 />
    <glyph glyph-name="space" unicode=" " horiz-adv-x="473" 
 />
    <glyph glyph-name="exclam" unicode="!" horiz-adv-x="584" 
d="M215 785q-8 167 -14 332.5t-9 330.5q48 8 101.5 7t94.5 -7q-2 -164 -8 -332t-14 -334l-16 -406q-60 -12 -118 0zM178 85q0 25 5 46t17.5 36.5t34.5 24.5t56 9t56 -9t35 -24.5t18.5 -36.5t5.5 -46t-5.5 -46t-18.5 -36t-35 -23.5t-56 -8.5t-56 8.5t-34.5 23.5t-17.5 36
t-5 46z" />
    <glyph glyph-name="quotedbl" unicode="&#x22;" horiz-adv-x="751" 
d="M435 1042q3 33 5.5 72.5t5 79.5t4 76t1.5 63v115q12 7 38 9t52.5 1t47 -4t20.5 -6q0 -65 -7 -125t-18 -112.5t-25 -96.5t-27 -77zM142 1042q3 33 5.5 72.5t5 79.5t4 76t1.5 63v115q12 7 38 9t52.5 1t47 -4t20.5 -6q0 -65 -7 -125t-18 -112.5t-25 -96.5t-27 -77z" />
    <glyph glyph-name="numbersign" unicode="#" horiz-adv-x="1121" 
d="M277 282h-166l4 117h186l52 262h-188l5 119h206l48 239q35 4 59.5 -1t53.5 -21l-44 -217h239l48 239q35 4 59.5 -1t53.5 -21l-44 -217h163q2 -11 3 -27t1 -32.5t-1 -32.5t-3 -27h-187l-53 -262h185q2 -10 3 -26t1 -32.5t-1 -32.5t-3 -26h-208l-43 -214l-113 10l40 204
h-240l-43 -214l-113 10zM657 399l52 262h-240l-53 -262h241z" />
    <glyph glyph-name="dollar" unicode="$" horiz-adv-x="947" 
d="M153 302l97 3q5 -20 8.5 -42t5.5 -44t3 -42t2 -35q21 -11 40 -21t39 -18t42.5 -14t51.5 -9v376q-38 17 -74.5 32.5t-62.5 26.5q-81 32 -117.5 92t-36.5 149q0 56 17 106t52 88.5t90 63.5t132 32v150q9 2 20.5 3t24.5 1t25 -1t22 -3v-147q24 -1 55.5 -2.5t68 -5.5
t76.5 -11t82 -18q-1 -17 -2.5 -47.5t-6 -68t-13 -79.5t-23.5 -82l-90 5l-12 165q-23 14 -60 23.5t-75 14.5v-349q38 -16 82.5 -36t96.5 -48q133 -71 133 -222q0 -60 -15 -105.5t-40 -79.5t-57.5 -57t-67.5 -38t-69 -23t-63 -11v-141q-10 -3 -24 -4t-27.5 -1t-25 1.5
t-15.5 3.5v139q-47 3 -95 11t-91 18.5t-79.5 23.5t-61.5 27zM395 652q11 -5 22.5 -10.5t24.5 -10.5v313q-69 -9 -104.5 -51.5t-35.5 -105.5q0 -20 3.5 -38.5t13.5 -35t28 -32t48 -29.5zM534 81q56 11 93 47.5t47 90.5q3 21 2.5 43.5t-7.5 43.5t-21 38.5t-36 29.5
q-16 8 -35.5 18t-42.5 21v-332z" />
    <glyph glyph-name="percent" unicode="%" horiz-adv-x="1362" 
d="M957 1141q34 -5 55.5 -18.5t41.5 -35.5l-673 -1155l-99 45zM319 589q-69 0 -113.5 20.5t-71 56t-36.5 84t-10 105.5q0 54 17 102t50.5 83.5t84 56.5t117.5 21q72 0 117.5 -21t71.5 -56.5t35.5 -83.5t9.5 -102q0 -57 -17.5 -105.5t-52 -84t-85.5 -56t-117 -20.5zM338 683
q25 0 47 6.5t38.5 25.5t26.5 52.5t10 87.5q0 53 -8.5 86t-24.5 51.5t-38.5 25t-50.5 6.5q-25 0 -47 -6.5t-38.5 -25t-26 -51.5t-9.5 -86q0 -54 8 -87.5t24 -52.5t38 -25.5t51 -6.5zM764 232q0 56 16.5 104.5t50.5 84.5t84 57t118 21q71 0 116.5 -21t71.5 -57t36 -84.5
t10 -104.5q0 -55 -17.5 -103t-52 -83.5t-84.5 -56t-116 -20.5q-71 0 -116 20.5t-71 56t-36 83.5t-10 103zM893 232q0 -54 8 -87.5t23.5 -52t37.5 -25t50 -6.5q25 0 48 6.5t40 25t27 52t10 87.5q0 53 -8.5 86.5t-25 52.5t-39.5 26t-52 7q-24 0 -46 -7t-38 -26t-25.5 -52.5
t-9.5 -86.5z" />
    <glyph glyph-name="ampersand" unicode="&#x26;" horiz-adv-x="1382" 
d="M97 324q-2 82 22.5 150t64.5 124t90 100t98 79q-63 104 -100.5 198.5t-37.5 170.5q0 58 17.5 117.5t63 106.5t125.5 77t205 30q43 0 85.5 -4t79.5 -11t66 -16t44 -19l-48 -137q-24 13 -53 23.5t-59.5 17t-61.5 10t-58 3.5q-77 0 -123.5 -16.5t-71.5 -42.5t-33 -57.5
t-8 -61.5q0 -52 19.5 -114t53.5 -129.5t81 -139.5t102.5 -144t116.5 -142t124 -134q28 66 48.5 135.5t35 134.5t23 121t14.5 95l-217 28q-1 1 -1 3q0 1 -0.5 2t-0.5 2v21v10q1 3 1 7q0 1 0.5 1.5t0.5 1.5q0 3 1 5l4 15l3 7l2 3q0 1 1 2h488l10 -85l-4 -2l-10 -4
q-10 -2 -15 -4l-14 -3q-2 0 -3 -0.5t-3 -0.5l-7 -2l-24 -4l-36 -6h-5q-20 -95 -41 -177.5t-44.5 -154t-50.5 -133t-58 -114.5q81 -75 154.5 -132.5t132.5 -89.5q25 -14 48 -24t46 -19l-23 -90q-21 -11 -48 -12t-54.5 4t-53 15t-42.5 20q-51 27 -116 78t-139 120l-18 -19
q-69 -72 -161.5 -109.5t-214.5 -37.5q-96 0 -172 21t-128.5 64.5t-81 110t-31.5 157.5zM277 374q-2 -47 7.5 -95.5t38 -87.5t80.5 -64t136 -25q94 0 166.5 33.5t113.5 83.5q-100 100 -198 216t-180 235q-32 -33 -61 -66t-51 -68.5t-36 -75.5t-16 -86z" />
    <glyph glyph-name="quotesingle" unicode="'" horiz-adv-x="372" 
d="M102 1042q2 33 5 72.5t5.5 79.5t4 76t1.5 63v115q12 7 38 9t53 1t47.5 -4t20.5 -6q0 -65 -7.5 -125t-18.5 -112.5t-25.5 -96.5t-27.5 -77z" />
    <glyph glyph-name="parenleft" unicode="(" horiz-adv-x="664" 
d="M149 584q-2 160 16.5 300t48.5 259.5t69 218.5t78.5 177.5t75.5 136t62 94.5l99 -61q-97 -153 -155.5 -308t-90 -301.5t-41.5 -277.5t-9 -236q1 -56 7 -128.5t20 -156t37 -175.5t57.5 -188t82.5 -192.5t111 -189.5l-97 -66q-27 32 -64.5 85t-78 126t-80.5 165.5
t-72.5 203t-53 239.5t-22.5 275z" />
    <glyph glyph-name="parenright" unicode=")" horiz-adv-x="667" 
d="M73 -449q97 152 155.5 307.5t90 301.5t41 277.5t8.5 236.5q-1 56 -6.5 128.5t-19.5 156t-37 175.5t-57.5 188t-82.5 192.5t-111 189.5l97 66q26 -32 63.5 -85.5t78 -126.5t81 -165t73 -202.5t53.5 -239.5t23 -275q2 -160 -16.5 -300t-48.5 -259.5t-69 -218.5
t-78.5 -177.5t-76 -136.5t-61.5 -94z" />
    <glyph glyph-name="asterisk" unicode="*" horiz-adv-x="967" 
d="M295 834q18 81 51 164t72 177q-96 -34 -171 -74t-136 -77q-11 15 -20.5 35.5t-16 42.5t-9 44.5t0.5 42.5q86 23 179 31.5t181 10.5q-34 25 -69.5 52t-72.5 52.5t-74.5 48.5t-74.5 41q5 15 17 33t27.5 34.5t33 30.5t33.5 22q71 -65 128 -133.5t106 -149.5q5 88 8.5 170
t-3.5 167q45 10 89.5 2t75.5 -27q-20 -95 -50 -181.5t-73 -163.5q42 15 84 34.5t82 40.5t76 42.5t65 40.5q15 -16 26 -37.5t17 -44t8 -44t-1 -39.5q-34 -10 -77 -18t-90.5 -15t-97.5 -11.5t-96 -7.5q35 -26 75.5 -55t79.5 -56t73.5 -48t58.5 -30q-7 -15 -19.5 -33.5
t-28.5 -36t-34 -31.5t-36 -20q-66 66 -118.5 137t-102.5 144q-8 -85 -12 -169.5t1 -175.5q-12 -3 -34 -2t-47 6t-48 13.5t-36 20.5z" />
    <glyph glyph-name="plus" unicode="+" horiz-adv-x="1037" 
d="M451 489h-356l4 118h352v345q11 3 28 4t35 1t35 -1t28 -4v-345h361q2 -11 3 -26.5t1 -32t-1 -32.5t-3 -27h-361v-359h-126v359z" />
    <glyph glyph-name="comma" unicode="," horiz-adv-x="485" 
d="M111 85q7 57 30.5 86.5t59.5 38.5q22 5 53 3.5t60 -12.5q35 -12 51 -37t14 -67q-2 -38 -17.5 -82t-39 -88t-53.5 -87t-60 -80t-58 -65.5t-49 -44.5l-62 41q18 24 41.5 63.5t46 86.5t41 96t27.5 92z" />
    <glyph glyph-name="hyphen" unicode="-" horiz-adv-x="650" 
d="M99 624h451q2 -11 3 -28t1 -35t-1 -35t-3 -27h-455z" />
    <glyph glyph-name="period" unicode="." horiz-adv-x="485" 
d="M118 90q0 25 6 48t20.5 40t38.5 27t60 10t59.5 -10t37.5 -27t20 -40t6 -48q0 -27 -6 -50t-20 -40t-37.5 -26.5t-59.5 -9.5t-60 9.5t-38.5 26.5t-20.5 40t-6 50z" />
    <glyph glyph-name="slash" unicode="/" horiz-adv-x="860" 
d="M735 1638q29 -5 60 -14t60 -27l-695 -1978l-117 38z" />
    <glyph glyph-name="zero" unicode="0" horiz-adv-x="1302" 
d="M140 510q0 112 33.5 211t101.5 172t170.5 115.5t239.5 42.5q138 0 229.5 -41t146 -113t76.5 -170t22 -212t-35 -213t-104.5 -172.5t-173 -116t-241.5 -42.5t-228 42.5t-142.5 115.5t-73.5 171t-21 210zM322 512q0 -130 25 -213.5t68.5 -131.5t103 -66t128.5 -18
q63 0 122 18t105 66t74 131.5t28 213.5t-25.5 213.5t-69.5 131.5t-104.5 66t-129.5 18q-62 0 -120.5 -18t-104 -66t-73 -131.5t-27.5 -213.5z" />
    <glyph glyph-name="one" unicode="1" horiz-adv-x="787" 
d="M140 90q21 3 48.5 7t55 7.5t52.5 6t40 4.5v787l-228 3l-11 85q37 13 91.5 24.5t109.5 19.5t103 12.5t72 2.5l30 -25v-909q41 -5 89 -11.5t89 -13.5q3 -22 0 -45t-7 -45h-527z" />
    <glyph glyph-name="two" unicode="2" horiz-adv-x="990" 
d="M133 0q-7 11 -12.5 28t-9.5 36t-6.5 37t-2.5 32q43 35 104.5 84.5t126.5 106.5t126 117.5t103 118.5q29 37 48 83t17 106q-1 49 -12.5 81t-35 51.5t-59.5 27.5t-87 8q-45 0 -82.5 -8t-69 -19t-56 -23.5t-43.5 -22.5l-62 94q6 7 34.5 25.5t72.5 38t100.5 34.5t119.5 15
q99 0 170.5 -19.5t116 -61t63 -106.5t11.5 -155q-4 -54 -36.5 -113t-81.5 -118t-110 -115.5t-122 -105.5t-116.5 -88t-93.5 -63l440 16l36 155q30 2 59.5 0.5t55.5 -5.5q1 -21 0 -55.5t-2.5 -73t-4 -77t-5.5 -66.5h-694z" />
    <glyph glyph-name="three" unicode="3" horiz-adv-x="893" 
d="M92 -151q60 0 120.5 8t117 26t106 46t86 68.5t57.5 93.5t21 121q0 33 -7.5 71t-35 71t-82.5 54.5t-151 21.5h-105q-7 16 -10.5 31.5t-3.5 41.5q47 16 102 44t102 65.5t78 83t31 96.5q0 69 -45 97t-126 28q-35 0 -67 -6t-61 -15t-53.5 -20t-43.5 -21l-59 92q7 7 30 24.5
t61.5 35t92 31t119.5 13.5q167 0 245.5 -59t78.5 -189q0 -45 -19 -87t-50.5 -77.5t-74 -63.5t-88.5 -45q96 -8 157 -34t96 -66t48.5 -90.5t13.5 -107.5q0 -88 -25 -157.5t-69.5 -122t-105 -89t-132.5 -59t-151.5 -33t-161.5 -10.5h-29q-5 15 -7 32t-2 25v13.5t2 17.5z" />
    <glyph glyph-name="four" unicode="4" horiz-adv-x="1085" 
d="M66 175q80 136 150.5 254.5t138 229t136 216.5t143.5 219q17 -1 37.5 -8t41.5 -19t40.5 -29t33.5 -36q-81 -108 -154 -209.5t-142.5 -201t-137 -200t-138.5 -206.5l437 11v406l149 36l22 -21v-421l144 5q3 -10 4 -27.5t0.5 -36.5t-1.5 -36t-3 -25h-144v-286
q-14 -3 -38.5 -4t-50.5 -0.5t-49 1.5t-33 3v286h-537z" />
    <glyph glyph-name="five" unicode="5" horiz-adv-x="917" 
d="M104 -151q45 0 98 7t105.5 20.5t99.5 34.5t82 49q66 52 94 121t26 162q-1 53 -13.5 92t-40.5 64.5t-72.5 37.5t-108.5 12q-15 0 -32.5 -0.5t-41 -2t-55.5 -5t-75 -8.5l-17 11l34 582l562 23q2 -12 3 -30.5t0.5 -38.5t-2.5 -39.5t-6 -33.5l-422 6l-29 -360q60 11 105.5 14
t72.5 3q151 0 236 -78t85 -242q0 -94 -24.5 -167t-68.5 -127t-105.5 -91.5t-134.5 -60.5t-156 -33t-170 -10h-22q-5 15 -7 32t-2 25v13.5t2 17.5z" />
    <glyph glyph-name="six" unicode="6" horiz-adv-x="1125" 
d="M147 501q0 78 10.5 166t39.5 173t80.5 161.5t133.5 132.5t191 90t228 34q20 0 43 -2t44 -4q4 -8 5.5 -23.5t1.5 -26.5v-15.5t-2 -20.5h-31q-58 0 -115.5 -11t-110 -29.5t-97 -43t-76.5 -51.5q-47 -39 -77 -86t-48.5 -96.5t-28 -99t-14.5 -92.5q3 3 23 21.5t60.5 39.5
t102 38t147.5 17q105 0 171.5 -28t104 -78t51 -118.5t13.5 -149.5q0 -88 -19.5 -154.5t-51.5 -114t-74.5 -78.5t-88 -49t-92 -25t-87.5 -7q-122 0 -205 35.5t-135 103t-74.5 166t-22.5 225.5zM575 76q132 0 190 76t58 214q0 59 -7.5 110t-31.5 89t-69.5 60t-121.5 22
q-52 0 -99 -11.5t-84 -26.5t-61 -30.5t-30 -23.5q0 -42 0.5 -94.5t7 -105.5t21.5 -103.5t43.5 -89.5t73 -62.5t110.5 -23.5z" />
    <glyph glyph-name="seven" unicode="7" horiz-adv-x="999" 
d="M225 -189q70 193 147 361t149.5 305.5t136 242t108.5 171.5h-499l-21 -172q-31 -2 -61 -0.5t-55 5.5q-1 19 -3 54.5t-4 77t-3 82.5t2 71q0 4 2 7.5t2 7.5h737q7 -10 15 -24t14.5 -29t10.5 -30t4 -28q-42 -73 -100.5 -181.5t-126.5 -252.5t-142.5 -323.5t-147.5 -394.5
q-22 0 -47 4.5t-48 12t-42 16t-28 17.5z" />
    <glyph glyph-name="eight" unicode="8" horiz-adv-x="1121" 
d="M128 275q0 54 21.5 103.5t58 92.5t85 77.5t102.5 58.5q-69 28 -116.5 59.5t-77.5 68t-43.5 78.5t-13.5 92q0 85 30 144.5t80.5 98t115.5 58.5t135 25h34q69 0 135 -11.5t117.5 -41.5t82.5 -80.5t31 -128.5q0 -35 -6 -73.5t-29 -79.5t-70 -83t-128 -83q64 -28 121.5 -55.5
t100 -63.5t67.5 -86.5t25 -125.5q0 -94 -35 -160.5t-97 -108.5t-146 -61.5t-181 -19.5q-90 0 -164 17.5t-126 54.5t-80.5 95t-28.5 139zM572 692q41 31 73 58.5t54 57.5t33.5 66.5t11.5 84.5q0 50 -16 82t-43.5 51t-64.5 26t-79 7h-14q-44 0 -84.5 -10.5t-72.5 -34
t-51 -60.5t-19 -89q0 -64 39 -107t112 -77zM300 293q0 -49 10.5 -89.5t37 -69.5t73 -45t118.5 -16h33q55 0 100 13t77 40.5t49.5 70.5t17.5 103q0 57 -32.5 103t-114.5 84l-177 85q-69 -42 -107.5 -82t-57 -75.5t-23 -66.5t-4.5 -55z" />
    <glyph glyph-name="nine" unicode="9" horiz-adv-x="1092" 
d="M230 -156q39 0 86 7.5t94.5 22.5t92 36.5t79.5 49.5q41 35 70.5 73.5t50 86t33.5 107.5t22 139q-3 -3 -23 -21.5t-60 -39.5t-102 -38t-147 -17q-105 0 -169 30t-99.5 83t-48.5 125.5t-14 158.5q-1 81 17 143t50 107t76 75t93.5 48t102 25t103.5 6q107 -1 183 -30.5
t124.5 -87.5t71 -145t22.5 -202q0 -121 -10 -228t-40 -198.5t-84.5 -168t-142.5 -135.5q-48 -32 -102.5 -52.5t-110 -31t-109.5 -13.5t-102 0q-5 14 -7 24t-3 18.5t0 18.5t3 24zM489 376q52 0 99.5 11t84 25.5t61 29.5t30.5 23q4 47 4.5 107t-4.5 116q-3 54 -18.5 100.5
t-46 81.5t-77 55t-110.5 22q-47 1 -91.5 -10.5t-79 -42.5t-55 -86t-19.5 -141q1 -60 6 -112.5t26.5 -92.5t65.5 -63t124 -23z" />
    <glyph glyph-name="colon" unicode=":" horiz-adv-x="460" 
d="M232 719q-34 0 -56.5 9t-36 24.5t-19 36.5t-5.5 45t5.5 45t19 37t36 25t56.5 9q33 0 54.5 -9t34.5 -25t18.5 -37t5.5 -45t-5.5 -45t-18.5 -36.5t-34.5 -24.5t-54.5 -9zM115 88q0 24 5.5 44.5t19 36.5t36 25t56.5 9q33 0 54.5 -9t34.5 -25t18.5 -36.5t5.5 -44.5
q0 -25 -5.5 -46.5t-18.5 -37t-34.5 -24.5t-54.5 -9q-34 0 -56.5 9t-36 24.5t-19 37t-5.5 46.5z" />
    <glyph glyph-name="semicolon" unicode=";" horiz-adv-x="460" 
d="M230 719q-34 0 -56.5 9t-36 24.5t-19 36.5t-5.5 45t5.5 45t19 37t36 25t56.5 9q32 0 54 -9t35 -25t18.5 -37t5.5 -45t-5.5 -45t-18.5 -36.5t-35 -24.5t-54 -9zM108 88q8 57 31 85t57 37q22 5 52 3.5t59 -12.5q35 -12 49.5 -35.5t11.5 -66.5q-2 -37 -16 -78t-35.5 -82
t-48.5 -79.5t-54.5 -72t-54 -60t-46.5 -41.5l-59 39q17 24 37.5 59.5t40 76.5t36 85.5t24.5 86.5z" />
    <glyph glyph-name="less" unicode="&#x3c;" horiz-adv-x="1094" 
d="M54 560l918 435q6 -8 13 -21.5t14.5 -30t13.5 -33.5t11 -31l-799 -367l808 -347q-1 -11 -7 -28.5t-15 -35.5t-19 -33t-18 -21l-920 411v102z" />
    <glyph glyph-name="equal" unicode="=" horiz-adv-x="1042" 
d="M122 751h798q1 -10 2 -26.5t1 -34t-1 -34.5t-2 -27h-802zM122 447h798q1 -11 2 -27.5t1 -34.5t-1 -34.5t-2 -26.5h-802z" />
    <glyph glyph-name="greater" unicode="&#x3e;" horiz-adv-x="1094" 
d="M122 42q-6 8 -13 21.5t-14.5 30t-14 33.5t-10.5 31l799 367l-808 347q1 10 7 27.5t15 35.5t19 33.5t18 21.5l920 -411v-102z" />
    <glyph glyph-name="question" unicode="?" horiz-adv-x="857" 
d="M253 383q-11 44 -15.5 84t1.5 77.5t26 74.5t59 76q27 28 63 58.5t72.5 65.5t70 75t56.5 87q9 18 13 38.5t6 41.5t2 40v33q0 63 -14 107t-42.5 71t-72 39.5t-102.5 12.5q-10 0 -26.5 -1.5t-35.5 -4.5t-38.5 -7.5t-34.5 -10.5l-9 -229q-43 -8 -69.5 -7.5t-51.5 5.5
q-7 36 -12.5 67.5t-10 63t-8 65t-7.5 73.5q23 16 61.5 33.5t85.5 32t101 24t109 9.5q98 0 166 -19t110 -61t60.5 -109.5t18.5 -164.5q0 -94 -30 -161t-75.5 -118t-98.5 -91.5t-99 -80.5q-44 -39 -63 -75.5t-23.5 -70.5t0 -66.5t6.5 -62.5q-9 -5 -27.5 -10t-40.5 -8t-44 -2.5
t-37 6.5zM227 85q0 25 5 46t17.5 36.5t34.5 24.5t56 9t56 -9t35.5 -24.5t19 -36.5t5.5 -46t-5.5 -46t-19 -36t-35.5 -23.5t-56 -8.5t-56 8.5t-34.5 23.5t-17.5 36t-5 46z" />
    <glyph glyph-name="at" unicode="@" horiz-adv-x="2073" 
d="M194 584q21 169 67 299t114.5 226t158.5 161t199.5 104.5t236.5 56.5t271 17q119 0 221 -6.5t184.5 -32t144.5 -77t99 -141.5t48.5 -225t-5.5 -328q-11 -120 -44.5 -214.5t-83 -165.5t-110.5 -120t-126 -80t-131 -45.5t-124 -14.5q-18 0 -34.5 4t-28.5 13.5t-17.5 24.5
t-2.5 38l45 288h-2q-29 -75 -69.5 -143t-88.5 -119t-103 -81.5t-113 -31.5q-36 -1 -70 6t-63.5 26t-52.5 52t-37 84.5t-18 124t5 170.5q5 49 13.5 106t24 113t40 108t61.5 90.5t88.5 60.5t120.5 18q38 -2 80.5 -8.5t84 -20t80.5 -34t71 -50.5l43 97l106 -12l-92 -814
q45 10 89 24.5t84.5 40t76 63t64 93t48.5 131.5t30 178q13 143 14 249t-17 180.5t-59.5 122t-111.5 75t-173.5 37.5t-245.5 10q-89 0 -179.5 -9t-176.5 -36.5t-163.5 -77.5t-140.5 -131.5t-108 -199t-64 -279.5q-18 -155 -22.5 -280t11 -222.5t53 -168t103 -116.5t161.5 -68
t228 -22q76 0 148.5 9t131.5 20.5t99 22.5t52 16l11 -129q-30 -14 -81 -27.5t-113.5 -23.5t-133 -15.5t-140.5 -4.5q-143 1 -254.5 23.5t-194 71.5t-135.5 127t-79.5 190.5t-26.5 261.5t24 340zM922 133q36 0 82 32t94 85.5t95.5 123t87.5 144.5l29 238q-41 18 -82.5 32
t-79 24.5t-67.5 16t-46 5.5q-52 0 -88.5 -33t-60 -86.5t-36.5 -121.5t-18 -139q-8 -92 -8.5 -154t9.5 -99.5t31.5 -53t57.5 -14.5z" />
    <glyph glyph-name="A" unicode="A" horiz-adv-x="1407" 
d="M36 90q7 3 19.5 7t27 7.5t29.5 7t27 6.5l454 1330q25 4 53.5 5.5t56 1.5t53.5 -2t47 -5l468 -1335l105 -23l-10 -90h-468l-9 90q20 5 45 10t51.5 9t51.5 7t45 6l-128 374h-541l-125 -374h5l203 -32l-9 -90h-440zM917 612l-220 635l-18 63l-25 -108l-200 -590h463z" />
    <glyph glyph-name="B" unicode="B" horiz-adv-x="1328" 
d="M102 95q38 14 82 20.5t85 12.5v1203l-161 28q-2 5 -2 16.5v18.5q0 15 4 31t8 23h572q121 0 206.5 -21t138.5 -63.5t77.5 -106.5t24.5 -151q0 -55 -14 -105.5t-41 -93.5t-65 -76t-86 -53q148 -22 225.5 -110t77.5 -244q0 -111 -33 -191t-101.5 -132t-174.5 -76.5
t-251 -24.5h-563zM622 808h37q87 3 144 28t90.5 64.5t47 90t13.5 105.5q0 61 -15.5 106t-56 74t-110 43t-177.5 14l-146 -2v-528zM496 118q52 -3 85.5 -4t55.5 -2t36 -1h26q97 1 163 17.5t106.5 52t58 91.5t17.5 137v15q0 85 -28 139t-82.5 85t-134 42.5t-182.5 11.5
l-168 -5v-575z" />
    <glyph glyph-name="C" unicode="C" horiz-adv-x="1347" 
d="M137 709q0 193 46 337t132 240t209 143.5t277 47.5q80 0 147 -7t121 -18t94.5 -24t67.5 -24l3 -12q1 -38 -3.5 -85t-11 -93t-13.5 -84.5t-13 -60.5q-23 -5 -53.5 -4.5t-59.5 4.5l-18 219q-36 19 -76 31.5t-81 19.5t-79.5 9.5t-71.5 2.5q-116 0 -197.5 -45t-132.5 -126.5
t-74 -195.5t-23 -251q0 -159 24 -277t79.5 -196.5t147.5 -117t227 -38.5q38 0 77 3t73.5 9t63.5 14t47 17l57 225q42 5 66 3.5t40 -7.5q1 -21 2 -51t1.5 -66.5t0.5 -77.5t-2 -83q-18 -19 -60 -40t-102 -38.5t-134.5 -29t-156.5 -11.5q-93 0 -177 11t-155.5 40.5t-128.5 82
t-97 134.5t-61.5 197.5t-21.5 272.5z" />
    <glyph glyph-name="D" unicode="D" horiz-adv-x="1468" 
d="M102 95q41 8 84.5 15t85.5 12v1209q-42 5 -81 10.5t-80 15.5q-5 46 9 91h572q90 0 173.5 -12.5t155.5 -42t131 -78.5t100.5 -121t64.5 -169.5t23 -225.5v-82q0 -196 -45.5 -332.5t-133.5 -222t-216 -124t-293 -38.5h-544zM667 115h50q116 0 198 41.5t133.5 118.5
t75.5 187t24 247v76q0 155 -31.5 258t-97.5 166t-169.5 91t-247.5 33l-151 -2v-1209z" />
    <glyph glyph-name="E" unicode="E" horiz-adv-x="1269" 
d="M102 90q38 14 82 19.5t85 10.5v1208l-161 31q-2 5 -2 16.5v18.5q0 15 4 31t8 23h1009l14 -16q1 -38 -3 -87.5t-10.5 -98.5t-13.5 -90.5t-13 -63.5q-23 -5 -51.5 -4.5t-57.5 4.5l-18 239h-525v-523l498 6q5 -29 2 -66t-8 -69l-492 11v-570h572l66 223q29 2 58.5 0t52.5 -9
q-1 -35 -3.5 -78t-6.5 -86.5t-8 -83.5t-8 -70l-21 -16h-1040z" />
    <glyph glyph-name="F" unicode="F" horiz-adv-x="1155" 
d="M102 90q19 7 41.5 11.5t46 8.5t46.5 6.5t43 5.5v1206l-161 31q-2 5 -2.5 16.5t-0.5 18.5q0 15 4 31t9 23h961l14 -16q1 -38 -3 -85.5t-10 -94t-13.5 -87t-12.5 -62.5q-23 -5 -53 -4t-59 4l-18 228h-476v-556l459 5q5 -29 1.5 -66t-9.5 -69l-451 12v-535l268 -32
q2 -5 2 -14.5v-16.5q0 -14 -4 -33t-7 -26h-606z" />
    <glyph glyph-name="G" unicode="G" horiz-adv-x="1418" 
d="M130 709q0 193 46.5 337t133.5 240t211 143.5t278 47.5q80 0 147.5 -6.5t122.5 -17t96.5 -23t68.5 -23.5l2 -13q1 -38 -3 -85t-10.5 -92.5t-13.5 -84.5t-13 -61q-23 -5 -54 -4.5t-60 4.5l-18 219q-41 19 -83 31t-82 19t-77.5 9t-70.5 2q-116 0 -197 -45t-132 -126.5
t-74.5 -195.5t-23.5 -251q0 -159 24 -278t80 -198t148 -118.5t227 -39.5q38 0 79.5 3.5t79 9.5t69 14t49.5 18v413h-2q-14 2 -46 5t-69 7t-71 8.5t-53 8.5q-1 8 -1 22t1.5 29t4 29t6.5 22h476q3 -6 5 -21.5t3 -32t1.5 -29.5t-0.5 -14l-75 -29v-454q-25 -23 -74 -47
t-113.5 -44t-141 -33t-156.5 -13q-93 0 -177 10t-156 38.5t-129.5 79.5t-98 133t-62.5 199t-22 278z" />
    <glyph glyph-name="H" unicode="H" horiz-adv-x="1617" 
d="M102 90q38 14 82 20.5t85 11.5v1206l-161 31q-2 5 -2 16.5v18.5q0 15 4 31t8 23h511l9 -84q-18 -8 -43.5 -13.5t-52.5 -10t-51.5 -7.5t-41.5 -5v-534h712v534l-169 31q-2 5 -2 16.5v18.5q0 15 4 31t8 23h494l10 -86q-39 -15 -82 -22t-84 -12v-1206l173 -32q2 -5 2 -15.5
v-17.5q0 -14 -4 -32t-7 -25h-525l-10 90q19 7 44 11.5t51 8.5t51 6.5t46 5.5v554h-712v-554l196 -32q2 -5 2 -15.5v-17.5q0 -14 -4 -32t-7 -25h-525z" />
    <glyph glyph-name="I" unicode="I" horiz-adv-x="730" 
d="M95 90q39 14 88.5 20.5t91.5 11.5v1206l-164 31q-2 5 -2.5 18.5t-0.5 21.5q0 14 4 28t8 21h497l10 -84q-36 -13 -84 -22t-89 -14v-1206l186 -34q2 -5 2.5 -14.5t0.5 -16.5q0 -14 -4 -32t-8 -25h-527z" />
    <glyph glyph-name="J" unicode="J" horiz-adv-x="652" 
d="M255 1328l-179 31q-2 13 -2.5 22.5t-0.5 17.5q0 14 3 28t7 21h517l9 -84q-18 -6 -39.5 -11.5t-45 -10t-46.5 -8t-43 -6.5v-1161q0 -154 -27.5 -277t-81 -218.5t-132.5 -165.5t-182 -118q-9 10 -19 23t-19 26.5t-16 27t-10 23.5q50 36 92 73t76 80.5t60 95.5t43.5 119.5
t26.5 152.5t9 194v1125z" />
    <glyph glyph-name="K" unicode="K" horiz-adv-x="1437" 
d="M102 90q38 14 82 20.5t85 11.5v1211q-41 5 -83.5 8.5t-83.5 13.5l4 93h514q3 -20 3 -46.5t-3 -46.5q-42 -8 -86 -12.5t-85 -9.5v-643q76 72 147.5 139.5t146.5 142t158 161.5t181 198q-29 3 -74.5 7.5t-83.5 12.5q-1 8 -1 21t0.5 26.5t1.5 27t4 22.5h397q3 -6 4 -22.5
t1 -33.5t-1 -30.5t-2 -14.5l-45 -19l-512 -501l474 -709l169 -23q1 -1 1 -14t-1 -29t-2.5 -31t-4.5 -21h-313l-454 713l-191 -153v-438l196 -32q2 -5 2 -15.5v-17.5q0 -14 -4 -32t-7 -25h-525z" />
    <glyph glyph-name="L" unicode="L" horiz-adv-x="1193" 
d="M102 90q38 14 82 19.5t85 10.5v1208l-163 31q-2 13 -1 22.5t1 17.5q2 17 4 29.5t5 19.5h523l9 -84q-17 -6 -42.5 -11t-53 -10t-55 -8.5t-47.5 -6.5v-1208h508l71 239q29 2 58.5 0t52.5 -9q-1 -35 -3.5 -80.5t-6.5 -92t-8 -89t-7 -72.5l-22 -16h-981z" />
    <glyph glyph-name="M" unicode="M" horiz-adv-x="1921" 
d="M59 99q9 3 26.5 5.5t37.5 5t39 4.5t32 4l104 1208h-12q-41 5 -80 11t-80 14q-3 23 -0.5 48.5t9.5 48.5h425l402 -1243l33 131l333 1110l395 2l5 -99q-41 -9 -72.5 -13.5t-72.5 -9.5l161 -1211l142 -18q3 -22 1.5 -48.5t-6.5 -48.5l-492 -2l-4 97l175 18l-130 990l-19 216
l-45 -218l-342 -1094q-47 -12 -84.5 -13t-84.5 6l-373 1127l-52 194l-9 -200l-83 -1003q46 -4 88.5 -8t69.5 -11q4 -27 1.5 -50.5t-5.5 -48.5h-429z" />
    <glyph glyph-name="N" unicode="N" horiz-adv-x="1588" 
d="M97 90q39 14 82.5 20.5t84.5 11.5v1206l-167 31q-2 5 -2 16.5v18.5q0 15 4 31t7 23h376l72 -124h1l575 -1000l81 -198l-15 221v981l-175 31q-2 5 -2 16.5v18.5q0 15 4 31t8 23h460l9 -86q-39 -11 -74 -20t-77 -14v-1328q-21 -8 -50.5 -13.5t-60 -8.5t-59.5 -3t-49 4v3
l-655 1136l-66 165l9 -172v-989l196 -32q2 -5 2.5 -15.5t0.5 -17.5q0 -14 -4.5 -32t-7.5 -25h-499z" />
    <glyph glyph-name="O" unicode="O" 
d="M704 -40q-117 0 -204 27.5t-149 78t-101.5 120t-62.5 154t-31.5 180t-8.5 197.5v2q0 105 14 202.5t44.5 181.5t79.5 153t118 118t160.5 76t207.5 27h70q118 0 204 -26.5t146.5 -75t97.5 -116.5t58 -151.5t28 -180t7 -201.5v-13q0 -158 -33 -295t-105.5 -239t-188 -160.5
t-280.5 -58.5h-71zM760 83q137 0 221.5 48t131 133t62.5 201.5t16 253.5q0 82 -4 161t-18.5 149.5t-42 129.5t-74.5 101.5t-117 66.5t-169 24q-91 0 -158 -21.5t-114.5 -61.5t-77 -97t-46.5 -127t-23.5 -152t-6.5 -173q0 -78 4.5 -155t19 -147.5t42.5 -131.5t74.5 -106
t115 -70.5t164.5 -25.5z" />
    <glyph glyph-name="P" unicode="P" horiz-adv-x="1290" 
d="M102 97q41 8 83.5 12t83.5 9v1215q-41 5 -80 11t-81 15q-2 23 1.5 44.5t10.5 44.5h597q121 0 213 -21.5t153.5 -72.5t93 -136t31.5 -212t-25.5 -222t-84.5 -158t-157.5 -94t-243.5 -31q-60 0 -117.5 6.5t-130.5 17.5v-407q20 -3 51.5 -6t65.5 -6t65.5 -6.5t51.5 -7.5
q8 -46 0 -92h-575zM607 622q130 -8 210.5 16.5t125.5 77t60.5 131t15.5 179.5q0 78 -13.5 136.5t-59 97.5t-133 57.5t-234.5 15.5l-130 -2v-700z" />
    <glyph glyph-name="Q" unicode="Q" horiz-adv-x="1538" 
d="M704 -40q-117 0 -204 27.5t-149 78t-101.5 120t-62.5 154t-31.5 180t-8.5 197.5v2q0 105 14 202.5t44.5 181.5t79.5 153t118 118t160.5 76t207.5 27h70q118 0 204 -26.5t146.5 -75t97.5 -116.5t58 -151.5t28 -180t7 -201.5v-13q0 -147 -28.5 -276.5t-91.5 -229.5
t-162.5 -163.5t-240.5 -78.5q49 -92 89 -144.5t80 -79t84 -33t101 -6.5q51 0 92 4t61 8l26 -97q-22 -13 -54.5 -25t-69 -21t-74 -14.5t-69.5 -5.5q-72 0 -125 18t-92 49t-66.5 72t-48.5 86.5t-37.5 92.5t-32.5 91h-19zM760 83q137 0 221.5 48t131 133t62.5 201.5t16 253.5
q0 82 -4 161t-18.5 149.5t-42 129.5t-74.5 101.5t-117 66.5t-169 24q-91 0 -158 -21.5t-114.5 -61.5t-77 -97t-46.5 -127t-23.5 -152t-6.5 -173q0 -78 4.5 -155t19 -147.5t42.5 -131.5t74.5 -106t115 -70.5t164.5 -25.5z" />
    <glyph glyph-name="R" unicode="R" horiz-adv-x="1347" 
d="M102 88q38 14 82 20.5t85 11.5v1213q-41 5 -80 11t-81 15q-2 23 1.5 44.5t10.5 44.5h561q130 0 222 -19t150.5 -65t85.5 -123.5t27 -193.5q0 -72 -15 -146.5t-51.5 -138.5t-97.5 -112.5t-152 -67.5l303 -464l151 -26q1 -1 1 -11t-1.5 -24t-4.5 -29.5t-7 -27.5h-288
l-323 557h-38h-50.5t-40.5 1t-43.5 2t-59.5 4v-444l160 -32q2 -5 2.5 -16t0.5 -18q0 -14 -4 -30.5t-8 -23.5h-489zM607 669q105 0 176 23.5t114.5 71t62.5 120t19 170.5q0 66 -15 119t-52 90t-100.5 56t-159.5 16l-203 -4v-662h158z" />
    <glyph glyph-name="S" unicode="S" horiz-adv-x="1189" 
d="M158 415q19 1 33 1t26.5 -0.5t26 -2.5t33.5 -4q5 -29 8 -52.5t6 -47.5t6 -50.5t8 -62.5q34 -21 70.5 -40t77 -33t85.5 -22.5t98 -8.5q65 0 113 17t79 47.5t46 74.5t15 98q0 26 -2 49.5t-9 45.5t-20 42t-35 39q-59 50 -124 89t-132.5 75t-135.5 72.5t-133 81.5
q-35 25 -62.5 50.5t-47 57t-29.5 71t-10 92.5q0 98 28 165.5t78 113.5q61 57 141.5 80.5t187.5 23.5q57 0 117.5 -5t118 -14.5t109 -22.5t92.5 -28q-7 -81 -16.5 -163t-23.5 -155q-21 -2 -36 -2.5t-27.5 0t-26 1.5t-31.5 4l-16 198q-66 35 -138 53.5t-142 18.5
q-55 0 -100.5 -13t-78.5 -39.5t-51 -67t-18 -96.5q0 -40 10 -72t30.5 -59.5t52.5 -51.5t76 -48l345 -194q87 -48 134.5 -95t70 -94t27 -94.5t4.5 -97.5q0 -57 -13.5 -103.5t-37.5 -84t-56 -66t-68 -48.5q-42 -23 -86.5 -36t-87.5 -19.5t-81 -8t-66 -1.5q-58 0 -123 11.5
t-125 29.5t-110 39.5t-79 41.5z" />
    <glyph glyph-name="T" unicode="T" horiz-adv-x="1236" 
d="M336 90q19 7 45 11.5t53 8.5t53.5 6.5t46.5 5.5v1218h-342l-19 -241q-29 -4 -60 -3.5t-54 5.5q-3 28 -7 69.5t-7 87t-5 91t-2 83.5l21 16h1130l22 -16q0 -38 -2 -83.5t-5.5 -91t-7.5 -87t-7 -69.5q-23 -5 -53.5 -5.5t-59.5 3.5l-20 241h-343v-1214l221 -38q2 -5 2 -14.5
v-16.5q0 -14 -4 -32t-8 -25h-579z" />
    <glyph glyph-name="U" unicode="U" 
d="M223 1328l-166 31q-2 5 -2.5 16.5t-0.5 18.5q0 15 4 31t8 23h516l9 -84q-18 -7 -42 -12.5t-49.5 -10t-49 -8t-41.5 -5.5v-721q0 -75 3.5 -141.5t16 -123t38.5 -102t70.5 -77.5t111 -49t161.5 -17q83 0 141.5 18t98 49.5t62.5 74t35 91t15.5 101.5t3.5 106v791l-171 31
q-2 5 -2.5 16.5t-0.5 18.5q0 15 4 31t8 23h464l9 -86q-15 -6 -35 -11.5t-41 -9.5t-41 -7t-36 -5v-792q0 -123 -25 -226.5t-89.5 -178.5t-175 -117t-280.5 -42q-116 0 -201 20.5t-144 58.5t-95.5 92t-56.5 120t-27 143.5t-7 162.5v758z" />
    <glyph glyph-name="V" unicode="V" horiz-adv-x="1281" 
d="M125 1333l-96 26q-2 5 -2 15v18q0 14 3.5 31.5t7.5 24.5h447l9 -89q-18 -5 -40.5 -9.5t-46 -8.5t-47 -7t-43.5 -6l350 -1127l18 -73l32 118l320 1080l-203 33q-2 5 -2 15v18q0 14 4 31.5t8 24.5h425l12 -89q-14 -8 -40.5 -15.5t-49.5 -12.5l-416 -1331q-52 -7 -110.5 -6
t-102.5 6z" />
    <glyph glyph-name="W" unicode="W" horiz-adv-x="1888" 
d="M135 1335l-102 20q-3 20 -1.5 45t6.5 46h449l5 -91l-163 -20l239 -1087l16 -137l36 187l262 938q46 12 85.5 13t86.5 -6l279 -983l31 -156l30 194l227 1037q-46 4 -89 8t-69 12l5 91h395l4 -91q-18 -6 -39 -11t-46 -9l-305 -1335q-26 -6 -61 -8t-70 -1.5t-66 3.5t-49 6
l-245 865l-39 163l-30 -165l-245 -861q-26 -5 -60.5 -7t-67.5 -2t-60 2t-40 5z" />
    <glyph glyph-name="X" unicode="X" horiz-adv-x="1371" 
d="M52 0q-7 23 -8.5 45t3.5 47l104 23l435 618l-435 616l-88 13q-2 23 -1.5 43t8.5 43h438q5 -23 6 -42.5t1 -43.5l-141 -20l323 -477l334 470l-149 22q-2 24 0.5 45.5t6.5 45.5h397q8 -20 6.5 -46t-4.5 -45l-104 -22l-409 -560l468 -671l94 -12q4 -23 4.5 -45t-4.5 -47
h-428q-5 25 -5.5 47t3.5 45l114 12l-352 534l-362 -523l156 -23q0 -23 -1 -45t-6 -47h-404z" />
    <glyph glyph-name="Y" unicode="Y" horiz-adv-x="1307" 
d="M379 90q20 6 45.5 11t52 8.5t52 6.5t46.5 6v505l-440 706l-112 26q-2 5 -2 15v18q0 14 4.5 31.5t7.5 24.5h449l10 -89q-35 -10 -75 -17.5t-77 -12.5l303 -502l42 -83l353 582l-185 33q-2 5 -2.5 15t-0.5 18q0 14 4 31.5t9 24.5h420l12 -89q-7 -4 -19.5 -8t-27 -7.5
l-29 -7t-26.5 -5.5l-439 -697v-512l211 -32q2 -5 2 -15.5v-17.5q0 -14 -4.5 -32t-8.5 -25h-566z" />
    <glyph glyph-name="Z" unicode="Z" horiz-adv-x="1177" 
d="M97 0q-6 11 -11.5 28t-10 36t-7 37t-2.5 32l794 1195h-612v-2l-21 -210q-29 -4 -60 -3.5t-54 5.5q-3 28 -9.5 66.5t-12.5 81t-10 85.5t-3 81l12 16h943q7 -9 14 -22.5t13 -28.5t9.5 -31t3.5 -29l-796 -1217h664l73 225q28 2 57 0t52 -9q-1 -35 -3.5 -78t-5.5 -87
t-7 -84.5t-8 -70.5l-21 -16h-981z" />
    <glyph glyph-name="bracketleft" unicode="[" horiz-adv-x="614" 
d="M331 -364q20 -3 54 -5.5t70 -4.5t70 -5t54 -6q4 -21 4 -46t-4 -47h-397v2234h397q4 -21 4 -46t-4 -46q-20 -3 -54 -6t-70 -5.5t-70 -5t-54 -5.5v-2006z" />
    <glyph glyph-name="backslash" unicode="\" horiz-adv-x="860" 
d="M5 1597q29 18 60 27t60 14l692 -1981l-117 -38z" />
    <glyph glyph-name="bracketright" unicode="]" horiz-adv-x="629" 
d="M54 -385q20 3 54 6t70 5t70 4.5t54 5.5v2006q-20 3 -54 5.5t-70 5t-70 5.5t-54 6q-3 21 -3 46t3 46h397v-2234h-397q-3 22 -3 47t3 46z" />
    <glyph glyph-name="asciicircum" unicode="^" horiz-adv-x="1172" 
d="M201 726q-57 13 -83 61l407 659h106l423 -659q-5 -9 -16 -19t-23.5 -18.5t-26 -14.5t-23.5 -7l-390 519z" />
    <glyph glyph-name="underscore" unicode="_" horiz-adv-x="905" 
d="M910 -88v-120h-915v120h915z" />
    <glyph glyph-name="grave" unicode="`" horiz-adv-x="469" 
d="M29 1463l21 43l151 18l239 -363q-17 -23 -37 -36t-42 -19z" />
    <glyph glyph-name="a" unicode="a" horiz-adv-x="1014" 
d="M78 223q4 88 43 144.5t104 90t153.5 48.5t193.5 21l68 5v104q-1 67 -11 107.5t-33.5 62.5t-63 28.5t-97.5 6.5q-68 0 -131 -15.5t-126 -38.5l-41 97q13 7 43.5 22.5t74.5 31.5t100.5 28.5t122.5 12.5q96 0 159.5 -18t100.5 -59t52 -108t15 -165v-523h187l7 -83
q-12 -5 -39 -14t-60 -17.5t-68 -14.5t-63 -6q-42 0 -65.5 11.5t-35 28t-14 36t-2.5 34.5v47h-2q-24 -24 -58.5 -52t-76.5 -51t-91 -38.5t-102 -15.5q-41 0 -84.5 9.5t-79 35.5t-58 71t-22.5 116v20zM250 225q0 -36 10.5 -59t28.5 -37t40.5 -19.5t46.5 -5.5q25 0 55 5.5
t64 17.5t70.5 32t74.5 49v236l-78 -7q-160 -14 -236 -64.5t-76 -147.5z" />
    <glyph glyph-name="b" unicode="b" horiz-adv-x="1137" 
d="M158 -2q6 51 9 109.5t4.5 119.5t1.5 123v121v999h-178l-11 88q12 5 40.5 14t63.5 17.5t71.5 14.5t65.5 6q42 0 65 -11.5t34 -28t13.5 -36t2.5 -34.5v-637q24 15 55 35t72 38t93.5 30.5t120.5 12.5q108 0 178 -35.5t109.5 -101.5t53.5 -160t11 -211q-4 -114 -25.5 -195.5
t-54.5 -137t-74.5 -88.5t-84.5 -50.5t-84.5 -23t-75.5 -5.5q-58 0 -105.5 14.5t-87 35.5t-71 46t-56.5 46q-7 -38 -21 -74t-29 -68q-29 0 -58.5 7.5t-47.5 19.5zM334 223q23 -20 55 -41.5t68.5 -39t76.5 -29t78 -11.5q60 0 104 20.5t73.5 64.5t45 114.5t18.5 171.5
q1 78 -4.5 147t-26.5 121t-62 82t-110 30q-46 0 -90.5 -8t-84 -20.5t-74 -29.5t-61.5 -35v-413q0 -17 -2 -50t-4 -74z" />
    <glyph glyph-name="c" unicode="c" horiz-adv-x="934" 
d="M95 465q0 118 27.5 213t82 162t136.5 103t191 36q33 0 72.5 -2.5t81 -8.5t83.5 -16.5t81 -27.5q3 -29 -0.5 -67t-10 -77t-13.5 -73.5t-12 -54.5q-29 0 -49 0.5t-48 4.5l-18 175q-28 13 -59 21t-59 11.5t-50 4.5t-32 1q-54 0 -96.5 -19.5t-71.5 -65t-44 -120t-15 -183.5
q0 -107 15.5 -179t50.5 -115.5t93 -62.5t144 -19q45 0 89.5 10.5t80.5 23t59 23.5t26 12l42 -90q-8 -6 -37 -24.5t-74.5 -38.5t-106 -35.5t-131.5 -15.5q-55 0 -108.5 7t-101 26t-87.5 53t-69 89t-45.5 133.5t-16.5 185.5z" />
    <glyph glyph-name="d" unicode="d" horiz-adv-x="1193" 
d="M433 -29q-108 0 -174.5 38t-103 102.5t-48.5 150.5t-12 182q0 141 31.5 242t91 166.5t146 96t196.5 30.5q21 0 49 -2t59 -7t63.5 -13.5t62.5 -20.5v534h-192l-11 86q12 5 43 13.5t68.5 17t76.5 15t67 6.5q42 0 64.5 -11t34 -27.5t14 -35.5t3.5 -34v-1394h193l8 -83
q-12 -5 -40.5 -14t-63 -17.5t-71 -14.5t-64.5 -6q-41 0 -64.5 11.5t-35 28t-14 36t-2.5 34.5v34h-3q-28 -24 -71.5 -49.5t-94 -46.5t-104.5 -34.5t-102 -13.5zM478 104q38 0 80.5 9t84.5 24t81 34t70 39v627q-30 7 -82.5 15t-113.5 8q-106 0 -170 -30.5t-98.5 -86
t-46 -132.5t-11.5 -169q0 -78 8 -140.5t30.5 -106.5t63 -67.5t104.5 -23.5z" />
    <glyph glyph-name="e" unicode="e" horiz-adv-x="983" 
d="M97 430q-1 146 29.5 250t86.5 170.5t136.5 97.5t180.5 31q109 0 179 -25.5t110 -80t55.5 -139.5t14.5 -204l-620 -5q0 -71 2.5 -130t13 -106.5t30.5 -83t55.5 -59t88 -35.5t127.5 -12q38 0 82.5 7t84 16t68 17.5t36.5 11.5l34 -85q-7 -5 -36 -20.5t-75.5 -32
t-109.5 -29.5t-138 -13q-93 0 -172.5 16.5t-137.5 65.5t-91 139t-34 238zM717 638q-2 85 -21.5 133t-48 71.5t-61.5 29t-63 5.5q-65 0 -109.5 -14.5t-73.5 -45.5t-44 -79.5t-21 -115.5z" />
    <glyph glyph-name="f" unicode="f" horiz-adv-x="735" 
d="M76 78q38 13 81.5 20.5t79.5 12.5v735h-149q-4 25 -2.5 43.5t6.5 44.5l145 16v272q0 103 25 176t70.5 119.5t110 68.5t143.5 22q25 0 54.5 -3t62.5 -11.5t69 -24t72 -40.5l-73 -135q-20 12 -52 27.5t-68.5 30t-74.5 24.5t-68 10q-33 0 -53 -10.5t-31.5 -34t-15.5 -62
t-4 -93.5v-336h286q7 -51 0 -104h-286v-735l253 -23q2 -5 2 -17v-19q0 -14 -4 -29.5t-8 -22.5h-562z" />
    <glyph glyph-name="g" unicode="g" horiz-adv-x="1009" 
d="M291 -14q-7 7 -18.5 18t-19 29t-7 44.5t17.5 64.5l58 125q-66 12 -114.5 41.5t-80.5 74.5t-48 104t-16 130q0 97 35 166t93.5 112.5t135 63.5t160.5 20q78 0 139 -17.5t106 -49.5q18 19 46.5 35.5t62 27t71.5 14t76 -2.5v-140h-104q-23 0 -43.5 -1t-40.5 -3
q28 -41 41.5 -90.5t13.5 -106.5q0 -96 -29.5 -168t-84.5 -120t-133 -72.5t-175 -24.5h-15l-19 -102q-5 -30 2.5 -48t23.5 -27t38.5 -11.5t48.5 -1.5q141 3 232.5 -7t144.5 -40t73.5 -83.5t20.5 -137.5q0 -110 -50 -190t-130 -131.5t-179.5 -76t-199.5 -24.5q-60 1 -124 15
t-116.5 47.5t-86.5 91.5t-34 147q0 38 12.5 82t40 85.5t71 78t104.5 59.5zM458 364q45 0 86.5 13.5t73.5 43.5t51 77t19 114q0 82 -17 133.5t-48 80.5t-73 40t-92 11q-43 0 -84 -9.5t-72.5 -38t-50.5 -80.5t-19 -137q0 -71 17 -118.5t47 -76t71.5 -41t90.5 -12.5zM232 -291
q-2 -57 20 -95.5t59.5 -62t86.5 -33.5t101 -10q73 0 131.5 14t99.5 43.5t62.5 76t21.5 112.5q0 69 -15.5 106t-44 53.5t-68 19.5t-86.5 4q-60 2 -113 3t-104 15q-28 -16 -54 -36.5t-47 -49t-34.5 -67.5t-15.5 -93z" />
    <glyph glyph-name="h" unicode="h" horiz-adv-x="1243" 
d="M85 78q29 10 69.5 18t86.5 15v1359h-173l-11 86q12 5 40 13.5t62 17t69.5 15t64.5 6.5q42 0 65 -11t34.5 -27.5t14 -35.5t2.5 -34v-643q92 66 174.5 94t165.5 28q79 0 132.5 -14t86 -50t46.5 -98.5t14 -159.5v-550l156 -29q5 -16 1.5 -39t-10.5 -39h-442l-7 78
q26 9 63 17t71 14v538q0 57 -7.5 95t-25 60.5t-46.5 32t-72 9.5q-78 0 -151.5 -14.5t-148.5 -49.5v-669l159 -33q3 -18 0 -40t-11 -38h-462z" />
    <glyph glyph-name="i" unicode="i" horiz-adv-x="657" 
d="M327 1206q-24 0 -45.5 5.5t-37.5 19t-25 35.5t-9 55t9 55t25 35.5t37.5 19t45.5 5.5t44.5 -5.5t36.5 -19t25 -35.5t9 -55t-9 -55t-25 -35.5t-36.5 -19t-44.5 -5.5zM97 78q38 13 82.5 19.5t82.5 13.5v730h-170l-11 86q19 7 49.5 16.5t63.5 17t65 13t55 5.5q43 0 66.5 -11
t34 -27t12.5 -35t3 -34v-761l172 -30q2 -20 0 -42t-9 -39h-487z" />
    <glyph glyph-name="j" unicode="j" horiz-adv-x="560" 
d="M300 1205q-24 0 -44.5 5.5t-36.5 19t-25 36t-9 55.5t9 55t25 35.5t36.5 19t44.5 5.5t45 -5.5t36.5 -19t24.5 -35.5t9 -55t-9 -55.5t-24.5 -36t-36.5 -19t-45 -5.5zM237 841h-171l-12 86q19 7 49.5 16.5t64 17t65.5 13t55 5.5q43 0 67 -11t34.5 -27t12.5 -35t2 -34v-845
q0 -55 -1.5 -112.5t-9.5 -114.5t-26 -113.5t-51 -110t-83.5 -103t-124.5 -93.5l-70 74q37 42 65.5 77t49.5 66.5t35.5 60t23.5 56.5q12 34 17 69.5t7 73.5t1.5 80t-0.5 90v814z" />
    <glyph glyph-name="k" unicode="k" horiz-adv-x="1137" 
d="M68 78q12 3 30.5 7t41.5 8.5t48 9t49 9.5v1358h-174l-11 86q12 5 40 13.5t62 17t69.5 15t64.5 6.5q42 0 65 -11t34.5 -27.5t14 -35.5t2.5 -34v-979q45 32 98.5 72.5t109 84t110.5 87.5t103 83q-24 2 -50 4.5t-49.5 5t-43 6t-30.5 6.5q-2 16 0 40t9 40h386l4 -82l-30 -18
l-374 -290q34 -50 72 -109t78 -116.5t81.5 -107.5t83.5 -80q9 -6 28 -14t41.5 -16t45 -14.5t37.5 -10.5l2 -65q-21 -19 -52 -29t-64 -12.5t-65.5 2.5t-57.5 17t-53.5 39t-68.5 81.5t-94 142t-130 221.5l-129 -72v-307l160 -29q5 -18 1.5 -41.5t-10.5 -39.5h-475z" />
    <glyph glyph-name="l" unicode="l" horiz-adv-x="627" 
d="M76 78q38 11 80.5 18.5t80.5 14.5v1359h-185l-12 88q12 5 42.5 14t67 17.5t74.5 14.5t67 6q42 0 65 -11.5t34 -28t13.5 -36t2.5 -34.5v-1389l173 -30q4 -22 1 -43t-8 -38h-487z" />
    <glyph glyph-name="m" unicode="m" horiz-adv-x="1869" 
d="M111 78q37 13 77.5 19.5t78.5 13.5v730h-172l-12 86q12 5 39.5 14t62 17.5t70 14.5t64.5 6q42 0 64.5 -11t33 -27t12 -35t1.5 -34v-17q43 31 82.5 54.5t79 39t80.5 23t86 7.5q54 0 96.5 -6.5t74 -22t52.5 -41t34 -64.5l22 15q43 29 84.5 51.5t82.5 37.5t83.5 22.5
t88.5 7.5q79 0 132.5 -14t86 -50t46.5 -98.5t14 -159.5v-549l156 -27q2 -6 2 -14v-15q0 -14 -4 -29.5t-8 -22.5h-442l-8 78q36 13 68 18t67 12v539q0 53 -7.5 90.5t-25.5 61t-47 34.5t-71 11q-45 0 -82.5 -4t-71.5 -12t-66.5 -20.5t-67.5 -29.5l-16 -8q6 -50 6 -113v-549
l156 -27q2 -6 2.5 -14t0.5 -15q0 -14 -4 -29.5t-8 -22.5h-442l-7 78q35 13 67.5 18t67.5 12v539q0 52 -7.5 89.5t-25.5 61.5t-47 35t-71 11q-45 0 -82.5 -4t-71.5 -12t-66.5 -20t-68.5 -28v-669l163 -30q2 -6 2 -14v-15q0 -14 -3.5 -29.5t-7.5 -22.5h-464z" />
    <glyph glyph-name="n" unicode="n" horiz-adv-x="1269" 
d="M111 78q37 11 78.5 18.5t77.5 14.5v730h-172l-12 86q12 5 39.5 14t62 17.5t70 14.5t64.5 6q42 0 65 -11t34 -27t13.5 -35t3.5 -34v-17q85 63 167 93.5t173 30.5q79 0 132.5 -14t86 -50t46.5 -98.5t14 -159.5v-549l157 -27q2 -6 2 -14v-15q0 -14 -4.5 -29.5t-8.5 -22.5
h-442l-7 78q36 11 68 17t67 13v539q0 57 -7.5 95t-25.5 60.5t-47 32t-71 9.5q-45 0 -84.5 -4t-75.5 -12t-70 -20t-70 -28v-669l158 -30q2 -6 2 -14v-15q0 -14 -3.5 -29.5t-7.5 -22.5h-464z" />
    <glyph glyph-name="o" unicode="o" horiz-adv-x="1116" 
d="M95 475q0 105 29.5 196.5t91 160t155 108t222.5 39.5t211 -39.5t129.5 -108t65.5 -160t18 -196.5t-30 -196.5t-91.5 -160t-155.5 -108t-222 -39.5q-129 0 -211 39.5t-129 108t-65 160t-18 196.5zM279 475q0 -122 19 -199t54.5 -121t86.5 -60.5t116 -16.5q58 0 108.5 16.5
t88 60.5t59 121t21.5 199q0 121 -19 198.5t-54.5 121.5t-87 60.5t-116.5 16.5q-57 0 -107.5 -16.5t-88 -60.5t-59 -121.5t-21.5 -198.5z" />
    <glyph glyph-name="p" unicode="p" horiz-adv-x="1191" 
d="M392 -473l260 -26q3 -48 -7 -92h-572l-10 83q38 12 81 20t81 15v1314h-180l-12 86q12 5 40 14t62 17.5t70 14.5t64 6q42 0 65.5 -11.5t34.5 -28.5t13.5 -35.5t2.5 -33.5v-13q24 15 58 36t78 40t97 32.5t115 13.5q108 0 177 -35t108.5 -96t53.5 -144.5t13 -180.5
q-2 -117 -18 -203.5t-43.5 -148t-64.5 -100.5t-79.5 -61t-89.5 -30.5t-95 -8.5q-98 0 -169.5 27.5t-133.5 77.5v-549zM392 187q47 -34 116.5 -59.5t155.5 -25.5q78 0 125 32.5t72.5 89.5t34 134t9.5 165q1 59 -5 118t-27 106t-61.5 76.5t-109.5 29.5q-46 0 -90.5 -8
t-84 -20.5t-74 -29.5t-61.5 -35v-573z" />
    <glyph glyph-name="q" unicode="q" horiz-adv-x="1130" 
d="M435 -29q-79 0 -141.5 19.5t-106 71t-66.5 142t-24 233.5q-1 131 31.5 232t88 170t129.5 104.5t155 35.5q60 0 114.5 -14t99 -33t76.5 -37t46 -27q3 12 7.5 27.5t9 31.5t9 30t9.5 22q31 -4 58 -8t58 -21q-5 -51 -9.5 -109t-7.5 -118.5t-4.5 -122.5t-1.5 -120v-953
l151 -26q0 -23 -2 -46.5t-8 -45.5h-558l-9 86q19 6 54.5 11.5t74.5 10t74.5 7t53.5 3.5v581q-28 -23 -70 -47t-90.5 -44t-100.5 -33t-100 -13zM480 104q38 0 80.5 9t84.5 24t81 34t70 39v350q0 24 1.5 55t3.5 63t4 60.5t3 48.5q-17 7 -49 19t-70 24t-78 21t-72 9
q-75 0 -126 -30.5t-81.5 -86t-43.5 -132.5t-13 -169q0 -78 8 -140.5t30.5 -106.5t62.5 -67.5t104 -23.5z" />
    <glyph glyph-name="r" unicode="r" horiz-adv-x="825" 
d="M99 78q38 13 80.5 19.5t80.5 13.5v730h-179l-13 86q22 9 54 18t65.5 16.5t65 12.5t52.5 5q42 0 65.5 -11t35 -29.5t13.5 -44t2 -53.5v-77q4 9 14 27t21.5 37.5t23 37.5t19.5 27q32 41 80.5 65.5t119.5 24.5q7 0 19 -0.5t25 -1.5t26 -2.5t23 -4.5q1 -12 1.5 -31t0 -41
t-2 -44.5t-4.5 -41.5q-17 3 -42 6t-57 3q-38 0 -75 -6.5t-67 -19.5q-38 -16 -65 -43t-53 -59v-586l231 -23q2 -5 2 -17v-19q0 -14 -1.5 -29.5t-5.5 -22.5h-546z" />
    <glyph glyph-name="s" unicode="s" horiz-adv-x="896" 
d="M78 52q4 33 8.5 61.5t8.5 57.5t9 60.5t11 70.5l97 3q6 -20 9.5 -42.5t5.5 -44.5t3 -42.5t2 -35.5q57 -34 120 -49t135 -15q21 0 45.5 5t46 17.5t38 33.5t21.5 53q3 20 2.5 42t-7.5 43t-20.5 38.5t-35.5 29.5q-27 15 -67.5 34.5t-84.5 39.5t-86 38t-72 30
q-81 32 -117.5 86t-36.5 143q0 61 20 111t62.5 85t109 54.5t158.5 19.5q21 0 54.5 -1t74.5 -5t88.5 -11.5t97.5 -20.5q-1 -17 -2.5 -47.5t-6 -68t-13 -79.5t-23.5 -82l-90 5l-12 165q-16 10 -40.5 18t-51.5 13.5t-53.5 8.5t-45.5 3q-85 0 -130.5 -33t-45.5 -104
q0 -21 3.5 -38t13.5 -32.5t28.5 -29.5t47.5 -28q30 -14 63.5 -27t72.5 -29t84.5 -36.5t98.5 -48.5q132 -71 132 -218q0 -69 -20 -116.5t-52.5 -79t-73 -49t-82.5 -26t-81.5 -10t-68.5 -1.5q-44 0 -94.5 7t-98.5 18.5t-90 26t-69 29.5z" />
    <glyph glyph-name="t" unicode="t" horiz-adv-x="719" 
d="M187 846h-137q-4 25 -2.5 46t6.5 46l133 12l43 274h120v-274h300q6 -51 0 -104h-300v-515q0 -79 4 -126t17 -71.5t37.5 -31.5t66.5 -7q19 0 45 3t52.5 8.5t50.5 12t41 14.5l31 -86q-31 -18 -67.5 -32.5t-74.5 -24t-75.5 -14.5t-71.5 -5q-58 0 -96.5 13t-63 36.5t-36.5 57
t-17.5 74.5t-5.5 88.5v99.5v506z" />
    <glyph glyph-name="u" unicode="u" horiz-adv-x="1220" 
d="M208 841h-149l-12 83q13 5 36.5 14.5t53 18.5t61 15.5t59.5 6.5q42 0 65.5 -11t35 -27t14 -35t2.5 -34v-570q0 -59 8 -96t27 -58t50 -28.5t78 -8.5q31 -1 70.5 6.5t79.5 20t77.5 28.5t65.5 32v643h-173l-12 86q13 5 40.5 14t61 17.5t68.5 14.5t64 6q42 0 65 -11t34.5 -27
t14 -35t2.5 -34v-766h182l7 -83q-12 -5 -39.5 -14t-60.5 -17.5t-68.5 -14.5t-63.5 -6q-42 0 -65 11.5t-34 28t-13.5 36t-2.5 34.5v41h-3q-26 -20 -66 -46.5t-89.5 -49.5t-105.5 -39t-113 -16q-69 0 -117 14t-78 50.5t-43.5 99t-13.5 158.5v548z" />
    <glyph glyph-name="v" unicode="v" horiz-adv-x="1082" 
d="M128 844l-99 26q-2 5 -2 13v15q0 14 3.5 29.5t7.5 22.5h411l7 -78q-33 -8 -70 -16t-70 -13l221 -642l31 -93l27 102l212 632l-162 28q-2 5 -2 13v15q0 14 4 29.5t7 22.5h383l10 -85q-20 -9 -47.5 -15.5t-44.5 -10.5l-305 -839q-51 -11 -107 -8.5t-103 6.5z" />
    <glyph glyph-name="w" unicode="w" horiz-adv-x="1576" 
d="M117 844l-101 26q-2 5 -2 13v15q0 14 4 29.5t9 22.5h427l6 -78q-34 -8 -79 -16.5t-81 -13.5l158 -617l27 -117l20 81l197 761q47 13 90 11.5t90 -9.5l194 -727l30 -117l24 84l186 648l-172 30q-2 5 -2.5 13t-0.5 15q0 14 4 29.5t8 22.5h383l9 -85q-19 -9 -46 -15.5
t-44 -10.5l-264 -841q-26 -6 -57 -7.5t-60.5 -0.5t-53.5 4t-37 6l-189 672l-21 117l-17 -115l-184 -672q-18 -5 -48 -8t-61.5 -3t-59 2t-39.5 7z" />
    <glyph glyph-name="x" unicode="x" horiz-adv-x="1031" 
d="M38 81l99 25l287 365l-302 379l-84 20q-3 39 12 77h383l4 -79l-110 -24l200 -272l197 274l-135 24q-2 21 0 42t9 38h359l8 -78l-97 -26l-273 -345l332 -406l90 -14q3 -20 0 -42.5t-11 -38.5h-372l-7 78l99 12l-234 302l-215 -288l144 -23q0 -20 -2.5 -42t-7.5 -39h-361z
" />
    <glyph glyph-name="y" unicode="y" horiz-adv-x="1062" 
d="M93 844l-72 26q-2 5 -2.5 13t-0.5 15q0 14 5 29.5t8 22.5h397l7 -78q-33 -11 -73 -18t-75 -12l238 -627l30 -123l241 748l-174 30q-2 5 -2 13v15q0 14 4 29.5t7 22.5h400l9 -85q-10 -5 -22 -8.5t-25 -7t-24.5 -6t-20.5 -4.5l-289 -837l-12 -31q-42 -120 -70.5 -194.5
t-47 -118t-28.5 -64.5t-16 -34q-25 -51 -50 -85.5t-55 -55.5t-68 -30t-89 -9q-32 0 -65.5 4.5t-64 12t-56 17.5t-42.5 22l23 82q45 -5 81 -8t76 1q21 1 43 6t44.5 16t44.5 30t43 49q18 27 40 68.5t45 92.5t46 109t44 118h-90z" />
    <glyph glyph-name="z" unicode="z" horiz-adv-x="927" 
d="M122 0q-6 11 -11.5 27t-9.5 34t-6.5 35.5t-2.5 31.5l560 716h-395l-34 -185l-101 5q-8 69 -11.5 142.5t7.5 143.5h685q7 -10 14.5 -23.5t13.5 -28.5t9.5 -30.5t3.5 -28.5l-569 -731h431l38 183l104 -5q3 -21 4.5 -57.5t1.5 -78t-1.5 -82t-4.5 -68.5h-726z" />
    <glyph glyph-name="braceleft" unicode="{" horiz-adv-x="865" 
d="M381 385q0 18 -3 30t-9.5 20.5t-16.5 15.5t-23 15l-220 125v99l239 140q21 13 27 34t6 46v539q0 45 10 94.5t47 95t109.5 83.5t197.5 61l33 -83l-153 -83q-24 -16 -41 -31t-28 -33t-16 -42.5t-5 -58.5v-516q0 -45 -5 -79t-17 -59.5t-31 -44.5t-47 -34l-155 -83l151 -75
q48 -26 76 -73.5t28 -125.5v-548q0 -35 5 -59.5t15.5 -43.5t27.5 -34t42 -29l158 -92l-38 -78q-125 22 -197.5 60t-109.5 83.5t-47 95.5t-10 95v573z" />
    <glyph glyph-name="bar" unicode="|" horiz-adv-x="650" 
d="M248 1756h133v-2193h-133v2193z" />
    <glyph glyph-name="braceright" unicode="}" horiz-adv-x="879" 
d="M340 324q0 45 5 79t17 59.5t31 44.5t47 34l155 83l-151 75q-48 26 -76 73.5t-28 125.5v548q0 34 -5 59t-15.5 44t-27.5 34t-42 29l-158 92l38 78q125 -22 197.5 -60t109.5 -84t47 -95.5t10 -94.5v-573q0 -18 3 -30t9.5 -20.5t16 -15.5t23.5 -15l220 -125v-99l-239 -140
q-21 -13 -27 -34t-6 -46v-539q0 -30 -4 -62t-16.5 -64.5t-36.5 -63t-64.5 -58t-100 -49.5t-142.5 -37l-33 83l153 83q24 16 41 31t28 33t16 42t5 59v516z" />
    <glyph glyph-name="asciitilde" unicode="~" horiz-adv-x="1002" 
d="M73 487q12 26 37.5 54t59.5 51t73.5 38t80.5 15q64 0 110.5 -12.5t87 -28t79.5 -28t87 -12.5q29 0 52.5 6.5t44.5 18t40 27.5t40 36l64 -40q-22 -59 -53 -96.5t-65.5 -59t-70 -30t-66.5 -8.5q-51 0 -96.5 13t-89.5 28.5t-89.5 28.5t-96.5 13q-27 0 -49.5 -3.5
t-43.5 -11.5t-42.5 -20.5t-46.5 -30.5z" />
    <glyph glyph-name="nonbreakingspace" unicode="&#xa0;" horiz-adv-x="537" 
 />
    <glyph glyph-name="exclamdown" unicode="&#xa1;" horiz-adv-x="584" 
d="M293 749q-34 0 -56 9t-35 24.5t-18.5 36.5t-5.5 46t5.5 46t18.5 36t35 23.5t56 8.5t55.5 -8.5t34.5 -23.5t18 -36t5 -46t-5 -46t-18 -36.5t-34.5 -24.5t-55.5 -9zM232 572q61 11 122 0l18 -409q7 -168 13 -333.5t10 -330.5q-24 -5 -51 -7.5t-53.5 -2t-51.5 3t-45 6.5
q2 164 7.5 332.5t13.5 333.5z" />
    <glyph glyph-name="cent" unicode="&#xa2;" horiz-adv-x="943" 
d="M480 22q-75 4 -143.5 26t-120 76.5t-82 148.5t-30.5 242q0 109 23.5 199t70.5 156t117.5 105.5t164.5 49.5v173q9 3 20.5 4t24.5 1t25 -1t22 -4v-170q32 -1 68 -4t73 -9t74 -16t72 -25q3 -29 -0.5 -67t-10 -77t-13.5 -73.5t-12 -54.5q-29 0 -49 0.5t-48 4.5l-18 175
q-33 16 -69 23.5t-67 10.5v-760h12q45 0 89.5 10.5t80.5 23t59 23.5t26 12l42 -90q-8 -5 -33.5 -21.5t-65.5 -35.5t-93.5 -35t-116.5 -21v-192q-10 -3 -24 -4t-27.5 -1t-25 1.5t-15.5 3.5v192zM480 919q-48 -5 -85 -28t-62.5 -69t-38.5 -117t-13 -173q0 -89 10.5 -153
t33.5 -108.5t61 -70t94 -36.5v755z" />
    <glyph glyph-name="sterling" unicode="&#xa3;" horiz-adv-x="920" 
d="M104 0q-12 22 -18 49t-10 53q36 46 60 88.5t39 86.5t22 91.5t9 104.5h-149l4 109h147q-1 61 -5.5 114.5t-4.5 85.5q0 61 20 110.5t62.5 85t109 54.5t158.5 19q21 0 47 -1t58.5 -4.5t72.5 -11t90 -20.5q-1 -17 -2.5 -47.5t-6 -68t-13 -79.5t-23.5 -82l-90 5l-12 171
q-12 6 -30.5 10.5t-39 8t-40.5 5t-34 1.5q-86 0 -126 -29.5t-40 -107.5q0 -50 2.5 -99.5t5.5 -119.5h224q1 -11 2 -25.5t1 -29.5t-1 -29.5t-2 -24.5h-224q-2 -38 -7 -74t-13 -68q-9 -36 -21 -65.5t-27.5 -55.5t-35.5 -50.5t-44 -51.5l440 14l36 155q30 2 60.5 0.5t54.5 -5.5
q1 -21 0.5 -55.5t-2.5 -73t-4.5 -77t-4.5 -66.5h-695z" />
    <glyph glyph-name="currency" unicode="&#xa4;" horiz-adv-x="981" 
d="M111 232l119 125q-24 37 -37 81.5t-13 93.5q0 97 51 174l-116 119q19 29 37.5 45.5t41.5 31.5l118 -112q37 26 81 40t94 14q49 0 93 -15t82 -41l120 117q9 -3 20 -12t22.5 -19.5t21 -21.5t14.5 -20l-119 -124q25 -38 39 -82.5t14 -93.5q0 -48 -13.5 -91.5t-36.5 -80.5
l128 -128l-78 -76l-128 121q-38 -28 -83 -43t-96 -15t-96 15t-83 41l-121 -117zM487 334q43 0 78.5 15.5t60.5 42t39 62.5t14 78t-14 78t-39 62.5t-60.5 42t-78.5 15.5q-45 0 -80.5 -15.5t-61 -42t-39 -62.5t-13.5 -78t14 -78t39.5 -62.5t61.5 -42t79 -15.5z" />
    <glyph glyph-name="yen" unicode="&#xa5;" horiz-adv-x="1106" 
d="M309 83q42 9 78.5 12.5t77.5 8.5v130h-217v95h217v120h-219v95h166l-270 378l-92 19q-2 21 -0.5 41t4.5 42h402q3 -22 3.5 -43t0.5 -43l-122 -16l182 -258l64 -114l56 107l194 265l-142 16q-3 41 5 86h338q4 -22 4.5 -42t0.5 -41l-75 -19l-271 -378h181q3 -22 3 -47.5
t-3 -47.5h-241v-120h243q4 -22 4 -48t-4 -47h-243v-130q41 -5 77.5 -9.5t77.5 -11.5q7 -41 0 -83h-473z" />
    <glyph glyph-name="brokenbar" unicode="&#xa6;" horiz-adv-x="650" 
d="M248 1756h133v-922h-133v922zM248 515h133v-952h-133v952z" />
    <glyph glyph-name="section" unicode="&#xa7;" horiz-adv-x="922" 
d="M201 -334q34 -18 66.5 -29t61.5 -17t52.5 -8t39.5 -2h3q3 28 5 49.5t2.5 41t-0.5 40.5t-3 49q-9 125 -35.5 231.5t-60.5 203t-71.5 187t-68.5 182t-51.5 188t-20.5 206.5q0 123 38.5 222.5t123.5 171.5q57 48 136 71.5t177 23.5q15 0 37 -2t48.5 -7t54.5 -12.5t54 -18.5
l-54 -140q-34 19 -66.5 30.5t-61.5 17.5t-52.5 8t-39.5 2q-6 -41 -8 -85t3 -95q9 -125 35 -232t60 -203.5t71.5 -187t68.5 -182t51 -188t20 -205.5q0 -124 -38.5 -223.5t-123.5 -171.5q-57 -48 -136 -71t-178 -23q-14 0 -36 2t-48.5 7t-54.5 12t-54 18zM433 354
q24 -73 47 -153.5t39 -170.5t21.5 -191t-4.5 -216q14 5 26.5 10t21.5 13q31 24 49.5 57t28 71.5t12 80.5t2.5 84q-1 74 -14.5 146.5t-36.5 152t-54.5 170t-67.5 201.5q-20 59 -38.5 124t-33.5 136t-25 147.5t-11 158.5q-2 38 4.5 83.5t17.5 86.5q-42 -9 -65 -26
q-31 -24 -49.5 -57.5t-28 -72t-12 -80t-2.5 -83.5q1 -75 14.5 -147.5t36.5 -152t54.5 -170.5t67.5 -202z" />
    <glyph glyph-name="dieresis" unicode="&#xa8;" horiz-adv-x="629" 
d="M510 1206q-30 0 -50 8t-32 22.5t-16.5 33t-4.5 39.5t4.5 40.5t16.5 34.5t32 23.5t50 8.5q63 0 85 -28.5t22 -78.5q0 -21 -5 -39.5t-17 -33t-33 -22.5t-52 -8zM115 1206q-30 0 -50 8t-32 22.5t-17 33t-5 39.5t5 40.5t17 34.5t32 23.5t50 8.5q31 0 51.5 -7.5t33 -21.5
t17.5 -33.5t5 -44.5q0 -21 -5 -39.5t-17.5 -33t-33 -22.5t-51.5 -8z" />
    <glyph glyph-name="copyright" unicode="&#xa9;" horiz-adv-x="1588" 
d="M70 695q0 100 25.5 192.5t72.5 173t112.5 146.5t146 113t173.5 72.5t194 25.5q100 0 193 -25.5t173.5 -72.5t146.5 -113t113 -146.5t72.5 -173t25.5 -192.5q0 -101 -25.5 -194t-72.5 -173.5t-113 -146t-146.5 -112.5t-173.5 -72.5t-193 -25.5q-101 0 -194 25.5
t-173.5 72.5t-146 112.5t-112.5 146t-72.5 173.5t-25.5 194zM192 695q0 -126 45 -237t125 -194t190.5 -131t241.5 -48t241.5 48t190 131t124 194t44.5 237t-44 237t-123.5 193.5t-189.5 130.5t-243 48q-134 0 -244.5 -48t-190 -130.5t-123.5 -193.5t-44 -237zM451 685
q0 95 22 171.5t66.5 130.5t110.5 83t153 29q28 0 60 -1.5t67 -6.5t72.5 -16.5t77.5 -30.5q3 -23 0.5 -53.5t-7.5 -61.5t-11.5 -58.5t-12.5 -43.5q-21 0 -40 0.5t-40 2.5l-10 137q-26 14 -54.5 22t-54.5 11.5t-45.5 4.5t-26.5 1q-44 0 -78 -15.5t-57.5 -51.5t-35.5 -95
t-12 -147q0 -85 12.5 -142t41 -91.5t74.5 -49.5t114 -15q37 0 76 8t71.5 18t54.5 19t25 10l32 -75q-6 -5 -31.5 -20t-66 -31.5t-93 -29t-111.5 -12.5q-65 0 -127 13.5t-110 56t-77 121t-29 208.5z" />
    <glyph glyph-name="ordfeminine" unicode="&#xaa;" horiz-adv-x="863" 
d="M262 697q-35 0 -71.5 9t-67 30.5t-50 57t-19.5 88.5v16q0 70 35.5 116.5t93 75t130.5 42.5t147 19l65 4v34q-1 55 -9 88t-27.5 51t-51 23.5t-78.5 5.5q-54 0 -107.5 -14.5t-111.5 -35.5l-36 87q11 6 37 20t64 28t85.5 24.5t101.5 10.5q83 0 137.5 -15t86.5 -49.5t45 -92
t13 -141.5v-363q4 -2 7 -1t7 1q9 0 23.5 2t31 5t33 6.5t27.5 7.5l27 -71q-5 -9 -17 -17t-26 -16q-32 -17 -72.5 -26.5t-74.5 -9.5q-33 0 -53 7t-31.5 19t-16 28.5t-5.5 35.5l-2 33q-20 -19 -48 -40.5t-62.5 -40t-75 -30.5t-84.5 -12zM307 814q39 0 97 18.5t121 60.5v183
l-56 -10q-63 -11 -111.5 -23.5t-81.5 -30.5t-49.5 -44.5t-16.5 -65.5q0 -26 8 -43t21.5 -27t31 -14t36.5 -4z" />
    <glyph glyph-name="guillemotleft" unicode="&#xab;" horiz-adv-x="1031" 
d="M507 512l334 370q15 -4 37.5 -18.5t33.5 -33.5l-253 -365l256 -350q-5 -9 -13.5 -19t-19 -20t-21.5 -17.5t-20 -11.5l-334 364v101zM115 512l334 370q15 -4 37.5 -18.5t33.5 -33.5l-253 -365l256 -350q-5 -9 -13.5 -19t-19 -20t-21.5 -17.5t-20 -11.5l-334 364v101z" />
    <glyph glyph-name="logicalnot" unicode="&#xac;" horiz-adv-x="1116" 
d="M99 622h905v-459h-132v336h-777z" />
    <glyph glyph-name="uni00AD" unicode="&#xad;" horiz-adv-x="607" 
d="M92 622h438q1 -11 2 -27.5t1 -34.5t-1 -34.5t-2 -26.5h-442z" />
    <glyph glyph-name="registered" unicode="&#xae;" horiz-adv-x="1588" 
d="M70 695q0 100 25.5 192.5t72.5 173t112.5 146.5t146 113t173.5 72.5t194 25.5q100 0 193 -25.5t173.5 -72.5t146.5 -113t113 -146.5t72.5 -173t25.5 -192.5q0 -101 -25.5 -194t-72.5 -173.5t-113 -146t-146.5 -112.5t-173.5 -72.5t-193 -25.5q-101 0 -194 25.5
t-173.5 72.5t-146 112.5t-112.5 146t-72.5 173.5t-25.5 194zM192 695q0 -126 45 -237t125 -194t190.5 -131t241.5 -48t241.5 48t190 131t124 194t44.5 237t-44 237t-123.5 193.5t-189.5 130.5t-243 48q-134 0 -244.5 -48t-190 -130.5t-123.5 -193.5t-44 -237zM454 374
q16 3 27.5 5.5t22.5 4t23 3l28 3.5v629q-16 2 -27 3t-21 2.5t-21 3.5t-26 5q-2 17 0 31.5t9 31.5h309q78 0 139.5 -6.5t104 -32t65 -75.5t22.5 -136q0 -58 -15 -98.5t-40.5 -67.5t-60 -42t-73.5 -21l146 -220l100 -18q1 -1 1 -10t-1 -20l-2 -22t-3 -15h-192l-170 290
q-25 0 -54.5 2t-61.5 5v-219q16 -2 28.5 -3.5t23.5 -3.5t23.5 -4t28.5 -5q2 -17 -0.5 -31t-4.5 -31h-322zM742 681q59 -3 103.5 2.5t74 24t44.5 52t15 86.5q0 57 -11 91.5t-37.5 52.5t-71.5 23.5t-112 5.5h-64v-334z" />
    <glyph glyph-name="macron" unicode="&#xaf;" horiz-adv-x="667" 
d="M38 1279h591q2 -11 3 -26.5t1 -32t-1 -32t-3 -25.5h-596z" />
    <glyph glyph-name="degree" unicode="&#xb0;" horiz-adv-x="654" 
d="M327 865q-62 0 -115.5 22.5t-93 61.5t-62.5 92t-23 114t23 114.5t62.5 92.5t93 61.5t115.5 22.5q66 0 120 -22.5t92.5 -61.5t59.5 -92.5t21 -114.5t-23 -114t-63 -92t-93 -61.5t-114 -22.5zM327 988q37 0 68 12.5t53 35t34 53t12 66.5t-11 67t-32 54t-52.5 36.5
t-71.5 13.5q-38 0 -69.5 -13.5t-53.5 -36.5t-34 -54t-12 -67t12.5 -66.5t34.5 -53t53 -35t69 -12.5z" />
    <glyph glyph-name="plusminus" unicode="&#xb1;" horiz-adv-x="936" 
d="M404 518h-323l4 116h319v266q11 3 27.5 4t34.5 1t34 -1t27 -4v-266h323q2 -11 3 -26.5t1 -32t-1 -32t-3 -25.5h-323v-284h-123v284zM85 118h765q2 -11 3 -26.5t1 -32t-1 -32.5t-3 -27h-769z" />
    <glyph glyph-name="twosuperior" unicode="&#xb2;" horiz-adv-x="907" 
d="M108 756q-6 10 -11 28.5t-8.5 39.5t-5.5 41t-2 33q36 25 85 56.5t101.5 69t103.5 80t91.5 89t65.5 96.5t25 103q0 61 -44 95.5t-128 34.5q-33 0 -67 -8.5t-65 -21.5t-57 -27t-43 -26l-61 90q6 6 32 24.5t67 38t94.5 35t113.5 15.5q63 0 121 -10.5t102.5 -39t71.5 -78.5
t27 -129q0 -58 -25 -112.5t-67 -105t-95.5 -96t-110.5 -85t-112.5 -73t-101.5 -58.5l400 17l33 147q29 2 58 0.5t53 -5.5q1 -21 0 -53.5t-2.5 -69.5t-4 -72.5t-5.5 -62.5h-629z" />
    <glyph glyph-name="threesuperior" unicode="&#xb3;" horiz-adv-x="909" 
d="M113 794q-5 22 2.5 46.5t17.5 41.5q35 -11 89.5 -26t127.5 -15q42 0 83 7.5t73 26.5t51.5 51.5t19.5 82.5q0 26 -5 53.5t-28.5 49.5t-71.5 33.5t-134 5.5l-97 -12q-7 17 -9 39.5t-2 48.5q25 6 57 14t64.5 18.5t64 24.5t55.5 33t39 44t15 57q0 57 -41.5 81.5t-122.5 24.5
q-65 0 -111.5 -17t-82.5 -34l-54 85q6 6 27.5 20t56.5 28t81.5 25t102.5 11q158 0 232.5 -50t74.5 -144q0 -49 -18 -85t-48.5 -62.5t-70 -45.5t-82.5 -33q89 1 143.5 -19.5t84.5 -52t40 -68.5t10 -70q0 -62 -26 -111.5t-73 -84.5t-111.5 -55t-141.5 -21q-32 -1 -72 3.5
t-79 12t-74 17.5t-57 21z" />
    <glyph glyph-name="acute" unicode="&#xb4;" horiz-adv-x="471" 
d="M106 1106q-21 6 -41 19t-36 36l214 343l178 4l21 -42z" />
    <glyph glyph-name="mu" unicode="&#xb5;" horiz-adv-x="1236" 
d="M381 -605q-49 -13 -102.5 -13t-96.5 11l21 1557q34 5 71 8t87 -8v-522q0 -57 1 -113t14 -99.5t43 -70.5t89 -27q43 0 82.5 5.5t77.5 19.5t75 37t75 59v711q43 5 81 6t84 -6v-835q16 -2 43.5 0t57 6t54.5 8.5t37 7.5l23 -69q-26 -27 -55.5 -46t-60.5 -30t-60 -16t-53 -5
q-48 0 -77 16t-44.5 43t-21 62t-6.5 73q-35 -61 -78.5 -99t-87.5 -59t-84.5 -28.5t-68.5 -7.5q-14 0 -39 2.5t-53 12.5t-53 30.5t-37 56.5l-5 -3z" />
    <glyph glyph-name="mu" unicode="&#x3bc;" horiz-adv-x="1236" 
d="M381 -605q-49 -13 -102.5 -13t-96.5 11l21 1557q34 5 71 8t87 -8v-522q0 -57 1 -113t14 -99.5t43 -70.5t89 -27q43 0 82.5 5.5t77.5 19.5t75 37t75 59v711q43 5 81 6t84 -6v-835q16 -2 43.5 0t57 6t54.5 8.5t37 7.5l23 -69q-26 -27 -55.5 -46t-60.5 -30t-60 -16t-53 -5
q-48 0 -77 16t-44.5 43t-21 62t-6.5 73q-35 -61 -78.5 -99t-87.5 -59t-84.5 -28.5t-68.5 -7.5q-14 0 -39 2.5t-53 12.5t-53 30.5t-37 56.5l-5 -3z" />
    <glyph glyph-name="mu" unicode="&#x3bc;" horiz-adv-x="1236" 
d="M381 -605q-49 -13 -102.5 -13t-96.5 11l21 1557q34 5 71 8t87 -8v-522q0 -57 1 -113t14 -99.5t43 -70.5t89 -27q43 0 82.5 5.5t77.5 19.5t75 37t75 59v711q43 5 81 6t84 -6v-835q16 -2 43.5 0t57 6t54.5 8.5t37 7.5l23 -69q-26 -27 -55.5 -46t-60.5 -30t-60 -16t-53 -5
q-48 0 -77 16t-44.5 43t-21 62t-6.5 73q-35 -61 -78.5 -99t-87.5 -59t-84.5 -28.5t-68.5 -7.5q-14 0 -39 2.5t-53 12.5t-53 30.5t-37 56.5l-5 -3z" />
    <glyph glyph-name="paragraph" unicode="&#xb6;" horiz-adv-x="1297" 
d="M374 -178q21 -9 51.5 -20t68 -21t80.5 -17t90 -7q17 0 37 1.5t38.5 4.5t34.5 7.5t25 10.5q18 10 31.5 27.5t21.5 48.5t12 77.5t4 115.5v354q-140 -21 -256 -21q-153 0 -251.5 30t-156 97t-80 175t-22.5 265q0 132 28.5 226.5t88.5 154.5t152.5 88.5t221.5 28.5h598l9 -77
q-37 -12 -81 -20.5t-79 -13.5v-1285q0 -283 -170 -376q-53 -28 -124 -42t-146.5 -13t-148.5 16t-129 44zM766 508q9 0 21.5 -0.5t26.5 -0.5t28 0.5t26 2.5v821l-135 -3q-67 -1 -109 -24t-65.5 -66.5t-32 -105.5t-8.5 -140q0 -61 0.5 -120t6.5 -112.5t20 -99t42 -79t71 -53
t108 -20.5z" />
    <glyph glyph-name="periodcentered" unicode="&#xb7;" horiz-adv-x="494" 
d="M246 433q-37 0 -61.5 10t-39.5 27t-21 40t-6 50t6 50.5t21 41t39.5 28t61.5 10.5t62 -10.5t40 -28t21.5 -41t6.5 -50.5t-6.5 -50t-21.5 -40t-40 -27t-62 -10z" />
    <glyph glyph-name="cedilla" unicode="&#xb8;" horiz-adv-x="395" 
d="M194 0l-49 -118q16 2 32.5 3.5t34.5 1.5q27 0 53.5 -8t47 -24.5t33.5 -42.5t13 -62q0 -41 -15.5 -76.5t-42 -66.5t-62 -57.5t-76.5 -48.5l-82 -45l-45 36q31 27 62.5 52.5t57 51.5t41 53t15.5 56q0 21 -14.5 37.5t-53.5 16.5q-23 0 -47 -4.5t-40 -9.5l-21 50l18 58v1
l50 158z" />
    <glyph glyph-name="onesuperior" unicode="&#xb9;" horiz-adv-x="685" 
d="M97 841q20 3 46 6.5t51.5 7t49 6t38.5 4.5v641h-183l-11 73q41 11 84 21t83 17.5t74.5 13t60.5 7.5l34 -41v-732q38 -6 82.5 -11.5t82.5 -12.5q3 -20 1 -42.5t-6 -42.5h-480z" />
    <glyph glyph-name="ordmasculine" unicode="&#xba;" horiz-adv-x="889" 
d="M413 697q-102 0 -168.5 30t-105.5 82.5t-54 124t-15 153.5q0 81 25 152.5t75 124t125 83t176 30.5q104 0 170.5 -30.5t105 -83t53 -124t14.5 -152.5q0 -82 -25.5 -153.5t-76 -124t-125.5 -82.5t-174 -30zM440 794q41 0 79.5 11t68.5 42.5t48 89t18 150.5q0 92 -15 149.5
t-42.5 89.5t-67.5 43t-89 11q-42 0 -80 -11t-67 -43t-46 -89.5t-17 -149.5q0 -93 14.5 -150.5t41.5 -89t66 -42.5t88 -11z" />
    <glyph glyph-name="guillemotright" unicode="&#xbb;" horiz-adv-x="1031" 
d="M764 463l-256 351q4 9 13 19t19.5 20t21.5 17.5t20 11.5l333 -364v-103l-333 -368q-15 4 -38 18t-34 34zM372 463l-257 351q5 9 13.5 19t19 20t21.5 17.5t20 11.5l334 -364v-103l-334 -368q-14 4 -37 18t-34 34z" />
    <glyph glyph-name="onequarter" unicode="&#xbc;" horiz-adv-x="2095" 
d="M1299 1558q32 -4 56.5 -16t45.5 -29l-824 -1529l-97 47zM111 723q20 3 46 6.5t51.5 7t49 6t38.5 4.5v641h-183l-11 73q41 11 84 21t83 17.5t74.5 13t60.5 7.5l34 -41v-732q38 -6 82.5 -11.5t82.5 -12.5q3 -20 1 -42.5t-6 -42.5h-480zM1089 277q106 168 223 333t248 335
q13 -1 30.5 -9t35 -20.5t33 -28.5t26.5 -32q-121 -148 -234 -284.5t-222 -277.5l376 5v270l123 27l16 -13v-284l144 4q3 -8 4 -23t0.5 -31.5t-1.5 -31.5t-3 -22h-144v-196q-11 -3 -31 -4t-41 -0.5t-39.5 1.5t-27.5 3v196h-473z" />
    <glyph glyph-name="onehalf" unicode="&#xbd;" horiz-adv-x="2032" 
d="M1299 1558q32 -4 56.5 -16t45.5 -29l-824 -1529l-97 47zM111 723q20 3 46 6.5t51.5 7t49 6t38.5 4.5v641h-183l-11 73q41 11 84 21t83 17.5t74.5 13t60.5 7.5l34 -41v-732q38 -6 82.5 -11.5t82.5 -12.5q3 -20 1 -42.5t-6 -42.5h-480zM1147 140q36 25 85 56.5t101.5 69
t103.5 80t91.5 89t65.5 96.5t25 103q0 61 -44 95.5t-128 34.5q-33 0 -67 -8.5t-65 -21.5t-57 -27t-43 -26l-61 90q6 6 32 24.5t67 38t94.5 35t113.5 15.5q63 0 121 -10.5t102.5 -39t71.5 -78.5t27 -129q0 -58 -25 -112.5t-67 -105t-95.5 -96t-110.5 -85t-112.5 -73
t-101.5 -58.5l400 17l33 147q29 2 58 0.5t53 -5.5q1 -21 0 -53.5t-2.5 -69.5t-4 -72.5t-5.5 -62.5h-629q-6 10 -11 28.5t-8.5 39.5t-5.5 41t-2 33z" />
    <glyph glyph-name="threequarters" unicode="&#xbe;" horiz-adv-x="2217" 
d="M1423 1558q32 -4 56 -16t45 -29l-825 -1529l-97 47zM113 676q-5 22 2.5 46.5t17.5 41.5q35 -11 89.5 -26t127.5 -15q42 0 83 7.5t73 26.5t51.5 51.5t19.5 82.5q0 26 -5 53.5t-28.5 49.5t-71.5 33.5t-134 5.5l-97 -12q-7 17 -9 39.5t-2 48.5q25 6 57 14t64.5 18.5t64 24.5
t55.5 33t39 44t15 57q0 57 -41.5 81.5t-122.5 24.5q-65 0 -111.5 -17t-82.5 -34l-54 85q6 6 27.5 20t56.5 28t81.5 25t102.5 11q158 0 232.5 -50t74.5 -144q0 -49 -18 -85t-48.5 -62.5t-70 -45.5t-82.5 -33q89 1 143.5 -19.5t84.5 -52t40 -68.5t10 -70q0 -62 -26 -111.5
t-73 -84.5t-111.5 -55t-141.5 -21q-32 -1 -72 3.5t-79 12t-74 17.5t-57 21zM1213 277q106 168 222.5 333t247.5 335q13 -1 30 -9t34.5 -20.5t33.5 -28.5t27 -32q-121 -148 -234.5 -284.5t-222.5 -277.5l377 5v270l123 27l16 -13v-284l144 4q3 -8 4 -23t0.5 -31.5t-1.5 -31.5
t-3 -22h-144v-196q-12 -3 -31.5 -4t-40.5 -0.5t-39.5 1.5t-27.5 3v196h-474z" />
    <glyph glyph-name="questiondown" unicode="&#xbf;" horiz-adv-x="782" 
d="M504 751q-34 0 -56 9t-35.5 24.5t-19 36.5t-5.5 46t5.5 46t19 36t35.5 23.5t56 8.5t55.5 -8.5t34.5 -23.5t18 -36t5 -46t-5 -46t-18 -36.5t-34.5 -24.5t-55.5 -9zM59 -171q0 63 14 113t37.5 91.5t54 75t64 62.5t68 55.5t65.5 53.5q44 39 63 75.5t23.5 70.5t0 66.5
t-6.5 62.5q9 5 27.5 10t40.5 8t44 2.5t37 -6.5q10 -44 15 -84t-1 -77.5t-26 -74.5t-59 -76q-27 -28 -63 -58.5t-72.5 -65.5t-70 -75.5t-56.5 -86.5q-9 -18 -13 -38.5t-6 -41.5t-2 -40v-33q0 -63 14 -107t42.5 -71t72 -39.5t102.5 -12.5q10 0 26.5 1.5t35.5 4.5t38.5 7.5
t34.5 10.5l9 229q43 8 69.5 7.5t51.5 -5.5q7 -36 12.5 -67.5t10 -63t8 -65t7.5 -73.5q-23 -16 -61.5 -33.5t-85.5 -32t-101 -24t-109 -9.5q-98 0 -166 19t-110 61t-60.5 109.5t-18.5 164.5z" />
    <glyph glyph-name="Agrave" unicode="&#xc0;" horiz-adv-x="1407" 
d="M417 1741l-2 50l115 90l357 -264q-9 -27 -18.5 -44t-22.5 -37zM36 90q7 3 19.5 7t27 7.5t29.5 7t27 6.5l454 1330q25 4 53.5 5.5t56 1.5t53.5 -2t47 -5l468 -1335l105 -23l-10 -90h-468l-9 90q20 5 45 10t51.5 9t51.5 7t45 6l-128 374h-541l-125 -374h5l203 -32l-9 -90
h-440zM917 612l-220 635l-18 63l-25 -108l-200 -590h463z" />
    <glyph glyph-name="Aacute" unicode="&#xc1;" horiz-adv-x="1407" 
d="M554 1538q-10 9 -23 29.5t-24 46.5l361 267l115 -85l-2 -50zM36 90q7 3 19.5 7t27 7.5t29.5 7t27 6.5l454 1330q25 4 53.5 5.5t56 1.5t53.5 -2t47 -5l468 -1335l105 -23l-10 -90h-468l-9 90q20 5 45 10t51.5 9t51.5 7t45 6l-128 374h-541l-125 -374h5l203 -32l-9 -90
h-440zM917 612l-220 635l-18 63l-25 -108l-200 -590h463z" />
    <glyph glyph-name="Acircumflex" unicode="&#xc2;" horiz-adv-x="1407" 
d="M454 1531q-7 4 -16 11t-17.5 16t-15.5 19.5t-10 19.5l246 266h101l246 -260q-11 -23 -31.5 -43.5t-36.5 -28.5l-234 183zM36 90q7 3 19.5 7t27 7.5t29.5 7t27 6.5l454 1330q25 4 53.5 5.5t56 1.5t53.5 -2t47 -5l468 -1335l105 -23l-10 -90h-468l-9 90q20 5 45 10t51.5 9
t51.5 7t45 6l-128 374h-541l-125 -374h5l203 -32l-9 -90h-440zM917 612l-220 635l-18 63l-25 -108l-200 -590h463z" />
    <glyph glyph-name="Atilde" unicode="&#xc3;" horiz-adv-x="1407" 
d="M316 1638q15 32 45.5 66t69 61.5t79 44.5t74.5 15q37 -2 70 -19.5t62 -38t54 -37.5t48 -17q22 0 45.5 9t47 25.5t46 38.5t42.5 47l59 -44q-22 -60 -55.5 -102.5t-71 -69.5t-75 -39.5t-67.5 -12.5q-33 0 -64.5 18t-61 39.5t-57.5 39.5t-55 19q-16 1 -39.5 -6.5
t-49.5 -20.5t-52 -31t-48 -38zM36 90q7 3 19.5 7t27 7.5t29.5 7t27 6.5l454 1330q25 4 53.5 5.5t56 1.5t53.5 -2t47 -5l468 -1335l105 -23l-10 -90h-468l-9 90q20 5 45 10t51.5 9t51.5 7t45 6l-128 374h-541l-125 -374h5l203 -32l-9 -90h-440zM917 612l-220 635l-18 63
l-25 -108l-200 -590h463z" />
    <glyph glyph-name="Adieresis" unicode="&#xc4;" horiz-adv-x="1407" 
d="M891 1590q-33 0 -54 8.5t-33 22.5t-17 33t-5 40q0 22 5 41.5t17 34t33 23t54 8.5q62 0 84.5 -28.5t22.5 -78.5q0 -21 -5 -40t-17.5 -33t-33 -22.5t-51.5 -8.5zM467 1590q-30 0 -50 8.5t-32 22.5t-17 33t-5 40q0 22 5 41.5t17 34t32 23t50 8.5q62 0 87 -28.5t25 -78.5
q0 -21 -6 -40t-19 -33t-34.5 -22.5t-52.5 -8.5zM36 90q7 3 19.5 7t27 7.5t29.5 7t27 6.5l454 1330q25 4 53.5 5.5t56 1.5t53.5 -2t47 -5l468 -1335l105 -23l-10 -90h-468l-9 90q20 5 45 10t51.5 9t51.5 7t45 6l-128 374h-541l-125 -374h5l203 -32l-9 -90h-440zM917 612
l-220 635l-18 63l-25 -108l-200 -590h463z" />
    <glyph glyph-name="Aring" unicode="&#xc5;" horiz-adv-x="1407" 
d="M688 1503q-46 0 -86.5 16t-70.5 44.5t-47.5 68t-17.5 86.5q0 46 17.5 85.5t47.5 68t70.5 44.5t86.5 16q48 0 88.5 -16t69.5 -44.5t45 -67.5t16 -86t-17 -86.5t-47 -68t-70 -44.5t-85 -16zM711 1615q38 4 55 28t19 62q2 48 -23 78.5t-76 34.5h-16q-38 -4 -56 -27t-20 -61
q-3 -47 22.5 -80t79.5 -35h15zM36 90q7 3 19.5 7t27 7.5t29.5 7t27 6.5l454 1330q25 4 53.5 5.5t56 1.5t53.5 -2t47 -5l468 -1335l105 -23l-10 -90h-468l-9 90q20 5 45 10t51.5 9t51.5 7t45 6l-128 374h-541l-125 -374h5l203 -32l-9 -90h-440zM917 612l-220 635l-18 63
l-25 -108l-200 -590h463z" />
    <glyph glyph-name="AE" unicode="&#xc6;" horiz-adv-x="1888" 
d="M21 90q7 3 19.5 7t27 7.5t29.5 6.5t27 6l540 1214q-17 2 -30 4.5t-25 5.5t-25 6.5t-29 7.5q-2 23 0 46.5t9 46.5h1182l15 -16q1 -38 -3.5 -87.5t-11 -98.5t-13.5 -90.5t-12 -63.5q-24 -5 -52 -4.5t-57 4.5l-19 239h-501v-560l475 4q5 -29 1.5 -64.5t-8.5 -67.5l-468 11
v-534h548l67 223q28 2 57.5 0t53.5 -9q-1 -35 -4 -78t-7 -86.5t-8 -83.5t-8 -70l-21 -16h-1012v1l-16 -1l-12 92q2 0 5 0.5t7 2.5q38 7 84.5 14.5t86.5 12.5v1204h-112l-243 -557h-5l-50 -115h5l-232 -532h3l203 -32l-9 -90h-440zM508 654l50 115l355 2v-117h-405z" />
    <glyph glyph-name="Ccedilla" unicode="&#xc7;" horiz-adv-x="1347" 
d="M699 -147v1l37 118q-88 2 -166.5 15.5t-145 45t-120 84.5t-90.5 134t-57 194t-20 264q0 193 46 337t132 240t209 143.5t277 47.5q80 0 147 -7t121 -18t94.5 -24t67.5 -24l3 -12q1 -38 -3.5 -85t-11 -93t-13.5 -84.5t-13 -60.5q-23 -5 -53.5 -4.5t-59.5 4.5l-18 219
q-36 19 -76 31.5t-81 19.5t-79.5 9.5t-71.5 2.5q-116 0 -197.5 -45t-132.5 -126.5t-74 -195.5t-23 -251q0 -159 24 -277t79.5 -196.5t147.5 -117t227 -38.5q38 0 77 3t73.5 9t63.5 14t47 17l57 225q42 5 66 3.5t40 -7.5q1 -21 2 -51t1.5 -66.5t0.5 -77.5t-2 -83
q-17 -17 -54 -36.5t-90.5 -36t-119.5 -29t-140 -16.5l-37 -90q16 2 32.5 3.5t34.5 1.5q27 0 53.5 -8t47 -24.5t33.5 -42.5t13 -62q0 -41 -15.5 -76.5t-42 -66.5t-62 -57.5t-76.5 -48.5l-82 -45l-45 36q31 27 62.5 52.5t57 51.5t41 53t15.5 56q0 21 -14.5 37.5t-53.5 16.5
q-23 0 -47 -4.5t-40 -9.5l-21 50z" />
    <glyph glyph-name="Egrave" unicode="&#xc8;" horiz-adv-x="1269" 
d="M329 1741l-2 50l115 90l357 -264q-9 -27 -18.5 -44t-22.5 -37zM102 90q38 14 82 19.5t85 10.5v1208l-161 31q-2 5 -2 16.5v18.5q0 15 4 31t8 23h1009l14 -16q1 -38 -3 -87.5t-10.5 -98.5t-13.5 -90.5t-13 -63.5q-23 -5 -51.5 -4.5t-57.5 4.5l-18 239h-525v-523l498 6
q5 -29 2 -66t-8 -69l-492 11v-570h572l66 223q29 2 58.5 0t52.5 -9q-1 -35 -3.5 -78t-6.5 -86.5t-8 -83.5t-8 -70l-21 -16h-1040z" />
    <glyph glyph-name="Eacute" unicode="&#xc9;" horiz-adv-x="1269" 
d="M511 1538q-10 9 -23 29.5t-24 46.5l361 267l115 -85l-2 -50zM102 90q38 14 82 19.5t85 10.5v1208l-161 31q-2 5 -2 16.5v18.5q0 15 4 31t8 23h1009l14 -16q1 -38 -3 -87.5t-10.5 -98.5t-13.5 -90.5t-13 -63.5q-23 -5 -51.5 -4.5t-57.5 4.5l-18 239h-525v-523l498 6
q5 -29 2 -66t-8 -69l-492 11v-570h572l66 223q29 2 58.5 0t52.5 -9q-1 -35 -3.5 -78t-6.5 -86.5t-8 -83.5t-8 -70l-21 -16h-1040z" />
    <glyph glyph-name="Ecircumflex" unicode="&#xca;" horiz-adv-x="1269" 
d="M447 1531q-7 4 -16 11t-17.5 16t-15.5 19.5t-10 19.5l246 266h101l246 -260q-11 -23 -31.5 -43.5t-36.5 -28.5l-234 183zM102 90q38 14 82 19.5t85 10.5v1208l-161 31q-2 5 -2 16.5v18.5q0 15 4 31t8 23h1009l14 -16q1 -38 -3 -87.5t-10.5 -98.5t-13.5 -90.5t-13 -63.5
q-23 -5 -51.5 -4.5t-57.5 4.5l-18 239h-525v-523l498 6q5 -29 2 -66t-8 -69l-492 11v-570h572l66 223q29 2 58.5 0t52.5 -9q-1 -35 -3.5 -78t-6.5 -86.5t-8 -83.5t-8 -70l-21 -16h-1040z" />
    <glyph glyph-name="Edieresis" unicode="&#xcb;" horiz-adv-x="1269" 
d="M877 1590q-33 0 -54 8.5t-33 22.5t-17 33t-5 40q0 22 5 41.5t17 34t33 23t54 8.5q62 0 84.5 -28.5t22.5 -78.5q0 -21 -5 -40t-17.5 -33t-33 -22.5t-51.5 -8.5zM453 1590q-30 0 -50 8.5t-32 22.5t-17 33t-5 40q0 22 5 41.5t17 34t32 23t50 8.5q62 0 87 -28.5t25 -78.5
q0 -21 -6 -40t-19 -33t-34.5 -22.5t-52.5 -8.5zM102 90q38 14 82 19.5t85 10.5v1208l-161 31q-2 5 -2 16.5v18.5q0 15 4 31t8 23h1009l14 -16q1 -38 -3 -87.5t-10.5 -98.5t-13.5 -90.5t-13 -63.5q-23 -5 -51.5 -4.5t-57.5 4.5l-18 239h-525v-523l498 6q5 -29 2 -66t-8 -69
l-492 11v-570h572l66 223q29 2 58.5 0t52.5 -9q-1 -35 -3.5 -78t-6.5 -86.5t-8 -83.5t-8 -70l-21 -16h-1040z" />
    <glyph glyph-name="Igrave" unicode="&#xcc;" horiz-adv-x="730" 
d="M126 1741l-2 50l115 90l357 -264q-9 -27 -18.5 -44t-22.5 -37zM95 90q39 14 88.5 20.5t91.5 11.5v1206l-164 31q-2 5 -2.5 18.5t-0.5 21.5q0 14 4 28t8 21h497l10 -84q-36 -13 -84 -22t-89 -14v-1206l186 -34q2 -5 2.5 -14.5t0.5 -16.5q0 -14 -4 -32t-8 -25h-527z" />
    <glyph glyph-name="Iacute" unicode="&#xcd;" horiz-adv-x="728" 
d="M213 1538q-10 9 -23 29.5t-24 46.5l361 267l115 -85l-2 -50zM95 90q39 14 88.5 20.5t91.5 11.5v1206l-164 31q-2 5 -2.5 18.5t-0.5 21.5q0 14 4 28t8 21h497l10 -84q-36 -13 -84 -22t-89 -14v-1206l186 -34q2 -5 2.5 -14.5t0.5 -16.5q0 -14 -4 -32t-8 -25h-527z" />
    <glyph glyph-name="Icircumflex" unicode="&#xce;" horiz-adv-x="742" 
d="M127 1531q-7 4 -16 11t-17.5 16t-15.5 19.5t-10 19.5l246 266h101l246 -260q-11 -23 -31.5 -43.5t-36.5 -28.5l-234 183zM97 90q39 14 88.5 20.5t91.5 11.5v1206l-164 31q-2 5 -2.5 18.5t-0.5 21.5q0 14 4 28t8 21h497l10 -84q-36 -13 -84 -22t-89 -14v-1206l186 -34
q2 -5 2.5 -14.5t0.5 -16.5q0 -14 -4 -32t-8 -25h-527z" />
    <glyph glyph-name="Idieresis" unicode="&#xcf;" horiz-adv-x="740" 
d="M576 1590q-33 0 -54 8.5t-33 22.5t-17 33t-5 40q0 22 5 41.5t17 34t33 23t54 8.5q62 0 84.5 -28.5t22.5 -78.5q0 -21 -5 -40t-17.5 -33t-33 -22.5t-51.5 -8.5zM152 1590q-30 0 -50 8.5t-32 22.5t-17 33t-5 40q0 22 5 41.5t17 34t32 23t50 8.5q62 0 87 -28.5t25 -78.5
q0 -21 -6 -40t-19 -33t-34.5 -22.5t-52.5 -8.5zM95 90q39 14 88.5 20.5t91.5 11.5v1206l-164 31q-2 5 -2.5 18.5t-0.5 21.5q0 14 4 28t8 21h497l10 -84q-36 -13 -84 -22t-89 -14v-1206l186 -34q2 -5 2.5 -14.5t0.5 -16.5q0 -14 -4 -32t-8 -25h-527z" />
    <glyph glyph-name="Eth" unicode="&#xd0;" horiz-adv-x="1486" 
d="M120 95q41 8 84.5 15t85.5 12v563h-177l5 118h172v528q-42 5 -81 10.5t-80 15.5q-5 46 9 91h572q90 0 173.5 -12.5t155.5 -42t131 -78.5t100.5 -121t64.5 -169.5t23 -225.5v-82q0 -196 -45.5 -332.5t-133.5 -222t-216 -124t-293 -38.5h-544zM685 115h50q116 0 198 41.5
t133.5 118.5t75.5 187t24 247v76q0 155 -31.5 258t-97.5 166t-169.5 91t-247.5 33l-151 -2v-528h330q3 -11 4 -27t0.5 -32.5t-2 -32.5t-2.5 -26h-330v-563z" />
    <glyph glyph-name="Ntilde" unicode="&#xd1;" horiz-adv-x="1588" 
d="M472 1638q15 32 45.5 66t69 61.5t79 44.5t74.5 15q37 -2 70 -19.5t62 -38t54 -37.5t48 -17q22 0 45.5 9t47 25.5t46 38.5t42.5 47l59 -44q-22 -60 -55.5 -102.5t-71 -69.5t-75 -39.5t-67.5 -12.5q-33 0 -64.5 18t-61 39.5t-57.5 39.5t-55 19q-16 1 -39.5 -6.5
t-49.5 -20.5t-52 -31t-48 -38zM97 90q39 14 82.5 20.5t84.5 11.5v1206l-167 31q-2 5 -2 16.5v18.5q0 15 4 31t7 23h376l72 -124h1l575 -1000l81 -198l-15 221v981l-175 31q-2 5 -2 16.5v18.5q0 15 4 31t8 23h460l9 -86q-39 -11 -74 -20t-77 -14v-1328q-21 -8 -50.5 -13.5
t-60 -8.5t-59.5 -3t-49 4v3l-655 1136l-66 165l9 -172v-989l196 -32q2 -5 2.5 -15.5t0.5 -17.5q0 -14 -4.5 -32t-7.5 -25h-499z" />
    <glyph glyph-name="Ograve" unicode="&#xd2;" 
d="M485 1741l-2 50l115 90l357 -264q-9 -27 -18.5 -44t-22.5 -37zM704 -40q-117 0 -204 27.5t-149 78t-101.5 120t-62.5 154t-31.5 180t-8.5 197.5v2q0 105 14 202.5t44.5 181.5t79.5 153t118 118t160.5 76t207.5 27h70q118 0 204 -26.5t146.5 -75t97.5 -116.5t58 -151.5
t28 -180t7 -201.5v-13q0 -158 -33 -295t-105.5 -239t-188 -160.5t-280.5 -58.5h-71zM760 83q137 0 221.5 48t131 133t62.5 201.5t16 253.5q0 82 -4 161t-18.5 149.5t-42 129.5t-74.5 101.5t-117 66.5t-169 24q-91 0 -158 -21.5t-114.5 -61.5t-77 -97t-46.5 -127t-23.5 -152
t-6.5 -173q0 -78 4.5 -155t19 -147.5t42.5 -131.5t74.5 -106t115 -70.5t164.5 -25.5z" />
    <glyph glyph-name="Oacute" unicode="&#xd3;" 
d="M665 1538q-10 9 -23 29.5t-24 46.5l361 267l115 -85l-2 -50zM704 -40q-117 0 -204 27.5t-149 78t-101.5 120t-62.5 154t-31.5 180t-8.5 197.5v2q0 105 14 202.5t44.5 181.5t79.5 153t118 118t160.5 76t207.5 27h70q118 0 204 -26.5t146.5 -75t97.5 -116.5t58 -151.5
t28 -180t7 -201.5v-13q0 -158 -33 -295t-105.5 -239t-188 -160.5t-280.5 -58.5h-71zM760 83q137 0 221.5 48t131 133t62.5 201.5t16 253.5q0 82 -4 161t-18.5 149.5t-42 129.5t-74.5 101.5t-117 66.5t-169 24q-91 0 -158 -21.5t-114.5 -61.5t-77 -97t-46.5 -127t-23.5 -152
t-6.5 -173q0 -78 4.5 -155t19 -147.5t42.5 -131.5t74.5 -106t115 -70.5t164.5 -25.5z" />
    <glyph glyph-name="Ocircumflex" unicode="&#xd4;" 
d="M532 1531q-7 4 -16 11t-17.5 16t-15.5 19.5t-10 19.5l246 266h101l246 -260q-11 -23 -31.5 -43.5t-36.5 -28.5l-234 183zM704 -40q-117 0 -204 27.5t-149 78t-101.5 120t-62.5 154t-31.5 180t-8.5 197.5v2q0 105 14 202.5t44.5 181.5t79.5 153t118 118t160.5 76t207.5 27
h70q118 0 204 -26.5t146.5 -75t97.5 -116.5t58 -151.5t28 -180t7 -201.5v-13q0 -158 -33 -295t-105.5 -239t-188 -160.5t-280.5 -58.5h-71zM760 83q137 0 221.5 48t131 133t62.5 201.5t16 253.5q0 82 -4 161t-18.5 149.5t-42 129.5t-74.5 101.5t-117 66.5t-169 24
q-91 0 -158 -21.5t-114.5 -61.5t-77 -97t-46.5 -127t-23.5 -152t-6.5 -173q0 -78 4.5 -155t19 -147.5t42.5 -131.5t74.5 -106t115 -70.5t164.5 -25.5z" />
    <glyph glyph-name="Otilde" unicode="&#xd5;" 
d="M415 1638q15 32 45.5 66t69 61.5t79 44.5t74.5 15q37 -2 70 -19.5t62 -38t54 -37.5t48 -17q22 0 45.5 9t47 25.5t46 38.5t42.5 47l59 -44q-22 -60 -55.5 -102.5t-71 -69.5t-75 -39.5t-67.5 -12.5q-33 0 -64.5 18t-61 39.5t-57.5 39.5t-55 19q-16 1 -39.5 -6.5
t-49.5 -20.5t-52 -31t-48 -38zM704 -40q-117 0 -204 27.5t-149 78t-101.5 120t-62.5 154t-31.5 180t-8.5 197.5v2q0 105 14 202.5t44.5 181.5t79.5 153t118 118t160.5 76t207.5 27h70q118 0 204 -26.5t146.5 -75t97.5 -116.5t58 -151.5t28 -180t7 -201.5v-13
q0 -158 -33 -295t-105.5 -239t-188 -160.5t-280.5 -58.5h-71zM760 83q137 0 221.5 48t131 133t62.5 201.5t16 253.5q0 82 -4 161t-18.5 149.5t-42 129.5t-74.5 101.5t-117 66.5t-169 24q-91 0 -158 -21.5t-114.5 -61.5t-77 -97t-46.5 -127t-23.5 -152t-6.5 -173
q0 -78 4.5 -155t19 -147.5t42.5 -131.5t74.5 -106t115 -70.5t164.5 -25.5z" />
    <glyph glyph-name="Odieresis" unicode="&#xd6;" 
d="M981 1590q-33 0 -54 8.5t-33 22.5t-17 33t-5 40q0 22 5 41.5t17 34t33 23t54 8.5q62 0 84.5 -28.5t22.5 -78.5q0 -21 -5 -40t-17.5 -33t-33 -22.5t-51.5 -8.5zM557 1590q-30 0 -50 8.5t-32 22.5t-17 33t-5 40q0 22 5 41.5t17 34t32 23t50 8.5q62 0 87 -28.5t25 -78.5
q0 -21 -6 -40t-19 -33t-34.5 -22.5t-52.5 -8.5zM704 -40q-117 0 -204 27.5t-149 78t-101.5 120t-62.5 154t-31.5 180t-8.5 197.5v2q0 105 14 202.5t44.5 181.5t79.5 153t118 118t160.5 76t207.5 27h70q118 0 204 -26.5t146.5 -75t97.5 -116.5t58 -151.5t28 -180t7 -201.5
v-13q0 -158 -33 -295t-105.5 -239t-188 -160.5t-280.5 -58.5h-71zM760 83q137 0 221.5 48t131 133t62.5 201.5t16 253.5q0 82 -4 161t-18.5 149.5t-42 129.5t-74.5 101.5t-117 66.5t-169 24q-91 0 -158 -21.5t-114.5 -61.5t-77 -97t-46.5 -127t-23.5 -152t-6.5 -173
q0 -78 4.5 -155t19 -147.5t42.5 -131.5t74.5 -106t115 -70.5t164.5 -25.5z" />
    <glyph glyph-name="multiply" unicode="&#xd7;" horiz-adv-x="981" 
d="M108 234l298 298l-291 288q19 28 42 46t46 34l286 -284l286 286q10 -5 22 -14.5t24 -20.5t21.5 -22t14.5 -20l-286 -290l301 -298l-85 -81l-300 296l-298 -296z" />
    <glyph glyph-name="Oslash" unicode="&#xd8;" horiz-adv-x="1527" 
d="M401 31q-78 46 -127.5 117t-77.5 160t-38.5 193t-10.5 216v2q0 105 14 202.5t44.5 181.5t79.5 153t118 118t160.5 76t207.5 27h70q106 0 190 -23l73 165q29 -5 53.5 -16.5t47.5 -28.5l-71 -160q79 -44 127.5 -113t75.5 -158t36 -195t9 -222v-13q0 -158 -33 -295
t-105.5 -239t-188 -160.5t-280.5 -58.5h-71q-59 0 -109 7t-95 21l-79 -180l-99 45zM969 1314q-41 18 -91 27.5t-112 9.5q-91 0 -158 -21.5t-114.5 -61.5t-77 -97t-46.5 -127t-23.5 -152t-6.5 -173q0 -75 4 -150.5t18 -145t39.5 -130t69.5 -105.5zM561 123q40 -19 89 -29.5
t110 -10.5q137 0 221.5 48t131 133t62.5 201.5t16 253.5q0 80 -4 157t-17.5 146t-39 127t-69.5 102z" />
    <glyph glyph-name="Ugrave" unicode="&#xd9;" 
d="M504 1741l-2 50l115 90l357 -264q-9 -27 -18.5 -44t-22.5 -37zM223 1328l-166 31q-2 5 -2.5 16.5t-0.5 18.5q0 15 4 31t8 23h516l9 -84q-18 -7 -42 -12.5t-49.5 -10t-49 -8t-41.5 -5.5v-721q0 -75 3.5 -141.5t16 -123t38.5 -102t70.5 -77.5t111 -49t161.5 -17
q83 0 141.5 18t98 49.5t62.5 74t35 91t15.5 101.5t3.5 106v791l-171 31q-2 5 -2.5 16.5t-0.5 18.5q0 15 4 31t8 23h464l9 -86q-15 -6 -35 -11.5t-41 -9.5t-41 -7t-36 -5v-792q0 -123 -25 -226.5t-89.5 -178.5t-175 -117t-280.5 -42q-116 0 -201 20.5t-144 58.5t-95.5 92
t-56.5 120t-27 143.5t-7 162.5v758z" />
    <glyph glyph-name="Uacute" unicode="&#xda;" 
d="M665 1538q-10 9 -23 29.5t-24 46.5l361 267l115 -85l-2 -50zM223 1328l-166 31q-2 5 -2.5 16.5t-0.5 18.5q0 15 4 31t8 23h516l9 -84q-18 -7 -42 -12.5t-49.5 -10t-49 -8t-41.5 -5.5v-721q0 -75 3.5 -141.5t16 -123t38.5 -102t70.5 -77.5t111 -49t161.5 -17
q83 0 141.5 18t98 49.5t62.5 74t35 91t15.5 101.5t3.5 106v791l-171 31q-2 5 -2.5 16.5t-0.5 18.5q0 15 4 31t8 23h464l9 -86q-15 -6 -35 -11.5t-41 -9.5t-41 -7t-36 -5v-792q0 -123 -25 -226.5t-89.5 -178.5t-175 -117t-280.5 -42q-116 0 -201 20.5t-144 58.5t-95.5 92
t-56.5 120t-27 143.5t-7 162.5v758z" />
    <glyph glyph-name="Ucircumflex" unicode="&#xdb;" 
d="M532 1531q-7 4 -16 11t-17.5 16t-15.5 19.5t-10 19.5l246 266h101l246 -260q-11 -23 -31.5 -43.5t-36.5 -28.5l-234 183zM223 1328l-166 31q-2 5 -2.5 16.5t-0.5 18.5q0 15 4 31t8 23h516l9 -84q-18 -7 -42 -12.5t-49.5 -10t-49 -8t-41.5 -5.5v-721q0 -75 3.5 -141.5
t16 -123t38.5 -102t70.5 -77.5t111 -49t161.5 -17q83 0 141.5 18t98 49.5t62.5 74t35 91t15.5 101.5t3.5 106v791l-171 31q-2 5 -2.5 16.5t-0.5 18.5q0 15 4 31t8 23h464l9 -86q-15 -6 -35 -11.5t-41 -9.5t-41 -7t-36 -5v-792q0 -123 -25 -226.5t-89.5 -178.5t-175 -117
t-280.5 -42q-116 0 -201 20.5t-144 58.5t-95.5 92t-56.5 120t-27 143.5t-7 162.5v758z" />
    <glyph glyph-name="Udieresis" unicode="&#xdc;" 
d="M996 1590q-33 0 -54 8.5t-33 22.5t-17 33t-5 40q0 22 5 41.5t17 34t33 23t54 8.5q62 0 84.5 -28.5t22.5 -78.5q0 -21 -5 -40t-17.5 -33t-33 -22.5t-51.5 -8.5zM572 1590q-30 0 -50 8.5t-32 22.5t-17 33t-5 40q0 22 5 41.5t17 34t32 23t50 8.5q62 0 87 -28.5t25 -78.5
q0 -21 -6 -40t-19 -33t-34.5 -22.5t-52.5 -8.5zM223 1328l-166 31q-2 5 -2.5 16.5t-0.5 18.5q0 15 4 31t8 23h516l9 -84q-18 -7 -42 -12.5t-49.5 -10t-49 -8t-41.5 -5.5v-721q0 -75 3.5 -141.5t16 -123t38.5 -102t70.5 -77.5t111 -49t161.5 -17q83 0 141.5 18t98 49.5
t62.5 74t35 91t15.5 101.5t3.5 106v791l-171 31q-2 5 -2.5 16.5t-0.5 18.5q0 15 4 31t8 23h464l9 -86q-15 -6 -35 -11.5t-41 -9.5t-41 -7t-36 -5v-792q0 -123 -25 -226.5t-89.5 -178.5t-175 -117t-280.5 -42q-116 0 -201 20.5t-144 58.5t-95.5 92t-56.5 120t-27 143.5
t-7 162.5v758z" />
    <glyph glyph-name="Yacute" unicode="&#xdd;" horiz-adv-x="1307" 
d="M541 1538q-10 9 -23 29.5t-24 46.5l361 267l115 -85l-2 -50zM379 90q20 6 45.5 11t52 8.5t52 6.5t46.5 6v505l-440 706l-112 26q-2 5 -2 15v18q0 14 4.5 31.5t7.5 24.5h449l10 -89q-35 -10 -75 -17.5t-77 -12.5l303 -502l42 -83l353 582l-185 33q-2 5 -2.5 15t-0.5 18
q0 14 4 31.5t9 24.5h420l12 -89q-7 -4 -19.5 -8t-27 -7.5l-29 -7t-26.5 -5.5l-439 -697v-512l211 -32q2 -5 2 -15.5v-17.5q0 -14 -4.5 -32t-8.5 -25h-566z" />
    <glyph glyph-name="Thorn" unicode="&#xde;" horiz-adv-x="1292" 
d="M102 90q19 7 41.5 12t46 9t46.5 6.5t43 4.5v1206l-166 31q-2 5 -2 18.5v21.5q0 14 4 28t7 21h525l10 -84q-18 -6 -44 -11.5t-53.5 -10t-54.5 -8t-47 -6.5l-2 -156h246q121 0 216.5 -18.5t161.5 -65.5t100.5 -128.5t34.5 -208.5q0 -237 -117.5 -347.5t-346.5 -110.5
q-48 0 -86.5 1.5t-73 4.5t-67 7.5t-68.5 9.5l2 -194l206 -34q2 -5 2.5 -14.5t0.5 -16.5q0 -14 -4.5 -32t-8.5 -25h-543zM647 413q108 -6 180.5 14.5t116 65t62 112t18.5 155.5q0 79 -15.5 137t-58.5 94.5t-119 53.5t-197 14l-178 -8v-627z" />
    <glyph glyph-name="germandbls" unicode="&#xdf;" horiz-adv-x="1279" 
d="M76 78q38 13 81.5 20.5t79.5 12.5v735h-164q-4 25 -2.5 43.5t7.5 44.5l159 16v239q0 207 89 313t269 106q46 0 95 -3t95 -13.5t86.5 -31t71 -56t48.5 -88.5t18 -128q0 -47 -16.5 -91.5t-42.5 -86.5t-57.5 -81t-61 -75.5t-54 -70.5t-35.5 -65q-5 -13 -7 -27t-2 -31
q0 -20 3.5 -36.5t13.5 -31.5t28 -29t47 -29l271 -142q43 -22 69 -48.5t40.5 -56.5t19 -63.5t4.5 -70.5q0 -69 -20 -116.5t-51.5 -79t-71.5 -49t-80 -26t-76 -10t-60 -1.5q-103 0 -185.5 25.5t-138.5 55.5q4 33 8.5 61.5t9 57.5t9.5 60.5t11 70.5l97 3q5 -20 8.5 -42t5 -44
t2.5 -42t2 -35q39 -26 88.5 -45t119.5 -19q22 0 45.5 5.5t45 19t38 36t23.5 57.5q5 25 5.5 49t-6.5 45t-22 38.5t-41 30.5l-213 112q-56 29 -93.5 58.5t-61.5 62.5t-35 71t-13 84q0 60 19 110t47 94t61.5 83.5t61.5 79.5t47 81t19 88q0 81 -27.5 123t-70 60.5t-94.5 20.5
t-101 2q-41 0 -67 -13t-42 -46.5t-22 -91t-6 -147.5v-1155q0 -14 -8 -25t-20 -11h-291z" />
    <glyph glyph-name="agrave" unicode="&#xe0;" horiz-adv-x="1014" 
d="M223 1463l21 43l151 18l239 -363q-17 -23 -37 -36t-42 -19zM78 223q4 88 43 144.5t104 90t153.5 48.5t193.5 21l68 5v104q-1 67 -11 107.5t-33.5 62.5t-63 28.5t-97.5 6.5q-68 0 -131 -15.5t-126 -38.5l-41 97q13 7 43.5 22.5t74.5 31.5t100.5 28.5t122.5 12.5
q96 0 159.5 -18t100.5 -59t52 -108t15 -165v-523h187l7 -83q-12 -5 -39 -14t-60 -17.5t-68 -14.5t-63 -6q-42 0 -65.5 11.5t-35 28t-14 36t-2.5 34.5v47h-2q-24 -24 -58.5 -52t-76.5 -51t-91 -38.5t-102 -15.5q-41 0 -84.5 9.5t-79 35.5t-58 71t-22.5 116v20zM250 225
q0 -36 10.5 -59t28.5 -37t40.5 -19.5t46.5 -5.5q25 0 55 5.5t64 17.5t70.5 32t74.5 49v236l-78 -7q-160 -14 -236 -64.5t-76 -147.5z" />
    <glyph glyph-name="aacute" unicode="&#xe1;" horiz-adv-x="1014" 
d="M413 1106q-21 6 -41 19t-36 36l214 343l178 4l21 -42zM78 223q4 88 43 144.5t104 90t153.5 48.5t193.5 21l68 5v104q-1 67 -11 107.5t-33.5 62.5t-63 28.5t-97.5 6.5q-68 0 -131 -15.5t-126 -38.5l-41 97q13 7 43.5 22.5t74.5 31.5t100.5 28.5t122.5 12.5q96 0 159.5 -18
t100.5 -59t52 -108t15 -165v-523h187l7 -83q-12 -5 -39 -14t-60 -17.5t-68 -14.5t-63 -6q-42 0 -65.5 11.5t-35 28t-14 36t-2.5 34.5v47h-2q-24 -24 -58.5 -52t-76.5 -51t-91 -38.5t-102 -15.5q-41 0 -84.5 9.5t-79 35.5t-58 71t-22.5 116v20zM250 225q0 -36 10.5 -59
t28.5 -37t40.5 -19.5t46.5 -5.5q25 0 55 5.5t64 17.5t70.5 32t74.5 49v236l-78 -7q-160 -14 -236 -64.5t-76 -147.5z" />
    <glyph glyph-name="acircumflex" unicode="&#xe2;" horiz-adv-x="1014" 
d="M246 1137q-8 3 -18.5 10t-21 16t-20 18.5t-15.5 18.5l255 308h101l246 -308q-4 -9 -13 -19t-20 -19t-22.5 -15.5t-20.5 -9.5l-226 207zM78 223q4 88 43 144.5t104 90t153.5 48.5t193.5 21l68 5v104q-1 67 -11 107.5t-33.5 62.5t-63 28.5t-97.5 6.5q-68 0 -131 -15.5
t-126 -38.5l-41 97q13 7 43.5 22.5t74.5 31.5t100.5 28.5t122.5 12.5q96 0 159.5 -18t100.5 -59t52 -108t15 -165v-523h187l7 -83q-12 -5 -39 -14t-60 -17.5t-68 -14.5t-63 -6q-42 0 -65.5 11.5t-35 28t-14 36t-2.5 34.5v47h-2q-24 -24 -58.5 -52t-76.5 -51t-91 -38.5
t-102 -15.5q-41 0 -84.5 9.5t-79 35.5t-58 71t-22.5 116v20zM250 225q0 -36 10.5 -59t28.5 -37t40.5 -19.5t46.5 -5.5q25 0 55 5.5t64 17.5t70.5 32t74.5 49v236l-78 -7q-160 -14 -236 -64.5t-76 -147.5z" />
    <glyph glyph-name="atilde" unicode="&#xe3;" horiz-adv-x="1014" 
d="M104 1211q15 32 45.5 66t69 61.5t79 44.5t74.5 15q37 -2 70 -19.5t62 -38t54 -37.5t48 -17q22 0 45.5 9t47 25.5t46 38.5t42.5 47l59 -44q-22 -60 -53 -102.5t-67 -69.5t-74.5 -39.5t-74.5 -12.5q-33 0 -64.5 17.5t-61 39t-57.5 40t-55 19.5q-16 1 -39.5 -6.5
t-49.5 -20.5t-52 -31t-48 -38zM78 223q4 88 43 144.5t104 90t153.5 48.5t193.5 21l68 5v104q-1 67 -11 107.5t-33.5 62.5t-63 28.5t-97.5 6.5q-68 0 -131 -15.5t-126 -38.5l-41 97q13 7 43.5 22.5t74.5 31.5t100.5 28.5t122.5 12.5q96 0 159.5 -18t100.5 -59t52 -108
t15 -165v-523h187l7 -83q-12 -5 -39 -14t-60 -17.5t-68 -14.5t-63 -6q-42 0 -65.5 11.5t-35 28t-14 36t-2.5 34.5v47h-2q-24 -24 -58.5 -52t-76.5 -51t-91 -38.5t-102 -15.5q-41 0 -84.5 9.5t-79 35.5t-58 71t-22.5 116v20zM250 225q0 -36 10.5 -59t28.5 -37t40.5 -19.5
t46.5 -5.5q25 0 55 5.5t64 17.5t70.5 32t74.5 49v236l-78 -7q-160 -14 -236 -64.5t-76 -147.5z" />
    <glyph glyph-name="adieresis" unicode="&#xe4;" horiz-adv-x="1014" 
d="M670 1206q-30 0 -50 8t-32 22.5t-16.5 33t-4.5 39.5t4.5 40.5t16.5 34.5t32 23.5t50 8.5q63 0 85 -28.5t22 -78.5q0 -21 -5 -39.5t-17 -33t-33 -22.5t-52 -8zM275 1206q-30 0 -50 8t-32 22.5t-17 33t-5 39.5t5 40.5t17 34.5t32 23.5t50 8.5q31 0 51.5 -7.5t33 -21.5
t17.5 -33.5t5 -44.5q0 -21 -5 -39.5t-17.5 -33t-33 -22.5t-51.5 -8zM78 223q4 88 43 144.5t104 90t153.5 48.5t193.5 21l68 5v104q-1 67 -11 107.5t-33.5 62.5t-63 28.5t-97.5 6.5q-68 0 -131 -15.5t-126 -38.5l-41 97q13 7 43.5 22.5t74.5 31.5t100.5 28.5t122.5 12.5
q96 0 159.5 -18t100.5 -59t52 -108t15 -165v-523h187l7 -83q-12 -5 -39 -14t-60 -17.5t-68 -14.5t-63 -6q-42 0 -65.5 11.5t-35 28t-14 36t-2.5 34.5v47h-2q-24 -24 -58.5 -52t-76.5 -51t-91 -38.5t-102 -15.5q-41 0 -84.5 9.5t-79 35.5t-58 71t-22.5 116v20zM250 225
q0 -36 10.5 -59t28.5 -37t40.5 -19.5t46.5 -5.5q25 0 55 5.5t64 17.5t70.5 32t74.5 49v236l-78 -7q-160 -14 -236 -64.5t-76 -147.5z" />
    <glyph glyph-name="aring" unicode="&#xe5;" horiz-adv-x="1014" 
d="M500 1071q-46 0 -86.5 16t-70.5 44.5t-47.5 68t-17.5 86.5q0 46 17.5 85.5t47.5 68t70.5 44.5t86.5 16q48 0 88.5 -16t69.5 -44.5t45 -67.5t16 -86t-17 -86.5t-47 -68t-70 -44.5t-85 -16zM523 1183q38 4 55 28t19 62q2 48 -23 78.5t-76 34.5h-16q-38 -4 -56 -27t-20 -61
q-3 -47 22.5 -80t79.5 -35h15zM78 223q4 88 43 144.5t104 90t153.5 48.5t193.5 21l68 5v104q-1 67 -11 107.5t-33.5 62.5t-63 28.5t-97.5 6.5q-68 0 -131 -15.5t-126 -38.5l-41 97q13 7 43.5 22.5t74.5 31.5t100.5 28.5t122.5 12.5q96 0 159.5 -18t100.5 -59t52 -108
t15 -165v-523h187l7 -83q-12 -5 -39 -14t-60 -17.5t-68 -14.5t-63 -6q-42 0 -65.5 11.5t-35 28t-14 36t-2.5 34.5v47h-2q-24 -24 -58.5 -52t-76.5 -51t-91 -38.5t-102 -15.5q-41 0 -84.5 9.5t-79 35.5t-58 71t-22.5 116v20zM250 225q0 -36 10.5 -59t28.5 -37t40.5 -19.5
t46.5 -5.5q25 0 55 5.5t64 17.5t70.5 32t74.5 49v236l-78 -7q-160 -14 -236 -64.5t-76 -147.5z" />
    <glyph glyph-name="ae" unicode="&#xe6;" horiz-adv-x="1527" 
d="M81 223q4 88 42 142t102 86t150 47t185 25l85 4v107q0 65 -10 104.5t-35 60.5t-67.5 28t-106.5 7q-43 0 -87 -7.5t-80.5 -17t-61 -18t-27.5 -9.5l-42 107q5 3 35 17.5t75 30.5t100 29t111 13q124 0 199.5 -29t107.5 -100q57 69 136 100t181 31q109 0 179 -24.5t110.5 -78
t55.5 -138t14 -203.5h-618q0 -108 7 -188.5t38.5 -133t94.5 -78.5t176 -26q38 0 81 6t81 14t66 15t36 10l40 -88q-7 -5 -35.5 -20.5t-75 -32t-109.5 -29.5t-138 -13q-61 0 -116 7t-102.5 25t-85.5 49.5t-66 80.5q-24 -28 -61.5 -56.5t-84.5 -52t-102.5 -38.5t-114.5 -15
q-42 0 -90 10.5t-87.5 38.5t-64 76.5t-20.5 124.5zM1260 640q-2 85 -21.5 133.5t-48 71.5t-61.5 28.5t-63 5.5q-65 0 -109.5 -14.5t-73.5 -45.5t-44 -79.5t-21 -115.5zM255 230q0 -34 10 -58t27.5 -39t40 -22t46.5 -7q38 0 70 5.5t65.5 17.5t71.5 32.5t88 50.5
q-29 86 -29 230l-81 -7q-88 -10 -147.5 -25.5t-95.5 -39.5t-51 -58t-15 -80z" />
    <glyph glyph-name="ccedilla" unicode="&#xe7;" horiz-adv-x="934" 
d="M456 -27q-73 6 -138.5 29t-115 78t-78.5 147.5t-29 237.5q0 118 27.5 213t82 162t136.5 103t191 36q33 0 72.5 -2.5t81 -8.5t83.5 -16.5t81 -27.5q3 -29 -0.5 -67t-10 -77t-13.5 -73.5t-12 -54.5q-29 0 -49 0.5t-48 4.5l-18 175q-28 13 -59 21t-59 11.5t-50 4.5t-32 1
q-54 0 -96.5 -19.5t-71.5 -65t-44 -120t-15 -183.5q0 -107 15.5 -179t50.5 -115.5t93 -62.5t144 -19q45 0 89.5 10.5t80.5 23t59 23.5t26 12l42 -90q-8 -6 -35 -23t-69.5 -36.5t-98.5 -35t-123 -18.5l-35 -85q16 2 32.5 3.5t34.5 1.5q27 0 53.5 -8t47 -24.5t33.5 -42.5
t13 -62q0 -41 -15.5 -76.5t-42 -66.5t-62 -57.5t-76.5 -48.5l-82 -45l-45 36q31 27 62.5 52.5t57 51.5t41 53t15.5 56q0 21 -14.5 37.5t-53.5 16.5q-23 0 -47 -4.5t-40 -9.5l-21 50l18 58v1z" />
    <glyph glyph-name="egrave" unicode="&#xe8;" horiz-adv-x="983" 
d="M232 1463l21 43l151 18l239 -363q-17 -23 -37 -36t-42 -19zM97 430q-1 146 29.5 250t86.5 170.5t136.5 97.5t180.5 31q109 0 179 -25.5t110 -80t55.5 -139.5t14.5 -204l-620 -5q0 -71 2.5 -130t13 -106.5t30.5 -83t55.5 -59t88 -35.5t127.5 -12q38 0 82.5 7t84 16
t68 17.5t36.5 11.5l34 -85q-7 -5 -36 -20.5t-75.5 -32t-109.5 -29.5t-138 -13q-93 0 -172.5 16.5t-137.5 65.5t-91 139t-34 238zM717 638q-2 85 -21.5 133t-48 71.5t-61.5 29t-63 5.5q-65 0 -109.5 -14.5t-73.5 -45.5t-44 -79.5t-21 -115.5z" />
    <glyph glyph-name="eacute" unicode="&#xe9;" horiz-adv-x="983" 
d="M404 1106q-21 6 -41 19t-36 36l214 343l178 4l21 -42zM97 430q-1 146 29.5 250t86.5 170.5t136.5 97.5t180.5 31q109 0 179 -25.5t110 -80t55.5 -139.5t14.5 -204l-620 -5q0 -71 2.5 -130t13 -106.5t30.5 -83t55.5 -59t88 -35.5t127.5 -12q38 0 82.5 7t84 16t68 17.5
t36.5 11.5l34 -85q-7 -5 -36 -20.5t-75.5 -32t-109.5 -29.5t-138 -13q-93 0 -172.5 16.5t-137.5 65.5t-91 139t-34 238zM717 638q-2 85 -21.5 133t-48 71.5t-61.5 29t-63 5.5q-65 0 -109.5 -14.5t-73.5 -45.5t-44 -79.5t-21 -115.5z" />
    <glyph glyph-name="ecircumflex" unicode="&#xea;" horiz-adv-x="983" 
d="M271 1137q-8 3 -18.5 10t-21 16t-20 18.5t-15.5 18.5l255 308h101l246 -308q-4 -9 -13 -19t-20 -19t-22.5 -15.5t-20.5 -9.5l-226 207zM97 430q-1 146 29.5 250t86.5 170.5t136.5 97.5t180.5 31q109 0 179 -25.5t110 -80t55.5 -139.5t14.5 -204l-620 -5q0 -71 2.5 -130
t13 -106.5t30.5 -83t55.5 -59t88 -35.5t127.5 -12q38 0 82.5 7t84 16t68 17.5t36.5 11.5l34 -85q-7 -5 -36 -20.5t-75.5 -32t-109.5 -29.5t-138 -13q-93 0 -172.5 16.5t-137.5 65.5t-91 139t-34 238zM717 638q-2 85 -21.5 133t-48 71.5t-61.5 29t-63 5.5q-65 0 -109.5 -14.5
t-73.5 -45.5t-44 -79.5t-21 -115.5z" />
    <glyph glyph-name="edieresis" unicode="&#xeb;" horiz-adv-x="983" 
d="M685 1206q-30 0 -50 8t-32 22.5t-16.5 33t-4.5 39.5t4.5 40.5t16.5 34.5t32 23.5t50 8.5q63 0 85 -28.5t22 -78.5q0 -21 -5 -39.5t-17 -33t-33 -22.5t-52 -8zM290 1206q-30 0 -50 8t-32 22.5t-17 33t-5 39.5t5 40.5t17 34.5t32 23.5t50 8.5q31 0 51.5 -7.5t33 -21.5
t17.5 -33.5t5 -44.5q0 -21 -5 -39.5t-17.5 -33t-33 -22.5t-51.5 -8zM97 430q-1 146 29.5 250t86.5 170.5t136.5 97.5t180.5 31q109 0 179 -25.5t110 -80t55.5 -139.5t14.5 -204l-620 -5q0 -71 2.5 -130t13 -106.5t30.5 -83t55.5 -59t88 -35.5t127.5 -12q38 0 82.5 7t84 16
t68 17.5t36.5 11.5l34 -85q-7 -5 -36 -20.5t-75.5 -32t-109.5 -29.5t-138 -13q-93 0 -172.5 16.5t-137.5 65.5t-91 139t-34 238zM717 638q-2 85 -21.5 133t-48 71.5t-61.5 29t-63 5.5q-65 0 -109.5 -14.5t-73.5 -45.5t-44 -79.5t-21 -115.5z" />
    <glyph glyph-name="igrave" unicode="&#xec;" horiz-adv-x="657" 
d="M50 1477l20 43l155 14l158 -373q-17 -23 -41.5 -36t-46.5 -19zM97 78q38 13 82.5 19.5t82.5 13.5v730h-170l-11 86q19 7 49.5 16.5t63.5 17t65 13t55 5.5q43 0 66.5 -11t34 -27t12.5 -35t3 -34v-761l172 -30q2 -20 0 -42t-9 -39h-487z" />
    <glyph glyph-name="iacute" unicode="&#xed;" horiz-adv-x="657" 
d="M264 1106q-20 6 -44 19t-40 36l163 354l165 14l22 -43zM97 78q38 13 82.5 19.5t82.5 13.5v730h-170l-11 86q19 7 49.5 16.5t63.5 17t65 13t55 5.5q43 0 66.5 -11t34 -27t12.5 -35t3 -34v-761l172 -30q2 -20 0 -42t-9 -39h-487z" />
    <glyph glyph-name="icircumflex" unicode="&#xee;" horiz-adv-x="683" 
d="M77 1137q-8 3 -18.5 10t-21 16t-20 18.5t-15.5 18.5l255 308h101l246 -308q-4 -9 -13 -19t-20 -19t-22.5 -15.5t-20.5 -9.5l-226 207zM113 78q38 13 82.5 19.5t82.5 13.5v730h-170l-11 86q19 7 49.5 16.5t63.5 17t65 13t55 5.5q43 0 66.5 -11t34 -27t12.5 -35t3 -34v-761
l172 -30q2 -20 0 -42t-9 -39h-487z" />
    <glyph glyph-name="idieresis" unicode="&#xef;" horiz-adv-x="679" 
d="M506 1206q-30 0 -50 8t-32 22.5t-16.5 33t-4.5 39.5t4.5 40.5t16.5 34.5t32 23.5t50 8.5q63 0 85 -28.5t22 -78.5q0 -21 -5 -39.5t-17 -33t-33 -22.5t-52 -8zM139 1206q-30 0 -50 8t-32 22.5t-17 33t-5 39.5t5 40.5t17 34.5t32 23.5t50 8.5q31 0 51.5 -7.5t33 -21.5
t17.5 -33.5t5 -44.5q0 -21 -5 -39.5t-17.5 -33t-33 -22.5t-51.5 -8zM109 78q38 13 82.5 19.5t82.5 13.5v730h-170l-11 86q19 7 49.5 16.5t63.5 17t65 13t55 5.5q43 0 66.5 -11t34 -27t12.5 -35t3 -34v-761l172 -30q2 -20 0 -42t-9 -39h-487z" />
    <glyph glyph-name="eth" unicode="&#xf0;" horiz-adv-x="1059" 
d="M99 480q0 105 20.5 182.5t54 132t77 88.5t89.5 53t90.5 26t81.5 7t73.5 -6.5t69.5 -17.5t60.5 -25t48.5 -29q-10 56 -22.5 108.5t-32.5 99.5q-26 60 -55.5 106.5t-51.5 68.5l-230 -142q-22 16 -38 37t-29 46l222 142q-64 55 -140 92t-164 59q0 32 3.5 50.5t14.5 34.5
q123 -5 223 -43t183 -113l237 162q9 -2 20.5 -13t22 -25.5t19 -31t13.5 -29.5l-229 -145q66 -67 109.5 -158t69 -190t35.5 -197.5t10 -180.5q0 -137 -18 -257t-63 -209t-122 -140.5t-194 -51.5h-97q-107 0 -176.5 33.5t-110.5 94.5t-57.5 147.5t-16.5 193.5v40zM277 451
q0 -73 9 -139t35 -116.5t74.5 -80.5t127.5 -30q62 0 109 14.5t77 49.5q26 28 41.5 67.5t23.5 84.5t10.5 94t2.5 97q0 85 -1.5 160.5t-12.5 129.5q-56 29 -122.5 44t-130.5 15q-57 0 -102 -19.5t-76.5 -62.5t-48 -112t-16.5 -167v-29z" />
    <glyph glyph-name="ntilde" unicode="&#xf1;" horiz-adv-x="1269" 
d="M291 1211q15 32 45.5 66t69 61.5t79 44.5t74.5 15q37 -2 70 -19.5t62 -38t54 -37.5t48 -17q22 0 45.5 9t47 25.5t46 38.5t42.5 47l59 -44q-22 -60 -53 -102.5t-67 -69.5t-74.5 -39.5t-74.5 -12.5q-33 0 -64.5 17.5t-61 39t-57.5 40t-55 19.5q-16 1 -39.5 -6.5
t-49.5 -20.5t-52 -31t-48 -38zM111 78q37 11 78.5 18.5t77.5 14.5v730h-172l-12 86q12 5 39.5 14t62 17.5t70 14.5t64.5 6q42 0 65 -11t34 -27t13.5 -35t3.5 -34v-17q85 63 167 93.5t173 30.5q79 0 132.5 -14t86 -50t46.5 -98.5t14 -159.5v-549l157 -27q2 -6 2 -14v-15
q0 -14 -4.5 -29.5t-8.5 -22.5h-442l-7 78q36 11 68 17t67 13v539q0 57 -7.5 95t-25.5 60.5t-47 32t-71 9.5q-45 0 -84.5 -4t-75.5 -12t-70 -20t-70 -28v-669l158 -30q2 -6 2 -14v-15q0 -14 -3.5 -29.5t-7.5 -22.5h-464z" />
    <glyph glyph-name="ograve" unicode="&#xf2;" horiz-adv-x="1116" 
d="M345 1463l21 43l151 18l239 -363q-17 -23 -37 -36t-42 -19zM95 475q0 105 29.5 196.5t91 160t155 108t222.5 39.5t211 -39.5t129.5 -108t65.5 -160t18 -196.5t-30 -196.5t-91.5 -160t-155.5 -108t-222 -39.5q-129 0 -211 39.5t-129 108t-65 160t-18 196.5zM279 475
q0 -122 19 -199t54.5 -121t86.5 -60.5t116 -16.5q58 0 108.5 16.5t88 60.5t59 121t21.5 199q0 121 -19 198.5t-54.5 121.5t-87 60.5t-116.5 16.5q-57 0 -107.5 -16.5t-88 -60.5t-59 -121.5t-21.5 -198.5z" />
    <glyph glyph-name="oacute" unicode="&#xf3;" horiz-adv-x="1116" 
d="M467 1106q-21 6 -41 19t-36 36l214 343l178 4l21 -42zM95 475q0 105 29.5 196.5t91 160t155 108t222.5 39.5t211 -39.5t129.5 -108t65.5 -160t18 -196.5t-30 -196.5t-91.5 -160t-155.5 -108t-222 -39.5q-129 0 -211 39.5t-129 108t-65 160t-18 196.5zM279 475
q0 -122 19 -199t54.5 -121t86.5 -60.5t116 -16.5q58 0 108.5 16.5t88 60.5t59 121t21.5 199q0 121 -19 198.5t-54.5 121.5t-87 60.5t-116.5 16.5q-57 0 -107.5 -16.5t-88 -60.5t-59 -121.5t-21.5 -198.5z" />
    <glyph glyph-name="ocircumflex" unicode="&#xf4;" horiz-adv-x="1116" 
d="M334 1137q-8 3 -18.5 10t-21 16t-20 18.5t-15.5 18.5l255 308h101l246 -308q-4 -9 -13 -19t-20 -19t-22.5 -15.5t-20.5 -9.5l-226 207zM95 475q0 105 29.5 196.5t91 160t155 108t222.5 39.5t211 -39.5t129.5 -108t65.5 -160t18 -196.5t-30 -196.5t-91.5 -160t-155.5 -108
t-222 -39.5q-129 0 -211 39.5t-129 108t-65 160t-18 196.5zM279 475q0 -122 19 -199t54.5 -121t86.5 -60.5t116 -16.5q58 0 108.5 16.5t88 60.5t59 121t21.5 199q0 121 -19 198.5t-54.5 121.5t-87 60.5t-116.5 16.5q-57 0 -107.5 -16.5t-88 -60.5t-59 -121.5t-21.5 -198.5z
" />
    <glyph glyph-name="otilde" unicode="&#xf5;" horiz-adv-x="1116" 
d="M201 1211q15 32 45.5 66t69 61.5t79 44.5t74.5 15q37 -2 70 -19.5t62 -38t54 -37.5t48 -17q22 0 45.5 9t47 25.5t46 38.5t42.5 47l59 -44q-22 -60 -53 -102.5t-67 -69.5t-74.5 -39.5t-74.5 -12.5q-33 0 -64.5 17.5t-61 39t-57.5 40t-55 19.5q-16 1 -39.5 -6.5
t-49.5 -20.5t-52 -31t-48 -38zM95 475q0 105 29.5 196.5t91 160t155 108t222.5 39.5t211 -39.5t129.5 -108t65.5 -160t18 -196.5t-30 -196.5t-91.5 -160t-155.5 -108t-222 -39.5q-129 0 -211 39.5t-129 108t-65 160t-18 196.5zM279 475q0 -122 19 -199t54.5 -121t86.5 -60.5
t116 -16.5q58 0 108.5 16.5t88 60.5t59 121t21.5 199q0 121 -19 198.5t-54.5 121.5t-87 60.5t-116.5 16.5q-57 0 -107.5 -16.5t-88 -60.5t-59 -121.5t-21.5 -198.5z" />
    <glyph glyph-name="odieresis" unicode="&#xf6;" horiz-adv-x="1116" 
d="M747 1206q-30 0 -50 8t-32 22.5t-16.5 33t-4.5 39.5t4.5 40.5t16.5 34.5t32 23.5t50 8.5q63 0 85 -28.5t22 -78.5q0 -21 -5 -39.5t-17 -33t-33 -22.5t-52 -8zM352 1206q-30 0 -50 8t-32 22.5t-17 33t-5 39.5t5 40.5t17 34.5t32 23.5t50 8.5q31 0 51.5 -7.5t33 -21.5
t17.5 -33.5t5 -44.5q0 -21 -5 -39.5t-17.5 -33t-33 -22.5t-51.5 -8zM95 475q0 105 29.5 196.5t91 160t155 108t222.5 39.5t211 -39.5t129.5 -108t65.5 -160t18 -196.5t-30 -196.5t-91.5 -160t-155.5 -108t-222 -39.5q-129 0 -211 39.5t-129 108t-65 160t-18 196.5zM279 475
q0 -122 19 -199t54.5 -121t86.5 -60.5t116 -16.5q58 0 108.5 16.5t88 60.5t59 121t21.5 199q0 121 -19 198.5t-54.5 121.5t-87 60.5t-116.5 16.5q-57 0 -107.5 -16.5t-88 -60.5t-59 -121.5t-21.5 -198.5z" />
    <glyph glyph-name="divide" unicode="&#xf7;" horiz-adv-x="1059" 
d="M532 749q-28 0 -47 8t-30.5 22t-16.5 31.5t-5 37.5q0 51 21.5 76.5t77.5 25.5q55 0 78.5 -25t23.5 -77q0 -20 -5.5 -37.5t-18 -31.5t-32 -22t-46.5 -8zM122 593h814q2 -11 3 -26.5t1 -32t-1 -31.5t-3 -25h-818zM433 227q0 19 5 37.5t16.5 33t30.5 23t47 8.5
q55 0 78.5 -29.5t23.5 -72.5q0 -48 -23.5 -73.5t-78.5 -25.5q-56 0 -77.5 25.5t-21.5 73.5z" />
    <glyph glyph-name="oslash" unicode="&#xf8;" horiz-adv-x="1125" 
d="M308 12q-62 29 -102 76t-63.5 107t-33 131t-9.5 149q0 105 29.5 196.5t91 160t155 108t222.5 39.5q33 0 63 -3t57 -8l76 178q25 -2 49.5 -12t44.5 -28l-73 -170q61 -29 101 -76t63.5 -106.5t33 -130.5t9.5 -148q0 -105 -30 -196.5t-91.5 -160t-155.5 -108t-222 -39.5
q-34 0 -64 3t-57 8l-75 -174l-91 36zM670 857q-24 8 -51.5 11.5t-58.5 3.5q-57 0 -107.5 -16.5t-88 -60.5t-59 -121.5t-21.5 -198.5q0 -129 21 -207.5t60 -121.5zM450 92q24 -8 51.5 -11t58.5 -3q58 0 108.5 16.5t88 60.5t59 121t21.5 199q0 127 -21 205.5t-59 121.5z" />
    <glyph glyph-name="ugrave" unicode="&#xf9;" horiz-adv-x="1220" 
d="M369 1463l21 43l151 18l239 -363q-17 -23 -37 -36t-42 -19zM208 841h-149l-12 83q13 5 36.5 14.5t53 18.5t61 15.5t59.5 6.5q42 0 65.5 -11t35 -27t14 -35t2.5 -34v-570q0 -59 8 -96t27 -58t50 -28.5t78 -8.5q31 -1 70.5 6.5t79.5 20t77.5 28.5t65.5 32v643h-173l-12 86
q13 5 40.5 14t61 17.5t68.5 14.5t64 6q42 0 65 -11t34.5 -27t14 -35t2.5 -34v-766h182l7 -83q-12 -5 -39.5 -14t-60.5 -17.5t-68.5 -14.5t-63.5 -6q-42 0 -65 11.5t-34 28t-13.5 36t-2.5 34.5v41h-3q-26 -20 -66 -46.5t-89.5 -49.5t-105.5 -39t-113 -16q-69 0 -117 14
t-78 50.5t-43.5 99t-13.5 158.5v548z" />
    <glyph glyph-name="uacute" unicode="&#xfa;" horiz-adv-x="1220" 
d="M534 1106q-21 6 -41 19t-36 36l214 343l178 4l21 -42zM208 841h-149l-12 83q13 5 36.5 14.5t53 18.5t61 15.5t59.5 6.5q42 0 65.5 -11t35 -27t14 -35t2.5 -34v-570q0 -59 8 -96t27 -58t50 -28.5t78 -8.5q31 -1 70.5 6.5t79.5 20t77.5 28.5t65.5 32v643h-173l-12 86
q13 5 40.5 14t61 17.5t68.5 14.5t64 6q42 0 65 -11t34.5 -27t14 -35t2.5 -34v-766h182l7 -83q-12 -5 -39.5 -14t-60.5 -17.5t-68.5 -14.5t-63.5 -6q-42 0 -65 11.5t-34 28t-13.5 36t-2.5 34.5v41h-3q-26 -20 -66 -46.5t-89.5 -49.5t-105.5 -39t-113 -16q-69 0 -117 14
t-78 50.5t-43.5 99t-13.5 158.5v548z" />
    <glyph glyph-name="ucircumflex" unicode="&#xfb;" horiz-adv-x="1220" 
d="M354 1137q-8 3 -18.5 10t-21 16t-20 18.5t-15.5 18.5l255 308h101l246 -308q-4 -9 -13 -19t-20 -19t-22.5 -15.5t-20.5 -9.5l-226 207zM208 841h-149l-12 83q13 5 36.5 14.5t53 18.5t61 15.5t59.5 6.5q42 0 65.5 -11t35 -27t14 -35t2.5 -34v-570q0 -59 8 -96t27 -58
t50 -28.5t78 -8.5q31 -1 70.5 6.5t79.5 20t77.5 28.5t65.5 32v643h-173l-12 86q13 5 40.5 14t61 17.5t68.5 14.5t64 6q42 0 65 -11t34.5 -27t14 -35t2.5 -34v-766h182l7 -83q-12 -5 -39.5 -14t-60.5 -17.5t-68.5 -14.5t-63.5 -6q-42 0 -65 11.5t-34 28t-13.5 36t-2.5 34.5
v41h-3q-26 -20 -66 -46.5t-89.5 -49.5t-105.5 -39t-113 -16q-69 0 -117 14t-78 50.5t-43.5 99t-13.5 158.5v548z" />
    <glyph glyph-name="udieresis" unicode="&#xfc;" horiz-adv-x="1220" 
d="M774 1206q-30 0 -50 8t-32 22.5t-16.5 33t-4.5 39.5t4.5 40.5t16.5 34.5t32 23.5t50 8.5q63 0 85 -28.5t22 -78.5q0 -21 -5 -39.5t-17 -33t-33 -22.5t-52 -8zM379 1206q-30 0 -50 8t-32 22.5t-17 33t-5 39.5t5 40.5t17 34.5t32 23.5t50 8.5q31 0 51.5 -7.5t33 -21.5
t17.5 -33.5t5 -44.5q0 -21 -5 -39.5t-17.5 -33t-33 -22.5t-51.5 -8zM208 841h-149l-12 83q13 5 36.5 14.5t53 18.5t61 15.5t59.5 6.5q42 0 65.5 -11t35 -27t14 -35t2.5 -34v-570q0 -59 8 -96t27 -58t50 -28.5t78 -8.5q31 -1 70.5 6.5t79.5 20t77.5 28.5t65.5 32v643h-173
l-12 86q13 5 40.5 14t61 17.5t68.5 14.5t64 6q42 0 65 -11t34.5 -27t14 -35t2.5 -34v-766h182l7 -83q-12 -5 -39.5 -14t-60.5 -17.5t-68.5 -14.5t-63.5 -6q-42 0 -65 11.5t-34 28t-13.5 36t-2.5 34.5v41h-3q-26 -20 -66 -46.5t-89.5 -49.5t-105.5 -39t-113 -16
q-69 0 -117 14t-78 50.5t-43.5 99t-13.5 158.5v548z" />
    <glyph glyph-name="yacute" unicode="&#xfd;" horiz-adv-x="1062" 
d="M510 1106q-21 6 -41 19t-36 36l214 343l178 4l21 -42zM93 844l-72 26q-2 5 -2.5 13t-0.5 15q0 14 5 29.5t8 22.5h397l7 -78q-33 -11 -73 -18t-75 -12l238 -627l30 -123l241 748l-174 30q-2 5 -2 13v15q0 14 4 29.5t7 22.5h400l9 -85q-10 -5 -22 -8.5t-25 -7t-24.5 -6
t-20.5 -4.5l-289 -837l-12 -31q-42 -120 -70.5 -194.5t-47 -118t-28.5 -64.5t-16 -34q-25 -51 -50 -85.5t-55 -55.5t-68 -30t-89 -9q-32 0 -65.5 4.5t-64 12t-56 17.5t-42.5 22l23 82q45 -5 81 -8t76 1q21 1 43 6t44.5 16t44.5 30t43 49q18 27 40 68.5t45 92.5t46 109
t44 118h-90z" />
    <glyph glyph-name="thorn" unicode="&#xfe;" horiz-adv-x="1151" 
d="M354 -480q30 -2 65 -4t69.5 -5t66.5 -6.5t57 -7.5q7 -44 0 -88h-569l-7 88q35 8 71 13t78 10v1955h-178l-12 83q13 5 41.5 14t63.5 17.5t71.5 14.5t65.5 6q41 0 64 -11.5t34.5 -28t14 -36t2.5 -34.5v-637q24 15 57 35t76.5 38t98.5 30.5t122 12.5q108 0 176 -35.5
t105.5 -101.5t50 -160t9.5 -211q-3 -114 -23 -195.5t-52.5 -137t-73.5 -88.5t-85 -50.5t-87.5 -23t-80.5 -5.5q-42 0 -84 7t-80 19t-70.5 29t-56.5 37v-543zM354 189q24 -18 56 -34t69.5 -28t77.5 -18.5t81 -6.5q58 0 100.5 20.5t71 64.5t43 114.5t15.5 171.5q1 78 -3 147
t-23 121t-58 82t-108 30q-46 0 -92 -8t-88 -20.5t-78.5 -29.5t-63.5 -35v-571z" />
    <glyph glyph-name="ydieresis" unicode="&#xff;" horiz-adv-x="1062" 
d="M734 1206q-30 0 -50 8t-32 22.5t-16.5 33t-4.5 39.5t4.5 40.5t16.5 34.5t32 23.5t50 8.5q63 0 85 -28.5t22 -78.5q0 -21 -5 -39.5t-17 -33t-33 -22.5t-52 -8zM339 1206q-30 0 -50 8t-32 22.5t-17 33t-5 39.5t5 40.5t17 34.5t32 23.5t50 8.5q31 0 51.5 -7.5t33 -21.5
t17.5 -33.5t5 -44.5q0 -21 -5 -39.5t-17.5 -33t-33 -22.5t-51.5 -8zM93 844l-72 26q-2 5 -2.5 13t-0.5 15q0 14 5 29.5t8 22.5h397l7 -78q-33 -11 -73 -18t-75 -12l238 -627l30 -123l241 748l-174 30q-2 5 -2 13v15q0 14 4 29.5t7 22.5h400l9 -85q-10 -5 -22 -8.5t-25 -7
t-24.5 -6t-20.5 -4.5l-289 -837l-12 -31q-42 -120 -70.5 -194.5t-47 -118t-28.5 -64.5t-16 -34q-25 -51 -50 -85.5t-55 -55.5t-68 -30t-89 -9q-32 0 -65.5 4.5t-64 12t-56 17.5t-42.5 22l23 82q45 -5 81 -8t76 1q21 1 43 6t44.5 16t44.5 30t43 49q18 27 40 68.5t45 92.5
t46 109t44 118h-90z" />
    <glyph glyph-name="Aogonek" unicode="&#x104;" horiz-adv-x="1484" 
d="M56 90q7 3 19.5 7t27 7.5t29.5 7t27 6.5l454 1330q25 4 53.5 5.5t56 1.5t53.5 -2t47 -5l468 -1335l105 -23l-10 -90h-89q-32 -29 -64.5 -59t-59 -60.5t-43.5 -61t-17 -61.5q0 -22 14.5 -39t53.5 -17q12 0 25 2.5t25.5 6t23 7t16.5 6.5l40 -88q-18 -10 -39.5 -21t-46 -20
t-53 -14.5t-59.5 -5.5q-27 0 -53.5 8t-47 24.5t-33.5 43t-13 62.5q0 44 15.5 81.5t42.5 70.5t62.5 62.5t75.5 56.5l28 16h-272l-9 90q20 5 45 10t51.5 9t51.5 7t45 6l-128 374h-541l-125 -374h5l203 -32l-9 -90h-440zM937 612l-220 635l-18 63l-25 -108l-200 -590h463z" />
    <glyph glyph-name="aogonek" unicode="&#x105;" horiz-adv-x="1059" 
d="M97 223q4 88 43 144.5t104 90t153.5 48.5t193.5 21l68 5v104q-1 67 -11 107.5t-33.5 62.5t-63 28.5t-97.5 6.5q-68 0 -131 -15.5t-126 -38.5l-41 97q13 7 43.5 22.5t74.5 31.5t100.5 28.5t122.5 12.5q96 0 159.5 -18t100.5 -59t52 -108t15 -165v-523h187l7 -83
q-1 0 -1 -1q-34 -35 -68.5 -68.5t-62.5 -66.5t-45.5 -65.5t-17.5 -63.5q0 -22 14.5 -39t53.5 -17q12 0 25 2.5t25 6t22.5 7t17.5 6.5l40 -88q-18 -10 -39.5 -21t-46.5 -20t-53 -14.5t-59 -5.5q-27 0 -53.5 8t-47 24.5t-33.5 43t-13 62.5q0 43 14.5 80t40 69.5t59.5 61.5
t73 56q-20 -4 -39 -6.5t-36 -2.5q-42 0 -65.5 11.5t-35 28t-14 36t-2.5 34.5v47h-2q-24 -24 -58.5 -52t-76.5 -51t-91 -38.5t-102 -15.5q-41 0 -84.5 9.5t-79 35.5t-58 71t-22.5 116v20zM269 225q0 -36 10.5 -59t28.5 -37t40.5 -19.5t46.5 -5.5q25 0 55 5.5t64 17.5t70.5 32
t74.5 49v236l-78 -7q-160 -14 -236 -64.5t-76 -147.5z" />
    <glyph glyph-name="Cacute" unicode="&#x106;" horiz-adv-x="1295" 
d="M623 1538q-10 9 -23 29.5t-24 46.5l361 267l115 -85l-2 -50zM97 709q0 193 46 337t132 240t208.5 143.5t276.5 47.5q80 0 147 -7t121 -18t95 -24t68 -24q4 -43 3.5 -86t-4 -84t-9 -78t-11.5 -67h-38.5t-34 1t-33.5 2t-38 4l-9 196q-24 15 -62.5 26.5t-81 18.5t-85 10.5
t-75.5 3.5q-116 0 -197 -45t-132 -126.5t-74.5 -195.5t-23.5 -251q0 -159 24 -277t80 -196.5t148 -117t228 -38.5q38 0 78 3t76.5 9t66.5 14.5t48 18.5l27 243q21 3 38 4t33 1.5t32.5 -0.5t36.5 -2q11 -55 15.5 -127t-0.5 -160q-25 -23 -73 -47t-112 -44t-139.5 -33
t-155.5 -13q-93 0 -177 10t-155 38.5t-128 79.5t-97 133t-61.5 199t-21.5 278z" />
    <glyph glyph-name="cacute" unicode="&#x107;" horiz-adv-x="962" 
d="M464 1106q-21 6 -41 19t-36 36l214 343l178 4l21 -42zM102 465q0 118 27.5 213t82 162t136.5 103t191 36q33 0 72.5 -2.5t81 -8.5t83.5 -16.5t81 -27.5q3 -29 -0.5 -67t-10 -77t-13.5 -73.5t-12 -54.5q-29 0 -49 0.5t-48 4.5l-18 175q-28 13 -59 21t-59 11.5t-50 4.5
t-32 1q-54 0 -96.5 -19.5t-71.5 -65t-44 -120t-15 -183.5q0 -107 15.5 -179t50.5 -115.5t93 -62.5t144 -19q45 0 89.5 10.5t80.5 23t59 23.5t26 12l42 -90q-8 -6 -37 -24.5t-74.5 -38.5t-106 -35.5t-131.5 -15.5q-55 0 -108.5 7t-101 26t-87.5 53t-69 89t-45.5 133.5
t-16.5 185.5z" />
    <glyph glyph-name="Cdotaccent" unicode="&#x10a;" horiz-adv-x="1295" 
d="M726 1588q-32 0 -53 8.5t-33.5 23t-17.5 34t-5 42.5q0 24 5 44.5t17.5 35.5t33.5 23.5t53 8.5q31 0 52.5 -8.5t34.5 -23.5t18.5 -35.5t5.5 -44.5q0 -23 -5.5 -42.5t-18.5 -34t-34.5 -23t-52.5 -8.5zM97 709q0 193 46 337t132 240t209 143.5t277 47.5q80 0 147 -7t121 -18
t94.5 -24t67.5 -24l3 -12q1 -38 -3.5 -85t-11 -93t-13.5 -84.5t-13 -60.5q-23 -5 -53.5 -4.5t-59.5 4.5l-18 219q-36 19 -76 31.5t-81 19.5t-79.5 9.5t-71.5 2.5q-116 0 -197.5 -45t-132.5 -126.5t-74 -195.5t-23 -251q0 -159 24 -277t79.5 -196.5t147.5 -117t227 -38.5
q38 0 77 3t73.5 9t63.5 14t47 17l57 225q42 5 66 3.5t40 -7.5q1 -21 2 -51t1.5 -66.5t0.5 -77.5t-2 -83q-18 -19 -60 -40t-102 -38.5t-134.5 -29t-156.5 -11.5q-93 0 -177 11t-155.5 40.5t-128.5 82t-97 134.5t-61.5 197.5t-21.5 272.5z" />
    <glyph glyph-name="cdotaccent" unicode="&#x10b;" horiz-adv-x="931" 
d="M520 1172q-32 0 -53 8.5t-33.5 23t-17.5 34.5t-5 43t5 43t17.5 35t33.5 24t53 9t53.5 -9t34 -24t18 -35t5.5 -43t-5.5 -43t-18 -34.5t-34 -23t-53.5 -8.5zM95 465q0 118 27.5 213t82 162t136.5 103t191 36q33 0 72.5 -2.5t81 -8.5t83.5 -16.5t81 -27.5q3 -29 -0.5 -67
t-10 -77t-13.5 -73.5t-12 -54.5q-29 0 -49 0.5t-48 4.5l-18 175q-28 13 -59 21t-59 11.5t-50 4.5t-32 1q-54 0 -96.5 -19.5t-71.5 -65t-44 -120t-15 -183.5q0 -107 15.5 -179t50.5 -115.5t93 -62.5t144 -19q45 0 89.5 10.5t80.5 23t59 23.5t26 12l42 -90q-8 -6 -37 -24.5
t-74.5 -38.5t-106 -35.5t-131.5 -15.5q-55 0 -108.5 7t-101 26t-87.5 53t-69 89t-45.5 133.5t-16.5 185.5z" />
    <glyph glyph-name="Edotaccent" unicode="&#x116;" horiz-adv-x="1274" 
d="M669 1588q-32 0 -53 8.5t-33.5 23t-17.5 34t-5 42.5q0 24 5 44.5t17.5 35.5t33.5 23.5t53 8.5t53.5 -8.5t34 -23.5t18 -35.5t5.5 -44.5q0 -23 -5.5 -42.5t-18 -34t-34 -23t-53.5 -8.5zM90 90q38 14 82 19.5t85 10.5v1208l-161 31q-2 5 -2 16.5v18.5q0 15 4 31t8 23h1009
l14 -16q1 -38 -3 -87.5t-10.5 -98.5t-13.5 -90.5t-13 -63.5q-23 -5 -51.5 -4.5t-57.5 4.5l-18 239h-525v-523l498 6q5 -29 2 -66t-8 -69l-492 11v-570h572l66 223q29 2 58.5 0t52.5 -9q-1 -35 -3.5 -78t-6.5 -86.5t-8 -83.5t-8 -70l-21 -16h-1040z" />
    <glyph glyph-name="edotaccent" unicode="&#x117;" horiz-adv-x="950" 
d="M478 1172q-32 0 -53.5 8.5t-34 23t-17.5 34.5t-5 43t5 43t17.5 35t34 24t53.5 9q31 0 52.5 -9t34.5 -24t18.5 -35t5.5 -43t-5.5 -43t-18.5 -34.5t-34.5 -23t-52.5 -8.5zM97 430q-1 146 29.5 250t86.5 170.5t136.5 97.5t180.5 31q109 0 179 -25.5t110 -80t55.5 -139.5
t14.5 -204l-620 -5q0 -71 2.5 -130t13 -106.5t30.5 -83t55.5 -59t88 -35.5t127.5 -12q38 0 82.5 7t84 16t68 17.5t36.5 11.5l34 -85q-7 -5 -36 -20.5t-75.5 -32t-109.5 -29.5t-138 -13q-93 0 -172.5 16.5t-137.5 65.5t-91 139t-34 238zM717 638q-2 85 -21.5 133t-48 71.5
t-61.5 29t-63 5.5q-65 0 -109.5 -14.5t-73.5 -45.5t-44 -79.5t-21 -115.5z" />
    <glyph glyph-name="Eogonek" unicode="&#x118;" horiz-adv-x="1252" 
d="M80 90q38 14 82 19.5t85 10.5v1208l-161 31q-2 5 -2 16.5v18.5q0 15 4 31t8 23h1009l14 -16q1 -38 -3 -87.5t-10.5 -98.5t-13.5 -90.5t-13 -63.5q-23 -5 -51.5 -4.5t-57.5 4.5l-18 239h-525v-523l498 6q5 -29 2 -66t-8 -69l-492 11v-570h572l66 223q29 2 58.5 0t52.5 -9
q-1 -35 -3.5 -78t-6.5 -86.5t-8 -83.5t-8 -70l-21 -16q-35 -26 -68 -55.5t-59 -61t-42 -63t-16 -62.5q0 -22 15.5 -39t54.5 -17q11 0 24 2.5t25.5 6t23 7t16.5 6.5l40 -88q-18 -10 -39.5 -21t-46.5 -20t-53.5 -14.5t-59.5 -5.5q-26 0 -52 8t-47 24.5t-34 43t-13 62.5
q0 44 15.5 81.5t42.5 70.5t62.5 62.5t75.5 56.5l29 16h-934z" />
    <glyph glyph-name="eogonek" unicode="&#x119;" horiz-adv-x="1017" 
d="M107 430q-1 146 29.5 250t86.5 170.5t136.5 97.5t180.5 31q109 0 179 -25.5t110 -80t55.5 -139.5t14.5 -204l-620 -5q0 -71 2.5 -130t13 -106.5t30.5 -83t55.5 -59t88 -35.5t127.5 -12q38 0 82.5 7t84 16t68 17.5t36.5 11.5l25 -63l10 -22l-11 -9l-68 -57
q-32 -29 -65 -59t-59.5 -60.5t-43.5 -61t-17 -61.5q0 -22 14.5 -39t53.5 -17q12 0 25 2.5t25.5 6t23 7t16.5 6.5l41 -88q-18 -10 -39.5 -21t-46.5 -20t-53.5 -14.5t-59.5 -5.5q-26 0 -52 8t-47 24.5t-34 43t-13 62.5q0 44 15.5 81.5t42.5 70.5t62.5 62.5t75.5 56.5l4 3
q-33 -7 -70.5 -11.5t-79.5 -4.5q-93 0 -172.5 16.5t-137.5 65.5t-91 139t-34 238zM727 638q-2 85 -21.5 133t-48 71.5t-61.5 29t-63 5.5q-65 0 -109.5 -14.5t-73.5 -45.5t-44 -79.5t-21 -115.5z" />
    <glyph glyph-name="Gdotaccent" unicode="&#x120;" horiz-adv-x="1380" 
d="M726 1588q-32 0 -53 8.5t-33.5 23t-17.5 34t-5 42.5q0 24 5 44.5t17.5 35.5t33.5 23.5t53 8.5q31 0 52.5 -8.5t34.5 -23.5t18.5 -35.5t5.5 -44.5q0 -23 -5.5 -42.5t-18.5 -34t-34.5 -23t-52.5 -8.5zM92 709q0 193 46.5 337t133.5 240t211 143.5t278 47.5q80 0 147.5 -6.5
t122.5 -17t96.5 -23t68.5 -23.5l2 -13q1 -38 -3 -85t-10.5 -92.5t-13.5 -84.5t-13 -61q-23 -5 -54 -4.5t-60 4.5l-18 219q-41 19 -83 31t-82 19t-77.5 9t-70.5 2q-116 0 -197 -45t-132 -126.5t-74.5 -195.5t-23.5 -251q0 -159 24 -278t80 -198t148 -118.5t227 -39.5
q38 0 79.5 3.5t79 9.5t69 14t49.5 18v413h-2q-14 2 -46 5t-69 7t-71 8.5t-53 8.5q-1 8 -1 22t1.5 29t4 29t6.5 22h476q3 -6 5 -21.5t3 -32t1.5 -29.5t-0.5 -14l-75 -29v-454q-25 -23 -74 -47t-113.5 -44t-141 -33t-156.5 -13q-93 0 -177 10t-156 38.5t-129.5 79.5t-98 133
t-62.5 199t-22 278z" />
    <glyph glyph-name="gdotaccent" unicode="&#x121;" horiz-adv-x="1019" 
d="M480 1172q-32 0 -53 8.5t-33 23t-17 34.5t-5 43t5 43t17 35t33 24t53 9q31 0 52.5 -9t34.5 -24t18.5 -35t5.5 -43t-5.5 -43t-18.5 -34.5t-34.5 -23t-52.5 -8.5zM305 -14q-7 7 -18.5 18t-19 29t-7 44.5t17.5 64.5l58 125q-66 12 -114.5 41.5t-80.5 74.5t-48 104t-16 130
q0 97 35 166t93.5 112.5t135 63.5t160.5 20q78 0 139 -17.5t106 -49.5q18 19 46.5 35.5t62 27t71.5 14t76 -2.5v-140h-104q-23 0 -43.5 -1t-40.5 -3q28 -41 41.5 -90.5t13.5 -106.5q0 -96 -29.5 -168t-84.5 -120t-133 -72.5t-175 -24.5h-15l-19 -102q-5 -30 2.5 -48
t23.5 -27t38.5 -11.5t48.5 -1.5q141 3 232.5 -7t144.5 -40t73.5 -83.5t20.5 -137.5q0 -110 -50 -190t-130 -131.5t-179.5 -76t-199.5 -24.5q-60 1 -124 15t-116.5 47.5t-86.5 91.5t-34 147q0 38 12.5 82t40 85.5t71 78t104.5 59.5zM472 364q45 0 86.5 13.5t73.5 43.5t51 77
t19 114q0 82 -17 133.5t-48 80.5t-73 40t-92 11q-43 0 -84 -9.5t-72.5 -38t-50.5 -80.5t-19 -137q0 -71 17 -118.5t47 -76t71.5 -41t90.5 -12.5zM246 -291q-2 -57 20 -95.5t59.5 -62t86.5 -33.5t101 -10q73 0 131.5 14t99.5 43.5t62.5 76t21.5 112.5q0 69 -15.5 106
t-44 53.5t-68 19.5t-86.5 4q-60 2 -113 3t-104 15q-28 -16 -54 -36.5t-47 -49t-34.5 -67.5t-15.5 -93z" />
    <glyph glyph-name="hbar" unicode="&#x127;" horiz-adv-x="1254" 
d="M97 78q29 10 69.5 18t86.5 15v1028h-185l5 104h180v227h-173l-11 86q12 5 40 13.5t62 17t69.5 15t64.5 6.5q42 0 65 -11t34.5 -27.5t14 -35.5t2.5 -34v-257h333q3 -21 3 -51.5t-3 -52.5h-333v-282q92 66 174.5 94t165.5 28q79 0 132.5 -14t86 -50t46.5 -98.5t14 -159.5
v-550l156 -29q5 -16 1.5 -39t-10.5 -39h-442l-7 78q26 9 63 17t71 14v538q0 57 -7.5 95t-25 60.5t-46.5 32t-72 9.5q-78 0 -151.5 -14.5t-148.5 -49.5v-669l159 -33q3 -18 0 -40t-11 -38h-462z" />
    <glyph glyph-name="Itilde" unicode="&#x128;" horiz-adv-x="744" 
d="M-5 1638q15 32 45.5 66t69 61.5t79 44.5t74.5 15q37 -2 70 -19.5t62 -38t54 -37.5t48 -17q22 0 45.5 9t47 25.5t46 38.5t42.5 47l59 -44q-22 -60 -55.5 -102.5t-71 -69.5t-75 -39.5t-67.5 -12.5q-33 0 -64.5 18t-61 39.5t-57.5 39.5t-55 19q-16 1 -39.5 -6.5t-49.5 -20.5
t-52 -31t-48 -38zM104 90q39 14 88.5 20.5t91.5 11.5v1206l-164 31q-2 5 -2.5 18.5t-0.5 21.5q0 14 4 28t8 21h497l10 -84q-36 -13 -84 -22t-89 -14v-1206l186 -34q2 -5 2.5 -14.5t0.5 -16.5q0 -14 -4 -32t-8 -25h-527z" />
    <glyph glyph-name="itilde" unicode="&#x129;" horiz-adv-x="667" 
d="M-27 1222q13 26 38 54.5t57 51.5t67.5 37t69.5 13q46 -3 74.5 -15.5t49.5 -26.5t40 -25.5t46 -11.5q24 0 45 6.5t40 18.5t38 28.5t39 36.5l57 -42q-22 -59 -53 -96.5t-65 -60t-67 -31t-59 -8.5q-38 1 -64.5 13t-49.5 27t-46 28t-55 15q-32 0 -71.5 -14.5t-82.5 -49.5z
M97 78q38 13 82.5 19.5t82.5 13.5v730h-170l-11 86q19 7 49.5 16.5t63.5 17t65 13t55 5.5q43 0 66.5 -11t34 -27t12.5 -35t3 -34v-761l172 -30q2 -20 0 -42t-9 -39h-487z" />
    <glyph glyph-name="Iogonek" unicode="&#x12e;" horiz-adv-x="702" 
d="M78 90q39 14 88.5 20.5t91.5 11.5v1206l-164 31q-2 5 -2.5 18.5t-0.5 21.5q0 14 4 28t8 21h497l10 -84q-36 -13 -84 -22t-89 -14v-1206l186 -34q2 -5 2.5 -14.5t0.5 -16.5q0 -14 -4 -32t-8 -25h-129q-32 -29 -65 -58.5t-59.5 -59.5t-43.5 -60.5t-17 -60.5q0 -22 14.5 -39
t53.5 -17q12 0 25 2.5t25.5 6t23 7t16.5 6.5l41 -87q-36 -21 -86 -41.5t-113 -20.5q-26 0 -52.5 8t-47.5 24.5t-34 43t-13 62.5q0 43 15.5 80.5t42.5 70.5t63 61.5t76 55.5l29 16h-292z" />
    <glyph glyph-name="iogonek" unicode="&#x12f;" horiz-adv-x="624" 
d="M303 1206q-24 0 -45.5 5.5t-37.5 19t-25 35.5t-9 55t9 55t25 35.5t37.5 19t45.5 5.5t44.5 -5.5t36.5 -19t25 -35.5t9 -55t-9 -55t-25 -35.5t-36.5 -19t-44.5 -5.5zM78 28h1l-6 50q38 13 82.5 19.5t82.5 13.5v730h-170l-11 86q19 7 49.5 16.5t63.5 17t65 13t55 5.5
q43 0 66.5 -11t34 -27t12.5 -35t3 -34v-761l172 -30q2 -20 0 -42t-9 -39h-100q-32 -29 -65 -59t-59.5 -60.5t-43.5 -61t-17 -61.5q0 -22 14.5 -39t53.5 -17q12 0 25 2.5t25.5 6t23 7t16.5 6.5l40 -88q-18 -10 -39.5 -21t-46.5 -20t-53 -14.5t-59 -5.5q-27 0 -53.5 8
t-47 24.5t-33.5 43t-13 62.5q0 44 15.5 81.5t42.5 70.5t63 62.5t76 56.5l27 16h-280z" />
    <glyph glyph-name="Idotaccent" unicode="&#x130;" horiz-adv-x="702" 
d="M347 1588q-32 0 -53 8.5t-33 23t-17 34t-5 42.5q0 24 5 44.5t17 35.5t33 23.5t53 8.5t53.5 -8.5t34 -23.5t18 -35.5t5.5 -44.5q0 -23 -5.5 -42.5t-18 -34t-34 -23t-53.5 -8.5zM79 90q39 14 88.5 20.5t91.5 11.5v1206l-164 31q-2 5 -2.5 18.5t-0.5 21.5q0 14 4 28t8 21
h497l10 -84q-36 -13 -84 -22t-89 -14v-1206l186 -34q2 -5 2.5 -14.5t0.5 -16.5q0 -14 -4 -32t-8 -25h-527z" />
    <glyph glyph-name="dotlessi" unicode="&#x131;" horiz-adv-x="657" 
d="M97 78q38 13 82.5 19.5t82.5 13.5v730h-170l-11 86q19 7 49.5 16.5t63.5 17t65 13t55 5.5q43 0 66.5 -11t34 -27t12.5 -35t3 -34v-761l172 -30q2 -20 0 -42t-9 -39h-487z" />
    <glyph glyph-name="IJ" unicode="&#x132;" horiz-adv-x="1378" 
d="M695 -512q50 36 92 73t76 80.5t60 95.5t43.5 119.5t26.5 152.5t9 194v1125l-179 31q-2 13 -2.5 22.5t-0.5 17.5q0 14 3 28t7 21h517l9 -84q-18 -6 -39.5 -11.5t-45 -10t-46.5 -8t-43 -6.5v-1161q0 -154 -27.5 -277t-81 -218.5t-132.5 -165.5t-182 -118q-9 10 -19 23
t-19 26.5t-16 27t-10 23.5zM95 90q39 14 88.5 20.5t91.5 11.5v1206l-164 31q-2 5 -2.5 18.5t-0.5 21.5q0 14 4 28t8 21h497l10 -84q-36 -13 -84 -22t-89 -14v-1206l186 -34q2 -5 2.5 -14.5t0.5 -16.5q0 -14 -4 -32t-8 -25h-527z" />
    <glyph glyph-name="ij" unicode="&#x133;" horiz-adv-x="1234" 
d="M974 1205q-24 0 -44.5 5.5t-36.5 19t-25 36t-9 55.5t9 55t25 35.5t36.5 19t44.5 5.5t45 -5.5t36.5 -19t24.5 -35.5t9 -55t-9 -55.5t-24.5 -36t-36.5 -19t-45 -5.5zM327 1206q-24 0 -45.5 5.5t-37.5 19t-25 35.5t-9 55t9 55t25 35.5t37.5 19t45.5 5.5t44.5 -5.5t36.5 -19
t25 -35.5t9 -55t-9 -55t-25 -35.5t-36.5 -19t-44.5 -5.5zM712 -546q37 42 65.5 77t49.5 66.5t35.5 60t23.5 56.5q12 34 17 69.5t7 73.5t1.5 80t-0.5 90v814h-171l-12 86q19 7 49.5 16.5t64 17t65.5 13t55 5.5q43 0 67 -11t34.5 -27t12.5 -35t2 -34v-845q0 -55 -1.5 -112.5
t-9.5 -114.5t-26 -113.5t-51 -110t-83.5 -103t-124.5 -93.5zM97 78q38 13 82.5 19.5t82.5 13.5v730h-170l-11 86q19 7 49.5 16.5t63.5 17t65 13t55 5.5q43 0 66.5 -11t34 -27t12.5 -35t3 -34v-761l172 -30q2 -20 0 -42t-9 -39h-487z" />
    <glyph glyph-name="Jcircumflex" unicode="&#x134;" horiz-adv-x="664" 
d="M88 1531q-7 4 -16 11t-17.5 16t-15.5 19.5t-10 19.5l246 266h101l246 -260q-11 -23 -31.5 -43.5t-36.5 -28.5l-234 183zM264 1328l-179 31q-2 13 -2.5 22.5t-0.5 17.5q0 14 3 28t7 21h517l9 -84q-18 -6 -39.5 -11.5t-45 -10t-46.5 -8t-43 -6.5v-1161q0 -154 -27.5 -277
t-81 -218.5t-132.5 -165.5t-182 -118q-9 10 -19 23t-19 26.5t-16 27t-10 23.5q50 36 92 73t76 80.5t60 95.5t43.5 119.5t26.5 152.5t9 194v1125z" />
    <glyph glyph-name="jcircumflex" unicode="&#x135;" horiz-adv-x="557" 
d="M31 1137q-8 3 -18.5 10t-21 16t-20 18.5t-15.5 18.5l255 308h101l246 -308q-4 -9 -13 -19t-20 -19t-22.5 -15.5t-20.5 -9.5l-226 207zM232 841h-171l-11 86q19 7 49.5 16.5t64 17t65.5 13t55 5.5q43 0 66.5 -11t34 -27t12.5 -35t2 -34v-845q0 -55 -1.5 -112.5
t-9.5 -114.5t-26 -113.5t-50.5 -110t-83 -103t-124.5 -93.5l-71 74q37 42 65.5 77t49.5 66.5t35.5 60t24.5 56.5q12 34 17 69.5t6.5 73.5t1 80t-0.5 90v814z" />
    <glyph glyph-name="kcommaaccent" unicode="&#x137;" horiz-adv-x="1137" 
d="M68 78q12 3 30.5 7t41.5 8.5t48 9t49 9.5v1358h-174l-11 86q12 5 40 13.5t62 17t69.5 15t64.5 6.5q42 0 65 -11t34.5 -27.5t14 -35.5t2.5 -34v-979q45 32 98.5 72.5t109 84t110.5 87.5t103 83q-24 2 -50 4.5t-49.5 5t-43 6t-30.5 6.5q-2 16 0 40t9 40h386l4 -82l-30 -18
l-374 -290q34 -50 72 -109t78 -116.5t81.5 -107.5t83.5 -80q9 -6 28 -14t41.5 -16t45 -14.5t37.5 -10.5l2 -65q-21 -19 -52 -29t-64 -12.5t-65.5 2.5t-57.5 17t-53.5 39t-68.5 81.5t-94 142t-130 221.5l-129 -72v-307l160 -29q5 -18 1.5 -41.5t-10.5 -39.5h-475zM501 -232
q-2 32 7.5 54t26 36t39 20.5t47.5 6.5t49.5 -7.5t43.5 -22.5t30.5 -37.5t11.5 -51.5q0 -56 -23 -106.5t-57 -93t-73 -77.5t-70 -59l-56 40q18 24 36 52t34 58t29.5 62t21.5 65z" />
    <glyph glyph-name="kgreenlandic" unicode="&#x138;" horiz-adv-x="1155" 
d="M88 78q37 9 82 17.5t83 15.5h2v730h-172l-13 86q13 5 41 14t62 17.5t70 14.5t64 6q42 0 65 -11t34 -27t14 -35t4 -34v-385q97 72 199 164t211 195q-14 1 -34.5 3t-42.5 4.5t-44.5 6t-40.5 8.5q-4 16 -1 40t10 39h385l5 -82l-31 -17l-379 -316q36 -48 72.5 -100t75.5 -103
t81.5 -98t90.5 -84q9 -6 28 -14t41.5 -16t44.5 -14.5t37 -10.5l2 -65q-7 -8 -28 -19.5t-47 -16.5q-15 -3 -36.5 -4.5t-45 0t-45 6t-36.5 12.5q-18 8 -36.5 19.5t-40 32t-48 52t-59 79.5t-73 114t-91.5 156l-127 -77v-272l161 -28q2 -6 2 -14v-15q0 -14 -4 -29.5t-8 -22.5
h-475z" />
    <glyph glyph-name="Lacute" unicode="&#x139;" horiz-adv-x="1166" 
d="M231 1538q-10 9 -23 29.5t-24 46.5l361 267l115 -85l-2 -50zM90 90q38 14 82 19.5t85 10.5v1208l-163 31q-2 13 -1 22.5t1 17.5q2 17 4 29.5t5 19.5h523l9 -84q-17 -6 -42.5 -11t-53 -10t-55 -8.5t-47.5 -6.5v-1208h508l71 239q29 2 58.5 0t52.5 -9q-1 -35 -3.5 -80.5
t-6.5 -92t-8 -89t-7 -72.5l-22 -16h-981z" />
    <glyph glyph-name="lacute" unicode="&#x13a;" horiz-adv-x="650" 
d="M225 1689q-13 17 -20.5 32t-12.5 35l309 184q12 -5 26.5 -12.5t28.5 -16t26 -18.5t20 -21l-2 -45zM71 78q38 11 80.5 18.5t80.5 14.5v1359h-185l-12 88q12 5 42.5 14t67 17.5t74.5 14.5t67 6q42 0 65 -11.5t34 -28t13.5 -36t2.5 -34.5v-1389l173 -30q4 -22 1 -43t-8 -38
h-487z" />
    <glyph glyph-name="Ldot" unicode="&#x13f;" horiz-adv-x="1166" 
d="M90 95q41 8 83.5 13t83.5 10v1215q-41 5 -83.5 8.5t-83.5 13.5l7 93h534q4 -20 4 -46.5t-4 -46.5q-20 -4 -45 -7t-51.5 -5.5t-51.5 -4.5t-46 -5v-1215h508l72 241q28 2 57.5 0t52.5 -9q-1 -35 -3.5 -80.5t-6.5 -92t-8 -89t-8 -72.5l-21 -16h-983zM841 676q0 23 5 43
t17.5 35t33.5 24t53 9t53.5 -9t34.5 -24t18.5 -35t5.5 -43t-5.5 -43t-18.5 -34.5t-34.5 -22.5t-53.5 -8t-53 8t-33.5 22.5t-17.5 34.5t-5 43z" />
    <glyph glyph-name="ldot" unicode="&#x140;" horiz-adv-x="685" 
d="M76 78q38 11 80.5 18.5t80.5 14.5v1359h-185l-12 88q12 5 42.5 14t67 17.5t74.5 14.5t67 6q42 0 65 -11.5t34 -28t13.5 -36t2.5 -34.5v-1389l173 -30q4 -22 1 -43t-8 -38h-487zM652 546q-23 0 -43 6t-35 19t-24 34t-9 52q0 62 32.5 87t78.5 25q23 0 43.5 -6t35.5 -19
t24 -34.5t9 -52.5t-9 -52t-24 -34t-35.5 -19t-43.5 -6z" />
    <glyph glyph-name="Lslash" unicode="&#x141;" horiz-adv-x="1234" 
d="M142 90q38 14 82 19.5t85 10.5v426l-167 -95l-14 3q-8 35 -10.5 63.5t-2.5 54.5l194 100v656l-163 31q-2 13 -1 22.5t1 17.5q2 17 4 29.5t5 19.5h523l9 -84q-17 -6 -42.5 -11t-53 -10t-55 -8.5t-47.5 -6.5v-559l355 193l16 -3q9 -33 14.5 -67.5t7.5 -57.5l-393 -189v-525
h508l71 239q29 2 58.5 0t52.5 -9q-1 -35 -3.5 -80.5t-6.5 -92t-8 -89t-7 -72.5l-22 -16h-981z" />
    <glyph glyph-name="lslash" unicode="&#x142;" horiz-adv-x="681" 
d="M97 78q38 11 80.5 18.5t79.5 14.5v595l-179 -101l-15 9q-2 20 -3 39.5t-1 34.5v33l198 109v640h-184l-12 88q13 5 43 14t67 17.5t75 14.5t66 6q42 0 65 -11.5t34 -28t13 -36t2 -34.5v-573l186 113l17 -5q5 -30 10.5 -58.5t5.5 -61.5l-219 -116v-688l172 -30
q3 -22 0.5 -43t-7.5 -38h-485z" />
    <glyph glyph-name="Nacute" unicode="&#x143;" horiz-adv-x="1588" 
d="M730 1538q-10 9 -23 29.5t-24 46.5l361 267l115 -85l-2 -50zM97 90q39 14 82.5 20.5t84.5 11.5v1206l-167 31q-2 5 -2 16.5v18.5q0 15 4 31t7 23h376l72 -124h1l575 -1000l81 -198l-15 221v981l-175 31q-2 5 -2 16.5v18.5q0 15 4 31t8 23h460l9 -86q-39 -11 -74 -20
t-77 -14v-1328q-21 -8 -50.5 -13.5t-60 -8.5t-59.5 -3t-49 4v3l-655 1136l-66 165l9 -172v-989l196 -32q2 -5 2.5 -15.5t0.5 -17.5q0 -14 -4.5 -32t-7.5 -25h-499z" />
    <glyph glyph-name="nacute" unicode="&#x144;" horiz-adv-x="1272" 
d="M503 1106q-21 6 -41 19t-36 36l214 343l178 4l21 -42zM99 85q43 8 82.5 13t71.5 8v757h-161l-9 94q48 7 84.5 11.5t65 6.5t51 3t43.5 1q26 0 43 -6.5t27.5 -21.5t16 -38t7.5 -56q85 63 177.5 92.5t186.5 29.5q79 0 132 -14t85 -50t46 -98.5t14 -159.5v-551q39 -5 73 -9
t76 -12q6 -42 0 -85h-442l-9 85q43 7 73.5 12.5t62.5 8.5v534q0 57 -8.5 96t-26.5 63t-47 34.5t-70 10.5q-91 0 -171.5 -15t-151.5 -47v-676q39 -5 75.5 -9t78.5 -12q6 -42 0 -85h-469z" />
    <glyph glyph-name="OE" unicode="&#x152;" horiz-adv-x="1995" 
d="M730 -40q-174 0 -286.5 50t-178.5 146.5t-92 237.5t-26 323v2q0 170 37.5 307.5t115.5 236t197.5 154t284.5 60.5q89 0 143.5 -9.5t88.5 -19.5h839l14 -16q1 -38 -3.5 -87.5t-10.5 -98.5t-13.5 -90.5t-12.5 -63.5q-23 -5 -51.5 -4.5t-57.5 4.5l-18 239h-525v-523l498 6
q5 -29 1.5 -66t-8.5 -69l-491 11v-560h4v-10h567l67 223q29 2 58.5 0t52.5 -9q-1 -35 -4 -78t-6.5 -86.5t-7.5 -83.5t-8 -70l-22 -16h-862q-52 -17 -109.5 -27.5t-122.5 -12.5h-52zM782 83q64 2 116 12t97 32v1184q-45 18 -97 29.5t-116 14.5q-128 -5 -213.5 -47
t-136.5 -121t-72.5 -196t-21.5 -272q0 -93 6.5 -175.5t24.5 -152.5t49.5 -126t80.5 -95.5t118.5 -62t164.5 -24.5z" />
    <glyph glyph-name="oe" unicode="&#x153;" horiz-adv-x="1716" 
d="M95 475q0 105 29.5 196.5t91 160t155 108t222.5 39.5q67 0 120 -11.5t93.5 -32.5t70 -51t49.5 -67q51 88 135 125t199 37q109 0 179 -25.5t110 -80t55.5 -139.5t14.5 -204l-620 -5q0 -107 7.5 -186.5t39 -133t95 -80t176.5 -26.5q38 0 82 7t83.5 16t68.5 17.5t37 11.5
l33 -85q-7 -5 -35.5 -20.5t-75.5 -32t-110 -29.5t-138 -13q-63 0 -118.5 7t-101.5 26t-82 52.5t-61 86.5q-54 -80 -147.5 -126t-233.5 -46q-129 0 -211 39.5t-129 108t-65 160t-18 196.5zM1446 638q-2 85 -21 133t-47.5 71.5t-62 29t-63.5 5.5q-65 0 -109 -14.5t-73 -45.5
t-44.5 -79.5t-21.5 -115.5zM279 475q0 -122 19 -199t54.5 -121t86.5 -60.5t116 -16.5q58 0 108.5 16.5t88 60.5t59 121t21.5 199q0 121 -19 198.5t-54.5 121.5t-87 60.5t-116.5 16.5q-57 0 -107.5 -16.5t-88 -60.5t-59 -121.5t-21.5 -198.5z" />
    <glyph glyph-name="Racute" unicode="&#x154;" horiz-adv-x="1394" 
d="M552 1538q-10 9 -23 29.5t-24 46.5l361 267l115 -85l-2 -50zM149 88q38 14 82 20.5t85 11.5v1213q-41 5 -80 11t-81 15q-2 23 1.5 44.5t10.5 44.5h561q130 0 222 -19t150.5 -65t85.5 -123.5t27 -193.5q0 -72 -15 -146.5t-51.5 -138.5t-97.5 -112.5t-152 -67.5l303 -464
l151 -26q1 -1 1 -11t-1.5 -24t-4.5 -29.5t-7 -27.5h-288l-323 557h-38h-50.5t-40.5 1t-43.5 2t-59.5 4v-444l160 -32q2 -5 2.5 -16t0.5 -18q0 -14 -4 -30.5t-8 -23.5h-489zM654 669q105 0 176 23.5t114.5 71t62.5 120t19 170.5q0 66 -15 119t-52 90t-100.5 56t-159.5 16
l-203 -4v-662h158z" />
    <glyph glyph-name="racute" unicode="&#x155;" horiz-adv-x="846" 
d="M435 1082q-22 5 -37 18.5t-32 36.5l216 342l158 3l24 -41zM92 78q38 13 80.5 19.5t80.5 13.5v730h-179l-13 86q22 9 54 18t65.5 16.5t65 12.5t52.5 5q42 0 65.5 -11t35 -29.5t13.5 -44t2 -53.5v-77q4 9 14 27t21.5 37.5t23 37.5t19.5 27q32 41 80.5 65.5t119.5 24.5
q7 0 19 -0.5t25 -1.5t26 -2.5t23 -4.5q1 -12 1.5 -31t0 -41t-2 -44.5t-4.5 -41.5q-17 3 -42 6t-57 3q-38 0 -75 -6.5t-67 -19.5q-38 -16 -65 -43t-53 -59v-586l231 -23q2 -5 2 -17v-19q0 -14 -1.5 -29.5t-5.5 -22.5h-546z" />
    <glyph glyph-name="Rcommaaccent" unicode="&#x156;" horiz-adv-x="1394" 
d="M149 88q38 14 82 20.5t85 11.5v1213q-41 5 -80 11t-81 15q-2 23 1.5 44.5t10.5 44.5h561q130 0 222 -19t150.5 -65t85.5 -123.5t27 -193.5q0 -72 -15 -146.5t-51.5 -138.5t-97.5 -112.5t-152 -67.5l303 -464l151 -26q1 -1 1 -11t-1.5 -24t-4.5 -29.5t-7 -27.5h-288
l-323 557h-38h-50.5t-40.5 1t-43.5 2t-59.5 4v-444l160 -32q2 -5 2.5 -16t0.5 -18q0 -14 -4 -30.5t-8 -23.5h-489zM654 669q105 0 176 23.5t114.5 71t62.5 120t19 170.5q0 66 -15 119t-52 90t-100.5 56t-159.5 16l-203 -4v-662h158zM685 -196q-2 32 7.5 54t26.5 35.5
t39.5 19.5t46.5 6q25 0 49.5 -7.5t43.5 -22t31 -36.5t12 -51q0 -56 -23 -112t-56.5 -105.5t-71.5 -90t-69 -64.5l-57 40q18 24 35.5 57.5t33 70.5t28.5 74.5t21 70.5z" />
    <glyph glyph-name="rcommaaccent" unicode="&#x157;" horiz-adv-x="825" 
d="M99 78q38 13 80.5 19.5t80.5 13.5v730h-179l-13 86q22 9 54 18t65.5 16.5t65 12.5t52.5 5q42 0 65.5 -11t35 -29.5t13.5 -44t2 -53.5v-77q4 9 14 27t21.5 37.5t23 37.5t19.5 27q32 41 80.5 65.5t119.5 24.5q7 0 19 -0.5t25 -1.5t26 -2.5t23 -4.5q1 -12 1.5 -31t0 -41
t-2 -44.5t-4.5 -41.5q-17 3 -42 6t-57 3q-38 0 -75 -6.5t-67 -19.5q-38 -16 -65 -43t-53 -59v-586l231 -23q2 -5 2 -17v-19q0 -14 -1.5 -29.5t-5.5 -22.5h-546zM275 -232q-2 32 7.5 54t26 36t39 20.5t47.5 6.5t49.5 -7.5t43.5 -22.5t30.5 -37.5t11.5 -51.5q0 -56 -23 -106.5
t-57 -93t-73 -77.5t-70 -59l-56 40q18 24 36 52t34 58t29.5 62t21.5 65z" />
    <glyph glyph-name="Rcaron" unicode="&#x158;" horiz-adv-x="1394" 
d="M413 1802q11 23 31.5 43.5t36.5 28.5l234 -183l232 183q7 -4 16 -11t17.5 -16t15.5 -19.5t10 -19.5l-246 -266h-101zM149 88q38 14 82 20.5t85 11.5v1213q-41 5 -80 11t-81 15q-2 23 1.5 44.5t10.5 44.5h561q130 0 222 -19t150.5 -65t85.5 -123.5t27 -193.5
q0 -72 -15 -146.5t-51.5 -138.5t-97.5 -112.5t-152 -67.5l303 -464l151 -26q1 -1 1 -11t-1.5 -24t-4.5 -29.5t-7 -27.5h-288l-323 557h-38h-50.5t-40.5 1t-43.5 2t-59.5 4v-444l160 -32q2 -5 2.5 -16t0.5 -18q0 -14 -4 -30.5t-8 -23.5h-489zM654 669q105 0 176 23.5
t114.5 71t62.5 120t19 170.5q0 66 -15 119t-52 90t-100.5 56t-159.5 16l-203 -4v-662h158z" />
    <glyph glyph-name="rcaron" unicode="&#x159;" horiz-adv-x="825" 
d="M135 1454q4 9 13 19t20 19t22.5 15.5t20.5 9.5l226 -207l225 207q8 -3 18.5 -10t21 -16t20 -18.5t15.5 -18.5l-255 -308h-101zM99 78q38 13 80.5 19.5t80.5 13.5v730h-179l-13 86q22 9 54 18t65.5 16.5t65 12.5t52.5 5q42 0 65.5 -11t35 -29.5t13.5 -44t2 -53.5v-77
q4 9 14 27t21.5 37.5t23 37.5t19.5 27q32 41 80.5 65.5t119.5 24.5q7 0 19 -0.5t25 -1.5t26 -2.5t23 -4.5q1 -12 1.5 -31t0 -41t-2 -44.5t-4.5 -41.5q-17 3 -42 6t-57 3q-38 0 -75 -6.5t-67 -19.5q-38 -16 -65 -43t-53 -59v-586l231 -23q2 -5 2 -17v-19q0 -14 -1.5 -29.5
t-5.5 -22.5h-546z" />
    <glyph glyph-name="Sacute" unicode="&#x15a;" horiz-adv-x="1106" 
d="M515 1538q-10 9 -23 29.5t-24 46.5l361 267l115 -85l-2 -50zM165 415q19 1 33 1t26.5 -0.5t26 -2.5t33.5 -4q5 -29 8 -52.5t6 -47.5t6 -50.5t8 -62.5q34 -21 70.5 -40t77 -33t85.5 -22.5t98 -8.5q65 0 113 17t79 47.5t46 74.5t15 98q0 26 -2 49.5t-9 45.5t-20 42t-35 39
q-59 50 -124 89t-132.5 75t-135.5 72.5t-133 81.5q-35 25 -62.5 50.5t-47 57t-29.5 71t-10 92.5q0 98 28 165.5t78 113.5q61 57 141.5 80.5t187.5 23.5q57 0 117.5 -5t118 -14.5t109 -22.5t92.5 -28q-7 -81 -16.5 -163t-23.5 -155q-21 -2 -36 -2.5t-27.5 0t-26 1.5t-31.5 4
l-16 198q-66 35 -138 53.5t-142 18.5q-55 0 -100.5 -13t-78.5 -39.5t-51 -67t-18 -96.5q0 -40 10 -72t30.5 -59.5t52.5 -51.5t76 -48l345 -194q87 -48 134.5 -95t70 -94t27 -94.5t4.5 -97.5q0 -57 -13.5 -103.5t-37.5 -84t-56 -66t-68 -48.5q-42 -23 -86.5 -36t-87.5 -19.5
t-81 -8t-66 -1.5q-58 0 -123 11.5t-125 29.5t-110 39.5t-79 41.5z" />
    <glyph glyph-name="sacute" unicode="&#x15b;" horiz-adv-x="934" 
d="M401 1106q-21 6 -41 19t-36 36l214 343l178 4l21 -42zM102 61q4 33 8.5 61.5t9 58t9.5 61t11 70.5l99 -3q14 -35 16.5 -72t2.5 -84q54 -32 118 -53.5t135 -21.5q27 0 52.5 4.5t47 16.5t36.5 33t20 53q2 10 2 20v20q0 44 -17.5 66.5t-43.5 37.5q-27 15 -68.5 34t-86.5 39
t-88.5 38t-73.5 31q-80 31 -127 88.5t-47 135.5q0 141 92 212.5t278 71.5q21 0 55 -2t75 -7t88 -15t95 -26q-2 -30 -4.5 -62.5t-7.5 -64t-14 -60.5t-24 -54l-90 4l-7 138q-9 7 -33 15t-56 15t-68 12t-70 5q-29 0 -55.5 -5t-48.5 -18.5t-36.5 -39t-17.5 -65.5v-9
q0 -42 27 -72.5t88 -55.5q23 -10 57 -22.5t77 -29.5t92.5 -39t102.5 -50q66 -35 97.5 -89t31.5 -129q0 -69 -20.5 -116.5t-53.5 -79t-74 -49t-81.5 -26t-77.5 -10t-61 -1.5q-48 0 -104 8.5t-108 22t-95 29.5t-64 30z" />
    <glyph glyph-name="Uogonek" unicode="&#x172;" horiz-adv-x="1545" 
d="M239 1333q-41 5 -84 8.5t-85 13.5l8 93h517q4 -20 4 -46.5t-4 -46.5q-41 -8 -84.5 -12.5t-84.5 -9.5v-672q0 -93 4.5 -171t18.5 -141t40 -110t70.5 -78.5t110 -47.5t157.5 -16q127 0 198.5 38.5t106 117.5t42.5 197.5t8 279.5v603q-42 5 -88 8.5t-88 13.5l8 93h456
q4 -20 4 -46.5t-4 -46.5q-20 -4 -35.5 -7t-29.5 -5.5t-29.5 -4.5t-35.5 -5v-605q0 -144 -11.5 -262t-44.5 -208.5t-91 -153t-151 -95.5q-33 -28 -68 -56.5t-63.5 -57t-46.5 -57t-18 -57.5q0 -22 15 -39t54 -17q11 0 24 2.5t25.5 6t23 7t16.5 6.5l40 -87q-35 -21 -85 -41.5
t-113 -20.5q-27 0 -53 8t-47 24.5t-34 43t-13 62.5q0 40 14.5 74t40 64t59.5 56t73 49q-22 -2 -44.5 -4t-47.5 -2h-23q-122 0 -209 19.5t-146 58.5t-94 96.5t-53.5 134t-24 171t-5.5 206.5v674z" />
    <glyph glyph-name="uogonek" unicode="&#x173;" horiz-adv-x="1245" 
d="M217 841h-149l-12 83q13 5 36.5 14.5t53 18.5t61 15.5t59.5 6.5q42 0 65.5 -11t35 -27t14 -35t2.5 -34v-570q0 -59 8 -96t27 -58t50 -28.5t78 -8.5q31 -1 70.5 6.5t79.5 20t77.5 28.5t65.5 32v643h-173l-12 86q13 5 40.5 14t61 17.5t68.5 14.5t64 6q42 0 65 -11t34.5 -27
t14 -35t2.5 -34v-766h182l7 -83q-33 -31 -69 -64.5t-66.5 -67.5t-50 -68t-19.5 -65q0 -22 14.5 -39t53.5 -17q12 0 25 2.5t25.5 6t23 7t16.5 6.5l40 -88q-18 -10 -39.5 -21t-46 -20t-53 -14.5t-59.5 -5.5q-27 0 -53 8t-47 24.5t-34 43t-13 62.5q0 43 14.5 79.5t40 69
t59.5 61t72 55.5q-18 -3 -34.5 -5t-31.5 -2q-42 0 -65 11.5t-34 28t-13.5 36t-2.5 34.5v41h-3q-26 -20 -66 -46.5t-89.5 -49.5t-105.5 -39t-113 -16q-69 0 -117 14t-78 50.5t-43.5 99t-13.5 158.5v548z" />
    <glyph glyph-name="Ydieresis" unicode="&#x178;" horiz-adv-x="1321" 
d="M904 1590q-33 0 -54 8.5t-33 22.5t-17 33t-5 40q0 22 5 41.5t17 34t33 23t54 8.5q62 0 84.5 -28.5t22.5 -78.5q0 -21 -5 -40t-17.5 -33t-33 -22.5t-51.5 -8.5zM480 1590q-30 0 -50 8.5t-32 22.5t-17 33t-5 40q0 22 5 41.5t17 34t32 23t50 8.5q62 0 87 -28.5t25 -78.5
q0 -21 -6 -40t-19 -33t-34.5 -22.5t-52.5 -8.5zM386 90q20 6 45.5 11t52 8.5t52 6.5t46.5 6v505l-440 706l-112 26q-2 5 -2 15v18q0 14 4.5 31.5t7.5 24.5h449l10 -89q-35 -10 -75 -17.5t-77 -12.5l303 -502l42 -83l353 582l-185 33q-2 5 -2.5 15t-0.5 18q0 14 4 31.5
t9 24.5h420l12 -89q-7 -4 -19.5 -8t-27 -7.5l-29 -7t-26.5 -5.5l-439 -697v-512l211 -32q2 -5 2 -15.5v-17.5q0 -14 -4.5 -32t-8.5 -25h-566z" />
    <glyph glyph-name="Zacute" unicode="&#x179;" horiz-adv-x="1166" 
d="M500 1538q-10 9 -23 29.5t-24 46.5l361 267l115 -85l-2 -50zM85 0q-6 11 -11.5 28t-10 36t-7 37t-2.5 32l794 1195h-612v-2l-21 -210q-29 -4 -60 -3.5t-54 5.5q-3 28 -9.5 66.5t-12.5 81t-10 85.5t-3 81l12 16h943q7 -9 14 -22.5t13 -28.5t9.5 -31t3.5 -29l-796 -1217
h664l73 225q28 2 57 0t52 -9q-1 -35 -3.5 -78t-5.5 -87t-7 -84.5t-8 -70.5l-21 -16h-981z" />
    <glyph glyph-name="zacute" unicode="&#x17a;" horiz-adv-x="943" 
d="M451 1106q-21 6 -41 19t-36 36l214 343l178 4l21 -42zM124 0q-6 11 -11.5 27t-9.5 34t-6.5 35.5t-2.5 31.5l560 716h-395l-34 -185l-101 5q-8 69 -11.5 142.5t7.5 143.5h685q7 -10 14.5 -23.5t13.5 -28.5t9.5 -30.5t3.5 -28.5l-569 -731h431l38 183l104 -5
q3 -21 4.5 -57.5t1.5 -78t-1.5 -82t-4.5 -68.5h-726z" />
    <glyph glyph-name="Zdotaccent" unicode="&#x17b;" horiz-adv-x="1166" 
d="M586 1588q-32 0 -53 8.5t-33 23t-17 34t-5 42.5q0 24 5 44.5t17 35.5t33 23.5t53 8.5t53.5 -8.5t34 -23.5t18 -35.5t5.5 -44.5q0 -23 -5.5 -42.5t-18 -34t-34 -23t-53.5 -8.5zM85 0q-6 11 -11.5 28t-10 36t-7 37t-2.5 32l794 1195h-612v-2l-21 -210q-29 -4 -60 -3.5
t-54 5.5q-3 28 -9.5 66.5t-12.5 81t-10 85.5t-3 81l12 16h943q7 -9 14 -22.5t13 -28.5t9.5 -31t3.5 -29l-796 -1217h664l73 225q28 2 57 0t52 -9q-1 -35 -3.5 -78t-5.5 -87t-7 -84.5t-8 -70.5l-21 -16h-981z" />
    <glyph glyph-name="zdotaccent" unicode="&#x17c;" horiz-adv-x="943" 
d="M472 1206q-24 0 -45.5 5.5t-37.5 19t-25 35.5t-9 55t9 55t25 35.5t37.5 19t45.5 5.5t44.5 -5.5t36.5 -19t25 -35.5t9 -55t-9 -55t-25 -35.5t-36.5 -19t-44.5 -5.5zM115 0q-6 11 -11.5 28t-9.5 36t-6.5 37t-2.5 32l565 711h-397l-34 -185q-29 -2 -59.5 -0.5t-55.5 5.5
q-1 20 -1 53.5v72t1.5 77.5t3.5 69q0 4 1.5 7t1.5 7h703q13 -20 26 -52t13 -59l-569 -731h442l32 183q31 2 61 0.5t56 -5.5q1 -21 1 -57.5t-1 -78t-2.5 -82t-4.5 -68.5h-753z" />
    <glyph glyph-name="dotlessj" unicode="&#x237;" horiz-adv-x="548" 
d="M237 841h-171l-12 86q19 7 49.5 16.5t64 17t65.5 13t55 5.5q43 0 67 -11t34.5 -27t12.5 -35t2 -34v-845q0 -55 -1.5 -112.5t-9.5 -114.5t-26 -113.5t-51 -110t-83.5 -103t-124.5 -93.5l-70 74q37 42 65.5 77t49.5 66.5t35.5 60t23.5 56.5q12 34 17 69.5t7 73.5t1.5 80
t-0.5 90v814z" />
    <glyph glyph-name="circumflex" unicode="&#x2c6;" horiz-adv-x="659" 
d="M104 1137q-8 3 -18.5 10t-21 16t-20 18.5t-15.5 18.5l255 308h101l246 -308q-4 -9 -13 -19t-20 -19t-22.5 -15.5t-20.5 -9.5l-226 207z" />
    <glyph glyph-name="ring" unicode="&#x2da;" horiz-adv-x="451" 
d="M225 1071q-46 0 -86.5 16t-70.5 44.5t-47.5 68t-17.5 86.5q0 46 17.5 85.5t47.5 68t70.5 44.5t86.5 16q48 0 88.5 -16t69.5 -44.5t45 -67.5t16 -86t-17 -86.5t-47 -68t-70 -44.5t-85 -16zM248 1183q38 4 55 28t19 62q2 48 -23 78.5t-76 34.5h-16q-38 -4 -56 -27t-20 -61
q-3 -47 22.5 -80t79.5 -35h15z" />
    <glyph glyph-name="tilde" unicode="&#x2dc;" horiz-adv-x="751" 
d="M19 1211q15 32 45.5 66t69 61.5t79 44.5t74.5 15q37 -2 70 -19.5t62 -38t54 -37.5t48 -17q22 0 45.5 9t47 25.5t46 38.5t42.5 47l59 -44q-22 -60 -53 -102.5t-67 -69.5t-74.5 -39.5t-74.5 -12.5q-33 0 -64.5 17.5t-61 39t-57.5 40t-55 19.5q-16 1 -39.5 -6.5t-49.5 -20.5
t-52 -31t-48 -38z" />
    <glyph glyph-name="Wgrave" unicode="&#x1e80;" horiz-adv-x="1919" 
d="M699 1791l115 90l357 -264q-9 -27 -18.5 -44t-22.5 -37l-429 205zM147 1335l-102 20q-4 20 -2 45t7 46h449l4 -91l-163 -20l239 -1087l23 -106l29 156l262 1004q46 13 86 14t87 -6l278 -1050l36 -125l27 163l226 1037q-46 4 -88.5 8t-69.5 12l4 91h395l5 -91
q-37 -13 -86 -20l-304 -1335q-27 -6 -62 -8t-70 -1.5t-65.5 3.5t-48.5 6l-246 931l-38 163l-30 -165l-246 -927q-26 -5 -60 -7t-67 -2t-60.5 2t-39.5 5z" />
    <glyph glyph-name="wgrave" unicode="&#x1e81;" horiz-adv-x="1599" 
d="M525 1439l21 43l151 18l239 -363q-16 -23 -36.5 -36.5t-42.5 -18.5zM140 844l-101 26q-2 5 -2 13v15q0 14 4 29.5t9 22.5h427l6 -78q-34 -8 -79 -16.5t-81 -13.5l158 -617l27 -117l20 81l197 761q47 13 90 11.5t90 -9.5l194 -727l30 -117l24 84l186 648l-172 30
q-2 5 -2.5 13t-0.5 15q0 14 4 29.5t8 22.5h383l9 -85q-19 -9 -46 -15.5t-44 -10.5l-264 -841q-26 -6 -57 -7.5t-60.5 -0.5t-53.5 4t-37 6l-189 672l-21 117l-17 -115l-184 -672q-18 -5 -48 -8t-61.5 -3t-59 2t-39.5 7z" />
    <glyph glyph-name="Wacute" unicode="&#x1e82;" horiz-adv-x="1919" 
d="M850 1538q-10 9 -23 29.5t-24 46.5l361 267l115 -85l-2 -50zM147 1335l-102 20q-4 20 -2 45t7 46h449l4 -91l-163 -20l239 -1087l23 -106l29 156l262 1004q46 13 86 14t87 -6l278 -1050l36 -125l27 163l226 1037q-46 4 -88.5 8t-69.5 12l4 91h395l5 -91q-37 -13 -86 -20
l-304 -1335q-27 -6 -62 -8t-70 -1.5t-65.5 3.5t-48.5 6l-246 931l-38 163l-30 -165l-246 -927q-26 -5 -60 -7t-67 -2t-60.5 2t-39.5 5z" />
    <glyph glyph-name="wacute" unicode="&#x1e83;" horiz-adv-x="1666" 
d="M818 1082q-22 5 -42.5 18.5t-35.5 36.5l227 342l165 5l23 -40zM169 844l-101 26q-2 5 -2 13v15q0 14 4 29.5t9 22.5h427l6 -78q-34 -8 -79 -16.5t-81 -13.5l158 -617l27 -117l20 81l197 761q47 13 90 11.5t90 -9.5l194 -727l30 -117l24 84l186 648l-172 30q-2 5 -2.5 13
t-0.5 15q0 14 4 29.5t8 22.5h383l9 -85q-19 -9 -46 -15.5t-44 -10.5l-264 -841q-26 -6 -57 -7.5t-60.5 -0.5t-53.5 4t-37 6l-189 672l-21 117l-17 -115l-184 -672q-18 -5 -48 -8t-61.5 -3t-59 2t-39.5 7z" />
    <glyph glyph-name="Wdieresis" unicode="&#x1e84;" horiz-adv-x="1919" 
d="M1182 1590q-33 0 -54 8.5t-33 22.5t-17 33t-5 40q0 22 5 41.5t17 34t33 23t54 8.5q62 0 84.5 -28.5t22.5 -78.5q0 -21 -5 -40t-17.5 -33t-33 -22.5t-51.5 -8.5zM758 1590q-30 0 -50 8.5t-32 22.5t-17 33t-5 40q0 22 5 41.5t17 34t32 23t50 8.5q62 0 87 -28.5t25 -78.5
q0 -21 -6 -40t-19 -33t-34.5 -22.5t-52.5 -8.5zM147 1335l-102 20q-3 20 -1.5 45t6.5 46h449l5 -91l-163 -20l239 -1087l16 -137l36 187l262 938q46 12 85.5 13t86.5 -6l279 -983l31 -156l30 194l227 1037q-46 4 -89 8t-69 12l5 91h395l4 -91q-18 -6 -39 -11t-46 -9
l-305 -1335q-26 -6 -61 -8t-70 -1.5t-66 3.5t-49 6l-245 865l-39 163l-30 -165l-245 -861q-26 -5 -60.5 -7t-67.5 -2t-60 2t-40 5z" />
    <glyph glyph-name="wdieresis" unicode="&#x1e85;" horiz-adv-x="1599" 
d="M986 1080q-27 0 -45.5 7.5t-29.5 20.5t-15.5 30t-4.5 37q0 19 4.5 37t15.5 31t29.5 21t45.5 8q28 0 47 -8t29.5 -21t15 -31t4.5 -37q0 -20 -4.5 -37t-15 -30t-29.5 -20.5t-47 -7.5zM634 1080q-28 0 -46 7.5t-29 20.5t-15.5 30t-4.5 37q0 19 4.5 37t15.5 31t29 21t46 8
q54 0 75 -29t21 -68t-21 -67t-75 -28zM140 844l-101 26q-2 5 -2 13v15q0 14 4 29.5t9 22.5h427l6 -78q-34 -8 -79 -16.5t-81 -13.5l158 -617l27 -117l20 81l197 761q47 13 90 11.5t90 -9.5l194 -727l30 -117l24 84l186 648l-172 30q-2 5 -2.5 13t-0.5 15q0 14 4 29.5t8 22.5
h383l9 -85q-19 -9 -46 -15.5t-44 -10.5l-264 -841q-26 -6 -57 -7.5t-60.5 -0.5t-53.5 4t-37 6l-189 672l-21 117l-17 -115l-184 -672q-18 -5 -48 -8t-61.5 -3t-59 2t-39.5 7z" />
    <glyph glyph-name="Ygrave" unicode="&#x1ef2;" horiz-adv-x="1321" 
d="M417 1741l-2 50l115 90l357 -264q-9 -27 -18.5 -44t-22.5 -37zM386 90q20 6 45.5 11t52 8.5t52 6.5t46.5 6v505l-440 706l-112 26q-2 5 -2 15v18q0 14 4.5 31.5t7.5 24.5h449l10 -89q-35 -10 -75 -17.5t-77 -12.5l303 -502l42 -83l353 582l-185 33q-2 5 -2.5 15t-0.5 18
q0 14 4 31.5t9 24.5h420l12 -89q-7 -4 -19.5 -8t-27 -7.5l-29 -7t-26.5 -5.5l-439 -697v-512l211 -32q2 -5 2 -15.5v-17.5q0 -14 -4.5 -32t-8.5 -25h-566z" />
    <glyph glyph-name="ygrave" unicode="&#x1ef3;" horiz-adv-x="1071" 
d="M302 1439l22 43l151 18l238 -363q-16 -23 -36 -36.5t-41 -18.5zM79 -482q45 -5 81 -8t76 1q21 1 43 6t44.5 16t44.5 30t43 49q18 27 40 68.5t45 92.5t46 109t44 118h-90l-342 844l-72 26q-2 5 -2.5 13t-0.5 15q0 14 5 29.5t8 22.5h397l7 -78q-33 -11 -73 -18t-75 -12
l238 -627l30 -123l241 748l-174 30q-2 5 -2 13v15q0 14 4 29.5t7 22.5h400l9 -85q-10 -5 -22 -8.5t-25 -7t-24.5 -6t-20.5 -4.5l-289 -837l-12 -31q-42 -120 -70.5 -194.5t-47 -118t-28.5 -64.5t-16 -34q-25 -51 -50 -85.5t-55 -55.5t-68 -30t-89 -9q-32 0 -65.5 4.5t-64 12
t-56 17.5t-42.5 22z" />
    <glyph glyph-name="endash" unicode="&#x2013;" horiz-adv-x="853" 
d="M99 617h650q2 -11 3 -26.5t1 -32.5t-1 -33t-3 -26h-654z" />
    <glyph glyph-name="emdash" unicode="&#x2014;" horiz-adv-x="1538" 
d="M99 622h1335q2 -11 3 -27.5t1 -34.5t-1 -34.5t-3 -26.5h-1339z" />
    <glyph glyph-name="quoteleft" unicode="&#x2018;" horiz-adv-x="372" 
d="M113 1054q-30 13 -42 37t-10 53q1 33 13.5 69t31.5 71.5t42 68.5t45.5 60t42 45.5t31.5 25.5l55 -38q-11 -14 -27.5 -45t-33 -68.5t-29 -75.5t-15.5 -66l65 -47q-15 -73 -59 -94t-110 4z" />
    <glyph glyph-name="quoteright" unicode="&#x2019;" horiz-adv-x="409" 
d="M73 1071q11 14 27.5 45.5t33 68.5t29 75t15.5 66l-65 47q15 73 59 94t110 -4q30 -13 42 -37t10 -53q-1 -33 -13.5 -69t-31.5 -71.5t-42 -68.5t-45.5 -59.5t-42 -45.5t-31.5 -26z" />
    <glyph glyph-name="quotesinglbase" unicode="&#x201a;" horiz-adv-x="451" 
d="M135 113q14 73 57.5 94.5t109.5 -4.5q31 -12 42.5 -36.5t9.5 -53.5q-1 -33 -13.5 -69t-31 -71t-41.5 -68t-45.5 -60t-42 -46t-31.5 -26l-54 38q10 14 26.5 45.5t33 69t29 75.5t14.5 65z" />
    <glyph glyph-name="quotedblleft" unicode="&#x201c;" horiz-adv-x="740" 
d="M458 1049q-30 13 -42 37t-10 53q2 50 27.5 105.5t59.5 104t67.5 84t51.5 46.5l55 -38q-11 -14 -27.5 -45t-33 -68.5t-29 -75.5t-15.5 -66l65 -47q-15 -73 -59 -93.5t-110 3.5zM128 1049q-30 13 -42 37t-10 53q2 50 27.5 105.5t59.5 104t67.5 84t51.5 46.5l54 -38
q-11 -14 -27.5 -45t-32.5 -68.5t-28.5 -75.5t-15.5 -66l63 -47q-14 -73 -57.5 -93.5t-109.5 3.5z" />
    <glyph glyph-name="quotedblright" unicode="&#x201d;" horiz-adv-x="740" 
d="M404 1071q11 14 27.5 45.5t32.5 68.5t28.5 75t15.5 66l-64 47q14 73 58 94t110 -4q30 -13 42 -37t10 -53q-1 -33 -13.5 -69t-31.5 -71.5t-42 -68.5t-45.5 -59.5t-42 -45.5t-31.5 -26zM73 1071q11 14 27.5 45.5t33 68.5t29 75t15.5 66l-65 47q15 73 59 94t110 -4
q30 -13 42 -37t10 -53q-1 -33 -13.5 -69t-31.5 -71.5t-42 -68.5t-45.5 -59.5t-42 -45.5t-31.5 -26z" />
    <glyph glyph-name="quotedblbase" unicode="&#x201e;" horiz-adv-x="782" 
d="M426 -189q10 14 27 45.5t33 69t28.5 75.5t15.5 65l-65 47q15 73 59 94.5t110 -4.5q30 -12 41.5 -36.5t9.5 -53.5q-1 -33 -13.5 -69t-31 -71t-41.5 -68t-45.5 -60t-42 -46t-31.5 -26zM135 113q14 73 57.5 94.5t109.5 -4.5q31 -12 42.5 -36.5t9.5 -53.5q-1 -33 -13.5 -69
t-31 -71t-41.5 -68t-45.5 -60t-42 -46t-31.5 -26l-54 38q10 14 26.5 45.5t33 69t29 75.5t14.5 65z" />
    <glyph glyph-name="bullet" unicode="&#x2022;" horiz-adv-x="792" 
d="M395 354q-49 0 -82 13t-52.5 36t-27.5 54.5t-8 67.5q0 34 8 65.5t27.5 55t52.5 37.5t82 14t82 -11.5t53 -33t29 -53.5t9 -74q0 -36 -9 -67.5t-29 -54.5t-53 -36t-82 -13z" />
    <glyph glyph-name="ellipsis" unicode="&#x2026;" horiz-adv-x="1351" 
d="M1012 85q0 23 5 43.5t18 35.5t34.5 23.5t53.5 8.5t53.5 -8.5t35 -23.5t19 -35.5t5.5 -43.5q0 -50 -24.5 -82t-88.5 -32q-32 0 -53.5 8.5t-34.5 23.5t-18 36t-5 46zM568 85q0 23 5.5 43.5t18 35.5t34.5 23.5t55 8.5q32 0 53.5 -8.5t35 -23.5t19 -35.5t5.5 -43.5
q0 -50 -24.5 -82t-88.5 -32q-33 0 -55 8.5t-34.5 23.5t-18 36t-5.5 46zM126 85q0 23 5.5 43.5t18 35.5t34.5 23.5t55 8.5q32 0 53.5 -8.5t34 -23.5t18 -35.5t5.5 -43.5q0 -25 -5.5 -46t-18 -36t-34 -23.5t-53.5 -8.5q-33 0 -55 8.5t-34.5 23.5t-18 36t-5.5 46z" />
    <glyph glyph-name="guilsinglleft" unicode="&#x2039;" horiz-adv-x="634" 
d="M115 512l334 370q15 -4 37.5 -18.5t33.5 -33.5l-253 -365l256 -350q-5 -9 -13.5 -19t-19 -20t-21.5 -17.5t-20 -11.5l-334 364v101z" />
    <glyph glyph-name="guilsinglright" unicode="&#x203a;" horiz-adv-x="636" 
d="M369 464l-256 350q5 9 13.5 19t19 20t21.5 17.5t20 11.5l334 -364v-101l-334 -370q-15 4 -37.5 18.5t-33.5 33.5z" />
    <glyph glyph-name="Euro" unicode="&#x20ac;" horiz-adv-x="1031" 
d="M52 442h116q-1 11 -1 23v24v29.5t1 29.5h-109l4 104h114q13 93 43.5 166.5t82.5 125.5t126.5 79.5t175.5 27.5q33 0 72 -2t81 -8t84.5 -16.5t81.5 -27.5q3 -28 0 -63t-8.5 -70t-12.5 -66t-12 -51q-29 0 -52 0.5t-52 3.5l-14 154q-29 13 -60 21t-59 11.5t-50 4.5t-32 1
q-99 -2 -152 -71.5t-68 -219.5h338q4 -21 4 -51.5t-4 -52.5h-345v-43v-32.5t1 -30.5h333q3 -22 3 -52.5t-3 -51.5h-322q22 -122 90.5 -177t199.5 -55q46 0 90.5 10.5t80.5 23t59 23.5t25 12l43 -90q-8 -6 -36.5 -24.5t-74.5 -38.5t-106.5 -35.5t-132.5 -15.5t-140 15
t-124 56t-96.5 112t-57.5 184h-130z" />
    <glyph glyph-name="ff" unicode="&#xfb00;" horiz-adv-x="1394" 
d="M81 88q35 8 71 13t78 10v742h-149q-2 12 -2.5 21.5t0 18.5t2 18.5t4.5 22.5l145 16v227q0 81 22.5 156t69.5 133.5t121 93.5t177 35q48 0 98.5 -7t98.5 -19t90 -27t74 -31q48 44 114 70.5t155 26.5q73 0 127 -11.5t105 -36.5l-61 -133q-3 2 -21.5 9.5t-48 16.5t-66.5 16
t-77 8q-49 0 -83 -12t-55.5 -44t-31.5 -88.5t-10 -146.5v-236h298q4 -26 4 -48t-4 -49h-298v-742q61 -4 112 -9.5t101 -13.5q6 -44 0 -88h-522l-8 88q35 8 71 13t78 10v742h-463v-742q61 -4 112 -9.5t100 -13.5q7 -44 0 -88h-521zM860 950v239q0 49 8 96.5t25 92.5
q-21 13 -50.5 28.5t-64.5 29t-75.5 22t-82.5 8.5q-60 0 -102.5 -12t-69 -44t-39 -88.5t-12.5 -146.5v-225h463z" />
    <glyph glyph-name="fi" unicode="&#xfb01;" horiz-adv-x="1222" 
d="M68 88q35 8 71.5 13t77.5 10v742h-149q-2 12 -2.5 21.5t0.5 18.5t2.5 18.5t4.5 22.5l144 16v205q0 98 26.5 181t79 143.5t130.5 94.5t181 34q59 0 117.5 -11.5t107 -27t82.5 -32t45 -26.5l-69 -135q-21 13 -55.5 30.5t-76 33t-87 26.5t-89.5 11q-60 0 -102.5 -12
t-69.5 -44t-39.5 -88.5t-12.5 -146.5v-236h587l25 -26v-818q41 -5 78 -9t78 -12q9 -42 0 -85h-481l-8 85q43 8 89 13t77 8v747h-445v-742q30 -2 55.5 -4t49 -5t46.5 -6.5t48 -7.5q7 -44 0 -88h-508z" />
    <glyph glyph-name="fl" unicode="&#xfb02;" horiz-adv-x="1310" 
d="M68 88q35 8 71.5 13t77.5 10v735h-149q-4 25 -2 43.5t7 44.5l144 16v239q0 81 25 156.5t79 134t138 93.5t202 35q143 0 249.5 -21.5t183.5 -64.5v-1414q41 -5 79 -9t79 -11q9 -44 0 -88h-494l-7 88q41 8 87.5 11.5t88.5 8.5v1313q-35 20 -81.5 32.5t-88.5 19t-71.5 9
t-31.5 2.5q-93 0 -146.5 -13t-81 -46.5t-34.5 -91t-7 -147.5v-236h298q7 -51 0 -104h-298v-735q30 -2 65 -4t70 -5t67.5 -6.5t57.5 -7.5q7 -44 0 -88h-569z" />
    </font>
</defs>
</svg>
