<?xml version="1.0" standalone="no"?>
<!DOCTYPE svg PUBLIC "-//W3C//DTD SVG 1.1//EN" "http://www.w3.org/Graphics/SVG/1.1/DTD/svg11.dtd" >
<svg xmlns="http://www.w3.org/2000/svg" xmlns:xlink="http://www.w3.org/1999/xlink" version="1.1">
<metadata>
Created by FontForge 20170924 at Sun Dec 18 00:39:23 2011
 By Glenn,,,
Copyright (c) 2011 TypeSETit, LLC (typesetit@att.net), with Reserved Font Name "Italianno"
</metadata>
<defs>
<font id="Italianno-Regular" horiz-adv-x="294" >
  <font-face 
    font-family="Italianno"
    font-weight="400"
    font-stretch="normal"
    units-per-em="1000"
    panose-1="2 0 5 4 6 0 0 2 0 3"
    ascent="800"
    descent="-200"
    x-height="264"
    cap-height="543"
    bbox="-463.585 -450 1263.8 800"
    underline-thickness="15"
    underline-position="-102"
    stemh="28"
    stemv="50"
    unicode-range="U+0009-FB06"
  />
<missing-glyph horiz-adv-x="169" 
 />
    <glyph glyph-name=".notdef" horiz-adv-x="169" 
 />
    <glyph glyph-name="exclam" unicode="!" horiz-adv-x="295" 
d="M139 42c10 -6 21 -14 33 -12c10 2 13 -3 2 -13c-12 -10 -26 -24 -37 -23c-15 1 -28 12 -36 22c-3 3 35 28 38 26zM413 556c-8 -6 -36 -57 -40 -64c-79 -154 -168 -332 -178 -354c-4 -8 -28 -19 -27 -11c10 25 97 253 139 360c6 17 15 44 19 53c17 4 52 12 79 34
c4 3 12 -15 8 -18z" />
    <glyph glyph-name="quotedbl" unicode="&#x22;" horiz-adv-x="168" 
d="M211 608c-16 -48 -54 -114 -80 -163c-11 -20 -30 -22 -24 -6c17 44 28 94 37 134c-1 15 71 49 67 35zM316 608c-15 -48 -53 -114 -80 -163c-10 -20 -30 -22 -24 -6c17 44 28 94 37 134c-1 15 72 49 67 35z" />
    <glyph glyph-name="numbersign" unicode="#" horiz-adv-x="579" 
d="M575 345c6 0 -24 -37 -35 -36c-12 1 -56 3 -102 4l-59 -90c58 0 115 1 131 2c6 0 -24 -37 -35 -36c-13 1 -65 2 -115 3c-39 -61 -73 -116 -91 -147c-4 -7 -28 -6 -25 1c11 30 41 85 77 147c-29 1 -55 1 -68 1h-74c-39 -62 -73 -118 -92 -149c-4 -7 -27 -6 -25 1
c10 27 40 83 78 148c-51 -1 -103 -2 -127 -4c-6 0 24 38 35 36c12 -2 61 -3 109 -4c18 31 38 62 58 92c-54 0 -111 -1 -137 -3c-7 -1 23 37 34 36c14 -2 70 -4 122 -4c45 68 90 129 120 157c3 3 41 -9 39 -10c-30 -28 -72 -84 -116 -148h43c21 0 56 0 95 1
c45 68 90 128 120 157c4 3 42 -9 40 -10c-30 -28 -72 -83 -116 -147c53 1 101 2 116 2zM396 314c-34 0 -64 1 -78 1h-60c-21 -31 -41 -62 -61 -93h142c18 30 37 61 57 92z" />
    <glyph glyph-name="dollar" unicode="$" horiz-adv-x="313" 
d="M306 511c3 7 25 14 23 7l-23 -58c29 -3 53 -14 53 -51c0 -22 -9 -47 -18 -66c-6 -11 -23 -19 -20 -6c4 18 8 45 1 65c-6 14 -15 24 -27 29l-47 -129c12 -14 24 -26 32 -37c18 -24 27 -49 27 -73c0 -74 -73 -129 -145 -130c-14 -39 -25 -72 -32 -96c-1 -2 -40 -19 -39 -15
c8 26 22 66 39 113c-45 7 -80 33 -80 83c0 30 10 60 39 78c7 4 12 -3 9 -6c-4 -5 -9 -14 -12 -22c-7 -22 -5 -45 5 -64c11 -22 28 -37 48 -45c19 52 42 111 65 168c-39 44 -64 109 -6 167c23 23 54 38 85 38h2c9 20 16 37 21 50zM223 236l-55 -155c9 0 18 0 27 2
c32 6 64 38 64 81c0 22 -11 47 -36 72zM230 322c16 42 32 81 45 114c-37 3 -78 -30 -69 -75c3 -12 12 -25 24 -39z" />
    <glyph glyph-name="percent" unicode="%" horiz-adv-x="632" 
d="M72 -25c123 155 388 458 556 575c-106 -16 -194 -14 -259 0c45 -15 8 -83 -6 -106c-19 -32 -69 -95 -120 -130c-20 -14 -43 -23 -61 -23c-65 0 -44 81 -28 114c7 15 16 30 25 44c9 15 71 100 93 100c6 0 17 -3 16 -11c-1 -10 -52 -68 -90 -123c-7 -12 -70 -113 -14 -113
c13 0 30 11 40 19c53 40 111 126 118 185c3 26 -4 51 -32 61c7 7 16 13 27 10c62 -18 136 -17 205 -13c56 3 133 18 180 31c29 -3 -7 -53 -32 -57c-171 -117 -479 -445 -586 -566c-8 -9 -40 -7 -32 3zM629 212c-3 -23 -15 -48 -28 -70c-19 -31 -69 -94 -119 -129
c-21 -14 -44 -23 -62 -23c-64 0 -44 81 -28 114c7 15 16 30 25 44c9 15 71 100 93 100c6 0 18 -3 17 -11c-1 -10 -53 -69 -90 -123c-8 -12 -70 -113 -15 -113c13 0 30 11 40 19c53 39 111 126 118 185c3 26 -4 51 -31 61c-11 2 -4 10 0 10c34 0 85 -22 80 -64z" />
    <glyph glyph-name="ampersand" unicode="&#x26;" horiz-adv-x="608" 
d="M795 -5c-84 -116 -167 -158 -266 -19c-18 25 -37 58 -56 92c-21 -22 -42 -40 -74 -60c-114 -72 -215 -57 -261 -5c-21 23 -31 54 -26 87c6 42 33 78 64 105c55 48 123 78 185 114l1 1c-10 33 -14 68 -7 104c22 98 151 84 133 6c-10 -39 -59 -79 -92 -102
c10 -25 32 -70 53 -112h134c19 0 40 -1 50 7c2 2 7 1 4 -4l-18 -27c-5 -9 -8 -8 -29 -6l-53 6c-5 -24 -18 -55 -33 -77c24 -41 49 -81 69 -108c98 -127 164 -56 215 10c8 11 15 -1 7 -12zM464 85c-12 23 -32 60 -53 104c-41 -2 -111 -16 -107 -67c0 -9 6 -27 8 -31l-8 -6
c-10 17 -30 48 -31 60s-2 32 14 45c22 19 75 19 115 17c-12 29 -25 60 -37 91l-9 -6c-52 -32 -115 -70 -153 -118c-29 -36 -49 -98 -13 -136c42 -42 140 -34 198 -12c28 11 54 33 76 59zM475 426c13 56 -74 67 -91 -9c-7 -31 3 -71 8 -88c38 27 74 62 83 97zM523 184
c-21 2 -43 4 -65 5l35 -65c12 18 23 42 30 60z" />
    <glyph glyph-name="quotesingle" unicode="'" horiz-adv-x="106" 
d="M211 608c-16 -48 -54 -114 -80 -163c-11 -20 -30 -22 -24 -6c17 44 28 94 37 134c-1 15 71 49 67 35z" />
    <glyph glyph-name="parenleft" unicode="(" horiz-adv-x="268" 
d="M602 633c-233 -39 -495 -280 -490 -541c1 -53 26 -128 98 -121l18 4c12 1 6 -15 -10 -20c-96 -31 -167 16 -169 123c-1 89 27 179 69 254c71 125 223 242 366 292c37 13 74 22 111 25c7 1 14 -15 7 -16z" />
    <glyph glyph-name="parenright" unicode=")" horiz-adv-x="507" 
d="M-42 -29c233 38 496 279 491 541c-1 53 -26 127 -98 121l-19 -4c-12 -1 -6 15 11 20c95 30 166 -17 168 -123c2 -89 -26 -179 -69 -254c-71 -126 -222 -242 -366 -292c-36 -13 -74 -22 -111 -25c-6 -1 -13 15 -7 16z" />
    <glyph glyph-name="asterisk" unicode="*" horiz-adv-x="507" 
d="M449 354l-48 -51l-113 98l-4 -2l-30 -165h-62l70 165l-3 2l-173 -98l-16 51l184 66v2l-143 67l47 51l113 -99l4 2l31 166h62l-71 -166l3 -2l174 100l16 -51l-184 -68l-1 -2z" />
    <glyph glyph-name="plus" unicode="+" horiz-adv-x="326" 
d="M350 359c-11 -23 -40 -84 -62 -134c58 0 136 2 160 3c6 0 -24 -37 -35 -36c-21 1 -91 4 -137 5l-1 -4c-16 -38 -45 -107 -50 -131c-3 -11 -59 -27 -55 -21c23 43 51 110 71 156c-47 0 -111 0 -155 -4c-6 0 24 38 35 36c23 -4 92 -4 131 -4c16 40 36 93 42 114
c4 10 58 26 56 20z" />
    <glyph glyph-name="comma" unicode="," horiz-adv-x="129" 
d="M120 21c-10 -49 -34 -75 -71 -101c-8 -5 -15 -8 -13 0c1 3 0 4 8 11c22 19 35 46 36 61c1 16 -8 31 -25 35l4 11c7 1 22 9 27 13c6 4 12 12 15 12c21 -3 24 -21 19 -42z" />
    <glyph glyph-name="hyphen" unicode="-" horiz-adv-x="249" 
d="M242 171c4 0 -15 -28 -22 -27c-16 1 -33 4 -59 4c-31 0 -55 0 -85 -3c-4 -1 15 28 22 27c15 -3 40 -3 65 -4c35 0 61 2 79 3z" />
    <glyph glyph-name="period" unicode="." horiz-adv-x="149" 
d="M72 42c10 -6 21 -14 33 -12c9 2 12 -3 2 -13c-12 -10 -26 -24 -38 -23c-14 1 -28 12 -36 22c-2 3 36 28 39 26z" />
    <glyph glyph-name="slash" unicode="/" horiz-adv-x="377" 
d="M0 -25c148 206 404 530 502 635c4 5 72 3 69 0c-89 -94 -441 -517 -528 -636c-6 -9 -49 -8 -43 1z" />
    <glyph glyph-name="zero" unicode="0" horiz-adv-x="368" 
d="M319 442c142 0 82 -273 -19 -367c-22 -20 -44 -33 -67 -55c-21 -20 -59 -28 -80 -28c-158 0 -77 280 20 369c22 20 50 41 72 60c18 15 53 21 74 21zM316 146c47 106 58 223 -12 252c-63 26 -117 -33 -152 -116c-45 -103 -57 -216 8 -248c56 -28 114 16 156 112z" />
    <glyph glyph-name="one" unicode="1" horiz-adv-x="243" 
d="M292 438c-25 -50 -44 -105 -71 -192l-15 -49c-17 -51 -39 -126 -43 -153c-5 -32 54 -35 67 -34l-11 -12c-11 3 -64 7 -94 8c0 0 -26 -1 -117 -8l9 13c16 -4 72 1 90 33c13 25 44 120 55 154l34 105c21 67 15 70 5 75c-7 4 -26 -9 -45 -24c-14 -10 -27 -22 -33 -25l8 27
c19 12 45 26 77 46c16 11 52 33 75 47c14 9 15 1 9 -11z" />
    <glyph glyph-name="two" unicode="2" horiz-adv-x="331" 
d="M400 332c-8 -27 -26 -51 -46 -73c-58 -62 -176 -148 -243 -200c-29 -22 -16 -22 -7 -23c54 -4 141 -6 172 12c20 11 53 49 60 64l9 -3c-3 -4 -29 -43 -40 -67c-13 -28 -28 -44 -60 -42c-33 2 -90 4 -118 2c0 0 -34 -2 -106 -7c30 26 92 81 160 146c51 48 151 138 171 202
c14 44 -11 78 -67 77c-21 0 -46 -6 -62 -16c-14 -9 -32 -34 -37 -52c-3 -10 -9 -36 -8 -40l-21 -11c7 23 22 92 23 105c0 10 11 17 18 20c13 5 50 11 76 12l22 1c30 1 55 -2 73 -10c39 -17 44 -58 31 -97z" />
    <glyph glyph-name="three" unicode="3" horiz-adv-x="314" 
d="M383 350c-14 -44 -56 -79 -116 -99c-27 -9 -9 -10 4 -12c31 -3 57 -13 68 -40c16 -37 -19 -112 -40 -138c-30 -37 -74 -64 -143 -69c-29 -2 -89 0 -113 14c-5 3 -13 10 -8 20c6 12 20 58 26 81l22 9c-3 -4 -10 -29 -13 -39c-4 -18 2 -42 12 -51c12 -12 37 -17 60 -16
c82 3 128 64 146 123c30 91 -55 98 -126 98c7 8 13 16 13 16l18 3c44 9 122 29 142 93c14 44 -10 78 -67 77c-21 0 -46 -6 -61 -16c-15 -9 -33 -34 -38 -52c-3 -10 -9 -36 -8 -40l-21 -11c7 23 22 92 23 105c0 10 11 17 18 20c13 5 50 11 76 12l22 1c30 1 55 -2 73 -10
c35 -16 40 -50 31 -79z" />
    <glyph glyph-name="four" unicode="4" horiz-adv-x="403" 
d="M433 235c-3 -4 -31 -42 -42 -66c-14 -28 -30 -45 -65 -42c-9 0 -19 1 -29 1c-10 -35 -19 -68 -22 -84c-4 -32 54 -35 68 -34l-12 -12c-10 3 -64 7 -94 8c0 0 -26 -1 -116 -8l9 13c15 -4 71 1 89 33c8 14 21 50 33 85h-57s-62 -2 -134 -6c-25 -2 -14 5 -4 12
c22 14 58 56 86 85l117 123c39 41 58 72 73 77c31 10 83 42 72 18c-26 -50 -44 -105 -72 -192l-15 -49l-11 -33c23 2 42 5 51 11c22 11 58 49 65 63zM322 383c-27 -18 -157 -162 -194 -202c-11 -12 -8 -17 5 -18c31 -2 83 -4 129 -2c5 15 10 28 12 37l34 105
c13 40 23 73 14 80z" />
    <glyph glyph-name="five" unicode="5" horiz-adv-x="331" 
d="M419 435c16 -1 -13 -40 -22 -60c0 0 -14 -36 -23 -53l-14 3c12 18 23 45 23 45c8 14 9 29 -28 29c-18 0 -94 0 -115 -2c-12 -1 -21 -5 -26 -14c-18 -35 -56 -114 -66 -136c23 12 67 19 91 19c98 0 129 -44 102 -128c-28 -90 -98 -140 -185 -146c-29 -2 -88 0 -113 14
c-5 3 -13 10 -8 20c6 12 20 58 26 81l22 9c-3 -4 -10 -29 -13 -39c-4 -18 2 -42 12 -51c12 -12 37 -17 60 -16c74 3 127 61 145 120c10 32 12 66 -5 86c-13 16 -36 24 -62 24c-30 0 -65 -5 -94 -15c-15 -5 -12 -3 -1 18c21 43 44 101 51 118l25 64c7 17 15 8 30 8
c68 1 180 2 188 2z" />
    <glyph glyph-name="six" unicode="6" horiz-adv-x="336" 
d="M415 418c-6 -11 -19 -52 -24 -72l-18 -8c2 4 9 25 12 34c4 16 -1 36 -9 44c-10 9 -24 12 -40 12c-71 0 -139 -74 -169 -136c-11 -22 -22 -48 -27 -69c21 16 45 25 61 36c15 9 47 13 67 13c132 0 105 -168 20 -225c-19 -12 -37 -20 -58 -34c-17 -12 -52 -17 -71 -17
c-121 0 -107 121 -73 217c41 113 128 233 258 233c24 0 47 -3 64 -12c5 -2 12 -8 7 -16zM304 186c-9 45 -53 73 -109 49c-27 -12 -50 -35 -63 -63c-30 -60 -30 -127 32 -146c27 -8 52 -5 75 7c60 33 75 107 65 153z" />
    <glyph glyph-name="seven" unicode="7" horiz-adv-x="310" 
d="M436 431c-58 -65 -319 -372 -327 -431c-29 6 -57 -3 -59 2c3 22 302 346 306 381c1 9 -6 13 -17 14c-20 2 -98 2 -116 2c-37 0 -48 -10 -56 -25c0 0 -17 -27 -22 -45l-18 -3c9 17 27 49 27 49c11 20 22 59 39 60c9 0 140 -1 208 -2c15 0 48 13 35 -2z" />
    <glyph glyph-name="eight" unicode="8" horiz-adv-x="351" 
d="M376 357c-16 -49 -75 -91 -120 -118c40 -30 73 -59 53 -122c-25 -78 -105 -126 -179 -126c-54 0 -105 27 -86 89c20 63 84 106 138 136c-38 26 -59 54 -41 111c21 69 97 122 161 122c56 0 94 -29 74 -92zM346 361c14 43 -10 72 -50 72c-47 0 -87 -33 -102 -81
c-16 -52 17 -80 48 -103c38 24 91 71 104 112zM248 93c18 59 -13 86 -51 113c-47 -30 -94 -67 -110 -118c-14 -45 -1 -78 46 -78c51 0 98 31 115 83z" />
    <glyph glyph-name="nine" unicode="9" horiz-adv-x="336" 
d="M373 230c-40 -113 -127 -234 -258 -234c-24 0 -46 3 -64 12c-4 3 -11 8 -6 17c5 11 19 51 24 71l18 8c-3 -3 -9 -24 -12 -34c-4 -15 1 -35 9 -43c10 -9 24 -12 40 -12c71 0 138 74 169 136c10 22 22 47 27 68c-21 -15 -45 -25 -61 -35c-15 -9 -48 -13 -68 -13
c-132 0 -104 167 -19 224c18 13 37 21 57 34c18 12 52 17 72 17c121 0 107 -120 72 -216zM328 270c30 61 30 127 -32 146c-52 16 -100 -9 -129 -66c-31 -62 -30 -130 36 -147c51 -14 101 19 125 67z" />
    <glyph glyph-name="colon" unicode=":" horiz-adv-x="154" 
d="M169 294c10 -6 21 -14 33 -12c10 2 13 -3 2 -13c-12 -10 -26 -24 -38 -23c-14 0 -27 12 -35 21c-3 3 35 28 38 27zM97 44c10 -6 21 -14 33 -12c10 1 13 -3 2 -13c-12 -11 -26 -24 -37 -24c-15 1 -28 13 -36 22c-3 3 35 28 38 27z" />
    <glyph glyph-name="semicolon" unicode=";" horiz-adv-x="154" 
d="M133 5c-11 -49 -44 -87 -82 -113c-7 -5 -14 -8 -14 -8l2 8c1 3 0 4 8 11c22 19 40 44 46 73c3 16 -8 31 -25 35l4 11c7 1 21 9 27 13c5 4 11 12 15 12c20 -3 24 -21 19 -42zM183 294c10 -6 21 -14 33 -12c9 2 12 -3 2 -13c-12 -10 -27 -24 -38 -23c-15 0 -28 12 -36 21
c-2 3 35 28 39 27z" />
    <glyph glyph-name="less" unicode="&#x3c;" horiz-adv-x="293" 
d="M326 369c0 -7 -2 -16 -6 -23c-23 -29 -134 -103 -165 -121c-4 -3 -4 -6 -2 -8c25 -17 58 -42 82 -67c10 -10 54 -50 37 -68c-2 -3 -26 -23 -29 -30h-6c1 13 -7 22 -13 30c-33 46 -90 94 -136 118l5 17c81 44 158 96 233 152z" />
    <glyph glyph-name="equal" unicode="=" horiz-adv-x="344" 
d="M357 160c6 0 -24 -37 -35 -36c-25 2 -76 5 -116 5c-48 0 -98 0 -145 -4c-6 0 24 38 35 36c23 -3 73 -4 112 -4c55 0 120 2 149 3zM382 281c6 0 -24 -37 -35 -36c-25 2 -76 5 -116 5c-48 0 -98 0 -145 -4c-6 -1 24 38 35 36c23 -4 73 -4 112 -5c55 0 120 3 149 4z" />
    <glyph glyph-name="greater" unicode="&#x3e;" horiz-adv-x="293" 
d="M300 217l-2 -17c-56 -24 -134 -72 -186 -118c-10 -8 -22 -17 -26 -30h-6c0 7 -15 27 -17 30c-8 18 53 58 67 68c34 25 78 50 110 67c3 2 5 5 1 8c-23 18 -102 92 -113 121c-1 7 1 16 4 23c50 -56 106 -108 168 -152z" />
    <glyph glyph-name="question" unicode="?" horiz-adv-x="434" 
d="M478 465c-24 -134 -203 -128 -268 -229c-28 -43 -39 -83 -19 -106l-11 -15c-15 16 -23 36 -25 61c-2 37 27 74 55 96l166 132c53 43 53 113 2 135c-31 14 -87 7 -119 -16c-19 -13 -47 -61 -55 -94c0 -12 -22 -22 -20 -9c7 30 19 88 18 104c0 13 14 22 22 26
c16 8 62 16 93 18l28 2c95 8 148 -22 133 -105zM139 42c10 -6 21 -14 33 -12c10 2 13 -3 2 -13c-12 -10 -26 -24 -37 -23c-15 1 -28 12 -36 22c-3 3 35 28 38 26z" />
    <glyph glyph-name="at" unicode="@" horiz-adv-x="694" 
d="M422 364c0 14 -11 19 -24 19c-21 0 -48 -21 -63 -35c-31 -29 -100 -140 -100 -182c0 -6 2 -12 9 -12c40 0 178 168 178 210zM380 162c-3 -54 244 1 244 189c0 114 -103 157 -209 156c-172 0 -342 -136 -344 -321c0 -109 86 -184 196 -184c102 0 195 31 265 106
c29 30 41 -7 12 -32c-82 -74 -164 -89 -277 -89c-124 0 -249 53 -249 199c2 215 198 347 399 344c137 -2 273 -56 264 -187c-11 -159 -159 -224 -329 -224c-14 0 -24 5 -24 20c0 26 25 73 39 96c-23 -25 -48 -49 -74 -70c-25 -22 -55 -44 -90 -44c-14 0 -18 9 -18 21v8
c10 77 73 172 134 220c22 16 48 26 75 26l115 -1c2 0 5 -1 5 -4c0 -4 -5 -8 -9 -8c-15 0 -29 -22 -36 -32c-19 -31 -87 -149 -89 -189z" />
    <glyph glyph-name="A" unicode="A" horiz-adv-x="768" 
d="M679 276c0 0 -16 -41 -57 -44c-46 -3 -93 -3 -138 -1c-124 -128 -270 -256 -397 -256c-41 0 -71 24 -66 72c1 17 10 37 19 56c11 22 17 14 13 6c-31 -63 -5 -92 43 -92c97 0 234 107 351 216c-52 2 -99 6 -133 6c-30 0 -79 -3 -101 -25c-12 -12 -23 -42 -16 -63
c-5 2 -24 1 -28 16c-9 40 39 55 71 69c44 19 91 32 139 32c25 0 61 -1 102 -3c63 61 118 119 152 155c47 49 100 86 155 101h-55c-71 0 -166 -6 -213 -46c-33 -29 -39 -73 -19 -86c5 -3 -11 -12 -16 -9c-13 9 -26 45 -23 63c15 104 205 102 285 102h109c1 0 2 0 1 -1
c33 15 73 33 100 33c10 0 24 -10 11 -13c-21 -3 -31 7 -63 -26c-46 -46 -163 -255 -219 -380c-8 -19 -77 -174 1 -143c17 7 36 21 54 38c35 33 61 70 66 77c7 10 16 3 8 -8c-15 -20 -68 -97 -125 -122c-34 -15 -81 -14 -90 33c-8 41 16 103 31 135c54 114 158 305 200 362
c-32 -1 -105 -40 -157 -93c-42 -43 -97 -107 -159 -174c30 -1 61 -2 92 -2c21 0 49 4 72 15z" />
    <glyph glyph-name="B" unicode="B" horiz-adv-x="562" 
d="M572 499c28 -44 7 -105 -21 -141c-12 -15 -28 -30 -48 -43c-20 -14 -42 -25 -74 -32c-2 0 -3 -6 0 -6c6 -1 26 -3 40 -6c46 -10 82 -40 82 -90c0 -87 -77 -152 -153 -180c-32 -12 -69 -18 -110 -18c-49 0 -106 8 -150 31c-17 9 -31 15 -59 1c-14 -6 -36 -24 -62 -33
c-13 -3 -23 4 -17 8c29 5 50 23 64 48c28 47 55 94 80 142l96 177c31 55 55 111 68 134c9 17 36 32 59 40c-77 4 -232 -11 -259 -61c-14 -26 -13 -57 6 -69c5 -2 -4 -10 -9 -7c-12 7 -34 40 -38 57c-26 95 111 93 167 93c42 0 102 1 149 1c55 1 155 7 189 -46zM522 401
c21 58 8 119 -50 127c-24 3 -75 1 -94 -23c-51 -66 -94 -164 -132 -238c-31 -60 -63 -122 -94 -184c-13 -27 -4 -45 19 -62c49 -36 131 -25 184 -5c73 28 138 92 138 180c0 85 -112 76 -168 65c-18 -3 -36 -7 -50 -11c-9 3 17 22 28 31c3 3 14 11 19 11c98 0 164 8 200 109z
" />
    <glyph glyph-name="C" unicode="C" horiz-adv-x="527" 
d="M586 468c-5 -21 -31 -50 -41 -79c-2 -6 -22 -11 -19 -5c18 29 25 88 6 118c-28 47 -117 33 -162 16c-39 -14 -77 -37 -111 -66c-94 -83 -162 -212 -162 -315c0 -169 195 -156 307 -113c70 27 126 63 175 124c10 12 16 1 2 -18c-46 -61 -104 -101 -169 -128
c-124 -51 -374 -58 -374 133c0 130 82 256 186 335c61 46 147 79 227 79c33 0 61 -3 92 -18c30 -14 49 -35 43 -63z" />
    <glyph glyph-name="D" unicode="D" horiz-adv-x="626" 
d="M684 371c0 -69 -30 -147 -68 -204c-82 -123 -194 -183 -342 -183c-46 0 -95 9 -136 30c-10 5 -19 9 -30 9c-35 0 -69 -42 -98 -42c-3 0 -12 2 -12 6c0 1 2 3 2 3c13 4 0 -1 13 3c23 8 39 24 51 45c63 104 118 212 176 319c16 28 30 58 45 87c7 16 14 32 23 47
c11 19 38 33 59 40h-24c-53 0 -207 -9 -235 -61c-6 -11 -10 -23 -10 -35c0 -27 18 -33 18 -36s-5 -6 -8 -6c-12 0 -38 47 -41 58c-2 7 -3 14 -3 22c0 71 115 71 164 71c67 0 133 5 199 5c124 0 257 -26 257 -178zM623 365c0 104 -70 163 -172 163c-25 0 -56 -3 -73 -23
c-18 -21 -33 -48 -47 -72c-31 -54 -57 -111 -85 -166l-65 -127c-10 -19 -20 -38 -29 -57c-3 -7 -6 -14 -6 -23c0 -17 13 -29 25 -39c25 -19 61 -23 91 -23c150 0 275 94 331 231c17 43 30 90 30 136z" />
    <glyph glyph-name="E" unicode="E" horiz-adv-x="478" 
d="M551 439c-6 -11 -23 -18 -20 -6c8 34 12 81 -26 93c-18 6 -66 5 -107 3c-29 -2 -44 -8 -54 -21c-44 -62 -85 -137 -122 -201c-3 -8 0 -11 8 -11c46 0 106 -2 147 -1c13 1 58 4 75 13c23 14 -4 -43 -40 -43c-83 0 -119 6 -202 3c-7 -1 -11 -3 -14 -8
c-13 -24 -21 -41 -36 -68c-16 -31 -49 -93 -49 -129c0 -41 44 -54 100 -55c115 0 233 31 307 125c5 7 10 -7 6 -12c-41 -51 -79 -106 -118 -118c-44 -13 -185 -21 -302 -8c-66 6 -89 32 -55 94c51 92 105 183 157 275c16 29 43 78 69 118c12 19 37 41 61 47
c-57 -3 -189 -6 -217 -59c-14 -26 -13 -57 6 -69c4 -2 -4 -10 -9 -7c-12 7 -34 40 -38 57c-26 95 110 93 167 93c97 0 195 7 292 1c77 -4 35 -67 14 -106z" />
    <glyph glyph-name="F" unicode="F" horiz-adv-x="582" 
d="M753 439c-5 -11 -23 -18 -20 -6c9 34 12 81 -25 93c-39 13 -126 8 -161 -18c-42 -32 -88 -139 -117 -201c-3 -8 -1 -11 8 -11c27 0 101 -1 141 -1c38 0 58 -3 43 -32c-10 -21 -23 -35 -29 -51c-2 -6 -18 -12 -15 -6c9 21 24 62 -1 62h-156c-7 0 -11 -3 -14 -8
c-39 -78 -81 -174 -140 -237c-34 -36 -80 -61 -126 -61c-41 0 -83 23 -101 71c-7 17 -8 38 -8 57c0 10 -3 32 9 32c1 0 2 0 2 -2c0 -8 -1 -16 -1 -24c0 -63 35 -96 82 -96s91 31 129 72c53 58 151 276 207 386c21 41 64 64 89 74c-14 0 -87 -3 -117 -5
c-77 -5 -163 -21 -189 -59c-19 -29 -6 -66 21 -79c6 -3 -6 -12 -13 -9c-17 9 -47 45 -53 63c-37 104 160 105 239 105c136 0 206 3 302 -3c77 -4 36 -67 14 -106z" />
    <glyph glyph-name="G" unicode="G" horiz-adv-x="576" 
d="M655 273l-11 -12c-19 0 -44 -4 -59 -23c-29 -38 -41 -85 -57 -137c-41 -142 -62 -280 -181 -383c-43 -36 -115 -66 -169 -66c-51 0 -113 21 -136 69c-9 17 -10 37 -10 56c0 10 -3 32 12 32c1 0 2 0 2 -2c0 -8 -2 -16 -2 -25c0 -62 44 -94 103 -94c84 0 155 44 212 116
c84 103 113 198 156 307c-53 -78 -173 -143 -272 -143c-108 -1 -205 54 -205 167c0 130 82 256 186 335c61 46 147 79 227 79c33 0 61 -3 92 -18c30 -14 49 -35 43 -63c-5 -21 -31 -50 -41 -79c-2 -6 -22 -11 -19 -5c18 29 25 88 6 118c-28 47 -117 33 -162 16
c-39 -14 -77 -37 -111 -66c-94 -83 -162 -212 -162 -315c0 -105 68 -150 146 -150c163 -1 268 126 315 267h-103c-32 0 -133 -3 -128 -63c0 -9 3 -18 5 -22l-9 -6c-10 17 -26 39 -27 51c-1 11 -1 31 14 44c31 27 120 15 155 15h190z" />
    <glyph glyph-name="H" unicode="H" horiz-adv-x="770" 
d="M920 564c-21 -3 -32 7 -64 -26c-58 -58 -227 -375 -247 -456c-7 -31 -11 -72 34 -72c21 0 45 10 62 19c48 27 88 81 112 113c8 11 9 -6 4 -14c-25 -36 -67 -91 -122 -121c-20 -11 -45 -16 -70 -17c-54 -2 -94 50 -73 109c12 31 41 92 76 161c-13 -12 -32 -23 -48 -22
c-41 4 -89 4 -172 4h-48c-38 -76 -77 -155 -120 -201c-34 -36 -84 -61 -130 -61c-41 0 -83 24 -101 71c-7 17 -8 38 -8 57c0 10 -3 32 9 32c1 0 2 0 2 -2c0 -8 -1 -16 -1 -24c0 -63 35 -95 82 -95s91 30 129 71c30 33 60 89 92 151c-43 -1 -93 -3 -131 -9
c-24 -4 33 42 54 44l93 -3c29 53 57 111 81 159c19 39 62 88 106 97c-71 -3 -149 1 -217 -18c-31 -8 -57 -21 -67 -41c-14 -26 -9 -58 6 -69c4 -3 -4 -10 -9 -7c-12 7 -34 40 -38 57c-26 95 110 93 167 93c97 0 176 -2 213 4c19 4 8 -14 2 -14c-41 -4 -78 -38 -107 -89
c-13 -23 -61 -113 -92 -174c25 -1 43 -2 46 -2c46 0 106 -1 147 0c12 0 53 4 71 12c54 103 117 216 146 253c34 14 85 43 120 43c10 0 24 -10 11 -13z" />
    <glyph glyph-name="I" unicode="I" horiz-adv-x="365" 
d="M643 543l-13 -15c-13 0 -41 -2 -67 -7c-32 -5 -79 -37 -108 -86l-9 -15c-40 -90 -100 -269 -190 -365c-33 -36 -90 -65 -136 -65c-41 0 -83 23 -101 71c-7 17 -9 37 -9 56c0 22 11 14 11 6c0 -63 35 -95 82 -95s91 30 129 71c90 99 134 203 189 321c19 40 47 77 80 99
h-30c-39 0 -162 -4 -156 -77c1 -11 10 -34 12 -38l-10 -8c-12 21 -38 60 -40 75c-1 13 -1 38 17 54c38 32 146 17 189 17z" />
    <glyph glyph-name="J" unicode="J" horiz-adv-x="203" 
d="M414 545c9 1 -9 -15 -13 -15c-56 -3 -92 -72 -112 -113c-16 -31 -72 -157 -100 -222c-52 -121 -85 -210 -165 -296c-34 -36 -91 -66 -137 -66c-41 0 -82 24 -101 72c-7 17 -8 37 -8 56c0 22 10 14 10 6c0 -63 35 -95 83 -95c46 0 90 30 128 71c62 68 114 159 155 252
c15 33 57 144 91 217c30 67 35 87 108 116c-22 -1 -41 -4 -52 -4c-76 -2 -161 -11 -187 -49c-20 -29 -4 -73 23 -86c7 -3 -5 -12 -12 -9c-17 9 -48 45 -54 63c-36 104 155 102 235 102h108z" />
    <glyph glyph-name="K" unicode="K" horiz-adv-x="560" 
d="M794 498c0 -2 -1 -4 -4 -4c-10 0 -13 24 -46 24c-29 0 -68 -15 -95 -26c-54 -23 -115 -50 -167 -79c-71 -39 -157 -99 -215 -141c11 -30 49 -113 111 -188c91 -111 166 -26 224 51c9 13 16 2 6 -11c-96 -134 -177 -189 -270 -67c-65 86 -96 171 -110 197
c75 69 155 122 234 171c53 32 116 76 179 103c21 9 42 14 64 14c18 0 38 -3 55 -10c13 -4 36 -18 34 -34zM440 528c-31 8 -68 -18 -103 -79c0 0 -64 -108 -99 -173c-36 -67 -78 -146 -120 -230c-9 -17 -15 -46 -29 -43c-9 2 -24 3 -35 1c-16 -3 -29 -11 -44 -24
c-4 -4 -15 1 -11 4c30 24 47 44 70 82l14 24c67 112 190 335 190 335c36 63 84 94 117 103c-98 -2 -180 -9 -207 -58c-13 -26 -8 -58 7 -69c4 -3 -4 -10 -9 -7c-12 7 -34 40 -38 57c-26 95 110 93 167 93c17 0 86 -2 123 4c19 4 21 -23 7 -20z" />
    <glyph glyph-name="L" unicode="L" horiz-adv-x="547" 
d="M541 477c-4 -21 -29 -40 -40 -72c-3 -10 -18 -9 -12 2c26 40 27 128 -36 128c-35 0 -74 -18 -100 -67l-185 -341c-35 -64 -65 -87 -83 -94h187c78 0 178 -3 193 18c19 28 11 54 -17 67c-6 3 -1 12 6 8c17 -8 53 -53 59 -71c13 -37 -12 -59 -68 -59
c-113 0 -255 15 -364 20c-28 2 -59 -10 -73 -23c-6 -6 -11 26 12 28c56 3 107 62 124 104l92 230c38 94 85 191 204 191c49 0 113 -17 101 -69z" />
    <glyph glyph-name="M" unicode="M" horiz-adv-x="830" 
d="M577 545c9 1 -9 -15 -13 -15c-33 -7 -50 -33 -48 -95c0 0 5 -210 8 -293v-6l347 366c44 46 86 85 133 81c5 0 -3 -12 -11 -13c-35 1 -62 -31 -86 -70c-45 -74 -289 -536 -163 -485c17 7 40 21 58 38c35 33 65 76 70 82c7 10 13 -2 5 -13c-16 -20 -69 -97 -126 -122
c-34 -15 -84 -14 -94 33c-12 60 49 171 76 228c17 36 44 96 79 154l-288 -304c-2 -11 -9 -21 -26 -28c-10 -4 -30 -28 -35 -34c-2 -3 -13 1 -11 4c17 22 26 52 27 91l1 24c5 112 5 267 5 267c0 32 10 56 24 73c-23 -17 -46 -42 -60 -71c-40 -83 -101 -280 -197 -382
c-33 -36 -91 -65 -136 -65c-41 0 -83 23 -101 71c-7 17 -9 37 -9 56c0 22 11 14 11 6c0 -63 35 -95 82 -95c46 0 91 30 128 71c91 99 135 203 190 321c22 48 56 86 104 100l1 1h-55c-71 0 -163 -6 -190 -46c-20 -29 -4 -73 23 -86c7 -3 -5 -12 -12 -9c-17 9 -48 45 -54 63
c-36 104 155 102 235 102h108z" />
    <glyph glyph-name="N" unicode="N" horiz-adv-x="721" 
d="M942 586l-1 -36c0 -1 -10 -4 -9 -2c1 17 -19 24 -28 24c-83 2 -212 -363 -254 -464c-9 -20 -12 -37 -9 -53c0 -5 3 -12 4 -19c2 -8 -1 -14 -7 -19c-6 -4 -13 -8 -22 -12c-10 -4 -31 -27 -35 -33c-3 -4 -13 0 -11 3c9 12 15 26 20 41c-26 140 -84 305 -127 444
c-10 -7 -21 -40 -25 -52c-35 -92 -91 -253 -176 -353c-31 -38 -101 -65 -146 -65c-41 0 -83 23 -102 71c-6 17 -8 37 -8 56c0 22 10 14 10 6c0 -63 40 -109 88 -109c46 0 95 24 133 64c90 99 130 222 180 342c20 50 57 92 105 101h-55c-71 0 -163 -6 -191 -46
c-19 -29 -3 -73 24 -86c6 -3 -5 -12 -12 -9c-17 9 -48 45 -54 63c-36 104 155 102 234 102h121c9 1 -14 -31 -21 -30c-14 1 -48 -6 -59 -14c9 -101 64 -285 116 -415c53 126 144 429 223 503c31 29 96 36 94 -3z" />
    <glyph glyph-name="O" unicode="O" horiz-adv-x="594" 
d="M648 396c0 -211 -188 -408 -416 -408c-107 0 -225 27 -225 158c0 137 138 408 411 408c160 0 230 -50 230 -158zM591 405c0 83 -47 134 -171 134c-178 0 -360 -247 -360 -402c0 -84 45 -134 164 -134c205 0 367 216 367 402z" />
    <glyph glyph-name="P" unicode="P" horiz-adv-x="541" 
d="M575 499c65 -102 -40 -206 -128 -240c-58 -22 -144 -26 -182 -21c-8 1 11 21 19 20c75 -6 205 3 249 131c22 64 0 131 -58 139c-24 3 -75 1 -94 -23c-51 -66 -94 -164 -132 -238c-18 -34 -123 -218 -110 -249c4 -9 -7 -5 -12 -3c-12 3 -25 10 -45 0
c-14 -6 -35 -24 -62 -33c-13 -3 -23 4 -17 8c29 5 50 23 64 48c28 47 55 94 81 142c31 59 63 118 95 177c31 55 56 111 68 134c9 17 36 32 59 40c-77 4 -232 -11 -259 -61c-14 -26 -13 -57 6 -69c5 -2 -4 -10 -8 -7c-13 7 -34 40 -39 57c-26 95 111 93 168 93
c42 0 101 1 148 1c55 1 155 7 189 -46z" />
    <glyph glyph-name="Q" unicode="Q" horiz-adv-x="599" 
d="M669 -180c-41 -48 -192 -147 -256 -45c-42 68 -112 187 -128 216c-17 -2 -35 -3 -53 -3c-107 0 -225 27 -225 158c0 137 138 408 411 408c160 0 230 -50 230 -158c0 -180 -137 -351 -320 -396c19 -40 90 -144 130 -199c65 -90 181 3 203 27c6 7 14 -1 8 -8zM591 405
c0 83 -47 134 -171 134c-178 0 -360 -247 -360 -402c0 -84 45 -134 164 -134c205 0 367 216 367 402z" />
    <glyph glyph-name="R" unicode="R" horiz-adv-x="602" 
d="M644 115c-97 -134 -181 -194 -274 -73c-65 87 -96 171 -110 197c0 0 19 26 30 26c124 0 199 -5 243 124c22 64 0 131 -58 139c-24 3 -75 1 -94 -23c-51 -66 -94 -164 -132 -238c-18 -34 -123 -218 -110 -249c4 -9 -7 -5 -12 -3c-12 3 -25 10 -45 0
c-14 -6 -35 -24 -62 -33c-13 -3 -23 4 -17 8c29 5 50 23 64 48c28 47 55 94 81 142c31 59 63 118 95 177c31 55 56 111 68 134c9 17 36 32 59 40c-77 4 -232 -11 -259 -61c-14 -26 -13 -57 6 -69c5 -2 -4 -10 -8 -7c-13 7 -34 40 -39 57c-26 95 111 93 168 93
c42 0 101 1 148 1c55 1 155 7 189 -46c28 -44 18 -117 -12 -156c-13 -17 -29 -33 -50 -48c-52 -37 -143 -54 -207 -57c17 -38 53 -106 104 -169c91 -110 191 9 232 63c9 13 11 -5 2 -17z" />
    <glyph glyph-name="S" unicode="S" horiz-adv-x="451" 
d="M524 519c9 -13 6 -41 -2 -54c-12 -18 -30 -53 -33 -63c-3 -2 -16 -7 -19 -3c5 10 18 44 18 67c0 15 3 34 -14 48c-16 15 -41 27 -77 27c-92 0 -131 -80 -105 -140c30 -72 107 -128 137 -206c50 -130 -92 -229 -208 -229c-71 0 -162 29 -181 109c-10 47 14 103 46 127
c3 2 11 -8 6 -11c-33 -30 -18 -89 4 -121c31 -44 92 -73 147 -76c108 -6 159 85 122 183c-21 57 -62 112 -91 166c-25 48 -27 102 5 148c30 41 83 68 136 71c39 2 79 -10 109 -43z" />
    <glyph glyph-name="T" unicode="T" horiz-adv-x="432" 
d="M564 493c-60 -10 -94 -85 -118 -136c-29 -60 -44 -105 -72 -165c-28 -61 -56 -123 -100 -171c-34 -36 -80 -60 -126 -60c-41 0 -83 23 -101 71c-7 17 -9 38 -9 56c0 10 -2 33 10 33c1 0 2 -1 2 -2c0 -8 -1 -17 -1 -25c0 -63 35 -95 82 -95c46 0 91 30 129 71
c75 83 133 260 178 365c13 30 56 52 90 62l-26 3l-141 14c-68 6 -254 16 -299 -49c-18 -28 -4 -66 24 -80c6 -4 -5 -12 -12 -8c-18 9 -49 47 -56 65c-41 107 130 114 209 108c42 -3 90 -5 138 -9l159 -13c44 -4 199 -17 224 15c3 5 10 1 8 -3c-2 -8 -4 -13 -8 -18
c-7 -14 -16 -33 -39 -38c-26 -6 -91 2 -145 9z" />
    <glyph glyph-name="U" unicode="U" horiz-adv-x="611" 
d="M706 550c-30 -24 -46 -45 -70 -82c-56 -85 -152 -236 -184 -335c-22 -69 -27 -139 51 -125c25 4 60 32 90 62c29 27 47 49 71 79c1 -2 2 -6 2 -8c-1 -10 -7 -19 -13 -26c-9 -12 -29 -36 -52 -60c-26 -26 -94 -84 -143 -81c-103 7 -51 137 -19 220
c-28 -33 -59 -63 -90 -93c-32 -31 -65 -64 -99 -89c-33 -23 -69 -39 -107 -38c-67 1 -59 43 -43 85c17 43 37 84 58 124c42 82 132 244 132 336h-88c-40 0 -162 -4 -157 -77c1 -11 10 -34 13 -38l-11 -8c-12 21 -38 60 -39 75c-2 13 -2 38 17 54c38 32 145 17 189 17
c0 0 141 1 230 1l-13 -15c-24 0 -53 -5 -71 -28c-70 -91 -196 -347 -208 -452c-4 -39 40 -42 75 -23c79 40 166 141 217 213c53 76 106 171 142 250c9 17 15 45 30 43c8 -2 24 -3 35 -1c15 2 28 10 43 24c5 4 16 -1 12 -4z" />
    <glyph glyph-name="V" unicode="V" horiz-adv-x="538" 
d="M450 543l-21 -26h-70c29 -55 25 -185 23 -240c-3 -63 -19 -159 -41 -238c82 116 221 313 409 469c39 33 127 90 190 85c79 -6 30 -81 15 -116c-2 -4 -17 -6 -16 -1c7 24 18 81 -22 87c-42 6 -88 -21 -152 -73c-112 -89 -212 -199 -304 -316c-48 -60 -95 -121 -133 -187
c-3 -5 -4 -14 -7 -18c-5 -5 -38 -18 -44 -18c-11 0 -18 2 -17 13c0 4 5 14 7 18l17 56c19 73 36 146 45 219c7 60 26 194 10 261c-44 0 -88 1 -131 1c-40 0 -162 -4 -157 -77c1 -11 10 -34 13 -38l-11 -8c-12 21 -38 60 -39 75c-1 13 -2 38 17 54c38 32 145 17 189 17
c0 0 141 1 230 1z" />
    <glyph glyph-name="W" unicode="W" horiz-adv-x="892" 
d="M450 543l-21 -26c-40 0 -79 1 -119 1c82 -55 74 -186 72 -241c-3 -63 -19 -159 -41 -238c65 91 158 248 283 380c51 54 113 122 192 116c16 -1 31 -5 39 -10l-6 -11c-40 10 -98 -23 -124 -49c-103 -103 -74 -319 -104 -426c82 116 224 313 411 469c39 33 125 90 188 85
c79 -6 30 -81 15 -116c-2 -4 -17 -6 -16 -1c7 24 18 81 -22 87c-42 6 -86 -21 -149 -73c-112 -89 -215 -199 -307 -316c-48 -60 -95 -121 -133 -187c-3 -5 -4 -14 -7 -18c-5 -5 -38 -18 -44 -18c-11 0 -18 2 -17 13c0 4 5 14 7 18l17 56c32 118 16 270 83 370
c-27 -16 -77 -83 -147 -171c-47 -60 -124 -184 -162 -250c-3 -5 -4 -14 -7 -18c-5 -5 -48 -18 -54 -18c-11 0 -18 2 -17 13c0 4 5 14 7 18l17 56c19 73 36 146 45 219c7 61 11 196 -45 262h-76c-40 0 -162 -4 -157 -77c1 -11 10 -34 13 -38l-11 -8c-12 21 -38 60 -39 75
c-1 13 -2 38 17 54c38 32 145 17 189 17c0 0 141 1 230 1z" />
    <glyph glyph-name="X" unicode="X" horiz-adv-x="542" 
d="M736 449c-2 -4 -16 -7 -14 -1c6 24 16 81 -24 87c-21 3 -43 -2 -67 -15c-83 -41 -229 -185 -294 -248c-1 -2 -1 -4 -3 -6c9 -33 53 -170 88 -219c45 -62 120 35 163 90c14 17 12 -8 -1 -24c-63 -78 -159 -165 -215 -88c-31 43 -55 126 -71 200
c-116 -124 -228 -259 -338 -282c-42 -8 -73 8 -71 57c1 17 9 39 18 60c10 24 16 17 13 8c-29 -68 -1 -91 47 -81c93 19 214 138 326 259c-5 24 -8 47 -11 66c-11 81 -16 173 7 206c-27 1 -54 1 -81 1c-40 0 -162 -4 -157 -77c1 -11 10 -34 13 -38l-11 -8
c-12 21 -38 60 -39 75c-1 13 -2 38 17 54c38 32 145 17 189 17c0 0 141 1 230 1l-21 -26c-42 0 -85 1 -127 1c-6 -77 16 -179 28 -231c70 71 200 204 293 255c32 17 65 28 98 23c78 -12 30 -81 15 -116z" />
    <glyph glyph-name="Y" unicode="Y" horiz-adv-x="452" 
d="M718 545c13 -29 -5 -59 -10 -71c-2 -5 -9 -5 -8 0c8 31 -4 65 -35 67c-38 1 -88 -45 -126 -89c-104 -121 -155 -213 -231 -345c-43 -75 -100 -146 -191 -146c-41 0 -82 23 -101 71c-7 17 -8 38 -8 57c0 22 10 14 10 5c0 -62 35 -95 83 -95c88 0 160 83 210 155
c-7 -4 -17 -7 -20 -7c-6 0 -11 1 -10 8c0 2 3 8 4 11l11 34c21 80 47 249 -13 319h-24c-39 0 -162 -4 -156 -77c1 -11 10 -34 12 -38l-10 -8c-12 21 -38 60 -40 75c-1 13 -1 38 17 54c38 32 146 17 189 17c0 0 71 1 160 1l-21 -26c-57 0 -72 1 -109 2
c88 -59 64 -232 40 -317c62 87 115 183 186 264c33 38 93 108 152 106c17 -1 30 -8 39 -27z" />
    <glyph glyph-name="Z" unicode="Z" horiz-adv-x="453" 
d="M732 -89c55 -72 -11 -164 -92 -165c-107 0 -212 145 -276 218c-62 72 -107 136 -182 135c-62 0 -127 -40 -145 -100c-4 -16 -7 -31 -16 -43c-19 -26 -68 0 -42 42c89 143 410 403 554 519c-63 1 -126 2 -189 2c-39 0 -162 -4 -156 -77c1 -11 10 -34 12 -38l-10 -8
c-12 21 -38 60 -39 75c-2 13 -2 38 17 54c37 32 150 19 193 20h233c3 0 -1 -17 -5 -20c-168 -121 -334 -268 -483 -429c148 76 223 -1 332 -133c80 -96 172 -181 227 -180c70 2 76 63 42 118c-9 15 -20 27 -27 34c-2 3 11 11 13 10c14 -9 28 -20 39 -34z" />
    <glyph glyph-name="bracketleft" unicode="[" horiz-adv-x="362" 
d="M369 590c58 11 113 2 192 2l-47 -36c-40 9 -72 10 -99 8c-16 -1 -39 -13 -48 -30c-86 -154 -278 -555 -304 -606c55 -1 173 -4 240 3l-54 -31c-62 -6 -171 -4 -240 -4c94 203 204 456 303 657z" />
    <glyph glyph-name="backslash" unicode="\" horiz-adv-x="498" 
d="M509 -25c6 -9 -26 -11 -33 -3c-91 114 -345 472 -475 624c-3 3 58 19 62 14c110 -132 358 -505 446 -635z" />
    <glyph glyph-name="bracketright" unicode="]" horiz-adv-x="397" 
d="M137 -102c-58 -11 -113 -2 -192 -2l48 36c40 -9 71 -10 99 -8c15 1 38 13 48 30c86 154 278 555 303 606c-55 0 -173 3 -239 -3l53 31c62 6 171 4 240 4c-94 -203 -204 -457 -303 -657z" />
    <glyph glyph-name="asciicircum" unicode="^" horiz-adv-x="313" 
d="M314 255l-5 -6c-24 1 -99 51 -115 68c-13 -9 -96 -65 -104 -65c-3 0 -6 5 -5 8c1 10 109 85 124 87l5 -2c28 -31 62 -57 96 -83z" />
    <glyph glyph-name="underscore" unicode="_" horiz-adv-x="846" 
 />
    <glyph glyph-name="grave" unicode="`" horiz-adv-x="223" 
d="M53 413c-3 4 -6 31 -1 31c9 0 46 -32 54 -39c23 -20 52 -44 77 -63c0 0 2 -7 1 -7c-16 3 -124 66 -131 78z" />
    <glyph glyph-name="a" unicode="a" 
d="M347 148c8 -8 -6 -25 -12 -33c-40 -53 -101 -118 -165 -118c-14 0 -24 4 -24 19c0 27 25 74 39 96c-23 -24 -48 -48 -73 -70c-26 -22 -56 -44 -91 -44c-13 0 -18 10 -18 22c0 2 0 5 1 7c9 78 72 173 133 220c22 17 48 26 75 26h115c3 0 5 -1 5 -4c0 -5 -5 -8 -9 -8
c-14 0 -28 -22 -35 -33c-20 -30 -90 -156 -90 -188c0 -8 6 -14 14 -14c39 0 108 89 135 122zM240 241c0 15 -10 19 -23 19c-21 0 -49 -20 -64 -34c-31 -29 -99 -140 -99 -182c0 -6 1 -12 8 -12c40 0 178 167 178 209z" />
    <glyph glyph-name="b" unicode="b" horiz-adv-x="269" 
d="M511 550c0 -3 -4 -4 -6 -4c-1 0 -3 0 -3 2c0 21 -24 27 -42 27c-185 0 -265 -267 -327 -403c0 0 -1 -4 1 -4s95 104 153 104c14 0 17 -12 17 -24v-9c-14 -100 -116 -248 -228 -248c-17 0 -49 3 -49 27c0 9 5 23 9 32c13 35 28 71 44 108c-17 -20 -35 -38 -41 -46
c-9 -13 -9 8 -2 16c18 24 44 51 67 80c56 117 124 231 211 317c39 38 98 87 155 87c20 0 40 -11 41 -33v-29zM255 225c0 6 -2 13 -9 13c-23 0 -88 -70 -104 -89c-22 -25 -72 -89 -72 -121c0 -15 9 -20 22 -20c21 0 49 21 63 35c32 29 100 140 100 182z" />
    <glyph glyph-name="c" unicode="c" horiz-adv-x="238" 
d="M290 147c7 -7 -4 -22 -8 -28c-41 -56 -129 -125 -203 -127c-122 -2 -55 118 -15 174c22 31 51 59 85 79c21 13 64 33 90 33c57 0 43 -53 28 -84c-4 -9 -17 -14 -15 -5c6 26 -4 72 -32 72c-24 0 -57 -22 -68 -34c-35 -36 -71 -95 -86 -143c-25 -76 20 -74 70 -57
c59 19 128 84 154 120z" />
    <glyph glyph-name="d" unicode="d" 
d="M596 582l-2 -36c0 -2 -4 -4 -5 -4s-2 1 -3 2c-5 32 -45 46 -87 32c-37 -13 -69 -54 -107 -121c-28 -50 -91 -177 -119 -239c-14 -31 -75 -150 -75 -176c0 -8 4 -14 12 -14c33 0 117 94 137 122c9 -9 -5 -24 -12 -33c-37 -49 -101 -118 -165 -118c-14 0 -24 4 -24 19
c0 27 25 74 39 96c-23 -24 -48 -48 -73 -70c-26 -21 -56 -44 -91 -44c-13 0 -18 10 -18 22c0 2 0 5 1 7c9 77 72 174 133 220c41 31 74 26 123 26c32 54 71 135 101 185c55 93 120 154 201 154c17 0 36 -10 34 -30zM240 241c0 15 -10 19 -23 19c-21 0 -49 -20 -64 -34
c-31 -29 -99 -140 -99 -182c0 -6 1 -12 8 -12c40 0 178 167 178 209z" />
    <glyph glyph-name="e" unicode="e" horiz-adv-x="249" 
d="M299 144c7 -7 2 -14 -4 -23c-41 -56 -120 -129 -204 -129c-123 0 -62 117 -28 173c31 48 103 112 164 112c42 0 49 -28 45 -55c-8 -53 -69 -76 -115 -91c-20 -6 -49 -12 -73 -12c-24 -65 -31 -129 65 -97c59 19 123 87 150 122zM211 260c-58 -1 -99 -77 -119 -121
c17 -1 40 0 62 7c87 26 94 114 57 114z" />
    <glyph glyph-name="f" unicode="f" horiz-adv-x="182" 
d="M479 581l-3 -36c0 -3 -6 -5 -7 -2c-6 33 -47 45 -89 36c-37 -8 -68 -40 -106 -110c-27 -50 -61 -134 -88 -196h72c9 0 20 0 29 2c0 -6 -10 -11 -15 -13c-33 -18 -60 -16 -97 -15c-29 -73 -54 -138 -84 -201c-51 -112 -149 -272 -289 -272c-52 0 -89 16 -101 50
c-7 21 7 52 20 86c4 10 15 6 11 -4c-35 -85 74 -135 151 -96c62 32 99 93 130 151c47 89 76 190 115 286h-23c-7 0 -15 -2 -22 -3l-2 1c3 14 34 28 47 28h12c41 95 108 246 192 302c34 24 72 36 113 36c16 0 35 -10 34 -30z" />
    <glyph glyph-name="g" unicode="g" horiz-adv-x="265" 
d="M334 269c0 -5 -5 -8 -9 -8c-15 0 -30 -15 -36 -26c-27 -43 -91 -192 -134 -292c-48 -114 -111 -229 -225 -278c-23 -10 -50 -15 -75 -15c-51 0 -103 23 -126 71c-9 17 -11 37 -11 56c0 10 -3 32 13 32c1 0 2 0 2 -2c0 -8 -2 -16 -2 -25c0 -62 44 -94 103 -94
c24 0 50 6 72 15c171 73 245 292 309 452c-28 -46 -61 -78 -102 -113c-25 -21 -55 -44 -90 -44c-14 0 -18 10 -18 22v7c10 77 73 174 134 220c22 17 47 26 75 26h115c2 0 5 -1 5 -4zM241 241c0 15 -10 19 -23 19c-21 0 -48 -20 -63 -34c-31 -29 -100 -140 -100 -182
c0 -6 2 -12 9 -12c39 0 177 167 177 209z" />
    <glyph glyph-name="h" unicode="h" 
d="M527 572c1 -11 0 -25 -3 -37c-1 -3 -5 -4 -8 -4c-1 0 -3 0 -2 1c5 35 -22 48 -58 48c-66 0 -120 -26 -166 -66c-72 -63 -125 -168 -163 -269c-19 -49 -37 -101 -53 -143c60 80 118 140 159 164c41 23 89 23 50 -38c-19 -30 -89 -156 -89 -188c0 -29 37 -10 48 -2
c36 27 73 70 97 100c3 3 1 -18 -7 -27c-15 -20 -30 -38 -45 -55c-26 -30 -61 -62 -105 -62c-25 0 -48 10 -34 48c17 46 62 132 81 172c24 48 -31 4 -44 -7c-53 -49 -118 -125 -143 -195c-4 -13 -55 -22 -47 -4c30 69 62 156 103 244c45 100 109 217 192 290
c49 43 108 73 178 73c31 0 56 -11 59 -43z" />
    <glyph glyph-name="i" unicode="i" horiz-adv-x="192" 
d="M247 140c-2 -10 -8 -18 -13 -25c-42 -53 -96 -118 -166 -118c-14 0 -23 4 -23 19c0 27 28 78 39 102l51 108c-29 -31 -78 -90 -96 -114c-9 -13 -9 8 -2 16c38 47 98 127 109 143c14 2 51 8 62 17c8 8 12 -1 6 -8c-13 -15 -56 -101 -83 -152c-19 -36 -34 -73 -34 -88
c0 -8 5 -14 14 -14c26 0 80 58 112 96l22 25c1 -1 2 -5 2 -7zM274 427c8 -12 3 -30 -12 -39c-14 -10 -32 -8 -40 3c-8 12 -3 30 11 39c15 10 33 8 41 -3z" />
    <glyph glyph-name="j" unicode="j" horiz-adv-x="135" 
d="M227 427c8 -12 3 -30 -12 -39c-14 -10 -32 -8 -40 3c-8 12 -3 30 12 39c14 10 32 8 40 -3zM196 269c0 -5 -5 -8 -9 -8c-15 0 -27 -9 -34 -19c-25 -36 -93 -199 -135 -299c-48 -114 -112 -229 -226 -278c-23 -10 -49 -15 -75 -15c-51 0 -103 23 -126 71
c-8 17 -10 37 -10 56c0 10 -3 32 12 32c1 0 3 0 3 -2c0 -8 -3 -16 -3 -25c0 -62 44 -94 103 -94c24 0 50 6 73 15c125 54 198 185 254 314c47 111 72 214 78 221c28 29 95 48 95 31z" />
    <glyph glyph-name="k" unicode="k" horiz-adv-x="324" 
d="M483 550c0 -3 -4 -4 -6 -4c-1 0 -3 0 -3 2c0 21 -24 27 -41 27c-24 0 -48 -5 -71 -14c-54 -22 -86 -68 -117 -116c-60 -93 -119 -244 -156 -343c14 19 29 38 43 54c-2 14 1 21 10 32c9 13 16 18 26 30l3 -17c29 30 55 52 77 65c40 23 91 23 53 -38c-7 -10 -6 -12 -10 -16
c-2 -2 -7 0 -7 3c0 16 -13 19 -26 19c-25 0 -55 -20 -84 -50c9 -50 26 -123 41 -146c7 -11 21 -13 29 -13c37 1 108 91 132 122c2 -3 3 -7 2 -10c-1 -8 -9 -18 -14 -24c-27 -34 -58 -69 -92 -96c-26 -21 -75 -34 -97 -5c-17 23 -33 96 -40 128c-38 -48 -69 -101 -78 -128
c-5 -13 -56 -22 -48 -4c61 138 110 256 190 397c56 101 151 207 243 207c20 0 41 -11 41 -33v-29z" />
    <glyph glyph-name="l" unicode="l" horiz-adv-x="214" 
d="M417 593c11 -44 -55 -141 -86 -183c-81 -113 -176 -195 -206 -222c-25 -46 -81 -177 8 -162c33 6 81 58 113 96l21 26c9 -9 -6 -26 -13 -35c-10 -12 -27 -34 -50 -58c-26 -26 -68 -60 -109 -57c-85 5 -33 118 -14 160l-42 -46c-9 -13 -9 8 -2 16c18 24 44 51 67 80
c52 98 139 286 193 357c34 13 61 48 96 48c14 0 21 -9 24 -20zM314 420c11 18 56 89 68 137c9 34 0 56 -35 19c-55 -59 -151 -249 -205 -348c41 34 111 100 172 192z" />
    <glyph glyph-name="m" unicode="m" horiz-adv-x="470" 
d="M522 147c7 -10 -4 -23 -11 -32c-38 -51 -93 -114 -159 -119c-14 -1 -30 5 -30 20c0 27 28 78 39 102c24 46 46 92 54 110c20 43 -69 -34 -80 -46c-34 -35 -97 -111 -112 -165c-19 -17 -35 -7 -35 8c0 27 22 69 33 93c24 46 46 92 54 110c20 43 -69 -34 -80 -46
c-32 -33 -61 -67 -79 -107c-11 -24 -24 -57 -32 -77c-26 -2 -54 -25 -44 -4c6 12 12 27 19 44c27 65 68 172 76 188c-29 -31 -78 -90 -96 -114c-9 -13 -9 8 -2 16c38 47 98 127 109 143c14 2 51 8 62 17c8 8 12 -1 6 -8c-13 -15 -55 -95 -82 -145c21 25 45 51 53 60
c23 24 83 75 117 80c43 7 34 -19 21 -43c-8 -16 -30 -56 -45 -84l47 47c23 24 83 75 117 80c43 7 41 -17 22 -47c-20 -30 -90 -156 -90 -188c0 -8 6 -14 14 -14c26 0 80 55 113 95c9 10 20 24 21 26z" />
    <glyph glyph-name="n" unicode="n" horiz-adv-x="330" 
d="M382 147c7 -10 -4 -23 -11 -32c-20 -27 -64 -79 -91 -100c-13 -10 -37 -23 -58 -23c-64 0 -15 98 -1 126c24 46 46 92 54 110c20 43 -69 -34 -80 -46c-50 -52 -86 -117 -111 -184c-26 -2 -54 -25 -44 -4c6 12 12 27 19 44c27 65 68 172 76 188c-29 -31 -78 -90 -96 -114
c-9 -13 -9 8 -2 16c38 47 98 127 109 143c14 2 51 8 62 17c8 8 12 -1 6 -8c-13 -15 -55 -95 -82 -145c16 21 35 41 53 60c23 24 83 75 117 80c43 7 41 -17 22 -47c-20 -30 -86 -152 -86 -184c0 -8 6 -14 14 -14c33 0 81 57 130 117z" />
    <glyph glyph-name="o" unicode="o" horiz-adv-x="265" 
d="M279 239c0 -46 -29 -96 -54 -132c-12 -16 -23 -30 -38 -44c49 0 91 33 122 74c6 7 6 -10 1 -17c-30 -42 -77 -78 -134 -70c-38 -35 -81 -52 -126 -52c-22 0 -41 6 -41 35c0 46 29 97 55 133c22 31 51 59 85 79c21 13 64 33 90 33c21 0 40 -10 40 -39zM231 248
c-4 33 -58 1 -75 -17c-22 -23 -41 -48 -57 -76c-21 -35 -50 -90 -41 -126c8 -32 57 -2 74 15c22 23 41 49 57 76c21 35 46 87 42 128z" />
    <glyph glyph-name="p" unicode="p" horiz-adv-x="255" 
d="M299 397l-2 -28c0 -2 -3 -3 -4 -3c0 0 -1 0 -1 1c0 16 -15 21 -25 21c-92 0 -139 -145 -164 -236c18 17 110 120 168 120c17 0 18 -20 16 -33c-13 -100 -115 -248 -227 -248c-7 0 -21 0 -24 3c-43 -127 -117 -275 -244 -329c-23 -10 -49 -15 -75 -15
c-51 0 -103 23 -126 71c-8 17 -10 37 -10 56c0 10 -3 32 12 32c1 0 3 0 3 -2c0 -8 -3 -16 -3 -25c0 -62 44 -94 103 -94c24 0 50 6 73 15c125 54 200 184 254 314c39 95 71 187 115 277c41 83 89 124 136 124c12 0 26 -7 25 -21zM239 225c0 6 -2 13 -9 13
c-23 0 -90 -70 -106 -89c-21 -25 -70 -89 -70 -121c0 -15 8 -20 21 -20c20 0 50 21 64 35c31 29 100 140 100 182z" />
    <glyph glyph-name="q" unicode="q" horiz-adv-x="279" 
d="M331 147c5 -6 0 -18 -8 -29c-92 -121 -229 -297 -271 -429c-4 -12 -62 -46 -60 -24c3 26 181 425 195 447c-23 -24 -49 -48 -74 -70s-55 -44 -90 -44c-14 0 -18 10 -18 22v7c10 78 73 173 134 220c21 17 47 26 75 26h115c2 0 5 -1 5 -4c0 -5 -5 -8 -9 -8
c-15 0 -29 -22 -36 -33c-66 -103 -163 -298 -205 -416c60 99 177 247 247 335zM241 241c0 15 -10 19 -23 19c-21 0 -48 -20 -63 -34c-31 -29 -100 -140 -100 -182c0 -6 2 -12 9 -12c39 0 177 167 177 209z" />
    <glyph glyph-name="r" unicode="r" horiz-adv-x="272" 
d="M322 254c11 -28 -12 -59 -18 -72c-2 -4 -13 -9 -12 -4c4 25 3 66 -28 66c-21 0 -55 -32 -85 -66c-39 -46 -59 -86 -74 -124l-21 -56c-26 -2 -54 -24 -44 -4c6 12 12 27 19 44c27 65 68 172 76 188c-29 -31 -78 -90 -96 -114c-9 -13 -9 8 -2 16c38 47 98 127 109 143
c14 2 51 8 62 17c8 8 12 -1 6 -8c-12 -13 -44 -74 -70 -122c27 41 94 121 142 121c17 0 29 -6 36 -25z" />
    <glyph glyph-name="s" unicode="s" horiz-adv-x="232" 
d="M245 242c0 -16 -7 -34 -14 -48c-4 -9 -17 -14 -14 -5c3 14 2 32 -4 46c-18 50 -92 23 -81 -28c5 -21 40 -51 55 -71c53 -71 -15 -152 -93 -152c-36 0 -85 13 -94 53c-4 19 7 52 22 64c5 3 9 -2 7 -4c-2 -4 -5 -11 -6 -17c-2 -16 2 -33 11 -46c8 -11 20 -20 31 -27
c22 -12 73 -10 90 10c20 25 19 61 -20 104c-15 16 -30 35 -34 56c-1 4 -2 8 -2 12c-18 -26 -37 -48 -50 -64c-12 -16 -12 5 -1 17s26 33 34 44c22 33 30 50 44 66c15 17 38 29 62 29c28 0 56 -4 57 -39z" />
    <glyph glyph-name="t" unicode="t" horiz-adv-x="198" 
d="M291 442c-15 -16 -64 -91 -102 -169h81c14 0 17 -5 -4 -11c-34 -10 -78 -3 -92 -23c-15 -20 -68 -137 -73 -191c-2 -14 7 -22 15 -22c26 0 81 58 114 96l19 24c5 -7 -3 -23 -9 -31c-39 -50 -102 -118 -166 -118c-14 0 -24 4 -24 19c0 27 27 78 39 102
c12 23 54 121 54 121c-23 -28 -88 -105 -104 -127c-9 -13 -9 8 -2 16c24 30 68 85 94 119c-16 0 -53 -5 -54 -5c-11 0 21 32 32 32c1 0 28 -1 38 -1c27 36 53 83 78 139c11 1 43 18 58 33c9 9 14 5 8 -3z" />
    <glyph glyph-name="u" unicode="u" horiz-adv-x="393" 
d="M448 140c-2 -10 -8 -18 -14 -25c-38 -51 -101 -118 -165 -118c-14 0 -35 4 -35 27c0 26 25 91 37 114c-18 -26 -44 -60 -69 -84c-33 -32 -72 -57 -112 -57c-14 0 -24 4 -24 19c0 27 27 78 39 102c16 31 31 63 42 85c22 42 -8 19 -25 4c-30 -28 -66 -72 -83 -95
c-9 -13 -9 8 -2 16c19 26 45 60 72 90c22 24 43 52 77 57c43 7 40 -17 22 -47c-20 -30 -90 -156 -90 -188c0 -8 6 -14 14 -14c14 0 37 17 60 39c62 59 108 146 130 188c3 5 5 15 13 16s40 -2 63 9c7 3 8 -10 -8 -15c-41 -13 -116 -182 -106 -223c2 -8 6 -14 14 -14
c26 0 94 57 126 96c9 10 18 23 21 26c1 -2 3 -6 3 -8z" />
    <glyph glyph-name="v" unicode="v" 
d="M322 212c-16 -44 -110 -172 -157 -201c-37 -23 -85 -31 -83 31c0 44 12 118 30 166c-23 -34 -55 -72 -73 -96c-9 -13 -9 8 -2 16c28 38 67 93 93 133c14 2 39 8 49 17c9 8 12 -1 6 -8c-23 -34 -63 -157 -64 -216c-1 -58 47 -23 71 3c27 29 72 98 88 144c19 52 6 67 2 69
c-11 4 -4 12 6 8c21 -7 51 -16 34 -66z" />
    <glyph glyph-name="w" unicode="w" horiz-adv-x="500" 
d="M532 216c-28 -74 -98 -164 -169 -205c-41 -24 -94 -31 -93 31c1 34 8 85 20 129c-10 -15 -17 -32 -28 -49c-33 -48 -72 -96 -97 -111c-37 -23 -85 -31 -83 31c0 44 12 118 30 166c-23 -34 -55 -72 -73 -96c-9 -13 -9 8 -2 16c28 38 67 93 93 133c14 2 39 8 49 17
c9 8 12 -1 6 -8c-23 -34 -63 -157 -64 -216c-1 -24 7 -32 18 -32c37 0 89 83 106 110c27 42 52 99 70 129c14 2 39 8 50 17c8 8 11 -1 6 -8c-23 -34 -59 -157 -60 -216c-1 -58 60 -23 86 3c45 46 74 88 96 147c20 52 7 76 -4 80s-1 13 11 11c29 -7 51 -29 32 -79z" />
    <glyph glyph-name="x" unicode="x" horiz-adv-x="299" 
d="M358 264c4 0 3 -15 -1 -15c-19 -1 -41 -11 -51 -16c-47 -21 -111 -74 -150 -107c2 -12 11 -47 25 -73c36 -71 81 23 91 61c3 10 12 6 10 -5c-10 -46 -43 -115 -88 -115c-7 0 -14 2 -20 5c-27 12 -50 69 -56 95c-37 -32 -60 -62 -94 -96c-6 -6 -52 -4 -30 14
c47 37 75 59 121 97c-3 14 -19 105 -18 113c3 23 42 42 64 42c16 0 19 -11 6 -11c-17 0 -19 -20 -20 -29c-4 -28 0 -56 5 -83c15 13 137 109 146 116c16 11 42 7 60 7z" />
    <glyph glyph-name="y" unicode="y" horiz-adv-x="344" 
d="M410 269c0 -5 -5 -8 -9 -8c-15 0 -27 -9 -34 -19c-25 -36 -93 -199 -135 -299c-49 -114 -112 -229 -226 -278c-23 -10 -49 -15 -75 -15c-51 0 -103 23 -126 71c-8 17 -10 37 -10 56c0 10 -3 32 12 32c1 0 2 0 2 -2c0 -8 -2 -16 -2 -25c0 -62 44 -94 103 -94
c24 0 50 6 73 15c125 54 198 185 254 314c21 51 38 100 51 139c-21 -29 -63 -80 -86 -102c-33 -32 -72 -57 -112 -57c-14 0 -24 4 -24 19c0 27 27 78 39 102c16 31 31 63 42 85c22 42 -8 19 -25 4c-30 -28 -66 -72 -83 -95c-9 -13 -9 8 -2 16c19 26 45 60 72 90
c22 24 43 52 77 57c43 7 40 -17 22 -47c-20 -30 -90 -156 -90 -188c0 -8 6 -14 14 -14c14 0 37 17 60 39c39 37 72 85 96 127c6 10 29 52 40 57c6 3 30 19 50 23c20 5 32 5 32 -3z" />
    <glyph glyph-name="z" unicode="z" horiz-adv-x="234" 
d="M364 -95c-15 -22 -47 -39 -78 -29c-23 7 -49 34 -111 105c-30 35 -52 66 -89 66c-30 0 -62 -20 -70 -49c-2 -8 -4 -15 -8 -21c-9 -12 -33 0 -20 21c14 23 83 94 106 114c55 47 98 88 154 134c-34 0 -140 -3 -153 -21c-10 -13 -26 -12 -13 2c12 13 17 26 24 38
c49 -4 115 1 165 1c12 0 20 -23 21 -32c-46 -33 -105 -73 -158 -116c-25 -19 -63 -54 -85 -73c73 37 110 -3 165 -57c40 -40 83 -74 111 -74c9 1 19 3 26 9c21 17 -5 46 -17 54c-4 4 5 10 11 7c25 -13 39 -50 19 -79z" />
    <glyph glyph-name="braceleft" unicode="{" horiz-adv-x="354" 
d="M91 241c82 1 128 31 162 101c9 19 16 39 24 59c28 71 86 143 197 159c13 1 51 3 56 -3c3 -4 7 -10 7 -13c-10 2 -30 3 -46 2c-51 -4 -84 -19 -110 -62c-37 -64 -56 -156 -116 -202c-27 -22 -66 -41 -103 -50c36 -8 69 -29 64 -70c-8 -72 -63 -131 -72 -203
c-4 -38 17 -41 46 -44c10 -1 31 -1 43 1c-4 -9 -13 -17 -18 -17c-48 0 -142 2 -135 61c9 75 69 136 77 210c6 43 -38 53 -89 58z" />
    <glyph glyph-name="bar" unicode="|" horiz-adv-x="364" 
d="M298 577h47c-20 -27 -221 -534 -239 -577h-42c24 67 201 493 234 577z" />
    <glyph glyph-name="braceright" unicode="}" horiz-adv-x="411" 
d="M412 217c-83 -1 -129 -31 -162 -101c-9 -19 -17 -39 -25 -59c-28 -71 -86 -143 -197 -158c-13 -2 -51 -4 -56 2c-3 4 -6 10 -7 13c10 -2 31 -3 47 -2c50 4 84 19 109 62c37 64 57 156 116 203c28 21 66 40 103 49c-36 8 -69 29 -64 70c9 73 64 131 72 203
c4 38 -16 41 -46 44c-10 1 -30 1 -43 -1c5 9 13 18 18 18c48 0 142 -3 135 -62c-9 -75 -69 -136 -77 -209c-5 -44 38 -54 90 -59z" />
    <glyph glyph-name="asciitilde" unicode="~" horiz-adv-x="277" 
d="M297 352c-9 -10 -39 -33 -53 -33c-45 0 -79 27 -118 27c-17 0 -31 -11 -43 -21l-8 10c13 11 37 31 55 31c36 0 67 -28 115 -28c21 0 29 10 46 21z" />
    <glyph glyph-name="DEL" horiz-adv-x="846" 
 />
    <glyph glyph-name="Ccedilla" unicode="&#xc7;" horiz-adv-x="527" 
d="M586 468c-5 -21 -31 -50 -41 -79c-2 -6 -22 -11 -19 -5c18 29 25 88 6 118c-28 47 -117 33 -162 16c-39 -14 -77 -37 -111 -66c-94 -83 -162 -212 -162 -315c0 -169 195 -156 307 -113c70 27 126 63 175 124c10 12 16 1 2 -18c-46 -61 -104 -101 -169 -128
c-44 -18 -105 -31 -164 -31c-15 -10 -25 -25 -25 -41c0 -31 41 -49 35 -87c-10 -54 -91 -76 -140 -76c-4 0 -7 4 -6 8c0 4 6 6 9 6c14 2 89 -6 100 53c4 24 -33 53 -33 83c0 22 12 43 31 56c-96 7 -181 50 -181 162c0 130 82 256 186 335c61 46 147 79 227 79
c33 0 61 -3 92 -18c30 -14 49 -35 43 -63z" />
    <glyph glyph-name="dagger" unicode="&#x2020;" horiz-adv-x="327" 
d="M476 393c6 0 -24 -37 -35 -36c-22 2 -82 4 -124 5c-82 -189 -178 -415 -188 -440l-49 -29c16 44 113 284 189 469c-44 0 -97 -1 -134 -4c-6 0 24 38 35 36c19 -3 70 -4 110 -4l75 186l79 46c-8 -11 -52 -111 -105 -232c54 0 122 2 147 3z" />
    <glyph glyph-name="degree" unicode="&#xb0;" horiz-adv-x="212" 
d="M245 345c-7 -38 -47 -70 -89 -70s-71 32 -64 70c6 38 46 69 88 69s71 -31 65 -69zM213 345c4 22 -14 41 -38 41s-48 -19 -52 -41s14 -41 38 -41s48 19 52 41z" />
    <glyph glyph-name="cent" unicode="&#xa2;" horiz-adv-x="375" 
d="M327 511c3 7 26 14 23 7l-30 -78c21 0 38 -2 57 -11s31 -22 27 -40c-3 -13 -20 -31 -26 -49c-1 -4 -14 -7 -12 -3c11 18 13 53 2 71c-10 16 -31 20 -53 19c-33 -89 -83 -225 -120 -332c70 -3 143 48 182 106c6 8 11 -8 8 -12c-44 -71 -119 -120 -200 -121
c-14 -41 -26 -77 -33 -102c-1 -2 -41 -19 -40 -15c9 28 24 70 42 120c-5 0 -11 2 -16 3c-122 29 -111 209 29 315c33 25 85 45 131 50zM165 100c39 105 90 234 127 324l-21 -6c-24 -9 -46 -22 -67 -40c-99 -87 -135 -249 -42 -277z" />
    <glyph glyph-name="sterling" unicode="&#xa3;" horiz-adv-x="621" 
d="M430 267c5 0 -21 -32 -31 -32c-22 2 -88 5 -123 5h-8l-82 -126c-43 -67 -77 -90 -97 -96c0 0 134 -4 199 -6c82 -3 187 -10 205 12c23 29 16 56 -11 71c-6 3 0 12 6 8c18 -9 51 -57 56 -76c11 -40 -18 -62 -77 -61c-120 4 -268 25 -383 34c-30 2 -63 -9 -79 -22
c-7 -6 -10 28 15 29c59 1 119 62 141 106l63 127c-33 0 -68 -1 -94 -3c-5 -1 21 33 31 31c13 -2 45 -3 75 -3l44 86c49 98 108 200 233 196c52 -2 118 -22 101 -77c-6 -21 -35 -41 -49 -74c-5 -11 -20 -9 -12 2c30 41 40 135 -27 137c-37 1 -79 -17 -112 -67l-131 -204
c48 0 122 2 147 3z" />
    <glyph glyph-name="section" unicode="&#xa7;" horiz-adv-x="542" 
d="M408 -7c-13 -93 -124 -157 -217 -157c-71 0 -162 28 -181 109c-10 46 14 102 46 127c3 2 11 -8 6 -12c-33 -30 -18 -89 4 -121c31 -44 92 -73 147 -76c108 -6 159 86 122 184c-21 56 -62 111 -91 165c-25 48 -27 103 5 148c17 23 41 42 68 54c0 27 7 53 24 77
c30 41 83 68 136 71c39 2 79 -10 108 -43c10 -13 7 -41 -2 -54c-11 -18 -29 -53 -32 -63c-3 -2 -17 -7 -19 -3c5 10 17 44 17 67c0 15 3 34 -13 48c-16 15 -41 27 -77 27c-92 0 -131 -80 -105 -140c30 -72 115 -109 153 -184c47 -91 -10 -176 -89 -220c-3 -2 -7 -3 -10 -4z
M318 401c-56 -23 -77 -83 -56 -131c30 -72 107 -127 137 -205c7 -18 10 -35 11 -51c1 2 3 3 6 5c51 34 64 105 29 173c-27 55 -81 97 -109 151c-10 19 -16 38 -18 58z" />
    <glyph glyph-name="bullet" unicode="&#x2022;" horiz-adv-x="475" 
d="M461 284c-18 -103 -124 -187 -238 -187s-192 84 -174 187c18 104 125 188 239 188c113 0 191 -84 173 -188z" />
    <glyph glyph-name="paragraph" unicode="&#xb6;" horiz-adv-x="494" 
d="M675 587c1 -13 -8 -16 -18 -16c-52 0 -98 -58 -122 -95c-37 -57 -84 -174 -112 -236c-67 -150 -218 -471 -426 -465h-8c-43 -31 -92 -49 -147 -49c-5 0 -34 2 -34 13c-1 8 19 8 22 8c169 0 326 289 384 411c-75 6 -152 42 -157 123c-2 35 11 69 30 97
c73 109 232 146 364 146c25 0 50 0 73 6c30 35 74 70 124 70c10 0 27 0 27 -13zM495 492l-28 -1c-146 -102 -233 -516 -459 -702c131 11 248 217 295 317c64 131 125 259 192 386z" />
    <glyph glyph-name="germandbls" unicode="&#xdf;" horiz-adv-x="461" 
d="M444 611c122 0 181 -116 98 -213c-33 -38 -85 -61 -143 -67c-106 -17 3 -100 32 -139c124 -164 -206 -311 -261 -138c-8 26 10 72 30 90c7 3 13 -3 10 -7c-3 -5 -6 -14 -8 -23c-8 -77 53 -114 111 -114c54 0 90 28 94 81c8 84 -61 127 -87 180c-20 40 15 64 50 77
c59 13 114 36 146 78c53 69 35 180 -69 180c-45 0 -85 -22 -117 -53c-99 -95 -174 -356 -239 -497c-51 -112 -149 -272 -289 -272c-52 0 -89 16 -101 50c-7 21 7 52 20 86c4 10 15 6 11 -4c-35 -85 74 -131 151 -92c62 32 99 89 130 147c47 89 76 190 115 286h-23
c-7 0 -15 -2 -22 -3l-2 1c3 14 34 28 47 28h12c34 85 97 218 170 283c36 32 81 53 134 55z" />
    <glyph glyph-name="registered" unicode="&#xae;" horiz-adv-x="707" 
d="M680 370c13 -210 -168 -391 -400 -373c-110 8 -232 45 -240 175c-8 136 117 393 396 372c163 -12 238 -67 244 -174zM117 83h1c20 4 35 17 44 34c20 32 39 65 57 99l66 123c22 39 39 73 45 88c5 12 9 20 0 28c-12 0 -47 14 2 15c20 1 49 1 62 1c38 1 108 5 132 -33
c19 -30 12 -81 -9 -108c-35 -47 -106 -70 -162 -72c12 -27 37 -74 73 -118c51 -62 112 -6 139 36c41 61 58 136 54 207c-5 82 -57 136 -183 146c-182 14 -353 -217 -343 -371c2 -29 9 -54 22 -75zM521 114c-43 -33 -96 -51 -138 6c-46 60 -68 119 -77 137c0 0 13 18 20 18
c46 -1 127 25 153 100c13 38 0 77 -34 81c-14 2 -42 4 -55 -13c-35 -46 -66 -115 -92 -166c-13 -24 -86 -152 -77 -174c3 -6 -5 -4 -9 -3c-8 3 -17 7 -31 1c-10 -5 -33 -17 -52 -23c-3 -1 -6 -1 -8 0c26 -37 74 -59 150 -65c100 -8 187 35 250 101z" />
    <glyph glyph-name="copyright" unicode="&#xa9;" horiz-adv-x="715" 
d="M680 370c13 -209 -168 -391 -400 -373c-110 8 -232 45 -240 175c-8 136 117 393 396 372c163 -12 238 -67 244 -174zM621 383c-5 82 -57 136 -183 146c-182 14 -353 -217 -343 -371c5 -83 54 -136 176 -145c209 -16 361 185 350 370zM521 399c-3 -13 -19 -31 -25 -49
c-2 -4 -14 -7 -12 -3c11 18 13 53 2 71c-17 28 -71 20 -98 10c-23 -9 -46 -22 -66 -40c-100 -87 -135 -248 -42 -277c79 -25 169 33 215 100c5 8 11 -8 8 -12c-53 -85 -150 -138 -248 -115c-121 29 -111 209 30 315c38 29 101 51 151 51c21 0 39 -2 58 -11s31 -22 27 -40z
" />
    <glyph glyph-name="trademark" unicode="&#x2122;" horiz-adv-x="848" 
d="M750 293c-6 0 -10 2 -10 8c0 3 0 5 1 7c13 50 18 100 29 150c-25 -32 -102 -145 -143 -145c-48 0 -66 108 -76 145c-23 -48 -37 -121 -49 -159c-2 -7 -46 -24 -41 -11c4 7 67 167 75 195c4 11 3 47 1 65c-1 11 35 7 36 4c9 -39 26 -201 63 -220c31 12 79 92 115 151
c4 7 27 53 36 67c5 7 30 -6 27 -12c-18 -40 -30 -187 -32 -230c-1 -10 -22 -15 -32 -15zM522 555c11 0 6 -17 -17 -20c-35 -5 -108 -2 -114 -15c-28 -58 -57 -163 -79 -224c-2 -6 -47 -11 -45 -5c8 18 66 163 78 194c4 8 13 33 13 46c-12 1 -22 0 -26 0c-22 2 -58 -1 -80 -1
c-12 0 -17 25 14 25h256z" />
    <glyph glyph-name="acute" unicode="&#xb4;" horiz-adv-x="129" 
d="M158 413c-7 -12 -115 -75 -131 -78c-1 0 1 7 1 7c25 19 54 43 77 63c8 7 45 39 54 39c5 0 2 -27 -1 -31z" />
    <glyph glyph-name="dieresis" unicode="&#xa8;" horiz-adv-x="249" 
d="M115 417c10 -6 21 -14 33 -12c9 2 12 -3 2 -13c-12 -10 -26 -24 -38 -23c-14 1 -28 12 -36 22c-2 3 36 28 39 26zM231 417c10 -6 21 -14 33 -12c9 2 12 -3 2 -13c-12 -10 -26 -24 -38 -23c-14 1 -28 12 -36 22c-2 3 36 28 39 26z" />
    <glyph glyph-name="notequal" unicode="&#x2260;" 
d="M280 140c0 -2 -4 -3 -6 -3c-24 0 -48 0 -72 -1l-65 -62h17c19 0 98 -3 110 -9c3 -1 3 -1 2 -4c0 -2 -4 -3 -5 -3c-49 0 -97 -1 -146 -6c-12 -11 -44 -49 -61 -49c-3 0 -6 1 -6 4c8 12 32 32 43 43c-6 0 -12 -1 -19 -1c-6 0 -14 14 -14 19l1 1c18 4 37 3 55 4l65 62
c-31 -2 -62 -7 -93 -7c-6 0 -15 14 -14 19l1 1c26 6 56 5 81 5c14 0 29 0 42 -1c13 12 44 49 63 49c2 0 4 -1 4 -3c-1 -4 -40 -42 -46 -48c10 -1 64 -3 63 -10z" />
    <glyph glyph-name="infinity" unicode="&#x221e;" horiz-adv-x="550" 
d="M106 145c-65 3 -83 41 -68 85c18 50 89 95 160 91c58 -3 79 -28 93 -65c43 33 102 70 166 68c65 -3 74 -51 61 -94c-21 -58 -88 -106 -168 -103c-65 3 -84 38 -102 77c-37 -27 -93 -61 -142 -59zM109 170c43 -1 102 26 134 48c-13 32 -30 65 -83 68
c-51 2 -92 -19 -105 -56c-11 -31 11 -58 54 -60zM390 169c53 -3 94 24 108 65c14 37 -14 55 -61 59c-52 2 -100 -24 -141 -52c16 -38 32 -70 94 -72z" />
    <glyph glyph-name="plusminus" unicode="&#xb1;" horiz-adv-x="371" 
d="M356 430c-11 -23 -40 -84 -62 -134c58 0 136 2 160 3c6 0 -24 -37 -35 -36c-21 1 -91 4 -137 5l-1 -4c-16 -38 -45 -107 -50 -131c-3 -11 -59 -27 -55 -21c23 43 51 110 71 156c-47 0 -111 0 -155 -4c-6 0 24 38 35 36c23 -4 92 -4 131 -4c16 40 36 93 42 114
c4 10 58 26 56 20zM365 41c5 0 -24 -34 -34 -33c-25 1 -99 5 -140 5c-47 0 -118 0 -164 -4c-7 -1 24 34 34 33c23 -4 94 -4 132 -5c54 0 143 3 172 4z" />
    <glyph glyph-name="lessequal" unicode="&#x2264;" horiz-adv-x="269" 
d="M55 204l2 17c56 24 134 72 186 118c10 8 22 17 26 30h6c0 -7 15 -27 17 -30c8 -18 -53 -58 -67 -68c-34 -25 -78 -50 -110 -67c-3 -2 -5 -5 -1 -8c23 -18 102 -92 113 -121c1 -7 -1 -16 -4 -23c-50 56 -106 108 -168 152zM265 27c4 0 -18 -28 -26 -27c-19 1 -75 4 -106 4
c-35 0 -89 0 -124 -3c-5 -1 18 28 26 27c17 -3 71 -3 100 -4c41 0 108 2 130 3z" />
    <glyph glyph-name="greaterequal" unicode="&#x2265;" horiz-adv-x="321" 
d="M300 217l-2 -17c-56 -24 -134 -72 -186 -118c-10 -8 -22 -17 -26 -30h-6c0 7 -15 27 -17 30c-8 18 53 58 67 68c34 25 78 50 110 67c3 2 5 5 1 8c-23 18 -102 92 -113 121c-1 7 1 16 4 23c50 -56 106 -108 168 -152zM265 27c4 0 -18 -28 -26 -27c-19 1 -75 4 -106 4
c-35 0 -89 0 -124 -3c-5 -1 18 28 26 27c17 -3 71 -3 100 -4c41 0 108 2 130 3z" />
    <glyph glyph-name="yen" unicode="&#xa5;" horiz-adv-x="452" 
d="M442 165c4 0 -18 -28 -26 -27l-88 4l-20 -35c-43 -75 -100 -146 -191 -146c-41 0 -82 23 -101 71c-7 17 -8 38 -8 57c0 22 10 14 10 5c0 -62 35 -95 83 -95c83 0 152 74 202 143c-35 0 -84 0 -117 -3c-5 -1 18 28 26 27c12 -2 44 -3 72 -3c0 1 0 2 1 3l11 34
c21 80 47 249 -13 319h-24c-39 0 -162 -4 -156 -77c1 -11 10 -34 12 -38l-10 -8c-12 21 -38 60 -40 75c-1 13 -1 38 17 54c38 32 146 17 189 17c0 0 71 1 160 1l-21 -26c-57 0 -72 1 -109 2c88 -59 64 -232 40 -317c62 87 115 183 186 264c33 38 93 108 152 106
c17 -1 30 -8 39 -27c13 -29 -5 -59 -10 -71c-2 -5 -9 -5 -8 0c8 31 -4 65 -35 67c-38 1 -88 -45 -126 -89c-89 -104 -140 -186 -200 -290c39 0 85 2 103 3z" />
    <glyph glyph-name="mu" unicode="&#xb5;" horiz-adv-x="251" 
d="M278 44c0 -1 -1 -1 -1 -2c-16 -17 -46 -37 -70 -37c-34 0 -31 34 -27 57c4 22 10 44 16 66c-40 -53 -94 -90 -151 -125c-59 -90 -144 -214 -161 -312c-5 -30 -5 -69 37 -69c24 0 60 14 82 26c-13 -19 -56 -35 -78 -35c-56 0 -98 46 -88 96l1 2c15 79 126 218 176 291
c44 65 91 133 104 206c-10 -22 -75 -99 -95 -119c-1 0 -2 -1 -3 -1c-2 0 -3 2 -3 4c0 0 0 1 1 1c4 8 28 34 35 43c26 33 50 66 67 103c4 9 12 21 24 21c15 0 11 -27 9 -37c-11 -63 -62 -137 -92 -198c54 34 91 68 133 114l7 7c5 16 21 59 34 71c5 4 11 5 17 5
c5 0 17 -2 16 -8c-3 -17 -11 -29 -24 -42c-17 -37 -31 -74 -37 -113c-3 -16 -5 -37 19 -37c22 0 47 26 50 26c2 0 2 -3 2 -4z" />
    <glyph glyph-name="partialdiff" unicode="&#x2202;" horiz-adv-x="364" 
d="M348 281c-17 -100 -114 -296 -251 -296c-28 0 -36 30 -33 52c10 54 131 193 196 193c11 0 18 -6 16 -17l-5 -8c-8 -5 -14 -6 -23 -8c-66 -15 -161 -112 -171 -171c-3 -13 1 -26 18 -26c132 0 211 199 227 292c11 59 15 163 -72 163c-27 0 -72 -26 -89 -47
c-2 0 -4 -1 -6 -1c-3 0 -2 4 -2 6c7 39 67 60 104 60c99 0 104 -122 91 -192z" />
    <glyph glyph-name="summation" unicode="&#x2211;" horiz-adv-x="545" 
d="M93 605h436v-120l-16 -3c-9 40 -19 63 -33 76c-15 16 -43 20 -120 20h-167l181 -236l-276 -283h275c67 0 99 12 136 86l13 -6l-54 -139h-458l2 21l286 298l-207 265z" />
    <glyph glyph-name="product" unicode="&#x220f;" horiz-adv-x="263" 
d="M33 539h499l-5 -17c-53 -4 -65 -11 -67 -50c0 -7 -1 -15 -1 -24v-367c0 -61 26 -59 87 -64l-6 -17h-216l6 17c66 5 71 13 71 74v402c0 19 -5 21 -25 21h-183c-22 0 -25 -2 -25 -24v-399c0 -61 7 -69 66 -74l-6 -17h-206l6 17c60 5 83 3 83 64v381c0 61 -20 55 -83 60z
" />
    <glyph glyph-name="pi" unicode="&#x3c0;" horiz-adv-x="302" 
d="M385 320c0 0 1 -12 -1 -14c-30 -27 -61 -43 -100 -39c-24 -63 -45 -112 -56 -176c-6 -45 4 -78 47 -35c27 25 49 52 70 79c4 5 15 3 11 -3c-21 -30 -78 -103 -111 -114c-41 -12 -54 27 -47 70c9 55 39 140 56 184c-23 6 -45 16 -70 21c-12 -69 -68 -240 -103 -301
l-21 -11c41 83 83 229 98 314h-2c-43 1 -76 -22 -93 -37v17c25 20 66 57 109 57c53 0 89 -38 142 -38c45 0 64 19 71 26z" />
    <glyph glyph-name="integral" unicode="&#x222b;" horiz-adv-x="275" 
d="M479 581l-3 -36c0 -2 -3 -3 -5 -3c-1 0 -2 0 -2 1c-6 33 -55 50 -96 36c-37 -12 -61 -33 -99 -99c-73 -131 -119 -310 -187 -455c-51 -112 -145 -251 -285 -251c-52 0 -89 16 -101 50c-7 21 7 52 20 86c4 10 15 6 11 -4c-35 -85 74 -131 151 -92c62 32 99 89 130 147
c74 140 123 349 216 504c56 92 135 146 216 146c16 0 35 -10 34 -30z" />
    <glyph glyph-name="ordfeminine" unicode="&#xaa;" 
d="M347 451c8 -8 -6 -25 -12 -33c-40 -53 -101 -118 -165 -118c-14 0 -24 4 -24 19c0 27 25 74 39 96c-23 -24 -48 -48 -73 -70c-26 -22 -56 -44 -91 -44c-13 0 -18 10 -18 22c0 2 0 5 1 7c9 78 72 173 133 220c22 17 48 26 75 26h115c3 0 5 -1 5 -4c0 -5 -5 -8 -9 -8
c-14 0 -28 -22 -35 -33c-20 -30 -90 -156 -90 -188c0 -8 6 -14 14 -14c39 0 108 89 135 122zM240 544c0 15 -10 19 -23 19c-21 0 -49 -20 -64 -34c-31 -29 -99 -140 -99 -182c0 -6 1 -12 8 -12c40 0 178 167 178 209z" />
    <glyph glyph-name="ordmasculine" unicode="&#xba;" horiz-adv-x="265" 
d="M279 546c0 -46 -29 -96 -54 -132c-12 -16 -23 -30 -38 -44c49 0 91 33 122 74c6 7 6 -10 1 -17c-30 -42 -77 -78 -134 -70c-38 -35 -81 -52 -126 -52c-22 0 -41 6 -41 35c0 46 29 97 55 133c22 31 51 59 85 79c21 13 64 33 90 33c21 0 40 -10 40 -39zM231 555
c-4 33 -58 1 -75 -17c-22 -23 -41 -48 -57 -76c-21 -35 -50 -90 -41 -126c8 -32 57 -2 74 15c22 23 41 49 57 76c21 35 46 87 42 128z" />
    <glyph glyph-name="Omega" unicode="&#x2126;" horiz-adv-x="665" 
d="M274 0h-205l-5 112l13 2c17 -60 28 -68 62 -68h90c-38 48 -140 152 -131 275c12 163 138 274 287 274c153 0 260 -106 247 -270c-9 -124 -129 -230 -169 -279h83c41 0 49 5 76 68l16 -2l-26 -112h-205l-4 12c31 42 132 161 143 312c11 142 -49 242 -163 242
c-115 0 -188 -94 -199 -245c-10 -140 75 -266 97 -310z" />
    <glyph glyph-name="questiondown" unicode="&#xbf;" horiz-adv-x="446" 
d="M388 440c3 -2 -35 -27 -38 -26c-10 6 -21 14 -33 12c-10 -2 -13 3 -2 13c12 10 26 24 37 23c15 0 28 -12 36 -22zM334 280c2 -37 -27 -73 -55 -96l-166 -132c-53 -43 -53 -113 -2 -135c31 -13 87 -7 119 16c19 13 47 61 55 94c0 12 22 23 20 9c-7 -30 -19 -88 -18 -104
c0 -13 -14 -22 -22 -26c-16 -7 -62 -16 -93 -18l-28 -2c-95 -7 -148 23 -133 106c24 133 203 127 268 228c28 44 39 83 19 106l11 16c15 -17 23 -37 25 -62z" />
    <glyph glyph-name="exclamdown" unicode="&#xa1;" horiz-adv-x="245" 
d="M-38 -100c9 6 37 57 40 64c80 155 168 332 179 354c4 9 28 19 26 11l-138 -360c-7 -17 -16 -44 -20 -53c-17 -4 -52 -12 -79 -34c-4 -3 -11 16 -8 18zM236 414c-10 6 -21 14 -33 12c-9 -2 -12 3 -2 13c12 10 26 24 38 23c14 0 28 -12 36 -22c2 -2 -36 -27 -39 -26z" />
    <glyph glyph-name="logicalnot" unicode="&#xac;" horiz-adv-x="414" 
d="M375 245c-18 -29 -37 -75 -43 -95l-42 1c7 17 26 48 41 75c-36 1 -207 1 -270 -3l12 23c45 1 250 -1 295 2z" />
    <glyph glyph-name="radical" unicode="&#x221a;" horiz-adv-x="330" 
d="M647 370c0 -5 -2 -10 -6 -13c1 21 -3 42 -31 42c-95 0 -273 -180 -331 -249c-13 -15 -45 -55 -48 -73c-7 -15 -47 -89 -63 -89c-3 0 -4 -1 -7 -1c-4 0 -9 3 -11 6v3c4 21 43 73 58 92c70 89 300 337 424 337c24 0 20 -31 15 -55zM240 199c-7 -42 -33 -105 -59 -142
c-4 -5 -12 -14 -17 -16c0 0 -1 0 -1 1c1 0 1 1 1 1c17 45 38 87 46 133c4 25 6 64 -30 64c-44 0 -108 -51 -142 -78c-4 -4 -7 -5 -12 -5c-2 0 -4 1 -3 3c0 5 8 13 12 16c33 35 120 99 170 99c43 0 40 -47 35 -76z" />
    <glyph glyph-name="florin" unicode="&#x192;" horiz-adv-x="188" 
d="M479 581l-3 -36c0 -2 -3 -3 -5 -3c-1 0 -2 0 -2 1c-6 33 -46 46 -87 32c-37 -12 -70 -40 -108 -106c-28 -50 -61 -134 -88 -196h72c9 0 20 0 29 2c0 -6 -10 -11 -15 -13c-33 -18 -60 -16 -97 -15c-29 -73 -69 -174 -102 -251c-61 -142 -183 -327 -355 -327
c-65 0 -110 20 -124 61c-9 25 8 62 25 103c5 12 18 7 12 -5c-43 -101 92 -157 186 -110c77 38 134 108 169 180c52 106 103 253 142 349h-23c-7 0 -15 -2 -22 -3l-2 1c3 14 34 28 47 28h12c22 54 72 149 102 199c56 92 122 139 203 139c16 0 35 -10 34 -30z" />
    <glyph glyph-name="approxequal" unicode="&#x2248;" 
d="M288 162c-10 -9 -41 -32 -55 -32c-45 0 -78 27 -117 27c-16 0 -31 -11 -43 -21l-8 10c13 11 39 31 56 31c37 0 66 -28 114 -28c21 0 30 10 47 21zM274 82c-10 -10 -41 -33 -55 -33c-45 0 -78 27 -117 27c-16 0 -31 -11 -43 -21l-8 10c13 11 39 31 56 31
c37 0 66 -27 114 -27c21 0 30 9 47 20z" />
    <glyph glyph-name="Delta" unicode="&#x2206;" horiz-adv-x="609" 
d="M594 1c-206 0 -463 -1 -463 -1h-82c37 67 206 346 294 495c20 34 37 73 74 79c2 1 5 1 8 1h58c-28 -62 67 -449 111 -574zM149 44h338c-48 146 -94 404 -95 459c-83 -121 -195 -346 -243 -459z" />
    <glyph glyph-name="guillemotleft" unicode="&#xab;" horiz-adv-x="355" 
d="M371 336c-2 -9 -91 -104 -104 -118c11 -16 66 -90 64 -103c-1 -6 -3 -11 -11 -11l-6 3c-23 37 -54 58 -88 85c-1 2 -2 3 -1 5c2 13 106 119 123 135c5 5 10 8 18 8c3 0 5 -1 5 -4zM252 336c-2 -9 -90 -104 -104 -118c11 -16 67 -90 64 -103c-1 -6 -3 -11 -11 -11l-6 3
c-22 37 -54 58 -88 85c-1 2 -1 3 -1 5c2 13 106 119 123 135c6 5 11 8 18 8c3 0 5 -1 5 -4z" />
    <glyph glyph-name="guillemotright" unicode="&#xbb;" horiz-adv-x="355" 
d="M368 242c-3 -13 -106 -118 -124 -135c-5 -4 -10 -8 -17 -8c-3 0 -6 2 -5 5c1 8 90 103 104 118c-11 15 -67 89 -65 103c1 5 4 10 11 10l6 -3c23 -37 55 -58 88 -85c1 -1 2 -3 2 -5zM236 242c-3 -13 -106 -118 -124 -135c-5 -4 -10 -8 -17 -8c-3 0 -6 2 -5 5
c1 8 90 103 104 118c-11 15 -67 89 -65 103c1 5 4 10 11 10l6 -3c23 -37 55 -58 88 -85c1 -1 2 -3 2 -5z" />
    <glyph glyph-name="ellipsis" unicode="&#x2026;" horiz-adv-x="460" 
d="M72 42c10 -6 21 -14 33 -12c9 2 12 -3 2 -13c-12 -10 -26 -24 -38 -23c-14 1 -28 12 -36 22c-2 3 36 28 39 26zM410 42c10 -6 20 -14 32 -12c10 2 13 -3 2 -13s-26 -24 -37 -23c-15 1 -28 12 -36 22c-2 3 35 28 39 26zM235 42c10 -6 21 -14 33 -12c10 2 12 -3 2 -13
c-12 -10 -26 -24 -38 -23c-14 1 -28 12 -36 22c-2 3 36 28 39 26z" />
    <glyph glyph-name="nbspace" unicode="&#xa0;" horiz-adv-x="166" 
 />
    <glyph glyph-name="endash" unicode="&#x2013;" horiz-adv-x="335" 
d="M336 171c4 0 -18 -28 -26 -27c-19 1 -75 4 -106 4c-35 0 -89 0 -124 -3c-5 -1 18 28 26 27c17 -3 71 -3 100 -4c41 0 108 2 130 3z" />
    <glyph glyph-name="emdash" unicode="&#x2014;" horiz-adv-x="512" 
d="M519 169c5 0 -17 -28 -26 -27c-19 1 -169 3 -199 4c-36 0 -184 -1 -219 -3c-5 -1 18 28 26 27c17 -3 165 -4 195 -4c41 0 201 2 223 3z" />
    <glyph glyph-name="quotedblleft" unicode="&#x201c;" horiz-adv-x="295" 
d="M201 491c11 49 44 87 82 113c7 5 14 8 14 8l-2 -8c-1 -3 0 -4 -8 -11c-22 -19 -40 -44 -46 -73c-3 -16 8 -32 25 -35l-4 -11c-7 -1 -21 -9 -27 -13c-5 -4 -11 -12 -15 -12c-20 3 -24 21 -19 42zM98 491c10 49 44 87 81 113c8 5 15 8 15 8l-2 -8c-1 -3 0 -4 -8 -11
c-22 -19 -40 -44 -46 -73c-3 -16 8 -32 25 -35l-4 -11c-7 -1 -22 -9 -27 -13c-6 -4 -11 -12 -15 -12c-21 3 -24 21 -19 42z" />
    <glyph glyph-name="quotedblright" unicode="&#x201d;" horiz-adv-x="168" 
d="M266 571c-11 -48 -44 -86 -81 -113c-8 -5 -15 -8 -15 -8l2 8c1 4 0 5 8 11c22 19 40 45 46 73c3 17 -8 32 -25 35l4 11c7 2 21 10 27 14c5 4 11 12 15 11c21 -3 24 -21 19 -42zM369 571c-10 -48 -44 -86 -81 -113c-8 -5 -15 -8 -15 -8l2 8c1 4 0 5 8 11
c22 19 40 45 46 73c4 17 -8 32 -25 35l4 11c7 2 22 10 27 14c6 4 12 12 15 11c21 -3 24 -21 19 -42z" />
    <glyph glyph-name="quoteleft" unicode="&#x2018;" horiz-adv-x="168" 
d="M74 492c11 49 44 86 82 113c7 5 14 8 14 8l-2 -8c-1 -4 0 -5 -8 -11c-22 -19 -40 -45 -46 -73c-3 -16 8 -32 25 -35l-4 -11c-7 -1 -21 -10 -27 -14c-5 -4 -11 -12 -15 -11c-21 3 -24 21 -19 42z" />
    <glyph glyph-name="quoteright" unicode="&#x2019;" horiz-adv-x="168" 
d="M266 571c-11 -48 -44 -86 -81 -113c-8 -5 -15 -8 -15 -8l2 8c1 4 0 5 8 11c22 19 40 45 46 73c3 17 -8 32 -25 35l4 11c7 2 21 10 27 14c5 4 11 12 15 11c21 -3 24 -21 19 -42z" />
    <glyph glyph-name="Euro" unicode="&#x20ac;" horiz-adv-x="494" 
d="M400 267c5 0 -19 -29 -28 -29c-20 2 -85 4 -118 5c-16 0 -43 0 -72 -1c-10 -19 -17 -37 -22 -55l40 -1c44 0 120 2 144 3c5 0 -19 -30 -28 -29c-21 2 -86 4 -118 4h-43c-10 -65 14 -119 70 -137c93 -28 201 43 254 122c7 10 12 -4 9 -9c-62 -99 -175 -162 -290 -135
c-73 18 -105 83 -96 159l-81 -3c-5 0 19 30 28 29c8 -1 31 -2 57 -3c4 18 10 36 18 55l-46 -3c-5 0 19 31 28 29c5 0 16 -1 31 -2c22 39 54 76 96 108c45 34 119 60 177 60c25 0 45 -3 68 -13c22 -11 36 -26 31 -47c-3 -15 -23 -37 -29 -58c-2 -4 -17 -8 -14 -4
c13 22 15 63 2 84c-20 33 -82 23 -114 11c-27 -10 -54 -25 -78 -46c-34 -30 -62 -63 -82 -96h63c44 0 120 2 143 2z" />
    <glyph glyph-name="fi" unicode="&#xfb01;" horiz-adv-x="373" 
d="M426 147c8 -8 -7 -27 -13 -34c-44 -53 -95 -116 -165 -116c-14 0 -24 4 -24 19c0 27 28 78 39 102l51 108c6 13 8 23 9 30c-40 -9 -113 -10 -148 -9c-29 -73 -54 -138 -84 -201c-51 -112 -149 -272 -289 -272c-52 0 -89 16 -101 50c-7 21 7 52 20 86c4 10 15 6 11 -4
c-35 -85 74 -131 151 -92c62 32 99 89 130 147c47 89 76 190 115 286h-23c-7 0 -15 -2 -22 -3l-2 1c3 14 34 28 47 28h12c22 54 72 149 102 199c56 92 122 139 203 139c16 0 35 -10 34 -30l-3 -36c0 -2 -3 -3 -5 -3c-1 0 -2 0 -2 1c-6 33 -46 46 -87 32
c-37 -12 -70 -40 -108 -106c-28 -50 -61 -134 -88 -196c81 0 148 -5 189 10l14 5c10 4 10 -1 4 -8c-13 -15 -56 -101 -82 -152c-20 -36 -35 -73 -35 -88c0 -8 6 -14 14 -14c26 0 82 58 115 96zM454 427c8 -12 2 -30 -12 -39c-15 -10 -33 -8 -41 3c-8 12 -2 30 12 39
c15 10 33 8 41 -3z" />
    <glyph glyph-name="fl" unicode="&#xfb02;" horiz-adv-x="394" 
d="M594 556c-38 -112 -127 -214 -184 -286c-44 -56 -83 -106 -136 -155c-5 -15 -10 -25 -11 -39c-3 -32 8 -57 50 -50c33 6 79 58 112 96l21 26c1 -1 3 -6 2 -8c-1 -10 -7 -18 -13 -25c-9 -12 -28 -36 -51 -60c-26 -26 -69 -60 -109 -57c-65 4 -50 71 -31 121
c16 42 36 82 56 121c49 95 118 240 167 311c-10 27 -47 37 -85 24c-37 -12 -70 -40 -108 -106c-28 -50 -61 -134 -88 -196h72c9 0 20 0 29 2c0 -6 -10 -11 -15 -13c-33 -18 -60 -16 -97 -15c-29 -73 -54 -138 -84 -201c-51 -112 -149 -272 -289 -272c-52 0 -89 16 -101 50
c-7 21 7 52 20 86c4 10 15 6 11 -4c-35 -85 74 -131 151 -92c62 32 99 89 130 147c47 89 76 190 115 286h-23c-7 0 -15 -2 -22 -3l-2 1c3 14 34 28 47 28h12c22 54 72 149 102 199c56 92 122 139 203 139c16 0 35 -10 34 -30l-1 -16c33 14 60 48 94 48c30 -1 28 -38 22 -57z
M564 556c9 31 1 47 -33 13c-64 -65 -192 -325 -246 -424c42 40 80 89 116 138c55 74 134 172 163 273z" />
    <glyph glyph-name="daggerdbl" unicode="&#x2021;" horiz-adv-x="327" 
d="M406 248c6 0 -23 -37 -34 -36c-22 2 -78 4 -119 5c-75 -172 -146 -337 -154 -358l-49 -28c12 35 86 212 158 387c-46 0 -103 -1 -143 -4c-6 -1 24 37 35 36c20 -4 79 -4 119 -5l49 117c-44 0 -96 -1 -133 -4c-6 0 24 38 35 36c18 -3 70 -4 109 -4c37 89 66 161 76 186
l79 46c-7 -10 -51 -109 -106 -232c54 0 123 2 148 3c6 0 -24 -37 -35 -36c-22 2 -83 4 -125 5c-16 -38 -34 -77 -51 -117c53 1 117 3 141 3z" />
    <glyph glyph-name="periodcentered" unicode="&#xb7;" horiz-adv-x="590" 
d="M473 307c-13 -73 -88 -132 -169 -132c-80 0 -135 59 -122 132s88 132 168 132s135 -59 123 -132z" />
    <glyph glyph-name="perthousand" unicode="&#x2030;" horiz-adv-x="892" 
d="M629 212c-3 -23 -15 -48 -28 -70c-19 -31 -69 -94 -119 -129c-21 -14 -44 -23 -62 -23c-64 0 -44 81 -28 114c7 15 16 30 25 44c9 15 71 100 93 100c6 0 18 -3 17 -11c-1 -10 -53 -69 -90 -123c-8 -12 -70 -113 -15 -113c13 0 30 11 40 19c53 39 111 126 118 185
c3 26 -4 51 -31 61c-11 2 -4 10 0 10c34 0 85 -22 80 -64zM886 212c-3 -23 -15 -48 -28 -70c-19 -31 -69 -94 -120 -129c-20 -14 -43 -23 -61 -23c-64 0 -44 81 -28 114c7 15 16 30 25 44c9 15 71 100 93 100c6 0 18 -3 17 -11c-2 -10 -53 -69 -90 -123
c-8 -12 -70 -113 -15 -113c13 0 30 11 40 19c53 39 111 126 118 185c3 26 -4 51 -32 61c-10 2 -3 10 1 10c33 0 85 -22 80 -64zM72 -25c123 155 388 458 556 575c-106 -16 -194 -14 -259 0c45 -15 8 -83 -6 -106c-19 -32 -69 -95 -120 -130c-20 -14 -43 -23 -61 -23
c-65 0 -44 81 -28 114c7 15 16 30 25 44c9 15 71 100 93 100c6 0 17 -3 16 -11c-1 -10 -52 -68 -90 -123c-7 -12 -70 -113 -14 -113c13 0 30 11 40 19c53 40 111 126 118 185c3 26 -4 51 -32 61c7 7 16 13 27 10c62 -18 136 -17 205 -13c56 3 133 18 180 31
c29 -3 -7 -53 -32 -57c-171 -117 -479 -445 -586 -566c-8 -9 -40 -7 -32 3z" />
    <glyph glyph-name="apple" unicode="&#xf8ff;" horiz-adv-x="401" 
d="M282 -31c-22 0 -33 7 -40 12c-18 11 -53 11 -70 0c-7 -5 -18 -12 -40 -12c-23 0 -40 19 -61 44c-49 58 -74 168 -35 238c35 64 92 64 105 59c9 -4 30 -11 47 -16c14 -4 25 -3 38 1c16 4 37 11 46 15c12 5 69 8 101 -45c-24 -13 -51 -43 -49 -93c2 -39 26 -72 61 -85
c-17 -52 -57 -118 -103 -118zM209 305c-4 12 0 44 18 72c18 26 54 41 64 37c23 -32 -14 -113 -82 -109z" />
    <glyph glyph-name="dotlessi" unicode="&#x131;" horiz-adv-x="192" 
d="M247 140c-2 -10 -8 -18 -13 -25c-42 -53 -96 -118 -166 -118c-14 0 -23 4 -23 19c0 27 28 78 39 102l51 108c-29 -31 -78 -90 -96 -114c-9 -13 -9 8 -2 16c38 47 98 127 109 143c14 2 51 8 62 17c8 8 12 -1 6 -8c-13 -15 -56 -101 -83 -152c-19 -36 -34 -73 -34 -88
c0 -8 5 -14 14 -14c26 0 80 58 112 96l22 25c1 -1 2 -5 2 -7z" />
    <glyph glyph-name="circumflex" unicode="&#x2c6;" horiz-adv-x="282" 
d="M61 342c39 26 79 54 113 84h12c13 -22 40 -51 68 -70c5 -3 10 -8 18 -8v-3c-4 -1 -19 -8 -21 -9c-13 -6 -36 17 -42 22c-15 13 -29 30 -39 42c0 1 -2 2 -6 0c-12 -11 -69 -51 -89 -58c-5 -2 -10 -1 -14 0z" />
    <glyph glyph-name="tilde" unicode="&#x2dc;" horiz-adv-x="277" 
d="M256 401h10c-8 -27 -28 -50 -46 -50c-40 0 -66 25 -101 25c-21 0 -27 -11 -30 -18h-12c6 19 28 43 51 43c32 0 45 -19 87 -22c26 -3 35 14 41 22z" />
    <glyph glyph-name="macron" unicode="&#xaf;" horiz-adv-x="250" 
d="M286 393c-1 -3 -4 -5 -7 -5c-51 0 -103 -9 -154 -9c-6 0 -15 13 -14 18l1 2c15 4 66 5 83 5c19 0 74 -3 88 -9c1 -1 3 -1 3 -2z" />
    <glyph glyph-name="breve" unicode="&#x2d8;" horiz-adv-x="228" 
d="M266 368c-19 -23 -67 -48 -109 -48c-21 0 -58 3 -58 32c0 6 6 20 12 20h15c-16 -26 14 -37 37 -37c38 0 72 24 87 33h16z" />
    <glyph glyph-name="dotaccent" unicode="&#x2d9;" horiz-adv-x="193" 
d="M106 299c10 -6 21 -14 33 -12c9 2 12 -3 2 -13c-12 -10 -26 -24 -38 -23c-14 1 -28 12 -36 22c-2 3 36 28 39 26z" />
    <glyph glyph-name="ring" unicode="&#x2da;" horiz-adv-x="194" 
d="M219 406c-6 -37 -50 -73 -90 -73c-20 0 -33 11 -30 30c3 17 22 52 43 57c10 15 30 26 47 26c24 0 34 -21 30 -40zM199 404c2 11 1 27 -14 27c-9 0 -18 -5 -26 -10l8 -4c-12 -21 -32 -28 -37 -54c-1 -8 1 -15 11 -15c28 0 54 33 58 56z" />
    <glyph glyph-name="cedilla" unicode="&#xb8;" horiz-adv-x="190" 
d="M140 1c-28 -7 -52 -29 -52 -53c0 -31 41 -49 35 -87c-10 -54 -91 -76 -140 -76c-4 0 -7 4 -6 8c0 4 6 6 9 6c14 2 89 -6 100 53c4 24 -33 53 -33 83c0 33 29 66 67 66h20z" />
    <glyph glyph-name="hungarumlaut" unicode="&#x2dd;" horiz-adv-x="385" 
d="M260 466c0 -15 -62 -118 -74 -129c-1 -1 -10 -3 -10 -3c13 32 18 46 30 78c3 10 21 60 29 65c4 3 26 -6 25 -11zM352 466c0 -15 -62 -118 -74 -129c-1 -1 -10 -3 -10 -3c13 32 18 46 30 78c3 10 21 60 29 65c4 3 26 -6 25 -11z" />
    <glyph glyph-name="ogonek" unicode="&#x2db;" horiz-adv-x="198" 
d="M228 -94c-16 -23 -55 -55 -94 -71c-42 -17 -50 1 -50 25c0 45 48 125 77 144h21c-24 -12 -51 -74 -51 -114c0 -15 5 -31 31 -21c22 9 51 40 71 57c3 3 -2 -16 -5 -20z" />
    <glyph glyph-name="caron" unicode="&#x2c7;" horiz-adv-x="289" 
d="M255 359c-39 -26 -79 -54 -113 -84h-12c-13 22 -40 51 -68 70c-5 3 -10 8 -18 8v3c4 1 19 8 21 9c13 6 36 -17 42 -22c15 -13 29 -30 39 -42c0 -1 2 -2 6 0c12 11 69 51 89 58c5 2 10 1 14 0z" />
    <glyph glyph-name="uni00AD" unicode="&#xad;" horiz-adv-x="249" 
d="M242 171c4 0 -15 -28 -22 -27c-16 1 -33 4 -59 4c-31 0 -55 0 -85 -3c-4 -1 15 28 22 27c15 -3 40 -3 65 -4c35 0 61 2 79 3z" />
    <glyph glyph-name="A.sm" horiz-adv-x="417" 
d="M409 16l-12 -17c-41 2 -67 2 -72 2h-18c-6 0 -14 -1 -23 -1c-22 -1 -40 -1 -42 -1l10 18c27 0 41 4 42 14c0 1 -1 31 -8 91v1h-127c-1 0 -2 -1 -3 -2h1c-30 -47 -47 -77 -54 -90v-2c-2 -9 14 -12 46 -12l-14 -18c-13 1 -34 2 -60 2c-25 0 -46 0 -66 -3l11 19
c22 3 35 5 41 8c9 6 18 16 29 32l146 244c8 13 14 26 16 35l1 4c-1 2 0 4 1 6c1 3 3 6 6 8c14 10 28 20 43 29l19 -164l9 -59c9 -61 17 -106 23 -122c2 -10 10 -17 23 -18c8 0 18 -3 32 -4zM281 153l-20 141l-89 -146h110s-1 2 -1 5z" />
    <glyph glyph-name="B.sm" horiz-adv-x="365" 
d="M360 118c-17 -78 -87 -119 -173 -119c-20 0 -25 4 -65 4c-20 0 -29 1 -115 -5l13 19c29 0 52 7 58 21c21 48 63 298 63 305c0 13 -11 14 -26 14c-7 0 -15 -1 -24 -2l12 19c25 -3 48 -4 69 -4c24 0 55 3 82 3c62 0 98 -18 98 -59c0 -37 -28 -78 -67 -96
c52 -7 78 -30 78 -69c0 -9 -1 -20 -3 -31zM311 118c1 7 2 14 2 20c0 39 -29 62 -70 62h-78l-11 -54c-9 -45 -17 -82 -19 -107c0 -19 10 -20 59 -20c55 0 105 38 117 99zM181 278l-12 -58h50c54 0 88 45 88 79c0 30 -23 49 -58 49c-50 0 -57 -15 -68 -70z" />
    <glyph glyph-name="C.sm" horiz-adv-x="402" 
d="M463 350l-5 -9c-13 0 -35 -56 -40 -78c0 -1 0 -1 4 -6l-20 1c7 23 7 22 7 32c0 32 -44 58 -118 58c-102 0 -179 -61 -179 -186c0 -84 45 -138 127 -138c42 0 93 12 153 37l-3 -18c-86 -47 -101 -50 -157 -50c-114 0 -180 55 -180 150c0 138 107 227 248 234h17
c53 0 103 -10 146 -27z" />
    <glyph glyph-name="D.sm" horiz-adv-x="426" 
d="M434 289c7 -18 11 -37 11 -57c0 -159 -136 -233 -256 -233c-28 0 -52 4 -82 4c-27 0 -66 -2 -105 -5l13 20c6 -2 8 -2 10 -2c24 0 48 9 54 23c18 41 60 292 60 302c0 12 -9 14 -24 14c-7 0 -15 -1 -25 -3l14 20c26 -2 51 -4 73 -4c38 0 67 5 91 5c89 0 144 -29 166 -84z
M382 192c3 13 4 25 4 36c0 79 -61 123 -136 123c-68 0 -58 -20 -84 -142l-6 -27c-9 -38 -15 -83 -24 -137c4 -16 25 -25 63 -25c108 0 164 67 183 172z" />
    <glyph glyph-name="E.sm" horiz-adv-x="332" 
d="M326 83l1 -5c-16 -28 -23 -82 -61 -82h-7c-82 6 -127 9 -138 9c-22 0 -19 -2 -59 -2l-61 -5l11 19h6c1 0 3 -1 5 -1c51 0 55 6 84 139c36 164 31 134 31 178c0 20 -8 24 -32 24c-5 0 -10 -1 -16 -1l11 20c19 -4 52 -6 76 -6c45 0 108 2 158 2c3 0 6 -3 6 -8
c0 -4 -3 -12 -8 -22l-4 -10l-4 -9l-13 -35l-19 3c14 26 17 34 17 37c0 13 -16 16 -67 16c-19 0 -32 -1 -42 -1c-8 -22 -21 -67 -36 -137c38 0 76 2 113 2c5 0 8 -2 8 -7c0 -14 -13 -27 -16 -53l-20 -4l7 18v3c0 24 -79 18 -97 18c-15 -74 -23 -123 -24 -142
c0 -7 2 -11 5 -13l1 1c4 -3 32 -7 58 -7c77 0 96 18 117 65z" />
    <glyph glyph-name="F.sm" horiz-adv-x="313" 
d="M364 372c4 0 6 -2 6 -6c0 -6 -8 -25 -18 -43l-13 -35l-18 4c10 16 17 30 17 37c0 14 -15 15 -58 15h-22c-30 0 -48 0 -57 -1c-8 -21 -21 -68 -36 -137c38 0 78 2 116 2c5 0 7 -2 7 -6s-8 -16 -8 -25c-7 -14 -3 0 -7 -30l-19 3c4 4 6 15 6 17c0 21 -82 16 -100 16l-16 -84
c-5 -24 -7 -45 -7 -61c0 -17 31 -21 58 -21l-13 -19c-14 4 -44 6 -86 6c-13 0 -49 -3 -96 -6l12 19h5c1 0 3 -1 6 -1c53 0 60 28 80 120l15 62c15 71 22 116 22 138c0 17 -11 22 -35 22c-5 0 -11 -1 -17 -2l13 20c26 -4 57 -6 76 -6c54 0 127 2 187 2z" />
    <glyph glyph-name="G.sm" horiz-adv-x="460" 
d="M465 185l-9 -18c-33 0 -40 -26 -47 -68l-5 -20c-6 -22 -6 -41 -7 -53c0 -5 0 -8 1 -11l-6 -6c-8 1 -11 1 -15 1c-13 0 -92 -11 -136 -11c-50 0 -90 9 -120 29h1c-37 24 -56 63 -56 115c0 134 104 226 245 231h16c53 0 102 -8 145 -25l-3 -10c-13 0 -35 -53 -41 -77l-1 -6
l-15 2c8 18 7 21 7 29c0 34 -42 59 -117 59c-98 0 -180 -60 -180 -189c0 -84 56 -134 152 -134c20 0 45 3 69 7c7 19 24 83 24 110c0 23 -24 20 -43 20h-14l7 20c16 -5 35 -6 56 -6c35 0 66 4 92 11z" />
    <glyph glyph-name="H.sm" horiz-adv-x="489" 
d="M485 17l-15 -19c-9 3 -38 5 -84 6c-6 0 -25 -2 -56 -3l-41 -2l12 18h7c2 0 4 -1 6 -1c62 0 61 34 84 140l5 26h-152c-9 -1 -23 0 -42 -1l-37 -2l-5 -23c-12 -56 -18 -96 -19 -115c0 -21 22 -24 59 -24l-16 -19c-8 3 -38 5 -84 6c-6 -1 -26 0 -61 -3l-35 -3l12 19h6
c1 0 3 -1 5 -1c21 -1 45 8 54 25c24 45 63 289 63 299c0 16 -10 19 -26 19c-7 0 -16 -1 -26 -3l14 20c15 -2 42 -4 76 -6c29 2 64 4 88 7l-18 -18h-8c-15 0 -28 -5 -36 -13v1c-8 -11 -20 -57 -37 -138c1 0 5 0 11 -1l24 -2c18 -2 35 -3 43 -2c15 0 42 0 80 2l49 2
c10 1 19 1 24 1c14 65 20 109 20 130c0 17 -8 20 -27 20c-7 0 -14 -1 -23 -3l11 20c13 -2 40 -4 76 -6c31 2 64 4 89 7l-18 -18h-9c-15 0 -27 -4 -34 -13v1c-6 -7 -27 -85 -42 -157l-7 -34c-12 -59 -19 -100 -19 -118c0 -19 32 -21 59 -21z" />
    <glyph glyph-name="I.sm" horiz-adv-x="238" 
d="M216 17l-14 -19c-10 3 -39 5 -84 6c-6 0 -25 -2 -56 -3l-41 -2l12 18h7c2 0 4 -1 6 -1c27 0 46 7 52 22c23 56 63 291 63 302c0 13 -10 18 -23 18c-5 0 -17 -2 -27 -4l11 22c13 -2 40 -4 76 -6c31 2 64 4 88 7l-17 -20h-10c-37 0 -44 -10 -71 -141l-12 -57
c-11 -62 -18 -103 -18 -121c0 -19 30 -21 58 -21z" />
    <glyph glyph-name="J.sm" horiz-adv-x="226" 
d="M314 377l-18 -18h-8c-27 0 -40 10 -62 -99c-50 -210 -39 -269 -136 -269c-21 0 -48 -1 -80 19l2 6c7 0 17 25 32 76l14 -4c-8 -18 -10 -30 -10 -47c0 -19 9 -28 26 -28c34 0 54 22 67 72c30 114 47 238 47 257c0 14 -10 17 -26 17c-7 0 -15 -1 -24 -3l12 20
c12 -2 40 -4 76 -6c30 2 64 4 88 7z" />
    <glyph glyph-name="K.sm" horiz-adv-x="446" 
d="M452 24l-13 -18c-27 -6 -50 -9 -65 -9c-35 0 -66 16 -83 44l-92 154c106 84 160 133 162 146c0 10 -7 15 -27 15c-6 0 -11 0 -23 -2l17 18h6c8 -1 30 -3 64 -5l85 6l-14 -15c-30 0 -69 -21 -222 -150l52 -79c37 -57 91 -107 138 -107c2 0 6 0 15 2zM218 17l-15 -19
c-10 3 -39 5 -85 6c-5 0 -24 -2 -56 -3l-41 -2l13 18h5c2 0 4 -1 6 -1c52 0 62 19 87 144l12 60c12 60 19 100 19 119c0 18 -10 20 -28 20c-7 0 -15 -1 -24 -3l13 20c12 -2 40 -4 76 -6c29 2 63 4 88 7l-18 -18h-9c-14 0 -26 -4 -35 -13v1c-8 -12 -22 -58 -38 -136l-13 -63
c-10 -50 -16 -88 -17 -110c2 -17 24 -21 60 -21z" />
    <glyph glyph-name="L.sm" horiz-adv-x="322" 
d="M326 83l1 -5c-12 -20 -27 -68 -38 -76h1c-5 -4 -12 -6 -22 -6h-9c-79 6 -127 9 -145 9c-5 0 -11 -1 -15 -1h-10c-4 0 -13 -1 -27 -1l-61 -5l11 19h7c1 0 2 -1 4 -1c21 0 46 8 54 25c18 36 62 282 62 298c0 17 -8 20 -26 20c-6 0 -15 -1 -24 -3l12 20c12 -2 40 -4 76 -6
c30 2 64 4 88 7l-18 -18h-9c-33 0 -42 -1 -71 -141c-10 -46 -29 -121 -29 -169c0 -8 1 -15 5 -19h-1c5 -4 32 -8 59 -8c78 0 97 23 116 65z" />
    <glyph glyph-name="M.sm" horiz-adv-x="536" 
d="M528 19l-15 -21c-10 3 -38 5 -83 6c-5 0 -23 -1 -55 -3l-39 -2l13 18c5 -1 7 -1 10 -1c59 0 57 13 73 139c7 31 5 78 18 137c-46 -59 -167 -257 -186 -306l-14 -6c0 9 -4 14 -11 23v2c-8 10 -12 17 -13 24l-3 37l-3 11c-5 50 -13 104 -31 220c-48 -142 -67 -236 -67 -256
c0 -15 8 -24 34 -24c3 0 7 0 18 3l-15 -21c-8 2 -30 3 -68 5c-32 -1 -58 -5 -72 -8l13 20c22 0 36 6 43 18c37 86 67 194 98 296c-1 12 -9 17 -24 17c-6 0 -10 0 -19 -2l14 18c1 0 3 -1 5 -1c5 0 12 1 20 1c5 0 12 -1 18 -2h11c11 0 25 -1 42 -2c-2 -6 -2 -13 -2 -22
c0 -79 10 -132 33 -276h-1c1 -2 2 -3 2 -3c17 23 47 73 93 152c68 115 75 149 91 149h18c7 -1 12 -1 13 -1c18 1 45 3 82 8l-16 -18c-3 0 -5 1 -8 1c-12 0 -24 -6 -32 -11c-10 -21 -44 -262 -44 -300c1 -14 18 -21 38 -21c6 0 13 1 21 2z" />
    <glyph glyph-name="N.sm" horiz-adv-x="451" 
d="M522 379l-13 -16c-23 0 -38 -7 -43 -19c-6 -14 -80 -295 -80 -371l-13 -7c-5 14 -27 47 -64 97l-74 99c-22 27 -48 61 -85 114c-29 -90 -45 -211 -45 -231s10 -28 34 -28c4 0 9 0 22 2l-16 -20c-24 2 -52 4 -80 4c-23 0 -45 -2 -65 -6l13 20c27 0 42 8 44 18
c24 94 40 148 43 163c16 76 23 125 23 145c0 14 -11 16 -27 16c-7 0 -15 -1 -24 -3l13 20c11 -2 21 -2 32 -2c12 0 25 0 40 1c21 -43 82 -136 117 -182h-1l36 -43c19 -22 37 -46 55 -67c20 62 53 237 53 257c0 13 -6 21 -27 21c-3 0 -11 -1 -24 -3l12 19c9 -3 33 -5 68 -7
c35 2 60 5 76 9z" />
    <glyph glyph-name="O.sm" horiz-adv-x="445" 
d="M462 192c-28 -135 -110 -203 -243 -203c-111 0 -165 46 -165 138c0 165 106 252 246 252c112 0 168 -48 168 -133c0 -17 -2 -35 -6 -54zM245 14c97 14 166 108 166 210c0 80 -44 131 -116 131c-7 0 -14 -1 -21 -2h1c-98 -12 -163 -100 -163 -205c0 -81 45 -135 115 -135
c5 0 12 0 18 1z" />
    <glyph glyph-name="P.sm" horiz-adv-x="324" 
d="M325 220c-32 -38 -75 -57 -132 -57c-4 0 -20 -1 -36 -1l-3 -16c-12 -59 -20 -96 -19 -114c0 -5 17 -14 51 -14c6 0 12 0 17 2l-14 -21c-19 0 -62 5 -81 5l-101 -5l11 18c31 0 54 7 60 21c19 45 62 291 62 303c0 14 -8 16 -25 16c-7 0 -15 -1 -24 -2l12 19l75 -5
c-2 0 52 5 86 5c70 0 95 -27 95 -68c0 -29 -12 -63 -34 -86zM170 225l-9 -45c13 0 30 1 31 1c68 0 119 52 119 103c0 38 -22 64 -63 64c-63 0 -57 -29 -78 -123z" />
    <glyph glyph-name="Q.sm" horiz-adv-x="440" 
d="M518 -82l-12 -18c-38 -11 -66 -17 -87 -17c-26 0 -49 7 -65 26l-54 60c-7 6 -16 16 -29 26c-17 -3 -33 -5 -54 -5c-109 0 -164 46 -164 137c0 166 102 253 247 253c107 0 168 -44 168 -135c0 -125 -71 -212 -156 -240c89 -53 109 -92 169 -92c10 0 23 2 37 5zM244 15
c94 11 166 106 166 211c0 79 -42 130 -117 130c-112 0 -183 -103 -183 -208c0 -78 49 -134 116 -134c5 0 13 1 18 1z" />
    <glyph glyph-name="R.sm" horiz-adv-x="424" 
d="M425 15l-13 -17c-15 -2 -30 -3 -43 -3c-44 0 -76 21 -93 52l-38 82c-12 25 -16 36 -27 43c-9 -1 -25 -1 -32 -1l12 16c66 0 120 44 120 108c0 13 -3 23 -10 33v-1c-11 14 -29 21 -52 21c-62 0 -59 -32 -77 -123l-16 -79c-13 -63 -20 -99 -19 -112c2 -11 23 -16 62 -17
l-16 -19c-23 4 -47 6 -71 6c-20 0 -60 -3 -110 -6l12 19c6 -1 9 -1 11 -1c25 0 48 8 55 24c22 47 62 292 62 302c0 14 -10 15 -26 15c-7 0 -15 -1 -24 -2l12 19l76 -5c5 0 70 5 90 5c61 0 93 -19 93 -64c0 -49 -47 -109 -93 -121c29 -96 96 -174 155 -174z" />
    <glyph glyph-name="S.sm" horiz-adv-x="244" 
d="M288 348c-13 -20 -20 -44 -25 -70l-19 8c7 12 12 24 12 35c0 22 -26 33 -49 33c-40 0 -77 -33 -77 -77c0 -28 2 -31 70 -80c43 -28 50 -52 50 -79c0 -85 -89 -129 -163 -129c-29 0 -50 4 -62 12h1c-3 1 -4 3 -4 7c0 29 14 59 17 80l22 7c-6 -26 -9 -42 -10 -48
c0 -21 34 -34 61 -34c43 0 80 27 80 87c0 27 -12 48 -40 67c-34 23 -53 37 -53 37h1c-13 12 -19 27 -19 45c0 70 72 128 147 128c32 0 61 -10 61 -23v-3z" />
    <glyph glyph-name="T.sm" horiz-adv-x="352" 
d="M227 154c-10 -53 -20 -93 -20 -116c0 -17 26 -21 61 -21l-14 -19c-15 4 -44 6 -85 6c-15 0 -51 -3 -97 -6l12 19h6c3 0 4 -1 7 -1c66 0 65 59 80 134l17 77l12 66l1 7c4 24 6 38 6 42c0 3 -6 5 -14 5c-51 0 -78 -4 -85 -12c-12 -14 -21 -33 -28 -59l-16 7l31 93
c49 -4 98 -6 147 -6c61 0 123 3 173 7c-20 -31 -41 -88 -44 -100l-16 5c9 22 14 35 14 48c0 12 -21 17 -88 17c-8 0 -12 -3 -16 -7v1c-5 -9 -13 -47 -28 -114z" />
    <glyph glyph-name="U.sm" horiz-adv-x="461" 
d="M536 377l-18 -18h-9c-15 0 -27 -4 -35 -13v1c-8 -10 -16 -38 -25 -82l-24 -114c-23 -99 -92 -162 -198 -162c-94 0 -138 33 -138 99c0 12 1 24 4 38l20 92c13 59 18 98 19 119c0 19 -8 22 -27 22c-6 0 -15 -1 -24 -3l13 20c14 -2 42 -4 76 -6c29 2 63 4 87 7l-17 -18h-8
c-37 0 -44 -6 -72 -138h-7v-6c0 -10 -1 -36 -10 -76c-4 -16 -5 -31 -5 -44c0 -55 31 -82 93 -82c79 0 141 41 159 129l18 88c8 42 14 73 13 94c0 30 -7 34 -33 34c-7 0 -16 -1 -26 -3l12 20l74 -5c29 2 63 4 88 7z" />
    <glyph glyph-name="V.sm" horiz-adv-x="428" 
d="M506 376l-14 -18c-36 0 -59 -12 -164 -177c-55 -87 -95 -160 -110 -195l-12 -5c-2 8 -27 47 -27 56v2c-1 8 0 18 -3 29l-5 34v-1l-22 156c-8 57 -15 89 -18 92c-6 6 -15 9 -31 9c-4 0 -9 0 -19 -2l12 18c3 0 14 0 24 -1c32 0 54 -3 52 -2c22 1 56 2 86 6l-16 -21h-7
c-44 0 -40 -18 -40 -39c0 -33 5 -89 20 -167l4 -21l10 -66c0 -1 0 -2 1 -3c17 24 47 72 88 144c47 82 72 129 72 139c0 9 -10 14 -28 14c-3 0 -5 -1 -8 -1h-13l18 18l41 -2c15 -1 23 -5 24 -7c11 7 20 3 85 11z" />
    <glyph glyph-name="W.sm" horiz-adv-x="595" 
d="M661 376l-12 -18c-37 0 -59 -11 -165 -177c-55 -87 -96 -160 -110 -195l-12 -5c-2 7 -26 40 -26 49l-5 38l-11 81v-1l-2 16c-54 -89 -86 -147 -99 -178l-13 -5c-2 6 -25 41 -26 49v2c0 6 -1 22 -3 36l-5 34v-1l-22 156c-8 57 -15 89 -19 92c-5 6 -14 9 -30 9
c-5 0 -9 0 -20 -2l13 18c3 0 14 0 23 -1c34 0 54 -3 53 -2c22 1 55 2 86 6l-17 -21h-7c-43 0 -39 -18 -39 -40c0 -33 6 -88 19 -166c1 -6 4 -12 5 -21c1 -7 2 -60 11 -69l1 2c15 21 44 67 85 136c-25 160 -22 156 -42 156c-5 0 -10 -1 -15 -2l17 20h51c17 0 25 -4 25 -8
c-1 -5 -1 -10 -1 -17c0 -18 2 -44 4 -79c48 83 44 104 72 104c7 0 14 -1 25 -1c7 0 16 0 27 1l-15 -18c-11 0 -18 16 -104 -125c9 -82 12 -84 24 -170c16 22 46 70 89 145c47 82 72 129 72 139c0 9 -9 14 -28 14c-3 0 -6 -1 -8 -1h-14l18 18l41 -2c13 -1 23 -5 25 -7
c11 8 12 3 84 11z" />
    <glyph glyph-name="X.sm" horiz-adv-x="428" 
d="M426 17l-13 -20c-29 3 -53 6 -74 6h-21c-26 -1 -45 -1 -75 -6l11 20c27 0 39 5 39 17c0 17 -24 67 -52 128c-60 -70 -95 -113 -103 -132v-3c0 -7 8 -9 26 -9h18l-14 -19c-20 2 -50 4 -90 4c-19 0 -43 -2 -73 -5l11 19c97 0 114 48 214 166c-45 107 -72 161 -80 166
c-8 6 -51 7 -51 10c0 1 1 2 3 4l5 11c19 0 70 -3 80 -3c24 0 54 1 88 6l-12 -21h-9c-19 0 -29 -3 -31 -12l-1 -2c2 -17 15 -56 43 -119c52 62 83 100 98 121c0 9 -19 13 -58 13l14 17c-1 0 70 -2 78 -2c2 0 35 0 87 2l-15 -17l-32 -4c-41 -5 -81 -58 -163 -153
c36 -80 62 -135 81 -164c7 -11 32 -16 71 -19z" />
    <glyph glyph-name="Y.sm" horiz-adv-x="394" 
d="M275 204c-29 -37 -45 -95 -52 -166c0 -18 28 -21 61 -21l-13 -19c-15 4 -44 6 -86 6c-14 0 -50 -3 -96 -6l12 19h6c2 0 4 -1 7 -1c28 0 47 8 54 22c14 41 26 90 26 129c0 53 -40 162 -60 182c-4 3 -54 9 -54 10s1 2 3 4l5 11c3 0 22 0 50 -2h21c9 0 17 -1 27 -1
s41 -120 54 -173c16 26 39 57 70 97c48 62 51 76 85 76l72 3l-14 -20h-11c-56 0 -98 -60 -167 -150z" />
    <glyph glyph-name="Z.sm" horiz-adv-x="332" 
d="M330 88l1 -5c-8 -14 -30 -73 -42 -81h1c-5 -4 -12 -6 -22 -6h-9c-23 2 -80 5 -171 5c-22 0 -40 -1 -64 -7l-2 9c1 11 58 76 113 143l62 79c32 41 61 78 87 120c0 1 0 2 -1 2c-50 0 -127 0 -148 -7h1c-27 -11 -28 -50 -28 -54l-23 -12c6 30 12 51 18 87l11 11
c45 -3 86 -4 120 -4h37c6 0 37 1 89 4l-1 -14c-19 -21 -50 -59 -92 -110l-94 -120l-74 -103c-1 -1 -2 -2 -2 -3c183 9 188 -8 224 70z" />
    <glyph glyph-name="A.sm_E.sm" horiz-adv-x="552" 
d="M540 83l1 -5c-16 -28 -23 -82 -61 -82h-7c-82 6 -127 9 -138 9c-22 0 -19 -2 -59 -2l-61 -5l11 19h6c1 0 3 -1 5 -1c46 0 53 3 77 107h-133c-1 0 -2 -1 -3 -2h1c-39 -47 -61 -77 -70 -90l-1 -2c0 -1 -1 -2 -1 -2c0 -8 16 -10 45 -10l-17 -18c-13 1 -34 2 -60 2
c-25 0 -46 0 -66 -3l14 19c54 7 51 10 77 40l235 299c-4 0 -9 1 -14 1s-11 -1 -17 -1l11 20c19 -4 52 -6 76 -6c45 0 108 2 158 2c3 0 6 -3 6 -8c0 -4 -3 -12 -8 -22l-4 -10l-17 -44l-19 3l17 34v3c0 13 -16 16 -67 16c-19 0 -32 -1 -42 -1c-8 -22 -21 -67 -36 -137
c38 0 76 2 113 2c5 0 8 -2 8 -7c0 -3 -9 -15 -9 -24l-5 -13c0 -2 -1 -8 -2 -16l-20 -4l7 18v3c0 24 -79 18 -97 18c-15 -74 -23 -123 -24 -142c0 -7 2 -11 5 -13l1 1c4 -3 32 -7 58 -7c77 0 96 18 117 65zM342 258c7 35 10 61 10 76v9l-154 -195h121l2 7c14 62 21 96 21 103
z" />
    <glyph glyph-name="O.sm_E.sm" horiz-adv-x="613" 
d="M604 83l1 -5c-16 -28 -23 -82 -61 -82h-7c-82 6 -127 9 -138 9c-22 0 -19 -2 -59 -2l-41 -3c-23 -7 -49 -11 -80 -11c-111 0 -165 46 -165 138c0 165 106 252 246 252c58 0 98 -9 155 -9c45 0 108 2 158 2c3 0 6 -3 6 -8c0 -4 -3 -12 -8 -22l-4 -10l-17 -44l-19 3l17 34
v3c0 13 -16 16 -67 16c-19 0 -32 -1 -42 -1c-8 -22 -21 -67 -36 -137c38 0 76 2 113 2c5 0 8 -2 8 -7c0 -3 -9 -15 -9 -24l-5 -13c0 -2 -1 -8 -2 -16l-20 -4l7 18v3c0 24 -79 18 -97 18c-15 -74 -23 -123 -24 -142c0 -7 2 -11 5 -13l1 1c4 -3 32 -7 58 -7c77 0 96 18 117 65
zM227 13c89 0 138 28 158 142c9 54 14 103 14 132c0 55 -48 68 -104 68c-7 0 -14 -1 -21 -2h1c-98 -12 -163 -100 -163 -205c0 -81 45 -135 115 -135z" />
    <glyph glyph-name="A.roman" horiz-adv-x="596" 
d="M582 14l-11 -16c-60 3 -94 4 -102 4s-117 -4 -112 -4l9 16c40 0 64 9 64 29c0 9 -4 52 -12 130v2c0 3 -2 4 -5 4h-184c-3 0 -6 -2 -9 -6c-53 -83 -79 -129 -79 -139c0 -13 21 -20 62 -20l-12 -16c-20 2 -49 4 -85 4c-35 0 -64 -1 -87 -4l10 16c64 9 74 17 101 61l215 355
c14 24 24 46 24 58v3c0 15 40 38 63 52c9 -94 19 -172 28 -232l12 -85c13 -91 25 -150 34 -178c10 -30 36 -28 76 -34zM413 212l-32 217c-1 3 -2 4 -3 4s-2 -1 -3 -3l-132 -218c-1 -2 -1 -3 -1 -4s1 -2 3 -2h162c4 0 6 1 6 4v2z" />
    <glyph glyph-name="B.roman" horiz-adv-x="522" 
d="M515 167c-22 -106 -116 -167 -240 -167c-25 0 -54 4 -98 4c-27 0 -61 2 -160 -6l11 16c45 0 75 12 87 36c27 54 92 418 92 440c0 26 -17 31 -40 31c-8 0 -17 -1 -27 -3l10 15c31 -4 63 -6 96 -6c39 0 83 5 119 5c88 0 138 -26 138 -79c0 -63 -47 -121 -112 -146
c84 -4 129 -37 129 -99c0 -12 -2 -26 -5 -41zM454 167c2 11 3 21 3 31c0 59 -44 93 -106 93h-118l-18 -84c-15 -67 -23 -119 -27 -156c0 -29 4 -34 89 -34c90 0 160 62 177 150zM255 393c-4 -15 -7 -31 -19 -84h78c86 0 135 74 135 121c0 45 -35 76 -89 76
c-26 0 -43 0 -51 -2c-29 -5 -41 -49 -54 -111z" />
    <glyph glyph-name="C.roman" horiz-adv-x="575" 
d="M662 501l-3 -6c-10 0 -61 -87 -61 -120c0 -1 0 -2 1 -2l-11 2c7 16 8 32 8 44c0 47 -64 87 -175 87c-154 0 -269 -96 -269 -283c0 -122 74 -198 189 -198c63 0 137 17 220 51l-4 -15c-123 -64 -143 -71 -222 -71c-160 0 -257 77 -257 211c0 209 162 337 378 337
c76 0 145 -13 206 -37z" />
    <glyph glyph-name="D.roman" horiz-adv-x="609" 
d="M623 412c9 -25 14 -52 14 -81c0 -20 -2 -39 -6 -60c-41 -197 -202 -272 -358 -272c-36 0 -66 5 -120 5c-39 0 -87 -2 -144 -6l11 16c3 -1 7 -1 12 -1c16 -1 32 2 46 8c45 17 47 35 81 199c31 146 46 235 46 270c0 23 -16 27 -38 27c-8 0 -18 -1 -28 -3l11 17
c39 -4 73 -7 102 -7c55 0 99 8 133 8c127 0 206 -40 238 -120zM558 275c3 18 5 35 5 51c0 121 -91 184 -201 184c-41 0 -66 -4 -75 -12c-19 -28 -54 -173 -98 -438c7 -27 38 -41 96 -41c160 0 242 98 273 256z" />
    <glyph glyph-name="E.roman" horiz-adv-x="474" 
d="M469 110c-28 -46 -38 -116 -85 -116c-4 0 -7 0 -11 1c-118 8 -184 12 -199 12c-45 0 -23 -1 -166 -9l9 16c3 0 7 -1 12 -1c37 0 75 16 86 40c10 22 74 319 74 316c11 54 16 92 16 114c0 30 -16 37 -49 37c-6 0 -12 -1 -19 -1l10 16c27 -5 62 -7 107 -7c72 0 148 2 228 2
c3 0 6 -3 6 -9c0 -2 -23 -52 -23 -55l-18 -47l-16 3c18 34 22 45 22 50c0 21 -24 29 -102 29c-29 0 -51 -2 -64 -3c-14 -30 -33 -99 -56 -208l170 2c4 0 6 -2 6 -5c0 -7 -15 -34 -22 -72l-17 -4c1 2 9 15 9 26c0 36 -99 29 -129 29h-22c-25 -119 -36 -191 -36 -216
c0 -16 9 -28 97 -28c115 0 148 37 173 92z" />
    <glyph glyph-name="F.roman" horiz-adv-x="447" 
d="M524 530c4 0 6 -2 6 -5c0 -4 -21 -49 -25 -58l-18 -47l-16 3c14 25 23 40 23 52c0 21 -22 26 -89 26c-60 0 -103 -2 -118 -3c-14 -30 -33 -99 -56 -208l174 2c4 0 6 -2 6 -5c0 -7 -15 -34 -22 -72l-15 3c5 9 8 15 8 21c0 32 -101 27 -134 27h-22l-25 -127
c-7 -33 -10 -62 -10 -86c0 -23 30 -38 70 -38h12l-12 -17c-19 5 -60 8 -122 8c-20 0 -65 -3 -133 -8l11 16c3 0 7 -1 12 -1c81 0 93 34 123 179l21 91c23 101 31 168 32 201c0 30 -20 36 -54 36c-6 0 -10 0 -14 -1l10 16c37 -5 73 -7 107 -7c86 0 176 2 270 2z" />
    <glyph glyph-name="G.roman" horiz-adv-x="657" 
d="M652 257l-7 -15c-29 0 -46 -12 -55 -39c-11 -32 -33 -135 -33 -170c0 -6 0 -10 1 -14l-5 -5c-5 1 -12 1 -20 1c-18 0 -134 -17 -197 -17c-159 0 -251 70 -251 203c0 192 144 326 350 333c87 0 161 -9 229 -36l-3 -5c-12 0 -60 -88 -60 -121l-10 2c5 17 8 30 8 43
c0 44 -58 86 -175 86c-149 0 -267 -95 -267 -279c0 -132 86 -200 226 -200c32 0 66 4 103 11c13 29 37 124 37 164c0 38 -40 34 -69 34h-13l7 17c23 -6 52 -8 85 -8c49 0 89 6 119 15z" />
    <glyph glyph-name="H.roman" horiz-adv-x="723" 
d="M676 15l-13 -17c-13 4 -52 7 -121 8c-10 0 -54 -3 -133 -8l11 16c4 0 9 -1 15 -1c90 0 91 39 128 209l3 17c2 14 5 22 6 25h-226c-19 0 -61 -2 -121 -4l-8 -38c-19 -90 -27 -148 -28 -172c0 -21 28 -35 70 -35h13l-14 -17c-12 4 -52 7 -120 8c-11 0 -55 -3 -133 -8l10 16
c4 0 8 -1 13 -1c39 0 75 17 86 40c32 68 90 425 90 441c0 23 -17 28 -40 28c-8 0 -17 -1 -28 -3l11 16c17 -2 52 -5 107 -7c41 2 81 4 115 8l-14 -14c-4 0 -8 1 -12 1c-50 0 -61 10 -111 -229c0 0 99 -8 118 -8c33 0 217 7 228 7c21 100 32 167 32 198c0 27 -18 31 -41 31
c-9 0 -18 -1 -28 -3l10 16c18 -2 53 -5 107 -7c42 2 81 4 115 8l-14 -14c-4 0 -8 1 -12 1c-21 0 -39 -8 -53 -21c-25 -34 -101 -412 -101 -452c0 -22 30 -35 70 -35h13z" />
    <glyph glyph-name="I.roman" horiz-adv-x="340" 
d="M288 15l-13 -17c-13 4 -53 7 -121 8c-10 0 -54 -3 -133 -8l11 16c4 0 9 -1 15 -1c43 0 70 13 81 37c34 73 93 420 93 441c0 25 -18 30 -39 30c-9 0 -19 -2 -30 -4l11 18c18 -2 53 -5 107 -7c42 2 81 4 115 8l-14 -17c-5 0 -10 1 -14 1c-60 0 -74 -34 -123 -294
c-18 -93 -29 -152 -29 -176c0 -22 30 -35 70 -35h13z" />
    <glyph glyph-name="J.roman" horiz-adv-x="323" 
d="M441 536l-14 -14c-4 0 -8 1 -12 1c-21 0 -39 -8 -54 -21c-18 -21 -38 -95 -64 -255c-33 -197 -63 -260 -168 -260c-31 0 -67 2 -113 23v3c11 0 27 36 48 109l11 -3c-9 -23 -13 -45 -13 -66c0 -30 14 -45 42 -45c51 0 85 35 104 110c44 175 69 347 69 377
c0 22 -19 27 -40 27c-9 0 -18 -1 -28 -3l10 16c18 -2 53 -5 107 -7c42 2 81 4 115 8z" />
    <glyph glyph-name="K.roman" horiz-adv-x="637" 
d="M304 15l-13 -17c-13 4 -53 7 -121 8c-10 0 -54 -3 -133 -8l11 16c3 0 7 -1 12 -1c84 0 93 27 132 214l18 87c18 89 28 147 28 177c0 27 -18 31 -41 31c-9 0 -18 -1 -28 -3l10 16c18 -2 53 -5 107 -7c42 2 81 4 115 8l-14 -14c-4 0 -8 1 -12 1c-52 0 -66 -7 -109 -221
l-20 -92c-14 -76 -25 -129 -25 -160c0 -22 30 -35 70 -35h13zM642 23l-11 -16c-37 -7 -67 -11 -90 -11c-52 0 -92 21 -116 62l-69 116c-18 30 -40 65 -63 104c169 134 233 198 233 216c0 16 -15 24 -43 24c-8 0 -15 0 -22 -1l13 14c10 -1 42 -5 99 -8c32 2 70 4 113 8
l-10 -11c-42 0 -113 -41 -328 -222c3 -5 30 -44 79 -119c51 -79 131 -157 203 -157c4 0 8 0 12 1z" />
    <glyph glyph-name="L.roman" horiz-adv-x="460" 
d="M469 110c-25 -39 -38 -116 -82 -116c-3 0 -8 0 -14 1c-114 8 -184 12 -210 12c-35 0 -31 -2 -155 -9l9 16c4 0 8 -1 13 -1c36 0 74 16 85 40c25 55 90 419 90 440c0 24 -18 29 -40 29c-9 0 -18 -1 -28 -3l10 16c18 -2 53 -5 107 -7c42 2 81 4 115 8l-14 -14
c-4 0 -8 1 -12 1c-60 0 -70 -20 -125 -297c-12 -58 -26 -124 -26 -168c0 -27 23 -36 97 -36c52 0 88 6 109 18c18 11 55 59 62 74z" />
    <glyph glyph-name="M.roman" horiz-adv-x="766" 
d="M737 16l-13 -18c-13 4 -52 7 -117 8c-10 0 -53 -3 -130 -8l11 16c4 -1 8 -1 12 -1c17 0 33 2 48 8c47 18 51 22 92 414c-68 -85 -257 -393 -282 -457l-9 -4c-1 8 -34 51 -35 66c-6 71 -18 162 -58 406c-74 -229 -105 -368 -105 -394c0 -24 17 -37 54 -37c5 0 12 0 17 1
l-12 -17c-8 2 -41 4 -96 7c-48 -2 -80 -6 -96 -9l11 16c32 0 54 9 64 31c30 66 57 142 82 226l60 205v4c0 17 -13 26 -38 26c-7 0 -13 0 -17 -1l10 15l60 -4h14c15 0 35 -1 58 -3c-1 -8 -2 -20 -2 -37c0 -10 0 -21 1 -34c4 -61 36 -367 53 -367c10 0 70 102 142 224
c90 151 109 214 125 214c9 0 45 -1 45 -1c24 1 61 4 110 10l-13 -15c-5 1 -10 1 -14 1c-20 0 -36 -7 -48 -19c-20 -36 -65 -396 -65 -438c0 -22 29 -35 64 -35c5 0 11 0 17 1z" />
    <glyph glyph-name="N.roman" horiz-adv-x="645" 
d="M742 538l-8 -10c-34 0 -56 -11 -66 -32c-8 -18 -114 -440 -117 -539l-8 -5c-7 20 -38 66 -92 138l-109 144c-31 40 -74 98 -127 174c-44 -126 -71 -320 -71 -349c0 -30 16 -45 53 -45c7 0 15 0 22 1l-14 -17c-35 4 -73 7 -112 7c-35 0 -64 -3 -86 -7l11 16
c34 0 60 13 65 32c36 136 59 216 64 237c23 107 34 177 34 209c0 26 -19 30 -42 30c-8 0 -17 -1 -27 -3l10 16c12 -2 27 -2 43 -2c17 0 35 0 57 2c117 -222 188 -289 306 -430c28 93 81 359 81 385c0 23 -15 35 -44 35c-7 0 -16 -1 -29 -3l10 14c10 -2 42 -5 98 -8
c49 2 82 6 98 10z" />
    <glyph glyph-name="O.roman" horiz-adv-x="636" 
d="M640 274c-41 -193 -158 -290 -348 -290c-158 0 -236 66 -236 196c0 237 148 361 352 361c157 0 241 -67 241 -191c0 -23 -3 -49 -9 -76zM329 10c136 18 246 154 246 313c0 120 -68 193 -172 193c-160 0 -274 -143 -274 -307c0 -119 71 -201 172 -201c9 0 18 1 28 2z" />
    <glyph glyph-name="P.roman" horiz-adv-x="476" 
d="M467 317c-48 -56 -115 -81 -190 -81h-56l-6 -29c-19 -86 -26 -142 -27 -165c0 -10 29 -27 82 -27c4 0 8 0 11 1l-11 -17c-37 3 -86 7 -114 7c-19 0 -15 -1 -139 -8l9 16c46 0 77 12 89 36c27 54 92 418 92 440c0 26 -17 31 -40 31c-8 0 -17 -1 -27 -3l10 15
c16 -2 52 -4 105 -7c-2 0 85 7 126 7c95 0 134 -34 134 -92c0 -43 -19 -90 -48 -124zM225 252h49c106 0 181 84 181 163c0 53 -36 91 -96 91c-26 0 -43 0 -50 -2c-39 -7 -48 -83 -84 -252z" />
    <glyph glyph-name="Q.roman" horiz-adv-x="629" 
d="M711 -131l-10 -15c-54 -16 -95 -24 -124 -24c-37 0 -67 12 -90 37l-80 87c-9 9 -23 23 -43 39c-25 -4 -50 -7 -78 -7c-158 0 -237 66 -237 197c0 237 146 359 354 359c154 0 240 -63 240 -188c0 -186 -105 -313 -235 -351c31 -17 56 -36 78 -55c65 -56 126 -84 181 -84
c14 0 29 2 44 5zM323 12c138 18 246 158 246 315c0 114 -66 191 -173 191c-155 0 -273 -138 -273 -308c0 -119 72 -200 173 -200c8 0 18 1 27 2z" />
    <glyph glyph-name="R.roman" horiz-adv-x="606" 
d="M605 11l-11 -14c-24 -3 -43 -4 -59 -4c-66 0 -110 24 -131 73l-56 119c-19 40 -26 52 -40 65c-16 -1 -30 -2 -43 -2l11 14c95 0 179 67 179 160c0 49 -35 84 -94 84c-26 0 -44 0 -51 -2c-40 -8 -47 -84 -68 -182l-25 -115c-19 -88 -26 -143 -27 -162c0 -19 32 -29 85 -31
l-13 -16c-30 5 -63 8 -101 8c-28 0 -79 -3 -152 -8l10 16c4 -1 8 -1 13 -1c36 0 74 14 86 39c31 68 91 420 91 439c0 25 -19 30 -41 30c-8 0 -17 -1 -27 -3l10 15c17 -2 53 -4 106 -7c-11 -1 103 7 131 7c91 0 131 -27 131 -88c0 -64 -66 -159 -136 -171
c50 -151 143 -263 222 -263z" />
    <glyph glyph-name="S.roman" horiz-adv-x="349" 
d="M412 503c-18 -30 -29 -62 -36 -96l-16 7c6 10 15 30 15 49c0 36 -39 52 -75 52c-61 0 -118 -50 -118 -117c0 -43 3 -52 103 -120c59 -40 70 -71 70 -109c0 -123 -116 -184 -229 -184c-46 0 -92 8 -92 23v3c11 43 20 79 25 108l19 7c-7 -36 -11 -57 -11 -64
c0 -29 45 -54 92 -54c63 0 124 43 124 132c0 41 -18 72 -61 102l-76 53c-17 17 -26 38 -26 63c0 95 99 180 206 180h1c49 0 86 -16 86 -30c0 -2 0 -4 -1 -5z" />
    <glyph glyph-name="T.roman" horiz-adv-x="503" 
d="M323 219c-17 -80 -27 -136 -31 -169c1 -21 28 -35 72 -35h13l-12 -17c-20 5 -60 8 -121 8c-21 0 -66 -3 -133 -8l11 16c3 0 8 -1 14 -1c44 0 71 13 83 38c13 39 26 93 41 162l24 113c6 29 27 155 27 165c0 9 -5 14 -23 14c-75 0 -117 -7 -129 -21
c-18 -21 -32 -47 -40 -79l-14 6l42 125c70 -5 139 -8 210 -8c89 0 169 3 241 8c-18 -31 -54 -122 -56 -132l-14 5c12 26 19 46 19 62c0 24 -25 34 -131 34c-32 0 -32 1 -70 -179z" />
    <glyph glyph-name="U.roman" horiz-adv-x="658" 
d="M761 536l-14 -14c-4 0 -8 1 -12 1c-45 0 -64 -8 -92 -143l-35 -165c-31 -146 -134 -231 -280 -231c-141 0 -198 46 -198 136c0 18 2 37 7 58l29 133c19 87 27 147 27 177s-16 34 -41 34c-8 0 -17 -1 -28 -3l11 16c17 -2 52 -5 107 -7c41 2 81 4 115 8l-14 -14
c-4 0 -8 1 -12 1c-22 0 -40 -8 -54 -21c-26 -39 -30 -88 -78 -305c-5 -24 -7 -45 -7 -64c0 -82 45 -124 139 -124c123 0 211 68 236 193l28 128c14 62 19 109 19 140c0 41 -5 51 -58 51c-8 0 -16 0 -23 -2l10 16c20 -2 54 -5 103 -7c42 2 81 4 115 8z" />
    <glyph glyph-name="V.roman" horiz-adv-x="611" 
d="M722 535l-12 -15c-51 0 -86 -16 -241 -261c-85 -134 -138 -229 -160 -281l-9 -4c-2 5 -9 16 -20 32c-25 38 -20 81 -38 207l-23 157c-13 86 -23 132 -29 137c-8 9 -24 13 -47 13c-7 0 -14 0 -19 -1l11 15c9 1 31 -4 62 -4c30 0 45 -1 45 -1c32 0 70 2 115 7l-14 -18
c-74 0 -72 -24 -72 -65c0 -19 36 -378 54 -378c11 0 70 103 134 215c72 126 106 191 106 206s-16 23 -45 23c-8 0 -14 -1 -20 -1l15 16c2 0 96 -7 96 -5h-1c0 2 32 -2 112 6z" />
    <glyph glyph-name="W.roman" horiz-adv-x="850" 
d="M947 535l-11 -15c-50 0 -85 -12 -242 -261c-85 -134 -138 -229 -160 -281l-9 -4c-3 4 -8 17 -19 32c-26 36 -22 79 -39 207l-5 37c-85 -138 -135 -228 -153 -272l-9 -4c-2 5 -9 16 -20 32c-25 38 -20 81 -38 207l-23 157c-13 86 -23 132 -29 137c-8 9 -24 13 -47 13
c-7 0 -14 0 -19 -1l11 15c9 1 31 -4 62 -4c30 0 45 -1 45 -1c32 0 70 2 115 7l-14 -18c-74 0 -72 -24 -72 -65c0 -19 36 -378 54 -378c8 0 63 92 132 208c-33 235 -36 232 -63 232c-4 0 -8 0 -12 -1l10 16h74c22 0 33 -3 33 -7c-1 -5 -1 -11 -1 -18c0 -28 3 -73 9 -136
c73 128 72 162 101 162c10 0 25 -2 40 -2c9 0 18 0 29 1l-12 -15c-14 0 -22 26 -154 -186c3 -34 23 -254 39 -254c11 -1 68 100 134 215c73 127 107 191 107 206s-16 23 -46 23c-7 0 -14 -1 -21 -1l15 16c7 0 97 -7 97 -5h-1c0 2 32 -2 112 6z" />
    <glyph glyph-name="X.roman" horiz-adv-x="611" 
d="M607 15l-12 -18c-39 5 -72 8 -103 8c-61 0 -107 -3 -134 -7l12 17c38 0 57 10 57 30c0 25 -37 101 -78 195c-106 -123 -157 -189 -157 -207c0 -16 22 -17 61 -17l-14 -18c-29 4 -72 6 -128 6c-28 0 -61 -2 -98 -6l10 16c61 0 105 13 134 43c37 38 99 108 181 205
c-68 155 -109 236 -120 245c-8 7 -65 15 -69 12l6 15c11 0 116 -5 113 -5c35 0 74 2 117 7l-9 -18c-38 0 -62 -6 -62 -27c2 -24 23 -85 65 -181c80 95 148 169 148 186c0 15 -25 23 -77 23l12 15c-3 0 99 -4 110 -4c2 0 42 1 118 4l-13 -15l-46 -5
c-61 -10 -115 -84 -242 -228c52 -117 91 -198 119 -242c11 -17 44 -26 99 -29z" />
    <glyph glyph-name="Y.roman" horiz-adv-x="563" 
d="M393 294c-42 -56 -64 -134 -78 -244c0 -21 25 -35 73 -35h13l-12 -17c-20 5 -59 8 -121 8c-21 0 -66 -3 -133 -8l11 16c3 0 9 -1 14 -1c45 0 74 13 84 37c25 58 39 134 39 189c0 80 -61 245 -88 268c-3 3 -66 19 -73 12l6 15c4 0 61 -5 138 -5c13 0 58 -179 76 -260
c29 45 65 96 109 153c60 77 77 106 107 106c2 0 38 2 109 5l-13 -18h-15c-81 0 -140 -83 -246 -221z" />
    <glyph glyph-name="Z.roman" horiz-adv-x="474" 
d="M475 118c-12 -20 -26 -50 -43 -88c-13 -30 -20 -36 -45 -36c-13 0 -100 5 -261 8c-32 0 -60 -2 -87 -9h-3l-3 6c2 12 81 111 164 205l91 116c52 66 94 124 127 176c2 2 3 4 3 5c0 3 -3 4 -8 4c-74 0 -186 -2 -217 -11c-44 -18 -44 -81 -44 -82l-21 -11c8 25 16 65 24 117
l11 12c66 -4 124 -5 173 -5h54c8 0 49 1 124 5v-13c-27 -32 -72 -85 -132 -159l-137 -175c-25 -36 -62 -85 -108 -149c-3 -3 -4 -6 -4 -7c0 -2 2 -4 5 -4h-1c0 6 218 -11 263 18c17 8 54 58 64 80z" />
    <glyph glyph-name="A.roman_ogonek" horiz-adv-x="596" 
d="M542 -94c-16 -23 -55 -55 -94 -71c-42 -17 -50 1 -50 25c0 44 45 120 74 142h-3c-8 0 -117 -4 -112 -4l9 16c40 0 64 9 64 29c0 9 -4 52 -12 130v2c0 3 -2 4 -5 4h-184c-3 0 -6 -2 -9 -6c-53 -83 -79 -129 -79 -139c0 -13 21 -20 62 -20l-12 -16c-20 2 -49 4 -85 4
c-35 0 -64 -1 -87 -4l10 16c64 9 74 17 101 61l215 355c14 24 24 46 24 58v3c0 15 40 38 63 52c9 -94 19 -172 28 -232l12 -85c13 -91 25 -150 34 -178c10 -30 36 -28 76 -34l-11 -16c-36 2 -62 3 -79 3c-23 -16 -47 -73 -47 -111c0 -15 5 -31 31 -21c22 9 51 40 71 57
c3 3 -2 -16 -5 -20zM413 212l-32 217c-1 3 -2 4 -3 4s-2 -1 -3 -3l-132 -218c-1 -2 -1 -3 -1 -4s1 -2 3 -2h162c4 0 6 1 6 4v2z" />
    <glyph glyph-name="A.roman_acute" horiz-adv-x="596" 
d="M582 14l-11 -16c-60 3 -94 4 -102 4s-117 -4 -112 -4l9 16c40 0 64 9 64 29c0 9 -4 52 -12 130v2c0 3 -2 4 -5 4h-184c-3 0 -6 -2 -9 -6c-53 -83 -79 -129 -79 -139c0 -13 21 -20 62 -20l-12 -16c-20 2 -49 4 -85 4c-35 0 -64 -1 -87 -4l10 16c64 9 74 17 101 61l215 355
c14 24 24 46 24 58v3c0 15 40 38 63 52c9 -94 19 -172 28 -232l12 -85c13 -91 25 -150 34 -178c10 -30 36 -28 76 -34zM413 212l-32 217c-1 3 -2 4 -3 4s-2 -1 -3 -3l-132 -218c-1 -2 -1 -3 -1 -4s1 -2 3 -2h162c4 0 6 1 6 4v2zM552 674c-7 -12 -115 -75 -131 -78
c-1 0 1 7 1 7c25 19 54 43 77 63c8 7 45 39 54 39c5 0 2 -27 -1 -31z" />
    <glyph glyph-name="A.roman_circumflex" horiz-adv-x="596" 
d="M582 14l-11 -16c-60 3 -94 4 -102 4s-117 -4 -112 -4l9 16c40 0 64 9 64 29c0 9 -4 52 -12 130v2c0 3 -2 4 -5 4h-184c-3 0 -6 -2 -9 -6c-53 -83 -79 -129 -79 -139c0 -13 21 -20 62 -20l-12 -16c-20 2 -49 4 -85 4c-35 0 -64 -1 -87 -4l10 16c64 9 74 17 101 61l215 355
c14 24 24 46 24 58v3c0 15 40 38 63 52c9 -94 19 -172 28 -232l12 -85c13 -91 25 -150 34 -178c10 -30 36 -28 76 -34zM413 212l-32 217c-1 3 -2 4 -3 4s-2 -1 -3 -3l-132 -218c-1 -2 -1 -3 -1 -4s1 -2 3 -2h162c4 0 6 1 6 4v2zM320 584c39 26 79 54 113 84h12
c13 -22 40 -51 68 -70c5 -3 10 -8 18 -8v-3c-4 -1 -19 -8 -21 -9c-13 -6 -36 17 -42 22c-15 13 -29 30 -39 42c0 1 -2 2 -6 0c-12 -11 -69 -51 -89 -58c-5 -2 -10 -1 -14 0z" />
    <glyph glyph-name="A.roman_breve" horiz-adv-x="596" 
d="M582 14l-11 -16c-60 3 -94 4 -102 4s-117 -4 -112 -4l9 16c40 0 64 9 64 29c0 9 -4 52 -12 130v2c0 3 -2 4 -5 4h-184c-3 0 -6 -2 -9 -6c-53 -83 -79 -129 -79 -139c0 -13 21 -20 62 -20l-12 -16c-20 2 -49 4 -85 4c-35 0 -64 -1 -87 -4l10 16c64 9 74 17 101 61l215 355
c14 24 24 46 24 58v3c0 15 40 38 63 52c9 -94 19 -172 28 -232l12 -85c13 -91 25 -150 34 -178c10 -30 36 -28 76 -34zM413 212l-32 217c-1 3 -2 4 -3 4s-2 -1 -3 -3l-132 -218c-1 -2 -1 -3 -1 -4s1 -2 3 -2h162c4 0 6 1 6 4v2zM521 630c-19 -23 -67 -48 -109 -48
c-21 0 -58 3 -58 32c0 6 6 20 12 20h15c-16 -26 14 -37 37 -37c38 0 72 24 87 33h16z" />
    <glyph glyph-name="A.roman_dieresis" horiz-adv-x="596" 
d="M582 14l-11 -16c-60 3 -94 4 -102 4s-117 -4 -112 -4l9 16c40 0 64 9 64 29c0 9 -4 52 -12 130v2c0 3 -2 4 -5 4h-184c-3 0 -6 -2 -9 -6c-53 -83 -79 -129 -79 -139c0 -13 21 -20 62 -20l-12 -16c-20 2 -49 4 -85 4c-35 0 -64 -1 -87 -4l10 16c64 9 74 17 101 61l215 355
c14 24 24 46 24 58v3c0 15 40 38 63 52c9 -94 19 -172 28 -232l12 -85c13 -91 25 -150 34 -178c10 -30 36 -28 76 -34zM413 212l-32 217c-1 3 -2 4 -3 4s-2 -1 -3 -3l-132 -218c-1 -2 -1 -3 -1 -4s1 -2 3 -2h162c4 0 6 1 6 4v2zM365 644c10 -6 21 -14 33 -12
c9 2 12 -3 2 -13c-12 -10 -26 -24 -38 -23c-14 1 -28 12 -36 22c-2 3 36 28 39 26zM481 644c10 -6 21 -14 33 -12c9 2 12 -3 2 -13c-12 -10 -26 -24 -38 -23c-14 1 -28 12 -36 22c-2 3 36 28 39 26z" />
    <glyph glyph-name="A.roman_tilde" horiz-adv-x="596" 
d="M582 14l-11 -16c-60 3 -94 4 -102 4s-117 -4 -112 -4l9 16c40 0 64 9 64 29c0 9 -4 52 -12 130v2c0 3 -2 4 -5 4h-184c-3 0 -6 -2 -9 -6c-53 -83 -79 -129 -79 -139c0 -13 21 -20 62 -20l-12 -16c-20 2 -49 4 -85 4c-35 0 -64 -1 -87 -4l10 16c64 9 74 17 101 61l215 355
c14 24 24 46 24 58v3c0 15 40 38 63 52c9 -94 19 -172 28 -232l12 -85c13 -91 25 -150 34 -178c10 -30 36 -28 76 -34zM413 212l-32 217c-1 3 -2 4 -3 4s-2 -1 -3 -3l-132 -218c-1 -2 -1 -3 -1 -4s1 -2 3 -2h162c4 0 6 1 6 4v2zM519 640h10c-8 -27 -28 -50 -46 -50
c-40 0 -66 25 -101 25c-21 0 -27 -11 -30 -18h-12c6 19 28 43 51 43c32 0 45 -19 87 -22c26 -3 35 14 41 22z" />
    <glyph glyph-name="A.roman_macron" horiz-adv-x="596" 
d="M582 14l-11 -16c-60 3 -94 4 -102 4s-117 -4 -112 -4l9 16c40 0 64 9 64 29c0 9 -4 52 -12 130v2c0 3 -2 4 -5 4h-184c-3 0 -6 -2 -9 -6c-53 -83 -79 -129 -79 -139c0 -13 21 -20 62 -20l-12 -16c-20 2 -49 4 -85 4c-35 0 -64 -1 -87 -4l10 16c64 9 74 17 101 61l215 355
c14 24 24 46 24 58v3c0 15 40 38 63 52c9 -94 19 -172 28 -232l12 -85c13 -91 25 -150 34 -178c10 -30 36 -28 76 -34zM413 212l-32 217c-1 3 -2 4 -3 4s-2 -1 -3 -3l-132 -218c-1 -2 -1 -3 -1 -4s1 -2 3 -2h162c4 0 6 1 6 4v2zM527 605c-1 -3 -4 -5 -7 -5
c-51 0 -103 -9 -154 -9c-6 0 -15 13 -14 18l1 2c15 4 66 5 83 5c19 0 74 -3 88 -9c1 -1 3 -1 3 -2z" />
    <glyph glyph-name="A.roman_grave" horiz-adv-x="596" 
d="M582 14l-11 -16c-60 3 -94 4 -102 4s-117 -4 -112 -4l9 16c40 0 64 9 64 29c0 9 -4 52 -12 130v2c0 3 -2 4 -5 4h-184c-3 0 -6 -2 -9 -6c-53 -83 -79 -129 -79 -139c0 -13 21 -20 62 -20l-12 -16c-20 2 -49 4 -85 4c-35 0 -64 -1 -87 -4l10 16c64 9 74 17 101 61l215 355
c14 24 24 46 24 58v3c0 15 40 38 63 52c9 -94 19 -172 28 -232l12 -85c13 -91 25 -150 34 -178c10 -30 36 -28 76 -34zM413 212l-32 217c-1 3 -2 4 -3 4s-2 -1 -3 -3l-132 -218c-1 -2 -1 -3 -1 -4s1 -2 3 -2h162c4 0 6 1 6 4v2zM347 657c-3 4 -6 31 -1 31c9 0 46 -32 54 -39
c23 -20 52 -44 77 -63c0 0 2 -7 1 -7c-16 3 -124 66 -131 78z" />
    <glyph glyph-name="A.roman_ring" horiz-adv-x="596" 
d="M582 14l-11 -16c-60 3 -94 4 -102 4s-117 -4 -112 -4l9 16c40 0 64 9 64 29c0 9 -4 52 -12 130v2c0 3 -2 4 -5 4h-184c-3 0 -6 -2 -9 -6c-53 -83 -79 -129 -79 -139c0 -13 21 -20 62 -20l-12 -16c-20 2 -49 4 -85 4c-35 0 -64 -1 -87 -4l10 16c64 9 74 17 101 61l215 355
c14 24 24 46 24 58v3c0 15 40 38 63 52c9 -94 19 -172 28 -232l12 -85c13 -91 25 -150 34 -178c10 -30 36 -28 76 -34zM413 212l-32 217c-1 3 -2 4 -3 4s-2 -1 -3 -3l-132 -218c-1 -2 -1 -3 -1 -4s1 -2 3 -2h162c4 0 6 1 6 4v2zM495 618c-6 -37 -50 -73 -90 -73
c-20 0 -33 11 -30 30c3 17 22 52 43 57c10 15 30 26 47 26c24 0 34 -21 30 -40zM475 616c2 11 1 27 -14 27c-9 0 -18 -5 -26 -10l8 -4c-12 -21 -32 -28 -37 -54c-1 -8 1 -15 11 -15c28 0 54 33 58 56z" />
    <glyph glyph-name="AE.roman" horiz-adv-x="787" 
d="M778 110c-28 -46 -38 -116 -85 -116c-4 0 -7 0 -11 1c-118 8 -184 12 -199 12c-45 0 -23 -1 -166 -9l9 16c3 0 7 -1 12 -1c17 0 33 3 48 9c41 15 45 31 72 157h-198c-3 0 -7 -2 -10 -6c-72 -87 -106 -132 -106 -141c0 -12 19 -18 59 -18l-6 -16c-20 2 -48 4 -84 4
c-35 0 -64 -1 -88 -4l4 16c66 8 77 16 112 61l346 443c-7 1 -14 2 -22 2c-6 0 -12 -1 -19 -1l10 16c27 -5 62 -7 107 -7c72 0 148 2 228 2c3 0 6 -3 6 -9c0 -2 -23 -52 -23 -55l-18 -47l-16 3c18 34 22 45 22 50c0 21 -24 29 -102 29c-29 0 -51 -2 -64 -3
c-14 -30 -33 -99 -56 -208l170 2c4 0 6 -2 6 -5c0 -7 -15 -34 -22 -72l-17 -4c1 2 9 15 9 26c0 36 -99 29 -129 29h-22c-25 -119 -36 -191 -36 -216c0 -16 9 -28 97 -28c115 0 148 37 173 92zM280 212c-2 -2 -2 -3 -2 -4c0 -2 1 -2 3 -2h183l3 14c19 90 30 139 31 149
c10 54 15 91 15 114c0 10 -1 17 -3 21z" />
    <glyph glyph-name="C.roman_acute" horiz-adv-x="575" 
d="M662 501l-3 -6c-10 0 -61 -87 -61 -120c0 -1 0 -2 1 -2l-11 2c7 16 8 32 8 44c0 47 -64 87 -175 87c-154 0 -269 -96 -269 -283c0 -122 74 -198 189 -198c63 0 137 17 220 51l-4 -15c-123 -64 -143 -71 -222 -71c-160 0 -257 77 -257 211c0 209 162 337 378 337
c76 0 145 -13 206 -37zM572 647c-7 -12 -115 -75 -131 -78c-1 0 1 7 1 7c25 19 54 43 77 63c8 7 45 39 54 39c5 0 2 -27 -1 -31z" />
    <glyph glyph-name="C.roman_cedilla" horiz-adv-x="575" 
d="M662 501l-3 -6c-10 0 -61 -87 -61 -120c0 -1 0 -2 1 -2l-11 2c7 16 8 32 8 44c0 47 -64 87 -175 87c-154 0 -269 -96 -269 -283c0 -122 74 -198 189 -198c63 0 137 17 220 51l-4 -15c-121 -62 -143 -70 -218 -71c-22 -9 -39 -28 -39 -49c0 -31 41 -49 35 -87
c-10 -54 -91 -76 -140 -76c-4 0 -7 4 -6 8c0 4 6 6 9 6c14 2 89 -6 100 53c4 24 -33 53 -33 83c0 27 18 53 45 63c-145 7 -232 83 -232 210c0 209 162 337 378 337c76 0 145 -13 206 -37z" />
    <glyph glyph-name="C.roman_caron" horiz-adv-x="575" 
d="M662 501l-3 -6c-10 0 -61 -87 -61 -120c0 -1 0 -2 1 -2l-11 2c7 16 8 32 8 44c0 47 -64 87 -175 87c-154 0 -269 -96 -269 -283c0 -122 74 -198 189 -198c63 0 137 17 220 51l-4 -15c-123 -64 -143 -71 -222 -71c-160 0 -257 77 -257 211c0 209 162 337 378 337
c76 0 145 -13 206 -37zM594 662c-39 -26 -79 -54 -113 -84h-12c-13 22 -40 51 -68 70c-5 3 -10 8 -18 8v3c4 1 19 8 21 9c13 6 36 -17 42 -22c15 -13 29 -30 39 -42c0 -1 2 -2 6 0c12 11 69 51 89 58c5 2 10 1 14 0z" />
    <glyph glyph-name="C.roman_dotaccent" horiz-adv-x="575" 
d="M662 501l-3 -6c-10 0 -61 -87 -61 -120c0 -1 0 -2 1 -2l-11 2c7 16 8 32 8 44c0 47 -64 87 -175 87c-154 0 -269 -96 -269 -283c0 -122 74 -198 189 -198c63 0 137 17 220 51l-4 -15c-123 -64 -143 -71 -222 -71c-160 0 -257 77 -257 211c0 209 162 337 378 337
c76 0 145 -13 206 -37zM493 629c10 -6 21 -14 33 -12c9 2 12 -3 2 -13c-12 -10 -26 -24 -38 -23c-14 1 -28 12 -36 22c-2 3 36 28 39 26z" />
    <glyph glyph-name="C.roman_circumflex" horiz-adv-x="575" 
d="M662 501l-3 -6c-10 0 -61 -87 -61 -120c0 -1 0 -2 1 -2l-11 2c7 16 8 32 8 44c0 47 -64 87 -175 87c-154 0 -269 -96 -269 -283c0 -122 74 -198 189 -198c63 0 137 17 220 51l-4 -15c-123 -64 -143 -71 -222 -71c-160 0 -257 77 -257 211c0 209 162 337 378 337
c76 0 145 -13 206 -37zM384 581c39 26 79 54 113 84h12c13 -22 40 -51 68 -70c5 -3 10 -8 18 -8v-3c-4 -1 -19 -8 -21 -9c-13 -6 -36 17 -42 22c-15 13 -29 30 -39 42c0 1 -2 2 -6 0c-12 -11 -69 -51 -89 -58c-5 -2 -10 -1 -14 0z" />
    <glyph glyph-name="D.roman_caron" horiz-adv-x="609" 
d="M623 412c9 -25 14 -52 14 -81c0 -20 -2 -39 -6 -60c-41 -197 -202 -272 -358 -272c-36 0 -66 5 -120 5c-39 0 -87 -2 -144 -6l11 16c3 -1 7 -1 12 -1c16 -1 32 2 46 8c45 17 47 35 81 199c31 146 46 235 46 270c0 23 -16 27 -38 27c-8 0 -18 -1 -28 -3l11 17
c39 -4 73 -7 102 -7c55 0 99 8 133 8c127 0 206 -40 238 -120zM558 275c3 18 5 35 5 51c0 121 -91 184 -201 184c-41 0 -66 -4 -75 -12c-19 -28 -54 -173 -98 -438c7 -27 38 -41 96 -41c160 0 242 98 273 256zM516 659c-39 -26 -79 -54 -113 -84h-12c-13 22 -40 51 -68 70
c-5 3 -10 8 -18 8v3c4 1 19 8 21 9c13 6 36 -17 42 -22c15 -13 29 -30 39 -42c0 -1 2 -2 6 0c12 11 69 51 89 58c5 2 10 1 14 0z" />
    <glyph glyph-name="D.roman_croat" horiz-adv-x="609" 
d="M623 412c9 -25 14 -52 14 -81c0 -20 -2 -39 -6 -60c-41 -197 -202 -272 -358 -272c-36 0 -66 5 -120 5c-39 0 -87 -2 -144 -6l11 16c3 -1 7 -1 12 -1c16 -1 32 2 46 8c45 17 47 35 81 199c1 7 3 15 5 22c-24 0 -47 -1 -72 -3c-6 -1 19 29 27 28c13 -2 30 -3 49 -4
c25 120 37 195 37 227c0 23 -16 27 -38 27c-8 0 -18 -1 -28 -3l11 17c39 -4 73 -7 102 -7c55 0 99 8 133 8c127 0 206 -40 238 -120zM302 266c5 0 -19 -29 -28 -28l-53 3c-10 -52 -21 -113 -32 -181c7 -27 38 -41 96 -41c160 0 242 98 273 256c3 18 5 35 5 51
c0 121 -91 184 -201 184c-41 0 -66 -4 -75 -12c-14 -20 -35 -98 -62 -235c33 0 59 2 77 3z" />
    <glyph glyph-name="E.roman_ogonek" horiz-adv-x="474" 
d="M303 -91c-16 -23 -55 -55 -94 -71c-42 -17 -50 1 -50 25c0 43 44 119 73 141c-31 2 -51 3 -58 3c-45 0 -23 -1 -166 -9l9 16c3 0 7 -1 12 -1c37 0 75 16 86 40c10 22 74 319 74 316c11 54 16 92 16 114c0 30 -16 37 -49 37c-6 0 -12 -1 -19 -1l10 16c27 -5 62 -7 107 -7
c72 0 148 2 228 2c3 0 6 -3 6 -9c0 -2 -23 -52 -23 -55l-18 -47l-16 3c18 34 22 45 22 50c0 21 -24 29 -102 29c-29 0 -51 -2 -64 -3c-14 -30 -33 -99 -56 -208l170 2c4 0 6 -2 6 -5c0 -7 -15 -34 -22 -72l-17 -4c1 2 9 15 9 26c0 36 -99 29 -129 29h-22
c-25 -119 -36 -191 -36 -216c0 -16 9 -28 97 -28c115 0 148 37 173 92l9 -4c-28 -46 -38 -116 -85 -116c-4 0 -7 0 -11 1c-50 4 -91 6 -122 8c-23 -18 -45 -73 -45 -110c0 -15 5 -31 31 -21c22 9 51 40 71 57c3 3 -2 -16 -5 -20z" />
    <glyph glyph-name="E.roman_acute" horiz-adv-x="474" 
d="M469 110c-28 -46 -38 -116 -85 -116c-4 0 -7 0 -11 1c-118 8 -184 12 -199 12c-45 0 -23 -1 -166 -9l9 16c3 0 7 -1 12 -1c37 0 75 16 86 40c10 22 74 319 74 316c11 54 16 92 16 114c0 30 -16 37 -49 37c-6 0 -12 -1 -19 -1l10 16c27 -5 62 -7 107 -7c72 0 148 2 228 2
c3 0 6 -3 6 -9c0 -2 -23 -52 -23 -55l-18 -47l-16 3c18 34 22 45 22 50c0 21 -24 29 -102 29c-29 0 -51 -2 -64 -3c-14 -30 -33 -99 -56 -208l170 2c4 0 6 -2 6 -5c0 -7 -15 -34 -22 -72l-17 -4c1 2 9 15 9 26c0 36 -99 29 -129 29h-22c-25 -119 -36 -191 -36 -216
c0 -16 9 -28 97 -28c115 0 148 37 173 92zM448 649c-7 -12 -115 -75 -131 -78c-1 0 1 7 1 7c25 19 54 43 77 63c8 7 45 39 54 39c5 0 2 -27 -1 -31z" />
    <glyph glyph-name="E.roman_grave" horiz-adv-x="474" 
d="M469 110c-28 -46 -38 -116 -85 -116c-4 0 -7 0 -11 1c-118 8 -184 12 -199 12c-45 0 -23 -1 -166 -9l9 16c3 0 7 -1 12 -1c37 0 75 16 86 40c10 22 74 319 74 316c11 54 16 92 16 114c0 30 -16 37 -49 37c-6 0 -12 -1 -19 -1l10 16c27 -5 62 -7 107 -7c72 0 148 2 228 2
c3 0 6 -3 6 -9c0 -2 -23 -52 -23 -55l-18 -47l-16 3c18 34 22 45 22 50c0 21 -24 29 -102 29c-29 0 -51 -2 -64 -3c-14 -30 -33 -99 -56 -208l170 2c4 0 6 -2 6 -5c0 -7 -15 -34 -22 -72l-17 -4c1 2 9 15 9 26c0 36 -99 29 -129 29h-22c-25 -119 -36 -191 -36 -216
c0 -16 9 -28 97 -28c115 0 148 37 173 92zM268 652c-3 4 -6 31 -1 31c9 0 46 -32 54 -39c23 -20 52 -44 77 -63c0 0 2 -7 1 -7c-16 3 -124 66 -131 78z" />
    <glyph glyph-name="E.roman_circumflex" horiz-adv-x="474" 
d="M469 110c-28 -46 -38 -116 -85 -116c-4 0 -7 0 -11 1c-118 8 -184 12 -199 12c-45 0 -23 -1 -166 -9l9 16c3 0 7 -1 12 -1c37 0 75 16 86 40c10 22 74 319 74 316c11 54 16 92 16 114c0 30 -16 37 -49 37c-6 0 -12 -1 -19 -1l10 16c27 -5 62 -7 107 -7c72 0 148 2 228 2
c3 0 6 -3 6 -9c0 -2 -23 -52 -23 -55l-18 -47l-16 3c18 34 22 45 22 50c0 21 -24 29 -102 29c-29 0 -51 -2 -64 -3c-14 -30 -33 -99 -56 -208l170 2c4 0 6 -2 6 -5c0 -7 -15 -34 -22 -72l-17 -4c1 2 9 15 9 26c0 36 -99 29 -129 29h-22c-25 -119 -36 -191 -36 -216
c0 -16 9 -28 97 -28c115 0 148 37 173 92zM244 588c39 26 79 54 113 84h12c13 -22 40 -51 68 -70c5 -3 10 -8 18 -8v-3c-4 -1 -19 -8 -21 -9c-13 -6 -36 17 -42 22c-15 13 -29 30 -39 42c0 1 -2 2 -6 0c-12 -11 -69 -51 -89 -58c-5 -2 -10 -1 -14 0z" />
    <glyph glyph-name="E.roman_caron" horiz-adv-x="474" 
d="M469 110c-28 -46 -38 -116 -85 -116c-4 0 -7 0 -11 1c-118 8 -184 12 -199 12c-45 0 -23 -1 -166 -9l9 16c3 0 7 -1 12 -1c37 0 75 16 86 40c10 22 74 319 74 316c11 54 16 92 16 114c0 30 -16 37 -49 37c-6 0 -12 -1 -19 -1l10 16c27 -5 62 -7 107 -7c72 0 148 2 228 2
c3 0 6 -3 6 -9c0 -2 -23 -52 -23 -55l-18 -47l-16 3c18 34 22 45 22 50c0 21 -24 29 -102 29c-29 0 -51 -2 -64 -3c-14 -30 -33 -99 -56 -208l170 2c4 0 6 -2 6 -5c0 -7 -15 -34 -22 -72l-17 -4c1 2 9 15 9 26c0 36 -99 29 -129 29h-22c-25 -119 -36 -191 -36 -216
c0 -16 9 -28 97 -28c115 0 148 37 173 92zM456 653c-39 -26 -79 -54 -113 -84h-12c-13 22 -40 51 -68 70c-5 3 -10 8 -18 8v3c4 1 19 8 21 9c13 6 36 -17 42 -22c15 -13 29 -30 39 -42c0 -1 2 -2 6 0c12 11 69 51 89 58c5 2 10 1 14 0z" />
    <glyph glyph-name="E.roman_dieresis" horiz-adv-x="474" 
d="M469 110c-28 -46 -38 -116 -85 -116c-4 0 -7 0 -11 1c-118 8 -184 12 -199 12c-45 0 -23 -1 -166 -9l9 16c3 0 7 -1 12 -1c37 0 75 16 86 40c10 22 74 319 74 316c11 54 16 92 16 114c0 30 -16 37 -49 37c-6 0 -12 -1 -19 -1l10 16c27 -5 62 -7 107 -7c72 0 148 2 228 2
c3 0 6 -3 6 -9c0 -2 -23 -52 -23 -55l-18 -47l-16 3c18 34 22 45 22 50c0 21 -24 29 -102 29c-29 0 -51 -2 -64 -3c-14 -30 -33 -99 -56 -208l170 2c4 0 6 -2 6 -5c0 -7 -15 -34 -22 -72l-17 -4c1 2 9 15 9 26c0 36 -99 29 -129 29h-22c-25 -119 -36 -191 -36 -216
c0 -16 9 -28 97 -28c115 0 148 37 173 92zM409 637c10 -6 21 -14 33 -12c9 2 12 -3 2 -13c-12 -10 -26 -24 -38 -23c-14 1 -28 12 -36 22c-2 3 36 28 39 26zM293 637c10 -6 21 -14 33 -12c9 2 12 -3 2 -13c-12 -10 -26 -24 -38 -23c-14 1 -28 12 -36 22c-2 3 36 28 39 26z
" />
    <glyph glyph-name="E.roman_macron" horiz-adv-x="724" 
d="M469 110c-28 -46 -38 -116 -85 -116c-4 0 -7 0 -11 1c-118 8 -184 12 -199 12c-45 0 -23 -1 -166 -9l9 16c3 0 7 -1 12 -1c37 0 75 16 86 40c10 22 74 319 74 316c11 54 16 92 16 114c0 30 -16 37 -49 37c-6 0 -12 -1 -19 -1l10 16c27 -5 62 -7 107 -7c72 0 148 2 228 2
c3 0 6 -3 6 -9c0 -2 -23 -52 -23 -55l-18 -47l-16 3c18 34 22 45 22 50c0 21 -24 29 -102 29c-29 0 -51 -2 -64 -3c-14 -30 -33 -99 -56 -208l170 2c4 0 6 -2 6 -5c0 -7 -15 -34 -22 -72l-17 -4c1 2 9 15 9 26c0 36 -99 29 -129 29h-22c-25 -119 -36 -191 -36 -216
c0 -16 9 -28 97 -28c115 0 148 37 173 92zM439 601c-1 -3 -4 -5 -7 -5c-51 0 -103 -9 -154 -9c-6 0 -15 13 -14 18l1 2c15 4 66 5 83 5c19 0 74 -3 88 -9c1 -1 3 -1 3 -2z" />
    <glyph glyph-name="E.roman_dotaccent" horiz-adv-x="474" 
d="M469 110c-28 -46 -38 -116 -85 -116c-4 0 -7 0 -11 1c-118 8 -184 12 -199 12c-45 0 -23 -1 -166 -9l9 16c3 0 7 -1 12 -1c37 0 75 16 86 40c10 22 74 319 74 316c11 54 16 92 16 114c0 30 -16 37 -49 37c-6 0 -12 -1 -19 -1l10 16c27 -5 62 -7 107 -7c72 0 148 2 228 2
c3 0 6 -3 6 -9c0 -2 -23 -52 -23 -55l-18 -47l-16 3c18 34 22 45 22 50c0 21 -24 29 -102 29c-29 0 -51 -2 -64 -3c-14 -30 -33 -99 -56 -208l170 2c4 0 6 -2 6 -5c0 -7 -15 -34 -22 -72l-17 -4c1 2 9 15 9 26c0 36 -99 29 -129 29h-22c-25 -119 -36 -191 -36 -216
c0 -16 9 -28 97 -28c115 0 148 37 173 92zM351 624c10 -6 21 -14 33 -12c9 2 12 -3 2 -13c-12 -10 -26 -24 -38 -23c-14 1 -28 12 -36 22c-2 3 36 28 39 26z" />
    <glyph glyph-name="G.roman_dotaccent.001" horiz-adv-x="657" 
d="M652 257l-7 -15c-29 0 -46 -12 -55 -39c-11 -32 -33 -135 -33 -170c0 -6 0 -10 1 -14l-5 -5c-5 1 -12 1 -20 1c-18 0 -134 -17 -197 -17c-159 0 -251 70 -251 203c0 192 144 326 350 333c87 0 161 -9 229 -36l-3 -5c-12 0 -60 -88 -60 -121l-10 2c5 17 8 30 8 43
c0 44 -58 86 -175 86c-149 0 -267 -95 -267 -279c0 -132 86 -200 226 -200c32 0 66 4 103 11c13 29 37 124 37 164c0 38 -40 34 -69 34h-13l7 17c23 -6 52 -8 85 -8c49 0 89 6 119 15zM471 632c10 -6 21 -14 33 -12c9 2 12 -3 2 -13c-12 -10 -26 -24 -38 -23
c-14 1 -28 12 -36 22c-2 3 36 28 39 26z" />
    <glyph glyph-name="G.roman_circumflex.001" horiz-adv-x="657" 
d="M652 257l-7 -15c-29 0 -46 -12 -55 -39c-11 -32 -33 -135 -33 -170c0 -6 0 -10 1 -14l-5 -5c-5 1 -12 1 -20 1c-18 0 -134 -17 -197 -17c-159 0 -251 70 -251 203c0 192 144 326 350 333c87 0 161 -9 229 -36l-3 -5c-12 0 -60 -88 -60 -121l-10 2c5 17 8 30 8 43
c0 44 -58 86 -175 86c-149 0 -267 -95 -267 -279c0 -132 86 -200 226 -200c32 0 66 4 103 11c13 29 37 124 37 164c0 38 -40 34 -69 34h-13l7 17c23 -6 52 -8 85 -8c49 0 89 6 119 15zM363 591c39 26 79 54 113 84h12c13 -22 40 -51 68 -70c5 -3 10 -8 18 -8v-3
c-4 -1 -19 -8 -21 -9c-13 -6 -36 17 -42 22c-15 13 -29 30 -39 42c0 1 -2 2 -6 0c-12 -11 -69 -51 -89 -58c-5 -2 -10 -1 -14 0z" />
    <glyph glyph-name="G.roman_commaacent" horiz-adv-x="657" 
d="M652 257l-7 -15c-29 0 -46 -12 -55 -39c-11 -32 -33 -135 -33 -170c0 -6 0 -10 1 -14l-5 -5c-5 1 -12 1 -20 1c-18 0 -134 -17 -197 -17c-159 0 -251 70 -251 203c0 192 144 326 350 333c87 0 161 -9 229 -36l-3 -5c-12 0 -60 -88 -60 -121l-10 2c5 17 8 30 8 43
c0 44 -58 86 -175 86c-149 0 -267 -95 -267 -279c0 -132 86 -200 226 -200c32 0 66 4 103 11c13 29 37 124 37 164c0 38 -40 34 -69 34h-13l7 17c23 -6 52 -8 85 -8c49 0 89 6 119 15zM345 -90c-8 -42 -37 -74 -69 -96c-6 -4 -12 -7 -12 -7l1 7c1 3 0 3 7 9
c19 17 34 38 39 62c4 14 -7 27 -21 30l3 10c6 0 19 7 23 11c5 3 10 10 13 10c18 -3 20 -18 16 -36z" />
    <glyph glyph-name="G.roman_breve" horiz-adv-x="657" 
d="M652 257l-7 -15c-29 0 -46 -12 -55 -39c-11 -32 -33 -135 -33 -170c0 -6 0 -10 1 -14l-5 -5c-5 1 -12 1 -20 1c-18 0 -134 -17 -197 -17c-159 0 -251 70 -251 203c0 192 144 326 350 333c87 0 161 -9 229 -36l-3 -5c-12 0 -60 -88 -60 -121l-10 2c5 17 8 30 8 43
c0 44 -58 86 -175 86c-149 0 -267 -95 -267 -279c0 -132 86 -200 226 -200c32 0 66 4 103 11c13 29 37 124 37 164c0 38 -40 34 -69 34h-13l7 17c23 -6 52 -8 85 -8c49 0 89 6 119 15zM583 630c-19 -23 -67 -48 -109 -48c-21 0 -58 3 -58 32c0 6 6 20 12 20h15
c-16 -26 14 -37 37 -37c38 0 72 24 87 33h16z" />
    <glyph glyph-name="G.roman_dotaccent" horiz-adv-x="657" 
d="M652 257l-7 -15c-29 0 -46 -12 -55 -39c-11 -32 -33 -135 -33 -170c0 -6 0 -10 1 -14l-5 -5c-5 1 -12 1 -20 1c-18 0 -134 -17 -197 -17c-159 0 -251 70 -251 203c0 192 144 326 350 333c87 0 161 -9 229 -36l-3 -5c-12 0 -60 -88 -60 -121l-10 2c5 17 8 30 8 43
c0 44 -58 86 -175 86c-149 0 -267 -95 -267 -279c0 -132 86 -200 226 -200c32 0 66 4 103 11c13 29 37 124 37 164c0 38 -40 34 -69 34h-13l7 17c23 -6 52 -8 85 -8c49 0 89 6 119 15zM471 632c10 -6 21 -14 33 -12c9 2 12 -3 2 -13c-12 -10 -26 -24 -38 -23
c-14 1 -28 12 -36 22c-2 3 36 28 39 26z" />
    <glyph glyph-name="G.roman_circumflex" horiz-adv-x="657" 
d="M652 257l-7 -15c-29 0 -46 -12 -55 -39c-11 -32 -33 -135 -33 -170c0 -6 0 -10 1 -14l-5 -5c-5 1 -12 1 -20 1c-18 0 -134 -17 -197 -17c-159 0 -251 70 -251 203c0 192 144 326 350 333c87 0 161 -9 229 -36l-3 -5c-12 0 -60 -88 -60 -121l-10 2c5 17 8 30 8 43
c0 44 -58 86 -175 86c-149 0 -267 -95 -267 -279c0 -132 86 -200 226 -200c32 0 66 4 103 11c13 29 37 124 37 164c0 38 -40 34 -69 34h-13l7 17c23 -6 52 -8 85 -8c49 0 89 6 119 15zM363 591c39 26 79 54 113 84h12c13 -22 40 -51 68 -70c5 -3 10 -8 18 -8v-3
c-4 -1 -19 -8 -21 -9c-13 -6 -36 17 -42 22c-15 13 -29 30 -39 42c0 1 -2 2 -6 0c-12 -11 -69 -51 -89 -58c-5 -2 -10 -1 -14 0z" />
    <glyph glyph-name="H.roman_bar" horiz-adv-x="723" 
d="M711 442c6 0 -22 -37 -33 -35h-15c-31 -124 -70 -328 -70 -357c0 -22 30 -35 70 -35h13l-13 -17c-13 4 -52 7 -121 8c-10 0 -54 -3 -133 -8l11 16c4 0 9 -1 15 -1c90 0 91 39 128 209l3 17c2 14 5 22 6 25h-226c-19 0 -61 -2 -121 -4l-8 -38c-19 -90 -27 -148 -28 -172
c0 -21 28 -35 70 -35h13l-14 -17c-12 4 -52 7 -120 8c-11 0 -55 -3 -133 -8l10 16c4 0 8 -1 13 -1c39 0 75 17 86 40c23 48 58 242 77 356c-17 0 -32 -1 -40 -1c-6 -1 23 36 33 35c2 -1 7 -1 12 -2c5 29 8 49 8 53c0 23 -17 28 -40 28c-8 0 -17 -1 -28 -3l11 16
c17 -2 52 -5 107 -7c41 2 81 4 115 8l-14 -14c-4 0 -8 1 -12 1c-36 0 -52 4 -77 -84c62 -1 141 -1 164 -1c30 0 108 0 175 1c3 22 5 40 5 52c0 27 -18 31 -41 31c-9 0 -18 -1 -28 -3l10 16c18 -2 53 -5 107 -7c42 2 81 4 115 8l-14 -14c-4 0 -8 1 -12 1
c-21 0 -39 -8 -53 -21c-6 -7 -13 -30 -22 -62c19 1 33 1 39 2zM578 293c9 45 17 84 22 115c-65 1 -149 2 -173 4c-27 0 -102 -1 -169 -2c-8 -30 -16 -68 -26 -116c0 0 99 -8 118 -8c33 0 217 7 228 7z" />
    <glyph glyph-name="H.roman_circumflex" horiz-adv-x="723" 
d="M676 15l-13 -17c-13 4 -52 7 -121 8c-10 0 -54 -3 -133 -8l11 16c4 0 9 -1 15 -1c90 0 91 39 128 209l3 17c2 14 5 22 6 25h-226c-19 0 -61 -2 -121 -4l-8 -38c-19 -90 -27 -148 -28 -172c0 -21 28 -35 70 -35h13l-14 -17c-12 4 -52 7 -120 8c-11 0 -55 -3 -133 -8l10 16
c4 0 8 -1 13 -1c39 0 75 17 86 40c32 68 90 425 90 441c0 23 -17 28 -40 28c-8 0 -17 -1 -28 -3l11 16c17 -2 52 -5 107 -7c41 2 81 4 115 8l-14 -14c-4 0 -8 1 -12 1c-50 0 -61 10 -111 -229c0 0 99 -8 118 -8c33 0 217 7 228 7c21 100 32 167 32 198c0 27 -18 31 -41 31
c-9 0 -18 -1 -28 -3l10 16c18 -2 53 -5 107 -7c42 2 81 4 115 8l-14 -14c-4 0 -8 1 -12 1c-21 0 -39 -8 -53 -21c-25 -34 -101 -412 -101 -452c0 -22 30 -35 70 -35h13zM360 581c39 26 79 54 113 84h12c13 -22 40 -51 68 -70c5 -3 10 -8 18 -8v-3c-4 -1 -19 -8 -21 -9
c-13 -6 -36 17 -42 22c-15 13 -29 30 -39 42c0 1 -2 2 -6 0c-12 -11 -69 -51 -89 -58c-5 -2 -10 -1 -14 0z" />
    <glyph glyph-name="I.roman_acute" horiz-adv-x="340" 
d="M304 15l-13 -17c-13 4 -53 7 -121 8c-10 0 -54 -3 -133 -8l11 16c4 0 9 -1 15 -1c43 0 70 13 81 37c34 73 93 420 93 441c0 25 -18 30 -39 30c-9 0 -19 -2 -30 -4l11 18c18 -2 53 -5 107 -7c42 2 81 4 115 8l-14 -17c-5 0 -10 1 -14 1c-60 0 -74 -34 -123 -294
c-18 -93 -29 -152 -29 -176c0 -22 30 -35 70 -35h13zM397 659c-7 -12 -115 -75 -131 -78c-1 0 1 7 1 7c25 19 54 43 77 63c8 7 45 39 54 39c5 0 2 -27 -1 -31z" />
    <glyph glyph-name="I.roman_grave" horiz-adv-x="340" 
d="M304 15l-13 -17c-13 4 -53 7 -121 8c-10 0 -54 -3 -133 -8l11 16c4 0 9 -1 15 -1c43 0 70 13 81 37c34 73 93 420 93 441c0 25 -18 30 -39 30c-9 0 -19 -2 -30 -4l11 18c18 -2 53 -5 107 -7c42 2 81 4 115 8l-14 -17c-5 0 -10 1 -14 1c-60 0 -74 -34 -123 -294
c-18 -93 -29 -152 -29 -176c0 -22 30 -35 70 -35h13zM217 663c-3 4 -6 31 -1 31c9 0 46 -32 54 -39c23 -20 52 -44 77 -63c0 0 2 -7 1 -7c-16 3 -124 66 -131 78z" />
    <glyph glyph-name="I.roman_circumflex" horiz-adv-x="340" 
d="M304 15l-13 -17c-13 4 -53 7 -121 8c-10 0 -54 -3 -133 -8l11 16c4 0 9 -1 15 -1c43 0 70 13 81 37c34 73 93 420 93 441c0 25 -18 30 -39 30c-9 0 -19 -2 -30 -4l11 18c18 -2 53 -5 107 -7c42 2 81 4 115 8l-14 -17c-5 0 -10 1 -14 1c-60 0 -74 -34 -123 -294
c-18 -93 -29 -152 -29 -176c0 -22 30 -35 70 -35h13zM192 594c39 26 79 54 113 84h12c13 -22 40 -51 68 -70c5 -3 10 -8 18 -8v-3c-4 -1 -19 -8 -21 -9c-13 -6 -36 17 -42 22c-15 13 -29 30 -39 42c0 1 -2 2 -6 0c-12 -11 -69 -51 -89 -58c-5 -2 -10 -1 -14 0z" />
    <glyph glyph-name="I.roman_macron" horiz-adv-x="340" 
d="M304 15l-13 -17c-13 4 -53 7 -121 8c-10 0 -54 -3 -133 -8l11 16c4 0 9 -1 15 -1c43 0 70 13 81 37c34 73 93 420 93 441c0 25 -18 30 -39 30c-9 0 -19 -2 -30 -4l11 18c18 -2 53 -5 107 -7c42 2 81 4 115 8l-14 -17c-5 0 -10 1 -14 1c-60 0 -74 -34 -123 -294
c-18 -93 -29 -152 -29 -176c0 -22 30 -35 70 -35h13zM390 609c-1 -3 -4 -5 -7 -5c-51 0 -103 -9 -154 -9c-6 0 -15 13 -14 18l1 2c15 4 66 5 83 5c19 0 74 -3 88 -9c1 -1 3 -1 3 -2z" />
    <glyph glyph-name="I.roman_dotaccent" horiz-adv-x="340" 
d="M288 15l-13 -17c-13 4 -53 7 -121 8c-10 0 -54 -3 -133 -8l11 16c4 0 9 -1 15 -1c43 0 70 13 81 37c34 73 93 420 93 441c0 25 -18 30 -39 30c-9 0 -19 -2 -30 -4l11 18c18 -2 53 -5 107 -7c42 2 81 4 115 8l-14 -17c-5 0 -10 1 -14 1c-60 0 -74 -34 -123 -294
c-18 -93 -29 -152 -29 -176c0 -22 30 -35 70 -35h13zM284 638c10 -6 21 -14 33 -12c9 2 12 -3 2 -13c-12 -10 -26 -24 -38 -23c-14 1 -28 12 -36 22c-2 3 36 28 39 26z" />
    <glyph glyph-name="I.roman_dieresis" horiz-adv-x="340" 
d="M288 15l-13 -17c-13 4 -53 7 -121 8c-10 0 -54 -3 -133 -8l11 16c4 0 9 -1 15 -1c43 0 70 13 81 37c34 73 93 420 93 441c0 25 -18 30 -39 30c-9 0 -19 -2 -30 -4l11 18c18 -2 53 -5 107 -7c42 2 81 4 115 8l-14 -17c-5 0 -10 1 -14 1c-60 0 -74 -34 -123 -294
c-18 -93 -29 -152 -29 -176c0 -22 30 -35 70 -35h13zM346 647c10 -6 21 -14 33 -12c9 2 12 -3 2 -13c-12 -10 -26 -24 -38 -23c-14 1 -28 12 -36 22c-2 3 36 28 39 26zM230 647c10 -6 21 -14 33 -12c9 2 12 -3 2 -13c-12 -10 -26 -24 -38 -23c-14 1 -28 12 -36 22
c-2 3 36 28 39 26z" />
    <glyph glyph-name="I.roman_tilde" horiz-adv-x="340" 
d="M288 15l-13 -17c-13 4 -53 7 -121 8c-10 0 -54 -3 -133 -8l11 16c4 0 9 -1 15 -1c43 0 70 13 81 37c34 73 93 420 93 441c0 25 -18 30 -39 30c-9 0 -19 -2 -30 -4l11 18c18 -2 53 -5 107 -7c42 2 81 4 115 8l-14 -17c-5 0 -10 1 -14 1c-60 0 -74 -34 -123 -294
c-18 -93 -29 -152 -29 -176c0 -22 30 -35 70 -35h13zM372 652h10c-8 -27 -28 -50 -46 -50c-40 0 -66 25 -101 25c-21 0 -27 -11 -30 -18h-12c6 19 28 43 51 43c32 0 45 -19 87 -22c26 -3 35 14 41 22z" />
    <glyph glyph-name="I.roman_ogonek" horiz-adv-x="340" 
d="M239 -89c-16 -23 -55 -55 -94 -71c-42 -17 -50 1 -50 25c0 43 44 118 73 141c-13 0 -56 -3 -131 -8l11 16c4 0 9 -1 15 -1c43 0 70 13 81 37c34 73 93 420 93 441c0 25 -18 30 -39 30c-9 0 -19 -2 -30 -4l11 18c18 -2 53 -5 107 -7c42 2 81 4 115 8l-14 -17
c-5 0 -10 1 -14 1c-60 0 -74 -34 -123 -294c-18 -93 -29 -152 -29 -176c0 -22 30 -35 70 -35h13l-13 -17c-12 3 -46 7 -103 8c-23 -17 -46 -73 -46 -111c0 -15 5 -31 31 -21c22 9 51 40 71 57c3 3 -2 -16 -5 -20z" />
    <glyph glyph-name="J.roman_circumflex" horiz-adv-x="323" 
d="M441 536l-14 -14c-4 0 -8 1 -12 1c-21 0 -39 -8 -54 -21c-18 -21 -38 -95 -64 -255c-33 -197 -63 -260 -168 -260c-31 0 -67 2 -113 23v3c11 0 27 36 48 109l11 -3c-9 -23 -13 -45 -13 -66c0 -30 14 -45 42 -45c51 0 85 35 104 110c44 175 69 347 69 377
c0 22 -19 27 -40 27c-9 0 -18 -1 -28 -3l10 16c18 -2 53 -5 107 -7c42 2 81 4 115 8zM239 599c39 26 79 54 113 84h12c13 -22 40 -51 68 -70c5 -3 10 -8 18 -8v-3c-4 -1 -19 -8 -21 -9c-13 -6 -36 17 -42 22c-15 13 -29 30 -39 42c0 1 -2 2 -6 0c-12 -11 -69 -51 -89 -58
c-5 -2 -10 -1 -14 0z" />
    <glyph glyph-name="K.roman_commaaccent" horiz-adv-x="637" 
d="M304 15l-13 -17c-13 4 -53 7 -121 8c-10 0 -54 -3 -133 -8l11 16c3 0 7 -1 12 -1c84 0 93 27 132 214l18 87c18 89 28 147 28 177c0 27 -18 31 -41 31c-9 0 -18 -1 -28 -3l10 16c18 -2 53 -5 107 -7c42 2 81 4 115 8l-14 -14c-4 0 -8 1 -12 1c-52 0 -66 -7 -109 -221
l-20 -92c-14 -76 -25 -129 -25 -160c0 -22 30 -35 70 -35h13zM642 23l-11 -16c-37 -7 -67 -11 -90 -11c-52 0 -92 21 -116 62l-69 116c-18 30 -40 65 -63 104c169 134 233 198 233 216c0 16 -15 24 -43 24c-8 0 -15 0 -22 -1l13 14c10 -1 42 -5 99 -8c32 2 70 4 113 8
l-10 -11c-42 0 -113 -41 -328 -222c3 -5 30 -44 79 -119c51 -79 131 -157 203 -157c4 0 8 0 12 1zM376 -76c-8 -42 -37 -74 -69 -96c-6 -4 -12 -7 -12 -7l1 7c1 3 0 3 7 9c19 17 34 38 39 62c4 14 -7 27 -21 30l3 10c6 0 19 7 23 11c5 3 10 10 13 10c18 -3 20 -18 16 -36z
" />
    <glyph glyph-name="L.roman_acute" horiz-adv-x="460" 
d="M469 110c-25 -39 -38 -116 -82 -116c-3 0 -8 0 -14 1c-114 8 -184 12 -210 12c-35 0 -31 -2 -155 -9l9 16c4 0 8 -1 13 -1c36 0 74 16 85 40c25 55 90 419 90 440c0 24 -18 29 -40 29c-9 0 -18 -1 -28 -3l10 16c18 -2 53 -5 107 -7c42 2 81 4 115 8l-14 -14
c-4 0 -8 1 -12 1c-60 0 -70 -20 -125 -297c-12 -58 -26 -124 -26 -168c0 -27 23 -36 97 -36c52 0 88 6 109 18c18 11 55 59 62 74zM378 660c-7 -12 -115 -75 -131 -78c-1 0 1 7 1 7c25 19 54 43 77 63c8 7 45 39 54 39c5 0 2 -27 -1 -31z" />
    <glyph glyph-name="L.roman_commaaccent" horiz-adv-x="460" 
d="M469 110c-25 -39 -38 -116 -82 -116c-3 0 -8 0 -14 1c-114 8 -184 12 -210 12c-35 0 -31 -2 -155 -9l9 16c4 0 8 -1 13 -1c36 0 74 16 85 40c25 55 90 419 90 440c0 24 -18 29 -40 29c-9 0 -18 -1 -28 -3l10 16c18 -2 53 -5 107 -7c42 2 81 4 115 8l-14 -14
c-4 0 -8 1 -12 1c-60 0 -70 -20 -125 -297c-12 -58 -26 -124 -26 -168c0 -27 23 -36 97 -36c52 0 88 6 109 18c18 11 55 59 62 74zM237 -74c-8 -42 -37 -74 -69 -96c-6 -4 -12 -7 -12 -7l1 7c1 3 0 3 7 9c19 17 34 38 39 62c4 14 -7 27 -21 30l3 10c6 0 19 7 23 11
c5 3 10 10 13 10c18 -3 20 -18 16 -36z" />
    <glyph glyph-name="L.roman_caron" horiz-adv-x="460" 
d="M469 110c-25 -39 -38 -116 -82 -116c-3 0 -8 0 -14 1c-114 8 -184 12 -210 12c-35 0 -31 -2 -155 -9l9 16c4 0 8 -1 13 -1c36 0 74 16 85 40c25 55 90 419 90 440c0 24 -18 29 -40 29c-9 0 -18 -1 -28 -3l10 16c18 -2 53 -5 107 -7c42 2 81 4 115 8l-14 -14
c-4 0 -8 1 -12 1c-60 0 -70 -20 -125 -297c-12 -58 -26 -124 -26 -168c0 -27 23 -36 97 -36c52 0 88 6 109 18c18 11 55 59 62 74zM456 500c-8 -42 -37 -74 -69 -96c-6 -4 -12 -7 -12 -7l1 7c1 3 0 3 7 9c19 17 34 38 39 62c4 14 -7 27 -21 30l3 10c6 0 19 7 23 11
c5 3 10 10 13 10c18 -3 20 -18 16 -36z" />
    <glyph glyph-name="N.roman_tilde" horiz-adv-x="645" 
d="M742 538l-8 -10c-34 0 -56 -11 -66 -32c-8 -18 -114 -440 -117 -539l-8 -5c-7 20 -38 66 -92 138l-109 144c-31 40 -74 98 -127 174c-44 -126 -71 -320 -71 -349c0 -30 16 -45 53 -45c7 0 15 0 22 1l-14 -17c-35 4 -73 7 -112 7c-35 0 -64 -3 -86 -7l11 16
c34 0 60 13 65 32c36 136 59 216 64 237c23 107 34 177 34 209c0 26 -19 30 -42 30c-8 0 -17 -1 -27 -3l10 16c12 -2 27 -2 43 -2c17 0 35 0 57 2c117 -222 188 -289 306 -430c28 93 81 359 81 385c0 23 -15 35 -44 35c-7 0 -16 -1 -29 -3l10 14c10 -2 42 -5 98 -8
c49 2 82 6 98 10zM511 639h10c-8 -27 -28 -50 -46 -50c-40 0 -66 25 -101 25c-21 0 -27 -11 -30 -18h-12c6 19 28 43 51 43c32 0 45 -19 87 -22c26 -3 35 14 41 22z" />
    <glyph glyph-name="N.roman_acute" horiz-adv-x="645" 
d="M742 538l-8 -10c-34 0 -56 -11 -66 -32c-8 -18 -114 -440 -117 -539l-8 -5c-7 20 -38 66 -92 138l-109 144c-31 40 -74 98 -127 174c-44 -126 -71 -320 -71 -349c0 -30 16 -45 53 -45c7 0 15 0 22 1l-14 -17c-35 4 -73 7 -112 7c-35 0 -64 -3 -86 -7l11 16
c34 0 60 13 65 32c36 136 59 216 64 237c23 107 34 177 34 209c0 26 -19 30 -42 30c-8 0 -17 -1 -27 -3l10 16c12 -2 27 -2 43 -2c17 0 35 0 57 2c117 -222 188 -289 306 -430c28 93 81 359 81 385c0 23 -15 35 -44 35c-7 0 -16 -1 -29 -3l10 14c10 -2 42 -5 98 -8
c49 2 82 6 98 10zM524 633c-7 -12 -115 -75 -131 -78c-1 0 1 7 1 7c25 19 54 43 77 63c8 7 45 39 54 39c5 0 2 -27 -1 -31z" />
    <glyph glyph-name="N.roman_commaaccent" horiz-adv-x="645" 
d="M742 538l-8 -10c-34 0 -56 -11 -66 -32c-8 -18 -114 -440 -117 -539l-8 -5c-7 20 -38 66 -92 138l-109 144c-31 40 -74 98 -127 174c-44 -126 -71 -320 -71 -349c0 -30 16 -45 53 -45c7 0 15 0 22 1l-14 -17c-35 4 -73 7 -112 7c-35 0 -64 -3 -86 -7l11 16
c34 0 60 13 65 32c36 136 59 216 64 237c23 107 34 177 34 209c0 26 -19 30 -42 30c-8 0 -17 -1 -27 -3l10 16c12 -2 27 -2 43 -2c17 0 35 0 57 2c117 -222 188 -289 306 -430c28 93 81 359 81 385c0 23 -15 35 -44 35c-7 0 -16 -1 -29 -3l10 14c10 -2 42 -5 98 -8
c49 2 82 6 98 10zM339 -91c-8 -42 -37 -74 -69 -96c-6 -4 -12 -7 -12 -7l1 7c1 3 0 3 7 9c19 17 34 38 39 62c4 14 -7 27 -21 30l3 10c6 0 19 7 23 11c5 3 10 10 13 10c18 -3 20 -18 16 -36z" />
    <glyph glyph-name="N.roman_caron" horiz-adv-x="645" 
d="M742 538l-8 -10c-34 0 -56 -11 -66 -32c-8 -18 -114 -440 -117 -539l-8 -5c-7 20 -38 66 -92 138l-109 144c-31 40 -74 98 -127 174c-44 -126 -71 -320 -71 -349c0 -30 16 -45 53 -45c7 0 15 0 22 1l-14 -17c-35 4 -73 7 -112 7c-35 0 -64 -3 -86 -7l11 16
c34 0 60 13 65 32c36 136 59 216 64 237c23 107 34 177 34 209c0 26 -19 30 -42 30c-8 0 -17 -1 -27 -3l10 16c12 -2 27 -2 43 -2c17 0 35 0 57 2c117 -222 188 -289 306 -430c28 93 81 359 81 385c0 23 -15 35 -44 35c-7 0 -16 -1 -29 -3l10 14c10 -2 42 -5 98 -8
c49 2 82 6 98 10zM556 648c-39 -26 -79 -54 -113 -84h-12c-13 22 -40 51 -68 70c-5 3 -10 8 -18 8v3c4 1 19 8 21 9c13 6 36 -17 42 -22c15 -13 29 -30 39 -42c0 -1 2 -2 6 0c12 11 69 51 89 58c5 2 10 1 14 0z" />
    <glyph glyph-name="Eng.roman" horiz-adv-x="645" 
d="M742 538l-8 -10c-34 0 -56 -11 -66 -32c-7 -16 -83 -269 -115 -469h1c-8 -51 -14 -102 -25 -154c-30 -148 -64 -198 -157 -198c-31 0 -67 2 -113 23v3c11 0 27 36 48 109l11 -3c-9 -23 -13 -45 -13 -66c0 -30 14 -45 42 -45c51 0 85 35 104 110c20 78 35 156 47 219
c-13 19 -29 40 -47 65l-109 144c-31 40 -74 98 -127 174c-44 -126 -71 -320 -71 -349c0 -30 16 -45 53 -45c7 0 15 0 22 1l-14 -17c-35 4 -73 7 -112 7c-35 0 -64 -3 -86 -7l11 16c34 0 60 13 65 32c36 136 59 216 64 237c23 107 34 177 34 209c0 26 -19 30 -42 30
c-8 0 -17 -1 -27 -3l10 16c12 -2 27 -2 43 -2c17 0 35 0 57 2c117 -222 188 -289 306 -430c28 93 81 359 81 385c0 23 -15 35 -44 35c-7 0 -16 -1 -29 -3l10 14c10 -2 42 -5 98 -8c49 2 82 6 98 10z" />
    <glyph glyph-name="O.roman_grave" horiz-adv-x="636" 
d="M664 274c-41 -193 -158 -290 -348 -290c-158 0 -236 66 -236 196c0 237 148 361 352 361c157 0 241 -67 241 -191c0 -23 -3 -49 -9 -76zM353 10c136 18 246 154 246 313c0 120 -68 193 -172 193c-160 0 -274 -143 -274 -307c0 -119 71 -201 172 -201c9 0 18 1 28 2z
M371 645c-3 4 -6 31 -1 31c9 0 46 -32 54 -39c23 -20 52 -44 77 -63c0 0 2 -7 1 -7c-16 3 -124 66 -131 78z" />
    <glyph glyph-name="O.roman_acute" horiz-adv-x="636" 
d="M664 274c-41 -193 -158 -290 -348 -290c-158 0 -236 66 -236 196c0 237 148 361 352 361c157 0 241 -67 241 -191c0 -23 -3 -49 -9 -76zM353 10c136 18 246 154 246 313c0 120 -68 193 -172 193c-160 0 -274 -143 -274 -307c0 -119 71 -201 172 -201c9 0 18 1 28 2z
M549 654c-7 -12 -115 -75 -131 -78c-1 0 1 7 1 7c25 19 54 43 77 63c8 7 45 39 54 39c5 0 2 -27 -1 -31z" />
    <glyph glyph-name="O.roman_circumflex" horiz-adv-x="636" 
d="M664 274c-41 -193 -158 -290 -348 -290c-158 0 -236 66 -236 196c0 237 148 361 352 361c157 0 241 -67 241 -191c0 -23 -3 -49 -9 -76zM353 10c136 18 246 154 246 313c0 120 -68 193 -172 193c-160 0 -274 -143 -274 -307c0 -119 71 -201 172 -201c9 0 18 1 28 2z
M355 586c39 26 79 54 113 84h12c13 -22 40 -51 68 -70c5 -3 10 -8 18 -8v-3c-4 -1 -19 -8 -21 -9c-13 -6 -36 17 -42 22c-15 13 -29 30 -39 42c0 1 -2 2 -6 0c-12 -11 -69 -51 -89 -58c-5 -2 -10 -1 -14 0z" />
    <glyph glyph-name="O.roman_tilde" horiz-adv-x="636" 
d="M664 274c-41 -193 -158 -290 -348 -290c-158 0 -236 66 -236 196c0 237 148 361 352 361c157 0 241 -67 241 -191c0 -23 -3 -49 -9 -76zM353 10c136 18 246 154 246 313c0 120 -68 193 -172 193c-160 0 -274 -143 -274 -307c0 -119 71 -201 172 -201c9 0 18 1 28 2z
M546 639h10c-8 -27 -28 -50 -46 -50c-40 0 -66 25 -101 25c-21 0 -27 -11 -30 -18h-12c6 19 28 43 51 43c32 0 45 -19 87 -22c26 -3 35 14 41 22z" />
    <glyph glyph-name="O.roman_dieresis" horiz-adv-x="636" 
d="M664 274c-41 -193 -158 -290 -348 -290c-158 0 -236 66 -236 196c0 237 148 361 352 361c157 0 241 -67 241 -191c0 -23 -3 -49 -9 -76zM353 10c136 18 246 154 246 313c0 120 -68 193 -172 193c-160 0 -274 -143 -274 -307c0 -119 71 -201 172 -201c9 0 18 1 28 2z
M405 647c10 -6 21 -14 33 -12c9 2 12 -3 2 -13c-12 -10 -26 -24 -38 -23c-14 1 -28 12 -36 22c-2 3 36 28 39 26zM521 647c10 -6 21 -14 33 -12c9 2 12 -3 2 -13c-12 -10 -26 -24 -38 -23c-14 1 -28 12 -36 22c-2 3 36 28 39 26z" />
    <glyph glyph-name="O.roman_slash" horiz-adv-x="636" 
d="M229 -43l12 33c-108 19 -161 82 -161 190c0 237 148 361 352 361c15 0 30 -1 44 -2c5 8 9 17 13 24c1 5 37 5 36 2c-5 -8 -10 -19 -16 -31c107 -19 164 -82 164 -184c0 -23 -3 -49 -9 -76c-41 -193 -158 -290 -348 -290c-17 0 -33 1 -48 3l-11 -29c-3 -9 -31 -10 -28 -1z
M353 10c136 18 246 154 246 313c0 92 -40 156 -105 181c-60 -125 -162 -361 -215 -490c15 -4 30 -6 46 -6c9 0 18 1 28 2zM153 209c0 -89 39 -157 101 -186c66 170 153 374 209 489c-11 2 -24 4 -36 4c-160 0 -274 -143 -274 -307z" />
    <glyph glyph-name="O.roman_hungarumlaut" horiz-adv-x="636" 
d="M640 274c-41 -193 -158 -290 -348 -290c-158 0 -236 66 -236 196c0 237 148 361 352 361c157 0 241 -67 241 -191c0 -23 -3 -49 -9 -76zM329 10c136 18 246 154 246 313c0 120 -68 193 -172 193c-160 0 -274 -143 -274 -307c0 -119 71 -201 172 -201c9 0 18 1 28 2z
M442 712c0 -15 -62 -118 -74 -129c-1 -1 -10 -3 -10 -3c13 32 18 46 30 78c3 10 21 60 29 65c4 3 26 -6 25 -11zM534 712c0 -15 -62 -118 -74 -129c-1 -1 -10 -3 -10 -3c13 32 18 46 30 78c3 10 21 60 29 65c4 3 26 -6 25 -11z" />
    <glyph glyph-name="O.roman_macron" horiz-adv-x="636" 
d="M640 274c-41 -193 -158 -290 -348 -290c-158 0 -236 66 -236 196c0 237 148 361 352 361c157 0 241 -67 241 -191c0 -23 -3 -49 -9 -76zM329 10c136 18 246 154 246 313c0 120 -68 193 -172 193c-160 0 -274 -143 -274 -307c0 -119 71 -201 172 -201c9 0 18 1 28 2z
M524 628c-1 -3 -4 -5 -7 -5c-51 0 -103 -9 -154 -9c-6 0 -15 13 -14 18l1 2c15 4 66 5 83 5c19 0 74 -3 88 -9c1 -1 3 -1 3 -2z" />
    <glyph glyph-name="OE.roman" horiz-adv-x="853" 
d="M844 110c-28 -46 -38 -116 -85 -116c-4 0 -7 0 -11 1c-118 8 -184 12 -199 12c-32 0 -33 -2 -87 -2h-12c-39 -13 -84 -21 -134 -21c-158 0 -236 66 -236 196c0 237 148 361 352 361c47 0 149 -13 197 -13c72 0 148 2 228 2c3 0 6 -3 6 -9c0 -2 -23 -52 -23 -55l-18 -47
l-16 3c18 34 22 45 22 50c0 21 -24 29 -102 29c-29 0 -51 -2 -64 -3c-14 -30 -33 -99 -56 -208l170 2c4 0 6 -2 6 -5c0 -7 -15 -34 -22 -72l-17 -4c1 2 9 15 9 26c0 36 -99 29 -129 29h-22c-25 -119 -36 -191 -36 -216c0 -16 9 -28 97 -28c115 0 148 37 173 92zM325 8
c78 0 157 22 181 104c7 23 51 184 68 291c1 6 1 12 1 17c0 79 -77 96 -148 96c-160 0 -274 -143 -274 -307c0 -119 71 -201 172 -201z" />
    <glyph glyph-name="R.roman_acute" horiz-adv-x="606" 
d="M605 11l-11 -14c-24 -3 -43 -4 -59 -4c-66 0 -110 24 -131 73l-56 119c-19 40 -26 52 -40 65c-16 -1 -30 -2 -43 -2l11 14c95 0 179 67 179 160c0 49 -35 84 -94 84c-26 0 -44 0 -51 -2c-40 -8 -47 -84 -68 -182l-25 -115c-19 -88 -26 -143 -27 -162c0 -19 32 -29 85 -31
l-13 -16c-30 5 -63 8 -101 8c-28 0 -79 -3 -152 -8l10 16c4 -1 8 -1 13 -1c36 0 74 14 86 39c31 68 91 420 91 439c0 25 -19 30 -41 30c-8 0 -17 -1 -27 -3l10 15c17 -2 53 -4 106 -7c8 0 105 7 131 7c91 0 131 -27 131 -88c0 -64 -66 -159 -136 -171
c50 -151 143 -263 222 -263zM451 642c-7 -12 -115 -75 -131 -78c-1 0 1 7 1 7c25 19 54 43 77 63c8 7 45 39 54 39c5 0 2 -27 -1 -31z" />
    <glyph glyph-name="R.roman_commaacent" horiz-adv-x="606" 
d="M605 11l-11 -14c-24 -3 -43 -4 -59 -4c-66 0 -110 24 -131 73l-56 119c-19 40 -26 52 -40 65c-16 -1 -30 -2 -43 -2l11 14c95 0 179 67 179 160c0 49 -35 84 -94 84c-26 0 -44 0 -51 -2c-40 -8 -47 -84 -68 -182l-25 -115c-19 -88 -26 -143 -27 -162c0 -19 32 -29 85 -31
l-13 -16c-30 5 -63 8 -101 8c-28 0 -79 -3 -152 -8l10 16c4 -1 8 -1 13 -1c36 0 74 14 86 39c31 68 91 420 91 439c0 25 -19 30 -41 30c-8 0 -17 -1 -27 -3l10 15c17 -2 53 -4 106 -7c8 0 105 7 131 7c91 0 131 -27 131 -88c0 -64 -66 -159 -136 -171
c50 -151 143 -263 222 -263zM335 -65c-8 -42 -37 -74 -69 -96c-6 -4 -12 -7 -12 -7l1 7c1 3 0 3 7 9c19 17 34 38 39 62c4 14 -7 27 -21 30l3 10c6 0 19 7 23 11c5 3 10 10 13 10c18 -3 20 -18 16 -36z" />
    <glyph glyph-name="S.roman_acute" horiz-adv-x="349" 
d="M412 503c-18 -30 -29 -62 -36 -96l-16 7c6 10 15 30 15 49c0 36 -39 52 -75 52c-61 0 -118 -50 -118 -117c0 -43 3 -52 103 -120c59 -40 70 -71 70 -109c0 -123 -116 -184 -229 -184c-46 0 -92 8 -92 23v3c11 43 20 79 25 108l19 7c-7 -36 -11 -57 -11 -64
c0 -29 45 -54 92 -54c63 0 124 43 124 132c0 41 -18 72 -61 102l-76 53c-17 17 -26 38 -26 63c0 95 99 180 206 180h1c49 0 86 -16 86 -30c0 -2 0 -4 -1 -5zM429 654c-7 -12 -115 -75 -131 -78c-1 0 1 7 1 7c25 19 54 43 77 63c8 7 45 39 54 39c5 0 2 -27 -1 -31z" />
    <glyph glyph-name="S.roman_caron" horiz-adv-x="349" 
d="M412 503c-18 -30 -29 -62 -36 -96l-16 7c6 10 15 30 15 49c0 36 -39 52 -75 52c-61 0 -118 -50 -118 -117c0 -43 3 -52 103 -120c59 -40 70 -71 70 -109c0 -123 -116 -184 -229 -184c-46 0 -92 8 -92 23v3c11 43 20 79 25 108l19 7c-7 -36 -11 -57 -11 -64
c0 -29 45 -54 92 -54c63 0 124 43 124 132c0 41 -18 72 -61 102l-76 53c-17 17 -26 38 -26 63c0 95 99 180 206 180h1c49 0 86 -16 86 -30c0 -2 0 -4 -1 -5zM441 661c-39 -26 -79 -54 -113 -84h-12c-13 22 -40 51 -68 70c-5 3 -10 8 -18 8v3c4 1 19 8 21 9
c13 6 36 -17 42 -22c15 -13 29 -30 39 -42c0 -1 2 -2 6 0c12 11 69 51 89 58c5 2 10 1 14 0z" />
    <glyph glyph-name="S.roman_commaaccent" horiz-adv-x="349" 
d="M412 503c-18 -30 -29 -62 -36 -96l-16 7c6 10 15 30 15 49c0 36 -39 52 -75 52c-61 0 -118 -50 -118 -117c0 -43 3 -52 103 -120c59 -40 70 -71 70 -109c0 -123 -116 -184 -229 -184c-46 0 -92 8 -92 23v3c11 43 20 79 25 108l19 7c-7 -36 -11 -57 -11 -64
c0 -29 45 -54 92 -54c63 0 124 43 124 132c0 41 -18 72 -61 102l-76 53c-17 17 -26 38 -26 63c0 95 99 180 206 180h1c49 0 86 -16 86 -30c0 -2 0 -4 -1 -5zM161 -89c-8 -42 -37 -74 -69 -96c-6 -4 -12 -7 -12 -7l1 7c1 3 0 3 7 9c19 17 34 38 39 62c4 14 -7 27 -21 30l3 10
c6 0 19 7 23 11c5 3 10 10 13 10c18 -3 20 -18 16 -36z" />
    <glyph glyph-name="S.roman_cedilla" horiz-adv-x="349" 
d="M412 503c-18 -30 -29 -62 -36 -96l-16 7c6 10 15 30 15 49c0 36 -39 52 -75 52c-61 0 -118 -50 -118 -117c0 -43 3 -52 103 -120c59 -40 70 -71 70 -109c0 -102 -80 -162 -172 -179c-19 -10 -32 -27 -32 -45c0 -31 41 -49 35 -87c-10 -54 -91 -76 -140 -76
c-4 0 -7 4 -6 8c0 4 6 6 9 6c14 2 89 -6 100 53c4 24 -33 53 -33 83c0 21 11 41 28 54c-6 -1 -12 -1 -18 -1c-46 0 -92 8 -92 23v3c11 43 20 79 25 108l19 7c-7 -36 -11 -57 -11 -64c0 -29 45 -54 92 -54c63 0 124 43 124 132c0 41 -18 72 -61 102l-76 53
c-17 17 -26 38 -26 63c0 95 99 180 206 180h1c49 0 86 -16 86 -30c0 -2 0 -4 -1 -5z" />
    <glyph glyph-name="T.roman_bar" horiz-adv-x="503" 
d="M446 381c6 0 -22 -36 -33 -35c-18 1 -37 3 -62 4c-1 -8 -3 -15 -5 -24l-23 -107c-17 -80 -27 -136 -31 -169c1 -21 28 -35 72 -35h13l-12 -17c-20 5 -60 8 -121 8c-21 0 -66 -3 -133 -8l11 16c3 0 8 -1 14 -1c44 0 71 13 83 38c13 39 26 93 41 162l24 113l5 25
c-30 0 -58 -1 -90 -3c-6 -2 22 35 33 34c15 -3 37 -4 61 -5c8 47 18 107 18 114c0 9 -5 14 -23 14c-75 0 -117 -7 -129 -21c-18 -21 -32 -47 -40 -79l-14 6l42 125c70 -5 139 -8 210 -8c89 0 169 3 241 8c-18 -31 -54 -122 -56 -132l-14 5c12 26 19 46 19 62
c0 24 -25 34 -131 34c-29 0 -32 0 -59 -128c38 0 67 2 89 4z" />
    <glyph glyph-name="T.roman_caron" horiz-adv-x="503" 
d="M323 219c-17 -80 -27 -136 -31 -169c1 -21 28 -35 72 -35h13l-12 -17c-20 5 -60 8 -121 8c-21 0 -66 -3 -133 -8l11 16c3 0 8 -1 14 -1c44 0 71 13 83 38c13 39 26 93 41 162l24 113c6 29 27 155 27 165c0 9 -5 14 -23 14c-75 0 -117 -7 -129 -21
c-18 -21 -32 -47 -40 -79l-14 6l42 125c70 -5 139 -8 210 -8c89 0 169 3 241 8c-18 -31 -54 -122 -56 -132l-14 5c12 26 19 46 19 62c0 24 -25 34 -131 34c-32 0 -32 1 -70 -179zM481 660c-39 -26 -79 -54 -113 -84h-12c-13 22 -40 51 -68 70c-5 3 -10 8 -18 8v3
c4 1 19 8 21 9c13 6 36 -17 42 -22c15 -13 29 -30 39 -42c0 -1 2 -2 6 0c12 11 69 51 89 58c5 2 10 1 14 0z" />
    <glyph glyph-name="T.roman_commaaccent" horiz-adv-x="503" 
d="M323 219c-17 -80 -27 -136 -31 -169c1 -21 28 -35 72 -35h13l-12 -17c-20 5 -60 8 -121 8c-21 0 -66 -3 -133 -8l11 16c3 0 8 -1 14 -1c44 0 71 13 83 38c13 39 26 93 41 162l24 113c6 29 27 155 27 165c0 9 -5 14 -23 14c-75 0 -117 -7 -129 -21
c-18 -21 -32 -47 -40 -79l-14 6l42 125c70 -5 139 -8 210 -8c89 0 169 3 241 8c-18 -31 -54 -122 -56 -132l-14 5c12 26 19 46 19 62c0 24 -25 34 -131 34c-32 0 -32 1 -70 -179zM274 -94c-8 -42 -37 -74 -69 -96c-6 -4 -12 -7 -12 -7l1 7c1 3 0 3 7 9c19 17 34 38 39 62
c4 14 -7 27 -21 30l3 10c6 0 19 7 23 11c5 3 10 10 13 10c18 -3 20 -18 16 -36z" />
    <glyph glyph-name="U.roman_grave" horiz-adv-x="658" 
d="M761 536l-14 -14c-4 0 -8 1 -12 1c-45 0 -64 -8 -92 -143l-35 -165c-31 -146 -134 -231 -280 -231c-141 0 -198 46 -198 136c0 18 2 37 7 58l29 133c19 87 27 147 27 177s-16 34 -41 34c-8 0 -17 -1 -28 -3l11 16c17 -2 52 -5 107 -7c41 2 81 4 115 8l-14 -14
c-4 0 -8 1 -12 1c-22 0 -40 -8 -54 -21c-26 -39 -30 -88 -78 -305c-5 -24 -7 -45 -7 -64c0 -82 45 -124 139 -124c123 0 211 68 236 193l28 128c14 62 19 109 19 140c0 41 -5 51 -58 51c-8 0 -16 0 -23 -2l10 16c20 -2 54 -5 103 -7c42 2 81 4 115 8zM360 644
c-3 4 -6 31 -1 31c9 0 46 -32 54 -39c23 -20 52 -44 77 -63c0 0 2 -7 1 -7c-16 3 -124 66 -131 78z" />
    <glyph glyph-name="U.roman_acute" horiz-adv-x="658" 
d="M761 536l-14 -14c-4 0 -8 1 -12 1c-45 0 -64 -8 -92 -143l-35 -165c-31 -146 -134 -231 -280 -231c-141 0 -198 46 -198 136c0 18 2 37 7 58l29 133c19 87 27 147 27 177s-16 34 -41 34c-8 0 -17 -1 -28 -3l11 16c17 -2 52 -5 107 -7c41 2 81 4 115 8l-14 -14
c-4 0 -8 1 -12 1c-22 0 -40 -8 -54 -21c-26 -39 -30 -88 -78 -305c-5 -24 -7 -45 -7 -64c0 -82 45 -124 139 -124c123 0 211 68 236 193l28 128c14 62 19 109 19 140c0 41 -5 51 -58 51c-8 0 -16 0 -23 -2l10 16c20 -2 54 -5 103 -7c42 2 81 4 115 8zM546 647
c-7 -12 -115 -75 -131 -78c-1 0 1 7 1 7c25 19 54 43 77 63c8 7 45 39 54 39c5 0 2 -27 -1 -31z" />
    <glyph glyph-name="U.roman_circumflex" horiz-adv-x="658" 
d="M761 536l-14 -14c-4 0 -8 1 -12 1c-45 0 -64 -8 -92 -143l-35 -165c-31 -146 -134 -231 -280 -231c-141 0 -198 46 -198 136c0 18 2 37 7 58l29 133c19 87 27 147 27 177s-16 34 -41 34c-8 0 -17 -1 -28 -3l11 16c17 -2 52 -5 107 -7c41 2 81 4 115 8l-14 -14
c-4 0 -8 1 -12 1c-22 0 -40 -8 -54 -21c-26 -39 -30 -88 -78 -305c-5 -24 -7 -45 -7 -64c0 -82 45 -124 139 -124c123 0 211 68 236 193l28 128c14 62 19 109 19 140c0 41 -5 51 -58 51c-8 0 -16 0 -23 -2l10 16c20 -2 54 -5 103 -7c42 2 81 4 115 8zM358 590
c39 26 79 54 113 84h12c13 -22 40 -51 68 -70c5 -3 10 -8 18 -8v-3c-4 -1 -19 -8 -21 -9c-13 -6 -36 17 -42 22c-15 13 -29 30 -39 42c0 1 -2 2 -6 0c-12 -11 -69 -51 -89 -58c-5 -2 -10 -1 -14 0z" />
    <glyph glyph-name="U.roman_dieresis" horiz-adv-x="658" 
d="M761 536l-14 -14c-4 0 -8 1 -12 1c-45 0 -64 -8 -92 -143l-35 -165c-31 -146 -134 -231 -280 -231c-141 0 -198 46 -198 136c0 18 2 37 7 58l29 133c19 87 27 147 27 177s-16 34 -41 34c-8 0 -17 -1 -28 -3l11 16c17 -2 52 -5 107 -7c41 2 81 4 115 8l-14 -14
c-4 0 -8 1 -12 1c-22 0 -40 -8 -54 -21c-26 -39 -30 -88 -78 -305c-5 -24 -7 -45 -7 -64c0 -82 45 -124 139 -124c123 0 211 68 236 193l28 128c14 62 19 109 19 140c0 41 -5 51 -58 51c-8 0 -16 0 -23 -2l10 16c20 -2 54 -5 103 -7c42 2 81 4 115 8zM397 641
c10 -6 21 -14 33 -12c9 2 12 -3 2 -13c-12 -10 -26 -24 -38 -23c-14 1 -28 12 -36 22c-2 3 36 28 39 26zM513 641c10 -6 21 -14 33 -12c9 2 12 -3 2 -13c-12 -10 -26 -24 -38 -23c-14 1 -28 12 -36 22c-2 3 36 28 39 26z" />
    <glyph glyph-name="U.roman_ring" horiz-adv-x="658" 
d="M761 536l-14 -14c-4 0 -8 1 -12 1c-45 0 -64 -8 -92 -143l-35 -165c-31 -146 -134 -231 -280 -231c-141 0 -198 46 -198 136c0 18 2 37 7 58l29 133c19 87 27 147 27 177s-16 34 -41 34c-8 0 -17 -1 -28 -3l11 16c17 -2 52 -5 107 -7c41 2 81 4 115 8l-14 -14
c-4 0 -8 1 -12 1c-22 0 -40 -8 -54 -21c-26 -39 -30 -88 -78 -305c-5 -24 -7 -45 -7 -64c0 -82 45 -124 139 -124c123 0 211 68 236 193l28 128c14 62 19 109 19 140c0 41 -5 51 -58 51c-8 0 -16 0 -23 -2l10 16c20 -2 54 -5 103 -7c42 2 81 4 115 8zM518 654
c-6 -37 -50 -73 -90 -73c-20 0 -33 11 -30 30c3 17 22 52 43 57c10 15 30 26 47 26c24 0 34 -21 30 -40zM498 652c2 11 1 27 -14 27c-9 0 -18 -5 -26 -10l8 -4c-12 -21 -32 -28 -37 -54c-1 -8 1 -15 11 -15c28 0 54 33 58 56z" />
    <glyph glyph-name="U.roman_hungarumlaut" horiz-adv-x="658" 
d="M761 536l-14 -14c-4 0 -8 1 -12 1c-45 0 -64 -8 -92 -143l-35 -165c-31 -146 -134 -231 -280 -231c-141 0 -198 46 -198 136c0 18 2 37 7 58l29 133c19 87 27 147 27 177s-16 34 -41 34c-8 0 -17 -1 -28 -3l11 16c17 -2 52 -5 107 -7c41 2 81 4 115 8l-14 -14
c-4 0 -8 1 -12 1c-22 0 -40 -8 -54 -21c-26 -39 -30 -88 -78 -305c-5 -24 -7 -45 -7 -64c0 -82 45 -124 139 -124c123 0 211 68 236 193l28 128c14 62 19 109 19 140c0 41 -5 51 -58 51c-8 0 -16 0 -23 -2l10 16c20 -2 54 -5 103 -7c42 2 81 4 115 8zM478 702
c0 -15 -62 -118 -74 -129c-1 -1 -10 -3 -10 -3c13 32 18 46 30 78c3 10 21 60 29 65c4 3 26 -6 25 -11zM570 702c0 -15 -62 -118 -74 -129c-1 -1 -10 -3 -10 -3c13 32 18 46 30 78c3 10 21 60 29 65c4 3 26 -6 25 -11z" />
    <glyph glyph-name="U.roman_breve" horiz-adv-x="658" 
d="M761 536l-14 -14c-4 0 -8 1 -12 1c-45 0 -64 -8 -92 -143l-35 -165c-31 -146 -134 -231 -280 -231c-141 0 -198 46 -198 136c0 18 2 37 7 58l29 133c19 87 27 147 27 177s-16 34 -41 34c-8 0 -17 -1 -28 -3l11 16c17 -2 52 -5 107 -7c41 2 81 4 115 8l-14 -14
c-4 0 -8 1 -12 1c-22 0 -40 -8 -54 -21c-26 -39 -30 -88 -78 -305c-5 -24 -7 -45 -7 -64c0 -82 45 -124 139 -124c123 0 211 68 236 193l28 128c14 62 19 109 19 140c0 41 -5 51 -58 51c-8 0 -16 0 -23 -2l10 16c20 -2 54 -5 103 -7c42 2 81 4 115 8zM540 631
c-19 -23 -67 -48 -109 -48c-21 0 -58 3 -58 32c0 6 6 20 12 20h15c-16 -26 14 -37 37 -37c38 0 72 24 87 33h16z" />
    <glyph glyph-name="U.roman_ogonek" horiz-adv-x="658" 
d="M393 -108c-16 -23 -55 -55 -94 -71c-42 -17 -50 1 -50 25c0 42 40 112 69 138c-134 2 -188 48 -188 136c0 18 2 37 7 58l29 133c19 87 27 147 27 177s-16 34 -41 34c-8 0 -17 -1 -28 -3l11 16c17 -2 52 -5 107 -7c41 2 81 4 115 8l-14 -14c-4 0 -8 1 -12 1
c-22 0 -40 -8 -54 -21c-26 -39 -30 -88 -78 -305c-5 -24 -7 -45 -7 -64c0 -82 45 -124 139 -124c123 0 211 68 236 193l28 128c14 62 19 109 19 140c0 41 -5 51 -58 51c-8 0 -16 0 -23 -2l10 16c20 -2 54 -5 103 -7c42 2 81 4 115 8l-14 -14c-4 0 -8 1 -12 1
c-45 0 -64 -8 -92 -143l-35 -165c-31 -143 -129 -227 -270 -231c-21 -20 -42 -72 -42 -108c0 -15 5 -31 31 -21c22 9 51 40 71 57c3 3 -2 -16 -5 -20z" />
    <glyph glyph-name="U.roman_macron" horiz-adv-x="658" 
d="M761 536l-14 -14c-4 0 -8 1 -12 1c-45 0 -64 -8 -92 -143l-35 -165c-31 -146 -134 -231 -280 -231c-141 0 -198 46 -198 136c0 18 2 37 7 58l29 133c19 87 27 147 27 177s-16 34 -41 34c-8 0 -17 -1 -28 -3l11 16c17 -2 52 -5 107 -7c41 2 81 4 115 8l-14 -14
c-4 0 -8 1 -12 1c-22 0 -40 -8 -54 -21c-26 -39 -30 -88 -78 -305c-5 -24 -7 -45 -7 -64c0 -82 45 -124 139 -124c123 0 211 68 236 193l28 128c14 62 19 109 19 140c0 41 -5 51 -58 51c-8 0 -16 0 -23 -2l10 16c20 -2 54 -5 103 -7c42 2 81 4 115 8zM557 602
c-1 -3 -4 -5 -7 -5c-51 0 -103 -9 -154 -9c-6 0 -15 13 -14 18l1 2c15 4 66 5 83 5c19 0 74 -3 88 -9c1 -1 3 -1 3 -2z" />
    <glyph glyph-name="U.roman_tilde" horiz-adv-x="658" 
d="M761 536l-14 -14c-4 0 -8 1 -12 1c-45 0 -64 -8 -92 -143l-35 -165c-31 -146 -134 -231 -280 -231c-141 0 -198 46 -198 136c0 18 2 37 7 58l29 133c19 87 27 147 27 177s-16 34 -41 34c-8 0 -17 -1 -28 -3l11 16c17 -2 52 -5 107 -7c41 2 81 4 115 8l-14 -14
c-4 0 -8 1 -12 1c-22 0 -40 -8 -54 -21c-26 -39 -30 -88 -78 -305c-5 -24 -7 -45 -7 -64c0 -82 45 -124 139 -124c123 0 211 68 236 193l28 128c14 62 19 109 19 140c0 41 -5 51 -58 51c-8 0 -16 0 -23 -2l10 16c20 -2 54 -5 103 -7c42 2 81 4 115 8zM534 635h10
c-8 -27 -28 -50 -46 -50c-40 0 -66 25 -101 25c-21 0 -27 -11 -30 -18h-12c6 19 28 43 51 43c32 0 45 -19 87 -22c26 -3 35 14 41 22z" />
    <glyph glyph-name="Y.roman_acute" horiz-adv-x="563" 
d="M393 294c-42 -56 -64 -134 -78 -244c0 -21 25 -35 73 -35h13l-12 -17c-20 5 -59 8 -121 8c-21 0 -66 -3 -133 -8l11 16c3 0 9 -1 14 -1c45 0 74 13 84 37c25 58 39 134 39 189c0 80 -61 245 -88 268c-3 3 -66 19 -73 12l6 15c4 0 61 -5 138 -5c13 0 58 -179 76 -260
c29 45 65 96 109 153c60 77 77 106 107 106c2 0 38 2 109 5l-13 -18h-15c-81 0 -140 -83 -246 -221zM502 626c-7 -12 -115 -75 -131 -78c-1 0 1 7 1 7c25 19 54 43 77 63c8 7 45 39 54 39c5 0 2 -27 -1 -31z" />
    <glyph glyph-name="Y.roman_dieresis" horiz-adv-x="563" 
d="M393 294c-42 -56 -64 -134 -78 -244c0 -21 25 -35 73 -35h13l-12 -17c-20 5 -59 8 -121 8c-21 0 -66 -3 -133 -8l11 16c3 0 9 -1 14 -1c45 0 74 13 84 37c25 58 39 134 39 189c0 80 -61 245 -88 268c-3 3 -66 19 -73 12l6 15c4 0 61 -5 138 -5c13 0 58 -179 76 -260
c29 45 65 96 109 153c60 77 77 106 107 106c2 0 38 2 109 5l-13 -18h-15c-81 0 -140 -83 -246 -221zM464 627c10 -6 21 -14 33 -12c9 2 12 -3 2 -13c-12 -10 -26 -24 -38 -23c-14 1 -28 12 -36 22c-2 3 36 28 39 26zM348 627c10 -6 21 -14 33 -12c9 2 12 -3 2 -13
c-12 -10 -26 -24 -38 -23c-14 1 -28 12 -36 22c-2 3 36 28 39 26z" />
    <glyph glyph-name="Z.roman_acute" horiz-adv-x="474" 
d="M475 118c-12 -20 -26 -50 -43 -88c-13 -30 -20 -36 -45 -36c-13 0 -100 5 -261 8c-32 0 -60 -2 -87 -9h-3l-3 6c2 12 81 111 164 205l91 116c52 66 94 124 127 176c2 2 3 4 3 5c0 3 -3 4 -8 4c-74 0 -186 -2 -217 -11c-44 -18 -44 -81 -44 -82l-21 -11c8 25 16 65 24 117
l11 12c66 -4 124 -5 173 -5h54c8 0 49 1 124 5v-13c-27 -32 -72 -85 -132 -159l-137 -175c-25 -36 -62 -85 -108 -149c-3 -3 -4 -6 -4 -7c0 -2 2 -4 5 -4h-1c0 6 218 -11 263 18c17 8 54 58 64 80zM472 648c-7 -12 -115 -75 -131 -78c-1 0 1 7 1 7c25 19 54 43 77 63
c8 7 45 39 54 39c5 0 2 -27 -1 -31z" />
    <glyph glyph-name="Z.roman_dotaccent" horiz-adv-x="474" 
d="M475 118c-12 -20 -26 -50 -43 -88c-13 -30 -20 -36 -45 -36c-13 0 -100 5 -261 8c-32 0 -60 -2 -87 -9h-3l-3 6c2 12 81 111 164 205l91 116c52 66 94 124 127 176c2 2 3 4 3 5c0 3 -3 4 -8 4c-74 0 -186 -2 -217 -11c-44 -18 -44 -81 -44 -82l-21 -11c8 25 16 65 24 117
l11 12c66 -4 124 -5 173 -5h54c8 0 49 1 124 5v-13c-27 -32 -72 -85 -132 -159l-137 -175c-25 -36 -62 -85 -108 -149c-3 -3 -4 -6 -4 -7c0 -2 2 -4 5 -4h-1c0 6 218 -11 263 18c17 8 54 58 64 80zM342 638c10 -6 21 -14 33 -12c9 2 12 -3 2 -13c-12 -10 -26 -24 -38 -23
c-14 1 -28 12 -36 22c-2 3 36 28 39 26z" />
    <glyph glyph-name="Eth" unicode="&#xd0;" horiz-adv-x="626" 
d="M684 371c0 -69 -30 -147 -68 -204c-82 -123 -194 -183 -342 -183c-46 0 -95 9 -136 30c-10 5 -19 9 -30 9c-35 0 -69 -42 -98 -42c-3 0 -12 2 -12 6c0 1 2 3 2 3c13 4 0 -1 13 3c23 8 39 24 51 45c39 65 76 132 112 200c-25 -1 -48 -2 -75 -4c-5 -1 20 34 30 33
c13 -3 35 -4 58 -5l51 95c16 28 30 58 45 87c7 16 14 32 23 47c11 19 38 33 59 40h-24c-53 0 -207 -9 -235 -61c-6 -11 -10 -23 -10 -35c0 -27 18 -33 18 -36s-5 -6 -8 -6c-12 0 -38 47 -41 58c-2 7 -3 14 -3 22c0 71 115 71 164 71c67 0 133 5 199 5
c124 0 257 -26 257 -178zM321 266c6 0 -20 -34 -29 -33c-18 1 -37 4 -62 5l-49 -98c-10 -19 -20 -38 -29 -57c-3 -7 -6 -14 -6 -23c0 -17 13 -29 25 -39c25 -19 61 -23 91 -23c150 0 275 94 331 231c17 43 30 90 30 136c0 104 -70 163 -172 163c-25 0 -56 -3 -73 -23
c-18 -21 -33 -48 -47 -72c-31 -54 -57 -111 -85 -166l-3 -5c33 0 59 2 78 4z" />
    <glyph glyph-name="eth" unicode="&#xf0;" horiz-adv-x="330" 
d="M388 542c5 3 -2 -39 -11 -42c-16 -8 -33 -14 -55 -24c3 -19 5 -41 5 -66c0 -131 -59 -263 -187 -364c-37 -28 -74 -48 -105 -48c-13 0 -32 10 -32 22c0 2 0 5 1 7c9 77 72 174 133 220c41 31 74 26 123 26c21 47 31 121 23 183c-26 -14 -50 -27 -75 -45c-4 -3 2 40 11 44
c15 4 37 15 59 26c-9 40 -28 72 -59 84c-18 7 -10 16 9 21c21 5 68 -7 89 -86c31 17 53 32 71 42zM251 239c0 15 -10 19 -23 19c-76 0 -174 -140 -174 -214c0 -6 1 -12 8 -12c40 0 189 131 189 207z" />
    <glyph glyph-name="Lslash" unicode="&#x141;" horiz-adv-x="547" 
d="M311 249c4 1 -9 -32 -17 -34l-91 -23l-35 -65c-35 -64 -65 -87 -83 -94h187c78 0 178 -3 193 18c19 28 11 54 -17 67c-6 3 -1 12 6 8c17 -8 53 -53 59 -71c13 -37 -12 -59 -68 -59c-113 0 -255 15 -364 20c-28 2 -59 -10 -73 -23c-6 -6 -11 26 12 28c56 3 107 62 124 104
l22 56c-30 -10 -68 -21 -93 -31c-4 -2 9 32 17 33c15 2 57 14 86 22l60 150c38 94 85 191 204 191c49 0 113 -17 101 -69c-4 -21 -29 -40 -40 -72c-3 -10 -18 -9 -12 2c26 40 27 128 -36 128c-35 0 -74 -18 -100 -67l-136 -251c36 11 77 26 94 32z" />
    <glyph glyph-name="lslash" unicode="&#x142;" horiz-adv-x="214" 
d="M266 227c4 0 -18 -28 -26 -27c-12 0 -38 2 -64 3c-25 -31 -51 -60 -81 -88c-6 -15 -10 -25 -12 -39c-3 -32 8 -57 50 -50c33 6 81 58 113 96l21 26c9 -9 -6 -26 -13 -35c-10 -12 -27 -34 -50 -58c-26 -26 -68 -60 -109 -57c-85 5 -33 118 -14 160l-42 -46
c-9 -13 -9 8 -2 16c17 23 42 48 64 76c-31 0 -43 -1 -68 -3c-5 -1 18 28 26 27c13 -3 25 -3 54 -3c52 101 133 273 184 340c34 13 61 48 96 48c29 -1 28 -38 21 -57c-38 -112 -127 -214 -184 -286l-36 -46zM385 556c8 31 0 47 -34 13c-51 -52 -142 -226 -204 -345h30
c15 19 30 39 44 59c55 74 134 172 164 273zM105 145c19 18 37 37 55 58c-9 1 -17 1 -24 1z" />
    <glyph glyph-name="scaron" unicode="&#x161;" horiz-adv-x="232" 
d="M245 242c0 -16 -7 -34 -14 -48c-4 -9 -17 -14 -14 -5c3 14 2 32 -4 46c-18 50 -92 23 -81 -28c5 -21 40 -51 55 -71c53 -71 -15 -152 -93 -152c-36 0 -85 13 -94 53c-4 19 7 52 22 64c5 3 9 -2 7 -4c-2 -4 -5 -11 -6 -17c-2 -16 2 -33 11 -46c8 -11 20 -20 31 -27
c22 -12 73 -10 90 10c20 25 19 61 -20 104c-15 16 -30 35 -34 56c-1 4 -2 8 -2 12c-18 -26 -37 -48 -50 -64c-12 -16 -12 5 -1 17s26 33 34 44c22 33 30 50 44 66c15 17 38 29 62 29c28 0 56 -4 57 -39zM333 405c-39 -26 -79 -54 -113 -84h-12c-13 22 -40 51 -68 70
c-5 3 -10 8 -18 8v3c4 1 19 8 21 9c13 6 36 -17 42 -22c15 -13 29 -30 39 -42c0 -1 2 -2 6 0c12 11 69 51 89 58c5 2 10 1 14 0z" />
    <glyph glyph-name="HT" unicode="&#x9;" horiz-adv-x="0" 
 />
    <glyph glyph-name="Thorn" unicode="&#xde;" horiz-adv-x="541" 
d="M515 605c-21 -3 -31 7 -66 -26c-23 -21 -66 -82 -112 -155c57 0 148 4 181 -46c65 -102 -40 -205 -128 -240c-69 -28 -174 -27 -221 -23c-50 -93 -98 -192 -87 -218c4 -9 -7 -5 -12 -3c-12 3 -25 10 -45 0c-14 -6 -35 -24 -62 -33c-13 -3 -23 4 -17 8c29 5 50 23 64 48
c28 47 55 94 81 142c31 59 63 118 95 177c35 62 191 359 195 340c36 14 89 42 124 42c10 0 23 -10 10 -13zM197 165l-16 -29c71 -8 252 7 295 132c22 64 0 131 -58 139c-24 3 -76 2 -94 -23c-26 -36 -86 -147 -127 -219z" />
    <glyph glyph-name="thorn" unicode="&#xfe;" horiz-adv-x="364" 
d="M335 582c27 22 156 22 64 -2c-101 -26 -235 -266 -298 -408c0 0 -1 -4 1 -4s95 104 153 104c14 0 17 -12 17 -24v-9c-14 -100 -116 -248 -228 -248c-7 0 -17 1 -26 3c-35 -74 -99 -218 -163 -307c-15 -21 -81 -27 -59 -2c45 53 160 275 204 370c47 101 108 226 158 311
s111 170 177 216zM223 225c0 6 -2 13 -9 13c-23 0 -88 -70 -104 -89c-22 -25 -72 -89 -72 -121c0 -15 9 -20 22 -20c21 0 49 21 63 35c32 29 100 140 100 182z" />
    <glyph glyph-name="Zcaron" unicode="&#x17d;" horiz-adv-x="453" 
d="M732 -89c55 -72 -11 -164 -92 -165c-107 0 -212 145 -276 218c-62 72 -107 136 -182 135c-62 0 -127 -40 -145 -100c-4 -16 -7 -31 -16 -43c-19 -26 -68 0 -42 42c89 143 410 403 554 519c-63 1 -126 2 -189 2c-39 0 -162 -4 -156 -77c1 -11 10 -34 12 -38l-10 -8
c-12 21 -38 60 -39 75c-2 13 -2 38 17 54c37 32 150 19 193 20h233c3 0 -1 -17 -5 -20c-168 -121 -334 -268 -483 -429c148 76 223 -1 332 -133c80 -96 172 -181 227 -180c70 2 76 63 42 118c-9 15 -20 27 -27 34c-2 3 11 11 13 10c14 -9 28 -20 39 -34zM566 685
c-39 -26 -79 -54 -113 -84h-12c-13 22 -40 51 -68 70c-5 3 -10 8 -18 8v3c4 1 19 8 21 9c13 6 36 -17 42 -22c15 -13 29 -30 39 -42c0 -1 2 -2 6 0c12 11 69 51 89 58c5 2 10 1 14 0z" />
    <glyph glyph-name="zcaron" unicode="&#x17e;" horiz-adv-x="234" 
d="M364 -95c-15 -22 -47 -39 -78 -29c-23 7 -49 34 -111 105c-30 35 -52 66 -89 66c-30 0 -62 -20 -70 -49c-2 -8 -4 -15 -8 -21c-9 -12 -33 0 -20 21c14 23 83 94 106 114c55 47 98 88 154 134c-34 0 -140 -3 -153 -21c-10 -13 -26 -12 -13 2c12 13 17 26 24 38
c49 -4 115 1 165 1c12 0 20 -23 21 -32c-46 -33 -105 -73 -158 -116c-25 -19 -63 -54 -85 -73c73 37 110 -3 165 -57c40 -40 83 -74 111 -74c9 1 19 3 26 9c21 17 -5 46 -17 54c-4 4 5 10 11 7c25 -13 39 -50 19 -79zM333 377c-39 -26 -79 -54 -113 -84h-12
c-13 22 -40 51 -68 70c-5 3 -10 8 -18 8v3c4 1 19 8 21 9c13 6 36 -17 42 -22c15 -13 29 -30 39 -42c0 -1 2 -2 6 0c12 11 69 51 89 58c5 2 10 1 14 0z" />
    <glyph glyph-name="onehalf" unicode="&#xbd;" horiz-adv-x="657" 
d="M243 592c-16 -33 -29 -70 -48 -131l-10 -34c-12 -35 -27 -86 -30 -104s41 -19 51 -18l-14 -17c-10 3 -47 5 -66 6c0 0 -25 -1 -88 -6l12 17c11 -2 50 0 60 20c7 14 30 82 37 106v-1l24 72c14 44 10 46 6 48s-16 -7 -28 -16l-12 -10l-16 -11l1 12c2 6 4 10 5 15l21 12
l32 20c12 8 36 22 52 32s18 2 11 -12zM-31 -25c190 206 512 530 631 635c5 5 50 3 47 0c-108 -94 -531 -517 -642 -636c-8 -9 -44 -8 -36 1zM600 230c-5 -19 -18 -36 -32 -51c-33 -36 -93 -81 -139 -116c-11 -8 -20 -15 -28 -22c-13 -9 -10 -10 -7 -10c14 0 31 -2 48 -2
c28 0 55 3 68 10s36 34 41 46l14 -5c-2 -2 -21 -31 -30 -49c-10 -21 -20 -32 -45 -31c-15 1 -39 2 -59 2c-8 0 -15 0 -21 -1c0 0 -34 -2 -83 -5c20 18 71 62 118 107l8 8c35 33 96 91 107 129c10 27 -6 49 -42 48c-14 0 -30 -4 -40 -10c-9 -6 -21 -22 -25 -34
c-1 -7 -5 -24 -4 -28l-24 -12c5 18 17 69 18 78c0 9 9 15 14 17c9 3 35 8 54 8l14 1c22 1 40 -1 52 -7c20 -8 28 -25 28 -44c0 -9 -2 -19 -5 -27z" />
    <glyph glyph-name="zero.superior" unicode="&#x2070;" horiz-adv-x="235" 
d="M220 600c45 0 61 -35 61 -80c0 -61 -31 -140 -72 -178c-6 -6 -13 -11 -20 -17c-8 -6 -18 -13 -25 -20c-16 -15 -42 -21 -58 -21c-47 0 -64 34 -64 78c0 62 36 145 76 182l50 41c13 10 38 15 52 15zM215 395c16 36 26 73 26 104c0 30 -11 53 -32 64c-7 3 -13 4 -19 4
c-33 0 -61 -35 -81 -82c-15 -35 -25 -73 -25 -103c0 -29 8 -52 29 -63c7 -3 14 -5 21 -5c30 0 58 29 81 81z" />
    <glyph glyph-name="one.superior" unicode="&#xb9;" horiz-adv-x="170" 
d="M204 592c-16 -33 -29 -70 -48 -131l-10 -34c-12 -35 -27 -86 -30 -104s41 -19 51 -18l-14 -17c-10 3 -47 5 -66 6c0 0 -25 -1 -88 -6l12 17c11 -2 50 0 60 20c7 14 30 82 37 106v-1l24 72c14 44 10 46 6 48s-16 -7 -28 -16l-12 -10l-16 -11l1 12c2 6 4 10 5 15l21 12
l32 20c12 8 36 22 52 32s18 2 11 -12z" />
    <glyph glyph-name="two.superior" unicode="&#xb2;" horiz-adv-x="220" 
d="M267 520c-5 -19 -18 -36 -32 -51c-33 -36 -93 -81 -139 -116c-11 -8 -20 -15 -28 -22c-13 -9 -10 -10 -7 -10c14 0 31 -2 48 -2c28 0 55 3 68 10s36 34 41 46l14 -5c-2 -2 -21 -31 -30 -49c-10 -21 -20 -32 -45 -31c-15 1 -39 2 -59 2c-8 0 -15 0 -21 -1
c0 0 -34 -2 -83 -5c20 18 71 62 118 107l8 8c35 33 96 91 107 129c10 27 -6 49 -42 48c-14 0 -30 -4 -40 -10c-9 -6 -21 -22 -25 -34c-1 -7 -5 -24 -4 -28l-24 -12c5 18 17 69 18 78c0 9 9 15 14 17c9 3 35 8 54 8l14 1c22 1 40 -1 52 -7c20 -8 28 -25 28 -44
c0 -9 -2 -19 -5 -27z" />
    <glyph glyph-name="three.superior" unicode="&#xb3;" horiz-adv-x="220" 
d="M244 591c34 -14 31 -61 8 -87c-15 -18 -37 -32 -66 -42c-1 -1 -1 -1 2 -1c64 -6 63 -75 30 -124c-19 -28 -61 -49 -110 -53c-19 -1 -61 0 -79 11c-5 3 -11 9 -7 17s14 41 19 58l17 7c-2 -16 -13 -49 1 -63c8 -7 25 -11 40 -10c54 2 85 42 97 81c2 9 3 17 3 23
c0 37 -50 40 -94 40l15 18l13 2c29 7 82 21 95 61c9 28 -6 50 -43 49c-14 0 -30 -4 -39 -10c-10 -6 -21 -22 -25 -34c-2 -7 -6 -24 -5 -28l-24 -12c5 18 17 69 18 78c0 9 9 15 15 17c8 3 35 8 53 8l15 1c21 1 39 -1 51 -7z" />
    <glyph glyph-name="four.superior" unicode="&#x2074;" horiz-adv-x="255" 
d="M300 458l2 -6c-2 -2 -23 -30 -29 -44c-11 -21 -22 -33 -48 -31h-18c-6 -23 -11 -43 -13 -54c-2 -18 42 -19 52 -18l-16 -17c-8 3 -46 5 -66 6c0 0 -25 -1 -87 -6l13 17c10 -2 47 0 59 20c4 6 13 29 21 53h-34s-43 -1 -93 -3c-17 0 -15 6 -5 14c10 6 28 24 44 41l15 17
l80 84c11 11 20 21 27 29c11 14 19 23 25 25c7 2 15 5 22 9c23 10 42 20 31 -2c-15 -30 -29 -69 -48 -131l-17 -51c13 1 23 2 26 5c16 8 42 35 47 46zM209 502c8 22 14 43 13 50c-20 -16 -81 -83 -114 -119l-16 -18c-4 -4 -3 -5 1 -6c15 -1 38 -2 60 -2c9 0 18 0 25 1l3 5
c2 7 6 21 5 17z" />
    <glyph glyph-name="five.superior" unicode="&#x2075;" horiz-adv-x="217" 
d="M289 595c13 -1 4 -17 -5 -33v1l-8 -13h1s-8 -21 -17 -40l-17 5c11 15 17 30 17 30c5 8 6 19 -15 19c-12 0 -64 0 -78 -2c-8 0 -13 -3 -16 -7l-41 -85c17 6 42 10 56 10c54 0 79 -20 79 -57c0 -11 -2 -24 -6 -36c-19 -62 -72 -97 -131 -103c-21 0 -62 2 -79 11
c-4 3 -11 9 -6 17c4 8 13 41 18 58l18 7l3 -6c-3 -3 -6 -13 -7 -20c-1 -2 -2 -3 -2 -6c-3 -11 1 -26 7 -31c7 -7 24 -11 39 -10c49 2 84 40 96 79c4 11 6 22 6 30c0 11 -3 20 -9 27c-8 10 -23 14 -39 14c-21 0 -45 -3 -64 -9c-17 -6 -16 -5 -7 11l3 5c12 25 24 58 31 75
c1 1 2 5 3 7l6 14l11 30c5 10 10 9 19 7h5c46 0 124 1 129 1z" />
    <glyph glyph-name="six.superior" unicode="&#x2076;" horiz-adv-x="235" 
d="M289 578v1c-3 -7 -13 -36 -16 -51l-22 -9c2 4 9 23 11 31c3 9 0 21 -5 26h1c-7 6 -16 8 -26 8c-48 0 -93 -50 -113 -92c-6 -12 -12 -24 -16 -38l19 11c5 3 13 6 15 9c11 7 34 9 48 9c48 0 66 -29 66 -64c0 -36 -19 -76 -47 -95l-21 -11l-21 -13c-13 -9 -39 -13 -51 -13
c-53 0 -70 32 -70 72c0 27 7 56 16 82c29 78 89 162 181 162c16 0 32 -2 45 -9c5 -2 11 -7 6 -16zM206 420c-3 23 -21 37 -43 37c-8 0 -17 -2 -27 -6c-16 -7 -32 -22 -40 -41c-9 -17 -14 -34 -14 -49c0 -21 10 -40 33 -47c7 -2 14 -2 20 -2c11 0 20 2 29 7
c40 21 49 70 42 101z" />
    <glyph glyph-name="seven.superior" unicode="&#x2077;" horiz-adv-x="217" 
d="M304 587c-40 -44 -219 -255 -225 -298c-11 2 -24 2 -32 2c-5 0 -13 0 -14 4c1 8 40 54 86 107c57 66 122 142 124 154c1 4 -3 6 -9 6c-14 2 -67 2 -79 2c-23 0 -31 -7 -36 -16c0 0 -12 -18 -15 -31l-21 -4c6 11 21 39 21 39l6 13c6 13 14 29 24 30c6 0 95 -1 142 -1
c0 0 8 1 13 2c13 3 26 5 15 -9z" />
    <glyph glyph-name="eight.superior" unicode="&#x2078;" horiz-adv-x="217" 
d="M272 537c-11 -34 -49 -60 -80 -80c21 -15 38 -33 38 -59c0 -8 -1 -17 -4 -25c-17 -56 -74 -89 -127 -89c-39 0 -75 20 -62 65c13 42 55 71 92 93c-18 13 -30 28 -30 50c0 9 2 18 5 26c14 49 68 87 114 87c33 0 57 -15 57 -46c0 -7 -1 -14 -3 -22zM244 543
c9 26 -6 44 -31 44c-30 0 -56 -23 -66 -53c-9 -31 10 -51 29 -66c26 17 59 48 68 75zM177 359c3 8 4 14 4 20c0 24 -17 38 -36 52c-32 -20 -61 -45 -72 -79c-2 -7 -3 -14 -3 -19c0 -18 10 -29 31 -29c34 0 65 20 76 55z" />
    <glyph glyph-name="nine.superior" unicode="&#x2079;" horiz-adv-x="235" 
d="M261 450c-28 -78 -89 -163 -181 -163c-16 0 -32 3 -47 11c-3 2 -9 6 -4 14c3 8 14 36 17 50l15 7l4 -6c-4 -4 -6 -14 -8 -21v-1c-2 -9 0 -22 5 -27h-1c6 -5 15 -7 26 -7c47 0 91 49 112 91l3 5h-1c6 14 12 19 15 33l-20 -11l-15 -8c-11 -7 -34 -9 -49 -9
c-47 0 -66 28 -66 63s22 76 52 96c4 4 12 9 21 13l18 10c12 9 37 13 51 13c53 0 70 -32 70 -72c0 -26 -8 -55 -17 -81zM224 480h-1c9 17 14 35 14 49c0 22 -10 40 -33 47c-7 2 -14 3 -21 3c-26 0 -49 -17 -64 -47h1c-9 -17 -14 -34 -14 -50c0 -22 10 -39 35 -46
c34 -9 67 12 83 44z" />
    <glyph glyph-name="zero.inferior" unicode="&#x2080;" horiz-adv-x="235" 
d="M220 310c45 0 61 -35 61 -80c0 -61 -31 -140 -72 -178c-6 -6 -13 -11 -20 -17c-8 -6 -18 -13 -25 -20c-16 -15 -42 -21 -58 -21c-47 0 -64 34 -64 78c0 62 36 145 76 182l50 41c13 10 38 15 52 15zM215 105c16 36 26 73 26 104c0 30 -11 53 -32 64c-7 3 -13 4 -19 4
c-33 0 -61 -35 -81 -82c-15 -35 -25 -73 -25 -103c0 -29 8 -52 29 -63c7 -3 14 -5 21 -5c30 0 58 29 81 81z" />
    <glyph glyph-name="one.inferior" unicode="&#x2081;" horiz-adv-x="170" 
d="M204 302c-16 -33 -29 -70 -48 -131l-10 -34c-12 -35 -27 -86 -30 -104s41 -19 51 -18l-14 -17c-10 3 -47 5 -66 6c0 0 -25 -1 -88 -6l12 17c11 -2 50 0 60 20c7 14 30 82 37 106v-1l24 72c14 44 10 46 6 48s-16 -7 -28 -16l-12 -10l-16 -11l1 12c2 6 4 10 5 15l21 12
l32 20c12 8 36 22 52 32s18 2 11 -12z" />
    <glyph glyph-name="two.inferior" unicode="&#x2082;" horiz-adv-x="220" 
d="M267 230c-5 -19 -18 -36 -32 -51c-33 -36 -93 -81 -139 -116c-11 -8 -20 -15 -28 -22c-13 -9 -10 -10 -7 -10c14 0 31 -2 48 -2c28 0 55 3 68 10s36 34 41 46l14 -5c-2 -2 -21 -31 -30 -49c-10 -21 -20 -32 -45 -31c-15 1 -39 2 -59 2c-8 0 -15 0 -21 -1
c0 0 -34 -2 -83 -5c20 18 71 62 118 107l8 8c35 33 96 91 107 129c10 27 -6 49 -42 48c-14 0 -30 -4 -40 -10c-9 -6 -21 -22 -25 -34c-1 -7 -5 -24 -4 -28l-24 -12c5 18 17 69 18 78c0 9 9 15 14 17c9 3 35 8 54 8l14 1c22 1 40 -1 52 -7c20 -8 28 -25 28 -44
c0 -9 -2 -19 -5 -27z" />
    <glyph glyph-name="three.inferior" unicode="&#x2083;" horiz-adv-x="220" 
d="M244 301c34 -14 31 -61 8 -87c-15 -18 -37 -32 -66 -42c-1 -1 -1 -1 2 -1c64 -6 63 -75 30 -124c-19 -28 -61 -49 -110 -53c-19 -1 -61 0 -79 11c-5 3 -11 9 -7 17s14 41 19 58l17 7c-2 -16 -13 -49 1 -63c8 -7 25 -11 40 -10c54 2 85 42 97 81c2 9 3 17 3 23
c0 37 -50 40 -94 40l15 18l13 2c29 7 82 21 95 61c9 28 -6 50 -43 49c-14 0 -30 -4 -39 -10c-10 -6 -21 -22 -25 -34c-2 -7 -6 -24 -5 -28l-24 -12c5 18 17 69 18 78c0 9 9 15 15 17c8 3 35 8 53 8l15 1c21 1 39 -1 51 -7z" />
    <glyph glyph-name="four.inferior" unicode="&#x2084;" horiz-adv-x="255" 
d="M300 168l2 -6c-2 -2 -23 -30 -29 -44c-11 -21 -22 -33 -48 -31h-18c-6 -23 -11 -43 -13 -54c-2 -18 42 -19 52 -18l-16 -17c-8 3 -46 5 -66 6c0 0 -25 -1 -87 -6l13 17c10 -2 47 0 59 20c4 6 13 29 21 53h-34s-43 -1 -93 -3c-17 0 -15 6 -5 14c10 6 28 24 44 41l15 17
l80 84c11 11 20 21 27 29c11 14 19 23 25 25c7 2 15 5 22 9c23 10 42 20 31 -2c-15 -30 -29 -69 -48 -131l-17 -51c13 1 23 2 26 5c16 8 42 35 47 46zM209 212c8 22 14 43 13 50c-20 -16 -81 -83 -114 -119l-16 -18c-4 -4 -3 -5 1 -6c15 -1 38 -2 60 -2c9 0 18 0 25 1l3 5
c2 7 6 21 5 17z" />
    <glyph glyph-name="five.inferior" unicode="&#x2085;" horiz-adv-x="217" 
d="M289 305c13 -1 4 -17 -5 -33v1l-8 -13h1s-8 -21 -17 -40l-17 5c11 15 17 30 17 30c5 8 6 19 -15 19c-12 0 -64 0 -78 -2c-8 0 -13 -3 -16 -7l-41 -85c17 6 42 10 56 10c54 0 79 -20 79 -57c0 -11 -2 -24 -6 -36c-19 -62 -72 -97 -131 -103c-21 0 -62 2 -79 11
c-4 3 -11 9 -6 17c4 8 13 41 18 58l18 7l3 -6c-3 -3 -6 -13 -7 -20c-1 -2 -2 -3 -2 -6c-3 -11 1 -26 7 -31c7 -7 24 -11 39 -10c49 2 84 40 96 79c4 11 6 22 6 30c0 11 -3 20 -9 27c-8 10 -23 14 -39 14c-21 0 -45 -3 -64 -9c-17 -6 -16 -5 -7 11l3 5c12 25 24 58 31 75
c1 1 2 5 3 7l6 14l11 30c5 10 10 9 19 7h5c46 0 124 1 129 1z" />
    <glyph glyph-name="six.inferior" unicode="&#x2086;" horiz-adv-x="235" 
d="M289 288v1c-3 -7 -13 -36 -16 -51l-22 -9c2 4 9 23 11 31c3 9 0 21 -5 26h1c-7 6 -16 8 -26 8c-48 0 -93 -50 -113 -92c-6 -12 -12 -24 -16 -38l19 11c5 3 13 6 15 9c11 7 34 9 48 9c48 0 66 -29 66 -64c0 -36 -19 -76 -47 -95l-21 -11l-21 -13c-13 -9 -39 -13 -51 -13
c-53 0 -70 32 -70 72c0 27 7 56 16 82c29 78 89 162 181 162c16 0 32 -2 45 -9c5 -2 11 -7 6 -16zM206 130c-3 23 -21 37 -43 37c-8 0 -17 -2 -27 -6c-16 -7 -32 -22 -40 -41c-9 -17 -14 -34 -14 -49c0 -21 10 -40 33 -47c7 -2 14 -2 20 -2c11 0 20 2 29 7
c40 21 49 70 42 101z" />
    <glyph glyph-name="seven.inferior" unicode="&#x2087;" horiz-adv-x="217" 
d="M304 297c-40 -44 -219 -255 -225 -298c-11 2 -24 2 -32 2c-5 0 -13 0 -14 4c1 8 40 54 86 107c57 66 122 142 124 154c1 4 -3 6 -9 6c-14 2 -67 2 -79 2c-23 0 -31 -7 -36 -16c0 0 -12 -18 -15 -31l-21 -4c6 11 21 39 21 39l6 13c6 13 14 29 24 30c6 0 95 -1 142 -1
c0 0 8 1 13 2c13 3 26 5 15 -9z" />
    <glyph glyph-name="eight.inferior" unicode="&#x2088;" horiz-adv-x="217" 
d="M272 247c-11 -34 -49 -60 -80 -80c21 -15 38 -33 38 -59c0 -8 -1 -17 -4 -25c-17 -56 -74 -89 -127 -89c-39 0 -75 20 -62 65c13 42 55 71 92 93c-18 13 -30 28 -30 50c0 9 2 18 5 26c14 49 68 87 114 87c33 0 57 -15 57 -46c0 -7 -1 -14 -3 -22zM244 253
c9 26 -6 44 -31 44c-30 0 -56 -23 -66 -53c-9 -31 10 -51 29 -66c26 17 59 48 68 75zM177 69c3 8 4 14 4 20c0 24 -17 38 -36 52c-32 -20 -61 -45 -72 -79c-2 -7 -3 -14 -3 -19c0 -18 10 -29 31 -29c34 0 65 20 76 55z" />
    <glyph glyph-name="nine.inferior" unicode="&#x2089;" horiz-adv-x="235" 
d="M261 160c-28 -78 -89 -163 -181 -163c-16 0 -32 3 -47 11c-3 2 -9 6 -4 14c3 8 14 36 17 50l15 7l4 -6c-4 -4 -6 -14 -8 -21v-1c-2 -9 0 -22 5 -27h-1c6 -5 15 -7 26 -7c47 0 91 49 112 91l3 5h-1c6 14 12 19 15 33l-20 -11l-15 -8c-11 -7 -34 -9 -49 -9
c-47 0 -66 28 -66 63s22 76 52 96c4 4 12 9 21 13l18 10c12 9 37 13 51 13c53 0 70 -32 70 -72c0 -26 -8 -55 -17 -81zM224 190h-1c9 17 14 35 14 49c0 22 -10 40 -33 47c-7 2 -14 3 -21 3c-26 0 -49 -17 -64 -47h1c-9 -17 -14 -34 -14 -50c0 -22 10 -39 35 -46
c34 -9 67 12 83 44z" />
    <glyph glyph-name="onequarter" unicode="&#xbc;" horiz-adv-x="985" 
d="M243 -25c148 206 404 530 502 635c4 5 72 3 69 0c-89 -94 -441 -517 -528 -636c-6 -9 -49 -8 -43 1z" />
    <glyph glyph-name="slash.frac" horiz-adv-x="377" 
d="M-3 -25c190 206 512 530 631 635c5 5 50 3 47 0c-108 -94 -531 -517 -642 -636c-8 -9 -44 -8 -36 1z" />
    <glyph glyph-name="threequarters" unicode="&#xbe;" horiz-adv-x="698" 
d="M17 -25c190 206 512 530 631 635c5 5 50 3 47 0c-108 -94 -531 -517 -642 -636c-8 -9 -44 -8 -36 1zM244 591c34 -14 31 -61 8 -87c-15 -18 -37 -32 -66 -42c-1 -1 -1 -1 2 -1c64 -6 63 -75 30 -124c-19 -28 -61 -49 -110 -53c-19 -1 -61 0 -79 11c-5 3 -11 9 -7 17
s14 41 19 58l17 7c-2 -16 -13 -49 1 -63c8 -7 25 -11 40 -10c54 2 85 42 97 81c2 9 3 17 3 23c0 37 -50 40 -94 40l15 18l13 2c29 7 82 21 95 61c9 28 -6 50 -43 49c-14 0 -30 -4 -39 -10c-10 -6 -21 -22 -25 -34c-2 -7 -6 -24 -5 -28l-24 -12c5 18 17 69 18 78
c0 9 9 15 15 17c8 3 35 8 53 8l15 1c21 1 39 -1 51 -7zM629 168l2 -6c-2 -2 -23 -30 -29 -44c-11 -21 -22 -33 -48 -31h-18c-6 -23 -11 -43 -13 -54c-2 -18 42 -19 52 -18l-16 -17c-8 3 -46 5 -66 6c0 0 -25 -1 -87 -6l13 17c10 -2 47 0 59 20c4 6 13 29 21 53h-34
s-43 -1 -93 -3c-17 0 -15 6 -5 14c10 6 28 24 44 41l15 17l80 84c11 11 20 21 27 29c11 14 19 23 25 25c7 2 15 5 22 9c23 10 42 20 31 -2c-15 -30 -29 -69 -48 -131l-17 -51c13 1 23 2 26 5c16 8 42 35 47 46zM538 212c8 22 14 43 13 50c-20 -16 -81 -83 -114 -119l-16 -18
c-4 -4 -3 -5 1 -6c15 -1 38 -2 60 -2c9 0 18 0 25 1l3 5c2 7 6 21 5 17z" />
    <glyph glyph-name="multiply" unicode="&#xd7;" horiz-adv-x="426" 
d="M58 415c51 -48 107 -91 157 -140c39 33 138 122 157 140c4 3 5 -49 -3 -53c-18 -14 -98 -77 -132 -106c42 -35 118 -98 132 -106c8 -6 8 -59 4 -53c-28 26 -117 104 -158 140c-43 -36 -130 -115 -158 -140c-3 -6 -4 47 4 53c14 8 90 71 132 106c-35 29 -115 92 -132 106
c-8 4 -6 56 -3 53z" />
    <glyph glyph-name="minus" unicode="&#x2212;" horiz-adv-x="335" 
d="M336 171c4 0 -18 -28 -26 -27c-19 1 -75 4 -106 4c-35 0 -89 0 -124 -3c-5 -1 18 28 26 27c17 -3 71 -3 100 -4c41 0 108 2 130 3z" />
    <glyph glyph-name="currency" unicode="&#xa4;" horiz-adv-x="426" 
d="M153 339c0 34 9 67 27 94c-38 30 -71 57 -83 67c-12 6 -9 86 -5 81c39 -37 81 -72 122 -108c31 27 72 44 117 44s87 -18 118 -46c54 48 105 95 121 110c6 5 8 -75 -5 -81c-13 -10 -46 -37 -84 -66c18 -28 28 -60 28 -95c0 -36 -10 -69 -28 -96c39 -32 73 -60 84 -66
c13 -9 13 -89 7 -80l-123 109c-31 -28 -73 -45 -118 -45c-46 0 -87 17 -119 45l-121 -109c-5 -9 -6 71 6 80c10 6 45 34 84 66c-18 28 -28 60 -28 96zM204 337c0 -71 58 -129 129 -129s129 58 129 129s-58 129 -129 129s-129 -58 -129 -129z" />
    <glyph glyph-name="brokenbar" unicode="&#xa6;" horiz-adv-x="373" 
d="M161 242l43 2l-98 -244h-42c11 30 52 131 97 242zM247 349h-42c42 102 80 194 93 228h47c-8 -12 -51 -113 -98 -228z" />
    <glyph glyph-name="Aogonek" unicode="&#x104;" horiz-adv-x="768" 
d="M713 -101c-16 -23 -55 -55 -94 -71c-42 -17 -50 1 -50 25c0 42 42 114 71 139c-19 3 -35 15 -40 41c-8 41 16 103 31 135c54 114 158 305 200 362c-32 -1 -105 -40 -157 -93c-42 -43 -97 -107 -159 -174c30 -1 61 -2 92 -2c21 0 49 4 72 15c0 0 -16 -41 -57 -44
c-46 -3 -93 -3 -138 -1c-124 -128 -270 -256 -397 -256c-41 0 -71 24 -66 72c1 17 10 37 19 56c11 22 17 14 13 6c-31 -63 -5 -92 43 -92c97 0 234 107 351 216c-52 2 -99 6 -133 6c-30 0 -79 -3 -101 -25c-12 -12 -23 -42 -16 -63c-5 2 -24 1 -28 16c-9 40 39 55 71 69
c44 19 91 32 139 32c25 0 61 -1 102 -3c63 61 118 119 152 155c47 49 100 86 155 101h-55c-71 0 -166 -6 -213 -46c-33 -29 -39 -73 -19 -86c5 -3 -11 -12 -16 -9c-13 9 -26 45 -23 63c15 104 205 102 285 102h109c1 0 2 0 1 -1c33 15 73 33 100 33c10 0 24 -10 11 -13
c-21 -3 -31 7 -63 -26c-46 -46 -163 -255 -219 -380c-8 -19 -77 -174 1 -143c17 7 36 21 54 38c35 33 61 70 66 77c7 10 16 3 8 -8c-15 -20 -68 -97 -125 -122c-10 -4 -21 -7 -31 -8c-22 -20 -43 -73 -43 -109c0 -15 5 -31 31 -21c22 9 51 40 71 57c3 3 -2 -16 -5 -20z" />
    <glyph glyph-name="Aacute" unicode="&#xc1;" horiz-adv-x="768" 
d="M679 276c0 0 -16 -41 -57 -44c-46 -3 -93 -3 -138 -1c-124 -128 -270 -256 -397 -256c-41 0 -71 24 -66 72c1 17 10 37 19 56c11 22 17 14 13 6c-31 -63 -5 -92 43 -92c97 0 234 107 351 216c-52 2 -99 6 -133 6c-30 0 -79 -3 -101 -25c-12 -12 -23 -42 -16 -63
c-5 2 -24 1 -28 16c-9 40 39 55 71 69c44 19 91 32 139 32c25 0 61 -1 102 -3c63 61 118 119 152 155c47 49 100 86 155 101h-55c-71 0 -166 -6 -213 -46c-33 -29 -39 -73 -19 -86c5 -3 -11 -12 -16 -9c-13 9 -26 45 -23 63c15 104 205 102 285 102h109c1 0 2 0 1 -1
c33 15 73 33 100 33c10 0 24 -10 11 -13c-21 -3 -31 7 -63 -26c-46 -46 -163 -255 -219 -380c-8 -19 -77 -174 1 -143c17 7 36 21 54 38c35 33 61 70 66 77c7 10 16 3 8 -8c-15 -20 -68 -97 -125 -122c-34 -15 -81 -14 -90 33c-8 41 16 103 31 135c54 114 158 305 200 362
c-32 -1 -105 -40 -157 -93c-42 -43 -97 -107 -159 -174c30 -1 61 -2 92 -2c21 0 49 4 72 15zM965 694c-7 -12 -115 -75 -131 -78c-1 0 1 7 1 7c25 19 54 43 77 63c8 7 45 39 54 39c5 0 2 -27 -1 -31z" />
    <glyph glyph-name="Acircumflex" unicode="&#xc2;" horiz-adv-x="768" 
d="M679 276c0 0 -16 -41 -57 -44c-46 -3 -93 -3 -138 -1c-124 -128 -270 -256 -397 -256c-41 0 -71 24 -66 72c1 17 10 37 19 56c11 22 17 14 13 6c-31 -63 -5 -92 43 -92c97 0 234 107 351 216c-52 2 -99 6 -133 6c-30 0 -79 -3 -101 -25c-12 -12 -23 -42 -16 -63
c-5 2 -24 1 -28 16c-9 40 39 55 71 69c44 19 91 32 139 32c25 0 61 -1 102 -3c63 61 118 119 152 155c47 49 100 86 155 101h-55c-71 0 -166 -6 -213 -46c-33 -29 -39 -73 -19 -86c5 -3 -11 -12 -16 -9c-13 9 -26 45 -23 63c15 104 205 102 285 102h109c1 0 2 0 1 -1
c33 15 73 33 100 33c10 0 24 -10 11 -13c-21 -3 -31 7 -63 -26c-46 -46 -163 -255 -219 -380c-8 -19 -77 -174 1 -143c17 7 36 21 54 38c35 33 61 70 66 77c7 10 16 3 8 -8c-15 -20 -68 -97 -125 -122c-34 -15 -81 -14 -90 33c-8 41 16 103 31 135c54 114 158 305 200 362
c-32 -1 -105 -40 -157 -93c-42 -43 -97 -107 -159 -174c30 -1 61 -2 92 -2c21 0 49 4 72 15zM775 623c39 26 79 54 113 84h12c13 -22 40 -51 68 -70c5 -3 10 -8 18 -8v-3c-4 -1 -19 -8 -21 -9c-13 -6 -36 17 -42 22c-15 13 -29 30 -39 42c0 1 -2 2 -6 0
c-12 -11 -69 -51 -89 -58c-5 -2 -10 -1 -14 0z" />
    <glyph glyph-name="Abreve" unicode="&#x102;" horiz-adv-x="768" 
d="M679 276c0 0 -16 -41 -57 -44c-46 -3 -93 -3 -138 -1c-124 -128 -270 -256 -397 -256c-41 0 -71 24 -66 72c1 17 10 37 19 56c11 22 17 14 13 6c-31 -63 -5 -92 43 -92c97 0 234 107 351 216c-52 2 -99 6 -133 6c-30 0 -79 -3 -101 -25c-12 -12 -23 -42 -16 -63
c-5 2 -24 1 -28 16c-9 40 39 55 71 69c44 19 91 32 139 32c25 0 61 -1 102 -3c63 61 118 119 152 155c47 49 100 86 155 101h-55c-71 0 -166 -6 -213 -46c-33 -29 -39 -73 -19 -86c5 -3 -11 -12 -16 -9c-13 9 -26 45 -23 63c15 104 205 102 285 102h109c1 0 2 0 1 -1
c33 15 73 33 100 33c10 0 24 -10 11 -13c-21 -3 -31 7 -63 -26c-46 -46 -163 -255 -219 -380c-8 -19 -77 -174 1 -143c17 7 36 21 54 38c35 33 61 70 66 77c7 10 16 3 8 -8c-15 -20 -68 -97 -125 -122c-34 -15 -81 -14 -90 33c-8 41 16 103 31 135c54 114 158 305 200 362
c-32 -1 -105 -40 -157 -93c-42 -43 -97 -107 -159 -174c30 -1 61 -2 92 -2c21 0 49 4 72 15zM978 649c-19 -23 -67 -48 -109 -48c-21 0 -58 3 -58 32c0 6 6 20 12 20h15c-16 -26 14 -37 37 -37c38 0 72 24 87 33h16z" />
    <glyph glyph-name="Adieresis" unicode="&#xc4;" horiz-adv-x="768" 
d="M679 276c0 0 -16 -41 -57 -44c-46 -3 -93 -3 -138 -1c-124 -128 -270 -256 -397 -256c-41 0 -71 24 -66 72c1 17 10 37 19 56c11 22 17 14 13 6c-31 -63 -5 -92 43 -92c97 0 234 107 351 216c-52 2 -99 6 -133 6c-30 0 -79 -3 -101 -25c-12 -12 -23 -42 -16 -63
c-5 2 -24 1 -28 16c-9 40 39 55 71 69c44 19 91 32 139 32c25 0 61 -1 102 -3c63 61 118 119 152 155c47 49 100 86 155 101h-55c-71 0 -166 -6 -213 -46c-33 -29 -39 -73 -19 -86c5 -3 -11 -12 -16 -9c-13 9 -26 45 -23 63c15 104 205 102 285 102h109c1 0 2 0 1 -1
c33 15 73 33 100 33c10 0 24 -10 11 -13c-21 -3 -31 7 -63 -26c-46 -46 -163 -255 -219 -380c-8 -19 -77 -174 1 -143c17 7 36 21 54 38c35 33 61 70 66 77c7 10 16 3 8 -8c-15 -20 -68 -97 -125 -122c-34 -15 -81 -14 -90 33c-8 41 16 103 31 135c54 114 158 305 200 362
c-32 -1 -105 -40 -157 -93c-42 -43 -97 -107 -159 -174c30 -1 61 -2 92 -2c21 0 49 4 72 15zM922 698c10 -6 21 -14 33 -12c9 2 12 -3 2 -13c-12 -10 -26 -24 -38 -23c-14 1 -28 12 -36 22c-2 3 36 28 39 26zM806 698c10 -6 21 -14 33 -12c9 2 12 -3 2 -13
c-12 -10 -26 -24 -38 -23c-14 1 -28 12 -36 22c-2 3 36 28 39 26z" />
    <glyph glyph-name="Atilde" unicode="&#xc3;" horiz-adv-x="768" 
d="M679 276c0 0 -16 -41 -57 -44c-46 -3 -93 -3 -138 -1c-124 -128 -270 -256 -397 -256c-41 0 -71 24 -66 72c1 17 10 37 19 56c11 22 17 14 13 6c-31 -63 -5 -92 43 -92c97 0 234 107 351 216c-52 2 -99 6 -133 6c-30 0 -79 -3 -101 -25c-12 -12 -23 -42 -16 -63
c-5 2 -24 1 -28 16c-9 40 39 55 71 69c44 19 91 32 139 32c25 0 61 -1 102 -3c63 61 118 119 152 155c47 49 100 86 155 101h-55c-71 0 -166 -6 -213 -46c-33 -29 -39 -73 -19 -86c5 -3 -11 -12 -16 -9c-13 9 -26 45 -23 63c15 104 205 102 285 102h109c1 0 2 0 1 -1
c33 15 73 33 100 33c10 0 24 -10 11 -13c-21 -3 -31 7 -63 -26c-46 -46 -163 -255 -219 -380c-8 -19 -77 -174 1 -143c17 7 36 21 54 38c35 33 61 70 66 77c7 10 16 3 8 -8c-15 -20 -68 -97 -125 -122c-34 -15 -81 -14 -90 33c-8 41 16 103 31 135c54 114 158 305 200 362
c-32 -1 -105 -40 -157 -93c-42 -43 -97 -107 -159 -174c30 -1 61 -2 92 -2c21 0 49 4 72 15zM968 682h10c-8 -27 -28 -50 -46 -50c-40 0 -66 25 -101 25c-21 0 -27 -11 -30 -18h-12c6 19 28 43 51 43c32 0 45 -19 87 -22c26 -3 35 14 41 22z" />
    <glyph glyph-name="Amacron" unicode="&#x100;" horiz-adv-x="768" 
d="M679 276c0 0 -16 -41 -57 -44c-46 -3 -93 -3 -138 -1c-124 -128 -270 -256 -397 -256c-41 0 -71 24 -66 72c1 17 10 37 19 56c11 22 17 14 13 6c-31 -63 -5 -92 43 -92c97 0 234 107 351 216c-52 2 -99 6 -133 6c-30 0 -79 -3 -101 -25c-12 -12 -23 -42 -16 -63
c-5 2 -24 1 -28 16c-9 40 39 55 71 69c44 19 91 32 139 32c25 0 61 -1 102 -3c63 61 118 119 152 155c47 49 100 86 155 101h-55c-71 0 -166 -6 -213 -46c-33 -29 -39 -73 -19 -86c5 -3 -11 -12 -16 -9c-13 9 -26 45 -23 63c15 104 205 102 285 102h109c1 0 2 0 1 -1
c33 15 73 33 100 33c10 0 24 -10 11 -13c-21 -3 -31 7 -63 -26c-46 -46 -163 -255 -219 -380c-8 -19 -77 -174 1 -143c17 7 36 21 54 38c35 33 61 70 66 77c7 10 16 3 8 -8c-15 -20 -68 -97 -125 -122c-34 -15 -81 -14 -90 33c-8 41 16 103 31 135c54 114 158 305 200 362
c-32 -1 -105 -40 -157 -93c-42 -43 -97 -107 -159 -174c30 -1 61 -2 92 -2c21 0 49 4 72 15zM1002 637c-1 -3 -4 -5 -7 -5c-51 0 -103 -9 -154 -9c-6 0 -15 13 -14 18l1 2c15 4 66 5 83 5c19 0 74 -3 88 -9c1 -1 3 -1 3 -2z" />
    <glyph glyph-name="Agrave" unicode="&#xc0;" horiz-adv-x="768" 
d="M679 276c0 0 -16 -41 -57 -44c-46 -3 -93 -3 -138 -1c-124 -128 -270 -256 -397 -256c-41 0 -71 24 -66 72c1 17 10 37 19 56c11 22 17 14 13 6c-31 -63 -5 -92 43 -92c97 0 234 107 351 216c-52 2 -99 6 -133 6c-30 0 -79 -3 -101 -25c-12 -12 -23 -42 -16 -63
c-5 2 -24 1 -28 16c-9 40 39 55 71 69c44 19 91 32 139 32c25 0 61 -1 102 -3c63 61 118 119 152 155c47 49 100 86 155 101h-55c-71 0 -166 -6 -213 -46c-33 -29 -39 -73 -19 -86c5 -3 -11 -12 -16 -9c-13 9 -26 45 -23 63c15 104 205 102 285 102h109c1 0 2 0 1 -1
c33 15 73 33 100 33c10 0 24 -10 11 -13c-21 -3 -31 7 -63 -26c-46 -46 -163 -255 -219 -380c-8 -19 -77 -174 1 -143c17 7 36 21 54 38c35 33 61 70 66 77c7 10 16 3 8 -8c-15 -20 -68 -97 -125 -122c-34 -15 -81 -14 -90 33c-8 41 16 103 31 135c54 114 158 305 200 362
c-32 -1 -105 -40 -157 -93c-42 -43 -97 -107 -159 -174c30 -1 61 -2 92 -2c21 0 49 4 72 15zM759 694c-3 4 -6 31 -1 31c9 0 46 -32 54 -39c23 -20 52 -44 77 -63c0 0 2 -7 1 -7c-16 3 -124 66 -131 78z" />
    <glyph glyph-name="Aring" unicode="&#xc5;" horiz-adv-x="768" 
d="M679 276c0 0 -16 -41 -57 -44c-46 -3 -93 -3 -138 -1c-124 -128 -270 -256 -397 -256c-41 0 -71 24 -66 72c1 17 10 37 19 56c11 22 17 14 13 6c-31 -63 -5 -92 43 -92c97 0 234 107 351 216c-52 2 -99 6 -133 6c-30 0 -79 -3 -101 -25c-12 -12 -23 -42 -16 -63
c-5 2 -24 1 -28 16c-9 40 39 55 71 69c44 19 91 32 139 32c25 0 61 -1 102 -3c63 61 118 119 152 155c47 49 100 86 155 101h-55c-71 0 -166 -6 -213 -46c-33 -29 -39 -73 -19 -86c5 -3 -11 -12 -16 -9c-13 9 -26 45 -23 63c15 104 205 102 285 102h109c1 0 2 0 1 -1
c33 15 73 33 100 33c10 0 24 -10 11 -13c-21 -3 -31 7 -63 -26c-46 -46 -163 -255 -219 -380c-8 -19 -77 -174 1 -143c17 7 36 21 54 38c35 33 61 70 66 77c7 10 16 3 8 -8c-15 -20 -68 -97 -125 -122c-34 -15 -81 -14 -90 33c-8 41 16 103 31 135c54 114 158 305 200 362
c-32 -1 -105 -40 -157 -93c-42 -43 -97 -107 -159 -174c30 -1 61 -2 92 -2c21 0 49 4 72 15zM982 687c-6 -37 -50 -73 -90 -73c-20 0 -33 11 -30 30c3 17 22 52 43 57c10 15 30 26 47 26c24 0 34 -21 30 -40zM962 685c2 11 1 27 -14 27c-9 0 -18 -5 -26 -10l8 -4
c-12 -21 -32 -28 -37 -54c-1 -8 1 -15 11 -15c28 0 54 33 58 56z" />
    <glyph glyph-name="AE" unicode="&#xc6;" horiz-adv-x="1079" 
d="M1088 439c-6 -11 -23 -18 -20 -6c8 34 12 81 -26 93c-18 6 -66 5 -107 3c-29 -2 -44 -8 -54 -21c-44 -62 -85 -137 -122 -201c-3 -8 0 -11 8 -11c46 0 106 -2 147 -1c13 1 58 4 75 13c23 14 -4 -43 -40 -43c-83 0 -119 6 -202 3c-7 -1 -11 -3 -14 -8
c-13 -24 -21 -41 -36 -68c-16 -31 -49 -93 -49 -129c0 -41 44 -54 100 -55c115 0 233 31 307 125c5 7 10 -7 6 -12c-41 -51 -79 -106 -118 -118c-44 -13 -185 -21 -302 -8c-66 6 -89 32 -55 94l48 86c55 115 156 299 197 355c-32 -1 -105 -40 -157 -93
c-42 -43 -97 -107 -159 -174c30 -1 61 -2 92 -2c21 0 49 4 72 15c0 0 -16 -41 -57 -44c-46 -3 -93 -3 -138 -1c-124 -128 -270 -256 -397 -256c-41 0 -71 24 -66 72c1 17 10 37 19 56c11 22 17 14 13 6c-31 -63 -5 -92 43 -92c97 0 234 107 351 216c-52 2 -99 6 -133 6
c-30 0 -79 -3 -101 -25c-12 -12 -23 -42 -16 -63c-5 2 -24 1 -28 16c-9 40 39 55 71 69c44 19 91 32 139 32c25 0 61 -1 102 -3c63 61 118 119 152 155c47 49 100 86 155 101h-55c-71 0 -166 -6 -213 -46c-33 -29 -39 -73 -19 -86c5 -3 -11 -12 -16 -9c-13 9 -26 45 -23 63
c15 104 205 102 285 102h113c32 15 71 32 97 32c10 0 24 -10 11 -13c-19 -3 -29 5 -55 -18c59 0 81 4 161 -1c77 -4 35 -67 14 -106z" />
    <glyph glyph-name="Cacute" unicode="&#x106;" horiz-adv-x="527" 
d="M586 468c-5 -21 -31 -50 -41 -79c-2 -6 -22 -11 -19 -5c18 29 25 88 6 118c-28 47 -117 33 -162 16c-39 -14 -77 -37 -111 -66c-94 -83 -162 -212 -162 -315c0 -169 195 -156 307 -113c70 27 126 63 175 124c10 12 16 1 2 -18c-46 -61 -104 -101 -169 -128
c-124 -51 -374 -58 -374 133c0 130 82 256 186 335c61 46 147 79 227 79c33 0 61 -3 92 -18c30 -14 49 -35 43 -63zM584 694c-7 -12 -115 -75 -131 -78c-1 0 1 7 1 7c25 19 54 43 77 63c8 7 45 39 54 39c5 0 2 -27 -1 -31z" />
    <glyph glyph-name="Ccaron" unicode="&#x10c;" horiz-adv-x="527" 
d="M586 468c-5 -21 -31 -50 -41 -79c-2 -6 -22 -11 -19 -5c18 29 25 88 6 118c-28 47 -117 33 -162 16c-39 -14 -77 -37 -111 -66c-94 -83 -162 -212 -162 -315c0 -169 195 -156 307 -113c70 27 126 63 175 124c10 12 16 1 2 -18c-46 -61 -104 -101 -169 -128
c-124 -51 -374 -58 -374 133c0 130 82 256 186 335c61 46 147 79 227 79c33 0 61 -3 92 -18c30 -14 49 -35 43 -63zM583 665c-39 -26 -79 -54 -113 -84h-12c-13 22 -40 51 -68 70c-5 3 -10 8 -18 8v3c4 1 19 8 21 9c13 6 36 -17 42 -22c15 -13 29 -30 39 -42c0 -1 2 -2 6 0
c12 11 69 51 89 58c5 2 10 1 14 0z" />
    <glyph glyph-name="Cdotaccent" unicode="&#x10a;" horiz-adv-x="527" 
d="M586 468c-5 -21 -31 -50 -41 -79c-2 -6 -22 -11 -19 -5c18 29 25 88 6 118c-28 47 -117 33 -162 16c-39 -14 -77 -37 -111 -66c-94 -83 -162 -212 -162 -315c0 -169 195 -156 307 -113c70 27 126 63 175 124c10 12 16 1 2 -18c-46 -61 -104 -101 -169 -128
c-124 -51 -374 -58 -374 133c0 130 82 256 186 335c61 46 147 79 227 79c33 0 61 -3 92 -18c30 -14 49 -35 43 -63zM501 642c10 -6 21 -14 33 -12c9 2 12 -3 2 -13c-12 -10 -26 -24 -38 -23c-14 1 -28 12 -36 22c-2 3 36 28 39 26z" />
    <glyph glyph-name="Ccircumflex" unicode="&#x108;" horiz-adv-x="527" 
d="M586 468c-5 -21 -31 -50 -41 -79c-2 -6 -22 -11 -19 -5c18 29 25 88 6 118c-28 47 -117 33 -162 16c-39 -14 -77 -37 -111 -66c-94 -83 -162 -212 -162 -315c0 -169 195 -156 307 -113c70 27 126 63 175 124c10 12 16 1 2 -18c-46 -61 -104 -101 -169 -128
c-124 -51 -374 -58 -374 133c0 130 82 256 186 335c61 46 147 79 227 79c33 0 61 -3 92 -18c30 -14 49 -35 43 -63zM381 600c39 26 79 54 113 84h12c13 -22 40 -51 68 -70c5 -3 10 -8 18 -8v-3c-4 -1 -19 -8 -21 -9c-13 -6 -36 17 -42 22c-15 13 -29 30 -39 42
c0 1 -2 2 -6 0c-12 -11 -69 -51 -89 -58c-5 -2 -10 -1 -14 0z" />
    <glyph glyph-name="Dcaron" unicode="&#x10e;" horiz-adv-x="626" 
d="M684 371c0 -69 -30 -147 -68 -204c-82 -123 -194 -183 -342 -183c-46 0 -95 9 -136 30c-10 5 -19 9 -30 9c-35 0 -69 -42 -98 -42c-3 0 -12 2 -12 6c0 1 2 3 2 3c13 4 0 -1 13 3c23 8 39 24 51 45c63 104 118 212 176 319c16 28 30 58 45 87c7 16 14 32 23 47
c11 19 38 33 59 40h-24c-53 0 -207 -9 -235 -61c-6 -11 -10 -23 -10 -35c0 -27 18 -33 18 -36s-5 -6 -8 -6c-12 0 -38 47 -41 58c-2 7 -3 14 -3 22c0 71 115 71 164 71c67 0 133 5 199 5c124 0 257 -26 257 -178zM623 365c0 104 -70 163 -172 163c-25 0 -56 -3 -73 -23
c-18 -21 -33 -48 -47 -72c-31 -54 -57 -111 -85 -166l-65 -127c-10 -19 -20 -38 -29 -57c-3 -7 -6 -14 -6 -23c0 -17 13 -29 25 -39c25 -19 61 -23 91 -23c150 0 275 94 331 231c17 43 30 90 30 136zM595 660c-39 -26 -79 -54 -113 -84h-12c-13 22 -40 51 -68 70
c-5 3 -10 8 -18 8v3c4 1 19 8 21 9c13 6 36 -17 42 -22c15 -13 29 -30 39 -42c0 -1 2 -2 6 0c12 11 69 51 89 58c5 2 10 1 14 0z" />
    <glyph glyph-name="Dcroat" unicode="&#x110;" horiz-adv-x="626" 
d="M684 371c0 -69 -30 -147 -68 -204c-82 -123 -194 -183 -342 -183c-46 0 -95 9 -136 30c-10 5 -19 9 -30 9c-35 0 -69 -42 -98 -42c-3 0 -12 2 -12 6c0 1 2 3 2 3c13 4 0 -1 13 3c23 8 39 24 51 45c41 67 79 137 116 206c-14 -1 -28 -1 -41 -1c-6 0 -15 13 -14 18l1 2
c11 3 44 4 66 5l48 89c16 28 30 58 45 87c7 16 14 32 23 47c11 19 38 33 59 40h-24c-53 0 -207 -9 -235 -61c-6 -11 -10 -23 -10 -35c0 -27 18 -33 18 -36s-5 -6 -8 -6c-12 0 -38 47 -41 58c-2 7 -3 14 -3 22c0 71 115 71 164 71c67 0 133 5 199 5c124 0 257 -26 257 -178z
M300 257c-1 -3 -4 -5 -7 -5c-19 0 -38 -1 -56 -3l-56 -109c-10 -19 -20 -38 -29 -57c-3 -7 -6 -14 -6 -23c0 -17 13 -29 25 -39c25 -19 61 -23 91 -23c150 0 275 94 331 231c17 43 30 90 30 136c0 104 -70 163 -172 163c-25 0 -56 -3 -73 -23c-18 -21 -33 -48 -47 -72
c-31 -54 -57 -111 -85 -166v-1c21 -1 43 -4 51 -7c1 -1 3 -1 3 -2z" />
    <glyph glyph-name="Eogonek" unicode="&#x118;" horiz-adv-x="478" 
d="M305 -109c-16 -23 -55 -55 -94 -71c-42 -17 -50 1 -50 25c0 45 47 124 76 144c-44 0 -90 1 -133 6c-66 6 -89 32 -55 94c51 92 105 183 157 275c16 29 43 78 69 118c12 19 37 41 61 47c-57 -3 -189 -6 -217 -59c-14 -26 -13 -57 6 -69c4 -2 -4 -10 -9 -7
c-12 7 -34 40 -38 57c-26 95 110 93 167 93c97 0 195 7 292 1c77 -4 35 -67 14 -106c-6 -11 -23 -18 -20 -6c8 34 12 81 -26 93c-18 6 -66 5 -107 3c-29 -2 -44 -8 -54 -21c-44 -62 -85 -137 -122 -201c-3 -8 0 -11 8 -11c46 0 106 -2 147 -1c13 1 58 4 75 13
c23 14 -4 -43 -40 -43c-83 0 -119 6 -202 3c-7 -1 -11 -3 -14 -8c-13 -24 -21 -41 -36 -68c-16 -31 -49 -93 -49 -129c0 -41 44 -54 100 -55c115 0 233 31 307 125c5 7 10 -7 6 -12c-41 -51 -79 -106 -118 -118c-25 -7 -82 -13 -148 -14c-24 -13 -50 -74 -50 -114
c0 -15 5 -31 31 -21c22 9 51 40 71 57c3 3 -2 -16 -5 -20z" />
    <glyph glyph-name="Eacute" unicode="&#xc9;" horiz-adv-x="478" 
d="M551 439c-6 -11 -23 -18 -20 -6c8 34 12 81 -26 93c-18 6 -66 5 -107 3c-29 -2 -44 -8 -54 -21c-44 -62 -85 -137 -122 -201c-3 -8 0 -11 8 -11c46 0 106 -2 147 -1c13 1 58 4 75 13c23 14 -4 -43 -40 -43c-83 0 -119 6 -202 3c-7 -1 -11 -3 -14 -8
c-13 -24 -21 -41 -36 -68c-16 -31 -49 -93 -49 -129c0 -41 44 -54 100 -55c115 0 233 31 307 125c5 7 10 -7 6 -12c-41 -51 -79 -106 -118 -118c-44 -13 -185 -21 -302 -8c-66 6 -89 32 -55 94c51 92 105 183 157 275c16 29 43 78 69 118c12 19 37 41 61 47
c-57 -3 -189 -6 -217 -59c-14 -26 -13 -57 6 -69c4 -2 -4 -10 -9 -7c-12 7 -34 40 -38 57c-26 95 110 93 167 93c97 0 195 7 292 1c77 -4 35 -67 14 -106zM572 694c-7 -12 -115 -75 -131 -78c-1 0 1 7 1 7c25 19 54 43 77 63c8 7 45 39 54 39c5 0 2 -27 -1 -31z" />
    <glyph glyph-name="Egrave" unicode="&#xc8;" horiz-adv-x="478" 
d="M551 439c-6 -11 -23 -18 -20 -6c8 34 12 81 -26 93c-18 6 -66 5 -107 3c-29 -2 -44 -8 -54 -21c-44 -62 -85 -137 -122 -201c-3 -8 0 -11 8 -11c46 0 106 -2 147 -1c13 1 58 4 75 13c23 14 -4 -43 -40 -43c-83 0 -119 6 -202 3c-7 -1 -11 -3 -14 -8
c-13 -24 -21 -41 -36 -68c-16 -31 -49 -93 -49 -129c0 -41 44 -54 100 -55c115 0 233 31 307 125c5 7 10 -7 6 -12c-41 -51 -79 -106 -118 -118c-44 -13 -185 -21 -302 -8c-66 6 -89 32 -55 94c51 92 105 183 157 275c16 29 43 78 69 118c12 19 37 41 61 47
c-57 -3 -189 -6 -217 -59c-14 -26 -13 -57 6 -69c4 -2 -4 -10 -9 -7c-12 7 -34 40 -38 57c-26 95 110 93 167 93c97 0 195 7 292 1c77 -4 35 -67 14 -106zM362 694c-3 4 -6 31 -1 31c9 0 46 -32 54 -39c23 -20 52 -44 77 -63c0 0 2 -7 1 -7c-16 3 -124 66 -131 78z" />
    <glyph glyph-name="Ecircumflex" unicode="&#xca;" horiz-adv-x="478" 
d="M551 439c-6 -11 -23 -18 -20 -6c8 34 12 81 -26 93c-18 6 -66 5 -107 3c-29 -2 -44 -8 -54 -21c-44 -62 -85 -137 -122 -201c-3 -8 0 -11 8 -11c46 0 106 -2 147 -1c13 1 58 4 75 13c23 14 -4 -43 -40 -43c-83 0 -119 6 -202 3c-7 -1 -11 -3 -14 -8
c-13 -24 -21 -41 -36 -68c-16 -31 -49 -93 -49 -129c0 -41 44 -54 100 -55c115 0 233 31 307 125c5 7 10 -7 6 -12c-41 -51 -79 -106 -118 -118c-44 -13 -185 -21 -302 -8c-66 6 -89 32 -55 94c51 92 105 183 157 275c16 29 43 78 69 118c12 19 37 41 61 47
c-57 -3 -189 -6 -217 -59c-14 -26 -13 -57 6 -69c4 -2 -4 -10 -9 -7c-12 7 -34 40 -38 57c-26 95 110 93 167 93c97 0 195 7 292 1c77 -4 35 -67 14 -106zM348 623c39 26 79 54 113 84h12c13 -22 40 -51 68 -70c5 -3 10 -8 18 -8v-3c-4 -1 -19 -8 -21 -9
c-13 -6 -36 17 -42 22c-15 13 -29 30 -39 42c0 1 -2 2 -6 0c-12 -11 -69 -51 -89 -58c-5 -2 -10 -1 -14 0z" />
    <glyph glyph-name="Ecaron" unicode="&#x11a;" horiz-adv-x="478" 
d="M551 439c-6 -11 -23 -18 -20 -6c8 34 12 81 -26 93c-18 6 -66 5 -107 3c-29 -2 -44 -8 -54 -21c-44 -62 -85 -137 -122 -201c-3 -8 0 -11 8 -11c46 0 106 -2 147 -1c13 1 58 4 75 13c23 14 -4 -43 -40 -43c-83 0 -119 6 -202 3c-7 -1 -11 -3 -14 -8
c-13 -24 -21 -41 -36 -68c-16 -31 -49 -93 -49 -129c0 -41 44 -54 100 -55c115 0 233 31 307 125c5 7 10 -7 6 -12c-41 -51 -79 -106 -118 -118c-44 -13 -185 -21 -302 -8c-66 6 -89 32 -55 94c51 92 105 183 157 275c16 29 43 78 69 118c12 19 37 41 61 47
c-57 -3 -189 -6 -217 -59c-14 -26 -13 -57 6 -69c4 -2 -4 -10 -9 -7c-12 7 -34 40 -38 57c-26 95 110 93 167 93c97 0 195 7 292 1c77 -4 35 -67 14 -106zM560 661c-39 -26 -79 -54 -113 -84h-12c-13 22 -40 51 -68 70c-5 3 -10 8 -18 8v3c4 1 19 8 21 9c13 6 36 -17 42 -22
c15 -13 29 -30 39 -42c0 -1 2 -2 6 0c12 11 69 51 89 58c5 2 10 1 14 0z" />
    <glyph glyph-name="Edieresis" unicode="&#xcb;" horiz-adv-x="478" 
d="M551 439c-6 -11 -23 -18 -20 -6c8 34 12 81 -26 93c-18 6 -66 5 -107 3c-29 -2 -44 -8 -54 -21c-44 -62 -85 -137 -122 -201c-3 -8 0 -11 8 -11c46 0 106 -2 147 -1c13 1 58 4 75 13c23 14 -4 -43 -40 -43c-83 0 -119 6 -202 3c-7 -1 -11 -3 -14 -8
c-13 -24 -21 -41 -36 -68c-16 -31 -49 -93 -49 -129c0 -41 44 -54 100 -55c115 0 233 31 307 125c5 7 10 -7 6 -12c-41 -51 -79 -106 -118 -118c-44 -13 -185 -21 -302 -8c-66 6 -89 32 -55 94c51 92 105 183 157 275c16 29 43 78 69 118c12 19 37 41 61 47
c-57 -3 -189 -6 -217 -59c-14 -26 -13 -57 6 -69c4 -2 -4 -10 -9 -7c-12 7 -34 40 -38 57c-26 95 110 93 167 93c97 0 195 7 292 1c77 -4 35 -67 14 -106zM398 698c10 -6 21 -14 33 -12c9 2 12 -3 2 -13c-12 -10 -26 -24 -38 -23c-14 1 -28 12 -36 22c-2 3 36 28 39 26z
M514 698c10 -6 21 -14 33 -12c9 2 12 -3 2 -13c-12 -10 -26 -24 -38 -23c-14 1 -28 12 -36 22c-2 3 36 28 39 26z" />
    <glyph glyph-name="Emacron" unicode="&#x112;" horiz-adv-x="478" 
d="M551 439c-6 -11 -23 -18 -20 -6c8 34 12 81 -26 93c-18 6 -66 5 -107 3c-29 -2 -44 -8 -54 -21c-44 -62 -85 -137 -122 -201c-3 -8 0 -11 8 -11c46 0 106 -2 147 -1c13 1 58 4 75 13c23 14 -4 -43 -40 -43c-83 0 -119 6 -202 3c-7 -1 -11 -3 -14 -8
c-13 -24 -21 -41 -36 -68c-16 -31 -49 -93 -49 -129c0 -41 44 -54 100 -55c115 0 233 31 307 125c5 7 10 -7 6 -12c-41 -51 -79 -106 -118 -118c-44 -13 -185 -21 -302 -8c-66 6 -89 32 -55 94c51 92 105 183 157 275c16 29 43 78 69 118c12 19 37 41 61 47
c-57 -3 -189 -6 -217 -59c-14 -26 -13 -57 6 -69c4 -2 -4 -10 -9 -7c-12 7 -34 40 -38 57c-26 95 110 93 167 93c97 0 195 7 292 1c77 -4 35 -67 14 -106zM505 633c-1 -3 -4 -5 -7 -5c-51 0 -103 -9 -154 -9c-6 0 -15 13 -14 18l1 2c15 4 66 5 83 5c19 0 74 -3 88 -9
c1 -1 3 -1 3 -2z" />
    <glyph glyph-name="Edotaccent" unicode="&#x116;" horiz-adv-x="478" 
d="M551 439c-6 -11 -23 -18 -20 -6c8 34 12 81 -26 93c-18 6 -66 5 -107 3c-29 -2 -44 -8 -54 -21c-44 -62 -85 -137 -122 -201c-3 -8 0 -11 8 -11c46 0 106 -2 147 -1c13 1 58 4 75 13c23 14 -4 -43 -40 -43c-83 0 -119 6 -202 3c-7 -1 -11 -3 -14 -8
c-13 -24 -21 -41 -36 -68c-16 -31 -49 -93 -49 -129c0 -41 44 -54 100 -55c115 0 233 31 307 125c5 7 10 -7 6 -12c-41 -51 -79 -106 -118 -118c-44 -13 -185 -21 -302 -8c-66 6 -89 32 -55 94c51 92 105 183 157 275c16 29 43 78 69 118c12 19 37 41 61 47
c-57 -3 -189 -6 -217 -59c-14 -26 -13 -57 6 -69c4 -2 -4 -10 -9 -7c-12 7 -34 40 -38 57c-26 95 110 93 167 93c97 0 195 7 292 1c77 -4 35 -67 14 -106zM452 626c10 -6 21 -14 33 -12c9 2 12 -3 2 -13c-12 -10 -26 -24 -38 -23c-14 1 -28 12 -36 22c-2 3 36 28 39 26z" />
    <glyph glyph-name="Gbreve" unicode="&#x11e;" horiz-adv-x="576" 
d="M655 273l-11 -12c-19 0 -44 -4 -59 -23c-29 -38 -41 -85 -57 -137c-41 -142 -62 -280 -181 -383c-43 -36 -115 -66 -169 -66c-51 0 -113 21 -136 69c-9 17 -10 37 -10 56c0 10 -3 32 12 32c1 0 2 0 2 -2c0 -8 -2 -16 -2 -25c0 -62 44 -94 103 -94c84 0 155 44 212 116
c84 103 113 198 156 307c-53 -78 -173 -143 -272 -143c-108 -1 -205 54 -205 167c0 130 82 256 186 335c61 46 147 79 227 79c33 0 61 -3 92 -18c30 -14 49 -35 43 -63c-5 -21 -31 -50 -41 -79c-2 -6 -22 -11 -19 -5c18 29 25 88 6 118c-28 47 -117 33 -162 16
c-39 -14 -77 -37 -111 -66c-94 -83 -162 -212 -162 -315c0 -105 68 -150 146 -150c163 -1 268 126 315 267h-103c-32 0 -133 -3 -128 -63c0 -9 3 -18 5 -22l-9 -6c-10 17 -26 39 -27 51c-1 11 -1 31 14 44c31 27 120 15 155 15h190zM586 649c-19 -23 -67 -48 -109 -48
c-21 0 -58 3 -58 32c0 6 6 20 12 20h15c-16 -26 14 -37 37 -37c38 0 72 24 87 33h16z" />
    <glyph glyph-name="Gdotaccent" unicode="&#x120;" horiz-adv-x="576" 
d="M655 273l-11 -12c-19 0 -44 -4 -59 -23c-29 -38 -41 -85 -57 -137c-41 -142 -62 -280 -181 -383c-43 -36 -115 -66 -169 -66c-51 0 -113 21 -136 69c-9 17 -10 37 -10 56c0 10 -3 32 12 32c1 0 2 0 2 -2c0 -8 -2 -16 -2 -25c0 -62 44 -94 103 -94c84 0 155 44 212 116
c84 103 113 198 156 307c-53 -78 -173 -143 -272 -143c-108 -1 -205 54 -205 167c0 130 82 256 186 335c61 46 147 79 227 79c33 0 61 -3 92 -18c30 -14 49 -35 43 -63c-5 -21 -31 -50 -41 -79c-2 -6 -22 -11 -19 -5c18 29 25 88 6 118c-28 47 -117 33 -162 16
c-39 -14 -77 -37 -111 -66c-94 -83 -162 -212 -162 -315c0 -105 68 -150 146 -150c163 -1 268 126 315 267h-103c-32 0 -133 -3 -128 -63c0 -9 3 -18 5 -22l-9 -6c-10 17 -26 39 -27 51c-1 11 -1 31 14 44c31 27 120 15 155 15h190zM497 637c10 -6 21 -14 33 -12
c9 2 12 -3 2 -13c-12 -10 -26 -24 -38 -23c-14 1 -28 12 -36 22c-2 3 36 28 39 26z" />
    <glyph glyph-name="Gcircumflex" unicode="&#x11c;" horiz-adv-x="576" 
d="M655 273l-11 -12c-19 0 -44 -4 -59 -23c-29 -38 -41 -85 -57 -137c-41 -142 -62 -280 -181 -383c-43 -36 -115 -66 -169 -66c-51 0 -113 21 -136 69c-9 17 -10 37 -10 56c0 10 -3 32 12 32c1 0 2 0 2 -2c0 -8 -2 -16 -2 -25c0 -62 44 -94 103 -94c84 0 155 44 212 116
c84 103 113 198 156 307c-53 -78 -173 -143 -272 -143c-108 -1 -205 54 -205 167c0 130 82 256 186 335c61 46 147 79 227 79c33 0 61 -3 92 -18c30 -14 49 -35 43 -63c-5 -21 -31 -50 -41 -79c-2 -6 -22 -11 -19 -5c18 29 25 88 6 118c-28 47 -117 33 -162 16
c-39 -14 -77 -37 -111 -66c-94 -83 -162 -212 -162 -315c0 -105 68 -150 146 -150c163 -1 268 126 315 267h-103c-32 0 -133 -3 -128 -63c0 -9 3 -18 5 -22l-9 -6c-10 17 -26 39 -27 51c-1 11 -1 31 14 44c31 27 120 15 155 15h190zM390 605c39 26 79 54 113 84h12
c13 -22 40 -51 68 -70c5 -3 10 -8 18 -8v-3c-4 -1 -19 -8 -21 -9c-13 -6 -36 17 -42 22c-15 13 -29 30 -39 42c0 1 -2 2 -6 0c-12 -11 -69 -51 -89 -58c-5 -2 -10 -1 -14 0z" />
    <glyph glyph-name="Gcommaaccent" unicode="&#x122;" horiz-adv-x="576" 
d="M655 273l-11 -12c-19 0 -44 -4 -59 -23c-29 -38 -41 -85 -57 -137c-41 -142 -62 -280 -181 -383c-43 -36 -115 -66 -169 -66c-51 0 -113 21 -136 69c-9 17 -10 37 -10 56c0 10 -3 32 12 32c1 0 2 0 2 -2c0 -8 -2 -16 -2 -25c0 -62 44 -94 103 -94c84 0 155 44 212 116
c84 103 113 198 156 307c-53 -78 -173 -143 -272 -143c-108 -1 -205 54 -205 167c0 130 82 256 186 335c61 46 147 79 227 79c33 0 61 -3 92 -18c30 -14 49 -35 43 -63c-5 -21 -31 -50 -41 -79c-2 -6 -22 -11 -19 -5c18 29 25 88 6 118c-28 47 -117 33 -162 16
c-39 -14 -77 -37 -111 -66c-94 -83 -162 -212 -162 -315c0 -105 68 -150 146 -150c163 -1 268 126 315 267h-103c-32 0 -133 -3 -128 -63c0 -9 3 -18 5 -22l-9 -6c-10 17 -26 39 -27 51c-1 11 -1 31 14 44c31 27 120 15 155 15h190zM239 -125c-8 -42 -37 -74 -69 -96
c-6 -4 -12 -7 -12 -7l1 7c1 3 0 3 7 9c19 17 34 38 39 62c4 14 -7 27 -21 30l3 10c6 0 19 7 23 11c5 3 10 10 13 10c18 -3 20 -18 16 -36z" />
    <glyph glyph-name="Hbar" unicode="&#x126;" horiz-adv-x="770" 
d="M866 471c-2 -4 -11 -6 -19 -6c-15 0 -29 -1 -44 -1c-74 -116 -179 -320 -194 -382c-7 -31 -11 -72 34 -72c21 0 45 10 62 19c48 27 88 81 112 113c8 11 9 -6 4 -14c-25 -36 -67 -91 -122 -121c-20 -11 -45 -16 -70 -17c-54 -2 -94 50 -73 109c12 31 41 92 76 161
c-13 -12 -32 -23 -48 -22c-41 4 -89 4 -172 4h-48c-38 -76 -77 -155 -120 -201c-34 -36 -84 -61 -130 -61c-41 0 -83 24 -101 71c-7 17 -8 38 -8 57c0 10 -3 32 9 32c1 0 2 0 2 -2c0 -8 -1 -16 -1 -24c0 -63 35 -95 82 -95s91 30 129 71c30 33 60 89 92 151
c-43 -1 -93 -3 -131 -9c-24 -4 33 42 54 44l93 -3c29 53 57 111 81 159c3 6 6 13 11 20h-10c-16 0 -42 18 -39 25l3 3c14 1 41 3 71 4c20 22 45 40 70 45c-71 -3 -149 1 -217 -18c-31 -8 -57 -21 -67 -41c-14 -26 -9 -58 6 -69c4 -3 -4 -10 -9 -7c-12 7 -34 40 -38 57
c-26 95 110 93 167 93c97 0 176 -2 213 4c19 4 8 -14 2 -14c-29 -3 -57 -21 -80 -49c45 1 91 1 114 1c29 0 88 -1 143 -4c13 23 25 41 34 52c34 14 85 43 120 43c10 0 24 -10 11 -13c-21 -3 -32 7 -64 -26c-11 -11 -27 -32 -44 -59c20 -1 36 -3 46 -5c3 -1 8 -1 8 -3z
M643 281c33 64 70 131 100 182c-89 -3 -179 -9 -268 -11l-4 -7c-13 -23 -61 -113 -92 -174c25 -1 43 -2 46 -2c46 0 106 -1 147 0c12 0 53 4 71 12z" />
    </font>
</defs>
</svg>
