<?xml version="1.0" standalone="no"?>
<!DOCTYPE svg PUBLIC "-//W3C//DTD SVG 1.1//EN" "http://www.w3.org/Graphics/SVG/1.1/DTD/svg11.dtd" >
<svg xmlns="http://www.w3.org/2000/svg" xmlns:xlink="http://www.w3.org/1999/xlink" version="1.1">
<metadata>
Created by FontForge 20230101 at Wed Oct 28 13:53:46 2020
 By Glenn Lewis
Copyright 2020 The Josefin Slab Project Authors (https://github.com/googlefonts/josefinslab/), with Reserved Font Name Josefin.
</metadata>
<defs>
<font id="JosefinSlab-ThinItalic" horiz-adv-x="244" >
  <font-face 
    font-family="Josefin Slab Thin"
    font-weight="250"
    font-style="italic"
    font-stretch="normal"
    units-per-em="1000"
    panose-1="2 0 0 0 0 0 0 0 0 0"
    ascent="750"
    descent="-250"
    x-height="375"
    cap-height="700"
    bbox="-54 -250 1287 931"
    underline-thickness="50"
    underline-position="-100"
    slope="-12"
    unicode-range="U+000D-2215"
  />
<missing-glyph horiz-adv-x="300" 
 />
    <glyph glyph-name=".notdef" horiz-adv-x="300" 
 />
    <glyph glyph-name="space" unicode=" " horiz-adv-x="300" 
 />
    <glyph glyph-name="A" unicode="A" horiz-adv-x="828" 
d="M36 14l-1 -14h174l1 14h-84l171 302h322q22 -76 43 -151.5t42 -150.5h-84l-1 -14h174l1 14h-75q-51 180 -101.5 358.5t-101.5 359.5q-101 -181 -202.5 -359.5t-203.5 -358.5h-74zM304 330q49 87 99 172t96 173q1 2 4 7.5t9 17.5l5 -25l98 -345h-311z" />
    <glyph glyph-name="B" unicode="B" horiz-adv-x="516" 
d="M36 14l-1 -14h234q41 0 80.5 11.5t72.5 34.5q33 22 55.5 55.5t28.5 78.5q5 36 -3.5 65t-26.5 51q-19 22 -44.5 36t-55.5 20q67 17 105 64t46 109q7 46 -3 79.5t-34 54.5t-60 31t-81 10h-216l-2 -14h71l-95 -672h-71zM168 344h129q42 0 79.5 -10t65.5 -30t41.5 -52
t7.5 -75q-6 -41 -26 -71.5t-50 -50.5q-30 -21 -68 -31t-78 -10h-148zM216 686h143q39 0 70.5 -9t52.5 -28q20 -19 29 -49t3 -72q-5 -38 -21.5 -69t-42.5 -53q-26 -23 -59.5 -35.5t-73.5 -12.5h-147z" />
    <glyph glyph-name="C" unicode="C" horiz-adv-x="610" 
d="M638 546h14l16 112q-37 24 -81 37t-95 13q-74 0 -143 -28.5t-124 -76.5q-55 -49 -92.5 -114.5t-47.5 -139.5q-11 -74 8 -139t61 -113q42 -49 103 -77t135 -28q51 0 98 13.5t91 36.5l-8 12q-42 -23 -88.5 -35.5t-94.5 -12.5q-70 0 -128 27t-97 74q-40 46 -58 108t-8 133
t45.5 134t89.5 110q53 47 119 74.5t137 27.5q46 0 87 -11t76 -34z" />
    <glyph glyph-name="D" unicode="D" horiz-adv-x="632" 
d="M36 14l-1 -14h176q106 0 184 32.5t131 83.5t82 113t38 121q11 80 -8 145t-60 111q-42 45 -102.5 69.5t-132.5 24.5h-210l-2 -14h73l-95 -672h-73zM218 686h129q67 0 124.5 -23.5t97.5 -66.5q39 -44 57 -106.5t7 -139.5q-8 -57 -36.5 -116.5t-78.5 -107.5
q-50 -49 -124 -80.5t-173 -31.5h-98z" />
    <glyph glyph-name="E" unicode="E" horiz-adv-x="571" 
d="M36 14l-1 -14h501l21 154h-14l-20 -140h-391l47 332h352l2 14h-352l46 326h377l-20 -140h14l22 154h-487l-2 -14h82l-95 -672h-82z" />
    <glyph glyph-name="F" unicode="F" horiz-adv-x="557" 
d="M36 14l-1 -14h174l1 14h-78l47 332h352l2 14h-352l46 326h377l-20 -140h14l22 154h-487l-2 -14h82l-95 -672h-82z" />
    <glyph glyph-name="G" unicode="G" horiz-adv-x="609" 
d="M565 298h-186l-1 -14h172l-34 -235q-42 -22 -86 -33.5t-91 -11.5q-70 0 -128 27t-98 74q-40 46 -58 108t-8 133t46 134t89 110t119.5 74.5t137.5 27.5q48 0 90.5 -12.5t77.5 -35.5l10 12q-38 24 -81.5 37t-94.5 13q-74 0 -143 -28.5t-124 -76.5q-56 -49 -93.5 -114.5
t-47.5 -139.5t9 -139t61 -113q42 -49 103 -77t135 -28q51 0 98 13.5t90 36.5z" />
    <glyph glyph-name="H" unicode="H" horiz-adv-x="716" 
d="M605 700l-2 -14h83l-46 -326h-464l46 326h83l2 14h-174l-2 -14h77l-95 -672h-77l-1 -14h174l1 14h-83l47 332h464l-47 -332h-83l-1 -14h174l1 14h-77l95 672h77l2 14h-174z" />
    <glyph glyph-name="I" unicode="I" 
d="M36 14l-1 -14h174l1 14h-83l95 672h83l2 14h-174l-2 -14h77l-95 -672h-77z" />
    <glyph glyph-name="J" unicode="J" horiz-adv-x="255" 
d="M93 700l-2 -14h171l-84 -593q-7 -51 -25.5 -91t-45.5 -68q-27 -29 -60 -44.5t-70 -17.5l-1 -14q37 1 72.5 17t65.5 45q29 29 49.5 71.5t28.5 98.5l86 610h-185z" />
    <glyph glyph-name="K" unicode="K" horiz-adv-x="686" 
d="M478 14l-1 -14h174l1 14h-88q-66 103 -132 205t-133 205l312 262h88l2 14h-174l-2 -14h64l-398 -335l-20 -20q1 8 2.5 14.5t2.5 14.5l46 326h83l2 14h-174l-2 -14h77l-95 -672h-77l-1 -14h174l1 14h-83q11 75 21 150.5t21 151.5l118 98q65 -100 129 -200l128 -200h-66z
" />
    <glyph glyph-name="L" unicode="L" horiz-adv-x="566" 
d="M36 14l-1 -14h496l21 154h-14l-20 -140h-391l95 672h83l2 14h-174l-2 -14h77l-95 -672h-77z" />
    <glyph glyph-name="M" unicode="M" horiz-adv-x="961" 
d="M35 0h174l1 14h-83l89 630q2 14 3 24.5t2 21.5q7 -11 10.5 -17t10.5 -17l268 -428l395 437q4 4 11 12t11 13l-3.5 -21t-3.5 -24l-89 -631h-78l-1 -14h174l1 14h-82l95 672h77l2 14h-100l-406 -447l-280 447h-100l-2 -14h77l-95 -672h-77z" />
    <glyph glyph-name="N" unicode="N" horiz-adv-x="840" 
d="M723 -32l100 718h82l2 14h-174l-2 -14h78l-91 -652l-2 -32l-15 26l-461 672h-103l-2 -14h77l-94 -672h-77l-2 -14h174l2 14h-83l91 650l2 26l15 -20z" />
    <glyph glyph-name="O" unicode="O" horiz-adv-x="786" 
d="M85 349q-11 -74 8 -139t61 -113q42 -49 103 -77t135 -28t143.5 28t125.5 77q55 48 92 113t48 139q10 74 -9 139.5t-61 114.5q-42 48 -103.5 76.5t-135.5 28.5t-143 -28.5t-124 -76.5q-55 -49 -92.5 -114.5t-47.5 -139.5zM99 348q10 71 45.5 134t89.5 110q53 47 119 74.5
t137 27.5t130 -27.5t100 -74.5q40 -47 58.5 -109.5t8.5 -133.5t-46.5 -133.5t-90.5 -108.5q-54 -47 -121.5 -74t-138.5 -27q-70 0 -128 27t-97 74q-40 46 -58 108t-8 133z" />
    <glyph glyph-name="P" unicode="P" horiz-adv-x="481" 
d="M36 14l-1 -14h174l1 14h-89l46 327h112q103 0 165.5 49t74.5 132q7 48 -9 82t-43 55t-60.5 31t-62.5 10h-211l-2 -14h71l-95 -672h-71zM169 355l47 331h116q42 0 75.5 -13.5t57.5 -35.5q23 -23 33.5 -52.5t6.5 -62.5q-4 -27 -17 -56.5t-39 -53.5q-26 -25 -66.5 -41
t-98.5 -16h-115z" />
    <glyph glyph-name="Q" unicode="Q" horiz-adv-x="808" 
d="M99 348q10 71 45.5 134t89.5 110q53 47 119 74.5t137 27.5t130 -27.5t100 -74.5q40 -47 58.5 -109.5t8.5 -133.5t-46.5 -133.5t-90.5 -108.5q-54 -47 -121.5 -74t-138.5 -27q-70 0 -128 27t-97 74q-40 46 -58 108t-8 133zM85 349q-11 -74 8 -139t61 -113q42 -49 103 -77
t135 -28q18 0 36.5 2t38.5 6h307l2 14h-257q54 19 101.5 52t85.5 77q37 43 62 95.5t33 110.5q10 74 -9 139.5t-61 114.5q-42 48 -103.5 76.5t-135.5 28.5t-143 -28.5t-124 -76.5q-55 -49 -92.5 -114.5t-47.5 -139.5z" />
    <glyph glyph-name="R" unicode="R" horiz-adv-x="569" 
d="M36 14l-1 -14h174l1 14h-89l46 327h112q13 0 25 1t23 2l115 -344h92l1 14h-84l-109 332q76 14 121.5 60.5t55.5 115.5q7 48 -9 82t-43 55t-60.5 31t-62.5 10h-211l-2 -14h71l-95 -672h-71zM169 355l47 331h116q42 0 75.5 -13.5t57.5 -35.5q23 -23 33.5 -52.5t6.5 -62.5
q-4 -27 -17 -56.5t-39 -53.5q-26 -25 -66.5 -41t-98.5 -16h-115z" />
    <glyph glyph-name="S" unicode="S" horiz-adv-x="478" 
d="M56 64q8 -9 22.5 -21t36.5 -23q22 -12 52.5 -20t70.5 -8q44 0 85 13.5t74 39.5q32 25 53.5 61t26.5 80q6 49 -6 81t-35 53q-24 20 -55.5 32.5t-64.5 22.5t-64.5 20t-54.5 27q-23 16 -35.5 41.5t-6.5 66.5q4 31 18 59.5t37 51.5q23 22 54 35.5t70 13.5q48 0 80.5 -11
t49.5 -26l-15 -107h14l16 114q-14 13 -31.5 22t-36.5 14q-19 4 -38 6t-35 2q-47 0 -82.5 -16.5t-60.5 -43.5t-39 -60.5t-17 -66.5q-3 -41 10.5 -67t37.5 -42q24 -17 56 -27.5t65 -19.5q32 -10 62.5 -21.5t53.5 -30.5q22 -20 33.5 -50.5t4.5 -76.5q-6 -40 -27 -72.5
t-52 -55.5q-32 -23 -69.5 -35.5t-76.5 -12.5q-62 0 -101.5 19.5t-64.5 48.5l13 90h-14z" />
    <glyph glyph-name="T" unicode="T" horiz-adv-x="623" 
d="M226 14l-1 -14h174l1 14h-81l95 672h256l-20 -140h14l22 154h-553l-22 -154h14l20 140h255l-95 -672h-79z" />
    <glyph glyph-name="U" unicode="U" horiz-adv-x="674" 
d="M134 700l-2 -14h77l-65 -460q-8 -57 3 -101t37 -73q26 -30 65.5 -45t87.5 -15t91 15t78 45q34 29 57 73t31 101l65 460h77l2 14h-174l-2 -14h83l-64 -457q-8 -54 -29.5 -95.5t-53.5 -69.5q-33 -29 -74 -43.5t-86 -14.5q-46 0 -82.5 14.5t-60.5 43.5q-24 28 -34 69.5
t-2 95.5l64 457h83l2 14h-174z" />
    <glyph glyph-name="V" unicode="V" horiz-adv-x="844" 
d="M137 700l-2 -14h82q51 -181 102.5 -359.5t102.5 -358.5q101 180 202 358.5t202 359.5h83l2 14h-174l-2 -14h76q-94 -167 -186.5 -331t-185.5 -330l-13 -25l-5 25q-48 166 -94.5 330t-93.5 331h76l2 14h-174z" />
    <glyph glyph-name="W" unicode="W" horiz-adv-x="1220" 
d="M137 700l-2 -14h82q51 -181 102.5 -359.5t102.5 -358.5q62 110 123 219.5t124 219.5l6 -22l119 -417q101 180 202 358.5t202 359.5h87l2 14h-174l-2 -14h72q-94 -167 -186.5 -331t-185.5 -330l-13 -25l-5 25q-50 165 -96 329.5t-92 331.5h80l2 14h-174l-2 -14h79
q19 -66 37.5 -131t36.5 -130q-60 -106 -121.5 -211.5t-116.5 -213.5l-5 25q-50 165 -96 329.5t-92 331.5h76l2 14h-174z" />
    <glyph glyph-name="X" unicode="X" horiz-adv-x="710" 
d="M133 700l-2 -14h99l165 -326l-270 -346h-89l-1 -14h174l1 14h-70q63 81 126 160.5t126 160.5l9 13q10 -16 18 -34t17 -35l136 -265h-70l-1 -14h174l1 14h-87q-44 86 -87.5 170.5t-86.5 171.5q64 83 128 164.5t129 165.5h99l2 14h-174l-2 -14h59l-238 -305l-10 -13l-6 13
q-39 76 -77.5 152t-78.5 153h59l2 14h-174z" />
    <glyph glyph-name="Y" unicode="Y" horiz-adv-x="718" 
d="M274 14l-1 -14h174l1 14h-81l35 248q78 106 156.5 211.5t156.5 212.5h64l2 14h-174l-2 -14h93l-286 -388l-14 -26h-1l-9 26q-43 98 -88 194t-90 194h95l2 14h-174l-2 -14h62q49 -106 97.5 -212t97.5 -212l-35 -248h-79z" />
    <glyph glyph-name="Z" unicode="Z" horiz-adv-x="629" 
d="M618 174h-14l-23 -160h-525l605 672l2 14h-497l5 35h-16l-7 -49h493l-605 -672l-1 -14h559z" />
    <glyph glyph-name="a" unicode="a" horiz-adv-x="532" 
d="M62 188q-6 -41 4.5 -76t33.5 -61q22 -27 55 -42t74 -15q44 0 83.5 17t69.5 46q14 13 25.5 28t20.5 32q-2 -16 -5 -31.5t-5 -31.5l-8 -54h87l2 14h-73l51 361h-10q-5 -29 -10.5 -57.5t-9.5 -57.5q-7 27 -22 49.5t-36 39.5q-22 16 -48.5 25t-57.5 9q-41 0 -78 -15.5
t-67 -41.5t-50 -62t-26 -76zM76 188q5 37 23.5 70t46.5 58t62.5 39t72.5 14q37 0 68.5 -14t52.5 -39t30.5 -58t4.5 -70q-5 -38 -24 -70.5t-47 -56.5q-28 -25 -63.5 -39t-72.5 -14q-38 0 -68.5 14t-51.5 39q-21 24 -30 56.5t-4 70.5z" />
    <glyph glyph-name="b" unicode="b" horiz-adv-x="532" 
d="M122 0l8 54q2 16 4 31.5t4 31.5q14 -54 58 -88.5t107 -34.5q40 0 77.5 15t67.5 42q30 26 50 61t26 76q6 40 -4.5 76t-32.5 62q-23 26 -56.5 41.5t-73.5 15.5q-63 0 -116 -34.5t-82 -88.5q2 15 4 30.5t4 30.5l61 429h-87l-2 -14h73l-102 -722h-73l-2 -14h87zM510 188
q-5 -38 -24 -70.5t-47 -56.5q-28 -25 -63 -39t-72 -14q-38 0 -68.5 14t-51.5 39q-21 24 -30.5 56.5t-4.5 70.5q5 37 24 70t47 58t62.5 39t72.5 14q37 0 68 -14t52 -39t30.5 -58t4.5 -70z" />
    <glyph glyph-name="c" unicode="c" horiz-adv-x="387" 
d="M358 37l-9 10q-26 -18 -56.5 -28.5t-62.5 -10.5q-38 0 -68.5 14t-51.5 39q-21 24 -30 56.5t-4 70.5q5 37 23.5 70t46.5 58t62.5 39t72.5 14q31 0 57 -10t47 -27l-11 -79h14l12 87q-22 20 -52 31.5t-65 11.5q-41 0 -78 -15.5t-67 -41.5t-50 -62t-26 -76q-6 -41 4.5 -76
t33.5 -61q22 -27 55 -42t74 -15q35 0 67.5 11.5t61.5 31.5z" />
    <glyph glyph-name="d" unicode="d" horiz-adv-x="532" 
d="M418 54l-8 -54h87l2 14h-73l104 736h-87l-2 -14h73l-50 -357q-5 -30 -8.5 -59.5t-8.5 -59.5q-14 54 -57.5 88.5t-106.5 34.5q-41 0 -78 -15.5t-67 -41.5t-50 -62t-26 -76q-6 -41 4.5 -76t33.5 -61q22 -27 55 -42t74 -15q63 0 116.5 34.5t82.5 88.5q-2 -16 -5 -31.5
t-5 -31.5zM76 188q5 37 23.5 70t46.5 58t62.5 39t72.5 14q37 0 68.5 -14t52.5 -39t30.5 -58t4.5 -70q-5 -38 -24 -70.5t-47 -56.5q-28 -25 -63.5 -39t-72.5 -14q-38 0 -68.5 14t-51.5 39q-21 24 -30 56.5t-4 70.5z" />
    <glyph glyph-name="e" unicode="e" horiz-adv-x="435" 
d="M281 369q50 0 86.5 -28.5t50.5 -74.5q-86 -33 -171 -65.5t-172 -65.5q-6 43 8.5 85t43.5 75t69 53.5t85 20.5zM435 259q-6 26 -18.5 48t-30.5 38q-20 18 -46.5 28t-56.5 10q-41 0 -78 -15.5t-67 -41.5t-50 -62t-26 -76q-6 -41 4.5 -76t33.5 -62q22 -26 55 -41t74 -15
q39 0 74.5 14t65.5 38q-2 3 -4 5.5t-4 5.5q-27 -23 -61 -36t-70 -13q-58 0 -98.5 31.5t-53.5 82.5q90 35 178.5 68.5t178.5 68.5z" />
    <glyph glyph-name="f" unicode="f" horiz-adv-x="281" 
d="M36 14l-1 -14h174l1 14h-99l49 347h130l2 14h-130l21 147q7 49 26.5 88.5t47.5 67.5q27 28 60 43t67 15l2 14q-38 -2 -74 -17.5t-65 -44.5q-30 -29 -50.5 -72t-28.5 -98l-20 -143h-61l-2 -14h61l-49 -347h-61z" />
    <glyph glyph-name="g" unicode="g" horiz-adv-x="533" 
d="M501 375q-5 -29 -10 -57.5t-10 -57.5q-7 27 -22 49.5t-36 39.5q-22 16 -48.5 25t-57.5 9q-41 0 -78 -15.5t-67 -41.5t-50 -62t-26 -76q-6 -41 4.5 -76t33.5 -61q22 -27 55 -42t74 -15q63 0 116.5 34.5t82.5 88.5q-2 -16 -5 -31.5t-5 -31.5l-10 -76q-7 -49 -26.5 -88.5
t-46.5 -67.5q-28 -28 -64 -43t-70 -15q-36 0 -70.5 11.5t-54.5 41.5l-14 -7q21 -32 56.5 -46t86.5 -14q38 1 73.5 17t65.5 45q29 29 49.5 71.5t28.5 98.5l53 379h74l2 14h-84zM110 188q5 37 23.5 70t46.5 58t62.5 39t72.5 14q37 0 68.5 -14t52.5 -39t30.5 -58t4.5 -70
q-5 -38 -24 -70.5t-47 -56.5q-28 -25 -63 -39t-72 -14q-38 0 -68.5 14t-51.5 39q-21 24 -30.5 56.5t-4.5 70.5z" />
    <glyph glyph-name="h" unicode="h" horiz-adv-x="522" 
d="M314 14l-1 -14h174l1 14h-81l36 256q6 50 -20.5 81t-79.5 31q-57 0 -105 -29t-75 -76l10 45l60 428h-87l-2 -14h73l-102 -722h-79l-1 -14h174l1 14h-81l29 206q5 32 22.5 59.5t43.5 47.5q26 19 58 30t66 11q44 -2 65 -28.5t17 -62.5l-37 -263h-79z" />
    <glyph glyph-name="i" unicode="i" 
d="M36 14l-1 -14h174l1 14h-78l51 361h-96l-2 -14h82l-49 -347h-82zM174 500q-2 -8 3.5 -14t13.5 -6t14.5 6t8.5 14q1 8 -4 14t-13 6t-15 -6t-8 -14z" />
    <glyph glyph-name="j" unicode="j" horiz-adv-x="166" 
d="M62 375l-2 -14h82l-52 -372q-7 -51 -27.5 -91.5t-49.5 -68.5l11 -9q30 29 51.5 72.5t29.5 100.5l53 382h-96zM149 500q-2 -8 3.5 -14t13.5 -6t14.5 6t8.5 14q1 8 -4 14t-13 6t-15 -6t-8 -14z" />
    <glyph glyph-name="k" unicode="k" horiz-adv-x="487" 
d="M279 14l-1 -14h174l1 14h-83q-32 55 -65 110t-65 111q41 35 73 62t75 64h79l2 14h-174l-2 -14h76l-224 -185l81 574h-87l-2 -14h73l-102 -722h-72l-1 -14h174l1 14h-88l20 141l84 70q31 -54 62.5 -106t63.5 -105h-73z" />
    <glyph glyph-name="l" unicode="l" 
d="M36 14l-1 -14h174l1 14h-88l104 736h-87l-2 -14h73l-102 -722h-72z" />
    <glyph glyph-name="m" unicode="m" horiz-adv-x="800" 
d="M592 14l-1 -14h174l1 14h-81l36 256q6 50 -20.5 81t-79.5 31q-55 0 -102.5 -27.5t-74.5 -72.5q1 45 -25.5 72.5t-75.5 27.5q-57 0 -105 -29t-75 -76q2 13 3 22.5t3 22.5l5 53h-83l-2 -14h75l-49 -347h-79l-1 -14h174l1 14h-81l29 206q5 32 22.5 59.5t43.5 47.5
q26 19 58 30t66 11q44 -2 65 -28.5t17 -62.5l-37 -263h-79l-1 -14h174l1 14h-81l30 212q6 31 24 57t44 45q25 19 56.5 29.5t64.5 10.5q44 -2 65 -28.5t17 -62.5l-37 -263h-79z" />
    <glyph glyph-name="n" unicode="n" horiz-adv-x="522" 
d="M314 14l-1 -14h174l1 14h-81l36 256q6 50 -20.5 81t-79.5 31q-57 0 -105 -29t-75 -76q2 13 3 22.5t3 22.5l5 53h-83l-2 -14h75l-49 -347h-79l-1 -14h174l1 14h-81l29 206q5 32 22.5 59.5t43.5 47.5q26 19 58 30t66 11q44 -2 65 -28.5t17 -62.5l-37 -263h-79z" />
    <glyph glyph-name="o" unicode="o" horiz-adv-x="461" 
d="M63 188q-6 -41 4.5 -76t33.5 -61q22 -27 55 -42t74 -15q40 0 78 15t69 42q30 26 50 61t26 76q6 40 -4.5 76t-33.5 63q-23 26 -57 41.5t-74 15.5q-41 0 -78 -15.5t-67 -41.5q-30 -27 -50 -63t-26 -76zM77 188q5 37 23.5 70t46.5 58t62.5 39t72.5 14q37 0 68.5 -14
t52.5 -39t30.5 -58t4.5 -70q-5 -38 -24 -70.5t-47 -56.5q-28 -25 -63.5 -39t-72.5 -14q-38 0 -68.5 14t-51.5 39q-21 24 -30 56.5t-4 70.5z" />
    <glyph glyph-name="p" unicode="p" horiz-adv-x="532" 
d="M-1 -236l-1 -14h173l1 14h-93l42 297q3 18 3.5 27t2.5 27q14 -54 57.5 -88.5t106.5 -34.5q40 0 77.5 15.5t67.5 41.5t50.5 61.5t26.5 76.5q6 40 -4.5 75.5t-32.5 62.5q-23 26 -56.5 41t-73.5 15q-31 0 -60.5 -9t-55.5 -25q-27 -17 -48 -40t-36 -50q5 29 7.5 59t6.5 59
h-83l-2 -14h73l-84 -597h-65zM499 187q-5 -38 -24 -70.5t-47 -57.5t-63 -39t-72 -14q-38 0 -68.5 14t-51.5 39t-30.5 57.5t-4.5 70.5q5 37 24 70t47 58q28 24 62.5 38t72.5 14q37 0 68 -14t52 -38q21 -25 30.5 -58t4.5 -70z" />
    <glyph glyph-name="q" unicode="q" horiz-adv-x="532" 
d="M322 -236l-1 -14h174l1 14h-71l84 597h73l2 14h-83q-4 -29 -9.5 -59t-9.5 -59q-14 55 -58 89.5t-107 34.5q-41 0 -78 -15t-67 -41q-30 -27 -50 -62.5t-26 -75.5q-6 -41 4.5 -76.5t33.5 -61.5q22 -26 55 -41.5t74 -15.5q63 0 116 34.5t82 88.5l-4.5 -27l-4.5 -27l-42 -297
h-88zM110 187q5 37 23.5 70t46.5 58q28 24 62.5 38t72.5 14q37 0 68.5 -14t52.5 -38q21 -25 30.5 -58t4.5 -70q-5 -38 -24 -70.5t-47 -57.5t-63.5 -39t-72.5 -14q-38 0 -68.5 14t-51.5 39t-30 57.5t-4 70.5z" />
    <glyph glyph-name="r" unicode="r" horiz-adv-x="326" 
d="M36 14l-1 -14h174l1 14h-81l29 206q4 31 21.5 58t42.5 46q25 20 56 31.5t64 12.5l2 14q-28 -1 -54.5 -8.5t-49.5 -20.5q-24 -13 -43.5 -32.5t-33.5 -43.5q2 13 3 22.5t3 22.5l5 53h-83l-2 -14h75l-49 -347h-79z" />
    <glyph glyph-name="s" unicode="s" horiz-adv-x="315" 
d="M59 26q18 -17 48.5 -25.5t60.5 -8.5t54.5 10t41.5 26q16 15 24.5 32t10.5 41q3 33 -8.5 51.5t-32.5 29.5t-46.5 17.5t-46.5 16.5q-21 9 -33.5 24.5t-7.5 44.5q3 22 14 37.5t25 25.5q14 9 33 13t32 4q21 0 40 -4.5t36 -17.5l-8 -59h14l9 65q-9 10 -25 17t-31 10
q-16 3 -27.5 3h-11.5q-19 0 -38 -6.5t-35 -19.5t-27.5 -31t-14.5 -42q-4 -31 8.5 -48t33.5 -26q21 -10 46 -17t46 -16q21 -10 33 -27t8 -48q-3 -23 -13.5 -40t-26.5 -28q-17 -12 -35 -18t-43 -6t-49.5 6t-42.5 20l8 59h-14z" />
    <glyph glyph-name="t" unicode="t" horiz-adv-x="300" 
d="M210 619l-34 -244h-89l-2 -14h89l-50 -361h101l1 14h-87l49 347h127l2 14h-127l34 244h-14z" />
    <glyph glyph-name="u" unicode="u" horiz-adv-x="518" 
d="M400 0h83l2 14h-77l51 361h-93l-2 -14h79l-29 -206q-5 -32 -22.5 -59.5t-43.5 -46.5q-26 -20 -58 -31t-66 -11q-43 2 -64 28.5t-18 62.5l39 277h-93l-2 -14h79l-36 -256q-5 -50 21.5 -81t79.5 -31q56 0 104 28.5t75 76.5l-4 -45z" />
    <glyph glyph-name="v" unicode="v" horiz-adv-x="590" 
d="M90 375l-2 -14h72q34 -97 68.5 -192t69.5 -192q60 97 121 192t123 192h66l2 14h-139l-2 -14h58q-57 -91 -115 -181t-110 -172q-32 88 -63.5 176.5t-63.5 176.5h74l2 14h-161z" />
    <glyph glyph-name="w" unicode="w" horiz-adv-x="860" 
d="M741 375l-2 -14h60q-57 -89 -112.5 -176.5t-112.5 -176.5q-32 88 -63.5 176t-63.5 177h72l2 14h-161l-2 -14h74l34 -95q-42 -65 -82 -129t-82 -129q-32 88 -63.5 176t-63.5 177h74l2 14h-161l-2 -14h72q34 -97 68.5 -192t69.5 -192l174 274l98 -274q60 97 121 192
t123 192h64l2 14h-139z" />
    <glyph glyph-name="x" unicode="x" horiz-adv-x="488" 
d="M87 375l-2 -14h68q26 -45 52 -87.5t52 -86.5q-38 -44 -74.5 -87t-74.5 -86h-72l-1 -14h174l1 14h-84q35 40 69 80t69 81q24 -40 47.5 -79.5t47.5 -81.5h-79l-1 -14h174l1 14h-79q-25 44 -50.5 86t-50.5 86l150 175h79l2 14h-174l-2 -14h78l-140 -163l-96 163h88l2 14
h-174z" />
    <glyph glyph-name="y" unicode="y" horiz-adv-x="590" 
d="M93 -236l-1 -14h174l1 14h-74q96 150 190 298.5t191 298.5h66l2 14h-139l-2 -14h55l-112 -176t-109 -171q-32 87 -63 173t-62 174h71l2 14h-161l-2 -14h72q32 -92 65 -183l66 -182q-37 -57 -74.5 -115.5t-74.5 -116.5h-81z" />
    <glyph glyph-name="z" unicode="z" horiz-adv-x="429" 
d="M403 65h-14l-8 -51h-327l373 347l2 14h-316l5 35h-14l-7 -49h312l-373 -347l-1 -14h359z" />
    <glyph glyph-name="zero" unicode="0" horiz-adv-x="616" 
d="M36 327q-10 -70 2 -130.5t42 -105.5t74.5 -71.5t99.5 -26.5t108 25.5t96 70.5t73.5 105.5t40.5 129.5q7 48 1.5 106t-29.5 109q-24 50 -70 84.5t-120 34.5q-75 0 -131.5 -33.5t-95.5 -83.5q-39 -51 -61.5 -108.5t-29.5 -105.5zM51 328q10 73 38.5 131.5t68.5 100.5
q40 41 89.5 62.5t103.5 21.5t97 -23t71 -64q28 -42 39 -101.5t0 -132.5q-11 -72 -41 -131t-71 -100q-42 -41 -91 -63t-97 -22t-90.5 23t-71.5 65q-30 42 -43 101t-2 132z" />
    <glyph glyph-name="one" unicode="1" horiz-adv-x="249" 
d="M23 14l-2 -14h174l2 14h-80l89 636h-127l-2 -14h113l-87 -622h-80z" />
    <glyph glyph-name="two" unicode="2" horiz-adv-x="495" 
d="M44 14q60 54 123 109.5t117 111.5t91.5 113.5t45.5 115.5q6 42 -1.5 77.5t-26.5 61.5q-20 26 -50 40.5t-69 14.5q-43 0 -78.5 -14.5t-61.5 -39.5q-26 -26 -42.5 -60.5t-22.5 -74.5q-5 -41 3 -69.5t25 -52.5l10 8q-17 22 -23 50.5t-1 63.5q4 26 15.5 56.5t33.5 57.5
q22 26 56 43.5t84 17.5q25 0 52 -9t48 -31t31.5 -59t2.5 -93q-7 -47 -43 -100.5t-91 -110.5q-55 -58 -124 -118.5t-142 -122.5h396l18 127h-14l-16 -113h-346z" />
    <glyph glyph-name="three" unicode="3" horiz-adv-x="515" 
d="M183 361q15 11 31.5 17t32.5 6q39 0 72.5 -15t56.5 -40q22 -26 33 -60.5t5 -73.5q-6 -38 -26 -72.5t-50 -60.5t-67.5 -41t-76.5 -15q-42 0 -74.5 18t-52.5 47l-11 -13q23 -30 58.5 -48t80.5 -18q42 0 81.5 16t71.5 44q31 27 52.5 64t27.5 79q6 45 -6.5 83.5t-38.5 65.5
q-27 27 -65.5 41.5t-84.5 12.5l235 252h-319l-12 -82h14l10 68h273z" />
    <glyph glyph-name="four" unicode="4" horiz-adv-x="505" 
d="M267 14l-2 -14h174l2 14h-83l24 169h97l2 14h-97l65 461l-433 -475h352l-24 -169h-77zM429 617l-59 -420h-322z" />
    <glyph glyph-name="five" unicode="5" horiz-adv-x="543" 
d="M476 650h-287l-44 -309q20 17 50.5 28.5t65.5 11.5q40 0 73 -14.5t56 -39.5q22 -26 32.5 -59.5t5.5 -72.5q-6 -38 -26 -72.5t-50 -60.5t-67 -41t-77 -15q-38 0 -68.5 13.5t-50.5 38.5l-13 -10q24 -26 57.5 -41t74.5 -15q42 0 81.5 16t71.5 44q32 27 53.5 64t27.5 79
t-5 78.5t-35 63.5q-25 27 -60 42.5t-77 15.5q-26 0 -51.5 -6t-49.5 -17l37 264h259l-10 -68h14z" />
    <glyph glyph-name="six" unicode="6" horiz-adv-x="520" 
d="M46 193q5 39 25 73t49 60q29 25 66 40t76 15t72 -15t56 -40q22 -26 32 -60t5 -73q-6 -39 -26 -73t-49 -59q-30 -26 -67 -40.5t-76 -14.5t-71.5 14.5t-54.5 40.5q-23 25 -33 59t-4 73zM33 193q-6 -42 4.5 -78.5t34.5 -63.5t59 -43t77 -16t81.5 16t71.5 43q31 27 52.5 63.5
t27.5 78.5t-5 78.5t-35 64.5q-24 27 -59 43t-77 16q-51 0 -96 -22t-78 -59q15 28 43.5 62.5t71.5 74.5q42 39 99 82t130 87q-2 3 -4 6.5t-4 6.5q-62 -41 -127.5 -87.5t-121.5 -100.5t-95.5 -116.5t-49.5 -135.5z" />
    <glyph glyph-name="seven" unicode="7" horiz-adv-x="469" 
d="M460 650h-401l-11 -82h14l9 68h364l-376 -636h18z" />
    <glyph glyph-name="eight" unicode="8" horiz-adv-x="510" 
d="M148 511q4 27 17.5 51t33.5 42t45.5 29t53.5 11q27 0 49 -11t37 -29t21.5 -42t2.5 -51q-4 -25 -16.5 -46t-31.5 -36q-20 -16 -45 -24.5t-52 -8.5q-28 0 -50.5 8.5t-38.5 24.5q-16 15 -23 36t-3 46zM48 195q6 39 25 72.5t48 59.5q28 25 64 39.5t75 14.5q40 0 73 -14.5
t56 -39.5q23 -26 33.5 -59.5t4.5 -72.5q-5 -38 -25 -72.5t-50 -60.5t-67 -41.5t-77 -15.5q-39 0 -71 15.5t-53 41.5q-22 26 -31.5 60.5t-4.5 72.5zM34 195q-6 -42 5 -79t35 -64q23 -28 57.5 -44t76.5 -16t81.5 16t71.5 44q31 27 52.5 64t27.5 79q5 36 -2 67.5t-24 57.5
q-18 25 -44 43t-59 26q43 14 73.5 47.5t36.5 77.5q4 30 -3.5 56t-24.5 46q-17 19 -41.5 30.5t-54.5 11.5t-57.5 -11t-49.5 -30q-23 -19 -37.5 -44.5t-18.5 -54.5q-7 -46 15 -80.5t62 -48.5q-34 -8 -64 -26.5t-54 -43.5q-24 -26 -39.5 -57.5t-20.5 -66.5z" />
    <glyph glyph-name="nine" unicode="9" horiz-adv-x="525" 
d="M466 432q-5 -39 -25 -73.5t-49 -59.5q-29 -26 -66 -40.5t-76 -14.5t-72 14.5t-55 40.5q-23 25 -33 59.5t-5 73.5q6 39 26 73t50 60q29 25 66 39.5t76 14.5t71.5 -14.5t55.5 -39.5q22 -26 32 -60t4 -73zM479 432q6 42 -4.5 78.5t-34.5 63.5t-59 43t-77 16t-81.5 -16
t-70.5 -43q-32 -27 -53.5 -63.5t-27.5 -78.5t5 -78.5t35 -63.5q24 -28 59 -44t77 -16q51 0 96 22t78 59q-15 -28 -43.5 -62.5t-70.5 -73.5q-43 -40 -100 -83t-130 -87l4 -6t4 -7q62 41 127.5 87.5t121.5 100.5t95.5 116.5t49.5 135.5z" />
    <glyph glyph-name="uni00B9" unicode="&#xb9;" horiz-adv-x="249" 
d="M65 381l-1 -6h86l1 6h-39l43 319h-63l-1 -7h57l-44 -312h-39z" />
    <glyph glyph-name="uni00B2" unicode="&#xb2;" horiz-adv-x="398" 
d="M98 382q30 27 61 54t58 55q26 28 45 56.5t23 56.5q3 21 -1 38.5t-13 30.5q-10 13 -25 20t-34 7q-22 0 -39.5 -7t-29.5 -20q-13 -13 -21.5 -30t-11.5 -36q-2 -21 2 -35t12 -26l5 4q-8 11 -11 25.5t-1 31.5q2 12 7.5 27.5t16.5 28.5t28 21.5t42 8.5q12 0 25.5 -4.5
t24.5 -15.5q10 -11 15 -29t1 -46q-3 -23 -21 -49.5t-45 -54.5q-27 -29 -61.5 -58.5t-70.5 -60.5h196l9 63h-7l-8 -56h-171z" />
    <glyph glyph-name="uni00B3" unicode="&#xb3;" horiz-adv-x="419" 
d="M140 558q8 5 16 8t16 3q19 0 35.5 -7.5t27.5 -19.5q11 -13 16.5 -30t2.5 -36t-13 -36t-24 -29q-15 -13 -33.5 -20.5t-37.5 -7.5q-21 0 -37 9t-26 23l-5 -6q11 -15 28.5 -24t39.5 -9q21 0 40.5 8t35.5 22q15 13 25.5 31t13.5 39q3 22 -3 41t-19 33q-14 13 -32.5 20
t-41.5 6l116 124h-158l-5 -40h6l5 33h135z" />
    <glyph glyph-name="ordfeminine" unicode="&#xaa;" horiz-adv-x="585" 
d="M103 442q-5 -30 3 -55t24 -45q16 -19 40 -29.5t53 -10.5q27 0 51 8.5t45 23.5q14 11 26.5 25t21.5 31q-2 -11 -3.5 -22.5t-3.5 -22.5l-6 -39h63l1 10h-53l37 260h-7q-4 -20 -8 -41t-7 -41q-5 19 -15.5 35t-26.5 28q-15 12 -34 18.5t-42 6.5q-29 0 -56 -11t-48 -30
q-22 -19 -36.5 -45t-18.5 -54zM113 442q3 26 16.5 50t34.5 42q20 18 44.5 28t52.5 10q26 0 49 -10t38 -28t22 -42t3 -50q-3 -28 -17 -51.5t-34 -40.5q-20 -18 -45.5 -28t-52.5 -10t-49 10t-37 28q-16 17 -22.5 40.5t-2.5 51.5z" />
    <glyph glyph-name="ordmasculine" unicode="&#xba;" horiz-adv-x="469" 
d="M110 442q-4 -30 3.5 -55t24.5 -44q16 -20 39.5 -30.5t53.5 -10.5q29 0 56.5 10.5t49.5 30.5q22 19 36 44t19 55q4 28 -3.5 54t-23.5 46q-17 19 -41.5 30t-53.5 11q-30 0 -56.5 -11t-47.5 -30q-22 -20 -36.5 -46t-19.5 -54zM121 442q3 26 16.5 50t33.5 42t45 28t52 10
t50 -10t38 -28t22 -42t3 -50q-4 -28 -17.5 -51.5t-33.5 -40.5q-20 -18 -46 -28t-52 -10q-28 0 -50 10t-37 28q-15 17 -21.5 40.5t-2.5 51.5z" />
    <glyph glyph-name="onehalf" unicode="&#xbd;" horiz-adv-x="1069" 
d="M113 244l-1 -10h123l2 10h-57l63 451h-90l-1 -10h80l-62 -441h-57zM585 10q43 38 87.5 77t82.5 79t64.5 80.5t32.5 81.5q4 30 -1.5 55t-18.5 43q-14 18 -35.5 28.5t-48.5 10.5q-31 0 -56 -10.5t-43 -28.5q-19 -18 -30.5 -42t-15.5 -53t2 -49t18 -37l7 6q-12 16 -16 36
t-1 44q2 19 10.5 40.5t24.5 40.5q15 18 39 30.5t59 12.5q18 0 37 -6.5t34 -21.5q15 -16 22.5 -42t1.5 -66q-5 -33 -30.5 -70.5t-64.5 -78.5t-87.5 -83.5t-100.5 -86.5h280l13 90h-10l-11 -80h-245zM242 -19h14q97 190 192 377t192 377h-14q-97 -190 -192 -377t-192 -377z
" />
    <glyph glyph-name="onequarter" unicode="&#xbc;" horiz-adv-x="968" 
d="M242 -19h14q97 190 192 377t192 377h-14q-97 -190 -192 -377t-192 -377zM672 10l-1 -10h129l2 10h-62l18 126h72l1 11h-72l49 343l-322 -354h261l-17 -126h-58zM793 459l-44 -312h-239zM130 244l-1 -10h123l2 10h-57l63 451h-90l-1 -10h80l-62 -441h-57z" />
    <glyph glyph-name="threequarters" unicode="&#xbe;" horiz-adv-x="1276" 
d="M223 485q12 8 24.5 12.5t24.5 4.5q30 0 56 -11.5t44 -30.5q17 -20 25.5 -46.5t3.5 -56.5t-20 -56.5t-38 -46.5q-24 -20 -52.5 -31.5t-59.5 -11.5q-32 0 -57 13.5t-40 36.5l-9 -10q18 -23 45.5 -37t61.5 -14q33 0 63 12.5t55 33.5q24 21 40.5 49.5t21.5 61.5q4 34 -5.5 64
t-29.5 51q-21 20 -50.5 31.5t-64.5 9.5l181 195h-246l-9 -63h10l8 52h210zM407 -19h14q97 190 192 377.5t192 377.5h-14q-97 -190 -192 -377.5t-192 -377.5zM871 10l-2 -10h130l2 10h-62l18 126h72l1 11h-72l49 343l-323 -354h262l-18 -126h-57zM992 459l-44 -312h-240z" />
    <glyph glyph-name="AE" unicode="&#xc6;" horiz-adv-x="775" 
d="M788 546h14l22 154h-324q-97 -173 -193 -343.5t-194 -342.5h-77l-1 -14h174l1 14h-82q44 75 86 150.5t85 151.5h147l-44 -316h338l21 154h-14l-20 -140h-310l47 332h271l2 14h-271l46 326h296zM448 330h-141q48 85 95.5 167.5t92.5 168.5z" />
    <glyph glyph-name="ae" unicode="&#xe6;" horiz-adv-x="580" 
d="M565 264q-48 -18 -95.5 -36.5t-95.5 -36.5l7 50q6 42 2 69.5t-22 43.5q16 6 32.5 9.5t34.5 3.5q50 0 86.5 -28.5t50.5 -74.5zM358 177l-10 -72q-5 -30 -20 -49.5t-36 -30.5q-21 -12 -46.5 -16.5t-50.5 -4.5q-23 0 -48 3.5t-44 13.5q-20 10 -31.5 28.5t-7.5 47.5
q4 34 30 51t59 24q32 6 63.5 5.5t47.5 -0.5h94zM192 -10q31 0 56.5 5t45.5 15q18 -9 38.5 -13.5t43.5 -4.5q39 0 75 14t65 38q-2 3 -3.5 5.5t-3.5 5.5q-28 -23 -61.5 -36t-69.5 -13q-19 0 -36.5 3.5t-32.5 10.5q26 18 38.5 43.5t17.5 64.5l7 48l210 81q-5 24 -16.5 45
t-27.5 37q-20 19 -48 30.5t-60 11.5q-21 0 -41.5 -4.5t-40.5 -12.5q-16 8 -41.5 12.5t-61.5 4.5q-16 0 -34.5 -3t-36.5 -8q-17 -5 -32.5 -11.5t-25.5 -14.5l12 -12q9 6 22.5 12.5t29.5 11.5q15 5 31.5 8t30.5 3q46 0 73 -7.5t40 -23.5q13 -15 14.5 -38.5t-2.5 -54.5l-7 -52
h-146q-29 0 -57 -4.5t-51 -16.5q-22 -11 -37.5 -29t-19.5 -45q-4 -31 4.5 -51.5t27.5 -32.5t47.5 -17t63.5 -5z" />
    <glyph glyph-name="eth" unicode="&#xf0;" horiz-adv-x="459" 
d="M76 188q5 37 23.5 70t46.5 58t62.5 39t72.5 14q37 0 68.5 -14t52.5 -39t30.5 -58t4.5 -70q-5 -38 -24 -70.5t-47 -56.5q-28 -25 -63.5 -39t-72.5 -14q-38 0 -68.5 14t-51.5 39q-21 24 -30 56.5t-4 70.5zM451 188q7 54 -1 111.5t-28 114.5t-49.5 112t-63.5 103
q20 20 40.5 39t41.5 39l-3.5 3.5l-3.5 3.5q-20 -20 -40.5 -38.5t-40.5 -38.5q-20 26 -41 48.5t-43 40.5q-2 -3 -3.5 -5t-3.5 -4q23 -20 43 -42.5t39 -45.5q-22 -20 -44 -41t-44 -41q3 -2 4.5 -4t2.5 -4q22 20 43.5 40.5t42.5 40.5q70 -97 100 -182.5t35 -142.5
q-21 40 -60.5 64t-90.5 24q-41 0 -78 -15.5t-67 -41.5t-50 -62t-26 -76q-6 -41 4.5 -76t33.5 -61q22 -27 55 -42t74 -15q40 0 78 15t68 42q30 26 50 61t26 76z" />
    <glyph glyph-name="Thorn" unicode="&#xde;" horiz-adv-x="481" 
d="M36 14l-1 -14h174l1 14h-89l23 162h112q103 0 165.5 49t74.5 132q7 48 -9 82t-43 55t-60.5 31t-62.5 10h-126l21 151h89l2 14h-174l-2 -14h71l-95 -672h-71zM146 190l47 331h116q42 0 75.5 -13.5t57.5 -35.5q23 -23 33.5 -52.5t6.5 -62.5q-4 -27 -17 -56.5t-39 -53.5
q-26 -25 -66.5 -41t-98.5 -16h-115z" />
    <glyph glyph-name="thorn" unicode="&#xfe;" horiz-adv-x="498" 
d="M-52 -236l-2 -14h173l2 14h-82l42 297q2 14 3.5 27t3.5 27q13 -54 56.5 -88.5t106.5 -34.5q40 0 77.5 15.5t67.5 41.5t50.5 61.5t26.5 76.5q6 40 -4.5 75.5t-32.5 62.5q-23 26 -56.5 41t-73.5 15q-31 0 -60.5 -9t-55.5 -25q-27 -17 -48 -40t-36 -50q2 16 5 32t5 32
l59 415h83l2 14h-174l-2 -14h77l-137 -972h-76zM459 187q-5 -38 -24 -70.5t-47 -57.5t-63 -39t-72 -14q-38 0 -68.5 14t-51.5 39t-30.5 57.5t-4.5 70.5q5 37 24 70t47 58q28 24 62.5 38t72.5 14q37 0 68 -14t52 -38q21 -25 30.5 -58t4.5 -70z" />
    <glyph glyph-name="germandbls" unicode="&#xdf;" horiz-adv-x="542" 
d="M38 14l-2 -14h97l60 430q7 49 26.5 88.5t47.5 67.5q27 28 60 43t67 15q27 0 48.5 -11t36.5 -29q14 -19 20 -43t2 -50q-3 -25 -16 -46t-32 -36q-20 -16 -44 -24.5t-50 -8.5l-1 -8q0 -2 -0.5 -3.5t-0.5 -3.5q39 0 71.5 -15t55.5 -40q22 -26 32 -59.5t5 -71.5t-25.5 -72.5
t-50.5 -60.5t-67 -41.5t-77 -15.5q-27 0 -50.5 7t-43.5 21l-7 -11q22 -15 47.5 -22.5t54.5 -7.5q42 0 81.5 16t71.5 44q31 27 52.5 64t27.5 79q5 36 -2.5 67.5t-24.5 57.5q-18 25 -44 43t-58 26q43 14 73.5 47.5t36.5 77.5q4 29 -3 55t-23 46q-17 19 -41 30.5t-53 12.5
q-38 -2 -74 -17.5t-65 -44.5t-50 -72t-29 -98l-5 -42h-65l-2 -14h65l-50 -356h-83z" />
    <glyph glyph-name="dollar" unicode="$" horiz-adv-x="567" 
d="M399 546h14l16 114q-13 13 -29.5 21t-34.5 13t-36 7.5t-34 2.5l8 60h-13l-8 -60q-45 -1 -80 -18t-59 -44t-37.5 -59.5t-16.5 -65.5q-3 -38 8 -62.5t32 -40.5q20 -17 47.5 -27.5t57.5 -19.5l-51 -361q-60 1 -99 20t-63 48l13 90h-14l-14 -100q7 -9 21 -21t36 -23
q21 -11 50.5 -19t67.5 -9l-8 -60h13l8 60q43 1 83 15t72 40q31 25 52 60t26 79q6 52 -8 85t-40 54q-26 20 -60.5 32t-69.5 23l44 310q44 -2 74 -12.5t47 -24.5zM412 182q-5 -39 -25.5 -71t-50.5 -54q-30 -23 -66.5 -36.5t-73.5 -14.5l51 357q34 -10 66.5 -21t56.5 -30
q24 -20 36.5 -51t5.5 -79zM105 530q4 30 17.5 58.5t36.5 51.5q22 22 52.5 35.5t68.5 14.5l-44 -307q-29 9 -54.5 19.5t-44.5 27.5q-19 16 -28 40t-4 60z" />
    <glyph glyph-name="cent" unicode="&#xa2;" horiz-adv-x="385" 
d="M359 47q-26 -18 -57 -28.5t-63 -10.5l51 361q31 0 57.5 -10t47.5 -27l-12 -80h14l13 89q-21 19 -52 30.5t-66 11.5l8 55h-14l-8 -56q-38 -3 -73 -19t-63 -42t-46.5 -60t-24.5 -73q-5 -39 4 -73t30 -59q20 -26 50 -42t68 -19l-8 -63h14l8 62q35 0 68 11.5t62 31.5zM85 188
q5 36 22.5 67.5t43.5 55.5q25 24 57.5 39t67.5 18l-51 -360q-35 3 -63 18t-46 39q-19 24 -27.5 55.5t-3.5 67.5z" />
    <glyph glyph-name="sterling" unicode="&#xa3;" horiz-adv-x="574" 
d="M486 0l17 123h-14l-16 -109h-359q17 14 24.5 40t12.5 55l28 202h129l2 14h-129l25 179q3 23 13 44t29 37t48.5 25.5t71.5 9.5q30 0 51 -4t37 -13q15 -9 26 -24.5t20 -39.5l11 6q-7 20 -17.5 36.5t-27.5 28.5q-17 11 -41 17.5t-57 6.5q-72 0 -120 -32t-58 -102l-25 -175
h-65l-2 -14h65l-20 -147q-6 -43 -12 -72t-13 -46q-8 -17 -19.5 -24.5t-29.5 -7.5h-44l-1 -14h460z" />
    <glyph glyph-name="yen" unicode="&#xa5;" horiz-adv-x="718" 
d="M539 100l2 14h-159l20 149h159l2 14h-150q76 103 151.5 204.5t150.5 204.5h64l2 14h-174l-2 -14h93l-286 -388l-14 -26h-1l-9 26q-40 100 -86.5 195.5t-91.5 192.5h95l2 14h-174l-2 -14h62l188 -409h-151l-2 -14h160l-20 -149h-160l-2 -14h160l-13 -86h-79l-1 -14h174
l1 14h-81l13 86h159z" />
    <glyph glyph-name="currency" unicode="&#xa4;" horiz-adv-x="500" 
d="M148 361q4 25 16.5 46.5t30.5 37.5t41 25.5t47 9.5t44.5 -9.5t34.5 -25.5q13 -16 19.5 -37.5t2.5 -46.5q-3 -25 -15.5 -46.5t-30.5 -37.5t-41 -25.5t-47 -9.5t-44.5 9.5t-34.5 25.5t-20 37.5t-3 46.5zM134 361q-3 -27 3 -49.5t20 -41.5l-47 -41l9 -10l46 41
q16 -16 37 -24t46 -8t48 8.5t43 24.5q9 -11 18 -20.5t18 -20.5l11 10l-35 41q18 18 31 41t16 49q4 25 -1.5 47t-17.5 39l43 38l-9 10l-43 -38q-15 17 -37 27t-48 10t-50.5 -9.5t-44.5 -26.5l-33 38l-11 -10q8 -10 16.5 -19t16.5 -19q-18 -18 -29.5 -40t-15.5 -47z" />
    <glyph glyph-name="exclam" unicode="!" horiz-adv-x="201" 
d="M49 36q8 0 15 6t8 14q1 9 -4 14.5t-13 5.5q-7 0 -14 -5.5t-8 -14.5q-1 -8 4 -14t12 -6zM143 750l-82 -584h14l82 584h-14z" />
    <glyph glyph-name="exclamdown" unicode="&#xa1;" horiz-adv-x="200" 
d="M204 504q-7 0 -14 -6t-8 -14q-2 -9 3.5 -14.5t12.5 -5.5q8 0 14.5 5.5t8.5 14.5q1 8 -4 14t-13 6zM179 374l-82 -584h14l82 584h-14z" />
    <glyph glyph-name="question" unicode="?" horiz-adv-x="452" 
d="M74 596q12 27 32 49.5t45 38.5t53.5 25t58.5 9q38 0 69.5 -13.5t52.5 -37.5q21 -25 30.5 -58t4.5 -72q-5 -37 -23.5 -69.5t-53.5 -59.5q-27 -21 -52.5 -35.5t-45.5 -28.5q-21 -15 -35.5 -33.5t-18.5 -49.5l-14 -97h14l11 78q5 33 14.5 52t24.5 31q14 12 32 21.5t39 23.5
q50 32 82 72.5t40 94.5q6 40 -4.5 75.5t-32.5 62.5q-23 26 -57 41.5t-75 15.5q-32 0 -63 -10t-57 -27q-27 -18 -48.5 -42.5t-35.5 -53.5q3 -1 6.5 -1.5t6.5 -1.5zM165 25q8 0 14.5 6t8.5 14q1 9 -4.5 14.5t-13.5 5.5q-7 0 -13.5 -5.5t-7.5 -14.5q-2 -8 3.5 -14t12.5 -6z" />
    <glyph glyph-name="questiondown" unicode="&#xbf;" horiz-adv-x="410" 
d="M375.009 -56.9277q-11.998 -26.9961 -31.9961 -49.4932q-19.9971 -22.4971 -44.9941 -38.4951t-53.4932 -24.9971q-28.4971 -8.99902 -58.4932 -8.99902q-37.9951 0 -69.4912 13.498t-52.4941 37.4951q-20.9971 24.9971 -30.4961 57.9932t-4.5 71.9912
q5 36.9951 23.498 69.4912q18.4971 32.4961 53.4932 59.4932q26.9971 20.9971 52.4932 35.4961q25.4971 14.498 45.4951 28.4961q20.9971 14.998 35.4951 33.4961q14.498 18.4971 18.498 49.4941l13.998 96.9873h-13.998l-10.999 -77.9902
q-4.99902 -32.9961 -14.498 -51.9932q-9.49902 -18.998 -24.4971 -30.9961q-13.998 -11.999 -31.9961 -21.498t-38.9951 -23.4971q-49.9941 -31.9961 -81.9902 -72.4912t-39.9951 -94.4883q-5.99902 -39.9951 4.5 -75.4902q10.498 -35.4961 32.4961 -62.4932
q22.9971 -25.9961 56.9922 -41.4941q33.9961 -15.498 74.9912 -15.498q31.9961 0 62.9922 9.99805q30.9961 9.99902 56.9932 26.9971q26.9971 17.998 48.4941 42.4951q21.4971 24.4961 35.4961 53.4932q-3 1 -6.5 1.5q-3.49902 0.5 -6.49902 1.49902zM284.021 514.003
q-7.99902 0 -14.499 -5.99902q-6.49902 -5.99902 -8.49805 -13.998q-1 -8.99902 4.49902 -14.499q5.49902 -5.49902 13.498 -5.49902q6.99902 0 13.499 5.49902q6.49902 5.5 7.49902 14.499q1.99902 7.99902 -3.5 13.998t-12.498 5.99902z" />
    <glyph glyph-name="comma" unicode="," horiz-adv-x="200" 
d="M141 86h-23q-27 -52 -53 -103t-53 -103h14q29 52 57.5 103t57.5 103z" />
    <glyph glyph-name="period" unicode="." horiz-adv-x="163" 
d="M66 20q-2 -8 3.5 -14t13.5 -6t14.5 6t8.5 14q1 8 -4.5 14t-13.5 6t-14.5 -6t-7.5 -14z" />
    <glyph glyph-name="colon" unicode=":" horiz-adv-x="175" 
d="M82 270q-1 -8 4 -14t13 -6t15 6t8 14q2 8 -3.5 14t-13.5 6t-14.5 -6t-8.5 -14zM47 20q-2 -8 3.5 -14t13.5 -6t14.5 6t8.5 14q1 8 -4 14t-13 6t-15 -6t-8 -14z" />
    <glyph glyph-name="semicolon" unicode=";" horiz-adv-x="201" 
d="M114 270q-2 -8 3.5 -14t13.5 -6t14.5 6t8.5 14q1 8 -4.5 14t-13.5 6t-14.5 -6t-7.5 -14zM112 86h-23q-27 -52 -53 -103t-52 -103h14q28 52 56.5 103t57.5 103z" />
    <glyph glyph-name="periodcentered" unicode="&#xb7;" horiz-adv-x="163" 
d="M66 280q-2 -8 3.5 -14t13.5 -6t14.5 6t8.5 14q1 8 -4.5 14t-13.5 6t-14.5 -6t-7.5 -14z" />
    <glyph glyph-name="bullet" unicode="&#x2022;" horiz-adv-x="479" 
d="M183 300q-2 -15 2 -27.5t13 -21.5q7 -7 18 -11.5t23 -4.5q14 0 26.5 5t22.5 13q10 9 17 21t9 26q2 13 -1 24.5t-10 20.5q-7 10 -19 15.5t-27 5.5q-14 0 -27 -5.5t-23 -14.5q-9 -9 -15.5 -21t-8.5 -25z" />
    <glyph glyph-name="underscore" unicode="_" horiz-adv-x="600" 
d="M499 0l1 14h-400l-1 -14h400z" />
    <glyph glyph-name="hyphen" unicode="-" horiz-adv-x="300" 
d="M52 184h184l1 14h-184z" />
    <glyph glyph-name="hyphen" unicode="&#xad;" horiz-adv-x="300" 
d="M52 184h184l1 14h-184z" />
    <glyph glyph-name="hyphen" unicode="&#xad;" horiz-adv-x="300" 
d="M52 184h184l1 14h-184z" />
    <glyph glyph-name="endash" unicode="&#x2013;" horiz-adv-x="509" 
d="M100 179h301l1 14h-301z" />
    <glyph glyph-name="emdash" unicode="&#x2014;" horiz-adv-x="700" 
d="M99 179h502l1 14h-502z" />
    <glyph glyph-name="quotesingle" unicode="'" horiz-adv-x="147" 
d="M49 472h14q10 63 19.5 124t19.5 124h-18z" />
    <glyph glyph-name="quotedbl" unicode="&#x22;" horiz-adv-x="293" 
d="M178 472h14q10 63 19.5 124t19.5 124h-18zM45 472h14q10 63 19.5 124t19.5 124h-18z" />
    <glyph glyph-name="quoteleft" unicode="&#x2018;" horiz-adv-x="164" 
d="M94 590q-18 20 -23 49.5t6 64.5q-5 2 -9 3.5t-9 3.5q-14 -40 -6.5 -76.5t33.5 -62.5q2 5 4 9t4 9z" />
    <glyph glyph-name="quoteright" unicode="&#x2019;" horiz-adv-x="164" 
d="M65 572q32 26 50 62.5t15 76.5q-5 -2 -10 -3.5t-10 -3.5q2 -35 -11.5 -64.5t-37.5 -49.5q1 -5 1.5 -9t2.5 -9z" />
    <glyph glyph-name="quotesinglbase" unicode="&#x201a;" horiz-adv-x="146" 
d="M26 -47q32 26 50 62.5t15 76.5q-5 -2 -10 -3.5t-10 -3.5q2 -35 -11.5 -64.5t-37.5 -49.5q1 -5 1.5 -9t2.5 -9z" />
    <glyph glyph-name="quotedblleft" unicode="&#x201c;" horiz-adv-x="249" 
d="M189 590q-18 20 -23 49.5t6 64.5q-5 2 -9 3.5t-9 3.5q-14 -40 -6.5 -76.5t33.5 -62.5q2 5 4 9t4 9zM85 590q-18 20 -23 49.5t6 64.5q-5 2 -9 3.5t-9 3.5q-14 -40 -6.5 -76.5t33.5 -62.5q2 5 4 9t4 9z" />
    <glyph glyph-name="quotedblright" unicode="&#x201d;" horiz-adv-x="248" 
d="M50 572q32 26 50 62.5t15 76.5q-5 -2 -10 -3.5t-10 -3.5q2 -35 -11.5 -64.5t-37.5 -49.5q1 -5 1.5 -9t2.5 -9zM154 572q32 26 50 62.5t15 76.5q-5 -2 -10 -3.5t-10 -3.5q2 -35 -11.5 -64.5t-37.5 -49.5q1 -5 1.5 -9t2.5 -9z" />
    <glyph glyph-name="quotedblbase" unicode="&#x201e;" horiz-adv-x="234" 
d="M26 -47q32 26 50 62.5t15 76.5q-5 -2 -10 -3.5t-10 -3.5q2 -35 -11.5 -64.5t-37.5 -49.5q1 -5 1.5 -9t2.5 -9zM130 -47q32 26 50 62.5t15 76.5q-5 -2 -10 -3.5t-10 -3.5q2 -35 -11.5 -64.5t-37.5 -49.5q1 -5 1.5 -9t2.5 -9z" />
    <glyph glyph-name="parenleft" unicode="(" horiz-adv-x="394" 
d="M147 292q-11 -75 -6.5 -143t19.5 -126t38 -105.5t50 -80.5l6 23q-24 33 -45.5 78t-35.5 100t-18 119t6 135t32 135t52 119q29 55 63 100t67 78v23q-36 -33 -72 -80.5t-67 -105.5q-32 -58 -55.5 -126t-33.5 -143z" />
    <glyph glyph-name="parenright" unicode=")" horiz-adv-x="400" 
d="M279 292q10 75 5.5 143t-19.5 126t-38 105.5t-50 80.5l-6 -23q24 -33 45.5 -78t35.5 -100t18.5 -119t-5.5 -135t-32.5 -135t-51.5 -119q-30 -55 -64 -100t-67 -78v-23q36 33 72 80.5t68 105.5q31 58 54.5 126t34.5 143z" />
    <glyph glyph-name="bracketleft" unicode="[" horiz-adv-x="338" 
d="M20 -149h163l2 14h-147l121 867h147l2 14h-163z" />
    <glyph glyph-name="bracketright" unicode="]" horiz-adv-x="342" 
d="M313 746h-163l-2 -14h147l-121 -867h-147l-2 -14h163z" />
    <glyph glyph-name="braceleft" unicode="{" horiz-adv-x="272" 
d="M91 287q18 -1 30.5 -9.5t19.5 -21.5q12 -21 13 -51t-3 -53l-20 -146q-11 -70 -7.5 -101t19.5 -42q9 -6 22.5 -8.5t29.5 -2.5h37l2 14h-57q-11 0 -19 3t-13 10q-9 11 -9 36t5 63l21 150q8 56 4.5 88t-14.5 50q-6 11 -14.5 18.5t-17.5 14.5q14 7 27 17t25 28q12 19 21.5 49
t16.5 77l21 150q5 38 12.5 62.5t19.5 36.5q7 7 16 10t20 3h57l2 14h-37q-17 0 -32.5 -1.5t-29.5 -12.5q-14 -10 -24.5 -34.5t-16.5 -69.5l-25 -182q-3 -20 -9.5 -43.5t-18.5 -43.5t-29 -33.5t-41 -14.5z" />
    <glyph glyph-name="braceright" unicode="}" horiz-adv-x="320" 
d="M355 311q-19 1 -31.5 9.5t-19.5 21.5q-16 30 -12 72.5t8 67.5l20 146q7 52 1 77t-20 33q-10 7 -23 7.5t-27 0.5h-37l-2 -14h57q12 0 20.5 -4.5t13.5 -13.5q6 -13 6 -35.5t-4 -58.5l-21 -150q-9 -59 -5.5 -91t14.5 -49q7 -12 15.5 -19t17.5 -12q-11 -5 -23.5 -14
t-24.5 -25q-13 -15 -23 -38t-14 -57l-26 -187q-5 -35 -11.5 -58.5t-16.5 -36.5q-8 -9 -17.5 -13t-22.5 -4h-57l-2 -14h37q16 0 32 1t29 11q14 11 25 35t17 71l20 146q3 17 7.5 45t14.5 55q11 28 30 48.5t51 22.5z" />
    <glyph glyph-name="guilsinglleft" unicode="&#x2039;" horiz-adv-x="392" 
d="M288 77l2 16q-30 37 -61 73t-61 73q41 36 81.5 72t81.5 72l2 17q-49 -41 -97 -80.5t-97 -80.5z" />
    <glyph glyph-name="guilsinglright" unicode="&#x203a;" horiz-adv-x="392" 
d="M119 93l-2 -16l193 162q-37 41 -74 80.5t-74 80.5l-2 -17q30 -36 60.5 -72t60.5 -72q-41 -37 -81 -73t-81 -73z" />
    <glyph glyph-name="plus" unicode="+" horiz-adv-x="543" 
d="M233 51h14l25 174h173l2 14h-173l24 172h-14l-24 -172h-173l-2 -14h173z" />
    <glyph glyph-name="plusminus" unicode="&#xb1;" horiz-adv-x="524" 
d="M269 211h14l24 174h173l2 14h-173l25 172h-14l-25 -172h-173l-2 -14h173zM446 136l1 14h-360l-1 -14h360z" />
    <glyph glyph-name="multiply" unicode="&#xd7;" horiz-adv-x="500" 
d="M385 0l11 10q-26 31 -53 61.5t-53 61.5q35 31 70 61t70 61q-2 2 -4 5t-4 5q-35 -31 -70 -61t-70 -61l-104 121l-12 -10l104 -121q-35 -31 -69.5 -61.5t-69.5 -61.5q2 -2 4.5 -5t4.5 -5q35 31 69.5 61.5t69.5 61.5q26 -31 52.5 -61.5t53.5 -61.5z" />
    <glyph glyph-name="divide" unicode="&#xf7;" horiz-adv-x="501" 
d="M428 210l1 14h-360l-1 -14h360zM248 341q-1 -8 4 -14t13 -6t15 6t8 14q2 8 -3.5 14t-13.5 6t-14.5 -6t-8.5 -14zM213 91q-2 -8 3.5 -14t13.5 -6t14.5 6t8.5 14q1 8 -4 14t-13 6t-15 -6t-8 -14z" />
    <glyph glyph-name="equal" unicode="=" horiz-adv-x="708" 
d="M593 164h-506l-2 -14h506zM620 358h-506l-2 -14h506z" />
    <glyph glyph-name="less" unicode="&#x3c;" horiz-adv-x="680" 
d="M519 1q-95 60 -189.5 118.5t-188.5 118.5q112 60 222.5 118.5t222.5 118.5l2 16q-119 -63 -237 -126.5t-236 -126.5q101 -63 201 -126.5t201 -126.5z" />
    <glyph glyph-name="greater" unicode="&#x3e;" horiz-adv-x="650" 
d="M79 -15q119 63 237 126.5t237 126.5q-102 63 -202 126.5t-201 126.5l-2 -16q95 -60 189.5 -118.5t189.5 -118.5q-112 -60 -223 -118.5t-223 -118.5z" />
    <glyph glyph-name="logicalnot" unicode="&#xac;" horiz-adv-x="559" 
d="M446 148h14l13 93h-360l-2 -14h346z" />
    <glyph glyph-name="slash" unicode="/" horiz-adv-x="322" 
d="M-36 -19h14q97 190 192 377.5t192 377.5h-14q-97 -190 -192 -377.5t-192 -377.5z" />
    <glyph glyph-name="backslash" unicode="\" horiz-adv-x="320" 
d="M84 736h-14q43 -190 85.5 -377.5t85.5 -377.5h14q-43 190 -85.5 377.5t-85.5 377.5z" />
    <glyph glyph-name="percent" unicode="%" horiz-adv-x="726" 
d="M406 112q3 19 12.5 36.5t24.5 30.5t33.5 20.5t38.5 7.5t36.5 -7.5t27.5 -20.5q11 -12 16.5 -29.5t2.5 -37.5t-12.5 -37t-24.5 -29q-15 -13 -33.5 -20.5t-38.5 -7.5q-16 0 -30 5t-25 14q-16 12 -23.5 32t-4.5 43zM487 4q22 0 43 8.5t39 23.5q17 14 28.5 34t14.5 43
q3 22 -3 42t-19 35q-13 14 -32 22.5t-41 8.5q-23 0 -44 -8.5t-38 -22.5q-17 -15 -28.5 -35t-14.5 -42q-3 -23 3 -43t19 -34q13 -15 31.5 -23.5t41.5 -8.5zM141 388q3 19 12.5 36.5t24.5 30.5t33.5 20.5t38.5 7.5q19 0 35 -7t27 -19q12 -13 18 -31t3 -38t-12.5 -37t-24.5 -29
q-15 -13 -33.5 -20.5t-38.5 -7.5q-19 0 -34.5 6.5t-26.5 17.5q-13 13 -19 31t-3 39zM222 280q22 0 43 8.5t38 23.5q17 14 29 34t15 43q3 22 -3 42t-19 35q-13 14 -32 22.5t-41 8.5q-23 0 -44 -8.5t-38 -22.5q-17 -15 -28.5 -35t-14.5 -42q-3 -23 3 -43t19 -34
q13 -15 31.5 -23.5t41.5 -8.5zM172 0h16q93 126 184.5 250t184.5 250h-16q-93 -126 -184.5 -250t-184.5 -250z" />
    <glyph glyph-name="bar" unicode="|" horiz-adv-x="219" 
d="M99 -232h14l130 932h-14z" />
    <glyph glyph-name="brokenbar" unicode="&#xa6;" horiz-adv-x="215" 
d="M116 -233l49 350h-14l-49 -350h14zM197 350l50 350h-14l-50 -350h14z" />
    <glyph glyph-name="copyright" unicode="&#xa9;" horiz-adv-x="793" 
d="M400 132q-49 0 -90 18t-69 51q-28 32 -41 75.5t-6 94.5q7 52 32.5 96.5t63.5 77.5q37 32 83 50t95 18q50 0 91.5 -18t70.5 -50q28 -33 40.5 -77.5t5.5 -96.5q-7 -51 -32.5 -94.5t-62.5 -75.5q-38 -33 -84.5 -51t-96.5 -18zM400 118q54 0 103 19t88 53t65 80.5t34 101.5
t-5 102t-42 81q-30 34 -74 53t-98 19t-103.5 -19t-88.5 -53t-65 -81t-34 -102t5.5 -101.5t43.5 -80.5q29 -34 73 -53t98 -19zM530 464h7l7 51q-17 11 -37 16.5t-43 5.5q-33 0 -64.5 -12.5t-55.5 -34.5q-25 -22 -42 -51.5t-22 -63.5q-5 -33 4 -62.5t28 -51.5q18 -22 46 -35
t61 -13q23 0 44.5 6t41.5 17l-4 5q-19 -10 -40 -15.5t-43 -5.5q-32 0 -58 12t-43 33q-18 21 -26.5 49t-3.5 60q4 32 20 60.5t40 50.5q24 21 54 33.5t62 12.5q21 0 39.5 -5t34.5 -15z" />
    <glyph glyph-name="registered" unicode="&#xae;" horiz-adv-x="801" 
d="M400 132q-49 0 -90 18t-69 51q-28 32 -41 75.5t-6 94.5q7 52 32.5 96.5t63.5 77.5q37 32 83 50t95 18q50 0 91.5 -18t70.5 -50q28 -33 40.5 -77.5t5.5 -96.5q-7 -51 -32.5 -94.5t-62.5 -75.5q-38 -33 -84.5 -51t-96.5 -18zM400 118q54 0 103 19t88 53t65 80.5t34 101.5
t-5 102t-42 81q-30 34 -74 53t-98 19t-103.5 -19t-88.5 -53t-65 -81t-34 -102t5.5 -101.5t43.5 -80.5q29 -34 73 -53t98 -19zM311 217v-7h82v7h-42l22 154h53q5 0 11 0.5t11 1.5l55 -163h43v7h-39l-52 157q36 7 57.5 28.5t26.5 54.5q3 22 -4.5 38t-19.5 27q-13 10 -29 14.5
t-30 4.5h-99l-1 -7h33l-45 -317h-33zM374 378l22 156h55q39 0 62.5 -23t18.5 -54q-2 -13 -8 -27t-18 -25q-12 -12 -31.5 -19.5t-46.5 -7.5h-54z" />
    <glyph glyph-name="degree" unicode="&#xb0;" horiz-adv-x="282" 
d="M139 498q-26 0 -42 18t-12 44t25 44t47 18t41.5 -18t11.5 -44t-24.5 -44t-46.5 -18zM71 559q-5 -32 14.5 -53.5t52.5 -21.5q16 0 30 5.5t25 14.5q12 10 20 24.5t11 30.5q5 33 -14 55t-51 22q-15 0 -29 -5t-26 -14q-13 -10 -21.5 -25t-11.5 -33z" />
    <glyph glyph-name="asterisk" unicode="*" horiz-adv-x="335" 
d="M181 575q31 17 61 33t61 33q0 2 -1.5 5l-3.5 7l-123 -64l21 131h-18l-19 -131q-26 17 -51.5 32.5t-51.5 32.5l-8 -12q26 -17 50.5 -33t50.5 -33q-30 -16 -60 -31.5t-59 -31.5l3 -7.5l3 -7.5q30 16 59.5 31.5t59.5 31.5l-18 -127h14l10 64l10 64l51 -33l51 -33q3 4 6 7.5
t5 7.5q-26 16 -51.5 32t-51.5 32z" />
    <glyph glyph-name="numbersign" unicode="#" horiz-adv-x="571" 
d="M194 407h170l-22 -84l-22 -84h-170l22 84zM258 0h14q15 57 29 112.5t29 112.5h136l3 14h-135l22 84l22 84h137q0 4 1 7t1 7h-136q15 56 29.5 111t29.5 111h-14q-15 -56 -29.5 -111t-29.5 -111h-170q15 56 29.5 111t29.5 111h-14q-15 -56 -29.5 -111t-29.5 -111h-117
q0 -4 -1 -7t-1 -7h116l-22 -84l-22 -84h-118l-3 -14h117q-15 -57 -29 -112.5t-29 -112.5h14q15 57 29 112.5t29 112.5h170q-15 -57 -29 -112.5t-29 -112.5z" />
    <glyph glyph-name="ampersand" unicode="&#x26;" horiz-adv-x="700" 
d="M480 375l-26 -188q-4 -24 -13 -46.5t-24 -42.5l-192 406q-8 17 -12.5 34.5t-4.5 35.5q0 23 11 51.5t32 53.5q21 24 52 40.5t70 16.5q32 0 62 -13t57 -30l8 13q-23 16 -54.5 29t-68.5 13q-44 0 -77.5 -17t-56.5 -43t-35 -57t-12 -59q0 -20 4 -39t13 -37l56 -117
q-39 -7 -74 -27t-61 -49q-27 -29 -42 -66.5t-15 -78.5q0 -35 12.5 -65.5t35.5 -52.5q22 -22 53 -34.5t68 -12.5q49 0 92.5 21.5t75.5 57.5l44 -91l12 8l-46 95q16 22 26 45t16 47q5 24 8 48.5t6 49.5l12 87h106l2 14h-120zM91 163q0 40 17.5 78t46.5 66q24 24 54.5 39.5
t65.5 19.5l133 -281q-29 -35 -70.5 -56.5t-89.5 -21.5q-35 0 -63.5 12t-49.5 33t-32.5 49.5t-11.5 61.5z" />
    <glyph glyph-name="at" unicode="@" horiz-adv-x="990" 
d="M309 188q5 37 24 70t47 58t62.5 39t72.5 14q37 0 68 -14t52 -39t30.5 -58t4.5 -70q-5 -38 -24 -70.5t-47 -56.5q-28 -25 -63 -39t-72 -14q-38 0 -68.5 14t-51.5 39q-21 24 -30.5 56.5t-4.5 70.5zM884 188q12 82 -9 154.5t-67 126.5t-114 85t-150 31t-158 -31t-138 -85
q-61 -54 -102 -126t-52 -154q-12 -82 9 -154t67 -126t113.5 -85t149.5 -31q66 0 125 19.5t113 53.5q-2 3 -3.5 5.5t-3.5 5.5q-51 -32 -109 -51t-120 -19q-79 0 -144.5 30t-109.5 81q-44 52 -64.5 121.5t-9.5 148.5t51 149t99 122t132.5 82t152.5 30t144.5 -30t109.5 -82
q45 -52 65 -122t9 -149q-8 -50 -22.5 -85.5t-34.5 -56.5q-17 -17 -37.5 -25t-44.5 -8h-71l51 362h-10q-6 -29 -11 -57.5t-10 -57.5q-14 54 -57.5 88.5t-105.5 34.5q-41 0 -78.5 -15.5t-67.5 -41.5t-50 -62t-26 -76q-6 -41 4.5 -76t32.5 -62q23 -26 56 -41t74 -15
q63 0 116.5 34.5t82.5 88.5q-2 -16 -4.5 -31.5t-4.5 -31.5l-8 -54h78q25 0 49.5 7t46.5 27q22 21 39 58t27 96z" />
    <glyph glyph-name="section" unicode="&#xa7;" horiz-adv-x="500" 
d="M218 311q-4 7 -5.5 16.5t-1.5 20.5q0 19 7 38.5t20 35.5q14 16 33 26.5t44 10.5q17 0 33 -5t29 -16q14 -11 22 -28t8 -39q0 -20 -8.5 -39t-22.5 -35q-15 -16 -35 -25.5t-42 -9.5q-27 0 -48.5 12t-32.5 37zM271 154q12 -25 17.5 -44.5t5.5 -32.5q0 -16 -8 -27t-20 -19
q-13 -8 -28 -15t-28 -14l6 -12q14 6 30 13.5t30 18.5q13 10 21.5 23.5t8.5 33.5q0 13 -4 32t-15 43l-49 110q13 -8 27 -12.5t29 -4.5q27 0 50 11.5t41 29.5q17 18 26.5 40.5t9.5 44.5q0 11 -2 21.5t-7 20.5q-13 28 -28.5 61.5t-28.5 65.5q-14 32 -23 59t-9 42q0 16 8 26.5
t21 19.5q12 8 26.5 14.5t28.5 14.5q-2 4 -3 7t-2 5q-15 -8 -31.5 -15.5t-29.5 -16.5q-14 -10 -22.5 -23.5t-8.5 -32.5q0 -13 6.5 -35t16.5 -47q10 -26 22 -53t23 -51q-12 8 -26.5 12t-31.5 4q-27 0 -50 -11.5t-39 -29.5q-17 -18 -26 -40t-9 -44q0 -11 2.5 -21.5t6.5 -21.5z
" />
    <glyph glyph-name="paragraph" unicode="&#xb6;" horiz-adv-x="489" 
d="M215 0l103 736h149l-103 -736h122l1 14h-108l102 722h108l2 14h-285q-34 0 -65.5 -13t-56.5 -35t-42 -52t-22 -64t3.5 -64t27.5 -52t47 -34.5t62 -12.5l-59 -423h14z" />
    <glyph glyph-name="asciicircum" unicode="^" horiz-adv-x="470" 
d="M244 660q-36 -45 -72.5 -90.5t-72.5 -90.5h16q32 38 62.5 77t62.5 77q21 -38 41.5 -77t41.5 -77h16q-24 45 -47.5 90.5t-47.5 90.5z" />
    <glyph glyph-name="asciitilde" unicode="~" horiz-adv-x="489" 
d="M270 497q14 -17 29 -27.5t35 -10.5q17 0 34 5t31 17q9 8 16 19t10 26q-3 1 -6.5 1t-6.5 1q-4 -17 -13 -27.5t-20 -16.5t-22 -8.5t-19 -2.5q-14 0 -25 6t-24 24q-14 17 -29 27.5t-35 10.5q-15 0 -29 -4t-27 -12q-12 -8 -22 -20.5t-13 -30.5q2 -1 5.5 -1t6.5 -1
q4 17 13.5 27.5t20.5 16.5q10 6 21 8.5t19 2.5q14 0 25 -6t25 -24z" />
    <glyph glyph-name="Aacute" unicode="&#xc1;" horiz-adv-x="828" 
d="M515 750h16q27 33 54 66.5t54 66.5h-16q-27 -33 -54 -66.5t-54 -66.5zM36 14l-1 -14h174l1 14h-84l171 302h322q22 -76 43 -151.5t42 -150.5h-84l-1 -14h174l1 14h-75q-51 180 -101.5 358.5t-101.5 359.5q-101 -181 -202.5 -359.5t-203.5 -358.5h-74zM304 330
q49 87 99 172t96 173q1 2 4 7.5t9 17.5l5 -25l98 -345h-311z" />
    <glyph glyph-name="Acircumflex" unicode="&#xc2;" horiz-adv-x="828" 
d="M541 931q-36 -45 -72.5 -90.5t-72.5 -90.5h16q32 38 62.5 77t62.5 77q21 -38 41.5 -77t41.5 -77h16q-24 45 -47.5 90.5t-47.5 90.5zM36 14l-1 -14h174l1 14h-84l171 302h322q22 -76 43 -151.5t42 -150.5h-84l-1 -14h174l1 14h-75q-51 180 -101.5 358.5t-101.5 359.5
q-101 -181 -202.5 -359.5t-203.5 -358.5h-74zM304 330q49 87 99 172t96 173q1 2 4 7.5t9 17.5l5 -25l98 -345h-311z" />
    <glyph glyph-name="Adieresis" unicode="&#xc4;" horiz-adv-x="828" 
d="M582 790q-1 -8 4.5 -14t13.5 -6t14.5 6t7.5 14q2 8 -3.5 14t-13.5 6t-14.5 -6t-8.5 -14zM417 790q-1 -8 4.5 -14t13.5 -6t14.5 6t7.5 14q2 8 -3.5 14t-13.5 6t-14.5 -6t-8.5 -14zM36 14l-1 -14h174l1 14h-84l171 302h322q22 -76 43 -151.5t42 -150.5h-84l-1 -14h174l1 14
h-75q-51 180 -101.5 358.5t-101.5 359.5q-101 -181 -202.5 -359.5t-203.5 -358.5h-74zM304 330q49 87 99 172t96 173q1 2 4 7.5t9 17.5l5 -25l98 -345h-311z" />
    <glyph glyph-name="Agrave" unicode="&#xc0;" horiz-adv-x="828" 
d="M36 14l-1 -14h174l1 14h-84l171 302h322q22 -76 43 -151.5t42 -150.5h-84l-1 -14h174l1 14h-75q-51 180 -101.5 358.5t-101.5 359.5q-101 -181 -202.5 -359.5t-203.5 -358.5h-74zM304 330q49 87 99 172t96 173q1 2 4 7.5t9 17.5l5 -25l98 -345h-311zM451 883h-15
q17 -33 34.5 -66.5t35.5 -66.5h16q-18 33 -35.5 66.5t-35.5 66.5z" />
    <glyph glyph-name="Aring" unicode="&#xc5;" horiz-adv-x="828" 
d="M36 14l-1 -14h174l1 14h-84l171 302h322q22 -76 43 -151.5t42 -150.5h-84l-1 -14h174l1 14h-75q-51 180 -101.5 358.5t-101.5 359.5q-101 -181 -202.5 -359.5t-203.5 -358.5h-74zM304 330q49 87 99 172t96 173q1 2 4 7.5t9 17.5l5 -25l98 -345h-311zM475 834
q2 20 18.5 34.5t36.5 14.5t32.5 -14.5t10.5 -34.5q-3 -20 -19.5 -34.5t-36.5 -14.5t-32.5 14.5t-9.5 34.5zM461 834q-5 -27 11 -45t43 -18t47 18t25 45q4 27 -12 45t-43 18t-47 -18t-24 -45z" />
    <glyph glyph-name="Atilde" unicode="&#xc3;" horiz-adv-x="828" 
d="M511 790q14 -17 29 -27.5t35 -10.5q17 0 34 5t31 17q9 8 16 19t10 26q-3 1 -6.5 1t-6.5 1q-4 -17 -13 -27.5t-20 -16.5t-22 -8.5t-19 -2.5q-14 0 -25 6t-24 24q-14 17 -29 27.5t-35 10.5q-15 0 -29 -4t-27 -12q-12 -8 -22 -20.5t-13 -30.5q2 -1 5.5 -1t6.5 -1
q4 17 13.5 27.5t20.5 16.5q10 6 21 8.5t19 2.5q14 0 25 -6t25 -24zM36 14l-1 -14h174l1 14h-84l171 302h322q22 -76 43 -151.5t42 -150.5h-84l-1 -14h174l1 14h-75q-51 180 -101.5 358.5t-101.5 359.5q-101 -181 -202.5 -359.5t-203.5 -358.5h-74zM304 330q49 87 99 172
t96 173q1 2 4 7.5t9 17.5l5 -25l98 -345h-311z" />
    <glyph glyph-name="Ccedilla" unicode="&#xc7;" horiz-adv-x="610" 
d="M660 484h14l24 174q-37 24 -81 37t-95 13q-74 0 -143 -28.5t-124 -77.5q-55 -48 -92.5 -113.5t-47.5 -139.5q-10 -72 7.5 -136t57.5 -112t98.5 -76.5t129.5 -31.5l-1 -9q-3 -20 8.5 -31t25.5 -21q14 -11 25 -26t7 -43q-3 -16 -10 -29.5t-18 -22.5q-11 -10 -24.5 -15
t-28.5 -5q-25 0 -40.5 13.5t-18.5 34.5l-15 -4q5 -29 26 -43.5t47 -14.5q17 0 33 6t30 18q12 11 21 29t13 43q2 14 -5.5 32.5t-27.5 33.5q-10 7 -20.5 15t-12.5 25q-1 2 -1 5.5t1 7.5q51 0 98 13.5t91 36.5l-8 12q-42 -23 -88 -35.5t-94 -12.5q-70 0 -128.5 27t-98.5 73
q-39 47 -57 109t-8 133t45.5 134t89.5 110q53 47 119 74.5t137 27.5q46 0 87 -11t76 -34z" />
    <glyph glyph-name="Eacute" unicode="&#xc9;" horiz-adv-x="571" 
d="M36 14l-1 -14h501l21 154h-14l-20 -140h-391l47 332h352l2 14h-352l46 326h377l-20 -140h14l22 154h-487l-2 -14h82l-95 -672h-82zM400 750h16q27 33 54 66.5t54 66.5h-16q-27 -33 -54 -66.5t-54 -66.5z" />
    <glyph glyph-name="Ecircumflex" unicode="&#xca;" horiz-adv-x="571" 
d="M36 14l-1 -14h501l21 154h-14l-20 -140h-391l47 332h352l2 14h-352l46 326h377l-20 -140h14l22 154h-487l-2 -14h82l-95 -672h-82zM423 931q-36 -45 -72.5 -90.5t-72.5 -90.5h16q32 38 62.5 77t62.5 77q21 -38 41.5 -77t41.5 -77h16q-24 45 -47.5 90.5t-47.5 90.5z" />
    <glyph glyph-name="Edieresis" unicode="&#xcb;" horiz-adv-x="571" 
d="M36 14l-1 -14h501l21 154h-14l-20 -140h-391l47 332h352l2 14h-352l46 326h377l-20 -140h14l22 154h-487l-2 -14h82l-95 -672h-82zM460 790q-1 -8 4.5 -14t13.5 -6t14.5 6t7.5 14q2 8 -3.5 14t-13.5 6t-14.5 -6t-8.5 -14zM295 790q-1 -8 4.5 -14t13.5 -6t14.5 6t7.5 14
q2 8 -3.5 14t-13.5 6t-14.5 -6t-8.5 -14z" />
    <glyph glyph-name="Egrave" unicode="&#xc8;" horiz-adv-x="571" 
d="M36 14l-1 -14h501l21 154h-14l-20 -140h-391l47 332h352l2 14h-352l46 326h377l-20 -140h14l22 154h-487l-2 -14h82l-95 -672h-82zM327 883h-15q17 -33 34.5 -66.5t35.5 -66.5h16q-18 33 -35.5 66.5t-35.5 66.5z" />
    <glyph glyph-name="Eth" unicode="&#xd0;" horiz-adv-x="632" 
d="M94 360l-2 -14h64l-47 -332h-73l-1 -14h176q106 0 184 32.5t131 83.5t82 113t38 121q11 80 -8 145t-60 111q-42 45 -102.5 69.5t-132.5 24.5h-210l-2 -14h73l-46 -326h-64zM218 686h129q67 0 124.5 -23.5t97.5 -66.5q39 -44 57 -106.5t7 -139.5q-8 -57 -36 -116t-78 -108
q-51 -49 -124.5 -80t-172.5 -31h-98l46 331h224l2 14h-224z" />
    <glyph glyph-name="Iacute" unicode="&#xcd;" 
d="M36 14l-1 -14h174l1 14h-83l95 672h83l2 14h-174l-2 -14h77l-95 -672h-77zM220 750h16q27 33 54 66.5t54 66.5h-16q-27 -33 -54 -66.5t-54 -66.5z" />
    <glyph glyph-name="Icircumflex" unicode="&#xce;" 
d="M36 14l-1 -14h174l1 14h-83l95 672h83l2 14h-174l-2 -14h77l-95 -672h-77zM252 931q-36 -45 -72.5 -90.5t-72.5 -90.5h16q32 38 62.5 77t62.5 77q21 -38 41.5 -77t41.5 -77h16q-24 45 -47.5 90.5t-47.5 90.5z" />
    <glyph glyph-name="Idieresis" unicode="&#xcf;" 
d="M36 14l-1 -14h174l1 14h-83l95 672h83l2 14h-174l-2 -14h77l-95 -672h-77zM298 790q-1 -8 4.5 -14t13.5 -6t14.5 6t7.5 14q2 8 -3.5 14t-13.5 6t-14.5 -6t-8.5 -14zM133 790q-1 -8 4.5 -14t13.5 -6t14.5 6t7.5 14q2 8 -3.5 14t-13.5 6t-14.5 -6t-8.5 -14z" />
    <glyph glyph-name="Igrave" unicode="&#xcc;" 
d="M36 14l-1 -14h174l1 14h-83l95 672h83l2 14h-174l-2 -14h77l-95 -672h-77zM149 883h-15q17 -33 34.5 -66.5t35.5 -66.5h16q-18 33 -35.5 66.5t-35.5 66.5z" />
    <glyph glyph-name="Ntilde" unicode="&#xd1;" horiz-adv-x="802" 
d="M723 -32l100 718h82l2 14h-174l-2 -14h78l-91 -652l-2 -32l-15 26l-461 672h-103l-2 -14h77l-94 -672h-77l-2 -14h174l2 14h-83l91 650l2 26l15 -20zM511 790q14 -17 29 -27.5t35 -10.5q17 0 34 5t31 17q9 8 16 19t10 26q-3 1 -6.5 1t-6.5 1q-4 -17 -13 -27.5t-20 -16.5
t-22 -8.5t-19 -2.5q-14 0 -25 6t-24 24q-14 17 -29 27.5t-35 10.5q-15 0 -29 -4t-27 -12q-12 -8 -22 -20.5t-13 -30.5q2 -1 5.5 -1t6.5 -1q4 17 13.5 27.5t20.5 16.5q10 6 21 8.5t19 2.5q14 0 25 -6t25 -24z" />
    <glyph glyph-name="Oacute" unicode="&#xd3;" horiz-adv-x="786" 
d="M85 349q-11 -74 8 -139t61 -113q42 -49 103 -77t135 -28t143.5 28t125.5 77q55 48 92 113t48 139q10 74 -9 139.5t-61 114.5q-42 48 -103.5 76.5t-135.5 28.5t-143 -28.5t-124 -76.5q-55 -49 -92.5 -114.5t-47.5 -139.5zM99 348q10 71 45.5 134t89.5 110q53 47 119 74.5
t137 27.5t130 -27.5t100 -74.5q40 -47 58.5 -109.5t8.5 -133.5t-46.5 -133.5t-90.5 -108.5q-54 -47 -121.5 -74t-138.5 -27q-70 0 -128 27t-97 74q-40 46 -58 108t-8 133zM499 750h16q27 33 54 66.5t54 66.5h-16q-27 -33 -54 -66.5t-54 -66.5z" />
    <glyph glyph-name="Ocircumflex" unicode="&#xd4;" horiz-adv-x="786" 
d="M85 349q-11 -74 8 -139t61 -113q42 -49 103 -77t135 -28t143.5 28t125.5 77q55 48 92 113t48 139q10 74 -9 139.5t-61 114.5q-42 48 -103.5 76.5t-135.5 28.5t-143 -28.5t-124 -76.5q-55 -49 -92.5 -114.5t-47.5 -139.5zM99 348q10 71 45.5 134t89.5 110q53 47 119 74.5
t137 27.5t130 -27.5t100 -74.5q40 -47 58.5 -109.5t8.5 -133.5t-46.5 -133.5t-90.5 -108.5q-54 -47 -121.5 -74t-138.5 -27q-70 0 -128 27t-97 74q-40 46 -58 108t-8 133zM524 931q-36 -45 -72.5 -90.5t-72.5 -90.5h16q32 38 62.5 77t62.5 77q21 -38 41.5 -77t41.5 -77h16
q-24 45 -47.5 90.5t-47.5 90.5z" />
    <glyph glyph-name="Odieresis" unicode="&#xd6;" horiz-adv-x="786" 
d="M85 349q-11 -74 8 -139t61 -113q42 -49 103 -77t135 -28t143.5 28t125.5 77q55 48 92 113t48 139q10 74 -9 139.5t-61 114.5q-42 48 -103.5 76.5t-135.5 28.5t-143 -28.5t-124 -76.5q-55 -49 -92.5 -114.5t-47.5 -139.5zM99 348q10 71 45.5 134t89.5 110q53 47 119 74.5
t137 27.5t130 -27.5t100 -74.5q40 -47 58.5 -109.5t8.5 -133.5t-46.5 -133.5t-90.5 -108.5q-54 -47 -121.5 -74t-138.5 -27q-70 0 -128 27t-97 74q-40 46 -58 108t-8 133zM562 790q-1 -8 4.5 -14t13.5 -6t14.5 6t7.5 14q2 8 -3.5 14t-13.5 6t-14.5 -6t-8.5 -14zM397 790
q-1 -8 4.5 -14t13.5 -6t14.5 6t7.5 14q2 8 -3.5 14t-13.5 6t-14.5 -6t-8.5 -14z" />
    <glyph glyph-name="Ograve" unicode="&#xd2;" horiz-adv-x="786" 
d="M85 349q-11 -74 8 -139t61 -113q42 -49 103 -77t135 -28t143.5 28t125.5 77q55 48 92 113t48 139q10 74 -9 139.5t-61 114.5q-42 48 -103.5 76.5t-135.5 28.5t-143 -28.5t-124 -76.5q-55 -49 -92.5 -114.5t-47.5 -139.5zM99 348q10 71 45.5 134t89.5 110q53 47 119 74.5
t137 27.5t130 -27.5t100 -74.5q40 -47 58.5 -109.5t8.5 -133.5t-46.5 -133.5t-90.5 -108.5q-54 -47 -121.5 -74t-138.5 -27q-70 0 -128 27t-97 74q-40 46 -58 108t-8 133zM446 883h-15q17 -33 34.5 -66.5t35.5 -66.5h16q-18 33 -35.5 66.5t-35.5 66.5z" />
    <glyph glyph-name="Oslash" unicode="&#xd8;" horiz-adv-x="786" 
d="M99 348q10 71 45.5 134t89.5 110q53 47 119 74.5t137 27.5q59 0 109.5 -19t89.5 -53q-130 -133 -257.5 -263.5t-257.5 -263.5q-45 47 -65.5 112t-9.5 141zM390 6q-63 0 -115.5 21.5t-92.5 59.5q130 133 257.5 264t257.5 264q51 -48 76 -117t14 -149q-10 -71 -46.5 -133.5
t-90.5 -108.5q-54 -47 -121.5 -74t-138.5 -27zM85 349q-11 -79 10.5 -147t69.5 -117q-21 -21 -41.5 -42.5t-41.5 -42.5l4 -4l4 -4q20 21 41 42.5t41 42.5q42 -40 98 -62.5t122 -22.5q74 0 143.5 28t125.5 77q55 48 92 113t48 139q11 84 -14 155.5t-78 121.5q18 19 35.5 37
t36.5 37l-8 8l-72 -75q-42 35 -94.5 55t-114.5 20q-74 0 -143 -28.5t-124 -76.5q-55 -49 -92.5 -114.5t-47.5 -139.5z" />
    <glyph glyph-name="Otilde" unicode="&#xd5;" horiz-adv-x="786" 
d="M85 349q-11 -74 8 -139t61 -113q42 -49 103 -77t135 -28t143.5 28t125.5 77q55 48 92 113t48 139q10 74 -9 139.5t-61 114.5q-42 48 -103.5 76.5t-135.5 28.5t-143 -28.5t-124 -76.5q-55 -49 -92.5 -114.5t-47.5 -139.5zM99 348q10 71 45.5 134t89.5 110q53 47 119 74.5
t137 27.5t130 -27.5t100 -74.5q40 -47 58.5 -109.5t8.5 -133.5t-46.5 -133.5t-90.5 -108.5q-54 -47 -121.5 -74t-138.5 -27q-70 0 -128 27t-97 74q-40 46 -58 108t-8 133zM492 790q14 -17 29 -27.5t35 -10.5q17 0 34 5t31 17q9 8 16 19t10 26q-3 1 -6.5 1t-6.5 1
q-4 -17 -13 -27.5t-20 -16.5t-22 -8.5t-19 -2.5q-14 0 -25 6t-24 24q-14 17 -29 27.5t-35 10.5q-15 0 -29 -4t-27 -12q-12 -8 -22 -20.5t-13 -30.5q2 -1 5.5 -1t6.5 -1q4 17 13.5 27.5t20.5 16.5q10 6 21 8.5t19 2.5q14 0 25 -6t25 -24z" />
    <glyph glyph-name="Uacute" unicode="&#xda;" horiz-adv-x="674" 
d="M134 700l-2 -14h77l-65 -460q-8 -57 3 -101t37 -73q26 -30 65.5 -45t87.5 -15t91 15t78 45q34 29 57 73t31 101l65 460h77l2 14h-174l-2 -14h83l-64 -457q-8 -54 -29.5 -95.5t-53.5 -69.5q-33 -29 -74 -43.5t-86 -14.5q-46 0 -82.5 14.5t-60.5 43.5q-24 28 -34 69.5
t-2 95.5l64 457h83l2 14h-174zM437 750h16q27 33 54 66.5t54 66.5h-16q-27 -33 -54 -66.5t-54 -66.5z" />
    <glyph glyph-name="Ucircumflex" unicode="&#xdb;" horiz-adv-x="674" 
d="M134 700l-2 -14h77l-65 -460q-8 -57 3 -101t37 -73q26 -30 65.5 -45t87.5 -15t91 15t78 45q34 29 57 73t31 101l65 460h77l2 14h-174l-2 -14h83l-64 -457q-8 -54 -29.5 -95.5t-53.5 -69.5q-33 -29 -74 -43.5t-86 -14.5q-46 0 -82.5 14.5t-60.5 43.5q-24 28 -34 69.5
t-2 95.5l64 457h83l2 14h-174zM468 931q-36 -45 -72.5 -90.5t-72.5 -90.5h16q32 38 62.5 77t62.5 77q21 -38 41.5 -77t41.5 -77h16q-24 45 -47.5 90.5t-47.5 90.5z" />
    <glyph glyph-name="Udieresis" unicode="&#xdc;" horiz-adv-x="674" 
d="M134 700l-2 -14h77l-65 -460q-8 -57 3 -101t37 -73q26 -30 65.5 -45t87.5 -15t91 15t78 45q34 29 57 73t31 101l65 460h77l2 14h-174l-2 -14h83l-64 -457q-8 -54 -29.5 -95.5t-53.5 -69.5q-33 -29 -74 -43.5t-86 -14.5q-46 0 -82.5 14.5t-60.5 43.5q-24 28 -34 69.5
t-2 95.5l64 457h83l2 14h-174zM509 791q-1 -8 4.5 -14t13.5 -6t14.5 6t7.5 14q2 8 -3.5 14t-13.5 6t-14.5 -6t-8.5 -14zM344 791q-1 -8 4.5 -14t13.5 -6t14.5 6t7.5 14q2 8 -3.5 14t-13.5 6t-14.5 -6t-8.5 -14z" />
    <glyph glyph-name="Ugrave" unicode="&#xd9;" horiz-adv-x="674" 
d="M134 700l-2 -14h77l-65 -460q-8 -57 3 -101t37 -73q26 -30 65.5 -45t87.5 -15t91 15t78 45q34 29 57 73t31 101l65 460h77l2 14h-174l-2 -14h83l-64 -457q-8 -54 -29.5 -95.5t-53.5 -69.5q-33 -29 -74 -43.5t-86 -14.5q-46 0 -82.5 14.5t-60.5 43.5q-24 28 -34 69.5
t-2 95.5l64 457h83l2 14h-174zM384 883h-15q17 -33 34.5 -66.5t35.5 -66.5h16q-18 33 -35.5 66.5t-35.5 66.5z" />
    <glyph glyph-name="Yacute" unicode="&#xdd;" horiz-adv-x="718" 
d="M274 14l-1 -14h174l1 14h-81l35 248q78 106 156.5 211.5t156.5 212.5h64l2 14h-174l-2 -14h93l-286 -388l-14 -26h-1l-9 26q-43 98 -88 194t-90 194h95l2 14h-174l-2 -14h62q49 -106 97.5 -212t97.5 -212l-35 -248h-79zM474 750h16q27 33 54 66.5t54 66.5h-16
q-27 -33 -54 -66.5t-54 -66.5z" />
    <glyph glyph-name="aacute" unicode="&#xe1;" horiz-adv-x="532" 
d="M62 188q-6 -41 4.5 -76t33.5 -61q22 -27 55 -42t74 -15q44 0 83.5 17t69.5 46q14 13 25.5 28t20.5 32q-2 -16 -5 -31.5t-5 -31.5l-8 -54h87l2 14h-73l51 361h-10q-5 -29 -10.5 -57.5t-9.5 -57.5q-7 27 -22 49.5t-36 39.5q-22 16 -48.5 25t-57.5 9q-41 0 -78 -15.5
t-67 -41.5t-50 -62t-26 -76zM76 188q5 37 23.5 70t46.5 58t62.5 39t72.5 14q37 0 68.5 -14t52.5 -39t30.5 -58t4.5 -70q-5 -38 -24 -70.5t-47 -56.5q-28 -25 -63.5 -39t-72.5 -14q-38 0 -68.5 14t-51.5 39q-21 24 -30 56.5t-4 70.5zM325 479h16q27 33 54 66.5t54 66.5h-16
q-27 -33 -54 -66.5t-54 -66.5z" />
    <glyph glyph-name="acircumflex" unicode="&#xe2;" horiz-adv-x="532" 
d="M62 188q-6 -41 4.5 -76t33.5 -61q22 -27 55 -42t74 -15q44 0 83.5 17t69.5 46q14 13 25.5 28t20.5 32q-2 -16 -5 -31.5t-5 -31.5l-8 -54h87l2 14h-73l51 361h-10q-5 -29 -10.5 -57.5t-9.5 -57.5q-7 27 -22 49.5t-36 39.5q-22 16 -48.5 25t-57.5 9q-41 0 -78 -15.5
t-67 -41.5t-50 -62t-26 -76zM76 188q5 37 23.5 70t46.5 58t62.5 39t72.5 14q37 0 68.5 -14t52.5 -39t30.5 -58t4.5 -70q-5 -38 -24 -70.5t-47 -56.5q-28 -25 -63.5 -39t-72.5 -14q-38 0 -68.5 14t-51.5 39q-21 24 -30 56.5t-4 70.5zM350 660q-36 -45 -72.5 -90.5
t-72.5 -90.5h16q32 38 62.5 77t62.5 77q21 -38 41.5 -77t41.5 -77h16q-24 45 -47.5 90.5t-47.5 90.5z" />
    <glyph glyph-name="adieresis" unicode="&#xe4;" horiz-adv-x="532" 
d="M62 188q-6 -41 4.5 -76t33.5 -61q22 -27 55 -42t74 -15q44 0 83.5 17t69.5 46q14 13 25.5 28t20.5 32q-2 -16 -5 -31.5t-5 -31.5l-8 -54h87l2 14h-73l51 361h-10q-5 -29 -10.5 -57.5t-9.5 -57.5q-7 27 -22 49.5t-36 39.5q-22 16 -48.5 25t-57.5 9q-41 0 -78 -15.5
t-67 -41.5t-50 -62t-26 -76zM76 188q5 37 23.5 70t46.5 58t62.5 39t72.5 14q37 0 68.5 -14t52.5 -39t30.5 -58t4.5 -70q-5 -38 -24 -70.5t-47 -56.5q-28 -25 -63.5 -39t-72.5 -14q-38 0 -68.5 14t-51.5 39q-21 24 -30 56.5t-4 70.5zM377 500q-1 -8 4.5 -14t13.5 -6t14.5 6
t7.5 14q2 8 -3.5 14t-13.5 6t-14.5 -6t-8.5 -14zM212 500q-1 -8 4.5 -14t13.5 -6t14.5 6t7.5 14q2 8 -3.5 14t-13.5 6t-14.5 -6t-8.5 -14z" />
    <glyph glyph-name="agrave" unicode="&#xe0;" horiz-adv-x="532" 
d="M62 188q-6 -41 4.5 -76t33.5 -61q22 -27 55 -42t74 -15q44 0 83.5 17t69.5 46q14 13 25.5 28t20.5 32q-2 -16 -5 -31.5t-5 -31.5l-8 -54h87l2 14h-73l51 361h-10q-5 -29 -10.5 -57.5t-9.5 -57.5q-7 27 -22 49.5t-36 39.5q-22 16 -48.5 25t-57.5 9q-41 0 -78 -15.5
t-67 -41.5t-50 -62t-26 -76zM76 188q5 37 23.5 70t46.5 58t62.5 39t72.5 14q37 0 68.5 -14t52.5 -39t30.5 -58t4.5 -70q-5 -38 -24 -70.5t-47 -56.5q-28 -25 -63.5 -39t-72.5 -14q-38 0 -68.5 14t-51.5 39q-21 24 -30 56.5t-4 70.5zM230 612h-15q17 -33 34.5 -66.5
t35.5 -66.5h16q-18 33 -35.5 66.5t-35.5 66.5z" />
    <glyph glyph-name="aring" unicode="&#xe5;" horiz-adv-x="532" 
d="M62 188q-6 -41 4.5 -76t33.5 -61q22 -27 55 -42t74 -15q44 0 83.5 17t69.5 46q14 13 25.5 28t20.5 32q-2 -16 -5 -31.5t-5 -31.5l-8 -54h87l2 14h-73l51 361h-10q-5 -29 -10.5 -57.5t-9.5 -57.5q-7 27 -22 49.5t-36 39.5q-22 16 -48.5 25t-57.5 9q-41 0 -78 -15.5
t-67 -41.5t-50 -62t-26 -76zM76 188q5 37 23.5 70t46.5 58t62.5 39t72.5 14q37 0 68.5 -14t52.5 -39t30.5 -58t4.5 -70q-5 -38 -24 -70.5t-47 -56.5q-28 -25 -63.5 -39t-72.5 -14q-38 0 -68.5 14t-51.5 39q-21 24 -30 56.5t-4 70.5zM260 540q2 20 18.5 34.5t36.5 14.5
t32.5 -14.5t10.5 -34.5q-3 -20 -19.5 -34.5t-36.5 -14.5t-32.5 14.5t-9.5 34.5zM246 540q-5 -27 11 -45t43 -18t47 18t25 45q4 27 -12 45t-43 18t-47 -18t-24 -45z" />
    <glyph glyph-name="atilde" unicode="&#xe3;" horiz-adv-x="532" 
d="M62 188q-6 -41 4.5 -76t33.5 -61q22 -27 55 -42t74 -15q44 0 83.5 17t69.5 46q14 13 25.5 28t20.5 32q-2 -16 -5 -31.5t-5 -31.5l-8 -54h87l2 14h-73l51 361h-10q-5 -29 -10.5 -57.5t-9.5 -57.5q-7 27 -22 49.5t-36 39.5q-22 16 -48.5 25t-57.5 9q-41 0 -78 -15.5
t-67 -41.5t-50 -62t-26 -76zM76 188q5 37 23.5 70t46.5 58t62.5 39t72.5 14q37 0 68.5 -14t52.5 -39t30.5 -58t4.5 -70q-5 -38 -24 -70.5t-47 -56.5q-28 -25 -63.5 -39t-72.5 -14q-38 0 -68.5 14t-51.5 39q-21 24 -30 56.5t-4 70.5zM291 497q14 -17 29 -27.5t35 -10.5
q17 0 34 5t31 17q9 8 16 19t10 26q-3 1 -6.5 1t-6.5 1q-4 -17 -13 -27.5t-20 -16.5t-22 -8.5t-19 -2.5q-14 0 -25 6t-24 24q-14 17 -29 27.5t-35 10.5q-15 0 -29 -4t-27 -12q-12 -8 -22 -20.5t-13 -30.5q2 -1 5.5 -1t6.5 -1q4 17 13.5 27.5t20.5 16.5q10 6 21 8.5t19 2.5
q14 0 25 -6t25 -24z" />
    <glyph glyph-name="ccedilla" unicode="&#xe7;" horiz-adv-x="387" 
d="M337 47q-26 -18 -56.5 -28.5t-62.5 -10.5q-38 0 -68.5 14t-51.5 39q-21 24 -30 56.5t-4 70.5q5 37 23.5 70t46.5 58t62.5 39t72.5 14q31 0 57 -10t47 -27l-11 -80h14l12 88q-22 20 -52 31.5t-65 11.5q-41 0 -78 -15.5t-67 -41.5t-50 -62t-26 -76t4 -75t32 -61
q22 -27 54.5 -42t71.5 -16l-1 -10q-3 -20 8.5 -31t25.5 -21q14 -11 25 -26t7 -43q-3 -16 -10.5 -30t-18.5 -23q-10 -9 -23 -14t-28 -5q-14 0 -25 4.5t-19 11.5q-6 6 -10 14t-5 18l-16 -4q3 -14 9 -24t14 -17q10 -8 22.5 -12.5t27.5 -4.5q16 0 31 5t28 15q14 11 24 30t14 46
q2 14 -5 32.5t-27 33.5q-7 5 -16 11.5t-15 15.5q-3 6 -3.5 13t0.5 16q23 0 54.5 10t64.5 32z" />
    <glyph glyph-name="eacute" unicode="&#xe9;" horiz-adv-x="435" 
d="M281 369q50 0 86.5 -28.5t50.5 -74.5q-86 -33 -171 -65.5t-172 -65.5q-6 43 8.5 85t43.5 75t69 53.5t85 20.5zM435 259q-6 26 -18.5 48t-30.5 38q-20 18 -46.5 28t-56.5 10q-41 0 -78 -15.5t-67 -41.5t-50 -62t-26 -76q-6 -41 4.5 -76t33.5 -62q22 -26 55 -41t74 -15
q39 0 74.5 14t65.5 38q-2 3 -4 5.5t-4 5.5q-27 -23 -61 -36t-70 -13q-58 0 -98.5 31.5t-53.5 82.5q90 35 178.5 68.5t178.5 68.5zM287 479h16q27 33 54 66.5t54 66.5h-16q-27 -33 -54 -66.5t-54 -66.5z" />
    <glyph glyph-name="ecircumflex" unicode="&#xea;" horiz-adv-x="435" 
d="M281 369q50 0 86.5 -28.5t50.5 -74.5q-86 -33 -171 -65.5t-172 -65.5q-6 43 8.5 85t43.5 75t69 53.5t85 20.5zM435 259q-6 26 -18.5 48t-30.5 38q-20 18 -46.5 28t-56.5 10q-41 0 -78 -15.5t-67 -41.5t-50 -62t-26 -76q-6 -41 4.5 -76t33.5 -62q22 -26 55 -41t74 -15
q39 0 74.5 14t65.5 38q-2 3 -4 5.5t-4 5.5q-27 -23 -61 -36t-70 -13q-58 0 -98.5 31.5t-53.5 82.5q90 35 178.5 68.5t178.5 68.5zM327 660q-36 -45 -72.5 -90.5t-72.5 -90.5h16q32 38 62.5 77t62.5 77q21 -38 41.5 -77t41.5 -77h16q-24 45 -47.5 90.5t-47.5 90.5z" />
    <glyph glyph-name="edieresis" unicode="&#xeb;" horiz-adv-x="435" 
d="M281 369q50 0 86.5 -28.5t50.5 -74.5q-86 -33 -171 -65.5t-172 -65.5q-6 43 8.5 85t43.5 75t69 53.5t85 20.5zM435 259q-6 26 -18.5 48t-30.5 38q-20 18 -46.5 28t-56.5 10q-41 0 -78 -15.5t-67 -41.5t-50 -62t-26 -76q-6 -41 4.5 -76t33.5 -62q22 -26 55 -41t74 -15
q39 0 74.5 14t65.5 38q-2 3 -4 5.5t-4 5.5q-27 -23 -61 -36t-70 -13q-58 0 -98.5 31.5t-53.5 82.5q90 35 178.5 68.5t178.5 68.5zM299 500q-1 -8 4.5 -14t13.5 -6t14.5 6t7.5 14q2 8 -3.5 14t-13.5 6t-14.5 -6t-8.5 -14zM134 500q-1 -8 4.5 -14t13.5 -6t14.5 6t7.5 14
q2 8 -3.5 14t-13.5 6t-14.5 -6t-8.5 -14z" />
    <glyph glyph-name="egrave" unicode="&#xe8;" horiz-adv-x="435" 
d="M281 369q50 0 86.5 -28.5t50.5 -74.5q-86 -33 -171 -65.5t-172 -65.5q-6 43 8.5 85t43.5 75t69 53.5t85 20.5zM435 259q-6 26 -18.5 48t-30.5 38q-20 18 -46.5 28t-56.5 10q-41 0 -78 -15.5t-67 -41.5t-50 -62t-26 -76q-6 -41 4.5 -76t33.5 -62q22 -26 55 -41t74 -15
q39 0 74.5 14t65.5 38q-2 3 -4 5.5t-4 5.5q-27 -23 -61 -36t-70 -13q-58 0 -98.5 31.5t-53.5 82.5q90 35 178.5 68.5t178.5 68.5zM185 612h-15q17 -33 34.5 -66.5t35.5 -66.5h16q-18 33 -35.5 66.5t-35.5 66.5z" />
    <glyph glyph-name="iacute" unicode="&#xed;" 
d="M36 14l-1 -14h174l1 14h-78l51 361h-96l-2 -14h82l-49 -347h-82zM187 479h16q27 33 54 66.5t54 66.5h-16q-27 -33 -54 -66.5t-54 -66.5z" />
    <glyph glyph-name="icircumflex" unicode="&#xee;" 
d="M36 14l-1 -14h174l1 14h-78l51 361h-96l-2 -14h82l-49 -347h-82zM203 660q-36 -45 -72.5 -90.5t-72.5 -90.5h16q32 38 62.5 77t62.5 77q21 -38 41.5 -77t41.5 -77h16q-24 45 -47.5 90.5t-47.5 90.5z" />
    <glyph glyph-name="idieresis" unicode="&#xef;" 
d="M36 14l-1 -14h174l1 14h-78l51 361h-96l-2 -14h82l-49 -347h-82zM247 500q-1 -8 4.5 -14t13.5 -6t14.5 6t7.5 14q2 8 -3.5 14t-13.5 6t-14.5 -6t-8.5 -14zM82 500q-1 -8 4.5 -14t13.5 -6t14.5 6t7.5 14q2 8 -3.5 14t-13.5 6t-14.5 -6t-8.5 -14z" />
    <glyph glyph-name="igrave" unicode="&#xec;" 
d="M36 14l-1 -14h174l1 14h-78l51 361h-96l-2 -14h82l-49 -347h-82zM119 612h-15q17 -33 34.5 -66.5t35.5 -66.5h16q-18 33 -35.5 66.5t-35.5 66.5z" />
    <glyph glyph-name="ntilde" unicode="&#xf1;" horiz-adv-x="522" 
d="M314 14l-1 -14h174l1 14h-81l36 256q6 50 -20.5 81t-79.5 31q-57 0 -105 -29t-75 -76q2 13 3 22.5t3 22.5l5 53h-83l-2 -14h75l-49 -347h-79l-1 -14h174l1 14h-81l29 206q5 32 22.5 59.5t43.5 47.5q26 19 58 30t66 11q44 -2 65 -28.5t17 -62.5l-37 -263h-79zM321 487
q14 -17 29 -27.5t35 -10.5q17 0 34 5t31 17q9 8 16 19t10 26q-3 1 -6.5 1t-6.5 1q-4 -17 -13 -27.5t-20 -16.5t-22 -8.5t-19 -2.5q-14 0 -25 6t-24 24q-14 17 -29 27.5t-35 10.5q-15 0 -29 -4t-27 -12q-12 -8 -22 -20.5t-13 -30.5q2 -1 5.5 -1t6.5 -1q4 17 13.5 27.5
t20.5 16.5q10 6 21 8.5t19 2.5q14 0 25 -6t25 -24z" />
    <glyph glyph-name="oacute" unicode="&#xf3;" horiz-adv-x="461" 
d="M63 188q-6 -41 4.5 -76t33.5 -61q22 -27 55 -42t74 -15q40 0 78 15t69 42q30 26 50 61t26 76q6 40 -4.5 76t-33.5 63q-23 26 -57 41.5t-74 15.5q-41 0 -78 -15.5t-67 -41.5q-30 -27 -50 -63t-26 -76zM77 188q5 37 23.5 70t46.5 58t62.5 39t72.5 14q37 0 68.5 -14
t52.5 -39t30.5 -58t4.5 -70q-5 -38 -24 -70.5t-47 -56.5q-28 -25 -63.5 -39t-72.5 -14q-38 0 -68.5 14t-51.5 39q-21 24 -30 56.5t-4 70.5zM300 479h16q27 33 54 66.5t54 66.5h-16q-27 -33 -54 -66.5t-54 -66.5z" />
    <glyph glyph-name="ocircumflex" unicode="&#xf4;" horiz-adv-x="461" 
d="M63 188q-6 -41 4.5 -76t33.5 -61q22 -27 55 -42t74 -15q40 0 78 15t69 42q30 26 50 61t26 76q6 40 -4.5 76t-33.5 63q-23 26 -57 41.5t-74 15.5q-41 0 -78 -15.5t-67 -41.5q-30 -27 -50 -63t-26 -76zM77 188q5 37 23.5 70t46.5 58t62.5 39t72.5 14q37 0 68.5 -14
t52.5 -39t30.5 -58t4.5 -70q-5 -38 -24 -70.5t-47 -56.5q-28 -25 -63.5 -39t-72.5 -14q-38 0 -68.5 14t-51.5 39q-21 24 -30 56.5t-4 70.5zM331 660q-36 -45 -72.5 -90.5t-72.5 -90.5h16q32 38 62.5 77t62.5 77q21 -38 41.5 -77t41.5 -77h16q-24 45 -47.5 90.5t-47.5 90.5z
" />
    <glyph glyph-name="odieresis" unicode="&#xf6;" horiz-adv-x="461" 
d="M63 188q-6 -41 4.5 -76t33.5 -61q22 -27 55 -42t74 -15q40 0 78 15t69 42q30 26 50 61t26 76q6 40 -4.5 76t-33.5 63q-23 26 -57 41.5t-74 15.5q-41 0 -78 -15.5t-67 -41.5q-30 -27 -50 -63t-26 -76zM77 188q5 37 23.5 70t46.5 58t62.5 39t72.5 14q37 0 68.5 -14
t52.5 -39t30.5 -58t4.5 -70q-5 -38 -24 -70.5t-47 -56.5q-28 -25 -63.5 -39t-72.5 -14q-38 0 -68.5 14t-51.5 39q-21 24 -30 56.5t-4 70.5zM361 500q-1 -8 4.5 -14t13.5 -6t14.5 6t7.5 14q2 8 -3.5 14t-13.5 6t-14.5 -6t-8.5 -14zM196 500q-1 -8 4.5 -14t13.5 -6t14.5 6
t7.5 14q2 8 -3.5 14t-13.5 6t-14.5 -6t-8.5 -14z" />
    <glyph glyph-name="ograve" unicode="&#xf2;" horiz-adv-x="461" 
d="M63 188q-6 -41 4.5 -76t33.5 -61q22 -27 55 -42t74 -15q40 0 78 15t69 42q30 26 50 61t26 76q6 40 -4.5 76t-33.5 63q-23 26 -57 41.5t-74 15.5q-41 0 -78 -15.5t-67 -41.5q-30 -27 -50 -63t-26 -76zM77 188q5 37 23.5 70t46.5 58t62.5 39t72.5 14q37 0 68.5 -14
t52.5 -39t30.5 -58t4.5 -70q-5 -38 -24 -70.5t-47 -56.5q-28 -25 -63.5 -39t-72.5 -14q-38 0 -68.5 14t-51.5 39q-21 24 -30 56.5t-4 70.5zM229 612h-15q17 -33 34.5 -66.5t35.5 -66.5h16q-18 33 -35.5 66.5t-35.5 66.5z" />
    <glyph glyph-name="oslash" unicode="&#xf8;" horiz-adv-x="458" 
d="M76 188q5 37 23.5 70t46.5 58t62.5 39t72.5 14q29 0 55 -9t46 -25q-68 -69 -135 -138.5t-135 -138.5q-22 25 -31.5 58.5t-4.5 71.5zM231 8q-33 0 -61 10.5t-50 31.5q68 69 135.5 138.5t135.5 138.5q26 -25 39 -61t7 -78q-5 -38 -24 -70.5t-47 -56.5q-28 -25 -63 -39
t-72 -14zM62 188q-6 -42 4.5 -78.5t34.5 -62.5q-11 -12 -22.5 -23.5t-22.5 -23.5l4 -4l4 -4q11 12 22.5 23.5t22.5 23.5q23 -21 53.5 -33t66.5 -12q40 0 78 15t68 42q30 26 50 61t26 76q6 45 -7.5 84.5t-42.5 65.5l18.5 18.5t17.5 18.5l-4 4l-4 4q-8 -9 -17.5 -18.5
l-18.5 -18.5q-22 17 -50 27t-60 10q-41 0 -78 -15.5t-67 -41.5t-50 -62t-26 -76z" />
    <glyph glyph-name="otilde" unicode="&#xf5;" horiz-adv-x="461" 
d="M63 188q-6 -41 4.5 -76t33.5 -61q22 -27 55 -42t74 -15q40 0 78 15t69 42q30 26 50 61t26 76q6 40 -4.5 76t-33.5 63q-23 26 -57 41.5t-74 15.5q-41 0 -78 -15.5t-67 -41.5q-30 -27 -50 -63t-26 -76zM77 188q5 37 23.5 70t46.5 58t62.5 39t72.5 14q37 0 68.5 -14
t52.5 -39t30.5 -58t4.5 -70q-5 -38 -24 -70.5t-47 -56.5q-28 -25 -63.5 -39t-72.5 -14q-38 0 -68.5 14t-51.5 39q-21 24 -30 56.5t-4 70.5zM291 497q14 -17 29 -27.5t35 -10.5q17 0 34 5t31 17q9 8 16 19t10 26q-3 1 -6.5 1t-6.5 1q-4 -17 -13 -27.5t-20 -16.5t-22 -8.5
t-19 -2.5q-14 0 -25 6t-24 24q-14 17 -29 27.5t-35 10.5q-15 0 -29 -4t-27 -12q-12 -8 -22 -20.5t-13 -30.5q2 -1 5.5 -1t6.5 -1q4 17 13.5 27.5t20.5 16.5q10 6 21 8.5t19 2.5q14 0 25 -6t25 -24z" />
    <glyph glyph-name="uacute" unicode="&#xfa;" horiz-adv-x="518" 
d="M400 0h83l2 14h-77l51 361h-93l-2 -14h79l-29 -206q-5 -32 -22.5 -59.5t-43.5 -46.5q-26 -20 -58 -31t-66 -11q-43 2 -64 28.5t-18 62.5l39 277h-93l-2 -14h79l-36 -256q-5 -50 21.5 -81t79.5 -31q56 0 104 28.5t75 76.5l-4 -45zM309 479h16q27 33 54 66.5t54 66.5h-16
q-27 -33 -54 -66.5t-54 -66.5z" />
    <glyph glyph-name="ucircumflex" unicode="&#xfb;" horiz-adv-x="518" 
d="M400 0h83l2 14h-77l51 361h-93l-2 -14h79l-29 -206q-5 -32 -22.5 -59.5t-43.5 -46.5q-26 -20 -58 -31t-66 -11q-43 2 -64 28.5t-18 62.5l39 277h-93l-2 -14h79l-36 -256q-5 -50 21.5 -81t79.5 -31q56 0 104 28.5t75 76.5l-4 -45zM352 660q-36 -45 -72.5 -90.5
t-72.5 -90.5h16q32 38 62.5 77t62.5 77q21 -38 41.5 -77t41.5 -77h16q-24 45 -47.5 90.5t-47.5 90.5z" />
    <glyph glyph-name="udieresis" unicode="&#xfc;" horiz-adv-x="518" 
d="M400 0h83l2 14h-77l51 361h-93l-2 -14h79l-29 -206q-5 -32 -22.5 -59.5t-43.5 -46.5q-26 -20 -58 -31t-66 -11q-43 2 -64 28.5t-18 62.5l39 277h-93l-2 -14h79l-36 -256q-5 -50 21.5 -81t79.5 -31q56 0 104 28.5t75 76.5l-4 -45zM391 500q-1 -8 4.5 -14t13.5 -6t14.5 6
t7.5 14q2 8 -3.5 14t-13.5 6t-14.5 -6t-8.5 -14zM226 500q-1 -8 4.5 -14t13.5 -6t14.5 6t7.5 14q2 8 -3.5 14t-13.5 6t-14.5 -6t-8.5 -14z" />
    <glyph glyph-name="ugrave" unicode="&#xf9;" horiz-adv-x="518" 
d="M400 0h83l2 14h-77l51 361h-93l-2 -14h79l-29 -206q-5 -32 -22.5 -59.5t-43.5 -46.5q-26 -20 -58 -31t-66 -11q-43 2 -64 28.5t-18 62.5l39 277h-93l-2 -14h79l-36 -256q-5 -50 21.5 -81t79.5 -31q56 0 104 28.5t75 76.5l-4 -45zM233 612h-15q17 -33 34.5 -66.5
t35.5 -66.5h16q-18 33 -35.5 66.5t-35.5 66.5z" />
    <glyph glyph-name="yacute" unicode="&#xfd;" horiz-adv-x="590" 
d="M93 -236l-1 -14h174l1 14h-74q96 150 190 298.5t191 298.5h66l2 14h-139l-2 -14h55l-112 -176t-109 -171q-32 87 -63 173t-62 174h71l2 14h-161l-2 -14h72q32 -92 65 -183l66 -182q-37 -57 -74.5 -115.5t-74.5 -116.5h-81zM391 479h16q27 33 54 66.5t54 66.5h-16
q-27 -33 -54 -66.5t-54 -66.5z" />
    <glyph glyph-name="ydieresis" unicode="&#xff;" horiz-adv-x="590" 
d="M93 -236l-1 -14h174l1 14h-74q96 150 190 298.5t191 298.5h66l2 14h-139l-2 -14h55l-112 -176t-109 -171q-32 87 -63 173t-62 174h71l2 14h-161l-2 -14h72q32 -92 65 -183l66 -182q-37 -57 -74.5 -115.5t-74.5 -116.5h-81zM468 500q-1 -8 4.5 -14t13.5 -6t14.5 6t7.5 14
q2 8 -3.5 14t-13.5 6t-14.5 -6t-8.5 -14zM303 500q-1 -8 4.5 -14t13.5 -6t14.5 6t7.5 14q2 8 -3.5 14t-13.5 6t-14.5 -6t-8.5 -14z" />
    <glyph glyph-name="grave" unicode="`" horiz-adv-x="200" 
d="M11 612h-15q17 -33 34.5 -66.5t35.5 -66.5h16q-18 33 -35.5 66.5t-35.5 66.5z" />
    <glyph glyph-name="acute" unicode="&#xb4;" horiz-adv-x="218" 
d="M100 479h16q27 33 54 66.5t54 66.5h-16q-27 -33 -54 -66.5t-54 -66.5z" />
    <glyph glyph-name="macron" unicode="&#xaf;" horiz-adv-x="399" 
d="M85 492h230l1 14h-230z" />
    <glyph glyph-name="dieresis" unicode="&#xa8;" horiz-adv-x="370" 
d="M249 500q-1 -8 4.5 -14t13.5 -6t14.5 6t7.5 14q2 8 -3.5 14t-13.5 6t-14.5 -6t-8.5 -14zM84 500q-1 -8 4.5 -14t13.5 -6t14.5 6t7.5 14q2 8 -3.5 14t-13.5 6t-14.5 -6t-8.5 -14z" />
    <glyph glyph-name="ring" unicode="&#x2da;" horiz-adv-x="200" 
d="M129 540q2 20 18.5 34.5t36.5 14.5t32.5 -14.5t10.5 -34.5q-3 -20 -19.5 -34.5t-36.5 -14.5t-32.5 14.5t-9.5 34.5zM115 540q-5 -27 11 -45t43 -18t47 18t25 45q4 27 -12 45t-43 18t-47 -18t-24 -45z" />
    <glyph glyph-name="cedilla" unicode="&#xb8;" horiz-adv-x="452" 
d="M224 0l-2 -16q-3 -20 8.5 -31t25.5 -21q14 -11 25 -26t7 -43q-5 -31 -27.5 -51.5t-53.5 -20.5q-25 0 -40.5 13.5t-18.5 34.5q-4 -1 -7.5 -2t-7.5 -2q5 -29 26 -43.5t47 -14.5q18 0 35.5 6.5t31.5 21.5q11 11 18.5 28t11.5 40q2 14 -5.5 32.5t-27.5 33.5q-6 4 -12.5 8
t-11.5 10t-8 15t-1 22l1 6h-14z" />
    <glyph glyph-name="guillemotright" unicode="&#xbb;" horiz-adv-x="601" 
d="M119 93l-2 -16l193 162q-37 41 -74 80.5t-74 80.5l-2 -17q30 -36 60.5 -72t60.5 -72q-41 -37 -81 -73t-81 -73zM290 93l-2 -16l193 162q-37 41 -74 80.5t-74 80.5l-2 -17q30 -36 60.5 -72t60.5 -72q-41 -37 -81 -73t-81 -73z" />
    <glyph glyph-name="nonmarkingreturn" unicode="&#xd;" horiz-adv-x="300" 
 />
    <glyph glyph-name="dotlessi" unicode="&#x131;" 
d="M36 14l-1 -14h174l1 14h-78l51 361h-96l-2 -14h82l-49 -347h-82z" />
    <glyph glyph-name="guillemotleft" unicode="&#xab;" horiz-adv-x="601" 
d="M459 77l2 16q-30 37 -61 73t-61 73q41 36 81.5 72t81.5 72l2 17q-49 -41 -97 -80.5t-97 -80.5zM288 77l2 16q-30 37 -61 73t-61 73q41 36 81.5 72t81.5 72l2 17q-49 -41 -97 -80.5t-97 -80.5z" />
    <glyph glyph-name="uni03BC" unicode="&#xb5;" horiz-adv-x="521" 
d="M396 375l-2 -14h79l-28 -206q-5 -32 -22.5 -59.5t-43.5 -46.5q-26 -20 -58 -31t-66 -11q-44 2 -65 28.5t-17 62.5l38 277h-93l-2 -14h79l-78 -562h14l35 250q10 -26 34 -41t60 -15q56 0 104.5 28.5t75.5 76.5l-5 -45l-4 -53h83l2 14h-77l50 361h-93z" />
    <glyph glyph-name="uni00A0" unicode="&#xa0;" horiz-adv-x="300" 
 />
    <glyph glyph-name="OE" unicode="&#x152;" horiz-adv-x="915" 
d="M68 313q0 -67 24 -125.5t66 -101.5q42 -44 100 -69t126 -25q19 0 38 2t39 6h365l11 89h-14l-10 -75h-337l40 332h299l2 14h-299l40 326h324l-9 -74h14l11 88h-352q-18 4 -36 6t-38 2q-80 0 -153 -31.5t-128 -85.5q-56 -54 -89.5 -125.5t-33.5 -152.5zM82 313
q0 77 32 146.5t86 121.5t124 82.5t146 30.5q19 0 37.5 -2t36.5 -6l-81 -672q-19 -4 -39.5 -6t-40.5 -2q-65 0 -120 24t-95 66q-41 41 -63.5 97t-22.5 120z" />
    <glyph glyph-name="oe" unicode="&#x153;" horiz-adv-x="653" 
d="M565 46l-10 10q-26 -23 -59.5 -35.5t-69.5 -12.5q-58 0 -99 31.5t-55 82.5q40 16 85.5 33.5t92.5 35.5q46 18 91.5 35.5l84.5 32.5q-8 28 -22 52t-35 41q-18 15 -42.5 23.5t-53.5 8.5q-31 0 -60 -9t-55 -25q-21 16 -47.5 25t-57.5 9q-44 0 -83.5 -17.5t-69.5 -46.5
q-31 -30 -49 -69t-18 -83q0 -37 13 -68.5t36 -54.5q22 -24 53.5 -37.5t69.5 -13.5q31 0 59.5 8.5t55.5 25.5q22 -17 48 -25.5t57 -8.5q39 0 75 14t65 38zM251 369q29 0 51 -7t42 -21q-41 -30 -66 -75t-25 -98q0 -40 14.5 -74t40.5 -57q-23 -14 -49 -21.5t-53 -7.5
q-35 0 -64 12.5t-50 34.5t-33 51.5t-12 63.5q0 40 16.5 76.5t45.5 63.5q28 27 64.5 43t77.5 16zM608 266q-39 -15 -82.5 -32t-87.5 -33q-44 -17 -87 -34t-82 -32q-2 7 -2 15.5v15.5q0 42 16.5 79t45.5 65q28 27 64.5 43t77.5 16q54 0 87.5 -29t49.5 -74z" />
    <glyph glyph-name="circumflex" unicode="&#x2c6;" horiz-adv-x="450" 
d="M306 600l-135 -121h16l116 94l92 -94h16z" />
    <glyph glyph-name="tilde" unicode="&#x2dc;" horiz-adv-x="593" 
d="M364 485q14 -17 29 -27.5t35 -10.5q13 0 27 3t26 11q14 7 23.5 20.5t13.5 32.5l-12 2q-4 -17 -13 -27.5t-19 -16.5q-11 -6 -22 -8.5t-19 -2.5q-14 0 -25.5 6t-25.5 24q-14 17 -29 27.5t-35 10.5q-16 0 -32 -4.5t-29 -14.5q-11 -8 -18.5 -20t-10.5 -28l13 -2q4 17 13 27.5
t20 16.5q10 6 21 8.5t19 2.5q14 0 25 -6t25 -24z" />
    <glyph glyph-name="ellipsis" unicode="&#x2026;" horiz-adv-x="513" 
d="M45 18q0 -8 5 -13t13 -5q9 0 16 6.5t7 15.5q0 8 -5 13t-13 5q-9 0 -16 -6.5t-7 -15.5zM208 18q0 -8 5 -13t13 -5q9 0 16 6.5t7 15.5q0 8 -5 13t-13 5q-9 0 -16 -6.5t-7 -15.5zM371 18q0 -8 5 -13t13 -5q9 0 16 6.5t7 15.5q0 8 -5 13t-13 5q-9 0 -16 -6.5t-7 -15.5z" />
    <glyph glyph-name="fraction" unicode="&#x2044;" horiz-adv-x="316" 
d="M-21 0h14l371 755h-14z" />
    <glyph glyph-name="uni2074" unicode="&#x2074;" horiz-adv-x="410" 
d="M204 382l-1 -7h89l1 7h-42l12 86h48l1 7h-48l33 234l-220 -241h178l-12 -86h-39zM286 688l-30 -213h-163z" />
    <glyph glyph-name="Euro" unicode="&#x20ac;" horiz-adv-x="553" 
d="M62 393l-2 -14h66q-4 -14 -6 -27t-4 -25q-2 -11 -2.5 -20.5t-1.5 -19.5h-62l-2 -14h64q0 -60 17 -111t48 -88q30 -38 71.5 -59.5t91.5 -21.5q32 0 63 8.5t61 25.5l-11 8q-27 -14 -54.5 -21t-55.5 -7q-44 0 -83 18.5t-68 53.5q-30 34 -47.5 83.5t-17.5 110.5h247l2 14
h-249q1 10 1.5 20t2.5 21q2 13 4 25.5t5 25.5h247l2 14h-245q13 47 37.5 91.5t55.5 77.5q33 36 81 59t108 23q25 0 47.5 -5t43.5 -15l7 10q-5 4 -30.5 14t-65.5 10q-63 0 -113 -24.5t-86 -62.5q-37 -38 -61.5 -85.5t-37.5 -92.5h-68z" />
    <glyph glyph-name="minus" unicode="&#x2212;" horiz-adv-x="523" 
d="M71 186h360l2 14h-360z" />
    <glyph glyph-name="uni2215" unicode="&#x2215;" horiz-adv-x="313" 
d="M-15 -16l366 751h-16l-366 -751h16z" />
  </font>
</defs>
</svg>
