<?xml version="1.0" standalone="no"?>
<!DOCTYPE svg PUBLIC "-//W3C//DTD SVG 1.1//EN" "http://www.w3.org/Graphics/SVG/1.1/DTD/svg11.dtd" >
<svg xmlns="http://www.w3.org/2000/svg" xmlns:xlink="http://www.w3.org/1999/xlink" version="1.1">
<metadata>
Created by FontForge 20230101 at Thu Sep 30 12:05:06 2021
 By Glenn Lewis
Copyright 2017 The Playfair Display Project Authors (https://github.com/clauseggers/Playfair-Display), with Reserved Font Name "Playfair Display".
</metadata>
<defs>
<font id="PlayfairDisplay-BlackItalic" horiz-adv-x="0" >
  <font-face 
    font-family="Playfair Display Black"
    font-weight="900"
    font-style="italic"
    font-stretch="normal"
    units-per-em="1000"
    panose-1="0 0 0 0 0 0 0 0 0 0"
    ascent="800"
    descent="-200"
    x-height="528"
    cap-height="708"
    bbox="-370 -251 1308 1201"
    underline-thickness="20"
    underline-position="-110"
    slope="-14"
    unicode-range="U+000D-FB02"
  />
<missing-glyph horiz-adv-x="562" 
d="M60 772h442v-772h-442v772zM96 30h370v712h-370v-712z" />
    <glyph glyph-name="IJ" unicode="IJ" horiz-adv-x="878" 
d="M858 366l-1.5 -10l-1.5 -10h-431l1.5 10l1.5 10h431zM324 462q62 0 97 9.5t69 25.5l7 -18q-34 -16 -71.5 -27.5t-103.5 -11.5q-50 0 -91.5 10t-72 29.5t-47 49.5t-16.5 70q0 42 21 73.5t64 49t107 17.5q54 0 94.5 -10t75 -24t67.5 -28.5t71.5 -24.5t88.5 -10
q30 0 67.5 3.5t76 11t70.5 20.5q21 32 41 49t35 4q12 -10 -1 -27t-66 -37q-42 -38 -71.5 -92.5t-51.5 -121.5t-42 -145l-62 -242q-17 -68 -56.5 -126t-107.5 -92.5t-173 -34.5q-45 0 -82.5 8.5t-60 28t-22.5 52.5q0 38 26.5 62.5t77.5 24.5q42 0 71.5 -18t29.5 -55
q0 -28 -16.5 -49t-48.5 -35q8 -1 13 -1.5t10 -0.5q23 0 39.5 11t29.5 34t25.5 59.5t26.5 86.5l69 242q22 76 54 132.5t74.5 100t95 80.5t113.5 75q-56 -13 -97 -31.5t-76.5 -35.5t-75 -28.5t-92.5 -11.5q-37 0 -70.5 7t-66 16t-65 16t-67.5 7q-34 0 -53 -12t-19 -39
q0 -22 14.5 -39t45 -27t78.5 -10zM217 460h203l-111 -354q-11 -36 -9.5 -54t18 -24t50.5 -8l-4 -20q-32 2 -83 2.5t-104 0.5q-54 0 -101 -0.5t-76 -2.5l5 20q33 2 50.5 8t28.5 24t22 54z" />
    <glyph glyph-name="ij" unicode="ij" horiz-adv-x="648" 
d="M185 -188l5 20q40 0 73 28.5t52 97.5l133 476q6 21 1.5 31.5t-14.5 10.5q-20 0 -35.5 -19t-28.5 -53q-15 -45 -22 -102t-17 -116t-34 -112q-25 -54 -64.5 -71t-85.5 -17q-82 0 -112 42t-1 130l92 276q8 22 5 32t-14 10q-15 0 -28 -13.5t-27 -49.5l-23 -61h-19l28 78
q14 38 35.5 60.5t50.5 32.5t63 10q51 0 75 -22t28 -54t-7 -64l-104 -308q-7 -23 -2 -37.5t24 -14.5q20 0 39.5 15.5t32.5 43.5q22 49 31 108t17 119t28 111q23 58 68 80.5t93 22.5q51 0 73.5 -21.5t24.5 -54t-7 -64.5l-86 -313q-16 -58 -33 -98.5t-38.5 -68.5t-53.5 -51
q-31 -22 -82 -36t-134 -14zM168 676q0 54 35 80t87 26q44 0 66.5 -17t22.5 -51q0 -47 -35.5 -75.5t-87.5 -28.5q-43 0 -65.5 17t-22.5 49zM492 676q0 54 35 80t87 26q44 0 66.5 -17t22.5 -51q0 -47 -35.5 -75.5t-87.5 -28.5q-43 0 -65.5 17t-22.5 49z" />
    <glyph glyph-name="f_f" unicode="ff" horiz-adv-x="695" 
d="M42 499l6 20h365l-6 -20h-365zM139 -174q-54 -1 -96.5 -4t-84.5 -10l177 658q24 90 59.5 145t72.5 80q35 24 79 35.5t94 11.5q44 0 77 -13t50 -27l-10 -14q-11 9 -27 15.5t-45 6.5q-31 0 -58.5 -14t-51 -49.5t-41.5 -98.5zM387 499l6 20h355l-6 -20h-355zM780 762
q-14 0 -26 -3.5t-23 -12.5q-9 -8 -17.5 -21t-16 -32t-14.5 -46l-220 -821q-54 -1 -96.5 -4t-84.5 -10l186 692q23 88 54.5 145.5t74.5 88.5q32 23 69.5 33.5t81.5 10.5q74 0 115.5 -30t41.5 -82q0 -23 -13.5 -46.5t-37.5 -38.5t-57 -15q-37 0 -58.5 17.5t-21.5 50.5
q0 38 23.5 70t65.5 48q-7 3 -13 4.5t-13 1.5z" />
    <glyph glyph-name="f_f_i" unicode="ffi" horiz-adv-x="946" 
d="M42 498l6 20h365l-6 -20h-365zM139 -174q-54 -1 -96.5 -4t-84.5 -10l177 658q24 90 59.5 144.5t72.5 80.5q33 23 74.5 35t88.5 12q59 0 96.5 -16t58.5 -36l-9 -14q-14 14 -36.5 24t-55.5 10q-21 0 -39.5 -5t-35.5 -17q-22 -16 -41 -49.5t-34 -90.5zM374 498l6 20h434
l-6 -20h-434zM943 751q-16 5 -31.5 9.5t-41.5 4.5q-41 0 -73.5 -7t-56.5 -23q-31 -19 -51 -54.5t-35 -89.5l-204 -765q-54 -1 -96.5 -4t-84.5 -10l186 692q23 84 60.5 139.5t93.5 86.5t117 41.5t139 10.5q29 0 58 -5.5t44 -22.5zM775 676q0 54 35 77.5t87 23.5
q44 0 66.5 -18t22.5 -45q0 -47 -35.5 -75.5t-87.5 -28.5q-43 0 -65.5 17t-22.5 49zM802 85q-7 -25 -2.5 -33.5t14.5 -8.5q9 0 23 10.5t30 52.5l21 56h19l-25 -73q-14 -41 -40 -63.5t-55 -31t-53 -8.5q-43 0 -68 20.5t-29.5 59.5t10.5 92l103 360q52 1 97 4.5t84 10.5z" />
    <glyph glyph-name="f_f_l" unicode="ffl" horiz-adv-x="955" 
d="M42 498l6 20h365l-6 -20h-365zM139 -174q-54 -1 -96.5 -4t-84.5 -10l177 658q24 90 59.5 144.5t72.5 80.5q33 23 74.5 35t88.5 12q59 0 96.5 -16t58.5 -36l-9 -14q-14 14 -36.5 24t-55.5 10q-23 0 -43.5 -5.5t-38.5 -21.5q-20 -17 -37 -49.5t-31 -85.5zM808 85
q-7 -24 0 -33t16 -9q5 0 20 9.5t31 53.5l21 56h19l-25 -73q-15 -43 -39.5 -65t-51.5 -30t-51 -8q-32 0 -55.5 11t-36.5 32.5t-14 53.5t12 75l153 509q10 34 -2 50t-61 16l7 21q82 1 145.5 11.5t122.5 29.5zM374 498l6 20h334l-6 -20h-334zM755 733q-16 0 -28 -3t-22 -11
q-10 -9 -18.5 -24.5t-15.5 -40.5l-221 -828q-54 -1 -96.5 -4t-84.5 -10l186 692q19 71 46.5 120t68.5 79q35 26 82.5 38.5t108.5 12.5h28l-1 -21h-33z" />
    <glyph glyph-name="fi" unicode="fi" horiz-adv-x="619" 
d="M47 498l6 20h434l-6 -20h-434zM616 751q-16 5 -31.5 9.5t-41.5 4.5q-41 0 -73.5 -7t-56.5 -23q-31 -19 -51 -54.5t-35 -89.5l-204 -765q-54 -1 -96.5 -4t-84.5 -10l186 692q23 84 60.5 139.5t93.5 86.5t117 41.5t139 10.5q29 0 58 -5.5t44 -22.5zM448 676q0 54 35 77.5
t87 23.5q44 0 66.5 -18t22.5 -45q0 -47 -35.5 -75.5t-87.5 -28.5q-43 0 -65.5 17t-22.5 49zM475 85q-7 -25 -2.5 -33.5t14.5 -8.5q9 0 23 10.5t30 52.5l21 56h19l-25 -73q-14 -41 -40 -63.5t-55 -31t-53 -8.5q-43 0 -68 20.5t-29.5 59.5t10.5 92l103 360q52 1 97 4.5
t84 10.5z" />
    <glyph glyph-name="fl" unicode="fl" horiz-adv-x="628" 
d="M481 85q-7 -24 0 -33t16 -9q5 0 20 9.5t31 53.5l21 56h19l-25 -73q-15 -43 -39.5 -65t-51.5 -30t-51 -8q-32 0 -55.5 11t-36.5 32.5t-14 53.5t12 75l153 509q10 34 -2 50t-61 16l7 21q82 1 145.5 11.5t122.5 29.5zM47 498l6 20h334l-6 -20h-334zM428 733q-16 0 -28 -3
t-22 -11q-10 -9 -18.5 -24.5t-15.5 -40.5l-221 -828q-54 -1 -96.5 -4t-84.5 -10l186 692q19 71 46.5 120t68.5 79q35 26 82.5 38.5t108.5 12.5h28l-1 -21h-33z" />
    <glyph glyph-name="T_h.liga" unicode="Th" horiz-adv-x="1197" 
d="M779 143q37 119 70.5 195t67 118.5t72 59.5t84.5 17q40 0 62 -19t26 -52.5t-11 -79.5l-99 -297q-6 -16 -5 -25.5t6 -13t11 -3.5q9 0 23 10.5t30 52.5l21 56h19l-25 -73q-14 -42 -37.5 -64t-51 -30.5t-54.5 -8.5q-44 0 -71.5 18.5t-33 57t13.5 96.5l86 259q6 18 8 30
t-1 18t-11 6q-19 0 -44.5 -29.5t-54.5 -88t-60 -146t-61 -204.5zM783 757q53 5 98.5 14.5t88.5 23.5l-212 -795h-18h-44.5h-52.5h-44h-18zM387 687l20 -1.5t49.5 -4t58.5 -5.5t49 -4.5l20 -1.5l-146 -554q-9 -35 -5.5 -55t22.5 -29t58 -12l-4 -20q-35 2 -91.5 2.5
t-117.5 0.5q-58 0 -111 -0.5t-85 -2.5l4 20q42 2 66.5 10.5t38 29t22.5 56.5zM803 680q-34 -15 -74.5 -20.5t-86.5 -5.5q-34 0 -78.5 4.5t-93 10.5t-95 10.5t-84.5 4.5q-36 0 -65.5 -4t-48.5 -13q38 -5 63.5 -30.5t25.5 -66.5q0 -43 -28 -71.5t-69 -28.5q-43 0 -66.5 29.5
t-23.5 67.5q0 27 15 58.5t58 52.5q24 12 49.5 17t48 6t36.5 1q65 0 130 -7t125.5 -14t110.5 -7q53 0 84 6.5t63 19.5z" />
    <glyph glyph-name="f_b.liga" unicode="fb" horiz-adv-x="892" 
d="M47 498l6 20h334l-6 -20h-334zM438 733q-37 0 -58.5 -16t-35.5 -63l-221 -828q-54 -1 -96.5 -4t-84.5 -10l186 692q24 87 62.5 142t100 81.5t153.5 26.5zM659 466q-16 0 -33.5 -18t-34.5 -50t-32 -73t-26 -87l19 98q27 69 53.5 112.5t57.5 64t69 20.5q70 0 103.5 -42.5
t33.5 -120.5q0 -47 -14 -99.5t-41 -103t-66 -91.5t-89.5 -65.5t-112.5 -24.5q-28 0 -50.5 8t-35.5 19l7 13q8 -3 16 -5t18 -2q27 0 53.5 24.5t49.5 66t41 92.5t28 104.5t10 102.5q0 35 -6.5 46t-17.5 11zM470 7q-39 11 -84.5 1.5t-85.5 -24.5l-15 7q7 14 12.5 28.5t9.5 30.5
l174 617q7 34 -2.5 50t-43.5 16l7 21q76 1 136 11.5t115 29.5z" />
    <glyph glyph-name="f_f_b.liga" unicode="ffb" horiz-adv-x="1219" 
d="M42 498l6 20h365l-6 -20h-365zM139 -174q-54 -1 -96.5 -4t-84.5 -10l177 658q24 90 59.5 144.5t72.5 80.5q33 23 74.5 35t88.5 12q59 0 96.5 -16t58.5 -36l-9 -14q-14 14 -36.5 24t-55.5 10t-60.5 -13t-49.5 -48t-40 -101zM374 498l6 20h334l-6 -20h-334zM765 733
q-37 0 -58.5 -16t-35.5 -63l-221 -828q-54 -1 -96.5 -4t-84.5 -10l186 692q24 87 62.5 142t100 81.5t153.5 26.5zM986 466q-16 0 -33.5 -18t-34.5 -50t-32 -73t-26 -87l19 98q27 69 53.5 112.5t57.5 64t69 20.5q70 0 103.5 -42.5t33.5 -120.5q0 -47 -14 -99.5t-41 -103
t-66 -91.5t-89.5 -65.5t-112.5 -24.5q-28 0 -50.5 8t-35.5 19l7 13q8 -3 16 -5t18 -2q27 0 53.5 24.5t49.5 66t41 92.5t28 104.5t10 102.5q0 35 -6.5 46t-17.5 11zM797 7q-39 11 -84.5 1.5t-85.5 -24.5l-15 7q7 14 12.5 28.5t9.5 30.5l174 617q7 34 -2.5 50t-43.5 16l7 21
q76 1 136 11.5t115 29.5z" />
    <glyph glyph-name="f_f_h.liga" unicode="ffh" horiz-adv-x="1233" 
d="M42 498l6 20h365l-6 -20h-365zM139 -174q-54 -1 -96.5 -4t-84.5 -10l177 658q24 90 59.5 144.5t72.5 80.5q33 23 74.5 35t88.5 12q59 0 96.5 -16t58.5 -36l-9 -14q-14 14 -36.5 24t-55.5 10t-60.5 -13t-49.5 -48t-40 -101zM374 498l6 20h334l-6 -20h-334zM815 143
q37 119 70.5 195t67 118.5t72 59.5t84.5 17q40 0 62 -19t26 -52.5t-11 -79.5l-99 -297q-9 -25 -3 -33.5t15 -8.5t23 10.5t30 52.5l21 56h19l-25 -73q-14 -42 -37.5 -64t-51 -30.5t-54.5 -8.5q-44 0 -71.5 18.5t-33 57t13.5 96.5l86 259q6 18 8 30t-1 18t-11 6
q-15 0 -36.5 -27t-46 -74t-49.5 -107.5t-48 -127t-40 -132.5zM794 0h-177l188 667q7 34 -1 50t-42 16l9 21q76 1 133.5 11.5t112.5 29.5zM765 733q-37 0 -59 -15.5t-35 -63.5l-221 -828q-54 -1 -96.5 -4t-84.5 -10l186 692q24 87 62.5 142t100 81.5t153.5 26.5z" />
    <glyph glyph-name="f_f_j.liga" unicode="ffj" horiz-adv-x="943" 
d="M46 498l6 20h365l-6 -20h-365zM143 -174q-54 -1 -96.5 -4t-84.5 -10l177 658q24 90 59.5 144.5t72.5 80.5q33 23 74.5 35t88.5 12q59 0 96.5 -16t58.5 -36l-9 -14q-14 14 -36.5 24t-55.5 10t-60.5 -13t-49.5 -48t-40 -101zM376 498l6 20h434l-6 -20h-434zM955 751
q-16 5 -31.5 9.5t-41.5 4.5q-66 0 -110.5 -18t-71.5 -56t-44 -100l-157 -591h-177l135 504q23 84 60.5 139.5t93.5 86.5q58 31 121.5 41.5t144.5 10.5q29 0 58 -5.5t44 -22.5zM787 676q0 54 35 77.5t87 23.5q44 0 66.5 -18t22.5 -45q0 -47 -35.5 -75.5t-87.5 -28.5
q-43 0 -65.5 17t-22.5 49zM606 -42l156 560q52 1 97 4.5t84 10.5l-126 -453q-16 -58 -33 -98.5t-38.5 -68.5t-53.5 -51q-31 -22 -82 -36t-134 -14l5 20q40 0 73 29t52 97z" />
    <glyph glyph-name="f_f_k.liga" unicode="ffk" horiz-adv-x="1218" 
d="M42 498l6 20h365l-6 -20h-365zM139 -174q-54 -1 -96.5 -4t-84.5 -10l177 658q24 90 59.5 144.5t72.5 80.5q33 23 74.5 35t88.5 12q59 0 96.5 -16t58.5 -36l-9 -14q-14 14 -36.5 24t-55.5 10t-60.5 -13t-49.5 -48t-40 -101zM374 498l6 20h334l-6 -20h-334zM765 733
q-37 0 -59 -15.5t-35 -63.5l-221 -828q-54 -1 -96.5 -4t-84.5 -10l186 692q24 87 62.5 142t100 81.5t153.5 26.5zM794 0h-18h-44h-52.5h-44.5h-18l188 667q10 34 2 50t-42 16l6 21q55 1 95 5.5t76 13.5t75 22zM1073 85q-5 -25 -1 -33.5t13 -8.5t23 10.5t30 52.5l21 56h19
l-25 -73q-15 -42 -41.5 -64t-57.5 -30.5t-61 -8.5q-61 0 -83 34t-9 95l17 71q14 51 -1 72.5t-65 27.5v4q48 3 94 -0.5t81.5 -18.5t52 -46t5.5 -82zM1092 514q-14 0 -25 -4t-21 -12q-17 -14 -27 -40t-20 -55.5t-25 -56t-41 -43.5t-69 -16l-10 -1l2 11q42 3 66 20.5t38 43
t23 54t19 54t29 41.5q15 13 33 18t31 5q58 0 86.5 -34t28.5 -80q0 -32 -13.5 -55t-36.5 -34.5t-51 -11.5q-39 0 -60 20.5t-21 48.5q0 41 27.5 70t61.5 44q-4 6 -11 9.5t-14 3.5z" />
    <glyph glyph-name="f_h.liga" unicode="fh" horiz-adv-x="906" 
d="M47 498l6 20h334l-6 -20h-334zM488 143q37 119 70.5 195t67 118.5t72 59.5t84.5 17q40 0 62 -19t26 -52.5t-11 -79.5l-99 -297q-9 -25 -3 -33.5t15 -8.5t23 10.5t30 52.5l21 56h19l-25 -73q-14 -42 -37.5 -64t-51 -30.5t-54.5 -8.5q-44 0 -71.5 18.5t-33 57t13.5 96.5
l86 259q6 18 8 30t-1 18t-11 6q-15 0 -36.5 -27t-46 -74t-49.5 -107.5t-48 -127t-40 -132.5zM467 0h-177l188 667q7 34 -1 50t-42 16l9 21q76 1 133.5 11.5t112.5 29.5zM438 733q-37 0 -59 -15.5t-35 -63.5l-221 -828q-54 -1 -96.5 -4t-84.5 -10l186 692q24 87 62.5 142
t100 81.5t153.5 26.5z" />
    <glyph glyph-name="f_idieresis.liga" unicode="f&#xef;" horiz-adv-x="619" 
d="M47 498l6 20h434l-6 -20h-434zM481 741q-7 10 -21.5 20t-33.5 10q-30 0 -51 -7t-35 -20q-25 -22 -32.5 -56t-6.5 -70.5t4 -67t-1 -45.5l-181 -679q-54 -1 -96.5 -4t-84.5 -10l186 692q24 87 56 145t78 90q32 22 70.5 32.5t86.5 10.5q28 0 52 -9.5t34 -28.5zM475 85
q-7 -25 -2.5 -33.5t14.5 -8.5q9 0 23 10.5t30 52.5l21 56h19l-25 -73q-14 -41 -40 -63.5t-55 -31t-53 -8.5q-43 0 -68 20.5t-29.5 59.5t10.5 92l103 360q52 1 97 4.5t84 10.5zM345 674q0 52 30.5 75t68.5 23q40 0 57.5 -21.5t17.5 -56.5q0 -34 -15 -55.5t-37.5 -31
t-47.5 -9.5q-40 0 -57 21t-17 55zM583 674q0 52 30.5 75t68.5 23q40 0 57.5 -21.5t17.5 -56.5q0 -34 -15 -55.5t-37.5 -31t-47.5 -9.5q-40 0 -57 21t-17 55z" />
    <glyph glyph-name="f_igrave.liga" unicode="f&#xec;" horiz-adv-x="619" 
d="M47 498l6 20h434l-6 -20h-434zM475 672q-23 22 -40.5 35t-34.5 13q-13 0 -24 -10.5t-21 -33.5t-21 -62l-211 -788q-54 -1 -96.5 -4t-84.5 -10l186 692q20 75 48.5 121t62 71t67.5 34t64 9t56 -12t49 -42v-13zM475 85q-7 -25 -2.5 -33.5t14.5 -8.5q9 0 23 10.5t30 52.5
l21 56h19l-25 -73q-14 -41 -40 -63.5t-55 -31t-53 -8.5q-43 0 -68 20.5t-29.5 59.5t10.5 92l103 360q52 1 97 4.5t84 10.5zM545 599q-40 46 -70 72t-50.5 43.5t-33.5 39.5q-14 23 -9.5 49.5t26.5 40.5q26 17 54.5 7t41.5 -30q15 -22 19 -49t9.5 -66t24.5 -100z" />
    <glyph glyph-name="f_j.liga" unicode="fj" horiz-adv-x="613" 
d="M46 498l6 20h434l-6 -20h-434zM625 751q-16 5 -31.5 9.5t-41.5 4.5q-66 0 -110.5 -18t-71.5 -56t-44 -100l-157 -591h-177l135 504q23 84 60.5 139.5t93.5 86.5q58 31 121.5 41.5t144.5 10.5q29 0 58 -5.5t44 -22.5zM457 676q0 54 35 77.5t87 23.5q44 0 66.5 -18
t22.5 -45q0 -47 -35.5 -75.5t-87.5 -28.5q-43 0 -65.5 17t-22.5 49zM276 -42l156 560q52 1 97 4.5t84 10.5l-126 -453q-16 -58 -33 -98.5t-38.5 -68.5t-53.5 -51q-31 -22 -82 -36t-134 -14l5 20q40 0 73 29t52 97z" />
    <glyph glyph-name="f_k.liga" unicode="fk" horiz-adv-x="891" 
d="M47 498l6 20h334l-6 -20h-334zM438 733q-37 0 -59 -15.5t-35 -63.5l-221 -828q-54 -1 -96.5 -4t-84.5 -10l186 692q24 87 62.5 142t100 81.5t153.5 26.5zM467 0h-18h-44h-52.5h-44.5h-18l188 667q10 34 2 50t-42 16l6 21q55 1 95 5.5t76 13.5t75 22zM746 85
q-5 -25 -1 -33.5t13 -8.5t23 10.5t30 52.5l21 56h19l-25 -73q-15 -42 -41.5 -64t-57.5 -30.5t-61 -8.5q-61 0 -83 34t-9 95l17 71q14 51 -1 72.5t-65 27.5v4q48 3 94 -0.5t81.5 -18.5t52 -46t5.5 -82zM765 514q-14 0 -25 -4t-21 -12q-17 -14 -27 -40t-20 -55.5t-25 -56
t-41 -43.5t-69 -16l-10 -1l2 11q42 3 66 20.5t38 43t23 54t19 54t29 41.5q15 13 33 18t31 5q58 0 86.5 -34t28.5 -80q0 -32 -13.5 -55t-36.5 -34.5t-51 -11.5q-39 0 -60 20.5t-21 48.5q0 41 27.5 70t61.5 44q-4 6 -11 9.5t-14 3.5z" />
    <glyph glyph-name="longs_t.liga" unicode="&#x17f;t" horiz-adv-x="677" 
d="M46 498l6 20h174l-6 -20h-174zM143 -174q-54 -1 -96.5 -4t-84.5 -10l177 658q27 99 70 168.5t107 106t151 36.5q83 0 132 -29.5t80 -71.5l-9 -14q-22 33 -60 58t-94 25q-53 0 -86 -25t-54 -70t-38 -106zM732 519l-3 -20h-371l5 20h369zM505 85q-6 -21 -0.5 -31.5
t18.5 -10.5q20 0 40 22t32 54l16 43h19l-19 -55q-19 -57 -60 -89t-99 -32q-50 0 -77 23.5t-32 62.5t8 86l146 508q55 1 98 4t84 10z" />
    <glyph glyph-name="longs_h.liga" unicode="&#x17f;h" horiz-adv-x="905" 
d="M46 498l6 20h173l-6 -20h-173zM487 143q37 119 70.5 195t67 118.5t72 59.5t84.5 17q40 0 62 -19t26 -52.5t-11 -79.5l-99 -297q-9 -25 -3 -33.5t15 -8.5t23 10.5t30 52.5l21 56h19l-25 -73q-14 -42 -37.5 -64t-51 -30.5t-54.5 -8.5q-44 0 -71.5 18.5t-33 57t13.5 96.5
l86 259q6 18 8 30t-1 18t-11 6q-15 0 -36.5 -27t-46 -74t-49.5 -107.5t-48 -127t-40 -132.5zM466 0h-177l188 667q7 34 -1 50t-42 16l9 21q76 1 133.5 11.5t112.5 29.5zM437 733q-37 0 -59 -15.5t-35 -63.5l-221 -828q-54 -1 -96.5 -4t-84.5 -10l186 692q24 87 62.5 142
t100 81.5t153.5 26.5z" />
    <glyph glyph-name="longs_i.liga" unicode="&#x17f;i" horiz-adv-x="620" 
d="M46 498l6 20h153l-6 -20h-153zM615 751q-16 5 -31.5 9.5t-41.5 4.5q-41 0 -73.5 -7t-56.5 -23q-31 -19 -51 -54.5t-35 -89.5l-204 -765q-54 -1 -96.5 -4t-84.5 -10l186 692q23 84 60.5 139.5t93.5 86.5t117 41.5t139 10.5q29 0 58 -5.5t44 -22.5zM447 676q0 54 35 77.5
t87 23.5q44 0 66.5 -18t22.5 -45q0 -47 -35.5 -75.5t-87.5 -28.5q-43 0 -65.5 17t-22.5 49zM474 85q-7 -25 -2.5 -33.5t14.5 -8.5q9 0 23 10.5t30 52.5l21 56h19l-25 -73q-14 -41 -40 -63.5t-55 -31t-53 -8.5q-43 0 -68 20.5t-29.5 59.5t10.5 92l103 360q52 1 97 4.5
t84 10.5z" />
    <glyph glyph-name="longs_l.liga" unicode="&#x17f;l" horiz-adv-x="627" 
d="M480 85q-7 -24 0 -33t16 -9q5 0 20 9.5t31 53.5l21 56h19l-25 -73q-15 -43 -39.5 -65t-51.5 -30t-51 -8q-32 0 -55.5 11t-36.5 32.5t-14 53.5t12 75l153 509q10 34 -2 50t-61 16l7 21q82 1 145.5 11.5t122.5 29.5zM46 498l6 20h155l-6 -20h-155zM427 733q-16 0 -28 -3
t-22 -11q-10 -9 -18.5 -24.5t-15.5 -40.5l-221 -828q-54 -1 -96.5 -4t-84.5 -10l186 692q19 71 46.5 120t68.5 79q35 26 82.5 38.5t108.5 12.5h28l-1 -21h-33z" />
    <glyph glyph-name="longs_longs.liga" unicode="&#x17f;&#x17f;" horiz-adv-x="700" 
d="M47 499l6 20h196l-6 -20h-196zM144 -174q-54 -1 -96.5 -4t-84.5 -10l177 658q24 90 59.5 145t72.5 80q35 24 79 35.5t94 11.5q44 0 77 -13t50 -27l-10 -14q-11 9 -27 15.5t-45 6.5q-31 0 -58.5 -14t-51 -49.5t-41.5 -98.5zM392 499l6 20h165l-6 -20h-165zM785 762
q-14 0 -26 -3.5t-23 -12.5q-9 -8 -17.5 -21t-16 -32t-14.5 -46l-220 -821q-54 -1 -96.5 -4t-84.5 -10l186 692q23 88 54.5 145.5t74.5 88.5q32 23 69.5 33.5t81.5 10.5q74 0 115.5 -30t41.5 -82q0 -23 -13.5 -46.5t-37.5 -38.5t-57 -15q-37 0 -58.5 17.5t-21.5 50.5
q0 38 23.5 70t65.5 48q-7 3 -13 4.5t-13 1.5z" />
    <glyph glyph-name="longs_longs_h.liga" unicode="&#x17f;&#x17f;h" horiz-adv-x="1236" 
d="M46 498l6 20h201l-6 -20h-201zM143 -174q-54 -1 -96.5 -4t-84.5 -10l177 658q24 90 59.5 144.5t72.5 80.5q33 23 74.5 35t88.5 12q59 0 96.5 -16t58.5 -36l-9 -14q-14 14 -36.5 24t-55.5 10t-60.5 -13t-49.5 -48t-40 -101zM377 498l6 20h173l-6 -20h-173zM818 143
q37 119 70.5 195t67 118.5t72 59.5t84.5 17q40 0 62 -19t26 -52.5t-11 -79.5l-99 -297q-9 -25 -3 -33.5t15 -8.5t23 10.5t30 52.5l21 56h19l-25 -73q-14 -42 -37.5 -64t-51 -30.5t-54.5 -8.5q-44 0 -71.5 18.5t-33 57t13.5 96.5l86 259q6 18 8 30t-1 18t-11 6
q-15 0 -36.5 -27t-46 -74t-49.5 -107.5t-48 -127t-40 -132.5zM797 0h-177l188 667q7 34 -1 50t-42 16l9 21q76 1 133.5 11.5t112.5 29.5zM768 733q-37 0 -59 -15.5t-35 -63.5l-221 -828q-54 -1 -96.5 -4t-84.5 -10l186 692q24 87 62.5 142t100 81.5t153.5 26.5z" />
    <glyph glyph-name="longs_longs_i.liga" unicode="&#x17f;&#x17f;i" horiz-adv-x="951" 
d="M46 498l6 20h174l-6 -20h-174zM143 -174q-54 -1 -96.5 -4t-84.5 -10l177 658q24 90 59.5 144.5t72.5 80.5q33 23 74.5 35t88.5 12q59 0 96.5 -16t58.5 -36l-9 -14q-14 14 -36.5 24t-55.5 10q-21 0 -39.5 -5t-35.5 -17q-22 -16 -41 -49.5t-34 -90.5zM377 498l6 20h153
l-6 -20h-153zM946 751q-16 5 -31.5 9.5t-41.5 4.5q-41 0 -73.5 -7t-56.5 -23q-31 -19 -51 -54.5t-35 -89.5l-204 -765q-54 -1 -96.5 -4t-84.5 -10l186 692q23 84 60.5 139.5t93.5 86.5t117 41.5t139 10.5q29 0 58 -5.5t44 -22.5zM778 676q0 54 35 77.5t87 23.5
q44 0 66.5 -18t22.5 -45q0 -47 -35.5 -75.5t-87.5 -28.5q-43 0 -65.5 17t-22.5 49zM805 85q-7 -25 -2.5 -33.5t14.5 -8.5q9 0 23 10.5t30 52.5l21 56h19l-25 -73q-14 -41 -40 -63.5t-55 -31t-53 -8.5q-43 0 -68 20.5t-29.5 59.5t10.5 92l103 360q52 1 97 4.5t84 10.5z" />
    <glyph glyph-name="longs_longs_l.liga" unicode="&#x17f;&#x17f;l" horiz-adv-x="958" 
d="M46 498l6 20h200l-6 -20h-200zM143 -174q-54 -1 -96.5 -4t-84.5 -10l177 658q24 90 59.5 144.5t72.5 80.5q33 23 74.5 35t88.5 12q59 0 96.5 -16t58.5 -36l-9 -14q-14 14 -36.5 24t-55.5 10q-23 0 -43.5 -5.5t-38.5 -21.5q-20 -17 -37 -49.5t-31 -85.5zM811 85
q-7 -24 0 -33t16 -9q5 0 20 9.5t31 53.5l21 56h19l-25 -73q-15 -43 -39.5 -65t-51.5 -30t-51 -8q-32 0 -55.5 11t-36.5 32.5t-14 53.5t12 75l153 509q10 34 -2 50t-61 16l7 21q82 1 145.5 11.5t122.5 29.5zM377 498l6 20h155l-6 -20h-155zM758 733q-16 0 -28 -3t-22 -11
q-10 -9 -18.5 -24.5t-15.5 -40.5l-221 -828q-54 -1 -96.5 -4t-84.5 -10l186 692q19 71 46.5 120t68.5 79q35 26 82.5 38.5t108.5 12.5h28l-1 -21h-33z" />
    <glyph glyph-name="longs_longs_t.liga" unicode="&#x17f;&#x17f;t" horiz-adv-x="1008" 
d="M46 498l6 20h201l-6 -20h-201zM143 -174q-54 -1 -96.5 -4t-84.5 -10l177 658q24 90 59.5 144.5t72.5 80.5q33 23 74.5 35t88.5 12q59 0 96.5 -16t58.5 -36l-9 -14q-14 14 -36.5 24t-55.5 10t-60.5 -13t-49.5 -48t-40 -101zM1063 519l-3 -20h-371l5 20h369zM836 85
q-6 -21 -0.5 -31.5t18.5 -10.5q20 0 40 22t32 54l16 43h19l-19 -55q-19 -57 -60 -89t-99 -32q-50 0 -77 23.5t-32 62.5t8 86l146 508q55 1 98 4t84 10zM377 498l6 20h174l-6 -20h-174zM474 -174q-54 -1 -96.5 -4t-84.5 -10l177 658q27 99 70 168.5t107 106t151 36.5
q83 0 132 -29.5t80 -71.5l-9 -14q-22 33 -60 58t-94 25q-53 0 -86 -25t-54 -70t-38 -106z" />
    <glyph glyph-name=".notdef" horiz-adv-x="562" 
d="M60 772h442v-772h-442v772zM96 30h370v712h-370v-712z" />
    <glyph glyph-name="A" unicode="A" horiz-adv-x="669" 
d="M47 131q-27 -38 -24 -61.5t28.5 -35t63.5 -14.5l-4 -20q-52 2 -83 2.5t-59 0.5q-21 0 -35 -0.5t-30 -2.5l4 20q20 6 36.5 18t36.5 36.5t49 64.5l408 574q18 -2 38.5 -2t36.5 2l40 -629q3 -36 18.5 -49.5t30.5 -14.5l-4 -20q-29 2 -78 2.5t-91 0.5q-51 0 -97 -0.5
t-73 -2.5l4 20q48 2 68.5 17.5t17.5 66.5l-23 438l53 58zM149 288h292l-8 -20h-302z" />
    <glyph glyph-name="Aacute" unicode="&#xc1;" horiz-adv-x="669" 
d="M47 131q-27 -38 -24 -61.5t28.5 -35t63.5 -14.5l-4 -20q-52 2 -83 2.5t-59 0.5q-21 0 -35 -0.5t-30 -2.5l4 20q20 6 36.5 18t36.5 36.5t49 64.5l408 574q18 -2 38.5 -2t36.5 2l40 -629q3 -36 18.5 -49.5t30.5 -14.5l-4 -20q-29 2 -78 2.5t-91 0.5q-51 0 -97 -0.5
t-73 -2.5l4 20q48 2 68.5 17.5t17.5 66.5l-23 438l53 58zM149 288h292l-8 -20h-302zM460 784q48 42 78 75.5t54.5 58.5t53.5 40q17 9 37.5 11t40 -5.5t30.5 -28.5q15 -28 0.5 -52t-45.5 -41q-26 -14 -60 -22.5t-78.5 -18.5t-103.5 -29z" />
    <glyph glyph-name="Abreve" unicode="&#x102;" horiz-adv-x="669" 
d="M47 131q-27 -38 -24 -61.5t28.5 -35t63.5 -14.5l-4 -20q-52 2 -83 2.5t-59 0.5q-21 0 -35 -0.5t-30 -2.5l4 20q20 6 36.5 18t36.5 36.5t49 64.5l408 574q18 -2 38.5 -2t36.5 2l40 -629q3 -36 18.5 -49.5t30.5 -14.5l-4 -20q-29 2 -78 2.5t-91 0.5q-51 0 -97 -0.5
t-73 -2.5l4 20q48 2 68.5 17.5t17.5 66.5l-23 438l53 58zM149 288h292l-8 -20h-302zM495 882q73 0 129 14t104 42l12 -9q-26 -43 -67.5 -81t-92.5 -61.5t-106 -23.5q-49 0 -82.5 22t-53.5 59t-28 82l15 8q31 -26 70 -39t100 -13z" />
    <glyph glyph-name="uni1EAE" unicode="&#x1eae;" horiz-adv-x="669" 
d="M47 131q-27 -38 -24 -61.5t28.5 -35t63.5 -14.5l-4 -20q-52 2 -83 2.5t-59 0.5q-21 0 -35 -0.5t-30 -2.5l4 20q20 6 36.5 18t36.5 36.5t49 64.5l408 574q18 -2 38.5 -2t36.5 2l40 -629q3 -36 18.5 -49.5t30.5 -14.5l-4 -20q-29 2 -78 2.5t-91 0.5q-51 0 -97 -0.5
t-73 -2.5l4 20q48 2 68.5 17.5t17.5 66.5l-23 438l53 58zM149 288h292l-8 -20h-302zM495 882q73 0 129 14t104 42l12 -9q-26 -43 -67.5 -81t-92.5 -61.5t-106 -23.5q-49 0 -82.5 22t-53.5 59t-28 82l15 8q31 -26 70 -39t100 -13zM504 958q48 42 78 75.5t54.5 58.5t53.5 40
q17 9 37.5 11t40 -5.5t30.5 -28.5q15 -28 0.5 -52t-45.5 -41q-26 -14 -60 -22.5t-78.5 -18.5t-103.5 -29z" />
    <glyph glyph-name="uni1EB6" unicode="&#x1eb6;" horiz-adv-x="669" 
d="M47 131q-27 -38 -24 -61.5t28.5 -35t63.5 -14.5l-4 -20q-52 2 -83 2.5t-59 0.5q-21 0 -35 -0.5t-30 -2.5l4 20q20 6 36.5 18t36.5 36.5t49 64.5l408 574q18 -2 38.5 -2t36.5 2l40 -629q3 -36 18.5 -49.5t30.5 -14.5l-4 -20q-29 2 -78 2.5t-91 0.5q-51 0 -97 -0.5
t-73 -2.5l4 20q48 2 68.5 17.5t17.5 66.5l-23 438l53 58zM149 288h292l-8 -20h-302zM495 882q73 0 129 14t104 42l12 -9q-26 -43 -67.5 -81t-92.5 -61.5t-106 -23.5q-49 0 -82.5 22t-53.5 59t-28 82l15 8q31 -26 70 -39t100 -13zM219 -191q-36 0 -55 14t-19 42q0 43 27 66.5
t74 23.5q36 0 55 -14t19 -42q0 -43 -27 -66.5t-74 -23.5z" />
    <glyph glyph-name="uni1EB0" unicode="&#x1eb0;" horiz-adv-x="669" 
d="M47 131q-27 -38 -24 -61.5t28.5 -35t63.5 -14.5l-4 -20q-52 2 -83 2.5t-59 0.5q-21 0 -35 -0.5t-30 -2.5l4 20q20 6 36.5 18t36.5 36.5t49 64.5l408 574q18 -2 38.5 -2t36.5 2l40 -629q3 -36 18.5 -49.5t30.5 -14.5l-4 -20q-29 2 -78 2.5t-91 0.5q-51 0 -97 -0.5
t-73 -2.5l4 20q48 2 68.5 17.5t17.5 66.5l-23 438l53 58zM149 288h292l-8 -20h-302zM495 882q73 0 129 14t104 42l12 -9q-26 -43 -67.5 -81t-92.5 -61.5t-106 -23.5q-49 0 -82.5 22t-53.5 59t-28 82l15 8q31 -26 70 -39t100 -13zM578 946q-58 18 -97 24.5t-65.5 10.5
t-49.5 16q-25 13 -35 37.5t2 48.5q14 28 43 34.5t51 -4.5q25 -11 42 -31.5t42.5 -51t73.5 -72.5z" />
    <glyph glyph-name="uni1EB2" unicode="&#x1eb2;" horiz-adv-x="669" 
d="M47 131q-27 -38 -24 -61.5t28.5 -35t63.5 -14.5l-4 -20q-52 2 -83 2.5t-59 0.5q-21 0 -35 -0.5t-30 -2.5l4 20q20 6 36.5 18t36.5 36.5t49 64.5l408 574q18 -2 38.5 -2t36.5 2l40 -629q3 -36 18.5 -49.5t30.5 -14.5l-4 -20q-29 2 -78 2.5t-91 0.5q-51 0 -97 -0.5
t-73 -2.5l4 20q48 2 68.5 17.5t17.5 66.5l-23 438l53 58zM149 288h292l-8 -20h-302zM495 882q73 0 129 14t104 42l12 -9q-26 -43 -67.5 -81t-92.5 -61.5t-106 -23.5q-49 0 -82.5 22t-53.5 59t-28 82l15 8q31 -26 70 -39t100 -13zM516 963q5 31 19 48.5t29.5 30t26.5 29
t11 46.5q0 35 -17 49.5t-46 14.5q-16 0 -28 -3t-17 -6q19 -7 30.5 -21t11.5 -35q0 -28 -20.5 -45t-48.5 -17q-25 0 -40 14t-15 37q0 25 17.5 43t42.5 30q24 11 52.5 17t61.5 6q56 0 90.5 -18.5t34.5 -59.5q0 -29 -16 -45t-40.5 -25.5t-50 -19t-44.5 -25.5t-24 -45h-20z" />
    <glyph glyph-name="uni1EB4" unicode="&#x1eb4;" horiz-adv-x="669" 
d="M47 131q-27 -38 -24 -61.5t28.5 -35t63.5 -14.5l-4 -20q-52 2 -83 2.5t-59 0.5q-21 0 -35 -0.5t-30 -2.5l4 20q20 6 36.5 18t36.5 36.5t49 64.5l408 574q18 -2 38.5 -2t36.5 2l40 -629q3 -36 18.5 -49.5t30.5 -14.5l-4 -20q-29 2 -78 2.5t-91 0.5q-51 0 -97 -0.5
t-73 -2.5l4 20q48 2 68.5 17.5t17.5 66.5l-23 438l53 58zM149 288h292l-8 -20h-302zM495 882q73 0 129 14t104 42l12 -9q-26 -43 -67.5 -81t-92.5 -61.5t-106 -23.5q-49 0 -82.5 22t-53.5 59t-28 82l15 8q31 -26 70 -39t100 -13zM493 1122q39 0 65 -11t46 -25.5t40.5 -25.5
t49.5 -11q23 0 43 13.5t39 44.5l18 -5q-32 -87 -84.5 -125t-105.5 -38q-39 0 -65 11t-46 25.5t-40.5 25.5t-49.5 11q-23 0 -42.5 -13t-39.5 -45l-18 5q32 87 84.5 125t105.5 38z" />
    <glyph glyph-name="uni01CD" unicode="&#x1cd;" horiz-adv-x="669" 
d="M47 131q-27 -38 -24 -61.5t28.5 -35t63.5 -14.5l-4 -20q-52 2 -83 2.5t-59 0.5q-21 0 -35 -0.5t-30 -2.5l4 20q20 6 36.5 18t36.5 36.5t49 64.5l408 574q18 -2 38.5 -2t36.5 2l40 -629q3 -36 18.5 -49.5t30.5 -14.5l-4 -20q-29 2 -78 2.5t-91 0.5q-51 0 -97 -0.5
t-73 -2.5l4 20q48 2 68.5 17.5t17.5 66.5l-23 438l53 58zM149 288h292l-8 -20h-302zM559 892q47 16 104 30t121 24l5 -14q-91 -28 -169.5 -75t-125.5 -97h-18q-19 59 -49.5 99.5t-89.5 72.5l4 14q50 -8 88 -16.5t69.5 -17.5t60.5 -20z" />
    <glyph glyph-name="Acircumflex" unicode="&#xc2;" horiz-adv-x="669" 
d="M47 131q-27 -38 -24 -61.5t28.5 -35t63.5 -14.5l-4 -20q-52 2 -83 2.5t-59 0.5q-21 0 -35 -0.5t-30 -2.5l4 20q20 6 36.5 18t36.5 36.5t49 64.5l408 574q18 -2 38.5 -2t36.5 2l40 -629q3 -36 18.5 -49.5t30.5 -14.5l-4 -20q-29 2 -78 2.5t-91 0.5q-51 0 -97 -0.5
t-73 -2.5l4 20q48 2 68.5 17.5t17.5 66.5l-23 438l53 58zM149 288h292l-8 -20h-302zM477 824q-46 -16 -103.5 -29.5t-121.5 -24.5l-5 14q91 29 169.5 75.5t125.5 96.5h18q19 -58 49.5 -99t89.5 -73l-4 -14q-50 8 -88 16.5t-69 17.5t-61 20z" />
    <glyph glyph-name="uni1EA4" unicode="&#x1ea4;" horiz-adv-x="669" 
d="M47 131q-27 -38 -24 -61.5t28.5 -35t63.5 -14.5l-4 -20q-52 2 -83 2.5t-59 0.5q-21 0 -35 -0.5t-30 -2.5l4 20q20 6 36.5 18t36.5 36.5t49 64.5l408 574q18 -2 38.5 -2t36.5 2l40 -629q3 -36 18.5 -49.5t30.5 -14.5l-4 -20q-29 2 -78 2.5t-91 0.5q-51 0 -97 -0.5
t-73 -2.5l4 20q48 2 68.5 17.5t17.5 66.5l-23 438l53 58zM149 288h292l-8 -20h-302zM477 824q-46 -16 -103.5 -29.5t-121.5 -24.5l-5 14q91 29 169.5 75.5t125.5 96.5h18q19 -58 49.5 -99t89.5 -73l-4 -14q-50 8 -88 16.5t-69 17.5t-61 20zM515 1004q48 42 78 75.5
t54.5 58.5t53.5 40q17 9 37.5 11t40 -5.5t30.5 -28.5q15 -28 0.5 -52t-45.5 -41q-26 -14 -60 -22.5t-78.5 -18.5t-103.5 -29z" />
    <glyph glyph-name="uni1EAC" unicode="&#x1eac;" horiz-adv-x="669" 
d="M47 131q-27 -38 -24 -61.5t28.5 -35t63.5 -14.5l-4 -20q-52 2 -83 2.5t-59 0.5q-21 0 -35 -0.5t-30 -2.5l4 20q20 6 36.5 18t36.5 36.5t49 64.5l408 574q18 -2 38.5 -2t36.5 2l40 -629q3 -36 18.5 -49.5t30.5 -14.5l-4 -20q-29 2 -78 2.5t-91 0.5q-51 0 -97 -0.5
t-73 -2.5l4 20q48 2 68.5 17.5t17.5 66.5l-23 438l53 58zM149 288h292l-8 -20h-302zM477 824q-46 -16 -103.5 -29.5t-121.5 -24.5l-5 14q91 29 169.5 75.5t125.5 96.5h18q19 -58 49.5 -99t89.5 -73l-4 -14q-50 8 -88 16.5t-69 17.5t-61 20zM219 -191q-36 0 -55 14t-19 42
q0 43 27 66.5t74 23.5q36 0 55 -14t19 -42q0 -43 -27 -66.5t-74 -23.5z" />
    <glyph glyph-name="uni1EA6" unicode="&#x1ea6;" horiz-adv-x="669" 
d="M47 131q-27 -38 -24 -61.5t28.5 -35t63.5 -14.5l-4 -20q-52 2 -83 2.5t-59 0.5q-21 0 -35 -0.5t-30 -2.5l4 20q20 6 36.5 18t36.5 36.5t49 64.5l408 574q18 -2 38.5 -2t36.5 2l40 -629q3 -36 18.5 -49.5t30.5 -14.5l-4 -20q-29 2 -78 2.5t-91 0.5q-51 0 -97 -0.5
t-73 -2.5l4 20q48 2 68.5 17.5t17.5 66.5l-23 438l53 58zM149 288h292l-8 -20h-302zM477 824q-46 -16 -103.5 -29.5t-121.5 -24.5l-5 14q91 29 169.5 75.5t125.5 96.5h18q19 -58 49.5 -99t89.5 -73l-4 -14q-50 8 -88 16.5t-69 17.5t-61 20zM589 992q-58 18 -97 24.5
t-65.5 10.5t-49.5 16q-25 13 -35 37.5t2 48.5q14 28 43 34.5t51 -4.5q25 -11 42 -31.5t42.5 -51t73.5 -72.5z" />
    <glyph glyph-name="uni1EA8" unicode="&#x1ea8;" horiz-adv-x="669" 
d="M47 131q-27 -38 -24 -61.5t28.5 -35t63.5 -14.5l-4 -20q-52 2 -83 2.5t-59 0.5q-21 0 -35 -0.5t-30 -2.5l4 20q20 6 36.5 18t36.5 36.5t49 64.5l408 574q18 -2 38.5 -2t36.5 2l40 -629q3 -36 18.5 -49.5t30.5 -14.5l-4 -20q-29 2 -78 2.5t-91 0.5q-51 0 -97 -0.5
t-73 -2.5l4 20q48 2 68.5 17.5t17.5 66.5l-23 438l53 58zM149 288h292l-8 -20h-302zM477 824q-46 -16 -103.5 -29.5t-121.5 -24.5l-5 14q91 29 169.5 75.5t125.5 96.5h18q19 -58 49.5 -99t89.5 -73l-4 -14q-50 8 -88 16.5t-69 17.5t-61 20zM723 915q5 31 19 48.5t29.5 30
t26.5 29t11 46.5q0 35 -17 49.5t-46 14.5q-16 0 -28 -3t-17 -6q19 -7 30.5 -21t11.5 -35q0 -28 -20.5 -45t-48.5 -17q-25 0 -40 14t-15 37q0 25 17.5 43t42.5 30q24 11 52.5 17t61.5 6q56 0 90.5 -18.5t34.5 -59.5q0 -29 -16 -45t-40.5 -25.5t-50 -19t-44.5 -25.5t-24 -45
h-20z" />
    <glyph glyph-name="uni1EAA" unicode="&#x1eaa;" horiz-adv-x="669" 
d="M47 131q-27 -38 -24 -61.5t28.5 -35t63.5 -14.5l-4 -20q-52 2 -83 2.5t-59 0.5q-21 0 -35 -0.5t-30 -2.5l4 20q20 6 36.5 18t36.5 36.5t49 64.5l408 574q18 -2 38.5 -2t36.5 2l40 -629q3 -36 18.5 -49.5t30.5 -14.5l-4 -20q-29 2 -78 2.5t-91 0.5q-51 0 -97 -0.5
t-73 -2.5l4 20q48 2 68.5 17.5t17.5 66.5l-23 438l53 58zM149 288h292l-8 -20h-302zM477 824q-46 -16 -103.5 -29.5t-121.5 -24.5l-5 14q91 29 169.5 75.5t125.5 96.5h18q19 -58 49.5 -99t89.5 -73l-4 -14q-50 8 -88 16.5t-69 17.5t-61 20zM504 1168q39 0 65 -11t46 -25.5
t40.5 -25.5t49.5 -11q23 0 43 13.5t39 44.5l18 -5q-32 -87 -84.5 -125t-105.5 -38q-39 0 -65 11t-46 25.5t-40.5 25.5t-49.5 11q-23 0 -42.5 -13t-39.5 -45l-18 5q32 87 84.5 125t105.5 38z" />
    <glyph glyph-name="Adieresis" unicode="&#xc4;" horiz-adv-x="669" 
d="M47 131q-27 -38 -24 -61.5t28.5 -35t63.5 -14.5l-4 -20q-52 2 -83 2.5t-59 0.5q-21 0 -35 -0.5t-30 -2.5l4 20q20 6 36.5 18t36.5 36.5t49 64.5l408 574q18 -2 38.5 -2t36.5 2l40 -629q3 -36 18.5 -49.5t30.5 -14.5l-4 -20q-29 2 -78 2.5t-91 0.5q-51 0 -97 -0.5
t-73 -2.5l4 20q48 2 68.5 17.5t17.5 66.5l-23 438l53 58zM149 288h292l-8 -20h-302zM274 838q0 52 30.5 75t68.5 23q40 0 57.5 -21.5t17.5 -56.5q0 -34 -15 -55.5t-37.5 -31t-47.5 -9.5q-40 0 -57 21t-17 55zM532 838q0 52 30.5 75t68.5 23q40 0 57.5 -21.5t17.5 -56.5
q0 -34 -15 -55.5t-37.5 -31t-47.5 -9.5q-40 0 -57 21t-17 55z" />
    <glyph glyph-name="uni1EA0" unicode="&#x1ea0;" horiz-adv-x="669" 
d="M47 131q-27 -38 -24 -61.5t28.5 -35t63.5 -14.5l-4 -20q-52 2 -83 2.5t-59 0.5q-21 0 -35 -0.5t-30 -2.5l4 20q20 6 36.5 18t36.5 36.5t49 64.5l408 574q18 -2 38.5 -2t36.5 2l40 -629q3 -36 18.5 -49.5t30.5 -14.5l-4 -20q-29 2 -78 2.5t-91 0.5q-51 0 -97 -0.5
t-73 -2.5l4 20q48 2 68.5 17.5t17.5 66.5l-23 438l53 58zM149 288h292l-8 -20h-302zM219 -191q-36 0 -55 14t-19 42q0 43 27 66.5t74 23.5q36 0 55 -14t19 -42q0 -43 -27 -66.5t-74 -23.5z" />
    <glyph glyph-name="Agrave" unicode="&#xc0;" horiz-adv-x="669" 
d="M47 131q-27 -38 -24 -61.5t28.5 -35t63.5 -14.5l-4 -20q-52 2 -83 2.5t-59 0.5q-21 0 -35 -0.5t-30 -2.5l4 20q20 6 36.5 18t36.5 36.5t49 64.5l408 574q18 -2 38.5 -2t36.5 2l40 -629q3 -36 18.5 -49.5t30.5 -14.5l-4 -20q-29 2 -78 2.5t-91 0.5q-51 0 -97 -0.5
t-73 -2.5l4 20q48 2 68.5 17.5t17.5 66.5l-23 438l53 58zM149 288h292l-8 -20h-302zM534 772q-58 18 -97 24.5t-65.5 10.5t-49.5 16q-25 13 -35 37.5t2 48.5q14 28 43 34.5t51 -4.5q25 -11 42 -31.5t42.5 -51t73.5 -72.5z" />
    <glyph glyph-name="uni1EA2" unicode="&#x1ea2;" horiz-adv-x="669" 
d="M47 131q-27 -38 -24 -61.5t28.5 -35t63.5 -14.5l-4 -20q-52 2 -83 2.5t-59 0.5q-21 0 -35 -0.5t-30 -2.5l4 20q20 6 36.5 18t36.5 36.5t49 64.5l408 574q18 -2 38.5 -2t36.5 2l40 -629q3 -36 18.5 -49.5t30.5 -14.5l-4 -20q-29 2 -78 2.5t-91 0.5q-51 0 -97 -0.5
t-73 -2.5l4 20q48 2 68.5 17.5t17.5 66.5l-23 438l53 58zM149 288h292l-8 -20h-302zM467 739q5 31 19 48.5t29.5 30t26.5 29t11 46.5q0 35 -17 49.5t-46 14.5q-16 0 -28 -3t-17 -6q19 -7 30.5 -21t11.5 -35q0 -28 -20.5 -45t-48.5 -17q-25 0 -40 14t-15 37q0 25 17.5 43
t42.5 30q24 11 52.5 17t61.5 6q56 0 90.5 -18.5t34.5 -59.5q0 -29 -16 -45t-40.5 -25.5t-50 -19t-44.5 -25.5t-24 -45h-20z" />
    <glyph glyph-name="Amacron" unicode="&#x100;" horiz-adv-x="669" 
d="M47 131q-27 -38 -24 -61.5t28.5 -35t63.5 -14.5l-4 -20q-52 2 -83 2.5t-59 0.5q-21 0 -35 -0.5t-30 -2.5l4 20q20 6 36.5 18t36.5 36.5t49 64.5l408 574q18 -2 38.5 -2t36.5 2l40 -629q3 -36 18.5 -49.5t30.5 -14.5l-4 -20q-29 2 -78 2.5t-91 0.5q-51 0 -97 -0.5
t-73 -2.5l4 20q48 2 68.5 17.5t17.5 66.5l-23 438l53 58zM149 288h292l-8 -20h-302zM698 844l-6 -25h-432l6 25h432z" />
    <glyph glyph-name="Aogonek" unicode="&#x104;" horiz-adv-x="669" 
d="M47 131q-27 -38 -24 -61.5t28.5 -35t63.5 -14.5l-4 -20q-52 2 -83 2.5t-59 0.5q-21 0 -35 -0.5t-30 -2.5l4 20q20 6 36.5 18t36.5 36.5t49 64.5l408 574q18 -2 38.5 -2t36.5 2l40 -629q3 -36 18.5 -49.5t30.5 -14.5l-4 -20q-29 2 -78 2.5t-91 0.5q-51 0 -97 -0.5
t-73 -2.5l4 20q48 2 68.5 17.5t17.5 66.5l-23 438l53 58zM149 288h292l-8 -20h-302zM549 3q-33 -13 -54.5 -33t-32 -41t-10.5 -40q0 -26 29 -26q14 0 32.5 4.5t38.5 14.5l11 -17q-40 -28 -78 -40.5t-79 -12.5t-66 16t-25 45q0 31 30.5 56t80 43.5t105.5 30.5h18z" />
    <glyph glyph-name="Aring" unicode="&#xc5;" horiz-adv-x="669" 
d="M47 131q-27 -38 -24 -61.5t28.5 -35t63.5 -14.5l-4 -20q-52 2 -83 2.5t-59 0.5q-21 0 -35 -0.5t-30 -2.5l4 20q20 6 36.5 18t36.5 36.5t49 64.5l408 574q18 -2 38.5 -2t36.5 2l40 -629q3 -36 18.5 -49.5t30.5 -14.5l-4 -20q-29 2 -78 2.5t-91 0.5q-51 0 -97 -0.5
t-73 -2.5l4 20q48 2 68.5 17.5t17.5 66.5l-23 438l53 58zM149 288h292l-8 -20h-302zM504 945q45 0 75.5 -24t30.5 -65q0 -31 -18.5 -57t-49 -41.5t-65.5 -15.5q-43 0 -72.5 24t-29.5 66q0 32 17 57.5t46.5 40.5t65.5 15zM482 763q26 0 49.5 12t38 33t14.5 46q0 36 -27 53
t-56 17q-40 0 -69.5 -28t-29.5 -64q0 -34 25 -51.5t55 -17.5z" />
    <glyph glyph-name="Atilde" unicode="&#xc3;" horiz-adv-x="669" 
d="M47 131q-27 -38 -24 -61.5t28.5 -35t63.5 -14.5l-4 -20q-52 2 -83 2.5t-59 0.5q-21 0 -35 -0.5t-30 -2.5l4 20q20 6 36.5 18t36.5 36.5t49 64.5l408 574q18 -2 38.5 -2t36.5 2l40 -629q3 -36 18.5 -49.5t30.5 -14.5l-4 -20q-29 2 -78 2.5t-91 0.5q-51 0 -97 -0.5
t-73 -2.5l4 20q48 2 68.5 17.5t17.5 66.5l-23 438l53 58zM149 288h292l-8 -20h-302zM449 948q39 0 65 -11t46 -25.5t40.5 -25.5t49.5 -11q23 0 43 13.5t39 44.5l18 -5q-32 -87 -84.5 -125t-105.5 -38q-39 0 -65 11t-46 25.5t-40.5 25.5t-49.5 11q-23 0 -42.5 -13t-39.5 -45
l-18 5q32 87 84.5 125t105.5 38z" />
    <glyph glyph-name="AE" unicode="&#xc6;" horiz-adv-x="910" 
d="M591 773l-561 -679q-19 -22 -26 -37.5t6 -24.5t53 -12v-20q-13 2 -37 2.5t-49 0.5q-18 0 -36.5 -0.5t-30.5 -2.5v20q31 2 86 64l569 689h26zM222 346l19 20h492l-4 -20h-507zM662 366q30 0 48.5 16t31 41.5t23.5 54.5h22q-13 -39 -19.5 -64.5t-14.5 -57.5
q-6 -22 -11.5 -47t-14.5 -75h-22q0 17 3 36t2 35.5t-12.5 27.5t-39.5 13zM535 106q-9 -36 -8 -54t16.5 -23.5t48.5 -5.5h53q48 0 79.5 17t54.5 55.5t45 104.5h22q-5 -13 -10.5 -32t-10.5 -40q-5 -19 -13 -54.5t-13 -73.5q-51 2 -113.5 2.5t-112.5 0.5h-68t-89.5 -0.5
t-97.5 -1t-93 -1.5l4 20q34 2 53 8t30 24t20 54l132 496q10 37 8 54.5t-17.5 24t-49.5 7.5l5 20q43 -1 92 -1.5t97.5 -1t89.5 -0.5h68q46 0 103 0.5t104 2.5q-13 -35 -23 -68t-15 -50q-5 -18 -8 -34.5l-5 -27.5h-22q16 89 -2.5 123t-78.5 34h-43q-33 0 -51.5 -5.5t-28.5 -23
t-20 -54.5z" />
    <glyph glyph-name="B" unicode="B" horiz-adv-x="710" 
d="M460 707q131 0 186.5 -36.5t55.5 -98.5q0 -53 -36 -98t-105.5 -73t-170.5 -31q127 2 196.5 -41t69.5 -109q0 -52 -24 -93t-69 -69.5t-110 -43t-147 -14.5q-27 0 -67 1.5t-110 1.5q-27 0 -60 -0.5t-64.5 -1t-52.5 -1.5l4 20q34 2 53 8t30 24t20 54l132 496q8 31 8.5 49.5
t-14 27t-53.5 9.5l5 20q21 -1 52 -1.5t64 -1t58 -0.5q54 0 86 1t63 1zM277 359l4 17h67q53 0 88 33t52.5 85.5t17.5 108.5q0 35 -10.5 60t-45.5 25q-21 0 -31.5 -14t-21.5 -57l-135 -511q-4 -17 -7 -36.5t5 -33t34 -13.5q44 0 77.5 32t53 82t19.5 103q0 31 -8.5 58t-29.5 44
t-58 17h-71z" />
    <glyph glyph-name="C" unicode="C" horiz-adv-x="708" 
d="M768 708q-15 -39 -31 -94.5t-33 -135.5h-22q9 50 9.5 90t-16.5 69q-19 33 -46 45t-64 12q-48 0 -92.5 -24.5t-81.5 -69t-65 -103.5t-43.5 -129t-15.5 -145q0 -104 35.5 -151.5t95.5 -47.5q33 0 68.5 15t61.5 43q27 29 46.5 64.5t43.5 93.5h22q-25 -91 -38.5 -146.5
t-20.5 -93.5h-22q3 21 3 34q0 20 -8 24.5t-25 -7.5q-26 -18 -57.5 -33t-67 -23.5t-75.5 -8.5q-153 0 -222.5 68t-69.5 188q0 72 24 141.5t69 130.5t108 108t140.5 73.5t165.5 26.5q40 0 67.5 -9t47 -24t33.5 -32q13 -16 26.5 -3t28.5 54h21z" />
    <glyph glyph-name="Cacute" unicode="&#x106;" horiz-adv-x="708" 
d="M768 708q-15 -39 -31 -94.5t-33 -135.5h-22q9 50 9.5 90t-16.5 69q-19 33 -46 45t-64 12q-48 0 -92.5 -24.5t-81.5 -69t-65 -103.5t-43.5 -129t-15.5 -145q0 -104 35.5 -151.5t95.5 -47.5q33 0 68.5 15t61.5 43q27 29 46.5 64.5t43.5 93.5h22q-25 -91 -38.5 -146.5
t-20.5 -93.5h-22q3 21 3 34q0 20 -8 24.5t-25 -7.5q-26 -18 -57.5 -33t-67 -23.5t-75.5 -8.5q-153 0 -222.5 68t-69.5 188q0 72 24 141.5t69 130.5t108 108t140.5 73.5t165.5 26.5q40 0 67.5 -9t47 -24t33.5 -32q13 -16 26.5 -3t28.5 54h21zM495 784q48 42 78 75.5
t54.5 58.5t53.5 40q17 9 37.5 11t40 -5.5t30.5 -28.5q15 -28 0.5 -52t-45.5 -41q-26 -14 -60 -22.5t-78.5 -18.5t-103.5 -29z" />
    <glyph glyph-name="Ccaron" unicode="&#x10c;" horiz-adv-x="708" 
d="M768 708q-15 -39 -31 -94.5t-33 -135.5h-22q9 50 9.5 90t-16.5 69q-19 33 -46 45t-64 12q-48 0 -92.5 -24.5t-81.5 -69t-65 -103.5t-43.5 -129t-15.5 -145q0 -104 35.5 -151.5t95.5 -47.5q33 0 68.5 15t61.5 43q27 29 46.5 64.5t43.5 93.5h22q-25 -91 -38.5 -146.5
t-20.5 -93.5h-22q3 21 3 34q0 20 -8 24.5t-25 -7.5q-26 -18 -57.5 -33t-67 -23.5t-75.5 -8.5q-153 0 -222.5 68t-69.5 188q0 72 24 141.5t69 130.5t108 108t140.5 73.5t165.5 26.5q40 0 67.5 -9t47 -24t33.5 -32q13 -16 26.5 -3t28.5 54h21zM594 892q47 16 104 30t121 24
l5 -14q-91 -28 -169.5 -75t-125.5 -97h-18q-19 59 -49.5 99.5t-89.5 72.5l4 14q50 -8 88 -16.5t69.5 -17.5t60.5 -20z" />
    <glyph glyph-name="Ccedilla" unicode="&#xc7;" horiz-adv-x="708" 
d="M768 708q-15 -39 -31 -94.5t-33 -135.5h-22q9 50 9.5 90t-16.5 69q-19 33 -46 45t-64 12q-48 0 -92.5 -24.5t-81.5 -69t-65 -103.5t-43.5 -129t-15.5 -145q0 -104 35.5 -151.5t95.5 -47.5q33 0 68.5 15t61.5 43q27 29 46.5 64.5t43.5 93.5h22q-25 -91 -38.5 -146.5
t-20.5 -93.5h-22q3 21 3 34q0 20 -8 24.5t-25 -7.5q-26 -18 -57.5 -33t-67 -23.5t-75.5 -8.5q-153 0 -222.5 68t-69.5 188q0 72 24 141.5t69 130.5t108 108t140.5 73.5t165.5 26.5q40 0 67.5 -9t47 -24t33.5 -32q13 -16 26.5 -3t28.5 54h21zM352 7l-28 -64q14 5 30.5 8.5
t31.5 3.5q34 0 55.5 -12.5t21.5 -40.5q0 -33 -27 -52.5t-68.5 -28.5t-85.5 -9q-38 0 -69.5 6.5t-46.5 11.5l6 16q9 -2 34 -6t47 -4q16 0 35 3t33 12t14 27q0 23 -28 23q-5 0 -14 -1.5t-17 -5.5l49 113h27z" />
    <glyph glyph-name="Ccircumflex" unicode="&#x108;" horiz-adv-x="708" 
d="M768 708q-15 -39 -31 -94.5t-33 -135.5h-22q9 50 9.5 90t-16.5 69q-19 33 -46 45t-64 12q-48 0 -92.5 -24.5t-81.5 -69t-65 -103.5t-43.5 -129t-15.5 -145q0 -104 35.5 -151.5t95.5 -47.5q33 0 68.5 15t61.5 43q27 29 46.5 64.5t43.5 93.5h22q-25 -91 -38.5 -146.5
t-20.5 -93.5h-22q3 21 3 34q0 20 -8 24.5t-25 -7.5q-26 -18 -57.5 -33t-67 -23.5t-75.5 -8.5q-153 0 -222.5 68t-69.5 188q0 72 24 141.5t69 130.5t108 108t140.5 73.5t165.5 26.5q40 0 67.5 -9t47 -24t33.5 -32q13 -16 26.5 -3t28.5 54h21zM512 824q-46 -16 -103.5 -29.5
t-121.5 -24.5l-5 14q91 29 169.5 75.5t125.5 96.5h18q19 -58 49.5 -99t89.5 -73l-4 -14q-50 8 -88 16.5t-69 17.5t-61 20z" />
    <glyph glyph-name="Cdotaccent" unicode="&#x10a;" horiz-adv-x="708" 
d="M768 708q-15 -39 -31 -94.5t-33 -135.5h-22q9 50 9.5 90t-16.5 69q-19 33 -46 45t-64 12q-48 0 -92.5 -24.5t-81.5 -69t-65 -103.5t-43.5 -129t-15.5 -145q0 -104 35.5 -151.5t95.5 -47.5q33 0 68.5 15t61.5 43q27 29 46.5 64.5t43.5 93.5h22q-25 -91 -38.5 -146.5
t-20.5 -93.5h-22q3 21 3 34q0 20 -8 24.5t-25 -7.5q-26 -18 -57.5 -33t-67 -23.5t-75.5 -8.5q-153 0 -222.5 68t-69.5 188q0 72 24 141.5t69 130.5t108 108t140.5 73.5t165.5 26.5q40 0 67.5 -9t47 -24t33.5 -32q13 -16 26.5 -3t28.5 54h21zM420 826q0 54 35 80t87 26
q44 0 66.5 -17t22.5 -51q0 -47 -35.5 -75.5t-87.5 -28.5q-43 0 -65.5 17t-22.5 49z" />
    <glyph glyph-name="D" unicode="D" horiz-adv-x="802" 
d="M791 457q0 -59 -17 -122.5t-54 -123t-96 -107.5t-143 -76t-196 -28q-16 0 -37.5 1t-50.5 1.5t-70 0.5q-23 0 -55.5 -0.5t-63.5 -1t-51 -1.5l3 20q32 2 50.5 8t29.5 24t20 54l131 496q7 26 6 44.5t-15 29t-49 12.5l3 20q21 -1 54 -2t70 -1h68q14 1 42 1.5t57.5 1t48.5 0.5
q147 0 231 -62.5t84 -188.5zM293 18q56 0 102 29t81.5 78.5t59.5 111.5t36.5 128t12.5 128q0 95 -30 146t-97 51q-22 0 -32 -6t-16 -24t-16 -56l-131 -500q-9 -34 -11.5 -52.5t6.5 -26t35 -7.5z" />
    <glyph glyph-name="Eth" unicode="&#xd0;" horiz-adv-x="802" 
d="M791 457q0 -59 -17 -122.5t-54 -123t-96 -107.5t-143 -76t-196 -28q-16 0 -37.5 1t-50.5 1.5t-70 0.5q-23 0 -55.5 -0.5t-63.5 -1t-51 -1.5l3 20q32 2 50.5 8t29.5 24t20 54l131 496q7 26 6 44.5t-15 29t-49 12.5l3 20q21 -1 54 -2t70 -1h68q14 1 42 1.5t57.5 1t48.5 0.5
q147 0 231 -62.5t84 -188.5zM293 18q56 0 102 29t81.5 78.5t59.5 111.5t36.5 128t12.5 128q0 95 -30 146t-97 51q-22 0 -32 -6t-16 -24t-16 -56l-131 -500q-9 -34 -11.5 -52.5t6.5 -26t35 -7.5zM457 366l-6 -25h-432l6 25h432z" />
    <glyph glyph-name="Dcaron" unicode="&#x10e;" horiz-adv-x="802" 
d="M791 457q0 -59 -17 -122.5t-54 -123t-96 -107.5t-143 -76t-196 -28q-16 0 -37.5 1t-50.5 1.5t-70 0.5q-23 0 -55.5 -0.5t-63.5 -1t-51 -1.5l3 20q32 2 50.5 8t29.5 24t20 54l131 496q7 26 6 44.5t-15 29t-49 12.5l3 20q21 -1 54 -2t70 -1h68q14 1 42 1.5t57.5 1t48.5 0.5
q147 0 231 -62.5t84 -188.5zM293 18q56 0 102 29t81.5 78.5t59.5 111.5t36.5 128t12.5 128q0 95 -30 146t-97 51q-22 0 -32 -6t-16 -24t-16 -56l-131 -500q-9 -34 -11.5 -52.5t6.5 -26t35 -7.5zM554 892q47 16 104 30t121 24l5 -14q-91 -28 -169.5 -75t-125.5 -97h-18
q-19 59 -49.5 99.5t-89.5 72.5l4 14q50 -8 88 -16.5t69.5 -17.5t60.5 -20z" />
    <glyph glyph-name="Dcroat" unicode="&#x110;" horiz-adv-x="802" 
d="M791 457q0 -59 -17 -122.5t-54 -123t-96 -107.5t-143 -76t-196 -28q-16 0 -37.5 1t-50.5 1.5t-70 0.5q-23 0 -55.5 -0.5t-63.5 -1t-51 -1.5l3 20q32 2 50.5 8t29.5 24t20 54l131 496q7 26 6 44.5t-15 29t-49 12.5l3 20q21 -1 54 -2t70 -1h68q14 1 42 1.5t57.5 1t48.5 0.5
q147 0 231 -62.5t84 -188.5zM293 18q56 0 102 29t81.5 78.5t59.5 111.5t36.5 128t12.5 128q0 95 -30 146t-97 51q-22 0 -32 -6t-16 -24t-16 -56l-131 -500q-9 -34 -11.5 -52.5t6.5 -26t35 -7.5zM457 366l-6 -25h-432l6 25h432z" />
    <glyph glyph-name="E" unicode="E" horiz-adv-x="637" 
d="M242 346l4 20h214l-4 -20h-214zM349 366q24 0 46.5 9t41 25t33 36t22.5 42h22q-13 -39 -19.5 -64.5t-14.5 -57.5q-5 -20 -9 -35.5t-7.5 -34.5t-9.5 -52h-22q0 17 -4.5 36.5t-15.5 36.5t-30 28t-47 11zM618 528q1 59 -13 93.5t-41 49t-67 14.5h-3q-33 0 -51.5 -5.5
t-28.5 -23t-20 -54.5l-132 -496q-9 -36 -8 -54t16.5 -23.5t48.5 -5.5h13q48 0 85 17t69.5 55.5t64.5 104.5h22q-5 -13 -10.5 -32t-10.5 -40q-5 -19 -13 -54.5t-13 -73.5q-51 2 -113.5 2.5t-112.5 0.5h-68t-89.5 -0.5t-97.5 -1t-93 -1.5l4 20q34 2 53 8t30 24t20 54l132 496
q10 37 8 54.5t-17.5 24t-49.5 7.5l5 20q43 -1 92 -1.5t97.5 -1t89.5 -0.5h68q46 0 103 0.5t104 2.5q-13 -35 -21.5 -59.5t-16.5 -58.5q-4 -18 -7.5 -34t-5.5 -28h-22z" />
    <glyph glyph-name="Eacute" unicode="&#xc9;" horiz-adv-x="637" 
d="M242 346l4 20h214l-4 -20h-214zM349 366q24 0 46.5 9t41 25t33 36t22.5 42h22q-13 -39 -19.5 -64.5t-14.5 -57.5q-5 -20 -9 -35.5t-7.5 -34.5t-9.5 -52h-22q0 17 -4.5 36.5t-15.5 36.5t-30 28t-47 11zM618 528q1 59 -13 93.5t-41 49t-67 14.5h-3q-33 0 -51.5 -5.5
t-28.5 -23t-20 -54.5l-132 -496q-9 -36 -8 -54t16.5 -23.5t48.5 -5.5h13q48 0 85 17t69.5 55.5t64.5 104.5h22q-5 -13 -10.5 -32t-10.5 -40q-5 -19 -13 -54.5t-13 -73.5q-51 2 -113.5 2.5t-112.5 0.5h-68t-89.5 -0.5t-97.5 -1t-93 -1.5l4 20q34 2 53 8t30 24t20 54l132 496
q10 37 8 54.5t-17.5 24t-49.5 7.5l5 20q43 -1 92 -1.5t97.5 -1t89.5 -0.5h68q46 0 103 0.5t104 2.5q-13 -35 -21.5 -59.5t-16.5 -58.5q-4 -18 -7.5 -34t-5.5 -28h-22zM416 784q48 42 78 75.5t54.5 58.5t53.5 40q17 9 37.5 11t40 -5.5t30.5 -28.5q15 -28 0.5 -52t-45.5 -41
q-26 -14 -60 -22.5t-78.5 -18.5t-103.5 -29z" />
    <glyph glyph-name="Ebreve" unicode="&#x114;" horiz-adv-x="637" 
d="M242 346l4 20h214l-4 -20h-214zM349 366q24 0 46.5 9t41 25t33 36t22.5 42h22q-13 -39 -19.5 -64.5t-14.5 -57.5q-5 -20 -9 -35.5t-7.5 -34.5t-9.5 -52h-22q0 17 -4.5 36.5t-15.5 36.5t-30 28t-47 11zM618 528q1 59 -13 93.5t-41 49t-67 14.5h-3q-33 0 -51.5 -5.5
t-28.5 -23t-20 -54.5l-132 -496q-9 -36 -8 -54t16.5 -23.5t48.5 -5.5h13q48 0 85 17t69.5 55.5t64.5 104.5h22q-5 -13 -10.5 -32t-10.5 -40q-5 -19 -13 -54.5t-13 -73.5q-51 2 -113.5 2.5t-112.5 0.5h-68t-89.5 -0.5t-97.5 -1t-93 -1.5l4 20q34 2 53 8t30 24t20 54l132 496
q10 37 8 54.5t-17.5 24t-49.5 7.5l5 20q43 -1 92 -1.5t97.5 -1t89.5 -0.5h68q46 0 103 0.5t104 2.5q-13 -35 -21.5 -59.5t-16.5 -58.5q-4 -18 -7.5 -34t-5.5 -28h-22zM451 882q73 0 129 14t104 42l12 -9q-26 -43 -67.5 -81t-92.5 -61.5t-106 -23.5q-49 0 -82.5 22t-53.5 59
t-28 82l15 8q31 -26 70 -39t100 -13z" />
    <glyph glyph-name="Ecaron" unicode="&#x11a;" horiz-adv-x="637" 
d="M242 346l4 20h214l-4 -20h-214zM349 366q24 0 46.5 9t41 25t33 36t22.5 42h22q-13 -39 -19.5 -64.5t-14.5 -57.5q-5 -20 -9 -35.5t-7.5 -34.5t-9.5 -52h-22q0 17 -4.5 36.5t-15.5 36.5t-30 28t-47 11zM618 528q1 59 -13 93.5t-41 49t-67 14.5h-3q-33 0 -51.5 -5.5
t-28.5 -23t-20 -54.5l-132 -496q-9 -36 -8 -54t16.5 -23.5t48.5 -5.5h13q48 0 85 17t69.5 55.5t64.5 104.5h22q-5 -13 -10.5 -32t-10.5 -40q-5 -19 -13 -54.5t-13 -73.5q-51 2 -113.5 2.5t-112.5 0.5h-68t-89.5 -0.5t-97.5 -1t-93 -1.5l4 20q34 2 53 8t30 24t20 54l132 496
q10 37 8 54.5t-17.5 24t-49.5 7.5l5 20q43 -1 92 -1.5t97.5 -1t89.5 -0.5h68q46 0 103 0.5t104 2.5q-13 -35 -21.5 -59.5t-16.5 -58.5q-4 -18 -7.5 -34t-5.5 -28h-22zM515 892q47 16 104 30t121 24l5 -14q-91 -28 -169.5 -75t-125.5 -97h-18q-19 59 -49.5 99.5t-89.5 72.5
l4 14q50 -8 88 -16.5t69.5 -17.5t60.5 -20z" />
    <glyph glyph-name="Ecircumflex" unicode="&#xca;" horiz-adv-x="637" 
d="M242 346l4 20h214l-4 -20h-214zM349 366q24 0 46.5 9t41 25t33 36t22.5 42h22q-13 -39 -19.5 -64.5t-14.5 -57.5q-5 -20 -9 -35.5t-7.5 -34.5t-9.5 -52h-22q0 17 -4.5 36.5t-15.5 36.5t-30 28t-47 11zM618 528q1 59 -13 93.5t-41 49t-67 14.5h-3q-33 0 -51.5 -5.5
t-28.5 -23t-20 -54.5l-132 -496q-9 -36 -8 -54t16.5 -23.5t48.5 -5.5h13q48 0 85 17t69.5 55.5t64.5 104.5h22q-5 -13 -10.5 -32t-10.5 -40q-5 -19 -13 -54.5t-13 -73.5q-51 2 -113.5 2.5t-112.5 0.5h-68t-89.5 -0.5t-97.5 -1t-93 -1.5l4 20q34 2 53 8t30 24t20 54l132 496
q10 37 8 54.5t-17.5 24t-49.5 7.5l5 20q43 -1 92 -1.5t97.5 -1t89.5 -0.5h68q46 0 103 0.5t104 2.5q-13 -35 -21.5 -59.5t-16.5 -58.5q-4 -18 -7.5 -34t-5.5 -28h-22zM433 824q-46 -16 -103.5 -29.5t-121.5 -24.5l-5 14q91 29 169.5 75.5t125.5 96.5h18q19 -58 49.5 -99
t89.5 -73l-4 -14q-50 8 -88 16.5t-69 17.5t-61 20z" />
    <glyph glyph-name="uni1EBE" unicode="&#x1ebe;" horiz-adv-x="637" 
d="M242 346l4 20h214l-4 -20h-214zM349 366q24 0 46.5 9t41 25t33 36t22.5 42h22q-13 -39 -19.5 -64.5t-14.5 -57.5q-5 -20 -9 -35.5t-7.5 -34.5t-9.5 -52h-22q0 17 -4.5 36.5t-15.5 36.5t-30 28t-47 11zM618 528q1 59 -13 93.5t-41 49t-67 14.5h-3q-33 0 -51.5 -5.5
t-28.5 -23t-20 -54.5l-132 -496q-9 -36 -8 -54t16.5 -23.5t48.5 -5.5h13q48 0 85 17t69.5 55.5t64.5 104.5h22q-5 -13 -10.5 -32t-10.5 -40q-5 -19 -13 -54.5t-13 -73.5q-51 2 -113.5 2.5t-112.5 0.5h-68t-89.5 -0.5t-97.5 -1t-93 -1.5l4 20q34 2 53 8t30 24t20 54l132 496
q10 37 8 54.5t-17.5 24t-49.5 7.5l5 20q43 -1 92 -1.5t97.5 -1t89.5 -0.5h68q46 0 103 0.5t104 2.5q-13 -35 -21.5 -59.5t-16.5 -58.5q-4 -18 -7.5 -34t-5.5 -28h-22zM433 824q-46 -16 -103.5 -29.5t-121.5 -24.5l-5 14q91 29 169.5 75.5t125.5 96.5h18q19 -58 49.5 -99
t89.5 -73l-4 -14q-50 8 -88 16.5t-69 17.5t-61 20zM471 1004q48 42 78 75.5t54.5 58.5t53.5 40q17 9 37.5 11t40 -5.5t30.5 -28.5q15 -28 0.5 -52t-45.5 -41q-26 -14 -60 -22.5t-78.5 -18.5t-103.5 -29z" />
    <glyph glyph-name="uni1EC6" unicode="&#x1ec6;" horiz-adv-x="637" 
d="M242 346l4 20h214l-4 -20h-214zM349 366q24 0 46.5 9t41 25t33 36t22.5 42h22q-13 -39 -19.5 -64.5t-14.5 -57.5q-5 -20 -9 -35.5t-7.5 -34.5t-9.5 -52h-22q0 17 -4.5 36.5t-15.5 36.5t-30 28t-47 11zM618 528q1 59 -13 93.5t-41 49t-67 14.5h-3q-33 0 -51.5 -5.5
t-28.5 -23t-20 -54.5l-132 -496q-9 -36 -8 -54t16.5 -23.5t48.5 -5.5h13q48 0 85 17t69.5 55.5t64.5 104.5h22q-5 -13 -10.5 -32t-10.5 -40q-5 -19 -13 -54.5t-13 -73.5q-51 2 -113.5 2.5t-112.5 0.5h-68t-89.5 -0.5t-97.5 -1t-93 -1.5l4 20q34 2 53 8t30 24t20 54l132 496
q10 37 8 54.5t-17.5 24t-49.5 7.5l5 20q43 -1 92 -1.5t97.5 -1t89.5 -0.5h68q46 0 103 0.5t104 2.5q-13 -35 -21.5 -59.5t-16.5 -58.5q-4 -18 -7.5 -34t-5.5 -28h-22zM248 -191q-36 0 -55 14t-19 42q0 43 27 66.5t74 23.5q36 0 55 -14t19 -42q0 -43 -27 -66.5t-74 -23.5z
M433 824q-46 -16 -103.5 -29.5t-121.5 -24.5l-5 14q91 29 169.5 75.5t125.5 96.5h18q19 -58 49.5 -99t89.5 -73l-4 -14q-50 8 -88 16.5t-69 17.5t-61 20z" />
    <glyph glyph-name="uni1EC0" unicode="&#x1ec0;" horiz-adv-x="637" 
d="M242 346l4 20h214l-4 -20h-214zM349 366q24 0 46.5 9t41 25t33 36t22.5 42h22q-13 -39 -19.5 -64.5t-14.5 -57.5q-5 -20 -9 -35.5t-7.5 -34.5t-9.5 -52h-22q0 17 -4.5 36.5t-15.5 36.5t-30 28t-47 11zM618 528q1 59 -13 93.5t-41 49t-67 14.5h-3q-33 0 -51.5 -5.5
t-28.5 -23t-20 -54.5l-132 -496q-9 -36 -8 -54t16.5 -23.5t48.5 -5.5h13q48 0 85 17t69.5 55.5t64.5 104.5h22q-5 -13 -10.5 -32t-10.5 -40q-5 -19 -13 -54.5t-13 -73.5q-51 2 -113.5 2.5t-112.5 0.5h-68t-89.5 -0.5t-97.5 -1t-93 -1.5l4 20q34 2 53 8t30 24t20 54l132 496
q10 37 8 54.5t-17.5 24t-49.5 7.5l5 20q43 -1 92 -1.5t97.5 -1t89.5 -0.5h68q46 0 103 0.5t104 2.5q-13 -35 -21.5 -59.5t-16.5 -58.5q-4 -18 -7.5 -34t-5.5 -28h-22zM433 824q-46 -16 -103.5 -29.5t-121.5 -24.5l-5 14q91 29 169.5 75.5t125.5 96.5h18q19 -58 49.5 -99
t89.5 -73l-4 -14q-50 8 -88 16.5t-69 17.5t-61 20zM545 992q-58 18 -97 24.5t-65.5 10.5t-49.5 16q-25 13 -35 37.5t2 48.5q14 28 43 34.5t51 -4.5q25 -11 42 -31.5t42.5 -51t73.5 -72.5z" />
    <glyph glyph-name="uni1EC2" unicode="&#x1ec2;" horiz-adv-x="637" 
d="M242 346l4 20h214l-4 -20h-214zM349 366q24 0 46.5 9t41 25t33 36t22.5 42h22q-13 -39 -19.5 -64.5t-14.5 -57.5q-5 -20 -9 -35.5t-7.5 -34.5t-9.5 -52h-22q0 17 -4.5 36.5t-15.5 36.5t-30 28t-47 11zM618 528q1 59 -13 93.5t-41 49t-67 14.5h-3q-33 0 -51.5 -5.5
t-28.5 -23t-20 -54.5l-132 -496q-9 -36 -8 -54t16.5 -23.5t48.5 -5.5h13q48 0 85 17t69.5 55.5t64.5 104.5h22q-5 -13 -10.5 -32t-10.5 -40q-5 -19 -13 -54.5t-13 -73.5q-51 2 -113.5 2.5t-112.5 0.5h-68t-89.5 -0.5t-97.5 -1t-93 -1.5l4 20q34 2 53 8t30 24t20 54l132 496
q10 37 8 54.5t-17.5 24t-49.5 7.5l5 20q43 -1 92 -1.5t97.5 -1t89.5 -0.5h68q46 0 103 0.5t104 2.5q-13 -35 -21.5 -59.5t-16.5 -58.5q-4 -18 -7.5 -34t-5.5 -28h-22zM433 824q-46 -16 -103.5 -29.5t-121.5 -24.5l-5 14q91 29 169.5 75.5t125.5 96.5h18q19 -58 49.5 -99
t89.5 -73l-4 -14q-50 8 -88 16.5t-69 17.5t-61 20zM679 915q5 31 19 48.5t29.5 30t26.5 29t11 46.5q0 35 -17 49.5t-46 14.5q-16 0 -28 -3t-17 -6q19 -7 30.5 -21t11.5 -35q0 -28 -20.5 -45t-48.5 -17q-25 0 -40 14t-15 37q0 25 17.5 43t42.5 30q24 11 52.5 17t61.5 6
q56 0 90.5 -18.5t34.5 -59.5q0 -29 -16 -45t-40.5 -25.5t-50 -19t-44.5 -25.5t-24 -45h-20z" />
    <glyph glyph-name="uni1EC4" unicode="&#x1ec4;" horiz-adv-x="637" 
d="M242 346l4 20h214l-4 -20h-214zM349 366q24 0 46.5 9t41 25t33 36t22.5 42h22q-13 -39 -19.5 -64.5t-14.5 -57.5q-5 -20 -9 -35.5t-7.5 -34.5t-9.5 -52h-22q0 17 -4.5 36.5t-15.5 36.5t-30 28t-47 11zM618 528q1 59 -13 93.5t-41 49t-67 14.5h-3q-33 0 -51.5 -5.5
t-28.5 -23t-20 -54.5l-132 -496q-9 -36 -8 -54t16.5 -23.5t48.5 -5.5h13q48 0 85 17t69.5 55.5t64.5 104.5h22q-5 -13 -10.5 -32t-10.5 -40q-5 -19 -13 -54.5t-13 -73.5q-51 2 -113.5 2.5t-112.5 0.5h-68t-89.5 -0.5t-97.5 -1t-93 -1.5l4 20q34 2 53 8t30 24t20 54l132 496
q10 37 8 54.5t-17.5 24t-49.5 7.5l5 20q43 -1 92 -1.5t97.5 -1t89.5 -0.5h68q46 0 103 0.5t104 2.5q-13 -35 -21.5 -59.5t-16.5 -58.5q-4 -18 -7.5 -34t-5.5 -28h-22zM433 824q-46 -16 -103.5 -29.5t-121.5 -24.5l-5 14q91 29 169.5 75.5t125.5 96.5h18q19 -58 49.5 -99
t89.5 -73l-4 -14q-50 8 -88 16.5t-69 17.5t-61 20zM460 1168q39 0 65 -11t46 -25.5t40.5 -25.5t49.5 -11q23 0 43 13.5t39 44.5l18 -5q-32 -87 -84.5 -125t-105.5 -38q-39 0 -65 11t-46 25.5t-40.5 25.5t-49.5 11q-23 0 -42.5 -13t-39.5 -45l-18 5q32 87 84.5 125t105.5 38z
" />
    <glyph glyph-name="Edieresis" unicode="&#xcb;" horiz-adv-x="637" 
d="M242 346l4 20h214l-4 -20h-214zM349 366q24 0 46.5 9t41 25t33 36t22.5 42h22q-13 -39 -19.5 -64.5t-14.5 -57.5q-5 -20 -9 -35.5t-7.5 -34.5t-9.5 -52h-22q0 17 -4.5 36.5t-15.5 36.5t-30 28t-47 11zM618 528q1 59 -13 93.5t-41 49t-67 14.5h-3q-33 0 -51.5 -5.5
t-28.5 -23t-20 -54.5l-132 -496q-9 -36 -8 -54t16.5 -23.5t48.5 -5.5h13q48 0 85 17t69.5 55.5t64.5 104.5h22q-5 -13 -10.5 -32t-10.5 -40q-5 -19 -13 -54.5t-13 -73.5q-51 2 -113.5 2.5t-112.5 0.5h-68t-89.5 -0.5t-97.5 -1t-93 -1.5l4 20q34 2 53 8t30 24t20 54l132 496
q10 37 8 54.5t-17.5 24t-49.5 7.5l5 20q43 -1 92 -1.5t97.5 -1t89.5 -0.5h68q46 0 103 0.5t104 2.5q-13 -35 -21.5 -59.5t-16.5 -58.5q-4 -18 -7.5 -34t-5.5 -28h-22zM230 838q0 52 30.5 75t68.5 23q40 0 57.5 -21.5t17.5 -56.5q0 -34 -15 -55.5t-37.5 -31t-47.5 -9.5
q-40 0 -57 21t-17 55zM488 838q0 52 30.5 75t68.5 23q40 0 57.5 -21.5t17.5 -56.5q0 -34 -15 -55.5t-37.5 -31t-47.5 -9.5q-40 0 -57 21t-17 55z" />
    <glyph glyph-name="Edotaccent" unicode="&#x116;" horiz-adv-x="637" 
d="M242 346l4 20h214l-4 -20h-214zM349 366q24 0 46.5 9t41 25t33 36t22.5 42h22q-13 -39 -19.5 -64.5t-14.5 -57.5q-5 -20 -9 -35.5t-7.5 -34.5t-9.5 -52h-22q0 17 -4.5 36.5t-15.5 36.5t-30 28t-47 11zM618 528q1 59 -13 93.5t-41 49t-67 14.5h-3q-33 0 -51.5 -5.5
t-28.5 -23t-20 -54.5l-132 -496q-9 -36 -8 -54t16.5 -23.5t48.5 -5.5h13q48 0 85 17t69.5 55.5t64.5 104.5h22q-5 -13 -10.5 -32t-10.5 -40q-5 -19 -13 -54.5t-13 -73.5q-51 2 -113.5 2.5t-112.5 0.5h-68t-89.5 -0.5t-97.5 -1t-93 -1.5l4 20q34 2 53 8t30 24t20 54l132 496
q10 37 8 54.5t-17.5 24t-49.5 7.5l5 20q43 -1 92 -1.5t97.5 -1t89.5 -0.5h68q46 0 103 0.5t104 2.5q-13 -35 -21.5 -59.5t-16.5 -58.5q-4 -18 -7.5 -34t-5.5 -28h-22zM341 826q0 54 35 80t87 26q44 0 66.5 -17t22.5 -51q0 -47 -35.5 -75.5t-87.5 -28.5q-43 0 -65.5 17
t-22.5 49z" />
    <glyph glyph-name="uni1EB8" unicode="&#x1eb8;" horiz-adv-x="637" 
d="M242 346l4 20h214l-4 -20h-214zM349 366q24 0 46.5 9t41 25t33 36t22.5 42h22q-13 -39 -19.5 -64.5t-14.5 -57.5q-5 -20 -9 -35.5t-7.5 -34.5t-9.5 -52h-22q0 17 -4.5 36.5t-15.5 36.5t-30 28t-47 11zM618 528q1 59 -13 93.5t-41 49t-67 14.5h-3q-33 0 -51.5 -5.5
t-28.5 -23t-20 -54.5l-132 -496q-9 -36 -8 -54t16.5 -23.5t48.5 -5.5h13q48 0 85 17t69.5 55.5t64.5 104.5h22q-5 -13 -10.5 -32t-10.5 -40q-5 -19 -13 -54.5t-13 -73.5q-51 2 -113.5 2.5t-112.5 0.5h-68t-89.5 -0.5t-97.5 -1t-93 -1.5l4 20q34 2 53 8t30 24t20 54l132 496
q10 37 8 54.5t-17.5 24t-49.5 7.5l5 20q43 -1 92 -1.5t97.5 -1t89.5 -0.5h68q46 0 103 0.5t104 2.5q-13 -35 -21.5 -59.5t-16.5 -58.5q-4 -18 -7.5 -34t-5.5 -28h-22zM248 -191q-36 0 -55 14t-19 42q0 43 27 66.5t74 23.5q36 0 55 -14t19 -42q0 -43 -27 -66.5t-74 -23.5z
" />
    <glyph glyph-name="Egrave" unicode="&#xc8;" horiz-adv-x="637" 
d="M242 346l4 20h214l-4 -20h-214zM349 366q24 0 46.5 9t41 25t33 36t22.5 42h22q-13 -39 -19.5 -64.5t-14.5 -57.5q-5 -20 -9 -35.5t-7.5 -34.5t-9.5 -52h-22q0 17 -4.5 36.5t-15.5 36.5t-30 28t-47 11zM618 528q1 59 -13 93.5t-41 49t-67 14.5h-3q-33 0 -51.5 -5.5
t-28.5 -23t-20 -54.5l-132 -496q-9 -36 -8 -54t16.5 -23.5t48.5 -5.5h13q48 0 85 17t69.5 55.5t64.5 104.5h22q-5 -13 -10.5 -32t-10.5 -40q-5 -19 -13 -54.5t-13 -73.5q-51 2 -113.5 2.5t-112.5 0.5h-68t-89.5 -0.5t-97.5 -1t-93 -1.5l4 20q34 2 53 8t30 24t20 54l132 496
q10 37 8 54.5t-17.5 24t-49.5 7.5l5 20q43 -1 92 -1.5t97.5 -1t89.5 -0.5h68q46 0 103 0.5t104 2.5q-13 -35 -21.5 -59.5t-16.5 -58.5q-4 -18 -7.5 -34t-5.5 -28h-22zM490 772q-58 18 -97 24.5t-65.5 10.5t-49.5 16q-25 13 -35 37.5t2 48.5q14 28 43 34.5t51 -4.5
q25 -11 42 -31.5t42.5 -51t73.5 -72.5z" />
    <glyph glyph-name="uni1EBA" unicode="&#x1eba;" horiz-adv-x="637" 
d="M242 346l4 20h214l-4 -20h-214zM349 366q24 0 46.5 9t41 25t33 36t22.5 42h22q-13 -39 -19.5 -64.5t-14.5 -57.5q-5 -20 -9 -35.5t-7.5 -34.5t-9.5 -52h-22q0 17 -4.5 36.5t-15.5 36.5t-30 28t-47 11zM618 528q1 59 -13 93.5t-41 49t-67 14.5h-3q-33 0 -51.5 -5.5
t-28.5 -23t-20 -54.5l-132 -496q-9 -36 -8 -54t16.5 -23.5t48.5 -5.5h13q48 0 85 17t69.5 55.5t64.5 104.5h22q-5 -13 -10.5 -32t-10.5 -40q-5 -19 -13 -54.5t-13 -73.5q-51 2 -113.5 2.5t-112.5 0.5h-68t-89.5 -0.5t-97.5 -1t-93 -1.5l4 20q34 2 53 8t30 24t20 54l132 496
q10 37 8 54.5t-17.5 24t-49.5 7.5l5 20q43 -1 92 -1.5t97.5 -1t89.5 -0.5h68q46 0 103 0.5t104 2.5q-13 -35 -21.5 -59.5t-16.5 -58.5q-4 -18 -7.5 -34t-5.5 -28h-22zM423 739q5 31 19 48.5t29.5 30t26.5 29t11 46.5q0 35 -17 49.5t-46 14.5q-16 0 -28 -3t-17 -6
q19 -7 30.5 -21t11.5 -35q0 -28 -20.5 -45t-48.5 -17q-25 0 -40 14t-15 37q0 25 17.5 43t42.5 30q24 11 52.5 17t61.5 6q56 0 90.5 -18.5t34.5 -59.5q0 -29 -16 -45t-40.5 -25.5t-50 -19t-44.5 -25.5t-24 -45h-20z" />
    <glyph glyph-name="Emacron" unicode="&#x112;" horiz-adv-x="637" 
d="M242 346l4 20h214l-4 -20h-214zM349 366q24 0 46.5 9t41 25t33 36t22.5 42h22q-13 -39 -19.5 -64.5t-14.5 -57.5q-5 -20 -9 -35.5t-7.5 -34.5t-9.5 -52h-22q0 17 -4.5 36.5t-15.5 36.5t-30 28t-47 11zM618 528q1 59 -13 93.5t-41 49t-67 14.5h-3q-33 0 -51.5 -5.5
t-28.5 -23t-20 -54.5l-132 -496q-9 -36 -8 -54t16.5 -23.5t48.5 -5.5h13q48 0 85 17t69.5 55.5t64.5 104.5h22q-5 -13 -10.5 -32t-10.5 -40q-5 -19 -13 -54.5t-13 -73.5q-51 2 -113.5 2.5t-112.5 0.5h-68t-89.5 -0.5t-97.5 -1t-93 -1.5l4 20q34 2 53 8t30 24t20 54l132 496
q10 37 8 54.5t-17.5 24t-49.5 7.5l5 20q43 -1 92 -1.5t97.5 -1t89.5 -0.5h68q46 0 103 0.5t104 2.5q-13 -35 -21.5 -59.5t-16.5 -58.5q-4 -18 -7.5 -34t-5.5 -28h-22zM654 844l-6 -25h-432l6 25h432z" />
    <glyph glyph-name="Eogonek" unicode="&#x118;" horiz-adv-x="637" 
d="M242 346l4 20h214l-4 -20h-214zM349 366q24 0 46.5 9t41 25t33 36t22.5 42h22q-13 -39 -19.5 -64.5t-14.5 -57.5q-5 -20 -9 -35.5t-7.5 -34.5t-9.5 -52h-22q0 17 -4.5 36.5t-15.5 36.5t-30 28t-47 11zM618 528q1 59 -13 93.5t-41 49t-67 14.5h-3q-33 0 -51.5 -5.5
t-28.5 -23t-20 -54.5l-132 -496q-9 -36 -8 -54t16.5 -23.5t48.5 -5.5h13q48 0 85 17t69.5 55.5t64.5 104.5h22q-5 -13 -10.5 -32t-10.5 -40q-5 -19 -13 -54.5t-13 -73.5q-51 2 -113.5 2.5t-112.5 0.5h-68t-89.5 -0.5t-97.5 -1t-93 -1.5l4 20q34 2 53 8t30 24t20 54l132 496
q10 37 8 54.5t-17.5 24t-49.5 7.5l5 20q43 -1 92 -1.5t97.5 -1t89.5 -0.5h68q46 0 103 0.5t104 2.5q-13 -35 -21.5 -59.5t-16.5 -58.5q-4 -18 -7.5 -34t-5.5 -28h-22zM524 3q-33 -13 -54.5 -33t-32 -41t-10.5 -40q0 -26 29 -26q14 0 32.5 4.5t38.5 14.5l11 -17
q-40 -28 -78 -40.5t-79 -12.5t-66 16t-25 45q0 31 30.5 56t80 43.5t105.5 30.5h18z" />
    <glyph glyph-name="uni1EBC" unicode="&#x1ebc;" horiz-adv-x="637" 
d="M242 346l4 20h214l-4 -20h-214zM349 366q24 0 46.5 9t41 25t33 36t22.5 42h22q-13 -39 -19.5 -64.5t-14.5 -57.5q-5 -20 -9 -35.5t-7.5 -34.5t-9.5 -52h-22q0 17 -4.5 36.5t-15.5 36.5t-30 28t-47 11zM618 528q1 59 -13 93.5t-41 49t-67 14.5h-3q-33 0 -51.5 -5.5
t-28.5 -23t-20 -54.5l-132 -496q-9 -36 -8 -54t16.5 -23.5t48.5 -5.5h13q48 0 85 17t69.5 55.5t64.5 104.5h22q-5 -13 -10.5 -32t-10.5 -40q-5 -19 -13 -54.5t-13 -73.5q-51 2 -113.5 2.5t-112.5 0.5h-68t-89.5 -0.5t-97.5 -1t-93 -1.5l4 20q34 2 53 8t30 24t20 54l132 496
q10 37 8 54.5t-17.5 24t-49.5 7.5l5 20q43 -1 92 -1.5t97.5 -1t89.5 -0.5h68q46 0 103 0.5t104 2.5q-13 -35 -21.5 -59.5t-16.5 -58.5q-4 -18 -7.5 -34t-5.5 -28h-22zM405 948q39 0 65 -11t46 -25.5t40.5 -25.5t49.5 -11q23 0 43 13.5t39 44.5l18 -5q-32 -87 -84.5 -125
t-105.5 -38q-39 0 -65 11t-46 25.5t-40.5 25.5t-49.5 11q-23 0 -42.5 -13t-39.5 -45l-18 5q32 87 84.5 125t105.5 38z" />
    <glyph glyph-name="uni01B7" unicode="&#x1b7;" horiz-adv-x="617" 
d="M681 708l-5 -20l-243 -347l-17 57q79 -34 118.5 -76t39.5 -108t-44 -117.5t-118.5 -81t-166.5 -29.5q-69 0 -110 12.5t-64 23.5q-14 7 -24.5 11t-18.5 4q-10 0 -18 -11t-16 -33h-23q9 26 19 60.5t24 89.5t33 140h23q-19 -74 -11.5 -135t46.5 -96.5t112 -35.5
q50 0 88.5 31t61 78t22.5 96q0 68 -35 106.5t-106 52.5l5 20l201 285h-50q-31 0 -68.5 -10t-76.5 -34.5t-73.5 -66.5t-59.5 -106h-23q11 31 21 72t19 85.5t16 82.5q31 -1 67.5 -2t73.5 -1h67q75 0 158 0.5t156 2.5z" />
    <glyph glyph-name="uni01EE" unicode="&#x1ee;" horiz-adv-x="617" 
d="M681 708l-5 -20l-243 -347l-17 57q79 -34 118.5 -76t39.5 -108t-44 -117.5t-118.5 -81t-166.5 -29.5q-69 0 -110 12.5t-64 23.5q-14 7 -24.5 11t-18.5 4q-10 0 -18 -11t-16 -33h-23q9 26 19 60.5t24 89.5t33 140h23q-19 -74 -11.5 -135t46.5 -96.5t112 -35.5
q50 0 88.5 31t61 78t22.5 96q0 68 -35 106.5t-106 52.5l5 20l201 285h-50q-31 0 -68.5 -10t-76.5 -34.5t-73.5 -66.5t-59.5 -106h-23q11 31 21 72t19 85.5t16 82.5q31 -1 67.5 -2t73.5 -1h67q75 0 158 0.5t156 2.5zM513 892q47 16 104 30t121 24l5 -14q-91 -28 -169.5 -75
t-125.5 -97h-18q-19 59 -49.5 99.5t-89.5 72.5l4 14q50 -8 88 -16.5t69.5 -17.5t60.5 -20z" />
    <glyph glyph-name="F" unicode="F" horiz-adv-x="603" 
d="M252 346l4 20h214l-4 -20h-214zM608 498q6 71 -8.5 112t-43.5 58t-69 17h-3q-29 0 -45.5 -5.5t-26 -23t-18.5 -54.5l-132 -496q-9 -36 -6 -54t23 -24t62 -8l-4 -20q-34 2 -88.5 2.5t-110.5 0.5q-57 0 -106.5 -0.5t-79.5 -2.5l4 20q34 2 53 8t30 24t20 54l132 496
q10 37 8 54.5t-17.5 24t-49.5 7.5l5 20q43 -1 92 -1.5t97.5 -1t89.5 -0.5h68q46 0 103 0.5t104 2.5q-13 -35 -21 -59.5t-17 -58.5q-7 -27 -13 -50t-10 -42h-22zM359 366q23 0 44 8t39 22.5t33.5 35.5t26.5 46h22q-13 -39 -19.5 -64.5t-14.5 -57.5q-7 -31 -14.5 -66.5
t-16.5 -85.5h-22q0 35 -6 61t-18 44.5t-29 27.5t-39 9z" />
    <glyph glyph-name="G" unicode="G" horiz-adv-x="761" 
d="M356 6q13 0 27 3t25 11q15 11 22 28.5t16 51.5l23 88q11 41 8.5 61t-22 27t-61.5 8l5 20q23 -1 56 -1.5t68.5 -1t65.5 -0.5q51 0 94.5 1t70.5 2l-5 -20q-22 -1 -34.5 -7t-21 -24t-18.5 -55l-53 -198h-20q1 32 -9 44.5t-30 12.5q-28 0 -58.5 -15.5t-56.5 -26.5
q-37 -17 -67.5 -23t-60.5 -6q-135 0 -212.5 60t-77.5 169q0 68 23.5 139t68 137t107 118t140.5 82.5t169 30.5q65 0 100.5 -19t63.5 -46q15 -15 28 -5t29 56h22q-15 -39 -31 -94.5t-33 -135.5h-22q2 20 3.5 38.5t1.5 36.5q0 21 -2.5 38t-11.5 35q-19 38 -57.5 58t-96.5 20
t-105.5 -35.5t-84 -94t-60.5 -128t-36.5 -139t-12.5 -125.5q0 -90 31 -133t92 -43z" />
    <glyph glyph-name="uni01F4" unicode="&#x1f4;" horiz-adv-x="761" 
d="M356 6q13 0 27 3t25 11q15 11 22 28.5t16 51.5l23 88q11 41 8.5 61t-22 27t-61.5 8l5 20q23 -1 56 -1.5t68.5 -1t65.5 -0.5q51 0 94.5 1t70.5 2l-5 -20q-22 -1 -34.5 -7t-21 -24t-18.5 -55l-53 -198h-20q1 32 -9 44.5t-30 12.5q-28 0 -58.5 -15.5t-56.5 -26.5
q-37 -17 -67.5 -23t-60.5 -6q-135 0 -212.5 60t-77.5 169q0 68 23.5 139t68 137t107 118t140.5 82.5t169 30.5q65 0 100.5 -19t63.5 -46q15 -15 28 -5t29 56h22q-15 -39 -31 -94.5t-33 -135.5h-22q2 20 3.5 38.5t1.5 36.5q0 21 -2.5 38t-11.5 35q-19 38 -57.5 58t-96.5 20
t-105.5 -35.5t-84 -94t-60.5 -128t-36.5 -139t-12.5 -125.5q0 -90 31 -133t92 -43zM516 784q48 42 78 75.5t54.5 58.5t53.5 40q17 9 37.5 11t40 -5.5t30.5 -28.5q15 -28 0.5 -52t-45.5 -41q-26 -14 -60 -22.5t-78.5 -18.5t-103.5 -29z" />
    <glyph glyph-name="Gbreve" unicode="&#x11e;" horiz-adv-x="761" 
d="M356 6q13 0 27 3t25 11q15 11 22 28.5t16 51.5l23 88q11 41 8.5 61t-22 27t-61.5 8l5 20q23 -1 56 -1.5t68.5 -1t65.5 -0.5q51 0 94.5 1t70.5 2l-5 -20q-22 -1 -34.5 -7t-21 -24t-18.5 -55l-53 -198h-20q1 32 -9 44.5t-30 12.5q-28 0 -58.5 -15.5t-56.5 -26.5
q-37 -17 -67.5 -23t-60.5 -6q-135 0 -212.5 60t-77.5 169q0 68 23.5 139t68 137t107 118t140.5 82.5t169 30.5q65 0 100.5 -19t63.5 -46q15 -15 28 -5t29 56h22q-15 -39 -31 -94.5t-33 -135.5h-22q2 20 3.5 38.5t1.5 36.5q0 21 -2.5 38t-11.5 35q-19 38 -57.5 58t-96.5 20
t-105.5 -35.5t-84 -94t-60.5 -128t-36.5 -139t-12.5 -125.5q0 -90 31 -133t92 -43zM551 882q73 0 129 14t104 42l12 -9q-26 -43 -67.5 -81t-92.5 -61.5t-106 -23.5q-49 0 -82.5 22t-53.5 59t-28 82l15 8q31 -26 70 -39t100 -13z" />
    <glyph glyph-name="Gcaron" unicode="&#x1e6;" horiz-adv-x="761" 
d="M356 6q13 0 27 3t25 11q15 11 22 28.5t16 51.5l23 88q11 41 8.5 61t-22 27t-61.5 8l5 20q23 -1 56 -1.5t68.5 -1t65.5 -0.5q51 0 94.5 1t70.5 2l-5 -20q-22 -1 -34.5 -7t-21 -24t-18.5 -55l-53 -198h-20q1 32 -9 44.5t-30 12.5q-28 0 -58.5 -15.5t-56.5 -26.5
q-37 -17 -67.5 -23t-60.5 -6q-135 0 -212.5 60t-77.5 169q0 68 23.5 139t68 137t107 118t140.5 82.5t169 30.5q65 0 100.5 -19t63.5 -46q15 -15 28 -5t29 56h22q-15 -39 -31 -94.5t-33 -135.5h-22q2 20 3.5 38.5t1.5 36.5q0 21 -2.5 38t-11.5 35q-19 38 -57.5 58t-96.5 20
t-105.5 -35.5t-84 -94t-60.5 -128t-36.5 -139t-12.5 -125.5q0 -90 31 -133t92 -43zM615 892q47 16 104 30t121 24l5 -14q-91 -28 -169.5 -75t-125.5 -97h-18q-19 59 -49.5 99.5t-89.5 72.5l4 14q50 -8 88 -16.5t69.5 -17.5t60.5 -20z" />
    <glyph glyph-name="Gcircumflex" unicode="&#x11c;" horiz-adv-x="761" 
d="M356 6q13 0 27 3t25 11q15 11 22 28.5t16 51.5l23 88q11 41 8.5 61t-22 27t-61.5 8l5 20q23 -1 56 -1.5t68.5 -1t65.5 -0.5q51 0 94.5 1t70.5 2l-5 -20q-22 -1 -34.5 -7t-21 -24t-18.5 -55l-53 -198h-20q1 32 -9 44.5t-30 12.5q-28 0 -58.5 -15.5t-56.5 -26.5
q-37 -17 -67.5 -23t-60.5 -6q-135 0 -212.5 60t-77.5 169q0 68 23.5 139t68 137t107 118t140.5 82.5t169 30.5q65 0 100.5 -19t63.5 -46q15 -15 28 -5t29 56h22q-15 -39 -31 -94.5t-33 -135.5h-22q2 20 3.5 38.5t1.5 36.5q0 21 -2.5 38t-11.5 35q-19 38 -57.5 58t-96.5 20
t-105.5 -35.5t-84 -94t-60.5 -128t-36.5 -139t-12.5 -125.5q0 -90 31 -133t92 -43zM533 824q-46 -16 -103.5 -29.5t-121.5 -24.5l-5 14q91 29 169.5 75.5t125.5 96.5h18q19 -58 49.5 -99t89.5 -73l-4 -14q-50 8 -88 16.5t-69 17.5t-61 20z" />
    <glyph glyph-name="uni0122" unicode="&#x122;" horiz-adv-x="761" 
d="M356 6q13 0 27 3t25 11q15 11 22 28.5t16 51.5l23 88q11 41 8.5 61t-22 27t-61.5 8l5 20q23 -1 56 -1.5t68.5 -1t65.5 -0.5q51 0 94.5 1t70.5 2l-5 -20q-22 -1 -34.5 -7t-21 -24t-18.5 -55l-53 -198h-20q1 32 -9 44.5t-30 12.5q-28 0 -58.5 -15.5t-56.5 -26.5
q-37 -17 -67.5 -23t-60.5 -6q-135 0 -212.5 60t-77.5 169q0 68 23.5 139t68 137t107 118t140.5 82.5t169 30.5q65 0 100.5 -19t63.5 -46q15 -15 28 -5t29 56h22q-15 -39 -31 -94.5t-33 -135.5h-22q2 20 3.5 38.5t1.5 36.5q0 21 -2.5 38t-11.5 35q-19 38 -57.5 58t-96.5 20
t-105.5 -35.5t-84 -94t-60.5 -128t-36.5 -139t-12.5 -125.5q0 -90 31 -133t92 -43zM337 -42q27 0 52 -14.5t25 -49.5q0 -61 -46.5 -97t-117.5 -38v21q47 1 78.5 15.5t38.5 38.5q-13 -8 -29.5 -13t-37.5 -5q-34 0 -52 13t-18 40q0 41 32 65t75 24z" />
    <glyph glyph-name="Gdotaccent" unicode="&#x120;" horiz-adv-x="761" 
d="M356 6q13 0 27 3t25 11q15 11 22 28.5t16 51.5l23 88q11 41 8.5 61t-22 27t-61.5 8l5 20q23 -1 56 -1.5t68.5 -1t65.5 -0.5q51 0 94.5 1t70.5 2l-5 -20q-22 -1 -34.5 -7t-21 -24t-18.5 -55l-53 -198h-20q1 32 -9 44.5t-30 12.5q-28 0 -58.5 -15.5t-56.5 -26.5
q-37 -17 -67.5 -23t-60.5 -6q-135 0 -212.5 60t-77.5 169q0 68 23.5 139t68 137t107 118t140.5 82.5t169 30.5q65 0 100.5 -19t63.5 -46q15 -15 28 -5t29 56h22q-15 -39 -31 -94.5t-33 -135.5h-22q2 20 3.5 38.5t1.5 36.5q0 21 -2.5 38t-11.5 35q-19 38 -57.5 58t-96.5 20
t-105.5 -35.5t-84 -94t-60.5 -128t-36.5 -139t-12.5 -125.5q0 -90 31 -133t92 -43zM441 826q0 54 35 80t87 26q44 0 66.5 -17t22.5 -51q0 -47 -35.5 -75.5t-87.5 -28.5q-43 0 -65.5 17t-22.5 49z" />
    <glyph glyph-name="uni01E4" unicode="&#x1e4;" horiz-adv-x="761" 
d="M320 -14q-135 0 -212.5 60t-77.5 169q0 68 23.5 139t68 137t107 118t140.5 82.5t169 30.5q65 0 100.5 -19t63.5 -46q15 -15 28 -5t29 56h22q-15 -39 -31 -94.5t-33 -135.5h-22q2 20 3.5 38.5t1.5 36.5q0 21 -2.5 38t-11.5 35q-19 38 -57.5 58t-96.5 20t-105.5 -35.5
t-84 -94t-60.5 -128t-36.5 -139t-12.5 -125.5q0 -90 31 -133t92 -43q13 0 27 3t25 11q15 11 22 29t16 51l31 118q11 40 8.5 60t-22 27.5t-61.5 8.5l5 20q23 -1 56 -1.5t68.5 -1t65.5 -0.5q51 0 94.5 1t70.5 2l-5 -20q-22 -1 -34.5 -7.5t-21 -24t-18.5 -54.5l-61 -228h-20
q1 32 -9 44.5t-30 12.5q-28 0 -58.5 -15.5t-56.5 -26.5q-37 -17 -67.5 -23t-60.5 -6zM375 178l4 20h365l-4 -20h-365z" />
    <glyph glyph-name="H" unicode="H" horiz-adv-x="846" 
d="M257 346l7 20h353l-8 -20h-352zM615 602q10 37 8.5 54.5t-17.5 24t-50 7.5l5 20q30 -1 78.5 -2t97.5 -1q57 0 107.5 1t81.5 2l-5 -20q-34 -1 -53 -7.5t-29.5 -24t-20.5 -54.5l-132 -496q-9 -36 -8 -54t17 -24t50 -8l-4 -20q-30 2 -80.5 2.5t-107.5 0.5q-49 0 -97.5 -0.5
t-79.5 -2.5l4 20q34 2 53 8t30 24t20 54zM262 106q-9 -36 -8 -54t17 -24t50 -8l-4 -20q-31 2 -79 2.5t-98 0.5q-57 0 -106.5 -0.5t-80.5 -2.5l5 20q33 2 51.5 8t29.5 24t20 54l132 496q10 37 8 54.5t-17.5 24t-49.5 7.5l5 20q29 -1 79.5 -2t107.5 -1q50 0 96.5 1t81.5 2
l-5 -20q-34 -1 -53 -7.5t-29.5 -24t-20.5 -54.5z" />
    <glyph glyph-name="Hbar" unicode="&#x126;" horiz-adv-x="846" 
d="M257 346l7 20h353l-8 -20h-352zM615 602q10 37 8.5 54.5t-17.5 24t-50 7.5l5 20q30 -1 78.5 -2t97.5 -1q57 0 107.5 1t81.5 2l-5 -20q-34 -1 -53 -7.5t-29.5 -24t-20.5 -54.5l-132 -496q-9 -36 -8 -54t17 -24t50 -8l-4 -20q-30 2 -80.5 2.5t-107.5 0.5q-49 0 -97.5 -0.5
t-79.5 -2.5l4 20q34 2 53 8t30 24t20 54zM262 106q-9 -36 -8 -54t17 -24t50 -8l-4 -20q-31 2 -79 2.5t-98 0.5q-57 0 -106.5 -0.5t-80.5 -2.5l5 20q33 2 51.5 8t29.5 24t20 54l132 496q10 37 8 54.5t-17.5 24t-49.5 7.5l5 20q29 -1 79.5 -2t107.5 -1q50 0 96.5 1t81.5 2
l-5 -20q-34 -1 -53 -7.5t-29.5 -24t-20.5 -54.5zM910 533l-5 -20h-843l5 20h843z" />
    <glyph glyph-name="uni021E" unicode="&#x21e;" horiz-adv-x="846" 
d="M257 346l7 20h353l-8 -20h-352zM615 602q10 37 8.5 54.5t-17.5 24t-50 7.5l5 20q30 -1 78.5 -2t97.5 -1q57 0 107.5 1t81.5 2l-5 -20q-34 -1 -53 -7.5t-29.5 -24t-20.5 -54.5l-132 -496q-9 -36 -8 -54t17 -24t50 -8l-4 -20q-30 2 -80.5 2.5t-107.5 0.5q-49 0 -97.5 -0.5
t-79.5 -2.5l4 20q34 2 53 8t30 24t20 54zM262 106q-9 -36 -8 -54t17 -24t50 -8l-4 -20q-31 2 -79 2.5t-98 0.5q-57 0 -106.5 -0.5t-80.5 -2.5l5 20q33 2 51.5 8t29.5 24t20 54l132 496q10 37 8 54.5t-17.5 24t-49.5 7.5l5 20q29 -1 79.5 -2t107.5 -1q50 0 96.5 1t81.5 2
l-5 -20q-34 -1 -53 -7.5t-29.5 -24t-20.5 -54.5zM620 892q47 16 104 30t121 24l5 -14q-91 -28 -169.5 -75t-125.5 -97h-18q-19 59 -49.5 99.5t-89.5 72.5l4 14q50 -8 88 -16.5t69.5 -17.5t60.5 -20z" />
    <glyph glyph-name="Hcircumflex" unicode="&#x124;" horiz-adv-x="846" 
d="M257 346l7 20h353l-8 -20h-352zM615 602q10 37 8.5 54.5t-17.5 24t-50 7.5l5 20q30 -1 78.5 -2t97.5 -1q57 0 107.5 1t81.5 2l-5 -20q-34 -1 -53 -7.5t-29.5 -24t-20.5 -54.5l-132 -496q-9 -36 -8 -54t17 -24t50 -8l-4 -20q-30 2 -80.5 2.5t-107.5 0.5q-49 0 -97.5 -0.5
t-79.5 -2.5l4 20q34 2 53 8t30 24t20 54zM262 106q-9 -36 -8 -54t17 -24t50 -8l-4 -20q-31 2 -79 2.5t-98 0.5q-57 0 -106.5 -0.5t-80.5 -2.5l5 20q33 2 51.5 8t29.5 24t20 54l132 496q10 37 8 54.5t-17.5 24t-49.5 7.5l5 20q29 -1 79.5 -2t107.5 -1q50 0 96.5 1t81.5 2
l-5 -20q-34 -1 -53 -7.5t-29.5 -24t-20.5 -54.5zM538 824q-46 -16 -103.5 -29.5t-121.5 -24.5l-5 14q91 29 169.5 75.5t125.5 96.5h18q19 -58 49.5 -99t89.5 -73l-4 -14q-50 8 -88 16.5t-69 17.5t-61 20z" />
    <glyph glyph-name="I" unicode="I" horiz-adv-x="422" 
d="M262 106q-9 -36 -8 -54t17 -24t50 -8l-4 -20q-32 2 -83 2.5t-104 0.5q-54 0 -101 -0.5t-76 -2.5l5 20q33 2 51.5 8t29.5 24t20 54l132 496q10 37 8 54.5t-17.5 24t-49.5 7.5l5 20q28 -1 75.5 -2t101.5 -1q53 0 102 1t86 2l-5 -20q-34 -1 -53 -7.5t-29.5 -24t-20.5 -54.5z
" />
    <glyph glyph-name="Iacute" unicode="&#xcd;" horiz-adv-x="422" 
d="M262 106q-9 -36 -8 -54t17 -24t50 -8l-4 -20q-32 2 -83 2.5t-104 0.5q-54 0 -101 -0.5t-76 -2.5l5 20q33 2 51.5 8t29.5 24t20 54l132 496q10 37 8 54.5t-17.5 24t-49.5 7.5l5 20q28 -1 75.5 -2t101.5 -1q53 0 102 1t86 2l-5 -20q-34 -1 -53 -7.5t-29.5 -24t-20.5 -54.5z
M322 784q48 42 78 75.5t54.5 58.5t53.5 40q17 9 37.5 11t40 -5.5t30.5 -28.5q15 -28 0.5 -52t-45.5 -41q-26 -14 -60 -22.5t-78.5 -18.5t-103.5 -29z" />
    <glyph glyph-name="Ibreve" unicode="&#x12c;" horiz-adv-x="422" 
d="M262 106q-9 -36 -8 -54t17 -24t50 -8l-4 -20q-32 2 -83 2.5t-104 0.5q-54 0 -101 -0.5t-76 -2.5l5 20q33 2 51.5 8t29.5 24t20 54l132 496q10 37 8 54.5t-17.5 24t-49.5 7.5l5 20q28 -1 75.5 -2t101.5 -1q53 0 102 1t86 2l-5 -20q-34 -1 -53 -7.5t-29.5 -24t-20.5 -54.5z
M357 882q73 0 129 14t104 42l12 -9q-26 -43 -67.5 -81t-92.5 -61.5t-106 -23.5q-49 0 -82.5 22t-53.5 59t-28 82l15 8q31 -26 70 -39t100 -13z" />
    <glyph glyph-name="Icircumflex" unicode="&#xce;" horiz-adv-x="422" 
d="M262 106q-9 -36 -8 -54t17 -24t50 -8l-4 -20q-32 2 -83 2.5t-104 0.5q-54 0 -101 -0.5t-76 -2.5l5 20q33 2 51.5 8t29.5 24t20 54l132 496q10 37 8 54.5t-17.5 24t-49.5 7.5l5 20q28 -1 75.5 -2t101.5 -1q53 0 102 1t86 2l-5 -20q-34 -1 -53 -7.5t-29.5 -24t-20.5 -54.5z
M339 824q-46 -16 -103.5 -29.5t-121.5 -24.5l-5 14q91 29 169.5 75.5t125.5 96.5h18q19 -58 49.5 -99t89.5 -73l-4 -14q-50 8 -88 16.5t-69 17.5t-61 20z" />
    <glyph glyph-name="Idieresis" unicode="&#xcf;" horiz-adv-x="422" 
d="M262 106q-9 -36 -8 -54t17 -24t50 -8l-4 -20q-32 2 -83 2.5t-104 0.5q-54 0 -101 -0.5t-76 -2.5l5 20q33 2 51.5 8t29.5 24t20 54l132 496q10 37 8 54.5t-17.5 24t-49.5 7.5l5 20q28 -1 75.5 -2t101.5 -1q53 0 102 1t86 2l-5 -20q-34 -1 -53 -7.5t-29.5 -24t-20.5 -54.5z
M136 838q0 52 30.5 75t68.5 23q40 0 57.5 -21.5t17.5 -56.5q0 -34 -15 -55.5t-37.5 -31t-47.5 -9.5q-40 0 -57 21t-17 55zM394 838q0 52 30.5 75t68.5 23q40 0 57.5 -21.5t17.5 -56.5q0 -34 -15 -55.5t-37.5 -31t-47.5 -9.5q-40 0 -57 21t-17 55z" />
    <glyph glyph-name="Idotaccent" unicode="&#x130;" horiz-adv-x="422" 
d="M262 106q-9 -36 -8 -54t17 -24t50 -8l-4 -20q-32 2 -83 2.5t-104 0.5q-54 0 -101 -0.5t-76 -2.5l5 20q33 2 51.5 8t29.5 24t20 54l132 496q10 37 8 54.5t-17.5 24t-49.5 7.5l5 20q28 -1 75.5 -2t101.5 -1q53 0 102 1t86 2l-5 -20q-34 -1 -53 -7.5t-29.5 -24t-20.5 -54.5z
M247 826q0 54 35 80t87 26q44 0 66.5 -17t22.5 -51q0 -47 -35.5 -75.5t-87.5 -28.5q-43 0 -65.5 17t-22.5 49z" />
    <glyph glyph-name="uni1ECA" unicode="&#x1eca;" horiz-adv-x="422" 
d="M262 106q-9 -36 -8 -54t17 -24t50 -8l-4 -20q-32 2 -83 2.5t-104 0.5q-54 0 -101 -0.5t-76 -2.5l5 20q33 2 51.5 8t29.5 24t20 54l132 496q10 37 8 54.5t-17.5 24t-49.5 7.5l5 20q28 -1 75.5 -2t101.5 -1q53 0 102 1t86 2l-5 -20q-34 -1 -53 -7.5t-29.5 -24t-20.5 -54.5z
M99 -191q-36 0 -55 14t-19 42q0 43 27 66.5t74 23.5q36 0 55 -14t19 -42q0 -43 -27 -66.5t-74 -23.5z" />
    <glyph glyph-name="Igrave" unicode="&#xcc;" horiz-adv-x="422" 
d="M262 106q-9 -36 -8 -54t17 -24t50 -8l-4 -20q-32 2 -83 2.5t-104 0.5q-54 0 -101 -0.5t-76 -2.5l5 20q33 2 51.5 8t29.5 24t20 54l132 496q10 37 8 54.5t-17.5 24t-49.5 7.5l5 20q28 -1 75.5 -2t101.5 -1q53 0 102 1t86 2l-5 -20q-34 -1 -53 -7.5t-29.5 -24t-20.5 -54.5z
M396 772q-58 18 -97 24.5t-65.5 10.5t-49.5 16q-25 13 -35 37.5t2 48.5q14 28 43 34.5t51 -4.5q25 -11 42 -31.5t42.5 -51t73.5 -72.5z" />
    <glyph glyph-name="uni1EC8" unicode="&#x1ec8;" horiz-adv-x="422" 
d="M262 106q-9 -36 -8 -54t17 -24t50 -8l-4 -20q-32 2 -83 2.5t-104 0.5q-54 0 -101 -0.5t-76 -2.5l5 20q33 2 51.5 8t29.5 24t20 54l132 496q10 37 8 54.5t-17.5 24t-49.5 7.5l5 20q28 -1 75.5 -2t101.5 -1q53 0 102 1t86 2l-5 -20q-34 -1 -53 -7.5t-29.5 -24t-20.5 -54.5z
M329 739q5 31 19 48.5t29.5 30t26.5 29t11 46.5q0 35 -17 49.5t-46 14.5q-16 0 -28 -3t-17 -6q19 -7 30.5 -21t11.5 -35q0 -28 -20.5 -45t-48.5 -17q-25 0 -40 14t-15 37q0 25 17.5 43t42.5 30q24 11 52.5 17t61.5 6q56 0 90.5 -18.5t34.5 -59.5q0 -29 -16 -45t-40.5 -25.5
t-50 -19t-44.5 -25.5t-24 -45h-20z" />
    <glyph glyph-name="Imacron" unicode="&#x12a;" horiz-adv-x="422" 
d="M262 106q-9 -36 -8 -54t17 -24t50 -8l-4 -20q-32 2 -83 2.5t-104 0.5q-54 0 -101 -0.5t-76 -2.5l5 20q33 2 51.5 8t29.5 24t20 54l132 496q10 37 8 54.5t-17.5 24t-49.5 7.5l5 20q28 -1 75.5 -2t101.5 -1q53 0 102 1t86 2l-5 -20q-34 -1 -53 -7.5t-29.5 -24t-20.5 -54.5z
M560 844l-6 -25h-432l6 25h432z" />
    <glyph glyph-name="Iogonek" unicode="&#x12e;" horiz-adv-x="422" 
d="M262 106q-9 -36 -8 -54t17 -24t50 -8l-4 -20q-32 2 -83 2.5t-104 0.5q-54 0 -101 -0.5t-76 -2.5l5 20q33 2 51.5 8t29.5 24t20 54l132 496q10 37 8 54.5t-17.5 24t-49.5 7.5l5 20q28 -1 75.5 -2t101.5 -1q53 0 102 1t86 2l-5 -20q-34 -1 -53 -7.5t-29.5 -24t-20.5 -54.5z
M305 3q-33 -13 -54.5 -33t-32 -41t-10.5 -40q0 -26 29 -26q14 0 32.5 4.5t38.5 14.5l11 -17q-40 -28 -78 -40.5t-79 -12.5t-66 16t-25 45q0 31 30.5 56t80 43.5t105.5 30.5h18z" />
    <glyph glyph-name="Itilde" unicode="&#x128;" horiz-adv-x="422" 
d="M262 106q-9 -36 -8 -54t17 -24t50 -8l-4 -20q-32 2 -83 2.5t-104 0.5q-54 0 -101 -0.5t-76 -2.5l5 20q33 2 51.5 8t29.5 24t20 54l132 496q10 37 8 54.5t-17.5 24t-49.5 7.5l5 20q28 -1 75.5 -2t101.5 -1q53 0 102 1t86 2l-5 -20q-34 -1 -53 -7.5t-29.5 -24t-20.5 -54.5z
M311 948q39 0 65 -11t46 -25.5t40.5 -25.5t49.5 -11q23 0 43 13.5t39 44.5l18 -5q-32 -87 -84.5 -125t-105.5 -38q-39 0 -65 11t-46 25.5t-40.5 25.5t-49.5 11q-23 0 -42.5 -13t-39.5 -45l-18 5q32 87 84.5 125t105.5 38z" />
    <glyph glyph-name="J" unicode="J" horiz-adv-x="715" 
d="M695 366l-3 -20h-431l3 20h431zM414 543q-29 0 -55.5 7t-50.5 16t-46 16t-42 7q-23 0 -40 -12t-17 -39q0 -33 31.5 -54t106.5 -26l-1 -9l-1 -9q-65 4 -114 23t-76 53.5t-27 82.5q0 62 39 101t120 39q43 0 75.5 -10t60 -24t56 -28.5t61.5 -24.5t77 -10q33 0 80 8t84 27
q21 32 41 49t35 4q12 -10 -1 -27t-66 -37q-63 -57 -99 -150t-66 -209l-62 -242q-17 -68 -56.5 -126t-107.5 -92.5t-173 -34.5q-45 0 -82.5 8.5t-60 28t-22.5 52.5q0 38 26.5 62.5t77.5 24.5q42 0 71.5 -18t29.5 -55q0 -28 -16.5 -49t-48.5 -35q8 -1 13 -1.5t10 -0.5
q23 0 39.5 11t29.5 34t25.5 59.5t26.5 86.5l69 242q22 76 54 132.5t74.5 100t95 80.5t113.5 75q-48 -13 -83 -31.5t-65.5 -35.5t-64 -28.5t-78.5 -11.5z" />
    <glyph glyph-name="Jcircumflex" unicode="&#x134;" horiz-adv-x="715" 
d="M695 366l-3 -20h-431l3 20h431zM414 543q-29 0 -55.5 7t-50.5 16t-46 16t-42 7q-23 0 -40 -12t-17 -39q0 -33 31.5 -54t106.5 -26l-1 -9l-1 -9q-65 4 -114 23t-76 53.5t-27 82.5q0 62 39 101t120 39q43 0 75.5 -10t60 -24t56 -28.5t61.5 -24.5t77 -10q33 0 80 8t84 27
q21 32 41 49t35 4q12 -10 -1 -27t-66 -37q-63 -57 -99 -150t-66 -209l-62 -242q-17 -68 -56.5 -126t-107.5 -92.5t-173 -34.5q-45 0 -82.5 8.5t-60 28t-22.5 52.5q0 38 26.5 62.5t77.5 24.5q42 0 71.5 -18t29.5 -55q0 -28 -16.5 -49t-48.5 -35q8 -1 13 -1.5t10 -0.5
q23 0 39.5 11t29.5 34t25.5 59.5t26.5 86.5l69 242q22 76 54 132.5t74.5 100t95 80.5t113.5 75q-48 -13 -83 -31.5t-65.5 -35.5t-64 -28.5t-78.5 -11.5zM559 824q-46 -16 -103.5 -29.5t-121.5 -24.5l-5 14q91 29 169.5 75.5t125.5 96.5h18q19 -58 49.5 -99t89.5 -73l-4 -14
q-50 8 -88 16.5t-69 17.5t-61 20z" />
    <glyph glyph-name="K" unicode="K" horiz-adv-x="783" 
d="M262 106q-9 -36 -8 -54t17 -24t50 -8l-4 -20q-31 2 -79 2.5t-98 0.5q-57 0 -106.5 -0.5t-80.5 -2.5l5 20q33 2 51.5 8t29.5 24t20 54l132 496q10 37 8 54.5t-17.5 24t-49.5 7.5l5 20q29 -1 79.5 -2t107.5 -1q50 0 96.5 1t81.5 2l-5 -20q-34 -1 -53 -7.5t-29.5 -24
t-20.5 -54.5zM646 71q15 0 25.5 13t17.5 35l17 51h20l-26 -77q-19 -56 -58 -81.5t-84 -25.5q-75 0 -109.5 37.5t-24.5 95.5l28 158q5 25 4.5 42t-7.5 28t-22 18l2 10q72 -1 117 -13t67.5 -34.5t28 -55t-1.5 -74.5l-16 -100q-2 -12 5 -19.5t17 -7.5zM441 360
q-53 -14 -72.5 -12t-15.5 21q4 17 21.5 20t66.5 -11v-18zM639 677q-17 -21 -28.5 -52t-21 -66t-21 -69t-29 -62t-44 -44.5t-67.5 -15.5l2 10q45 5 71 30t41 62t25 78.5t22.5 78.5t34.5 62q17 20 38 26.5t41 6.5q51 0 84.5 -30.5t33.5 -81.5q0 -29 -13 -56.5t-38 -45.5
t-62 -18q-32 0 -58.5 20.5t-26.5 62.5q0 39 27.5 74.5t75.5 52.5q-4 2 -10.5 3.5t-15.5 1.5q-22 0 -36 -7t-25 -21z" />
    <glyph glyph-name="uni01E8" unicode="&#x1e8;" horiz-adv-x="783" 
d="M262 106q-9 -36 -8 -54t17 -24t50 -8l-4 -20q-31 2 -79 2.5t-98 0.5q-57 0 -106.5 -0.5t-80.5 -2.5l5 20q33 2 51.5 8t29.5 24t20 54l132 496q10 37 8 54.5t-17.5 24t-49.5 7.5l5 20q29 -1 79.5 -2t107.5 -1q50 0 96.5 1t81.5 2l-5 -20q-34 -1 -53 -7.5t-29.5 -24
t-20.5 -54.5zM646 71q15 0 25.5 13t17.5 35l17 51h20l-26 -77q-19 -56 -58 -81.5t-84 -25.5q-75 0 -109.5 37.5t-24.5 95.5l28 158q5 25 4.5 42t-7.5 28t-22 18l2 10q72 -1 117 -13t67.5 -34.5t28 -55t-1.5 -74.5l-16 -100q-2 -12 5 -19.5t17 -7.5zM441 360
q-53 -14 -72.5 -12t-15.5 21q4 17 21.5 20t66.5 -11v-18zM639 677q-17 -21 -28.5 -52t-21 -66t-21 -69t-29 -62t-44 -44.5t-67.5 -15.5l2 10q45 5 71 30t41 62t25 78.5t22.5 78.5t34.5 62q17 20 38 26.5t41 6.5q51 0 84.5 -30.5t33.5 -81.5q0 -29 -13 -56.5t-38 -45.5
t-62 -18q-32 0 -58.5 20.5t-26.5 62.5q0 39 27.5 74.5t75.5 52.5q-4 2 -10.5 3.5t-15.5 1.5q-22 0 -36 -7t-25 -21zM547 892q47 16 104 30t121 24l5 -14q-91 -28 -169.5 -75t-125.5 -97h-18q-19 59 -49.5 99.5t-89.5 72.5l4 14q50 -8 88 -16.5t69.5 -17.5t60.5 -20z" />
    <glyph glyph-name="uni0136" unicode="&#x136;" horiz-adv-x="783" 
d="M262 106q-9 -36 -8 -54t17 -24t50 -8l-4 -20q-31 2 -79 2.5t-98 0.5q-57 0 -106.5 -0.5t-80.5 -2.5l5 20q33 2 51.5 8t29.5 24t20 54l132 496q10 37 8 54.5t-17.5 24t-49.5 7.5l5 20q29 -1 79.5 -2t107.5 -1q50 0 96.5 1t81.5 2l-5 -20q-34 -1 -53 -7.5t-29.5 -24
t-20.5 -54.5zM646 71q15 0 25.5 13t17.5 35l17 51h20l-26 -77q-19 -56 -58 -81.5t-84 -25.5q-75 0 -109.5 37.5t-24.5 95.5l28 158q5 25 4.5 42t-7.5 28t-22 18l2 10q72 -1 117 -13t67.5 -34.5t28 -55t-1.5 -74.5l-16 -100q-2 -12 5 -19.5t17 -7.5zM441 360
q-53 -14 -72.5 -12t-15.5 21q4 17 21.5 20t66.5 -11v-18zM639 677q-17 -21 -28.5 -52t-21 -66t-21 -69t-29 -62t-44 -44.5t-67.5 -15.5l2 10q45 5 71 30t41 62t25 78.5t22.5 78.5t34.5 62q17 20 38 26.5t41 6.5q51 0 84.5 -30.5t33.5 -81.5q0 -29 -13 -56.5t-38 -45.5
t-62 -18q-32 0 -58.5 20.5t-26.5 62.5q0 39 27.5 74.5t75.5 52.5q-4 2 -10.5 3.5t-15.5 1.5q-22 0 -36 -7t-25 -21zM304 -42q27 0 52 -14.5t25 -49.5q0 -61 -46.5 -97t-117.5 -38v21q47 1 78.5 15.5t38.5 38.5q-13 -8 -29.5 -13t-37.5 -5q-34 0 -52 13t-18 40q0 41 32 65
t75 24z" />
    <glyph glyph-name="L" unicode="L" horiz-adv-x="617" 
d="M580 210q-6 -16 -12 -37t-12 -45q-5 -19 -13 -54.5t-13 -73.5q-51 2 -113.5 2.5t-112.5 0.5h-68.5t-91 -0.5l-99 -1t-93.5 -1.5l4 20q34 2 53 8t30 24t20 54l132 496q10 37 8 54.5t-17.5 24t-49.5 7.5l5 20q29 -1 80.5 -2t108.5 -1q50 0 95 1t80 2l-5 -20
q-34 -1 -53 -7.5t-29.5 -24t-20.5 -54.5l-132 -496q-9 -36 -8 -54t16.5 -23.5t48.5 -5.5h18q34 0 74.5 18t80 59t67.5 110h22z" />
    <glyph glyph-name="Lacute" unicode="&#x139;" horiz-adv-x="617" 
d="M580 210q-6 -16 -12 -37t-12 -45q-5 -19 -13 -54.5t-13 -73.5q-51 2 -113.5 2.5t-112.5 0.5h-68.5t-91 -0.5l-99 -1t-93.5 -1.5l4 20q34 2 53 8t30 24t20 54l132 496q10 37 8 54.5t-17.5 24t-49.5 7.5l5 20q29 -1 80.5 -2t108.5 -1q50 0 95 1t80 2l-5 -20
q-34 -1 -53 -7.5t-29.5 -24t-20.5 -54.5l-132 -496q-9 -36 -8 -54t16.5 -23.5t48.5 -5.5h18q34 0 74.5 18t80 59t67.5 110h22zM314 784q48 42 78 75.5t54.5 58.5t53.5 40q17 9 37.5 11t40 -5.5t30.5 -28.5q15 -28 0.5 -52t-45.5 -41q-26 -14 -60 -22.5t-78.5 -18.5
t-103.5 -29z" />
    <glyph glyph-name="Lcaron" unicode="&#x13d;" horiz-adv-x="617" 
d="M580 210q-6 -16 -12 -37t-12 -45q-5 -19 -13 -54.5t-13 -73.5q-51 2 -113.5 2.5t-112.5 0.5h-68.5t-91 -0.5l-99 -1t-93.5 -1.5l4 20q34 2 53 8t30 24t20 54l132 496q10 37 8 54.5t-17.5 24t-49.5 7.5l5 20q29 -1 80.5 -2t108.5 -1q50 0 95 1t80 2l-5 -20
q-34 -1 -53 -7.5t-29.5 -24t-20.5 -54.5l-132 -496q-9 -36 -8 -54t16.5 -23.5t48.5 -5.5h18q34 0 74.5 18t80 59t67.5 110h22zM495 485q29 70 40 117.5t11 65.5q0 9 -4.5 14t-18.5 5l3 21q12 0 22 -0.5t20 -0.5q39 0 65 4t47 8q1 -2 1 -12q0 -36 -46 -96.5t-126 -129.5z" />
    <glyph glyph-name="uni013B" unicode="&#x13b;" horiz-adv-x="617" 
d="M580 210q-6 -16 -12 -37t-12 -45q-5 -19 -13 -54.5t-13 -73.5q-51 2 -113.5 2.5t-112.5 0.5h-68.5t-91 -0.5l-99 -1t-93.5 -1.5l4 20q34 2 53 8t30 24t20 54l132 496q10 37 8 54.5t-17.5 24t-49.5 7.5l5 20q29 -1 80.5 -2t108.5 -1q50 0 95 1t80 2l-5 -20
q-34 -1 -53 -7.5t-29.5 -24t-20.5 -54.5l-132 -496q-9 -36 -8 -54t16.5 -23.5t48.5 -5.5h18q34 0 74.5 18t80 59t67.5 110h22zM290 -42q27 0 52 -14.5t25 -49.5q0 -61 -46.5 -97t-117.5 -38v21q47 1 78.5 15.5t38.5 38.5q-13 -8 -29.5 -13t-37.5 -5q-34 0 -52 13t-18 40
q0 41 32 65t75 24z" />
    <glyph glyph-name="Ldot" unicode="&#x13f;" horiz-adv-x="637" 
d="M580 210q-6 -16 -12 -37t-12 -45q-5 -19 -13 -54.5t-13 -73.5q-51 2 -113.5 2.5t-112.5 0.5h-68.5t-91 -0.5l-99 -1t-93.5 -1.5l4 20q34 2 53 8t30 24t20 54l132 496q10 37 8 54.5t-17.5 24t-49.5 7.5l5 20q29 -1 80.5 -2t108.5 -1q50 0 95 1t80 2l-5 -20
q-34 -1 -53 -7.5t-29.5 -24t-20.5 -54.5l-132 -496q-9 -36 -8 -54t16.5 -23.5t48.5 -5.5h18q34 0 74.5 18t80 59t67.5 110h22zM455 357q0 47 32 76.5t80 29.5q38 0 58.5 -17t20.5 -51q0 -27 -15 -50.5t-40.5 -38.5t-57.5 -15q-38 0 -58 17t-20 49z" />
    <glyph glyph-name="Lslash" unicode="&#x141;" horiz-adv-x="618" 
d="M190 308l328 165l-6 -23l-328 -165zM186 295l-169 -85l6 23l169 85zM581 210q-6 -16 -12 -37t-12 -45q-5 -19 -13 -54.5t-13 -73.5q-51 2 -113.5 2.5t-112.5 0.5h-68.5t-91 -0.5l-99 -1t-93.5 -1.5l4 20q34 2 53 8t30 24t20 54l132 496q10 37 8 54.5t-17.5 24t-49.5 7.5
l5 20q29 -1 80.5 -2t108.5 -1q50 0 95 1t80 2l-5 -20q-34 -1 -53 -7.5t-29.5 -24t-20.5 -54.5l-132 -496q-9 -36 -8 -54t16.5 -23.5t48.5 -5.5h18q34 0 74.5 18t80 59t67.5 110h22z" />
    <glyph glyph-name="M" unicode="M" horiz-adv-x="949" 
d="M746 705h98q53 0 100.5 1t84.5 2l-5 -20q-34 -1 -53 -7.5t-29.5 -24t-20.5 -54.5l-132 -496q-9 -36 -7.5 -54t17.5 -24t49 -8l-4 -20q-37 2 -84 2.5t-100 0.5q-54 0 -102.5 -0.5t-77.5 -2.5l4 20q35 2 53.5 8t29.5 24t20 54l145 539l-415 -650h-22l-89 584l-116 -442
q-7 -28 -6.5 -54.5t19.5 -43.5t68 -19l-4 -20q-12 1 -33.5 1.5t-44.5 1t-41 0.5q-26 0 -52 -0.5t-43 -2.5l4 20q35 2 56.5 19t34.5 43.5t20 54.5l124 465q10 37 8 54.5t-17.5 24t-49.5 7.5l5 20q28 -1 73.5 -2t95.5 -1q25 0 49 1t43 2l58 -456z" />
    <glyph glyph-name="N" unicode="N" horiz-adv-x="861" 
d="M543 -5l-268 488l2 18t4 41.5t4 41.5l2 18q8 37 5.5 54.5t-20 24t-56.5 7.5l5 20q16 -1 39.5 -2t49.5 -1q47 0 81 3l224 -436l-3.5 -20t-9.5 -51.5t-12 -67t-12 -67t-9.5 -51.5l-3.5 -20h-22zM851 737q-25 0 -47 -16t-38 -39q-46 -68 -94 -239t-107 -448l-14 28
q15 67 32 144.5t36.5 155.5t40 149t43 127.5t45.5 90.5q19 27 45 45.5t63 18.5q53 0 85 -31t32 -76q0 -48 -32.5 -76.5t-79.5 -28.5q-40 0 -64.5 19.5t-24.5 54.5q0 45 30 75.5t74 37.5q-4 4 -10.5 6t-14.5 2zM37 -57q28 0 49 15.5t37 40.5q29 46 58.5 144t60 237t61.5 305
l17 -21q-16 -82 -33.5 -166.5t-35.5 -165t-37 -149.5t-38 -119.5t-37 -74.5t-42.5 -43.5t-64.5 -19.5q-53 0 -85 31t-32 76q0 48 33 76.5t79 28.5q41 0 65 -19.5t24 -54.5q0 -45 -30 -75t-74 -38q4 -4 10.5 -6t14.5 -2z" />
    <glyph glyph-name="Nacute" unicode="&#x143;" horiz-adv-x="861" 
d="M543 -5l-268 488l2 18t4 41.5t4 41.5l2 18q8 37 5.5 54.5t-20 24t-56.5 7.5l5 20q16 -1 39.5 -2t49.5 -1q47 0 81 3l224 -436l-3.5 -20t-9.5 -51.5t-12 -67t-12 -67t-9.5 -51.5l-3.5 -20h-22zM851 737q-25 0 -47 -16t-38 -39q-46 -68 -94 -239t-107 -448l-14 28
q15 67 32 144.5t36.5 155.5t40 149t43 127.5t45.5 90.5q19 27 45 45.5t63 18.5q53 0 85 -31t32 -76q0 -48 -32.5 -76.5t-79.5 -28.5q-40 0 -64.5 19.5t-24.5 54.5q0 45 30 75.5t74 37.5q-4 4 -10.5 6t-14.5 2zM37 -57q28 0 49 15.5t37 40.5q29 46 58.5 144t60 237t61.5 305
l17 -21q-16 -82 -33.5 -166.5t-35.5 -165t-37 -149.5t-38 -119.5t-37 -74.5t-42.5 -43.5t-64.5 -19.5q-53 0 -85 31t-32 76q0 48 33 76.5t79 28.5q41 0 65 -19.5t24 -54.5q0 -45 -30 -75t-74 -38q4 -4 10.5 -6t14.5 -2zM520 784q48 42 78 75.5t54.5 58.5t53.5 40
q17 9 37.5 11t40 -5.5t30.5 -28.5q15 -28 0.5 -52t-45.5 -41q-26 -14 -60 -22.5t-78.5 -18.5t-103.5 -29z" />
    <glyph glyph-name="Ncaron" unicode="&#x147;" horiz-adv-x="861" 
d="M543 -5l-268 488l2 18t4 41.5t4 41.5l2 18q8 37 5.5 54.5t-20 24t-56.5 7.5l5 20q16 -1 39.5 -2t49.5 -1q47 0 81 3l224 -436l-3.5 -20t-9.5 -51.5t-12 -67t-12 -67t-9.5 -51.5l-3.5 -20h-22zM851 737q-25 0 -47 -16t-38 -39q-46 -68 -94 -239t-107 -448l-14 28
q15 67 32 144.5t36.5 155.5t40 149t43 127.5t45.5 90.5q19 27 45 45.5t63 18.5q53 0 85 -31t32 -76q0 -48 -32.5 -76.5t-79.5 -28.5q-40 0 -64.5 19.5t-24.5 54.5q0 45 30 75.5t74 37.5q-4 4 -10.5 6t-14.5 2zM37 -57q28 0 49 15.5t37 40.5q29 46 58.5 144t60 237t61.5 305
l17 -21q-16 -82 -33.5 -166.5t-35.5 -165t-37 -149.5t-38 -119.5t-37 -74.5t-42.5 -43.5t-64.5 -19.5q-53 0 -85 31t-32 76q0 48 33 76.5t79 28.5q41 0 65 -19.5t24 -54.5q0 -45 -30 -75t-74 -38q4 -4 10.5 -6t14.5 -2zM619 892q47 16 104 30t121 24l5 -14
q-91 -28 -169.5 -75t-125.5 -97h-18q-19 59 -49.5 99.5t-89.5 72.5l4 14q50 -8 88 -16.5t69.5 -17.5t60.5 -20z" />
    <glyph glyph-name="uni0145" unicode="&#x145;" horiz-adv-x="861" 
d="M543 -5l-268 488l2 18t4 41.5t4 41.5l2 18q8 37 5.5 54.5t-20 24t-56.5 7.5l5 20q16 -1 39.5 -2t49.5 -1q47 0 81 3l224 -436l-3.5 -20t-9.5 -51.5t-12 -67t-12 -67t-9.5 -51.5l-3.5 -20h-22zM851 737q-25 0 -47 -16t-38 -39q-46 -68 -94 -239t-107 -448l-14 28
q15 67 32 144.5t36.5 155.5t40 149t43 127.5t45.5 90.5q19 27 45 45.5t63 18.5q53 0 85 -31t32 -76q0 -48 -32.5 -76.5t-79.5 -28.5q-40 0 -64.5 19.5t-24.5 54.5q0 45 30 75.5t74 37.5q-4 4 -10.5 6t-14.5 2zM37 -57q28 0 49 15.5t37 40.5q29 46 58.5 144t60 237t61.5 305
l17 -21q-16 -82 -33.5 -166.5t-35.5 -165t-37 -149.5t-38 -119.5t-37 -74.5t-42.5 -43.5t-64.5 -19.5q-53 0 -85 31t-32 76q0 48 33 76.5t79 28.5q41 0 65 -19.5t24 -54.5q0 -45 -30 -75t-74 -38q4 -4 10.5 -6t14.5 -2zM333 -42q27 0 52 -14.5t25 -49.5q0 -61 -46.5 -97
t-117.5 -38v21q47 1 78.5 15.5t38.5 38.5q-13 -8 -29.5 -13t-37.5 -5q-34 0 -52 13t-18 40q0 41 32 65t75 24z" />
    <glyph glyph-name="Eng" unicode="&#x14a;" horiz-adv-x="735" 
d="M693 602q10 37 8 54.5t-17.5 24t-49.5 7.5l5 20q17 -1 42 -2t51 -1t50 1t41 2l-5 -20q-34 -1 -53 -7.5t-29.5 -24t-20.5 -54.5l-160 -607h-22l-350 479l-99 -368q-10 -36 -8.5 -54t18 -24t49.5 -8l-4 -20q-18 2 -40.5 2.5t-48.5 0.5t-52 -0.5t-43 -2.5l4 20q35 2 53.5 8
t29.5 24t20 54l132 496q10 36 7.5 54t-21 24.5t-57.5 7.5l5 20q16 -1 39.5 -2t49.5 -1q47 0 81 3l309 -433zM556 1q-10 -52 -27 -95t-48 -68.5t-85 -25.5q-33 0 -65.5 8.5t-53.5 28t-21 52.5q0 38 26.5 62.5t77.5 24.5q42 0 71.5 -18t29.5 -55q0 -28 -17.5 -49t-49.5 -35
q3 -1 6 -1.5t7 -0.5q35 0 58 19t37 48.5t22 62.5t14 61z" />
    <glyph glyph-name="Ntilde" unicode="&#xd1;" horiz-adv-x="861" 
d="M543 -5l-268 488l2 18t4 41.5t4 41.5l2 18q8 37 5.5 54.5t-20 24t-56.5 7.5l5 20q16 -1 39.5 -2t49.5 -1q47 0 81 3l224 -436l-3.5 -20t-9.5 -51.5t-12 -67t-12 -67t-9.5 -51.5l-3.5 -20h-22zM851 737q-25 0 -47 -16t-38 -39q-46 -68 -94 -239t-107 -448l-14 28
q15 67 32 144.5t36.5 155.5t40 149t43 127.5t45.5 90.5q19 27 45 45.5t63 18.5q53 0 85 -31t32 -76q0 -48 -32.5 -76.5t-79.5 -28.5q-40 0 -64.5 19.5t-24.5 54.5q0 45 30 75.5t74 37.5q-4 4 -10.5 6t-14.5 2zM37 -57q28 0 49 15.5t37 40.5q29 46 58.5 144t60 237t61.5 305
l17 -21q-16 -82 -33.5 -166.5t-35.5 -165t-37 -149.5t-38 -119.5t-37 -74.5t-42.5 -43.5t-64.5 -19.5q-53 0 -85 31t-32 76q0 48 33 76.5t79 28.5q41 0 65 -19.5t24 -54.5q0 -45 -30 -75t-74 -38q4 -4 10.5 -6t14.5 -2zM509 948q39 0 65 -11t46 -25.5t40.5 -25.5t49.5 -11
q23 0 43 13.5t39 44.5l18 -5q-32 -87 -84.5 -125t-105.5 -38q-39 0 -65 11t-46 25.5t-40.5 25.5t-49.5 11q-23 0 -42.5 -13t-39.5 -45l-18 5q32 87 84.5 125t105.5 38z" />
    <glyph glyph-name="O" unicode="O" horiz-adv-x="809" 
d="M502 704q-39 0 -76 -27.5t-69 -76t-56 -111t-37.5 -133.5t-13.5 -143q0 -98 25 -153.5t63 -55.5q39 0 76 27.5t69 76t56 111t37.5 133.5t13.5 143q0 98 -25 153.5t-63 55.5zM34 226q0 66 22 136t63 134t99.5 115t132.5 81t160 30q138 0 217 -62.5t79 -178.5
q0 -66 -22 -135.5t-63.5 -133.5t-100.5 -115t-132.5 -81t-159.5 -30q-138 0 -216.5 62.5t-78.5 177.5z" />
    <glyph glyph-name="Oacute" unicode="&#xd3;" horiz-adv-x="809" 
d="M502 704q-39 0 -76 -27.5t-69 -76t-56 -111t-37.5 -133.5t-13.5 -143q0 -98 25 -153.5t63 -55.5q39 0 76 27.5t69 76t56 111t37.5 133.5t13.5 143q0 98 -25 153.5t-63 55.5zM34 226q0 66 22 136t63 134t99.5 115t132.5 81t160 30q138 0 217 -62.5t79 -178.5
q0 -66 -22 -135.5t-63.5 -133.5t-100.5 -115t-132.5 -81t-159.5 -30q-138 0 -216.5 62.5t-78.5 177.5zM494 784q48 42 78 75.5t54.5 58.5t53.5 40q17 9 37.5 11t40 -5.5t30.5 -28.5q15 -28 0.5 -52t-45.5 -41q-26 -14 -60 -22.5t-78.5 -18.5t-103.5 -29z" />
    <glyph glyph-name="Obreve" unicode="&#x14e;" horiz-adv-x="809" 
d="M502 704q-39 0 -76 -27.5t-69 -76t-56 -111t-37.5 -133.5t-13.5 -143q0 -98 25 -153.5t63 -55.5q39 0 76 27.5t69 76t56 111t37.5 133.5t13.5 143q0 98 -25 153.5t-63 55.5zM34 226q0 66 22 136t63 134t99.5 115t132.5 81t160 30q138 0 217 -62.5t79 -178.5
q0 -66 -22 -135.5t-63.5 -133.5t-100.5 -115t-132.5 -81t-159.5 -30q-138 0 -216.5 62.5t-78.5 177.5zM529 882q73 0 129 14t104 42l12 -9q-26 -43 -67.5 -81t-92.5 -61.5t-106 -23.5q-49 0 -82.5 22t-53.5 59t-28 82l15 8q31 -26 70 -39t100 -13z" />
    <glyph glyph-name="Ocircumflex" unicode="&#xd4;" horiz-adv-x="809" 
d="M502 704q-39 0 -76 -27.5t-69 -76t-56 -111t-37.5 -133.5t-13.5 -143q0 -98 25 -153.5t63 -55.5q39 0 76 27.5t69 76t56 111t37.5 133.5t13.5 143q0 98 -25 153.5t-63 55.5zM34 226q0 66 22 136t63 134t99.5 115t132.5 81t160 30q138 0 217 -62.5t79 -178.5
q0 -66 -22 -135.5t-63.5 -133.5t-100.5 -115t-132.5 -81t-159.5 -30q-138 0 -216.5 62.5t-78.5 177.5zM511 824q-46 -16 -103.5 -29.5t-121.5 -24.5l-5 14q91 29 169.5 75.5t125.5 96.5h18q19 -58 49.5 -99t89.5 -73l-4 -14q-50 8 -88 16.5t-69 17.5t-61 20z" />
    <glyph glyph-name="uni1ED0" unicode="&#x1ed0;" horiz-adv-x="809" 
d="M502 704q-39 0 -76 -27.5t-69 -76t-56 -111t-37.5 -133.5t-13.5 -143q0 -98 25 -153.5t63 -55.5q39 0 76 27.5t69 76t56 111t37.5 133.5t13.5 143q0 98 -25 153.5t-63 55.5zM34 226q0 66 22 136t63 134t99.5 115t132.5 81t160 30q138 0 217 -62.5t79 -178.5
q0 -66 -22 -135.5t-63.5 -133.5t-100.5 -115t-132.5 -81t-159.5 -30q-138 0 -216.5 62.5t-78.5 177.5zM511 824q-46 -16 -103.5 -29.5t-121.5 -24.5l-5 14q91 29 169.5 75.5t125.5 96.5h18q19 -58 49.5 -99t89.5 -73l-4 -14q-50 8 -88 16.5t-69 17.5t-61 20zM549 1004
q48 42 78 75.5t54.5 58.5t53.5 40q17 9 37.5 11t40 -5.5t30.5 -28.5q15 -28 0.5 -52t-45.5 -41q-26 -14 -60 -22.5t-78.5 -18.5t-103.5 -29z" />
    <glyph glyph-name="uni1ED8" unicode="&#x1ed8;" horiz-adv-x="809" 
d="M502 704q-39 0 -76 -27.5t-69 -76t-56 -111t-37.5 -133.5t-13.5 -143q0 -98 25 -153.5t63 -55.5q39 0 76 27.5t69 76t56 111t37.5 133.5t13.5 143q0 98 -25 153.5t-63 55.5zM34 226q0 66 22 136t63 134t99.5 115t132.5 81t160 30q138 0 217 -62.5t79 -178.5
q0 -66 -22 -135.5t-63.5 -133.5t-100.5 -115t-132.5 -81t-159.5 -30q-138 0 -216.5 62.5t-78.5 177.5zM511 824q-46 -16 -103.5 -29.5t-121.5 -24.5l-5 14q91 29 169.5 75.5t125.5 96.5h18q19 -58 49.5 -99t89.5 -73l-4 -14q-50 8 -88 16.5t-69 17.5t-61 20zM304 -191
q-36 0 -55 14t-19 42q0 43 27 66.5t74 23.5q36 0 55 -14t19 -42q0 -43 -27 -66.5t-74 -23.5z" />
    <glyph glyph-name="uni1ED2" unicode="&#x1ed2;" horiz-adv-x="809" 
d="M502 704q-39 0 -76 -27.5t-69 -76t-56 -111t-37.5 -133.5t-13.5 -143q0 -98 25 -153.5t63 -55.5q39 0 76 27.5t69 76t56 111t37.5 133.5t13.5 143q0 98 -25 153.5t-63 55.5zM34 226q0 66 22 136t63 134t99.5 115t132.5 81t160 30q138 0 217 -62.5t79 -178.5
q0 -66 -22 -135.5t-63.5 -133.5t-100.5 -115t-132.5 -81t-159.5 -30q-138 0 -216.5 62.5t-78.5 177.5zM511 824q-46 -16 -103.5 -29.5t-121.5 -24.5l-5 14q91 29 169.5 75.5t125.5 96.5h18q19 -58 49.5 -99t89.5 -73l-4 -14q-50 8 -88 16.5t-69 17.5t-61 20zM623 992
q-58 18 -97 24.5t-65.5 10.5t-49.5 16q-25 13 -35 37.5t2 48.5q14 28 43 34.5t51 -4.5q25 -11 42 -31.5t42.5 -51t73.5 -72.5z" />
    <glyph glyph-name="uni1ED4" unicode="&#x1ed4;" horiz-adv-x="809" 
d="M502 704q-39 0 -76 -27.5t-69 -76t-56 -111t-37.5 -133.5t-13.5 -143q0 -98 25 -153.5t63 -55.5q39 0 76 27.5t69 76t56 111t37.5 133.5t13.5 143q0 98 -25 153.5t-63 55.5zM34 226q0 66 22 136t63 134t99.5 115t132.5 81t160 30q138 0 217 -62.5t79 -178.5
q0 -66 -22 -135.5t-63.5 -133.5t-100.5 -115t-132.5 -81t-159.5 -30q-138 0 -216.5 62.5t-78.5 177.5zM511 824q-46 -16 -103.5 -29.5t-121.5 -24.5l-5 14q91 29 169.5 75.5t125.5 96.5h18q19 -58 49.5 -99t89.5 -73l-4 -14q-50 8 -88 16.5t-69 17.5t-61 20zM757 915
q5 31 19 48.5t29.5 30t26.5 29t11 46.5q0 35 -17 49.5t-46 14.5q-16 0 -28 -3t-17 -6q19 -7 30.5 -21t11.5 -35q0 -28 -20.5 -45t-48.5 -17q-25 0 -40 14t-15 37q0 25 17.5 43t42.5 30q24 11 52.5 17t61.5 6q56 0 90.5 -18.5t34.5 -59.5q0 -29 -16 -45t-40.5 -25.5t-50 -19
t-44.5 -25.5t-24 -45h-20z" />
    <glyph glyph-name="uni1ED6" unicode="&#x1ed6;" horiz-adv-x="809" 
d="M502 704q-39 0 -76 -27.5t-69 -76t-56 -111t-37.5 -133.5t-13.5 -143q0 -98 25 -153.5t63 -55.5q39 0 76 27.5t69 76t56 111t37.5 133.5t13.5 143q0 98 -25 153.5t-63 55.5zM34 226q0 66 22 136t63 134t99.5 115t132.5 81t160 30q138 0 217 -62.5t79 -178.5
q0 -66 -22 -135.5t-63.5 -133.5t-100.5 -115t-132.5 -81t-159.5 -30q-138 0 -216.5 62.5t-78.5 177.5zM511 824q-46 -16 -103.5 -29.5t-121.5 -24.5l-5 14q91 29 169.5 75.5t125.5 96.5h18q19 -58 49.5 -99t89.5 -73l-4 -14q-50 8 -88 16.5t-69 17.5t-61 20zM538 1168
q39 0 65 -11t46 -25.5t40.5 -25.5t49.5 -11q23 0 43 13.5t39 44.5l18 -5q-32 -87 -84.5 -125t-105.5 -38q-39 0 -65 11t-46 25.5t-40.5 25.5t-49.5 11q-23 0 -42.5 -13t-39.5 -45l-18 5q32 87 84.5 125t105.5 38z" />
    <glyph glyph-name="Odieresis" unicode="&#xd6;" horiz-adv-x="809" 
d="M502 704q-39 0 -76 -27.5t-69 -76t-56 -111t-37.5 -133.5t-13.5 -143q0 -98 25 -153.5t63 -55.5q39 0 76 27.5t69 76t56 111t37.5 133.5t13.5 143q0 98 -25 153.5t-63 55.5zM34 226q0 66 22 136t63 134t99.5 115t132.5 81t160 30q138 0 217 -62.5t79 -178.5
q0 -66 -22 -135.5t-63.5 -133.5t-100.5 -115t-132.5 -81t-159.5 -30q-138 0 -216.5 62.5t-78.5 177.5zM308 838q0 52 30.5 75t68.5 23q40 0 57.5 -21.5t17.5 -56.5q0 -34 -15 -55.5t-37.5 -31t-47.5 -9.5q-40 0 -57 21t-17 55zM566 838q0 52 30.5 75t68.5 23
q40 0 57.5 -21.5t17.5 -56.5q0 -34 -15 -55.5t-37.5 -31t-47.5 -9.5q-40 0 -57 21t-17 55z" />
    <glyph glyph-name="uni1ECC" unicode="&#x1ecc;" horiz-adv-x="809" 
d="M502 704q-39 0 -76 -27.5t-69 -76t-56 -111t-37.5 -133.5t-13.5 -143q0 -98 25 -153.5t63 -55.5q39 0 76 27.5t69 76t56 111t37.5 133.5t13.5 143q0 98 -25 153.5t-63 55.5zM34 226q0 66 22 136t63 134t99.5 115t132.5 81t160 30q138 0 217 -62.5t79 -178.5
q0 -66 -22 -135.5t-63.5 -133.5t-100.5 -115t-132.5 -81t-159.5 -30q-138 0 -216.5 62.5t-78.5 177.5zM304 -191q-36 0 -55 14t-19 42q0 43 27 66.5t74 23.5q36 0 55 -14t19 -42q0 -43 -27 -66.5t-74 -23.5z" />
    <glyph glyph-name="Ograve" unicode="&#xd2;" horiz-adv-x="809" 
d="M502 704q-39 0 -76 -27.5t-69 -76t-56 -111t-37.5 -133.5t-13.5 -143q0 -98 25 -153.5t63 -55.5q39 0 76 27.5t69 76t56 111t37.5 133.5t13.5 143q0 98 -25 153.5t-63 55.5zM34 226q0 66 22 136t63 134t99.5 115t132.5 81t160 30q138 0 217 -62.5t79 -178.5
q0 -66 -22 -135.5t-63.5 -133.5t-100.5 -115t-132.5 -81t-159.5 -30q-138 0 -216.5 62.5t-78.5 177.5zM568 772q-58 18 -97 24.5t-65.5 10.5t-49.5 16q-25 13 -35 37.5t2 48.5q14 28 43 34.5t51 -4.5q25 -11 42 -31.5t42.5 -51t73.5 -72.5z" />
    <glyph glyph-name="uni1ECE" unicode="&#x1ece;" horiz-adv-x="809" 
d="M502 704q-39 0 -76 -27.5t-69 -76t-56 -111t-37.5 -133.5t-13.5 -143q0 -98 25 -153.5t63 -55.5q39 0 76 27.5t69 76t56 111t37.5 133.5t13.5 143q0 98 -25 153.5t-63 55.5zM34 226q0 66 22 136t63 134t99.5 115t132.5 81t160 30q138 0 217 -62.5t79 -178.5
q0 -66 -22 -135.5t-63.5 -133.5t-100.5 -115t-132.5 -81t-159.5 -30q-138 0 -216.5 62.5t-78.5 177.5zM506 789q5 31 19 48.5t29.5 30t26.5 29t11 46.5q0 35 -17 49.5t-46 14.5q-16 0 -28 -3t-17 -6q19 -7 30.5 -21t11.5 -35q0 -28 -20.5 -45t-48.5 -17q-25 0 -40 14t-15 37
q0 25 17.5 43t42.5 30q24 11 52.5 17t61.5 6q56 0 90.5 -18.5t34.5 -59.5q0 -29 -16 -45t-40.5 -25.5t-50 -19t-44.5 -25.5t-24 -45h-20z" />
    <glyph glyph-name="Ohorn" unicode="&#x1a0;" horiz-adv-x="809" 
d="M606 686l-5 20q92 -12 150 -7t105 21l-3 -9q-25 11 -46.5 33.5t-21.5 55.5q0 35 23 55.5t54 20.5q32 0 56 -21.5t24 -60.5q0 -28 -15 -50.5t-47 -36.5q-33 -15 -103.5 -26t-170.5 5zM502 704q-39 0 -76 -27.5t-69 -76t-56 -111t-37.5 -133.5t-13.5 -143q0 -98 25 -153.5
t63 -55.5q39 0 76 27.5t69 76t56 111t37.5 133.5t13.5 143q0 98 -25 153.5t-63 55.5zM34 226q0 66 22 136t63 134t99.5 115t132.5 81t160 30q138 0 217 -62.5t79 -178.5q0 -66 -22 -135.5t-63.5 -133.5t-100.5 -115t-132.5 -81t-159.5 -30q-138 0 -216.5 62.5t-78.5 177.5z
" />
    <glyph glyph-name="uni1EDA" unicode="&#x1eda;" horiz-adv-x="809" 
d="M606 686l-5 20q92 -12 150 -7t105 21l-3 -9q-25 11 -46.5 33.5t-21.5 55.5q0 35 23 55.5t54 20.5q32 0 56 -21.5t24 -60.5q0 -28 -15 -50.5t-47 -36.5q-33 -15 -103.5 -26t-170.5 5zM502 704q-39 0 -76 -27.5t-69 -76t-56 -111t-37.5 -133.5t-13.5 -143q0 -98 25 -153.5
t63 -55.5q39 0 76 27.5t69 76t56 111t37.5 133.5t13.5 143q0 98 -25 153.5t-63 55.5zM34 226q0 66 22 136t63 134t99.5 115t132.5 81t160 30q138 0 217 -62.5t79 -178.5q0 -66 -22 -135.5t-63.5 -133.5t-100.5 -115t-132.5 -81t-159.5 -30q-138 0 -216.5 62.5t-78.5 177.5z
M494 784q48 42 78 75.5t54.5 58.5t53.5 40q17 9 37.5 11t40 -5.5t30.5 -28.5q15 -28 0.5 -52t-45.5 -41q-26 -14 -60 -22.5t-78.5 -18.5t-103.5 -29z" />
    <glyph glyph-name="uni1EE2" unicode="&#x1ee2;" horiz-adv-x="809" 
d="M606 686l-5 20q92 -12 150 -7t105 21l-3 -9q-25 11 -46.5 33.5t-21.5 55.5q0 35 23 55.5t54 20.5q32 0 56 -21.5t24 -60.5q0 -28 -15 -50.5t-47 -36.5q-33 -15 -103.5 -26t-170.5 5zM502 704q-39 0 -76 -27.5t-69 -76t-56 -111t-37.5 -133.5t-13.5 -143q0 -98 25 -153.5
t63 -55.5q39 0 76 27.5t69 76t56 111t37.5 133.5t13.5 143q0 98 -25 153.5t-63 55.5zM34 226q0 66 22 136t63 134t99.5 115t132.5 81t160 30q138 0 217 -62.5t79 -178.5q0 -66 -22 -135.5t-63.5 -133.5t-100.5 -115t-132.5 -81t-159.5 -30q-138 0 -216.5 62.5t-78.5 177.5z
M304 -191q-36 0 -55 14t-19 42q0 43 27 66.5t74 23.5q36 0 55 -14t19 -42q0 -43 -27 -66.5t-74 -23.5z" />
    <glyph glyph-name="uni1EDC" unicode="&#x1edc;" horiz-adv-x="809" 
d="M606 686l-5 20q92 -12 150 -7t105 21l-3 -9q-25 11 -46.5 33.5t-21.5 55.5q0 35 23 55.5t54 20.5q32 0 56 -21.5t24 -60.5q0 -28 -15 -50.5t-47 -36.5q-33 -15 -103.5 -26t-170.5 5zM502 704q-39 0 -76 -27.5t-69 -76t-56 -111t-37.5 -133.5t-13.5 -143q0 -98 25 -153.5
t63 -55.5q39 0 76 27.5t69 76t56 111t37.5 133.5t13.5 143q0 98 -25 153.5t-63 55.5zM34 226q0 66 22 136t63 134t99.5 115t132.5 81t160 30q138 0 217 -62.5t79 -178.5q0 -66 -22 -135.5t-63.5 -133.5t-100.5 -115t-132.5 -81t-159.5 -30q-138 0 -216.5 62.5t-78.5 177.5z
M568 772q-58 18 -97 24.5t-65.5 10.5t-49.5 16q-25 13 -35 37.5t2 48.5q14 28 43 34.5t51 -4.5q25 -11 42 -31.5t42.5 -51t73.5 -72.5z" />
    <glyph glyph-name="uni1EDE" unicode="&#x1ede;" horiz-adv-x="809" 
d="M606 686l-5 20q92 -12 150 -7t105 21l-3 -9q-25 11 -46.5 33.5t-21.5 55.5q0 35 23 55.5t54 20.5q32 0 56 -21.5t24 -60.5q0 -28 -15 -50.5t-47 -36.5q-33 -15 -103.5 -26t-170.5 5zM502 704q-39 0 -76 -27.5t-69 -76t-56 -111t-37.5 -133.5t-13.5 -143q0 -98 25 -153.5
t63 -55.5q39 0 76 27.5t69 76t56 111t37.5 133.5t13.5 143q0 98 -25 153.5t-63 55.5zM34 226q0 66 22 136t63 134t99.5 115t132.5 81t160 30q138 0 217 -62.5t79 -178.5q0 -66 -22 -135.5t-63.5 -133.5t-100.5 -115t-132.5 -81t-159.5 -30q-138 0 -216.5 62.5t-78.5 177.5z
M501 739q5 31 19 48.5t29.5 30t26.5 29t11 46.5q0 35 -17 49.5t-46 14.5q-16 0 -28 -3t-17 -6q19 -7 30.5 -21t11.5 -35q0 -28 -20.5 -45t-48.5 -17q-25 0 -40 14t-15 37q0 25 17.5 43t42.5 30q24 11 52.5 17t61.5 6q56 0 90.5 -18.5t34.5 -59.5q0 -29 -16 -45t-40.5 -25.5
t-50 -19t-44.5 -25.5t-24 -45h-20z" />
    <glyph glyph-name="uni1EE0" unicode="&#x1ee0;" horiz-adv-x="809" 
d="M606 686l-5 20q92 -12 150 -7t105 21l-3 -9q-25 11 -46.5 33.5t-21.5 55.5q0 35 23 55.5t54 20.5q32 0 56 -21.5t24 -60.5q0 -28 -15 -50.5t-47 -36.5q-33 -15 -103.5 -26t-170.5 5zM502 704q-39 0 -76 -27.5t-69 -76t-56 -111t-37.5 -133.5t-13.5 -143q0 -98 25 -153.5
t63 -55.5q39 0 76 27.5t69 76t56 111t37.5 133.5t13.5 143q0 98 -25 153.5t-63 55.5zM34 226q0 66 22 136t63 134t99.5 115t132.5 81t160 30q138 0 217 -62.5t79 -178.5q0 -66 -22 -135.5t-63.5 -133.5t-100.5 -115t-132.5 -81t-159.5 -30q-138 0 -216.5 62.5t-78.5 177.5z
M483 948q39 0 65 -11t46 -25.5t40.5 -25.5t49.5 -11q23 0 43 13.5t39 44.5l18 -5q-32 -87 -84.5 -125t-105.5 -38q-39 0 -65 11t-46 25.5t-40.5 25.5t-49.5 11q-23 0 -42.5 -13t-39.5 -45l-18 5q32 87 84.5 125t105.5 38z" />
    <glyph glyph-name="Ohungarumlaut" unicode="&#x150;" horiz-adv-x="809" 
d="M502 704q-39 0 -76 -27.5t-69 -76t-56 -111t-37.5 -133.5t-13.5 -143q0 -98 25 -153.5t63 -55.5q39 0 76 27.5t69 76t56 111t37.5 133.5t13.5 143q0 98 -25 153.5t-63 55.5zM34 226q0 66 22 136t63 134t99.5 115t132.5 81t160 30q138 0 217 -62.5t79 -178.5
q0 -66 -22 -135.5t-63.5 -133.5t-100.5 -115t-132.5 -81t-159.5 -30q-138 0 -216.5 62.5t-78.5 177.5zM560 782q33 42 52 73t33.5 53t31.5 35q22 16 51 11t45 -31q16 -22 9 -47t-31 -41q-17 -11 -41.5 -18.5t-58.5 -17t-82 -27.5zM333 782q33 42 52 73t33.5 53t31.5 35
q22 16 50.5 11t45.5 -31q15 -22 8.5 -47t-30.5 -41q-17 -11 -41.5 -18.5t-58.5 -17t-82 -27.5z" />
    <glyph glyph-name="Omacron" unicode="&#x14c;" horiz-adv-x="809" 
d="M502 704q-39 0 -76 -27.5t-69 -76t-56 -111t-37.5 -133.5t-13.5 -143q0 -98 25 -153.5t63 -55.5q39 0 76 27.5t69 76t56 111t37.5 133.5t13.5 143q0 98 -25 153.5t-63 55.5zM34 226q0 66 22 136t63 134t99.5 115t132.5 81t160 30q138 0 217 -62.5t79 -178.5
q0 -66 -22 -135.5t-63.5 -133.5t-100.5 -115t-132.5 -81t-159.5 -30q-138 0 -216.5 62.5t-78.5 177.5zM732 844l-6 -25h-432l6 25h432z" />
    <glyph glyph-name="Oslash" unicode="&#xd8;" horiz-adv-x="809" 
d="M502 704q-39 0 -76 -27.5t-69 -76t-56 -111t-37.5 -133.5t-13.5 -143q0 -98 25 -153.5t63 -55.5q39 0 76 27.5t69 76t56 111t37.5 133.5t13.5 143q0 98 -25 153.5t-63 55.5zM34 226q0 66 22 136t63 134t99.5 115t132.5 81t160 30q138 0 217 -62.5t79 -178.5
q0 -66 -22 -135.5t-63.5 -133.5t-100.5 -115t-132.5 -81t-159.5 -30q-138 0 -216.5 62.5t-78.5 177.5zM666 632l135 141l15 -13l-140 -148zM170 74l-144 -147l-17 14l148 151zM199 96l450 536l10 -20l-447 -534z" />
    <glyph glyph-name="Oslashacute" unicode="&#x1fe;" horiz-adv-x="809" 
d="M502 704q-39 0 -76 -27.5t-69 -76t-56 -111t-37.5 -133.5t-13.5 -143q0 -98 25 -153.5t63 -55.5q39 0 76 27.5t69 76t56 111t37.5 133.5t13.5 143q0 98 -25 153.5t-63 55.5zM34 226q0 66 22 136t63 134t99.5 115t132.5 81t160 30q138 0 217 -62.5t79 -178.5
q0 -66 -22 -135.5t-63.5 -133.5t-100.5 -115t-132.5 -81t-159.5 -30q-138 0 -216.5 62.5t-78.5 177.5zM666 632l135 141l15 -13l-140 -148zM170 74l-144 -147l-17 14l148 151zM199 96l450 536l10 -20l-447 -534zM494 784q48 42 78 75.5t54.5 58.5t53.5 40q17 9 37.5 11
t40 -5.5t30.5 -28.5q15 -28 0.5 -52t-45.5 -41q-26 -14 -60 -22.5t-78.5 -18.5t-103.5 -29z" />
    <glyph glyph-name="Otilde" unicode="&#xd5;" horiz-adv-x="809" 
d="M502 704q-39 0 -76 -27.5t-69 -76t-56 -111t-37.5 -133.5t-13.5 -143q0 -98 25 -153.5t63 -55.5q39 0 76 27.5t69 76t56 111t37.5 133.5t13.5 143q0 98 -25 153.5t-63 55.5zM34 226q0 66 22 136t63 134t99.5 115t132.5 81t160 30q138 0 217 -62.5t79 -178.5
q0 -66 -22 -135.5t-63.5 -133.5t-100.5 -115t-132.5 -81t-159.5 -30q-138 0 -216.5 62.5t-78.5 177.5zM483 948q39 0 65 -11t46 -25.5t40.5 -25.5t49.5 -11q23 0 43 13.5t39 44.5l18 -5q-32 -87 -84.5 -125t-105.5 -38q-39 0 -65 11t-46 25.5t-40.5 25.5t-49.5 11
q-23 0 -42.5 -13t-39.5 -45l-18 5q32 87 84.5 125t105.5 38z" />
    <glyph glyph-name="OE" unicode="&#x152;" horiz-adv-x="1020" 
d="M625 346l4 20h214l-4 -20h-214zM772 366q30 0 48.5 16t31 41.5t23.5 54.5h22q-13 -39 -19.5 -64.5t-14.5 -57.5q-6 -22 -11.5 -47t-14.5 -75h-22q0 17 3 36t2 35.5t-12.5 27.5t-39.5 13zM354 4q27 0 47 10.5t28 40.5l145 547q11 40 8 62t-19 31t-48 9q-43 0 -82.5 -27.5
t-72.5 -76t-58 -111t-38.5 -133.5t-13.5 -143q0 -98 27 -153.5t77 -55.5zM1001 528q16 89 -2.5 123t-78.5 34h-43q-33 0 -51.5 -5.5t-28.5 -23t-20 -54.5l-132 -496q-9 -36 -8 -54t16.5 -23.5t48.5 -5.5h53q48 0 79.5 17t54.5 55.5t45 104.5h22q-5 -13 -10.5 -32t-10.5 -40
q-5 -19 -13 -54.5t-13 -73.5q-51 2 -113.5 2.5t-112.5 0.5h-65h-92t-90 -1q-25 -7 -52 -11.5t-55 -4.5q-138 0 -216.5 62.5t-78.5 177.5q0 66 22 136t63 134t99.5 115t132.5 81t160 30q23 0 46 -4.5t42 -12.5h96.5h99.5h72q46 0 103 0.5t104 2.5q-13 -35 -21.5 -59.5
t-16.5 -58.5q-4 -18 -7.5 -34t-5.5 -28h-22z" />
    <glyph glyph-name="P" unicode="P" horiz-adv-x="679" 
d="M248 284l5 20h45q61 0 102.5 27t66.5 69.5t36 91t11 91.5q0 50 -18 77.5t-59 27.5q-14 0 -20.5 -7t-10.5 -25.5t-13 -53.5l-132 -496q-7 -28 -6 -46.5t16.5 -28t48.5 -11.5l-4 -20q-34 2 -79 2.5t-95 0.5q-57 0 -108.5 -0.5t-81.5 -2.5l4 20q34 2 53 8t30 24t20 54
l132 496q6 30 6.5 48t-13.5 27t-52 11l5 20q29 -1 80.5 -2t102.5 -1q36 0 72.5 1t73.5 1q132 0 195.5 -37t63.5 -114q0 -78 -55 -139.5t-153.5 -97t-228.5 -35.5h-40z" />
    <glyph glyph-name="Thorn" unicode="&#xde;" horiz-adv-x="698" 
d="M297 553q36 0 72.5 1t73.5 1q132 0 195.5 -41.5t63.5 -109.5q0 -78 -55 -139.5t-153.5 -97t-228.5 -35.5h-40l2.5 10l2.5 10h45q54 0 94.5 23t67.5 61.5t40.5 86.5t13.5 97q0 50 -25 83t-72 33q-24 0 -38.5 -1t-26.5 -2t-31 -3zM262 106q-9 -36 -8 -54t17 -24t50 -8
l-4 -20q-32 2 -83 2.5t-104 0.5q-54 0 -101 -0.5t-76 -2.5l5 20q33 2 51.5 8t29.5 24t20 54l132 496q10 37 8 54.5t-17.5 24t-49.5 7.5l5 20q28 -1 75.5 -2t101.5 -1q53 0 102 1t86 2l-5 -20q-34 -1 -53 -7.5t-29.5 -24t-20.5 -54.5z" />
    <glyph glyph-name="Q" unicode="Q" horiz-adv-x="865" 
d="M318 243q-68 0 -122.5 20.5t-86.5 60.5t-32 99q0 64 37 118.5t101 95t145.5 63t170.5 22.5q94 0 168 -25t116.5 -70t42.5 -105q0 -51 -31 -108.5t-84 -116t-121 -113.5t-143.5 -103.5t-150 -85t-141.5 -57t-117 -20.5q-46 0 -75 20t-29 65q0 37 20 65.5t54.5 45.5
t77.5 17q53 0 104.5 -22.5t103 -55.5l103 -66t103.5 -55.5t104 -22.5q39 0 62.5 12t36.5 29.5t19 31.5q-17 -16 -39.5 -24.5t-45.5 -8.5q-40 0 -68.5 23t-28.5 66q0 44 31 72t80 28q44 0 74 -25t30 -76q0 -40 -20 -80t-58.5 -72.5t-92.5 -52.5t-123 -20q-62 0 -111 15.5
t-88 40.5t-72 52.5t-62.5 52.5t-58.5 40.5t-62 15.5q-25 0 -37.5 -10t-12.5 -28q0 -25 22.5 -40.5t64.5 -15.5q34 0 81 13.5t97 34t93 42.5q53 27 98.5 62.5t82.5 79.5t62.5 95t39.5 110t14 124q0 100 -35 154t-102 54q-50 0 -90.5 -28t-69 -74.5t-43.5 -102.5t-15 -112
q0 -32 7.5 -57.5t28 -39.5t59.5 -14t72 14t57.5 38t36.5 54q5 13 8 26.5t4 26.5q-11 -40 -41.5 -55t-56.5 -15q-40 0 -64 26.5t-24 66.5q0 49 33 81t79 32t71.5 -32.5t25.5 -86.5q0 -63 -34 -110t-94.5 -73t-138.5 -26z" />
    <glyph glyph-name="R" unicode="R" horiz-adv-x="742" 
d="M311 356l24 -2t23.5 -2t23.5 -2q51 -3 96.5 -9t79.5 -20.5t50 -41t9 -70.5l-17 -104q-5 -33 3 -47.5t27 -14.5q21 0 36 16.5t26 47.5l5 14h23l-4 -13q-19 -63 -61 -92.5t-114 -29.5q-83 0 -117.5 35t-24.5 95l19 114q6 34 0 59t-31 39t-78 14zM291 343l5 16h25
q34 0 69.5 13.5t66 41.5t49 72t18.5 104q0 51 -18.5 74.5t-51.5 23.5q-20 0 -32 -10.5t-20 -41.5l-140 -530q-8 -30 -9.5 -48t13.5 -27t54 -11l-4 -20q-34 2 -79.5 2.5t-98.5 0.5t-104.5 -0.5t-81.5 -2.5l4 20q34 2 53 8t30 24t20 54l131 496q8 30 8.5 48t-14 27t-52.5 11
l5 20q20 -1 50 -1.5t62.5 -1t57.5 -0.5q53 0 87.5 1t65.5 1q136 0 200.5 -31t64.5 -107q0 -70 -49.5 -120t-138 -77t-206.5 -27z" />
    <glyph glyph-name="Racute" unicode="&#x154;" horiz-adv-x="742" 
d="M311 356l24 -2t23.5 -2t23.5 -2q51 -3 96.5 -9t79.5 -20.5t50 -41t9 -70.5l-17 -104q-5 -33 3 -47.5t27 -14.5q21 0 36 16.5t26 47.5l5 14h23l-4 -13q-19 -63 -61 -92.5t-114 -29.5q-83 0 -117.5 35t-24.5 95l19 114q6 34 0 59t-31 39t-78 14zM291 343l5 16h25
q34 0 69.5 13.5t66 41.5t49 72t18.5 104q0 51 -18.5 74.5t-51.5 23.5q-20 0 -32 -10.5t-20 -41.5l-140 -530q-8 -30 -9.5 -48t13.5 -27t54 -11l-4 -20q-34 2 -79.5 2.5t-98.5 0.5t-104.5 -0.5t-81.5 -2.5l4 20q34 2 53 8t30 24t20 54l131 496q8 30 8.5 48t-14 27t-52.5 11
l5 20q20 -1 50 -1.5t62.5 -1t57.5 -0.5q53 0 87.5 1t65.5 1q136 0 200.5 -31t64.5 -107q0 -70 -49.5 -120t-138 -77t-206.5 -27zM417 784q48 42 78 75.5t54.5 58.5t53.5 40q17 9 37.5 11t40 -5.5t30.5 -28.5q15 -28 0.5 -52t-45.5 -41q-26 -14 -60 -22.5t-78.5 -18.5
t-103.5 -29z" />
    <glyph glyph-name="Rcaron" unicode="&#x158;" horiz-adv-x="742" 
d="M311 356l24 -2t23.5 -2t23.5 -2q51 -3 96.5 -9t79.5 -20.5t50 -41t9 -70.5l-17 -104q-5 -33 3 -47.5t27 -14.5q21 0 36 16.5t26 47.5l5 14h23l-4 -13q-19 -63 -61 -92.5t-114 -29.5q-83 0 -117.5 35t-24.5 95l19 114q6 34 0 59t-31 39t-78 14zM291 343l5 16h25
q34 0 69.5 13.5t66 41.5t49 72t18.5 104q0 51 -18.5 74.5t-51.5 23.5q-20 0 -32 -10.5t-20 -41.5l-140 -530q-8 -30 -9.5 -48t13.5 -27t54 -11l-4 -20q-34 2 -79.5 2.5t-98.5 0.5t-104.5 -0.5t-81.5 -2.5l4 20q34 2 53 8t30 24t20 54l131 496q8 30 8.5 48t-14 27t-52.5 11
l5 20q20 -1 50 -1.5t62.5 -1t57.5 -0.5q53 0 87.5 1t65.5 1q136 0 200.5 -31t64.5 -107q0 -70 -49.5 -120t-138 -77t-206.5 -27zM516 892q47 16 104 30t121 24l5 -14q-91 -28 -169.5 -75t-125.5 -97h-18q-19 59 -49.5 99.5t-89.5 72.5l4 14q50 -8 88 -16.5t69.5 -17.5
t60.5 -20z" />
    <glyph glyph-name="uni0156" unicode="&#x156;" horiz-adv-x="742" 
d="M311 356l24 -2t23.5 -2t23.5 -2q51 -3 96.5 -9t79.5 -20.5t50 -41t9 -70.5l-17 -104q-5 -33 3 -47.5t27 -14.5q21 0 36 16.5t26 47.5l5 14h23l-4 -13q-19 -63 -61 -92.5t-114 -29.5q-83 0 -117.5 35t-24.5 95l19 114q6 34 0 59t-31 39t-78 14zM291 343l5 16h25
q34 0 69.5 13.5t66 41.5t49 72t18.5 104q0 51 -18.5 74.5t-51.5 23.5q-20 0 -32 -10.5t-20 -41.5l-140 -530q-8 -30 -9.5 -48t13.5 -27t54 -11l-4 -20q-34 2 -79.5 2.5t-98.5 0.5t-104.5 -0.5t-81.5 -2.5l4 20q34 2 53 8t30 24t20 54l131 496q8 30 8.5 48t-14 27t-52.5 11
l5 20q20 -1 50 -1.5t62.5 -1t57.5 -0.5q53 0 87.5 1t65.5 1q136 0 200.5 -31t64.5 -107q0 -70 -49.5 -120t-138 -77t-206.5 -27zM325 -42q27 0 52 -14.5t25 -49.5q0 -61 -46.5 -97t-117.5 -38v21q47 1 78.5 15.5t38.5 38.5q-13 -8 -29.5 -13t-37.5 -5q-34 0 -52 13t-18 40
q0 41 32 65t75 24z" />
    <glyph glyph-name="S" unicode="S" horiz-adv-x="609" 
d="M649 715q-10 -26 -27 -75.5t-32 -128.5h-20q3 14 4.5 29t1.5 26q0 41 -17.5 69.5t-49.5 44t-77 15.5q-43 0 -75.5 -22t-32.5 -75q0 -34 16 -66.5t41.5 -64.5t54 -64.5t54 -66t41.5 -70.5t16 -78q0 -55 -29 -93.5t-74 -62.5t-95 -35t-93 -11q-52 0 -85 5t-57 15.5
t-52 25.5q-10 6 -19 10.5t-15 4.5q-13 0 -21 -11t-22 -43h-20q9 22 19 51t22 74.5t27 114.5h20q-5 -15 -7.5 -37.5t-1.5 -40.5q3 -73 46 -109.5t117 -36.5q70 0 93.5 26.5t23.5 65.5q0 42 -14.5 78.5t-37.5 69t-48.5 64t-48.5 63.5t-37.5 67.5t-14.5 75.5q0 53 24.5 91
t64.5 63t86 37t88 12q71 0 113 -17.5t64 -28.5l18 -9t15 -5q14 0 33 53h20z" />
    <glyph glyph-name="Sacute" unicode="&#x15a;" horiz-adv-x="609" 
d="M649 715q-10 -26 -27 -75.5t-32 -128.5h-20q3 14 4.5 29t1.5 26q0 41 -17.5 69.5t-49.5 44t-77 15.5q-43 0 -75.5 -22t-32.5 -75q0 -34 16 -66.5t41.5 -64.5t54 -64.5t54 -66t41.5 -70.5t16 -78q0 -55 -29 -93.5t-74 -62.5t-95 -35t-93 -11q-52 0 -85 5t-57 15.5
t-52 25.5q-10 6 -19 10.5t-15 4.5q-13 0 -21 -11t-22 -43h-20q9 22 19 51t22 74.5t27 114.5h20q-5 -15 -7.5 -37.5t-1.5 -40.5q3 -73 46 -109.5t117 -36.5q70 0 93.5 26.5t23.5 65.5q0 42 -14.5 78.5t-37.5 69t-48.5 64t-48.5 63.5t-37.5 67.5t-14.5 75.5q0 53 24.5 91
t64.5 63t86 37t88 12q71 0 113 -17.5t64 -28.5l18 -9t15 -5q14 0 33 53h20zM395 784q48 42 78 75.5t54.5 58.5t53.5 40q17 9 37.5 11t40 -5.5t30.5 -28.5q15 -28 0.5 -52t-45.5 -41q-26 -14 -60 -22.5t-78.5 -18.5t-103.5 -29z" />
    <glyph glyph-name="Scaron" unicode="&#x160;" horiz-adv-x="609" 
d="M649 715q-10 -26 -27 -75.5t-32 -128.5h-20q3 14 4.5 29t1.5 26q0 41 -17.5 69.5t-49.5 44t-77 15.5q-43 0 -75.5 -22t-32.5 -75q0 -34 16 -66.5t41.5 -64.5t54 -64.5t54 -66t41.5 -70.5t16 -78q0 -55 -29 -93.5t-74 -62.5t-95 -35t-93 -11q-52 0 -85 5t-57 15.5
t-52 25.5q-10 6 -19 10.5t-15 4.5q-13 0 -21 -11t-22 -43h-20q9 22 19 51t22 74.5t27 114.5h20q-5 -15 -7.5 -37.5t-1.5 -40.5q3 -73 46 -109.5t117 -36.5q70 0 93.5 26.5t23.5 65.5q0 42 -14.5 78.5t-37.5 69t-48.5 64t-48.5 63.5t-37.5 67.5t-14.5 75.5q0 53 24.5 91
t64.5 63t86 37t88 12q71 0 113 -17.5t64 -28.5l18 -9t15 -5q14 0 33 53h20zM494 892q47 16 104 30t121 24l5 -14q-91 -28 -169.5 -75t-125.5 -97h-18q-19 59 -49.5 99.5t-89.5 72.5l4 14q50 -8 88 -16.5t69.5 -17.5t60.5 -20z" />
    <glyph glyph-name="Scedilla" unicode="&#x15e;" horiz-adv-x="609" 
d="M649 715q-10 -26 -27 -75.5t-32 -128.5h-20q3 14 4.5 29t1.5 26q0 41 -17.5 69.5t-49.5 44t-77 15.5q-43 0 -75.5 -22t-32.5 -75q0 -34 16 -66.5t41.5 -64.5t54 -64.5t54 -66t41.5 -70.5t16 -78q0 -55 -29 -93.5t-74 -62.5t-95 -35t-93 -11q-52 0 -85 5t-57 15.5
t-52 25.5q-10 6 -19 10.5t-15 4.5q-13 0 -21 -11t-22 -43h-20q9 22 19 51t22 74.5t27 114.5h20q-5 -15 -7.5 -37.5t-1.5 -40.5q3 -73 46 -109.5t117 -36.5q70 0 93.5 26.5t23.5 65.5q0 42 -14.5 78.5t-37.5 69t-48.5 64t-48.5 63.5t-37.5 67.5t-14.5 75.5q0 53 24.5 91
t64.5 63t86 37t88 12q71 0 113 -17.5t64 -28.5l18 -9t15 -5q14 0 33 53h20zM254 7l-28 -64q14 5 30.5 8.5t31.5 3.5q34 0 55.5 -12.5t21.5 -40.5q0 -33 -27 -52.5t-68.5 -28.5t-85.5 -9q-38 0 -69.5 6.5t-46.5 11.5l6 16q9 -2 34 -6t47 -4q16 0 35 3t33 12t14 27
q0 23 -28 23q-5 0 -14 -1.5t-17 -5.5l49 113h27z" />
    <glyph glyph-name="Scircumflex" unicode="&#x15c;" horiz-adv-x="609" 
d="M649 715q-10 -26 -27 -75.5t-32 -128.5h-20q3 14 4.5 29t1.5 26q0 41 -17.5 69.5t-49.5 44t-77 15.5q-43 0 -75.5 -22t-32.5 -75q0 -34 16 -66.5t41.5 -64.5t54 -64.5t54 -66t41.5 -70.5t16 -78q0 -55 -29 -93.5t-74 -62.5t-95 -35t-93 -11q-52 0 -85 5t-57 15.5
t-52 25.5q-10 6 -19 10.5t-15 4.5q-13 0 -21 -11t-22 -43h-20q9 22 19 51t22 74.5t27 114.5h20q-5 -15 -7.5 -37.5t-1.5 -40.5q3 -73 46 -109.5t117 -36.5q70 0 93.5 26.5t23.5 65.5q0 42 -14.5 78.5t-37.5 69t-48.5 64t-48.5 63.5t-37.5 67.5t-14.5 75.5q0 53 24.5 91
t64.5 63t86 37t88 12q71 0 113 -17.5t64 -28.5l18 -9t15 -5q14 0 33 53h20zM412 824q-46 -16 -103.5 -29.5t-121.5 -24.5l-5 14q91 29 169.5 75.5t125.5 96.5h18q19 -58 49.5 -99t89.5 -73l-4 -14q-50 8 -88 16.5t-69 17.5t-61 20z" />
    <glyph glyph-name="uni0218" unicode="&#x218;" horiz-adv-x="609" 
d="M649 715q-10 -26 -27 -75.5t-32 -128.5h-20q3 14 4.5 29t1.5 26q0 41 -17.5 69.5t-49.5 44t-77 15.5q-43 0 -75.5 -22t-32.5 -75q0 -34 16 -66.5t41.5 -64.5t54 -64.5t54 -66t41.5 -70.5t16 -78q0 -55 -29 -93.5t-74 -62.5t-95 -35t-93 -11q-52 0 -85 5t-57 15.5
t-52 25.5q-10 6 -19 10.5t-15 4.5q-13 0 -21 -11t-22 -43h-20q9 22 19 51t22 74.5t27 114.5h20q-5 -15 -7.5 -37.5t-1.5 -40.5q3 -73 46 -109.5t117 -36.5q70 0 93.5 26.5t23.5 65.5q0 42 -14.5 78.5t-37.5 69t-48.5 64t-48.5 63.5t-37.5 67.5t-14.5 75.5q0 53 24.5 91
t64.5 63t86 37t88 12q71 0 113 -17.5t64 -28.5l18 -9t15 -5q14 0 33 53h20zM225 -42q27 0 52 -14.5t25 -49.5q0 -61 -46.5 -97t-117.5 -38v21q47 1 78.5 15.5t38.5 38.5q-13 -8 -29.5 -13t-37.5 -5q-34 0 -52 13t-18 40q0 41 32 65t75 24z" />
    <glyph glyph-name="uni1E9E" unicode="&#x1e9e;" horiz-adv-x="711" 
d="M135 -172q-60 -1 -107.5 -5t-94.5 -11l172 645q26 99 80.5 157t130 83t165.5 25q97 0 153.5 -32t56.5 -105q0 -51 -40 -92.5t-104.5 -71.5t-138.5 -47q100 -7 156 -35t79 -65.5t23 -71.5q0 -51 -24 -91.5t-67.5 -68t-102 -42t-128.5 -14.5q-50 0 -82 20t-32 68
q0 28 12 54.5t34.5 44t55.5 17.5q34 0 55 -20t21 -52q0 -40 -29 -73t-70 -41q5 -1 13.5 -1.5t11.5 -0.5q36 0 64.5 26t45 73.5t16.5 111.5q0 32 -8.5 67.5t-24.5 60t-39 24.5q-16 -5 -28.5 -8.5t-23.5 -3.5q-20 0 -20 12q0 9 9 14.5t18 5.5q13 0 24.5 -2.5t26.5 -6.5
q25 25 45.5 70.5t33 97t12.5 95.5q0 38 -6.5 53t-29.5 15q-22 0 -42 -12.5t-36 -37.5t-27 -65z" />
    <glyph glyph-name="uni018F" unicode="&#x18f;" horiz-adv-x="790" 
d="M296 -14q-79 0 -138 29t-91.5 83t-32.5 128q0 30 6 67.5t17 72.5h558l-2 -19h-352q-8 -34 -12.5 -69t-4.5 -70q0 -91 20.5 -147.5t60.5 -56.5q33 0 67.5 27t65.5 74t56 108t39.5 129.5t14.5 138.5q0 102 -37 154t-125 52q-30 0 -59 -6t-55 -19q-49 -25 -81.5 -72.5
t-58.5 -121.5h-23q14 44 24.5 85.5t18.5 80.5t13 74h23q-1 -13 -2 -21t-1 -14q0 -24 12 -24q7 0 23 8t47.5 24t81 29t120.5 13q146 0 222 -67t76 -184q0 -64 -22.5 -132.5t-65.5 -131.5t-103.5 -113t-136 -79.5t-163.5 -29.5z" />
    <glyph glyph-name="T" unicode="T" horiz-adv-x="695" 
d="M790 886q45 0 71.5 -26.5t26.5 -59.5q0 -37 -21.5 -64.5t-62.5 -44.5q-33 -13 -76.5 -20t-96.5 -7q-33 0 -76 3t-90.5 7t-93 7t-81.5 3t-65.5 -4t-48.5 -13q38 -5 63.5 -30.5t25.5 -66.5q0 -43 -28 -71.5t-69 -28.5q-43 0 -66.5 29.5t-23.5 67.5q0 27 15 58.5t58 52.5
q24 12 49.5 17t48 6t36.5 1q63 0 126 -4.5t122 -9t108 -4.5q35 0 58.5 3t42.5 7l-3 -9q-18 14 -33 40t-15 61q0 46 28 73t71 27zM406 687l20 -1.5t49.5 -3.5l59 -4t49.5 -3.5l20 -1.5l-147 -557q-9 -35 -6 -55t22.5 -29t58.5 -12l-4 -20q-35 2 -91.5 2.5t-117.5 0.5
q-58 0 -111 -0.5t-85 -2.5l4 20q42 2 66.5 10.5t38 29t22.5 56.5z" />
    <glyph glyph-name="Tbar" unicode="&#x166;" horiz-adv-x="695" 
d="M790 886q45 0 71.5 -26.5t26.5 -59.5q0 -37 -21.5 -64.5t-62.5 -44.5q-33 -13 -76.5 -20t-96.5 -7q-33 0 -76 3t-90.5 7t-93 7t-81.5 3t-65.5 -4t-48.5 -13q38 -5 63.5 -30.5t25.5 -66.5q0 -43 -28 -71.5t-69 -28.5q-43 0 -66.5 29.5t-23.5 67.5q0 27 15 58.5t58 52.5
q24 12 49.5 17t48 6t36.5 1q63 0 126 -4.5t122 -9t108 -4.5q35 0 58.5 3t42.5 7l-3 -9q-18 14 -33 40t-15 61q0 46 28 73t71 27zM406 687l20 -1.5t49.5 -3.5l59 -4t49.5 -3.5l20 -1.5l-147 -557q-9 -35 -6 -55t22.5 -29t58.5 -12l-4 -20q-35 2 -91.5 2.5t-117.5 0.5
q-58 0 -111 -0.5t-85 -2.5l4 20q42 2 66.5 10.5t38 29t22.5 56.5zM628 366l-6 -25h-432l6 25h432z" />
    <glyph glyph-name="Tcaron" unicode="&#x164;" horiz-adv-x="695" 
d="M790 886q45 0 71.5 -26.5t26.5 -59.5q0 -37 -21.5 -64.5t-62.5 -44.5q-33 -13 -76.5 -20t-96.5 -7q-33 0 -76 3t-90.5 7t-93 7t-81.5 3t-65.5 -4t-48.5 -13q38 -5 63.5 -30.5t25.5 -66.5q0 -43 -28 -71.5t-69 -28.5q-43 0 -66.5 29.5t-23.5 67.5q0 27 15 58.5t58 52.5
q24 12 49.5 17t48 6t36.5 1q63 0 126 -4.5t122 -9t108 -4.5q35 0 58.5 3t42.5 7l-3 -9q-18 14 -33 40t-15 61q0 46 28 73t71 27zM406 687l20 -1.5t49.5 -3.5l59 -4t49.5 -3.5l20 -1.5l-147 -557q-9 -35 -6 -55t22.5 -29t58.5 -12l-4 -20q-35 2 -91.5 2.5t-117.5 0.5
q-58 0 -111 -0.5t-85 -2.5l4 20q42 2 66.5 10.5t38 29t22.5 56.5zM573 892q47 16 104 30t121 24l5 -14q-91 -28 -169.5 -75t-125.5 -97h-18q-19 59 -49.5 99.5t-89.5 72.5l4 14q50 -8 88 -16.5t69.5 -17.5t60.5 -20z" />
    <glyph glyph-name="uni0162" unicode="&#x162;" horiz-adv-x="695" 
d="M790 886q45 0 71.5 -26.5t26.5 -59.5q0 -37 -21.5 -64.5t-62.5 -44.5q-33 -13 -76.5 -20t-96.5 -7q-33 0 -76 3t-90.5 7t-93 7t-81.5 3t-65.5 -4t-48.5 -13q38 -5 63.5 -30.5t25.5 -66.5q0 -43 -28 -71.5t-69 -28.5q-43 0 -66.5 29.5t-23.5 67.5q0 27 15 58.5t58 52.5
q24 12 49.5 17t48 6t36.5 1q63 0 126 -4.5t122 -9t108 -4.5q35 0 58.5 3t42.5 7l-3 -9q-18 14 -33 40t-15 61q0 46 28 73t71 27zM406 687l20 -1.5t49.5 -3.5l59 -4t49.5 -3.5l20 -1.5l-147 -557q-9 -35 -6 -55t22.5 -29t58.5 -12l-4 -20q-35 2 -91.5 2.5t-117.5 0.5
q-58 0 -111 -0.5t-85 -2.5l4 20q42 2 66.5 10.5t38 29t22.5 56.5zM336 7l-28 -64q14 5 30.5 8.5t31.5 3.5q34 0 55.5 -12.5t21.5 -40.5q0 -33 -27 -52.5t-68.5 -28.5t-85.5 -9q-38 0 -69.5 6.5t-46.5 11.5l6 16q9 -2 34 -6t47 -4q16 0 35 3t33 12t14 27q0 23 -28 23
q-5 0 -14 -1.5t-17 -5.5l49 113h27z" />
    <glyph glyph-name="uni021A" unicode="&#x21a;" horiz-adv-x="695" 
d="M790 886q45 0 71.5 -26.5t26.5 -59.5q0 -37 -21.5 -64.5t-62.5 -44.5q-33 -13 -76.5 -20t-96.5 -7q-33 0 -76 3t-90.5 7t-93 7t-81.5 3t-65.5 -4t-48.5 -13q38 -5 63.5 -30.5t25.5 -66.5q0 -43 -28 -71.5t-69 -28.5q-43 0 -66.5 29.5t-23.5 67.5q0 27 15 58.5t58 52.5
q24 12 49.5 17t48 6t36.5 1q63 0 126 -4.5t122 -9t108 -4.5q35 0 58.5 3t42.5 7l-3 -9q-18 14 -33 40t-15 61q0 46 28 73t71 27zM406 687l20 -1.5t49.5 -3.5l59 -4t49.5 -3.5l20 -1.5l-147 -557q-9 -35 -6 -55t22.5 -29t58.5 -12l-4 -20q-35 2 -91.5 2.5t-117.5 0.5
q-58 0 -111 -0.5t-85 -2.5l4 20q42 2 66.5 10.5t38 29t22.5 56.5zM307 -42q27 0 52 -14.5t25 -49.5q0 -61 -46.5 -97t-117.5 -38v21q47 1 78.5 15.5t38.5 38.5q-13 -8 -29.5 -13t-37.5 -5q-34 0 -52 13t-18 40q0 41 32 65t75 24z" />
    <glyph glyph-name="U" unicode="U" horiz-adv-x="702" 
d="M651 512q18 67 21.5 102.5t-14 51.5t-63.5 22l6 20q20 -1 51.5 -2t59.5 -1q23 0 45.5 1t38.5 2l-6 -20q-32 -6 -51 -21t-32.5 -46.5t-28.5 -88.5l-62 -241q-36 -138 -98 -212q-36 -42 -89.5 -67.5t-115.5 -25.5q-91 0 -145 27t-77 68q-20 38 -20.5 87.5t18.5 119.5
l83 314q10 37 8 54.5t-17.5 24t-49.5 7.5l6 20q29 -1 80.5 -2t108.5 -1q50 0 95 1t80 2l-6 -20q-34 -1 -53 -7.5t-29.5 -24t-20.5 -54.5l-88 -331q-18 -69 -23 -116.5t2.5 -77t24.5 -43t42 -13.5q75 0 125 33.5t82 92.5t51 133z" />
    <glyph glyph-name="Uacute" unicode="&#xda;" horiz-adv-x="702" 
d="M651 512q18 67 21.5 102.5t-14 51.5t-63.5 22l6 20q20 -1 51.5 -2t59.5 -1q23 0 45.5 1t38.5 2l-6 -20q-32 -6 -51 -21t-32.5 -46.5t-28.5 -88.5l-62 -241q-36 -138 -98 -212q-36 -42 -89.5 -67.5t-115.5 -25.5q-91 0 -145 27t-77 68q-20 38 -20.5 87.5t18.5 119.5
l83 314q10 37 8 54.5t-17.5 24t-49.5 7.5l6 20q29 -1 80.5 -2t108.5 -1q50 0 95 1t80 2l-6 -20q-34 -1 -53 -7.5t-29.5 -24t-20.5 -54.5l-88 -331q-18 -69 -23 -116.5t2.5 -77t24.5 -43t42 -13.5q75 0 125 33.5t82 92.5t51 133zM483 784q48 42 78 75.5t54.5 58.5t53.5 40
q17 9 37.5 11t40 -5.5t30.5 -28.5q15 -28 0.5 -52t-45.5 -41q-26 -14 -60 -22.5t-78.5 -18.5t-103.5 -29z" />
    <glyph glyph-name="Ubreve" unicode="&#x16c;" horiz-adv-x="702" 
d="M651 512q18 67 21.5 102.5t-14 51.5t-63.5 22l6 20q20 -1 51.5 -2t59.5 -1q23 0 45.5 1t38.5 2l-6 -20q-32 -6 -51 -21t-32.5 -46.5t-28.5 -88.5l-62 -241q-36 -138 -98 -212q-36 -42 -89.5 -67.5t-115.5 -25.5q-91 0 -145 27t-77 68q-20 38 -20.5 87.5t18.5 119.5
l83 314q10 37 8 54.5t-17.5 24t-49.5 7.5l6 20q29 -1 80.5 -2t108.5 -1q50 0 95 1t80 2l-6 -20q-34 -1 -53 -7.5t-29.5 -24t-20.5 -54.5l-88 -331q-18 -69 -23 -116.5t2.5 -77t24.5 -43t42 -13.5q75 0 125 33.5t82 92.5t51 133zM518 882q73 0 129 14t104 42l12 -9
q-26 -43 -67.5 -81t-92.5 -61.5t-106 -23.5q-49 0 -82.5 22t-53.5 59t-28 82l15 8q31 -26 70 -39t100 -13z" />
    <glyph glyph-name="uni01D3" unicode="&#x1d3;" horiz-adv-x="702" 
d="M651 512q18 67 21.5 102.5t-14 51.5t-63.5 22l6 20q20 -1 51.5 -2t59.5 -1q23 0 45.5 1t38.5 2l-6 -20q-32 -6 -51 -21t-32.5 -46.5t-28.5 -88.5l-62 -241q-36 -138 -98 -212q-36 -42 -89.5 -67.5t-115.5 -25.5q-91 0 -145 27t-77 68q-20 38 -20.5 87.5t18.5 119.5
l83 314q10 37 8 54.5t-17.5 24t-49.5 7.5l6 20q29 -1 80.5 -2t108.5 -1q50 0 95 1t80 2l-6 -20q-34 -1 -53 -7.5t-29.5 -24t-20.5 -54.5l-88 -331q-18 -69 -23 -116.5t2.5 -77t24.5 -43t42 -13.5q75 0 125 33.5t82 92.5t51 133zM582 892q47 16 104 30t121 24l5 -14
q-91 -28 -169.5 -75t-125.5 -97h-18q-19 59 -49.5 99.5t-89.5 72.5l4 14q50 -8 88 -16.5t69.5 -17.5t60.5 -20z" />
    <glyph glyph-name="Ucircumflex" unicode="&#xdb;" horiz-adv-x="702" 
d="M651 512q18 67 21.5 102.5t-14 51.5t-63.5 22l6 20q20 -1 51.5 -2t59.5 -1q23 0 45.5 1t38.5 2l-6 -20q-32 -6 -51 -21t-32.5 -46.5t-28.5 -88.5l-62 -241q-36 -138 -98 -212q-36 -42 -89.5 -67.5t-115.5 -25.5q-91 0 -145 27t-77 68q-20 38 -20.5 87.5t18.5 119.5
l83 314q10 37 8 54.5t-17.5 24t-49.5 7.5l6 20q29 -1 80.5 -2t108.5 -1q50 0 95 1t80 2l-6 -20q-34 -1 -53 -7.5t-29.5 -24t-20.5 -54.5l-88 -331q-18 -69 -23 -116.5t2.5 -77t24.5 -43t42 -13.5q75 0 125 33.5t82 92.5t51 133zM500 824q-46 -16 -103.5 -29.5t-121.5 -24.5
l-5 14q91 29 169.5 75.5t125.5 96.5h18q19 -58 49.5 -99t89.5 -73l-4 -14q-50 8 -88 16.5t-69 17.5t-61 20z" />
    <glyph glyph-name="Udieresis" unicode="&#xdc;" horiz-adv-x="702" 
d="M651 512q18 67 21.5 102.5t-14 51.5t-63.5 22l6 20q20 -1 51.5 -2t59.5 -1q23 0 45.5 1t38.5 2l-6 -20q-32 -6 -51 -21t-32.5 -46.5t-28.5 -88.5l-62 -241q-36 -138 -98 -212q-36 -42 -89.5 -67.5t-115.5 -25.5q-91 0 -145 27t-77 68q-20 38 -20.5 87.5t18.5 119.5
l83 314q10 37 8 54.5t-17.5 24t-49.5 7.5l6 20q29 -1 80.5 -2t108.5 -1q50 0 95 1t80 2l-6 -20q-34 -1 -53 -7.5t-29.5 -24t-20.5 -54.5l-88 -331q-18 -69 -23 -116.5t2.5 -77t24.5 -43t42 -13.5q75 0 125 33.5t82 92.5t51 133zM297 838q0 52 30.5 75t68.5 23
q40 0 57.5 -21.5t17.5 -56.5q0 -34 -15 -55.5t-37.5 -31t-47.5 -9.5q-40 0 -57 21t-17 55zM555 838q0 52 30.5 75t68.5 23q40 0 57.5 -21.5t17.5 -56.5q0 -34 -15 -55.5t-37.5 -31t-47.5 -9.5q-40 0 -57 21t-17 55z" />
    <glyph glyph-name="uni1EE4" unicode="&#x1ee4;" horiz-adv-x="702" 
d="M651 512q18 67 21.5 102.5t-14 51.5t-63.5 22l6 20q20 -1 51.5 -2t59.5 -1q23 0 45.5 1t38.5 2l-6 -20q-32 -6 -51 -21t-32.5 -46.5t-28.5 -88.5l-62 -241q-36 -138 -98 -212q-36 -42 -89.5 -67.5t-115.5 -25.5q-91 0 -145 27t-77 68q-20 38 -20.5 87.5t18.5 119.5
l83 314q10 37 8 54.5t-17.5 24t-49.5 7.5l6 20q29 -1 80.5 -2t108.5 -1q50 0 95 1t80 2l-6 -20q-34 -1 -53 -7.5t-29.5 -24t-20.5 -54.5l-88 -331q-18 -69 -23 -116.5t2.5 -77t24.5 -43t42 -13.5q75 0 125 33.5t82 92.5t51 133zM292 -191q-36 0 -55 14t-19 42q0 43 27 66.5
t74 23.5q36 0 55 -14t19 -42q0 -43 -27 -66.5t-74 -23.5z" />
    <glyph glyph-name="Ugrave" unicode="&#xd9;" horiz-adv-x="702" 
d="M651 512q18 67 21.5 102.5t-14 51.5t-63.5 22l6 20q20 -1 51.5 -2t59.5 -1q23 0 45.5 1t38.5 2l-6 -20q-32 -6 -51 -21t-32.5 -46.5t-28.5 -88.5l-62 -241q-36 -138 -98 -212q-36 -42 -89.5 -67.5t-115.5 -25.5q-91 0 -145 27t-77 68q-20 38 -20.5 87.5t18.5 119.5
l83 314q10 37 8 54.5t-17.5 24t-49.5 7.5l6 20q29 -1 80.5 -2t108.5 -1q50 0 95 1t80 2l-6 -20q-34 -1 -53 -7.5t-29.5 -24t-20.5 -54.5l-88 -331q-18 -69 -23 -116.5t2.5 -77t24.5 -43t42 -13.5q75 0 125 33.5t82 92.5t51 133zM557 772q-58 18 -97 24.5t-65.5 10.5
t-49.5 16q-25 13 -35 37.5t2 48.5q14 28 43 34.5t51 -4.5q25 -11 42 -31.5t42.5 -51t73.5 -72.5z" />
    <glyph glyph-name="uni1EE6" unicode="&#x1ee6;" horiz-adv-x="702" 
d="M651 512q18 67 21.5 102.5t-14 51.5t-63.5 22l6 20q20 -1 51.5 -2t59.5 -1q23 0 45.5 1t38.5 2l-6 -20q-32 -6 -51 -21t-32.5 -46.5t-28.5 -88.5l-62 -241q-36 -138 -98 -212q-36 -42 -89.5 -67.5t-115.5 -25.5q-91 0 -145 27t-77 68q-20 38 -20.5 87.5t18.5 119.5
l83 314q10 37 8 54.5t-17.5 24t-49.5 7.5l6 20q29 -1 80.5 -2t108.5 -1q50 0 95 1t80 2l-6 -20q-34 -1 -53 -7.5t-29.5 -24t-20.5 -54.5l-88 -331q-18 -69 -23 -116.5t2.5 -77t24.5 -43t42 -13.5q75 0 125 33.5t82 92.5t51 133zM490 739q5 31 19 48.5t29.5 30t26.5 29
t11 46.5q0 35 -17 49.5t-46 14.5q-16 0 -28 -3t-17 -6q19 -7 30.5 -21t11.5 -35q0 -28 -20.5 -45t-48.5 -17q-25 0 -40 14t-15 37q0 25 17.5 43t42.5 30q24 11 52.5 17t61.5 6q56 0 90.5 -18.5t34.5 -59.5q0 -29 -16 -45t-40.5 -25.5t-50 -19t-44.5 -25.5t-24 -45h-20z" />
    <glyph glyph-name="Uhorn" unicode="&#x1af;" horiz-adv-x="702" 
d="M301 -14q-78 0 -132 26.5t-78 68.5q-22 38 -20.5 90t18.5 117l83 314q10 37 8 54.5t-17.5 24t-49.5 7.5l6 20q29 -1 80.5 -2t104.5 -1t98.5 1t80.5 2l-6 -20q-34 -1 -53 -7.5t-29.5 -24t-20.5 -54.5l-88 -331q-25 -94 -26 -149t22 -78t68 -23q63 0 110 35t79.5 93.5
t50.5 130.5l106 410l2 -6q-26 0 -52.5 0.5t-51.5 3.5l5 20q23 -1 37 -2.5t36 -1.5q38 0 65 4t51 17l-3 -8q-25 11 -46.5 33.5t-21.5 55.5q0 35 23 55.5t54 20.5q32 0 56 -21.5t24 -59.5q0 -31 -17.5 -52.5t-44.5 -35.5q-25 -13 -50.5 -19.5t-50.5 -8.5l8 5l-104 -399
q-16 -60 -38.5 -115t-58.5 -97t-88.5 -67.5t-128.5 -25.5z" />
    <glyph glyph-name="uni1EE8" unicode="&#x1ee8;" horiz-adv-x="702" 
d="M301 -14q-78 0 -132 26.5t-78 68.5q-22 38 -20.5 90t18.5 117l83 314q10 37 8 54.5t-17.5 24t-49.5 7.5l6 20q29 -1 80.5 -2t104.5 -1t98.5 1t80.5 2l-6 -20q-34 -1 -53 -7.5t-29.5 -24t-20.5 -54.5l-88 -331q-25 -94 -26 -149t22 -78t68 -23q63 0 110 35t79.5 93.5
t50.5 130.5l106 410l2 -6q-26 0 -52.5 0.5t-51.5 3.5l5 20q23 -1 37 -2.5t36 -1.5q38 0 65 4t51 17l-3 -8q-25 11 -46.5 33.5t-21.5 55.5q0 35 23 55.5t54 20.5q32 0 56 -21.5t24 -59.5q0 -31 -17.5 -52.5t-44.5 -35.5q-25 -13 -50.5 -19.5t-50.5 -8.5l8 5l-104 -399
q-16 -60 -38.5 -115t-58.5 -97t-88.5 -67.5t-128.5 -25.5zM483 784q48 42 78 75.5t54.5 58.5t53.5 40q17 9 37.5 11t40 -5.5t30.5 -28.5q15 -28 0.5 -52t-45.5 -41q-26 -14 -60 -22.5t-78.5 -18.5t-103.5 -29z" />
    <glyph glyph-name="uni1EF0" unicode="&#x1ef0;" horiz-adv-x="702" 
d="M301 -14q-78 0 -132 26.5t-78 68.5q-22 38 -20.5 90t18.5 117l83 314q10 37 8 54.5t-17.5 24t-49.5 7.5l6 20q29 -1 80.5 -2t104.5 -1t98.5 1t80.5 2l-6 -20q-34 -1 -53 -7.5t-29.5 -24t-20.5 -54.5l-88 -331q-25 -94 -26 -149t22 -78t68 -23q63 0 110 35t79.5 93.5
t50.5 130.5l106 410l2 -6q-26 0 -52.5 0.5t-51.5 3.5l5 20q23 -1 37 -2.5t36 -1.5q38 0 65 4t51 17l-3 -8q-25 11 -46.5 33.5t-21.5 55.5q0 35 23 55.5t54 20.5q32 0 56 -21.5t24 -59.5q0 -31 -17.5 -52.5t-44.5 -35.5q-25 -13 -50.5 -19.5t-50.5 -8.5l8 5l-104 -399
q-16 -60 -38.5 -115t-58.5 -97t-88.5 -67.5t-128.5 -25.5zM292 -191q-36 0 -55 14t-19 42q0 43 27 66.5t74 23.5q36 0 55 -14t19 -42q0 -43 -27 -66.5t-74 -23.5z" />
    <glyph glyph-name="uni1EEA" unicode="&#x1eea;" horiz-adv-x="702" 
d="M301 -14q-78 0 -132 26.5t-78 68.5q-22 38 -20.5 90t18.5 117l83 314q10 37 8 54.5t-17.5 24t-49.5 7.5l6 20q29 -1 80.5 -2t104.5 -1t98.5 1t80.5 2l-6 -20q-34 -1 -53 -7.5t-29.5 -24t-20.5 -54.5l-88 -331q-25 -94 -26 -149t22 -78t68 -23q63 0 110 35t79.5 93.5
t50.5 130.5l106 410l2 -6q-26 0 -52.5 0.5t-51.5 3.5l5 20q23 -1 37 -2.5t36 -1.5q38 0 65 4t51 17l-3 -8q-25 11 -46.5 33.5t-21.5 55.5q0 35 23 55.5t54 20.5q32 0 56 -21.5t24 -59.5q0 -31 -17.5 -52.5t-44.5 -35.5q-25 -13 -50.5 -19.5t-50.5 -8.5l8 5l-104 -399
q-16 -60 -38.5 -115t-58.5 -97t-88.5 -67.5t-128.5 -25.5zM557 772q-58 18 -97 24.5t-65.5 10.5t-49.5 16q-25 13 -35 37.5t2 48.5q14 28 43 34.5t51 -4.5q25 -11 42 -31.5t42.5 -51t73.5 -72.5z" />
    <glyph glyph-name="uni1EEC" unicode="&#x1eec;" horiz-adv-x="702" 
d="M301 -14q-78 0 -132 26.5t-78 68.5q-22 38 -20.5 90t18.5 117l83 314q10 37 8 54.5t-17.5 24t-49.5 7.5l6 20q29 -1 80.5 -2t104.5 -1t98.5 1t80.5 2l-6 -20q-34 -1 -53 -7.5t-29.5 -24t-20.5 -54.5l-88 -331q-25 -94 -26 -149t22 -78t68 -23q63 0 110 35t79.5 93.5
t50.5 130.5l106 410l2 -6q-26 0 -52.5 0.5t-51.5 3.5l5 20q23 -1 37 -2.5t36 -1.5q38 0 65 4t51 17l-3 -8q-25 11 -46.5 33.5t-21.5 55.5q0 35 23 55.5t54 20.5q32 0 56 -21.5t24 -59.5q0 -31 -17.5 -52.5t-44.5 -35.5q-25 -13 -50.5 -19.5t-50.5 -8.5l8 5l-104 -399
q-16 -60 -38.5 -115t-58.5 -97t-88.5 -67.5t-128.5 -25.5zM490 739q5 31 19 48.5t29.5 30t26.5 29t11 46.5q0 35 -17 49.5t-46 14.5q-16 0 -28 -3t-17 -6q19 -7 30.5 -21t11.5 -35q0 -28 -20.5 -45t-48.5 -17q-25 0 -40 14t-15 37q0 25 17.5 43t42.5 30q24 11 52.5 17
t61.5 6q56 0 90.5 -18.5t34.5 -59.5q0 -29 -16 -45t-40.5 -25.5t-50 -19t-44.5 -25.5t-24 -45h-20z" />
    <glyph glyph-name="uni1EEE" unicode="&#x1eee;" horiz-adv-x="702" 
d="M301 -14q-78 0 -132 26.5t-78 68.5q-22 38 -20.5 90t18.5 117l83 314q10 37 8 54.5t-17.5 24t-49.5 7.5l6 20q29 -1 80.5 -2t104.5 -1t98.5 1t80.5 2l-6 -20q-34 -1 -53 -7.5t-29.5 -24t-20.5 -54.5l-88 -331q-25 -94 -26 -149t22 -78t68 -23q63 0 110 35t79.5 93.5
t50.5 130.5l106 410l2 -6q-26 0 -52.5 0.5t-51.5 3.5l5 20q23 -1 37 -2.5t36 -1.5q38 0 65 4t51 17l-3 -8q-25 11 -46.5 33.5t-21.5 55.5q0 35 23 55.5t54 20.5q32 0 56 -21.5t24 -59.5q0 -31 -17.5 -52.5t-44.5 -35.5q-25 -13 -50.5 -19.5t-50.5 -8.5l8 5l-104 -399
q-16 -60 -38.5 -115t-58.5 -97t-88.5 -67.5t-128.5 -25.5zM472 948q39 0 65 -11t46 -25.5t40.5 -25.5t49.5 -11q23 0 43 13.5t39 44.5l18 -5q-32 -87 -84.5 -125t-105.5 -38q-39 0 -65 11t-46 25.5t-40.5 25.5t-49.5 11q-23 0 -42.5 -13t-39.5 -45l-18 5q32 87 84.5 125
t105.5 38z" />
    <glyph glyph-name="Uhungarumlaut" unicode="&#x170;" horiz-adv-x="702" 
d="M651 512q18 67 21.5 102.5t-14 51.5t-63.5 22l6 20q20 -1 51.5 -2t59.5 -1q23 0 45.5 1t38.5 2l-6 -20q-32 -6 -51 -21t-32.5 -46.5t-28.5 -88.5l-62 -241q-36 -138 -98 -212q-36 -42 -89.5 -67.5t-115.5 -25.5q-91 0 -145 27t-77 68q-20 38 -20.5 87.5t18.5 119.5
l83 314q10 37 8 54.5t-17.5 24t-49.5 7.5l6 20q29 -1 80.5 -2t108.5 -1q50 0 95 1t80 2l-6 -20q-34 -1 -53 -7.5t-29.5 -24t-20.5 -54.5l-88 -331q-18 -69 -23 -116.5t2.5 -77t24.5 -43t42 -13.5q75 0 125 33.5t82 92.5t51 133zM549 782q33 42 52 73t33.5 53t31.5 35
q22 16 51 11t45 -31q16 -22 9 -47t-31 -41q-17 -11 -41.5 -18.5t-58.5 -17t-82 -27.5zM322 782q33 42 52 73t33.5 53t31.5 35q22 16 50.5 11t45.5 -31q15 -22 8.5 -47t-30.5 -41q-17 -11 -41.5 -18.5t-58.5 -17t-82 -27.5z" />
    <glyph glyph-name="Umacron" unicode="&#x16a;" horiz-adv-x="702" 
d="M651 512q18 67 21.5 102.5t-14 51.5t-63.5 22l6 20q20 -1 51.5 -2t59.5 -1q23 0 45.5 1t38.5 2l-6 -20q-32 -6 -51 -21t-32.5 -46.5t-28.5 -88.5l-62 -241q-36 -138 -98 -212q-36 -42 -89.5 -67.5t-115.5 -25.5q-91 0 -145 27t-77 68q-20 38 -20.5 87.5t18.5 119.5
l83 314q10 37 8 54.5t-17.5 24t-49.5 7.5l6 20q29 -1 80.5 -2t108.5 -1q50 0 95 1t80 2l-6 -20q-34 -1 -53 -7.5t-29.5 -24t-20.5 -54.5l-88 -331q-18 -69 -23 -116.5t2.5 -77t24.5 -43t42 -13.5q75 0 125 33.5t82 92.5t51 133zM721 844l-6 -25h-432l6 25h432z" />
    <glyph glyph-name="Uogonek" unicode="&#x172;" horiz-adv-x="702" 
d="M651 512q18 67 21.5 102.5t-14 51.5t-63.5 22l6 20q20 -1 51.5 -2t59.5 -1q23 0 45.5 1t38.5 2l-6 -20q-32 -6 -51 -21t-32.5 -46.5t-28.5 -88.5l-62 -241q-36 -138 -98 -212q-36 -42 -89.5 -67.5t-115.5 -25.5q-91 0 -145 27t-77 68q-20 38 -20.5 87.5t18.5 119.5
l83 314q10 37 8 54.5t-17.5 24t-49.5 7.5l6 20q29 -1 80.5 -2t108.5 -1q50 0 95 1t80 2l-6 -20q-34 -1 -53 -7.5t-29.5 -24t-20.5 -54.5l-88 -331q-18 -69 -23 -116.5t2.5 -77t24.5 -43t42 -13.5q75 0 125 33.5t82 92.5t51 133zM407 3q-33 -13 -54.5 -33t-32 -41t-10.5 -40
q0 -26 29 -26q14 0 32.5 4.5t38.5 14.5l11 -17q-40 -28 -78 -40.5t-79 -12.5t-66 16t-25 45q0 31 30.5 56t80 43.5t105.5 30.5h18z" />
    <glyph glyph-name="Uring" unicode="&#x16e;" horiz-adv-x="702" 
d="M651 512q18 67 21.5 102.5t-14 51.5t-63.5 22l6 20q20 -1 51.5 -2t59.5 -1q23 0 45.5 1t38.5 2l-6 -20q-32 -6 -51 -21t-32.5 -46.5t-28.5 -88.5l-62 -241q-36 -138 -98 -212q-36 -42 -89.5 -67.5t-115.5 -25.5q-91 0 -145 27t-77 68q-20 38 -20.5 87.5t18.5 119.5
l83 314q10 37 8 54.5t-17.5 24t-49.5 7.5l6 20q29 -1 80.5 -2t108.5 -1q50 0 95 1t80 2l-6 -20q-34 -1 -53 -7.5t-29.5 -24t-20.5 -54.5l-88 -331q-18 -69 -23 -116.5t2.5 -77t24.5 -43t42 -13.5q75 0 125 33.5t82 92.5t51 133zM527 945q45 0 75.5 -24t30.5 -65
q0 -31 -18.5 -57t-49 -41.5t-65.5 -15.5q-43 0 -72.5 24t-29.5 66q0 32 17 57.5t46.5 40.5t65.5 15zM505 763q26 0 49.5 12t38 33t14.5 46q0 36 -27 53t-56 17q-40 0 -69.5 -28t-29.5 -64q0 -34 25 -51.5t55 -17.5z" />
    <glyph glyph-name="Utilde" unicode="&#x168;" horiz-adv-x="702" 
d="M651 512q18 67 21.5 102.5t-14 51.5t-63.5 22l6 20q20 -1 51.5 -2t59.5 -1q23 0 45.5 1t38.5 2l-6 -20q-32 -6 -51 -21t-32.5 -46.5t-28.5 -88.5l-62 -241q-36 -138 -98 -212q-36 -42 -89.5 -67.5t-115.5 -25.5q-91 0 -145 27t-77 68q-20 38 -20.5 87.5t18.5 119.5
l83 314q10 37 8 54.5t-17.5 24t-49.5 7.5l6 20q29 -1 80.5 -2t108.5 -1q50 0 95 1t80 2l-6 -20q-34 -1 -53 -7.5t-29.5 -24t-20.5 -54.5l-88 -331q-18 -69 -23 -116.5t2.5 -77t24.5 -43t42 -13.5q75 0 125 33.5t82 92.5t51 133zM472 948q39 0 65 -11t46 -25.5t40.5 -25.5
t49.5 -11q23 0 43 13.5t39 44.5l18 -5q-32 -87 -84.5 -125t-105.5 -38q-39 0 -65 11t-46 25.5t-40.5 25.5t-49.5 11q-23 0 -42.5 -13t-39.5 -45l-18 5q32 87 84.5 125t105.5 38z" />
    <glyph glyph-name="V" unicode="V" horiz-adv-x="680" 
d="M652 577q26 40 22.5 63t-27.5 34t-63 14l5 20q10 -1 36.5 -1.5t57 -1t48.5 -0.5q21 0 40 1t35 2l-5 -20q-24 -7 -43.5 -18.5t-40.5 -35t-48 -65.5l-373 -574q-19 2 -37.5 2t-37.5 -2l-79 629q-4 36 -21 49.5t-31 14.5l5 20q29 -1 75.5 -2t92.5 -1q54 0 99.5 1t74.5 2
l-5 -20q-32 -1 -51 -8t-25.5 -24t-3.5 -52l48 -441l-45 -42z" />
    <glyph glyph-name="W" unicode="W" horiz-adv-x="1035" 
d="M609 514l-317 -519h-75l-79 629q-4 36 -21 49.5t-31 14.5l5 20q29 -1 75.5 -2t92.5 -1q45 0 82 1t62 2l-5 -20q-30 -2 -41.5 -17t-8.5 -67l46 -425l-44 -48l254 410zM1001 577q24 42 21 65t-26.5 33t-62.5 13l5 20q10 -1 36.5 -1.5t57 -1t48.5 -0.5q21 0 40 1t35 2
l-5 -20q-24 -7 -44.5 -18t-41.5 -34t-46 -67l-327 -574h-75l-79 629q-4 36 -17.5 49.5t-24.5 14.5l5 20q27 -1 71 -2t87 -1q54 0 99.5 1t74.5 2l-5 -20q-48 -2 -66.5 -17t-13.5 -67l46 -425l-46 -45z" />
    <glyph glyph-name="Wacute" unicode="&#x1e82;" horiz-adv-x="1035" 
d="M609 514l-317 -519h-75l-79 629q-4 36 -21 49.5t-31 14.5l5 20q29 -1 75.5 -2t92.5 -1q45 0 82 1t62 2l-5 -20q-30 -2 -41.5 -17t-8.5 -67l46 -425l-44 -48l254 410zM1001 577q24 42 21 65t-26.5 33t-62.5 13l5 20q10 -1 36.5 -1.5t57 -1t48.5 -0.5q21 0 40 1t35 2
l-5 -20q-24 -7 -44.5 -18t-41.5 -34t-46 -67l-327 -574h-75l-79 629q-4 36 -17.5 49.5t-24.5 14.5l5 20q27 -1 71 -2t87 -1q54 0 99.5 1t74.5 2l-5 -20q-48 -2 -66.5 -17t-13.5 -67l46 -425l-46 -45zM646 781q48 42 78 75.5t54.5 58.5t53.5 40q17 9 37.5 11t40 -5.5
t30.5 -28.5q15 -28 0.5 -52t-45.5 -41q-26 -14 -60 -22.5t-78.5 -18.5t-103.5 -29z" />
    <glyph glyph-name="Wcircumflex" unicode="&#x174;" horiz-adv-x="1035" 
d="M609 514l-317 -519h-75l-79 629q-4 36 -21 49.5t-31 14.5l5 20q29 -1 75.5 -2t92.5 -1q45 0 82 1t62 2l-5 -20q-30 -2 -41.5 -17t-8.5 -67l46 -425l-44 -48l254 410zM1001 577q24 42 21 65t-26.5 33t-62.5 13l5 20q10 -1 36.5 -1.5t57 -1t48.5 -0.5q21 0 40 1t35 2
l-5 -20q-24 -7 -44.5 -18t-41.5 -34t-46 -67l-327 -574h-75l-79 629q-4 36 -17.5 49.5t-24.5 14.5l5 20q27 -1 71 -2t87 -1q54 0 99.5 1t74.5 2l-5 -20q-48 -2 -66.5 -17t-13.5 -67l46 -425l-46 -45zM663 821q-46 -16 -103.5 -29.5t-121.5 -24.5l-5 14q91 29 169.5 75.5
t125.5 96.5h18q19 -58 49.5 -99t89.5 -73l-4 -14q-50 8 -88 16.5t-69 17.5t-61 20z" />
    <glyph glyph-name="Wdieresis" unicode="&#x1e84;" horiz-adv-x="1035" 
d="M609 514l-317 -519h-75l-79 629q-4 36 -21 49.5t-31 14.5l5 20q29 -1 75.5 -2t92.5 -1q45 0 82 1t62 2l-5 -20q-30 -2 -41.5 -17t-8.5 -67l46 -425l-44 -48l254 410zM1001 577q24 42 21 65t-26.5 33t-62.5 13l5 20q10 -1 36.5 -1.5t57 -1t48.5 -0.5q21 0 40 1t35 2
l-5 -20q-24 -7 -44.5 -18t-41.5 -34t-46 -67l-327 -574h-75l-79 629q-4 36 -17.5 49.5t-24.5 14.5l5 20q27 -1 71 -2t87 -1q54 0 99.5 1t74.5 2l-5 -20q-48 -2 -66.5 -17t-13.5 -67l46 -425l-46 -45zM460 835q0 52 30.5 75t68.5 23q40 0 57.5 -21.5t17.5 -56.5
q0 -34 -15 -55.5t-37.5 -31t-47.5 -9.5q-40 0 -57 21t-17 55zM718 835q0 52 30.5 75t68.5 23q40 0 57.5 -21.5t17.5 -56.5q0 -34 -15 -55.5t-37.5 -31t-47.5 -9.5q-40 0 -57 21t-17 55z" />
    <glyph glyph-name="Wgrave" unicode="&#x1e80;" horiz-adv-x="1035" 
d="M609 514l-317 -519h-75l-79 629q-4 36 -21 49.5t-31 14.5l5 20q29 -1 75.5 -2t92.5 -1q45 0 82 1t62 2l-5 -20q-30 -2 -41.5 -17t-8.5 -67l46 -425l-44 -48l254 410zM1001 577q24 42 21 65t-26.5 33t-62.5 13l5 20q10 -1 36.5 -1.5t57 -1t48.5 -0.5q21 0 40 1t35 2
l-5 -20q-24 -7 -44.5 -18t-41.5 -34t-46 -67l-327 -574h-75l-79 629q-4 36 -17.5 49.5t-24.5 14.5l5 20q27 -1 71 -2t87 -1q54 0 99.5 1t74.5 2l-5 -20q-48 -2 -66.5 -17t-13.5 -67l46 -425l-46 -45zM720 769q-58 18 -97 24.5t-65.5 10.5t-49.5 16q-25 13 -35 37.5t2 48.5
q14 28 43 34.5t51 -4.5q25 -11 42 -31.5t42.5 -51t73.5 -72.5z" />
    <glyph glyph-name="X" unicode="X" horiz-adv-x="769" 
d="M540 105q3 -19 13 -28.5t29 -9.5q20 0 34.5 12t24.5 40l17 51h20l-26 -77q-22 -59 -59.5 -83t-90.5 -24q-60 0 -95 18t-52 53t-24 85l-58 466q-3 22 -12.5 31t-27.5 9q-19 0 -34.5 -14t-26.5 -45l-17 -51h-20l26 77q22 59 63.5 83t99.5 24q53 0 85.5 -16.5t50.5 -51
t24 -88.5zM729 705q-16 0 -32.5 -6.5t-33.5 -18.5q-28 -24 -66 -78t-78.5 -135.5t-76.5 -188.5l11 76q22 65 54 130t68 118.5t68 83.5q45 36 91 36q50 0 79 -33.5t29 -82.5q0 -53 -32 -84.5t-77 -31.5q-37 0 -59.5 22t-22.5 62q0 45 29 79t75 44q-4 4 -10 6t-16 2zM68 3
q18 0 34.5 7t33.5 18q30 22 72 71t86.5 124t82.5 173l-15 -76q-23 -58 -57.5 -116.5t-72.5 -106.5t-75 -78q-45 -33 -94 -33t-78.5 33.5t-29.5 82.5q0 53 32 84.5t77 31.5q38 0 60 -22t22 -62q0 -45 -29 -78.5t-75 -44.5q4 -4 10 -6t16 -2z" />
    <glyph glyph-name="Y" unicode="Y" horiz-adv-x="776" 
d="M422 106q-9 -36 -2.5 -54t27 -24t54.5 -8l-5 -20q-21 1 -55.5 1.5t-74 1t-74.5 0.5q-54 0 -103 -0.5t-78 -2.5l5 20q34 2 53 8t30 24t20 54l69 274l85 -63l93 19l34 80zM732 705q-16 0 -30.5 -5t-33.5 -19q-25 -18 -62.5 -72t-75.5 -140t-67 -199l-188 -5q-4 47 -11 98
t-17.5 99.5t-24 88t-29.5 62.5t-36 23q-19 0 -29.5 -15.5t-15.5 -31.5l-17 -51h-11h-11l21 64q23 69 70 94.5t99 25.5q77 0 117 -40.5t58.5 -119.5t31.5 -193q31 95 69 169.5t79 123.5q23 27 52.5 43.5t66.5 16.5q53 0 85 -31t32 -76q0 -48 -32.5 -76.5t-79.5 -28.5
q-40 0 -64.5 19.5t-24.5 54.5q0 45 30 75.5t74 37.5q-4 4 -10.5 6t-14.5 2z" />
    <glyph glyph-name="Yacute" unicode="&#xdd;" horiz-adv-x="776" 
d="M422 106q-9 -36 -2.5 -54t27 -24t54.5 -8l-5 -20q-21 1 -55.5 1.5t-74 1t-74.5 0.5q-54 0 -103 -0.5t-78 -2.5l5 20q34 2 53 8t30 24t20 54l69 274l85 -63l93 19l34 80zM732 705q-16 0 -30.5 -5t-33.5 -19q-25 -18 -62.5 -72t-75.5 -140t-67 -199l-188 -5q-4 47 -11 98
t-17.5 99.5t-24 88t-29.5 62.5t-36 23q-19 0 -29.5 -15.5t-15.5 -31.5l-17 -51h-11h-11l21 64q23 69 70 94.5t99 25.5q77 0 117 -40.5t58.5 -119.5t31.5 -193q31 95 69 169.5t79 123.5q23 27 52.5 43.5t66.5 16.5q53 0 85 -31t32 -76q0 -48 -32.5 -76.5t-79.5 -28.5
q-40 0 -64.5 19.5t-24.5 54.5q0 45 30 75.5t74 37.5q-4 4 -10.5 6t-14.5 2zM473 784q48 42 78 75.5t54.5 58.5t53.5 40q17 9 37.5 11t40 -5.5t30.5 -28.5q15 -28 0.5 -52t-45.5 -41q-26 -14 -60 -22.5t-78.5 -18.5t-103.5 -29z" />
    <glyph glyph-name="Ycircumflex" unicode="&#x176;" horiz-adv-x="776" 
d="M422 106q-9 -36 -2.5 -54t27 -24t54.5 -8l-5 -20q-21 1 -55.5 1.5t-74 1t-74.5 0.5q-54 0 -103 -0.5t-78 -2.5l5 20q34 2 53 8t30 24t20 54l69 274l85 -63l93 19l34 80zM732 705q-16 0 -30.5 -5t-33.5 -19q-25 -18 -62.5 -72t-75.5 -140t-67 -199l-188 -5q-4 47 -11 98
t-17.5 99.5t-24 88t-29.5 62.5t-36 23q-19 0 -29.5 -15.5t-15.5 -31.5l-17 -51h-11h-11l21 64q23 69 70 94.5t99 25.5q77 0 117 -40.5t58.5 -119.5t31.5 -193q31 95 69 169.5t79 123.5q23 27 52.5 43.5t66.5 16.5q53 0 85 -31t32 -76q0 -48 -32.5 -76.5t-79.5 -28.5
q-40 0 -64.5 19.5t-24.5 54.5q0 45 30 75.5t74 37.5q-4 4 -10.5 6t-14.5 2zM490 824q-46 -16 -103.5 -29.5t-121.5 -24.5l-5 14q91 29 169.5 75.5t125.5 96.5h18q19 -58 49.5 -99t89.5 -73l-4 -14q-50 8 -88 16.5t-69 17.5t-61 20z" />
    <glyph glyph-name="Ydieresis" unicode="&#x178;" horiz-adv-x="776" 
d="M422 106q-9 -36 -2.5 -54t27 -24t54.5 -8l-5 -20q-21 1 -55.5 1.5t-74 1t-74.5 0.5q-54 0 -103 -0.5t-78 -2.5l5 20q34 2 53 8t30 24t20 54l69 274l85 -63l93 19l34 80zM732 705q-16 0 -30.5 -5t-33.5 -19q-25 -18 -62.5 -72t-75.5 -140t-67 -199l-188 -5q-4 47 -11 98
t-17.5 99.5t-24 88t-29.5 62.5t-36 23q-19 0 -29.5 -15.5t-15.5 -31.5l-17 -51h-11h-11l21 64q23 69 70 94.5t99 25.5q77 0 117 -40.5t58.5 -119.5t31.5 -193q31 95 69 169.5t79 123.5q23 27 52.5 43.5t66.5 16.5q53 0 85 -31t32 -76q0 -48 -32.5 -76.5t-79.5 -28.5
q-40 0 -64.5 19.5t-24.5 54.5q0 45 30 75.5t74 37.5q-4 4 -10.5 6t-14.5 2zM287 838q0 52 30.5 75t68.5 23q40 0 57.5 -21.5t17.5 -56.5q0 -34 -15 -55.5t-37.5 -31t-47.5 -9.5q-40 0 -57 21t-17 55zM545 838q0 52 30.5 75t68.5 23q40 0 57.5 -21.5t17.5 -56.5
q0 -34 -15 -55.5t-37.5 -31t-47.5 -9.5q-40 0 -57 21t-17 55z" />
    <glyph glyph-name="uni1EF4" unicode="&#x1ef4;" horiz-adv-x="776" 
d="M422 106q-9 -36 -2.5 -54t27 -24t54.5 -8l-5 -20q-21 1 -55.5 1.5t-74 1t-74.5 0.5q-54 0 -103 -0.5t-78 -2.5l5 20q34 2 53 8t30 24t20 54l69 274l85 -63l93 19l34 80zM732 705q-16 0 -30.5 -5t-33.5 -19q-25 -18 -62.5 -72t-75.5 -140t-67 -199l-188 -5q-4 47 -11 98
t-17.5 99.5t-24 88t-29.5 62.5t-36 23q-19 0 -29.5 -15.5t-15.5 -31.5l-17 -51h-11h-11l21 64q23 69 70 94.5t99 25.5q77 0 117 -40.5t58.5 -119.5t31.5 -193q31 95 69 169.5t79 123.5q23 27 52.5 43.5t66.5 16.5q53 0 85 -31t32 -76q0 -48 -32.5 -76.5t-79.5 -28.5
q-40 0 -64.5 19.5t-24.5 54.5q0 45 30 75.5t74 37.5q-4 4 -10.5 6t-14.5 2zM262 -191q-36 0 -55 14t-19 42q0 43 27 66.5t74 23.5q36 0 55 -14t19 -42q0 -43 -27 -66.5t-74 -23.5z" />
    <glyph glyph-name="Ygrave" unicode="&#x1ef2;" horiz-adv-x="776" 
d="M422 106q-9 -36 -2.5 -54t27 -24t54.5 -8l-5 -20q-21 1 -55.5 1.5t-74 1t-74.5 0.5q-54 0 -103 -0.5t-78 -2.5l5 20q34 2 53 8t30 24t20 54l69 274l85 -63l93 19l34 80zM732 705q-16 0 -30.5 -5t-33.5 -19q-25 -18 -62.5 -72t-75.5 -140t-67 -199l-188 -5q-4 47 -11 98
t-17.5 99.5t-24 88t-29.5 62.5t-36 23q-19 0 -29.5 -15.5t-15.5 -31.5l-17 -51h-11h-11l21 64q23 69 70 94.5t99 25.5q77 0 117 -40.5t58.5 -119.5t31.5 -193q31 95 69 169.5t79 123.5q23 27 52.5 43.5t66.5 16.5q53 0 85 -31t32 -76q0 -48 -32.5 -76.5t-79.5 -28.5
q-40 0 -64.5 19.5t-24.5 54.5q0 45 30 75.5t74 37.5q-4 4 -10.5 6t-14.5 2zM547 772q-58 18 -97 24.5t-65.5 10.5t-49.5 16q-25 13 -35 37.5t2 48.5q14 28 43 34.5t51 -4.5q25 -11 42 -31.5t42.5 -51t73.5 -72.5z" />
    <glyph glyph-name="uni1EF6" unicode="&#x1ef6;" horiz-adv-x="776" 
d="M422 106q-9 -36 -2.5 -54t27 -24t54.5 -8l-5 -20q-21 1 -55.5 1.5t-74 1t-74.5 0.5q-54 0 -103 -0.5t-78 -2.5l5 20q34 2 53 8t30 24t20 54l69 274l85 -63l93 19l34 80zM732 705q-16 0 -30.5 -5t-33.5 -19q-25 -18 -62.5 -72t-75.5 -140t-67 -199l-188 -5q-4 47 -11 98
t-17.5 99.5t-24 88t-29.5 62.5t-36 23q-19 0 -29.5 -15.5t-15.5 -31.5l-17 -51h-11h-11l21 64q23 69 70 94.5t99 25.5q77 0 117 -40.5t58.5 -119.5t31.5 -193q31 95 69 169.5t79 123.5q23 27 52.5 43.5t66.5 16.5q53 0 85 -31t32 -76q0 -48 -32.5 -76.5t-79.5 -28.5
q-40 0 -64.5 19.5t-24.5 54.5q0 45 30 75.5t74 37.5q-4 4 -10.5 6t-14.5 2zM480 739q5 31 19 48.5t29.5 30t26.5 29t11 46.5q0 35 -17 49.5t-46 14.5q-16 0 -28 -3t-17 -6q19 -7 30.5 -21t11.5 -35q0 -28 -20.5 -45t-48.5 -17q-25 0 -40 14t-15 37q0 25 17.5 43t42.5 30
q24 11 52.5 17t61.5 6q56 0 90.5 -18.5t34.5 -59.5q0 -29 -16 -45t-40.5 -25.5t-50 -19t-44.5 -25.5t-24 -45h-20z" />
    <glyph glyph-name="uni1EF8" unicode="&#x1ef8;" horiz-adv-x="776" 
d="M422 106q-9 -36 -2.5 -54t27 -24t54.5 -8l-5 -20q-21 1 -55.5 1.5t-74 1t-74.5 0.5q-54 0 -103 -0.5t-78 -2.5l5 20q34 2 53 8t30 24t20 54l69 274l85 -63l93 19l34 80zM732 705q-16 0 -30.5 -5t-33.5 -19q-25 -18 -62.5 -72t-75.5 -140t-67 -199l-188 -5q-4 47 -11 98
t-17.5 99.5t-24 88t-29.5 62.5t-36 23q-19 0 -29.5 -15.5t-15.5 -31.5l-17 -51h-11h-11l21 64q23 69 70 94.5t99 25.5q77 0 117 -40.5t58.5 -119.5t31.5 -193q31 95 69 169.5t79 123.5q23 27 52.5 43.5t66.5 16.5q53 0 85 -31t32 -76q0 -48 -32.5 -76.5t-79.5 -28.5
q-40 0 -64.5 19.5t-24.5 54.5q0 45 30 75.5t74 37.5q-4 4 -10.5 6t-14.5 2zM462 948q39 0 65 -11t46 -25.5t40.5 -25.5t49.5 -11q23 0 43 13.5t39 44.5l18 -5q-32 -87 -84.5 -125t-105.5 -38q-39 0 -65 11t-46 25.5t-40.5 25.5t-49.5 11q-23 0 -42.5 -13t-39.5 -45l-18 5
q32 87 84.5 125t105.5 38z" />
    <glyph glyph-name="Z" unicode="Z" horiz-adv-x="662" 
d="M164 346l7 20h353l-8 -20h-352zM452 216l2 9.5l2 9.5q36 -5 69.5 -18.5t55 -37t21.5 -60.5q0 -58 -43.5 -95.5t-117.5 -37.5q-47 0 -83 11.5t-68 27t-67 27t-81 11.5q-21 0 -39.5 -4t-38.5 -11q-22 -32 -48 -49t-40 -4q-12 11 2 33t67 42l580 570q-51 -52 -107.5 -83
t-115.5 -31q-39 0 -68.5 5.5t-53 12.5t-43 12.5t-38.5 5.5q-13 0 -21 -5t-8 -18q0 -14 16 -26.5t57 -20.5l-2.5 -9.5l-2.5 -9.5q-35 6 -69 19t-55.5 37t-21.5 60q0 58 43.5 95.5t117.5 37.5q47 0 83 -11.5t68 -27t67 -27t81 -11.5q21 0 39.5 4t38.5 11q23 32 48 49t40 4
q12 -10 -2 -32.5t-67 -42.5l-580 -570q51 52 108 83t116 31q39 0 68.5 -5.5t53 -12.5t43 -12.5t38.5 -5.5q13 0 21 5t8 18q0 14 -16 26.5t-57 20.5z" />
    <glyph glyph-name="Zacute" unicode="&#x179;" horiz-adv-x="662" 
d="M164 346l7 20h353l-8 -20h-352zM452 216l2 9.5l2 9.5q36 -5 69.5 -18.5t55 -37t21.5 -60.5q0 -58 -43.5 -95.5t-117.5 -37.5q-47 0 -83 11.5t-68 27t-67 27t-81 11.5q-21 0 -39.5 -4t-38.5 -11q-22 -32 -48 -49t-40 -4q-12 11 2 33t67 42l580 570q-51 -52 -107.5 -83
t-115.5 -31q-39 0 -68.5 5.5t-53 12.5t-43 12.5t-38.5 5.5q-13 0 -21 -5t-8 -18q0 -14 16 -26.5t57 -20.5l-2.5 -9.5l-2.5 -9.5q-35 6 -69 19t-55.5 37t-21.5 60q0 58 43.5 95.5t117.5 37.5q47 0 83 -11.5t68 -27t67 -27t81 -11.5q21 0 39.5 4t38.5 11q23 32 48 49t40 4
q12 -10 -2 -32.5t-67 -42.5l-580 -570q51 52 108 83t116 31q39 0 68.5 -5.5t53 -12.5t43 -12.5t38.5 -5.5q13 0 21 5t8 18q0 14 -16 26.5t-57 20.5zM416 784q48 42 78 75.5t54.5 58.5t53.5 40q17 9 37.5 11t40 -5.5t30.5 -28.5q15 -28 0.5 -52t-45.5 -41q-26 -14 -60 -22.5
t-78.5 -18.5t-103.5 -29z" />
    <glyph glyph-name="Zcaron" unicode="&#x17d;" horiz-adv-x="662" 
d="M164 346l7 20h353l-8 -20h-352zM452 216l2 9.5l2 9.5q36 -5 69.5 -18.5t55 -37t21.5 -60.5q0 -58 -43.5 -95.5t-117.5 -37.5q-47 0 -83 11.5t-68 27t-67 27t-81 11.5q-21 0 -39.5 -4t-38.5 -11q-22 -32 -48 -49t-40 -4q-12 11 2 33t67 42l580 570q-51 -52 -107.5 -83
t-115.5 -31q-39 0 -68.5 5.5t-53 12.5t-43 12.5t-38.5 5.5q-13 0 -21 -5t-8 -18q0 -14 16 -26.5t57 -20.5l-2.5 -9.5l-2.5 -9.5q-35 6 -69 19t-55.5 37t-21.5 60q0 58 43.5 95.5t117.5 37.5q47 0 83 -11.5t68 -27t67 -27t81 -11.5q21 0 39.5 4t38.5 11q23 32 48 49t40 4
q12 -10 -2 -32.5t-67 -42.5l-580 -570q51 52 108 83t116 31q39 0 68.5 -5.5t53 -12.5t43 -12.5t38.5 -5.5q13 0 21 5t8 18q0 14 -16 26.5t-57 20.5zM515 892q47 16 104 30t121 24l5 -14q-91 -28 -169.5 -75t-125.5 -97h-18q-19 59 -49.5 99.5t-89.5 72.5l4 14
q50 -8 88 -16.5t69.5 -17.5t60.5 -20z" />
    <glyph glyph-name="Zdotaccent" unicode="&#x17b;" horiz-adv-x="662" 
d="M164 346l7 20h353l-8 -20h-352zM452 216l2 9.5l2 9.5q36 -5 69.5 -18.5t55 -37t21.5 -60.5q0 -58 -43.5 -95.5t-117.5 -37.5q-47 0 -83 11.5t-68 27t-67 27t-81 11.5q-21 0 -39.5 -4t-38.5 -11q-22 -32 -48 -49t-40 -4q-12 11 2 33t67 42l580 570q-51 -52 -107.5 -83
t-115.5 -31q-39 0 -68.5 5.5t-53 12.5t-43 12.5t-38.5 5.5q-13 0 -21 -5t-8 -18q0 -14 16 -26.5t57 -20.5l-2.5 -9.5l-2.5 -9.5q-35 6 -69 19t-55.5 37t-21.5 60q0 58 43.5 95.5t117.5 37.5q47 0 83 -11.5t68 -27t67 -27t81 -11.5q21 0 39.5 4t38.5 11q23 32 48 49t40 4
q12 -10 -2 -32.5t-67 -42.5l-580 -570q51 52 108 83t116 31q39 0 68.5 -5.5t53 -12.5t43 -12.5t38.5 -5.5q13 0 21 5t8 18q0 14 -16 26.5t-57 20.5zM341 826q0 54 35 80t87 26q44 0 66.5 -17t22.5 -51q0 -47 -35.5 -75.5t-87.5 -28.5q-43 0 -65.5 17t-22.5 49z" />
    <glyph glyph-name="Iacute_J.loclNLD" horiz-adv-x="878" 
d="M315 784q48 42 78 75.5t54.5 58.5t53.5 40q17 9 37.5 11t40 -5.5t30.5 -28.5q15 -28 0.5 -52t-45.5 -41q-26 -14 -60 -22.5t-78.5 -18.5t-103.5 -29zM858 366l-1.5 -10l-1.5 -10h-431l1.5 10l1.5 10h431zM324 462q62 0 97 9.5t69 25.5l7 -18q-34 -16 -71.5 -27.5
t-103.5 -11.5q-50 0 -91.5 10t-72 29.5t-47 49.5t-16.5 70q0 42 21 73.5t64 49t107 17.5q54 0 94.5 -10t75 -24t67.5 -28.5t71.5 -24.5t88.5 -10q30 0 67.5 3.5t76 11t70.5 20.5q21 32 41 49t35 4q12 -10 -1 -27t-66 -37q-42 -38 -71.5 -92.5t-51.5 -121.5t-42 -145
l-62 -242q-17 -68 -56.5 -126t-107.5 -92.5t-173 -34.5q-45 0 -82.5 8.5t-60 28t-22.5 52.5q0 38 26.5 62.5t77.5 24.5q42 0 71.5 -18t29.5 -55q0 -28 -16.5 -49t-48.5 -35q8 -1 13 -1.5t10 -0.5q23 0 39.5 11t29.5 34t25.5 59.5t26.5 86.5l69 242q22 76 54 132.5t74.5 100
t95 80.5t113.5 75q-56 -13 -97 -31.5t-76.5 -35.5t-75 -28.5t-92.5 -11.5q-37 0 -70.5 7t-66 16t-65 16t-67.5 7q-34 0 -53 -12t-19 -39q0 -22 14.5 -39t45 -27t78.5 -10zM217 460h203l-111 -354q-11 -36 -9.5 -54t18 -24t50.5 -8l-4 -20q-32 2 -83 2.5t-104 0.5
q-54 0 -101 -0.5t-76 -2.5l5 20q33 2 50.5 8t28.5 24t22 54zM724 784q48 42 78 75.5t54.5 58.5t53.5 40q17 9 37.5 11t40 -5.5t30.5 -28.5q15 -28 0.5 -52t-45.5 -41q-26 -14 -60 -22.5t-78.5 -18.5t-103.5 -29z" />
    <glyph glyph-name="Cacute.loclPLK" horiz-adv-x="708" 
d="M768 708q-15 -39 -31 -94.5t-33 -135.5h-22q9 50 9.5 90t-16.5 69q-19 33 -46 45t-64 12q-48 0 -92.5 -24.5t-81.5 -69t-65 -103.5t-43.5 -129t-15.5 -145q0 -104 35.5 -151.5t95.5 -47.5q33 0 68.5 15t61.5 43q27 29 46.5 64.5t43.5 93.5h22q-25 -91 -38.5 -146.5
t-20.5 -93.5h-22q3 21 3 34q0 20 -8 24.5t-25 -7.5q-26 -18 -57.5 -33t-67 -23.5t-75.5 -8.5q-153 0 -222.5 68t-69.5 188q0 72 24 141.5t69 130.5t108 108t140.5 73.5t165.5 26.5q40 0 67.5 -9t47 -24t33.5 -32q13 -16 26.5 -3t28.5 54h21zM512 759l-12 7q17 51 25.5 86.5
t16 61t18.5 43.5q10 16 27 26t36 10q25 0 45 -17t20 -42q0 -13 -6 -27t-15 -26q-13 -16 -34.5 -31.5t-51.5 -36t-69 -54.5z" />
    <glyph glyph-name="Nacute.loclPLK" horiz-adv-x="861" 
d="M543 -5l-268 488l2 18t4 41.5t4 41.5l2 18q8 37 5.5 54.5t-20 24t-56.5 7.5l5 20q16 -1 39.5 -2t49.5 -1q47 0 81 3l224 -436l-3.5 -20t-9.5 -51.5t-12 -67t-12 -67t-9.5 -51.5l-3.5 -20h-22zM851 737q-25 0 -47 -16t-38 -39q-46 -68 -94 -239t-107 -448l-14 28
q15 67 32 144.5t36.5 155.5t40 149t43 127.5t45.5 90.5q19 27 45 45.5t63 18.5q53 0 85 -31t32 -76q0 -48 -32.5 -76.5t-79.5 -28.5q-40 0 -64.5 19.5t-24.5 54.5q0 45 30 75.5t74 37.5q-4 4 -10.5 6t-14.5 2zM37 -57q28 0 49 15.5t37 40.5q29 46 58.5 144t60 237t61.5 305
l17 -21q-16 -82 -33.5 -166.5t-35.5 -165t-37 -149.5t-38 -119.5t-37 -74.5t-42.5 -43.5t-64.5 -19.5q-53 0 -85 31t-32 76q0 48 33 76.5t79 28.5q41 0 65 -19.5t24 -54.5q0 -45 -30 -75t-74 -38q4 -4 10.5 -6t14.5 -2zM537 759l-12 7q17 51 25.5 86.5t16 61t18.5 43.5
q10 16 27 26t36 10q25 0 45 -17t20 -42q0 -13 -6 -27t-15 -26q-13 -16 -34.5 -31.5t-51.5 -36t-69 -54.5z" />
    <glyph glyph-name="Oacute.loclPLK" horiz-adv-x="809" 
d="M502 704q-39 0 -76 -27.5t-69 -76t-56 -111t-37.5 -133.5t-13.5 -143q0 -98 25 -153.5t63 -55.5q39 0 76 27.5t69 76t56 111t37.5 133.5t13.5 143q0 98 -25 153.5t-63 55.5zM34 226q0 66 22 136t63 134t99.5 115t132.5 81t160 30q138 0 217 -62.5t79 -178.5
q0 -66 -22 -135.5t-63.5 -133.5t-100.5 -115t-132.5 -81t-159.5 -30q-138 0 -216.5 62.5t-78.5 177.5zM511 759l-12 7q17 51 25.5 86.5t16 61t18.5 43.5q10 16 27 26t36 10q25 0 45 -17t20 -42q0 -13 -6 -27t-15 -26q-13 -16 -34.5 -31.5t-51.5 -36t-69 -54.5z" />
    <glyph glyph-name="Sacute.loclPLK" horiz-adv-x="609" 
d="M649 715q-10 -26 -27 -75.5t-32 -128.5h-20q3 14 4.5 29t1.5 26q0 41 -17.5 69.5t-49.5 44t-77 15.5q-43 0 -75.5 -22t-32.5 -75q0 -34 16 -66.5t41.5 -64.5t54 -64.5t54 -66t41.5 -70.5t16 -78q0 -55 -29 -93.5t-74 -62.5t-95 -35t-93 -11q-52 0 -85 5t-57 15.5
t-52 25.5q-10 6 -19 10.5t-15 4.5q-13 0 -21 -11t-22 -43h-20q9 22 19 51t22 74.5t27 114.5h20q-5 -15 -7.5 -37.5t-1.5 -40.5q3 -73 46 -109.5t117 -36.5q70 0 93.5 26.5t23.5 65.5q0 42 -14.5 78.5t-37.5 69t-48.5 64t-48.5 63.5t-37.5 67.5t-14.5 75.5q0 53 24.5 91
t64.5 63t86 37t88 12q71 0 113 -17.5t64 -28.5l18 -9t15 -5q14 0 33 53h20zM412 759l-12 7q17 51 25.5 86.5t16 61t18.5 43.5q10 16 27 26t36 10q25 0 45 -17t20 -42q0 -13 -6 -27t-15 -26q-13 -16 -34.5 -31.5t-51.5 -36t-69 -54.5z" />
    <glyph glyph-name="Zacute.loclPLK" horiz-adv-x="662" 
d="M164 346l7 20h353l-8 -20h-352zM452 216l2 9.5l2 9.5q36 -5 69.5 -18.5t55 -37t21.5 -60.5q0 -58 -43.5 -95.5t-117.5 -37.5q-47 0 -83 11.5t-68 27t-67 27t-81 11.5q-21 0 -39.5 -4t-38.5 -11q-22 -32 -48 -49t-40 -4q-12 11 2 33t67 42l580 570q-51 -52 -107.5 -83
t-115.5 -31q-39 0 -68.5 5.5t-53 12.5t-43 12.5t-38.5 5.5q-13 0 -21 -5t-8 -18q0 -14 16 -26.5t57 -20.5l-2.5 -9.5l-2.5 -9.5q-35 6 -69 19t-55.5 37t-21.5 60q0 58 43.5 95.5t117.5 37.5q47 0 83 -11.5t68 -27t67 -27t81 -11.5q21 0 39.5 4t38.5 11q23 32 48 49t40 4
q12 -10 -2 -32.5t-67 -42.5l-580 -570q51 52 108 83t116 31q39 0 68.5 -5.5t53 -12.5t43 -12.5t38.5 -5.5q13 0 21 5t8 18q0 14 -16 26.5t-57 20.5zM433 759l-12 7q17 51 25.5 86.5t16 61t18.5 43.5q10 16 27 26t36 10q25 0 45 -17t20 -42q0 -13 -6 -27t-15 -26
q-13 -16 -34.5 -31.5t-51.5 -36t-69 -54.5z" />
    <glyph glyph-name="a" unicode="a" horiz-adv-x="582" 
d="M204 54q10 0 21 8t23 27.5t26 54.5t30 90l-26 -109q-16 -53 -40.5 -83.5t-55 -43t-65.5 -12.5q-63 0 -93.5 32.5t-30.5 92.5q0 58 19.5 118t53 114.5t75 97t86.5 67.5t87 25q32 0 49.5 -20t12.5 -71l-11 -6q5 25 0 36.5t-17 11.5q-17 0 -38.5 -21.5t-44 -59t-42 -86
t-31 -102.5t-11.5 -108q0 -28 5 -40.5t18 -12.5zM389 518q55 1 97.5 4.5t83.5 10.5l-135 -448q-5 -16 -4.5 -25.5t5 -13t11.5 -3.5q9 0 23 10.5t30 52.5l21 56h19l-25 -73q-14 -42 -37.5 -64t-51 -30.5t-54.5 -8.5q-61 0 -87 35q-15 21 -16.5 55t12.5 82z" />
    <glyph glyph-name="aacute" unicode="&#xe1;" horiz-adv-x="582" 
d="M204 54q10 0 21 8t23 27.5t26 54.5t30 90l-26 -109q-16 -53 -40.5 -83.5t-55 -43t-65.5 -12.5q-63 0 -93.5 32.5t-30.5 92.5q0 58 19.5 118t53 114.5t75 97t86.5 67.5t87 25q32 0 49.5 -20t12.5 -71l-11 -6q5 25 0 36.5t-17 11.5q-17 0 -38.5 -21.5t-44 -59t-42 -86
t-31 -102.5t-11.5 -108q0 -28 5 -40.5t18 -12.5zM389 518q55 1 97.5 4.5t83.5 10.5l-135 -448q-5 -16 -4.5 -25.5t5 -13t11.5 -3.5q9 0 23 10.5t30 52.5l21 56h19l-25 -73q-14 -42 -37.5 -64t-51 -30.5t-54.5 -8.5q-61 0 -87 35q-15 21 -16.5 55t12.5 82zM328 609
q34 54 53.5 94.5t35.5 71t39 53.5q20 20 52.5 27.5t57.5 -18.5q23 -22 16 -49t-32 -52q-21 -21 -51 -39t-70 -40.5t-91 -57.5z" />
    <glyph glyph-name="abreve" unicode="&#x103;" horiz-adv-x="582" 
d="M204 54q10 0 21 8t23 27.5t26 54.5t30 90l-26 -109q-16 -53 -40.5 -83.5t-55 -43t-65.5 -12.5q-63 0 -93.5 32.5t-30.5 92.5q0 58 19.5 118t53 114.5t75 97t86.5 67.5t87 25q32 0 49.5 -20t12.5 -71l-11 -6q5 25 0 36.5t-17 11.5q-17 0 -38.5 -21.5t-44 -59t-42 -86
t-31 -102.5t-11.5 -108q0 -28 5 -40.5t18 -12.5zM389 518q55 1 97.5 4.5t83.5 10.5l-135 -448q-5 -16 -4.5 -25.5t5 -13t11.5 -3.5q9 0 23 10.5t30 52.5l21 56h19l-25 -73q-14 -42 -37.5 -64t-51 -30.5t-54.5 -8.5q-61 0 -87 35q-15 21 -16.5 55t12.5 82zM408 732
q57 0 107 14t93 42l12 -9q-23 -43 -59.5 -81t-82 -61.5t-94.5 -23.5q-37 0 -62.5 22t-40.5 59t-21 82l15 8q23 -26 52 -39t81 -13z" />
    <glyph glyph-name="uni1EAF" unicode="&#x1eaf;" horiz-adv-x="582" 
d="M204 54q10 0 21 8t23 27.5t26 54.5t30 90l-26 -109q-16 -53 -40.5 -83.5t-55 -43t-65.5 -12.5q-63 0 -93.5 32.5t-30.5 92.5q0 58 19.5 118t53 114.5t75 97t86.5 67.5t87 25q32 0 49.5 -20t12.5 -71l-11 -6q5 25 0 36.5t-17 11.5q-17 0 -38.5 -21.5t-44 -59t-42 -86
t-31 -102.5t-11.5 -108q0 -28 5 -40.5t18 -12.5zM389 518q55 1 97.5 4.5t83.5 10.5l-135 -448q-5 -16 -4.5 -25.5t5 -13t11.5 -3.5q9 0 23 10.5t30 52.5l21 56h19l-25 -73q-14 -42 -37.5 -64t-51 -30.5t-54.5 -8.5q-61 0 -87 35q-15 21 -16.5 55t12.5 82zM408 732
q57 0 107 14t93 42l12 -9q-23 -43 -59.5 -81t-82 -61.5t-94.5 -23.5q-37 0 -62.5 22t-40.5 59t-21 82l15 8q23 -26 52 -39t81 -13zM382 822q34 54 53.5 94.5t35.5 71t39 53.5q20 20 52.5 27.5t57.5 -18.5q23 -22 16 -49t-32 -52q-21 -21 -51 -39t-70 -40.5t-91 -57.5z" />
    <glyph glyph-name="uni1EB7" unicode="&#x1eb7;" horiz-adv-x="582" 
d="M204 54q10 0 21 8t23 27.5t26 54.5t30 90l-26 -109q-16 -53 -40.5 -83.5t-55 -43t-65.5 -12.5q-63 0 -93.5 32.5t-30.5 92.5q0 58 19.5 118t53 114.5t75 97t86.5 67.5t87 25q32 0 49.5 -20t12.5 -71l-11 -6q5 25 0 36.5t-17 11.5q-17 0 -38.5 -21.5t-44 -59t-42 -86
t-31 -102.5t-11.5 -108q0 -28 5 -40.5t18 -12.5zM389 518q55 1 97.5 4.5t83.5 10.5l-135 -448q-5 -16 -4.5 -25.5t5 -13t11.5 -3.5q9 0 23 10.5t30 52.5l21 56h19l-25 -73q-14 -42 -37.5 -64t-51 -30.5t-54.5 -8.5q-61 0 -87 35q-15 21 -16.5 55t12.5 82zM408 732
q57 0 107 14t93 42l12 -9q-23 -43 -59.5 -81t-82 -61.5t-94.5 -23.5q-37 0 -62.5 22t-40.5 59t-21 82l15 8q23 -26 52 -39t81 -13zM195 -191q-36 0 -55 14t-19 42q0 43 27 66.5t74 23.5q36 0 55 -14t19 -42q0 -43 -27 -66.5t-74 -23.5z" />
    <glyph glyph-name="uni1EB1" unicode="&#x1eb1;" horiz-adv-x="582" 
d="M204 54q10 0 21 8t23 27.5t26 54.5t30 90l-26 -109q-16 -53 -40.5 -83.5t-55 -43t-65.5 -12.5q-63 0 -93.5 32.5t-30.5 92.5q0 58 19.5 118t53 114.5t75 97t86.5 67.5t87 25q32 0 49.5 -20t12.5 -71l-11 -6q5 25 0 36.5t-17 11.5q-17 0 -38.5 -21.5t-44 -59t-42 -86
t-31 -102.5t-11.5 -108q0 -28 5 -40.5t18 -12.5zM389 518q55 1 97.5 4.5t83.5 10.5l-135 -448q-5 -16 -4.5 -25.5t5 -13t11.5 -3.5q9 0 23 10.5t30 52.5l21 56h19l-25 -73q-14 -42 -37.5 -64t-51 -30.5t-54.5 -8.5q-61 0 -87 35q-15 21 -16.5 55t12.5 82zM408 732
q57 0 107 14t93 42l12 -9q-23 -43 -59.5 -81t-82 -61.5t-94.5 -23.5q-37 0 -62.5 22t-40.5 59t-21 82l15 8q23 -26 52 -39t81 -13zM441 812q-40 46 -70 72t-50.5 43.5t-33.5 39.5q-14 23 -9.5 49.5t26.5 40.5q26 17 54.5 7t41.5 -30q15 -22 19 -49t9.5 -66t24.5 -100z" />
    <glyph glyph-name="uni1EB3" unicode="&#x1eb3;" horiz-adv-x="582" 
d="M204 54q10 0 21 8t23 27.5t26 54.5t30 90l-26 -109q-16 -53 -40.5 -83.5t-55 -43t-65.5 -12.5q-63 0 -93.5 32.5t-30.5 92.5q0 58 19.5 118t53 114.5t75 97t86.5 67.5t87 25q32 0 49.5 -20t12.5 -71l-11 -6q5 25 0 36.5t-17 11.5q-17 0 -38.5 -21.5t-44 -59t-42 -86
t-31 -102.5t-11.5 -108q0 -28 5 -40.5t18 -12.5zM389 518q55 1 97.5 4.5t83.5 10.5l-135 -448q-5 -16 -4.5 -25.5t5 -13t11.5 -3.5q9 0 23 10.5t30 52.5l21 56h19l-25 -73q-14 -42 -37.5 -64t-51 -30.5t-54.5 -8.5q-61 0 -87 35q-15 21 -16.5 55t12.5 82zM408 732
q57 0 107 14t93 42l12 -9q-23 -43 -59.5 -81t-82 -61.5t-94.5 -23.5q-37 0 -62.5 22t-40.5 59t-21 82l15 8q23 -26 52 -39t81 -13zM422 813q5 31 19 48.5t29.5 30t26.5 29t11 46.5q0 35 -17 49.5t-46 14.5q-16 0 -28 -3t-17 -6q19 -7 30.5 -21t11.5 -35q0 -28 -20.5 -45
t-48.5 -17q-25 0 -40 14t-15 37q0 25 17.5 43t42.5 30q24 11 52.5 17t61.5 6q56 0 90.5 -18.5t34.5 -59.5q0 -29 -16 -45t-40.5 -25.5t-50 -19t-44.5 -25.5t-24 -45h-20z" />
    <glyph glyph-name="uni1EB5" unicode="&#x1eb5;" horiz-adv-x="582" 
d="M204 54q10 0 21 8t23 27.5t26 54.5t30 90l-26 -109q-16 -53 -40.5 -83.5t-55 -43t-65.5 -12.5q-63 0 -93.5 32.5t-30.5 92.5q0 58 19.5 118t53 114.5t75 97t86.5 67.5t87 25q32 0 49.5 -20t12.5 -71l-11 -6q5 25 0 36.5t-17 11.5q-17 0 -38.5 -21.5t-44 -59t-42 -86
t-31 -102.5t-11.5 -108q0 -28 5 -40.5t18 -12.5zM389 518q55 1 97.5 4.5t83.5 10.5l-135 -448q-5 -16 -4.5 -25.5t5 -13t11.5 -3.5q9 0 23 10.5t30 52.5l21 56h19l-25 -73q-14 -42 -37.5 -64t-51 -30.5t-54.5 -8.5q-61 0 -87 35q-15 21 -16.5 55t12.5 82zM408 732
q57 0 107 14t93 42l12 -9q-23 -43 -59.5 -81t-82 -61.5t-94.5 -23.5q-37 0 -62.5 22t-40.5 59t-21 82l15 8q23 -26 52 -39t81 -13zM427 1011q30 0 49.5 -11t34.5 -25.5t30.5 -25.5t36.5 -11q20 0 37.5 13.5t34.5 44.5l18 -5q-29 -87 -76 -125t-94 -38q-30 0 -49.5 11
t-34.5 25.5t-30.5 25.5t-36.5 11q-20 0 -37.5 -13t-34.5 -45l-18 5q29 87 76 125t94 38z" />
    <glyph glyph-name="uni01CE" unicode="&#x1ce;" horiz-adv-x="582" 
d="M204 54q10 0 21 8t23 27.5t26 54.5t30 90l-26 -109q-16 -53 -40.5 -83.5t-55 -43t-65.5 -12.5q-63 0 -93.5 32.5t-30.5 92.5q0 58 19.5 118t53 114.5t75 97t86.5 67.5t87 25q32 0 49.5 -20t12.5 -71l-11 -6q5 25 0 36.5t-17 11.5q-17 0 -38.5 -21.5t-44 -59t-42 -86
t-31 -102.5t-11.5 -108q0 -28 5 -40.5t18 -12.5zM389 518q55 1 97.5 4.5t83.5 10.5l-135 -448q-5 -16 -4.5 -25.5t5 -13t11.5 -3.5q9 0 23 10.5t30 52.5l21 56h19l-25 -73q-14 -42 -37.5 -64t-51 -30.5t-54.5 -8.5q-61 0 -87 35q-15 21 -16.5 55t12.5 82zM453 778
q38 16 85.5 30t99.5 24l5 -14q-79 -34 -146.5 -92t-108.5 -120h-18q-16 74 -42.5 124t-76.5 88l4 14q68 -12 113 -24.5t85 -29.5z" />
    <glyph glyph-name="acircumflex" unicode="&#xe2;" horiz-adv-x="582" 
d="M204 54q10 0 21 8t23 27.5t26 54.5t30 90l-26 -109q-16 -53 -40.5 -83.5t-55 -43t-65.5 -12.5q-63 0 -93.5 32.5t-30.5 92.5q0 58 19.5 118t53 114.5t75 97t86.5 67.5t87 25q32 0 49.5 -20t12.5 -71l-11 -6q5 25 0 36.5t-17 11.5q-17 0 -38.5 -21.5t-44 -59t-42 -86
t-31 -102.5t-11.5 -108q0 -28 5 -40.5t18 -12.5zM389 518q55 1 97.5 4.5t83.5 10.5l-135 -448q-5 -16 -4.5 -25.5t5 -13t11.5 -3.5q9 0 23 10.5t30 52.5l21 56h19l-25 -73q-14 -42 -37.5 -64t-51 -30.5t-54.5 -8.5q-61 0 -87 35q-15 21 -16.5 55t12.5 82zM370 660
q-37 -16 -85 -29.5t-100 -24.5l-5 14q79 35 146.5 92.5t108.5 119.5h18q16 -73 42.5 -123.5t76.5 -88.5l-4 -14q-67 12 -112.5 25t-85.5 29z" />
    <glyph glyph-name="uni1EA5" unicode="&#x1ea5;" horiz-adv-x="582" 
d="M204 54q10 0 21 8t23 27.5t26 54.5t30 90l-26 -109q-16 -53 -40.5 -83.5t-55 -43t-65.5 -12.5q-63 0 -93.5 32.5t-30.5 92.5q0 58 19.5 118t53 114.5t75 97t86.5 67.5t87 25q32 0 49.5 -20t12.5 -71l-11 -6q5 25 0 36.5t-17 11.5q-17 0 -38.5 -21.5t-44 -59t-42 -86
t-31 -102.5t-11.5 -108q0 -28 5 -40.5t18 -12.5zM389 518q55 1 97.5 4.5t83.5 10.5l-135 -448q-5 -16 -4.5 -25.5t5 -13t11.5 -3.5q9 0 23 10.5t30 52.5l21 56h19l-25 -73q-14 -42 -37.5 -64t-51 -30.5t-54.5 -8.5q-61 0 -87 35q-15 21 -16.5 55t12.5 82zM370 660
q-37 -16 -85 -29.5t-100 -24.5l-5 14q79 35 146.5 92.5t108.5 119.5h18q16 -73 42.5 -123.5t76.5 -88.5l-4 -14q-67 12 -112.5 25t-85.5 29zM388 848q34 54 53.5 94.5t35.5 71t39 53.5q20 20 52.5 27.5t57.5 -18.5q23 -22 16 -49t-32 -52q-21 -21 -51 -39t-70 -40.5
t-91 -57.5z" />
    <glyph glyph-name="uni1EAD" unicode="&#x1ead;" horiz-adv-x="582" 
d="M204 54q10 0 21 8t23 27.5t26 54.5t30 90l-26 -109q-16 -53 -40.5 -83.5t-55 -43t-65.5 -12.5q-63 0 -93.5 32.5t-30.5 92.5q0 58 19.5 118t53 114.5t75 97t86.5 67.5t87 25q32 0 49.5 -20t12.5 -71l-11 -6q5 25 0 36.5t-17 11.5q-17 0 -38.5 -21.5t-44 -59t-42 -86
t-31 -102.5t-11.5 -108q0 -28 5 -40.5t18 -12.5zM389 518q55 1 97.5 4.5t83.5 10.5l-135 -448q-5 -16 -4.5 -25.5t5 -13t11.5 -3.5q9 0 23 10.5t30 52.5l21 56h19l-25 -73q-14 -42 -37.5 -64t-51 -30.5t-54.5 -8.5q-61 0 -87 35q-15 21 -16.5 55t12.5 82zM370 660
q-37 -16 -85 -29.5t-100 -24.5l-5 14q79 35 146.5 92.5t108.5 119.5h18q16 -73 42.5 -123.5t76.5 -88.5l-4 -14q-67 12 -112.5 25t-85.5 29zM195 -191q-36 0 -55 14t-19 42q0 43 27 66.5t74 23.5q36 0 55 -14t19 -42q0 -43 -27 -66.5t-74 -23.5z" />
    <glyph glyph-name="uni1EA7" unicode="&#x1ea7;" horiz-adv-x="582" 
d="M204 54q10 0 21 8t23 27.5t26 54.5t30 90l-26 -109q-16 -53 -40.5 -83.5t-55 -43t-65.5 -12.5q-63 0 -93.5 32.5t-30.5 92.5q0 58 19.5 118t53 114.5t75 97t86.5 67.5t87 25q32 0 49.5 -20t12.5 -71l-11 -6q5 25 0 36.5t-17 11.5q-17 0 -38.5 -21.5t-44 -59t-42 -86
t-31 -102.5t-11.5 -108q0 -28 5 -40.5t18 -12.5zM389 518q55 1 97.5 4.5t83.5 10.5l-135 -448q-5 -16 -4.5 -25.5t5 -13t11.5 -3.5q9 0 23 10.5t30 52.5l21 56h19l-25 -73q-14 -42 -37.5 -64t-51 -30.5t-54.5 -8.5q-61 0 -87 35q-15 21 -16.5 55t12.5 82zM370 660
q-37 -16 -85 -29.5t-100 -24.5l-5 14q79 35 146.5 92.5t108.5 119.5h18q16 -73 42.5 -123.5t76.5 -88.5l-4 -14q-67 12 -112.5 25t-85.5 29zM447 838q-40 46 -70 72t-50.5 43.5t-33.5 39.5q-14 23 -9.5 49.5t26.5 40.5q26 17 54.5 7t41.5 -30q15 -22 19 -49t9.5 -66
t24.5 -100z" />
    <glyph glyph-name="uni1EA9" unicode="&#x1ea9;" horiz-adv-x="582" 
d="M204 54q10 0 21 8t23 27.5t26 54.5t30 90l-26 -109q-16 -53 -40.5 -83.5t-55 -43t-65.5 -12.5q-63 0 -93.5 32.5t-30.5 92.5q0 58 19.5 118t53 114.5t75 97t86.5 67.5t87 25q32 0 49.5 -20t12.5 -71l-11 -6q5 25 0 36.5t-17 11.5q-17 0 -38.5 -21.5t-44 -59t-42 -86
t-31 -102.5t-11.5 -108q0 -28 5 -40.5t18 -12.5zM389 518q55 1 97.5 4.5t83.5 10.5l-135 -448q-5 -16 -4.5 -25.5t5 -13t11.5 -3.5q9 0 23 10.5t30 52.5l21 56h19l-25 -73q-14 -42 -37.5 -64t-51 -30.5t-54.5 -8.5q-61 0 -87 35q-15 21 -16.5 55t12.5 82zM370 660
q-37 -16 -85 -29.5t-100 -24.5l-5 14q79 35 146.5 92.5t108.5 119.5h18q16 -73 42.5 -123.5t76.5 -88.5l-4 -14q-67 12 -112.5 25t-85.5 29zM543 809q5 31 19 48.5t29.5 30t26.5 29t11 46.5q0 35 -17 49.5t-46 14.5q-16 0 -28 -3t-17 -6q19 -7 30.5 -21t11.5 -35
q0 -28 -20.5 -45t-48.5 -17q-25 0 -40 14t-15 37q0 25 17.5 43t42.5 30q24 11 52.5 17t61.5 6q56 0 90.5 -18.5t34.5 -59.5q0 -29 -16 -45t-40.5 -25.5t-50 -19t-44.5 -25.5t-24 -45h-20z" />
    <glyph glyph-name="uni1EAB" unicode="&#x1eab;" horiz-adv-x="582" 
d="M204 54q10 0 21 8t23 27.5t26 54.5t30 90l-26 -109q-16 -53 -40.5 -83.5t-55 -43t-65.5 -12.5q-63 0 -93.5 32.5t-30.5 92.5q0 58 19.5 118t53 114.5t75 97t86.5 67.5t87 25q32 0 49.5 -20t12.5 -71l-11 -6q5 25 0 36.5t-17 11.5q-17 0 -38.5 -21.5t-44 -59t-42 -86
t-31 -102.5t-11.5 -108q0 -28 5 -40.5t18 -12.5zM389 518q55 1 97.5 4.5t83.5 10.5l-135 -448q-5 -16 -4.5 -25.5t5 -13t11.5 -3.5q9 0 23 10.5t30 52.5l21 56h19l-25 -73q-14 -42 -37.5 -64t-51 -30.5t-54.5 -8.5q-61 0 -87 35q-15 21 -16.5 55t12.5 82zM370 660
q-37 -16 -85 -29.5t-100 -24.5l-5 14q79 35 146.5 92.5t108.5 119.5h18q16 -73 42.5 -123.5t76.5 -88.5l-4 -14q-67 12 -112.5 25t-85.5 29zM433 1037q30 0 49.5 -11t34.5 -25.5t30.5 -25.5t36.5 -11q20 0 37.5 13.5t34.5 44.5l18 -5q-29 -87 -76 -125t-94 -38
q-30 0 -49.5 11t-34.5 25.5t-30.5 25.5t-36.5 11q-20 0 -37.5 -13t-34.5 -45l-18 5q29 87 76 125t94 38z" />
    <glyph glyph-name="adieresis" unicode="&#xe4;" horiz-adv-x="582" 
d="M204 54q10 0 21 8t23 27.5t26 54.5t30 90l-26 -109q-16 -53 -40.5 -83.5t-55 -43t-65.5 -12.5q-63 0 -93.5 32.5t-30.5 92.5q0 58 19.5 118t53 114.5t75 97t86.5 67.5t87 25q32 0 49.5 -20t12.5 -71l-11 -6q5 25 0 36.5t-17 11.5q-17 0 -38.5 -21.5t-44 -59t-42 -86
t-31 -102.5t-11.5 -108q0 -28 5 -40.5t18 -12.5zM389 518q55 1 97.5 4.5t83.5 10.5l-135 -448q-5 -16 -4.5 -25.5t5 -13t11.5 -3.5q9 0 23 10.5t30 52.5l21 56h19l-25 -73q-14 -42 -37.5 -64t-51 -30.5t-54.5 -8.5q-61 0 -87 35q-15 21 -16.5 55t12.5 82zM202 674
q0 52 30.5 75t68.5 23q40 0 57.5 -21.5t17.5 -56.5q0 -34 -15 -55.5t-37.5 -31t-47.5 -9.5q-40 0 -57 21t-17 55zM440 674q0 52 30.5 75t68.5 23q40 0 57.5 -21.5t17.5 -56.5q0 -34 -15 -55.5t-37.5 -31t-47.5 -9.5q-40 0 -57 21t-17 55z" />
    <glyph glyph-name="uni1EA1" unicode="&#x1ea1;" horiz-adv-x="582" 
d="M204 54q10 0 21 8t23 27.5t26 54.5t30 90l-26 -109q-16 -53 -40.5 -83.5t-55 -43t-65.5 -12.5q-63 0 -93.5 32.5t-30.5 92.5q0 58 19.5 118t53 114.5t75 97t86.5 67.5t87 25q32 0 49.5 -20t12.5 -71l-11 -6q5 25 0 36.5t-17 11.5q-17 0 -38.5 -21.5t-44 -59t-42 -86
t-31 -102.5t-11.5 -108q0 -28 5 -40.5t18 -12.5zM389 518q55 1 97.5 4.5t83.5 10.5l-135 -448q-5 -16 -4.5 -25.5t5 -13t11.5 -3.5q9 0 23 10.5t30 52.5l21 56h19l-25 -73q-14 -42 -37.5 -64t-51 -30.5t-54.5 -8.5q-61 0 -87 35q-15 21 -16.5 55t12.5 82zM195 -191
q-36 0 -55 14t-19 42q0 43 27 66.5t74 23.5q36 0 55 -14t19 -42q0 -43 -27 -66.5t-74 -23.5z" />
    <glyph glyph-name="agrave" unicode="&#xe0;" horiz-adv-x="582" 
d="M204 54q10 0 21 8t23 27.5t26 54.5t30 90l-26 -109q-16 -53 -40.5 -83.5t-55 -43t-65.5 -12.5q-63 0 -93.5 32.5t-30.5 92.5q0 58 19.5 118t53 114.5t75 97t86.5 67.5t87 25q32 0 49.5 -20t12.5 -71l-11 -6q5 25 0 36.5t-17 11.5q-17 0 -38.5 -21.5t-44 -59t-42 -86
t-31 -102.5t-11.5 -108q0 -28 5 -40.5t18 -12.5zM389 518q55 1 97.5 4.5t83.5 10.5l-135 -448q-5 -16 -4.5 -25.5t5 -13t11.5 -3.5q9 0 23 10.5t30 52.5l21 56h19l-25 -73q-14 -42 -37.5 -64t-51 -30.5t-54.5 -8.5q-61 0 -87 35q-15 21 -16.5 55t12.5 82zM387 599
q-40 46 -70 72t-50.5 43.5t-33.5 39.5q-14 23 -9.5 49.5t26.5 40.5q26 17 54.5 7t41.5 -30q15 -22 19 -49t9.5 -66t24.5 -100z" />
    <glyph glyph-name="uni1EA3" unicode="&#x1ea3;" horiz-adv-x="582" 
d="M204 54q10 0 21 8t23 27.5t26 54.5t30 90l-26 -109q-16 -53 -40.5 -83.5t-55 -43t-65.5 -12.5q-63 0 -93.5 32.5t-30.5 92.5q0 58 19.5 118t53 114.5t75 97t86.5 67.5t87 25q32 0 49.5 -20t12.5 -71l-11 -6q5 25 0 36.5t-17 11.5q-17 0 -38.5 -21.5t-44 -59t-42 -86
t-31 -102.5t-11.5 -108q0 -28 5 -40.5t18 -12.5zM389 518q55 1 97.5 4.5t83.5 10.5l-135 -448q-5 -16 -4.5 -25.5t5 -13t11.5 -3.5q9 0 23 10.5t30 52.5l21 56h19l-25 -73q-14 -42 -37.5 -64t-51 -30.5t-54.5 -8.5q-61 0 -87 35q-15 21 -16.5 55t12.5 82zM368 600
q5 31 19 48.5t29.5 30t26.5 29t11 46.5q0 35 -17 49.5t-46 14.5q-16 0 -28 -3t-17 -6q19 -7 30.5 -21t11.5 -35q0 -28 -20.5 -45t-48.5 -17q-25 0 -40 14t-15 37q0 25 17.5 43t42.5 30q24 11 52.5 17t61.5 6q56 0 90.5 -18.5t34.5 -59.5q0 -29 -16 -45t-40.5 -25.5t-50 -19
t-44.5 -25.5t-24 -45h-20z" />
    <glyph glyph-name="amacron" unicode="&#x101;" horiz-adv-x="582" 
d="M204 54q10 0 21 8t23 27.5t26 54.5t30 90l-26 -109q-16 -53 -40.5 -83.5t-55 -43t-65.5 -12.5q-63 0 -93.5 32.5t-30.5 92.5q0 58 19.5 118t53 114.5t75 97t86.5 67.5t87 25q32 0 49.5 -20t12.5 -71l-11 -6q5 25 0 36.5t-17 11.5q-17 0 -38.5 -21.5t-44 -59t-42 -86
t-31 -102.5t-11.5 -108q0 -28 5 -40.5t18 -12.5zM389 518q55 1 97.5 4.5t83.5 10.5l-135 -448q-5 -16 -4.5 -25.5t5 -13t11.5 -3.5q9 0 23 10.5t30 52.5l21 56h19l-25 -73q-14 -42 -37.5 -64t-51 -30.5t-54.5 -8.5q-61 0 -87 35q-15 21 -16.5 55t12.5 82zM585 712l-6 -25
h-352l6 25h352z" />
    <glyph glyph-name="aogonek" unicode="&#x105;" horiz-adv-x="582" 
d="M204 54q10 0 21 8t23 27.5t26 54.5t30 90l-26 -109q-16 -53 -40.5 -83.5t-55 -43t-65.5 -12.5q-63 0 -93.5 32.5t-30.5 92.5q0 58 19.5 118t53 114.5t75 97t86.5 67.5t87 25q32 0 49.5 -20t12.5 -71l-11 -6q5 25 0 36.5t-17 11.5q-17 0 -38.5 -21.5t-44 -59t-42 -86
t-31 -102.5t-11.5 -108q0 -28 5 -40.5t18 -12.5zM389 518q55 1 97.5 4.5t83.5 10.5l-135 -448q-5 -16 -4.5 -25.5t5 -13t11.5 -3.5q9 0 23 10.5t30 52.5l21 56h19l-25 -73q-14 -42 -37.5 -64t-51 -30.5t-54.5 -8.5q-61 0 -87 35q-15 21 -16.5 55t12.5 82zM446 3
q-33 -13 -54.5 -33t-32 -41.5t-10.5 -41.5q0 -24 23 -24q14 0 30 9t29 21l15 -13q-29 -35 -66 -51.5t-77 -16.5q-41 0 -66 16t-25 45q0 31 30.5 56t80 43.5t105.5 30.5h18z" />
    <glyph glyph-name="aring" unicode="&#xe5;" horiz-adv-x="582" 
d="M204 54q10 0 21 8t23 27.5t26 54.5t30 90l-26 -109q-16 -53 -40.5 -83.5t-55 -43t-65.5 -12.5q-63 0 -93.5 32.5t-30.5 92.5q0 58 19.5 118t53 114.5t75 97t86.5 67.5t87 25q32 0 49.5 -20t12.5 -71l-11 -6q5 25 0 36.5t-17 11.5q-17 0 -38.5 -21.5t-44 -59t-42 -86
t-31 -102.5t-11.5 -108q0 -28 5 -40.5t18 -12.5zM389 518q55 1 97.5 4.5t83.5 10.5l-135 -448q-5 -16 -4.5 -25.5t5 -13t11.5 -3.5q9 0 23 10.5t30 52.5l21 56h19l-25 -73q-14 -42 -37.5 -64t-51 -30.5t-54.5 -8.5q-61 0 -87 35q-15 21 -16.5 55t12.5 82zM425 801
q45 0 75.5 -24t30.5 -65q0 -31 -18.5 -57t-49 -41.5t-65.5 -15.5q-43 0 -72.5 24t-29.5 66q0 32 17 57.5t46.5 40.5t65.5 15zM403 619q26 0 49.5 12t38 33t14.5 46q0 36 -27 53t-56 17q-40 0 -69.5 -28t-29.5 -64q0 -34 25 -51.5t55 -17.5z" />
    <glyph glyph-name="atilde" unicode="&#xe3;" horiz-adv-x="582" 
d="M204 54q10 0 21 8t23 27.5t26 54.5t30 90l-26 -109q-16 -53 -40.5 -83.5t-55 -43t-65.5 -12.5q-63 0 -93.5 32.5t-30.5 92.5q0 58 19.5 118t53 114.5t75 97t86.5 67.5t87 25q32 0 49.5 -20t12.5 -71l-11 -6q5 25 0 36.5t-17 11.5q-17 0 -38.5 -21.5t-44 -59t-42 -86
t-31 -102.5t-11.5 -108q0 -28 5 -40.5t18 -12.5zM389 518q55 1 97.5 4.5t83.5 10.5l-135 -448q-5 -16 -4.5 -25.5t5 -13t11.5 -3.5q9 0 23 10.5t30 52.5l21 56h19l-25 -73q-14 -42 -37.5 -64t-51 -30.5t-54.5 -8.5q-61 0 -87 35q-15 21 -16.5 55t12.5 82zM373 798
q30 0 49.5 -11t34.5 -25.5t30.5 -25.5t36.5 -11q20 0 37.5 13.5t34.5 44.5l18 -5q-29 -87 -76 -125t-94 -38q-30 0 -49.5 11t-34.5 25.5t-30.5 25.5t-36.5 11q-20 0 -37.5 -13t-34.5 -45l-18 5q29 87 76 125t94 38z" />
    <glyph glyph-name="ae" unicode="&#xe6;" horiz-adv-x="785" 
d="M451 210q29 14 61 30.5t57 38.5q44 40 68.5 94t24.5 116q0 25 -16 25q-20 0 -43.5 -22.5t-46.5 -60t-41.5 -84.5t-30 -96.5t-11.5 -95.5q0 -58 23 -77.5t60 -19.5q20 0 60 15t80 55l16 -8q-22 -33 -58 -64t-85 -50.5t-110 -19.5q-47 0 -86.5 16t-63 47.5t-23.5 77.5
q0 59 18.5 117t52.5 110t81.5 92.5t105.5 63.5t124 23q53 0 88.5 -21.5t35.5 -66.5q0 -38 -20 -71.5t-55 -61t-79 -49.5t-92.5 -38t-95.5 -25zM225 54q13 0 24 3.5t23.5 12.5t26.5 24l4 -16q-35 -46 -86.5 -69t-104.5 -23q-63 0 -93.5 32.5t-30.5 92.5q0 55 24 112t66 109
t96 92.5t114.5 64.5t120.5 24q16 0 33.5 -4t32 -16t19.5 -38l-14 -9q-3 21 -17 29.5t-29 8.5q-32 0 -68 -20t-69.5 -55t-61 -81.5t-43.5 -100t-16 -110.5q0 -34 15.5 -48.5t33.5 -14.5z" />
    <glyph glyph-name="b" unicode="b" horiz-adv-x="575" 
d="M342 466q-16 0 -33.5 -18t-34.5 -50t-32 -73t-26 -87l19 98q27 69 53.5 112.5t57.5 64t69 20.5q70 0 103.5 -42.5t33.5 -120.5q0 -47 -14 -99.5t-41 -103t-66 -91.5t-89.5 -65.5t-112.5 -24.5q-28 0 -50.5 8t-35.5 19l7 13q8 -3 16 -5t18 -2q27 0 53.5 24.5t49.5 66
t41 92.5t28 104.5t10 102.5q0 35 -6 46t-18 11zM153 7q-39 11 -84.5 1.5t-85.5 -24.5l-15 7q7 14 12.5 28.5t9.5 30.5l184 617q10 34 -2 50t-61 16l7 21q82 1 145.5 11.5t122.5 29.5z" />
    <glyph glyph-name="c" unicode="c" horiz-adv-x="484" 
d="M382 513q-37 0 -72 -31.5t-62 -84t-43 -117t-16 -130.5q0 -54 22 -78t58 -24q29 0 59 17t61 63l20 -8q-21 -33 -52.5 -64t-75 -50.5t-101.5 -19.5q-76 0 -127 38t-51 120q0 52 16.5 106.5t48 105t76.5 90.5t102 63.5t124 23.5q62 0 96 -31t34 -73q0 -32 -16 -62
t-42.5 -49.5t-58.5 -19.5q-26 0 -47 18t-21 52q0 49 31 85t71 48q-7 6 -15 9t-19 3z" />
    <glyph glyph-name="cacute" unicode="&#x107;" horiz-adv-x="484" 
d="M382 513q-37 0 -72 -31.5t-62 -84t-43 -117t-16 -130.5q0 -54 22 -78t58 -24q29 0 59 17t61 63l20 -8q-21 -33 -52.5 -64t-75 -50.5t-101.5 -19.5q-76 0 -127 38t-51 120q0 52 16.5 106.5t48 105t76.5 90.5t102 63.5t124 23.5q62 0 96 -31t34 -73q0 -32 -16 -62
t-42.5 -49.5t-58.5 -19.5q-26 0 -47 18t-21 52q0 49 31 85t71 48q-7 6 -15 9t-19 3zM292 608q34 54 53.5 94.5t35.5 71t39 53.5q20 20 52.5 27.5t57.5 -18.5q23 -22 16 -49t-32 -52q-21 -21 -51 -39t-70 -40.5t-91 -57.5z" />
    <glyph glyph-name="ccaron" unicode="&#x10d;" horiz-adv-x="484" 
d="M382 513q-37 0 -72 -31.5t-62 -84t-43 -117t-16 -130.5q0 -54 22 -78t58 -24q29 0 59 17t61 63l20 -8q-21 -33 -52.5 -64t-75 -50.5t-101.5 -19.5q-76 0 -127 38t-51 120q0 52 16.5 106.5t48 105t76.5 90.5t102 63.5t124 23.5q62 0 96 -31t34 -73q0 -32 -16 -62
t-42.5 -49.5t-58.5 -19.5q-26 0 -47 18t-21 52q0 49 31 85t71 48q-7 6 -15 9t-19 3zM417 777q38 16 85.5 30t99.5 24l5 -14q-79 -34 -146.5 -92t-108.5 -120h-18q-16 74 -42.5 124t-76.5 88l4 14q68 -12 113 -24.5t85 -29.5z" />
    <glyph glyph-name="ccedilla" unicode="&#xe7;" horiz-adv-x="484" 
d="M382 513q-37 0 -72 -31.5t-62 -84t-43 -117t-16 -130.5q0 -54 22 -78t58 -24q29 0 59 17t61 63l20 -8q-21 -33 -52.5 -64t-75 -50.5t-101.5 -19.5q-76 0 -127 38t-51 120q0 52 16.5 106.5t48 105t76.5 90.5t102 63.5t124 23.5q62 0 96 -31t34 -73q0 -32 -16 -62
t-42.5 -49.5t-58.5 -19.5q-26 0 -47 18t-21 52q0 49 31 85t71 48q-7 6 -15 9t-19 3zM197 0l-50 -67q14 5 30.5 8.5t31.5 3.5q29 0 50.5 -10t21.5 -33q0 -33 -28.5 -52.5t-72.5 -28.5t-90 -9q-33 0 -58.5 6.5t-37.5 11.5l6 16l24 -6t37 -4q12 0 31.5 3t35 12t15.5 27
q0 23 -28 23q-5 0 -14 -1.5t-17 -5.5l84 106h29z" />
    <glyph glyph-name="ccircumflex" unicode="&#x109;" horiz-adv-x="484" 
d="M382 513q-37 0 -72 -31.5t-62 -84t-43 -117t-16 -130.5q0 -54 22 -78t58 -24q29 0 59 17t61 63l20 -8q-21 -33 -52.5 -64t-75 -50.5t-101.5 -19.5q-76 0 -127 38t-51 120q0 52 16.5 106.5t48 105t76.5 90.5t102 63.5t124 23.5q62 0 96 -31t34 -73q0 -32 -16 -62
t-42.5 -49.5t-58.5 -19.5q-26 0 -47 18t-21 52q0 49 31 85t71 48q-7 6 -15 9t-19 3zM334 659q-37 -16 -85 -29.5t-100 -24.5l-5 14q79 35 146.5 92.5t108.5 119.5h18q16 -73 42.5 -123.5t76.5 -88.5l-4 -14q-67 12 -112.5 25t-85.5 29z" />
    <glyph glyph-name="cdotaccent" unicode="&#x10b;" horiz-adv-x="484" 
d="M382 513q-37 0 -72 -31.5t-62 -84t-43 -117t-16 -130.5q0 -54 22 -78t58 -24q29 0 59 17t61 63l20 -8q-21 -33 -52.5 -64t-75 -50.5t-101.5 -19.5q-76 0 -127 38t-51 120q0 52 16.5 106.5t48 105t76.5 90.5t102 63.5t124 23.5q62 0 96 -31t34 -73q0 -32 -16 -62
t-42.5 -49.5t-58.5 -19.5q-26 0 -47 18t-21 52q0 49 31 85t71 48q-7 6 -15 9t-19 3zM266 675q0 54 35 80t87 26q44 0 66.5 -17t22.5 -51q0 -47 -35.5 -75.5t-87.5 -28.5q-43 0 -65.5 17t-22.5 49z" />
    <glyph glyph-name="d" unicode="d" horiz-adv-x="603" 
d="M460 85q-9 -25 -3 -33.5t15 -8.5t23 10.5t30 52.5l21 56h19l-25 -73q-14 -42 -37.5 -64t-51 -30.5t-54.5 -8.5q-64 0 -90 38q-14 21 -14.5 54.5t13.5 79.5l135 509q10 34 -2 50t-61 16l7 21q82 1 147 11.5t124 29.5zM210 48q12 0 29.5 17t38.5 55.5t43 101.5t43 154
l-15 -108q-29 -92 -57.5 -155t-66.5 -95t-97 -32q-34 0 -63.5 15t-47.5 47t-18 84q0 44 14 97.5t41.5 106.5t68.5 98t94.5 72t120.5 27q39 0 51.5 -12.5t15.5 -32.5l-8 -20q-4 20 -10 31t-26 11q-18 0 -41 -21.5t-46.5 -60.5t-43.5 -90t-32 -110.5t-12 -122.5q0 -28 5 -42.5
t19 -14.5z" />
    <glyph glyph-name="eth" unicode="&#xf0;" horiz-adv-x="556" 
d="M344 684l172 76l6 -18l-164 -72zM358 669l-219 -97l-6 18l211 93zM346 421q0 81 -16.5 145.5t-50.5 113.5t-89 85l12 17q96 -30 170.5 -88.5t117 -137t42.5 -168.5q0 -58 -14 -115.5t-42.5 -109t-70 -91.5t-97 -63t-124.5 -23q-49 0 -89.5 16t-64.5 53.5t-24 101.5
q0 46 13.5 97t39 99.5t62.5 88t85 63t105 23.5q27 0 43.5 -7t35.5 -27l-7 -12q-9 13 -26.5 19.5t-30.5 6.5q-27 0 -48.5 -28.5t-37.5 -76.5t-27 -106t-16 -118t-5 -112q0 -40 4 -50.5t15 -10.5q22 0 42 26t37 70t29.5 98t19.5 111.5t7 109.5z" />
    <glyph glyph-name="dcaron" unicode="&#x10f;" horiz-adv-x="603" 
d="M460 85q-9 -25 -3 -33.5t15 -8.5t23 10.5t30 52.5l21 56h19l-25 -73q-14 -42 -37.5 -64t-51 -30.5t-54.5 -8.5q-64 0 -90 38q-14 21 -14.5 54.5t13.5 79.5l135 509q10 34 -2 50t-61 16l7 21q82 1 147 11.5t124 29.5zM210 48q12 0 29.5 17t38.5 55.5t43 101.5t43 154
l-15 -108q-29 -92 -57.5 -155t-66.5 -95t-97 -32q-34 0 -63.5 15t-47.5 47t-18 84q0 44 14 97.5t41.5 106.5t68.5 98t94.5 72t120.5 27q39 0 51.5 -12.5t15.5 -32.5l-8 -20q-4 20 -10 31t-26 11q-18 0 -41 -21.5t-46.5 -60.5t-43.5 -90t-32 -110.5t-12 -122.5q0 -28 5 -42.5
t19 -14.5zM656 540q34 74 47.5 124t13.5 69t-13 19l3 21q9 0 17 -0.5t15 -0.5q39 0 65 4t47 8q1 -2 1 -12q0 -37 -49 -100.5t-133 -135.5z" />
    <glyph glyph-name="dcroat" unicode="&#x111;" horiz-adv-x="603" 
d="M460 85q-9 -25 -3 -33.5t15 -8.5t23 10.5t30 52.5l21 56h19l-25 -73q-14 -42 -37.5 -64t-51 -30.5t-54.5 -8.5q-64 0 -90 38q-14 21 -14.5 54.5t13.5 79.5l135 509q10 34 -2 50t-61 16l7 21q82 1 147 11.5t124 29.5zM210 48q12 0 29.5 17t38.5 55.5t43 101.5t43 154
l-15 -108q-29 -92 -57.5 -155t-66.5 -95t-97 -32q-34 0 -63.5 15t-47.5 47t-18 84q0 44 14 97.5t41.5 106.5t68.5 98t94.5 72t120.5 27q39 0 51.5 -12.5t15.5 -32.5l-8 -20q-4 20 -10 31t-26 11q-18 0 -41 -21.5t-46.5 -60.5t-43.5 -90t-32 -110.5t-12 -122.5q0 -28 5 -42.5
t19 -14.5zM681 628l-6 -20h-414l6 20h414z" />
    <glyph glyph-name="e" unicode="e" horiz-adv-x="496" 
d="M162 210q32 15 63 36t57 46q40 39 65.5 89t25.5 108q0 14 -4 19.5t-12 5.5q-20 0 -43.5 -22.5t-46.5 -60t-41.5 -84.5t-30 -96.5t-11.5 -95.5q0 -58 23 -77.5t60 -19.5q20 0 60 15t80 55l16 -8q-22 -33 -58 -64t-85 -50.5t-110 -19.5q-47 0 -86.5 16t-63 47.5t-23.5 77.5
q0 59 18.5 117t52.5 110t81.5 92.5t105.5 63.5t124 23q53 0 88.5 -21.5t35.5 -66.5q0 -38 -20 -71.5t-55 -61t-79 -49.5t-92.5 -38t-95.5 -25z" />
    <glyph glyph-name="eacute" unicode="&#xe9;" horiz-adv-x="496" 
d="M162 210q32 15 63 36t57 46q40 39 65.5 89t25.5 108q0 14 -4 19.5t-12 5.5q-20 0 -43.5 -22.5t-46.5 -60t-41.5 -84.5t-30 -96.5t-11.5 -95.5q0 -58 23 -77.5t60 -19.5q20 0 60 15t80 55l16 -8q-22 -33 -58 -64t-85 -50.5t-110 -19.5q-47 0 -86.5 16t-63 47.5t-23.5 77.5
q0 59 18.5 117t52.5 110t81.5 92.5t105.5 63.5t124 23q53 0 88.5 -21.5t35.5 -66.5q0 -38 -20 -71.5t-55 -61t-79 -49.5t-92.5 -38t-95.5 -25zM307 609q34 54 53.5 94.5t35.5 71t39 53.5q20 20 52.5 27.5t57.5 -18.5q23 -22 16 -49t-32 -52q-21 -21 -51 -39t-70 -40.5
t-91 -57.5z" />
    <glyph glyph-name="ebreve" unicode="&#x115;" horiz-adv-x="496" 
d="M162 210q32 15 63 36t57 46q40 39 65.5 89t25.5 108q0 14 -4 19.5t-12 5.5q-20 0 -43.5 -22.5t-46.5 -60t-41.5 -84.5t-30 -96.5t-11.5 -95.5q0 -58 23 -77.5t60 -19.5q20 0 60 15t80 55l16 -8q-22 -33 -58 -64t-85 -50.5t-110 -19.5q-47 0 -86.5 16t-63 47.5t-23.5 77.5
q0 59 18.5 117t52.5 110t81.5 92.5t105.5 63.5t124 23q53 0 88.5 -21.5t35.5 -66.5q0 -38 -20 -71.5t-55 -61t-79 -49.5t-92.5 -38t-95.5 -25zM387 732q57 0 107 14t93 42l12 -9q-23 -43 -59.5 -81t-82 -61.5t-94.5 -23.5q-37 0 -62.5 22t-40.5 59t-21 82l15 8
q23 -26 52 -39t81 -13z" />
    <glyph glyph-name="ecaron" unicode="&#x11b;" horiz-adv-x="496" 
d="M162 210q32 15 63 36t57 46q40 39 65.5 89t25.5 108q0 14 -4 19.5t-12 5.5q-20 0 -43.5 -22.5t-46.5 -60t-41.5 -84.5t-30 -96.5t-11.5 -95.5q0 -58 23 -77.5t60 -19.5q20 0 60 15t80 55l16 -8q-22 -33 -58 -64t-85 -50.5t-110 -19.5q-47 0 -86.5 16t-63 47.5t-23.5 77.5
q0 59 18.5 117t52.5 110t81.5 92.5t105.5 63.5t124 23q53 0 88.5 -21.5t35.5 -66.5q0 -38 -20 -71.5t-55 -61t-79 -49.5t-92.5 -38t-95.5 -25zM432 778q38 16 85.5 30t99.5 24l5 -14q-79 -34 -146.5 -92t-108.5 -120h-18q-16 74 -42.5 124t-76.5 88l4 14q68 -12 113 -24.5
t85 -29.5z" />
    <glyph glyph-name="ecircumflex" unicode="&#xea;" horiz-adv-x="496" 
d="M162 210q32 15 63 36t57 46q40 39 65.5 89t25.5 108q0 14 -4 19.5t-12 5.5q-20 0 -43.5 -22.5t-46.5 -60t-41.5 -84.5t-30 -96.5t-11.5 -95.5q0 -58 23 -77.5t60 -19.5q20 0 60 15t80 55l16 -8q-22 -33 -58 -64t-85 -50.5t-110 -19.5q-47 0 -86.5 16t-63 47.5t-23.5 77.5
q0 59 18.5 117t52.5 110t81.5 92.5t105.5 63.5t124 23q53 0 88.5 -21.5t35.5 -66.5q0 -38 -20 -71.5t-55 -61t-79 -49.5t-92.5 -38t-95.5 -25zM349 660q-37 -16 -85 -29.5t-100 -24.5l-5 14q79 35 146.5 92.5t108.5 119.5h18q16 -73 42.5 -123.5t76.5 -88.5l-4 -14
q-67 12 -112.5 25t-85.5 29z" />
    <glyph glyph-name="uni1EBF" unicode="&#x1ebf;" horiz-adv-x="496" 
d="M162 210q32 15 63 36t57 46q40 39 65.5 89t25.5 108q0 14 -4 19.5t-12 5.5q-20 0 -43.5 -22.5t-46.5 -60t-41.5 -84.5t-30 -96.5t-11.5 -95.5q0 -58 23 -77.5t60 -19.5q20 0 60 15t80 55l16 -8q-22 -33 -58 -64t-85 -50.5t-110 -19.5q-47 0 -86.5 16t-63 47.5t-23.5 77.5
q0 59 18.5 117t52.5 110t81.5 92.5t105.5 63.5t124 23q53 0 88.5 -21.5t35.5 -66.5q0 -38 -20 -71.5t-55 -61t-79 -49.5t-92.5 -38t-95.5 -25zM349 660q-37 -16 -85 -29.5t-100 -24.5l-5 14q79 35 146.5 92.5t108.5 119.5h18q16 -73 42.5 -123.5t76.5 -88.5l-4 -14
q-67 12 -112.5 25t-85.5 29zM367 848q34 54 53.5 94.5t35.5 71t39 53.5q20 20 52.5 27.5t57.5 -18.5q23 -22 16 -49t-32 -52q-21 -21 -51 -39t-70 -40.5t-91 -57.5z" />
    <glyph glyph-name="uni1EC7" unicode="&#x1ec7;" horiz-adv-x="496" 
d="M162 210q32 15 63 36t57 46q40 39 65.5 89t25.5 108q0 14 -4 19.5t-12 5.5q-20 0 -43.5 -22.5t-46.5 -60t-41.5 -84.5t-30 -96.5t-11.5 -95.5q0 -58 23 -77.5t60 -19.5q20 0 60 15t80 55l16 -8q-22 -33 -58 -64t-85 -50.5t-110 -19.5q-47 0 -86.5 16t-63 47.5t-23.5 77.5
q0 59 18.5 117t52.5 110t81.5 92.5t105.5 63.5t124 23q53 0 88.5 -21.5t35.5 -66.5q0 -38 -20 -71.5t-55 -61t-79 -49.5t-92.5 -38t-95.5 -25zM349 660q-37 -16 -85 -29.5t-100 -24.5l-5 14q79 35 146.5 92.5t108.5 119.5h18q16 -73 42.5 -123.5t76.5 -88.5l-4 -14
q-67 12 -112.5 25t-85.5 29zM161 -191q-36 0 -55 14t-19 42q0 43 27 66.5t74 23.5q36 0 55 -14t19 -42q0 -43 -27 -66.5t-74 -23.5z" />
    <glyph glyph-name="uni1EC1" unicode="&#x1ec1;" horiz-adv-x="496" 
d="M162 210q32 15 63 36t57 46q40 39 65.5 89t25.5 108q0 14 -4 19.5t-12 5.5q-20 0 -43.5 -22.5t-46.5 -60t-41.5 -84.5t-30 -96.5t-11.5 -95.5q0 -58 23 -77.5t60 -19.5q20 0 60 15t80 55l16 -8q-22 -33 -58 -64t-85 -50.5t-110 -19.5q-47 0 -86.5 16t-63 47.5t-23.5 77.5
q0 59 18.5 117t52.5 110t81.5 92.5t105.5 63.5t124 23q53 0 88.5 -21.5t35.5 -66.5q0 -38 -20 -71.5t-55 -61t-79 -49.5t-92.5 -38t-95.5 -25zM349 660q-37 -16 -85 -29.5t-100 -24.5l-5 14q79 35 146.5 92.5t108.5 119.5h18q16 -73 42.5 -123.5t76.5 -88.5l-4 -14
q-67 12 -112.5 25t-85.5 29zM426 838q-40 46 -70 72t-50.5 43.5t-33.5 39.5q-14 23 -9.5 49.5t26.5 40.5q26 17 54.5 7t41.5 -30q15 -22 19 -49t9.5 -66t24.5 -100z" />
    <glyph glyph-name="uni1EC3" unicode="&#x1ec3;" horiz-adv-x="496" 
d="M162 210q32 15 63 36t57 46q40 39 65.5 89t25.5 108q0 14 -4 19.5t-12 5.5q-20 0 -43.5 -22.5t-46.5 -60t-41.5 -84.5t-30 -96.5t-11.5 -95.5q0 -58 23 -77.5t60 -19.5q20 0 60 15t80 55l16 -8q-22 -33 -58 -64t-85 -50.5t-110 -19.5q-47 0 -86.5 16t-63 47.5t-23.5 77.5
q0 59 18.5 117t52.5 110t81.5 92.5t105.5 63.5t124 23q53 0 88.5 -21.5t35.5 -66.5q0 -38 -20 -71.5t-55 -61t-79 -49.5t-92.5 -38t-95.5 -25zM349 660q-37 -16 -85 -29.5t-100 -24.5l-5 14q79 35 146.5 92.5t108.5 119.5h18q16 -73 42.5 -123.5t76.5 -88.5l-4 -14
q-67 12 -112.5 25t-85.5 29zM522 809q5 31 19 48.5t29.5 30t26.5 29t11 46.5q0 35 -17 49.5t-46 14.5q-16 0 -28 -3t-17 -6q19 -7 30.5 -21t11.5 -35q0 -28 -20.5 -45t-48.5 -17q-25 0 -40 14t-15 37q0 25 17.5 43t42.5 30q24 11 52.5 17t61.5 6q56 0 90.5 -18.5t34.5 -59.5
q0 -29 -16 -45t-40.5 -25.5t-50 -19t-44.5 -25.5t-24 -45h-20z" />
    <glyph glyph-name="uni1EC5" unicode="&#x1ec5;" horiz-adv-x="496" 
d="M162 210q32 15 63 36t57 46q40 39 65.5 89t25.5 108q0 14 -4 19.5t-12 5.5q-20 0 -43.5 -22.5t-46.5 -60t-41.5 -84.5t-30 -96.5t-11.5 -95.5q0 -58 23 -77.5t60 -19.5q20 0 60 15t80 55l16 -8q-22 -33 -58 -64t-85 -50.5t-110 -19.5q-47 0 -86.5 16t-63 47.5t-23.5 77.5
q0 59 18.5 117t52.5 110t81.5 92.5t105.5 63.5t124 23q53 0 88.5 -21.5t35.5 -66.5q0 -38 -20 -71.5t-55 -61t-79 -49.5t-92.5 -38t-95.5 -25zM349 660q-37 -16 -85 -29.5t-100 -24.5l-5 14q79 35 146.5 92.5t108.5 119.5h18q16 -73 42.5 -123.5t76.5 -88.5l-4 -14
q-67 12 -112.5 25t-85.5 29zM412 1037q30 0 49.5 -11t34.5 -25.5t30.5 -25.5t36.5 -11q20 0 37.5 13.5t34.5 44.5l18 -5q-29 -87 -76 -125t-94 -38q-30 0 -49.5 11t-34.5 25.5t-30.5 25.5t-36.5 11q-20 0 -37.5 -13t-34.5 -45l-18 5q29 87 76 125t94 38z" />
    <glyph glyph-name="edieresis" unicode="&#xeb;" horiz-adv-x="496" 
d="M162 210q32 15 63 36t57 46q40 39 65.5 89t25.5 108q0 14 -4 19.5t-12 5.5q-20 0 -43.5 -22.5t-46.5 -60t-41.5 -84.5t-30 -96.5t-11.5 -95.5q0 -58 23 -77.5t60 -19.5q20 0 60 15t80 55l16 -8q-22 -33 -58 -64t-85 -50.5t-110 -19.5q-47 0 -86.5 16t-63 47.5t-23.5 77.5
q0 59 18.5 117t52.5 110t81.5 92.5t105.5 63.5t124 23q53 0 88.5 -21.5t35.5 -66.5q0 -38 -20 -71.5t-55 -61t-79 -49.5t-92.5 -38t-95.5 -25zM181 674q0 52 30.5 75t68.5 23q40 0 57.5 -21.5t17.5 -56.5q0 -34 -15 -55.5t-37.5 -31t-47.5 -9.5q-40 0 -57 21t-17 55z
M419 674q0 52 30.5 75t68.5 23q40 0 57.5 -21.5t17.5 -56.5q0 -34 -15 -55.5t-37.5 -31t-47.5 -9.5q-40 0 -57 21t-17 55z" />
    <glyph glyph-name="edotaccent" unicode="&#x117;" horiz-adv-x="496" 
d="M162 210q32 15 63 36t57 46q40 39 65.5 89t25.5 108q0 14 -4 19.5t-12 5.5q-20 0 -43.5 -22.5t-46.5 -60t-41.5 -84.5t-30 -96.5t-11.5 -95.5q0 -58 23 -77.5t60 -19.5q20 0 60 15t80 55l16 -8q-22 -33 -58 -64t-85 -50.5t-110 -19.5q-47 0 -86.5 16t-63 47.5t-23.5 77.5
q0 59 18.5 117t52.5 110t81.5 92.5t105.5 63.5t124 23q53 0 88.5 -21.5t35.5 -66.5q0 -38 -20 -71.5t-55 -61t-79 -49.5t-92.5 -38t-95.5 -25zM281 676q0 54 35 80t87 26q44 0 66.5 -17t22.5 -51q0 -47 -35.5 -75.5t-87.5 -28.5q-43 0 -65.5 17t-22.5 49z" />
    <glyph glyph-name="uni1EB9" unicode="&#x1eb9;" horiz-adv-x="496" 
d="M162 210q32 15 63 36t57 46q40 39 65.5 89t25.5 108q0 14 -4 19.5t-12 5.5q-20 0 -43.5 -22.5t-46.5 -60t-41.5 -84.5t-30 -96.5t-11.5 -95.5q0 -58 23 -77.5t60 -19.5q20 0 60 15t80 55l16 -8q-22 -33 -58 -64t-85 -50.5t-110 -19.5q-47 0 -86.5 16t-63 47.5t-23.5 77.5
q0 59 18.5 117t52.5 110t81.5 92.5t105.5 63.5t124 23q53 0 88.5 -21.5t35.5 -66.5q0 -38 -20 -71.5t-55 -61t-79 -49.5t-92.5 -38t-95.5 -25zM161 -191q-36 0 -55 14t-19 42q0 43 27 66.5t74 23.5q36 0 55 -14t19 -42q0 -43 -27 -66.5t-74 -23.5z" />
    <glyph glyph-name="egrave" unicode="&#xe8;" horiz-adv-x="496" 
d="M162 210q32 15 63 36t57 46q40 39 65.5 89t25.5 108q0 14 -4 19.5t-12 5.5q-20 0 -43.5 -22.5t-46.5 -60t-41.5 -84.5t-30 -96.5t-11.5 -95.5q0 -58 23 -77.5t60 -19.5q20 0 60 15t80 55l16 -8q-22 -33 -58 -64t-85 -50.5t-110 -19.5q-47 0 -86.5 16t-63 47.5t-23.5 77.5
q0 59 18.5 117t52.5 110t81.5 92.5t105.5 63.5t124 23q53 0 88.5 -21.5t35.5 -66.5q0 -38 -20 -71.5t-55 -61t-79 -49.5t-92.5 -38t-95.5 -25zM366 599q-40 46 -70 72t-50.5 43.5t-33.5 39.5q-14 23 -9.5 49.5t26.5 40.5q26 17 54.5 7t41.5 -30q15 -22 19 -49t9.5 -66
t24.5 -100z" />
    <glyph glyph-name="uni1EBB" unicode="&#x1ebb;" horiz-adv-x="496" 
d="M162 210q32 15 63 36t57 46q40 39 65.5 89t25.5 108q0 14 -4 19.5t-12 5.5q-20 0 -43.5 -22.5t-46.5 -60t-41.5 -84.5t-30 -96.5t-11.5 -95.5q0 -58 23 -77.5t60 -19.5q20 0 60 15t80 55l16 -8q-22 -33 -58 -64t-85 -50.5t-110 -19.5q-47 0 -86.5 16t-63 47.5t-23.5 77.5
q0 59 18.5 117t52.5 110t81.5 92.5t105.5 63.5t124 23q53 0 88.5 -21.5t35.5 -66.5q0 -38 -20 -71.5t-55 -61t-79 -49.5t-92.5 -38t-95.5 -25zM347 600q5 31 19 48.5t29.5 30t26.5 29t11 46.5q0 35 -17 49.5t-46 14.5q-16 0 -28 -3t-17 -6q19 -7 30.5 -21t11.5 -35
q0 -28 -20.5 -45t-48.5 -17q-25 0 -40 14t-15 37q0 25 17.5 43t42.5 30q24 11 52.5 17t61.5 6q56 0 90.5 -18.5t34.5 -59.5q0 -29 -16 -45t-40.5 -25.5t-50 -19t-44.5 -25.5t-24 -45h-20z" />
    <glyph glyph-name="emacron" unicode="&#x113;" horiz-adv-x="496" 
d="M162 210q32 15 63 36t57 46q40 39 65.5 89t25.5 108q0 14 -4 19.5t-12 5.5q-20 0 -43.5 -22.5t-46.5 -60t-41.5 -84.5t-30 -96.5t-11.5 -95.5q0 -58 23 -77.5t60 -19.5q20 0 60 15t80 55l16 -8q-22 -33 -58 -64t-85 -50.5t-110 -19.5q-47 0 -86.5 16t-63 47.5t-23.5 77.5
q0 59 18.5 117t52.5 110t81.5 92.5t105.5 63.5t124 23q53 0 88.5 -21.5t35.5 -66.5q0 -38 -20 -71.5t-55 -61t-79 -49.5t-92.5 -38t-95.5 -25zM564 712l-6 -25h-352l6 25h352z" />
    <glyph glyph-name="eogonek" unicode="&#x119;" horiz-adv-x="496" 
d="M162 210q32 15 63 36t57 46q40 39 65.5 89t25.5 108q0 14 -4 19.5t-12 5.5q-20 0 -43.5 -22.5t-46.5 -60t-41.5 -84.5t-30 -96.5t-11.5 -95.5q0 -58 23 -77.5t60 -19.5q20 0 60 15t80 55l16 -8q-22 -33 -58 -64t-85 -50.5t-110 -19.5q-47 0 -86.5 16t-63 47.5t-23.5 77.5
q0 59 18.5 117t52.5 110t81.5 92.5t105.5 63.5t124 23q53 0 88.5 -21.5t35.5 -66.5q0 -38 -20 -71.5t-55 -61t-79 -49.5t-92.5 -38t-95.5 -25zM271 3q-33 -13 -54.5 -33t-32 -41.5t-10.5 -41.5q0 -24 23 -24q14 0 30 9t29 21l15 -13q-29 -35 -66 -51.5t-77 -16.5
q-41 0 -66 16t-25 45q0 31 30.5 56t80 43.5t105.5 30.5h18z" />
    <glyph glyph-name="uni1EBD" unicode="&#x1ebd;" horiz-adv-x="496" 
d="M162 210q32 15 63 36t57 46q40 39 65.5 89t25.5 108q0 14 -4 19.5t-12 5.5q-20 0 -43.5 -22.5t-46.5 -60t-41.5 -84.5t-30 -96.5t-11.5 -95.5q0 -58 23 -77.5t60 -19.5q20 0 60 15t80 55l16 -8q-22 -33 -58 -64t-85 -50.5t-110 -19.5q-47 0 -86.5 16t-63 47.5t-23.5 77.5
q0 59 18.5 117t52.5 110t81.5 92.5t105.5 63.5t124 23q53 0 88.5 -21.5t35.5 -66.5q0 -38 -20 -71.5t-55 -61t-79 -49.5t-92.5 -38t-95.5 -25zM352 798q30 0 49.5 -11t34.5 -25.5t30.5 -25.5t36.5 -11q20 0 37.5 13.5t34.5 44.5l18 -5q-29 -87 -76 -125t-94 -38
q-30 0 -49.5 11t-34.5 25.5t-30.5 25.5t-36.5 11q-20 0 -37.5 -13t-34.5 -45l-18 5q29 87 76 125t94 38z" />
    <glyph glyph-name="uni0259" unicode="&#x259;" horiz-adv-x="542" 
d="M325 231q-7 17 -24.5 32t-40.5 15q-29 0 -53.5 -28t-38.5 -76t-14 -108t23 -60q17 0 37 23t39.5 61.5t36 85.5t26 94.5t9.5 88.5q0 53 -18.5 77.5t-57.5 24.5q-34 0 -73 -18.5t-74 -51.5l-16 8q42 63 109.5 98.5t143.5 35.5q86 0 131 -46.5t45 -136.5q0 -73 -27.5 -139
t-76 -116.5t-112 -79.5t-135.5 -29q-73 0 -115.5 33t-42.5 99q0 53 26.5 97t72.5 70.5t105 26.5q50 0 80 -19t43 -49z" />
    <glyph glyph-name="uni0292" unicode="&#x292;" horiz-adv-x="502" 
d="M125 -191q-37 0 -68.5 8.5t-56.5 26.5q-22 17 -38 41.5t-16 53.5q0 23 11.5 47t36.5 40t63 16t61.5 -18t23.5 -54q0 -41 -30 -76.5t-75 -43.5q8 -6 20.5 -8.5t25.5 -2.5q40 0 77 23.5t61 70.5t24 119q0 59 -13.5 95.5t-23.5 48.5q-18 -18 -32 -25.5t-26 -7.5
q-10 0 -14.5 4t-4.5 11q0 11 11.5 18t26.5 10t27 3l-14 -7l286 259q-31 -11 -60.5 -31.5t-57 -42t-54 -36t-52.5 -14.5q-20 0 -33 8t-24 16t-25 8q-10 0 -18 -6.5t-8 -20.5q0 -15 10.5 -24.5t33.5 -20.5l-6 -15q-53 12 -82 38.5t-29 69.5q0 34 18 65.5t54 52t88 20.5
q36 0 61 -8.5t47 -20t45.5 -20t56.5 -8.5q31 0 51.5 10.5t40.5 36.5h31l-344 -317l3 7q63 -1 112 -19t76.5 -52.5t27.5 -87.5q0 -52 -26.5 -96t-71 -76.5t-99 -50t-109.5 -17.5z" />
    <glyph glyph-name="uni01EF" unicode="&#x1ef;" horiz-adv-x="502" 
d="M125 -191q-37 0 -68.5 8.5t-56.5 26.5q-22 17 -38 41.5t-16 53.5q0 23 11.5 47t36.5 40t63 16t61.5 -18t23.5 -54q0 -41 -30 -76.5t-75 -43.5q8 -6 20.5 -8.5t25.5 -2.5q40 0 77 23.5t61 70.5t24 119q0 59 -13.5 95.5t-23.5 48.5q-18 -18 -32 -25.5t-26 -7.5
q-10 0 -14.5 4t-4.5 11q0 11 11.5 18t26.5 10t27 3l-14 -7l286 259q-31 -11 -60.5 -31.5t-57 -42t-54 -36t-52.5 -14.5q-20 0 -33 8t-24 16t-25 8q-10 0 -18 -6.5t-8 -20.5q0 -15 10.5 -24.5t33.5 -20.5l-6 -15q-53 12 -82 38.5t-29 69.5q0 34 18 65.5t54 52t88 20.5
q36 0 61 -8.5t47 -20t45.5 -20t56.5 -8.5q31 0 51.5 10.5t40.5 36.5h31l-344 -317l3 7q63 -1 112 -19t76.5 -52.5t27.5 -87.5q0 -52 -26.5 -96t-71 -76.5t-99 -50t-109.5 -17.5zM384 778q38 16 85.5 30t99.5 24l5 -14q-79 -34 -146.5 -92t-108.5 -120h-18q-16 74 -42.5 124
t-76.5 88l4 14q68 -12 113 -24.5t85 -29.5z" />
    <glyph glyph-name="f" unicode="f" horiz-adv-x="355" 
d="M47 499l6 20h355l-6 -20h-355zM440 762q-14 0 -26 -3.5t-23 -12.5q-9 -8 -17.5 -21t-16 -32t-14.5 -46l-220 -821q-54 -1 -96.5 -4t-84.5 -10l186 692q23 88 54.5 145.5t74.5 88.5q32 23 69.5 33.5t81.5 10.5q74 0 115.5 -30t41.5 -82q0 -23 -13.5 -46.5t-37.5 -38.5
t-57 -15q-37 0 -58.5 17.5t-21.5 50.5q0 38 23.5 70t65.5 48q-7 3 -13 4.5t-13 1.5z" />
    <glyph glyph-name="g" unicode="g" horiz-adv-x="487" 
d="M228 227l60 8q-42 -15 -69.5 -27.5t-41.5 -22.5t-14 -20q0 -8 9.5 -13.5t25.5 -11.5l91 -34q27 -10 53 -25t43.5 -38.5t17.5 -58.5q0 -45 -29 -77.5t-76.5 -53.5t-102 -31t-105.5 -10q-50 0 -95 9.5t-73.5 26.5t-28.5 41q0 21 22 35.5t55.5 22.5t69 11t63.5 1l1 -15
q-32 -18 -45.5 -35.5t-13.5 -34.5q0 -21 17 -33t49 -12q24 0 51 6.5t50.5 19t38 29t14.5 36.5q0 21 -16.5 29.5t-41.5 15.5l-136 43q-25 8 -44.5 25.5t-19.5 43.5q0 32 30 56.5t80.5 47t110.5 46.5zM266 514q-10 0 -20.5 -11.5t-20 -32.5t-16.5 -48.5t-11 -60.5t-4 -69
q0 -33 4.5 -45t14.5 -12q15 0 28.5 18.5t24 50t16 71.5t5.5 83q0 21 -3.5 38.5t-17.5 17.5zM292 532q70 0 117 -26.5t47 -87.5q0 -48 -32.5 -94.5t-92 -76.5t-140.5 -30q-70 0 -117 27t-47 87q0 36 18 71.5t52.5 65t83.5 47t111 17.5zM376 479l-21 7q16 42 49.5 67.5
t73.5 25.5q35 0 52 -19t17 -47q0 -29 -15 -45t-34 -16q-16 0 -30.5 13t-18.5 39t12 66l4 -7q-35 -13 -55 -32t-34 -52z" />
    <glyph glyph-name="uni01F5" unicode="&#x1f5;" horiz-adv-x="487" 
d="M228 227l60 8q-42 -15 -69.5 -27.5t-41.5 -22.5t-14 -20q0 -8 9.5 -13.5t25.5 -11.5l91 -34q27 -10 53 -25t43.5 -38.5t17.5 -58.5q0 -45 -29 -77.5t-76.5 -53.5t-102 -31t-105.5 -10q-50 0 -95 9.5t-73.5 26.5t-28.5 41q0 21 22 35.5t55.5 22.5t69 11t63.5 1l1 -15
q-32 -18 -45.5 -35.5t-13.5 -34.5q0 -21 17 -33t49 -12q24 0 51 6.5t50.5 19t38 29t14.5 36.5q0 21 -16.5 29.5t-41.5 15.5l-136 43q-25 8 -44.5 25.5t-19.5 43.5q0 32 30 56.5t80.5 47t110.5 46.5zM266 514q-10 0 -20.5 -11.5t-20 -32.5t-16.5 -48.5t-11 -60.5t-4 -69
q0 -33 4.5 -45t14.5 -12q15 0 28.5 18.5t24 50t16 71.5t5.5 83q0 21 -3.5 38.5t-17.5 17.5zM292 532q70 0 117 -26.5t47 -87.5q0 -48 -32.5 -94.5t-92 -76.5t-140.5 -30q-70 0 -117 27t-47 87q0 36 18 71.5t52.5 65t83.5 47t111 17.5zM376 479l-21 7q16 42 49.5 67.5
t73.5 25.5q35 0 52 -19t17 -47q0 -29 -15 -45t-34 -16q-16 0 -30.5 13t-18.5 39t12 66l4 -7q-35 -13 -55 -32t-34 -52zM267 609q34 54 53.5 94.5t35.5 71t39 53.5q20 20 52.5 27.5t57.5 -18.5q23 -22 16 -49t-32 -52q-21 -21 -51 -39t-70 -40.5t-91 -57.5z" />
    <glyph glyph-name="gbreve" unicode="&#x11f;" horiz-adv-x="487" 
d="M228 227l60 8q-42 -15 -69.5 -27.5t-41.5 -22.5t-14 -20q0 -8 9.5 -13.5t25.5 -11.5l91 -34q27 -10 53 -25t43.5 -38.5t17.5 -58.5q0 -45 -29 -77.5t-76.5 -53.5t-102 -31t-105.5 -10q-50 0 -95 9.5t-73.5 26.5t-28.5 41q0 21 22 35.5t55.5 22.5t69 11t63.5 1l1 -15
q-32 -18 -45.5 -35.5t-13.5 -34.5q0 -21 17 -33t49 -12q24 0 51 6.5t50.5 19t38 29t14.5 36.5q0 21 -16.5 29.5t-41.5 15.5l-136 43q-25 8 -44.5 25.5t-19.5 43.5q0 32 30 56.5t80.5 47t110.5 46.5zM266 514q-10 0 -20.5 -11.5t-20 -32.5t-16.5 -48.5t-11 -60.5t-4 -69
q0 -33 4.5 -45t14.5 -12q15 0 28.5 18.5t24 50t16 71.5t5.5 83q0 21 -3.5 38.5t-17.5 17.5zM292 532q70 0 117 -26.5t47 -87.5q0 -48 -32.5 -94.5t-92 -76.5t-140.5 -30q-70 0 -117 27t-47 87q0 36 18 71.5t52.5 65t83.5 47t111 17.5zM376 479l-21 7q16 42 49.5 67.5
t73.5 25.5q35 0 52 -19t17 -47q0 -29 -15 -45t-34 -16q-16 0 -30.5 13t-18.5 39t12 66l4 -7q-35 -13 -55 -32t-34 -52zM347 732q57 0 107 14t93 42l12 -9q-23 -43 -59.5 -81t-82 -61.5t-94.5 -23.5q-37 0 -62.5 22t-40.5 59t-21 82l15 8q23 -26 52 -39t81 -13z" />
    <glyph glyph-name="gcaron" unicode="&#x1e7;" horiz-adv-x="487" 
d="M228 227l60 8q-42 -15 -69.5 -27.5t-41.5 -22.5t-14 -20q0 -8 9.5 -13.5t25.5 -11.5l91 -34q27 -10 53 -25t43.5 -38.5t17.5 -58.5q0 -45 -29 -77.5t-76.5 -53.5t-102 -31t-105.5 -10q-50 0 -95 9.5t-73.5 26.5t-28.5 41q0 21 22 35.5t55.5 22.5t69 11t63.5 1l1 -15
q-32 -18 -45.5 -35.5t-13.5 -34.5q0 -21 17 -33t49 -12q24 0 51 6.5t50.5 19t38 29t14.5 36.5q0 21 -16.5 29.5t-41.5 15.5l-136 43q-25 8 -44.5 25.5t-19.5 43.5q0 32 30 56.5t80.5 47t110.5 46.5zM266 514q-10 0 -20.5 -11.5t-20 -32.5t-16.5 -48.5t-11 -60.5t-4 -69
q0 -33 4.5 -45t14.5 -12q15 0 28.5 18.5t24 50t16 71.5t5.5 83q0 21 -3.5 38.5t-17.5 17.5zM292 532q70 0 117 -26.5t47 -87.5q0 -48 -32.5 -94.5t-92 -76.5t-140.5 -30q-70 0 -117 27t-47 87q0 36 18 71.5t52.5 65t83.5 47t111 17.5zM376 479l-21 7q16 42 49.5 67.5
t73.5 25.5q35 0 52 -19t17 -47q0 -29 -15 -45t-34 -16q-16 0 -30.5 13t-18.5 39t12 66l4 -7q-35 -13 -55 -32t-34 -52zM392 778q38 16 85.5 30t99.5 24l5 -14q-79 -34 -146.5 -92t-108.5 -120h-18q-16 74 -42.5 124t-76.5 88l4 14q68 -12 113 -24.5t85 -29.5z" />
    <glyph glyph-name="gcircumflex" unicode="&#x11d;" horiz-adv-x="487" 
d="M228 227l60 8q-42 -15 -69.5 -27.5t-41.5 -22.5t-14 -20q0 -8 9.5 -13.5t25.5 -11.5l91 -34q27 -10 53 -25t43.5 -38.5t17.5 -58.5q0 -45 -29 -77.5t-76.5 -53.5t-102 -31t-105.5 -10q-50 0 -95 9.5t-73.5 26.5t-28.5 41q0 21 22 35.5t55.5 22.5t69 11t63.5 1l1 -15
q-32 -18 -45.5 -35.5t-13.5 -34.5q0 -21 17 -33t49 -12q24 0 51 6.5t50.5 19t38 29t14.5 36.5q0 21 -16.5 29.5t-41.5 15.5l-136 43q-25 8 -44.5 25.5t-19.5 43.5q0 32 30 56.5t80.5 47t110.5 46.5zM266 514q-10 0 -20.5 -11.5t-20 -32.5t-16.5 -48.5t-11 -60.5t-4 -69
q0 -33 4.5 -45t14.5 -12q15 0 28.5 18.5t24 50t16 71.5t5.5 83q0 21 -3.5 38.5t-17.5 17.5zM292 532q70 0 117 -26.5t47 -87.5q0 -48 -32.5 -94.5t-92 -76.5t-140.5 -30q-70 0 -117 27t-47 87q0 36 18 71.5t52.5 65t83.5 47t111 17.5zM376 479l-21 7q16 42 49.5 67.5
t73.5 25.5q35 0 52 -19t17 -47q0 -29 -15 -45t-34 -16q-16 0 -30.5 13t-18.5 39t12 66l4 -7q-35 -13 -55 -32t-34 -52zM309 660q-37 -16 -85 -29.5t-100 -24.5l-5 14q79 35 146.5 92.5t108.5 119.5h18q16 -73 42.5 -123.5t76.5 -88.5l-4 -14q-67 12 -112.5 25t-85.5 29z" />
    <glyph glyph-name="uni0123" unicode="&#x123;" horiz-adv-x="487" 
d="M310 608q-27 0 -52 14.5t-25 49.5q0 61 46.5 97.5t117.5 37.5v-21q-47 -1 -78 -15.5t-39 -38.5q13 8 29.5 13t37.5 5q34 0 52 -13t18 -40q0 -40 -31.5 -64.5t-75.5 -24.5zM228 227l60 8q-42 -15 -69.5 -27.5t-41.5 -22.5t-14 -20q0 -8 9.5 -13.5t25.5 -11.5l91 -34
q27 -10 53 -25t43.5 -38.5t17.5 -58.5q0 -45 -29 -77.5t-76.5 -53.5t-102 -31t-105.5 -10q-50 0 -95 9.5t-73.5 26.5t-28.5 41q0 21 22 35.5t55.5 22.5t69 11t63.5 1l1 -15q-32 -18 -45.5 -35.5t-13.5 -34.5q0 -21 17 -33t49 -12q24 0 51 6.5t50.5 19t38 29t14.5 36.5
q0 21 -16.5 29.5t-41.5 15.5l-136 43q-25 8 -44.5 25.5t-19.5 43.5q0 32 30 56.5t80.5 47t110.5 46.5zM266 514q-10 0 -20.5 -11.5t-20 -32.5t-16.5 -48.5t-11 -60.5t-4 -69q0 -33 4.5 -45t14.5 -12q15 0 28.5 18.5t24 50t16 71.5t5.5 83q0 21 -3.5 38.5t-17.5 17.5z
M292 532q70 0 117 -26.5t47 -87.5q0 -48 -32.5 -94.5t-92 -76.5t-140.5 -30q-70 0 -117 27t-47 87q0 36 18 71.5t52.5 65t83.5 47t111 17.5zM376 479l-21 7q16 42 49.5 67.5t73.5 25.5q35 0 52 -19t17 -47q0 -29 -15 -45t-34 -16q-16 0 -30.5 13t-18.5 39t12 66l4 -7
q-35 -13 -55 -32t-34 -52z" />
    <glyph glyph-name="gdotaccent" unicode="&#x121;" horiz-adv-x="487" 
d="M228 227l60 8q-42 -15 -69.5 -27.5t-41.5 -22.5t-14 -20q0 -8 9.5 -13.5t25.5 -11.5l91 -34q27 -10 53 -25t43.5 -38.5t17.5 -58.5q0 -45 -29 -77.5t-76.5 -53.5t-102 -31t-105.5 -10q-50 0 -95 9.5t-73.5 26.5t-28.5 41q0 21 22 35.5t55.5 22.5t69 11t63.5 1l1 -15
q-32 -18 -45.5 -35.5t-13.5 -34.5q0 -21 17 -33t49 -12q24 0 51 6.5t50.5 19t38 29t14.5 36.5q0 21 -16.5 29.5t-41.5 15.5l-136 43q-25 8 -44.5 25.5t-19.5 43.5q0 32 30 56.5t80.5 47t110.5 46.5zM266 514q-10 0 -20.5 -11.5t-20 -32.5t-16.5 -48.5t-11 -60.5t-4 -69
q0 -33 4.5 -45t14.5 -12q15 0 28.5 18.5t24 50t16 71.5t5.5 83q0 21 -3.5 38.5t-17.5 17.5zM292 532q70 0 117 -26.5t47 -87.5q0 -48 -32.5 -94.5t-92 -76.5t-140.5 -30q-70 0 -117 27t-47 87q0 36 18 71.5t52.5 65t83.5 47t111 17.5zM376 479l-21 7q16 42 49.5 67.5
t73.5 25.5q35 0 52 -19t17 -47q0 -29 -15 -45t-34 -16q-16 0 -30.5 13t-18.5 39t12 66l4 -7q-35 -13 -55 -32t-34 -52zM241 676q0 54 35 80t87 26q44 0 66.5 -17t22.5 -51q0 -47 -35.5 -75.5t-87.5 -28.5q-43 0 -65.5 17t-22.5 49z" />
    <glyph glyph-name="uni01E5" unicode="&#x1e5;" horiz-adv-x="487" 
d="M470 -85l-4 -20h-648l4 20h648zM228 227l60 8q-42 -15 -69.5 -27.5t-41.5 -22.5t-14 -20q0 -8 9.5 -13.5t25.5 -11.5l91 -34q27 -10 53 -25t43.5 -38.5t17.5 -58.5q0 -45 -29 -77.5t-76.5 -53.5t-102 -31t-105.5 -10q-50 0 -95 9.5t-73.5 26.5t-28.5 41q0 21 22 35.5
t55.5 22.5t69 11t63.5 1l1 -15q-32 -18 -45.5 -35.5t-13.5 -34.5q0 -21 17 -33t49 -12q24 0 51 6.5t50.5 19t38 29t14.5 36.5q0 21 -16.5 29.5t-41.5 15.5l-136 43q-25 8 -44.5 25.5t-19.5 43.5q0 32 30 56.5t80.5 47t110.5 46.5zM266 514q-10 0 -20.5 -11.5t-20 -32.5
t-16.5 -48.5t-11 -60.5t-4 -69q0 -33 4.5 -45t14.5 -12q15 0 28.5 18.5t24 50t16 71.5t5.5 83q0 21 -3.5 38.5t-17.5 17.5zM292 532q70 0 117 -26.5t47 -87.5q0 -48 -32.5 -94.5t-92 -76.5t-140.5 -30q-70 0 -117 27t-47 87q0 36 18 71.5t52.5 65t83.5 47t111 17.5zM376 479
l-21 7q16 42 49.5 67.5t73.5 25.5q35 0 52 -19t17 -47q0 -29 -15 -45t-34 -16q-16 0 -30.5 13t-18.5 39t12 66l4 -7q-35 -13 -55 -32t-34 -52z" />
    <glyph glyph-name="h" unicode="h" horiz-adv-x="592" 
d="M153 0h-177l198 667q10 34 -2 50t-61 16l7 21q82 1 145.5 11.5t122.5 29.5zM176 143q41 122 75.5 198.5t67 118.5t67 57.5t74.5 15.5q50 0 73 -20t24.5 -54.5t-12.5 -76.5l-99 -297q-10 -28 -2.5 -35t14.5 -7q9 0 23 10.5t30 52.5l21 56h19l-25 -73q-14 -42 -37.5 -64
t-51 -30.5t-54.5 -8.5q-53 0 -78 23.5t-26.5 63t13.5 85.5l86 259q6 18 7.5 30t-0.5 18t-9 6q-16 0 -38 -27t-46.5 -74t-49.5 -107.5t-48 -127t-40 -132.5z" />
    </font>
</defs>
</svg>
