<?xml version="1.0" standalone="no"?>
<!DOCTYPE svg PUBLIC "-//W3C//DTD SVG 1.1//EN" "http://www.w3.org/Graphics/SVG/1.1/DTD/svg11.dtd" >
<svg xmlns="http://www.w3.org/2000/svg" xmlns:xlink="http://www.w3.org/1999/xlink" version="1.1">
<metadata>
Created by FontForge 20230101 at Fri Oct 21 06:11:42 2022
 By Glenn Lewis
Copyright 2019 The Chivo Project Authors (https://github.com/Omnibus-Type/Chivo)
</metadata>
<defs>
<font id="Chivo-Black" horiz-adv-x="0" >
  <font-face 
    font-family="Chivo Black"
    font-weight="900"
    font-stretch="normal"
    units-per-em="1000"
    panose-1="0 0 0 0 0 0 0 0 0 0"
    ascent="800"
    descent="-200"
    x-height="511"
    cap-height="686"
    bbox="-160 -413 1285 1151"
    underline-thickness="72"
    underline-position="-206"
    unicode-range="U+0020-FEFF"
  />
<missing-glyph horiz-adv-x="500" 
d="M0 0v700h500v-700h-500zM80 50h340l-170 255zM50 95l170 255l-170 255v-510zM450 95v510l-170 -255zM250 395l170 255h-340z" />
    <glyph glyph-name="f_f" unicode="ff" horiz-adv-x="818" 
d="M89 0v369h-64v142h64v66q0 81 51 116t132 35q17 0 42 -2.5t50.5 -7.5t41.5 -12v-110q-11 4 -31 7t-31 3q-12 0 -25.5 -3t-22.5 -15t-9 -40v-37h201v66q0 81 51 116t132 35q17 0 42 -2.5t50.5 -7.5t41.5 -12v-110q-11 4 -31 7t-31 3q-12 0 -25.5 -3t-22.5 -15t-9 -40v-37
h120v-142h-120v-369h-198v369h-201v-369h-198z" />
    <glyph glyph-name="f_f_i" unicode="ffi" horiz-adv-x="1125" 
d="M89 0v369h-64v142h64v66q0 81 51 116t132 35q17 0 42 -2.5t50.5 -7.5t41.5 -12v-110q-11 4 -31 7t-31 3q-12 0 -25.5 -3t-22.5 -15t-9 -40v-37h201v66q0 81 51 116t132 35q17 0 42 -2.5t50.5 -7.5t41.5 -12v-110q-11 4 -31 7t-31 3q-12 0 -25.5 -3t-22.5 -15t-9 -40v-37
h120v-142h-120v-369h-198v369h-201v-369h-198zM878 0v510h197v-510h-197zM878 577v143h197v-143h-197z" />
    <glyph glyph-name="f_f_l" unicode="ffl" horiz-adv-x="1126" 
d="M89 0v369h-64v142h64v66q0 81 51 116t132 35q17 0 42 -2.5t50.5 -7.5t41.5 -12v-110q-11 4 -31 7t-31 3q-12 0 -25.5 -3t-22.5 -15t-9 -40v-37h201v66q0 81 51 116t132 35q17 0 42 -2.5t50.5 -7.5t41.5 -12v-110q-11 4 -31 7t-31 3q-12 0 -25.5 -3t-22.5 -15t-9 -40v-37
h120v-142h-120v-369h-198v369h-201v-369h-198zM878 0v720h198v-720h-198z" />
    <glyph glyph-name="fi" unicode="fi" horiz-adv-x="701" 
d="M89 0v369h-64v142h64v66q0 81 51 116t132 35q17 0 42 -2.5t50.5 -7.5t41.5 -12v-110q-11 4 -31 7t-31 3q-12 0 -25.5 -3t-22.5 -15t-9 -40v-37h120v-142h-120v-369h-198zM455 0v510h197v-510h-197zM455 577v143h197v-143h-197z" />
    <glyph glyph-name="fl" unicode="fl" horiz-adv-x="703" 
d="M89 0v369h-64v142h64v66q0 81 51 116t132 35q17 0 42 -2.5t50.5 -7.5t41.5 -12v-110q-11 4 -31 7t-31 3q-12 0 -25.5 -3t-22.5 -15t-9 -40v-37h120v-142h-120v-369h-198zM455 0v720h198v-720h-198z" />
    <glyph glyph-name=".notdef" horiz-adv-x="500" 
d="M0 0v700h500v-700h-500zM80 50h340l-170 255zM50 95l170 255l-170 255v-510zM450 95v510l-170 -255zM250 395l170 255h-340z" />
    <glyph glyph-name="A" unicode="A" horiz-adv-x="709" 
d="M-5 0l229 686h261l229 -686h-218l-41 122h-218l-40 -122h-202zM285 267h122l-58 208h-5z" />
    <glyph glyph-name="Aacute" unicode="&#xc1;" horiz-adv-x="709" 
d="M-5 0l229 686h261l229 -686h-218l-41 122h-218l-40 -122h-202zM285 267h122l-58 208h-5zM282 742l91 145h171l2 -3l-126 -142h-138z" />
    <glyph glyph-name="Abreve" unicode="&#x102;" horiz-adv-x="709" 
d="M-5 0l229 686h261l229 -686h-218l-41 122h-218l-40 -122h-202zM285 267h122l-58 208h-5zM351 736q-94 0 -136.5 40.5t-42.5 106.5h101q3 -24 22.5 -37.5t59.5 -13.5t59.5 13.5t23.5 37.5h100q0 -66 -49.5 -106.5t-137.5 -40.5z" />
    <glyph glyph-name="uni1EAE" unicode="&#x1eae;" horiz-adv-x="709" 
d="M-5 0l229 686h261l229 -686h-218l-41 122h-218l-40 -122h-202zM285 267h122l-58 208h-5zM350 752q-65 0 -107 18.5t-61.5 51.5t-19.5 77h101q4 -24 26 -37.5t65 -13.5q44 0 66 13.5t27 37.5h100q0 -44 -23.5 -77t-67.5 -51.5t-106 -18.5zM293 919l91 145h151l2 -3
l-126 -142h-118z" />
    <glyph glyph-name="uni1EB6" unicode="&#x1eb6;" horiz-adv-x="709" 
d="M-5 0l229 686h261l229 -686h-218l-41 122h-218l-40 -122h-202zM285 267h122l-58 208h-5zM351 736q-94 0 -136.5 40.5t-42.5 106.5h101q3 -24 22.5 -37.5t59.5 -13.5t59.5 13.5t23.5 37.5h100q0 -66 -49.5 -106.5t-137.5 -40.5zM289 -190v140h144v-140h-144z" />
    <glyph glyph-name="uni1EB0" unicode="&#x1eb0;" horiz-adv-x="709" 
d="M-5 0l229 686h261l229 -686h-218l-41 122h-218l-40 -122h-202zM285 267h122l-58 208h-5zM350 752q-65 0 -107 18.5t-61.5 51.5t-19.5 77h101q4 -24 26 -37.5t65 -13.5q44 0 66 13.5t27 37.5h100q0 -44 -23.5 -77t-67.5 -51.5t-106 -18.5zM298 919l-126 142l2 3h151
l91 -145h-118z" />
    <glyph glyph-name="uni1EB2" unicode="&#x1eb2;" horiz-adv-x="709" 
d="M-5 0l229 686h261l229 -686h-218l-41 122h-218l-40 -122h-202zM285 267h122l-58 208h-5zM350 752q-65 0 -107 18.5t-61.5 51.5t-19.5 77h101q4 -24 26 -37.5t65 -13.5q44 0 66 13.5t27 37.5h100q0 -44 -23.5 -77t-67.5 -51.5t-106 -18.5zM337 919v64q22 3 34 12.5
t12 26.5q0 13 -10.5 21t-28.5 8q-11 0 -25.5 -2.5t-31.5 -8.5v88q16 5 31.5 6t30.5 1q50 0 83.5 -26t33.5 -74q0 -33 -19 -59t-48.5 -40.5t-61.5 -16.5z" />
    <glyph glyph-name="uni1EB4" unicode="&#x1eb4;" horiz-adv-x="709" 
d="M-5 0l229 686h261l229 -686h-218l-41 122h-218l-40 -122h-202zM285 267h122l-58 208h-5zM350 752q-65 0 -107 18.5t-61.5 51.5t-19.5 77h101q4 -24 26 -37.5t65 -13.5q44 0 66 13.5t27 37.5h100q0 -44 -23.5 -77t-67.5 -51.5t-106 -18.5zM162 945q0 42 15.5 73t43 48.5
t62.5 17.5q34 0 57 -9t43 -18t43 -9q17 0 30 10t17 26h74q0 -42 -15.5 -73.5t-43 -48.5t-62.5 -17q-33 0 -56.5 9t-43 18t-43.5 9q-17 0 -29.5 -10t-17.5 -26h-74z" />
    <glyph glyph-name="uni01CD" unicode="&#x1cd;" horiz-adv-x="709" 
d="M-5 0l229 686h261l229 -686h-218l-41 122h-218l-40 -122h-202zM285 267h122l-58 208h-5zM263 746l-109 139h131l86 -105h-32l86 105h131l-109 -139h-184z" />
    <glyph glyph-name="Acircumflex" unicode="&#xc2;" horiz-adv-x="709" 
d="M-5 0l229 686h261l229 -686h-218l-41 122h-218l-40 -122h-202zM285 267h122l-58 208h-5zM154 746l109 139h184l109 -139h-131l-86 105h32l-86 -105h-131z" />
    <glyph glyph-name="uni1EA4" unicode="&#x1ea4;" horiz-adv-x="709" 
d="M-5 0l229 686h261l229 -686h-218l-41 122h-218l-40 -122h-202zM285 267h122l-58 208h-5zM147 756l139 139h138l139 -139h-125l-84 56l-84 -56h-123zM293 945l83 133h151l2 -3l-118 -130h-118z" />
    <glyph glyph-name="uni1EAC" unicode="&#x1eac;" horiz-adv-x="709" 
d="M-5 0l229 686h261l229 -686h-218l-41 122h-218l-40 -122h-202zM285 267h122l-58 208h-5zM154 746l109 139h184l109 -139h-131l-86 105h32l-86 -105h-131zM289 -190v140h144v-140h-144z" />
    <glyph glyph-name="uni1EA6" unicode="&#x1ea6;" horiz-adv-x="709" 
d="M-5 0l229 686h261l229 -686h-218l-41 122h-218l-40 -122h-202zM285 267h122l-58 208h-5zM147 756l139 139h138l139 -139h-125l-84 56l-84 -56h-123zM298 945l-118 130l2 3h151l83 -133h-118z" />
    <glyph glyph-name="uni1EA8" unicode="&#x1ea8;" horiz-adv-x="709" 
d="M-5 0l229 686h261l229 -686h-218l-41 122h-218l-40 -122h-202zM285 267h122l-58 208h-5zM147 756l139 139h138l139 -139h-125l-84 56l-84 -56h-123zM334 935v64q22 3 34 12.5t12 26.5q0 13 -10.5 21t-28.5 8q-11 0 -25.5 -2.5t-31.5 -8.5v88q16 5 31.5 6t30.5 1
q50 0 83.5 -26t33.5 -74q0 -33 -19 -59t-48.5 -40.5t-61.5 -16.5z" />
    <glyph glyph-name="uni1EAA" unicode="&#x1eaa;" horiz-adv-x="709" 
d="M-5 0l229 686h261l229 -686h-218l-41 122h-218l-40 -122h-202zM285 267h122l-58 208h-5zM147 756l139 139h138l139 -139h-125l-84 56l-84 -56h-123zM163 935q0 42 15.5 73t43 48.5t62.5 17.5q34 0 57 -9t43 -18t43 -9q17 0 30 10t17 26h74q0 -42 -15.5 -73.5t-43 -48.5
t-62.5 -17q-33 0 -56.5 9t-43 18t-43.5 9q-17 0 -29.5 -10t-17.5 -26h-74z" />
    <glyph glyph-name="uni0200" unicode="&#x200;" horiz-adv-x="709" 
d="M-5 0l229 686h261l229 -686h-218l-41 122h-218l-40 -122h-202zM285 267h122l-58 208h-5zM409 753l-126 142l7 3h151l91 -145h-123zM187 753l-126 142l2 3h156l91 -145h-123z" />
    <glyph glyph-name="Adieresis" unicode="&#xc4;" horiz-adv-x="709" 
d="M-5 0l229 686h261l229 -686h-218l-41 122h-218l-40 -122h-202zM285 267h122l-58 208h-5zM156 745v140h144v-140h-144zM410 745v140h144v-140h-144z" />
    <glyph glyph-name="uni1EA0" unicode="&#x1ea0;" horiz-adv-x="709" 
d="M-5 0l229 686h261l229 -686h-218l-41 122h-218l-40 -122h-202zM285 267h122l-58 208h-5zM289 -190v140h144v-140h-144z" />
    <glyph glyph-name="Agrave" unicode="&#xc0;" horiz-adv-x="709" 
d="M-5 0l229 686h261l229 -686h-218l-41 122h-218l-40 -122h-202zM285 267h122l-58 208h-5zM290 742l-126 142l2 3h171l91 -145h-138z" />
    <glyph glyph-name="uni1EA2" unicode="&#x1ea2;" horiz-adv-x="709" 
d="M-5 0l229 686h261l229 -686h-218l-41 122h-218l-40 -122h-202zM285 267h122l-58 208h-5zM328 729v81q27 3 42 14.5t15 33.5q0 16 -12.5 26t-35.5 10q-14 0 -32 -2.5t-40 -10.5v110q20 5 39.5 7t38.5 2q62 0 104 -32.5t42 -92.5q0 -42 -24 -74t-60.5 -51t-76.5 -21z" />
    <glyph glyph-name="uni0202" unicode="&#x202;" horiz-adv-x="709" 
d="M-5 0l229 686h261l229 -686h-218l-41 122h-218l-40 -122h-202zM285 267h122l-58 208h-5zM162 751q0 44 23 77t67 51.5t105 18.5q66 0 108 -18.5t62 -51.5t20 -77h-101q-4 24 -25.5 37.5t-65.5 13.5t-66 -13.5t-27 -37.5h-100z" />
    <glyph glyph-name="Amacron" unicode="&#x100;" horiz-adv-x="709" 
d="M-5 0l229 686h261l229 -686h-218l-41 122h-218l-40 -122h-202zM285 267h122l-58 208h-5zM181 765v100h348v-100h-348z" />
    <glyph glyph-name="Aogonek" unicode="&#x104;" horiz-adv-x="709" 
d="M-5 0l229 686h261l229 -686h-218l-41 122h-218l-40 -122h-202zM285 267h122l-58 208h-5zM562 -150q-28 0 -52.5 8.5t-39.5 26t-15 44.5q0 24 12 42t28 29h118q-17 -10 -29.5 -21.5t-12.5 -28.5t10 -24t25 -7q13 0 28 4t28 9l14 -51q-23 -14 -53.5 -22.5t-60.5 -8.5z" />
    <glyph glyph-name="Aring" unicode="&#xc5;" horiz-adv-x="709" 
d="M-5 0l229 686h261l229 -686h-218l-41 122h-218l-40 -122h-202zM285 267h122l-58 208h-5zM355 720q-47 0 -79 28t-32 77q0 48 31.5 77t79.5 29q47 0 79 -29t32 -77q0 -47 -31.5 -76t-79.5 -29zM355 790q15 0 25 10.5t10 25.5q0 14 -10.5 24t-24.5 10q-15 0 -25 -10.5
t-10 -25.5q0 -14 10.5 -24t24.5 -10z" />
    <glyph glyph-name="Aringacute" unicode="&#x1fa;" horiz-adv-x="709" 
d="M-5 0l229 686h261l229 -686h-218l-41 122h-218l-40 -122h-202zM285 267h122l-58 208h-5zM300 992l60 121h137l2 -3l-92 -118h-107zM356 739q-47 0 -79 28t-32 77q0 48 31.5 77t79.5 29q47 0 79 -29t32 -77q0 -47 -31.5 -76t-79.5 -29zM356 809q15 0 25 10.5t10 25.5
q0 14 -10.5 24t-24.5 10q-15 0 -25 -10.5t-10 -25.5q0 -14 10.5 -24t24.5 -10z" />
    <glyph glyph-name="Atilde" unicode="&#xc3;" horiz-adv-x="709" 
d="M-5 0l229 686h261l229 -686h-218l-41 122h-218l-40 -122h-202zM285 267h122l-58 208h-5zM148 739q4 47 20 81.5t43.5 53.5t64.5 19q34 0 61.5 -10.5t51.5 -21t45 -10.5q20 0 31.5 11.5t15.5 29.5h81q-3 -46 -19.5 -81t-44 -54t-64.5 -19q-34 0 -61.5 10.5t-51 21
t-45.5 10.5q-19 0 -30.5 -11.5t-16.5 -29.5h-81z" />
    <glyph glyph-name="AE" unicode="&#xc6;" horiz-adv-x="1011" 
d="M-13 0l325 686h671l-20 -160h-360l19 -100h330v-153h-300l21 -113h290l20 -160h-486l-23 122h-229l-58 -122h-200zM314 267h132l-39 208h-5z" />
    <glyph glyph-name="AEacute" unicode="&#x1fc;" horiz-adv-x="1011" 
d="M-13 0l325 686h671l-20 -160h-360l19 -100h330v-153h-300l21 -113h290l20 -160h-486l-23 122h-229l-58 -122h-200zM314 267h132l-39 208h-5zM400 742l91 145h171l2 -3l-126 -142h-138z" />
    <glyph glyph-name="B" unicode="B" horiz-adv-x="656" 
d="M57 0v686h368q51 0 94 -18t68.5 -53.5t25.5 -88.5q0 -48 -16 -81.5t-42 -54.5t-57 -32v-4q24 -6 47.5 -18t42.5 -31.5t30 -46t11 -61.5q0 -59 -29 -103.5t-75 -69t-99 -24.5h-369zM250 154h115q19 0 33 8t21.5 23.5t7.5 37.5q0 20 -8.5 31.5t-22 17t-29.5 5.5h-117v-123z
M250 423h115q19 0 30 9t15.5 24t4.5 31q0 30 -14.5 41.5t-35.5 11.5h-115v-117z" />
    <glyph glyph-name="C" unicode="C" horiz-adv-x="683" 
d="M345 -10q-66 0 -123 20t-100 58.5t-67 94.5t-24 127v106q0 68 25 123t69 94.5t100.5 61t118.5 21.5h28q61 0 113.5 -18t91.5 -54.5t60.5 -91t21.5 -127.5h-197q0 51 -11 80.5t-34.5 42t-60.5 12.5q-23 0 -41.5 -7.5t-31.5 -20.5t-20 -31.5t-7 -40.5v-194q0 -29 11.5 -52
t34 -35.5t54.5 -12.5q43 0 68 12t36 41t11 80l188 1q0 -67 -21.5 -121t-60.5 -91.5t-91 -57.5t-113 -20h-28z" />
    <glyph glyph-name="Cacute" unicode="&#x106;" horiz-adv-x="683" 
d="M345 -10q-66 0 -123 20t-100 58.5t-67 94.5t-24 127v106q0 68 25 123t69 94.5t100.5 61t118.5 21.5h28q61 0 113.5 -18t91.5 -54.5t60.5 -91t21.5 -127.5h-197q0 51 -11 80.5t-34.5 42t-60.5 12.5q-23 0 -41.5 -7.5t-31.5 -20.5t-20 -31.5t-7 -40.5v-194q0 -29 11.5 -52
t34 -35.5t54.5 -12.5q43 0 68 12t36 41t11 80l188 1q0 -67 -21.5 -121t-60.5 -91.5t-91 -57.5t-113 -20h-28zM273 742l91 145h171l2 -3l-126 -142h-138z" />
    <glyph glyph-name="Ccaron" unicode="&#x10c;" horiz-adv-x="683" 
d="M345 -10q-66 0 -123 20t-100 58.5t-67 94.5t-24 127v106q0 68 25 123t69 94.5t100.5 61t118.5 21.5h28q61 0 113.5 -18t91.5 -54.5t60.5 -91t21.5 -127.5h-197q0 51 -11 80.5t-34.5 42t-60.5 12.5q-23 0 -41.5 -7.5t-31.5 -20.5t-20 -31.5t-7 -40.5v-194q0 -29 11.5 -52
t34 -35.5t54.5 -12.5q43 0 68 12t36 41t11 80l188 1q0 -67 -21.5 -121t-60.5 -91.5t-91 -57.5t-113 -20h-28zM254 746l-109 139h131l86 -105h-32l86 105h131l-109 -139h-184z" />
    <glyph glyph-name="Ccedilla" unicode="&#xc7;" horiz-adv-x="683" 
d="M345 -10q-66 0 -123 20t-100 58.5t-67 94.5t-24 127v106q0 68 25 123t69 94.5t100.5 61t118.5 21.5h28q61 0 113.5 -18t91.5 -54.5t60.5 -91t21.5 -127.5h-197q0 51 -11 80.5t-34.5 42t-60.5 12.5q-23 0 -41.5 -7.5t-31.5 -20.5t-20 -31.5t-7 -40.5v-194q0 -29 11.5 -52
t34 -35.5t54.5 -12.5q43 0 68 12t36 41t11 80l188 1q0 -67 -21.5 -121t-60.5 -91.5t-91 -57.5t-113 -20h-28zM343 -212q-32 0 -63.5 9.5t-53.5 26.5l32 61q17 -11 35.5 -20.5t47.5 -9.5q18 0 26.5 7.5t8.5 18.5q0 13 -8 17t-19 4h-22v66h38q28 0 52 -8t39.5 -26.5
t15.5 -48.5q0 -33 -18.5 -54.5t-48 -32t-62.5 -10.5z" />
    <glyph glyph-name="Ccircumflex" unicode="&#x108;" horiz-adv-x="683" 
d="M345 -10q-66 0 -123 20t-100 58.5t-67 94.5t-24 127v106q0 68 25 123t69 94.5t100.5 61t118.5 21.5h28q61 0 113.5 -18t91.5 -54.5t60.5 -91t21.5 -127.5h-197q0 51 -11 80.5t-34.5 42t-60.5 12.5q-23 0 -41.5 -7.5t-31.5 -20.5t-20 -31.5t-7 -40.5v-194q0 -29 11.5 -52
t34 -35.5t54.5 -12.5q43 0 68 12t36 41t11 80l188 1q0 -67 -21.5 -121t-60.5 -91.5t-91 -57.5t-113 -20h-28zM145 746l109 139h184l109 -139h-131l-86 105h32l-86 -105h-131z" />
    <glyph glyph-name="Cdotaccent" unicode="&#x10a;" horiz-adv-x="683" 
d="M345 -10q-66 0 -123 20t-100 58.5t-67 94.5t-24 127v106q0 68 25 123t69 94.5t100.5 61t118.5 21.5h28q61 0 113.5 -18t91.5 -54.5t60.5 -91t21.5 -127.5h-197q0 51 -11 80.5t-34.5 42t-60.5 12.5q-23 0 -41.5 -7.5t-31.5 -20.5t-20 -31.5t-7 -40.5v-194q0 -29 11.5 -52
t34 -35.5t54.5 -12.5q43 0 68 12t36 41t11 80l188 1q0 -67 -21.5 -121t-60.5 -91.5t-91 -57.5t-113 -20h-28zM274 740v140h144v-140h-144z" />
    <glyph glyph-name="D" unicode="D" horiz-adv-x="700" 
d="M57 0v686h309q62 0 117 -21.5t97 -60t65.5 -91t23.5 -114.5v-99q0 -62 -23.5 -116.5t-65.5 -95.5t-97 -64.5t-117 -23.5h-309zM268 159h78q28 0 50 13.5t35 36t13 50.5v177q0 28 -13 49t-35 33t-50 12h-78v-371z" />
    <glyph glyph-name="uni01C4" unicode="&#x1c4;" horiz-adv-x="1308" 
d="M57 0v686h309q62 0 117 -21.5t97 -60t65.5 -91t23.5 -114.5v-99q0 -62 -23.5 -116.5t-65.5 -95.5t-97 -64.5t-117 -23.5h-309zM268 159h78q28 0 50 13.5t35 36t13 50.5v177q0 28 -13 49t-35 33t-50 12h-78v-371zM714 0v61l268 465h-244v160h539v-61l-263 -464h271v-161
h-571zM924 746l-109 139h131l86 -105h-32l86 105h131l-109 -139h-184z" />
    <glyph glyph-name="Eth" unicode="&#xd0;" horiz-adv-x="700" 
d="M57 0v686h309q62 0 117 -21.5t97 -60t65.5 -91t23.5 -114.5v-99q0 -62 -23.5 -116.5t-65.5 -95.5t-97 -64.5t-117 -23.5h-309zM268 159h78q28 0 50 13.5t35 36t13 50.5v177q0 28 -13 49t-35 33t-50 12h-78v-371zM-9 285v126h414v-126h-414z" />
    <glyph glyph-name="Dcaron" unicode="&#x10e;" horiz-adv-x="700" 
d="M57 0v686h309q62 0 117 -21.5t97 -60t65.5 -91t23.5 -114.5v-99q0 -62 -23.5 -116.5t-65.5 -95.5t-97 -64.5t-117 -23.5h-309zM268 159h78q28 0 50 13.5t35 36t13 50.5v177q0 28 -13 49t-35 33t-50 12h-78v-371zM227 746l-109 139h131l86 -105h-32l86 105h131l-109 -139
h-184z" />
    <glyph glyph-name="Dcroat" unicode="&#x110;" horiz-adv-x="700" 
d="M57 0v686h309q62 0 117 -21.5t97 -60t65.5 -91t23.5 -114.5v-99q0 -62 -23.5 -116.5t-65.5 -95.5t-97 -64.5t-117 -23.5h-309zM268 159h78q28 0 50 13.5t35 36t13 50.5v177q0 28 -13 49t-35 33t-50 12h-78v-371zM-9 285v126h414v-126h-414z" />
    <glyph glyph-name="uni01C5" unicode="&#x1c5;" horiz-adv-x="1198" 
d="M57 0v686h309q62 0 117 -21.5t97 -60t65.5 -91t23.5 -114.5v-99q0 -62 -23.5 -116.5t-65.5 -95.5t-97 -64.5t-117 -23.5h-309zM268 159h78q28 0 50 13.5t35 36t13 50.5v177q0 28 -13 49t-35 33t-50 12h-78v-371zM722 0v63l188 324h-177v124h433v-60l-189 -327h197v-124
h-452zM1173 766l-139 -188h-148l-139 188h140l114 -160h-80l114 160h138z" />
    <glyph glyph-name="E" unicode="E" horiz-adv-x="600" 
d="M57 0v686h515l-20 -160h-289v-100h278v-153h-278v-113h289l20 -160h-515z" />
    <glyph glyph-name="Eacute" unicode="&#xc9;" horiz-adv-x="600" 
d="M57 0v686h515l-20 -160h-289v-100h278v-153h-278v-113h289l20 -160h-515zM245 742l91 145h171l2 -3l-126 -142h-138z" />
    <glyph glyph-name="Ebreve" unicode="&#x114;" horiz-adv-x="600" 
d="M57 0v686h515l-20 -160h-289v-100h278v-153h-278v-113h289l20 -160h-515zM314 736q-94 0 -136.5 40.5t-42.5 106.5h101q3 -24 22.5 -37.5t59.5 -13.5t59.5 13.5t23.5 37.5h100q0 -66 -49.5 -106.5t-137.5 -40.5z" />
    <glyph glyph-name="Ecaron" unicode="&#x11a;" horiz-adv-x="600" 
d="M57 0v686h515l-20 -160h-289v-100h278v-153h-278v-113h289l20 -160h-515zM226 746l-109 139h131l86 -105h-32l86 105h131l-109 -139h-184z" />
    <glyph glyph-name="Ecircumflex" unicode="&#xca;" horiz-adv-x="600" 
d="M57 0v686h515l-20 -160h-289v-100h278v-153h-278v-113h289l20 -160h-515zM117 746l109 139h184l109 -139h-131l-86 105h32l-86 -105h-131z" />
    <glyph glyph-name="uni1EBE" unicode="&#x1ebe;" horiz-adv-x="600" 
d="M57 0v686h515l-20 -160h-289v-100h278v-153h-278v-113h289l20 -160h-515zM110 756l139 139h138l139 -139h-125l-84 56l-84 -56h-123zM256 945l83 133h151l2 -3l-118 -130h-118z" />
    <glyph glyph-name="uni1EC6" unicode="&#x1ec6;" horiz-adv-x="600" 
d="M57 0v686h515l-20 -160h-289v-100h278v-153h-278v-113h289l20 -160h-515zM117 746l109 139h184l109 -139h-131l-86 105h32l-86 -105h-131zM259 -190v140h144v-140h-144z" />
    <glyph glyph-name="uni1EC0" unicode="&#x1ec0;" horiz-adv-x="600" 
d="M57 0v686h515l-20 -160h-289v-100h278v-153h-278v-113h289l20 -160h-515zM110 756l139 139h138l139 -139h-125l-84 56l-84 -56h-123zM261 945l-118 130l2 3h151l83 -133h-118z" />
    <glyph glyph-name="uni1EC2" unicode="&#x1ec2;" horiz-adv-x="600" 
d="M57 0v686h515l-20 -160h-289v-100h278v-153h-278v-113h289l20 -160h-515zM110 756l139 139h138l139 -139h-125l-84 56l-84 -56h-123zM297 935v64q22 3 34 12.5t12 26.5q0 13 -10.5 21t-28.5 8q-11 0 -25.5 -2.5t-31.5 -8.5v88q16 5 31.5 6t30.5 1q50 0 83.5 -26t33.5 -74
q0 -33 -19 -59t-48.5 -40.5t-61.5 -16.5z" />
    <glyph glyph-name="uni1EC4" unicode="&#x1ec4;" horiz-adv-x="600" 
d="M57 0v686h515l-20 -160h-289v-100h278v-153h-278v-113h289l20 -160h-515zM110 756l139 139h138l139 -139h-125l-84 56l-84 -56h-123zM126 935q0 42 15.5 73t43 48.5t62.5 17.5q34 0 57 -9t43 -18t43 -9q17 0 30 10t17 26h74q0 -42 -15.5 -73.5t-43 -48.5t-62.5 -17
q-33 0 -56.5 9t-43 18t-43.5 9q-17 0 -29.5 -10t-17.5 -26h-74z" />
    <glyph glyph-name="uni0204" unicode="&#x204;" horiz-adv-x="600" 
d="M57 0v686h515l-20 -160h-289v-100h278v-153h-278v-113h289l20 -160h-515zM372 753l-126 142l7 3h151l91 -145h-123zM150 753l-126 142l2 3h156l91 -145h-123z" />
    <glyph glyph-name="Edieresis" unicode="&#xcb;" horiz-adv-x="600" 
d="M57 0v686h515l-20 -160h-289v-100h278v-153h-278v-113h289l20 -160h-515zM119 745v140h144v-140h-144zM373 745v140h144v-140h-144z" />
    <glyph glyph-name="Edotaccent" unicode="&#x116;" horiz-adv-x="600" 
d="M57 0v686h515l-20 -160h-289v-100h278v-153h-278v-113h289l20 -160h-515zM246 740v140h144v-140h-144z" />
    <glyph glyph-name="uni1EB8" unicode="&#x1eb8;" horiz-adv-x="600" 
d="M57 0v686h515l-20 -160h-289v-100h278v-153h-278v-113h289l20 -160h-515zM259 -190v140h144v-140h-144z" />
    <glyph glyph-name="Egrave" unicode="&#xc8;" horiz-adv-x="600" 
d="M57 0v686h515l-20 -160h-289v-100h278v-153h-278v-113h289l20 -160h-515zM253 742l-126 142l2 3h171l91 -145h-138z" />
    <glyph glyph-name="uni1EBA" unicode="&#x1eba;" horiz-adv-x="600" 
d="M57 0v686h515l-20 -160h-289v-100h278v-153h-278v-113h289l20 -160h-515zM291 729v81q27 3 42 14.5t15 33.5q0 16 -12.5 26t-35.5 10q-14 0 -32 -2.5t-40 -10.5v110q20 5 39.5 7t38.5 2q62 0 104 -32.5t42 -92.5q0 -42 -24 -74t-60.5 -51t-76.5 -21z" />
    <glyph glyph-name="uni0206" unicode="&#x206;" horiz-adv-x="600" 
d="M57 0v686h515l-20 -160h-289v-100h278v-153h-278v-113h289l20 -160h-515zM125 751q0 44 23 77t67 51.5t105 18.5q66 0 108 -18.5t62 -51.5t20 -77h-101q-4 24 -25.5 37.5t-65.5 13.5t-66 -13.5t-27 -37.5h-100z" />
    <glyph glyph-name="Emacron" unicode="&#x112;" horiz-adv-x="600" 
d="M57 0v686h515l-20 -160h-289v-100h278v-153h-278v-113h289l20 -160h-515zM144 765v100h348v-100h-348z" />
    <glyph glyph-name="Eogonek" unicode="&#x118;" horiz-adv-x="600" 
d="M57 0v686h515l-20 -160h-289v-100h278v-153h-278v-113h289l20 -160h-515zM504 -150q-28 0 -52.5 8.5t-39.5 26t-15 44.5q0 24 12 42t28 29h118q-17 -10 -29.5 -21.5t-12.5 -28.5t10 -24t25 -7q13 0 28 4t28 9l14 -51q-23 -14 -53.5 -22.5t-60.5 -8.5z" />
    <glyph glyph-name="uni1EBC" unicode="&#x1ebc;" horiz-adv-x="600" 
d="M57 0v686h515l-20 -160h-289v-100h278v-153h-278v-113h289l20 -160h-515zM111 739q4 47 20 81.5t43.5 53.5t64.5 19q34 0 61.5 -10.5t51.5 -21t45 -10.5q20 0 31.5 11.5t15.5 29.5h81q-3 -46 -19.5 -81t-44 -54t-64.5 -19q-34 0 -61.5 10.5t-51 21t-45.5 10.5
q-19 0 -30.5 -11.5t-16.5 -29.5h-81z" />
    <glyph glyph-name="uni018F" unicode="&#x18f;" horiz-adv-x="714" 
d="M332 -10q-62 0 -116 20.5t-94 58t-62.5 89.5t-22.5 114v93h226v-145q0 -22 7 -38.5t20 -28t31 -17.5t39 -6q23 0 41 6t31 18t19.5 28.5t6.5 37.5v220q0 21 -5.5 39t-16.5 32t-29 21.5t-43 7.5q-27 0 -51 -9t-39.5 -28.5t-15.5 -51.5v-14h-216v23q0 54 26 97t68.5 73.5
t93.5 47t102 16.5h58q62 0 115.5 -23.5t93.5 -64.5t62 -95.5t22 -116.5v-104q0 -62 -22.5 -116.5t-62.5 -95.5t-94 -64.5t-116 -23.5h-56zM91 220v145h556v-145h-556z" />
    <glyph glyph-name="F" unicode="F" horiz-adv-x="562" 
d="M57 0v686h496l-20 -160h-271v-115h252v-153h-252v-258h-205z" />
    <glyph glyph-name="uni0191" unicode="&#x191;" horiz-adv-x="562" 
d="M73 -187q-17 0 -42.5 3t-50.5 8t-41 11v112q11 -5 31 -8.5t31 -3.5q21 0 38.5 12.5t17.5 56.5v682h496l-20 -160h-271v-115h252v-153h-252v-284q0 -81 -53.5 -121t-135.5 -40z" />
    <glyph glyph-name="G" unicode="G" horiz-adv-x="699" 
d="M317 -10q-62 0 -114 23.5t-90.5 64.5t-60 95.5t-21.5 116.5v106q0 62 23 116.5t66 95.5t101.5 64.5t128.5 23.5h28q59 0 109.5 -19t88.5 -53.5t59 -81.5t21 -103h-194q0 33 -12 55.5t-35.5 34t-57.5 11.5q-23 0 -41.5 -7.5t-32 -21.5t-20.5 -32t-7 -39v-194q0 -21 7 -39
t20.5 -32t32 -21.5t41.5 -7.5q26 0 45.5 5t32.5 16t20 27.5t7 40.5v13h-116v136h310v-240q0 -46 1.5 -76t5.5 -68h-112l-28 73q-31 -36 -85.5 -59.5t-110.5 -23.5h-10z" />
    <glyph glyph-name="Gbreve" unicode="&#x11e;" horiz-adv-x="699" 
d="M317 -10q-62 0 -114 23.5t-90.5 64.5t-60 95.5t-21.5 116.5v106q0 62 23 116.5t66 95.5t101.5 64.5t128.5 23.5h28q59 0 109.5 -19t88.5 -53.5t59 -81.5t21 -103h-194q0 33 -12 55.5t-35.5 34t-57.5 11.5q-23 0 -41.5 -7.5t-32 -21.5t-20.5 -32t-7 -39v-194q0 -21 7 -39
t20.5 -32t32 -21.5t41.5 -7.5q26 0 45.5 5t32.5 16t20 27.5t7 40.5v13h-116v136h310v-240q0 -46 1.5 -76t5.5 -68h-112l-28 73q-31 -36 -85.5 -59.5t-110.5 -23.5h-10zM357 736q-94 0 -136.5 40.5t-42.5 106.5h101q3 -24 22.5 -37.5t59.5 -13.5t59.5 13.5t23.5 37.5h100
q0 -66 -49.5 -106.5t-137.5 -40.5z" />
    <glyph glyph-name="Gcaron" unicode="&#x1e6;" horiz-adv-x="699" 
d="M317 -10q-62 0 -114 23.5t-90.5 64.5t-60 95.5t-21.5 116.5v106q0 62 23 116.5t66 95.5t101.5 64.5t128.5 23.5h28q59 0 109.5 -19t88.5 -53.5t59 -81.5t21 -103h-194q0 33 -12 55.5t-35.5 34t-57.5 11.5q-23 0 -41.5 -7.5t-32 -21.5t-20.5 -32t-7 -39v-194q0 -21 7 -39
t20.5 -32t32 -21.5t41.5 -7.5q26 0 45.5 5t32.5 16t20 27.5t7 40.5v13h-116v136h310v-240q0 -46 1.5 -76t5.5 -68h-112l-28 73q-31 -36 -85.5 -59.5t-110.5 -23.5h-10zM269 746l-109 139h131l86 -105h-32l86 105h131l-109 -139h-184z" />
    <glyph glyph-name="Gcircumflex" unicode="&#x11c;" horiz-adv-x="699" 
d="M317 -10q-62 0 -114 23.5t-90.5 64.5t-60 95.5t-21.5 116.5v106q0 62 23 116.5t66 95.5t101.5 64.5t128.5 23.5h28q59 0 109.5 -19t88.5 -53.5t59 -81.5t21 -103h-194q0 33 -12 55.5t-35.5 34t-57.5 11.5q-23 0 -41.5 -7.5t-32 -21.5t-20.5 -32t-7 -39v-194q0 -21 7 -39
t20.5 -32t32 -21.5t41.5 -7.5q26 0 45.5 5t32.5 16t20 27.5t7 40.5v13h-116v136h310v-240q0 -46 1.5 -76t5.5 -68h-112l-28 73q-31 -36 -85.5 -59.5t-110.5 -23.5h-10zM160 746l109 139h184l109 -139h-131l-86 105h32l-86 -105h-131z" />
    <glyph glyph-name="uni0122" unicode="&#x122;" horiz-adv-x="699" 
d="M317 -10q-62 0 -114 23.5t-90.5 64.5t-60 95.5t-21.5 116.5v106q0 62 23 116.5t66 95.5t101.5 64.5t128.5 23.5h28q59 0 109.5 -19t88.5 -53.5t59 -81.5t21 -103h-194q0 33 -12 55.5t-35.5 34t-57.5 11.5q-23 0 -41.5 -7.5t-32 -21.5t-20.5 -32t-7 -39v-194q0 -21 7 -39
t20.5 -32t32 -21.5t41.5 -7.5q26 0 45.5 5t32.5 16t20 27.5t7 40.5v13h-116v136h310v-240q0 -46 1.5 -76t5.5 -68h-112l-28 73q-31 -36 -85.5 -59.5t-110.5 -23.5h-10zM274 -413v20q35 35 52 73t17 78h-73v165h159v-139q0 -56 -18 -107t-55 -90h-82z" />
    <glyph glyph-name="Gdotaccent" unicode="&#x120;" horiz-adv-x="699" 
d="M317 -10q-62 0 -114 23.5t-90.5 64.5t-60 95.5t-21.5 116.5v106q0 62 23 116.5t66 95.5t101.5 64.5t128.5 23.5h28q59 0 109.5 -19t88.5 -53.5t59 -81.5t21 -103h-194q0 33 -12 55.5t-35.5 34t-57.5 11.5q-23 0 -41.5 -7.5t-32 -21.5t-20.5 -32t-7 -39v-194q0 -21 7 -39
t20.5 -32t32 -21.5t41.5 -7.5q26 0 45.5 5t32.5 16t20 27.5t7 40.5v13h-116v136h310v-240q0 -46 1.5 -76t5.5 -68h-112l-28 73q-31 -36 -85.5 -59.5t-110.5 -23.5h-10zM289 740v140h144v-140h-144z" />
    <glyph glyph-name="uni01E4" unicode="&#x1e4;" horiz-adv-x="699" 
d="M317 -10q-62 0 -114 23.5t-90.5 64.5t-60 95.5t-21.5 116.5v106q0 62 23 116.5t66 95.5t101.5 64.5t128.5 23.5h28q59 0 109.5 -19t88.5 -53.5t59 -81.5t21 -103h-194q0 33 -12 55.5t-35.5 34t-57.5 11.5q-23 0 -41.5 -7.5t-32 -21.5t-20.5 -32t-7 -39v-214q0 -21 7 -39
t20.5 -32t32 -21.5t41.5 -7.5q26 0 45.5 5t32.5 16t20 27.5t7 40.5v63h-116v106h310v-240q0 -46 1.5 -76t5.5 -68h-112l-28 73q-31 -36 -85.5 -59.5t-110.5 -23.5h-10zM374 176v68h322v-68h-322z" />
    <glyph glyph-name="H" unicode="H" horiz-adv-x="697" 
d="M57 0v686h211v-253h161v253h211v-686h-210v267h-161v-267h-212z" />
    <glyph glyph-name="Hbar" unicode="&#x126;" horiz-adv-x="697" 
d="M57 0v686h211v-253h161v253h211v-686h-210v267h-161v-267h-212zM8 484v126h684v-126h-684z" />
    <glyph glyph-name="Hcircumflex" unicode="&#x124;" horiz-adv-x="697" 
d="M57 0v686h211v-253h161v253h211v-686h-210v267h-161v-267h-212zM147 746l109 139h184l109 -139h-131l-86 105h32l-86 -105h-131z" />
    <glyph glyph-name="uni1E24" unicode="&#x1e24;" horiz-adv-x="697" 
d="M57 0v686h211v-253h161v253h211v-686h-210v267h-161v-267h-212zM280 -190v140h144v-140h-144z" />
    <glyph glyph-name="I" unicode="I" horiz-adv-x="446" 
d="M36 0v148h82v390h-82v148h374v-148h-81v-390h81v-148h-374z" />
    <glyph glyph-name="IJ" unicode="&#x132;" horiz-adv-x="991" 
d="M36 0v148h82v390h-82v148h374v-148h-81v-390h81v-148h-374zM677 -10q-67 0 -116.5 22t-76.5 64.5t-27 103.5v74h193v-62q0 -21 12 -33.5t29 -12.5q12 0 21.5 5.5t15 16t5.5 24.5v494h205v-492q0 -62 -29.5 -108t-81.5 -71t-119 -25h-31z" />
    <glyph glyph-name="Iacute" unicode="&#xcd;" horiz-adv-x="446" 
d="M36 0v148h82v390h-82v148h374v-148h-81v-390h81v-148h-374zM149 742l91 145h171l2 -3l-126 -142h-138z" />
    <glyph glyph-name="Ibreve" unicode="&#x12c;" horiz-adv-x="446" 
d="M36 0v148h82v390h-82v148h374v-148h-81v-390h81v-148h-374zM218 736q-94 0 -136.5 40.5t-42.5 106.5h101q3 -24 22.5 -37.5t59.5 -13.5t59.5 13.5t23.5 37.5h100q0 -66 -49.5 -106.5t-137.5 -40.5z" />
    <glyph glyph-name="uni01CF" unicode="&#x1cf;" horiz-adv-x="446" 
d="M36 0v148h82v390h-82v148h374v-148h-81v-390h81v-148h-374zM130 746l-109 139h131l86 -105h-32l86 105h131l-109 -139h-184z" />
    <glyph glyph-name="Icircumflex" unicode="&#xce;" horiz-adv-x="446" 
d="M36 0v148h82v390h-82v148h374v-148h-81v-390h81v-148h-374zM21 746l109 139h184l109 -139h-131l-86 105h32l-86 -105h-131z" />
    <glyph glyph-name="uni0208" unicode="&#x208;" horiz-adv-x="446" 
d="M36 0v148h82v390h-82v148h374v-148h-81v-390h81v-148h-374zM276 753l-126 142l7 3h151l91 -145h-123zM54 753l-126 142l2 3h156l91 -145h-123z" />
    <glyph glyph-name="Idieresis" unicode="&#xcf;" horiz-adv-x="446" 
d="M36 0v148h82v390h-82v148h374v-148h-81v-390h81v-148h-374zM23 745v140h144v-140h-144zM277 745v140h144v-140h-144z" />
    <glyph glyph-name="Idotaccent" unicode="&#x130;" horiz-adv-x="446" 
d="M36 0v148h82v390h-82v148h374v-148h-81v-390h81v-148h-374zM150 740v140h144v-140h-144z" />
    <glyph glyph-name="uni1ECA" unicode="&#x1eca;" horiz-adv-x="446" 
d="M36 0v148h82v390h-82v148h374v-148h-81v-390h81v-148h-374zM155 -190v140h144v-140h-144z" />
    <glyph glyph-name="Igrave" unicode="&#xcc;" horiz-adv-x="446" 
d="M36 0v148h82v390h-82v148h374v-148h-81v-390h81v-148h-374zM157 742l-126 142l2 3h171l91 -145h-138z" />
    <glyph glyph-name="uni1EC8" unicode="&#x1ec8;" horiz-adv-x="446" 
d="M36 0v148h82v390h-82v148h374v-148h-81v-390h81v-148h-374zM195 729v81q27 3 42 14.5t15 33.5q0 16 -12.5 26t-35.5 10q-14 0 -32 -2.5t-40 -10.5v110q20 5 39.5 7t38.5 2q62 0 104 -32.5t42 -92.5q0 -42 -24 -74t-60.5 -51t-76.5 -21z" />
    <glyph glyph-name="uni020A" unicode="&#x20a;" horiz-adv-x="446" 
d="M36 0v148h82v390h-82v148h374v-148h-81v-390h81v-148h-374zM29 751q0 44 23 77t67 51.5t105 18.5q66 0 108 -18.5t62 -51.5t20 -77h-101q-4 24 -25.5 37.5t-65.5 13.5t-66 -13.5t-27 -37.5h-100z" />
    <glyph glyph-name="Imacron" unicode="&#x12a;" horiz-adv-x="446" 
d="M36 0v148h82v390h-82v148h374v-148h-81v-390h81v-148h-374zM48 765v100h348v-100h-348z" />
    <glyph glyph-name="Iogonek" unicode="&#x12e;" horiz-adv-x="446" 
d="M36 0v148h82v390h-82v148h374v-148h-81v-390h81v-148h-374zM363 -150q-28 0 -52.5 8.5t-39.5 26t-15 44.5q0 24 12 42t28 29h118q-17 -10 -29.5 -21.5t-12.5 -28.5t10 -24t25 -7q13 0 28 4t28 9l14 -51q-23 -14 -53.5 -22.5t-60.5 -8.5z" />
    <glyph glyph-name="uni0197" unicode="&#x197;" horiz-adv-x="446" 
d="M47 411h352v-134h-352v134zM36 0v148h82v390h-82v148h374v-148h-81v-390h81v-148h-374z" />
    <glyph glyph-name="Itilde" unicode="&#x128;" horiz-adv-x="446" 
d="M36 0v148h82v390h-82v148h374v-148h-81v-390h81v-148h-374zM15 739q4 47 20 81.5t43.5 53.5t64.5 19q34 0 61.5 -10.5t51.5 -21t45 -10.5q20 0 31.5 11.5t15.5 29.5h81q-3 -46 -19.5 -81t-44 -54t-64.5 -19q-34 0 -61.5 10.5t-51 21t-45.5 10.5q-19 0 -30.5 -11.5
t-16.5 -29.5h-81z" />
    <glyph glyph-name="J" unicode="J" horiz-adv-x="545" 
d="M231 -10q-67 0 -116.5 22t-76.5 64.5t-27 103.5v74h193v-62q0 -21 12 -33.5t29 -12.5q12 0 21.5 5.5t15 16t5.5 24.5v494h205v-492q0 -62 -29.5 -108t-81.5 -71t-119 -25h-31z" />
    <glyph glyph-name="Jcircumflex" unicode="&#x134;" horiz-adv-x="545" 
d="M231 -10q-67 0 -116.5 22t-76.5 64.5t-27 103.5v74h193v-62q0 -21 12 -33.5t29 -12.5q12 0 21.5 5.5t15 16t5.5 24.5v494h205v-492q0 -62 -29.5 -108t-81.5 -71t-119 -25h-31zM188 746l109 139h184l109 -139h-131l-86 105h32l-86 -105h-131z" />
    <glyph glyph-name="K" unicode="K" horiz-adv-x="685" 
d="M57 0v686h211v-271l197 271h224l-209 -275l215 -411h-235l-119 248l-73 -86v-162h-211z" />
    <glyph glyph-name="uni0136" unicode="&#x136;" horiz-adv-x="685" 
d="M57 0v686h211v-271l197 271h224l-209 -275l215 -411h-235l-119 248l-73 -86v-162h-211zM278 -413v20q35 35 52 73t17 78h-73v165h159v-139q0 -56 -18 -107t-55 -90h-82z" />
    <glyph glyph-name="L" unicode="L" horiz-adv-x="544" 
d="M57 0v686h211v-518h250l20 -168h-481z" />
    <glyph glyph-name="uni01C7" unicode="&#x1c7;" horiz-adv-x="1089" 
d="M57 0v686h211v-518h250l20 -168h-481zM775 -10q-67 0 -116.5 22t-76.5 64.5t-27 103.5v74h193v-62q0 -21 12 -33.5t29 -12.5q12 0 21.5 5.5t15 16t5.5 24.5v494h205v-492q0 -62 -29.5 -108t-81.5 -71t-119 -25h-31z" />
    <glyph glyph-name="Lacute" unicode="&#x139;" horiz-adv-x="544" 
d="M57 0v686h211v-518h250l20 -168h-481zM89 742l91 145h171l2 -3l-126 -142h-138z" />
    <glyph glyph-name="Lcaron" unicode="&#x13d;" horiz-adv-x="544" 
d="M57 0v686h211v-518h250l20 -168h-481zM378 378v19q31 32 47.5 65.5t16.5 71.5h-69v152h150v-128q0 -52 -17.5 -97.5t-51.5 -82.5h-76z" />
    <glyph glyph-name="uni013B" unicode="&#x13b;" horiz-adv-x="544" 
d="M57 0v686h211v-518h250l20 -168h-481zM224 -413v20q35 35 52 73t17 78h-73v165h159v-139q0 -56 -18 -107t-55 -90h-82z" />
    <glyph glyph-name="Ldot" unicode="&#x13f;" horiz-adv-x="544" 
d="M57 0v686h211v-518h250l20 -168h-481zM332 322v183h191v-183h-191z" />
    <glyph glyph-name="uni01C8" unicode="&#x1c8;" horiz-adv-x="843" 
d="M57 0v686h211v-518h250l20 -168h-481zM610 -187q-17 0 -42.5 3t-50.5 8t-41 11v112q11 -5 31 -8.5t31 -3.5q21 0 39 12.5t18 56.5v506h198v-536q0 -81 -50.5 -121t-132.5 -40zM595 577v143h198v-143h-198z" />
    <glyph glyph-name="Lslash" unicode="&#x141;" horiz-adv-x="544" 
d="M57 0v686h211v-518h250l20 -168h-481zM-2 260v105l369 184v-105z" />
    <glyph glyph-name="M" unicode="M" horiz-adv-x="1004" 
d="M57 0v686h344l99 -366h4l97 366h346v-686h-210v440h-4l-120 -440h-241l-119 440h-5v-440h-191z" />
    <glyph glyph-name="N" unicode="N" horiz-adv-x="696" 
d="M57 0v686h176l177 -255l31 -59l5 3v311h193v-686h-180l-183 264l-21 42l-5 -2v-304h-193z" />
    <glyph glyph-name="uni01CA" unicode="&#x1ca;" horiz-adv-x="1241" 
d="M57 0v686h176l177 -255l31 -59l5 3v311h193v-686h-180l-183 264l-21 42l-5 -2v-304h-193zM927 -10q-67 0 -116.5 22t-76.5 64.5t-27 103.5v74h193v-62q0 -21 12 -33.5t29 -12.5q12 0 21.5 5.5t15 16t5.5 24.5v494h205v-492q0 -62 -29.5 -108t-81.5 -71t-119 -25h-31z" />
    <glyph glyph-name="Nacute" unicode="&#x143;" horiz-adv-x="696" 
d="M57 0v686h176l177 -255l31 -59l5 3v311h193v-686h-180l-183 264l-21 42l-5 -2v-304h-193zM282 742l91 145h171l2 -3l-126 -142h-138z" />
    <glyph glyph-name="Ncaron" unicode="&#x147;" horiz-adv-x="696" 
d="M57 0v686h176l177 -255l31 -59l5 3v311h193v-686h-180l-183 264l-21 42l-5 -2v-304h-193zM263 746l-109 139h131l86 -105h-32l86 105h131l-109 -139h-184z" />
    <glyph glyph-name="uni0145" unicode="&#x145;" horiz-adv-x="696" 
d="M57 0v686h176l177 -255l31 -59l5 3v311h193v-686h-180l-183 264l-21 42l-5 -2v-304h-193zM276 -413v20q35 35 52 73t17 78h-73v165h159v-139q0 -56 -18 -107t-55 -90h-82z" />
    <glyph glyph-name="uni019D" unicode="&#x19d;" horiz-adv-x="696" 
d="M73 -187q-17 0 -42.5 3t-50.5 8t-41 11v112q11 -5 31 -8.5t31 -3.5q21 0 38.5 12.5t17.5 56.5v682h176l177 -255l31 -59l5 3v311h193v-686h-180l-183 264l-21 42l-5 -2v-330q0 -81 -47.5 -121t-129.5 -40z" />
    <glyph glyph-name="uni01CB" unicode="&#x1cb;" horiz-adv-x="995" 
d="M57 0v686h176l177 -255l31 -59l5 3v311h193v-686h-180l-183 264l-21 42l-5 -2v-304h-193zM762 -187q-17 0 -42.5 3t-50.5 8t-41 11v112q11 -5 31 -8.5t31 -3.5q21 0 39 12.5t18 56.5v506h198v-536q0 -81 -50.5 -121t-132.5 -40zM747 577v143h198v-143h-198z" />
    <glyph glyph-name="Ntilde" unicode="&#xd1;" horiz-adv-x="696" 
d="M57 0v686h176l177 -255l31 -59l5 3v311h193v-686h-180l-183 264l-21 42l-5 -2v-304h-193zM148 739q4 47 20 81.5t43.5 53.5t64.5 19q34 0 61.5 -10.5t51.5 -21t45 -10.5q20 0 31.5 11.5t15.5 29.5h81q-3 -46 -19.5 -81t-44 -54t-64.5 -19q-34 0 -61.5 10.5t-51 21
t-45.5 10.5q-19 0 -30.5 -11.5t-16.5 -29.5h-81z" />
    <glyph glyph-name="Eng" unicode="&#x14a;" horiz-adv-x="696" 
d="M456 -187q-17 0 -42.5 3t-50.5 8t-41 11v112q11 -5 31 -8.5t31 -3.5q21 0 38.5 12.5t17.5 56.5v23l-164 237l-21 42l-5 -2v-304h-193v686h176l177 -255l31 -59l5 3v311h193v-712q0 -81 -50.5 -121t-132.5 -40z" />
    <glyph glyph-name="O" unicode="O" horiz-adv-x="718" 
d="M331 -10q-62 0 -116.5 23.5t-95.5 64.5t-64.5 95.5t-23.5 116.5v104q0 62 23.5 116.5t64.5 95.5t95.5 64.5t116.5 23.5h56q62 0 116.5 -23.5t95.5 -64.5t64.5 -95.5t23.5 -116.5v-104q0 -62 -23.5 -116.5t-64.5 -95.5t-95.5 -64.5t-116.5 -23.5h-56zM359 146q23 0 41.5 8
t32.5 21.5t21.5 31.5t7.5 39v192q0 21 -7.5 39t-21.5 32t-32.5 21.5t-41.5 7.5q-22 0 -41 -8t-33 -21.5t-21.5 -31.5t-7.5 -39v-192q0 -21 7.5 -39t21.5 -32t33 -21.5t41 -7.5z" />
    <glyph glyph-name="Oacute" unicode="&#xd3;" horiz-adv-x="718" 
d="M331 -10q-62 0 -116.5 23.5t-95.5 64.5t-64.5 95.5t-23.5 116.5v104q0 62 23.5 116.5t64.5 95.5t95.5 64.5t116.5 23.5h56q62 0 116.5 -23.5t95.5 -64.5t64.5 -95.5t23.5 -116.5v-104q0 -62 -23.5 -116.5t-64.5 -95.5t-95.5 -64.5t-116.5 -23.5h-56zM359 146q23 0 41.5 8
t32.5 21.5t21.5 31.5t7.5 39v192q0 21 -7.5 39t-21.5 32t-32.5 21.5t-41.5 7.5q-22 0 -41 -8t-33 -21.5t-21.5 -31.5t-7.5 -39v-192q0 -21 7.5 -39t21.5 -32t33 -21.5t41 -7.5zM286 742l91 145h171l2 -3l-126 -142h-138z" />
    <glyph glyph-name="Obreve" unicode="&#x14e;" horiz-adv-x="718" 
d="M331 -10q-62 0 -116.5 23.5t-95.5 64.5t-64.5 95.5t-23.5 116.5v104q0 62 23.5 116.5t64.5 95.5t95.5 64.5t116.5 23.5h56q62 0 116.5 -23.5t95.5 -64.5t64.5 -95.5t23.5 -116.5v-104q0 -62 -23.5 -116.5t-64.5 -95.5t-95.5 -64.5t-116.5 -23.5h-56zM359 146q23 0 41.5 8
t32.5 21.5t21.5 31.5t7.5 39v192q0 21 -7.5 39t-21.5 32t-32.5 21.5t-41.5 7.5q-22 0 -41 -8t-33 -21.5t-21.5 -31.5t-7.5 -39v-192q0 -21 7.5 -39t21.5 -32t33 -21.5t41 -7.5zM355 736q-94 0 -136.5 40.5t-42.5 106.5h101q3 -24 22.5 -37.5t59.5 -13.5t59.5 13.5t23.5 37.5
h100q0 -66 -49.5 -106.5t-137.5 -40.5z" />
    <glyph glyph-name="uni01D1" unicode="&#x1d1;" horiz-adv-x="718" 
d="M331 -10q-62 0 -116.5 23.5t-95.5 64.5t-64.5 95.5t-23.5 116.5v104q0 62 23.5 116.5t64.5 95.5t95.5 64.5t116.5 23.5h56q62 0 116.5 -23.5t95.5 -64.5t64.5 -95.5t23.5 -116.5v-104q0 -62 -23.5 -116.5t-64.5 -95.5t-95.5 -64.5t-116.5 -23.5h-56zM359 146q23 0 41.5 8
t32.5 21.5t21.5 31.5t7.5 39v192q0 21 -7.5 39t-21.5 32t-32.5 21.5t-41.5 7.5q-22 0 -41 -8t-33 -21.5t-21.5 -31.5t-7.5 -39v-192q0 -21 7.5 -39t21.5 -32t33 -21.5t41 -7.5zM267 746l-109 139h131l86 -105h-32l86 105h131l-109 -139h-184z" />
    <glyph glyph-name="Ocircumflex" unicode="&#xd4;" horiz-adv-x="718" 
d="M331 -10q-62 0 -116.5 23.5t-95.5 64.5t-64.5 95.5t-23.5 116.5v104q0 62 23.5 116.5t64.5 95.5t95.5 64.5t116.5 23.5h56q62 0 116.5 -23.5t95.5 -64.5t64.5 -95.5t23.5 -116.5v-104q0 -62 -23.5 -116.5t-64.5 -95.5t-95.5 -64.5t-116.5 -23.5h-56zM359 146q23 0 41.5 8
t32.5 21.5t21.5 31.5t7.5 39v192q0 21 -7.5 39t-21.5 32t-32.5 21.5t-41.5 7.5q-22 0 -41 -8t-33 -21.5t-21.5 -31.5t-7.5 -39v-192q0 -21 7.5 -39t21.5 -32t33 -21.5t41 -7.5zM158 746l109 139h184l109 -139h-131l-86 105h32l-86 -105h-131z" />
    <glyph glyph-name="uni1ED0" unicode="&#x1ed0;" horiz-adv-x="718" 
d="M331 -10q-62 0 -116.5 23.5t-95.5 64.5t-64.5 95.5t-23.5 116.5v104q0 62 23.5 116.5t64.5 95.5t95.5 64.5t116.5 23.5h56q62 0 116.5 -23.5t95.5 -64.5t64.5 -95.5t23.5 -116.5v-104q0 -62 -23.5 -116.5t-64.5 -95.5t-95.5 -64.5t-116.5 -23.5h-56zM359 146q23 0 41.5 8
t32.5 21.5t21.5 31.5t7.5 39v192q0 21 -7.5 39t-21.5 32t-32.5 21.5t-41.5 7.5q-22 0 -41 -8t-33 -21.5t-21.5 -31.5t-7.5 -39v-192q0 -21 7.5 -39t21.5 -32t33 -21.5t41 -7.5zM151 756l139 139h138l139 -139h-125l-84 56l-84 -56h-123zM297 945l83 133h151l2 -3l-118 -130
h-118z" />
    <glyph glyph-name="uni1ED8" unicode="&#x1ed8;" horiz-adv-x="718" 
d="M331 -10q-62 0 -116.5 23.5t-95.5 64.5t-64.5 95.5t-23.5 116.5v104q0 62 23.5 116.5t64.5 95.5t95.5 64.5t116.5 23.5h56q62 0 116.5 -23.5t95.5 -64.5t64.5 -95.5t23.5 -116.5v-104q0 -62 -23.5 -116.5t-64.5 -95.5t-95.5 -64.5t-116.5 -23.5h-56zM359 146q23 0 41.5 8
t32.5 21.5t21.5 31.5t7.5 39v192q0 21 -7.5 39t-21.5 32t-32.5 21.5t-41.5 7.5q-22 0 -41 -8t-33 -21.5t-21.5 -31.5t-7.5 -39v-192q0 -21 7.5 -39t21.5 -32t33 -21.5t41 -7.5zM158 746l109 139h184l109 -139h-131l-86 105h32l-86 -105h-131zM307 -190v140h144v-140h-144z
" />
    <glyph glyph-name="uni1ED2" unicode="&#x1ed2;" horiz-adv-x="718" 
d="M331 -10q-62 0 -116.5 23.5t-95.5 64.5t-64.5 95.5t-23.5 116.5v104q0 62 23.5 116.5t64.5 95.5t95.5 64.5t116.5 23.5h56q62 0 116.5 -23.5t95.5 -64.5t64.5 -95.5t23.5 -116.5v-104q0 -62 -23.5 -116.5t-64.5 -95.5t-95.5 -64.5t-116.5 -23.5h-56zM359 146q23 0 41.5 8
t32.5 21.5t21.5 31.5t7.5 39v192q0 21 -7.5 39t-21.5 32t-32.5 21.5t-41.5 7.5q-22 0 -41 -8t-33 -21.5t-21.5 -31.5t-7.5 -39v-192q0 -21 7.5 -39t21.5 -32t33 -21.5t41 -7.5zM151 756l139 139h138l139 -139h-125l-84 56l-84 -56h-123zM302 945l-118 130l2 3h151l83 -133
h-118z" />
    <glyph glyph-name="uni1ED4" unicode="&#x1ed4;" horiz-adv-x="718" 
d="M331 -10q-62 0 -116.5 23.5t-95.5 64.5t-64.5 95.5t-23.5 116.5v104q0 62 23.5 116.5t64.5 95.5t95.5 64.5t116.5 23.5h56q62 0 116.5 -23.5t95.5 -64.5t64.5 -95.5t23.5 -116.5v-104q0 -62 -23.5 -116.5t-64.5 -95.5t-95.5 -64.5t-116.5 -23.5h-56zM359 146q23 0 41.5 8
t32.5 21.5t21.5 31.5t7.5 39v192q0 21 -7.5 39t-21.5 32t-32.5 21.5t-41.5 7.5q-22 0 -41 -8t-33 -21.5t-21.5 -31.5t-7.5 -39v-192q0 -21 7.5 -39t21.5 -32t33 -21.5t41 -7.5zM151 756l139 139h138l139 -139h-125l-84 56l-84 -56h-123zM338 935v64q22 3 34 12.5t12 26.5
q0 13 -10.5 21t-28.5 8q-11 0 -25.5 -2.5t-31.5 -8.5v88q16 5 31.5 6t30.5 1q50 0 83.5 -26t33.5 -74q0 -33 -19 -59t-48.5 -40.5t-61.5 -16.5z" />
    <glyph glyph-name="uni1ED6" unicode="&#x1ed6;" horiz-adv-x="718" 
d="M331 -10q-62 0 -116.5 23.5t-95.5 64.5t-64.5 95.5t-23.5 116.5v104q0 62 23.5 116.5t64.5 95.5t95.5 64.5t116.5 23.5h56q62 0 116.5 -23.5t95.5 -64.5t64.5 -95.5t23.5 -116.5v-104q0 -62 -23.5 -116.5t-64.5 -95.5t-95.5 -64.5t-116.5 -23.5h-56zM359 146q23 0 41.5 8
t32.5 21.5t21.5 31.5t7.5 39v192q0 21 -7.5 39t-21.5 32t-32.5 21.5t-41.5 7.5q-22 0 -41 -8t-33 -21.5t-21.5 -31.5t-7.5 -39v-192q0 -21 7.5 -39t21.5 -32t33 -21.5t41 -7.5zM151 756l139 139h138l139 -139h-125l-84 56l-84 -56h-123zM167 935q0 42 15.5 73t43 48.5
t62.5 17.5q34 0 57 -9t43 -18t43 -9q17 0 30 10t17 26h74q0 -42 -15.5 -73.5t-43 -48.5t-62.5 -17q-33 0 -56.5 9t-43 18t-43.5 9q-17 0 -29.5 -10t-17.5 -26h-74z" />
    <glyph glyph-name="uni020C" unicode="&#x20c;" horiz-adv-x="718" 
d="M331 -10q-62 0 -116.5 23.5t-95.5 64.5t-64.5 95.5t-23.5 116.5v104q0 62 23.5 116.5t64.5 95.5t95.5 64.5t116.5 23.5h56q62 0 116.5 -23.5t95.5 -64.5t64.5 -95.5t23.5 -116.5v-104q0 -62 -23.5 -116.5t-64.5 -95.5t-95.5 -64.5t-116.5 -23.5h-56zM359 146q23 0 41.5 8
t32.5 21.5t21.5 31.5t7.5 39v192q0 21 -7.5 39t-21.5 32t-32.5 21.5t-41.5 7.5q-22 0 -41 -8t-33 -21.5t-21.5 -31.5t-7.5 -39v-192q0 -21 7.5 -39t21.5 -32t33 -21.5t41 -7.5zM413 753l-126 142l7 3h151l91 -145h-123zM191 753l-126 142l2 3h156l91 -145h-123z" />
    <glyph glyph-name="Odieresis" unicode="&#xd6;" horiz-adv-x="718" 
d="M331 -10q-62 0 -116.5 23.5t-95.5 64.5t-64.5 95.5t-23.5 116.5v104q0 62 23.5 116.5t64.5 95.5t95.5 64.5t116.5 23.5h56q62 0 116.5 -23.5t95.5 -64.5t64.5 -95.5t23.5 -116.5v-104q0 -62 -23.5 -116.5t-64.5 -95.5t-95.5 -64.5t-116.5 -23.5h-56zM359 146q23 0 41.5 8
t32.5 21.5t21.5 31.5t7.5 39v192q0 21 -7.5 39t-21.5 32t-32.5 21.5t-41.5 7.5q-22 0 -41 -8t-33 -21.5t-21.5 -31.5t-7.5 -39v-192q0 -21 7.5 -39t21.5 -32t33 -21.5t41 -7.5zM160 745v140h144v-140h-144zM414 745v140h144v-140h-144z" />
    <glyph glyph-name="uni022A" unicode="&#x22a;" horiz-adv-x="718" 
d="M331 -10q-62 0 -116.5 23.5t-95.5 64.5t-64.5 95.5t-23.5 116.5v104q0 62 23.5 116.5t64.5 95.5t95.5 64.5t116.5 23.5h56q62 0 116.5 -23.5t95.5 -64.5t64.5 -95.5t23.5 -116.5v-104q0 -62 -23.5 -116.5t-64.5 -95.5t-95.5 -64.5t-116.5 -23.5h-56zM359 146q23 0 41.5 8
t32.5 21.5t21.5 31.5t7.5 39v192q0 21 -7.5 39t-21.5 32t-32.5 21.5t-41.5 7.5q-22 0 -41 -8t-33 -21.5t-21.5 -31.5t-7.5 -39v-192q0 -21 7.5 -39t21.5 -32t33 -21.5t41 -7.5zM177 945v104h364v-104h-364zM177 755v140h144v-140h-144zM397 755v140h144v-140h-144z" />
    <glyph glyph-name="uni0230" unicode="&#x230;" horiz-adv-x="718" 
d="M331 -10q-62 0 -116.5 23.5t-95.5 64.5t-64.5 95.5t-23.5 116.5v104q0 62 23.5 116.5t64.5 95.5t95.5 64.5t116.5 23.5h56q62 0 116.5 -23.5t95.5 -64.5t64.5 -95.5t23.5 -116.5v-104q0 -62 -23.5 -116.5t-64.5 -95.5t-95.5 -64.5t-116.5 -23.5h-56zM359 146q23 0 41.5 8
t32.5 21.5t21.5 31.5t7.5 39v192q0 21 -7.5 39t-21.5 32t-32.5 21.5t-41.5 7.5q-22 0 -41 -8t-33 -21.5t-21.5 -31.5t-7.5 -39v-192q0 -21 7.5 -39t21.5 -32t33 -21.5t41 -7.5zM183 945v104h352v-104h-352zM287 755v140h144v-140h-144z" />
    <glyph glyph-name="uni1ECC" unicode="&#x1ecc;" horiz-adv-x="718" 
d="M331 -10q-62 0 -116.5 23.5t-95.5 64.5t-64.5 95.5t-23.5 116.5v104q0 62 23.5 116.5t64.5 95.5t95.5 64.5t116.5 23.5h56q62 0 116.5 -23.5t95.5 -64.5t64.5 -95.5t23.5 -116.5v-104q0 -62 -23.5 -116.5t-64.5 -95.5t-95.5 -64.5t-116.5 -23.5h-56zM359 146q23 0 41.5 8
t32.5 21.5t21.5 31.5t7.5 39v192q0 21 -7.5 39t-21.5 32t-32.5 21.5t-41.5 7.5q-22 0 -41 -8t-33 -21.5t-21.5 -31.5t-7.5 -39v-192q0 -21 7.5 -39t21.5 -32t33 -21.5t41 -7.5zM307 -190v140h144v-140h-144z" />
    <glyph glyph-name="Ograve" unicode="&#xd2;" horiz-adv-x="718" 
d="M331 -10q-62 0 -116.5 23.5t-95.5 64.5t-64.5 95.5t-23.5 116.5v104q0 62 23.5 116.5t64.5 95.5t95.5 64.5t116.5 23.5h56q62 0 116.5 -23.5t95.5 -64.5t64.5 -95.5t23.5 -116.5v-104q0 -62 -23.5 -116.5t-64.5 -95.5t-95.5 -64.5t-116.5 -23.5h-56zM359 146q23 0 41.5 8
t32.5 21.5t21.5 31.5t7.5 39v192q0 21 -7.5 39t-21.5 32t-32.5 21.5t-41.5 7.5q-22 0 -41 -8t-33 -21.5t-21.5 -31.5t-7.5 -39v-192q0 -21 7.5 -39t21.5 -32t33 -21.5t41 -7.5zM294 742l-126 142l2 3h171l91 -145h-138z" />
    <glyph glyph-name="uni1ECE" unicode="&#x1ece;" horiz-adv-x="718" 
d="M331 -10q-62 0 -116.5 23.5t-95.5 64.5t-64.5 95.5t-23.5 116.5v104q0 62 23.5 116.5t64.5 95.5t95.5 64.5t116.5 23.5h56q62 0 116.5 -23.5t95.5 -64.5t64.5 -95.5t23.5 -116.5v-104q0 -62 -23.5 -116.5t-64.5 -95.5t-95.5 -64.5t-116.5 -23.5h-56zM359 146q23 0 41.5 8
t32.5 21.5t21.5 31.5t7.5 39v192q0 21 -7.5 39t-21.5 32t-32.5 21.5t-41.5 7.5q-22 0 -41 -8t-33 -21.5t-21.5 -31.5t-7.5 -39v-192q0 -21 7.5 -39t21.5 -32t33 -21.5t41 -7.5zM332 729v81q27 3 42 14.5t15 33.5q0 16 -12.5 26t-35.5 10q-14 0 -32 -2.5t-40 -10.5v110
q20 5 39.5 7t38.5 2q62 0 104 -32.5t42 -92.5q0 -42 -24 -74t-60.5 -51t-76.5 -21z" />
    <glyph glyph-name="Ohorn" unicode="&#x1a0;" horiz-adv-x="718" 
d="M331 -10q-62 0 -116.5 23.5t-95.5 64.5t-64.5 95.5t-23.5 116.5v104q0 62 23.5 116.5t64.5 95.5t95.5 64.5t116.5 23.5h56q62 0 116.5 -23.5t95.5 -64.5t64.5 -95.5t23.5 -116.5v-104q0 -62 -23.5 -116.5t-64.5 -95.5t-95.5 -64.5t-116.5 -23.5h-56zM359 146q23 0 41.5 8
t32.5 21.5t21.5 31.5t7.5 39v192q0 21 -7.5 39t-21.5 32t-32.5 21.5t-41.5 7.5q-22 0 -41 -8t-33 -21.5t-21.5 -31.5t-7.5 -39v-192q0 -21 7.5 -39t21.5 -32t33 -21.5t41 -7.5zM518 562v98q49 8 64 41.5t15 97.5h164q0 -60 -32 -112t-87 -86t-124 -39z" />
    <glyph glyph-name="uni1EDA" unicode="&#x1eda;" horiz-adv-x="718" 
d="M331 -10q-62 0 -116.5 23.5t-95.5 64.5t-64.5 95.5t-23.5 116.5v104q0 62 23.5 116.5t64.5 95.5t95.5 64.5t116.5 23.5h56q62 0 116.5 -23.5t95.5 -64.5t64.5 -95.5t23.5 -116.5v-104q0 -62 -23.5 -116.5t-64.5 -95.5t-95.5 -64.5t-116.5 -23.5h-56zM359 146q23 0 41.5 8
t32.5 21.5t21.5 31.5t7.5 39v192q0 21 -7.5 39t-21.5 32t-32.5 21.5t-41.5 7.5q-22 0 -41 -8t-33 -21.5t-21.5 -31.5t-7.5 -39v-192q0 -21 7.5 -39t21.5 -32t33 -21.5t41 -7.5zM518 562v98q49 8 64 41.5t15 97.5h164q0 -60 -32 -112t-87 -86t-124 -39zM286 742l91 145h171
l2 -3l-126 -142h-138z" />
    <glyph glyph-name="uni1EE2" unicode="&#x1ee2;" horiz-adv-x="718" 
d="M331 -10q-62 0 -116.5 23.5t-95.5 64.5t-64.5 95.5t-23.5 116.5v104q0 62 23.5 116.5t64.5 95.5t95.5 64.5t116.5 23.5h56q62 0 116.5 -23.5t95.5 -64.5t64.5 -95.5t23.5 -116.5v-104q0 -62 -23.5 -116.5t-64.5 -95.5t-95.5 -64.5t-116.5 -23.5h-56zM359 146q23 0 41.5 8
t32.5 21.5t21.5 31.5t7.5 39v192q0 21 -7.5 39t-21.5 32t-32.5 21.5t-41.5 7.5q-22 0 -41 -8t-33 -21.5t-21.5 -31.5t-7.5 -39v-192q0 -21 7.5 -39t21.5 -32t33 -21.5t41 -7.5zM518 562v98q49 8 64 41.5t15 97.5h164q0 -60 -32 -112t-87 -86t-124 -39zM307 -190v140h144
v-140h-144z" />
    <glyph glyph-name="uni1EDC" unicode="&#x1edc;" horiz-adv-x="718" 
d="M331 -10q-62 0 -116.5 23.5t-95.5 64.5t-64.5 95.5t-23.5 116.5v104q0 62 23.5 116.5t64.5 95.5t95.5 64.5t116.5 23.5h56q62 0 116.5 -23.5t95.5 -64.5t64.5 -95.5t23.5 -116.5v-104q0 -62 -23.5 -116.5t-64.5 -95.5t-95.5 -64.5t-116.5 -23.5h-56zM359 146q23 0 41.5 8
t32.5 21.5t21.5 31.5t7.5 39v192q0 21 -7.5 39t-21.5 32t-32.5 21.5t-41.5 7.5q-22 0 -41 -8t-33 -21.5t-21.5 -31.5t-7.5 -39v-192q0 -21 7.5 -39t21.5 -32t33 -21.5t41 -7.5zM518 562v98q49 8 64 41.5t15 97.5h164q0 -60 -32 -112t-87 -86t-124 -39zM294 742l-126 142l2 3
h171l91 -145h-138z" />
    <glyph glyph-name="uni1EDE" unicode="&#x1ede;" horiz-adv-x="718" 
d="M331 -10q-62 0 -116.5 23.5t-95.5 64.5t-64.5 95.5t-23.5 116.5v104q0 62 23.5 116.5t64.5 95.5t95.5 64.5t116.5 23.5h56q62 0 116.5 -23.5t95.5 -64.5t64.5 -95.5t23.5 -116.5v-104q0 -62 -23.5 -116.5t-64.5 -95.5t-95.5 -64.5t-116.5 -23.5h-56zM359 146q23 0 41.5 8
t32.5 21.5t21.5 31.5t7.5 39v192q0 21 -7.5 39t-21.5 32t-32.5 21.5t-41.5 7.5q-22 0 -41 -8t-33 -21.5t-21.5 -31.5t-7.5 -39v-192q0 -21 7.5 -39t21.5 -32t33 -21.5t41 -7.5zM518 562v98q49 8 64 41.5t15 97.5h164q0 -60 -32 -112t-87 -86t-124 -39zM332 729v81
q27 3 42 14.5t15 33.5q0 16 -12.5 26t-35.5 10q-14 0 -32 -2.5t-40 -10.5v110q20 5 39.5 7t38.5 2q62 0 104 -32.5t42 -92.5q0 -42 -24 -74t-60.5 -51t-76.5 -21z" />
    <glyph glyph-name="uni1EE0" unicode="&#x1ee0;" horiz-adv-x="718" 
d="M331 -10q-62 0 -116.5 23.5t-95.5 64.5t-64.5 95.5t-23.5 116.5v104q0 62 23.5 116.5t64.5 95.5t95.5 64.5t116.5 23.5h56q62 0 116.5 -23.5t95.5 -64.5t64.5 -95.5t23.5 -116.5v-104q0 -62 -23.5 -116.5t-64.5 -95.5t-95.5 -64.5t-116.5 -23.5h-56zM359 146q23 0 41.5 8
t32.5 21.5t21.5 31.5t7.5 39v192q0 21 -7.5 39t-21.5 32t-32.5 21.5t-41.5 7.5q-22 0 -41 -8t-33 -21.5t-21.5 -31.5t-7.5 -39v-192q0 -21 7.5 -39t21.5 -32t33 -21.5t41 -7.5zM518 562v98q49 8 64 41.5t15 97.5h164q0 -60 -32 -112t-87 -86t-124 -39zM152 739q4 47 20 81.5
t43.5 53.5t64.5 19q34 0 61.5 -10.5t51.5 -21t45 -10.5q20 0 31.5 11.5t15.5 29.5h81q-3 -46 -19.5 -81t-44 -54t-64.5 -19q-34 0 -61.5 10.5t-51 21t-45.5 10.5q-19 0 -30.5 -11.5t-16.5 -29.5h-81z" />
    <glyph glyph-name="Ohungarumlaut" unicode="&#x150;" horiz-adv-x="718" 
d="M331 -10q-62 0 -116.5 23.5t-95.5 64.5t-64.5 95.5t-23.5 116.5v104q0 62 23.5 116.5t64.5 95.5t95.5 64.5t116.5 23.5h56q62 0 116.5 -23.5t95.5 -64.5t64.5 -95.5t23.5 -116.5v-104q0 -62 -23.5 -116.5t-64.5 -95.5t-95.5 -64.5t-116.5 -23.5h-56zM359 146q23 0 41.5 8
t32.5 21.5t21.5 31.5t7.5 39v192q0 21 -7.5 39t-21.5 32t-32.5 21.5t-41.5 7.5q-22 0 -41 -8t-33 -21.5t-21.5 -31.5t-7.5 -39v-192q0 -21 7.5 -39t21.5 -32t33 -21.5t41 -7.5zM385 743l91 145h156l2 -3l-126 -142h-123zM164 743l91 145h151l7 -3l-126 -142h-123z" />
    <glyph glyph-name="uni020E" unicode="&#x20e;" horiz-adv-x="718" 
d="M331 -10q-62 0 -116.5 23.5t-95.5 64.5t-64.5 95.5t-23.5 116.5v104q0 62 23.5 116.5t64.5 95.5t95.5 64.5t116.5 23.5h56q62 0 116.5 -23.5t95.5 -64.5t64.5 -95.5t23.5 -116.5v-104q0 -62 -23.5 -116.5t-64.5 -95.5t-95.5 -64.5t-116.5 -23.5h-56zM359 146q23 0 41.5 8
t32.5 21.5t21.5 31.5t7.5 39v192q0 21 -7.5 39t-21.5 32t-32.5 21.5t-41.5 7.5q-22 0 -41 -8t-33 -21.5t-21.5 -31.5t-7.5 -39v-192q0 -21 7.5 -39t21.5 -32t33 -21.5t41 -7.5zM166 751q0 44 23 77t67 51.5t105 18.5q66 0 108 -18.5t62 -51.5t20 -77h-101q-4 24 -25.5 37.5
t-65.5 13.5t-66 -13.5t-27 -37.5h-100z" />
    <glyph glyph-name="Omacron" unicode="&#x14c;" horiz-adv-x="718" 
d="M331 -10q-62 0 -116.5 23.5t-95.5 64.5t-64.5 95.5t-23.5 116.5v104q0 62 23.5 116.5t64.5 95.5t95.5 64.5t116.5 23.5h56q62 0 116.5 -23.5t95.5 -64.5t64.5 -95.5t23.5 -116.5v-104q0 -62 -23.5 -116.5t-64.5 -95.5t-95.5 -64.5t-116.5 -23.5h-56zM359 146q23 0 41.5 8
t32.5 21.5t21.5 31.5t7.5 39v192q0 21 -7.5 39t-21.5 32t-32.5 21.5t-41.5 7.5q-22 0 -41 -8t-33 -21.5t-21.5 -31.5t-7.5 -39v-192q0 -21 7.5 -39t21.5 -32t33 -21.5t41 -7.5zM185 765v100h348v-100h-348z" />
    <glyph glyph-name="uni01EA" unicode="&#x1ea;" horiz-adv-x="718" 
d="M331 -10q-62 0 -116.5 23.5t-95.5 64.5t-64.5 95.5t-23.5 116.5v104q0 62 23.5 116.5t64.5 95.5t95.5 64.5t116.5 23.5h56q62 0 116.5 -23.5t95.5 -64.5t64.5 -95.5t23.5 -116.5v-104q0 -62 -23.5 -116.5t-64.5 -95.5t-95.5 -64.5t-116.5 -23.5h-56zM359 146q23 0 41.5 8
t32.5 21.5t21.5 31.5t7.5 39v192q0 21 -7.5 39t-21.5 32t-32.5 21.5t-41.5 7.5q-22 0 -41 -8t-33 -21.5t-21.5 -31.5t-7.5 -39v-192q0 -21 7.5 -39t21.5 -32t33 -21.5t41 -7.5zM411 -150q-28 0 -52.5 8.5t-39.5 26t-15 44.5q0 24 12 42t28 29h118q-17 -10 -29.5 -21.5
t-12.5 -28.5t10 -24t25 -7q13 0 28 4t28 9l14 -51q-23 -14 -53.5 -22.5t-60.5 -8.5z" />
    <glyph glyph-name="Oslash" unicode="&#xd8;" horiz-adv-x="718" 
d="M331 -10q-62 0 -116.5 23.5t-95.5 64.5t-64.5 95.5t-23.5 116.5v104q0 62 23.5 116.5t64.5 95.5t95.5 64.5t116.5 23.5h56q62 0 116.5 -23.5t95.5 -64.5t64.5 -95.5t23.5 -116.5v-104q0 -62 -23.5 -116.5t-64.5 -95.5t-95.5 -64.5t-116.5 -23.5h-56zM359 146q23 0 41.5 8
t32.5 21.5t21.5 31.5t7.5 39v192q0 21 -7.5 39t-21.5 32t-32.5 21.5t-41.5 7.5q-22 0 -41 -8t-33 -21.5t-21.5 -31.5t-7.5 -39v-192q0 -21 7.5 -39t21.5 -32t33 -21.5t41 -7.5zM55 -79l500 819h108l-500 -819h-108z" />
    <glyph glyph-name="Oslashacute" unicode="&#x1fe;" horiz-adv-x="718" 
d="M331 -10q-62 0 -116.5 23.5t-95.5 64.5t-64.5 95.5t-23.5 116.5v104q0 62 23.5 116.5t64.5 95.5t95.5 64.5t116.5 23.5h56q62 0 116.5 -23.5t95.5 -64.5t64.5 -95.5t23.5 -116.5v-104q0 -62 -23.5 -116.5t-64.5 -95.5t-95.5 -64.5t-116.5 -23.5h-56zM359 146q23 0 41.5 8
t32.5 21.5t21.5 31.5t7.5 39v192q0 21 -7.5 39t-21.5 32t-32.5 21.5t-41.5 7.5q-22 0 -41 -8t-33 -21.5t-21.5 -31.5t-7.5 -39v-192q0 -21 7.5 -39t21.5 -32t33 -21.5t41 -7.5zM55 -79l500 819h108l-500 -819h-108zM294 752l91 145h171l2 -3l-126 -142h-138z" />
    <glyph glyph-name="Otilde" unicode="&#xd5;" horiz-adv-x="718" 
d="M331 -10q-62 0 -116.5 23.5t-95.5 64.5t-64.5 95.5t-23.5 116.5v104q0 62 23.5 116.5t64.5 95.5t95.5 64.5t116.5 23.5h56q62 0 116.5 -23.5t95.5 -64.5t64.5 -95.5t23.5 -116.5v-104q0 -62 -23.5 -116.5t-64.5 -95.5t-95.5 -64.5t-116.5 -23.5h-56zM359 146q23 0 41.5 8
t32.5 21.5t21.5 31.5t7.5 39v192q0 21 -7.5 39t-21.5 32t-32.5 21.5t-41.5 7.5q-22 0 -41 -8t-33 -21.5t-21.5 -31.5t-7.5 -39v-192q0 -21 7.5 -39t21.5 -32t33 -21.5t41 -7.5zM152 739q4 47 20 81.5t43.5 53.5t64.5 19q34 0 61.5 -10.5t51.5 -21t45 -10.5q20 0 31.5 11.5
t15.5 29.5h81q-3 -46 -19.5 -81t-44 -54t-64.5 -19q-34 0 -61.5 10.5t-51 21t-45.5 10.5q-19 0 -30.5 -11.5t-16.5 -29.5h-81z" />
    <glyph glyph-name="uni022C" unicode="&#x22c;" horiz-adv-x="718" 
d="M331 -10q-62 0 -116.5 23.5t-95.5 64.5t-64.5 95.5t-23.5 116.5v104q0 62 23.5 116.5t64.5 95.5t95.5 64.5t116.5 23.5h56q62 0 116.5 -23.5t95.5 -64.5t64.5 -95.5t23.5 -116.5v-104q0 -62 -23.5 -116.5t-64.5 -95.5t-95.5 -64.5t-116.5 -23.5h-56zM359 146q23 0 41.5 8
t32.5 21.5t21.5 31.5t7.5 39v192q0 21 -7.5 39t-21.5 32t-32.5 21.5t-41.5 7.5q-22 0 -41 -8t-33 -21.5t-21.5 -31.5t-7.5 -39v-192q0 -21 7.5 -39t21.5 -32t33 -21.5t41 -7.5zM174 951v96h368v-96h-368zM141 743q0 46 17 80.5t47.5 53.5t68.5 19q37 0 65 -10t52.5 -20
t50.5 -10q19 0 33 11.5t19 28.5h81q0 -46 -17 -80.5t-47 -53.5t-69 -19q-37 0 -65 10t-52.5 20t-50.5 10q-19 0 -33 -11.5t-19 -28.5h-81z" />
    <glyph glyph-name="OE" unicode="&#x152;" horiz-adv-x="991" 
d="M331 -10q-62 0 -116.5 23.5t-95.5 64.5t-64.5 95.5t-23.5 116.5v104q0 62 23 116.5t64.5 95.5t97 64.5t120.5 23.5q48 0 76 -7.5t51 -19.5v19h504l-40 -160h-255v-107h244v-153h-244v-106h275l30 -160h-515v18q-20 -13 -48.5 -20.5t-82.5 -7.5zM357 147q24 0 43.5 8
t33 21.5t21 31.5t7.5 39v193q0 22 -8 40t-22 31.5t-33 21t-42 7.5q-21 0 -39 -7.5t-32 -21.5t-21.5 -32t-7.5 -39v-193q0 -21 7.5 -39t21.5 -32t32 -21.5t39 -7.5z" />
    <glyph glyph-name="P" unicode="P" horiz-adv-x="645" 
d="M57 0v686h366q58 0 105.5 -27t75.5 -73t28 -104v-22q0 -58 -28.5 -107t-76 -79t-105.5 -30h-155v-244h-210zM267 397h92q19 0 32 8t20.5 23t7.5 36q0 25 -14.5 45t-45.5 20h-92v-132z" />
    <glyph glyph-name="Thorn" unicode="&#xde;" horiz-adv-x="646" 
d="M57 0v686h209v-103h156q58 0 105.5 -28.5t76 -76.5t28.5 -106q0 -68 -27.5 -119t-75 -79t-107.5 -28h-156v-146h-209zM266 294h99q30 0 42 17.5t12 48.5q0 32 -12.5 49.5t-41.5 17.5h-99v-133z" />
    <glyph glyph-name="Q" unicode="Q" horiz-adv-x="718" 
d="M507 -162q-76 0 -125 25.5t-75 62t-34 70.5q-52 10 -96 36.5t-77 65.5t-51 88t-18 104v104q0 62 23.5 116.5t64.5 95.5t95.5 64.5t116.5 23.5h56q62 0 116.5 -23.5t95.5 -64.5t64.5 -95.5t23.5 -116.5v-104q0 -66 -26 -123t-72 -99t-105 -62q6 -12 15 -22t24 -16.5
t39 -6.5q17 0 38 3t44 8.5t44 12.5v-105q-18 -9 -43.5 -19t-59.5 -16.5t-78 -6.5zM359 146q23 0 41.5 8t32.5 21.5t21.5 31.5t7.5 39v192q0 21 -7.5 39t-21.5 32t-32.5 21.5t-41.5 7.5q-22 0 -41 -8t-33 -21.5t-21.5 -31.5t-7.5 -39v-192q0 -21 7.5 -39t21.5 -32t33 -21.5
t41 -7.5z" />
    <glyph glyph-name="R" unicode="R" horiz-adv-x="682" 
d="M550 -10q-46 0 -77 12.5t-47.5 40.5t-16.5 76q0 15 -2 36t-10.5 40.5t-26.5 33t-50 13.5h-58v-242h-205v686h384q49 0 92.5 -19.5t71 -57t27.5 -93.5q0 -47 -17 -84.5t-45 -63t-61 -38.5v-5q29 -9 50 -25t34 -37.5t19.5 -44.5t6.5 -45q0 -15 1 -34.5t5.5 -37.5t15 -32
t29.5 -19v-41q-27 -11 -59 -15t-61 -4zM262 395h102q15 0 27.5 9.5t19.5 25.5t7 37q0 32 -15 47t-36 15h-105v-134z" />
    <glyph glyph-name="Racute" unicode="&#x154;" horiz-adv-x="682" 
d="M550 -10q-46 0 -77 12.5t-47.5 40.5t-16.5 76q0 15 -2 36t-10.5 40.5t-26.5 33t-50 13.5h-58v-242h-205v686h384q49 0 92.5 -19.5t71 -57t27.5 -93.5q0 -47 -17 -84.5t-45 -63t-61 -38.5v-5q29 -9 50 -25t34 -37.5t19.5 -44.5t6.5 -45q0 -15 1 -34.5t5.5 -37.5t15 -32
t29.5 -19v-41q-27 -11 -59 -15t-61 -4zM262 395h102q15 0 27.5 9.5t19.5 25.5t7 37q0 32 -15 47t-36 15h-105v-134zM250 742l91 145h171l2 -3l-126 -142h-138z" />
    <glyph glyph-name="Rcaron" unicode="&#x158;" horiz-adv-x="682" 
d="M550 -10q-46 0 -77 12.5t-47.5 40.5t-16.5 76q0 15 -2 36t-10.5 40.5t-26.5 33t-50 13.5h-58v-242h-205v686h384q49 0 92.5 -19.5t71 -57t27.5 -93.5q0 -47 -17 -84.5t-45 -63t-61 -38.5v-5q29 -9 50 -25t34 -37.5t19.5 -44.5t6.5 -45q0 -15 1 -34.5t5.5 -37.5t15 -32
t29.5 -19v-41q-27 -11 -59 -15t-61 -4zM262 395h102q15 0 27.5 9.5t19.5 25.5t7 37q0 32 -15 47t-36 15h-105v-134zM231 746l-109 139h131l86 -105h-32l86 105h131l-109 -139h-184z" />
    <glyph glyph-name="uni0156" unicode="&#x156;" horiz-adv-x="682" 
d="M550 -10q-46 0 -77 12.5t-47.5 40.5t-16.5 76q0 15 -2 36t-10.5 40.5t-26.5 33t-50 13.5h-58v-242h-205v686h384q49 0 92.5 -19.5t71 -57t27.5 -93.5q0 -47 -17 -84.5t-45 -63t-61 -38.5v-5q29 -9 50 -25t34 -37.5t19.5 -44.5t6.5 -45q0 -15 1 -34.5t5.5 -37.5t15 -32
t29.5 -19v-41q-27 -11 -59 -15t-61 -4zM262 395h102q15 0 27.5 9.5t19.5 25.5t7 37q0 32 -15 47t-36 15h-105v-134zM274 -413v20q35 35 52 73t17 78h-73v165h159v-139q0 -56 -18 -107t-55 -90h-82z" />
    <glyph glyph-name="uni0210" unicode="&#x210;" horiz-adv-x="682" 
d="M550 -10q-46 0 -77 12.5t-47.5 40.5t-16.5 76q0 15 -2 36t-10.5 40.5t-26.5 33t-50 13.5h-58v-242h-205v686h384q49 0 92.5 -19.5t71 -57t27.5 -93.5q0 -47 -17 -84.5t-45 -63t-61 -38.5v-5q29 -9 50 -25t34 -37.5t19.5 -44.5t6.5 -45q0 -15 1 -34.5t5.5 -37.5t15 -32
t29.5 -19v-41q-27 -11 -59 -15t-61 -4zM262 395h102q15 0 27.5 9.5t19.5 25.5t7 37q0 32 -15 47t-36 15h-105v-134zM377 753l-126 142l7 3h151l91 -145h-123zM155 753l-126 142l2 3h156l91 -145h-123z" />
    <glyph glyph-name="uni0212" unicode="&#x212;" horiz-adv-x="682" 
d="M550 -10q-46 0 -77 12.5t-47.5 40.5t-16.5 76q0 15 -2 36t-10.5 40.5t-26.5 33t-50 13.5h-58v-242h-205v686h384q49 0 92.5 -19.5t71 -57t27.5 -93.5q0 -47 -17 -84.5t-45 -63t-61 -38.5v-5q29 -9 50 -25t34 -37.5t19.5 -44.5t6.5 -45q0 -15 1 -34.5t5.5 -37.5t15 -32
t29.5 -19v-41q-27 -11 -59 -15t-61 -4zM262 395h102q15 0 27.5 9.5t19.5 25.5t7 37q0 32 -15 47t-36 15h-105v-134zM130 751q0 44 23 77t67 51.5t105 18.5q66 0 108 -18.5t62 -51.5t20 -77h-101q-4 24 -25.5 37.5t-65.5 13.5t-66 -13.5t-27 -37.5h-100z" />
    <glyph glyph-name="S" unicode="S" horiz-adv-x="651" 
d="M310 -10q-76 0 -141 23.5t-104.5 72t-39.5 124.5v11.5t1 12.5h194q-1 -4 -1 -6v-6q0 -18 8.5 -34t28.5 -26.5t56 -10.5q41 0 61 6t27 16t7 21q0 21 -20 32.5t-52.5 19t-71.5 15.5t-78.5 21.5t-72 36.5t-52.5 60.5t-20 94.5q0 73 40 122t106.5 74.5t146.5 25.5
q77 0 139.5 -22.5t100 -68.5t37.5 -119v-12h-192v4q0 18 -8 33t-26.5 24t-48.5 9q-28 0 -46.5 -5.5t-27.5 -14.5t-9 -22q0 -22 20 -34.5t53 -20.5t73 -16t79.5 -20.5t72.5 -34.5t53 -57.5t20 -89.5q0 -85 -40.5 -137.5t-111 -77t-161.5 -24.5z" />
    <glyph glyph-name="Sacute" unicode="&#x15a;" horiz-adv-x="651" 
d="M310 -10q-76 0 -141 23.5t-104.5 72t-39.5 124.5v11.5t1 12.5h194q-1 -4 -1 -6v-6q0 -18 8.5 -34t28.5 -26.5t56 -10.5q41 0 61 6t27 16t7 21q0 21 -20 32.5t-52.5 19t-71.5 15.5t-78.5 21.5t-72 36.5t-52.5 60.5t-20 94.5q0 73 40 122t106.5 74.5t146.5 25.5
q77 0 139.5 -22.5t100 -68.5t37.5 -119v-12h-192v4q0 18 -8 33t-26.5 24t-48.5 9q-28 0 -46.5 -5.5t-27.5 -14.5t-9 -22q0 -22 20 -34.5t53 -20.5t73 -16t79.5 -20.5t72.5 -34.5t53 -57.5t20 -89.5q0 -85 -40.5 -137.5t-111 -77t-161.5 -24.5zM250 742l91 145h171l2 -3
l-126 -142h-138z" />
    <glyph glyph-name="Scaron" unicode="&#x160;" horiz-adv-x="651" 
d="M310 -10q-76 0 -141 23.5t-104.5 72t-39.5 124.5v11.5t1 12.5h194q-1 -4 -1 -6v-6q0 -18 8.5 -34t28.5 -26.5t56 -10.5q41 0 61 6t27 16t7 21q0 21 -20 32.5t-52.5 19t-71.5 15.5t-78.5 21.5t-72 36.5t-52.5 60.5t-20 94.5q0 73 40 122t106.5 74.5t146.5 25.5
q77 0 139.5 -22.5t100 -68.5t37.5 -119v-12h-192v4q0 18 -8 33t-26.5 24t-48.5 9q-28 0 -46.5 -5.5t-27.5 -14.5t-9 -22q0 -22 20 -34.5t53 -20.5t73 -16t79.5 -20.5t72.5 -34.5t53 -57.5t20 -89.5q0 -85 -40.5 -137.5t-111 -77t-161.5 -24.5zM231 746l-109 139h131l86 -105
h-32l86 105h131l-109 -139h-184z" />
    <glyph glyph-name="Scedilla" unicode="&#x15e;" horiz-adv-x="651" 
d="M310 -10q-76 0 -141 23.5t-104.5 72t-39.5 124.5v11.5t1 12.5h194q-1 -4 -1 -6v-6q0 -18 8.5 -34t28.5 -26.5t56 -10.5q41 0 61 6t27 16t7 21q0 21 -20 32.5t-52.5 19t-71.5 15.5t-78.5 21.5t-72 36.5t-52.5 60.5t-20 94.5q0 73 40 122t106.5 74.5t146.5 25.5
q77 0 139.5 -22.5t100 -68.5t37.5 -119v-12h-192v4q0 18 -8 33t-26.5 24t-48.5 9q-28 0 -46.5 -5.5t-27.5 -14.5t-9 -22q0 -22 20 -34.5t53 -20.5t73 -16t79.5 -20.5t72.5 -34.5t53 -57.5t20 -89.5q0 -85 -40.5 -137.5t-111 -77t-161.5 -24.5zM322 -212q-32 0 -63.5 9.5
t-53.5 26.5l32 61q17 -11 35.5 -20.5t47.5 -9.5q18 0 26.5 7.5t8.5 18.5q0 13 -8 17t-19 4h-22v66h38q28 0 52 -8t39.5 -26.5t15.5 -48.5q0 -33 -18.5 -54.5t-48 -32t-62.5 -10.5z" />
    <glyph glyph-name="Scircumflex" unicode="&#x15c;" horiz-adv-x="651" 
d="M310 -10q-76 0 -141 23.5t-104.5 72t-39.5 124.5v11.5t1 12.5h194q-1 -4 -1 -6v-6q0 -18 8.5 -34t28.5 -26.5t56 -10.5q41 0 61 6t27 16t7 21q0 21 -20 32.5t-52.5 19t-71.5 15.5t-78.5 21.5t-72 36.5t-52.5 60.5t-20 94.5q0 73 40 122t106.5 74.5t146.5 25.5
q77 0 139.5 -22.5t100 -68.5t37.5 -119v-12h-192v4q0 18 -8 33t-26.5 24t-48.5 9q-28 0 -46.5 -5.5t-27.5 -14.5t-9 -22q0 -22 20 -34.5t53 -20.5t73 -16t79.5 -20.5t72.5 -34.5t53 -57.5t20 -89.5q0 -85 -40.5 -137.5t-111 -77t-161.5 -24.5zM122 746l109 139h184l109 -139
h-131l-86 105h32l-86 -105h-131z" />
    <glyph glyph-name="uni0218" unicode="&#x218;" horiz-adv-x="651" 
d="M310 -10q-76 0 -141 23.5t-104.5 72t-39.5 124.5v11.5t1 12.5h194q-1 -4 -1 -6v-6q0 -18 8.5 -34t28.5 -26.5t56 -10.5q41 0 61 6t27 16t7 21q0 21 -20 32.5t-52.5 19t-71.5 15.5t-78.5 21.5t-72 36.5t-52.5 60.5t-20 94.5q0 73 40 122t106.5 74.5t146.5 25.5
q77 0 139.5 -22.5t100 -68.5t37.5 -119v-12h-192v4q0 18 -8 33t-26.5 24t-48.5 9q-28 0 -46.5 -5.5t-27.5 -14.5t-9 -22q0 -22 20 -34.5t53 -20.5t73 -16t79.5 -20.5t72.5 -34.5t53 -57.5t20 -89.5q0 -85 -40.5 -137.5t-111 -77t-161.5 -24.5zM253 -413v20q35 35 52 73
t17 78h-73v165h159v-139q0 -56 -18 -107t-55 -90h-82z" />
    <glyph glyph-name="uni1E62" unicode="&#x1e62;" horiz-adv-x="651" 
d="M310 -10q-76 0 -141 23.5t-104.5 72t-39.5 124.5v11.5t1 12.5h194q-1 -4 -1 -6v-6q0 -18 8.5 -34t28.5 -26.5t56 -10.5q41 0 61 6t27 16t7 21q0 21 -20 32.5t-52.5 19t-71.5 15.5t-78.5 21.5t-72 36.5t-52.5 60.5t-20 94.5q0 73 40 122t106.5 74.5t146.5 25.5
q77 0 139.5 -22.5t100 -68.5t37.5 -119v-12h-192v4q0 18 -8 33t-26.5 24t-48.5 9q-28 0 -46.5 -5.5t-27.5 -14.5t-9 -22q0 -22 20 -34.5t53 -20.5t73 -16t79.5 -20.5t72.5 -34.5t53 -57.5t20 -89.5q0 -85 -40.5 -137.5t-111 -77t-161.5 -24.5zM262 -190v140h144v-140h-144z
" />
    <glyph glyph-name="uni1E9E" unicode="&#x1e9e;" horiz-adv-x="816" 
d="M529 -10q-113 0 -167.5 49t-54.5 149v21h176q0 -32 7 -51t41 -19q36 0 47.5 21.5t11.5 56.5q0 25 -9.5 40.5t-25 23.5t-35.5 8h-124v123h108q17 0 33 6.5t26.5 20t10.5 35.5q0 29 -20 45t-53 22t-74 6q-47 0 -81 -11t-51.5 -39.5t-17.5 -80.5v-416h-225v366
q0 94 29.5 157.5t82.5 101.5t124 54.5t154 16.5q95 0 169 -21.5t116 -65t42 -109.5q0 -47 -29 -84t-69 -54l1 -4q49 -16 83 -56.5t34 -103.5q0 -70 -33 -116t-91.5 -69t-135.5 -23z" />
    <glyph glyph-name="T" unicode="T" horiz-adv-x="586" 
d="M187 0v521h-172v165h556v-165h-173v-521h-211z" />
    <glyph glyph-name="Tbar" unicode="&#x166;" horiz-adv-x="586" 
d="M187 0v521h-172v165h556v-165h-173v-521h-211zM85 271v126h414v-126h-414z" />
    <glyph glyph-name="Tcaron" unicode="&#x164;" horiz-adv-x="586" 
d="M187 0v521h-172v165h556v-165h-173v-521h-211zM200 746l-109 139h131l86 -105h-32l86 105h131l-109 -139h-184z" />
    <glyph glyph-name="uni0162" unicode="&#x162;" horiz-adv-x="586" 
d="M187 0v521h-172v165h556v-165h-173v-521h-211zM286 -212q-32 0 -63.5 9.5t-53.5 26.5l32 61q17 -11 35.5 -20.5t47.5 -9.5q18 0 26.5 7.5t8.5 18.5q0 13 -8 17t-19 4h-22v66h38q28 0 52 -8t39.5 -26.5t15.5 -48.5q0 -33 -18.5 -54.5t-48 -32t-62.5 -10.5z" />
    <glyph glyph-name="uni021A" unicode="&#x21a;" horiz-adv-x="586" 
d="M187 0v521h-172v165h556v-165h-173v-521h-211zM217 -413v20q35 35 52 73t17 78h-73v165h159v-139q0 -56 -18 -107t-55 -90h-82z" />
    <glyph glyph-name="uni1E6C" unicode="&#x1e6c;" horiz-adv-x="586" 
d="M187 0v521h-172v165h556v-165h-173v-521h-211zM226 -190v140h144v-140h-144z" />
    <glyph glyph-name="U" unicode="U" horiz-adv-x="687" 
d="M312 -10q-81 0 -139.5 29t-89.5 81.5t-31 121.5v464h211v-465q0 -33 23.5 -54t57.5 -21t57 21t23 54v465h211v-464q0 -69 -36 -121.5t-99 -81.5t-145 -29h-43z" />
    <glyph glyph-name="Uacute" unicode="&#xda;" horiz-adv-x="687" 
d="M312 -10q-81 0 -139.5 29t-89.5 81.5t-31 121.5v464h211v-465q0 -33 23.5 -54t57.5 -21t57 21t23 54v465h211v-464q0 -69 -36 -121.5t-99 -81.5t-145 -29h-43zM271 742l91 145h171l2 -3l-126 -142h-138z" />
    <glyph glyph-name="uni0244" unicode="&#x244;" horiz-adv-x="687" 
d="M3 451h682v-126h-682v126zM312 -10q-81 0 -139.5 29t-89.5 81.5t-31 121.5v464h211v-465q0 -33 23.5 -54t57.5 -21t57 21t23 54v465h211v-464q0 -69 -36 -121.5t-99 -81.5t-145 -29h-43z" />
    <glyph glyph-name="Ubreve" unicode="&#x16c;" horiz-adv-x="687" 
d="M312 -10q-81 0 -139.5 29t-89.5 81.5t-31 121.5v464h211v-465q0 -33 23.5 -54t57.5 -21t57 21t23 54v465h211v-464q0 -69 -36 -121.5t-99 -81.5t-145 -29h-43zM340 736q-94 0 -136.5 40.5t-42.5 106.5h101q3 -24 22.5 -37.5t59.5 -13.5t59.5 13.5t23.5 37.5h100
q0 -66 -49.5 -106.5t-137.5 -40.5z" />
    <glyph glyph-name="uni01D3" unicode="&#x1d3;" horiz-adv-x="687" 
d="M312 -10q-81 0 -139.5 29t-89.5 81.5t-31 121.5v464h211v-465q0 -33 23.5 -54t57.5 -21t57 21t23 54v465h211v-464q0 -69 -36 -121.5t-99 -81.5t-145 -29h-43zM252 746l-109 139h131l86 -105h-32l86 105h131l-109 -139h-184z" />
    <glyph glyph-name="Ucircumflex" unicode="&#xdb;" horiz-adv-x="687" 
d="M312 -10q-81 0 -139.5 29t-89.5 81.5t-31 121.5v464h211v-465q0 -33 23.5 -54t57.5 -21t57 21t23 54v465h211v-464q0 -69 -36 -121.5t-99 -81.5t-145 -29h-43zM143 746l109 139h184l109 -139h-131l-86 105h32l-86 -105h-131z" />
    <glyph glyph-name="uni0214" unicode="&#x214;" horiz-adv-x="687" 
d="M312 -10q-81 0 -139.5 29t-89.5 81.5t-31 121.5v464h211v-465q0 -33 23.5 -54t57.5 -21t57 21t23 54v465h211v-464q0 -69 -36 -121.5t-99 -81.5t-145 -29h-43zM398 753l-126 142l7 3h151l91 -145h-123zM176 753l-126 142l2 3h156l91 -145h-123z" />
    <glyph glyph-name="Udieresis" unicode="&#xdc;" horiz-adv-x="687" 
d="M312 -10q-81 0 -139.5 29t-89.5 81.5t-31 121.5v464h211v-465q0 -33 23.5 -54t57.5 -21t57 21t23 54v465h211v-464q0 -69 -36 -121.5t-99 -81.5t-145 -29h-43zM145 745v140h144v-140h-144zM399 745v140h144v-140h-144z" />
    <glyph glyph-name="uni01D7" unicode="&#x1d7;" horiz-adv-x="687" 
d="M312 -10q-81 0 -139.5 29t-89.5 81.5t-31 121.5v464h211v-465q0 -33 23.5 -54t57.5 -21t57 21t23 54v465h211v-464q0 -69 -36 -121.5t-99 -81.5t-145 -29h-43zM286 945l83 133h151l2 -3l-118 -130h-118zM162 755v140h144v-140h-144zM382 755v140h144v-140h-144z" />
    <glyph glyph-name="uni01D9" unicode="&#x1d9;" horiz-adv-x="687" 
d="M312 -10q-81 0 -139.5 29t-89.5 81.5t-31 121.5v464h211v-465q0 -33 23.5 -54t57.5 -21t57 21t23 54v465h211v-464q0 -69 -36 -121.5t-99 -81.5t-145 -29h-43zM280 945l-139 125h130l74 -57l74 57h128l-139 -125h-128zM162 755v140h144v-140h-144zM382 755v140h144v-140
h-144z" />
    <glyph glyph-name="uni01DB" unicode="&#x1db;" horiz-adv-x="687" 
d="M312 -10q-81 0 -139.5 29t-89.5 81.5t-31 121.5v464h211v-465q0 -33 23.5 -54t57.5 -21t57 21t23 54v465h211v-464q0 -69 -36 -121.5t-99 -81.5t-145 -29h-43zM284 945l-118 130l2 3h151l83 -133h-118zM162 755v140h144v-140h-144zM382 755v140h144v-140h-144z" />
    <glyph glyph-name="uni01D5" unicode="&#x1d5;" horiz-adv-x="687" 
d="M312 -10q-81 0 -139.5 29t-89.5 81.5t-31 121.5v464h211v-465q0 -33 23.5 -54t57.5 -21t57 21t23 54v465h211v-464q0 -69 -36 -121.5t-99 -81.5t-145 -29h-43zM162 945v104h364v-104h-364zM162 755v140h144v-140h-144zM382 755v140h144v-140h-144z" />
    <glyph glyph-name="uni1EE4" unicode="&#x1ee4;" horiz-adv-x="687" 
d="M312 -10q-81 0 -139.5 29t-89.5 81.5t-31 121.5v464h211v-465q0 -33 23.5 -54t57.5 -21t57 21t23 54v465h211v-464q0 -69 -36 -121.5t-99 -81.5t-145 -29h-43zM278 -190v140h144v-140h-144z" />
    <glyph glyph-name="Ugrave" unicode="&#xd9;" horiz-adv-x="687" 
d="M312 -10q-81 0 -139.5 29t-89.5 81.5t-31 121.5v464h211v-465q0 -33 23.5 -54t57.5 -21t57 21t23 54v465h211v-464q0 -69 -36 -121.5t-99 -81.5t-145 -29h-43zM279 742l-126 142l2 3h171l91 -145h-138z" />
    <glyph glyph-name="uni1EE6" unicode="&#x1ee6;" horiz-adv-x="687" 
d="M312 -10q-81 0 -139.5 29t-89.5 81.5t-31 121.5v464h211v-465q0 -33 23.5 -54t57.5 -21t57 21t23 54v465h211v-464q0 -69 -36 -121.5t-99 -81.5t-145 -29h-43zM317 729v81q27 3 42 14.5t15 33.5q0 16 -12.5 26t-35.5 10q-14 0 -32 -2.5t-40 -10.5v110q20 5 39.5 7t38.5 2
q62 0 104 -32.5t42 -92.5q0 -42 -24 -74t-60.5 -51t-76.5 -21z" />
    <glyph glyph-name="Uhorn" unicode="&#x1af;" horiz-adv-x="687" 
d="M312 -10q-81 0 -139.5 29t-89.5 81.5t-31 121.5v464h211v-465q0 -33 23.5 -54t57.5 -21t57 21t23 54v465h211v-464q0 -69 -36 -121.5t-99 -81.5t-145 -29h-43zM521 588v98q49 8 64 41.5t15 97.5h164q0 -60 -32 -112t-87 -86t-124 -39z" />
    <glyph glyph-name="uni1EE8" unicode="&#x1ee8;" horiz-adv-x="687" 
d="M312 -10q-81 0 -139.5 29t-89.5 81.5t-31 121.5v464h211v-465q0 -33 23.5 -54t57.5 -21t57 21t23 54v465h211v-464q0 -69 -36 -121.5t-99 -81.5t-145 -29h-43zM521 588v98q49 8 64 41.5t15 97.5h164q0 -60 -32 -112t-87 -86t-124 -39zM271 742l91 145h171l2 -3l-126 -142
h-138z" />
    <glyph glyph-name="uni1EF0" unicode="&#x1ef0;" horiz-adv-x="687" 
d="M312 -10q-81 0 -139.5 29t-89.5 81.5t-31 121.5v464h211v-465q0 -33 23.5 -54t57.5 -21t57 21t23 54v465h211v-464q0 -69 -36 -121.5t-99 -81.5t-145 -29h-43zM521 588v98q49 8 64 41.5t15 97.5h164q0 -60 -32 -112t-87 -86t-124 -39zM278 -190v140h144v-140h-144z" />
    <glyph glyph-name="uni1EEA" unicode="&#x1eea;" horiz-adv-x="687" 
d="M312 -10q-81 0 -139.5 29t-89.5 81.5t-31 121.5v464h211v-465q0 -33 23.5 -54t57.5 -21t57 21t23 54v465h211v-464q0 -69 -36 -121.5t-99 -81.5t-145 -29h-43zM521 588v98q49 8 64 41.5t15 97.5h164q0 -60 -32 -112t-87 -86t-124 -39zM279 742l-126 142l2 3h171l91 -145
h-138z" />
    <glyph glyph-name="uni1EEC" unicode="&#x1eec;" horiz-adv-x="687" 
d="M312 -10q-81 0 -139.5 29t-89.5 81.5t-31 121.5v464h211v-465q0 -33 23.5 -54t57.5 -21t57 21t23 54v465h211v-464q0 -69 -36 -121.5t-99 -81.5t-145 -29h-43zM521 588v98q49 8 64 41.5t15 97.5h164q0 -60 -32 -112t-87 -86t-124 -39zM317 729v81q27 3 42 14.5t15 33.5
q0 16 -12.5 26t-35.5 10q-14 0 -32 -2.5t-40 -10.5v110q20 5 39.5 7t38.5 2q62 0 104 -32.5t42 -92.5q0 -42 -24 -74t-60.5 -51t-76.5 -21z" />
    <glyph glyph-name="uni1EEE" unicode="&#x1eee;" horiz-adv-x="687" 
d="M312 -10q-81 0 -139.5 29t-89.5 81.5t-31 121.5v464h211v-465q0 -33 23.5 -54t57.5 -21t57 21t23 54v465h211v-464q0 -69 -36 -121.5t-99 -81.5t-145 -29h-43zM521 588v98q49 8 64 41.5t15 97.5h164q0 -60 -32 -112t-87 -86t-124 -39zM137 739q4 47 20 81.5t43.5 53.5
t64.5 19q34 0 61.5 -10.5t51.5 -21t45 -10.5q20 0 31.5 11.5t15.5 29.5h81q-3 -46 -19.5 -81t-44 -54t-64.5 -19q-34 0 -61.5 10.5t-51 21t-45.5 10.5q-19 0 -30.5 -11.5t-16.5 -29.5h-81z" />
    <glyph glyph-name="Uhungarumlaut" unicode="&#x170;" horiz-adv-x="687" 
d="M312 -10q-81 0 -139.5 29t-89.5 81.5t-31 121.5v464h211v-465q0 -33 23.5 -54t57.5 -21t57 21t23 54v465h211v-464q0 -69 -36 -121.5t-99 -81.5t-145 -29h-43zM370 743l91 145h156l2 -3l-126 -142h-123zM149 743l91 145h151l7 -3l-126 -142h-123z" />
    <glyph glyph-name="uni0216" unicode="&#x216;" horiz-adv-x="687" 
d="M312 -10q-81 0 -139.5 29t-89.5 81.5t-31 121.5v464h211v-465q0 -33 23.5 -54t57.5 -21t57 21t23 54v465h211v-464q0 -69 -36 -121.5t-99 -81.5t-145 -29h-43zM151 751q0 44 23 77t67 51.5t105 18.5q66 0 108 -18.5t62 -51.5t20 -77h-101q-4 24 -25.5 37.5t-65.5 13.5
t-66 -13.5t-27 -37.5h-100z" />
    <glyph glyph-name="Umacron" unicode="&#x16a;" horiz-adv-x="687" 
d="M312 -10q-81 0 -139.5 29t-89.5 81.5t-31 121.5v464h211v-465q0 -33 23.5 -54t57.5 -21t57 21t23 54v465h211v-464q0 -69 -36 -121.5t-99 -81.5t-145 -29h-43zM170 765v100h348v-100h-348z" />
    <glyph glyph-name="Uogonek" unicode="&#x172;" horiz-adv-x="687" 
d="M312 -10q-81 0 -139.5 29t-89.5 81.5t-31 121.5v464h211v-465q0 -33 23.5 -54t57.5 -21t57 21t23 54v465h211v-464q0 -69 -36 -121.5t-99 -81.5t-145 -29h-43zM382 -150q-28 0 -52.5 8.5t-39.5 26t-15 44.5q0 24 12 42t28 29h118q-17 -10 -29.5 -21.5t-12.5 -28.5t10 -24
t25 -7q13 0 28 4t28 9l14 -51q-23 -14 -53.5 -22.5t-60.5 -8.5z" />
    <glyph glyph-name="Uring" unicode="&#x16e;" horiz-adv-x="687" 
d="M312 -10q-81 0 -139.5 29t-89.5 81.5t-31 121.5v464h211v-465q0 -33 23.5 -54t57.5 -21t57 21t23 54v465h211v-464q0 -69 -36 -121.5t-99 -81.5t-145 -29h-43zM344 720q-47 0 -79 28t-32 77q0 48 31.5 77t79.5 29q47 0 79 -29t32 -77q0 -47 -31.5 -76t-79.5 -29zM344 790
q15 0 25 10.5t10 25.5q0 14 -10.5 24t-24.5 10q-15 0 -25 -10.5t-10 -25.5q0 -14 10.5 -24t24.5 -10z" />
    <glyph glyph-name="Utilde" unicode="&#x168;" horiz-adv-x="687" 
d="M312 -10q-81 0 -139.5 29t-89.5 81.5t-31 121.5v464h211v-465q0 -33 23.5 -54t57.5 -21t57 21t23 54v465h211v-464q0 -69 -36 -121.5t-99 -81.5t-145 -29h-43zM137 739q4 47 20 81.5t43.5 53.5t64.5 19q34 0 61.5 -10.5t51.5 -21t45 -10.5q20 0 31.5 11.5t15.5 29.5h81
q-3 -46 -19.5 -81t-44 -54t-64.5 -19q-34 0 -61.5 10.5t-51 21t-45.5 10.5q-19 0 -30.5 -11.5t-16.5 -29.5h-81z" />
    <glyph glyph-name="V" unicode="V" horiz-adv-x="656" 
d="M202 0l-205 686h218l120 -426h4l119 426h202l-208 -686h-250z" />
    <glyph glyph-name="W" unicode="W" horiz-adv-x="1021" 
d="M185 0l-187 686h217l97 -381h4l98 381h215l96 -381h4l97 381h197l-186 -686h-238l-83 329h-6l-83 -329h-242z" />
    <glyph glyph-name="Wacute" unicode="&#x1e82;" horiz-adv-x="1021" 
d="M185 0l-187 686h217l97 -381h4l98 381h215l96 -381h4l97 381h197l-186 -686h-238l-83 329h-6l-83 -329h-242zM438 742l91 145h171l2 -3l-126 -142h-138z" />
    <glyph glyph-name="Wcircumflex" unicode="&#x174;" horiz-adv-x="1021" 
d="M185 0l-187 686h217l97 -381h4l98 381h215l96 -381h4l97 381h197l-186 -686h-238l-83 329h-6l-83 -329h-242zM310 746l109 139h184l109 -139h-131l-86 105h32l-86 -105h-131z" />
    <glyph glyph-name="Wdieresis" unicode="&#x1e84;" horiz-adv-x="1021" 
d="M185 0l-187 686h217l97 -381h4l98 381h215l96 -381h4l97 381h197l-186 -686h-238l-83 329h-6l-83 -329h-242zM312 745v140h144v-140h-144zM566 745v140h144v-140h-144z" />
    <glyph glyph-name="Wgrave" unicode="&#x1e80;" horiz-adv-x="1021" 
d="M185 0l-187 686h217l97 -381h4l98 381h215l96 -381h4l97 381h197l-186 -686h-238l-83 329h-6l-83 -329h-242zM446 742l-126 142l2 3h171l91 -145h-138z" />
    <glyph glyph-name="X" unicode="X" horiz-adv-x="675" 
d="M-15 0l215 363l-193 323h243l95 -175h4l95 175h225l-194 -324l215 -362h-244l-116 213h-4l-115 -213h-226z" />
    <glyph glyph-name="Y" unicode="Y" horiz-adv-x="646" 
d="M218 0v263l-227 423h236l103 -225h5l105 225h215l-226 -423v-263h-211z" />
    <glyph glyph-name="Yacute" unicode="&#xdd;" horiz-adv-x="646" 
d="M218 0v263l-227 423h236l103 -225h5l105 225h215l-226 -423v-263h-211zM261 742l91 145h171l2 -3l-126 -142h-138z" />
    <glyph glyph-name="Ycircumflex" unicode="&#x176;" horiz-adv-x="646" 
d="M218 0v263l-227 423h236l103 -225h5l105 225h215l-226 -423v-263h-211zM133 746l109 139h184l109 -139h-131l-86 105h32l-86 -105h-131z" />
    <glyph glyph-name="Ydieresis" unicode="&#x178;" horiz-adv-x="646" 
d="M218 0v263l-227 423h236l103 -225h5l105 225h215l-226 -423v-263h-211zM135 745v140h144v-140h-144zM389 745v140h144v-140h-144z" />
    <glyph glyph-name="uni1EF4" unicode="&#x1ef4;" horiz-adv-x="646" 
d="M218 0v263l-227 423h236l103 -225h5l105 225h215l-226 -423v-263h-211zM266 -190v140h144v-140h-144z" />
    <glyph glyph-name="Ygrave" unicode="&#x1ef2;" horiz-adv-x="646" 
d="M218 0v263l-227 423h236l103 -225h5l105 225h215l-226 -423v-263h-211zM269 742l-126 142l2 3h171l91 -145h-138z" />
    <glyph glyph-name="uni1EF6" unicode="&#x1ef6;" horiz-adv-x="646" 
d="M218 0v263l-227 423h236l103 -225h5l105 225h215l-226 -423v-263h-211zM307 729v81q27 3 42 14.5t15 33.5q0 16 -12.5 26t-35.5 10q-14 0 -32 -2.5t-40 -10.5v110q20 5 39.5 7t38.5 2q62 0 104 -32.5t42 -92.5q0 -42 -24 -74t-60.5 -51t-76.5 -21z" />
    <glyph glyph-name="uni0232" unicode="&#x232;" horiz-adv-x="646" 
d="M218 0v263l-227 423h236l103 -225h5l105 225h215l-226 -423v-263h-211zM160 765v100h348v-100h-348z" />
    <glyph glyph-name="uni1EF8" unicode="&#x1ef8;" horiz-adv-x="646" 
d="M218 0v263l-227 423h236l103 -225h5l105 225h215l-226 -423v-263h-211zM127 739q4 47 20 81.5t43.5 53.5t64.5 19q34 0 61.5 -10.5t51.5 -21t45 -10.5q20 0 31.5 11.5t15.5 29.5h81q-3 -46 -19.5 -81t-44 -54t-64.5 -19q-34 0 -61.5 10.5t-51 21t-45.5 10.5
q-19 0 -30.5 -11.5t-16.5 -29.5h-81z" />
    <glyph glyph-name="Z" unicode="Z" horiz-adv-x="608" 
d="M14 0v61l268 465h-244v160h539v-61l-263 -464h271v-161h-571z" />
    <glyph glyph-name="Zacute" unicode="&#x179;" horiz-adv-x="608" 
d="M14 0v61l268 465h-244v160h539v-61l-263 -464h271v-161h-571zM243 742l91 145h171l2 -3l-126 -142h-138z" />
    <glyph glyph-name="Zcaron" unicode="&#x17d;" horiz-adv-x="608" 
d="M14 0v61l268 465h-244v160h539v-61l-263 -464h271v-161h-571zM224 746l-109 139h131l86 -105h-32l86 105h131l-109 -139h-184z" />
    <glyph glyph-name="Zdotaccent" unicode="&#x17b;" horiz-adv-x="608" 
d="M14 0v61l268 465h-244v160h539v-61l-263 -464h271v-161h-571zM244 740v140h144v-140h-144z" />
    <glyph glyph-name="Cacute.loclPLK" horiz-adv-x="683" 
d="M345 -10q-66 0 -123 20t-100 58.5t-67 94.5t-24 127v106q0 68 25 123t69 94.5t100.5 61t118.5 21.5h28q61 0 113.5 -18t91.5 -54.5t60.5 -91t21.5 -127.5h-197q0 51 -11 80.5t-34.5 42t-60.5 12.5q-23 0 -41.5 -7.5t-31.5 -20.5t-20 -31.5t-7 -40.5v-194q0 -29 11.5 -52
t34 -35.5t54.5 -12.5q43 0 68 12t36 41t11 80l188 1q0 -67 -21.5 -121t-60.5 -91.5t-91 -57.5t-113 -20h-28zM300 751l31 145h151l2 -3l-66 -142h-118z" />
    <glyph glyph-name="Nacute.loclPLK" horiz-adv-x="696" 
d="M57 0v686h176l177 -255l31 -59l5 3v311h193v-686h-180l-183 264l-21 42l-5 -2v-304h-193zM309 751l31 145h151l2 -3l-66 -142h-118z" />
    <glyph glyph-name="Oacute.loclPLK" horiz-adv-x="718" 
d="M331 -10q-62 0 -116.5 23.5t-95.5 64.5t-64.5 95.5t-23.5 116.5v104q0 62 23.5 116.5t64.5 95.5t95.5 64.5t116.5 23.5h56q62 0 116.5 -23.5t95.5 -64.5t64.5 -95.5t23.5 -116.5v-104q0 -62 -23.5 -116.5t-64.5 -95.5t-95.5 -64.5t-116.5 -23.5h-56zM359 146q23 0 41.5 8
t32.5 21.5t21.5 31.5t7.5 39v192q0 21 -7.5 39t-21.5 32t-32.5 21.5t-41.5 7.5q-22 0 -41 -8t-33 -21.5t-21.5 -31.5t-7.5 -39v-192q0 -21 7.5 -39t21.5 -32t33 -21.5t41 -7.5zM313 751l31 145h151l2 -3l-66 -142h-118z" />
    <glyph glyph-name="Sacute.loclPLK" horiz-adv-x="651" 
d="M310 -10q-76 0 -141 23.5t-104.5 72t-39.5 124.5v11.5t1 12.5h194q-1 -4 -1 -6v-6q0 -18 8.5 -34t28.5 -26.5t56 -10.5q41 0 61 6t27 16t7 21q0 21 -20 32.5t-52.5 19t-71.5 15.5t-78.5 21.5t-72 36.5t-52.5 60.5t-20 94.5q0 73 40 122t106.5 74.5t146.5 25.5
q77 0 139.5 -22.5t100 -68.5t37.5 -119v-12h-192v4q0 18 -8 33t-26.5 24t-48.5 9q-28 0 -46.5 -5.5t-27.5 -14.5t-9 -22q0 -22 20 -34.5t53 -20.5t73 -16t79.5 -20.5t72.5 -34.5t53 -57.5t20 -89.5q0 -85 -40.5 -137.5t-111 -77t-161.5 -24.5zM277 751l31 145h151l2 -3
l-66 -142h-118z" />
    <glyph glyph-name="Zacute.loclPLK" horiz-adv-x="608" 
d="M14 0v61l268 465h-244v160h539v-61l-263 -464h271v-161h-571zM270 751l31 145h151l2 -3l-66 -142h-118z" />
    <glyph glyph-name="uni026A" unicode="&#x26a;" horiz-adv-x="418" 
d="M10 0v142h100v227h-100v142h398v-142h-100v-227h100v-142h-398z" />
    <glyph glyph-name="Ismallstroke" unicode="&#x1d7b;" horiz-adv-x="298" 
d="M-1 329h300v-128h-300v128zM50 0v510h198v-510h-198z" />
    <glyph glyph-name="a" unicode="a" horiz-adv-x="624" 
d="M185 -10q-41 0 -78 14.5t-60 46.5t-23 86q0 53 23 88t66.5 55t105.5 28t140 8v35q0 29 -19 41.5t-46 12.5q-29 0 -46.5 -13t-17.5 -34v-4h-190q-1 2 -1 6v8q0 43 29 77.5t83 55t128 20.5h33q121 0 180 -46.5t59 -115.5v-211q0 -20 10 -28.5t21 -8.5q9 0 18 2.5t17 6.5
v-107q-13 -10 -37.5 -16.5t-63.5 -6.5q-44 0 -75 10.5t-48.5 28.5t-23.5 42q-26 -30 -70.5 -55.5t-113.5 -25.5zM291 111q18 0 33.5 8.5t25 24.5t9.5 37v44q-46 0 -74 -8.5t-41 -23t-13 -34.5q0 -29 18.5 -38.5t41.5 -9.5z" />
    <glyph glyph-name="aacute" unicode="&#xe1;" horiz-adv-x="624" 
d="M185 -10q-41 0 -78 14.5t-60 46.5t-23 86q0 53 23 88t66.5 55t105.5 28t140 8v35q0 29 -19 41.5t-46 12.5q-29 0 -46.5 -13t-17.5 -34v-4h-190q-1 2 -1 6v8q0 43 29 77.5t83 55t128 20.5h33q121 0 180 -46.5t59 -115.5v-211q0 -20 10 -28.5t21 -8.5q9 0 18 2.5t17 6.5
v-107q-13 -10 -37.5 -16.5t-63.5 -6.5q-44 0 -75 10.5t-48.5 28.5t-23.5 42q-26 -30 -70.5 -55.5t-113.5 -25.5zM291 111q18 0 33.5 8.5t25 24.5t9.5 37v44q-46 0 -74 -8.5t-41 -23t-13 -34.5q0 -29 18.5 -38.5t41.5 -9.5zM224 583l91 178h165l2 -3l-125 -175h-133z" />
    <glyph glyph-name="abreve" unicode="&#x103;" horiz-adv-x="624" 
d="M185 -10q-41 0 -78 14.5t-60 46.5t-23 86q0 53 23 88t66.5 55t105.5 28t140 8v35q0 29 -19 41.5t-46 12.5q-29 0 -46.5 -13t-17.5 -34v-4h-190q-1 2 -1 6v8q0 43 29 77.5t83 55t128 20.5h33q121 0 180 -46.5t59 -115.5v-211q0 -20 10 -28.5t21 -8.5q9 0 18 2.5t17 6.5
v-107q-13 -10 -37.5 -16.5t-63.5 -6.5q-44 0 -75 10.5t-48.5 28.5t-23.5 42q-26 -30 -70.5 -55.5t-113.5 -25.5zM291 111q18 0 33.5 8.5t25 24.5t9.5 37v44q-46 0 -74 -8.5t-41 -23t-13 -34.5q0 -29 18.5 -38.5t41.5 -9.5zM292 588q-66 0 -107.5 21t-61.5 58.5t-20 87.5h101
q4 -34 26 -52.5t66 -18.5t66 18.5t27 52.5h100q0 -50 -23.5 -87.5t-67.5 -58.5t-106 -21z" />
    <glyph glyph-name="uni1EAF" unicode="&#x1eaf;" horiz-adv-x="624" 
d="M185 -10q-41 0 -78 14.5t-60 46.5t-23 86q0 53 23 88t66.5 55t105.5 28t140 8v35q0 29 -19 41.5t-46 12.5q-29 0 -46.5 -13t-17.5 -34v-4h-190q-1 2 -1 6v8q0 43 29 77.5t83 55t128 20.5h33q121 0 180 -46.5t59 -115.5v-211q0 -20 10 -28.5t21 -8.5q9 0 18 2.5t17 6.5
v-107q-13 -10 -37.5 -16.5t-63.5 -6.5q-44 0 -75 10.5t-48.5 28.5t-23.5 42q-26 -30 -70.5 -55.5t-113.5 -25.5zM291 111q18 0 33.5 8.5t25 24.5t9.5 37v44q-46 0 -74 -8.5t-41 -23t-13 -34.5q0 -29 18.5 -38.5t41.5 -9.5zM291 588q-65 0 -107 18.5t-61.5 51.5t-19.5 77h101
q4 -24 26 -37.5t65 -13.5q44 0 66 13.5t27 37.5h100q0 -44 -23.5 -77t-67.5 -51.5t-106 -18.5zM236 755l91 145h151l2 -3l-126 -142h-118z" />
    <glyph glyph-name="uni1EB7" unicode="&#x1eb7;" horiz-adv-x="624" 
d="M185 -10q-41 0 -78 14.5t-60 46.5t-23 86q0 53 23 88t66.5 55t105.5 28t140 8v35q0 29 -19 41.5t-46 12.5q-29 0 -46.5 -13t-17.5 -34v-4h-190q-1 2 -1 6v8q0 43 29 77.5t83 55t128 20.5h33q121 0 180 -46.5t59 -115.5v-211q0 -20 10 -28.5t21 -8.5q9 0 18 2.5t17 6.5
v-107q-13 -10 -37.5 -16.5t-63.5 -6.5q-44 0 -75 10.5t-48.5 28.5t-23.5 42q-26 -30 -70.5 -55.5t-113.5 -25.5zM291 111q18 0 33.5 8.5t25 24.5t9.5 37v44q-46 0 -74 -8.5t-41 -23t-13 -34.5q0 -29 18.5 -38.5t41.5 -9.5zM243 -190v140h144v-140h-144zM292 588
q-66 0 -107.5 21t-61.5 58.5t-20 87.5h101q4 -34 26 -52.5t66 -18.5t66 18.5t27 52.5h100q0 -50 -23.5 -87.5t-67.5 -58.5t-106 -21z" />
    <glyph glyph-name="uni1EB1" unicode="&#x1eb1;" horiz-adv-x="624" 
d="M185 -10q-41 0 -78 14.5t-60 46.5t-23 86q0 53 23 88t66.5 55t105.5 28t140 8v35q0 29 -19 41.5t-46 12.5q-29 0 -46.5 -13t-17.5 -34v-4h-190q-1 2 -1 6v8q0 43 29 77.5t83 55t128 20.5h33q121 0 180 -46.5t59 -115.5v-211q0 -20 10 -28.5t21 -8.5q9 0 18 2.5t17 6.5
v-107q-13 -10 -37.5 -16.5t-63.5 -6.5q-44 0 -75 10.5t-48.5 28.5t-23.5 42q-26 -30 -70.5 -55.5t-113.5 -25.5zM291 111q18 0 33.5 8.5t25 24.5t9.5 37v44q-46 0 -74 -8.5t-41 -23t-13 -34.5q0 -29 18.5 -38.5t41.5 -9.5zM291 588q-65 0 -107 18.5t-61.5 51.5t-19.5 77h101
q4 -24 26 -37.5t65 -13.5q44 0 66 13.5t27 37.5h100q0 -44 -23.5 -77t-67.5 -51.5t-106 -18.5zM237 755l-126 142l2 3h151l91 -145h-118z" />
    <glyph glyph-name="uni1EB3" unicode="&#x1eb3;" horiz-adv-x="624" 
d="M185 -10q-41 0 -78 14.5t-60 46.5t-23 86q0 53 23 88t66.5 55t105.5 28t140 8v35q0 29 -19 41.5t-46 12.5q-29 0 -46.5 -13t-17.5 -34v-4h-190q-1 2 -1 6v8q0 43 29 77.5t83 55t128 20.5h33q121 0 180 -46.5t59 -115.5v-211q0 -20 10 -28.5t21 -8.5q9 0 18 2.5t17 6.5
v-107q-13 -10 -37.5 -16.5t-63.5 -6.5q-44 0 -75 10.5t-48.5 28.5t-23.5 42q-26 -30 -70.5 -55.5t-113.5 -25.5zM291 111q18 0 33.5 8.5t25 24.5t9.5 37v44q-46 0 -74 -8.5t-41 -23t-13 -34.5q0 -29 18.5 -38.5t41.5 -9.5zM291 588q-65 0 -107 18.5t-61.5 51.5t-19.5 77h101
q4 -24 26 -37.5t65 -13.5q44 0 66 13.5t27 37.5h100q0 -44 -23.5 -77t-67.5 -51.5t-106 -18.5zM278 755v64q22 3 34 12.5t12 26.5q0 13 -10.5 21t-28.5 8q-11 0 -25.5 -2.5t-31.5 -8.5v88q16 5 31.5 6t30.5 1q50 0 83.5 -26t33.5 -74q0 -33 -19 -59t-48.5 -40.5t-61.5 -16.5
z" />
    <glyph glyph-name="uni1EB5" unicode="&#x1eb5;" horiz-adv-x="624" 
d="M185 -10q-41 0 -78 14.5t-60 46.5t-23 86q0 53 23 88t66.5 55t105.5 28t140 8v35q0 29 -19 41.5t-46 12.5q-29 0 -46.5 -13t-17.5 -34v-4h-190q-1 2 -1 6v8q0 43 29 77.5t83 55t128 20.5h33q121 0 180 -46.5t59 -115.5v-211q0 -20 10 -28.5t21 -8.5q9 0 18 2.5t17 6.5
v-107q-13 -10 -37.5 -16.5t-63.5 -6.5q-44 0 -75 10.5t-48.5 28.5t-23.5 42q-26 -30 -70.5 -55.5t-113.5 -25.5zM291 111q18 0 33.5 8.5t25 24.5t9.5 37v44q-46 0 -74 -8.5t-41 -23t-13 -34.5q0 -29 18.5 -38.5t41.5 -9.5zM291 588q-65 0 -107 18.5t-61.5 51.5t-19.5 77h101
q4 -24 26 -37.5t65 -13.5q44 0 66 13.5t27 37.5h100q0 -44 -23.5 -77t-67.5 -51.5t-106 -18.5zM103 781q0 42 15.5 73.5t43 48.5t62.5 17q34 0 57 -9t43 -18t43 -9q17 0 30 10t17 26h74q0 -42 -15.5 -73.5t-43 -48.5t-62.5 -17q-33 0 -56.5 9t-43 18t-43.5 9
q-17 0 -29.5 -10t-17.5 -26h-74z" />
    <glyph glyph-name="uni01CE" unicode="&#x1ce;" horiz-adv-x="624" 
d="M185 -10q-41 0 -78 14.5t-60 46.5t-23 86q0 53 23 88t66.5 55t105.5 28t140 8v35q0 29 -19 41.5t-46 12.5q-29 0 -46.5 -13t-17.5 -34v-4h-190q-1 2 -1 6v8q0 43 29 77.5t83 55t128 20.5h33q121 0 180 -46.5t59 -115.5v-211q0 -20 10 -28.5t21 -8.5q9 0 18 2.5t17 6.5
v-107q-13 -10 -37.5 -16.5t-63.5 -6.5q-44 0 -75 10.5t-48.5 28.5t-23.5 42q-26 -30 -70.5 -55.5t-113.5 -25.5zM291 111q18 0 33.5 8.5t25 24.5t9.5 37v44q-46 0 -74 -8.5t-41 -23t-13 -34.5q0 -29 18.5 -38.5t41.5 -9.5zM509 766l-139 -188h-148l-139 188h140l114 -160
h-80l114 160h138z" />
    <glyph glyph-name="acircumflex" unicode="&#xe2;" horiz-adv-x="624" 
d="M185 -10q-41 0 -78 14.5t-60 46.5t-23 86q0 53 23 88t66.5 55t105.5 28t140 8v35q0 29 -19 41.5t-46 12.5q-29 0 -46.5 -13t-17.5 -34v-4h-190q-1 2 -1 6v8q0 43 29 77.5t83 55t128 20.5h33q121 0 180 -46.5t59 -115.5v-211q0 -20 10 -28.5t21 -8.5q9 0 18 2.5t17 6.5
v-107q-13 -10 -37.5 -16.5t-63.5 -6.5q-44 0 -75 10.5t-48.5 28.5t-23.5 42q-26 -30 -70.5 -55.5t-113.5 -25.5zM291 111q18 0 33.5 8.5t25 24.5t9.5 37v44q-46 0 -74 -8.5t-41 -23t-13 -34.5q0 -29 18.5 -38.5t41.5 -9.5zM83 573l139 188h148l139 -188h-140l-114 160h80
l-114 -160h-138z" />
    <glyph glyph-name="uni1EA5" unicode="&#x1ea5;" horiz-adv-x="624" 
d="M185 -10q-41 0 -78 14.5t-60 46.5t-23 86q0 53 23 88t66.5 55t105.5 28t140 8v35q0 29 -19 41.5t-46 12.5q-29 0 -46.5 -13t-17.5 -34v-4h-190q-1 2 -1 6v8q0 43 29 77.5t83 55t128 20.5h33q121 0 180 -46.5t59 -115.5v-211q0 -20 10 -28.5t21 -8.5q9 0 18 2.5t17 6.5
v-107q-13 -10 -37.5 -16.5t-63.5 -6.5q-44 0 -75 10.5t-48.5 28.5t-23.5 42q-26 -30 -70.5 -55.5t-113.5 -25.5zM291 111q18 0 33.5 8.5t25 24.5t9.5 37v44q-46 0 -74 -8.5t-41 -23t-13 -34.5q0 -29 18.5 -38.5t41.5 -9.5zM93 588l139 148h128l139 -148h-120l-84 65l-84 -65
h-118zM238 786l91 145h151l2 -3l-126 -142h-118z" />
    <glyph glyph-name="uni1EAD" unicode="&#x1ead;" horiz-adv-x="624" 
d="M185 -10q-41 0 -78 14.5t-60 46.5t-23 86q0 53 23 88t66.5 55t105.5 28t140 8v35q0 29 -19 41.5t-46 12.5q-29 0 -46.5 -13t-17.5 -34v-4h-190q-1 2 -1 6v8q0 43 29 77.5t83 55t128 20.5h33q121 0 180 -46.5t59 -115.5v-211q0 -20 10 -28.5t21 -8.5q9 0 18 2.5t17 6.5
v-107q-13 -10 -37.5 -16.5t-63.5 -6.5q-44 0 -75 10.5t-48.5 28.5t-23.5 42q-26 -30 -70.5 -55.5t-113.5 -25.5zM291 111q18 0 33.5 8.5t25 24.5t9.5 37v44q-46 0 -74 -8.5t-41 -23t-13 -34.5q0 -29 18.5 -38.5t41.5 -9.5zM243 -190v140h144v-140h-144zM83 573l139 188h148
l139 -188h-140l-114 160h80l-114 -160h-138z" />
    <glyph glyph-name="uni1EA7" unicode="&#x1ea7;" horiz-adv-x="624" 
d="M185 -10q-41 0 -78 14.5t-60 46.5t-23 86q0 53 23 88t66.5 55t105.5 28t140 8v35q0 29 -19 41.5t-46 12.5q-29 0 -46.5 -13t-17.5 -34v-4h-190q-1 2 -1 6v8q0 43 29 77.5t83 55t128 20.5h33q121 0 180 -46.5t59 -115.5v-211q0 -20 10 -28.5t21 -8.5q9 0 18 2.5t17 6.5
v-107q-13 -10 -37.5 -16.5t-63.5 -6.5q-44 0 -75 10.5t-48.5 28.5t-23.5 42q-26 -30 -70.5 -55.5t-113.5 -25.5zM291 111q18 0 33.5 8.5t25 24.5t9.5 37v44q-46 0 -74 -8.5t-41 -23t-13 -34.5q0 -29 18.5 -38.5t41.5 -9.5zM93 588l139 148h128l139 -148h-120l-84 65l-84 -65
h-118zM240 786l-126 142l2 3h151l91 -145h-118z" />
    <glyph glyph-name="uni1EA9" unicode="&#x1ea9;" horiz-adv-x="624" 
d="M185 -10q-41 0 -78 14.5t-60 46.5t-23 86q0 53 23 88t66.5 55t105.5 28t140 8v35q0 29 -19 41.5t-46 12.5q-29 0 -46.5 -13t-17.5 -34v-4h-190q-1 2 -1 6v8q0 43 29 77.5t83 55t128 20.5h33q121 0 180 -46.5t59 -115.5v-211q0 -20 10 -28.5t21 -8.5q9 0 18 2.5t17 6.5
v-107q-13 -10 -37.5 -16.5t-63.5 -6.5q-44 0 -75 10.5t-48.5 28.5t-23.5 42q-26 -30 -70.5 -55.5t-113.5 -25.5zM291 111q18 0 33.5 8.5t25 24.5t9.5 37v44q-46 0 -74 -8.5t-41 -23t-13 -34.5q0 -29 18.5 -38.5t41.5 -9.5zM94 588l139 148h128l139 -148h-120l-84 65l-84 -65
h-118zM274 776v64q22 3 34 12.5t12 26.5q0 13 -10.5 21t-28.5 8q-11 0 -25.5 -2.5t-31.5 -8.5v88q16 5 31.5 6t30.5 1q50 0 83.5 -26t33.5 -74q0 -33 -19 -59t-48.5 -40.5t-61.5 -16.5z" />
    <glyph glyph-name="uni1EAB" unicode="&#x1eab;" horiz-adv-x="624" 
d="M185 -10q-41 0 -78 14.5t-60 46.5t-23 86q0 53 23 88t66.5 55t105.5 28t140 8v35q0 29 -19 41.5t-46 12.5q-29 0 -46.5 -13t-17.5 -34v-4h-190q-1 2 -1 6v8q0 43 29 77.5t83 55t128 20.5h33q121 0 180 -46.5t59 -115.5v-211q0 -20 10 -28.5t21 -8.5q9 0 18 2.5t17 6.5
v-107q-13 -10 -37.5 -16.5t-63.5 -6.5q-44 0 -75 10.5t-48.5 28.5t-23.5 42q-26 -30 -70.5 -55.5t-113.5 -25.5zM291 111q18 0 33.5 8.5t25 24.5t9.5 37v44q-46 0 -74 -8.5t-41 -23t-13 -34.5q0 -29 18.5 -38.5t41.5 -9.5zM93 588l139 148h128l139 -148h-120l-84 65l-84 -65
h-118zM104 776q0 42 15.5 73.5t43 48.5t62.5 17q34 0 57 -9t43 -18t43 -9q17 0 30 10t17 26h74q0 -42 -15.5 -73.5t-43 -48.5t-62.5 -17q-33 0 -56.5 9t-43 18t-43.5 9q-17 0 -29.5 -10t-17.5 -26h-74z" />
    <glyph glyph-name="uni0201" unicode="&#x201;" horiz-adv-x="624" 
d="M185 -10q-41 0 -78 14.5t-60 46.5t-23 86q0 53 23 88t66.5 55t105.5 28t140 8v35q0 29 -19 41.5t-46 12.5q-29 0 -46.5 -13t-17.5 -34v-4h-190q-1 2 -1 6v8q0 43 29 77.5t83 55t128 20.5h33q121 0 180 -46.5t59 -115.5v-211q0 -20 10 -28.5t21 -8.5q9 0 18 2.5t17 6.5
v-107q-13 -10 -37.5 -16.5t-63.5 -6.5q-44 0 -75 10.5t-48.5 28.5t-23.5 42q-26 -30 -70.5 -55.5t-113.5 -25.5zM291 111q18 0 33.5 8.5t25 24.5t9.5 37v44q-46 0 -74 -8.5t-41 -23t-13 -34.5q0 -29 18.5 -38.5t41.5 -9.5zM356 590l-126 142l7 3h151l91 -145h-123zM134 590
l-126 142l2 3h156l91 -145h-123z" />
    <glyph glyph-name="adieresis" unicode="&#xe4;" horiz-adv-x="624" 
d="M185 -10q-41 0 -78 14.5t-60 46.5t-23 86q0 53 23 88t66.5 55t105.5 28t140 8v35q0 29 -19 41.5t-46 12.5q-29 0 -46.5 -13t-17.5 -34v-4h-190q-1 2 -1 6v8q0 43 29 77.5t83 55t128 20.5h33q121 0 180 -46.5t59 -115.5v-211q0 -20 10 -28.5t21 -8.5q9 0 18 2.5t17 6.5
v-107q-13 -10 -37.5 -16.5t-63.5 -6.5q-44 0 -75 10.5t-48.5 28.5t-23.5 42q-26 -30 -70.5 -55.5t-113.5 -25.5zM291 111q18 0 33.5 8.5t25 24.5t9.5 37v44q-46 0 -74 -8.5t-41 -23t-13 -34.5q0 -29 18.5 -38.5t41.5 -9.5zM97 602v140h144v-140h-144zM351 602v140h144v-140
h-144z" />
    <glyph glyph-name="uni1EA1" unicode="&#x1ea1;" horiz-adv-x="624" 
d="M185 -10q-41 0 -78 14.5t-60 46.5t-23 86q0 53 23 88t66.5 55t105.5 28t140 8v35q0 29 -19 41.5t-46 12.5q-29 0 -46.5 -13t-17.5 -34v-4h-190q-1 2 -1 6v8q0 43 29 77.5t83 55t128 20.5h33q121 0 180 -46.5t59 -115.5v-211q0 -20 10 -28.5t21 -8.5q9 0 18 2.5t17 6.5
v-107q-13 -10 -37.5 -16.5t-63.5 -6.5q-44 0 -75 10.5t-48.5 28.5t-23.5 42q-26 -30 -70.5 -55.5t-113.5 -25.5zM291 111q18 0 33.5 8.5t25 24.5t9.5 37v44q-46 0 -74 -8.5t-41 -23t-13 -34.5q0 -29 18.5 -38.5t41.5 -9.5zM243 -190v140h144v-140h-144z" />
    <glyph glyph-name="agrave" unicode="&#xe0;" horiz-adv-x="624" 
d="M185 -10q-41 0 -78 14.5t-60 46.5t-23 86q0 53 23 88t66.5 55t105.5 28t140 8v35q0 29 -19 41.5t-46 12.5q-29 0 -46.5 -13t-17.5 -34v-4h-190q-1 2 -1 6v8q0 43 29 77.5t83 55t128 20.5h33q121 0 180 -46.5t59 -115.5v-211q0 -20 10 -28.5t21 -8.5q9 0 18 2.5t17 6.5
v-107q-13 -10 -37.5 -16.5t-63.5 -6.5q-44 0 -75 10.5t-48.5 28.5t-23.5 42q-26 -30 -70.5 -55.5t-113.5 -25.5zM291 111q18 0 33.5 8.5t25 24.5t9.5 37v44q-46 0 -74 -8.5t-41 -23t-13 -34.5q0 -29 18.5 -38.5t41.5 -9.5zM235 583l-125 175l2 3h165l91 -178h-133z" />
    <glyph glyph-name="uni1EA3" unicode="&#x1ea3;" horiz-adv-x="624" 
d="M185 -10q-41 0 -78 14.5t-60 46.5t-23 86q0 53 23 88t66.5 55t105.5 28t140 8v35q0 29 -19 41.5t-46 12.5q-29 0 -46.5 -13t-17.5 -34v-4h-190q-1 2 -1 6v8q0 43 29 77.5t83 55t128 20.5h33q121 0 180 -46.5t59 -115.5v-211q0 -20 10 -28.5t21 -8.5q9 0 18 2.5t17 6.5
v-107q-13 -10 -37.5 -16.5t-63.5 -6.5q-44 0 -75 10.5t-48.5 28.5t-23.5 42q-26 -30 -70.5 -55.5t-113.5 -25.5zM291 111q18 0 33.5 8.5t25 24.5t9.5 37v44q-46 0 -74 -8.5t-41 -23t-13 -34.5q0 -29 18.5 -38.5t41.5 -9.5zM291 567v81q27 3 42 14.5t15 33.5q0 16 -12.5 26
t-35.5 10q-14 0 -32 -2.5t-40 -10.5v110q20 5 39.5 7t38.5 2q62 0 104 -32.5t42 -92.5q0 -42 -24 -74t-60.5 -51t-76.5 -21z" />
    <glyph glyph-name="uni0203" unicode="&#x203;" horiz-adv-x="624" 
d="M185 -10q-41 0 -78 14.5t-60 46.5t-23 86q0 53 23 88t66.5 55t105.5 28t140 8v35q0 29 -19 41.5t-46 12.5q-29 0 -46.5 -13t-17.5 -34v-4h-190q-1 2 -1 6v8q0 43 29 77.5t83 55t128 20.5h33q121 0 180 -46.5t59 -115.5v-211q0 -20 10 -28.5t21 -8.5q9 0 18 2.5t17 6.5
v-107q-13 -10 -37.5 -16.5t-63.5 -6.5q-44 0 -75 10.5t-48.5 28.5t-23.5 42q-26 -30 -70.5 -55.5t-113.5 -25.5zM291 111q18 0 33.5 8.5t25 24.5t9.5 37v44q-46 0 -74 -8.5t-41 -23t-13 -34.5q0 -29 18.5 -38.5t41.5 -9.5zM103 588q0 44 23 77t67 51.5t105 18.5
q66 0 108 -18.5t62 -51.5t20 -77h-101q-4 24 -25.5 37.5t-65.5 13.5t-66 -13.5t-27 -37.5h-100z" />
    <glyph glyph-name="amacron" unicode="&#x101;" horiz-adv-x="624" 
d="M185 -10q-41 0 -78 14.5t-60 46.5t-23 86q0 53 23 88t66.5 55t105.5 28t140 8v35q0 29 -19 41.5t-46 12.5q-29 0 -46.5 -13t-17.5 -34v-4h-190q-1 2 -1 6v8q0 43 29 77.5t83 55t128 20.5h33q121 0 180 -46.5t59 -115.5v-211q0 -20 10 -28.5t21 -8.5q9 0 18 2.5t17 6.5
v-107q-13 -10 -37.5 -16.5t-63.5 -6.5q-44 0 -75 10.5t-48.5 28.5t-23.5 42q-26 -30 -70.5 -55.5t-113.5 -25.5zM291 111q18 0 33.5 8.5t25 24.5t9.5 37v44q-46 0 -74 -8.5t-41 -23t-13 -34.5q0 -29 18.5 -38.5t41.5 -9.5zM112 607v100h368v-100h-368z" />
    <glyph glyph-name="aogonek" unicode="&#x105;" horiz-adv-x="624" 
d="M185 -10q-41 0 -78 14.5t-60 46.5t-23 86q0 53 23 88t66.5 55t105.5 28t140 8v35q0 29 -19 41.5t-46 12.5q-29 0 -46.5 -13t-17.5 -34v-4h-190q-1 2 -1 6v8q0 43 29 77.5t83 55t128 20.5h33q121 0 180 -46.5t59 -115.5v-211q0 -20 10 -28.5t21 -8.5q9 0 18 2.5t17 6.5
v-107q-13 -10 -37.5 -16.5t-63.5 -6.5q-44 0 -75 10.5t-48.5 28.5t-23.5 42q-26 -30 -70.5 -55.5t-113.5 -25.5zM291 111q18 0 33.5 8.5t25 24.5t9.5 37v44q-46 0 -74 -8.5t-41 -23t-13 -34.5q0 -29 18.5 -38.5t41.5 -9.5zM538 -150q-28 0 -52.5 8.5t-39.5 26t-15 44.5
q0 24 12 42t28 29h118q-17 -10 -29.5 -21.5t-12.5 -28.5t10 -24t25 -7q13 0 28 4t28 9l14 -51q-23 -14 -53.5 -22.5t-60.5 -8.5z" />
    <glyph glyph-name="aring" unicode="&#xe5;" horiz-adv-x="624" 
d="M185 -10q-41 0 -78 14.5t-60 46.5t-23 86q0 53 23 88t66.5 55t105.5 28t140 8v35q0 29 -19 41.5t-46 12.5q-29 0 -46.5 -13t-17.5 -34v-4h-190q-1 2 -1 6v8q0 43 29 77.5t83 55t128 20.5h33q121 0 180 -46.5t59 -115.5v-211q0 -20 10 -28.5t21 -8.5q9 0 18 2.5t17 6.5
v-107q-13 -10 -37.5 -16.5t-63.5 -6.5q-44 0 -75 10.5t-48.5 28.5t-23.5 42q-26 -30 -70.5 -55.5t-113.5 -25.5zM291 111q18 0 33.5 8.5t25 24.5t9.5 37v44q-46 0 -74 -8.5t-41 -23t-13 -34.5q0 -29 18.5 -38.5t41.5 -9.5zM296 567q-47 0 -79 28t-32 77q0 48 31.5 77
t79.5 29q47 0 79 -29t32 -77q0 -47 -31.5 -76t-79.5 -29zM296 637q15 0 25 10.5t10 25.5q0 14 -10.5 24t-24.5 10q-15 0 -25 -10.5t-10 -25.5q0 -14 10.5 -24t24.5 -10z" />
    <glyph glyph-name="aringacute" unicode="&#x1fb;" horiz-adv-x="624" 
d="M185 -10q-41 0 -78 14.5t-60 46.5t-23 86q0 53 23 88t66.5 55t105.5 28t140 8v35q0 29 -19 41.5t-46 12.5q-29 0 -46.5 -13t-17.5 -34v-4h-190q-1 2 -1 6v8q0 43 29 77.5t83 55t128 20.5h33q121 0 180 -46.5t59 -115.5v-211q0 -20 10 -28.5t21 -8.5q9 0 18 2.5t17 6.5
v-107q-13 -10 -37.5 -16.5t-63.5 -6.5q-44 0 -75 10.5t-48.5 28.5t-23.5 42q-26 -30 -70.5 -55.5t-113.5 -25.5zM291 111q18 0 33.5 8.5t25 24.5t9.5 37v44q-46 0 -74 -8.5t-41 -23t-13 -34.5q0 -29 18.5 -38.5t41.5 -9.5zM246 829l63 131h129l2 -2l-95 -129h-99zM297 567
q-47 0 -79 28t-32 77q0 48 31.5 77t79.5 29q47 0 79 -29t32 -77q0 -47 -31.5 -76t-79.5 -29zM297 637q15 0 25 10.5t10 25.5q0 14 -10.5 24t-24.5 10q-15 0 -25 -10.5t-10 -25.5q0 -14 10.5 -24t24.5 -10z" />
    <glyph glyph-name="atilde" unicode="&#xe3;" horiz-adv-x="624" 
d="M185 -10q-41 0 -78 14.5t-60 46.5t-23 86q0 53 23 88t66.5 55t105.5 28t140 8v35q0 29 -19 41.5t-46 12.5q-29 0 -46.5 -13t-17.5 -34v-4h-190q-1 2 -1 6v8q0 43 29 77.5t83 55t128 20.5h33q121 0 180 -46.5t59 -115.5v-211q0 -20 10 -28.5t21 -8.5q9 0 18 2.5t17 6.5
v-107q-13 -10 -37.5 -16.5t-63.5 -6.5q-44 0 -75 10.5t-48.5 28.5t-23.5 42q-26 -30 -70.5 -55.5t-113.5 -25.5zM291 111q18 0 33.5 8.5t25 24.5t9.5 37v44q-46 0 -74 -8.5t-41 -23t-13 -34.5q0 -29 18.5 -38.5t41.5 -9.5zM79 581q4 52 20.5 91t45.5 60.5t67 21.5
q36 0 65.5 -15t54.5 -30t48 -15q22 0 34.5 17t17.5 43h81q-3 -52 -20 -91t-45.5 -60.5t-67.5 -21.5q-36 0 -65.5 15t-54.5 30t-48 15q-22 0 -34.5 -17t-17.5 -43h-81z" />
    <glyph glyph-name="ae" unicode="&#xe6;" horiz-adv-x="924" 
d="M195 -10q-45 0 -84 14t-63 46t-24 85t23 88t66.5 55.5t105.5 29t140 8.5v35q0 29 -19.5 41.5t-46.5 12.5q-28 0 -45.5 -13t-17.5 -34v-4h-190q-1 2 -1 6v8q0 43 29 77.5t82.5 55t127.5 20.5h33q56 0 95 -14t66 -40q29 27 67 40.5t84 13.5h25q79 0 134 -30t84 -81.5
t29 -118.5v-62h-333q0 -31 5.5 -58t22 -43.5t49.5 -16.5q24 0 40 10t24 28.5t8 42.5h183q0 -56 -29.5 -102t-85 -73t-134.5 -27h-15q-68 0 -118.5 26t-84.5 72q-31 -29 -64.5 -51t-73.5 -34.5t-94 -12.5zM291 111q18 0 33.5 8.5t25 24.5t9.5 37v44q-46 0 -74 -8.5t-41 -23
t-13 -34.5q0 -29 18.5 -38.5t41.5 -9.5zM562 316h138q0 44 -19.5 64t-49.5 20q-31 0 -50 -21.5t-19 -62.5z" />
    <glyph glyph-name="aeacute" unicode="&#x1fd;" horiz-adv-x="924" 
d="M195 -10q-45 0 -84 14t-63 46t-24 85t23 88t66.5 55.5t105.5 29t140 8.5v35q0 29 -19.5 41.5t-46.5 12.5q-28 0 -45.5 -13t-17.5 -34v-4h-190q-1 2 -1 6v8q0 43 29 77.5t82.5 55t127.5 20.5h33q56 0 95 -14t66 -40q29 27 67 40.5t84 13.5h25q79 0 134 -30t84 -81.5
t29 -118.5v-62h-333q0 -31 5.5 -58t22 -43.5t49.5 -16.5q24 0 40 10t24 28.5t8 42.5h183q0 -56 -29.5 -102t-85 -73t-134.5 -27h-15q-68 0 -118.5 26t-84.5 72q-31 -29 -64.5 -51t-73.5 -34.5t-94 -12.5zM291 111q18 0 33.5 8.5t25 24.5t9.5 37v44q-46 0 -74 -8.5t-41 -23
t-13 -34.5q0 -29 18.5 -38.5t41.5 -9.5zM562 316h138q0 44 -19.5 64t-49.5 20q-31 0 -50 -21.5t-19 -62.5zM397 583l91 178h165l2 -3l-125 -175h-133z" />
    <glyph glyph-name="b" unicode="b" horiz-adv-x="610" 
d="M356 -10q-108 0 -168 85l-68 -75h-70v720h198v-262q25 30 57 46.5t81 16.5q54 0 99 -26t72 -81t27 -143v-21q0 -87 -32 -145t-84 -86.5t-112 -28.5zM310 111q18 0 32 9.5t22 25.5t8 35v145q0 20 -8 35.5t-22 25t-32 9.5q-17 0 -31.5 -9.5t-22.5 -25t-8 -35.5v-145
q0 -19 8 -35t22.5 -25.5t31.5 -9.5z" />
    <glyph glyph-name="c" unicode="c" horiz-adv-x="569" 
d="M276 -10q-67 0 -124 33t-91.5 89t-34.5 123v41q0 51 20 95t55 78t80.5 53t96.5 19h30q76 0 129 -28.5t80.5 -77.5t27.5 -111h-169q0 32 -7 53t-22 32t-40 11q-29 0 -49 -20.5t-20 -49.5v-149q0 -29 17 -49.5t54 -20.5q30 0 47 8.5t24 29.5t7 58h158q0 -69 -30 -117.5
t-84 -74t-126 -25.5h-29z" />
    <glyph glyph-name="cacute" unicode="&#x107;" horiz-adv-x="569" 
d="M276 -10q-67 0 -124 33t-91.5 89t-34.5 123v41q0 51 20 95t55 78t80.5 53t96.5 19h30q76 0 129 -28.5t80.5 -77.5t27.5 -111h-169q0 32 -7 53t-22 32t-40 11q-29 0 -49 -20.5t-20 -49.5v-149q0 -29 17 -49.5t54 -20.5q30 0 47 8.5t24 29.5t7 58h158q0 -69 -30 -117.5
t-84 -74t-126 -25.5h-29zM231 583l91 178h165l2 -3l-125 -175h-133z" />
    <glyph glyph-name="ccaron" unicode="&#x10d;" horiz-adv-x="569" 
d="M276 -10q-67 0 -124 33t-91.5 89t-34.5 123v41q0 51 20 95t55 78t80.5 53t96.5 19h30q76 0 129 -28.5t80.5 -77.5t27.5 -111h-169q0 32 -7 53t-22 32t-40 11q-29 0 -49 -20.5t-20 -49.5v-149q0 -29 17 -49.5t54 -20.5q30 0 47 8.5t24 29.5t7 58h158q0 -69 -30 -117.5
t-84 -74t-126 -25.5h-29zM516 766l-139 -188h-148l-139 188h140l114 -160h-80l114 160h138z" />
    <glyph glyph-name="ccedilla" unicode="&#xe7;" horiz-adv-x="569" 
d="M276 -10q-67 0 -124 33t-91.5 89t-34.5 123v41q0 51 20 95t55 78t80.5 53t96.5 19h30q76 0 129 -28.5t80.5 -77.5t27.5 -111h-169q0 32 -7 53t-22 32t-40 11q-29 0 -49 -20.5t-20 -49.5v-149q0 -29 17 -49.5t54 -20.5q30 0 47 8.5t24 29.5t7 58h158q0 -69 -30 -117.5
t-84 -74t-126 -25.5h-29zM298 -212q-32 0 -63.5 9.5t-53.5 26.5l32 61q17 -11 35.5 -20.5t47.5 -9.5q18 0 26.5 7.5t8.5 18.5q0 13 -8 17t-19 4h-22v66h38q28 0 52 -8t39.5 -26.5t15.5 -48.5q0 -33 -18.5 -54.5t-48 -32t-62.5 -10.5z" />
    <glyph glyph-name="ccircumflex" unicode="&#x109;" horiz-adv-x="569" 
d="M276 -10q-67 0 -124 33t-91.5 89t-34.5 123v41q0 51 20 95t55 78t80.5 53t96.5 19h30q76 0 129 -28.5t80.5 -77.5t27.5 -111h-169q0 32 -7 53t-22 32t-40 11q-29 0 -49 -20.5t-20 -49.5v-149q0 -29 17 -49.5t54 -20.5q30 0 47 8.5t24 29.5t7 58h158q0 -69 -30 -117.5
t-84 -74t-126 -25.5h-29zM90 573l139 188h148l139 -188h-140l-114 160h80l-114 -160h-138z" />
    <glyph glyph-name="cdotaccent" unicode="&#x10b;" horiz-adv-x="569" 
d="M276 -10q-67 0 -124 33t-91.5 89t-34.5 123v41q0 51 20 95t55 78t80.5 53t96.5 19h30q76 0 129 -28.5t80.5 -77.5t27.5 -111h-169q0 32 -7 53t-22 32t-40 11q-29 0 -49 -20.5t-20 -49.5v-149q0 -29 17 -49.5t54 -20.5q30 0 47 8.5t24 29.5t7 58h158q0 -69 -30 -117.5
t-84 -74t-126 -25.5h-29zM236 601v140h144v-140h-144z" />
    <glyph glyph-name="d" unicode="d" horiz-adv-x="610" 
d="M228 -10q-66 0 -111 28.5t-68 86.5t-23 145v11q0 88 28.5 145.5t75.5 86t100 28.5t84.5 -18.5t47.5 -44.5v262h198v-720h-158l-18 63q-21 -26 -59 -49.5t-97 -23.5zM300 111q18 0 32 9.5t22 25.5t8 35v145q0 20 -8 35.5t-22 25t-32 9.5q-26 0 -44 -20.5t-18 -49.5v-145
q0 -19 8 -35t22.5 -25.5t31.5 -9.5z" />
    <glyph glyph-name="eth" unicode="&#xf0;" horiz-adv-x="615" 
d="M291 -10q-76 0 -136 32.5t-94.5 90t-34.5 132.5v21q0 63 25 120t71.5 93t109.5 36q18 0 35 -2t27 -7q-8 14 -28 34l-40 40l-66 -31l-59 51l75 35q-17 16 -38 30.5t-44 22.5l115 51q24 -8 47.5 -19t46.5 -25l71 33l55 -51l-59 -28q62 -48 111.5 -111t78 -132.5
t28.5 -139.5v-21q0 -76 -34.5 -133.5t-94.5 -89.5t-136 -32h-32zM307 111q20 0 35.5 9.5t24.5 25.5t9 35v149q0 20 -9 35.5t-24.5 25t-35.5 9.5q-19 0 -35 -9.5t-25 -25t-9 -35.5v-149q0 -19 9 -35t25 -25.5t35 -9.5z" />
    <glyph glyph-name="dcaron" unicode="&#x10f;" horiz-adv-x="741" 
d="M651 336l37 165h-84v183h191v-161l-50 -187h-94zM228 -10q-66 0 -111 28.5t-68 86.5t-23 145v11q0 88 28.5 145.5t75.5 86t100 28.5t84.5 -18.5t47.5 -44.5v262h198v-720h-158l-18 63q-21 -26 -59 -49.5t-97 -23.5zM300 111q18 0 32 9.5t22 25.5t8 35v145q0 20 -8 35.5
t-22 25t-32 9.5q-26 0 -44 -20.5t-18 -49.5v-145q0 -19 8 -35t22.5 -25.5t31.5 -9.5z" />
    <glyph glyph-name="dcroat" unicode="&#x111;" horiz-adv-x="610" 
d="M228 -10q-66 0 -111 28.5t-68 86.5t-23 145v11q0 88 28.5 145.5t75.5 86t100 28.5t84.5 -18.5t47.5 -44.5v262h198v-720h-158l-18 63q-21 -26 -59 -49.5t-97 -23.5zM300 111q18 0 32 9.5t22 25.5t8 35v145q0 20 -8 35.5t-22 25t-32 9.5q-26 0 -44 -20.5t-18 -49.5v-145
q0 -19 8 -35t22.5 -25.5t31.5 -9.5zM191 554v126h414v-126h-414z" />
    <glyph glyph-name="uni01C6" unicode="&#x1c6;" horiz-adv-x="1108" 
d="M228 -10q-66 0 -111 28.5t-68 86.5t-23 145v11q0 88 28.5 145.5t75.5 86t100 28.5t84.5 -18.5t47.5 -44.5v262h198v-720h-158l-18 63q-21 -26 -59 -49.5t-97 -23.5zM300 111q18 0 32 9.5t22 25.5t8 35v145q0 20 -8 35.5t-22 25t-32 9.5q-26 0 -44 -20.5t-18 -49.5v-145
q0 -19 8 -35t22.5 -25.5t31.5 -9.5zM632 0v63l188 324h-177v124h433v-60l-189 -327h197v-124h-452zM1083 766l-139 -188h-148l-139 188h140l114 -160h-80l114 160h138z" />
    <glyph glyph-name="e" unicode="e" horiz-adv-x="601" 
d="M301 -10q-79 0 -141 29t-97.5 85t-35.5 136v31q0 80 35 136t97 85t141 29h25q79 0 134 -30t84 -81.5t29 -118.5v-62h-333q0 -32 5.5 -59t20.5 -43t45 -16q27 0 44 10t25.5 28.5t8.5 42.5h183q0 -56 -31 -102t-88 -73t-136 -27h-15zM239 316h138q0 44 -19.5 64t-49.5 20
q-31 0 -50 -21.5t-19 -62.5z" />
    <glyph glyph-name="eacute" unicode="&#xe9;" horiz-adv-x="601" 
d="M301 -10q-79 0 -141 29t-97.5 85t-35.5 136v31q0 80 35 136t97 85t141 29h25q79 0 134 -30t84 -81.5t29 -118.5v-62h-333q0 -32 5.5 -59t20.5 -43t45 -16q27 0 44 10t25.5 28.5t8.5 42.5h183q0 -56 -31 -102t-88 -73t-136 -27h-15zM239 316h138q0 44 -19.5 64t-49.5 20
q-31 0 -50 -21.5t-19 -62.5zM230 583l91 178h165l2 -3l-125 -175h-133z" />
    <glyph glyph-name="ebreve" unicode="&#x115;" horiz-adv-x="601" 
d="M301 -10q-79 0 -141 29t-97.5 85t-35.5 136v31q0 80 35 136t97 85t141 29h25q79 0 134 -30t84 -81.5t29 -118.5v-62h-333q0 -32 5.5 -59t20.5 -43t45 -16q27 0 44 10t25.5 28.5t8.5 42.5h183q0 -56 -31 -102t-88 -73t-136 -27h-15zM239 316h138q0 44 -19.5 64t-49.5 20
q-31 0 -50 -21.5t-19 -62.5zM298 588q-66 0 -107.5 21t-61.5 58.5t-20 87.5h101q4 -34 26 -52.5t66 -18.5t66 18.5t27 52.5h100q0 -50 -23.5 -87.5t-67.5 -58.5t-106 -21z" />
    <glyph glyph-name="ecaron" unicode="&#x11b;" horiz-adv-x="601" 
d="M301 -10q-79 0 -141 29t-97.5 85t-35.5 136v31q0 80 35 136t97 85t141 29h25q79 0 134 -30t84 -81.5t29 -118.5v-62h-333q0 -32 5.5 -59t20.5 -43t45 -16q27 0 44 10t25.5 28.5t8.5 42.5h183q0 -56 -31 -102t-88 -73t-136 -27h-15zM239 316h138q0 44 -19.5 64t-49.5 20
q-31 0 -50 -21.5t-19 -62.5zM515 766l-139 -188h-148l-139 188h140l114 -160h-80l114 160h138z" />
    <glyph glyph-name="ecircumflex" unicode="&#xea;" horiz-adv-x="601" 
d="M301 -10q-79 0 -141 29t-97.5 85t-35.5 136v31q0 80 35 136t97 85t141 29h25q79 0 134 -30t84 -81.5t29 -118.5v-62h-333q0 -32 5.5 -59t20.5 -43t45 -16q27 0 44 10t25.5 28.5t8.5 42.5h183q0 -56 -31 -102t-88 -73t-136 -27h-15zM239 316h138q0 44 -19.5 64t-49.5 20
q-31 0 -50 -21.5t-19 -62.5zM89 573l139 188h148l139 -188h-140l-114 160h80l-114 -160h-138z" />
    <glyph glyph-name="uni1EBF" unicode="&#x1ebf;" horiz-adv-x="601" 
d="M301 -10q-79 0 -141 29t-97.5 85t-35.5 136v31q0 80 35 136t97 85t141 29h25q79 0 134 -30t84 -81.5t29 -118.5v-62h-333q0 -32 5.5 -59t20.5 -43t45 -16q27 0 44 10t25.5 28.5t8.5 42.5h183q0 -56 -31 -102t-88 -73t-136 -27h-15zM239 316h138q0 44 -19.5 64t-49.5 20
q-31 0 -50 -21.5t-19 -62.5zM99 588l139 148h128l139 -148h-120l-84 65l-84 -65h-118zM244 786l91 145h151l2 -3l-126 -142h-118z" />
    <glyph glyph-name="uni1EC7" unicode="&#x1ec7;" horiz-adv-x="601" 
d="M301 -10q-79 0 -141 29t-97.5 85t-35.5 136v31q0 80 35 136t97 85t141 29h25q79 0 134 -30t84 -81.5t29 -118.5v-62h-333q0 -32 5.5 -59t20.5 -43t45 -16q27 0 44 10t25.5 28.5t8.5 42.5h183q0 -56 -31 -102t-88 -73t-136 -27h-15zM239 316h138q0 44 -19.5 64t-49.5 20
q-31 0 -50 -21.5t-19 -62.5zM247 -190v140h144v-140h-144zM89 573l139 188h148l139 -188h-140l-114 160h80l-114 -160h-138z" />
    <glyph glyph-name="uni1EC1" unicode="&#x1ec1;" horiz-adv-x="601" 
d="M301 -10q-79 0 -141 29t-97.5 85t-35.5 136v31q0 80 35 136t97 85t141 29h25q79 0 134 -30t84 -81.5t29 -118.5v-62h-333q0 -32 5.5 -59t20.5 -43t45 -16q27 0 44 10t25.5 28.5t8.5 42.5h183q0 -56 -31 -102t-88 -73t-136 -27h-15zM239 316h138q0 44 -19.5 64t-49.5 20
q-31 0 -50 -21.5t-19 -62.5zM99 588l139 148h128l139 -148h-120l-84 65l-84 -65h-118zM246 786l-126 142l2 3h151l91 -145h-118z" />
    <glyph glyph-name="uni1EC3" unicode="&#x1ec3;" horiz-adv-x="601" 
d="M301 -10q-79 0 -141 29t-97.5 85t-35.5 136v31q0 80 35 136t97 85t141 29h25q79 0 134 -30t84 -81.5t29 -118.5v-62h-333q0 -32 5.5 -59t20.5 -43t45 -16q27 0 44 10t25.5 28.5t8.5 42.5h183q0 -56 -31 -102t-88 -73t-136 -27h-15zM239 316h138q0 44 -19.5 64t-49.5 20
q-31 0 -50 -21.5t-19 -62.5zM100 588l139 148h128l139 -148h-120l-84 65l-84 -65h-118zM280 776v64q22 3 34 12.5t12 26.5q0 13 -10.5 21t-28.5 8q-11 0 -25.5 -2.5t-31.5 -8.5v88q16 5 31.5 6t30.5 1q50 0 83.5 -26t33.5 -74q0 -33 -19 -59t-48.5 -40.5t-61.5 -16.5z" />
    <glyph glyph-name="uni1EC5" unicode="&#x1ec5;" horiz-adv-x="601" 
d="M301 -10q-79 0 -141 29t-97.5 85t-35.5 136v31q0 80 35 136t97 85t141 29h25q79 0 134 -30t84 -81.5t29 -118.5v-62h-333q0 -32 5.5 -59t20.5 -43t45 -16q27 0 44 10t25.5 28.5t8.5 42.5h183q0 -56 -31 -102t-88 -73t-136 -27h-15zM239 316h138q0 44 -19.5 64t-49.5 20
q-31 0 -50 -21.5t-19 -62.5zM99 588l139 148h128l139 -148h-120l-84 65l-84 -65h-118zM110 776q0 42 15.5 73.5t43 48.5t62.5 17q34 0 57 -9t43 -18t43 -9q17 0 30 10t17 26h74q0 -42 -15.5 -73.5t-43 -48.5t-62.5 -17q-33 0 -56.5 9t-43 18t-43.5 9q-17 0 -29.5 -10
t-17.5 -26h-74z" />
    <glyph glyph-name="uni0205" unicode="&#x205;" horiz-adv-x="601" 
d="M301 -10q-79 0 -141 29t-97.5 85t-35.5 136v31q0 80 35 136t97 85t141 29h25q79 0 134 -30t84 -81.5t29 -118.5v-62h-333q0 -32 5.5 -59t20.5 -43t45 -16q27 0 44 10t25.5 28.5t8.5 42.5h183q0 -56 -31 -102t-88 -73t-136 -27h-15zM239 316h138q0 44 -19.5 64t-49.5 20
q-31 0 -50 -21.5t-19 -62.5zM362 590l-126 142l7 3h151l91 -145h-123zM140 590l-126 142l2 3h156l91 -145h-123z" />
    <glyph glyph-name="edieresis" unicode="&#xeb;" horiz-adv-x="601" 
d="M301 -10q-79 0 -141 29t-97.5 85t-35.5 136v31q0 80 35 136t97 85t141 29h25q79 0 134 -30t84 -81.5t29 -118.5v-62h-333q0 -32 5.5 -59t20.5 -43t45 -16q27 0 44 10t25.5 28.5t8.5 42.5h183q0 -56 -31 -102t-88 -73t-136 -27h-15zM239 316h138q0 44 -19.5 64t-49.5 20
q-31 0 -50 -21.5t-19 -62.5zM103 602v140h144v-140h-144zM357 602v140h144v-140h-144z" />
    <glyph glyph-name="edotaccent" unicode="&#x117;" horiz-adv-x="601" 
d="M301 -10q-79 0 -141 29t-97.5 85t-35.5 136v31q0 80 35 136t97 85t141 29h25q79 0 134 -30t84 -81.5t29 -118.5v-62h-333q0 -32 5.5 -59t20.5 -43t45 -16q27 0 44 10t25.5 28.5t8.5 42.5h183q0 -56 -31 -102t-88 -73t-136 -27h-15zM239 316h138q0 44 -19.5 64t-49.5 20
q-31 0 -50 -21.5t-19 -62.5zM235 601v140h144v-140h-144z" />
    <glyph glyph-name="uni1EB9" unicode="&#x1eb9;" horiz-adv-x="601" 
d="M301 -10q-79 0 -141 29t-97.5 85t-35.5 136v31q0 80 35 136t97 85t141 29h25q79 0 134 -30t84 -81.5t29 -118.5v-62h-333q0 -32 5.5 -59t20.5 -43t45 -16q27 0 44 10t25.5 28.5t8.5 42.5h183q0 -56 -31 -102t-88 -73t-136 -27h-15zM239 316h138q0 44 -19.5 64t-49.5 20
q-31 0 -50 -21.5t-19 -62.5zM247 -190v140h144v-140h-144z" />
    <glyph glyph-name="egrave" unicode="&#xe8;" horiz-adv-x="601" 
d="M301 -10q-79 0 -141 29t-97.5 85t-35.5 136v31q0 80 35 136t97 85t141 29h25q79 0 134 -30t84 -81.5t29 -118.5v-62h-333q0 -32 5.5 -59t20.5 -43t45 -16q27 0 44 10t25.5 28.5t8.5 42.5h183q0 -56 -31 -102t-88 -73t-136 -27h-15zM239 316h138q0 44 -19.5 64t-49.5 20
q-31 0 -50 -21.5t-19 -62.5zM241 583l-125 175l2 3h165l91 -178h-133z" />
    <glyph glyph-name="uni1EBB" unicode="&#x1ebb;" horiz-adv-x="601" 
d="M301 -10q-79 0 -141 29t-97.5 85t-35.5 136v31q0 80 35 136t97 85t141 29h25q79 0 134 -30t84 -81.5t29 -118.5v-62h-333q0 -32 5.5 -59t20.5 -43t45 -16q27 0 44 10t25.5 28.5t8.5 42.5h183q0 -56 -31 -102t-88 -73t-136 -27h-15zM239 316h138q0 44 -19.5 64t-49.5 20
q-31 0 -50 -21.5t-19 -62.5zM297 567v81q27 3 42 14.5t15 33.5q0 16 -12.5 26t-35.5 10q-14 0 -32 -2.5t-40 -10.5v110q20 5 39.5 7t38.5 2q62 0 104 -32.5t42 -92.5q0 -42 -24 -74t-60.5 -51t-76.5 -21z" />
    <glyph glyph-name="uni0207" unicode="&#x207;" horiz-adv-x="601" 
d="M301 -10q-79 0 -141 29t-97.5 85t-35.5 136v31q0 80 35 136t97 85t141 29h25q79 0 134 -30t84 -81.5t29 -118.5v-62h-333q0 -32 5.5 -59t20.5 -43t45 -16q27 0 44 10t25.5 28.5t8.5 42.5h183q0 -56 -31 -102t-88 -73t-136 -27h-15zM239 316h138q0 44 -19.5 64t-49.5 20
q-31 0 -50 -21.5t-19 -62.5zM109 588q0 44 23 77t67 51.5t105 18.5q66 0 108 -18.5t62 -51.5t20 -77h-101q-4 24 -25.5 37.5t-65.5 13.5t-66 -13.5t-27 -37.5h-100z" />
    <glyph glyph-name="emacron" unicode="&#x113;" horiz-adv-x="601" 
d="M301 -10q-79 0 -141 29t-97.5 85t-35.5 136v31q0 80 35 136t97 85t141 29h25q79 0 134 -30t84 -81.5t29 -118.5v-62h-333q0 -32 5.5 -59t20.5 -43t45 -16q27 0 44 10t25.5 28.5t8.5 42.5h183q0 -56 -31 -102t-88 -73t-136 -27h-15zM239 316h138q0 44 -19.5 64t-49.5 20
q-31 0 -50 -21.5t-19 -62.5zM118 607v100h368v-100h-368z" />
    <glyph glyph-name="eogonek" unicode="&#x119;" horiz-adv-x="601" 
d="M301 -10q-79 0 -141 29t-97.5 85t-35.5 136v31q0 80 35 136t97 85t141 29h25q79 0 134 -30t84 -81.5t29 -118.5v-62h-333q0 -32 5.5 -59t20.5 -43t45 -16q27 0 44 10t25.5 28.5t8.5 42.5h183q0 -56 -31 -102t-88 -73t-136 -27h-15zM239 316h138q0 44 -19.5 64t-49.5 20
q-31 0 -50 -21.5t-19 -62.5zM348 -150q-28 0 -52.5 8.5t-39.5 26t-15 44.5q0 24 12 42t28 29h118q-17 -10 -29.5 -21.5t-12.5 -28.5t10 -24t25 -7q13 0 28 4t28 9l14 -51q-23 -14 -53.5 -22.5t-60.5 -8.5z" />
    <glyph glyph-name="uni1EBD" unicode="&#x1ebd;" horiz-adv-x="601" 
d="M301 -10q-79 0 -141 29t-97.5 85t-35.5 136v31q0 80 35 136t97 85t141 29h25q79 0 134 -30t84 -81.5t29 -118.5v-62h-333q0 -32 5.5 -59t20.5 -43t45 -16q27 0 44 10t25.5 28.5t8.5 42.5h183q0 -56 -31 -102t-88 -73t-136 -27h-15zM239 316h138q0 44 -19.5 64t-49.5 20
q-31 0 -50 -21.5t-19 -62.5zM85 581q4 52 20.5 91t45.5 60.5t67 21.5q36 0 65.5 -15t54.5 -30t48 -15q22 0 34.5 17t17.5 43h81q-3 -52 -20 -91t-45.5 -60.5t-67.5 -21.5q-36 0 -65.5 15t-54.5 30t-48 15q-22 0 -34.5 -17t-17.5 -43h-81z" />
    <glyph glyph-name="uni0259" unicode="&#x259;" horiz-adv-x="601" 
d="M300 521q80 0 141.5 -29t97 -85t35.5 -136v-31q0 -80 -35 -136t-96.5 -85t-141.5 -29h-25q-78 0 -133.5 30t-84.5 82t-29 118v62h333q0 33 -5 59.5t-20.5 42.5t-45.5 16q-26 0 -43.5 -10t-26 -28t-8.5 -43h-183q0 57 31 102.5t88 72.5t136 27h15zM362 195h-138
q0 -43 19.5 -63.5t49.5 -20.5q32 0 50.5 21.5t18.5 62.5z" />
    <glyph glyph-name="f" unicode="f" horiz-adv-x="419" 
d="M89 0v369h-64v142h64v66q0 81 51 116t132 35q17 0 42 -2.5t50.5 -7.5t41.5 -12v-110q-11 4 -31 7t-31 3q-12 0 -25.5 -3t-22.5 -15t-9 -40v-37h120v-142h-120v-369h-198z" />
    <glyph glyph-name="g" unicode="g" horiz-adv-x="590" 
d="M134 -188q-33 0 -62.5 16.5t-48.5 43.5t-19 60q0 37 20.5 67t55.5 47q-22 15 -35 38t-13 49q0 38 27 67.5t65 39.5q-32 15 -54.5 42.5t-22.5 70.5q0 45 25 83t76 61.5t129 23.5q28 0 51.5 -1.5t42.5 -4.5q42 28 56 51.5t14 36.5h148q0 -39 -13.5 -65.5t-38 -42.5
t-58.5 -26l-1 -3q25 -21 41 -48t16 -57q0 -44 -27.5 -81t-72.5 -58.5t-100 -21.5h-69q-31 0 -44 -9t-13 -21q0 -13 11 -22t46 -9h150q83 0 128 -44t45 -112q0 -45 -25 -84t-67.5 -63t-97.5 -24h-265zM218 -74h143q21 0 35.5 12t14.5 29t-14.5 29.5t-35.5 12.5h-143
q-21 0 -35.5 -12t-14.5 -29t14.5 -29.5t35.5 -12.5zM295 297q26 0 43.5 18.5t17.5 44.5t-17.5 44.5t-43.5 18.5t-43.5 -18.5t-17.5 -44.5t17.5 -44.5t43.5 -18.5z" />
    <glyph glyph-name="gbreve" unicode="&#x11f;" horiz-adv-x="590" 
d="M134 -188q-33 0 -62.5 16.5t-48.5 43.5t-19 60q0 37 20.5 67t55.5 47q-22 15 -35 38t-13 49q0 38 27 67.5t65 39.5q-32 15 -54.5 42.5t-22.5 70.5q0 45 25 83t76 61.5t129 23.5q28 0 51.5 -1.5t42.5 -4.5q42 28 56 51.5t14 36.5h148q0 -39 -13.5 -65.5t-38 -42.5
t-58.5 -26l-1 -3q25 -21 41 -48t16 -57q0 -44 -27.5 -81t-72.5 -58.5t-100 -21.5h-69q-31 0 -44 -9t-13 -21q0 -13 11 -22t46 -9h150q83 0 128 -44t45 -112q0 -45 -25 -84t-67.5 -63t-97.5 -24h-265zM218 -74h143q21 0 35.5 12t14.5 29t-14.5 29.5t-35.5 12.5h-143
q-21 0 -35.5 -12t-14.5 -29t14.5 -29.5t35.5 -12.5zM295 297q26 0 43.5 18.5t17.5 44.5t-17.5 44.5t-43.5 18.5t-43.5 -18.5t-17.5 -44.5t17.5 -44.5t43.5 -18.5zM288 588q-66 0 -107.5 21t-61.5 58.5t-20 87.5h101q4 -34 26 -52.5t66 -18.5t66 18.5t27 52.5h100
q0 -50 -23.5 -87.5t-67.5 -58.5t-106 -21z" />
    <glyph glyph-name="gcaron" unicode="&#x1e7;" horiz-adv-x="590" 
d="M134 -188q-33 0 -62.5 16.5t-48.5 43.5t-19 60q0 37 20.5 67t55.5 47q-22 15 -35 38t-13 49q0 38 27 67.5t65 39.5q-32 15 -54.5 42.5t-22.5 70.5q0 48 21.5 80.5t57 51.5t79 27.5t86.5 8.5q42 0 76 -5.5t51 -13.5q28 5 42 18t19 29.5t5 28.5h135q0 -61 -33 -90.5
t-83 -40.5l-1 -3q13 -16 23 -34.5t10 -48.5q0 -44 -27.5 -81t-72.5 -58.5t-100 -21.5h-69q-31 0 -44 -9t-13 -21q0 -13 11 -22t46 -9h150q83 0 128 -44t45 -112q0 -45 -24 -84t-66 -63t-97 -24h-268zM218 -74h143q21 0 35.5 12t14.5 29t-14.5 29.5t-35.5 12.5h-143
q-21 0 -35.5 -12t-14.5 -29t14.5 -29.5t35.5 -12.5zM295 297q26 0 43.5 18.5t17.5 44.5t-17.5 44.5t-43.5 18.5t-43.5 -18.5t-17.5 -44.5t17.5 -44.5t43.5 -18.5zM195 598l-109 139h131l86 -105h-32l86 105h131l-109 -139h-184z" />
    <glyph glyph-name="gcircumflex" unicode="&#x11d;" horiz-adv-x="590" 
d="M134 -188q-33 0 -62.5 16.5t-48.5 43.5t-19 60q0 37 20.5 67t55.5 47q-22 15 -35 38t-13 49q0 38 27 67.5t65 39.5q-32 15 -54.5 42.5t-22.5 70.5q0 48 21.5 80.5t57 51.5t79 27.5t86.5 8.5q42 0 76 -5.5t51 -13.5q28 5 42 18t19 29.5t5 28.5h135q0 -61 -33 -90.5
t-83 -40.5l-1 -3q13 -16 23 -34.5t10 -48.5q0 -44 -27.5 -81t-72.5 -58.5t-100 -21.5h-69q-31 0 -44 -9t-13 -21q0 -13 11 -22t46 -9h150q83 0 128 -44t45 -112q0 -45 -24 -84t-66 -63t-97 -24h-268zM218 -74h143q21 0 35.5 12t14.5 29t-14.5 29.5t-35.5 12.5h-143
q-21 0 -35.5 -12t-14.5 -29t14.5 -29.5t35.5 -12.5zM295 297q26 0 43.5 18.5t17.5 44.5t-17.5 44.5t-43.5 18.5t-43.5 -18.5t-17.5 -44.5t17.5 -44.5t43.5 -18.5zM86 598l109 139h184l109 -139h-131l-86 105h32l-86 -105h-131z" />
    <glyph glyph-name="uni0123" unicode="&#x123;" horiz-adv-x="590" 
d="M134 -188q-33 0 -62.5 16.5t-48.5 43.5t-19 60q0 37 20.5 67t55.5 47q-22 15 -35 38t-13 49q0 38 27 67.5t65 39.5q-32 15 -54.5 42.5t-22.5 70.5q0 45 25 83t76 61.5t129 23.5q28 0 51.5 -1.5t42.5 -4.5q42 28 56 51.5t14 36.5h148q0 -39 -13.5 -65.5t-38 -42.5
t-58.5 -26l-1 -3q25 -21 41 -48t16 -57q0 -44 -27.5 -81t-72.5 -58.5t-100 -21.5h-69q-31 0 -44 -9t-13 -21q0 -13 11 -22t46 -9h150q83 0 128 -44t45 -112q0 -45 -25 -84t-67.5 -63t-97.5 -24h-265zM218 -74h143q21 0 35.5 12t14.5 29t-14.5 29.5t-35.5 12.5h-143
q-21 0 -35.5 -12t-14.5 -29t14.5 -29.5t35.5 -12.5zM295 297q26 0 43.5 18.5t17.5 44.5t-17.5 44.5t-43.5 18.5t-43.5 -18.5t-17.5 -44.5t17.5 -44.5t43.5 -18.5zM368 939v-20q-34 -34 -51.5 -72t-17.5 -79h73v-165h-159v139q0 56 18 107t55 90h82z" />
    <glyph glyph-name="gdotaccent" unicode="&#x121;" horiz-adv-x="590" 
d="M134 -188q-33 0 -62.5 16.5t-48.5 43.5t-19 60q0 37 20.5 67t55.5 47q-22 15 -35 38t-13 49q0 38 27 67.5t65 39.5q-32 15 -54.5 42.5t-22.5 70.5q0 45 25 83t76 61.5t129 23.5q28 0 51.5 -1.5t42.5 -4.5q42 28 56 51.5t14 36.5h148q0 -39 -13.5 -65.5t-38 -42.5
t-58.5 -26l-1 -3q25 -21 41 -48t16 -57q0 -44 -27.5 -81t-72.5 -58.5t-100 -21.5h-69q-31 0 -44 -9t-13 -21q0 -13 11 -22t46 -9h150q83 0 128 -44t45 -112q0 -45 -25 -84t-67.5 -63t-97.5 -24h-265zM218 -74h143q21 0 35.5 12t14.5 29t-14.5 29.5t-35.5 12.5h-143
q-21 0 -35.5 -12t-14.5 -29t14.5 -29.5t35.5 -12.5zM295 297q26 0 43.5 18.5t17.5 44.5t-17.5 44.5t-43.5 18.5t-43.5 -18.5t-17.5 -44.5t17.5 -44.5t43.5 -18.5zM225 601v140h144v-140h-144z" />
    <glyph glyph-name="uni01E5" unicode="&#x1e5;" horiz-adv-x="590" 
d="M134 -188q-33 0 -62.5 16.5t-48.5 43.5t-19 60q0 37 20.5 67t55.5 47q-22 15 -35 38t-13 49q0 38 27 67.5t65 39.5q-32 15 -54.5 42.5t-22.5 70.5q0 45 25 83t76 61.5t129 23.5q28 0 51.5 -1.5t42.5 -4.5q42 28 56 51.5t14 36.5h148q0 -39 -13.5 -65.5t-38 -42.5
t-58.5 -26l-1 -3q25 -21 41 -48t16 -57q0 -44 -27.5 -81t-72.5 -58.5t-100 -21.5h-69q-31 0 -44 -9t-13 -21q0 -13 11 -22t46 -9h150q83 0 128 -44t45 -112q0 -45 -25 -84t-67.5 -63t-97.5 -24h-265zM211 -104h157q23 0 39 18t16 37t-16 37.5t-39 18.5h-157q-23 0 -39 -18
t-16 -37t16 -37.5t39 -18.5zM295 297q26 0 43.5 18.5t17.5 44.5t-17.5 44.5t-43.5 18.5t-43.5 -18.5t-17.5 -44.5t17.5 -44.5t43.5 -18.5zM-49 -79v66h123l40 -7h369l34 7h118v-66h-123l-32 7h-372l-39 -7h-118z" />
    <glyph glyph-name="h" unicode="h" horiz-adv-x="599" 
d="M50 0v720h198v-269q29 34 62.5 52t82.5 18t84.5 -20t55 -54t19.5 -76v-371h-198v320q0 25 -15.5 42.5t-37.5 17.5q-14 0 -26.5 -8t-19.5 -21.5t-7 -30.5v-320h-198z" />
    <glyph glyph-name="hbar" unicode="&#x127;" horiz-adv-x="599" 
d="M50 0v720h198v-269q29 34 62.5 52t82.5 18t84.5 -20t55 -54t19.5 -76v-371h-198v320q0 25 -15.5 42.5t-37.5 17.5q-14 0 -26.5 -8t-19.5 -21.5t-7 -30.5v-320h-198zM-12 544v126h414v-126h-414z" />
    <glyph glyph-name="hcircumflex" unicode="&#x125;" horiz-adv-x="599" 
d="M50 0v720h198v-269q29 34 62.5 52t82.5 18t84.5 -20t55 -54t19.5 -76v-371h-198v320q0 25 -15.5 42.5t-37.5 17.5q-14 0 -26.5 -8t-19.5 -21.5t-7 -30.5v-320h-198zM-54 746l109 139h184l109 -139h-131l-86 105h32l-86 -105h-131z" />
    <glyph glyph-name="uni1E25" unicode="&#x1e25;" horiz-adv-x="599" 
d="M50 0v720h198v-269q29 34 62.5 52t82.5 18t84.5 -20t55 -54t19.5 -76v-371h-198v320q0 25 -15.5 42.5t-37.5 17.5q-14 0 -26.5 -8t-19.5 -21.5t-7 -30.5v-320h-198zM237 -190v140h144v-140h-144z" />
    <glyph glyph-name="i" unicode="i" horiz-adv-x="298" 
d="M50 0v510h198v-510h-198zM50 577v143h198v-143h-198z" />
    <glyph glyph-name="dotlessi" unicode="&#x131;" horiz-adv-x="298" 
d="M50 0v510h198v-510h-198z" />
    <glyph glyph-name="iacute" unicode="&#xed;" horiz-adv-x="298" 
d="M50 0v510h198v-510h-198zM77 583l91 178h165l2 -3l-125 -175h-133z" />
    <glyph glyph-name="ibreve" unicode="&#x12d;" horiz-adv-x="298" 
d="M50 0v510h198v-510h-198zM145 588q-55 0 -89.5 18.5t-51 55.5t-18.5 93h101q1 -41 16.5 -57.5t45.5 -16.5t45.5 16.5t17.5 57.5h100q-1 -56 -21 -93t-57 -55.5t-89 -18.5z" />
    <glyph glyph-name="uni01D0" unicode="&#x1d0;" horiz-adv-x="298" 
d="M50 0v510h198v-510h-198zM327 761l-114 -188h-129l-113 188h122l93 -157h-74l94 157h121z" />
    <glyph glyph-name="icircumflex" unicode="&#xee;" horiz-adv-x="298" 
d="M50 0v510h198v-510h-198zM-29 573l114 188h129l113 -188h-122l-93 157h74l-94 -157h-121z" />
    <glyph glyph-name="uni0209" unicode="&#x209;" horiz-adv-x="298" 
d="M50 0v510h198v-510h-198zM209 590l-126 142l7 3h151l91 -145h-123zM-13 590l-126 142l2 3h156l91 -145h-123z" />
    <glyph glyph-name="idieresis" unicode="&#xef;" horiz-adv-x="298" 
d="M50 0v510h198v-510h-198zM-28 602v140h144v-140h-144zM182 602v140h144v-140h-144z" />
    <glyph glyph-name="i.loclTRK" horiz-adv-x="298" 
d="M50 0v510h198v-510h-198zM82 601v140h144v-140h-144z" />
    <glyph glyph-name="uni1ECB" unicode="&#x1ecb;" horiz-adv-x="298" 
d="M50 0v510h198v-510h-198zM50 577v143h198v-143h-198zM87 -190v140h144v-140h-144z" />
    <glyph glyph-name="igrave" unicode="&#xec;" horiz-adv-x="298" 
d="M50 0v510h198v-510h-198zM88 583l-125 175l2 3h165l91 -178h-133z" />
    <glyph glyph-name="uni1EC9" unicode="&#x1ec9;" horiz-adv-x="298" 
d="M50 0v510h198v-510h-198zM144 567v81q27 3 42 14.5t15 33.5q0 16 -12.5 26t-35.5 10q-14 0 -32 -2.5t-40 -10.5v110q20 5 39.5 7t38.5 2q62 0 104 -32.5t42 -92.5q0 -42 -24 -74t-60.5 -51t-76.5 -21z" />
    <glyph glyph-name="uni020B" unicode="&#x20b;" horiz-adv-x="298" 
d="M50 0v510h198v-510h-198zM-14 588q1 56 21 93t57 55.5t89 18.5q56 0 90 -18.5t51 -55.5t18 -93h-101q-1 41 -16.5 57.5t-45.5 16.5t-45.5 -16.5t-17.5 -57.5h-100z" />
    <glyph glyph-name="ij" unicode="&#x133;" horiz-adv-x="608" 
d="M50 0v510h198v-510h-198zM50 577v143h198v-143h-198zM375 -187q-17 0 -42.5 3t-50.5 8t-41 11v112q11 -5 31 -8.5t31 -3.5q21 0 39 12.5t18 56.5v506h198v-536q0 -81 -50.5 -121t-132.5 -40zM360 577v143h198v-143h-198z" />
    <glyph glyph-name="imacron" unicode="&#x12b;" horiz-adv-x="298" 
d="M50 0v510h198v-510h-198zM2 607v100h294v-100h-294z" />
    <glyph glyph-name="iogonek" unicode="&#x12f;" horiz-adv-x="298" 
d="M50 0v510h198v-510h-198zM50 577v143h198v-143h-198zM118 -150q-28 0 -52.5 8.5t-39.5 26t-15 44.5q0 24 12 42t28 29h118q-17 -10 -29.5 -21.5t-12.5 -28.5t10 -24t25 -7q13 0 28 4t28 9l14 -51q-23 -14 -53.5 -22.5t-60.5 -8.5z" />
    <glyph glyph-name="uni0268" unicode="&#x268;" horiz-adv-x="298" 
d="M-1 329h300v-128h-300v128zM50 0v510h198v-510h-198zM50 577v143h198v-143h-198z" />
    <glyph glyph-name="itilde" unicode="&#x129;" horiz-adv-x="298" 
d="M50 0v510h198v-510h-198zM-38 581q3 50 18.5 89t41.5 61.5t60 22.5q31 0 53.5 -15t41 -30t36.5 -15q17 0 27.5 17t14.5 43h81q-2 -50 -18 -89t-42 -61.5t-60 -22.5q-30 0 -53 15t-41.5 30t-36.5 15q-17 0 -27 -17t-15 -43h-81z" />
    <glyph glyph-name="j" unicode="j" horiz-adv-x="299" 
d="M66 -187q-17 0 -42.5 3t-50.5 8t-41 11v112q11 -5 31 -8.5t31 -3.5q21 0 39 12.5t18 56.5v506h198v-536q0 -81 -50.5 -121t-132.5 -40zM51 577v143h198v-143h-198z" />
    <glyph glyph-name="uni0237" unicode="&#x237;" horiz-adv-x="299" 
d="M66 -187q-17 0 -42.5 3t-50.5 8t-41 11v112q11 -5 31 -8.5t31 -3.5q21 0 39 12.5t18 56.5v506h198v-536q0 -81 -50.5 -121t-132.5 -40z" />
    <glyph glyph-name="jcircumflex" unicode="&#x135;" horiz-adv-x="299" 
d="M66 -187q-17 0 -42.5 3t-50.5 8t-41 11v112q11 -5 31 -8.5t31 -3.5q21 0 39 12.5t18 56.5v506h198v-536q0 -81 -50.5 -121t-132.5 -40zM-33 573l114 188h129l113 -188h-122l-93 157h74l-94 -157h-121z" />
    <glyph glyph-name="k" unicode="k" horiz-adv-x="603" 
d="M50 0v720h198v-399l130 190h226l-179 -231l182 -280h-233l-90 145l-36 -31v-114h-198z" />
    <glyph glyph-name="uni0137" unicode="&#x137;" horiz-adv-x="603" 
d="M50 0v720h198v-399l130 190h226l-179 -231l182 -280h-233l-90 145l-36 -31v-114h-198zM225 -413v20q35 35 52 73t17 78h-73v165h159v-139q0 -56 -18 -107t-55 -90h-82z" />
    <glyph glyph-name="kgreenlandic" unicode="&#x138;" horiz-adv-x="603" 
d="M50 0v512h198v-191l130 190h226l-179 -231l182 -280h-233l-90 145l-36 -31v-114h-198z" />
    <glyph glyph-name="l" unicode="l" horiz-adv-x="298" 
d="M50 0v720h198v-720h-198z" />
    <glyph glyph-name="lacute" unicode="&#x13a;" horiz-adv-x="298" 
d="M50 0v720h198v-720h-198zM68 742l91 145h171l2 -3l-126 -142h-138z" />
    <glyph glyph-name="lcaron" unicode="&#x13e;" horiz-adv-x="450" 
d="M308 378v19q31 32 47.5 65.5t16.5 71.5h-69v152h150v-128q0 -52 -17.5 -97.5t-51.5 -82.5h-76zM50 0v720h198v-720h-198z" />
    <glyph glyph-name="uni013C" unicode="&#x13c;" horiz-adv-x="298" 
d="M50 0v720h198v-720h-198zM72 -413v20q35 35 52 73t17 78h-73v165h159v-139q0 -56 -18 -107t-55 -90h-82z" />
    <glyph glyph-name="ldot" unicode="&#x140;" horiz-adv-x="459" 
d="M282 286v183h191v-183h-191zM50 0v720h198v-720h-198z" />
    <glyph glyph-name="uni01C9" unicode="&#x1c9;" horiz-adv-x="597" 
d="M50 0v720h198v-720h-198zM364 -187q-17 0 -42.5 3t-50.5 8t-41 11v112q11 -5 31 -8.5t31 -3.5q21 0 39 12.5t18 56.5v506h198v-536q0 -81 -50.5 -121t-132.5 -40zM349 577v143h198v-143h-198z" />
    <glyph glyph-name="lslash" unicode="&#x142;" horiz-adv-x="298" 
d="M50 0v720h198v-720h-198zM-10 227v105l318 159v-105z" />
    <glyph glyph-name="m" unicode="m" horiz-adv-x="871" 
d="M50 0v511h148l21 -74q29 38 62 61t89 23q50 0 86.5 -17.5t58.5 -60.5q26 44 62 61t84 17q51 0 87.5 -19.5t56 -53t19.5 -77.5v-371h-194v324q0 25 -14 40t-34 15q-13 0 -24 -7t-17.5 -19t-6.5 -29v-324h-194v324q0 25 -14 40t-34 15q-13 0 -24 -7t-17.5 -19t-6.5 -29
v-324h-194z" />
    <glyph glyph-name="n" unicode="n" horiz-adv-x="599" 
d="M50 0v511h149l20 -74q33 44 72.5 64t96.5 20q51 0 88 -19.5t56.5 -53t19.5 -77.5v-371h-198v320q0 25 -15.5 42.5t-37.5 17.5q-14 0 -26.5 -8t-19.5 -21.5t-7 -30.5v-320h-198z" />
    <glyph glyph-name="nacute" unicode="&#x144;" horiz-adv-x="599" 
d="M50 0v511h149l20 -74q33 44 72.5 64t96.5 20q51 0 88 -19.5t56.5 -53t19.5 -77.5v-371h-198v320q0 25 -15.5 42.5t-37.5 17.5q-14 0 -26.5 -8t-19.5 -21.5t-7 -30.5v-320h-198zM224 583l91 178h165l2 -3l-125 -175h-133z" />
    <glyph glyph-name="napostrophe" unicode="&#x149;" horiz-adv-x="599" 
d="M50 0v511h149l20 -74q33 44 72.5 64t96.5 20q51 0 88 -19.5t56.5 -53t19.5 -77.5v-371h-198v320q0 25 -15.5 42.5t-37.5 17.5q-14 0 -26.5 -8t-19.5 -21.5t-7 -30.5v-320h-198zM-21 553v18q29 31 45 62.5t16 68.5h-66v145h143v-122q0 -50 -16.5 -93.5t-48.5 -78.5h-73z
" />
    <glyph glyph-name="ncaron" unicode="&#x148;" horiz-adv-x="599" 
d="M50 0v511h149l20 -74q33 44 72.5 64t96.5 20q51 0 88 -19.5t56.5 -53t19.5 -77.5v-371h-198v320q0 25 -15.5 42.5t-37.5 17.5q-14 0 -26.5 -8t-19.5 -21.5t-7 -30.5v-320h-198zM509 766l-139 -188h-148l-139 188h140l114 -160h-80l114 160h138z" />
    <glyph glyph-name="uni0146" unicode="&#x146;" horiz-adv-x="599" 
d="M50 0v511h149l20 -74q33 44 72.5 64t96.5 20q51 0 88 -19.5t56.5 -53t19.5 -77.5v-371h-198v320q0 25 -15.5 42.5t-37.5 17.5q-14 0 -26.5 -8t-19.5 -21.5t-7 -30.5v-320h-198zM226 -413v20q35 35 52 73t17 78h-73v165h159v-139q0 -56 -18 -107t-55 -90h-82z" />
    <glyph glyph-name="uni0272" unicode="&#x272;" horiz-adv-x="599" 
d="M66 -187q-17 0 -42.5 3t-50.5 8t-41 11v112q11 -5 31 -8.5t31 -3.5q21 0 38.5 12.5t17.5 56.5v507h149l20 -74q33 44 72.5 64t96.5 20q51 0 88 -19.5t56.5 -53t19.5 -77.5v-371h-198v320q0 25 -15.5 42.5t-37.5 17.5q-14 0 -26.5 -8t-19.5 -21.5t-7 -30.5v-346
q0 -81 -50 -121t-132 -40z" />
    <glyph glyph-name="uni01CC" unicode="&#x1cc;" horiz-adv-x="898" 
d="M50 0v511h149l20 -74q33 44 72.5 64t96.5 20q51 0 88 -19.5t56.5 -53t19.5 -77.5v-371h-198v320q0 25 -15.5 42.5t-37.5 17.5q-14 0 -26.5 -8t-19.5 -21.5t-7 -30.5v-320h-198zM665 -187q-17 0 -42.5 3t-50.5 8t-41 11v112q11 -5 31 -8.5t31 -3.5q21 0 39 12.5t18 56.5
v506h198v-536q0 -81 -50.5 -121t-132.5 -40zM650 577v143h198v-143h-198z" />
    <glyph glyph-name="ntilde" unicode="&#xf1;" horiz-adv-x="599" 
d="M50 0v511h149l20 -74q33 44 72.5 64t96.5 20q51 0 88 -19.5t56.5 -53t19.5 -77.5v-371h-198v320q0 25 -15.5 42.5t-37.5 17.5q-14 0 -26.5 -8t-19.5 -21.5t-7 -30.5v-320h-198zM79 581q4 52 20.5 91t45.5 60.5t67 21.5q36 0 65.5 -15t54.5 -30t48 -15q22 0 34.5 17
t17.5 43h81q-3 -52 -20 -91t-45.5 -60.5t-67.5 -21.5q-36 0 -65.5 15t-54.5 30t-48 15q-22 0 -34.5 -17t-17.5 -43h-81z" />
    <glyph glyph-name="eng" unicode="&#x14b;" horiz-adv-x="599" 
d="M369 -187q-17 0 -42.5 3t-50.5 8t-41 11v112q11 -5 31 -8.5t31 -3.5q21 0 39 12.5t18 56.5v316q0 25 -15.5 42.5t-37.5 17.5q-14 0 -26.5 -8t-19.5 -21.5t-7 -30.5v-320h-198v511h149l20 -74q33 44 72.5 64t96.5 20q51 0 88 -19.5t56.5 -53t19.5 -77.5v-397
q0 -81 -50.5 -121t-132.5 -40z" />
    <glyph glyph-name="o" unicode="o" horiz-adv-x="614" 
d="M291 -10q-76 0 -136 32.5t-94.5 90t-34.5 132.5v21q0 76 34.5 133t94.5 89.5t136 32.5h32q76 0 136 -32.5t94.5 -89.5t34.5 -133v-21q0 -76 -34.5 -133.5t-94.5 -89.5t-136 -32h-32zM307 111q20 0 35.5 9.5t24.5 25.5t9 35v149q0 20 -9 35.5t-24.5 25t-35.5 9.5
q-19 0 -35 -9.5t-25 -25t-9 -35.5v-149q0 -19 9 -35t25 -25.5t35 -9.5z" />
    <glyph glyph-name="oacute" unicode="&#xf3;" horiz-adv-x="614" 
d="M291 -10q-76 0 -136 32.5t-94.5 90t-34.5 132.5v21q0 76 34.5 133t94.5 89.5t136 32.5h32q76 0 136 -32.5t94.5 -89.5t34.5 -133v-21q0 -76 -34.5 -133.5t-94.5 -89.5t-136 -32h-32zM307 111q20 0 35.5 9.5t24.5 25.5t9 35v149q0 20 -9 35.5t-24.5 25t-35.5 9.5
q-19 0 -35 -9.5t-25 -25t-9 -35.5v-149q0 -19 9 -35t25 -25.5t35 -9.5zM235 583l91 178h165l2 -3l-125 -175h-133z" />
    <glyph glyph-name="obreve" unicode="&#x14f;" horiz-adv-x="614" 
d="M291 -10q-76 0 -136 32.5t-94.5 90t-34.5 132.5v21q0 76 34.5 133t94.5 89.5t136 32.5h32q76 0 136 -32.5t94.5 -89.5t34.5 -133v-21q0 -76 -34.5 -133.5t-94.5 -89.5t-136 -32h-32zM307 111q20 0 35.5 9.5t24.5 25.5t9 35v149q0 20 -9 35.5t-24.5 25t-35.5 9.5
q-19 0 -35 -9.5t-25 -25t-9 -35.5v-149q0 -19 9 -35t25 -25.5t35 -9.5zM303 588q-66 0 -107.5 21t-61.5 58.5t-20 87.5h101q4 -34 26 -52.5t66 -18.5t66 18.5t27 52.5h100q0 -50 -23.5 -87.5t-67.5 -58.5t-106 -21z" />
    <glyph glyph-name="uni01D2" unicode="&#x1d2;" horiz-adv-x="614" 
d="M291 -10q-76 0 -136 32.5t-94.5 90t-34.5 132.5v21q0 76 34.5 133t94.5 89.5t136 32.5h32q76 0 136 -32.5t94.5 -89.5t34.5 -133v-21q0 -76 -34.5 -133.5t-94.5 -89.5t-136 -32h-32zM307 111q20 0 35.5 9.5t24.5 25.5t9 35v149q0 20 -9 35.5t-24.5 25t-35.5 9.5
q-19 0 -35 -9.5t-25 -25t-9 -35.5v-149q0 -19 9 -35t25 -25.5t35 -9.5zM520 766l-139 -188h-148l-139 188h140l114 -160h-80l114 160h138z" />
    <glyph glyph-name="ocircumflex" unicode="&#xf4;" horiz-adv-x="614" 
d="M291 -10q-76 0 -136 32.5t-94.5 90t-34.5 132.5v21q0 76 34.5 133t94.5 89.5t136 32.5h32q76 0 136 -32.5t94.5 -89.5t34.5 -133v-21q0 -76 -34.5 -133.5t-94.5 -89.5t-136 -32h-32zM307 111q20 0 35.5 9.5t24.5 25.5t9 35v149q0 20 -9 35.5t-24.5 25t-35.5 9.5
q-19 0 -35 -9.5t-25 -25t-9 -35.5v-149q0 -19 9 -35t25 -25.5t35 -9.5zM94 573l139 188h148l139 -188h-140l-114 160h80l-114 -160h-138z" />
    <glyph glyph-name="uni1ED1" unicode="&#x1ed1;" horiz-adv-x="614" 
d="M291 -10q-76 0 -136 32.5t-94.5 90t-34.5 132.5v21q0 76 34.5 133t94.5 89.5t136 32.5h32q76 0 136 -32.5t94.5 -89.5t34.5 -133v-21q0 -76 -34.5 -133.5t-94.5 -89.5t-136 -32h-32zM307 111q20 0 35.5 9.5t24.5 25.5t9 35v149q0 20 -9 35.5t-24.5 25t-35.5 9.5
q-19 0 -35 -9.5t-25 -25t-9 -35.5v-149q0 -19 9 -35t25 -25.5t35 -9.5zM104 588l139 148h128l139 -148h-120l-84 65l-84 -65h-118zM249 786l91 145h151l2 -3l-126 -142h-118z" />
    <glyph glyph-name="uni1ED9" unicode="&#x1ed9;" horiz-adv-x="614" 
d="M291 -10q-76 0 -136 32.5t-94.5 90t-34.5 132.5v21q0 76 34.5 133t94.5 89.5t136 32.5h32q76 0 136 -32.5t94.5 -89.5t34.5 -133v-21q0 -76 -34.5 -133.5t-94.5 -89.5t-136 -32h-32zM307 111q20 0 35.5 9.5t24.5 25.5t9 35v149q0 20 -9 35.5t-24.5 25t-35.5 9.5
q-19 0 -35 -9.5t-25 -25t-9 -35.5v-149q0 -19 9 -35t25 -25.5t35 -9.5zM243 -190v140h144v-140h-144zM94 573l139 188h148l139 -188h-140l-114 160h80l-114 -160h-138z" />
    <glyph glyph-name="uni1ED3" unicode="&#x1ed3;" horiz-adv-x="614" 
d="M291 -10q-76 0 -136 32.5t-94.5 90t-34.5 132.5v21q0 76 34.5 133t94.5 89.5t136 32.5h32q76 0 136 -32.5t94.5 -89.5t34.5 -133v-21q0 -76 -34.5 -133.5t-94.5 -89.5t-136 -32h-32zM307 111q20 0 35.5 9.5t24.5 25.5t9 35v149q0 20 -9 35.5t-24.5 25t-35.5 9.5
q-19 0 -35 -9.5t-25 -25t-9 -35.5v-149q0 -19 9 -35t25 -25.5t35 -9.5zM104 588l139 148h128l139 -148h-120l-84 65l-84 -65h-118zM251 786l-126 142l2 3h151l91 -145h-118z" />
    <glyph glyph-name="uni1ED5" unicode="&#x1ed5;" horiz-adv-x="614" 
d="M291 -10q-76 0 -136 32.5t-94.5 90t-34.5 132.5v21q0 76 34.5 133t94.5 89.5t136 32.5h32q76 0 136 -32.5t94.5 -89.5t34.5 -133v-21q0 -76 -34.5 -133.5t-94.5 -89.5t-136 -32h-32zM307 111q20 0 35.5 9.5t24.5 25.5t9 35v149q0 20 -9 35.5t-24.5 25t-35.5 9.5
q-19 0 -35 -9.5t-25 -25t-9 -35.5v-149q0 -19 9 -35t25 -25.5t35 -9.5zM105 588l139 148h128l139 -148h-120l-84 65l-84 -65h-118zM285 776v64q22 3 34 12.5t12 26.5q0 13 -10.5 21t-28.5 8q-11 0 -25.5 -2.5t-31.5 -8.5v88q16 5 31.5 6t30.5 1q50 0 83.5 -26t33.5 -74
q0 -33 -19 -59t-48.5 -40.5t-61.5 -16.5z" />
    <glyph glyph-name="uni1ED7" unicode="&#x1ed7;" horiz-adv-x="614" 
d="M291 -10q-76 0 -136 32.5t-94.5 90t-34.5 132.5v21q0 76 34.5 133t94.5 89.5t136 32.5h32q76 0 136 -32.5t94.5 -89.5t34.5 -133v-21q0 -76 -34.5 -133.5t-94.5 -89.5t-136 -32h-32zM307 111q20 0 35.5 9.5t24.5 25.5t9 35v149q0 20 -9 35.5t-24.5 25t-35.5 9.5
q-19 0 -35 -9.5t-25 -25t-9 -35.5v-149q0 -19 9 -35t25 -25.5t35 -9.5zM104 588l139 148h128l139 -148h-120l-84 65l-84 -65h-118zM115 776q0 42 15.5 73.5t43 48.5t62.5 17q34 0 57 -9t43 -18t43 -9q17 0 30 10t17 26h74q0 -42 -15.5 -73.5t-43 -48.5t-62.5 -17
q-33 0 -56.5 9t-43 18t-43.5 9q-17 0 -29.5 -10t-17.5 -26h-74z" />
    <glyph glyph-name="uni020D" unicode="&#x20d;" horiz-adv-x="614" 
d="M291 -10q-76 0 -136 32.5t-94.5 90t-34.5 132.5v21q0 76 34.5 133t94.5 89.5t136 32.5h32q76 0 136 -32.5t94.5 -89.5t34.5 -133v-21q0 -76 -34.5 -133.5t-94.5 -89.5t-136 -32h-32zM307 111q20 0 35.5 9.5t24.5 25.5t9 35v149q0 20 -9 35.5t-24.5 25t-35.5 9.5
q-19 0 -35 -9.5t-25 -25t-9 -35.5v-149q0 -19 9 -35t25 -25.5t35 -9.5zM367 590l-126 142l7 3h151l91 -145h-123zM145 590l-126 142l2 3h156l91 -145h-123z" />
    <glyph glyph-name="odieresis" unicode="&#xf6;" horiz-adv-x="614" 
d="M291 -10q-76 0 -136 32.5t-94.5 90t-34.5 132.5v21q0 76 34.5 133t94.5 89.5t136 32.5h32q76 0 136 -32.5t94.5 -89.5t34.5 -133v-21q0 -76 -34.5 -133.5t-94.5 -89.5t-136 -32h-32zM307 111q20 0 35.5 9.5t24.5 25.5t9 35v149q0 20 -9 35.5t-24.5 25t-35.5 9.5
q-19 0 -35 -9.5t-25 -25t-9 -35.5v-149q0 -19 9 -35t25 -25.5t35 -9.5zM108 602v140h144v-140h-144zM362 602v140h144v-140h-144z" />
    <glyph glyph-name="uni022B" unicode="&#x22b;" horiz-adv-x="614" 
d="M291 -10q-76 0 -136 32.5t-94.5 90t-34.5 132.5v21q0 76 34.5 133t94.5 89.5t136 32.5h32q76 0 136 -32.5t94.5 -89.5t34.5 -133v-21q0 -76 -34.5 -133.5t-94.5 -89.5t-136 -32h-32zM307 111q20 0 35.5 9.5t24.5 25.5t9 35v149q0 20 -9 35.5t-24.5 25t-35.5 9.5
q-19 0 -35 -9.5t-25 -25t-9 -35.5v-149q0 -19 9 -35t25 -25.5t35 -9.5zM125 782v104h364v-104h-364zM125 592v140h144v-140h-144zM345 592v140h144v-140h-144z" />
    <glyph glyph-name="uni0231" unicode="&#x231;" horiz-adv-x="614" 
d="M291 -10q-76 0 -136 32.5t-94.5 90t-34.5 132.5v21q0 76 34.5 133t94.5 89.5t136 32.5h32q76 0 136 -32.5t94.5 -89.5t34.5 -133v-21q0 -76 -34.5 -133.5t-94.5 -89.5t-136 -32h-32zM307 111q20 0 35.5 9.5t24.5 25.5t9 35v149q0 20 -9 35.5t-24.5 25t-35.5 9.5
q-19 0 -35 -9.5t-25 -25t-9 -35.5v-149q0 -19 9 -35t25 -25.5t35 -9.5zM131 780v104h352v-104h-352zM234 591v140h144v-140h-144z" />
    <glyph glyph-name="uni1ECD" unicode="&#x1ecd;" horiz-adv-x="614" 
d="M291 -10q-76 0 -136 32.5t-94.5 90t-34.5 132.5v21q0 76 34.5 133t94.5 89.5t136 32.5h32q76 0 136 -32.5t94.5 -89.5t34.5 -133v-21q0 -76 -34.5 -133.5t-94.5 -89.5t-136 -32h-32zM307 111q20 0 35.5 9.5t24.5 25.5t9 35v149q0 20 -9 35.5t-24.5 25t-35.5 9.5
q-19 0 -35 -9.5t-25 -25t-9 -35.5v-149q0 -19 9 -35t25 -25.5t35 -9.5zM243 -190v140h144v-140h-144z" />
    <glyph glyph-name="ograve" unicode="&#xf2;" horiz-adv-x="614" 
d="M291 -10q-76 0 -136 32.5t-94.5 90t-34.5 132.5v21q0 76 34.5 133t94.5 89.5t136 32.5h32q76 0 136 -32.5t94.5 -89.5t34.5 -133v-21q0 -76 -34.5 -133.5t-94.5 -89.5t-136 -32h-32zM307 111q20 0 35.5 9.5t24.5 25.5t9 35v149q0 20 -9 35.5t-24.5 25t-35.5 9.5
q-19 0 -35 -9.5t-25 -25t-9 -35.5v-149q0 -19 9 -35t25 -25.5t35 -9.5zM246 583l-125 175l2 3h165l91 -178h-133z" />
    <glyph glyph-name="uni1ECF" unicode="&#x1ecf;" horiz-adv-x="614" 
d="M291 -10q-76 0 -136 32.5t-94.5 90t-34.5 132.5v21q0 76 34.5 133t94.5 89.5t136 32.5h32q76 0 136 -32.5t94.5 -89.5t34.5 -133v-21q0 -76 -34.5 -133.5t-94.5 -89.5t-136 -32h-32zM307 111q20 0 35.5 9.5t24.5 25.5t9 35v149q0 20 -9 35.5t-24.5 25t-35.5 9.5
q-19 0 -35 -9.5t-25 -25t-9 -35.5v-149q0 -19 9 -35t25 -25.5t35 -9.5zM302 567v81q27 3 42 14.5t15 33.5q0 16 -12.5 26t-35.5 10q-14 0 -32 -2.5t-40 -10.5v110q20 5 39.5 7t38.5 2q62 0 104 -32.5t42 -92.5q0 -42 -24 -74t-60.5 -51t-76.5 -21z" />
    <glyph glyph-name="ohorn" unicode="&#x1a1;" horiz-adv-x="614" 
d="M291 -10q-76 0 -136 32.5t-94.5 90t-34.5 132.5v21q0 76 34.5 133t94.5 89.5t136 32.5h32q76 0 136 -32.5t94.5 -89.5t34.5 -133v-21q0 -76 -34.5 -133.5t-94.5 -89.5t-136 -32h-32zM307 111q20 0 35.5 9.5t24.5 25.5t9 35v149q0 20 -9 35.5t-24.5 25t-35.5 9.5
q-19 0 -35 -9.5t-25 -25t-9 -35.5v-149q0 -19 9 -35t25 -25.5t35 -9.5zM445 382v98q49 8 64 41.5t15 97.5h164q0 -60 -32 -112t-87 -86t-124 -39z" />
    <glyph glyph-name="uni1EDB" unicode="&#x1edb;" horiz-adv-x="614" 
d="M291 -10q-76 0 -136 32.5t-94.5 90t-34.5 132.5v21q0 76 34.5 133t94.5 89.5t136 32.5h32q76 0 136 -32.5t94.5 -89.5t34.5 -133v-21q0 -76 -34.5 -133.5t-94.5 -89.5t-136 -32h-32zM307 111q20 0 35.5 9.5t24.5 25.5t9 35v149q0 20 -9 35.5t-24.5 25t-35.5 9.5
q-19 0 -35 -9.5t-25 -25t-9 -35.5v-149q0 -19 9 -35t25 -25.5t35 -9.5zM445 382v98q49 8 64 41.5t15 97.5h164q0 -60 -32 -112t-87 -86t-124 -39zM235 583l91 178h165l2 -3l-125 -175h-133z" />
    <glyph glyph-name="uni1EE3" unicode="&#x1ee3;" horiz-adv-x="614" 
d="M291 -10q-76 0 -136 32.5t-94.5 90t-34.5 132.5v21q0 76 34.5 133t94.5 89.5t136 32.5h32q76 0 136 -32.5t94.5 -89.5t34.5 -133v-21q0 -76 -34.5 -133.5t-94.5 -89.5t-136 -32h-32zM307 111q20 0 35.5 9.5t24.5 25.5t9 35v149q0 20 -9 35.5t-24.5 25t-35.5 9.5
q-19 0 -35 -9.5t-25 -25t-9 -35.5v-149q0 -19 9 -35t25 -25.5t35 -9.5zM445 382v98q49 8 64 41.5t15 97.5h164q0 -60 -32 -112t-87 -86t-124 -39zM243 -190v140h144v-140h-144z" />
    <glyph glyph-name="uni1EDD" unicode="&#x1edd;" horiz-adv-x="614" 
d="M291 -10q-76 0 -136 32.5t-94.5 90t-34.5 132.5v21q0 76 34.5 133t94.5 89.5t136 32.5h32q76 0 136 -32.5t94.5 -89.5t34.5 -133v-21q0 -76 -34.5 -133.5t-94.5 -89.5t-136 -32h-32zM307 111q20 0 35.5 9.5t24.5 25.5t9 35v149q0 20 -9 35.5t-24.5 25t-35.5 9.5
q-19 0 -35 -9.5t-25 -25t-9 -35.5v-149q0 -19 9 -35t25 -25.5t35 -9.5zM445 382v98q49 8 64 41.5t15 97.5h164q0 -60 -32 -112t-87 -86t-124 -39zM246 583l-125 175l2 3h165l91 -178h-133z" />
    <glyph glyph-name="uni1EDF" unicode="&#x1edf;" horiz-adv-x="614" 
d="M291 -10q-76 0 -136 32.5t-94.5 90t-34.5 132.5v21q0 76 34.5 133t94.5 89.5t136 32.5h32q76 0 136 -32.5t94.5 -89.5t34.5 -133v-21q0 -76 -34.5 -133.5t-94.5 -89.5t-136 -32h-32zM307 111q20 0 35.5 9.5t24.5 25.5t9 35v149q0 20 -9 35.5t-24.5 25t-35.5 9.5
q-19 0 -35 -9.5t-25 -25t-9 -35.5v-149q0 -19 9 -35t25 -25.5t35 -9.5zM445 382v98q49 8 64 41.5t15 97.5h164q0 -60 -32 -112t-87 -86t-124 -39zM302 567v81q27 3 42 14.5t15 33.5q0 16 -12.5 26t-35.5 10q-14 0 -32 -2.5t-40 -10.5v110q20 5 39.5 7t38.5 2q62 0 104 -32.5
t42 -92.5q0 -42 -24 -74t-60.5 -51t-76.5 -21z" />
    <glyph glyph-name="uni1EE1" unicode="&#x1ee1;" horiz-adv-x="614" 
d="M291 -10q-76 0 -136 32.5t-94.5 90t-34.5 132.5v21q0 76 34.5 133t94.5 89.5t136 32.5h32q76 0 136 -32.5t94.5 -89.5t34.5 -133v-21q0 -76 -34.5 -133.5t-94.5 -89.5t-136 -32h-32zM307 111q20 0 35.5 9.5t24.5 25.5t9 35v149q0 20 -9 35.5t-24.5 25t-35.5 9.5
q-19 0 -35 -9.5t-25 -25t-9 -35.5v-149q0 -19 9 -35t25 -25.5t35 -9.5zM445 382v98q49 8 64 41.5t15 97.5h164q0 -60 -32 -112t-87 -86t-124 -39zM90 581q4 52 20.5 91t45.5 60.5t67 21.5q36 0 65.5 -15t54.5 -30t48 -15q22 0 34.5 17t17.5 43h81q-3 -52 -20 -91
t-45.5 -60.5t-67.5 -21.5q-36 0 -65.5 15t-54.5 30t-48 15q-22 0 -34.5 -17t-17.5 -43h-81z" />
    <glyph glyph-name="ohungarumlaut" unicode="&#x151;" horiz-adv-x="614" 
d="M291 -10q-76 0 -136 32.5t-94.5 90t-34.5 132.5v21q0 76 34.5 133t94.5 89.5t136 32.5h32q76 0 136 -32.5t94.5 -89.5t34.5 -133v-21q0 -76 -34.5 -133.5t-94.5 -89.5t-136 -32h-32zM307 111q20 0 35.5 9.5t24.5 25.5t9 35v149q0 20 -9 35.5t-24.5 25t-35.5 9.5
q-19 0 -35 -9.5t-25 -25t-9 -35.5v-149q0 -19 9 -35t25 -25.5t35 -9.5zM340 590l91 145h156l2 -3l-126 -142h-123zM118 590l91 145h151l7 -3l-126 -142h-123z" />
    <glyph glyph-name="uni020F" unicode="&#x20f;" horiz-adv-x="614" 
d="M291 -10q-76 0 -136 32.5t-94.5 90t-34.5 132.5v21q0 76 34.5 133t94.5 89.5t136 32.5h32q76 0 136 -32.5t94.5 -89.5t34.5 -133v-21q0 -76 -34.5 -133.5t-94.5 -89.5t-136 -32h-32zM307 111q20 0 35.5 9.5t24.5 25.5t9 35v149q0 20 -9 35.5t-24.5 25t-35.5 9.5
q-19 0 -35 -9.5t-25 -25t-9 -35.5v-149q0 -19 9 -35t25 -25.5t35 -9.5zM114 588q0 44 23 77t67 51.5t105 18.5q66 0 108 -18.5t62 -51.5t20 -77h-101q-4 24 -25.5 37.5t-65.5 13.5t-66 -13.5t-27 -37.5h-100z" />
    <glyph glyph-name="omacron" unicode="&#x14d;" horiz-adv-x="614" 
d="M291 -10q-76 0 -136 32.5t-94.5 90t-34.5 132.5v21q0 76 34.5 133t94.5 89.5t136 32.5h32q76 0 136 -32.5t94.5 -89.5t34.5 -133v-21q0 -76 -34.5 -133.5t-94.5 -89.5t-136 -32h-32zM307 111q20 0 35.5 9.5t24.5 25.5t9 35v149q0 20 -9 35.5t-24.5 25t-35.5 9.5
q-19 0 -35 -9.5t-25 -25t-9 -35.5v-149q0 -19 9 -35t25 -25.5t35 -9.5zM123 607v100h368v-100h-368z" />
    <glyph glyph-name="uni01EB" unicode="&#x1eb;" horiz-adv-x="614" 
d="M291 -10q-76 0 -136 32.5t-94.5 90t-34.5 132.5v21q0 76 34.5 133t94.5 89.5t136 32.5h32q76 0 136 -32.5t94.5 -89.5t34.5 -133v-21q0 -76 -34.5 -133.5t-94.5 -89.5t-136 -32h-32zM307 111q20 0 35.5 9.5t24.5 25.5t9 35v149q0 20 -9 35.5t-24.5 25t-35.5 9.5
q-19 0 -35 -9.5t-25 -25t-9 -35.5v-149q0 -19 9 -35t25 -25.5t35 -9.5zM347 -150q-28 0 -52.5 8.5t-39.5 26t-15 44.5q0 24 12 42t28 29h118q-17 -10 -29.5 -21.5t-12.5 -28.5t10 -24t25 -7q13 0 28 4t28 9l14 -51q-23 -14 -53.5 -22.5t-60.5 -8.5z" />
    <glyph glyph-name="oslash" unicode="&#xf8;" horiz-adv-x="614" 
d="M291 -10q-76 0 -136 32.5t-94.5 90t-34.5 132.5v21q0 76 34.5 133t94.5 89.5t136 32.5h32q76 0 136 -32.5t94.5 -89.5t34.5 -133v-21q0 -76 -34.5 -133.5t-94.5 -89.5t-136 -32h-32zM307 111q20 0 35.5 9.5t24.5 25.5t9 35v149q0 20 -9 35.5t-24.5 25t-35.5 9.5
q-19 0 -35 -9.5t-25 -25t-9 -35.5v-149q0 -19 9 -35t25 -25.5t35 -9.5zM65 -50l397 624h92l-397 -624h-92z" />
    <glyph glyph-name="oslashacute" unicode="&#x1ff;" horiz-adv-x="614" 
d="M291 -10q-76 0 -136 32.5t-94.5 90t-34.5 132.5v21q0 76 34.5 133t94.5 89.5t136 32.5h32q76 0 136 -32.5t94.5 -89.5t34.5 -133v-21q0 -76 -34.5 -133.5t-94.5 -89.5t-136 -32h-32zM307 111q20 0 35.5 9.5t24.5 25.5t9 35v149q0 20 -9 35.5t-24.5 25t-35.5 9.5
q-19 0 -35 -9.5t-25 -25t-9 -35.5v-149q0 -19 9 -35t25 -25.5t35 -9.5zM65 -50l397 624h92l-397 -624h-92zM233 583l91 178h165l2 -3l-125 -175h-133z" />
    <glyph glyph-name="otilde" unicode="&#xf5;" horiz-adv-x="614" 
d="M291 -10q-76 0 -136 32.5t-94.5 90t-34.5 132.5v21q0 76 34.5 133t94.5 89.5t136 32.5h32q76 0 136 -32.5t94.5 -89.5t34.5 -133v-21q0 -76 -34.5 -133.5t-94.5 -89.5t-136 -32h-32zM307 111q20 0 35.5 9.5t24.5 25.5t9 35v149q0 20 -9 35.5t-24.5 25t-35.5 9.5
q-19 0 -35 -9.5t-25 -25t-9 -35.5v-149q0 -19 9 -35t25 -25.5t35 -9.5zM90 581q4 52 20.5 91t45.5 60.5t67 21.5q36 0 65.5 -15t54.5 -30t48 -15q22 0 34.5 17t17.5 43h81q-3 -52 -20 -91t-45.5 -60.5t-67.5 -21.5q-36 0 -65.5 15t-54.5 30t-48 15q-22 0 -34.5 -17
t-17.5 -43h-81z" />
    <glyph glyph-name="uni022D" unicode="&#x22d;" horiz-adv-x="614" 
d="M291 -10q-76 0 -136 32.5t-94.5 90t-34.5 132.5v21q0 76 34.5 133t94.5 89.5t136 32.5h32q76 0 136 -32.5t94.5 -89.5t34.5 -133v-21q0 -76 -34.5 -133.5t-94.5 -89.5t-136 -32h-32zM307 111q20 0 35.5 9.5t24.5 25.5t9 35v149q0 20 -9 35.5t-24.5 25t-35.5 9.5
q-19 0 -35 -9.5t-25 -25t-9 -35.5v-149q0 -19 9 -35t25 -25.5t35 -9.5zM90 586q0 46 17 80.5t47.5 53.5t68.5 19q37 0 65 -10t52.5 -20t50.5 -10q19 0 33 11.5t19 28.5h81q0 -46 -17 -80.5t-47 -53.5t-69 -19q-37 0 -65 10t-52.5 20t-50.5 10q-19 0 -33 -11.5t-19 -28.5h-81
zM123 788v96h368v-96h-368z" />
    <glyph glyph-name="oe" unicode="&#x153;" horiz-adv-x="950" 
d="M291 -10q-76 0 -136 32.5t-94.5 90t-34.5 132.5v21q0 76 34.5 133t94.5 89.5t136 32.5h32q45 0 84.5 -11.5t72.5 -33.5q34 23 77 34t92 11h25q79 0 134 -30t84 -81.5t29 -118.5v-62h-333q0 -32 5.5 -59t20.5 -43t45 -16q27 0 44 10t25.5 28.5t8.5 42.5h183
q0 -56 -29.5 -102t-85 -73t-134.5 -27h-15q-50 0 -94.5 12t-79.5 34q-33 -22 -73 -34t-86 -12h-32zM307 111q20 0 35.5 9.5t24.5 25.5t9 35v149q0 20 -9 35.5t-24.5 25t-35.5 9.5q-19 0 -35 -9.5t-25 -25t-9 -35.5v-149q0 -19 9 -35t25 -25.5t35 -9.5zM588 316h138
q0 44 -19.5 64t-49.5 20q-31 0 -50 -21.5t-19 -62.5z" />
    <glyph glyph-name="p" unicode="p" horiz-adv-x="610" 
d="M50 -181v692h158l18 -59q20 26 56.5 47.5t87.5 21.5q62 0 110.5 -26t76 -81t27.5 -143v-21q0 -87 -28.5 -145t-75 -86.5t-100.5 -28.5q-53 0 -84.5 18.5t-47.5 44.5v-234h-198zM310 111q18 0 32 9.5t22 25.5t8 35v145q0 20 -8 35.5t-22 25t-32 9.5q-17 0 -31.5 -9.5
t-22.5 -25t-8 -35.5v-145q0 -19 8 -35t22.5 -25.5t31.5 -9.5z" />
    <glyph glyph-name="thorn" unicode="&#xfe;" horiz-adv-x="610" 
d="M50 -181v901h198v-243q20 18 50.5 31t71.5 13q62 0 110.5 -26t76 -81t27.5 -143v-21q0 -87 -28.5 -145t-75 -86.5t-100.5 -28.5q-53 0 -84.5 18.5t-47.5 44.5v-234h-198zM310 111q18 0 32 9.5t22 25.5t8 35v145q0 20 -8 35.5t-22 25t-32 9.5q-17 0 -31.5 -9.5t-22.5 -25
t-8 -35.5v-145q0 -19 8 -35t22.5 -25.5t31.5 -9.5z" />
    <glyph glyph-name="q" unicode="q" horiz-adv-x="610" 
d="M362 -180v232q-16 -18 -48.5 -40t-85.5 -22q-66 0 -111 27.5t-68 84.5t-23 144v11q0 88 32 146t84 87.5t112 29.5q54 0 92.5 -18t67.5 -59l76 68h70v-691h-198zM300 111q18 0 32 9.5t22 25.5t8 35v145q0 20 -8 35.5t-22 25t-32 9.5q-17 0 -31.5 -9.5t-22.5 -25t-8 -35.5
v-145q0 -19 8 -35t22.5 -25.5t31.5 -9.5z" />
    <glyph glyph-name="r" unicode="r" horiz-adv-x="507" 
d="M50 0v511h148l22 -74q3 6 12.5 19.5t26.5 28.5t41 25.5t55 10.5q49 0 79.5 -17.5t45 -52t14.5 -84.5q0 -12 -1 -29t-3 -34h-162v24q0 14 -5 25.5t-14 18t-23 6.5q-10 0 -18.5 -4t-13.5 -10.5t-8 -15.5t-3 -20v-328h-193z" />
    <glyph glyph-name="racute" unicode="&#x155;" horiz-adv-x="507" 
d="M50 0v511h148l22 -74q3 6 12.5 19.5t26.5 28.5t41 25.5t55 10.5q49 0 79.5 -17.5t45 -52t14.5 -84.5q0 -12 -1 -29t-3 -34h-162v24q0 14 -5 25.5t-14 18t-23 6.5q-10 0 -18.5 -4t-13.5 -10.5t-8 -15.5t-3 -20v-328h-193zM187 583l91 178h165l2 -3l-125 -175h-133z" />
    <glyph glyph-name="rcaron" unicode="&#x159;" horiz-adv-x="507" 
d="M50 0v511h148l22 -74q3 6 12.5 19.5t26.5 28.5t41 25.5t55 10.5q49 0 79.5 -17.5t45 -52t14.5 -84.5q0 -12 -1 -29t-3 -34h-162v24q0 14 -5 25.5t-14 18t-23 6.5q-10 0 -18.5 -4t-13.5 -10.5t-8 -15.5t-3 -20v-328h-193zM472 766l-139 -188h-148l-139 188h140l114 -160
h-80l114 160h138z" />
    <glyph glyph-name="uni0157" unicode="&#x157;" horiz-adv-x="506" 
d="M50 0v511h148l22 -74q3 6 12.5 19.5t26.5 28.5t41 25.5t55 10.5q49 0 79.5 -17.5t45 -52t14.5 -84.5q0 -12 -1 -29t-3 -34h-162v24q0 14 -5 25.5t-14 18t-23 6.5q-10 0 -18.5 -4t-13.5 -10.5t-8 -15.5t-3 -20v-328h-193zM67 -413v20q35 35 52 73t17 78h-73v165h159v-139
q0 -56 -18 -107t-55 -90h-82z" />
    <glyph glyph-name="uni0211" unicode="&#x211;" horiz-adv-x="507" 
d="M50 0v511h148l22 -74q3 6 12.5 19.5t26.5 28.5t41 25.5t55 10.5q49 0 79.5 -17.5t45 -52t14.5 -84.5q0 -12 -1 -29t-3 -34h-162v24q0 14 -5 25.5t-14 18t-23 6.5q-10 0 -18.5 -4t-13.5 -10.5t-8 -15.5t-3 -20v-328h-193zM319 590l-126 142l7 3h151l91 -145h-123zM97 590
l-126 142l2 3h156l91 -145h-123z" />
    <glyph glyph-name="uni0213" unicode="&#x213;" horiz-adv-x="507" 
d="M50 0v511h148l22 -74q3 6 12.5 19.5t26.5 28.5t41 25.5t55 10.5q49 0 79.5 -17.5t45 -52t14.5 -84.5q0 -12 -1 -29t-3 -34h-162v24q0 14 -5 25.5t-14 18t-23 6.5q-10 0 -18.5 -4t-13.5 -10.5t-8 -15.5t-3 -20v-328h-193zM66 588q0 44 23 77t67 51.5t105 18.5
q66 0 108 -18.5t62 -51.5t20 -77h-101q-4 24 -25.5 37.5t-65.5 13.5t-66 -13.5t-27 -37.5h-100z" />
    <glyph glyph-name="s" unicode="s" horiz-adv-x="559" 
d="M243 -10q-40 0 -79.5 9.5t-71.5 29t-51 49.5t-19 71v9t1 9h163q-1 -2 -1 -3.5v-3.5q0 -19 14 -30t34 -15t38 -4q10 0 30 1.5t37.5 8t17.5 21.5q0 16 -17 24t-45.5 12.5t-62.5 9t-68 13.5t-62.5 26t-45.5 46.5t-17 75.5t21.5 79t57 53.5t76.5 30t80 9.5h31q33 0 70.5 -8
t71 -25t54.5 -43t21 -61q0 -7 -0.5 -14t-1.5 -12h-164v5q0 11 -7 19t-18 12.5t-23 6.5t-22 2q-7 0 -19.5 -0.5t-25 -3t-21 -8.5t-8.5 -17q0 -16 17.5 -23t46 -10.5t63 -7.5t68.5 -12t62.5 -25.5t46 -47.5t17.5 -78q0 -51 -20.5 -85.5t-54.5 -55.5t-76 -30t-86 -9h-52z" />
    <glyph glyph-name="sacute" unicode="&#x15b;" horiz-adv-x="559" 
d="M243 -10q-40 0 -79.5 9.5t-71.5 29t-51 49.5t-19 71v9t1 9h163q-1 -2 -1 -3.5v-3.5q0 -19 14 -30t34 -15t38 -4q10 0 30 1.5t37.5 8t17.5 21.5q0 16 -17 24t-45.5 12.5t-62.5 9t-68 13.5t-62.5 26t-45.5 46.5t-17 75.5t21.5 79t57 53.5t76.5 30t80 9.5h31q33 0 70.5 -8
t71 -25t54.5 -43t21 -61q0 -7 -0.5 -14t-1.5 -12h-164v5q0 11 -7 19t-18 12.5t-23 6.5t-22 2q-7 0 -19.5 -0.5t-25 -3t-21 -8.5t-8.5 -17q0 -16 17.5 -23t46 -10.5t63 -7.5t68.5 -12t62.5 -25.5t46 -47.5t17.5 -78q0 -51 -20.5 -85.5t-54.5 -55.5t-76 -30t-86 -9h-52z
M204 583l91 178h165l2 -3l-125 -175h-133z" />
    <glyph glyph-name="scaron" unicode="&#x161;" horiz-adv-x="559" 
d="M243 -10q-40 0 -79.5 9.5t-71.5 29t-51 49.5t-19 71v9t1 9h163q-1 -2 -1 -3.5v-3.5q0 -19 14 -30t34 -15t38 -4q10 0 30 1.5t37.5 8t17.5 21.5q0 16 -17 24t-45.5 12.5t-62.5 9t-68 13.5t-62.5 26t-45.5 46.5t-17 75.5t21.5 79t57 53.5t76.5 30t80 9.5h31q33 0 70.5 -8
t71 -25t54.5 -43t21 -61q0 -7 -0.5 -14t-1.5 -12h-164v5q0 11 -7 19t-18 12.5t-23 6.5t-22 2q-7 0 -19.5 -0.5t-25 -3t-21 -8.5t-8.5 -17q0 -16 17.5 -23t46 -10.5t63 -7.5t68.5 -12t62.5 -25.5t46 -47.5t17.5 -78q0 -51 -20.5 -85.5t-54.5 -55.5t-76 -30t-86 -9h-52z
M489 766l-139 -188h-148l-139 188h140l114 -160h-80l114 160h138z" />
    <glyph glyph-name="scedilla" unicode="&#x15f;" horiz-adv-x="559" 
d="M243 -10q-40 0 -79.5 9.5t-71.5 29t-51 49.5t-19 71v9t1 9h163q-1 -2 -1 -3.5v-3.5q0 -19 14 -30t34 -15t38 -4q10 0 30 1.5t37.5 8t17.5 21.5q0 16 -17 24t-45.5 12.5t-62.5 9t-68 13.5t-62.5 26t-45.5 46.5t-17 75.5t21.5 79t57 53.5t76.5 30t80 9.5h31q33 0 70.5 -8
t71 -25t54.5 -43t21 -61q0 -7 -0.5 -14t-1.5 -12h-164v5q0 11 -7 19t-18 12.5t-23 6.5t-22 2q-7 0 -19.5 -0.5t-25 -3t-21 -8.5t-8.5 -17q0 -16 17.5 -23t46 -10.5t63 -7.5t68.5 -12t62.5 -25.5t46 -47.5t17.5 -78q0 -51 -20.5 -85.5t-54.5 -55.5t-76 -30t-86 -9h-52z
M272 -212q-32 0 -63.5 9.5t-53.5 26.5l32 61q17 -11 35.5 -20.5t47.5 -9.5q18 0 26.5 7.5t8.5 18.5q0 13 -8 17t-19 4h-22v66h38q28 0 52 -8t39.5 -26.5t15.5 -48.5q0 -33 -18.5 -54.5t-48 -32t-62.5 -10.5z" />
    <glyph glyph-name="scircumflex" unicode="&#x15d;" horiz-adv-x="559" 
d="M243 -10q-40 0 -79.5 9.5t-71.5 29t-51 49.5t-19 71v9t1 9h163q-1 -2 -1 -3.5v-3.5q0 -19 14 -30t34 -15t38 -4q10 0 30 1.5t37.5 8t17.5 21.5q0 16 -17 24t-45.5 12.5t-62.5 9t-68 13.5t-62.5 26t-45.5 46.5t-17 75.5t21.5 79t57 53.5t76.5 30t80 9.5h31q33 0 70.5 -8
t71 -25t54.5 -43t21 -61q0 -7 -0.5 -14t-1.5 -12h-164v5q0 11 -7 19t-18 12.5t-23 6.5t-22 2q-7 0 -19.5 -0.5t-25 -3t-21 -8.5t-8.5 -17q0 -16 17.5 -23t46 -10.5t63 -7.5t68.5 -12t62.5 -25.5t46 -47.5t17.5 -78q0 -51 -20.5 -85.5t-54.5 -55.5t-76 -30t-86 -9h-52z
M63 573l139 188h148l139 -188h-140l-114 160h80l-114 -160h-138z" />
    <glyph glyph-name="uni0219" unicode="&#x219;" horiz-adv-x="559" 
d="M243 -10q-40 0 -79.5 9.5t-71.5 29t-51 49.5t-19 71v9t1 9h163q-1 -2 -1 -3.5v-3.5q0 -19 14 -30t34 -15t38 -4q10 0 30 1.5t37.5 8t17.5 21.5q0 16 -17 24t-45.5 12.5t-62.5 9t-68 13.5t-62.5 26t-45.5 46.5t-17 75.5t21.5 79t57 53.5t76.5 30t80 9.5h31q33 0 70.5 -8
t71 -25t54.5 -43t21 -61q0 -7 -0.5 -14t-1.5 -12h-164v5q0 11 -7 19t-18 12.5t-23 6.5t-22 2q-7 0 -19.5 -0.5t-25 -3t-21 -8.5t-8.5 -17q0 -16 17.5 -23t46 -10.5t63 -7.5t68.5 -12t62.5 -25.5t46 -47.5t17.5 -78q0 -51 -20.5 -85.5t-54.5 -55.5t-76 -30t-86 -9h-52z
M203 -413v20q35 35 52 73t17 78h-73v165h159v-139q0 -56 -18 -107t-55 -90h-82z" />
    <glyph glyph-name="uni1E63" unicode="&#x1e63;" horiz-adv-x="559" 
d="M243 -10q-40 0 -79.5 9.5t-71.5 29t-51 49.5t-19 71v9t1 9h163q-1 -2 -1 -3.5v-3.5q0 -19 14 -30t34 -15t38 -4q10 0 30 1.5t37.5 8t17.5 21.5q0 16 -17 24t-45.5 12.5t-62.5 9t-68 13.5t-62.5 26t-45.5 46.5t-17 75.5t21.5 79t57 53.5t76.5 30t80 9.5h31q33 0 70.5 -8
t71 -25t54.5 -43t21 -61q0 -7 -0.5 -14t-1.5 -12h-164v5q0 11 -7 19t-18 12.5t-23 6.5t-22 2q-7 0 -19.5 -0.5t-25 -3t-21 -8.5t-8.5 -17q0 -16 17.5 -23t46 -10.5t63 -7.5t68.5 -12t62.5 -25.5t46 -47.5t17.5 -78q0 -51 -20.5 -85.5t-54.5 -55.5t-76 -30t-86 -9h-52z
M212 -190v140h144v-140h-144z" />
    <glyph glyph-name="germandbls" unicode="&#xdf;" horiz-adv-x="652" 
d="M87 -66v435h-62v142h62q4 70 42.5 118t97 73.5t122.5 25.5q44 0 88.5 -9.5t81.5 -31.5t59.5 -57.5t22.5 -88.5q0 -32 -11 -61t-32 -51t-51 -34v-5q54 -19 87 -66.5t33 -104.5q0 -74 -31.5 -122.5t-86.5 -72.5t-125 -24h-63v148h28q22 0 40.5 11.5t29.5 31.5t11 43
q0 24 -11 44t-29 31.5t-41 11.5h-28v122h27q18 0 32.5 9t23 24.5t8.5 34.5q0 20 -8.5 35t-22.5 24t-32 9q-27 0 -45.5 -19.5t-18.5 -48.5v-577h-198z" />
    <glyph glyph-name="longs" unicode="&#x17f;" horiz-adv-x="419" 
d="M89 0v369h-64v142h64v66q0 81 51 116t132 35q17 0 42 -2.5t50.5 -7.5t41.5 -12v-110q-11 4 -31 7t-31 3q-12 0 -25.5 -3t-22.5 -15t-9 -40v-548h-198z" />
    <glyph glyph-name="t" unicode="t" horiz-adv-x="419" 
d="M262 -11q-54 0 -95 12.5t-64.5 43.5t-23.5 85v239h-56v142h64l69 163h121v-163h120v-142h-120v-189q0 -44 18 -56.5t39 -12.5q11 0 30.5 3.5t31.5 8.5v-112q-16 -7 -41.5 -12t-50.5 -7.5t-42 -2.5z" />
    <glyph glyph-name="tbar" unicode="&#x167;" horiz-adv-x="419" 
d="M262 -11q-54 0 -95 12.5t-64.5 43.5t-23.5 85v239h-56v142h64l69 163h121v-163h120v-142h-120v-189q0 -44 18 -56.5t39 -12.5q11 0 30.5 3.5t31.5 8.5v-112q-16 -7 -41.5 -12t-50.5 -7.5t-42 -2.5zM23 195v126h373v-126h-373z" />
    <glyph glyph-name="tcaron" unicode="&#x165;" horiz-adv-x="419" 
d="M262 -11q-54 0 -95 12.5t-64.5 43.5t-23.5 85v239h-56v142h64l69 163h121v-163h120v-142h-120v-189q0 -44 18 -56.5t39 -12.5q11 0 30.5 3.5t31.5 8.5v-112q-16 -7 -41.5 -12t-50.5 -7.5t-42 -2.5zM325 577v19q31 32 47.5 65.5t16.5 71.5h-69v152h150v-128
q0 -52 -17.5 -97.5t-51.5 -82.5h-76z" />
    <glyph glyph-name="uni0163" unicode="&#x163;" horiz-adv-x="419" 
d="M262 -11q-54 0 -95 12.5t-64.5 43.5t-23.5 85v239h-56v142h64l69 163h121v-163h120v-142h-120v-189q0 -44 18 -56.5t39 -12.5q11 0 30.5 3.5t31.5 8.5v-112q-16 -7 -41.5 -12t-50.5 -7.5t-42 -2.5zM227 -212q-32 0 -63.5 9.5t-53.5 26.5l32 61q17 -11 35.5 -20.5
t47.5 -9.5q18 0 26.5 7.5t8.5 18.5q0 13 -8 17t-19 4h-22v66h38q28 0 52 -8t39.5 -26.5t15.5 -48.5q0 -33 -18.5 -54.5t-48 -32t-62.5 -10.5z" />
    <glyph glyph-name="uni021B" unicode="&#x21b;" horiz-adv-x="419" 
d="M262 -11q-54 0 -95 12.5t-64.5 43.5t-23.5 85v239h-56v142h64l69 163h121v-163h120v-142h-120v-189q0 -44 18 -56.5t39 -12.5q11 0 30.5 3.5t31.5 8.5v-112q-16 -7 -41.5 -12t-50.5 -7.5t-42 -2.5zM158 -413v20q35 35 52 73t17 78h-73v165h159v-139q0 -56 -18 -107
t-55 -90h-82z" />
    <glyph glyph-name="uni1E6D" unicode="&#x1e6d;" horiz-adv-x="419" 
d="M262 -11q-54 0 -95 12.5t-64.5 43.5t-23.5 85v239h-56v142h64l69 163h121v-163h120v-142h-120v-189q0 -44 18 -56.5t39 -12.5q11 0 30.5 3.5t31.5 8.5v-112q-16 -7 -41.5 -12t-50.5 -7.5t-42 -2.5zM167 -190v140h144v-140h-144z" />
    <glyph glyph-name="u" unicode="u" horiz-adv-x="628" 
d="M210 -10q-78 0 -121 43.5t-43 116.5v361h198v-320q0 -25 12.5 -42.5t40.5 -17.5q15 0 27 8t19 22t7 30v320h198v-363q0 -20 10 -28.5t21 -8.5q9 0 18 2.5t17 6.5v-107q-13 -10 -37.5 -16.5t-63.5 -6.5q-44 0 -73.5 9.5t-46.5 28t-27 43.5q-25 -38 -65 -59.5t-91 -21.5z
" />
    <glyph glyph-name="uacute" unicode="&#xfa;" horiz-adv-x="628" 
d="M210 -10q-78 0 -121 43.5t-43 116.5v361h198v-320q0 -25 12.5 -42.5t40.5 -17.5q15 0 27 8t19 22t7 30v320h198v-363q0 -20 10 -28.5t21 -8.5q9 0 18 2.5t17 6.5v-107q-13 -10 -37.5 -16.5t-63.5 -6.5q-44 0 -73.5 9.5t-46.5 28t-27 43.5q-25 -38 -65 -59.5t-91 -21.5z
M228 583l91 178h165l2 -3l-125 -175h-133z" />
    <glyph glyph-name="uni0289" unicode="&#x289;" horiz-adv-x="628" 
d="M-7 367h610v-128h-610v128zM210 -10q-78 0 -121 43.5t-43 116.5v361h198v-320q0 -25 12.5 -42.5t40.5 -17.5q15 0 27 8t19 22t7 30v320h198v-363q0 -20 10 -28.5t21 -8.5q9 0 18 2.5t17 6.5v-107q-13 -10 -37.5 -16.5t-63.5 -6.5q-44 0 -73.5 9.5t-46.5 28t-27 43.5
q-25 -38 -65 -59.5t-91 -21.5z" />
    <glyph glyph-name="ubreve" unicode="&#x16d;" horiz-adv-x="628" 
d="M210 -10q-78 0 -121 43.5t-43 116.5v361h198v-320q0 -25 12.5 -42.5t40.5 -17.5q15 0 27 8t19 22t7 30v320h198v-363q0 -20 10 -28.5t21 -8.5q9 0 18 2.5t17 6.5v-107q-13 -10 -37.5 -16.5t-63.5 -6.5q-44 0 -73.5 9.5t-46.5 28t-27 43.5q-25 -38 -65 -59.5t-91 -21.5z
M296 588q-66 0 -107.5 21t-61.5 58.5t-20 87.5h101q4 -34 26 -52.5t66 -18.5t66 18.5t27 52.5h100q0 -50 -23.5 -87.5t-67.5 -58.5t-106 -21z" />
    <glyph glyph-name="uni01D4" unicode="&#x1d4;" horiz-adv-x="628" 
d="M210 -10q-78 0 -121 43.5t-43 116.5v361h198v-320q0 -25 12.5 -42.5t40.5 -17.5q15 0 27 8t19 22t7 30v320h198v-363q0 -20 10 -28.5t21 -8.5q9 0 18 2.5t17 6.5v-107q-13 -10 -37.5 -16.5t-63.5 -6.5q-44 0 -73.5 9.5t-46.5 28t-27 43.5q-25 -38 -65 -59.5t-91 -21.5z
M513 766l-139 -188h-148l-139 188h140l114 -160h-80l114 160h138z" />
    <glyph glyph-name="ucircumflex" unicode="&#xfb;" horiz-adv-x="628" 
d="M210 -10q-78 0 -121 43.5t-43 116.5v361h198v-320q0 -25 12.5 -42.5t40.5 -17.5q15 0 27 8t19 22t7 30v320h198v-363q0 -20 10 -28.5t21 -8.5q9 0 18 2.5t17 6.5v-107q-13 -10 -37.5 -16.5t-63.5 -6.5q-44 0 -73.5 9.5t-46.5 28t-27 43.5q-25 -38 -65 -59.5t-91 -21.5z
M87 573l139 188h148l139 -188h-140l-114 160h80l-114 -160h-138z" />
    <glyph glyph-name="uni0215" unicode="&#x215;" horiz-adv-x="628" 
d="M210 -10q-78 0 -121 43.5t-43 116.5v361h198v-320q0 -25 12.5 -42.5t40.5 -17.5q15 0 27 8t19 22t7 30v320h198v-363q0 -20 10 -28.5t21 -8.5q9 0 18 2.5t17 6.5v-107q-13 -10 -37.5 -16.5t-63.5 -6.5q-44 0 -73.5 9.5t-46.5 28t-27 43.5q-25 -38 -65 -59.5t-91 -21.5z
M360 590l-126 142l7 3h151l91 -145h-123zM138 590l-126 142l2 3h156l91 -145h-123z" />
    <glyph glyph-name="udieresis" unicode="&#xfc;" horiz-adv-x="628" 
d="M210 -10q-78 0 -121 43.5t-43 116.5v361h198v-320q0 -25 12.5 -42.5t40.5 -17.5q15 0 27 8t19 22t7 30v320h198v-363q0 -20 10 -28.5t21 -8.5q9 0 18 2.5t17 6.5v-107q-13 -10 -37.5 -16.5t-63.5 -6.5q-44 0 -73.5 9.5t-46.5 28t-27 43.5q-25 -38 -65 -59.5t-91 -21.5z
M101 602v140h144v-140h-144zM355 602v140h144v-140h-144z" />
    <glyph glyph-name="uni01D8" unicode="&#x1d8;" horiz-adv-x="628" 
d="M210 -10q-78 0 -121 43.5t-43 116.5v361h198v-320q0 -25 12.5 -42.5t40.5 -17.5q15 0 27 8t19 22t7 30v320h198v-363q0 -20 10 -28.5t21 -8.5q9 0 18 2.5t17 6.5v-107q-13 -10 -37.5 -16.5t-63.5 -6.5q-44 0 -73.5 9.5t-46.5 28t-27 43.5q-25 -38 -65 -59.5t-91 -21.5z
M243 783l91 145h151l2 -3l-126 -142h-118zM118 592v140h144v-140h-144zM338 592v140h144v-140h-144z" />
    <glyph glyph-name="uni01DA" unicode="&#x1da;" horiz-adv-x="628" 
d="M210 -10q-78 0 -121 43.5t-43 116.5v361h198v-320q0 -25 12.5 -42.5t40.5 -17.5q15 0 27 8t19 22t7 30v320h198v-363q0 -20 10 -28.5t21 -8.5q9 0 18 2.5t17 6.5v-107q-13 -10 -37.5 -16.5t-63.5 -6.5q-44 0 -73.5 9.5t-46.5 28t-27 43.5q-25 -38 -65 -59.5t-91 -21.5z
M237 782l-139 145h130l74 -77l74 77h128l-139 -145h-128zM118 592v140h144v-140h-144zM338 592v140h144v-140h-144z" />
    <glyph glyph-name="uni01DC" unicode="&#x1dc;" horiz-adv-x="628" 
d="M210 -10q-78 0 -121 43.5t-43 116.5v361h198v-320q0 -25 12.5 -42.5t40.5 -17.5q15 0 27 8t19 22t7 30v320h198v-363q0 -20 10 -28.5t21 -8.5q9 0 18 2.5t17 6.5v-107q-13 -10 -37.5 -16.5t-63.5 -6.5q-44 0 -73.5 9.5t-46.5 28t-27 43.5q-25 -38 -65 -59.5t-91 -21.5z
M239 782l-126 142l2 3h151l91 -145h-118zM118 592v140h144v-140h-144zM338 592v140h144v-140h-144z" />
    <glyph glyph-name="uni01D6" unicode="&#x1d6;" horiz-adv-x="628" 
d="M210 -10q-78 0 -121 43.5t-43 116.5v361h198v-320q0 -25 12.5 -42.5t40.5 -17.5q15 0 27 8t19 22t7 30v320h198v-363q0 -20 10 -28.5t21 -8.5q9 0 18 2.5t17 6.5v-107q-13 -10 -37.5 -16.5t-63.5 -6.5q-44 0 -73.5 9.5t-46.5 28t-27 43.5q-25 -38 -65 -59.5t-91 -21.5z
M118 782v104h364v-104h-364zM118 592v140h144v-140h-144zM338 592v140h144v-140h-144z" />
    <glyph glyph-name="uni1EE5" unicode="&#x1ee5;" horiz-adv-x="628" 
d="M210 -10q-78 0 -121 43.5t-43 116.5v361h198v-320q0 -25 12.5 -42.5t40.5 -17.5q15 0 27 8t19 22t7 30v320h198v-363q0 -20 10 -28.5t21 -8.5q9 0 18 2.5t17 6.5v-107q-13 -10 -37.5 -16.5t-63.5 -6.5q-44 0 -73.5 9.5t-46.5 28t-27 43.5q-25 -38 -65 -59.5t-91 -21.5z
M258 -190v140h144v-140h-144z" />
    <glyph glyph-name="ugrave" unicode="&#xf9;" horiz-adv-x="628" 
d="M210 -10q-78 0 -121 43.5t-43 116.5v361h198v-320q0 -25 12.5 -42.5t40.5 -17.5q15 0 27 8t19 22t7 30v320h198v-363q0 -20 10 -28.5t21 -8.5q9 0 18 2.5t17 6.5v-107q-13 -10 -37.5 -16.5t-63.5 -6.5q-44 0 -73.5 9.5t-46.5 28t-27 43.5q-25 -38 -65 -59.5t-91 -21.5z
M239 583l-125 175l2 3h165l91 -178h-133z" />
    <glyph glyph-name="uni1EE7" unicode="&#x1ee7;" horiz-adv-x="628" 
d="M210 -10q-78 0 -121 43.5t-43 116.5v361h198v-320q0 -25 12.5 -42.5t40.5 -17.5q15 0 27 8t19 22t7 30v320h198v-363q0 -20 10 -28.5t21 -8.5q9 0 18 2.5t17 6.5v-107q-13 -10 -37.5 -16.5t-63.5 -6.5q-44 0 -73.5 9.5t-46.5 28t-27 43.5q-25 -38 -65 -59.5t-91 -21.5z
M295 567v81q27 3 42 14.5t15 33.5q0 16 -12.5 26t-35.5 10q-14 0 -32 -2.5t-40 -10.5v110q20 5 39.5 7t38.5 2q62 0 104 -32.5t42 -92.5q0 -42 -24 -74t-60.5 -51t-76.5 -21z" />
    <glyph glyph-name="uhorn" unicode="&#x1b0;" horiz-adv-x="628" 
d="M210 -10q-78 0 -121 43.5t-43 116.5v361h198v-320q0 -25 12.5 -42.5t40.5 -17.5q15 0 27 8t19 22t7 30v320h198v-363q0 -20 10 -28.5t21 -8.5q9 0 18 2.5t17 6.5v-107q-13 -10 -37.5 -16.5t-63.5 -6.5q-44 0 -73.5 9.5t-46.5 28t-27 43.5q-25 -38 -65 -59.5t-91 -21.5z
M424 413v98q49 8 64 41.5t15 97.5h164q0 -60 -32 -112t-87 -86t-124 -39z" />
    <glyph glyph-name="uni1EE9" unicode="&#x1ee9;" horiz-adv-x="628" 
d="M210 -10q-78 0 -121 43.5t-43 116.5v361h198v-320q0 -25 12.5 -42.5t40.5 -17.5q15 0 27 8t19 22t7 30v320h198v-363q0 -20 10 -28.5t21 -8.5q9 0 18 2.5t17 6.5v-107q-13 -10 -37.5 -16.5t-63.5 -6.5q-44 0 -73.5 9.5t-46.5 28t-27 43.5q-25 -38 -65 -59.5t-91 -21.5z
M424 413v98q49 8 64 41.5t15 97.5h164q0 -60 -32 -112t-87 -86t-124 -39zM228 583l91 178h165l2 -3l-125 -175h-133z" />
    <glyph glyph-name="uni1EF1" unicode="&#x1ef1;" horiz-adv-x="628" 
d="M210 -10q-78 0 -121 43.5t-43 116.5v361h198v-320q0 -25 12.5 -42.5t40.5 -17.5q15 0 27 8t19 22t7 30v320h198v-363q0 -20 10 -28.5t21 -8.5q9 0 18 2.5t17 6.5v-107q-13 -10 -37.5 -16.5t-63.5 -6.5q-44 0 -73.5 9.5t-46.5 28t-27 43.5q-25 -38 -65 -59.5t-91 -21.5z
M424 413v98q49 8 64 41.5t15 97.5h164q0 -60 -32 -112t-87 -86t-124 -39zM258 -190v140h144v-140h-144z" />
    <glyph glyph-name="uni1EEB" unicode="&#x1eeb;" horiz-adv-x="628" 
d="M210 -10q-78 0 -121 43.5t-43 116.5v361h198v-320q0 -25 12.5 -42.5t40.5 -17.5q15 0 27 8t19 22t7 30v320h198v-363q0 -20 10 -28.5t21 -8.5q9 0 18 2.5t17 6.5v-107q-13 -10 -37.5 -16.5t-63.5 -6.5q-44 0 -73.5 9.5t-46.5 28t-27 43.5q-25 -38 -65 -59.5t-91 -21.5z
M424 413v98q49 8 64 41.5t15 97.5h164q0 -60 -32 -112t-87 -86t-124 -39zM239 583l-125 175l2 3h165l91 -178h-133z" />
    <glyph glyph-name="uni1EED" unicode="&#x1eed;" horiz-adv-x="628" 
d="M210 -10q-78 0 -121 43.5t-43 116.5v361h198v-320q0 -25 12.5 -42.5t40.5 -17.5q15 0 27 8t19 22t7 30v320h198v-363q0 -20 10 -28.5t21 -8.5q9 0 18 2.5t17 6.5v-107q-13 -10 -37.5 -16.5t-63.5 -6.5q-44 0 -73.5 9.5t-46.5 28t-27 43.5q-25 -38 -65 -59.5t-91 -21.5z
M424 413v98q49 8 64 41.5t15 97.5h164q0 -60 -32 -112t-87 -86t-124 -39zM295 567v81q27 3 42 14.5t15 33.5q0 16 -12.5 26t-35.5 10q-14 0 -32 -2.5t-40 -10.5v110q20 5 39.5 7t38.5 2q62 0 104 -32.5t42 -92.5q0 -42 -24 -74t-60.5 -51t-76.5 -21z" />
    <glyph glyph-name="uni1EEF" unicode="&#x1eef;" horiz-adv-x="628" 
d="M210 -10q-78 0 -121 43.5t-43 116.5v361h198v-320q0 -25 12.5 -42.5t40.5 -17.5q15 0 27 8t19 22t7 30v320h198v-363q0 -20 10 -28.5t21 -8.5q9 0 18 2.5t17 6.5v-107q-13 -10 -37.5 -16.5t-63.5 -6.5q-44 0 -73.5 9.5t-46.5 28t-27 43.5q-25 -38 -65 -59.5t-91 -21.5z
M98 576q0 36 19 69t51 53.5t70 20.5q32 0 51.5 -10t37.5 -20t44 -10q19 0 32 11.5t18 28.5h81q0 -36 -19 -68.5t-50.5 -53.5t-70.5 -21q-23 0 -38 5t-27 12.5t-27.5 14t-40.5 8.5q-19 0 -32 -11.5t-18 -28.5h-81zM424 413l10 98q49 8 64 41.5t15 97.5h154q0 -60 -32 -112
t-87 -86t-124 -39z" />
    <glyph glyph-name="uhungarumlaut" unicode="&#x171;" horiz-adv-x="628" 
d="M210 -10q-78 0 -121 43.5t-43 116.5v361h198v-320q0 -25 12.5 -42.5t40.5 -17.5q15 0 27 8t19 22t7 30v320h198v-363q0 -20 10 -28.5t21 -8.5q9 0 18 2.5t17 6.5v-107q-13 -10 -37.5 -16.5t-63.5 -6.5q-44 0 -73.5 9.5t-46.5 28t-27 43.5q-25 -38 -65 -59.5t-91 -21.5z
M333 590l91 145h156l2 -3l-126 -142h-123zM111 590l91 145h151l7 -3l-126 -142h-123z" />
    <glyph glyph-name="uni0217" unicode="&#x217;" horiz-adv-x="628" 
d="M210 -10q-78 0 -121 43.5t-43 116.5v361h198v-320q0 -25 12.5 -42.5t40.5 -17.5q15 0 27 8t19 22t7 30v320h198v-363q0 -20 10 -28.5t21 -8.5q9 0 18 2.5t17 6.5v-107q-13 -10 -37.5 -16.5t-63.5 -6.5q-44 0 -73.5 9.5t-46.5 28t-27 43.5q-25 -38 -65 -59.5t-91 -21.5z
M107 588q0 44 23 77t67 51.5t105 18.5q66 0 108 -18.5t62 -51.5t20 -77h-101q-4 24 -25.5 37.5t-65.5 13.5t-66 -13.5t-27 -37.5h-100z" />
    <glyph glyph-name="umacron" unicode="&#x16b;" horiz-adv-x="628" 
d="M210 -10q-78 0 -121 43.5t-43 116.5v361h198v-320q0 -25 12.5 -42.5t40.5 -17.5q15 0 27 8t19 22t7 30v320h198v-363q0 -20 10 -28.5t21 -8.5q9 0 18 2.5t17 6.5v-107q-13 -10 -37.5 -16.5t-63.5 -6.5q-44 0 -73.5 9.5t-46.5 28t-27 43.5q-25 -38 -65 -59.5t-91 -21.5z
M116 607v100h368v-100h-368z" />
    <glyph glyph-name="uogonek" unicode="&#x173;" horiz-adv-x="628" 
d="M210 -10q-78 0 -121 43.5t-43 116.5v361h198v-320q0 -25 12.5 -42.5t40.5 -17.5q15 0 27 8t19 22t7 30v320h198v-363q0 -20 10 -28.5t21 -8.5q9 0 18 2.5t17 6.5v-107q-13 -10 -37.5 -16.5t-63.5 -6.5q-44 0 -73.5 9.5t-46.5 28t-27 43.5q-25 -38 -65 -59.5t-91 -21.5z
M521 -150q-28 0 -52.5 8.5t-39.5 26t-15 44.5q0 24 12 42t28 29h118q-17 -10 -29.5 -21.5t-12.5 -28.5t10 -24t25 -7q13 0 28 4t28 9l14 -51q-23 -14 -53.5 -22.5t-60.5 -8.5z" />
    <glyph glyph-name="uring" unicode="&#x16f;" horiz-adv-x="628" 
d="M210 -10q-78 0 -121 43.5t-43 116.5v361h198v-320q0 -25 12.5 -42.5t40.5 -17.5q15 0 27 8t19 22t7 30v320h198v-363q0 -20 10 -28.5t21 -8.5q9 0 18 2.5t17 6.5v-107q-13 -10 -37.5 -16.5t-63.5 -6.5q-44 0 -73.5 9.5t-46.5 28t-27 43.5q-25 -38 -65 -59.5t-91 -21.5z
M300 567q-47 0 -79 28t-32 77q0 48 31.5 77t79.5 29q47 0 79 -29t32 -77q0 -47 -31.5 -76t-79.5 -29zM300 637q15 0 25 10.5t10 25.5q0 14 -10.5 24t-24.5 10q-15 0 -25 -10.5t-10 -25.5q0 -14 10.5 -24t24.5 -10z" />
    <glyph glyph-name="utilde" unicode="&#x169;" horiz-adv-x="628" 
d="M210 -10q-78 0 -121 43.5t-43 116.5v361h198v-320q0 -25 12.5 -42.5t40.5 -17.5q15 0 27 8t19 22t7 30v320h198v-363q0 -20 10 -28.5t21 -8.5q9 0 18 2.5t17 6.5v-107q-13 -10 -37.5 -16.5t-63.5 -6.5q-44 0 -73.5 9.5t-46.5 28t-27 43.5q-25 -38 -65 -59.5t-91 -21.5z
M83 581q4 52 20.5 91t45.5 60.5t67 21.5q36 0 65.5 -15t54.5 -30t48 -15q22 0 34.5 17t17.5 43h81q-3 -52 -20 -91t-45.5 -60.5t-67.5 -21.5q-36 0 -65.5 15t-54.5 30t-48 15q-22 0 -34.5 -17t-17.5 -43h-81z" />
    <glyph glyph-name="v" unicode="v" horiz-adv-x="559" 
d="M164 0l-165 511h211l75 -292h7l75 292h193l-167 -511h-229z" />
    <glyph glyph-name="w" unicode="w" horiz-adv-x="855" 
d="M149 0l-145 511h206l57 -258h7l61 258h200l60 -258h8l57 258h192l-146 -511h-224l-49 213h-8l-48 -213h-228z" />
    <glyph glyph-name="wacute" unicode="&#x1e83;" horiz-adv-x="855" 
d="M149 0l-145 511h206l57 -258h7l61 258h200l60 -258h8l57 258h192l-146 -511h-224l-49 213h-8l-48 -213h-228zM354 583l91 178h165l2 -3l-125 -175h-133z" />
    <glyph glyph-name="wcircumflex" unicode="&#x175;" horiz-adv-x="855" 
d="M149 0l-145 511h206l57 -258h7l61 258h200l60 -258h8l57 258h192l-146 -511h-224l-49 213h-8l-48 -213h-228zM213 573l139 188h148l139 -188h-140l-114 160h80l-114 -160h-138z" />
    <glyph glyph-name="wdieresis" unicode="&#x1e85;" horiz-adv-x="855" 
d="M149 0l-145 511h206l57 -258h7l61 258h200l60 -258h8l57 258h192l-146 -511h-224l-49 213h-8l-48 -213h-228zM227 602v140h144v-140h-144zM481 602v140h144v-140h-144z" />
    <glyph glyph-name="wgrave" unicode="&#x1e81;" horiz-adv-x="855" 
d="M149 0l-145 511h206l57 -258h7l61 258h200l60 -258h8l57 258h192l-146 -511h-224l-49 213h-8l-48 -213h-228zM365 583l-125 175l2 3h165l91 -178h-133z" />
    <glyph glyph-name="x" unicode="x" horiz-adv-x="585" 
d="M-7 0l170 270l-152 241h227l62 -118h4l62 118h213l-156 -246l167 -265h-227l-76 143h-4l-77 -143h-213z" />
    <glyph glyph-name="y" unicode="y" horiz-adv-x="553" 
d="M130 -187q-32 0 -57 3.5t-42 11.5v129q11 -5 32.5 -9.5t42.5 -4.5q31 0 46.5 13t22 30t9.5 29l-188 496h211l79 -265h8l67 265h195l-172 -475q-23 -63 -58.5 -113.5t-84 -80t-111.5 -29.5z" />
    <glyph glyph-name="yacute" unicode="&#xfd;" horiz-adv-x="553" 
d="M130 -187q-32 0 -57 3.5t-42 11.5v129q11 -5 32.5 -9.5t42.5 -4.5q31 0 46.5 13t22 30t9.5 29l-188 496h211l79 -265h8l67 265h195l-172 -475q-23 -63 -58.5 -113.5t-84 -80t-111.5 -29.5zM212 583l91 178h165l2 -3l-125 -175h-133z" />
    <glyph glyph-name="ycircumflex" unicode="&#x177;" horiz-adv-x="553" 
d="M130 -187q-32 0 -57 3.5t-42 11.5v129q11 -5 32.5 -9.5t42.5 -4.5q31 0 46.5 13t22 30t9.5 29l-188 496h211l79 -265h8l67 265h195l-172 -475q-23 -63 -58.5 -113.5t-84 -80t-111.5 -29.5zM71 573l139 188h148l139 -188h-140l-114 160h80l-114 -160h-138z" />
    <glyph glyph-name="ydieresis" unicode="&#xff;" horiz-adv-x="553" 
d="M130 -187q-32 0 -57 3.5t-42 11.5v129q11 -5 32.5 -9.5t42.5 -4.5q31 0 46.5 13t22 30t9.5 29l-188 496h211l79 -265h8l67 265h195l-172 -475q-23 -63 -58.5 -113.5t-84 -80t-111.5 -29.5zM85 602v140h144v-140h-144zM339 602v140h144v-140h-144z" />
    <glyph glyph-name="uni1EF5" unicode="&#x1ef5;" horiz-adv-x="553" 
d="M130 -187q-32 0 -57 3.5t-42 11.5v129q11 -5 32.5 -9.5t42.5 -4.5q31 0 46.5 13t22 30t9.5 29l-188 496h211l79 -265h8l67 265h195l-172 -475q-23 -63 -58.5 -113.5t-84 -80t-111.5 -29.5zM376 -170v140h144v-140h-144z" />
    <glyph glyph-name="ygrave" unicode="&#x1ef3;" horiz-adv-x="553" 
d="M130 -187q-32 0 -57 3.5t-42 11.5v129q11 -5 32.5 -9.5t42.5 -4.5q31 0 46.5 13t22 30t9.5 29l-188 496h211l79 -265h8l67 265h195l-172 -475q-23 -63 -58.5 -113.5t-84 -80t-111.5 -29.5zM223 583l-125 175l2 3h165l91 -178h-133z" />
    <glyph glyph-name="uni1EF7" unicode="&#x1ef7;" horiz-adv-x="553" 
d="M130 -187q-32 0 -57 3.5t-42 11.5v129q11 -5 32.5 -9.5t42.5 -4.5q31 0 46.5 13t22 30t9.5 29l-188 496h211l79 -265h8l67 265h195l-172 -475q-23 -63 -58.5 -113.5t-84 -80t-111.5 -29.5zM279 567v81q27 3 42 14.5t15 33.5q0 16 -12.5 26t-35.5 10q-14 0 -32 -2.5
t-40 -10.5v110q20 5 39.5 7t38.5 2q62 0 104 -32.5t42 -92.5q0 -42 -24 -74t-60.5 -51t-76.5 -21z" />
    <glyph glyph-name="uni0233" unicode="&#x233;" horiz-adv-x="553" 
d="M130 -187q-32 0 -57 3.5t-42 11.5v129q11 -5 32.5 -9.5t42.5 -4.5q31 0 46.5 13t22 30t9.5 29l-188 496h211l79 -265h8l67 265h195l-172 -475q-23 -63 -58.5 -113.5t-84 -80t-111.5 -29.5zM100 607v100h368v-100h-368z" />
    <glyph glyph-name="uni1EF9" unicode="&#x1ef9;" horiz-adv-x="553" 
d="M130 -187q-32 0 -57 3.5t-42 11.5v129q11 -5 32.5 -9.5t42.5 -4.5q31 0 46.5 13t22 30t9.5 29l-188 496h211l79 -265h8l67 265h195l-172 -475q-23 -63 -58.5 -113.5t-84 -80t-111.5 -29.5zM67 581q4 52 20.5 91t45.5 60.5t67 21.5q36 0 65.5 -15t54.5 -30t48 -15
q22 0 34.5 17t17.5 43h81q-3 -52 -20 -91t-45.5 -60.5t-67.5 -21.5q-36 0 -65.5 15t-54.5 30t-48 15q-22 0 -34.5 -17t-17.5 -43h-81z" />
    <glyph glyph-name="z" unicode="z" horiz-adv-x="498" 
d="M22 0v63l188 324h-177v124h433v-60l-189 -327h197v-124h-452z" />
    <glyph glyph-name="zacute" unicode="&#x17a;" horiz-adv-x="498" 
d="M22 0v63l188 324h-177v124h433v-60l-189 -327h197v-124h-452zM188 583l91 178h165l2 -3l-125 -175h-133z" />
    <glyph glyph-name="zcaron" unicode="&#x17e;" horiz-adv-x="498" 
d="M22 0v63l188 324h-177v124h433v-60l-189 -327h197v-124h-452zM473 766l-139 -188h-148l-139 188h140l114 -160h-80l114 160h138z" />
    <glyph glyph-name="zdotaccent" unicode="&#x17c;" horiz-adv-x="498" 
d="M22 0v63l188 324h-177v124h433v-60l-189 -327h197v-124h-452zM193 601v140h144v-140h-144z" />
    <glyph glyph-name="g.alt" horiz-adv-x="590" 
d="M134 -188q-33 0 -62.5 16.5t-48.5 43.5t-19 60q0 37 20.5 67t55.5 47q-22 15 -35 38t-13 49q0 38 27 67.5t65 39.5q-32 15 -54.5 42.5t-22.5 70.5q0 48 21.5 80.5t57 51.5t79 27.5t86.5 8.5q42 0 76 -5.5t51 -13.5q28 5 42 18t19 29.5t5 28.5h135q0 -61 -33 -90.5
t-83 -40.5l-1 -3q13 -16 23 -34.5t10 -48.5q0 -44 -27.5 -81t-72.5 -58.5t-100 -21.5h-69q-31 0 -44 -9t-13 -21q0 -13 11 -22t46 -9h150q83 0 128 -44t45 -112q0 -45 -24 -84t-66 -63t-97 -24h-268zM218 -74h143q21 0 35.5 12t14.5 29t-14.5 29.5t-35.5 12.5h-143
q-21 0 -35.5 -12t-14.5 -29t14.5 -29.5t35.5 -12.5zM295 297q26 0 43.5 18.5t17.5 44.5t-17.5 44.5t-43.5 18.5t-43.5 -18.5t-17.5 -44.5t17.5 -44.5t43.5 -18.5z" />
    <glyph glyph-name="cacute.loclPLK" horiz-adv-x="569" 
d="M276 -10q-67 0 -124 33t-91.5 89t-34.5 123v41q0 51 20 95t55 78t80.5 53t96.5 19h30q76 0 129 -28.5t80.5 -77.5t27.5 -111h-169q0 32 -7 53t-22 32t-40 11q-29 0 -49 -20.5t-20 -49.5v-149q0 -29 17 -49.5t54 -20.5q30 0 47 8.5t24 29.5t7 58h158q0 -69 -30 -117.5
t-84 -74t-126 -25.5h-29zM248 591l31 145h151l2 -3l-66 -142h-118z" />
    <glyph glyph-name="nacute.loclPLK" horiz-adv-x="599" 
d="M50 0v511h149l20 -74q33 44 72.5 64t96.5 20q51 0 88 -19.5t56.5 -53t19.5 -77.5v-371h-198v320q0 25 -15.5 42.5t-37.5 17.5q-14 0 -26.5 -8t-19.5 -21.5t-7 -30.5v-320h-198zM241 591l31 145h151l2 -3l-66 -142h-118z" />
    <glyph glyph-name="oacute.loclPLK" horiz-adv-x="614" 
d="M291 -10q-76 0 -136 32.5t-94.5 90t-34.5 132.5v21q0 76 34.5 133t94.5 89.5t136 32.5h32q76 0 136 -32.5t94.5 -89.5t34.5 -133v-21q0 -76 -34.5 -133.5t-94.5 -89.5t-136 -32h-32zM307 111q20 0 35.5 9.5t24.5 25.5t9 35v149q0 20 -9 35.5t-24.5 25t-35.5 9.5
q-19 0 -35 -9.5t-25 -25t-9 -35.5v-149q0 -19 9 -35t25 -25.5t35 -9.5zM252 591l31 145h151l2 -3l-66 -142h-118z" />
    <glyph glyph-name="sacute.loclPLK" horiz-adv-x="559" 
d="M243 -10q-40 0 -79.5 9.5t-71.5 29t-51 49.5t-19 71v9t1 9h163q-1 -2 -1 -3.5v-3.5q0 -19 14 -30t34 -15t38 -4q10 0 30 1.5t37.5 8t17.5 21.5q0 16 -17 24t-45.5 12.5t-62.5 9t-68 13.5t-62.5 26t-45.5 46.5t-17 75.5t21.5 79t57 53.5t76.5 30t80 9.5h31q33 0 70.5 -8
t71 -25t54.5 -43t21 -61q0 -7 -0.5 -14t-1.5 -12h-164v5q0 11 -7 19t-18 12.5t-23 6.5t-22 2q-7 0 -19.5 -0.5t-25 -3t-21 -8.5t-8.5 -17q0 -16 17.5 -23t46 -10.5t63 -7.5t68.5 -12t62.5 -25.5t46 -47.5t17.5 -78q0 -51 -20.5 -85.5t-54.5 -55.5t-76 -30t-86 -9h-52z
M221 591l31 145h151l2 -3l-66 -142h-118z" />
    <glyph glyph-name="zacute.loclPLK" horiz-adv-x="498" 
d="M22 0v63l188 324h-177v124h433v-60l-189 -327h197v-124h-452zM205 591l31 145h151l2 -3l-66 -142h-118z" />
    <glyph glyph-name="uni207F" unicode="&#x207f;" horiz-adv-x="367" 
d="M30 382v308h90l12 -45q20 27 44 39t58 12q46 0 72.5 -25.5t26.5 -64.5v-224h-115v198q0 15 -10 25.5t-27 10.5q-16 0 -26.5 -10.5t-10.5 -25.5v-198h-114z" />
    <glyph glyph-name="ordfeminine" unicode="&#xaa;" horiz-adv-x="420" 
d="M132 376q-29 0 -51.5 10t-34.5 30.5t-12 51.5q0 42 24.5 64.5t69.5 31t107 8.5v17q0 17 -11 26.5t-28 9.5q-11 0 -24.5 -7t-13.5 -21v-3h-114q-1 3 -1 5v4q0 39 39 65.5t105 26.5h20q73 0 108 -28t35 -70v-126q0 -12 6.5 -17t12.5 -5t10 1.5t11 3.5v-64q-10 -6 -24.5 -10
t-36.5 -4q-40 0 -61.5 13.5t-26.5 35.5q-16 -18 -44 -33.5t-65 -15.5zM194 449q17 0 29 11t12 31v26q-27 0 -44 -5t-25 -14t-8 -21q0 -17 11 -22.5t25 -5.5z" />
    <glyph glyph-name="ordmasculine" unicode="&#xba;" horiz-adv-x="397" 
d="M198 378q-77 0 -122.5 42t-45.5 111v13q0 71 46.5 112t121.5 41q77 0 123 -42t46 -111v-13q0 -71 -46.5 -112t-122.5 -41zM199 451q17 0 29 12t12 30v89q0 17 -12 29.5t-29 12.5t-29.5 -12.5t-12.5 -29.5v-89q0 -18 12.5 -30t29.5 -12z" />
    <glyph glyph-name="uni0394" unicode="&#x394;" horiz-adv-x="634" 
d="M25 0v93l222 593h139l223 -593v-93h-584zM169 109h296l-147 416z" />
    <glyph glyph-name="uni0394" unicode="&#x3b4;" horiz-adv-x="634" 
d="M25 0v93l222 593h139l223 -593v-93h-584zM169 109h296l-147 416z" />
    <glyph glyph-name="uni0394" unicode="&#x3b4;" horiz-adv-x="634" 
d="M25 0v93l222 593h139l223 -593v-93h-584zM169 109h296l-147 416z" />
    <glyph glyph-name="uni03A9" unicode="&#x3a9;" horiz-adv-x="766" 
d="M37 0v162h11l112 -20q-49 45 -77 96.5t-28 111.5v44q0 62 23.5 116.5t64.5 95.5t95.5 64.5t116.5 23.5h56q62 0 116.5 -23.5t95.5 -64.5t64.5 -95.5t23.5 -116.5v-44q0 -60 -28.5 -111.5t-77.5 -96.5l113 20h11v-162h-305v85q18 8 32 21t22 31.5t8 39.5v263q0 21 -7.5 39
t-21.5 32t-32 21.5t-39 7.5q-24 0 -43.5 -8t-33 -21.5t-21 -31.5t-7.5 -39v-263q0 -20 8 -38.5t21.5 -32t31.5 -21.5v-85h-305z" />
    <glyph glyph-name="uni03A9" unicode="&#x3c9;" horiz-adv-x="766" 
d="M37 0v162h11l112 -20q-49 45 -77 96.5t-28 111.5v44q0 62 23.5 116.5t64.5 95.5t95.5 64.5t116.5 23.5h56q62 0 116.5 -23.5t95.5 -64.5t64.5 -95.5t23.5 -116.5v-44q0 -60 -28.5 -111.5t-77.5 -96.5l113 20h11v-162h-305v85q18 8 32 21t22 31.5t8 39.5v263q0 21 -7.5 39
t-21.5 32t-32 21.5t-39 7.5q-24 0 -43.5 -8t-33 -21.5t-21 -31.5t-7.5 -39v-263q0 -20 8 -38.5t21.5 -32t31.5 -21.5v-85h-305z" />
    <glyph glyph-name="uni03A9" unicode="&#x3c9;" horiz-adv-x="766" 
d="M37 0v162h11l112 -20q-49 45 -77 96.5t-28 111.5v44q0 62 23.5 116.5t64.5 95.5t95.5 64.5t116.5 23.5h56q62 0 116.5 -23.5t95.5 -64.5t64.5 -95.5t23.5 -116.5v-44q0 -60 -28.5 -111.5t-77.5 -96.5l113 20h11v-162h-305v85q18 8 32 21t22 31.5t8 39.5v263q0 21 -7.5 39
t-21.5 32t-32 21.5t-39 7.5q-24 0 -43.5 -8t-33 -21.5t-21 -31.5t-7.5 -39v-263q0 -20 8 -38.5t21.5 -32t31.5 -21.5v-85h-305z" />
    <glyph glyph-name="uni03BC" unicode="&#x3bc;" horiz-adv-x="649" 
d="M56 -161v672h198v-320q0 -25 12 -42.5t41 -17.5q15 0 27 8t19 22t7 30v320h198v-363q0 -20 10 -28.5t21 -8.5q9 0 18 2.5t17 6.5v-107q-13 -10 -37.5 -16.5t-63.5 -6.5q-44 0 -73.5 9.5t-46.5 28t-27 43.5q-10 -25 -34 -50.5t-65 -25.5q-8 0 -16.5 1t-16.5 2
q5 -19 7.5 -37t2.5 -35v-87h-198z" />
    <glyph glyph-name="pi" unicode="&#x3c0;" horiz-adv-x="717" 
d="M72 0q13 39 25 88.5t21 102.5t14.5 103.5t5.5 91.5q-36 0 -64.5 -2.5t-48.5 -7.5l-16 99q20 17 71.5 26.5t138.5 9.5h491l-14 -125h-78v-221q0 -57 4.5 -98.5t9.5 -66.5h-187q-11 14 -15.5 57t-4.5 96v233h-98q-1 -35 -5.5 -77t-10.5 -86t-14 -86t-17 -77.5t-20 -59.5
h-188z" />
    <glyph glyph-name="uni2099" unicode="&#x2099;" horiz-adv-x="367" 
d="M30 -118v308h90l12 -45q20 27 44 39t58 12q46 0 72.5 -25.5t26.5 -64.5v-224h-115v198q0 15 -10 25.5t-27 10.5q-16 0 -26.5 -10.5t-10.5 -25.5v-198h-114z" />
    <glyph glyph-name="zero" unicode="0" horiz-adv-x="615" 
d="M285 -10q-69 0 -126 33.5t-90.5 90.5t-33.5 126v206q0 70 33.5 126.5t90.5 90t126 33.5h45q70 0 126.5 -33.5t90 -90t33.5 -126.5v-206q0 -69 -33.5 -126t-90 -90.5t-126.5 -33.5h-45zM307 135q22 0 38.5 11t26.5 29t10 40v257q0 22 -10 40t-26.5 29t-37.5 11t-38 -11
t-27 -29t-10 -40v-257q0 -22 10 -40t27 -29t37 -11z" />
    <glyph glyph-name="one" unicode="1" horiz-adv-x="615" 
d="M73 0v153h152v320h-152v115q45 3 96 19t99.5 40t85.5 49h67v-543h146v-153h-494z" />
    <glyph glyph-name="two" unicode="2" horiz-adv-x="615" 
d="M35 0v40q0 57 17.5 98t62.5 75l198 152q29 23 41.5 50t12.5 55q0 32 -17.5 51t-58.5 19q-23 0 -40.5 -9t-27 -25t-9.5 -36v-14v-14h-176v10v9q0 66 30 119t87 84.5t138 31.5h31q74 0 129 -28.5t85.5 -78.5t30.5 -115q0 -51 -18 -90t-52 -72.5t-83 -67.5l-82 -57
q-4 -3 -8.5 -6t-9 -6.5t-9.5 -6.5h263v-168h-535z" />
    <glyph glyph-name="three" unicode="3" horiz-adv-x="615" 
d="M264 -10q-84 0 -137.5 27t-79 72t-25.5 99v21h176q0 -43 27.5 -56.5t65.5 -13.5q44 0 69 17t25 61q0 25 -9.5 40.5t-25 23.5t-35.5 8h-104v123h88q20 0 35.5 8t25 24t9.5 40q0 20 -10 34t-28 21.5t-41 7.5q-37 0 -58 -17.5t-21 -45.5h-167v25q0 52 31 94.5t87.5 67.5
t131.5 25h30q72 0 126 -25t84 -67.5t30 -93.5q0 -33 -12 -62t-33.5 -50.5t-49.5 -34.5v-8q50 -16 82.5 -51.5t32.5 -101.5q0 -61 -34.5 -109t-97 -75.5t-146.5 -27.5h-42z" />
    <glyph glyph-name="four" unicode="4" horiz-adv-x="615" 
d="M302 0v151h-280v149q17 31 35.5 71t37.5 84t35.5 88t29 83.5t18.5 69.5h177q-5 -31 -20.5 -73t-37.5 -88.5t-47.5 -91.5t-51 -82.5t-46.5 -62.5h150v102q13 18 29 48t31.5 64t27.5 65.5t17 52.5h83v-332h98v-147h-98v-151h-188z" />
    <glyph glyph-name="five" unicode="5" horiz-adv-x="615" 
d="M305 -10q-81 0 -143 27.5t-97 80t-35 126.5h176q0 -23 11 -41.5t31 -28.5t46 -10q30 0 49.5 11t29.5 30.5t10 44.5q0 38 -23 61.5t-64 23.5q-25 0 -45.5 -10.5t-32.5 -23.5l-158 22l29 383h440v-170h-291l-8 -102q15 14 51 29.5t84 15.5q60 0 109 -22.5t77.5 -69
t28.5 -120.5q0 -73 -36 -131.5t-98 -92t-141 -33.5z" />
    <glyph glyph-name="six" unicode="6" horiz-adv-x="615" 
d="M299 -10q-72 0 -131 32.5t-94 89t-35 128.5v206q0 72 35 128.5t94 89t131 32.5h28q65 0 119.5 -26t88 -77t33.5 -127h-178q0 38 -21 59t-53 21q-22 0 -40 -10t-29 -26.5t-11 -38.5v-86q26 25 63 38.5t77 13.5q61 0 108 -22t74 -66.5t27 -113.5q0 -72 -34.5 -127.5
t-93 -86.5t-130.5 -31h-28zM314 130q28 0 45 11.5t25 33.5t8 51q0 31 -8.5 52t-26 32t-43.5 11t-43.5 -11t-26 -32t-8.5 -51q0 -31 8.5 -53t26 -33t43.5 -11z" />
    <glyph glyph-name="seven" unicode="7" horiz-adv-x="615" 
d="M129 0q0 72 19 140.5t51 133t72 125t82 115.5h-292v172h509v-91q-64 -88 -106.5 -161t-67 -140t-35 -138t-10.5 -156h-222z" />
    <glyph glyph-name="eight" unicode="8" horiz-adv-x="615" 
d="M301 -10q-78 0 -137.5 22.5t-92.5 67t-33 109.5q0 62 27.5 100.5t73.5 57.5v4q-33 26 -55.5 56t-22.5 88q0 66 34 110.5t90.5 67.5t124.5 23t123.5 -23t88 -67.5t32.5 -110.5q0 -39 -10.5 -64.5t-28 -43.5t-39.5 -36v-4q46 -19 73.5 -57.5t27.5 -100.5q0 -65 -35 -109.5
t-97 -67t-144 -22.5zM308 122q36 0 53 23.5t17 64.5t-18.5 63t-52.5 22q-35 0 -52.5 -23t-17.5 -63q0 -43 18.5 -65t52.5 -22zM308 403q33 0 51.5 22.5t18.5 59.5q0 39 -19.5 60t-51.5 21q-33 0 -51.5 -21.5t-18.5 -59.5q0 -40 19.5 -61t51.5 -21z" />
    <glyph glyph-name="nine" unicode="9" horiz-adv-x="615" 
d="M303 -10q-79 0 -136.5 27.5t-88.5 79t-31 123.5h178q0 -35 20 -57.5t54 -22.5q22 0 40 10t29 27t11 38v86q-26 -28 -61.5 -40t-63.5 -12q-62 0 -113 23t-81 69.5t-30 114.5q0 74 35 128t96.5 83t140.5 29q80 0 142 -32t97 -88t35 -130v-206q0 -74 -35.5 -130.5t-97 -88
t-140.5 -31.5zM301 365q28 0 45 11.5t25 33.5t8 51q0 31 -8.5 52t-26 32t-43.5 11q-27 0 -44.5 -11.5t-25.5 -33t-8 -51.5q0 -29 8 -50.5t25.5 -33t44.5 -11.5z" />
    <glyph glyph-name="zero.zero" horiz-adv-x="615" 
d="M134 144l280 440h92l-280 -440h-92zM285 -10q-69 0 -126 33.5t-90.5 90.5t-33.5 126v206q0 70 33.5 126.5t90.5 90t126 33.5h45q70 0 126.5 -33.5t90 -90t33.5 -126.5v-206q0 -69 -33.5 -126t-90 -90.5t-126.5 -33.5h-45zM307 135q22 0 38.5 11t26.5 29t10 40v257
q0 22 -10 40t-26.5 29t-37.5 11t-38 -11t-27 -29t-10 -40v-257q0 -22 10 -40t27 -29t37 -11z" />
    <glyph glyph-name="zero.lf" horiz-adv-x="615" 
d="M285 -10q-69 0 -126 33.5t-90.5 90.5t-33.5 126v206q0 70 33.5 126.5t90.5 90t126 33.5h45q70 0 126.5 -33.5t90 -90t33.5 -126.5v-206q0 -69 -33.5 -126t-90 -90.5t-126.5 -33.5h-45zM307 135q22 0 38.5 11t26.5 29t10 40v257q0 22 -10 40t-26.5 29t-37.5 11t-38 -11
t-27 -29t-10 -40v-257q0 -22 10 -40t27 -29t37 -11z" />
    <glyph glyph-name="one.lf" horiz-adv-x="615" 
d="M73 0v153h152v320h-152v115q45 3 96 19t99.5 40t85.5 49h67v-543h146v-153h-494z" />
    <glyph glyph-name="two.lf" horiz-adv-x="615" 
d="M35 0v40q0 57 17.5 98t62.5 75l198 152q29 23 41.5 50t12.5 55q0 32 -17.5 51t-58.5 19q-23 0 -40.5 -9t-27 -25t-9.5 -36v-14v-14h-176v10v9q0 66 30 119t87 84.5t138 31.5h31q74 0 129 -28.5t85.5 -78.5t30.5 -115q0 -51 -18 -90t-52 -72.5t-83 -67.5l-82 -57
q-4 -3 -8.5 -6t-9 -6.5t-9.5 -6.5h263v-168h-535z" />
    <glyph glyph-name="three.lf" horiz-adv-x="615" 
d="M264 -10q-84 0 -137.5 27t-79 72t-25.5 99v21h176q0 -43 27.5 -56.5t65.5 -13.5q44 0 69 17t25 61q0 25 -9.5 40.5t-25 23.5t-35.5 8h-104v123h88q20 0 35.5 8t25 24t9.5 40q0 20 -10 34t-28 21.5t-41 7.5q-37 0 -58 -17.5t-21 -45.5h-167v25q0 52 31 94.5t87.5 67.5
t131.5 25h30q72 0 126 -25t84 -67.5t30 -93.5q0 -33 -12 -62t-33.5 -50.5t-49.5 -34.5v-8q50 -16 82.5 -51.5t32.5 -101.5q0 -61 -34.5 -109t-97 -75.5t-146.5 -27.5h-42z" />
    <glyph glyph-name="four.lf" horiz-adv-x="615" 
d="M302 0v151h-280v149q17 31 35.5 71t37.5 84t35.5 88t29 83.5t18.5 69.5h177q-5 -31 -20.5 -73t-37.5 -88.5t-47.5 -91.5t-51 -82.5t-46.5 -62.5h150v102q13 18 29 48t31.5 64t27.5 65.5t17 52.5h83v-332h98v-147h-98v-151h-188z" />
    <glyph glyph-name="five.lf" horiz-adv-x="615" 
d="M305 -10q-81 0 -143 27.5t-97 80t-35 126.5h176q0 -23 11 -41.5t31 -28.5t46 -10q30 0 49.5 11t29.5 30.5t10 44.5q0 38 -23 61.5t-64 23.5q-25 0 -45.5 -10.5t-32.5 -23.5l-158 22l29 383h440v-170h-291l-8 -102q15 14 51 29.5t84 15.5q60 0 109 -22.5t77.5 -69
t28.5 -120.5q0 -73 -36 -131.5t-98 -92t-141 -33.5z" />
    <glyph glyph-name="six.lf" horiz-adv-x="615" 
d="M299 -10q-72 0 -131 32.5t-94 89t-35 128.5v206q0 72 35 128.5t94 89t131 32.5h28q65 0 119.5 -26t88 -77t33.5 -127h-178q0 38 -21 59t-53 21q-22 0 -40 -10t-29 -26.5t-11 -38.5v-86q26 25 63 38.5t77 13.5q61 0 108 -22t74 -66.5t27 -113.5q0 -72 -34.5 -127.5
t-93 -86.5t-130.5 -31h-28zM314 130q28 0 45 11.5t25 33.5t8 51q0 31 -8.5 52t-26 32t-43.5 11t-43.5 -11t-26 -32t-8.5 -51q0 -31 8.5 -53t26 -33t43.5 -11z" />
    <glyph glyph-name="seven.lf" horiz-adv-x="615" 
d="M129 0q0 72 19 140.5t51 133t72 125t82 115.5h-292v172h509v-91q-64 -88 -106.5 -161t-67 -140t-35 -138t-10.5 -156h-222z" />
    <glyph glyph-name="eight.lf" horiz-adv-x="615" 
d="M301 -10q-78 0 -137.5 22.5t-92.5 67t-33 109.5q0 62 27.5 100.5t73.5 57.5v4q-33 26 -55.5 56t-22.5 88q0 66 34 110.5t90.5 67.5t124.5 23t123.5 -23t88 -67.5t32.5 -110.5q0 -39 -10.5 -64.5t-28 -43.5t-39.5 -36v-4q46 -19 73.5 -57.5t27.5 -100.5q0 -65 -35 -109.5
t-97 -67t-144 -22.5zM308 122q36 0 53 23.5t17 64.5t-18.5 63t-52.5 22q-35 0 -52.5 -23t-17.5 -63q0 -43 18.5 -65t52.5 -22zM308 403q33 0 51.5 22.5t18.5 59.5q0 39 -19.5 60t-51.5 21q-33 0 -51.5 -21.5t-18.5 -59.5q0 -40 19.5 -61t51.5 -21z" />
    <glyph glyph-name="nine.lf" horiz-adv-x="615" 
d="M303 -10q-79 0 -136.5 27.5t-88.5 79t-31 123.5h178q0 -35 20 -57.5t54 -22.5q22 0 40 10t29 27t11 38v86q-26 -28 -61.5 -40t-63.5 -12q-62 0 -113 23t-81 69.5t-30 114.5q0 74 35 128t96.5 83t140.5 29q80 0 142 -32t97 -88t35 -130v-206q0 -74 -35.5 -130.5t-97 -88
t-140.5 -31.5zM301 365q28 0 45 11.5t25 33.5t8 51q0 31 -8.5 52t-26 32t-43.5 11q-27 0 -44.5 -11.5t-25.5 -33t-8 -51.5q0 -29 8 -50.5t25.5 -33t44.5 -11.5z" />
    <glyph glyph-name="zero.osf" horiz-adv-x="615" 
d="M285 -10q-69 0 -126 33.5t-90.5 90.5t-33.5 126v71q0 70 33.5 126.5t90.5 90t126 33.5h45q70 0 126.5 -33.5t90 -90t33.5 -126.5v-71q0 -69 -33.5 -126t-90 -90.5t-126.5 -33.5h-45zM307 135q22 0 38.5 11t26.5 29t10 40v122q0 22 -10 40t-26.5 29t-37.5 11t-38 -11
t-27 -29t-10 -40v-122q0 -22 10 -40t27 -29t37 -11z" />
    <glyph glyph-name="one.osf" horiz-adv-x="595" 
d="M68 0v141h157v199h-157v113q45 3 92 19t92 40t82 49h67v-420h151v-141h-484z" />
    <glyph glyph-name="two.osf" horiz-adv-x="624" 
d="M49 0v79q0 59 27 97.5t68.5 64t87.5 42t84 29.5q18 7 32.5 12.5t23.5 15.5t9 29q0 23 -19 34.5t-60 11.5q-40 0 -62.5 -16t-22.5 -43v-9t1 -10h-166v10v9q0 63 29.5 109t85.5 71t135 25h31q111 0 175.5 -48.5t64.5 -128.5q0 -52 -19.5 -86t-50 -55t-65 -34t-64.5 -24
q-16 -5 -36.5 -12t-38 -14.5t-24.5 -15.5h299v-143h-525z" />
    <glyph glyph-name="three.osf" horiz-adv-x="621" 
d="M300 -10q-79 0 -141 17t-98 57.5t-36 108.5v21h166q0 -29 14 -44.5t37.5 -20.5t51.5 -5q52 0 79 16.5t27 44.5q0 22 -18 29.5t-54 7.5h-94v113h78q35 0 53 9.5t18 32.5q0 24 -23 37t-67 13q-27 0 -47 -7t-31 -21t-11 -35h-157v20q0 62 38 101t101 57.5t136 18.5
q90 0 144 -21.5t77.5 -55t23.5 -69.5q0 -46 -27 -75.5t-78 -43.5v-8q51 -7 88 -36.5t37 -91.5q0 -39 -27.5 -78t-90 -65.5t-169.5 -26.5z" />
    <glyph glyph-name="four.osf" horiz-adv-x="610" 
d="M317 0v78h-287v142q38 50 69.5 109t54 118.5t32.5 108.5h177q-6 -39 -25.5 -85t-48 -93t-62 -88.5t-67.5 -71.5h157v72q18 24 38 58t37 69t23 63h83v-262h88v-140h-88v-78h-181z" />
    <glyph glyph-name="five.osf" horiz-adv-x="604" 
d="M300 -10q-74 0 -135.5 19t-98 59.5t-36.5 102.5h176q0 -25 28 -33.5t61 -8.5q24 0 44 6t32.5 18.5t12.5 31.5q0 32 -25.5 45t-59.5 13q-24 0 -45.5 -6t-35.5 -18l-158 22l29 306h432v-137h-293l-8 -67q22 11 53 20.5t79 9.5q72 0 120.5 -24t73 -64.5t24.5 -88.5
q0 -58 -29 -105t-89 -74t-152 -27z" />
    <glyph glyph-name="six.osf" horiz-adv-x="614" 
d="M298 -10q-72 0 -129.5 22t-91.5 70t-34 125v124q0 72 34 123.5t91.5 79t129.5 27.5h28q65 0 118.5 -17.5t85.5 -57.5t32 -108h-168q0 18 -10 28.5t-27.5 15t-41.5 4.5q-37 0 -61 -16t-24 -54v-51q29 26 64.5 34t65.5 8q79 0 127 -21.5t70.5 -59t22.5 -84.5
q0 -52 -27 -95.5t-83 -70t-144 -26.5h-28zM313 120q44 0 65 16.5t21 44.5t-21 44t-65 16q-27 0 -46 -7t-29 -20.5t-10 -31.5q0 -23 10 -37t29 -19.5t46 -5.5z" />
    <glyph glyph-name="seven.osf" horiz-adv-x="518" 
d="M95 0q0 45 15.5 98.5t42 107t61 100t73.5 79.5h-255v162h479v-91q-80 -87 -124.5 -161.5t-62 -145.5t-17.5 -149h-212z" />
    <glyph glyph-name="eight.osf" horiz-adv-x="600" 
d="M299 -10q-93 0 -151.5 23t-85.5 60.5t-27 79.5q0 50 25 81.5t76 45.5v4q-43 24 -60.5 51t-17.5 67q0 45 28.5 81t82.5 57t130 21q78 0 132 -20.5t82 -55.5t28 -80q0 -40 -17 -67.5t-61 -53.5v-4q52 -14 77 -45.5t25 -80.5q0 -42 -27.5 -79.5t-86 -61t-152.5 -23.5z
M300 112q43 0 60 17.5t17 45.5t-17 43.5t-61 15.5q-42 0 -59 -15t-17 -44q0 -28 17 -45.5t60 -17.5zM300 330q42 0 59 14t17 40t-17 41.5t-60 15.5q-42 0 -59 -15.5t-17 -41.5t17 -40t60 -14z" />
    <glyph glyph-name="nine.osf" horiz-adv-x="614" 
d="M288 -10q-64 0 -118 17.5t-86 58t-32 107.5h168q0 -18 10 -28.5t28 -15t41 -4.5q37 0 61 14t24 51v51q-29 -25 -67 -33.5t-68 -8.5q-78 0 -125.5 22t-68.5 60.5t-21 87.5q0 52 27 95.5t83.5 70t143.5 26.5h28q72 0 129.5 -22t91.5 -70t34 -125v-124q0 -72 -34 -123.5
t-91.5 -79t-129.5 -27.5h-28zM301 305q28 0 46.5 7.5t28.5 20.5t10 31q0 24 -10 37.5t-28.5 19t-46.5 5.5q-29 0 -48.5 -7.5t-28.5 -21t-9 -32.5q0 -28 21 -44t65 -16z" />
    <glyph glyph-name="zero.tosf" horiz-adv-x="600" 
d="M285 -10q-69 0 -126 33.5t-90.5 90.5t-33.5 126v71q0 70 33.5 126.5t90.5 90t126 33.5h45q70 0 126.5 -33.5t90 -90t33.5 -126.5v-71q0 -69 -33.5 -126t-90 -90.5t-126.5 -33.5h-45zM307 135q22 0 38.5 11t26.5 29t10 40v122q0 22 -10 40t-26.5 29t-37.5 11t-38 -11
t-27 -29t-10 -40v-122q0 -22 10 -40t27 -29t37 -11z" />
    <glyph glyph-name="one.tosf" horiz-adv-x="595" 
d="M68 0v141h157v199h-157v113q45 3 92 19t92 40t82 49h67v-420h151v-141h-484z" />
    <glyph glyph-name="two.tosf" horiz-adv-x="600" 
d="M49 0v79q0 59 27 97.5t68.5 64t87.5 42t84 29.5q18 7 32.5 12.5t23.5 15.5t9 29q0 23 -19 34.5t-60 11.5q-40 0 -62.5 -16t-22.5 -43v-9t1 -10h-166v10v9q0 63 29.5 109t85.5 71t135 25h31q111 0 175.5 -48.5t64.5 -128.5q0 -52 -19.5 -86t-50 -55t-65 -34t-64.5 -24
q-16 -5 -36.5 -12t-38 -14.5t-24.5 -15.5h299v-143h-525z" />
    <glyph glyph-name="three.tosf" horiz-adv-x="600" 
d="M300 -10q-79 0 -141 17t-98 57.5t-36 108.5v21h166q0 -29 14 -44.5t37.5 -20.5t51.5 -5q52 0 79 16.5t27 44.5q0 22 -18 29.5t-54 7.5h-94v113h78q35 0 53 9.5t18 32.5q0 24 -23 37t-67 13q-27 0 -47 -7t-31 -21t-11 -35h-157v20q0 62 38 101t101 57.5t136 18.5
q90 0 144 -21.5t77.5 -55t23.5 -69.5q0 -46 -27 -75.5t-78 -43.5v-8q51 -7 88 -36.5t37 -91.5q0 -39 -27.5 -78t-90 -65.5t-169.5 -26.5z" />
    <glyph glyph-name="four.tosf" horiz-adv-x="610" 
d="M317 0v78h-287v142q38 50 69.5 109t54 118.5t32.5 108.5h177q-6 -39 -25.5 -85t-48 -93t-62 -88.5t-67.5 -71.5h157v72q18 24 38 58t37 69t23 63h83v-262h88v-140h-88v-78h-181z" />
    <glyph glyph-name="five.tosf" horiz-adv-x="604" 
d="M300 -10q-74 0 -135.5 19t-98 59.5t-36.5 102.5h176q0 -25 28 -33.5t61 -8.5q24 0 44 6t32.5 18.5t12.5 31.5q0 32 -25.5 45t-59.5 13q-24 0 -45.5 -6t-35.5 -18l-158 22l29 306h432v-137h-293l-8 -67q22 11 53 20.5t79 9.5q72 0 120.5 -24t73 -64.5t24.5 -88.5
q0 -58 -29 -105t-89 -74t-152 -27z" />
    <glyph glyph-name="six.tosf" horiz-adv-x="600" 
d="M298 -10q-72 0 -129.5 22t-91.5 70t-34 125v124q0 72 34 123.5t91.5 79t129.5 27.5h28q65 0 118.5 -17.5t85.5 -57.5t32 -108h-168q0 18 -10 28.5t-27.5 15t-41.5 4.5q-37 0 -61 -16t-24 -54v-51q29 26 64.5 34t65.5 8q79 0 127 -21.5t70.5 -59t22.5 -84.5
q0 -52 -27 -95.5t-83 -70t-144 -26.5h-28zM313 120q44 0 65 16.5t21 44.5t-21 44t-65 16q-27 0 -46 -7t-29 -20.5t-10 -31.5q0 -23 10 -37t29 -19.5t46 -5.5z" />
    <glyph glyph-name="seven.tosf" horiz-adv-x="600" 
d="M126 0q0 45 15.5 98.5t42 107t61 100t73.5 79.5h-255v162h479v-91q-80 -87 -124.5 -161.5t-62 -145.5t-17.5 -149h-212z" />
    <glyph glyph-name="eight.tosf" horiz-adv-x="600" 
d="M299 -10q-93 0 -151.5 23t-85.5 60.5t-27 79.5q0 50 25 81.5t76 45.5v4q-43 24 -60.5 51t-17.5 67q0 45 28.5 81t82.5 57t130 21q78 0 132 -20.5t82 -55.5t28 -80q0 -40 -17 -67.5t-61 -53.5v-4q52 -14 77 -45.5t25 -80.5q0 -42 -27.5 -79.5t-86 -61t-152.5 -23.5z
M300 112q43 0 60 17.5t17 45.5t-17 43.5t-61 15.5q-42 0 -59 -15t-17 -44q0 -28 17 -45.5t60 -17.5zM300 330q42 0 59 14t17 40t-17 41.5t-60 15.5q-42 0 -59 -15.5t-17 -41.5t17 -40t60 -14z" />
    <glyph glyph-name="nine.tosf" horiz-adv-x="600" 
d="M288 -10q-64 0 -118 17.5t-86 58t-32 107.5h168q0 -18 10 -28.5t28 -15t41 -4.5q37 0 61 14t24 51v51q-29 -25 -67 -33.5t-68 -8.5q-78 0 -125.5 22t-68.5 60.5t-21 87.5q0 52 27 95.5t83.5 70t143.5 26.5h28q72 0 129.5 -22t91.5 -70t34 -125v-124q0 -72 -34 -123.5
t-91.5 -79t-129.5 -27.5h-28zM301 305q28 0 46.5 7.5t28.5 20.5t10 31q0 24 -10 37.5t-28.5 19t-46.5 5.5q-29 0 -48.5 -7.5t-28.5 -21t-9 -32.5q0 -28 21 -44t65 -16z" />
    <glyph glyph-name="zero.lf.zero" horiz-adv-x="615" 
d="M134 144l280 440h92l-280 -440h-92zM285 -10q-69 0 -126 33.5t-90.5 90.5t-33.5 126v206q0 70 33.5 126.5t90.5 90t126 33.5h45q70 0 126.5 -33.5t90 -90t33.5 -126.5v-206q0 -69 -33.5 -126t-90 -90.5t-126.5 -33.5h-45zM307 135q22 0 38.5 11t26.5 29t10 40v257
q0 22 -10 40t-26.5 29t-37.5 11t-38 -11t-27 -29t-10 -40v-257q0 -22 10 -40t27 -29t37 -11z" />
    <glyph glyph-name="zero.osf.zero" horiz-adv-x="615" 
d="M235 101l-38 86l170 262l37 -85zM285 -10q-69 0 -126 33.5t-90.5 90.5t-33.5 126v71q0 70 33.5 126.5t90.5 90t126 33.5h45q70 0 126.5 -33.5t90 -90t33.5 -126.5v-71q0 -69 -33.5 -126t-90 -90.5t-126.5 -33.5h-45zM307 135q22 0 38.5 11t26.5 29t10 40v122q0 22 -10 40
t-26.5 29t-37.5 11t-38 -11t-27 -29t-10 -40v-122q0 -22 10 -40t27 -29t37 -11z" />
    <glyph glyph-name="zero.tosf.zero" horiz-adv-x="600" 
d="M157 110l208 328h92l-208 -328h-92zM285 -10q-69 0 -126 33.5t-90.5 90.5t-33.5 126v71q0 70 33.5 126.5t90.5 90t126 33.5h45q70 0 126.5 -33.5t90 -90t33.5 -126.5v-71q0 -69 -33.5 -126t-90 -90.5t-126.5 -33.5h-45zM307 135q22 0 38.5 11t26.5 29t10 40v122
q0 22 -10 40t-26.5 29t-37.5 11t-38 -11t-27 -29t-10 -40v-122q0 -22 10 -40t27 -29t37 -11z" />
    <glyph glyph-name="zero.dnom" horiz-adv-x="379" 
d="M178 -3q-39 0 -69 18t-47 47t-17 63v132q0 34 17 63t47 47t69 18h22q39 0 69.5 -18t47.5 -47t17 -63v-132q0 -34 -17 -63t-47.5 -47t-69.5 -18h-22zM189 69q16 0 26 6t15.5 16.5t5.5 21.5v157q0 12 -5.5 22t-15.5 16t-26 6q-15 0 -25.5 -6t-16 -16t-5.5 -22v-157
q0 -11 5.5 -21.5t16 -16.5t25.5 -6z" />
    <glyph glyph-name="one.dnom" horiz-adv-x="339" 
d="M41 0v82h82v172h-82v62q36 2 78.5 20.5t72.5 37.5h36v-292h78v-82h-265z" />
    <glyph glyph-name="two.dnom" horiz-adv-x="370" 
d="M39 0v19q0 31 10 55t33 43l106 87q15 12 22 26.5t7 30.5q0 17 -11 27t-33 10q-16 0 -27 -10.5t-11 -26.5v-7.5v-7.5h-95v5v5q0 52 39.5 89t105.5 37q68 0 104.5 -30.5t36.5 -86.5q0 -35 -14.5 -62.5t-41.5 -48.5l-62 -47q-6 -4 -11.5 -8t-11.5 -9h141v-90h-287z" />
    <glyph glyph-name="three.dnom" horiz-adv-x="355" 
d="M170 -3q-83 0 -115.5 28t-32.5 79v11h95v-3q0 -14 13 -24.5t35 -10.5t37 11t15 33q0 23 -11 32t-27 9h-55v66h47q16 0 26.5 9t10.5 32q0 17 -11 26.5t-31 9.5q-17 0 -29.5 -10t-12.5 -21v-3h-90v13q0 42 39 71.5t103 29.5q66 0 101.5 -27.5t35.5 -72.5q0 -29 -14 -52
t-37 -33q26 -9 44 -28t18 -54q0 -52 -41 -86.5t-113 -34.5z" />
    <glyph glyph-name="four.dnom" horiz-adv-x="358" 
d="M173 0v81h-151v81q10 18 23 46t25 59t22 59.5t14 48.5h95q-3 -21 -15 -50.5t-28.5 -60.5t-34 -58.5t-31.5 -44.5h81v55q9 13 20.5 36.5t21.5 47.5t14 39h45v-178h53v-80h-53v-81h-101z" />
    <glyph glyph-name="five.dnom" horiz-adv-x="358" 
d="M169 -3q-37 0 -71 13.5t-55 41.5t-21 69h97q0 -22 14.5 -33t33.5 -11t35.5 12t16.5 37q0 24 -15 36.5t-35 12.5q-12 0 -23.5 -4.5t-20.5 -13.5l-87 12l17 210h241v-93h-159l-5 -55q17 12 37.5 18t42.5 6q47 0 81 -31t34 -90q0 -46 -23 -76t-59.5 -45.5t-75.5 -15.5z" />
    <glyph glyph-name="six.dnom" horiz-adv-x="357" 
d="M167 -3q-40 0 -72.5 18t-52.5 48.5t-20 70.5v114q0 40 20 70.5t52.5 48.5t72.5 18h18q35 0 65 -14t48.5 -42t18.5 -70h-98q0 21 -11.5 33.5t-31.5 12.5q-18 0 -31 -12t-13 -30v-45q14 14 34 19.5t35 5.5q42 0 70 -16.5t41.5 -42.5t13.5 -55q0 -32 -16 -62.5t-48 -50
t-79 -19.5h-16zM175 77q22 0 33 15.5t11 33.5q0 19 -11 34.5t-33 15.5t-33 -15.5t-11 -34.5q0 -18 11 -33.5t33 -15.5z" />
    <glyph glyph-name="seven.dnom" horiz-adv-x="345" 
d="M77 0q0 51 17 98.5t44 91t57 82.5h-154v93h272v-49q-45 -62 -70.5 -111t-36 -97t-10.5 -108h-119z" />
    <glyph glyph-name="eight.dnom" horiz-adv-x="359" 
d="M179 -3q-64 0 -106 28t-42 81q0 34 15.5 55.5t40.5 31.5q-18 11 -30.5 32t-12.5 50q0 53 40 81.5t95 28.5q56 0 96 -28.5t40 -81.5q0 -28 -10.5 -47t-32.5 -35q26 -10 41 -31.5t15 -55.5q0 -53 -40.5 -81t-108.5 -28zM179 74q20 0 31.5 10.5t11.5 32.5q0 23 -12 33
t-31 10t-31 -10.5t-12 -32.5q0 -24 12 -33.5t31 -9.5zM179 228q19 0 31 10.5t12 30.5q0 21 -13 30.5t-30 9.5q-19 0 -31 -10t-12 -30q0 -22 12.5 -31.5t30.5 -9.5z" />
    <glyph glyph-name="nine.dnom" horiz-adv-x="357" 
d="M172 -3q-35 0 -65 14t-48.5 42.5t-18.5 69.5h98q0 -21 12 -33.5t31 -12.5q18 0 31 12t13 30v45q-14 -13 -34 -19t-35 -6q-42 0 -69.5 16.5t-41.5 42.5t-14 55q0 32 16 62.5t48 50t79 19.5h16q40 0 72.5 -18t52.5 -48.5t20 -70.5v-114q0 -40 -20 -70.5t-52.5 -48.5
t-72.5 -18h-18zM182 206q22 0 33 15.5t11 34.5q0 18 -11 33.5t-33 15.5t-33 -15.5t-11 -33.5q0 -19 11 -34.5t33 -15.5z" />
    <glyph glyph-name="zero.numr" horiz-adv-x="379" 
d="M178 308q-39 0 -69 18t-47 47t-17 63v132q0 34 17 63t47 47t69 18h22q39 0 69.5 -18t47.5 -47t17 -63v-132q0 -34 -17 -63t-47.5 -47t-69.5 -18h-22zM189 380q16 0 26 6t15.5 16.5t5.5 21.5v157q0 12 -5.5 22t-15.5 16t-26 6q-15 0 -25.5 -6t-16 -16t-5.5 -22v-157
q0 -11 5.5 -21.5t16 -16.5t25.5 -6z" />
    <glyph glyph-name="one.numr" horiz-adv-x="339" 
d="M41 312v82h82v172h-82v62q36 2 78.5 20.5t72.5 37.5h36v-292h78v-82h-265z" />
    <glyph glyph-name="two.numr" horiz-adv-x="370" 
d="M39 312v19q0 31 10 55t33 43l106 87q15 12 22 26.5t7 30.5q0 17 -11 27t-33 10q-16 0 -27 -10.5t-11 -26.5v-7.5v-7.5h-95v5v5q0 52 39.5 89t105.5 37q68 0 104.5 -30.5t36.5 -86.5q0 -35 -14.5 -62.5t-41.5 -48.5l-62 -47q-6 -4 -11.5 -8t-11.5 -9h141v-90h-287z" />
    <glyph glyph-name="three.numr" horiz-adv-x="355" 
d="M170 308q-83 0 -115.5 28t-32.5 79v11h95v-3q0 -14 13 -24.5t35 -10.5t37 11t15 33q0 23 -11 32t-27 9h-55v66h47q16 0 26.5 9t10.5 32q0 17 -11 26.5t-31 9.5q-17 0 -29.5 -10t-12.5 -21v-3h-90v13q0 42 39 71.5t103 29.5q66 0 101.5 -27.5t35.5 -72.5q0 -29 -14 -52
t-37 -33q26 -9 44 -28t18 -54q0 -52 -41 -86.5t-113 -34.5z" />
    <glyph glyph-name="four.numr" horiz-adv-x="358" 
d="M173 312v81h-151v81q10 18 23 46t25 59t22 59.5t14 48.5h95q-3 -21 -15 -50.5t-28.5 -60.5t-34 -58.5t-31.5 -44.5h81v55q9 13 20.5 36.5t21.5 47.5t14 39h45v-178h53v-80h-53v-81h-101z" />
    <glyph glyph-name="five.numr" horiz-adv-x="358" 
d="M169 308q-37 0 -71 13.5t-55 41.5t-21 69h97q0 -22 14.5 -33t33.5 -11t35.5 12t16.5 37q0 24 -15 36.5t-35 12.5q-12 0 -23.5 -4.5t-20.5 -13.5l-87 12l17 210h241v-93h-159l-5 -55q17 12 37.5 18t42.5 6q47 0 81 -31t34 -90q0 -46 -23 -76t-59.5 -45.5t-75.5 -15.5z" />
    <glyph glyph-name="six.numr" horiz-adv-x="357" 
d="M167 308q-40 0 -72.5 18t-52.5 48.5t-20 70.5v114q0 40 20 70.5t52.5 48.5t72.5 18h18q35 0 65 -14t48.5 -42t18.5 -70h-98q0 21 -11.5 33.5t-31.5 12.5q-18 0 -31 -12t-13 -30v-45q14 14 34 19.5t35 5.5q42 0 70 -16.5t41.5 -42.5t13.5 -55q0 -32 -16 -62.5t-48 -50
t-79 -19.5h-16zM175 388q22 0 33 15.5t11 33.5q0 19 -11 34.5t-33 15.5t-33 -15.5t-11 -34.5q0 -18 11 -33.5t33 -15.5z" />
    <glyph glyph-name="seven.numr" horiz-adv-x="345" 
d="M77 312q0 51 17 98.5t44 91t57 82.5h-154v93h272v-49q-45 -62 -70.5 -111t-36 -97t-10.5 -108h-119z" />
    <glyph glyph-name="eight.numr" horiz-adv-x="359" 
d="M179 309q-64 0 -106 28t-42 81q0 34 15.5 55.5t40.5 31.5q-18 11 -30.5 32t-12.5 50q0 53 40 81.5t95 28.5q56 0 96 -28.5t40 -81.5q0 -28 -10.5 -47t-32.5 -35q26 -10 41 -31.5t15 -55.5q0 -53 -40.5 -81t-108.5 -28zM179 386q20 0 31.5 10.5t11.5 32.5q0 23 -12 33
t-31 10t-31 -10.5t-12 -32.5q0 -24 12 -33.5t31 -9.5zM179 540q19 0 31 10.5t12 30.5q0 21 -13 30.5t-30 9.5q-19 0 -31 -10t-12 -30q0 -22 12.5 -31.5t30.5 -9.5z" />
    <glyph glyph-name="nine.numr" horiz-adv-x="357" 
d="M172 309q-35 0 -65 14t-48.5 42.5t-18.5 69.5h98q0 -21 12 -33.5t31 -12.5q18 0 31 12t13 30v45q-14 -13 -34 -19t-35 -6q-42 0 -69.5 16.5t-41.5 42.5t-14 55q0 32 16 62.5t48 50t79 19.5h16q40 0 72.5 -18t52.5 -48.5t20 -70.5v-114q0 -40 -20 -70.5t-52.5 -48.5
t-72.5 -18h-18zM182 518q22 0 33 15.5t11 34.5q0 18 -11 33.5t-33 15.5t-33 -15.5t-11 -33.5q0 -19 11 -34.5t33 -15.5z" />
    <glyph glyph-name="fraction" unicode="&#x2044;" horiz-adv-x="186" 
d="M-160 0l420 686h86l-417 -686h-89z" />
    <glyph glyph-name="onehalf" unicode="&#xbd;" horiz-adv-x="895" 
d="M41 312v82h82v172h-82v62q36 2 78.5 20.5t72.5 37.5h36v-292h78v-82h-265zM179 0l420 686h86l-417 -686h-89zM564 0v19q0 31 10 55t33 43l106 87q15 12 22 26.5t7 30.5q0 17 -11 27t-33 10q-16 0 -27 -10.5t-11 -26.5v-7.5v-7.5h-95v5v5q0 52 39.5 89t105.5 37
q68 0 104.5 -30.5t36.5 -86.5q0 -35 -14.5 -62.5t-41.5 -48.5l-62 -47q-6 -4 -11.5 -8t-11.5 -9h141v-90h-287z" />
    <glyph glyph-name="onequarter" unicode="&#xbc;" horiz-adv-x="883" 
d="M41 312v82h82v172h-82v62q36 2 78.5 20.5t72.5 37.5h36v-292h78v-82h-265zM179 0l420 686h86l-417 -686h-89zM698 0v81h-151v81q10 18 23 46t25 59t22 59.5t14 48.5h95q-3 -21 -15 -50.5t-28.5 -60.5t-34 -58.5t-31.5 -44.5h81v55q9 13 20.5 36.5t21.5 47.5t14 39h45
v-178h53v-80h-53v-81h-101z" />
    <glyph glyph-name="threequarters" unicode="&#xbe;" horiz-adv-x="899" 
d="M170 308q-83 0 -115.5 28t-32.5 79v11h95v-3q0 -14 13 -24.5t35 -10.5t37 11t15 33q0 23 -11 32t-27 9h-55v66h47q16 0 26.5 9t10.5 32q0 17 -11 26.5t-31 9.5q-17 0 -29.5 -10t-12.5 -21v-3h-90v13q0 42 39 71.5t103 29.5q66 0 101.5 -27.5t35.5 -72.5q0 -29 -14 -52
t-37 -33q26 -9 44 -28t18 -54q0 -52 -41 -86.5t-113 -34.5zM195 0l420 686h86l-417 -686h-89zM714 0v81h-151v81q10 18 23 46t25 59t22 59.5t14 48.5h95q-3 -21 -15 -50.5t-28.5 -60.5t-34 -58.5t-31.5 -44.5h81v55q9 13 20.5 36.5t21.5 47.5t14 39h45v-178h53v-80h-53v-81
h-101z" />
    <glyph glyph-name="uni2080" unicode="&#x2080;" horiz-adv-x="379" 
d="M178 -187q-39 0 -69 18t-47 47t-17 63v132q0 34 17 63t47 47t69 18h22q39 0 69.5 -18t47.5 -47t17 -63v-132q0 -34 -17 -63t-47.5 -47t-69.5 -18h-22zM189 -115q16 0 26 6t15.5 16.5t5.5 21.5v157q0 12 -5.5 22t-15.5 16t-26 6q-15 0 -25.5 -6t-16 -16t-5.5 -22v-157
q0 -11 5.5 -21.5t16 -16.5t25.5 -6z" />
    </font>
</defs>
</svg>
