<?xml version="1.0" standalone="no"?>
<!DOCTYPE svg PUBLIC "-//W3C//DTD SVG 1.1//EN" "http://www.w3.org/Graphics/SVG/1.1/DTD/svg11.dtd" >
<svg xmlns="http://www.w3.org/2000/svg" xmlns:xlink="http://www.w3.org/1999/xlink" version="1.1">
<metadata>
Created by FontForge 20230101 at Thu Jul 22 12:03:27 2021
 By Glenn Lewis
Copyright 2011 The Comfortaa Project Authors (https://github.com/alexeiva/comfortaa), with Reserved Font Name "Comfortaa".
</metadata>
<defs>
<font id="Comfortaa-Light" horiz-adv-x="679" >
  <font-face 
    font-family="Comfortaa Light"
    font-weight="300"
    font-stretch="normal"
    units-per-em="1000"
    panose-1="0 0 0 0 0 0 0 0 0 0"
    ascent="800"
    descent="-200"
    x-height="547"
    cap-height="781"
    bbox="-213 -260 1264 1270"
    underline-thickness="50"
    underline-position="-125"
    unicode-range="U+000D-FB02"
  />
<missing-glyph horiz-adv-x="625" 
d="M60 0q-9 0 -14.5 6t-5.5 14v741q0 8 5.5 14t14.5 6h501q8 0 14 -6t6 -14v-741q0 -8 -6 -14t-14 -6h-501zM310 130q-16 0 -26.5 11t-10.5 27t10.5 27t26.5 11q17 0 28 -10.5t11 -27.5q0 -16 -11.5 -27t-27.5 -11zM80 40h461v701h-461v-701zM310 249q-11 0 -18 7.5t-7 18.5
q0 27 13 57.5t32 50.5q21 21 40.5 39t31.5 39.5t12 52.5q0 41 -29 67t-75 26q-45 0 -74 -28.5t-29 -74.5q0 -11 -7 -17.5t-18 -6.5q-10 0 -17.5 7t-7.5 17q0 45 19.5 79.5t54.5 54t79 19.5q45 0 79.5 -19t54.5 -52t20 -75q0 -38 -13.5 -63t-35.5 -45.5t-46 -45.5
q-17 -16 -25 -37t-8 -45q0 -11 -7.5 -18.5t-18.5 -7.5z" />
    <glyph glyph-name="f_f" unicode="ff" horiz-adv-x="730" 
d="M165 0q-13 0 -21.5 8.5t-8.5 21.5v518q0 68 21 120.5t65.5 82.5t113.5 30q14 0 22 -7.5t8 -19.5t-8 -19.5t-22 -7.5q-51 0 -81.5 -23.5t-44 -64t-13.5 -91.5v-518q0 -13 -8.5 -21.5t-22.5 -8.5zM57 473q-12 0 -19.5 7.5t-7.5 19.5t7.5 19.5t19.5 7.5h271q12 0 19.5 -7.5
t7.5 -19.5t-7.5 -19.5t-19.5 -7.5h-271zM530 0q-13 0 -21.5 8.5t-8.5 21.5v518q0 68 21 120.5t65.5 82.5t113.5 30q14 0 22 -7.5t8 -19.5t-8 -19.5t-22 -7.5q-51 0 -81.5 -23.5t-44 -64t-13.5 -91.5v-518q0 -13 -8.5 -21.5t-22.5 -8.5zM422 473q-12 0 -19.5 7.5t-7.5 19.5
t7.5 19.5t19.5 7.5h271q12 0 19.5 -7.5t7.5 -19.5t-7.5 -19.5t-19.5 -7.5h-271z" />
    <glyph glyph-name="f_f_i" unicode="ffi" horiz-adv-x="1010" 
d="M165 0q-13 0 -21.5 8.5t-8.5 21.5v518q0 68 21 120.5t65.5 82.5t113.5 30q14 0 22 -7.5t8 -19.5t-8 -19.5t-22 -7.5q-51 0 -81.5 -23.5t-44 -64t-13.5 -91.5v-518q0 -13 -8.5 -21.5t-22.5 -8.5zM57 473q-12 0 -19.5 7.5t-7.5 19.5t7.5 19.5t19.5 7.5h271q12 0 19.5 -7.5
t7.5 -19.5t-7.5 -19.5t-19.5 -7.5h-271zM530 0q-13 0 -21.5 8.5t-8.5 21.5v518q0 68 21 120.5t65.5 82.5t113.5 30q14 0 22 -7.5t8 -19.5t-8 -19.5t-22 -7.5q-51 0 -81.5 -23.5t-44 -64t-13.5 -91.5v-518q0 -13 -8.5 -21.5t-22.5 -8.5zM422 473q-12 0 -19.5 7.5t-7.5 19.5
t7.5 19.5t19.5 7.5h271q12 0 19.5 -7.5t7.5 -19.5t-7.5 -19.5t-19.5 -7.5h-271zM870 0q-13 0 -21.5 8.5t-8.5 21.5v487q0 14 8.5 22t21.5 8q14 0 22 -8t8 -22v-487q0 -13 -8 -21.5t-22 -8.5zM869 662q-19 0 -32.5 13.5t-13.5 33.5q0 23 14.5 34.5t32.5 11.5q17 0 31.5 -11.5
t14.5 -34.5q0 -20 -13.5 -33.5t-33.5 -13.5z" />
    <glyph glyph-name="f_f_l" unicode="ffl" horiz-adv-x="1000" 
d="M165 0q-13 0 -21.5 8.5t-8.5 21.5v518q0 68 21 120.5t65.5 82.5t113.5 30q14 0 22 -7.5t8 -19.5t-8 -19.5t-22 -7.5q-51 0 -81.5 -23.5t-44 -64t-13.5 -91.5v-518q0 -13 -8.5 -21.5t-22.5 -8.5zM57 473q-12 0 -19.5 7.5t-7.5 19.5t7.5 19.5t19.5 7.5h271q12 0 19.5 -7.5
t7.5 -19.5t-7.5 -19.5t-19.5 -7.5h-271zM530 0q-13 0 -21.5 8.5t-8.5 21.5v518q0 68 21 120.5t65.5 82.5t113.5 30q14 0 22 -7.5t8 -19.5t-8 -19.5t-22 -7.5q-51 0 -81.5 -23.5t-44 -64t-13.5 -91.5v-518q0 -13 -8.5 -21.5t-22.5 -8.5zM422 473q-12 0 -19.5 7.5t-7.5 19.5
t7.5 19.5t19.5 7.5h271q12 0 19.5 -7.5t7.5 -19.5t-7.5 -19.5t-19.5 -7.5h-271zM930 0q-38 0 -67.5 21t-46 58t-16.5 86v586q0 14 8.5 22t21.5 8q14 0 22 -8t8 -22v-586q0 -46 19.5 -75.5t50.5 -29.5h25q11 0 18 -8t7 -22q0 -13 -8 -21.5t-22 -8.5h-20z" />
    <glyph glyph-name="fi" unicode="fi" horiz-adv-x="589" 
d="M165 0q-13 0 -21.5 8.5t-8.5 21.5v528q0 61 19.5 111.5t64 81t120.5 30.5q35 0 71 -7t60.5 -22t24.5 -39q0 -42 -45 -42q-15 0 -27.5 8.5t-25.5 19.5t-29.5 19.5t-39.5 8.5q-42 0 -71.5 -17t-45 -54t-15.5 -98v-528q0 -13 -9 -21.5t-22 -8.5zM57 473q-12 0 -19.5 7.5
t-7.5 19.5t7.5 19.5t19.5 7.5h271q12 0 19.5 -7.5t7.5 -19.5t-7.5 -19.5t-19.5 -7.5h-271zM458 0q-13 0 -21.5 8.5t-8.5 21.5v487q0 14 8.5 22t21.5 8q14 0 22 -8t8 -22v-487q0 -13 -8 -21.5t-22 -8.5z" />
    <glyph glyph-name="fl" unicode="fl" horiz-adv-x="638" 
d="M165 0q-13 0 -21.5 8.5t-8.5 21.5v547q0 59 24 105.5t72 73.5t120 25q21 -1 44 -4t48 -11q17 -4 27 -13t10 -23q0 -17 -12 -23t-25 -2q-26 8 -49.5 14t-44.5 6q-76 0 -114.5 -36t-38.5 -122v-537q0 -13 -9 -21.5t-22 -8.5zM57 473q-12 0 -19.5 7.5t-7.5 19.5t7.5 19.5
t19.5 7.5h271q12 0 19.5 -7.5t7.5 -19.5t-7.5 -19.5t-19.5 -7.5h-271zM568 0q-38 0 -67.5 21t-46 58t-16.5 86v586q0 14 8.5 22t21.5 8q14 0 22 -8t8 -22v-586q0 -46 19.5 -75.5t50.5 -29.5h25q11 0 18 -8t7 -22q0 -13 -8 -21.5t-22 -8.5h-20z" />
    <glyph glyph-name=".notdef" horiz-adv-x="625" 
d="M60 0q-9 0 -14.5 6t-5.5 14v741q0 8 5.5 14t14.5 6h501q8 0 14 -6t6 -14v-741q0 -8 -6 -14t-14 -6h-501zM310 130q-16 0 -26.5 11t-10.5 27t10.5 27t26.5 11q17 0 28 -10.5t11 -27.5q0 -16 -11.5 -27t-27.5 -11zM80 40h461v701h-461v-701zM310 249q-11 0 -18 7.5t-7 18.5
q0 27 13 57.5t32 50.5q21 21 40.5 39t31.5 39.5t12 52.5q0 41 -29 67t-75 26q-45 0 -74 -28.5t-29 -74.5q0 -11 -7 -17.5t-18 -6.5q-10 0 -17.5 7t-7.5 17q0 45 19.5 79.5t54.5 54t79 19.5q45 0 79.5 -19t54.5 -52t20 -75q0 -38 -13.5 -63t-35.5 -45.5t-46 -45.5
q-17 -16 -25 -37t-8 -45q0 -11 -7.5 -18.5t-18.5 -7.5z" />
    <glyph glyph-name="A" unicode="A" horiz-adv-x="703" 
d="M49 0q-19 0 -26.5 15t-0.5 28l303 717q8 21 29 21q20 0 29 -21l304 -717q8 -14 -1 -28.5t-26 -14.5q-10 0 -16.5 4.5t-11.5 14.5l-294 701h32l-293 -701q-4 -10 -11 -14.5t-17 -4.5zM123 196l24 54h416l23 -54h-463z" />
    <glyph glyph-name="Aacute" unicode="&#xc1;" horiz-adv-x="703" 
d="M49 0q-19 0 -26.5 15t-0.5 28l303 717q8 21 29 21q20 0 29 -21l304 -717q8 -14 -1 -28.5t-26 -14.5q-10 0 -16.5 4.5t-11.5 14.5l-294 701h32l-293 -701q-4 -10 -11 -14.5t-17 -4.5zM123 196l24 54h416l23 -54h-463zM337 862q-13 0 -22 9t-9 22q0 11 7 20l123 123
q9 9 22 9t22 -8.5t9 -22.5q0 -5 -2 -10.5t-7 -10.5l-123 -123q-8 -8 -20 -8z" />
    <glyph glyph-name="Abreve" unicode="&#x102;" horiz-adv-x="703" 
d="M49 0q-19 0 -26.5 15t-0.5 28l303 717q8 21 29 21q20 0 29 -21l304 -717q8 -14 -1 -28.5t-26 -14.5q-10 0 -16.5 4.5t-11.5 14.5l-294 701h32l-293 -701q-4 -10 -11 -14.5t-17 -4.5zM123 196l24 54h416l23 -54h-463zM351 882q-41 0 -76 15t-55.5 40.5t-20.5 55.5
q0 13 9 22t22 9t21.5 -9t8.5 -22q0 -22 24 -39.5t67 -17.5t67.5 17t24.5 40q0 13 8.5 22t21.5 9t21.5 -9t9.5 -21q-2 -34 -24 -59.5t-56 -39t-73 -13.5z" />
    <glyph glyph-name="uni1EAE" unicode="&#x1eae;" horiz-adv-x="703" 
d="M49 0q-19 0 -26.5 15t-0.5 28l303 717q8 21 29 21q20 0 29 -21l304 -717q8 -14 -1 -28.5t-26 -14.5q-10 0 -16.5 4.5t-11.5 14.5l-294 701h32l-293 -701q-4 -10 -11 -14.5t-17 -4.5zM123 196l24 54h416l23 -54h-463zM351 882q-41 0 -76 15t-55.5 40.5t-20.5 55.5
q0 13 9 22t22 9t21.5 -9t8.5 -22q0 -22 24 -39.5t67 -17.5t67.5 17t24.5 40q0 13 8.5 22t21.5 9t21.5 -9t9.5 -21q-2 -34 -24 -59.5t-56 -39t-73 -13.5zM337 1025q-13 0 -22 9t-9 22q0 11 7 20l123 123q9 9 22 9t22 -8.5t9 -22.5q0 -5 -2 -10.5t-7 -10.5l-123 -123
q-8 -8 -20 -8z" />
    <glyph glyph-name="uni1EB6" unicode="&#x1eb6;" horiz-adv-x="703" 
d="M49 0q-19 0 -26.5 15t-0.5 28l303 717q8 21 29 21q20 0 29 -21l304 -717q8 -14 -1 -28.5t-26 -14.5q-10 0 -16.5 4.5t-11.5 14.5l-294 701h32l-293 -701q-4 -10 -11 -14.5t-17 -4.5zM123 196l24 54h416l23 -54h-463zM351 882q-41 0 -76 15t-55.5 40.5t-20.5 55.5
q0 13 9 22t22 9t21.5 -9t8.5 -22q0 -22 24 -39.5t67 -17.5t67.5 17t24.5 40q0 13 8.5 22t21.5 9t21.5 -9t9.5 -21q-2 -34 -24 -59.5t-56 -39t-73 -13.5zM351 -198q-19 0 -32.5 13.5t-13.5 33.5q0 23 14.5 34.5t32.5 11.5q17 0 31.5 -11.5t14.5 -34.5q0 -20 -13.5 -33.5
t-33.5 -13.5z" />
    <glyph glyph-name="uni1EB0" unicode="&#x1eb0;" horiz-adv-x="703" 
d="M49 0q-19 0 -26.5 15t-0.5 28l303 717q8 21 29 21q20 0 29 -21l304 -717q8 -14 -1 -28.5t-26 -14.5q-10 0 -16.5 4.5t-11.5 14.5l-294 701h32l-293 -701q-4 -10 -11 -14.5t-17 -4.5zM123 196l24 54h416l23 -54h-463zM351 882q-41 0 -76 15t-55.5 40.5t-20.5 55.5
q0 13 9 22t22 9t21.5 -9t8.5 -22q0 -22 24 -39.5t67 -17.5t67.5 17t24.5 40q0 13 8.5 22t21.5 9t21.5 -9t9.5 -21q-2 -34 -24 -59.5t-56 -39t-73 -13.5zM353 1036q-10 0 -21 8l-123 123q-8 8 -8 21q0 14 9 22.5t22 8.5q12 0 21 -9l123 -123q7 -7 7 -20t-8.5 -22t-21.5 -9z
" />
    <glyph glyph-name="uni1EB2" unicode="&#x1eb2;" horiz-adv-x="703" 
d="M49 0q-19 0 -26.5 15t-0.5 28l303 717q8 21 29 21q20 0 29 -21l304 -717q8 -14 -1 -28.5t-26 -14.5q-10 0 -16.5 4.5t-11.5 14.5l-294 701h32l-293 -701q-4 -10 -11 -14.5t-17 -4.5zM123 196l24 54h416l23 -54h-463zM351 882q-41 0 -76 15t-55.5 40.5t-20.5 55.5
q0 13 9 22t22 9t21.5 -9t8.5 -22q0 -22 24 -39.5t67 -17.5t67.5 17t24.5 40q0 13 8.5 22t21.5 9t21.5 -9t9.5 -21q-2 -34 -24 -59.5t-56 -39t-73 -13.5zM350 993q-12 0 -20.5 8.5t-8.5 20.5v33q0 26 26 32l24 5q24 5 33 16t9 30q0 24 -16 37.5t-39 13.5q-12 0 -22 -4
t-20 -12q-4 -3 -9 -5t-10 -2q-12 0 -20.5 8.5t-8.5 20.5q0 14 10 22q17 14 37.5 22t42.5 8q47 0 80 -27.5t33 -75.5q0 -44 -27.5 -68t-64.5 -30v-24q0 -12 -8.5 -20.5t-20.5 -8.5z" />
    <glyph glyph-name="uni1EB4" unicode="&#x1eb4;" horiz-adv-x="703" 
d="M49 0q-19 0 -26.5 15t-0.5 28l303 717q8 21 29 21q20 0 29 -21l304 -717q8 -14 -1 -28.5t-26 -14.5q-10 0 -16.5 4.5t-11.5 14.5l-294 701h32l-293 -701q-4 -10 -11 -14.5t-17 -4.5zM123 196l24 54h416l23 -54h-463zM351 882q-41 0 -76 15t-55.5 40.5t-20.5 55.5
q0 13 9 22t22 9t21.5 -9t8.5 -22q0 -22 24 -39.5t67 -17.5t67.5 17t24.5 40q0 13 8.5 22t21.5 9t21.5 -9t9.5 -21q-2 -34 -24 -59.5t-56 -39t-73 -13.5zM413 1049q-24 0 -43 12t-30 22q-15 15 -25.5 22t-23.5 7t-22 -11.5t-20 -31.5q-6 -11 -16 -15.5t-20 -1.5
q-11 4 -15 14.5t1 22.5q17 40 39 57t52 17q26 0 41 -9.5t31 -23.5q20 -16 29.5 -22t17.5 -6q15 0 26 30q5 12 15.5 18t20.5 3q14 -4 19 -14t0 -23q-15 -37 -34 -52t-43 -15z" />
    <glyph glyph-name="Acircumflex" unicode="&#xc2;" horiz-adv-x="703" 
d="M49 0q-19 0 -26.5 15t-0.5 28l303 717q8 21 29 21q20 0 29 -21l304 -717q8 -14 -1 -28.5t-26 -14.5q-10 0 -16.5 4.5t-11.5 14.5l-294 701h32l-293 -701q-4 -10 -11 -14.5t-17 -4.5zM123 196l24 54h416l23 -54h-463zM232 882q-13 0 -22.5 8.5t-9.5 21.5q0 17 16 27
l121 81q8 4 15 4q5 0 8.5 -1t6.5 -3l121 -81q16 -10 16 -27q0 -13 -8.5 -21.5t-22.5 -8.5q-6 0 -10 1.5t-9 4.5l-102 68l-102 -68q-9 -6 -18 -6z" />
    <glyph glyph-name="uni1EA4" unicode="&#x1ea4;" horiz-adv-x="703" 
d="M49 0q-19 0 -26.5 15t-0.5 28l303 717q8 21 29 21q20 0 29 -21l304 -717q8 -14 -1 -28.5t-26 -14.5q-10 0 -16.5 4.5t-11.5 14.5l-294 701h32l-293 -701q-4 -10 -11 -14.5t-17 -4.5zM123 196l24 54h416l23 -54h-463zM232 882q-13 0 -22.5 8.5t-9.5 21.5q0 17 16 27
l121 81q8 4 15 4q5 0 8.5 -1t6.5 -3l121 -81q16 -10 16 -27q0 -13 -8.5 -21.5t-22.5 -8.5q-6 0 -10 1.5t-9 4.5l-102 68l-102 -68q-9 -6 -18 -6zM428 1048q-13 0 -22 9t-9 22q0 11 7 20l123 123q9 9 22 9t22 -8.5t9 -22.5q0 -5 -2 -10.5t-7 -10.5l-123 -123q-8 -8 -20 -8z
" />
    <glyph glyph-name="uni1EAC" unicode="&#x1eac;" horiz-adv-x="703" 
d="M49 0q-19 0 -26.5 15t-0.5 28l303 717q8 21 29 21q20 0 29 -21l304 -717q8 -14 -1 -28.5t-26 -14.5q-10 0 -16.5 4.5t-11.5 14.5l-294 701h32l-293 -701q-4 -10 -11 -14.5t-17 -4.5zM123 196l24 54h416l23 -54h-463zM232 882q-13 0 -22.5 8.5t-9.5 21.5q0 17 16 27
l121 81q8 4 15 4q5 0 8.5 -1t6.5 -3l121 -81q16 -10 16 -27q0 -13 -8.5 -21.5t-22.5 -8.5q-6 0 -10 1.5t-9 4.5l-102 68l-102 -68q-9 -6 -18 -6zM351 -198q-19 0 -32.5 13.5t-13.5 33.5q0 23 14.5 34.5t32.5 11.5q17 0 31.5 -11.5t14.5 -34.5q0 -20 -13.5 -33.5t-33.5 -13.5
z" />
    <glyph glyph-name="uni1EA6" unicode="&#x1ea6;" horiz-adv-x="703" 
d="M49 0q-19 0 -26.5 15t-0.5 28l303 717q8 21 29 21q20 0 29 -21l304 -717q8 -14 -1 -28.5t-26 -14.5q-10 0 -16.5 4.5t-11.5 14.5l-294 701h32l-293 -701q-4 -10 -11 -14.5t-17 -4.5zM123 196l24 54h416l23 -54h-463zM232 882q-13 0 -22.5 8.5t-9.5 21.5q0 17 16 27
l121 81q8 4 15 4q5 0 8.5 -1t6.5 -3l121 -81q16 -10 16 -27q0 -13 -8.5 -21.5t-22.5 -8.5q-6 0 -10 1.5t-9 4.5l-102 68l-102 -68q-9 -6 -18 -6zM444 1059q-10 0 -21 8l-123 123q-8 8 -8 21q0 14 9 22.5t22 8.5q12 0 21 -9l123 -123q7 -7 7 -20t-8.5 -22t-21.5 -9z" />
    <glyph glyph-name="uni1EA8" unicode="&#x1ea8;" horiz-adv-x="703" 
d="M49 0q-19 0 -26.5 15t-0.5 28l303 717q8 21 29 21q20 0 29 -21l304 -717q8 -14 -1 -28.5t-26 -14.5q-10 0 -16.5 4.5t-11.5 14.5l-294 701h32l-293 -701q-4 -10 -11 -14.5t-17 -4.5zM123 196l24 54h416l23 -54h-463zM233 882q-13 0 -22.5 8.5t-9.5 21.5q0 17 16 27
l121 81q8 4 15 4q5 0 8.5 -1t6.5 -3l121 -81q16 -10 16 -27q0 -13 -8.5 -21.5t-22.5 -8.5q-6 0 -10 1.5t-9 4.5l-102 68l-102 -68q-9 -6 -18 -6zM442 1016q-12 0 -20.5 8.5t-8.5 20.5v33q0 26 26 32l24 5q24 5 33 16t9 30q0 24 -16 37.5t-39 13.5q-12 0 -22 -4t-20 -12
q-4 -3 -9 -5t-10 -2q-12 0 -20.5 8.5t-8.5 20.5q0 14 10 22q17 14 37.5 22t42.5 8q47 0 80 -27.5t33 -75.5q0 -44 -27.5 -68t-64.5 -30v-24q0 -12 -8.5 -20.5t-20.5 -8.5z" />
    <glyph glyph-name="uni1EAA" unicode="&#x1eaa;" horiz-adv-x="703" 
d="M49 0q-19 0 -26.5 15t-0.5 28l303 717q8 21 29 21q20 0 29 -21l304 -717q8 -14 -1 -28.5t-26 -14.5q-10 0 -16.5 4.5t-11.5 14.5l-294 701h32l-293 -701q-4 -10 -11 -14.5t-17 -4.5zM123 196l24 54h416l23 -54h-463zM232 882q-13 0 -22.5 8.5t-9.5 21.5q0 17 16 27
l121 81q8 4 15 4q5 0 8.5 -1t6.5 -3l121 -81q16 -10 16 -27q0 -13 -8.5 -21.5t-22.5 -8.5q-6 0 -10 1.5t-9 4.5l-102 68l-102 -68q-9 -6 -18 -6zM412 1052q-24 0 -43 12t-30 22q-15 15 -25.5 22t-23.5 7t-22 -11.5t-20 -31.5q-6 -11 -16 -15.5t-20 -1.5q-11 4 -15 14.5
t1 22.5q17 40 39 57t52 17q26 0 41 -9.5t31 -23.5q20 -16 29.5 -22t17.5 -6q15 0 26 30q5 12 15.5 18t20.5 3q14 -4 19 -14t0 -23q-15 -37 -34 -52t-43 -15z" />
    <glyph glyph-name="uni0200" unicode="&#x200;" horiz-adv-x="703" 
d="M49 0q-19 0 -26.5 15t-0.5 28l303 717q8 21 29 21q20 0 29 -21l304 -717q8 -14 -1 -28.5t-26 -14.5q-10 0 -16.5 4.5t-11.5 14.5l-294 701h32l-293 -701q-4 -10 -11 -14.5t-17 -4.5zM123 196l24 54h416l23 -54h-463zM465 863q-14 0 -21 14l-65 137q-2 6 -2 11
q0 11 8.5 20.5t22.5 9.5q9 0 16.5 -5t11.5 -14l46 -144q1 -2 1 -9q0 -10 -5.5 -15t-12.5 -5zM307 863q-14 0 -20 14l-65 137q-1 2 -1.5 5t-0.5 6q0 11 8.5 20.5t22.5 9.5q9 0 16.5 -5t10.5 -14l47 -144q1 -1 1 -3.5v-5.5q0 -10 -5.5 -15t-13.5 -5z" />
    <glyph glyph-name="Adieresis" unicode="&#xc4;" horiz-adv-x="703" 
d="M49 0q-19 0 -26.5 15t-0.5 28l303 717q8 21 29 21q20 0 29 -21l304 -717q8 -14 -1 -28.5t-26 -14.5q-10 0 -16.5 4.5t-11.5 14.5l-294 701h32l-293 -701q-4 -10 -11 -14.5t-17 -4.5zM123 196l24 54h416l23 -54h-463zM252 891q-22 0 -37 15t-15 37q0 21 15 36t37 15
t36.5 -15t14.5 -36q0 -22 -14.5 -37t-36.5 -15zM452 891q-22 0 -37 15t-15 37q0 21 15 36t37 15t36.5 -15t14.5 -36q0 -22 -14.5 -37t-36.5 -15z" />
    <glyph glyph-name="uni1EA0" unicode="&#x1ea0;" horiz-adv-x="703" 
d="M49 0q-19 0 -26.5 15t-0.5 28l303 717q8 21 29 21q20 0 29 -21l304 -717q8 -14 -1 -28.5t-26 -14.5q-10 0 -16.5 4.5t-11.5 14.5l-294 701h32l-293 -701q-4 -10 -11 -14.5t-17 -4.5zM123 196l24 54h416l23 -54h-463zM351 -198q-19 0 -32.5 13.5t-13.5 33.5
q0 23 14.5 34.5t32.5 11.5q17 0 31.5 -11.5t14.5 -34.5q0 -20 -13.5 -33.5t-33.5 -13.5z" />
    <glyph glyph-name="Agrave" unicode="&#xc0;" horiz-adv-x="703" 
d="M49 0q-19 0 -26.5 15t-0.5 28l303 717q8 21 29 21q20 0 29 -21l304 -717q8 -14 -1 -28.5t-26 -14.5q-10 0 -16.5 4.5t-11.5 14.5l-294 701h32l-293 -701q-4 -10 -11 -14.5t-17 -4.5zM123 196l24 54h416l23 -54h-463zM353 873q-10 0 -21 8l-123 123q-8 8 -8 21
q0 14 9 22.5t22 8.5q12 0 21 -9l123 -123q7 -7 7 -20t-8.5 -22t-21.5 -9z" />
    <glyph glyph-name="uni1EA2" unicode="&#x1ea2;" horiz-adv-x="703" 
d="M49 0q-19 0 -26.5 15t-0.5 28l303 717q8 21 29 21q20 0 29 -21l304 -717q8 -14 -1 -28.5t-26 -14.5q-10 0 -16.5 4.5t-11.5 14.5l-294 701h32l-293 -701q-4 -10 -11 -14.5t-17 -4.5zM123 196l24 54h416l23 -54h-463zM350 830q-12 0 -20.5 8.5t-8.5 20.5v33q0 26 26 32
l24 5q24 5 33 16t9 30q0 24 -16 37.5t-39 13.5q-12 0 -22 -4t-20 -12q-4 -3 -9 -5t-10 -2q-12 0 -20.5 8.5t-8.5 20.5q0 14 10 22q17 14 37.5 22t42.5 8q47 0 80 -27.5t33 -75.5q0 -44 -27.5 -68t-64.5 -30v-24q0 -12 -8.5 -20.5t-20.5 -8.5z" />
    <glyph glyph-name="uni0202" unicode="&#x202;" horiz-adv-x="703" 
d="M49 0q-19 0 -26.5 15t-0.5 28l303 717q8 21 29 21q20 0 29 -21l304 -717q8 -14 -1 -28.5t-26 -14.5q-10 0 -16.5 4.5t-11.5 14.5l-294 701h32l-293 -701q-4 -10 -11 -14.5t-17 -4.5zM123 196l24 54h416l23 -54h-463zM230 882q-13 0 -22 9t-9 22q0 31 20.5 56t55.5 40
t76 15q39 0 73 -13.5t56 -38.5t24 -60q-1 -12 -9.5 -21t-21.5 -9t-21.5 9t-8.5 22q0 23 -24.5 40t-67.5 17t-67 -17t-24 -40q0 -13 -8.5 -22t-21.5 -9z" />
    <glyph glyph-name="Amacron" unicode="&#x100;" horiz-adv-x="703" 
d="M49 0q-19 0 -26.5 15t-0.5 28l303 717q8 21 29 21q20 0 29 -21l304 -717q8 -14 -1 -28.5t-26 -14.5q-10 0 -16.5 4.5t-11.5 14.5l-294 701h32l-293 -701q-4 -10 -11 -14.5t-17 -4.5zM123 196l24 54h416l23 -54h-463zM219 895q-13 0 -21.5 8.5t-8.5 21.5t8.5 22t21.5 9
h265q13 0 21.5 -9t8.5 -22t-8.5 -21.5t-21.5 -8.5h-265z" />
    <glyph glyph-name="Aogonek" unicode="&#x104;" horiz-adv-x="703" 
d="M49 0q-19 0 -26.5 15t-0.5 28l303 717q8 21 29 21q20 0 29 -21l304 -717q8 -14 -1 -28.5t-26 -14.5q-10 0 -16.5 4.5t-11.5 14.5l-294 701h32l-293 -701q-4 -10 -11 -14.5t-17 -4.5zM123 196l24 54h416l23 -54h-463zM658 -232q-30 0 -55 15t-40.5 40t-15.5 56q0 53 47 91
q15 12 24.5 23t13.5 21q8 15 26 15q14 0 22.5 -8t8.5 -21q0 -19 -15.5 -38.5t-44.5 -41.5q-10 -8 -15.5 -19t-5.5 -22q0 -21 14.5 -35.5t35.5 -14.5q7 0 14 2t14 6l35 26q9 6 18 6q13 0 22 -9t9 -22q0 -15 -10 -23l-41 -28q-28 -19 -61 -19z" />
    <glyph glyph-name="Aring" unicode="&#xc5;" horiz-adv-x="703" 
d="M49 0q-19 0 -26.5 15t-0.5 28l303 717q8 21 29 21q20 0 29 -21l304 -717q8 -14 -1 -28.5t-26 -14.5q-10 0 -16.5 4.5t-11.5 14.5l-294 701h32l-293 -701q-4 -10 -11 -14.5t-17 -4.5zM123 196l24 54h416l23 -54h-463zM352 831q-37 0 -64.5 27.5t-27.5 64.5q0 39 27.5 65.5
t64.5 26.5q38 0 65 -27t27 -65q0 -37 -26.5 -64.5t-65.5 -27.5zM352 870q23 0 38.5 15.5t15.5 37.5q0 23 -15.5 38.5t-38.5 15.5q-22 0 -37.5 -15.5t-15.5 -38.5q0 -22 15.5 -37.5t37.5 -15.5z" />
    <glyph glyph-name="Aringacute" unicode="&#x1fa;" horiz-adv-x="703" 
d="M49 0q-19 0 -26.5 15t-0.5 28l303 717q8 21 29 21q20 0 29 -21l304 -717q8 -14 -1 -28.5t-26 -14.5q-10 0 -16.5 4.5t-11.5 14.5l-294 701h32l-293 -701q-4 -10 -11 -14.5t-17 -4.5zM123 196l24 54h416l23 -54h-463zM352 831q-37 0 -64.5 27.5t-27.5 64.5q0 39 27.5 65.5
t64.5 26.5q38 0 65 -27t27 -65q0 -37 -26.5 -64.5t-65.5 -27.5zM352 870q23 0 38.5 15.5t15.5 37.5q0 23 -15.5 38.5t-38.5 15.5q-22 0 -37.5 -15.5t-15.5 -38.5q0 -22 15.5 -37.5t37.5 -15.5zM337 1056q-13 0 -22 9t-9 22q0 11 7 20l123 123q9 9 22 9t22 -8.5t9 -22.5
q0 -5 -2 -10.5t-7 -10.5l-123 -123q-8 -8 -20 -8z" />
    <glyph glyph-name="Atilde" unicode="&#xc3;" horiz-adv-x="703" 
d="M49 0q-19 0 -26.5 15t-0.5 28l303 717q8 21 29 21q20 0 29 -21l304 -717q8 -14 -1 -28.5t-26 -14.5q-10 0 -16.5 4.5t-11.5 14.5l-294 701h32l-293 -701q-4 -10 -11 -14.5t-17 -4.5zM123 196l24 54h416l23 -54h-463zM413 886q-24 0 -43 12t-30 22q-15 15 -25.5 22
t-23.5 7t-22 -11.5t-20 -31.5q-6 -11 -16 -15.5t-20 -1.5q-11 4 -15 14.5t1 22.5q17 40 39 57t52 17q26 0 41 -9.5t31 -23.5q20 -16 29.5 -22t17.5 -6q15 0 26 30q5 12 15.5 18t20.5 3q14 -4 19 -14t0 -23q-15 -37 -34 -52t-43 -15z" />
    <glyph glyph-name="AE" unicode="&#xc6;" horiz-adv-x="932" 
d="M50 0q-12 0 -20 7t-10 17.5t3 18.5l418 710q9 15 21 21.5t32 6.5h363q12 0 21 -8.5t9 -21.5q0 -12 -9 -21t-21 -9h-351v-300h231q13 0 21.5 -8.5t8.5 -21.5t-8.5 -22t-21.5 -9h-231v-300h351q12 0 21 -9t9 -21q0 -13 -9 -21.5t-21 -8.5h-381q-13 0 -21.5 8.5t-8.5 21.5
v166h-264l-104 -177q-7 -19 -28 -19zM214 250h232v439l23 -6z" />
    <glyph glyph-name="AEacute" unicode="&#x1fc;" horiz-adv-x="932" 
d="M50 0q-12 0 -20 7t-10 17.5t3 18.5l418 710q9 15 21 21.5t32 6.5h363q12 0 21 -8.5t9 -21.5q0 -12 -9 -21t-21 -9h-351v-300h231q13 0 21.5 -8.5t8.5 -21.5t-8.5 -22t-21.5 -9h-231v-300h351q12 0 21 -9t9 -21q0 -13 -9 -21.5t-21 -8.5h-381q-13 0 -21.5 8.5t-8.5 21.5
v166h-264l-104 -177q-7 -19 -28 -19zM214 250h232v439l23 -6zM552 862q-13 0 -22 9t-9 22q0 11 7 20l123 123q9 9 22 9t22 -8.5t9 -22.5q0 -5 -2 -10.5t-7 -10.5l-123 -123q-8 -8 -20 -8z" />
    <glyph glyph-name="B" unicode="B" horiz-adv-x="675" 
d="M139 0q-17 0 -28 7.5t-11 22.5v721q0 14 8.5 22t21.5 8h245q56 0 102 -24.5t74 -67t28 -97.5q0 -58 -30.5 -101.5t-79.5 -65.5q68 -19 109.5 -70t41.5 -128q0 -66 -29.5 -117.5t-81.5 -80.5t-119 -29h-251zM160 60h230q50 0 88 21.5t60 59t22 86.5q0 48 -22 85t-60 58
t-88 21h-230v-331zM160 451h215q63 0 103.5 38.5t40.5 102.5q0 62 -40.5 95.5t-103.5 33.5h-215v-270z" />
    <glyph glyph-name="C" unicode="C" horiz-adv-x="767" 
d="M451 -10q-80 0 -150.5 31.5t-124.5 87t-85 128t-31 154.5q0 81 30 153.5t83.5 128t124.5 87t153 31.5q69 0 131 -22t116 -67q9 -7 9 -19.5t-8 -22t-22 -9.5q-4 0 -8 1.5t-8 4t-9 6.5q-40 36 -91 52t-110 16q-67 0 -127 -27.5t-106 -75t-72 -108.5t-26 -129q0 -70 26 -132
t71.5 -109t105.5 -73.5t128 -26.5q59 0 110.5 18t96.5 55q8 7 19 5t19 -10t8 -21q0 -6 -1 -11t-6 -10q-49 -49 -113.5 -67.5t-132.5 -18.5z" />
    <glyph glyph-name="Cacute" unicode="&#x106;" horiz-adv-x="767" 
d="M451 -10q-80 0 -150.5 31.5t-124.5 87t-85 128t-31 154.5q0 81 30 153.5t83.5 128t124.5 87t153 31.5q69 0 131 -22t116 -67q9 -7 9 -19.5t-8 -22t-22 -9.5q-4 0 -8 1.5t-8 4t-9 6.5q-40 36 -91 52t-110 16q-67 0 -127 -27.5t-106 -75t-72 -108.5t-26 -129q0 -70 26 -132
t71.5 -109t105.5 -73.5t128 -26.5q59 0 110.5 18t96.5 55q8 7 19 5t19 -10t8 -21q0 -6 -1 -11t-6 -10q-49 -49 -113.5 -67.5t-132.5 -18.5zM429 862q-13 0 -22 9t-9 22q0 11 7 20l123 123q9 9 22 9t22 -8.5t9 -22.5q0 -5 -2 -10.5t-7 -10.5l-123 -123q-8 -8 -20 -8z" />
    <glyph glyph-name="Ccaron" unicode="&#x10c;" horiz-adv-x="767" 
d="M451 -10q-80 0 -150.5 31.5t-124.5 87t-85 128t-31 154.5q0 81 30 153.5t83.5 128t124.5 87t153 31.5q69 0 131 -22t116 -67q9 -7 9 -19.5t-8 -22t-22 -9.5q-4 0 -8 1.5t-8 4t-9 6.5q-40 36 -91 52t-110 16q-67 0 -127 -27.5t-106 -75t-72 -108.5t-26 -129q0 -70 26 -132
t71.5 -109t105.5 -73.5t128 -26.5q59 0 110.5 18t96.5 55q8 7 19 5t19 -10t8 -21q0 -6 -1 -11t-6 -10q-49 -49 -113.5 -67.5t-132.5 -18.5zM444 882q-10 0 -15 4l-121 80q-16 10 -16 27t15 25t35 -6l102 -70l102 68q21 14 35.5 7t14.5 -24q0 -15 -16 -27l-121 -80
q-5 -4 -15 -4z" />
    <glyph glyph-name="Ccedilla" unicode="&#xc7;" horiz-adv-x="767" 
d="M451 -10q-80 0 -150.5 31.5t-124.5 87t-85 128t-31 154.5q0 81 30 153.5t83.5 128t124.5 87t153 31.5q69 0 131 -22t116 -67q9 -7 9 -19.5t-8 -22t-22 -9.5q-4 0 -8 1.5t-8 4t-9 6.5q-40 36 -91 52t-110 16q-67 0 -127 -27.5t-106 -75t-72 -108.5t-26 -129q0 -70 26 -132
t71.5 -109t105.5 -73.5t128 -26.5q59 0 110.5 18t96.5 55q8 7 19 5t19 -10t8 -21q0 -6 -1 -11t-6 -10q-49 -49 -113.5 -67.5t-132.5 -18.5zM438 -232q-49 0 -80 20.5t-31 45.5q0 13 8.5 22t21.5 9q11 0 18.5 -6t16.5 -13q8 -6 17.5 -11.5t28.5 -5.5q25 0 42 11t17 30
q0 20 -13 31t-44 20q-19 5 -28 14t1 32l20 49q4 10 12.5 16t22.5 6q15 0 22.5 -11.5t1.5 -26.5l-15 -36q53 -16 70.5 -39t17.5 -53q0 -29 -18 -53t-46.5 -37.5t-62.5 -13.5z" />
    <glyph glyph-name="Ccircumflex" unicode="&#x108;" horiz-adv-x="767" 
d="M451 -10q-80 0 -150.5 31.5t-124.5 87t-85 128t-31 154.5q0 81 30 153.5t83.5 128t124.5 87t153 31.5q69 0 131 -22t116 -67q9 -7 9 -19.5t-8 -22t-22 -9.5q-4 0 -8 1.5t-8 4t-9 6.5q-40 36 -91 52t-110 16q-67 0 -127 -27.5t-106 -75t-72 -108.5t-26 -129q0 -70 26 -132
t71.5 -109t105.5 -73.5t128 -26.5q59 0 110.5 18t96.5 55q8 7 19 5t19 -10t8 -21q0 -6 -1 -11t-6 -10q-49 -49 -113.5 -67.5t-132.5 -18.5zM324 882q-13 0 -22.5 8.5t-9.5 21.5q0 17 16 27l121 81q8 4 15 4q5 0 8.5 -1t6.5 -3l121 -81q16 -10 16 -27q0 -13 -8.5 -21.5
t-22.5 -8.5q-6 0 -10 1.5t-9 4.5l-102 68l-102 -68q-9 -6 -18 -6z" />
    <glyph glyph-name="Cdotaccent" unicode="&#x10a;" horiz-adv-x="767" 
d="M451 -10q-80 0 -150.5 31.5t-124.5 87t-85 128t-31 154.5q0 81 30 153.5t83.5 128t124.5 87t153 31.5q69 0 131 -22t116 -67q9 -7 9 -19.5t-8 -22t-22 -9.5q-4 0 -8 1.5t-8 4t-9 6.5q-40 36 -91 52t-110 16q-67 0 -127 -27.5t-106 -75t-72 -108.5t-26 -129q0 -70 26 -132
t71.5 -109t105.5 -73.5t128 -26.5q59 0 110.5 18t96.5 55q8 7 19 5t19 -10t8 -21q0 -6 -1 -11t-6 -10q-49 -49 -113.5 -67.5t-132.5 -18.5zM443 896q-19 0 -32.5 13.5t-13.5 33.5q0 23 14.5 34.5t32.5 11.5q17 0 31.5 -11.5t14.5 -34.5q0 -20 -13.5 -33.5t-33.5 -13.5z" />
    <glyph glyph-name="D" unicode="D" horiz-adv-x="761" 
d="M130 0q-13 0 -21.5 8.5t-8.5 21.5v721q0 14 8.5 22t21.5 8h180q86 0 157.5 -28.5t124 -81t81 -123.5t28.5 -157t-28.5 -157.5t-81 -124t-124 -81t-157.5 -28.5h-180zM160 54h150q97 0 171.5 44t117 120t42.5 173t-42.5 172.5t-117 119.5t-171.5 44h-150v-673z" />
    <glyph glyph-name="Eth" unicode="&#xd0;" horiz-adv-x="761" 
d="M27 364q-12 0 -19.5 7.5t-7.5 19.5t7.5 19.5t19.5 7.5h298q12 0 19.5 -7.5t7.5 -19.5t-7.5 -19.5t-19.5 -7.5h-298zM130 0q-13 0 -21.5 8.5t-8.5 21.5v721q0 14 8.5 22t21.5 8h180q86 0 157.5 -28.5t124 -81t81 -123.5t28.5 -157t-28.5 -157.5t-81 -124t-124 -81
t-157.5 -28.5h-180zM160 54h150q97 0 171.5 44t117 120t42.5 173t-42.5 172.5t-117 119.5t-171.5 44h-150v-673z" />
    <glyph glyph-name="Dcaron" unicode="&#x10e;" horiz-adv-x="761" 
d="M130 0q-13 0 -21.5 8.5t-8.5 21.5v721q0 14 8.5 22t21.5 8h180q86 0 157.5 -28.5t124 -81t81 -123.5t28.5 -157t-28.5 -157.5t-81 -124t-124 -81t-157.5 -28.5h-180zM160 54h150q97 0 171.5 44t117 120t42.5 173t-42.5 172.5t-117 119.5t-171.5 44h-150v-673zM381 882
q-10 0 -15 4l-121 80q-16 10 -16 27t15 25t35 -6l102 -70l102 68q21 14 35.5 7t14.5 -24q0 -15 -16 -27l-121 -80q-5 -4 -15 -4z" />
    <glyph glyph-name="Dcroat" unicode="&#x110;" horiz-adv-x="761" 
d="M27 364q-12 0 -19.5 7.5t-7.5 19.5t7.5 19.5t19.5 7.5h298q12 0 19.5 -7.5t7.5 -19.5t-7.5 -19.5t-19.5 -7.5h-298zM130 0q-13 0 -21.5 8.5t-8.5 21.5v721q0 14 8.5 22t21.5 8h180q86 0 157.5 -28.5t124 -81t81 -123.5t28.5 -157t-28.5 -157.5t-81 -124t-124 -81
t-157.5 -28.5h-180zM160 54h150q97 0 171.5 44t117 120t42.5 173t-42.5 172.5t-117 119.5t-171.5 44h-150v-673z" />
    <glyph glyph-name="E" unicode="E" horiz-adv-x="686" 
d="M130 0q-13 0 -21.5 8.5t-8.5 21.5v721q0 13 8.5 21.5t21.5 8.5h481q12 0 21 -8.5t9 -21.5q0 -12 -9 -21t-21 -9h-451v-300h331q13 0 21.5 -8.5t8.5 -21.5t-8.5 -22t-21.5 -9h-331v-300h451q12 0 21 -9t9 -21q0 -13 -9 -21.5t-21 -8.5h-481z" />
    <glyph glyph-name="Eacute" unicode="&#xc9;" horiz-adv-x="686" 
d="M130 0q-13 0 -21.5 8.5t-8.5 21.5v721q0 13 8.5 21.5t21.5 8.5h481q12 0 21 -8.5t9 -21.5q0 -12 -9 -21t-21 -9h-451v-300h331q13 0 21.5 -8.5t8.5 -21.5t-8.5 -22t-21.5 -9h-331v-300h451q12 0 21 -9t9 -21q0 -13 -9 -21.5t-21 -8.5h-481zM359 862q-13 0 -22 9t-9 22
q0 11 7 20l123 123q9 9 22 9t22 -8.5t9 -22.5q0 -5 -2 -10.5t-7 -10.5l-123 -123q-8 -8 -20 -8z" />
    <glyph glyph-name="Ebreve" unicode="&#x114;" horiz-adv-x="686" 
d="M130 0q-13 0 -21.5 8.5t-8.5 21.5v721q0 13 8.5 21.5t21.5 8.5h481q12 0 21 -8.5t9 -21.5q0 -12 -9 -21t-21 -9h-451v-300h331q13 0 21.5 -8.5t8.5 -21.5t-8.5 -22t-21.5 -9h-331v-300h451q12 0 21 -9t9 -21q0 -13 -9 -21.5t-21 -8.5h-481zM373 882q-41 0 -76 15
t-55.5 40.5t-20.5 55.5q0 13 9 22t22 9t21.5 -9t8.5 -22q0 -22 24 -39.5t67 -17.5t67.5 17t24.5 40q0 13 8.5 22t21.5 9t21.5 -9t9.5 -21q-2 -34 -24 -59.5t-56 -39t-73 -13.5z" />
    <glyph glyph-name="Ecaron" unicode="&#x11a;" horiz-adv-x="686" 
d="M130 0q-13 0 -21.5 8.5t-8.5 21.5v721q0 13 8.5 21.5t21.5 8.5h481q12 0 21 -8.5t9 -21.5q0 -12 -9 -21t-21 -9h-451v-300h331q13 0 21.5 -8.5t8.5 -21.5t-8.5 -22t-21.5 -9h-331v-300h451q12 0 21 -9t9 -21q0 -13 -9 -21.5t-21 -8.5h-481zM374 882q-10 0 -15 4l-121 80
q-16 10 -16 27t15 25t35 -6l102 -70l102 68q21 14 35.5 7t14.5 -24q0 -15 -16 -27l-121 -80q-5 -4 -15 -4z" />
    <glyph glyph-name="Ecircumflex" unicode="&#xca;" horiz-adv-x="686" 
d="M130 0q-13 0 -21.5 8.5t-8.5 21.5v721q0 13 8.5 21.5t21.5 8.5h481q12 0 21 -8.5t9 -21.5q0 -12 -9 -21t-21 -9h-451v-300h331q13 0 21.5 -8.5t8.5 -21.5t-8.5 -22t-21.5 -9h-331v-300h451q12 0 21 -9t9 -21q0 -13 -9 -21.5t-21 -8.5h-481zM254 882q-13 0 -22.5 8.5
t-9.5 21.5q0 17 16 27l121 81q8 4 15 4q5 0 8.5 -1t6.5 -3l121 -81q16 -10 16 -27q0 -13 -8.5 -21.5t-22.5 -8.5q-6 0 -10 1.5t-9 4.5l-102 68l-102 -68q-9 -6 -18 -6z" />
    <glyph glyph-name="uni1EBE" unicode="&#x1ebe;" horiz-adv-x="686" 
d="M130 0q-13 0 -21.5 8.5t-8.5 21.5v721q0 13 8.5 21.5t21.5 8.5h481q12 0 21 -8.5t9 -21.5q0 -12 -9 -21t-21 -9h-451v-300h331q13 0 21.5 -8.5t8.5 -21.5t-8.5 -22t-21.5 -9h-331v-300h451q12 0 21 -9t9 -21q0 -13 -9 -21.5t-21 -8.5h-481zM254 882q-13 0 -22.5 8.5
t-9.5 21.5q0 17 16 27l121 81q8 4 15 4q5 0 8.5 -1t6.5 -3l121 -81q16 -10 16 -27q0 -13 -8.5 -21.5t-22.5 -8.5q-6 0 -10 1.5t-9 4.5l-102 68l-102 -68q-9 -6 -18 -6zM450 1048q-13 0 -22 9t-9 22q0 11 7 20l123 123q9 9 22 9t22 -8.5t9 -22.5q0 -5 -2 -10.5t-7 -10.5
l-123 -123q-8 -8 -20 -8z" />
    <glyph glyph-name="uni1EC6" unicode="&#x1ec6;" horiz-adv-x="686" 
d="M130 0q-13 0 -21.5 8.5t-8.5 21.5v721q0 13 8.5 21.5t21.5 8.5h481q12 0 21 -8.5t9 -21.5q0 -12 -9 -21t-21 -9h-451v-300h331q13 0 21.5 -8.5t8.5 -21.5t-8.5 -22t-21.5 -9h-331v-300h451q12 0 21 -9t9 -21q0 -13 -9 -21.5t-21 -8.5h-481zM254 882q-13 0 -22.5 8.5
t-9.5 21.5q0 17 16 27l121 81q8 4 15 4q5 0 8.5 -1t6.5 -3l121 -81q16 -10 16 -27q0 -13 -8.5 -21.5t-22.5 -8.5q-6 0 -10 1.5t-9 4.5l-102 68l-102 -68q-9 -6 -18 -6zM353 -198q-19 0 -32.5 13.5t-13.5 33.5q0 23 14.5 34.5t32.5 11.5q17 0 31.5 -11.5t14.5 -34.5
q0 -20 -13.5 -33.5t-33.5 -13.5z" />
    <glyph glyph-name="uni1EC0" unicode="&#x1ec0;" horiz-adv-x="686" 
d="M130 0q-13 0 -21.5 8.5t-8.5 21.5v721q0 13 8.5 21.5t21.5 8.5h481q12 0 21 -8.5t9 -21.5q0 -12 -9 -21t-21 -9h-451v-300h331q13 0 21.5 -8.5t8.5 -21.5t-8.5 -22t-21.5 -9h-331v-300h451q12 0 21 -9t9 -21q0 -13 -9 -21.5t-21 -8.5h-481zM254 882q-13 0 -22.5 8.5
t-9.5 21.5q0 17 16 27l121 81q8 4 15 4q5 0 8.5 -1t6.5 -3l121 -81q16 -10 16 -27q0 -13 -8.5 -21.5t-22.5 -8.5q-6 0 -10 1.5t-9 4.5l-102 68l-102 -68q-9 -6 -18 -6zM466 1059q-10 0 -21 8l-123 123q-8 8 -8 21q0 14 9 22.5t22 8.5q12 0 21 -9l123 -123q7 -7 7 -20
t-8.5 -22t-21.5 -9z" />
    <glyph glyph-name="uni1EC2" unicode="&#x1ec2;" horiz-adv-x="686" 
d="M130 0q-13 0 -21.5 8.5t-8.5 21.5v721q0 13 8.5 21.5t21.5 8.5h481q12 0 21 -8.5t9 -21.5q0 -12 -9 -21t-21 -9h-451v-300h331q13 0 21.5 -8.5t8.5 -21.5t-8.5 -22t-21.5 -9h-331v-300h451q12 0 21 -9t9 -21q0 -13 -9 -21.5t-21 -8.5h-481zM255 882q-13 0 -22.5 8.5
t-9.5 21.5q0 17 16 27l121 81q8 4 15 4q5 0 8.5 -1t6.5 -3l121 -81q16 -10 16 -27q0 -13 -8.5 -21.5t-22.5 -8.5q-6 0 -10 1.5t-9 4.5l-102 68l-102 -68q-9 -6 -18 -6zM464 1016q-12 0 -20.5 8.5t-8.5 20.5v33q0 26 26 32l24 5q24 5 33 16t9 30q0 24 -16 37.5t-39 13.5
q-12 0 -22 -4t-20 -12q-4 -3 -9 -5t-10 -2q-12 0 -20.5 8.5t-8.5 20.5q0 14 10 22q17 14 37.5 22t42.5 8q47 0 80 -27.5t33 -75.5q0 -44 -27.5 -68t-64.5 -30v-24q0 -12 -8.5 -20.5t-20.5 -8.5z" />
    <glyph glyph-name="uni1EC4" unicode="&#x1ec4;" horiz-adv-x="686" 
d="M130 0q-13 0 -21.5 8.5t-8.5 21.5v721q0 13 8.5 21.5t21.5 8.5h481q12 0 21 -8.5t9 -21.5q0 -12 -9 -21t-21 -9h-451v-300h331q13 0 21.5 -8.5t8.5 -21.5t-8.5 -22t-21.5 -9h-331v-300h451q12 0 21 -9t9 -21q0 -13 -9 -21.5t-21 -8.5h-481zM254 882q-13 0 -22.5 8.5
t-9.5 21.5q0 17 16 27l121 81q8 4 15 4q5 0 8.5 -1t6.5 -3l121 -81q16 -10 16 -27q0 -13 -8.5 -21.5t-22.5 -8.5q-6 0 -10 1.5t-9 4.5l-102 68l-102 -68q-9 -6 -18 -6zM434 1052q-24 0 -43 12t-30 22q-15 15 -25.5 22t-23.5 7t-22 -11.5t-20 -31.5q-6 -11 -16 -15.5
t-20 -1.5q-11 4 -15 14.5t1 22.5q17 40 39 57t52 17q26 0 41 -9.5t31 -23.5q20 -16 29.5 -22t17.5 -6q15 0 26 30q5 12 15.5 18t20.5 3q14 -4 19 -14t0 -23q-15 -37 -34 -52t-43 -15z" />
    <glyph glyph-name="uni0204" unicode="&#x204;" horiz-adv-x="686" 
d="M130 0q-13 0 -21.5 8.5t-8.5 21.5v721q0 13 8.5 21.5t21.5 8.5h481q12 0 21 -8.5t9 -21.5q0 -12 -9 -21t-21 -9h-451v-300h331q13 0 21.5 -8.5t8.5 -21.5t-8.5 -22t-21.5 -9h-331v-300h451q12 0 21 -9t9 -21q0 -13 -9 -21.5t-21 -8.5h-481zM487 863q-14 0 -21 14l-65 137
q-2 6 -2 11q0 11 8.5 20.5t22.5 9.5q9 0 16.5 -5t11.5 -14l46 -144q1 -2 1 -9q0 -10 -5.5 -15t-12.5 -5zM329 863q-14 0 -20 14l-65 137q-1 2 -1.5 5t-0.5 6q0 11 8.5 20.5t22.5 9.5q9 0 16.5 -5t10.5 -14l47 -144q1 -1 1 -3.5v-5.5q0 -10 -5.5 -15t-13.5 -5z" />
    <glyph glyph-name="Edieresis" unicode="&#xcb;" horiz-adv-x="686" 
d="M130 0q-13 0 -21.5 8.5t-8.5 21.5v721q0 13 8.5 21.5t21.5 8.5h481q12 0 21 -8.5t9 -21.5q0 -12 -9 -21t-21 -9h-451v-300h331q13 0 21.5 -8.5t8.5 -21.5t-8.5 -22t-21.5 -9h-331v-300h451q12 0 21 -9t9 -21q0 -13 -9 -21.5t-21 -8.5h-481zM274 891q-22 0 -37 15t-15 37
q0 21 15 36t37 15t36.5 -15t14.5 -36q0 -22 -14.5 -37t-36.5 -15zM474 891q-22 0 -37 15t-15 37q0 21 15 36t37 15t36.5 -15t14.5 -36q0 -22 -14.5 -37t-36.5 -15z" />
    <glyph glyph-name="Edotaccent" unicode="&#x116;" horiz-adv-x="686" 
d="M130 0q-13 0 -21.5 8.5t-8.5 21.5v721q0 13 8.5 21.5t21.5 8.5h481q12 0 21 -8.5t9 -21.5q0 -12 -9 -21t-21 -9h-451v-300h331q13 0 21.5 -8.5t8.5 -21.5t-8.5 -22t-21.5 -9h-331v-300h451q12 0 21 -9t9 -21q0 -13 -9 -21.5t-21 -8.5h-481zM373 896q-19 0 -32.5 13.5
t-13.5 33.5q0 23 14.5 34.5t32.5 11.5q17 0 31.5 -11.5t14.5 -34.5q0 -20 -13.5 -33.5t-33.5 -13.5z" />
    <glyph glyph-name="uni1EB8" unicode="&#x1eb8;" horiz-adv-x="686" 
d="M130 0q-13 0 -21.5 8.5t-8.5 21.5v721q0 13 8.5 21.5t21.5 8.5h481q12 0 21 -8.5t9 -21.5q0 -12 -9 -21t-21 -9h-451v-300h331q13 0 21.5 -8.5t8.5 -21.5t-8.5 -22t-21.5 -9h-331v-300h451q12 0 21 -9t9 -21q0 -13 -9 -21.5t-21 -8.5h-481zM353 -198q-19 0 -32.5 13.5
t-13.5 33.5q0 23 14.5 34.5t32.5 11.5q17 0 31.5 -11.5t14.5 -34.5q0 -20 -13.5 -33.5t-33.5 -13.5z" />
    <glyph glyph-name="Egrave" unicode="&#xc8;" horiz-adv-x="686" 
d="M130 0q-13 0 -21.5 8.5t-8.5 21.5v721q0 13 8.5 21.5t21.5 8.5h481q12 0 21 -8.5t9 -21.5q0 -12 -9 -21t-21 -9h-451v-300h331q13 0 21.5 -8.5t8.5 -21.5t-8.5 -22t-21.5 -9h-331v-300h451q12 0 21 -9t9 -21q0 -13 -9 -21.5t-21 -8.5h-481zM375 873q-10 0 -21 8l-123 123
q-8 8 -8 21q0 14 9 22.5t22 8.5q12 0 21 -9l123 -123q7 -7 7 -20t-8.5 -22t-21.5 -9z" />
    <glyph glyph-name="uni1EBA" unicode="&#x1eba;" horiz-adv-x="686" 
d="M130 0q-13 0 -21.5 8.5t-8.5 21.5v721q0 13 8.5 21.5t21.5 8.5h481q12 0 21 -8.5t9 -21.5q0 -12 -9 -21t-21 -9h-451v-300h331q13 0 21.5 -8.5t8.5 -21.5t-8.5 -22t-21.5 -9h-331v-300h451q12 0 21 -9t9 -21q0 -13 -9 -21.5t-21 -8.5h-481zM372 830q-12 0 -20.5 8.5
t-8.5 20.5v33q0 26 26 32l24 5q24 5 33 16t9 30q0 24 -16 37.5t-39 13.5q-12 0 -22 -4t-20 -12q-4 -3 -9 -5t-10 -2q-12 0 -20.5 8.5t-8.5 20.5q0 14 10 22q17 14 37.5 22t42.5 8q47 0 80 -27.5t33 -75.5q0 -44 -27.5 -68t-64.5 -30v-24q0 -12 -8.5 -20.5t-20.5 -8.5z" />
    <glyph glyph-name="uni0206" unicode="&#x206;" horiz-adv-x="686" 
d="M130 0q-13 0 -21.5 8.5t-8.5 21.5v721q0 13 8.5 21.5t21.5 8.5h481q12 0 21 -8.5t9 -21.5q0 -12 -9 -21t-21 -9h-451v-300h331q13 0 21.5 -8.5t8.5 -21.5t-8.5 -22t-21.5 -9h-331v-300h451q12 0 21 -9t9 -21q0 -13 -9 -21.5t-21 -8.5h-481zM252 882q-13 0 -22 9t-9 22
q0 31 20.5 56t55.5 40t76 15q39 0 73 -13.5t56 -38.5t24 -60q-1 -12 -9.5 -21t-21.5 -9t-21.5 9t-8.5 22q0 23 -24.5 40t-67.5 17t-67 -17t-24 -40q0 -13 -8.5 -22t-21.5 -9z" />
    <glyph glyph-name="Emacron" unicode="&#x112;" horiz-adv-x="686" 
d="M130 0q-13 0 -21.5 8.5t-8.5 21.5v721q0 13 8.5 21.5t21.5 8.5h481q12 0 21 -8.5t9 -21.5q0 -12 -9 -21t-21 -9h-451v-300h331q13 0 21.5 -8.5t8.5 -21.5t-8.5 -22t-21.5 -9h-331v-300h451q12 0 21 -9t9 -21q0 -13 -9 -21.5t-21 -8.5h-481zM241 895q-13 0 -21.5 8.5
t-8.5 21.5t8.5 22t21.5 9h265q13 0 21.5 -9t8.5 -22t-8.5 -21.5t-21.5 -8.5h-265z" />
    <glyph glyph-name="Eogonek" unicode="&#x118;" horiz-adv-x="686" 
d="M130 0q-13 0 -21.5 8.5t-8.5 21.5v721q0 13 8.5 21.5t21.5 8.5h481q12 0 21 -8.5t9 -21.5q0 -12 -9 -21t-21 -9h-451v-300h331q13 0 21.5 -8.5t8.5 -21.5t-8.5 -22t-21.5 -9h-331v-300h451q12 0 21 -9t9 -21q0 -13 -9 -21.5t-21 -8.5h-481zM623 -251q-30 0 -55 15
t-40.5 40t-15.5 56q0 53 47 91q15 12 24.5 23t13.5 21q8 15 26 15q14 0 22.5 -8t8.5 -21q0 -19 -15.5 -38.5t-44.5 -41.5q-10 -8 -15.5 -19t-5.5 -22q0 -21 14.5 -35.5t35.5 -14.5q7 0 14 2t14 6l35 26q9 6 18 6q13 0 22 -9t9 -22q0 -15 -10 -23l-41 -28q-28 -19 -61 -19z
" />
    <glyph glyph-name="uni1EBC" unicode="&#x1ebc;" horiz-adv-x="686" 
d="M130 0q-13 0 -21.5 8.5t-8.5 21.5v721q0 13 8.5 21.5t21.5 8.5h481q12 0 21 -8.5t9 -21.5q0 -12 -9 -21t-21 -9h-451v-300h331q13 0 21.5 -8.5t8.5 -21.5t-8.5 -22t-21.5 -9h-331v-300h451q12 0 21 -9t9 -21q0 -13 -9 -21.5t-21 -8.5h-481zM479 864q-31 0 -54 12t-40 23
q-20 14 -31.5 18.5t-25.5 4.5q-20 0 -40 -10.5t-37 -30.5q-7 -10 -19 -12t-21 4q-12 7 -14 18.5t5 21.5q26 32 59 49.5t67 17.5q30 0 52 -11t38 -22q17 -11 29.5 -18t31.5 -7q18 0 31.5 5.5t23.5 16.5q8 9 19 12.5t20 -1.5q14 -7 17 -18t-5 -22q-39 -51 -106 -51z" />
    <glyph glyph-name="F" unicode="F" horiz-adv-x="625" 
d="M69 0q-13 0 -21.5 8.5t-8.5 21.5v721q0 13 8.5 21.5t21.5 8.5h481q12 0 21 -8.5t9 -21.5q0 -12 -9 -21t-21 -9h-451v-300h331q13 0 21.5 -8.5t8.5 -21.5t-8.5 -22t-21.5 -9h-331v-330q0 -13 -8.5 -21.5t-21.5 -8.5z" />
    <glyph glyph-name="G" unicode="G" horiz-adv-x="767" 
d="M451 -10q-80 0 -150.5 31.5t-124.5 87t-85 128t-31 154.5q0 81 30 153.5t83.5 128t124.5 87t153 31.5q69 0 131 -22t116 -67q9 -7 9 -19.5t-8 -22t-22 -9.5q-4 0 -8 1.5t-8 4t-9 6.5q-40 36 -91 52t-110 16q-67 0 -127 -27.5t-106 -75t-72 -108.5t-26 -129q0 -70 26 -132
t71.5 -109t105.5 -73.5t128 -26.5q59 0 110.5 18t96.5 55q8 7 19 5t19 -10t8 -21q0 -6 -1 -11t-6 -10q-49 -49 -113.5 -67.5t-132.5 -18.5zM704 97l-60 13v216h-168q-13 0 -21.5 8t-8.5 20q0 11 8.5 18.5t21.5 7.5h198q14 0 22 -8t8 -21v-254z" />
    <glyph glyph-name="Gbreve" unicode="&#x11e;" horiz-adv-x="767" 
d="M451 -10q-80 0 -150.5 31.5t-124.5 87t-85 128t-31 154.5q0 81 30 153.5t83.5 128t124.5 87t153 31.5q69 0 131 -22t116 -67q9 -7 9 -19.5t-8 -22t-22 -9.5q-4 0 -8 1.5t-8 4t-9 6.5q-40 36 -91 52t-110 16q-67 0 -127 -27.5t-106 -75t-72 -108.5t-26 -129q0 -70 26 -132
t71.5 -109t105.5 -73.5t128 -26.5q59 0 110.5 18t96.5 55q8 7 19 5t19 -10t8 -21q0 -6 -1 -11t-6 -10q-49 -49 -113.5 -67.5t-132.5 -18.5zM704 97l-60 13v216h-168q-13 0 -21.5 8t-8.5 20q0 11 8.5 18.5t21.5 7.5h198q14 0 22 -8t8 -21v-254zM433 882q-41 0 -76 15
t-55.5 40.5t-20.5 55.5q0 13 9 22t22 9t21.5 -9t8.5 -22q0 -22 24 -39.5t67 -17.5t67.5 17t24.5 40q0 13 8.5 22t21.5 9t21.5 -9t9.5 -21q-2 -34 -24 -59.5t-56 -39t-73 -13.5z" />
    <glyph glyph-name="Gcaron" unicode="&#x1e6;" horiz-adv-x="767" 
d="M451 -10q-80 0 -150.5 31.5t-124.5 87t-85 128t-31 154.5q0 81 30 153.5t83.5 128t124.5 87t153 31.5q69 0 131 -22t116 -67q9 -7 9 -19.5t-8 -22t-22 -9.5q-4 0 -8 1.5t-8 4t-9 6.5q-40 36 -91 52t-110 16q-67 0 -127 -27.5t-106 -75t-72 -108.5t-26 -129q0 -70 26 -132
t71.5 -109t105.5 -73.5t128 -26.5q59 0 110.5 18t96.5 55q8 7 19 5t19 -10t8 -21q0 -6 -1 -11t-6 -10q-49 -49 -113.5 -67.5t-132.5 -18.5zM704 97l-60 13v216h-168q-13 0 -21.5 8t-8.5 20q0 11 8.5 18.5t21.5 7.5h198q14 0 22 -8t8 -21v-254zM434 882q-10 0 -15 4l-121 80
q-16 10 -16 27t15 25t35 -6l102 -70l102 68q21 14 35.5 7t14.5 -24q0 -15 -16 -27l-121 -80q-5 -4 -15 -4z" />
    <glyph glyph-name="Gcircumflex" unicode="&#x11c;" horiz-adv-x="767" 
d="M451 -10q-80 0 -150.5 31.5t-124.5 87t-85 128t-31 154.5q0 81 30 153.5t83.5 128t124.5 87t153 31.5q69 0 131 -22t116 -67q9 -7 9 -19.5t-8 -22t-22 -9.5q-4 0 -8 1.5t-8 4t-9 6.5q-40 36 -91 52t-110 16q-67 0 -127 -27.5t-106 -75t-72 -108.5t-26 -129q0 -70 26 -132
t71.5 -109t105.5 -73.5t128 -26.5q59 0 110.5 18t96.5 55q8 7 19 5t19 -10t8 -21q0 -6 -1 -11t-6 -10q-49 -49 -113.5 -67.5t-132.5 -18.5zM704 97l-60 13v216h-168q-13 0 -21.5 8t-8.5 20q0 11 8.5 18.5t21.5 7.5h198q14 0 22 -8t8 -21v-254zM314 882q-13 0 -22.5 8.5
t-9.5 21.5q0 17 16 27l121 81q8 4 15 4q5 0 8.5 -1t6.5 -3l121 -81q16 -10 16 -27q0 -13 -8.5 -21.5t-22.5 -8.5q-6 0 -10 1.5t-9 4.5l-102 68l-102 -68q-9 -6 -18 -6z" />
    <glyph glyph-name="uni0122" unicode="&#x122;" horiz-adv-x="767" 
d="M451 -10q-80 0 -150.5 31.5t-124.5 87t-85 128t-31 154.5q0 81 30 153.5t83.5 128t124.5 87t153 31.5q69 0 131 -22t116 -67q9 -7 9 -19.5t-8 -22t-22 -9.5q-4 0 -8 1.5t-8 4t-9 6.5q-40 36 -91 52t-110 16q-67 0 -127 -27.5t-106 -75t-72 -108.5t-26 -129q0 -70 26 -132
t71.5 -109t105.5 -73.5t128 -26.5q59 0 110.5 18t96.5 55q8 7 19 5t19 -10t8 -21q0 -6 -1 -11t-6 -10q-49 -49 -113.5 -67.5t-132.5 -18.5zM704 97l-60 13v216h-168q-13 0 -21.5 8t-8.5 20q0 11 8.5 18.5t21.5 7.5h198q14 0 22 -8t8 -21v-254zM441 -232q-25 0 -52.5 9
t-46.5 24t-19 33q0 11 6.5 17.5t18.5 6.5q14 0 23 -5.5t18 -12.5t21.5 -12.5t33.5 -5.5q29 0 45.5 13t16.5 35q0 18 -15.5 30t-49.5 12q-21 0 -32.5 5.5t-11.5 18.5q0 25 40 25q53 0 87 -26.5t34 -67.5q0 -44 -34.5 -71.5t-82.5 -27.5z" />
    <glyph glyph-name="Gdotaccent" unicode="&#x120;" horiz-adv-x="767" 
d="M451 -10q-80 0 -150.5 31.5t-124.5 87t-85 128t-31 154.5q0 81 30 153.5t83.5 128t124.5 87t153 31.5q69 0 131 -22t116 -67q9 -7 9 -19.5t-8 -22t-22 -9.5q-4 0 -8 1.5t-8 4t-9 6.5q-40 36 -91 52t-110 16q-67 0 -127 -27.5t-106 -75t-72 -108.5t-26 -129q0 -70 26 -132
t71.5 -109t105.5 -73.5t128 -26.5q59 0 110.5 18t96.5 55q8 7 19 5t19 -10t8 -21q0 -6 -1 -11t-6 -10q-49 -49 -113.5 -67.5t-132.5 -18.5zM704 97l-60 13v216h-168q-13 0 -21.5 8t-8.5 20q0 11 8.5 18.5t21.5 7.5h198q14 0 22 -8t8 -21v-254zM433 896q-19 0 -32.5 13.5
t-13.5 33.5q0 23 14.5 34.5t32.5 11.5q17 0 31.5 -11.5t14.5 -34.5q0 -20 -13.5 -33.5t-33.5 -13.5z" />
    <glyph glyph-name="H" unicode="H" horiz-adv-x="825" 
d="M130 0q-13 0 -21.5 8.5t-8.5 21.5v721q0 13 8.5 21.5t21.5 8.5t21.5 -8.5t8.5 -21.5v-330h505v330q0 13 8.5 21.5t21.5 8.5q12 0 21 -8.5t9 -21.5v-721q0 -13 -9 -21.5t-21 -8.5q-13 0 -21.5 8.5t-8.5 21.5v337h-505v-337q0 -13 -8.5 -21.5t-21.5 -8.5z" />
    <glyph glyph-name="Hbar" unicode="&#x126;" horiz-adv-x="825" 
d="M130 0q-13 0 -21.5 8.5t-8.5 21.5v721q0 13 8.5 21.5t21.5 8.5t21.5 -8.5t8.5 -21.5v-330h505v330q0 13 8.5 21.5t21.5 8.5q12 0 21 -8.5t9 -21.5v-721q0 -13 -9 -21.5t-21 -8.5q-13 0 -21.5 8.5t-8.5 21.5v337h-505v-337q0 -13 -8.5 -21.5t-21.5 -8.5zM49 604
q-12 0 -19.5 7.5t-7.5 19.5t7.5 19.5t19.5 7.5h738q12 0 19.5 -7.5t7.5 -19.5t-7.5 -19.5t-19.5 -7.5h-738z" />
    <glyph glyph-name="Hcircumflex" unicode="&#x124;" horiz-adv-x="825" 
d="M130 0q-13 0 -21.5 8.5t-8.5 21.5v721q0 13 8.5 21.5t21.5 8.5t21.5 -8.5t8.5 -21.5v-330h505v330q0 13 8.5 21.5t21.5 8.5q12 0 21 -8.5t9 -21.5v-721q0 -13 -9 -21.5t-21 -8.5q-13 0 -21.5 8.5t-8.5 21.5v337h-505v-337q0 -13 -8.5 -21.5t-21.5 -8.5zM293 882
q-13 0 -22.5 8.5t-9.5 21.5q0 17 16 27l121 81q8 4 15 4q5 0 8.5 -1t6.5 -3l121 -81q16 -10 16 -27q0 -13 -8.5 -21.5t-22.5 -8.5q-6 0 -10 1.5t-9 4.5l-102 68l-102 -68q-9 -6 -18 -6z" />
    <glyph glyph-name="I" unicode="I" horiz-adv-x="260" 
d="M130 0q-13 0 -21.5 8.5t-8.5 21.5v721q0 13 8.5 21.5t21.5 8.5t21.5 -8.5t8.5 -21.5v-721q0 -13 -8.5 -21.5t-21.5 -8.5z" />
    <glyph glyph-name="IJ" unicode="&#x132;" horiz-adv-x="631" 
d="M321 -10q-61 0 -111 21.5t-80 64t-30 104.5q0 14 8.5 22t21.5 8t21.5 -8t8.5 -22q0 -47 22 -75.5t58.5 -41.5t80.5 -13q42 0 76 23.5t54 62t20 84.5v531q0 13 9 21.5t21 8.5q13 0 21.5 -8.5t8.5 -21.5v-531q0 -63 -28.5 -115t-76 -83.5t-105.5 -31.5zM130 290
q-13 0 -21.5 8.5t-8.5 21.5v431q0 13 8.5 21.5t21.5 8.5t21.5 -8.5t8.5 -21.5v-431q0 -13 -8.5 -21.5t-21.5 -8.5z" />
    <glyph glyph-name="Iacute" unicode="&#xcd;" horiz-adv-x="260" 
d="M130 0q-13 0 -21.5 8.5t-8.5 21.5v721q0 13 8.5 21.5t21.5 8.5t21.5 -8.5t8.5 -21.5v-721q0 -13 -8.5 -21.5t-21.5 -8.5zM115 862q-13 0 -22 9t-9 22q0 11 7 20l123 123q9 9 22 9t22 -8.5t9 -22.5q0 -5 -2 -10.5t-7 -10.5l-123 -123q-8 -8 -20 -8z" />
    <glyph glyph-name="Ibreve" unicode="&#x12c;" horiz-adv-x="260" 
d="M130 0q-13 0 -21.5 8.5t-8.5 21.5v721q0 13 8.5 21.5t21.5 8.5t21.5 -8.5t8.5 -21.5v-721q0 -13 -8.5 -21.5t-21.5 -8.5zM129 882q-41 0 -76 15t-55.5 40.5t-20.5 55.5q0 13 9 22t22 9t21.5 -9t8.5 -22q0 -22 24 -39.5t67 -17.5t67.5 17t24.5 40q0 13 8.5 22t21.5 9
t21.5 -9t9.5 -21q-2 -34 -24 -59.5t-56 -39t-73 -13.5z" />
    <glyph glyph-name="Icircumflex" unicode="&#xce;" horiz-adv-x="260" 
d="M130 0q-13 0 -21.5 8.5t-8.5 21.5v721q0 13 8.5 21.5t21.5 8.5t21.5 -8.5t8.5 -21.5v-721q0 -13 -8.5 -21.5t-21.5 -8.5zM10 882q-13 0 -22.5 8.5t-9.5 21.5q0 17 16 27l121 81q8 4 15 4q5 0 8.5 -1t6.5 -3l121 -81q16 -10 16 -27q0 -13 -8.5 -21.5t-22.5 -8.5
q-6 0 -10 1.5t-9 4.5l-102 68l-102 -68q-9 -6 -18 -6z" />
    <glyph glyph-name="uni0208" unicode="&#x208;" horiz-adv-x="260" 
d="M130 0q-13 0 -21.5 8.5t-8.5 21.5v721q0 13 8.5 21.5t21.5 8.5t21.5 -8.5t8.5 -21.5v-721q0 -13 -8.5 -21.5t-21.5 -8.5zM243 863q-14 0 -21 14l-65 137q-2 6 -2 11q0 11 8.5 20.5t22.5 9.5q9 0 16.5 -5t11.5 -14l46 -144q1 -2 1 -9q0 -10 -5.5 -15t-12.5 -5zM85 863
q-14 0 -20 14l-65 137q-1 2 -1.5 5t-0.5 6q0 11 8.5 20.5t22.5 9.5q9 0 16.5 -5t10.5 -14l47 -144q1 -1 1 -3.5v-5.5q0 -10 -5.5 -15t-13.5 -5z" />
    <glyph glyph-name="Idieresis" unicode="&#xcf;" horiz-adv-x="260" 
d="M130 0q-13 0 -21.5 8.5t-8.5 21.5v721q0 13 8.5 21.5t21.5 8.5t21.5 -8.5t8.5 -21.5v-721q0 -13 -8.5 -21.5t-21.5 -8.5zM30 891q-22 0 -37 15t-15 37q0 21 15 36t37 15t36.5 -15t14.5 -36q0 -22 -14.5 -37t-36.5 -15zM230 891q-22 0 -37 15t-15 37q0 21 15 36t37 15
t36.5 -15t14.5 -36q0 -22 -14.5 -37t-36.5 -15z" />
    <glyph glyph-name="Idotaccent" unicode="&#x130;" horiz-adv-x="260" 
d="M130 0q-13 0 -21.5 8.5t-8.5 21.5v721q0 13 8.5 21.5t21.5 8.5t21.5 -8.5t8.5 -21.5v-721q0 -13 -8.5 -21.5t-21.5 -8.5zM129 896q-19 0 -32.5 13.5t-13.5 33.5q0 23 14.5 34.5t32.5 11.5q17 0 31.5 -11.5t14.5 -34.5q0 -20 -13.5 -33.5t-33.5 -13.5z" />
    <glyph glyph-name="uni1ECA" unicode="&#x1eca;" horiz-adv-x="260" 
d="M130 0q-13 0 -21.5 8.5t-8.5 21.5v721q0 13 8.5 21.5t21.5 8.5t21.5 -8.5t8.5 -21.5v-721q0 -13 -8.5 -21.5t-21.5 -8.5zM129 -198q-19 0 -32.5 13.5t-13.5 33.5q0 23 14.5 34.5t32.5 11.5q17 0 31.5 -11.5t14.5 -34.5q0 -20 -13.5 -33.5t-33.5 -13.5z" />
    <glyph glyph-name="Igrave" unicode="&#xcc;" horiz-adv-x="260" 
d="M130 0q-13 0 -21.5 8.5t-8.5 21.5v721q0 13 8.5 21.5t21.5 8.5t21.5 -8.5t8.5 -21.5v-721q0 -13 -8.5 -21.5t-21.5 -8.5zM131 873q-10 0 -21 8l-123 123q-8 8 -8 21q0 14 9 22.5t22 8.5q12 0 21 -9l123 -123q7 -7 7 -20t-8.5 -22t-21.5 -9z" />
    <glyph glyph-name="uni1EC8" unicode="&#x1ec8;" horiz-adv-x="260" 
d="M130 0q-13 0 -21.5 8.5t-8.5 21.5v721q0 13 8.5 21.5t21.5 8.5t21.5 -8.5t8.5 -21.5v-721q0 -13 -8.5 -21.5t-21.5 -8.5zM128 830q-12 0 -20.5 8.5t-8.5 20.5v33q0 26 26 32l24 5q24 5 33 16t9 30q0 24 -16 37.5t-39 13.5q-12 0 -22 -4t-20 -12q-4 -3 -9 -5t-10 -2
q-12 0 -20.5 8.5t-8.5 20.5q0 14 10 22q17 14 37.5 22t42.5 8q47 0 80 -27.5t33 -75.5q0 -44 -27.5 -68t-64.5 -30v-24q0 -12 -8.5 -20.5t-20.5 -8.5z" />
    <glyph glyph-name="uni020A" unicode="&#x20a;" horiz-adv-x="260" 
d="M130 0q-13 0 -21.5 8.5t-8.5 21.5v721q0 13 8.5 21.5t21.5 8.5t21.5 -8.5t8.5 -21.5v-721q0 -13 -8.5 -21.5t-21.5 -8.5zM8 882q-13 0 -22 9t-9 22q0 31 20.5 56t55.5 40t76 15q39 0 73 -13.5t56 -38.5t24 -60q-1 -12 -9.5 -21t-21.5 -9t-21.5 9t-8.5 22q0 23 -24.5 40
t-67.5 17t-67 -17t-24 -40q0 -13 -8.5 -22t-21.5 -9z" />
    <glyph glyph-name="Imacron" unicode="&#x12a;" horiz-adv-x="260" 
d="M130 0q-13 0 -21.5 8.5t-8.5 21.5v721q0 13 8.5 21.5t21.5 8.5t21.5 -8.5t8.5 -21.5v-721q0 -13 -8.5 -21.5t-21.5 -8.5zM-3 895q-13 0 -21.5 8.5t-8.5 21.5t8.5 22t21.5 9h265q13 0 21.5 -9t8.5 -22t-8.5 -21.5t-21.5 -8.5h-265z" />
    <glyph glyph-name="Iogonek" unicode="&#x12e;" horiz-adv-x="260" 
d="M130 0q-13 0 -21.5 8.5t-8.5 21.5v721q0 13 8.5 21.5t21.5 8.5t21.5 -8.5t8.5 -21.5v-721q0 -13 -8.5 -21.5t-21.5 -8.5zM130 -251q-30 0 -55 15t-40.5 40t-15.5 56q0 53 47 91q15 12 24.5 23t13.5 21q8 15 26 15q14 0 22.5 -8t8.5 -21q0 -19 -15.5 -38.5t-44.5 -41.5
q-10 -8 -15.5 -19t-5.5 -22q0 -21 14.5 -35.5t35.5 -14.5q7 0 14 2t14 6l35 26q9 6 18 6q13 0 22 -9t9 -22q0 -15 -10 -23l-41 -28q-28 -19 -61 -19z" />
    <glyph glyph-name="Itilde" unicode="&#x128;" horiz-adv-x="260" 
d="M130 0q-13 0 -21.5 8.5t-8.5 21.5v721q0 13 8.5 21.5t21.5 8.5t21.5 -8.5t8.5 -21.5v-721q0 -13 -8.5 -21.5t-21.5 -8.5zM191 886q-24 0 -43 12t-30 22q-15 15 -25.5 22t-23.5 7t-22 -11.5t-20 -31.5q-6 -11 -16 -15.5t-20 -1.5q-11 4 -15 14.5t1 22.5q17 40 39 57t52 17
q26 0 41 -9.5t31 -23.5q20 -16 29.5 -22t17.5 -6q15 0 26 30q5 12 15.5 18t20.5 3q14 -4 19 -14t0 -23q-15 -37 -34 -52t-43 -15z" />
    <glyph glyph-name="J" unicode="J" horiz-adv-x="606" 
d="M276 -10q-64 0 -116.5 31.5t-83.5 84t-31 114.5q0 14 8.5 22t21.5 8t21.5 -8t8.5 -22q0 -47 23.5 -85.5t62.5 -61.5t85 -23q47 0 85.5 23.5t61.5 62t23 84.5v531q0 13 9 21.5t21 8.5q13 0 21.5 -8.5t8.5 -21.5v-531q0 -63 -31 -115t-83.5 -83.5t-115.5 -31.5z" />
    <glyph glyph-name="Jcircumflex" unicode="&#x134;" horiz-adv-x="606" 
d="M276 -10q-64 0 -116.5 31.5t-83.5 84t-31 114.5q0 14 8.5 22t21.5 8t21.5 -8t8.5 -22q0 -47 23.5 -85.5t62.5 -61.5t85 -23q47 0 85.5 23.5t61.5 62t23 84.5v531q0 13 9 21.5t21 8.5q13 0 21.5 -8.5t8.5 -21.5v-531q0 -63 -31 -115t-83.5 -83.5t-115.5 -31.5zM356 882
q-13 0 -22.5 8.5t-9.5 21.5q0 17 16 27l121 81q8 4 15 4q5 0 8.5 -1t6.5 -3l121 -81q16 -10 16 -27q0 -13 -8.5 -21.5t-22.5 -8.5q-6 0 -10 1.5t-9 4.5l-102 68l-102 -68q-9 -6 -18 -6z" />
    <glyph glyph-name="K" unicode="K" horiz-adv-x="647" 
d="M130 0q-12 0 -21 8.5t-9 21.5v721q0 13 9 21.5t21 8.5q13 0 21.5 -8.5t8.5 -21.5v-367l388 388q5 5 10.5 7t12.5 2q13 0 21 -8.5t9 -20.5t-9 -23l-287 -287l290 -394q8 -11 6 -22.5t-10 -18.5t-19 -7q-17 0 -26 13l-285 385l-101 -101v-267q0 -13 -8.5 -21.5t-21.5 -8.5z
" />
    <glyph glyph-name="uni0136" unicode="&#x136;" horiz-adv-x="647" 
d="M130 0q-12 0 -21 8.5t-9 21.5v721q0 13 9 21.5t21 8.5q13 0 21.5 -8.5t8.5 -21.5v-367l388 388q5 5 10.5 7t12.5 2q13 0 21 -8.5t9 -20.5t-9 -23l-287 -287l290 -394q8 -11 6 -22.5t-10 -18.5t-19 -7q-17 0 -26 13l-285 385l-101 -101v-267q0 -13 -8.5 -21.5t-21.5 -8.5z
M331 -232q-25 0 -52.5 9t-46.5 24t-19 33q0 11 6.5 17.5t18.5 6.5q14 0 23 -5.5t18 -12.5t21.5 -12.5t33.5 -5.5q29 0 45.5 13t16.5 35q0 18 -15.5 30t-49.5 12q-21 0 -32.5 5.5t-11.5 18.5q0 25 40 25q53 0 87 -26.5t34 -67.5q0 -44 -34.5 -71.5t-82.5 -27.5z" />
    <glyph glyph-name="L" unicode="L" horiz-adv-x="626" 
d="M130 0q-12 0 -21 8.5t-9 21.5v721q0 13 9 21.5t21 8.5q13 0 21.5 -8.5t8.5 -21.5v-697h411q14 0 22 -7.5t8 -19.5t-8 -19.5t-22 -7.5h-441z" />
    <glyph glyph-name="Lacute" unicode="&#x139;" horiz-adv-x="626" 
d="M130 0q-12 0 -21 8.5t-9 21.5v721q0 13 9 21.5t21 8.5q13 0 21.5 -8.5t8.5 -21.5v-697h411q14 0 22 -7.5t8 -19.5t-8 -19.5t-22 -7.5h-441zM115 862q-13 0 -22 9t-9 22q0 11 7 20l123 123q9 9 22 9t22 -8.5t9 -22.5q0 -5 -2 -10.5t-7 -10.5l-123 -123q-8 -8 -20 -8z" />
    <glyph glyph-name="Lcaron" unicode="&#x13d;" horiz-adv-x="626" 
d="M130 0q-12 0 -21 8.5t-9 21.5v721q0 13 9 21.5t21 8.5q13 0 21.5 -8.5t8.5 -21.5v-697h411q14 0 22 -7.5t8 -19.5t-8 -19.5t-22 -7.5h-441zM385 539q-8 2 -12.5 8.5t-3.5 14.5q2 9 9.5 21.5t16 32t10.5 48.5q2 18 -2.5 28.5t-9.5 22t-5 29.5q0 23 13.5 30t29.5 7
q29 0 40 -30t3 -71q-4 -22 -15 -47t-24.5 -47t-26.5 -35.5t-23 -11.5z" />
    <glyph glyph-name="uni013B" unicode="&#x13b;" horiz-adv-x="626" 
d="M130 0q-12 0 -21 8.5t-9 21.5v721q0 13 9 21.5t21 8.5q13 0 21.5 -8.5t8.5 -21.5v-697h411q14 0 22 -7.5t8 -19.5t-8 -19.5t-22 -7.5h-441zM330 -232q-25 0 -52.5 9t-46.5 24t-19 33q0 11 6.5 17.5t18.5 6.5q14 0 23 -5.5t18 -12.5t21.5 -12.5t33.5 -5.5q29 0 45.5 13
t16.5 35q0 18 -15.5 30t-49.5 12q-21 0 -32.5 5.5t-11.5 18.5q0 25 40 25q53 0 87 -26.5t34 -67.5q0 -44 -34.5 -71.5t-82.5 -27.5z" />
    <glyph glyph-name="Ldot" unicode="&#x13f;" horiz-adv-x="586" 
d="M130 0q-12 0 -21 8.5t-9 21.5v721q0 13 9 21.5t21 8.5q13 0 21.5 -8.5t8.5 -21.5v-697h411q14 0 22 -7.5t8 -19.5t-8 -19.5t-22 -7.5h-441zM434 324q-21 0 -36 14.5t-15 36.5q0 21 14.5 35.5t36.5 14.5t36 -15t14 -35q0 -22 -14.5 -36.5t-35.5 -14.5z" />
    <glyph glyph-name="Lslash" unicode="&#x141;" horiz-adv-x="664" 
d="M150 0q-13 0 -21.5 8.5t-8.5 21.5v290l-57 -56q-7 -9 -21 -9q-11 0 -20 9t-9 22q0 11 8 21l99 98v346q0 13 8.5 21.5t21.5 8.5t21.5 -8.5t8.5 -21.5v-287l111 110q5 4 9.5 7t11.5 3q12 0 21 -9.5t9 -21.5t-9 -21l-153 -153v-319h411q13 0 21.5 -9t8.5 -21
q0 -13 -8.5 -21.5t-21.5 -8.5h-441z" />
    <glyph glyph-name="M" unicode="M" horiz-adv-x="981" 
d="M130 0q-13 0 -21.5 8.5t-8.5 21.5v721q0 13 8.5 21.5t21.5 8.5q20 0 27 -15l354 -699h-35l349 699q9 15 27 15q13 0 21 -8.5t8 -21.5v-721q0 -13 -8 -21.5t-21 -8.5t-22 8.5t-9 21.5v649l15 -5l-319 -650q-7 -14 -26 -14q-18 0 -28 19l-323 645l20 5v-649
q0 -13 -8.5 -21.5t-21.5 -8.5z" />
    <glyph glyph-name="N" unicode="N" horiz-adv-x="821" 
d="M130 0q-13 0 -21.5 8.5t-8.5 21.5v721q0 13 8.5 21.5t21.5 8.5q14 0 23 -10l508 -661v641q0 13 8.5 21.5t21.5 8.5q12 0 21 -8.5t9 -21.5v-721q0 -13 -9 -21.5t-21 -8.5q-7 0 -12.5 2.5t-9.5 6.5l-509 662v-641q0 -13 -8.5 -21.5t-21.5 -8.5z" />
    <glyph glyph-name="Nacute" unicode="&#x143;" horiz-adv-x="821" 
d="M130 0q-13 0 -21.5 8.5t-8.5 21.5v721q0 13 8.5 21.5t21.5 8.5q14 0 23 -10l508 -661v641q0 13 8.5 21.5t21.5 8.5q12 0 21 -8.5t9 -21.5v-721q0 -13 -9 -21.5t-21 -8.5q-7 0 -12.5 2.5t-9.5 6.5l-509 662v-641q0 -13 -8.5 -21.5t-21.5 -8.5zM396 862q-13 0 -22 9t-9 22
q0 11 7 20l123 123q9 9 22 9t22 -8.5t9 -22.5q0 -5 -2 -10.5t-7 -10.5l-123 -123q-8 -8 -20 -8z" />
    <glyph glyph-name="Ncaron" unicode="&#x147;" horiz-adv-x="821" 
d="M130 0q-13 0 -21.5 8.5t-8.5 21.5v721q0 13 8.5 21.5t21.5 8.5q14 0 23 -10l508 -661v641q0 13 8.5 21.5t21.5 8.5q12 0 21 -8.5t9 -21.5v-721q0 -13 -9 -21.5t-21 -8.5q-7 0 -12.5 2.5t-9.5 6.5l-509 662v-641q0 -13 -8.5 -21.5t-21.5 -8.5zM411 882q-10 0 -15 4
l-121 80q-16 10 -16 27t15 25t35 -6l102 -70l102 68q21 14 35.5 7t14.5 -24q0 -15 -16 -27l-121 -80q-5 -4 -15 -4z" />
    <glyph glyph-name="uni0145" unicode="&#x145;" horiz-adv-x="821" 
d="M130 0q-13 0 -21.5 8.5t-8.5 21.5v721q0 13 8.5 21.5t21.5 8.5q14 0 23 -10l508 -661v641q0 13 8.5 21.5t21.5 8.5q12 0 21 -8.5t9 -21.5v-721q0 -13 -9 -21.5t-21 -8.5q-7 0 -12.5 2.5t-9.5 6.5l-509 662v-641q0 -13 -8.5 -21.5t-21.5 -8.5zM418 -232q-25 0 -52.5 9
t-46.5 24t-19 33q0 11 6.5 17.5t18.5 6.5q14 0 23 -5.5t18 -12.5t21.5 -12.5t33.5 -5.5q29 0 45.5 13t16.5 35q0 18 -15.5 30t-49.5 12q-21 0 -32.5 5.5t-11.5 18.5q0 25 40 25q53 0 87 -26.5t34 -67.5q0 -44 -34.5 -71.5t-82.5 -27.5z" />
    <glyph glyph-name="Eng" unicode="&#x14a;" horiz-adv-x="693" 
d="M412 -9q-42 0 -79.5 14t-63.5 38t-34 55q-3 13 4 21t20 8q9 0 17.5 -6.5t13.5 -17.5q13 -25 49 -40.5t73 -15.5q74 0 112.5 67t38.5 204v168q0 69 -23.5 122t-69 83t-110.5 30q-58 0 -103.5 -20t-71 -55.5t-25.5 -82.5v123q32 44 84 69.5t116 25.5q72 0 132 -35.5
t95.5 -99.5t35.5 -150v-178q0 -161 -55 -244t-156 -83zM130 0q-13 0 -21.5 8.5t-8.5 21.5v721q0 13 8.5 21.5t21.5 8.5t21.5 -8.5t8.5 -21.5v-721q0 -13 -8.5 -21.5t-21.5 -8.5z" />
    <glyph glyph-name="Ntilde" unicode="&#xd1;" horiz-adv-x="821" 
d="M130 0q-13 0 -21.5 8.5t-8.5 21.5v721q0 13 8.5 21.5t21.5 8.5q14 0 23 -10l508 -661v641q0 13 8.5 21.5t21.5 8.5q12 0 21 -8.5t9 -21.5v-721q0 -13 -9 -21.5t-21 -8.5q-7 0 -12.5 2.5t-9.5 6.5l-509 662v-641q0 -13 -8.5 -21.5t-21.5 -8.5zM516 864q-31 0 -54 12
t-40 23q-20 14 -31.5 18.5t-25.5 4.5q-20 0 -40 -10.5t-37 -30.5q-7 -10 -19 -12t-21 4q-12 7 -14 18.5t5 21.5q26 32 59 49.5t67 17.5q30 0 52 -11t38 -22q17 -11 29.5 -18t31.5 -7q18 0 31.5 5.5t23.5 16.5q8 9 19 12.5t20 -1.5q14 -7 17 -18t-5 -22q-39 -51 -106 -51z
" />
    <glyph glyph-name="O" unicode="O" horiz-adv-x="921" 
d="M461 -10q-86 0 -159 30t-127.5 84.5t-84.5 127.5t-30 159t30 158.5t84.5 127t127.5 84.5t159 30t158.5 -30t127 -84.5t84.5 -127t30 -158.5t-30 -159t-84.5 -127.5t-127 -84.5t-158.5 -30zM461 50q72 0 134 25.5t108.5 72t72 108.5t25.5 135q0 72 -25.5 134t-72 108.5
t-108.5 72t-134 25.5q-73 0 -135 -25.5t-108.5 -72t-72 -108.5t-25.5 -134q0 -73 25.5 -135t72 -108.5t108.5 -72t135 -25.5z" />
    <glyph glyph-name="Oacute" unicode="&#xd3;" horiz-adv-x="921" 
d="M461 -10q-86 0 -159 30t-127.5 84.5t-84.5 127.5t-30 159t30 158.5t84.5 127t127.5 84.5t159 30t158.5 -30t127 -84.5t84.5 -127t30 -158.5t-30 -159t-84.5 -127.5t-127 -84.5t-158.5 -30zM461 50q72 0 134 25.5t108.5 72t72 108.5t25.5 135q0 72 -25.5 134t-72 108.5
t-108.5 72t-134 25.5q-73 0 -135 -25.5t-108.5 -72t-72 -108.5t-25.5 -134q0 -73 25.5 -135t72 -108.5t108.5 -72t135 -25.5zM446 862q-13 0 -22 9t-9 22q0 11 7 20l123 123q9 9 22 9t22 -8.5t9 -22.5q0 -5 -2 -10.5t-7 -10.5l-123 -123q-8 -8 -20 -8z" />
    <glyph glyph-name="Obreve" unicode="&#x14e;" horiz-adv-x="921" 
d="M461 -10q-86 0 -159 30t-127.5 84.5t-84.5 127.5t-30 159t30 158.5t84.5 127t127.5 84.5t159 30t158.5 -30t127 -84.5t84.5 -127t30 -158.5t-30 -159t-84.5 -127.5t-127 -84.5t-158.5 -30zM461 50q72 0 134 25.5t108.5 72t72 108.5t25.5 135q0 72 -25.5 134t-72 108.5
t-108.5 72t-134 25.5q-73 0 -135 -25.5t-108.5 -72t-72 -108.5t-25.5 -134q0 -73 25.5 -135t72 -108.5t108.5 -72t135 -25.5zM460 882q-41 0 -76 15t-55.5 40.5t-20.5 55.5q0 13 9 22t22 9t21.5 -9t8.5 -22q0 -22 24 -39.5t67 -17.5t67.5 17t24.5 40q0 13 8.5 22t21.5 9
t21.5 -9t9.5 -21q-2 -34 -24 -59.5t-56 -39t-73 -13.5z" />
    <glyph glyph-name="Ocircumflex" unicode="&#xd4;" horiz-adv-x="921" 
d="M461 -10q-86 0 -159 30t-127.5 84.5t-84.5 127.5t-30 159t30 158.5t84.5 127t127.5 84.5t159 30t158.5 -30t127 -84.5t84.5 -127t30 -158.5t-30 -159t-84.5 -127.5t-127 -84.5t-158.5 -30zM461 50q72 0 134 25.5t108.5 72t72 108.5t25.5 135q0 72 -25.5 134t-72 108.5
t-108.5 72t-134 25.5q-73 0 -135 -25.5t-108.5 -72t-72 -108.5t-25.5 -134q0 -73 25.5 -135t72 -108.5t108.5 -72t135 -25.5zM341 882q-13 0 -22.5 8.5t-9.5 21.5q0 17 16 27l121 81q8 4 15 4q5 0 8.5 -1t6.5 -3l121 -81q16 -10 16 -27q0 -13 -8.5 -21.5t-22.5 -8.5
q-6 0 -10 1.5t-9 4.5l-102 68l-102 -68q-9 -6 -18 -6z" />
    <glyph glyph-name="uni1ED0" unicode="&#x1ed0;" horiz-adv-x="921" 
d="M461 -10q-86 0 -159 30t-127.5 84.5t-84.5 127.5t-30 159t30 158.5t84.5 127t127.5 84.5t159 30t158.5 -30t127 -84.5t84.5 -127t30 -158.5t-30 -159t-84.5 -127.5t-127 -84.5t-158.5 -30zM461 50q72 0 134 25.5t108.5 72t72 108.5t25.5 135q0 72 -25.5 134t-72 108.5
t-108.5 72t-134 25.5q-73 0 -135 -25.5t-108.5 -72t-72 -108.5t-25.5 -134q0 -73 25.5 -135t72 -108.5t108.5 -72t135 -25.5zM341 882q-13 0 -22.5 8.5t-9.5 21.5q0 17 16 27l121 81q8 4 15 4q5 0 8.5 -1t6.5 -3l121 -81q16 -10 16 -27q0 -13 -8.5 -21.5t-22.5 -8.5
q-6 0 -10 1.5t-9 4.5l-102 68l-102 -68q-9 -6 -18 -6zM537 1048q-13 0 -22 9t-9 22q0 11 7 20l123 123q9 9 22 9t22 -8.5t9 -22.5q0 -5 -2 -10.5t-7 -10.5l-123 -123q-8 -8 -20 -8z" />
    <glyph glyph-name="uni1ED8" unicode="&#x1ed8;" horiz-adv-x="921" 
d="M461 -10q-86 0 -159 30t-127.5 84.5t-84.5 127.5t-30 159t30 158.5t84.5 127t127.5 84.5t159 30t158.5 -30t127 -84.5t84.5 -127t30 -158.5t-30 -159t-84.5 -127.5t-127 -84.5t-158.5 -30zM461 50q72 0 134 25.5t108.5 72t72 108.5t25.5 135q0 72 -25.5 134t-72 108.5
t-108.5 72t-134 25.5q-73 0 -135 -25.5t-108.5 -72t-72 -108.5t-25.5 -134q0 -73 25.5 -135t72 -108.5t108.5 -72t135 -25.5zM341 882q-13 0 -22.5 8.5t-9.5 21.5q0 17 16 27l121 81q8 4 15 4q5 0 8.5 -1t6.5 -3l121 -81q16 -10 16 -27q0 -13 -8.5 -21.5t-22.5 -8.5
q-6 0 -10 1.5t-9 4.5l-102 68l-102 -68q-9 -6 -18 -6zM460 -198q-19 0 -32.5 13.5t-13.5 33.5q0 23 14.5 34.5t32.5 11.5q17 0 31.5 -11.5t14.5 -34.5q0 -20 -13.5 -33.5t-33.5 -13.5z" />
    <glyph glyph-name="uni1ED2" unicode="&#x1ed2;" horiz-adv-x="921" 
d="M461 -10q-86 0 -159 30t-127.5 84.5t-84.5 127.5t-30 159t30 158.5t84.5 127t127.5 84.5t159 30t158.5 -30t127 -84.5t84.5 -127t30 -158.5t-30 -159t-84.5 -127.5t-127 -84.5t-158.5 -30zM461 50q72 0 134 25.5t108.5 72t72 108.5t25.5 135q0 72 -25.5 134t-72 108.5
t-108.5 72t-134 25.5q-73 0 -135 -25.5t-108.5 -72t-72 -108.5t-25.5 -134q0 -73 25.5 -135t72 -108.5t108.5 -72t135 -25.5zM341 882q-13 0 -22.5 8.5t-9.5 21.5q0 17 16 27l121 81q8 4 15 4q5 0 8.5 -1t6.5 -3l121 -81q16 -10 16 -27q0 -13 -8.5 -21.5t-22.5 -8.5
q-6 0 -10 1.5t-9 4.5l-102 68l-102 -68q-9 -6 -18 -6zM553 1059q-10 0 -21 8l-123 123q-8 8 -8 21q0 14 9 22.5t22 8.5q12 0 21 -9l123 -123q7 -7 7 -20t-8.5 -22t-21.5 -9z" />
    <glyph glyph-name="uni1ED4" unicode="&#x1ed4;" horiz-adv-x="921" 
d="M461 -10q-86 0 -159 30t-127.5 84.5t-84.5 127.5t-30 159t30 158.5t84.5 127t127.5 84.5t159 30t158.5 -30t127 -84.5t84.5 -127t30 -158.5t-30 -159t-84.5 -127.5t-127 -84.5t-158.5 -30zM461 50q72 0 134 25.5t108.5 72t72 108.5t25.5 135q0 72 -25.5 134t-72 108.5
t-108.5 72t-134 25.5q-73 0 -135 -25.5t-108.5 -72t-72 -108.5t-25.5 -134q0 -73 25.5 -135t72 -108.5t108.5 -72t135 -25.5zM342 882q-13 0 -22.5 8.5t-9.5 21.5q0 17 16 27l121 81q8 4 15 4q5 0 8.5 -1t6.5 -3l121 -81q16 -10 16 -27q0 -13 -8.5 -21.5t-22.5 -8.5
q-6 0 -10 1.5t-9 4.5l-102 68l-102 -68q-9 -6 -18 -6zM551 1016q-12 0 -20.5 8.5t-8.5 20.5v33q0 26 26 32l24 5q24 5 33 16t9 30q0 24 -16 37.5t-39 13.5q-12 0 -22 -4t-20 -12q-4 -3 -9 -5t-10 -2q-12 0 -20.5 8.5t-8.5 20.5q0 14 10 22q17 14 37.5 22t42.5 8
q47 0 80 -27.5t33 -75.5q0 -44 -27.5 -68t-64.5 -30v-24q0 -12 -8.5 -20.5t-20.5 -8.5z" />
    <glyph glyph-name="uni1ED6" unicode="&#x1ed6;" horiz-adv-x="921" 
d="M461 -10q-86 0 -159 30t-127.5 84.5t-84.5 127.5t-30 159t30 158.5t84.5 127t127.5 84.5t159 30t158.5 -30t127 -84.5t84.5 -127t30 -158.5t-30 -159t-84.5 -127.5t-127 -84.5t-158.5 -30zM461 50q72 0 134 25.5t108.5 72t72 108.5t25.5 135q0 72 -25.5 134t-72 108.5
t-108.5 72t-134 25.5q-73 0 -135 -25.5t-108.5 -72t-72 -108.5t-25.5 -134q0 -73 25.5 -135t72 -108.5t108.5 -72t135 -25.5zM341 882q-13 0 -22.5 8.5t-9.5 21.5q0 17 16 27l121 81q8 4 15 4q5 0 8.5 -1t6.5 -3l121 -81q16 -10 16 -27q0 -13 -8.5 -21.5t-22.5 -8.5
q-6 0 -10 1.5t-9 4.5l-102 68l-102 -68q-9 -6 -18 -6zM521 1052q-24 0 -43 12t-30 22q-15 15 -25.5 22t-23.5 7t-22 -11.5t-20 -31.5q-6 -11 -16 -15.5t-20 -1.5q-11 4 -15 14.5t1 22.5q17 40 39 57t52 17q26 0 41 -9.5t31 -23.5q20 -16 29.5 -22t17.5 -6q15 0 26 30
q5 12 15.5 18t20.5 3q14 -4 19 -14t0 -23q-15 -37 -34 -52t-43 -15z" />
    <glyph glyph-name="uni020C" unicode="&#x20c;" horiz-adv-x="921" 
d="M461 -10q-86 0 -159 30t-127.5 84.5t-84.5 127.5t-30 159t30 158.5t84.5 127t127.5 84.5t159 30t158.5 -30t127 -84.5t84.5 -127t30 -158.5t-30 -159t-84.5 -127.5t-127 -84.5t-158.5 -30zM461 50q72 0 134 25.5t108.5 72t72 108.5t25.5 135q0 72 -25.5 134t-72 108.5
t-108.5 72t-134 25.5q-73 0 -135 -25.5t-108.5 -72t-72 -108.5t-25.5 -134q0 -73 25.5 -135t72 -108.5t108.5 -72t135 -25.5zM574 863q-14 0 -21 14l-65 137q-2 6 -2 11q0 11 8.5 20.5t22.5 9.5q9 0 16.5 -5t11.5 -14l46 -144q1 -2 1 -9q0 -10 -5.5 -15t-12.5 -5zM416 863
q-14 0 -20 14l-65 137q-1 2 -1.5 5t-0.5 6q0 11 8.5 20.5t22.5 9.5q9 0 16.5 -5t10.5 -14l47 -144q1 -1 1 -3.5v-5.5q0 -10 -5.5 -15t-13.5 -5z" />
    <glyph glyph-name="Odieresis" unicode="&#xd6;" horiz-adv-x="921" 
d="M461 -10q-86 0 -159 30t-127.5 84.5t-84.5 127.5t-30 159t30 158.5t84.5 127t127.5 84.5t159 30t158.5 -30t127 -84.5t84.5 -127t30 -158.5t-30 -159t-84.5 -127.5t-127 -84.5t-158.5 -30zM461 50q72 0 134 25.5t108.5 72t72 108.5t25.5 135q0 72 -25.5 134t-72 108.5
t-108.5 72t-134 25.5q-73 0 -135 -25.5t-108.5 -72t-72 -108.5t-25.5 -134q0 -73 25.5 -135t72 -108.5t108.5 -72t135 -25.5zM361 891q-22 0 -37 15t-15 37q0 21 15 36t37 15t36.5 -15t14.5 -36q0 -22 -14.5 -37t-36.5 -15zM561 891q-22 0 -37 15t-15 37q0 21 15 36t37 15
t36.5 -15t14.5 -36q0 -22 -14.5 -37t-36.5 -15z" />
    <glyph glyph-name="uni022A" unicode="&#x22a;" horiz-adv-x="921" 
d="M461 -10q-86 0 -159 30t-127.5 84.5t-84.5 127.5t-30 159t30 158.5t84.5 127t127.5 84.5t159 30t158.5 -30t127 -84.5t84.5 -127t30 -158.5t-30 -159t-84.5 -127.5t-127 -84.5t-158.5 -30zM461 50q72 0 134 25.5t108.5 72t72 108.5t25.5 135q0 72 -25.5 134t-72 108.5
t-108.5 72t-134 25.5q-73 0 -135 -25.5t-108.5 -72t-72 -108.5t-25.5 -134q0 -73 25.5 -135t72 -108.5t108.5 -72t135 -25.5zM361 891q-22 0 -37 15t-15 37q0 21 15 36t37 15t36.5 -15t14.5 -36q0 -22 -14.5 -37t-36.5 -15zM561 891q-22 0 -37 15t-15 37q0 21 15 36t37 15
t36.5 -15t14.5 -36q0 -22 -14.5 -37t-36.5 -15zM328 1078q-13 0 -21.5 8.5t-8.5 21.5t8.5 22t21.5 9h265q13 0 21.5 -9t8.5 -22t-8.5 -21.5t-21.5 -8.5h-265z" />
    <glyph glyph-name="uni0230" unicode="&#x230;" horiz-adv-x="921" 
d="M461 -10q-86 0 -159 30t-127.5 84.5t-84.5 127.5t-30 159t30 158.5t84.5 127t127.5 84.5t159 30t158.5 -30t127 -84.5t84.5 -127t30 -158.5t-30 -159t-84.5 -127.5t-127 -84.5t-158.5 -30zM461 50q72 0 134 25.5t108.5 72t72 108.5t25.5 135q0 72 -25.5 134t-72 108.5
t-108.5 72t-134 25.5q-73 0 -135 -25.5t-108.5 -72t-72 -108.5t-25.5 -134q0 -73 25.5 -135t72 -108.5t108.5 -72t135 -25.5zM460 896q-19 0 -32.5 13.5t-13.5 33.5q0 23 14.5 34.5t32.5 11.5q17 0 31.5 -11.5t14.5 -34.5q0 -20 -13.5 -33.5t-33.5 -13.5zM328 1053
q-13 0 -21.5 8.5t-8.5 21.5t8.5 22t21.5 9h265q13 0 21.5 -9t8.5 -22t-8.5 -21.5t-21.5 -8.5h-265z" />
    <glyph glyph-name="uni1ECC" unicode="&#x1ecc;" horiz-adv-x="921" 
d="M461 -10q-86 0 -159 30t-127.5 84.5t-84.5 127.5t-30 159t30 158.5t84.5 127t127.5 84.5t159 30t158.5 -30t127 -84.5t84.5 -127t30 -158.5t-30 -159t-84.5 -127.5t-127 -84.5t-158.5 -30zM461 50q72 0 134 25.5t108.5 72t72 108.5t25.5 135q0 72 -25.5 134t-72 108.5
t-108.5 72t-134 25.5q-73 0 -135 -25.5t-108.5 -72t-72 -108.5t-25.5 -134q0 -73 25.5 -135t72 -108.5t108.5 -72t135 -25.5zM460 -198q-19 0 -32.5 13.5t-13.5 33.5q0 23 14.5 34.5t32.5 11.5q17 0 31.5 -11.5t14.5 -34.5q0 -20 -13.5 -33.5t-33.5 -13.5z" />
    <glyph glyph-name="Ograve" unicode="&#xd2;" horiz-adv-x="921" 
d="M461 -10q-86 0 -159 30t-127.5 84.5t-84.5 127.5t-30 159t30 158.5t84.5 127t127.5 84.5t159 30t158.5 -30t127 -84.5t84.5 -127t30 -158.5t-30 -159t-84.5 -127.5t-127 -84.5t-158.5 -30zM461 50q72 0 134 25.5t108.5 72t72 108.5t25.5 135q0 72 -25.5 134t-72 108.5
t-108.5 72t-134 25.5q-73 0 -135 -25.5t-108.5 -72t-72 -108.5t-25.5 -134q0 -73 25.5 -135t72 -108.5t108.5 -72t135 -25.5zM462 873q-10 0 -21 8l-123 123q-8 8 -8 21q0 14 9 22.5t22 8.5q12 0 21 -9l123 -123q7 -7 7 -20t-8.5 -22t-21.5 -9z" />
    <glyph glyph-name="uni1ECE" unicode="&#x1ece;" horiz-adv-x="921" 
d="M461 -10q-86 0 -159 30t-127.5 84.5t-84.5 127.5t-30 159t30 158.5t84.5 127t127.5 84.5t159 30t158.5 -30t127 -84.5t84.5 -127t30 -158.5t-30 -159t-84.5 -127.5t-127 -84.5t-158.5 -30zM461 50q72 0 134 25.5t108.5 72t72 108.5t25.5 135q0 72 -25.5 134t-72 108.5
t-108.5 72t-134 25.5q-73 0 -135 -25.5t-108.5 -72t-72 -108.5t-25.5 -134q0 -73 25.5 -135t72 -108.5t108.5 -72t135 -25.5zM459 830q-12 0 -20.5 8.5t-8.5 20.5v33q0 26 26 32l24 5q24 5 33 16t9 30q0 24 -16 37.5t-39 13.5q-12 0 -22 -4t-20 -12q-4 -3 -9 -5t-10 -2
q-12 0 -20.5 8.5t-8.5 20.5q0 14 10 22q17 14 37.5 22t42.5 8q47 0 80 -27.5t33 -75.5q0 -44 -27.5 -68t-64.5 -30v-24q0 -12 -8.5 -20.5t-20.5 -8.5z" />
    <glyph glyph-name="Ohorn" unicode="&#x1a0;" horiz-adv-x="921" 
d="M461 -10q-86 0 -159 30t-127.5 84.5t-84.5 127.5t-30 159t30 158.5t84.5 127t127.5 84.5t159 30t158.5 -30t127 -84.5t84.5 -127t30 -158.5t-30 -159t-84.5 -127.5t-127 -84.5t-158.5 -30zM461 50q72 0 134 25.5t108.5 72t72 108.5t25.5 135q0 72 -25.5 134t-72 108.5
t-108.5 72t-134 25.5q-73 0 -135 -25.5t-108.5 -72t-72 -108.5t-25.5 -134q0 -73 25.5 -135t72 -108.5t108.5 -72t135 -25.5zM642 691v58h42q18 0 29.5 13t11.5 33v23q0 12 7.5 20.5t21.5 8.5t21.5 -10t7.5 -24v-18q0 -29 -13 -53t-35.5 -37.5t-50.5 -13.5h-42z" />
    <glyph glyph-name="uni1EDA" unicode="&#x1eda;" horiz-adv-x="921" 
d="M461 -10q-86 0 -159 30t-127.5 84.5t-84.5 127.5t-30 159t30 158.5t84.5 127t127.5 84.5t159 30t158.5 -30t127 -84.5t84.5 -127t30 -158.5t-30 -159t-84.5 -127.5t-127 -84.5t-158.5 -30zM461 50q72 0 134 25.5t108.5 72t72 108.5t25.5 135q0 72 -25.5 134t-72 108.5
t-108.5 72t-134 25.5q-73 0 -135 -25.5t-108.5 -72t-72 -108.5t-25.5 -134q0 -73 25.5 -135t72 -108.5t108.5 -72t135 -25.5zM642 691v58h42q18 0 29.5 13t11.5 33v23q0 12 7.5 20.5t21.5 8.5t21.5 -10t7.5 -24v-18q0 -29 -13 -53t-35.5 -37.5t-50.5 -13.5h-42zM446 862
q-13 0 -22 9t-9 22q0 11 7 20l123 123q9 9 22 9t22 -8.5t9 -22.5q0 -5 -2 -10.5t-7 -10.5l-123 -123q-8 -8 -20 -8z" />
    <glyph glyph-name="uni1EE2" unicode="&#x1ee2;" horiz-adv-x="921" 
d="M461 -10q-86 0 -159 30t-127.5 84.5t-84.5 127.5t-30 159t30 158.5t84.5 127t127.5 84.5t159 30t158.5 -30t127 -84.5t84.5 -127t30 -158.5t-30 -159t-84.5 -127.5t-127 -84.5t-158.5 -30zM461 50q72 0 134 25.5t108.5 72t72 108.5t25.5 135q0 72 -25.5 134t-72 108.5
t-108.5 72t-134 25.5q-73 0 -135 -25.5t-108.5 -72t-72 -108.5t-25.5 -134q0 -73 25.5 -135t72 -108.5t108.5 -72t135 -25.5zM642 691v58h42q18 0 29.5 13t11.5 33v23q0 12 7.5 20.5t21.5 8.5t21.5 -10t7.5 -24v-18q0 -29 -13 -53t-35.5 -37.5t-50.5 -13.5h-42zM460 -198
q-19 0 -32.5 13.5t-13.5 33.5q0 23 14.5 34.5t32.5 11.5q17 0 31.5 -11.5t14.5 -34.5q0 -20 -13.5 -33.5t-33.5 -13.5z" />
    <glyph glyph-name="uni1EDC" unicode="&#x1edc;" horiz-adv-x="921" 
d="M461 -10q-86 0 -159 30t-127.5 84.5t-84.5 127.5t-30 159t30 158.5t84.5 127t127.5 84.5t159 30t158.5 -30t127 -84.5t84.5 -127t30 -158.5t-30 -159t-84.5 -127.5t-127 -84.5t-158.5 -30zM461 50q72 0 134 25.5t108.5 72t72 108.5t25.5 135q0 72 -25.5 134t-72 108.5
t-108.5 72t-134 25.5q-73 0 -135 -25.5t-108.5 -72t-72 -108.5t-25.5 -134q0 -73 25.5 -135t72 -108.5t108.5 -72t135 -25.5zM642 691v58h42q18 0 29.5 13t11.5 33v23q0 12 7.5 20.5t21.5 8.5t21.5 -10t7.5 -24v-18q0 -29 -13 -53t-35.5 -37.5t-50.5 -13.5h-42zM462 873
q-10 0 -21 8l-123 123q-8 8 -8 21q0 14 9 22.5t22 8.5q12 0 21 -9l123 -123q7 -7 7 -20t-8.5 -22t-21.5 -9z" />
    <glyph glyph-name="uni1EDE" unicode="&#x1ede;" horiz-adv-x="921" 
d="M461 -10q-86 0 -159 30t-127.5 84.5t-84.5 127.5t-30 159t30 158.5t84.5 127t127.5 84.5t159 30t158.5 -30t127 -84.5t84.5 -127t30 -158.5t-30 -159t-84.5 -127.5t-127 -84.5t-158.5 -30zM461 50q72 0 134 25.5t108.5 72t72 108.5t25.5 135q0 72 -25.5 134t-72 108.5
t-108.5 72t-134 25.5q-73 0 -135 -25.5t-108.5 -72t-72 -108.5t-25.5 -134q0 -73 25.5 -135t72 -108.5t108.5 -72t135 -25.5zM642 691v58h42q18 0 29.5 13t11.5 33v23q0 12 7.5 20.5t21.5 8.5t21.5 -10t7.5 -24v-18q0 -29 -13 -53t-35.5 -37.5t-50.5 -13.5h-42zM459 830
q-12 0 -20.5 8.5t-8.5 20.5v33q0 26 26 32l24 5q24 5 33 16t9 30q0 24 -16 37.5t-39 13.5q-12 0 -22 -4t-20 -12q-4 -3 -9 -5t-10 -2q-12 0 -20.5 8.5t-8.5 20.5q0 14 10 22q17 14 37.5 22t42.5 8q47 0 80 -27.5t33 -75.5q0 -44 -27.5 -68t-64.5 -30v-24q0 -12 -8.5 -20.5
t-20.5 -8.5z" />
    <glyph glyph-name="uni1EE0" unicode="&#x1ee0;" horiz-adv-x="921" 
d="M461 -10q-86 0 -159 30t-127.5 84.5t-84.5 127.5t-30 159t30 158.5t84.5 127t127.5 84.5t159 30t158.5 -30t127 -84.5t84.5 -127t30 -158.5t-30 -159t-84.5 -127.5t-127 -84.5t-158.5 -30zM461 50q72 0 134 25.5t108.5 72t72 108.5t25.5 135q0 72 -25.5 134t-72 108.5
t-108.5 72t-134 25.5q-73 0 -135 -25.5t-108.5 -72t-72 -108.5t-25.5 -134q0 -73 25.5 -135t72 -108.5t108.5 -72t135 -25.5zM642 691v58h42q18 0 29.5 13t11.5 33v23q0 12 7.5 20.5t21.5 8.5t21.5 -10t7.5 -24v-18q0 -29 -13 -53t-35.5 -37.5t-50.5 -13.5h-42zM566 864
q-31 0 -54 12t-40 23q-20 14 -31.5 18.5t-25.5 4.5q-20 0 -40 -10.5t-37 -30.5q-7 -10 -19 -12t-21 4q-12 7 -14 18.5t5 21.5q26 32 59 49.5t67 17.5q30 0 52 -11t38 -22q17 -11 29.5 -18t31.5 -7q18 0 31.5 5.5t23.5 16.5q8 9 19 12.5t20 -1.5q14 -7 17 -18t-5 -22
q-39 -51 -106 -51z" />
    <glyph glyph-name="Ohungarumlaut" unicode="&#x150;" horiz-adv-x="921" 
d="M461 -10q-86 0 -159 30t-127.5 84.5t-84.5 127.5t-30 159t30 158.5t84.5 127t127.5 84.5t159 30t158.5 -30t127 -84.5t84.5 -127t30 -158.5t-30 -159t-84.5 -127.5t-127 -84.5t-158.5 -30zM461 50q72 0 134 25.5t108.5 72t72 108.5t25.5 135q0 72 -25.5 134t-72 108.5
t-108.5 72t-134 25.5q-73 0 -135 -25.5t-108.5 -72t-72 -108.5t-25.5 -134q0 -73 25.5 -135t72 -108.5t108.5 -72t135 -25.5zM535 863q-7 0 -13 5t-6 15v5.5t1 3.5l47 144q3 9 10.5 14t16.5 5q14 0 22.5 -9.5t8.5 -20.5q0 -3 -0.5 -6t-1.5 -5l-65 -137q-6 -14 -20 -14z
M378 863q-7 0 -13 5t-6 15v5.5t1 3.5l46 144q4 9 11.5 14t16.5 5q14 0 22.5 -9.5t8.5 -20.5q0 -5 -2 -11l-65 -137q-7 -14 -20 -14z" />
    <glyph glyph-name="uni020E" unicode="&#x20e;" horiz-adv-x="921" 
d="M461 -10q-86 0 -159 30t-127.5 84.5t-84.5 127.5t-30 159t30 158.5t84.5 127t127.5 84.5t159 30t158.5 -30t127 -84.5t84.5 -127t30 -158.5t-30 -159t-84.5 -127.5t-127 -84.5t-158.5 -30zM461 50q72 0 134 25.5t108.5 72t72 108.5t25.5 135q0 72 -25.5 134t-72 108.5
t-108.5 72t-134 25.5q-73 0 -135 -25.5t-108.5 -72t-72 -108.5t-25.5 -134q0 -73 25.5 -135t72 -108.5t108.5 -72t135 -25.5zM339 882q-13 0 -22 9t-9 22q0 31 20.5 56t55.5 40t76 15q39 0 73 -13.5t56 -38.5t24 -60q-1 -12 -9.5 -21t-21.5 -9t-21.5 9t-8.5 22
q0 23 -24.5 40t-67.5 17t-67 -17t-24 -40q0 -13 -8.5 -22t-21.5 -9z" />
    <glyph glyph-name="Omacron" unicode="&#x14c;" horiz-adv-x="921" 
d="M461 -10q-86 0 -159 30t-127.5 84.5t-84.5 127.5t-30 159t30 158.5t84.5 127t127.5 84.5t159 30t158.5 -30t127 -84.5t84.5 -127t30 -158.5t-30 -159t-84.5 -127.5t-127 -84.5t-158.5 -30zM461 50q72 0 134 25.5t108.5 72t72 108.5t25.5 135q0 72 -25.5 134t-72 108.5
t-108.5 72t-134 25.5q-73 0 -135 -25.5t-108.5 -72t-72 -108.5t-25.5 -134q0 -73 25.5 -135t72 -108.5t108.5 -72t135 -25.5zM328 895q-13 0 -21.5 8.5t-8.5 21.5t8.5 22t21.5 9h265q13 0 21.5 -9t8.5 -22t-8.5 -21.5t-21.5 -8.5h-265z" />
    <glyph glyph-name="uni01EA" unicode="&#x1ea;" horiz-adv-x="921" 
d="M461 -10q-86 0 -159 30t-127.5 84.5t-84.5 127.5t-30 159t30 158.5t84.5 127t127.5 84.5t159 30t158.5 -30t127 -84.5t84.5 -127t30 -158.5t-30 -159t-84.5 -127.5t-127 -84.5t-158.5 -30zM461 50q72 0 134 25.5t108.5 72t72 108.5t25.5 135q0 72 -25.5 134t-72 108.5
t-108.5 72t-134 25.5q-73 0 -135 -25.5t-108.5 -72t-72 -108.5t-25.5 -134q0 -73 25.5 -135t72 -108.5t108.5 -72t135 -25.5zM461 -251q-30 0 -55 15t-40.5 40t-15.5 56q0 53 47 91q15 12 24.5 23t13.5 21q8 15 26 15q14 0 22.5 -8t8.5 -21q0 -19 -15.5 -38.5t-44.5 -41.5
q-10 -8 -15.5 -19t-5.5 -22q0 -21 14.5 -35.5t35.5 -14.5q7 0 14 2t14 6l35 26q9 6 18 6q13 0 22 -9t9 -22q0 -15 -10 -23l-41 -28q-28 -19 -61 -19z" />
    <glyph glyph-name="Oslash" unicode="&#xd8;" horiz-adv-x="859" 
d="M89 0q-22 0 -29 19t6 32l93 93l32 24l504 504l28 21l81 80q8 8 21 8q19 0 29 -17t-6 -33l-81 -81l-26 -19l-509 -509l-28 -20l-94 -94q-8 -8 -21 -8zM461 -10q-86 0 -159 30t-127.5 84.5t-84.5 127.5t-30 159t30 158.5t84.5 127t127.5 84.5t159 30t158.5 -30t127 -84.5
t84.5 -127t30 -158.5t-30 -159t-84.5 -127.5t-127 -84.5t-158.5 -30zM461 50q72 0 134 25.5t108.5 72t72 108.5t25.5 135q0 72 -25.5 134t-72 108.5t-108.5 72t-134 25.5q-73 0 -135 -25.5t-108.5 -72t-72 -108.5t-25.5 -134q0 -73 25.5 -135t72 -108.5t108.5 -72t135 -25.5
z" />
    <glyph glyph-name="Oslashacute" unicode="&#x1fe;" horiz-adv-x="859" 
d="M89 0q-22 0 -29 19t6 32l93 93l32 24l504 504l28 21l81 80q8 8 21 8q19 0 29 -17t-6 -33l-81 -81l-26 -19l-509 -509l-28 -20l-94 -94q-8 -8 -21 -8zM461 -10q-86 0 -159 30t-127.5 84.5t-84.5 127.5t-30 159t30 158.5t84.5 127t127.5 84.5t159 30t158.5 -30t127 -84.5
t84.5 -127t30 -158.5t-30 -159t-84.5 -127.5t-127 -84.5t-158.5 -30zM461 50q72 0 134 25.5t108.5 72t72 108.5t25.5 135q0 72 -25.5 134t-72 108.5t-108.5 72t-134 25.5q-73 0 -135 -25.5t-108.5 -72t-72 -108.5t-25.5 -134q0 -73 25.5 -135t72 -108.5t108.5 -72t135 -25.5
zM446 862q-13 0 -22 9t-9 22q0 11 7 20l123 123q9 9 22 9t22 -8.5t9 -22.5q0 -5 -2 -10.5t-7 -10.5l-123 -123q-8 -8 -20 -8z" />
    <glyph glyph-name="Otilde" unicode="&#xd5;" horiz-adv-x="921" 
d="M461 -10q-86 0 -159 30t-127.5 84.5t-84.5 127.5t-30 159t30 158.5t84.5 127t127.5 84.5t159 30t158.5 -30t127 -84.5t84.5 -127t30 -158.5t-30 -159t-84.5 -127.5t-127 -84.5t-158.5 -30zM461 50q72 0 134 25.5t108.5 72t72 108.5t25.5 135q0 72 -25.5 134t-72 108.5
t-108.5 72t-134 25.5q-73 0 -135 -25.5t-108.5 -72t-72 -108.5t-25.5 -134q0 -73 25.5 -135t72 -108.5t108.5 -72t135 -25.5zM566 864q-31 0 -54 12t-40 23q-20 14 -31.5 18.5t-25.5 4.5q-20 0 -40 -10.5t-37 -30.5q-7 -10 -19 -12t-21 4q-12 7 -14 18.5t5 21.5
q26 32 59 49.5t67 17.5q30 0 52 -11t38 -22q17 -11 29.5 -18t31.5 -7q18 0 31.5 5.5t23.5 16.5q8 9 19 12.5t20 -1.5q14 -7 17 -18t-5 -22q-39 -51 -106 -51z" />
    <glyph glyph-name="uni022C" unicode="&#x22c;" horiz-adv-x="921" 
d="M461 -10q-86 0 -159 30t-127.5 84.5t-84.5 127.5t-30 159t30 158.5t84.5 127t127.5 84.5t159 30t158.5 -30t127 -84.5t84.5 -127t30 -158.5t-30 -159t-84.5 -127.5t-127 -84.5t-158.5 -30zM461 50q72 0 134 25.5t108.5 72t72 108.5t25.5 135q0 72 -25.5 134t-72 108.5
t-108.5 72t-134 25.5q-73 0 -135 -25.5t-108.5 -72t-72 -108.5t-25.5 -134q0 -73 25.5 -135t72 -108.5t108.5 -72t135 -25.5zM566 864q-31 0 -54 12t-40 23q-20 14 -31.5 18.5t-25.5 4.5q-20 0 -40 -10.5t-37 -30.5q-7 -10 -19 -12t-21 4q-12 7 -14 18.5t5 21.5
q26 32 59 49.5t67 17.5q30 0 52 -11t38 -22q17 -11 29.5 -18t31.5 -7q18 0 31.5 5.5t23.5 16.5q8 9 19 12.5t20 -1.5q14 -7 17 -18t-5 -22q-39 -51 -106 -51zM338 1042q-13 0 -21.5 8.5t-8.5 21.5t8.5 22t21.5 9h265q13 0 21.5 -9t8.5 -22t-8.5 -21.5t-21.5 -8.5h-265z" />
    <glyph glyph-name="OE" unicode="&#x152;" horiz-adv-x="1147" 
d="M461 -10q-86 0 -159 30t-127.5 84.5t-84.5 127.5t-30 159t30 158.5t84.5 127t127.5 84.5t159 30q50 0 95.5 -5t86.5 -5v-69q-39 9 -85 14t-97 5q-73 0 -135 -25.5t-108.5 -72t-72 -108.5t-25.5 -134q0 -73 25.5 -135t72 -108.5t108.5 -72t135 -25.5q105 0 183 21v-70
q-41 0 -87 -5.5t-96 -5.5zM631 0q-13 0 -21.5 8.5t-8.5 21.5v721q0 13 8.5 21.5t21.5 8.5h441q12 0 21 -8.5t9 -21.5q0 -12 -9 -21t-21 -9h-411v-300h291q13 0 21.5 -8.5t8.5 -21.5t-8.5 -22t-21.5 -9h-291v-300h411q12 0 21 -9t9 -21q0 -13 -9 -21.5t-21 -8.5h-441z" />
    <glyph glyph-name="P" unicode="P" horiz-adv-x="605" 
d="M130 0q-13 0 -21.5 8.5t-8.5 21.5v721q0 14 8.5 22t21.5 8h200q73 0 129.5 -32t88.5 -88.5t32 -129.5t-32 -130t-88.5 -89t-129.5 -32h-170v-250q0 -13 -8 -21.5t-22 -8.5zM160 340h170q56 0 98.5 24.5t67 67.5t24.5 99t-24.5 98.5t-67 67t-98.5 24.5h-170v-381z" />
    <glyph glyph-name="Thorn" unicode="&#xde;" horiz-adv-x="605" 
d="M131 0q-14 0 -22.5 8.5t-8.5 21.5v721q0 13 8.5 21.5t21.5 8.5t21.5 -8.5t8.5 -21.5v-100h170q73 0 129.5 -29.5t88.5 -81.5t32 -119t-32 -119.5t-88.5 -82t-129.5 -29.5h-170v-160q0 -13 -8 -21.5t-21 -8.5zM160 244h170q56 0 98.5 23.5t67 63.5t24.5 90t-24.5 89.5
t-67 63t-98.5 23.5h-170v-353z" />
    <glyph glyph-name="Q" unicode="Q" horiz-adv-x="921" 
d="M770 9l-222 220q-9 9 -9 20.5t9 20.5t20.5 9t20.5 -9l222 -220q9 -9 9 -20.5t-9 -20.5t-20.5 -9t-20.5 9zM461 -10q-86 0 -159 30t-127.5 84.5t-84.5 127.5t-30 159t30 158.5t84.5 127t127.5 84.5t159 30t158.5 -30t127 -84.5t84.5 -127t30 -158.5t-30 -159t-84.5 -127.5
t-127 -84.5t-158.5 -30zM461 50q72 0 134 25.5t108.5 72t72 108.5t25.5 135q0 72 -25.5 134t-72 108.5t-108.5 72t-134 25.5q-73 0 -135 -25.5t-108.5 -72t-72 -108.5t-25.5 -134q0 -73 25.5 -135t72 -108.5t108.5 -72t135 -25.5z" />
    <glyph glyph-name="R" unicode="R" horiz-adv-x="608" 
d="M130 0q-13 0 -21.5 8.5t-8.5 21.5v721q0 14 8.5 22t21.5 8h191q73 0 129.5 -30.5t88.5 -83.5t32 -123q0 -68 -32 -121t-88.5 -83t-129.5 -30h-161v-280q0 -13 -8 -21.5t-22 -8.5zM550 0q-11 0 -16.5 4.5t-10.5 11.5l-199 318l62 14l189 -302q13 -20 5.5 -33t-30.5 -13z
M160 370h161q56 0 98.5 22.5t67 61.5t24.5 90q0 52 -24.5 92t-67 62.5t-98.5 22.5h-161v-351z" />
    <glyph glyph-name="Racute" unicode="&#x154;" horiz-adv-x="608" 
d="M130 0q-13 0 -21.5 8.5t-8.5 21.5v721q0 14 8.5 22t21.5 8h191q73 0 129.5 -30.5t88.5 -83.5t32 -123q0 -68 -32 -121t-88.5 -83t-129.5 -30h-161v-280q0 -13 -8 -21.5t-22 -8.5zM550 0q-11 0 -16.5 4.5t-10.5 11.5l-199 318l62 14l189 -302q13 -20 5.5 -33t-30.5 -13z
M160 370h161q56 0 98.5 22.5t67 61.5t24.5 90q0 52 -24.5 92t-67 62.5t-98.5 22.5h-161v-351zM289 862q-13 0 -22 9t-9 22q0 11 7 20l123 123q9 9 22 9t22 -8.5t9 -22.5q0 -5 -2 -10.5t-7 -10.5l-123 -123q-8 -8 -20 -8z" />
    <glyph glyph-name="Rcaron" unicode="&#x158;" horiz-adv-x="608" 
d="M130 0q-13 0 -21.5 8.5t-8.5 21.5v721q0 14 8.5 22t21.5 8h191q73 0 129.5 -30.5t88.5 -83.5t32 -123q0 -68 -32 -121t-88.5 -83t-129.5 -30h-161v-280q0 -13 -8 -21.5t-22 -8.5zM550 0q-11 0 -16.5 4.5t-10.5 11.5l-199 318l62 14l189 -302q13 -20 5.5 -33t-30.5 -13z
M160 370h161q56 0 98.5 22.5t67 61.5t24.5 90q0 52 -24.5 92t-67 62.5t-98.5 22.5h-161v-351zM304 882q-10 0 -15 4l-121 80q-16 10 -16 27t15 25t35 -6l102 -70l102 68q21 14 35.5 7t14.5 -24q0 -15 -16 -27l-121 -80q-5 -4 -15 -4z" />
    <glyph glyph-name="uni0156" unicode="&#x156;" horiz-adv-x="608" 
d="M130 0q-13 0 -21.5 8.5t-8.5 21.5v721q0 14 8.5 22t21.5 8h191q73 0 129.5 -30.5t88.5 -83.5t32 -123q0 -68 -32 -121t-88.5 -83t-129.5 -30h-161v-280q0 -13 -8 -21.5t-22 -8.5zM550 0q-11 0 -16.5 4.5t-10.5 11.5l-199 318l62 14l189 -302q13 -20 5.5 -33t-30.5 -13z
M160 370h161q56 0 98.5 22.5t67 61.5t24.5 90q0 52 -24.5 92t-67 62.5t-98.5 22.5h-161v-351zM311 -232q-25 0 -52.5 9t-46.5 24t-19 33q0 11 6.5 17.5t18.5 6.5q14 0 23 -5.5t18 -12.5t21.5 -12.5t33.5 -5.5q29 0 45.5 13t16.5 35q0 18 -15.5 30t-49.5 12q-21 0 -32.5 5.5
t-11.5 18.5q0 25 40 25q53 0 87 -26.5t34 -67.5q0 -44 -34.5 -71.5t-82.5 -27.5z" />
    <glyph glyph-name="uni0210" unicode="&#x210;" horiz-adv-x="608" 
d="M130 0q-13 0 -21.5 8.5t-8.5 21.5v721q0 14 8.5 22t21.5 8h191q73 0 129.5 -30.5t88.5 -83.5t32 -123q0 -68 -32 -121t-88.5 -83t-129.5 -30h-161v-280q0 -13 -8 -21.5t-22 -8.5zM550 0q-11 0 -16.5 4.5t-10.5 11.5l-199 318l62 14l189 -302q13 -20 5.5 -33t-30.5 -13z
M160 370h161q56 0 98.5 22.5t67 61.5t24.5 90q0 52 -24.5 92t-67 62.5t-98.5 22.5h-161v-351zM417 863q-14 0 -21 14l-65 137q-2 6 -2 11q0 11 8.5 20.5t22.5 9.5q9 0 16.5 -5t11.5 -14l46 -144q1 -2 1 -9q0 -10 -5.5 -15t-12.5 -5zM259 863q-14 0 -20 14l-65 137
q-1 2 -1.5 5t-0.5 6q0 11 8.5 20.5t22.5 9.5q9 0 16.5 -5t10.5 -14l47 -144q1 -1 1 -3.5v-5.5q0 -10 -5.5 -15t-13.5 -5z" />
    <glyph glyph-name="uni0212" unicode="&#x212;" horiz-adv-x="608" 
d="M130 0q-13 0 -21.5 8.5t-8.5 21.5v721q0 14 8.5 22t21.5 8h191q73 0 129.5 -30.5t88.5 -83.5t32 -123q0 -68 -32 -121t-88.5 -83t-129.5 -30h-161v-280q0 -13 -8 -21.5t-22 -8.5zM550 0q-11 0 -16.5 4.5t-10.5 11.5l-199 318l62 14l189 -302q13 -20 5.5 -33t-30.5 -13z
M160 370h161q56 0 98.5 22.5t67 61.5t24.5 90q0 52 -24.5 92t-67 62.5t-98.5 22.5h-161v-351zM182 882q-13 0 -22 9t-9 22q0 31 20.5 56t55.5 40t76 15q39 0 73 -13.5t56 -38.5t24 -60q-1 -12 -9.5 -21t-21.5 -9t-21.5 9t-8.5 22q0 23 -24.5 40t-67.5 17t-67 -17t-24 -40
q0 -13 -8.5 -22t-21.5 -9z" />
    <glyph glyph-name="S" unicode="S" horiz-adv-x="644" 
d="M334 -10q-63 0 -115.5 17.5t-90.5 50t-60 76.5q-6 12 -0.5 23t18.5 15q11 4 22 -1t17 -16q18 -32 47.5 -56t70 -36.5t91.5 -12.5q57 0 98.5 19t64 56t22.5 90q0 66 -47.5 111.5t-144.5 58.5q-112 16 -175 72.5t-63 137.5q0 59 29.5 103t83 68.5t123.5 24.5q52 0 96 -17
t77 -44.5t51 -57.5q7 -11 3.5 -23.5t-16.5 -17.5q-11 -4 -22 -0.5t-18 13.5q-14 21 -36 41t-55 33t-80 13q-82 0 -129 -37t-47 -105q0 -36 19.5 -65.5t61.5 -50.5t107 -32q129 -22 185.5 -79.5t56.5 -146.5q0 -52 -17.5 -94t-50 -71t-77.5 -44.5t-100 -15.5z" />
    <glyph glyph-name="Sacute" unicode="&#x15a;" horiz-adv-x="644" 
d="M334 -10q-63 0 -115.5 17.5t-90.5 50t-60 76.5q-6 12 -0.5 23t18.5 15q11 4 22 -1t17 -16q18 -32 47.5 -56t70 -36.5t91.5 -12.5q57 0 98.5 19t64 56t22.5 90q0 66 -47.5 111.5t-144.5 58.5q-112 16 -175 72.5t-63 137.5q0 59 29.5 103t83 68.5t123.5 24.5q52 0 96 -17
t77 -44.5t51 -57.5q7 -11 3.5 -23.5t-16.5 -17.5q-11 -4 -22 -0.5t-18 13.5q-14 21 -36 41t-55 33t-80 13q-82 0 -129 -37t-47 -105q0 -36 19.5 -65.5t61.5 -50.5t107 -32q129 -22 185.5 -79.5t56.5 -146.5q0 -52 -17.5 -94t-50 -71t-77.5 -44.5t-100 -15.5zM307 862
q-13 0 -22 9t-9 22q0 11 7 20l123 123q9 9 22 9t22 -8.5t9 -22.5q0 -5 -2 -10.5t-7 -10.5l-123 -123q-8 -8 -20 -8z" />
    <glyph glyph-name="Scaron" unicode="&#x160;" horiz-adv-x="644" 
d="M334 -10q-63 0 -115.5 17.5t-90.5 50t-60 76.5q-6 12 -0.5 23t18.5 15q11 4 22 -1t17 -16q18 -32 47.5 -56t70 -36.5t91.5 -12.5q57 0 98.5 19t64 56t22.5 90q0 66 -47.5 111.5t-144.5 58.5q-112 16 -175 72.5t-63 137.5q0 59 29.5 103t83 68.5t123.5 24.5q52 0 96 -17
t77 -44.5t51 -57.5q7 -11 3.5 -23.5t-16.5 -17.5q-11 -4 -22 -0.5t-18 13.5q-14 21 -36 41t-55 33t-80 13q-82 0 -129 -37t-47 -105q0 -36 19.5 -65.5t61.5 -50.5t107 -32q129 -22 185.5 -79.5t56.5 -146.5q0 -52 -17.5 -94t-50 -71t-77.5 -44.5t-100 -15.5zM322 882
q-10 0 -15 4l-121 80q-16 10 -16 27t15 25t35 -6l102 -70l102 68q21 14 35.5 7t14.5 -24q0 -15 -16 -27l-121 -80q-5 -4 -15 -4z" />
    <glyph glyph-name="Scedilla" unicode="&#x15e;" horiz-adv-x="644" 
d="M334 -10q-63 0 -115.5 17.5t-90.5 50t-60 76.5q-6 12 -0.5 23t18.5 15q11 4 22 -1t17 -16q18 -32 47.5 -56t70 -36.5t91.5 -12.5q57 0 98.5 19t64 56t22.5 90q0 66 -47.5 111.5t-144.5 58.5q-112 16 -175 72.5t-63 137.5q0 59 29.5 103t83 68.5t123.5 24.5q52 0 96 -17
t77 -44.5t51 -57.5q7 -11 3.5 -23.5t-16.5 -17.5q-11 -4 -22 -0.5t-18 13.5q-14 21 -36 41t-55 33t-80 13q-82 0 -129 -37t-47 -105q0 -36 19.5 -65.5t61.5 -50.5t107 -32q129 -22 185.5 -79.5t56.5 -146.5q0 -52 -17.5 -94t-50 -71t-77.5 -44.5t-100 -15.5zM317 -232
q-49 0 -80 20.5t-31 45.5q0 13 8.5 22t21.5 9q11 0 18.5 -6t16.5 -13q8 -6 17.5 -11.5t28.5 -5.5q25 0 42 11t17 30q0 20 -13 31t-44 20q-19 5 -28 14t1 32l20 49q4 10 12.5 16t22.5 6q15 0 22.5 -11.5t1.5 -26.5l-15 -36q53 -16 70.5 -39t17.5 -53q0 -29 -18 -53
t-46.5 -37.5t-62.5 -13.5z" />
    <glyph glyph-name="Scircumflex" unicode="&#x15c;" horiz-adv-x="644" 
d="M334 -10q-63 0 -115.5 17.5t-90.5 50t-60 76.5q-6 12 -0.5 23t18.5 15q11 4 22 -1t17 -16q18 -32 47.5 -56t70 -36.5t91.5 -12.5q57 0 98.5 19t64 56t22.5 90q0 66 -47.5 111.5t-144.5 58.5q-112 16 -175 72.5t-63 137.5q0 59 29.5 103t83 68.5t123.5 24.5q52 0 96 -17
t77 -44.5t51 -57.5q7 -11 3.5 -23.5t-16.5 -17.5q-11 -4 -22 -0.5t-18 13.5q-14 21 -36 41t-55 33t-80 13q-82 0 -129 -37t-47 -105q0 -36 19.5 -65.5t61.5 -50.5t107 -32q129 -22 185.5 -79.5t56.5 -146.5q0 -52 -17.5 -94t-50 -71t-77.5 -44.5t-100 -15.5zM202 882
q-13 0 -22.5 8.5t-9.5 21.5q0 17 16 27l121 81q8 4 15 4q5 0 8.5 -1t6.5 -3l121 -81q16 -10 16 -27q0 -13 -8.5 -21.5t-22.5 -8.5q-6 0 -10 1.5t-9 4.5l-102 68l-102 -68q-9 -6 -18 -6z" />
    <glyph glyph-name="uni0218" unicode="&#x218;" horiz-adv-x="644" 
d="M334 -10q-63 0 -115.5 17.5t-90.5 50t-60 76.5q-6 12 -0.5 23t18.5 15q11 4 22 -1t17 -16q18 -32 47.5 -56t70 -36.5t91.5 -12.5q57 0 98.5 19t64 56t22.5 90q0 66 -47.5 111.5t-144.5 58.5q-112 16 -175 72.5t-63 137.5q0 59 29.5 103t83 68.5t123.5 24.5q52 0 96 -17
t77 -44.5t51 -57.5q7 -11 3.5 -23.5t-16.5 -17.5q-11 -4 -22 -0.5t-18 13.5q-14 21 -36 41t-55 33t-80 13q-82 0 -129 -37t-47 -105q0 -36 19.5 -65.5t61.5 -50.5t107 -32q129 -22 185.5 -79.5t56.5 -146.5q0 -52 -17.5 -94t-50 -71t-77.5 -44.5t-100 -15.5zM329 -232
q-25 0 -52.5 9t-46.5 24t-19 33q0 11 6.5 17.5t18.5 6.5q14 0 23 -5.5t18 -12.5t21.5 -12.5t33.5 -5.5q29 0 45.5 13t16.5 35q0 18 -15.5 30t-49.5 12q-21 0 -32.5 5.5t-11.5 18.5q0 25 40 25q53 0 87 -26.5t34 -67.5q0 -44 -34.5 -71.5t-82.5 -27.5z" />
    <glyph glyph-name="uni1E9E" unicode="&#x1e9e;" horiz-adv-x="675" 
d="M129 0q-15 0 -22 8.5t-7 18.5v524q0 81 31.5 132t85.5 74.5t121 23.5q42 0 83.5 -14.5t73.5 -38t47 -50.5q9 -16 4 -32t-15 -27l-182 -198l-19 53l160 180q-21 30 -65.5 50.5t-89.5 20.5q-53 0 -92.5 -20.5t-61 -63t-21.5 -110.5v-504q0 -11 -8.5 -19t-22.5 -8zM390 -6
q-46 0 -81 11.5t-56 24.5q-10 6 -15 12t-5 19q0 14 14 23t31 1q20 -9 34.5 -16t32.5 -11t45 -4q49 0 87 24.5t60.5 66.5t22.5 92q0 53 -20 94.5t-58 65.5t-92 24h-41q-12 0 -20.5 8.5t-8.5 21.5t8.5 21.5t20.5 8.5h34q73 0 126 -32t82 -87t29 -125q0 -67 -30 -122.5t-82 -88
t-118 -32.5z" />
    <glyph glyph-name="uni018F" unicode="&#x18f;" horiz-adv-x="830" 
d="M410 -10q-82 0 -147 29t-110 81.5t-69 124t-24 156.5q0 18 12 29t30 11h620v-54h-636l33 20q-3 -96 33 -172.5t103 -120.5t155 -44q89 0 156 44t105 120.5t38 173.5q0 100 -41.5 177t-116 121.5t-173.5 44.5q-56 0 -108.5 -16.5t-93.5 -48.5q-10 -7 -22.5 -9t-22.5 8
q-10 11 -8 23t9 18q44 38 107 61.5t139 23.5q86 0 157.5 -29.5t124 -83.5t81.5 -128t29 -162t-26.5 -161t-74.5 -126t-114 -82t-145 -29z" />
    <glyph glyph-name="T" unicode="T" horiz-adv-x="650" 
d="M325 0q-13 0 -21.5 8.5t-8.5 21.5v751h60v-751q0 -13 -8.5 -21.5t-21.5 -8.5zM42 727q-12 0 -19.5 7.5t-7.5 19.5t7.5 19.5t19.5 7.5h566q12 0 19.5 -7.5t7.5 -19.5t-7.5 -19.5t-19.5 -7.5h-566z" />
    <glyph glyph-name="Tbar" unicode="&#x166;" horiz-adv-x="650" 
d="M325 0q-13 0 -21.5 8.5t-8.5 21.5v751h60v-751q0 -13 -8.5 -21.5t-21.5 -8.5zM42 727q-12 0 -19.5 7.5t-7.5 19.5t7.5 19.5t19.5 7.5h566q12 0 19.5 -7.5t7.5 -19.5t-7.5 -19.5t-19.5 -7.5h-566zM171 364q-12 0 -19.5 7.5t-7.5 19.5t7.5 19.5t19.5 7.5h318
q12 0 19.5 -7.5t7.5 -19.5t-7.5 -19.5t-19.5 -7.5h-318z" />
    <glyph glyph-name="Tcaron" unicode="&#x164;" horiz-adv-x="650" 
d="M325 0q-13 0 -21.5 8.5t-8.5 21.5v751h60v-751q0 -13 -8.5 -21.5t-21.5 -8.5zM42 727q-12 0 -19.5 7.5t-7.5 19.5t7.5 19.5t19.5 7.5h566q12 0 19.5 -7.5t7.5 -19.5t-7.5 -19.5t-19.5 -7.5h-566zM325 882q-10 0 -15 4l-121 80q-16 10 -16 27t15 25t35 -6l102 -70l102 68
q21 14 35.5 7t14.5 -24q0 -15 -16 -27l-121 -80q-5 -4 -15 -4z" />
    <glyph glyph-name="uni0162" unicode="&#x162;" horiz-adv-x="650" 
d="M325 0q-13 0 -21.5 8.5t-8.5 21.5v751h60v-751q0 -13 -8.5 -21.5t-21.5 -8.5zM42 727q-12 0 -19.5 7.5t-7.5 19.5t7.5 19.5t19.5 7.5h566q12 0 19.5 -7.5t7.5 -19.5t-7.5 -19.5t-19.5 -7.5h-566zM320 -232q-49 0 -80 20.5t-31 45.5q0 13 8.5 22t21.5 9q11 0 18.5 -6
t16.5 -13q8 -6 17.5 -11.5t28.5 -5.5q25 0 42 11t17 30q0 20 -13 31t-44 20q-19 5 -28 14t1 32l20 49q4 10 12.5 16t22.5 6q15 0 22.5 -11.5t1.5 -26.5l-15 -36q53 -16 70.5 -39t17.5 -53q0 -29 -18 -53t-46.5 -37.5t-62.5 -13.5z" />
    <glyph glyph-name="uni021A" unicode="&#x21a;" horiz-adv-x="650" 
d="M325 0q-13 0 -21.5 8.5t-8.5 21.5v751h60v-751q0 -13 -8.5 -21.5t-21.5 -8.5zM42 727q-12 0 -19.5 7.5t-7.5 19.5t7.5 19.5t19.5 7.5h566q12 0 19.5 -7.5t7.5 -19.5t-7.5 -19.5t-19.5 -7.5h-566zM332 -232q-25 0 -52.5 9t-46.5 24t-19 33q0 11 6.5 17.5t18.5 6.5
q14 0 23 -5.5t18 -12.5t21.5 -12.5t33.5 -5.5q29 0 45.5 13t16.5 35q0 18 -15.5 30t-49.5 12q-21 0 -32.5 5.5t-11.5 18.5q0 25 40 25q53 0 87 -26.5t34 -67.5q0 -44 -34.5 -71.5t-82.5 -27.5z" />
    <glyph glyph-name="U" unicode="U" horiz-adv-x="801" 
d="M400 -16q-88 0 -155.5 34.5t-106 96t-38.5 140.5v496q0 14 8.5 22t21.5 8q14 0 22 -8t8 -22v-496q0 -62 30.5 -109.5t85 -74.5t124.5 -27q71 0 125 27t85 74.5t31 109.5v496q0 14 8.5 22t21.5 8q14 0 22 -8t8 -22v-496q0 -79 -38.5 -140.5t-106.5 -96t-156 -34.5z" />
    <glyph glyph-name="Uacute" unicode="&#xda;" horiz-adv-x="801" 
d="M400 -16q-88 0 -155.5 34.5t-106 96t-38.5 140.5v496q0 14 8.5 22t21.5 8q14 0 22 -8t8 -22v-496q0 -62 30.5 -109.5t85 -74.5t124.5 -27q71 0 125 27t85 74.5t31 109.5v496q0 14 8.5 22t21.5 8q14 0 22 -8t8 -22v-496q0 -79 -38.5 -140.5t-106.5 -96t-156 -34.5z
M386 862q-13 0 -22 9t-9 22q0 11 7 20l123 123q9 9 22 9t22 -8.5t9 -22.5q0 -5 -2 -10.5t-7 -10.5l-123 -123q-8 -8 -20 -8z" />
    <glyph glyph-name="Ubreve" unicode="&#x16c;" horiz-adv-x="801" 
d="M400 -16q-88 0 -155.5 34.5t-106 96t-38.5 140.5v496q0 14 8.5 22t21.5 8q14 0 22 -8t8 -22v-496q0 -62 30.5 -109.5t85 -74.5t124.5 -27q71 0 125 27t85 74.5t31 109.5v496q0 14 8.5 22t21.5 8q14 0 22 -8t8 -22v-496q0 -79 -38.5 -140.5t-106.5 -96t-156 -34.5z
M400 882q-41 0 -76 15t-55.5 40.5t-20.5 55.5q0 13 9 22t22 9t21.5 -9t8.5 -22q0 -22 24 -39.5t67 -17.5t67.5 17t24.5 40q0 13 8.5 22t21.5 9t21.5 -9t9.5 -21q-2 -34 -24 -59.5t-56 -39t-73 -13.5z" />
    <glyph glyph-name="Ucircumflex" unicode="&#xdb;" horiz-adv-x="801" 
d="M400 -16q-88 0 -155.5 34.5t-106 96t-38.5 140.5v496q0 14 8.5 22t21.5 8q14 0 22 -8t8 -22v-496q0 -62 30.5 -109.5t85 -74.5t124.5 -27q71 0 125 27t85 74.5t31 109.5v496q0 14 8.5 22t21.5 8q14 0 22 -8t8 -22v-496q0 -79 -38.5 -140.5t-106.5 -96t-156 -34.5z
M281 882q-13 0 -22.5 8.5t-9.5 21.5q0 17 16 27l121 81q8 4 15 4q5 0 8.5 -1t6.5 -3l121 -81q16 -10 16 -27q0 -13 -8.5 -21.5t-22.5 -8.5q-6 0 -10 1.5t-9 4.5l-102 68l-102 -68q-9 -6 -18 -6z" />
    <glyph glyph-name="uni0214" unicode="&#x214;" horiz-adv-x="801" 
d="M400 -16q-88 0 -155.5 34.5t-106 96t-38.5 140.5v496q0 14 8.5 22t21.5 8q14 0 22 -8t8 -22v-496q0 -62 30.5 -109.5t85 -74.5t124.5 -27q71 0 125 27t85 74.5t31 109.5v496q0 14 8.5 22t21.5 8q14 0 22 -8t8 -22v-496q0 -79 -38.5 -140.5t-106.5 -96t-156 -34.5z
M514 863q-14 0 -21 14l-65 137q-2 6 -2 11q0 11 8.5 20.5t22.5 9.5q9 0 16.5 -5t11.5 -14l46 -144q1 -2 1 -9q0 -10 -5.5 -15t-12.5 -5zM356 863q-14 0 -20 14l-65 137q-1 2 -1.5 5t-0.5 6q0 11 8.5 20.5t22.5 9.5q9 0 16.5 -5t10.5 -14l47 -144q1 -1 1 -3.5v-5.5
q0 -10 -5.5 -15t-13.5 -5z" />
    <glyph glyph-name="Udieresis" unicode="&#xdc;" horiz-adv-x="801" 
d="M400 -16q-88 0 -155.5 34.5t-106 96t-38.5 140.5v496q0 14 8.5 22t21.5 8q14 0 22 -8t8 -22v-496q0 -62 30.5 -109.5t85 -74.5t124.5 -27q71 0 125 27t85 74.5t31 109.5v496q0 14 8.5 22t21.5 8q14 0 22 -8t8 -22v-496q0 -79 -38.5 -140.5t-106.5 -96t-156 -34.5z
M301 891q-22 0 -37 15t-15 37q0 21 15 36t37 15t36.5 -15t14.5 -36q0 -22 -14.5 -37t-36.5 -15zM501 891q-22 0 -37 15t-15 37q0 21 15 36t37 15t36.5 -15t14.5 -36q0 -22 -14.5 -37t-36.5 -15z" />
    <glyph glyph-name="uni1EE4" unicode="&#x1ee4;" horiz-adv-x="801" 
d="M400 -16q-88 0 -155.5 34.5t-106 96t-38.5 140.5v496q0 14 8.5 22t21.5 8q14 0 22 -8t8 -22v-496q0 -62 30.5 -109.5t85 -74.5t124.5 -27q71 0 125 27t85 74.5t31 109.5v496q0 14 8.5 22t21.5 8q14 0 22 -8t8 -22v-496q0 -79 -38.5 -140.5t-106.5 -96t-156 -34.5z
M400 -198q-19 0 -32.5 13.5t-13.5 33.5q0 23 14.5 34.5t32.5 11.5q17 0 31.5 -11.5t14.5 -34.5q0 -20 -13.5 -33.5t-33.5 -13.5z" />
    <glyph glyph-name="Ugrave" unicode="&#xd9;" horiz-adv-x="801" 
d="M400 -16q-88 0 -155.5 34.5t-106 96t-38.5 140.5v496q0 14 8.5 22t21.5 8q14 0 22 -8t8 -22v-496q0 -62 30.5 -109.5t85 -74.5t124.5 -27q71 0 125 27t85 74.5t31 109.5v496q0 14 8.5 22t21.5 8q14 0 22 -8t8 -22v-496q0 -79 -38.5 -140.5t-106.5 -96t-156 -34.5z
M402 873q-10 0 -21 8l-123 123q-8 8 -8 21q0 14 9 22.5t22 8.5q12 0 21 -9l123 -123q7 -7 7 -20t-8.5 -22t-21.5 -9z" />
    <glyph glyph-name="uni1EE6" unicode="&#x1ee6;" horiz-adv-x="801" 
d="M400 -16q-88 0 -155.5 34.5t-106 96t-38.5 140.5v496q0 14 8.5 22t21.5 8q14 0 22 -8t8 -22v-496q0 -62 30.5 -109.5t85 -74.5t124.5 -27q71 0 125 27t85 74.5t31 109.5v496q0 14 8.5 22t21.5 8q14 0 22 -8t8 -22v-496q0 -79 -38.5 -140.5t-106.5 -96t-156 -34.5z
M399 830q-12 0 -20.5 8.5t-8.5 20.5v33q0 26 26 32l24 5q24 5 33 16t9 30q0 24 -16 37.5t-39 13.5q-12 0 -22 -4t-20 -12q-4 -3 -9 -5t-10 -2q-12 0 -20.5 8.5t-8.5 20.5q0 14 10 22q17 14 37.5 22t42.5 8q47 0 80 -27.5t33 -75.5q0 -44 -27.5 -68t-64.5 -30v-24
q0 -12 -8.5 -20.5t-20.5 -8.5z" />
    <glyph glyph-name="Uhorn" unicode="&#x1af;" horiz-adv-x="801" 
d="M400 -16q-88 0 -155.5 34.5t-106 96t-38.5 140.5v496q0 14 8.5 22t21.5 8q14 0 22 -8t8 -22v-496q0 -62 30.5 -109.5t85 -74.5t124.5 -27q71 0 125 27t85 74.5t31 109.5v496q0 14 8.5 22t21.5 8q14 0 22 -8t8 -22v-496q0 -79 -38.5 -140.5t-106.5 -96t-156 -34.5z
M671 723v58h42q18 0 29.5 13t11.5 33v23q0 12 7.5 20.5t21.5 8.5t21.5 -10t7.5 -24v-18q0 -29 -13 -53t-35.5 -37.5t-50.5 -13.5h-42z" />
    <glyph glyph-name="uni1EE8" unicode="&#x1ee8;" horiz-adv-x="801" 
d="M400 -16q-88 0 -155.5 34.5t-106 96t-38.5 140.5v496q0 14 8.5 22t21.5 8q14 0 22 -8t8 -22v-496q0 -62 30.5 -109.5t85 -74.5t124.5 -27q71 0 125 27t85 74.5t31 109.5v496q0 14 8.5 22t21.5 8q14 0 22 -8t8 -22v-496q0 -79 -38.5 -140.5t-106.5 -96t-156 -34.5z
M671 723v58h42q18 0 29.5 13t11.5 33v23q0 12 7.5 20.5t21.5 8.5t21.5 -10t7.5 -24v-18q0 -29 -13 -53t-35.5 -37.5t-50.5 -13.5h-42zM386 862q-13 0 -22 9t-9 22q0 11 7 20l123 123q9 9 22 9t22 -8.5t9 -22.5q0 -5 -2 -10.5t-7 -10.5l-123 -123q-8 -8 -20 -8z" />
    <glyph glyph-name="uni1EF0" unicode="&#x1ef0;" horiz-adv-x="801" 
d="M400 -16q-88 0 -155.5 34.5t-106 96t-38.5 140.5v496q0 14 8.5 22t21.5 8q14 0 22 -8t8 -22v-496q0 -62 30.5 -109.5t85 -74.5t124.5 -27q71 0 125 27t85 74.5t31 109.5v496q0 14 8.5 22t21.5 8q14 0 22 -8t8 -22v-496q0 -79 -38.5 -140.5t-106.5 -96t-156 -34.5z
M671 723v58h42q18 0 29.5 13t11.5 33v23q0 12 7.5 20.5t21.5 8.5t21.5 -10t7.5 -24v-18q0 -29 -13 -53t-35.5 -37.5t-50.5 -13.5h-42zM400 -198q-19 0 -32.5 13.5t-13.5 33.5q0 23 14.5 34.5t32.5 11.5q17 0 31.5 -11.5t14.5 -34.5q0 -20 -13.5 -33.5t-33.5 -13.5z" />
    <glyph glyph-name="uni1EEA" unicode="&#x1eea;" horiz-adv-x="801" 
d="M400 -16q-88 0 -155.5 34.5t-106 96t-38.5 140.5v496q0 14 8.5 22t21.5 8q14 0 22 -8t8 -22v-496q0 -62 30.5 -109.5t85 -74.5t124.5 -27q71 0 125 27t85 74.5t31 109.5v496q0 14 8.5 22t21.5 8q14 0 22 -8t8 -22v-496q0 -79 -38.5 -140.5t-106.5 -96t-156 -34.5z
M671 723v58h42q18 0 29.5 13t11.5 33v23q0 12 7.5 20.5t21.5 8.5t21.5 -10t7.5 -24v-18q0 -29 -13 -53t-35.5 -37.5t-50.5 -13.5h-42zM402 873q-10 0 -21 8l-123 123q-8 8 -8 21q0 14 9 22.5t22 8.5q12 0 21 -9l123 -123q7 -7 7 -20t-8.5 -22t-21.5 -9z" />
    <glyph glyph-name="uni1EEC" unicode="&#x1eec;" horiz-adv-x="801" 
d="M400 -16q-88 0 -155.5 34.5t-106 96t-38.5 140.5v496q0 14 8.5 22t21.5 8q14 0 22 -8t8 -22v-496q0 -62 30.5 -109.5t85 -74.5t124.5 -27q71 0 125 27t85 74.5t31 109.5v496q0 14 8.5 22t21.5 8q14 0 22 -8t8 -22v-496q0 -79 -38.5 -140.5t-106.5 -96t-156 -34.5z
M671 723v58h42q18 0 29.5 13t11.5 33v23q0 12 7.5 20.5t21.5 8.5t21.5 -10t7.5 -24v-18q0 -29 -13 -53t-35.5 -37.5t-50.5 -13.5h-42zM399 830q-12 0 -20.5 8.5t-8.5 20.5v33q0 26 26 32l24 5q24 5 33 16t9 30q0 24 -16 37.5t-39 13.5q-12 0 -22 -4t-20 -12q-4 -3 -9 -5
t-10 -2q-12 0 -20.5 8.5t-8.5 20.5q0 14 10 22q17 14 37.5 22t42.5 8q47 0 80 -27.5t33 -75.5q0 -44 -27.5 -68t-64.5 -30v-24q0 -12 -8.5 -20.5t-20.5 -8.5z" />
    <glyph glyph-name="uni1EEE" unicode="&#x1eee;" horiz-adv-x="801" 
d="M400 -16q-88 0 -155.5 34.5t-106 96t-38.5 140.5v496q0 14 8.5 22t21.5 8q14 0 22 -8t8 -22v-496q0 -62 30.5 -109.5t85 -74.5t124.5 -27q71 0 125 27t85 74.5t31 109.5v496q0 14 8.5 22t21.5 8q14 0 22 -8t8 -22v-496q0 -79 -38.5 -140.5t-106.5 -96t-156 -34.5z
M671 723v58h42q18 0 29.5 13t11.5 33v23q0 12 7.5 20.5t21.5 8.5t21.5 -10t7.5 -24v-18q0 -29 -13 -53t-35.5 -37.5t-50.5 -13.5h-42zM506 864q-31 0 -54 12t-40 23q-20 14 -31.5 18.5t-25.5 4.5q-20 0 -40 -10.5t-37 -30.5q-7 -10 -19 -12t-21 4q-12 7 -14 18.5t5 21.5
q26 32 59 49.5t67 17.5q30 0 52 -11t38 -22q17 -11 29.5 -18t31.5 -7q18 0 31.5 5.5t23.5 16.5q8 9 19 12.5t20 -1.5q14 -7 17 -18t-5 -22q-39 -51 -106 -51z" />
    <glyph glyph-name="Uhungarumlaut" unicode="&#x170;" horiz-adv-x="801" 
d="M400 -16q-88 0 -155.5 34.5t-106 96t-38.5 140.5v496q0 14 8.5 22t21.5 8q14 0 22 -8t8 -22v-496q0 -62 30.5 -109.5t85 -74.5t124.5 -27q71 0 125 27t85 74.5t31 109.5v496q0 14 8.5 22t21.5 8q14 0 22 -8t8 -22v-496q0 -79 -38.5 -140.5t-106.5 -96t-156 -34.5z
M475 863q-7 0 -13 5t-6 15v5.5t1 3.5l47 144q3 9 10.5 14t16.5 5q14 0 22.5 -9.5t8.5 -20.5q0 -3 -0.5 -6t-1.5 -5l-65 -137q-6 -14 -20 -14zM318 863q-7 0 -13 5t-6 15v5.5t1 3.5l46 144q4 9 11.5 14t16.5 5q14 0 22.5 -9.5t8.5 -20.5q0 -5 -2 -11l-65 -137q-7 -14 -20 -14
z" />
    <glyph glyph-name="uni0216" unicode="&#x216;" horiz-adv-x="801" 
d="M400 -16q-88 0 -155.5 34.5t-106 96t-38.5 140.5v496q0 14 8.5 22t21.5 8q14 0 22 -8t8 -22v-496q0 -62 30.5 -109.5t85 -74.5t124.5 -27q71 0 125 27t85 74.5t31 109.5v496q0 14 8.5 22t21.5 8q14 0 22 -8t8 -22v-496q0 -79 -38.5 -140.5t-106.5 -96t-156 -34.5z
M279 882q-13 0 -22 9t-9 22q0 31 20.5 56t55.5 40t76 15q39 0 73 -13.5t56 -38.5t24 -60q-1 -12 -9.5 -21t-21.5 -9t-21.5 9t-8.5 22q0 23 -24.5 40t-67.5 17t-67 -17t-24 -40q0 -13 -8.5 -22t-21.5 -9z" />
    <glyph glyph-name="Umacron" unicode="&#x16a;" horiz-adv-x="801" 
d="M400 -16q-88 0 -155.5 34.5t-106 96t-38.5 140.5v496q0 14 8.5 22t21.5 8q14 0 22 -8t8 -22v-496q0 -62 30.5 -109.5t85 -74.5t124.5 -27q71 0 125 27t85 74.5t31 109.5v496q0 14 8.5 22t21.5 8q14 0 22 -8t8 -22v-496q0 -79 -38.5 -140.5t-106.5 -96t-156 -34.5z
M268 895q-13 0 -21.5 8.5t-8.5 21.5t8.5 22t21.5 9h265q13 0 21.5 -9t8.5 -22t-8.5 -21.5t-21.5 -8.5h-265z" />
    <glyph glyph-name="Uogonek" unicode="&#x172;" horiz-adv-x="801" 
d="M400 -16q-88 0 -155.5 34.5t-106 96t-38.5 140.5v496q0 14 8.5 22t21.5 8q14 0 22 -8t8 -22v-496q0 -62 30.5 -109.5t85 -74.5t124.5 -27q71 0 125 27t85 74.5t31 109.5v496q0 14 8.5 22t21.5 8q14 0 22 -8t8 -22v-496q0 -79 -38.5 -140.5t-106.5 -96t-156 -34.5z
M502 -211q-30 0 -55 15t-40.5 40t-15.5 56q0 53 47 91q15 12 24.5 23t13.5 21q8 15 26 15q14 0 22.5 -8t8.5 -21q0 -19 -15.5 -38.5t-44.5 -41.5q-10 -8 -15.5 -19t-5.5 -22q0 -21 14.5 -35.5t35.5 -14.5q7 0 14 2t14 6l35 26q9 6 18 6q13 0 22 -9t9 -22q0 -15 -10 -23
l-41 -28q-28 -19 -61 -19z" />
    <glyph glyph-name="Uring" unicode="&#x16e;" horiz-adv-x="801" 
d="M400 -16q-88 0 -155.5 34.5t-106 96t-38.5 140.5v496q0 14 8.5 22t21.5 8q14 0 22 -8t8 -22v-496q0 -62 30.5 -109.5t85 -74.5t124.5 -27q71 0 125 27t85 74.5t31 109.5v496q0 14 8.5 22t21.5 8q14 0 22 -8t8 -22v-496q0 -79 -38.5 -140.5t-106.5 -96t-156 -34.5z
M401 831q-37 0 -64.5 27.5t-27.5 64.5q0 39 27.5 65.5t64.5 26.5q38 0 65 -27t27 -65q0 -37 -26.5 -64.5t-65.5 -27.5zM401 870q23 0 38.5 15.5t15.5 37.5q0 23 -15.5 38.5t-38.5 15.5q-22 0 -37.5 -15.5t-15.5 -38.5q0 -22 15.5 -37.5t37.5 -15.5z" />
    <glyph glyph-name="Utilde" unicode="&#x168;" horiz-adv-x="801" 
d="M400 -16q-88 0 -155.5 34.5t-106 96t-38.5 140.5v496q0 14 8.5 22t21.5 8q14 0 22 -8t8 -22v-496q0 -62 30.5 -109.5t85 -74.5t124.5 -27q71 0 125 27t85 74.5t31 109.5v496q0 14 8.5 22t21.5 8q14 0 22 -8t8 -22v-496q0 -79 -38.5 -140.5t-106.5 -96t-156 -34.5z
M506 864q-31 0 -54 12t-40 23q-20 14 -31.5 18.5t-25.5 4.5q-20 0 -40 -10.5t-37 -30.5q-7 -10 -19 -12t-21 4q-12 7 -14 18.5t5 21.5q26 32 59 49.5t67 17.5q30 0 52 -11t38 -22q17 -11 29.5 -18t31.5 -7q18 0 31.5 5.5t23.5 16.5q8 9 19 12.5t20 -1.5q14 -7 17 -18t-5 -22
q-39 -51 -106 -51z" />
    <glyph glyph-name="V" unicode="V" horiz-adv-x="702" 
d="M352 0q-19 0 -27 19l-300 713q-10 23 -0.5 36t26.5 13q19 0 29 -21l288 -689h-29l284 685q5 14 13 19.5t20 5.5q18 0 24 -15t-2 -34l-299 -713q-5 -11 -12.5 -15t-14.5 -4z" />
    <glyph glyph-name="W" unicode="W" horiz-adv-x="938" 
d="M268 0q-11 0 -19.5 8t-11.5 18l-207 710q-5 18 3 31.5t25 13.5q10 0 17.5 -4.5t11.5 -18.5l193 -668h-24l184 642q2 8 10.5 13.5t17.5 5.5q10 0 18 -5.5t11 -14.5l184 -641h-24l193 671q5 20 29 20q17 0 24.5 -13t2.5 -32l-206 -710q-4 -13 -12.5 -19.5t-18.5 -6.5
q-12 0 -20 7.5t-11 18.5l-182 644h24l-180 -644q-4 -12 -12.5 -19t-19.5 -7z" />
    <glyph glyph-name="Wacute" unicode="&#x1e82;" horiz-adv-x="938" 
d="M268 0q-11 0 -19.5 8t-11.5 18l-207 710q-5 18 3 31.5t25 13.5q10 0 17.5 -4.5t11.5 -18.5l193 -668h-24l184 642q2 8 10.5 13.5t17.5 5.5q10 0 18 -5.5t11 -14.5l184 -641h-24l193 671q5 20 29 20q17 0 24.5 -13t2.5 -32l-206 -710q-4 -13 -12.5 -19.5t-18.5 -6.5
q-12 0 -20 7.5t-11 18.5l-182 644h24l-180 -644q-4 -12 -12.5 -19t-19.5 -7zM454 862q-13 0 -22 9t-9 22q0 11 7 20l123 123q9 9 22 9t22 -8.5t9 -22.5q0 -5 -2 -10.5t-7 -10.5l-123 -123q-8 -8 -20 -8z" />
    <glyph glyph-name="Wcircumflex" unicode="&#x174;" horiz-adv-x="938" 
d="M268 0q-11 0 -19.5 8t-11.5 18l-207 710q-5 18 3 31.5t25 13.5q10 0 17.5 -4.5t11.5 -18.5l193 -668h-24l184 642q2 8 10.5 13.5t17.5 5.5q10 0 18 -5.5t11 -14.5l184 -641h-24l193 671q5 20 29 20q17 0 24.5 -13t2.5 -32l-206 -710q-4 -13 -12.5 -19.5t-18.5 -6.5
q-12 0 -20 7.5t-11 18.5l-182 644h24l-180 -644q-4 -12 -12.5 -19t-19.5 -7zM349 882q-13 0 -22.5 8.5t-9.5 21.5q0 17 16 27l121 81q8 4 15 4q5 0 8.5 -1t6.5 -3l121 -81q16 -10 16 -27q0 -13 -8.5 -21.5t-22.5 -8.5q-6 0 -10 1.5t-9 4.5l-102 68l-102 -68q-9 -6 -18 -6z
" />
    <glyph glyph-name="Wdieresis" unicode="&#x1e84;" horiz-adv-x="938" 
d="M268 0q-11 0 -19.5 8t-11.5 18l-207 710q-5 18 3 31.5t25 13.5q10 0 17.5 -4.5t11.5 -18.5l193 -668h-24l184 642q2 8 10.5 13.5t17.5 5.5q10 0 18 -5.5t11 -14.5l184 -641h-24l193 671q5 20 29 20q17 0 24.5 -13t2.5 -32l-206 -710q-4 -13 -12.5 -19.5t-18.5 -6.5
q-12 0 -20 7.5t-11 18.5l-182 644h24l-180 -644q-4 -12 -12.5 -19t-19.5 -7zM369 891q-22 0 -37 15t-15 37q0 21 15 36t37 15t36.5 -15t14.5 -36q0 -22 -14.5 -37t-36.5 -15zM569 891q-22 0 -37 15t-15 37q0 21 15 36t37 15t36.5 -15t14.5 -36q0 -22 -14.5 -37t-36.5 -15z
" />
    <glyph glyph-name="Wgrave" unicode="&#x1e80;" horiz-adv-x="938" 
d="M268 0q-11 0 -19.5 8t-11.5 18l-207 710q-5 18 3 31.5t25 13.5q10 0 17.5 -4.5t11.5 -18.5l193 -668h-24l184 642q2 8 10.5 13.5t17.5 5.5q10 0 18 -5.5t11 -14.5l184 -641h-24l193 671q5 20 29 20q17 0 24.5 -13t2.5 -32l-206 -710q-4 -13 -12.5 -19.5t-18.5 -6.5
q-12 0 -20 7.5t-11 18.5l-182 644h24l-180 -644q-4 -12 -12.5 -19t-19.5 -7zM470 873q-10 0 -21 8l-123 123q-8 8 -8 21q0 14 9 22.5t22 8.5q12 0 21 -9l123 -123q7 -7 7 -20t-8.5 -22t-21.5 -9z" />
    <glyph glyph-name="X" unicode="X" horiz-adv-x="701" 
d="M75 0q-12 0 -20.5 7.5t-9.5 18.5t7 23l267 369l29 21l237 329q10 13 25 13q14 0 21 -8.5t8.5 -19.5t-4.5 -19l-247 -341l-28 -20l-262 -363q-9 -10 -23 -10zM629 0q-5 0 -12 2.5t-11 7.5l-260 360l-27 19l-249 345q-7 10 -6.5 21t8 18.5t19.5 7.5q15 0 25 -13l244 -337
l21 -11l269 -371q8 -9 7.5 -20.5t-8 -20t-20.5 -8.5z" />
    <glyph glyph-name="Y" unicode="Y" horiz-adv-x="633" 
d="M317 0q-13 0 -21.5 8.5t-8.5 21.5v262l-276 442q-7 12 -5.5 22.5t9 17.5t19.5 7q8 0 13.5 -3t10.5 -9l281 -458h-44l277 451q7 11 13.5 15t15.5 4q12 0 19 -7t8.5 -18t-5.5 -22l-276 -442v-262q0 -13 -8.5 -21.5t-21.5 -8.5z" />
    <glyph glyph-name="Yacute" unicode="&#xdd;" horiz-adv-x="633" 
d="M317 0q-13 0 -21.5 8.5t-8.5 21.5v262l-276 442q-7 12 -5.5 22.5t9 17.5t19.5 7q8 0 13.5 -3t10.5 -9l281 -458h-44l277 451q7 11 13.5 15t15.5 4q12 0 19 -7t8.5 -18t-5.5 -22l-276 -442v-262q0 -13 -8.5 -21.5t-21.5 -8.5zM302 862q-13 0 -22 9t-9 22q0 11 7 20
l123 123q9 9 22 9t22 -8.5t9 -22.5q0 -5 -2 -10.5t-7 -10.5l-123 -123q-8 -8 -20 -8z" />
    <glyph glyph-name="Ycircumflex" unicode="&#x176;" horiz-adv-x="633" 
d="M317 0q-13 0 -21.5 8.5t-8.5 21.5v262l-276 442q-7 12 -5.5 22.5t9 17.5t19.5 7q8 0 13.5 -3t10.5 -9l281 -458h-44l277 451q7 11 13.5 15t15.5 4q12 0 19 -7t8.5 -18t-5.5 -22l-276 -442v-262q0 -13 -8.5 -21.5t-21.5 -8.5zM197 882q-13 0 -22.5 8.5t-9.5 21.5
q0 17 16 27l121 81q8 4 15 4q5 0 8.5 -1t6.5 -3l121 -81q16 -10 16 -27q0 -13 -8.5 -21.5t-22.5 -8.5q-6 0 -10 1.5t-9 4.5l-102 68l-102 -68q-9 -6 -18 -6z" />
    <glyph glyph-name="Ydieresis" unicode="&#x178;" horiz-adv-x="633" 
d="M317 0q-13 0 -21.5 8.5t-8.5 21.5v262l-276 442q-7 12 -5.5 22.5t9 17.5t19.5 7q8 0 13.5 -3t10.5 -9l281 -458h-44l277 451q7 11 13.5 15t15.5 4q12 0 19 -7t8.5 -18t-5.5 -22l-276 -442v-262q0 -13 -8.5 -21.5t-21.5 -8.5zM217 891q-22 0 -37 15t-15 37q0 21 15 36
t37 15t36.5 -15t14.5 -36q0 -22 -14.5 -37t-36.5 -15zM417 891q-22 0 -37 15t-15 37q0 21 15 36t37 15t36.5 -15t14.5 -36q0 -22 -14.5 -37t-36.5 -15z" />
    <glyph glyph-name="uni1EF4" unicode="&#x1ef4;" horiz-adv-x="633" 
d="M317 0q-13 0 -21.5 8.5t-8.5 21.5v262l-276 442q-7 12 -5.5 22.5t9 17.5t19.5 7q8 0 13.5 -3t10.5 -9l281 -458h-44l277 451q7 11 13.5 15t15.5 4q12 0 19 -7t8.5 -18t-5.5 -22l-276 -442v-262q0 -13 -8.5 -21.5t-21.5 -8.5zM316 -198q-19 0 -32.5 13.5t-13.5 33.5
q0 23 14.5 34.5t32.5 11.5q17 0 31.5 -11.5t14.5 -34.5q0 -20 -13.5 -33.5t-33.5 -13.5z" />
    <glyph glyph-name="Ygrave" unicode="&#x1ef2;" horiz-adv-x="633" 
d="M317 0q-13 0 -21.5 8.5t-8.5 21.5v262l-276 442q-7 12 -5.5 22.5t9 17.5t19.5 7q8 0 13.5 -3t10.5 -9l281 -458h-44l277 451q7 11 13.5 15t15.5 4q12 0 19 -7t8.5 -18t-5.5 -22l-276 -442v-262q0 -13 -8.5 -21.5t-21.5 -8.5zM318 873q-10 0 -21 8l-123 123q-8 8 -8 21
q0 14 9 22.5t22 8.5q12 0 21 -9l123 -123q7 -7 7 -20t-8.5 -22t-21.5 -9z" />
    <glyph glyph-name="uni1EF6" unicode="&#x1ef6;" horiz-adv-x="633" 
d="M317 0q-13 0 -21.5 8.5t-8.5 21.5v262l-276 442q-7 12 -5.5 22.5t9 17.5t19.5 7q8 0 13.5 -3t10.5 -9l281 -458h-44l277 451q7 11 13.5 15t15.5 4q12 0 19 -7t8.5 -18t-5.5 -22l-276 -442v-262q0 -13 -8.5 -21.5t-21.5 -8.5zM315 830q-12 0 -20.5 8.5t-8.5 20.5v33
q0 26 26 32l24 5q24 5 33 16t9 30q0 24 -16 37.5t-39 13.5q-12 0 -22 -4t-20 -12q-4 -3 -9 -5t-10 -2q-12 0 -20.5 8.5t-8.5 20.5q0 14 10 22q17 14 37.5 22t42.5 8q47 0 80 -27.5t33 -75.5q0 -44 -27.5 -68t-64.5 -30v-24q0 -12 -8.5 -20.5t-20.5 -8.5z" />
    <glyph glyph-name="uni0232" unicode="&#x232;" horiz-adv-x="633" 
d="M317 0q-13 0 -21.5 8.5t-8.5 21.5v262l-276 442q-7 12 -5.5 22.5t9 17.5t19.5 7q8 0 13.5 -3t10.5 -9l281 -458h-44l277 451q7 11 13.5 15t15.5 4q12 0 19 -7t8.5 -18t-5.5 -22l-276 -442v-262q0 -13 -8.5 -21.5t-21.5 -8.5zM184 895q-13 0 -21.5 8.5t-8.5 21.5t8.5 22
t21.5 9h265q13 0 21.5 -9t8.5 -22t-8.5 -21.5t-21.5 -8.5h-265z" />
    <glyph glyph-name="uni1EF8" unicode="&#x1ef8;" horiz-adv-x="633" 
d="M317 0q-13 0 -21.5 8.5t-8.5 21.5v262l-276 442q-7 12 -5.5 22.5t9 17.5t19.5 7q8 0 13.5 -3t10.5 -9l281 -458h-44l277 451q7 11 13.5 15t15.5 4q12 0 19 -7t8.5 -18t-5.5 -22l-276 -442v-262q0 -13 -8.5 -21.5t-21.5 -8.5zM422 864q-31 0 -54 12t-40 23
q-20 14 -31.5 18.5t-25.5 4.5q-20 0 -40 -10.5t-37 -30.5q-7 -10 -19 -12t-21 4q-12 7 -14 18.5t5 21.5q26 32 59 49.5t67 17.5q30 0 52 -11t38 -22q17 -11 29.5 -18t31.5 -7q18 0 31.5 5.5t23.5 16.5q8 9 19 12.5t20 -1.5q14 -7 17 -18t-5 -22q-39 -51 -106 -51z" />
    <glyph glyph-name="Z" unicode="Z" horiz-adv-x="711" 
d="M75 0q-13 0 -21 8t-9 19.5t7 21.5l535 678h-512q-13 0 -21.5 6.5t-8.5 20.5q0 11 8.5 19t21.5 8h561q14 0 21.5 -8.5t8.5 -19.5t-5 -19l-539 -680h514q12 0 21 -6.5t9 -20.5q0 -10 -9 -18.5t-21 -8.5h-561z" />
    <glyph glyph-name="Zacute" unicode="&#x179;" horiz-adv-x="711" 
d="M75 0q-13 0 -21 8t-9 19.5t7 21.5l535 678h-512q-13 0 -21.5 6.5t-8.5 20.5q0 11 8.5 19t21.5 8h561q14 0 21.5 -8.5t8.5 -19.5t-5 -19l-539 -680h514q12 0 21 -6.5t9 -20.5q0 -10 -9 -18.5t-21 -8.5h-561zM341 862q-13 0 -22 9t-9 22q0 11 7 20l123 123q9 9 22 9
t22 -8.5t9 -22.5q0 -5 -2 -10.5t-7 -10.5l-123 -123q-8 -8 -20 -8z" />
    <glyph glyph-name="Zcaron" unicode="&#x17d;" horiz-adv-x="711" 
d="M75 0q-13 0 -21 8t-9 19.5t7 21.5l535 678h-512q-13 0 -21.5 6.5t-8.5 20.5q0 11 8.5 19t21.5 8h561q14 0 21.5 -8.5t8.5 -19.5t-5 -19l-539 -680h514q12 0 21 -6.5t9 -20.5q0 -10 -9 -18.5t-21 -8.5h-561zM356 882q-10 0 -15 4l-121 80q-16 10 -16 27t15 25t35 -6
l102 -70l102 68q21 14 35.5 7t14.5 -24q0 -15 -16 -27l-121 -80q-5 -4 -15 -4z" />
    <glyph glyph-name="Zdotaccent" unicode="&#x17b;" horiz-adv-x="711" 
d="M75 0q-13 0 -21 8t-9 19.5t7 21.5l535 678h-512q-13 0 -21.5 6.5t-8.5 20.5q0 11 8.5 19t21.5 8h561q14 0 21.5 -8.5t8.5 -19.5t-5 -19l-539 -680h514q12 0 21 -6.5t9 -20.5q0 -10 -9 -18.5t-21 -8.5h-561zM355 896q-19 0 -32.5 13.5t-13.5 33.5q0 23 14.5 34.5
t32.5 11.5q17 0 31.5 -11.5t14.5 -34.5q0 -20 -13.5 -33.5t-33.5 -13.5z" />
    <glyph glyph-name="a" unicode="a" 
d="M340 -6q-80 0 -143.5 36.5t-100 100t-36.5 142.5q0 80 36.5 143.5t100 100t143.5 36.5t143 -36.5t99.5 -100t36.5 -143.5l-25 -40q0 -68 -33.5 -122t-90.5 -85.5t-130 -31.5zM340 50q63 0 112.5 29.5t78 80t28.5 113.5q0 64 -28.5 114.5t-78 80t-112.5 29.5
q-62 0 -112 -29.5t-79 -80t-29 -114.5q0 -63 29 -113.5t79 -80t112 -29.5zM590 0q-14 0 -22.5 8.5t-8.5 21.5v183l19 60h41v-243q0 -13 -8 -21.5t-21 -8.5z" />
    <glyph glyph-name="aacute" unicode="&#xe1;" 
d="M340 -6q-80 0 -143.5 36.5t-100 100t-36.5 142.5q0 80 36.5 143.5t100 100t143.5 36.5t143 -36.5t99.5 -100t36.5 -143.5l-25 -40q0 -68 -33.5 -122t-90.5 -85.5t-130 -31.5zM340 50q63 0 112.5 29.5t78 80t28.5 113.5q0 64 -28.5 114.5t-78 80t-112.5 29.5
q-62 0 -112 -29.5t-79 -80t-29 -114.5q0 -63 29 -113.5t79 -80t112 -29.5zM590 0q-14 0 -22.5 8.5t-8.5 21.5v183l19 60h41v-243q0 -13 -8 -21.5t-21 -8.5zM325 628q-13 0 -22 9t-9 22q0 11 7 20l123 123q9 9 22 9t22 -8.5t9 -22.5q0 -5 -2 -10.5t-7 -10.5l-123 -123
q-8 -8 -20 -8z" />
    <glyph glyph-name="abreve" unicode="&#x103;" 
d="M340 -6q-80 0 -143.5 36.5t-100 100t-36.5 142.5q0 80 36.5 143.5t100 100t143.5 36.5t143 -36.5t99.5 -100t36.5 -143.5l-25 -40q0 -68 -33.5 -122t-90.5 -85.5t-130 -31.5zM340 50q63 0 112.5 29.5t78 80t28.5 113.5q0 64 -28.5 114.5t-78 80t-112.5 29.5
q-62 0 -112 -29.5t-79 -80t-29 -114.5q0 -63 29 -113.5t79 -80t112 -29.5zM590 0q-14 0 -22.5 8.5t-8.5 21.5v183l19 60h41v-243q0 -13 -8 -21.5t-21 -8.5zM339 648q-41 0 -76 15t-55.5 40.5t-20.5 55.5q0 13 9 22t22 9t21.5 -9t8.5 -22q0 -22 24 -39.5t67 -17.5t67.5 17
t24.5 40q0 13 8.5 22t21.5 9t21.5 -9t9.5 -21q-2 -34 -24 -59.5t-56 -39t-73 -13.5z" />
    <glyph glyph-name="uni1EAF" unicode="&#x1eaf;" 
d="M340 -6q-80 0 -143.5 36.5t-100 100t-36.5 142.5q0 80 36.5 143.5t100 100t143.5 36.5t143 -36.5t99.5 -100t36.5 -143.5l-25 -40q0 -68 -33.5 -122t-90.5 -85.5t-130 -31.5zM340 50q63 0 112.5 29.5t78 80t28.5 113.5q0 64 -28.5 114.5t-78 80t-112.5 29.5
q-62 0 -112 -29.5t-79 -80t-29 -114.5q0 -63 29 -113.5t79 -80t112 -29.5zM590 0q-14 0 -22.5 8.5t-8.5 21.5v183l19 60h41v-243q0 -13 -8 -21.5t-21 -8.5zM339 648q-41 0 -76 15t-55.5 40.5t-20.5 55.5q0 13 9 22t22 9t21.5 -9t8.5 -22q0 -22 24 -39.5t67 -17.5t67.5 17
t24.5 40q0 13 8.5 22t21.5 9t21.5 -9t9.5 -21q-2 -34 -24 -59.5t-56 -39t-73 -13.5zM325 791q-13 0 -22 9t-9 22q0 11 7 20l123 123q9 9 22 9t22 -8.5t9 -22.5q0 -5 -2 -10.5t-7 -10.5l-123 -123q-8 -8 -20 -8z" />
    <glyph glyph-name="uni1EB7" unicode="&#x1eb7;" 
d="M340 -6q-80 0 -143.5 36.5t-100 100t-36.5 142.5q0 80 36.5 143.5t100 100t143.5 36.5t143 -36.5t99.5 -100t36.5 -143.5l-25 -40q0 -68 -33.5 -122t-90.5 -85.5t-130 -31.5zM340 50q63 0 112.5 29.5t78 80t28.5 113.5q0 64 -28.5 114.5t-78 80t-112.5 29.5
q-62 0 -112 -29.5t-79 -80t-29 -114.5q0 -63 29 -113.5t79 -80t112 -29.5zM590 0q-14 0 -22.5 8.5t-8.5 21.5v183l19 60h41v-243q0 -13 -8 -21.5t-21 -8.5zM339 648q-41 0 -76 15t-55.5 40.5t-20.5 55.5q0 13 9 22t22 9t21.5 -9t8.5 -22q0 -22 24 -39.5t67 -17.5t67.5 17
t24.5 40q0 13 8.5 22t21.5 9t21.5 -9t9.5 -21q-2 -34 -24 -59.5t-56 -39t-73 -13.5zM339 -198q-19 0 -32.5 13.5t-13.5 33.5q0 23 14.5 34.5t32.5 11.5q17 0 31.5 -11.5t14.5 -34.5q0 -20 -13.5 -33.5t-33.5 -13.5z" />
    <glyph glyph-name="uni1EB1" unicode="&#x1eb1;" 
d="M340 -6q-80 0 -143.5 36.5t-100 100t-36.5 142.5q0 80 36.5 143.5t100 100t143.5 36.5t143 -36.5t99.5 -100t36.5 -143.5l-25 -40q0 -68 -33.5 -122t-90.5 -85.5t-130 -31.5zM340 50q63 0 112.5 29.5t78 80t28.5 113.5q0 64 -28.5 114.5t-78 80t-112.5 29.5
q-62 0 -112 -29.5t-79 -80t-29 -114.5q0 -63 29 -113.5t79 -80t112 -29.5zM590 0q-14 0 -22.5 8.5t-8.5 21.5v183l19 60h41v-243q0 -13 -8 -21.5t-21 -8.5zM339 648q-41 0 -76 15t-55.5 40.5t-20.5 55.5q0 13 9 22t22 9t21.5 -9t8.5 -22q0 -22 24 -39.5t67 -17.5t67.5 17
t24.5 40q0 13 8.5 22t21.5 9t21.5 -9t9.5 -21q-2 -34 -24 -59.5t-56 -39t-73 -13.5zM341 802q-10 0 -21 8l-123 123q-8 8 -8 21q0 14 9 22.5t22 8.5q12 0 21 -9l123 -123q7 -7 7 -20t-8.5 -22t-21.5 -9z" />
    <glyph glyph-name="uni1EB3" unicode="&#x1eb3;" 
d="M340 -6q-80 0 -143.5 36.5t-100 100t-36.5 142.5q0 80 36.5 143.5t100 100t143.5 36.5t143 -36.5t99.5 -100t36.5 -143.5l-25 -40q0 -68 -33.5 -122t-90.5 -85.5t-130 -31.5zM340 50q63 0 112.5 29.5t78 80t28.5 113.5q0 64 -28.5 114.5t-78 80t-112.5 29.5
q-62 0 -112 -29.5t-79 -80t-29 -114.5q0 -63 29 -113.5t79 -80t112 -29.5zM590 0q-14 0 -22.5 8.5t-8.5 21.5v183l19 60h41v-243q0 -13 -8 -21.5t-21 -8.5zM339 648q-41 0 -76 15t-55.5 40.5t-20.5 55.5q0 13 9 22t22 9t21.5 -9t8.5 -22q0 -22 24 -39.5t67 -17.5t67.5 17
t24.5 40q0 13 8.5 22t21.5 9t21.5 -9t9.5 -21q-2 -34 -24 -59.5t-56 -39t-73 -13.5zM338 759q-12 0 -20.5 8.5t-8.5 20.5v33q0 26 26 32l24 5q24 5 33 16t9 30q0 24 -16 37.5t-39 13.5q-12 0 -22 -4t-20 -12q-4 -3 -9 -5t-10 -2q-12 0 -20.5 8.5t-8.5 20.5q0 14 10 22
q17 14 37.5 22t42.5 8q47 0 80 -27.5t33 -75.5q0 -44 -27.5 -68t-64.5 -30v-24q0 -12 -8.5 -20.5t-20.5 -8.5z" />
    <glyph glyph-name="uni1EB5" unicode="&#x1eb5;" 
d="M340 -6q-80 0 -143.5 36.5t-100 100t-36.5 142.5q0 80 36.5 143.5t100 100t143.5 36.5t143 -36.5t99.5 -100t36.5 -143.5l-25 -40q0 -68 -33.5 -122t-90.5 -85.5t-130 -31.5zM340 50q63 0 112.5 29.5t78 80t28.5 113.5q0 64 -28.5 114.5t-78 80t-112.5 29.5
q-62 0 -112 -29.5t-79 -80t-29 -114.5q0 -63 29 -113.5t79 -80t112 -29.5zM590 0q-14 0 -22.5 8.5t-8.5 21.5v183l19 60h41v-243q0 -13 -8 -21.5t-21 -8.5zM339 648q-41 0 -76 15t-55.5 40.5t-20.5 55.5q0 13 9 22t22 9t21.5 -9t8.5 -22q0 -22 24 -39.5t67 -17.5t67.5 17
t24.5 40q0 13 8.5 22t21.5 9t21.5 -9t9.5 -21q-2 -34 -24 -59.5t-56 -39t-73 -13.5zM401 815q-24 0 -43 12t-30 22q-15 15 -25.5 22t-23.5 7t-22 -11.5t-20 -31.5q-6 -11 -16 -15.5t-20 -1.5q-11 4 -15 14.5t1 22.5q17 40 39 57t52 17q26 0 41 -9.5t31 -23.5
q20 -16 29.5 -22t17.5 -6q15 0 26 30q5 12 15.5 18t20.5 3q14 -4 19 -14t0 -23q-15 -37 -34 -52t-43 -15z" />
    <glyph glyph-name="uni01CE" unicode="&#x1ce;" 
d="M340 -6q-80 0 -143.5 36.5t-100 100t-36.5 142.5q0 80 36.5 143.5t100 100t143.5 36.5t143 -36.5t99.5 -100t36.5 -143.5l-25 -40q0 -68 -33.5 -122t-90.5 -85.5t-130 -31.5zM340 50q63 0 112.5 29.5t78 80t28.5 113.5q0 64 -28.5 114.5t-78 80t-112.5 29.5
q-62 0 -112 -29.5t-79 -80t-29 -114.5q0 -63 29 -113.5t79 -80t112 -29.5zM590 0q-14 0 -22.5 8.5t-8.5 21.5v183l19 60h41v-243q0 -13 -8 -21.5t-21 -8.5zM340 648q-10 0 -15 4l-121 80q-16 10 -16 27t15 25t35 -6l102 -70l102 68q21 14 35.5 7t14.5 -24q0 -15 -16 -27
l-121 -80q-5 -4 -15 -4z" />
    <glyph glyph-name="acircumflex" unicode="&#xe2;" 
d="M340 -6q-80 0 -143.5 36.5t-100 100t-36.5 142.5q0 80 36.5 143.5t100 100t143.5 36.5t143 -36.5t99.5 -100t36.5 -143.5l-25 -40q0 -68 -33.5 -122t-90.5 -85.5t-130 -31.5zM340 50q63 0 112.5 29.5t78 80t28.5 113.5q0 64 -28.5 114.5t-78 80t-112.5 29.5
q-62 0 -112 -29.5t-79 -80t-29 -114.5q0 -63 29 -113.5t79 -80t112 -29.5zM590 0q-14 0 -22.5 8.5t-8.5 21.5v183l19 60h41v-243q0 -13 -8 -21.5t-21 -8.5zM220 648q-13 0 -22.5 8.5t-9.5 21.5q0 17 16 27l121 81q8 4 15 4q5 0 8.5 -1t6.5 -3l121 -81q16 -10 16 -27
q0 -13 -8.5 -21.5t-22.5 -8.5q-6 0 -10 1.5t-9 4.5l-102 68l-102 -68q-9 -6 -18 -6z" />
    <glyph glyph-name="uni1EA5" unicode="&#x1ea5;" 
d="M340 -6q-80 0 -143.5 36.5t-100 100t-36.5 142.5q0 80 36.5 143.5t100 100t143.5 36.5t143 -36.5t99.5 -100t36.5 -143.5l-25 -40q0 -68 -33.5 -122t-90.5 -85.5t-130 -31.5zM340 50q63 0 112.5 29.5t78 80t28.5 113.5q0 64 -28.5 114.5t-78 80t-112.5 29.5
q-62 0 -112 -29.5t-79 -80t-29 -114.5q0 -63 29 -113.5t79 -80t112 -29.5zM590 0q-14 0 -22.5 8.5t-8.5 21.5v183l19 60h41v-243q0 -13 -8 -21.5t-21 -8.5zM220 648q-13 0 -22.5 8.5t-9.5 21.5q0 17 16 27l121 81q8 4 15 4q5 0 8.5 -1t6.5 -3l121 -81q16 -10 16 -27
q0 -13 -8.5 -21.5t-22.5 -8.5q-6 0 -10 1.5t-9 4.5l-102 68l-102 -68q-9 -6 -18 -6zM416 814q-13 0 -22 9t-9 22q0 11 7 20l123 123q9 9 22 9t22 -8.5t9 -22.5q0 -5 -2 -10.5t-7 -10.5l-123 -123q-8 -8 -20 -8z" />
    <glyph glyph-name="uni1EAD" unicode="&#x1ead;" 
d="M340 -6q-80 0 -143.5 36.5t-100 100t-36.5 142.5q0 80 36.5 143.5t100 100t143.5 36.5t143 -36.5t99.5 -100t36.5 -143.5l-25 -40q0 -68 -33.5 -122t-90.5 -85.5t-130 -31.5zM340 50q63 0 112.5 29.5t78 80t28.5 113.5q0 64 -28.5 114.5t-78 80t-112.5 29.5
q-62 0 -112 -29.5t-79 -80t-29 -114.5q0 -63 29 -113.5t79 -80t112 -29.5zM590 0q-14 0 -22.5 8.5t-8.5 21.5v183l19 60h41v-243q0 -13 -8 -21.5t-21 -8.5zM220 648q-13 0 -22.5 8.5t-9.5 21.5q0 17 16 27l121 81q8 4 15 4q5 0 8.5 -1t6.5 -3l121 -81q16 -10 16 -27
q0 -13 -8.5 -21.5t-22.5 -8.5q-6 0 -10 1.5t-9 4.5l-102 68l-102 -68q-9 -6 -18 -6zM339 -198q-19 0 -32.5 13.5t-13.5 33.5q0 23 14.5 34.5t32.5 11.5q17 0 31.5 -11.5t14.5 -34.5q0 -20 -13.5 -33.5t-33.5 -13.5z" />
    <glyph glyph-name="uni1EA7" unicode="&#x1ea7;" 
d="M340 -6q-80 0 -143.5 36.5t-100 100t-36.5 142.5q0 80 36.5 143.5t100 100t143.5 36.5t143 -36.5t99.5 -100t36.5 -143.5l-25 -40q0 -68 -33.5 -122t-90.5 -85.5t-130 -31.5zM340 50q63 0 112.5 29.5t78 80t28.5 113.5q0 64 -28.5 114.5t-78 80t-112.5 29.5
q-62 0 -112 -29.5t-79 -80t-29 -114.5q0 -63 29 -113.5t79 -80t112 -29.5zM590 0q-14 0 -22.5 8.5t-8.5 21.5v183l19 60h41v-243q0 -13 -8 -21.5t-21 -8.5zM220 648q-13 0 -22.5 8.5t-9.5 21.5q0 17 16 27l121 81q8 4 15 4q5 0 8.5 -1t6.5 -3l121 -81q16 -10 16 -27
q0 -13 -8.5 -21.5t-22.5 -8.5q-6 0 -10 1.5t-9 4.5l-102 68l-102 -68q-9 -6 -18 -6zM432 825q-10 0 -21 8l-123 123q-8 8 -8 21q0 14 9 22.5t22 8.5q12 0 21 -9l123 -123q7 -7 7 -20t-8.5 -22t-21.5 -9z" />
    <glyph glyph-name="uni1EA9" unicode="&#x1ea9;" 
d="M340 -6q-80 0 -143.5 36.5t-100 100t-36.5 142.5q0 80 36.5 143.5t100 100t143.5 36.5t143 -36.5t99.5 -100t36.5 -143.5l-25 -40q0 -68 -33.5 -122t-90.5 -85.5t-130 -31.5zM340 50q63 0 112.5 29.5t78 80t28.5 113.5q0 64 -28.5 114.5t-78 80t-112.5 29.5
q-62 0 -112 -29.5t-79 -80t-29 -114.5q0 -63 29 -113.5t79 -80t112 -29.5zM590 0q-14 0 -22.5 8.5t-8.5 21.5v183l19 60h41v-243q0 -13 -8 -21.5t-21 -8.5zM221 648q-13 0 -22.5 8.5t-9.5 21.5q0 17 16 27l121 81q8 4 15 4q5 0 8.5 -1t6.5 -3l121 -81q16 -10 16 -27
q0 -13 -8.5 -21.5t-22.5 -8.5q-6 0 -10 1.5t-9 4.5l-102 68l-102 -68q-9 -6 -18 -6zM430 782q-12 0 -20.5 8.5t-8.5 20.5v33q0 26 26 32l24 5q24 5 33 16t9 30q0 24 -16 37.5t-39 13.5q-12 0 -22 -4t-20 -12q-4 -3 -9 -5t-10 -2q-12 0 -20.5 8.5t-8.5 20.5q0 14 10 22
q17 14 37.5 22t42.5 8q47 0 80 -27.5t33 -75.5q0 -44 -27.5 -68t-64.5 -30v-24q0 -12 -8.5 -20.5t-20.5 -8.5z" />
    <glyph glyph-name="uni1EAB" unicode="&#x1eab;" 
d="M340 -6q-80 0 -143.5 36.5t-100 100t-36.5 142.5q0 80 36.5 143.5t100 100t143.5 36.5t143 -36.5t99.5 -100t36.5 -143.5l-25 -40q0 -68 -33.5 -122t-90.5 -85.5t-130 -31.5zM340 50q63 0 112.5 29.5t78 80t28.5 113.5q0 64 -28.5 114.5t-78 80t-112.5 29.5
q-62 0 -112 -29.5t-79 -80t-29 -114.5q0 -63 29 -113.5t79 -80t112 -29.5zM590 0q-14 0 -22.5 8.5t-8.5 21.5v183l19 60h41v-243q0 -13 -8 -21.5t-21 -8.5zM220 648q-13 0 -22.5 8.5t-9.5 21.5q0 17 16 27l121 81q8 4 15 4q5 0 8.5 -1t6.5 -3l121 -81q16 -10 16 -27
q0 -13 -8.5 -21.5t-22.5 -8.5q-6 0 -10 1.5t-9 4.5l-102 68l-102 -68q-9 -6 -18 -6zM400 818q-24 0 -43 12t-30 22q-15 15 -25.5 22t-23.5 7t-22 -11.5t-20 -31.5q-6 -11 -16 -15.5t-20 -1.5q-11 4 -15 14.5t1 22.5q17 40 39 57t52 17q26 0 41 -9.5t31 -23.5
q20 -16 29.5 -22t17.5 -6q15 0 26 30q5 12 15.5 18t20.5 3q14 -4 19 -14t0 -23q-15 -37 -34 -52t-43 -15z" />
    <glyph glyph-name="uni0201" unicode="&#x201;" 
d="M340 -6q-80 0 -143.5 36.5t-100 100t-36.5 142.5q0 80 36.5 143.5t100 100t143.5 36.5t143 -36.5t99.5 -100t36.5 -143.5l-25 -40q0 -68 -33.5 -122t-90.5 -85.5t-130 -31.5zM340 50q63 0 112.5 29.5t78 80t28.5 113.5q0 64 -28.5 114.5t-78 80t-112.5 29.5
q-62 0 -112 -29.5t-79 -80t-29 -114.5q0 -63 29 -113.5t79 -80t112 -29.5zM590 0q-14 0 -22.5 8.5t-8.5 21.5v183l19 60h41v-243q0 -13 -8 -21.5t-21 -8.5zM453 629q-14 0 -21 14l-65 137q-2 6 -2 11q0 11 8.5 20.5t22.5 9.5q9 0 16.5 -5t11.5 -14l46 -144q1 -2 1 -9
q0 -10 -5.5 -15t-12.5 -5zM295 629q-14 0 -20 14l-65 137q-1 2 -1.5 5t-0.5 6q0 11 8.5 20.5t22.5 9.5q9 0 16.5 -5t10.5 -14l47 -144q1 -1 1 -3.5v-5.5q0 -10 -5.5 -15t-13.5 -5z" />
    <glyph glyph-name="adieresis" unicode="&#xe4;" 
d="M340 -6q-80 0 -143.5 36.5t-100 100t-36.5 142.5q0 80 36.5 143.5t100 100t143.5 36.5t143 -36.5t99.5 -100t36.5 -143.5l-25 -40q0 -68 -33.5 -122t-90.5 -85.5t-130 -31.5zM340 50q63 0 112.5 29.5t78 80t28.5 113.5q0 64 -28.5 114.5t-78 80t-112.5 29.5
q-62 0 -112 -29.5t-79 -80t-29 -114.5q0 -63 29 -113.5t79 -80t112 -29.5zM590 0q-14 0 -22.5 8.5t-8.5 21.5v183l19 60h41v-243q0 -13 -8 -21.5t-21 -8.5zM240 657q-22 0 -37 15t-15 37q0 21 15 36t37 15t36.5 -15t14.5 -36q0 -22 -14.5 -37t-36.5 -15zM440 657
q-22 0 -37 15t-15 37q0 21 15 36t37 15t36.5 -15t14.5 -36q0 -22 -14.5 -37t-36.5 -15z" />
    <glyph glyph-name="uni1EA1" unicode="&#x1ea1;" 
d="M340 -6q-80 0 -143.5 36.5t-100 100t-36.5 142.5q0 80 36.5 143.5t100 100t143.5 36.5t143 -36.5t99.5 -100t36.5 -143.5l-25 -40q0 -68 -33.5 -122t-90.5 -85.5t-130 -31.5zM340 50q63 0 112.5 29.5t78 80t28.5 113.5q0 64 -28.5 114.5t-78 80t-112.5 29.5
q-62 0 -112 -29.5t-79 -80t-29 -114.5q0 -63 29 -113.5t79 -80t112 -29.5zM590 0q-14 0 -22.5 8.5t-8.5 21.5v183l19 60h41v-243q0 -13 -8 -21.5t-21 -8.5zM339 -198q-19 0 -32.5 13.5t-13.5 33.5q0 23 14.5 34.5t32.5 11.5q17 0 31.5 -11.5t14.5 -34.5q0 -20 -13.5 -33.5
t-33.5 -13.5z" />
    <glyph glyph-name="agrave" unicode="&#xe0;" 
d="M340 -6q-80 0 -143.5 36.5t-100 100t-36.5 142.5q0 80 36.5 143.5t100 100t143.5 36.5t143 -36.5t99.5 -100t36.5 -143.5l-25 -40q0 -68 -33.5 -122t-90.5 -85.5t-130 -31.5zM340 50q63 0 112.5 29.5t78 80t28.5 113.5q0 64 -28.5 114.5t-78 80t-112.5 29.5
q-62 0 -112 -29.5t-79 -80t-29 -114.5q0 -63 29 -113.5t79 -80t112 -29.5zM590 0q-14 0 -22.5 8.5t-8.5 21.5v183l19 60h41v-243q0 -13 -8 -21.5t-21 -8.5zM341 639q-10 0 -21 8l-123 123q-8 8 -8 21q0 14 9 22.5t22 8.5q12 0 21 -9l123 -123q7 -7 7 -20t-8.5 -22t-21.5 -9z
" />
    <glyph glyph-name="uni1EA3" unicode="&#x1ea3;" 
d="M340 -6q-80 0 -143.5 36.5t-100 100t-36.5 142.5q0 80 36.5 143.5t100 100t143.5 36.5t143 -36.5t99.5 -100t36.5 -143.5l-25 -40q0 -68 -33.5 -122t-90.5 -85.5t-130 -31.5zM340 50q63 0 112.5 29.5t78 80t28.5 113.5q0 64 -28.5 114.5t-78 80t-112.5 29.5
q-62 0 -112 -29.5t-79 -80t-29 -114.5q0 -63 29 -113.5t79 -80t112 -29.5zM590 0q-14 0 -22.5 8.5t-8.5 21.5v183l19 60h41v-243q0 -13 -8 -21.5t-21 -8.5zM338 596q-12 0 -20.5 8.5t-8.5 20.5v33q0 26 26 32l24 5q24 5 33 16t9 30q0 24 -16 37.5t-39 13.5q-12 0 -22 -4
t-20 -12q-4 -3 -9 -5t-10 -2q-12 0 -20.5 8.5t-8.5 20.5q0 14 10 22q17 14 37.5 22t42.5 8q47 0 80 -27.5t33 -75.5q0 -44 -27.5 -68t-64.5 -30v-24q0 -12 -8.5 -20.5t-20.5 -8.5z" />
    <glyph glyph-name="uni0203" unicode="&#x203;" 
d="M340 -6q-80 0 -143.5 36.5t-100 100t-36.5 142.5q0 80 36.5 143.5t100 100t143.5 36.5t143 -36.5t99.5 -100t36.5 -143.5l-25 -40q0 -68 -33.5 -122t-90.5 -85.5t-130 -31.5zM340 50q63 0 112.5 29.5t78 80t28.5 113.5q0 64 -28.5 114.5t-78 80t-112.5 29.5
q-62 0 -112 -29.5t-79 -80t-29 -114.5q0 -63 29 -113.5t79 -80t112 -29.5zM590 0q-14 0 -22.5 8.5t-8.5 21.5v183l19 60h41v-243q0 -13 -8 -21.5t-21 -8.5zM218 648q-13 0 -22 9t-9 22q0 31 20.5 56t55.5 40t76 15q39 0 73 -13.5t56 -38.5t24 -60q-1 -12 -9.5 -21t-21.5 -9
t-21.5 9t-8.5 22q0 23 -24.5 40t-67.5 17t-67 -17t-24 -40q0 -13 -8.5 -22t-21.5 -9z" />
    <glyph glyph-name="amacron" unicode="&#x101;" 
d="M340 -6q-80 0 -143.5 36.5t-100 100t-36.5 142.5q0 80 36.5 143.5t100 100t143.5 36.5t143 -36.5t99.5 -100t36.5 -143.5l-25 -40q0 -68 -33.5 -122t-90.5 -85.5t-130 -31.5zM340 50q63 0 112.5 29.5t78 80t28.5 113.5q0 64 -28.5 114.5t-78 80t-112.5 29.5
q-62 0 -112 -29.5t-79 -80t-29 -114.5q0 -63 29 -113.5t79 -80t112 -29.5zM590 0q-14 0 -22.5 8.5t-8.5 21.5v183l19 60h41v-243q0 -13 -8 -21.5t-21 -8.5zM207 661q-13 0 -21.5 8.5t-8.5 21.5t8.5 22t21.5 9h265q13 0 21.5 -9t8.5 -22t-8.5 -21.5t-21.5 -8.5h-265z" />
    <glyph glyph-name="aogonek" unicode="&#x105;" 
d="M340 -6q-80 0 -143.5 36.5t-100 100t-36.5 142.5q0 80 36.5 143.5t100 100t143.5 36.5t143 -36.5t99.5 -100t36.5 -143.5l-25 -40q0 -68 -33.5 -122t-90.5 -85.5t-130 -31.5zM340 50q63 0 112.5 29.5t78 80t28.5 113.5q0 64 -28.5 114.5t-78 80t-112.5 29.5
q-62 0 -112 -29.5t-79 -80t-29 -114.5q0 -63 29 -113.5t79 -80t112 -29.5zM590 0q-14 0 -22.5 8.5t-8.5 21.5v183l19 60h41v-243q0 -13 -8 -21.5t-21 -8.5zM611 -251q-30 0 -55 15t-40.5 40t-15.5 56q0 53 47 91q15 12 24.5 23t13.5 21q8 15 26 15q14 0 22.5 -8t8.5 -21
q0 -19 -15.5 -38.5t-44.5 -41.5q-10 -8 -15.5 -19t-5.5 -22q0 -21 14.5 -35.5t35.5 -14.5q7 0 14 2t14 6l35 26q9 6 18 6q13 0 22 -9t9 -22q0 -15 -10 -23l-41 -28q-28 -19 -61 -19z" />
    <glyph glyph-name="aring" unicode="&#xe5;" 
d="M340 -6q-80 0 -143.5 36.5t-100 100t-36.5 142.5q0 80 36.5 143.5t100 100t143.5 36.5t143 -36.5t99.5 -100t36.5 -143.5l-25 -40q0 -68 -33.5 -122t-90.5 -85.5t-130 -31.5zM340 50q63 0 112.5 29.5t78 80t28.5 113.5q0 64 -28.5 114.5t-78 80t-112.5 29.5
q-62 0 -112 -29.5t-79 -80t-29 -114.5q0 -63 29 -113.5t79 -80t112 -29.5zM590 0q-14 0 -22.5 8.5t-8.5 21.5v183l19 60h41v-243q0 -13 -8 -21.5t-21 -8.5zM340 597q-37 0 -64.5 27.5t-27.5 64.5q0 39 27.5 65.5t64.5 26.5q38 0 65 -27t27 -65q0 -37 -26.5 -64.5
t-65.5 -27.5zM340 636q23 0 38.5 15.5t15.5 37.5q0 23 -15.5 38.5t-38.5 15.5q-22 0 -37.5 -15.5t-15.5 -38.5q0 -22 15.5 -37.5t37.5 -15.5z" />
    <glyph glyph-name="aringacute" unicode="&#x1fb;" 
d="M340 -6q-80 0 -143.5 36.5t-100 100t-36.5 142.5q0 80 36.5 143.5t100 100t143.5 36.5t143 -36.5t99.5 -100t36.5 -143.5l-25 -40q0 -68 -33.5 -122t-90.5 -85.5t-130 -31.5zM340 50q63 0 112.5 29.5t78 80t28.5 113.5q0 64 -28.5 114.5t-78 80t-112.5 29.5
q-62 0 -112 -29.5t-79 -80t-29 -114.5q0 -63 29 -113.5t79 -80t112 -29.5zM590 0q-14 0 -22.5 8.5t-8.5 21.5v183l19 60h41v-243q0 -13 -8 -21.5t-21 -8.5zM340 597q-37 0 -64.5 27.5t-27.5 64.5q0 39 27.5 65.5t64.5 26.5q38 0 65 -27t27 -65q0 -37 -26.5 -64.5
t-65.5 -27.5zM340 636q23 0 38.5 15.5t15.5 37.5q0 23 -15.5 38.5t-38.5 15.5q-22 0 -37.5 -15.5t-15.5 -38.5q0 -22 15.5 -37.5t37.5 -15.5zM325 822q-13 0 -22 9t-9 22q0 11 7 20l123 123q9 9 22 9t22 -8.5t9 -22.5q0 -5 -2 -10.5t-7 -10.5l-123 -123q-8 -8 -20 -8z" />
    <glyph glyph-name="atilde" unicode="&#xe3;" 
d="M340 -6q-80 0 -143.5 36.5t-100 100t-36.5 142.5q0 80 36.5 143.5t100 100t143.5 36.5t143 -36.5t99.5 -100t36.5 -143.5l-25 -40q0 -68 -33.5 -122t-90.5 -85.5t-130 -31.5zM340 50q63 0 112.5 29.5t78 80t28.5 113.5q0 64 -28.5 114.5t-78 80t-112.5 29.5
q-62 0 -112 -29.5t-79 -80t-29 -114.5q0 -63 29 -113.5t79 -80t112 -29.5zM590 0q-14 0 -22.5 8.5t-8.5 21.5v183l19 60h41v-243q0 -13 -8 -21.5t-21 -8.5zM445 630q-31 0 -54 12t-40 23q-20 14 -31.5 18.5t-25.5 4.5q-20 0 -40 -10.5t-37 -30.5q-7 -10 -19 -12t-21 4
q-12 7 -14 18.5t5 21.5q26 32 59 49.5t67 17.5q30 0 52 -11t38 -22q17 -11 29.5 -18t31.5 -7q18 0 31.5 5.5t23.5 16.5q8 9 19 12.5t20 -1.5q14 -7 17 -18t-5 -22q-39 -51 -106 -51z" />
    <glyph glyph-name="ae" unicode="&#xe6;" horiz-adv-x="1108" 
d="M831 -5q-76 0 -135.5 35.5t-93 98.5t-33.5 144q0 82 31.5 144.5t87.5 98.5t128 36q74 0 131 -34.5t89 -95t32 -139.5q0 -13 -8 -20.5t-21 -7.5h-440v52h456l-44 -33q2 65 -22 115t-68.5 78.5t-104.5 28.5q-57 0 -101.5 -28.5t-70 -78.5t-25.5 -115q0 -66 27 -116
t75 -78.5t110 -28.5q47 0 82.5 13.5t58.5 35.5q8 8 19.5 8.5t19.5 -6.5q11 -9 11.5 -20t-9.5 -20q-32 -29 -83.5 -48t-98.5 -19zM340 -6q-80 0 -143.5 36.5t-100 100t-36.5 142.5q0 80 36.5 143.5t100 100t143.5 36.5t143 -36.5t99.5 -100t36.5 -143.5l-25 -40
q0 -68 -33.5 -122t-90.5 -85.5t-130 -31.5zM340 50q63 0 112.5 29.5t78 80t28.5 113.5q0 64 -28.5 114.5t-78 80t-112.5 29.5q-62 0 -112 -29.5t-79 -80t-29 -114.5q0 -63 29 -113.5t79 -80t112 -29.5zM590 0q-14 0 -22.5 8.5t-8.5 21.5v183l19 60h41v-243q0 -13 -8 -21.5
t-21 -8.5z" />
    <glyph glyph-name="aeacute" unicode="&#x1fd;" horiz-adv-x="1108" 
d="M831 -5q-76 0 -135.5 35.5t-93 98.5t-33.5 144q0 82 31.5 144.5t87.5 98.5t128 36q74 0 131 -34.5t89 -95t32 -139.5q0 -13 -8 -20.5t-21 -7.5h-440v52h456l-44 -33q2 65 -22 115t-68.5 78.5t-104.5 28.5q-57 0 -101.5 -28.5t-70 -78.5t-25.5 -115q0 -66 27 -116
t75 -78.5t110 -28.5q47 0 82.5 13.5t58.5 35.5q8 8 19.5 8.5t19.5 -6.5q11 -9 11.5 -20t-9.5 -20q-32 -29 -83.5 -48t-98.5 -19zM340 -6q-80 0 -143.5 36.5t-100 100t-36.5 142.5q0 80 36.5 143.5t100 100t143.5 36.5t143 -36.5t99.5 -100t36.5 -143.5l-25 -40
q0 -68 -33.5 -122t-90.5 -85.5t-130 -31.5zM340 50q63 0 112.5 29.5t78 80t28.5 113.5q0 64 -28.5 114.5t-78 80t-112.5 29.5q-62 0 -112 -29.5t-79 -80t-29 -114.5q0 -63 29 -113.5t79 -80t112 -29.5zM590 0q-14 0 -22.5 8.5t-8.5 21.5v183l19 60h41v-243q0 -13 -8 -21.5
t-21 -8.5zM549 628q-13 0 -22 9t-9 22q0 11 7 20l123 123q9 9 22 9t22 -8.5t9 -22.5q0 -5 -2 -10.5t-7 -10.5l-123 -123q-8 -8 -20 -8z" />
    <glyph glyph-name="b" unicode="b" horiz-adv-x="709" 
d="M369 -6q-78 0 -141 36t-99.5 98t-38.5 140v483q0 14 8.5 22t21.5 8q14 0 22 -8t8 -22v-312q32 52 89.5 83t129.5 31q80 0 143.5 -36.5t100 -99.5t36.5 -143t-36.5 -143.5t-100 -100t-143.5 -36.5zM369 50q63 0 112.5 29.5t78.5 80t29 114.5t-29 114t-78.5 79.5
t-112.5 29.5q-62 0 -112 -29.5t-78.5 -79.5t-28.5 -114t28.5 -114.5t78.5 -80t112 -29.5z" />
    <glyph glyph-name="c" unicode="c" horiz-adv-x="593" 
d="M332 -6q-78 0 -139.5 37t-97 100t-35.5 142q0 80 33 143t91 99.5t133 36.5q64 0 117 -24.5t92 -74.5q8 -10 6 -21t-13 -18q-9 -7 -20 -5.5t-19 11.5q-64 76 -163 76q-59 0 -103.5 -29t-69 -79t-24.5 -115q0 -63 27 -113.5t74.5 -80t110.5 -29.5q41 0 77.5 12t63.5 37
q9 8 20 9t19 -7q10 -9 10.5 -20.5t-8.5 -19.5q-73 -67 -182 -67z" />
    <glyph glyph-name="cacute" unicode="&#x107;" horiz-adv-x="593" 
d="M332 -6q-78 0 -139.5 37t-97 100t-35.5 142q0 80 33 143t91 99.5t133 36.5q64 0 117 -24.5t92 -74.5q8 -10 6 -21t-13 -18q-9 -7 -20 -5.5t-19 11.5q-64 76 -163 76q-59 0 -103.5 -29t-69 -79t-24.5 -115q0 -63 27 -113.5t74.5 -80t110.5 -29.5q41 0 77.5 12t63.5 37
q9 8 20 9t19 -7q10 -9 10.5 -20.5t-8.5 -19.5q-73 -67 -182 -67zM303 628q-13 0 -22 9t-9 22q0 11 7 20l123 123q9 9 22 9t22 -8.5t9 -22.5q0 -5 -2 -10.5t-7 -10.5l-123 -123q-8 -8 -20 -8z" />
    <glyph glyph-name="ccaron" unicode="&#x10d;" horiz-adv-x="593" 
d="M332 -6q-78 0 -139.5 37t-97 100t-35.5 142q0 80 33 143t91 99.5t133 36.5q64 0 117 -24.5t92 -74.5q8 -10 6 -21t-13 -18q-9 -7 -20 -5.5t-19 11.5q-64 76 -163 76q-59 0 -103.5 -29t-69 -79t-24.5 -115q0 -63 27 -113.5t74.5 -80t110.5 -29.5q41 0 77.5 12t63.5 37
q9 8 20 9t19 -7q10 -9 10.5 -20.5t-8.5 -19.5q-73 -67 -182 -67zM318 648q-10 0 -15 4l-121 80q-16 10 -16 27t15 25t35 -6l102 -70l102 68q21 14 35.5 7t14.5 -24q0 -15 -16 -27l-121 -80q-5 -4 -15 -4z" />
    <glyph glyph-name="ccedilla" unicode="&#xe7;" horiz-adv-x="593" 
d="M332 -6q-78 0 -139.5 37t-97 100t-35.5 142q0 80 33 143t91 99.5t133 36.5q64 0 117 -24.5t92 -74.5q8 -10 6 -21t-13 -18q-9 -7 -20 -5.5t-19 11.5q-64 76 -163 76q-59 0 -103.5 -29t-69 -79t-24.5 -115q0 -63 27 -113.5t74.5 -80t110.5 -29.5q41 0 77.5 12t63.5 37
q9 8 20 9t19 -7q10 -9 10.5 -20.5t-8.5 -19.5q-73 -67 -182 -67zM302 -232q-49 0 -80 20.5t-31 45.5q0 13 8.5 22t21.5 9q11 0 18.5 -6t16.5 -13q8 -6 17.5 -11.5t28.5 -5.5q25 0 42 11t17 30q0 20 -13 31t-44 20q-19 5 -28 14t1 32l20 49q4 10 12.5 16t22.5 6
q15 0 22.5 -11.5t1.5 -26.5l-15 -36q53 -16 70.5 -39t17.5 -53q0 -29 -18 -53t-46.5 -37.5t-62.5 -13.5z" />
    <glyph glyph-name="ccircumflex" unicode="&#x109;" horiz-adv-x="593" 
d="M332 -6q-78 0 -139.5 37t-97 100t-35.5 142q0 80 33 143t91 99.5t133 36.5q64 0 117 -24.5t92 -74.5q8 -10 6 -21t-13 -18q-9 -7 -20 -5.5t-19 11.5q-64 76 -163 76q-59 0 -103.5 -29t-69 -79t-24.5 -115q0 -63 27 -113.5t74.5 -80t110.5 -29.5q41 0 77.5 12t63.5 37
q9 8 20 9t19 -7q10 -9 10.5 -20.5t-8.5 -19.5q-73 -67 -182 -67zM198 648q-13 0 -22.5 8.5t-9.5 21.5q0 17 16 27l121 81q8 4 15 4q5 0 8.5 -1t6.5 -3l121 -81q16 -10 16 -27q0 -13 -8.5 -21.5t-22.5 -8.5q-6 0 -10 1.5t-9 4.5l-102 68l-102 -68q-9 -6 -18 -6z" />
    <glyph glyph-name="cdotaccent" unicode="&#x10b;" horiz-adv-x="593" 
d="M332 -6q-78 0 -139.5 37t-97 100t-35.5 142q0 80 33 143t91 99.5t133 36.5q64 0 117 -24.5t92 -74.5q8 -10 6 -21t-13 -18q-9 -7 -20 -5.5t-19 11.5q-64 76 -163 76q-59 0 -103.5 -29t-69 -79t-24.5 -115q0 -63 27 -113.5t74.5 -80t110.5 -29.5q41 0 77.5 12t63.5 37
q9 8 20 9t19 -7q10 -9 10.5 -20.5t-8.5 -19.5q-73 -67 -182 -67zM317 662q-19 0 -32.5 13.5t-13.5 33.5q0 23 14.5 34.5t32.5 11.5q17 0 31.5 -11.5t14.5 -34.5q0 -20 -13.5 -33.5t-33.5 -13.5z" />
    <glyph glyph-name="d" unicode="d" horiz-adv-x="709" 
d="M340 -6q-80 0 -143.5 36.5t-100 100t-36.5 143.5t36.5 143t100 99.5t143.5 36.5q72 0 129.5 -31t89.5 -83v312q0 14 8.5 22t21.5 8q14 0 22 -8t8 -22v-483q-1 -78 -38 -140t-99.5 -98t-141.5 -36zM340 50q63 0 112.5 29.5t78 80t28.5 114.5t-28.5 114t-78 79.5
t-112.5 29.5q-62 0 -112 -29.5t-79 -79.5t-29 -114t29 -114.5t79 -80t112 -29.5z" />
    <glyph glyph-name="eth" unicode="&#xf0;" horiz-adv-x="663" 
d="M327 -6q-78 0 -138 34.5t-94.5 94.5t-34.5 138q0 77 34.5 136t94.5 92.5t138 33.5q68 0 119.5 -29.5t81 -82t29.5 -120.5h36q0 -87 -34 -154t-94 -105t-138 -38zM327 50q61 0 107 27t72.5 74.5t26.5 109.5q0 61 -26.5 107t-72.5 72.5t-107 26.5q-60 0 -107 -26.5
t-73.5 -72.5t-26.5 -107q0 -62 26.5 -109.5t73.5 -74.5t107 -27zM547 286v51q0 84 -18.5 146.5t-57.5 109.5t-101.5 82t-150.5 64q-13 5 -21.5 15.5t-4.5 23.5q5 14 17 17.5t25 -1.5q98 -32 166.5 -72t110.5 -93t61.5 -122.5t19.5 -159.5v-61h-46zM258 614q-10 5 -12 14.5
t2 19.5l86 179q5 11 14.5 15t19.5 -1t12.5 -14.5t-2.5 -19.5l-87 -179q-5 -11 -14.5 -14.5t-18.5 0.5z" />
    <glyph glyph-name="dcaron" unicode="&#x10f;" horiz-adv-x="780" 
d="M340 -6q-80 0 -143.5 36.5t-100 100t-36.5 143.5t36.5 143t100 99.5t143.5 36.5q72 0 129.5 -31t89.5 -83v312q0 14 8.5 22t21.5 8q14 0 22 -8t8 -22v-483q-1 -78 -38 -140t-99.5 -98t-141.5 -36zM340 50q63 0 112.5 29.5t78 80t28.5 114.5t-28.5 114t-78 79.5
t-112.5 29.5q-62 0 -112 -29.5t-79 -79.5t-29 -114t29 -114.5t79 -80t112 -29.5zM698 539q-8 2 -12.5 8.5t-3.5 14.5q2 9 9.5 21.5t16 32t10.5 48.5q2 18 -2.5 28.5t-9.5 22t-5 29.5q0 23 13.5 30t29.5 7q29 0 40 -30t3 -71q-4 -22 -15 -47t-24.5 -47t-26.5 -35.5t-23 -11.5
z" />
    <glyph glyph-name="dcroat" unicode="&#x111;" horiz-adv-x="709" 
d="M384 630q-12 0 -19.5 7.5t-7.5 19.5t7.5 19.5t19.5 7.5h298q12 0 19.5 -7.5t7.5 -19.5t-7.5 -19.5t-19.5 -7.5h-298zM340 -6q-80 0 -143.5 36.5t-100 100t-36.5 143.5t36.5 143t100 99.5t143.5 36.5q72 0 129.5 -31t89.5 -83v312q0 14 8.5 22t21.5 8q14 0 22 -8t8 -22
v-483q-1 -78 -38 -140t-99.5 -98t-141.5 -36zM340 50q63 0 112.5 29.5t78 80t28.5 114.5t-28.5 114t-78 79.5t-112.5 29.5q-62 0 -112 -29.5t-79 -79.5t-29 -114t29 -114.5t79 -80t112 -29.5z" />
    <glyph glyph-name="e" unicode="e" horiz-adv-x="609" 
d="M332 -5q-79 0 -140.5 35.5t-96.5 98.5t-35 144q0 82 33 144.5t91 98.5t133 36q74 0 131 -34.5t89 -95t32 -139.5q0 -13 -8 -20.5t-21 -7.5h-440v52h456l-44 -33q2 65 -22 115t-68.5 78.5t-104.5 28.5q-57 0 -101.5 -28.5t-70 -78.5t-25.5 -116q0 -65 27 -115t75 -78.5
t110 -28.5q39 0 78.5 13.5t62.5 35.5q8 8 19.5 8.5t19.5 -6.5q11 -9 11.5 -20t-9.5 -20q-32 -29 -83.5 -48t-98.5 -19z" />
    <glyph glyph-name="eacute" unicode="&#xe9;" horiz-adv-x="609" 
d="M332 -5q-79 0 -140.5 35.5t-96.5 98.5t-35 144q0 82 33 144.5t91 98.5t133 36q74 0 131 -34.5t89 -95t32 -139.5q0 -13 -8 -20.5t-21 -7.5h-440v52h456l-44 -33q2 65 -22 115t-68.5 78.5t-104.5 28.5q-57 0 -101.5 -28.5t-70 -78.5t-25.5 -116q0 -65 27 -115t75 -78.5
t110 -28.5q39 0 78.5 13.5t62.5 35.5q8 8 19.5 8.5t19.5 -6.5q11 -9 11.5 -20t-9.5 -20q-32 -29 -83.5 -48t-98.5 -19zM300 628q-13 0 -22 9t-9 22q0 11 7 20l123 123q9 9 22 9t22 -8.5t9 -22.5q0 -5 -2 -10.5t-7 -10.5l-123 -123q-8 -8 -20 -8z" />
    <glyph glyph-name="ebreve" unicode="&#x115;" horiz-adv-x="609" 
d="M332 -5q-79 0 -140.5 35.5t-96.5 98.5t-35 144q0 82 33 144.5t91 98.5t133 36q74 0 131 -34.5t89 -95t32 -139.5q0 -13 -8 -20.5t-21 -7.5h-440v52h456l-44 -33q2 65 -22 115t-68.5 78.5t-104.5 28.5q-57 0 -101.5 -28.5t-70 -78.5t-25.5 -116q0 -65 27 -115t75 -78.5
t110 -28.5q39 0 78.5 13.5t62.5 35.5q8 8 19.5 8.5t19.5 -6.5q11 -9 11.5 -20t-9.5 -20q-32 -29 -83.5 -48t-98.5 -19zM314 648q-41 0 -76 15t-55.5 40.5t-20.5 55.5q0 13 9 22t22 9t21.5 -9t8.5 -22q0 -22 24 -39.5t67 -17.5t67.5 17t24.5 40q0 13 8.5 22t21.5 9t21.5 -9
t9.5 -21q-2 -34 -24 -59.5t-56 -39t-73 -13.5z" />
    <glyph glyph-name="ecaron" unicode="&#x11b;" horiz-adv-x="609" 
d="M332 -5q-79 0 -140.5 35.5t-96.5 98.5t-35 144q0 82 33 144.5t91 98.5t133 36q74 0 131 -34.5t89 -95t32 -139.5q0 -13 -8 -20.5t-21 -7.5h-440v52h456l-44 -33q2 65 -22 115t-68.5 78.5t-104.5 28.5q-57 0 -101.5 -28.5t-70 -78.5t-25.5 -116q0 -65 27 -115t75 -78.5
t110 -28.5q39 0 78.5 13.5t62.5 35.5q8 8 19.5 8.5t19.5 -6.5q11 -9 11.5 -20t-9.5 -20q-32 -29 -83.5 -48t-98.5 -19zM315 648q-10 0 -15 4l-121 80q-16 10 -16 27t15 25t35 -6l102 -70l102 68q21 14 35.5 7t14.5 -24q0 -15 -16 -27l-121 -80q-5 -4 -15 -4z" />
    <glyph glyph-name="ecircumflex" unicode="&#xea;" horiz-adv-x="609" 
d="M332 -5q-79 0 -140.5 35.5t-96.5 98.5t-35 144q0 82 33 144.5t91 98.5t133 36q74 0 131 -34.5t89 -95t32 -139.5q0 -13 -8 -20.5t-21 -7.5h-440v52h456l-44 -33q2 65 -22 115t-68.5 78.5t-104.5 28.5q-57 0 -101.5 -28.5t-70 -78.5t-25.5 -116q0 -65 27 -115t75 -78.5
t110 -28.5q39 0 78.5 13.5t62.5 35.5q8 8 19.5 8.5t19.5 -6.5q11 -9 11.5 -20t-9.5 -20q-32 -29 -83.5 -48t-98.5 -19zM195 648q-13 0 -22.5 8.5t-9.5 21.5q0 17 16 27l121 81q8 4 15 4q5 0 8.5 -1t6.5 -3l121 -81q16 -10 16 -27q0 -13 -8.5 -21.5t-22.5 -8.5q-6 0 -10 1.5
t-9 4.5l-102 68l-102 -68q-9 -6 -18 -6z" />
    <glyph glyph-name="uni1EBF" unicode="&#x1ebf;" horiz-adv-x="609" 
d="M332 -5q-79 0 -140.5 35.5t-96.5 98.5t-35 144q0 82 33 144.5t91 98.5t133 36q74 0 131 -34.5t89 -95t32 -139.5q0 -13 -8 -20.5t-21 -7.5h-440v52h456l-44 -33q2 65 -22 115t-68.5 78.5t-104.5 28.5q-57 0 -101.5 -28.5t-70 -78.5t-25.5 -116q0 -65 27 -115t75 -78.5
t110 -28.5q39 0 78.5 13.5t62.5 35.5q8 8 19.5 8.5t19.5 -6.5q11 -9 11.5 -20t-9.5 -20q-32 -29 -83.5 -48t-98.5 -19zM195 648q-13 0 -22.5 8.5t-9.5 21.5q0 17 16 27l121 81q8 4 15 4q5 0 8.5 -1t6.5 -3l121 -81q16 -10 16 -27q0 -13 -8.5 -21.5t-22.5 -8.5q-6 0 -10 1.5
t-9 4.5l-102 68l-102 -68q-9 -6 -18 -6zM391 814q-13 0 -22 9t-9 22q0 11 7 20l123 123q9 9 22 9t22 -8.5t9 -22.5q0 -5 -2 -10.5t-7 -10.5l-123 -123q-8 -8 -20 -8z" />
    <glyph glyph-name="uni1EC7" unicode="&#x1ec7;" horiz-adv-x="609" 
d="M332 -5q-79 0 -140.5 35.5t-96.5 98.5t-35 144q0 82 33 144.5t91 98.5t133 36q74 0 131 -34.5t89 -95t32 -139.5q0 -13 -8 -20.5t-21 -7.5h-440v52h456l-44 -33q2 65 -22 115t-68.5 78.5t-104.5 28.5q-57 0 -101.5 -28.5t-70 -78.5t-25.5 -116q0 -65 27 -115t75 -78.5
t110 -28.5q39 0 78.5 13.5t62.5 35.5q8 8 19.5 8.5t19.5 -6.5q11 -9 11.5 -20t-9.5 -20q-32 -29 -83.5 -48t-98.5 -19zM195 648q-13 0 -22.5 8.5t-9.5 21.5q0 17 16 27l121 81q8 4 15 4q5 0 8.5 -1t6.5 -3l121 -81q16 -10 16 -27q0 -13 -8.5 -21.5t-22.5 -8.5q-6 0 -10 1.5
t-9 4.5l-102 68l-102 -68q-9 -6 -18 -6zM314 -198q-19 0 -32.5 13.5t-13.5 33.5q0 23 14.5 34.5t32.5 11.5q17 0 31.5 -11.5t14.5 -34.5q0 -20 -13.5 -33.5t-33.5 -13.5z" />
    <glyph glyph-name="uni1EC1" unicode="&#x1ec1;" horiz-adv-x="609" 
d="M332 -5q-79 0 -140.5 35.5t-96.5 98.5t-35 144q0 82 33 144.5t91 98.5t133 36q74 0 131 -34.5t89 -95t32 -139.5q0 -13 -8 -20.5t-21 -7.5h-440v52h456l-44 -33q2 65 -22 115t-68.5 78.5t-104.5 28.5q-57 0 -101.5 -28.5t-70 -78.5t-25.5 -116q0 -65 27 -115t75 -78.5
t110 -28.5q39 0 78.5 13.5t62.5 35.5q8 8 19.5 8.5t19.5 -6.5q11 -9 11.5 -20t-9.5 -20q-32 -29 -83.5 -48t-98.5 -19zM195 648q-13 0 -22.5 8.5t-9.5 21.5q0 17 16 27l121 81q8 4 15 4q5 0 8.5 -1t6.5 -3l121 -81q16 -10 16 -27q0 -13 -8.5 -21.5t-22.5 -8.5q-6 0 -10 1.5
t-9 4.5l-102 68l-102 -68q-9 -6 -18 -6zM407 825q-10 0 -21 8l-123 123q-8 8 -8 21q0 14 9 22.5t22 8.5q12 0 21 -9l123 -123q7 -7 7 -20t-8.5 -22t-21.5 -9z" />
    <glyph glyph-name="uni1EC3" unicode="&#x1ec3;" horiz-adv-x="609" 
d="M332 -5q-79 0 -140.5 35.5t-96.5 98.5t-35 144q0 82 33 144.5t91 98.5t133 36q74 0 131 -34.5t89 -95t32 -139.5q0 -13 -8 -20.5t-21 -7.5h-440v52h456l-44 -33q2 65 -22 115t-68.5 78.5t-104.5 28.5q-57 0 -101.5 -28.5t-70 -78.5t-25.5 -116q0 -65 27 -115t75 -78.5
t110 -28.5q39 0 78.5 13.5t62.5 35.5q8 8 19.5 8.5t19.5 -6.5q11 -9 11.5 -20t-9.5 -20q-32 -29 -83.5 -48t-98.5 -19zM196 648q-13 0 -22.5 8.5t-9.5 21.5q0 17 16 27l121 81q8 4 15 4q5 0 8.5 -1t6.5 -3l121 -81q16 -10 16 -27q0 -13 -8.5 -21.5t-22.5 -8.5q-6 0 -10 1.5
t-9 4.5l-102 68l-102 -68q-9 -6 -18 -6zM405 782q-12 0 -20.5 8.5t-8.5 20.5v33q0 26 26 32l24 5q24 5 33 16t9 30q0 24 -16 37.5t-39 13.5q-12 0 -22 -4t-20 -12q-4 -3 -9 -5t-10 -2q-12 0 -20.5 8.5t-8.5 20.5q0 14 10 22q17 14 37.5 22t42.5 8q47 0 80 -27.5t33 -75.5
q0 -44 -27.5 -68t-64.5 -30v-24q0 -12 -8.5 -20.5t-20.5 -8.5z" />
    <glyph glyph-name="uni1EC5" unicode="&#x1ec5;" horiz-adv-x="609" 
d="M332 -5q-79 0 -140.5 35.5t-96.5 98.5t-35 144q0 82 33 144.5t91 98.5t133 36q74 0 131 -34.5t89 -95t32 -139.5q0 -13 -8 -20.5t-21 -7.5h-440v52h456l-44 -33q2 65 -22 115t-68.5 78.5t-104.5 28.5q-57 0 -101.5 -28.5t-70 -78.5t-25.5 -116q0 -65 27 -115t75 -78.5
t110 -28.5q39 0 78.5 13.5t62.5 35.5q8 8 19.5 8.5t19.5 -6.5q11 -9 11.5 -20t-9.5 -20q-32 -29 -83.5 -48t-98.5 -19zM195 648q-13 0 -22.5 8.5t-9.5 21.5q0 17 16 27l121 81q8 4 15 4q5 0 8.5 -1t6.5 -3l121 -81q16 -10 16 -27q0 -13 -8.5 -21.5t-22.5 -8.5q-6 0 -10 1.5
t-9 4.5l-102 68l-102 -68q-9 -6 -18 -6zM375 818q-24 0 -43 12t-30 22q-15 15 -25.5 22t-23.5 7t-22 -11.5t-20 -31.5q-6 -11 -16 -15.5t-20 -1.5q-11 4 -15 14.5t1 22.5q17 40 39 57t52 17q26 0 41 -9.5t31 -23.5q20 -16 29.5 -22t17.5 -6q15 0 26 30q5 12 15.5 18t20.5 3
q14 -4 19 -14t0 -23q-15 -37 -34 -52t-43 -15z" />
    <glyph glyph-name="uni0205" unicode="&#x205;" horiz-adv-x="609" 
d="M332 -5q-79 0 -140.5 35.5t-96.5 98.5t-35 144q0 82 33 144.5t91 98.5t133 36q74 0 131 -34.5t89 -95t32 -139.5q0 -13 -8 -20.5t-21 -7.5h-440v52h456l-44 -33q2 65 -22 115t-68.5 78.5t-104.5 28.5q-57 0 -101.5 -28.5t-70 -78.5t-25.5 -116q0 -65 27 -115t75 -78.5
t110 -28.5q39 0 78.5 13.5t62.5 35.5q8 8 19.5 8.5t19.5 -6.5q11 -9 11.5 -20t-9.5 -20q-32 -29 -83.5 -48t-98.5 -19zM428 629q-14 0 -21 14l-65 137q-2 6 -2 11q0 11 8.5 20.5t22.5 9.5q9 0 16.5 -5t11.5 -14l46 -144q1 -2 1 -9q0 -10 -5.5 -15t-12.5 -5zM270 629
q-14 0 -20 14l-65 137q-1 2 -1.5 5t-0.5 6q0 11 8.5 20.5t22.5 9.5q9 0 16.5 -5t10.5 -14l47 -144q1 -1 1 -3.5v-5.5q0 -10 -5.5 -15t-13.5 -5z" />
    <glyph glyph-name="edieresis" unicode="&#xeb;" horiz-adv-x="609" 
d="M332 -5q-79 0 -140.5 35.5t-96.5 98.5t-35 144q0 82 33 144.5t91 98.5t133 36q74 0 131 -34.5t89 -95t32 -139.5q0 -13 -8 -20.5t-21 -7.5h-440v52h456l-44 -33q2 65 -22 115t-68.5 78.5t-104.5 28.5q-57 0 -101.5 -28.5t-70 -78.5t-25.5 -116q0 -65 27 -115t75 -78.5
t110 -28.5q39 0 78.5 13.5t62.5 35.5q8 8 19.5 8.5t19.5 -6.5q11 -9 11.5 -20t-9.5 -20q-32 -29 -83.5 -48t-98.5 -19zM215 657q-22 0 -37 15t-15 37q0 21 15 36t37 15t36.5 -15t14.5 -36q0 -22 -14.5 -37t-36.5 -15zM415 657q-22 0 -37 15t-15 37q0 21 15 36t37 15
t36.5 -15t14.5 -36q0 -22 -14.5 -37t-36.5 -15z" />
    <glyph glyph-name="edotaccent" unicode="&#x117;" horiz-adv-x="609" 
d="M332 -5q-79 0 -140.5 35.5t-96.5 98.5t-35 144q0 82 33 144.5t91 98.5t133 36q74 0 131 -34.5t89 -95t32 -139.5q0 -13 -8 -20.5t-21 -7.5h-440v52h456l-44 -33q2 65 -22 115t-68.5 78.5t-104.5 28.5q-57 0 -101.5 -28.5t-70 -78.5t-25.5 -116q0 -65 27 -115t75 -78.5
t110 -28.5q39 0 78.5 13.5t62.5 35.5q8 8 19.5 8.5t19.5 -6.5q11 -9 11.5 -20t-9.5 -20q-32 -29 -83.5 -48t-98.5 -19zM314 662q-19 0 -32.5 13.5t-13.5 33.5q0 23 14.5 34.5t32.5 11.5q17 0 31.5 -11.5t14.5 -34.5q0 -20 -13.5 -33.5t-33.5 -13.5z" />
    <glyph glyph-name="uni1EB9" unicode="&#x1eb9;" horiz-adv-x="609" 
d="M332 -5q-79 0 -140.5 35.5t-96.5 98.5t-35 144q0 82 33 144.5t91 98.5t133 36q74 0 131 -34.5t89 -95t32 -139.5q0 -13 -8 -20.5t-21 -7.5h-440v52h456l-44 -33q2 65 -22 115t-68.5 78.5t-104.5 28.5q-57 0 -101.5 -28.5t-70 -78.5t-25.5 -116q0 -65 27 -115t75 -78.5
t110 -28.5q39 0 78.5 13.5t62.5 35.5q8 8 19.5 8.5t19.5 -6.5q11 -9 11.5 -20t-9.5 -20q-32 -29 -83.5 -48t-98.5 -19zM314 -198q-19 0 -32.5 13.5t-13.5 33.5q0 23 14.5 34.5t32.5 11.5q17 0 31.5 -11.5t14.5 -34.5q0 -20 -13.5 -33.5t-33.5 -13.5z" />
    <glyph glyph-name="egrave" unicode="&#xe8;" horiz-adv-x="609" 
d="M332 -5q-79 0 -140.5 35.5t-96.5 98.5t-35 144q0 82 33 144.5t91 98.5t133 36q74 0 131 -34.5t89 -95t32 -139.5q0 -13 -8 -20.5t-21 -7.5h-440v52h456l-44 -33q2 65 -22 115t-68.5 78.5t-104.5 28.5q-57 0 -101.5 -28.5t-70 -78.5t-25.5 -116q0 -65 27 -115t75 -78.5
t110 -28.5q39 0 78.5 13.5t62.5 35.5q8 8 19.5 8.5t19.5 -6.5q11 -9 11.5 -20t-9.5 -20q-32 -29 -83.5 -48t-98.5 -19zM316 639q-10 0 -21 8l-123 123q-8 8 -8 21q0 14 9 22.5t22 8.5q12 0 21 -9l123 -123q7 -7 7 -20t-8.5 -22t-21.5 -9z" />
    <glyph glyph-name="uni1EBB" unicode="&#x1ebb;" horiz-adv-x="609" 
d="M332 -5q-79 0 -140.5 35.5t-96.5 98.5t-35 144q0 82 33 144.5t91 98.5t133 36q74 0 131 -34.5t89 -95t32 -139.5q0 -13 -8 -20.5t-21 -7.5h-440v52h456l-44 -33q2 65 -22 115t-68.5 78.5t-104.5 28.5q-57 0 -101.5 -28.5t-70 -78.5t-25.5 -116q0 -65 27 -115t75 -78.5
t110 -28.5q39 0 78.5 13.5t62.5 35.5q8 8 19.5 8.5t19.5 -6.5q11 -9 11.5 -20t-9.5 -20q-32 -29 -83.5 -48t-98.5 -19zM313 596q-12 0 -20.5 8.5t-8.5 20.5v33q0 26 26 32l24 5q24 5 33 16t9 30q0 24 -16 37.5t-39 13.5q-12 0 -22 -4t-20 -12q-4 -3 -9 -5t-10 -2
q-12 0 -20.5 8.5t-8.5 20.5q0 14 10 22q17 14 37.5 22t42.5 8q47 0 80 -27.5t33 -75.5q0 -44 -27.5 -68t-64.5 -30v-24q0 -12 -8.5 -20.5t-20.5 -8.5z" />
    <glyph glyph-name="uni0207" unicode="&#x207;" horiz-adv-x="609" 
d="M332 -5q-79 0 -140.5 35.5t-96.5 98.5t-35 144q0 82 33 144.5t91 98.5t133 36q74 0 131 -34.5t89 -95t32 -139.5q0 -13 -8 -20.5t-21 -7.5h-440v52h456l-44 -33q2 65 -22 115t-68.5 78.5t-104.5 28.5q-57 0 -101.5 -28.5t-70 -78.5t-25.5 -116q0 -65 27 -115t75 -78.5
t110 -28.5q39 0 78.5 13.5t62.5 35.5q8 8 19.5 8.5t19.5 -6.5q11 -9 11.5 -20t-9.5 -20q-32 -29 -83.5 -48t-98.5 -19zM193 648q-13 0 -22 9t-9 22q0 31 20.5 56t55.5 40t76 15q39 0 73 -13.5t56 -38.5t24 -60q-1 -12 -9.5 -21t-21.5 -9t-21.5 9t-8.5 22q0 23 -24.5 40
t-67.5 17t-67 -17t-24 -40q0 -13 -8.5 -22t-21.5 -9z" />
    <glyph glyph-name="emacron" unicode="&#x113;" horiz-adv-x="609" 
d="M332 -5q-79 0 -140.5 35.5t-96.5 98.5t-35 144q0 82 33 144.5t91 98.5t133 36q74 0 131 -34.5t89 -95t32 -139.5q0 -13 -8 -20.5t-21 -7.5h-440v52h456l-44 -33q2 65 -22 115t-68.5 78.5t-104.5 28.5q-57 0 -101.5 -28.5t-70 -78.5t-25.5 -116q0 -65 27 -115t75 -78.5
t110 -28.5q39 0 78.5 13.5t62.5 35.5q8 8 19.5 8.5t19.5 -6.5q11 -9 11.5 -20t-9.5 -20q-32 -29 -83.5 -48t-98.5 -19zM182 661q-13 0 -21.5 8.5t-8.5 21.5t8.5 22t21.5 9h265q13 0 21.5 -9t8.5 -22t-8.5 -21.5t-21.5 -8.5h-265z" />
    <glyph glyph-name="eogonek" unicode="&#x119;" horiz-adv-x="609" 
d="M332 -5q-79 0 -140.5 35.5t-96.5 98.5t-35 144q0 82 33 144.5t91 98.5t133 36q74 0 131 -34.5t89 -95t32 -139.5q0 -13 -8 -20.5t-21 -7.5h-440v52h456l-44 -33q2 65 -22 115t-68.5 78.5t-104.5 28.5q-57 0 -101.5 -28.5t-70 -78.5t-25.5 -116q0 -65 27 -115t75 -78.5
t110 -28.5q39 0 78.5 13.5t62.5 35.5q8 8 19.5 8.5t19.5 -6.5q11 -9 11.5 -20t-9.5 -20q-32 -29 -83.5 -48t-98.5 -19zM401 -201q-30 0 -55 15t-40.5 40t-15.5 56q0 53 47 91q15 12 24.5 23t13.5 21q8 15 26 15q14 0 22.5 -8t8.5 -21q0 -19 -15.5 -38.5t-44.5 -41.5
q-10 -8 -15.5 -19t-5.5 -22q0 -21 14.5 -35.5t35.5 -14.5q7 0 14 2t14 6l35 26q9 6 18 6q13 0 22 -9t9 -22q0 -15 -10 -23l-41 -28q-28 -19 -61 -19z" />
    <glyph glyph-name="uni1EBD" unicode="&#x1ebd;" horiz-adv-x="609" 
d="M332 -5q-79 0 -140.5 35.5t-96.5 98.5t-35 144q0 82 33 144.5t91 98.5t133 36q74 0 131 -34.5t89 -95t32 -139.5q0 -13 -8 -20.5t-21 -7.5h-440v52h456l-44 -33q2 65 -22 115t-68.5 78.5t-104.5 28.5q-57 0 -101.5 -28.5t-70 -78.5t-25.5 -116q0 -65 27 -115t75 -78.5
t110 -28.5q39 0 78.5 13.5t62.5 35.5q8 8 19.5 8.5t19.5 -6.5q11 -9 11.5 -20t-9.5 -20q-32 -29 -83.5 -48t-98.5 -19zM420 630q-31 0 -54 12t-40 23q-20 14 -31.5 18.5t-25.5 4.5q-20 0 -40 -10.5t-37 -30.5q-7 -10 -19 -12t-21 4q-12 7 -14 18.5t5 21.5q26 32 59 49.5
t67 17.5q30 0 52 -11t38 -22q17 -11 29.5 -18t31.5 -7q18 0 31.5 5.5t23.5 16.5q8 9 19 12.5t20 -1.5q14 -7 17 -18t-5 -22q-39 -51 -106 -51z" />
    <glyph glyph-name="uni0259" unicode="&#x259;" horiz-adv-x="609" 
d="M292 -5q-74 0 -130.5 34.5t-89 95.5t-32.5 139q0 13 8 20.5t21 7.5h440v-52h-456l44 33q-2 -65 22 -115t69 -78.5t104 -28.5q58 0 102 28.5t69.5 79t25.5 115.5t-27 115t-75 78.5t-110 28.5q-39 0 -78.5 -13.5t-62.5 -35.5q-8 -7 -19.5 -8t-19.5 6q-10 9 -11 20t9 20
q32 29 83.5 48t98.5 19q80 0 141 -35.5t96 -98t35 -144.5q0 -81 -33 -144t-90.5 -99t-133.5 -36z" />
    <glyph glyph-name="f" unicode="f" horiz-adv-x="365" 
d="M165 0q-13 0 -21.5 8.5t-8.5 21.5v518q0 68 21 120.5t65.5 82.5t113.5 30q14 0 22 -7.5t8 -19.5t-8 -19.5t-22 -7.5q-51 0 -81.5 -23.5t-44 -64t-13.5 -91.5v-518q0 -13 -8.5 -21.5t-22.5 -8.5zM57 473q-12 0 -19.5 7.5t-7.5 19.5t7.5 19.5t19.5 7.5h271q12 0 19.5 -7.5
t7.5 -19.5t-7.5 -19.5t-19.5 -7.5h-271z" />
    <glyph glyph-name="g" unicode="g" 
d="M340 -6q-82 0 -145 36t-99 99t-36 144q0 82 37 145t100.5 99t142.5 36q82 0 144.5 -36t98.5 -99t36 -145l-35 -40q0 -70 -31 -124t-86 -84.5t-127 -30.5zM344 -209q-83 0 -141.5 31t-96.5 79q-8 10 -8 21t10 19q10 7 23.5 5t20.5 -13q31 -37 79 -61.5t113 -24.5
q62 0 110.5 30t76.5 82.5t28 117.5v159l27 37h33v-196q0 -81 -36 -146t-98 -102.5t-141 -37.5zM340 50q64 0 113.5 28.5t77.5 79t28 115.5q0 66 -28 116.5t-77.5 79t-113.5 28.5t-114 -28.5t-78 -79t-28 -116.5q0 -65 28 -115.5t78 -79t114 -28.5z" />
    <glyph glyph-name="gbreve" unicode="&#x11f;" 
d="M340 -6q-82 0 -145 36t-99 99t-36 144q0 82 37 145t100.5 99t142.5 36q82 0 144.5 -36t98.5 -99t36 -145l-35 -40q0 -70 -31 -124t-86 -84.5t-127 -30.5zM344 -209q-83 0 -141.5 31t-96.5 79q-8 10 -8 21t10 19q10 7 23.5 5t20.5 -13q31 -37 79 -61.5t113 -24.5
q62 0 110.5 30t76.5 82.5t28 117.5v159l27 37h33v-196q0 -81 -36 -146t-98 -102.5t-141 -37.5zM340 50q64 0 113.5 28.5t77.5 79t28 115.5q0 66 -28 116.5t-77.5 79t-113.5 28.5t-114 -28.5t-78 -79t-28 -116.5q0 -65 28 -115.5t78 -79t114 -28.5zM339 648q-41 0 -76 15
t-55.5 40.5t-20.5 55.5q0 13 9 22t22 9t21.5 -9t8.5 -22q0 -22 24 -39.5t67 -17.5t67.5 17t24.5 40q0 13 8.5 22t21.5 9t21.5 -9t9.5 -21q-2 -34 -24 -59.5t-56 -39t-73 -13.5z" />
    <glyph glyph-name="gcaron" unicode="&#x1e7;" 
d="M340 -6q-82 0 -145 36t-99 99t-36 144q0 82 37 145t100.5 99t142.5 36q82 0 144.5 -36t98.5 -99t36 -145l-35 -40q0 -70 -31 -124t-86 -84.5t-127 -30.5zM344 -209q-83 0 -141.5 31t-96.5 79q-8 10 -8 21t10 19q10 7 23.5 5t20.5 -13q31 -37 79 -61.5t113 -24.5
q62 0 110.5 30t76.5 82.5t28 117.5v159l27 37h33v-196q0 -81 -36 -146t-98 -102.5t-141 -37.5zM340 50q64 0 113.5 28.5t77.5 79t28 115.5q0 66 -28 116.5t-77.5 79t-113.5 28.5t-114 -28.5t-78 -79t-28 -116.5q0 -65 28 -115.5t78 -79t114 -28.5zM340 648q-10 0 -15 4
l-121 80q-16 10 -16 27t15 25t35 -6l102 -70l102 68q21 14 35.5 7t14.5 -24q0 -15 -16 -27l-121 -80q-5 -4 -15 -4z" />
    <glyph glyph-name="gcircumflex" unicode="&#x11d;" 
d="M340 -6q-82 0 -145 36t-99 99t-36 144q0 82 37 145t100.5 99t142.5 36q82 0 144.5 -36t98.5 -99t36 -145l-35 -40q0 -70 -31 -124t-86 -84.5t-127 -30.5zM344 -209q-83 0 -141.5 31t-96.5 79q-8 10 -8 21t10 19q10 7 23.5 5t20.5 -13q31 -37 79 -61.5t113 -24.5
q62 0 110.5 30t76.5 82.5t28 117.5v159l27 37h33v-196q0 -81 -36 -146t-98 -102.5t-141 -37.5zM340 50q64 0 113.5 28.5t77.5 79t28 115.5q0 66 -28 116.5t-77.5 79t-113.5 28.5t-114 -28.5t-78 -79t-28 -116.5q0 -65 28 -115.5t78 -79t114 -28.5zM220 648q-13 0 -22.5 8.5
t-9.5 21.5q0 17 16 27l121 81q8 4 15 4q5 0 8.5 -1t6.5 -3l121 -81q16 -10 16 -27q0 -13 -8.5 -21.5t-22.5 -8.5q-6 0 -10 1.5t-9 4.5l-102 68l-102 -68q-9 -6 -18 -6z" />
    <glyph glyph-name="uni0123" unicode="&#x123;" 
d="M340 -6q-82 0 -145 36t-99 99t-36 144q0 82 37 145t100.5 99t142.5 36q82 0 144.5 -36t98.5 -99t36 -145l-35 -40q0 -70 -31 -124t-86 -84.5t-127 -30.5zM344 -209q-83 0 -141.5 31t-96.5 79q-8 10 -8 21t10 19q10 7 23.5 5t20.5 -13q31 -37 79 -61.5t113 -24.5
q62 0 110.5 30t76.5 82.5t28 117.5v159l27 37h33v-196q0 -81 -36 -146t-98 -102.5t-141 -37.5zM340 50q64 0 113.5 28.5t77.5 79t28 115.5q0 66 -28 116.5t-77.5 79t-113.5 28.5t-114 -28.5t-78 -79t-28 -116.5q0 -65 28 -115.5t78 -79t114 -28.5zM365 905q9 0 14 -4.5
t5 -12.5q0 -11 -8 -21.5t-16 -22.5t-8 -30q0 -19 6.5 -31.5t15.5 -22.5t15.5 -21t6.5 -27q0 -24 -15.5 -36.5t-35.5 -12.5q-25 0 -43.5 21.5t-18.5 61.5q0 27 6.5 54.5t17.5 51.5t26 38.5t32 14.5z" />
    <glyph glyph-name="gdotaccent" unicode="&#x121;" 
d="M340 -6q-82 0 -145 36t-99 99t-36 144q0 82 37 145t100.5 99t142.5 36q82 0 144.5 -36t98.5 -99t36 -145l-35 -40q0 -70 -31 -124t-86 -84.5t-127 -30.5zM344 -209q-83 0 -141.5 31t-96.5 79q-8 10 -8 21t10 19q10 7 23.5 5t20.5 -13q31 -37 79 -61.5t113 -24.5
q62 0 110.5 30t76.5 82.5t28 117.5v159l27 37h33v-196q0 -81 -36 -146t-98 -102.5t-141 -37.5zM340 50q64 0 113.5 28.5t77.5 79t28 115.5q0 66 -28 116.5t-77.5 79t-113.5 28.5t-114 -28.5t-78 -79t-28 -116.5q0 -65 28 -115.5t78 -79t114 -28.5zM339 662q-19 0 -32.5 13.5
t-13.5 33.5q0 23 14.5 34.5t32.5 11.5q17 0 31.5 -11.5t14.5 -34.5q0 -20 -13.5 -33.5t-33.5 -13.5z" />
    <glyph glyph-name="h" unicode="h" horiz-adv-x="673" 
d="M120 240q-13 0 -21.5 8.5t-8.5 21.5v481q0 14 8.5 22t21.5 8q14 0 22 -8t8 -22v-481q0 -13 -8 -21.5t-22 -8.5zM563 0q-13 0 -21.5 8.5t-8.5 21.5v269q0 66 -25.5 109t-69 64.5t-98.5 21.5q-54 0 -97 -20.5t-68 -56.5t-25 -81h-50q4 62 37 111.5t86 78t117 28.5
q72 0 129.5 -29.5t90.5 -86t33 -139.5v-269q0 -13 -8.5 -21.5t-21.5 -8.5zM120 0q-13 0 -21.5 8.5t-8.5 21.5v487q0 14 8.5 22t21.5 8q14 0 22 -8t8 -22v-487q0 -13 -8 -21.5t-22 -8.5z" />
    <glyph glyph-name="hbar" unicode="&#x127;" horiz-adv-x="673" 
d="M120 240q-13 0 -21.5 8.5t-8.5 21.5v481q0 14 8.5 22t21.5 8q14 0 22 -8t8 -22v-481q0 -13 -8 -21.5t-22 -8.5zM563 0q-13 0 -21.5 8.5t-8.5 21.5v269q0 66 -25.5 109t-69 64.5t-98.5 21.5q-54 0 -97 -20.5t-68 -56.5t-25 -81h-50q4 62 37 111.5t86 78t117 28.5
q72 0 129.5 -29.5t90.5 -86t33 -139.5v-269q0 -13 -8.5 -21.5t-21.5 -8.5zM120 0q-13 0 -21.5 8.5t-8.5 21.5v487q0 14 8.5 22t21.5 8q14 0 22 -8t8 -22v-487q0 -13 -8 -21.5t-22 -8.5zM24 621q-12 0 -19.5 7.5t-7.5 19.5t7.5 19.5t19.5 7.5h318q12 0 19.5 -7.5t7.5 -19.5
t-7.5 -19.5t-19.5 -7.5h-318z" />
    <glyph glyph-name="hcircumflex" unicode="&#x125;" horiz-adv-x="673" 
d="M120 240q-13 0 -21.5 8.5t-8.5 21.5v481q0 14 8.5 22t21.5 8q14 0 22 -8t8 -22v-481q0 -13 -8 -21.5t-22 -8.5zM563 0q-13 0 -21.5 8.5t-8.5 21.5v269q0 66 -25.5 109t-69 64.5t-98.5 21.5q-54 0 -97 -20.5t-68 -56.5t-25 -81h-50q4 62 37 111.5t86 78t117 28.5
q72 0 129.5 -29.5t90.5 -86t33 -139.5v-269q0 -13 -8.5 -21.5t-21.5 -8.5zM120 0q-13 0 -21.5 8.5t-8.5 21.5v487q0 14 8.5 22t21.5 8q14 0 22 -8t8 -22v-487q0 -13 -8 -21.5t-22 -8.5zM0 882q-13 0 -22.5 8.5t-9.5 21.5q0 17 16 27l121 81q8 4 15 4q5 0 8.5 -1t6.5 -3
l121 -81q16 -10 16 -27q0 -13 -8.5 -21.5t-22.5 -8.5q-6 0 -10 1.5t-9 4.5l-102 68l-102 -68q-9 -6 -18 -6z" />
    <glyph glyph-name="i" unicode="i" horiz-adv-x="280" 
d="M140 0q-13 0 -21.5 8.5t-8.5 21.5v487q0 14 8.5 22t21.5 8q14 0 22 -8t8 -22v-487q0 -13 -8 -21.5t-22 -8.5zM139 662q-19 0 -32.5 13.5t-13.5 33.5q0 23 14.5 34.5t32.5 11.5q17 0 31.5 -11.5t14.5 -34.5q0 -20 -13.5 -33.5t-33.5 -13.5z" />
    <glyph glyph-name="dotlessi" unicode="&#x131;" horiz-adv-x="280" 
d="M140 0q-13 0 -21.5 8.5t-8.5 21.5v487q0 14 8.5 22t21.5 8q14 0 22 -8t8 -22v-487q0 -13 -8 -21.5t-22 -8.5z" />
    <glyph glyph-name="iacute" unicode="&#xed;" horiz-adv-x="280" 
d="M140 0q-13 0 -21.5 8.5t-8.5 21.5v487q0 14 8.5 22t21.5 8q14 0 22 -8t8 -22v-487q0 -13 -8 -21.5t-22 -8.5zM125 628q-13 0 -22 9t-9 22q0 11 7 20l123 123q9 9 22 9t22 -8.5t9 -22.5q0 -5 -2 -10.5t-7 -10.5l-123 -123q-8 -8 -20 -8z" />
    <glyph glyph-name="ibreve" unicode="&#x12d;" horiz-adv-x="280" 
d="M139 648q-38 0 -69 15t-49.5 40.5t-18.5 55.5q0 13 8 22t20 9q11 0 19 -9t8 -22q0 -22 21.5 -39.5t60.5 -17.5q38 0 60.5 17t22.5 40q0 13 7.5 22t19.5 9q11 0 19 -9t8 -21q-2 -34 -21.5 -59.5t-50 -39t-65.5 -13.5zM140 0q-13 0 -21.5 8.5t-8.5 21.5v487q0 14 8.5 22
t21.5 8q14 0 22 -8t8 -22v-487q0 -13 -8 -21.5t-22 -8.5z" />
    <glyph glyph-name="icircumflex" unicode="&#xee;" horiz-adv-x="280" 
d="M32 648q-12 0 -20.5 8.5t-8.5 21.5q0 17 14 27l109 81q7 4 14 4q4 0 7.5 -1t5.5 -3l109 -81q15 -10 15 -27q0 -13 -8 -21.5t-20 -8.5q-6 0 -9.5 1.5t-7.5 4.5l-92 68l-92 -68q-8 -6 -16 -6zM140 0q-13 0 -21.5 8.5t-8.5 21.5v487q0 14 8.5 22t21.5 8q14 0 22 -8t8 -22
v-487q0 -13 -8 -21.5t-22 -8.5z" />
    <glyph glyph-name="uni0209" unicode="&#x209;" horiz-adv-x="280" 
d="M140 0q-13 0 -21.5 8.5t-8.5 21.5v487q0 14 8.5 22t21.5 8q14 0 22 -8t8 -22v-487q0 -13 -8 -21.5t-22 -8.5zM253 629q-14 0 -21 14l-65 137q-2 6 -2 11q0 11 8.5 20.5t22.5 9.5q9 0 16.5 -5t11.5 -14l46 -144q1 -2 1 -9q0 -10 -5.5 -15t-12.5 -5zM95 629q-14 0 -20 14
l-65 137q-1 2 -1.5 5t-0.5 6q0 11 8.5 20.5t22.5 9.5q9 0 16.5 -5t10.5 -14l47 -144q1 -1 1 -3.5v-5.5q0 -10 -5.5 -15t-13.5 -5z" />
    <glyph glyph-name="idieresis" unicode="&#xef;" horiz-adv-x="280" 
d="M50 677q-22 0 -37 15t-15 37q0 21 15 36t37 15t36.5 -15t14.5 -36q0 -22 -14.5 -37t-36.5 -15zM230 677q-22 0 -37 15t-15 37q0 21 15 36t37 15t36.5 -15t14.5 -36q0 -22 -14.5 -37t-36.5 -15zM140 0q-13 0 -21.5 8.5t-8.5 21.5v487q0 14 8.5 22t21.5 8q14 0 22 -8t8 -22
v-487q0 -13 -8 -21.5t-22 -8.5z" />
    <glyph glyph-name="i.loclTRK" horiz-adv-x="280" 
d="M140 0q-13 0 -21.5 8.5t-8.5 21.5v487q0 14 8.5 22t21.5 8q14 0 22 -8t8 -22v-487q0 -13 -8 -21.5t-22 -8.5zM139 662q-19 0 -32.5 13.5t-13.5 33.5q0 23 14.5 34.5t32.5 11.5q17 0 31.5 -11.5t14.5 -34.5q0 -20 -13.5 -33.5t-33.5 -13.5z" />
    <glyph glyph-name="uni1ECB" unicode="&#x1ecb;" horiz-adv-x="280" 
d="M140 0q-13 0 -21.5 8.5t-8.5 21.5v487q0 14 8.5 22t21.5 8q14 0 22 -8t8 -22v-487q0 -13 -8 -21.5t-22 -8.5zM139 662q-19 0 -32.5 13.5t-13.5 33.5q0 23 14.5 34.5t32.5 11.5q17 0 31.5 -11.5t14.5 -34.5q0 -20 -13.5 -33.5t-33.5 -13.5zM139 -198q-19 0 -32.5 13.5
t-13.5 33.5q0 23 14.5 34.5t32.5 11.5q17 0 31.5 -11.5t14.5 -34.5q0 -20 -13.5 -33.5t-33.5 -13.5z" />
    <glyph glyph-name="igrave" unicode="&#xec;" horiz-adv-x="280" 
d="M140 0q-13 0 -21.5 8.5t-8.5 21.5v487q0 14 8.5 22t21.5 8q14 0 22 -8t8 -22v-487q0 -13 -8 -21.5t-22 -8.5zM141 639q-10 0 -21 8l-123 123q-8 8 -8 21q0 14 9 22.5t22 8.5q12 0 21 -9l123 -123q7 -7 7 -20t-8.5 -22t-21.5 -9z" />
    <glyph glyph-name="uni1EC9" unicode="&#x1ec9;" horiz-adv-x="280" 
d="M140 0q-13 0 -21.5 8.5t-8.5 21.5v487q0 14 8.5 22t21.5 8q14 0 22 -8t8 -22v-487q0 -13 -8 -21.5t-22 -8.5zM138 596q-12 0 -20.5 8.5t-8.5 20.5v33q0 26 26 32l24 5q24 5 33 16t9 30q0 24 -16 37.5t-39 13.5q-12 0 -22 -4t-20 -12q-4 -3 -9 -5t-10 -2q-12 0 -20.5 8.5
t-8.5 20.5q0 14 10 22q17 14 37.5 22t42.5 8q47 0 80 -27.5t33 -75.5q0 -44 -27.5 -68t-64.5 -30v-24q0 -12 -8.5 -20.5t-20.5 -8.5z" />
    <glyph glyph-name="uni020B" unicode="&#x20b;" horiz-adv-x="280" 
d="M30 648q-12 0 -20 9t-8 22q0 31 18.5 56t49.5 40t69 15q35 0 65.5 -13.5t50 -38.5t22.5 -60q-1 -12 -9 -21t-19 -9q-12 0 -19.5 9t-7.5 22q0 23 -22.5 40t-60.5 17q-39 0 -60.5 -17t-21.5 -40q0 -13 -8 -22t-19 -9zM140 0q-13 0 -21.5 8.5t-8.5 21.5v487q0 14 8.5 22
t21.5 8q14 0 22 -8t8 -22v-487q0 -13 -8 -21.5t-22 -8.5z" />
    <glyph glyph-name="ij" unicode="&#x133;" horiz-adv-x="564" 
d="M140 0q-13 0 -21.5 8.5t-8.5 21.5v487q0 14 8.5 22t21.5 8q14 0 22 -8t8 -22v-487q0 -13 -8 -21.5t-22 -8.5zM139 662q-19 0 -32.5 13.5t-13.5 33.5q0 23 14.5 34.5t32.5 11.5q17 0 31.5 -11.5t14.5 -34.5q0 -20 -13.5 -33.5t-33.5 -13.5zM221 -234q-13 0 -22 8.5
t-9 21.5q0 14 9 22.5t22 8.5q51 0 89.5 22t60.5 61t22 89v518q0 14 8.5 22t21.5 8q14 0 22.5 -8t8.5 -22v-518q0 -68 -30 -120.5t-82.5 -82.5t-120.5 -30zM422 662q-19 0 -32.5 13.5t-13.5 33.5q0 23 14.5 34.5t32.5 11.5q17 0 31.5 -11.5t14.5 -34.5q0 -20 -13.5 -33.5
t-33.5 -13.5z" />
    <glyph glyph-name="imacron" unicode="&#x12b;" horiz-adv-x="280" 
d="M34 661q-10 0 -17 8.5t-7 21.5t7 22t17 9h212q10 0 17 -9t7 -22t-7 -21.5t-17 -8.5h-212zM140 0q-13 0 -21.5 8.5t-8.5 21.5v487q0 14 8.5 22t21.5 8q14 0 22 -8t8 -22v-487q0 -13 -8 -21.5t-22 -8.5z" />
    <glyph glyph-name="iogonek" unicode="&#x12f;" horiz-adv-x="280" 
d="M140 0q-13 0 -21.5 8.5t-8.5 21.5v487q0 14 8.5 22t21.5 8q14 0 22 -8t8 -22v-487q0 -13 -8 -21.5t-22 -8.5zM139 662q-19 0 -32.5 13.5t-13.5 33.5q0 23 14.5 34.5t32.5 11.5q17 0 31.5 -11.5t14.5 -34.5q0 -20 -13.5 -33.5t-33.5 -13.5zM140 -251q-30 0 -55 15
t-40.5 40t-15.5 56q0 53 47 91q15 12 24.5 23t13.5 21q8 15 26 15q14 0 22.5 -8t8.5 -21q0 -19 -15.5 -38.5t-44.5 -41.5q-10 -8 -15.5 -19t-5.5 -22q0 -21 14.5 -35.5t35.5 -14.5q7 0 14 2t14 6l35 26q9 6 18 6q13 0 22 -9t9 -22q0 -15 -10 -23l-41 -28q-28 -19 -61 -19z
" />
    <glyph glyph-name="itilde" unicode="&#x129;" horiz-adv-x="280" 
d="M140 0q-13 0 -21.5 8.5t-8.5 21.5v487q0 14 8.5 22t21.5 8q14 0 22 -8t8 -22v-487q0 -13 -8 -21.5t-22 -8.5zM201 652q-24 0 -43 12t-30 22q-15 15 -25.5 22t-23.5 7t-22 -11.5t-20 -31.5q-6 -11 -16 -15.5t-20 -1.5q-11 4 -15 14.5t1 22.5q17 40 39 57t52 17
q26 0 41 -9.5t31 -23.5q20 -16 29.5 -22t17.5 -6q15 0 26 30q5 12 15.5 18t20.5 3q14 -4 19 -14t0 -23q-15 -37 -34 -52t-43 -15z" />
    <glyph glyph-name="j" unicode="j" horiz-adv-x="284" 
d="M-59 -234q-13 0 -22 8.5t-9 21.5q0 14 9 22.5t22 8.5q51 0 89.5 22t60.5 61t22 89v518q0 14 8.5 22t21.5 8q14 0 22.5 -8t8.5 -22v-518q0 -68 -30 -120.5t-82.5 -82.5t-120.5 -30zM142 662q-19 0 -32.5 13.5t-13.5 33.5q0 23 14.5 34.5t32.5 11.5q17 0 31.5 -11.5
t14.5 -34.5q0 -20 -13.5 -33.5t-33.5 -13.5z" />
    <glyph glyph-name="uni0237" unicode="&#x237;" horiz-adv-x="284" 
d="M-59 -234q-13 0 -22 8.5t-9 21.5q0 14 9 22.5t22 8.5q51 0 89.5 22t60.5 61t22 89v518q0 14 8.5 22t21.5 8q14 0 22.5 -8t8.5 -22v-518q0 -68 -30 -120.5t-82.5 -82.5t-120.5 -30z" />
    <glyph glyph-name="jcircumflex" unicode="&#x135;" horiz-adv-x="284" 
d="M35 648q-12 0 -20.5 8.5t-8.5 21.5q0 17 14 27l109 81q7 4 15 4q3 0 6.5 -1t5.5 -3l109 -81q15 -10 15 -27q0 -13 -8 -21.5t-20 -8.5q-6 0 -9.5 1.5t-7.5 4.5l-92 68l-92 -68q-8 -6 -16 -6zM-59 -234q-13 0 -22 8.5t-9 21.5q0 14 9 22.5t22 8.5q51 0 89.5 22t60.5 61
t22 89v518q0 14 8.5 22t21.5 8q14 0 22.5 -8t8.5 -22v-518q0 -68 -30 -120.5t-82.5 -82.5t-120.5 -30z" />
    <glyph glyph-name="k" unicode="k" horiz-adv-x="574" 
d="M130 171l-36 40l366 333q10 8 19.5 8t18.5 -10t9 -20t-10 -18zM120 0q-13 0 -21.5 8.5t-8.5 21.5v721q0 14 8.5 22t21.5 8q14 0 22 -8t8 -22v-721q0 -13 -8 -21.5t-22 -8.5zM499 5q-10 -9 -20.5 -7.5t-18.5 11.5l-237 290l43 35l237 -290q8 -10 7.5 -20t-11.5 -19z" />
    <glyph glyph-name="uni0137" unicode="&#x137;" horiz-adv-x="574" 
d="M130 171l-36 40l366 333q10 8 19.5 8t18.5 -10t9 -20t-10 -18zM120 0q-13 0 -21.5 8.5t-8.5 21.5v721q0 14 8.5 22t21.5 8q14 0 22 -8t8 -22v-721q0 -13 -8 -21.5t-22 -8.5zM499 5q-10 -9 -20.5 -7.5t-18.5 11.5l-237 290l43 35l237 -290q8 -10 7.5 -20t-11.5 -19z
M294 -232q-25 0 -52.5 9t-46.5 24t-19 33q0 11 6.5 17.5t18.5 6.5q14 0 23 -5.5t18 -12.5t21.5 -12.5t33.5 -5.5q29 0 45.5 13t16.5 35q0 18 -15.5 30t-49.5 12q-21 0 -32.5 5.5t-11.5 18.5q0 25 40 25q53 0 87 -26.5t34 -67.5q0 -44 -34.5 -71.5t-82.5 -27.5z" />
    <glyph glyph-name="kgreenlandic" unicode="&#x138;" horiz-adv-x="574" 
d="M130 171l-36 40l366 333q10 8 19.5 8t18.5 -10t9 -20t-10 -18zM120 0q-13 0 -21.5 8.5t-8.5 21.5v487q0 14 8.5 22t21.5 8q14 0 22 -8t8 -22v-487q0 -13 -8 -21.5t-22 -8.5zM499 5q-10 -9 -20.5 -7.5t-18.5 11.5l-237 290l43 35l237 -290q8 -10 7.5 -20t-11.5 -19z" />
    <glyph glyph-name="l" unicode="l" horiz-adv-x="270" 
d="M200 0q-38 0 -67.5 21t-46 58t-16.5 86v586q0 14 8.5 22t21.5 8q14 0 22 -8t8 -22v-586q0 -46 19.5 -75.5t50.5 -29.5h25q11 0 18 -8t7 -22q0 -13 -8 -21.5t-22 -8.5h-20z" />
    <glyph glyph-name="lacute" unicode="&#x13a;" horiz-adv-x="270" 
d="M200 0q-38 0 -67.5 21t-46 58t-16.5 86v486q0 14 8.5 22t21.5 8q14 0 22 -8t8 -22v-486q0 -46 19.5 -75.5t50.5 -29.5h25q11 0 18 -8t7 -22q0 -13 -8 -21.5t-22 -8.5h-20zM85 762q-13 0 -22 9t-9 22q0 11 7 20l123 123q9 9 22 9t22 -8.5t9 -22.5q0 -12 -9 -21l-123 -123
q-8 -8 -20 -8z" />
    <glyph glyph-name="lcaron" unicode="&#x13e;" horiz-adv-x="331" 
d="M200 0q-38 0 -67.5 21t-46 58t-16.5 86v586q0 14 8.5 22t21.5 8q14 0 22 -8t8 -22v-586q0 -46 19.5 -75.5t50.5 -29.5h25q11 0 18 -8t7 -22q0 -13 -8 -21.5t-22 -8.5h-20zM235 539q-8 2 -12.5 8.5t-3.5 14.5q2 9 9.5 21.5t16 32t10.5 48.5q2 18 -2.5 28.5t-9.5 22
t-5 29.5q0 23 13.5 30t29.5 7q29 0 40 -30t3 -71q-4 -22 -15 -47t-24.5 -47t-26.5 -35.5t-23 -11.5z" />
    <glyph glyph-name="uni013C" unicode="&#x13c;" horiz-adv-x="270" 
d="M200 0q-38 0 -67.5 21t-46 58t-16.5 86v586q0 14 8.5 22t21.5 8q14 0 22 -8t8 -22v-586q0 -46 19.5 -75.5t50.5 -29.5h25q11 0 18 -8t7 -22q0 -13 -8 -21.5t-22 -8.5h-20zM207 -232q-25 0 -52.5 9t-46.5 24t-19 33q0 11 6.5 17.5t18.5 6.5q14 0 23 -5.5t18 -12.5
t21.5 -12.5t33.5 -5.5q29 0 45.5 13t16.5 35q0 18 -15.5 30t-49.5 12q-21 0 -32.5 5.5t-11.5 18.5q0 25 40 25q53 0 87 -26.5t34 -67.5q0 -44 -34.5 -71.5t-82.5 -27.5z" />
    <glyph glyph-name="ldot" unicode="&#x140;" horiz-adv-x="334" 
d="M200 0q-38 0 -67.5 21t-46 58t-16.5 86v586q0 14 8.5 22t21.5 8q14 0 22 -8t8 -22v-586q0 -46 19.5 -75.5t50.5 -29.5h25q11 0 18 -8t7 -22q0 -13 -8 -21.5t-22 -8.5h-20zM274 324q-21 0 -36 14.5t-15 36.5q0 21 14.5 35.5t36.5 14.5t36 -15t14 -35q0 -22 -14.5 -36.5
t-35.5 -14.5z" />
    <glyph glyph-name="lslash" unicode="&#x142;" horiz-adv-x="352" 
d="M153 0q-13 0 -21.5 8.5t-8.5 21.5v294l-58 -57q-9 -9 -19 -9q-12 0 -22 8t-10 23q0 13 8 21l101 99v351q0 13 8.5 21.5t21.5 8.5t22 -8.5t9 -21.5v-291l69 69q9 9 22 9q12 0 21 -9t9 -21q0 -13 -9 -22l-112 -112v-322h50q13 0 22 -9t9 -22t-9 -21.5t-22 -8.5h-81z" />
    <glyph glyph-name="m" unicode="m" horiz-adv-x="953" 
d="M843 0q-13 0 -21.5 8.5t-8.5 21.5v289q0 77 -40.5 126t-105.5 49q-69 0 -112.5 -45.5t-41.5 -122.5h-60q2 69 30 120t76 79.5t108 28.5q61 0 107 -30t72.5 -83t26.5 -122v-289q0 -13 -8 -21.5t-22 -8.5zM120 0q-13 0 -21.5 8.5t-8.5 21.5v487q0 14 8.5 22t21.5 8
q14 0 22 -8t8 -22v-487q0 -13 -8 -21.5t-22 -8.5zM483 0q-13 0 -21.5 8.5t-8.5 21.5v289q0 77 -40.5 126t-105.5 49q-69 0 -113 -44t-44 -114h-50q3 64 30.5 113t73.5 77t103 28q61 0 107 -30t72.5 -83t26.5 -122v-289q0 -13 -8 -21.5t-22 -8.5z" />
    <glyph glyph-name="n" unicode="n" horiz-adv-x="673" 
d="M563 0q-13 0 -21.5 8.5t-8.5 21.5v269q0 66 -25.5 109t-69 64.5t-98.5 21.5q-54 0 -97 -20.5t-68 -56.5t-25 -81h-50q4 62 37 111.5t86 78t117 28.5q72 0 129.5 -29.5t90.5 -86t33 -139.5v-269q0 -13 -8.5 -21.5t-21.5 -8.5zM120 0q-13 0 -21.5 8.5t-8.5 21.5v487
q0 14 8.5 22t21.5 8q14 0 22 -8t8 -22v-487q0 -13 -8 -21.5t-22 -8.5z" />
    <glyph glyph-name="nacute" unicode="&#x144;" horiz-adv-x="673" 
d="M563 0q-13 0 -21.5 8.5t-8.5 21.5v269q0 66 -25.5 109t-69 64.5t-98.5 21.5q-54 0 -97 -20.5t-68 -56.5t-25 -81h-50q4 62 37 111.5t86 78t117 28.5q72 0 129.5 -29.5t90.5 -86t33 -139.5v-269q0 -13 -8.5 -21.5t-21.5 -8.5zM120 0q-13 0 -21.5 8.5t-8.5 21.5v487
q0 14 8.5 22t21.5 8q14 0 22 -8t8 -22v-487q0 -13 -8 -21.5t-22 -8.5zM322 628q-13 0 -22 9t-9 22q0 11 7 20l123 123q9 9 22 9t22 -8.5t9 -22.5q0 -5 -2 -10.5t-7 -10.5l-123 -123q-8 -8 -20 -8z" />
    <glyph glyph-name="ncaron" unicode="&#x148;" horiz-adv-x="673" 
d="M563 0q-13 0 -21.5 8.5t-8.5 21.5v269q0 66 -25.5 109t-69 64.5t-98.5 21.5q-54 0 -97 -20.5t-68 -56.5t-25 -81h-50q4 62 37 111.5t86 78t117 28.5q72 0 129.5 -29.5t90.5 -86t33 -139.5v-269q0 -13 -8.5 -21.5t-21.5 -8.5zM120 0q-13 0 -21.5 8.5t-8.5 21.5v487
q0 14 8.5 22t21.5 8q14 0 22 -8t8 -22v-487q0 -13 -8 -21.5t-22 -8.5zM337 648q-10 0 -15 4l-121 80q-16 10 -16 27t15 25t35 -6l102 -70l102 68q21 14 35.5 7t14.5 -24q0 -15 -16 -27l-121 -80q-5 -4 -15 -4z" />
    <glyph glyph-name="uni0146" unicode="&#x146;" horiz-adv-x="673" 
d="M563 0q-13 0 -21.5 8.5t-8.5 21.5v269q0 66 -25.5 109t-69 64.5t-98.5 21.5q-54 0 -97 -20.5t-68 -56.5t-25 -81h-50q4 62 37 111.5t86 78t117 28.5q72 0 129.5 -29.5t90.5 -86t33 -139.5v-269q0 -13 -8.5 -21.5t-21.5 -8.5zM120 0q-13 0 -21.5 8.5t-8.5 21.5v487
q0 14 8.5 22t21.5 8q14 0 22 -8t8 -22v-487q0 -13 -8 -21.5t-22 -8.5zM344 -232q-25 0 -52.5 9t-46.5 24t-19 33q0 11 6.5 17.5t18.5 6.5q14 0 23 -5.5t18 -12.5t21.5 -12.5t33.5 -5.5q29 0 45.5 13t16.5 35q0 18 -15.5 30t-49.5 12q-21 0 -32.5 5.5t-11.5 18.5q0 25 40 25
q53 0 87 -26.5t34 -67.5q0 -44 -34.5 -71.5t-82.5 -27.5z" />
    <glyph glyph-name="eng" unicode="&#x14b;" horiz-adv-x="673" 
d="M382 -190q-70 0 -117.5 30.5t-59.5 76.5q-3 13 4 21t20 8q9 0 18 -6.5t13 -17.5q13 -25 45 -40.5t77 -15.5q67 0 109 64.5t42 196.5v172q0 57 -24.5 101t-68 69t-100.5 25q-55 0 -98 -20t-67.5 -55.5t-24.5 -82.5v-306q0 -13 -8 -21.5t-22 -8.5q-13 0 -21.5 8.5
t-8.5 21.5v487q0 14 8.5 22t21.5 8q14 0 22 -8t8 -22v-58q31 44 80 69.5t110 25.5q74 0 131 -32.5t89.5 -90t32.5 -132.5v-172q0 -104 -27 -174.5t-74.5 -106.5t-109.5 -36z" />
    <glyph glyph-name="ntilde" unicode="&#xf1;" horiz-adv-x="673" 
d="M563 0q-13 0 -21.5 8.5t-8.5 21.5v269q0 66 -25.5 109t-69 64.5t-98.5 21.5q-54 0 -97 -20.5t-68 -56.5t-25 -81h-50q4 62 37 111.5t86 78t117 28.5q72 0 129.5 -29.5t90.5 -86t33 -139.5v-269q0 -13 -8.5 -21.5t-21.5 -8.5zM120 0q-13 0 -21.5 8.5t-8.5 21.5v487
q0 14 8.5 22t21.5 8q14 0 22 -8t8 -22v-487q0 -13 -8 -21.5t-22 -8.5zM442 630q-31 0 -54 12t-40 23q-20 14 -31.5 18.5t-25.5 4.5q-20 0 -40 -10.5t-37 -30.5q-7 -10 -19 -12t-21 4q-12 7 -14 18.5t5 21.5q26 32 59 49.5t67 17.5q30 0 52 -11t38 -22q17 -11 29.5 -18
t31.5 -7q18 0 31.5 5.5t23.5 16.5q8 9 19 12.5t20 -1.5q14 -7 17 -18t-5 -22q-39 -51 -106 -51z" />
    <glyph glyph-name="o" unicode="o" 
d="M340 -6q-80 0 -143.5 36.5t-100 100t-36.5 142.5q0 80 36.5 143.5t100 100t143.5 36.5t143 -36.5t99.5 -100t36.5 -143.5q0 -79 -36.5 -142.5t-99.5 -100t-143 -36.5zM340 50q63 0 112.5 29.5t78 80t28.5 114.5q0 63 -28.5 113.5t-78 80t-112.5 29.5q-62 0 -112 -29.5
t-79 -80t-29 -114.5q0 -63 29 -113.5t79 -80t112 -29.5z" />
    <glyph glyph-name="oacute" unicode="&#xf3;" 
d="M340 -6q-80 0 -143.5 36.5t-100 100t-36.5 142.5q0 80 36.5 143.5t100 100t143.5 36.5t143 -36.5t99.5 -100t36.5 -143.5q0 -79 -36.5 -142.5t-99.5 -100t-143 -36.5zM340 50q63 0 112.5 29.5t78 80t28.5 114.5q0 63 -28.5 113.5t-78 80t-112.5 29.5q-62 0 -112 -29.5
t-79 -80t-29 -114.5q0 -63 29 -113.5t79 -80t112 -29.5zM325 628q-13 0 -22 9t-9 22q0 11 7 20l123 123q9 9 22 9t22 -8.5t9 -22.5q0 -5 -2 -10.5t-7 -10.5l-123 -123q-8 -8 -20 -8z" />
    <glyph glyph-name="obreve" unicode="&#x14f;" 
d="M340 -6q-80 0 -143.5 36.5t-100 100t-36.5 142.5q0 80 36.5 143.5t100 100t143.5 36.5t143 -36.5t99.5 -100t36.5 -143.5q0 -79 -36.5 -142.5t-99.5 -100t-143 -36.5zM340 50q63 0 112.5 29.5t78 80t28.5 114.5q0 63 -28.5 113.5t-78 80t-112.5 29.5q-62 0 -112 -29.5
t-79 -80t-29 -114.5q0 -63 29 -113.5t79 -80t112 -29.5zM339 648q-41 0 -76 15t-55.5 40.5t-20.5 55.5q0 13 9 22t22 9t21.5 -9t8.5 -22q0 -22 24 -39.5t67 -17.5t67.5 17t24.5 40q0 13 8.5 22t21.5 9t21.5 -9t9.5 -21q-2 -34 -24 -59.5t-56 -39t-73 -13.5z" />
    <glyph glyph-name="ocircumflex" unicode="&#xf4;" 
d="M340 -6q-80 0 -143.5 36.5t-100 100t-36.5 142.5q0 80 36.5 143.5t100 100t143.5 36.5t143 -36.5t99.5 -100t36.5 -143.5q0 -79 -36.5 -142.5t-99.5 -100t-143 -36.5zM340 50q63 0 112.5 29.5t78 80t28.5 114.5q0 63 -28.5 113.5t-78 80t-112.5 29.5q-62 0 -112 -29.5
t-79 -80t-29 -114.5q0 -63 29 -113.5t79 -80t112 -29.5zM220 648q-13 0 -22.5 8.5t-9.5 21.5q0 17 16 27l121 81q8 4 15 4q5 0 8.5 -1t6.5 -3l121 -81q16 -10 16 -27q0 -13 -8.5 -21.5t-22.5 -8.5q-6 0 -10 1.5t-9 4.5l-102 68l-102 -68q-9 -6 -18 -6z" />
    <glyph glyph-name="uni1ED1" unicode="&#x1ed1;" 
d="M340 -6q-80 0 -143.5 36.5t-100 100t-36.5 142.5q0 80 36.5 143.5t100 100t143.5 36.5t143 -36.5t99.5 -100t36.5 -143.5q0 -79 -36.5 -142.5t-99.5 -100t-143 -36.5zM340 50q63 0 112.5 29.5t78 80t28.5 114.5q0 63 -28.5 113.5t-78 80t-112.5 29.5q-62 0 -112 -29.5
t-79 -80t-29 -114.5q0 -63 29 -113.5t79 -80t112 -29.5zM220 648q-13 0 -22.5 8.5t-9.5 21.5q0 17 16 27l121 81q8 4 15 4q5 0 8.5 -1t6.5 -3l121 -81q16 -10 16 -27q0 -13 -8.5 -21.5t-22.5 -8.5q-6 0 -10 1.5t-9 4.5l-102 68l-102 -68q-9 -6 -18 -6zM416 814q-13 0 -22 9
t-9 22q0 11 7 20l123 123q9 9 22 9t22 -8.5t9 -22.5q0 -5 -2 -10.5t-7 -10.5l-123 -123q-8 -8 -20 -8z" />
    <glyph glyph-name="uni1ED9" unicode="&#x1ed9;" 
d="M340 -6q-80 0 -143.5 36.5t-100 100t-36.5 142.5q0 80 36.5 143.5t100 100t143.5 36.5t143 -36.5t99.5 -100t36.5 -143.5q0 -79 -36.5 -142.5t-99.5 -100t-143 -36.5zM340 50q63 0 112.5 29.5t78 80t28.5 114.5q0 63 -28.5 113.5t-78 80t-112.5 29.5q-62 0 -112 -29.5
t-79 -80t-29 -114.5q0 -63 29 -113.5t79 -80t112 -29.5zM220 648q-13 0 -22.5 8.5t-9.5 21.5q0 17 16 27l121 81q8 4 15 4q5 0 8.5 -1t6.5 -3l121 -81q16 -10 16 -27q0 -13 -8.5 -21.5t-22.5 -8.5q-6 0 -10 1.5t-9 4.5l-102 68l-102 -68q-9 -6 -18 -6zM339 -198
q-19 0 -32.5 13.5t-13.5 33.5q0 23 14.5 34.5t32.5 11.5q17 0 31.5 -11.5t14.5 -34.5q0 -20 -13.5 -33.5t-33.5 -13.5z" />
    <glyph glyph-name="uni1ED3" unicode="&#x1ed3;" 
d="M340 -6q-80 0 -143.5 36.5t-100 100t-36.5 142.5q0 80 36.5 143.5t100 100t143.5 36.5t143 -36.5t99.5 -100t36.5 -143.5q0 -79 -36.5 -142.5t-99.5 -100t-143 -36.5zM340 50q63 0 112.5 29.5t78 80t28.5 114.5q0 63 -28.5 113.5t-78 80t-112.5 29.5q-62 0 -112 -29.5
t-79 -80t-29 -114.5q0 -63 29 -113.5t79 -80t112 -29.5zM220 648q-13 0 -22.5 8.5t-9.5 21.5q0 17 16 27l121 81q8 4 15 4q5 0 8.5 -1t6.5 -3l121 -81q16 -10 16 -27q0 -13 -8.5 -21.5t-22.5 -8.5q-6 0 -10 1.5t-9 4.5l-102 68l-102 -68q-9 -6 -18 -6zM432 825q-10 0 -21 8
l-123 123q-8 8 -8 21q0 14 9 22.5t22 8.5q12 0 21 -9l123 -123q7 -7 7 -20t-8.5 -22t-21.5 -9z" />
    <glyph glyph-name="uni1ED5" unicode="&#x1ed5;" 
d="M340 -6q-80 0 -143.5 36.5t-100 100t-36.5 142.5q0 80 36.5 143.5t100 100t143.5 36.5t143 -36.5t99.5 -100t36.5 -143.5q0 -79 -36.5 -142.5t-99.5 -100t-143 -36.5zM340 50q63 0 112.5 29.5t78 80t28.5 114.5q0 63 -28.5 113.5t-78 80t-112.5 29.5q-62 0 -112 -29.5
t-79 -80t-29 -114.5q0 -63 29 -113.5t79 -80t112 -29.5zM221 648q-13 0 -22.5 8.5t-9.5 21.5q0 17 16 27l121 81q8 4 15 4q5 0 8.5 -1t6.5 -3l121 -81q16 -10 16 -27q0 -13 -8.5 -21.5t-22.5 -8.5q-6 0 -10 1.5t-9 4.5l-102 68l-102 -68q-9 -6 -18 -6zM430 782
q-12 0 -20.5 8.5t-8.5 20.5v33q0 26 26 32l24 5q24 5 33 16t9 30q0 24 -16 37.5t-39 13.5q-12 0 -22 -4t-20 -12q-4 -3 -9 -5t-10 -2q-12 0 -20.5 8.5t-8.5 20.5q0 14 10 22q17 14 37.5 22t42.5 8q47 0 80 -27.5t33 -75.5q0 -44 -27.5 -68t-64.5 -30v-24q0 -12 -8.5 -20.5
t-20.5 -8.5z" />
    <glyph glyph-name="uni1ED7" unicode="&#x1ed7;" 
d="M340 -6q-80 0 -143.5 36.5t-100 100t-36.5 142.5q0 80 36.5 143.5t100 100t143.5 36.5t143 -36.5t99.5 -100t36.5 -143.5q0 -79 -36.5 -142.5t-99.5 -100t-143 -36.5zM340 50q63 0 112.5 29.5t78 80t28.5 114.5q0 63 -28.5 113.5t-78 80t-112.5 29.5q-62 0 -112 -29.5
t-79 -80t-29 -114.5q0 -63 29 -113.5t79 -80t112 -29.5zM220 648q-13 0 -22.5 8.5t-9.5 21.5q0 17 16 27l121 81q8 4 15 4q5 0 8.5 -1t6.5 -3l121 -81q16 -10 16 -27q0 -13 -8.5 -21.5t-22.5 -8.5q-6 0 -10 1.5t-9 4.5l-102 68l-102 -68q-9 -6 -18 -6zM400 818q-24 0 -43 12
t-30 22q-15 15 -25.5 22t-23.5 7t-22 -11.5t-20 -31.5q-6 -11 -16 -15.5t-20 -1.5q-11 4 -15 14.5t1 22.5q17 40 39 57t52 17q26 0 41 -9.5t31 -23.5q20 -16 29.5 -22t17.5 -6q15 0 26 30q5 12 15.5 18t20.5 3q14 -4 19 -14t0 -23q-15 -37 -34 -52t-43 -15z" />
    <glyph glyph-name="uni020D" unicode="&#x20d;" 
d="M340 -6q-80 0 -143.5 36.5t-100 100t-36.5 142.5q0 80 36.5 143.5t100 100t143.5 36.5t143 -36.5t99.5 -100t36.5 -143.5q0 -79 -36.5 -142.5t-99.5 -100t-143 -36.5zM340 50q63 0 112.5 29.5t78 80t28.5 114.5q0 63 -28.5 113.5t-78 80t-112.5 29.5q-62 0 -112 -29.5
t-79 -80t-29 -114.5q0 -63 29 -113.5t79 -80t112 -29.5zM453 629q-14 0 -21 14l-65 137q-2 6 -2 11q0 11 8.5 20.5t22.5 9.5q9 0 16.5 -5t11.5 -14l46 -144q1 -2 1 -9q0 -10 -5.5 -15t-12.5 -5zM295 629q-14 0 -20 14l-65 137q-1 2 -1.5 5t-0.5 6q0 11 8.5 20.5t22.5 9.5
q9 0 16.5 -5t10.5 -14l47 -144q1 -1 1 -3.5v-5.5q0 -10 -5.5 -15t-13.5 -5z" />
    <glyph glyph-name="odieresis" unicode="&#xf6;" 
d="M340 -6q-80 0 -143.5 36.5t-100 100t-36.5 142.5q0 80 36.5 143.5t100 100t143.5 36.5t143 -36.5t99.5 -100t36.5 -143.5q0 -79 -36.5 -142.5t-99.5 -100t-143 -36.5zM340 50q63 0 112.5 29.5t78 80t28.5 114.5q0 63 -28.5 113.5t-78 80t-112.5 29.5q-62 0 -112 -29.5
t-79 -80t-29 -114.5q0 -63 29 -113.5t79 -80t112 -29.5zM240 657q-22 0 -37 15t-15 37q0 21 15 36t37 15t36.5 -15t14.5 -36q0 -22 -14.5 -37t-36.5 -15zM440 657q-22 0 -37 15t-15 37q0 21 15 36t37 15t36.5 -15t14.5 -36q0 -22 -14.5 -37t-36.5 -15z" />
    <glyph glyph-name="uni022B" unicode="&#x22b;" 
d="M340 -6q-80 0 -143.5 36.5t-100 100t-36.5 142.5q0 80 36.5 143.5t100 100t143.5 36.5t143 -36.5t99.5 -100t36.5 -143.5q0 -79 -36.5 -142.5t-99.5 -100t-143 -36.5zM340 50q63 0 112.5 29.5t78 80t28.5 114.5q0 63 -28.5 113.5t-78 80t-112.5 29.5q-62 0 -112 -29.5
t-79 -80t-29 -114.5q0 -63 29 -113.5t79 -80t112 -29.5zM240 657q-22 0 -37 15t-15 37q0 21 15 36t37 15t36.5 -15t14.5 -36q0 -22 -14.5 -37t-36.5 -15zM440 657q-22 0 -37 15t-15 37q0 21 15 36t37 15t36.5 -15t14.5 -36q0 -22 -14.5 -37t-36.5 -15zM207 844
q-13 0 -21.5 8.5t-8.5 21.5t8.5 22t21.5 9h265q13 0 21.5 -9t8.5 -22t-8.5 -21.5t-21.5 -8.5h-265z" />
    <glyph glyph-name="uni0231" unicode="&#x231;" 
d="M340 -6q-80 0 -143.5 36.5t-100 100t-36.5 142.5q0 80 36.5 143.5t100 100t143.5 36.5t143 -36.5t99.5 -100t36.5 -143.5q0 -79 -36.5 -142.5t-99.5 -100t-143 -36.5zM340 50q63 0 112.5 29.5t78 80t28.5 114.5q0 63 -28.5 113.5t-78 80t-112.5 29.5q-62 0 -112 -29.5
t-79 -80t-29 -114.5q0 -63 29 -113.5t79 -80t112 -29.5zM339 662q-19 0 -32.5 13.5t-13.5 33.5q0 23 14.5 34.5t32.5 11.5q17 0 31.5 -11.5t14.5 -34.5q0 -20 -13.5 -33.5t-33.5 -13.5zM207 819q-13 0 -21.5 8.5t-8.5 21.5t8.5 22t21.5 9h265q13 0 21.5 -9t8.5 -22
t-8.5 -21.5t-21.5 -8.5h-265z" />
    <glyph glyph-name="uni1ECD" unicode="&#x1ecd;" 
d="M340 -6q-80 0 -143.5 36.5t-100 100t-36.5 142.5q0 80 36.5 143.5t100 100t143.5 36.5t143 -36.5t99.5 -100t36.5 -143.5q0 -79 -36.5 -142.5t-99.5 -100t-143 -36.5zM340 50q63 0 112.5 29.5t78 80t28.5 114.5q0 63 -28.5 113.5t-78 80t-112.5 29.5q-62 0 -112 -29.5
t-79 -80t-29 -114.5q0 -63 29 -113.5t79 -80t112 -29.5zM339 -198q-19 0 -32.5 13.5t-13.5 33.5q0 23 14.5 34.5t32.5 11.5q17 0 31.5 -11.5t14.5 -34.5q0 -20 -13.5 -33.5t-33.5 -13.5z" />
    <glyph glyph-name="ograve" unicode="&#xf2;" 
d="M340 -6q-80 0 -143.5 36.5t-100 100t-36.5 142.5q0 80 36.5 143.5t100 100t143.5 36.5t143 -36.5t99.5 -100t36.5 -143.5q0 -79 -36.5 -142.5t-99.5 -100t-143 -36.5zM340 50q63 0 112.5 29.5t78 80t28.5 114.5q0 63 -28.5 113.5t-78 80t-112.5 29.5q-62 0 -112 -29.5
t-79 -80t-29 -114.5q0 -63 29 -113.5t79 -80t112 -29.5zM341 639q-10 0 -21 8l-123 123q-8 8 -8 21q0 14 9 22.5t22 8.5q12 0 21 -9l123 -123q7 -7 7 -20t-8.5 -22t-21.5 -9z" />
    <glyph glyph-name="uni1ECF" unicode="&#x1ecf;" 
d="M340 -6q-80 0 -143.5 36.5t-100 100t-36.5 142.5q0 80 36.5 143.5t100 100t143.5 36.5t143 -36.5t99.5 -100t36.5 -143.5q0 -79 -36.5 -142.5t-99.5 -100t-143 -36.5zM340 50q63 0 112.5 29.5t78 80t28.5 114.5q0 63 -28.5 113.5t-78 80t-112.5 29.5q-62 0 -112 -29.5
t-79 -80t-29 -114.5q0 -63 29 -113.5t79 -80t112 -29.5zM338 596q-12 0 -20.5 8.5t-8.5 20.5v33q0 26 26 32l24 5q24 5 33 16t9 30q0 24 -16 37.5t-39 13.5q-12 0 -22 -4t-20 -12q-4 -3 -9 -5t-10 -2q-12 0 -20.5 8.5t-8.5 20.5q0 14 10 22q17 14 37.5 22t42.5 8
q47 0 80 -27.5t33 -75.5q0 -44 -27.5 -68t-64.5 -30v-24q0 -12 -8.5 -20.5t-20.5 -8.5z" />
    <glyph glyph-name="ohorn" unicode="&#x1a1;" 
d="M340 -6q-80 0 -143.5 36.5t-100 100t-36.5 142.5q0 80 36.5 143.5t100 100t143.5 36.5t143 -36.5t99.5 -100t36.5 -143.5q0 -79 -36.5 -142.5t-99.5 -100t-143 -36.5zM340 50q63 0 112.5 29.5t78 80t28.5 114.5q0 63 -28.5 113.5t-78 80t-112.5 29.5q-62 0 -112 -29.5
t-79 -80t-29 -114.5q0 -63 29 -113.5t79 -80t112 -29.5zM469 463v58h42q18 0 29.5 13t11.5 33v23q0 12 7.5 20.5t21.5 8.5t21.5 -10t7.5 -24v-18q0 -29 -13 -53t-35.5 -37.5t-50.5 -13.5h-42z" />
    <glyph glyph-name="uni1EDB" unicode="&#x1edb;" 
d="M340 -6q-80 0 -143.5 36.5t-100 100t-36.5 142.5q0 80 36.5 143.5t100 100t143.5 36.5t143 -36.5t99.5 -100t36.5 -143.5q0 -79 -36.5 -142.5t-99.5 -100t-143 -36.5zM340 50q63 0 112.5 29.5t78 80t28.5 114.5q0 63 -28.5 113.5t-78 80t-112.5 29.5q-62 0 -112 -29.5
t-79 -80t-29 -114.5q0 -63 29 -113.5t79 -80t112 -29.5zM469 463v58h42q18 0 29.5 13t11.5 33v23q0 12 7.5 20.5t21.5 8.5t21.5 -10t7.5 -24v-18q0 -29 -13 -53t-35.5 -37.5t-50.5 -13.5h-42zM325 628q-13 0 -22 9t-9 22q0 11 7 20l123 123q9 9 22 9t22 -8.5t9 -22.5
q0 -5 -2 -10.5t-7 -10.5l-123 -123q-8 -8 -20 -8z" />
    <glyph glyph-name="uni1EE3" unicode="&#x1ee3;" 
d="M340 -6q-80 0 -143.5 36.5t-100 100t-36.5 142.5q0 80 36.5 143.5t100 100t143.5 36.5t143 -36.5t99.5 -100t36.5 -143.5q0 -79 -36.5 -142.5t-99.5 -100t-143 -36.5zM340 50q63 0 112.5 29.5t78 80t28.5 114.5q0 63 -28.5 113.5t-78 80t-112.5 29.5q-62 0 -112 -29.5
t-79 -80t-29 -114.5q0 -63 29 -113.5t79 -80t112 -29.5zM469 463v58h42q18 0 29.5 13t11.5 33v23q0 12 7.5 20.5t21.5 8.5t21.5 -10t7.5 -24v-18q0 -29 -13 -53t-35.5 -37.5t-50.5 -13.5h-42zM339 -198q-19 0 -32.5 13.5t-13.5 33.5q0 23 14.5 34.5t32.5 11.5
q17 0 31.5 -11.5t14.5 -34.5q0 -20 -13.5 -33.5t-33.5 -13.5z" />
    <glyph glyph-name="uni1EDD" unicode="&#x1edd;" 
d="M340 -6q-80 0 -143.5 36.5t-100 100t-36.5 142.5q0 80 36.5 143.5t100 100t143.5 36.5t143 -36.5t99.5 -100t36.5 -143.5q0 -79 -36.5 -142.5t-99.5 -100t-143 -36.5zM340 50q63 0 112.5 29.5t78 80t28.5 114.5q0 63 -28.5 113.5t-78 80t-112.5 29.5q-62 0 -112 -29.5
t-79 -80t-29 -114.5q0 -63 29 -113.5t79 -80t112 -29.5zM469 463v58h42q18 0 29.5 13t11.5 33v23q0 12 7.5 20.5t21.5 8.5t21.5 -10t7.5 -24v-18q0 -29 -13 -53t-35.5 -37.5t-50.5 -13.5h-42zM341 639q-10 0 -21 8l-123 123q-8 8 -8 21q0 14 9 22.5t22 8.5q12 0 21 -9
l123 -123q7 -7 7 -20t-8.5 -22t-21.5 -9z" />
    <glyph glyph-name="uni1EDF" unicode="&#x1edf;" 
d="M340 -6q-80 0 -143.5 36.5t-100 100t-36.5 142.5q0 80 36.5 143.5t100 100t143.5 36.5t143 -36.5t99.5 -100t36.5 -143.5q0 -79 -36.5 -142.5t-99.5 -100t-143 -36.5zM340 50q63 0 112.5 29.5t78 80t28.5 114.5q0 63 -28.5 113.5t-78 80t-112.5 29.5q-62 0 -112 -29.5
t-79 -80t-29 -114.5q0 -63 29 -113.5t79 -80t112 -29.5zM469 463v58h42q18 0 29.5 13t11.5 33v23q0 12 7.5 20.5t21.5 8.5t21.5 -10t7.5 -24v-18q0 -29 -13 -53t-35.5 -37.5t-50.5 -13.5h-42zM338 596q-12 0 -20.5 8.5t-8.5 20.5v33q0 26 26 32l24 5q24 5 33 16t9 30
q0 24 -16 37.5t-39 13.5q-12 0 -22 -4t-20 -12q-4 -3 -9 -5t-10 -2q-12 0 -20.5 8.5t-8.5 20.5q0 14 10 22q17 14 37.5 22t42.5 8q47 0 80 -27.5t33 -75.5q0 -44 -27.5 -68t-64.5 -30v-24q0 -12 -8.5 -20.5t-20.5 -8.5z" />
    <glyph glyph-name="uni1EE1" unicode="&#x1ee1;" 
d="M340 -6q-80 0 -143.5 36.5t-100 100t-36.5 142.5q0 80 36.5 143.5t100 100t143.5 36.5t143 -36.5t99.5 -100t36.5 -143.5q0 -79 -36.5 -142.5t-99.5 -100t-143 -36.5zM340 50q63 0 112.5 29.5t78 80t28.5 114.5q0 63 -28.5 113.5t-78 80t-112.5 29.5q-62 0 -112 -29.5
t-79 -80t-29 -114.5q0 -63 29 -113.5t79 -80t112 -29.5zM469 463v58h42q18 0 29.5 13t11.5 33v23q0 12 7.5 20.5t21.5 8.5t21.5 -10t7.5 -24v-18q0 -29 -13 -53t-35.5 -37.5t-50.5 -13.5h-42zM445 630q-31 0 -54 12t-40 23q-20 14 -31.5 18.5t-25.5 4.5q-20 0 -40 -10.5
t-37 -30.5q-7 -10 -19 -12t-21 4q-12 7 -14 18.5t5 21.5q26 32 59 49.5t67 17.5q30 0 52 -11t38 -22q17 -11 29.5 -18t31.5 -7q18 0 31.5 5.5t23.5 16.5q8 9 19 12.5t20 -1.5q14 -7 17 -18t-5 -22q-39 -51 -106 -51z" />
    <glyph glyph-name="ohungarumlaut" unicode="&#x151;" 
d="M340 -6q-80 0 -143.5 36.5t-100 100t-36.5 142.5q0 80 36.5 143.5t100 100t143.5 36.5t143 -36.5t99.5 -100t36.5 -143.5q0 -79 -36.5 -142.5t-99.5 -100t-143 -36.5zM340 50q63 0 112.5 29.5t78 80t28.5 114.5q0 63 -28.5 113.5t-78 80t-112.5 29.5q-62 0 -112 -29.5
t-79 -80t-29 -114.5q0 -63 29 -113.5t79 -80t112 -29.5zM414 629q-7 0 -13 5t-6 15v5.5t1 3.5l47 144q3 9 10.5 14t16.5 5q14 0 22.5 -9.5t8.5 -20.5q0 -3 -0.5 -6t-1.5 -5l-65 -137q-6 -14 -20 -14zM257 629q-7 0 -13 5t-6 15v5.5t1 3.5l46 144q4 9 11.5 14t16.5 5
q14 0 22.5 -9.5t8.5 -20.5q0 -5 -2 -11l-65 -137q-7 -14 -20 -14z" />
    <glyph glyph-name="uni020F" unicode="&#x20f;" 
d="M340 -6q-80 0 -143.5 36.5t-100 100t-36.5 142.5q0 80 36.5 143.5t100 100t143.5 36.5t143 -36.5t99.5 -100t36.5 -143.5q0 -79 -36.5 -142.5t-99.5 -100t-143 -36.5zM340 50q63 0 112.5 29.5t78 80t28.5 114.5q0 63 -28.5 113.5t-78 80t-112.5 29.5q-62 0 -112 -29.5
t-79 -80t-29 -114.5q0 -63 29 -113.5t79 -80t112 -29.5zM218 648q-13 0 -22 9t-9 22q0 31 20.5 56t55.5 40t76 15q39 0 73 -13.5t56 -38.5t24 -60q-1 -12 -9.5 -21t-21.5 -9t-21.5 9t-8.5 22q0 23 -24.5 40t-67.5 17t-67 -17t-24 -40q0 -13 -8.5 -22t-21.5 -9z" />
    <glyph glyph-name="omacron" unicode="&#x14d;" 
d="M340 -6q-80 0 -143.5 36.5t-100 100t-36.5 142.5q0 80 36.5 143.5t100 100t143.5 36.5t143 -36.5t99.5 -100t36.5 -143.5q0 -79 -36.5 -142.5t-99.5 -100t-143 -36.5zM340 50q63 0 112.5 29.5t78 80t28.5 114.5q0 63 -28.5 113.5t-78 80t-112.5 29.5q-62 0 -112 -29.5
t-79 -80t-29 -114.5q0 -63 29 -113.5t79 -80t112 -29.5zM207 661q-13 0 -21.5 8.5t-8.5 21.5t8.5 22t21.5 9h265q13 0 21.5 -9t8.5 -22t-8.5 -21.5t-21.5 -8.5h-265z" />
    <glyph glyph-name="uni01EB" unicode="&#x1eb;" 
d="M340 -6q-80 0 -143.5 36.5t-100 100t-36.5 142.5q0 80 36.5 143.5t100 100t143.5 36.5t143 -36.5t99.5 -100t36.5 -143.5q0 -79 -36.5 -142.5t-99.5 -100t-143 -36.5zM340 50q63 0 112.5 29.5t78 80t28.5 114.5q0 63 -28.5 113.5t-78 80t-112.5 29.5q-62 0 -112 -29.5
t-79 -80t-29 -114.5q0 -63 29 -113.5t79 -80t112 -29.5zM430 -221q-30 0 -55 15t-40.5 40t-15.5 56q0 53 47 91q15 12 24.5 23t13.5 21q8 15 26 15q14 0 22.5 -8t8.5 -21q0 -19 -15.5 -38.5t-44.5 -41.5q-10 -8 -15.5 -19t-5.5 -22q0 -21 14.5 -35.5t35.5 -14.5q7 0 14 2
t14 6l35 26q9 6 18 6q13 0 22 -9t9 -22q0 -15 -10 -23l-41 -28q-28 -19 -61 -19z" />
    <glyph glyph-name="oslash" unicode="&#xf8;" horiz-adv-x="694" 
d="M91 -17q-20 0 -28.5 18.5t6.5 33.5l75 74l26 15l345 344l14 17l52 52q8 10 23 10t22 -9.5t7.5 -22t-7.5 -20.5l-58 -57l-13 -14l-346 -345l-22 -13l-74 -74q-9 -9 -22 -9zM355 -6q-80 0 -143.5 36.5t-100 100t-36.5 142.5q0 80 36.5 143.5t100 100t143.5 36.5t143 -36.5
t99.5 -100t36.5 -143.5q0 -79 -36.5 -142.5t-99.5 -100t-143 -36.5zM355 50q63 0 112.5 29.5t78 80t28.5 114.5q0 63 -28.5 113.5t-78 80t-112.5 29.5q-62 0 -112 -29.5t-79 -80t-29 -114.5q0 -63 29 -113.5t79 -80t112 -29.5z" />
    <glyph glyph-name="oslashacute" unicode="&#x1ff;" horiz-adv-x="694" 
d="M91 -17q-20 0 -28.5 18.5t6.5 33.5l75 74l26 15l345 344l14 17l52 52q8 10 23 10t22 -9.5t7.5 -22t-7.5 -20.5l-58 -57l-13 -14l-346 -345l-22 -13l-74 -74q-9 -9 -22 -9zM355 -6q-80 0 -143.5 36.5t-100 100t-36.5 142.5q0 80 36.5 143.5t100 100t143.5 36.5t143 -36.5
t99.5 -100t36.5 -143.5q0 -79 -36.5 -142.5t-99.5 -100t-143 -36.5zM355 50q63 0 112.5 29.5t78 80t28.5 114.5q0 63 -28.5 113.5t-78 80t-112.5 29.5q-62 0 -112 -29.5t-79 -80t-29 -114.5q0 -63 29 -113.5t79 -80t112 -29.5zM340 628q-13 0 -22 9t-9 22q0 11 7 20l123 123
q9 9 22 9t22 -8.5t9 -22.5q0 -5 -2 -10.5t-7 -10.5l-123 -123q-8 -8 -20 -8z" />
    <glyph glyph-name="otilde" unicode="&#xf5;" 
d="M340 -6q-80 0 -143.5 36.5t-100 100t-36.5 142.5q0 80 36.5 143.5t100 100t143.5 36.5t143 -36.5t99.5 -100t36.5 -143.5q0 -79 -36.5 -142.5t-99.5 -100t-143 -36.5zM340 50q63 0 112.5 29.5t78 80t28.5 114.5q0 63 -28.5 113.5t-78 80t-112.5 29.5q-62 0 -112 -29.5
t-79 -80t-29 -114.5q0 -63 29 -113.5t79 -80t112 -29.5zM445 630q-31 0 -54 12t-40 23q-20 14 -31.5 18.5t-25.5 4.5q-20 0 -40 -10.5t-37 -30.5q-7 -10 -19 -12t-21 4q-12 7 -14 18.5t5 21.5q26 32 59 49.5t67 17.5q30 0 52 -11t38 -22q17 -11 29.5 -18t31.5 -7
q18 0 31.5 5.5t23.5 16.5q8 9 19 12.5t20 -1.5q14 -7 17 -18t-5 -22q-39 -51 -106 -51z" />
    <glyph glyph-name="uni022D" unicode="&#x22d;" 
d="M340 -6q-80 0 -143.5 36.5t-100 100t-36.5 142.5q0 80 36.5 143.5t100 100t143.5 36.5t143 -36.5t99.5 -100t36.5 -143.5q0 -79 -36.5 -142.5t-99.5 -100t-143 -36.5zM340 50q63 0 112.5 29.5t78 80t28.5 114.5q0 63 -28.5 113.5t-78 80t-112.5 29.5q-62 0 -112 -29.5
t-79 -80t-29 -114.5q0 -63 29 -113.5t79 -80t112 -29.5zM445 630q-31 0 -54 12t-40 23q-20 14 -31.5 18.5t-25.5 4.5q-20 0 -40 -10.5t-37 -30.5q-7 -10 -19 -12t-21 4q-12 7 -14 18.5t5 21.5q26 32 59 49.5t67 17.5q30 0 52 -11t38 -22q17 -11 29.5 -18t31.5 -7
q18 0 31.5 5.5t23.5 16.5q8 9 19 12.5t20 -1.5q14 -7 17 -18t-5 -22q-39 -51 -106 -51zM217 808q-13 0 -21.5 8.5t-8.5 21.5t8.5 22t21.5 9h265q13 0 21.5 -9t8.5 -22t-8.5 -21.5t-21.5 -8.5h-265z" />
    <glyph glyph-name="oe" unicode="&#x153;" horiz-adv-x="1108" 
d="M340 -6q-82 0 -145 36t-99 99t-36 144q0 82 36 145t99 99t145 36t142.5 -36t94.5 -99t34 -145q0 -81 -34 -144t-94.5 -99t-142.5 -36zM340 50q64 0 113.5 28.5t77.5 79t28 115.5q0 66 -28 116.5t-77.5 79t-113.5 28.5t-114 -28.5t-78 -79t-28 -116.5q0 -65 28 -115.5
t78 -79t114 -28.5zM831 -5q-79 0 -139.5 35.5t-94 98.5t-33.5 144q0 82 31.5 144.5t88.5 98.5t132 36q74 0 131 -34.5t89 -95t32 -139.5q0 -13 -8 -20.5t-21 -7.5h-440v52h456l-44 -33q2 65 -22 115t-68.5 78.5t-104.5 28.5q-57 0 -101.5 -28.5t-70 -78.5t-25.5 -115
q0 -66 27 -116t75 -78.5t110 -28.5q39 0 78.5 13.5t62.5 35.5q8 8 19.5 8.5t19.5 -6.5q11 -9 11.5 -20t-9.5 -20q-32 -29 -83.5 -48t-98.5 -19z" />
    <glyph glyph-name="p" unicode="p" horiz-adv-x="709" 
d="M120 -234q-13 0 -21.5 8.5t-8.5 21.5v483q2 79 38.5 140.5t99.5 97.5t141 36q80 0 143.5 -36.5t100 -100t36.5 -143.5q0 -79 -36.5 -142.5t-100 -100t-143.5 -36.5q-72 0 -129.5 31t-89.5 83v-312q0 -13 -8 -21.5t-22 -8.5zM369 50q63 0 112.5 29.5t78.5 80t29 113.5
q0 64 -29 114.5t-78.5 80t-112.5 29.5q-62 0 -112 -29.5t-78.5 -80t-28.5 -114.5q0 -63 28.5 -113.5t78.5 -80t112 -29.5z" />
    <glyph glyph-name="thorn" unicode="&#xfe;" horiz-adv-x="709" 
d="M120 -234q-13 0 -21.5 8.5t-8.5 21.5v955q0 14 8.5 22t21.5 8q14 0 22 -8t8 -22v-407l-23 -30q0 63 21 108.5t56.5 74.5t78.5 42.5t86 13.5q82 0 145 -36t99 -99t36 -145q0 -81 -36 -144t-99 -99t-145 -36q-76 0 -133 34.5t-86 92.5v-325q0 -13 -8 -21.5t-22 -8.5z
M369 50q65 0 114.5 28.5t77.5 79t28 115.5q0 66 -28 116.5t-77.5 79t-114.5 28.5q-64 0 -113.5 -28.5t-77.5 -79t-28 -116.5q0 -65 28 -115.5t77.5 -79t113.5 -28.5z" />
    <glyph glyph-name="q" unicode="q" horiz-adv-x="709" 
d="M590 -234q-14 0 -22.5 8.5t-8.5 21.5v312q-32 -52 -89.5 -83t-129.5 -31q-80 0 -143.5 36.5t-100 100t-36.5 142.5q0 80 36.5 143.5t100 100t143.5 36.5q79 0 141.5 -36t99.5 -97.5t38 -140.5v-483q0 -13 -8 -21.5t-21 -8.5zM340 50q63 0 112.5 29.5t78 80t28.5 113.5
q0 64 -28.5 114.5t-78 80t-112.5 29.5q-62 0 -112 -29.5t-79 -80t-29 -114.5q0 -63 29 -113.5t79 -80t112 -29.5z" />
    <glyph glyph-name="r" unicode="r" horiz-adv-x="438" 
d="M110 334q6 64 35 113.5t75 77.5t102 28q38 0 59 -9t16 -32q-3 -15 -14 -18t-26.5 -0.5t-34.5 2.5q-50 0 -89 -21t-61 -57.5t-22 -83.5h-40zM120 0q-13 0 -21.5 8.5t-8.5 21.5v487q0 14 8.5 22t21.5 8q14 0 22 -8t8 -22v-487q0 -13 -8 -21.5t-22 -8.5z" />
    <glyph glyph-name="racute" unicode="&#x155;" horiz-adv-x="438" 
d="M110 334q6 64 35 113.5t75 77.5t102 28q38 0 59 -9t16 -32q-3 -15 -14 -18t-26.5 -0.5t-34.5 2.5q-50 0 -89 -21t-61 -57.5t-22 -83.5h-40zM120 0q-13 0 -21.5 8.5t-8.5 21.5v487q0 14 8.5 22t21.5 8q14 0 22 -8t8 -22v-487q0 -13 -8 -21.5t-22 -8.5zM224 628
q-13 0 -22 9t-9 22q0 11 7 20l123 123q9 9 22 9t22 -8.5t9 -22.5q0 -5 -2 -10.5t-7 -10.5l-123 -123q-8 -8 -20 -8z" />
    <glyph glyph-name="rcaron" unicode="&#x159;" horiz-adv-x="438" 
d="M110 334q6 64 35 113.5t75 77.5t102 28q38 0 59 -9t16 -32q-3 -15 -14 -18t-26.5 -0.5t-34.5 2.5q-50 0 -89 -21t-61 -57.5t-22 -83.5h-40zM120 0q-13 0 -21.5 8.5t-8.5 21.5v487q0 14 8.5 22t21.5 8q14 0 22 -8t8 -22v-487q0 -13 -8 -21.5t-22 -8.5zM239 648
q-10 0 -15 4l-121 80q-16 10 -16 27t15 25t35 -6l102 -70l102 68q21 14 35.5 7t14.5 -24q0 -15 -16 -27l-121 -80q-5 -4 -15 -4z" />
    <glyph glyph-name="uni0157" unicode="&#x157;" horiz-adv-x="438" 
d="M110 334q6 64 35 113.5t75 77.5t102 28q38 0 59 -9t16 -32q-3 -15 -14 -18t-26.5 -0.5t-34.5 2.5q-50 0 -89 -21t-61 -57.5t-22 -83.5h-40zM120 0q-13 0 -21.5 8.5t-8.5 21.5v487q0 14 8.5 22t21.5 8q14 0 22 -8t8 -22v-487q0 -13 -8 -21.5t-22 -8.5zM127 -232
q-25 0 -52.5 9t-46.5 24t-19 33q0 11 6.5 17.5t18.5 6.5q14 0 23 -5.5t18 -12.5t21.5 -12.5t33.5 -5.5q29 0 45.5 13t16.5 35q0 18 -15.5 30t-49.5 12q-21 0 -32.5 5.5t-11.5 18.5q0 25 40 25q53 0 87 -26.5t34 -67.5q0 -44 -34.5 -71.5t-82.5 -27.5z" />
    <glyph glyph-name="uni0211" unicode="&#x211;" horiz-adv-x="438" 
d="M110 334q6 64 35 113.5t75 77.5t102 28q38 0 59 -9t16 -32q-3 -15 -14 -18t-26.5 -0.5t-34.5 2.5q-50 0 -89 -21t-61 -57.5t-22 -83.5h-40zM120 0q-13 0 -21.5 8.5t-8.5 21.5v487q0 14 8.5 22t21.5 8q14 0 22 -8t8 -22v-487q0 -13 -8 -21.5t-22 -8.5zM352 629
q-14 0 -21 14l-65 137q-2 6 -2 11q0 11 8.5 20.5t22.5 9.5q9 0 16.5 -5t11.5 -14l46 -144q1 -2 1 -9q0 -10 -5.5 -15t-12.5 -5zM194 629q-14 0 -20 14l-65 137q-1 2 -1.5 5t-0.5 6q0 11 8.5 20.5t22.5 9.5q9 0 16.5 -5t10.5 -14l47 -144q1 -1 1 -3.5v-5.5q0 -10 -5.5 -15
t-13.5 -5z" />
    <glyph glyph-name="uni0213" unicode="&#x213;" horiz-adv-x="438" 
d="M110 334q6 64 35 113.5t75 77.5t102 28q38 0 59 -9t16 -32q-3 -15 -14 -18t-26.5 -0.5t-34.5 2.5q-50 0 -89 -21t-61 -57.5t-22 -83.5h-40zM120 0q-13 0 -21.5 8.5t-8.5 21.5v487q0 14 8.5 22t21.5 8q14 0 22 -8t8 -22v-487q0 -13 -8 -21.5t-22 -8.5zM117 648
q-13 0 -22 9t-9 22q0 31 20.5 56t55.5 40t76 15q39 0 73 -13.5t56 -38.5t24 -60q-1 -12 -9.5 -21t-21.5 -9t-21.5 9t-8.5 22q0 23 -24.5 40t-67.5 17t-67 -17t-24 -40q0 -13 -8.5 -22t-21.5 -9z" />
    <glyph glyph-name="s" unicode="s" horiz-adv-x="536" 
d="M276 -6q-52 0 -109 19t-95 64q-8 10 -6.5 21.5t12.5 19.5q10 7 21.5 5t18.5 -11q29 -34 70.5 -47.5t90.5 -13.5q84 0 119 30t35 70q0 39 -37.5 64.5t-115.5 36.5q-100 14 -148 54t-48 93q0 50 25 84.5t68.5 52t99.5 17.5q68 0 115 -24.5t76 -65.5q8 -10 5.5 -21.5
t-15.5 -18.5q-10 -5 -21 -3t-19 12q-25 32 -60.5 48.5t-82.5 16.5q-63 0 -98 -27t-35 -65q0 -26 14.5 -45.5t47.5 -33t88 -21.5q75 -10 118.5 -34t62 -55.5t18.5 -67.5q0 -47 -30 -82t-79 -53.5t-106 -18.5z" />
    <glyph glyph-name="sacute" unicode="&#x15b;" horiz-adv-x="536" 
d="M276 -6q-52 0 -109 19t-95 64q-8 10 -6.5 21.5t12.5 19.5q10 7 21.5 5t18.5 -11q29 -34 70.5 -47.5t90.5 -13.5q84 0 119 30t35 70q0 39 -37.5 64.5t-115.5 36.5q-100 14 -148 54t-48 93q0 50 25 84.5t68.5 52t99.5 17.5q68 0 115 -24.5t76 -65.5q8 -10 5.5 -21.5
t-15.5 -18.5q-10 -5 -21 -3t-19 12q-25 32 -60.5 48.5t-82.5 16.5q-63 0 -98 -27t-35 -65q0 -26 14.5 -45.5t47.5 -33t88 -21.5q75 -10 118.5 -34t62 -55.5t18.5 -67.5q0 -47 -30 -82t-79 -53.5t-106 -18.5zM263 628q-13 0 -22 9t-9 22q0 11 7 20l123 123q9 9 22 9t22 -8.5
t9 -22.5q0 -5 -2 -10.5t-7 -10.5l-123 -123q-8 -8 -20 -8z" />
    <glyph glyph-name="scaron" unicode="&#x161;" horiz-adv-x="536" 
d="M276 -6q-52 0 -109 19t-95 64q-8 10 -6.5 21.5t12.5 19.5q10 7 21.5 5t18.5 -11q29 -34 70.5 -47.5t90.5 -13.5q84 0 119 30t35 70q0 39 -37.5 64.5t-115.5 36.5q-100 14 -148 54t-48 93q0 50 25 84.5t68.5 52t99.5 17.5q68 0 115 -24.5t76 -65.5q8 -10 5.5 -21.5
t-15.5 -18.5q-10 -5 -21 -3t-19 12q-25 32 -60.5 48.5t-82.5 16.5q-63 0 -98 -27t-35 -65q0 -26 14.5 -45.5t47.5 -33t88 -21.5q75 -10 118.5 -34t62 -55.5t18.5 -67.5q0 -47 -30 -82t-79 -53.5t-106 -18.5zM278 648q-10 0 -15 4l-121 80q-16 10 -16 27t15 25t35 -6l102 -70
l102 68q21 14 35.5 7t14.5 -24q0 -15 -16 -27l-121 -80q-5 -4 -15 -4z" />
    <glyph glyph-name="scedilla" unicode="&#x15f;" horiz-adv-x="536" 
d="M276 -6q-52 0 -109 19t-95 64q-8 10 -6.5 21.5t12.5 19.5q10 7 21.5 5t18.5 -11q29 -34 70.5 -47.5t90.5 -13.5q84 0 119 30t35 70q0 39 -37.5 64.5t-115.5 36.5q-100 14 -148 54t-48 93q0 50 25 84.5t68.5 52t99.5 17.5q68 0 115 -24.5t76 -65.5q8 -10 5.5 -21.5
t-15.5 -18.5q-10 -5 -21 -3t-19 12q-25 32 -60.5 48.5t-82.5 16.5q-63 0 -98 -27t-35 -65q0 -26 14.5 -45.5t47.5 -33t88 -21.5q75 -10 118.5 -34t62 -55.5t18.5 -67.5q0 -47 -30 -82t-79 -53.5t-106 -18.5zM273 -232q-49 0 -80 20.5t-31 45.5q0 13 8.5 22t21.5 9
q11 0 18.5 -6t16.5 -13q8 -6 17.5 -11.5t28.5 -5.5q25 0 42 11t17 30q0 20 -13 31t-44 20q-19 5 -28 14t1 32l20 49q4 10 12.5 16t22.5 6q15 0 22.5 -11.5t1.5 -26.5l-15 -36q53 -16 70.5 -39t17.5 -53q0 -29 -18 -53t-46.5 -37.5t-62.5 -13.5z" />
    <glyph glyph-name="scircumflex" unicode="&#x15d;" horiz-adv-x="536" 
d="M276 -6q-52 0 -109 19t-95 64q-8 10 -6.5 21.5t12.5 19.5q10 7 21.5 5t18.5 -11q29 -34 70.5 -47.5t90.5 -13.5q84 0 119 30t35 70q0 39 -37.5 64.5t-115.5 36.5q-100 14 -148 54t-48 93q0 50 25 84.5t68.5 52t99.5 17.5q68 0 115 -24.5t76 -65.5q8 -10 5.5 -21.5
t-15.5 -18.5q-10 -5 -21 -3t-19 12q-25 32 -60.5 48.5t-82.5 16.5q-63 0 -98 -27t-35 -65q0 -26 14.5 -45.5t47.5 -33t88 -21.5q75 -10 118.5 -34t62 -55.5t18.5 -67.5q0 -47 -30 -82t-79 -53.5t-106 -18.5zM158 648q-13 0 -22.5 8.5t-9.5 21.5q0 17 16 27l121 81q8 4 15 4
q5 0 8.5 -1t6.5 -3l121 -81q16 -10 16 -27q0 -13 -8.5 -21.5t-22.5 -8.5q-6 0 -10 1.5t-9 4.5l-102 68l-102 -68q-9 -6 -18 -6z" />
    <glyph glyph-name="uni0219" unicode="&#x219;" horiz-adv-x="536" 
d="M276 -6q-52 0 -109 19t-95 64q-8 10 -6.5 21.5t12.5 19.5q10 7 21.5 5t18.5 -11q29 -34 70.5 -47.5t90.5 -13.5q84 0 119 30t35 70q0 39 -37.5 64.5t-115.5 36.5q-100 14 -148 54t-48 93q0 50 25 84.5t68.5 52t99.5 17.5q68 0 115 -24.5t76 -65.5q8 -10 5.5 -21.5
t-15.5 -18.5q-10 -5 -21 -3t-19 12q-25 32 -60.5 48.5t-82.5 16.5q-63 0 -98 -27t-35 -65q0 -26 14.5 -45.5t47.5 -33t88 -21.5q75 -10 118.5 -34t62 -55.5t18.5 -67.5q0 -47 -30 -82t-79 -53.5t-106 -18.5zM285 -232q-25 0 -52.5 9t-46.5 24t-19 33q0 11 6.5 17.5t18.5 6.5
q14 0 23 -5.5t18 -12.5t21.5 -12.5t33.5 -5.5q29 0 45.5 13t16.5 35q0 18 -15.5 30t-49.5 12q-21 0 -32.5 5.5t-11.5 18.5q0 25 40 25q53 0 87 -26.5t34 -67.5q0 -44 -34.5 -71.5t-82.5 -27.5z" />
    <glyph glyph-name="germandbls" unicode="&#xdf;" horiz-adv-x="547" 
d="M91 0q-12 0 -20.5 8.5t-8.5 20.5v549q0 53 25 96.5t71 69.5t108 26q53 0 95 -21t67 -59.5t25 -91.5q0 -38 -14.5 -64.5t-34 -48t-34 -41.5t-14.5 -44q0 -21 16 -40.5t39.5 -40t47 -44t39.5 -52.5t16 -67q0 -44 -24.5 -81t-67 -59t-97.5 -22q-38 0 -72.5 12t-56.5 30
t-22 35q0 11 6.5 19.5t17.5 8.5q15 0 22.5 -6.5t17 -15.5t29 -16t58.5 -7q59 0 94 24.5t35 77.5q0 31 -16 56t-39.5 46.5l-47 43t-39.5 45t-16 52.5q0 30 14.5 51.5t34 41t34 42.5t14.5 56q0 60 -35 90t-94 30q-61 0 -101.5 -40t-40.5 -102v-539q0 -12 -8.5 -20.5
t-22.5 -8.5z" />
    <glyph glyph-name="longs" unicode="&#x17f;" horiz-adv-x="290" 
d="M90 0q-13 0 -21.5 8.5t-8.5 21.5v518q0 68 21 120.5t65.5 82.5t113.5 30q14 0 22 -7.5t8 -19.5t-8 -19.5t-22 -7.5q-51 0 -81.5 -23.5t-44 -64t-13.5 -91.5v-518q0 -13 -8.5 -21.5t-22.5 -8.5z" />
    <glyph glyph-name="t" unicode="t" horiz-adv-x="403" 
d="M314 0q-55 1 -98 25.5t-67 68t-24 98.5v498q0 14 8.5 22.5t21.5 8.5q14 0 22.5 -8.5t8.5 -22.5v-498q0 -58 36 -94.5t93 -36.5h22q14 0 22.5 -8.5t8.5 -22.5q0 -13 -8.5 -21.5t-22.5 -8.5h-23zM47 473q-12 0 -19.5 7.5t-7.5 19.5t7.5 19.5t19.5 7.5h271q12 0 19.5 -7.5
t7.5 -19.5t-7.5 -19.5t-19.5 -7.5h-271z" />
    <glyph glyph-name="tbar" unicode="&#x167;" horiz-adv-x="403" 
d="M47 293q-12 0 -19.5 7.5t-7.5 19.5t7.5 19.5t19.5 7.5h251q12 0 19.5 -7.5t7.5 -19.5t-7.5 -19.5t-19.5 -7.5h-251zM314 0q-55 1 -98 25.5t-67 68t-24 98.5v498q0 14 8.5 22.5t21.5 8.5q14 0 22.5 -8.5t8.5 -22.5v-498q0 -58 36 -94.5t93 -36.5h22q14 0 22.5 -8.5
t8.5 -22.5q0 -13 -8.5 -21.5t-22.5 -8.5h-23zM47 473q-12 0 -19.5 7.5t-7.5 19.5t7.5 19.5t19.5 7.5h271q12 0 19.5 -7.5t7.5 -19.5t-7.5 -19.5t-19.5 -7.5h-271z" />
    <glyph glyph-name="tcaron" unicode="&#x165;" horiz-adv-x="403" 
d="M314 0q-55 1 -98 25.5t-67 68t-24 98.5v498q0 14 8.5 22.5t21.5 8.5q14 0 22.5 -8.5t8.5 -22.5v-498q0 -58 36 -94.5t93 -36.5h22q14 0 22.5 -8.5t8.5 -22.5q0 -13 -8.5 -21.5t-22.5 -8.5h-23zM47 473q-12 0 -19.5 7.5t-7.5 19.5t7.5 19.5t19.5 7.5h271q12 0 19.5 -7.5
t7.5 -19.5t-7.5 -19.5t-19.5 -7.5h-271zM254 609q-8 2 -12.5 8.5t-3.5 14.5q2 9 9.5 21.5t16 32t10.5 48.5q2 18 -2.5 28.5t-9.5 22t-5 29.5q0 23 13.5 30t29.5 7q29 0 40 -30t3 -71q-4 -22 -15 -47t-24.5 -47t-26.5 -35.5t-23 -11.5z" />
    <glyph glyph-name="uni0163" unicode="&#x163;" horiz-adv-x="403" 
d="M314 0q-55 1 -98 25.5t-67 68t-24 98.5v498q0 14 8.5 22.5t21.5 8.5q14 0 22.5 -8.5t8.5 -22.5v-498q0 -58 36 -94.5t93 -36.5h22q14 0 22.5 -8.5t8.5 -22.5q0 -13 -8.5 -21.5t-22.5 -8.5h-23zM47 473q-12 0 -19.5 7.5t-7.5 19.5t7.5 19.5t19.5 7.5h271q12 0 19.5 -7.5
t7.5 -19.5t-7.5 -19.5t-19.5 -7.5h-271zM217 -232q-49 0 -80 20.5t-31 45.5q0 13 8.5 22t21.5 9q11 0 18.5 -6t16.5 -13q8 -6 17.5 -11.5t28.5 -5.5q25 0 42 11t17 30q0 20 -13 31t-44 20q-19 5 -28 14t1 32l20 49q4 10 12.5 16t22.5 6q15 0 22.5 -11.5t1.5 -26.5l-15 -36
q53 -16 70.5 -39t17.5 -53q0 -29 -18 -53t-46.5 -37.5t-62.5 -13.5z" />
    <glyph glyph-name="uni021B" unicode="&#x21b;" horiz-adv-x="403" 
d="M314 0q-55 1 -98 25.5t-67 68t-24 98.5v498q0 14 8.5 22.5t21.5 8.5q14 0 22.5 -8.5t8.5 -22.5v-498q0 -58 36 -94.5t93 -36.5h22q14 0 22.5 -8.5t8.5 -22.5q0 -13 -8.5 -21.5t-22.5 -8.5h-23zM47 473q-12 0 -19.5 7.5t-7.5 19.5t7.5 19.5t19.5 7.5h271q12 0 19.5 -7.5
t7.5 -19.5t-7.5 -19.5t-19.5 -7.5h-271zM229 -232q-25 0 -52.5 9t-46.5 24t-19 33q0 11 6.5 17.5t18.5 6.5q14 0 23 -5.5t18 -12.5t21.5 -12.5t33.5 -5.5q29 0 45.5 13t16.5 35q0 18 -15.5 30t-49.5 12q-21 0 -32.5 5.5t-11.5 18.5q0 25 40 25q53 0 87 -26.5t34 -67.5
q0 -44 -34.5 -71.5t-82.5 -27.5z" />
    <glyph glyph-name="u" unicode="u" horiz-adv-x="673" 
d="M333 -7q-72 0 -129 29.5t-90.5 86.5t-33.5 139v269q0 13 8.5 21.5t21.5 8.5t21.5 -8.5t8.5 -21.5v-269q0 -65 25.5 -108.5t69 -65t98.5 -21.5q54 0 97 21t68 56.5t25 80.5h50q-4 -62 -37 -111.5t-85.5 -78t-117.5 -28.5zM553 0q-13 0 -21.5 8.5t-8.5 21.5v487
q0 14 8.5 22t21.5 8q14 0 22 -8t8 -22v-487q0 -13 -8 -21.5t-22 -8.5z" />
    <glyph glyph-name="uacute" unicode="&#xfa;" horiz-adv-x="673" 
d="M333 -7q-72 0 -129 29.5t-90.5 86.5t-33.5 139v269q0 13 8.5 21.5t21.5 8.5t21.5 -8.5t8.5 -21.5v-269q0 -65 25.5 -108.5t69 -65t98.5 -21.5q54 0 97 21t68 56.5t25 80.5h50q-4 -62 -37 -111.5t-85.5 -78t-117.5 -28.5zM553 0q-13 0 -21.5 8.5t-8.5 21.5v487
q0 14 8.5 22t21.5 8q14 0 22 -8t8 -22v-487q0 -13 -8 -21.5t-22 -8.5zM322 628q-13 0 -22 9t-9 22q0 11 7 20l123 123q9 9 22 9t22 -8.5t9 -22.5q0 -5 -2 -10.5t-7 -10.5l-123 -123q-8 -8 -20 -8z" />
    <glyph glyph-name="ubreve" unicode="&#x16d;" horiz-adv-x="673" 
d="M333 -7q-72 0 -129 29.5t-90.5 86.5t-33.5 139v269q0 13 8.5 21.5t21.5 8.5t21.5 -8.5t8.5 -21.5v-269q0 -65 25.5 -108.5t69 -65t98.5 -21.5q54 0 97 21t68 56.5t25 80.5h50q-4 -62 -37 -111.5t-85.5 -78t-117.5 -28.5zM553 0q-13 0 -21.5 8.5t-8.5 21.5v487
q0 14 8.5 22t21.5 8q14 0 22 -8t8 -22v-487q0 -13 -8 -21.5t-22 -8.5zM336 648q-41 0 -76 15t-55.5 40.5t-20.5 55.5q0 13 9 22t22 9t21.5 -9t8.5 -22q0 -22 24 -39.5t67 -17.5t67.5 17t24.5 40q0 13 8.5 22t21.5 9t21.5 -9t9.5 -21q-2 -34 -24 -59.5t-56 -39t-73 -13.5z
" />
    <glyph glyph-name="uni01D4" unicode="&#x1d4;" horiz-adv-x="673" 
d="M333 -7q-72 0 -129 29.5t-90.5 86.5t-33.5 139v269q0 13 8.5 21.5t21.5 8.5t21.5 -8.5t8.5 -21.5v-269q0 -65 25.5 -108.5t69 -65t98.5 -21.5q54 0 97 21t68 56.5t25 80.5h50q-4 -62 -37 -111.5t-85.5 -78t-117.5 -28.5zM553 0q-13 0 -21.5 8.5t-8.5 21.5v487
q0 14 8.5 22t21.5 8q14 0 22 -8t8 -22v-487q0 -13 -8 -21.5t-22 -8.5zM337 648q-10 0 -15 4l-121 80q-16 10 -16 27t15 25t35 -6l102 -70l102 68q21 14 35.5 7t14.5 -24q0 -15 -16 -27l-121 -80q-5 -4 -15 -4z" />
    <glyph glyph-name="ucircumflex" unicode="&#xfb;" horiz-adv-x="673" 
d="M333 -7q-72 0 -129 29.5t-90.5 86.5t-33.5 139v269q0 13 8.5 21.5t21.5 8.5t21.5 -8.5t8.5 -21.5v-269q0 -65 25.5 -108.5t69 -65t98.5 -21.5q54 0 97 21t68 56.5t25 80.5h50q-4 -62 -37 -111.5t-85.5 -78t-117.5 -28.5zM553 0q-13 0 -21.5 8.5t-8.5 21.5v487
q0 14 8.5 22t21.5 8q14 0 22 -8t8 -22v-487q0 -13 -8 -21.5t-22 -8.5zM217 648q-13 0 -22.5 8.5t-9.5 21.5q0 17 16 27l121 81q8 4 15 4q5 0 8.5 -1t6.5 -3l121 -81q16 -10 16 -27q0 -13 -8.5 -21.5t-22.5 -8.5q-6 0 -10 1.5t-9 4.5l-102 68l-102 -68q-9 -6 -18 -6z" />
    <glyph glyph-name="uni0215" unicode="&#x215;" horiz-adv-x="673" 
d="M333 -7q-72 0 -129 29.5t-90.5 86.5t-33.5 139v269q0 13 8.5 21.5t21.5 8.5t21.5 -8.5t8.5 -21.5v-269q0 -65 25.5 -108.5t69 -65t98.5 -21.5q54 0 97 21t68 56.5t25 80.5h50q-4 -62 -37 -111.5t-85.5 -78t-117.5 -28.5zM553 0q-13 0 -21.5 8.5t-8.5 21.5v487
q0 14 8.5 22t21.5 8q14 0 22 -8t8 -22v-487q0 -13 -8 -21.5t-22 -8.5zM450 629q-14 0 -21 14l-65 137q-2 6 -2 11q0 11 8.5 20.5t22.5 9.5q9 0 16.5 -5t11.5 -14l46 -144q1 -2 1 -9q0 -10 -5.5 -15t-12.5 -5zM292 629q-14 0 -20 14l-65 137q-1 2 -1.5 5t-0.5 6
q0 11 8.5 20.5t22.5 9.5q9 0 16.5 -5t10.5 -14l47 -144q1 -1 1 -3.5v-5.5q0 -10 -5.5 -15t-13.5 -5z" />
    <glyph glyph-name="udieresis" unicode="&#xfc;" horiz-adv-x="673" 
d="M333 -7q-72 0 -129 29.5t-90.5 86.5t-33.5 139v269q0 13 8.5 21.5t21.5 8.5t21.5 -8.5t8.5 -21.5v-269q0 -65 25.5 -108.5t69 -65t98.5 -21.5q54 0 97 21t68 56.5t25 80.5h50q-4 -62 -37 -111.5t-85.5 -78t-117.5 -28.5zM553 0q-13 0 -21.5 8.5t-8.5 21.5v487
q0 14 8.5 22t21.5 8q14 0 22 -8t8 -22v-487q0 -13 -8 -21.5t-22 -8.5zM237 657q-22 0 -37 15t-15 37q0 21 15 36t37 15t36.5 -15t14.5 -36q0 -22 -14.5 -37t-36.5 -15zM437 657q-22 0 -37 15t-15 37q0 21 15 36t37 15t36.5 -15t14.5 -36q0 -22 -14.5 -37t-36.5 -15z" />
    <glyph glyph-name="uni1EE5" unicode="&#x1ee5;" horiz-adv-x="673" 
d="M333 -7q-72 0 -129 29.5t-90.5 86.5t-33.5 139v269q0 13 8.5 21.5t21.5 8.5t21.5 -8.5t8.5 -21.5v-269q0 -65 25.5 -108.5t69 -65t98.5 -21.5q54 0 97 21t68 56.5t25 80.5h50q-4 -62 -37 -111.5t-85.5 -78t-117.5 -28.5zM553 0q-13 0 -21.5 8.5t-8.5 21.5v487
q0 14 8.5 22t21.5 8q14 0 22 -8t8 -22v-487q0 -13 -8 -21.5t-22 -8.5zM336 -198q-19 0 -32.5 13.5t-13.5 33.5q0 23 14.5 34.5t32.5 11.5q17 0 31.5 -11.5t14.5 -34.5q0 -20 -13.5 -33.5t-33.5 -13.5z" />
    </font>
</defs>
</svg>
