<?xml version="1.0" standalone="no"?>
<!DOCTYPE svg PUBLIC "-//W3C//DTD SVG 1.1//EN" "http://www.w3.org/Graphics/SVG/1.1/DTD/svg11.dtd" >
<svg xmlns="http://www.w3.org/2000/svg" xmlns:xlink="http://www.w3.org/1999/xlink" version="1.1">
<metadata>
Created by FontForge 20170924 at Tue Dec 20 10:46:20 2011
 By Glenn,,,
Created by gluk (gluksza@wp.pl | www.glukfonts.pl) with FontForge.

</metadata>
<defs>
<font id="ZnikomitNo24" horiz-adv-x="1110" >
  <font-face 
    font-family="ZnikomitNo24"
    font-weight="500"
    font-stretch="normal"
    units-per-em="2000"
    panose-1="2 0 2 3 0 0 0 0 0 0"
    ascent="1520"
    descent="-480"
    x-height="1040"
    cap-height="1520"
    bbox="-858 -890 3640 2010"
    underline-thickness="25"
    underline-position="-320"
    stemh="20"
    stemv="25"
    unicode-range="U+0020-FFFD"
  />
<missing-glyph horiz-adv-x="690" 
d="M590 0h-490v1200h490v-1200zM124 26h442v1150h-442v-1150z" />
    <glyph glyph-name="f_j" unicode="fj" horiz-adv-x="1070" 
d="M80 1040h124c17 0 35 4 32 35c-4 40 -8 81 -8 124c0 229 111 381 337 381c267 0 425 -88 425 -220c0 -60 -36 -100 -90 -100s-90 40 -90 100c0 120 -86 200 -244 200c-212 0 -314 -145 -314 -362c0 -42 5 -82 9 -121c3 -30 27 -37 40 -37h484l130 3v-1023
c0 -300 -126 -500 -314 -500c-112 0 -186 61 -186 153c0 62 42 104 104 104s94 -43 175 -43c118 0 196 114 196 286v950c0 37 -28 50 -105 50h-484c-27 0 -36 -13 -36 -35v-920c0 -29 13 -50 150 -50h25v-15h-390v15h40c137 0 150 21 150 50v921c0 24 -11 34 -36 34h-124v20
z" />
    <glyph glyph-name="c_t" unicode="ct" horiz-adv-x="1840" 
d="M555 1045c147 0 273 -55 336 -117c-37 100 -53 186 -53 259c0 125 90 193 256 193h41l125 3v-329c0 -22 9 -34 36 -34h218c62 0 80 31 80 60c0 40 -33 86 -33 129c0 63 48 114 108 114c79 0 131 -53 131 -133c0 -114 -114 -190 -286 -190h-218c-27 0 -36 -13 -36 -35
v-575c0 -218 110 -375 261 -375c90 0 188 38 241 122l16 -10c-57 -91 -162 -132 -257 -132c-166 0 -286 166 -286 395v575c0 22 -9 35 -36 35h-149v20h90c87 0 100 17 100 123v152c0 42 -42 70 -104 70h-41c-158 0 -243 -62 -243 -177c0 -83 23 -184 74 -306
c13 -27 20 -57 20 -89c0 -106 -61 -176 -153 -176c-62 0 -104 38 -104 94c0 62 73 84 73 165c0 107 -77 149 -210 149c-268 0 -462 -211 -462 -507c0 -294 200 -503 485 -503c128 0 264 43 367 130l13 -15c-107 -91 -248 -135 -380 -135c-296 0 -510 218 -510 523
c0 306 207 527 490 527z" />
    <glyph glyph-name="Q_u" unicode="Qu" horiz-adv-x="2630" 
d="M1267 1040l5 -15h-148c-99 0 -165 -53 -165 -124c0 -81 73 -103 73 -165c0 -56 -42 -94 -104 -94c-92 0 -153 70 -153 176c0 133 138 222 346 222h146zM751 -5c31 -193 150 -270 298 -270c125 0 122 63 223 63c68 0 124 -51 124 -114c0 -84 -92 -153 -206 -153
c-208 0 -326 122 -424 322c-20 44 -30 98 -39 152c-369 2 -637 322 -637 765s269 763 640 763s640 -320 640 -763c0 -435 -260 -753 -619 -765zM533 257c-79 0 -143 -45 -143 -101c0 -13 4 -28 17 -41c91 -63 198 -98 317 -100c-21 123 -45 242 -191 242zM377 138
c-1 6 -2 12 -2 18c0 67 71 121 158 121c168 0 193 -132 215 -262c348 10 597 320 597 745c0 431 -258 743 -615 743s-615 -312 -615 -743c0 -272 99 -489 262 -622zM1370 1025l-4 15h119l130 3v-765c0 -169 103 -260 305 -260c236 0 465 270 465 560v397
c0 37 -28 50 -105 50h-25v15h25l130 3v-794l9 -100c7 -74 35 -133 65 -134l96 16l4 -20l-97 -16h-2c-52 0 -84 78 -91 152l-9 101v101c0 17 -2 31 -7 31c-4 0 -9 -7 -16 -25c-79 -202 -255 -360 -442 -360c-214 0 -330 98 -330 280v700c0 37 -28 50 -105 50h-115z" />
    <glyph glyph-name="T_h" unicode="Th" horiz-adv-x="2320" 
d="M2105 -5v767c0 169 -103 260 -305 260c-236 0 -465 -270 -465 -560v-392c0 -29 13 -55 150 -55h55v-15h-420v15h40c137 0 150 26 150 55v1380c0 37 -28 50 -105 50h-535v-1430c0 -29 13 -55 150 -55h35v-15h-400v15h40c137 0 150 26 150 55v1430h-459
c-67 0 -112 -36 -112 -89c0 -94 47 -156 117 -156c61 0 103 50 152 50c63 0 106 -43 106 -108c0 -87 -67 -145 -167 -145c-142 0 -237 127 -237 317c0 44 5 96 8 142c0 4 4 9 10 9h1142c22 0 140 9 140 9s-10 -70 -10 -170v-668c0 -17 2 -31 7 -31c4 0 9 7 16 25
c79 202 255 360 442 360c214 0 330 -98 330 -280v-689c0 -106 35 -174 69 -174c61 0 81 48 140 48c64 0 106 -37 106 -93c0 -78 -67 -130 -167 -130c-104 0 -173 107 -173 268z" />
    <glyph glyph-name="f_f" unicode="ff" horiz-adv-x="1210" 
d="M80 1000v20h124c17 0 35 4 32 35c-4 40 -8 81 -8 124c0 301 183 501 458 501c212 0 371 -65 437 -170c109 -25 177 -99 177 -201c0 -106 -61 -176 -153 -176c-62 0 -104 38 -104 94c0 62 73 84 73 165c0 65 -32 108 -80 108c-137 0 -294 -91 -294 -322
c0 -42 5 -82 9 -121c3 -30 27 -37 40 -37h259v-20h-259c-27 0 -36 -13 -36 -35v-900c0 -29 13 -50 150 -50h25v-15h-390v15h40c137 0 150 21 150 50v901c0 24 -11 34 -36 34h-124v20h124c17 0 35 4 32 35c-4 40 -8 81 -8 124c0 240 171 341 317 341c13 0 26 -1 39 -2
c-66 88 -206 142 -388 142c-260 0 -434 -193 -434 -482c0 -42 5 -82 9 -121c3 -30 27 -37 40 -37h229v-20h-229c-27 0 -36 -13 -36 -35v-900c0 -29 13 -50 150 -50h25v-15h-390v15h40c137 0 150 21 150 50v901c0 24 -11 34 -36 34h-124z" />
    <glyph glyph-name="f_i" unicode="fi" horiz-adv-x="1160" 
d="M60 15h40c137 0 150 21 150 50v921c0 24 -11 34 -36 34h-124v20h124c17 0 35 4 32 35c-4 40 -8 81 -8 124c0 229 111 381 337 381c267 0 425 -88 425 -220c0 -60 -36 -100 -90 -100s-90 40 -90 100c0 120 -86 200 -244 200c-212 0 -314 -145 -314 -362
c0 -42 5 -82 9 -121c3 -30 27 -37 40 -37h484l130 3v-973c0 -29 13 -55 150 -55h35v-15h-400v15h40c137 0 150 26 150 55v900c0 37 -28 50 -105 50h-484c-27 0 -36 -13 -36 -35v-920c0 -29 13 -50 150 -50h25v-15h-390v15z" />
    <glyph glyph-name="f_l" unicode="fl" horiz-adv-x="1220" 
d="M80 1020h124c17 0 35 4 32 35c-4 40 -8 81 -8 124c0 205 111 341 277 341c159 0 265 -84 265 -211c0 -106 -61 -176 -153 -176c-62 0 -104 38 -104 94c0 62 73 84 73 165c0 65 -32 108 -80 108c-152 0 -254 -129 -254 -322c0 -42 5 -82 9 -121c3 -30 27 -37 40 -37h259
v-20h-259c-27 0 -36 -13 -36 -35v-900c0 -29 13 -50 150 -50h25v-15h-390v15h40c137 0 150 21 150 50v901c0 24 -11 34 -36 34h-124v20zM985 70c0 -29 13 -55 150 -55h35v-15h-400v15h40c137 0 150 26 150 55v1385c0 37 -28 50 -105 50h-170l-40 15h210l130 3v-1453z" />
    <glyph glyph-name="f_f_i" unicode="ffi" horiz-adv-x="1620" 
d="M80 1020h124c17 0 35 4 32 35c-4 40 -8 81 -8 124c0 301 231 501 578 501c188 0 337 -51 426 -136c141 -31 228 -105 228 -204c0 -60 -36 -100 -90 -100s-90 40 -90 100c0 120 -82 200 -204 200c-164 0 -274 -145 -274 -362c0 -42 5 -82 9 -121c3 -30 27 -37 40 -37h404
l130 3v-953c0 -29 13 -55 150 -55h35v-15h-400v15h40c137 0 150 26 150 55v880c0 37 -28 50 -105 50h-404c-27 0 -36 -13 -36 -35v-900c0 -29 13 -50 150 -50h25v-15h-390v15h40c137 0 150 21 150 50v901c0 24 -11 34 -36 34h-184v20h184c17 0 35 4 32 35
c-4 40 -8 81 -8 124c0 229 119 381 297 381c35 0 68 -2 99 -6c-83 67 -212 106 -368 106c-332 0 -554 -193 -554 -482c0 -42 5 -82 9 -121c3 -30 27 -37 40 -37h169v-20h-169c-27 0 -36 -13 -36 -35v-900c0 -29 13 -50 150 -50h25v-15h-390v15h40c137 0 150 21 150 50v901
c0 24 -11 34 -36 34h-124v20z" />
    <glyph glyph-name="f_f_l" unicode="ffl" horiz-adv-x="1770" 
d="M1535 70c0 -29 13 -55 150 -55h35v-15h-400v15h40c137 0 150 26 150 55v1385c0 37 -28 50 -105 50h-135l-30 15h165l130 3v-1453zM80 1020h124c17 0 35 4 32 35c-4 40 -8 81 -8 124c0 301 207 501 518 501c212 0 371 -64 437 -169c109 -25 177 -100 177 -202
c0 -106 -61 -176 -153 -176c-62 0 -104 38 -104 94c0 62 73 84 73 165c0 65 -32 108 -80 108c-137 0 -294 -91 -294 -322c0 -42 5 -82 9 -121c3 -30 27 -37 40 -37h259v-20h-259c-27 0 -36 -13 -36 -35v-900c0 -29 13 -50 150 -50h25v-15h-390v15h40c137 0 150 21 150 50
v901c0 24 -11 34 -36 34h-204v20h204c17 0 35 4 32 35c-4 40 -8 81 -8 124c0 240 171 341 317 341h38c-67 87 -206 140 -387 140c-296 0 -494 -193 -494 -482c0 -42 5 -82 9 -121c3 -30 27 -37 40 -37h169v-20h-169c-27 0 -36 -13 -36 -35v-900c0 -29 13 -50 150 -50h25v-15
h-390v15h40c137 0 150 21 150 50v901c0 24 -11 34 -36 34h-124v20z" />
    <glyph glyph-name="f_t" unicode="ft" horiz-adv-x="1550" 
d="M80 1020h124c17 0 35 4 32 35c-4 40 -8 81 -8 124c0 205 111 341 277 341c159 0 265 -84 265 -211c0 -106 -61 -176 -153 -176c-62 0 -104 38 -104 94c0 62 73 84 73 165c0 65 -32 108 -80 108c-152 0 -254 -129 -254 -322c0 -42 5 -82 9 -121c3 -30 27 -37 40 -37h549
c87 0 100 17 100 123v177h20v-266c0 -22 9 -34 36 -34h474v-20h-474c-27 0 -36 -13 -36 -35v-575c0 -218 110 -375 261 -375c90 0 188 38 241 122l16 -10c-57 -91 -162 -132 -257 -132c-166 0 -286 166 -286 395v575c0 22 -9 35 -36 35h-59h-549c-27 0 -36 -13 -36 -35v-900
c0 -29 13 -50 150 -50h25v-15h-390v15h40c137 0 150 21 150 50v901c0 24 -11 34 -36 34h-124v20z" />
    <glyph glyph-name="s_t" unicode="st" horiz-adv-x="1840" 
d="M485 1045c87 0 207 -15 314 -101c20 -16 31 -30 39 -30c11 0 15 15 15 46c-2 76 -5 151 -7 227c0 125 82 193 248 193h41l125 3v-329c0 -22 10 -34 36 -34h218c62 0 80 31 80 60c0 40 -33 86 -33 129c0 63 48 114 108 114c79 0 131 -53 131 -133
c0 -114 -114 -190 -286 -190h-218c-26 0 -36 -13 -36 -35v-575c0 -218 110 -375 261 -375c90 0 188 38 241 122l16 -10c-57 -91 -162 -132 -257 -132c-166 0 -286 166 -286 395v575c0 22 -9 35 -36 35h-149v20h90c87 0 100 17 100 123v152c0 42 -42 70 -104 70h-41
c-158 0 -235 -62 -235 -177l17 -448c0 -4 -3 -7 -8 -7s-8 3 -8 7l-1 8c-10 76 -26 142 -73 180c-100 82 -217 97 -302 97c-191 0 -330 -94 -330 -224c0 -249 795 -165 795 -557c0 -144 -182 -249 -435 -249c-270 0 -450 105 -450 262c0 106 61 176 153 176
c62 0 104 -38 104 -94c0 -62 -73 -84 -73 -165c0 -95 106 -159 266 -159c239 0 410 96 410 229c0 367 -795 275 -795 557c0 142 149 244 355 244z" />
    <glyph glyph-name=".notdef" horiz-adv-x="690" 
d="M590 0h-490v1200h490v-1200zM124 26h442v1150h-442v-1150z" />
    <glyph glyph-name="space" unicode=" " horiz-adv-x="800" 
 />
    <glyph glyph-name="exclam" unicode="!" horiz-adv-x="420" 
d="M160 480c0 608 -5 749 -5 920c0 332 106 490 304 490c76 0 126 -53 126 -133c0 -63 -51 -114 -114 -114c-38 0 -87 16 -124 16c-91 0 -167 -51 -167 -339v-840h-20zM130 35c0 21 18 40 40 40c21 0 40 -18 40 -40c0 -21 -18 -40 -40 -40c-21 0 -40 18 -40 40z" />
    <glyph glyph-name="quotedbl" unicode="&#x22;" horiz-adv-x="360" 
d="M240 1525c7 0 12 -6 12 -8c5 -27 8 -58 8 -90c0 -68 -9 -139 -16 -198l-8 -64l-20 3l9 64c7 57 10 129 10 195c0 30 -3 60 -8 86c0 3 4 12 13 12zM120 1525c7 0 12 -6 12 -8c5 -27 8 -58 8 -90c0 -68 -9 -139 -16 -198l-8 -64l-20 3l9 64c7 57 10 129 10 195
c0 30 -3 60 -8 86c0 3 4 12 13 12z" />
    <glyph glyph-name="numbersign" unicode="#" horiz-adv-x="880" 
d="M307 910l-34 -380h300l34 380h-300zM251 270h-20l21 240h-159l1 20h159l34 380h-160l2 20h159l21 240h20l-21 -240h300l21 240h20l-21 -240h159l-1 -20h-159l-34 -380h160l-2 -20h-159l-21 -240h-20l21 240h-300z" />
    <glyph glyph-name="dollar" unicode="$" horiz-adv-x="1040" 
d="M525 1365c249 0 415 -111 415 -278c0 -118 -61 -196 -153 -196c-68 0 -114 46 -114 114c0 62 83 94 83 175c0 99 -92 165 -231 165v-552c210 -93 435 -201 435 -409c0 -179 -183 -309 -435 -309v-115h-25v115c-130 3 -220 30 -322 117c-26 24 -49 46 -63 46
c-13 0 -19 -17 -21 -64l-4 -94h-15l12 330h15v-11c0 -79 36 -146 93 -193c97 -79 179 -108 305 -111v676c-185 82 -360 158 -360 290c0 176 149 304 355 304h5v115h25v-115zM525 760v-665c238 0 410 121 410 289c0 187 -207 286 -410 376zM500 804v541h-5
c-191 0 -330 -119 -330 -284c0 -111 159 -180 335 -257z" />
    <glyph glyph-name="percent" unicode="%" horiz-adv-x="1440" 
d="M57 102l654 624c130 124 397 394 397 692c0 63 -29 96 -29 146c0 72 54 126 116 126c86 0 144 -90 144 -193c0 -230 -312 -500 -641 -813l-626 -597zM1080 580c162 0 280 -122 280 -290s-118 -290 -280 -290s-280 122 -280 290s118 290 280 290zM1080 560
c-148 0 -255 -113 -255 -270s107 -270 255 -270s255 113 255 270s-107 270 -255 270zM360 1440c162 0 280 -122 280 -290s-118 -290 -280 -290s-280 122 -280 290s118 290 280 290zM360 1420c-148 0 -255 -113 -255 -270s107 -270 255 -270s255 113 255 270
s-107 270 -255 270z" />
    <glyph glyph-name="ampersand" unicode="&#x26;" horiz-adv-x="1500" 
d="M1035 123l-37 44l-412 522c-31 40 -135 61 -186 61c-181 0 -305 -152 -305 -362c0 -216 206 -373 490 -373c181 0 336 40 450 108zM658 1360c-154 0 -266 -115 -266 -275c0 -75 27 -153 81 -221l541 -684c10 -13 23 -29 38 -46c121 78 191 190 191 317
c0 103 -41 203 -90 271c-39 54 -72 88 -116 88c-25 -2 -50 -6 -74 -19c-30 -16 -50 -43 -50 -81c0 -12 3 -26 7 -40c1 -1 1 -3 1 -4c0 -6 -6 -9 -10 -9c-3 0 -8 1 -10 7c-5 17 -8 32 -8 47c0 44 22 80 59 99c37 20 74 25 110 25c35 0 70 -5 104 -5c32 0 64 4 96 21
c28 15 50 42 50 81c0 12 -3 25 -7 40c0 1 -1 2 -1 4c0 4 3 10 10 10c6 0 9 -6 10 -8c5 -17 8 -33 8 -48c0 -46 -24 -80 -59 -98c-39 -20 -77 -26 -113 -26c-13 0 -21 -4 -21 -12c0 -15 22 -41 45 -76c48 -71 84 -169 84 -267c0 -136 -76 -251 -201 -332
c134 -152 298 -314 551 -314c81 0 113 43 175 43c68 0 124 -51 124 -114c0 -84 -92 -153 -206 -153c-317 0 -416 215 -664 525c-119 -70 -279 -111 -462 -111c-299 0 -515 165 -515 393c0 218 136 382 330 382c19 0 46 -2 74 -8c37 -7 37 23 25 38l-41 52
c-56 71 -89 153 -89 233c0 171 121 295 289 295c214 0 356 -89 356 -222c0 -106 -61 -176 -153 -176c-50 0 -84 30 -84 74c0 62 73 84 73 165c0 77 -86 139 -192 139z" />
    <glyph glyph-name="quotesingle" unicode="'" horiz-adv-x="240" 
d="M120 1525c7 0 12 -6 12 -8c5 -27 8 -58 8 -90c0 -68 -9 -139 -16 -198l-8 -64l-20 3l9 64c7 57 10 129 10 195c0 30 -3 60 -8 86c0 3 4 12 13 12z" />
    <glyph glyph-name="parenleft" unicode="(" horiz-adv-x="640" 
d="M105 560c0 -471 203 -838 445 -983l-10 -17c-250 150 -460 524 -460 1000c0 870 291 1450 726 1450c84 0 193 -56 193 -155c0 -61 -66 -117 -132 -117c-60 0 -118 35 -190 35c-372 0 -572 -464 -572 -1213z" />
    <glyph glyph-name="parenright" unicode=")" horiz-adv-x="640" 
d="M535 560c0 471 -203 838 -445 983l10 17c250 -150 460 -524 460 -1000c0 -870 -291 -1450 -726 -1450c-84 0 -193 56 -193 155c0 61 66 117 132 117c60 0 118 -35 190 -35c372 0 572 424 572 1213z" />
    <glyph glyph-name="asterisk" unicode="*" horiz-adv-x="720" 
d="M337 1143c0 2 -4 4 -4 6l-69 22c-120 37 -119 26 -166 34c-4 7 -9 16 -4 33s15 18 22 22c43 -21 35 -28 154 -68l69 -24c2 2 5 0 7 2c2 1 2 5 4 6l-1 73c-2 126 -12 121 -18 168c6 6 10 14 28 14s24 -8 30 -14c-6 -47 -16 -42 -18 -168l-1 -73c2 -1 3 -5 5 -6
c2 -2 5 0 7 -2l69 24c119 40 111 47 154 68c7 -4 17 -5 22 -22s0 -26 -4 -33c-47 -8 -46 3 -166 -34l-69 -22c0 -2 -4 -4 -4 -6c-1 -2 0 -6 -1 -8l44 -59c75 -101 79 -91 112 -126c-1 -8 0 -18 -14 -28s-25 -8 -33 -6c-22 42 -11 44 -83 147l-42 60c-2 0 -6 2 -8 2
c-3 0 -3 -2 -6 -2l-42 -60c-73 -102 -63 -103 -86 -145c-8 -1 -16 -6 -30 5s-15 21 -16 29c33 34 38 24 114 124l44 58c-1 2 1 7 0 9z" />
    <glyph glyph-name="plus" unicode="+" horiz-adv-x="1040" 
d="M960 770l-1 -20h-429v-430h-20v430h-430v20h430v430h20v-430h430z" />
    <glyph glyph-name="comma" unicode="," horiz-adv-x="320" 
d="M120 35c0 21 18 40 40 40c21 0 40 -18 40 -40c0 -89 -28 -143 -93 -214l-15 13c55 60 83 110 83 164h-1c-4 -2 -9 -3 -14 -3c-21 0 -40 18 -40 40z" />
    <glyph glyph-name="hyphen" unicode="-" horiz-adv-x="720" 
d="M642 770l-4 -20h-560l4 20h560z" />
    <glyph glyph-name="period" unicode="." horiz-adv-x="320" 
d="M120 35c0 21 18 40 40 40c21 0 40 -18 40 -40c0 -21 -18 -40 -40 -40c-21 0 -40 18 -40 40z" />
    <glyph glyph-name="slash" unicode="/" horiz-adv-x="1200" 
d="M1137 1531l-1053 -1644l-21 13l1053 1644z" />
    <glyph glyph-name="zero" unicode="0" horiz-adv-x="1080" 
d="M540 1425c278 0 480 -300 480 -715s-203 -715 -480 -715c-220 0 -367 153 -367 382c0 118 61 196 153 196c68 0 114 -46 114 -114c0 -62 -83 -94 -83 -175c0 -161 73 -269 183 -269c263 0 455 292 455 695s-191 695 -455 695s-455 -292 -455 -695c0 -130 20 -248 56 -349
l-2 -61c-51 114 -79 254 -79 410c0 415 202 715 480 715z" />
    <glyph glyph-name="one" unicode="1" horiz-adv-x="580" 
d="M300 1440c15 0 25 -11 25 -25v-1345c0 -29 13 -55 150 -55h55v-15h-480v15h100c137 0 150 26 150 55v1242c0 45 -19 58 -39 58c-42 0 -76 -30 -76 -66c0 -24 62 -33 62 -98c0 -56 -45 -101 -100 -101c-70 0 -117 45 -117 112c0 73 117 129 184 158c66 29 79 48 86 65z
" />
    <glyph glyph-name="two" unicode="2" horiz-adv-x="1000" 
d="M500 1405c-148 0 -247 -72 -247 -179c0 -81 83 -113 83 -175c0 -68 -46 -114 -114 -114c-92 0 -153 78 -153 196c0 175 172 292 431 292c223 0 385 -147 385 -350c0 -131 -46 -271 -263 -502l-334 -356c-69 -74 -129 -130 -171 -163c-14 -11 -22 -18 -22 -23
c0 -4 7 -6 24 -6h716c49 0 85 37 85 88v172h20v-275c0 -4 -3 -10 -10 -10h-880c-4 0 -10 3 -10 10v12c0 4 3 9 9 10c16 2 107 76 223 199l334 356c216 230 254 364 254 488c0 191 -152 330 -360 330z" />
    <glyph glyph-name="three" unicode="3" horiz-adv-x="1080" 
d="M520 1425c237 0 410 -128 410 -305c0 -130 -102 -245 -300 -296v-4c240 -35 400 -160 400 -395c0 -249 -223 -430 -530 -430c-282 0 -390 148 -438 225c-1 2 -2 4 -2 5v95h20v-22c0 -30 20 -104 47 -135c61 -70 170 -148 373 -148c293 0 505 172 505 410
c0 223 -144 341 -378 375h-17c-15 0 -22 5 -22 10v24c0 5 7 10 22 10h17c193 50 278 159 278 276c0 165 -163 285 -385 285c-148 0 -247 -72 -247 -179c0 -81 83 -113 83 -175c0 -68 -46 -114 -114 -114c-92 0 -153 78 -153 196c0 175 172 292 431 292z" />
    <glyph glyph-name="four" unicode="4" horiz-adv-x="1140" 
d="M609 1304c-4 -228 -86 -421 -203 -594c-88 -129 -196 -251 -305 -376c-15 -17 -19 -34 8 -34h715c27 0 36 12 36 34v691c0 14 10 25 25 25v-716c0 -22 9 -34 36 -34h129v-25h-129c-27 0 -36 -13 -36 -35v-170c0 -29 13 -55 150 -55h45v-15h-470v15h100
c137 0 150 26 150 55v170c0 22 -9 35 -36 35h-774v30c108 126 240 270 334 408c118 173 203 365 203 592c0 95 -72 157 -179 157c-81 0 -113 -83 -175 -83c-68 0 -114 46 -114 114c0 92 78 153 196 153c175 0 294 -134 294 -342z" />
    <glyph glyph-name="five" unicode="5" horiz-adv-x="1100" 
d="M143 1420h789c6 0 10 -5 10 -9l18 -230l-17 -2l-10 107c-6 73 -47 109 -116 109h-654c0 -13 0 -22 -2 -52l-31 -431c-3 -39 18 -38 37 -25c102 68 237 113 353 113c345 0 520 -250 520 -500c0 -255 -182 -505 -549 -505c-265 0 -441 117 -441 292c0 118 61 196 153 196
c68 0 114 -46 114 -114c0 -62 -83 -94 -83 -175c0 -107 103 -179 257 -179c356 0 529 240 529 485c0 241 -167 480 -500 480c-127 0 -279 -57 -381 -138l-35 -2l37 505c1 15 2 47 2 65v10z" />
    <glyph glyph-name="six" unicode="6" horiz-adv-x="1060" 
d="M510 -5c-270 0 -450 277 -450 693c1 473 205 737 500 737c90 0 182 -17 264 -51c3 -1 6 -4 6 -9v-95h-20v22c0 27 -24 76 -66 88c-60 17 -122 25 -184 25c-280 0 -475 -249 -475 -717c0 -404 170 -673 425 -673c272 0 465 208 465 495c0 290 -182 500 -435 500
c-122 0 -203 -84 -203 -209c0 -81 78 -93 78 -163c0 -53 -43 -91 -99 -91c-92 0 -153 68 -153 171c0 187 151 312 377 312c268 0 460 -218 460 -520c0 -299 -205 -515 -490 -515z" />
    <glyph glyph-name="seven" unicode="7" horiz-adv-x="1060" 
d="M70 1420h975v-10l-146 -220c-94 -141 -192 -273 -268 -440c-61 -133 -145 -293 -145 -452c0 -55 6 -119 22 -181c39 -151 191 -151 191 -287c0 -69 -46 -115 -115 -115c-137 0 -229 129 -229 324c0 161 141 475 256 721c79 169 179 302 272 442l105 158
c16 24 11 35 -18 35h-769c-69 0 -113 -36 -117 -111l-4 -84h-20z" />
    <glyph glyph-name="eight" unicode="8" horiz-adv-x="1120" 
d="M160 151c-64 71 -100 162 -100 267c0 246 203 355 429 402c-166 41 -289 149 -289 311c0 174 157 294 360 294c209 0 360 -124 360 -294c0 -173 -140 -268 -311 -308c231 -48 451 -166 451 -428c0 -231 -199 -400 -500 -400c-226 0 -376 109 -377 272
c0 106 53 176 133 176c65 0 108 -46 108 -114c0 -54 -57 -91 -57 -155c1 -95 77 -159 193 -159c294 0 475 162 475 380c0 266 -241 375 -494 415c-244 -41 -461 -144 -461 -392c0 -91 28 -172 80 -237v-30zM900 1131c0 156 -138 274 -340 274c-196 0 -334 -115 -335 -274
c0 -161 132 -267 321 -297l10 -1c190 32 344 124 344 298z" />
    <glyph glyph-name="nine" unicode="9" horiz-adv-x="1060" 
d="M550 1425c270 0 450 -277 450 -693c-1 -473 -205 -737 -500 -737c-90 0 -182 17 -264 51c-3 1 -6 4 -6 9v95h20v-22c0 -27 24 -76 66 -88c60 -17 122 -25 184 -25c280 0 475 249 475 717c0 404 -170 673 -425 673c-272 0 -465 -208 -465 -495c0 -290 182 -500 435 -500
c122 0 203 84 203 209c0 81 -78 93 -78 163c0 53 43 91 99 91c92 0 153 -68 153 -171c0 -187 -151 -312 -377 -312c-268 0 -460 218 -460 520c0 299 205 515 490 515z" />
    <glyph glyph-name="colon" unicode=":" horiz-adv-x="320" 
d="M120 965c0 21 18 40 40 40c21 0 40 -18 40 -40c0 -21 -18 -40 -40 -40c-21 0 -40 18 -40 40zM120 35c0 21 18 40 40 40c21 0 40 -18 40 -40c0 -21 -18 -40 -40 -40c-21 0 -40 18 -40 40z" />
    <glyph glyph-name="semicolon" unicode=";" horiz-adv-x="400" 
d="M120 965c0 21 18 40 40 40c21 0 40 -18 40 -40c0 -21 -18 -40 -40 -40c-21 0 -40 18 -40 40zM120 35c0 21 18 40 40 40c21 0 40 -18 40 -40c0 -89 -28 -143 -93 -214l-15 13c55 60 83 110 83 164h-1c-4 -2 -9 -3 -14 -3c-21 0 -40 18 -40 40z" />
    <glyph glyph-name="less" unicode="&#x3c;" horiz-adv-x="720" 
d="M618 342l-11 -17l-547 388v14l547 373l12 -16l-529 -360v-7z" />
    <glyph glyph-name="equal" unicode="=" horiz-adv-x="1040" 
d="M80 510v20h880v-20h-880zM80 910v20h880v-20h-880z" />
    <glyph glyph-name="greater" unicode="&#x3e;" horiz-adv-x="720" 
d="M102 342l528 375v7l-529 360l12 16l547 -373v-14l-547 -388z" />
    <glyph glyph-name="question" unicode="?" horiz-adv-x="960" 
d="M476 1524c234 0 404 -136 404 -324c0 -215 -110 -335 -311 -453c-87 -51 -155 -84 -155 -157c0 -17 6 -85 11 -129l-20 -2l-16 118c0 5 -1 9 -1 13c0 87 85 131 168 180c199 116 299 224 299 430c0 176 -159 304 -379 304c-148 0 -247 -72 -247 -179
c0 -81 83 -113 83 -175c0 -68 -46 -114 -114 -114c-92 0 -153 78 -153 196c0 175 172 292 431 292zM380 35c0 21 18 40 40 40c21 0 40 -18 40 -40c0 -21 -18 -40 -40 -40c-21 0 -40 18 -40 40z" />
    <glyph glyph-name="at" unicode="@" horiz-adv-x="1800" 
d="M1385 71l-5 -22c-32 -9 -65 -14 -100 -14c-102 0 -175 70 -175 166c0 22 6 53 12 83c2 10 3 16 3 20c0 3 -1 5 -2 5c-3 0 -9 -8 -17 -20c-88 -137 -200 -254 -337 -254c-217 0 -312 150 -312 380c0 347 274 565 600 565h227l-133 -680c-7 -36 -16 -76 -16 -99
c0 -85 63 -146 150 -146c37 0 72 5 105 16zM1642 285l-17 12c48 97 75 219 75 357c0 374 -291 642 -690 642c-530 0 -910 -370 -910 -878c0 -395 315 -678 718 -678c378 0 629 174 629 435c0 61 40 101 99 101c53 0 89 -38 89 -95c0 -276 -327 -461 -817 -461
c-413 0 -738 291 -738 698c0 519 390 898 930 898c409 0 710 -276 710 -662c0 -142 -28 -268 -78 -369zM1136 380l105 533c1 4 1 8 1 12c0 21 -14 35 -47 35h-143c-314 0 -575 -208 -575 -545c0 -221 81 -360 287 -360c126 0 235 109 321 244z" />
    <glyph glyph-name="A" unicode="A" horiz-adv-x="1330" 
d="M1132 241l-86 239h-726l-143 -397c-3 -10 -5 -18 -5 -25c0 -36 44 -43 147 -43h41v-15h-340v15h5c86 0 115 20 134 74l510 1424c2 5 6 7 9 7h27c7 0 10 -6 10 -10c0 -20 5 -49 25 -104l428 -1194c64 -180 140 -467 451 -467c81 0 113 43 175 43c68 0 124 -51 124 -114
c0 -84 -92 -153 -206 -153c-323 0 -428 297 -580 720zM327 500h712l-322 900c-18 50 -20 62 -21 67h-23z" />
    <glyph glyph-name="B" unicode="B" horiz-adv-x="1340" 
d="M50 1520h550c350 0 520 -146 520 -336c0 -163 -94 -299 -294 -327h-4v-4h4c387 -42 454 -255 454 -413c0 -258 -222 -440 -520 -440h-710v15h40c137 0 150 26 150 55v1379c0 31 -18 56 -150 56h-40v15zM266 1500l-1 -1480h495c290 0 495 176 495 420
c0 151 -54 350 -431 393c-46 5 -93 12 -117 12c-125 0 -208 -64 -208 -159c0 -81 83 -113 83 -175c0 -68 -46 -114 -114 -114c-92 0 -153 78 -153 196c0 163 158 272 396 272c21 0 69 7 113 12c189 27 271 152 271 307c0 175 -149 316 -495 316h-334z" />
    <glyph glyph-name="C" unicode="C" horiz-adv-x="1140" 
d="M675 1525c244 0 406 -117 406 -292c0 -118 -61 -196 -153 -196c-68 0 -114 46 -114 114c0 62 83 94 83 175c0 107 -89 179 -222 179c-353 0 -590 -297 -590 -743c0 -438 222 -747 590 -747c177 0 309 77 397 164l14 -14c-91 -89 -228 -170 -411 -170
c-382 0 -610 323 -610 767c0 458 245 763 610 763z" />
    <glyph glyph-name="D" unicode="D" horiz-adv-x="1420" 
d="M50 1520h575c423 0 730 -319 730 -760s-307 -760 -730 -760h-575v15l216 5h354c412 0 710 311 710 740s-298 740 -710 740h-355v-1078c0 -95 67 -158 174 -158c81 0 113 83 175 83c68 0 114 -46 114 -114c0 -92 -78 -153 -196 -153c-175 0 -292 138 -292 346v1023
c0 29 -13 56 -150 56h-40v15z" />
    <glyph glyph-name="E" unicode="E" horiz-adv-x="1290" 
d="M50 1520h1070c7 0 10 -6 10 -9l25 -380l-20 -2l-16 254c-6 88 -39 117 -127 117h-726l-1 -810h205c114 0 190 64 190 159c0 81 -83 113 -83 175c0 68 46 114 114 114c92 0 153 -78 153 -196c0 -163 -150 -272 -374 -272h-205v-650h807c91 0 121 32 127 117l16 254l20 -2
l-25 -380c0 -7 -7 -9 -10 -9h-1150v15h40c137 0 150 27 150 56v1384c0 31 -18 50 -150 50h-40v15z" />
    <glyph glyph-name="F" unicode="F" horiz-adv-x="1245" 
d="M265 71c0 -29 13 -56 150 -56h40v-15h-405v15h40c137 0 150 27 150 56v1383c0 31 -18 51 -150 51h-40v15h1115c7 0 10 -6 10 -9l25 -380l-20 -2l-18 254c-6 88 -37 117 -125 117h-771l-1 -580h205c224 0 374 -109 374 -272c0 -118 -61 -196 -153 -196
c-68 0 -114 46 -114 114c0 62 83 94 83 175c0 95 -76 159 -190 159h-205v-829z" />
    <glyph glyph-name="G" unicode="G" horiz-adv-x="1315" 
d="M675 1525c260 0 434 -117 434 -292c0 -118 -61 -196 -153 -196c-68 0 -114 46 -114 114c0 62 83 94 83 175c0 107 -100 179 -250 179c-350 0 -585 -297 -585 -743c0 -433 229 -747 545 -747c138 0 277 85 377 165c33 27 74 65 93 87v392c0 31 -18 51 -150 51h-200v20h530
v-20h-21c-123 0 -139 -22 -139 -51v-664c0 -3 -3 -10 -10 -10c-4 0 -10 3 -10 10v148c0 33 -2 55 -19 55c-12 0 -30 -10 -61 -33c-103 -82 -247 -170 -390 -170c-331 0 -570 322 -570 767c0 458 245 763 610 763z" />
    <glyph glyph-name="H" unicode="H" horiz-adv-x="1460" 
d="M50 1520h440v-15h-75c-137 0 -150 -23 -150 -52v-633h930v420c0 455 185 759 545 759c114 0 206 -69 206 -153c0 -63 -56 -114 -124 -114c-62 0 -94 43 -175 43c-292 0 -427 -262 -427 -592v-1111c0 -29 13 -57 150 -57h40v-15h-440v15h75c137 0 150 28 150 57v728h-930
v-728c0 -29 13 -57 150 -57h75v-15h-440v15h40c137 0 150 28 150 57v1381c0 29 -13 52 -150 52h-40v15z" />
    <glyph glyph-name="I" unicode="I" horiz-adv-x="500" 
d="M450 0h-400v15h40c137 0 150 26 150 55v1383c0 31 -18 52 -150 52h-40v15h400v-15h-35c-132 0 -150 -21 -150 -52v-1383c0 -29 13 -55 150 -55h35v-15z" />
    <glyph glyph-name="J" unicode="J" horiz-adv-x="540" 
d="M50 1520h460v-15h-35c-132 0 -150 -19 -150 -50v-1425c0 -296 -162 -510 -384 -510c-114 0 -206 69 -206 153c0 63 56 114 124 114c62 0 94 -43 175 -43c176 0 266 114 266 286v1425c0 31 -18 50 -150 50h-100v15z" />
    <glyph glyph-name="K" unicode="K" horiz-adv-x="1223" 
d="M50 1520h420v-15h-55c-132 0 -150 -22 -150 -53v-652h167c22 0 54 20 68 37l477 603c15 19 23 32 23 42c0 16 -22 23 -72 23h-110v15h382v-15h-15c-48 0 -133 -3 -192 -77l-504 -638c203 -258 272 -398 540 -723c144 -175 283 -322 575 -322c81 0 113 43 175 43
c68 0 124 -51 124 -114c0 -84 -92 -153 -206 -153c-277 0 -404 179 -683 528c-249 308 -324 446 -520 695c-12 15 -40 36 -62 36h-167v-710c0 -29 13 -55 150 -55h55v-15h-420v15h40c137 0 150 26 150 55v1382c0 31 -18 53 -150 53h-40v15z" />
    <glyph glyph-name="L" unicode="L" horiz-adv-x="1290" 
d="M50 1520h400v-15h-35c-132 0 -150 -22 -150 -53v-1432h824c67 0 112 36 112 89c0 94 -39 156 -97 156c-61 0 -103 -50 -152 -50c-63 0 -106 43 -106 108c0 87 67 145 167 145c130 0 217 -127 217 -317c0 -44 -5 -96 -8 -142c0 -4 -4 -9 -10 -9h-1162v15h40
c137 0 150 27 150 56v1381c0 31 -18 53 -150 53h-40v15z" />
    <glyph glyph-name="M" unicode="M" horiz-adv-x="1860" 
d="M130 1520h189c3 0 7 -2 9 -6l599 -1270c7 -15 13 -22 19 -22s13 7 20 22l590 1270c2 4 6 6 9 6h185v-15c-120 0 -163 -11 -163 -92c0 -7 1 -23 1 -23l83 -1053c26 -329 135 -592 427 -592c81 0 113 43 175 43c68 0 124 -51 124 -114c0 -84 -92 -153 -206 -153
c-361 0 -506 307 -541 759l-92 1190l-590 -1269c-7 -16 -10 -56 -10 -56h-28s-2 42 -9 56l-603 1278l-108 -1400v-10c0 -29 13 -53 129 -53h112v-16h-421v16h22c127 0 136 34 138 65l101 1310s1 16 1 23c0 81 -43 91 -162 91v15z" />
    <glyph glyph-name="N" unicode="N" horiz-adv-x="1430" 
d="M50 1520h229c4 0 7 -3 8 -5l890 -1427c7 -12 15 -18 21 -18c7 0 12 9 12 26v1144c0 454 180 759 541 759c114 0 206 -69 206 -153c0 -63 -56 -114 -124 -114c-62 0 -94 43 -175 43c-292 0 -427 -262 -427 -592l-1 -1183h-21c-3 0 -7 1 -9 5l-933 1495h-9
c9 -36 12 -55 12 -111v-1319c0 -29 13 -55 150 -55h35v-15h-395v15h40c137 0 150 26 150 55v1320c0 106 -68 115 -188 115h-12v15z" />
    <glyph glyph-name="O" unicode="O" horiz-adv-x="1410" 
d="M705 1525c370 0 640 -321 640 -765s-269 -765 -640 -765s-640 321 -640 765c0 218 65 407 175 542v-38c-95 -130 -150 -304 -150 -504c0 -432 258 -745 615 -745s615 313 615 745s-259 745 -615 745c-146 0 -243 -72 -243 -179c0 -81 83 -113 83 -175
c0 -68 -46 -114 -114 -114c-92 0 -153 78 -153 196c0 175 171 292 427 292z" />
    <glyph glyph-name="P" unicode="P" horiz-adv-x="1295" 
d="M50 1520h610c424 0 570 -319 570 -520c0 -205 -149 -520 -569 -520c-208 0 -346 117 -346 292c0 118 61 196 153 196c68 0 114 -46 114 -114c0 -62 -83 -94 -83 -175c0 -107 63 -179 158 -179c408 0 548 303 548 500c0 193 -136 500 -548 500h-391l-1 -1430
c0 -29 13 -55 150 -55h35v-15h-400v15h40c137 0 150 26 150 55v1385c0 31 -18 50 -150 50h-40v15z" />
    <glyph glyph-name="Q" unicode="Q" horiz-adv-x="1410" 
d="M726 -5c31 -193 150 -270 298 -270c125 0 122 63 223 63c68 0 124 -51 124 -114c0 -84 -92 -153 -206 -153c-208 0 -326 122 -424 322c-20 44 -30 98 -39 152c-369 2 -637 322 -637 765s269 763 640 763s640 -320 640 -763c0 -435 -260 -753 -619 -765zM508 257
c-79 0 -143 -45 -143 -101c0 -13 4 -28 17 -41c91 -63 198 -98 317 -100c-21 123 -45 242 -191 242zM352 138c-1 6 -2 12 -2 18c0 67 71 121 158 121c168 0 193 -132 215 -262c348 10 597 320 597 745c0 431 -258 743 -615 743s-615 -312 -615 -743c0 -272 99 -489 262 -622
z" />
    <glyph glyph-name="R" unicode="R" horiz-adv-x="1259" 
d="M50 1520h585c331 0 570 -185 570 -440c0 -240 -211 -418 -511 -438c157 -40 205 -93 294 -336c78 -209 198 -561 490 -561c81 0 113 43 175 43c68 0 124 -51 124 -114c0 -84 -92 -153 -206 -153c-341 0 -448 352 -602 779c-87 241 -169 340 -444 340h-260v-570
c0 -29 13 -55 150 -55h35v-15h-400v15h40c137 0 150 26 150 55v1385c0 31 -18 50 -150 50h-40v15zM265 660h260h107c319 0 548 176 548 420s-229 420 -548 420h-366z" />
    <glyph glyph-name="S" unicode="S" horiz-adv-x="1146" 
d="M556 1525c262 0 436 -117 436 -292c0 -118 -61 -196 -153 -196c-68 0 -114 46 -114 114c0 62 83 94 83 175c0 107 -101 179 -252 179c-224 -2 -382 -116 -382 -274c0 -243 269 -325 435 -422c178 -104 477 -205 477 -495c0 -185 -206 -319 -490 -319
c-154 0 -325 47 -427 146c-24 26 -44 47 -58 47c-13 0 -20 -17 -21 -64l-5 -144h-15l13 380h15v-11c0 -221 262 -332 498 -332c273 0 465 124 465 297c0 275 -280 367 -462 473c-159 93 -450 184 -450 444c0 174 178 294 407 294z" />
    <glyph glyph-name="T" unicode="T" horiz-adv-x="1310" 
d="M63 1520h1171c3 0 10 -2 10 -9l21 -320l-16 -2l-12 186c-7 95 -36 125 -137 125h-430v-1430c0 -29 13 -55 150 -55h35v-15h-400v15h40c137 0 150 26 150 55v1430h-459c-67 0 -112 -36 -112 -89c0 -94 47 -156 117 -156c61 0 103 50 152 50c63 0 106 -43 106 -108
c0 -87 -67 -145 -167 -145c-142 0 -237 127 -237 317c0 44 5 96 8 142c0 4 4 9 10 9z" />
    <glyph glyph-name="U" unicode="U" horiz-adv-x="1377" 
d="M1180 1240c0 454 180 759 541 759c114 0 206 -69 206 -153c0 -63 -56 -114 -124 -114c-62 0 -94 43 -175 43c-292 0 -427 -262 -427 -592l-1 -698c0 -286 -213 -490 -500 -490c-280 0 -480 208 -480 490v965c0 29 -13 55 -150 55h-40v15h440v-15h-75
c-137 0 -150 -26 -150 -55v-965c0 -271 186 -470 455 -470c277 0 480 195 480 470v755z" />
    <glyph glyph-name="V" unicode="V" horiz-adv-x="1310" 
d="M10 1520h518v-15h-201c-108 0 -147 -2 -147 -36c0 -9 2 -19 7 -32l490 -1412l435 1254c147 425 257 720 580 720c114 0 206 -69 206 -153c0 -63 -56 -114 -124 -114c-62 0 -94 43 -175 43c-311 0 -393 -287 -456 -467l-459 -1322h-19l-502 1445c-19 55 -67 74 -150 74h-3
v15z" />
    <glyph glyph-name="W" unicode="W" horiz-adv-x="2120" 
d="M10 1520h399v-15h-71h-23c-95 0 -135 -1 -135 -35c0 -8 2 -17 6 -28l463 -1361c7 -22 15 -32 22 -32s14 10 21 31l358 1054l-5 14c-40 110 -51 211 -51 299c0 235 137 392 341 392c114 0 206 -69 206 -153c0 -63 -56 -114 -124 -114c-62 0 -94 43 -175 43
c-124 0 -207 -102 -207 -254c0 -84 21 -173 45 -242l353 -1038c7 -22 15 -32 22 -32s14 10 21 31l463 1362c4 11 6 20 6 27c0 34 -41 36 -137 36h-52v15h354v-15c-83 0 -134 -14 -153 -69l-489 -1439h-32l-376 1106l-376 -1106h-32l-489 1439c-19 55 -70 69 -153 69v15z" />
    <glyph glyph-name="X" unicode="X" horiz-adv-x="1320" 
d="M1011 1347l-316 -504c-7 -11 -10 -25 -10 -39c0 -12 3 -23 9 -32l431 -687c30 -47 79 -62 120 -67c15 -2 29 -3 40 -3h15s1 -15 0 -15h-413v15h96c104 0 134 14 134 29c0 5 -3 15 -13 31l-432 687c-3 5 -8 11 -14 11s-12 -8 -15 -13l-432 -685c-10 -16 -13 -26 -13 -31
c0 -15 30 -29 134 -29h101v-15h-413c-1 0 0 15 0 15h15c11 0 25 1 40 3c41 5 90 20 120 67l429 684c6 9 9 20 9 32c0 14 -4 29 -11 40l-375 596c-42 67 -157 68 -157 68h-30v15h410v-15h-73c-87 0 -134 -14 -134 -38c0 -5 2 -12 7 -20l375 -598c3 -5 9 -12 15 -12
s12 6 15 11l341 544c238 380 368 607 676 607c114 0 206 -69 206 -153c0 -63 -56 -114 -124 -114c-62 0 -94 43 -175 43c-339 0 -465 -231 -588 -428z" />
    <glyph glyph-name="Y" unicode="Y" horiz-adv-x="1301" 
d="M1108 1392c183 335 358 607 677 607c114 0 206 -69 206 -153c0 -63 -56 -114 -124 -114c-62 0 -94 43 -175 43c-350 0 -488 -249 -586 -428l-436 -797v-480c0 -29 13 -55 150 -55h35v-15h-400v15h40c137 0 150 26 150 55v472l-4 8l-480 877c-41 76 -90 78 -124 78h-27v15
h404v-15h-142c-63 0 -99 -5 -99 -33c0 -9 4 -21 11 -35l474 -867z" />
    <glyph glyph-name="Z" unicode="Z" horiz-adv-x="1220" 
d="M121 1520h1030v-20c-39 0 -104 -37 -163 -132l-766 -1228c-36 -58 -78 -95 -114 -120h919c69 0 111 38 117 111l11 140l15 -2l-20 -260c0 -6 -6 -9 -10 -9h-1090v20c42 0 99 40 156 132l766 1228c20 31 42 56 63 76c9 8 13 16 13 23c0 12 -11 21 -29 21h-784
c-67 0 -112 -36 -112 -89c0 -94 63 -156 157 -156c61 0 103 50 152 50c63 0 106 -43 106 -108c0 -87 -67 -145 -167 -145c-166 0 -277 127 -277 317c0 44 9 97 17 142c0 4 4 9 10 9z" />
    <glyph glyph-name="bracketleft" unicode="[" horiz-adv-x="360" 
d="M265 1540l-160 2v-1964l160 2h40v-20h-225v2000h225v-20h-40z" />
    <glyph glyph-name="backslash" unicode="\" horiz-adv-x="1200" 
d="M63 1531l21 13l1053 -1644l-21 -13z" />
    <glyph glyph-name="bracketright" unicode="]" horiz-adv-x="360" 
d="M95 1540h-40v20h225v-2000h-225v20h40l160 -2v1964z" />
    <glyph glyph-name="asciicircum" unicode="^" horiz-adv-x="1095" 
d="M542 1528c3 3 4 4 8 4s5 0 8 -4l420 -546l-16 -12l-396 515c-4 6 -11 8 -16 8c-7 0 -13 -4 -16 -8l-412 -516l-15 13z" />
    <glyph glyph-name="underscore" unicode="_" horiz-adv-x="1580" 
d="M1440 -420h-1360v20h1360v-20z" />
    <glyph glyph-name="grave" unicode="`" horiz-adv-x="480" 
d="M403 1240l-14 -14l-293 268c-6 6 -1 14 2 17s11 6 17 0z" />
    <glyph glyph-name="a" unicode="a" 
d="M571 1045c192 0 329 -136 329 -324v-486l16 -95c14 -84 33 -119 61 -120l107 10l2 -20l-109 -15h-1c-49 0 -72 60 -85 141c-5 31 -16 90 -16 98v22c0 18 -3 27 -7 27s-9 -7 -15 -21c-69 -148 -218 -267 -398 -267c-226 0 -390 111 -390 265c0 192 185 259 389 280
c124 13 379 22 416 143c3 11 5 22 5 32v6c-1 175 -123 304 -301 304c-135 0 -225 -48 -225 -119c0 -81 73 -103 73 -165c0 -56 -42 -94 -104 -94c-92 0 -153 70 -153 176c0 133 162 222 406 222zM875 646c-67 -111 -309 -115 -419 -126c-202 -21 -366 -85 -366 -260
c0 -142 153 -245 365 -245c237 0 420 218 420 430v201z" />
    <glyph glyph-name="b" unicode="b" horiz-adv-x="1075" 
d="M170 0v1455c0 37 -28 50 -105 50h-35v15h35l130 3v-1214c54 -175 191 -294 372 -294c242 0 418 212 418 505s-171 505 -408 505c-83 0 -138 -76 -138 -189c0 -81 73 -103 73 -165c0 -56 -42 -94 -104 -94c-92 0 -153 70 -153 176c0 175 129 292 322 292
c251 0 433 -221 433 -525s-186 -525 -443 -525c-149 0 -270 77 -342 198c-6 10 -14 19 -20 19c-5 0 -10 -6 -11 -26l-4 -186h-20z" />
    <glyph glyph-name="c" unicode="c" horiz-adv-x="1010" 
d="M555 1045c244 0 406 -101 406 -252c0 -106 -61 -176 -153 -176c-62 0 -104 38 -104 94c0 62 73 84 73 165c0 107 -92 149 -225 149c-268 0 -462 -211 -462 -507c0 -294 200 -503 485 -503c128 0 264 43 367 130l13 -15c-107 -91 -248 -135 -380 -135
c-296 0 -510 218 -510 523c0 306 208 527 490 527z" />
    <glyph glyph-name="d" unicode="d" horiz-adv-x="1125" 
d="M730 1520h45l130 3v-1274l9 -100c7 -74 35 -135 65 -136l97 18l4 -20l-98 -16h-2c-52 0 -84 78 -91 152l-4 45c-2 17 -5 27 -11 27s-12 -7 -20 -21c-72 -123 -195 -203 -346 -203c-257 0 -443 221 -443 525s183 525 433 525c193 0 322 -117 322 -292
c0 -106 -61 -176 -153 -176c-62 0 -104 38 -104 94c0 62 73 84 73 165c0 113 -55 189 -138 189c-236 0 -408 -212 -408 -505s176 -505 418 -505c181 0 318 121 372 296v1144c0 37 -28 50 -105 50h-45v15z" />
    <glyph glyph-name="e" unicode="e" horiz-adv-x="1090" 
d="M555 1045c286 0 470 -215 470 -505c0 -7 -6 -10 -10 -10h-524c-208 0 -346 89 -346 222c0 106 61 176 153 176c62 0 104 -38 104 -94c0 -62 -73 -84 -73 -165c0 -71 66 -119 165 -119h455c35 0 45 35 45 68c0 11 -1 21 -3 30c-39 223 -198 377 -436 377
c-92 0 -177 -25 -248 -70h-38c79 57 177 90 286 90zM102 732l14 -34c-17 -54 -26 -112 -26 -178c0 -292 187 -505 455 -505c226 0 364 98 439 231l18 -10c-78 -139 -225 -241 -457 -241c-281 0 -480 224 -480 525c0 80 13 148 37 212z" />
    <glyph glyph-name="f" unicode="f" horiz-adv-x="720" 
d="M80 1020h124c17 0 35 4 32 35c-4 40 -8 81 -8 124c0 240 171 341 317 341c159 0 265 -84 265 -211c0 -106 -61 -176 -153 -176c-62 0 -104 38 -104 94c0 62 73 84 73 165c0 65 -32 108 -80 108c-137 0 -294 -91 -294 -322c0 -42 5 -82 9 -121c3 -30 27 -37 40 -37h259
v-20h-259c-27 0 -36 -13 -36 -35v-900c0 -29 13 -50 150 -50h25v-15h-390v15h40c137 0 150 21 150 50v901c0 24 -11 34 -36 34h-124v20z" />
    <glyph glyph-name="g" unicode="g" horiz-adv-x="1120" 
d="M530 1045c109 0 200 -32 264 -88c8 -7 14 -11 20 -11s10 4 14 14c18 51 55 84 107 85c23 0 98 -1 98 -28c0 -13 -8 -23 -20 -23c-26 0 -46 31 -80 31c-50 0 -86 -42 -96 -113c48 -61 73 -140 73 -232c0 -239 -166 -365 -380 -365c-72 0 -136 12 -191 35
c-32 -31 -61 -64 -61 -107c0 -28 4 -44 13 -61c48 -89 220 -80 409 -89c234 0 390 -121 390 -302s-201 -271 -547 -271c-308 0 -513 133 -513 332c0 118 61 196 153 196c68 0 114 -46 114 -114c0 -62 -83 -94 -83 -175c0 -128 132 -214 329 -214c347 0 527 85 527 246
c0 167 -148 278 -371 278c-174 9 -366 -7 -426 104c-10 19 -15 38 -15 70c0 49 32 86 62 116c-120 58 -190 172 -190 321c0 242 177 365 400 365zM530 1025c-216 0 -375 -116 -375 -345c0 -211 140 -345 375 -345c206 0 355 118 355 345c0 208 -131 345 -355 345z" />
    <glyph glyph-name="h" unicode="h" horiz-adv-x="1250" 
d="M50 0v15h40c137 0 150 26 150 55v1385c0 37 -28 50 -105 50h-45v15h45l130 3v-832c0 -17 2 -31 7 -31c4 0 9 7 16 25c79 202 255 360 442 360c214 0 330 -98 330 -280v-689c0 -106 35 -174 69 -174c61 0 81 48 140 48c64 0 106 -37 106 -93c0 -78 -67 -130 -167 -130
c-104 0 -173 107 -173 268v767c0 169 -107 260 -305 260c-232 0 -465 -280 -465 -560v-392c0 -29 13 -55 150 -55h55v-15h-420z" />
    <glyph glyph-name="i" unicode="i" horiz-adv-x="500" 
d="M265 1040v-970c0 -29 13 -55 150 -55h35v-15h-400v15h40c137 0 150 26 150 55v905c0 37 -28 50 -105 50c-91 0 -152 61 -152 152c0 167 103 278 259 278c41 0 75 -34 75 -75s-34 -75 -75 -75c-48 0 -74 41 -128 41c-67 0 -111 -68 -111 -169c0 -82 54 -137 134 -137h128z
" />
    <glyph glyph-name="j" unicode="j" horiz-adv-x="380" 
d="M50 1040h45l130 3v-1023c0 -300 -126 -500 -314 -500c-112 0 -186 61 -186 153c0 62 42 104 104 104s94 -43 175 -43c118 0 196 114 196 286v955c0 37 -28 50 -105 50h-45v15zM137 1380c0 46 38 75 75 75c46 0 75 -38 75 -75c0 -46 -38 -75 -75 -75c-46 0 -75 38 -75 75z
" />
    <glyph glyph-name="k" unicode="k" horiz-adv-x="1050" 
d="M90 1520h45l130 3v-963h167c22 0 54 20 68 37l287 363c17 21 21 33 21 40c0 18 -31 25 -77 25h-103v15h382v-15c-56 0 -148 -2 -207 -77l-314 -398l320 -407c192 -244 338 -398 620 -398c81 0 113 43 175 43c68 0 124 -51 124 -114c0 -84 -92 -153 -206 -153
c-277 0 -458 259 -734 610l-293 373c-11 15 -41 36 -63 36h-167v-470c0 -29 13 -55 150 -55h35v-15h-400v15h40c137 0 150 26 150 55v1385c0 37 -28 50 -105 50h-45v15z" />
    <glyph glyph-name="l" unicode="l" horiz-adv-x="500" 
d="M265 70c0 -29 13 -55 150 -55h35v-15h-400v15h40c137 0 150 26 150 55v1385c0 37 -28 50 -105 50h-45v15h45l130 3v-1453z" />
    <glyph glyph-name="m" unicode="m" horiz-adv-x="1890" 
d="M110 1040h25l130 3v-354c0 -23 2 -29 5 -29s8 12 12 26c67 202 221 359 408 359c188 0 295 -98 295 -280v-76c0 -23 2 -29 5 -29s8 13 12 27c68 201 222 358 408 358c188 0 290 -98 290 -280v-689c0 -106 35 -174 69 -174c61 0 81 48 140 48c64 0 106 -37 106 -93
c0 -78 -67 -130 -167 -130c-104 0 -173 107 -173 268v767c0 169 -89 260 -265 260c-236 0 -425 -270 -425 -560v-392c0 -29 13 -55 150 -55h30v-15h-385v15h30c137 0 150 26 150 55v692c0 169 -94 260 -270 260c-236 0 -425 -270 -425 -560v-392c0 -29 13 -55 150 -55h55
v-15h-420v15h40c137 0 150 26 150 55v905c0 37 -28 50 -105 50h-25v15z" />
    <glyph glyph-name="n" unicode="n" horiz-adv-x="1250" 
d="M110 1040h25l130 3v-352c0 -17 2 -31 7 -31c4 0 9 7 16 25c79 202 255 360 442 360c214 0 330 -98 330 -280v-689c0 -106 35 -174 69 -174c61 0 81 48 140 48c64 0 106 -37 106 -93c0 -78 -67 -130 -167 -130c-104 0 -173 107 -173 268v767c0 169 -103 260 -305 260
c-236 0 -465 -270 -465 -560v-392c0 -29 13 -55 150 -55h55v-15h-420v15h40c137 0 150 26 150 55v905c0 37 -28 50 -105 50h-25v15z" />
    <glyph glyph-name="o" unicode="o" 
d="M555 1045c226 0 376 -109 377 -272c0 -106 -53 -176 -133 -176c-65 0 -108 46 -108 114c0 54 57 91 57 155c-1 95 -77 159 -193 159c-271 0 -465 -212 -465 -505s195 -505 465 -505s465 212 465 505c0 96 -21 184 -59 258l-1 50c54 -85 85 -190 85 -308
c0 -304 -206 -525 -490 -525s-490 221 -490 525s205 525 490 525z" />
    <glyph glyph-name="p" unicode="p" horiz-adv-x="1145" 
d="M110 1040h25l130 3v-146c122 90 253 148 382 148c251 0 433 -221 433 -525s-185 -525 -443 -525c-188 0 -312 125 -312 312c0 106 53 176 133 176c65 0 108 -46 108 -114c0 -54 -57 -91 -57 -155c0 -119 50 -199 128 -199c243 0 418 212 418 505s-171 505 -408 505
c-127 0 -258 -59 -382 -153v-1282c0 -29 13 -55 150 -55h75v-15h-440v15h40c137 0 150 26 150 55v1385c0 37 -28 50 -105 50h-25v15z" />
    <glyph glyph-name="q" unicode="q" horiz-adv-x="1005" 
d="M905 1040v-1455c0 -29 3 -50 140 -50h10v-15h-355v15h30c137 0 150 21 150 50v1287c-124 94 -255 153 -382 153c-237 0 -408 -212 -408 -505s174 -505 416 -505c78 0 130 80 130 199c0 64 -57 101 -57 155c0 68 43 114 108 114c80 0 133 -70 133 -176
c0 -187 -126 -312 -314 -312c-257 0 -441 221 -441 525s182 525 433 525c129 0 260 -58 382 -148l5 143h20z" />
    <glyph glyph-name="r" unicode="r" horiz-adv-x="900" 
d="M110 1040h25l130 3v-330c48 186 180 332 351 332c143 0 238 -77 238 -192c0 -106 -53 -176 -133 -176c-65 0 -108 46 -108 114c0 54 57 91 57 155c0 47 -22 79 -54 79c-201 0 -351 -220 -351 -470v-485c0 -29 13 -55 150 -55h55v-15h-420v15h40c137 0 150 26 150 55v905
c0 37 -28 50 -105 50h-25v15z" />
    <glyph glyph-name="s" unicode="s" horiz-adv-x="1010" 
d="M485 1045c87 0 207 -15 314 -101c20 -16 31 -30 39 -30c11 0 15 15 15 46c0 5 -1 24 -3 80h16l11 -300c0 -4 -3 -7 -8 -7s-8 3 -8 7l-1 8c-10 76 -26 142 -73 180c-100 82 -217 97 -302 97c-191 0 -330 -94 -330 -224c0 -249 795 -165 795 -557
c0 -144 -182 -249 -435 -249c-270 0 -450 105 -450 262c0 106 61 176 153 176c62 0 104 -38 104 -94c0 -62 -73 -84 -73 -165c0 -95 106 -159 266 -159c239 0 410 96 410 229c0 367 -795 275 -795 557c0 142 149 244 355 244z" />
    <glyph glyph-name="t" unicode="t" horiz-adv-x="830" 
d="M504 1000h-218c-27 0 -36 -13 -36 -35v-575c0 -218 110 -375 261 -375c90 0 188 38 241 122l16 -10c-57 -91 -162 -132 -257 -132c-166 0 -286 166 -286 395v575c0 22 -9 35 -36 35h-149v20h90c87 0 100 17 100 123v177h20v-266c0 -22 9 -34 36 -34h218c62 0 80 31 80 60
c0 40 -33 86 -33 129c0 63 48 114 108 114c79 0 131 -53 131 -133c0 -114 -114 -190 -286 -190z" />
    <glyph glyph-name="u" unicode="u" horiz-adv-x="1220" 
d="M50 1040h25l130 3v-765c0 -169 103 -260 305 -260c236 0 465 270 465 560v102c0 166 -74 277 -185 277c-75 0 -125 39 -125 97c0 66 47 111 119 111c129 0 216 -164 216 -409v-507l9 -100c7 -74 35 -133 65 -134l96 16l4 -20l-97 -16h-2c-52 0 -84 78 -91 152l-9 101v101
c0 17 -2 31 -7 31c-4 0 -9 -7 -16 -25c-79 -202 -255 -360 -442 -360c-214 0 -330 98 -330 280v700c0 37 -28 50 -105 50h-25v15z" />
    <glyph glyph-name="v" unicode="v" horiz-adv-x="1200" 
d="M977 896c119 271 181 453 387 453c94 0 156 -49 156 -123c0 -56 -38 -94 -94 -94c-62 0 -84 33 -165 33c-131 0 -201 -131 -264 -275l-390 -893h-27l-401 954c-22 53 -65 74 -148 74h-11v15h398v-15h-76c-107 0 -150 -4 -150 -36c0 -9 3 -19 9 -32l373 -877
c9 -21 16 -31 23 -31s15 10 24 31z" />
    <glyph glyph-name="w" unicode="w" horiz-adv-x="1880" 
d="M1655 890l-375 -893h-27l-301 689c-7 15 -14 23 -21 23s-14 -8 -20 -22l-291 -690h-27l-415 953c-23 53 -65 75 -148 75h-11v15h398v-15h-76c-107 0 -150 -4 -150 -36c0 -9 3 -19 9 -32l385 -877c9 -21 17 -31 24 -31s14 10 23 31l288 681l-83 190c-23 53 -64 74 -147 74
h-10v15h403v-15h-81c-107 0 -151 -4 -151 -36c0 -9 3 -19 9 -32l385 -877c9 -21 17 -31 24 -31s14 10 23 31l345 816c115 272 181 453 387 453c94 0 156 -49 156 -123c0 -56 -38 -94 -94 -94c-62 0 -84 33 -165 33c-131 0 -204 -127 -266 -275z" />
    <glyph glyph-name="x" unicode="x" horiz-adv-x="1160" 
d="M70 1040h410v-15h-101c-87 0 -109 -10 -109 -34c0 -5 5 -18 11 -26l268 -344c4 -5 13 -16 18 -16s15 15 19 20l195 278c170 242 305 446 543 446c94 0 156 -49 156 -123c0 -56 -38 -94 -94 -94c-62 0 -84 33 -165 33c-201 0 -333 -144 -424 -273l-197 -279
c-7 -10 -8 -19 -8 -34c0 -8 8 -24 15 -33l359 -461c41 -53 90 -70 155 -70h19s1 -15 0 -15h-393v15h86c104 0 124 14 124 29c0 5 -1 16 -13 31l-361 461c-4 5 -13 16 -19 16s-14 -11 -15 -13l-299 -429c-15 -21 -23 -37 -23 -52c0 -31 27 -43 100 -43h107v-15h-414v15h40
c84 0 121 31 173 105l299 429c6 9 11 18 11 30c0 14 -11 23 -19 33l-269 345c-49 63 -123 68 -158 68h-27v15z" />
    <glyph glyph-name="y" unicode="y" horiz-adv-x="1160" 
d="M742 1040h398v-15h-11c-70 0 -106 -21 -128 -74l-465 -1106c-87 -204 -217 -324 -425 -324c-114 0 -206 69 -206 153c0 63 56 114 124 114c101 0 98 -63 223 -63c103 0 218 35 263 133l54 117c1 2 1 4 1 7c0 14 -9 41 -15 56l-352 852c-43 104 -59 118 -124 118
c-14 0 -29 -2 -47 -8c-2 -1 -5 -2 -7 -2c-12 0 -19 6 -19 19c0 26 49 28 68 28c88 0 107 -37 153 -149l343 -827c9 -21 12 -29 19 -29s10 9 19 30l375 887c5 13 9 23 9 32c0 32 -43 36 -150 36h-100v15z" />
    <glyph glyph-name="z" unicode="z" horiz-adv-x="1060" 
d="M91 1040h901v-20c-39 0 -93 -45 -163 -132l-607 -748c-43 -53 -78 -95 -114 -120h759c69 0 111 38 117 111l11 140l15 -2l-20 -260c0 -6 -6 -9 -10 -9h-930l1 20c42 0 87 48 155 132l607 748c25 31 48 56 69 77c9 9 14 18 14 25c0 11 -11 18 -28 18h-663
c-67 0 -112 -36 -112 -89c0 -82 55 -136 137 -136c56 0 92 35 132 35c57 0 96 -41 96 -103c0 -75 -63 -125 -157 -125c-142 0 -237 115 -237 287c0 44 9 97 17 142c0 4 4 9 10 9z" />
    <glyph glyph-name="braceleft" unicode="{" horiz-adv-x="560" 
d="M255 1270v-499c0 -156 -107 -205 -165 -210v-2c53 -5 165 -49 165 -210v-499c0 -157 111 -270 265 -270v-20c-168 0 -290 122 -290 290v499c0 158 -108 190 -150 190c-28 0 -40 2 -40 8v26c0 7 14 8 40 8c45 0 150 36 150 190v499c0 444 231 740 576 740
c84 0 193 -56 193 -155c0 -61 -66 -117 -132 -117c-60 0 -118 35 -190 35c-253 0 -422 -201 -422 -503z" />
    <glyph glyph-name="bar" unicode="|" horiz-adv-x="200" 
d="M105 -400h-25v1920h25v-1920z" />
    <glyph glyph-name="braceright" unicode="}" horiz-adv-x="560" 
d="M305 -150v499c0 156 107 205 165 210v2c-53 5 -165 49 -165 210v499c0 157 -111 270 -265 270v20c168 0 290 -122 290 -290v-499c0 -158 108 -190 150 -190c28 0 40 -2 40 -8v-26c0 -7 -14 -8 -40 -8c-45 0 -150 -36 -150 -190v-499c0 -444 -231 -740 -576 -740
c-84 0 -193 56 -193 155c0 61 66 117 132 117c60 0 118 -35 190 -35c253 0 422 201 422 503z" />
    <glyph glyph-name="asciitilde" unicode="~" horiz-adv-x="800" 
d="M692 798c9 -2 8 -10 8 -12c-13 -72 -61 -106 -113 -106c-137 0 -254 128 -374 128c-45 0 -83 -27 -94 -87c-2 -9 -9 -9 -11 -9s-10 3 -8 12c12 68 57 106 113 106c134 0 252 -128 374 -128c42 0 82 24 93 88c0 2 3 10 12 8z" />
    <glyph glyph-name="uni00A0" unicode="&#xa0;" horiz-adv-x="532" 
 />
    <glyph glyph-name="exclamdown" unicode="&#xa1;" horiz-adv-x="400" 
d="M280 -480h-25v69c0 171 5 363 5 971h20v-1040zM310 1005c0 -21 -18 -40 -40 -40c-21 0 -40 18 -40 40c0 21 18 40 40 40c21 0 40 -18 40 -40z" />
    <glyph glyph-name="cent" unicode="&#xa2;" horiz-adv-x="1000" 
d="M520 1240h25v-115c237 0 395 -101 395 -252c0 -106 -61 -176 -153 -176c-62 0 -104 38 -104 94c0 62 73 84 73 165c0 89 -84 149 -211 149v-1012h15c128 0 264 43 367 130l13 -15c-107 -91 -248 -135 -380 -135h-15v-113h-25v114c-275 19 -470 233 -470 524
c0 299 197 517 470 527v115zM520 94v1011c-260 -9 -445 -217 -445 -507c0 -280 181 -485 445 -504z" />
    <glyph glyph-name="sterling" unicode="&#xa3;" horiz-adv-x="1145" 
d="M656 1425c199 0 331 -101 331 -252c0 -118 -61 -196 -153 -196c-68 0 -114 46 -114 114c0 62 83 94 83 175c0 83 -59 139 -147 139c-171 0 -283 -133 -283 -342v-320h349l-4 -20h-345v-86c0 -157 -7 -288 -24 -391c192 -63 402 -226 576 -226c70 0 132 35 154 133l16 70
l20 -4l-16 -70c-23 -106 -95 -154 -174 -154c-184 0 -395 165 -580 230c-29 -149 -83 -230 -179 -230c-76 0 -130 56 -130 142c0 80 72 134 178 134c36 0 74 -7 112 -18c16 98 22 227 22 384v86h-190l4 20h186v320c0 217 124 362 308 362z" />
    <glyph glyph-name="currency" unicode="&#xa4;" horiz-adv-x="720" 
d="M356 942c57 0 109 -16 156 -53c15 -12 32 -4 39 3l94 94l14 -15l-94 -94c-13 -13 -10 -30 -3 -39c34 -45 50 -96 50 -152c0 -74 -27 -120 -47 -148c-11 -15 -4 -32 3 -39l87 -87l-15 -13l-85 84c-13 13 -32 8 -40 2c-47 -38 -99 -55 -159 -55s-109 18 -152 50
c-14 11 -31 5 -39 -3l-87 -86l-13 15l85 85c13 13 9 31 3 39c-39 50 -53 102 -53 156c0 63 19 114 55 159c12 15 5 33 -2 40l-93 94l15 13l94 -94c13 -13 31 -9 39 -3c30 21 78 47 148 47zM193 849c-45 -45 -68 -100 -68 -163c0 -64 23 -118 68 -163s100 -68 163 -68
c64 0 118 23 163 68s68 100 68 163c0 64 -23 118 -68 163s-100 68 -163 68c-64 0 -118 -23 -163 -68z" />
    <glyph glyph-name="yen" unicode="&#xa5;" horiz-adv-x="1120" 
d="M12 1420h404v-15h-142c-63 0 -99 -5 -99 -33c0 -9 3 -21 11 -35l452 -827c236 285 358 567 358 793c0 145 -51 267 -154 352c-81 68 -218 68 -218 202c0 68 52 113 129 113c202 0 337 -204 337 -509c0 -275 -139 -618 -440 -975v-6h330v-20h-330v-180h330v-20h-330v-190
c0 -29 13 -55 150 -55h35v-15h-400v15h40c137 0 150 26 150 55v190h-285v20h285v180h-285v20h285v2l-4 8l-458 837c-41 76 -90 78 -124 78h-27v15z" />
    <glyph glyph-name="brokenbar" unicode="&#xa6;" horiz-adv-x="200" 
d="M80 800v720h25v-720h-25zM105 400v-800h-25v800h25z" />
    <glyph glyph-name="section" unicode="&#xa7;" horiz-adv-x="1280" 
d="M620 1525c262 0 436 -117 436 -292c0 -118 -61 -196 -153 -196c-68 0 -114 46 -114 114c0 62 83 94 83 175c0 107 -101 179 -252 179c-198 0 -342 -116 -342 -274c0 -173 113 -257 262 -314c282 -109 690 -124 690 -483c0 -163 -197 -285 -431 -313
c132 -58 228 -146 228 -312c0 -171 -154 -294 -367 -294c-107 0 -251 38 -341 141c-17 20 -30 29 -38 29c-11 0 -14 -15 -14 -46v-15l1 -44h-16l-12 300c0 4 3 7 8 7s8 -3 8 -7l3 -29c25 -238 247 -314 401 -314c198 0 342 114 342 272c0 173 -112 256 -260 313
c-282 109 -692 124 -692 484c0 163 197 286 432 313c-132 58 -229 145 -229 312c0 171 154 294 367 294zM755 139c245 16 450 134 450 295c0 347 -398 360 -679 467c-246 -16 -451 -134 -451 -295c0 -347 399 -360 680 -467z" />
    <glyph glyph-name="dieresis" unicode="&#xa8;" horiz-adv-x="800" 
d="M120 1340c0 21 18 40 40 40c21 0 40 -18 40 -40c0 -21 -18 -40 -40 -40c-21 0 -40 18 -40 40zM600 1340c0 21 18 40 40 40c21 0 40 -18 40 -40c0 -21 -18 -40 -40 -40c-21 0 -40 18 -40 40z" />
    <glyph glyph-name="copyright" unicode="&#xa9;" horiz-adv-x="1880" 
d="M925 1213c244 0 406 -101 406 -252c0 -106 -61 -176 -153 -176c-62 0 -104 38 -104 94c0 62 73 84 73 165c0 89 -92 149 -225 149c-241 0 -402 -175 -402 -437c0 -266 165 -443 420 -443c128 0 252 38 355 125l13 -15c-107 -91 -236 -130 -368 -130
c-270 0 -445 185 -445 463c0 274 172 457 430 457zM1820 758c0 -445 -394 -807 -880 -807s-880 362 -880 807c0 443 394 803 880 803s880 -360 880 -803zM1800 758c0 432 -385 783 -860 783s-860 -351 -860 -783c0 -434 385 -787 860 -787s860 353 860 787z" />
    <glyph glyph-name="ordfeminine" unicode="&#xaa;" horiz-adv-x="760" 
d="M317 840c-150 0 -257 75 -257 176c0 129 126 172 256 185c84 9 244 17 267 91c3 9 3 15 3 20v4c-1 114 -81 194 -192 194c-132 0 -231 -60 -231 -126c0 -12 -10 -17 -18 -17c-12 0 -17 9 -17 17c0 84 123 146 264 146c128 0 219 -92 219 -214v-316l10 -62
c10 -58 21 -75 35 -75c0 0 0 1 69 7h3l3 -19l-75 -11h-1c-37 0 -50 46 -58 95l-11 62v259c-55 -67 -203 -67 -268 -74c-133 -14 -233 -57 -233 -166c0 -91 97 -156 232 -156c58 0 97 33 97 82c0 57 -52 73 -52 116c0 39 29 66 73 66c64 0 107 -50 107 -124
c0 -96 -90 -160 -225 -160z" />
    <glyph glyph-name="guillemotleft" unicode="&#xab;" horiz-adv-x="680" 
d="M344 832l16 -14l-258 -294v-8l258 -292l-16 -14l-260 295c-1 1 -10 11 -10 14v2c0 2 8 12 10 14zM584 832l16 -14l-258 -294v-8l258 -292l-16 -14l-260 295c-1 1 -10 11 -10 14v2c0 2 8 12 10 14z" />
    <glyph glyph-name="logicalnot" unicode="&#xac;" horiz-adv-x="1120" 
d="M80 480h960v-480h-20v455h-940v25z" />
    <glyph glyph-name="uni00AD" unicode="&#xad;" horiz-adv-x="720" 
d="M642 770l-4 -20h-560l4 20h560z" />
    <glyph glyph-name="registered" unicode="&#xae;" horiz-adv-x="1880" 
d="M506 1335h412c259 0 431 -126 431 -314c0 -180 -157 -297 -373 -317c111 -34 165 -118 213 -251c78 -209 180 -621 472 -621c81 0 113 43 175 43c68 0 124 -51 124 -114c0 -84 -92 -153 -206 -153c-341 0 -431 412 -585 839c-66 182 -130 254 -334 254h-161v-427
c0 -21 10 -39 111 -39h29v-15h-308v15h33c105 0 111 20 111 39v1010c0 21 -14 36 -111 36h-33v15zM1236 -2c-93 -30 -192 -47 -296 -47c-486 0 -880 362 -880 807c0 443 394 803 880 803s880 -360 880 -803c0 -278 -154 -523 -387 -668l-12 16c228 142 379 381 379 652
c0 432 -385 783 -860 783s-860 -351 -860 -783c0 -434 385 -787 860 -787c101 0 199 17 289 46zM675 1315v-594h241c240 0 408 120 408 300c0 176 -163 294 -408 294h-241z" />
    <glyph glyph-name="macron" unicode="&#xaf;" horiz-adv-x="800" 
d="M720 1390h-640v20h640v-20z" />
    <glyph glyph-name="degree" unicode="&#xb0;" horiz-adv-x="420" 
d="M210 1450c59 0 130 -58 130 -130c0 -68 -67 -130 -130 -130c-59 0 -130 58 -130 130c0 68 67 130 130 130zM210 1430c-51 0 -110 -54 -110 -110c0 -60 61 -110 110 -110c51 0 110 54 110 110c0 60 -61 110 -110 110z" />
    <glyph glyph-name="plusminus" unicode="&#xb1;" horiz-adv-x="1040" 
d="M960 850l-1 -20h-429v-430h-20v430h-430v20h430v430h20v-430h430zM960 220h-880v20h880v-20z" />
    <glyph glyph-name="uni00B2" unicode="&#xb2;" horiz-adv-x="580" 
d="M305 1729c131 0 218 -80 218 -200c0 -74 -21 -153 -144 -285l-147 -157c-53 -57 -99 -101 -132 -127c-11 -9 -17 -13 -17 -17c0 -3 5 -5 18 -5h367c38 0 66 28 66 68v133h16v-213c0 -3 -3 -7 -8 -7h-494c-3 0 -8 2 -8 7v10c0 3 2 6 7 7c12 2 83 59 173 155l145 154
c122 131 139 207 139 277c0 111 -80 185 -199 185c-76 0 -127 -53 -127 -134c0 -57 58 -79 58 -122c0 -48 -32 -80 -80 -80c-64 0 -107 55 -107 137c0 129 103 214 256 214z" />
    <glyph glyph-name="uni00B3" unicode="&#xb3;" horiz-adv-x="640" 
d="M321 1729c140 0 233 -71 233 -175c0 -74 -59 -139 -171 -168v-2c136 -20 227 -92 227 -225c0 -146 -121 -244 -301 -244c-160 0 -221 85 -248 128c-1 1 -1 2 -1 3v77h15v-35c0 -17 10 -56 26 -74c35 -40 93 -84 208 -84c169 0 281 92 281 229c0 126 -75 192 -208 211h-10
c-9 0 -13 3 -13 6v17c0 3 4 6 13 6h10c109 29 152 88 152 155c0 95 -84 160 -213 160c-70 0 -117 -45 -117 -114c0 -57 48 -69 48 -112c0 -48 -32 -80 -80 -80c-58 0 -97 51 -97 127c0 117 99 194 246 194z" />
    <glyph glyph-name="acute" unicode="&#xb4;" horiz-adv-x="480" 
d="M76 1238l288 271c6 6 14 3 17 0s8 -11 2 -17l-293 -268z" />
    <glyph glyph-name="uni00B5" unicode="&#xb5;" horiz-adv-x="1220" 
d="M205 1043v-765c0 -169 103 -260 305 -260c236 0 465 270 465 560v397c0 37 -28 50 -105 50h-25v15h25l130 3v-794l9 -100c7 -74 35 -133 65 -134l96 16l4 -20l-97 -16h-2c-52 0 -84 78 -91 152l-9 101v140c0 18 -1 26 -2 26c-2 0 -4 -10 -9 -26
c-72 -218 -257 -393 -454 -393c-162 0 -268 56 -310 163l5 -218c3 -124 54 -206 136 -206c81 0 113 43 175 43s104 -42 104 -104c0 -92 -74 -153 -186 -153c-152 0 -254 168 -254 420v1035c0 37 -28 50 -105 50h-25v15h25z" />
    <glyph glyph-name="paragraph" unicode="&#xb6;" horiz-adv-x="1160" 
d="M1090 1440v-15h-40c-133 0 -160 -20 -160 -60v-1690c0 -40 27 -60 160 -60h40v-15h-225v1765c0 40 -40 60 -180 60s-180 -20 -180 -60v-1765h-225v15h40c133 0 160 20 160 60v1125v615h-140c-162 0 -270 -102 -270 -256c0 -102 43 -169 108 -169c46 0 67 40 124 40
c68 0 114 -39 114 -97c0 -80 -54 -133 -136 -133c-138 0 -230 144 -230 359c0 169 116 281 290 281h750z" />
    <glyph glyph-name="periodcentered" unicode="&#xb7;" horiz-adv-x="400" 
d="M120 535c0 21 18 40 40 40c21 0 40 -18 40 -40c0 -21 -18 -40 -40 -40c-21 0 -40 18 -40 40z" />
    <glyph glyph-name="cedilla" unicode="&#xb8;" horiz-adv-x="900" 
d="M362 15l-35 -139c27 8 49 16 85 16c94 0 173 -77 173 -176c0 -85 -80 -156 -180 -156c-68 0 -133 32 -165 86c-1 2 -4 9 3 13s13 -1 14 -3c28 -46 85 -76 148 -76c92 0 160 64 160 136c0 88 -71 156 -153 156c-43 0 -65 -10 -96 -20c-7 -2 -11 2 -12 6c-1 3 0 5 0 6
l38 156z" />
    <glyph glyph-name="uni00B9" unicode="&#xb9;" horiz-adv-x="430" 
d="M227 1729c11 0 20 -9 20 -19v-737c0 -22 10 -43 116 -43h27v-10h-350v10h71c106 0 116 21 116 43v660c0 34 -14 43 -29 43c-32 0 -58 -22 -58 -49c0 -18 47 -24 47 -73c0 -42 -34 -76 -75 -76c-53 0 -87 34 -87 84c0 55 87 96 137 118s60 36 65 49z" />
    <glyph glyph-name="ordmasculine" unicode="&#xba;" horiz-adv-x="744" 
d="M372 1530c146 0 244 -79 244 -197c0 -74 -37 -123 -93 -123c-45 0 -76 32 -76 80c0 38 40 64 40 108c0 67 -46 112 -115 112c-175 0 -297 -138 -297 -325c0 -191 126 -325 297 -325c175 0 297 138 297 325c0 55 -10 105 -29 148v51c35 -55 54 -123 54 -199
c0 -202 -137 -345 -322 -345c-189 0 -322 147 -322 345c0 202 137 345 322 345z" />
    <glyph glyph-name="guillemotright" unicode="&#xbb;" horiz-adv-x="680" 
d="M336 208l-16 14l258 294v8l-258 292l16 14l260 -295c1 -1 10 -11 10 -14v-2c0 -2 -8 -12 -10 -14zM96 208l-16 14l258 294v8l-258 292l16 14l260 -295c1 -1 10 -11 10 -14v-2c0 -2 -8 -12 -10 -14z" />
    <glyph glyph-name="onequarter" unicode="&#xbc;" horiz-adv-x="1360" 
d="M227 1499c11 0 20 -9 20 -19v-737c0 -22 10 -43 116 -43h27v-10h-350v10h71c106 0 116 21 116 43v660c0 34 -14 43 -29 43c-32 0 -58 -22 -58 -49c0 -18 47 -24 47 -73c0 -42 -34 -76 -75 -76c-53 0 -87 34 -87 84c0 55 87 96 137 118s60 36 65 49zM1157 560v-392
c0 -17 7 -26 28 -26h100v-20h-100c-21 0 -28 -10 -28 -27v-78c0 -22 10 -43 116 -43h37v-10h-366v10h77c106 0 116 21 116 43v78c0 17 -7 27 -28 27h-429v24c62 72 135 151 188 228c67 99 115 203 115 330c0 68 -50 114 -125 114c-57 0 -80 -58 -123 -58
c-48 0 -80 32 -80 80c0 64 56 107 138 107c124 0 206 -94 206 -235c0 -135 -47 -241 -115 -341c-50 -74 -103 -132 -164 -203c-12 -13 -15 -26 6 -26h383c21 0 28 9 28 26v373c0 11 8 19 20 19zM633 731l-576 -655l-15 13l577 656zM845 1002l318 362l15 -13l-310 -353z" />
    <glyph glyph-name="onehalf" unicode="&#xbd;" horiz-adv-x="1430" 
d="M227 1499c11 0 20 -9 20 -19v-737c0 -22 10 -43 116 -43h27v-10h-350v10h71c106 0 116 21 116 43v660c0 34 -14 43 -29 43c-32 0 -58 -22 -58 -49c0 -18 47 -24 47 -73c0 -42 -34 -76 -75 -76c-53 0 -87 34 -87 84c0 55 87 96 137 118s60 36 65 49zM1115 774
c131 0 218 -80 218 -200c0 -74 -21 -153 -144 -285l-147 -157c-53 -57 -99 -101 -132 -127c-11 -9 -17 -13 -17 -17c0 -3 5 -5 18 -5h367c38 0 66 28 66 68v133h16v-213c0 -3 -3 -7 -8 -7h-494c-3 0 -8 2 -8 7v10c0 3 2 6 7 7c12 2 83 59 173 155l145 154
c122 131 139 207 139 277c0 111 -80 185 -199 185c-76 0 -127 -53 -127 -134c0 -57 58 -80 58 -123c0 -48 -32 -80 -80 -80c-64 0 -107 56 -107 138c0 129 103 214 256 214zM1163 1364l15 -13l-1121 -1275l-15 13z" />
    <glyph glyph-name="threequarters" unicode="&#xbe;" horiz-adv-x="1520" 
d="M1317 560v-392c0 -17 7 -26 28 -26h100v-20h-100c-21 0 -28 -10 -28 -27v-78c0 -22 10 -43 116 -43h37v-10h-366v10h77c106 0 116 21 116 43v78c0 17 -7 27 -28 27h-429v24c62 72 135 151 188 228c67 99 115 203 115 330c0 68 -50 114 -125 114c-57 0 -80 -58 -123 -58
c-48 0 -80 32 -80 80c0 64 56 107 138 107c124 0 206 -94 206 -235c0 -135 -47 -241 -115 -341c-50 -74 -103 -132 -164 -203c-12 -13 -15 -26 6 -26h383c21 0 28 9 28 26v373c0 11 8 19 20 19zM793 731l-576 -655l-15 13l577 656zM1005 1002l318 362l15 -13l-310 -353z
M321 1499c140 0 233 -71 233 -175c0 -74 -59 -139 -171 -168v-2c136 -20 227 -92 227 -225c0 -146 -121 -244 -301 -244c-160 0 -221 85 -248 128c-1 1 -1 2 -1 3v77h15v-35c0 -17 10 -56 26 -74c35 -40 93 -84 208 -84c169 0 281 92 281 229c0 126 -75 192 -208 211h-10
c-9 0 -13 3 -13 6v17c0 3 4 6 13 6h10c109 29 152 88 152 155c0 95 -84 160 -213 160c-70 0 -117 -45 -117 -114c0 -57 48 -69 48 -112c0 -48 -32 -80 -80 -80c-58 0 -97 51 -97 127c0 117 99 194 246 194z" />
    <glyph glyph-name="questiondown" unicode="&#xbf;" horiz-adv-x="960" 
d="M484 -484c-234 0 -404 136 -404 324c0 215 110 335 311 453c87 51 155 84 155 157c0 17 -6 85 -11 129l20 2l16 -118c0 -5 1 -9 1 -13c0 -87 -85 -131 -168 -180c-199 -116 -299 -224 -299 -430c0 -176 159 -304 379 -304c148 0 247 72 247 179c0 81 -83 113 -83 175
c0 68 46 114 114 114c92 0 153 -78 153 -196c0 -175 -172 -292 -431 -292zM580 1005c0 -21 -18 -40 -40 -40c-21 0 -40 18 -40 40c0 21 18 40 40 40c21 0 40 -18 40 -40z" />
    <glyph glyph-name="Agrave" unicode="&#xc0;" horiz-adv-x="1330" 
d="M802 1640l-14 -14l-293 268c-6 6 -1 14 2 17s11 6 17 0zM1132 241l-86 239h-726l-143 -397c-3 -10 -5 -18 -5 -25c0 -36 44 -43 147 -43h41v-15h-340v15h5c86 0 115 20 134 74l510 1424c2 5 6 7 9 7h27c7 0 10 -6 10 -10c0 -20 5 -49 25 -104l428 -1194
c64 -180 140 -467 451 -467c81 0 113 43 175 43c68 0 124 -51 124 -114c0 -84 -92 -153 -206 -153c-323 0 -428 297 -580 720zM327 500h712l-322 900c-18 50 -20 62 -21 67h-23z" />
    <glyph glyph-name="Aacute" unicode="&#xc1;" horiz-adv-x="1330" 
d="M586 1640l288 271c6 6 14 3 17 0s8 -11 2 -17l-293 -268zM1132 241l-86 239h-726l-143 -397c-3 -10 -5 -18 -5 -25c0 -36 44 -43 147 -43h41v-15h-340v15h5c86 0 115 20 134 74l510 1424c2 5 6 7 9 7h27c7 0 10 -6 10 -10c0 -20 5 -49 25 -104l428 -1194
c64 -180 140 -467 451 -467c81 0 113 43 175 43c68 0 124 -51 124 -114c0 -84 -92 -153 -206 -153c-323 0 -428 297 -580 720zM327 500h712l-322 900c-18 50 -20 62 -21 67h-23z" />
    <glyph glyph-name="Acircumflex" unicode="&#xc2;" horiz-adv-x="1330" 
d="M379 1610l-14 15l313 275h22l313 -275l-14 -15l-307 270h-6zM1132 241l-86 239h-726l-143 -397c-3 -10 -5 -18 -5 -25c0 -36 44 -43 147 -43h41v-15h-340v15h5c86 0 115 20 134 74l510 1424c2 5 6 7 9 7h27c7 0 10 -6 10 -10c0 -20 5 -49 25 -104l428 -1194
c64 -180 140 -467 451 -467c81 0 113 43 175 43c68 0 124 -51 124 -114c0 -84 -92 -153 -206 -153c-323 0 -428 297 -580 720zM327 500h712l-322 900c-18 50 -20 62 -21 67h-23z" />
    <glyph glyph-name="Atilde" unicode="&#xc3;" horiz-adv-x="1330" 
d="M941 1848c9 -2 8 -10 8 -12c-13 -72 -61 -106 -113 -106c-127 0 -184 108 -294 108c-45 0 -82 -27 -93 -87c-2 -9 -10 -9 -12 -9s-10 3 -8 12c12 68 57 106 113 106c124 0 182 -108 294 -108c42 0 82 24 93 88c0 2 3 10 12 8zM1132 241l-86 239h-726l-143 -397
c-3 -10 -5 -18 -5 -25c0 -36 44 -43 147 -43h41v-15h-340v15h5c86 0 115 20 134 74l510 1424c2 5 6 7 9 7h27c7 0 10 -6 10 -10c0 -20 5 -49 25 -104l428 -1194c64 -180 140 -467 451 -467c81 0 113 43 175 43c68 0 124 -51 124 -114c0 -84 -92 -153 -206 -153
c-323 0 -428 297 -580 720zM327 500h712l-322 900c-18 50 -20 62 -21 67h-23z" />
    <glyph glyph-name="Adieresis" unicode="&#xc4;" horiz-adv-x="1330" 
d="M409 1740c0 21 18 40 40 40c21 0 40 -18 40 -40c0 -21 -18 -40 -40 -40c-21 0 -40 18 -40 40zM889 1740c0 21 18 40 40 40c21 0 40 -18 40 -40c0 -21 -18 -40 -40 -40c-21 0 -40 18 -40 40zM1132 241l-86 239h-726l-143 -397c-3 -10 -5 -18 -5 -25c0 -36 44 -43 147 -43
h41v-15h-340v15h5c86 0 115 20 134 74l510 1424c2 5 6 7 9 7h27c7 0 10 -6 10 -10c0 -20 5 -49 25 -104l428 -1194c64 -180 140 -467 451 -467c81 0 113 43 175 43c68 0 124 -51 124 -114c0 -84 -92 -153 -206 -153c-323 0 -428 297 -580 720zM327 500h712l-322 900
c-18 50 -20 62 -21 67h-23z" />
    <glyph glyph-name="Aring" unicode="&#xc5;" horiz-adv-x="1330" 
d="M690 1787c-78 0 -130 -56 -130 -130c0 -78 56 -130 130 -130c78 0 130 56 130 130c0 78 -56 130 -130 130zM20 15h5c86 0 115 20 134 74l508 1420c-73 10 -127 67 -127 148c0 84 61 150 150 150c84 0 150 -61 150 -150c0 -76 -50 -137 -125 -148c0 -20 6 -49 25 -103
l428 -1194c64 -180 140 -467 451 -467c81 0 113 43 175 43c68 0 124 -51 124 -114c0 -84 -92 -153 -206 -153c-323 0 -428 297 -580 720l-86 239h-726l-143 -397c-3 -10 -5 -18 -5 -25c0 -36 44 -43 147 -43h41v-15h-340v15zM327 500h712l-322 900c-18 50 -20 62 -21 67h-23
z" />
    <glyph glyph-name="AE" unicode="&#xc6;" horiz-adv-x="2000" 
d="M408 620h642v810c0 51 -18 70 -70 70h-151c-43 0 -61 -39 -72 -65zM655 1520h1175c7 0 10 -6 10 -9l25 -380l-20 -2l-16 254c-6 88 -39 117 -127 117h-626l-1 -880h187c114 0 190 64 190 159c0 81 -83 113 -83 175c0 68 46 114 114 114c92 0 153 -78 153 -196
c0 -163 -150 -272 -374 -272h-187v-580h707c91 0 121 32 127 117l16 254l20 -2l-25 -380c0 -7 -7 -9 -10 -9h-1050v15h40c137 0 150 27 150 56v529h-650l-222 -517c-5 -11 -7 -19 -7 -27c0 -36 51 -41 149 -41h40v-15h-340v15h5c86 0 111 21 134 74l579 1351c2 6 4 12 4 19
c0 22 -14 46 -49 46h-38v15z" />
    <glyph glyph-name="Ccedilla" unicode="&#xc7;" horiz-adv-x="1140" 
d="M675 1525c244 0 406 -117 406 -292c0 -118 -61 -196 -153 -196c-68 0 -114 46 -114 114c0 62 83 94 83 175c0 107 -89 179 -222 179c-355 0 -590 -297 -590 -743c0 -438 222 -747 590 -747c177 0 309 77 397 164l14 -14c-91 -89 -228 -170 -411 -170h-22l-33 -129
c27 8 49 16 85 16c94 0 173 -77 173 -176c0 -85 -80 -156 -180 -156c-68 0 -133 32 -165 86c-1 2 -4 9 3 13s13 -1 14 -3c28 -46 85 -76 148 -76c92 0 160 64 160 136c0 88 -71 156 -153 156c-43 0 -65 -10 -96 -20c-7 -2 -11 2 -12 6c-1 3 0 5 0 6l35 142
c-356 24 -567 339 -567 766c0 458 243 763 610 763z" />
    <glyph glyph-name="Egrave" unicode="&#xc8;" horiz-adv-x="1290" 
d="M773 1640l-14 -14l-293 268c-6 6 -1 14 2 17s11 6 17 0zM50 1520h1070c7 0 10 -6 10 -9l25 -380l-20 -2l-16 254c-6 88 -39 117 -127 117h-726l-1 -810h205c114 0 190 64 190 159c0 81 -83 113 -83 175c0 68 46 114 114 114c92 0 153 -78 153 -196
c0 -163 -150 -272 -374 -272h-205v-650h807c91 0 121 32 127 117l16 254l20 -2l-25 -380c0 -7 -7 -9 -10 -9h-1150v15h40c137 0 150 27 150 56v1384c0 31 -18 50 -150 50h-40v15z" />
    <glyph glyph-name="Eacute" unicode="&#xc9;" horiz-adv-x="1290" 
d="M557 1640l288 271c6 6 14 3 17 0s8 -11 2 -17l-293 -268zM50 1520h1070c7 0 10 -6 10 -9l25 -380l-20 -2l-16 254c-6 88 -39 117 -127 117h-726l-1 -810h205c114 0 190 64 190 159c0 81 -83 113 -83 175c0 68 46 114 114 114c92 0 153 -78 153 -196
c0 -163 -150 -272 -374 -272h-205v-650h807c91 0 121 32 127 117l16 254l20 -2l-25 -380c0 -7 -7 -9 -10 -9h-1150v15h40c137 0 150 27 150 56v1384c0 31 -18 50 -150 50h-40v15z" />
    <glyph glyph-name="Ecircumflex" unicode="&#xca;" horiz-adv-x="1290" 
d="M350 1610l-14 15l313 275h22l313 -275l-14 -15l-307 270h-6zM50 1520h1070c7 0 10 -6 10 -9l25 -380l-20 -2l-16 254c-6 88 -39 117 -127 117h-726l-1 -810h205c114 0 190 64 190 159c0 81 -83 113 -83 175c0 68 46 114 114 114c92 0 153 -78 153 -196
c0 -163 -150 -272 -374 -272h-205v-650h807c91 0 121 32 127 117l16 254l20 -2l-25 -380c0 -7 -7 -9 -10 -9h-1150v15h40c137 0 150 27 150 56v1384c0 31 -18 50 -150 50h-40v15z" />
    <glyph glyph-name="Edieresis" unicode="&#xcb;" horiz-adv-x="1290" 
d="M380 1740c0 21 18 40 40 40c21 0 40 -18 40 -40c0 -21 -18 -40 -40 -40c-21 0 -40 18 -40 40zM860 1740c0 21 18 40 40 40c21 0 40 -18 40 -40c0 -21 -18 -40 -40 -40c-21 0 -40 18 -40 40zM50 1520h1070c7 0 10 -6 10 -9l25 -380l-20 -2l-16 254c-6 88 -39 117 -127 117
h-726l-1 -810h205c114 0 190 64 190 159c0 81 -83 113 -83 175c0 68 46 114 114 114c92 0 153 -78 153 -196c0 -163 -150 -272 -374 -272h-205v-650h807c91 0 121 32 127 117l16 254l20 -2l-25 -380c0 -7 -7 -9 -10 -9h-1150v15h40c137 0 150 27 150 56v1384
c0 31 -18 50 -150 50h-40v15z" />
    <glyph glyph-name="Igrave" unicode="&#xcc;" horiz-adv-x="500" 
d="M356 1640l-14 -14l-293 268c-6 6 -1 14 2 17s11 6 17 0zM450 0h-400v15h40c137 0 150 26 150 55v1383c0 31 -18 52 -150 52h-40v15h400v-15h-35c-132 0 -150 -21 -150 -52v-1383c0 -29 13 -55 150 -55h35v-15z" />
    <glyph glyph-name="Iacute" unicode="&#xcd;" horiz-adv-x="500" 
d="M150 1640l288 271c6 6 14 3 17 0s8 -11 2 -17l-293 -268zM450 0h-400v15h40c137 0 150 26 150 55v1383c0 31 -18 52 -150 52h-40v15h400v-15h-35c-132 0 -150 -21 -150 -52v-1383c0 -29 13 -55 150 -55h35v-15z" />
    <glyph glyph-name="Icircumflex" unicode="&#xce;" horiz-adv-x="500" 
d="M-57 1610l-14 15l313 275h22l313 -275l-14 -15l-307 270h-6zM450 0h-400v15h40c137 0 150 26 150 55v1383c0 31 -18 52 -150 52h-40v15h400v-15h-35c-132 0 -150 -21 -150 -52v-1383c0 -29 13 -55 150 -55h35v-15z" />
    <glyph glyph-name="Idieresis" unicode="&#xcf;" horiz-adv-x="500" 
d="M-17 1740c0 21 18 40 40 40c21 0 40 -18 40 -40c0 -21 -18 -40 -40 -40c-21 0 -40 18 -40 40zM437 1740c0 21 18 40 40 40c21 0 40 -18 40 -40c0 -21 -18 -40 -40 -40c-21 0 -40 18 -40 40zM450 0h-400v15h40c137 0 150 26 150 55v1383c0 31 -18 52 -150 52h-40v15h400
v-15h-35c-132 0 -150 -21 -150 -52v-1383c0 -29 13 -55 150 -55h35v-15z" />
    <glyph glyph-name="Eth" unicode="&#xd0;" horiz-adv-x="1460" 
d="M90 0v15l216 5h354c412 0 710 311 710 740s-298 740 -710 740h-354v-730h336l-4 -20h-333l1 -328c0 -95 66 -158 173 -158c81 0 113 83 175 83c68 0 114 -46 114 -114c0 -92 -78 -153 -196 -153c-175 0 -292 138 -292 346v324h-202l4 20h198v685c0 31 -18 50 -150 50h-40
v15h575c423 0 730 -319 730 -760s-307 -760 -730 -760h-575z" />
    <glyph glyph-name="Ntilde" unicode="&#xd1;" horiz-adv-x="1430" 
d="M1017 1848c9 -2 8 -10 8 -12c-13 -72 -61 -106 -113 -106c-127 0 -184 108 -294 108c-45 0 -82 -27 -93 -87c-2 -9 -10 -9 -12 -9s-10 3 -8 12c12 68 57 106 113 106c124 0 182 -108 294 -108c42 0 82 24 93 88c0 2 3 10 12 8zM50 1520h229c4 0 7 -3 8 -5l890 -1427
c7 -12 15 -18 21 -18c7 0 12 9 12 26v1144c0 454 180 759 541 759c114 0 206 -69 206 -153c0 -63 -56 -114 -124 -114c-62 0 -94 43 -175 43c-292 0 -427 -262 -427 -592l-1 -1183h-21c-3 0 -7 1 -9 5l-933 1495h-9c9 -36 12 -55 12 -111v-1319c0 -29 13 -55 150 -55h35v-15
h-395v15h40c137 0 150 26 150 55v1320c0 106 -68 115 -188 115h-12v15z" />
    <glyph glyph-name="Ograve" unicode="&#xd2;" horiz-adv-x="1410" 
d="M818 1640l-14 -14l-293 268c-6 6 -1 14 2 17s11 6 17 0zM705 1525c370 0 640 -321 640 -765s-269 -765 -640 -765s-640 321 -640 765c0 218 65 407 175 542v-38c-95 -130 -150 -304 -150 -504c0 -432 258 -745 615 -745s615 313 615 745s-259 745 -615 745
c-146 0 -243 -72 -243 -179c0 -81 83 -113 83 -175c0 -68 -46 -114 -114 -114c-92 0 -153 78 -153 196c0 175 171 292 427 292z" />
    <glyph glyph-name="Oacute" unicode="&#xd3;" horiz-adv-x="1410" 
d="M602 1640l288 271c6 6 14 3 17 0s8 -11 2 -17l-293 -268zM705 1525c370 0 640 -321 640 -765s-269 -765 -640 -765s-640 321 -640 765c0 218 65 407 175 542v-38c-95 -130 -150 -304 -150 -504c0 -432 258 -745 615 -745s615 313 615 745s-259 745 -615 745
c-146 0 -243 -72 -243 -179c0 -81 83 -113 83 -175c0 -68 -46 -114 -114 -114c-92 0 -153 78 -153 196c0 175 171 292 427 292z" />
    <glyph glyph-name="Ocircumflex" unicode="&#xd4;" horiz-adv-x="1410" 
d="M395 1610l-14 15l313 275h22l313 -275l-14 -15l-307 270h-6zM705 1525c370 0 640 -321 640 -765s-269 -765 -640 -765s-640 321 -640 765c0 218 65 407 175 542v-38c-95 -130 -150 -304 -150 -504c0 -432 258 -745 615 -745s615 313 615 745s-259 745 -615 745
c-146 0 -243 -72 -243 -179c0 -81 83 -113 83 -175c0 -68 -46 -114 -114 -114c-92 0 -153 78 -153 196c0 175 171 292 427 292z" />
    <glyph glyph-name="Otilde" unicode="&#xd5;" horiz-adv-x="1410" 
d="M957 1848c9 -2 8 -10 8 -12c-13 -72 -61 -106 -113 -106c-127 0 -184 108 -294 108c-45 0 -82 -27 -93 -87c-2 -9 -10 -9 -12 -9s-10 3 -8 12c12 68 57 106 113 106c124 0 182 -108 294 -108c42 0 82 24 93 88c0 2 3 10 12 8zM705 1525c370 0 640 -321 640 -765
s-269 -765 -640 -765s-640 321 -640 765c0 218 65 407 175 542v-38c-95 -130 -150 -304 -150 -504c0 -432 258 -745 615 -745s615 313 615 745s-259 745 -615 745c-146 0 -243 -72 -243 -179c0 -81 83 -113 83 -175c0 -68 -46 -114 -114 -114c-92 0 -153 78 -153 196
c0 175 171 292 427 292z" />
    <glyph glyph-name="Odieresis" unicode="&#xd6;" horiz-adv-x="1410" 
d="M425 1740c0 21 18 40 40 40c21 0 40 -18 40 -40c0 -21 -18 -40 -40 -40c-21 0 -40 18 -40 40zM905 1740c0 21 18 40 40 40c21 0 40 -18 40 -40c0 -21 -18 -40 -40 -40c-21 0 -40 18 -40 40zM705 1525c370 0 640 -321 640 -765s-269 -765 -640 -765s-640 321 -640 765
c0 218 65 407 175 542v-38c-95 -130 -150 -304 -150 -504c0 -432 258 -745 615 -745s615 313 615 745s-259 745 -615 745c-146 0 -243 -72 -243 -179c0 -81 83 -113 83 -175c0 -68 -46 -114 -114 -114c-92 0 -153 78 -153 196c0 175 171 292 427 292z" />
    <glyph glyph-name="multiply" unicode="&#xd7;" horiz-adv-x="720" 
d="M606 980l14 -14l-245 -246l246 -246l-15 -15l-246 246l-246 -246l-15 15l246 246l-246 246l15 15l246 -246z" />
    <glyph glyph-name="Oslash" unicode="&#xd8;" horiz-adv-x="1410" 
d="M705 1525c169 0 315 -66 426 -180l151 201l16 -12l-153 -204c125 -137 200 -336 200 -570c0 -444 -269 -765 -640 -765c-168 0 -315 66 -426 180l-151 -201l-16 12l153 204c-125 137 -199 336 -200 570c0 218 65 407 175 542v-38c-95 -130 -150 -304 -150 -504
c1 -226 71 -419 189 -552l839 1119c-107 113 -249 178 -413 178c-146 0 -243 -72 -243 -179c0 -81 83 -113 83 -175c0 -68 -46 -114 -114 -114c-92 0 -153 78 -153 196c0 175 171 292 427 292zM705 15c357 0 615 313 615 745c0 226 -71 419 -189 552l-839 -1119
c107 -113 250 -178 413 -178z" />
    <glyph glyph-name="Ugrave" unicode="&#xd9;" horiz-adv-x="1377" 
d="M828 1640l-14 -14l-293 268c-6 6 -1 14 2 17s11 6 17 0zM1180 1240c0 454 180 759 541 759c114 0 206 -69 206 -153c0 -63 -56 -114 -124 -114c-62 0 -94 43 -175 43c-292 0 -427 -262 -427 -592l-1 -698c0 -286 -213 -490 -500 -490c-280 0 -480 208 -480 490v965
c0 29 -13 55 -150 55h-40v15h440v-15h-75c-137 0 -150 -26 -150 -55v-965c0 -271 186 -470 455 -470c277 0 480 195 480 470v755z" />
    <glyph glyph-name="Uacute" unicode="&#xda;" horiz-adv-x="1377" 
d="M612 1640l288 271c6 6 14 3 17 0s8 -11 2 -17l-293 -268zM1180 1240c0 454 180 759 541 759c114 0 206 -69 206 -153c0 -63 -56 -114 -124 -114c-62 0 -94 43 -175 43c-292 0 -427 -262 -427 -592l-1 -698c0 -286 -213 -490 -500 -490c-280 0 -480 208 -480 490v965
c0 29 -13 55 -150 55h-40v15h440v-15h-75c-137 0 -150 -26 -150 -55v-965c0 -271 186 -470 455 -470c277 0 480 195 480 470v755z" />
    <glyph glyph-name="Ucircumflex" unicode="&#xdb;" horiz-adv-x="1377" 
d="M405 1610l-14 15l313 275h22l313 -275l-14 -15l-307 270h-6zM1180 1240c0 454 180 759 541 759c114 0 206 -69 206 -153c0 -63 -56 -114 -124 -114c-62 0 -94 43 -175 43c-292 0 -427 -262 -427 -592l-1 -698c0 -286 -213 -490 -500 -490c-280 0 -480 208 -480 490v965
c0 29 -13 55 -150 55h-40v15h440v-15h-75c-137 0 -150 -26 -150 -55v-965c0 -271 186 -470 455 -470c277 0 480 195 480 470v755z" />
    <glyph glyph-name="Udieresis" unicode="&#xdc;" horiz-adv-x="1377" 
d="M435 1740c0 21 18 40 40 40c21 0 40 -18 40 -40c0 -21 -18 -40 -40 -40c-21 0 -40 18 -40 40zM915 1740c0 21 18 40 40 40c21 0 40 -18 40 -40c0 -21 -18 -40 -40 -40c-21 0 -40 18 -40 40zM1180 1240c0 454 180 759 541 759c114 0 206 -69 206 -153
c0 -63 -56 -114 -124 -114c-62 0 -94 43 -175 43c-292 0 -427 -262 -427 -592l-1 -698c0 -286 -213 -490 -500 -490c-280 0 -480 208 -480 490v965c0 29 -13 55 -150 55h-40v15h440v-15h-75c-137 0 -150 -26 -150 -55v-965c0 -271 186 -470 455 -470c277 0 480 195 480 470
v755z" />
    <glyph glyph-name="Yacute" unicode="&#xdd;" horiz-adv-x="1301" 
d="M555 1640l288 271c6 6 14 3 17 0s8 -11 2 -17l-293 -268zM1108 1392c183 335 358 607 677 607c114 0 206 -69 206 -153c0 -63 -56 -114 -124 -114c-62 0 -94 43 -175 43c-350 0 -488 -249 -586 -428l-436 -797v-480c0 -29 13 -55 150 -55h35v-15h-400v15h40
c137 0 150 26 150 55v472l-4 8l-480 877c-41 76 -90 78 -124 78h-27v15h404v-15h-142c-63 0 -99 -5 -99 -33c0 -9 4 -21 11 -35l474 -867z" />
    <glyph glyph-name="Thorn" unicode="&#xde;" horiz-adv-x="1215" 
d="M640 420c-195 0 -305 117 -305 292c0 118 61 196 153 196c56 0 94 -46 94 -114c0 -62 -83 -94 -83 -175c0 -107 55 -179 138 -179c293 0 488 184 488 460c0 193 -96 460 -508 460h-352v-920v-370c0 -29 13 -55 150 -55h35v-15h-400v15h40c137 0 150 26 150 55v1380
c0 29 -13 55 -150 55h-40v15h400v-15h-35c-137 0 -150 -26 -150 -55v-70h355c424 0 530 -279 530 -480c0 -288 -204 -480 -510 -480z" />
    <glyph glyph-name="germandbls" unicode="&#xdf;" horiz-adv-x="1180" 
d="M795 15c199 0 310 92 310 229c0 367 -595 275 -595 557c0 192 336 192 336 464c0 156 -98 240 -280 240c-184 0 -306 -148 -306 -370v-1070c0 -38 1 -45 10 -50v-15h-200v15h20c137 0 150 21 150 50v935h-140v20h140v115c0 234 130 390 326 390c198 0 305 -91 305 -260
c0 -285 -341 -290 -341 -464c0 -249 600 -165 600 -557c0 -149 -121 -249 -335 -249c-246 0 -410 105 -410 262c0 106 61 176 153 176c62 0 104 -38 104 -94c0 -62 -73 -84 -73 -165c0 -95 90 -159 226 -159z" />
    <glyph glyph-name="agrave" unicode="&#xe0;" 
d="M633 1240l-14 -14l-293 268c-6 6 -1 14 2 17s11 6 17 0zM571 1045c192 0 329 -136 329 -324v-486l16 -95c14 -84 33 -119 61 -120l107 10l2 -20l-109 -15h-1c-49 0 -72 60 -85 141c-5 31 -16 90 -16 98v22c0 18 -3 27 -7 27s-9 -7 -15 -21c-69 -148 -218 -267 -398 -267
c-226 0 -390 111 -390 265c0 192 185 259 389 280c124 13 379 22 416 143c3 11 5 22 5 32v6c-1 175 -123 304 -301 304c-135 0 -225 -48 -225 -119c0 -81 73 -103 73 -165c0 -56 -42 -94 -104 -94c-92 0 -153 70 -153 176c0 133 162 222 406 222zM875 646
c-67 -111 -309 -115 -419 -126c-202 -21 -366 -85 -366 -260c0 -142 153 -245 365 -245c237 0 420 218 420 430v201z" />
    <glyph glyph-name="aacute" unicode="&#xe1;" 
d="M417 1240l288 271c6 6 14 3 17 0s8 -11 2 -17l-293 -268zM571 1045c192 0 329 -136 329 -324v-486l16 -95c14 -84 33 -119 61 -120l107 10l2 -20l-109 -15h-1c-49 0 -72 60 -85 141c-5 31 -16 90 -16 98v22c0 18 -3 27 -7 27s-9 -7 -15 -21c-69 -148 -218 -267 -398 -267
c-226 0 -390 111 -390 265c0 192 185 259 389 280c124 13 379 22 416 143c3 11 5 22 5 32v6c-1 175 -123 304 -301 304c-135 0 -225 -48 -225 -119c0 -81 73 -103 73 -165c0 -56 -42 -94 -104 -94c-92 0 -153 70 -153 176c0 133 162 222 406 222zM875 646
c-67 -111 -309 -115 -419 -126c-202 -21 -366 -85 -366 -260c0 -142 153 -245 365 -245c237 0 420 218 420 430v201z" />
    <glyph glyph-name="acircumflex" unicode="&#xe2;" 
d="M210 1210l-14 15l313 275h22l313 -275l-14 -15l-307 270h-6zM571 1045c192 0 329 -136 329 -324v-486l16 -95c14 -84 33 -119 61 -120l107 10l2 -20l-109 -15h-1c-49 0 -72 60 -85 141c-5 31 -16 90 -16 98v22c0 18 -3 27 -7 27s-9 -7 -15 -21
c-69 -148 -218 -267 -398 -267c-226 0 -390 111 -390 265c0 192 185 259 389 280c124 13 379 22 416 143c3 11 5 22 5 32v6c-1 175 -123 304 -301 304c-135 0 -225 -48 -225 -119c0 -81 73 -103 73 -165c0 -56 -42 -94 -104 -94c-92 0 -153 70 -153 176
c0 133 162 222 406 222zM875 646c-67 -111 -309 -115 -419 -126c-202 -21 -366 -85 -366 -260c0 -142 153 -245 365 -245c237 0 420 218 420 430v201z" />
    <glyph glyph-name="atilde" unicode="&#xe3;" 
d="M772 1448c9 -2 8 -10 8 -12c-13 -72 -61 -106 -113 -106c-127 0 -184 108 -294 108c-45 0 -82 -27 -93 -87c-2 -9 -10 -9 -12 -9s-10 3 -8 12c12 68 57 106 113 106c124 0 182 -108 294 -108c42 0 82 24 93 88c0 2 3 10 12 8zM571 1045c192 0 329 -136 329 -324v-486
l16 -95c14 -84 33 -119 61 -120l107 10l2 -20l-109 -15h-1c-49 0 -72 60 -85 141c-5 31 -16 90 -16 98v22c0 18 -3 27 -7 27s-9 -7 -15 -21c-69 -148 -218 -267 -398 -267c-226 0 -390 111 -390 265c0 192 185 259 389 280c124 13 379 22 416 143c3 11 5 22 5 32v6
c-1 175 -123 304 -301 304c-135 0 -225 -48 -225 -119c0 -81 73 -103 73 -165c0 -56 -42 -94 -104 -94c-92 0 -153 70 -153 176c0 133 162 222 406 222zM875 646c-67 -111 -309 -115 -419 -126c-202 -21 -366 -85 -366 -260c0 -142 153 -245 365 -245c237 0 420 218 420 430
v201z" />
    <glyph glyph-name="adieresis" unicode="&#xe4;" 
d="M240 1340c0 21 18 40 40 40c21 0 40 -18 40 -40c0 -21 -18 -40 -40 -40c-21 0 -40 18 -40 40zM720 1340c0 21 18 40 40 40c21 0 40 -18 40 -40c0 -21 -18 -40 -40 -40c-21 0 -40 18 -40 40zM571 1045c192 0 329 -136 329 -324v-486l16 -95c14 -84 33 -119 61 -120l107 10
l2 -20l-109 -15h-1c-49 0 -72 60 -85 141c-5 31 -16 90 -16 98v22c0 18 -3 27 -7 27s-9 -7 -15 -21c-69 -148 -218 -267 -398 -267c-226 0 -390 111 -390 265c0 192 185 259 389 280c124 13 379 22 416 143c3 11 5 22 5 32v6c-1 175 -123 304 -301 304
c-135 0 -225 -48 -225 -119c0 -81 73 -103 73 -165c0 -56 -42 -94 -104 -94c-92 0 -153 70 -153 176c0 133 162 222 406 222zM875 646c-67 -111 -309 -115 -419 -126c-202 -21 -366 -85 -366 -260c0 -142 153 -245 365 -245c237 0 420 218 420 430v201z" />
    <glyph glyph-name="aring" unicode="&#xe5;" 
d="M520 1470c84 0 150 -61 150 -150c0 -84 -61 -150 -150 -150c-84 0 -150 61 -150 150c0 84 61 150 150 150zM520 1450c-78 0 -130 -56 -130 -130c0 -78 56 -130 130 -130c78 0 130 56 130 130c0 78 -56 130 -130 130zM571 1045c192 0 329 -136 329 -324v-486l16 -95
c14 -84 33 -119 61 -120l107 10l2 -20l-109 -15h-1c-49 0 -72 60 -85 141c-5 31 -16 90 -16 98v22c0 18 -3 27 -7 27s-9 -7 -15 -21c-69 -148 -218 -267 -398 -267c-226 0 -390 111 -390 265c0 192 185 259 389 280c124 13 379 22 416 143c3 11 5 22 5 32v6
c-1 175 -123 304 -301 304c-135 0 -225 -48 -225 -119c0 -81 73 -103 73 -165c0 -56 -42 -94 -104 -94c-92 0 -153 70 -153 176c0 133 162 222 406 222zM875 646c-67 -111 -309 -115 -419 -126c-202 -21 -366 -85 -366 -260c0 -142 153 -245 365 -245c237 0 420 218 420 430
v201z" />
    <glyph glyph-name="ae" unicode="&#xe6;" horiz-adv-x="1900" 
d="M571 1045c190 0 329 -136 329 -324v-25c63 210 240 349 465 349c286 0 470 -215 470 -505c0 -7 -6 -10 -10 -10h-925v-10c0 -292 187 -505 455 -505c226 0 364 98 439 231l18 -10c-78 -139 -225 -241 -457 -241c-231 0 -407 152 -462 373c-4 -13 -18 -59 -40 -106
c-68 -148 -218 -267 -398 -267c-226 0 -390 111 -390 265c0 192 185 259 389 280c122 13 257 7 421 10v171c-1 175 -125 304 -301 304c-135 0 -225 -48 -225 -119c0 -81 73 -103 73 -165c0 -56 -42 -94 -104 -94c-92 0 -153 70 -153 176c0 133 162 222 406 222zM901 550h858
c35 0 45 35 45 68c0 11 -1 21 -3 30c-39 223 -198 377 -436 377c-261 0 -451 -195 -464 -475zM875 530c-166 -4 -358 -4 -419 -10c-202 -21 -366 -85 -366 -260c0 -142 153 -245 365 -245c237 0 420 218 420 430v75v10z" />
    <glyph glyph-name="ccedilla" unicode="&#xe7;" horiz-adv-x="1010" 
d="M555 1045c244 0 406 -101 406 -252c0 -106 -61 -176 -153 -176c-62 0 -104 38 -104 94c0 62 73 84 73 165c0 107 -92 149 -225 149c-268 0 -462 -211 -462 -507c0 -294 200 -503 485 -503c128 0 264 43 367 130l13 -15c-107 -91 -248 -135 -380 -135c-11 0 -21 0 -32 1
l-33 -132c27 8 49 16 85 16c94 0 173 -77 173 -176c0 -85 -80 -156 -180 -156c-68 0 -133 32 -165 86c-1 2 -4 9 3 13s13 -1 14 -3c28 -46 85 -76 148 -76c92 0 160 64 160 136c0 88 -71 156 -153 156c-43 0 -65 -10 -96 -20c-7 -2 -11 2 -12 6c-1 3 0 5 0 6l35 145
c-268 25 -457 235 -457 521c0 306 208 527 490 527z" />
    <glyph glyph-name="egrave" unicode="&#xe8;" horiz-adv-x="1090" 
d="M688 1240l-14 -14l-293 268c-6 6 -1 14 2 17s11 6 17 0zM555 1045c286 0 470 -215 470 -505c0 -7 -6 -10 -10 -10h-524c-208 0 -346 89 -346 222c0 106 61 176 153 176c62 0 104 -38 104 -94c0 -62 -73 -84 -73 -165c0 -71 66 -119 165 -119h455c35 0 45 35 45 68
c0 11 -1 21 -3 30c-39 223 -198 377 -436 377c-92 0 -177 -25 -248 -70h-38c79 57 177 90 286 90zM102 732l14 -34c-17 -54 -26 -112 -26 -178c0 -292 187 -505 455 -505c226 0 364 98 439 231l18 -10c-78 -139 -225 -241 -457 -241c-281 0 -480 224 -480 525
c0 80 13 148 37 212z" />
    <glyph glyph-name="eacute" unicode="&#xe9;" horiz-adv-x="1090" 
d="M472 1240l288 271c6 6 14 3 17 0s8 -11 2 -17l-293 -268zM555 1045c286 0 470 -215 470 -505c0 -7 -6 -10 -10 -10h-524c-208 0 -346 89 -346 222c0 106 61 176 153 176c62 0 104 -38 104 -94c0 -62 -73 -84 -73 -165c0 -71 66 -119 165 -119h455c35 0 45 35 45 68
c0 11 -1 21 -3 30c-39 223 -198 377 -436 377c-92 0 -177 -25 -248 -70h-38c79 57 177 90 286 90zM102 732l14 -34c-17 -54 -26 -112 -26 -178c0 -292 187 -505 455 -505c226 0 364 98 439 231l18 -10c-78 -139 -225 -241 -457 -241c-281 0 -480 224 -480 525
c0 80 13 148 37 212z" />
    <glyph glyph-name="ecircumflex" unicode="&#xea;" horiz-adv-x="1090" 
d="M265 1210l-14 15l313 275h22l313 -275l-14 -15l-307 270h-6zM555 1045c286 0 470 -215 470 -505c0 -7 -6 -10 -10 -10h-524c-208 0 -346 89 -346 222c0 106 61 176 153 176c62 0 104 -38 104 -94c0 -62 -73 -84 -73 -165c0 -71 66 -119 165 -119h455c35 0 45 35 45 68
c0 11 -1 21 -3 30c-39 223 -198 377 -436 377c-92 0 -177 -25 -248 -70h-38c79 57 177 90 286 90zM102 732l14 -34c-17 -54 -26 -112 -26 -178c0 -292 187 -505 455 -505c226 0 364 98 439 231l18 -10c-78 -139 -225 -241 -457 -241c-281 0 -480 224 -480 525
c0 80 13 148 37 212z" />
    <glyph glyph-name="edieresis" unicode="&#xeb;" horiz-adv-x="1090" 
d="M295 1340c0 21 18 40 40 40c21 0 40 -18 40 -40c0 -21 -18 -40 -40 -40c-21 0 -40 18 -40 40zM775 1340c0 21 18 40 40 40c21 0 40 -18 40 -40c0 -21 -18 -40 -40 -40c-21 0 -40 18 -40 40zM555 1045c286 0 470 -215 470 -505c0 -7 -6 -10 -10 -10h-524
c-208 0 -346 89 -346 222c0 106 61 176 153 176c62 0 104 -38 104 -94c0 -62 -73 -84 -73 -165c0 -71 66 -119 165 -119h455c35 0 45 35 45 68c0 11 -1 21 -3 30c-39 223 -198 377 -436 377c-92 0 -177 -25 -248 -70h-38c79 57 177 90 286 90zM102 732l14 -34
c-17 -54 -26 -112 -26 -178c0 -292 187 -505 455 -505c226 0 364 98 439 231l18 -10c-78 -139 -225 -241 -457 -241c-281 0 -480 224 -480 525c0 80 13 148 37 212z" />
    <glyph glyph-name="igrave" unicode="&#xec;" horiz-adv-x="500" 
d="M353 1240l-14 -14l-293 268c-6 6 -1 14 2 17s11 6 17 0zM265 70c0 -29 13 -55 150 -55h35v-15h-400v15h40c137 0 150 26 150 55v905c0 37 -28 50 -105 50h-25v15h25l130 3v-973z" />
    <glyph glyph-name="iacute" unicode="&#xed;" horiz-adv-x="500" 
d="M147 1240l288 271c6 6 14 3 17 0s8 -11 2 -17l-293 -268zM265 70c0 -29 13 -55 150 -55h35v-15h-400v15h40c137 0 150 26 150 55v905c0 37 -28 50 -105 50h-25v15h25l130 3v-973z" />
    <glyph glyph-name="icircumflex" unicode="&#xee;" horiz-adv-x="500" 
d="M-60 1210l-14 15l313 275h22l313 -275l-14 -15l-307 270h-6zM265 70c0 -29 13 -55 150 -55h35v-15h-400v15h40c137 0 150 26 150 55v905c0 37 -28 50 -105 50h-25v15h25l130 3v-973z" />
    <glyph glyph-name="idieresis" unicode="&#xef;" horiz-adv-x="500" 
d="M-10 1340c0 21 18 40 40 40c21 0 40 -18 40 -40c0 -21 -18 -40 -40 -40c-21 0 -40 18 -40 40zM430 1340c0 21 18 40 40 40c21 0 40 -18 40 -40c0 -21 -18 -40 -40 -40c-21 0 -40 18 -40 40zM265 70c0 -29 13 -55 150 -55h35v-15h-400v15h40c137 0 150 26 150 55v905
c0 37 -28 50 -105 50h-25v15h25l130 3v-973z" />
    <glyph glyph-name="eth" unicode="&#xf0;" horiz-adv-x="1120" 
d="M541 1041c193 0 322 -117 322 -292c0 -106 -61 -176 -153 -176c-62 0 -104 38 -104 94c0 62 73 84 73 165c0 113 -55 189 -138 189c-268 0 -446 -232 -446 -494c0 -299 230 -511 489 -511c284 0 436 238 436 575c0 52 -4 106 -10 154c-38 296 -164 492 -323 585
l-109 -124l-16 14l106 120c-66 35 -138 53 -211 53c-20 0 -39 0 -59 -3c-37 -5 -75 -12 -113 -24l-6 19c40 12 78 19 116 24c21 3 41 4 62 4c78 0 154 -18 225 -56l109 123l16 -14l-106 -120c165 -97 295 -298 334 -597c7 -54 10 -106 10 -156c0 -350 -162 -597 -462 -597
c-272 0 -513 219 -513 530c0 273 189 515 471 515z" />
    <glyph glyph-name="ntilde" unicode="&#xf1;" horiz-adv-x="1250" 
d="M922 1448c9 -2 8 -10 8 -12c-13 -72 -61 -106 -113 -106c-127 0 -184 108 -294 108c-45 0 -82 -27 -93 -87c-2 -9 -10 -9 -12 -9s-10 3 -8 12c12 68 57 106 113 106c124 0 182 -108 294 -108c42 0 82 24 93 88c0 2 3 10 12 8zM110 1040h25l130 3v-352c0 -17 2 -31 7 -31
c4 0 9 7 16 25c79 202 255 360 442 360c214 0 330 -98 330 -280v-689c0 -106 35 -174 69 -174c61 0 81 48 140 48c64 0 106 -37 106 -93c0 -78 -67 -130 -167 -130c-104 0 -173 107 -173 268v767c0 169 -103 260 -305 260c-236 0 -465 -270 -465 -560v-392
c0 -29 13 -55 150 -55h55v-15h-420v15h40c137 0 150 26 150 55v905c0 37 -28 50 -105 50h-25v15z" />
    <glyph glyph-name="ograve" unicode="&#xf2;" 
d="M663 1240l-14 -14l-293 268c-6 6 -1 14 2 17s11 6 17 0zM555 1045c226 0 376 -109 377 -272c0 -106 -53 -176 -133 -176c-65 0 -108 46 -108 114c0 54 57 91 57 155c-1 95 -77 159 -193 159c-271 0 -465 -212 -465 -505s195 -505 465 -505s465 212 465 505
c0 96 -21 184 -59 258l-1 50c54 -85 85 -190 85 -308c0 -304 -206 -525 -490 -525s-490 221 -490 525s205 525 490 525z" />
    <glyph glyph-name="oacute" unicode="&#xf3;" 
d="M447 1240l288 271c6 6 14 3 17 0s8 -11 2 -17l-293 -268zM555 1045c226 0 376 -109 377 -272c0 -106 -53 -176 -133 -176c-65 0 -108 46 -108 114c0 54 57 91 57 155c-1 95 -77 159 -193 159c-271 0 -465 -212 -465 -505s195 -505 465 -505s465 212 465 505
c0 96 -21 184 -59 258l-1 50c54 -85 85 -190 85 -308c0 -304 -206 -525 -490 -525s-490 221 -490 525s205 525 490 525z" />
    <glyph glyph-name="ocircumflex" unicode="&#xf4;" 
d="M240 1210l-14 15l313 275h22l313 -275l-14 -15l-307 270h-6zM555 1045c226 0 376 -109 377 -272c0 -106 -53 -176 -133 -176c-65 0 -108 46 -108 114c0 54 57 91 57 155c-1 95 -77 159 -193 159c-271 0 -465 -212 -465 -505s195 -505 465 -505s465 212 465 505
c0 96 -21 184 -59 258l-1 50c54 -85 85 -190 85 -308c0 -304 -206 -525 -490 -525s-490 221 -490 525s205 525 490 525z" />
    <glyph glyph-name="otilde" unicode="&#xf5;" 
d="M802 1448c9 -2 8 -10 8 -12c-13 -72 -61 -106 -113 -106c-127 0 -184 108 -294 108c-45 0 -82 -27 -93 -87c-2 -9 -10 -9 -12 -9s-10 3 -8 12c12 68 57 106 113 106c124 0 182 -108 294 -108c42 0 82 24 93 88c0 2 3 10 12 8zM555 1045c226 0 376 -109 377 -272
c0 -106 -53 -176 -133 -176c-65 0 -108 46 -108 114c0 54 57 91 57 155c-1 95 -77 159 -193 159c-271 0 -465 -212 -465 -505s195 -505 465 -505s465 212 465 505c0 96 -21 184 -59 258l-1 50c54 -85 85 -190 85 -308c0 -304 -206 -525 -490 -525s-490 221 -490 525
s205 525 490 525z" />
    <glyph glyph-name="odieresis" unicode="&#xf6;" 
d="M270 1340c0 21 18 40 40 40c21 0 40 -18 40 -40c0 -21 -18 -40 -40 -40c-21 0 -40 18 -40 40zM750 1340c0 21 18 40 40 40c21 0 40 -18 40 -40c0 -21 -18 -40 -40 -40c-21 0 -40 18 -40 40zM555 1045c226 0 376 -109 377 -272c0 -106 -53 -176 -133 -176
c-65 0 -108 46 -108 114c0 54 57 91 57 155c-1 95 -77 159 -193 159c-271 0 -465 -212 -465 -505s195 -505 465 -505s465 212 465 505c0 96 -21 184 -59 258l-1 50c54 -85 85 -190 85 -308c0 -304 -206 -525 -490 -525s-490 221 -490 525s205 525 490 525z" />
    <glyph glyph-name="divide" unicode="&#xf7;" horiz-adv-x="880" 
d="M800 740h-720v20h720v-20zM400 1055c0 21 18 40 40 40c21 0 40 -18 40 -40c0 -21 -18 -40 -40 -40c-21 0 -40 18 -40 40zM400 455c0 21 18 40 40 40c21 0 40 -18 40 -40c0 -21 -18 -40 -40 -40c-21 0 -40 18 -40 40z" />
    <glyph glyph-name="oslash" unicode="&#xf8;" 
d="M555 1045c124 0 233 -42 317 -115l110 136l16 -12l-111 -138c99 -94 158 -233 158 -396c0 -304 -206 -525 -490 -525c-124 0 -233 42 -317 115l-110 -136l-16 12l111 138c-99 94 -158 233 -158 396c0 118 31 223 85 308l-1 -50c-38 -74 -59 -162 -59 -258
c0 -156 55 -289 147 -379l621 771c-80 71 -184 113 -303 113c-116 0 -192 -64 -193 -159c0 -64 57 -101 57 -155c0 -68 -43 -114 -108 -114c-80 0 -133 70 -133 176c1 163 151 272 377 272zM555 15c270 0 465 212 465 505c0 156 -55 289 -147 379l-621 -771
c80 -71 184 -113 303 -113z" />
    <glyph glyph-name="ugrave" unicode="&#xf9;" horiz-adv-x="1220" 
d="M703 1240l-14 -14l-293 268c-6 6 -1 14 2 17s11 6 17 0zM50 1040h25l130 3v-765c0 -169 103 -260 305 -260c236 0 465 270 465 560v102c0 166 -74 277 -185 277c-75 0 -125 39 -125 97c0 66 47 111 119 111c129 0 216 -164 216 -409v-507l9 -100c7 -74 35 -133 65 -134
l96 16l4 -20l-97 -16h-2c-52 0 -84 78 -91 152l-9 101v101c0 17 -2 31 -7 31c-4 0 -9 -7 -16 -25c-79 -202 -255 -360 -442 -360c-214 0 -330 98 -330 280v700c0 37 -28 50 -105 50h-25v15z" />
    <glyph glyph-name="uacute" unicode="&#xfa;" horiz-adv-x="1220" 
d="M487 1240l288 271c6 6 14 3 17 0s8 -11 2 -17l-293 -268zM50 1040h25l130 3v-765c0 -169 103 -260 305 -260c236 0 465 270 465 560v102c0 166 -74 277 -185 277c-75 0 -125 39 -125 97c0 66 47 111 119 111c129 0 216 -164 216 -409v-507l9 -100c7 -74 35 -133 65 -134
l96 16l4 -20l-97 -16h-2c-52 0 -84 78 -91 152l-9 101v101c0 17 -2 31 -7 31c-4 0 -9 -7 -16 -25c-79 -202 -255 -360 -442 -360c-214 0 -330 98 -330 280v700c0 37 -28 50 -105 50h-25v15z" />
    <glyph glyph-name="ucircumflex" unicode="&#xfb;" horiz-adv-x="1220" 
d="M280 1210l-14 15l313 275h22l313 -275l-14 -15l-307 270h-6zM50 1040h25l130 3v-765c0 -169 103 -260 305 -260c236 0 465 270 465 560v102c0 166 -74 277 -185 277c-75 0 -125 39 -125 97c0 66 47 111 119 111c129 0 216 -164 216 -409v-507l9 -100
c7 -74 35 -133 65 -134l96 16l4 -20l-97 -16h-2c-52 0 -84 78 -91 152l-9 101v101c0 17 -2 31 -7 31c-4 0 -9 -7 -16 -25c-79 -202 -255 -360 -442 -360c-214 0 -330 98 -330 280v700c0 37 -28 50 -105 50h-25v15z" />
    <glyph glyph-name="udieresis" unicode="&#xfc;" horiz-adv-x="1220" 
d="M310 1340c0 21 18 40 40 40c21 0 40 -18 40 -40c0 -21 -18 -40 -40 -40c-21 0 -40 18 -40 40zM790 1340c0 21 18 40 40 40c21 0 40 -18 40 -40c0 -21 -18 -40 -40 -40c-21 0 -40 18 -40 40zM50 1040h25l130 3v-765c0 -169 103 -260 305 -260c236 0 465 270 465 560v102
c0 166 -74 277 -185 277c-75 0 -125 39 -125 97c0 66 47 111 119 111c129 0 216 -164 216 -409v-507l9 -100c7 -74 35 -133 65 -134l96 16l4 -20l-97 -16h-2c-52 0 -84 78 -91 152l-9 101v101c0 17 -2 31 -7 31c-4 0 -9 -7 -16 -25c-79 -202 -255 -360 -442 -360
c-214 0 -330 98 -330 280v700c0 37 -28 50 -105 50h-25v15z" />
    <glyph glyph-name="yacute" unicode="&#xfd;" horiz-adv-x="1160" 
d="M457 1240l288 271c6 6 14 3 17 0s8 -11 2 -17l-293 -268zM742 1040h398v-15h-11c-70 0 -106 -21 -128 -74l-465 -1106c-87 -204 -217 -324 -425 -324c-114 0 -206 69 -206 153c0 63 56 114 124 114c101 0 98 -63 223 -63c103 0 218 35 263 133l54 117c1 2 1 4 1 7
c0 14 -9 41 -15 56l-352 852c-43 104 -59 118 -124 118c-14 0 -29 -2 -47 -8c-2 -1 -5 -2 -7 -2c-12 0 -19 6 -19 19c0 26 49 28 68 28c88 0 107 -37 153 -149l343 -827c9 -21 12 -29 19 -29s10 9 19 30l375 887c5 13 9 23 9 32c0 32 -43 36 -150 36h-100v15z" />
    <glyph glyph-name="thorn" unicode="&#xfe;" horiz-adv-x="1145" 
d="M110 1520h25l130 3v-626c122 90 253 148 382 148c251 0 433 -221 433 -525s-185 -525 -443 -525c-188 0 -312 125 -312 312c0 106 53 176 133 176c65 0 108 -46 108 -114c0 -54 -57 -91 -57 -155c0 -119 50 -199 128 -199c243 0 418 212 418 505s-171 505 -408 505
c-127 0 -258 -59 -382 -153v-1282c0 -29 13 -55 150 -55h75v-15h-440v15h40c137 0 150 26 150 55v1865c0 37 -28 50 -105 50h-25v15z" />
    <glyph glyph-name="ydieresis" unicode="&#xff;" horiz-adv-x="1160" 
d="M280 1340c0 21 18 40 40 40c21 0 40 -18 40 -40c0 -21 -18 -40 -40 -40c-21 0 -40 18 -40 40zM760 1340c0 21 18 40 40 40c21 0 40 -18 40 -40c0 -21 -18 -40 -40 -40c-21 0 -40 18 -40 40zM742 1040h398v-15h-11c-70 0 -106 -21 -128 -74l-465 -1106
c-87 -204 -217 -324 -425 -324c-114 0 -206 69 -206 153c0 63 56 114 124 114c101 0 98 -63 223 -63c103 0 218 35 263 133l54 117c1 2 1 4 1 7c0 14 -9 41 -15 56l-352 852c-43 104 -59 118 -124 118c-14 0 -29 -2 -47 -8c-2 -1 -5 -2 -7 -2c-12 0 -19 6 -19 19
c0 26 49 28 68 28c88 0 107 -37 153 -149l343 -827c9 -21 12 -29 19 -29s10 9 19 30l375 887c5 13 9 23 9 32c0 32 -43 36 -150 36h-100v15z" />
    <glyph glyph-name="Amacron" unicode="&#x100;" horiz-adv-x="1330" 
d="M1009 1800h-640v20h640v-20zM1132 241l-86 239h-726l-143 -397c-3 -10 -5 -18 -5 -25c0 -36 44 -43 147 -43h41v-15h-340v15h5c86 0 115 20 134 74l510 1424c2 5 6 7 9 7h27c7 0 10 -6 10 -10c0 -20 5 -49 25 -104l428 -1194c64 -180 140 -467 451 -467
c81 0 113 43 175 43c68 0 124 -51 124 -114c0 -84 -92 -153 -206 -153c-323 0 -428 297 -580 720zM327 500h712l-322 900c-18 50 -20 62 -21 67h-23z" />
    <glyph glyph-name="amacron" unicode="&#x101;" 
d="M840 1400h-640v20h640v-20zM571 1045c192 0 329 -136 329 -324v-486l16 -95c14 -84 33 -119 61 -120l107 10l2 -20l-109 -15h-1c-49 0 -72 60 -85 141c-5 31 -16 90 -16 98v22c0 18 -3 27 -7 27s-9 -7 -15 -21c-69 -148 -218 -267 -398 -267c-226 0 -390 111 -390 265
c0 192 185 259 389 280c124 13 379 22 416 143c3 11 5 22 5 32v6c-1 175 -123 304 -301 304c-135 0 -225 -48 -225 -119c0 -81 73 -103 73 -165c0 -56 -42 -94 -104 -94c-92 0 -153 70 -153 176c0 133 162 222 406 222zM875 646c-67 -111 -309 -115 -419 -126
c-202 -21 -366 -85 -366 -260c0 -142 153 -245 365 -245c237 0 420 218 420 430v201z" />
    <glyph glyph-name="Abreve" unicode="&#x102;" horiz-adv-x="1330" 
d="M689 1730c105 0 189 37 249 111l17 -12c-42 -53 -119 -119 -266 -119c-151 0 -226 69 -266 119l17 12c64 -78 148 -111 249 -111zM1132 241l-86 239h-726l-143 -397c-3 -10 -5 -18 -5 -25c0 -36 44 -43 147 -43h41v-15h-340v15h5c86 0 115 20 134 74l510 1424
c2 5 6 7 9 7h27c7 0 10 -6 10 -10c0 -20 5 -49 25 -104l428 -1194c64 -180 140 -467 451 -467c81 0 113 43 175 43c68 0 124 -51 124 -114c0 -84 -92 -153 -206 -153c-323 0 -428 297 -580 720zM327 500h712l-322 900c-18 50 -20 62 -21 67h-23z" />
    <glyph glyph-name="abreve" unicode="&#x103;" 
d="M520 1330c105 0 189 37 249 111l17 -12c-42 -53 -119 -119 -266 -119c-151 0 -226 69 -266 119l17 12c64 -78 148 -111 249 -111zM571 1045c192 0 329 -136 329 -324v-486l16 -95c14 -84 33 -119 61 -120l107 10l2 -20l-109 -15h-1c-49 0 -72 60 -85 141
c-5 31 -16 90 -16 98v22c0 18 -3 27 -7 27s-9 -7 -15 -21c-69 -148 -218 -267 -398 -267c-226 0 -390 111 -390 265c0 192 185 259 389 280c124 13 379 22 416 143c3 11 5 22 5 32v6c-1 175 -123 304 -301 304c-135 0 -225 -48 -225 -119c0 -81 73 -103 73 -165
c0 -56 -42 -94 -104 -94c-92 0 -153 70 -153 176c0 133 162 222 406 222zM875 646c-67 -111 -309 -115 -419 -126c-202 -21 -366 -85 -366 -260c0 -142 153 -245 365 -245c237 0 420 218 420 430v201z" />
    <glyph glyph-name="Aogonek" unicode="&#x104;" horiz-adv-x="1400" 
d="M678 1520h27c7 0 10 -6 10 -10c0 -20 5 -49 25 -104l469 -1308c23 -63 52 -83 131 -83h40v-15h-96c-74 0 -123 -15 -153 -41c-25 -22 -36 -51 -36 -83c0 -56 68 -97 148 -97c59 0 99 -32 99 -79c0 -61 -71 -101 -178 -101c-106 0 -163 78 -164 159c0 97 53 167 117 216
c26 20 78 41 78 76c0 11 -3 25 -10 44l-139 386h-726l-143 -397c-3 -10 -5 -18 -5 -25c0 -36 44 -43 147 -43h41v-15h-340v15h5c86 0 115 20 134 74l510 1424c2 5 6 7 9 7zM327 500h712l-322 900c-18 50 -20 62 -21 67h-23z" />
    <glyph glyph-name="aogonek" unicode="&#x105;" 
d="M571 1045c192 0 328 -138 329 -324v-276v-210l16 -95c14 -84 31 -119 59 -120l109 10l2 -20l-11 -2c-100 -16 -303 -69 -303 -249c1 -71 45 -139 139 -139c52 0 111 22 168 86c6 7 13 2 15 1c1 -1 6 -7 0 -14c-60 -68 -125 -93 -183 -93c-106 0 -163 78 -164 159
c0 134 111 204 210 239c-36 14 -54 69 -66 138l-16 96v2v84c-55 -174 -218 -323 -420 -323c-226 0 -390 111 -390 265c0 192 185 259 389 280c125 13 379 22 416 143c4 11 5 22 5 32v6c-1 175 -122 304 -301 304c-135 0 -225 -48 -225 -119c0 -81 73 -103 73 -165
c0 -56 -42 -94 -104 -94c-92 0 -153 70 -153 176c0 133 162 222 406 222zM455 15c238 0 420 218 420 430v201c-67 -111 -308 -115 -419 -126c-202 -21 -366 -85 -366 -260c0 -142 153 -245 365 -245zM875 646z" />
    <glyph glyph-name="Cacute" unicode="&#x106;" horiz-adv-x="1140" 
d="M572 1640l288 271c6 6 14 3 17 0s8 -11 2 -17l-293 -268zM675 1525c244 0 406 -117 406 -292c0 -118 -61 -196 -153 -196c-68 0 -114 46 -114 114c0 62 83 94 83 175c0 107 -89 179 -222 179c-353 0 -590 -297 -590 -743c0 -438 222 -747 590 -747c177 0 309 77 397 164
l14 -14c-91 -89 -228 -170 -411 -170c-382 0 -610 323 -610 767c0 458 245 763 610 763z" />
    <glyph glyph-name="cacute" unicode="&#x107;" horiz-adv-x="1010" 
d="M432 1240l288 271c6 6 14 3 17 0s8 -11 2 -17l-293 -268zM555 1045c244 0 406 -101 406 -252c0 -106 -61 -176 -153 -176c-62 0 -104 38 -104 94c0 62 73 84 73 165c0 107 -92 149 -225 149c-268 0 -462 -211 -462 -507c0 -294 200 -503 485 -503c128 0 264 43 367 130
l13 -15c-107 -91 -248 -135 -380 -135c-296 0 -510 218 -510 523c0 306 208 527 490 527z" />
    <glyph glyph-name="Ccircumflex" unicode="&#x108;" horiz-adv-x="1140" 
d="M365 1610l-14 15l313 275h22l313 -275l-14 -15l-307 270h-6zM675 1525c244 0 406 -117 406 -292c0 -118 -61 -196 -153 -196c-68 0 -114 46 -114 114c0 62 83 94 83 175c0 107 -89 179 -222 179c-353 0 -590 -297 -590 -743c0 -438 222 -747 590 -747
c177 0 309 77 397 164l14 -14c-91 -89 -228 -170 -411 -170c-382 0 -610 323 -610 767c0 458 245 763 610 763z" />
    <glyph glyph-name="ccircumflex" unicode="&#x109;" horiz-adv-x="1010" 
d="M225 1210l-14 15l313 275h22l313 -275l-14 -15l-307 270h-6zM555 1045c244 0 406 -101 406 -252c0 -106 -61 -176 -153 -176c-62 0 -104 38 -104 94c0 62 73 84 73 165c0 107 -92 149 -225 149c-268 0 -462 -211 -462 -507c0 -294 200 -503 485 -503
c128 0 264 43 367 130l13 -15c-107 -91 -248 -135 -380 -135c-296 0 -510 218 -510 523c0 306 208 527 490 527z" />
    <glyph glyph-name="Cdotaccent" unicode="&#x10a;" horiz-adv-x="1140" 
d="M600 1780c0 46 38 75 75 75c46 0 75 -38 75 -75c0 -46 -38 -75 -75 -75c-46 0 -75 38 -75 75zM675 1525c244 0 406 -117 406 -292c0 -118 -61 -196 -153 -196c-68 0 -114 46 -114 114c0 62 83 94 83 175c0 107 -89 179 -222 179c-353 0 -590 -297 -590 -743
c0 -438 222 -747 590 -747c177 0 309 77 397 164l14 -14c-91 -89 -228 -170 -411 -170c-382 0 -610 323 -610 767c0 458 245 763 610 763z" />
    <glyph glyph-name="cdotaccent" unicode="&#x10b;" horiz-adv-x="1010" 
d="M460 1380c0 46 38 75 75 75c46 0 75 -38 75 -75c0 -46 -38 -75 -75 -75c-46 0 -75 38 -75 75zM555 1045c244 0 406 -101 406 -252c0 -106 -61 -176 -153 -176c-62 0 -104 38 -104 94c0 62 73 84 73 165c0 107 -92 149 -225 149c-268 0 -462 -211 -462 -507
c0 -294 200 -503 485 -503c128 0 264 43 367 130l13 -15c-107 -91 -248 -135 -380 -135c-296 0 -510 218 -510 523c0 306 208 527 490 527z" />
    <glyph glyph-name="Ccaron" unicode="&#x10c;" horiz-adv-x="1140" 
d="M365 1910l307 -270h6l307 270l14 -15l-313 -275h-22l-313 275zM675 1525c244 0 406 -117 406 -292c0 -118 -61 -196 -153 -196c-68 0 -114 46 -114 114c0 62 83 94 83 175c0 107 -89 179 -222 179c-353 0 -590 -297 -590 -743c0 -438 222 -747 590 -747
c177 0 309 77 397 164l14 -14c-91 -89 -228 -170 -411 -170c-382 0 -610 323 -610 767c0 458 245 763 610 763z" />
    <glyph glyph-name="ccaron" unicode="&#x10d;" horiz-adv-x="1010" 
d="M225 1510l307 -270h6l307 270l14 -15l-313 -275h-22l-313 275zM555 1045c244 0 406 -101 406 -252c0 -106 -61 -176 -153 -176c-62 0 -104 38 -104 94c0 62 73 84 73 165c0 107 -92 149 -225 149c-268 0 -462 -211 -462 -507c0 -294 200 -503 485 -503
c128 0 264 43 367 130l13 -15c-107 -91 -248 -135 -380 -135c-296 0 -510 218 -510 523c0 306 208 527 490 527z" />
    <glyph glyph-name="Dcaron" unicode="&#x10e;" horiz-adv-x="1420" 
d="M365 1910l307 -270h6l307 270l14 -15l-313 -275h-22l-313 275zM50 1520h575c423 0 730 -319 730 -760s-307 -760 -730 -760h-575v15l216 5h354c412 0 710 311 710 740s-298 740 -710 740h-355v-1078c0 -95 67 -158 174 -158c81 0 113 83 175 83c68 0 114 -46 114 -114
c0 -92 -78 -153 -196 -153c-175 0 -292 138 -292 346v1023c0 29 -13 56 -150 56h-40v15z" />
    <glyph glyph-name="dcaron" unicode="&#x10f;" horiz-adv-x="1145" 
d="M730 1520h45l130 3v-1274l9 -100c7 -74 35 -135 65 -136l97 18l4 -20l-98 -16h-2c-52 0 -84 78 -91 152l-4 45c-2 17 -5 27 -11 27s-12 -7 -20 -21c-72 -123 -195 -203 -346 -203c-257 0 -443 221 -443 525s183 525 433 525c193 0 322 -117 322 -292
c0 -106 -61 -176 -153 -176c-62 0 -104 38 -104 94c0 62 73 84 73 165c0 113 -55 189 -138 189c-236 0 -408 -212 -408 -505s176 -505 418 -505c181 0 318 121 372 296v1144c0 37 -28 50 -105 50h-45v15zM1088 1483c0 21 18 40 40 40c21 0 40 -18 40 -40
c0 -89 -28 -143 -93 -214l-15 13c55 60 83 110 83 164h-1c-4 -2 -9 -3 -14 -3c-21 0 -40 18 -40 40z" />
    <glyph glyph-name="Dcroat" unicode="&#x110;" horiz-adv-x="1460" 
d="M90 0v15l216 5h354c412 0 710 311 710 740s-298 740 -710 740h-354v-730h336l-4 -20h-333l1 -328c0 -95 66 -158 173 -158c81 0 113 83 175 83c68 0 114 -46 114 -114c0 -92 -78 -153 -196 -153c-175 0 -292 138 -292 346v324h-202l4 20h198v685c0 31 -18 50 -150 50h-40
v15h575c423 0 730 -319 730 -760s-307 -760 -730 -760h-575z" />
    <glyph glyph-name="dcroat" unicode="&#x111;" horiz-adv-x="1125" 
d="M498 1045c193 0 322 -117 322 -292c0 -106 -61 -176 -153 -176c-62 0 -104 38 -104 94c0 62 73 84 73 165c0 113 -55 189 -138 189c-236 0 -408 -212 -408 -505s176 -505 418 -505c181 0 318 121 372 296v929h-402l4 20h398v195c0 37 -28 50 -105 50h-45v15h45l130 3
v-263h137l-4 -20h-133v-991l9 -100c7 -74 35 -135 65 -136l97 18l4 -20l-98 -16h-2c-52 0 -84 78 -91 152l-4 45c-2 17 -5 27 -11 27s-12 -7 -20 -21c-72 -123 -195 -203 -346 -203c-257 0 -443 221 -443 525s183 525 433 525z" />
    <glyph glyph-name="Emacron" unicode="&#x112;" horiz-adv-x="1290" 
d="M980 1800h-640v20h640v-20zM50 1520h1070c7 0 10 -6 10 -9l25 -380l-20 -2l-16 254c-6 88 -39 117 -127 117h-726l-1 -810h205c114 0 190 64 190 159c0 81 -83 113 -83 175c0 68 46 114 114 114c92 0 153 -78 153 -196c0 -163 -150 -272 -374 -272h-205v-650h807
c91 0 121 32 127 117l16 254l20 -2l-25 -380c0 -7 -7 -9 -10 -9h-1150v15h40c137 0 150 27 150 56v1384c0 31 -18 50 -150 50h-40v15z" />
    <glyph glyph-name="emacron" unicode="&#x113;" horiz-adv-x="1090" 
d="M895 1400h-640v20h640v-20zM555 1045c286 0 470 -215 470 -505c0 -7 -6 -10 -10 -10h-524c-208 0 -346 89 -346 222c0 106 61 176 153 176c62 0 104 -38 104 -94c0 -62 -73 -84 -73 -165c0 -71 66 -119 165 -119h455c35 0 45 35 45 68c0 11 -1 21 -3 30
c-39 223 -198 377 -436 377c-92 0 -177 -25 -248 -70h-38c79 57 177 90 286 90zM102 732l14 -34c-17 -54 -26 -112 -26 -178c0 -292 187 -505 455 -505c226 0 364 98 439 231l18 -10c-78 -139 -225 -241 -457 -241c-281 0 -480 224 -480 525c0 80 13 148 37 212z" />
    <glyph glyph-name="Ebreve" unicode="&#x114;" horiz-adv-x="1290" 
d="M660 1730c105 0 189 37 249 111l17 -12c-42 -53 -119 -119 -266 -119c-151 0 -226 69 -266 119l17 12c64 -78 148 -111 249 -111zM50 1520h1070c7 0 10 -6 10 -9l25 -380l-20 -2l-16 254c-6 88 -39 117 -127 117h-726l-1 -810h205c114 0 190 64 190 159
c0 81 -83 113 -83 175c0 68 46 114 114 114c92 0 153 -78 153 -196c0 -163 -150 -272 -374 -272h-205v-650h807c91 0 121 32 127 117l16 254l20 -2l-25 -380c0 -7 -7 -9 -10 -9h-1150v15h40c137 0 150 27 150 56v1384c0 31 -18 50 -150 50h-40v15z" />
    <glyph glyph-name="ebreve" unicode="&#x115;" horiz-adv-x="1090" 
d="M575 1330c105 0 189 37 249 111l17 -12c-42 -53 -119 -119 -266 -119c-151 0 -226 69 -266 119l17 12c64 -78 148 -111 249 -111zM555 1045c286 0 470 -215 470 -505c0 -7 -6 -10 -10 -10h-524c-208 0 -346 89 -346 222c0 106 61 176 153 176c62 0 104 -38 104 -94
c0 -62 -73 -84 -73 -165c0 -71 66 -119 165 -119h455c35 0 45 35 45 68c0 11 -1 21 -3 30c-39 223 -198 377 -436 377c-92 0 -177 -25 -248 -70h-38c79 57 177 90 286 90zM102 732l14 -34c-17 -54 -26 -112 -26 -178c0 -292 187 -505 455 -505c226 0 364 98 439 231l18 -10
c-78 -139 -225 -241 -457 -241c-281 0 -480 224 -480 525c0 80 13 148 37 212z" />
    <glyph glyph-name="Edotaccent" unicode="&#x116;" horiz-adv-x="1290" 
d="M585 1780c0 46 38 75 75 75c46 0 75 -38 75 -75c0 -46 -38 -75 -75 -75c-46 0 -75 38 -75 75zM50 1520h1070c7 0 10 -6 10 -9l25 -380l-20 -2l-16 254c-6 88 -39 117 -127 117h-726l-1 -810h205c114 0 190 64 190 159c0 81 -83 113 -83 175c0 68 46 114 114 114
c92 0 153 -78 153 -196c0 -163 -150 -272 -374 -272h-205v-650h807c91 0 121 32 127 117l16 254l20 -2l-25 -380c0 -7 -7 -9 -10 -9h-1150v15h40c137 0 150 27 150 56v1384c0 31 -18 50 -150 50h-40v15z" />
    <glyph glyph-name="edotaccent" unicode="&#x117;" horiz-adv-x="1090" 
d="M500 1380c0 46 38 75 75 75c46 0 75 -38 75 -75c0 -46 -38 -75 -75 -75c-46 0 -75 38 -75 75zM555 1045c286 0 470 -215 470 -505c0 -7 -6 -10 -10 -10h-524c-208 0 -346 89 -346 222c0 106 61 176 153 176c62 0 104 -38 104 -94c0 -62 -73 -84 -73 -165
c0 -71 66 -119 165 -119h455c35 0 45 35 45 68c0 11 -1 21 -3 30c-39 223 -198 377 -436 377c-92 0 -177 -25 -248 -70h-38c79 57 177 90 286 90zM102 732l14 -34c-17 -54 -26 -112 -26 -178c0 -292 187 -505 455 -505c226 0 364 98 439 231l18 -10
c-78 -139 -225 -241 -457 -241c-281 0 -480 224 -480 525c0 80 13 148 37 212z" />
    <glyph glyph-name="Eogonek" unicode="&#x118;" horiz-adv-x="1290" 
d="M50 1520h1070c7 0 10 -6 10 -9l25 -380l-20 -2l-16 254c-6 88 -39 117 -127 117h-726l-1 -810h205c114 0 190 64 190 159c0 81 -83 113 -83 175c0 68 46 114 114 114c92 0 153 -78 153 -196c0 -163 -150 -272 -374 -272h-205v-650h807c91 0 121 32 127 117l16 254l20 -2
l-25 -380c0 -7 -7 -9 -10 -9c-50 0 -79 -3 -109 -19c-82 -44 -164 -108 -164 -223c1 -71 45 -139 139 -139c52 0 112 22 168 86c6 7 13 2 15 1c1 -1 6 -7 0 -14c-60 -68 -125 -93 -183 -93c-106 0 -163 78 -164 159c0 124 91 195 178 242h-1030v15h40c137 0 150 27 150 56
v1384c0 31 -18 50 -150 50h-40v15z" />
    <glyph glyph-name="eogonek" unicode="&#x119;" horiz-adv-x="1090" 
d="M555 1045c286 0 470 -215 470 -505c0 -7 -6 -10 -10 -10h-524c-208 0 -346 89 -346 222c0 106 61 176 153 176c62 0 104 -38 104 -94c0 -62 -73 -84 -73 -165c0 -71 66 -119 165 -119h455c35 0 45 35 45 68c0 11 -1 21 -3 30c-39 223 -198 377 -436 377
c-92 0 -177 -25 -248 -70h-38c79 57 177 90 286 90zM545 -5c-281 0 -479 224 -480 525c0 80 13 148 37 212l14 -34c-17 -54 -26 -112 -26 -178c1 -292 187 -505 455 -505c226 0 364 98 439 231l18 -10c-34 -60 -81 -114 -142 -155c-79 -66 -268 -145 -268 -324
c1 -71 45 -138 139 -138c52 0 112 22 168 86c6 7 14 2 15 1s6 -7 0 -14c-60 -68 -125 -93 -183 -93c-106 0 -163 77 -164 158c0 129 93 209 176 267c-58 -19 -123 -29 -198 -29z" />
    <glyph glyph-name="Ecaron" unicode="&#x11a;" horiz-adv-x="1290" 
d="M350 1910l307 -270h6l307 270l14 -15l-313 -275h-22l-313 275zM50 1520h1070c7 0 10 -6 10 -9l25 -380l-20 -2l-16 254c-6 88 -39 117 -127 117h-726l-1 -810h205c114 0 190 64 190 159c0 81 -83 113 -83 175c0 68 46 114 114 114c92 0 153 -78 153 -196
c0 -163 -150 -272 -374 -272h-205v-650h807c91 0 121 32 127 117l16 254l20 -2l-25 -380c0 -7 -7 -9 -10 -9h-1150v15h40c137 0 150 27 150 56v1384c0 31 -18 50 -150 50h-40v15z" />
    <glyph glyph-name="ecaron" unicode="&#x11b;" horiz-adv-x="1090" 
d="M265 1510l307 -270h6l307 270l14 -15l-313 -275h-22l-313 275zM555 1045c286 0 470 -215 470 -505c0 -7 -6 -10 -10 -10h-524c-208 0 -346 89 -346 222c0 106 61 176 153 176c62 0 104 -38 104 -94c0 -62 -73 -84 -73 -165c0 -71 66 -119 165 -119h455c35 0 45 35 45 68
c0 11 -1 21 -3 30c-39 223 -198 377 -436 377c-92 0 -177 -25 -248 -70h-38c79 57 177 90 286 90zM102 732l14 -34c-17 -54 -26 -112 -26 -178c0 -292 187 -505 455 -505c226 0 364 98 439 231l18 -10c-78 -139 -225 -241 -457 -241c-281 0 -480 224 -480 525
c0 80 13 148 37 212z" />
    <glyph glyph-name="Gcircumflex" unicode="&#x11c;" horiz-adv-x="1315" 
d="M365 1610l-14 15l313 275h22l313 -275l-14 -15l-307 270h-6zM675 1525c260 0 434 -117 434 -292c0 -118 -61 -196 -153 -196c-68 0 -114 46 -114 114c0 62 83 94 83 175c0 107 -100 179 -250 179c-350 0 -585 -297 -585 -743c0 -433 229 -747 545 -747
c138 0 277 85 377 165c33 27 74 65 93 87v392c0 31 -18 51 -150 51h-200v20h530v-20h-21c-123 0 -139 -22 -139 -51v-664c0 -3 -3 -10 -10 -10c-4 0 -10 3 -10 10v148c0 33 -2 55 -19 55c-12 0 -30 -10 -61 -33c-103 -82 -247 -170 -390 -170c-331 0 -570 322 -570 767
c0 458 245 763 610 763z" />
    <glyph glyph-name="gcircumflex" unicode="&#x11d;" horiz-adv-x="1120" 
d="M220 1210l-14 15l313 275h22l313 -275l-14 -15l-307 270h-6zM530 1045c109 0 200 -32 264 -88c8 -7 14 -11 20 -11s10 4 14 14c18 51 55 84 107 85c23 0 98 -1 98 -28c0 -13 -8 -23 -20 -23c-26 0 -46 31 -80 31c-50 0 -86 -42 -96 -113c48 -61 73 -140 73 -232
c0 -239 -166 -365 -380 -365c-72 0 -136 12 -191 35c-32 -31 -61 -64 -61 -107c0 -28 4 -44 13 -61c48 -89 220 -80 409 -89c234 0 390 -121 390 -302s-201 -271 -547 -271c-308 0 -513 133 -513 332c0 118 61 196 153 196c68 0 114 -46 114 -114c0 -62 -83 -94 -83 -175
c0 -128 132 -214 329 -214c347 0 527 85 527 246c0 167 -148 278 -371 278c-174 9 -366 -7 -426 104c-10 19 -15 38 -15 70c0 49 32 86 62 116c-120 58 -190 172 -190 321c0 242 177 365 400 365zM530 1025c-216 0 -375 -116 -375 -345c0 -211 140 -345 375 -345
c206 0 355 118 355 345c0 208 -131 345 -355 345z" />
    <glyph glyph-name="Gbreve" unicode="&#x11e;" horiz-adv-x="1315" 
d="M675 1730c105 0 189 37 249 111l17 -12c-42 -53 -119 -119 -266 -119c-151 0 -226 69 -266 119l17 12c64 -78 148 -111 249 -111zM675 1525c260 0 434 -117 434 -292c0 -118 -61 -196 -153 -196c-68 0 -114 46 -114 114c0 62 83 94 83 175c0 107 -100 179 -250 179
c-350 0 -585 -297 -585 -743c0 -433 229 -747 545 -747c138 0 277 85 377 165c33 27 74 65 93 87v392c0 31 -18 51 -150 51h-200v20h530v-20h-21c-123 0 -139 -22 -139 -51v-664c0 -3 -3 -10 -10 -10c-4 0 -10 3 -10 10v148c0 33 -2 55 -19 55c-12 0 -30 -10 -61 -33
c-103 -82 -247 -170 -390 -170c-331 0 -570 322 -570 767c0 458 245 763 610 763z" />
    <glyph glyph-name="gbreve" unicode="&#x11f;" horiz-adv-x="1120" 
d="M530 1330c105 0 189 37 249 111l17 -12c-42 -53 -119 -119 -266 -119c-151 0 -226 69 -266 119l17 12c64 -78 148 -111 249 -111zM530 1045c109 0 200 -32 264 -88c8 -7 14 -11 20 -11s10 4 14 14c18 51 55 84 107 85c23 0 98 -1 98 -28c0 -13 -8 -23 -20 -23
c-26 0 -46 31 -80 31c-50 0 -86 -42 -96 -113c48 -61 73 -140 73 -232c0 -239 -166 -365 -380 -365c-72 0 -136 12 -191 35c-32 -31 -61 -64 -61 -107c0 -28 4 -44 13 -61c48 -89 220 -80 409 -89c234 0 390 -121 390 -302s-201 -271 -547 -271c-308 0 -513 133 -513 332
c0 118 61 196 153 196c68 0 114 -46 114 -114c0 -62 -83 -94 -83 -175c0 -128 132 -214 329 -214c347 0 527 85 527 246c0 167 -148 278 -371 278c-174 9 -366 -7 -426 104c-10 19 -15 38 -15 70c0 49 32 86 62 116c-120 58 -190 172 -190 321c0 242 177 365 400 365z
M530 1025c-216 0 -375 -116 -375 -345c0 -211 140 -345 375 -345c206 0 355 118 355 345c0 208 -131 345 -355 345z" />
    <glyph glyph-name="Gdotaccent" unicode="&#x120;" horiz-adv-x="1315" 
d="M600 1780c0 46 38 75 75 75c46 0 75 -38 75 -75c0 -46 -38 -75 -75 -75c-46 0 -75 38 -75 75zM675 1525c260 0 434 -117 434 -292c0 -118 -61 -196 -153 -196c-68 0 -114 46 -114 114c0 62 83 94 83 175c0 107 -100 179 -250 179c-350 0 -585 -297 -585 -743
c0 -433 229 -747 545 -747c138 0 277 85 377 165c33 27 74 65 93 87v392c0 31 -18 51 -150 51h-200v20h530v-20h-21c-123 0 -139 -22 -139 -51v-664c0 -3 -3 -10 -10 -10c-4 0 -10 3 -10 10v148c0 33 -2 55 -19 55c-12 0 -30 -10 -61 -33c-103 -82 -247 -170 -390 -170
c-331 0 -570 322 -570 767c0 458 245 763 610 763z" />
    <glyph glyph-name="gdotaccent" unicode="&#x121;" horiz-adv-x="1120" 
d="M455 1380c0 46 38 75 75 75c46 0 75 -38 75 -75c0 -46 -38 -75 -75 -75c-46 0 -75 38 -75 75zM530 1045c109 0 200 -32 264 -88c8 -7 14 -11 20 -11s10 4 14 14c18 51 55 84 107 85c23 0 98 -1 98 -28c0 -13 -8 -23 -20 -23c-26 0 -46 31 -80 31c-50 0 -86 -42 -96 -113
c48 -61 73 -140 73 -232c0 -239 -166 -365 -380 -365c-72 0 -136 12 -191 35c-32 -31 -61 -64 -61 -107c0 -28 4 -44 13 -61c48 -89 220 -80 409 -89c234 0 390 -121 390 -302s-201 -271 -547 -271c-308 0 -513 133 -513 332c0 118 61 196 153 196c68 0 114 -46 114 -114
c0 -62 -83 -94 -83 -175c0 -128 132 -214 329 -214c347 0 527 85 527 246c0 167 -148 278 -371 278c-174 9 -366 -7 -426 104c-10 19 -15 38 -15 70c0 49 32 86 62 116c-120 58 -190 172 -190 321c0 242 177 365 400 365zM530 1025c-216 0 -375 -116 -375 -345
c0 -211 140 -345 375 -345c206 0 355 118 355 345c0 208 -131 345 -355 345z" />
    <glyph glyph-name="Gcommaaccent" unicode="&#x122;" horiz-adv-x="1315" 
d="M675 1525c260 0 434 -117 434 -292c0 -118 -61 -196 -153 -196c-68 0 -114 46 -114 114c0 62 83 94 83 175c0 107 -100 179 -250 179c-350 0 -585 -297 -585 -743c0 -433 229 -747 545 -747c138 0 277 85 377 165c33 27 74 65 93 87v392c0 31 -18 51 -150 51h-200v20h530
v-20h-21c-123 0 -139 -22 -139 -51v-664c0 -3 -3 -10 -10 -10c-4 0 -10 3 -10 10v148c0 33 -2 55 -19 55c-12 0 -30 -10 -61 -33c-103 -82 -247 -170 -390 -170c-331 0 -570 322 -570 767c0 458 245 763 610 763zM599 -183c0 21 18 40 40 40c21 0 40 -18 40 -40
c0 -89 -28 -143 -93 -214l-15 13c55 60 83 110 83 164h-1c-4 -2 -9 -3 -14 -3c-21 0 -40 18 -40 40z" />
    <glyph glyph-name="gcommaaccent" unicode="&#x123;" horiz-adv-x="1120" 
d="M530 1045c109 0 200 -32 264 -88c8 -7 14 -11 20 -11s10 4 14 14c18 51 55 84 107 85c23 0 98 -1 98 -28c0 -13 -8 -23 -20 -23c-26 0 -46 31 -80 31c-50 0 -86 -42 -96 -113c48 -61 73 -140 73 -232c0 -239 -166 -365 -380 -365c-72 0 -136 12 -191 35
c-32 -31 -61 -64 -61 -107c0 -28 4 -44 13 -61c48 -89 220 -80 409 -89c188 -9 390 -45 390 -302c0 -181 -201 -271 -547 -271c-308 0 -513 133 -513 332c0 118 61 196 153 196c68 0 114 -46 114 -114c0 -62 -83 -94 -83 -175c0 -128 132 -214 329 -214
c347 0 527 85 527 246c0 234 -180 269 -371 278c-174 9 -366 -7 -426 104c-10 19 -15 38 -15 70c0 49 32 86 62 116c-120 58 -190 172 -190 321c0 242 177 365 400 365zM530 1025c-216 0 -375 -116 -375 -345c0 -211 140 -345 375 -345c206 0 355 118 355 345
c0 208 -131 345 -355 345zM565 1333c0 -21 -18 -40 -40 -40c-21 0 -40 18 -40 40c0 89 28 143 93 214l15 -13c-55 -60 -83 -110 -83 -164h1c4 2 9 3 14 3c21 0 40 -18 40 -40z" />
    <glyph glyph-name="Hcircumflex" unicode="&#x124;" horiz-adv-x="1460" 
d="M420 1610l-14 15l313 275h22l313 -275l-14 -15l-307 270h-6zM50 1520h440v-15h-75c-137 0 -150 -23 -150 -52v-633h930v420c0 455 185 759 545 759c114 0 206 -69 206 -153c0 -63 -56 -114 -124 -114c-62 0 -94 43 -175 43c-292 0 -427 -262 -427 -592v-1111
c0 -29 13 -57 150 -57h40v-15h-440v15h75c137 0 150 28 150 57v728h-930v-728c0 -29 13 -57 150 -57h75v-15h-440v15h40c137 0 150 28 150 57v1381c0 29 -13 52 -150 52h-40v15z" />
    <glyph glyph-name="hcircumflex" unicode="&#x125;" horiz-adv-x="1250" 
d="M730 1045c214 0 330 -98 330 -280v-689c0 -106 35 -174 69 -174c61 0 81 48 140 48c64 0 106 -37 106 -93c0 -78 -67 -130 -167 -130c-104 0 -173 107 -173 268v767c0 169 -107 260 -305 260c-232 0 -465 -280 -465 -560v-392c0 -29 13 -55 150 -55h55v-15h-420v15h40
c137 0 150 26 150 55v1385c0 37 -28 50 -105 50h-45v15h45l130 3v-832c0 -17 2 -31 7 -31c4 0 9 7 16 25c79 202 255 360 442 360zM375 1610l-14 15l313 275h22l313 -275l-14 -15l-307 270h-6z" />
    <glyph glyph-name="Hbar" unicode="&#x126;" horiz-adv-x="1460" 
d="M50 1520h440v-15h-75c-137 0 -150 -23 -150 -52v-233h930v20c0 454 184 759 545 759c114 0 206 -69 206 -153c0 -63 -56 -114 -124 -114c-62 0 -94 43 -175 43c-281 0 -417 -243 -427 -555h142l-4 -20h-138v-1128c0 -29 13 -57 150 -57h40v-15h-440v15h75
c137 0 150 28 150 57v728h-930v-728c0 -29 13 -57 150 -57h75v-15h-440v15h40c137 0 150 28 150 57v1128h-122l4 20h118v233c0 29 -13 52 -150 52h-40v15zM1195 1200h-930v-380h930v380z" />
    <glyph glyph-name="hbar" unicode="&#x127;" horiz-adv-x="1290" 
d="M50 0v15h40c137 0 150 26 150 55v1170h-192l4 20h188v195c0 37 -28 50 -105 50h-45v15h45l130 3v-263h320c99 0 165 48 165 119c0 81 -73 103 -73 165c0 56 42 94 104 94c92 0 153 -70 153 -176c0 -133 -138 -222 -346 -222h-323v-549c0 -17 2 -31 7 -31c4 0 9 7 16 25
c79 202 255 360 442 360c214 0 330 -98 330 -280v-695c0 -29 13 -55 150 -55h40v-15h-420v15h55c137 0 150 26 150 55v692c0 169 -107 260 -305 260c-232 0 -465 -280 -465 -560v-392c0 -29 13 -55 150 -55h55v-15h-420z" />
    <glyph glyph-name="Itilde" unicode="&#x128;" horiz-adv-x="500" 
d="M505 1848c9 -2 8 -10 8 -12c-13 -72 -61 -106 -113 -106c-127 0 -184 108 -294 108c-45 0 -82 -27 -93 -87c-2 -9 -10 -9 -12 -9s-10 3 -8 12c12 68 57 106 113 106c124 0 182 -108 294 -108c42 0 82 24 93 88c0 2 3 10 12 8zM450 0h-400v15h40c137 0 150 26 150 55v1383
c0 31 -18 52 -150 52h-40v15h400v-15h-35c-132 0 -150 -21 -150 -52v-1383c0 -29 13 -55 150 -55h35v-15z" />
    <glyph glyph-name="itilde" unicode="&#x129;" horiz-adv-x="500" 
d="M502 1448c9 -2 8 -10 8 -12c-13 -72 -61 -106 -113 -106c-127 0 -184 108 -294 108c-45 0 -82 -27 -93 -87c-2 -9 -10 -9 -12 -9s-10 3 -8 12c12 68 57 106 113 106c124 0 182 -108 294 -108c42 0 82 24 93 88c0 2 3 10 12 8zM265 70c0 -29 13 -55 150 -55h35v-15h-400
v15h40c137 0 150 26 150 55v905c0 37 -28 50 -105 50h-25v15h25l130 3v-973z" />
    <glyph glyph-name="Imacron" unicode="&#x12a;" horiz-adv-x="500" 
d="M573 1800h-640v20h640v-20zM450 0h-400v15h40c137 0 150 26 150 55v1383c0 31 -18 52 -150 52h-40v15h400v-15h-35c-132 0 -150 -21 -150 -52v-1383c0 -29 13 -55 150 -55h35v-15z" />
    <glyph glyph-name="imacron" unicode="&#x12b;" horiz-adv-x="500" 
d="M265 70c0 -29 13 -55 150 -55h35v-15h-400v15h40c137 0 150 26 150 55v905c0 37 -28 50 -105 50h-25v15h25l130 3v-973zM490 1400h-480v20h480v-20z" />
    <glyph glyph-name="Ibreve" unicode="&#x12c;" horiz-adv-x="500" 
d="M253 1730c105 0 189 37 249 111l17 -12c-42 -53 -119 -119 -266 -119c-151 0 -226 69 -266 119l17 12c64 -78 148 -111 249 -111zM450 0h-400v15h40c137 0 150 26 150 55v1383c0 31 -18 52 -150 52h-40v15h400v-15h-35c-132 0 -150 -21 -150 -52v-1383
c0 -29 13 -55 150 -55h35v-15z" />
    <glyph glyph-name="ibreve" unicode="&#x12d;" horiz-adv-x="500" 
d="M250 1330c105 0 189 37 249 111l17 -12c-42 -53 -119 -119 -266 -119c-151 0 -226 69 -266 119l17 12c64 -78 148 -111 249 -111zM265 70c0 -29 13 -55 150 -55h35v-15h-400v15h40c137 0 150 26 150 55v905c0 37 -28 50 -105 50h-25v15h25l130 3v-973z" />
    <glyph glyph-name="Iogonek" unicode="&#x12e;" horiz-adv-x="500" 
d="M213 0h-163v15h40c137 0 150 26 150 55v1383c0 31 -18 52 -150 52h-40v15h400v-15h-35c-132 0 -150 -21 -150 -52v-1383c0 -29 13 -55 150 -55h35v-15h-162c-28 0 -53 -10 -66 -20c-66 -53 -125 -122 -125 -222c1 -71 45 -138 139 -138c52 0 112 22 168 86c6 7 14 2 15 1
s6 -7 0 -14c-60 -68 -125 -93 -183 -93c-106 0 -163 77 -164 158c0 111 69 186 141 242z" />
    <glyph glyph-name="iogonek" unicode="&#x12f;" horiz-adv-x="500" 
d="M50 0v15h40c137 0 150 26 150 55v905c0 37 -28 50 -105 50h-25v15h25l130 3v-973c0 -29 13 -55 150 -55h35v-15h-50c-31 0 -106 -11 -165 -42c-37 -19 -68 -40 -68 -82c0 -56 68 -97 148 -97c59 0 99 -32 99 -79c0 -61 -71 -101 -178 -101c-106 0 -163 78 -164 159
c1 135 113 207 212 242h-234zM210 1380c0 21 18 40 40 40c21 0 40 -18 40 -40c0 -21 -18 -40 -40 -40c-21 0 -40 18 -40 40z" />
    <glyph glyph-name="Idotaccent" unicode="&#x130;" horiz-adv-x="500" 
d="M178 1780c0 46 38 75 75 75c46 0 75 -38 75 -75c0 -46 -38 -75 -75 -75c-46 0 -75 38 -75 75zM450 0h-400v15h40c137 0 150 26 150 55v1383c0 31 -18 52 -150 52h-40v15h400v-15h-35c-132 0 -150 -21 -150 -52v-1383c0 -29 13 -55 150 -55h35v-15z" />
    <glyph glyph-name="dotlessi" unicode="&#x131;" horiz-adv-x="500" 
d="M265 70c0 -29 13 -55 150 -55h35v-15h-400v15h40c137 0 150 26 150 55v905c0 37 -28 50 -105 50h-25v15h25l130 3v-973z" />
    <glyph glyph-name="IJ" unicode="&#x132;" horiz-adv-x="1040" 
d="M550 1520h460v-15h-35c-132 0 -150 -19 -150 -50v-1425c0 -296 -162 -510 -384 -510c-114 0 -206 69 -206 153c0 63 56 114 124 114c62 0 94 -43 175 -43c176 0 266 114 266 286v1425c0 31 -18 50 -150 50h-100v15zM450 0h-400v15h40c137 0 150 26 150 55v1383
c0 31 -18 52 -150 52h-40v15h400v-15h-35c-132 0 -150 -21 -150 -52v-1383c0 -29 13 -55 150 -55h35v-15z" />
    <glyph glyph-name="ij" unicode="&#x133;" horiz-adv-x="880" 
d="M640 1380c0 46 38 75 75 75c46 0 75 -38 75 -75c0 -46 -38 -75 -75 -75c-46 0 -75 38 -75 75zM550 1040h45l130 3v-1023c0 -300 -126 -500 -314 -500c-112 0 -186 61 -186 153c0 62 42 104 104 104s94 -43 175 -43c118 0 196 114 196 286v955c0 37 -28 50 -105 50h-45v15
zM343 1040c80 0 134 77 134 159c0 80 -52 134 -131 134c-54 0 -59 -56 -107 -56c-51 0 -92 40 -92 89c0 48 42 87 93 87c154 0 257 -102 257 -254c0 -91 -61 -174 -152 -174h-80v-955c0 -29 13 -55 150 -55h35v-15h-400v15h40c137 0 150 26 150 55v905c0 37 -32 50 -109 50
l-1 15h213z" />
    <glyph glyph-name="Jcircumflex" unicode="&#x134;" horiz-adv-x="540" 
d="M2 1610l-14 15l313 275h22l313 -275l-14 -15l-307 270h-6zM50 1520h460v-15h-35c-132 0 -150 -19 -150 -50v-1425c0 -296 -162 -510 -384 -510c-114 0 -206 69 -206 153c0 63 56 114 124 114c62 0 94 -43 175 -43c176 0 266 114 266 286v1425c0 31 -18 50 -150 50h-100
v15z" />
    <glyph glyph-name="jcircumflex" unicode="&#x135;" horiz-adv-x="380" 
d="M-78 1210l-14 15l313 275h22l313 -275l-14 -15l-307 270h-6zM50 1040h45l130 3v-1023c0 -300 -126 -500 -314 -500c-112 0 -186 61 -186 153c0 62 42 104 104 104s94 -43 175 -43c118 0 196 114 196 286v955c0 37 -28 50 -105 50h-45v15z" />
    <glyph glyph-name="Kcommaaccent" unicode="&#x136;" horiz-adv-x="1223" 
d="M50 1520h420v-15h-55c-132 0 -150 -22 -150 -53v-652h167c22 0 54 20 68 37l477 603c15 19 23 32 23 42c0 16 -22 23 -72 23h-110v15h382v-15h-15c-48 0 -133 -3 -192 -77l-504 -638c203 -258 272 -398 540 -723c144 -175 283 -322 575 -322c81 0 113 43 175 43
c68 0 124 -51 124 -114c0 -84 -92 -153 -206 -153c-277 0 -404 179 -683 528c-249 308 -324 446 -520 695c-12 15 -40 36 -62 36h-167v-710c0 -29 13 -55 150 -55h55v-15h-420v15h40c137 0 150 26 150 55v1382c0 31 -18 53 -150 53h-40v15zM646 -186c0 21 18 40 40 40
c21 0 40 -18 40 -40c0 -89 -28 -143 -93 -214l-15 13c55 60 83 110 83 164h-1c-4 -2 -9 -3 -14 -3c-21 0 -40 18 -40 40z" />
    <glyph glyph-name="kcommaaccent" unicode="&#x137;" horiz-adv-x="1050" 
d="M90 1520h45l130 3v-963h167c22 0 54 20 68 37l287 363c17 21 21 33 21 40c0 18 -31 25 -77 25h-103v15h382v-15c-56 0 -148 -2 -207 -77l-314 -398l320 -407c192 -244 338 -398 620 -398c81 0 113 43 175 43c68 0 124 -51 124 -114c0 -84 -92 -153 -206 -153
c-277 0 -458 259 -734 610l-293 373c-11 15 -41 36 -63 36h-167v-470c0 -29 13 -55 150 -55h35v-15h-400v15h40c137 0 150 26 150 55v1385c0 37 -28 50 -105 50h-45v15zM566 -186c0 21 18 40 40 40c21 0 40 -18 40 -40c0 -89 -28 -143 -93 -214l-15 13c55 60 83 110 83 164
h-1c-4 -2 -9 -3 -14 -3c-21 0 -40 18 -40 40z" />
    <glyph glyph-name="kgreenlandic" unicode="&#x138;" horiz-adv-x="1050" 
d="M90 1040h45l130 3v-483h167c22 0 54 20 68 37l287 363c17 21 21 33 21 40c0 18 -31 25 -77 25h-103v15h382v-15c-56 0 -148 -2 -207 -77l-314 -398l320 -407c192 -244 338 -398 620 -398c81 0 113 43 175 43c68 0 124 -51 124 -114c0 -84 -92 -153 -206 -153
c-277 0 -458 259 -734 610l-293 373c-11 15 -41 36 -63 36h-167v-470c0 -29 13 -55 150 -55h35v-15h-400v15h40c137 0 150 26 150 55v905c0 37 -28 50 -105 50h-45v15z" />
    <glyph glyph-name="Lacute" unicode="&#x139;" horiz-adv-x="1290" 
d="M50 1520h400v-15h-35c-132 0 -150 -22 -150 -53v-1432h824c67 0 112 36 112 89c0 94 -39 156 -97 156c-61 0 -103 -50 -152 -50c-63 0 -106 43 -106 108c0 87 67 145 167 145c130 0 217 -127 217 -317c0 -44 -5 -96 -8 -142c0 -4 -4 -9 -10 -9h-1162v15h40
c137 0 150 27 150 56v1381c0 31 -18 53 -150 53h-40v15zM497 1640l288 271c6 6 14 3 17 0s8 -11 2 -17l-293 -268z" />
    <glyph glyph-name="lacute" unicode="&#x13a;" horiz-adv-x="500" 
d="M152 1600l288 271c6 6 14 3 17 0s8 -11 2 -17l-293 -268zM265 70c0 -29 13 -55 150 -55h35v-15h-400v15h40c137 0 150 26 150 55v1385c0 37 -28 50 -105 50h-45v15h45l130 3v-1453z" />
    <glyph glyph-name="Lcommaaccent" unicode="&#x13b;" horiz-adv-x="1290" 
d="M50 1520h400v-15h-35c-132 0 -150 -22 -150 -53v-1432h824c67 0 112 36 112 89c0 94 -39 156 -97 156c-61 0 -103 -50 -152 -50c-63 0 -106 43 -106 108c0 87 67 145 167 145c130 0 217 -127 217 -317c0 -44 -5 -96 -8 -142c0 -4 -4 -9 -10 -9h-1162v15h40
c137 0 150 27 150 56v1381c0 31 -18 53 -150 53h-40v15zM619 -160c0 21 18 40 40 40c21 0 40 -18 40 -40c0 -89 -28 -143 -93 -214l-15 13c55 60 83 110 83 164h-1c-4 -2 -9 -3 -14 -3c-21 0 -40 18 -40 40z" />
    <glyph glyph-name="lcommaaccent" unicode="&#x13c;" horiz-adv-x="500" 
d="M224 -160c0 21 18 40 40 40c21 0 40 -18 40 -40c0 -89 -28 -143 -93 -214l-15 13c55 60 83 110 83 164h-1c-4 -2 -9 -3 -14 -3c-21 0 -40 18 -40 40zM265 70c0 -29 13 -55 150 -55h35v-15h-400v15h40c137 0 150 26 150 55v1385c0 37 -28 50 -105 50h-45v15h45l130 3
v-1453z" />
    <glyph glyph-name="Lcaron" unicode="&#x13d;" horiz-adv-x="1290" 
d="M50 1520h400v-15h-35c-132 0 -150 -22 -150 -53v-1432h824c67 0 112 36 112 89c0 94 -39 156 -97 156c-61 0 -103 -50 -152 -50c-63 0 -106 43 -106 108c0 87 67 145 167 145c130 0 217 -127 217 -317c0 -44 -5 -96 -8 -142c0 -4 -4 -9 -10 -9h-1162v15h40
c137 0 150 27 150 56v1381c0 31 -18 53 -150 53h-40v15zM1230 1483c0 21 18 40 40 40c21 0 40 -18 40 -40c0 -89 -28 -143 -93 -214l-15 13c55 60 83 110 83 164h-1c-4 -2 -9 -3 -14 -3c-21 0 -40 18 -40 40z" />
    <glyph glyph-name="lcaron" unicode="&#x13e;" horiz-adv-x="500" 
d="M460 1483c0 21 18 40 40 40c21 0 40 -18 40 -40c0 -89 -28 -143 -93 -214l-15 13c55 60 83 110 83 164h-1c-4 -2 -9 -3 -14 -3c-21 0 -40 18 -40 40zM265 70c0 -29 13 -55 150 -55h35v-15h-400v15h40c137 0 150 26 150 55v1385c0 37 -28 50 -105 50h-45v15h45l130 3
v-1453z" />
    <glyph glyph-name="Ldot" unicode="&#x13f;" horiz-adv-x="1290" 
d="M600 763c0 21 18 40 40 40c21 0 40 -18 40 -40c0 -21 -18 -40 -40 -40c-21 0 -40 18 -40 40zM50 1520h400v-15h-35c-132 0 -150 -22 -150 -53v-1432h824c67 0 112 36 112 89c0 94 -39 156 -97 156c-61 0 -103 -50 -152 -50c-63 0 -106 43 -106 108c0 87 67 145 167 145
c130 0 217 -127 217 -317c0 -44 -5 -96 -8 -142c0 -4 -4 -9 -10 -9h-1162v15h40c137 0 150 27 150 56v1381c0 31 -18 53 -150 53h-40v15z" />
    <glyph glyph-name="ldot" unicode="&#x140;" horiz-adv-x="900" 
d="M620 535c0 21 18 40 40 40c21 0 40 -18 40 -40c0 -21 -18 -40 -40 -40c-21 0 -40 18 -40 40zM265 70c0 -29 13 -55 150 -55h35v-15h-400v15h40c137 0 150 26 150 55v1385c0 37 -28 50 -105 50h-45v15h45l130 3v-1453z" />
    <glyph glyph-name="Lslash" unicode="&#x141;" horiz-adv-x="1330" 
d="M305 743v-723h807c91 0 121 32 127 117l16 254l20 -2l-25 -380c0 -7 -7 -9 -10 -9h-1150v15h40c137 0 150 27 150 56v656l-228 -154l-11 16l239 161v702c0 31 -18 53 -150 53h-40v15h400v-15h-35c-132 0 -150 -22 -150 -53v-685c204 138 457 332 649 332
c94 0 156 -49 156 -123c0 -56 -38 -94 -94 -94c-62 0 -84 33 -165 33c-248 0 -367 -51 -546 -172z" />
    <glyph glyph-name="lslash" unicode="&#x142;" horiz-adv-x="520" 
d="M285 70c0 -29 13 -55 150 -55h35v-15h-400v15h40c137 0 150 26 150 55v769l-208 -136l-11 16l219 144v592c0 37 -28 50 -105 50h-25v15h25l130 3v-643l224 147c7 5 13 -1 14 -3s4 -9 -3 -14l-235 -154v-786z" />
    <glyph glyph-name="Nacute" unicode="&#x143;" horiz-adv-x="1430" 
d="M662 1640l288 271c6 6 14 3 17 0s8 -11 2 -17l-293 -268zM50 1520h229c4 0 7 -3 8 -5l890 -1427c7 -12 15 -18 21 -18c7 0 12 9 12 26v1144c0 454 180 759 541 759c114 0 206 -69 206 -153c0 -63 -56 -114 -124 -114c-62 0 -94 43 -175 43c-292 0 -427 -262 -427 -592
l-1 -1183h-21c-3 0 -7 1 -9 5l-933 1495h-9c9 -36 12 -55 12 -111v-1319c0 -29 13 -55 150 -55h35v-15h-395v15h40c137 0 150 26 150 55v1320c0 106 -68 115 -188 115h-12v15z" />
    <glyph glyph-name="nacute" unicode="&#x144;" horiz-adv-x="1250" 
d="M567 1240l288 271c6 6 14 3 17 0s8 -11 2 -17l-293 -268zM110 1040h25l130 3v-352c0 -17 2 -31 7 -31c4 0 9 7 16 25c79 202 255 360 442 360c214 0 330 -98 330 -280v-689c0 -106 35 -174 69 -174c61 0 81 48 140 48c64 0 106 -37 106 -93c0 -78 -67 -130 -167 -130
c-104 0 -173 107 -173 268v767c0 169 -103 260 -305 260c-236 0 -465 -270 -465 -560v-392c0 -29 13 -55 150 -55h55v-15h-420v15h40c137 0 150 26 150 55v905c0 37 -28 50 -105 50h-25v15z" />
    <glyph glyph-name="Ncommaaccent" unicode="&#x145;" horiz-adv-x="1430" 
d="M50 1520h229c4 0 7 -3 8 -5l890 -1427c7 -12 15 -18 21 -18c7 0 12 9 12 26v1144c0 454 180 759 541 759c114 0 206 -69 206 -153c0 -63 -56 -114 -124 -114c-62 0 -94 43 -175 43c-292 0 -427 -262 -427 -592l-1 -1183h-21c-3 0 -7 1 -9 5l-933 1495h-9
c9 -36 12 -55 12 -111v-1319c0 -29 13 -55 150 -55h35v-15h-395v15h40c137 0 150 26 150 55v1320c0 106 -68 115 -188 115h-12v15zM659 -160c0 21 18 40 40 40c21 0 40 -18 40 -40c0 -89 -28 -143 -93 -214l-15 13c55 60 83 110 83 164h-1c-4 -2 -9 -3 -14 -3
c-21 0 -40 18 -40 40z" />
    <glyph glyph-name="ncommaaccent" unicode="&#x146;" horiz-adv-x="1250" 
d="M110 1040h25l130 3v-352c0 -17 2 -31 7 -31c4 0 9 7 16 25c79 202 255 360 442 360c214 0 330 -98 330 -280v-689c0 -106 35 -174 69 -174c61 0 81 48 140 48c64 0 106 -37 106 -93c0 -78 -67 -130 -167 -130c-104 0 -173 107 -173 268v767c0 169 -103 260 -305 260
c-236 0 -465 -270 -465 -560v-392c0 -29 13 -55 150 -55h55v-15h-420v15h40c137 0 150 26 150 55v905c0 37 -28 50 -105 50h-25v15zM624 -160c0 21 18 40 40 40c21 0 40 -18 40 -40c0 -89 -28 -143 -93 -214l-15 13c55 60 83 110 83 164h-1c-4 -2 -9 -3 -14 -3
c-21 0 -40 18 -40 40z" />
    <glyph glyph-name="Ncaron" unicode="&#x147;" horiz-adv-x="1430" 
d="M455 1910l307 -270h6l307 270l14 -15l-313 -275h-22l-313 275zM50 1520h229c4 0 7 -3 8 -5l890 -1427c7 -12 15 -18 21 -18c7 0 12 9 12 26v1144c0 454 180 759 541 759c114 0 206 -69 206 -153c0 -63 -56 -114 -124 -114c-62 0 -94 43 -175 43
c-292 0 -427 -262 -427 -592l-1 -1183h-21c-3 0 -7 1 -9 5l-933 1495h-9c9 -36 12 -55 12 -111v-1319c0 -29 13 -55 150 -55h35v-15h-395v15h40c137 0 150 26 150 55v1320c0 106 -68 115 -188 115h-12v15z" />
    <glyph glyph-name="ncaron" unicode="&#x148;" horiz-adv-x="1250" 
d="M360 1510l307 -270h6l307 270l14 -15l-313 -275h-22l-313 275zM110 1040h25l130 3v-352c0 -17 2 -31 7 -31c4 0 9 7 16 25c79 202 255 360 442 360c214 0 330 -98 330 -280v-689c0 -106 35 -174 69 -174c61 0 81 48 140 48c64 0 106 -37 106 -93
c0 -78 -67 -130 -167 -130c-104 0 -173 107 -173 268v767c0 169 -103 260 -305 260c-236 0 -465 -270 -465 -560v-392c0 -29 13 -55 150 -55h55v-15h-420v15h40c137 0 150 26 150 55v905c0 37 -28 50 -105 50h-25v15z" />
    <glyph glyph-name="napostrophe" unicode="&#x149;" horiz-adv-x="1430" 
d="M250 1040h25l130 3v-352c0 -17 2 -31 7 -31c4 0 9 7 16 25c79 202 255 360 442 360c214 0 330 -98 330 -280v-689c0 -106 35 -174 69 -174c61 0 81 48 140 48c64 0 106 -37 106 -93c0 -78 -67 -130 -167 -130c-104 0 -173 107 -173 268v767c0 169 -103 260 -305 260
c-236 0 -465 -270 -465 -560v-392c0 -29 13 -55 150 -55h55v-15h-420v15h40c137 0 150 26 150 55v905c0 37 -28 50 -105 50h-25v15zM120 1316c0 21 18 40 40 40c21 0 40 -18 40 -40c0 -89 -28 -143 -93 -214l-15 13c55 60 83 110 83 164h-1c-4 -2 -9 -3 -14 -3
c-21 0 -40 18 -40 40z" />
    <glyph glyph-name="Eng" unicode="&#x14a;" horiz-adv-x="1280" 
d="M110 1520h25l130 3v-352c0 -17 2 -31 7 -31c4 0 9 7 16 25c79 202 275 360 462 360c266 0 410 -105 410 -300v-765c0 -300 -126 -500 -314 -500c-112 0 -186 61 -186 153c0 62 42 104 104 104s94 -43 175 -43c118 0 196 114 196 286v762c0 182 -135 280 -385 280
c-236 0 -485 -268 -485 -558v-874c0 -29 13 -55 150 -55h55v-15h-420v15h40c137 0 150 26 150 55v1385c0 37 -28 50 -105 50h-25v15z" />
    <glyph glyph-name="eng" unicode="&#x14b;" horiz-adv-x="1190" 
d="M110 1040h25l130 3v-352c0 -17 2 -31 7 -31c4 0 9 7 16 25c79 202 255 360 442 360c214 0 330 -98 330 -280v-745c0 -300 -126 -500 -314 -500c-112 0 -186 61 -186 153c0 62 42 104 104 104s94 -43 175 -43c118 0 196 114 196 286v742c0 169 -103 260 -305 260
c-236 0 -465 -270 -465 -560v-392c0 -29 13 -55 150 -55h55v-15h-420v15h40c137 0 150 26 150 55v905c0 37 -28 50 -105 50h-25v15z" />
    <glyph glyph-name="Omacron" unicode="&#x14c;" horiz-adv-x="1410" 
d="M1025 1800h-640v20h640v-20zM705 1525c370 0 640 -321 640 -765s-269 -765 -640 -765s-640 321 -640 765c0 218 65 407 175 542v-38c-95 -130 -150 -304 -150 -504c0 -432 258 -745 615 -745s615 313 615 745s-259 745 -615 745c-146 0 -243 -72 -243 -179
c0 -81 83 -113 83 -175c0 -68 -46 -114 -114 -114c-92 0 -153 78 -153 196c0 175 171 292 427 292z" />
    <glyph glyph-name="omacron" unicode="&#x14d;" 
d="M870 1400h-640v20h640v-20zM555 1045c226 0 376 -109 377 -272c0 -106 -53 -176 -133 -176c-65 0 -108 46 -108 114c0 54 57 91 57 155c-1 95 -77 159 -193 159c-271 0 -465 -212 -465 -505s195 -505 465 -505s465 212 465 505c0 96 -21 184 -59 258l-1 50
c54 -85 85 -190 85 -308c0 -304 -206 -525 -490 -525s-490 221 -490 525s205 525 490 525z" />
    <glyph glyph-name="Obreve" unicode="&#x14e;" horiz-adv-x="1410" 
d="M705 1730c105 0 189 37 249 111l17 -12c-42 -53 -119 -119 -266 -119c-151 0 -226 69 -266 119l17 12c64 -78 148 -111 249 -111zM705 1525c370 0 640 -321 640 -765s-269 -765 -640 -765s-640 321 -640 765c0 218 65 407 175 542v-38c-95 -130 -150 -304 -150 -504
c0 -432 258 -745 615 -745s615 313 615 745s-259 745 -615 745c-146 0 -243 -72 -243 -179c0 -81 83 -113 83 -175c0 -68 -46 -114 -114 -114c-92 0 -153 78 -153 196c0 175 171 292 427 292z" />
    <glyph glyph-name="obreve" unicode="&#x14f;" 
d="M550 1330c105 0 189 37 249 111l17 -12c-42 -53 -119 -119 -266 -119c-151 0 -226 69 -266 119l17 12c64 -78 148 -111 249 -111zM555 1045c226 0 376 -109 377 -272c0 -106 -53 -176 -133 -176c-65 0 -108 46 -108 114c0 54 57 91 57 155c-1 95 -77 159 -193 159
c-271 0 -465 -212 -465 -505s195 -505 465 -505s465 212 465 505c0 96 -21 184 -59 258l-1 50c54 -85 85 -190 85 -308c0 -304 -206 -525 -490 -525s-490 221 -490 525s205 525 490 525z" />
    <glyph glyph-name="Ohungarumlaut" unicode="&#x150;" horiz-adv-x="1410" 
d="M327 1640l317 265c7 6 14 2 17 -1s7 -11 0 -17l-321 -262zM724 1640l317 265c7 6 14 2 17 -1s7 -11 0 -17l-321 -262zM705 1525c370 0 640 -321 640 -765s-269 -765 -640 -765s-640 321 -640 765c0 218 65 407 175 542v-38c-95 -130 -150 -304 -150 -504
c0 -432 258 -745 615 -745s615 313 615 745s-259 745 -615 745c-146 0 -243 -72 -243 -179c0 -81 83 -113 83 -175c0 -68 -46 -114 -114 -114c-92 0 -153 78 -153 196c0 175 171 292 427 292z" />
    <glyph glyph-name="ohungarumlaut" unicode="&#x151;" 
d="M172 1240l317 265c7 6 14 2 17 -1s7 -11 0 -17l-321 -262zM569 1240l317 265c7 6 14 2 17 -1s7 -11 0 -17l-321 -262zM555 1045c226 0 376 -109 377 -272c0 -106 -53 -176 -133 -176c-65 0 -108 46 -108 114c0 54 57 91 57 155c-1 95 -77 159 -193 159
c-271 0 -465 -212 -465 -505s195 -505 465 -505s465 212 465 505c0 96 -21 184 -59 258l-1 50c54 -85 85 -190 85 -308c0 -304 -206 -525 -490 -525s-490 221 -490 525s205 525 490 525z" />
    <glyph glyph-name="OE" unicode="&#x152;" horiz-adv-x="1950" 
d="M705 15h105c137 0 150 27 150 56v1382c0 31 -18 50 -150 50h-105c-357 0 -615 -312 -615 -743c0 -432 258 -745 615 -745zM986 1500l-1 -810h185c114 0 190 64 190 159c0 81 -83 113 -83 175c0 68 46 114 114 114c92 0 153 -78 153 -196c0 -163 -150 -272 -374 -272h-185
v-650h747c91 0 121 32 127 117l16 254l20 -2l-25 -380c0 -7 -7 -9 -10 -9h-898c-90 -2 -179 -5 -269 -5c-365 0 -628 326 -628 765c0 443 269 763 640 763l1075 -3c7 0 10 -6 10 -9l25 -380l-20 -2l-16 254c-6 88 -39 117 -127 117h-666z" />
    <glyph glyph-name="oe" unicode="&#x153;" horiz-adv-x="1965" 
d="M534 1045c215 0 358 -109 358 -272c0 -106 -53 -176 -133 -176c-65 0 -108 46 -108 114c0 54 57 91 57 155c0 95 -70 159 -174 159c-269 0 -444 -212 -444 -505s175 -505 445 -505s445 212 445 505c0 102 -21 193 -60 270l4 41c32 -52 55 -112 68 -179
c47 235 218 393 458 393c286 0 450 -215 450 -505c0 -7 -6 -10 -10 -10h-885v-10c0 -292 167 -505 435 -505c226 0 344 98 419 231l18 -10c-78 -139 -205 -241 -437 -241c-238 0 -403 160 -448 392c-46 -234 -216 -392 -457 -392c-284 0 -470 221 -470 525s186 525 469 525z
M1006 550h818c35 0 45 35 45 68c0 11 -1 21 -3 30c-39 223 -178 377 -416 377c-252 0 -430 -184 -444 -475z" />
    <glyph glyph-name="Racute" unicode="&#x154;" horiz-adv-x="1259" 
d="M532 1640l288 271c6 6 14 3 17 0s8 -11 2 -17l-293 -268zM50 1520h585c331 0 570 -185 570 -440c0 -240 -211 -418 -511 -438c157 -40 205 -93 294 -336c78 -209 198 -561 490 -561c81 0 113 43 175 43c68 0 124 -51 124 -114c0 -84 -92 -153 -206 -153
c-341 0 -448 352 -602 779c-87 241 -169 340 -444 340h-260v-570c0 -29 13 -55 150 -55h35v-15h-400v15h40c137 0 150 26 150 55v1385c0 31 -18 50 -150 50h-40v15zM265 660h260h107c319 0 548 176 548 420s-229 420 -548 420h-366z" />
    <glyph glyph-name="racute" unicode="&#x155;" horiz-adv-x="900" 
d="M337 1240l288 271c6 6 14 3 17 0s8 -11 2 -17l-293 -268zM110 1040h25l130 3v-330c48 186 180 332 351 332c143 0 238 -77 238 -192c0 -106 -53 -176 -133 -176c-65 0 -108 46 -108 114c0 54 57 91 57 155c0 47 -22 79 -54 79c-201 0 -351 -220 -351 -470v-485
c0 -29 13 -55 150 -55h55v-15h-420v15h40c137 0 150 26 150 55v905c0 37 -28 50 -105 50h-25v15z" />
    <glyph glyph-name="Rcommaaccent" unicode="&#x156;" horiz-adv-x="1259" 
d="M50 1520h585c331 0 570 -185 570 -440c0 -240 -211 -418 -511 -438c157 -40 205 -93 294 -336c78 -209 198 -561 490 -561c81 0 113 43 175 43c68 0 124 -51 124 -114c0 -84 -92 -153 -206 -153c-341 0 -448 352 -602 779c-87 241 -169 340 -444 340h-260v-570
c0 -29 13 -55 150 -55h35v-15h-400v15h40c137 0 150 26 150 55v1385c0 31 -18 50 -150 50h-40v15zM265 660h260h107c319 0 548 176 548 420s-229 420 -548 420h-366zM630 -185c0 21 18 40 40 40c21 0 40 -18 40 -40c0 -89 -28 -143 -93 -214l-15 13c55 60 83 110 83 164h-1
c-4 -2 -9 -3 -14 -3c-21 0 -40 18 -40 40z" />
    <glyph glyph-name="rcommaaccent" unicode="&#x157;" horiz-adv-x="900" 
d="M110 1040h25l130 3v-330c48 186 180 332 351 332c143 0 238 -77 238 -192c0 -106 -53 -176 -133 -176c-65 0 -108 46 -108 114c0 54 57 91 57 155c0 47 -22 79 -54 79c-201 0 -351 -220 -351 -470v-485c0 -29 13 -55 150 -55h55v-15h-420v15h40c137 0 150 26 150 55v905
c0 37 -28 50 -105 50h-25v15zM234 -160c0 21 18 40 40 40c21 0 40 -18 40 -40c0 -89 -28 -143 -93 -214l-15 13c55 60 83 110 83 164h-1c-4 -2 -9 -3 -14 -3c-21 0 -40 18 -40 40z" />
    <glyph glyph-name="Rcaron" unicode="&#x158;" horiz-adv-x="1259" 
d="M325 1910l307 -270h6l307 270l14 -15l-313 -275h-22l-313 275zM50 1520h585c331 0 570 -185 570 -440c0 -240 -211 -418 -511 -438c157 -40 205 -93 294 -336c78 -209 198 -561 490 -561c81 0 113 43 175 43c68 0 124 -51 124 -114c0 -84 -92 -153 -206 -153
c-341 0 -448 352 -602 779c-87 241 -169 340 -444 340h-260v-570c0 -29 13 -55 150 -55h35v-15h-400v15h40c137 0 150 26 150 55v1385c0 31 -18 50 -150 50h-40v15zM265 660h260h107c319 0 548 176 548 420s-229 420 -548 420h-366z" />
    <glyph glyph-name="rcaron" unicode="&#x159;" horiz-adv-x="900" 
d="M130 1510l307 -270h6l307 270l14 -15l-313 -275h-22l-313 275zM110 1040h25l130 3v-330c48 186 180 332 351 332c143 0 238 -77 238 -192c0 -106 -53 -176 -133 -176c-65 0 -108 46 -108 114c0 54 57 91 57 155c0 47 -22 79 -54 79c-201 0 -351 -220 -351 -470v-485
c0 -29 13 -55 150 -55h55v-15h-420v15h40c137 0 150 26 150 55v905c0 37 -28 50 -105 50h-25v15z" />
    <glyph glyph-name="Sacute" unicode="&#x15a;" horiz-adv-x="1146" 
d="M453 1640l288 271c6 6 14 3 17 0s8 -11 2 -17l-293 -268zM556 1525c262 0 436 -117 436 -292c0 -118 -61 -196 -153 -196c-68 0 -114 46 -114 114c0 62 83 94 83 175c0 107 -101 179 -252 179c-224 -2 -382 -116 -382 -274c0 -243 269 -325 435 -422
c178 -104 477 -205 477 -495c0 -185 -206 -319 -490 -319c-154 0 -325 47 -427 146c-24 26 -44 47 -58 47c-13 0 -20 -17 -21 -64l-5 -144h-15l13 380h15v-11c0 -221 262 -332 498 -332c273 0 465 124 465 297c0 275 -280 367 -462 473c-159 93 -450 184 -450 444
c0 174 178 294 407 294z" />
    <glyph glyph-name="sacute" unicode="&#x15b;" horiz-adv-x="1010" 
d="M387 1240l288 271c6 6 14 3 17 0s8 -11 2 -17l-293 -268zM485 1045c87 0 207 -15 314 -101c20 -16 31 -30 39 -30c11 0 15 15 15 46c0 5 -1 24 -3 80h16l11 -300c0 -4 -3 -7 -8 -7s-8 3 -8 7l-1 8c-10 76 -26 142 -73 180c-100 82 -217 97 -302 97
c-191 0 -330 -94 -330 -224c0 -249 795 -165 795 -557c0 -144 -182 -249 -435 -249c-270 0 -450 105 -450 262c0 106 61 176 153 176c62 0 104 -38 104 -94c0 -62 -73 -84 -73 -165c0 -95 106 -159 266 -159c239 0 410 96 410 229c0 367 -795 275 -795 557
c0 142 149 244 355 244z" />
    <glyph glyph-name="Scircumflex" unicode="&#x15c;" horiz-adv-x="1146" 
d="M246 1610l-14 15l313 275h22l313 -275l-14 -15l-307 270h-6zM556 1525c262 0 436 -117 436 -292c0 -118 -61 -196 -153 -196c-68 0 -114 46 -114 114c0 62 83 94 83 175c0 107 -101 179 -252 179c-224 -2 -382 -116 -382 -274c0 -243 269 -325 435 -422
c178 -104 477 -205 477 -495c0 -185 -206 -319 -490 -319c-154 0 -325 47 -427 146c-24 26 -44 47 -58 47c-13 0 -20 -17 -21 -64l-5 -144h-15l13 380h15v-11c0 -221 262 -332 498 -332c273 0 465 124 465 297c0 275 -280 367 -462 473c-159 93 -450 184 -450 444
c0 174 178 294 407 294z" />
    <glyph glyph-name="scircumflex" unicode="&#x15d;" horiz-adv-x="1010" 
d="M180 1210l-14 15l313 275h22l313 -275l-14 -15l-307 270h-6zM485 1045c87 0 207 -15 314 -101c20 -16 31 -30 39 -30c11 0 15 15 15 46c0 5 -1 24 -3 80h16l11 -300c0 -4 -3 -7 -8 -7s-8 3 -8 7l-1 8c-10 76 -26 142 -73 180c-100 82 -217 97 -302 97
c-191 0 -330 -94 -330 -224c0 -249 795 -165 795 -557c0 -144 -182 -249 -435 -249c-270 0 -450 105 -450 262c0 106 61 176 153 176c62 0 104 -38 104 -94c0 -62 -73 -84 -73 -165c0 -95 106 -159 266 -159c239 0 410 96 410 229c0 367 -795 275 -795 557
c0 142 149 244 355 244z" />
    <glyph glyph-name="Scedilla" unicode="&#x15e;" horiz-adv-x="1146" 
d="M556 1525c262 0 436 -117 436 -292c0 -118 -61 -196 -153 -196c-68 0 -114 46 -114 114c0 62 83 94 83 175c0 107 -101 179 -252 179c-224 -2 -382 -116 -382 -274c0 -243 269 -325 435 -422c178 -104 477 -205 477 -495c0 -185 -206 -319 -490 -319c-24 0 -49 1 -73 3
l-33 -132c27 8 49 16 85 16c94 0 173 -77 173 -176c0 -85 -80 -156 -180 -156c-68 0 -133 32 -165 86c-1 2 -4 9 3 13s13 -1 14 -3c28 -46 85 -76 148 -76c92 0 160 64 160 136c0 88 -71 156 -153 156c-43 0 -65 -10 -96 -20c-7 -2 -11 2 -12 6c-1 3 0 5 0 6l36 147
c-126 15 -252 61 -334 140c-24 26 -44 47 -58 47c-13 0 -20 -17 -21 -64l-5 -144h-15l13 380h15v-11c0 -221 262 -332 498 -332c273 0 465 124 465 297c0 275 -280 367 -462 473c-159 93 -450 184 -450 444c0 174 178 294 407 294z" />
    <glyph glyph-name="scedilla" unicode="&#x15f;" horiz-adv-x="1010" 
d="M485 1045c252 0 420 -81 420 -202c0 -94 -53 -156 -133 -156c-62 0 -104 38 -104 94c0 62 53 64 53 145c0 59 -94 99 -236 99c-190 0 -330 -94 -330 -224c0 -249 795 -165 795 -557c0 -143 -180 -247 -428 -249l-32 -129c27 8 49 16 85 16c94 0 173 -77 173 -176
c0 -85 -80 -156 -180 -156c-68 0 -133 32 -165 86c-1 2 -4 9 3 13s13 -1 14 -3c28 -46 85 -76 148 -76c92 0 160 64 160 136c0 88 -71 156 -153 156c-43 0 -65 -10 -96 -20c-7 -2 -11 2 -12 6c-1 3 0 5 0 6l34 141c-136 2 -228 28 -333 117c-26 24 -49 46 -63 46
c-13 0 -19 -17 -21 -64l-4 -94h-15l12 330h15v-11c0 -79 36 -146 93 -193c103 -84 189 -111 330 -111c238 0 410 96 410 229c0 367 -795 275 -795 557c0 142 150 244 355 244z" />
    <glyph glyph-name="Scaron" unicode="&#x160;" horiz-adv-x="1146" 
d="M246 1910l307 -270h6l307 270l14 -15l-313 -275h-22l-313 275zM556 1525c262 0 436 -117 436 -292c0 -118 -61 -196 -153 -196c-68 0 -114 46 -114 114c0 62 83 94 83 175c0 107 -101 179 -252 179c-224 -2 -382 -116 -382 -274c0 -243 269 -325 435 -422
c178 -104 477 -205 477 -495c0 -185 -206 -319 -490 -319c-154 0 -325 47 -427 146c-24 26 -44 47 -58 47c-13 0 -20 -17 -21 -64l-5 -144h-15l13 380h15v-11c0 -221 262 -332 498 -332c273 0 465 124 465 297c0 275 -280 367 -462 473c-159 93 -450 184 -450 444
c0 174 178 294 407 294z" />
    <glyph glyph-name="scaron" unicode="&#x161;" horiz-adv-x="1010" 
d="M180 1510l307 -270h6l307 270l14 -15l-313 -275h-22l-313 275zM485 1045c87 0 207 -15 314 -101c20 -16 31 -30 39 -30c11 0 15 15 15 46c0 5 -1 24 -3 80h16l11 -300c0 -4 -3 -7 -8 -7s-8 3 -8 7l-1 8c-10 76 -26 142 -73 180c-100 82 -217 97 -302 97
c-191 0 -330 -94 -330 -224c0 -249 795 -165 795 -557c0 -144 -182 -249 -435 -249c-270 0 -450 105 -450 262c0 106 61 176 153 176c62 0 104 -38 104 -94c0 -62 -73 -84 -73 -165c0 -95 106 -159 266 -159c239 0 410 96 410 229c0 367 -795 275 -795 557
c0 142 149 244 355 244z" />
    <glyph glyph-name="Tcommaaccent" unicode="&#x162;" horiz-adv-x="1310" 
d="M63 1520h1171c3 0 10 -2 10 -9l21 -320l-16 -2l-12 186c-7 95 -36 125 -137 125h-430v-1430c0 -29 13 -55 150 -55h35v-15h-213l-32 -129c27 8 49 16 85 16c94 0 173 -77 173 -176c0 -85 -80 -156 -180 -156c-68 0 -133 32 -165 86c-1 2 -4 9 3 13s13 -1 14 -3
c28 -46 85 -76 148 -76c92 0 160 64 160 136c0 88 -71 156 -153 156c-43 0 -65 -10 -96 -20c-7 -2 -11 2 -12 6c-1 3 0 5 0 6l34 141h-166v15h40c137 0 150 26 150 55v1430l-459 -1c-68 0 -112 -35 -112 -88c0 -94 47 -156 117 -156c61 0 103 50 152 50
c63 0 106 -43 106 -108c0 -87 -67 -145 -167 -145c-142 0 -237 127 -237 317c0 44 5 96 8 142c0 4 4 9 10 9z" />
    <glyph glyph-name="tcommaaccent" unicode="&#x163;" horiz-adv-x="830" 
d="M286 1000c-26 0 -36 -13 -36 -35v-575c0 -218 110 -375 261 -375c90 0 188 38 241 122l16 -10c-57 -91 -162 -132 -257 -132c-18 0 -35 1 -51 5l-34 -134c27 8 49 16 85 16c94 0 173 -77 173 -176c0 -85 -80 -156 -180 -156c-68 0 -133 32 -165 86c-1 2 -4 9 3 13
s13 -1 14 -3c28 -46 85 -76 148 -76c92 0 160 64 160 136c0 88 -71 156 -153 156c-43 0 -65 -10 -96 -20c-7 -2 -11 2 -12 6c-1 3 0 5 0 6l37 152c-128 40 -215 189 -215 384v575c0 22 -9 35 -36 35h-149v20h90c87 0 100 17 100 123v177h20v-266c0 -22 10 -34 36 -34h218
c62 0 80 31 80 60c0 40 -33 86 -33 129c0 63 48 114 108 114c79 0 131 -53 131 -133c0 -114 -114 -190 -286 -190h-218z" />
    <glyph glyph-name="Tcaron" unicode="&#x164;" horiz-adv-x="1310" 
d="M347 1910l307 -270h6l307 270l14 -15l-313 -275h-22l-313 275zM63 1520h1171c3 0 10 -2 10 -9l21 -320l-16 -2l-12 186c-7 95 -36 125 -137 125h-430v-1430c0 -29 13 -55 150 -55h35v-15h-400v15h40c137 0 150 26 150 55v1430h-459c-67 0 -112 -36 -112 -89
c0 -94 47 -156 117 -156c61 0 103 50 152 50c63 0 106 -43 106 -108c0 -87 -67 -145 -167 -145c-142 0 -237 127 -237 317c0 44 5 96 8 142c0 4 4 9 10 9z" />
    <glyph glyph-name="tcaron" unicode="&#x165;" horiz-adv-x="850" 
d="M785 1320c0 21 18 40 40 40c21 0 40 -18 40 -40c0 -89 -28 -143 -93 -214l-15 13c55 60 83 110 83 164h-1c-4 -2 -9 -3 -14 -3c-21 0 -40 18 -40 40zM40 1000v20h90c87 0 100 17 100 123v177h20v-266c0 -22 9 -34 36 -34h474v-20h-474c-27 0 -36 -13 -36 -35v-575
c0 -218 110 -375 261 -375c90 0 188 38 241 122l16 -10c-57 -91 -162 -132 -257 -132c-166 0 -286 166 -286 395v575c0 22 -9 35 -36 35h-149z" />
    <glyph glyph-name="Tbar" unicode="&#x166;" horiz-adv-x="1310" 
d="M76 1520h1158c3 0 10 -2 10 -9l21 -320l-16 -2l-12 186c-7 95 -36 125 -137 125h-430v-440h275l-4 -20h-271v-970c0 -29 13 -55 150 -55h35v-15h-400v15h40c137 0 150 26 150 55v970h-126c-94 0 -144 -56 -144 -126c0 -61 50 -103 50 -152c0 -63 -43 -106 -108 -106
c-87 0 -145 67 -145 167c0 142 127 237 317 237h156v440h-435c-101 0 -130 -30 -137 -125l-12 -186l-16 2l21 320c0 7 7 9 10 9z" />
    <glyph glyph-name="tbar" unicode="&#x167;" horiz-adv-x="830" 
d="M286 1000c-26 0 -36 -13 -36 -35v-225h395l-4 -20h-391v-330c0 -218 110 -375 261 -375c90 0 188 38 241 122l16 -10c-57 -91 -162 -132 -257 -132c-166 0 -286 166 -286 395v330h-144l4 20h140v225c0 22 -9 35 -36 35h-149v20h90c87 0 100 17 100 123v177h20v-266
c0 -22 10 -34 36 -34h218c62 0 80 31 80 60c0 40 -33 86 -33 129c0 63 48 114 108 114c79 0 131 -53 131 -133c0 -114 -114 -190 -286 -190h-218z" />
    <glyph glyph-name="Utilde" unicode="&#x168;" horiz-adv-x="1377" 
d="M967 1848c9 -2 8 -10 8 -12c-13 -72 -61 -106 -113 -106c-127 0 -184 108 -294 108c-45 0 -82 -27 -93 -87c-2 -9 -10 -9 -12 -9s-10 3 -8 12c12 68 57 106 113 106c124 0 182 -108 294 -108c42 0 82 24 93 88c0 2 3 10 12 8zM1180 1240c0 454 180 759 541 759
c114 0 206 -69 206 -153c0 -63 -56 -114 -124 -114c-62 0 -94 43 -175 43c-292 0 -427 -262 -427 -592l-1 -698c0 -286 -213 -490 -500 -490c-280 0 -480 208 -480 490v965c0 29 -13 55 -150 55h-40v15h440v-15h-75c-137 0 -150 -26 -150 -55v-965c0 -271 186 -470 455 -470
c277 0 480 195 480 470v755z" />
    <glyph glyph-name="utilde" unicode="&#x169;" horiz-adv-x="1220" 
d="M842 1448c9 -2 8 -10 8 -12c-13 -72 -61 -106 -113 -106c-127 0 -184 108 -294 108c-45 0 -82 -27 -93 -87c-2 -9 -10 -9 -12 -9s-10 3 -8 12c12 68 57 106 113 106c124 0 182 -108 294 -108c42 0 82 24 93 88c0 2 3 10 12 8zM50 1040h25l130 3v-765
c0 -169 103 -260 305 -260c236 0 465 270 465 560v102c0 166 -74 277 -185 277c-75 0 -125 39 -125 97c0 66 47 111 119 111c129 0 216 -164 216 -409v-507l9 -100c7 -74 35 -133 65 -134l96 16l4 -20l-97 -16h-2c-52 0 -84 78 -91 152l-9 101v101c0 17 -2 31 -7 31
c-4 0 -9 -7 -16 -25c-79 -202 -255 -360 -442 -360c-214 0 -330 98 -330 280v700c0 37 -28 50 -105 50h-25v15z" />
    <glyph glyph-name="Umacron" unicode="&#x16a;" horiz-adv-x="1377" 
d="M1035 1800h-640v20h640v-20zM1180 1240c0 454 180 759 541 759c114 0 206 -69 206 -153c0 -63 -56 -114 -124 -114c-62 0 -94 43 -175 43c-292 0 -427 -262 -427 -592l-1 -698c0 -286 -213 -490 -500 -490c-280 0 -480 208 -480 490v965c0 29 -13 55 -150 55h-40v15h440
v-15h-75c-137 0 -150 -26 -150 -55v-965c0 -271 186 -470 455 -470c277 0 480 195 480 470v755z" />
    <glyph glyph-name="umacron" unicode="&#x16b;" horiz-adv-x="1220" 
d="M910 1400h-640v20h640v-20zM50 1040h25l130 3v-765c0 -169 103 -260 305 -260c236 0 465 270 465 560v102c0 166 -74 277 -185 277c-75 0 -125 39 -125 97c0 66 47 111 119 111c129 0 216 -164 216 -409v-507l9 -100c7 -74 35 -133 65 -134l96 16l4 -20l-97 -16h-2
c-52 0 -84 78 -91 152l-9 101v101c0 17 -2 31 -7 31c-4 0 -9 -7 -16 -25c-79 -202 -255 -360 -442 -360c-214 0 -330 98 -330 280v700c0 37 -28 50 -105 50h-25v15z" />
    <glyph glyph-name="Ubreve" unicode="&#x16c;" horiz-adv-x="1377" 
d="M715 1730c105 0 189 37 249 111l17 -12c-42 -53 -119 -119 -266 -119c-151 0 -226 69 -266 119l17 12c64 -78 148 -111 249 -111zM1180 1240c0 454 180 759 541 759c114 0 206 -69 206 -153c0 -63 -56 -114 -124 -114c-62 0 -94 43 -175 43c-292 0 -427 -262 -427 -592
l-1 -698c0 -286 -213 -490 -500 -490c-280 0 -480 208 -480 490v965c0 29 -13 55 -150 55h-40v15h440v-15h-75c-137 0 -150 -26 -150 -55v-965c0 -271 186 -470 455 -470c277 0 480 195 480 470v755z" />
    <glyph glyph-name="ubreve" unicode="&#x16d;" horiz-adv-x="1220" 
d="M590 1330c105 0 189 37 249 111l17 -12c-42 -53 -119 -119 -266 -119c-151 0 -226 69 -266 119l17 12c64 -78 148 -111 249 -111zM50 1040h25l130 3v-765c0 -169 103 -260 305 -260c236 0 465 270 465 560v102c0 166 -74 277 -185 277c-75 0 -125 39 -125 97
c0 66 47 111 119 111c129 0 216 -164 216 -409v-507l9 -100c7 -74 35 -133 65 -134l96 16l4 -20l-97 -16h-2c-52 0 -84 78 -91 152l-9 101v101c0 17 -2 31 -7 31c-4 0 -9 -7 -16 -25c-79 -202 -255 -360 -442 -360c-214 0 -330 98 -330 280v700c0 37 -28 50 -105 50h-25v15z
" />
    <glyph glyph-name="Uring" unicode="&#x16e;" horiz-adv-x="1377" 
d="M715 1870c84 0 150 -61 150 -150c0 -84 -61 -150 -150 -150c-84 0 -150 61 -150 150c0 84 61 150 150 150zM715 1850c-78 0 -130 -56 -130 -130c0 -78 56 -130 130 -130c78 0 130 56 130 130c0 78 -56 130 -130 130zM1180 1240c0 454 180 759 541 759
c114 0 206 -69 206 -153c0 -63 -56 -114 -124 -114c-62 0 -94 43 -175 43c-292 0 -427 -262 -427 -592l-1 -698c0 -286 -213 -490 -500 -490c-280 0 -480 208 -480 490v965c0 29 -13 55 -150 55h-40v15h440v-15h-75c-137 0 -150 -26 -150 -55v-965c0 -271 186 -470 455 -470
c277 0 480 195 480 470v755z" />
    <glyph glyph-name="uring" unicode="&#x16f;" horiz-adv-x="1220" 
d="M510 1470c84 0 150 -61 150 -150c0 -84 -61 -150 -150 -150c-84 0 -150 61 -150 150c0 84 61 150 150 150zM510 1450c-78 0 -130 -56 -130 -130c0 -78 56 -130 130 -130c78 0 130 56 130 130c0 78 -56 130 -130 130zM50 1040h25l130 3v-765c0 -169 103 -260 305 -260
c236 0 465 270 465 560v102c0 166 -74 277 -185 277c-75 0 -125 39 -125 97c0 66 47 111 119 111c129 0 216 -164 216 -409v-507l9 -100c7 -74 35 -133 65 -134l96 16l4 -20l-97 -16h-2c-52 0 -84 78 -91 152l-9 101v101c0 17 -2 31 -7 31c-4 0 -9 -7 -16 -25
c-79 -202 -255 -360 -442 -360c-214 0 -330 98 -330 280v700c0 37 -28 50 -105 50h-25v15z" />
    <glyph glyph-name="Uhungarumlaut" unicode="&#x170;" horiz-adv-x="1377" 
d="M337 1640l317 265c7 6 14 2 17 -1s7 -11 0 -17l-321 -262zM734 1640l317 265c7 6 14 2 17 -1s7 -11 0 -17l-321 -262zM1180 1240c0 454 180 759 541 759c114 0 206 -69 206 -153c0 -63 -56 -114 -124 -114c-62 0 -94 43 -175 43c-292 0 -427 -262 -427 -592l-1 -698
c0 -286 -213 -490 -500 -490c-280 0 -480 208 -480 490v965c0 29 -13 55 -150 55h-40v15h440v-15h-75c-137 0 -150 -26 -150 -55v-965c0 -271 186 -470 455 -470c277 0 480 195 480 470v755z" />
    <glyph glyph-name="uhungarumlaut" unicode="&#x171;" horiz-adv-x="1220" 
d="M212 1240l317 265c7 6 14 2 17 -1s7 -11 0 -17l-321 -262zM609 1240l317 265c7 6 14 2 17 -1s7 -11 0 -17l-321 -262zM50 1040h25l130 3v-765c0 -169 103 -260 305 -260c236 0 465 270 465 560v102c0 166 -74 277 -185 277c-75 0 -125 39 -125 97c0 66 47 111 119 111
c129 0 216 -164 216 -409v-507l9 -100c7 -74 35 -133 65 -134l96 16l4 -20l-97 -16h-2c-52 0 -84 78 -91 152l-9 101v101c0 17 -2 31 -7 31c-4 0 -9 -7 -16 -25c-79 -202 -255 -360 -442 -360c-214 0 -330 98 -330 280v700c0 37 -28 50 -105 50h-25v15z" />
    <glyph glyph-name="Uogonek" unicode="&#x172;" horiz-adv-x="1377" 
d="M30 1520h440v-15h-75c-137 0 -150 -26 -150 -55v-965c0 -271 186 -470 455 -470c277 0 480 195 480 470v755c0 454 180 759 541 759c114 0 206 -69 206 -153c0 -63 -56 -114 -124 -114c-62 0 -94 43 -175 43c-292 0 -427 -262 -427 -592l-1 -698
c0 -247 -158 -432 -385 -479c-34 -7 -48 -12 -71 -28c-89 -62 -237 -141 -237 -300c1 -71 45 -138 139 -138c52 0 112 22 168 86c6 7 14 2 15 1s6 -7 0 -14c-60 -68 -125 -93 -183 -93c-106 0 -163 77 -164 158c0 171 164 259 251 318c-11 -1 -22 -1 -33 -1
c-280 0 -480 208 -480 490v965c0 29 -13 55 -150 55h-40v15z" />
    <glyph glyph-name="uogonek" unicode="&#x173;" horiz-adv-x="1220" 
d="M50 1040h25l130 3v-765c0 -169 103 -260 305 -260c236 0 465 270 465 560v102c0 166 -74 277 -185 277c-75 0 -125 39 -125 97c0 66 47 111 119 111c129 0 216 -164 216 -409v-507l9 -104c7 -85 38 -129 66 -130l96 16l4 -20l-11 -2c-100 -16 -298 -70 -298 -250
c1 -71 45 -139 139 -139c52 0 111 22 168 86c6 7 13 2 15 1c1 -1 6 -7 0 -14c-60 -68 -125 -93 -183 -93c-106 0 -163 78 -164 159c0 134 112 205 211 240c-36 14 -61 72 -67 142l-10 107v101c0 17 -2 31 -7 31c-4 0 -9 -7 -16 -25c-79 -202 -255 -360 -442 -360
c-214 0 -330 98 -330 280v700c0 37 -28 50 -105 50h-25v15z" />
    <glyph glyph-name="Wcircumflex" unicode="&#x174;" horiz-adv-x="2081" 
d="M10 1520h399v-15h-71h-23c-95 0 -135 -1 -135 -35c0 -8 2 -17 6 -28l463 -1361c7 -22 15 -32 22 -32s14 10 21 31l358 1054l-103 302c-19 55 -70 69 -153 69v15h399v-15h-71h-23c-95 0 -135 -1 -135 -35c0 -8 2 -17 6 -28l463 -1361c8 -22 15 -32 22 -32s14 10 21 31
l407 1199c144 426 257 720 580 720c114 0 206 -69 206 -153c0 -63 -56 -114 -124 -114c-62 0 -94 43 -175 43c-311 0 -394 -286 -456 -467l-446 -1311h-32l-376 1106l-376 -1106h-32l-489 1439c-19 55 -70 69 -153 69v15zM736 1610l-14 15l313 275h22l313 -275l-14 -15
l-307 270h-6z" />
    <glyph glyph-name="wcircumflex" unicode="&#x175;" horiz-adv-x="1880" 
d="M570 1210l-14 15l313 275h22l313 -275l-14 -15l-307 270h-6zM1655 890l-375 -893h-27l-301 689c-7 15 -14 23 -21 23s-14 -8 -20 -22l-291 -690h-27l-415 953c-23 53 -65 75 -148 75h-11v15h398v-15h-76c-107 0 -150 -4 -150 -36c0 -9 3 -19 9 -32l385 -877
c9 -21 17 -31 24 -31s14 10 23 31l288 681l-83 190c-23 53 -64 74 -147 74h-10v15h403v-15h-81c-107 0 -151 -4 -151 -36c0 -9 3 -19 9 -32l385 -877c9 -21 17 -31 24 -31s14 10 23 31l345 816c115 272 181 453 387 453c94 0 156 -49 156 -123c0 -56 -38 -94 -94 -94
c-62 0 -84 33 -165 33c-131 0 -204 -127 -266 -275z" />
    <glyph glyph-name="Ycircumflex" unicode="&#x176;" horiz-adv-x="1301" 
d="M348 1610l-14 15l313 275h22l313 -275l-14 -15l-307 270h-6zM1108 1392c183 335 358 607 677 607c114 0 206 -69 206 -153c0 -63 -56 -114 -124 -114c-62 0 -94 43 -175 43c-350 0 -488 -249 -586 -428l-436 -797v-480c0 -29 13 -55 150 -55h35v-15h-400v15h40
c137 0 150 26 150 55v472l-4 8l-480 877c-41 76 -90 78 -124 78h-27v15h404v-15h-142c-63 0 -99 -5 -99 -33c0 -9 4 -21 11 -35l474 -867z" />
    <glyph glyph-name="ycircumflex" unicode="&#x177;" horiz-adv-x="1160" 
d="M250 1210l-14 15l313 275h22l313 -275l-14 -15l-307 270h-6zM742 1040h398v-15h-11c-70 0 -106 -21 -128 -74l-465 -1106c-87 -204 -217 -324 -425 -324c-114 0 -206 69 -206 153c0 63 56 114 124 114c101 0 98 -63 223 -63c103 0 218 35 263 133l54 117c1 2 1 4 1 7
c0 14 -9 41 -15 56l-352 852c-43 104 -59 118 -124 118c-14 0 -29 -2 -47 -8c-2 -1 -5 -2 -7 -2c-12 0 -19 6 -19 19c0 26 49 28 68 28c88 0 107 -37 153 -149l343 -827c9 -21 12 -29 19 -29s10 9 19 30l375 887c5 13 9 23 9 32c0 32 -43 36 -150 36h-100v15z" />
    <glyph glyph-name="Ydieresis" unicode="&#x178;" horiz-adv-x="1301" 
d="M418 1740c0 21 18 40 40 40c21 0 40 -18 40 -40c0 -21 -18 -40 -40 -40c-21 0 -40 18 -40 40zM898 1740c0 21 18 40 40 40c21 0 40 -18 40 -40c0 -21 -18 -40 -40 -40c-21 0 -40 18 -40 40zM1108 1392c183 335 358 607 677 607c114 0 206 -69 206 -153
c0 -63 -56 -114 -124 -114c-62 0 -94 43 -175 43c-350 0 -488 -249 -586 -428l-436 -797v-480c0 -29 13 -55 150 -55h35v-15h-400v15h40c137 0 150 26 150 55v472l-4 8l-480 877c-41 76 -90 78 -124 78h-27v15h404v-15h-142c-63 0 -99 -5 -99 -33c0 -9 4 -21 11 -35
l474 -867z" />
    <glyph glyph-name="Zacute" unicode="&#x179;" horiz-adv-x="1220" 
d="M487 1640l288 271c6 6 14 3 17 0s8 -11 2 -17l-293 -268zM121 1520h1030v-20c-39 0 -104 -37 -163 -132l-766 -1228c-36 -58 -78 -95 -114 -120h919c69 0 111 38 117 111l11 140l15 -2l-20 -260c0 -6 -6 -9 -10 -9h-1090v20c42 0 99 40 156 132l766 1228
c20 31 42 56 63 76c9 8 13 16 13 23c0 12 -11 21 -29 21h-784c-67 0 -112 -36 -112 -89c0 -94 63 -156 157 -156c61 0 103 50 152 50c63 0 106 -43 106 -108c0 -87 -67 -145 -167 -145c-166 0 -277 127 -277 317c0 44 9 97 17 142c0 4 4 9 10 9z" />
    <glyph glyph-name="zacute" unicode="&#x17a;" horiz-adv-x="1060" 
d="M447 1240l288 271c6 6 14 3 17 0s8 -11 2 -17l-293 -268zM91 1040h901v-20c-39 0 -93 -45 -163 -132l-607 -748c-43 -53 -78 -95 -114 -120h759c69 0 111 38 117 111l11 140l15 -2l-20 -260c0 -6 -6 -9 -10 -9h-930l1 20c42 0 87 48 155 132l607 748c25 31 48 56 69 77
c9 9 14 18 14 25c0 11 -11 18 -28 18h-663c-67 0 -112 -36 -112 -89c0 -82 55 -136 137 -136c56 0 92 35 132 35c57 0 96 -41 96 -103c0 -75 -63 -125 -157 -125c-142 0 -237 115 -237 287c0 44 9 97 17 142c0 4 4 9 10 9z" />
    <glyph glyph-name="Zdotaccent" unicode="&#x17b;" horiz-adv-x="1220" 
d="M515 1780c0 46 38 75 75 75c46 0 75 -38 75 -75c0 -46 -38 -75 -75 -75c-46 0 -75 38 -75 75zM121 1520h1030v-20c-39 0 -104 -37 -163 -132l-766 -1228c-36 -58 -78 -95 -114 -120h919c69 0 111 38 117 111l11 140l15 -2l-20 -260c0 -6 -6 -9 -10 -9h-1090v20
c42 0 99 40 156 132l766 1228c20 31 42 56 63 76c9 8 13 16 13 23c0 12 -11 21 -29 21h-784c-67 0 -112 -36 -112 -89c0 -94 63 -156 157 -156c61 0 103 50 152 50c63 0 106 -43 106 -108c0 -87 -67 -145 -167 -145c-166 0 -277 127 -277 317c0 44 9 97 17 142c0 4 4 9 10 9
z" />
    <glyph glyph-name="zdotaccent" unicode="&#x17c;" horiz-adv-x="1060" 
d="M475 1380c0 46 38 75 75 75c46 0 75 -38 75 -75c0 -46 -38 -75 -75 -75c-46 0 -75 38 -75 75zM91 1040h901v-20c-39 0 -93 -45 -163 -132l-607 -748c-43 -53 -78 -95 -114 -120h759c69 0 111 38 117 111l11 140l15 -2l-20 -260c0 -6 -6 -9 -10 -9h-930l1 20
c42 0 87 48 155 132l607 748c25 31 48 56 69 77c9 9 14 18 14 25c0 11 -11 18 -28 18h-663c-67 0 -112 -36 -112 -89c0 -82 55 -136 137 -136c56 0 92 35 132 35c57 0 96 -41 96 -103c0 -75 -63 -125 -157 -125c-142 0 -237 115 -237 287c0 44 9 97 17 142c0 4 4 9 10 9z
" />
    <glyph glyph-name="Zcaron" unicode="&#x17d;" horiz-adv-x="1220" 
d="M280 1910l307 -270h6l307 270l14 -15l-313 -275h-22l-313 275zM121 1520h1030v-20c-39 0 -104 -37 -163 -132l-766 -1228c-36 -58 -78 -95 -114 -120h919c69 0 111 38 117 111l11 140l15 -2l-20 -260c0 -6 -6 -9 -10 -9h-1090v20c42 0 99 40 156 132l766 1228
c20 31 42 56 63 76c9 8 13 16 13 23c0 12 -11 21 -29 21h-784c-67 0 -112 -36 -112 -89c0 -94 63 -156 157 -156c61 0 103 50 152 50c63 0 106 -43 106 -108c0 -87 -67 -145 -167 -145c-166 0 -277 127 -277 317c0 44 9 97 17 142c0 4 4 9 10 9z" />
    <glyph glyph-name="zcaron" unicode="&#x17e;" horiz-adv-x="1060" 
d="M240 1510l307 -270h6l307 270l14 -15l-313 -275h-22l-313 275zM91 1040h901v-20c-39 0 -93 -45 -163 -132l-607 -748c-43 -53 -78 -95 -114 -120h759c69 0 111 38 117 111l11 140l15 -2l-20 -260c0 -6 -6 -9 -10 -9h-930l1 20c42 0 87 48 155 132l607 748
c25 31 48 56 69 77c9 9 14 18 14 25c0 11 -11 18 -28 18h-663c-67 0 -112 -36 -112 -89c0 -82 55 -136 137 -136c56 0 92 35 132 35c57 0 96 -41 96 -103c0 -75 -63 -125 -157 -125c-142 0 -237 115 -237 287c0 44 9 97 17 142c0 4 4 9 10 9z" />
    <glyph glyph-name="florin" unicode="&#x192;" horiz-adv-x="720" 
d="M710 1486c3 -1 8 -9 2 -17c-6 -9 -12 -8 -15 -6c-35 24 -81 37 -133 37c-137 0 -295 -91 -307 -322l-7 -122c-2 -30 21 -36 34 -36h149l-1 -20h-149c-27 0 -36 -13 -37 -35l-68 -1280h-25l68 1281c1 24 -10 34 -35 34h-124l1 20h124c17 0 36 5 38 36l7 123
c13 240 186 341 333 341c56 0 106 -12 145 -34z" />
    <glyph glyph-name="uni01C4" unicode="&#x1c4;" horiz-adv-x="2625" 
d="M265 20h355c412 0 710 311 710 740s-298 740 -710 740h-355v-1078c0 -95 67 -158 174 -158c81 0 113 83 175 83c68 0 114 -46 114 -114c0 -92 -78 -153 -196 -153c-175 0 -292 138 -292 346v1029c0 31 -18 50 -150 50h-40v15h575c423 0 730 -319 730 -760
s-307 -760 -730 -760h-575v15c53 0 158 5 215 5zM1685 1910l307 -270h6l307 270l14 -15l-313 -275h-22l-313 275zM1526 1520h1030v-20c-39 0 -104 -37 -163 -132l-766 -1228c-36 -58 -78 -95 -114 -120h919c69 0 111 38 117 111l11 140l15 -2l-20 -260c0 -6 -6 -9 -10 -9
h-1090v20c42 0 99 40 156 132l766 1228c20 31 42 56 63 76c9 8 13 16 13 23c0 12 -11 21 -29 21h-784c-69 0 -110 -36 -116 -109l-11 -142l-17 2l20 260c0 4 4 9 10 9z" />
    <glyph glyph-name="uni01C5" unicode="&#x1c5;" horiz-adv-x="2485" 
d="M265 20h355c412 0 710 311 710 740s-298 740 -710 740h-355v-1078c0 -95 67 -158 174 -158c81 0 113 83 175 83c68 0 114 -46 114 -114c0 -92 -78 -153 -196 -153c-175 0 -292 138 -292 346v1029c0 31 -18 50 -150 50h-40v15h575c423 0 730 -319 730 -760
s-307 -760 -730 -760h-575v15c53 0 158 5 215 5zM1665 1510l307 -270h6l307 270l14 -15l-313 -275h-22l-313 275zM1690 1020c-69 0 -110 -36 -116 -109l-11 -142l-7 2l10 260c0 4 4 9 10 9h841v-20c-39 0 -93 -45 -163 -132l-607 -748c-43 -53 -78 -95 -114 -120h759
c69 0 111 38 117 111l11 140l15 -2l-20 -260c0 -6 -6 -9 -10 -9h-930l1 20c42 0 87 48 155 132l607 748c25 31 48 56 69 77c9 9 14 18 14 25c0 11 -11 18 -28 18h-603z" />
    <glyph glyph-name="uni01C6" unicode="&#x1c6;" horiz-adv-x="2185" 
d="M730 1520h45l130 3v-1274l9 -100c7 -74 35 -135 65 -136l97 18l4 -20l-98 -16h-2c-52 0 -84 78 -91 152l-4 45c-2 17 -5 27 -11 27s-12 -7 -20 -21c-72 -123 -195 -203 -346 -203c-257 0 -442 221 -443 525c0 304 183 525 433 525c193 0 322 -117 322 -292
c0 -106 -61 -176 -153 -176c-62 0 -104 38 -104 94c0 62 73 84 73 165c0 113 -55 189 -138 189c-236 0 -408 -212 -408 -505c1 -293 176 -505 418 -505c181 0 318 121 372 296v1144c0 37 -28 50 -105 50h-45v15zM1365 1510l307 -270h6l307 270l14 -15l-313 -275h-22
l-313 275zM1141 1040h976v-20c-39 0 -93 -45 -163 -132l-607 -748c-43 -53 -78 -95 -114 -120h759c69 0 111 38 117 111l11 140l15 -2l-20 -260c0 -6 -6 -9 -10 -9h-930l1 20c42 0 87 48 155 132l607 748c25 31 48 56 69 77c9 9 14 18 14 25c0 11 -11 18 -28 18h-738
c-67 0 -112 -36 -112 -89c0 -82 55 -136 137 -136c56 0 92 35 132 35c57 0 96 -41 96 -103c0 -75 -63 -125 -157 -125c-142 0 -237 115 -237 287c0 44 9 97 17 142c0 4 4 9 10 9z" />
    <glyph glyph-name="uni01C7" unicode="&#x1c7;" horiz-adv-x="1830" 
d="M1340 1520h460v-15h-35c-132 0 -150 -19 -150 -50v-1425c0 -296 -162 -510 -384 -510c-114 0 -206 69 -206 153c0 63 56 114 124 114c62 0 94 -43 175 -43c176 0 266 114 266 286v1425c0 31 -18 50 -150 50h-100v15zM50 1520h400c190 0 317 -95 317 -237
c0 -88 -54 -147 -135 -147c-65 0 -108 43 -108 106c0 49 50 91 50 152c0 67 -64 111 -159 111c-132 0 -150 -22 -150 -53v-1432h807c91 0 121 32 127 117l16 254l20 -2l-25 -380c0 -7 -7 -9 -10 -9h-1150v15h40c137 0 150 27 150 56v1381c0 31 -18 53 -150 53h-40v15z" />
    <glyph glyph-name="uni01C8" unicode="&#x1c8;" horiz-adv-x="1670" 
d="M1465 1380c0 21 18 40 40 40c21 0 40 -18 40 -40c0 -21 -18 -40 -40 -40c-21 0 -40 18 -40 40zM1340 1040h45l130 3v-1023c0 -300 -126 -500 -314 -500c-112 0 -186 61 -186 153c0 62 42 104 104 104s94 -43 175 -43c118 0 196 114 196 286v955c0 37 -28 50 -105 50h-45
v15zM50 1520h400c190 0 317 -95 317 -237c0 -88 -54 -147 -135 -147c-65 0 -108 43 -108 106c0 49 50 91 50 152c0 67 -64 111 -159 111c-132 0 -150 -22 -150 -53v-1432h807c91 0 121 32 127 117l16 254l20 -2l-25 -380c0 -7 -7 -9 -10 -9h-1150v15h40c137 0 150 27 150 56
v1381c0 31 -18 53 -150 53h-40v15z" />
    <glyph glyph-name="uni01C9" unicode="&#x1c9;" horiz-adv-x="880" 
d="M550 1040h45l130 3v-1023c0 -300 -126 -500 -314 -500c-112 0 -186 61 -186 153c0 62 42 104 104 104s94 -43 175 -43c118 0 196 114 196 286v955c0 37 -28 50 -105 50h-45v15zM637 1380c0 46 38 75 75 75c46 0 75 -38 75 -75c0 -46 -38 -75 -75 -75c-46 0 -75 38 -75 75
zM265 70c0 -29 13 -55 150 -55h35v-15h-400v15h40c137 0 150 26 150 55v1385c0 37 -28 50 -105 50h-45v15h45l130 3v-1453z" />
    <glyph glyph-name="uni01CA" unicode="&#x1ca;" horiz-adv-x="1970" 
d="M1480 1520h460v-15h-35c-132 0 -150 -19 -150 -50v-1425c0 -296 -162 -510 -384 -510c-114 0 -206 69 -206 153c0 63 56 114 124 114c62 0 94 -43 175 -43c176 0 266 114 266 286v1425c0 31 -18 50 -150 50h-100v15zM50 1520h229c4 0 7 -3 8 -5l890 -1427
c7 -12 15 -18 21 -18c7 0 12 9 12 26v1144c0 454 180 759 541 759c114 0 206 -69 206 -153c0 -63 -56 -114 -124 -114c-62 0 -94 43 -175 43c-292 0 -427 -262 -427 -592l-1 -1183h-21c-3 0 -7 1 -9 5l-933 1495h-9c9 -36 12 -55 12 -111v-1319c0 -29 13 -55 150 -55h35v-15
h-395v15h40c137 0 150 26 150 55v1320c0 106 -68 115 -188 115h-12v15z" />
    <glyph glyph-name="uni01CB" unicode="&#x1cb;" horiz-adv-x="1810" 
d="M1480 1040h45l130 3v-1023c0 -300 -126 -500 -314 -500c-112 0 -186 61 -186 153c0 62 42 104 104 104s94 -43 175 -43c118 0 196 114 196 286v955c0 37 -28 50 -105 50h-45v15zM1567 1380c0 46 38 75 75 75c46 0 75 -38 75 -75c0 -46 -38 -75 -75 -75
c-46 0 -75 38 -75 75zM50 1520h229c4 0 7 -3 8 -5l890 -1427c7 -12 15 -18 21 -18c7 0 12 9 12 26v1144c0 454 180 759 541 759c114 0 206 -69 206 -153c0 -63 -56 -114 -124 -114c-62 0 -94 43 -175 43c-292 0 -427 -262 -427 -592l-1 -1183h-21c-3 0 -7 1 -9 5l-933 1495
h-9c9 -36 12 -55 12 -111v-1319c0 -29 13 -55 150 -55h35v-15h-395v15h40c137 0 150 26 150 55v1320c0 106 -68 115 -188 115h-12v15z" />
    <glyph glyph-name="uni01CC" unicode="&#x1cc;" horiz-adv-x="1630" 
d="M1425 1380c0 21 18 40 40 40c21 0 40 -18 40 -40c0 -21 -18 -40 -40 -40c-21 0 -40 18 -40 40zM1300 1040h45l130 3v-1023c0 -300 -126 -500 -314 -500c-112 0 -186 61 -186 153c0 62 42 104 104 104s94 -43 175 -43c118 0 196 114 196 286v955c0 37 -28 50 -105 50h-45
v15zM110 1040h25l130 3v-352c0 -17 2 -31 7 -31c4 0 9 7 16 25c79 202 255 360 442 360c214 0 330 -98 330 -280v-695c0 -29 13 -55 150 -55h40v-15h-420v15h55c137 0 150 26 150 55v692c0 169 -103 260 -305 260c-236 0 -465 -270 -465 -560v-392c0 -29 13 -55 150 -55h55
v-15h-420v15h40c137 0 150 26 150 55v905c0 37 -28 50 -105 50h-25v15z" />
    <glyph glyph-name="uni01CD" unicode="&#x1cd;" horiz-adv-x="1330" 
d="M379 1910l307 -270h6l307 270l14 -15l-313 -275h-22l-313 275zM1132 241l-86 239h-726l-143 -397c-3 -10 -5 -18 -5 -25c0 -36 44 -43 147 -43h41v-15h-340v15h5c86 0 115 20 134 74l510 1424c2 5 6 7 9 7h27c7 0 10 -6 10 -10c0 -20 5 -49 25 -104l428 -1194
c64 -180 140 -467 451 -467c81 0 113 43 175 43c68 0 124 -51 124 -114c0 -84 -92 -153 -206 -153c-323 0 -428 297 -580 720zM327 500h712l-322 900c-18 50 -20 62 -21 67h-23z" />
    <glyph glyph-name="uni01CE" unicode="&#x1ce;" 
d="M210 1510l307 -270h6l307 270l14 -15l-313 -275h-22l-313 275zM571 1045c192 0 329 -136 329 -324v-486l16 -95c14 -84 33 -119 61 -120l107 10l2 -20l-109 -15h-1c-49 0 -72 60 -85 141c-5 31 -16 90 -16 98v22c0 18 -3 27 -7 27s-9 -7 -15 -21
c-69 -148 -218 -267 -398 -267c-226 0 -390 111 -390 265c0 192 185 259 389 280c124 13 379 22 416 143c3 11 5 22 5 32v6c-1 175 -123 304 -301 304c-135 0 -225 -48 -225 -119c0 -81 73 -103 73 -165c0 -56 -42 -94 -104 -94c-92 0 -153 70 -153 176
c0 133 162 222 406 222zM875 646c-67 -111 -309 -115 -419 -126c-202 -21 -366 -85 -366 -260c0 -142 153 -245 365 -245c237 0 420 218 420 430v201z" />
    <glyph glyph-name="uni01CF" unicode="&#x1cf;" horiz-adv-x="500" 
d="M-57 1910l307 -270h6l307 270l14 -15l-313 -275h-22l-313 275zM450 0h-400v15h40c137 0 150 26 150 55v1383c0 31 -18 52 -150 52h-40v15h400v-15h-35c-132 0 -150 -21 -150 -52v-1383c0 -29 13 -55 150 -55h35v-15z" />
    <glyph glyph-name="uni01D0" unicode="&#x1d0;" horiz-adv-x="500" 
d="M-60 1510l307 -270h6l307 270l14 -15l-313 -275h-22l-313 275zM265 70c0 -29 13 -55 150 -55h35v-15h-400v15h40c137 0 150 26 150 55v905c0 37 -28 50 -105 50h-25v15h25l130 3v-973z" />
    <glyph glyph-name="uni01D1" unicode="&#x1d1;" horiz-adv-x="1410" 
d="M395 1910l307 -270h6l307 270l14 -15l-313 -275h-22l-313 275zM705 1525c370 0 640 -321 640 -765s-269 -765 -640 -765s-640 321 -640 765c0 218 65 407 175 542v-38c-95 -130 -150 -304 -150 -504c0 -432 258 -745 615 -745s615 313 615 745s-259 745 -615 745
c-146 0 -243 -72 -243 -179c0 -81 83 -113 83 -175c0 -68 -46 -114 -114 -114c-92 0 -153 78 -153 196c0 175 171 292 427 292z" />
    <glyph glyph-name="uni01D2" unicode="&#x1d2;" 
d="M240 1510l307 -270h6l307 270l14 -15l-313 -275h-22l-313 275zM555 1045c226 0 376 -109 377 -272c0 -106 -53 -176 -133 -176c-65 0 -108 46 -108 114c0 54 57 91 57 155c-1 95 -77 159 -193 159c-271 0 -465 -212 -465 -505s195 -505 465 -505s465 212 465 505
c0 96 -21 184 -59 258l-1 50c54 -85 85 -190 85 -308c0 -304 -206 -525 -490 -525s-490 221 -490 525s205 525 490 525z" />
    <glyph glyph-name="uni01D3" unicode="&#x1d3;" horiz-adv-x="1377" 
d="M405 1910l307 -270h6l307 270l14 -15l-313 -275h-22l-313 275zM1180 1240c0 454 180 759 541 759c114 0 206 -69 206 -153c0 -63 -56 -114 -124 -114c-62 0 -94 43 -175 43c-292 0 -427 -262 -427 -592l-1 -698c0 -286 -213 -490 -500 -490c-280 0 -480 208 -480 490v965
c0 29 -13 55 -150 55h-40v15h440v-15h-75c-137 0 -150 -26 -150 -55v-965c0 -271 186 -470 455 -470c277 0 480 195 480 470v755z" />
    <glyph glyph-name="uni01D4" unicode="&#x1d4;" horiz-adv-x="1220" 
d="M280 1510l307 -270h6l307 270l14 -15l-313 -275h-22l-313 275zM50 1040h25l130 3v-765c0 -169 103 -260 305 -260c236 0 465 270 465 560v102c0 166 -74 277 -185 277c-75 0 -125 39 -125 97c0 66 47 111 119 111c129 0 216 -164 216 -409v-507l9 -100
c7 -74 35 -133 65 -134l96 16l4 -20l-97 -16h-2c-52 0 -84 78 -91 152l-9 101v101c0 17 -2 31 -7 31c-4 0 -9 -7 -16 -25c-79 -202 -255 -360 -442 -360c-214 0 -330 98 -330 280v700c0 37 -28 50 -105 50h-25v15z" />
    <glyph glyph-name="uni01E2" unicode="&#x1e2;" horiz-adv-x="2000" 
d="M1400 1800h-640v20h640v-20zM408 620h642v810c0 51 -18 70 -70 70h-151c-43 0 -61 -39 -72 -65zM655 1520h1175c7 0 10 -6 10 -9l25 -380l-20 -2l-16 254c-6 88 -39 117 -127 117h-626l-1 -880h187c114 0 190 64 190 159c0 81 -83 113 -83 175c0 68 46 114 114 114
c92 0 153 -78 153 -196c0 -163 -150 -272 -374 -272h-187v-580h707c91 0 121 32 127 117l16 254l20 -2l-25 -380c0 -7 -7 -9 -10 -9h-1050v15h40c137 0 150 27 150 56v529h-650l-222 -517c-5 -11 -7 -19 -7 -27c0 -36 51 -41 149 -41h40v-15h-340v15h5c86 0 111 21 134 74
l579 1351c2 6 4 12 4 19c0 22 -14 46 -49 46h-38v15z" />
    <glyph glyph-name="uni01E3" unicode="&#x1e3;" horiz-adv-x="1900" 
d="M1236 1400h-640v20h640v-20zM571 1045c190 0 329 -136 329 -324v-25c63 210 240 349 465 349c286 0 470 -215 470 -505c0 -7 -6 -10 -10 -10h-925v-10c0 -292 187 -505 455 -505c226 0 364 98 439 231l18 -10c-78 -139 -225 -241 -457 -241c-231 0 -407 152 -462 373
c-4 -13 -18 -59 -40 -106c-68 -148 -218 -267 -398 -267c-226 0 -390 111 -390 265c0 192 185 259 389 280c122 13 257 7 421 10v171c-1 175 -125 304 -301 304c-135 0 -225 -48 -225 -119c0 -81 73 -103 73 -165c0 -56 -42 -94 -104 -94c-92 0 -153 70 -153 176
c0 133 162 222 406 222zM901 550h858c35 0 45 35 45 68c0 11 -1 21 -3 30c-39 223 -198 377 -436 377c-261 0 -451 -195 -464 -475zM875 530c-166 -4 -358 -4 -419 -10c-202 -21 -366 -85 -366 -260c0 -142 153 -245 365 -245c237 0 420 218 420 430v75v10z" />
    <glyph glyph-name="Gcaron" unicode="&#x1e6;" horiz-adv-x="1315" 
d="M365 1910l307 -270h6l307 270l14 -15l-313 -275h-22l-313 275zM675 1525c260 0 434 -117 434 -292c0 -118 -61 -196 -153 -196c-68 0 -114 46 -114 114c0 62 83 94 83 175c0 107 -100 179 -250 179c-350 0 -585 -297 -585 -743c0 -433 229 -747 545 -747
c138 0 277 85 377 165c33 27 74 65 93 87v392c0 31 -18 51 -150 51h-200v20h530v-20h-21c-123 0 -139 -22 -139 -51v-664c0 -3 -3 -10 -10 -10c-4 0 -10 3 -10 10v148c0 33 -2 55 -19 55c-12 0 -30 -10 -61 -33c-103 -82 -247 -170 -390 -170c-331 0 -570 322 -570 767
c0 458 245 763 610 763z" />
    <glyph glyph-name="gcaron" unicode="&#x1e7;" horiz-adv-x="1120" 
d="M220 1510l307 -270h6l307 270l14 -15l-313 -275h-22l-313 275zM530 1045c109 0 200 -32 264 -88c8 -7 14 -11 20 -11s10 4 14 14c18 51 55 84 107 85c23 0 98 -1 98 -28c0 -13 -8 -23 -20 -23c-26 0 -46 31 -80 31c-50 0 -86 -42 -96 -113c48 -61 73 -140 73 -232
c0 -239 -166 -365 -380 -365c-72 0 -136 12 -191 35c-32 -31 -61 -64 -61 -107c0 -28 4 -44 13 -61c48 -89 220 -80 409 -89c234 0 390 -121 390 -302s-201 -271 -547 -271c-308 0 -513 133 -513 332c0 118 61 196 153 196c68 0 114 -46 114 -114c0 -62 -83 -94 -83 -175
c0 -128 132 -214 329 -214c347 0 527 85 527 246c0 167 -148 278 -371 278c-174 9 -366 -7 -426 104c-10 19 -15 38 -15 70c0 49 32 86 62 116c-120 58 -190 172 -190 321c0 242 177 365 400 365zM530 1025c-216 0 -375 -116 -375 -345c0 -211 140 -345 375 -345
c206 0 355 118 355 345c0 208 -131 345 -355 345z" />
    <glyph glyph-name="uni01E8" unicode="&#x1e8;" horiz-adv-x="1223" 
d="M330 1910l307 -270h6l307 270l14 -15l-313 -275h-22l-313 275zM50 1520h420v-15h-55c-132 0 -150 -22 -150 -53v-652h167c22 0 54 20 68 37l477 603c15 19 23 32 23 42c0 16 -22 23 -72 23h-110v15h382v-15h-15c-48 0 -133 -3 -192 -77l-504 -638
c203 -258 272 -398 540 -723c144 -175 283 -322 575 -322c81 0 113 43 175 43c68 0 124 -51 124 -114c0 -84 -92 -153 -206 -153c-277 0 -404 179 -683 528c-249 308 -324 446 -520 695c-12 15 -40 36 -62 36h-167v-710c0 -29 13 -55 150 -55h55v-15h-420v15h40
c137 0 150 26 150 55v1382c0 31 -18 53 -150 53h-40v15z" />
    <glyph glyph-name="uni01E9" unicode="&#x1e9;" horiz-adv-x="1050" 
d="M145 1870l307 -270h6l307 270l14 -15l-313 -275h-22l-313 275zM90 1520h45l130 3v-963h167c22 0 54 20 68 37l287 363c17 21 21 33 21 40c0 18 -31 25 -77 25h-103v15h382v-15c-56 0 -148 -2 -207 -77l-314 -398l320 -407c192 -244 338 -398 620 -398c81 0 113 43 175 43
c68 0 124 -51 124 -114c0 -84 -92 -153 -206 -153c-277 0 -458 259 -734 610l-293 373c-11 15 -41 36 -63 36h-167v-470c0 -29 13 -55 150 -55h35v-15h-400v15h40c137 0 150 26 150 55v1385c0 37 -28 50 -105 50h-45v15z" />
    <glyph glyph-name="uni01EA" unicode="&#x1ea;" horiz-adv-x="1410" 
d="M705 1525c372 0 640 -321 640 -765c0 -387 -203 -680 -501 -749c-33 -8 -47 -15 -70 -31c-88 -62 -239 -142 -239 -302c1 -71 45 -138 139 -138c52 0 112 22 168 86c6 7 14 2 15 1s6 -7 0 -14c-60 -68 -125 -93 -183 -93c-106 0 -163 77 -164 158c0 173 168 261 254 320
c-19 -2 -39 -3 -59 -3c-371 0 -639 321 -640 765c0 218 65 407 175 542v-38c-95 -130 -150 -304 -150 -504c1 -432 258 -745 615 -745s615 313 615 745s-257 745 -615 745c-146 0 -243 -72 -243 -179c0 -81 83 -113 83 -175c0 -68 -46 -114 -114 -114
c-92 0 -153 78 -153 196c0 175 171 292 427 292z" />
    <glyph glyph-name="uni01EB" unicode="&#x1eb;" 
d="M555 1045c226 0 376 -109 377 -272c0 -106 -53 -176 -133 -176c-65 0 -108 46 -108 114c0 54 57 91 57 155c-1 95 -77 159 -193 159c-269 0 -465 -212 -465 -505s195 -505 465 -505s465 212 465 505c0 96 -21 184 -59 258l-1 50c54 -85 85 -190 85 -308
c0 -268 -160 -472 -393 -516c-30 -6 -40 -11 -60 -25c-88 -62 -239 -141 -239 -301c1 -71 45 -138 139 -138c52 0 112 22 168 86c6 7 14 2 15 1s6 -7 0 -14c-60 -68 -125 -93 -183 -93c-106 0 -163 77 -164 158c0 172 166 259 252 318c-8 0 -16 -1 -25 -1
c-284 0 -490 221 -490 525s207 525 490 525z" />
    <glyph glyph-name="uni01EC" unicode="&#x1ec;" horiz-adv-x="1410" 
d="M1025 1645h-640v20h640v-20zM705 1525c372 0 640 -321 640 -765c0 -387 -203 -680 -501 -749c-33 -8 -47 -15 -70 -31c-88 -62 -239 -142 -239 -302c1 -71 45 -138 139 -138c52 0 112 22 168 86c6 7 14 2 15 1s6 -7 0 -14c-60 -68 -125 -93 -183 -93
c-106 0 -163 77 -164 158c0 173 168 261 254 320c-19 -2 -39 -3 -59 -3c-371 0 -639 321 -640 765c0 218 65 407 175 542v-38c-95 -130 -150 -304 -150 -504c1 -432 258 -745 615 -745s615 313 615 745s-257 745 -615 745c-146 0 -243 -72 -243 -179c0 -81 83 -113 83 -175
c0 -68 -46 -114 -114 -114c-92 0 -153 78 -153 196c0 175 171 292 427 292z" />
    <glyph glyph-name="uni01ED" unicode="&#x1ed;" 
d="M870 1400h-640v20h640v-20zM555 1045c226 0 376 -109 377 -272c0 -106 -53 -176 -133 -176c-65 0 -108 46 -108 114c0 54 57 91 57 155c-1 95 -77 159 -193 159c-269 0 -465 -212 -465 -505s195 -505 465 -505s465 212 465 505c0 96 -21 184 -59 258l-1 50
c54 -85 85 -190 85 -308c0 -268 -160 -472 -393 -516c-30 -6 -40 -11 -60 -25c-88 -62 -239 -141 -239 -301c1 -71 45 -138 139 -138c52 0 112 22 168 86c6 7 14 2 15 1s6 -7 0 -14c-60 -68 -125 -93 -183 -93c-106 0 -163 77 -164 158c0 172 166 259 252 318
c-8 0 -16 -1 -25 -1c-284 0 -490 221 -490 525s207 525 490 525z" />
    <glyph glyph-name="uni01F0" unicode="&#x1f0;" horiz-adv-x="380" 
d="M-98 1510l307 -270h6l307 270l14 -15l-313 -275h-22l-313 275zM50 1040h45l130 3v-1023c0 -300 -126 -500 -314 -500c-112 0 -186 61 -186 153c0 62 42 104 104 104s94 -43 175 -43c118 0 196 114 196 286v955c0 37 -28 50 -105 50h-45v15z" />
    <glyph glyph-name="uni01F1" unicode="&#x1f1;" horiz-adv-x="2625" 
d="M50 1520h575c423 0 730 -319 730 -760s-307 -760 -730 -760h-575v15l216 5h354c412 0 710 311 710 740s-298 740 -710 740h-355v-1078c0 -95 67 -158 174 -158c81 0 113 83 175 83c68 0 114 -46 114 -114c0 -92 -78 -153 -196 -153c-175 0 -292 138 -292 346v1023
c0 29 -13 56 -150 56h-40v15zM1526 1520h1030v-20c-39 0 -104 -37 -163 -132l-766 -1228c-36 -58 -78 -95 -114 -120h919c69 0 111 38 117 111l11 140l15 -2l-20 -260c0 -6 -6 -9 -10 -9h-1090v20c42 0 99 40 156 132l766 1228c20 31 42 56 63 76c9 8 13 16 13 23
c0 12 -11 21 -29 21h-784c-69 0 -110 -36 -116 -109l-11 -142l-17 2l20 260c0 4 4 9 10 9z" />
    <glyph glyph-name="uni01F2" unicode="&#x1f2;" horiz-adv-x="2295" 
d="M896 1040h1331v-20c-39 0 -93 -45 -163 -132l-607 -748c-43 -53 -78 -95 -114 -120h759c69 0 111 38 117 111l11 140l15 -2l-20 -260c0 -6 -6 -9 -10 -9h-930l1 20c42 0 87 48 155 132l607 748c25 31 48 56 69 77c9 9 14 18 14 25c0 11 -11 18 -28 18h-1093
c-67 0 -112 -36 -112 -89c0 -82 55 -136 137 -136c56 0 92 35 132 35c57 0 96 -41 96 -103c0 -75 -63 -125 -157 -125c-142 0 -237 115 -237 287c0 44 9 97 17 142c0 4 4 9 10 9zM1328 980c18 -69 27 -143 27 -220c0 -441 -307 -760 -730 -760h-575v15l216 5h354
c412 0 710 311 710 740c0 78 -10 151 -28 220h26zM1268 1080c-108 255 -348 420 -648 420h-355v-1078c0 -95 67 -158 174 -158c81 0 113 83 175 83c68 0 114 -46 114 -114c0 -92 -78 -153 -196 -153c-175 0 -292 138 -292 346v1023c0 29 -13 56 -150 56h-40v15h575
c311 0 560 -173 669 -440h-26z" />
    <glyph glyph-name="uni01F3" unicode="&#x1f3;" horiz-adv-x="2185" 
d="M730 1520h45l130 3v-1274l9 -100c7 -74 35 -135 65 -136l97 18l4 -20l-98 -16h-2c-52 0 -84 78 -91 152l-4 45c-2 17 -5 27 -11 27s-12 -7 -20 -21c-72 -123 -195 -203 -346 -203c-257 0 -443 221 -443 525s183 525 433 525c193 0 322 -117 322 -292
c0 -106 -61 -176 -153 -176c-62 0 -104 38 -104 94c0 62 73 84 73 165c0 113 -55 189 -138 189c-236 0 -408 -212 -408 -505s176 -505 418 -505c181 0 318 121 372 296v1144c0 37 -28 50 -105 50h-45v15zM1156 1040h951v-20c-39 0 -93 -45 -163 -132l-607 -748
c-43 -53 -78 -95 -114 -120h759c69 0 111 38 117 111l11 140l15 -2l-20 -260c0 -6 -6 -9 -10 -9h-930l1 20c42 0 87 48 155 132l607 748c25 31 48 56 69 77c9 9 14 18 14 25c0 11 -11 18 -28 18h-713c-67 0 -112 -36 -112 -89c0 -82 55 -136 137 -136c56 0 92 35 132 35
c57 0 96 -41 96 -103c0 -75 -63 -125 -157 -125c-142 0 -237 115 -237 287c0 44 9 97 17 142c0 4 4 9 10 9z" />
    <glyph glyph-name="uni01F4" unicode="&#x1f4;" horiz-adv-x="1315" 
d="M572 1640l288 271c6 6 14 3 17 0s8 -11 2 -17l-293 -268zM675 1525c260 0 434 -117 434 -292c0 -118 -61 -196 -153 -196c-68 0 -114 46 -114 114c0 62 83 94 83 175c0 107 -100 179 -250 179c-350 0 -585 -297 -585 -743c0 -433 229 -747 545 -747c138 0 277 85 377 165
c33 27 74 65 93 87v392c0 31 -18 51 -150 51h-200v20h530v-20h-21c-123 0 -139 -22 -139 -51v-664c0 -3 -3 -10 -10 -10c-4 0 -10 3 -10 10v148c0 33 -2 55 -19 55c-12 0 -30 -10 -61 -33c-103 -82 -247 -170 -390 -170c-331 0 -570 322 -570 767c0 458 245 763 610 763z
" />
    <glyph glyph-name="uni01F5" unicode="&#x1f5;" horiz-adv-x="1120" 
d="M427 1240l288 271c6 6 14 3 17 0s8 -11 2 -17l-293 -268zM530 1045c109 0 200 -32 264 -88c8 -7 14 -11 20 -11s10 4 14 14c18 51 55 84 107 85c23 0 98 -1 98 -28c0 -13 -8 -23 -20 -23c-26 0 -46 31 -80 31c-50 0 -86 -42 -96 -113c48 -61 73 -140 73 -232
c0 -239 -166 -365 -380 -365c-72 0 -136 12 -191 35c-32 -31 -61 -64 -61 -107c0 -28 4 -44 13 -61c48 -89 220 -80 409 -89c234 0 390 -121 390 -302s-201 -271 -547 -271c-308 0 -513 133 -513 332c0 118 61 196 153 196c68 0 114 -46 114 -114c0 -62 -83 -94 -83 -175
c0 -128 132 -214 329 -214c347 0 527 85 527 246c0 167 -148 278 -371 278c-174 9 -366 -7 -426 104c-10 19 -15 38 -15 70c0 49 32 86 62 116c-120 58 -190 172 -190 321c0 242 177 365 400 365zM530 1025c-216 0 -375 -116 -375 -345c0 -211 140 -345 375 -345
c206 0 355 118 355 345c0 208 -131 345 -355 345z" />
    <glyph glyph-name="uni01F8" unicode="&#x1f8;" horiz-adv-x="1430" 
d="M878 1640l-14 -14l-293 268c-6 6 -1 14 2 17s11 6 17 0zM50 1520h229c4 0 7 -3 8 -5l890 -1427c7 -12 15 -18 21 -18c7 0 12 9 12 26v1144c0 454 180 759 541 759c114 0 206 -69 206 -153c0 -63 -56 -114 -124 -114c-62 0 -94 43 -175 43c-292 0 -427 -262 -427 -592
l-1 -1183h-21c-3 0 -7 1 -9 5l-933 1495h-9c9 -36 12 -55 12 -111v-1319c0 -29 13 -55 150 -55h35v-15h-395v15h40c137 0 150 26 150 55v1320c0 106 -68 115 -188 115h-12v15z" />
    <glyph glyph-name="uni01F9" unicode="&#x1f9;" horiz-adv-x="1250" 
d="M783 1240l-14 -14l-293 268c-6 6 -1 14 2 17s11 6 17 0zM110 1040h25l130 3v-352c0 -17 2 -31 7 -31c4 0 9 7 16 25c79 202 255 360 442 360c214 0 330 -98 330 -280v-689c0 -106 35 -174 69 -174c61 0 81 48 140 48c64 0 106 -37 106 -93c0 -78 -67 -130 -167 -130
c-104 0 -173 107 -173 268v767c0 169 -103 260 -305 260c-236 0 -465 -270 -465 -560v-392c0 -29 13 -55 150 -55h55v-15h-420v15h40c137 0 150 26 150 55v905c0 37 -28 50 -105 50h-25v15z" />
    <glyph glyph-name="AEacute" unicode="&#x1fc;" horiz-adv-x="2000" 
d="M977 1640l288 271c6 6 14 3 17 0s8 -11 2 -17l-293 -268zM408 620h642v810c0 51 -18 70 -70 70h-151c-43 0 -61 -39 -72 -65zM655 1520h1175c7 0 10 -6 10 -9l25 -380l-20 -2l-16 254c-6 88 -39 117 -127 117h-626l-1 -880h187c114 0 190 64 190 159
c0 81 -83 113 -83 175c0 68 46 114 114 114c92 0 153 -78 153 -196c0 -163 -150 -272 -374 -272h-187v-580h707c91 0 121 32 127 117l16 254l20 -2l-25 -380c0 -7 -7 -9 -10 -9h-1050v15h40c137 0 150 27 150 56v529h-650l-222 -517c-5 -11 -7 -19 -7 -27
c0 -36 51 -41 149 -41h40v-15h-340v15h5c86 0 111 21 134 74l579 1351c2 6 4 12 4 19c0 22 -14 46 -49 46h-38v15z" />
    <glyph glyph-name="aeacute" unicode="&#x1fd;" horiz-adv-x="1900" 
d="M813 1240l288 271c6 6 14 3 17 0s8 -11 2 -17l-293 -268zM571 1045c190 0 329 -136 329 -324v-25c63 210 240 349 465 349c286 0 470 -215 470 -505c0 -7 -6 -10 -10 -10h-925v-10c0 -292 187 -505 455 -505c226 0 364 98 439 231l18 -10c-78 -139 -225 -241 -457 -241
c-231 0 -407 152 -462 373c-4 -13 -18 -59 -40 -106c-68 -148 -218 -267 -398 -267c-226 0 -390 111 -390 265c0 192 185 259 389 280c122 13 257 7 421 10v171c-1 175 -125 304 -301 304c-135 0 -225 -48 -225 -119c0 -81 73 -103 73 -165c0 -56 -42 -94 -104 -94
c-92 0 -153 70 -153 176c0 133 162 222 406 222zM901 550h858c35 0 45 35 45 68c0 11 -1 21 -3 30c-39 223 -198 377 -436 377c-261 0 -451 -195 -464 -475zM875 530c-166 -4 -358 -4 -419 -10c-202 -21 -366 -85 -366 -260c0 -142 153 -245 365 -245c237 0 420 218 420 430
v75v10z" />
    <glyph glyph-name="Oslashacute" unicode="&#x1fe;" horiz-adv-x="1410" 
d="M691 1680l288 271c6 6 14 3 17 0s8 -11 2 -17l-293 -268zM705 1525c169 0 315 -66 426 -180l151 201l16 -12l-153 -204c125 -137 200 -336 200 -570c0 -444 -269 -765 -640 -765c-168 0 -315 66 -426 180l-151 -201l-16 12l153 204c-125 137 -199 336 -200 570
c0 218 65 407 175 542v-38c-95 -130 -150 -304 -150 -504c1 -226 71 -419 189 -552l839 1119c-107 113 -249 178 -413 178c-146 0 -243 -72 -243 -179c0 -81 83 -113 83 -175c0 -68 -46 -114 -114 -114c-92 0 -153 78 -153 196c0 175 171 292 427 292zM705 15
c357 0 615 313 615 745c0 226 -71 419 -189 552l-839 -1119c107 -113 250 -178 413 -178z" />
    <glyph glyph-name="oslashacute" unicode="&#x1ff;" 
d="M541 1200l288 271c6 6 14 3 17 0s8 -11 2 -17l-293 -268zM555 1045c124 0 233 -42 317 -115l110 136l16 -12l-111 -138c99 -94 158 -233 158 -396c0 -304 -206 -525 -490 -525c-124 0 -233 42 -317 115l-110 -136l-16 12l111 138c-99 94 -158 233 -158 396
c0 118 31 223 85 308l-1 -50c-38 -74 -59 -162 -59 -258c0 -156 55 -289 147 -379l621 771c-80 71 -184 113 -303 113c-116 0 -192 -64 -193 -159c0 -64 57 -101 57 -155c0 -68 -43 -114 -108 -114c-80 0 -133 70 -133 176c1 163 151 272 377 272zM555 15
c270 0 465 212 465 505c0 156 -55 289 -147 379l-621 -771c80 -71 184 -113 303 -113z" />
    <glyph glyph-name="uni0200" unicode="&#x200;" horiz-adv-x="1330" 
d="M572 1640l-14 -14l-293 268c-6 6 -1 14 2 17s11 6 17 0zM972 1640l-14 -14l-293 268c-6 6 -1 14 2 17s11 6 17 0zM1132 241l-86 239h-726l-143 -397c-3 -10 -5 -18 -5 -25c0 -36 44 -43 147 -43h41v-15h-340v15h5c86 0 115 20 134 74l510 1424c2 5 6 7 9 7h27
c7 0 10 -6 10 -10c0 -20 5 -49 25 -104l428 -1194c64 -180 140 -467 451 -467c81 0 113 43 175 43c68 0 124 -51 124 -114c0 -84 -92 -153 -206 -153c-323 0 -428 297 -580 720zM327 500h712l-322 900c-18 50 -20 62 -21 67h-23z" />
    <glyph glyph-name="uni0201" unicode="&#x201;" 
d="M403 1240l-14 -14l-293 268c-6 6 -1 14 2 17s11 6 17 0zM803 1240l-14 -14l-293 268c-6 6 -1 14 2 17s11 6 17 0zM571 1045c192 0 329 -136 329 -324v-486l16 -95c14 -84 33 -119 61 -120l107 10l2 -20l-109 -15h-1c-49 0 -72 60 -85 141c-5 31 -16 90 -16 98v22
c0 18 -3 27 -7 27s-9 -7 -15 -21c-69 -148 -218 -267 -398 -267c-226 0 -390 111 -390 265c0 192 185 259 389 280c124 13 379 22 416 143c3 11 5 22 5 32v6c-1 175 -123 304 -301 304c-135 0 -225 -48 -225 -119c0 -81 73 -103 73 -165c0 -56 -42 -94 -104 -94
c-92 0 -153 70 -153 176c0 133 162 222 406 222zM875 646c-67 -111 -309 -115 -419 -126c-202 -21 -366 -85 -366 -260c0 -142 153 -245 365 -245c237 0 420 218 420 430v201z" />
    <glyph glyph-name="uni0202" unicode="&#x202;" horiz-adv-x="1330" 
d="M689 1831c-105 0 -189 -37 -249 -111l-17 12c42 53 119 119 266 119c151 0 226 -69 266 -119l-17 -12c-64 78 -148 111 -249 111zM1132 241l-86 239h-726l-143 -397c-3 -10 -5 -18 -5 -25c0 -36 44 -43 147 -43h41v-15h-340v15h5c86 0 115 20 134 74l510 1424
c2 5 6 7 9 7h27c7 0 10 -6 10 -10c0 -20 5 -49 25 -104l428 -1194c64 -180 140 -467 451 -467c81 0 113 43 175 43c68 0 124 -51 124 -114c0 -84 -92 -153 -206 -153c-323 0 -428 297 -580 720zM327 500h712l-322 900c-18 50 -20 62 -21 67h-23z" />
    <glyph glyph-name="uni0203" unicode="&#x203;" 
d="M520 1431c-105 0 -189 -37 -249 -111l-17 12c42 53 119 119 266 119c151 0 226 -69 266 -119l-17 -12c-64 78 -148 111 -249 111zM571 1045c192 0 329 -136 329 -324v-486l16 -95c14 -84 33 -119 61 -120l107 10l2 -20l-109 -15h-1c-49 0 -72 60 -85 141
c-5 31 -16 90 -16 98v22c0 18 -3 27 -7 27s-9 -7 -15 -21c-69 -148 -218 -267 -398 -267c-226 0 -390 111 -390 265c0 192 185 259 389 280c124 13 379 22 416 143c3 11 5 22 5 32v6c-1 175 -123 304 -301 304c-135 0 -225 -48 -225 -119c0 -81 73 -103 73 -165
c0 -56 -42 -94 -104 -94c-92 0 -153 70 -153 176c0 133 162 222 406 222zM875 646c-67 -111 -309 -115 -419 -126c-202 -21 -366 -85 -366 -260c0 -142 153 -245 365 -245c237 0 420 218 420 430v201z" />
    <glyph glyph-name="uni0204" unicode="&#x204;" horiz-adv-x="1290" 
d="M543 1640l-14 -14l-293 268c-6 6 -1 14 2 17s11 6 17 0zM943 1640l-14 -14l-293 268c-6 6 -1 14 2 17s11 6 17 0zM50 1520h1070c7 0 10 -6 10 -9l25 -380l-20 -2l-16 254c-6 88 -39 117 -127 117h-726l-1 -810h205c114 0 190 64 190 159c0 81 -83 113 -83 175
c0 68 46 114 114 114c92 0 153 -78 153 -196c0 -163 -150 -272 -374 -272h-205v-650h807c91 0 121 32 127 117l16 254l20 -2l-25 -380c0 -7 -7 -9 -10 -9h-1150v15h40c137 0 150 27 150 56v1384c0 31 -18 50 -150 50h-40v15z" />
    <glyph glyph-name="uni0205" unicode="&#x205;" horiz-adv-x="1090" 
d="M458 1240l-14 -14l-293 268c-6 6 -1 14 2 17s11 6 17 0zM858 1240l-14 -14l-293 268c-6 6 -1 14 2 17s11 6 17 0zM555 1045c286 0 470 -215 470 -505c0 -7 -6 -10 -10 -10h-524c-208 0 -346 89 -346 222c0 106 61 176 153 176c62 0 104 -38 104 -94
c0 -62 -73 -84 -73 -165c0 -71 66 -119 165 -119h455c35 0 45 35 45 68c0 11 -1 21 -3 30c-39 223 -198 377 -436 377c-92 0 -177 -25 -248 -70h-38c79 57 177 90 286 90zM102 732l14 -34c-17 -54 -26 -112 -26 -178c0 -292 187 -505 455 -505c226 0 364 98 439 231l18 -10
c-78 -139 -225 -241 -457 -241c-281 0 -480 224 -480 525c0 80 13 148 37 212z" />
    <glyph glyph-name="uni0206" unicode="&#x206;" horiz-adv-x="1290" 
d="M660 1831c-105 0 -189 -37 -249 -111l-17 12c42 53 119 119 266 119c151 0 226 -69 266 -119l-17 -12c-64 78 -148 111 -249 111zM50 1520h1070c7 0 10 -6 10 -9l25 -380l-20 -2l-16 254c-6 88 -39 117 -127 117h-726l-1 -810h205c114 0 190 64 190 159
c0 81 -83 113 -83 175c0 68 46 114 114 114c92 0 153 -78 153 -196c0 -163 -150 -272 -374 -272h-205v-650h807c91 0 121 32 127 117l16 254l20 -2l-25 -380c0 -7 -7 -9 -10 -9h-1150v15h40c137 0 150 27 150 56v1384c0 31 -18 50 -150 50h-40v15z" />
    <glyph glyph-name="uni0207" unicode="&#x207;" horiz-adv-x="1090" 
d="M575 1431c-105 0 -189 -37 -249 -111l-17 12c42 53 119 119 266 119c151 0 226 -69 266 -119l-17 -12c-64 78 -148 111 -249 111zM555 1045c286 0 470 -215 470 -505c0 -7 -6 -10 -10 -10h-524c-208 0 -346 89 -346 222c0 106 61 176 153 176c62 0 104 -38 104 -94
c0 -62 -73 -84 -73 -165c0 -71 66 -119 165 -119h455c35 0 45 35 45 68c0 11 -1 21 -3 30c-39 223 -198 377 -436 377c-92 0 -177 -25 -248 -70h-38c79 57 177 90 286 90zM102 732l14 -34c-17 -54 -26 -112 -26 -178c0 -292 187 -505 455 -505c226 0 364 98 439 231l18 -10
c-78 -139 -225 -241 -457 -241c-281 0 -480 224 -480 525c0 80 13 148 37 212z" />
    <glyph glyph-name="uni0208" unicode="&#x208;" horiz-adv-x="500" 
d="M233 1640l-14 -14l-273 268c-6 6 -1 14 2 17s11 6 17 0zM495 1640l-14 -14l-273 268c-6 6 -1 14 2 17s11 6 17 0zM450 0h-400v15h40c137 0 150 26 150 55v1383c0 31 -18 52 -150 52h-40v15h400v-15h-35c-132 0 -150 -21 -150 -52v-1383c0 -29 13 -55 150 -55h35v-15z" />
    <glyph glyph-name="uni0209" unicode="&#x209;" horiz-adv-x="500" 
d="M265 70c0 -29 13 -55 150 -55h35v-15h-400v15h40c137 0 150 26 150 55v905c0 37 -28 50 -105 50h-25v15h25l130 3v-973zM233 1240l-14 -14l-273 268c-6 6 -1 14 2 17s11 6 17 0zM495 1240l-14 -14l-273 268c-6 6 -1 14 2 17s11 6 17 0z" />
    <glyph glyph-name="uni020A" unicode="&#x20a;" horiz-adv-x="500" 
d="M253 1831c-105 0 -189 -37 -249 -111l-17 12c42 53 119 119 266 119c151 0 226 -69 266 -119l-17 -12c-64 78 -148 111 -249 111zM450 0h-400v15h40c137 0 150 26 150 55v1383c0 31 -18 52 -150 52h-40v15h400v-15h-35c-132 0 -150 -21 -150 -52v-1383
c0 -29 13 -55 150 -55h35v-15z" />
    <glyph glyph-name="uni020B" unicode="&#x20b;" horiz-adv-x="500" 
d="M250 1431c-105 0 -189 -37 -249 -111l-17 12c42 53 119 119 266 119c151 0 226 -69 266 -119l-17 -12c-64 78 -148 111 -249 111zM265 70c0 -29 13 -55 150 -55h35v-15h-400v15h40c137 0 150 26 150 55v905c0 37 -28 50 -105 50h-25v15h25l130 3v-973z" />
    <glyph glyph-name="uni020C" unicode="&#x20c;" horiz-adv-x="1410" 
d="M588 1640l-14 -14l-293 268c-6 6 -1 14 2 17s11 6 17 0zM988 1640l-14 -14l-293 268c-6 6 -1 14 2 17s11 6 17 0zM705 1525c370 0 640 -321 640 -765s-269 -765 -640 -765s-640 321 -640 765c0 218 65 407 175 542v-38c-95 -130 -150 -304 -150 -504
c0 -432 258 -745 615 -745s615 313 615 745s-259 745 -615 745c-146 0 -243 -72 -243 -179c0 -81 83 -113 83 -175c0 -68 -46 -114 -114 -114c-92 0 -153 78 -153 196c0 175 171 292 427 292z" />
    <glyph glyph-name="uni020D" unicode="&#x20d;" 
d="M433 1240l-14 -14l-293 268c-6 6 -1 14 2 17s11 6 17 0zM833 1240l-14 -14l-293 268c-6 6 -1 14 2 17s11 6 17 0zM555 1045c226 0 376 -109 377 -272c0 -106 -53 -176 -133 -176c-65 0 -108 46 -108 114c0 54 57 91 57 155c-1 95 -77 159 -193 159
c-271 0 -465 -212 -465 -505s195 -505 465 -505s465 212 465 505c0 96 -21 184 -59 258l-1 50c54 -85 85 -190 85 -308c0 -304 -206 -525 -490 -525s-490 221 -490 525s205 525 490 525z" />
    <glyph glyph-name="uni020E" unicode="&#x20e;" horiz-adv-x="1410" 
d="M705 1831c-105 0 -189 -37 -249 -111l-17 12c42 53 119 119 266 119c151 0 226 -69 266 -119l-17 -12c-64 78 -148 111 -249 111zM705 1525c370 0 640 -321 640 -765s-269 -765 -640 -765s-640 321 -640 765c0 218 65 407 175 542v-38c-95 -130 -150 -304 -150 -504
c0 -432 258 -745 615 -745s615 313 615 745s-259 745 -615 745c-146 0 -243 -72 -243 -179c0 -81 83 -113 83 -175c0 -68 -46 -114 -114 -114c-92 0 -153 78 -153 196c0 175 171 292 427 292z" />
    <glyph glyph-name="uni020F" unicode="&#x20f;" 
d="M550 1431c-105 0 -189 -37 -249 -111l-17 12c42 53 119 119 266 119c151 0 226 -69 266 -119l-17 -12c-64 78 -148 111 -249 111zM555 1045c226 0 376 -109 377 -272c0 -106 -53 -176 -133 -176c-65 0 -108 46 -108 114c0 54 57 91 57 155c-1 95 -77 159 -193 159
c-271 0 -465 -212 -465 -505s195 -505 465 -505s465 212 465 505c0 96 -21 184 -59 258l-1 50c54 -85 85 -190 85 -308c0 -304 -206 -525 -490 -525s-490 221 -490 525s205 525 490 525z" />
    <glyph glyph-name="uni0210" unicode="&#x210;" horiz-adv-x="1259" 
d="M518 1640l-14 -14l-293 268c-6 6 -1 14 2 17s11 6 17 0zM918 1640l-14 -14l-293 268c-6 6 -1 14 2 17s11 6 17 0zM50 1520h585c331 0 570 -185 570 -440c0 -240 -211 -418 -511 -438c157 -40 205 -93 294 -336c78 -209 198 -561 490 -561c81 0 113 43 175 43
c68 0 124 -51 124 -114c0 -84 -92 -153 -206 -153c-341 0 -448 352 -602 779c-87 241 -169 340 -444 340h-260v-570c0 -29 13 -55 150 -55h35v-15h-400v15h40c137 0 150 26 150 55v1385c0 31 -18 50 -150 50h-40v15zM265 660h260h107c319 0 548 176 548 420
s-229 420 -548 420h-366z" />
    <glyph glyph-name="uni0211" unicode="&#x211;" horiz-adv-x="900" 
d="M323 1240l-14 -14l-293 268c-6 6 -1 14 2 17s11 6 17 0zM723 1240l-14 -14l-293 268c-6 6 -1 14 2 17s11 6 17 0zM110 1040h25l130 3v-330c48 186 180 332 351 332c143 0 238 -77 238 -192c0 -106 -53 -176 -133 -176c-65 0 -108 46 -108 114c0 54 57 91 57 155
c0 47 -22 79 -54 79c-201 0 -351 -220 -351 -470v-485c0 -29 13 -55 150 -55h55v-15h-420v15h40c137 0 150 26 150 55v905c0 37 -28 50 -105 50h-25v15z" />
    <glyph glyph-name="uni0212" unicode="&#x212;" horiz-adv-x="1259" 
d="M635 1831c-105 0 -189 -37 -249 -111l-17 12c42 53 119 119 266 119c151 0 226 -69 266 -119l-17 -12c-64 78 -148 111 -249 111zM50 1520h585c331 0 570 -185 570 -440c0 -240 -211 -418 -511 -438c157 -40 205 -93 294 -336c78 -209 198 -561 490 -561
c81 0 113 43 175 43c68 0 124 -51 124 -114c0 -84 -92 -153 -206 -153c-341 0 -448 352 -602 779c-87 241 -169 340 -444 340h-260v-570c0 -29 13 -55 150 -55h35v-15h-400v15h40c137 0 150 26 150 55v1385c0 31 -18 50 -150 50h-40v15zM265 660h260h107
c319 0 548 176 548 420s-229 420 -548 420h-366z" />
    <glyph glyph-name="uni0213" unicode="&#x213;" horiz-adv-x="900" 
d="M440 1431c-105 0 -189 -37 -249 -111l-17 12c42 53 119 119 266 119c151 0 226 -69 266 -119l-17 -12c-64 78 -148 111 -249 111zM110 1040h25l130 3v-330c48 186 180 332 351 332c143 0 238 -77 238 -192c0 -106 -53 -176 -133 -176c-65 0 -108 46 -108 114
c0 54 57 91 57 155c0 47 -22 79 -54 79c-201 0 -351 -220 -351 -470v-485c0 -29 13 -55 150 -55h55v-15h-420v15h40c137 0 150 26 150 55v905c0 37 -28 50 -105 50h-25v15z" />
    <glyph glyph-name="uni0214" unicode="&#x214;" horiz-adv-x="1377" 
d="M598 1640l-14 -14l-293 268c-6 6 -1 14 2 17s11 6 17 0zM998 1640l-14 -14l-293 268c-6 6 -1 14 2 17s11 6 17 0zM1180 1240c0 454 180 759 541 759c114 0 206 -69 206 -153c0 -63 -56 -114 -124 -114c-62 0 -94 43 -175 43c-292 0 -427 -262 -427 -592l-1 -698
c0 -286 -213 -490 -500 -490c-280 0 -480 208 -480 490v965c0 29 -13 55 -150 55h-40v15h440v-15h-75c-137 0 -150 -26 -150 -55v-965c0 -271 186 -470 455 -470c277 0 480 195 480 470v755z" />
    <glyph glyph-name="uni0215" unicode="&#x215;" horiz-adv-x="1220" 
d="M473 1240l-14 -14l-293 268c-6 6 -1 14 2 17s11 6 17 0zM873 1240l-14 -14l-293 268c-6 6 -1 14 2 17s11 6 17 0zM50 1040h25l130 3v-765c0 -169 103 -260 305 -260c236 0 465 270 465 560v102c0 166 -74 277 -185 277c-75 0 -125 39 -125 97c0 66 47 111 119 111
c129 0 216 -164 216 -409v-507l9 -100c7 -74 35 -133 65 -134l96 16l4 -20l-97 -16h-2c-52 0 -84 78 -91 152l-9 101v101c0 17 -2 31 -7 31c-4 0 -9 -7 -16 -25c-79 -202 -255 -360 -442 -360c-214 0 -330 98 -330 280v700c0 37 -28 50 -105 50h-25v15z" />
    <glyph glyph-name="uni0216" unicode="&#x216;" horiz-adv-x="1377" 
d="M715 1831c-105 0 -189 -37 -249 -111l-17 12c42 53 119 119 266 119c151 0 226 -69 266 -119l-17 -12c-64 78 -148 111 -249 111zM1180 1240c0 454 180 759 541 759c114 0 206 -69 206 -153c0 -63 -56 -114 -124 -114c-62 0 -94 43 -175 43c-292 0 -427 -262 -427 -592
l-1 -698c0 -286 -213 -490 -500 -490c-280 0 -480 208 -480 490v965c0 29 -13 55 -150 55h-40v15h440v-15h-75c-137 0 -150 -26 -150 -55v-965c0 -271 186 -470 455 -470c277 0 480 195 480 470v755z" />
    <glyph glyph-name="uni0217" unicode="&#x217;" horiz-adv-x="1220" 
d="M590 1431c-105 0 -189 -37 -249 -111l-17 12c42 53 119 119 266 119c151 0 226 -69 266 -119l-17 -12c-64 78 -148 111 -249 111zM50 1040h25l130 3v-765c0 -169 103 -260 305 -260c236 0 465 270 465 560v102c0 166 -74 277 -185 277c-75 0 -125 39 -125 97
c0 66 47 111 119 111c129 0 216 -164 216 -409v-507l9 -100c7 -74 35 -133 65 -134l96 16l4 -20l-97 -16h-2c-52 0 -84 78 -91 152l-9 101v101c0 17 -2 31 -7 31c-4 0 -9 -7 -16 -25c-79 -202 -255 -360 -442 -360c-214 0 -330 98 -330 280v700c0 37 -28 50 -105 50h-25v15z
" />
    <glyph glyph-name="Scommaaccent" unicode="&#x218;" horiz-adv-x="1146" 
d="M556 1525c262 0 436 -117 436 -292c0 -118 -61 -196 -153 -196c-68 0 -114 46 -114 114c0 62 83 94 83 175c0 107 -101 179 -252 179c-224 -2 -382 -116 -382 -274c0 -243 269 -325 435 -422c178 -104 477 -205 477 -495c0 -185 -206 -319 -490 -319
c-154 0 -325 47 -427 146c-24 26 -44 47 -58 47c-13 0 -20 -17 -21 -64l-5 -144h-15l13 380h15v-11c0 -221 262 -332 498 -332c273 0 465 124 465 297c0 275 -280 367 -462 473c-159 93 -450 184 -450 444c0 174 178 294 407 294zM562 -186c0 21 18 40 40 40
c21 0 40 -18 40 -40c0 -89 -28 -143 -93 -214l-15 13c55 60 83 110 83 164h-1c-4 -2 -9 -3 -14 -3c-21 0 -40 18 -40 40z" />
    <glyph glyph-name="scommaaccent" unicode="&#x219;" horiz-adv-x="1010" 
d="M485 1045c87 0 207 -15 314 -101c20 -16 31 -30 39 -30c11 0 15 15 15 46c0 5 -1 24 -3 80h16l11 -300c0 -4 -3 -7 -8 -7s-8 3 -8 7l-1 8c-10 76 -26 142 -73 180c-100 82 -217 97 -302 97c-191 0 -330 -94 -330 -224c0 -249 795 -165 795 -557
c0 -144 -182 -249 -435 -249c-270 0 -450 105 -450 262c0 106 61 176 153 176c62 0 104 -38 104 -94c0 -62 -73 -84 -73 -165c0 -95 106 -159 266 -159c239 0 410 96 410 229c0 367 -795 275 -795 557c0 142 149 244 355 244zM489 -186c0 21 18 40 40 40c21 0 40 -18 40 -40
c0 -89 -28 -143 -93 -214l-15 13c55 60 83 110 83 164h-1c-4 -2 -9 -3 -14 -3c-21 0 -40 18 -40 40z" />
    <glyph glyph-name="uni021A" unicode="&#x21a;" horiz-adv-x="1310" 
d="M63 1520h1171c3 0 10 -2 10 -9l21 -320l-16 -2l-12 186c-7 95 -36 125 -137 125h-430v-1430c0 -29 13 -55 150 -55h35v-15h-400v15h40c137 0 150 26 150 55v1430h-459c-67 0 -112 -36 -112 -89c0 -94 47 -156 117 -156c61 0 103 50 152 50c63 0 106 -43 106 -108
c0 -87 -67 -145 -167 -145c-142 0 -237 127 -237 317c0 44 5 96 8 142c0 4 4 9 10 9zM619 -186c0 21 18 40 40 40c21 0 40 -18 40 -40c0 -89 -28 -143 -93 -214l-15 13c55 60 83 110 83 164h-1c-4 -2 -9 -3 -14 -3c-21 0 -40 18 -40 40z" />
    <glyph glyph-name="uni021B" unicode="&#x21b;" horiz-adv-x="830" 
d="M504 1000h-218c-27 0 -36 -13 -36 -35v-575c0 -218 110 -375 261 -375c90 0 188 38 241 122l16 -10c-57 -91 -162 -132 -257 -132c-166 0 -286 166 -286 395v575c0 22 -9 35 -36 35h-149v20h90c87 0 100 17 100 123v177h20v-266c0 -22 9 -34 36 -34h218c62 0 80 31 80 60
c0 40 -33 86 -33 129c0 63 48 114 108 114c79 0 131 -53 131 -133c0 -114 -114 -190 -286 -190zM476 -186c0 21 18 40 40 40c21 0 40 -18 40 -40c0 -89 -28 -143 -93 -214l-15 13c55 60 83 110 83 164h-1c-4 -2 -9 -3 -14 -3c-21 0 -40 18 -40 40z" />
    <glyph glyph-name="uni021E" unicode="&#x21e;" horiz-adv-x="1460" 
d="M420 1910l307 -270h6l307 270l14 -15l-313 -275h-22l-313 275zM50 1520h440v-15h-75c-137 0 -150 -23 -150 -52v-633h930v420c0 455 185 759 545 759c114 0 206 -69 206 -153c0 -63 -56 -114 -124 -114c-62 0 -94 43 -175 43c-292 0 -427 -262 -427 -592v-1111
c0 -29 13 -57 150 -57h40v-15h-440v15h75c137 0 150 28 150 57v728h-930v-728c0 -29 13 -57 150 -57h75v-15h-440v15h40c137 0 150 28 150 57v1381c0 29 -13 52 -150 52h-40v15z" />
    <glyph glyph-name="uni021F" unicode="&#x21f;" horiz-adv-x="1250" 
d="M145 1870l307 -270h6l307 270l14 -15l-313 -275h-22l-313 275zM50 0v15h40c137 0 150 26 150 55v1385c0 37 -28 50 -105 50h-45v15h45l130 3v-832c0 -17 2 -31 7 -31c4 0 9 7 16 25c79 202 255 360 442 360c214 0 330 -98 330 -280v-689c0 -106 35 -174 69 -174
c61 0 81 48 140 48c64 0 106 -37 106 -93c0 -78 -67 -130 -167 -130c-104 0 -173 107 -173 268v767c0 169 -107 260 -305 260c-232 0 -465 -280 -465 -560v-392c0 -29 13 -55 150 -55h55v-15h-420z" />
    <glyph glyph-name="uni0226" unicode="&#x226;" horiz-adv-x="1330" 
d="M614 1780c0 46 38 75 75 75c46 0 75 -38 75 -75c0 -46 -38 -75 -75 -75c-46 0 -75 38 -75 75zM1132 241l-86 239h-726l-143 -397c-3 -10 -5 -18 -5 -25c0 -36 44 -43 147 -43h41v-15h-340v15h5c86 0 115 20 134 74l510 1424c2 5 6 7 9 7h27c7 0 10 -6 10 -10
c0 -20 5 -49 25 -104l428 -1194c64 -180 140 -467 451 -467c81 0 113 43 175 43c68 0 124 -51 124 -114c0 -84 -92 -153 -206 -153c-323 0 -428 297 -580 720zM327 500h712l-322 900c-18 50 -20 62 -21 67h-23z" />
    <glyph glyph-name="uni0227" unicode="&#x227;" 
d="M445 1380c0 46 38 75 75 75c46 0 75 -38 75 -75c0 -46 -38 -75 -75 -75c-46 0 -75 38 -75 75zM571 1045c192 0 329 -136 329 -324v-486l16 -95c14 -84 33 -119 61 -120l107 10l2 -20l-109 -15h-1c-49 0 -72 60 -85 141c-5 31 -16 90 -16 98v22c0 18 -3 27 -7 27
s-9 -7 -15 -21c-69 -148 -218 -267 -398 -267c-226 0 -390 111 -390 265c0 192 185 259 389 280c124 13 379 22 416 143c3 11 5 22 5 32v6c-1 175 -123 304 -301 304c-135 0 -225 -48 -225 -119c0 -81 73 -103 73 -165c0 -56 -42 -94 -104 -94c-92 0 -153 70 -153 176
c0 133 162 222 406 222zM875 646c-67 -111 -309 -115 -419 -126c-202 -21 -366 -85 -366 -260c0 -142 153 -245 365 -245c237 0 420 218 420 430v201z" />
    </font>
</defs>
</svg>
