<?xml version="1.0" standalone="no"?>
<!DOCTYPE svg PUBLIC "-//W3C//DTD SVG 1.1//EN" "http://www.w3.org/Graphics/SVG/1.1/DTD/svg11.dtd" >
<svg xmlns="http://www.w3.org/2000/svg" xmlns:xlink="http://www.w3.org/1999/xlink" version="1.1">
<metadata>
Created by FontForge 20170924 at Wed Aug 20 14:56:25 2014
 By Glenn,,,
No Rights Reserved.
</metadata>
<defs>
<font id="Aileron-UltraLight" horiz-adv-x="530" >
  <font-face 
    font-family="Aileron UltraLight"
    font-weight="250"
    font-stretch="normal"
    units-per-em="1000"
    panose-1="0 0 3 0 0 0 0 0 0 0"
    ascent="770"
    descent="-230"
    x-height="518"
    cap-height="690"
    bbox="-200 -223 1080 895"
    underline-thickness="50"
    underline-position="-100"
    stemh="21"
    stemv="22"
    unicode-range="U+0020-FB02"
  />
<missing-glyph horiz-adv-x="500" 
d="M0 0v700h500v-700h-500zM250 395l170 255h-340zM280 350l170 -255v510zM80 50h340l-170 255zM50 605v-510l170 255z" />
    <glyph glyph-name="fi" unicode="fi" horiz-adv-x="396" 
d="M325 522v-522h-22v501h-199v-501h-22v501h-57v21h57v44c0 15 0 32 2 53c7 76 70 135 172 135c20 0 29 -1 47 -5v-21c-134 18 -191 -44 -197 -112c-2 -22 -2 -35 -2 -50v-44h221z" />
    <glyph glyph-name="fl" unicode="fl" horiz-adv-x="378" 
d="M296 51c2 -33 15 -40 56 -35v-19c-10 -2 -19 -2 -29 -2c-27 0 -47 11 -49 51c-1 20 -1 36 -1 74v601c-13 8 -31 12 -56 12c-84 0 -116 -57 -121 -117c-2 -22 -2 -35 -2 -50v-44h107v-21h-107v-501h-22v501h-47v21h47v44c0 15 0 32 2 53c7 76 52 135 142 135
c33 0 61 -7 79 -19v-615c0 -35 0 -55 1 -69z" />
    <glyph glyph-name=".notdef" horiz-adv-x="500" 
d="M0 0v700h500v-700h-500zM250 395l170 255h-340zM280 350l170 -255v510zM80 50h340l-170 255zM50 605v-510l170 255z" />
    <glyph glyph-name="A" unicode="A" horiz-adv-x="616" 
d="M471 269h-309l-103 -269h-23l267 690h29l267 -690h-24zM170 290h292l-145 381z" />
    <glyph glyph-name="Aacute" unicode="&#xc1;" horiz-adv-x="616" 
d="M324 736h-19l53 94h28zM471 269h-309l-103 -269h-23l267 690h29l267 -690h-24zM170 290h292l-145 381z" />
    <glyph glyph-name="Abreve" unicode="&#x102;" horiz-adv-x="616" 
d="M317 722c-58 0 -97 41 -97 108h18c1 -56 34 -87 79 -87s78 31 79 87h18c0 -67 -40 -108 -97 -108zM471 269h-309l-103 -269h-23l267 690h29l267 -690h-24zM170 290h292l-145 381z" />
    <glyph glyph-name="Acircumflex" unicode="&#xc2;" horiz-adv-x="616" 
d="M264 736h-23l65 94h23l65 -94h-24l-53 80zM471 269h-309l-103 -269h-23l267 690h29l267 -690h-24zM170 290h292l-145 381z" />
    <glyph glyph-name="Adieresis" unicode="&#xc4;" horiz-adv-x="616" 
d="M282 763c-11 0 -20 9 -20 20s9 20 20 20s20 -9 20 -20s-9 -20 -20 -20zM352 763c-11 0 -20 9 -20 20s9 20 20 20s20 -9 20 -20s-9 -20 -20 -20zM471 269h-309l-103 -269h-23l267 690h29l267 -690h-24zM170 290h292l-145 381z" />
    <glyph glyph-name="Agrave" unicode="&#xc0;" horiz-adv-x="616" 
d="M307 736l-62 94h28l53 -94h-19zM471 269h-309l-103 -269h-23l267 690h29l267 -690h-24zM170 290h292l-145 381z" />
    <glyph glyph-name="Amacron" unicode="&#x100;" horiz-adv-x="616" 
d="M387 772h-140v21h140v-21zM471 269h-309l-103 -269h-23l267 690h29l267 -690h-24zM170 290h292l-145 381z" />
    <glyph glyph-name="Aogonek" unicode="&#x104;" horiz-adv-x="616" 
d="M599 0h-5c-69 -30 -120 -84 -120 -151c0 -37 19 -52 46 -52c23 0 43 9 65 31v-23c-19 -19 -41 -28 -69 -28c-32 0 -64 15 -64 69c0 69 47 131 120 162l-101 261h-309l-103 -269h-23l267 690h29zM170 290h292l-145 381z" />
    <glyph glyph-name="Aring" unicode="&#xc5;" horiz-adv-x="616" 
d="M317 722c-34 0 -63 23 -63 61s29 61 63 61s63 -23 63 -61s-29 -61 -63 -61zM317 823c-25 0 -39 -18 -39 -40s14 -40 39 -40s39 18 39 40s-14 40 -39 40zM471 269h-309l-103 -269h-23l267 690h29l267 -690h-24zM170 290h292l-145 381z" />
    <glyph glyph-name="Atilde" unicode="&#xc3;" horiz-adv-x="616" 
d="M265 786c-10 0 -16 -6 -16 -21h-20c0 26 12 41 36 41c16 0 30 -4 57 -13c24 -8 38 -12 47 -12c10 0 16 6 16 21h20c0 -26 -12 -41 -36 -41c-16 0 -30 4 -57 13c-24 8 -38 12 -47 12zM471 269h-309l-103 -269h-23l267 690h29l267 -690h-24zM170 290h292l-145 381z" />
    <glyph glyph-name="AE" unicode="&#xc6;" horiz-adv-x="897" 
d="M865 20v-20h-402l-12 269h-267l-168 -269h-26l434 690h431v-20h-399l14 -315h365v-20h-365l14 -315h381zM451 290l-17 378l-236 -378h253z" />
    <glyph glyph-name="B" unicode="B" horiz-adv-x="587" 
d="M388 364c108 -16 160 -87 160 -181c0 -110 -89 -175 -192 -181c-25 -2 -44 -2 -68 -2h-192v690h174c27 0 43 0 78 -2c104 -7 174 -67 174 -163c0 -87 -51 -148 -134 -161zM118 669v-297h166c16 0 32 0 55 1c72 4 159 38 159 147s-83 145 -163 148c-23 1 -39 1 -65 1h-152
zM349 22c85 6 175 51 175 160c0 79 -40 162 -174 168c-23 1 -36 1 -52 1h-180v-330h186c16 0 32 0 45 1z" />
    <glyph glyph-name="C" unicode="C" horiz-adv-x="677" 
d="M364 704c151 0 235 -96 260 -220l2 -10h-22l-2 10c-23 113 -105 199 -242 199c-144 0 -285 -118 -285 -339c0 -229 129 -337 277 -337s228 92 252 210l2 10h22l-2 -10c-26 -129 -111 -231 -276 -231c-171 0 -299 132 -299 357c0 215 136 361 313 361z" />
    <glyph glyph-name="Cacute" unicode="&#x106;" horiz-adv-x="677" 
d="M351 736h-19l53 94h28zM364 704c151 0 235 -96 260 -220l2 -10h-22l-2 10c-23 113 -105 199 -242 199c-144 0 -285 -118 -285 -339c0 -229 129 -337 277 -337s228 92 252 210l2 10h22l-2 -10c-26 -129 -111 -231 -276 -231c-171 0 -299 132 -299 357
c0 215 136 361 313 361z" />
    <glyph glyph-name="Ccaron" unicode="&#x10c;" horiz-adv-x="677" 
d="M333 736l-65 94h24l53 -80l53 80h23l-65 -94h-23zM628 227l-2 -10c-26 -129 -111 -231 -276 -231c-171 0 -299 132 -299 357c0 215 136 361 313 361c151 0 235 -96 260 -220l2 -10h-22l-2 10c-23 113 -105 199 -242 199c-144 0 -285 -118 -285 -339
c0 -229 129 -337 277 -337s228 92 252 210l2 10h22z" />
    <glyph glyph-name="Ccedilla" unicode="&#xc7;" horiz-adv-x="677" 
d="M628 227l-2 -10c-25 -125 -106 -225 -262 -231l-20 -37c54 -5 88 -28 88 -77c0 -58 -52 -82 -101 -82c-22 0 -39 3 -53 10v22c15 -8 31 -11 53 -11c45 0 78 20 78 61c0 39 -30 62 -98 59l28 55c-165 6 -288 137 -288 357c0 215 136 361 313 361c151 0 235 -96 260 -220
l2 -10h-22l-2 10c-23 113 -105 199 -242 199c-144 0 -285 -118 -285 -339c0 -229 129 -337 277 -337s228 92 252 210l2 10h22z" />
    <glyph glyph-name="Cdotaccent" unicode="&#x10a;" horiz-adv-x="677" 
d="M344 803c11 0 20 -9 20 -20s-9 -20 -20 -20s-20 9 -20 20s9 20 20 20zM364 704c151 0 235 -96 260 -220l2 -10h-22l-2 10c-23 113 -105 199 -242 199c-144 0 -285 -118 -285 -339c0 -229 129 -337 277 -337s228 92 252 210l2 10h22l-2 -10c-26 -129 -111 -231 -276 -231
c-171 0 -299 132 -299 357c0 215 136 361 313 361z" />
    <glyph glyph-name="D" unicode="D" horiz-adv-x="679" 
d="M368 688c106 -8 273 -96 273 -340c0 -243 -165 -333 -258 -344c-35 -4 -56 -4 -88 -4h-199v690h199c32 0 48 0 73 -2zM380 25c109 13 237 116 237 323c0 217 -141 309 -250 319c-22 2 -36 2 -72 2h-177v-648h177c31 0 52 0 85 4z" />
    <glyph glyph-name="Eth" unicode="&#xd0;" horiz-adv-x="685" 
d="M374 688c106 -8 273 -96 273 -340c0 -243 -165 -333 -258 -344c-35 -4 -56 -4 -88 -4h-199v323h-60v21h60v346h199c32 0 48 0 73 -2zM386 25c109 13 237 116 237 323c0 217 -141 309 -250 319c-22 2 -36 2 -72 2h-177v-325h184v-21h-184v-302h177c31 0 52 0 85 4z" />
    <glyph glyph-name="Dcaron" unicode="&#x10e;" horiz-adv-x="679" 
d="M331 736l-65 94h24l53 -80l53 80h23l-65 -94h-23zM368 688c106 -8 273 -96 273 -340c0 -243 -165 -333 -258 -344c-35 -4 -56 -4 -88 -4h-199v690h199c32 0 48 0 73 -2zM380 25c109 13 237 116 237 323c0 217 -141 309 -250 319c-22 2 -36 2 -72 2h-177v-648h177
c31 0 52 0 85 4z" />
    <glyph glyph-name="Dcroat" unicode="&#x110;" horiz-adv-x="685" 
d="M374 688c106 -8 273 -96 273 -340c0 -243 -165 -333 -258 -344c-35 -4 -56 -4 -88 -4h-199v323h-60v21h60v346h199c32 0 48 0 73 -2zM386 25c109 13 237 116 237 323c0 217 -141 309 -250 319c-22 2 -36 2 -72 2h-177v-325h184v-21h-184v-302h177c31 0 52 0 85 4z" />
    <glyph glyph-name="E" unicode="E" horiz-adv-x="557" 
d="M525 20v-20h-429v690h419v-20h-397v-315h377v-20h-377v-315h407z" />
    <glyph glyph-name="Eacute" unicode="&#xc9;" horiz-adv-x="557" 
d="M297 736h-19l53 94h28zM525 20v-20h-429v690h419v-20h-397v-315h377v-20h-377v-315h407z" />
    <glyph glyph-name="Ecaron" unicode="&#x11a;" horiz-adv-x="557" 
d="M279 736l-65 94h24l53 -80l53 80h23l-65 -94h-23zM525 20v-20h-429v690h419v-20h-397v-315h377v-20h-377v-315h407z" />
    <glyph glyph-name="Ecircumflex" unicode="&#xca;" horiz-adv-x="557" 
d="M237 736h-23l65 94h23l65 -94h-24l-53 80zM525 20v-20h-429v690h419v-20h-397v-315h377v-20h-377v-315h407z" />
    <glyph glyph-name="Edieresis" unicode="&#xcb;" horiz-adv-x="557" 
d="M255 763c-11 0 -20 9 -20 20s9 20 20 20s20 -9 20 -20s-9 -20 -20 -20zM325 763c-11 0 -20 9 -20 20s9 20 20 20s20 -9 20 -20s-9 -20 -20 -20zM525 20v-20h-429v690h419v-20h-397v-315h377v-20h-377v-315h407z" />
    <glyph glyph-name="Edotaccent" unicode="&#x116;" horiz-adv-x="557" 
d="M290 763c-11 0 -20 9 -20 20s9 20 20 20s20 -9 20 -20s-9 -20 -20 -20zM525 20v-20h-429v690h419v-20h-397v-315h377v-20h-377v-315h407z" />
    <glyph glyph-name="Egrave" unicode="&#xc8;" horiz-adv-x="557" 
d="M280 736l-62 94h28l53 -94h-19zM525 20v-20h-429v690h419v-20h-397v-315h377v-20h-377v-315h407z" />
    <glyph glyph-name="Emacron" unicode="&#x112;" horiz-adv-x="557" 
d="M360 772h-140v21h140v-21zM525 20v-20h-429v690h419v-20h-397v-315h377v-20h-377v-315h407z" />
    <glyph glyph-name="Eogonek" unicode="&#x118;" horiz-adv-x="557" 
d="M525 20v-20c-69 -30 -120 -84 -120 -151c0 -37 19 -52 46 -52c23 0 43 9 65 31v-23c-19 -19 -41 -28 -69 -28c-32 0 -64 15 -64 69c0 64 40 121 102 154h-389v690h419v-20h-397v-315h377v-20h-377v-315h407z" />
    <glyph glyph-name="F" unicode="F" horiz-adv-x="531" 
d="M118 670v-315h367v-20h-367v-335h-22v690h419v-20h-397z" />
    <glyph glyph-name="G" unicode="G" horiz-adv-x="694" 
d="M379 307h255v-307h-22v184l-20 -65c-57 -96 -150 -133 -239 -133c-174 0 -302 132 -302 357c0 215 139 361 323 361c151 0 235 -96 260 -220l2 -10h-22l-2 10c-23 113 -105 199 -242 199c-151 0 -295 -118 -295 -339c0 -229 129 -337 280 -337c105 0 257 68 257 280h-233
v20z" />
    <glyph glyph-name="Gbreve" unicode="&#x11e;" horiz-adv-x="694" 
d="M360 722c-58 0 -97 41 -97 108h18c1 -56 34 -87 79 -87s78 31 79 87h18c0 -67 -40 -108 -97 -108zM379 307h255v-307h-22v184l-20 -65c-57 -96 -150 -133 -239 -133c-174 0 -302 132 -302 357c0 215 139 361 323 361c151 0 235 -96 260 -220l2 -10h-22l-2 10
c-23 113 -105 199 -242 199c-151 0 -295 -118 -295 -339c0 -229 129 -337 280 -337c105 0 257 68 257 280h-233v20z" />
    <glyph glyph-name="Gcommaaccent" unicode="&#x122;" horiz-adv-x="694" 
d="M379 307h255v-307h-22v184l-20 -65c-57 -96 -150 -133 -239 -133c-174 0 -302 132 -302 357c0 215 139 361 323 361c151 0 235 -96 260 -220l2 -10h-22l-2 10c-23 113 -105 199 -242 199c-151 0 -295 -118 -295 -339c0 -229 129 -337 280 -337c105 0 257 68 257 280h-233
v20zM348 -51h25v-5l-49 -117h-19z" />
    <glyph glyph-name="Gdotaccent" unicode="&#x120;" horiz-adv-x="694" 
d="M360 763c-11 0 -20 9 -20 20s9 20 20 20s20 -9 20 -20s-9 -20 -20 -20zM379 307h255v-307h-22v184l-20 -65c-57 -96 -150 -133 -239 -133c-174 0 -302 132 -302 357c0 215 139 361 323 361c151 0 235 -96 260 -220l2 -10h-22l-2 10c-23 113 -105 199 -242 199
c-151 0 -295 -118 -295 -339c0 -229 129 -337 280 -337c105 0 257 68 257 280h-233v20z" />
    <glyph glyph-name="H" unicode="H" horiz-adv-x="655" 
d="M584 690v-690h-22v328h-444v-328h-22v690h22v-341h444v341h22z" />
    <glyph glyph-name="Hbar" unicode="&#x126;" horiz-adv-x="655" 
d="M624 520h-40v-520h-22v328h-444v-328h-22v520h-40v21h40v149h22v-149h444v149h22v-149h40v-21zM562 520h-444v-171h444v171z" />
    <glyph glyph-name="I" unicode="I" horiz-adv-x="189" 
d="M118 0h-22v690h22v-690z" />
    <glyph glyph-name="IJ" unicode="&#x132;" horiz-adv-x="684" 
d="M118 0h-22v690h22v-690zM618 690v-430c0 -31 0 -59 -2 -91c-6 -92 -62 -183 -188 -183c-116 0 -186 67 -191 208l-1 30h22l1 -30c5 -138 78 -187 171 -187c98 0 155 61 164 165c2 22 2 49 2 80v438h22z" />
    <glyph glyph-name="Iacute" unicode="&#xcd;" horiz-adv-x="189" 
d="M114 736h-19l53 94h28zM118 0h-22v690h22v-690z" />
    <glyph glyph-name="Icircumflex" unicode="&#xce;" horiz-adv-x="189" 
d="M184 736h-24l-53 80l-53 -80h-23l65 94h23zM96 690h22v-690h-22v690z" />
    <glyph glyph-name="Idieresis" unicode="&#xcf;" horiz-adv-x="189" 
d="M72 803c11 0 20 -9 20 -20s-9 -20 -20 -20s-20 9 -20 20s9 20 20 20zM142 803c11 0 20 -9 20 -20s-9 -20 -20 -20s-20 9 -20 20s9 20 20 20zM118 0h-22v690h22v-690z" />
    <glyph glyph-name="Idotaccent" unicode="&#x130;" horiz-adv-x="189" 
d="M107 803c11 0 20 -9 20 -20s-9 -20 -20 -20s-20 9 -20 20s9 20 20 20zM118 0h-22v690h22v-690z" />
    <glyph glyph-name="Igrave" unicode="&#xcc;" horiz-adv-x="189" 
d="M116 736h-19l-62 94h28zM118 0h-22v690h22v-690z" />
    <glyph glyph-name="Imacron" unicode="&#x12a;" horiz-adv-x="189" 
d="M177 772h-140v21h140v-21zM118 0h-22v690h22v-690z" />
    <glyph glyph-name="Iogonek" unicode="&#x12e;" horiz-adv-x="189" 
d="M118 690v-690c-69 -30 -120 -84 -120 -151c0 -37 19 -52 46 -52c23 0 43 9 65 31v-23c-19 -19 -41 -28 -69 -28c-32 0 -64 15 -64 69c0 70 47 131 120 163v681h22z" />
    <glyph glyph-name="J" unicode="J" horiz-adv-x="495" 
d="M429 690v-430c0 -31 0 -59 -2 -91c-6 -92 -62 -183 -188 -183c-116 0 -186 67 -191 208l-1 30h22l1 -30c5 -138 78 -187 171 -187c98 0 155 61 164 165c2 22 2 49 2 80v438h22z" />
    <glyph glyph-name="K" unicode="K" horiz-adv-x="553" 
d="M180 355l355 -355h-33l-339 341l-45 -42v-299h-22v690h22v-366l394 366h29z" />
    <glyph glyph-name="Kcommaaccent" unicode="&#x136;" horiz-adv-x="553" 
d="M180 355l355 -355h-33l-339 341l-45 -42v-299h-22v690h22v-366l394 366h29zM285 -51h25v-5l-49 -117h-19z" />
    <glyph glyph-name="L" unicode="L" horiz-adv-x="539" 
d="M525 20v-20h-429v690h22v-670h407z" />
    <glyph glyph-name="Lacute" unicode="&#x139;" horiz-adv-x="539" 
d="M114 736h-19l53 94h28zM525 20v-20h-429v690h22v-670h407z" />
    <glyph glyph-name="Lcaron" unicode="&#x13d;" horiz-adv-x="539" 
d="M525 20v-20h-429v690h22v-670h407z" />
    <glyph glyph-name="Lcommaaccent" unicode="&#x13b;" horiz-adv-x="539" 
d="M525 20v-20h-429v690h22v-670h407zM278 -51h25v-5l-49 -117h-19z" />
    <glyph glyph-name="Ldot" unicode="&#x13f;" horiz-adv-x="539" 
d="M525 20v-20h-429v690h22v-670h407zM330 380c-11 0 -20 9 -20 20s9 20 20 20s20 -9 20 -20s-9 -20 -20 -20z" />
    <glyph glyph-name="Lslash" unicode="&#x141;" horiz-adv-x="571" 
d="M557 20v-20h-429v313l-114 -68v24l114 68v353h22v-340l184 109v-24l-184 -109v-306h407z" />
    <glyph glyph-name="M" unicode="M" horiz-adv-x="794" 
d="M723 690v-690h-21v400c0 88 -1 186 1 273c-34 -87 -74 -186 -111 -273l-169 -400h-28l-168 400c-36 87 -77 186 -111 273c2 -87 2 -185 2 -273v-400h-22v690h35l279 -669l281 669h32z" />
    <glyph glyph-name="N" unicode="N" horiz-adv-x="637" 
d="M566 0h-34l-416 670c2 -93 2 -202 2 -295v-375h-22v690h33l417 -670c-2 93 -2 202 -2 295v375h22v-690z" />
    <glyph glyph-name="Nacute" unicode="&#x143;" horiz-adv-x="637" 
d="M338 736h-19l53 94h28zM566 0h-34l-416 670c2 -93 2 -202 2 -295v-375h-22v690h33l417 -670c-2 93 -2 202 -2 295v375h22v-690z" />
    <glyph glyph-name="Ncaron" unicode="&#x147;" horiz-adv-x="637" 
d="M320 736l-65 94h24l53 -80l53 80h23l-65 -94h-23zM566 690v-690h-34l-416 670c2 -93 2 -202 2 -295v-375h-22v690h33l417 -670c-2 93 -2 202 -2 295v375h22z" />
    <glyph glyph-name="Ncommaaccent" unicode="&#x145;" horiz-adv-x="637" 
d="M566 0h-34l-416 670c2 -93 2 -202 2 -295v-375h-22v690h33l417 -670c-2 93 -2 202 -2 295v375h22v-690zM344 -56l-49 -117h-19l43 122h25v-5z" />
    <glyph glyph-name="Eng" unicode="&#x14a;" horiz-adv-x="637" 
d="M566 690v-757c0 -18 0 -27 -1 -41c-6 -81 -50 -112 -137 -115v21c77 0 116 27 116 119v64l-428 689c2 -93 2 -202 2 -295v-375h-22v690h33l417 -670c-2 93 -2 202 -2 295v375h22z" />
    <glyph glyph-name="Ntilde" unicode="&#xd1;" horiz-adv-x="637" 
d="M279 806c16 0 30 -4 57 -13c24 -8 38 -12 47 -12c10 0 16 6 16 21h20c0 -26 -12 -41 -36 -41c-16 0 -30 4 -57 13c-24 8 -38 12 -47 12c-10 0 -16 -6 -16 -21h-20c0 26 12 41 36 41zM566 0h-34l-416 670c2 -93 2 -202 2 -295v-375h-22v690h33l417 -670
c-2 93 -2 202 -2 295v375h22v-690z" />
    <glyph glyph-name="O" unicode="O" horiz-adv-x="713" 
d="M363 704c188 0 312 -152 312 -359c0 -206 -124 -359 -312 -359s-312 153 -312 359c0 207 124 359 312 359zM363 7c154 0 288 122 288 338c0 217 -134 338 -288 338s-288 -121 -288 -338c0 -216 134 -338 288 -338z" />
    <glyph glyph-name="Oacute" unicode="&#xd3;" horiz-adv-x="713" 
d="M370 736h-19l53 94h28zM363 704c188 0 312 -152 312 -359c0 -206 -124 -359 -312 -359s-312 153 -312 359c0 207 124 359 312 359zM363 7c154 0 288 122 288 338c0 217 -134 338 -288 338s-288 -121 -288 -338c0 -216 134 -338 288 -338z" />
    <glyph glyph-name="Ocircumflex" unicode="&#xd4;" horiz-adv-x="713" 
d="M310 736h-23l65 94h23l65 -94h-24l-53 80zM363 704c188 0 312 -152 312 -359c0 -206 -124 -359 -312 -359s-312 153 -312 359c0 207 124 359 312 359zM363 7c154 0 288 122 288 338c0 217 -134 338 -288 338s-288 -121 -288 -338c0 -216 134 -338 288 -338z" />
    <glyph glyph-name="Odieresis" unicode="&#xd6;" horiz-adv-x="713" 
d="M328 763c-11 0 -20 9 -20 20s9 20 20 20s20 -9 20 -20s-9 -20 -20 -20zM398 763c-11 0 -20 9 -20 20s9 20 20 20s20 -9 20 -20s-9 -20 -20 -20zM363 704c188 0 312 -152 312 -359c0 -206 -124 -359 -312 -359s-312 153 -312 359c0 207 124 359 312 359zM363 7
c154 0 288 122 288 338c0 217 -134 338 -288 338s-288 -121 -288 -338c0 -216 134 -338 288 -338z" />
    <glyph glyph-name="Ograve" unicode="&#xd2;" horiz-adv-x="713" 
d="M353 736l-62 94h28l53 -94h-19zM363 704c188 0 312 -152 312 -359c0 -206 -124 -359 -312 -359s-312 153 -312 359c0 207 124 359 312 359zM363 7c154 0 288 122 288 338c0 217 -134 338 -288 338s-288 -121 -288 -338c0 -216 134 -338 288 -338z" />
    <glyph glyph-name="Ohungarumlaut" unicode="&#x150;" horiz-adv-x="713" 
d="M328 736h-19l53 94h28zM415 736h-19l53 94h28zM363 704c188 0 312 -152 312 -359c0 -206 -124 -359 -312 -359s-312 153 -312 359c0 207 124 359 312 359zM363 7c154 0 288 122 288 338c0 217 -134 338 -288 338s-288 -121 -288 -338c0 -216 134 -338 288 -338z" />
    <glyph glyph-name="Omacron" unicode="&#x14c;" horiz-adv-x="713" 
d="M433 772h-140v21h140v-21zM363 704c188 0 312 -152 312 -359c0 -206 -124 -359 -312 -359s-312 153 -312 359c0 207 124 359 312 359zM363 7c154 0 288 122 288 338c0 217 -134 338 -288 338s-288 -121 -288 -338c0 -216 134 -338 288 -338z" />
    <glyph glyph-name="Oslash" unicode="&#xd8;" horiz-adv-x="713" 
d="M679 646l-70 -70c42 -61 66 -141 66 -231c0 -206 -124 -359 -312 -359c-98 0 -179 42 -233 111l-68 -68l-15 15l70 70c-42 61 -66 141 -66 231c0 207 124 359 312 359c98 0 179 -41 234 -110l67 67zM75 345c0 -88 22 -160 58 -215l447 447c-53 69 -132 106 -217 106
c-154 0 -288 -121 -288 -338zM651 345c0 88 -22 160 -58 215l-447 -447c54 -69 132 -106 217 -106c154 0 288 122 288 338z" />
    <glyph glyph-name="Otilde" unicode="&#xd5;" horiz-adv-x="713" 
d="M311 786c-10 0 -16 -6 -16 -21h-20c0 26 12 41 36 41c16 0 30 -4 57 -13c24 -8 38 -12 47 -12c10 0 16 6 16 21h20c0 -26 -12 -41 -36 -41c-16 0 -30 4 -57 13c-24 8 -38 12 -47 12zM363 704c188 0 312 -152 312 -359c0 -206 -124 -359 -312 -359s-312 153 -312 359
c0 207 124 359 312 359zM363 7c154 0 288 122 288 338c0 217 -134 338 -288 338s-288 -121 -288 -338c0 -216 134 -338 288 -338z" />
    <glyph glyph-name="OE" unicode="&#x152;" horiz-adv-x="1112" 
d="M1080 20v-20h-429v206l-31 -78c-66 -101 -146 -142 -257 -142c-188 0 -312 153 -312 359c0 207 124 359 312 359c115 0 183 -37 257 -138l31 -82v206h419v-20h-397v-315h377v-20h-377v-315h407zM363 7c164 0 288 122 288 338c0 217 -124 338 -288 338
c-154 0 -288 -121 -288 -338c0 -216 134 -338 288 -338z" />
    <glyph glyph-name="P" unicode="P" horiz-adv-x="521" 
d="M348 685c93 -12 167 -64 167 -181c0 -120 -74 -179 -167 -191c-32 -4 -64 -5 -99 -5h-131v-308h-22v690h153c35 0 67 -1 99 -5zM344 334c84 10 147 61 147 170c0 103 -63 150 -147 160c-32 4 -59 5 -95 5h-131v-340h131c36 0 63 1 95 5z" />
    <glyph glyph-name="Thorn" unicode="&#xde;" horiz-adv-x="640" 
d="M348 567c93 -12 167 -59 167 -171c0 -115 -74 -169 -167 -181c-32 -4 -64 -5 -99 -5h-131v-210h-22v690h22v-118h131c35 0 67 -1 99 -5zM344 236c84 10 147 56 147 160c0 98 -63 140 -147 150c-32 4 -59 5 -95 5h-131v-320h131c36 0 63 1 95 5z" />
    <glyph glyph-name="Q" unicode="Q" horiz-adv-x="715" 
d="M675 345c0 -116 -35 -243 -165 -321c62 -2 97 -20 146 -59l-14 -17c-52 41 -90 54 -141 54c-22 0 -39 -3 -67 -9c-24 -5 -42 -7 -71 -7c-188 0 -312 153 -312 359c0 207 124 359 312 359s312 -152 312 -359zM75 345c0 -216 134 -338 288 -338s288 122 288 338
c0 217 -134 338 -288 338s-288 -121 -288 -338z" />
    <glyph glyph-name="R" unicode="R" horiz-adv-x="571" 
d="M493 189c12 -103 27 -146 46 -189h-26c-15 44 -31 84 -43 184c-9 77 -44 149 -128 153c-22 1 -47 1 -63 1h-161v-338h-22v690h167c35 0 67 -1 99 -5c107 -13 167 -70 167 -169c0 -88 -54 -152 -144 -168c64 -18 99 -79 108 -159zM118 359h161c26 0 43 0 75 2
c94 7 151 68 151 154c0 89 -53 137 -147 149c-32 4 -59 5 -95 5h-145v-310z" />
    <glyph glyph-name="Racute" unicode="&#x154;" horiz-adv-x="571" 
d="M310 736h-19l53 94h28zM493 189c12 -103 27 -146 46 -189h-26c-15 44 -31 84 -43 184c-9 77 -44 149 -128 153c-22 1 -47 1 -63 1h-161v-338h-22v690h167c35 0 67 -1 99 -5c107 -13 167 -70 167 -169c0 -88 -54 -152 -144 -168c64 -18 99 -79 108 -159zM118 359h161
c26 0 43 0 75 2c94 7 151 68 151 154c0 89 -53 137 -147 149c-32 4 -59 5 -95 5h-145v-310z" />
    <glyph glyph-name="Rcaron" unicode="&#x158;" horiz-adv-x="571" 
d="M292 736l-65 94h24l53 -80l53 80h23l-65 -94h-23zM493 189c12 -103 27 -146 46 -189h-26c-15 44 -31 84 -43 184c-9 77 -44 149 -128 153c-22 1 -47 1 -63 1h-161v-338h-22v690h167c35 0 67 -1 99 -5c107 -13 167 -70 167 -169c0 -88 -54 -152 -144 -168
c64 -18 99 -79 108 -159zM118 359h161c26 0 43 0 75 2c94 7 151 68 151 154c0 89 -53 137 -147 149c-32 4 -59 5 -95 5h-145v-310z" />
    <glyph glyph-name="Rcommaaccent" unicode="&#x156;" horiz-adv-x="571" 
d="M493 189c12 -103 27 -146 46 -189h-26c-15 44 -31 84 -43 184c-9 77 -44 149 -128 153c-22 1 -47 1 -63 1h-161v-338h-22v690h167c35 0 67 -1 99 -5c107 -13 167 -70 167 -169c0 -88 -54 -152 -144 -168c64 -18 99 -79 108 -159zM118 359h161c26 0 43 0 75 2
c94 7 151 68 151 154c0 89 -53 137 -147 149c-32 4 -59 5 -95 5h-145v-310zM281 -51h25v-5l-49 -117h-19z" />
    <glyph glyph-name="S" unicode="S" horiz-adv-x="560" 
d="M284 704c129 0 198 -87 211 -190h-22c-18 106 -93 169 -190 169c-88 0 -188 -51 -188 -150s61 -130 199 -170c143 -41 213 -88 213 -196c0 -102 -95 -181 -224 -181c-121 0 -230 61 -244 194h22c13 -113 111 -173 223 -173c113 0 199 65 199 158c0 99 -59 136 -199 176
c-148 42 -213 84 -213 190c0 101 99 173 213 173z" />
    <glyph glyph-name="Sacute" unicode="&#x15a;" horiz-adv-x="560" 
d="M287 736h-19l53 94h28zM284 704c129 0 198 -87 211 -190h-22c-18 106 -93 169 -190 169c-88 0 -188 -51 -188 -150s61 -130 199 -170c143 -41 213 -88 213 -196c0 -102 -95 -181 -224 -181c-121 0 -230 61 -244 194h22c13 -113 111 -173 223 -173c113 0 199 65 199 158
c0 99 -59 136 -199 176c-148 42 -213 84 -213 190c0 101 99 173 213 173z" />
    <glyph glyph-name="Scaron" unicode="&#x160;" horiz-adv-x="560" 
d="M269 736l-65 94h24l53 -80l53 80h23l-65 -94h-23zM294 363c143 -41 213 -88 213 -196c0 -102 -95 -181 -224 -181c-121 0 -230 61 -244 194h22c13 -113 111 -173 223 -173c113 0 199 65 199 158c0 99 -59 136 -199 176c-148 42 -213 84 -213 190c0 101 99 173 213 173
c129 0 198 -87 211 -190h-22c-18 106 -93 169 -190 169c-88 0 -188 -51 -188 -150s61 -130 199 -170z" />
    <glyph glyph-name="Scedilla" unicode="&#x15e;" horiz-adv-x="560" 
d="M507 167c0 -102 -95 -181 -223 -181l-20 -37c54 -5 88 -28 88 -77c0 -58 -52 -82 -101 -82c-22 0 -39 3 -53 10v22c15 -8 31 -11 53 -11c45 0 78 20 78 61c0 39 -30 62 -98 59l29 56c-112 7 -208 69 -221 193h22c13 -113 111 -173 223 -173c113 0 199 65 199 158
c0 99 -59 136 -199 176c-148 42 -213 84 -213 190c0 101 99 173 213 173c129 0 198 -87 211 -190h-22c-18 106 -93 169 -190 169c-88 0 -188 -51 -188 -150s61 -130 199 -170c143 -41 213 -88 213 -196z" />
    <glyph glyph-name="Scommaaccent" unicode="&#x218;" horiz-adv-x="560" 
d="M284 704c129 0 198 -87 211 -190h-22c-18 106 -93 169 -190 169c-88 0 -188 -51 -188 -150s61 -130 199 -170c143 -41 213 -88 213 -196c0 -102 -95 -181 -224 -181c-121 0 -230 61 -244 194h22c13 -113 111 -173 223 -173c113 0 199 65 199 158c0 99 -59 136 -199 176
c-148 42 -213 84 -213 190c0 101 99 173 213 173zM293 -56l-49 -117h-19l43 122h25v-5z" />
    <glyph glyph-name="T" unicode="T" horiz-adv-x="580" 
d="M582 670h-264v-670h-22v670h-264v20h550v-20z" />
    <glyph glyph-name="Tbar" unicode="&#x166;" horiz-adv-x="580" 
d="M318 670v-326h144v-21h-144v-323h-22v323h-144v21h144v326h-264v20h550v-20h-264z" />
    <glyph glyph-name="Tcaron" unicode="&#x164;" horiz-adv-x="580" 
d="M296 736l-65 94h24l53 -80l53 80h23l-65 -94h-23zM582 670h-264v-670h-22v670h-264v20h550v-20z" />
    <glyph glyph-name="Tcedilla" unicode="&#x162;" horiz-adv-x="580" 
d="M318 670v-663h4l-31 -58c54 -5 88 -28 88 -77c0 -58 -52 -82 -101 -82c-22 0 -39 3 -53 10v22c15 -8 31 -11 53 -11c45 0 78 20 78 61c0 39 -30 62 -98 59l38 74v665h-264v20h550v-20h-264z" />
    <glyph glyph-name="uni021A" unicode="&#x21a;" horiz-adv-x="580" 
d="M582 690v-20h-264v-670h-22v670h-264v20h550zM295 -51h25v-5l-49 -117h-19z" />
    <glyph glyph-name="U" unicode="U" horiz-adv-x="600" 
d="M534 690v-457c0 -15 -1 -36 -3 -67c-7 -106 -81 -180 -219 -180s-212 74 -219 180c-2 31 -3 52 -3 67v457h22v-461c0 -23 1 -41 3 -62c8 -87 66 -160 197 -160s189 73 197 160c2 21 3 39 3 62v461h22z" />
    <glyph glyph-name="Uacute" unicode="&#xda;" horiz-adv-x="600" 
d="M319 736h-19l53 94h28zM534 690v-457c0 -15 -1 -36 -3 -67c-7 -106 -81 -180 -219 -180s-212 74 -219 180c-2 31 -3 52 -3 67v457h22v-461c0 -23 1 -41 3 -62c8 -87 66 -160 197 -160s189 73 197 160c2 21 3 39 3 62v461h22z" />
    <glyph glyph-name="Ucircumflex" unicode="&#xdb;" horiz-adv-x="600" 
d="M259 736h-23l65 94h23l65 -94h-24l-53 80zM534 690v-457c0 -15 -1 -36 -3 -67c-7 -106 -81 -180 -219 -180s-212 74 -219 180c-2 31 -3 52 -3 67v457h22v-461c0 -23 1 -41 3 -62c8 -87 66 -160 197 -160s189 73 197 160c2 21 3 39 3 62v461h22z" />
    <glyph glyph-name="Udieresis" unicode="&#xdc;" horiz-adv-x="600" 
d="M277 803c11 0 20 -9 20 -20s-9 -20 -20 -20s-20 9 -20 20s9 20 20 20zM347 803c11 0 20 -9 20 -20s-9 -20 -20 -20s-20 9 -20 20s9 20 20 20zM534 690v-457c0 -15 -1 -36 -3 -67c-7 -106 -81 -180 -219 -180s-212 74 -219 180c-2 31 -3 52 -3 67v457h22v-461
c0 -23 1 -41 3 -62c8 -87 66 -160 197 -160s189 73 197 160c2 21 3 39 3 62v461h22z" />
    <glyph glyph-name="Ugrave" unicode="&#xd9;" horiz-adv-x="600" 
d="M321 736h-19l-62 94h28zM534 690v-457c0 -15 -1 -36 -3 -67c-7 -106 -81 -180 -219 -180s-212 74 -219 180c-2 31 -3 52 -3 67v457h22v-461c0 -23 1 -41 3 -62c8 -87 66 -160 197 -160s189 73 197 160c2 21 3 39 3 62v461h22z" />
    <glyph glyph-name="Uhungarumlaut" unicode="&#x170;" horiz-adv-x="600" 
d="M277 736h-19l53 94h28zM364 736h-19l53 94h28zM534 690v-457c0 -15 -1 -36 -3 -67c-7 -106 -81 -180 -219 -180s-212 74 -219 180c-2 31 -3 52 -3 67v457h22v-461c0 -23 1 -41 3 -62c8 -87 66 -160 197 -160s189 73 197 160c2 21 3 39 3 62v461h22z" />
    <glyph glyph-name="Umacron" unicode="&#x16a;" horiz-adv-x="600" 
d="M382 772h-140v21h140v-21zM534 690v-457c0 -15 -1 -36 -3 -67c-7 -106 -81 -180 -219 -180s-212 74 -219 180c-2 31 -3 52 -3 67v457h22v-461c0 -23 1 -41 3 -62c8 -87 66 -160 197 -160s189 73 197 160c2 21 3 39 3 62v461h22z" />
    <glyph glyph-name="Uogonek" unicode="&#x172;" horiz-adv-x="600" 
d="M534 690v-457c0 -15 -1 -36 -3 -67c-5 -79 -47 -140 -125 -166c-69 -30 -120 -84 -120 -151c0 -37 19 -52 46 -52c23 0 43 9 65 31v-23c-19 -19 -41 -28 -69 -28c-32 0 -64 15 -64 69c0 56 31 107 82 142c-11 -1 -22 -2 -34 -2c-138 0 -212 74 -219 180
c-2 31 -3 52 -3 67v457h22v-461c0 -23 1 -41 3 -62c8 -87 66 -160 197 -160s189 73 197 160c2 21 3 39 3 62v461h22z" />
    <glyph glyph-name="Uring" unicode="&#x16e;" horiz-adv-x="600" 
d="M312 844c34 0 63 -23 63 -61s-29 -61 -63 -61s-63 23 -63 61s29 61 63 61zM312 823c-25 0 -39 -18 -39 -40s14 -40 39 -40s39 18 39 40s-14 40 -39 40zM534 690v-457c0 -15 -1 -36 -3 -67c-7 -106 -81 -180 -219 -180s-212 74 -219 180c-2 31 -3 52 -3 67v457h22v-461
c0 -23 1 -41 3 -62c8 -87 66 -160 197 -160s189 73 197 160c2 21 3 39 3 62v461h22z" />
    <glyph glyph-name="V" unicode="V" horiz-adv-x="583" 
d="M323 0h-30l-267 690h24l258 -671l258 671h24z" />
    <glyph glyph-name="W" unicode="W" horiz-adv-x="823" 
d="M826 690l-186 -690h-28l-185 656l-199 -656h-29l-173 690h23l166 -668l197 658h30l184 -656l178 666h22z" />
    <glyph glyph-name="Wacute" unicode="&#x1e82;" horiz-adv-x="823" 
d="M423 736h-19l53 94h28zM826 690l-186 -690h-28l-185 656l-199 -656h-29l-173 690h23l166 -668l197 658h30l184 -656l178 666h22z" />
    <glyph glyph-name="Wcircumflex" unicode="&#x174;" horiz-adv-x="823" 
d="M363 736h-23l65 94h23l65 -94h-24l-53 80zM826 690l-186 -690h-28l-185 656l-199 -656h-29l-173 690h23l166 -668l197 658h30l184 -656l178 666h22z" />
    <glyph glyph-name="Wdieresis" unicode="&#x1e84;" horiz-adv-x="823" 
d="M381 763c-11 0 -20 9 -20 20s9 20 20 20s20 -9 20 -20s-9 -20 -20 -20zM451 763c-11 0 -20 9 -20 20s9 20 20 20s20 -9 20 -20s-9 -20 -20 -20zM826 690l-186 -690h-28l-185 656l-199 -656h-29l-173 690h23l166 -668l197 658h30l184 -656l178 666h22z" />
    <glyph glyph-name="Wgrave" unicode="&#x1e80;" horiz-adv-x="823" 
d="M406 736l-62 94h28l53 -94h-19zM826 690l-186 -690h-28l-185 656l-199 -656h-29l-173 690h23l166 -668l197 658h30l184 -656l178 666h22z" />
    <glyph glyph-name="X" unicode="X" horiz-adv-x="572" 
d="M304 345l252 -345h-30l-235 329l-235 -329h-28l248 344l-231 346h25l220 -327l243 327h29z" />
    <glyph glyph-name="Y" unicode="Y" horiz-adv-x="545" 
d="M290 282v-282h-22v282l-245 408h26l231 -385l229 385h27z" />
    <glyph glyph-name="Yacute" unicode="&#xdd;" horiz-adv-x="545" 
d="M286 736h-19l53 94h28zM290 282v-282h-22v282l-245 408h26l231 -385l229 385h27z" />
    <glyph glyph-name="Ycircumflex" unicode="&#x176;" horiz-adv-x="545" 
d="M226 736h-23l65 94h23l65 -94h-24l-53 80zM290 282v-282h-22v282l-245 408h26l231 -385l229 385h27z" />
    <glyph glyph-name="Ydieresis" unicode="&#x178;" horiz-adv-x="545" 
d="M244 763c-11 0 -20 9 -20 20s9 20 20 20s20 -9 20 -20s-9 -20 -20 -20zM314 763c-11 0 -20 9 -20 20s9 20 20 20s20 -9 20 -20s-9 -20 -20 -20zM290 282v-282h-22v282l-245 408h26l231 -385l229 385h27z" />
    <glyph glyph-name="Ygrave" unicode="&#x1ef2;" horiz-adv-x="545" 
d="M269 736l-62 94h28l53 -94h-19zM290 282v-282h-22v282l-245 408h26l231 -385l229 385h27z" />
    <glyph glyph-name="Z" unicode="Z" horiz-adv-x="537" 
d="M512 21v-21h-476v17l444 652h-416v21h442v-20l-442 -649h448z" />
    <glyph glyph-name="Zacute" unicode="&#x179;" horiz-adv-x="537" 
d="M281 736h-19l53 94h28zM512 21v-21h-476v17l444 652h-416v21h442v-20l-442 -649h448z" />
    <glyph glyph-name="Zcaron" unicode="&#x17d;" horiz-adv-x="537" 
d="M263 736l-65 94h24l53 -80l53 80h23l-65 -94h-23zM512 21v-21h-476v17l444 652h-416v21h442v-20l-442 -649h448z" />
    <glyph glyph-name="Zdotaccent" unicode="&#x17b;" horiz-adv-x="537" 
d="M274 763c-11 0 -20 9 -20 20s9 20 20 20s20 -9 20 -20s-9 -20 -20 -20zM512 21v-21h-476v17l444 652h-416v21h442v-20l-442 -649h448z" />
    <glyph glyph-name="a" unicode="a" horiz-adv-x="494" 
d="M409 0l-7 129l-23 -53c-37 -59 -99 -90 -170 -90c-100 0 -162 47 -162 141c0 123 156 176 320 176h34v27c0 25 0 45 -2 68c-7 79 -59 121 -145 121c-74 0 -153 -39 -165 -137h-22c6 88 83 158 187 158c103 0 160 -51 167 -139c2 -27 2 -41 2 -69v-162
c0 -60 3 -101 9 -170h-23zM212 7c113 0 189 98 189 202v72c-154 10 -330 -33 -330 -153c0 -73 45 -121 141 -121z" />
    <glyph glyph-name="aacute" unicode="&#xe1;" horiz-adv-x="494" 
d="M262 580h-19l60 110h28zM409 0l-7 129l-23 -53c-37 -59 -99 -90 -170 -90c-100 0 -162 47 -162 141c0 123 156 176 320 176h34v27c0 25 0 45 -2 68c-7 79 -59 121 -145 121c-74 0 -153 -39 -165 -137h-22c6 88 83 158 187 158c103 0 160 -51 167 -139c2 -27 2 -41 2 -69
v-162c0 -60 3 -101 9 -170h-23zM212 7c113 0 189 98 189 202v72c-154 10 -330 -33 -330 -153c0 -73 45 -121 141 -121z" />
    <glyph glyph-name="abreve" unicode="&#x103;" horiz-adv-x="494" 
d="M255 570c-62 0 -91 47 -91 120h18c1 -62 27 -99 73 -99s71 37 72 99h18c0 -73 -29 -120 -90 -120zM409 0l-7 129l-23 -53c-37 -59 -99 -90 -170 -90c-100 0 -162 47 -162 141c0 123 156 176 320 176h34v27c0 25 0 45 -2 68c-7 79 -59 121 -145 121
c-74 0 -153 -39 -165 -137h-22c6 88 83 158 187 158c103 0 160 -51 167 -139c2 -27 2 -41 2 -69v-162c0 -60 3 -101 9 -170h-23zM212 7c113 0 189 98 189 202v72c-154 10 -330 -33 -330 -153c0 -73 45 -121 141 -121z" />
    <glyph glyph-name="acircumflex" unicode="&#xe2;" horiz-adv-x="494" 
d="M202 580h-23l65 110h23l65 -110h-24l-53 94zM409 0l-7 129l-23 -53c-37 -59 -99 -90 -170 -90c-100 0 -162 47 -162 141c0 123 156 176 320 176h34v27c0 25 0 45 -2 68c-7 79 -59 121 -145 121c-74 0 -153 -39 -165 -137h-22c6 88 83 158 187 158c103 0 160 -51 167 -139
c2 -27 2 -41 2 -69v-162c0 -60 3 -101 9 -170h-23zM212 7c113 0 189 98 189 202v72c-154 10 -330 -33 -330 -153c0 -73 45 -121 141 -121z" />
    <glyph glyph-name="adieresis" unicode="&#xe4;" horiz-adv-x="494" 
d="M215 613c-11 0 -20 9 -20 20s9 20 20 20s20 -9 20 -20s-9 -20 -20 -20zM295 613c-11 0 -20 9 -20 20s9 20 20 20s20 -9 20 -20s-9 -20 -20 -20zM409 0l-7 129l-23 -53c-37 -59 -99 -90 -170 -90c-100 0 -162 47 -162 141c0 123 156 176 320 176h34v27c0 25 0 45 -2 68
c-7 79 -59 121 -145 121c-74 0 -153 -39 -165 -137h-22c6 88 83 158 187 158c103 0 160 -51 167 -139c2 -27 2 -41 2 -69v-162c0 -60 3 -101 9 -170h-23zM212 7c113 0 189 98 189 202v72c-154 10 -330 -33 -330 -153c0 -73 45 -121 141 -121z" />
    <glyph glyph-name="agrave" unicode="&#xe0;" horiz-adv-x="494" 
d="M233 580l-69 110h28l60 -110h-19zM409 0l-7 129l-23 -53c-37 -59 -99 -90 -170 -90c-100 0 -162 47 -162 141c0 123 156 176 320 176h34v27c0 25 0 45 -2 68c-7 79 -59 121 -145 121c-74 0 -153 -39 -165 -137h-22c6 88 83 158 187 158c103 0 160 -51 167 -139
c2 -27 2 -41 2 -69v-162c0 -60 3 -101 9 -170h-23zM212 7c113 0 189 98 189 202v72c-154 10 -330 -33 -330 -153c0 -73 45 -121 141 -121z" />
    <glyph glyph-name="amacron" unicode="&#x101;" horiz-adv-x="494" 
d="M325 620h-140v21h140v-21zM409 0l-7 129l-23 -53c-37 -59 -99 -90 -170 -90c-100 0 -162 47 -162 141c0 123 156 176 320 176h34v27c0 25 0 45 -2 68c-7 79 -59 121 -145 121c-74 0 -153 -39 -165 -137h-22c6 88 83 158 187 158c103 0 160 -51 167 -139
c2 -27 2 -41 2 -69v-162c0 -60 3 -101 9 -170h-23zM212 7c113 0 189 98 189 202v72c-154 10 -330 -33 -330 -153c0 -73 45 -121 141 -121z" />
    <glyph glyph-name="aogonek" unicode="&#x105;" horiz-adv-x="494" 
d="M432 0h-10c-72 -19 -122 -84 -122 -151c0 -37 19 -52 46 -52c23 0 43 9 65 31v-23c-19 -19 -41 -28 -69 -28c-32 0 -64 15 -64 69c0 73 52 143 130 167l-6 116l-23 -53c-37 -59 -99 -90 -170 -90c-100 0 -162 47 -162 141c0 123 156 176 320 176h34v27c0 25 0 45 -2 68
c-7 79 -59 121 -145 121c-74 0 -153 -39 -165 -137h-22c6 88 83 158 187 158c103 0 160 -51 167 -139c2 -27 2 -41 2 -69v-162c0 -60 3 -101 9 -170zM212 7c113 0 189 98 189 202v72c-154 10 -330 -33 -330 -153c0 -73 45 -121 141 -121z" />
    <glyph glyph-name="aring" unicode="&#xe5;" horiz-adv-x="494" 
d="M255 572c-34 0 -62 24 -62 62s28 62 62 62s62 -24 62 -62s-28 -62 -62 -62zM255 675c-25 0 -39 -19 -39 -41s14 -41 39 -41s39 19 39 41s-14 41 -39 41zM409 0l-7 129l-23 -53c-37 -59 -99 -90 -170 -90c-100 0 -162 47 -162 141c0 123 156 176 320 176h34v27
c0 25 0 45 -2 68c-7 79 -59 121 -145 121c-74 0 -153 -39 -165 -137h-22c6 88 83 158 187 158c103 0 160 -51 167 -139c2 -27 2 -41 2 -69v-162c0 -60 3 -101 9 -170h-23zM212 7c113 0 189 98 189 202v72c-154 10 -330 -33 -330 -153c0 -73 45 -121 141 -121z" />
    <glyph glyph-name="atilde" unicode="&#xe3;" horiz-adv-x="494" 
d="M203 651c-10 0 -16 -6 -16 -21h-20c0 26 12 41 36 41c16 0 30 -4 57 -13c24 -8 38 -12 47 -12c10 0 16 6 16 21h20c0 -26 -12 -41 -36 -41c-16 0 -30 4 -57 13c-24 8 -38 12 -47 12zM409 0l-7 129l-23 -53c-37 -59 -99 -90 -170 -90c-100 0 -162 47 -162 141
c0 123 156 176 320 176h34v27c0 25 0 45 -2 68c-7 79 -59 121 -145 121c-74 0 -153 -39 -165 -137h-22c6 88 83 158 187 158c103 0 160 -51 167 -139c2 -27 2 -41 2 -69v-162c0 -60 3 -101 9 -170h-23zM212 7c113 0 189 98 189 202v72c-154 10 -330 -33 -330 -153
c0 -73 45 -121 141 -121z" />
    <glyph glyph-name="ae" unicode="&#xe6;" horiz-adv-x="922" 
d="M886 277c0 -4 0 -8 -1 -19h-431c4 -182 98 -251 205 -251c83 0 166 47 197 154h22c-32 -116 -121 -175 -221 -175c-89 0 -189 51 -213 174l-21 -64c-51 -76 -119 -110 -204 -110c-90 0 -172 41 -172 141c0 123 176 153 350 153h34v24c0 140 -51 215 -172 215
c-74 0 -161 -39 -173 -137h-22c6 88 89 158 195 158c108 0 175 -52 189 -159c29 105 123 159 218 159c157 0 220 -132 220 -263zM454 279h408c-4 182 -102 240 -198 240c-108 0 -206 -75 -210 -240zM431 229v29c-164 7 -360 -17 -360 -130c0 -73 59 -121 151 -121
c121 0 209 90 209 222z" />
    <glyph glyph-name="b" unicode="b" horiz-adv-x="544" 
d="M287 540c137 0 227 -113 227 -273c0 -186 -112 -281 -239 -281c-67 0 -110 20 -153 68l-29 66v-120h-22v735h22v-329l28 60c47 56 94 74 166 74zM275 7c126 0 215 105 215 256c0 138 -72 256 -205 256c-104 0 -192 -58 -192 -231v-59c0 -172 100 -222 182 -222z" />
    <glyph glyph-name="c" unicode="c" horiz-adv-x="517" 
d="M271 540c114 0 195 -72 210 -177h-22c-17 95 -83 157 -190 157c-99 0 -215 -82 -215 -252c0 -178 105 -262 211 -262c91 0 170 54 190 151h22c-21 -106 -106 -171 -214 -171c-129 0 -233 102 -233 277c0 170 109 277 241 277z" />
    <glyph glyph-name="cacute" unicode="&#x107;" horiz-adv-x="517" 
d="M272 580h-19l60 110h28zM271 540c114 0 195 -72 210 -177h-22c-17 95 -83 157 -190 157c-99 0 -215 -82 -215 -252c0 -178 105 -262 211 -262c91 0 170 54 190 151h22c-21 -106 -106 -171 -214 -171c-129 0 -233 102 -233 277c0 170 109 277 241 277z" />
    <glyph glyph-name="ccaron" unicode="&#x10d;" horiz-adv-x="517" 
d="M254 580l-65 110h24l53 -94l53 94h23l-65 -110h-23zM265 6c91 0 170 54 190 151h22c-21 -106 -106 -171 -214 -171c-129 0 -233 102 -233 277c0 170 109 277 241 277c114 0 195 -72 210 -177h-22c-17 95 -83 157 -190 157c-99 0 -215 -82 -215 -252
c0 -178 105 -262 211 -262z" />
    <glyph glyph-name="ccedilla" unicode="&#xe7;" horiz-adv-x="517" 
d="M270 7l-1 -1c90 2 166 56 186 151h22c-21 -106 -106 -171 -214 -171h-4l-20 -37c54 -5 88 -28 88 -77c0 -58 -52 -82 -101 -82c-22 0 -39 3 -53 10v22c15 -8 31 -11 53 -11c45 0 78 20 78 61c0 39 -30 62 -98 59l29 57c-116 13 -205 113 -205 275c0 170 109 277 241 277
c114 0 195 -72 210 -177h-22c-17 95 -83 157 -190 157c-99 0 -215 -82 -215 -252c0 -167 92 -251 191 -261h25z" />
    <glyph glyph-name="cdotaccent" unicode="&#x10b;" horiz-adv-x="517" 
d="M265 653c11 0 20 -9 20 -20s-9 -20 -20 -20s-20 9 -20 20s9 20 20 20zM271 540c114 0 195 -72 210 -177h-22c-17 95 -83 157 -190 157c-99 0 -215 -82 -215 -252c0 -178 105 -262 211 -262c91 0 170 54 190 151h22c-21 -106 -106 -171 -214 -171
c-129 0 -233 102 -233 277c0 170 109 277 241 277z" />
    <glyph glyph-name="d" unicode="d" horiz-adv-x="544" 
d="M473 735v-735h-22v120l-28 -60c-47 -56 -94 -74 -166 -74c-137 0 -227 113 -227 273c0 186 112 281 239 281c67 0 110 -20 153 -68l29 -66v329h22zM259 7c104 0 192 58 192 231v59c0 172 -100 222 -182 222c-126 0 -215 -105 -215 -256c0 -138 72 -256 205 -256z" />
    <glyph glyph-name="eth" unicode="&#xf0;" horiz-adv-x="522" 
d="M448 694l-66 -27c59 -66 93 -176 93 -360c0 -224 -90 -320 -227 -321c-138 -1 -218 116 -218 271c0 163 86 287 233 287c49 0 94 -14 133 -45l49 -65c-10 103 -40 176 -85 224l-167 -69l-8 20l158 65c-31 26 -67 43 -109 51l14 20c45 -13 84 -32 117 -62l75 31zM451 290
v19c0 127 -76 214 -188 214c-113 0 -209 -91 -209 -265c0 -164 91 -251 197 -251c128 0 200 108 200 283z" />
    <glyph glyph-name="dcaron" unicode="&#x10f;" horiz-adv-x="544" 
d="M451 735h22v-735h-22v120l-28 -60c-47 -56 -94 -74 -166 -74c-137 0 -227 113 -227 273c0 186 112 281 239 281c67 0 110 -20 153 -68l29 -66v329zM571 734v-5l-49 -117h-19l43 122h25zM259 7c104 0 192 58 192 231v59c0 172 -100 222 -182 222
c-126 0 -215 -105 -215 -256c0 -138 72 -256 205 -256z" />
    <glyph glyph-name="dcroat" unicode="&#x111;" horiz-adv-x="546" 
d="M515 613h-42v-613h-22v120l-28 -60c-47 -56 -94 -74 -166 -74c-137 0 -227 113 -227 273c0 186 112 281 239 281c67 0 110 -20 153 -68l29 -66v207h-117v21h117v101h22v-101h42v-21zM259 7c104 0 192 58 192 231v59c0 172 -100 222 -182 222c-126 0 -215 -105 -215 -256
c0 -138 72 -256 205 -256z" />
    <glyph glyph-name="e" unicode="e" horiz-adv-x="521" 
d="M485 277c0 -4 0 -8 -1 -19h-431c4 -182 108 -251 205 -251c83 0 166 47 197 154h22c-32 -116 -121 -175 -221 -175c-122 0 -226 95 -226 279c0 166 104 275 234 275c151 0 221 -132 221 -263zM262 519c-93 0 -205 -75 -209 -240h410c-4 182 -111 240 -201 240z" />
    <glyph glyph-name="eacute" unicode="&#xe9;" horiz-adv-x="521" 
d="M263 580h-19l60 110h28zM485 277c0 -4 0 -8 -1 -19h-431c4 -182 108 -251 205 -251c83 0 166 47 197 154h22c-32 -116 -121 -175 -221 -175c-122 0 -226 95 -226 279c0 166 104 275 234 275c151 0 221 -132 221 -263zM262 519c-93 0 -205 -75 -209 -240h410
c-4 182 -111 240 -201 240z" />
    <glyph glyph-name="ecaron" unicode="&#x11b;" horiz-adv-x="521" 
d="M245 580l-65 110h24l53 -94l53 94h23l-65 -110h-23zM485 277c0 -4 0 -8 -1 -19h-431c4 -182 108 -251 205 -251c83 0 166 47 197 154h22c-32 -116 -121 -175 -221 -175c-122 0 -226 95 -226 279c0 166 104 275 234 275c151 0 221 -132 221 -263zM262 519
c-93 0 -205 -75 -209 -240h410c-4 182 -111 240 -201 240z" />
    <glyph glyph-name="ecircumflex" unicode="&#xea;" horiz-adv-x="521" 
d="M203 580h-23l65 110h23l65 -110h-24l-53 94zM485 277c0 -4 0 -8 -1 -19h-431c4 -182 108 -251 205 -251c83 0 166 47 197 154h22c-32 -116 -121 -175 -221 -175c-122 0 -226 95 -226 279c0 166 104 275 234 275c151 0 221 -132 221 -263zM262 519
c-93 0 -205 -75 -209 -240h410c-4 182 -111 240 -201 240z" />
    <glyph glyph-name="edieresis" unicode="&#xeb;" horiz-adv-x="521" 
d="M216 613c-11 0 -20 9 -20 20s9 20 20 20s20 -9 20 -20s-9 -20 -20 -20zM296 613c-11 0 -20 9 -20 20s9 20 20 20s20 -9 20 -20s-9 -20 -20 -20zM485 277c0 -4 0 -8 -1 -19h-431c4 -182 108 -251 205 -251c83 0 166 47 197 154h22c-32 -116 -121 -175 -221 -175
c-122 0 -226 95 -226 279c0 166 104 275 234 275c151 0 221 -132 221 -263zM262 519c-93 0 -205 -75 -209 -240h410c-4 182 -111 240 -201 240z" />
    <glyph glyph-name="edotaccent" unicode="&#x117;" horiz-adv-x="521" 
d="M256 613c-11 0 -20 9 -20 20s9 20 20 20s20 -9 20 -20s-9 -20 -20 -20zM485 277c0 -4 0 -8 -1 -19h-431c4 -182 108 -251 205 -251c83 0 166 47 197 154h22c-32 -116 -121 -175 -221 -175c-122 0 -226 95 -226 279c0 166 104 275 234 275c151 0 221 -132 221 -263z
M262 519c-93 0 -205 -75 -209 -240h410c-4 182 -111 240 -201 240z" />
    <glyph glyph-name="egrave" unicode="&#xe8;" horiz-adv-x="521" 
d="M253 580l-69 110h28l60 -110h-19zM485 277c0 -4 0 -8 -1 -19h-431c4 -182 108 -251 205 -251c83 0 166 47 197 154h22c-32 -116 -121 -175 -221 -175c-122 0 -226 95 -226 279c0 166 104 275 234 275c151 0 221 -132 221 -263zM262 519c-93 0 -205 -75 -209 -240h410
c-4 182 -111 240 -201 240z" />
    <glyph glyph-name="emacron" unicode="&#x113;" horiz-adv-x="521" 
d="M326 620h-140v21h140v-21zM485 277c0 -4 0 -8 -1 -19h-431c4 -182 108 -251 205 -251c83 0 166 47 197 154h22c-32 -116 -121 -175 -221 -175c-122 0 -226 95 -226 279c0 166 104 275 234 275c151 0 221 -132 221 -263zM262 519c-93 0 -205 -75 -209 -240h410
c-4 182 -111 240 -201 240z" />
    <glyph glyph-name="eogonek" unicode="&#x119;" horiz-adv-x="521" 
d="M485 277c0 -4 0 -8 -1 -19h-431c4 -182 108 -251 205 -251c83 0 166 47 197 154h22c-23 -83 -75 -137 -141 -161c-5 -2 -10 -4 -15 -5c-64 -24 -106 -84 -106 -146c0 -37 19 -52 46 -52c23 0 43 9 65 31v-23c-19 -19 -41 -28 -69 -28c-32 0 -64 15 -64 69s29 107 76 140
h-13c-122 0 -226 95 -226 279c0 166 104 275 234 275c151 0 221 -132 221 -263zM262 519c-93 0 -205 -75 -209 -240h410c-4 182 -111 240 -201 240z" />
    <glyph glyph-name="f" unicode="f" horiz-adv-x="230" 
d="M106 656c-2 -22 -2 -35 -2 -50v-84h107v-21h-107v-501h-22v501h-57v21h57v84c0 15 0 32 2 53c6 66 50 95 91 95c20 0 29 -1 47 -5v-21c-78 19 -111 -19 -116 -72z" />
    <glyph glyph-name="g" unicode="g" horiz-adv-x="544" 
d="M473 530v-390c0 -83 0 -124 -1 -158c-4 -119 -82 -202 -216 -202c-97 0 -185 39 -201 158l-2 15h22l2 -15c13 -101 94 -137 181 -137c124 0 189 78 192 188c1 35 1 62 1 111v20l-28 -60c-47 -56 -94 -74 -166 -74c-137 0 -227 113 -227 273c0 186 112 281 239 281
c67 0 110 -20 153 -68l29 -66v124h22zM259 7c104 0 192 58 192 231v59c0 172 -100 222 -182 222c-126 0 -215 -105 -215 -256c0 -138 72 -256 205 -256z" />
    <glyph glyph-name="gbreve" unicode="&#x11f;" horiz-adv-x="544" 
d="M268 570c-62 0 -91 47 -91 120h18c1 -62 27 -99 73 -99s71 37 72 99h18c0 -73 -29 -120 -90 -120zM473 530v-390c0 -83 0 -124 -1 -158c-4 -119 -82 -202 -216 -202c-97 0 -185 39 -201 158l-2 15h22l2 -15c13 -101 94 -137 181 -137c124 0 189 78 192 188
c1 35 1 62 1 111v20l-28 -60c-47 -56 -94 -74 -166 -74c-137 0 -227 113 -227 273c0 186 112 281 239 281c67 0 110 -20 153 -68l29 -66v124h22zM259 7c104 0 192 58 192 231v59c0 172 -100 222 -182 222c-126 0 -215 -105 -215 -256c0 -138 72 -256 205 -256z" />
    <glyph glyph-name="gcommaaccent" unicode="&#x123;" horiz-adv-x="544" 
d="M280 581h-25v5l49 117h19zM473 530v-390c0 -83 0 -124 -1 -158c-4 -119 -82 -202 -216 -202c-97 0 -185 39 -201 158l-2 15h22l2 -15c13 -101 94 -137 181 -137c124 0 189 78 192 188c1 35 1 62 1 111v20l-28 -60c-47 -56 -94 -74 -166 -74c-137 0 -227 113 -227 273
c0 186 112 281 239 281c67 0 110 -20 153 -68l29 -66v124h22zM259 7c104 0 192 58 192 231v59c0 172 -100 222 -182 222c-126 0 -215 -105 -215 -256c0 -138 72 -256 205 -256z" />
    <glyph glyph-name="gdotaccent" unicode="&#x121;" horiz-adv-x="544" 
d="M268 613c-11 0 -20 9 -20 20s9 20 20 20s20 -9 20 -20s-9 -20 -20 -20zM473 530v-390c0 -83 0 -124 -1 -158c-4 -119 -82 -202 -216 -202c-97 0 -185 39 -201 158l-2 15h22l2 -15c13 -101 94 -137 181 -137c124 0 189 78 192 188c1 35 1 62 1 111v20l-28 -60
c-47 -56 -94 -74 -166 -74c-137 0 -227 113 -227 273c0 186 112 281 239 281c67 0 110 -20 153 -68l29 -66v124h22zM259 7c104 0 192 58 192 231v59c0 172 -100 222 -182 222c-126 0 -215 -105 -215 -256c0 -138 72 -256 205 -256z" />
    <glyph glyph-name="h" unicode="h" 
d="M460 378c3 -27 4 -43 4 -86v-292h-22v283c0 37 -1 60 -4 87c-10 89 -59 149 -159 149c-96 0 -186 -67 -186 -207v-312h-22v740h22v-334l21 52c39 55 100 82 165 82c106 0 170 -59 181 -162z" />
    <glyph glyph-name="hbar" unicode="&#x127;" horiz-adv-x="540" 
d="M470 378c3 -27 4 -43 4 -86v-292h-22v283c0 37 -1 60 -4 87c-10 89 -59 149 -159 149c-96 0 -186 -67 -186 -207v-312h-22v613h-50v21h50v106h22v-106h110v-21h-110v-207l21 52c39 55 100 82 165 82c106 0 170 -59 181 -162z" />
    <glyph glyph-name="i" unicode="i" horiz-adv-x="164" 
d="M82 653c11 0 20 -9 20 -20s-9 -20 -20 -20s-20 9 -20 20s9 20 20 20zM93 0h-22v526h22v-526z" />
    <glyph glyph-name="dotlessi" unicode="&#x131;" horiz-adv-x="164" 
d="M93 0h-22v526h22v-526z" />
    <glyph glyph-name="iacute" unicode="&#xed;" horiz-adv-x="164" 
d="M89 580h-19l60 110h28zM93 0h-22v526h22v-526z" />
    <glyph glyph-name="icircumflex" unicode="&#xee;" horiz-adv-x="164" 
d="M159 580h-24l-53 94l-53 -94h-23l65 110h23zM71 526h22v-526h-22v526z" />
    <glyph glyph-name="idieresis" unicode="&#xef;" horiz-adv-x="164" 
d="M42 653c11 0 20 -9 20 -20s-9 -20 -20 -20s-20 9 -20 20s9 20 20 20zM122 653c11 0 20 -9 20 -20s-9 -20 -20 -20s-20 9 -20 20s9 20 20 20zM93 0h-22v526h22v-526z" />
    <glyph glyph-name="igrave" unicode="&#xec;" horiz-adv-x="164" 
d="M79 580h-19l-69 110h28zM93 0h-22v526h22v-526z" />
    <glyph glyph-name="ij" unicode="&#x133;" horiz-adv-x="320" 
d="M82 653c11 0 20 -9 20 -20s-9 -20 -20 -20s-20 9 -20 20s9 20 20 20zM239 653c11 0 20 -9 20 -20s-9 -20 -20 -20s-20 9 -20 20s9 20 20 20zM93 0h-22v526h22v-526zM250 526v-599c0 -20 0 -34 -1 -52c-3 -59 -40 -85 -82 -85c-11 0 -22 1 -35 4v19c55 -10 92 1 95 64
c1 14 1 24 1 39v610h22z" />
    <glyph glyph-name="imacron" unicode="&#x12b;" horiz-adv-x="164" 
d="M152 620h-140v21h140v-21zM93 0h-22v526h22v-526z" />
    <glyph glyph-name="iogonek" unicode="&#x12f;" horiz-adv-x="164" 
d="M82 653c11 0 20 -9 20 -20s-9 -20 -20 -20s-20 9 -20 20s9 20 20 20zM71 526h22v-526h-9c-72 -19 -122 -84 -122 -151c0 -37 19 -52 46 -52c23 0 43 9 65 31v-23c-19 -19 -41 -28 -69 -28c-32 0 -64 15 -64 69c0 73 52 143 131 167v513z" />
    <glyph glyph-name="j" unicode="j" horiz-adv-x="156" 
d="M75 653c11 0 20 -9 20 -20s-9 -20 -20 -20s-20 9 -20 20s9 20 20 20zM86 526v-599c0 -20 0 -34 -1 -52c-3 -59 -40 -85 -82 -85c-11 0 -22 1 -35 4v19c55 -10 92 1 95 64c1 14 1 24 1 39v610h22z" />
    <glyph glyph-name="k" unicode="k" horiz-adv-x="458" 
d="M138 256l-45 -41v-215h-22v735h22v-494l310 285h33l-280 -255l281 -271h-33z" />
    <glyph glyph-name="kcommaaccent" unicode="&#x137;" horiz-adv-x="458" 
d="M437 0h-33l-266 256l-45 -41v-215h-22v735h22v-494l310 285h33l-280 -255zM217 -51h25v-5l-49 -117h-19z" />
    <glyph glyph-name="l" unicode="l" horiz-adv-x="173" 
d="M90 735v-615c0 -35 0 -55 1 -69c2 -33 15 -40 56 -35v-19c-10 -2 -19 -2 -29 -2c-27 0 -47 11 -49 51c-1 20 -1 36 -1 74v615h22z" />
    <glyph glyph-name="lacute" unicode="&#x13a;" horiz-adv-x="173" 
d="M86 785h-19l60 110h28zM90 735v-615c0 -35 0 -55 1 -69c2 -33 15 -40 56 -35v-19c-10 -2 -19 -2 -29 -2c-27 0 -47 11 -49 51c-1 20 -1 36 -1 74v615h22z" />
    <glyph glyph-name="lcaron" unicode="&#x13e;" horiz-adv-x="173" 
d="M90 735v-615c0 -35 0 -55 1 -69c2 -33 15 -40 56 -35v-19c-10 -2 -19 -2 -29 -2c-27 0 -47 11 -49 51c-1 20 -1 36 -1 74v615h22z" />
    <glyph glyph-name="lcommaaccent" unicode="&#x13c;" horiz-adv-x="173" 
d="M90 735v-615c0 -35 0 -55 1 -69c2 -33 15 -40 56 -35v-19c-10 -2 -19 -2 -29 -2c-27 0 -47 11 -49 51c-1 20 -1 36 -1 74v615h22zM125 -56l-49 -117h-19l43 122h25v-5z" />
    <glyph glyph-name="ldot" unicode="&#x140;" horiz-adv-x="180" 
d="M90 735v-615c0 -35 0 -55 1 -69c2 -33 15 -40 56 -35v-19c-10 -2 -19 -2 -29 -2c-27 0 -47 11 -49 51c-1 20 -1 36 -1 74v615h22zM157 420c11 0 20 -9 20 -20s-9 -20 -20 -20s-20 9 -20 20s9 20 20 20z" />
    <glyph glyph-name="lslash" unicode="&#x142;" horiz-adv-x="202" 
d="M109 317v-197c0 -35 0 -55 1 -69c2 -33 15 -40 56 -35v-19c-10 -2 -19 -2 -29 -2c-27 0 -47 11 -49 51c-1 20 -1 36 -1 74v181l-57 -41v26l57 41v408h22v-392l57 41v-26z" />
    <glyph glyph-name="m" unicode="m" horiz-adv-x="809" 
d="M739 378c3 -27 4 -43 4 -86v-292h-22v283c0 37 -1 60 -4 87c-10 89 -51 150 -137 150c-88 0 -162 -68 -162 -218v-302h-22v283c0 37 -1 60 -4 87c-10 89 -51 150 -137 150c-88 0 -162 -68 -162 -218v-302h-22v526h22v-112l24 57c36 47 84 69 139 69
c86 0 138 -50 154 -137l32 68c36 47 84 69 139 69c94 0 147 -59 158 -162z" />
    <glyph glyph-name="n" unicode="n" 
d="M460 378c3 -27 4 -43 4 -86v-292h-22v283c0 37 -1 60 -4 87c-10 89 -59 149 -159 149c-96 0 -186 -67 -186 -207v-312h-22v526h22v-120l21 52c39 55 100 82 165 82c106 0 170 -59 181 -162z" />
    <glyph glyph-name="nacute" unicode="&#x144;" 
d="M269 580h-19l60 110h28zM460 378c3 -27 4 -43 4 -86v-292h-22v283c0 37 -1 60 -4 87c-10 89 -59 149 -159 149c-96 0 -186 -67 -186 -207v-312h-22v526h22v-120l21 52c39 55 100 82 165 82c106 0 170 -59 181 -162z" />
    <glyph glyph-name="ncaron" unicode="&#x148;" 
d="M251 580l-65 110h24l53 -94l53 94h23l-65 -110h-23zM460 378c3 -27 4 -43 4 -86v-292h-22v283c0 37 -1 60 -4 87c-10 89 -59 149 -159 149c-96 0 -186 -67 -186 -207v-312h-22v526h22v-120l21 52c39 55 100 82 165 82c106 0 170 -59 181 -162z" />
    <glyph glyph-name="ncommaaccent" unicode="&#x146;" 
d="M460 378c3 -27 4 -43 4 -86v-292h-22v283c0 37 -1 60 -4 87c-10 89 -59 149 -159 149c-96 0 -186 -67 -186 -207v-312h-22v526h22v-120l21 52c39 55 100 82 165 82c106 0 170 -59 181 -162zM250 -51h25v-5l-49 -117h-19z" />
    <glyph glyph-name="eng" unicode="&#x14b;" 
d="M460 378c3 -27 4 -43 4 -86v-346c0 -18 0 -27 -1 -41c-6 -81 -51 -115 -137 -115v21c68 0 110 21 115 90c1 15 1 26 1 42v340c0 37 -1 60 -4 87c-10 89 -59 149 -159 149c-96 0 -186 -67 -186 -207v-312h-22v526h22v-120l21 52c39 55 100 82 165 82
c106 0 170 -59 181 -162z" />
    <glyph glyph-name="ntilde" unicode="&#xf1;" 
d="M210 651c-10 0 -16 -6 -16 -21h-20c0 26 12 41 36 41c16 0 30 -4 57 -13c24 -8 38 -12 47 -12c10 0 16 6 16 21h20c0 -26 -12 -41 -36 -41c-16 0 -30 4 -57 13c-24 8 -38 12 -47 12zM460 378c3 -27 4 -43 4 -86v-292h-22v283c0 37 -1 60 -4 87c-10 89 -59 149 -159 149
c-96 0 -186 -67 -186 -207v-312h-22v526h22v-120l21 52c39 55 100 82 165 82c106 0 170 -59 181 -162z" />
    <glyph glyph-name="o" unicode="o" horiz-adv-x="554" 
d="M277 540c148 0 247 -111 247 -278c0 -166 -99 -276 -247 -276s-247 110 -247 276c0 167 99 278 247 278zM277 7c114 0 223 79 223 255c0 177 -109 257 -223 257s-223 -80 -223 -257c0 -176 109 -255 223 -255z" />
    <glyph glyph-name="oacute" unicode="&#xf3;" horiz-adv-x="554" 
d="M284 580h-19l60 110h28zM277 540c148 0 247 -111 247 -278c0 -166 -99 -276 -247 -276s-247 110 -247 276c0 167 99 278 247 278zM277 7c114 0 223 79 223 255c0 177 -109 257 -223 257s-223 -80 -223 -257c0 -176 109 -255 223 -255z" />
    <glyph glyph-name="ocircumflex" unicode="&#xf4;" horiz-adv-x="554" 
d="M224 580h-23l65 110h23l65 -110h-24l-53 94zM277 540c148 0 247 -111 247 -278c0 -166 -99 -276 -247 -276s-247 110 -247 276c0 167 99 278 247 278zM277 7c114 0 223 79 223 255c0 177 -109 257 -223 257s-223 -80 -223 -257c0 -176 109 -255 223 -255z" />
    <glyph glyph-name="odieresis" unicode="&#xf6;" horiz-adv-x="554" 
d="M237 613c-11 0 -20 9 -20 20s9 20 20 20s20 -9 20 -20s-9 -20 -20 -20zM317 613c-11 0 -20 9 -20 20s9 20 20 20s20 -9 20 -20s-9 -20 -20 -20zM277 540c148 0 247 -111 247 -278c0 -166 -99 -276 -247 -276s-247 110 -247 276c0 167 99 278 247 278zM277 7
c114 0 223 79 223 255c0 177 -109 257 -223 257s-223 -80 -223 -257c0 -176 109 -255 223 -255z" />
    <glyph glyph-name="ograve" unicode="&#xf2;" horiz-adv-x="554" 
d="M274 580l-69 110h28l60 -110h-19zM277 540c148 0 247 -111 247 -278c0 -166 -99 -276 -247 -276s-247 110 -247 276c0 167 99 278 247 278zM277 7c114 0 223 79 223 255c0 177 -109 257 -223 257s-223 -80 -223 -257c0 -176 109 -255 223 -255z" />
    <glyph glyph-name="ohungarumlaut" unicode="&#x151;" horiz-adv-x="554" 
d="M232 580h-19l60 110h28zM332 580h-19l60 110h28zM277 540c148 0 247 -111 247 -278c0 -166 -99 -276 -247 -276s-247 110 -247 276c0 167 99 278 247 278zM277 7c114 0 223 79 223 255c0 177 -109 257 -223 257s-223 -80 -223 -257c0 -176 109 -255 223 -255z" />
    <glyph glyph-name="omacron" unicode="&#x14d;" horiz-adv-x="554" 
d="M347 620h-140v21h140v-21zM277 540c148 0 247 -111 247 -278c0 -166 -99 -276 -247 -276s-247 110 -247 276c0 167 99 278 247 278zM277 7c114 0 223 79 223 255c0 177 -109 257 -223 257s-223 -80 -223 -257c0 -176 109 -255 223 -255z" />
    <glyph glyph-name="oslash" unicode="&#xf8;" horiz-adv-x="594" 
d="M568 519l-78 -78c32 -47 50 -108 50 -179c0 -166 -99 -276 -247 -276c-75 0 -137 28 -181 77l-71 -71l-15 15l73 73c-34 47 -53 109 -53 182c0 167 99 278 247 278c77 0 140 -30 184 -82l76 76zM70 262c0 -70 17 -125 45 -166l346 346c-43 52 -105 77 -168 77
c-114 0 -223 -80 -223 -257zM516 262c0 68 -16 122 -42 162l-345 -344c42 -50 103 -73 164 -73c114 0 223 79 223 255z" />
    <glyph glyph-name="otilde" unicode="&#xf5;" horiz-adv-x="554" 
d="M225 651c-10 0 -16 -6 -16 -21h-20c0 26 12 41 36 41c16 0 30 -4 57 -13c24 -8 38 -12 47 -12c10 0 16 6 16 21h20c0 -26 -12 -41 -36 -41c-16 0 -30 4 -57 13c-24 8 -38 12 -47 12zM277 540c148 0 247 -111 247 -278c0 -166 -99 -276 -247 -276s-247 110 -247 276
c0 167 99 278 247 278zM277 7c114 0 223 79 223 255c0 177 -109 257 -223 257s-223 -80 -223 -257c0 -176 109 -255 223 -255z" />
    <glyph glyph-name="oe" unicode="&#x153;" horiz-adv-x="991" 
d="M955 277c0 -4 0 -8 -1 -19h-430c4 -182 107 -251 204 -251c83 0 166 47 197 154h22c-32 -116 -121 -175 -221 -175c-97 0 -188 60 -216 187c-29 -118 -118 -187 -233 -187c-148 0 -247 110 -247 276c0 167 99 278 247 278c116 0 207 -68 236 -188c26 121 120 188 222 188
c151 0 220 -132 220 -263zM277 7c114 0 223 79 223 255c0 177 -109 257 -223 257s-223 -80 -223 -257c0 -176 109 -255 223 -255zM524 279h408c-4 182 -109 240 -199 240c-96 0 -205 -75 -209 -240z" />
    <glyph glyph-name="p" unicode="p" horiz-adv-x="544" 
d="M287 540c137 0 227 -113 227 -273c0 -186 -112 -281 -239 -281c-67 0 -110 20 -153 68l-29 66v-316h-22v730h22v-128l28 60c47 56 94 74 166 74zM275 7c126 0 215 105 215 256c0 138 -72 256 -205 256c-104 0 -192 -58 -192 -231v-59c0 -172 100 -222 182 -222z" />
    <glyph glyph-name="thorn" unicode="&#xfe;" horiz-adv-x="544" 
d="M287 540c137 0 227 -113 227 -273c0 -186 -112 -281 -239 -281c-67 0 -110 20 -153 68l-29 66v-316h-22v931h22v-329l28 60c47 56 94 74 166 74zM275 7c126 0 215 105 215 256c0 138 -72 256 -205 256c-104 0 -192 -58 -192 -231v-59c0 -172 100 -222 182 -222z" />
    <glyph glyph-name="q" unicode="q" horiz-adv-x="545" 
d="M474 534v-730h-22v318l-29 -62c-47 -56 -94 -74 -166 -74c-137 0 -227 113 -227 273c0 186 112 281 239 281c67 0 110 -20 153 -68l30 -68v130h22zM452 227v76l-1 -6c0 172 -100 222 -182 222c-126 0 -215 -105 -215 -256c0 -138 72 -256 205 -256c104 0 192 58 192 231z
" />
    <glyph glyph-name="r" unicode="r" horiz-adv-x="257" 
d="M233 540c8 0 16 0 23 -1v-20c-96 8 -163 -57 -163 -231v-288h-22v526h22v-113l21 60c28 42 70 67 119 67z" />
    <glyph glyph-name="racute" unicode="&#x155;" horiz-adv-x="257" 
d="M135 580h-19l60 110h28zM233 540c8 0 16 0 23 -1v-20c-96 8 -163 -57 -163 -231v-288h-22v526h22v-113l21 60c28 42 70 67 119 67z" />
    <glyph glyph-name="rcaron" unicode="&#x159;" horiz-adv-x="257" 
d="M117 580l-65 110h24l53 -94l53 94h23l-65 -110h-23zM233 540c8 0 16 0 23 -1v-20c-96 8 -163 -57 -163 -231v-288h-22v526h22v-113l21 60c28 42 70 67 119 67z" />
    <glyph glyph-name="rcommaaccent" unicode="&#x157;" horiz-adv-x="257" 
d="M233 540c8 0 16 0 23 -1v-20c-96 8 -163 -57 -163 -231v-288h-22v526h22v-113l21 60c28 42 70 67 119 67zM70 -51h25v-5l-49 -117h-19z" />
    <glyph glyph-name="s" unicode="s" horiz-adv-x="435" 
d="M215 540c109 0 164 -70 178 -157h-22c-22 92 -71 136 -157 136c-73 0 -140 -43 -140 -120c0 -74 59 -103 143 -122c121 -27 181 -65 181 -153c0 -84 -74 -138 -177 -138c-98 0 -182 50 -195 170h22c17 -111 87 -149 175 -149c83 0 152 40 152 116c0 73 -42 104 -168 133
c-83 19 -156 53 -156 142c0 81 68 142 164 142z" />
    <glyph glyph-name="sacute" unicode="&#x15b;" horiz-adv-x="435" 
d="M220 580h-19l60 110h28zM215 540c109 0 164 -70 178 -157h-22c-22 92 -71 136 -157 136c-73 0 -140 -43 -140 -120c0 -74 59 -103 143 -122c121 -27 181 -65 181 -153c0 -84 -74 -138 -177 -138c-98 0 -182 50 -195 170h22c17 -111 87 -149 175 -149c83 0 152 40 152 116
c0 73 -42 104 -168 133c-83 19 -156 53 -156 142c0 81 68 142 164 142z" />
    <glyph glyph-name="scaron" unicode="&#x161;" horiz-adv-x="435" 
d="M202 580l-65 110h24l53 -94l53 94h23l-65 -110h-23zM217 277c121 -27 181 -65 181 -153c0 -84 -74 -138 -177 -138c-98 0 -182 50 -195 170h22c17 -111 87 -149 175 -149c83 0 152 40 152 116c0 73 -42 104 -168 133c-83 19 -156 53 -156 142c0 81 68 142 164 142
c109 0 164 -70 178 -157h-22c-22 92 -71 136 -157 136c-73 0 -140 -43 -140 -120c0 -74 59 -103 143 -122z" />
    <glyph glyph-name="scedilla" unicode="&#x15f;" horiz-adv-x="435" 
d="M398 124c0 -82 -71 -136 -171 -138l-20 -37c54 -5 88 -28 88 -77c0 -58 -52 -82 -101 -82c-22 0 -39 3 -53 10v22c15 -8 31 -11 53 -11c45 0 78 20 78 61c0 39 -30 62 -98 59l29 56c-90 6 -165 57 -177 169h22c17 -111 87 -149 175 -149c83 0 152 40 152 116
c0 73 -42 104 -168 133c-83 19 -156 53 -156 142c0 81 68 142 164 142c109 0 164 -70 178 -157h-22c-22 92 -71 136 -157 136c-73 0 -140 -43 -140 -120c0 -74 59 -103 143 -122c121 -27 181 -65 181 -153z" />
    <glyph glyph-name="scommaaccent" unicode="&#x219;" horiz-adv-x="435" 
d="M215 540c109 0 164 -70 178 -157h-22c-22 92 -71 136 -157 136c-73 0 -140 -43 -140 -120c0 -74 59 -103 143 -122c121 -27 181 -65 181 -153c0 -84 -74 -138 -177 -138c-98 0 -182 50 -195 170h22c17 -111 87 -149 175 -149c83 0 152 40 152 116c0 73 -42 104 -168 133
c-83 19 -156 53 -156 142c0 81 68 142 164 142zM236 -56l-49 -117h-19l43 122h25v-5z" />
    <glyph glyph-name="germandbls" unicode="&#xdf;" horiz-adv-x="533" 
d="M275 754c95 0 178 -60 178 -165c0 -36 -8 -66 -33 -103c-57 -27 -89 -51 -89 -93c0 -36 13 -63 59 -103c66 -58 98 -104 98 -158c0 -86 -65 -136 -176 -136c-33 0 -69 2 -108 10v23c40 -9 75 -12 108 -12c92 0 152 40 152 112c0 44 -18 77 -86 140c-59 54 -71 80 -71 124
c0 52 35 79 100 113c15 24 22 54 22 82c0 93 -70 145 -157 145c-96 0 -169 -65 -177 -181c-1 -14 -2 -33 -2 -60v-492h-22v490c0 20 1 46 2 64c7 127 92 200 202 200z" />
    <glyph glyph-name="t" unicode="t" horiz-adv-x="236" 
d="M114 71c4 -52 27 -68 105 -57v-18c-13 -2 -33 -3 -50 -3c-47 0 -72 22 -76 68c-2 24 -2 41 -2 71v372h-63v18h63v108h22v-108h103v-18h-103v-376c0 -28 0 -43 1 -57z" />
    <glyph glyph-name="tbar" unicode="&#x167;" horiz-adv-x="236" 
d="M114 71c4 -52 27 -68 105 -57v-18c-13 -2 -33 -3 -50 -3c-47 0 -72 22 -76 68c-2 24 -2 41 -2 71v198h-55v21h55v153h-63v18h63v108h22v-108h103v-18h-103v-153h63v-21h-63v-202c0 -28 0 -43 1 -57z" />
    <glyph glyph-name="tcaron" unicode="&#x165;" horiz-adv-x="221" 
d="M234 734v-5l-49 -117h-19l43 122h25zM114 71c4 -52 27 -68 105 -57v-18c-13 -2 -33 -3 -50 -3c-47 0 -72 22 -76 68c-2 24 -2 41 -2 71v372h-63v18h63v108h22v-108h103v-18h-103v-376c0 -28 0 -43 1 -57z" />
    <glyph glyph-name="tcedilla" unicode="&#x163;" horiz-adv-x="236" 
d="M165 -7l-24 -44c54 -5 88 -28 88 -77c0 -58 -52 -82 -101 -82c-22 0 -39 3 -53 10v22c15 -8 31 -11 53 -11c45 0 78 20 78 61c0 39 -30 62 -98 59l33 65c-29 8 -45 29 -48 65c-2 24 -2 41 -2 71v372h-63v18h63v108h22v-108h103v-18h-103v-376c0 -28 0 -43 1 -57
c4 -52 27 -68 105 -57v-18c-13 -2 -33 -3 -50 -3h-4z" />
    <glyph glyph-name="uni021B" unicode="&#x21b;" horiz-adv-x="236" 
d="M114 71c4 -52 27 -68 105 -57v-18c-13 -2 -33 -3 -50 -3c-47 0 -72 22 -76 68c-2 24 -2 41 -2 71v372h-63v18h63v108h22v-108h103v-18h-103v-376c0 -28 0 -43 1 -57zM145 -51h25v-5l-49 -117h-19z" />
    <glyph glyph-name="u" unicode="u" horiz-adv-x="526" 
d="M455 526v-526h-22v120l-21 -52c-39 -55 -100 -82 -165 -82c-106 0 -170 59 -181 162c-3 27 -4 43 -4 86v292h22v-283c0 -37 1 -60 4 -87c10 -89 59 -149 159 -149c96 0 186 67 186 207v312h22z" />
    <glyph glyph-name="uacute" unicode="&#xfa;" horiz-adv-x="526" 
d="M265 580h-19l60 110h28zM455 526v-526h-22v120l-21 -52c-39 -55 -100 -82 -165 -82c-106 0 -170 59 -181 162c-3 27 -4 43 -4 86v292h22v-283c0 -37 1 -60 4 -87c10 -89 59 -149 159 -149c96 0 186 67 186 207v312h22z" />
    <glyph glyph-name="ucircumflex" unicode="&#xfb;" horiz-adv-x="526" 
d="M205 580h-23l65 110h23l65 -110h-24l-53 94zM455 526v-526h-22v120l-21 -52c-39 -55 -100 -82 -165 -82c-106 0 -170 59 -181 162c-3 27 -4 43 -4 86v292h22v-283c0 -37 1 -60 4 -87c10 -89 59 -149 159 -149c96 0 186 67 186 207v312h22z" />
    <glyph glyph-name="udieresis" unicode="&#xfc;" horiz-adv-x="526" 
d="M218 613c-11 0 -20 9 -20 20s9 20 20 20s20 -9 20 -20s-9 -20 -20 -20zM298 613c-11 0 -20 9 -20 20s9 20 20 20s20 -9 20 -20s-9 -20 -20 -20zM455 526v-526h-22v120l-21 -52c-39 -55 -100 -82 -165 -82c-106 0 -170 59 -181 162c-3 27 -4 43 -4 86v292h22v-283
c0 -37 1 -60 4 -87c10 -89 59 -149 159 -149c96 0 186 67 186 207v312h22z" />
    <glyph glyph-name="ugrave" unicode="&#xf9;" horiz-adv-x="526" 
d="M240 580l-69 110h28l60 -110h-19zM455 526v-526h-22v120l-21 -52c-39 -55 -100 -82 -165 -82c-106 0 -170 59 -181 162c-3 27 -4 43 -4 86v292h22v-283c0 -37 1 -60 4 -87c10 -89 59 -149 159 -149c96 0 186 67 186 207v312h22z" />
    <glyph glyph-name="uhungarumlaut" unicode="&#x171;" horiz-adv-x="526" 
d="M213 580h-19l60 110h28zM313 580h-19l60 110h28zM455 526v-526h-22v120l-21 -52c-39 -55 -100 -82 -165 -82c-106 0 -170 59 -181 162c-3 27 -4 43 -4 86v292h22v-283c0 -37 1 -60 4 -87c10 -89 59 -149 159 -149c96 0 186 67 186 207v312h22z" />
    <glyph glyph-name="umacron" unicode="&#x16b;" horiz-adv-x="526" 
d="M328 620h-140v21h140v-21zM455 526v-526h-22v120l-21 -52c-39 -55 -100 -82 -165 -82c-106 0 -170 59 -181 162c-3 27 -4 43 -4 86v292h22v-283c0 -37 1 -60 4 -87c10 -89 59 -149 159 -149c96 0 186 67 186 207v312h22z" />
    <glyph glyph-name="uogonek" unicode="&#x173;" horiz-adv-x="526" 
d="M455 526v-526h-9c-72 -19 -122 -84 -122 -151c0 -37 19 -52 46 -52c23 0 43 9 65 31v-23c-19 -19 -41 -28 -69 -28c-32 0 -64 15 -64 69c0 73 52 143 131 167v107l-21 -52c-39 -55 -100 -82 -165 -82c-106 0 -170 59 -181 162c-3 27 -4 43 -4 86v292h22v-283
c0 -37 1 -60 4 -87c10 -89 59 -149 159 -149c96 0 186 67 186 207v312h22z" />
    <glyph glyph-name="uring" unicode="&#x16f;" horiz-adv-x="526" 
d="M258 572c-34 0 -62 24 -62 62s28 62 62 62s62 -24 62 -62s-28 -62 -62 -62zM258 675c-25 0 -39 -19 -39 -41s14 -41 39 -41s39 19 39 41s-14 41 -39 41zM455 526v-526h-22v120l-21 -52c-39 -55 -100 -82 -165 -82c-106 0 -170 59 -181 162c-3 27 -4 43 -4 86v292h22v-283
c0 -37 1 -60 4 -87c10 -89 59 -149 159 -149c96 0 186 67 186 207v312h22z" />
    <glyph glyph-name="v" unicode="v" horiz-adv-x="468" 
d="M460 526l-208 -526h-31l-208 526h25l199 -507l198 507h25z" />
    <glyph glyph-name="w" unicode="w" horiz-adv-x="716" 
d="M708 526l-166 -526h-28l-150 499l-150 -499h-34l-167 526h25l159 -504l151 502h31l151 -499l154 501h24z" />
    <glyph glyph-name="wacute" unicode="&#x1e83;" horiz-adv-x="716" 
d="M370 580h-19l60 110h28zM708 526l-166 -526h-28l-150 499l-150 -499h-34l-167 526h25l159 -504l151 502h31l151 -499l154 501h24z" />
    <glyph glyph-name="wcircumflex" unicode="&#x175;" horiz-adv-x="716" 
d="M310 580h-23l65 110h23l65 -110h-24l-53 94zM708 526l-166 -526h-28l-150 499l-150 -499h-34l-167 526h25l159 -504l151 502h31l151 -499l154 501h24z" />
    <glyph glyph-name="wdieresis" unicode="&#x1e85;" horiz-adv-x="716" 
d="M323 613c-11 0 -20 9 -20 20s9 20 20 20s20 -9 20 -20s-9 -20 -20 -20zM403 613c-11 0 -20 9 -20 20s9 20 20 20s20 -9 20 -20s-9 -20 -20 -20zM708 526l-166 -526h-28l-150 499l-150 -499h-34l-167 526h25l159 -504l151 502h31l151 -499l154 501h24z" />
    <glyph glyph-name="wgrave" unicode="&#x1e81;" horiz-adv-x="716" 
d="M358 580l-69 110h28l60 -110h-19zM708 526l-166 -526h-28l-150 499l-150 -499h-34l-167 526h25l159 -504l151 502h31l151 -499l154 501h24z" />
    <glyph glyph-name="x" unicode="x" horiz-adv-x="417" 
d="M218 264l186 -264h-28l-171 249l-175 -249h-27l187 264l-179 262h26l168 -246l172 246h27z" />
    <glyph glyph-name="y" unicode="y" horiz-adv-x="457" 
d="M449 526l-203 -526c-71 -185 -113 -210 -171 -210c-14 0 -24 1 -35 4v20c13 -3 26 -4 39 -4c40 0 78 28 123 138l17 42l-206 536h25l193 -508l193 508h25z" />
    <glyph glyph-name="yacute" unicode="&#xfd;" horiz-adv-x="457" 
d="M237 580h-19l60 110h28zM449 526l-203 -526c-71 -185 -113 -210 -171 -210c-14 0 -24 1 -35 4v20c13 -3 26 -4 39 -4c40 0 78 28 123 138l17 42l-206 536h25l193 -508l193 508h25z" />
    <glyph glyph-name="ycircumflex" unicode="&#x177;" horiz-adv-x="457" 
d="M177 580h-23l65 110h23l65 -110h-24l-53 94zM449 526l-203 -526c-71 -185 -113 -210 -171 -210c-14 0 -24 1 -35 4v20c13 -3 26 -4 39 -4c40 0 78 28 123 138l17 42l-206 536h25l193 -508l193 508h25z" />
    <glyph glyph-name="ydieresis" unicode="&#xff;" horiz-adv-x="457" 
d="M190 613c-11 0 -20 9 -20 20s9 20 20 20s20 -9 20 -20s-9 -20 -20 -20zM270 613c-11 0 -20 9 -20 20s9 20 20 20s20 -9 20 -20s-9 -20 -20 -20zM449 526l-203 -526c-71 -185 -113 -210 -171 -210c-14 0 -24 1 -35 4v20c13 -3 26 -4 39 -4c40 0 78 28 123 138l17 42
l-206 536h25l193 -508l193 508h25z" />
    <glyph glyph-name="ygrave" unicode="&#x1ef3;" horiz-adv-x="457" 
d="M225 580l-69 110h28l60 -110h-19zM449 526l-203 -526c-71 -185 -113 -210 -171 -210c-14 0 -24 1 -35 4v20c13 -3 26 -4 39 -4c40 0 78 28 123 138l17 42l-206 536h25l193 -508l193 508h25z" />
    <glyph glyph-name="z" unicode="z" horiz-adv-x="444" 
d="M422 19v-19h-409v18l377 479h-350v21h379v-20l-378 -479h381z" />
    <glyph glyph-name="zacute" unicode="&#x17a;" horiz-adv-x="444" 
d="M229 580h-19l60 110h28zM422 19v-19h-409v18l377 479h-350v21h379v-20l-378 -479h381z" />
    <glyph glyph-name="zcaron" unicode="&#x17e;" horiz-adv-x="444" 
d="M211 580l-65 110h24l53 -94l53 94h23l-65 -110h-23zM422 19v-19h-409v18l377 479h-350v21h379v-20l-378 -479h381z" />
    <glyph glyph-name="zdotaccent" unicode="&#x17c;" horiz-adv-x="444" 
d="M222 613c-11 0 -20 9 -20 20s9 20 20 20s20 -9 20 -20s-9 -20 -20 -20zM422 19v-19h-409v18l377 479h-350v21h379v-20l-378 -479h381z" />
    <glyph glyph-name="zero" unicode="0" 
d="M265 704c165 0 229 -149 229 -359c0 -211 -64 -359 -229 -359s-229 149 -229 359c0 211 64 359 229 359zM265 7c153 0 205 147 205 338c0 190 -52 338 -205 338s-205 -147 -205 -338c0 -190 52 -338 205 -338z" />
    <glyph glyph-name="one" unicode="1" 
d="M349 690v-690h-22v666l-190 -118v25l159 100c24 15 31 17 42 17h11z" />
    <glyph glyph-name="two" unicode="2" 
d="M481 21v-21h-441v16l239 232c133 130 173 190 173 268c0 94 -60 167 -169 167c-103 0 -179 -73 -190 -185l-1 -10h-22l1 10c13 125 99 206 212 206c129 0 193 -85 193 -188c0 -88 -60 -166 -178 -279l-224 -216h407z" />
    <glyph glyph-name="three" unicode="3" 
d="M328 357c98 -15 160 -70 160 -174c0 -123 -97 -197 -224 -197c-120 0 -204 72 -218 208l-1 10h22l1 -10c11 -108 78 -187 196 -187c114 0 200 63 200 176c0 91 -63 160 -208 160h-17v21h17c92 0 197 61 197 165c0 106 -74 154 -167 154c-103 0 -176 -64 -187 -174l-1 -10
h-22l1 10c12 124 99 195 210 195c124 0 190 -75 190 -173c0 -86 -64 -156 -149 -174z" />
    <glyph glyph-name="four" unicode="4" 
d="M504 200h-99v-200h-22v200h-362v16l367 474h17v-469h99v-21zM383 221v435c-20 -28 -51 -71 -90 -121l-243 -314h333z" />
    <glyph glyph-name="five" unicode="5" 
d="M275 432c129 0 206 -96 206 -221c0 -142 -103 -225 -224 -225c-94 0 -192 55 -206 192l-1 10h22l1 -10c10 -99 78 -171 185 -171c96 0 199 63 199 203c0 123 -76 201 -184 201c-82 0 -149 -35 -187 -116h-22l65 391h350v-21h-331l-58 -331l38 49c41 31 88 49 147 49z" />
    <glyph glyph-name="six" unicode="6" 
d="M275 458c143 0 220 -111 220 -239c0 -129 -93 -233 -229 -233s-223 89 -223 313c0 286 91 405 242 405c122 0 175 -68 197 -176l2 -10h-22l-2 10c-21 105 -78 155 -175 155c-110 0 -217 -66 -222 -379l20 51c44 67 113 103 192 103zM267 7c125 0 204 95 204 211
c0 126 -78 219 -198 219c-112 0 -203 -86 -203 -201c0 -127 70 -229 197 -229z" />
    <glyph glyph-name="seven" unicode="7" 
d="M497 690v-11l-364 -679h-26l360 669h-422v21h452z" />
    <glyph glyph-name="eight" unicode="8" 
d="M344 359c98 -23 147 -91 147 -184c0 -123 -105 -190 -226 -190c-129 0 -226 67 -226 190c0 92 58 160 155 184c-77 21 -121 83 -121 166c0 98 71 179 200 179c135 0 200 -81 200 -179c0 -84 -49 -147 -129 -166zM97 525c0 -109 90 -156 176 -156s176 47 176 156
c0 97 -69 158 -176 158s-176 -61 -176 -158zM267 6c91 0 200 50 200 169c0 101 -67 173 -198 173s-206 -72 -206 -173c0 -119 105 -169 204 -169z" />
    <glyph glyph-name="nine" unicode="9" 
d="M264 704c136 0 223 -89 223 -313c0 -276 -90 -405 -241 -405c-122 0 -176 68 -198 176l-2 10h22l2 -10c21 -105 79 -155 176 -155c110 0 216 75 221 379l-20 -51c-44 -67 -113 -103 -192 -103c-143 0 -220 111 -220 239c0 129 93 233 229 233zM257 253
c112 0 203 86 203 201c0 127 -70 229 -197 229c-125 0 -204 -95 -204 -211c0 -126 78 -219 198 -219z" />
    <glyph glyph-name="fraction" unicode="&#x2044;" horiz-adv-x="73" 
d="M-174 0h-26l447 690h26z" />
    <glyph glyph-name="asterisk" unicode="*" 
d="M274 280l159 57l7 -22l-160 -52l113 -149l-20 -14l-108 154l-108 -154l-20 14l113 149l-160 52l7 22l159 -57l-3 194h24z" />
    <glyph glyph-name="backslash" unicode="\" horiz-adv-x="263" 
d="M268 -30h-22l-251 750h22z" />
    <glyph glyph-name="bullet" unicode="&#x2022;" horiz-adv-x="174" 
d="M87 350c26 0 45 -19 45 -45s-19 -45 -45 -45s-45 19 -45 45s19 45 45 45z" />
    <glyph glyph-name="colon" unicode=":" horiz-adv-x="150" 
d="M60 540c11 0 20 -9 20 -20s-9 -20 -20 -20s-20 9 -20 20s9 20 20 20zM60 26c11 0 20 -9 20 -20s-9 -20 -20 -20s-20 9 -20 20s9 20 20 20z" />
    <glyph glyph-name="comma" unicode="," horiz-adv-x="150" 
d="M68 19l-51 -135h-19l46 140h23z" />
    <glyph glyph-name="ellipsis" unicode="&#x2026;" horiz-adv-x="350" 
d="M60 26c11 0 20 -9 20 -20s-9 -20 -20 -20s-20 9 -20 20s9 20 20 20zM160 26c11 0 20 -9 20 -20s-9 -20 -20 -20s-20 9 -20 20s9 20 20 20zM260 26c11 0 20 -9 20 -20s-9 -20 -20 -20s-20 9 -20 20s9 20 20 20z" />
    <glyph glyph-name="exclam" unicode="!" horiz-adv-x="202" 
d="M111 110h-20l-4 580h28zM101 26c11 0 20 -9 20 -20s-9 -20 -20 -20s-20 9 -20 20s9 20 20 20z" />
    <glyph glyph-name="exclamdown" unicode="&#xa1;" horiz-adv-x="202" 
d="M101 504c-11 0 -20 9 -20 20s9 20 20 20s20 -9 20 -20s-9 -20 -20 -20zM91 420h20l4 -580h-28z" />
    <glyph glyph-name="numbersign" unicode="#" 
d="M358 424l-33 -158h120v-21h-125l-52 -245h-21l52 245h-111l-52 -245h-21l52 245h-112v21h117l33 158h-120v21h125l52 245h21l-52 -245h111l52 245h21l-52 -245h112v-21h-117zM338 424h-111l-34 -158h111z" />
    <glyph glyph-name="period" unicode="." horiz-adv-x="150" 
d="M60 26c11 0 20 -9 20 -20s-9 -20 -20 -20s-20 9 -20 20s9 20 20 20z" />
    <glyph glyph-name="periodcentered" unicode="&#xb7;" horiz-adv-x="136" 
d="M68 327c13 0 22 -9 22 -22s-9 -22 -22 -22s-22 9 -22 22s9 22 22 22z" />
    <glyph glyph-name="question" unicode="?" horiz-adv-x="522" 
d="M259 704c125 0 191 -79 191 -178c0 -71 -37 -134 -93 -187c-91 -87 -106 -128 -106 -229h-20c1 110 14 148 110 242c58 57 85 110 85 174c0 99 -67 157 -167 157c-114 0 -179 -76 -187 -189h-22c5 124 89 210 209 210zM242 26c11 0 20 -9 20 -20s-9 -20 -20 -20
s-20 9 -20 20s9 20 20 20z" />
    <glyph glyph-name="questiondown" unicode="&#xbf;" horiz-adv-x="472" 
d="M280 499c-11 0 -20 9 -20 20s9 20 20 20s20 -9 20 -20s-9 -20 -20 -20zM263 -179c-125 0 -191 79 -191 178c0 71 37 134 93 187c91 87 106 128 106 229h20c-1 -110 -14 -148 -110 -242c-58 -57 -85 -110 -85 -174c0 -99 67 -157 167 -157c114 0 179 76 187 189h22
c-5 -124 -89 -210 -209 -210z" />
    <glyph glyph-name="quotedbl" unicode="&#x22;" horiz-adv-x="150" 
d="M40 491h-16l-3 244h22zM112 491h-16l-3 244h22z" />
    <glyph glyph-name="quotesingle" unicode="'" horiz-adv-x="78" 
d="M40 491h-16l-3 244h22z" />
    <glyph glyph-name="semicolon" unicode=";" horiz-adv-x="150" 
d="M60 540c11 0 20 -9 20 -20s-9 -20 -20 -20s-20 9 -20 20s9 20 20 20zM68 19l-51 -135h-19l46 140h23z" />
    <glyph glyph-name="slash" unicode="/" horiz-adv-x="263" 
d="M17 -30h-22l251 750h22z" />
    <glyph glyph-name="underscore" unicode="_" horiz-adv-x="500" 
d="M450 -80h-400v21h400v-21z" />
    <glyph glyph-name="braceleft" unicode="{" horiz-adv-x="296" 
d="M284 759h-18c-62 0 -106 -21 -106 -89c0 -23 3 -41 10 -95c9 -66 11 -98 11 -120c0 -39 -15 -90 -74 -104c59 -15 74 -68 74 -106c0 -22 -2 -54 -11 -120c-7 -54 -10 -72 -10 -95c0 -68 44 -89 106 -89h18v-21h-17c-75 0 -129 28 -129 111c0 21 2 43 11 104
c8 58 10 86 10 110c0 44 -21 88 -81 94v22c60 6 81 50 81 94c0 24 -2 52 -10 110c-9 61 -11 83 -11 104c0 83 54 111 129 111h17v-21z" />
    <glyph glyph-name="braceright" unicode="}" horiz-adv-x="296" 
d="M137 455c0 -44 21 -88 81 -94v-22c-60 -6 -81 -50 -81 -94c0 -24 2 -52 10 -110c9 -61 11 -83 11 -104c0 -83 -54 -111 -129 -111h-17v21h18c62 0 106 21 106 89c0 23 -3 41 -10 95c-9 66 -11 98 -11 120c0 39 15 90 74 104c-59 15 -74 68 -74 106c0 22 2 54 11 120
c7 54 10 72 10 95c0 68 -44 89 -106 89h-18v21h17c75 0 129 -28 129 -111c0 -21 -2 -43 -11 -104c-8 -58 -10 -86 -10 -110z" />
    <glyph glyph-name="bracketleft" unicode="[" horiz-adv-x="311" 
d="M285 780v-21h-131v-818h131v-21h-153v860h153z" />
    <glyph glyph-name="bracketright" unicode="]" horiz-adv-x="311" 
d="M179 -80h-153v21h131v818h-131v21h153v-860z" />
    <glyph glyph-name="parenleft" unicode="(" horiz-adv-x="293" 
d="M237 780h22c-72 -118 -114 -270 -114 -430s42 -312 114 -430h-22c-70 106 -116 272 -116 430s46 324 116 430z" />
    <glyph glyph-name="parenright" unicode=")" horiz-adv-x="293" 
d="M34 780h22c70 -106 116 -272 116 -430s-46 -324 -116 -430h-22c72 118 114 270 114 430s-42 312 -114 430z" />
    <glyph glyph-name="emdash" unicode="&#x2014;" horiz-adv-x="1000" 
d="M930 280h-860v21h860v-21z" />
    <glyph glyph-name="endash" unicode="&#x2013;" horiz-adv-x="500" 
d="M430 280h-360v21h360v-21z" />
    <glyph glyph-name="hyphen" unicode="-" horiz-adv-x="274" 
d="M242 271h-210v21h210v-21z" />
    <glyph glyph-name="guillemotleft" unicode="&#xab;" horiz-adv-x="502" 
d="M305 414l-137 -166l137 -166h-29l-137 166l137 166h29zM425 414l-137 -166l137 -166h-29l-137 166l137 166h29z" />
    <glyph glyph-name="guillemotright" unicode="&#xbb;" horiz-adv-x="502" 
d="M243 248l-137 -166h-29l137 166l-137 166h29zM363 248l-137 -166h-29l137 166l-137 166h29z" />
    <glyph glyph-name="guilsinglleft" unicode="&#x2039;" horiz-adv-x="382" 
d="M305 414l-137 -166l137 -166h-29l-137 166l137 166h29z" />
    <glyph glyph-name="guilsinglright" unicode="&#x203a;" horiz-adv-x="382" 
d="M243 248l-137 -166h-29l137 166l-137 166h29z" />
    <glyph glyph-name="quotedblbase" unicode="&#x201e;" horiz-adv-x="220" 
d="M68 19l-51 -135h-19l46 140h23zM138 19l-51 -135h-19l46 140h23z" />
    <glyph glyph-name="quotedblleft" unicode="&#x201c;" horiz-adv-x="204" 
d="M14 496l74 239h20l-70 -244h-23zM104 496l74 239h20l-70 -244h-23z" />
    <glyph glyph-name="quotedblright" unicode="&#x201d;" horiz-adv-x="204" 
d="M100 730l-74 -239h-20l70 244h23zM190 730l-74 -239h-20l70 244h23z" />
    <glyph glyph-name="quoteleft" unicode="&#x2018;" horiz-adv-x="114" 
d="M14 496l74 239h20l-70 -244h-23z" />
    <glyph glyph-name="quoteright" unicode="&#x2019;" horiz-adv-x="114" 
d="M100 730l-74 -239h-20l70 244h23z" />
    <glyph glyph-name="quotesinglbase" unicode="&#x201a;" horiz-adv-x="150" 
d="M68 19l-51 -135h-19l46 140h23z" />
    <glyph glyph-name="space" unicode=" " horiz-adv-x="184" 
 />
    <glyph glyph-name="cent" unicode="&#xa2;" 
d="M287 524v-518c87 4 162 57 181 151h22c-20 -102 -100 -167 -203 -171v-76h-22v76c-124 6 -222 109 -222 279c0 162 99 268 222 278v77h22v-76c112 -1 192 -73 207 -177h-22c-17 94 -81 155 -185 157zM67 270c0 -171 97 -257 198 -264v517c-95 -9 -198 -93 -198 -253z" />
    <glyph glyph-name="currency" unicode="&#xa4;" 
d="M441 301c0 -48 -16 -90 -43 -121l57 -57l-16 -16l-57 57c-31 -27 -71 -43 -117 -43s-86 16 -117 43l-57 -57l-16 16l57 57c-27 31 -43 73 -43 121s16 90 43 121l-57 57l16 16l57 -57c31 27 71 43 117 43s86 -16 117 -43l57 57l16 -16l-57 -57c27 -31 43 -73 43 -121z
M265 142c89 0 152 69 152 159s-63 159 -152 159s-152 -69 -152 -159s63 -159 152 -159z" />
    <glyph glyph-name="dollar" unicode="$" 
d="M286 683v-329c121 -35 191 -98 191 -199c0 -87 -66 -165 -191 -169v-76h-22v76c-106 5 -199 66 -212 194h22c12 -108 88 -168 190 -173v326c-95 28 -182 76 -182 192c0 106 80 173 182 179v76h22v-76c120 -4 180 -89 193 -190h-22c-13 103 -74 165 -171 169zM106 525
c0 -101 70 -140 158 -167v325c-81 -5 -158 -57 -158 -158zM286 329v-322c107 3 167 64 167 146c0 91 -60 143 -167 176z" />
    <glyph glyph-name="Euro" unicode="&#x20ac;" 
d="M331 683c-109 0 -218 -74 -237 -272h370l-11 -21h-361c-1 -14 -1 -29 -1 -44c0 -16 0 -31 1 -45h331l-9 -21h-321c16 -189 99 -273 241 -273c50 0 96 12 140 40v-24c-49 -28 -98 -37 -145 -37c-153 0 -245 92 -260 294h-73l10 21h62c-1 13 -1 27 -1 41c0 17 1 33 2 48
h-48l10 21h39c20 197 125 293 263 293c74 0 119 -17 163 -60l-15 -16c-42 41 -84 55 -150 55z" />
    <glyph glyph-name="sterling" unicode="&#xa3;" 
d="M474 21v-21h-419v20c77 22 156 81 156 185c0 50 -18 92 -52 147h-95v21h82c-27 44 -47 92 -47 151c0 107 81 180 186 180c125 0 180 -83 188 -196h-22c-7 112 -64 175 -168 175c-85 0 -160 -62 -160 -158c0 -52 17 -97 50 -152h235v-21h-222c33 -51 49 -100 49 -147
c0 -79 -44 -145 -129 -184h368z" />
    <glyph glyph-name="yen" unicode="&#xa5;" 
d="M287 342h173v-21h-184v-79h184v-21h-184v-221h-22v221h-184v21h184v79h-184v21h172l-221 348h30l214 -345l214 345h28z" />
    <glyph glyph-name="approxequal" unicode="&#x2248;" 
d="M162 441c35 0 59 -11 109 -37c48 -25 66 -33 98 -33c47 0 70 17 100 62l15 -12c-28 -49 -66 -71 -115 -71c-35 0 -59 11 -109 37c-48 25 -66 33 -98 33c-47 0 -70 -17 -100 -62l-15 12c28 49 66 71 115 71zM162 261c35 0 59 -11 109 -37c48 -25 66 -33 98 -33
c47 0 70 17 100 62l15 -12c-28 -49 -66 -71 -115 -71c-35 0 -59 11 -109 37c-48 25 -66 33 -98 33c-47 0 -70 -17 -100 -62l-15 12c28 49 66 71 115 71z" />
    <glyph glyph-name="asciitilde" unicode="~" 
d="M454 350h21c0 -83 -33 -117 -87 -117c-37 0 -57 7 -129 47c-63 35 -87 45 -118 45c-45 0 -64 -34 -64 -96h-21c0 83 33 117 86 117c38 0 59 -8 130 -47c65 -36 87 -45 117 -45c46 0 65 34 65 96z" />
    <glyph glyph-name="divide" unicode="&#xf7;" 
d="M265 498c15 0 26 -11 26 -26s-11 -26 -26 -26s-26 11 -26 26s11 26 26 26zM465 307h-400v21h400v-21zM265 188c15 0 26 -11 26 -26s-11 -26 -26 -26s-26 11 -26 26s11 26 26 26z" />
    <glyph glyph-name="emptyset" unicode="&#x2205;" horiz-adv-x="838" 
d="M770 691l-84 -84c60 -65 97 -153 97 -252c0 -211 -166 -370 -364 -370c-97 0 -187 38 -253 102l-83 -83l-15 15l84 84c-60 65 -97 153 -97 252c0 211 166 370 364 370c97 0 187 -38 253 -102l83 83zM79 355c0 -93 34 -175 89 -236l488 488c-62 61 -146 97 -237 97
c-185 0 -340 -150 -340 -349zM419 6c185 0 340 150 340 349c0 93 -34 175 -89 236l-488 -488c62 -61 146 -97 237 -97z" />
    <glyph glyph-name="equal" unicode="=" 
d="M475 397h-420v21h420v-21zM475 217h-420v21h420v-21z" />
    <glyph glyph-name="greater" unicode="&#x3e;" 
d="M459 275v-20l-401 -195v25l371 180l-371 180v25z" />
    <glyph glyph-name="greaterequal" unicode="&#x2265;" 
d="M458 285v-20l-400 -175v24l372 161l-372 161v24zM58 21h400v-21h-400v21z" />
    <glyph glyph-name="infinity" unicode="&#x221e;" horiz-adv-x="994" 
d="M732 544c138 0 232 -113 232 -280c0 -166 -94 -278 -232 -278c-119 0 -201 76 -236 227c-30 -151 -115 -227 -234 -227c-138 0 -232 112 -232 278c0 167 94 280 232 280c119 0 201 -76 236 -226c27 147 115 226 234 226zM262 7c96 0 205 64 221 258
c-26 194 -125 258 -221 258c-104 0 -208 -82 -208 -259c0 -176 104 -257 208 -257zM732 7c104 0 208 81 208 257c0 177 -104 259 -208 259c-96 0 -206 -64 -221 -258c25 -194 125 -258 221 -258z" />
    <glyph glyph-name="integral" unicode="&#x222b;" 
d="M295 754c22 0 45 -9 61 -28l-14 -15c-15 17 -32 22 -48 22c-37 0 -65 -40 -65 -142c0 -46 5 -106 36 -291c28 -170 37 -235 37 -305c0 -119 -47 -155 -90 -155c-22 0 -45 9 -61 28l14 15c15 -17 32 -22 48 -22c37 0 65 40 65 142c0 46 -5 106 -36 291
c-28 170 -37 235 -37 305c0 119 47 155 90 155z" />
    <glyph glyph-name="less" unicode="&#x3c;" 
d="M472 445l-371 -180l371 -180v-25l-401 195v20l401 195v-25z" />
    <glyph glyph-name="lessequal" unicode="&#x2264;" 
d="M472 436l-372 -161l372 -161v-24l-400 175v20l400 175v-24zM72 21h400v-21h-400v21z" />
    <glyph glyph-name="logicalnot" unicode="&#xac;" 
d="M437 210h-22v134h-329v21h351v-155z" />
    <glyph glyph-name="minus" unicode="&#x2212;" 
d="M465 307h-400v21h400v-21z" />
    <glyph glyph-name="multiply" unicode="&#xd7;" 
d="M280 313l151 -151l-15 -15l-151 151l-151 -151l-15 15l151 151l-151 151l15 15l151 -151l151 151l15 -15z" />
    <glyph glyph-name="notequal" unicode="&#x2260;" 
d="M323 397l-93 -159h245v-21h-257l-67 -114h-24l67 114h-139v21h151l93 159h-244v21h256l67 115h24l-67 -115h140v-21h-152z" />
    <glyph glyph-name="partialdiff" unicode="&#x2202;" 
d="M244 758c172 0 221 -194 221 -435c0 -207 -64 -337 -219 -337c-117 0 -196 91 -196 221c0 156 95 250 221 250c80 0 140 -44 170 -100c-3 207 -54 380 -200 380c-54 0 -95 -14 -138 -50l-13 16c48 40 95 55 154 55zM246 7c124 0 192 91 195 312c-37 84 -107 117 -169 117
c-122 0 -198 -95 -198 -227c0 -126 74 -202 172 -202z" />
    <glyph glyph-name="percent" unicode="%" horiz-adv-x="699" 
d="M199 704c80 0 128 -69 128 -159c0 -88 -48 -159 -128 -159s-128 71 -128 159c0 90 48 159 128 159zM139 0h-26l447 690h26zM199 683c-68 0 -104 -57 -104 -138c0 -80 36 -138 104 -138s104 58 104 138c0 81 -36 138 -104 138zM500 304c80 0 128 -69 128 -159
c0 -88 -48 -159 -128 -159s-128 71 -128 159c0 90 48 159 128 159zM500 283c-68 0 -104 -57 -104 -138c0 -80 36 -138 104 -138s104 58 104 138c0 81 -36 138 -104 138z" />
    <glyph glyph-name="perthousand" unicode="&#x2030;" horiz-adv-x="1006" 
d="M199 386c-80 0 -128 71 -128 159c0 90 48 159 128 159s128 -69 128 -159c0 -88 -48 -159 -128 -159zM586 690l-447 -690h-26l447 690h26zM199 683c-68 0 -104 -57 -104 -138c0 -80 36 -138 104 -138s104 58 104 138c0 81 -36 138 -104 138zM500 304
c80 0 128 -69 128 -159c0 -88 -48 -159 -128 -159s-128 71 -128 159c0 90 48 159 128 159zM807 304c80 0 128 -69 128 -159c0 -88 -48 -159 -128 -159s-128 71 -128 159c0 90 48 159 128 159zM500 7c68 0 104 58 104 138c0 81 -36 138 -104 138s-104 -57 -104 -138
c0 -80 36 -138 104 -138zM807 7c68 0 104 58 104 138c0 81 -36 138 -104 138s-104 -57 -104 -138c0 -80 36 -138 104 -138z" />
    <glyph glyph-name="plus" unicode="+" 
d="M465 307h-189v-220h-22v220h-189v21h189v220h22v-220h189v-21z" />
    <glyph glyph-name="plusminus" unicode="&#xb1;" 
d="M261 328h189v-21h-189v-210h-22v210h-189v21h189v210h22v-210zM450 0h-400v21h400v-21z" />
    <glyph glyph-name="product" unicode="&#x220f;" 
d="M487 669h-56v-779h-22v779h-288v-779h-22v779h-56v21h444v-21z" />
    <glyph glyph-name="radical" unicode="&#x221a;" 
d="M492 780l-219 -940h-33l-132 449h-66v21h82l132 -453l213 923h23z" />
    <glyph glyph-name="summation" unicode="&#x2211;" 
d="M497 -89v-21h-469v20l288 391l-258 369v20h433v-21h-406l258 -369l-287 -389h441z" />
    <glyph glyph-name="lozenge" unicode="&#x25ca;" horiz-adv-x="468" 
d="M412 345l-167 -345h-22l-167 345l167 345h22zM388 345l-154 320l-154 -320l154 -321z" />
    <glyph glyph-name="ampersand" unicode="&#x26;" horiz-adv-x="640" 
d="M618 355v-21h-110v-333c-57 -10 -131 -15 -175 -15c-161 0 -263 36 -263 172c0 110 82 173 194 186c-87 11 -156 59 -156 172c0 108 91 188 224 188c49 0 82 -3 120 -10v-22c-41 8 -74 11 -123 11c-111 0 -197 -62 -197 -166c0 -131 103 -157 183 -161c20 -1 39 -1 61 -1
h110v152h22v-152h110zM94 158c0 -120 96 -151 241 -151c41 0 111 4 151 12v315h-110c-22 0 -41 0 -61 -2c-115 -10 -221 -49 -221 -174z" />
    <glyph glyph-name="asciicircum" unicode="^" 
d="M426 215l-159 380l-161 -380h-24l172 401h27l170 -401h-25z" />
    <glyph glyph-name="at" unicode="@" horiz-adv-x="851" 
d="M599 465l-50 -209c-11 -49 -13 -69 -13 -88c0 -46 31 -72 79 -72c87 0 158 93 158 237c0 194 -126 310 -309 310c-173 0 -379 -148 -379 -396c0 -217 150 -330 310 -330c104 0 177 20 274 87l12 -19c-112 -75 -186 -89 -286 -89c-165 0 -334 113 -334 348
c0 263 214 420 409 420s327 -134 327 -326c0 -173 -89 -263 -184 -263c-49 0 -101 22 -101 98l-18 -38c-35 -47 -75 -68 -121 -68c-54 0 -123 31 -123 151c0 141 91 265 212 265c39 0 62 -16 75 -34l21 -52l16 68h25zM532 279l9 40c18 78 -16 143 -83 143
c-96 0 -184 -106 -184 -240c0 -92 41 -134 103 -134c61 0 123 51 155 191z" />
    <glyph glyph-name="bar" unicode="|" horiz-adv-x="250" 
d="M136 -200h-22v1000h22v-1000z" />
    <glyph glyph-name="brokenbar" unicode="&#xa6;" horiz-adv-x="250" 
d="M136 350h-22v340h22v-340zM136 -160h-22v340h22v-340z" />
    <glyph glyph-name="copyright" unicode="&#xa9;" horiz-adv-x="838" 
d="M419 726c203 0 363 -164 363 -371s-160 -371 -363 -371s-363 164 -363 371s160 371 363 371zM419 704c-190 0 -341 -155 -341 -349s151 -348 341 -348s341 154 341 348s-151 349 -341 349zM422 564c84 0 151 -46 163 -138h-22c-14 71 -60 117 -141 117
c-98 0 -157 -89 -157 -187c0 -105 63 -186 153 -186c76 0 127 38 144 116h22c-18 -92 -81 -137 -169 -137c-92 0 -172 78 -172 206c0 130 81 209 179 209z" />
    <glyph glyph-name="dagger" unicode="&#x2020;" horiz-adv-x="550" 
d="M474 403l-187 1l1 -564h-24l-1 564l-187 -1v23l187 -1l-1 265h26l-1 -265l187 1v-23z" />
    <glyph glyph-name="daggerdbl" unicode="&#x2021;" horiz-adv-x="550" 
d="M287 404v-280l187 1v-23l-187 1l1 -263h-24l-1 263l-187 -1v23l187 -1v280l-187 -1v23l187 -1l-1 265h26l-1 -265l187 1v-23z" />
    <glyph glyph-name="degree" unicode="&#xb0;" horiz-adv-x="276" 
d="M138 704c59 0 102 -42 102 -101s-43 -101 -102 -101s-102 42 -102 101s43 101 102 101zM138 683c-47 0 -79 -32 -79 -80s32 -80 79 -80s79 32 79 80s-32 80 -79 80z" />
    <glyph glyph-name="paragraph" unicode="&#xb6;" horiz-adv-x="529" 
d="M458 690v-800h-22v779h-128v-779h-22v430h-23c-18 0 -39 0 -56 1c-102 6 -157 89 -157 184s55 178 157 184c17 1 38 1 56 1h195z" />
    <glyph glyph-name="registered" unicode="&#xae;" horiz-adv-x="522" 
d="M261 764c123 0 210 -87 210 -209c0 -124 -87 -211 -210 -211s-210 87 -210 211c0 122 87 209 210 209zM261 365c110 0 187 79 187 190c0 110 -77 188 -187 188s-187 -78 -187 -188c0 -111 77 -190 187 -190zM291 549c14 -6 23 -19 26 -39c4 -25 11 -43 18 -54h-24
c-6 12 -11 26 -15 51c-3 19 -10 30 -32 30h-41v-81h-20v204h50c7 0 14 0 23 -1c34 -4 56 -22 56 -59c0 -26 -15 -44 -41 -51zM223 556h28c9 0 17 0 23 1c20 3 37 16 37 40c0 28 -18 40 -36 43c-6 1 -10 1 -16 1h-36v-85z" />
    <glyph glyph-name="section" unicode="&#xa7;" 
d="M499 259c0 -93 -71 -142 -155 -155c74 -31 104 -75 104 -141c0 -84 -76 -137 -179 -137c-102 0 -170 50 -195 165h22c25 -99 84 -144 175 -144c83 0 153 42 153 114c0 75 -38 118 -193 151c-83 18 -182 70 -182 166c0 92 67 139 145 154c-53 23 -95 63 -95 130
c0 87 67 142 163 142c109 0 163 -67 180 -155h-22c-23 90 -73 134 -159 134c-73 0 -138 -40 -138 -118c0 -87 84 -122 168 -137c121 -22 208 -73 208 -169zM303 119c82 1 172 41 172 138c0 80 -69 124 -195 149c-17 3 -35 8 -53 13c-71 -7 -154 -40 -154 -138
c0 -81 84 -130 168 -147c23 -4 43 -9 62 -15z" />
    <glyph glyph-name="trademark" unicode="&#x2122;" horiz-adv-x="517" 
d="M214 660v-19h-84v-185h-22v185h-84v19h190zM443 659v-203h-20l2 185l-71 -183h-24l-70 182l1 -184h-20v203h31l71 -184l71 184h29z" />
    <glyph glyph-name="acute" unicode="&#xb4;" horiz-adv-x="300" 
d="M157 580h-19l60 110h28z" />
    <glyph glyph-name="breve" unicode="&#x2d8;" horiz-adv-x="300" 
d="M222 690h18c0 -73 -29 -120 -90 -120c-62 0 -91 47 -91 120h18c1 -62 27 -99 73 -99s71 37 72 99z" />
    <glyph glyph-name="caron" unicode="&#x2c7;" horiz-adv-x="300" 
d="M227 690l-65 -110h-23l-65 110h24l53 -94l53 94h23z" />
    <glyph glyph-name="cedilla" unicode="&#xb8;" horiz-adv-x="300" 
d="M165 7l-31 -58c54 -5 88 -28 88 -77c0 -58 -52 -82 -101 -82c-22 0 -39 3 -53 10v22c15 -8 31 -11 53 -11c45 0 78 20 78 61c0 39 -30 62 -98 59l39 76h25z" />
    <glyph glyph-name="circumflex" unicode="&#x2c6;" horiz-adv-x="300" 
d="M203 580l-53 94l-53 -94h-23l65 110h23l65 -110h-24z" />
    <glyph glyph-name="dieresis" unicode="&#xa8;" horiz-adv-x="300" 
d="M110 653c11 0 20 -9 20 -20s-9 -20 -20 -20s-20 9 -20 20s9 20 20 20zM190 653c11 0 20 -9 20 -20s-9 -20 -20 -20s-20 9 -20 20s9 20 20 20z" />
    <glyph glyph-name="dotaccent" unicode="&#x2d9;" horiz-adv-x="300" 
d="M150 653c11 0 20 -9 20 -20s-9 -20 -20 -20s-20 9 -20 20s9 20 20 20z" />
    <glyph glyph-name="grave" unicode="`" horiz-adv-x="300" 
d="M162 580h-19l-69 110h28z" />
    <glyph glyph-name="hungarumlaut" unicode="&#x2dd;" horiz-adv-x="300" 
d="M105 580h-19l60 110h28zM205 580h-19l60 110h28z" />
    <glyph glyph-name="macron" unicode="&#xaf;" horiz-adv-x="300" 
d="M220 620h-140v21h140v-21z" />
    <glyph glyph-name="ogonek" unicode="&#x2db;" horiz-adv-x="300" 
d="M150 13l13 -13c-72 -19 -122 -84 -122 -151c0 -37 19 -52 46 -52c23 0 43 9 65 31v-23c-19 -19 -41 -28 -69 -28c-32 0 -64 15 -64 69c0 73 52 143 131 167z" />
    <glyph glyph-name="ring" unicode="&#x2da;" horiz-adv-x="300" 
d="M150 696c34 0 62 -24 62 -62s-28 -62 -62 -62s-62 24 -62 62s28 62 62 62zM150 675c-25 0 -39 -19 -39 -41s14 -41 39 -41s39 19 39 41s-14 41 -39 41z" />
    <glyph glyph-name="tilde" unicode="&#x2dc;" horiz-adv-x="300" 
d="M98 671c16 0 30 -4 57 -13c24 -8 38 -12 47 -12c10 0 16 6 16 21h20c0 -26 -12 -41 -36 -41c-16 0 -30 4 -57 13c-24 8 -38 12 -47 12c-10 0 -16 -6 -16 -21h-20c0 26 12 41 36 41z" />
    <glyph glyph-name="uni0326" unicode="&#x326;" horiz-adv-x="0" 
d="M163 -56l-49 -117h-19l43 122h25v-5z" />
    </font>
</defs>
</svg>
