<?xml version="1.0" standalone="no"?>
<!DOCTYPE svg PUBLIC "-//W3C//DTD SVG 1.1//EN" "http://www.w3.org/Graphics/SVG/1.1/DTD/svg11.dtd" >
<svg xmlns="http://www.w3.org/2000/svg" xmlns:xlink="http://www.w3.org/1999/xlink" version="1.1">
<metadata>
Created by FontForge 20170924 at Tue Jul 14 11:00:24 2015
 By Glenn,,,
Copyright (c) 2015 by Hubert &#38; Fischer. All rights reserved.
</metadata>
<defs>
<font id="Rubik-BoldItalic" horiz-adv-x="632" >
  <font-face 
    font-family="Rubik"
    font-weight="700"
    font-style="italic"
    font-stretch="normal"
    units-per-em="1000"
    panose-1="2 0 6 4 0 0 0 2 0 4"
    ascent="800"
    descent="-200"
    x-height="520"
    cap-height="700"
    bbox="-295.897 -250 1246.54 920"
    underline-thickness="50"
    underline-position="-100"
    slope="-12"
    unicode-range="U+000D-FB4A"
  />
<missing-glyph horiz-adv-x="290" 
 />
    <glyph glyph-name="f_f" unicode="ff" horiz-adv-x="834" 
d="M718 520h123q11 0 17 -8t4 -19l-21 -101q-2 -11 -12 -19t-21 -8h-123l-72 -338q-2 -11 -11.5 -19t-20.5 -8h-126q-11 0 -17.5 8t-4.5 19l72 338h-192l-72 -338q-2 -11 -11.5 -19t-20.5 -8h-126q-11 0 -17.5 8t-4.5 19l72 338h-69q-11 0 -17 8t-4 19l21 101q2 11 12 19
t21 8h69l6 27q20 93 80 143t169 50h105q11 0 17 -8t4 -19l-21 -101q-3 -11 -12.5 -19t-20.5 -8h-90q-24 0 -36 -12t-16 -31l-5 -22h192l6 27q20 93 80 143t169 50h105q11 0 17 -8t4 -19l-21 -101q-3 -11 -12.5 -19t-20.5 -8h-90q-24 0 -36 -12t-16 -31z" />
    <glyph glyph-name="f_f_i" unicode="ffi" horiz-adv-x="1088" 
d="M973 27q-2 -11 -11.5 -19t-20.5 -8h-126q-11 0 -17.5 8t-4.5 19l72 338h-180l-72 -338q-2 -11 -11.5 -19t-20.5 -8h-126q-11 0 -17.5 8t-4.5 19l72 338h-192l-72 -338q-2 -11 -11.5 -19t-20.5 -8h-126q-11 0 -17.5 8t-4.5 19l72 338h-69q-11 0 -17 8t-4 19l21 101
q2 11 12 19t21 8h69l6 27q20 93 80 143t169 50h105q11 0 17 -8t4 -19l-21 -101q-3 -11 -12.5 -19t-20.5 -8h-90q-24 0 -36 -12t-16 -31l-5 -22h192l6 27q20 93 80 143t169 50h305q11 0 17 -8t4 -19l-21 -101q-3 -11 -12.5 -19t-20.5 -8h-290q-24 0 -36 -12t-16 -31l-5 -22
h333q11 0 17 -8t4 -19z" />
    <glyph glyph-name="f_f_l" unicode="ffl" horiz-adv-x="1100" 
d="M718 520h192l41 193q2 11 11.5 19t20.5 8h126q11 0 17.5 -8t4.5 -19l-146 -686q-2 -11 -11.5 -19t-20.5 -8h-126q-11 0 -17.5 8t-4.5 19l72 338h-192l-72 -338q-2 -11 -11.5 -19t-20.5 -8h-126q-11 0 -17.5 8t-4.5 19l72 338h-192l-72 -338q-2 -11 -11.5 -19t-20.5 -8
h-126q-11 0 -17.5 8t-4.5 19l72 338h-69q-11 0 -17 8t-4 19l21 101q2 11 12 19t21 8h69l6 27q20 93 80 143t169 50h105q11 0 17 -8t4 -19l-21 -101q-3 -11 -12.5 -19t-20.5 -8h-90q-24 0 -36 -12t-16 -31l-5 -22h192l6 27q20 93 80 143t169 50h105q11 0 17 -8t4 -19
l-21 -101q-3 -11 -12.5 -19t-20.5 -8h-90q-24 0 -36 -12t-16 -31z" />
    <glyph glyph-name="fi" unicode="fi" horiz-adv-x="716" 
d="M601 27q-2 -11 -11.5 -19t-20.5 -8h-126q-11 0 -17.5 8t-4.5 19l72 338h-180l-72 -338q-2 -11 -11.5 -19t-20.5 -8h-126q-11 0 -17.5 8t-4.5 19l72 338h-69q-11 0 -17 8t-4 19l21 101q2 11 12 19t21 8h69l6 27q20 93 80 143t169 50h305q11 0 17 -8t4 -19l-21 -101
q-3 -11 -12.5 -19t-20.5 -8h-290q-24 0 -36 -12t-16 -31l-5 -22h333q11 0 17 -8t4 -19z" />
    <glyph glyph-name="fl" unicode="fl" horiz-adv-x="728" 
d="M346 520h192l41 193q2 11 11.5 19t20.5 8h126q11 0 17.5 -8t4.5 -19l-146 -686q-2 -11 -11.5 -19t-20.5 -8h-126q-11 0 -17.5 8t-4.5 19l72 338h-192l-72 -338q-2 -11 -11.5 -19t-20.5 -8h-126q-11 0 -17.5 8t-4.5 19l72 338h-69q-11 0 -17 8t-4 19l21 101q2 11 12 19
t21 8h69l6 27q20 93 80 143t169 50h105q11 0 17 -8t4 -19l-21 -101q-3 -11 -12.5 -19t-20.5 -8h-90q-24 0 -36 -12t-16 -31z" />
    <glyph glyph-name=".notdef" horiz-adv-x="290" 
 />
    <glyph glyph-name=".null" horiz-adv-x="0" 
 />
    <glyph glyph-name=".null" horiz-adv-x="0" 
 />
    <glyph glyph-name="nonmarkingreturn" unicode="&#xd;" horiz-adv-x="290" 
 />
    <glyph glyph-name="space" unicode=" " horiz-adv-x="214" 
 />
    <glyph glyph-name="cedilla" unicode="&#xb8;" horiz-adv-x="254" 
d="M181 27l-56 -81q7 4 17.5 7t21.5 3q31 0 48 -27.5t9 -63.5t-31 -60.5t-76 -24.5q-16 0 -34 5t-30.5 13t-17.5 16.5t6 16.5l21 16q10 7 15 7t10.5 -3t12.5 -6.5t20 -3.5q14 0 24.5 6t13.5 21q3 14 -4.5 20.5t-22.5 6.5q-7 0 -15 -2t-15.5 -3.5t-13.5 -1t-10 5.5l-14 21
q-4 8 -5.5 15t6.5 18l55 79h65z" />
    <glyph glyph-name="circumflex" unicode="&#x2c6;" horiz-adv-x="408" 
d="M294 755q11 0 18 -4t15 -15l78 -112q6 -10 0 -19.5t-17 -9.5h-51q-10 0 -15.5 3t-13.5 8l-73 44l-80 -44q-10 -5 -17 -8t-17 -3h-77q-13 0 -14 10t6 16l129 115q12 11 20 15t21 4h88z" />
    <glyph glyph-name="commaaccent" unicode="&#xf6c3;" horiz-adv-x="269" 
d="M84 -89q5 14 18 26.5t33 12.5h115q11 0 16 -9.5t-1 -19.5l-85 -139q-6 -10 -18 -21t-32 -11h-81q-10 0 -15.5 7.5t-1.5 16.5z" />
    <glyph glyph-name="dieresis" unicode="&#xa8;" horiz-adv-x="433" 
d="M186 622q-2 -11 -12 -19t-21 -8h-101q-11 0 -17 8t-4 19l21 101q2 11 12 19t21 8h101q11 0 17 -8t4 -19zM411 622q-2 -11 -12 -19t-21 -8h-101q-11 0 -17 8t-4 19l21 101q2 11 12 19t21 8h101q11 0 17 -8t4 -19z" />
    <glyph glyph-name="dotaccent" unicode="&#x2d9;" horiz-adv-x="220" 
d="M196 622q-2 -11 -12 -19t-21 -8h-111q-11 0 -17 8t-4 19l23 111q2 11 12 19t21 8h111q11 0 17 -8t4 -19z" />
    <glyph glyph-name="hungarumlaut" unicode="&#x2dd;" horiz-adv-x="524" 
d="M114 736q7 10 16 14.5t25 4.5h122q15 0 16 -12t-9 -20l-129 -114q-16 -14 -37 -14h-73q-11 0 -13.5 6.5t2.5 14.5zM344 736q7 10 16 14.5t25 4.5h122q15 0 16 -12t-9 -20l-129 -114q-16 -14 -37 -14h-73q-11 0 -13.5 6.5t2.5 14.5z" />
    <glyph glyph-name="grave" unicode="`" horiz-adv-x="288" 
d="M285 624q5 -9 0 -19t-17 -10h-88q-16 0 -23.5 5t-14.5 12l-106 105q-9 9 -4 23.5t19 14.5h133q11 0 18 -3t15 -16z" />
    <glyph glyph-name="macron" unicode="&#xaf;" horiz-adv-x="393" 
d="M52 595q-11 0 -17 8t-4 19l18 86q2 11 12 19t21 8h289q11 0 17 -8t4 -19l-18 -86q-2 -11 -12 -19t-21 -8h-289z" />
    <glyph glyph-name="ogonek" unicode="&#x2db;" horiz-adv-x="266" 
d="M159 -220q-30 0 -56.5 13t-44.5 36t-25.5 53.5t0.5 66.5q7 36 21.5 65t38 50t57 32.5t78.5 11.5h19q10 0 15 -6t3 -16l-14 -64q-5 -22 -26 -22h-15q-26 0 -43.5 -16.5t-22.5 -39.5t5.5 -39.5t36.5 -16.5h15q22 0 17 -22l-14 -64q-2 -10 -9 -16t-17 -6h-19z" />
    <glyph glyph-name="ring" unicode="&#x2da;" horiz-adv-x="222" 
d="M96 680q-3 -13 4 -21.5t20 -8.5t23 8.5t13 21.5t-4 21.5t-20 8.5t-23 -8.5t-13 -21.5zM32 682q8 39 38.5 63.5t69.5 24.5q19 0 35.5 -7t28 -19.5t16 -29.5t0.5 -36q-8 -39 -38.5 -63.5t-69.5 -24.5q-20 0 -36 7t-27.5 19.5t-16 29t-0.5 36.5z" />
    <glyph glyph-name="tilde" unicode="&#x2dc;" horiz-adv-x="444" 
d="M302 590q-30 0 -46.5 7t-28.5 15.5t-22 15.5t-26 7q-12 0 -19.5 -6.5t-13 -14t-11 -13.5t-13.5 -6h-76q-9 0 -13 5.5t-2 13.5q5 22 16.5 46.5t29.5 44t42 32.5t53 13q30 0 46.5 -7t28 -15.5t21.5 -15.5t26 -7q12 0 19.5 6t13.5 13.5t11.5 14t13.5 6.5h76q9 0 13 -5.5
t2 -13.5q-5 -23 -18 -47t-32 -43.5t-42.5 -32.5t-48.5 -13z" />
    <glyph glyph-name="Acute" unicode="&#xf6c9;" horiz-adv-x="365" 
d="M154 891q14 13 22 16t19 3h153q14 0 15.5 -12.5t-8.5 -19.5l-158 -111q-10 -7 -20 -12t-26 -5h-106q-13 0 -15.5 9.5t5.5 16.5z" />
    <glyph glyph-name="Breve" horiz-adv-x="372" 
d="M181 745q-42 0 -72.5 13.5t-49 35t-25 47.5t-1.5 50q2 8 8 13.5t15 5.5h84q9 0 13 -5.5t2 -13.5q-4 -19 4.5 -34.5t31.5 -15.5t38.5 15.5t19.5 34.5q2 8 8 13.5t15 5.5h84q9 0 13 -5.5t2 -13.5q-5 -24 -17 -50t-33.5 -47.5t-55.5 -35t-84 -13.5z" />
    <glyph glyph-name="Caron" unicode="&#xf6ca;" horiz-adv-x="417" 
d="M144 750q-11 0 -18 4t-15 15l-78 112q-6 10 0 19.5t17 9.5h55q10 0 15.5 -3t13.5 -8l70 -43l87 43q10 5 17 8t17 3h78q13 0 14 -10t-6 -16l-129 -115q-12 -11 -21 -15t-20 -4h-97z" />
    <glyph glyph-name="Cedilla" horiz-adv-x="254" 
d="M181 27l-56 -81q7 4 17.5 7t21.5 3q31 0 48 -27.5t9 -63.5t-31 -60.5t-76 -24.5q-16 0 -34 5t-30.5 13t-17.5 16.5t6 16.5l21 16q10 7 15 7t10.5 -3t12.5 -6.5t20 -3.5q14 0 24.5 6t13.5 21q3 14 -4.5 20.5t-22.5 6.5q-7 0 -15 -2t-15.5 -3.5t-13.5 -1t-10 5.5l-14 21
q-4 8 -5.5 15t6.5 18l55 79h65z" />
    <glyph glyph-name="Circumflex" horiz-adv-x="417" 
d="M303 910q11 0 18 -4t15 -15l78 -112q6 -10 0 -19.5t-17 -9.5h-56q-10 0 -15.5 3t-13.5 8l-70 43l-87 -43q-10 -5 -17 -8t-17 -3h-77q-13 0 -14 10t6 16l129 115q12 11 21 15t20 4h97z" />
    <glyph glyph-name="commaaccent.cap" horiz-adv-x="277" 
d="M84 -89q5 14 18 26.5t33 12.5h123q13 0 16.5 -10t-1.5 -19l-85 -139q-6 -10 -18 -21t-32 -11h-89q-12 0 -16.5 7.5t-0.5 16.5z" />
    <glyph glyph-name="Dieresis" unicode="&#xf6cb;" horiz-adv-x="463" 
d="M186 777q-2 -11 -12 -19t-21 -8h-101q-11 0 -17.5 8t-3.5 19l21 101q2 11 12 19t21 8h101q11 0 17 -8t4 -19zM441 777q-2 -11 -12 -19t-21 -8h-101q-11 0 -17.5 8t-3.5 19l21 101q2 11 12 19t21 8h101q11 0 17 -8t4 -19z" />
    <glyph glyph-name="Dotaccent" horiz-adv-x="220" 
d="M196 777q-2 -11 -12 -19t-21 -8h-111q-11 0 -17 8t-4 19l23 111q2 11 12 19t21 8h111q11 0 17 -8t4 -19z" />
    <glyph glyph-name="Hungarumlaut" unicode="&#xf6cf;" horiz-adv-x="545" 
d="M114 891q7 10 16 14.5t25 4.5h132q15 0 16 -12t-9 -20l-129 -114q-16 -14 -37 -14h-83q-11 0 -13.5 6.5t2.5 14.5zM355 891q7 10 16 14.5t25 4.5h132q15 0 16 -12t-9 -20l-129 -114q-16 -14 -34 -14h-86q-11 0 -13.5 6.5t2.5 14.5z" />
    <glyph glyph-name="Grave" unicode="&#xf6ce;" horiz-adv-x="300" 
d="M297 779q6 -10 0 -19.5t-17 -9.5h-98q-16 0 -23.5 5t-14.5 12l-109 108q-9 9 -2.5 22t18.5 13h145q11 0 18 -3t15 -16z" />
    <glyph glyph-name="Macron" unicode="&#xf6d0;" horiz-adv-x="423" 
d="M52 750q-11 0 -17.5 8t-3.5 19l18 86q2 11 12 19t21 8h319q11 0 17 -8t4 -19l-18 -86q-2 -11 -12 -19t-21 -8h-319z" />
    <glyph glyph-name="Ogonek" horiz-adv-x="269" 
d="M162 -220q-30 0 -56.5 13t-44.5 36t-25.5 53.5t0.5 66.5q7 36 21.5 65t38 50t57 32.5t78.5 11.5h19q10 0 15 -6t3 -16l-14 -64q-5 -22 -26 -22h-15q-26 0 -43.5 -16.5t-22.5 -39.5t5.5 -39.5t36.5 -16.5h15q22 0 17 -22l-14 -64q-2 -10 -9 -16t-17 -6h-19z" />
    <glyph glyph-name="Ring" horiz-adv-x="222" 
d="M96 830q-3 -13 4 -21.5t20 -8.5t23 8.5t13 21.5t-4 21.5t-20 8.5t-23 -8.5t-13 -21.5zM32 832q8 39 38.5 63.5t69.5 24.5q19 0 35.5 -7t28 -19.5t16 -29.5t0.5 -36q-8 -39 -38.5 -63.5t-69.5 -24.5q-20 0 -36 7t-27.5 19.5t-16 29t-0.5 36.5z" />
    <glyph glyph-name="Tilde" horiz-adv-x="454" 
d="M312 745q-31 0 -49.5 7t-31.5 15.5t-24.5 15.5t-27.5 7q-12 0 -19.5 -6.5t-13 -14t-11 -13.5t-13.5 -6h-76q-9 0 -13 5.5t-2 13.5q5 22 16.5 46.5t29.5 44t42 32.5t53 13q31 0 49.5 -7t31.5 -15.5t24 -15.5t27 -7q12 0 19.5 6t13.5 13.5t11.5 14t13.5 6.5h76q9 0 13 -5.5
t2 -13.5q-5 -23 -18 -47t-32 -43.5t-42.5 -32.5t-48.5 -13z" />
    <glyph glyph-name="A" unicode="A" horiz-adv-x="724" 
d="M533 700q20 0 28 -11t10 -22l84 -630q5 -37 -25 -37h-121q-20 0 -26.5 8.5t-7.5 16.5l-11 83h-266l-45 -83q-4 -8 -14 -16.5t-30 -8.5h-140q-14 0 -17 10t6 27l352 630q6 11 19 22t33 11h171zM283 263h162l-30 240z" />
    <glyph glyph-name="Aacute" unicode="&#xc1;" horiz-adv-x="724" 
d="M533 700q20 0 28 -11t10 -22l84 -630q5 -37 -25 -37h-121q-20 0 -26.5 8.5t-7.5 16.5l-11 83h-266l-45 -83q-4 -8 -14 -16.5t-30 -8.5h-140q-14 0 -17 10t6 27l352 630q6 11 19 22t33 11h171zM283 263h162l-30 240zM508 891q14 13 22 16t19 3h153q14 0 15.5 -12.5
t-8.5 -19.5l-158 -111q-10 -7 -20 -12t-26 -5h-106q-13 0 -15.5 9.5t5.5 16.5z" />
    <glyph glyph-name="Abreve" unicode="&#x102;" horiz-adv-x="724" 
d="M533 700q20 0 28 -11t10 -22l84 -630q5 -37 -25 -37h-121q-20 0 -26.5 8.5t-7.5 16.5l-11 83h-266l-45 -83q-4 -8 -14 -16.5t-30 -8.5h-140q-14 0 -17 10t6 27l352 630q6 11 19 22t33 11h171zM283 263h162l-30 240zM458 745q-42 0 -72.5 13.5t-49 35t-25 47.5t-1.5 50
q2 8 8 13.5t15 5.5h84q9 0 13 -5.5t2 -13.5q-4 -19 4.5 -34.5t31.5 -15.5t38.5 15.5t19.5 34.5q2 8 8 13.5t15 5.5h84q9 0 13 -5.5t2 -13.5q-5 -24 -17 -50t-33.5 -47.5t-55.5 -35t-84 -13.5z" />
    <glyph glyph-name="Acircumflex" unicode="&#xc2;" horiz-adv-x="724" 
d="M533 700q20 0 28 -11t10 -22l84 -630q5 -37 -25 -37h-121q-20 0 -26.5 8.5t-7.5 16.5l-11 83h-266l-45 -83q-4 -8 -14 -16.5t-30 -8.5h-140q-14 0 -17 10t6 27l352 630q6 11 19 22t33 11h171zM283 263h162l-30 240zM527 910q11 0 18 -4t15 -15l78 -112q6 -10 0 -19.5
t-17 -9.5h-56q-10 0 -15.5 3t-13.5 8l-70 43l-87 -43q-10 -5 -17 -8t-17 -3h-77q-13 0 -14 10t6 16l129 115q12 11 21 15t20 4h97z" />
    <glyph glyph-name="Agrave" unicode="&#xc0;" horiz-adv-x="724" 
d="M533 700q20 0 28 -11t10 -22l84 -630q5 -37 -25 -37h-121q-20 0 -26.5 8.5t-7.5 16.5l-11 83h-266l-45 -83q-4 -8 -14 -16.5t-30 -8.5h-140q-14 0 -17 10t6 27l352 630q6 11 19 22t33 11h171zM283 263h162l-30 240zM532 779q6 -10 0 -19.5t-17 -9.5h-98q-16 0 -23.5 5
t-14.5 12l-109 108q-9 9 -2.5 22t18.5 13h145q11 0 18 -3t15 -16z" />
    <glyph glyph-name="Adieresis" unicode="&#xc4;" horiz-adv-x="724" 
d="M533 700q20 0 28 -11t10 -22l84 -630q5 -37 -25 -37h-121q-20 0 -26.5 8.5t-7.5 16.5l-11 83h-266l-45 -83q-4 -8 -14 -16.5t-30 -8.5h-140q-14 0 -17 10t6 27l352 630q6 11 19 22t33 11h171zM283 263h162l-30 240zM413 777q-2 -11 -12 -19t-21 -8h-101q-11 0 -17.5 8
t-3.5 19l21 101q2 11 12 19t21 8h101q11 0 17 -8t4 -19zM668 777q-2 -11 -12 -19t-21 -8h-101q-11 0 -17.5 8t-3.5 19l21 101q2 11 12 19t21 8h101q11 0 17 -8t4 -19z" />
    <glyph glyph-name="Amacron" unicode="&#x100;" horiz-adv-x="724" 
d="M533 700q20 0 28 -11t10 -22l84 -630q5 -37 -25 -37h-121q-20 0 -26.5 8.5t-7.5 16.5l-11 83h-266l-45 -83q-4 -8 -14 -16.5t-30 -8.5h-140q-14 0 -17 10t6 27l352 630q6 11 19 22t33 11h171zM283 263h162l-30 240zM295 750q-11 0 -17.5 8t-3.5 19l18 86q2 11 12 19t21 8
h319q11 0 17 -8t4 -19l-18 -86q-2 -11 -12 -19t-21 -8h-319z" />
    <glyph glyph-name="Aogonek" unicode="&#x104;" horiz-adv-x="724" 
d="M533 700q20 0 28 -11t10 -22l84 -630q5 -37 -25 -37h-28q-24 0 -40.5 -16.5t-20.5 -39.5q-5 -23 5.5 -39.5t36.5 -16.5h15q22 0 17 -22l-14 -64q-2 -10 -9 -16t-17 -6h-19q-30 0 -56.5 13t-44.5 36t-25.5 53.5t0.5 66.5q6 29 16 52.5t26 43.5l-8 63h-266l-45 -83
q-4 -8 -14 -16.5t-30 -8.5h-140q-14 0 -17 10t6 27l352 630q6 11 19 22t33 11h171zM283 263h162l-30 240z" />
    <glyph glyph-name="Aring" unicode="&#xc5;" horiz-adv-x="724" 
d="M533 700q20 0 28 -11t10 -22l84 -630q5 -37 -25 -37h-121q-20 0 -26.5 8.5t-7.5 16.5l-11 83h-266l-45 -83q-4 -8 -14 -16.5t-30 -8.5h-140q-14 0 -17 10t6 27l352 630q6 11 19 22t33 11h171zM283 263h162l-30 240zM444 830q-3 -13 4 -21.5t20 -8.5t23 8.5t13 21.5
t-4 21.5t-20 8.5t-23 -8.5t-13 -21.5zM380 832q8 39 38.5 63.5t69.5 24.5q19 0 35.5 -7t28 -19.5t16 -29.5t0.5 -36q-8 -39 -38.5 -63.5t-69.5 -24.5q-20 0 -36 7t-27.5 19.5t-16 29t-0.5 36.5z" />
    <glyph glyph-name="Atilde" unicode="&#xc3;" horiz-adv-x="724" 
d="M533 700q20 0 28 -11t10 -22l84 -630q5 -37 -25 -37h-121q-20 0 -26.5 8.5t-7.5 16.5l-11 83h-266l-45 -83q-4 -8 -14 -16.5t-30 -8.5h-140q-14 0 -17 10t6 27l352 630q6 11 19 22t33 11h171zM283 263h162l-30 240zM546 745q-31 0 -49.5 7t-31.5 15.5t-24.5 15.5t-27.5 7
q-12 0 -19.5 -6.5t-13 -14t-11 -13.5t-13.5 -6h-76q-9 0 -13 5.5t-2 13.5q5 22 16.5 46.5t29.5 44t42 32.5t53 13q31 0 49.5 -7t31.5 -15.5t24 -15.5t27 -7q12 0 19.5 6t13.5 13.5t11.5 14t13.5 6.5h76q9 0 13 -5.5t2 -13.5q-5 -23 -18 -47t-32 -43.5t-42.5 -32.5t-48.5 -13
z" />
    <glyph glyph-name="AE" unicode="&#xc6;" horiz-adv-x="1016" 
d="M1022 700q11 0 17.5 -8t4.5 -19l-23 -106q-2 -11 -12 -19t-21 -8h-308l-23 -108h286q11 0 17.5 -8t4.5 -19l-23 -106q-2 -11 -12 -19t-21 -8h-286l-23 -112h316q11 0 17 -8t4 -19l-23 -106q-2 -11 -11.5 -19t-20.5 -8h-474q-11 0 -17.5 8t-4.5 19l17 81h-209l-54 -83
q-6 -8 -16.5 -16.5t-27.5 -8.5h-128q-11 0 -17.5 8t-4.5 19q1 5 7 12l414 628q8 11 20 22t32 11h603zM296 263h140l59 277h-17z" />
    <glyph glyph-name="AEacute" unicode="&#x1fc;" horiz-adv-x="1016" 
d="M681 891q14 13 22 16t19 3h153q14 0 15.5 -12.5t-8.5 -19.5l-158 -111q-10 -7 -20 -12t-26 -5h-106q-13 0 -15.5 9.5t5.5 16.5zM1022 700q11 0 17.5 -8t4.5 -19l-23 -106q-2 -11 -12 -19t-21 -8h-308l-23 -108h286q11 0 17.5 -8t4.5 -19l-23 -106q-2 -11 -12 -19t-21 -8
h-286l-23 -112h316q11 0 17 -8t4 -19l-23 -106q-2 -11 -11.5 -19t-20.5 -8h-474q-11 0 -17.5 8t-4.5 19l17 81h-209l-54 -83q-6 -8 -16.5 -16.5t-27.5 -8.5h-128q-11 0 -17.5 8t-4.5 19q1 5 7 12l414 628q8 11 20 22t32 11h603zM296 263h140l59 277h-17z" />
    <glyph glyph-name="B" unicode="B" horiz-adv-x="714" 
d="M34 0q-11 0 -17.5 8t-4.5 19l138 646q2 11 11.5 19t20.5 8h312q60 0 102 -20t67 -51.5t33 -70.5t0 -76q-6 -29 -17 -50.5t-23 -37t-24 -25t-19 -14.5q33 -27 41.5 -62.5t-2.5 -85.5q-9 -41 -24.5 -78.5t-45 -66t-76.5 -45.5t-119 -17h-353zM511 488q6 26 -6.5 41.5
t-42.5 15.5h-155l-24 -114h155q30 0 49 15.5t24 41.5zM224 155h165q30 0 52 17.5t27 43.5q6 26 -8.5 43.5t-44.5 17.5h-165z" />
    <glyph glyph-name="C" unicode="C" horiz-adv-x="703" 
d="M262 434q-4 -13 -9.5 -36t-11 -47.5t-9.5 -48t-6 -36.5q-3 -23 -0.5 -44t14 -37t32.5 -25.5t55 -9.5t57.5 8t40 19.5t27 25.5t17.5 26q9 16 16 22.5t24 6.5h131q9 0 14.5 -6.5t3.5 -15.5q-12 -51 -41.5 -96t-74.5 -78t-105.5 -52.5t-133.5 -19.5q-65 0 -117.5 21.5
t-87.5 58.5t-51 86.5t-7 104.5q6 41 16.5 88t21.5 90q14 55 42 104.5t71.5 86.5t104 58.5t140.5 21.5q58 0 111.5 -19.5t92 -52.5t57.5 -78t9 -96q-2 -9 -10 -15.5t-17 -6.5h-131q-17 0 -21 6.5t-6 22.5q-2 12 -6.5 26t-16 25.5t-32 19.5t-54.5 8t-59 -9.5t-43 -25.5
t-29.5 -37t-18.5 -44z" />
    <glyph glyph-name="Cacute" unicode="&#x106;" horiz-adv-x="703" 
d="M262 434q-4 -13 -9.5 -36t-11 -47.5t-9.5 -48t-6 -36.5q-3 -23 -0.5 -44t14 -37t32.5 -25.5t55 -9.5t57.5 8t40 19.5t27 25.5t17.5 26q9 16 16 22.5t24 6.5h131q9 0 14.5 -6.5t3.5 -15.5q-12 -51 -41.5 -96t-74.5 -78t-105.5 -52.5t-133.5 -19.5q-65 0 -117.5 21.5
t-87.5 58.5t-51 86.5t-7 104.5q6 41 16.5 88t21.5 90q14 55 42 104.5t71.5 86.5t104 58.5t140.5 21.5q58 0 111.5 -19.5t92 -52.5t57.5 -78t9 -96q-2 -9 -10 -15.5t-17 -6.5h-131q-17 0 -21 6.5t-6 22.5q-2 12 -6.5 26t-16 25.5t-32 19.5t-54.5 8t-59 -9.5t-43 -25.5
t-29.5 -37t-18.5 -44zM499 891q14 13 22 16t19 3h153q14 0 15.5 -12.5t-8.5 -19.5l-158 -111q-10 -7 -20 -12t-26 -5h-106q-13 0 -15.5 9.5t5.5 16.5z" />
    <glyph glyph-name="Ccaron" unicode="&#x10c;" horiz-adv-x="703" 
d="M262 434q-4 -13 -9.5 -36t-11 -47.5t-9.5 -48t-6 -36.5q-3 -23 -0.5 -44t14 -37t32.5 -25.5t55 -9.5t57.5 8t40 19.5t27 25.5t17.5 26q9 16 16 22.5t24 6.5h131q9 0 14.5 -6.5t3.5 -15.5q-12 -51 -41.5 -96t-74.5 -78t-105.5 -52.5t-133.5 -19.5q-65 0 -117.5 21.5
t-87.5 58.5t-51 86.5t-7 104.5q6 41 16.5 88t21.5 90q14 55 42 104.5t71.5 86.5t104 58.5t140.5 21.5q58 0 111.5 -19.5t92 -52.5t57.5 -78t9 -96q-2 -9 -10 -15.5t-17 -6.5h-131q-17 0 -21 6.5t-6 22.5q-2 12 -6.5 26t-16 25.5t-32 19.5t-54.5 8t-59 -9.5t-43 -25.5
t-29.5 -37t-18.5 -44zM403 750q-11 0 -18 4t-15 15l-78 112q-6 10 0 19.5t17 9.5h55q10 0 15.5 -3t13.5 -8l70 -43l87 43q10 5 17 8t17 3h78q13 0 14 -10t-6 -16l-129 -115q-12 -11 -21 -15t-20 -4h-97z" />
    <glyph glyph-name="Ccedilla" unicode="&#xc7;" horiz-adv-x="703" 
d="M262 434q-4 -13 -9.5 -36t-11 -47.5t-9.5 -48t-6 -36.5q-3 -23 -0.5 -44t14 -37t32.5 -25.5t55 -9.5t57.5 8t40 19.5t27 25.5t17.5 26q9 16 16 22.5t24 6.5h131q9 0 14.5 -6.5t3.5 -15.5q-12 -51 -41.5 -96t-74.5 -78t-105.5 -52.5t-133.5 -19.5h-2l-30 -44q7 4 17.5 7
t21.5 3q31 0 48 -27.5t9 -63.5t-31 -60.5t-76 -24.5q-16 0 -34 5t-30.5 13t-17.5 16.5t6 16.5l21 16q10 7 15 7t10.5 -3t12.5 -6.5t20 -3.5q14 0 24.5 6t13.5 21q3 14 -4.5 20.5t-22.5 6.5q-7 0 -15 -2t-15.5 -3.5t-13.5 -1t-10 5.5l-14 21q-4 8 -5.5 15t6.5 18l33 48
q-51 10 -91.5 34.5t-67.5 59.5t-38 79t-3 92q6 41 16.5 88t21.5 90q14 55 42 104.5t71.5 86.5t104 58.5t140.5 21.5q58 0 111.5 -19.5t92 -52.5t57.5 -78t9 -96q-2 -9 -10 -15.5t-17 -6.5h-131q-17 0 -21 6.5t-6 22.5q-2 12 -6.5 26t-16 25.5t-32 19.5t-54.5 8t-59 -9.5
t-43 -25.5t-29.5 -37t-18.5 -44z" />
    <glyph glyph-name="Ccircumflex" unicode="&#x108;" horiz-adv-x="703" 
d="M262 434q-4 -13 -9.5 -36t-11 -47.5t-9.5 -48t-6 -36.5q-3 -23 -0.5 -44t14 -37t32.5 -25.5t55 -9.5t57.5 8t40 19.5t27 25.5t17.5 26q9 16 16 22.5t24 6.5h131q9 0 14.5 -6.5t3.5 -15.5q-12 -51 -41.5 -96t-74.5 -78t-105.5 -52.5t-133.5 -19.5q-65 0 -117.5 21.5
t-87.5 58.5t-51 86.5t-7 104.5q6 41 16.5 88t21.5 90q14 55 42 104.5t71.5 86.5t104 58.5t140.5 21.5q58 0 111.5 -19.5t92 -52.5t57.5 -78t9 -96q-2 -9 -10 -15.5t-17 -6.5h-131q-17 0 -21 6.5t-6 22.5q-2 12 -6.5 26t-16 25.5t-32 19.5t-54.5 8t-59 -9.5t-43 -25.5
t-29.5 -37t-18.5 -44zM520 910q11 0 18 -4t15 -15l78 -112q6 -10 0 -19.5t-17 -9.5h-56q-10 0 -15.5 3t-13.5 8l-70 43l-87 -43q-10 -5 -17 -8t-17 -3h-77q-13 0 -14 10t6 16l129 115q12 11 21 15t20 4h97z" />
    <glyph glyph-name="Cdotaccent" unicode="&#x10a;" horiz-adv-x="703" 
d="M262 434q-4 -13 -9.5 -36t-11 -47.5t-9.5 -48t-6 -36.5q-3 -23 -0.5 -44t14 -37t32.5 -25.5t55 -9.5t57.5 8t40 19.5t27 25.5t17.5 26q9 16 16 22.5t24 6.5h131q9 0 14.5 -6.5t3.5 -15.5q-12 -51 -41.5 -96t-74.5 -78t-105.5 -52.5t-133.5 -19.5q-65 0 -117.5 21.5
t-87.5 58.5t-51 86.5t-7 104.5q6 41 16.5 88t21.5 90q14 55 42 104.5t71.5 86.5t104 58.5t140.5 21.5q58 0 111.5 -19.5t92 -52.5t57.5 -78t9 -96q-2 -9 -10 -15.5t-17 -6.5h-131q-17 0 -21 6.5t-6 22.5q-2 12 -6.5 26t-16 25.5t-32 19.5t-54.5 8t-59 -9.5t-43 -25.5
t-29.5 -37t-18.5 -44zM532 777q-2 -11 -12 -19t-21 -8h-111q-11 0 -17 8t-4 19l23 111q2 11 12 19t21 8h111q11 0 17 -8t4 -19z" />
    <glyph glyph-name="D" unicode="D" horiz-adv-x="725" 
d="M437 700q61 0 114.5 -22t90.5 -61t54 -92t7 -114q-4 -21 -7 -38.5t-6.5 -33.5t-7.5 -33t-9 -37q-16 -62 -44 -111.5t-71 -84.5t-103.5 -54t-140.5 -19h-280q-11 0 -17.5 8t-4.5 19l138 646q2 11 11.5 19t20.5 8h255zM520 425q18 115 -112 115h-102l-80 -380h107
q126 0 155 115q10 43 17 76t15 74z" />
    <glyph glyph-name="Dcaron" unicode="&#x10e;" horiz-adv-x="725" 
d="M437 700q61 0 114.5 -22t90.5 -61t54 -92t7 -114q-4 -21 -7 -38.5t-6.5 -33.5t-7.5 -33t-9 -37q-16 -62 -44 -111.5t-71 -84.5t-103.5 -54t-140.5 -19h-280q-11 0 -17.5 8t-4.5 19l138 646q2 11 11.5 19t20.5 8h255zM520 425q18 115 -112 115h-102l-80 -380h107
q126 0 155 115q10 43 17 76t15 74zM363 750q-11 0 -18 4t-15 15l-78 112q-6 10 0 19.5t17 9.5h55q10 0 15.5 -3t13.5 -8l70 -43l87 43q10 5 17 8t17 3h78q13 0 14 -10t-6 -16l-129 -115q-12 -11 -21 -15t-20 -4h-97z" />
    <glyph glyph-name="Dcroat" unicode="&#x110;" horiz-adv-x="755" 
d="M467 700q61 0 114.5 -22t90.5 -61t54 -92t7 -114q-4 -21 -7 -38.5t-6.5 -33.5t-7.5 -33t-9 -37q-16 -62 -44 -111.5t-71 -84.5t-103.5 -54t-140.5 -19h-280q-11 0 -17.5 8t-4.5 19l55 257h-53q-11 0 -17.5 8t-3.5 19l18 86q2 11 12 19t21 8h53l53 249q2 11 11.5 19
t20.5 8h255zM550 425q18 115 -112 115h-102l-25 -116h76q11 0 17 -8t4 -19l-18 -86q-3 -11 -12.5 -19t-20.5 -8h-75l-26 -124h107q126 0 155 115q10 43 17 76t15 74z" />
    <glyph glyph-name="E" unicode="E" horiz-adv-x="642" 
d="M542 160q11 0 17 -8t4 -19l-23 -106q-2 -11 -11.5 -19t-20.5 -8h-474q-11 0 -17.5 8t-4.5 19l138 646q2 11 11.5 19t20.5 8h466q11 0 17.5 -8t4.5 -19l-23 -106q-2 -11 -12 -19t-21 -8h-308l-23 -108h286q11 0 17.5 -8t4.5 -19l-23 -106q-2 -11 -12 -19t-21 -8h-286
l-23 -112h316z" />
    <glyph glyph-name="Eacute" unicode="&#xc9;" horiz-adv-x="642" 
d="M542 160q11 0 17 -8t4 -19l-23 -106q-2 -11 -11.5 -19t-20.5 -8h-474q-11 0 -17.5 8t-4.5 19l138 646q2 11 11.5 19t20.5 8h466q11 0 17.5 -8t4.5 -19l-23 -106q-2 -11 -12 -19t-21 -8h-308l-23 -108h286q11 0 17.5 -8t4.5 -19l-23 -106q-2 -11 -12 -19t-21 -8h-286
l-23 -112h316zM465 891q14 13 22 16t19 3h153q14 0 15.5 -12.5t-8.5 -19.5l-158 -111q-10 -7 -20 -12t-26 -5h-106q-13 0 -15.5 9.5t5.5 16.5z" />
    <glyph glyph-name="Ebreve" unicode="&#x114;" horiz-adv-x="642" 
d="M542 160q11 0 17 -8t4 -19l-23 -106q-2 -11 -11.5 -19t-20.5 -8h-474q-11 0 -17.5 8t-4.5 19l138 646q2 11 11.5 19t20.5 8h466q11 0 17.5 -8t4.5 -19l-23 -106q-2 -11 -12 -19t-21 -8h-308l-23 -108h286q11 0 17.5 -8t4.5 -19l-23 -106q-2 -11 -12 -19t-21 -8h-286
l-23 -112h316zM418 745q-42 0 -72.5 13.5t-49 35t-25 47.5t-1.5 50q2 8 8 13.5t15 5.5h84q9 0 13 -5.5t2 -13.5q-4 -19 4.5 -34.5t31.5 -15.5t38.5 15.5t19.5 34.5q2 8 8 13.5t15 5.5h84q9 0 13 -5.5t2 -13.5q-5 -24 -17 -50t-33.5 -47.5t-55.5 -35t-84 -13.5z" />
    <glyph glyph-name="Ecaron" unicode="&#x11a;" horiz-adv-x="642" 
d="M542 160q11 0 17 -8t4 -19l-23 -106q-2 -11 -11.5 -19t-20.5 -8h-474q-11 0 -17.5 8t-4.5 19l138 646q2 11 11.5 19t20.5 8h466q11 0 17.5 -8t4.5 -19l-23 -106q-2 -11 -12 -19t-21 -8h-308l-23 -108h286q11 0 17.5 -8t4.5 -19l-23 -106q-2 -11 -12 -19t-21 -8h-286
l-23 -112h316zM377 750q-11 0 -18 4t-15 15l-78 112q-6 10 0 19.5t17 9.5h55q10 0 15.5 -3t13.5 -8l70 -43l87 43q10 5 17 8t17 3h78q13 0 14 -10t-6 -16l-129 -115q-12 -11 -21 -15t-20 -4h-97z" />
    <glyph glyph-name="Ecircumflex" unicode="&#xca;" horiz-adv-x="642" 
d="M542 160q11 0 17 -8t4 -19l-23 -106q-2 -11 -11.5 -19t-20.5 -8h-474q-11 0 -17.5 8t-4.5 19l138 646q2 11 11.5 19t20.5 8h466q11 0 17.5 -8t4.5 -19l-23 -106q-2 -11 -12 -19t-21 -8h-308l-23 -108h286q11 0 17.5 -8t4.5 -19l-23 -106q-2 -11 -12 -19t-21 -8h-286
l-23 -112h316zM494 910q11 0 18 -4t15 -15l78 -112q6 -10 0 -19.5t-17 -9.5h-56q-10 0 -15.5 3t-13.5 8l-70 43l-87 -43q-10 -5 -17 -8t-17 -3h-77q-13 0 -14 10t6 16l129 115q12 11 21 15t20 4h97z" />
    <glyph glyph-name="Edieresis" unicode="&#xcb;" horiz-adv-x="642" 
d="M542 160q11 0 17 -8t4 -19l-23 -106q-2 -11 -11.5 -19t-20.5 -8h-474q-11 0 -17.5 8t-4.5 19l138 646q2 11 11.5 19t20.5 8h466q11 0 17.5 -8t4.5 -19l-23 -106q-2 -11 -12 -19t-21 -8h-308l-23 -108h286q11 0 17.5 -8t4.5 -19l-23 -106q-2 -11 -12 -19t-21 -8h-286
l-23 -112h316zM383 777q-2 -11 -12 -19t-21 -8h-101q-11 0 -17.5 8t-3.5 19l21 101q2 11 12 19t21 8h101q11 0 17 -8t4 -19zM638 777q-2 -11 -12 -19t-21 -8h-101q-11 0 -17.5 8t-3.5 19l21 101q2 11 12 19t21 8h101q11 0 17 -8t4 -19z" />
    <glyph glyph-name="Edotaccent" unicode="&#x116;" horiz-adv-x="642" 
d="M542 160q11 0 17 -8t4 -19l-23 -106q-2 -11 -11.5 -19t-20.5 -8h-474q-11 0 -17.5 8t-4.5 19l138 646q2 11 11.5 19t20.5 8h466q11 0 17.5 -8t4.5 -19l-23 -106q-2 -11 -12 -19t-21 -8h-308l-23 -108h286q11 0 17.5 -8t4.5 -19l-23 -106q-2 -11 -12 -19t-21 -8h-286
l-23 -112h316zM516 777q-2 -11 -12 -19t-21 -8h-111q-11 0 -17 8t-4 19l23 111q2 11 12 19t21 8h111q11 0 17 -8t4 -19z" />
    <glyph glyph-name="Egrave" unicode="&#xc8;" horiz-adv-x="642" 
d="M542 160q11 0 17 -8t4 -19l-23 -106q-2 -11 -11.5 -19t-20.5 -8h-474q-11 0 -17.5 8t-4.5 19l138 646q2 11 11.5 19t20.5 8h466q11 0 17.5 -8t4.5 -19l-23 -106q-2 -11 -12 -19t-21 -8h-308l-23 -108h286q11 0 17.5 -8t4.5 -19l-23 -106q-2 -11 -12 -19t-21 -8h-286
l-23 -112h316zM507 779q6 -10 0 -19.5t-17 -9.5h-98q-16 0 -23.5 5t-14.5 12l-109 108q-9 9 -2.5 22t18.5 13h145q11 0 18 -3t15 -16z" />
    <glyph glyph-name="Emacron" unicode="&#x112;" horiz-adv-x="642" 
d="M542 160q11 0 17 -8t4 -19l-23 -106q-2 -11 -11.5 -19t-20.5 -8h-474q-11 0 -17.5 8t-4.5 19l138 646q2 11 11.5 19t20.5 8h466q11 0 17.5 -8t4.5 -19l-23 -106q-2 -11 -12 -19t-21 -8h-308l-23 -108h286q11 0 17.5 -8t4.5 -19l-23 -106q-2 -11 -12 -19t-21 -8h-286
l-23 -112h316zM267 750q-11 0 -17.5 8t-3.5 19l18 86q2 11 12 19t21 8h319q11 0 17 -8t4 -19l-18 -86q-2 -11 -12 -19t-21 -8h-319z" />
    <glyph glyph-name="Eogonek" unicode="&#x118;" horiz-adv-x="642" 
d="M446 -220q-30 0 -56.5 13t-44.5 36t-25.5 53.5t0.5 66.5q3 14 6.5 27t8.5 24h-301q-11 0 -17.5 8t-4.5 19l138 646q2 11 11.5 19t20.5 8h466q11 0 17.5 -8t4.5 -19l-23 -106q-2 -11 -12 -19t-21 -8h-308l-23 -108h286q11 0 17.5 -8t4.5 -19l-23 -106q-2 -11 -12 -19
t-21 -8h-286l-23 -112h316q11 0 17 -8t4 -19l-23 -106q-2 -11 -11.5 -19t-20.5 -8h-16q-24 0 -40.5 -16.5t-20.5 -39.5q-5 -23 5.5 -39.5t36.5 -16.5h15q22 0 17 -22l-14 -64q-2 -10 -9 -16t-17 -6h-19z" />
    <glyph glyph-name="F" unicode="F" horiz-adv-x="618" 
d="M639 700q11 0 17.5 -8t4.5 -19l-23 -106q-2 -11 -12 -19t-21 -8h-299l-29 -137h279q11 0 17.5 -8t3.5 -19l-22 -106q-2 -11 -12 -19t-21 -8h-279l-46 -216q-2 -11 -11.5 -19t-20.5 -8h-131q-11 0 -17.5 8t-4.5 19l138 646q2 11 11.5 19t20.5 8h457z" />
    <glyph glyph-name="G" unicode="G" horiz-adv-x="713" 
d="M413 550q-34 0 -58.5 -9.5t-42.5 -25.5t-30 -37t-19 -44q-5 -13 -10 -36t-10.5 -47.5t-9.5 -48t-6 -36.5q-3 -23 0 -44t14 -37t32.5 -25.5t54.5 -9.5q53 0 95 25t55 85h-84q-11 0 -17.5 8t-3.5 19l22 106q2 11 12 19t21 8h242q11 0 17 -8t4 -19l-27 -128
q-28 -129 -120.5 -202t-239.5 -73q-65 0 -117 23t-87.5 62t-51 90t-6.5 106q6 41 16.5 88t21.5 90q14 55 41.5 102.5t71 83t104 55.5t140.5 20q63 0 115 -20.5t88.5 -52t54.5 -69t13 -71.5q-1 -9 -9.5 -15.5t-17.5 -6.5h-133q-15 0 -21.5 9t-12.5 18q-5 9 -12.5 17.5
t-19 15.5t-28.5 11t-41 4z" />
    <glyph glyph-name="Gbreve" unicode="&#x11e;" horiz-adv-x="713" 
d="M413 550q-34 0 -58.5 -9.5t-42.5 -25.5t-30 -37t-19 -44q-5 -13 -10 -36t-10.5 -47.5t-9.5 -48t-6 -36.5q-3 -23 0 -44t14 -37t32.5 -25.5t54.5 -9.5q53 0 95 25t55 85h-84q-11 0 -17.5 8t-3.5 19l22 106q2 11 12 19t21 8h242q11 0 17 -8t4 -19l-27 -128
q-28 -129 -120.5 -202t-239.5 -73q-65 0 -117 23t-87.5 62t-51 90t-6.5 106q6 41 16.5 88t21.5 90q14 55 41.5 102.5t71 83t104 55.5t140.5 20q63 0 115 -20.5t88.5 -52t54.5 -69t13 -71.5q-1 -9 -9.5 -15.5t-17.5 -6.5h-133q-15 0 -21.5 9t-12.5 18q-5 9 -12.5 17.5
t-19 15.5t-28.5 11t-41 4zM452 745q-42 0 -72.5 13.5t-49 35t-25 47.5t-1.5 50q2 8 8 13.5t15 5.5h84q9 0 13 -5.5t2 -13.5q-4 -19 4.5 -34.5t31.5 -15.5t38.5 15.5t19.5 34.5q2 8 8 13.5t15 5.5h84q9 0 13 -5.5t2 -13.5q-5 -24 -17 -50t-33.5 -47.5t-55.5 -35t-84 -13.5z
" />
    <glyph glyph-name="Gcircumflex" unicode="&#x11c;" horiz-adv-x="713" 
d="M413 550q-34 0 -58.5 -9.5t-42.5 -25.5t-30 -37t-19 -44q-5 -13 -10 -36t-10.5 -47.5t-9.5 -48t-6 -36.5q-3 -23 0 -44t14 -37t32.5 -25.5t54.5 -9.5q53 0 95 25t55 85h-84q-11 0 -17.5 8t-3.5 19l22 106q2 11 12 19t21 8h242q11 0 17 -8t4 -19l-27 -128
q-28 -129 -120.5 -202t-239.5 -73q-65 0 -117 23t-87.5 62t-51 90t-6.5 106q6 41 16.5 88t21.5 90q14 55 41.5 102.5t71 83t104 55.5t140.5 20q63 0 115 -20.5t88.5 -52t54.5 -69t13 -71.5q-1 -9 -9.5 -15.5t-17.5 -6.5h-133q-15 0 -21.5 9t-12.5 18q-5 9 -12.5 17.5
t-19 15.5t-28.5 11t-41 4zM516 910q11 0 18 -4t15 -15l78 -112q6 -10 0 -19.5t-17 -9.5h-56q-10 0 -15.5 3t-13.5 8l-70 43l-87 -43q-10 -5 -17 -8t-17 -3h-77q-13 0 -14 10t6 16l129 115q12 11 21 15t20 4h97z" />
    <glyph glyph-name="Gcommaaccent" unicode="&#x122;" horiz-adv-x="713" 
d="M413 550q-34 0 -58.5 -9.5t-42.5 -25.5t-30 -37t-19 -44q-5 -13 -10 -36t-10.5 -47.5t-9.5 -48t-6 -36.5q-3 -23 0 -44t14 -37t32.5 -25.5t54.5 -9.5q53 0 95 25t55 85h-84q-11 0 -17.5 8t-3.5 19l22 106q2 11 12 19t21 8h242q11 0 17 -8t4 -19l-27 -128
q-28 -129 -120.5 -202t-239.5 -73q-65 0 -117 23t-87.5 62t-51 90t-6.5 106q6 41 16.5 88t21.5 90q14 55 41.5 102.5t71 83t104 55.5t140.5 20q63 0 115 -20.5t88.5 -52t54.5 -69t13 -71.5q-1 -9 -9.5 -15.5t-17.5 -6.5h-133q-15 0 -21.5 9t-12.5 18q-5 9 -12.5 17.5
t-19 15.5t-28.5 11t-41 4zM184 -89q5 14 18 26.5t33 12.5h123q13 0 16.5 -10t-1.5 -19l-85 -139q-6 -10 -18 -21t-32 -11h-89q-12 0 -16.5 7.5t-0.5 16.5z" />
    <glyph glyph-name="Gdotaccent" unicode="&#x120;" horiz-adv-x="713" 
d="M413 550q-34 0 -58.5 -9.5t-42.5 -25.5t-30 -37t-19 -44q-5 -13 -10 -36t-10.5 -47.5t-9.5 -48t-6 -36.5q-3 -23 0 -44t14 -37t32.5 -25.5t54.5 -9.5q53 0 95 25t55 85h-84q-11 0 -17.5 8t-3.5 19l22 106q2 11 12 19t21 8h242q11 0 17 -8t4 -19l-27 -128
q-28 -129 -120.5 -202t-239.5 -73q-65 0 -117 23t-87.5 62t-51 90t-6.5 106q6 41 16.5 88t21.5 90q14 55 41.5 102.5t71 83t104 55.5t140.5 20q63 0 115 -20.5t88.5 -52t54.5 -69t13 -71.5q-1 -9 -9.5 -15.5t-17.5 -6.5h-133q-15 0 -21.5 9t-12.5 18q-5 9 -12.5 17.5
t-19 15.5t-28.5 11t-41 4zM538 777q-2 -11 -12 -19t-21 -8h-111q-11 0 -17 8t-4 19l23 111q2 11 12 19t21 8h111q11 0 17 -8t4 -19z" />
    <glyph glyph-name="H" unicode="H" horiz-adv-x="732" 
d="M720 700q11 0 17.5 -8t4.5 -19l-138 -646q-2 -11 -11.5 -19t-20.5 -8h-131q-11 0 -17.5 8t-4.5 19l52 245h-222l-52 -245q-2 -11 -11.5 -19t-20.5 -8h-131q-11 0 -17.5 7.5t-4.5 19.5l138 646q2 11 11.5 19t20.5 8h131q11 0 17.5 -8t4.5 -19l-52 -241h222l52 241
q2 11 11.5 19t20.5 8h131z" />
    <glyph glyph-name="Hbar" unicode="&#x126;" horiz-adv-x="732" 
d="M720 700q11 0 17.5 -8t4.5 -19l-138 -646q-2 -11 -11.5 -19t-20.5 -8h-131q-11 0 -17.5 8t-4.5 19l52 245h-222l-52 -245q-2 -11 -11.5 -19t-20.5 -8h-131q-11 0 -17.5 7.5t-4.5 19.5l138 646q2 11 11.5 19t20.5 8h131q11 0 17.5 -8t4.5 -19l-9 -39h222l9 39
q2 11 11.5 19t20.5 8h131zM505 432l15 67h-222l-15 -67h222z" />
    <glyph glyph-name="Hcircumflex" unicode="&#x124;" horiz-adv-x="732" 
d="M720 700q11 0 17.5 -8t4.5 -19l-138 -646q-2 -11 -11.5 -19t-20.5 -8h-131q-11 0 -17.5 8t-4.5 19l52 245h-222l-52 -245q-2 -11 -11.5 -19t-20.5 -8h-131q-11 0 -17.5 7.5t-4.5 19.5l138 646q2 11 11.5 19t20.5 8h131q11 0 17.5 -8t4.5 -19l-52 -241h222l52 241
q2 11 11.5 19t20.5 8h131zM528 910q11 0 18 -4t15 -15l78 -112q6 -10 0 -19.5t-17 -9.5h-56q-10 0 -15.5 3t-13.5 8l-70 43l-87 -43q-10 -5 -17 -8t-17 -3h-77q-13 0 -14 10t6 16l129 115q12 11 21 15t20 4h97z" />
    <glyph glyph-name="I" unicode="I" horiz-adv-x="325" 
d="M34 0q-11 0 -17.5 8t-4.5 19l138 646q2 11 11.5 19t20.5 8h131q11 0 17.5 -8t4.5 -19l-138 -646q-2 -11 -11.5 -19t-20.5 -8h-131z" />
    <glyph glyph-name="Iacute" unicode="&#xcd;" horiz-adv-x="325" 
d="M34 0q-11 0 -17.5 8t-4.5 19l138 646q2 11 11.5 19t20.5 8h131q11 0 17.5 -8t4.5 -19l-138 -646q-2 -11 -11.5 -19t-20.5 -8h-131zM308 891q14 13 22 16t19 3h153q14 0 15.5 -12.5t-8.5 -19.5l-158 -111q-10 -7 -20 -12t-26 -5h-106q-13 0 -15.5 9.5t5.5 16.5z" />
    <glyph glyph-name="Ibreve" unicode="&#x12c;" horiz-adv-x="325" 
d="M34 0q-11 0 -17.5 8t-4.5 19l138 646q2 11 11.5 19t20.5 8h131q11 0 17.5 -8t4.5 -19l-138 -646q-2 -11 -11.5 -19t-20.5 -8h-131zM266 745q-42 0 -72.5 13.5t-49 35t-25 47.5t-1.5 50q2 8 8 13.5t15 5.5h84q9 0 13 -5.5t2 -13.5q-4 -19 4.5 -34.5t31.5 -15.5t38.5 15.5
t19.5 34.5q2 8 8 13.5t15 5.5h84q9 0 13 -5.5t2 -13.5q-5 -24 -17 -50t-33.5 -47.5t-55.5 -35t-84 -13.5z" />
    <glyph glyph-name="Icircumflex" unicode="&#xce;" horiz-adv-x="325" 
d="M34 0q-11 0 -17.5 8t-4.5 19l138 646q2 11 11.5 19t20.5 8h131q11 0 17.5 -8t4.5 -19l-138 -646q-2 -11 -11.5 -19t-20.5 -8h-131zM332 910q11 0 18 -4t15 -15l78 -112q6 -10 0 -19.5t-17 -9.5h-56q-10 0 -15.5 3t-13.5 8l-70 43l-87 -43q-10 -5 -17 -8t-17 -3h-77
q-13 0 -14 10t6 16l129 115q12 11 21 15t20 4h97z" />
    <glyph glyph-name="Idieresis" unicode="&#xcf;" horiz-adv-x="325" 
d="M34 0q-11 0 -17.5 8t-4.5 19l138 646q2 11 11.5 19t20.5 8h131q11 0 17.5 -8t4.5 -19l-138 -646q-2 -11 -11.5 -19t-20.5 -8h-131zM214 777q-2 -11 -12 -19t-21 -8h-101q-11 0 -17.5 8t-3.5 19l21 101q2 11 12 19t21 8h101q11 0 17 -8t4 -19zM469 777q-2 -11 -12 -19
t-21 -8h-101q-11 0 -17.5 8t-3.5 19l21 101q2 11 12 19t21 8h101q11 0 17 -8t4 -19z" />
    <glyph glyph-name="Idotaccent" unicode="&#x130;" horiz-adv-x="325" 
d="M34 0q-11 0 -17.5 8t-4.5 19l138 646q2 11 11.5 19t20.5 8h131q11 0 17.5 -8t4.5 -19l-138 -646q-2 -11 -11.5 -19t-20.5 -8h-131zM347 777q-2 -11 -12 -19t-21 -8h-111q-11 0 -17 8t-4 19l23 111q2 11 12 19t21 8h111q11 0 17 -8t4 -19z" />
    <glyph glyph-name="Igrave" unicode="&#xcc;" horiz-adv-x="325" 
d="M34 0q-11 0 -17.5 8t-4.5 19l138 646q2 11 11.5 19t20.5 8h131q11 0 17.5 -8t4.5 -19l-138 -646q-2 -11 -11.5 -19t-20.5 -8h-131zM336 779q6 -10 0 -19.5t-17 -9.5h-98q-16 0 -23.5 5t-14.5 12l-109 108q-9 9 -2.5 22t18.5 13h145q11 0 18 -3t15 -16z" />
    <glyph glyph-name="Imacron" unicode="&#x12a;" horiz-adv-x="325" 
d="M34 0q-11 0 -17.5 8t-4.5 19l138 646q2 11 11.5 19t20.5 8h131q11 0 17.5 -8t4.5 -19l-138 -646q-2 -11 -11.5 -19t-20.5 -8h-131zM99 750q-11 0 -17.5 8t-3.5 19l18 86q2 11 12 19t21 8h319q11 0 17 -8t4 -19l-18 -86q-2 -11 -12 -19t-21 -8h-319z" />
    <glyph glyph-name="Iogonek" unicode="&#x12e;" horiz-adv-x="326" 
d="M156 0q-26 0 -43.5 -16.5t-22.5 -39.5t5.5 -39.5t36.5 -16.5h15q22 0 17 -22l-14 -64q-2 -10 -9 -16t-17 -6h-19q-30 0 -56.5 13t-44.5 36t-25.5 53.5t0.5 66.5q11 53 36 89l136 635q2 11 11.5 19t20.5 8h131q11 0 17.5 -8t4.5 -19l-138 -646q-2 -11 -11.5 -19t-20.5 -8
h-10z" />
    <glyph glyph-name="Itilde" unicode="&#x128;" horiz-adv-x="325" 
d="M34 0q-11 0 -17.5 8t-4.5 19l138 646q2 11 11.5 19t20.5 8h131q11 0 17.5 -8t4.5 -19l-138 -646q-2 -11 -11.5 -19t-20.5 -8h-131zM344 745q-31 0 -49.5 7t-31.5 15.5t-24.5 15.5t-27.5 7q-12 0 -19.5 -6.5t-13 -14t-11 -13.5t-13.5 -6h-76q-9 0 -13 5.5t-2 13.5
q5 22 16.5 46.5t29.5 44t42 32.5t53 13q31 0 49.5 -7t31.5 -15.5t24 -15.5t27 -7q12 0 19.5 6t13.5 13.5t11.5 14t13.5 6.5h76q9 0 13 -5.5t2 -13.5q-5 -23 -18 -47t-32 -43.5t-42.5 -32.5t-48.5 -13z" />
    <glyph glyph-name="J" unicode="J" horiz-adv-x="682" 
d="M609 255q-29 -133 -119 -199t-226 -66q-57 0 -108 17t-88 47.5t-54.5 74t-6.5 97.5q2 9 9.5 15.5t16.5 6.5h128q19 0 24 -6t7 -23q5 -34 26.5 -51.5t69.5 -17.5q57 0 92 28.5t46 82.5l59 279h-342q-11 0 -17 8t-4 19l23 106q2 11 11.5 19t20.5 8h499q11 0 17.5 -8
t4.5 -19z" />
    <glyph glyph-name="Jcircumflex" unicode="&#x134;" horiz-adv-x="682" 
d="M609 255q-29 -133 -119 -199t-226 -66q-57 0 -108 17t-88 47.5t-54.5 74t-6.5 97.5q2 9 9.5 15.5t16.5 6.5h128q19 0 24 -6t7 -23q5 -34 26.5 -51.5t69.5 -17.5q57 0 92 28.5t46 82.5l59 279h-342q-11 0 -17 8t-4 19l23 106q2 11 11.5 19t20.5 8h499q11 0 17.5 -8
t4.5 -19zM498 910q11 0 18 -4t15 -15l78 -112q6 -10 0 -19.5t-17 -9.5h-56q-10 0 -15.5 3t-13.5 8l-70 43l-87 -43q-10 -5 -17 -8t-17 -3h-77q-13 0 -14 10t6 16l129 115q12 11 21 15t20 4h97z" />
    <glyph glyph-name="K" unicode="K" horiz-adv-x="663" 
d="M595 35q6 -11 -3.5 -23t-21.5 -12h-144q-14 0 -22 6t-15 17l-141 244l-51 -240q-2 -11 -11.5 -19t-20.5 -8h-131q-11 0 -17.5 8t-4.5 19l138 646q2 11 11.5 19t20.5 8h131q11 0 17.5 -8t4.5 -19l-44 -206l205 211q5 6 15 14t29 8h166q13 0 17 -11.5t-4 -20.5l-312 -318z
" />
    <glyph glyph-name="Kcommaaccent" unicode="&#x136;" horiz-adv-x="663" 
d="M595 35q6 -11 -3.5 -23t-21.5 -12h-144q-14 0 -22 6t-15 17l-141 244l-51 -240q-2 -11 -11.5 -19t-20.5 -8h-131q-11 0 -17.5 8t-4.5 19l138 646q2 11 11.5 19t20.5 8h131q11 0 17.5 -8t4.5 -19l-44 -206l205 211q5 6 15 14t29 8h166q13 0 17 -11.5t-4 -20.5l-312 -318z
M179 -89q5 14 18 26.5t33 12.5h123q13 0 16.5 -10t-1.5 -19l-85 -139q-6 -10 -18 -21t-32 -11h-89q-12 0 -16.5 7.5t-0.5 16.5z" />
    <glyph glyph-name="L" unicode="L" horiz-adv-x="600" 
d="M531 160q11 0 17 -8t4 -19l-23 -106q-2 -11 -11.5 -19t-20.5 -8h-463q-11 0 -17.5 8t-4.5 19l138 646q2 11 11.5 19t20.5 8h131q11 0 17.5 -8t4.5 -19l-109 -513h305z" />
    <glyph glyph-name="Lacute" unicode="&#x139;" horiz-adv-x="600" 
d="M531 160q11 0 17 -8t4 -19l-23 -106q-2 -11 -11.5 -19t-20.5 -8h-463q-11 0 -17.5 8t-4.5 19l138 646q2 11 11.5 19t20.5 8h131q11 0 17.5 -8t4.5 -19l-109 -513h305zM310 891q14 13 22 16t19 3h153q14 0 15.5 -12.5t-8.5 -19.5l-158 -111q-10 -7 -20 -12t-26 -5h-106
q-13 0 -15.5 9.5t5.5 16.5z" />
    <glyph glyph-name="Lcaron" unicode="&#x13d;" horiz-adv-x="601" 
d="M531 160q11 0 17 -8t4 -19l-23 -106q-2 -11 -11.5 -19t-20.5 -8h-463q-11 0 -17.5 8t-4.5 19l138 646q2 11 11.5 19t20.5 8h131q11 0 17.5 -8t4.5 -19l-109 -513h305zM427 671q5 14 18 26.5t33 12.5h123q13 0 16.5 -10t-1.5 -19l-85 -139q-6 -10 -18 -21t-32 -11h-89
q-12 0 -16.5 7.5t-0.5 16.5z" />
    <glyph glyph-name="Lcommaaccent" unicode="&#x13b;" horiz-adv-x="600" 
d="M531 160q11 0 17 -8t4 -19l-23 -106q-2 -11 -11.5 -19t-20.5 -8h-463q-11 0 -17.5 8t-4.5 19l138 646q2 11 11.5 19t20.5 8h131q11 0 17.5 -8t4.5 -19l-109 -513h305zM156 -89q5 14 18 26.5t33 12.5h123q13 0 16.5 -10t-1.5 -19l-85 -139q-6 -10 -18 -21t-32 -11h-89
q-12 0 -16.5 7.5t-0.5 16.5z" />
    <glyph glyph-name="Ldot" unicode="&#x13f;" horiz-adv-x="600" 
d="M531 160q11 0 17 -8t4 -19l-23 -106q-2 -11 -11.5 -19t-20.5 -8h-463q-11 0 -17.5 8t-4.5 19l138 646q2 11 11.5 19t20.5 8h131q11 0 17.5 -8t4.5 -19l-109 -513h305zM514 334q-2 -11 -11.5 -19t-20.5 -8h-131q-11 0 -17.5 8t-4.5 19l28 131q2 11 12 19t21 8h131
q11 0 17 -8t4 -19z" />
    <glyph glyph-name="Lslash" unicode="&#x141;" horiz-adv-x="606" 
d="M538 160q11 0 17 -8t4 -19l-23 -106q-2 -11 -11.5 -19t-20.5 -8h-463q-11 0 -17.5 8t-4.5 19l48 225l-30 -11q-9 -3 -12 -3q-9 0 -13.5 6t-2.5 15l12 58q5 25 29 33l41 15l66 308q2 11 11.5 19t20.5 8h131q11 0 17.5 -8t4.5 -19l-51 -236l146 53q7 3 11 3q9 0 14 -6
t3 -15l-13 -58q-4 -25 -29 -33l-156 -57l-34 -164h305z" />
    <glyph glyph-name="M" unicode="M" horiz-adv-x="836" 
d="M349 168q-15 0 -22 8.5t-9 16.5l-50 165l-71 -331q-2 -11 -11.5 -19t-20.5 -8h-131q-11 0 -17.5 8t-4.5 19l138 646q2 11 11.5 19t20.5 8h120q10 0 17 -3t11.5 -7.5t6.5 -9t3 -7.5l86 -277l201 277q4 5 16 16t32 11h149q11 0 17.5 -8t4.5 -19l-138 -646q-2 -11 -11.5 -19
t-20.5 -8h-131q-11 0 -17.5 8t-4.5 19l71 331l-116 -165q-7 -9 -17.5 -17t-25.5 -8h-86v0z" />
    <glyph glyph-name="N" unicode="N" horiz-adv-x="726" 
d="M482 0q-17 0 -25 8.5t-13 16.5l-175 340l-72 -338q-2 -11 -11.5 -19t-20.5 -8h-131q-11 0 -17.5 8t-4.5 19l138 646q2 11 11.5 19t20.5 8h84q17 0 25.5 -9t10.5 -14l177 -342l72 338q2 11 11.5 19t20.5 8h131q11 0 17.5 -8t4.5 -19l-138 -646q-2 -11 -11.5 -19t-20.5 -8
h-84z" />
    <glyph glyph-name="Nacute" unicode="&#x143;" horiz-adv-x="726" 
d="M482 0q-17 0 -25 8.5t-13 16.5l-175 340l-72 -338q-2 -11 -11.5 -19t-20.5 -8h-131q-11 0 -17.5 8t-4.5 19l138 646q2 11 11.5 19t20.5 8h84q17 0 25.5 -9t10.5 -14l177 -342l72 338q2 11 11.5 19t20.5 8h131q11 0 17.5 -8t4.5 -19l-138 -646q-2 -11 -11.5 -19t-20.5 -8
h-84zM488 891q14 13 22 16t19 3h153q14 0 15.5 -12.5t-8.5 -19.5l-158 -111q-10 -7 -20 -12t-26 -5h-106q-13 0 -15.5 9.5t5.5 16.5z" />
    <glyph glyph-name="Ncaron" unicode="&#x147;" horiz-adv-x="726" 
d="M482 0q-17 0 -25 8.5t-13 16.5l-175 340l-72 -338q-2 -11 -11.5 -19t-20.5 -8h-131q-11 0 -17.5 8t-4.5 19l138 646q2 11 11.5 19t20.5 8h84q17 0 25.5 -9t10.5 -14l177 -342l72 338q2 11 11.5 19t20.5 8h131q11 0 17.5 -8t4.5 -19l-138 -646q-2 -11 -11.5 -19t-20.5 -8
h-84zM393 750q-11 0 -18 4t-15 15l-78 112q-6 10 0 19.5t17 9.5h55q10 0 15.5 -3t13.5 -8l70 -43l87 43q10 5 17 8t17 3h78q13 0 14 -10t-6 -16l-129 -115q-12 -11 -21 -15t-20 -4h-97z" />
    <glyph glyph-name="Ncommaaccent" unicode="&#x145;" horiz-adv-x="726" 
d="M482 0q-17 0 -25 8.5t-13 16.5l-175 340l-72 -338q-2 -11 -11.5 -19t-20.5 -8h-131q-11 0 -17.5 8t-4.5 19l138 646q2 11 11.5 19t20.5 8h84q17 0 25.5 -9t10.5 -14l177 -342l72 338q2 11 11.5 19t20.5 8h131q11 0 17.5 -8t4.5 -19l-138 -646q-2 -11 -11.5 -19t-20.5 -8
h-84zM187 -89q5 14 18 26.5t33 12.5h123q13 0 16.5 -10t-1.5 -19l-85 -139q-6 -10 -18 -21t-32 -11h-89q-12 0 -16.5 7.5t-0.5 16.5z" />
    <glyph glyph-name="Ntilde" unicode="&#xd1;" horiz-adv-x="726" 
d="M482 0q-17 0 -25 8.5t-13 16.5l-175 340l-72 -338q-2 -11 -11.5 -19t-20.5 -8h-131q-11 0 -17.5 8t-4.5 19l138 646q2 11 11.5 19t20.5 8h84q17 0 25.5 -9t10.5 -14l177 -342l72 338q2 11 11.5 19t20.5 8h131q11 0 17.5 -8t4.5 -19l-138 -646q-2 -11 -11.5 -19t-20.5 -8
h-84zM535 745q-31 0 -49.5 7t-31.5 15.5t-24.5 15.5t-27.5 7q-12 0 -19.5 -6.5t-13 -14t-11 -13.5t-13.5 -6h-76q-9 0 -13 5.5t-2 13.5q5 22 16.5 46.5t29.5 44t42 32.5t53 13q31 0 49.5 -7t31.5 -15.5t24 -15.5t27 -7q12 0 19.5 6t13.5 13.5t11.5 14t13.5 6.5h76
q9 0 13 -5.5t2 -13.5q-5 -23 -18 -47t-32 -43.5t-42.5 -32.5t-48.5 -13z" />
    <glyph glyph-name="O" unicode="O" horiz-adv-x="719" 
d="M78 439q15 56 42.5 105.5t71 86t104 58t141.5 21.5q66 0 119 -21.5t88.5 -58t51 -86t6.5 -105.5q-7 -43 -17 -90t-21 -88q-15 -56 -43 -105.5t-71.5 -86.5t-104 -58t-141.5 -21q-66 0 -119 21t-88 58t-50.5 86.5t-6.5 105.5q6 41 16.5 88t21.5 90zM480 266q5 18 10.5 40
t10.5 45t9 44.5t6 38.5q3 25 -1 46t-16.5 36.5t-33.5 24.5t-52 9t-55.5 -9t-43.5 -24.5t-32 -36.5t-20 -46q-5 -17 -10.5 -38.5t-10.5 -44.5t-9 -45t-6 -40q-6 -50 17 -83t85 -33q63 0 100 33t52 83z" />
    <glyph glyph-name="Oacute" unicode="&#xd3;" horiz-adv-x="719" 
d="M78 439q15 56 42.5 105.5t71 86t104 58t141.5 21.5q66 0 119 -21.5t88.5 -58t51 -86t6.5 -105.5q-7 -43 -17 -90t-21 -88q-15 -56 -43 -105.5t-71.5 -86.5t-104 -58t-141.5 -21q-66 0 -119 21t-88 58t-50.5 86.5t-6.5 105.5q6 41 16.5 88t21.5 90zM480 266q5 18 10.5 40
t10.5 45t9 44.5t6 38.5q3 25 -1 46t-16.5 36.5t-33.5 24.5t-52 9t-55.5 -9t-43.5 -24.5t-32 -36.5t-20 -46q-5 -17 -10.5 -38.5t-10.5 -44.5t-9 -45t-6 -40q-6 -50 17 -83t85 -33q63 0 100 33t52 83zM495 891q14 13 22 16t19 3h153q14 0 15.5 -12.5t-8.5 -19.5l-158 -111
q-10 -7 -20 -12t-26 -5h-106q-13 0 -15.5 9.5t5.5 16.5z" />
    <glyph glyph-name="Obreve" unicode="&#x14e;" horiz-adv-x="719" 
d="M78 439q15 56 42.5 105.5t71 86t104 58t141.5 21.5q66 0 119 -21.5t88.5 -58t51 -86t6.5 -105.5q-7 -43 -17 -90t-21 -88q-15 -56 -43 -105.5t-71.5 -86.5t-104 -58t-141.5 -21q-66 0 -119 21t-88 58t-50.5 86.5t-6.5 105.5q6 41 16.5 88t21.5 90zM480 266q5 18 10.5 40
t10.5 45t9 44.5t6 38.5q3 25 -1 46t-16.5 36.5t-33.5 24.5t-52 9t-55.5 -9t-43.5 -24.5t-32 -36.5t-20 -46q-5 -17 -10.5 -38.5t-10.5 -44.5t-9 -45t-6 -40q-6 -50 17 -83t85 -33q63 0 100 33t52 83zM454 745q-42 0 -72.5 13.5t-49 35t-25 47.5t-1.5 50q2 8 8 13.5t15 5.5
h84q9 0 13 -5.5t2 -13.5q-4 -19 4.5 -34.5t31.5 -15.5t38.5 15.5t19.5 34.5q2 8 8 13.5t15 5.5h84q9 0 13 -5.5t2 -13.5q-5 -24 -17 -50t-33.5 -47.5t-55.5 -35t-84 -13.5z" />
    <glyph glyph-name="Ocircumflex" unicode="&#xd4;" horiz-adv-x="719" 
d="M78 439q15 56 42.5 105.5t71 86t104 58t141.5 21.5q66 0 119 -21.5t88.5 -58t51 -86t6.5 -105.5q-7 -43 -17 -90t-21 -88q-15 -56 -43 -105.5t-71.5 -86.5t-104 -58t-141.5 -21q-66 0 -119 21t-88 58t-50.5 86.5t-6.5 105.5q6 41 16.5 88t21.5 90zM480 266q5 18 10.5 40
t10.5 45t9 44.5t6 38.5q3 25 -1 46t-16.5 36.5t-33.5 24.5t-52 9t-55.5 -9t-43.5 -24.5t-32 -36.5t-20 -46q-5 -17 -10.5 -38.5t-10.5 -44.5t-9 -45t-6 -40q-6 -50 17 -83t85 -33q63 0 100 33t52 83zM520 910q11 0 18 -4t15 -15l78 -112q6 -10 0 -19.5t-17 -9.5h-56
q-10 0 -15.5 3t-13.5 8l-70 43l-87 -43q-10 -5 -17 -8t-17 -3h-77q-13 0 -14 10t6 16l129 115q12 11 21 15t20 4h97z" />
    <glyph glyph-name="Odieresis" unicode="&#xd6;" horiz-adv-x="719" 
d="M78 439q15 56 42.5 105.5t71 86t104 58t141.5 21.5q66 0 119 -21.5t88.5 -58t51 -86t6.5 -105.5q-7 -43 -17 -90t-21 -88q-15 -56 -43 -105.5t-71.5 -86.5t-104 -58t-141.5 -21q-66 0 -119 21t-88 58t-50.5 86.5t-6.5 105.5q6 41 16.5 88t21.5 90zM480 266q5 18 10.5 40
t10.5 45t9 44.5t6 38.5q3 25 -1 46t-16.5 36.5t-33.5 24.5t-52 9t-55.5 -9t-43.5 -24.5t-32 -36.5t-20 -46q-5 -17 -10.5 -38.5t-10.5 -44.5t-9 -45t-6 -40q-6 -50 17 -83t85 -33q63 0 100 33t52 83zM408 777q-2 -11 -12 -19t-21 -8h-101q-11 0 -17.5 8t-3.5 19l21 101
q2 11 12 19t21 8h101q11 0 17 -8t4 -19zM663 777q-2 -11 -12 -19t-21 -8h-101q-11 0 -17.5 8t-3.5 19l21 101q2 11 12 19t21 8h101q11 0 17 -8t4 -19z" />
    <glyph glyph-name="Ograve" unicode="&#xd2;" horiz-adv-x="719" 
d="M78 439q15 56 42.5 105.5t71 86t104 58t141.5 21.5q66 0 119 -21.5t88.5 -58t51 -86t6.5 -105.5q-7 -43 -17 -90t-21 -88q-15 -56 -43 -105.5t-71.5 -86.5t-104 -58t-141.5 -21q-66 0 -119 21t-88 58t-50.5 86.5t-6.5 105.5q6 41 16.5 88t21.5 90zM480 266q5 18 10.5 40
t10.5 45t9 44.5t6 38.5q3 25 -1 46t-16.5 36.5t-33.5 24.5t-52 9t-55.5 -9t-43.5 -24.5t-32 -36.5t-20 -46q-5 -17 -10.5 -38.5t-10.5 -44.5t-9 -45t-6 -40q-6 -50 17 -83t85 -33q63 0 100 33t52 83zM516 779q6 -10 0 -19.5t-17 -9.5h-98q-16 0 -23.5 5t-14.5 12l-109 108
q-9 9 -2.5 22t18.5 13h145q11 0 18 -3t15 -16z" />
    <glyph glyph-name="Ohungarumlaut" unicode="&#x150;" horiz-adv-x="719" 
d="M78 439q15 56 42.5 105.5t71 86t104 58t141.5 21.5q66 0 119 -21.5t88.5 -58t51 -86t6.5 -105.5q-7 -43 -17 -90t-21 -88q-15 -56 -43 -105.5t-71.5 -86.5t-104 -58t-141.5 -21q-66 0 -119 21t-88 58t-50.5 86.5t-6.5 105.5q6 41 16.5 88t21.5 90zM480 266q5 18 10.5 40
t10.5 45t9 44.5t6 38.5q3 25 -1 46t-16.5 36.5t-33.5 24.5t-52 9t-55.5 -9t-43.5 -24.5t-32 -36.5t-20 -46q-5 -17 -10.5 -38.5t-10.5 -44.5t-9 -45t-6 -40q-6 -50 17 -83t85 -33q63 0 100 33t52 83zM345 891q7 10 16 14.5t25 4.5h132q15 0 16 -12t-9 -20l-129 -114
q-16 -14 -37 -14h-83q-11 0 -13.5 6.5t2.5 14.5zM586 891q7 10 16 14.5t25 4.5h132q15 0 16 -12t-9 -20l-129 -114q-16 -14 -34 -14h-86q-11 0 -13.5 6.5t2.5 14.5z" />
    <glyph glyph-name="Omacron" unicode="&#x14c;" horiz-adv-x="719" 
d="M78 439q15 56 42.5 105.5t71 86t104 58t141.5 21.5q66 0 119 -21.5t88.5 -58t51 -86t6.5 -105.5q-7 -43 -17 -90t-21 -88q-15 -56 -43 -105.5t-71.5 -86.5t-104 -58t-141.5 -21q-66 0 -119 21t-88 58t-50.5 86.5t-6.5 105.5q6 41 16.5 88t21.5 90zM480 266q5 18 10.5 40
t10.5 45t9 44.5t6 38.5q3 25 -1 46t-16.5 36.5t-33.5 24.5t-52 9t-55.5 -9t-43.5 -24.5t-32 -36.5t-20 -46q-5 -17 -10.5 -38.5t-10.5 -44.5t-9 -45t-6 -40q-6 -50 17 -83t85 -33q63 0 100 33t52 83zM297 750q-11 0 -17.5 8t-3.5 19l18 86q2 11 12 19t21 8h319q11 0 17 -8
t4 -19l-18 -86q-2 -11 -12 -19t-21 -8h-319z" />
    <glyph glyph-name="Oslash" unicode="&#xd8;" horiz-adv-x="754" 
d="M95 439q15 56 42.5 105.5t71 86t104 58t141.5 21.5q54 0 99 -14.5t79.5 -40t56.5 -60.5t29 -77l41 15q7 3 11 3q9 0 14 -6t3 -15l-12 -58q-5 -25 -29 -33l-31 -11q-7 -38 -16 -77.5t-18 -74.5q-15 -56 -43 -105.5t-71.5 -86.5t-104 -58t-141.5 -21q-54 0 -99 14t-79 39
t-56.5 60t-29.5 76l-40 -14q-9 -3 -12 -3q-9 0 -14 6t-3 15l13 58q3 14 9 21t20 12l31 11q6 37 15 77t19 77zM279 434q-10 -33 -20 -79l275 98q1 42 -23.5 69.5t-80.5 27.5q-31 0 -55.5 -9t-43.5 -24.5t-32 -36.5t-20 -46zM497 266q5 16 9.5 35.5t9.5 40.5l-275 -97
q0 -42 24 -68.5t80 -26.5q63 0 100 33t52 83z" />
    <glyph glyph-name="Oslashacute" unicode="&#x1fe;" horiz-adv-x="754" 
d="M519 891q14 13 22 16t19 3h153q14 0 15.5 -12.5t-8.5 -19.5l-158 -111q-10 -7 -20 -12t-26 -5h-106q-13 0 -15.5 9.5t5.5 16.5zM95 439q15 56 42.5 105.5t71 86t104 58t141.5 21.5q54 0 99 -14.5t79.5 -40t56.5 -60.5t29 -77l41 15q7 3 11 3q9 0 14 -6t3 -15l-12 -58
q-5 -25 -29 -33l-31 -11q-7 -38 -16 -77.5t-18 -74.5q-15 -56 -43 -105.5t-71.5 -86.5t-104 -58t-141.5 -21q-54 0 -99 14t-79 39t-56.5 60t-29.5 76l-40 -14q-9 -3 -12 -3q-9 0 -14 6t-3 15l13 58q3 14 9 21t20 12l31 11q6 37 15 77t19 77zM279 434q-10 -33 -20 -79l275 98
q1 42 -23.5 69.5t-80.5 27.5q-31 0 -55.5 -9t-43.5 -24.5t-32 -36.5t-20 -46zM497 266q5 16 9.5 35.5t9.5 40.5l-275 -97q0 -42 24 -68.5t80 -26.5q63 0 100 33t52 83z" />
    <glyph glyph-name="Otilde" unicode="&#xd5;" horiz-adv-x="719" 
d="M78 439q15 56 42.5 105.5t71 86t104 58t141.5 21.5q66 0 119 -21.5t88.5 -58t51 -86t6.5 -105.5q-7 -43 -17 -90t-21 -88q-15 -56 -43 -105.5t-71.5 -86.5t-104 -58t-141.5 -21q-66 0 -119 21t-88 58t-50.5 86.5t-6.5 105.5q6 41 16.5 88t21.5 90zM480 266q5 18 10.5 40
t10.5 45t9 44.5t6 38.5q3 25 -1 46t-16.5 36.5t-33.5 24.5t-52 9t-55.5 -9t-43.5 -24.5t-32 -36.5t-20 -46q-5 -17 -10.5 -38.5t-10.5 -44.5t-9 -45t-6 -40q-6 -50 17 -83t85 -33q63 0 100 33t52 83zM543 745q-31 0 -49.5 7t-31.5 15.5t-24.5 15.5t-27.5 7q-12 0 -19.5 -6.5
t-13 -14t-11 -13.5t-13.5 -6h-76q-9 0 -13 5.5t-2 13.5q5 22 16.5 46.5t29.5 44t42 32.5t53 13q31 0 49.5 -7t31.5 -15.5t24 -15.5t27 -7q12 0 19.5 6t13.5 13.5t11.5 14t13.5 6.5h76q9 0 13 -5.5t2 -13.5q-5 -23 -18 -47t-32 -43.5t-42.5 -32.5t-48.5 -13z" />
    <glyph glyph-name="OE" unicode="&#x152;" horiz-adv-x="981" 
d="M880 160q11 0 17 -8t4 -19l-23 -106q-2 -11 -11.5 -19t-20.5 -8h-543q-62 0 -114 22t-88 61t-52.5 91.5t-5.5 114.5q3 20 6.5 37t7 33t7.5 33.5t9 38.5q16 61 46 111t75 85t105 54t137 19h550q11 0 17.5 -8t4.5 -19l-23 -106q-2 -11 -12 -19t-21 -8h-278l-23 -108h256
q11 0 17.5 -8t4.5 -19l-23 -106q-2 -11 -12 -19t-21 -8h-256l-23 -112h286zM257 425q-11 -41 -18 -74t-14 -76q-20 -115 107 -115h77l80 380h-72q-130 0 -160 -115z" />
    <glyph glyph-name="P" unicode="P" horiz-adv-x="686" 
d="M458 700q56 0 104.5 -16t82 -47.5t47.5 -77t2 -103.5q-13 -59 -37 -101t-62 -70t-91.5 -41t-124.5 -13h-138l-44 -204q-2 -11 -11.5 -19t-20.5 -8h-131q-11 0 -17.5 8t-4.5 19l138 646q2 11 11.5 19t20.5 8h276zM274 387h123q42 0 73.5 18.5t40.5 60.5q8 42 -15.5 60.5
t-65.5 18.5h-123z" />
    <glyph glyph-name="Q" unicode="Q" horiz-adv-x="719" 
d="M78 439q15 56 42.5 105.5t71 86t104 58t141.5 21.5q66 0 119 -21.5t88.5 -58t51 -86t6.5 -105.5q-7 -43 -17 -90t-21 -88q-15 -56 -42 -104t-69 -85l51 -106q5 -11 -3.5 -21t-19.5 -10h-131q-19 0 -26.5 8.5t-10.5 14.5l-17 41q-42 -9 -92 -9q-66 0 -119 21t-88 58
t-50.5 86.5t-6.5 105.5q6 41 16.5 88t21.5 90zM480 266q5 18 10.5 40t10.5 45t9 44.5t6 38.5q3 25 -1 46t-16.5 36.5t-33.5 24.5t-52 9t-55.5 -9t-43.5 -24.5t-32 -36.5t-20 -46q-5 -17 -10.5 -38.5t-10.5 -44.5t-9 -45t-6 -40q-6 -50 17 -83t85 -33q63 0 100 33t52 83z" />
    <glyph glyph-name="R" unicode="R" horiz-adv-x="694" 
d="M443 700q58 0 108 -15.5t84 -45.5t48.5 -75t2.5 -103q-16 -75 -57 -119.5t-104 -70.5l74 -238q1 -5 0 -11q-2 -9 -9.5 -15.5t-16.5 -6.5h-126q-20 0 -27 9t-10 18l-65 214h-102l-46 -214q-2 -11 -11.5 -19t-20.5 -8h-131q-11 0 -17.5 8t-4.5 19l138 646q2 11 11.5 19
t20.5 8h261zM276 397h113q42 0 73 16t40 58q8 42 -16 58t-66 16h-113z" />
    <glyph glyph-name="Racute" unicode="&#x154;" horiz-adv-x="694" 
d="M443 700q58 0 108 -15.5t84 -45.5t48.5 -75t2.5 -103q-16 -75 -57 -119.5t-104 -70.5l74 -238q1 -5 0 -11q-2 -9 -9.5 -15.5t-16.5 -6.5h-126q-20 0 -27 9t-10 18l-65 214h-102l-46 -214q-2 -11 -11.5 -19t-20.5 -8h-131q-11 0 -17.5 8t-4.5 19l138 646q2 11 11.5 19
t20.5 8h261zM276 397h113q42 0 73 16t40 58q8 42 -16 58t-66 16h-113zM469 891q14 13 22 16t19 3h153q14 0 15.5 -12.5t-8.5 -19.5l-158 -111q-10 -7 -20 -12t-26 -5h-106q-13 0 -15.5 9.5t5.5 16.5z" />
    <glyph glyph-name="Rcaron" unicode="&#x158;" horiz-adv-x="694" 
d="M443 700q58 0 108 -15.5t84 -45.5t48.5 -75t2.5 -103q-16 -75 -57 -119.5t-104 -70.5l74 -238q1 -5 0 -11q-2 -9 -9.5 -15.5t-16.5 -6.5h-126q-20 0 -27 9t-10 18l-65 214h-102l-46 -214q-2 -11 -11.5 -19t-20.5 -8h-131q-11 0 -17.5 8t-4.5 19l138 646q2 11 11.5 19
t20.5 8h261zM276 397h113q42 0 73 16t40 58q8 42 -16 58t-66 16h-113zM362 750q-11 0 -18 4t-15 15l-78 112q-6 10 0 19.5t17 9.5h55q10 0 15.5 -3t13.5 -8l70 -43l87 43q10 5 17 8t17 3h78q13 0 14 -10t-6 -16l-129 -115q-12 -11 -21 -15t-20 -4h-97z" />
    <glyph glyph-name="Rcommaaccent" unicode="&#x156;" horiz-adv-x="694" 
d="M443 700q58 0 108 -15.5t84 -45.5t48.5 -75t2.5 -103q-16 -75 -57 -119.5t-104 -70.5l74 -238q1 -5 0 -11q-2 -9 -9.5 -15.5t-16.5 -6.5h-126q-20 0 -27 9t-10 18l-65 214h-102l-46 -214q-2 -11 -11.5 -19t-20.5 -8h-131q-11 0 -17.5 8t-4.5 19l138 646q2 11 11.5 19
t20.5 8h261zM276 397h113q42 0 73 16t40 58q8 42 -16 58t-66 16h-113zM169 -89q5 14 18 26.5t33 12.5h123q13 0 16.5 -10t-1.5 -19l-85 -139q-6 -10 -18 -21t-32 -11h-89q-12 0 -16.5 7.5t-0.5 16.5z" />
    <glyph glyph-name="S" unicode="S" horiz-adv-x="675" 
d="M407 710q60 0 109.5 -18.5t84.5 -47.5t53 -63.5t16 -67.5q-2 -9 -10 -15.5t-16 -6.5h-131q-14 0 -21.5 4t-15.5 12q-3 3 -8 10t-15 14.5t-27 13t-43 5.5q-19 0 -37 -2.5t-33 -8t-25 -15.5t-13 -25t4 -25.5t27.5 -19.5t56 -17.5t88.5 -19.5q105 -23 149 -74t24 -145
q-22 -102 -108.5 -155t-236.5 -53q-60 0 -111.5 18t-88.5 47t-57 66.5t-17 75.5q2 9 10 15.5t16 6.5h131q14 0 21.5 -3.5t13.5 -10.5q4 -4 9.5 -13t17 -18.5t30.5 -16.5t49 -7q53 0 91 11.5t45 41.5q3 15 -7.5 25.5t-35.5 19.5t-63.5 17.5t-90.5 20.5q-98 22 -134.5 77
t-17.5 141q9 43 32.5 80.5t62.5 65.5t94 44t128 16z" />
    <glyph glyph-name="Sacute" unicode="&#x15a;" horiz-adv-x="675" 
d="M407 710q60 0 109.5 -18.5t84.5 -47.5t53 -63.5t16 -67.5q-2 -9 -10 -15.5t-16 -6.5h-131q-14 0 -21.5 4t-15.5 12q-3 3 -8 10t-15 14.5t-27 13t-43 5.5q-19 0 -37 -2.5t-33 -8t-25 -15.5t-13 -25t4 -25.5t27.5 -19.5t56 -17.5t88.5 -19.5q105 -23 149 -74t24 -145
q-22 -102 -108.5 -155t-236.5 -53q-60 0 -111.5 18t-88.5 47t-57 66.5t-17 75.5q2 9 10 15.5t16 6.5h131q14 0 21.5 -3.5t13.5 -10.5q4 -4 9.5 -13t17 -18.5t30.5 -16.5t49 -7q53 0 91 11.5t45 41.5q3 15 -7.5 25.5t-35.5 19.5t-63.5 17.5t-90.5 20.5q-98 22 -134.5 77
t-17.5 141q9 43 32.5 80.5t62.5 65.5t94 44t128 16zM464 891q14 13 22 16t19 3h153q14 0 15.5 -12.5t-8.5 -19.5l-158 -111q-10 -7 -20 -12t-26 -5h-106q-13 0 -15.5 9.5t5.5 16.5z" />
    <glyph glyph-name="Scaron" unicode="&#x160;" horiz-adv-x="675" 
d="M407 710q60 0 109.5 -18.5t84.5 -47.5t53 -63.5t16 -67.5q-2 -9 -10 -15.5t-16 -6.5h-131q-14 0 -21.5 4t-15.5 12q-3 3 -8 10t-15 14.5t-27 13t-43 5.5q-19 0 -37 -2.5t-33 -8t-25 -15.5t-13 -25t4 -25.5t27.5 -19.5t56 -17.5t88.5 -19.5q105 -23 149 -74t24 -145
q-22 -102 -108.5 -155t-236.5 -53q-60 0 -111.5 18t-88.5 47t-57 66.5t-17 75.5q2 9 10 15.5t16 6.5h131q14 0 21.5 -3.5t13.5 -10.5q4 -4 9.5 -13t17 -18.5t30.5 -16.5t49 -7q53 0 91 11.5t45 41.5q3 15 -7.5 25.5t-35.5 19.5t-63.5 17.5t-90.5 20.5q-98 22 -134.5 77
t-17.5 141q9 43 32.5 80.5t62.5 65.5t94 44t128 16zM373 750q-11 0 -18 4t-15 15l-78 112q-6 10 0 19.5t17 9.5h55q10 0 15.5 -3t13.5 -8l70 -43l87 43q10 5 17 8t17 3h78q13 0 14 -10t-6 -16l-129 -115q-12 -11 -21 -15t-20 -4h-97z" />
    <glyph glyph-name="Scedilla" unicode="&#x15e;" horiz-adv-x="674" 
d="M407 710q60 0 109.5 -18.5t84.5 -47.5t53 -63.5t16 -67.5q-2 -9 -10 -15.5t-16 -6.5h-131q-14 0 -21.5 4t-15.5 12q-3 3 -8 10t-15 14.5t-27 13t-43 5.5q-19 0 -37 -2.5t-33 -8t-25 -15.5t-13 -25t4 -25.5t27.5 -19.5t56 -17.5t88.5 -19.5q105 -23 149 -74t24 -145
q-22 -100 -106.5 -153t-230.5 -55l-30 -44q7 4 17.5 7t21.5 3q31 0 48 -27.5t9 -63.5t-31 -60.5t-76 -24.5q-16 0 -34 5t-30.5 13t-17.5 16.5t6 16.5l21 16q10 7 15 7t10.5 -3t12.5 -6.5t20 -3.5q14 0 24.5 6t13.5 21q3 14 -4.5 20.5t-22.5 6.5q-7 0 -15 -2t-15.5 -3.5
t-13.5 -1t-10 5.5l-14 21q-4 8 -5.5 15t6.5 18l32 46q-50 7 -91.5 27t-71 48t-45 61t-12.5 67q2 9 10 15.5t16 6.5h131q14 0 21.5 -3.5t13.5 -10.5q4 -4 9.5 -13t17 -18.5t30.5 -16.5t49 -7q53 0 91 11.5t45 41.5q3 15 -7.5 25.5t-35.5 19.5t-63.5 17.5t-90.5 20.5
q-98 22 -134.5 77t-17.5 141q9 43 32.5 80.5t62.5 65.5t94 44t128 16z" />
    <glyph glyph-name="Scircumflex" unicode="&#x15c;" horiz-adv-x="675" 
d="M407 710q60 0 109.5 -18.5t84.5 -47.5t53 -63.5t16 -67.5q-2 -9 -10 -15.5t-16 -6.5h-131q-14 0 -21.5 4t-15.5 12q-3 3 -8 10t-15 14.5t-27 13t-43 5.5q-19 0 -37 -2.5t-33 -8t-25 -15.5t-13 -25t4 -25.5t27.5 -19.5t56 -17.5t88.5 -19.5q105 -23 149 -74t24 -145
q-22 -102 -108.5 -155t-236.5 -53q-60 0 -111.5 18t-88.5 47t-57 66.5t-17 75.5q2 9 10 15.5t16 6.5h131q14 0 21.5 -3.5t13.5 -10.5q4 -4 9.5 -13t17 -18.5t30.5 -16.5t49 -7q53 0 91 11.5t45 41.5q3 15 -7.5 25.5t-35.5 19.5t-63.5 17.5t-90.5 20.5q-98 22 -134.5 77
t-17.5 141q9 43 32.5 80.5t62.5 65.5t94 44t128 16zM497 910q11 0 18 -4t15 -15l78 -112q6 -10 0 -19.5t-17 -9.5h-56q-10 0 -15.5 3t-13.5 8l-70 43l-87 -43q-10 -5 -17 -8t-17 -3h-77q-13 0 -14 10t6 16l129 115q12 11 21 15t20 4h97z" />
    <glyph glyph-name="Scommaaccent" unicode="&#x218;" horiz-adv-x="675" 
d="M407 710q60 0 109.5 -18.5t84.5 -47.5t53 -63.5t16 -67.5q-2 -9 -10 -15.5t-16 -6.5h-131q-14 0 -21.5 4t-15.5 12q-3 3 -8 10t-15 14.5t-27 13t-43 5.5q-19 0 -37 -2.5t-33 -8t-25 -15.5t-13 -25t4 -25.5t27.5 -19.5t56 -17.5t88.5 -19.5q105 -23 149 -74t24 -145
q-22 -102 -108.5 -155t-236.5 -53q-60 0 -111.5 18t-88.5 47t-57 66.5t-17 75.5q2 9 10 15.5t16 6.5h131q14 0 21.5 -3.5t13.5 -10.5q4 -4 9.5 -13t17 -18.5t30.5 -16.5t49 -7q53 0 91 11.5t45 41.5q3 15 -7.5 25.5t-35.5 19.5t-63.5 17.5t-90.5 20.5q-98 22 -134.5 77
t-17.5 141q9 43 32.5 80.5t62.5 65.5t94 44t128 16zM159 -89q5 14 18 26.5t33 12.5h123q13 0 16.5 -10t-1.5 -19l-85 -139q-6 -10 -18 -21t-32 -11h-89q-12 0 -16.5 7.5t-0.5 16.5z" />
    <glyph glyph-name="T" unicode="T" horiz-adv-x="629" 
d="M668 700q11 0 17.5 -8t4.5 -19l-23 -106q-2 -11 -12 -19t-21 -8h-176l-109 -513q-2 -11 -11.5 -19t-20.5 -8h-131q-11 0 -17.5 8t-4.5 19l109 513h-176q-11 0 -17 8t-4 19l23 106q2 11 11.5 19t20.5 8h537z" />
    <glyph glyph-name="Tbar" unicode="&#x166;" horiz-adv-x="638" 
d="M409 287l-56 -260q-2 -11 -11.5 -19t-20.5 -8h-131q-11 0 -17.5 8t-4.5 19l56 260h-93q-11 0 -17.5 8t-4.5 19l12 53q2 11 11.5 19t20.5 8h93l31 146h-176q-11 0 -17 8t-4 19l23 106q2 11 11.5 19t20.5 8h537q11 0 17.5 -8t4.5 -19l-23 -106q-2 -11 -12 -19t-21 -8h-176
l-31 -146h93q11 0 17.5 -8t4.5 -19l-12 -53q-2 -11 -11.5 -19t-20.5 -8h-93z" />
    <glyph glyph-name="Tcaron" unicode="&#x164;" horiz-adv-x="629" 
d="M668 700q11 0 17.5 -8t4.5 -19l-23 -106q-2 -11 -12 -19t-21 -8h-176l-109 -513q-2 -11 -11.5 -19t-20.5 -8h-131q-11 0 -17.5 8t-4.5 19l109 513h-176q-11 0 -17 8t-4 19l23 106q2 11 11.5 19t20.5 8h537zM356 750q-11 0 -18 4t-15 15l-78 112q-6 10 0 19.5t17 9.5h55
q10 0 15.5 -3t13.5 -8l70 -43l87 43q10 5 17 8t17 3h78q13 0 14 -10t-6 -16l-129 -115q-12 -11 -21 -15t-20 -4h-97z" />
    <glyph glyph-name="Tcommaaccent" unicode="&#x162;" horiz-adv-x="629" 
d="M668 700q11 0 17.5 -8t4.5 -19l-23 -106q-2 -11 -12 -19t-21 -8h-176l-109 -513q-2 -11 -11.5 -19t-20.5 -8h-131q-11 0 -17.5 8t-4.5 19l109 513h-176q-11 0 -17 8t-4 19l23 106q2 11 11.5 19t20.5 8h537zM137 -89q5 14 18 26.5t33 12.5h123q13 0 16.5 -10t-1.5 -19
l-85 -139q-6 -10 -18 -21t-32 -11h-89q-12 0 -16.5 7.5t-0.5 16.5z" />
    <glyph glyph-name="U" unicode="U" horiz-adv-x="735" 
d="M728 700q11 0 17.5 -8t4.5 -19l-85 -399q-29 -139 -116.5 -211.5t-238.5 -72.5q-61 0 -113.5 18.5t-88.5 54.5t-51 89t0 122l85 399q2 11 11.5 19t20.5 8h131q11 0 17.5 -8t4.5 -19l-84 -395q-13 -60 9 -94t82 -34t97 34t50 94l84 395q2 11 11.5 19t20.5 8h131z" />
    <glyph glyph-name="Uacute" unicode="&#xda;" horiz-adv-x="735" 
d="M728 700q11 0 17.5 -8t4.5 -19l-85 -399q-29 -139 -116.5 -211.5t-238.5 -72.5q-61 0 -113.5 18.5t-88.5 54.5t-51 89t0 122l85 399q2 11 11.5 19t20.5 8h131q11 0 17.5 -8t4.5 -19l-84 -395q-13 -60 9 -94t82 -34t97 34t50 94l84 395q2 11 11.5 19t20.5 8h131zM492 891
q14 13 22 16t19 3h153q14 0 15.5 -12.5t-8.5 -19.5l-158 -111q-10 -7 -20 -12t-26 -5h-106q-13 0 -15.5 9.5t5.5 16.5z" />
    <glyph glyph-name="Ubreve" unicode="&#x16c;" horiz-adv-x="735" 
d="M728 700q11 0 17.5 -8t4.5 -19l-85 -399q-29 -139 -116.5 -211.5t-238.5 -72.5q-61 0 -113.5 18.5t-88.5 54.5t-51 89t0 122l85 399q2 11 11.5 19t20.5 8h131q11 0 17.5 -8t4.5 -19l-84 -395q-13 -60 9 -94t82 -34t97 34t50 94l84 395q2 11 11.5 19t20.5 8h131zM454 745
q-42 0 -72.5 13.5t-49 35t-25 47.5t-1.5 50q2 8 8 13.5t15 5.5h84q9 0 13 -5.5t2 -13.5q-4 -19 4.5 -34.5t31.5 -15.5t38.5 15.5t19.5 34.5q2 8 8 13.5t15 5.5h84q9 0 13 -5.5t2 -13.5q-5 -24 -17 -50t-33.5 -47.5t-55.5 -35t-84 -13.5z" />
    <glyph glyph-name="Ucircumflex" unicode="&#xdb;" horiz-adv-x="735" 
d="M728 700q11 0 17.5 -8t4.5 -19l-85 -399q-29 -139 -116.5 -211.5t-238.5 -72.5q-61 0 -113.5 18.5t-88.5 54.5t-51 89t0 122l85 399q2 11 11.5 19t20.5 8h131q11 0 17.5 -8t4.5 -19l-84 -395q-13 -60 9 -94t82 -34t97 34t50 94l84 395q2 11 11.5 19t20.5 8h131zM531 910
q11 0 18 -4t15 -15l78 -112q6 -10 0 -19.5t-17 -9.5h-56q-10 0 -15.5 3t-13.5 8l-70 43l-87 -43q-10 -5 -17 -8t-17 -3h-77q-13 0 -14 10t6 16l129 115q12 11 21 15t20 4h97z" />
    <glyph glyph-name="Udieresis" unicode="&#xdc;" horiz-adv-x="735" 
d="M728 700q11 0 17.5 -8t4.5 -19l-85 -399q-29 -139 -116.5 -211.5t-238.5 -72.5q-61 0 -113.5 18.5t-88.5 54.5t-51 89t0 122l85 399q2 11 11.5 19t20.5 8h131q11 0 17.5 -8t4.5 -19l-84 -395q-13 -60 9 -94t82 -34t97 34t50 94l84 395q2 11 11.5 19t20.5 8h131zM414 777
q-2 -11 -12 -19t-21 -8h-101q-11 0 -17.5 8t-3.5 19l21 101q2 11 12 19t21 8h101q11 0 17 -8t4 -19zM669 777q-2 -11 -12 -19t-21 -8h-101q-11 0 -17.5 8t-3.5 19l21 101q2 11 12 19t21 8h101q11 0 17 -8t4 -19z" />
    <glyph glyph-name="Ugrave" unicode="&#xd9;" horiz-adv-x="735" 
d="M728 700q11 0 17.5 -8t4.5 -19l-85 -399q-29 -139 -116.5 -211.5t-238.5 -72.5q-61 0 -113.5 18.5t-88.5 54.5t-51 89t0 122l85 399q2 11 11.5 19t20.5 8h131q11 0 17.5 -8t4.5 -19l-84 -395q-13 -60 9 -94t82 -34t97 34t50 94l84 395q2 11 11.5 19t20.5 8h131zM533 779
q6 -10 0 -19.5t-17 -9.5h-98q-16 0 -23.5 5t-14.5 12l-109 108q-9 9 -2.5 22t18.5 13h145q11 0 18 -3t15 -16z" />
    <glyph glyph-name="Uhungarumlaut" unicode="&#x170;" horiz-adv-x="735" 
d="M728 700q11 0 17.5 -8t4.5 -19l-85 -399q-29 -139 -116.5 -211.5t-238.5 -72.5q-61 0 -113.5 18.5t-88.5 54.5t-51 89t0 122l85 399q2 11 11.5 19t20.5 8h131q11 0 17.5 -8t4.5 -19l-84 -395q-13 -60 9 -94t82 -34t97 34t50 94l84 395q2 11 11.5 19t20.5 8h131zM339 891
q7 10 16 14.5t25 4.5h132q15 0 16 -12t-9 -20l-129 -114q-16 -14 -37 -14h-83q-11 0 -13.5 6.5t2.5 14.5zM580 891q7 10 16 14.5t25 4.5h132q15 0 16 -12t-9 -20l-129 -114q-16 -14 -34 -14h-86q-11 0 -13.5 6.5t2.5 14.5z" />
    <glyph glyph-name="Umacron" unicode="&#x16a;" horiz-adv-x="735" 
d="M728 700q11 0 17.5 -8t4.5 -19l-85 -399q-29 -139 -116.5 -211.5t-238.5 -72.5q-61 0 -113.5 18.5t-88.5 54.5t-51 89t0 122l85 399q2 11 11.5 19t20.5 8h131q11 0 17.5 -8t4.5 -19l-84 -395q-13 -60 9 -94t82 -34t97 34t50 94l84 395q2 11 11.5 19t20.5 8h131zM294 750
q-11 0 -17.5 8t-3.5 19l18 86q2 11 12 19t21 8h319q11 0 17 -8t4 -19l-18 -86q-2 -11 -12 -19t-21 -8h-319z" />
    <glyph glyph-name="Uogonek" unicode="&#x172;" horiz-adv-x="735" 
d="M729 700q11 0 17.5 -8t4.5 -19l-85 -399q-28 -131 -107 -199.5t-213 -83.5q-23 -2 -38 -13.5t-19 -33.5q-5 -23 5.5 -39.5t36.5 -16.5h15q22 0 17 -22l-14 -64q-2 -10 -9 -16t-17 -6h-19q-30 0 -56.5 13t-44.5 36t-25.5 53.5t0.5 66.5q6 35 19 59q-39 14 -69.5 38
t-49.5 57.5t-25 76t5 94.5l85 399q2 11 11.5 19t20.5 8h131q11 0 17.5 -8t4.5 -19l-84 -395q-13 -60 9 -94t82 -34t97 34t50 94l84 395q2 11 11.5 19t20.5 8h131z" />
    <glyph glyph-name="Uring" unicode="&#x16e;" horiz-adv-x="735" 
d="M728 700q11 0 17.5 -8t4.5 -19l-85 -399q-29 -139 -116.5 -211.5t-238.5 -72.5q-61 0 -113.5 18.5t-88.5 54.5t-51 89t0 122l85 399q2 11 11.5 19t20.5 8h131q11 0 17.5 -8t4.5 -19l-84 -395q-13 -60 9 -94t82 -34t97 34t50 94l84 395q2 11 11.5 19t20.5 8h131zM440 830
q-3 -13 4 -21.5t20 -8.5t23 8.5t13 21.5t-4 21.5t-20 8.5t-23 -8.5t-13 -21.5zM376 832q8 39 38.5 63.5t69.5 24.5q19 0 35.5 -7t28 -19.5t16 -29.5t0.5 -36q-8 -39 -38.5 -63.5t-69.5 -24.5q-20 0 -36 7t-27.5 19.5t-16 29t-0.5 36.5z" />
    <glyph glyph-name="Utilde" unicode="&#x168;" horiz-adv-x="735" 
d="M728 700q11 0 17.5 -8t4.5 -19l-85 -399q-29 -139 -116.5 -211.5t-238.5 -72.5q-61 0 -113.5 18.5t-88.5 54.5t-51 89t0 122l85 399q2 11 11.5 19t20.5 8h131q11 0 17.5 -8t4.5 -19l-84 -395q-13 -60 9 -94t82 -34t97 34t50 94l84 395q2 11 11.5 19t20.5 8h131zM551 745
q-31 0 -49.5 7t-31.5 15.5t-24.5 15.5t-27.5 7q-12 0 -19.5 -6.5t-13 -14t-11 -13.5t-13.5 -6h-76q-9 0 -13 5.5t-2 13.5q5 22 16.5 46.5t29.5 44t42 32.5t53 13q31 0 49.5 -7t31.5 -15.5t24 -15.5t27 -7q12 0 19.5 6t13.5 13.5t11.5 14t13.5 6.5h76q9 0 13 -5.5t2 -13.5
q-5 -23 -18 -47t-32 -43.5t-42.5 -32.5t-48.5 -13z" />
    <glyph glyph-name="V" unicode="V" horiz-adv-x="698" 
d="M219 0q-40 0 -45 40l-71 625q-4 35 26 35h121q20 0 26.5 -8.5t7.5 -16.5l45 -440l233 440q4 8 14 16.5t30 8.5h134q16 0 17 -12t-5 -23l-337 -625q-23 -40 -61 -40h-135z" />
    <glyph glyph-name="W" unicode="W" horiz-adv-x="826" 
d="M555 335l136 338q6 15 16 21t20 6h133q14 0 17 -9.5t-2 -20.5l-255 -632q-5 -14 -21.5 -26t-36.5 -12h-90q-20 0 -30.5 12t-11.5 26l-25 226l-117 -226q-7 -14 -22.5 -26t-35.5 -12h-92q-20 0 -31.5 12t-10.5 26l14 632q0 11 7.5 20.5t19.5 9.5h128q10 0 18 -6t8 -21
l-8 -338l84 181q4 7 13 18t27 11h109q18 0 22.5 -11t5.5 -18z" />
    <glyph glyph-name="Wacute" unicode="&#x1e82;" horiz-adv-x="826" 
d="M555 335l136 338q6 15 16 21t20 6h133q14 0 17 -9.5t-2 -20.5l-255 -632q-5 -14 -21.5 -26t-36.5 -12h-90q-20 0 -30.5 12t-11.5 26l-25 226l-117 -226q-7 -14 -22.5 -26t-35.5 -12h-92q-20 0 -31.5 12t-10.5 26l14 632q0 11 7.5 20.5t19.5 9.5h128q10 0 18 -6t8 -21
l-8 -338l84 181q4 7 13 18t27 11h109q18 0 22.5 -11t5.5 -18zM532 891q14 13 22 16t19 3h153q14 0 15.5 -12.5t-8.5 -19.5l-158 -111q-10 -7 -20 -12t-26 -5h-106q-13 0 -15.5 9.5t5.5 16.5z" />
    <glyph glyph-name="Wcircumflex" unicode="&#x174;" horiz-adv-x="826" 
d="M555 335l136 338q6 15 16 21t20 6h133q14 0 17 -9.5t-2 -20.5l-255 -632q-5 -14 -21.5 -26t-36.5 -12h-90q-20 0 -30.5 12t-11.5 26l-25 226l-117 -226q-7 -14 -22.5 -26t-35.5 -12h-92q-20 0 -31.5 12t-10.5 26l14 632q0 11 7.5 20.5t19.5 9.5h128q10 0 18 -6t8 -21
l-8 -338l84 181q4 7 13 18t27 11h109q18 0 22.5 -11t5.5 -18zM566 910q11 0 18 -4t15 -15l78 -112q6 -10 0 -19.5t-17 -9.5h-56q-10 0 -15.5 3t-13.5 8l-70 43l-87 -43q-10 -5 -17 -8t-17 -3h-77q-13 0 -14 10t6 16l129 115q12 11 21 15t20 4h97z" />
    <glyph glyph-name="Wdieresis" unicode="&#x1e84;" horiz-adv-x="826" 
d="M555 335l136 338q6 15 16 21t20 6h133q14 0 17 -9.5t-2 -20.5l-255 -632q-5 -14 -21.5 -26t-36.5 -12h-90q-20 0 -30.5 12t-11.5 26l-25 226l-117 -226q-7 -14 -22.5 -26t-35.5 -12h-92q-20 0 -31.5 12t-10.5 26l14 632q0 11 7.5 20.5t19.5 9.5h128q10 0 18 -6t8 -21
l-8 -338l84 181q4 7 13 18t27 11h109q18 0 22.5 -11t5.5 -18zM450 777q-2 -11 -12 -19t-21 -8h-101q-11 0 -17.5 8t-3.5 19l21 101q2 11 12 19t21 8h101q11 0 17 -8t4 -19zM705 777q-2 -11 -12 -19t-21 -8h-101q-11 0 -17.5 8t-3.5 19l21 101q2 11 12 19t21 8h101
q11 0 17 -8t4 -19z" />
    <glyph glyph-name="Wgrave" unicode="&#x1e80;" horiz-adv-x="826" 
d="M555 335l136 338q6 15 16 21t20 6h133q14 0 17 -9.5t-2 -20.5l-255 -632q-5 -14 -21.5 -26t-36.5 -12h-90q-20 0 -30.5 12t-11.5 26l-25 226l-117 -226q-7 -14 -22.5 -26t-35.5 -12h-92q-20 0 -31.5 12t-10.5 26l14 632q0 11 7.5 20.5t19.5 9.5h128q10 0 18 -6t8 -21
l-8 -338l84 181q4 7 13 18t27 11h109q18 0 22.5 -11t5.5 -18zM574 779q6 -10 0 -19.5t-17 -9.5h-98q-16 0 -23.5 5t-14.5 12l-109 108q-9 9 -2.5 22t18.5 13h145q11 0 18 -3t15 -16z" />
    <glyph glyph-name="X" unicode="X" horiz-adv-x="715" 
d="M-31 0q-13 0 -17 12t5 21l302 328l-153 306q-5 11 4.5 22t21.5 11h141q20 0 27 -10t10 -15l86 -172l155 174q8 9 17 16t29 7h170q15 0 17.5 -11.5t-5.5 -21.5l-299 -331l153 -303q7 -15 -3.5 -24t-22.5 -9h-142q-20 0 -26 7t-11 16l-86 171l-158 -171q-8 -9 -16.5 -16
t-28.5 -7h-170v0z" />
    <glyph glyph-name="Y" unicode="Y" horiz-adv-x="688" 
d="M380 27q-2 -11 -11.5 -19t-20.5 -8h-134q-11 0 -17.5 8t-4.5 19l46 213l-141 425q-5 13 3.5 24t21.5 11h126q20 0 27.5 -10t9.5 -15l77 -243l176 243q3 5 15 15t32 10h150q16 0 18 -12t-6 -23l-321 -425z" />
    <glyph glyph-name="Yacute" unicode="&#xdd;" horiz-adv-x="688" 
d="M380 27q-2 -11 -11.5 -19t-20.5 -8h-134q-11 0 -17.5 8t-4.5 19l46 213l-141 425q-5 13 3.5 24t21.5 11h126q20 0 27.5 -10t9.5 -15l77 -243l176 243q3 5 15 15t32 10h150q16 0 18 -12t-6 -23l-321 -425zM465 891q14 13 22 16t19 3h153q14 0 15.5 -12.5t-8.5 -19.5
l-158 -111q-10 -7 -20 -12t-26 -5h-106q-13 0 -15.5 9.5t5.5 16.5z" />
    <glyph glyph-name="Ycircumflex" unicode="&#x176;" horiz-adv-x="688" 
d="M380 27q-2 -11 -11.5 -19t-20.5 -8h-134q-11 0 -17.5 8t-4.5 19l46 213l-141 425q-5 13 3.5 24t21.5 11h126q20 0 27.5 -10t9.5 -15l77 -243l176 243q3 5 15 15t32 10h150q16 0 18 -12t-6 -23l-321 -425zM491 910q11 0 18 -4t15 -15l78 -112q6 -10 0 -19.5t-17 -9.5h-56
q-10 0 -15.5 3t-13.5 8l-70 43l-87 -43q-10 -5 -17 -8t-17 -3h-77q-13 0 -14 10t6 16l129 115q12 11 21 15t20 4h97z" />
    <glyph glyph-name="Ydieresis" unicode="&#x178;" horiz-adv-x="688" 
d="M380 27q-2 -11 -11.5 -19t-20.5 -8h-134q-11 0 -17.5 8t-4.5 19l46 213l-141 425q-5 13 3.5 24t21.5 11h126q20 0 27.5 -10t9.5 -15l77 -243l176 243q3 5 15 15t32 10h150q16 0 18 -12t-6 -23l-321 -425zM374 777q-2 -11 -12 -19t-21 -8h-101q-11 0 -17.5 8t-3.5 19
l21 101q2 11 12 19t21 8h101q11 0 17 -8t4 -19zM629 777q-2 -11 -12 -19t-21 -8h-101q-11 0 -17.5 8t-3.5 19l21 101q2 11 12 19t21 8h101q11 0 17 -8t4 -19z" />
    <glyph glyph-name="Ygrave" unicode="&#x1ef2;" horiz-adv-x="688" 
d="M380 27q-2 -11 -11.5 -19t-20.5 -8h-134q-11 0 -17.5 8t-4.5 19l46 213l-141 425q-5 13 3.5 24t21.5 11h126q20 0 27.5 -10t9.5 -15l77 -243l176 243q3 5 15 15t32 10h150q16 0 18 -12t-6 -23l-321 -425zM497 779q6 -10 0 -19.5t-17 -9.5h-98q-16 0 -23.5 5t-14.5 12
l-109 108q-9 9 -2.5 22t18.5 13h145q11 0 18 -3t15 -16z" />
    <glyph glyph-name="Z" unicode="Z" horiz-adv-x="669" 
d="M574 160q11 0 17 -8t4 -19l-23 -106q-2 -11 -11.5 -19t-20.5 -8h-536q-11 0 -17.5 8t-4.5 19l22 101q3 14 10 22t12 13l390 377h-288q-11 0 -17 8t-4 19l23 106q2 11 11.5 19t20.5 8h516q11 0 17.5 -8t4.5 -19l-22 -101q-2 -11 -7 -18t-13 -15l-390 -379h306z" />
    <glyph glyph-name="Zacute" unicode="&#x179;" horiz-adv-x="669" 
d="M574 160q11 0 17 -8t4 -19l-23 -106q-2 -11 -11.5 -19t-20.5 -8h-536q-11 0 -17.5 8t-4.5 19l22 101q3 14 10 22t12 13l390 377h-288q-11 0 -17 8t-4 19l23 106q2 11 11.5 19t20.5 8h516q11 0 17.5 -8t4.5 -19l-22 -101q-2 -11 -7 -18t-13 -15l-390 -379h306zM463 891
q14 13 22 16t19 3h153q14 0 15.5 -12.5t-8.5 -19.5l-158 -111q-10 -7 -20 -12t-26 -5h-106q-13 0 -15.5 9.5t5.5 16.5z" />
    <glyph glyph-name="Zcaron" unicode="&#x17d;" horiz-adv-x="669" 
d="M574 160q11 0 17 -8t4 -19l-23 -106q-2 -11 -11.5 -19t-20.5 -8h-536q-11 0 -17.5 8t-4.5 19l22 101q3 14 10 22t12 13l390 377h-288q-11 0 -17 8t-4 19l23 106q2 11 11.5 19t20.5 8h516q11 0 17.5 -8t4.5 -19l-22 -101q-2 -11 -7 -18t-13 -15l-390 -379h306zM383 750
q-11 0 -18 4t-15 15l-78 112q-6 10 0 19.5t17 9.5h55q10 0 15.5 -3t13.5 -8l70 -43l87 43q10 5 17 8t17 3h78q13 0 14 -10t-6 -16l-129 -115q-12 -11 -21 -15t-20 -4h-97z" />
    <glyph glyph-name="Zdotaccent" unicode="&#x17b;" horiz-adv-x="669" 
d="M574 160q11 0 17 -8t4 -19l-23 -106q-2 -11 -11.5 -19t-20.5 -8h-536q-11 0 -17.5 8t-4.5 19l22 101q3 14 10 22t12 13l390 377h-288q-11 0 -17 8t-4 19l23 106q2 11 11.5 19t20.5 8h516q11 0 17.5 -8t4.5 -19l-22 -101q-2 -11 -7 -18t-13 -15l-390 -379h306zM518 777
q-2 -11 -12 -19t-21 -8h-111q-11 0 -17 8t-4 19l23 111q2 11 12 19t21 8h111q11 0 17 -8t4 -19z" />
    <glyph glyph-name="a" unicode="a" 
d="M301 530q29 0 51 -6t38 -15t26 -19.5t15 -19.5l5 23q2 11 11.5 19t20.5 8h126q11 0 17.5 -8t4.5 -19l-98 -466q-2 -11 -11.5 -19t-20.5 -8h-127q-11 0 -17.5 8t-4.5 19l5 23q-8 -12 -19 -23t-28 -19.5t-41.5 -13t-57.5 -4.5q-38 0 -73.5 14.5t-61 43.5t-37.5 73t-2 103
q1 7 3 18t4.5 22.5t5 22t4.5 18.5q15 59 41 101.5t60 70t75 40.5t86 13zM215 288q-5 -15 -7.5 -28t-4.5 -28q-2 -18 0 -33.5t10 -27.5t23 -19t38 -7q22 0 39 7t30 18.5t21.5 25.5t13.5 29q6 15 10 35t5 35t-1.5 29t-10.5 25.5t-22 18.5t-36 7q-47 0 -72 -26t-36 -61z" />
    <glyph glyph-name="aacute" unicode="&#xe1;" 
d="M301 530q29 0 51 -6t38 -15t26 -19.5t15 -19.5l5 23q2 11 11.5 19t20.5 8h126q11 0 17.5 -8t4.5 -19l-98 -466q-2 -11 -11.5 -19t-20.5 -8h-127q-11 0 -17.5 8t-4.5 19l5 23q-8 -12 -19 -23t-28 -19.5t-41.5 -13t-57.5 -4.5q-38 0 -73.5 14.5t-61 43.5t-37.5 73t-2 103
q1 7 3 18t4.5 22.5t5 22t4.5 18.5q15 59 41 101.5t60 70t75 40.5t86 13zM215 288q-5 -15 -7.5 -28t-4.5 -28q-2 -18 0 -33.5t10 -27.5t23 -19t38 -7q22 0 39 7t30 18.5t21.5 25.5t13.5 29q6 15 10 35t5 35t-1.5 29t-10.5 25.5t-22 18.5t-36 7q-47 0 -72 -26t-36 -61z
M423 736q14 14 22 16.5t19 2.5h143q14 0 15.5 -12.5t-8.5 -19.5l-158 -111q-10 -7 -19.5 -12t-25.5 -5h-98q-13 0 -14.5 10t6.5 17z" />
    <glyph glyph-name="abreve" unicode="&#x103;" 
d="M301 530q29 0 51 -6t38 -15t26 -19.5t15 -19.5l5 23q2 11 11.5 19t20.5 8h126q11 0 17.5 -8t4.5 -19l-98 -466q-2 -11 -11.5 -19t-20.5 -8h-127q-11 0 -17.5 8t-4.5 19l5 23q-8 -12 -19 -23t-28 -19.5t-41.5 -13t-57.5 -4.5q-38 0 -73.5 14.5t-61 43.5t-37.5 73t-2 103
q1 7 3 18t4.5 22.5t5 22t4.5 18.5q15 59 41 101.5t60 70t75 40.5t86 13zM215 288q-5 -15 -7.5 -28t-4.5 -28q-2 -18 0 -33.5t10 -27.5t23 -19t38 -7q22 0 39 7t30 18.5t21.5 25.5t13.5 29q6 15 10 35t5 35t-1.5 29t-10.5 25.5t-22 18.5t-36 7q-47 0 -72 -26t-36 -61z
M373 590q-42 0 -72 13.5t-47.5 35t-23 47.5t-0.5 50q2 8 8 13.5t15 5.5h84q9 0 13 -5.5t2 -13.5q-4 -19 3 -34.5t28 -15.5t35 15.5t18 34.5q2 8 8 13.5t15 5.5h84q9 0 13 -5.5t2 -13.5q-5 -24 -16 -50t-32 -47.5t-54 -35t-83 -13.5z" />
    <glyph glyph-name="acircumflex" unicode="&#xe2;" 
d="M301 530q29 0 51 -6t38 -15t26 -19.5t15 -19.5l5 23q2 11 11.5 19t20.5 8h126q11 0 17.5 -8t4.5 -19l-98 -466q-2 -11 -11.5 -19t-20.5 -8h-127q-11 0 -17.5 8t-4.5 19l5 23q-8 -12 -19 -23t-28 -19.5t-41.5 -13t-57.5 -4.5q-38 0 -73.5 14.5t-61 43.5t-37.5 73t-2 103
q1 7 3 18t4.5 22.5t5 22t4.5 18.5q15 59 41 101.5t60 70t75 40.5t86 13zM215 288q-5 -15 -7.5 -28t-4.5 -28q-2 -18 0 -33.5t10 -27.5t23 -19t38 -7q22 0 39 7t30 18.5t21.5 25.5t13.5 29q6 15 10 35t5 35t-1.5 29t-10.5 25.5t-22 18.5t-36 7q-47 0 -72 -26t-36 -61z
M438 755q11 0 18 -4t15 -15l78 -112q6 -10 0 -19.5t-17 -9.5h-51q-10 0 -15.5 3t-13.5 8l-73 44l-80 -44q-10 -5 -17 -8t-17 -3h-77q-13 0 -14 10t6 16l129 115q12 11 20 15t21 4h88z" />
    <glyph glyph-name="adieresis" unicode="&#xe4;" 
d="M301 530q29 0 51 -6t38 -15t26 -19.5t15 -19.5l5 23q2 11 11.5 19t20.5 8h126q11 0 17.5 -8t4.5 -19l-98 -466q-2 -11 -11.5 -19t-20.5 -8h-127q-11 0 -17.5 8t-4.5 19l5 23q-8 -12 -19 -23t-28 -19.5t-41.5 -13t-57.5 -4.5q-38 0 -73.5 14.5t-61 43.5t-37.5 73t-2 103
q1 7 3 18t4.5 22.5t5 22t4.5 18.5q15 59 41 101.5t60 70t75 40.5t86 13zM215 288q-5 -15 -7.5 -28t-4.5 -28q-2 -18 0 -33.5t10 -27.5t23 -19t38 -7q22 0 39 7t30 18.5t21.5 25.5t13.5 29q6 15 10 35t5 35t-1.5 29t-10.5 25.5t-22 18.5t-36 7q-47 0 -72 -26t-36 -61z
M342 622q-2 -11 -12 -19t-21 -8h-101q-11 0 -17 8t-4 19l21 101q2 11 12 19t21 8h101q11 0 17 -8t4 -19zM567 622q-2 -11 -12 -19t-21 -8h-101q-11 0 -17 8t-4 19l21 101q2 11 12 19t21 8h101q11 0 17 -8t4 -19z" />
    <glyph glyph-name="agrave" unicode="&#xe0;" 
d="M301 530q29 0 51 -6t38 -15t26 -19.5t15 -19.5l5 23q2 11 11.5 19t20.5 8h126q11 0 17.5 -8t4.5 -19l-98 -466q-2 -11 -11.5 -19t-20.5 -8h-127q-11 0 -17.5 8t-4.5 19l5 23q-8 -12 -19 -23t-28 -19.5t-41.5 -13t-57.5 -4.5q-38 0 -73.5 14.5t-61 43.5t-37.5 73t-2 103
q1 7 3 18t4.5 22.5t5 22t4.5 18.5q15 59 41 101.5t60 70t75 40.5t86 13zM215 288q-5 -15 -7.5 -28t-4.5 -28q-2 -18 0 -33.5t10 -27.5t23 -19t38 -7q22 0 39 7t30 18.5t21.5 25.5t13.5 29q6 15 10 35t5 35t-1.5 29t-10.5 25.5t-22 18.5t-36 7q-47 0 -72 -26t-36 -61z
M435 624q5 -9 0 -19t-17 -10h-88q-16 0 -23.5 5t-14.5 12l-106 105q-9 9 -4 23.5t19 14.5h133q11 0 18 -3t15 -16z" />
    <glyph glyph-name="amacron" unicode="&#x101;" 
d="M301 530q29 0 51 -6t38 -15t26 -19.5t15 -19.5l5 23q2 11 11.5 19t20.5 8h126q11 0 17.5 -8t4.5 -19l-98 -466q-2 -11 -11.5 -19t-20.5 -8h-127q-11 0 -17.5 8t-4.5 19l5 23q-8 -12 -19 -23t-28 -19.5t-41.5 -13t-57.5 -4.5q-38 0 -73.5 14.5t-61 43.5t-37.5 73t-2 103
q1 7 3 18t4.5 22.5t5 22t4.5 18.5q15 59 41 101.5t60 70t75 40.5t86 13zM215 288q-5 -15 -7.5 -28t-4.5 -28q-2 -18 0 -33.5t10 -27.5t23 -19t38 -7q22 0 39 7t30 18.5t21.5 25.5t13.5 29q6 15 10 35t5 35t-1.5 29t-10.5 25.5t-22 18.5t-36 7q-47 0 -72 -26t-36 -61z
M221 595q-11 0 -17 8t-4 19l18 86q2 11 12 19t21 8h289q11 0 17 -8t4 -19l-18 -86q-2 -11 -12 -19t-21 -8h-289z" />
    <glyph glyph-name="aogonek" unicode="&#x105;" 
d="M301 530q29 0 51 -6t38 -15t26 -19.5t15 -19.5l5 23q2 11 11.5 19t20.5 8h126q11 0 17.5 -8t4.5 -19l-98 -466q-2 -11 -11.5 -19t-20.5 -8h-15q-24 -2 -40.5 -17.5t-20.5 -38.5q-5 -23 5.5 -39.5t36.5 -16.5h15q22 0 17 -22l-14 -64q-2 -10 -9 -16t-17 -6h-19
q-30 0 -56.5 13t-44.5 36t-25.5 53.5t0.5 66.5q10 52 38 77v1l5 23q-8 -12 -19 -23t-28 -19.5t-41.5 -13t-57.5 -4.5q-38 0 -73.5 14.5t-61 43.5t-37.5 73t-2 103q1 7 3 18t4.5 22.5t5 22t4.5 18.5q15 59 41 101.5t60 70t75 40.5t86 13zM215 288q-5 -15 -7.5 -28t-4.5 -28
q-2 -18 0 -33.5t10 -27.5t23 -19t38 -7q22 0 39 7t30 18.5t21.5 25.5t13.5 29q6 15 10 35t5 35t-1.5 29t-10.5 25.5t-22 18.5t-36 7q-47 0 -72 -26t-36 -61z" />
    <glyph glyph-name="aring" unicode="&#xe5;" 
d="M301 530q29 0 51 -6t38 -15t26 -19.5t15 -19.5l5 23q2 11 11.5 19t20.5 8h126q11 0 17.5 -8t4.5 -19l-98 -466q-2 -11 -11.5 -19t-20.5 -8h-127q-11 0 -17.5 8t-4.5 19l5 23q-8 -12 -19 -23t-28 -19.5t-41.5 -13t-57.5 -4.5q-38 0 -73.5 14.5t-61 43.5t-37.5 73t-2 103
q1 7 3 18t4.5 22.5t5 22t4.5 18.5q15 59 41 101.5t60 70t75 40.5t86 13zM215 288q-5 -15 -7.5 -28t-4.5 -28q-2 -18 0 -33.5t10 -27.5t23 -19t38 -7q22 0 39 7t30 18.5t21.5 25.5t13.5 29q6 15 10 35t5 35t-1.5 29t-10.5 25.5t-22 18.5t-36 7q-47 0 -72 -26t-36 -61z
M353 680q-3 -13 4 -21.5t20 -8.5t23 8.5t13 21.5t-4 21.5t-20 8.5t-23 -8.5t-13 -21.5zM289 682q8 39 38.5 63.5t69.5 24.5q19 0 35.5 -7t28 -19.5t16 -29.5t0.5 -36q-8 -39 -38.5 -63.5t-69.5 -24.5q-20 0 -36 7t-27.5 19.5t-16 29t-0.5 36.5z" />
    <glyph glyph-name="atilde" unicode="&#xe3;" 
d="M301 530q29 0 51 -6t38 -15t26 -19.5t15 -19.5l5 23q2 11 11.5 19t20.5 8h126q11 0 17.5 -8t4.5 -19l-98 -466q-2 -11 -11.5 -19t-20.5 -8h-127q-11 0 -17.5 8t-4.5 19l5 23q-8 -12 -19 -23t-28 -19.5t-41.5 -13t-57.5 -4.5q-38 0 -73.5 14.5t-61 43.5t-37.5 73t-2 103
q1 7 3 18t4.5 22.5t5 22t4.5 18.5q15 59 41 101.5t60 70t75 40.5t86 13zM215 288q-5 -15 -7.5 -28t-4.5 -28q-2 -18 0 -33.5t10 -27.5t23 -19t38 -7q22 0 39 7t30 18.5t21.5 25.5t13.5 29q6 15 10 35t5 35t-1.5 29t-10.5 25.5t-22 18.5t-36 7q-47 0 -72 -26t-36 -61z
M458 590q-30 0 -46.5 7t-28.5 15.5t-22 15.5t-26 7q-12 0 -19.5 -6.5t-13 -14t-11 -13.5t-13.5 -6h-76q-9 0 -13 5.5t-2 13.5q5 22 16.5 46.5t29.5 44t42 32.5t53 13q30 0 46.5 -7t28 -15.5t21.5 -15.5t26 -7q12 0 19.5 6t13.5 13.5t11.5 14t13.5 6.5h76q9 0 13 -5.5
t2 -13.5q-5 -23 -18 -47t-32 -43.5t-42.5 -32.5t-48.5 -13z" />
    <glyph glyph-name="ae" unicode="&#xe6;" horiz-adv-x="928" 
d="M517 203q-5 -23 0 -38t16.5 -24t26.5 -12.5t30 -3.5q30 0 49 6t33 17q13 9 18.5 11.5t17.5 2.5h130q22 0 17 -22q-2 -12 -18 -36.5t-49.5 -50t-86.5 -44.5t-130 -19q-62 0 -110.5 22.5t-78.5 64.5q-29 -29 -60 -46.5t-62 -26.5t-60 -11.5t-53 -2.5q-39 0 -71 12t-53 33
t-29.5 50t-1.5 63q14 66 74 109t178 63l121 20q5 24 -5 39.5t-42 15.5q-23 0 -36.5 -6.5t-20.5 -11.5q-11 -8 -19.5 -10t-19.5 -2h-127q-10 0 -15 6t-2 16q7 23 26 48t51.5 46t77.5 35t104 14q50 0 88.5 -11.5t65.5 -31.5q35 21 78 32t97 11q66 0 112.5 -24.5t74.5 -63.5
t36.5 -87.5t-1.5 -96.5l-6 -28q-2 -11 -11.5 -19t-20.5 -8h-333zM647 395q-42 0 -69 -25t-38 -56h180q3 31 -14.5 56t-58.5 25zM215 125q22 0 42.5 7.5t37.5 20.5t28.5 30.5t15.5 37.5l-95 -14q-28 -5 -46.5 -17t-23.5 -31q-4 -19 7 -26.5t34 -7.5z" />
    <glyph glyph-name="aeacute" unicode="&#x1fd;" horiz-adv-x="928" 
d="M517 203q-5 -23 0 -38t16.5 -24t26.5 -12.5t30 -3.5q30 0 49 6t33 17q13 9 18.5 11.5t17.5 2.5h130q22 0 17 -22q-2 -12 -18 -36.5t-49.5 -50t-86.5 -44.5t-130 -19q-62 0 -110.5 22.5t-78.5 64.5q-29 -29 -60 -46.5t-62 -26.5t-60 -11.5t-53 -2.5q-39 0 -71 12t-53 33
t-29.5 50t-1.5 63q14 66 74 109t178 63l121 20q5 24 -5 39.5t-42 15.5q-23 0 -36.5 -6.5t-20.5 -11.5q-11 -8 -19.5 -10t-19.5 -2h-127q-10 0 -15 6t-2 16q7 23 26 48t51.5 46t77.5 35t104 14q50 0 88.5 -11.5t65.5 -31.5q35 21 78 32t97 11q66 0 112.5 -24.5t74.5 -63.5
t36.5 -87.5t-1.5 -96.5l-6 -28q-2 -11 -11.5 -19t-20.5 -8h-333zM647 395q-42 0 -69 -25t-38 -56h180q3 31 -14.5 56t-58.5 25zM215 125q22 0 42.5 7.5t37.5 20.5t28.5 30.5t15.5 37.5l-95 -14q-28 -5 -46.5 -17t-23.5 -31q-4 -19 7 -26.5t34 -7.5zM556 736q14 14 22 16.5
t19 2.5h143q14 0 15.5 -12.5t-8.5 -19.5l-158 -111q-10 -7 -19.5 -12t-25.5 -5h-98q-13 0 -14.5 10t6.5 17z" />
    <glyph glyph-name="b" unicode="b" horiz-adv-x="634" 
d="M412 530q42 0 79.5 -14.5t64.5 -44t38.5 -73.5t1.5 -103q-1 -8 -3 -18.5t-4.5 -22t-5 -22.5t-4.5 -18q-29 -118 -92.5 -171t-169.5 -53q-59 0 -90.5 19.5t-45.5 40.5l-5 -23q-2 -11 -11.5 -19t-20.5 -8h-121q-11 0 -17.5 8t-4.5 19l140 656q2 11 11.5 19t20.5 8h126
q11 0 17.5 -8t4.5 -19l-46 -213q9 9 20.5 19.5t28 19.5t38 15t50.5 6zM416 288q2 18 0 33.5t-10.5 27.5t-23.5 19t-38 7q-22 0 -39.5 -7t-30.5 -18.5t-22 -25.5t-14 -29t-9 -35t-6 -35q-1 -15 2 -29t11 -25.5t22.5 -18.5t36.5 -7q47 0 72.5 26t36.5 61q5 15 7.5 28t4.5 28z
" />
    <glyph glyph-name="c" unicode="c" horiz-adv-x="601" 
d="M217 295q-5 -15 -9 -35t-6 -35q-5 -36 14.5 -58t59.5 -22q33 0 52.5 9.5t34.5 26.5q7 8 14.5 14t18.5 6h131q11 0 18 -8t3 -19q-5 -16 -19 -47t-46.5 -61.5t-87.5 -53t-142 -22.5q-48 0 -94 17t-79.5 47.5t-50 74t-7.5 96.5l8 40t9 40q26 106 103.5 165.5t205.5 59.5
q72 0 118.5 -22.5t73.5 -53t37 -61.5t8 -47q-2 -11 -12 -19t-21 -8h-131q-11 0 -16 6t-8 14q-8 17 -23.5 26.5t-48.5 9.5q-40 0 -68.5 -22t-39.5 -58z" />
    <glyph glyph-name="cacute" unicode="&#x107;" horiz-adv-x="601" 
d="M217 295q-5 -15 -9 -35t-6 -35q-5 -36 14.5 -58t59.5 -22q33 0 52.5 9.5t34.5 26.5q7 8 14.5 14t18.5 6h131q11 0 18 -8t3 -19q-5 -16 -19 -47t-46.5 -61.5t-87.5 -53t-142 -22.5q-48 0 -94 17t-79.5 47.5t-50 74t-7.5 96.5l8 40t9 40q26 106 103.5 165.5t205.5 59.5
q72 0 118.5 -22.5t73.5 -53t37 -61.5t8 -47q-2 -11 -12 -19t-21 -8h-131q-11 0 -16 6t-8 14q-8 17 -23.5 26.5t-48.5 9.5q-40 0 -68.5 -22t-39.5 -58zM417 736q14 14 22 16.5t19 2.5h143q14 0 15.5 -12.5t-8.5 -19.5l-158 -111q-10 -7 -19.5 -12t-25.5 -5h-98
q-13 0 -14.5 10t6.5 17z" />
    <glyph glyph-name="ccaron" unicode="&#x10d;" horiz-adv-x="601" 
d="M217 295q-5 -15 -9 -35t-6 -35q-5 -36 14.5 -58t59.5 -22q33 0 52.5 9.5t34.5 26.5q7 8 14.5 14t18.5 6h131q11 0 18 -8t3 -19q-5 -16 -19 -47t-46.5 -61.5t-87.5 -53t-142 -22.5q-48 0 -94 17t-79.5 47.5t-50 74t-7.5 96.5l8 40t9 40q26 106 103.5 165.5t205.5 59.5
q72 0 118.5 -22.5t73.5 -53t37 -61.5t8 -47q-2 -11 -12 -19t-21 -8h-131q-11 0 -16 6t-8 14q-8 17 -23.5 26.5t-48.5 9.5q-40 0 -68.5 -22t-39.5 -58zM320 595q-11 0 -18 4t-15 15l-78 112q-6 10 0 19.5t17 9.5h55q10 0 15.5 -3t13.5 -8l73 -44l80 44q10 5 17 8t17 3h73
q13 0 14 -10t-6 -16l-129 -115q-12 -11 -20 -15t-21 -4h-88z" />
    <glyph glyph-name="ccedilla" unicode="&#xe7;" horiz-adv-x="601" 
d="M216 295q-5 -15 -9 -35t-6 -35q-5 -36 14.5 -58t59.5 -22q33 0 52.5 9.5t34.5 26.5q7 8 14.5 14t18.5 6h131q11 0 18 -8t3 -19q-5 -16 -19 -47t-46.5 -61.5t-87.5 -53t-142 -22.5h-10l-30 -44q7 4 17.5 7t21.5 3q31 0 48 -27.5t9 -63.5t-31 -60.5t-76 -24.5q-16 0 -34 5
t-30.5 13t-17.5 16.5t6 16.5l21 16q10 7 15 7t10.5 -3t12.5 -6.5t20 -3.5q14 0 24.5 6t13.5 21q3 14 -4.5 20.5t-22.5 6.5q-7 0 -15 -2t-15.5 -3.5t-13.5 -1t-10 5.5l-14 21q-4 8 -5.5 15t6.5 18l35 51q-38 10 -71 30t-56 49t-33 66t-2 81l8 40t9 40q26 106 103.5 165.5
t205.5 59.5q72 0 118.5 -22.5t73.5 -53t37 -61.5t8 -47q-2 -11 -12 -19t-21 -8h-131q-11 0 -16 6t-8 14q-8 17 -23.5 26.5t-48.5 9.5q-40 0 -68.5 -22t-39.5 -58z" />
    <glyph glyph-name="ccircumflex" unicode="&#x109;" horiz-adv-x="601" 
d="M217 295q-5 -15 -9 -35t-6 -35q-5 -36 14.5 -58t59.5 -22q33 0 52.5 9.5t34.5 26.5q7 8 14.5 14t18.5 6h131q11 0 18 -8t3 -19q-5 -16 -19 -47t-46.5 -61.5t-87.5 -53t-142 -22.5q-48 0 -94 17t-79.5 47.5t-50 74t-7.5 96.5l8 40t9 40q26 106 103.5 165.5t205.5 59.5
q72 0 118.5 -22.5t73.5 -53t37 -61.5t8 -47q-2 -11 -12 -19t-21 -8h-131q-11 0 -16 6t-8 14q-8 17 -23.5 26.5t-48.5 9.5q-40 0 -68.5 -22t-39.5 -58zM431 755q11 0 18 -4t15 -15l78 -112q6 -10 0 -19.5t-17 -9.5h-51q-10 0 -15.5 3t-13.5 8l-73 44l-80 -44q-10 -5 -17 -8
t-17 -3h-77q-13 0 -14 10t6 16l129 115q12 11 20 15t21 4h88z" />
    <glyph glyph-name="cdotaccent" unicode="&#x10b;" horiz-adv-x="601" 
d="M217 295q-5 -15 -9 -35t-6 -35q-5 -36 14.5 -58t59.5 -22q33 0 52.5 9.5t34.5 26.5q7 8 14.5 14t18.5 6h131q11 0 18 -8t3 -19q-5 -16 -19 -47t-46.5 -61.5t-87.5 -53t-142 -22.5q-48 0 -94 17t-79.5 47.5t-50 74t-7.5 96.5l8 40t9 40q26 106 103.5 165.5t205.5 59.5
q72 0 118.5 -22.5t73.5 -53t37 -61.5t8 -47q-2 -11 -12 -19t-21 -8h-131q-11 0 -16 6t-8 14q-8 17 -23.5 26.5t-48.5 9.5q-40 0 -68.5 -22t-39.5 -58zM449 622q-2 -11 -12 -19t-21 -8h-111q-11 0 -17 8t-4 19l23 111q2 11 12 19t21 8h111q11 0 17 -8t4 -19z" />
    <glyph glyph-name="d" unicode="d" horiz-adv-x="635" 
d="M302 530q29 0 51.5 -6t38.5 -15t26 -19.5t15 -19.5l46 213q2 11 11.5 19t20.5 8h126q11 0 17.5 -8t4.5 -19l-140 -656q-2 -11 -11.5 -19t-20.5 -8h-121q-11 0 -17.5 8t-4.5 19l5 23q-9 -10 -19 -20.5t-25 -19.5t-38 -14.5t-60 -5.5q-38 0 -75 14.5t-64.5 43.5t-41 73
t-3.5 103q1 7 3 18t4.5 22.5t5 22t4.5 18.5q30 118 93 171.5t169 53.5zM216 288q-5 -15 -7.5 -28t-4.5 -28q-2 -18 0 -33.5t10 -27.5t23 -19t38 -7q22 0 39.5 7t30.5 18.5t22 25.5t14 29q6 15 10 35t5 35t-2 29t-11 25.5t-22.5 18.5t-36.5 7q-47 0 -72 -26t-36 -61z" />
    <glyph glyph-name="dcaron" unicode="&#x10f;" horiz-adv-x="740" 
d="M302 530q29 0 51.5 -6t38.5 -15t26 -19.5t15 -19.5l46 213q2 11 11.5 19t20.5 8h126q11 0 17.5 -8t4.5 -19l-140 -656q-2 -11 -11.5 -19t-20.5 -8h-121q-11 0 -17.5 8t-4.5 19l5 23q-9 -10 -19 -20.5t-25 -19.5t-38 -14.5t-60 -5.5q-38 0 -75 14.5t-64.5 43.5t-41 73
t-3.5 103q1 7 3 18t4.5 22.5t5 22t4.5 18.5q30 118 93 171.5t169 53.5zM216 288q-5 -15 -7.5 -28t-4.5 -28q-2 -18 0 -33.5t10 -27.5t23 -19t38 -7q22 0 39.5 7t30.5 18.5t22 25.5t14 29q6 15 10 35t5 35t-2 29t-11 25.5t-22.5 18.5t-36.5 7q-47 0 -72 -26t-36 -61zM720 671
q5 14 18 26.5t33 12.5h115q11 0 16 -9.5t-1 -19.5l-85 -139q-6 -10 -18 -21t-32 -11h-81q-10 0 -15.5 7.5t-1.5 16.5z" />
    <glyph glyph-name="dcroat" unicode="&#x111;" horiz-adv-x="635" 
d="M302 530q29 0 51.5 -6t38.5 -15t26 -19.5t15 -19.5l17 82h-52q-11 0 -17.5 8t-3.5 19l9 43q2 11 11.5 19t20.5 8h53l8 34q2 11 11.5 19t20.5 8h126q11 0 17.5 -8t4.5 -19l-8 -34h53q11 0 17.5 -8t4.5 -19l-9 -43q-3 -11 -12.5 -19t-20.5 -8h-53l-112 -525
q-2 -11 -11.5 -19t-20.5 -8h-121q-11 0 -17.5 8t-4.5 19l5 23q-9 -10 -19 -20.5t-25 -19.5t-38 -14.5t-60 -5.5q-38 0 -75 14.5t-64.5 43.5t-41 73t-3.5 103q1 7 3 18t4.5 22.5t5 22t4.5 18.5q30 118 93 171.5t169 53.5zM216 288q-5 -15 -7.5 -28t-4.5 -28q-2 -18 0 -33.5
t10 -27.5t23 -19t38 -7q22 0 39.5 7t30.5 18.5t22 25.5t14 29q6 15 10 35t5 35t-2 29t-11 25.5t-22.5 18.5t-36.5 7q-47 0 -72 -26t-36 -61z" />
    <glyph glyph-name="e" unicode="e" horiz-adv-x="605" 
d="M194 203q-5 -23 0 -38t16.5 -24t26.5 -12.5t30 -3.5q30 0 49 6t33 17q13 9 18.5 11.5t17.5 2.5h130q22 0 17 -22q-2 -12 -18 -36.5t-49.5 -50t-86.5 -44.5t-130 -19q-58 0 -104.5 20.5t-76.5 57t-41.5 88t2.5 114.5q12 58 37 106t64 82.5t92 53t122 18.5
q66 0 112.5 -24.5t74.5 -63.5t36.5 -87.5t-1.5 -96.5l-6 -28q-2 -11 -11.5 -19t-20.5 -8h-333zM324 395q-42 0 -69 -25t-38 -56h180q3 31 -14.5 56t-58.5 25z" />
    <glyph glyph-name="eacute" unicode="&#xe9;" horiz-adv-x="605" 
d="M194 203q-5 -23 0 -38t16.5 -24t26.5 -12.5t30 -3.5q30 0 49 6t33 17q13 9 18.5 11.5t17.5 2.5h130q22 0 17 -22q-2 -12 -18 -36.5t-49.5 -50t-86.5 -44.5t-130 -19q-58 0 -104.5 20.5t-76.5 57t-41.5 88t2.5 114.5q12 58 37 106t64 82.5t92 53t122 18.5
q66 0 112.5 -24.5t74.5 -63.5t36.5 -87.5t-1.5 -96.5l-6 -28q-2 -11 -11.5 -19t-20.5 -8h-333zM324 395q-42 0 -69 -25t-38 -56h180q3 31 -14.5 56t-58.5 25zM403 736q14 14 22 16.5t19 2.5h143q14 0 15.5 -12.5t-8.5 -19.5l-158 -111q-10 -7 -19.5 -12t-25.5 -5h-98
q-13 0 -14.5 10t6.5 17z" />
    <glyph glyph-name="ebreve" unicode="&#x115;" horiz-adv-x="605" 
d="M194 203q-5 -23 0 -38t16.5 -24t26.5 -12.5t30 -3.5q30 0 49 6t33 17q13 9 18.5 11.5t17.5 2.5h130q22 0 17 -22q-2 -12 -18 -36.5t-49.5 -50t-86.5 -44.5t-130 -19q-58 0 -104.5 20.5t-76.5 57t-41.5 88t2.5 114.5q12 58 37 106t64 82.5t92 53t122 18.5
q66 0 112.5 -24.5t74.5 -63.5t36.5 -87.5t-1.5 -96.5l-6 -28q-2 -11 -11.5 -19t-20.5 -8h-333zM324 395q-42 0 -69 -25t-38 -56h180q3 31 -14.5 56t-58.5 25zM357 590q-42 0 -72 13.5t-47.5 35t-23 47.5t-0.5 50q2 8 8 13.5t15 5.5h84q9 0 13 -5.5t2 -13.5q-4 -19 3 -34.5
t28 -15.5t35 15.5t18 34.5q2 8 8 13.5t15 5.5h84q9 0 13 -5.5t2 -13.5q-5 -24 -16 -50t-32 -47.5t-54 -35t-83 -13.5z" />
    <glyph glyph-name="ecaron" unicode="&#x11b;" horiz-adv-x="605" 
d="M194 203q-5 -23 0 -38t16.5 -24t26.5 -12.5t30 -3.5q30 0 49 6t33 17q13 9 18.5 11.5t17.5 2.5h130q22 0 17 -22q-2 -12 -18 -36.5t-49.5 -50t-86.5 -44.5t-130 -19q-58 0 -104.5 20.5t-76.5 57t-41.5 88t2.5 114.5q12 58 37 106t64 82.5t92 53t122 18.5
q66 0 112.5 -24.5t74.5 -63.5t36.5 -87.5t-1.5 -96.5l-6 -28q-2 -11 -11.5 -19t-20.5 -8h-333zM324 395q-42 0 -69 -25t-38 -56h180q3 31 -14.5 56t-58.5 25zM308 595q-11 0 -18 4t-15 15l-78 112q-6 10 0 19.5t17 9.5h55q10 0 15.5 -3t13.5 -8l73 -44l80 44q10 5 17 8t17 3
h73q13 0 14 -10t-6 -16l-129 -115q-12 -11 -20 -15t-21 -4h-88z" />
    <glyph glyph-name="ecircumflex" unicode="&#xea;" horiz-adv-x="605" 
d="M194 203q-5 -23 0 -38t16.5 -24t26.5 -12.5t30 -3.5q30 0 49 6t33 17q13 9 18.5 11.5t17.5 2.5h130q22 0 17 -22q-2 -12 -18 -36.5t-49.5 -50t-86.5 -44.5t-130 -19q-58 0 -104.5 20.5t-76.5 57t-41.5 88t2.5 114.5q12 58 37 106t64 82.5t92 53t122 18.5
q66 0 112.5 -24.5t74.5 -63.5t36.5 -87.5t-1.5 -96.5l-6 -28q-2 -11 -11.5 -19t-20.5 -8h-333zM324 395q-42 0 -69 -25t-38 -56h180q3 31 -14.5 56t-58.5 25zM425 755q11 0 18 -4t15 -15l78 -112q6 -10 0 -19.5t-17 -9.5h-51q-10 0 -15.5 3t-13.5 8l-73 44l-80 -44
q-10 -5 -17 -8t-17 -3h-77q-13 0 -14 10t6 16l129 115q12 11 20 15t21 4h88z" />
    <glyph glyph-name="edieresis" unicode="&#xeb;" horiz-adv-x="605" 
d="M194 203q-5 -23 0 -38t16.5 -24t26.5 -12.5t30 -3.5q30 0 49 6t33 17q13 9 18.5 11.5t17.5 2.5h130q22 0 17 -22q-2 -12 -18 -36.5t-49.5 -50t-86.5 -44.5t-130 -19q-58 0 -104.5 20.5t-76.5 57t-41.5 88t2.5 114.5q12 58 37 106t64 82.5t92 53t122 18.5
q66 0 112.5 -24.5t74.5 -63.5t36.5 -87.5t-1.5 -96.5l-6 -28q-2 -11 -11.5 -19t-20.5 -8h-333zM324 395q-42 0 -69 -25t-38 -56h180q3 31 -14.5 56t-58.5 25zM328 622q-2 -11 -12 -19t-21 -8h-101q-11 0 -17 8t-4 19l21 101q2 11 12 19t21 8h101q11 0 17 -8t4 -19zM553 622
q-2 -11 -12 -19t-21 -8h-101q-11 0 -17 8t-4 19l21 101q2 11 12 19t21 8h101q11 0 17 -8t4 -19z" />
    <glyph glyph-name="edotaccent" unicode="&#x117;" horiz-adv-x="605" 
d="M194 203q-5 -23 0 -38t16.5 -24t26.5 -12.5t30 -3.5q30 0 49 6t33 17q13 9 18.5 11.5t17.5 2.5h130q22 0 17 -22q-2 -12 -18 -36.5t-49.5 -50t-86.5 -44.5t-130 -19q-58 0 -104.5 20.5t-76.5 57t-41.5 88t2.5 114.5q12 58 37 106t64 82.5t92 53t122 18.5
q66 0 112.5 -24.5t74.5 -63.5t36.5 -87.5t-1.5 -96.5l-6 -28q-2 -11 -11.5 -19t-20.5 -8h-333zM324 395q-42 0 -69 -25t-38 -56h180q3 31 -14.5 56t-58.5 25zM441 622q-2 -11 -12 -19t-21 -8h-111q-11 0 -17 8t-4 19l23 111q2 11 12 19t21 8h111q11 0 17 -8t4 -19z" />
    <glyph glyph-name="egrave" unicode="&#xe8;" horiz-adv-x="605" 
d="M194 203q-5 -23 0 -38t16.5 -24t26.5 -12.5t30 -3.5q30 0 49 6t33 17q13 9 18.5 11.5t17.5 2.5h130q22 0 17 -22q-2 -12 -18 -36.5t-49.5 -50t-86.5 -44.5t-130 -19q-58 0 -104.5 20.5t-76.5 57t-41.5 88t2.5 114.5q12 58 37 106t64 82.5t92 53t122 18.5
q66 0 112.5 -24.5t74.5 -63.5t36.5 -87.5t-1.5 -96.5l-6 -28q-2 -11 -11.5 -19t-20.5 -8h-333zM324 395q-42 0 -69 -25t-38 -56h180q3 31 -14.5 56t-58.5 25zM428 624q5 -9 0 -19t-17 -10h-88q-16 0 -23.5 5t-14.5 12l-106 105q-9 9 -4 23.5t19 14.5h133q11 0 18 -3t15 -16z
" />
    <glyph glyph-name="emacron" unicode="&#x113;" horiz-adv-x="605" 
d="M194 203q-5 -23 0 -38t16.5 -24t26.5 -12.5t30 -3.5q30 0 49 6t33 17q13 9 18.5 11.5t17.5 2.5h130q22 0 17 -22q-2 -12 -18 -36.5t-49.5 -50t-86.5 -44.5t-130 -19q-58 0 -104.5 20.5t-76.5 57t-41.5 88t2.5 114.5q12 58 37 106t64 82.5t92 53t122 18.5
q66 0 112.5 -24.5t74.5 -63.5t36.5 -87.5t-1.5 -96.5l-6 -28q-2 -11 -11.5 -19t-20.5 -8h-333zM324 395q-42 0 -69 -25t-38 -56h180q3 31 -14.5 56t-58.5 25zM213 595q-11 0 -17 8t-4 19l18 86q2 11 12 19t21 8h289q11 0 17 -8t4 -19l-18 -86q-2 -11 -12 -19t-21 -8h-289z
" />
    <glyph glyph-name="eogonek" unicode="&#x119;" horiz-adv-x="605" 
d="M239 -220q-30 0 -56.5 13t-44.5 36t-25.5 53.5t0.5 66.5q14 68 54.5 110.5t122.5 47.5l-2 -116q-27 -2 -43 -13t-21 -34t5.5 -39.5t36.5 -16.5h15q22 0 17 -22l-14 -64q-2 -10 -9 -16t-17 -6h-19zM194 203q-5 -23 0 -38t16.5 -24t26.5 -12.5t30 -3.5q30 0 49 6t33 17
q13 9 18.5 11.5t17.5 2.5h130q22 0 17 -22q-2 -12 -18 -36.5t-49.5 -50t-86.5 -44.5t-130 -19q-58 0 -104.5 20.5t-76.5 57t-41.5 88t2.5 114.5q12 58 37 106t64 82.5t92 53t122 18.5q66 0 112.5 -24.5t74.5 -63.5t36.5 -87.5t-1.5 -96.5l-6 -28q-2 -11 -11.5 -19t-20.5 -8
h-333zM324 395q-42 0 -69 -25t-38 -56h180q3 31 -14.5 56t-58.5 25z" />
    <glyph glyph-name="f" unicode="f" horiz-adv-x="462" 
d="M347 520h123q11 0 17 -8t4 -19l-21 -101q-2 -11 -12 -19t-21 -8h-123l-72 -338q-2 -11 -11.5 -19t-20.5 -8h-126q-11 0 -17.5 8t-4.5 19l72 338h-69q-11 0 -17 8t-4 19l21 101q2 11 12 19t21 8h69l6 27q20 93 80 143t169 50h105q11 0 17 -8t4 -19l-21 -101
q-3 -11 -12.5 -19t-20.5 -8h-90q-24 0 -36 -12t-16 -31z" />
    <glyph glyph-name="g" unicode="g" horiz-adv-x="634" 
d="M227 -70q19 0 37.5 4.5t33.5 13t25.5 21.5t14.5 31l14 70q-10 -12 -19.5 -23t-24 -19.5t-37.5 -13t-60 -4.5q-38 0 -75 14.5t-65 43t-42 71.5t-4 100q2 15 6.5 35.5t8.5 35.5q29 115 92 167.5t169 52.5q29 0 53 -6t42 -15t29.5 -19.5t16.5 -19.5l5 23q2 11 12 19t21 8
h116q11 0 17 -8t4 -19l-103 -487q-24 -113 -100 -169.5t-211 -56.5q-71 0 -116.5 19.5t-72 47t-35 57.5t-5.5 52q2 11 12 19t21 8h130q20 0 27 -20q4 -13 16.5 -23t46.5 -10zM216 295q-5 -15 -6.5 -24.5t-3.5 -24.5q-5 -35 12 -58t61 -23q41 0 67 22.5t37 51.5q6 15 9 31.5
t5 31.5q2 29 -15.5 51t-58.5 22q-43 0 -69.5 -22.5t-37.5 -57.5z" />
    <glyph glyph-name="gbreve" unicode="&#x11f;" horiz-adv-x="634" 
d="M227 -70q19 0 37.5 4.5t33.5 13t25.5 21.5t14.5 31l14 70q-10 -12 -19.5 -23t-24 -19.5t-37.5 -13t-60 -4.5q-38 0 -75 14.5t-65 43t-42 71.5t-4 100q2 15 6.5 35.5t8.5 35.5q29 115 92 167.5t169 52.5q29 0 53 -6t42 -15t29.5 -19.5t16.5 -19.5l5 23q2 11 12 19t21 8
h116q11 0 17 -8t4 -19l-103 -487q-24 -113 -100 -169.5t-211 -56.5q-71 0 -116.5 19.5t-72 47t-35 57.5t-5.5 52q2 11 12 19t21 8h130q20 0 27 -20q4 -13 16.5 -23t46.5 -10zM216 295q-5 -15 -6.5 -24.5t-3.5 -24.5q-5 -35 12 -58t61 -23q41 0 67 22.5t37 51.5q6 15 9 31.5
t5 31.5q2 29 -15.5 51t-58.5 22q-43 0 -69.5 -22.5t-37.5 -57.5zM366 590q-42 0 -72 13.5t-47.5 35t-23 47.5t-0.5 50q2 8 8 13.5t15 5.5h84q9 0 13 -5.5t2 -13.5q-4 -19 3 -34.5t28 -15.5t35 15.5t18 34.5q2 8 8 13.5t15 5.5h84q9 0 13 -5.5t2 -13.5q-5 -24 -16 -50
t-32 -47.5t-54 -35t-83 -13.5z" />
    <glyph glyph-name="gcircumflex" unicode="&#x11d;" horiz-adv-x="634" 
d="M227 -70q19 0 37.5 4.5t33.5 13t25.5 21.5t14.5 31l14 70q-10 -12 -19.5 -23t-24 -19.5t-37.5 -13t-60 -4.5q-38 0 -75 14.5t-65 43t-42 71.5t-4 100q2 15 6.5 35.5t8.5 35.5q29 115 92 167.5t169 52.5q29 0 53 -6t42 -15t29.5 -19.5t16.5 -19.5l5 23q2 11 12 19t21 8
h116q11 0 17 -8t4 -19l-103 -487q-24 -113 -100 -169.5t-211 -56.5q-71 0 -116.5 19.5t-72 47t-35 57.5t-5.5 52q2 11 12 19t21 8h130q20 0 27 -20q4 -13 16.5 -23t46.5 -10zM216 295q-5 -15 -6.5 -24.5t-3.5 -24.5q-5 -35 12 -58t61 -23q41 0 67 22.5t37 51.5q6 15 9 31.5
t5 31.5q2 29 -15.5 51t-58.5 22q-43 0 -69.5 -22.5t-37.5 -57.5zM432 755q11 0 18 -4t15 -15l78 -112q6 -10 0 -19.5t-17 -9.5h-51q-10 0 -15.5 3t-13.5 8l-73 44l-80 -44q-10 -5 -17 -8t-17 -3h-77q-13 0 -14 10t6 16l129 115q12 11 20 15t21 4h88z" />
    <glyph glyph-name="gcommaaccent" unicode="&#x123;" horiz-adv-x="634" 
d="M227 -70q19 0 37.5 4.5t33.5 13t25.5 21.5t14.5 31l14 70q-10 -12 -19.5 -23t-24 -19.5t-37.5 -13t-60 -4.5q-38 0 -75 14.5t-65 43t-42 71.5t-4 100q2 15 6.5 35.5t8.5 35.5q29 115 92 167.5t169 52.5q29 0 53 -6t42 -15t29.5 -19.5t16.5 -19.5l5 23q2 11 12 19t21 8
h116q11 0 17 -8t4 -19l-103 -487q-24 -113 -100 -169.5t-211 -56.5q-71 0 -116.5 19.5t-72 47t-35 57.5t-5.5 52q2 11 12 19t21 8h130q20 0 27 -20q4 -13 16.5 -23t46.5 -10zM216 295q-5 -15 -6.5 -24.5t-3.5 -24.5q-5 -35 12 -58t61 -23q41 0 67 22.5t37 51.5q6 15 9 31.5
t5 31.5q2 29 -15.5 51t-58.5 22q-43 0 -69.5 -22.5t-37.5 -57.5zM476.005 633.994q-4.99902 -13.999 -17.999 -26.498q-12.999 -12.499 -32.998 -12.499h-114.992q-11 0 -15.999 9.49902q-5 9.5 1 19.499l84.9941 138.991q6 10 17.999 20.999t31.998 10.999h80.9951
q9.99902 0 15.499 -7.49902q5.5 -7.5 1.5 -16.499z" />
    <glyph glyph-name="gdotaccent" unicode="&#x121;" horiz-adv-x="634" 
d="M227 -70q19 0 37.5 4.5t33.5 13t25.5 21.5t14.5 31l14 70q-10 -12 -19.5 -23t-24 -19.5t-37.5 -13t-60 -4.5q-38 0 -75 14.5t-65 43t-42 71.5t-4 100q2 15 6.5 35.5t8.5 35.5q29 115 92 167.5t169 52.5q29 0 53 -6t42 -15t29.5 -19.5t16.5 -19.5l5 23q2 11 12 19t21 8
h116q11 0 17 -8t4 -19l-103 -487q-24 -113 -100 -169.5t-211 -56.5q-71 0 -116.5 19.5t-72 47t-35 57.5t-5.5 52q2 11 12 19t21 8h130q20 0 27 -20q4 -13 16.5 -23t46.5 -10zM216 295q-5 -15 -6.5 -24.5t-3.5 -24.5q-5 -35 12 -58t61 -23q41 0 67 22.5t37 51.5q6 15 9 31.5
t5 31.5q2 29 -15.5 51t-58.5 22q-43 0 -69.5 -22.5t-37.5 -57.5zM451 622q-2 -11 -12 -19t-21 -8h-111q-11 0 -17 8t-4 19l23 111q2 11 12 19t21 8h111q11 0 17 -8t4 -19z" />
    <glyph glyph-name="h" unicode="h" horiz-adv-x="643" 
d="M534 27q-2 -11 -11.5 -19t-20.5 -8h-126q-11 0 -17.5 8t-4.5 19l54 253q9 43 -6.5 69t-60.5 26t-71 -26t-35 -69l-54 -253q-2 -11 -11.5 -19t-20.5 -8h-126q-11 0 -17.5 8t-4.5 19l140 656q2 11 11.5 19t20.5 8h126q11 0 17.5 -8t4.5 -19l-46 -213q21 21 56.5 40.5
t82.5 19.5q41 0 78.5 -13.5t64 -41.5t37.5 -71t-1 -102z" />
    <glyph glyph-name="hbar" unicode="&#x127;" horiz-adv-x="643" 
d="M534 27q-2 -11 -11.5 -19t-20.5 -8h-126q-11 0 -17.5 8t-4.5 19l54 253q9 43 -6.5 69t-60.5 26t-71 -26t-35 -69l-54 -253q-2 -11 -11.5 -19t-20.5 -8h-126q-11 0 -17.5 8t-4.5 19l111 520h-53q-11 0 -17.5 8t-3.5 19l9 43q2 11 11.5 19t20.5 8h53l9 39q2 11 11.5 19
t20.5 8h126q11 0 17.5 -8t4.5 -19l-9 -39h53q11 0 17.5 -8t4.5 -19l-9 -43q-3 -11 -12.5 -19t-20.5 -8h-54l-16 -77q21 21 56.5 40.5t82.5 19.5q41 0 78.5 -13.5t64 -41.5t37.5 -71t-1 -102z" />
    <glyph glyph-name="hcircumflex" unicode="&#x125;" horiz-adv-x="643" 
d="M534 27q-2 -11 -11.5 -19t-20.5 -8h-126q-11 0 -17.5 8t-4.5 19l54 253q9 43 -6.5 69t-60.5 26t-71 -26t-35 -69l-54 -253q-2 -11 -11.5 -19t-20.5 -8h-126q-11 0 -17.5 8t-4.5 19l140 656q2 11 11.5 19t20.5 8h126q11 0 17.5 -8t4.5 -19l-46 -213q21 21 56.5 40.5
t82.5 19.5q41 0 78.5 -13.5t64 -41.5t37.5 -71t-1 -102zM465 910q11 0 18 -4t15 -15l78 -112q6 -10 0 -19.5t-17 -9.5h-51q-10 0 -15.5 3t-13.5 8l-73 44l-80 -44q-10 -5 -17 -8t-17 -3h-77q-13 0 -14 10t6 16l129 115q12 11 20 15t21 4h88z" />
    <glyph glyph-name="i" unicode="i" horiz-adv-x="296" 
d="M181 27q-2 -11 -11.5 -19t-20.5 -8h-126q-11 0 -17.5 8t-4.5 19l99 466q2 11 12 19t21 8h126q11 0 17 -8t4 -19zM303 602q-2 -11 -11.5 -19t-20.5 -8h-126q-11 0 -17.5 8t-4.5 19l22 101q2 11 12 19t21 8h126q11 0 17 -8t4 -19z" />
    <glyph glyph-name="iacute" unicode="&#xed;" horiz-adv-x="296" 
d="M181 27q-2 -11 -11.5 -19t-20.5 -8h-126q-11 0 -17.5 8t-4.5 19l99 466q2 11 12 19t21 8h126q11 0 17 -8t4 -19zM264 736q14 14 22 16.5t19 2.5h143q14 0 15.5 -12.5t-8.5 -19.5l-158 -111q-10 -7 -19.5 -12t-25.5 -5h-98q-13 0 -14.5 10t6.5 17z" />
    <glyph glyph-name="ibreve" unicode="&#x12d;" horiz-adv-x="296" 
d="M181 27q-2 -11 -11.5 -19t-20.5 -8h-126q-11 0 -17.5 8t-4.5 19l99 466q2 11 12 19t21 8h126q11 0 17 -8t4 -19zM218 590q-42 0 -72 13.5t-47.5 35t-23 47.5t-0.5 50q2 8 8 13.5t15 5.5h84q9 0 13 -5.5t2 -13.5q-4 -19 3 -34.5t28 -15.5t35 15.5t18 34.5q2 8 8 13.5
t15 5.5h84q9 0 13 -5.5t2 -13.5q-5 -24 -16 -50t-32 -47.5t-54 -35t-83 -13.5z" />
    <glyph glyph-name="icircumflex" unicode="&#xee;" horiz-adv-x="296" 
d="M181 27q-2 -11 -11.5 -19t-20.5 -8h-126q-11 0 -17.5 8t-4.5 19l99 466q2 11 12 19t21 8h126q11 0 17 -8t4 -19zM284 755q11 0 18 -4t15 -15l78 -112q6 -10 0 -19.5t-17 -9.5h-51q-10 0 -15.5 3t-13.5 8l-73 44l-80 -44q-10 -5 -17 -8t-17 -3h-77q-13 0 -14 10t6 16
l129 115q12 11 20 15t21 4h88z" />
    <glyph glyph-name="idieresis" unicode="&#xef;" horiz-adv-x="296" 
d="M181 27q-2 -11 -11.5 -19t-20.5 -8h-126q-11 0 -17.5 8t-4.5 19l99 466q2 11 12 19t21 8h126q11 0 17 -8t4 -19zM182 622q-2 -11 -12 -19t-21 -8h-101q-11 0 -17 8t-4 19l21 101q2 11 12 19t21 8h101q11 0 17 -8t4 -19zM407 622q-2 -11 -12 -19t-21 -8h-101q-11 0 -17 8
t-4 19l21 101q2 11 12 19t21 8h101q11 0 17 -8t4 -19z" />
    <glyph glyph-name="igrave" unicode="&#xec;" horiz-adv-x="296" 
d="M181 27q-2 -11 -11.5 -19t-20.5 -8h-126q-11 0 -17.5 8t-4.5 19l99 466q2 11 12 19t21 8h126q11 0 17 -8t4 -19zM292 624q5 -9 0 -19t-17 -10h-88q-16 0 -23.5 5t-14.5 12l-106 105q-9 9 -4 23.5t19 14.5h133q11 0 18 -3t15 -16z" />
    <glyph glyph-name="imacron" unicode="&#x12b;" horiz-adv-x="296" 
d="M181 27q-2 -11 -11.5 -19t-20.5 -8h-126q-11 0 -17.5 8t-4.5 19l99 466q2 11 12 19t21 8h126q11 0 17 -8t4 -19zM68 595q-11 0 -17 8t-4 19l18 86q2 11 12 19t21 8h289q11 0 17 -8t4 -19l-18 -86q-2 -11 -12 -19t-21 -8h-289z" />
    <glyph glyph-name="iogonek" unicode="&#x12f;" horiz-adv-x="297" 
d="M182 27q-2 -11 -11.5 -19t-20.5 -8h-10q-26 0 -43.5 -16.5t-22.5 -39.5t5.5 -39.5t36.5 -16.5h15q22 0 17 -22l-14 -64q-2 -10 -9 -16t-17 -6h-19q-30 0 -56.5 13t-44.5 36t-25.5 53.5t0.5 66.5q12 60 43 98l95 446q2 11 12 19t21 8h126q11 0 17 -8t4 -19zM304 602
q-2 -11 -11.5 -19t-20.5 -8h-126q-11 0 -17.5 8t-4.5 19l22 101q2 11 12 19t21 8h126q11 0 17 -8t4 -19z" />
    <glyph glyph-name="itilde" unicode="&#x129;" horiz-adv-x="296" 
d="M181 27q-2 -11 -11.5 -19t-20.5 -8h-126q-11 0 -17.5 8t-4.5 19l99 466q2 11 12 19t21 8h126q11 0 17 -8t4 -19zM295 590q-30 0 -46.5 7t-28.5 15.5t-22 15.5t-26 7q-12 0 -19.5 -6.5t-13 -14t-11 -13.5t-13.5 -6h-76q-9 0 -13 5.5t-2 13.5q5 22 16.5 46.5t29.5 44
t42 32.5t53 13q30 0 46.5 -7t28 -15.5t21.5 -15.5t26 -7q12 0 19.5 6t13.5 13.5t11.5 14t13.5 6.5h76q9 0 13 -5.5t2 -13.5q-5 -23 -18 -47t-32 -43.5t-42.5 -32.5t-48.5 -13z" />
    <glyph glyph-name="dotlessi" unicode="&#x131;" horiz-adv-x="296" 
d="M181 27q-2 -11 -11.5 -19t-20.5 -8h-126q-11 0 -17.5 8t-4.5 19l99 466q2 11 12 19t21 8h126q11 0 17 -8t4 -19z" />
    <glyph glyph-name="j" unicode="j" horiz-adv-x="306" 
d="M313 602q-2 -11 -11.5 -19t-20.5 -8h-126q-11 0 -17.5 8t-4.5 19l22 101q2 11 12 19t21 8h126q11 0 17 -8t4 -19zM110 493q2 11 12 19t21 8h126q11 0 17 -8t4 -19l-103 -485q-10 -46 -29 -83t-49 -62.5t-71 -39t-95 -13.5h-60q-11 0 -17 8t-4 19l20 96q2 11 12.5 21.5
t21.5 10.5h39q24 0 36.5 14.5t16.5 33.5z" />
    <glyph glyph-name="jcircumflex" unicode="&#x135;" horiz-adv-x="357" 
d="M134 365h-73q-11 0 -17 8t-4 19l21 101q2 11 12 19t21 8h226q11 0 17 -8t4 -19l-103 -485q-10 -46 -33.5 -83t-57 -62.5t-75.5 -39t-89 -13.5h-50q-11 0 -16.5 8t-3.5 19l19 96q2 11 12.5 21.5t21.5 10.5h40q24 0 36.5 14.5t16.5 33.5zM302 755q11 0 18 -4t15 -15
l78 -112q6 -10 0 -19.5t-17 -9.5h-51q-10 0 -15.5 3t-13.5 8l-73 44l-80 -44q-10 -5 -17 -8t-17 -3h-77q-13 0 -14 10t6 16l129 115q12 11 20 15t21 4h88z" />
    <glyph glyph-name="dotlessj" unicode="&#x237;" horiz-adv-x="357" 
d="M134 365h-73q-11 0 -17 8t-4 19l21 101q2 11 12 19t21 8h226q11 0 17 -8t4 -19l-103 -485q-10 -46 -33.5 -83t-57 -62.5t-75.5 -39t-89 -13.5h-50q-11 0 -16.5 8t-3.5 19l19 96q2 11 12.5 21.5t21.5 10.5h40q24 0 36.5 14.5t16.5 33.5z" />
    <glyph glyph-name="k" unicode="k" horiz-adv-x="608" 
d="M252 359l162 144q7 5 18 11t25 6h167q15 0 17 -14.5t-10 -25.5l-248 -223l146 -214q5 -7 6 -10.5t0 -8.5q-2 -10 -10.5 -17t-18.5 -7h-131q-14 0 -23 4.5t-14 12.5l-121 179l-36 -169q-2 -11 -11.5 -19t-20.5 -8h-126q-11 0 -17.5 8t-4.5 19l140 656q2 11 11.5 19t20.5 8
h126q11 0 17.5 -8t4.5 -19z" />
    <glyph glyph-name="kcommaaccent" unicode="&#x137;" horiz-adv-x="608" 
d="M252 359l162 144q7 5 18 11t25 6h167q15 0 17 -14.5t-10 -25.5l-248 -223l146 -214q5 -7 6 -10.5t0 -8.5q-2 -10 -10.5 -17t-18.5 -7h-131q-14 0 -23 4.5t-14 12.5l-121 179l-36 -169q-2 -11 -11.5 -19t-20.5 -8h-126q-11 0 -17.5 8t-4.5 19l140 656q2 11 11.5 19t20.5 8
h126q11 0 17.5 -8t4.5 -19zM137 -89q5 14 18 26.5t33 12.5h115q11 0 16 -9.5t-1 -19.5l-85 -139q-6 -10 -18 -21t-32 -11h-81q-10 0 -15.5 7.5t-1.5 16.5z" />
    <glyph glyph-name="kgreenlandic" unicode="&#x138;" horiz-adv-x="611" 
d="M251 353l167 150q6 6 17.5 11.5t25.5 5.5h166q18 0 18 -15.5t-14 -28.5l-243 -219l143 -214q5 -7 6 -10.5t0 -8.5q-2 -10 -10.5 -17t-18.5 -7h-131q-28 0 -38 17l-121 179l-37 -169q-2 -11 -11.5 -19t-20.5 -8h-126q-11 0 -17.5 8t-4.5 19l99 466q2 11 12 19t21 8h126
q11 0 17 -8t4 -19z" />
    <glyph glyph-name="l" unicode="l" horiz-adv-x="297" 
d="M181 27q-2 -11 -11.5 -19t-20.5 -8h-126q-11 0 -17.5 8t-4.5 19l140 656q2 11 11.5 19t20.5 8h126q11 0 17.5 -8t4.5 -19z" />
    <glyph glyph-name="lacute" unicode="&#x13a;" horiz-adv-x="297" 
d="M181 27q-2 -11 -11.5 -19t-20.5 -8h-126q-11 0 -17.5 8t-4.5 19l140 656q2 11 11.5 19t20.5 8h126q11 0 17.5 -8t4.5 -19zM296 891q14 14 22 16.5t19 2.5h143q14 0 15.5 -12.5t-8.5 -19.5l-158 -111q-10 -7 -19.5 -12t-25.5 -5h-98q-13 0 -14.5 10t6.5 17z" />
    <glyph glyph-name="lcaron" unicode="&#x13e;" horiz-adv-x="413" 
d="M181 27q-2 -11 -11.5 -19t-20.5 -8h-126q-11 0 -17.5 8t-4.5 19l140 656q2 11 11.5 19t20.5 8h126q11 0 17.5 -8t4.5 -19zM394 672q5 14 18 26.5t33 12.5h115q11 0 16 -9.5t-1 -19.5l-85 -139q-6 -10 -18 -21t-32 -11h-81q-10 0 -15.5 7.5t-1.5 16.5z" />
    <glyph glyph-name="lcommaaccent" unicode="&#x13c;" horiz-adv-x="297" 
d="M181 27q-2 -11 -11.5 -19t-20.5 -8h-126q-11 0 -17.5 8t-4.5 19l140 656q2 11 11.5 19t20.5 8h126q11 0 17.5 -8t4.5 -19zM-26 -89q5 14 18 26.5t33 12.5h115q11 0 16 -9.5t-1 -19.5l-85 -139q-6 -10 -18 -21t-32 -11h-81q-10 0 -15.5 7.5t-1.5 16.5z" />
    <glyph glyph-name="ldot" unicode="&#x140;" horiz-adv-x="447" 
d="M181 27q-2 -11 -11.5 -19t-20.5 -8h-126q-11 0 -17.5 8t-4.5 19l140 656q2 11 11.5 19t20.5 8h126q11 0 17.5 -8t4.5 -19zM455 304q-2 -11 -12 -19t-21 -8h-111q-11 0 -17 8t-4 19l23 111q2 11 12 19t21 8h111q11 0 17 -8t4 -19z" />
    <glyph glyph-name="lslash" unicode="&#x142;" horiz-adv-x="329" 
d="M90 376l66 307q2 11 11.5 19t20.5 8h126q11 0 17.5 -8t4.5 -19l-50 -236l30 11q7 3 11 3q9 0 14 -6t3 -15l-12 -58q-5 -25 -29 -33l-42 -15l-65 -307q-2 -11 -11.5 -19t-20.5 -8h-126q-11 0 -17.5 8t-4.5 19l50 236l-30 -11q-8 -3 -12 -3q-9 0 -13.5 6t-2.5 15l12 58
q5 25 29 33z" />
    <glyph glyph-name="m" unicode="m" horiz-adv-x="930" 
d="M821 27q-2 -11 -11.5 -19t-20.5 -8h-121q-11 0 -17.5 8t-4.5 19l55 256q11 50 -3.5 71t-50.5 21q-35 0 -57.5 -21t-33.5 -71l-55 -256q-2 -11 -11.5 -19t-20.5 -8h-121q-11 0 -17.5 8t-4.5 19l55 256q11 50 -3.5 71t-50.5 21q-35 0 -57.5 -20.5t-33.5 -68.5l-55 -259
q-2 -11 -11.5 -19t-20.5 -8h-126q-11 0 -17.5 8t-4.5 19l99 466q2 11 12 19t21 8h121q11 0 17 -8t4 -19l-5 -23q28 28 58 44t72 16q51 0 90 -23.5t54 -54.5q37 38 82.5 58t93.5 20q36 0 70 -13.5t58 -41.5t34 -71t-2 -102z" />
    <glyph glyph-name="n" unicode="n" horiz-adv-x="643" 
d="M534 27q-2 -11 -11.5 -19t-20.5 -8h-126q-11 0 -17.5 8t-4.5 19l54 253q9 43 -6.5 69t-60.5 26t-71 -26t-35 -69l-54 -253q-2 -11 -11.5 -19t-20.5 -8h-126q-11 0 -17.5 8t-4.5 19l99 466q2 11 12 19t21 8h121q11 0 17 -8t4 -19l-5 -23q21 21 56 40.5t88 19.5
q45 0 83 -13.5t63.5 -41.5t35 -71t-2.5 -102z" />
    <glyph glyph-name="nacute" unicode="&#x144;" horiz-adv-x="643" 
d="M534 27q-2 -11 -11.5 -19t-20.5 -8h-126q-11 0 -17.5 8t-4.5 19l54 253q9 43 -6.5 69t-60.5 26t-71 -26t-35 -69l-54 -253q-2 -11 -11.5 -19t-20.5 -8h-126q-11 0 -17.5 8t-4.5 19l99 466q2 11 12 19t21 8h121q11 0 17 -8t4 -19l-5 -23q21 21 56 40.5t88 19.5
q45 0 83 -13.5t63.5 -41.5t35 -71t-2.5 -102zM426 736q14 14 22 16.5t19 2.5h143q14 0 15.5 -12.5t-8.5 -19.5l-158 -111q-10 -7 -19.5 -12t-25.5 -5h-98q-13 0 -14.5 10t6.5 17z" />
    <glyph glyph-name="napostrophe" unicode="&#x149;" horiz-adv-x="643" 
d="M534 27q-2 -11 -11.5 -19t-20.5 -8h-126q-11 0 -17.5 8t-4.5 19l54 253q9 43 -6.5 69t-60.5 26t-71 -26t-35 -69l-54 -253q-2 -11 -11.5 -19t-20.5 -8h-126q-11 0 -17.5 8t-4.5 19l99 466q2 11 12 19t21 8h121q11 0 17 -8t4 -19l-5 -23q21 21 56 40.5t88 19.5
q45 0 83 -13.5t63.5 -41.5t35 -71t-2.5 -102zM196 756q5 14 18 26.5t33 12.5h115q11 0 16 -9.5t-1 -19.5l-85 -139q-6 -10 -18 -21t-32 -11h-81q-10 0 -15.5 7.5t-1.5 16.5z" />
    <glyph glyph-name="ncaron" unicode="&#x148;" horiz-adv-x="643" 
d="M534 27q-2 -11 -11.5 -19t-20.5 -8h-126q-11 0 -17.5 8t-4.5 19l54 253q9 43 -6.5 69t-60.5 26t-71 -26t-35 -69l-54 -253q-2 -11 -11.5 -19t-20.5 -8h-126q-11 0 -17.5 8t-4.5 19l99 466q2 11 12 19t21 8h121q11 0 17 -8t4 -19l-5 -23q21 21 56 40.5t88 19.5
q45 0 83 -13.5t63.5 -41.5t35 -71t-2.5 -102zM340 595q-11 0 -18 4t-15 15l-78 112q-6 10 0 19.5t17 9.5h55q10 0 15.5 -3t13.5 -8l73 -44l80 44q10 5 17 8t17 3h73q13 0 14 -10t-6 -16l-129 -115q-12 -11 -20 -15t-21 -4h-88z" />
    <glyph glyph-name="ncommaaccent" unicode="&#x146;" horiz-adv-x="643" 
d="M534 27q-2 -11 -11.5 -19t-20.5 -8h-126q-11 0 -17.5 8t-4.5 19l54 253q9 43 -6.5 69t-60.5 26t-71 -26t-35 -69l-54 -253q-2 -11 -11.5 -19t-20.5 -8h-126q-11 0 -17.5 8t-4.5 19l99 466q2 11 12 19t21 8h121q11 0 17 -8t4 -19l-5 -23q21 21 56 40.5t88 19.5
q45 0 83 -13.5t63.5 -41.5t35 -71t-2.5 -102zM146 -89q5 14 18 26.5t33 12.5h115q11 0 16 -9.5t-1 -19.5l-85 -139q-6 -10 -18 -21t-32 -11h-81q-10 0 -15.5 7.5t-1.5 16.5z" />
    <glyph glyph-name="ntilde" unicode="&#xf1;" horiz-adv-x="643" 
d="M534 27q-2 -11 -11.5 -19t-20.5 -8h-126q-11 0 -17.5 8t-4.5 19l54 253q9 43 -6.5 69t-60.5 26t-71 -26t-35 -69l-54 -253q-2 -11 -11.5 -19t-20.5 -8h-126q-11 0 -17.5 8t-4.5 19l99 466q2 11 12 19t21 8h121q11 0 17 -8t4 -19l-5 -23q21 21 56 40.5t88 19.5
q45 0 83 -13.5t63.5 -41.5t35 -71t-2.5 -102zM464 590q-30 0 -46.5 7t-28.5 15.5t-22 15.5t-26 7q-12 0 -19.5 -6.5t-13 -14t-11 -13.5t-13.5 -6h-76q-9 0 -13 5.5t-2 13.5q5 22 16.5 46.5t29.5 44t42 32.5t53 13q30 0 46.5 -7t28 -15.5t21.5 -15.5t26 -7q12 0 19.5 6
t13.5 13.5t11.5 14t13.5 6.5h76q9 0 13 -5.5t2 -13.5q-5 -23 -18 -47t-32 -43.5t-42.5 -32.5t-48.5 -13z" />
    <glyph glyph-name="o" unicode="o" horiz-adv-x="615" 
d="M579 293q-2 -15 -7 -38.5t-10 -38.5q-12 -48 -35 -89t-60 -71.5t-90 -48t-125 -17.5q-54 0 -99.5 19t-78 51.5t-47.5 75t-7 90.5q3 15 8 38.5t9 38.5q12 48 36 89t62 72t90.5 48.5t121.5 17.5q54 0 100 -19t78 -51.5t47.5 -75.5t6.5 -91zM201 226q-5 -38 14.5 -59.5
t59.5 -21.5t69.5 21.5t40.5 59.5q5 15 8.5 34t5.5 34q5 38 -15 59.5t-60 21.5t-69 -21.5t-40 -59.5q-5 -15 -8.5 -34t-5.5 -34z" />
    <glyph glyph-name="oacute" unicode="&#xf3;" horiz-adv-x="615" 
d="M579 293q-2 -15 -7 -38.5t-10 -38.5q-12 -48 -35 -89t-60 -71.5t-90 -48t-125 -17.5q-54 0 -99.5 19t-78 51.5t-47.5 75t-7 90.5q3 15 8 38.5t9 38.5q12 48 36 89t62 72t90.5 48.5t121.5 17.5q54 0 100 -19t78 -51.5t47.5 -75.5t6.5 -91zM201 226q-5 -38 14.5 -59.5
t59.5 -21.5t69.5 21.5t40.5 59.5q5 15 8.5 34t5.5 34q5 38 -15 59.5t-60 21.5t-69 -21.5t-40 -59.5q-5 -15 -8.5 -34t-5.5 -34zM414 736q14 14 22 16.5t19 2.5h143q14 0 15.5 -12.5t-8.5 -19.5l-158 -111q-10 -7 -19.5 -12t-25.5 -5h-98q-13 0 -14.5 10t6.5 17z" />
    <glyph glyph-name="obreve" unicode="&#x14f;" horiz-adv-x="615" 
d="M579 293q-2 -15 -7 -38.5t-10 -38.5q-12 -48 -35 -89t-60 -71.5t-90 -48t-125 -17.5q-54 0 -99.5 19t-78 51.5t-47.5 75t-7 90.5q3 15 8 38.5t9 38.5q12 48 36 89t62 72t90.5 48.5t121.5 17.5q54 0 100 -19t78 -51.5t47.5 -75.5t6.5 -91zM201 226q-5 -38 14.5 -59.5
t59.5 -21.5t69.5 21.5t40.5 59.5q5 15 8.5 34t5.5 34q5 38 -15 59.5t-60 21.5t-69 -21.5t-40 -59.5q-5 -15 -8.5 -34t-5.5 -34zM364 590q-42 0 -72 13.5t-47.5 35t-23 47.5t-0.5 50q2 8 8 13.5t15 5.5h84q9 0 13 -5.5t2 -13.5q-4 -19 3 -34.5t28 -15.5t35 15.5t18 34.5
q2 8 8 13.5t15 5.5h84q9 0 13 -5.5t2 -13.5q-5 -24 -16 -50t-32 -47.5t-54 -35t-83 -13.5z" />
    <glyph glyph-name="ocircumflex" unicode="&#xf4;" horiz-adv-x="615" 
d="M579 293q-2 -15 -7 -38.5t-10 -38.5q-12 -48 -35 -89t-60 -71.5t-90 -48t-125 -17.5q-54 0 -99.5 19t-78 51.5t-47.5 75t-7 90.5q3 15 8 38.5t9 38.5q12 48 36 89t62 72t90.5 48.5t121.5 17.5q54 0 100 -19t78 -51.5t47.5 -75.5t6.5 -91zM201 226q-5 -38 14.5 -59.5
t59.5 -21.5t69.5 21.5t40.5 59.5q5 15 8.5 34t5.5 34q5 38 -15 59.5t-60 21.5t-69 -21.5t-40 -59.5q-5 -15 -8.5 -34t-5.5 -34zM429 755q11 0 18 -4t15 -15l78 -112q6 -10 0 -19.5t-17 -9.5h-51q-10 0 -15.5 3t-13.5 8l-73 44l-80 -44q-10 -5 -17 -8t-17 -3h-77
q-13 0 -14 10t6 16l129 115q12 11 20 15t21 4h88z" />
    <glyph glyph-name="odieresis" unicode="&#xf6;" horiz-adv-x="615" 
d="M579 293q-2 -15 -7 -38.5t-10 -38.5q-12 -48 -35 -89t-60 -71.5t-90 -48t-125 -17.5q-54 0 -99.5 19t-78 51.5t-47.5 75t-7 90.5q3 15 8 38.5t9 38.5q12 48 36 89t62 72t90.5 48.5t121.5 17.5q54 0 100 -19t78 -51.5t47.5 -75.5t6.5 -91zM201 226q-5 -38 14.5 -59.5
t59.5 -21.5t69.5 21.5t40.5 59.5q5 15 8.5 34t5.5 34q5 38 -15 59.5t-60 21.5t-69 -21.5t-40 -59.5q-5 -15 -8.5 -34t-5.5 -34zM332 622q-2 -11 -12 -19t-21 -8h-101q-11 0 -17 8t-4 19l21 101q2 11 12 19t21 8h101q11 0 17 -8t4 -19zM557 622q-2 -11 -12 -19t-21 -8h-101
q-11 0 -17 8t-4 19l21 101q2 11 12 19t21 8h101q11 0 17 -8t4 -19z" />
    <glyph glyph-name="ograve" unicode="&#xf2;" horiz-adv-x="615" 
d="M579 293q-2 -15 -7 -38.5t-10 -38.5q-12 -48 -35 -89t-60 -71.5t-90 -48t-125 -17.5q-54 0 -99.5 19t-78 51.5t-47.5 75t-7 90.5q3 15 8 38.5t9 38.5q12 48 36 89t62 72t90.5 48.5t121.5 17.5q54 0 100 -19t78 -51.5t47.5 -75.5t6.5 -91zM201 226q-5 -38 14.5 -59.5
t59.5 -21.5t69.5 21.5t40.5 59.5q5 15 8.5 34t5.5 34q5 38 -15 59.5t-60 21.5t-69 -21.5t-40 -59.5q-5 -15 -8.5 -34t-5.5 -34zM442 624q5 -9 0 -19t-17 -10h-88q-16 0 -23.5 5t-14.5 12l-106 105q-9 9 -4 23.5t19 14.5h133q11 0 18 -3t15 -16z" />
    <glyph glyph-name="ohungarumlaut" unicode="&#x151;" horiz-adv-x="615" 
d="M579 293q-2 -15 -7 -38.5t-10 -38.5q-12 -48 -35 -89t-60 -71.5t-90 -48t-125 -17.5q-54 0 -99.5 19t-78 51.5t-47.5 75t-7 90.5q3 15 8 38.5t9 38.5q12 48 36 89t62 72t90.5 48.5t121.5 17.5q54 0 100 -19t78 -51.5t47.5 -75.5t6.5 -91zM201 226q-5 -38 14.5 -59.5
t59.5 -21.5t69.5 21.5t40.5 59.5q5 15 8.5 34t5.5 34q5 38 -15 59.5t-60 21.5t-69 -21.5t-40 -59.5q-5 -15 -8.5 -34t-5.5 -34zM263 736q7 10 16 14.5t25 4.5h122q15 0 16 -12t-9 -20l-129 -114q-16 -14 -37 -14h-73q-11 0 -13.5 6.5t2.5 14.5zM493 736q7 10 16 14.5t25 4.5
h122q15 0 16 -12t-9 -20l-129 -114q-16 -14 -37 -14h-73q-11 0 -13.5 6.5t2.5 14.5z" />
    <glyph glyph-name="omacron" unicode="&#x14d;" horiz-adv-x="615" 
d="M579 293q-2 -15 -7 -38.5t-10 -38.5q-12 -48 -35 -89t-60 -71.5t-90 -48t-125 -17.5q-54 0 -99.5 19t-78 51.5t-47.5 75t-7 90.5q3 15 8 38.5t9 38.5q12 48 36 89t62 72t90.5 48.5t121.5 17.5q54 0 100 -19t78 -51.5t47.5 -75.5t6.5 -91zM201 226q-5 -38 14.5 -59.5
t59.5 -21.5t69.5 21.5t40.5 59.5q5 15 8.5 34t5.5 34q5 38 -15 59.5t-60 21.5t-69 -21.5t-40 -59.5q-5 -15 -8.5 -34t-5.5 -34zM217 595q-11 0 -17 8t-4 19l18 86q2 11 12 19t21 8h289q11 0 17 -8t4 -19l-18 -86q-2 -11 -12 -19t-21 -8h-289z" />
    <glyph glyph-name="oslash" unicode="&#xf8;" horiz-adv-x="657" 
d="M600 293q-2 -15 -7 -38.5t-10 -38.5q-12 -48 -35 -89t-60 -71.5t-90 -48t-125 -17.5q-37 0 -70.5 9t-61.5 25.5t-49.5 39.5t-34.5 50l-58 -20q-8 -3 -11 -3q-9 0 -14 6t-3 15l13 58q4 25 29 33l26 9l2 14q3 15 8 38.5t9 38.5q12 48 36 89t62 72t90.5 48.5t121.5 17.5
q73 0 131 -34.5t85 -89.5l58 21q9 3 12 3q9 0 13.5 -6t2.5 -15l-12 -58q-5 -25 -29 -33l-27 -10zM406 226q1 3 1.5 6.5t2.5 7.5l-181 -64q19 -31 67 -31q40 0 69.5 21.5t40.5 59.5zM412 345q-19 30 -67 30q-40 0 -69 -21.5t-40 -59.5z" />
    <glyph glyph-name="oslashacute" unicode="&#x1ff;" horiz-adv-x="657" 
d="M431 736q14 14 22 16.5t19 2.5h143q14 0 15.5 -12.5t-8.5 -19.5l-158 -111q-10 -7 -19.5 -12t-25.5 -5h-98q-13 0 -14.5 10t6.5 17zM600 293q-2 -15 -7 -38.5t-10 -38.5q-12 -48 -35 -89t-60 -71.5t-90 -48t-125 -17.5q-37 0 -70.5 9t-61.5 25.5t-49.5 39.5t-34.5 50
l-58 -20q-8 -3 -11 -3q-9 0 -14 6t-3 15l13 58q4 25 29 33l26 9l2 14q3 15 8 38.5t9 38.5q12 48 36 89t62 72t90.5 48.5t121.5 17.5q73 0 131 -34.5t85 -89.5l58 21q9 3 12 3q9 0 13.5 -6t2.5 -15l-12 -58q-5 -25 -29 -33l-27 -10zM406 226q1 3 1.5 6.5t2.5 7.5l-181 -64
q19 -31 67 -31q40 0 69.5 21.5t40.5 59.5zM412 345q-19 30 -67 30q-40 0 -69 -21.5t-40 -59.5z" />
    <glyph glyph-name="otilde" unicode="&#xf5;" horiz-adv-x="615" 
d="M579 293q-2 -15 -7 -38.5t-10 -38.5q-12 -48 -35 -89t-60 -71.5t-90 -48t-125 -17.5q-54 0 -99.5 19t-78 51.5t-47.5 75t-7 90.5q3 15 8 38.5t9 38.5q12 48 36 89t62 72t90.5 48.5t121.5 17.5q54 0 100 -19t78 -51.5t47.5 -75.5t6.5 -91zM201 226q-5 -38 14.5 -59.5
t59.5 -21.5t69.5 21.5t40.5 59.5q5 15 8.5 34t5.5 34q5 38 -15 59.5t-60 21.5t-69 -21.5t-40 -59.5q-5 -15 -8.5 -34t-5.5 -34zM442 590q-30 0 -46.5 7t-28.5 15.5t-22 15.5t-26 7q-12 0 -19.5 -6.5t-13 -14t-11 -13.5t-13.5 -6h-76q-9 0 -13 5.5t-2 13.5q5 22 16.5 46.5
t29.5 44t42 32.5t53 13q30 0 46.5 -7t28 -15.5t21.5 -15.5t26 -7q12 0 19.5 6t13.5 13.5t11.5 14t13.5 6.5h76q9 0 13 -5.5t2 -13.5q-5 -23 -18 -47t-32 -43.5t-42.5 -32.5t-48.5 -13z" />
    <glyph glyph-name="oe" unicode="&#x153;" horiz-adv-x="974" 
d="M563 203q-5 -23 0 -38t16.5 -24t26.5 -12.5t30 -3.5q30 0 49 6t33 17q13 9 18.5 11.5t17.5 2.5h130q22 0 17 -22q-2 -12 -18 -36.5t-49.5 -50t-86.5 -44.5t-130 -19q-100 0 -162 56q-36 -26 -86 -41t-117 -15q-54 0 -99.5 19t-78 51.5t-47.5 75t-7 90.5q3 15 8 38.5
t9 38.5q12 48 36 89t62 72t90.5 48.5t121.5 17.5q49 0 91 -16t74 -44q38 29 87.5 44.5t112.5 15.5q66 0 112.5 -24.5t74.5 -63.5t36.5 -87.5t-1.5 -96.5l-6 -28q-2 -11 -11.5 -19t-20.5 -8h-333zM201 226q-5 -38 14.5 -59.5t59.5 -21.5t69.5 21.5t40.5 59.5q5 15 8.5 34
t5.5 34q5 38 -15 59.5t-60 21.5t-69 -21.5t-40 -59.5q-5 -15 -8.5 -34t-5.5 -34zM693 395q-42 0 -69 -25t-38 -56h180q3 31 -14.5 56t-58.5 25z" />
    <glyph glyph-name="p" unicode="p" horiz-adv-x="634" 
d="M317 -10q-29 0 -51.5 6t-38.5 15t-26.5 19.5t-14.5 19.5l-46 -213q-2 -11 -11.5 -19t-20.5 -8h-126q-11 0 -17.5 8t-4.5 19l140 656q2 11 11.5 19t20.5 8h121q11 0 17.5 -8t4.5 -19l-5 -23q9 10 19 20.5t25 19.5t38 14.5t60 5.5t74.5 -14.5t65 -43.5t41 -73t3.5 -103
q-1 -8 -3 -18.5t-4.5 -22t-5 -22.5t-4.5 -18q-30 -118 -93 -171.5t-169 -53.5zM403 232q5 15 7.5 28t4.5 28q2 18 0 33.5t-10 27.5t-23 19t-38 7q-22 0 -39.5 -7t-30.5 -18.5t-22 -25.5t-14 -29q-6 -15 -10 -35t-5 -35t1.5 -29t11 -25.5t23 -18.5t36.5 -7q47 0 72 26t36 61z
" />
    <glyph glyph-name="q" unicode="q" horiz-adv-x="634" 
d="M207 -10q-42 0 -79.5 14.5t-64.5 44t-39 73.5t-1 103q1 7 3 18t4.5 22.5t5 22t4.5 18.5q29 118 92.5 171t169.5 53q59 0 90.5 -19.5t45.5 -40.5l5 23q2 11 11.5 19t20.5 8h121q11 0 17.5 -8t4.5 -19l-140 -656q-2 -11 -11.5 -19t-20.5 -8h-126q-11 0 -17.5 8t-4.5 19
l46 213q-9 -9 -20.5 -19.5t-28 -19.5t-38 -15t-50.5 -6zM203 232q-2 -18 0 -33.5t10.5 -27.5t23.5 -19t38 -7q22 0 39.5 7t30.5 18.5t22 25.5t14 29t9 35t6 35q1 15 -2 29t-11 25.5t-22.5 18.5t-36.5 7q-47 0 -72.5 -26t-36.5 -61q-5 -15 -7.5 -28t-4.5 -28z" />
    <glyph glyph-name="r" unicode="r" horiz-adv-x="459" 
d="M469 520q11 0 17 -8t4 -19l-21 -101q-2 -11 -12 -19t-21 -8h-91q-45 0 -73.5 -23.5t-37.5 -68.5l-53 -246q-2 -11 -11.5 -19t-20.5 -8h-126q-11 0 -17.5 8t-4.5 19l99 466q2 11 12 19t21 8h116q11 0 17 -8t4 -19l-5 -23q23 23 52.5 36.5t81.5 13.5h70z" />
    <glyph glyph-name="racute" unicode="&#x155;" horiz-adv-x="459" 
d="M469 520q11 0 17 -8t4 -19l-21 -101q-2 -11 -12 -19t-21 -8h-91q-45 0 -73.5 -23.5t-37.5 -68.5l-53 -246q-2 -11 -11.5 -19t-20.5 -8h-126q-11 0 -17.5 8t-4.5 19l99 466q2 11 12 19t21 8h116q11 0 17 -8t4 -19l-5 -23q23 23 52.5 36.5t81.5 13.5h70zM373 736
q14 14 22 16.5t19 2.5h143q14 0 15.5 -12.5t-8.5 -19.5l-158 -111q-10 -7 -19.5 -12t-25.5 -5h-98q-13 0 -14.5 10t6.5 17z" />
    <glyph glyph-name="rcaron" unicode="&#x159;" horiz-adv-x="459" 
d="M469 520q11 0 17 -8t4 -19l-21 -101q-2 -11 -12 -19t-21 -8h-91q-45 0 -73.5 -23.5t-37.5 -68.5l-53 -246q-2 -11 -11.5 -19t-20.5 -8h-126q-11 0 -17.5 8t-4.5 19l99 466q2 11 12 19t21 8h116q11 0 17 -8t4 -19l-5 -23q23 23 52.5 36.5t81.5 13.5h70zM263 595
q-11 0 -18 4t-15 15l-78 112q-6 10 0 19.5t17 9.5h55q10 0 15.5 -3t13.5 -8l73 -44l80 44q10 5 17 8t17 3h73q13 0 14 -10t-6 -16l-129 -115q-12 -11 -20 -15t-21 -4h-88z" />
    <glyph glyph-name="rcommaaccent" unicode="&#x157;" horiz-adv-x="459" 
d="M469 520q11 0 17 -8t4 -19l-21 -101q-2 -11 -12 -19t-21 -8h-91q-45 0 -73.5 -23.5t-37.5 -68.5l-53 -246q-2 -11 -11.5 -19t-20.5 -8h-126q-11 0 -17.5 8t-4.5 19l99 466q2 11 12 19t21 8h116q11 0 17 -8t4 -19l-5 -23q23 23 52.5 36.5t81.5 13.5h70zM-28 -89
q5 14 18 26.5t33 12.5h115q11 0 16 -9.5t-1 -19.5l-85 -139q-6 -10 -18 -21t-32 -11h-81q-10 0 -15.5 7.5t-1.5 16.5z" />
    <glyph glyph-name="s" unicode="s" horiz-adv-x="561" 
d="M322 156q2 11 -4 17.5t-23 11t-46 9t-71 12.5q-74 14 -105 57t-17 111q7 34 25.5 62.5t50 49.5t76.5 32.5t105 11.5q49 0 91 -12.5t72.5 -32t46.5 -45t13 -50.5q-2 -11 -11.5 -19t-20.5 -8h-119q-11 0 -16.5 5t-13.5 11t-21.5 11t-39.5 5q-23 0 -39.5 -6.5t-19.5 -21.5
q-3 -11 1 -17t18 -10.5t40 -9t69 -11.5q44 -8 73 -24t45.5 -38.5t20.5 -50t-2 -57.5q-7 -34 -26 -63t-52.5 -50.5t-83 -33.5t-116.5 -12q-53 0 -96 13.5t-73 34.5t-45.5 46t-12.5 49q2 11 12 19t21 8h124q11 0 15 -5.5t10.5 -12t20 -12t43.5 -5.5t53.5 8t27.5 23z" />
    <glyph glyph-name="sacute" unicode="&#x15b;" horiz-adv-x="561" 
d="M322 156q2 11 -4 17.5t-23 11t-46 9t-71 12.5q-74 14 -105 57t-17 111q7 34 25.5 62.5t50 49.5t76.5 32.5t105 11.5q49 0 91 -12.5t72.5 -32t46.5 -45t13 -50.5q-2 -11 -11.5 -19t-20.5 -8h-119q-11 0 -16.5 5t-13.5 11t-21.5 11t-39.5 5q-23 0 -39.5 -6.5t-19.5 -21.5
q-3 -11 1 -17t18 -10.5t40 -9t69 -11.5q44 -8 73 -24t45.5 -38.5t20.5 -50t-2 -57.5q-7 -34 -26 -63t-52.5 -50.5t-83 -33.5t-116.5 -12q-53 0 -96 13.5t-73 34.5t-45.5 46t-12.5 49q2 11 12 19t21 8h124q11 0 15 -5.5t10.5 -12t20 -12t43.5 -5.5t53.5 8t27.5 23zM392 736
q14 14 22 16.5t19 2.5h143q14 0 15.5 -12.5t-8.5 -19.5l-158 -111q-10 -7 -19.5 -12t-25.5 -5h-98q-13 0 -14.5 10t6.5 17z" />
    <glyph glyph-name="scaron" unicode="&#x161;" horiz-adv-x="561" 
d="M322 156q2 11 -4 17.5t-23 11t-46 9t-71 12.5q-74 14 -105 57t-17 111q7 34 25.5 62.5t50 49.5t76.5 32.5t105 11.5q49 0 91 -12.5t72.5 -32t46.5 -45t13 -50.5q-2 -11 -11.5 -19t-20.5 -8h-119q-11 0 -16.5 5t-13.5 11t-21.5 11t-39.5 5q-23 0 -39.5 -6.5t-19.5 -21.5
q-3 -11 1 -17t18 -10.5t40 -9t69 -11.5q44 -8 73 -24t45.5 -38.5t20.5 -50t-2 -57.5q-7 -34 -26 -63t-52.5 -50.5t-83 -33.5t-116.5 -12q-53 0 -96 13.5t-73 34.5t-45.5 46t-12.5 49q2 11 12 19t21 8h124q11 0 15 -5.5t10.5 -12t20 -12t43.5 -5.5t53.5 8t27.5 23zM287 595
q-11 0 -18 4t-15 15l-78 112q-6 10 0 19.5t17 9.5h55q10 0 15.5 -3t13.5 -8l73 -44l80 44q10 5 17 8t17 3h73q13 0 14 -10t-6 -16l-129 -115q-12 -11 -20 -15t-21 -4h-88z" />
    <glyph glyph-name="scedilla" unicode="&#x15f;" horiz-adv-x="561" 
d="M322 156q2 11 -4 17.5t-23 11t-46 9t-71 12.5q-74 14 -105 57t-17 111q7 34 25.5 62.5t50 49.5t76.5 32.5t105 11.5q49 0 91 -12.5t72.5 -32t46.5 -45t13 -50.5q-2 -11 -11.5 -19t-20.5 -8h-119q-11 0 -16.5 5t-13.5 11t-21.5 11t-39.5 5q-23 0 -39.5 -6.5t-19.5 -21.5
q-3 -11 1 -17t18 -10.5t40 -9t69 -11.5q44 -8 73 -24t45.5 -38.5t20.5 -50t-2 -57.5q-7 -34 -26 -63t-52.5 -50.5t-83 -33.5t-116.5 -12h-3l-30 -44q7 4 17.5 7t21.5 3q31 0 48 -27.5t9 -63.5t-31 -60.5t-76 -24.5q-16 0 -34 5t-30.5 13t-17.5 16.5t6 16.5l21 16q10 7 15 7
t10.5 -3t12.5 -6.5t20 -3.5q14 0 24.5 6t13.5 21q3 14 -4.5 20.5t-22.5 6.5q-7 0 -15 -2t-15.5 -3.5t-13.5 -1t-10 5.5l-14 21q-4 8 -5.5 15t6.5 18l33 48q-39 7 -70 22t-52.5 34t-32 40t-8.5 41q2 11 12 19t21 8h124q11 0 15 -5.5t10.5 -12t20 -12t43.5 -5.5t53.5 8
t27.5 23z" />
    <glyph glyph-name="scircumflex" unicode="&#x15d;" horiz-adv-x="561" 
d="M322 156q2 11 -4 17.5t-23 11t-46 9t-71 12.5q-74 14 -105 57t-17 111q7 34 25.5 62.5t50 49.5t76.5 32.5t105 11.5q49 0 91 -12.5t72.5 -32t46.5 -45t13 -50.5q-2 -11 -11.5 -19t-20.5 -8h-119q-11 0 -16.5 5t-13.5 11t-21.5 11t-39.5 5q-23 0 -39.5 -6.5t-19.5 -21.5
q-3 -11 1 -17t18 -10.5t40 -9t69 -11.5q44 -8 73 -24t45.5 -38.5t20.5 -50t-2 -57.5q-7 -34 -26 -63t-52.5 -50.5t-83 -33.5t-116.5 -12q-53 0 -96 13.5t-73 34.5t-45.5 46t-12.5 49q2 11 12 19t21 8h124q11 0 15 -5.5t10.5 -12t20 -12t43.5 -5.5t53.5 8t27.5 23zM409 755
q11 0 18 -4t15 -15l78 -112q6 -10 0 -19.5t-17 -9.5h-51q-10 0 -15.5 3t-13.5 8l-73 44l-80 -44q-10 -5 -17 -8t-17 -3h-77q-13 0 -14 10t6 16l129 115q12 11 20 15t21 4h88z" />
    <glyph glyph-name="scommaaccent" unicode="&#x219;" horiz-adv-x="561" 
d="M322 156q2 11 -4 17.5t-23 11t-46 9t-71 12.5q-74 14 -105 57t-17 111q7 34 25.5 62.5t50 49.5t76.5 32.5t105 11.5q49 0 91 -12.5t72.5 -32t46.5 -45t13 -50.5q-2 -11 -11.5 -19t-20.5 -8h-119q-11 0 -16.5 5t-13.5 11t-21.5 11t-39.5 5q-23 0 -39.5 -6.5t-19.5 -21.5
q-3 -11 1 -17t18 -10.5t40 -9t69 -11.5q44 -8 73 -24t45.5 -38.5t20.5 -50t-2 -57.5q-7 -34 -26 -63t-52.5 -50.5t-83 -33.5t-116.5 -12q-53 0 -96 13.5t-73 34.5t-45.5 46t-12.5 49q2 11 12 19t21 8h124q11 0 15 -5.5t10.5 -12t20 -12t43.5 -5.5t53.5 8t27.5 23zM101 -89
q5 14 18 26.5t33 12.5h115q11 0 16 -9.5t-1 -19.5l-85 -139q-6 -10 -18 -21t-32 -11h-81q-10 0 -15.5 7.5t-1.5 16.5z" />
    <glyph glyph-name="t" unicode="t" horiz-adv-x="470" 
d="M274 203q-5 -23 2 -35.5t30 -12.5h80q11 0 17.5 -8t4.5 -19l-22 -101q-2 -11 -11.5 -19t-20.5 -8h-85q-39 0 -75.5 13.5t-62 39t-37.5 62t-2 82.5l36 168h-74q-11 0 -17 8t-4 19l21 101q2 11 12 19t21 8h74l35 163q2 11 11.5 19t20.5 8h126q11 0 17.5 -8t4.5 -19
l-35 -163h113q11 0 17 -8t4 -19l-21 -101q-2 -11 -12 -19t-21 -8h-113z" />
    <glyph glyph-name="tbar" unicode="&#x167;" horiz-adv-x="471" 
d="M423 370q11 0 17.5 -8t3.5 -19l-10 -51q-3 -11 -12.5 -19t-20.5 -8h-113l-13 -62q-5 -23 2 -35.5t30 -12.5h80q11 0 17.5 -8t4.5 -19l-22 -101q-2 -11 -11.5 -19t-20.5 -8h-85q-39 0 -75.5 13.5t-62 39t-37.5 62t-2 82.5l15 68h-74q-11 0 -17.5 8t-3.5 19l10 51
q3 11 12.5 19t20.5 8h74l10 45h-74q-11 0 -17.5 8t-4.5 19l11 51q2 11 12 19t21 8h74l35 163q2 11 11.5 19t20.5 8h126q11 0 17.5 -8t4.5 -19l-35 -163h113q11 0 17 -8t4 -19l-11 -51q-2 -11 -11.5 -19t-20.5 -8h-113l-10 -45h113v0z" />
    <glyph glyph-name="tcaron" unicode="&#x165;" horiz-adv-x="545" 
d="M274 203q-5 -23 2 -35.5t30 -12.5h80q11 0 17.5 -8t4.5 -19l-22 -101q-2 -11 -11.5 -19t-20.5 -8h-85q-39 0 -75.5 13.5t-62 39t-37.5 62t-2 82.5l36 168h-74q-11 0 -17 8t-4 19l21 101q2 11 12 19t21 8h74l35 163q2 11 11.5 19t20.5 8h126q11 0 17.5 -8t4.5 -19
l-35 -163h113q11 0 17 -8t4 -19l-21 -101q-2 -11 -12 -19t-21 -8h-113zM559 671q5 14 18 26.5t33 12.5h115q11 0 16 -9.5t-1 -19.5l-85 -139q-6 -10 -18 -21t-32 -11h-81q-10 0 -15.5 7.5t-1.5 16.5z" />
    <glyph glyph-name="tcommaaccent" unicode="&#x163;" horiz-adv-x="470" 
d="M274 203q-5 -23 2 -35.5t30 -12.5h80q11 0 17.5 -8t4.5 -19l-22 -101q-2 -11 -11.5 -19t-20.5 -8h-85q-39 0 -75.5 13.5t-62 39t-37.5 62t-2 82.5l36 168h-74q-11 0 -17 8t-4 19l21 101q2 11 12 19t21 8h74l35 163q2 11 11.5 19t20.5 8h126q11 0 17.5 -8t4.5 -19
l-35 -163h113q11 0 17 -8t4 -19l-21 -101q-2 -11 -12 -19t-21 -8h-113zM49 -89q5 14 18 26.5t33 12.5h115q11 0 16 -9.5t-1 -19.5l-85 -139q-6 -10 -18 -21t-32 -11h-81q-10 0 -15.5 7.5t-1.5 16.5z" />
    <glyph glyph-name="u" unicode="u" horiz-adv-x="633" 
d="M93 493q2 11 12 19t21 8h126q11 0 17 -8t4 -19l-53 -253q-10 -43 3.5 -69t57.5 -26t68 26t34 69l53 253q2 11 12 19t21 8h126q11 0 17 -8t4 -19l-99 -466q-2 -11 -11.5 -19t-20.5 -8h-116q-11 0 -17.5 8t-4.5 19l5 23q-11 -11 -23 -21.5t-28.5 -19t-39 -14t-53.5 -5.5
q-41 0 -78 13.5t-62.5 41.5t-35.5 71t3 102z" />
    <glyph glyph-name="uacute" unicode="&#xfa;" horiz-adv-x="633" 
d="M93 493q2 11 12 19t21 8h126q11 0 17 -8t4 -19l-53 -253q-10 -43 3.5 -69t57.5 -26t68 26t34 69l53 253q2 11 12 19t21 8h126q11 0 17 -8t4 -19l-99 -466q-2 -11 -11.5 -19t-20.5 -8h-116q-11 0 -17.5 8t-4.5 19l5 23q-11 -11 -23 -21.5t-28.5 -19t-39 -14t-53.5 -5.5
q-41 0 -78 13.5t-62.5 41.5t-35.5 71t3 102zM414 736q14 14 22 16.5t19 2.5h143q14 0 15.5 -12.5t-8.5 -19.5l-158 -111q-10 -7 -19.5 -12t-25.5 -5h-98q-13 0 -14.5 10t6.5 17z" />
    <glyph glyph-name="ubreve" unicode="&#x16d;" horiz-adv-x="633" 
d="M93 493q2 11 12 19t21 8h126q11 0 17 -8t4 -19l-53 -253q-10 -43 3.5 -69t57.5 -26t68 26t34 69l53 253q2 11 12 19t21 8h126q11 0 17 -8t4 -19l-99 -466q-2 -11 -11.5 -19t-20.5 -8h-116q-11 0 -17.5 8t-4.5 19l5 23q-11 -11 -23 -21.5t-28.5 -19t-39 -14t-53.5 -5.5
q-41 0 -78 13.5t-62.5 41.5t-35.5 71t3 102zM372 590q-42 0 -72 13.5t-47.5 35t-23 47.5t-0.5 50q2 8 8 13.5t15 5.5h84q9 0 13 -5.5t2 -13.5q-4 -19 3 -34.5t28 -15.5t35 15.5t18 34.5q2 8 8 13.5t15 5.5h84q9 0 13 -5.5t2 -13.5q-5 -24 -16 -50t-32 -47.5t-54 -35
t-83 -13.5z" />
    <glyph glyph-name="ucircumflex" unicode="&#xfb;" horiz-adv-x="633" 
d="M93 493q2 11 12 19t21 8h126q11 0 17 -8t4 -19l-53 -253q-10 -43 3.5 -69t57.5 -26t68 26t34 69l53 253q2 11 12 19t21 8h126q11 0 17 -8t4 -19l-99 -466q-2 -11 -11.5 -19t-20.5 -8h-116q-11 0 -17.5 8t-4.5 19l5 23q-11 -11 -23 -21.5t-28.5 -19t-39 -14t-53.5 -5.5
q-41 0 -78 13.5t-62.5 41.5t-35.5 71t3 102zM439 755q11 0 18 -4t15 -15l78 -112q6 -10 0 -19.5t-17 -9.5h-51q-10 0 -15.5 3t-13.5 8l-73 44l-80 -44q-10 -5 -17 -8t-17 -3h-77q-13 0 -14 10t6 16l129 115q12 11 20 15t21 4h88z" />
    <glyph glyph-name="udieresis" unicode="&#xfc;" horiz-adv-x="633" 
d="M93 493q2 11 12 19t21 8h126q11 0 17 -8t4 -19l-53 -253q-10 -43 3.5 -69t57.5 -26t68 26t34 69l53 253q2 11 12 19t21 8h126q11 0 17 -8t4 -19l-99 -466q-2 -11 -11.5 -19t-20.5 -8h-116q-11 0 -17.5 8t-4.5 19l5 23q-11 -11 -23 -21.5t-28.5 -19t-39 -14t-53.5 -5.5
q-41 0 -78 13.5t-62.5 41.5t-35.5 71t3 102zM342 622q-2 -11 -12 -19t-21 -8h-101q-11 0 -17 8t-4 19l21 101q2 11 12 19t21 8h101q11 0 17 -8t4 -19zM567 622q-2 -11 -12 -19t-21 -8h-101q-11 0 -17 8t-4 19l21 101q2 11 12 19t21 8h101q11 0 17 -8t4 -19z" />
    <glyph glyph-name="uhungarumlaut" unicode="&#x171;" horiz-adv-x="633" 
d="M93 493q2 11 12 19t21 8h126q11 0 17 -8t4 -19l-53 -253q-10 -43 3.5 -69t57.5 -26t68 26t34 69l53 253q2 11 12 19t21 8h126q11 0 17 -8t4 -19l-99 -466q-2 -11 -11.5 -19t-20.5 -8h-116q-11 0 -17.5 8t-4.5 19l5 23q-11 -11 -23 -21.5t-28.5 -19t-39 -14t-53.5 -5.5
q-41 0 -78 13.5t-62.5 41.5t-35.5 71t3 102zM272 736q7 10 16 14.5t25 4.5h122q15 0 16 -12t-9 -20l-129 -114q-16 -14 -37 -14h-73q-11 0 -13.5 6.5t2.5 14.5zM502 736q7 10 16 14.5t25 4.5h122q15 0 16 -12t-9 -20l-129 -114q-16 -14 -37 -14h-73q-11 0 -13.5 6.5
t2.5 14.5z" />
    <glyph glyph-name="ugrave" unicode="&#xf9;" horiz-adv-x="633" 
d="M93 493q2 11 12 19t21 8h126q11 0 17 -8t4 -19l-53 -253q-10 -43 3.5 -69t57.5 -26t68 26t34 69l53 253q2 11 12 19t21 8h126q11 0 17 -8t4 -19l-99 -466q-2 -11 -11.5 -19t-20.5 -8h-116q-11 0 -17.5 8t-4.5 19l5 23q-11 -11 -23 -21.5t-28.5 -19t-39 -14t-53.5 -5.5
q-41 0 -78 13.5t-62.5 41.5t-35.5 71t3 102zM443 624q5 -9 0 -19t-17 -10h-88q-16 0 -23.5 5t-14.5 12l-106 105q-9 9 -4 23.5t19 14.5h133q11 0 18 -3t15 -16z" />
    <glyph glyph-name="umacron" unicode="&#x16b;" horiz-adv-x="633" 
d="M93 493q2 11 12 19t21 8h126q11 0 17 -8t4 -19l-53 -253q-10 -43 3.5 -69t57.5 -26t68 26t34 69l53 253q2 11 12 19t21 8h126q11 0 17 -8t4 -19l-99 -466q-2 -11 -11.5 -19t-20.5 -8h-116q-11 0 -17.5 8t-4.5 19l5 23q-11 -11 -23 -21.5t-28.5 -19t-39 -14t-53.5 -5.5
q-41 0 -78 13.5t-62.5 41.5t-35.5 71t3 102zM217 595q-11 0 -17 8t-4 19l18 86q2 11 12 19t21 8h289q11 0 17 -8t4 -19l-18 -86q-2 -11 -12 -19t-21 -8h-289z" />
    <glyph glyph-name="uogonek" unicode="&#x173;" horiz-adv-x="633" 
d="M93 493q2 11 12 19t21 8h126q11 0 17 -8t4 -19l-53 -253q-10 -43 3.5 -69t57.5 -26t68 26t34 69l53 253q2 11 12 19t21 8h126q11 0 17 -8t4 -19l-99 -466q-2 -11 -11.5 -19t-20.5 -8q-26 0 -43 -16.5t-22 -39.5t5.5 -39.5t36.5 -16.5h15q22 0 17 -22l-14 -64
q-2 -10 -9 -16t-17 -6h-19q-30 0 -56.5 13t-44.5 36t-25.5 53.5t0.5 66.5q10 52 38 77v1l5 23q-11 -11 -23 -21.5t-28.5 -19t-39 -14t-53.5 -5.5q-41 0 -78 13.5t-62.5 41.5t-35.5 71t3 102z" />
    <glyph glyph-name="uring" unicode="&#x16f;" horiz-adv-x="633" 
d="M93 493q2 11 12 19t21 8h126q11 0 17 -8t4 -19l-53 -253q-10 -43 3.5 -69t57.5 -26t68 26t34 69l53 253q2 11 12 19t21 8h126q11 0 17 -8t4 -19l-99 -466q-2 -11 -11.5 -19t-20.5 -8h-116q-11 0 -17.5 8t-4.5 19l5 23q-11 -11 -23 -21.5t-28.5 -19t-39 -14t-53.5 -5.5
q-41 0 -78 13.5t-62.5 41.5t-35.5 71t3 102zM351 680q-3 -13 4 -21.5t20 -8.5t23 8.5t13 21.5t-4 21.5t-20 8.5t-23 -8.5t-13 -21.5zM287 682q8 39 38.5 63.5t69.5 24.5q19 0 35.5 -7t28 -19.5t16 -29.5t0.5 -36q-8 -39 -38.5 -63.5t-69.5 -24.5q-20 0 -36 7t-27.5 19.5
t-16 29t-0.5 36.5z" />
    <glyph glyph-name="utilde" unicode="&#x169;" horiz-adv-x="633" 
d="M93 493q2 11 12 19t21 8h126q11 0 17 -8t4 -19l-53 -253q-10 -43 3.5 -69t57.5 -26t68 26t34 69l53 253q2 11 12 19t21 8h126q11 0 17 -8t4 -19l-99 -466q-2 -11 -11.5 -19t-20.5 -8h-116q-11 0 -17.5 8t-4.5 19l5 23q-11 -11 -23 -21.5t-28.5 -19t-39 -14t-53.5 -5.5
q-41 0 -78 13.5t-62.5 41.5t-35.5 71t3 102zM452 590q-30 0 -46.5 7t-28.5 15.5t-22 15.5t-26 7q-12 0 -19.5 -6.5t-13 -14t-11 -13.5t-13.5 -6h-76q-9 0 -13 5.5t-2 13.5q5 22 16.5 46.5t29.5 44t42 32.5t53 13q30 0 46.5 -7t28 -15.5t21.5 -15.5t26 -7q12 0 19.5 6
t13.5 13.5t11.5 14t13.5 6.5h76q9 0 13 -5.5t2 -13.5q-5 -23 -18 -47t-32 -43.5t-42.5 -32.5t-48.5 -13z" />
    <glyph glyph-name="v" unicode="v" horiz-adv-x="630" 
d="M191 0q-15 0 -20.5 8t-7.5 17l-104 464q-2 12 7 21.5t23 9.5h118q15 0 20.5 -8t7.5 -16l57 -261l163 261q5 8 14 16t24 8h143q13 0 18 -10t-2 -21l-300 -464q-7 -9 -15 -17t-23 -8h-123v0z" />
    <glyph glyph-name="w" unicode="w" horiz-adv-x="854" 
d="M496 520q15 0 21 -8t8 -16l40 -227l118 227q5 8 14.5 16t24.5 8h134q17 0 19.5 -10.5t-3.5 -21.5l-257 -463q-5 -9 -14 -17t-24 -8h-106q-15 0 -20.5 8t-7.5 17l-36 210l-106 -210q-5 -10 -14 -17.5t-24 -7.5h-112q-15 0 -21 8t-7 17l-61 463q-2 12 4.5 22t25.5 10h114
q15 0 21.5 -8t7.5 -16l30 -227l108 227q5 8 14.5 16t24.5 8h84z" />
    <glyph glyph-name="wacute" unicode="&#x1e83;" horiz-adv-x="854" 
d="M496 520q15 0 21 -8t8 -16l40 -227l118 227q5 8 14.5 16t24.5 8h134q17 0 19.5 -10.5t-3.5 -21.5l-257 -463q-5 -9 -14 -17t-24 -8h-106q-15 0 -20.5 8t-7.5 17l-36 210l-106 -210q-5 -10 -14 -17.5t-24 -7.5h-112q-15 0 -21 8t-7 17l-61 463q-2 12 4.5 22t25.5 10h114
q15 0 21.5 -8t7.5 -16l30 -227l108 227q5 8 14.5 16t24.5 8h84zM524 736q14 14 22 16.5t19 2.5h143q14 0 15.5 -12.5t-8.5 -19.5l-158 -111q-10 -7 -19.5 -12t-25.5 -5h-98q-13 0 -14.5 10t6.5 17z" />
    <glyph glyph-name="wcircumflex" unicode="&#x175;" horiz-adv-x="854" 
d="M496 520q15 0 21 -8t8 -16l40 -227l118 227q5 8 14.5 16t24.5 8h134q17 0 19.5 -10.5t-3.5 -21.5l-257 -463q-5 -9 -14 -17t-24 -8h-106q-15 0 -20.5 8t-7.5 17l-36 210l-106 -210q-5 -10 -14 -17.5t-24 -7.5h-112q-15 0 -21 8t-7 17l-61 463q-2 12 4.5 22t25.5 10h114
q15 0 21.5 -8t7.5 -16l30 -227l108 227q5 8 14.5 16t24.5 8h84zM543 755q11 0 18 -4t15 -15l78 -112q6 -10 0 -19.5t-17 -9.5h-51q-10 0 -15.5 3t-13.5 8l-73 44l-80 -44q-10 -5 -17 -8t-17 -3h-77q-13 0 -14 10t6 16l129 115q12 11 20 15t21 4h88z" />
    <glyph glyph-name="wdieresis" unicode="&#x1e85;" horiz-adv-x="854" 
d="M496 520q15 0 21 -8t8 -16l40 -227l118 227q5 8 14.5 16t24.5 8h134q17 0 19.5 -10.5t-3.5 -21.5l-257 -463q-5 -9 -14 -17t-24 -8h-106q-15 0 -20.5 8t-7.5 17l-36 210l-106 -210q-5 -10 -14 -17.5t-24 -7.5h-112q-15 0 -21 8t-7 17l-61 463q-2 12 4.5 22t25.5 10h114
q15 0 21.5 -8t7.5 -16l30 -227l108 227q5 8 14.5 16t24.5 8h84zM436 622q-2 -11 -12 -19t-21 -8h-101q-11 0 -17 8t-4 19l21 101q2 11 12 19t21 8h101q11 0 17 -8t4 -19zM661 622q-2 -11 -12 -19t-21 -8h-101q-11 0 -17 8t-4 19l21 101q2 11 12 19t21 8h101q11 0 17 -8
t4 -19z" />
    <glyph glyph-name="wgrave" unicode="&#x1e81;" horiz-adv-x="854" 
d="M496 520q15 0 21 -8t8 -16l40 -227l118 227q5 8 14.5 16t24.5 8h134q17 0 19.5 -10.5t-3.5 -21.5l-257 -463q-5 -9 -14 -17t-24 -8h-106q-15 0 -20.5 8t-7.5 17l-36 210l-106 -210q-5 -10 -14 -17.5t-24 -7.5h-112q-15 0 -21 8t-7 17l-61 463q-2 12 4.5 22t25.5 10h114
q15 0 21.5 -8t7.5 -16l30 -227l108 227q5 8 14.5 16t24.5 8h84zM543 624q5 -9 0 -19t-17 -10h-88q-16 0 -23.5 5t-14.5 12l-106 105q-9 9 -4 23.5t19 14.5h133q11 0 18 -3t15 -16z" />
    <glyph glyph-name="x" unicode="x" horiz-adv-x="619" 
d="M412 249l121 -212q7 -12 -0.5 -24.5t-26.5 -12.5h-136q-13 0 -18 5t-10 14l-60 104l-105 -104q-5 -5 -14 -12t-22 -7h-172q-18 0 -21 13t8 24l240 239l-118 207q-7 12 0.5 24.5t27.5 12.5h135q13 0 18 -5.5t10 -13.5l56 -98l96 98q5 5 14 12t22 7h174q18 0 20.5 -13
t-8.5 -24z" />
    <glyph glyph-name="y" unicode="y" 
d="M238 -166q-5 -8 -13.5 -16t-20.5 -8h-142q-12 0 -17.5 10t1.5 21l118 184l-103 464q-3 12 7.5 21.5t22.5 9.5h127q12 0 17 -8t7 -16l56 -260l165 260q5 8 13.5 16t20.5 8h143q12 0 17.5 -10t-1.5 -21z" />
    <glyph glyph-name="yacute" unicode="&#xfd;" 
d="M238 -166q-5 -8 -13.5 -16t-20.5 -8h-142q-12 0 -17.5 10t1.5 21l118 184l-103 464q-3 12 7.5 21.5t22.5 9.5h127q12 0 17 -8t7 -16l56 -260l165 260q5 8 13.5 16t20.5 8h143q12 0 17.5 -10t-1.5 -21zM405 736q14 14 22 16.5t19 2.5h143q14 0 15.5 -12.5t-8.5 -19.5
l-158 -111q-10 -7 -19.5 -12t-25.5 -5h-98q-13 0 -14.5 10t6.5 17z" />
    <glyph glyph-name="ycircumflex" unicode="&#x177;" 
d="M238 -166q-5 -8 -13.5 -16t-20.5 -8h-142q-12 0 -17.5 10t1.5 21l118 184l-103 464q-3 12 7.5 21.5t22.5 9.5h127q12 0 17 -8t7 -16l56 -260l165 260q5 8 13.5 16t20.5 8h143q12 0 17.5 -10t-1.5 -21zM435 755q11 0 18 -4t15 -15l78 -112q6 -10 0 -19.5t-17 -9.5h-51
q-10 0 -15.5 3t-13.5 8l-73 44l-80 -44q-10 -5 -17 -8t-17 -3h-77q-13 0 -14 10t6 16l129 115q12 11 20 15t21 4h88z" />
    <glyph glyph-name="ydieresis" unicode="&#xff;" 
d="M238 -166q-5 -8 -13.5 -16t-20.5 -8h-142q-12 0 -17.5 10t1.5 21l118 184l-103 464q-3 12 7.5 21.5t22.5 9.5h127q12 0 17 -8t7 -16l56 -260l165 260q5 8 13.5 16t20.5 8h143q12 0 17.5 -10t-1.5 -21zM330 622q-2 -11 -12 -19t-21 -8h-101q-11 0 -17 8t-4 19l21 101
q2 11 12 19t21 8h101q11 0 17 -8t4 -19zM555 622q-2 -11 -12 -19t-21 -8h-101q-11 0 -17 8t-4 19l21 101q2 11 12 19t21 8h101q11 0 17 -8t4 -19z" />
    <glyph glyph-name="ygrave" unicode="&#x1ef3;" 
d="M238 -166q-5 -8 -13.5 -16t-20.5 -8h-142q-12 0 -17.5 10t1.5 21l118 184l-103 464q-3 12 7.5 21.5t22.5 9.5h127q12 0 17 -8t7 -16l56 -260l165 260q5 8 13.5 16t20.5 8h143q12 0 17.5 -10t-1.5 -21zM436 624q5 -9 0 -19t-17 -10h-88q-16 0 -23.5 5t-14.5 12l-106 105
q-9 9 -4 23.5t19 14.5h133q11 0 18 -3t15 -16z" />
    <glyph glyph-name="z" unicode="z" horiz-adv-x="564" 
d="M473 155q11 0 17.5 -8t4.5 -19l-22 -101q-2 -11 -11.5 -19t-20.5 -8h-436q-11 0 -17.5 8t-4.5 19l21 97q2 12 8.5 20t14.5 15l226 206h-161q-11 0 -17 8t-4 19l21 101q2 11 12 19t21 8h406q11 0 17 -8t4 -19l-20 -97q-2 -9 -7.5 -15.5t-12.5 -13.5l-234 -212h195z" />
    <glyph glyph-name="zacute" unicode="&#x17a;" horiz-adv-x="564" 
d="M473 155q11 0 17.5 -8t4.5 -19l-22 -101q-2 -11 -11.5 -19t-20.5 -8h-436q-11 0 -17.5 8t-4.5 19l21 97q2 12 8.5 20t14.5 15l226 206h-161q-11 0 -17 8t-4 19l21 101q2 11 12 19t21 8h406q11 0 17 -8t4 -19l-20 -97q-2 -9 -7.5 -15.5t-12.5 -13.5l-234 -212h195z
M378 736q14 14 22 16.5t19 2.5h143q14 0 15.5 -12.5t-8.5 -19.5l-158 -111q-10 -7 -19.5 -12t-25.5 -5h-98q-13 0 -14.5 10t6.5 17z" />
    <glyph glyph-name="zcaron" unicode="&#x17e;" horiz-adv-x="564" 
d="M473 155q11 0 17.5 -8t4.5 -19l-22 -101q-2 -11 -11.5 -19t-20.5 -8h-436q-11 0 -17.5 8t-4.5 19l21 97q2 12 8.5 20t14.5 15l226 206h-161q-11 0 -17 8t-4 19l21 101q2 11 12 19t21 8h406q11 0 17 -8t4 -19l-20 -97q-2 -9 -7.5 -15.5t-12.5 -13.5l-234 -212h195z
M285 595q-11 0 -18 4t-15 15l-78 112q-6 10 0 19.5t17 9.5h55q10 0 15.5 -3t13.5 -8l73 -44l80 44q10 5 17 8t17 3h73q13 0 14 -10t-6 -16l-129 -115q-12 -11 -20 -15t-21 -4h-88z" />
    <glyph glyph-name="zdotaccent" unicode="&#x17c;" horiz-adv-x="564" 
d="M473 155q11 0 17.5 -8t4.5 -19l-22 -101q-2 -11 -11.5 -19t-20.5 -8h-436q-11 0 -17.5 8t-4.5 19l21 97q2 12 8.5 20t14.5 15l226 206h-161q-11 0 -17 8t-4 19l21 101q2 11 12 19t21 8h406q11 0 17 -8t4 -19l-20 -97q-2 -9 -7.5 -15.5t-12.5 -13.5l-234 -212h195z
M422 622q-2 -11 -12 -19t-21 -8h-111q-11 0 -17 8t-4 19l23 111q2 11 12 19t21 8h111q11 0 17 -8t4 -19z" />
    <glyph glyph-name="Eth" unicode="&#xd0;" horiz-adv-x="755" 
d="M467 700q61 0 114.5 -22t90.5 -61t54 -92t7 -114q-4 -21 -7 -38.5t-6.5 -33.5t-7.5 -33t-9 -37q-16 -62 -44 -111.5t-71 -84.5t-103.5 -54t-140.5 -19h-280q-11 0 -17.5 8t-4.5 19l55 257h-53q-11 0 -17.5 8t-3.5 19l18 86q2 11 12 19t21 8h53l53 249q2 11 11.5 19
t20.5 8h255zM550 425q18 115 -112 115h-102l-25 -116h76q11 0 17 -8t4 -19l-18 -86q-3 -11 -12.5 -19t-20.5 -8h-75l-26 -124h107q126 0 155 115q10 43 17 76t15 74z" />
    <glyph glyph-name="eth" unicode="&#xf0;" horiz-adv-x="594" 
d="M539 225q-27 -122 -106 -178.5t-199 -56.5q-45 0 -89 15.5t-76 46t-47.5 76.5t-2.5 107q26 122 101 178.5t195 56.5q10 0 25.5 -1t25.5 -2q-5 18 -11.5 33.5t-14.5 30.5l-100 -37q-11 -4 -21.5 -2.5t-7.5 20.5l11 48q4 25 29 33l32 12l-51 53q-8 8 -10.5 13t-1.5 9
q5 20 24 20h156q12 0 19.5 -3.5t14.5 -9.5l18 -21l83 31q11 5 21 1.5t7 -19.5l-10 -48q-5 -25 -29 -33l-17 -6q20 -33 33 -71t17.5 -82.5t0 -97t-18.5 -116.5zM198 230q-8 -35 3 -60t55 -25q45 0 65.5 25t28.5 60q4 18 3.5 33.5t-6.5 27t-19.5 18t-35.5 6.5q-45 0 -65.5 -25
t-28.5 -60z" />
    <glyph glyph-name="Thorn" unicode="&#xde;" horiz-adv-x="687" 
d="M316 585h117q56 0 104.5 -16t82 -47.5t47.5 -77t2 -103.5q-13 -59 -37 -101t-62 -70t-91.5 -41t-124.5 -13h-138l-19 -89q-2 -11 -11.5 -19t-20.5 -8h-131q-11 0 -18 8t-4 21l138 644q2 11 11.5 19t20.5 8h131q11 0 17.5 -8t4.5 -19zM249 272h123q42 0 73.5 18.5
t40.5 60.5q8 42 -15.5 60.5t-65.5 18.5h-123z" />
    <glyph glyph-name="Eng" unicode="&#x14a;" horiz-adv-x="727" 
d="M422 66l-153 299l-72 -338q-2 -11 -11.5 -19t-20.5 -8h-131q-11 0 -17.5 8t-4.5 19l138 646q2 11 11.5 19t20.5 8h84q17 0 25.5 -9t10.5 -14l177 -342l72 338q2 11 11.5 19t20.5 8h131q11 0 17.5 -8t4.5 -19l-146 -690q-10 -46 -27 -84.5t-44.5 -66t-67 -42.5t-93.5 -15
h-80q-11 0 -17.5 8t-4.5 19l23 106q2 11 12 19t21 8h40q24 0 36.5 14.5t16.5 33.5z" />
    <glyph glyph-name="eng" unicode="&#x14b;" horiz-adv-x="644" 
d="M523 -27q-10 -46 -29 -83t-49 -62.5t-71 -39t-95 -13.5h-60q-11 0 -17 8t-4 19l20 96q2 11 12.5 21.5t21.5 10.5h39q24 0 36.5 14.5t16.5 33.5l64 302q9 43 -6.5 69t-60.5 26t-71 -26t-35 -69l-54 -253q-2 -11 -11.5 -19t-20.5 -8h-126q-11 0 -17.5 8t-4.5 19l99 466
q2 11 12 19t21 8h121q11 0 17 -8t4 -19l-5 -23q21 21 56 40.5t88 19.5q45 0 83 -13.5t63.5 -41.5t35 -71t-2.5 -102z" />
    <glyph glyph-name="germandbls" unicode="&#xdf;" horiz-adv-x="660" 
d="M258 128q2 11 11.5 19t20.5 8h41q38 0 66.5 15t36.5 49t-14.5 49t-60.5 15h-46q-21 0 -18 22l24 111q5 22 27 22h31q35 0 62 14t34 44q6 30 -17 44.5t-70 14.5q-46 0 -76 -21.5t-44 -82.5l-90 -424q-2 -11 -11.5 -19t-20.5 -8h-121q-11 0 -17.5 8t-4.5 19l90 424
q13 60 36 108t60.5 81.5t92 51.5t129.5 18q60 0 107.5 -18t79 -48.5t45 -70t4.5 -82.5q-6 -28 -15.5 -48t-21 -34.5t-24 -25t-25.5 -18.5q10 -8 21 -21t19.5 -31.5t11.5 -43t-3 -55.5q-22 -105 -92 -159.5t-202 -54.5h-56q-11 0 -17.5 8t-4.5 19z" />
    <glyph glyph-name="longs" unicode="&#x17f;" horiz-adv-x="357" 
d="M241 27q-2 -11 -11.5 -19t-20.5 -8h-126q-11 0 -17.5 8t-4.5 19l72 338h-69q-11 0 -17 8t-4 19l21 101q2 11 12 19t21 8h69l6 27q20 93 80 143t169 50h105q11 0 17 -8t4 -19l-21 -101q-3 -11 -12.5 -19t-20.5 -8h-90q-24 0 -36 -12t-16 -31z" />
    <glyph glyph-name="zero" unicode="0" horiz-adv-x="690" 
d="M422 710q72 0 122.5 -22t80.5 -59t40.5 -86.5t1.5 -103.5q-7 -43 -17 -90t-21 -88q-15 -54 -38.5 -103.5t-63 -86.5t-97.5 -59t-141 -22q-68 0 -118 22t-80.5 59t-42.5 86.5t-3 103.5q6 41 16.5 88t21.5 90q15 54 38.5 103.5t62.5 86.5t97 59t141 22zM445 266
q22 85 36 168q4 25 2.5 46t-10.5 36.5t-27 24.5t-48 9t-51.5 -9t-37 -24.5t-25.5 -36.5t-17 -46q-23 -83 -36 -168q-4 -25 -3 -46t10 -36.5t27 -24.5t48 -9t52 9t37.5 24.5t26 36.5t16.5 46z" />
    <glyph glyph-name="one" unicode="1" horiz-adv-x="501" 
d="M56 475q-5 9 -0.5 20t15.5 18l250 165q9 6 22 14t28 8h122q11 0 17.5 -8t4.5 -19l-138 -646q-2 -11 -11.5 -19t-20.5 -8h-131q-11 0 -17.5 8t-4.5 19l92 432l-136 -87q-11 -7 -21.5 -5.5t-15.5 10.5z" />
    <glyph glyph-name="two" unicode="2" horiz-adv-x="664" 
d="M638 465q-6 -29 -15.5 -56.5t-26 -54t-42.5 -52t-66 -50.5l-157 -92h231q11 0 17 -8t4 -19l-23 -106q-2 -11 -11.5 -19t-20.5 -8h-518q-11 0 -17.5 8t-4.5 19l19 86q3 16 13 32t28 27l339 211q20 13 32.5 25.5t19.5 23.5t10 22t5 21q2 7 2 19.5t-6 25t-21 21.5t-43 9
t-47 -9.5t-31.5 -21.5t-19.5 -24.5t-10 -18.5q-8 -14 -19.5 -18.5t-25.5 -4.5h-123q-9 0 -14.5 6.5t-3.5 15.5q10 42 31.5 83.5t59 75.5t93 55t133.5 21q63 0 110 -21t77 -55.5t41 -78.5t1 -90z" />
    <glyph glyph-name="three" unicode="3" horiz-adv-x="676" 
d="M653 700q11 0 17.5 -8t4.5 -19l-23 -106q-2 -11 -11 -20t-16 -15l-147 -122q36 -11 64.5 -29.5t46.5 -44t24 -58t-2 -71.5q-12 -56 -36.5 -97t-64.5 -67.5t-97.5 -39.5t-134.5 -13q-64 0 -116.5 17t-88.5 45t-53.5 63.5t-10.5 72.5q2 9 10 15.5t17 6.5h126q21 0 30 -9.5
t20.5 -20.5t30.5 -20.5t59 -9.5q48 0 83 16t43 51q7 35 -21 51t-76 16h-87q-11 0 -17.5 8t-3.5 19l18 86q2 11 11.5 20t17.5 16l128 107h-257q-11 0 -17 8t-4 19l23 106q2 11 11.5 19t20.5 8h478z" />
    <glyph glyph-name="four" unicode="4" horiz-adv-x="713" 
d="M358 0q-11 0 -17.5 8t-4.5 19l22 102h-335q-11 0 -17.5 8t-3.5 19l22 106q6 25 22 43l379 377q12 11 20 14.5t21 3.5h171q11 0 17.5 -8t4.5 -19l-82 -384h76q11 0 17 -8t4 -19l-22 -106q-3 -11 -12.5 -19t-20.5 -8h-76l-22 -102q-2 -11 -11.5 -19t-20.5 -8h-131zM397 289
l39 184l-184 -184h145z" />
    <glyph glyph-name="five" unicode="5" horiz-adv-x="653" 
d="M200 208q5 -9 11 -19t16.5 -18.5t26 -14.5t38.5 -6q21 0 41.5 5.5t37.5 16.5t29 27t17 38q7 34 -15 55.5t-68 21.5q-16 0 -29.5 -4t-24.5 -8.5t-20 -8.5t-15 -4h-156q-12 0 -18 8t-3 19l106 357q3 11 12 19t20 8h428q11 0 17.5 -8t4.5 -19l-23 -106q-2 -11 -12 -19
t-21 -8h-291l-26 -89q20 10 43 16.5t55 6.5q49 0 93.5 -17.5t76.5 -49.5t46.5 -77.5t2.5 -102.5q-26 -121 -112 -179t-220 -58q-59 0 -109 17.5t-85 47t-52 68t-9 79.5q2 9 10 15.5t17 6.5h127q16 0 23.5 -6t9.5 -10z" />
    <glyph glyph-name="six" unicode="6" horiz-adv-x="661" 
d="M619 236q-25 -118 -115 -182t-226 -64q-53 0 -103 18t-87 51.5t-55 80.5t-6 106q14 62 43 101.5t61 74.5l246 258q6 5 13.5 12.5t21.5 7.5h174q9 0 13.5 -6.5t2.5 -15.5q-2 -5 -4 -8t-4 -5l-168 -176q43 -9 83 -29.5t68 -52.5t40.5 -75t1.5 -96zM209 241q-5 -22 1 -39
t19.5 -28.5t32.5 -17.5t40 -6t42.5 6t40 17.5t32 28.5t18.5 39q4 22 -2 39t-19.5 28.5t-32.5 17.5t-40 6t-42.5 -6t-40 -17.5t-32 -28.5t-17.5 -39z" />
    <glyph glyph-name="seven" unicode="7" horiz-adv-x="589" 
d="M394 540h-288q-11 0 -17 8t-4 19l23 106q2 11 11.5 19t20.5 8h478q11 0 17.5 -8t4.5 -19l-20 -93q-2 -9 -9 -21.5t-18 -29.5l-324 -505q-6 -9 -14 -16.5t-20 -7.5h-150q-16 0 -18.5 12t2.5 20z" />
    <glyph glyph-name="eight" unicode="8" horiz-adv-x="684" 
d="M104 500q10 49 36.5 88t67 66t93.5 41.5t118 14.5q53 0 101.5 -17.5t83.5 -48.5t51.5 -73t6.5 -91q-18 -78 -83 -134q26 -28 37 -64.5t1 -81.5q-21 -99 -106 -154.5t-225 -55.5q-55 0 -106 17.5t-88 48.5t-55.5 73t-7.5 91q10 45 35.5 81.5t63.5 64.5q-19 27 -26 60.5
t2 73.5zM212 208q-6 -29 17 -48.5t79 -19.5t88 19.5t38 48.5t-17.5 48.5t-79.5 19.5t-87.5 -19.5t-37.5 -48.5zM287 492q-6 -29 15.5 -48.5t66.5 -19.5t74.5 19.5t35.5 48.5t-15 48.5t-66 19.5t-75 -19.5t-36 -48.5z" />
    <glyph glyph-name="nine" unicode="9" horiz-adv-x="650" 
d="M65 466q13 58 43 103.5t73.5 77t99 47.5t119.5 16q52 0 102.5 -18t87 -51t54.5 -80t5 -105q-6 -29 -17 -53t-24.5 -44.5t-30 -39t-32.5 -36.5l-246 -263q-6 -5 -13.5 -12.5t-21.5 -7.5h-174q-9 0 -13.5 6.5t-2.5 15.5q1 5 3.5 8t4.5 5l166 180q-39 7 -76.5 27.5t-65 53
t-40 75t-1.5 95.5zM465 461q4 20 -1 36.5t-18 28t-31 18t-39 6.5t-42 -6.5t-38 -18t-30 -28t-17 -36.5t1.5 -36.5t18.5 -28t31 -18t39 -6.5t42 6.5t38 18t29.5 28t16.5 36.5z" />
    <glyph glyph-name="comma" unicode="," horiz-adv-x="289" 
d="M31 146q5 14 18 26.5t33 12.5h123q13 0 16.5 -10t-1.5 -19l-121 -199q-6 -10 -17.5 -21t-31.5 -11h-75q-8 0 -15 7.5t-2 16.5z" />
    <glyph glyph-name="period" unicode="." horiz-adv-x="286" 
d="M180 27q-2 -11 -11.5 -19t-20.5 -8h-131q-11 0 -17.5 8t-4.5 19l28 131q2 11 12 19t21 8h131q11 0 17 -8t4 -19z" />
    <glyph glyph-name="currency" unicode="&#xa4;" horiz-adv-x="624" 
d="M73 300q14 65 57 119l-34 44q-6 8 -3.5 19t11.5 19l62 52q10 8 21 8t17 -8l35 -45q29 15 61 23.5t64 8.5q29 0 55 -7t48 -19l56 46q9 8 20 8t18 -8l52 -67q6 -8 3.5 -19t-11.5 -19l-56 -46q16 -52 4 -109q-7 -32 -21.5 -62t-35.5 -56l35 -44q6 -8 3.5 -19t-11.5 -19
l-62 -52q-10 -8 -21 -8t-17 8l-35 44q-59 -32 -126 -32q-60 0 -104 26l-56 -46q-9 -8 -20 -8t-18 8l-53 67q-5 8 -3 19t11 19l57 47q-15 49 -3 108zM213 300q-8 -42 14.5 -71t64.5 -29q21 0 40.5 8t36 21.5t28.5 31.5t16 39q9 42 -13.5 71t-64.5 29q-21 0 -41 -8
t-36.5 -21.5t-28.5 -31.5t-16 -39z" />
    <glyph glyph-name="cent" unicode="&#xa2;" horiz-adv-x="619" 
d="M226 295q-5 -15 -9 -35t-6 -35q-5 -36 14.5 -58t59.5 -22q33 0 52.5 9.5t34.5 26.5q7 8 14.5 14t18.5 6h131q11 0 18 -8t3 -19q-4 -14 -15.5 -40t-35.5 -53t-64 -51t-102 -34l-14 -69q-2 -11 -12 -19t-21 -8h-126q-11 0 -17 8t-4 19l16 82q-32 13 -59.5 33.5t-45.5 48
t-25.5 61.5t-0.5 73l8 40t9 40q21 87 77 143t146 74l14 61q3 11 12.5 19t20.5 8h126q11 0 17.5 -8t3.5 -19l-15 -67q43 -14 71.5 -37t45.5 -48.5t23 -48.5t4 -36q-2 -11 -12 -19t-21 -8h-131q-11 0 -16 6t-8 14q-8 17 -23.5 26.5t-48.5 9.5q-40 0 -68.5 -22t-39.5 -58z" />
    <glyph glyph-name="dollar" unicode="$" horiz-adv-x="678" 
d="M506 695q39 -12 70.5 -32.5t53.5 -45t32.5 -52t9.5 -52.5q-2 -9 -10 -15.5t-16 -6.5h-131q-14 0 -21.5 4t-15.5 12q-3 3 -8 10t-15 14.5t-27 13t-43 5.5q-19 0 -37 -2.5t-33 -8t-25 -15.5t-13 -25t4 -25.5t27.5 -19.5t56 -17.5t88.5 -19.5q105 -23 149 -74t24 -145
q-38 -178 -269 -204l-14 -67q-2 -11 -12 -19t-21 -8h-131q-11 0 -17 8t-4 19l16 79q-39 13 -71 33.5t-54 45.5t-33 54t-9 58q2 9 10 15.5t16 6.5h131q14 0 21.5 -3.5t13.5 -10.5q4 -4 9.5 -13t17 -18.5t30.5 -16.5t49 -7q53 0 91 11.5t45 41.5q3 15 -7.5 25.5t-35.5 19.5
t-63.5 17.5t-90.5 20.5q-98 22 -134.5 77t-17.5 141q7 36 25 68.5t46.5 58.5t68 44.5t90.5 27.5l16 70q2 11 12 19t21 8h131q11 0 17 -8t4 -19z" />
    <glyph glyph-name="Euro" unicode="&#x20ac;" horiz-adv-x="792" 
d="M373 -10q-65 0 -118 21.5t-88.5 60t-51 90.5t-4.5 113h-60q-11 0 -17 8t-4 19l20 96q2 11 12 19t21 8h60q15 61 45 113t75.5 90t106 60t136.5 22q58 0 112.5 -18.5t94.5 -50.5t60.5 -76.5t10.5 -95.5q-2 -9 -9.5 -15.5t-16.5 -6.5h-131q-17 0 -20.5 6.5t-7.5 22.5
q-5 15 -11.5 28.5t-19 23.5t-33 16t-53.5 6q-63 0 -101.5 -35.5t-52.5 -89.5h146q11 0 17 -8t4 -19l-20 -96q-2 -11 -12 -19t-21 -8h-146q-9 -54 14.5 -89.5t86.5 -35.5q33 0 56 6t40 16t29 23.5t23 28.5q11 16 17 22.5t23 6.5h131q9 0 14.5 -6.5t3.5 -15.5
q-12 -51 -44 -95.5t-79 -76.5t-107.5 -50.5t-130.5 -18.5z" />
    <glyph glyph-name="sterling" unicode="&#xa3;" horiz-adv-x="758" 
d="M152 434q12 57 34 107t60 87.5t96 59.5t141 22q62 0 110.5 -17t81 -48.5t47 -76t9.5 -98.5q-1 -9 -9 -15.5t-17 -6.5h-131q-17 0 -21.5 6t-6.5 23q-3 16 -7.5 29t-13.5 23t-25 15.5t-41 5.5q-24 0 -44 -9.5t-36 -25.5t-26.5 -37t-15.5 -44l-6 -26h161q11 0 17.5 -8
t3.5 -19l-20 -96q-2 -11 -12 -19t-21 -8h-141q-1 -11 -1.5 -22.5t-2.5 -22.5q26 -8 45.5 -18.5t36 -21t31 -17.5t30.5 -7q28 0 42.5 11t28.5 31q7 9 15 15.5t16 6.5h126q9 0 14 -6.5t3 -15.5q-8 -33 -25 -68.5t-47 -65t-73.5 -49t-103.5 -19.5q-48 0 -80.5 11.5t-57 25.5
t-45 25.5t-45.5 11.5q-28 0 -42 -10.5t-29 -30.5q-6 -9 -14 -15.5t-16 -6.5h-126q-9 0 -14.5 6.5t-3.5 15.5q6 23 16 47.5t27 48t42 44t61 35.5q3 15 4.5 30t2.5 31h-61q-11 0 -17 8t-4 19l20 96q3 11 12.5 19t20.5 8h41l6 26v0z" />
    <glyph glyph-name="yen" unicode="&#xa5;" horiz-adv-x="699" 
d="M237 293l-128 372q-5 13 3.5 24t21.5 11h127q20 0 27.5 -10t9.5 -15l72 -226l166 226q3 5 15 15t32 10h148q16 0 18 -12t-6 -23l-280 -372h120q11 0 17 -8t4 -19l-20 -96q-3 -11 -12.5 -19t-20.5 -8h-139l-23 -116q-2 -11 -11.5 -19t-20.5 -8h-131q-11 0 -17.5 8t-4.5 19
l23 116h-141q-11 0 -17.5 8t-3.5 19l20 96q2 11 12 19t21 8h119z" />
    <glyph glyph-name="florin" unicode="&#x192;" horiz-adv-x="487" 
d="M355 520h123q11 0 17 -8t4 -19l-21 -101q-2 -11 -12 -19t-21 -8h-123l-83 -392q-10 -46 -29 -83t-49 -62.5t-71 -39t-95 -13.5h-60q-11 0 -17 8t-4 19l20 96q2 11 12.5 21.5t21.5 10.5h39q24 0 36.5 14.5t16.5 33.5l82 387h-69q-11 0 -17 8t-4 19l21 101q2 11 12 19t21 8
h69l6 27q20 93 80 143t169 50h105q11 0 17 -8t4 -19l-21 -101q-3 -11 -12.5 -19t-20.5 -8h-90q-24 0 -36 -12t-16 -31z" />
    <glyph glyph-name="numbersign" unicode="#" horiz-adv-x="691" 
d="M619 549h52q11 0 17 -8t4 -19l-20 -96q-2 -11 -12 -19t-21 -8h-74l-38 -104h64q11 0 17 -8t4 -19l-20 -96q-2 -11 -12 -19t-21 -8h-86l-31 -85q-3 -9 -11 -15t-18 -6h-105q-9 0 -15 7t-2 17l29 82h-74l-31 -85q-3 -9 -11 -15t-18 -6h-105q-9 0 -15 7t-2 17l29 82h-51
q-11 0 -17 8t-4 19l20 96q2 11 12 19t21 8h74l37 104h-63q-11 0 -17 8t-4 19l20 96q2 11 12 19t21 8h86l31 85q3 8 11 14.5t18 6.5h106q9 0 14.5 -6.5t2.5 -15.5l-31 -84h75l31 85q3 8 11 14.5t18 6.5h106q9 0 14.5 -6.5t2.5 -15.5zM300 295h75l37 104h-74z" />
    <glyph glyph-name="zerosuperior" unicode="&#x2070;" horiz-adv-x="380" 
d="M403 558q-6 -41 -17 -76q-8 -30 -20 -55t-32.5 -43t-50.5 -28.5t-73 -10.5q-36 0 -63 12t-44.5 32t-25 46.5t-3.5 56.5q3 20 7 37.5t10 38.5q8 30 20.5 55t32.5 43t50 28.5t73 10.5q36 0 63 -12t44.5 -32t25 -46.5t3.5 -56.5zM191 492q-3 -26 2 -39t27 -13t33.5 13
t19.5 39q5 17 8.5 33t5.5 33q3 26 -2.5 39t-27.5 13t-33 -13t-19 -39q-5 -17 -8.5 -33t-5.5 -33z" />
    <glyph glyph-name="onesuperior" unicode="&#xb9;" horiz-adv-x="282" 
d="M257 372q-5 -22 -27 -22h-72q-22 0 -17 22l35 162l-40 -26q-8 -5 -16 -5t-13 8l-35 56q-5 7 -1.5 16t12.5 15l147 95q11 7 25 7h50q22 0 17 -22z" />
    <glyph glyph-name="twosuperior" unicode="&#xb2;" horiz-adv-x="357" 
d="M52 415q2 8 8.5 14.5t23.5 17.5q52 33 85.5 54t53.5 35.5t28.5 24.5t11.5 22q3 14 -4 20.5t-15 6.5q-15 0 -28 -18q-8 -11 -15.5 -14.5t-15.5 -3.5h-71q-20 0 -14 19q13 46 50.5 79t103.5 33q30 0 55.5 -8.5t43 -24.5t25 -37.5t2.5 -46.5q-5 -23 -13 -40t-22.5 -33
t-36.5 -32.5t-54 -37.5h81q22 0 17 -22l-11 -51q-5 -22 -27 -22h-254q-22 0 -17 20z" />
    <glyph glyph-name="threesuperior" unicode="&#xb3;" horiz-adv-x="358" 
d="M383 634q-2 -10 -6.5 -14.5t-13.5 -12.5l-53 -43q33 -17 48 -43t6 -61q-14 -51 -53.5 -83t-111.5 -32q-33 0 -61 9t-48 23t-30.5 30.5t-8.5 31.5q2 10 9 14.5t12 4.5h85q9 0 14.5 -3t10 -6t10.5 -6t17 -3q14 0 25 4t15 21q3 14 -6 19.5t-23 5.5h-55q-22 0 -17 22l5 23
q2 11 15 22l64 48h-102q-10 0 -15 6t-3 16l11 51q5 22 27 22h225q22 0 17 -22z" />
    <glyph glyph-name="foursuperior" unicode="&#x2074;" horiz-adv-x="406" 
d="M248 682q10 11 18.5 14.5t15.5 3.5h108q22 0 17 -22l-37 -176h35q22 0 17 -22l-11 -51q-5 -22 -27 -22h-35l-7 -35q-5 -22 -27 -22h-72q-22 0 -17 22l7 35h-168q-20 0 -17 22l11 50q0 2 3.5 10t14.5 20zM194 502h62l17 80z" />
    <glyph glyph-name="fivesuperior" unicode="&#x2075;" horiz-adv-x="353" 
d="M374 627q-5 -22 -26 -22h-137l-13 -40q14 7 26 10t36 3q23 0 43 -9t34.5 -24.5t20.5 -37t1 -46.5q-5 -24 -17 -45t-32.5 -37t-49 -25t-67.5 -9q-43 0 -71 10t-44 25t-21.5 31t-2.5 28q2 10 9 14.5t12 4.5h77q10 0 14 -3t7.5 -6t9.5 -6t20 -3q18 0 29.5 8.5t13.5 19.5
q3 11 -4.5 19.5t-21.5 8.5q-19 0 -25 -6.5t-16 -6.5h-74q-11 0 -15.5 7.5t-1.5 18.5l51 164q3 11 11.5 18.5t19.5 8.5h198q22 0 17 -22z" />
    <glyph glyph-name="sixsuperior" unicode="&#x2076;" horiz-adv-x="361" 
d="M65 476q8 38 28 64.5t34 40.5l104 104q6 6 15 10.5t17 4.5h83q8 0 12.5 -6t2.5 -14q-3 -10 -15 -20l-68 -68q19 -4 39.5 -13t35.5 -24t22.5 -37t1.5 -52q-12 -58 -54.5 -89.5t-117.5 -31.5q-30 0 -58 9t-48 26t-30 41.5t-4 54.5zM179 471q-5 -20 5.5 -29t29.5 -9t32.5 9
t18.5 29t-5.5 29t-29.5 9t-32.5 -9t-18.5 -29z" />
    <glyph glyph-name="sevensuperior" unicode="&#x2077;" horiz-adv-x="321" 
d="M368 623q-3 -13 -9 -23l-151 -226q-6 -9 -13 -16.5t-18 -7.5h-79q-13 0 -16 9.5t4 20.5l150 225h-128q-10 0 -15 6t-3 16l11 51q5 22 27 22h235q22 0 17 -22z" />
    <glyph glyph-name="eightsuperior" unicode="&#x2078;" horiz-adv-x="366" 
d="M369 450q-4 -20 -15.5 -39t-32 -33.5t-51 -23.5t-72.5 -9q-39 0 -66.5 9.5t-44 25.5t-22.5 36t-2 40q6 26 22 46.5t39 31.5q-27 21 -18 68q4 19 14 37.5t28.5 33t47 23.5t69.5 9q37 0 62.5 -10t40.5 -26t19.5 -35t0.5 -38q-9 -47 -46 -68q19 -11 26 -31.5t1 -46.5z
M262 457q4 16 -7 24t-31 8t-34 -8t-18 -24q-4 -17 8 -24.5t30 -7.5t33 7.5t19 24.5zM283 596q2 14 -6.5 21.5t-23.5 7.5t-28 -7.5t-15 -21.5q-3 -14 6.5 -21.5t23.5 -7.5q15 0 27.5 7.5t15.5 21.5z" />
    <glyph glyph-name="ninesuperior" unicode="&#x2079;" horiz-adv-x="360" 
d="M393 574q-4 -19 -12.5 -35t-18.5 -29t-20 -23.5t-17 -17.5l-103 -104q-6 -6 -15 -10.5t-17 -4.5h-78q-8 0 -12.5 6t-2.5 14q3 10 15 20l68 68q-17 3 -37 12t-36 24.5t-24 37.5t-2 52q12 58 58.5 89.5t113.5 31.5q30 0 58 -9t48 -26t30 -41.5t4 -54.5zM193 579
q-5 -20 5.5 -29t29.5 -9t32.5 9t18.5 29t-5.5 29t-29.5 9t-32.5 -9t-18.5 -29z" />
    <glyph glyph-name="parenleftsuperior" unicode="&#x207d;" horiz-adv-x="265" 
d="M231 396q10 -3 17.5 -6.5t5.5 -14.5l-13 -58q-4 -22 -28 -22q-18 0 -46.5 10.5t-53 37t-37 72t2.5 116.5q15 70 38.5 115.5t53.5 72t66 36.5t76 10q23 0 19 -22l-12 -58q-3 -11 -12 -14.5t-20 -6.5q-40 -10 -63.5 -43t-35.5 -90t-2.5 -91t44.5 -44z" />
    <glyph glyph-name="parenrightsuperior" unicode="&#x207e;" horiz-adv-x="265" 
d="M75 396q40 10 64 44t36 91t2 90t-45 43q-10 3 -17.5 6.5t-4.5 14.5l12 58q4 22 29 22q18 0 46.5 -10t53 -36.5t37 -72t-2.5 -115.5q-15 -71 -37 -116.5t-51 -72t-65.5 -37t-80.5 -10.5q-23 0 -19 22l13 58q2 11 10.5 14.5t19.5 6.5z" />
    <glyph glyph-name="zeroinferior" unicode="&#x2080;" horiz-adv-x="380" 
d="M293 38q-6 -41 -17 -76q-8 -30 -20 -55t-32.5 -43t-50.5 -28.5t-73 -10.5q-36 0 -63 12t-44.5 32t-25 46.5t-3.5 56.5q3 20 7 37.5t10 38.5q8 30 20.5 55t32.5 43t50 28.5t73 10.5q36 0 63 -12t44.5 -32t25 -46.5t3.5 -56.5zM81 -28q-3 -26 2 -39t27 -13t33.5 13t19.5 39
q5 17 8.5 33t5.5 33q3 26 -2.5 39t-27.5 13t-33 -13t-19 -39q-5 -17 -8.5 -33t-5.5 -33z" />
    <glyph glyph-name="oneinferior" unicode="&#x2081;" horiz-adv-x="282" 
d="M147 -148q-5 -22 -27 -22h-72q-22 0 -17 22l35 162l-40 -26q-8 -5 -16 -5t-13 8l-35 56q-5 7 -1.5 16t12.5 15l147 95q11 7 25 7h50q22 0 17 -22z" />
    <glyph glyph-name="twoinferior" unicode="&#x2082;" horiz-adv-x="357" 
d="M-58 -105q2 8 8.5 14.5t23.5 17.5q52 33 85.5 54t53.5 35.5t28.5 24.5t11.5 22q3 14 -4 20.5t-15 6.5q-15 0 -28 -18q-8 -11 -15.5 -14.5t-15.5 -3.5h-71q-20 0 -14 19q13 46 50.5 79t103.5 33q30 0 55.5 -8.5t43 -24.5t25 -37.5t2.5 -46.5q-5 -23 -13 -40t-22.5 -33
t-36.5 -32.5t-54 -37.5h81q22 0 17 -22l-11 -51q-5 -22 -27 -22h-254q-22 0 -17 20z" />
    <glyph glyph-name="threeinferior" unicode="&#x2083;" horiz-adv-x="358" 
d="M272 114q-2 -10 -6.5 -14.5t-13.5 -12.5l-53 -43q33 -17 48 -43t6 -61q-14 -51 -53.5 -83t-111.5 -32q-33 0 -61 9t-48 23t-30.5 30.5t-8.5 31.5q2 10 9 14.5t12 4.5h85q9 0 14.5 -3t10 -6t10.5 -6t17 -3q14 0 25 4t15 21q3 14 -6 19.5t-23 5.5h-55q-22 0 -17 22l5 23
q2 11 15 22l64 48h-102q-10 0 -15 6t-3 16l11 51q5 22 27 22h225q22 0 17 -22z" />
    <glyph glyph-name="fourinferior" unicode="&#x2084;" horiz-adv-x="406" 
d="M138 162q10 11 18.5 14.5t15.5 3.5h108q22 0 17 -22l-37 -176h35q22 0 17 -22l-11 -51q-5 -22 -27 -22h-35l-7 -35q-5 -22 -27 -22h-72q-22 0 -17 22l7 35h-168q-20 0 -17 22l11 50q0 2 3.5 10t14.5 20zM84 -18h62l17 80z" />
    <glyph glyph-name="fiveinferior" unicode="&#x2085;" horiz-adv-x="353" 
d="M264 107q-5 -22 -26 -22h-137l-13 -40q14 7 26 10t36 3q23 0 43 -9t34.5 -24.5t20.5 -37t1 -46.5q-5 -24 -17 -45t-32.5 -37t-49 -25t-67.5 -9q-43 0 -71 10t-44 25t-21.5 31t-2.5 28q2 10 9 14.5t12 4.5h77q10 0 14 -3t7.5 -6t9.5 -6t20 -3q18 0 29.5 8.5t13.5 19.5
q3 11 -4.5 19.5t-21.5 8.5q-19 0 -25 -6.5t-16 -6.5h-74q-11 0 -15.5 7.5t-1.5 18.5l51 164q3 11 11.5 18.5t19.5 8.5h198q22 0 17 -22z" />
    <glyph glyph-name="sixinferior" unicode="&#x2086;" horiz-adv-x="361" 
d="M-46 -44q8 38 28 64.5t34 40.5l104 104q6 6 15 10.5t17 4.5h83q8 0 12.5 -6t2.5 -14q-3 -10 -15 -20l-68 -68q19 -4 39.5 -13t35.5 -24t22.5 -37t1.5 -52q-12 -58 -54.5 -89.5t-117.5 -31.5q-30 0 -58 9t-48 26t-30 41.5t-4 54.5zM68 -49q-5 -20 5.5 -29t29.5 -9t32.5 9
t18.5 29t-5.5 29t-29.5 9t-32.5 -9t-18.5 -29z" />
    <glyph glyph-name="seveninferior" unicode="&#x2087;" horiz-adv-x="321" 
d="M257 103q-3 -13 -9 -23l-151 -226q-6 -9 -13 -16.5t-18 -7.5h-79q-13 0 -16 9.5t4 20.5l150 225h-128q-10 0 -15 6t-3 16l11 51q5 22 27 22h235q22 0 17 -22z" />
    <glyph glyph-name="eightinferior" unicode="&#x2088;" horiz-adv-x="366" 
d="M259 -70q-4 -20 -15.5 -39t-32 -33.5t-51 -23.5t-72.5 -9q-39 0 -66.5 9.5t-44 25.5t-22.5 36t-2 40q6 26 22 46.5t39 31.5q-27 21 -18 68q4 19 14 37.5t28.5 33t47 23.5t69.5 9q37 0 62.5 -10t40.5 -26t19.5 -35t0.5 -38q-9 -47 -46 -68q19 -11 26 -31.5t1 -46.5z
M152 -63q4 16 -7 24t-31 8t-34 -8t-18 -24q-4 -17 8 -24.5t30 -7.5t33 7.5t19 24.5zM173 76q2 14 -6.5 21.5t-23.5 7.5t-28 -7.5t-15 -21.5q-3 -14 6.5 -21.5t23.5 -7.5q15 0 27.5 7.5t15.5 21.5z" />
    <glyph glyph-name="nineinferior" unicode="&#x2089;" horiz-adv-x="360" 
d="M282 53q-4 -19 -12.5 -35t-18.5 -29t-20 -23.5t-17 -17.5l-103 -104q-6 -6 -15 -10.5t-17 -4.5h-78q-8 0 -12.5 6t-2.5 14q3 10 15 20l68 68q-17 3 -37 12t-36 24.5t-24 37.5t-2 52q12 58 58.5 89.5t113.5 31.5q30 0 58 -9t48 -26t30 -41.5t4 -54.5zM82 58
q-5 -20 5.5 -29t29.5 -9t32.5 9t18.5 29t-5.5 29t-29.5 9t-32.5 -9t-18.5 -29z" />
    <glyph glyph-name="parenleftinferior" unicode="&#x208d;" horiz-adv-x="265" 
d="M120 -124q10 -3 17.5 -6.5t5.5 -14.5l-13 -58q-4 -22 -28 -22q-18 0 -46.5 10.5t-53 37t-37 72t2.5 116.5q15 70 38.5 115.5t53.5 72t66 36.5t76 10q23 0 19 -22l-12 -58q-3 -11 -12 -14.5t-20 -6.5q-40 -10 -63.5 -43t-35.5 -90t-2.5 -91t44.5 -44z" />
    <glyph glyph-name="parenrightinferior" unicode="&#x208e;" horiz-adv-x="265" 
d="M-35 -124q40 10 64 44t36 91t2 90t-45 43q-10 3 -17.5 6.5t-4.5 14.5l12 58q4 22 29 22q18 0 46.5 -10t53 -36.5t37 -72t-2.5 -115.5q-15 -71 -37 -116.5t-51 -72t-65.5 -37t-80.5 -10.5q-23 0 -19 22l13 58q2 11 10.5 14.5t19.5 6.5z" />
    <glyph glyph-name="onehalf" unicode="&#xbd;" horiz-adv-x="831" 
d="M164 19q-9 -9 -17.5 -14t-22.5 -5h-74q-15 0 -19.5 10.5t5.5 20.5l632 650q9 9 17.5 14t22.5 5h74q15 0 19.5 -10.5t-5.5 -20.5zM446 65q2 8 8.5 14.5t23.5 17.5q52 33 85.5 54t53.5 35.5t28.5 24.5t11.5 22q3 14 -4 20.5t-15 6.5q-15 0 -28 -18q-8 -11 -15.5 -14.5
t-15.5 -3.5h-71q-20 0 -14 19q13 46 50.5 79t103.5 33q30 0 55.5 -8.5t43 -24.5t25 -37.5t2.5 -46.5q-5 -23 -13 -40t-22.5 -33t-36.5 -32.5t-54 -37.5h81q22 0 17 -22l-11 -51q-5 -22 -27 -22h-254q-22 0 -17 20zM274 372q-5 -22 -27 -22h-72q-22 0 -17 22l35 162l-40 -26
q-8 -5 -16 -5t-13 8l-35 56q-5 7 -1.5 16t12.5 15l147 95q11 7 25 7h50q22 0 17 -22z" />
    <glyph glyph-name="onethird" unicode="&#x2153;" horiz-adv-x="849" 
d="M164 19q-9 -9 -17.5 -14t-22.5 -5h-74q-15 0 -19.5 10.5t5.5 20.5l632 650q9 9 17.5 14t22.5 5h74q15 0 19.5 -10.5t-5.5 -20.5zM792 284q-2 -10 -6.5 -14.5t-13.5 -12.5l-53 -43q33 -17 48 -43t6 -61q-14 -51 -53.5 -83t-111.5 -32q-33 0 -61 9t-48 23t-30.5 30.5
t-8.5 31.5q2 10 9 14.5t12 4.5h85q9 0 14.5 -3t10 -6t10.5 -6t17 -3q14 0 25 4t15 21q3 14 -6 19.5t-23 5.5h-55q-22 0 -17 22l5 23q2 11 15 22l64 48h-102q-10 0 -15 6t-3 16l11 51q5 22 27 22h225q22 0 17 -22zM274 372q-5 -22 -27 -22h-72q-22 0 -17 22l35 162l-40 -26
q-8 -5 -16 -5t-13 8l-35 56q-5 7 -1.5 16t12.5 15l147 95q11 7 25 7h50q22 0 17 -22z" />
    <glyph glyph-name="onequarter" unicode="&#xbc;" horiz-adv-x="833" 
d="M164 19q-9 -9 -17.5 -14t-22.5 -5h-74q-15 0 -19.5 10.5t5.5 20.5l632 650q9 9 17.5 14t22.5 5h74q15 0 19.5 -10.5t-5.5 -20.5zM274 372q-5 -22 -27 -22h-72q-22 0 -17 22l35 162l-40 -26q-8 -5 -16 -5t-13 8l-35 56q-5 7 -1.5 16t12.5 15l147 95q11 7 25 7h50
q22 0 17 -22zM592 332q10 11 18.5 14.5t15.5 3.5h108q22 0 17 -22l-37 -176h35q22 0 17 -22l-11 -51q-5 -22 -27 -22h-35l-7 -35q-5 -22 -27 -22h-72q-22 0 -17 22l7 35h-168q-20 0 -17 22l11 50q0 2 3.5 10t14.5 20zM538 152h62l17 80z" />
    <glyph glyph-name="oneeighth" unicode="&#x215b;" horiz-adv-x="844" 
d="M164 19q-9 -9 -17.5 -14t-22.5 -5h-74q-15 0 -19.5 10.5t5.5 20.5l632 650q9 9 17.5 14t22.5 5h74q15 0 19.5 -10.5t-5.5 -20.5zM768 100q-4 -20 -15.5 -39t-32 -33.5t-51 -23.5t-72.5 -9q-39 0 -66.5 9.5t-44 25.5t-22.5 36t-2 40q6 26 22 46.5t39 31.5q-27 21 -18 68
q4 19 14 37.5t28.5 33t47 23.5t69.5 9q37 0 62.5 -10t40.5 -26t19.5 -35t0.5 -38q-9 -47 -46 -68q19 -11 26 -31.5t1 -46.5zM661 107q4 16 -7 24t-31 8t-34 -8t-18 -24q-4 -17 8 -24.5t30 -7.5t33 7.5t19 24.5zM682 246q2 14 -6.5 21.5t-23.5 7.5t-28 -7.5t-15 -21.5
q-3 -14 6.5 -21.5t23.5 -7.5q15 0 27.5 7.5t15.5 21.5zM274 372q-5 -22 -27 -22h-72q-22 0 -17 22l35 162l-40 -26q-8 -5 -16 -5t-13 8l-35 56q-5 7 -1.5 16t12.5 15l147 95q11 7 25 7h50q22 0 17 -22z" />
    <glyph glyph-name="twothirds" unicode="&#x2154;" horiz-adv-x="901" 
d="M60 415q2 8 8.5 14.5t23.5 17.5q52 33 85.5 54t53.5 35.5t28.5 24.5t11.5 22q3 14 -4 20.5t-15 6.5q-15 0 -28 -18q-8 -11 -15.5 -14.5t-15.5 -3.5h-71q-20 0 -14 19q13 46 50.5 79t103.5 33q30 0 55.5 -8.5t43 -24.5t25 -37.5t2.5 -46.5q-5 -23 -13 -40t-22.5 -33
t-36.5 -32.5t-54 -37.5h81q22 0 17 -22l-11 -51q-5 -22 -27 -22h-254q-22 0 -17 20zM848 284q-2 -10 -6.5 -14.5t-13.5 -12.5l-53 -43q33 -17 48 -43t6 -61q-14 -51 -53.5 -83t-111.5 -32q-33 0 -61 9t-48 23t-30.5 30.5t-8.5 31.5q2 10 9 14.5t12 4.5h85q9 0 14.5 -3t10 -6
t10.5 -6t17 -3q14 0 25 4t15 21q3 14 -6 19.5t-23 5.5h-55q-22 0 -17 22l5 23q2 11 15 22l64 48h-102q-10 0 -15 6t-3 16l11 51q5 22 27 22h225q22 0 17 -22zM220 19q-9 -9 -17.5 -14t-22.5 -5h-74q-15 0 -19.5 10.5t5.5 20.5l632 650q9 9 17.5 14t22.5 5h74
q15 0 19.5 -10.5t-5.5 -20.5z" />
    <glyph glyph-name="threequarters" unicode="&#xbe;" horiz-adv-x="863" 
d="M391 634q-2 -10 -6.5 -14.5t-13.5 -12.5l-53 -43q33 -17 48 -43t6 -61q-14 -51 -53.5 -83t-111.5 -32q-33 0 -61 9t-48 23t-30.5 30.5t-8.5 31.5q2 10 9 14.5t12 4.5h85q9 0 14.5 -3t10 -6t10.5 -6t17 -3q14 0 25 4t15 21q3 14 -6 19.5t-23 5.5h-55q-22 0 -17 22l5 23
q2 11 15 22l64 48h-102q-10 0 -15 6t-3 16l11 51q5 22 27 22h225q22 0 17 -22zM197 19q-9 -9 -17.5 -14t-22.5 -5h-74q-15 0 -19.5 10.5t5.5 20.5l632 650q9 9 17.5 14t22.5 5h74q15 0 19.5 -10.5t-5.5 -20.5zM625 332q10 11 18.5 14.5t15.5 3.5h108q22 0 17 -22l-37 -176
h35q22 0 17 -22l-11 -51q-5 -22 -27 -22h-35l-7 -35q-5 -22 -27 -22h-72q-22 0 -17 22l7 35h-168q-20 0 -17 22l11 50q0 2 3.5 10t14.5 20zM571 152h62l17 80z" />
    <glyph glyph-name="threeeighths" unicode="&#x215c;" horiz-adv-x="874" 
d="M391 634q-2 -10 -6.5 -14.5t-13.5 -12.5l-53 -43q33 -17 48 -43t6 -61q-14 -51 -53.5 -83t-111.5 -32q-33 0 -61 9t-48 23t-30.5 30.5t-8.5 31.5q2 10 9 14.5t12 4.5h85q9 0 14.5 -3t10 -6t10.5 -6t17 -3q14 0 25 4t15 21q3 14 -6 19.5t-23 5.5h-55q-22 0 -17 22l5 23
q2 11 15 22l64 48h-102q-10 0 -15 6t-3 16l11 51q5 22 27 22h225q22 0 17 -22zM801 100q-4 -20 -15.5 -39t-32 -33.5t-51 -23.5t-72.5 -9q-39 0 -66.5 9.5t-44 25.5t-22.5 36t-2 40q6 26 22 46.5t39 31.5q-27 21 -18 68q4 19 14 37.5t28.5 33t47 23.5t69.5 9q37 0 62.5 -10
t40.5 -26t19.5 -35t0.5 -38q-9 -47 -46 -68q19 -11 26 -31.5t1 -46.5zM694 107q4 16 -7 24t-31 8t-34 -8t-18 -24q-4 -17 8 -24.5t30 -7.5t33 7.5t19 24.5zM715 246q2 14 -6.5 21.5t-23.5 7.5t-28 -7.5t-15 -21.5q-3 -14 6.5 -21.5t23.5 -7.5q15 0 27.5 7.5t15.5 21.5z
M197 19q-9 -9 -17.5 -14t-22.5 -5h-74q-15 0 -19.5 10.5t5.5 20.5l632 650q9 9 17.5 14t22.5 5h74q15 0 19.5 -10.5t-5.5 -20.5z" />
    <glyph glyph-name="fiveeighths" unicode="&#x215d;" horiz-adv-x="858" 
d="M178 19q-9 -9 -17.5 -14t-22.5 -5h-74q-15 0 -19.5 10.5t5.5 20.5l632 650q9 9 17.5 14t22.5 5h74q15 0 19.5 -10.5t-5.5 -20.5zM379 627q-5 -22 -26 -22h-137l-13 -40q14 7 26 10t36 3q23 0 43 -9t34.5 -24.5t20.5 -37t1 -46.5q-5 -24 -17 -45t-32.5 -37t-49 -25
t-67.5 -9q-43 0 -71 10t-44 25t-21.5 31t-2.5 28q2 10 9 14.5t12 4.5h77q10 0 14 -3t7.5 -6t9.5 -6t20 -3q18 0 29.5 8.5t13.5 19.5q3 11 -4.5 19.5t-21.5 8.5q-19 0 -25 -6.5t-16 -6.5h-74q-11 0 -15.5 7.5t-1.5 18.5l51 164q3 11 11.5 18.5t19.5 8.5h198q22 0 17 -22z
M786 100q-4 -20 -15.5 -39t-32 -33.5t-51 -23.5t-72.5 -9q-39 0 -66.5 9.5t-44 25.5t-22.5 36t-2 40q6 26 22 46.5t39 31.5q-27 21 -18 68q4 19 14 37.5t28.5 33t47 23.5t69.5 9q37 0 62.5 -10t40.5 -26t19.5 -35t0.5 -38q-9 -47 -46 -68q19 -11 26 -31.5t1 -46.5zM679 107
q4 16 -7 24t-31 8t-34 -8t-18 -24q-4 -17 8 -24.5t30 -7.5t33 7.5t19 24.5zM700 246q2 14 -6.5 21.5t-23.5 7.5t-28 -7.5t-15 -21.5q-3 -14 6.5 -21.5t23.5 -7.5q15 0 27.5 7.5t15.5 21.5z" />
    <glyph glyph-name="seveneighths" unicode="&#x215e;" horiz-adv-x="835" 
d="M155 19q-9 -9 -17.5 -14t-22.5 -5h-74q-15 0 -19.5 10.5t5.5 20.5l632 650q9 9 17.5 14t22.5 5h74q15 0 19.5 -10.5t-5.5 -20.5zM378 623q-3 -13 -9 -23l-151 -226q-6 -9 -13 -16.5t-18 -7.5h-79q-13 0 -16 9.5t4 20.5l150 225h-128q-10 0 -15 6t-3 16l11 51q5 22 27 22
h235q22 0 17 -22zM763 100q-4 -20 -15.5 -39t-32 -33.5t-51 -23.5t-72.5 -9q-39 0 -66.5 9.5t-44 25.5t-22.5 36t-2 40q6 26 22 46.5t39 31.5q-27 21 -18 68q4 19 14 37.5t28.5 33t47 23.5t69.5 9q37 0 62.5 -10t40.5 -26t19.5 -35t0.5 -38q-9 -47 -46 -68q19 -11 26 -31.5
t1 -46.5zM656 107q4 16 -7 24t-31 8t-34 -8t-18 -24q-4 -17 8 -24.5t30 -7.5t33 7.5t19 24.5zM677 246q2 14 -6.5 21.5t-23.5 7.5t-28 -7.5t-15 -21.5q-3 -14 6.5 -21.5t23.5 -7.5q15 0 27.5 7.5t15.5 21.5z" />
    <glyph glyph-name="exclam" unicode="!" horiz-adv-x="303" 
d="M230 242q-2 -11 -12 -19t-21 -8h-126q-11 0 -17 8t-4 19l92 431q2 11 11.5 19t20.5 8h126q11 0 17.5 -8t4.5 -19zM184 27q-2 -11 -11.5 -19t-20.5 -8h-126q-11 0 -17.5 8t-4.5 19l22 101q2 11 11.5 19t20.5 8h126q11 0 17.5 -8t4.5 -19z" />
    <glyph glyph-name="quotedbl" unicode="&#x22;" horiz-adv-x="486" 
d="M458 466q-5 -14 -14 -21t-20 -7h-78q-11 0 -17.5 7t-4.5 21l22 208q2 15 10 25.5t24 10.5h124q16 0 20.5 -10.5t-0.5 -25.5zM230 466q-5 -14 -14 -21t-20 -7h-78q-11 0 -17.5 7t-4.5 21l22 208q2 15 10 25.5t24 10.5h124q16 0 20.5 -10.5t-0.5 -25.5z" />
    <glyph glyph-name="quotesingle" unicode="'" horiz-adv-x="258" 
d="M230 466q-5 -14 -14 -21t-20 -7h-78q-11 0 -17.5 7t-4.5 21l22 208q2 15 10 25.5t24 10.5h124q16 0 20.5 -10.5t-0.5 -25.5z" />
    <glyph glyph-name="quotesinglbase" unicode="&#x201a;" horiz-adv-x="289" 
d="M31 146q5 14 18 26.5t33 12.5h123q11 0 16 -9t-1 -20l-120 -199q-6 -10 -18 -21t-32 -11h-75q-9 0 -15 7t-2 17z" />
    <glyph glyph-name="quotedblbase" unicode="&#x201e;" horiz-adv-x="524" 
d="M31 146q5 14 18 26.5t33 12.5h123q11 0 16 -9t-1 -20l-120 -199q-6 -10 -18 -21t-32 -11h-75q-9 0 -15 7t-2 17zM266 146q5 14 18 26.5t33 12.5h123q11 0 16 -9t-1 -20l-120 -199q-6 -10 -18 -21t-32 -11h-75q-9 0 -15 7t-2 17z" />
    <glyph glyph-name="quoteleft" unicode="&#x2018;" horiz-adv-x="284" 
d="M258 489q-5 -14 -18 -26.5t-33 -12.5h-123q-11 0 -16 9t1 20l120 199q6 10 18 21t32 11h75q9 0 15 -7t2 -17z" />
    <glyph glyph-name="quoteright" unicode="&#x2019;" horiz-adv-x="279" 
d="M150 671q5 14 18 26.5t33 12.5h123q11 0 16 -9t-1 -20l-120 -199q-6 -10 -18 -21t-32 -11h-75q-9 0 -15 7t-2 17z" />
    <glyph glyph-name="quotedblleft" unicode="&#x201c;" horiz-adv-x="519" 
d="M493 489q-5 -14 -18 -26.5t-33 -12.5h-123q-11 0 -16 9t1 20l120 199q6 10 18 21t32 11h75q9 0 15 -7t2 -17zM258 489q-5 -14 -18 -26.5t-33 -12.5h-123q-11 0 -16 9t1 20l120 199q6 10 18 21t32 11h75q9 0 15 -7t2 -17z" />
    <glyph glyph-name="quotedblright" unicode="&#x201d;" horiz-adv-x="514" 
d="M150 671q5 14 18 26.5t33 12.5h123q11 0 16 -9t-1 -20l-120 -199q-6 -10 -18 -21t-32 -11h-75q-9 0 -15 7t-2 17zM385 671q5 14 18 26.5t33 12.5h123q11 0 16 -9t-1 -20l-120 -199q-6 -10 -18 -21t-32 -11h-75q-9 0 -15 7t-2 17z" />
    <glyph glyph-name="ampersand" unicode="&#x26;" horiz-adv-x="759" 
d="M543 337q6 15 18.5 22t25.5 7h119q11 0 17.5 -8t4.5 -18q-4 -18 -13.5 -41.5t-25.5 -50t-37.5 -54.5t-49.5 -55l84 -108q5 -6 3 -14q-2 -7 -7.5 -12t-13.5 -5h-171q-11 0 -15.5 3t-7.5 7l-18 22q-45 -20 -92 -31t-113 -11q-41 0 -86 11t-79.5 36t-52.5 65.5t-6 98.5
q13 60 57 99.5t107 75.5q-27 43 -38.5 80t-1.5 82q17 81 85 126.5t171 45.5q47 0 87.5 -15.5t68 -42t40.5 -61.5t5 -73q-5 -20 -15 -41.5t-28.5 -44t-47 -46t-70.5 -48.5l55 -71q14 19 24.5 37t16.5 33zM270 124q23 0 49 8t47 18l-84 108q-28 -14 -51.5 -34t-27.5 -40
q-6 -29 11 -44.5t56 -15.5zM329 528q-4 -17 4.5 -35t20.5 -35q68 36 75 70q5 26 -8.5 37t-31.5 11q-20 0 -37.5 -12t-22.5 -36z" />
    <glyph glyph-name="asterisk" unicode="*" horiz-adv-x="451" 
d="M341 620l80 46q10 6 20.5 4t12.5 -15l11 -95q2 -14 -5 -21t-18 -8l-91 -5l55 -52q8 -8 5.5 -19t-13.5 -18l-92 -59q-9 -5 -20 -3t-13 15l-13 78l-50 -83q-7 -12 -17.5 -12t-16.5 5l-68 59q-8 7 -7.5 17t15.5 20l77 52l-83 5q-11 0 -16.5 9t1.5 20l51 95q5 10 17 14t20 -3
l60 -46l-5 80q-1 12 7.5 21t20.5 9h100q14 0 16.5 -10t-2.5 -20z" />
    <glyph glyph-name="plus" unicode="+" horiz-adv-x="610" 
d="M380 223l-35 -165q-2 -11 -12 -19t-21 -8h-126q-11 0 -17 8t-4 19l35 165h-155q-11 0 -17.5 8t-3.5 19l21 101q2 11 12 19t21 8h155l35 165q2 11 12 19t21 8h126q11 0 17 -8t4 -19l-35 -165h154q11 0 17 -8t4 -19l-21 -101q-3 -11 -12.5 -19t-20.5 -8h-154z" />
    <glyph glyph-name="plusminus" unicode="&#xb1;" horiz-adv-x="574" 
d="M31 0q-11 0 -17.5 8t-4.5 19l22 101q2 11 11.5 19t20.5 8h389q11 0 17.5 -8t4.5 -19l-22 -101q-2 -11 -11.5 -19t-20.5 -8h-389zM390 356l-29 -138q-2 -11 -12 -19t-21 -8h-123q-11 0 -17 8t-4 19l29 138h-127q-11 0 -17 8t-4 19l21 101q3 11 12.5 19t20.5 8h127l28 132
q2 11 12 19t21 8h123q11 0 17 -8t4 -19l-28 -132h125q11 0 17 -8t4 -19l-21 -101q-2 -11 -12 -19t-21 -8h-125z" />
    <glyph glyph-name="slash" unicode="/" horiz-adv-x="595" 
d="M458 756q7 11 19.5 20.5t31.5 9.5h144q13 0 16 -10.5t-3 -20.5l-509 -809q-6 -10 -18 -20t-32 -10h-142q-13 0 -16.5 10.5t2.5 20.5z" />
    <glyph glyph-name="backslash" unicode="\" horiz-adv-x="565" 
d="M121 754q-2 12 5.5 22t21.5 10h115q19 0 27 -9.5t10 -20.5l166 -808q2 -12 -5.5 -22t-21.5 -10h-115q-19 0 -27 9.5t-10 20.5z" />
    <glyph glyph-name="fraction" unicode="&#x2044;" horiz-adv-x="160" 
d="M-161 19q-9 -9 -17.5 -14t-22.5 -5h-74q-15 0 -19.5 10.5t5.5 20.5l632 650q9 9 17.5 14t22.5 5h74q15 0 19.5 -10.5t-5.5 -20.5z" />
    <glyph glyph-name="at" unicode="@" horiz-adv-x="875" 
d="M810 234q-20 -76 -66.5 -115.5t-118.5 -39.5q-51 0 -81 14.5t-41 31.5q-9 -11 -19.5 -21t-25.5 -17.5t-36.5 -12.5t-52.5 -5q-37 0 -65.5 14.5t-46 41.5t-22.5 64.5t5 83.5q9 46 26.5 83.5t41.5 64.5t55 42t68 15q42 0 64 -12.5t31 -31.5l2 9q2 11 11.5 19t20.5 8h62
q11 0 17.5 -8t4.5 -19l-43 -203q-5 -24 5.5 -37t32.5 -13q23 0 37.5 13.5t22.5 45.5q8 27 13.5 51.5t7.5 50.5q6 55 -1.5 96t-33.5 68t-74.5 40t-125.5 13q-65 0 -115.5 -16t-88 -44.5t-63 -68.5t-41.5 -88q-4 -13 -9.5 -34.5t-10.5 -45t-9 -45.5t-5 -36q-5 -48 5.5 -87.5
t36.5 -68t69 -44t105 -15.5q48 0 81 4t56 11t39 15.5t31 17.5q13 8 20.5 11.5t18.5 3.5h88q11 0 17.5 -7.5t3.5 -20.5q-3 -8 -11 -15q-24 -22 -54 -45t-72 -42t-98.5 -31.5t-132.5 -12.5q-83 0 -146 26.5t-104.5 70.5t-59.5 102.5t-10 121.5q2 14 6.5 37.5t9.5 49t10.5 48.5
t9.5 36q18 62 50.5 120.5t84 103.5t126 72t176.5 27t171 -25.5t108.5 -70t53 -103t4.5 -124.5q-3 -26 -10.5 -60.5t-15.5 -61.5zM355 273q-11 -49 5 -71t43 -22q29 0 53.5 21.5t35.5 71.5q10 49 -5 71.5t-44 22.5q-27 0 -52.5 -22.5t-35.5 -71.5z" />
    <glyph glyph-name="parenleft" unicode="(" horiz-adv-x="408" 
d="M45 329q25 120 60 205t83.5 138.5t114 78.5t152.5 25q11 0 17.5 -8t4.5 -19l-22 -101q-2 -11 -11.5 -18.5t-21.5 -8.5q-41 -4 -72.5 -28.5t-55.5 -66t-41.5 -97t-31.5 -120.5t-20 -121t0.5 -97t27.5 -66t61 -29q11 -1 17 -8.5t4 -18.5l-22 -101q-2 -11 -11.5 -19
t-20.5 -8q-65 0 -115.5 31t-80.5 92.5t-36 153t20 211.5z" />
    <glyph glyph-name="parenright" unicode=")" horiz-adv-x="407" 
d="M367 288q-26 -120 -60.5 -205t-83 -138.5t-114 -78.5t-152.5 -25q-11 0 -17.5 8t-4.5 19l22 101q2 11 11.5 18.5t21.5 8.5q41 4 72.5 28.5t55.5 66t41.5 97t31.5 120.5t20 121t-0.5 97t-27.5 66t-61 29q-11 1 -17 8.5t-4 18.5l22 101q2 11 11.5 19t20.5 8q64 0 115 -31.5
t81 -93t35.5 -152.5t-19.5 -211z" />
    <glyph glyph-name="bracketleft" unicode="[" horiz-adv-x="390" 
d="M-9 -159q-11 0 -17.5 8t-4.5 19l188 881q2 11 11.5 19t20.5 8h248q11 0 17.5 -8t4.5 -19l-22 -101q-2 -11 -12 -19t-21 -8h-95l-132 -625h95q11 0 17 -8t4 -19l-22 -101q-2 -11 -11.5 -19t-20.5 -8h-248z" />
    <glyph glyph-name="bracketright" unicode="]" horiz-adv-x="390" 
d="M-42 -159q-11 0 -17.5 8t-4.5 19l22 101q2 11 12 19t21 8h95l132 625h-95q-11 0 -17 8t-4 19l22 101q2 11 11.5 19t20.5 8h248q11 0 17.5 -8t4.5 -19l-188 -881q-2 -11 -11.5 -19t-20.5 -8h-248z" />
    <glyph glyph-name="braceleft" unicode="{" horiz-adv-x="449" 
d="M331 -133q-2 -11 -12 -19t-21 -8q-47 0 -94 21t-82.5 58.5t-53.5 88.5t-5 111q3 16 4 33t-2 32.5t-11 27.5t-21 18l-15 7q-27 13 -21 37l14 68q6 24 37 37l19 7q16 6 28.5 18t22 27.5t16 32.5t9.5 33q13 60 38.5 111t67.5 88.5t103 58.5t145 21q11 0 17.5 -8t4.5 -19
l-22 -101q-2 -11 -12 -19t-21 -8q-28 -3 -50.5 -10t-40.5 -22.5t-31 -40.5t-21 -62q-9 -40 -23.5 -71t-32 -53.5t-36 -38t-33.5 -24.5q12 -9 24 -21.5t20.5 -32t11 -47.5t-6.5 -68q-8 -38 -2.5 -62.5t18.5 -40t32 -22.5t38 -10q11 0 17.5 -8t4.5 -19l-22 -101v0z" />
    <glyph glyph-name="braceright" unicode="}" horiz-adv-x="450" 
d="M-43 -32q2 11 11.5 19t20.5 8q32 3 55.5 10t40.5 22.5t28.5 40t19.5 62.5q9 40 23.5 71t32 54t36 38.5t33.5 24.5q-12 9 -24 21.5t-20.5 31.5t-11 47t6.5 68q8 37 4 62t-16.5 40.5t-32 22.5t-42.5 10q-11 0 -17 8t-4 19l22 101q2 11 11.5 19t20.5 8q50 0 98 -21t83 -58.5
t51.5 -88.5t3.5 -111q-3 -16 -4 -33t2 -32.5t10.5 -27.5t21.5 -18l15 -7q27 -13 21 -37l-14 -68q-6 -24 -37 -37l-19 -7q-16 -6 -28.5 -18t-22 -27.5t-16 -32.5t-9.5 -33q-13 -60 -35.5 -111t-63 -88.5t-103 -58.5t-153.5 -21q-11 0 -17 8t-4 19z" />
    <glyph glyph-name="exclamdown" unicode="&#xa1;" horiz-adv-x="294" 
d="M53.0137 278.015q2 10.999 12 18.999q9.99902 7.99902 20.998 7.99902h125.992q11 0 16.999 -7.99902q6 -8 4 -18.999l-91.9941 -430.974q-2 -10.999 -11.499 -18.999q-9.5 -7.99902 -20.499 -7.99902h-125.992q-11 0 -17.499 7.99902q-6.5 8 -4.5 18.999z
M99.0117 493.002q1.99902 10.999 11.499 18.998q9.49902 8 20.499 8h125.992q10.999 0 17.499 -8q6.49902 -7.99902 4.49902 -18.998l-21.998 -100.994q-2 -10.999 -11.5 -18.999q-9.49902 -7.99902 -20.498 -7.99902h-125.992q-11 0 -17.499 7.99902q-6.5 8 -4.5 18.999z
" />
    <glyph glyph-name="questiondown" unicode="&#xbf;" horiz-adv-x="599" 
d="M253.021 493.002q2 10.999 11.499 18.998q9.5 8 20.499 8h125.992q10.999 0 17.499 -8q6.5 -7.99902 4.5 -18.998l-21.999 -100.994q-2 -10.999 -11.499 -18.999q-9.5 -7.99902 -20.499 -7.99902h-125.992q-10.999 0 -17.499 7.99902q-6.5 8 -4.5 18.999z
M205.023 -189.957q-48.9971 0 -95.4941 15.499t-80.9951 42.998q-34.498 27.498 -51.9971 64.9961q-17.499 37.4971 -8.49902 82.4951q7.99902 35.9971 25.498 62.9961q17.499 26.998 40.998 48.9961q23.498 21.999 49.4961 39.498q25.999 17.499 49.9971 34.498
q23.999 16.999 43.998 35.498q19.998 18.498 30.998 40.4971q4.99902 10.999 13.499 18.999q8.49902 7.99902 19.499 7.99902h121.992q10.999 0 16.999 -7.99902q5.99902 -8 4 -18.999q-7 -32.998 -25.999 -58.9961q-18.999 -25.999 -43.4971 -47.4971
q-24.499 -21.499 -51.4971 -39.498t-50.9971 -34.498q-23.998 -16.499 -40.9971 -33.498q-16.999 -16.998 -20.999 -36.9971q-5.99902 -28.998 12.499 -45.4971q18.499 -16.499 64.4961 -16.499q44.998 0 66.9961 13.499q21.999 13.499 34.498 29.498t21.499 29.498
q8.99902 13.499 27.998 13.499h121.992q9 0 13.999 -5.99902q5 -6 3 -15.999q-6.99902 -34.998 -29.498 -73.4961q-22.498 -38.4971 -60.9961 -70.9951t-93.4941 -53.4971q-54.9971 -20.999 -128.992 -20.999z" />
    <glyph glyph-name="guillemotleft" unicode="&#xab;" horiz-adv-x="624" 
d="M325 362q2 9 7.5 16t12.5 12l250 201q11 9 23.5 3t9.5 -20l-29 -134q-3 -17 -9 -26t-18 -19l-102 -81l66 -81q8 -10 10 -19t-2 -26l-22 -107q-3 -16 -16.5 -20t-22.5 7l-164 200q-11 12 -8 28zM45 362q2 9 7.5 16t12.5 12l250 201q11 9 23.5 3t9.5 -20l-29 -134
q-3 -17 -9 -26t-18 -19l-102 -81l66 -81q8 -10 10 -19t-2 -26l-22 -107q-3 -16 -16.5 -20t-22.5 7l-164 200q-11 12 -8 28z" />
    <glyph glyph-name="guillemotright" unicode="&#xbb;" horiz-adv-x="627" 
d="M313 295q-2 -9 -7.5 -16t-12.5 -12l-250 -201q-11 -9 -23.5 -3t-9.5 20l29 134q3 17 9 26t18 19l102 81l-66 81q-8 10 -10 19t2 26l22 107q3 16 16.5 20t22.5 -7l164 -200q11 -12 8 -28zM593 295q-2 -9 -7.5 -16t-12.5 -12l-250 -201q-11 -9 -23.5 -3t-9.5 20l29 134
q3 17 9 26t18 19l102 81l-66 81q-8 10 -10 19t2 26l22 107q3 16 16.5 20t22.5 -7l164 -200q11 -12 8 -28z" />
    <glyph glyph-name="guilsinglleft" unicode="&#x2039;" horiz-adv-x="344" 
d="M45 362q2 9 7.5 16t12.5 12l250 201q11 9 23.5 3t9.5 -20l-29 -134q-3 -17 -9 -26t-18 -19l-102 -81l66 -81q8 -10 10 -19t-2 -26l-22 -107q-3 -16 -16.5 -20t-22.5 7l-164 200q-11 12 -8 28z" />
    <glyph glyph-name="guilsinglright" unicode="&#x203a;" horiz-adv-x="347" 
d="M313 295q-2 -9 -7.5 -16t-12.5 -12l-250 -201q-11 -9 -23.5 -3t-9.5 20l29 134q3 17 9 26t18 19l102 81l-66 81q-8 10 -10 19t2 26l22 107q3 16 16.5 20t22.5 -7l164 -200q11 -12 8 -28z" />
    <glyph glyph-name="hyphen" unicode="-" horiz-adv-x="481" 
d="M67 223q-11 0 -17 8t-4 19l21 101q2 11 12 19t21 8h315q11 0 17 -8t4 -19l-21 -101q-2 -11 -12 -19t-21 -8h-315z" />
    <glyph glyph-name="endash" unicode="&#x2013;" horiz-adv-x="571" 
d="M67 223q-11 0 -17 8t-4 19l21 101q2 11 12 19t21 8h405q11 0 17 -8t4 -19l-21 -101q-2 -11 -12 -19t-21 -8h-405z" />
    <glyph glyph-name="emdash" unicode="&#x2014;" horiz-adv-x="761" 
d="M67 223q-11 0 -17 8t-4 19l21 101q2 11 12 19t21 8h595q11 0 17 -8t4 -19l-21 -101q-2 -11 -12 -19t-21 -8h-595z" />
    <glyph glyph-name="periodcentered" unicode="&#xb7;" horiz-adv-x="333" 
d="M36 300q6 27 21.5 50.5t36.5 41.5t47 28t53 10t48.5 -10t35.5 -28t19 -41.5t-1 -50.5t-21 -50.5t-36 -41.5t-47 -28t-53 -10t-48.5 10t-35.5 28t-19.5 41.5t0.5 50.5z" />
    <glyph glyph-name="colon" unicode=":" horiz-adv-x="298" 
d="M259 377q-2 -11 -12 -19t-21 -8h-131q-11 0 -17 8t-4 19l27 131q2 11 12 19t21 8h131q11 0 17 -8t4 -19zM185 27q-2 -11 -12 -19t-21 -8h-131q-11 0 -17 8t-4 19l27 131q2 11 12 19t21 8h131q11 0 17 -8t4 -19z" />
    <glyph glyph-name="semicolon" unicode=";" horiz-adv-x="309" 
d="M36 146q5 14 18 26.5t33 12.5h123q11 0 16 -9.5t-1 -19.5l-120 -198q-6 -10 -18 -21t-32 -11h-75q-11 0 -15.5 8t-0.5 18zM273 377q-2 -11 -12 -19t-21 -8h-131q-11 0 -17 8t-4 19l27 131q2 11 12 19t21 8h131q11 0 17 -8t4 -19z" />
    <glyph glyph-name="less" unicode="&#x3c;" horiz-adv-x="527" 
d="M44 371q4 16 13.5 24.5t24.5 17.5l429 254q11 6 21 1t7 -19l-35 -165q-4 -17 -17 -27t-24 -17l-182 -107l137 -109q8 -7 17 -17t5 -27l-29 -132q-3 -15 -14 -18t-22 5l-319 252q-12 9 -18 17.5t-3 24.5z" />
    <glyph glyph-name="lessequal" unicode="&#x2264;" horiz-adv-x="553" 
d="M17 0q-11 0 -17.5 8t-4.5 19l22 101q2 11 11.5 19t20.5 8h382q11 0 17.5 -8t4.5 -19l-22 -101q-2 -11 -11.5 -19t-20.5 -8h-382zM469 361q11 -4 19 -15.5t4 -28.5l-22 -102q-2 -9 -9 -15t-16 -6q-4 0 -10 3l-339 170q-12 6 -18 16t-2 26l9 42q3 16 13 26t24 16l412 170
q7 3 11 3q9 0 14 -6t3 -15l-24 -112q-4 -17 -16.5 -28.5t-24.5 -15.5l-166 -67z" />
    <glyph glyph-name="equal" unicode="=" horiz-adv-x="574" 
d="M100 346q-11 0 -17 8t-4 19l22 101q2 11 11.5 19t20.5 8h395q11 0 17 -8t4 -19l-21 -101q-2 -11 -12 -19t-21 -8h-395zM48 100q-11 0 -17.5 8t-4.5 19l22 101q2 11 12 19t21 8h394q11 0 17 -8t4 -19l-21 -101q-2 -11 -11.5 -19t-20.5 -8h-395z" />
    <glyph glyph-name="approxequal" unicode="&#x2248;" horiz-adv-x="565" 
d="M526 404q-7 -33 -36.5 -56.5t-80.5 -23.5q-37 0 -63.5 6.5t-50 14.5t-48.5 14.5t-60 6.5q-23 0 -43 -9.5t-29 -16.5q-16 -11 -29.5 -7t-9.5 21l18 87q8 33 37 56.5t80 23.5q37 0 63.5 -6.5t50 -14.5t48.5 -14.5t60 -6.5q23 0 43 9.5t29 16.5q16 11 29.5 7t9.5 -21z
M474 159q-7 -33 -36.5 -56.5t-80.5 -23.5q-37 0 -63.5 6.5t-50 14.5t-48.5 14.5t-60 6.5q-23 0 -43 -9.5t-29 -16.5q-16 -11 -29.5 -7t-9.5 21l18 87q8 33 37 56.5t80 23.5q37 0 63.5 -6.5t50 -14.5t48.5 -14.5t60 -6.5q23 0 43 9.5t29 16.5q16 11 29.5 7t9.5 -21z" />
    <glyph glyph-name="notequal" unicode="&#x2260;" horiz-adv-x="558" 
d="M255 100l-30 -49q-6 -10 -18 -20t-32 -10h-133q-12 0 -16 10t3 21l29 48h-16q-11 0 -17.5 8t-4.5 19l22 101q2 11 12 19t21 8h79l57 91h-117q-11 0 -17 8t-4 19l22 101q2 11 11.5 19t20.5 8h180l30 48q7 11 19.5 20.5t31.5 9.5h131q13 0 16 -10.5t-3 -20.5l-29 -47h19
q11 0 17 -8t4 -19l-21 -101q-2 -11 -12 -19t-21 -8h-82l-56 -91h118q11 0 17 -8t4 -19l-21 -101q-2 -11 -11.5 -19t-20.5 -8h-182z" />
    <glyph glyph-name="logicalnot" unicode="&#xac;" horiz-adv-x="575" 
d="M470 100q-2 -11 -12 -19t-21 -8h-126q-11 0 -17 8t-4 19l20 95h-252q-11 0 -17.5 8t-3.5 19l21 101q2 11 12 19t21 8h405q11 0 17 -8t4 -19z" />
    <glyph glyph-name="estimated" unicode="&#x212e;" horiz-adv-x="662" 
d="M230 243q-6 -32 -3 -54.5t13 -36.5t25 -20.5t32 -6.5q32 0 52.5 11t34.5 22q13 9 18.5 11.5t17.5 2.5h144q10 0 15 -6t2 -16q-5 -19 -24 -46.5t-55.5 -52.5t-91.5 -43t-132 -18q-54 0 -103.5 18.5t-83.5 56.5t-48 95.5t3 134.5q35 163 125.5 239t228.5 76q66 0 114 -24
t76.5 -66t36.5 -99t-6 -123l-6 -28q-2 -11 -12 -19t-21 -8h-352zM371 475q-25 0 -44 -9.5t-33 -25t-23.5 -35.5t-14.5 -41h184q3 19 2 39t-8.5 36t-23 26t-39.5 10z" />
    <glyph glyph-name="partialdiff" unicode="&#x2202;" horiz-adv-x="594" 
d="M539 225q-27 -122 -106 -178.5t-199 -56.5q-45 0 -89 15.5t-76 46t-47.5 76.5t-2.5 107q26 122 101 178.5t195 56.5q10 0 25.5 -1t25.5 -2q-7 28 -19 51.5t-28.5 45.5t-38.5 44.5t-48 49.5q-8 8 -10.5 13t-1.5 9q5 20 24 20h156q12 0 19.5 -3.5t14.5 -9.5
q39 -42 68 -86.5t43.5 -98.5t13.5 -121.5t-20 -155.5zM198 230q-8 -35 3 -60t55 -25q45 0 65.5 25t28.5 60q4 18 3.5 33.5t-6.5 27t-19.5 18t-35.5 6.5q-45 0 -65.5 -25t-28.5 -60z" />
    <glyph glyph-name="greater" unicode="&#x3e;" horiz-adv-x="525" 
d="M504 328q-4 -16 -13.5 -24.5t-24.5 -17.5l-429 -254q-11 -6 -21 -1t-7 19l35 165q4 17 17 27t24 17l182 107l-137 109q-8 7 -17 17t-5 27l29 132q3 15 14 18t22 -5l319 -252q12 -9 18 -17.5t3 -24.5z" />
    <glyph glyph-name="greaterequal" unicode="&#x2265;" horiz-adv-x="550" 
d="M140 499q-11 4 -19 15.5t-4 28.5l22 102q2 9 9 15t16 6q4 0 10 -3l339 -170q12 -6 18 -16t2 -26l-9 -42q-3 -16 -13 -26t-24 -16l-412 -170q-8 -3 -11 -3q-9 0 -14 6t-3 15l24 112q4 17 16.5 28.5t24.5 15.5l166 67zM29 0q-11 0 -17.5 8t-4.5 19l22 101q2 11 11.5 19
t20.5 8h382q11 0 17.5 -8t4.5 -19l-22 -101q-2 -11 -11.5 -19t-20.5 -8h-382z" />
    <glyph glyph-name="question" unicode="?" horiz-adv-x="604" 
d="M334 27q-2 -11 -11.5 -19t-20.5 -8h-126q-11 0 -17.5 8t-4.5 19l22 101q2 11 11.5 19t20.5 8h126q11 0 17.5 -8t4.5 -19zM382 710q49 0 95.5 -15.5t81 -43t52 -65t8.5 -82.5q-8 -36 -25.5 -63t-41 -49t-49.5 -39.5t-50 -34.5t-44 -35.5t-31 -40.5q-5 -11 -13.5 -19
t-19.5 -8h-122q-11 0 -17 8t-4 19q7 33 26 59t43.5 47.5t51.5 39.5t51 34.5t41 33.5t21 37q6 29 -12.5 45.5t-64.5 16.5q-45 0 -67 -13.5t-34.5 -29.5t-21.5 -29.5t-28 -13.5h-122q-9 0 -14 6t-3 16q7 35 29.5 73.5t61 71t93.5 53.5t129 21z" />
    <glyph glyph-name="asciicircum" unicode="^" horiz-adv-x="466" 
d="M376 755q11 0 18 -4t15 -15l78 -112q6 -10 0 -19.5t-17 -9.5h-57q-10 0 -15.5 3t-13.5 8l-65 43l-83 -43q-10 -5 -17 -8t-17 -3h-76q-13 0 -14 10t6 16l129 115q12 11 21 15t20 4h88z" />
    <glyph glyph-name="underscore" unicode="_" horiz-adv-x="736" 
d="M-7 -77q-11 0 -17 8t-4 19l21 101q2 11 12 19t21 8h595q11 0 17 -8t4 -19l-21 -101q-2 -11 -12 -19t-21 -8h-595z" />
    <glyph glyph-name="bar" unicode="|" horiz-adv-x="302" 
d="M140 -181q-2 -11 -12 -19t-21 -8h-126q-11 0 -17 8t-4 19l223 1050q2 11 12 19t21 8h126q11 0 17 -8t4 -19z" />
    <glyph glyph-name="brokenbar" unicode="&#xa6;" horiz-adv-x="307" 
d="M287 502q-2 -11 -12 -19t-21 -8h-126q-11 0 -17 8t-4 19l64 300q2 11 12 19t21 8h126q11 0 17 -8t4 -19zM186 27q-2 -11 -12 -19t-21 -8h-126q-11 0 -17 8t-4 19l64 300q2 11 12 19t21 8h126q11 0 17 -8t4 -19z" />
    <glyph glyph-name="percent" unicode="%" horiz-adv-x="867" 
d="M404 558q-6 -41 -17 -76q-8 -30 -20 -55t-32.5 -43t-50.5 -28.5t-73 -10.5q-36 0 -63 12t-44.5 32t-25 46.5t-3.5 56.5q3 20 7 37.5t10 38.5q8 30 20.5 55t32.5 43t50 28.5t73 10.5q36 0 63 -12t44.5 -32t25 -46.5t3.5 -56.5zM192 492q-4 -26 1.5 -39t27.5 -13t33.5 13
t19.5 39q5 17 8.5 33t5.5 33q3 26 -2.5 39t-27.5 13t-33 -13t-19 -39q-5 -17 -8.5 -33t-5.5 -33zM815 208q-6 -41 -17 -76q-8 -30 -20 -55t-32.5 -43t-50.5 -28.5t-73 -10.5q-36 0 -63 12t-44.5 32t-25 46.5t-3.5 56.5q3 20 7 37.5t10 38.5q8 30 20.5 55t32.5 43t50 28.5
t73 10.5q36 0 63 -12t44.5 -32t25 -46.5t3.5 -56.5zM603 142q-4 -26 1.5 -39t27.5 -13t33.5 13t19.5 39q5 17 8.5 33t5.5 33q3 26 -2.5 39t-27.5 13t-33 -13t-19 -39q-5 -17 -8.5 -33t-5.5 -33zM200 19q-9 -9 -17.5 -14t-22.5 -5h-94q-15 0 -19.5 10.5t5.5 20.5l632 650
q9 9 17.5 14t22.5 5h94q15 0 19.5 -10.5t-5.5 -20.5z" />
    <glyph glyph-name="perthousand" unicode="&#x2030;" horiz-adv-x="1222" 
d="M404 558q-6 -41 -17 -76q-8 -30 -20 -55t-32.5 -43t-50.5 -28.5t-73 -10.5q-36 0 -63 12t-44.5 32t-25 46.5t-3.5 56.5q3 20 7 37.5t10 38.5q8 30 20.5 55t32.5 43t50 28.5t73 10.5q36 0 63 -12t44.5 -32t25 -46.5t3.5 -56.5zM192 492q-4 -26 1.5 -39t27.5 -13t33.5 13
t19.5 39q5 17 8.5 33t5.5 33q3 26 -2.5 39t-27.5 13t-33 -13t-19 -39q-5 -17 -8.5 -33t-5.5 -33zM815 208q-6 -41 -17 -76q-8 -30 -20 -55t-32.5 -43t-50.5 -28.5t-73 -10.5q-36 0 -63 12t-44.5 32t-25 46.5t-3.5 56.5q3 20 7 37.5t10 38.5q8 30 20.5 55t32.5 43t50 28.5
t73 10.5q36 0 63 -12t44.5 -32t25 -46.5t3.5 -56.5zM603 142q-4 -26 1.5 -39t27.5 -13t33.5 13t19.5 39q5 17 8.5 33t5.5 33q3 26 -2.5 39t-27.5 13t-33 -13t-19 -39q-5 -17 -8.5 -33t-5.5 -33zM200 19q-9 -9 -17.5 -14t-22.5 -5h-94q-15 0 -19.5 10.5t5.5 20.5l632 650
q9 9 17.5 14t22.5 5h94q15 0 19.5 -10.5t-5.5 -20.5zM1173 208q-6 -41 -17 -76q-8 -30 -20 -55t-32.5 -43t-50.5 -28.5t-73 -10.5q-36 0 -63 12t-44.5 32t-25 46.5t-3.5 56.5q3 20 7 37.5t10 38.5q8 30 20.5 55t32.5 43t50 28.5t73 10.5q36 0 63 -12t44.5 -32t25 -46.5
t3.5 -56.5zM961 142q-4 -26 1.5 -39t27.5 -13t33.5 13t19.5 39q5 17 8.5 33t5.5 33q3 26 -2.5 39t-27.5 13t-33 -13t-19 -39q-5 -17 -8.5 -33t-5.5 -33z" />
    <glyph glyph-name="ellipsis" unicode="&#x2026;" horiz-adv-x="796" 
d="M435 27q-2 -11 -11.5 -19t-20.5 -8h-131q-11 0 -17.5 8t-4.5 19l28 131q2 11 12 19t21 8h131q11 0 17 -8t4 -19zM180 27q-2 -11 -11.5 -19t-20.5 -8h-131q-11 0 -17.5 8t-4.5 19l28 131q2 11 12 19t21 8h131q11 0 17 -8t4 -19zM690 27q-2 -11 -11.5 -19t-20.5 -8h-131
q-11 0 -17.5 8t-4.5 19l28 131q2 11 12 19t21 8h131q11 0 17 -8t4 -19z" />
    <glyph glyph-name="asciitilde" unicode="~" horiz-adv-x="564" 
d="M499 282q-7 -33 -36.5 -56.5t-80.5 -23.5q-37 0 -63.5 6.5t-50 14.5t-48.5 14.5t-60 6.5q-23 0 -43 -9.5t-29 -16.5q-16 -11 -29.5 -7t-9.5 21l18 87q8 33 37 56.5t80 23.5q37 0 63.5 -6.5t50 -14.5t48.5 -14.5t60 -6.5q23 0 43 9.5t29 16.5q16 11 29.5 7t9.5 -21z" />
    <glyph glyph-name="dagger" unicode="&#x2020;" horiz-adv-x="518" 
d="M364 369l-73 -342q-2 -11 -11.5 -19t-20.5 -8h-126q-11 0 -17.5 8t-4.5 19l73 342h-112q-11 0 -17 8t-4 19l21 101q2 11 12 19t21 8h112l32 149q2 11 11.5 19t20.5 8h126q11 0 17.5 -8t4.5 -19l-32 -149h112q11 0 17 -8t4 -19l-21 -101q-2 -11 -12 -19t-21 -8h-112z" />
    <glyph glyph-name="daggerdbl" unicode="&#x2021;" horiz-adv-x="558" 
d="M336 144l-25 -117q-2 -11 -11.5 -19t-20.5 -8h-126q-11 0 -17.5 8t-4.5 19l25 117h-112q-11 0 -17 8t-4 19l21 101q2 11 12 19t21 8h112l24 112h-112q-11 0 -17.5 8t-3.5 19l21 101q2 11 12 19t21 8h112l23 107q2 11 11.5 19t20.5 8h126q11 0 17.5 -8t4.5 -19l-23 -107
h112q11 0 17 -8t4 -19l-21 -101q-2 -11 -12 -19t-21 -8h-112l-24 -112h112q11 0 17 -8t4 -19l-21 -101q-2 -11 -12 -19t-21 -8h-112z" />
    <glyph glyph-name="minus" unicode="&#x2212;" horiz-adv-x="654" 
d="M74 223q-11 0 -17 8t-4 19l21 101q2 11 12 19t21 8h474q11 0 17 -8t4 -19l-21 -101q-2 -11 -12 -19t-21 -8h-474z" />
    <glyph glyph-name="bullet" unicode="&#x2022;" horiz-adv-x="392" 
d="M65 300q6 27 21.5 50.5t36.5 41.5t47 28t53 10t48.5 -10t35.5 -28t19 -41.5t-1 -50.5t-21 -50.5t-36 -41.5t-47 -28t-53 -10t-48.5 10t-35.5 28t-19.5 41.5t0.5 50.5z" />
    <glyph glyph-name="trademark" unicode="&#x2122;" horiz-adv-x="656" 
d="M119 678q2 10 9 16t17 6h192q21 0 18 -22l-9 -42q-5 -22 -27 -22h-52l-34 -158q-2 -10 -9 -16t-17 -6h-44q-21 0 -18 22l34 158h-52q-22 0 -17 22zM577 679q5 6 12.5 13.5t18.5 7.5h47q10 0 15 -6t3 -16l-48 -222q-5 -22 -26 -22h-44q-10 0 -15 6t-3 16l20 93l-22 -27
q-7 -8 -14.5 -16t-16.5 -8h-28q-9 0 -13.5 8t-7.5 16l-10 27l-20 -93q-2 -10 -9 -16t-17 -6h-44q-10 0 -15 6t-3 16l48 222q2 10 9 16t17 6h41q11 0 16 -7.5t7 -13.5l33 -82z" />
    <glyph glyph-name="section" unicode="&#xa7;" horiz-adv-x="619" 
d="M579 255q-5 -25 -14 -44t-22 -34.5t-30.5 -29t-39.5 -26.5q7 -17 9 -42t-3 -48q-8 -36 -25 -67t-48 -54.5t-76.5 -36.5t-109.5 -13q-60 0 -103 15.5t-70 38t-38.5 48.5t-8.5 46q2 11 10.5 19t17.5 8h124q11 0 16.5 -6.5t13 -14t20 -13.5t36.5 -6q20 0 38 12t22 30
q3 12 -2.5 22t-21 20.5t-42.5 21t-68 24.5q-41 13 -68.5 34.5t-43 47t-19.5 53.5t2 55q10 49 35.5 78t69.5 56q-7 17 -8.5 42t3.5 48q7 36 24.5 67t48.5 54.5t76.5 36.5t109.5 13q60 0 103 -15.5t70 -38t38.5 -48.5t8.5 -46q-2 -11 -10.5 -19t-17.5 -8h-124q-11 0 -16.5 6
t-13 13.5t-20 14t-36.5 6.5q-20 0 -38 -12t-22 -30q-3 -12 2.5 -22t21 -20.5t42.5 -21.5t68 -24q41 -14 68.5 -35t43 -46.5t19.5 -53.5t-2 -55zM211 311q-3 -11 0 -20t14.5 -18t32 -18t53.5 -19q12 -5 25 -9.5t27 -9.5q16 8 27 18.5t14 23.5q2 11 -1 20t-14 18t-32 17.5
t-54 19.5q-12 4 -25 8.5t-26 10.5q-17 -9 -28 -19t-13 -23z" />
    <glyph glyph-name="copyright" unicode="&#xa9;" horiz-adv-x="808" 
d="M432 445q-27 0 -41.5 -15.5t-22.5 -44.5q-4 -15 -8 -34t-6 -34q-5 -29 3 -44.5t35 -15.5q14 0 28 7t25 22q5 6 12 13.5t19 7.5h80q22 0 17 -22q-4 -18 -20.5 -40t-43 -41.5t-62 -32.5t-76.5 -13q-78 0 -116 43.5t-25 115.5q2 15 6 34t8 34q9 36 28.5 65t46.5 50t61 32.5
t73 11.5q41 0 71 -13t48 -32.5t25.5 -41.5t3.5 -40q-5 -22 -27 -22h-80q-12 0 -15.5 7.5t-5.5 13.5q-5 15 -16 22t-25 7zM57 360q16 75 54.5 139t94.5 111t126.5 73.5t148.5 26.5q75 0 135.5 -30t100.5 -80.5t56 -117.5t0 -142t-55 -139t-95 -111t-126.5 -73.5t-148.5 -26.5
q-75 0 -135.5 30t-100.5 80.5t-55.5 117.5t0.5 142zM150 350q-12 -56 -2 -105t38 -86t72 -58t100 -21t108.5 21t96 58t74.5 86t43 105t2 105t-38 86t-72 58t-100 21t-108.5 -21t-96 -58t-74.5 -86t-43 -105z" />
    <glyph glyph-name="ordfeminine" unicode="&#xaa;" horiz-adv-x="355" 
d="M200 499q24 0 38 15t17 29l1 6l-28 -6q-26 -5 -35.5 -12t-11.5 -17q-2 -6 2.5 -10.5t16.5 -4.5zM259 434q-21 0 -18 22l2 7q-11 -14 -31 -24t-47 -10q-44 0 -70 21.5t-18 58.5q8 40 47.5 61.5t99.5 31.5l45 7q2 8 -0.5 17t-21.5 9q-8 0 -13.5 -2.5t-10.5 -5.5t-11 -5.5
t-14 -2.5h-53q-10 0 -15.5 3.5t-2.5 13.5q2 7 10 19t23 23t37.5 19t55.5 8q69 0 98 -30t18 -78l-30 -141q-2 -10 -9 -16t-17 -6h-54z" />
    <glyph glyph-name="registered" unicode="&#xae;" horiz-adv-x="808" 
d="M243 168q-22 0 -17 22l68 322q5 22 27 22h149q36 0 60.5 -11.5t38.5 -30t17.5 -42t-1.5 -48.5q-7 -32 -28 -61.5t-50 -40.5l28 -96q4 -12 -3 -24t-23 -12h-64q-19 0 -25 19l-26 95h-30l-19 -92q-5 -22 -27 -22h-75zM384 376h37q20 0 31.5 9.5t15.5 24.5q3 15 -4.5 25
t-27.5 10h-37zM57 360q16 75 54.5 139t94.5 111t126.5 73.5t148.5 26.5q75 0 135.5 -30t100.5 -80.5t56 -117.5t0 -142t-55 -139t-95 -111t-126.5 -73.5t-148.5 -26.5q-75 0 -135.5 30t-100.5 80.5t-55.5 117.5t0.5 142zM150 350q-12 -56 -2 -105t38 -86t72 -58t100 -21
t108.5 21t96 58t74.5 86t43 105t2 105t-38 86t-72 58t-100 21t-108.5 -21t-96 -58t-74.5 -86t-43 -105z" />
    <glyph glyph-name="degree" unicode="&#xb0;" horiz-adv-x="421" 
d="M183 534q-8 -34 9 -55t51 -21t59 21t33 55t-9 55t-51 21t-59 -21t-33 -55zM79 539q8 37 27 68.5t46.5 54.5t61.5 35.5t72 12.5q37 0 69 -14t53 -39t30 -58t1 -70q-8 -38 -27 -69t-46.5 -54t-62 -35.5t-71.5 -12.5q-38 0 -69.5 14t-52.5 39t-30 57.5t-1 70.5z" />
    <glyph glyph-name="mu" unicode="&#xb5;" horiz-adv-x="656" 
d="M101 483l1 3l1 7q2 11 12 19t21 8h126q11 0 17 -8t4 -19l-55 -262q-8 -39 3.5 -62.5t54.5 -23.5q45 0 76 26t41 69l53 253q2 11 12 19t21 8h126q11 0 17 -8t4 -19l-99 -466q-2 -11 -11.5 -19t-20.5 -8h-121q-11 0 -17.5 8t-4.5 19l5 23q-21 -21 -57.5 -40.5t-96.5 -19.5
q-10 0 -18.5 0.5t-17.5 1.5l-35 -165q-2 -11 -12 -19t-21 -8h-126q-11 0 -17 8t-4 19l80 379l3 12z" />
    <glyph glyph-name="paragraph" unicode="&#xb6;" horiz-adv-x="623" 
d="M73 508q9 40 31.5 75t54 61t69.5 41t78 15h306q11 0 17.5 -8t4.5 -19l-159 -746q-2 -11 -12 -19t-21 -8h-73q-11 0 -17 8t-4 19l139 656h-79l-139 -656q-2 -11 -12 -19t-21 -8h-73q-11 0 -17 8t-4 19l83 389q-40 0 -71.5 15t-52.5 41t-28.5 61t0.5 75z" />
    <glyph glyph-name="ordmasculine" unicode="&#xba;" horiz-adv-x="351" 
d="M250 705q25 0 49.5 -7t43 -21.5t28.5 -35t6 -47.5q-1 -8 -5.5 -27t-6.5 -27q-14 -54 -52.5 -82.5t-100.5 -28.5q-27 0 -52 7t-43 21.5t-27 35t-5 47.5q1 8 5.5 27t6.5 27q14 54 55 82.5t98 28.5zM244 629q-13 0 -22 -8.5t-15 -31.5l-5.5 -22t-4.5 -22q-4 -25 2 -32.5
t19 -7.5t21.5 7.5t15.5 32.5l5.5 22t4.5 22q3 23 -2.5 31.5t-18.5 8.5z" />
    <glyph glyph-name="multiply" unicode="&#xd7;" horiz-adv-x="618" 
d="M194 345l-97 122q-7 8 -5 19t13 19l93 78q9 8 20 8t18 -8l97 -122l156 125q11 8 21.5 8t16.5 -8l78 -98q6 -8 4 -19t-13 -19l-156 -125l99 -127q7 -8 4.5 -19t-12.5 -19l-93 -78q-10 -8 -20.5 -8t-17.5 8l-99 127l-159 -128q-11 -8 -22 -8t-16 8l-77 98q-7 8 -5 19t13 19
z" />
    <glyph glyph-name="divide" unicode="&#xf7;" horiz-adv-x="526" 
d="M300 182q11 0 17 -8t4 -19l-24 -114q-2 -11 -12 -19t-21 -8h-124q-11 0 -17 8t-4 19l24 114q2 11 12 19t21 8h124zM50 223q-11 0 -17 8t-4 19l21 101q2 11 12 19t21 8h395q11 0 17 -8t4 -19l-21 -101q-2 -11 -12 -19t-21 -8h-395zM386 586q11 0 17 -8t4 -19l-24 -114
q-2 -11 -12 -19t-21 -8h-124q-11 0 -17 8t-4 19l24 114q2 11 12 19t21 8h124z" />
    <glyph glyph-name="thorn" unicode="&#xfe;" horiz-adv-x="634" 
d="M317 -10q-29 0 -51 6t-38.5 15t-26.5 19.5t-15 19.5l-45 -213q-2 -11 -12 -19t-21 -8h-126q-11 0 -17 8t-4 19l180 846q2 11 11.5 19t20.5 8h126q11 0 17.5 -8t4.5 -19l-46 -213q10 10 21.5 20.5t27 19.5t37 14.5t51.5 5.5q41 0 79 -14.5t65 -43.5t38.5 -73t1.5 -103
q-1 -8 -3 -18.5t-4.5 -22t-5 -22.5t-4.5 -18q-29 -118 -92.5 -171.5t-169.5 -53.5zM404 232q5 15 7.5 28t4.5 28q2 18 0 33.5t-10.5 27.5t-23.5 19t-38 7q-22 0 -39.5 -7t-30.5 -18.5t-22 -25.5t-14 -29t-9 -35t-6 -35q-1 -15 1.5 -29t11 -25.5t23 -18.5t36.5 -7
q47 0 72.5 26t36.5 61z" />
    <glyph glyph-name="afii61352" unicode="&#x2116;" horiz-adv-x="1273" 
d="M1154 88q11 0 17 -8t4 -19l-7 -34q-2 -11 -11.5 -19t-20.5 -8h-490q-11 0 -17.5 8t-4.5 19l7 34q2 11 12 19t21 8h490zM478 0q-17 0 -25 8.5t-13 16.5l-175 340l-72 -338q-2 -11 -11.5 -19t-20.5 -8h-131q-11 0 -17.5 8t-4.5 19l138 646q2 11 11.5 19t20.5 8h84
q17 0 25.5 -9t10.5 -14l177 -342l72 338q2 11 11.5 19t20.5 8h131q11 0 17.5 -8t4.5 -19l-138 -646q-2 -11 -11.5 -19t-20.5 -8h-84zM697 368q25 118 101 183.5t214 65.5q54 0 101 -17t79.5 -49t46.5 -78t2 -105q-26 -118 -102 -184t-213 -66q-54 0 -101 17t-80 49t-47 78.5
t-1 105.5zM1061 368q5 25 1.5 42.5t-13.5 29t-25.5 17t-34.5 5.5q-38 0 -69.5 -22t-42.5 -72q-5 -25 -1.5 -43t13 -30t25 -17.5t34.5 -5.5q38 0 70 23t43 73z" />
    <glyph glyph-name="uni2206" unicode="&#x2206;" horiz-adv-x="737" 
d="M518 660q20 0 28 -11t10 -22l106 -525q2 -6 2 -13.5t-2 -16.5l-10 -45q-2 -11 -11.5 -19t-20.5 -8h-625q-11 0 -17.5 8t-4.5 19l10 45q4 17 12 30l330 525q7 11 19.5 22t32.5 11h141zM476 155l-61 303l-188 -303h249z" />
    <glyph glyph-name="product" unicode="&#x220f;" horiz-adv-x="705" 
d="M538 -173q-2 -11 -12 -19t-21 -8h-126q-11 0 -17 8t-4 19l152 718h-211l-152 -718q-2 -11 -12 -19t-21 -8h-126q-11 0 -17 8t-4 19l180 846q2 11 11.5 19t20.5 8h517q11 0 17.5 -8t4.5 -19z" />
    <glyph glyph-name="summation" unicode="&#x2211;" horiz-adv-x="635" 
d="M568 237q-3 -16 -19.5 -30.5t-33.5 -28.5l-258 -224h224q11 0 17 -8t4 -19l-21 -101q-2 -11 -12 -19t-21 -8h-484q-11 0 -17 8t-4 19l21 101q3 14 10.5 24.5t16.5 17.5l371 295l-252 266q-6 7 -9 17.5t0 24.5l22 101q2 11 11.5 19t20.5 8h484q11 0 17.5 -8t4.5 -19
l-22 -101q-2 -11 -12 -19t-21 -8h-277l217 -224q12 -13 21 -28t6 -31z" />
    <glyph glyph-name="radical" unicode="&#x221a;" horiz-adv-x="779" 
d="M851 860q11 0 17.5 -8t4.5 -19l-22 -101q-2 -11 -12 -19t-21 -8h-119l-361 -680q-6 -11 -14.5 -18t-23.5 -7h-143q-15 0 -20.5 7t-7.5 18l-74 464q-2 12 8 21.5t22 9.5h117q15 0 20.5 -8t7.5 -16l35 -251l311 591q5 9 14 16.5t24 7.5h237z" />
    <glyph glyph-name="infinity" unicode="&#x221e;" horiz-adv-x="915" 
d="M468 391q25 23 48 41.5t47.5 32t52.5 21t64 7.5q46 0 84.5 -18.5t63.5 -49.5t35 -71t1 -83t-27.5 -83t-49 -71t-75.5 -49.5t-106 -18.5q-32 0 -56.5 7.5t-44 21t-36 32t-32.5 41.5q-26 -23 -49 -41.5t-47.5 -32t-52.5 -21t-64 -7.5q-47 0 -84.5 18.5t-63 49.5t-35.5 71
t-1 83t27.5 83t49.5 71t75 49.5t106 18.5q32 0 56.5 -7.5t44.5 -21t36.5 -32t32.5 -41.5zM242 183q26 0 58.5 19t76.5 69q-23 51 -47 69.5t-50 18.5q-28 0 -56 -21t-38 -67q-5 -23 -2 -39.5t11 -27.5t20.5 -16t26.5 -5zM624 183q28 0 56 21t38 67q5 23 2 39.5t-11.5 27.5
t-20.5 16t-26 5q-26 0 -58.5 -19t-76.5 -69q23 -51 47 -69.5t50 -18.5z" />
    <glyph glyph-name="integral" unicode="&#x222b;" horiz-adv-x="533" 
d="M229 542q10 46 28 83t47 62.5t70 39t95 13.5h110q11 0 17 -8t4 -19l-21 -101q-3 -11 -12.5 -19t-20.5 -8h-85q-24 0 -36.5 -14.5t-16.5 -33.5l-115 -539q-10 -46 -28 -83t-47 -62.5t-70 -39t-95 -13.5h-110q-11 0 -17 8t-4 19l21 101q2 11 12 19t21 8h85q24 0 36.5 14.5
t16.5 33.5z" />
    <glyph glyph-name="lozenge" unicode="&#x25ca;" horiz-adv-x="611" 
d="M42 327q-5 13 -2 28t14 28l235 294q8 10 22.5 21.5t34.5 11.5h94q20 0 29.5 -11.5t13.5 -21.5l111 -294q5 -13 2 -28t-14 -28l-235 -294q-8 -10 -22.5 -21.5t-34.5 -11.5h-94q-20 0 -29.5 11.5t-13.5 21.5zM365 524l-154 -188l64 -154l154 188z" />
    <glyph glyph-name="caron" unicode="&#x2c7;" horiz-adv-x="408" 
d="M144 595q-11 0 -18 4t-15 15l-78 112q-6 10 0 19.5t17 9.5h55q10 0 15.5 -3t13.5 -8l73 -44l80 44q10 5 17 8t17 3h73q13 0 14 -10t-6 -16l-129 -115q-12 -11 -20 -15t-21 -4h-88z" />
    <glyph glyph-name="alefhebrew" unicode="&#x5d0;" horiz-adv-x="592" 
d="M564 399q-7 -33 -17 -64.5t-26 -58.5t-39 -48t-56 -33l68 -161q5 -13 -3 -23.5t-25 -10.5h-130q-11 0 -17.5 8t-9.5 16l-86 203q-13 -25 -19 -52l-32 -148q-2 -11 -11.5 -19t-20.5 -8h-126q-11 0 -17.5 8t-4.5 19l33 153q14 65 45 120.5t89 81.5l-65 155q-5 13 3.5 23.5
t24.5 10.5h132q12 0 17 -7.5t8 -15.5l83 -200q16 24 24 57l29 139q2 11 12 19t21 8h126q11 0 17 -8t4 -19z" />
    <glyph glyph-name="bethebrew" unicode="&#x5d1;" horiz-adv-x="599" 
d="M97 416q-11 0 -17.5 8t-3.5 19l21 101q2 11 12 19t21 8h168q55 0 102 -17t79 -48.5t45.5 -77t1.5 -102.5l-37 -171h14q11 0 17.5 -8t4.5 -19l-22 -101q-2 -11 -11.5 -19t-20.5 -8h-472q-11 0 -17.5 8t-4.5 19l22 101q2 11 11.5 19t20.5 8h278l36 166q20 95 -75 95h-173v0
z" />
    <glyph glyph-name="gimelhebrew" unicode="&#x5d2;" horiz-adv-x="561" 
d="M-27 39q10 50 32 94.5t56.5 78.5t81.5 53.5t108 19.5h20l10 46q10 46 -5.5 70.5t-61.5 24.5h-103q-11 0 -17 8t-4 19l21 101q2 11 12 19t21 8h93q63 0 110 -17.5t76.5 -50t39.5 -79t-2 -103.5l-18 -82l47 -218q2 -12 -6.5 -21.5t-22.5 -9.5h-123q-12 0 -17 8t-7 16
l-23 106h-33q-38 0 -67.5 -26.5t-37.5 -64.5l-3 -12q-2 -11 -11.5 -19t-20.5 -8h-126q-11 0 -17.5 8t-4.5 19l3 12v0z" />
    <glyph glyph-name="dalethebrew" unicode="&#x5d3;" horiz-adv-x="527" 
d="M538 571q11 0 17 -8t4 -19l-21 -101q-3 -11 -12.5 -19t-20.5 -8h-65l-83 -389q-2 -11 -11.5 -19t-20.5 -8h-126q-11 0 -17.5 8t-4.5 19l83 389h-197q-11 0 -17 8t-4 19l21 101q2 11 12 19t21 8h442z" />
    <glyph glyph-name="hehebrew" unicode="&#x5d4;" horiz-adv-x="650" 
d="M113 544q2 11 12 19t21 8h226q65 0 114 -15t79.5 -45.5t40 -77t-3.5 -110.5l-63 -296q-2 -11 -11.5 -19t-20.5 -8h-126q-11 0 -17.5 8t-4.5 19l62 291q11 51 -6.5 74.5t-70.5 23.5h-231q-11 0 -17.5 8t-3.5 19zM183 27q-2 -11 -11.5 -19t-20.5 -8h-126q-11 0 -17.5 8
t-4.5 19l68 321q3 11 12.5 19t20.5 8h126q11 0 17.5 -8t3.5 -19z" />
    <glyph glyph-name="vavhebrew" unicode="&#x5d5;" horiz-adv-x="300" 
d="M183 27q-2 -11 -11.5 -19t-20.5 -8h-126q-11 0 -17.5 8t-4.5 19l110 517q2 11 12 19t21 8h126q11 0 17 -8t4 -19z" />
    <glyph glyph-name="zayinhebrew" unicode="&#x5d6;" horiz-adv-x="480" 
d="M64 544q2 11 12 19t21 8h395q11 0 17 -8t4 -19l-21 -101q-3 -11 -12.5 -19t-20.5 -8h-25q-24 0 -36.5 -14.5t-16.5 -33.5l-73 -341q-2 -11 -11.5 -19t-20.5 -8h-126q-11 0 -17.5 8t-4.5 19l67 314q1 6 4 16.5t7 21t10 21t15 16.5h-167q-11 0 -17 8t-4 19l21 101v0z" />
    <glyph glyph-name="hethebrew" unicode="&#x5d7;" horiz-adv-x="661" 
d="M392 0q-11 0 -17.5 8t-4.5 19l62 290q11 49 -6.5 74t-66.5 25h-93l-83 -389q-2 -11 -11.5 -19t-20.5 -8h-126q-11 0 -17.5 8t-4.5 19l110 517q2 11 12 19t21 8h241q62 0 110 -15.5t78.5 -46t41 -76t-2.5 -106.5l-64 -300q-2 -11 -11.5 -19t-20.5 -8h-126v0z" />
    <glyph glyph-name="tethebrew" unicode="&#x5d8;" horiz-adv-x="648" 
d="M617 342q-2 -11 -5 -27t-6.5 -32.5t-7 -32t-6.5 -26.5q-13 -54 -36.5 -97.5t-61 -73.5t-91.5 -46.5t-128 -16.5q-66 0 -115.5 18t-79.5 50t-40.5 77t0.5 99l66 310q2 11 12 19t21 8h126q11 0 17 -8t4 -19l-65 -305q-10 -48 6.5 -71t70.5 -23q53 0 78 18.5t37 65.5
q6 23 12 51.5t10 51.5q9 53 -7 73.5t-73 20.5h-14q-11 0 -17 8t-4 19l21 101q2 11 12 19t21 8h14q63 0 110.5 -14.5t77.5 -43.5t41 -74.5t0 -106.5z" />
    <glyph glyph-name="yodhebrew" unicode="&#x5d9;" horiz-adv-x="298" 
d="M232 267q-2 -11 -11.5 -19t-20.5 -8h-126q-11 0 -17.5 8t-4.5 19l59 277q2 11 12 19t21 8h126q11 0 17 -8t4 -19z" />
    <glyph glyph-name="finalkafhebrew" unicode="&#x5da;" horiz-adv-x="531" 
d="M538 571q11 0 17 -8t4 -19l-21 -101q-3 -11 -12.5 -19t-20.5 -8h-60l-109 -513q-2 -11 -12 -19t-21 -8h-126q-11 0 -17 8t-4 19l109 513h-202q-11 0 -17.5 8t-3.5 19l21 101q2 11 12 19t21 8h442z" />
    <glyph glyph-name="kafhebrew" unicode="&#x5db;" horiz-adv-x="542" 
d="M283 571q62 0 108 -20.5t74.5 -56.5t39 -84t2.5 -103q-3 -23 -6 -36.5t-10 -36.5q-15 -55 -38 -98.5t-58.5 -73.5t-87.5 -46t-125 -16h-178q-11 0 -17.5 8t-4.5 19l22 101q2 11 11.5 19t20.5 8h163q49 0 75 22.5t39 71.5q7 23 10 36.5t6 36.5q8 49 -8.5 71.5t-65.5 22.5
h-163q-11 0 -17.5 8t-3.5 19l21 101q2 11 12 19t21 8h158z" />
    </font>
</defs>
</svg>
