<?xml version="1.0" standalone="no"?>
<!DOCTYPE svg PUBLIC "-//W3C//DTD SVG 1.1//EN" "http://www.w3.org/Graphics/SVG/1.1/DTD/svg11.dtd" >
<svg xmlns="http://www.w3.org/2000/svg" xmlns:xlink="http://www.w3.org/1999/xlink" version="1.1">
<metadata>
Created by FontForge 20170924 at Sat Nov 19 14:17:04 2011
 By Glenn,,,
Copyright (c) 2011 by Brenda Gallo (gbrenda1987@gmail.com), with Reserved Font Name Spirax.
</metadata>
<defs>
<font id="Spirax-Regular" horiz-adv-x="496" >
  <font-face 
    font-family="Spirax"
    font-weight="400"
    font-stretch="normal"
    units-per-em="1000"
    panose-1="2 0 5 3 8 0 0 2 0 3"
    ascent="800"
    descent="-200"
    x-height="463"
    cap-height="696"
    bbox="-194 -288 987 947"
    underline-thickness="50"
    underline-position="-100"
    unicode-range="U+0020-2122"
  />
<missing-glyph horiz-adv-x="204" 
 />
    <glyph glyph-name=".notdef" horiz-adv-x="204" 
 />
    <glyph glyph-name=".null" horiz-adv-x="0" 
 />
    <glyph glyph-name="nonmarkingreturn" horiz-adv-x="333" 
 />
    <glyph glyph-name="space" unicode=" " horiz-adv-x="204" 
 />
    <glyph glyph-name="exclam" unicode="!" horiz-adv-x="243" 
d="M172 750v-550h-100v550h100zM55 66q0 27 19.5 46.5t46.5 19.5t46.5 -19.5t19.5 -46.5t-19.5 -46.5t-46.5 -19.5t-46.5 19.5t-19.5 46.5z" />
    <glyph glyph-name="quotedbl" unicode="&#x22;" horiz-adv-x="410" 
d="M88 467q-13 0 -14.5 19t-3.5 47.5t-14.5 43t-17.5 21.5q-13 16 -13 36.5t17.5 43t45.5 22.5q72 0 72 -87q0 -47 -26.5 -96.5t-45.5 -49.5zM308 467q-13 0 -14.5 19t-3.5 47.5t-14.5 43t-17.5 21.5q-13 16 -13 36.5t17.5 43t45.5 22.5q72 0 72 -87q0 -47 -26.5 -96.5
t-45.5 -49.5z" />
    <glyph glyph-name="numbersign" unicode="#" horiz-adv-x="625" 
d="M181 201l-76 -201h-68l76 201h-78v60h101l64 167h-91v60h114l81 212h67l-81 -212h149l81 212h67l-81 -212h84v-60h-107l-63 -167h96v-60h-119l-76 -201h-68l76 201h-148zM267 428l-63 -167h148l64 167h-149z" />
    <glyph glyph-name="dollar" unicode="$" horiz-adv-x="520" 
d="M267 1v-121h-60v126q-65 14 -113.5 54t-48.5 109q0 52 26.5 74.5t47 22.5t35.5 -9t15 -20t-5 -11t-7.5 3t-4.5 7q-7 10 -32.5 10t-41 -21.5t-15.5 -54.5q0 -57 42.5 -94t101.5 -50v308q-3 1 -9 2q-14 4 -21 7q-130 45 -130 161q0 73 46.5 120.5t113.5 64.5v121h60v-113
q95 -2 147 -55q29 -28 29 -64t-21 -54t-50.5 -18t-47 16.5t-17.5 31t5.5 14.5t9.5 -6.5t7 -14.5q8 -21 34.5 -21t42 13t15.5 37q0 43 -47 70.5t-107 29.5v-246q68 -16 110 -34q108 -48 108 -173q0 -61 -23 -106.5t-59 -68.5q-68 -45 -136 -47zM423 100.5q18 30.5 18 69
t-13.5 64.5t-41.5 42q-45 25 -119 43v-298q58 4 109 33q29 16 47 46.5zM124 626.5q-33 -30.5 -33 -73.5t30 -67t86 -40v223q-50 -12 -83 -42.5z" />
    <glyph glyph-name="percent" unicode="%" horiz-adv-x="678" 
d="M97 445q0 -44 20 -83.5t63 -39.5t63 39.5t20 83.5t-20 83.5t-63 39.5t-63 -39.5t-20 -83.5zM36 445q0 59 42.5 101t101 42t101 -42t42.5 -101t-42 -101.5t-101 -42.5t-101.5 42.5t-42.5 101.5zM356 145q0 59 42.5 101t101 42t101 -42t42.5 -101t-42 -101.5t-101 -42.5
t-101.5 42.5t-42.5 101.5zM498 595h68l-395 -600h-68zM417 145q0 -44 20 -83.5t63 -39.5t63 39.5t20 83.5t-20 83.5t-63 39.5t-63 -39.5t-20 -83.5z" />
    <glyph glyph-name="ampersand" unicode="&#x26;" horiz-adv-x="634" 
d="M336 421l58 -86q24 14 50 14q45 0 80.5 -36.5t35.5 -102.5q0 -42 -18 -80q42 -57 94 -130h-144l-31 47q-82 -49 -191 -49t-172.5 53.5t-63.5 135.5t60 138.5t138 83.5l-29 47q-34 55 -34 100q0 62 54 98.5t122.5 36.5t116 -32.5t47.5 -85t-41.5 -87.5t-131.5 -65z
M162 315q-29 -52 -29 -115.5t44 -123t118 -59.5q36 0 83 13t74 34l-210 329q-51 -26 -80 -78zM404.5 486q22.5 30 22.5 79.5t-32.5 77.5t-71 28t-59.5 -14.5t-21 -40.5q0 -47 84 -181q55 21 77.5 51zM442 332q-20 0 -38 -11q103 -145 124 -174q10 27 10 57q0 61 -28.5 94.5
t-67.5 33.5z" />
    <glyph glyph-name="quotesingle" unicode="'" horiz-adv-x="190" 
d="M88 467q-13 0 -14.5 19t-3.5 47.5t-14.5 43t-17.5 21.5q-13 16 -13 36.5t17.5 43t45.5 22.5q72 0 72 -87q0 -47 -26.5 -96.5t-45.5 -49.5z" />
    <glyph glyph-name="parenleft" unicode="(" horiz-adv-x="347" 
d="M96 305q0 -88 23.5 -171.5t72.5 -141.5t112 -58q14 0 42 6v-24q-26 -6 -55 -6q-89 0 -148 56.5t-83 143t-24 184.5t14 166.5t43.5 122.5t79.5 84t118 30q29 0 55 -6v-24q-28 6 -42 6q-63 0 -112 -57.5t-72.5 -140t-23.5 -170.5z" />
    <glyph glyph-name="parenright" unicode=")" horiz-adv-x="347" 
d="M251 305q0 88 -23.5 170.5t-72.5 140t-112 57.5q-13 0 -42 -6v24q26 6 55 6q68 0 118 -30t80 -84q57 -105 57 -274q0 -113 -24 -199.5t-83 -143t-148 -56.5q-30 0 -55 6v24q28 -6 42 -6q63 0 112 58t72.5 141.5t23.5 171.5z" />
    <glyph glyph-name="asterisk" unicode="*" horiz-adv-x="477" 
d="M220 458l-40 1q-17 0 -49 -13t-36 -13t-8 0.5t-13.5 3t-17.5 7.5q-19 15 -19 43.5t14.5 46t40.5 17.5t66 -24t68 -52q-2 26 -13.5 54.5t-16.5 34.5t-10.5 12.5t-9.5 11.5q-10 15 -10 29.5t13.5 34t42 19.5t43 -23.5t14.5 -70t-25 -106.5q56 32 74 68.5t42.5 36.5
t43.5 -14t19 -40q0 -38 -42.5 -57.5t-79.5 -19.5t-52 4q43 -39 80 -45q18 -3 28 -6t19.5 -14t9.5 -35t-16.5 -38.5t-34.5 -14.5q-32 0 -65.5 48.5t-41.5 95.5q-8 -14 -16.5 -42.5t-8.5 -41.5l1 -24q0 -22 -13 -37t-39 -15t-40.5 20t-14.5 46.5t37 62.5t76 49z" />
    <glyph glyph-name="plus" unicode="+" horiz-adv-x="480" 
d="M211 339v176h60v-176h175v-60h-175v-176h-60v176h-177v60h177z" />
    <glyph glyph-name="comma" unicode="," horiz-adv-x="213" 
d="M36 66q0 27 19.5 46.5t51.5 19.5t51 -28t19 -64.5t-28 -71.5t-65 -35q-17 0 -17 11q0 8 9 10q48 15 48 53q-13 -8 -31.5 -8t-37.5 20t-19 47z" />
    <glyph glyph-name="hyphen" unicode="-" horiz-adv-x="404" 
d="M51 300h302v-60h-302v60z" />
    <glyph glyph-name="period" unicode="." horiz-adv-x="206" 
d="M37 64q0 27 19.5 46.5t46.5 19.5t46.5 -19.5t19.5 -46.5t-19.5 -46.5t-46.5 -19.5t-46.5 19.5t-19.5 46.5z" />
    <glyph glyph-name="slash" unicode="/" horiz-adv-x="503" 
d="M21 -49l393 779h68l-393 -779h-68z" />
    <glyph glyph-name="zero" unicode="0" horiz-adv-x="611" 
d="M112 588q30 54 82 86t119.5 32t116.5 -31t76 -85q52 -103 52 -247q0 -96 -22.5 -167.5t-59.5 -110.5q-73 -75 -175 -75t-175.5 87.5t-73.5 244t60 266.5zM197.5 100.5q45.5 -89.5 107.5 -89.5t107 90.5t45 221.5q0 92 -12 147q-4 -40 -31 -64.5t-61 -24.5t-61 22.5
t-27 54t14.5 48t24.5 16.5t10 -6q0 -3 -15 -16.5t-15 -37t20.5 -42.5t53 -19t51 33.5t18.5 91t-33.5 109t-80.5 51.5t-79 -37.5t-49 -95.5q-33 -113 -33 -238t45.5 -214.5z" />
    <glyph glyph-name="one" unicode="1" horiz-adv-x="373" 
d="M52 424h-35l239 288v-690h103v-22h-302v22h96v523z" />
    <glyph glyph-name="two" unicode="2" horiz-adv-x="544" 
d="M55 48q43 56 110 56q32 0 101.5 -18t112.5 -18t72.5 21.5t29.5 55t-17.5 51t-44 17.5t-41 -12.5t-14.5 -28t4.5 -22.5t4.5 -8q0 -6 -7 -6t-13.5 9.5t-6.5 29t20.5 38t55.5 18.5t56 -23t21 -62q0 -63 -48 -109.5t-117 -46.5q-26 0 -98.5 17t-117.5 17t-78 -25q-4 19 -4 46
t19 62t49.5 64.5t67 60t73.5 63t67 67.5q69 77 69 171q0 61 -33 107t-104.5 46t-117 -48t-45.5 -113q0 -43 21.5 -68.5t54.5 -25.5t49 16.5t16 36.5t-14 35.5t-14 18.5q0 7 11.5 7t24.5 -18.5t13 -43t-22.5 -46.5t-63 -22t-68 29.5t-27.5 81.5q0 77 58.5 128.5t150 51.5
t149.5 -49t58 -120q0 -51 -31.5 -102.5t-78.5 -92t-101.5 -82.5t-101.5 -75.5t-78.5 -70t-31.5 -66.5z" />
    <glyph glyph-name="three" unicode="3" horiz-adv-x="505" 
d="M281.5 434q43.5 42 43.5 116.5t-34 105t-82.5 30.5t-85.5 -29t-37 -69q0 -26 13.5 -42t34.5 -16t34.5 8t19.5 16.5t8 8.5q6 0 6 -8q0 -18 -23.5 -29.5t-49 -11.5t-45 21t-19.5 52q0 55 46.5 87t117 32t130 -42.5t59.5 -114.5q0 -53 -43.5 -97.5t-119.5 -66.5
q98 -6 151 -60t53 -132.5t-62.5 -140.5t-169.5 -62q-85 0 -136 39t-51 104q0 47 27 76t69 29t68 -21t26 -48t-10.5 -43t-22.5 -16t-12 7q0 2 12.5 12t12.5 34t-19 40t-53.5 16t-56.5 -23.5t-22 -71t40 -80.5t109 -33t108.5 50t39.5 124.5t-43 130.5t-119 56q0 -2 -19 -4.5
t-29 -2.5q-24 0 -24 15.5t25 15.5q13 0 28 -3.5t17 -3.5q46 3 89.5 45z" />
    <glyph glyph-name="four" unicode="4" horiz-adv-x="506" 
d="M379 22h102v-22h-302v22h96v198h-272v20l375 473v-473h92v-20h-91v-198zM275 240v306l-244 -306h244z" />
    <glyph glyph-name="five" unicode="5" horiz-adv-x="534" 
d="M96 342l-11 8v347q29 -32 66.5 -32t102 20.5t95.5 20.5q49 0 76.5 -29t27.5 -62t-20 -55t-42.5 -22t-37 11t-14.5 22t5 11t7 -7q6 -21 36 -21q17 0 33 13.5t16 30.5q0 43 -54 43q-34 0 -100 -20.5t-95 -20.5q-53 0 -82 50v-279q63 73 169 73t163.5 -59t57.5 -144
q0 -91 -67 -169q-31 -37 -81.5 -59.5t-104.5 -22.5t-94.5 12t-72 45t-31.5 86t32 84.5t70 31.5t62.5 -20.5t24.5 -47.5t-10 -44t-22.5 -17t-12.5 9q0 2 12.5 10.5t12.5 33t-19 40.5t-48.5 16t-56.5 -27.5t-27 -71t28 -72.5q47 -47 132 -47t132 70t47 152t-39.5 136.5
t-110.5 54.5q-88 0 -155 -82z" />
    <glyph glyph-name="six" unicode="6" horiz-adv-x="554" 
d="M158 308q6 -158 31 -227.5t94 -69.5q59 0 97 52t38 154.5t-25.5 145t-78.5 42.5q-85 0 -156 -97zM438.5 567.5q14.5 13.5 14.5 44t-25 52.5t-76 22t-91.5 -32.5t-61.5 -86.5q-42 -108 -42 -231q34 44 81.5 69t95.5 25q81 0 128.5 -51.5t47.5 -152t-63 -168.5t-160 -68
q-54 0 -97 24t-68.5 60t-42.5 82q-29 80 -29 155t17 139.5t50.5 123t91 95.5t125.5 37t105 -26.5t37 -66.5t-21.5 -58.5t-46 -18.5t-44 10.5t-19.5 21t9 10.5q2 0 14.5 -12t34 -12t36 13.5z" />
    <glyph glyph-name="seven" unicode="7" horiz-adv-x="443" 
d="M233 0h-113q-1 6 -1 21q0 92 30.5 176.5t73.5 145.5t86 114.5t73.5 104t30.5 91.5v7q-25 -31 -58.5 -46t-56 -15t-86.5 13.5t-100 13.5q-73 0 -73 -51q0 -27 15.5 -38.5t32 -11.5t27.5 7.5t11 18.5t-4.5 15.5t-4.5 5.5q0 6 5 6t10.5 -7t5.5 -19t-12 -26t-39 -14
q-65 0 -65 82q0 55 29.5 83.5t79.5 28.5q27 0 104.5 -15t110.5 -15t48.5 6t35.5 24q4 -22 4 -33q0 -56 -21 -104.5t-50.5 -92.5t-59 -98t-50.5 -145.5t-21 -209.5q0 -8 2 -23z" />
    <glyph glyph-name="eight" unicode="8" horiz-adv-x="584" 
d="M536 220q0 -105 -74 -167.5t-175 -62.5t-169.5 55t-68.5 160q0 82 43 134t114 72q-54 15 -86.5 50t-32.5 89q0 70 55 113t148.5 43t149 -41.5t55.5 -112.5q0 -53 -31.5 -88t-83.5 -51q70 -18 113 -66t43 -127zM291 11q84 0 119 61q31 53 31 135.5t-38 137.5t-111 55
q-136 0 -148 -183q27 41 79 41q38 0 64.5 -21t26.5 -47.5t-10 -43t-22.5 -16.5t-12.5 7q0 2 12.5 12t12.5 35.5t-21 40t-52.5 14.5t-53.5 -21.5t-22 -75t39.5 -92.5t106.5 -39zM375.5 460q25.5 37 25.5 94.5t-30 94.5t-82.5 37t-80 -36.5t-27.5 -94t25 -95t84.5 -37.5t85 37
z" />
    <glyph glyph-name="nine" unicode="9" horiz-adv-x="554" 
d="M396 391q-5 151 -34.5 223t-90.5 72q-135 0 -135 -215q0 -91 25 -133.5t79 -42.5q86 0 156 96zM116 128.5q-15 -13.5 -15 -44t24.5 -52t75.5 -21.5t91 32t62 85q43 105 43 235q-32 -44 -80.5 -69t-96.5 -25q-82 0 -129 51.5t-47 152t63.5 167t163.5 66.5q65 0 113.5 -34
t73.5 -88q46 -102 46 -212q0 -105 -43 -200q-23 -51 -55.5 -91.5t-82 -65.5t-110.5 -25t-98 26.5t-37 66.5t21.5 58.5t46 18.5t44 -10.5t19.5 -21t-9 -10.5q-2 0 -15 12t-33.5 12t-35.5 -13.5z" />
    <glyph glyph-name="colon" unicode=":" horiz-adv-x="234" 
d="M51 395q0 27 19.5 46.5t46.5 19.5t46.5 -19.5t19.5 -46.5t-19.5 -46.5t-46.5 -19.5t-46.5 19.5t-19.5 46.5zM51 67q0 27 19.5 46.5t46.5 19.5t46.5 -19.5t19.5 -46.5t-19.5 -46.5t-46.5 -19.5t-46.5 19.5t-19.5 46.5z" />
    <glyph glyph-name="semicolon" unicode=";" horiz-adv-x="243" 
d="M52 66q0 27 19.5 46.5t51.5 19.5t51 -28t19 -64.5t-28 -71.5t-65 -35q-17 0 -17 11q0 8 9 10q48 15 48 53q-13 -8 -31.5 -8t-37.5 20t-19 47zM52 395q0 27 19.5 46.5t46.5 19.5t46.5 -19.5t19.5 -46.5t-19.5 -46.5t-46.5 -19.5t-46.5 19.5t-19.5 46.5z" />
    <glyph glyph-name="less" unicode="&#x3c;" horiz-adv-x="560" 
d="M496 83l-467 217l467 219v-64l-347 -155l347 -153v-64z" />
    <glyph glyph-name="equal" unicode="=" horiz-adv-x="550" 
d="M69 410h412v-60h-412v60zM69 244h412v-60h-412v60z" />
    <glyph glyph-name="greater" unicode="&#x3e;" horiz-adv-x="560" 
d="M531 300l-467 -217v64l347 153l-347 155v64z" />
    <glyph glyph-name="question" unicode="?" horiz-adv-x="412" 
d="M96 66q0 27 19.5 46.5t46.5 19.5t46.5 -19.5t19.5 -46.5t-19.5 -46.5t-46.5 -19.5t-46.5 19.5t-19.5 46.5zM168 187h-23q-8 41 -8 86t14 81.5t34.5 55t45 35.5t45.5 29q48 30 48 85t-35 85t-94 30t-97 -27t-38 -72t23 -65.5t50 -20.5t45.5 16t18.5 37q0 25 -23 40
q-6 4 -6 9q0 8 10 8q14 0 26.5 -18.5t12.5 -46.5t-26.5 -46.5t-60 -18.5t-62 27.5t-28.5 80t44.5 85t121.5 32.5t124.5 -50t47.5 -128q0 -51 -22 -86.5t-53 -55t-62 -38.5q-75 -44 -75 -121q0 -20 2 -28z" />
    <glyph glyph-name="at" unicode="@" horiz-adv-x="770" 
d="M493 120v77q-6 -41 -43 -64t-99 -23t-117.5 41t-55.5 113q0 95 99 140q49 23 98.5 23t117.5 -35v28h90v-250q37 0 66.5 33.5t29.5 94.5q0 97 -73.5 172.5t-199.5 75.5t-214.5 -84.5t-88.5 -195.5q0 -63 29 -121.5t90 -99t142 -40.5q52 0 95.5 17t67.5 34t31.5 17t12 -11
t4.5 -19q0 -26 -67.5 -53t-145.5 -27q-139 0 -225 89.5t-86 217.5t103.5 226t243 98t238.5 -84t99 -208q0 -77 -42 -129.5t-130 -52.5h-70zM449 297q36 -25 44 -69v139q-70 40 -116.5 40t-72.5 -44t-26 -100t21.5 -94.5t65 -38.5t76.5 22.5t33 53.5q0 44 -26 66l-10 7
q-15 10 -15 18t7 8t19 -8z" />
    <glyph glyph-name="A" unicode="A" horiz-adv-x="762" 
d="M205 115l186 542q16 44 20 44q8 0 28 -55l217 -576q11 -32 50 -32q23 0 34 18q4 7 8 14.5t6 7.5q9 0 9 -12t-31 -43t-86 -31q-69 0 -92 61l-61 163h-233l-41 -119q-21 -61 -51.5 -84.5t-75.5 -23.5q-60 0 -96 45t-36 97.5t26.5 84.5t68.5 32q20 0 42 -12q33 -18 33 -38
q0 -8 -4.5 -8t-14.5 10q-29 29 -61 29t-51 -28t-19 -73.5t34 -82.5t77 -37t67.5 22.5t46.5 84.5zM372 542l-106 -307h220z" />
    <glyph glyph-name="B" unicode="B" horiz-adv-x="705" 
d="M314.5 26.5q-41.5 36.5 -51.5 96.5v-123h-101v678h-76q-47 0 -70 -21.5t-23 -50.5t14.5 -46t35.5 -17t34 11t20 22t12 11t5 -12.5t-21.5 -31.5t-52.5 -19t-49 23t-18 57.5t29.5 63t84.5 28.5h259q127 0 180 -36q48 -34 48 -97.5t-31.5 -95.5t-82.5 -52q69 0 132 -43
q33 -22 53 -64t20 -99t-23 -102t-60 -69q-70 -48 -148 -48t-119.5 36.5zM297 188q-15 -22 -15 -46t12 -52.5t45 -54t77 -25.5t74.5 20t45.5 52q28 60 28 137.5t-44 123.5t-92 46t-165 -70v-165q4 37 29 56.5t49.5 19.5t44.5 -9t20 -18q0 -4 -3.5 -7.5t-6 -3.5t-17.5 9t-41 9
t-41 -22zM263 343l123 65q88 47 88 149q0 80 -42 103q-34 18 -96 18h-73v-335z" />
    <glyph glyph-name="C" unicode="C" horiz-adv-x="585" 
d="M515 89l20 1q-21 -44 -66 -72t-117 -28t-135 33.5t-99 88.5q-70 108 -70 235q0 85 33 165.5t101 136.5t156 56q116 0 179 -74q34 -40 34 -94t-29.5 -80.5t-62.5 -26.5t-59 18.5t-26 52.5q0 19 12 39t24 20t12 -8q0 -1 -14.5 -15t-14.5 -35.5t19 -37t46.5 -15.5t50 21.5
t22.5 60.5q0 67 -54.5 110t-117.5 43t-113 -52.5t-74 -127t-24 -149.5t11.5 -133.5t36.5 -107.5t70.5 -76.5t97.5 -27.5t94 23.5t57 55.5z" />
    <glyph glyph-name="D" unicode="D" horiz-adv-x="725" 
d="M262 0l-100 -1v678h-76q-47 0 -70 -21t-23 -49.5t13 -46t36.5 -17.5t36 11t18 22t11.5 11t6 -15t-22.5 -31.5t-52.5 -16.5t-48 23t-18 57.5t29.5 63t84.5 28.5h274q96 0 168.5 -51.5t108.5 -134t36 -182.5q0 -136 -65.5 -236.5t-173.5 -100.5q-68 0 -117 33t-56 90v-114z
M572 265.5q2 29.5 2 74.5t-14 105.5t-41.5 113.5t-75 85t-108.5 32h-73v-533q4 38 28.5 57.5t50 19.5t45 -9t19.5 -18q0 -4 -3.5 -7.5t-6 -3.5t-17.5 9t-41 9t-41 -22.5t-15 -46.5q0 -48 40.5 -84t105.5 -36q39 0 68 27.5t43.5 64t23 85t10.5 78z" />
    <glyph glyph-name="E" unicode="E" horiz-adv-x="566" 
d="M317 414l53 4q21 0 21 -13q0 -17 -24.5 -17t-48.5 6q-72 -22 -123 -72.5t-51 -132.5t55 -131t128 -49q64 0 123 33q29 16 48 46t19 69q0 58 -38.5 91.5t-80.5 33.5q-93 0 -93 -63q0 -20 12.5 -30.5t12.5 -12.5q0 -6 -12.5 -6t-22 16t-9.5 39.5t27 49t78.5 25.5
t98.5 -36.5t47 -111.5t-65.5 -118.5t-161.5 -43.5q-66 0 -125.5 22t-100 68.5t-40.5 107.5q0 78 58 128t154 84q-68 5 -116.5 43.5t-48.5 91.5t41 93t93.5 59t86.5 19t58 -4t53 -14.5t47.5 -32.5t18.5 -54.5t-19.5 -49.5t-48.5 -17t-51 16.5t-22 31.5t6 15t10.5 -7
t8.5 -15.5t16 -15.5t32 -7t34 12.5t14 35.5q0 39 -37.5 62.5t-97.5 23.5t-102 -38.5t-42 -93.5t35.5 -89.5t91.5 -50.5z" />
    <glyph glyph-name="F" unicode="F" horiz-adv-x="672" 
d="M518 703q-106 0 -175 -71v-285h83q65 0 65 -9q0 -11 -65 -11h-83v-157q0 -82 -45.5 -131t-116 -49t-106.5 45.5t-36 98.5t25.5 75.5t47 22.5t36.5 -9t15 -20t-5 -11t-13 11t-32 11t-39 -22.5t-15 -65t32.5 -79t69.5 -36.5t59.5 32.5t22.5 90.5v430q-50 -27 -91 -27
t-69.5 27.5t-28.5 62t17.5 56.5t50.5 22t52 -14t19 -28.5t-6 -14.5t-11 9q-18 28 -45 28t-42 -14.5t-15 -43.5t21 -49.5t66 -20.5t95.5 36t85.5 63q92 73 186 73q65 0 100 -38.5t35 -92t-31 -83.5t-64 -30t-52 19t-19 41t10 36t22.5 14t12.5 -7q0 -4 -6 -7q-19 -9 -19 -32.5
t17 -33.5t40 -10t46 24t23 69.5t-36.5 75t-88.5 29.5z" />
    <glyph glyph-name="G" unicode="G" horiz-adv-x="610" 
d="M432 379h99v-395q0 -61 -21 -108t-54 -74q-67 -52 -141.5 -52t-125 48t-50.5 107q0 40 24.5 65.5t47.5 25.5t37.5 -9t14.5 -20t-4.5 -11t-13 10t-33 10t-40 -21.5t-15.5 -51.5q0 -55 49 -94.5t90 -39.5q20 0 32 1t34 11t35.5 28.5t24 56.5t10.5 92v197q-53 -64 -122 -64
q-106 0 -181.5 88.5t-75.5 213.5q0 110 61 205q30 48 84.5 78t125.5 30q94 0 157 -51t63 -127q0 -53 -29.5 -79.5t-62 -26.5t-59 18.5t-26.5 46.5t12 46.5t24.5 18.5t12.5 -6t-14.5 -21t-14.5 -33.5t18 -34t46 -15.5t50.5 21t22.5 61q0 65 -55 113.5t-118 48.5t-104 -32.5
t-60 -83.5q-34 -93 -34 -196t47 -183t114.5 -80t117.5 73v195z" />
    <glyph glyph-name="H" unicode="H" horiz-adv-x="735" 
d="M539 696h101v-738q0 -48 50 -48q20 0 30.5 8.5t11.5 8.5q7 0 7 -7.5t-5 -13.5q-13 -16 -61.5 -16t-91 28.5t-42.5 80.5v355h-230v-184q0 -82 -45.5 -131t-116 -49t-106.5 45.5t-36 98.5t26.5 75.5t47 22.5t35.5 -9t15 -20t-5 -11t-7.5 3.5t-4.5 7.5q-7 11 -32 11
t-40.5 -22.5t-15.5 -65t33 -79t70 -36.5t59.5 32.5t22.5 90.5v542h-76q-47 0 -70 -20.5t-23 -48t14 -45.5t37.5 -18t34.5 11t17 21.5t12 10.5t6 -15t-22.5 -31.5t-52.5 -16.5t-48 23t-18 57.5t29.5 63t84.5 28.5h175v-322h230v322z" />
    <glyph glyph-name="I" unicode="I" horiz-adv-x="357" 
d="M262 0h-100v676h-76q-47 0 -70 -20.5t-23 -48.5t14 -45.5t37.5 -17.5t34.5 11t17 21.5t12 10.5t6 -15t-22.5 -31.5t-52.5 -16.5t-48 23t-18 57.5t29.5 63t84.5 28.5h175v-696z" />
    <glyph glyph-name="J" unicode="J" horiz-adv-x="444" 
d="M249 -42v718h-76q-47 0 -70 -20.5t-23 -48.5t14 -45.5t37.5 -17.5t34.5 11t17 21.5t12 10.5t6 -15t-22.5 -31.5t-52.5 -16.5t-48 23t-18 57.5t29.5 63t84.5 28.5h175v-712q0 -61 -21 -108t-55 -74q-67 -52 -141.5 -52t-125 48t-50.5 107q0 40 24.5 65.5t47.5 25.5
t37.5 -9t14.5 -20t-4.5 -11t-13 10t-33 10t-40 -21.5t-15.5 -51.5q0 -55 49 -94.5t90 -39.5q20 0 32 1t34 11t35.5 28.5t24 56.5t10.5 92z" />
    <glyph glyph-name="K" unicode="K" horiz-adv-x="747" 
d="M618 -10q-55 0 -89 36t-49.5 88.5t-28.5 105.5q-32 132 -100 142l-89 -105v-257h-100v676h-76q-47 0 -70 -20.5t-23 -48.5t14 -45.5t37.5 -17.5t34.5 11t17 21.5t12 10.5t6 -15t-22.5 -31.5t-52.5 -16.5t-48 23t-18 57.5t29.5 63t84.5 28.5h175v-407l250 292
q98 115 194 115q19 0 19 -9q0 -12 -12 -12q-26 0 -47 -4.5t-60 -30.5t-80 -74l-160 -187q20 2 30 2q51 0 86.5 -27.5t50.5 -68t27 -88.5t19 -89q17 -95 67 -95q21 0 39 12.5t28 25.5t14 13t4 -4.5t-3 -10.5q-30 -59 -110 -59z" />
    <glyph glyph-name="L" unicode="L" horiz-adv-x="530" 
d="M433 -216q36 0 63 21.5t27 47.5q0 58 -48 58q-23 0 -26.5 -13.5t-10.5 -13.5t-7 12.5t17 23.5t38.5 11t39 -20t17.5 -53.5t-26 -63.5t-76.5 -30t-86 26.5t-53.5 60t-44 78.5t-48 69t-40.5 30.5t-41.5 8t-23 9.5q0 11 29.5 11t73.5 -22v641h-77q-47 0 -70 -20.5t-23 -48
t14 -45.5t37.5 -18t34.5 11t17 21.5t12 10.5t6 -15t-22.5 -31.5t-52.5 -16.5t-48 23t-18 57.5t29.5 63t84.5 28.5h175v-721q0 -72 33.5 -131.5t93.5 -59.5z" />
    <glyph glyph-name="M" unicode="M" horiz-adv-x="890" 
d="M683 694h114v-734q0 -48 50 -48q20 0 30.5 8.5t11.5 8.5q7 0 7 -7.5t-5 -13.5q-13 -16 -61.5 -16t-91 28.5t-42.5 80.5v662l-195 -661q-2 -11 -10.5 -11t-12.5 13l-195 655v-435q0 -113 -48.5 -171.5t-113.5 -58.5t-109.5 38t-44.5 93.5t26.5 78t47 22.5t35.5 -9t15 -20
t-5 -11t-7.5 3t-4.5 7q-7 10 -32.5 10t-40.5 -21.5t-15 -54.5q0 -54 39.5 -85.5t93.5 -31.5t99 50t45 135v478h-79q-47 0 -70 -20.5t-23 -48t14 -45.5t37.5 -18t34.5 11t17 21.5t12 10.5t6 -15t-22.5 -31.5t-52.5 -16.5t-48 23t-18 57.5t29.5 63t84.5 28.5h194l152 -519z
" />
    <glyph glyph-name="N" unicode="N" horiz-adv-x="887" 
d="M262 198l1 478h-79q-47 0 -70 -20.5t-23 -48t14 -45.5t37.5 -18t34.5 11t17 21.5t12 10.5t6 -15t-22.5 -31.5t-52.5 -16.5t-48 23t-18 57.5t29.5 63t84.5 28.5h174l263 -461v275q0 236 163 236q61 0 105.5 -38t44.5 -93.5t-26.5 -78t-47 -22.5t-35.5 9t-15 20t5 11
t7.5 -3.5t4.5 -6.5q8 -11 32 -11t39.5 22t15.5 55q0 53 -36.5 84.5t-87.5 31.5q-31 0 -54 -7.5t-46 -28.5q-47 -41 -47 -178v-507q0 -11 -10 -11q-6 0 -13 13l-338 630v-413q0 -113 -48.5 -171.5t-113.5 -58.5t-109.5 38t-44.5 93.5t26.5 78t47 22.5t35.5 -9t15 -20t-5 -11
t-7.5 3t-4.5 7q-7 10 -32.5 10t-40.5 -21.5t-15 -54.5q0 -54 39.5 -85.5t93.5 -31.5t98.5 50t44.5 135z" />
    <glyph glyph-name="O" unicode="O" horiz-adv-x="697" 
d="M68.5 206q-20.5 62 -20.5 129.5t20.5 130.5t57.5 117t96.5 88.5t139 34.5t148.5 -56t103.5 -140.5t34.5 -174t-29.5 -157.5t-75.5 -108q-94 -80 -196 -80q-81 0 -155 49q-40 27 -71.5 66t-52 101zM433 410l-29 6q-20 0 -33 -17t-13 -37.5t18.5 -44t60.5 -23.5t73.5 38.5
t31.5 128.5t-51 157.5t-147 67.5q-49 0 -85 -19.5t-57 -50.5t-34 -79q-20 -79 -20 -206q0 -321 192 -321q108 0 158 78t50 230q0 23 -1 34q-9 -26 -41.5 -52t-71.5 -26t-67.5 26.5t-28.5 59.5t18 54.5t51.5 21.5t33.5 -19q0 -7 -8 -7z" />
    <glyph glyph-name="P" unicode="P" horiz-adv-x="660" 
d="M87 696h282q126 0 195 -72.5t69 -167.5t-57.5 -160.5t-158.5 -65.5q-51 0 -98.5 30.5t-56.5 84.5v-345h-100v676h-76q-47 0 -70 -20.5t-23 -48t14 -45.5t37.5 -18t34.5 11t17 21.5t12 10.5t6 -15t-22.5 -31.5t-52.5 -16.5t-48 23t-18 57.5t29.5 63t84.5 28.5zM293 451.5
q24 18.5 47.5 18.5t43 -9t19.5 -18q0 -4 -3.5 -7.5t-6 -3.5t-17.5 9t-40 9t-41 -21t-16 -51q0 -48 38.5 -88.5t100.5 -40.5t95.5 55.5t33.5 142t-44 158t-120 71.5h-121v-281q7 38 31 56.5z" />
    <glyph glyph-name="Q" unicode="Q" horiz-adv-x="698" 
d="M48 339q0 82 35 167.5t106 142.5t161.5 57t160 -56.5t103.5 -141t34 -171t-25 -149t-66 -100.5q-81 -74 -175 -86v-34q0 -49 15 -87t38 -58q45 -39 86 -39t87.5 32t46.5 87q0 31 -15 52t-39 21t-32.5 -10t-13 -10t-4.5 11t15 20t32 9q34 0 55.5 -24.5t21.5 -65.5
q0 -57 -49.5 -100t-122.5 -43q-79 0 -145 51q-33 26 -54 72.5t-21 107.5v14q-90 22 -158 96q-77 82 -77 235zM433 410l-29 6q-20 0 -33 -17t-13 -37.5t18.5 -44t60.5 -23.5t73.5 38t31.5 128t-51 158.5t-146 68.5q-47 0 -83 -18.5t-57 -49t-35 -75.5q-22 -76 -22 -195
q0 -181 48 -255t151 -74t152 73.5t49 224.5q0 23 -1 34q-9 -26 -41.5 -52t-71.5 -26t-67.5 26.5t-28.5 59.5t18 54.5t51.5 21.5t33.5 -19q0 -7 -8 -7z" />
    <glyph glyph-name="R" unicode="R" horiz-adv-x="687" 
d="M87 696h262q276 0 276 -191q0 -83 -47 -125t-117 -54q73 -1 110.5 -46t37.5 -113v-210q0 -48 49 -48q12 0 21 3.5t11 3.5q8 0 8 -9q0 -18 -53 -18t-95 30t-42 84v78q0 149 -23 192q-9 17 -16 26t-22 14t-54 7q-125 5 -131 109v-429h-100v676h-76q-47 0 -70 -20.5t-23 -48
t14 -45.5t37.5 -18t34.5 11t17 21.5t12 10.5t6 -15t-22.5 -31.5t-52.5 -16.5t-48 23t-18 57.5t29.5 63t84.5 28.5zM291.5 526q28.5 24 55.5 24t46.5 -9t19.5 -18q0 -4 -3.5 -7.5t-6 -3.5t-17.5 9t-39 9t-45 -19.5t-21 -64t31 -76t94 -31.5t96.5 33t33.5 124.5t-42 135.5
t-131 44h-101v-229q1 55 29.5 79z" />
    <glyph glyph-name="S" unicode="S" horiz-adv-x="535" 
d="M179 343q-56 19 -83 57t-27 104q0 92 70 147.5t142.5 55.5t128 -32.5t55.5 -88.5q0 -34 -21 -52t-50.5 -18t-47 16.5t-17.5 31t5.5 14.5t9.5 -6.5t7 -14.5q8 -21 34.5 -21t42 13t15.5 37q0 44 -49 72t-111 28t-116 -38t-54 -96q0 -39 27.5 -64.5t62 -36.5t90 -26
t86.5 -29q108 -48 108 -173q0 -63 -23.5 -111t-59.5 -73q-71 -48 -143 -48q-66 0 -136 41q-34 20 -56 56t-22 84.5t26.5 71t47 22.5t35.5 -9t15 -20t-5 -11t-7.5 3t-4.5 7q-7 10 -32.5 10t-41 -21.5t-15.5 -54.5q0 -72 61 -115.5t131 -43.5q96 0 153 65q33 39 33 100
t-41.5 91.5t-116.5 48t-106 27.5z" />
    <glyph glyph-name="T" unicode="T" horiz-adv-x="554" 
d="M344 0h-99v676h-127q-47 0 -70 -20.5t-23 -48t14 -45.5t37.5 -18t34.5 11t17 21.5t12 10.5t6 -15t-22.5 -31.5t-52.5 -16.5t-48 23t-18 57.5t29.5 63t84.5 28.5h425v-20h-200v-676z" />
    <glyph glyph-name="U" unicode="U" horiz-adv-x="747" 
d="M86 696h175v-476q0 -101 30 -155.5t107 -54.5q147 0 147 211q0 74 -28.5 184.5t-28.5 159.5q0 95 41.5 148t102 53t92 -32t31.5 -88t-27.5 -79t-48 -23t-35.5 9t-15 20t5 11t7.5 -3t4.5 -7q7 -10 32.5 -10t41 21.5t15.5 54.5q0 106 -100 106q-53 0 -90 -46t-37 -136
q0 -51 28.5 -161t28.5 -187q0 -225 -185 -225q-81 0 -144 41q-35 22 -55.5 68t-20.5 111v465h-75q-47 0 -70 -20.5t-23 -48.5t13.5 -45.5t37.5 -17.5t35 11t17 21.5t12 10.5t6 -15t-22.5 -31.5t-52.5 -16.5t-48 23t-18 57.5t29.5 63t84.5 28.5z" />
    <glyph glyph-name="V" unicode="V" horiz-adv-x="685" 
d="M463 51.5q-57 -61.5 -117 -61.5t-100.5 55t-40.5 127q0 24 11.5 120.5t11.5 150.5q0 104 -30.5 160.5t-69.5 56.5t-74.5 -45t-35.5 -84q0 -24 13 -46t45 -22q15 0 28 7t14 7q7 0 7 -11t-18.5 -17t-35.5 -6q-33 0 -53 27.5t-20 61.5q0 62 63 118t123.5 56t101.5 -69
t41 -185q0 -44 -14 -162t-14 -171.5t11 -81t42 -27.5q52 0 103 61t85.5 147t56 175.5t21.5 152.5t-25.5 101.5t-76 38.5t-85.5 -36.5t-35 -81.5q0 -23 14 -42t37 -19q9 0 22.5 4t15.5 4q8 0 8 -9q0 -17 -31 -18l-11 -1q-36 0 -55.5 24.5t-19.5 61.5q0 59 46 96t99.5 37
t85 -43.5t31.5 -116t-22 -165t-59 -180.5t-94 -149.5z" />
    <glyph glyph-name="W" unicode="W" horiz-adv-x="918" 
d="M508 300l93 -2l-3 -4q0 -16 -5 -61t-5 -93t17 -89t57 -41t77 48t59 119q47 152 47 261.5t-38 178.5t-98 69t-92.5 -32.5t-32.5 -85.5q0 -23 14 -42t37 -19q9 0 22.5 4t15.5 4q8 0 8 -9q0 -17 -31 -18l-11 -1q-36 0 -55.5 25t-19.5 62q0 62 43 97t107 35t107.5 -71
t43.5 -184q0 -133 -52 -287q-25 -74 -68 -124t-97 -50t-96 50t-49 117q-31 -75 -76.5 -121t-102.5 -46t-96.5 56.5t-39.5 121.5q0 29 21.5 123.5t21.5 174.5t-30.5 132t-69 52t-74.5 -46t-36 -84q0 -23 13 -45t45 -22q15 0 28 7t14 7q7 0 7 -11.5t-19.5 -17t-36.5 -5.5
q-31 0 -51 27.5t-20 61.5q0 62 63 118t124.5 56t101.5 -66t40 -153t-29.5 -213t-29.5 -160.5t16 -64t48 -29.5q47 0 88 51.5t62 117.5t23 121z" />
    <glyph glyph-name="X" unicode="X" horiz-adv-x="779" 
d="M410 396l127 185q40 51 90.5 83t103.5 32q11 0 15 -2.5t4 -9.5q0 -15 -12 -15q-72 0 -126 -47q-27 -24 -56 -62l-129 -189l132 -203q29 -51 54.5 -84t37 -40t22.5 -7q23 0 38 22t15 51t-13 51t-45 22q-15 0 -28 -7t-14 -7q-7 0 -7 11.5t19.5 17t35.5 5.5q32 0 52 -27
t20 -62q0 -62 -42 -88t-100 -26q-33 0 -58.5 25.5t-53.5 68.5l-123 193l-118 -172q-91 -118 -192 -118q-13 0 -17 2.5t-4 10.5q0 14 16 14.5t29.5 2.5t38.5 11q48 19 109 97l122 177l-140 216q-29 51 -54.5 84t-37 40t-22.5 7q-23 0 -38 -22t-15 -51t13 -51t45 -22
q15 0 28 7t14 7q7 0 7 -11.5t-19.5 -17t-35.5 -5.5q-32 0 -52 27t-20 62q0 62 42 88t100 26q33 0 58.5 -25.5t53.5 -68.5z" />
    <glyph glyph-name="Y" unicode="Y" horiz-adv-x="661" 
d="M346 230q-98 0 -140 71q-23 38 -27 71q-5 40 -5 74.5t-0.5 57t-3 56t-8 51t-14.5 35.5q-18 34 -58 34t-58 -25.5t-18 -52.5t13 -49t45 -22q15 0 28 7t14 7q7 0 7 -11t-18.5 -17t-35.5 -6q-32 0 -52.5 25.5t-20.5 57.5q0 53 32.5 82.5t79 29.5t90 -33.5t56.5 -84.5
q17 -63 17 -210q2 -70 19.5 -99t64.5 -29q89 0 145 84.5t56 198.5q0 62 -27.5 102.5t-77 40.5t-80 -30.5t-30.5 -77.5q0 -23 14 -42t37 -19q9 0 22.5 4t15.5 4q8 0 8 -9q0 -17 -32 -18l-10 -1q-36 0 -55.5 25t-19.5 62q0 55 35.5 89t88.5 34q77 0 107.5 -60t30.5 -165v-299
q0 -82 -62 -132.5t-144.5 -50.5t-140.5 45t-58 115q0 24 7 40t17 16q8 0 8 -8t-6 -23.5t-6 -29.5q0 -54 46.5 -94t103.5 -40t94.5 49.5t37.5 110.5v109q-65 -50 -132 -50z" />
    <glyph glyph-name="Z" unicode="Z" horiz-adv-x="643" 
d="M165 21l249 -1q84 0 128.5 44t44.5 102.5t-30.5 97.5t-82.5 39q-34 0 -56 -15.5t-22 -44.5q0 -27 15 -33q5 -2 5 -4q0 -9 -7 -9q-15 0 -24 14.5t-9 35.5t22.5 47.5t78.5 26.5t93.5 -43.5t37.5 -111t-52 -117t-168 -49.5h-359q-7 0 -7 7t9 16l402 651h-271
q-47 0 -70 -20.5t-23 -47.5t12.5 -45t36.5 -18t37.5 10.5t17.5 21.5t8 11q9 0 9 -6q0 -24 -22.5 -40.5t-53 -16.5t-48 23t-17.5 57.5t29.5 63.5t84.5 29h406q8 0 8 -4t-10 -19z" />
    <glyph glyph-name="bracketleft" unicode="[" horiz-adv-x="264" 
d="M68 -147v870h185v-60h-125v-750h125v-60h-185z" />
    <glyph glyph-name="backslash" unicode="\" horiz-adv-x="503" 
d="M89 730l393 -779h-68l-393 779h68z" />
    <glyph glyph-name="bracketright" unicode="]" horiz-adv-x="264" 
d="M196 -147h-185v60h125v750h-125v60h185v-870z" />
    <glyph glyph-name="asciicircum" unicode="^" horiz-adv-x="603" 
d="M295 694l277 -277h-85l-192 177l-184 -176h-85z" />
    <glyph glyph-name="underscore" unicode="_" horiz-adv-x="814" 
d="M128 -140h558v-60h-558v60z" />
    <glyph glyph-name="grave" unicode="`" horiz-adv-x="192" 
d="M125 594l-114 120h100l63 -120h-49z" />
    <glyph glyph-name="a" unicode="a" 
d="M206 -10q-72 0 -127.5 40.5t-55.5 112.5q0 42 20.5 73t52.5 46q59 30 115 30t127 -30q-1 116 -28.5 154.5t-84.5 38.5t-98.5 -21t-41.5 -56q0 -12 -10.5 -12t-10.5 11q0 42 46.5 69.5t137.5 27.5q190 0 190 -224v-250h-100v79q-7 -39 -45 -64t-87 -25zM294 177
q36 -25 44 -69v136q-72 29 -117.5 29t-71.5 -38t-26 -93t21.5 -93.5t65 -38.5t76.5 22.5t33 53.5q0 54 -36 74q-15 9 -15 17t7 8t19 -8z" />
    <glyph glyph-name="b" unicode="b" horiz-adv-x="538" 
d="M164 750v-344q89 66 156 66q59 0 115 -48q30 -25 49 -75.5t19 -118.5q0 -114 -53.5 -177t-144.5 -63q-56 0 -95.5 22.5t-45.5 66.5v-79h-100v750h100zM403 243q0 88 -35.5 146.5t-80.5 58.5t-123 -65v-274q3 25 17 44q24 33 46 33q8 0 8 -10q0 -5 -18 -17
q-34 -24 -34 -61.5t35.5 -62.5t74.5 -25q110 0 110 233z" />
    <glyph glyph-name="c" unicode="c" horiz-adv-x="453" 
d="M392 99h29q-22 -45 -65.5 -77t-108.5 -32q-103 0 -159 73t-56 175t70 168.5t158 66.5q62 0 111 -37t49 -94q0 -39 -23 -64.5t-57.5 -25.5t-61 18.5t-26.5 46t10 43.5q14 22 26.5 22t12.5 -8q0 -5 -5 -8q-24 -16 -24 -40t19.5 -39t43 -15t44.5 16t21 56.5t-39.5 75
t-92.5 34.5q-68 0 -102 -57.5t-34 -158t32 -164t98 -63.5q40 0 77 27t53 61z" />
    <glyph glyph-name="d" unicode="d" horiz-adv-x="538" 
d="M374 0v57q-87 -67 -156 -67q-57 0 -115 48q-30 25 -49 76t-19 119q0 114 53.5 177t144.5 63q51 0 91 -23t50 -64v364h100v-750h-100zM135 220q0 -88 35.5 -144.5t80.5 -56.5t123 63v254q-7 -30 -28.5 -48t-32.5 -18q-8 0 -8 10q0 5 18 17q34 24 34 61.5t-36.5 66
t-75.5 28.5q-110 0 -110 -233z" />
    <glyph glyph-name="e" unicode="e" horiz-adv-x="464" 
d="M228.5 18q21.5 -7 52.5 -7t66 14.5t49 43.5h29q-39 -79 -164 -79q-96 0 -162.5 68.5t-66.5 172t70 173t152.5 69.5t130 -45.5t47.5 -107.5t-51 -110t-134 -48t-116 71q1 -7 2.5 -30t2.5 -36t5.5 -36t10 -37t16.5 -31.5t25 -27.5t35.5 -17zM346 325q0 129 -98 129
q-48 0 -78.5 -46.5t-34.5 -112.5q12 28 36.5 45t51 17t26.5 -9.5t-12 -9.5q-46 -3 -67.5 -23t-21.5 -54t24.5 -57.5t57.5 -23.5q54 0 85 43.5t31 101.5z" />
    <glyph glyph-name="f" unicode="f" horiz-adv-x="338" 
d="M208 401v-401h-100v401h-101v20h101v97q0 110 65.5 171t135.5 61q46 0 80.5 -28t34.5 -72t-26.5 -67.5t-59 -23.5t-55 17.5t-22.5 41t7.5 39.5t17.5 16t10 -7q0 -3 -7.5 -12.5t-7.5 -30.5t19 -33t42.5 -12t42.5 20.5t19 54t-30 56t-69 22.5q-56 0 -76.5 -55.5
t-20.5 -183.5v-71h100v-20h-100z" />
    <glyph glyph-name="g" unicode="g" horiz-adv-x="518" 
d="M354 408v55h100v-492q0 -61 -21 -106t-55 -69q-65 -46 -139 -46t-108.5 31.5t-34.5 70.5t22 65t50.5 26t42.5 -9t14 -20t-5 -11t-8 5q-9 15 -35.5 15t-43.5 -19t-17 -51.5t27.5 -57.5t76.5 -25q41 0 80 27q24 16 39 54t15 94v137q-8 -43 -44.5 -67.5t-86.5 -24.5
q-89 0 -138 66.5t-49 182.5q0 70 17.5 119.5t46.5 72.5q52 42 112 42t142 -65zM136 234q0 -66 12 -120q23 -104 90 -104q41 0 70 28.5t29 70.5q0 39 -40 65q-13 9 -13 13q0 9 6.5 9t18.5 -6.5t26 -23.5t19 -41v262q-73 63 -117 63t-72.5 -55.5t-28.5 -160.5z" />
    <glyph glyph-name="h" unicode="h" horiz-adv-x="534" 
d="M195.5 267.5q12.5 -22.5 35 -22.5t35 5.5t14.5 5.5q6 0 6 -8t-11.5 -15.5t-41 -7.5t-48.5 24t-22 53v-302h-99v750h99v-433q4 63 62 109.5t121 46.5q66 0 97.5 -45.5t31.5 -193.5v-234h-100v208q0 118 -12.5 176t-47.5 58q-44 0 -88 -41t-44 -87q0 -24 12.5 -46.5z" />
    <glyph glyph-name="i" unicode="i" horiz-adv-x="228" 
d="M164 462v-463h-100v463h100zM61 594q0 22 15.5 37.5t37.5 15.5t37.5 -15.5t15.5 -37.5t-15.5 -37.5t-37.5 -15.5t-37.5 15.5t-15.5 37.5z" />
    <glyph glyph-name="j" unicode="j" horiz-adv-x="228" 
d="M62 594q0 22 15.5 37.5t37.5 15.5t37.5 -15.5t15.5 -37.5t-15.5 -37.5t-37.5 -15.5t-37.5 15.5t-15.5 37.5zM64 -55v518h100v-492q0 -61 -21 -106t-55 -69q-65 -46 -139 -46t-108.5 31.5t-34.5 70.5t22 65t50.5 26t42.5 -9t14 -20t-5 -11t-8 5q-9 15 -35.5 15t-43.5 -19
t-17 -51.5t27.5 -57.5t76.5 -25q41 0 80 27q24 16 39 54t15 94z" />
    <glyph glyph-name="k" unicode="k" horiz-adv-x="500" 
d="M456 -90q-54 0 -83.5 35.5t-38 87.5t-14.5 105q-13 131 -78 143l-78 -103v-178h-100v750h100v-539l126 167q38 51 89 83t105 32q19 0 19 -9q0 -12 -12 -12q-28 0 -48.5 -3.5t-60.5 -29.5t-78 -76l-49 -64q22 2 29 2q51 0 82.5 -27.5t41 -68.5t15 -89.5t7 -89.5
t14.5 -68.5t37 -27.5t42 13.5t28 27t14 13.5t4 -4.5t-3 -10.5q-30 -59 -110 -59z" />
    <glyph glyph-name="l" unicode="l" horiz-adv-x="296" 
d="M105 32v664h100v-721q0 -83 75 -86q5 0 8.5 -4t3.5 -10t-4 -6q-34 0 -62 14t-43 28.5t-39 44.5t-41 48t-35.5 24.5t-41.5 8t-23 9.5q0 11 30.5 11t71.5 -25z" />
    <glyph glyph-name="m" unicode="m" horiz-adv-x="843" 
d="M195.5 267.5q12.5 -22.5 35 -22.5t35 5.5t14.5 5.5q6 0 6 -8t-11.5 -15.5t-41 -7.5t-48.5 24t-22 53v-302h-99v463h99v-146q4 63 62 109.5t121.5 46.5t91 -38.5t34.5 -110.5q4 60 62.5 104.5t120.5 44.5q66 0 97.5 -45.5t31.5 -193.5v-234h-100v208q0 118 -12.5 176
t-47.5 58q-44 0 -88 -41t-44 -87q0 -24 12.5 -46.5t40.5 -22.5q17 0 29.5 5.5t14.5 5.5q6 0 6 -8t-11.5 -15.5t-39 -7.5t-46.5 19.5t-24 50.5q1 -19 1 -61v-234h-100v208q0 118 -12.5 176t-47.5 58q-44 0 -88 -41t-44 -87q0 -24 12.5 -46.5z" />
    <glyph glyph-name="n" unicode="n" horiz-adv-x="534" 
d="M195.5 267.5q12.5 -22.5 35 -22.5t35 5.5t14.5 5.5q6 0 6 -8t-11.5 -15.5t-41 -7.5t-48.5 24t-22 53v-302h-99v463h99v-146q4 63 62 109.5t121 46.5q66 0 97.5 -45.5t31.5 -193.5v-234h-100v208q0 118 -12.5 176t-47.5 58q-44 0 -88 -41t-44 -87q0 -24 12.5 -46.5z" />
    <glyph glyph-name="o" unicode="o" horiz-adv-x="565" 
d="M32 231q0 102 70.5 171t181 69t179.5 -65t69 -171q0 -63 -24 -111.5t-62 -75.5q-78 -53 -163 -53q-83 0 -162 55q-39 27 -64 74.5t-25 106.5zM317 295l-29 6q-19 0 -32.5 -16.5t-13.5 -39t20 -44.5t56.5 -22t72 35.5t35.5 100.5t-41.5 100.5t-104.5 35.5q-40 0 -69 -15.5
t-44 -37.5t-23 -56q-12 -50 -12 -116q0 -211 154 -211q91 0 120 69q25 59 25 153q-9 -26 -41.5 -52t-71.5 -26t-67.5 26.5t-28.5 59.5t18 54.5t51.5 21.5t33.5 -19q0 -7 -8 -7z" />
    <glyph glyph-name="p" unicode="p" horiz-adv-x="538" 
d="M164 463v-57q89 66 156 66q59 0 115 -48q30 -25 49 -75.5t19 -118.5q0 -114 -53.5 -177t-144.5 -63q-56 0 -95.5 22.5t-45.5 66.5v-329h-100v713h100zM403 243q0 88 -35.5 146.5t-80.5 58.5t-123 -65v-274q3 25 17 44q24 33 46 33q8 0 8 -10q0 -5 -18 -17
q-34 -24 -34 -61.5t35.5 -62.5t74.5 -25q110 0 110 233z" />
    <glyph glyph-name="q" unicode="q" horiz-adv-x="538" 
d="M374 -250v307q-87 -67 -156 -67q-57 0 -115 48q-30 25 -49 76t-19 119q0 114 53.5 177t144.5 63q51 0 91 -23t50 -64v77h100v-713h-100zM135 220q0 -88 35.5 -144.5t80.5 -56.5t123 63v254q-7 -30 -28.5 -48t-32.5 -18q-8 0 -8 10q0 5 18 17q34 24 34 61.5t-36.5 66
t-75.5 28.5q-110 0 -110 -233z" />
    <glyph glyph-name="r" unicode="r" horiz-adv-x="386" 
d="M392 425q0 -11 -8.5 -17t-21.5 -6t-21 7.5t-10.5 16.5t-12.5 16.5t-28 7.5q-44 0 -82 -64t-44 -145v-241h-100v463h100v-118q24 58 62.5 96.5t77.5 38.5t63.5 -13.5t24.5 -41.5z" />
    <glyph glyph-name="s" unicode="s" horiz-adv-x="438" 
d="M93 23.5q-60 33.5 -60 93.5q0 16 8 30t20.5 14t19.5 -8t7 -16t-10 -22.5t-10 -23.5q0 -31 53 -56t101.5 -25t94 32t45.5 81q0 45 -50 63q-32 13 -109 25.5t-120 41.5t-43 90q0 37 19 64t49 41q59 27 116.5 27t102 -20t58.5 -50q6 -14 6 -24q0 -24 -25 -24q-27 0 -28 33
q-2 37 -29 51q-34 14 -85.5 14t-94.5 -24.5t-43 -62.5q0 -46 83 -52q83 -5 154 -29q36 -12 59.5 -45.5t23.5 -81t-17 -80.5t-45 -52q-56 -38 -123.5 -38t-127.5 33.5z" />
    <glyph glyph-name="t" unicode="t" horiz-adv-x="335" 
d="M0 443v20h92v137h100v-137h105v-20h-105v-309q0 -124 54 -124q21 0 39 13.5t28 27t14 13.5t4 -4.5t-3 -10.5q-30 -59 -110 -59q-64 0 -95 49t-31 131v273h-92z" />
    <glyph glyph-name="u" unicode="u" horiz-adv-x="533" 
d="M337.5 195.5q-12.5 22.5 -35 22.5t-35 -5.5t-14.5 -5.5q-6 0 -6 8t11.5 15.5t41 7.5t49 -25t21.5 -55v305h99v-463h-99v146q-4 -63 -62 -109.5t-121 -46.5q-66 0 -97.5 45.5t-31.5 193.5v234h100v-208q0 -118 12.5 -176t47.5 -58q44 0 88 41t44 87q0 24 -12.5 46.5z" />
    <glyph glyph-name="v" unicode="v" horiz-adv-x="551" 
d="M382 395l4 -30q0 -8 -7 -8q-17 0 -17 43q0 22 19 42t51.5 20t56.5 -32t24 -85.5t-12.5 -109.5t-37 -112.5t-69 -94.5t-99.5 -38q-37 0 -62.5 17.5t-37.5 47.5q-22 55 -22 120l3 110q0 113 -30 141q-15 14 -38 14t-39 -12t-23 -32q-13 -37 -13 -68t13 -53t45 -22
q15 0 28 7t14 7q7 0 7 -11.5t-19.5 -17t-36.5 -5.5q-32 0 -51.5 28t-19.5 61q0 63 36 108.5t111 45.5q67 0 90 -56q20 -46 20 -121l-3 -140q0 -70 9.5 -109.5t37.5 -39.5q43 0 85.5 51t68 125t25.5 135t-20 91t-49 30q-16 0 -29 -12t-13 -35z" />
    <glyph glyph-name="w" unicode="w" horiz-adv-x="761" 
d="M593 405l3 -30q0 -8 -7 -8q-17 0 -17 43q0 22 19 42t49 20q74 0 74 -128q0 -113 -34 -223q-18 -58 -54.5 -94.5t-81 -36.5t-78 27.5t-42.5 63.5q-28 -38 -41 -53q-35 -38 -77.5 -38t-70 14.5t-40.5 41.5q-23 49 -23 128l5 145q0 58 -14.5 89.5t-54.5 31.5q-47 0 -62 -44
q-13 -37 -13 -68t13 -53t45 -22q15 0 28 7t14 7q7 0 7 -11.5t-19.5 -17t-36.5 -5.5q-32 0 -51.5 28t-19.5 61q0 63 36 108.5t111 45.5q44 0 69.5 -27t33 -64.5t7.5 -92.5l-6 -171q0 -54 11 -82.5t43.5 -28.5t62.5 50.5t32 110.5q3 105 3 115v15h94l-3 -142q0 -70 9.5 -109.5
t37.5 -39.5q42 0 75 54.5t49 128t16 144.5q0 115 -60 115q-16 0 -28.5 -12t-12.5 -35z" />
    <glyph glyph-name="x" unicode="x" horiz-adv-x="525" 
d="M508 119q9 0 9 -12q-1 -44 -35.5 -78t-73 -34t-69.5 21t-50 58l-62 121q-73 -48 -113 -94t-42 -101h-20q0 66 40 111t126 102l-57 113q-52 102 -86 102q-37 0 -53 -63q-5 -22 -7 -23q-9 0 -9 11.5t9.5 35.5t37.5 50.5t64 26.5t69.5 -25.5t55.5 -70.5l56 -111
q73 47 110.5 95.5t40.5 108.5h20q0 -70 -37 -117.5t-124 -104.5l87 -172q19 -36 53 -36q22 0 35.5 20.5t18.5 42.5z" />
    <glyph glyph-name="y" unicode="y" horiz-adv-x="637" 
d="M343 -3q-98 0 -140 71q-23 38 -27 71q-5 40 -5 120.5t-8.5 136t-42.5 55.5q-42 0 -65.5 -31.5t-23.5 -63.5q0 -76 58 -76q15 0 28 7t14 7q7 0 7 -11.5t-19.5 -17t-36.5 -5.5q-31 0 -51 27.5t-20 61.5q0 55 38 89.5t102 34.5q32 0 54.5 -18t34 -42.5t18.5 -64.5
q8 -51 8 -146t15 -140t69 -45q90 0 147.5 84.5t57.5 195.5q0 68 -24.5 112t-75.5 44q-35 0 -57 -25t-22 -56t14.5 -49.5t36.5 -18.5q9 0 22.5 4t15.5 4q8 0 8 -9q0 -17 -31 -19h-11q-36 0 -55.5 24.5t-19.5 66.5t30 69.5t72 27.5t66 -19t35 -55q19 -62 19 -159v-319
q0 -81 -61 -125.5t-145 -44.5t-141.5 38.5t-57.5 105.5q0 37 12 53q4 6 12 6t8 -10q0 -3 -6 -15t-6 -33q0 -51 47 -87.5t104 -36.5t95.5 44t38.5 103v121q-54 -42 -135 -42z" />
    <glyph glyph-name="z" unicode="z" horiz-adv-x="484" 
d="M27 0q-7 0 -7 7t9 16l278 418h-159q-47 0 -69 -20t-22 -48t13 -45.5t36.5 -17.5t34.5 11t17 21.5t12 10.5t6 -15t-22.5 -31.5t-52.5 -16.5t-48 23t-18 57.5t29.5 63.5t84.5 29h289q8 0 8 -4t-10 -19l-294 -418h205q47 0 69 20t22 48t-13 45.5t-36.5 17.5t-34.5 -10.5
t-17 -21.5t-12 -11t-6 15t22.5 31.5t52.5 16.5t48 -23t18 -57.5t-29.5 -63.5t-84.5 -29h-319z" />
    <glyph glyph-name="braceleft" unicode="{" horiz-adv-x="286" 
d="M171 699l8 -161q0 -134 -82 -171q82 -37 82 -171l-8 -161q0 -50 15 -75.5t57 -25.5q13 0 42 6v-24q-25 -6 -58 -6t-57.5 11t-35.5 33q-20 39 -20 108l1 80q0 150 -118 225q118 75 118 225l-1 80q0 69 20 108q22 44 98 44q28 0 53 -6v-24q-29 6 -42 6q-42 0 -57 -25.5
t-15 -75.5z" />
    <glyph glyph-name="bar" unicode="|" horiz-adv-x="194" 
d="M127 730v-930h-60v930h60z" />
    <glyph glyph-name="braceright" unicode="}" horiz-adv-x="286" 
d="M115 35l-8 161q0 134 82 171q-82 37 -82 171l8 161q0 50 -15 75.5t-57 25.5q-13 0 -42 -6v24q26 6 58.5 6t57 -11t35.5 -33q20 -39 20 -108l-1 -80q0 -150 118 -225q-118 -75 -118 -225l1 -80q0 -69 -20 -108q-22 -44 -98 -44q-28 0 -53 6v24q28 -6 42 -6q42 0 57 25.5
t15 75.5z" />
    <glyph glyph-name="asciitilde" unicode="~" horiz-adv-x="639" 
d="M223 312.5q-30 20.5 -65 20.5t-69.5 -25.5t-34.5 -62.5t22.5 -60.5t51.5 -23.5t42 13.5t16.5 26.5t6.5 13q11 0 11 -18.5t-23 -36t-55 -17.5t-62.5 29t-30.5 76t44.5 89.5t102.5 42.5q62 0 112 -52q22 -22 88 -97q20 -22 46.5 -37t60 -15t67 26.5t33.5 62.5t-22.5 59.5
t-60 23.5t-49.5 -40q-4 -11 -7 -11q-11 0 -11 17t22 35t55 18t63 -29.5t30 -75.5t-43.5 -89t-101.5 -43q-68 0 -132 70q-26 30 -51.5 60t-55.5 50.5z" />
    <glyph glyph-name="exclamdown" unicode="&#xa1;" horiz-adv-x="218" 
d="M159 262v-550h-100v550h100zM42 396q0 27 19.5 46.5t46.5 19.5t46.5 -19.5t19.5 -46.5t-19.5 -46.5t-46.5 -19.5t-46.5 19.5t-19.5 46.5z" />
    <glyph glyph-name="cent" unicode="&#xa2;" horiz-adv-x="468" 
d="M402 99h29q-43 -89 -150 -98v-131h-60v132q-87 13 -133 78.5t-46 154.5t51.5 147.5t127.5 74.5v143h60v-138q61 -3 105 -35t44 -85q0 -39 -23 -64.5t-62 -25.5t-64 25v-256q39 3 73 25t48 53zM221 431q-79 -38 -79 -197.5t79 -200.5v398zM281 371q9 11 19.5 11t10.5 -8
q0 -5 -5 -8q-24 -16 -24 -40t19.5 -39t42.5 -15t44.5 17.5t21.5 55.5t-38 68t-91 31v-73z" />
    <glyph glyph-name="sterling" unicode="&#xa3;" horiz-adv-x="527" 
d="M70 0h-20q1 43 25.5 74t61.5 45v282h-102v20h101v97q0 110 65.5 171t135.5 61q46 0 80.5 -28t34.5 -72t-26.5 -67.5t-59 -23.5t-55 17.5t-22.5 41t7.5 39.5t17.5 16t10 -7q0 -3 -7.5 -12.5t-7.5 -30.5t19 -33t42.5 -12t42.5 20.5t19 54t-30 57t-69 23.5
q-56 0 -76.5 -56.5t-20.5 -184.5v-71h100v-20h-99v-287q20 -8 55 -26q76 -40 112 -40q54 0 70 75h20q-2 -58 -36.5 -92.5t-73 -34.5t-117 38t-113.5 38q-57 0 -84 -72z" />
    <glyph glyph-name="currency" unicode="&#xa4;" horiz-adv-x="582" 
d="M141 229q-51 57 -51 133t52 135l-73 88h84l41 -48q47 26 97.5 26t97.5 -26l41 48h84l-74 -89q52 -58 52 -134t-52 -134l71 -84h-86l-36 43q-44 -26 -97 -26t-101 27l-37 -44h-84zM187 467q-44 -44 -44 -104.5t44 -104.5t104.5 -44t104.5 44t44 104.5t-44 104.5t-104.5 44
t-104.5 -44z" />
    <glyph glyph-name="yen" unicode="&#xa5;" horiz-adv-x="772" 
d="M567 556l1 -85q0 -46 -5.5 -78t-27 -62.5t-60.5 -42.5v-28h159v-60h-159v-56h157v-60h-157v-82h-99v82h-156v60h156v56h-154v60h154v22q-83 10 -106 66q-16 38 -17.5 82.5t-4 69t-10.5 62.5q-16 78 -76 78q-43 0 -76.5 -40t-33.5 -80q0 -23 13 -45t45 -22q15 0 28 7t14 7
q7 0 7 -11.5t-19.5 -17t-36.5 -5.5q-31 0 -51 27.5t-20 61.5q0 61 62.5 117.5t129.5 56.5q37 0 53 -14t25 -24t15 -28.5t11 -32.5t8 -38.5t5 -40.5t3.5 -45.5t1.5 -46t0.5 -43t2.5 -36.5t9 -23q11 -23 54 -23t66 10t36.5 27t20.5 50q11 52 11 121.5t3.5 94t12.5 46.5
q17 46 73 46q42 0 72.5 -21.5t30.5 -59t-20 -65t-51 -27.5q-17 0 -36.5 5.5t-19.5 17t7 11.5q1 0 14 -7t28 -7q32 0 45 21.5t13 48t-23.5 44t-61.5 17.5t-52 -30t-14 -88z" />
    <glyph glyph-name="brokenbar" unicode="&#xa6;" horiz-adv-x="198" 
d="M129 730v-390h-60v390h60zM129 190v-390h-60v390h60z" />
    <glyph glyph-name="section" unicode="&#xa7;" horiz-adv-x="537" 
d="M114 416q-63 46 -63 132.5t69 137.5t143 51t129 -32.5t55 -88.5q0 -34 -21 -52t-50.5 -18t-47 16.5t-17.5 31t5.5 14.5t9.5 -6.5t7 -14.5q8 -21 34.5 -21t42 13t15.5 37q0 44 -49 72t-111.5 28t-116 -33.5t-53.5 -90.5q0 -39 30.5 -64.5t69 -36.5t96.5 -26t90 -29
q108 -47 108 -173q0 -100 -66 -161q64 -46 64 -132.5t-69 -137.5t-142.5 -51t-129 32.5t-55.5 88.5q0 34 21 52t50.5 18t47 -16.5t17.5 -31t-5.5 -14.5t-9.5 6.5t-7 14.5q-8 21 -34.5 21t-42 -13t-15.5 -37q0 -44 49 -72t111.5 -28t116 33.5t53.5 90.5q0 39 -30.5 64.5
t-69 36.5t-96.5 26t-90 29q-108 48 -108 173q0 101 65 161zM182.5 383q-29.5 10 -50.5 21q-39 -39 -39 -98q0 -65 44 -97q39 -29 103 -44q86 -20 115.5 -30t49.5 -22q40 40 40 102t-41.5 92.5t-116.5 48t-104.5 27.5z" />
    <glyph glyph-name="dieresis" unicode="&#xa8;" horiz-adv-x="501" 
d="M85 599q0 22 15.5 37.5t37.5 15.5t38 -15.5t16 -37.5t-16 -37.5t-38 -15.5t-37.5 15.5t-15.5 37.5zM304 599q0 22 15.5 37.5t37.5 15.5t38 -15.5t16 -37.5t-16 -37.5t-38 -15.5t-37.5 15.5t-15.5 37.5z" />
    <glyph glyph-name="copyright" unicode="&#xa9;" horiz-adv-x="683" 
d="M176.5 528q-69.5 -70 -69.5 -165.5t69.5 -165t165 -69.5t165.5 69.5t70 165t-70 165.5t-165.5 70t-165 -70zM138.5 160q-84.5 85 -84.5 202.5t85 202t203 84.5t202 -84.5t84 -202.5t-84.5 -202.5t-202.5 -84.5t-202.5 85zM493 289h29q-60 -119 -180 -119q-50 0 -87 20
t-55 52q-36 60 -36 127t54 130t143 63q61 0 100.5 -31.5t39.5 -80.5t-24 -73.5t-57.5 -24.5t-60 18.5t-26.5 46t10 43.5q14 22 26.5 22t12.5 -8q0 -5 -4 -8q-25 -16 -25 -40t19.5 -39t41.5 -15t44.5 17t22.5 56t-30 69t-74 30q-62 0 -94 -59.5t-32 -137.5q0 -40 8 -72.5
t33 -58t68 -25.5t78 29.5t55 68.5z" />
    <glyph glyph-name="ordfeminine" unicode="&#xaa;" horiz-adv-x="371" 
d="M182 552q4 0 4 -7.5t-17 -7.5q-114 0 -114 39q0 26 43 38t92.5 12t90.5 -27.5t41 -76.5v-180h-80v45q-5 -23 -26.5 -37t-62 -14t-80.5 22t-40 70q0 35 24.5 56.5t51 27.5t59.5 6t74 -11v38q0 20 -2.5 33t-14 24.5t-33.5 11.5t-39.5 -10.5t-17.5 -26.5t11.5 -20t35.5 -5z
M216 449q20 -12 26 -41v73q-42 14 -70.5 14t-43.5 -19t-15 -52q0 -70 56 -70q21 0 36.5 10.5t15.5 33.5q0 27 -23 42q-8 4 -8 7q0 6 9.5 6t16.5 -4z" />
    <glyph glyph-name="guillemotleft" unicode="&#xab;" horiz-adv-x="583" 
d="M526 23l-277 277l277 269v-85l-177 -184l177 -192v-85zM296 23l-277 277l277 269v-85l-177 -184l177 -192v-85z" />
    <glyph glyph-name="logicalnot" unicode="&#xac;" horiz-adv-x="616" 
d="M55 462h488v-185h-60v125h-428v60z" />
    <glyph glyph-name="uni00AD" unicode="&#xad;" horiz-adv-x="404" 
d="M51 300h302v-60h-302v60z" />
    <glyph glyph-name="registered" unicode="&#xae;" horiz-adv-x="683" 
d="M138.5 160q-84.5 85 -84.5 202.5t85 202t203 84.5t202 -84.5t84 -202.5t-84.5 -202.5t-202.5 -84.5t-202.5 85zM176.5 528q-69.5 -70 -69.5 -165.5t69.5 -165t165 -69.5t165.5 69.5t70 165t-70 165.5t-165.5 70t-165 -70zM301.5 310.5q6.5 -10.5 17.5 -10.5t24 5
q3 0 3 -5q0 -10 -27.5 -10t-32.5 28v-127h-57v348h60v-40q33 40 64 40t49.5 -21.5t18.5 -57t-31 -58.5q49 -19 49 -103v-79q0 -24 25 -24l17 4q3 0 3 -5q0 -9 -27.5 -9t-52.5 15.5t-25 41.5v43q0 53 -6.5 74t-27.5 21t-35.5 -14.5t-14.5 -30t6.5 -26zM334 398q27 9 27 65.5
t-31 56.5q-15 0 -42 -34v-140q6 35 46 52z" />
    <glyph glyph-name="degree" unicode="&#xb0;" horiz-adv-x="308" 
d="M71 500q0 -34 24.5 -58.5t58.5 -24.5t58.5 24.5t24.5 58.5t-24.5 58.5t-58.5 24.5t-58.5 -24.5t-24.5 -58.5zM66 412q-37 37 -37 87.5t37 87.5t87.5 37t87.5 -37t37 -87.5t-37 -87.5t-87.5 -37t-87.5 37z" />
    <glyph glyph-name="plusminus" unicode="&#xb1;" horiz-adv-x="530" 
d="M236 369v176h60v-176h175v-60h-175v-176h-60v176h-177v60h177zM59 59h412v-60h-412v60z" />
    <glyph glyph-name="twosuperior" unicode="&#xb2;" horiz-adv-x="380" 
d="M254 408q0 -8 7 -18q0 -6 -10 -6q-13 0 -13 20.5t13.5 33.5t38 13t41.5 -19t17 -46.5t-31.5 -63.5t-79.5 -36q-19 0 -67 10.5t-77 10.5t-57 -12q-2 14 -2 21q0 51 77 111q32 25 63.5 51.5t54 61t22.5 71.5t-20 59t-58.5 22t-68 -25t-29.5 -55t13 -42.5t29.5 -12.5t27.5 9
t11 20.5t-8.5 20.5t-8.5 11.5t6 2.5t16.5 -9.5t10.5 -29t-17 -30.5t-38.5 -11t-41 16.5t-19.5 56t38.5 68t89 28.5t99.5 -24t49 -68.5t-44.5 -89t-97.5 -75.5q-142 -83 -142 -124v-4q21 25 36 36t34.5 11t71 -14t77 -14t43.5 13.5t18 33t-11 32t-31 12.5q-32 0 -32 -27z" />
    <glyph glyph-name="threesuperior" unicode="&#xb3;" horiz-adv-x="340" 
d="M126 509l-26 -2q-16 0 -16 10t17 10t27 1t27 6t27 14q26 22 26 66q0 74 -74 74q-28 0 -43.5 -10.5t-17.5 -18t-2 -15.5q0 -31 25 -31q14 0 22 11t14 11t6 -7.5t-11.5 -19t-31 -11.5t-31.5 13t-12 41t26.5 42t68 14t91 -25.5t49.5 -70.5q0 -69 -121 -93q65 -4 103.5 -34.5
t38.5 -76.5t-26 -73q-43 -46 -130 -46q-57 0 -89 23t-32 56.5t18.5 53.5t46 20t44.5 -14t17 -31.5t-9.5 -26.5t-15 -9t-8.5 3t-3 6q0 1 9 6t9 19t-12 22t-32.5 8t-32.5 -14t-12 -40t24 -46t66 -20q88 0 88 94q0 57 -29.5 84t-72.5 27z" />
    <glyph glyph-name="acute" unicode="&#xb4;" horiz-adv-x="209" 
d="M184 714l-114 -120h-49l63 120h100z" />
    <glyph glyph-name="mu" unicode="&#xb5;" horiz-adv-x="566" 
d="M82 -150v611h100v-304q5 -54 28 -81t54 -27q45 0 90.5 50.5t52.5 124.5v237h100v-462h-100v144q-27 -62 -74 -102t-110 -40q-26 0 -41 4v-155h-100z" />
    <glyph glyph-name="paragraph" unicode="&#xb6;" horiz-adv-x="609" 
d="M499 1h-80v656h-105v-656h-80v286q-44 2 -82.5 17.5t-61.5 35t-40 56.5t-17 86q0 107 75.5 161t205.5 54h256v-40h-71v-656z" />
    <glyph glyph-name="periodcentered" unicode="&#xb7;" horiz-adv-x="218" 
d="M43 299q0 27 19.5 46.5t46.5 19.5t46.5 -19.5t19.5 -46.5t-19.5 -46.5t-46.5 -19.5t-46.5 19.5t-19.5 46.5z" />
    <glyph glyph-name="cedilla" unicode="&#xb8;" horiz-adv-x="184" 
d="M173 -108q0 -47 -41 -70t-90 -23q-18 0 -31 4l1 28q9 -4 28 -4q87 0 87 63t-96 63v47h60v-27q82 -19 82 -81z" />
    <glyph glyph-name="onesuperior" unicode="&#xb9;" horiz-adv-x="276" 
d="M59 543h-28l159 210v-433h61v-20h-206v20h62v280z" />
    <glyph glyph-name="ordmasculine" unicode="&#xba;" horiz-adv-x="331" 
d="M75 500q0 -37 27 -64t64 -27t64 27t27 64.5t-26.5 64t-64 26.5t-64.5 -27t-27 -64zM29 500q0 56 40.5 96t96.5 40t96 -40t40 -96t-40 -96.5t-96 -40.5t-96.5 40.5t-40.5 96.5z" />
    <glyph glyph-name="guillemotright" unicode="&#xbb;" horiz-adv-x="583" 
d="M334 300l-277 -277v85l177 192l-177 184v85zM564 300l-277 -277v85l177 192l-177 184v85z" />
    <glyph glyph-name="onequarter" unicode="&#xbc;" horiz-adv-x="732" 
d="M394 137l242 316v-316h61v-20h-61v-97h61v-20h-206v20h62v97h-159v20zM60 543h-28l159 210v-433h61v-20h-206v20h62v280zM166 -49l393 779h38l-393 -779h-38zM553 137v163l-131 -163h131z" />
    <glyph glyph-name="onehalf" unicode="&#xbd;" horiz-adv-x="828" 
d="M493 28v-4q21 25 36 36t34.5 11t71 -14t77 -14t43.5 13.5t18 33t-11 32t-31 12.5q-32 0 -32 -28q0 -8 3.5 -12t3.5 -5q-3 -6 -10 -6q-13 0 -13 20.5t13.5 33.5t38 13t41.5 -19t17 -46.5t-31.5 -63.5t-79.5 -36q-19 0 -67 10.5t-77 10.5t-57 -12q-2 14 -2 21q0 51 77 111
q32 25 63.5 51.5t54 61t22.5 71.5t-20 59t-58.5 22t-68 -25t-29.5 -55t13 -42.5t29.5 -12.5t27.5 9t11 23t-8.5 20t-8.5 9.5t5 3.5q28 -10 28 -34.5t-16.5 -35.5t-38.5 -11t-41.5 16.5t-19.5 56t38.5 68t89 28.5t99.5 -24t49 -68.5t-44.5 -89t-97.5 -75.5
q-142 -83 -142 -124zM60 543h-28l159 210v-433h61v-20h-206v20h62v280zM181 -49l393 779h38l-393 -779h-38z" />
    <glyph glyph-name="threequarters" unicode="&#xbe;" horiz-adv-x="765" 
d="M428 137l242 316v-316h61v-20h-61v-97h61v-20h-206v20h62v97h-159v20zM587 137v163l-131 -163h131z" />
    <glyph glyph-name="questiondown" unicode="&#xbf;" horiz-adv-x="403" 
d="M313 396q0 -27 -19.5 -46.5t-46.5 -19.5t-46.5 19.5t-19.5 46.5t19.5 46.5t46.5 19.5t46.5 -19.5t19.5 -46.5zM240 275h24q8 -41 8 -86t-14 -81.5t-34.5 -55t-45 -35.5t-44.5 -29q-49 -30 -49 -85t35 -85t94 -30t97 27t38 72t-23 65.5t-50 20.5t-45.5 -16t-18.5 -37
q0 -25 23 -40q6 -4 6 -9q0 -8 -10 -8q-14 0 -26.5 18.5t-12.5 46.5t26.5 46.5t60 18.5t62 -27.5t28.5 -80t-44.5 -85t-121.5 -32.5t-124.5 50t-47.5 128q0 51 22 86.5t53 55t62 38.5q75 44 75 121q0 1 -3 28z" />
    <glyph glyph-name="Agrave" unicode="&#xc0;" horiz-adv-x="762" 
d="M205 115l186 542q16 44 20 44q8 0 28 -55l217 -576q11 -32 50 -32q23 0 34 18q4 7 8 14.5t6 7.5q9 0 9 -12t-31 -43t-86 -31q-69 0 -92 61l-61 163h-233l-41 -119q-21 -61 -51.5 -84.5t-75.5 -23.5q-60 0 -96 45t-36 97.5t26.5 84.5t68.5 32q20 0 42 -12q33 -18 33 -38
q0 -8 -4.5 -8t-14.5 10q-29 29 -61 29t-51 -28t-19 -73.5t34 -82.5t77 -37t67.5 22.5t46.5 84.5zM372 542l-106 -307h220zM393 827l-114 120h100l63 -120h-49z" />
    <glyph glyph-name="Aacute" unicode="&#xc1;" horiz-adv-x="762" 
d="M205 115l186 542q16 44 20 44q8 0 28 -55l217 -576q11 -32 50 -32q23 0 34 18q4 7 8 14.5t6 7.5q9 0 9 -12t-31 -43t-86 -31q-69 0 -92 61l-61 163h-233l-41 -119q-21 -61 -51.5 -84.5t-75.5 -23.5q-60 0 -96 45t-36 97.5t26.5 84.5t68.5 32q20 0 42 -12q33 -18 33 -38
q0 -8 -4.5 -8t-14.5 10q-29 29 -61 29t-51 -28t-19 -73.5t34 -82.5t77 -37t67.5 22.5t46.5 84.5zM372 542l-106 -307h220zM532 947l-114 -120h-49l63 120h100z" />
    <glyph glyph-name="Acircumflex" unicode="&#xc2;" horiz-adv-x="762" 
d="M205 115l186 542q16 44 20 44q8 0 28 -55l217 -576q11 -32 50 -32q23 0 34 18q4 7 8 14.5t6 7.5q9 0 9 -12t-31 -43t-86 -31q-69 0 -92 61l-61 163h-233l-41 -119q-21 -61 -51.5 -84.5t-75.5 -23.5q-60 0 -96 45t-36 97.5t26.5 84.5t68.5 32q20 0 42 -12q33 -18 33 -38
q0 -8 -4.5 -8t-14.5 10q-29 29 -61 29t-51 -28t-19 -73.5t34 -82.5t77 -37t67.5 22.5t46.5 84.5zM372 542l-106 -307h220zM409 927l167 -174h-55l-112 114l-104 -113h-55z" />
    <glyph glyph-name="Atilde" unicode="&#xc3;" horiz-adv-x="762" 
d="M205 115l186 542q16 44 20 44q8 0 28 -55l217 -576q11 -32 50 -32q23 0 34 18q4 7 8 14.5t6 7.5q9 0 9 -12t-31 -43t-86 -31q-69 0 -92 61l-61 163h-233l-41 -119q-21 -61 -51.5 -84.5t-75.5 -23.5q-60 0 -96 45t-36 97.5t26.5 84.5t68.5 32q20 0 42 -12q33 -18 33 -38
q0 -8 -4.5 -8t-14.5 10q-29 29 -61 29t-51 -28t-19 -73.5t34 -82.5t77 -37t67.5 22.5t46.5 84.5zM372 542l-106 -307h220zM414 854q19 -22 28.5 -32t27 -20t39 -10t38 15.5t16.5 35.5t-10.5 32t-32 12t-28.5 -25q-2 -6 -4 -6q-7 0 -7 15t14.5 25.5t33.5 10.5t36.5 -18
t17.5 -48t-23 -58.5t-65 -28.5t-83 49q-20 24 -30 35q-30 31 -59.5 31t-46 -15.5t-16.5 -35.5t10.5 -32t32 -12t28.5 25q2 6 4 6q7 0 7 -15t-14.5 -25.5t-33.5 -10.5t-36.5 18t-17.5 48t23 58.5t64.5 28.5t86.5 -53z" />
    <glyph glyph-name="Adieresis" unicode="&#xc4;" horiz-adv-x="762" 
d="M205 115l186 542q16 44 20 44q8 0 28 -55l217 -576q11 -32 50 -32q23 0 34 18q4 7 8 14.5t6 7.5q9 0 9 -12t-31 -43t-86 -31q-69 0 -92 61l-61 163h-233l-41 -119q-21 -61 -51.5 -84.5t-75.5 -23.5q-60 0 -96 45t-36 97.5t26.5 84.5t68.5 32q20 0 42 -12q33 -18 33 -38
q0 -8 -4.5 -8t-14.5 10q-29 29 -61 29t-51 -28t-19 -73.5t34 -82.5t77 -37t67.5 22.5t46.5 84.5zM372 542l-106 -307h220zM249 832q0 22 15.5 37.5t37.5 15.5t38 -15.5t16 -37.5t-16 -37.5t-38 -15.5t-37.5 15.5t-15.5 37.5zM468 832q0 22 15.5 37.5t37.5 15.5t38 -15.5
t16 -37.5t-16 -37.5t-38 -15.5t-37.5 15.5t-15.5 37.5z" />
    <glyph glyph-name="Aring" unicode="&#xc5;" horiz-adv-x="764" 
d="M206 115l191 555q-25 6 -41 26.5t-16 48.5t22 50t52.5 22t52.5 -22t22 -50.5t-17 -49t-41 -25.5l226 -600q13 -32 50 -32q23 0 34 18q4 7 7.5 14.5t6.5 7.5q9 0 9 -12t-31 -43t-86 -31q-69 0 -92 61l-61 163h-233l-41 -119q-21 -61 -51.5 -84.5t-75.5 -23.5q-60 0 -96 45
t-36 97.5t26.5 84.5t68.5 32q20 0 42 -12q33 -18 33 -38q0 -8 -4.5 -8t-14.5 10q-29 29 -61 29t-51 -28t-19 -73.5t34 -82.5t77 -37t67.5 22.5t46.5 84.5zM373 542l-106 -307h220zM380 778q-15 -15 -15 -34t11.5 -33t28.5 -17q4 7 7 7t8 -8q19 2 32 16.5t13 34t-15 34.5
t-35 15t-35 -15z" />
    <glyph glyph-name="AE" unicode="&#xc6;" horiz-adv-x="835" 
d="M276 121l216 575h313v-25h-212v-291h162v-25h-162v-330h212v-25h-300v216h-164l-43 -113q-20 -52 -63.5 -80t-97 -28t-89.5 45t-36 98t26.5 84.5t68.5 31.5q24 0 44 -11.5t29 -29.5q2 -4 2 -7t-3.5 -7t-7.5 -4l-8 8q-30 30 -62 30t-49 -30t-17 -71.5t30.5 -76t76 -34.5
t81.5 28t53 72zM508 671l-158 -430h155q0 78 1.5 216t1.5 214z" />
    <glyph glyph-name="Ccedilla" unicode="&#xc7;" horiz-adv-x="576" 
d="M476 99l48 1q-21 -43 -65.5 -71t-105.5 -29v-20q82 -19 82 -81q0 -47 -41 -70t-90 -23q-18 0 -31 4l1 28q9 -4 28 -4q87 0 87 63t-96 63v46q-100 20 -172 103t-72 220q0 90 30.5 172t96 139t151.5 57q116 0 179 -74q34 -40 34 -94t-29.5 -80.5t-62.5 -26.5t-59 18.5
t-26 46.5t11 44q14 21 26 21t12 -8q0 -5 -4 -8q-24 -16 -24 -39t18 -38t45 -15t47 20t20 59q0 65 -52 104.5t-115.5 39.5t-110.5 -53q-87 -100 -87 -292q0 -70 15.5 -125.5t38.5 -87.5t53 -53q52 -35 106 -35q78 0 114 78z" />
    <glyph glyph-name="Egrave" unicode="&#xc8;" horiz-adv-x="566" 
d="M317 414l53 4q21 0 21 -13q0 -17 -24.5 -17t-48.5 6q-72 -22 -123 -72.5t-51 -132.5t55 -131t128 -49q64 0 123 33q29 16 48 46t19 69q0 58 -38.5 91.5t-80.5 33.5q-93 0 -93 -63q0 -20 12.5 -30.5t12.5 -12.5q0 -6 -12.5 -6t-22 16t-9.5 39.5t27 49t78.5 25.5
t98.5 -36.5t47 -111.5t-65.5 -118.5t-161.5 -43.5q-66 0 -125.5 22t-100 68.5t-40.5 107.5q0 78 58 128t154 84q-68 5 -116.5 43.5t-48.5 91.5t41 93t93.5 59t86.5 19t58 -4t53 -14.5t47.5 -32.5t18.5 -54.5t-19.5 -49.5t-48.5 -17t-51 16.5t-22 31.5t6 15t10.5 -7
t8.5 -15.5t16 -15.5t32 -7t34 12.5t14 35.5q0 39 -37.5 62.5t-97.5 23.5t-102 -38.5t-42 -93.5t35.5 -89.5t91.5 -50.5zM310 827l-114 120h100l63 -120h-49z" />
    <glyph glyph-name="Eacute" unicode="&#xc9;" horiz-adv-x="566" 
d="M317 414l53 4q21 0 21 -13q0 -17 -24.5 -17t-48.5 6q-72 -22 -123 -72.5t-51 -132.5t55 -131t128 -49q64 0 123 33q29 16 48 46t19 69q0 58 -38.5 91.5t-80.5 33.5q-93 0 -93 -63q0 -20 12.5 -30.5t12.5 -12.5q0 -6 -12.5 -6t-22 16t-9.5 39.5t27 49t78.5 25.5
t98.5 -36.5t47 -111.5t-65.5 -118.5t-161.5 -43.5q-66 0 -125.5 22t-100 68.5t-40.5 107.5q0 78 58 128t154 84q-68 5 -116.5 43.5t-48.5 91.5t41 93t93.5 59t86.5 19t58 -4t53 -14.5t47.5 -32.5t18.5 -54.5t-19.5 -49.5t-48.5 -17t-51 16.5t-22 31.5t6 15t10.5 -7
t8.5 -15.5t16 -15.5t32 -7t34 12.5t14 35.5q0 39 -37.5 62.5t-97.5 23.5t-102 -38.5t-42 -93.5t35.5 -89.5t91.5 -50.5zM416 947l-114 -120h-49l63 120h100z" />
    <glyph glyph-name="Ecircumflex" unicode="&#xca;" horiz-adv-x="566" 
d="M317 414l53 4q21 0 21 -13q0 -17 -24.5 -17t-48.5 6q-72 -22 -123 -72.5t-51 -132.5t55 -131t128 -49q64 0 123 33q29 16 48 46t19 69q0 58 -38.5 91.5t-80.5 33.5q-93 0 -93 -63q0 -20 12.5 -30.5t12.5 -12.5q0 -6 -12.5 -6t-22 16t-9.5 39.5t27 49t78.5 25.5
t98.5 -36.5t47 -111.5t-65.5 -118.5t-161.5 -43.5q-66 0 -125.5 22t-100 68.5t-40.5 107.5q0 78 58 128t154 84q-68 5 -116.5 43.5t-48.5 91.5t41 93t93.5 59t86.5 19t58 -4t53 -14.5t47.5 -32.5t18.5 -54.5t-19.5 -49.5t-48.5 -17t-51 16.5t-22 31.5t6 15t10.5 -7
t8.5 -15.5t16 -15.5t32 -7t34 12.5t14 35.5q0 39 -37.5 62.5t-97.5 23.5t-102 -38.5t-42 -93.5t35.5 -89.5t91.5 -50.5zM291 927l167 -174h-55l-112 114l-104 -113h-55z" />
    <glyph glyph-name="Edieresis" unicode="&#xcb;" horiz-adv-x="566" 
d="M317 414l53 4q21 0 21 -13q0 -17 -24.5 -17t-48.5 6q-72 -22 -123 -72.5t-51 -132.5t55 -131t128 -49q64 0 123 33q29 16 48 46t19 69q0 58 -38.5 91.5t-80.5 33.5q-93 0 -93 -63q0 -20 12.5 -30.5t12.5 -12.5q0 -6 -12.5 -6t-22 16t-9.5 39.5t27 49t78.5 25.5
t98.5 -36.5t47 -111.5t-65.5 -118.5t-161.5 -43.5q-66 0 -125.5 22t-100 68.5t-40.5 107.5q0 78 58 128t154 84q-68 5 -116.5 43.5t-48.5 91.5t41 93t93.5 59t86.5 19t58 -4t53 -14.5t47.5 -32.5t18.5 -54.5t-19.5 -49.5t-48.5 -17t-51 16.5t-22 31.5t6 15t10.5 -7
t8.5 -15.5t16 -15.5t32 -7t34 12.5t14 35.5q0 39 -37.5 62.5t-97.5 23.5t-102 -38.5t-42 -93.5t35.5 -89.5t91.5 -50.5zM132 832q0 22 15.5 37.5t37.5 15.5t38 -15.5t16 -37.5t-16 -37.5t-38 -15.5t-37.5 15.5t-15.5 37.5zM351 832q0 22 15.5 37.5t37.5 15.5t38 -15.5
t16 -37.5t-16 -37.5t-38 -15.5t-37.5 15.5t-15.5 37.5z" />
    <glyph glyph-name="Igrave" unicode="&#xcc;" horiz-adv-x="357" 
d="M262 0h-100v676h-76q-47 0 -70 -20.5t-23 -48.5t14 -45.5t37.5 -17.5t34.5 11t17 21.5t12 10.5t6 -15t-22.5 -31.5t-52.5 -16.5t-48 23t-18 57.5t29.5 63t84.5 28.5h175v-696zM177 827l-114 120h100l63 -120h-49z" />
    <glyph glyph-name="Iacute" unicode="&#xcd;" horiz-adv-x="357" 
d="M262 0h-100v676h-76q-47 0 -70 -20.5t-23 -48.5t14 -45.5t37.5 -17.5t34.5 11t17 21.5t12 10.5t6 -15t-22.5 -31.5t-52.5 -16.5t-48 23t-18 57.5t29.5 63t84.5 28.5h175v-696zM334 947l-114 -120h-49l63 120h100z" />
    <glyph glyph-name="Icircumflex" unicode="&#xce;" horiz-adv-x="357" 
d="M262 0h-100v676h-76q-47 0 -70 -20.5t-23 -48.5t14 -45.5t37.5 -17.5t34.5 11t17 21.5t12 10.5t6 -15t-22.5 -31.5t-52.5 -16.5t-48 23t-18 57.5t29.5 63t84.5 28.5h175v-696zM207 927l167 -174h-55l-112 114l-104 -113h-55z" />
    <glyph glyph-name="Idieresis" unicode="&#xcf;" horiz-adv-x="357" 
d="M262 0h-100v676h-76q-47 0 -70 -20.5t-23 -48.5t14 -45.5t37.5 -17.5t34.5 11t17 21.5t12 10.5t6 -15t-22.5 -31.5t-52.5 -16.5t-48 23t-18 57.5t29.5 63t84.5 28.5h175v-696zM50 832q0 22 15.5 37.5t37.5 15.5t38 -15.5t16 -37.5t-16 -37.5t-38 -15.5t-37.5 15.5
t-15.5 37.5zM269 832q0 22 15.5 37.5t37.5 15.5t38 -15.5t16 -37.5t-16 -37.5t-38 -15.5t-37.5 15.5t-15.5 37.5z" />
    <glyph glyph-name="Eth" unicode="&#xd0;" horiz-adv-x="725" 
d="M262 0l-100 -1v324h-88v60h88v293h-76q-47 0 -69 -20.5t-22 -48.5t13 -45.5t36.5 -17.5t34.5 11t17 21.5t12 10.5t6 -15t-22.5 -31.5t-52.5 -16.5t-48 23t-18 57.5t29.5 63t84.5 28.5h274q96 0 168.5 -51.5t108.5 -134t36 -182.5q0 -136 -65.5 -236.5t-173.5 -100.5
q-63 0 -114.5 33.5t-58.5 89.5v-114zM572 265.5q2 29.5 2 74.5t-14 105.5t-41.5 113t-75 84.5t-108.5 32h-73v-292h114v-60h-114v-180q4 38 28.5 57.5t50 19.5t45 -9t19.5 -18q0 -4 -3.5 -7.5t-6 -3.5t-17.5 9t-41 9t-41 -22.5t-15 -46.5q0 -42 47 -81t92.5 -39t74.5 27.5
t43.5 64t23 85t10.5 78z" />
    <glyph glyph-name="Ntilde" unicode="&#xd1;" horiz-adv-x="887" 
d="M470 854q19 -22 28.5 -32t27 -20t39 -10t38 15.5t16.5 35.5t-10.5 32t-32 12t-28.5 -25q-2 -6 -4 -6q-7 0 -7 15t14.5 25.5t33.5 10.5t36.5 -18t17.5 -48t-23 -58.5t-65 -28.5t-83 49q-20 24 -30 35q-30 31 -59.5 31t-46 -15.5t-16.5 -35.5t10.5 -32t32 -12t28.5 25
q2 6 4 6q7 0 7 -15t-14.5 -25.5t-33.5 -10.5t-36.5 18t-17.5 48t23 58.5t64.5 28.5t86.5 -53zM262 198l1 478h-79q-47 0 -70 -20.5t-23 -48t14 -45.5t37.5 -18t34.5 11t17 21.5t12 10.5t6 -15t-22.5 -31.5t-52.5 -16.5t-48 23t-18 57.5t29.5 63t84.5 28.5h174l263 -461v275
q0 236 163 236q61 0 105.5 -38t44.5 -93.5t-26.5 -78t-47 -22.5t-35.5 9t-15 20t5 11t7.5 -3.5t4.5 -6.5q8 -11 32 -11t39.5 22t15.5 55q0 53 -36.5 84.5t-87.5 31.5q-31 0 -54 -7.5t-46 -28.5q-47 -41 -47 -178v-507q0 -11 -10 -11q-6 0 -13 13l-338 630v-413
q0 -113 -48.5 -171.5t-113.5 -58.5t-109.5 38t-44.5 93.5t26.5 78t47 22.5t35.5 -9t15 -20t-5 -11t-7.5 3t-4.5 7q-7 10 -32.5 10t-40.5 -21.5t-15 -54.5q0 -54 39.5 -85.5t93.5 -31.5t98.5 50t44.5 135z" />
    <glyph glyph-name="Ograve" unicode="&#xd2;" horiz-adv-x="697" 
d="M68.5 206q-20.5 62 -20.5 129.5t20.5 130.5t57.5 117t96.5 88.5t139 34.5t148.5 -56t103.5 -140.5t34.5 -174t-29.5 -157.5t-75.5 -108q-94 -80 -196 -80q-81 0 -155 49q-40 27 -71.5 66t-52 101zM433 410l-29 6q-20 0 -33 -17t-13 -37.5t18.5 -44t60.5 -23.5t73.5 38.5
t31.5 128.5t-51 157.5t-147 67.5q-49 0 -85 -19.5t-57 -50.5t-34 -79q-20 -79 -20 -206q0 -321 192 -321q108 0 158 78t50 230q0 23 -1 34q-9 -26 -41.5 -52t-71.5 -26t-67.5 26.5t-28.5 59.5t18 54.5t51.5 21.5t33.5 -19q0 -7 -8 -7zM348 827l-114 120h100l63 -120h-49z
" />
    <glyph glyph-name="Oacute" unicode="&#xd3;" horiz-adv-x="697" 
d="M68.5 206q-20.5 62 -20.5 129.5t20.5 130.5t57.5 117t96.5 88.5t139 34.5t148.5 -56t103.5 -140.5t34.5 -174t-29.5 -157.5t-75.5 -108q-94 -80 -196 -80q-81 0 -155 49q-40 27 -71.5 66t-52 101zM433 410l-29 6q-20 0 -33 -17t-13 -37.5t18.5 -44t60.5 -23.5t73.5 38.5
t31.5 128.5t-51 157.5t-147 67.5q-49 0 -85 -19.5t-57 -50.5t-34 -79q-20 -79 -20 -206q0 -321 192 -321q108 0 158 78t50 230q0 23 -1 34q-9 -26 -41.5 -52t-71.5 -26t-67.5 26.5t-28.5 59.5t18 54.5t51.5 21.5t33.5 -19q0 -7 -8 -7zM492 947l-114 -120h-49l63 120h100z
" />
    <glyph glyph-name="Ocircumflex" unicode="&#xd4;" horiz-adv-x="697" 
d="M68.5 206q-20.5 62 -20.5 129.5t20.5 130.5t57.5 117t96.5 88.5t139 34.5t148.5 -56t103.5 -140.5t34.5 -174t-29.5 -157.5t-75.5 -108q-94 -80 -196 -80q-81 0 -155 49q-40 27 -71.5 66t-52 101zM433 410l-29 6q-20 0 -33 -17t-13 -37.5t18.5 -44t60.5 -23.5t73.5 38.5
t31.5 128.5t-51 157.5t-147 67.5q-49 0 -85 -19.5t-57 -50.5t-34 -79q-20 -79 -20 -206q0 -321 192 -321q108 0 158 78t50 230q0 23 -1 34q-9 -26 -41.5 -52t-71.5 -26t-67.5 26.5t-28.5 59.5t18 54.5t51.5 21.5t33.5 -19q0 -7 -8 -7zM357 927l167 -174h-55l-112 114
l-104 -113h-55z" />
    <glyph glyph-name="Otilde" unicode="&#xd5;" horiz-adv-x="697" 
d="M68.5 206q-20.5 62 -20.5 129.5t20.5 130.5t57.5 117t96.5 88.5t139 34.5t148.5 -56t103.5 -140.5t34.5 -174t-29.5 -157.5t-75.5 -108q-94 -80 -196 -80q-81 0 -155 49q-40 27 -71.5 66t-52 101zM433 410l-29 6q-20 0 -33 -17t-13 -37.5t18.5 -44t60.5 -23.5t73.5 38.5
t31.5 128.5t-51 157.5t-147 67.5q-49 0 -85 -19.5t-57 -50.5t-34 -79q-20 -79 -20 -206q0 -321 192 -321q108 0 158 78t50 230q0 23 -1 34q-9 -26 -41.5 -52t-71.5 -26t-67.5 26.5t-28.5 59.5t18 54.5t51.5 21.5t33.5 -19q0 -7 -8 -7zM352 854q19 -22 28.5 -32t27 -20
t39 -10t38 15.5t16.5 35.5t-10.5 32t-32 12t-28.5 -25q-2 -6 -4 -6q-7 0 -7 15t14.5 25.5t33.5 10.5t36.5 -18t17.5 -48t-23 -58.5t-65 -28.5t-83 49q-20 24 -30 35q-30 31 -59.5 31t-46 -15.5t-16.5 -35.5t10.5 -32t32 -12t28.5 25q2 6 4 6q7 0 7 -15t-14.5 -25.5
t-33.5 -10.5t-36.5 18t-17.5 48t23 58.5t64.5 28.5t86.5 -53z" />
    <glyph glyph-name="Odieresis" unicode="&#xd6;" horiz-adv-x="697" 
d="M68.5 206q-20.5 62 -20.5 129.5t20.5 130.5t57.5 117t96.5 88.5t139 34.5t148.5 -56t103.5 -140.5t34.5 -174t-29.5 -157.5t-75.5 -108q-94 -80 -196 -80q-81 0 -155 49q-40 27 -71.5 66t-52 101zM433 410l-29 6q-20 0 -33 -17t-13 -37.5t18.5 -44t60.5 -23.5t73.5 38.5
t31.5 128.5t-51 157.5t-147 67.5q-49 0 -85 -19.5t-57 -50.5t-34 -79q-20 -79 -20 -206q0 -321 192 -321q108 0 158 78t50 230q0 23 -1 34q-9 -26 -41.5 -52t-71.5 -26t-67.5 26.5t-28.5 59.5t18 54.5t51.5 21.5t33.5 -19q0 -7 -8 -7zM186 832q0 22 15.5 37.5t37.5 15.5
t38 -15.5t16 -37.5t-16 -37.5t-38 -15.5t-37.5 15.5t-15.5 37.5zM405 832q0 22 15.5 37.5t37.5 15.5t38 -15.5t16 -37.5t-16 -37.5t-38 -15.5t-37.5 15.5t-15.5 37.5z" />
    <glyph glyph-name="multiply" unicode="&#xd7;" horiz-adv-x="511" 
d="M213 301l-161 157h84l119 -115l118 115h84l-160 -156l150 -145h-86l-106 103l-106 -103h-84z" />
    <glyph glyph-name="Oslash" unicode="&#xd8;" horiz-adv-x="595" 
d="M65 -49l72 143q-67 96 -67 227q0 123 47 238q25 61 73.5 99.5t115 38.5t114.5 -42l38 75h68l-64 -126q64 -104 64 -283q0 -134 -69.5 -227.5t-155.5 -93.5q-68 0 -121 45l-47 -94h-68zM170 309q0 -65 11 -128l212 419q-29 78 -83 78q-140 0 -140 -369zM389 103
q36 83 36 207.5t-11 198.5l-208 -412q34 -77 90.5 -77t92.5 83z" />
    <glyph glyph-name="Ugrave" unicode="&#xd9;" horiz-adv-x="747" 
d="M86 696h175v-476q0 -101 30 -155.5t107 -54.5q147 0 147 211q0 74 -28.5 184.5t-28.5 159.5q0 95 41.5 148t102 53t92 -32t31.5 -88t-27.5 -79t-48 -23t-35.5 9t-15 20t5 11t7.5 -3t4.5 -7q7 -10 32.5 -10t41 21.5t15.5 54.5q0 106 -100 106q-53 0 -90 -46t-37 -136
q0 -51 28.5 -161t28.5 -187q0 -225 -185 -225q-81 0 -144 41q-35 22 -55.5 68t-20.5 111v465h-75q-47 0 -70 -20.5t-23 -48.5t13.5 -45.5t37.5 -17.5t35 11t17 21.5t12 10.5t6 -15t-22.5 -31.5t-52.5 -16.5t-48 23t-18 57.5t29.5 63t84.5 28.5zM368 827l-114 120h100
l63 -120h-49z" />
    <glyph glyph-name="Uacute" unicode="&#xda;" horiz-adv-x="747" 
d="M86 696h175v-476q0 -101 30 -155.5t107 -54.5q147 0 147 211q0 74 -28.5 184.5t-28.5 159.5q0 95 41.5 148t102 53t92 -32t31.5 -88t-27.5 -79t-48 -23t-35.5 9t-15 20t5 11t7.5 -3t4.5 -7q7 -10 32.5 -10t41 21.5t15.5 54.5q0 106 -100 106q-53 0 -90 -46t-37 -136
q0 -51 28.5 -161t28.5 -187q0 -225 -185 -225q-81 0 -144 41q-35 22 -55.5 68t-20.5 111v465h-75q-47 0 -70 -20.5t-23 -48.5t13.5 -45.5t37.5 -17.5t35 11t17 21.5t12 10.5t6 -15t-22.5 -31.5t-52.5 -16.5t-48 23t-18 57.5t29.5 63t84.5 28.5zM518 947l-114 -120h-49
l63 120h100z" />
    <glyph glyph-name="Ucircumflex" unicode="&#xdb;" horiz-adv-x="747" 
d="M86 696h175v-476q0 -101 30 -155.5t107 -54.5q147 0 147 211q0 74 -28.5 184.5t-28.5 159.5q0 95 41.5 148t102 53t92 -32t31.5 -88t-27.5 -79t-48 -23t-35.5 9t-15 20t5 11t7.5 -3t4.5 -7q7 -10 32.5 -10t41 21.5t15.5 54.5q0 106 -100 106q-53 0 -90 -46t-37 -136
q0 -51 28.5 -161t28.5 -187q0 -225 -185 -225q-81 0 -144 41q-35 22 -55.5 68t-20.5 111v465h-75q-47 0 -70 -20.5t-23 -48.5t13.5 -45.5t37.5 -17.5t35 11t17 21.5t12 10.5t6 -15t-22.5 -31.5t-52.5 -16.5t-48 23t-18 57.5t29.5 63t84.5 28.5zM405 927l167 -174h-55
l-112 114l-104 -113h-55z" />
    <glyph glyph-name="Udieresis" unicode="&#xdc;" horiz-adv-x="747" 
d="M86 696h175v-476q0 -101 30 -155.5t107 -54.5q147 0 147 211q0 74 -28.5 184.5t-28.5 159.5q0 95 41.5 148t102 53t92 -32t31.5 -88t-27.5 -79t-48 -23t-35.5 9t-15 20t5 11t7.5 -3t4.5 -7q7 -10 32.5 -10t41 21.5t15.5 54.5q0 106 -100 106q-53 0 -90 -46t-37 -136
q0 -51 28.5 -161t28.5 -187q0 -225 -185 -225q-81 0 -144 41q-35 22 -55.5 68t-20.5 111v465h-75q-47 0 -70 -20.5t-23 -48.5t13.5 -45.5t37.5 -17.5t35 11t17 21.5t12 10.5t6 -15t-22.5 -31.5t-52.5 -16.5t-48 23t-18 57.5t29.5 63t84.5 28.5zM243 832q0 22 15.5 37.5
t37.5 15.5t38 -15.5t16 -37.5t-16 -37.5t-38 -15.5t-37.5 15.5t-15.5 37.5zM462 832q0 22 15.5 37.5t37.5 15.5t38 -15.5t16 -37.5t-16 -37.5t-38 -15.5t-37.5 15.5t-15.5 37.5z" />
    <glyph glyph-name="Yacute" unicode="&#xdd;" horiz-adv-x="661" 
d="M346 230q-98 0 -140 71q-23 38 -27 71q-5 40 -5 74.5t-0.5 57t-3 56t-8 51t-14.5 35.5q-18 34 -58 34t-58 -25.5t-18 -52.5t13 -49t45 -22q15 0 28 7t14 7q7 0 7 -11t-18.5 -17t-35.5 -6q-32 0 -52.5 25.5t-20.5 57.5q0 53 32.5 82.5t79 29.5t90 -33.5t56.5 -84.5
q17 -63 17 -210q2 -70 19.5 -99t64.5 -29q89 0 145 84.5t56 198.5q0 62 -27.5 102.5t-77 40.5t-80 -30.5t-30.5 -77.5q0 -23 14 -42t37 -19q9 0 22.5 4t15.5 4q8 0 8 -9q0 -17 -32 -18l-10 -1q-36 0 -55.5 25t-19.5 62q0 55 35.5 89t88.5 34q77 0 107.5 -60t30.5 -165v-299
q0 -82 -62 -132.5t-144.5 -50.5t-140.5 45t-58 115q0 24 7 40t17 16q8 0 8 -8t-6 -23.5t-6 -29.5q0 -54 46.5 -94t103.5 -40t94.5 49.5t37.5 110.5v109q-65 -50 -132 -50zM489 947l-114 -120h-49l63 120h100z" />
    <glyph glyph-name="Thorn" unicode="&#xde;" horiz-adv-x="555" 
d="M194 751v-214q85 63 163 63q58 0 106 -39q27 -22 43.5 -68.5t16.5 -113.5q0 -115 -49 -177t-139 -62q-56 0 -95.5 22.5t-45.5 66.5v-228h-100v750h100zM393 525q-30 46 -74.5 46t-124.5 -61v-251q3 25 17 44q24 33 46 33q8 0 8 -10q0 -5 -18 -17q-34 -24 -34 -61.5
t35.5 -62.5t69.5 -25t54 17.5t29.5 39.5t14.5 60q7 45 7 123.5t-30 124.5z" />
    <glyph glyph-name="germandbls" unicode="&#xdf;" horiz-adv-x="536" 
d="M188 42l-1 5q0 10 9 10q6 0 10 -8q2 -12 20.5 -25.5t54.5 -13.5t63 19.5t39 50.5q22 58 22 118t-23 94.5t-50 41t-50 14t-23 21.5q0 11 17 37q50 82 50 143t-21 86t-54 25t-60 -25.5t-27 -65.5v-679h-100v619q0 88 65.5 138t151.5 50q65 0 100 -32t35 -93
q0 -35 -12 -70.5t-26 -57t-28.5 -39.5t-14.5 -19q4 -3 37 -18.5t59.5 -32.5t50.5 -56.5t24 -92.5q0 -94 -65 -145t-147.5 -51t-105.5 52z" />
    <glyph glyph-name="agrave" unicode="&#xe0;" 
d="M206 -10q-72 0 -127.5 40.5t-55.5 112.5q0 42 20.5 73t52.5 46q59 30 115 30t127 -30q-1 116 -28.5 154.5t-84.5 38.5t-98.5 -21t-41.5 -56q0 -12 -10.5 -12t-10.5 11q0 42 46.5 69.5t137.5 27.5q190 0 190 -224v-250h-100v79q-7 -39 -45 -64t-87 -25zM294 177
q36 -25 44 -69v136q-72 29 -117.5 29t-71.5 -38t-26 -93t21.5 -93.5t65 -38.5t76.5 22.5t33 53.5q0 54 -36 74q-15 9 -15 17t7 8t19 -8zM254 555l-114 120h100l63 -120h-49z" />
    <glyph glyph-name="aacute" unicode="&#xe1;" 
d="M206 -10q-72 0 -127.5 40.5t-55.5 112.5q0 42 20.5 73t52.5 46q59 30 115 30t127 -30q-1 116 -28.5 154.5t-84.5 38.5t-98.5 -21t-41.5 -56q0 -12 -10.5 -12t-10.5 11q0 42 46.5 69.5t137.5 27.5q190 0 190 -224v-250h-100v79q-7 -39 -45 -64t-87 -25zM294 177
q36 -25 44 -69v136q-72 29 -117.5 29t-71.5 -38t-26 -93t21.5 -93.5t65 -38.5t76.5 22.5t33 53.5q0 54 -36 74q-15 9 -15 17t7 8t19 -8zM362 714l-114 -120h-49l63 120h100z" />
    <glyph glyph-name="acircumflex" unicode="&#xe2;" 
d="M206 -10q-72 0 -127.5 40.5t-55.5 112.5q0 42 20.5 73t52.5 46q59 30 115 30t127 -30q-1 116 -28.5 154.5t-84.5 38.5t-98.5 -21t-41.5 -56q0 -12 -10.5 -12t-10.5 11q0 42 46.5 69.5t137.5 27.5q190 0 190 -224v-250h-100v79q-7 -39 -45 -64t-87 -25zM294 177
q36 -25 44 -69v136q-72 29 -117.5 29t-71.5 -38t-26 -93t21.5 -93.5t65 -38.5t76.5 22.5t33 53.5q0 54 -36 74q-15 9 -15 17t7 8t19 -8zM238 694l167 -174h-55l-112 114l-104 -113h-55z" />
    <glyph glyph-name="atilde" unicode="&#xe3;" 
d="M206 -10q-72 0 -127.5 40.5t-55.5 112.5q0 42 20.5 73t52.5 46q59 30 115 30t127 -30q-1 116 -28.5 154.5t-84.5 38.5t-98.5 -21t-41.5 -56q0 -12 -10.5 -12t-10.5 11q0 42 46.5 69.5t137.5 27.5q190 0 190 -224v-250h-100v79q-7 -39 -45 -64t-87 -25zM294 177
q36 -25 44 -69v136q-72 29 -117.5 29t-71.5 -38t-26 -93t21.5 -93.5t65 -38.5t76.5 22.5t33 53.5q0 54 -36 74q-15 9 -15 17t7 8t19 -8zM244 621q19 -22 28.5 -32t27 -20t39 -10t38 15.5t16.5 35.5t-10.5 32t-32 12t-28.5 -25q-2 -6 -4 -6q-7 0 -7 15t14.5 25.5t33.5 10.5
t36.5 -18t17.5 -48t-23 -58.5t-65 -28.5t-83 49q-20 24 -30 35q-30 31 -59.5 31t-46 -15.5t-16.5 -35.5t10.5 -32t32 -12t28.5 25q2 6 4 6q7 0 7 -15t-14.5 -25.5t-33.5 -10.5t-36.5 18t-17.5 48t23 58.5t64.5 28.5t86.5 -53z" />
    <glyph glyph-name="adieresis" unicode="&#xe4;" 
d="M206 -10q-72 0 -127.5 40.5t-55.5 112.5q0 42 20.5 73t52.5 46q59 30 115 30t127 -30q-1 116 -28.5 154.5t-84.5 38.5t-98.5 -21t-41.5 -56q0 -12 -10.5 -12t-10.5 11q0 42 46.5 69.5t137.5 27.5q190 0 190 -224v-250h-100v79q-7 -39 -45 -64t-87 -25zM294 177
q36 -25 44 -69v136q-72 29 -117.5 29t-71.5 -38t-26 -93t21.5 -93.5t65 -38.5t76.5 22.5t33 53.5q0 54 -36 74q-15 9 -15 17t7 8t19 -8zM79 599q0 22 15.5 37.5t37.5 15.5t38 -15.5t16 -37.5t-16 -37.5t-38 -15.5t-37.5 15.5t-15.5 37.5zM298 599q0 22 15.5 37.5t37.5 15.5
t38 -15.5t16 -37.5t-16 -37.5t-38 -15.5t-37.5 15.5t-15.5 37.5z" />
    <glyph glyph-name="aring" unicode="&#xe5;" 
d="M206 -10q-72 0 -127.5 40.5t-55.5 112.5q0 42 20.5 73t52.5 46q59 30 115 30t127 -30q-1 116 -28.5 154.5t-84.5 38.5t-98.5 -21t-41.5 -56q0 -12 -10.5 -12t-10.5 11q0 42 46.5 69.5t137.5 27.5q190 0 190 -224v-250h-100v79q-7 -39 -45 -64t-87 -25zM294 177
q36 -25 44 -69v136q-72 29 -117.5 29t-71.5 -38t-26 -93t21.5 -93.5t65 -38.5t76.5 22.5t33 53.5q0 54 -36 74q-15 9 -15 17t7 8t19 -8zM195 537q-22 22 -22 52.5t22 52.5t52.5 22t52.5 -22t22 -52.5t-22 -52.5t-52.5 -22t-52.5 22zM198 590q0 -20 15 -35t35 -15t35 15
t15 35t-15 35t-35 15t-35 -15t-15 -35z" />
    <glyph glyph-name="ae" unicode="&#xe6;" horiz-adv-x="774" 
d="M335 17q-38 -27 -89.5 -27t-98 15t-83.5 52.5t-37 88.5t35 86q60 61 159 61q52 0 121 -24v68q0 85 -38 105q-17 10 -49.5 10t-61.5 -17.5t-29 -45.5q0 -43 78 -46q7 0 7 -6q0 -12 -27 -12q-61 0 -109.5 17t-48.5 52q0 39 58.5 58.5t122.5 19.5q117 0 166 -69
q68 70 152 70t131.5 -45.5t47.5 -107.5t-51 -110t-134 -48t-116 71q1 -7 2.5 -30t2.5 -36t5.5 -36t10 -37t16.5 -31.5t25 -27.5q34 -24 76.5 -24t77.5 14.5t49 43.5h29q-39 -79 -164 -79q-64 0 -116.5 32t-82.5 86q1 -5 1 -16q0 -48 -38 -75zM309 185q7 0 22 -11t22 -21
q-11 36 -11 73v18q-72 29 -119 29t-71.5 -40t-24.5 -90t34.5 -91.5t80 -41.5t78.5 22.5t33 53.5q0 44 -26 66l-11 7q-14 10 -14 18t7 8zM656 325q0 129 -98 129q-48 0 -78.5 -46.5t-34.5 -112.5q12 28 36.5 45t51 17t26.5 -9.5t-12 -9.5q-46 -3 -67.5 -23t-21.5 -54
t24.5 -57.5t57.5 -23.5q54 0 85 43.5t31 101.5z" />
    <glyph glyph-name="ccedilla" unicode="&#xe7;" horiz-adv-x="457" 
d="M394 99h29q-41 -82 -136 -97v-26q82 -19 82 -81q0 -47 -41 -70t-90 -23q-18 0 -31 4l1 28q9 -4 28 -4q87 0 87 63t-96 63v45q-93 8 -143 74.5t-50 156.5q0 108 69.5 169t158.5 61q64 0 112 -32t48 -88q0 -39 -23 -64.5t-57.5 -25.5t-61 18.5t-26.5 46t10 43.5
q14 22 26.5 22t12.5 -8q0 -5 -5 -8q-24 -16 -24 -40t19.5 -39t42.5 -15t44.5 17.5t21.5 56t-38.5 68.5t-93.5 30q-136 0 -136 -207q0 -97 31.5 -156.5t98.5 -59.5q41 0 78 22.5t52 55.5z" />
    <glyph glyph-name="egrave" unicode="&#xe8;" horiz-adv-x="464" 
d="M228.5 18q21.5 -7 52.5 -7t66 14.5t49 43.5h29q-39 -79 -164 -79q-96 0 -162.5 68.5t-66.5 172t70 173t152.5 69.5t130 -45.5t47.5 -107.5t-51 -110t-134 -48t-116 71q1 -7 2.5 -30t2.5 -36t5.5 -36t10 -37t16.5 -31.5t25 -27.5t35.5 -17zM346 325q0 129 -98 129
q-48 0 -78.5 -46.5t-34.5 -112.5q12 28 36.5 45t51 17t26.5 -9.5t-12 -9.5q-46 -3 -67.5 -23t-21.5 -54t24.5 -57.5t57.5 -23.5q54 0 85 43.5t31 101.5zM262 594l-114 120h100l63 -120h-49z" />
    <glyph glyph-name="eacute" unicode="&#xe9;" horiz-adv-x="464" 
d="M228.5 18q21.5 -7 52.5 -7t66 14.5t49 43.5h29q-39 -79 -164 -79q-96 0 -162.5 68.5t-66.5 172t70 173t152.5 69.5t130 -45.5t47.5 -107.5t-51 -110t-134 -48t-116 71q1 -7 2.5 -30t2.5 -36t5.5 -36t10 -37t16.5 -31.5t25 -27.5t35.5 -17zM346 325q0 129 -98 129
q-48 0 -78.5 -46.5t-34.5 -112.5q12 28 36.5 45t51 17t26.5 -9.5t-12 -9.5q-46 -3 -67.5 -23t-21.5 -54t24.5 -57.5t57.5 -23.5q54 0 85 43.5t31 101.5zM368 714l-114 -120h-49l63 120h100z" />
    <glyph glyph-name="ecircumflex" unicode="&#xea;" horiz-adv-x="464" 
d="M228.5 18q21.5 -7 52.5 -7t66 14.5t49 43.5h29q-39 -79 -164 -79q-96 0 -162.5 68.5t-66.5 172t70 173t152.5 69.5t130 -45.5t47.5 -107.5t-51 -110t-134 -48t-116 71q1 -7 2.5 -30t2.5 -36t5.5 -36t10 -37t16.5 -31.5t25 -27.5t35.5 -17zM346 325q0 129 -98 129
q-48 0 -78.5 -46.5t-34.5 -112.5q12 28 36.5 45t51 17t26.5 -9.5t-12 -9.5q-46 -3 -67.5 -23t-21.5 -54t24.5 -57.5t57.5 -23.5q54 0 85 43.5t31 101.5zM236 694l167 -174h-55l-112 114l-104 -113h-55z" />
    <glyph glyph-name="edieresis" unicode="&#xeb;" horiz-adv-x="464" 
d="M228.5 18q21.5 -7 52.5 -7t66 14.5t49 43.5h29q-39 -79 -164 -79q-96 0 -162.5 68.5t-66.5 172t70 173t152.5 69.5t130 -45.5t47.5 -107.5t-51 -110t-134 -48t-116 71q1 -7 2.5 -30t2.5 -36t5.5 -36t10 -37t16.5 -31.5t25 -27.5t35.5 -17zM346 325q0 129 -98 129
q-48 0 -78.5 -46.5t-34.5 -112.5q12 28 36.5 45t51 17t26.5 -9.5t-12 -9.5q-46 -3 -67.5 -23t-21.5 -54t24.5 -57.5t57.5 -23.5q54 0 85 43.5t31 101.5zM77 599q0 22 15.5 37.5t37.5 15.5t38 -15.5t16 -37.5t-16 -37.5t-38 -15.5t-37.5 15.5t-15.5 37.5zM296 599
q0 22 15.5 37.5t37.5 15.5t38 -15.5t16 -37.5t-16 -37.5t-38 -15.5t-37.5 15.5t-15.5 37.5z" />
    <glyph glyph-name="igrave" unicode="&#xec;" horiz-adv-x="228" 
d="M164 462v-463h-100v463h100zM90 594l-114 120h100l63 -120h-49z" />
    <glyph glyph-name="iacute" unicode="&#xed;" horiz-adv-x="228" 
d="M164 462v-463h-100v463h100zM257 714l-114 -120h-49l63 120h100z" />
    <glyph glyph-name="icircumflex" unicode="&#xee;" horiz-adv-x="228" 
d="M164 462v-463h-100v463h100zM107 694l167 -174h-55l-112 114l-104 -113h-55z" />
    <glyph glyph-name="idieresis" unicode="&#xef;" horiz-adv-x="228" 
d="M164 462v-463h-100v463h100zM-47 599q0 22 15.5 37.5t37.5 15.5t38 -15.5t16 -37.5t-16 -37.5t-38 -15.5t-37.5 15.5t-15.5 37.5zM172 599q0 22 15.5 37.5t37.5 15.5t38 -15.5t16 -37.5t-16 -37.5t-38 -15.5t-37.5 15.5t-15.5 37.5z" />
    <glyph glyph-name="eth" unicode="&#xf0;" horiz-adv-x="562" 
d="M397 740l75 1l-112 -85q71 -54 112.5 -145t41.5 -206q0 -118 -50 -206q-27 -46 -78 -72.5t-116 -26.5t-111 19.5t-72 51.5q-51 63 -51 153.5t61 144.5t151 54q54 0 103.5 -20.5t81.5 -57.5q-1 73 -30 151.5t-82 129.5l-73 -55h-74l111 84q-54 34 -110 35l4 30
q72 0 142 -38zM405 137q0 42 -24 67t-61 25t-52 -21.5t-15 -40t15 -32.5q14 -9 14 -14q0 -8 -10 -8q-15 0 -27 19.5t-12 45t27.5 50.5t77 25t82.5 -12q-8 59 -52 100t-96.5 41t-94 -47t-41.5 -130q0 -102 55 -155q32 -30 81.5 -30t91 30t41.5 87z" />
    <glyph glyph-name="ntilde" unicode="&#xf1;" horiz-adv-x="534" 
d="M195.5 267.5q12.5 -22.5 35 -22.5t35 5.5t14.5 5.5q6 0 6 -8t-11.5 -15.5t-41 -7.5t-48.5 24t-22 53v-302h-99v463h99v-146q4 63 62 109.5t121 46.5q66 0 97.5 -45.5t31.5 -193.5v-234h-100v208q0 118 -12.5 176t-47.5 58q-44 0 -88 -41t-44 -87q0 -24 12.5 -46.5z
M272 621q19 -22 28.5 -32t27 -20t39 -10t38 15.5t16.5 35.5t-10.5 32t-32 12t-28.5 -25q-2 -6 -4 -6q-7 0 -7 15t14.5 25.5t33.5 10.5t36.5 -18t17.5 -48t-23 -58.5t-65 -28.5t-83 49q-20 24 -30 35q-30 31 -59.5 31t-46 -15.5t-16.5 -35.5t10.5 -32t32 -12t28.5 25q2 6 4 6
q7 0 7 -15t-14.5 -25.5t-33.5 -10.5t-36.5 18t-17.5 48t23 58.5t64.5 28.5t86.5 -53z" />
    <glyph glyph-name="ograve" unicode="&#xf2;" horiz-adv-x="565" 
d="M32 231q0 102 70.5 171t181 69t179.5 -65t69 -171q0 -63 -24 -111.5t-62 -75.5q-78 -53 -163 -53q-83 0 -162 55q-39 27 -64 74.5t-25 106.5zM317 295l-29 6q-19 0 -32.5 -16.5t-13.5 -39t20 -44.5t56.5 -22t72 35.5t35.5 100.5t-41.5 100.5t-104.5 35.5q-40 0 -69 -15.5
t-44 -37.5t-23 -56q-12 -50 -12 -116q0 -211 154 -211q91 0 120 69q25 59 25 153q-9 -26 -41.5 -52t-71.5 -26t-67.5 26.5t-28.5 59.5t18 54.5t51.5 21.5t33.5 -19q0 -7 -8 -7zM279 594l-114 120h100l63 -120h-49z" />
    <glyph glyph-name="oacute" unicode="&#xf3;" horiz-adv-x="565" 
d="M32 231q0 102 70.5 171t181 69t179.5 -65t69 -171q0 -63 -24 -111.5t-62 -75.5q-78 -53 -163 -53q-83 0 -162 55q-39 27 -64 74.5t-25 106.5zM317 295l-29 6q-19 0 -32.5 -16.5t-13.5 -39t20 -44.5t56.5 -22t72 35.5t35.5 100.5t-41.5 100.5t-104.5 35.5q-40 0 -69 -15.5
t-44 -37.5t-23 -56q-12 -50 -12 -116q0 -211 154 -211q91 0 120 69q25 59 25 153q-9 -26 -41.5 -52t-71.5 -26t-67.5 26.5t-28.5 59.5t18 54.5t51.5 21.5t33.5 -19q0 -7 -8 -7zM414 714l-114 -120h-49l63 120h100z" />
    <glyph glyph-name="ocircumflex" unicode="&#xf4;" horiz-adv-x="565" 
d="M32 231q0 102 70.5 171t181 69t179.5 -65t69 -171q0 -63 -24 -111.5t-62 -75.5q-78 -53 -163 -53q-83 0 -162 55q-39 27 -64 74.5t-25 106.5zM317 295l-29 6q-19 0 -32.5 -16.5t-13.5 -39t20 -44.5t56.5 -22t72 35.5t35.5 100.5t-41.5 100.5t-104.5 35.5q-40 0 -69 -15.5
t-44 -37.5t-23 -56q-12 -50 -12 -116q0 -211 154 -211q91 0 120 69q25 59 25 153q-9 -26 -41.5 -52t-71.5 -26t-67.5 26.5t-28.5 59.5t18 54.5t51.5 21.5t33.5 -19q0 -7 -8 -7zM285 694l167 -174h-55l-112 114l-104 -113h-55z" />
    <glyph glyph-name="otilde" unicode="&#xf5;" horiz-adv-x="565" 
d="M32 231q0 102 70.5 171t181 69t179.5 -65t69 -171q0 -63 -24 -111.5t-62 -75.5q-78 -53 -163 -53q-83 0 -162 55q-39 27 -64 74.5t-25 106.5zM317 295l-29 6q-19 0 -32.5 -16.5t-13.5 -39t20 -44.5t56.5 -22t72 35.5t35.5 100.5t-41.5 100.5t-104.5 35.5q-40 0 -69 -15.5
t-44 -37.5t-23 -56q-12 -50 -12 -116q0 -211 154 -211q91 0 120 69q25 59 25 153q-9 -26 -41.5 -52t-71.5 -26t-67.5 26.5t-28.5 59.5t18 54.5t51.5 21.5t33.5 -19q0 -7 -8 -7zM290 621q19 -22 28.5 -32t27 -20t39 -10t38 15.5t16.5 35.5t-10.5 32t-32 12t-28.5 -25
q-2 -6 -4 -6q-7 0 -7 15t14.5 25.5t33.5 10.5t36.5 -18t17.5 -48t-23 -58.5t-65 -28.5t-83 49q-20 24 -30 35q-30 31 -59.5 31t-46 -15.5t-16.5 -35.5t10.5 -32t32 -12t28.5 25q2 6 4 6q7 0 7 -15t-14.5 -25.5t-33.5 -10.5t-36.5 18t-17.5 48t23 58.5t64.5 28.5t86.5 -53z
" />
    <glyph glyph-name="odieresis" unicode="&#xf6;" horiz-adv-x="565" 
d="M32 231q0 102 70.5 171t181 69t179.5 -65t69 -171q0 -63 -24 -111.5t-62 -75.5q-78 -53 -163 -53q-83 0 -162 55q-39 27 -64 74.5t-25 106.5zM317 295l-29 6q-19 0 -32.5 -16.5t-13.5 -39t20 -44.5t56.5 -22t72 35.5t35.5 100.5t-41.5 100.5t-104.5 35.5q-40 0 -69 -15.5
t-44 -37.5t-23 -56q-12 -50 -12 -116q0 -211 154 -211q91 0 120 69q25 59 25 153q-9 -26 -41.5 -52t-71.5 -26t-67.5 26.5t-28.5 59.5t18 54.5t51.5 21.5t33.5 -19q0 -7 -8 -7zM128 599q0 22 15.5 37.5t37.5 15.5t38 -15.5t16 -37.5t-16 -37.5t-38 -15.5t-37.5 15.5
t-15.5 37.5zM347 599q0 22 15.5 37.5t37.5 15.5t38 -15.5t16 -37.5t-16 -37.5t-38 -15.5t-37.5 15.5t-15.5 37.5z" />
    <glyph glyph-name="divide" unicode="&#xf7;" horiz-adv-x="510" 
d="M49 260h412v-60h-412v60zM187 395q0 27 19.5 46.5t46.5 19.5t46.5 -19.5t19.5 -46.5t-19.5 -46.5t-46.5 -19.5t-46.5 19.5t-19.5 46.5zM187 67q0 27 19.5 46.5t46.5 19.5t46.5 -19.5t19.5 -46.5t-19.5 -46.5t-46.5 -19.5t-46.5 19.5t-19.5 46.5z" />
    <glyph glyph-name="oslash" unicode="&#xf8;" horiz-adv-x="476" 
d="M140 -49h-68l42 84q-39 36 -61 90t-22 113q0 98 59 166.5t147 68.5q44 0 88 -21l24 48h68l-43 -85q70 -68 70 -172t-58 -180t-148 -76q-36 0 -73 15zM162.5 392.5q-31.5 -60.5 -31.5 -145.5t18 -143l154 304q-29 45 -69 45t-71.5 -60.5zM183 37q24 -30 58.5 -30t59 35.5
t34 84t9.5 104.5t-11 102z" />
    <glyph glyph-name="ugrave" unicode="&#xf9;" horiz-adv-x="533" 
d="M337.5 195.5q-12.5 22.5 -35 22.5t-35 -5.5t-14.5 -5.5q-6 0 -6 8t11.5 15.5t41 7.5t49 -25t21.5 -55v305h99v-463h-99v146q-4 -63 -62 -109.5t-121 -46.5q-66 0 -97.5 45.5t-31.5 193.5v234h100v-208q0 -118 12.5 -176t47.5 -58q44 0 88 41t44 87q0 24 -12.5 46.5z
M240 594l-114 120h100l63 -120h-49z" />
    <glyph glyph-name="uacute" unicode="&#xfa;" horiz-adv-x="533" 
d="M337.5 195.5q-12.5 22.5 -35 22.5t-35 -5.5t-14.5 -5.5q-6 0 -6 8t11.5 15.5t41 7.5t49 -25t21.5 -55v305h99v-463h-99v146q-4 -63 -62 -109.5t-121 -46.5q-66 0 -97.5 45.5t-31.5 193.5v234h100v-208q0 -118 12.5 -176t47.5 -58q44 0 88 41t44 87q0 24 -12.5 46.5z
M409 714l-114 -120h-49l63 120h100z" />
    <glyph glyph-name="ucircumflex" unicode="&#xfb;" horiz-adv-x="533" 
d="M337.5 195.5q-12.5 22.5 -35 22.5t-35 -5.5t-14.5 -5.5q-6 0 -6 8t11.5 15.5t41 7.5t48.5 -24t22 -54v303h99v-463h-99v146q-4 -63 -62 -109.5t-121 -46.5q-66 0 -97.5 45.5t-31.5 193.5v234h100v-208q0 -118 12.5 -176t47.5 -58q44 0 88 41t44 87q0 24 -12.5 46.5z
M259 694l167 -174h-55l-112 114l-104 -113h-55z" />
    <glyph glyph-name="udieresis" unicode="&#xfc;" horiz-adv-x="533" 
d="M337.5 195.5q-12.5 22.5 -35 22.5t-35 -5.5t-14.5 -5.5q-6 0 -6 8t11.5 15.5t41 7.5t49 -25t21.5 -55v305h99v-463h-99v146q-4 -63 -62 -109.5t-121 -46.5q-66 0 -97.5 45.5t-31.5 193.5v234h100v-208q0 -118 12.5 -176t47.5 -58q44 0 88 41t44 87q0 24 -12.5 46.5z
M100 599q0 22 15.5 37.5t37.5 15.5t38 -15.5t16 -37.5t-16 -37.5t-38 -15.5t-37.5 15.5t-15.5 37.5zM319 599q0 22 15.5 37.5t37.5 15.5t38 -15.5t16 -37.5t-16 -37.5t-38 -15.5t-37.5 15.5t-15.5 37.5z" />
    <glyph glyph-name="yacute" unicode="&#xfd;" horiz-adv-x="637" 
d="M343 -3q-98 0 -140 71q-23 38 -27 71q-5 40 -5 120.5t-8.5 136t-42.5 55.5q-42 0 -65.5 -31.5t-23.5 -63.5q0 -76 58 -76q15 0 28 7t14 7q7 0 7 -11.5t-19.5 -17t-36.5 -5.5q-31 0 -51 27.5t-20 61.5q0 55 38 89.5t102 34.5q32 0 54.5 -18t34 -42.5t18.5 -64.5
q8 -51 8 -146t15 -140t69 -45q90 0 147.5 84.5t57.5 195.5q0 68 -24.5 112t-75.5 44q-35 0 -57 -25t-22 -56t14.5 -49.5t36.5 -18.5q9 0 22.5 4t15.5 4q8 0 8 -9q0 -17 -31 -19h-11q-36 0 -55.5 24.5t-19.5 66.5t30 69.5t72 27.5t66 -19t35 -55q19 -62 19 -159v-319
q0 -81 -61 -125.5t-145 -44.5t-141.5 38.5t-57.5 105.5q0 37 12 53q4 6 12 6t8 -10q0 -3 -6 -15t-6 -33q0 -51 47 -87.5t104 -36.5t95.5 44t38.5 103v121q-54 -42 -135 -42zM469 714l-114 -120h-49l63 120h100z" />
    <glyph glyph-name="thorn" unicode="&#xfe;" horiz-adv-x="529" 
d="M164 601v-194q87 63 156 63q57 0 110 -46q28 -25 45.5 -75t17.5 -119q0 -115 -49 -177.5t-139 -62.5q-56 0 -95.5 22.5t-45.5 66.5v-228h-100v750h100zM362 386.5q-31 54.5 -75.5 54.5t-122.5 -61v-271q3 25 17 44q24 33 46 33q8 0 8 -10q0 -5 -18 -17q-34 -24 -34 -61.5
t35.5 -62.5t69.5 -25t54 17.5t29.5 39.5t14.5 60q7 45 7 125t-31 134.5z" />
    <glyph glyph-name="ydieresis" unicode="&#xff;" horiz-adv-x="637" 
d="M343 -3q-98 0 -140 71q-23 38 -27 71q-5 40 -5 120.5t-8.5 136t-42.5 55.5q-42 0 -65.5 -31.5t-23.5 -63.5q0 -76 58 -76q15 0 28 7t14 7q7 0 7 -11.5t-19.5 -17t-36.5 -5.5q-31 0 -51 27.5t-20 61.5q0 55 38 89.5t102 34.5q32 0 54.5 -18t34 -42.5t18.5 -64.5
q8 -51 8 -146t15 -140t69 -45q90 0 147.5 84.5t57.5 195.5q0 68 -24.5 112t-75.5 44q-35 0 -57 -25t-22 -56t14.5 -49.5t36.5 -18.5q9 0 22.5 4t15.5 4q8 0 8 -9q0 -17 -31 -19h-11q-36 0 -55.5 24.5t-19.5 66.5t30 69.5t72 27.5t66 -19t35 -55q19 -62 19 -159v-319
q0 -81 -61 -125.5t-145 -44.5t-141.5 38.5t-57.5 105.5q0 37 12 53q4 6 12 6t8 -10q0 -3 -6 -15t-6 -33q0 -51 47 -87.5t104 -36.5t95.5 44t38.5 103v121q-54 -42 -135 -42zM186 599q0 22 15.5 37.5t37.5 15.5t38 -15.5t16 -37.5t-16 -37.5t-38 -15.5t-37.5 15.5t-15.5 37.5
zM405 599q0 22 15.5 37.5t37.5 15.5t38 -15.5t16 -37.5t-16 -37.5t-38 -15.5t-37.5 15.5t-15.5 37.5z" />
    <glyph glyph-name="OE" unicode="&#x152;" horiz-adv-x="815" 
d="M677.5 652.5q-37.5 23.5 -97.5 23.5t-102 -33.5t-42 -94.5q0 -57 36 -82q36 -27 68 -31q46 -7 79 -7q22 0 22 -19.5t-19 -22.5q-105 -11 -148 -39q-57 -36 -74 -82q-10 -30 -10 -68q0 -88 53.5 -132.5t127 -44.5t133 36.5t59.5 109.5q0 58 -38.5 91.5t-80.5 33.5
q-93 0 -93 -63q0 -20 12.5 -30.5t12.5 -12.5q0 -6 -12.5 -6t-22.5 16.5t-10 39.5t27.5 48.5t79 25.5t98.5 -36.5t47 -111.5t-65.5 -118.5t-153.5 -43.5t-154 28q-42 -27 -99 -27t-103 19.5t-74.5 51.5t-47.5 77q-32 79 -32 191q0 39 3.5 76.5t19.5 92t43 93.5t79 67.5
t119 28.5t115 -34q67 33 137 33q48 0 88 -14q77 -28 77 -91q0 -33 -19.5 -50t-48.5 -17t-51 16.5t-22 31.5t6.5 15t11.5 -11q15 -32 52 -32q51 0 51 46q0 39 -37.5 62.5zM323 20q37 0 58 22q-91 52 -91 146q0 137 212 212q-68 5 -116.5 43.5t-48.5 99t69 105.5
q-23 29 -73.5 29t-82 -24.5t-49.5 -61t-29 -87.5q-18 -82 -18 -179q0 -305 169 -305z" />
    <glyph glyph-name="oe" unicode="&#x153;" horiz-adv-x="697" 
d="M255 473q61 0 108 -29q47 29 101 29q48 0 108 -23q37 -13 61 -47t24 -77.5t-14.5 -72t-35.5 -44t-49 -25.5q-45 -16 -91 -16q-102 0 -113 75q-1 -10 -1 -29q0 -96 30 -145t86 -49q29 0 48 12.5t27 31.5t11 36q4 24 4 52h99q0 -152 -180 -152q-66 0 -111 20
q-39 -23 -109 -23q-117 0 -170 68t-53 172t55 170t165 66zM262 17q38 0 58 31q-67 56 -67 175.5t70 189.5q-29 40 -67 40q-54 0 -87.5 -59.5t-33.5 -154t33 -158.5t94 -64zM393 341q24 18 50.5 18t26.5 -13q-1 -8 -12 -8q-85 -6 -85 -73q0 -38 22 -56.5t58 -18.5t70 34
t34 99q0 130 -77 130q-43 0 -76 -42t-45 -117q10 29 34 47z" />
    <glyph glyph-name="Scaron" unicode="&#x160;" horiz-adv-x="535" 
d="M295 800h52l-86 -90l-83 90h51l32 -50zM179 343q-56 19 -83 57t-27 104q0 92 70 147.5t142.5 55.5t128 -32.5t55.5 -88.5q0 -34 -21 -52t-50.5 -18t-47 16.5t-17.5 31t5.5 14.5t9.5 -6.5t7 -14.5q8 -21 34.5 -21t42 13t15.5 37q0 44 -49 72t-111 28t-116 -38t-54 -96
q0 -39 27.5 -64.5t62 -36.5t90 -26t86.5 -29q108 -48 108 -173q0 -63 -23.5 -111t-59.5 -73q-71 -48 -143 -48q-66 0 -136 41q-34 20 -56 56t-22 84.5t26.5 71t47 22.5t35.5 -9t15 -20t-5 -11t-7.5 3t-4.5 7q-7 10 -32.5 10t-41 -21.5t-15.5 -54.5q0 -72 61 -115.5
t131 -43.5q96 0 153 65q33 39 33 100t-41.5 91.5t-116.5 48t-106 27.5z" />
    <glyph glyph-name="scaron" unicode="&#x161;" horiz-adv-x="438" 
d="M93 23.5q-60 33.5 -60 93.5q0 16 8 30t20.5 14t19.5 -8t7 -16t-10 -22.5t-10 -23.5q0 -31 53 -56t101.5 -25t94 32t45.5 81q0 45 -50 63q-32 13 -109 25.5t-120 41.5t-43 90q0 37 19 64t49 41q59 27 116.5 27t102 -20t58.5 -50q6 -14 6 -24q0 -24 -25 -24q-27 0 -28 33
q-2 37 -29 51q-34 14 -85.5 14t-94.5 -24.5t-43 -62.5q0 -46 83 -52q83 -5 154 -29q36 -12 59.5 -45.5t23.5 -81t-17 -80.5t-45 -52q-56 -38 -123.5 -38t-127.5 33.5zM369 694l-167 -134l-159 133h55l104 -93l112 94h55z" />
    <glyph glyph-name="Ydieresis" unicode="&#x178;" horiz-adv-x="661" 
d="M346 230q-98 0 -140 71q-23 38 -27 71q-5 40 -5 74.5t-0.5 57t-3 56t-8 51t-14.5 35.5q-18 34 -58 34t-58 -25.5t-18 -52.5t13 -49t45 -22q15 0 28 7t14 7q7 0 7 -11t-18.5 -17t-35.5 -6q-32 0 -52.5 25.5t-20.5 57.5q0 53 32.5 82.5t79 29.5t90 -33.5t56.5 -84.5
q17 -63 17 -210q2 -70 19.5 -99t64.5 -29q89 0 145 84.5t56 198.5q0 62 -27.5 102.5t-77 40.5t-80 -30.5t-30.5 -77.5q0 -23 14 -42t37 -19q9 0 22.5 4t15.5 4q8 0 8 -9q0 -17 -32 -18l-10 -1q-36 0 -55.5 25t-19.5 62q0 55 35.5 89t88.5 34q77 0 107.5 -60t30.5 -165v-299
q0 -82 -62 -132.5t-144.5 -50.5t-140.5 45t-58 115q0 24 7 40t17 16q8 0 8 -8t-6 -23.5t-6 -29.5q0 -54 46.5 -94t103.5 -40t94.5 49.5t37.5 110.5v109q-65 -50 -132 -50zM149 832q0 22 15.5 37.5t37.5 15.5t38 -15.5t16 -37.5t-16 -37.5t-38 -15.5t-37.5 15.5t-15.5 37.5z
M368 832q0 22 15.5 37.5t37.5 15.5t38 -15.5t16 -37.5t-16 -37.5t-38 -15.5t-37.5 15.5t-15.5 37.5z" />
    <glyph glyph-name="Zcaron" unicode="&#x17d;" horiz-adv-x="643" 
d="M371 800h52l-86 -90l-83 90h51l32 -50zM165 21l249 -1q84 0 128.5 44t44.5 102.5t-30.5 97.5t-82.5 39q-34 0 -56 -15.5t-22 -44.5q0 -27 15 -33q5 -2 5 -4q0 -9 -7 -9q-15 0 -24 14.5t-9 35.5t22.5 47.5t78.5 26.5t93.5 -43.5t37.5 -111t-52 -117t-168 -49.5h-359
q-7 0 -7 7t9 16l402 651h-271q-47 0 -70 -20.5t-23 -47.5t12.5 -45t36.5 -18t37.5 10.5t17.5 21.5t8 11q9 0 9 -6q0 -24 -22.5 -40.5t-53 -16.5t-48 23t-17.5 57.5t29.5 63.5t84.5 29h406q8 0 8 -4t-10 -19z" />
    <glyph glyph-name="zcaron" unicode="&#x17e;" horiz-adv-x="484" 
d="M27 0q-7 0 -7 7t9 16l278 418h-159q-47 0 -69 -20t-22 -48t13 -45.5t36.5 -17.5t34.5 11t17 21.5t12 10.5t6 -15t-22.5 -31.5t-52.5 -16.5t-48 23t-18 57.5t29.5 63.5t84.5 29h289q8 0 8 -4t-10 -19l-294 -418h205q47 0 69 20t22 48t-13 45.5t-36.5 17.5t-34.5 -10.5
t-17 -21.5t-12 -11t-6 15t22.5 31.5t52.5 16.5t48 -23t18 -57.5t-29.5 -63.5t-84.5 -29h-319zM489 694l-167 -134l-159 133h55l104 -93l112 94h55z" />
    <glyph glyph-name="florin" unicode="&#x192;" horiz-adv-x="451" 
d="M46 401v20h101v97q0 110 65.5 171t135.5 61q46 0 80.5 -28t34.5 -72t-26.5 -67.5t-59 -23.5t-55 17.5t-22.5 41t7.5 39.5t17.5 16t10 -7q0 -3 -7.5 -12.5t-7.5 -30.5t19 -33t42.5 -12t42.5 20.5t19 54t-30 57t-69 23.5q-56 0 -76.5 -56.5t-20.5 -184.5v-71h100v-20h-99
v-309q0 -40 -11.5 -82.5t-27 -70t-46.5 -48.5t-70 -21t-65 14t-37 33q-5 8 -5 13q0 11 9 11q5 0 17 -15q30 -36 61 -36q75 0 75 201v310h-102z" />
    <glyph glyph-name="circumflex" unicode="&#x2c6;" horiz-adv-x="384" 
d="M189 694l167 -174h-55l-112 114l-104 -113h-55z" />
    <glyph glyph-name="tilde" unicode="&#x2dc;" horiz-adv-x="396" 
d="M199 621q19 -22 28.5 -32t27 -20t39 -10t38 15.5t16.5 35.5t-10.5 32t-32 12t-28.5 -25q-2 -6 -4 -6q-7 0 -7 15t14.5 25.5t33.5 10.5t36.5 -18t17.5 -48t-23 -58.5t-65 -28.5t-83 49q-20 24 -31 35q-29 31 -58.5 31t-46 -15.5t-16.5 -35.5t10.5 -32t32 -12t28.5 25
q2 6 4 6q7 0 7 -15t-14.5 -25.5t-33.5 -10.5t-36.5 18t-17.5 48t23 58.5t64.5 28.5t86.5 -53z" />
    <glyph glyph-name="endash" unicode="&#x2013;" horiz-adv-x="500" 
d="M51 300h398v-60h-398v60z" />
    <glyph glyph-name="emdash" unicode="&#x2014;" horiz-adv-x="619" 
d="M28 300h558v-60h-558v60z" />
    <glyph glyph-name="quoteleft" unicode="&#x2018;" horiz-adv-x="197" 
d="M170 617q0 -27 -19.5 -46.5t-51.5 -19.5t-51 28t-19 64.5t28 71.5t65 35q17 0 17 -11q0 -8 -9 -10q-48 -15 -48 -53q13 8 31.5 8t37.5 -20t19 -47z" />
    <glyph glyph-name="quoteright" unicode="&#x2019;" horiz-adv-x="189" 
d="M24 684q0 27 19.5 46.5t51.5 19.5t51 -28t19 -64.5t-28 -71.5t-65 -35q-17 0 -17 11q0 8 9 10q48 15 48 53q-13 -8 -31.5 -8t-37.5 20t-19 47z" />
    <glyph glyph-name="quotesinglbase" unicode="&#x201a;" horiz-adv-x="213" 
d="M36 66q0 27 19.5 46.5t51.5 19.5t51 -28t19 -64.5t-28 -71.5t-65 -35q-17 0 -17 11q0 8 9 10q48 15 48 53q-13 -8 -31.5 -8t-37.5 20t-19 47z" />
    <glyph glyph-name="quotedblleft" unicode="&#x201c;" horiz-adv-x="426" 
d="M170 617q0 -27 -19.5 -46.5t-51.5 -19.5t-51 28t-19 64.5t28 71.5t65 35q17 0 17 -11q0 -8 -9 -10q-48 -15 -48 -53q13 8 31.5 8t37.5 -20t19 -47zM399 617q0 -27 -19.5 -46.5t-51.5 -19.5t-51 28t-19 64.5t28 71.5t65 35q17 0 17 -11q0 -8 -9 -10q-48 -15 -48 -53
q13 8 31.5 8t37.5 -20t19 -47z" />
    <glyph glyph-name="quotedblright" unicode="&#x201d;" horiz-adv-x="418" 
d="M253 684q0 27 19.5 46.5t51.5 19.5t51 -28t19 -64.5t-28 -71.5t-65 -35q-17 0 -17 11q0 8 9 10q48 15 48 53q-13 -8 -31.5 -8t-37.5 20t-19 47zM24 684q0 27 19.5 46.5t51.5 19.5t51 -28t19 -64.5t-28 -71.5t-65 -35q-17 0 -17 11q0 8 9 10q48 15 48 53q-13 -8 -31.5 -8
t-37.5 20t-19 47z" />
    <glyph glyph-name="quotedblbase" unicode="&#x201e;" horiz-adv-x="433" 
d="M36 66q0 27 19.5 46.5t51.5 19.5t51 -28t19 -65t-28.5 -71.5t-61.5 -34.5q-20 0 -20 11q0 7 12 11t20 8.5t16.5 16t8.5 27.5q-13 -8 -31.5 -8t-37.5 20t-19 47zM256 66q0 27 19.5 46.5t51.5 19.5t51 -28t19 -65t-28.5 -71.5t-61.5 -34.5q-20 0 -20 11q0 7 12 11t20 8.5
t16.5 16t8.5 27.5q-13 -8 -31.5 -8t-37.5 20t-19 47z" />
    <glyph glyph-name="dagger" unicode="&#x2020;" horiz-adv-x="380" 
d="M220 300h121v-60h-121v-440h-60v440h-121v60h121v430h60v-430z" />
    <glyph glyph-name="daggerdbl" unicode="&#x2021;" horiz-adv-x="478" 
d="M269 410h176v-60h-176v-106h176v-60h-176v-384h-60v384h-176v60h176v106h-176v60h176v320h60v-320z" />
    <glyph glyph-name="bullet" unicode="&#x2022;" horiz-adv-x="334" 
d="M84 300q0 34 24.5 58.5t58.5 24.5t58.5 -24.5t24.5 -58.5t-24.5 -58.5t-58.5 -24.5t-58.5 24.5t-24.5 58.5z" />
    <glyph glyph-name="ellipsis" unicode="&#x2026;" horiz-adv-x="544" 
d="M37 64q0 27 19.5 46.5t46.5 19.5t46.5 -19.5t19.5 -46.5t-19.5 -46.5t-46.5 -19.5t-46.5 19.5t-19.5 46.5zM206 64q0 27 19.5 46.5t46.5 19.5t46.5 -19.5t19.5 -46.5t-19.5 -46.5t-46.5 -19.5t-46.5 19.5t-19.5 46.5zM375 64q0 27 19.5 46.5t46.5 19.5t46.5 -19.5
t19.5 -46.5t-19.5 -46.5t-46.5 -19.5t-46.5 19.5t-19.5 46.5z" />
    <glyph glyph-name="perthousand" unicode="&#x2030;" horiz-adv-x="1019" 
d="M101 445q0 -44 20 -83.5t63 -39.5t63 39.5t20 83.5t-20 83.5t-63 39.5t-63 -39.5t-20 -83.5zM40 445q0 59 42.5 101t101 42t101 -42t42.5 -101t-42 -101.5t-101 -42.5t-101.5 42.5t-42.5 101.5zM360 145q0 59 42.5 101t101 42t101 -42t42.5 -101t-42 -101.5t-101 -42.5
t-101.5 42.5t-42.5 101.5zM502 595h68l-395 -600h-68zM421 145q0 -44 20 -83.5t63 -39.5t63 39.5t20 83.5t-20 83.5t-63 39.5t-63 -39.5t-20 -83.5zM700 145q0 59 42.5 101t101 42t101 -42t42.5 -101t-42 -101.5t-101 -42.5t-101.5 42.5t-42.5 101.5zM761 145
q0 -44 20 -83.5t63 -39.5t63 39.5t20 83.5t-20 83.5t-63 39.5t-63 -39.5t-20 -83.5z" />
    <glyph glyph-name="guilsinglleft" unicode="&#x2039;" horiz-adv-x="353" 
d="M296 23l-277 277l277 269v-85l-177 -184l177 -192v-85z" />
    <glyph glyph-name="guilsinglright" unicode="&#x203a;" horiz-adv-x="353" 
d="M334 300l-277 -277v85l177 192l-177 184v85z" />
    <glyph glyph-name="Euro" unicode="&#x20ac;" horiz-adv-x="571" 
d="M47 440h53q20 114 81 185.5t166 71.5q119 0 181 -97h-89q-35 77 -99 77q-40 0 -70 -37q-53 -64 -70 -200h259v-60h-265q-2 -20 -2 -47t2 -59h265v-60h-258q16 -87 52.5 -140.5t83.5 -53.5q59 0 103 81h86q-73 -101 -189 -101q-83 0 -146 54t-87 160h-57v60h48
q-3 27 -3 58.5t1 47.5h-46v60z" />
    <glyph glyph-name="trademark" unicode="&#x2122;" horiz-adv-x="954" 
d="M413 395l-18 4q-32 0 -32 -34t22.5 -49.5t54 -15.5t54.5 22.5t23 73.5v299h78l86 -295l88 294h77v-440q0 -29 31 -29q12 0 18 5t8.5 5t2.5 -6q0 -16 -35 -16t-60 17t-25 48v399l-117 -393q-2 -7 -7 -7t-7 8l-118 390v-263q0 -73 -29 -102.5t-70.5 -29.5t-68 22.5
t-26.5 56t16 47t29 13.5q30 0 30 -20q0 -4 -5 -4zM312 300h-59v377h-87q-47 0 -69 -21t-22 -55q0 -57 51 -57q33 0 50 32q6 11 12 11t6 -15t-22.5 -31.5t-52.5 -16.5t-48 23t-18 57.5t29.5 63t84.5 28.5h305v-20h-160v-376z" />
    <glyph glyph-name="e.ss01" horiz-adv-x="454" 
d="M369 196.5q-50 -44.5 -108.5 -44.5t-89.5 26t-36 65q-1 -10 -1 -29q0 -194 124 -194q54 0 87 29t33 51h42q-9 -26 -32 -51q-46 -48 -141 -48q-59 0 -102.5 19.5t-66.5 53.5q-44 65 -44 151q0 110 62 179t145.5 69t130.5 -50t47 -116t-50 -110.5zM172.5 339.5
q24.5 19.5 51.5 19.5t27 -13q-2 -8 -12 -8q-39 -3 -62 -22.5t-23 -55t27.5 -59.5t77 -24t91 36t41.5 95.5t-36 102t-87 42.5t-84.5 -43t-44.5 -121q9 31 33.5 50.5z" />
    <glyph glyph-name="a.ss01" horiz-adv-x="497" 
d="M296 13q-37 -23 -99 -23t-117.5 40.5t-55.5 112.5q0 42 20.5 73t51.5 46q62 31 118 31t125 -24q-3 96 -32.5 141t-88.5 45q-44 0 -80 -21.5t-53 -56.5h-29q51 99 183 99q100 0 150 -54t50 -172v-250h-100v77q-6 -41 -43 -64zM295 177q36 -25 44 -69v136q-72 29 -117.5 29
t-71.5 -38t-26 -93t21.5 -93.5t65 -38.5t76.5 22.5t33 53.5q0 44 -26 66l-10 7q-15 10 -15 18t7 8t19 -8z" />
    <glyph glyph-name="_0141" horiz-adv-x="0" 
 />
    </font>
</defs>
</svg>
