<?xml version="1.0" standalone="no"?>
<!DOCTYPE svg PUBLIC "-//W3C//DTD SVG 1.1//EN" "http://www.w3.org/Graphics/SVG/1.1/DTD/svg11.dtd" >
<svg xmlns="http://www.w3.org/2000/svg" xmlns:xlink="http://www.w3.org/1999/xlink" version="1.1">
<metadata>
Created by FontForge 20170924 at Fri Jan 27 11:09:51 2012
 By Glenn,,,
Copyright (c) 2011 TypeSETit, LLC (typesetit@att.net), with Reserved Font Name "Allura"
</metadata>
<defs>
<font id="Allura-Regular" horiz-adv-x="226" >
  <font-face
    font-family="Allura"
    font-weight="400"
    font-stretch="normal"
    units-per-em="1000"
    panose-1="2 0 0 0 0 0 0 0 0 0"
    ascent="800"
    descent="-200"
    x-height="262"
    cap-height="578"
    bbox="-360.083 -450 1163.92 800"
    underline-thickness="24"
    underline-position="-156"
    stemh="25"
    stemv="35"
    unicode-range="U+0020-FB06"
  />
<missing-glyph horiz-adv-x="219"
 />
    <glyph glyph-name=".notdef" horiz-adv-x="219"
 />
    <glyph glyph-name="space" unicode=" " horiz-adv-x="219"
 />
    <glyph glyph-name="exclam" unicode="!" horiz-adv-x="162"
d="M150 150c32 93 81 215 120 305c24 57 42 104 52 115c12 13 48 -13 48 -32c0 -14 -8 -38 -24 -66c-7 -13 -16 -14 -22 -27c-50 -96 -107 -197 -140 -301c-4 -11 -45 -25 -34 6zM155 27c0 -9 -19 -39 -28 -39c-13 0 -33 0 -33 16c0 5 27 30 32 34c34 25 29 5 29 -11z" />
    <glyph glyph-name="quotedbl" unicode="&#x22;" horiz-adv-x="256"
d="M122 397c-6 -27 -17 -54 -27 -94c-4 -19 -20 -14 -18 4c5 25 4 87 4 96c1 32 -14 57 30 57c38 0 15 -47 11 -63zM235 397c-6 -27 -18 -54 -26 -94c-5 -19 -22 -14 -19 4c4 25 4 87 5 96c0 32 -15 57 30 57c36 0 14 -47 10 -63z" />
    <glyph glyph-name="numbersign" unicode="#" horiz-adv-x="775"
d="M730 363v-1c-8 -3 -90 -4 -193 -5l-66 -198c80 -1 144 -2 156 -2c50 -2 74 -15 35 -25v-2c-7 -2 -95 -3 -202 -5l-34 -105c-12 -45 -34 -38 -39 -17c-2 7 13 56 34 122l-202 -2l-33 -99c-12 -44 -34 -37 -39 -16c-2 6 12 51 33 115c-65 -1 -113 -1 -125 -3
c-46 -2 -48 20 -29 32c6 5 76 7 165 7c20 60 44 130 68 195c-70 -1 -123 -1 -137 -2c-46 -3 -47 20 -28 31c6 5 82 7 177 7l68 188c17 46 37 65 35 25l1 -1c-1 -8 -31 -102 -68 -212c68 2 140 0 205 0c33 93 62 169 67 183c18 47 37 65 35 25h1c-1 -8 -31 -100 -66 -208
c75 -1 133 -2 146 -2c50 -1 74 -15 35 -25zM501 357l-206 -3l-65 -195c66 1 137 0 202 0c20 61 45 131 69 198z" />
    <glyph glyph-name="dollar" unicode="$" horiz-adv-x="436"
d="M407 527c-6 -9 -15 -20 -23 -34c31 -11 60 -33 58 -68c-1 -56 -61 -105 -107 -123c-19 -8 -13 5 -5 12c15 14 42 39 62 66c33 45 35 80 -23 90c-44 -67 -109 -171 -167 -276c35 -39 69 -76 68 -106c-1 -44 -83 -49 -116 -45c-5 1 -14 2 -24 6c-9 -19 -18 -37 -24 -54
c-9 -20 -41 -27 -37 -8c2 11 13 37 31 72c-21 10 -40 21 -39 35c0 4 4 6 6 5c10 -4 27 -9 47 -12c16 32 36 71 58 111c-38 39 -80 90 -78 149c3 116 150 168 248 155h4c9 13 16 25 20 28c13 14 53 12 41 -3zM192 177c-16 -32 -32 -63 -47 -94c44 -3 87 5 89 40
c0 12 -18 30 -42 54zM182 217c52 93 108 193 147 256c-87 -6 -205 -69 -207 -155c-1 -31 28 -66 60 -101z" />
    <glyph glyph-name="percent" unicode="%" horiz-adv-x="464"
d="M369 84c8 24 22 81 -22 80c-36 -1 -67 -47 -77 -76c-9 -25 -20 -81 24 -80c36 0 65 47 75 76zM412 115c-7 -66 -67 -127 -121 -128c-50 -2 -67 32 -64 72c9 75 69 121 127 123c32 0 65 -17 58 -67zM236 518c45 -19 123 -13 158 12c13 13 68 13 56 -3
c-61 -73 -260 -348 -350 -532c-10 -20 -44 -27 -39 -8c15 50 238 397 311 512c-37 -12 -86 -15 -122 -4c1 -7 2 -17 1 -28c-9 -67 -69 -128 -122 -129c-50 -1 -68 32 -63 71c9 76 69 123 126 124c15 0 32 -4 44 -15zM207 434c9 25 22 83 -22 81c-36 0 -66 -48 -76 -76
c-9 -25 -22 -82 22 -81c38 1 66 49 76 76z" />
    <glyph glyph-name="ampersand" unicode="&#x26;" horiz-adv-x="697"
d="M546 520c-6 -7 -22 -16 -36 -30c-25 -23 -46 -57 -30 -82c4 -6 -5 -14 -15 -3c-8 9 -9 57 7 88l3 5c-25 27 -79 56 -125 45c-106 -25 -48 -198 -4 -254c19 -25 15 -31 -6 -34c-61 -7 -125 -32 -159 -50c-155 -77 -105 -247 83 -228c120 12 237 71 278 207
c12 38 9 84 2 98c-39 -23 -83 -45 -119 -67c-35 -21 -130 -111 -85 -146c11 -10 14 -20 -5 -14c-28 9 -35 75 -14 117c15 27 43 46 81 68c104 62 259 110 235 167c-3 8 5 8 10 0c19 -45 -27 -83 -90 -119c17 -18 43 -63 37 -103c-29 -155 -210 -218 -340 -228
c-258 -20 -277 225 -97 293c68 25 134 18 170 23c-62 52 -145 169 -90 247c27 38 127 57 170 45c24 -6 62 -27 80 -50c12 14 25 27 39 28c16 4 36 -8 20 -23z" />
    <glyph glyph-name="quoteright" unicode="&#x2019;" horiz-adv-x="235"
d="M227 562c0 -14 -20 -45 -42 -73c-28 -32 -56 -62 -64 -67c-11 -8 -11 2 -11 6c0 1 11 15 22 27c20 23 38 48 47 77c11 33 -8 28 -5 52c7 10 22 10 27 10c16 0 26 -21 26 -32z" />
    <glyph glyph-name="parenleft" unicode="(" horiz-adv-x="380"
d="M455 562c22 5 19 -15 -3 -23c-142 -46 -280 -165 -336 -326c-37 -110 -42 -259 5 -354c11 -21 -34 -45 -45 -24c-64 123 -57 282 1 410c77 167 230 285 378 317z" />
    <glyph glyph-name="parenright" unicode=")" horiz-adv-x="517"
d="M-21 -165c-22 -5 -19 15 2 22c143 46 280 166 336 327c39 110 43 259 -5 354c-11 21 34 45 45 24c64 -124 58 -282 -1 -410c-76 -168 -230 -285 -377 -317z" />
    <glyph glyph-name="asterisk" unicode="*" horiz-adv-x="644"
d="M167 209c2 5 13 18 30 39c17 17 38 42 63 74c-56 -2 -106 -2 -120 -3c-23 -1 -31 6 -33 13c-1 8 8 17 17 22c10 5 76 6 145 6c-20 32 -48 85 -55 105c-13 37 23 58 42 18c4 -11 26 -55 44 -103c44 52 91 107 100 118c7 10 14 15 20 17c5 3 11 3 14 -3
c3 -8 -2 -23 -10 -34c-24 -33 -38 -54 -89 -118c61 -1 130 0 144 0c81 -2 37 -30 2 -32c-9 -1 -79 -4 -155 -5c20 -59 49 -108 53 -116c6 -18 2 -30 -5 -32c-5 -2 -18 4 -32 28c-3 5 -13 26 -25 49c-10 18 -20 38 -27 51c-43 -54 -64 -85 -74 -98c-14 -17 -26 -23 -36 -21
c-11 4 -15 15 -13 25z" />
    <glyph glyph-name="plus" unicode="+" horiz-adv-x="615"
d="M380 338c16 30 42 26 25 -13l-58 -130h174c41 0 35 -26 1 -28c-22 -3 -103 -4 -188 -5l-75 -173c-8 -19 -58 -35 -38 8l76 165c-86 -3 -166 -3 -182 -4c-46 -1 -11 36 9 36h188c30 66 58 126 68 144z" />
    <glyph glyph-name="comma" unicode="," horiz-adv-x="179"
d="M151 9c0 -14 -21 -45 -44 -72c-26 -34 -55 -63 -62 -68c-11 -7 -11 3 -11 6c0 2 10 14 22 28c19 22 36 46 45 76c11 34 -11 29 -4 53c4 12 23 10 28 10c16 0 26 -22 26 -33z" />
    <glyph glyph-name="hyphen" unicode="-" horiz-adv-x="377"
d="M325 167c-46 -4 -125 -8 -159 -9c-46 -3 -11 36 10 36s106 1 148 1c32 0 55 -6 55 -12c0 -13 -45 -15 -54 -16z" />
    <glyph glyph-name="period" unicode="." horiz-adv-x="181"
d="M155 27c0 -9 -19 -39 -28 -39c-13 0 -33 0 -33 16c0 5 27 30 32 34c34 25 29 5 29 -11z" />
    <glyph glyph-name="slash" unicode="/" horiz-adv-x="467"
d="M450 527c-68 -74 -286 -348 -391 -532c-12 -20 -45 -27 -39 -8c20 56 346 500 391 543c15 14 53 13 39 -3z" />
    <glyph glyph-name="zero" unicode="0" horiz-adv-x="550"
d="M522 195c-55 -133 -175 -237 -315 -230c-197 12 -215 288 -62 444c54 55 161 110 231 101c25 -2 46 -20 50 -41c3 -12 -2 -27 -7 -19c-12 18 -35 23 -52 23c-77 0 -163 -61 -220 -141c-80 -113 -92 -340 63 -340c105 0 221 105 267 231c42 114 34 204 -20 255
c-30 29 -73 42 -121 42c-51 0 -27 24 0 23c49 -3 103 -20 140 -53c75 -62 94 -178 46 -295z" />
    <glyph glyph-name="one" unicode="1" horiz-adv-x="312"
d="M275 13c15 -3 16 -19 -9 -19c-35 0 -76 3 -116 -1v-1c-6 -7 -28 -14 -34 -4c-36 -6 -72 -15 -107 -21c-19 -4 -7 31 20 38c15 5 33 5 55 8c10 0 21 1 33 2c17 78 98 289 154 419c-36 -35 -82 -75 -120 -100c-14 -9 -22 -1 -2 16c28 24 62 57 91 89c25 28 50 58 71 88
c15 20 66 -5 60 -17c-82 -162 -186 -382 -216 -493c41 1 85 1 120 -4z" />
    <glyph glyph-name="two" unicode="2" horiz-adv-x="584"
d="M382 17c58 -8 150 -3 160 31c5 16 24 16 18 -3c-5 -18 -28 -33 -43 -45c-48 -35 -103 -32 -160 -22c-25 5 -195 49 -216 57c-6 -7 -84 -80 -82 -46c1 65 46 81 102 78c80 47 214 128 301 218c144 149 39 245 -121 204c-31 -9 -165 -55 -139 -109c5 -11 2 -27 -12 -13
c-6 5 -10 11 -14 20c-34 70 120 128 166 137c203 40 358 -67 175 -245c-90 -87 -233 -167 -323 -215c70 -11 148 -42 188 -47z" />
    <glyph glyph-name="three" unicode="3" horiz-adv-x="561"
d="M290 270c-36 4 -29 47 5 40c42 -8 100 -7 147 23c37 24 53 55 53 82c0 43 -40 80 -104 82c-51 0 -147 -28 -147 -92c0 -11 -22 -22 -22 -5c0 83 83 128 187 128c66 0 125 -25 140 -80c15 -56 -23 -130 -113 -159c51 -2 91 -39 91 -96c0 -143 -171 -233 -300 -233
c-58 0 -145 12 -146 97c0 12 3 23 8 35c11 26 42 13 37 -4c-4 -10 -5 -20 -5 -31c4 -58 66 -78 108 -78c107 1 240 98 240 218c0 37 -28 70 -85 85c-37 -2 -70 -14 -94 -12z" />
    <glyph glyph-name="four" unicode="4" horiz-adv-x="469"
d="M255 -37v-3c-6 -6 -28 -13 -34 -2c-4 27 24 116 59 211l-151 15c-32 4 -58 0 -75 -12c-22 -17 -44 -33 -44 -20c0 22 12 45 39 60l176 127c84 61 162 141 199 184c13 17 15 32 41 17c14 -7 25 -21 20 -30c-44 -90 -101 -193 -149 -300c59 4 145 25 155 60
c5 17 24 20 18 -1c-5 -19 -28 -39 -43 -52c-45 -40 -96 -50 -149 -50c-28 -70 -51 -139 -62 -204zM110 227c62 5 136 -10 186 -15c36 97 75 192 89 222c-15 -15 -91 -79 -148 -121c-52 -40 -87 -60 -127 -86z" />
    <glyph glyph-name="five" unicode="5" horiz-adv-x="547"
d="M217 325c30 20 87 25 128 25c75 0 171 -23 171 -120c0 -166 -199 -271 -349 -271c-68 0 -170 14 -170 113c0 13 3 27 9 40c13 30 50 16 43 -5c-4 -12 -5 -24 -5 -35c3 -68 77 -92 125 -90c126 1 280 112 280 252c0 98 -113 106 -184 83c-50 -17 -88 -62 -109 -67
c-14 -3 -20 7 -2 38c38 66 90 146 115 177c-9 17 -28 43 2 49c15 4 31 5 48 6c62 5 193 7 266 -2c20 -3 20 -26 -13 -26c-78 0 -225 -2 -261 -23c-10 -6 -34 -41 -57 -84c-9 -13 -29 -45 -37 -60z" />
    <glyph glyph-name="six" unicode="6" horiz-adv-x="516"
d="M394 169c11 84 -44 113 -90 111c-32 -1 -58 -20 -80 -38c-9 -8 -27 -4 -10 13c20 24 66 45 107 45c66 2 136 -33 125 -126c-14 -110 -122 -205 -231 -205c-180 0 -183 180 -114 318c61 122 185 221 271 240c58 12 155 -4 135 -129c-2 -13 -22 -10 -21 -3
c15 107 -74 114 -115 104c-71 -16 -159 -109 -209 -221c-46 -103 -78 -283 73 -283c91 0 149 95 159 174z" />
    <glyph glyph-name="seven" unicode="7" horiz-adv-x="417"
d="M529 469c-143 -157 -273 -297 -377 -475c-7 -6 -55 -14 -53 0c18 54 308 399 382 474c-66 11 -146 15 -221 14c-86 -3 -123 -42 -134 -85c-5 -22 -19 -12 -17 -2c21 113 78 132 177 129c26 -1 204 -15 228 -20c12 21 53 48 56 18c2 -20 -18 -42 -40 -52c-1 0 -1 -1 -1 -1
z" />
    <glyph glyph-name="eight" unicode="8" horiz-adv-x="491"
d="M332 315l-10 4c-47 18 -111 38 -105 95c12 116 218 140 250 59c30 -74 -78 -130 -135 -158zM279 272c17 -7 33 -10 47 -17c139 -57 63 -187 -65 -230c-56 -18 -197 -23 -189 60c4 37 39 78 77 105c46 35 75 55 130 82zM354 307c66 32 150 82 158 160c5 52 -43 83 -125 80
c-46 -2 -98 -12 -138 -39c-42 -28 -74 -68 -79 -113c-8 -71 36 -98 85 -116c-51 -22 -86 -49 -128 -79s-86 -87 -92 -137c-9 -78 67 -89 127 -86c103 5 270 88 283 207c6 64 -39 99 -91 123z" />
    <glyph glyph-name="nine" unicode="9" horiz-adv-x="497"
d="M157 334c-11 -82 44 -111 90 -110c32 0 57 20 80 39c9 7 27 4 10 -15c-20 -23 -66 -44 -107 -44c-66 -1 -136 34 -125 126c14 109 121 205 231 205c180 0 183 -181 114 -317c-61 -124 -185 -224 -271 -241c-58 -13 -155 3 -135 130c2 12 22 10 21 2
c-16 -107 74 -114 114 -105c72 16 160 109 210 221c46 104 78 284 -73 284c-91 0 -149 -95 -159 -175z" />
    <glyph glyph-name="colon" unicode=":" horiz-adv-x="161"
d="M155 27c0 -9 -19 -39 -28 -39c-13 0 -33 0 -33 16c0 5 27 30 32 34c34 25 29 5 29 -11zM206 184c0 -9 -19 -37 -27 -37c-14 0 -34 0 -34 16c0 4 27 29 32 32c34 27 29 5 29 -11z" />
    <glyph glyph-name="semicolon" unicode=";" horiz-adv-x="166"
d="M151 9c0 -14 -21 -45 -44 -72c-26 -34 -55 -63 -62 -68c-11 -7 -11 3 -11 6c0 2 10 14 22 28c19 22 36 46 45 76c11 34 -11 29 -4 53c4 12 23 10 28 10c16 0 26 -22 26 -33zM206 184c0 -9 -19 -37 -27 -37c-14 0 -34 0 -34 16c0 4 27 29 32 32c34 27 29 5 29 -11z" />
    <glyph glyph-name="less" unicode="&#x3c;" horiz-adv-x="379"
d="M102 228c85 80 169 165 259 240c13 11 29 -1 -2 -38c-32 -37 -104 -111 -209 -211c41 -77 71 -135 82 -162c14 -38 -3 -57 -23 -24c-33 51 -70 96 -114 139c-28 27 -19 31 7 56z" />
    <glyph glyph-name="equal" unicode="=" horiz-adv-x="539"
d="M485 237c-46 -4 -266 -8 -300 -9c-46 -3 -13 36 9 36c21 0 250 1 291 1c32 0 54 -6 54 -12c0 -13 -45 -15 -54 -16zM459 94c-48 -4 -268 -7 -302 -10c-46 -2 -11 38 9 38h291c33 0 54 -5 54 -13c1 -12 -45 -14 -52 -15z" />
    <glyph glyph-name="greater" unicode="&#x3e;" horiz-adv-x="397"
d="M356 263c-85 -81 -169 -166 -259 -241c-12 -10 -28 1 3 37c31 38 104 111 209 211c-42 78 -70 135 -82 164c-15 36 4 55 24 23c33 -52 69 -95 113 -139c28 -29 18 -31 -8 -55z" />
    <glyph glyph-name="question" unicode="?" horiz-adv-x="472"
d="M225 545c71 37 205 50 229 -57c25 -111 -83 -193 -160 -246c-45 -32 -89 -65 -97 -102c-2 -12 -23 -13 -21 3c5 40 53 81 99 121c71 61 117 104 117 206c0 47 -26 84 -70 84c-46 0 -91 -34 -123 -64s-79 -122 -77 -55c0 18 5 39 10 53c7 16 22 39 58 44c11 1 25 8 35 13z
M155 27c0 16 5 36 -29 11c-5 -4 -32 -29 -32 -34c0 -16 20 -16 33 -16c9 0 28 30 28 39z" />
    <glyph glyph-name="at" unicode="@" horiz-adv-x="752"
d="M492 148c29 -23 90 40 107 60c45 55 76 130 76 201c0 95 -83 159 -210 158c-198 -2 -401 -187 -401 -395c0 -110 67 -202 240 -204c102 -1 255 67 325 142c82 88 95 162 68 187c-8 7 3 16 12 7c41 -39 43 -129 -43 -216c-80 -83 -250 -139 -365 -138
c-196 2 -289 109 -289 230c0 219 228 418 459 419c150 1 241 -75 241 -186c0 -69 -45 -151 -85 -206c-35 -50 -81 -93 -143 -92c-24 0 -45 10 -55 40c-9 28 3 92 17 129c-19 -9 -117 -156 -201 -156c-21 0 -50 14 -66 35c-77 100 160 257 238 279c30 8 77 10 104 -9
c10 -8 19 -18 19 -29c0 -7 -3 -9 -8 -5c-11 18 -32 20 -51 20c-55 0 -127 -42 -181 -91c-30 -28 -115 -130 -84 -175c15 -21 65 16 80 29c28 22 74 63 101 92c15 16 94 105 103 105c10 0 51 -7 42 -25c-38 -55 -60 -120 -63 -154c-4 -25 2 -45 13 -52z" />
    <glyph glyph-name="A" unicode="A" horiz-adv-x="849"
d="M11 12c0 21 20 42 20 0c0 -24 10 -40 30 -53c15 -10 36 -15 61 -15c53 0 112 20 163 54c59 40 136 119 215 209c-56 7 -113 13 -168 17c-70 4 -155 -5 -183 -82c-5 -14 -5 -28 1 -38c7 -14 -9 -22 -18 -9c-8 14 -12 38 -10 62c10 121 114 120 215 108
c59 -6 123 -20 185 -32c105 121 209 256 273 336c0 0 1 1 1 3h1c2 2 3 2 5 3c14 8 43 14 52 14c6 0 10 -4 10 -10c0 -2 -3 -6 -5 -11c-68 -113 -115 -231 -149 -358l-3 -7c9 0 17 -1 25 -1c27 -2 53 1 73 10c14 5 25 13 30 22c6 10 17 -1 11 -11c-7 -13 -21 -23 -39 -29
c-21 -9 -50 -11 -78 -10c-9 0 -18 1 -27 1c-8 -37 -16 -76 -18 -115c-9 -101 38 -87 107 -35c46 35 85 79 111 114c4 4 17 3 12 -9c-3 -7 -48 -73 -119 -130c-38 -30 -78 -35 -98 -35c-42 0 -65 48 -58 112c2 32 8 66 17 102c-40 4 -79 9 -119 14
c-80 -99 -161 -188 -231 -239c-52 -39 -107 -59 -164 -59c-37 0 -67 9 -90 25c-27 19 -41 45 -41 82zM752 478c2 4 3 7 5 11c-58 -79 -128 -174 -201 -264l105 -17c24 94 60 191 91 270z" />
    <glyph glyph-name="B" unicode="B" horiz-adv-x="654"
d="M571 8c-40 -49 -116 -81 -197 -81c-77 0 -132 28 -140 90c-2 2 -2 3 -2 6c-15 -24 -40 -61 -63 -61c-5 0 -38 5 -39 12c-9 64 126 291 155 350c12 25 9 35 7 41c5 33 77 119 129 119c10 0 50 -10 56 -34c5 -16 -6 -6 -11 -6c-91 0 -245 -301 -284 -394
c-23 -57 10 -53 33 -26c15 18 29 35 37 34c28 0 24 -28 28 -44c9 -40 41 -71 101 -71c143 -1 240 109 126 234c-43 48 -112 93 -116 121c-2 19 28 34 43 34c62 0 207 55 248 107c32 40 33 90 -52 105c-133 25 -566 -55 -584 -219c-6 -50 53 -58 75 -70c15 -7 9 -15 -6 -13
c-34 2 -106 36 -98 97c0 3 -2 13 -2 16c6 63 90 123 147 154c107 58 348 100 465 74c65 -15 104 -56 104 -101c-1 -123 -202 -164 -296 -168c115 -70 255 -165 136 -306z" />
    <glyph glyph-name="C" unicode="C" horiz-adv-x="535"
d="M515 583c55 -8 81 -43 80 -83c-4 -116 -209 -233 -309 -242c-32 -3 -22 29 5 31c104 9 201 65 250 159c24 46 28 102 -27 111c-105 16 -362 -171 -435 -400c-43 -131 22 -191 128 -192c119 -4 292 56 385 187c7 10 19 -1 14 -9c-104 -143 -270 -205 -399 -203
c-122 1 -216 73 -177 235c51 208 289 436 485 406z" />
    <glyph glyph-name="D" unicode="D" horiz-adv-x="869"
d="M115 295c0 -50 61 -56 84 -67c13 -6 7 -15 -7 -14c-35 3 -120 34 -111 95c0 3 -2 11 -2 16c0 244 583 314 750 180c55 -45 78 -105 78 -168c0 -214 -212 -374 -415 -374c-68 0 -135 16 -181 51c-5 -7 -44 -90 -71 -90c-51 0 -59 78 -59 93c0 43 4 73 9 107
c1 9 -4 18 -8 28c-2 8 2 15 7 20c10 7 35 15 42 10c4 -3 4 -8 -2 -22c-8 -17 -8 -13 -8 -32c0 -23 65 -75 69 -76c17 42 75 165 102 221c13 26 9 36 7 41c6 33 106 155 158 155c12 0 54 -10 59 -36c1 -13 -5 -3 -12 -3c-93 0 -242 -308 -284 -398c145 -107 357 -4 457 117
c148 179 107 396 -162 404c-216 5 -500 -118 -500 -258zM277 29c-15 13 -43 45 -61 61c0 -13 -1 -70 8 -116c12 -62 48 43 53 55z" />
    <glyph glyph-name="E" unicode="E" horiz-adv-x="717"
d="M452 589c35 -9 60 -35 83 -56c7 -8 17 -18 29 -21c5 -3 13 -2 18 -5c12 -10 19 -32 25 -47c14 -33 5 -123 -25 -87c-16 20 -18 55 -31 81c-16 34 -34 64 -60 86c-15 14 -49 35 -85 22c-104 -43 -60 -219 -15 -278c6 -7 41 -9 53 -10c36 -4 36 -29 17 -40
c-20 -11 -66 6 -90 11c-100 -2 -301 -77 -304 -197c-1 -54 37 -98 149 -98c108 0 256 42 321 75c54 28 175 118 160 180c-1 5 9 5 12 2c53 -77 -57 -167 -119 -202c-83 -47 -246 -80 -339 -80c-111 0 -227 32 -227 153c0 167 228 194 337 199c-55 63 -105 183 -61 258
c25 43 109 64 152 54z" />
    <glyph glyph-name="F" unicode="F" horiz-adv-x="530"
d="M236 24c14 18 28 35 36 34c7 -5 -11 -25 -12 -26c-16 -22 -43 -70 -70 -70c-6 0 -38 5 -39 12c-6 39 44 141 89 228c-16 -2 -33 -3 -40 -3c-11 0 -26 10 -26 26c0 20 42 33 56 33c16 0 20 -19 27 -19h3c20 36 37 68 46 85c13 25 9 35 6 41c7 33 77 119 129 119
c13 0 63 -14 59 -45c-4 3 -9 5 -13 5c-53 0 -127 -101 -187 -204c22 2 45 5 69 9c48 6 100 15 147 15c14 0 40 -6 -1 -21c-33 -11 -150 -29 -235 -38c-35 -63 -63 -122 -76 -155c-24 -57 10 -53 32 -26zM647 387c5 -8 -6 -19 -18 -4c-12 12 -14 75 7 115c5 7 9 15 14 21
c-124 -5 -240 29 -366 10c-120 -16 -227 -69 -245 -152c-12 -49 40 -68 60 -83c12 -9 3 -16 -9 -12c-34 10 -98 56 -76 115c0 1 0 11 1 16c21 100 142 147 271 156c154 10 241 -31 376 -35c18 20 37 30 45 31c23 5 48 -11 28 -31c-10 -10 -30 -21 -48 -39
c-32 -31 -62 -75 -40 -108z" />
    <glyph glyph-name="G" unicode="G" horiz-adv-x="799"
d="M266 -177c90 104 203 167 333 209c17 51 33 103 48 157c-105 -99 -213 -175 -310 -192c-123 -24 -263 27 -263 176c0 102 47 196 138 280c107 95 234 137 375 137c32 0 135 -10 144 -67c8 -43 -20 -46 -22 -21c-3 53 -57 66 -102 66c-146 0 -508 -198 -508 -399
c0 -136 146 -154 305 -106c112 34 170 94 255 175c38 97 126 70 141 69c15 -3 9 -15 -4 -14c-41 2 -72 -45 -91 -101c-16 -48 -33 -97 -51 -145c46 11 81 16 92 10c8 -5 4 -18 -4 -14c-15 7 -92 -8 -101 -31c-221 -562 -585 -428 -375 -189zM592 13
c-110 -36 -205 -95 -277 -185c-133 -164 -10 -263 119 -106c68 85 121 188 158 291z" />
    <glyph glyph-name="H" unicode="H" horiz-adv-x="751"
d="M246 427c58 6 126 67 158 138c3 15 67 19 63 0c-26 -63 -63 -170 -111 -280c81 -16 164 -38 241 -47c27 57 55 115 79 174c11 26 8 35 5 41c3 32 68 119 120 119c13 0 64 -13 61 -44c-3 1 -8 5 -12 5c-73 0 -181 -234 -210 -299c29 0 61 4 85 14c14 5 24 14 30 22
c6 10 17 0 10 -11c-8 -12 -21 -22 -38 -29c-27 -11 -63 -13 -95 -13c-40 -94 -107 -312 63 -182c45 35 84 79 110 114c4 4 17 3 12 -9c-3 -7 -48 -73 -118 -130c-39 -30 -78 -35 -98 -35c-96 0 -50 143 -32 193c6 17 13 34 21 51c-84 8 -165 23 -248 33
c-77 -175 -177 -353 -295 -389c-32 -11 -60 -11 -83 -4c-28 9 -47 28 -55 58c-5 17 7 42 17 5c6 -20 19 -32 38 -37c16 -3 46 -7 67 0c118 37 208 205 273 372l-53 3c-70 4 -155 -5 -182 -81c-7 -15 -7 -29 0 -39c8 -13 -9 -22 -18 -8c-7 13 -12 37 -10 61
c11 121 115 121 215 109c20 -2 41 -5 61 -9c23 61 42 121 58 172c-39 -35 -89 -51 -130 -55c-15 -1 -14 15 1 17z" />
    <glyph glyph-name="I" unicode="I" horiz-adv-x="430"
d="M240 68c79 105 139 334 170 455c-108 -9 -218 -45 -214 -120c3 -38 44 -50 60 -60c11 -8 8 -13 -2 -10c-24 5 -78 37 -79 84c0 1 -3 8 -3 12c-6 101 127 139 249 139c0 4 1 6 3 10c3 14 57 17 55 0c-2 -4 -4 -8 -5 -13c43 -3 81 -13 107 -26c15 -7 54 -49 -6 -29
c-26 9 -69 14 -115 14c-40 -122 -113 -360 -201 -472c-13 -15 -25 -29 -38 -39c73 -1 136 1 178 4c33 2 7 -20 1 -24c-18 -9 -316 -15 -363 -14c-26 1 -37 9 -23 43c10 23 45 26 56 17c40 -30 111 -49 170 29z" />
    <glyph glyph-name="J" unicode="J" horiz-adv-x="574"
d="M589 589c16 0 12 -14 0 -16c-8 -3 -19 -9 -29 -18c17 -5 34 -10 46 -16c15 -7 54 -49 -6 -29c-15 5 -35 9 -59 12c-24 -58 -44 -145 -62 -208c46 11 85 16 96 10c7 -5 4 -17 -4 -14c-15 8 -92 -6 -101 -31c-206 -566 -585 -427 -375 -187c90 103 202 166 332 207
c17 48 44 155 84 225c-122 5 -295 -27 -290 -121c3 -38 44 -50 60 -60c11 -8 8 -13 -2 -10c-24 5 -78 37 -79 84c0 1 -3 8 -3 12c-7 128 207 155 339 131c16 18 34 29 53 29zM421 280c-110 -36 -205 -95 -277 -185c-133 -163 -12 -262 118 -105c69 84 122 188 159 290z" />
    <glyph glyph-name="K" unicode="K" horiz-adv-x="559"
d="M241 465c-39 -35 -89 -51 -130 -55c-15 -1 -15 15 0 17c58 6 128 67 159 138c4 15 67 19 64 0c-54 -131 -100 -266 -163 -393c25 31 54 63 90 102c-1 15 0 28 1 39c3 11 17 31 22 6c0 -5 1 -10 2 -15l1 3c32 36 299 260 330 275c83 38 102 -17 58 -38
c-15 -7 -120 -64 -203 -119c-90 -61 -160 -121 -180 -143c29 -105 50 -155 119 -240c30 -37 64 -60 90 -60c49 0 25 56 9 80c-14 21 7 17 19 6c7 -8 22 -35 22 -53c-1 -41 -52 -60 -77 -60c-127 0 -185 162 -209 293c-58 -68 -119 -141 -154 -189
c-59 -96 -125 -174 -197 -196c-33 -11 -60 -11 -84 -4c-28 9 -46 28 -55 58c-5 17 7 42 17 5c7 -20 19 -32 38 -37c16 -3 46 -7 67 0c79 25 145 109 200 210c62 117 107 245 144 370z" />
    <glyph glyph-name="L" unicode="L" horiz-adv-x="514"
d="M212 84l22 6c26 77 46 150 55 178c33 106 66 199 107 245c115 130 239 80 239 -38c0 -175 -194 -332 -359 -390c-17 -40 -36 -81 -57 -117c108 -70 236 -155 381 -143c61 5 154 47 112 124c-8 18 12 20 20 4c14 -29 17 -55 15 -80c-1 -48 -47 -94 -126 -100
c-171 -14 -301 99 -412 179c-33 -57 -68 -95 -98 -90c-11 2 -7 13 0 13c24 2 50 40 74 93c-33 22 -64 40 -94 50c-25 -10 -55 -15 -64 -13c-22 8 -25 39 9 49c15 5 63 -17 108 0c6 3 23 3 6 -9c-9 -5 -38 -7 -46 -11c10 -4 26 -12 35 -17l53 -33c12 28 24 56 34 88
c-4 -2 -9 -3 -12 -3c-22 -4 -15 11 -2 15zM335 240c-9 -25 -25 -73 -48 -127c144 65 273 185 303 342c11 59 1 115 -53 115c-118 0 -176 -248 -202 -330z" />
    <glyph glyph-name="M" unicode="M" horiz-adv-x="1096"
d="M927 492c63 65 145 51 120 -49c-31 -128 -92 -204 -106 -341c-11 -114 36 -115 103 -63c35 29 78 71 106 109c5 7 19 0 12 -8c-26 -41 -91 -108 -131 -137c-44 -33 -120 -43 -137 24c-29 103 68 327 97 402c18 44 -6 65 -46 30c-54 -46 -125 -136 -189 -230
c-50 -74 -96 -151 -120 -201c-20 -44 -46 16 -41 27c46 119 91 433 -24 433c-52 0 -150 -75 -247 -164c-25 -59 -98 -245 -179 -347c-94 -119 -203 -60 -130 56c61 96 215 252 274 306l38 129c-37 -35 -88 -51 -130 -55c-15 -1 -13 15 2 16c57 6 127 68 157 139
c5 15 69 19 65 0l-69 -171c78 66 152 116 195 118c132 8 158 -98 147 -192c-7 -60 -29 -146 -52 -215c-3 -10 -18 -50 3 -16c34 52 62 105 99 161c53 82 120 171 183 239zM57 39c-65 -86 -21 -131 57 -51c48 51 130 219 155 287c-75 -71 -175 -186 -212 -236z" />
    <glyph glyph-name="N" unicode="N" horiz-adv-x="785"
d="M266 442c-39 -35 -89 -52 -130 -55c-15 -2 -14 15 1 17c58 6 128 68 158 139c5 15 69 19 65 0c-6 -15 -9 -53 -11 -71c-14 -94 20 -505 151 -505c129 0 220 397 199 520c-7 36 -17 58 -27 87c-2 5 14 18 19 19c43 0 64 -90 98 -121c11 -10 17 -12 25 -12c3 0 7 3 12 3
c8 0 10 -4 11 -10c0 -11 -12 -19 -22 -20c-8 0 -15 2 -21 6c-17 8 -30 18 -43 29c13 -178 -117 -535 -259 -535c-158 0 -196 272 -196 450c-41 -108 -79 -200 -132 -298c-60 -106 -129 -195 -204 -218c-31 -10 -58 -10 -80 -4c-26 9 -44 26 -51 56c-5 16 6 40 16 4
c5 -18 16 -29 35 -34c16 -5 44 -7 64 0c75 23 137 104 190 201c58 112 95 227 132 352z" />
    <glyph glyph-name="O" unicode="O" horiz-adv-x="706"
d="M717 337c0 -210 -176 -377 -332 -413c-348 -81 -396 460 -44 543c39 8 94 10 126 -23c14 -15 12 -19 8 -19s-10 5 -16 8c-20 7 -45 9 -63 5c-292 -69 -366 -571 -22 -491c136 31 297 252 293 426c-3 137 -93 202 -230 192c-76 -5 -152 -37 -205 -75
c-90 -63 -161 -165 -168 -260c-2 -23 -18 -3 -18 15c-1 100 64 199 156 265c67 48 160 79 238 80c160 0 277 -91 277 -253z" />
    <glyph glyph-name="P" unicode="P" horiz-adv-x="539"
d="M201 210c6 -1 14 -1 21 -1c27 50 52 94 63 115c12 25 9 35 7 41c5 33 77 119 129 119c10 0 50 -10 58 -34c3 -16 -8 -6 -13 -6c-59 0 -141 -122 -205 -235c134 6 313 56 399 145c59 61 45 138 -56 168c-162 45 -518 -4 -545 -167c-8 -48 45 -61 65 -73
c12 -9 6 -17 -7 -14c-31 5 -96 44 -83 105c0 1 -2 11 -2 16c12 63 92 115 147 143c101 48 281 70 422 25c78 -27 123 -84 118 -142c-9 -110 -149 -173 -277 -202c-63 -14 -135 -20 -190 -21c-32 -58 -57 -112 -70 -142c-23 -57 10 -53 33 -26c15 18 29 35 37 34
c5 -5 -12 -25 -13 -26c-15 -22 -43 -70 -70 -70c-5 0 -38 5 -39 12c-5 38 40 134 85 219c-6 0 -13 0 -18 1c-11 1 -23 19 4 16z" />
    <glyph glyph-name="Q" unicode="Q" horiz-adv-x="670"
d="M317 29c7 -4 22 -9 27 -11l53 -33c142 45 252 192 289 342c30 120 14 237 -84 246c-28 2 -13 19 5 16c97 -14 133 -95 128 -194c-9 -167 -143 -367 -309 -428c108 -69 235 -153 378 -140c61 5 153 46 113 123c-10 18 12 20 19 4c15 -29 16 -55 16 -80
c-2 -47 -47 -94 -127 -100c-176 -15 -309 106 -421 185c-27 -7 -53 -11 -80 -11c-162 -1 -279 89 -279 245c0 204 177 364 332 399c252 56 309 -208 188 -395c-68 -104 -160 -153 -248 -168zM375 -21c-26 18 -53 31 -78 40c-15 -4 -50 -14 -66 -12c-34 3 -34 46 3 48
c11 0 43 -6 73 -6c282 83 419 598 83 521c-138 -31 -299 -245 -295 -412c4 -133 95 -196 231 -186c16 1 33 3 49 7z" />
    <glyph glyph-name="R" unicode="R" horiz-adv-x="539"
d="M280 193c114 -140 219 -299 414 -335c61 -11 158 10 140 95c-4 20 16 16 20 -1c6 -32 1 -58 -7 -80c-15 -47 -92 -78 -170 -63c-227 44 -336 268 -420 378c-3 5 -7 1 -7 1c-30 -56 -55 -109 -68 -138c-23 -57 10 -53 33 -26c15 18 29 35 37 34c5 -5 -12 -25 -13 -26
c-15 -22 -43 -70 -70 -70c-5 0 -38 5 -39 12c-5 38 40 131 82 214c-10 1 -18 4 -22 6c-20 13 -13 45 21 45c6 0 18 -4 24 -9c21 40 41 75 50 94c12 25 9 35 7 41c5 33 77 119 129 119c10 0 50 -10 56 -34c5 -16 -6 -6 -11 -6c-57 0 -137 -117 -200 -227c9 -4 24 -7 43 -4
c126 14 275 62 351 141c59 61 45 138 -56 168c-162 45 -518 -4 -545 -167c-8 -48 45 -61 65 -73c12 -9 6 -17 -7 -14c-31 5 -96 44 -83 105c0 1 -2 11 -2 16c12 63 92 115 147 143c101 48 281 70 422 25c78 -27 123 -84 118 -142c-9 -110 -149 -173 -277 -202
c-52 -11 -112 -18 -162 -20z" />
    <glyph glyph-name="S" unicode="S" horiz-adv-x="592"
d="M645 528c0 -18 -5 -30 -18 -51c-15 -28 -52 -55 -52 -35c0 5 44 36 44 63c0 29 -35 43 -85 43c-37 0 -130 -14 -203 -54c-80 -44 -92 -75 -31 -104c96 -45 292 -88 292 -193c0 -28 -16 -57 -46 -87c-95 -91 -266 -156 -384 -156c-93 0 -148 31 -148 90
c0 61 41 114 97 150c51 35 115 55 168 55c31 0 21 -15 -2 -15c-48 0 -113 -26 -158 -67c-89 -80 -68 -167 62 -167c68 0 146 19 176 29c73 24 158 66 187 111c101 154 -330 145 -330 274c0 110 233 169 321 169c74 0 110 -18 110 -55z" />
    <glyph glyph-name="T" unicode="T" horiz-adv-x="336"
d="M236 24c14 18 28 35 36 34c7 -5 -11 -25 -12 -26c-16 -22 -43 -70 -70 -70c-6 0 -38 5 -39 12c-9 64 126 291 155 350c13 25 9 35 6 41c7 33 77 119 129 119c13 0 63 -14 59 -45c-4 3 -9 5 -13 5c-92 0 -245 -301 -283 -394c-24 -57 10 -53 32 -26zM664 365
c6 -8 -7 -21 -20 -5c-13 14 -14 84 8 129c5 9 18 24 24 30c-130 3 -266 29 -392 10c-120 -16 -227 -69 -245 -152c-12 -49 40 -68 60 -83c12 -9 3 -16 -9 -12c-34 10 -98 56 -76 115c0 1 0 11 1 16c21 100 142 147 271 156c154 10 328 -34 403 -35c18 20 31 30 41 31
c25 5 51 -12 29 -36c-10 -10 -32 -22 -52 -42c-35 -35 -67 -85 -43 -122z" />
    <glyph glyph-name="U" unicode="U" horiz-adv-x="526"
d="M476 484c33 69 76 115 136 110c63 -4 69 -54 55 -100c-35 -117 -160 -241 -232 -335c-10 -52 -16 -130 -18 -179c-1 -68 10 -118 33 -146c14 -15 34 -21 49 -4c3 5 7 10 12 15c10 10 18 7 14 -7c-3 -5 -6 -13 -13 -19c-11 -14 -43 -21 -63 -20c-45 1 -65 44 -74 98
c-8 57 -4 138 9 225c-77 -74 -175 -154 -270 -154c-34 0 -62 17 -69 65c-16 119 89 282 136 399c8 17 -1 18 -24 0c-45 -38 -95 -67 -136 -70c-15 -2 -12 15 3 16c57 6 192 126 210 159c5 15 70 18 63 0c-22 -37 -170 -277 -195 -414c-15 -88 9 -120 45 -120
c70 0 174 89 242 155c20 129 55 260 87 326zM451 223c70 66 159 191 185 287c14 54 -7 83 -51 35c-74 -82 -109 -193 -134 -322z" />
    <glyph glyph-name="V" unicode="V" horiz-adv-x="614"
d="M302 579c-8 14 13 23 27 -1l5 -14c37 -5 71 -14 95 -25c16 -7 55 -49 -5 -29c-22 8 -53 13 -89 14c-3 -57 -24 -144 -55 -215c-41 -96 -86 -202 -95 -287c-11 -113 95 -63 182 3c92 69 150 147 210 242c55 87 102 175 165 252c32 39 109 96 164 66c9 -5 3 -11 0 -11
c-4 0 -9 1 -11 1c-58 0 -165 -171 -296 -340c-69 -87 -143 -173 -218 -232c-59 -46 -117 -75 -176 -74c-99 1 -100 70 -75 145c27 79 67 166 101 248c29 68 63 148 74 202c-119 0 -265 -35 -260 -121c2 -38 44 -50 60 -60c11 -8 7 -13 -3 -10c-23 5 -77 37 -78 84
c0 1 -4 8 -4 12c-6 111 157 146 287 138c-1 5 -2 8 -5 12z" />
    <glyph glyph-name="W" unicode="W" horiz-adv-x="1010"
d="M612 298c-2 -155 77 -304 167 -301c150 2 227 358 111 482c-24 25 -59 39 -100 33c-15 -2 -30 -8 -44 -18c-11 -7 -26 6 -15 14c64 46 131 50 180 17c168 -108 43 -568 -164 -566c-103 0 -193 126 -183 281c-64 -80 -174 -186 -263 -248c-67 -50 -139 -84 -211 -83
c-103 3 -88 74 -41 153c47 81 111 171 167 256c48 69 105 150 133 205c-123 9 -309 -23 -304 -120c2 -38 44 -50 60 -60c11 -8 7 -13 -3 -10c-23 5 -77 37 -78 84c0 1 -4 8 -4 12c-6 129 212 156 344 130c2 10 2 18 0 23c-7 13 17 21 26 -3c1 -6 1 -15 -1 -26
c15 -4 28 -9 40 -14c16 -7 55 -49 -5 -29c-13 4 -28 8 -45 10c-20 -57 -67 -143 -115 -215c-68 -100 -142 -210 -172 -298c-42 -123 74 -75 184 -2c111 77 213 178 290 287c-2 40 -2 105 5 147c4 25 68 104 71 16c2 -41 -2 -101 -30 -157z" />
    <glyph glyph-name="X" unicode="X" horiz-adv-x="680"
d="M420 522l-20 5c-11 -92 -1 -194 22 -285c102 120 189 252 258 340c10 12 30 2 20 -15c-75 -114 -169 -245 -268 -359c15 -48 34 -90 55 -125c48 -79 84 -95 167 -19c33 30 65 64 78 84c5 7 18 2 13 -8c-11 -23 -73 -96 -119 -130c-81 -60 -130 -40 -180 28
c-26 35 -46 74 -61 115c-126 -138 -390 -396 -558 -280c-26 19 -38 45 -37 81c0 20 21 43 20 -1c-1 -23 9 -39 27 -51c139 -88 415 156 537 285c-33 102 -39 217 -28 323c1 7 3 15 5 23c-122 10 -314 -20 -309 -120c2 -38 52 -48 68 -59c11 -6 0 -12 -10 -11
c-24 6 -79 39 -79 84c0 1 -4 8 -4 12c-6 131 219 156 350 130c7 8 14 13 22 14c11 1 16 -11 16 -24l21 -9c15 -8 54 -50 -6 -28z" />
    <glyph glyph-name="Y" unicode="Y" horiz-adv-x="526"
d="M694 552c18 -4 10 -20 -4 -20c-53 5 -83 -35 -111 -112c-25 -65 -103 -325 -120 -373c45 11 81 16 92 10c6 -5 3 -18 -5 -14c-14 7 -92 -8 -101 -31c-221 -562 -584 -428 -375 -189c91 104 202 167 332 209c13 33 40 145 72 253c-105 -160 -247 -317 -360 -317
c-34 0 -62 17 -69 65c-16 119 89 282 136 399c8 17 -1 18 -24 0c-45 -38 -95 -67 -136 -70c-15 -2 -12 15 3 16c57 6 192 126 210 159c5 15 70 18 63 0c-22 -37 -170 -278 -195 -414c-15 -88 9 -120 45 -120c114 0 289 255 377 441c10 21 17 41 26 58c5 10 9 17 14 21
c8 14 20 21 32 26c43 18 86 4 98 3zM396 13c-109 -36 -204 -95 -277 -185c-133 -164 -10 -263 118 -106c70 85 122 188 159 291z" />
    <glyph glyph-name="Z" unicode="Z" horiz-adv-x="524"
d="M629 542c20 20 105 73 108 26c5 -54 -68 -88 -108 -79c-69 -39 -147 -132 -225 -221c46 4 95 10 141 7c15 -1 41 -8 0 -21c-25 -7 -101 -16 -173 -21l-47 -50c-50 -51 -119 -113 -180 -148c-14 -12 -5 -23 5 -30c139 -73 275 -181 429 -165c52 7 125 48 76 125
c-10 18 7 20 16 4c18 -29 24 -56 28 -80c6 -47 -25 -95 -93 -101c-201 -20 -367 165 -512 216c-24 -12 -53 -19 -62 -15c-25 9 -32 45 -1 59c9 4 34 -6 61 -9c58 20 139 101 222 190c-38 -2 -70 -4 -84 -2c-11 0 -26 11 -26 27c0 20 42 31 55 30c16 0 20 -19 28 -20
c20 -1 40 -1 59 0c94 100 185 203 248 235c-97 30 -258 55 -355 29c-54 -14 -98 -59 -82 -89c9 -19 2 -27 -12 -10c-41 53 19 119 76 138c118 40 289 5 408 -25z" />
    <glyph glyph-name="bracketleft" unicode="[" horiz-adv-x="447"
d="M506 514c-41 -4 -69 -5 -97 -5c-65 -90 -224 -334 -299 -506h104c23 0 1 -23 -14 -24c-46 -5 -75 -5 -109 -5c-25 0 -22 13 -17 26c36 89 248 449 300 522c10 13 13 16 31 16h115c24 0 0 -23 -14 -24z" />
    <glyph glyph-name="backslash" unicode="\" horiz-adv-x="320"
d="M42 527c-8 15 32 18 42 3c31 -42 217 -487 220 -543c1 -19 -32 -12 -37 8c-47 184 -181 458 -225 532z" />
    <glyph glyph-name="bracketright" unicode="]" horiz-adv-x="447"
d="M87 -1c42 3 69 4 98 4c65 90 224 335 299 506h-104c-24 0 -1 24 14 25c46 4 75 4 108 4c25 0 23 -13 18 -26c-36 -89 -248 -449 -300 -522c-10 -13 -14 -16 -31 -16h-115c-24 0 -2 24 13 25z" />
    <glyph glyph-name="asciicircum" unicode="^" horiz-adv-x="585"
d="M456 543c11 -10 1 -51 -30 -26c-20 16 -65 61 -85 76c-51 -24 -95 -44 -146 -70c-48 -24 -21 19 -3 30c28 16 138 89 168 90c32 -9 71 -78 96 -100z" />
    <glyph glyph-name="underscore" unicode="_" horiz-adv-x="631"
d="M0 -66v28h631v-28h-631z" />
    <glyph glyph-name="quoteleft" unicode="&#x2018;" horiz-adv-x="144"
d="M142 588c0 -3 -11 -15 -23 -28c-19 -22 -37 -47 -45 -76c-12 -34 6 -29 3 -52c-7 -10 -22 -10 -27 -10c-16 0 -26 21 -26 32c0 14 21 45 43 73c27 32 55 62 64 67c10 8 11 -2 11 -6z" />
    <glyph glyph-name="a" unicode="a" horiz-adv-x="457"
d="M90 -11c-21 0 -49 14 -64 34c-74 94 154 244 229 262c30 8 74 10 100 -8c10 -7 17 -17 17 -27c0 -7 -1 -7 -6 -5c-11 17 -31 19 -50 19c-52 0 -122 -40 -174 -86c-28 -26 -111 -121 -80 -165c14 -20 63 16 77 27c26 22 71 60 97 88c14 15 90 99 99 99c10 0 49 -8 40 -24
c-36 -51 -56 -113 -60 -145c-6 -43 14 -66 46 -49c33 18 108 81 149 139c5 7 17 1 12 -8c-18 -35 -80 -101 -130 -137c-32 -24 -106 -48 -126 12c-9 27 3 87 16 122c-17 -8 -112 -148 -192 -148z" />
    <glyph glyph-name="b" unicode="b" horiz-adv-x="390"
d="M419 477c-38 -77 -184 -204 -279 -270c-14 -25 -25 -62 -31 -94c25 37 63 77 90 100c43 37 78 57 121 57c22 0 67 -30 71 -55c10 -76 -87 -161 -142 -197c-50 -34 -108 -58 -169 -58c-31 0 -103 17 -14 17c50 0 119 43 158 72c40 28 90 78 107 133c6 16 19 68 -11 68
c-41 0 -89 -38 -118 -63c-30 -25 -102 -105 -95 -150c4 -9 -13 -49 -40 -12c-13 19 -1 93 8 128c-13 -15 -18 -31 -49 -65c-10 -11 -20 2 -11 14c49 61 82 106 91 126c20 56 78 189 123 259c33 52 88 117 157 98l20 -7c39 -23 34 -60 13 -101zM392 489c28 45 19 103 -41 55
c-85 -65 -149 -182 -200 -297c91 60 193 163 241 242z" />
    <glyph glyph-name="c" unicode="c" horiz-adv-x="315"
d="M379 135c-57 -77 -123 -141 -222 -158c-96 -17 -168 33 -123 137c30 68 185 199 260 174c18 -6 33 -19 26 -45c-1 -6 -18 -43 -25 -34c-4 3 -5 8 -4 11c1 7 5 14 5 20c0 9 -5 20 -15 20c-51 0 -175 -102 -202 -193c-23 -74 35 -80 92 -64c90 26 139 72 196 145
c5 6 10 2 12 2c5 -2 2 -11 0 -15z" />
    <glyph glyph-name="d" unicode="d" horiz-adv-x="375"
d="M90 -11c-21 0 -49 14 -64 34c-74 94 154 244 229 262c30 8 75 10 100 -8l4 -3c67 155 166 339 281 316c57 -11 52 -57 29 -98c-59 -104 -204 -204 -294 -282c-20 -47 -43 -117 -55 -162c-16 -63 -18 -110 -1 -138c8 -16 26 -23 45 -8c5 3 8 7 15 11c12 7 17 4 11 -8
c-4 -5 -9 -11 -15 -17c-14 -10 -48 -13 -66 -10c-100 16 -18 232 8 297c-61 -71 -167 -186 -227 -186zM351 258c-10 5 -22 6 -35 6c-52 0 -122 -40 -174 -86c-28 -26 -111 -121 -80 -165c14 -20 63 16 77 27c67 55 138 120 198 184zM405 268c80 52 194 157 239 242
c25 48 10 77 -40 39c-90 -69 -147 -166 -199 -281z" />
    <glyph glyph-name="e" unicode="e" horiz-adv-x="319"
d="M310 195c-36 -53 -131 -91 -176 -95c-15 -1 -22 13 -7 14c32 3 88 35 125 65c17 13 47 43 45 65c-1 28 -37 13 -51 6c-59 -27 -145 -110 -167 -183c-25 -84 52 -85 117 -59c74 30 138 84 174 139c4 5 9 5 11 3c5 -2 5 -7 1 -12c-40 -66 -103 -121 -173 -150
c-102 -41 -230 0 -175 126c30 68 185 199 260 174c41 -14 35 -65 16 -93z" />
    <glyph glyph-name="f" unicode="f" horiz-adv-x="286"
d="M149 228c20 56 78 189 122 259c34 52 90 117 158 98l20 -7c40 -23 35 -64 13 -110c-37 -79 -170 -226 -270 -306c35 3 72 7 107 7c16 0 42 -5 0 -17c-17 -5 -88 -15 -150 -24c-28 -71 -74 -195 -103 -275c-30 -85 -11 -74 -22 -101c-24 -62 -27 -78 -42 -87
c-15 -8 -75 -33 -60 -3c12 22 123 302 185 461c-23 -3 -43 -4 -51 -4c-12 0 -27 9 -27 23c0 17 45 28 60 28c16 0 20 -16 28 -16h3zM169 175c-3 -3 -5 -10 -8 -16c100 74 219 229 273 323c30 51 21 110 -40 62c-39 -30 -104 -124 -143 -194c-44 -83 -79 -166 -82 -175z" />
    <glyph glyph-name="g" unicode="g" horiz-adv-x="416"
d="M275 -50c-43 -88 -83 -171 -114 -220c-37 -55 -96 -122 -164 -110c-7 2 -15 4 -20 7c-63 31 -33 91 20 153c50 58 154 127 219 170c46 94 85 187 100 233c-27 -33 -65 -78 -80 -94c-37 -41 -95 -100 -145 -100c-21 0 -49 14 -64 34c-73 94 154 244 229 262
c29 8 74 10 100 -8c10 -7 18 -17 18 -27c0 -7 -3 -7 -8 -5c-10 17 -30 19 -49 19c-52 0 -122 -40 -173 -86c-30 -26 -112 -121 -80 -165c11 -16 58 10 98 41c63 49 128 118 165 163c9 23 72 -4 67 -15c-25 -55 -62 -129 -99 -208c26 14 114 86 176 158c26 30 31 6 5 -24
c-44 -50 -162 -156 -201 -178zM197 -88c-52 -39 -125 -95 -177 -148c-40 -40 -65 -100 -33 -117c9 -5 24 -2 48 17c76 63 120 163 162 248z" />
    <glyph glyph-name="h" unicode="h" horiz-adv-x="456"
d="M134 259l5 -2c6 8 11 17 15 25c17 36 150 335 281 308c57 -11 52 -57 29 -98c-53 -93 -190 -193 -284 -269c-31 -69 -48 -124 -58 -155c42 52 129 146 184 189c46 35 83 37 85 6c3 -33 -30 -78 -45 -106c-19 -39 -30 -77 -32 -99c-7 -43 13 -66 46 -49
c32 18 107 81 149 139c6 7 17 1 12 -8c-19 -35 -80 -101 -129 -137c-32 -24 -107 -48 -127 12c-4 12 -4 29 -1 48c5 42 33 94 53 131c18 33 13 56 -60 -7c-57 -52 -141 -184 -160 -195c-10 -5 -63 -29 -53 -10c6 15 51 147 80 221c-14 -18 -55 -66 -82 -95
c-10 -11 -10 12 -1 25c29 37 58 70 80 100c-19 10 -7 37 13 26zM200 268c80 52 194 157 239 242c25 48 10 77 -40 39c-90 -69 -147 -166 -199 -281z" />
    <glyph glyph-name="i" unicode="i"
d="M92 205c-1 3 -1 7 2 13c11 31 21 56 35 59c13 1 30 -2 35 -12c6 -12 -5 -31 -20 -62c-30 -60 -57 -113 -60 -145c-7 -43 13 -66 46 -49c32 18 107 81 149 139c5 7 17 1 12 -8c-19 -35 -80 -101 -130 -137c-32 -24 -106 -48 -126 12c-8 23 9 77 30 123
c-9 -11 -18 -26 -39 -50c-10 -11 -20 2 -11 14c35 43 62 80 77 103zM207 378c0 -11 -23 -49 -33 -49c-18 0 -43 0 -43 21c0 5 54 45 60 50c41 33 16 -2 16 -22z" />
    <glyph glyph-name="j" unicode="j" horiz-adv-x="215"
d="M-40 -270c-38 -55 -96 -122 -164 -110c-7 2 -15 4 -20 7c-64 31 -34 91 20 153c50 58 154 127 219 170c41 85 77 165 106 255c-14 -18 -46 -55 -64 -77c-10 -14 -21 0 -11 11c33 41 71 94 90 118c18 22 71 -9 66 -20c-35 -82 -71 -164 -108 -244c26 14 113 87 176 159
c26 30 31 6 5 -24c-44 -50 -163 -156 -201 -178c-43 -88 -83 -171 -114 -220zM-4 -88c-52 -39 -125 -95 -177 -148c-40 -40 -65 -100 -33 -117c9 -5 24 -2 48 17c76 63 120 163 162 248zM264 378c0 -11 -24 -49 -34 -49c-18 0 -43 0 -43 21c0 5 54 45 60 50
c42 33 17 -2 17 -22z" gerber-lp="dcd" />
    <glyph glyph-name="k" unicode="k" horiz-adv-x="344"
d="M136 289c3 -1 5 -2 8 -2c48 127 153 328 280 303c8 -1 16 -5 22 -8c68 -37 -34 -153 -62 -184c-64 -68 -148 -126 -204 -150c-31 -69 -59 -149 -69 -180l65 85c-1 14 -1 26 1 37c2 13 17 32 20 7l4 -14c25 29 78 90 111 106c47 23 87 -15 39 -39
c-31 -15 -105 -48 -145 -90c30 -106 51 -156 120 -241c30 -36 64 -59 90 -59c49 0 25 55 9 80c-14 22 6 17 19 7c7 -8 22 -37 22 -54c-1 -41 -52 -60 -77 -60c-99 0 -185 162 -209 294c-46 -65 -80 -127 -94 -135c-10 -5 -64 -29 -55 -10c6 11 46 128 79 212
c-14 -15 -31 -36 -54 -69c-6 -8 -27 -7 -10 15c28 34 65 90 85 117c-27 15 -12 42 5 32zM192 282c57 26 118 71 169 130c15 17 101 130 73 152c-8 6 -24 3 -47 -15c-90 -69 -142 -152 -195 -267z" />
    <glyph glyph-name="l" unicode="l" horiz-adv-x="235"
d="M132 237c-11 -23 -20 -47 -28 -69c98 67 230 240 283 342c27 49 4 72 -40 39c-61 -47 -112 -119 -155 -196c-11 -20 -37 -71 -60 -116zM89 128c-7 -20 -12 -36 -13 -46c-6 -49 8 -103 66 -70c39 21 113 88 147 136c5 7 17 1 11 -10c-20 -35 -83 -101 -133 -138
c-20 -15 -43 -22 -62 -22c-60 0 -78 34 -76 80c6 100 127 339 192 425c38 49 83 109 151 109c45 0 78 -35 42 -100c-82 -143 -200 -260 -325 -364z" />
    <glyph glyph-name="m" unicode="m" horiz-adv-x="584"
d="M82 160c-13 -20 -28 -40 -40 -52c-10 -11 -10 12 -1 25c41 54 49 67 66 100c3 17 7 52 52 40c16 -4 15 -13 7 -29c-25 -55 -57 -144 -69 -176c42 52 129 146 184 189c65 50 111 33 69 -50c-10 -19 -29 -63 -38 -79c35 32 93 80 138 97c11 4 81 28 54 -13
c-35 -53 -59 -122 -63 -154c-6 -43 14 -66 46 -49c33 18 108 81 149 139c5 7 18 1 13 -8c-19 -35 -80 -101 -130 -137c-33 -24 -107 -48 -127 12c-8 27 3 87 17 122c7 18 18 45 28 60c-61 -24 -121 -94 -151 -125c-12 -29 -65 -38 -50 0c20 48 51 108 60 125
c18 32 9 53 -64 -10c-57 -52 -141 -184 -160 -195c-10 -5 -63 -29 -53 -10c6 13 38 106 63 178z" />
    <glyph glyph-name="n" unicode="n" horiz-adv-x="409"
d="M266 193c18 32 14 57 -59 -6c-57 -52 -141 -184 -160 -195c-10 -5 -63 -29 -53 -10c8 20 67 191 87 246c5 12 1 59 53 45c16 -4 15 -13 7 -29c-25 -55 -57 -144 -69 -176c42 52 129 146 184 189c58 43 100 36 80 -24c-11 -34 -34 -65 -47 -99c-13 -30 -20 -57 -23 -76
c-6 -43 14 -66 46 -49c32 18 108 81 149 139c5 7 18 1 13 -8c-19 -35 -80 -101 -130 -137c-19 -14 -52 -28 -80 -25c-105 10 -23 169 2 215z" />
    <glyph glyph-name="o" unicode="o" horiz-adv-x="351"
d="M225 72c-1 2 -3 3 -3 6c-6 21 8 37 25 32c27 54 19 75 14 87c-11 28 33 38 41 11c14 -41 -21 -103 -43 -134c1 -19 12 -27 25 -27c32 0 65 37 85 58c12 14 25 29 35 43c5 7 17 1 12 -8c-6 -12 -19 -28 -34 -46c-22 -27 -62 -70 -101 -70c-17 0 -34 10 -41 25
c-13 -14 -26 -27 -39 -39c-45 -38 -99 -41 -132 -20c-33 20 -45 67 -27 129c10 38 43 91 88 131c37 33 82 49 112 38c18 -6 33 -23 29 -48c-2 -16 -17 -15 -17 -7c2 11 0 27 -19 27c-44 0 -140 -102 -156 -193c-7 -39 5 -73 42 -73c31 0 74 33 104 78z" />
    <glyph glyph-name="p" unicode="p" horiz-adv-x="370"
d="M352 223c10 -76 -70 -150 -120 -184c-47 -30 -141 -74 -200 -56c-17 -40 -41 -110 -61 -171c-9 -27 -1 -39 -10 -65c-9 -27 -17 -52 -29 -74c-6 -14 -90 -49 -70 -6c25 51 83 192 137 332c47 124 98 248 100 301c0 10 17 12 31 12c44 0 40 -29 14 -70
c-25 -39 -40 -79 -58 -122c31 43 58 87 94 115c39 32 79 50 129 33c22 -8 40 -23 43 -45zM41 -1c85 0 198 91 243 168c33 57 26 116 -48 77c-107 -56 -144 -142 -195 -245z" />
    <glyph glyph-name="q" unicode="q" horiz-adv-x="457"
d="M305 19c10 -19 32 -22 55 -10c32 18 107 81 149 139c5 7 17 1 12 -8c-19 -35 -80 -101 -130 -137c-17 -14 -49 -26 -76 -25c16 -73 27 -194 24 -240c-14 -143 -115 -151 -159 -85s15 200 39 269c25 71 91 233 98 253c-61 -71 -167 -186 -227 -186c-21 0 -49 14 -64 34
c-74 94 141 244 216 264c29 7 88 8 113 -10l4 -3l26 59c21 24 126 25 39 -45c-38 -30 -83 -158 -119 -269zM351 258c-10 5 -22 6 -35 6c-52 0 -122 -40 -174 -86c-28 -26 -111 -121 -80 -165c14 -20 63 16 77 27c67 55 138 120 198 184zM289 -28c-34 -88 -88 -198 -79 -290
c2 -30 16 -43 32 -43c78 0 75 134 72 185c-3 43 -12 109 -18 145c0 5 -4 13 -7 3z" />
    <glyph glyph-name="r" unicode="r" horiz-adv-x="315"
d="M46 113c-10 -13 -27 -8 -12 11c36 44 67 91 93 141c-15 2 -25 12 -21 24c9 30 51 71 81 85c29 13 50 24 23 -25l-39 -62c34 -2 69 -4 105 -2c60 3 36 -31 1 -71c-45 -52 -78 -117 -90 -149c-16 -45 -1 -73 32 -56c32 18 107 81 148 139c5 7 18 1 13 -8
c-19 -35 -80 -101 -130 -137c-18 -14 -50 -28 -78 -28c-22 0 -41 9 -48 37c-18 65 48 138 85 176c15 17 61 61 -8 72c-16 3 -30 5 -45 5c-36 -51 -70 -103 -110 -152z" />
    <glyph glyph-name="s" unicode="s" horiz-adv-x="296"
d="M77 12c-11 -5 -21 -14 -27 -22c-15 -20 -6 -40 31 -30c50 15 124 72 124 130c0 28 -56 49 -75 62c-15 10 -28 21 -34 36c-11 -19 -27 -43 -45 -69c-9 -11 -21 -2 -14 9c29 40 47 74 54 94c10 78 141 143 213 143c45 0 85 -21 62 -68c-6 -14 -17 -25 -31 -34
c-5 -4 -18 2 -5 15c16 16 29 51 1 54c-31 2 -85 -20 -109 -32c-33 -16 -61 -37 -86 -72c-21 -29 -17 -49 11 -66c68 -40 153 -64 79 -147c-34 -38 -91 -62 -140 -73c-19 -4 -61 -10 -72 11c-7 10 2 27 13 40c10 10 29 21 48 29c7 2 9 -7 2 -10z" />
    <glyph glyph-name="t" unicode="t"
d="M294 287c12 0 33 -7 -9 -17c-15 -5 -66 -12 -113 -17c-13 -24 -25 -41 -28 -50c-30 -60 -57 -113 -60 -145c-7 -43 13 -66 46 -49c32 18 107 81 149 139c5 7 17 1 12 -8c-19 -35 -80 -101 -130 -137c-32 -24 -106 -48 -126 12c-8 23 9 77 30 123c-9 -11 -18 -26 -39 -50
c-10 -11 -20 2 -11 14c35 43 62 80 77 103c0 2 9 18 22 42c-10 -2 -18 -2 -23 -2c-10 0 -20 9 -14 22c8 17 34 17 53 18c1 2 2 2 4 2l50 93c25 43 27 53 41 55c15 2 34 -1 40 -10c9 -12 -3 -32 -9 -41c-5 -10 -15 -9 -21 -21l-48 -84l13 1c31 3 56 8 94 7z" />
    <glyph glyph-name="u" unicode="u" horiz-adv-x="445"
d="M510 140c-19 -35 -80 -101 -130 -137c-33 -24 -106 -48 -126 12c-9 27 3 94 17 129c-15 -10 -77 -155 -159 -155c-20 0 -57 13 -70 34c-23 37 -1 112 35 167c14 22 39 59 48 62c17 5 40 5 54 0c12 -5 5 -15 -2 -20c-22 -20 -73 -73 -98 -140c-32 -85 13 -108 83 -52
c37 30 80 88 117 142c18 26 52 90 65 110c13 0 62 -9 52 -27c-12 -20 -49 -82 -62 -108c-15 -29 -27 -63 -32 -99c-6 -43 14 -66 47 -49c32 18 107 81 148 139c5 7 18 1 13 -8z" />
    <glyph glyph-name="v" unicode="v" horiz-adv-x="315"
d="M462 330c7 -8 4 -31 -12 -18c-8 7 -23 5 -34 5c-41 0 -121 -75 -154 -108c-81 -84 -172 -201 -178 -244c0 -7 -9 -8 -13 -8c-25 0 -34 26 -31 47c6 39 21 80 32 120c3 9 8 25 12 44c-9 -15 -20 -31 -33 -49c-9 -11 -21 -2 -14 9c30 41 48 75 55 95c0 31 -8 55 -41 46
c-9 -2 -6 6 0 13c6 5 29 7 41 8c19 0 40 2 53 -13c7 -8 11 -19 10 -30c-1 -14 -34 -89 -38 -102c-12 -36 -30 -90 -27 -113c64 83 126 168 202 240c32 30 62 56 102 73c28 12 60 0 68 -15z" />
    <glyph glyph-name="w" unicode="w" horiz-adv-x="550"
d="M544 233c6 29 5 80 -28 92c-7 3 -17 3 -27 2c-8 -3 -10 10 -3 12c25 5 79 9 94 -25c25 -54 -13 -132 -68 -199c-36 -43 -83 -83 -113 -105c-33 -23 -118 -47 -138 13c-9 26 -11 86 3 121c-15 -22 -78 -155 -159 -155c-115 0 -65 146 -28 201c14 22 58 84 68 88
c17 5 40 5 54 -1c11 -4 11 -13 3 -19c-22 -19 -92 -98 -117 -165c-31 -85 -1 -109 70 -53c54 45 106 129 142 193c8 14 73 0 60 -19c-20 -32 -33 -66 -43 -101c-12 -41 -30 -141 53 -96c42 21 83 58 120 105c27 35 49 76 57 111z" />
    <glyph glyph-name="x" unicode="x" horiz-adv-x="410"
d="M194 99c-60 -61 -204 -211 -208 -292c-1 -19 -16 -13 -16 0c0 122 212 308 212 322c0 13 -6 34 -20 58c-27 48 -55 -2 -102 -57c-13 -15 -23 -2 -13 10c24 30 85 124 118 124c49 0 50 -51 67 -100c49 48 93 85 150 121c20 10 45 -2 45 -21c0 -14 -16 -10 -23 -12
c-49 -19 -74 -39 -95 -57c-9 -6 -72 -56 -72 -56c0 -15 17 -60 37 -96c30 -56 68 -35 106 4c32 35 67 82 82 101c7 7 19 1 12 -10c-12 -18 -53 -76 -92 -114c-46 -42 -75 -47 -103 -41c-44 10 -73 80 -85 116z" />
    <glyph glyph-name="y" unicode="y" horiz-adv-x="416"
d="M275 -50c-43 -88 -83 -171 -114 -220c-37 -55 -96 -122 -164 -110c-7 2 -15 4 -20 7c-63 31 -33 91 20 153c50 58 154 127 219 170c46 94 104 223 119 269c-54 -62 -153 -230 -244 -230c-89 0 -80 90 -51 146c22 44 49 77 81 105c44 42 81 -5 68 -15
c-23 -13 -57 -46 -87 -85c-16 -21 -55 -102 -28 -121c18 -14 53 0 82 28c75 71 129 151 194 230c9 23 71 -4 66 -15c-25 -55 -84 -189 -121 -268c25 13 119 86 179 160c12 15 20 -1 8 -17c-40 -54 -152 -157 -207 -187zM197 -88c-52 -39 -125 -95 -177 -148
c-76 -76 -50 -161 25 -101c76 61 110 164 152 249z" />
    <glyph glyph-name="z" unicode="z" horiz-adv-x="422"
d="M111 229c48 69 96 45 149 33l77 -18c14 13 75 48 78 18c2 -35 -59 -63 -86 -57c-47 -38 -118 -98 -173 -147c-6 -5 -15 -14 -26 -23l30 -15c55 -33 101 -55 151 -27c41 24 126 102 164 155c5 7 22 5 17 -4c-21 -36 -110 -127 -160 -164c-23 -17 -38 -22 -47 -25
c-53 -18 -99 0 -151 33c-10 6 -24 14 -39 19c-30 -23 -63 -40 -79 -32c-14 8 -6 54 36 68c19 6 42 4 64 -3c16 13 29 24 31 27c54 46 114 105 155 145c-33 10 -57 17 -86 21c-42 5 -66 -6 -89 -28c-22 -20 -45 -46 -62 -70c-5 -6 -15 -20 -20 -15c-4 3 -6 9 -1 17z" />
    <glyph glyph-name="braceleft" unicode="{" horiz-adv-x="414"
d="M401 528c-59 0 -95 2 -132 -54c-27 -41 -32 -75 -47 -121c-21 -63 -46 -70 -103 -80c55 -29 52 -76 26 -114c-26 -39 -64 -87 -58 -136c7 -56 70 -71 102 -64c12 3 10 -15 -3 -17c-37 -8 -132 0 -140 73c-6 55 30 108 60 150c43 62 36 90 -40 102c-12 2 -11 20 1 20
c57 0 120 3 128 71c5 47 -5 90 40 140c20 22 49 39 85 45c27 5 54 4 81 4c13 0 13 -19 0 -19z" />
    <glyph glyph-name="bar" unicode="|" horiz-adv-x="257"
d="M162 -61h-33v633h33v-633z" />
    <glyph glyph-name="braceright" unicode="}" horiz-adv-x="466"
d="M315 528c-13 0 4 19 16 19c28 0 55 1 78 -4c30 -6 45 -23 46 -45c4 -50 -43 -93 -78 -140c-48 -68 12 -71 68 -71c12 0 0 -18 -15 -20c-85 -12 -116 -40 -125 -102c-6 -42 -14 -95 -66 -150c-70 -73 -172 -81 -203 -73c-10 2 1 20 11 17c27 -7 103 8 157 64
c46 49 51 97 57 136c5 38 41 85 121 114c-50 10 -68 17 -36 80c24 46 49 80 56 121c10 56 -28 54 -87 54z" />
    <glyph glyph-name="asciitilde" unicode="~" horiz-adv-x="409"
d="M402 405c-17 -40 -55 -72 -92 -60c-38 14 -74 37 -111 29c-22 -5 -39 -17 -50 -35c-4 -5 -18 0 -15 4c30 42 63 89 110 72c20 -7 53 -28 81 -37c30 -9 49 -1 60 30c4 6 20 2 17 -3z" />
    <glyph glyph-name="exclamdown" unicode="&#xa1;" horiz-adv-x="286"
d="M204 247c-33 -93 -80 -215 -119 -305c-24 -57 -44 -104 -53 -115c-11 -13 -47 13 -47 32c0 14 7 38 24 66c7 13 16 14 22 27c50 96 105 197 139 301c4 10 45 24 34 -6zM200 370c0 9 19 39 26 39c14 0 34 0 34 -17c0 -4 -28 -29 -33 -33c-32 -26 -27 -5 -27 11z" />
    <glyph glyph-name="cent" unicode="&#xa2;" horiz-adv-x="461"
d="M431 512l-19 -28l12 -2c25 -9 46 -27 35 -62c-2 -3 -9 -22 -18 -35c-16 -22 -24 4 -19 13c14 29 17 54 -13 54c-7 0 -13 -2 -19 -2c-56 -87 -141 -232 -203 -362c27 -3 57 1 82 9c66 18 115 45 157 81c28 22 23 -4 5 -20c-52 -45 -114 -79 -189 -91c-23 -4 -46 -5 -67 -4
c-10 -24 -21 -46 -30 -68c-9 -20 -50 -27 -46 -8c2 12 17 43 38 85c-47 16 -77 55 -77 115c0 126 195 288 319 298c13 23 25 39 31 45c12 14 34 -2 21 -18zM151 97c54 101 140 248 199 343c-81 -28 -193 -107 -239 -251c-16 -51 5 -80 40 -92z" />
    <glyph glyph-name="sterling" unicode="&#xa3;" horiz-adv-x="549"
d="M306 275c16 0 44 -3 0 -17c-14 -4 -65 -13 -117 -20c-25 -51 -54 -110 -78 -161c13 -3 24 -7 36 -10c53 -18 137 -39 200 -48c58 -7 115 -5 164 33c33 26 66 63 90 96c5 7 18 1 13 -8c-19 -35 -80 -101 -130 -137c-49 -36 -105 -34 -162 -23c-26 5 -200 50 -221 59
l-24 -22c-12 -18 -25 -25 -27 -23c-3 -2 -6 -4 -9 -4c-14 -8 -25 -11 -25 2c1 37 29 71 61 82c2 0 3 1 5 1c17 44 38 99 62 158c-38 -5 -69 -9 -80 -9c-13 0 -28 10 -28 24c0 17 45 29 60 29c16 0 20 -18 29 -17c10 0 21 2 31 3c41 96 93 195 151 261c44 48 110 75 172 53
c35 -14 61 -40 60 -82c-2 -17 -8 -40 -20 -57c-13 -16 -29 -9 -17 14c8 13 10 28 10 42c-3 83 -82 71 -132 38c-53 -37 -125 -159 -178 -264c35 4 70 7 104 7z" />
    <glyph glyph-name="fraction" unicode="&#x2044;" horiz-adv-x="447"
d="M420 527c-56 -74 -235 -348 -313 -532c-8 -20 -42 -27 -38 -8c12 56 272 501 311 543c12 15 51 12 40 -3z" />
    <glyph glyph-name="yen" unicode="&#xa5;" horiz-adv-x="509"
d="M466 247c-85 -82 -224 -160 -294 -204c-17 -11 -38 1 3 37c42 37 139 74 244 174c-42 78 -110 126 -139 154c-33 30 1 54 35 24c59 -52 115 -87 159 -130c28 -29 18 -32 -8 -55zM436 -41c-46 -4 -322 -7 -356 -9c-46 -2 -13 37 9 37c21 0 305 1 346 1c42 0 36 -25 1 -29z
" />
    <glyph glyph-name="florin" unicode="&#x192;" horiz-adv-x="286"
d="M299 168c10 0 23 -3 23 -6c0 -7 -101 -28 -185 -38c-56 -135 -103 -272 -133 -370c-23 -72 -72 -204 -165 -204c-40 0 -90 24 -94 68c0 14 10 27 21 27c21 0 4 -67 51 -67c75 0 128 136 150 195c34 92 104 250 142 347c-20 -1 -39 -2 -53 -2c-12 0 -27 9 -27 22
c0 18 45 29 60 29c16 0 20 -16 28 -16h3c27 74 60 157 92 229c33 72 102 202 194 202c38 0 86 -22 86 -64c0 -16 -13 -30 -26 -30c-6 0 -11 4 -11 15c0 5 2 14 2 20c0 20 -12 33 -30 33c-83 -5 -188 -195 -277 -403c50 5 100 13 149 13z" />
    <glyph glyph-name="section" unicode="&#xa7;" horiz-adv-x="532"
d="M212 297c-47 -20 -87 -58 -87 -95c0 -58 86 -70 145 -87c49 -12 99 -28 130 -57c12 10 29 22 35 29c57 56 57 127 -70 165c-45 12 -109 18 -153 45zM414 44c11 -16 18 -34 18 -55c0 -71 -87 -135 -176 -167c-59 -22 -281 -62 -281 45c0 22 6 42 16 60c6 12 16 5 11 -9
c-46 -123 189 -86 244 -69c75 25 140 75 140 123c0 30 -30 60 -104 81c-75 22 -203 24 -202 131c1 58 57 95 116 124c-20 16 -34 40 -32 75c1 89 132 145 202 162c46 12 214 23 213 -57c0 -9 -2 -16 -4 -25c-8 -18 -19 -5 -19 9c1 60 -154 40 -185 33
c-71 -12 -162 -47 -162 -105c0 -57 86 -70 145 -85c77 -21 161 -51 161 -127c0 -54 -54 -115 -101 -144z" />
    <glyph glyph-name="currency" unicode="&#xa4;" horiz-adv-x="1500"
 />
    <glyph glyph-name="quotesingle" unicode="'" horiz-adv-x="145"
d="M122 397c-6 -27 -17 -54 -27 -94c-4 -19 -20 -14 -18 4c5 25 4 87 4 96c1 32 -14 57 30 57c38 0 15 -47 11 -63z" />
    <glyph glyph-name="quotedblleft" unicode="&#x201c;" horiz-adv-x="166"
d="M142 588c0 -3 -11 -15 -23 -28c-19 -22 -37 -47 -45 -76c-12 -34 6 -29 3 -52c-7 -10 -22 -10 -27 -10c-16 0 -26 21 -26 32c0 14 21 45 43 73c27 32 55 62 64 67c10 8 11 -2 11 -6zM246 588c0 -3 -11 -15 -22 -28c-20 -22 -37 -47 -45 -76c-12 -34 6 -29 3 -52
c-7 -10 -22 -10 -27 -10c-16 0 -26 21 -26 32c0 14 20 45 43 73c27 32 55 62 63 67c11 8 11 -2 11 -6z" />
    <glyph glyph-name="guillemotleft" unicode="&#xab;" horiz-adv-x="379"
d="M231 217c60 55 75 76 138 128c8 8 21 0 -2 -26c-21 -25 -31 -39 -103 -107c28 -54 48 -94 57 -114c10 -25 -4 -39 -17 -16c-23 36 -48 67 -78 96c-20 20 -12 21 5 39zM100 217c60 56 76 76 139 128c8 8 20 0 -3 -26c-21 -25 -30 -39 -102 -107c27 -54 48 -94 56 -114
c10 -25 -3 -39 -16 -16c-23 36 -49 66 -79 96c-20 20 -13 22 5 39z" />
    <glyph glyph-name="guilsinglleft" unicode="&#x2039;" horiz-adv-x="295"
d="M100 217c60 56 76 76 139 128c8 8 20 0 -3 -26c-21 -25 -30 -39 -102 -107c27 -54 48 -94 56 -114c10 -25 -3 -39 -16 -16c-23 36 -49 66 -79 96c-20 20 -13 22 5 39z" />
    <glyph glyph-name="guilsinglright" unicode="&#x203a;" horiz-adv-x="285"
d="M234 210c-60 -55 -77 -76 -139 -128c-9 -7 -19 1 2 26c23 26 30 39 103 109c-28 53 -49 93 -56 112c-10 26 2 39 16 16c22 -36 49 -66 79 -96c18 -19 12 -21 -5 -39z" />
    <glyph glyph-name="fi" unicode="&#xfb01;" horiz-adv-x="459"
d="M491 505c-2 -48 -52 -162 -107 -127c-20 12 17 42 31 64c16 23 79 112 16 117c-26 1 -69 -24 -114 -92c-21 -34 -43 -73 -63 -112c-37 -70 -67 -138 -85 -180c-3 -5 -5 -10 -8 -17c34 5 60 11 105 11c15 0 43 -5 -1 -17c-15 -5 -66 -14 -115 -22
c-28 -71 -75 -197 -104 -277c-30 -85 -11 -74 -22 -101c-24 -62 -27 -78 -42 -87c-15 -8 -75 -33 -60 -3c62 121 109 245 155 373l32 89c-24 -4 -44 -5 -53 -5c-12 0 -27 9 -27 23c0 17 45 28 60 28c16 0 20 -16 28 -16h3c26 74 60 158 92 229c38 81 119 237 232 196
c27 -10 48 -44 47 -74zM524 140c-19 -35 -80 -101 -130 -137c-18 -14 -49 -26 -77 -25c-77 4 -46 91 -31 135c15 41 33 84 40 105c11 31 21 56 35 59c14 1 30 -2 35 -12c6 -12 -5 -31 -20 -62c-30 -60 -56 -113 -60 -145c-6 -43 14 -66 46 -49c33 18 108 81 149 139
c5 7 18 1 13 -8z" />
    <glyph glyph-name="fl" unicode="&#xfb02;" horiz-adv-x="522"
d="M492 519c-1 -25 -17 -57 -47 -67c-18 -7 -18 6 -1 33c45 78 -34 124 -127 -18c-21 -34 -43 -73 -63 -112c-37 -70 -67 -138 -85 -180c-3 -5 -7 -12 -10 -22c55 0 120 1 186 19c41 111 116 250 162 311c38 49 83 109 152 109c45 0 77 -35 41 -100
c-43 -75 -96 -145 -155 -208c-34 -35 -69 -62 -99 -81c-17 -11 -36 -21 -54 -30c-20 -41 -28 -83 -30 -91c-6 -49 8 -103 67 -70c38 21 112 88 146 136c5 7 17 1 11 -10c-20 -35 -82 -101 -132 -138c-20 -15 -44 -22 -63 -22c-60 0 -77 34 -76 80c1 24 10 56 22 92
c-67 -22 -133 -28 -191 -31c-29 -72 -72 -190 -100 -266c-30 -85 -11 -74 -22 -101c-24 -62 -27 -78 -42 -87c-15 -8 -75 -33 -60 -3c62 121 109 245 155 373l30 84h-51c-12 0 -27 9 -27 23c0 17 45 28 60 28c16 0 20 -16 28 -16h3c26 74 60 158 92 229
c38 81 119 237 232 196c27 -10 50 -30 48 -60zM419 237c-12 -23 -10 -23 -19 -45l7 3c39 23 79 57 123 108c60 71 114 150 144 207c26 49 3 72 -40 39c-62 -47 -113 -119 -155 -196c-12 -20 -38 -71 -60 -116z" />
    <glyph glyph-name="endash" unicode="&#x2013;" horiz-adv-x="376"
d="M467 167c-46 -4 -267 -8 -301 -9c-46 -3 -11 36 10 36s249 1 290 1c33 0 54 -6 55 -12c0 -13 -45 -15 -54 -16z" />
    <glyph glyph-name="dagger" unicode="&#x2020;" horiz-adv-x="251"
d="M316 478c-24 -44 -49 -93 -75 -144c43 -1 83 -5 101 -9c10 -2 12 -15 -5 -15c-36 0 -73 -1 -110 -5c-62 -128 -125 -271 -161 -391c-6 -5 -22 -12 -26 1c-3 34 70 225 134 382c-19 -4 -37 -9 -55 -15c-10 -4 -30 -19 -33 6c0 10 4 22 16 29c20 8 53 13 87 16
c37 89 70 159 80 171c10 11 55 -11 47 -26z" />
    <glyph glyph-name="daggerdbl" unicode="&#x2021;" horiz-adv-x="251"
d="M290 194c9 -2 10 -15 -5 -15c-39 0 -79 0 -119 -5c-40 -90 -76 -180 -100 -260c-6 -5 -22 -12 -26 1c-1 25 36 134 82 252c-20 -5 -38 -10 -56 -17c-10 -3 -30 -17 -32 7c-2 11 3 23 16 30c20 8 51 13 86 15l38 95c-19 -4 -37 -9 -55 -15c-10 -4 -30 -19 -33 6
c0 10 4 22 16 29c20 8 53 13 87 16c37 89 70 159 80 171c10 11 55 -11 47 -26c-24 -44 -49 -93 -75 -144c43 -1 83 -5 101 -9c10 -2 12 -15 -5 -15c-36 0 -73 -1 -110 -5l-48 -102c46 0 90 -4 111 -9z" />
    <glyph glyph-name="periodcentered" unicode="&#xb7;" horiz-adv-x="207"
d="M177 184c0 -10 -17 -39 -26 -39c-14 0 -34 0 -34 17c0 5 28 28 33 33c32 25 27 4 27 -11z" />
    <glyph glyph-name="paragraph" unicode="&#xb6;" horiz-adv-x="529"
d="M422 538c-43 -88 -93 -188 -138 -290c26 1 52 4 77 9c46 125 96 247 118 286c-20 2 -39 5 -58 5c3 -3 4 -6 1 -10zM272 224c-41 -99 -76 -199 -93 -292c-7 -7 -22 -7 -25 8c-3 30 38 157 86 288c-23 2 -44 7 -66 14c-164 47 -159 213 -9 285c89 41 239 60 336 31
c16 0 38 -9 31 -20c-88 -178 -207 -406 -243 -606c-7 -7 -22 -7 -25 8c-3 30 38 154 85 283c-25 -1 -50 -1 -77 1zM249 249c48 133 102 263 122 298c-251 -22 -399 -248 -164 -293c14 -2 28 -4 42 -5z" />
    <glyph glyph-name="bullet" unicode="&#x2022;" horiz-adv-x="417"
d="M200 100c-94 0 -131 42 -131 99c0 71 70 155 195 155c82 0 126 -34 126 -95c0 -72 -76 -159 -190 -159z" />
    <glyph glyph-name="quotesinglbase" unicode="&#x201a;" horiz-adv-x="192"
d="M136 15c-6 -26 -17 -53 -26 -93c-5 -19 -21 -14 -19 3c5 25 4 88 4 97c1 32 -14 57 30 57c37 0 15 -47 11 -64z" />
    <glyph glyph-name="quotedblbase" unicode="&#x201e;" horiz-adv-x="311"
d="M247 15c-6 -26 -16 -53 -26 -93c-5 -19 -21 -14 -19 3c4 25 5 88 5 97c2 32 -13 57 30 57c37 0 14 -47 10 -64zM136 15c-6 -26 -17 -53 -26 -93c-5 -19 -21 -14 -19 3c5 25 4 88 4 97c1 32 -14 57 30 57c37 0 15 -47 11 -64z" />
    <glyph glyph-name="quotedblright" unicode="&#x201d;" horiz-adv-x="304"
d="M227 562c0 -14 -20 -45 -42 -73c-28 -32 -56 -62 -64 -67c-11 -8 -11 2 -11 6c0 1 11 15 22 27c20 23 38 48 47 77c11 33 -8 28 -5 52c7 10 22 10 27 10c16 0 26 -21 26 -32zM332 562c0 -14 -21 -45 -43 -73c-27 -32 -55 -62 -64 -67c-10 -8 -11 2 -11 6c0 1 11 15 23 27
c19 23 37 48 45 77c12 33 -6 28 -3 52c7 10 22 10 27 10c16 0 26 -21 26 -32z" />
    <glyph glyph-name="guillemotright" unicode="&#xbb;" horiz-adv-x="379"
d="M234 210c-60 -55 -77 -76 -139 -128c-9 -7 -19 1 2 26c23 26 30 39 103 109c-28 53 -49 93 -56 112c-10 26 2 39 16 16c22 -36 49 -66 79 -96c18 -19 12 -21 -5 -39zM364 210c-59 -55 -77 -76 -138 -128c-9 -7 -20 1 1 26c23 26 30 39 104 109c-29 53 -50 93 -57 112
c-10 26 2 39 16 16c22 -36 49 -66 79 -96c20 -19 13 -21 -5 -39z" />
    <glyph glyph-name="ellipsis" unicode="&#x2026;" horiz-adv-x="451"
d="M125 27c0 -9 -18 -39 -26 -39c-14 0 -34 0 -34 16c0 5 27 30 32 34c33 25 28 5 28 -11zM284 27c0 -9 -19 -39 -28 -39c-14 0 -34 0 -34 16c0 5 28 30 33 34c34 25 29 5 29 -11zM436 27c0 -9 -19 -39 -26 -39c-14 0 -34 0 -34 16c0 5 28 30 33 34c32 25 27 5 27 -11z" />
    <glyph glyph-name="perthousand" unicode="&#x2030;" horiz-adv-x="650"
d="M589 84c8 24 21 81 -23 80c-36 -1 -66 -47 -76 -76c-9 -25 -21 -81 22 -80c37 0 67 47 77 76zM632 115c-7 -66 -68 -127 -122 -128c-50 -2 -68 32 -63 72c9 75 69 121 125 123c34 0 67 -17 60 -67zM369 84c8 24 22 81 -22 80c-36 -1 -67 -47 -77 -76
c-9 -25 -20 -81 24 -80c36 0 65 47 75 76zM412 115c-7 -66 -67 -127 -121 -128c-50 -2 -67 32 -64 72c9 75 69 121 127 123c32 0 65 -17 58 -67zM236 518c45 -19 123 -13 158 12c13 13 68 13 56 -3c-61 -73 -260 -348 -350 -532c-10 -20 -44 -27 -39 -8
c15 50 238 397 311 512c-37 -12 -86 -15 -122 -4c1 -7 2 -17 1 -28c-9 -67 -69 -128 -122 -129c-50 -1 -68 32 -63 71c9 76 69 123 126 124c15 0 32 -4 44 -15zM207 434c9 25 22 83 -22 81c-36 0 -66 -48 -76 -76c-9 -25 -22 -82 22 -81c38 1 66 49 76 76z" />
    <glyph glyph-name="questiondown" unicode="&#xbf;" horiz-adv-x="409"
d="M326 370c0 9 18 39 26 39c14 0 34 0 34 -17c0 -4 -27 -29 -32 -33c-33 -26 -28 -5 -28 11zM255 -148c10 5 24 12 35 13c36 5 52 28 59 44c5 14 8 35 8 53c2 67 -45 -25 -76 -55s-77 -64 -122 -64s-72 37 -72 84c0 102 47 145 118 206c46 40 94 81 99 121
c2 16 -19 15 -22 3c-7 -38 -51 -70 -95 -102c-78 -53 -185 -135 -161 -246c24 -107 158 -94 229 -57z" />
    <glyph glyph-name="grave" unicode="`" horiz-adv-x="342"
d="M235 342c5 -3 9 -12 -4 -12c-14 0 -91 37 -134 60c-13 8 -57 38 -21 50c18 7 36 -7 58 -22c33 -26 67 -51 101 -76z" />
    <glyph glyph-name="acute" unicode="&#xb4;" horiz-adv-x="181"
d="M324 365l-2 -1c-21 -17 -142 -75 -160 -76c-12 0 -7 7 -3 11c1 3 43 30 55 39c26 22 56 39 75 64c11 5 23 -3 28 -4c14 -9 14 -26 7 -33z" />
    <glyph glyph-name="circumflex" unicode="&#x2c6;" horiz-adv-x="457"
d="M404 349c6 -9 6 -29 -10 -15c-12 13 -72 60 -83 73c-32 -20 -59 -47 -90 -68c-30 -19 -19 6 -9 15c18 14 92 86 112 88c18 -8 62 -65 80 -93z" />
    <glyph glyph-name="tilde" unicode="&#x2dc;" horiz-adv-x="409"
d="M402 405c-17 -40 -55 -72 -92 -60c-38 14 -74 37 -111 29c-22 -5 -39 -17 -50 -35c-4 -5 -18 0 -15 4c30 42 63 89 110 72c20 -7 53 -28 81 -37c30 -9 49 -1 60 30c4 6 20 2 17 -3z" />
    <glyph glyph-name="macron" unicode="&#xaf;" horiz-adv-x="377"
d="M314 360c-48 -3 -125 -7 -159 -8c-46 -3 -11 36 9 36c22 0 107 1 148 1c33 0 54 -6 55 -12c0 -13 -46 -15 -53 -17z" />
    <glyph glyph-name="breve" unicode="&#x2d8;" horiz-adv-x="315"
d="M335 485c5 -2 6 -8 6 -11c-36 -147 -282 -176 -257 -9c5 32 35 20 35 4c-3 -114 162 -130 208 15c2 5 7 3 8 1z" />
    <glyph glyph-name="dotaccent" unicode="&#x2d9;" horiz-adv-x="229"
d="M216 457c0 -9 -19 -39 -27 -39c-14 0 -34 0 -34 17c0 4 27 29 32 33c34 26 29 5 29 -11z" />
    <glyph glyph-name="dieresis" unicode="&#xa8;" horiz-adv-x="392"
d="M240 374c0 -10 -18 -39 -26 -39c-14 0 -34 0 -34 17c0 5 42 36 47 40c33 26 13 -3 13 -18zM399 374c0 -10 -19 -39 -27 -39c-15 0 -33 0 -33 17c0 5 42 36 47 40c33 26 13 -3 13 -18z" />
    <glyph glyph-name="ring" unicode="&#x2da;" horiz-adv-x="354"
d="M225 522c6 15 10 51 -30 51c-38 0 -73 -46 -70 -73c1 -13 12 -26 36 -26c34 0 58 30 64 48zM252 543c0 -26 -18 -51 -43 -69c-24 -15 -57 -16 -79 -7c-21 8 -35 26 -31 52c2 14 15 36 38 51c12 9 37 15 59 15c28 0 56 -11 56 -42z" />
    <glyph glyph-name="cedilla" unicode="&#xb8;" horiz-adv-x="467"
d="M52 -242c-12 22 3 24 14 7c48 -72 213 -5 213 78c0 31 -25 54 -65 45c-37 -8 -62 -14 -43 11c13 16 43 70 50 89c5 11 40 12 34 0c-5 -11 -49 -68 -56 -79c81 16 126 -20 126 -66c0 -101 -219 -175 -273 -85z" />
    <glyph glyph-name="hungarumlaut" unicode="&#x2dd;" horiz-adv-x="311"
d="M311 473c-15 -26 -35 -54 -57 -94c-12 -20 -25 -14 -17 4c12 25 32 87 35 95c12 34 4 59 49 59c36 0 -1 -49 -10 -64zM199 473c-15 -26 -34 -54 -57 -94c-11 -20 -26 -14 -17 4c12 25 32 87 35 95c11 34 5 59 49 59c37 0 -2 -49 -10 -64z" />
    <glyph glyph-name="ogonek" unicode="&#x2db;" horiz-adv-x="1500"
d="M352 -173c22 20 27 2 13 -13c-15 -17 -88 -125 -168 -125c-21 0 -48 14 -63 34c-38 46 2 112 66 156c57 40 127 83 162 106c12 8 40 7 34 0c-39 -38 -95 -61 -146 -107c-29 -26 -111 -121 -80 -165c24 -35 160 96 182 114z" />
    <glyph glyph-name="caron" unicode="&#x2c7;" horiz-adv-x="457"
d="M212 427c-6 10 -5 30 10 15c13 -12 73 -59 84 -72c33 20 58 45 90 67c29 18 19 -7 8 -15c-18 -14 -92 -87 -110 -88c-20 8 -63 65 -82 93z" />
    <glyph glyph-name="emdash" unicode="&#x2014;" horiz-adv-x="725"
d="M669 167c-47 -4 -469 -8 -503 -9c-46 -3 -11 36 10 36s450 1 491 1c33 0 54 -6 55 -12c0 -13 -45 -15 -53 -16z" />
    <glyph glyph-name="AE" unicode="&#xc6;" horiz-adv-x="854"
d="M656 232c-2 -9 -24 -9 -65 -12c-39 -2 -105 -5 -166 -5c-29 -80 -45 -218 91 -218c113 0 253 57 326 143c9 10 15 -8 9 -16c-59 -71 -191 -160 -364 -160c-165 0 -151 138 -108 250c-38 0 -68 0 -83 -1c-1 0 -2 1 -4 0c-77 0 -156 1 -167 0c-48 -79 -93 -214 -98 -288
c-1 -2 -1 -8 -5 -8c-7 0 -20 18 -21 25c-11 68 49 213 83 267h-19c-29 0 -29 34 11 36c13 0 24 2 30 3c53 81 240 301 359 301c12 0 54 -6 60 -24c17 5 39 8 61 9c59 5 148 6 219 0c1 0 4 1 6 1c19 4 40 -8 23 -26c-8 -7 -25 -17 -40 -32c-28 -27 -52 -64 -34 -92
c4 -7 -5 -16 -16 -3c-9 10 -10 62 7 97c6 10 16 25 29 36c-76 -2 -169 -15 -201 -33c-24 -14 -113 -179 -142 -238c84 -1 162 -1 198 -1c9 0 25 -1 21 -11zM141 245h49c56 0 130 -1 201 -1c36 80 96 149 101 240c3 35 -13 44 -22 49c-136 -38 -249 -171 -329 -288z" />
    <glyph glyph-name="Lslash" unicode="&#x141;" horiz-adv-x="471"
d="M412 62c40 25 24 -50 -35 -67c-41 -11 -123 -17 -202 -17c-171 0 -154 135 -106 250l8 20l-25 -8c-45 -13 -21 33 -1 38c9 1 26 6 48 12c38 69 96 157 122 189c-19 34 -4 51 50 55c29 -4 31 -4 16 -25c-18 -27 -76 -110 -123 -201l31 7c31 8 54 8 56 2
c4 -13 -40 -25 -49 -29c-16 -6 -37 -13 -57 -19c-63 -134 -89 -271 67 -271c95 0 148 30 200 64z" />
    <glyph glyph-name="Oslash" unicode="&#xd8;" horiz-adv-x="614"
d="M569 527c15 15 -25 17 -39 3c-4 -2 -10 -10 -16 -18c-88 47 -214 35 -300 -2c-82 -33 -170 -126 -149 -223c5 -22 17 -37 35 -44c-36 -94 -24 -194 45 -245c-16 -25 -26 -44 -30 -53c-6 -18 27 -11 39 9l17 28c23 -10 49 -18 80 -19c153 -8 283 97 341 231
c53 118 30 235 -50 299l-1 1zM530 480l4 -2c66 -45 70 -141 22 -255c-54 -126 -189 -231 -310 -231c-25 0 -46 3 -64 10c98 157 262 373 348 478zM157 17c-61 45 -56 142 -21 221c5 0 11 1 16 2c14 4 13 10 0 12c-2 0 -6 0 -8 1c8 15 17 30 28 44c58 71 147 123 225 123
c12 0 28 -2 39 -8c-87 -119 -214 -295 -279 -395zM451 432c-9 12 -26 20 -45 21c-71 7 -174 -38 -225 -86c-30 -29 -54 -63 -70 -98c-7 8 -10 18 -11 29c-14 174 259 269 401 200z" />
    <glyph glyph-name="OE" unicode="&#x152;" horiz-adv-x="1500"
 />
    <glyph glyph-name="ae" unicode="&#xe6;" horiz-adv-x="565"
d="M627 138c-38 -66 -103 -121 -173 -150c-49 -20 -105 -21 -143 -1c-60 30 -49 97 -29 150c-17 -8 -112 -148 -192 -148c-21 0 -49 14 -64 34c-74 94 154 244 229 262c30 8 74 10 100 -8c10 -7 17 -17 17 -27c0 -7 -1 -7 -6 -5c-11 17 -31 19 -50 19
c-52 0 -122 -40 -174 -86c-28 -26 -111 -121 -80 -165c14 -20 63 16 77 27c26 22 71 60 97 88c14 15 90 99 99 99c6 0 24 -3 34 -9c56 47 126 85 170 70c41 -14 35 -65 16 -93c-36 -53 -130 -91 -176 -95c-15 -1 -22 13 -7 14c33 3 88 35 125 65c17 13 47 43 45 65
c-1 28 -37 13 -51 6c-59 -27 -145 -110 -167 -183c-25 -84 53 -85 117 -59c74 30 136 86 175 139c4 5 9 5 10 3c5 -2 5 -7 1 -12z" />
    <glyph glyph-name="dotlessi" unicode="&#x131;"
d="M291 140c-19 -35 -80 -101 -130 -137c-32 -24 -106 -48 -126 12c-8 23 9 77 30 123c-9 -11 -18 -26 -39 -50c-10 -11 -20 2 -11 14c35 43 62 80 77 103c-1 3 -1 7 2 13c11 31 21 56 35 59c13 1 30 -2 35 -12c6 -12 -5 -31 -20 -62c-30 -60 -57 -113 -60 -145
c-7 -43 13 -66 46 -49c32 18 107 81 149 139c5 7 17 1 12 -8z" />
    <glyph glyph-name="lslash" unicode="&#x142;" horiz-adv-x="235"
d="M89 128c-7 -20 -12 -36 -13 -46c-6 -49 8 -103 66 -70c39 21 113 88 147 136c5 7 17 1 11 -10c-20 -35 -83 -101 -133 -138c-20 -15 -43 -22 -62 -22c-60 0 -78 34 -76 80c2 37 21 96 47 159c-19 -5 -34 -8 -40 -10c-44 -14 -20 32 0 37l58 11c40 90 92 182 127 228
c38 49 83 109 151 109c45 0 78 -35 42 -100c-43 -75 -95 -143 -154 -205l25 6c31 9 54 7 56 1c3 -11 -41 -25 -49 -27c-13 -5 -40 -13 -71 -19c-42 -43 -87 -83 -132 -120zM146 265l78 14c66 76 130 168 163 231c27 49 4 72 -40 39c-61 -47 -112 -119 -155 -196zM186 239
c-20 -4 -40 -7 -59 -12c-10 -19 -16 -40 -23 -59c26 17 53 42 82 71z" />
    <glyph glyph-name="oslash" unicode="&#xf8;" horiz-adv-x="351"
d="M346 335c-16 -17 -42 -48 -75 -88v-7c-2 -11 -10 -15 -14 -12c-52 -66 -116 -151 -163 -225c7 -5 16 -9 27 -9c31 0 74 33 104 78c-1 2 -3 3 -3 6c-6 21 8 37 25 32c27 54 19 75 14 87c-11 28 33 38 41 11c14 -41 -21 -103 -43 -134c1 -19 12 -27 25 -27
c32 0 65 37 85 58c12 14 25 29 35 43c5 7 17 1 12 -8c-6 -12 -19 -28 -34 -46c-22 -27 -62 -70 -101 -70c-17 0 -34 10 -41 25c-13 -14 -26 -27 -39 -39c-39 -33 -86 -40 -119 -26l-21 -35c-7 -14 -32 -19 -27 -5c2 8 13 25 30 50c-29 21 -38 66 -22 125c12 38 43 91 88 131
c37 33 82 49 112 38c9 -3 17 -8 22 -15c26 34 45 59 53 65c10 10 39 9 29 -3zM81 20c46 69 116 165 169 234c-3 4 -8 6 -15 6c-44 0 -140 -102 -156 -193c-3 -18 -3 -34 2 -47z" />
    <glyph glyph-name="oe" unicode="&#x153;" horiz-adv-x="524"
d="M205 47c6 5 14 16 21 28c3 13 6 25 13 39c30 68 185 199 260 174c41 -14 35 -65 16 -93c-36 -53 -131 -91 -176 -95c-15 -1 -22 13 -7 14c32 3 88 35 125 65c17 13 47 43 45 65c-1 28 -37 13 -51 6c-59 -27 -145 -110 -167 -183c-25 -84 52 -85 117 -59
c74 30 138 84 174 139c4 5 9 5 11 3c5 -2 5 -7 1 -12c-17 -29 -38 -55 -63 -78c-33 -31 -70 -56 -110 -72c-78 -31 -170 -15 -187 49c-8 -10 -18 -19 -26 -27c-45 -38 -99 -41 -132 -20c-33 20 -45 67 -27 129c10 38 43 91 88 131c37 33 82 49 112 38c8 -3 23 -8 34 -26
c14 -24 10 -63 -2 -72c-3 -1 -15 -5 -14 5c2 19 16 65 -25 65c-44 0 -140 -102 -156 -193c-7 -39 5 -73 42 -73c25 0 56 21 84 53z" />
    <glyph glyph-name="germandbls" unicode="&#xdf;" horiz-adv-x="524"
d="M340 223c37 -29 102 -79 125 -114c47 -70 -34 -131 -93 -156c-26 -11 -160 -31 -181 10c-4 9 5 11 15 4c44 -35 209 8 209 112c0 74 -139 115 -139 185c0 15 21 28 45 39c54 25 113 51 145 104c35 55 11 110 -55 108c-17 0 -52 -11 -85 -40
c-152 -137 -175 -497 -296 -635c-31 -35 -73 -56 -125 -38c-29 10 -53 30 -56 61c-3 24 37 45 35 4c-2 -27 15 -44 38 -44c29 0 55 21 77 50c68 90 120 234 168 375h-2c-44 -8 -90 -13 -104 -13c-10 0 -21 8 -21 18c0 14 35 22 46 22c13 0 16 -12 23 -12c18 1 38 4 57 6h9
l21 58c28 76 103 213 206 215c38 1 69 -9 87 -32c22 -27 22 -73 -7 -113c-28 -42 -62 -62 -97 -82c-30 -17 -96 -52 -45 -92z" />
    <glyph glyph-name="logicalnot" unicode="&#xac;" horiz-adv-x="745"
d="M715 259c0 -16 -8 -35 -10 -51c-11 -58 -29 -116 -36 -174c-4 -6 -9 -9 -14 -7c-5 1 -9 5 -10 12c2 70 5 143 22 210c-203 -15 -406 -30 -610 -41c-20 -1 -38 26 8 29c205 8 411 33 616 38c18 0 34 -2 34 -16z" />
    <glyph glyph-name="mu" unicode="&#xb5;" horiz-adv-x="445"
d="M46 18c-21 -58 -45 -119 -61 -165c-31 -85 -11 -74 -23 -101c-23 -62 -26 -78 -41 -87c-15 -8 -75 -33 -60 -3c61 121 126 327 180 453l4 9c10 25 20 51 32 73c12 21 25 52 34 55c18 5 40 5 54 0c12 -5 6 -15 1 -20c-21 -20 -62 -73 -87 -140c-32 -85 13 -108 83 -52
c37 30 80 88 117 142c18 26 52 90 65 110c13 0 62 -9 52 -27c-12 -20 -49 -82 -62 -108c-15 -29 -27 -63 -32 -99c-6 -43 14 -66 47 -49c32 18 107 81 148 139c5 7 18 1 13 -8c-19 -35 -80 -101 -130 -137c-33 -24 -106 -48 -126 12c-9 27 3 94 17 129
c-15 -10 -77 -155 -159 -155c-18 0 -51 10 -66 29z" />
    <glyph glyph-name="trademark" unicode="&#x2122;" horiz-adv-x="857"
d="M454 325v2c-23 -50 -43 -102 -53 -159c-7 -6 -34 -10 -37 2c-2 27 46 152 86 242c0 33 2 65 5 87c2 21 15 31 27 36c5 2 12 3 17 2c7 -2 11 -7 10 -12l-3 -15c15 -1 36 -16 31 -26l-37 -67c-1 -28 0 -57 2 -82c15 -128 43 -127 125 -45c43 42 87 99 122 145
c7 22 22 58 37 75c14 15 28 27 38 28c11 2 20 -6 10 -26c-8 -17 -35 -65 -63 -102c-10 -22 -25 -78 -37 -127l-8 -26c-2 -13 -6 -28 -6 -42c-3 -22 0 -41 24 -28c25 12 61 10 27 -15c-20 -15 -76 -35 -95 11c-11 26 4 84 29 151c-20 -24 -41 -47 -61 -67
c-87 -90 -167 -108 -190 58zM137 168c-7 -8 -43 -10 -46 4c1 28 118 293 141 321l3 1c-33 -2 -65 -7 -96 -12l-13 -4c-4 0 -9 -1 -14 -3c-10 0 -22 2 -25 17c-2 11 8 22 27 27c76 19 268 13 326 5c11 -1 16 -9 14 -14c0 -2 -7 -8 -22 -8c-57 0 -116 0 -173 -5
c0 -3 0 -7 -4 -12c-48 -80 -94 -227 -118 -317z" />
    <glyph glyph-name="Eth" unicode="&#xd0;" horiz-adv-x="567"
d="M266 452c-39 -78 -79 -147 -114 -217h52c32 0 53 -5 53 -12c2 -13 -45 -15 -52 -15l-69 -5c-25 -55 -46 -111 -61 -176c160 -98 474 70 474 307c0 71 -30 135 -115 165s-202 15 -305 -15c-20 -5 -55 25 -19 40s70 18 129 21c70 5 143 -2 206 -25
c106 -40 151 -118 151 -202c0 -210 -225 -344 -414 -341c-40 1 -81 8 -113 21v-4c-7 -6 -37 -14 -39 0c-1 5 0 15 2 26c-7 8 -12 15 -15 24c-7 19 2 38 13 24l11 -14c13 39 31 91 51 146c-18 -1 -35 -2 -46 -2c-46 -3 -12 37 9 37h51c43 110 91 219 106 238
c12 11 62 -6 54 -21z" />
    <glyph glyph-name="plusminus" unicode="&#xb1;" horiz-adv-x="615"
d="M436 -41c-46 -4 -322 -7 -356 -9c-46 -2 -13 37 9 37c21 0 305 1 346 1c42 0 36 -25 1 -29zM396 388c16 31 41 26 25 -11l-56 -132h147c42 0 37 -25 2 -27c-22 -3 -79 -4 -164 -5l-74 -173c-9 -20 -59 -35 -37 7c7 15 41 88 75 165c-85 -2 -142 -3 -157 -4
c-46 -3 -12 37 9 37h163c30 65 57 125 67 143z" />
    <glyph glyph-name="Thorn" unicode="&#xde;" horiz-adv-x="454"
d="M414 174c-60 -29 -194 -60 -255 -40c-15 5 -10 20 1 18c17 -4 42 -5 72 -3c189 20 388 249 139 296c-42 8 -84 8 -124 3c-72 -145 -153 -318 -178 -454c-7 -6 -37 -14 -39 0c-3 39 86 278 155 443c-68 -18 -124 -44 -160 -63c-4 -2 -11 -6 -13 3c-7 43 79 86 189 97
c26 61 46 108 55 118c10 10 61 -8 54 -23l-46 -91c46 0 95 -6 140 -19c165 -47 158 -215 10 -285z" />
    <glyph glyph-name="divide" unicode="&#xf7;" horiz-adv-x="469"
d="M417 167c-47 -4 -267 -8 -301 -9c-46 -3 -11 36 9 36c22 0 250 1 291 1c33 0 54 -6 54 -12c1 -13 -45 -15 -53 -16zM274 82c0 -10 -19 -39 -27 -39c-13 0 -33 0 -33 16c0 4 27 29 32 34c33 25 28 4 28 -11zM346 289c0 -10 -19 -39 -26 -39c-14 0 -34 0 -34 17
c0 5 28 28 33 33c32 25 27 4 27 -11z" />
    <glyph glyph-name="degree" unicode="&#xb0;" horiz-adv-x="354"
d="M265 548c11 50 -24 75 -71 74c-18 -2 -30 -27 -30 -42c0 -53 92 -73 101 -32zM301 557c-7 -108 -180 -67 -180 26c0 32 28 67 61 74c62 11 125 -17 119 -100z" />
    <glyph glyph-name="thorn" unicode="&#xfe;" horiz-adv-x="351"
d="M284 167c33 57 26 116 -48 77c-107 -56 -144 -142 -195 -245c85 0 198 91 243 168zM352 223c10 -76 -70 -151 -120 -184c-47 -31 -141 -74 -200 -56c-17 -40 -41 -110 -61 -171c-9 -27 -1 -39 -10 -65c-9 -27 -17 -52 -29 -74c-6 -14 -90 -49 -70 -6
c25 51 83 192 137 332c25 63 50 126 68 180c18 51 120 319 120 345c0 10 18 11 32 11c43 0 41 -27 13 -70c-25 -38 -128 -302 -146 -345c31 43 58 87 94 115c39 32 79 50 129 33c22 -8 40 -23 43 -45z" />
    <glyph glyph-name="registered" unicode="&#xae;" horiz-adv-x="736"
d="M16 260c24 182 200 328 395 328c194 0 331 -146 308 -328c-25 -181 -202 -327 -395 -327c-195 0 -333 146 -308 327zM62 298c-33 -161 77 -308 244 -328c169 -20 334 93 368 253c33 161 -77 307 -245 327c-169 20 -333 -92 -367 -252zM366 415c-31 -61 -64 -115 -91 -171
c49 1 125 15 186 56c84 57 109 147 9 170c-68 17 -179 -30 -201 -36c-8 -2 -38 29 5 40c30 8 122 30 193 14c64 -14 102 -45 98 -93c-8 -101 -131 -146 -213 -163c34 -68 92 -114 147 -163c10 -9 1 -16 -10 -17c-39 -5 -162 142 -183 173c-6 -1 -24 -5 -31 -2l-8 4
c-22 -49 -42 -102 -52 -162c-5 -3 -28 -10 -30 2c-3 42 117 337 140 366c7 7 46 -6 41 -18z" />
    <glyph glyph-name="minus" unicode="&#x2212;" horiz-adv-x="539"
d="M466 144c-46 -4 -266 -7 -300 -9c-46 -2 -12 37 9 37s249 1 290 1c32 0 55 -6 55 -13c0 -12 -45 -15 -54 -16z" />
    <glyph glyph-name="eth" unicode="&#xf0;" horiz-adv-x="432"
d="M81 -21c-52 15 -79 63 -47 135c30 68 185 199 260 174c18 -6 33 -19 26 -45c-9 -15 -14 -5 -14 -1c0 8 -15 18 -25 18c-51 0 -175 -102 -202 -193c-10 -34 -4 -54 11 -64c67 -41 159 36 191 77c34 42 60 88 76 130c18 45 30 102 35 157l-70 -22c-45 -13 -21 33 -1 38
l73 20c1 19 0 37 -2 55c-11 102 -86 125 -127 76c-44 -52 -73 9 -26 38c50 31 151 7 183 -103c5 -17 8 -36 9 -57l34 8c32 8 54 8 56 2c4 -12 -40 -25 -47 -28l-42 -15c-2 -102 -45 -230 -116 -312c-52 -62 -141 -114 -235 -88z" />
    <glyph glyph-name="multiply" unicode="&#xd7;" horiz-adv-x="467"
d="M370 -1c-30 50 -65 110 -123 181c-58 -48 -122 -108 -191 -182c-19 -20 -45 -14 -31 7c21 33 112 117 205 195c-38 45 -85 94 -145 148c-18 15 7 30 27 19c27 -15 84 -77 142 -147c81 69 157 130 185 145c20 10 47 -11 27 -25c-52 -33 -117 -77 -195 -140
c68 -81 131 -165 145 -195c8 -18 -35 -25 -46 -6z" />
    <glyph glyph-name="copyright" unicode="&#xa9;" horiz-adv-x="736"
d="M291 35c-42 0 -85 14 -115 48c-40 44 -42 116 1 200c55 105 168 205 275 205c32 0 87 -8 87 -64c0 -42 -37 -65 -54 -70c-26 -9 -34 3 -4 29c11 10 18 25 18 39c0 25 -27 38 -52 38c-73 2 -170 -92 -218 -190c-87 -173 21 -263 188 -173c42 22 85 56 115 95
c5 7 19 16 23 2c2 -5 1 -15 -4 -20c-59 -77 -160 -139 -260 -139zM674 223c33 161 -77 307 -245 327c-169 20 -333 -92 -367 -252c-33 -161 77 -308 244 -328c169 -20 334 93 368 253zM719 260c-25 -181 -202 -327 -395 -327c-195 0 -333 146 -308 327
c24 182 200 328 395 328c194 0 331 -146 308 -328z" />
    <glyph glyph-name="Aacute" unicode="&#xc1;" horiz-adv-x="849"
d="M11 12c0 21 20 42 20 0c0 -24 10 -40 30 -53c15 -10 36 -15 61 -15c53 0 112 20 163 54c59 40 136 119 215 209c-56 7 -113 13 -168 17c-70 4 -155 -5 -183 -82c-5 -14 -5 -28 1 -38c7 -14 -9 -22 -18 -9c-8 14 -12 38 -10 62c10 121 114 120 215 108
c59 -6 123 -20 185 -32c105 121 209 256 273 336c2 3 5 5 7 6c14 8 43 14 52 14c6 0 10 -4 10 -10c0 -2 -3 -6 -5 -11c-68 -113 -115 -231 -149 -358l-3 -7c9 0 17 -1 25 -1c27 -2 53 1 73 10c14 5 25 13 30 22c6 10 17 -1 11 -11c-7 -13 -21 -23 -39 -29
c-21 -9 -50 -11 -78 -10c-9 0 -18 1 -27 1c-8 -37 -16 -76 -18 -115c-9 -101 38 -87 107 -35c46 35 85 79 111 114c4 4 17 3 12 -9c-3 -7 -48 -73 -119 -130c-38 -30 -78 -35 -98 -35c-42 0 -65 48 -58 112c2 32 8 66 17 102c-40 4 -79 9 -119 14
c-80 -99 -161 -188 -231 -239c-52 -39 -107 -59 -164 -59c-37 0 -67 9 -90 25c-27 19 -41 45 -41 82zM752 478c2 4 3 7 5 11c-58 -79 -128 -174 -201 -264l105 -17c24 94 60 191 91 270zM1020 734l-1 -1c-22 -18 -143 -75 -160 -76c-13 0 -8 7 -4 11c1 2 44 30 55 39
c26 22 56 38 75 63c11 5 24 -2 29 -3c13 -9 13 -27 6 -33z" />
    <glyph glyph-name="Acircumflex" unicode="&#xc2;" horiz-adv-x="470"
d="M846 223c6 10 -5 21 -11 11c-5 -9 -16 -17 -30 -22c-20 -9 -46 -12 -73 -10c-8 0 -16 1 -25 1l3 7c34 127 81 245 149 358c2 5 5 9 5 11c0 6 -4 10 -10 10c-9 0 -38 -6 -52 -14c-2 -1 -5 -3 -7 -6c-64 -80 -168 -215 -273 -336c-62 12 -126 26 -185 32
c-101 12 -205 13 -215 -108c-2 -24 2 -48 10 -62c9 -13 25 -5 18 9c-6 10 -6 24 -1 38c28 77 113 86 183 82c55 -4 112 -10 168 -17c-79 -90 -156 -169 -215 -209c-51 -34 -110 -54 -163 -54c-25 0 -46 5 -61 15c-20 13 -30 29 -30 53c0 42 -20 21 -20 0
c0 -37 14 -63 41 -82c23 -16 53 -25 90 -25c57 0 112 20 164 59c70 51 151 140 231 238c40 -5 79 -9 119 -13c-9 -36 -15 -70 -17 -102c-7 -64 16 -112 58 -112c20 0 60 5 98 35c71 57 116 123 119 130c5 12 -8 13 -12 9c-26 -35 -65 -79 -111 -114
c-69 -52 -116 -66 -107 35c2 39 10 78 20 115c7 0 16 -1 25 -1c28 -1 57 1 78 10c18 6 32 16 39 29zM752 478c-31 -79 -67 -176 -91 -270l-105 17c73 90 143 185 201 264c-2 -4 -3 -7 -5 -11zM971 650c6 -8 6 -28 -10 -15c-11 13 -71 60 -82 73c-33 -20 -59 -46 -90 -68
c-30 -18 -19 7 -9 15c17 14 91 87 111 88c19 -8 63 -65 80 -93z" />
    <glyph glyph-name="Adieresis" unicode="&#xc4;" horiz-adv-x="470"
d="M846 223c6 10 -5 21 -11 11c-5 -9 -16 -17 -30 -22c-20 -9 -46 -12 -73 -10c-8 0 -16 1 -25 1l3 7c34 127 81 245 149 358c2 5 5 9 5 11c0 6 -4 10 -10 10c-9 0 -38 -6 -52 -14l-5 -3h-1c0 -2 -1 -2 -1 -3c-64 -80 -168 -215 -273 -336c-62 12 -126 26 -185 32
c-101 12 -205 13 -215 -108c-2 -24 2 -48 10 -62c9 -13 25 -5 18 9c-6 10 -6 24 -1 38c28 77 113 86 183 82c55 -4 112 -10 168 -17c-79 -90 -156 -169 -215 -209c-51 -34 -110 -54 -163 -54c-25 0 -46 5 -61 15c-20 13 -30 29 -30 53c0 42 -20 21 -20 0
c0 -37 14 -63 41 -82c23 -16 53 -25 90 -25c57 0 112 20 164 59c70 51 151 140 231 238c40 -5 79 -9 119 -13c-9 -36 -15 -70 -17 -102c-7 -64 16 -112 58 -112c20 0 60 5 98 35c71 57 116 123 119 130c5 12 -8 13 -12 9c-26 -35 -65 -79 -111 -114
c-69 -52 -116 -66 -107 35c2 39 10 78 20 115c7 0 16 -1 25 -1c28 -1 57 1 78 10c18 6 32 16 39 29zM752 478c-31 -79 -67 -176 -91 -270l-105 17c73 90 143 185 201 264c-2 -4 -3 -7 -5 -11zM809 687c0 -10 -18 -39 -27 -39c-13 0 -33 0 -33 16c0 5 42 36 47 40
c33 26 13 -2 13 -17zM967 687c0 -10 -18 -39 -26 -39c-15 0 -34 0 -34 16c0 5 43 36 48 40c32 26 12 -2 12 -17z" />
    <glyph glyph-name="Agrave" unicode="&#xc0;" horiz-adv-x="470"
d="M846 223c6 10 -5 21 -11 11c-5 -9 -16 -17 -30 -22c-20 -9 -46 -12 -73 -10c-8 0 -16 1 -25 1l3 7c34 127 81 245 149 358c2 5 5 9 5 11c0 6 -4 10 -10 10c-9 0 -38 -6 -52 -14c-2 -1 -5 -3 -7 -6c-64 -80 -168 -215 -273 -336c-62 12 -126 26 -185 32
c-101 12 -205 13 -215 -108c-2 -24 2 -48 10 -62c9 -13 25 -5 18 9c-6 10 -6 24 -1 38c28 77 113 86 183 82c55 -4 112 -10 168 -17c-79 -90 -156 -169 -215 -209c-51 -34 -110 -54 -163 -54c-25 0 -46 5 -61 15c-20 13 -30 29 -30 53c0 42 -20 21 -20 0
c0 -37 14 -63 41 -82c23 -16 53 -25 90 -25c57 0 112 20 164 59c70 51 151 140 231 238c40 -5 79 -9 119 -13c-9 -36 -15 -70 -17 -102c-7 -64 16 -112 58 -112c20 0 60 5 98 35c71 57 116 123 119 130c5 12 -8 13 -12 9c-26 -35 -65 -79 -111 -114
c-69 -52 -116 -66 -107 35c2 39 10 78 20 115c7 0 16 -1 25 -1c28 -1 57 1 78 10c18 6 32 16 39 29zM752 478c-31 -79 -67 -176 -91 -270l-105 17c73 90 143 185 201 264c-2 -4 -3 -7 -5 -11zM929 658c5 -3 8 -11 -4 -11c-14 0 -91 36 -134 60c-14 7 -57 37 -21 50
c17 6 36 -8 57 -23c34 -26 68 -51 102 -76z" />
    <glyph glyph-name="Aring" unicode="&#xc5;" horiz-adv-x="470"
d="M846 223c6 10 -5 21 -11 11c-5 -9 -16 -17 -30 -22c-20 -9 -46 -12 -73 -10c-8 0 -16 1 -25 1l3 7c34 127 81 245 149 358c2 5 5 9 5 11c0 6 -4 10 -10 10c-9 0 -38 -6 -52 -14l-5 -3h-1c0 -2 -1 -2 -1 -3c-64 -80 -168 -215 -273 -336c-62 12 -126 26 -185 32
c-101 12 -205 13 -215 -108c-2 -24 2 -48 10 -62c9 -13 25 -5 18 9c-6 10 -6 24 -1 38c28 77 113 86 183 82c55 -4 112 -10 168 -17c-79 -90 -156 -169 -215 -209c-51 -34 -110 -54 -163 -54c-25 0 -46 5 -61 15c-20 13 -30 29 -30 53c0 42 -20 21 -20 0
c0 -37 14 -63 41 -82c23 -16 53 -25 90 -25c57 0 112 20 164 59c70 51 151 140 231 238c40 -5 79 -9 119 -13c-9 -36 -15 -70 -17 -102c-7 -64 16 -112 58 -112c20 0 60 5 98 35c71 57 116 123 119 130c5 12 -8 13 -12 9c-26 -35 -65 -79 -111 -114
c-69 -52 -116 -66 -107 35c2 39 10 78 20 115c7 0 16 -1 25 -1c28 -1 57 1 78 10c18 6 32 16 39 29zM950 673c0 -26 -19 -51 -44 -69c-24 -15 -56 -16 -79 -7c-21 8 -35 26 -31 52c3 14 15 36 39 51c11 9 36 15 59 15c27 0 56 -11 56 -42zM752 478
c-31 -79 -67 -176 -91 -270l-105 17c73 90 143 185 201 264c-2 -4 -3 -7 -5 -11zM922 652c7 15 10 51 -30 51c-37 0 -72 -46 -70 -73c2 -13 13 -26 37 -26c33 0 57 30 63 48z" />
    <glyph glyph-name="Atilde" unicode="&#xc3;" horiz-adv-x="470"
d="M846 223c6 10 -5 21 -11 11c-5 -9 -16 -17 -30 -22c-20 -9 -46 -12 -73 -10c-8 0 -16 1 -25 1l3 7c34 127 81 245 149 358c2 5 5 9 5 11c0 6 -4 10 -10 10c-9 0 -38 -6 -52 -14l-5 -3h-1c0 -2 -1 -2 -1 -3c-64 -80 -168 -215 -273 -336c-62 12 -126 26 -185 32
c-101 12 -205 13 -215 -108c-2 -24 2 -48 10 -62c9 -13 25 -5 18 9c-6 10 -6 24 -1 38c28 77 113 86 183 82c55 -4 112 -10 168 -17c-79 -90 -156 -169 -215 -209c-51 -34 -110 -54 -163 -54c-25 0 -46 5 -61 15c-20 13 -30 29 -30 53c0 42 -20 21 -20 0
c0 -37 14 -63 41 -82c23 -16 53 -25 90 -25c57 0 112 20 164 59c70 51 151 140 231 238c40 -5 79 -9 119 -13c-9 -36 -15 -70 -17 -102c-7 -64 16 -112 58 -112c20 0 60 5 98 35c71 57 116 123 119 130c5 12 -8 13 -12 9c-26 -35 -65 -79 -111 -114
c-69 -52 -116 -66 -107 35c2 39 10 78 20 115c7 0 16 -1 25 -1c28 -1 57 1 78 10c18 6 32 16 39 29zM752 478c-31 -79 -67 -176 -91 -270l-105 17c73 90 143 185 201 264c-2 -4 -3 -7 -5 -11zM997 709c-17 -40 -55 -72 -92 -60c-38 14 -74 36 -111 29
c-22 -5 -39 -18 -50 -35c-4 -5 -18 0 -15 4c30 42 63 88 110 72c20 -7 53 -29 81 -37c30 -9 49 -2 60 30c4 6 20 2 17 -3z" />
    <glyph glyph-name="Ccedilla" unicode="&#xc7;" horiz-adv-x="480"
d="M1 -273c-12 22 3 23 14 7c47 -72 212 -5 212 78c0 31 -25 53 -65 45c-36 -8 -61 -14 -42 11c10 14 34 54 45 77c-101 17 -169 89 -135 232c51 208 289 436 485 406c55 -8 81 -43 80 -83c-4 -116 -209 -233 -309 -242c-32 -3 -22 29 5 31c104 9 201 65 250 159
c24 46 28 102 -27 111c-105 16 -362 -171 -435 -400c-43 -131 22 -191 128 -192c119 -4 292 56 385 187c7 10 19 -1 14 -9c-104 -143 -270 -205 -399 -203h-13c-15 -22 -42 -55 -47 -64c82 16 127 -20 127 -66c0 -102 -219 -175 -273 -85z" />
    <glyph glyph-name="Eacute" unicode="&#xc9;" horiz-adv-x="525"
d="M452 589c-43 10 -127 -11 -152 -54c-44 -75 6 -195 61 -258c-109 -5 -337 -32 -337 -199c0 -121 116 -153 227 -153c93 0 256 33 339 80c62 35 172 125 119 202c-3 3 -13 3 -12 -2c15 -62 -106 -152 -160 -180c-65 -33 -213 -75 -321 -75c-112 0 -150 44 -149 98
c3 120 204 195 304 197c24 -5 70 -22 90 -11c19 11 19 36 -17 40c-12 1 -47 3 -53 10c-45 59 -89 235 15 278c36 13 70 -8 85 -22c26 -22 44 -52 60 -86c13 -26 15 -61 31 -81c30 -36 39 54 25 87c-6 15 -13 37 -25 47c-5 3 -13 2 -18 5c-12 3 -22 13 -29 21
c-23 21 -48 47 -83 56zM617 719l-1 -1c-21 -18 -142 -75 -160 -76c-12 0 -7 7 -4 11c2 2 44 30 55 39c27 22 57 38 75 63c12 5 24 -2 29 -3c14 -9 14 -27 6 -33z" />
    <glyph glyph-name="Ecircumflex" unicode="&#xca;" horiz-adv-x="525"
d="M452 589c-43 10 -127 -11 -152 -54c-44 -75 6 -195 61 -258c-109 -5 -337 -32 -337 -199c0 -121 116 -153 227 -153c93 0 256 33 339 80c62 35 172 125 119 202c-3 3 -13 3 -12 -2c15 -62 -106 -152 -160 -180c-65 -33 -213 -75 -321 -75c-112 0 -150 44 -149 98
c3 120 204 195 304 197c24 -5 70 -22 90 -11c19 11 19 36 -17 40c-12 1 -47 3 -53 10c-45 59 -89 235 15 278c36 13 70 -8 85 -22c26 -22 44 -52 60 -86c13 -26 15 -61 31 -81c30 -36 39 54 25 87c-6 15 -13 37 -25 47c-5 3 -13 2 -18 5c-12 3 -22 13 -29 21
c-23 21 -48 47 -83 56zM590 642c6 -9 6 -29 -10 -15c-11 12 -71 60 -83 72c-32 -20 -58 -46 -90 -67c-30 -19 -18 6 -8 15c17 13 91 86 111 87c19 -7 62 -65 80 -92z" />
    <glyph glyph-name="Edieresis" unicode="&#xcb;" horiz-adv-x="525"
d="M452 589c-43 10 -127 -11 -152 -54c-44 -75 6 -195 61 -258c-109 -5 -337 -32 -337 -199c0 -121 116 -153 227 -153c93 0 256 33 339 80c62 35 172 125 119 202c-3 3 -13 3 -12 -2c15 -62 -106 -152 -160 -180c-65 -33 -213 -75 -321 -75c-112 0 -150 44 -149 98
c3 120 204 195 304 197c24 -5 70 -22 90 -11c19 11 19 36 -17 40c-12 1 -47 3 -53 10c-45 59 -89 235 15 278c36 13 70 -8 85 -22c26 -22 44 -52 60 -86c13 -26 15 -61 31 -81c30 -36 39 54 25 87c-6 15 -13 37 -25 47c-5 3 -13 2 -18 5c-12 3 -22 13 -29 21
c-23 21 -48 47 -83 56zM454 674c0 -10 -18 -39 -27 -39c-13 0 -33 0 -33 17c0 5 42 36 47 40c33 26 13 -3 13 -18zM612 674c0 -10 -18 -39 -26 -39c-15 0 -34 0 -34 17c0 5 43 36 48 40c32 26 12 -3 12 -18z" />
    <glyph glyph-name="Egrave" unicode="&#xc8;" horiz-adv-x="525"
d="M452 589c-43 10 -127 -11 -152 -54c-44 -75 6 -195 61 -258c-109 -5 -337 -32 -337 -199c0 -121 116 -153 227 -153c93 0 256 33 339 80c62 35 172 125 119 202c-3 3 -13 3 -12 -2c15 -62 -106 -152 -160 -180c-65 -33 -213 -75 -321 -75c-112 0 -150 44 -149 98
c3 120 204 195 304 197c24 -5 70 -22 90 -11c19 11 19 36 -17 40c-12 1 -47 3 -53 10c-45 59 -89 235 15 278c36 13 70 -8 85 -22c26 -22 44 -52 60 -86c13 -26 15 -61 31 -81c30 -36 39 54 25 87c-6 15 -13 37 -25 47c-5 3 -13 2 -18 5c-12 3 -22 13 -29 21
c-23 21 -48 47 -83 56zM561 639c5 -2 9 -11 -4 -11s-91 36 -133 60c-14 7 -58 37 -22 50c18 6 37 -8 58 -23c34 -26 67 -51 101 -76z" />
    <glyph glyph-name="Iacute" unicode="&#xcd;" horiz-adv-x="312"
d="M575 510c60 -20 21 22 6 29c-26 13 -64 23 -107 26c1 5 3 9 5 13c2 17 -52 14 -55 0c-2 -4 -3 -8 -3 -10c-122 0 -255 -38 -249 -139c0 -4 3 -11 3 -12c1 -47 55 -79 79 -84c10 -3 13 2 2 10c-16 10 -57 22 -60 60c-4 75 106 111 214 120c-31 -121 -91 -350 -170 -455
c-59 -78 -130 -59 -170 -29c-11 9 -46 6 -56 -17c-14 -34 -3 -42 23 -43c47 -1 345 5 363 14c6 4 32 26 -1 24c-42 -3 -105 -5 -178 -4c13 10 25 24 38 39c88 112 161 350 201 472c46 0 89 -5 115 -14zM602 714l-1 -1c-21 -18 -142 -75 -160 -76c-12 0 -7 7 -4 11
c2 2 44 30 55 39c27 22 57 38 75 63c12 5 24 -2 29 -3c14 -9 14 -27 6 -33z" />
    <glyph glyph-name="Icircumflex" unicode="&#xce;" horiz-adv-x="312"
d="M575 510c60 -20 21 22 6 29c-26 13 -64 23 -107 26c1 5 3 9 5 13c2 17 -52 14 -55 0c-2 -4 -3 -8 -3 -10c-122 0 -255 -38 -249 -139c0 -4 3 -11 3 -12c1 -47 55 -79 79 -84c10 -3 13 2 2 10c-16 10 -57 22 -60 60c-4 75 106 111 214 120c-31 -121 -91 -350 -170 -455
c-59 -78 -130 -59 -170 -29c-11 9 -46 6 -56 -17c-14 -34 -3 -42 23 -43c47 -1 345 5 363 14c6 4 32 26 -1 24c-42 -3 -105 -5 -178 -4c13 10 25 24 38 39c88 112 161 350 201 472c46 0 89 -5 115 -14zM556 645c6 -8 6 -28 -10 -15c-11 13 -71 60 -82 73
c-33 -20 -59 -46 -90 -68c-30 -18 -19 7 -9 15c17 14 91 87 111 88c19 -8 63 -65 80 -93z" />
    <glyph glyph-name="Idieresis" unicode="&#xcf;" horiz-adv-x="312"
d="M575 510c60 -20 21 22 6 29c-26 13 -64 23 -107 26c1 5 3 9 5 13c2 17 -52 14 -55 0c-2 -4 -3 -8 -3 -10c-122 0 -255 -38 -249 -139c0 -4 3 -11 3 -12c1 -47 55 -79 79 -84c10 -3 13 2 2 10c-16 10 -57 22 -60 60c-4 75 106 111 214 120c-31 -121 -91 -350 -170 -455
c-59 -78 -130 -59 -170 -29c-11 9 -46 6 -56 -17c-14 -34 -3 -42 23 -43c47 -1 345 5 363 14c6 4 32 26 -1 24c-42 -3 -105 -5 -178 -4c13 10 25 24 38 39c88 112 161 350 201 472c46 0 89 -5 115 -14zM421 683c0 -10 -17 -39 -26 -39c-14 0 -34 0 -34 16c0 5 43 37 48 40
c32 27 12 -2 12 -17zM580 683c0 -10 -19 -39 -26 -39c-15 0 -34 0 -34 16c0 5 42 37 47 40c33 27 13 -2 13 -17z" />
    <glyph glyph-name="Igrave" unicode="&#xcc;" horiz-adv-x="312"
d="M575 510c60 -20 21 22 6 29c-26 13 -64 23 -107 26c1 5 3 9 5 13c2 17 -52 14 -55 0c-2 -4 -3 -8 -3 -10c-122 0 -255 -38 -249 -139c0 -4 3 -11 3 -12c1 -47 55 -79 79 -84c10 -3 13 2 2 10c-16 10 -57 22 -60 60c-4 75 106 111 214 120c-31 -121 -91 -350 -170 -455
c-59 -78 -130 -59 -170 -29c-11 9 -46 6 -56 -17c-14 -34 -3 -42 23 -43c47 -1 345 5 363 14c6 4 32 26 -1 24c-42 -3 -105 -5 -178 -4c13 10 25 24 38 39c88 112 161 350 201 472c46 0 89 -5 115 -14zM540 648c5 -3 9 -11 -4 -11c-14 0 -91 36 -134 60c-13 7 -57 37 -21 50
c18 6 36 -8 58 -23c33 -26 67 -51 101 -76z" />
    <glyph glyph-name="Ntilde" unicode="&#xd1;" horiz-adv-x="520"
d="M266 442c-37 -125 -74 -240 -132 -352c-53 -97 -115 -178 -190 -201c-20 -7 -48 -5 -64 0c-19 5 -30 16 -35 34c-10 36 -21 12 -16 -4c7 -30 25 -47 51 -56c22 -6 49 -6 80 4c75 23 144 112 204 218c53 98 91 190 132 298c0 -178 38 -450 196 -450c142 0 272 357 259 535
c13 -11 26 -21 43 -29c6 -4 13 -6 21 -6c10 1 22 9 22 20c-1 6 -3 10 -11 10c-5 0 -9 -3 -12 -3c-8 0 -14 2 -25 12c-34 31 -55 121 -98 121c-5 -1 -21 -14 -19 -19c10 -29 20 -51 27 -87c21 -123 -70 -520 -199 -520c-131 0 -165 411 -151 505c2 18 5 56 11 71
c4 19 -60 15 -65 0c-30 -71 -100 -133 -158 -139c-15 -2 -16 -19 -1 -17c41 3 91 20 130 55zM696 713c-17 -40 -55 -73 -92 -60c-38 14 -74 36 -112 29c-21 -5 -38 -18 -50 -35c-3 -5 -17 0 -15 3c30 43 64 89 110 73c20 -8 54 -29 82 -38c30 -8 48 -1 60 30c3 7 20 3 17 -2
z" />
    <glyph glyph-name="Oacute" unicode="&#xd3;" horiz-adv-x="614"
d="M717 337c0 162 -117 253 -277 253c-78 -1 -171 -32 -238 -80c-92 -66 -157 -165 -156 -265c0 -18 16 -38 18 -15c7 95 78 197 168 260c53 38 129 70 205 75c137 10 227 -55 230 -192c4 -174 -157 -395 -293 -426c-344 -80 -270 422 22 491c18 4 43 2 63 -5
c6 -3 12 -8 16 -8s6 4 -8 19c-32 33 -87 31 -126 23c-352 -83 -304 -624 44 -543c156 36 332 203 332 413zM590 697l-1 -2c-22 -17 -143 -75 -160 -76c-13 0 -8 8 -4 11c1 3 44 30 55 39c26 23 56 39 75 64c11 5 24 -3 29 -4c13 -9 13 -26 6 -32z" />
    <glyph glyph-name="Ocircumflex" unicode="&#xd4;" horiz-adv-x="614"
d="M717 337c0 162 -117 253 -277 253c-78 -1 -171 -32 -238 -80c-92 -66 -157 -165 -156 -265c0 -18 16 -38 18 -15c7 95 78 197 168 260c53 38 129 70 205 75c137 10 227 -55 230 -192c4 -174 -157 -395 -293 -426c-344 -80 -270 422 22 491c18 4 43 2 63 -5
c6 -3 12 -8 16 -8s6 4 -8 19c-32 33 -87 31 -126 23c-352 -83 -304 -624 44 -543c156 36 332 203 332 413zM611 639c6 -9 6 -29 -10 -15c-11 13 -71 60 -82 73c-33 -20 -59 -47 -90 -68c-30 -19 -19 6 -9 15c17 14 91 86 111 88c19 -8 63 -65 80 -93z" />
    <glyph glyph-name="Odieresis" unicode="&#xd6;" horiz-adv-x="614"
d="M717 337c0 162 -117 253 -277 253c-78 -1 -171 -32 -238 -80c-92 -66 -157 -165 -156 -265c0 -18 16 -38 18 -15c7 95 78 197 168 260c53 38 129 70 205 75c137 10 227 -55 230 -192c4 -174 -157 -395 -293 -426c-344 -80 -270 422 22 491c18 4 43 2 63 -5
c6 -3 12 -8 16 -8s6 4 -8 19c-32 33 -87 31 -126 23c-352 -83 -304 -624 44 -543c156 36 332 203 332 413zM466 685c0 -10 -17 -38 -26 -38c-14 0 -34 0 -34 16c0 5 43 36 48 40c32 26 12 -3 12 -18zM625 685c0 -10 -19 -38 -26 -38c-15 0 -34 0 -34 16c0 5 42 36 47 40
c33 26 13 -3 13 -18z" />
    <glyph glyph-name="Ograve" unicode="&#xd2;" horiz-adv-x="614"
d="M717 337c0 162 -117 253 -277 253c-78 -1 -171 -32 -238 -80c-92 -66 -157 -165 -156 -265c0 -18 16 -38 18 -15c7 95 78 197 168 260c53 38 129 70 205 75c137 10 227 -55 230 -192c4 -174 -157 -395 -293 -426c-344 -80 -270 422 22 491c18 4 43 2 63 -5
c6 -3 12 -8 16 -8s6 4 -8 19c-32 33 -87 31 -126 23c-352 -83 -304 -624 44 -543c156 36 332 203 332 413zM575 643c5 -3 9 -11 -4 -11c-14 0 -91 36 -134 60c-13 7 -57 37 -21 50c18 6 36 -8 58 -23c33 -26 67 -51 101 -76z" />
    <glyph glyph-name="Otilde" unicode="&#xd5;" horiz-adv-x="614"
d="M717 337c0 162 -117 253 -277 253c-78 -1 -171 -32 -238 -80c-92 -66 -157 -165 -156 -265c0 -18 16 -38 18 -15c7 95 78 197 168 260c53 38 129 70 205 75c137 10 227 -55 230 -192c4 -174 -157 -395 -293 -426c-344 -80 -270 422 22 491c18 4 43 2 63 -5
c6 -3 12 -8 16 -8s6 4 -8 19c-32 33 -87 31 -126 23c-352 -83 -304 -624 44 -543c156 36 332 203 332 413zM674 713c-18 -40 -55 -73 -93 -60c-37 14 -74 36 -111 29c-21 -5 -39 -18 -50 -35c-4 -5 -18 0 -15 3c30 43 64 89 110 73c20 -8 54 -29 81 -38c30 -8 49 -1 60 30
c4 7 20 3 18 -2z" />
    <glyph glyph-name="Uacute" unicode="&#xda;" horiz-adv-x="474"
d="M451 223c25 129 60 240 134 322c44 48 65 19 51 -35c-26 -96 -115 -221 -185 -287zM476 484c-32 -66 -67 -197 -87 -326c-68 -66 -172 -155 -242 -155c-36 0 -60 32 -45 120c25 137 173 377 195 414c7 18 -58 15 -63 0c-18 -33 -153 -153 -210 -159
c-15 -1 -18 -18 -3 -16c41 3 91 32 136 70c23 18 32 17 24 0c-47 -117 -152 -280 -136 -399c7 -48 35 -65 69 -65c95 0 193 80 270 154c-13 -87 -17 -168 -9 -225c9 -54 29 -97 74 -98c20 -1 52 6 63 20c7 6 10 14 13 19c4 14 -4 17 -14 7c-5 -5 -9 -10 -12 -15
c-15 -17 -35 -11 -49 4c-23 28 -34 78 -33 146c2 49 8 127 18 179c72 94 197 218 232 335c14 46 8 96 -55 100c-60 5 -103 -41 -136 -110zM535 672l-1 -2c-22 -17 -143 -75 -160 -76c-13 0 -8 8 -4 11c1 3 44 30 55 39c26 23 56 39 75 64c11 5 24 -3 29 -4
c13 -9 13 -26 6 -32z" />
    <glyph glyph-name="Ucircumflex" unicode="&#xdb;" horiz-adv-x="474"
d="M451 223c25 129 60 240 134 322c44 48 65 19 51 -35c-26 -96 -115 -221 -185 -287zM476 484c-32 -66 -67 -197 -87 -326c-68 -66 -172 -155 -242 -155c-36 0 -60 32 -45 120c25 137 173 377 195 414c7 18 -58 15 -63 0c-18 -33 -153 -153 -210 -159
c-15 -1 -18 -18 -3 -16c41 3 91 32 136 70c23 18 32 17 24 0c-47 -117 -152 -280 -136 -399c7 -48 35 -65 69 -65c95 0 193 80 270 154c-13 -87 -17 -168 -9 -225c9 -54 29 -97 74 -98c20 -1 52 6 63 20c7 6 10 14 13 19c4 14 -4 17 -14 7c-5 -5 -9 -10 -12 -15
c-15 -17 -35 -11 -49 4c-23 28 -34 78 -33 146c2 49 8 127 18 179c72 94 197 218 232 335c14 46 8 96 -55 100c-60 5 -103 -41 -136 -110zM521 623c6 -9 6 -29 -10 -15c-11 12 -71 60 -82 72c-33 -20 -59 -46 -90 -67c-30 -19 -19 6 -9 15c17 14 91 86 111 87
c19 -7 63 -65 80 -92z" />
    <glyph glyph-name="Udieresis" unicode="&#xdc;" horiz-adv-x="474"
d="M451 223c25 129 60 240 134 322c44 48 65 19 51 -35c-26 -96 -115 -221 -185 -287zM476 484c-32 -66 -67 -197 -87 -326c-68 -66 -172 -155 -242 -155c-36 0 -60 32 -45 120c25 137 173 377 195 414c7 18 -58 15 -63 0c-18 -33 -153 -153 -210 -159
c-15 -1 -18 -18 -3 -16c41 3 91 32 136 70c23 18 32 17 24 0c-47 -117 -152 -280 -136 -399c7 -48 35 -65 69 -65c95 0 193 80 270 154c-13 -87 -17 -168 -9 -225c9 -54 29 -97 74 -98c20 -1 52 6 63 20c7 6 10 14 13 19c4 14 -4 17 -14 7c-5 -5 -9 -10 -12 -15
c-15 -17 -35 -11 -49 4c-23 28 -34 78 -33 146c2 49 8 127 18 179c72 94 197 218 232 335c14 46 8 96 -55 100c-60 5 -103 -41 -136 -110zM475 684c0 -10 -18 -39 -26 -39c-14 0 -34 0 -34 17c0 5 42 36 47 40c33 26 13 -3 13 -18zM634 684c0 -10 -19 -39 -27 -39
c-15 0 -33 0 -33 17c0 5 42 36 47 40c33 26 13 -3 13 -18z" />
    <glyph glyph-name="Ugrave" unicode="&#xd9;" horiz-adv-x="474"
d="M451 223c25 129 60 240 134 322c44 48 65 19 51 -35c-26 -96 -115 -221 -185 -287zM476 484c-32 -66 -67 -197 -87 -326c-68 -66 -172 -155 -242 -155c-36 0 -60 32 -45 120c25 137 173 377 195 414c7 18 -58 15 -63 0c-18 -33 -153 -153 -210 -159
c-15 -1 -18 -18 -3 -16c41 3 91 32 136 70c23 18 32 17 24 0c-47 -117 -152 -280 -136 -399c7 -48 35 -65 69 -65c95 0 193 80 270 154c-13 -87 -17 -168 -9 -225c9 -54 29 -97 74 -98c20 -1 52 6 63 20c7 6 10 14 13 19c4 14 -4 17 -14 7c-5 -5 -9 -10 -12 -15
c-15 -17 -35 -11 -49 4c-23 28 -34 78 -33 146c2 49 8 127 18 179c72 94 197 218 232 335c14 46 8 96 -55 100c-60 5 -103 -41 -136 -110zM481 607c5 -3 9 -12 -4 -12s-91 37 -133 60c-14 8 -58 38 -22 50c18 7 37 -7 58 -22c34 -26 67 -51 101 -76z" />
    <glyph glyph-name="aacute" unicode="&#xe1;" horiz-adv-x="457"
d="M90 -11c-21 0 -49 14 -64 34c-74 94 154 244 229 262c30 8 74 10 100 -8c10 -7 17 -17 17 -27c0 -7 -1 -7 -6 -5c-11 17 -31 19 -50 19c-52 0 -122 -40 -174 -86c-28 -26 -111 -121 -80 -165c14 -20 63 16 77 27c26 22 71 60 97 88c14 15 90 99 99 99c10 0 49 -8 40 -24
c-36 -51 -56 -113 -60 -145c-6 -43 14 -66 46 -49c33 18 108 81 149 139c5 7 17 1 12 -8c-18 -35 -80 -101 -130 -137c-32 -24 -106 -48 -126 12c-9 27 3 87 16 122c-17 -8 -112 -148 -192 -148zM460 442l-1 -2c-22 -17 -143 -75 -160 -76c-13 0 -8 8 -4 11c1 3 44 30 55 39
c26 23 56 39 75 64c11 5 24 -3 29 -4c13 -9 13 -26 6 -32z" />
    <glyph glyph-name="agrave" unicode="&#xe0;" horiz-adv-x="457"
d="M90 -11c80 0 175 140 192 148c-13 -35 -25 -95 -16 -122c20 -60 94 -36 126 -12c50 36 112 102 130 137c5 9 -7 15 -12 8c-41 -58 -116 -121 -149 -139c-32 -17 -52 6 -46 49c4 32 24 94 60 145c9 16 -30 24 -40 24c-9 0 -85 -84 -99 -99c-26 -28 -71 -66 -97 -88
c-14 -11 -63 -47 -77 -27c-31 44 52 139 80 165c52 46 122 86 174 86c19 0 39 -2 50 -19c5 -2 6 -2 6 5c0 10 -7 20 -17 27c-26 18 -70 16 -100 8c-75 -18 -303 -168 -229 -262c15 -20 43 -34 64 -34zM360 374c5 -2 9 -11 -4 -11c-14 0 -91 36 -134 60c-13 7 -57 37 -21 50
c18 6 36 -8 58 -23c33 -26 67 -51 101 -76z" />
    <glyph glyph-name="acircumflex" unicode="&#xe2;" horiz-adv-x="457"
d="M90 -11c-21 0 -49 14 -64 34c-74 94 154 244 229 262c30 8 74 10 100 -8c10 -7 17 -17 17 -27c0 -7 -1 -7 -6 -5c-11 17 -31 19 -50 19c-52 0 -122 -40 -174 -86c-28 -26 -111 -121 -80 -165c14 -20 63 16 77 27c26 22 71 60 97 88c14 15 90 99 99 99c10 0 49 -8 40 -24
c-36 -51 -56 -113 -60 -145c-6 -43 14 -66 46 -49c33 18 108 81 149 139c5 7 17 1 12 -8c-18 -35 -80 -101 -130 -137c-32 -24 -106 -48 -126 12c-9 27 3 87 16 122c-17 -8 -112 -148 -192 -148zM416 372c6 -9 6 -29 -10 -15c-11 12 -71 60 -82 72c-33 -20 -59 -46 -90 -67
c-30 -19 -19 6 -9 15c17 13 91 86 111 87c19 -7 63 -65 80 -92z" />
    <glyph glyph-name="adieresis" unicode="&#xe4;" horiz-adv-x="457"
d="M90 -11c80 0 175 140 192 148c-13 -35 -25 -95 -16 -122c20 -60 94 -36 126 -12c50 36 112 102 130 137c5 9 -7 15 -12 8c-41 -58 -116 -121 -149 -139c-32 -17 -52 6 -46 49c4 32 24 94 60 145c9 16 -30 24 -40 24c-9 0 -85 -84 -99 -99c-26 -28 -71 -66 -97 -88
c-14 -11 -63 -47 -77 -27c-31 44 52 139 80 165c52 46 122 86 174 86c19 0 39 -2 50 -19c5 -2 6 -2 6 5c0 10 -7 20 -17 27c-26 18 -70 16 -100 8c-75 -18 -303 -168 -229 -262c15 -20 43 -34 64 -34zM265 403c0 -10 -18 -39 -26 -39c-14 0 -34 0 -34 16c0 5 42 37 47 40
c33 27 13 -2 13 -17zM424 403c0 -10 -19 -39 -27 -39c-15 0 -33 0 -33 16c0 5 42 37 47 40c33 27 13 -2 13 -17z" />
    <glyph glyph-name="atilde" unicode="&#xe3;" horiz-adv-x="457"
d="M90 -11c-21 0 -49 14 -64 34c-74 94 154 244 229 262c30 8 74 10 100 -8c10 -7 17 -17 17 -27c0 -7 -1 -7 -6 -5c-11 17 -31 19 -50 19c-52 0 -122 -40 -174 -86c-28 -26 -111 -121 -80 -165c14 -20 63 16 77 27c26 22 71 60 97 88c14 15 90 99 99 99c10 0 49 -8 40 -24
c-36 -51 -56 -113 -60 -145c-6 -43 14 -66 46 -49c33 18 108 81 149 139c5 7 17 1 12 -8c-18 -35 -80 -101 -130 -137c-32 -24 -106 -48 -126 12c-9 27 3 87 16 122c-17 -8 -112 -148 -192 -148zM454 430c-18 -40 -55 -72 -93 -60c-37 14 -74 37 -111 29
c-21 -5 -39 -17 -50 -35c-4 -5 -18 0 -15 4c30 42 64 89 110 72c20 -7 54 -28 81 -37c30 -9 49 -1 60 30c4 6 20 2 18 -3z" />
    <glyph glyph-name="aring" unicode="&#xe5;" horiz-adv-x="457"
d="M90 -11c80 0 175 140 192 148c-13 -35 -25 -95 -16 -122c20 -60 94 -36 126 -12c50 36 112 102 130 137c5 9 -7 15 -12 8c-41 -58 -116 -121 -149 -139c-32 -17 -52 6 -46 49c4 32 24 94 60 145c9 16 -30 24 -40 24c-9 0 -85 -84 -99 -99c-26 -28 -71 -66 -97 -88
c-14 -11 -63 -47 -77 -27c-31 44 52 139 80 165c52 46 122 86 174 86c19 0 39 -2 50 -19c5 -2 6 -2 6 5c0 10 -7 20 -17 27c-26 18 -70 16 -100 8c-75 -18 -303 -168 -229 -262c15 -20 43 -34 64 -34zM421 427c6 15 10 51 -30 51c-37 0 -72 -46 -70 -73c1 -13 13 -26 36 -26
c34 0 58 30 64 48zM449 448c0 -26 -19 -51 -44 -69c-24 -15 -56 -16 -79 -7c-21 8 -35 26 -31 52c2 14 15 36 39 51c11 9 36 15 58 15c28 0 57 -11 57 -42z" />
    <glyph glyph-name="ccedilla" unicode="&#xe7;" horiz-adv-x="315"
d="M-24 -260c-12 23 3 24 14 8c47 -73 212 -5 212 77c0 32 -25 54 -65 45c-36 -7 -61 -13 -42 12c12 16 42 70 50 88c0 3 1 4 4 5c-92 -11 -159 38 -115 139c30 68 185 199 260 174c18 -6 33 -19 26 -45c-1 -6 -18 -43 -25 -34c-4 3 -5 8 -4 11c1 7 5 14 5 20
c0 9 -5 20 -15 20c-51 0 -175 -102 -202 -193c-23 -74 35 -80 92 -64c90 26 139 72 196 145c5 6 10 2 12 2c5 -2 2 -11 0 -15c-54 -75 -118 -136 -209 -156c6 0 11 -4 9 -9c-5 -11 -49 -67 -57 -78c82 16 127 -20 127 -67c0 -101 -219 -175 -273 -85z" />
    <glyph glyph-name="eacute" unicode="&#xe9;" horiz-adv-x="319"
d="M310 195c-36 -53 -131 -91 -176 -95c-15 -1 -22 13 -7 14c32 3 88 35 125 65c17 13 47 43 45 65c-1 28 -37 13 -51 6c-59 -27 -145 -110 -167 -183c-25 -84 52 -85 117 -59c74 30 138 84 174 139c4 5 9 5 11 3c5 -2 5 -7 1 -12c-40 -66 -103 -121 -173 -150
c-102 -41 -230 0 -175 126c30 68 185 199 260 174c41 -14 35 -65 16 -93zM392 440l-1 -1c-21 -17 -142 -75 -160 -76c-12 0 -7 7 -4 11c2 3 44 30 55 39c27 22 57 39 75 64c12 5 24 -3 29 -4c14 -9 14 -26 6 -33z" />
    <glyph glyph-name="ecircumflex" unicode="&#xea;" horiz-adv-x="319"
d="M310 195c-36 -53 -131 -91 -176 -95c-15 -1 -22 13 -7 14c32 3 88 35 125 65c17 13 47 43 45 65c-1 28 -37 13 -51 6c-59 -27 -145 -110 -167 -183c-25 -84 52 -85 117 -59c74 30 138 84 174 139c4 5 9 5 11 3c5 -2 5 -7 1 -12c-40 -66 -103 -121 -173 -150
c-102 -41 -230 0 -175 126c30 68 185 199 260 174c41 -14 35 -65 16 -93zM390 392c6 -9 6 -29 -10 -15c-11 12 -71 60 -83 72c-32 -20 -58 -46 -90 -67c-30 -19 -18 6 -8 15c17 13 91 86 111 87c19 -7 62 -65 80 -92z" />
    <glyph glyph-name="edieresis" unicode="&#xeb;" horiz-adv-x="319"
d="M310 195c19 28 25 79 -16 93c-75 25 -230 -106 -260 -174c-55 -126 73 -167 175 -126c70 29 133 84 173 150c4 5 4 10 -1 12c-2 2 -7 2 -11 -3c-36 -55 -100 -109 -174 -139c-65 -26 -142 -25 -117 59c22 73 108 156 167 183c14 7 50 22 51 -6c2 -22 -28 -52 -45 -65
c-37 -30 -93 -62 -125 -65c-15 -1 -8 -15 7 -14c45 4 140 42 176 95zM247 402c0 -10 -17 -39 -26 -39c-14 0 -34 0 -34 16c0 5 43 36 48 40c32 26 12 -2 12 -17zM406 402c0 -10 -19 -39 -26 -39c-15 0 -34 0 -34 16c0 5 43 36 48 40c32 26 12 -2 12 -17z" />
    <glyph glyph-name="egrave" unicode="&#xe8;" horiz-adv-x="319"
d="M310 195c19 28 25 79 -16 93c-75 25 -230 -106 -260 -174c-55 -126 73 -167 175 -126c70 29 133 84 173 150c4 5 4 10 -1 12c-2 2 -7 2 -11 -3c-36 -55 -100 -109 -174 -139c-65 -26 -142 -25 -117 59c22 73 108 156 167 183c14 7 50 22 51 -6c2 -22 -28 -52 -45 -65
c-37 -30 -93 -62 -125 -65c-15 -1 -8 -15 7 -14c45 4 140 42 176 95zM342 375c5 -2 9 -11 -3 -11c-14 0 -92 36 -134 60c-14 8 -58 38 -21 50c17 6 36 -7 57 -22c34 -27 68 -52 101 -77z" />
    <glyph glyph-name="iacute" unicode="&#xed;"
d="M291 140c-19 -35 -80 -101 -130 -137c-32 -24 -106 -48 -126 12c-8 23 9 77 30 123c-9 -11 -18 -26 -39 -50c-10 -11 -20 2 -11 14c35 43 62 80 77 103c-1 3 -1 7 2 13c11 31 21 56 35 59c13 1 30 -2 35 -12c6 -12 -5 -31 -20 -62c-30 -60 -57 -113 -60 -145
c-7 -43 13 -66 46 -49c32 18 107 81 149 139c5 7 17 1 12 -8zM300 440l-1 -1c-22 -17 -143 -75 -160 -76c-13 0 -8 7 -4 11c1 3 44 30 55 39c26 22 56 39 75 64c11 5 24 -3 29 -4c13 -9 13 -26 6 -33z" />
    <glyph glyph-name="igrave" unicode="&#xec;"
d="M291 140c-19 -35 -80 -101 -130 -137c-32 -24 -106 -48 -126 12c-8 23 9 77 30 123c-9 -11 -18 -26 -39 -50c-10 -11 -20 2 -11 14c35 43 62 80 77 103c-1 3 -1 7 2 13c11 31 21 56 35 59c13 1 30 -2 35 -12c6 -12 -5 -31 -20 -62c-30 -60 -57 -113 -60 -145
c-7 -43 13 -66 46 -49c32 18 107 81 149 139c5 7 17 1 12 -8zM242 375c5 -2 9 -11 -3 -11c-14 0 -92 36 -134 60c-14 8 -58 38 -21 50c17 6 36 -7 57 -22c34 -27 68 -52 101 -77z" />
    <glyph glyph-name="icircumflex" unicode="&#xee;"
d="M291 140c-19 -35 -80 -101 -130 -137c-32 -24 -106 -48 -126 12c-8 23 9 77 30 123c-9 -11 -18 -26 -39 -50c-10 -11 -20 2 -11 14c35 43 62 80 77 103c-1 3 -1 7 2 13c11 31 21 56 35 59c13 1 30 -2 35 -12c6 -12 -5 -31 -20 -62c-30 -60 -57 -113 -60 -145
c-7 -43 13 -66 46 -49c32 18 107 81 149 139c5 7 17 1 12 -8zM277 393c7 -9 7 -29 -10 -15c-11 12 -71 60 -82 72c-33 -20 -59 -46 -90 -67c-30 -19 -19 6 -9 15c18 14 91 86 111 87c19 -7 63 -65 80 -92z" />
    <glyph glyph-name="idieresis" unicode="&#xef;"
d="M291 140c-19 -35 -80 -101 -130 -137c-32 -24 -106 -48 -126 12c-8 23 9 77 30 123c-9 -11 -18 -26 -39 -50c-10 -11 -20 2 -11 14c35 43 62 80 77 103c-1 3 -1 7 2 13c11 31 21 56 35 59c13 1 30 -2 35 -12c6 -12 -5 -31 -20 -62c-30 -60 -57 -113 -60 -145
c-7 -43 13 -66 46 -49c32 18 107 81 149 139c5 7 17 1 12 -8zM135 402c0 -10 -18 -39 -26 -39c-14 0 -34 0 -34 16c0 5 42 36 47 40c33 26 13 -2 13 -17zM294 402c0 -10 -19 -39 -27 -39c-15 0 -33 0 -33 16c0 5 42 36 47 40c33 26 13 -2 13 -17z" />
    <glyph glyph-name="ntilde" unicode="&#xf1;" horiz-adv-x="409"
d="M266 193c18 32 14 57 -59 -6c-57 -52 -141 -184 -160 -195c-10 -5 -63 -29 -53 -10c8 20 67 191 87 246c5 12 1 59 53 45c16 -4 15 -13 7 -29c-25 -55 -57 -144 -69 -176c42 52 129 146 184 189c58 43 100 36 80 -24c-11 -34 -34 -65 -47 -99c-13 -30 -20 -57 -23 -76
c-6 -43 14 -66 46 -49c32 18 108 81 149 139c5 7 18 1 13 -8c-19 -35 -80 -101 -130 -137c-19 -14 -52 -28 -80 -25c-105 10 -23 169 2 215zM415 428c-18 -40 -55 -73 -93 -60c-37 14 -73 36 -111 29c-21 -5 -39 -18 -50 -35c-4 -5 -17 0 -15 3c30 43 64 89 110 73
c20 -8 54 -29 81 -38c30 -8 49 -1 60 30c4 7 20 3 18 -2z" />
    <glyph glyph-name="oacute" unicode="&#xf3;" horiz-adv-x="351"
d="M225 72c-1 2 -3 3 -3 6c-6 21 8 37 25 32c27 54 19 75 14 87c-11 28 33 38 41 11c14 -41 -21 -103 -43 -134c1 -19 12 -27 25 -27c32 0 65 37 85 58c12 14 25 29 35 43c5 7 17 1 12 -8c-6 -12 -19 -28 -34 -46c-22 -27 -62 -70 -101 -70c-17 0 -34 10 -41 25
c-13 -14 -26 -27 -39 -39c-45 -38 -99 -41 -132 -20c-33 20 -45 67 -27 129c10 38 43 91 88 131c37 33 82 49 112 38c18 -6 33 -23 29 -48c-2 -16 -17 -15 -17 -7c2 11 0 27 -19 27c-44 0 -140 -102 -156 -193c-7 -39 5 -73 42 -73c31 0 74 33 104 78zM404 442l-2 -2
c-21 -17 -142 -75 -160 -76c-12 0 -7 8 -3 11c1 3 43 30 55 39c26 23 56 39 75 64c11 5 23 -3 28 -4c14 -9 14 -26 7 -32z" />
    <glyph glyph-name="ocircumflex" unicode="&#xf4;" horiz-adv-x="351"
d="M225 72c-1 2 -3 3 -3 6c-6 21 8 37 25 32c27 54 19 75 14 87c-11 28 33 38 41 11c14 -41 -21 -103 -43 -134c1 -19 12 -27 25 -27c32 0 65 37 85 58c12 14 25 29 35 43c5 7 17 1 12 -8c-6 -12 -19 -28 -34 -46c-22 -27 -62 -70 -101 -70c-17 0 -34 10 -41 25
c-13 -14 -26 -27 -39 -39c-45 -38 -99 -41 -132 -20c-33 20 -45 67 -27 129c10 38 43 91 88 131c37 33 82 49 112 38c18 -6 33 -23 29 -48c-2 -16 -17 -15 -17 -7c2 11 0 27 -19 27c-44 0 -140 -102 -156 -193c-7 -39 5 -73 42 -73c31 0 74 33 104 78zM352 393
c7 -9 7 -29 -10 -15c-11 12 -71 60 -82 72c-33 -20 -59 -46 -90 -67c-30 -19 -19 6 -9 15c18 14 91 86 111 87c19 -7 63 -65 80 -92z" />
    <glyph glyph-name="odieresis" unicode="&#xf6;" horiz-adv-x="351"
d="M225 72c-30 -45 -73 -78 -104 -78c-37 0 -49 34 -42 73c16 91 112 193 156 193c19 0 21 -16 19 -27c0 -8 15 -9 17 7c4 25 -11 42 -29 48c-30 11 -75 -5 -112 -38c-45 -40 -78 -93 -88 -131c-18 -62 -6 -109 27 -129c33 -21 87 -18 132 20c13 12 26 25 39 39
c7 -15 24 -25 41 -25c39 0 79 43 101 70c15 18 28 34 34 46c5 9 -7 15 -12 8c-10 -14 -23 -29 -35 -43c-20 -21 -53 -58 -85 -58c-13 0 -24 8 -25 27c22 31 57 93 43 134c-8 27 -52 17 -41 -11c5 -12 13 -33 -14 -87c-17 5 -31 -11 -25 -32c0 -3 2 -4 3 -6zM217 403
c0 -10 -17 -39 -26 -39c-14 0 -34 0 -34 16c0 5 43 37 48 40c32 27 12 -2 12 -17zM376 403c0 -10 -19 -39 -26 -39c-15 0 -34 0 -34 16c0 5 43 37 48 40c32 27 12 -2 12 -17z" />
    <glyph glyph-name="ograve" unicode="&#xf2;" horiz-adv-x="351"
d="M225 72c-30 -45 -73 -78 -104 -78c-37 0 -49 34 -42 73c16 91 112 193 156 193c19 0 21 -16 19 -27c0 -8 15 -9 17 7c4 25 -11 42 -29 48c-30 11 -75 -5 -112 -38c-45 -40 -78 -93 -88 -131c-18 -62 -6 -109 27 -129c33 -21 87 -18 132 20c13 12 26 25 39 39
c7 -15 24 -25 41 -25c39 0 79 43 101 70c15 18 28 34 34 46c5 9 -7 15 -12 8c-10 -14 -23 -29 -35 -43c-20 -21 -53 -58 -85 -58c-13 0 -24 8 -25 27c22 31 57 93 43 134c-8 27 -52 17 -41 -11c5 -12 13 -33 -14 -87c-17 5 -31 -11 -25 -32c0 -3 2 -4 3 -6zM319 375
c5 -2 8 -11 -4 -11c-14 0 -91 36 -134 60c-14 8 -57 38 -21 50c17 6 36 -7 57 -22c34 -27 68 -52 102 -77z" />
    <glyph glyph-name="otilde" unicode="&#xf5;" horiz-adv-x="351"
d="M225 72c-1 2 -3 3 -3 6c-6 21 8 37 25 32c27 54 19 75 14 87c-11 28 33 38 41 11c14 -41 -21 -103 -43 -134c1 -19 12 -27 25 -27c32 0 65 37 85 58c12 14 25 29 35 43c5 7 17 1 12 -8c-6 -12 -19 -28 -34 -46c-22 -27 -62 -70 -101 -70c-17 0 -34 10 -41 25
c-13 -14 -26 -27 -39 -39c-45 -38 -99 -41 -132 -20c-33 20 -45 67 -27 129c10 38 43 91 88 131c37 33 82 49 112 38c18 -6 33 -23 29 -48c-2 -16 -17 -15 -17 -7c2 11 0 27 -19 27c-44 0 -140 -102 -156 -193c-7 -39 5 -73 42 -73c31 0 74 33 104 78zM385 425
c-18 -40 -55 -72 -93 -60c-37 14 -73 37 -111 29c-21 -5 -39 -17 -50 -35c-4 -5 -17 0 -15 4c30 42 64 89 110 72c20 -7 54 -28 81 -37c30 -9 49 -1 60 30c4 6 20 2 18 -3z" />
    <glyph glyph-name="uacute" unicode="&#xfa;" horiz-adv-x="445"
d="M510 140c-19 -35 -80 -101 -130 -137c-33 -24 -106 -48 -126 12c-9 27 3 94 17 129c-15 -10 -77 -155 -159 -155c-20 0 -57 13 -70 34c-23 37 -1 112 35 167c14 22 39 59 48 62c17 5 40 5 54 0c12 -5 5 -15 -2 -20c-22 -20 -73 -73 -98 -140c-32 -85 13 -108 83 -52
c37 30 80 88 117 142c18 26 52 90 65 110c13 0 62 -9 52 -27c-12 -20 -49 -82 -62 -108c-15 -29 -27 -63 -32 -99c-6 -43 14 -66 47 -49c32 18 107 81 148 139c5 7 18 1 13 -8zM432 443l-1 -1c-21 -18 -142 -75 -160 -77c-12 0 -7 8 -4 12c2 2 44 30 55 38
c27 23 57 39 75 64c12 5 24 -2 29 -4c14 -8 14 -26 6 -32z" />
    <glyph glyph-name="ucircumflex" unicode="&#xfb;" horiz-adv-x="445"
d="M510 140c-19 -35 -80 -101 -130 -137c-33 -24 -106 -48 -126 12c-9 27 3 94 17 129c-15 -10 -77 -155 -159 -155c-20 0 -57 13 -70 34c-23 37 -1 112 35 167c14 22 39 59 48 62c17 5 40 5 54 0c12 -5 5 -15 -2 -20c-22 -20 -73 -73 -98 -140c-32 -85 13 -108 83 -52
c37 30 80 88 117 142c18 26 52 90 65 110c13 0 62 -9 52 -27c-12 -20 -49 -82 -62 -108c-15 -29 -27 -63 -32 -99c-6 -43 14 -66 47 -49c32 18 107 81 148 139c5 7 18 1 13 -8zM399 392c6 -9 6 -29 -10 -15c-12 12 -72 60 -83 72c-32 -20 -59 -46 -90 -67
c-30 -19 -19 6 -9 15c18 13 92 86 112 87c18 -7 62 -65 80 -92z" />
    <glyph glyph-name="udieresis" unicode="&#xfc;" horiz-adv-x="445"
d="M510 140c-19 -35 -80 -101 -130 -137c-33 -24 -106 -48 -126 12c-9 27 3 94 17 129c-15 -10 -77 -155 -159 -155c-20 0 -57 13 -70 34c-23 37 -1 112 35 167c14 22 39 59 48 62c17 5 40 5 54 0c12 -5 5 -15 -2 -20c-22 -20 -73 -73 -98 -140c-32 -85 13 -108 83 -52
c37 30 80 88 117 142c18 26 52 90 65 110c13 0 62 -9 52 -27c-12 -20 -49 -82 -62 -108c-15 -29 -27 -63 -32 -99c-6 -43 14 -66 47 -49c32 18 107 81 148 139c5 7 18 1 13 -8zM245 402c0 -10 -18 -39 -26 -39c-14 0 -34 0 -34 16c0 5 42 36 47 40c33 26 13 -2 13 -17z
M404 402c0 -10 -19 -39 -27 -39c-15 0 -33 0 -33 16c0 5 42 36 47 40c33 26 13 -2 13 -17z" />
    <glyph glyph-name="ugrave" unicode="&#xf9;" horiz-adv-x="445"
d="M510 140c-19 -35 -80 -101 -130 -137c-33 -24 -106 -48 -126 12c-9 27 3 94 17 129c-15 -10 -77 -155 -159 -155c-20 0 -57 13 -70 34c-23 37 -1 112 35 167c14 22 39 59 48 62c17 5 40 5 54 0c12 -5 5 -15 -2 -20c-22 -20 -73 -73 -98 -140c-32 -85 13 -108 83 -52
c37 30 80 88 117 142c18 26 52 90 65 110c13 0 62 -9 52 -27c-12 -20 -49 -82 -62 -108c-15 -29 -27 -63 -32 -99c-6 -43 14 -66 47 -49c32 18 107 81 148 139c5 7 18 1 13 -8zM355 374c5 -2 9 -11 -4 -11c-14 0 -91 36 -134 60c-13 7 -57 37 -21 50c18 6 36 -8 58 -23
c33 -26 67 -51 101 -76z" />
    <glyph glyph-name="Ydieresis" unicode="&#x178;" horiz-adv-x="526"
d="M694 552c18 -4 10 -20 -4 -20c-53 5 -83 -35 -111 -112c-25 -65 -103 -325 -120 -373c45 11 81 16 92 10c6 -5 3 -18 -5 -14c-14 7 -92 -8 -101 -31c-221 -562 -584 -428 -375 -189c91 104 202 167 332 209c13 33 40 145 72 253c-105 -160 -247 -317 -360 -317
c-34 0 -62 17 -69 65c-16 119 89 282 136 399c8 17 -1 18 -24 0c-45 -38 -95 -67 -136 -70c-15 -2 -12 15 3 16c57 6 192 126 210 159c5 15 70 18 63 0c-22 -37 -170 -278 -195 -414c-15 -88 9 -120 45 -120c114 0 289 255 377 441c10 21 17 41 26 58c5 10 9 17 14 21
c8 14 20 21 32 26c43 18 86 4 98 3zM396 13c-109 -36 -204 -95 -277 -185c-133 -164 -10 -263 118 -106c70 85 122 188 159 291zM391 672c0 -10 -17 -39 -26 -39c-14 0 -34 0 -34 16c0 5 43 36 48 40c32 26 12 -2 12 -17zM550 672c0 -10 -19 -39 -26 -39c-15 0 -34 0 -34 16
c0 5 42 36 47 40c33 26 13 -2 13 -17z" />
    <glyph glyph-name="ydieresis" unicode="&#xff;" horiz-adv-x="1500"
 />
    <glyph glyph-name="DEL" horiz-adv-x="1500"
 />
    <glyph glyph-name="notequal" unicode="&#x2260;" horiz-adv-x="539"
d="M207 -22c-12 -21 -47 -23 -40 0c5 14 34 56 70 109c-37 -2 -68 -2 -80 -3c-46 -2 -11 38 9 38h96c25 36 53 75 79 110c-69 -2 -139 -3 -156 -4c-46 -3 -13 36 9 36l172 1c40 53 73 95 84 105c15 15 56 9 36 -12l-77 -93h76c32 0 54 -6 54 -12c0 -13 -45 -15 -54 -16
c-16 -2 -56 -3 -101 -4c-27 -34 -55 -73 -83 -111h156c33 0 54 -5 54 -13c1 -12 -45 -14 -52 -15c-27 -2 -109 -5 -182 -6c-27 -39 -51 -76 -70 -110z" />
    <glyph glyph-name="infinity" unicode="&#x221e;" horiz-adv-x="641"
d="M270 237l-1 10c-7 51 0 117 -58 130c-115 26 -200 -164 -132 -220c61 -52 147 35 191 80zM327 269c0 -15 -1 -30 0 -44c10 -127 142 -100 213 -6c31 41 74 155 1 170c-31 6 -77 -12 -110 -35c-42 -30 -67 -46 -104 -85zM271 214c-51 -52 -125 -119 -201 -102
c-51 11 -66 68 -38 145c17 42 42 90 80 120c39 30 87 47 132 38c70 -15 81 -80 83 -125c35 37 69 58 108 84c40 26 104 48 150 39c72 -14 61 -79 41 -128c-34 -81 -159 -197 -269 -176c-60 13 -80 48 -86 105z" />
    <glyph glyph-name="lessequal" unicode="&#x2264;" horiz-adv-x="509"
d="M179 228c85 81 223 159 295 204c17 10 38 -2 -3 -38c-42 -37 -139 -75 -244 -175c40 -77 110 -126 139 -154c33 -30 -1 -52 -35 -22c-59 50 -116 86 -159 129c-28 27 -20 32 7 56zM436 -41c-46 -4 -322 -7 -356 -9c-46 -2 -13 37 9 37c21 0 305 1 346 1
c42 0 36 -25 1 -29z" />
    <glyph glyph-name="greaterequal" unicode="&#x2265;" horiz-adv-x="615"
d="M436 -41c-46 -4 -322 -7 -356 -9c-46 -2 -13 37 9 37c21 0 305 1 346 1c42 0 36 -25 1 -29z" />
    <glyph glyph-name="partialdiff" unicode="&#x2202;" horiz-adv-x="315"
d="M81 -21c-52 15 -79 63 -47 135c30 68 185 199 260 174c18 -6 33 -19 26 -45c-9 -15 -14 -5 -14 -1c0 8 -15 18 -25 18c-51 0 -175 -102 -202 -193c-10 -34 -4 -54 11 -64c67 -41 159 36 191 77c34 42 60 88 76 130c29 73 43 174 35 248c-16 154 -177 127 -150 -48
c7 -41 -27 -3 -33 33c-9 56 2 104 30 129c70 62 163 -35 183 -103c33 -106 -11 -292 -106 -402c-52 -62 -141 -114 -235 -88z" />
    <glyph glyph-name="product" unicode="&#x220f;" horiz-adv-x="490"
d="M565 507c0 -9 -5 -18 -15 -27c-38 -35 -84 -51 -139 -47c-26 -101 -74 -275 -74 -381c0 -45 17 -62 38 -62c57 -1 119 95 151 138c23 29 23 1 16 -8c-43 -60 -95 -158 -180 -157c-36 0 -63 29 -63 99c0 105 36 303 62 378c-26 8 -66 18 -119 29
c-2 -126 -57 -369 -97 -471c-3 -9 -31 -16 -23 9c42 110 75 352 75 466c-55 0 -101 -15 -142 -51c-23 -15 -16 13 -1 28c48 47 100 72 155 72c28 0 70 -9 122 -27c53 -16 93 -25 121 -25s64 15 108 44c4 0 5 -2 5 -7z" />
    <glyph glyph-name="pi" unicode="&#x3c0;" horiz-adv-x="412"
d="M354 234c-25 -24 -57 -34 -93 -31l-24 -85c-8 -34 -12 -63 -12 -88c0 -31 7 -47 24 -47c8 0 23 5 42 27c10 12 28 33 49 69c6 10 12 14 9 -2c-4 -13 -15 -32 -33 -54c-19 -25 -41 -54 -75 -54c-26 0 -42 23 -42 61c0 70 22 158 28 178c-17 5 -43 11 -78 19
c0 -15 0 -29 -2 -43c-3 -62 -26 -140 -55 -196c-5 -6 -15 -3 -13 0c21 61 36 129 38 195c0 15 2 30 2 46c-37 0 -68 -10 -95 -34c-3 -1 -5 -2 -7 -2c-10 0 3 19 5 21c33 31 68 48 104 48c19 0 46 -7 81 -17c35 -11 63 -17 82 -17c18 0 42 10 71 29c10 0 -3 -19 -6 -23z" />
    <glyph glyph-name="integral" unicode="&#x222b;" horiz-adv-x="286"
d="M115 138c29 77 62 169 97 245c38 81 119 237 232 196c27 -10 50 -30 48 -60c-1 -25 -43 -45 -36 -4c5 27 -7 44 -29 44c-26 -1 -76 -25 -117 -92c-121 -200 -196 -427 -265 -648c-25 -81 -84 -237 -203 -197c-28 10 -53 30 -56 61c-2 24 36 45 35 4c-1 -27 15 -44 38 -44
c75 1 127 135 150 195c36 97 70 204 106 300z" />
    <glyph glyph-name="radical" unicode="&#x221a;" horiz-adv-x="576"
d="M232 -20c-10 -18 -18 -31 -38 -40c-32 -15 -9 17 -4 25c10 33 4 83 -8 128c-5 22 -12 42 -18 59c-13 30 -14 31 -42 -4c-25 -31 -56 -79 -58 -83c-19 -25 -13 2 -9 13c6 17 52 109 85 165c37 65 31 51 41 0c10 -50 26 -154 59 -195c81 136 151 275 222 414
c29 55 54 103 62 111c6 9 15 15 26 20c21 9 27 1 25 -13c-3 -21 -30 -61 -60 -107c-104 -161 -190 -326 -283 -493z" />
    <glyph glyph-name="approxequal" unicode="&#x2248;" horiz-adv-x="547"
d="M467 125c-26 -40 -85 -71 -142 -58c-59 12 -115 37 -174 28c-31 -3 -60 -18 -77 -35c-7 -6 -28 -1 -24 3c47 42 100 87 171 71c31 -7 84 -26 126 -35c47 -9 77 -1 94 29c4 6 30 2 26 -3zM531 264c-26 -40 -85 -71 -142 -59c-59 14 -115 35 -174 28
c-31 -4 -60 -18 -78 -35c-6 -5 -27 0 -23 4c46 42 100 87 171 71c31 -8 84 -28 126 -36c46 -9 76 -2 94 28c4 8 30 4 26 -1z" />
    <glyph glyph-name="Delta" unicode="&#x2206;" horiz-adv-x="605"
d="M529 59c1 -1 0 -2 -2 -4c-1 -16 -8 -31 -20 -43c-12 -13 -25 -23 -37 -29h-418c-5 0 -8 4 -12 11c-4 8 -4 15 -3 21c0 4 2 7 5 10l303 478c5 9 11 17 20 25c9 9 15 12 20 12c1 0 1 0 2 -1h2l1 -1l137 -475c0 -1 0 -3 2 -4zM80 30h387l-120 425z" />
    <glyph glyph-name="uni00A0" unicode="&#xa0;" horiz-adv-x="219"
 />
    <glyph glyph-name="lozenge" unicode="&#x25ca;" horiz-adv-x="1500"
 />
    <glyph glyph-name="Euro" unicode="&#x20ac;" horiz-adv-x="539"
d="M554 145c-78 -101 -212 -182 -342 -182c-56 0 -108 17 -147 61c-29 33 -44 79 -38 134l-8 -1c-47 -2 -12 37 10 37h5c6 28 17 58 33 89c4 6 8 12 10 19c-13 -2 -25 -2 -31 -2c-46 -2 -12 37 9 37h45c79 117 206 215 327 215c43 0 108 -12 108 -78c0 -21 -38 -24 -38 -2
c0 40 -41 58 -76 60c-87 1 -192 -89 -262 -195c73 1 162 1 187 1c33 0 31 -6 31 -13c0 -12 -22 -15 -30 -16c-30 -2 -132 -5 -210 -6l-16 -30c-14 -28 -24 -54 -30 -79h228c32 0 31 -5 31 -12c1 -13 -21 -14 -30 -15c-34 -3 -158 -5 -238 -8c-25 -164 113 -231 303 -129
c56 30 115 75 156 129c19 24 20 -4 13 -14z" />
    <glyph glyph-name="apple" unicode="&#xf8ff;" horiz-adv-x="526"
d="M299 612c23 36 70 55 83 50c30 -44 -18 -149 -107 -144c-5 16 -1 57 24 94zM317 93c-23 15 -70 15 -91 0c-10 -6 -24 -15 -52 -15c-30 0 -54 24 -82 57c-63 77 -96 220 -45 313c45 84 122 82 139 76c11 -5 39 -15 60 -21c19 -5 34 -3 50 1c21 6 50 15 61 20
c15 6 90 11 133 -57c-31 -18 -68 -58 -65 -124c2 -50 35 -94 80 -111c-23 -69 -74 -154 -135 -154c-29 0 -44 9 -53 15z" />
    <glyph glyph-name="summation" unicode="&#x2211;" horiz-adv-x="559"
d="M312 242c0 0 -178 -152 -205 -180c50 -19 183 -40 254 -49c58 -8 104 4 131 44c12 16 39 -15 -30 -65c-48 -37 -105 -34 -161 -23c-26 5 -200 50 -221 59c-6 -8 -20 -20 -35 -31v-2c-10 -10 -19 -15 -25 -16c-14 -9 -25 -11 -25 1c1 49 45 88 87 87
c100 93 204 190 204 190s-165 167 -175 178c-25 9 -46 32 -45 53c4 30 64 26 76 5c24 5 202 19 228 20c59 1 100 2 129 -24c43 -39 12 -71 2 -97c-2 -9 -25 -15 -16 5c7 18 16 43 -6 58s-42 14 -83 15c-77 2 -170 -3 -237 -16c17 -16 186 -175 186 -175c9 -12 6 -19 -33 -37
z" />
    <glyph glyph-name="ordfeminine" unicode="&#xaa;" horiz-adv-x="650"
d="M225 467c-21 0 -49 13 -64 33c-74 94 154 244 229 263c30 7 74 10 100 -9c10 -6 17 -16 17 -26c0 -8 -1 -8 -6 -5c-11 16 -31 19 -50 19c-52 0 -122 -40 -174 -87c-28 -26 -111 -121 -80 -165c14 -20 63 17 77 28c26 21 71 60 97 87c14 15 90 99 99 99c10 0 49 -7 40 -24
c-36 -51 -56 -112 -60 -145c-6 -42 14 -66 46 -48c33 17 108 81 149 138c5 8 17 2 12 -7c-18 -35 -80 -101 -130 -138c-32 -23 -106 -47 -126 13c-9 26 3 86 16 121c-17 -7 -112 -147 -192 -147z" />
    <glyph glyph-name="ordmasculine" unicode="&#xba;" horiz-adv-x="577"
d="M387 568c-1 2 -2 4 -2 6c-6 21 7 38 25 33c26 53 19 75 14 86c-12 29 32 39 41 11c14 -41 -21 -102 -44 -134c1 -18 13 -27 25 -27c33 0 65 37 85 59c13 13 25 28 35 42c5 8 18 1 13 -7c-7 -13 -19 -29 -34 -47c-23 -27 -63 -70 -101 -70c-18 0 -34 10 -42 25
c-12 -13 -26 -27 -38 -38c-45 -39 -99 -42 -133 -20c-32 20 -45 66 -26 128c10 38 42 92 87 132c38 32 83 48 113 37c17 -6 32 -22 29 -47c-3 -17 -18 -15 -18 -8c3 11 0 28 -19 28c-43 0 -140 -103 -156 -194c-6 -39 5 -73 43 -73c31 0 73 33 103 78z" />
    <glyph glyph-name="uni03A9" unicode="&#x3a9;" horiz-adv-x="642"
d="M50 17c41 2 102 5 140 6c-58 62 -79 177 -38 290c48 134 154 237 294 230c134 -8 151 -145 113 -275c-33 -109 -89 -191 -170 -246c31 0 95 1 131 1c32 0 55 -6 55 -13c0 -12 -45 -15 -54 -16c-46 -4 -125 -7 -159 -9c-35 -1 -23 20 -7 30c2 8 11 18 21 24
c54 31 120 156 138 228c30 113 40 253 -80 253c-105 0 -203 -108 -244 -235c-35 -113 -21 -202 22 -255l4 -7c26 -5 -4 -35 -22 -35c-22 0 -107 -1 -148 -1c-42 0 -16 27 4 30z" />
    <glyph glyph-name="Amacron" unicode="&#x100;" horiz-adv-x="470"
d="M11 12c0 21 20 42 20 0c0 -24 10 -40 30 -53c15 -10 36 -15 61 -15c53 0 112 20 163 54c59 40 136 119 215 209c-56 7 -113 13 -168 17c-70 4 -155 -5 -183 -82c-5 -14 -5 -28 1 -38c7 -14 -9 -22 -18 -9c-8 14 -12 38 -10 62c10 121 114 120 215 108
c59 -6 123 -20 185 -32c105 121 209 256 273 336c0 0 1 1 1 3h1c2 2 3 2 5 3c14 8 43 14 52 14c6 0 10 -4 10 -10c0 -2 -3 -6 -5 -11c-68 -113 -115 -231 -149 -358l-3 -7c9 0 17 -1 25 -1c27 -2 53 1 73 10c14 5 25 13 30 22c6 10 17 -1 11 -11c-7 -13 -21 -23 -39 -29
c-21 -9 -50 -11 -78 -10c-9 0 -18 1 -27 1c-8 -37 -16 -76 -18 -115c-9 -101 38 -87 107 -35c46 35 85 79 111 114c4 4 17 3 12 -9c-3 -7 -48 -73 -119 -130c-38 -30 -78 -35 -98 -35c-42 0 -65 48 -58 112c2 32 8 66 17 102c-40 4 -79 9 -119 14
c-80 -99 -161 -188 -231 -239c-52 -39 -107 -59 -164 -59c-37 0 -67 9 -90 25c-27 19 -41 45 -41 82zM752 478c2 4 3 7 5 11c-58 -79 -128 -174 -201 -264l105 -17c24 94 60 191 91 270zM930 663c-48 -4 -125 -8 -159 -9c-46 -2 -11 36 9 36c22 0 107 2 149 2
c32 0 53 -7 55 -13c0 -12 -47 -15 -54 -16z" />
    <glyph glyph-name="amacron" unicode="&#x101;" horiz-adv-x="457"
d="M90 -11c-21 0 -49 14 -64 34c-74 94 154 244 229 262c30 8 74 10 100 -8c10 -7 17 -17 17 -27c0 -7 -1 -7 -6 -5c-11 17 -31 19 -50 19c-52 0 -122 -40 -174 -86c-28 -26 -111 -121 -80 -165c14 -20 63 16 77 27c26 22 71 60 97 88c14 15 90 99 99 99c10 0 49 -8 40 -24
c-36 -51 -56 -113 -60 -145c-6 -43 14 -66 46 -49c33 18 108 81 149 139c5 7 17 1 12 -8c-18 -35 -80 -101 -130 -137c-32 -24 -106 -48 -126 12c-9 27 3 87 16 122c-17 -8 -112 -148 -192 -148zM384 360c-48 -3 -125 -7 -159 -8c-46 -3 -11 36 9 36c22 0 107 1 148 1
c33 0 54 -6 55 -12c0 -13 -46 -15 -53 -17z" />
    <glyph glyph-name="Aogonek" unicode="&#x104;" horiz-adv-x="849"
d="M11 12c0 21 20 42 20 0c0 -24 10 -40 30 -53c15 -10 36 -15 61 -15c53 0 112 20 163 54c59 40 136 119 215 209c-56 7 -113 13 -168 17c-70 4 -155 -5 -183 -82c-5 -14 -5 -28 1 -38c7 -14 -9 -22 -18 -9c-8 14 -12 38 -10 62c10 121 114 120 215 108
c59 -6 123 -20 185 -32c105 121 209 256 273 336c2 3 5 5 7 6c14 8 43 14 52 14c6 0 10 -4 10 -10c0 -2 -3 -6 -5 -11c-68 -113 -115 -231 -149 -358l-3 -7c9 0 17 -1 25 -1c27 -2 53 1 73 10c14 5 25 13 30 22c6 10 17 -1 11 -11c-7 -13 -21 -23 -39 -29
c-21 -9 -50 -11 -78 -10c-9 0 -18 1 -27 1c-8 -37 -16 -76 -18 -115c-9 -101 38 -87 107 -35c46 35 85 79 111 114c4 4 17 3 12 -9c-3 -7 -48 -73 -119 -130c-30 -23 -60 -31 -83 -33c-38 -38 -93 -60 -143 -107c-29 -26 -112 -121 -80 -165c23 -35 160 97 182 114
c21 20 26 3 13 -12c-15 -18 -88 -125 -168 -125c-21 0 -49 13 -64 33c-37 47 3 113 67 157c57 40 127 82 162 106c-32 10 -49 54 -42 109c2 32 8 66 17 102c-40 4 -79 9 -119 14c-80 -99 -161 -188 -231 -239c-52 -39 -107 -59 -164 -59c-37 0 -67 9 -90 25
c-27 19 -41 45 -41 82zM752 478c2 4 3 7 5 11c-58 -79 -128 -174 -201 -264l105 -17c24 94 60 191 91 270z" />
    <glyph glyph-name="aogonek" unicode="&#x105;" horiz-adv-x="457"
d="M292 -142c17 16 22 1 10 -10c-12 -15 -71 -103 -136 -103c-17 0 -40 12 -52 28c-30 37 2 91 55 127c42 30 95 63 125 83c-13 5 -23 15 -28 32c-9 27 3 87 16 122c-17 -8 -112 -148 -192 -148c-21 0 -49 14 -64 34c-74 94 154 244 229 262c30 8 74 10 100 -8
c10 -7 17 -17 17 -27c0 -7 -1 -7 -6 -5c-11 17 -31 19 -50 19c-52 0 -122 -40 -174 -86c-28 -26 -111 -121 -80 -165c14 -20 63 16 77 27c26 22 71 60 97 88c14 15 90 99 99 99c10 0 49 -8 40 -24c-36 -51 -56 -113 -60 -145c-6 -43 14 -66 46 -49c33 18 108 81 149 139
c5 7 17 1 12 -8c-18 -35 -80 -101 -130 -137c-17 -14 -47 -25 -75 -25c-30 -26 -71 -45 -108 -79c-24 -21 -90 -99 -65 -134c18 -28 130 78 148 93z" />
    <glyph glyph-name="Ccaron" unicode="&#x10c;" horiz-adv-x="480"
d="M515 583c55 -8 81 -43 80 -83c-4 -116 -209 -233 -309 -242c-32 -3 -22 29 5 31c104 9 201 65 250 159c24 46 28 102 -27 111c-105 16 -362 -171 -435 -400c-43 -131 22 -191 128 -192c119 -4 292 56 385 187c7 10 19 -1 14 -9c-104 -143 -270 -205 -399 -203
c-122 1 -216 73 -177 235c51 208 289 436 485 406zM426 729c-6 10 -5 30 10 15c13 -11 73 -59 84 -71c32 20 57 45 90 66c29 19 19 -6 7 -15c-17 -14 -91 -86 -110 -87c-20 7 -62 65 -81 92z" />
    <glyph glyph-name="ccaron" unicode="&#x10d;" horiz-adv-x="315"
d="M379 135c-57 -77 -123 -141 -222 -158c-96 -17 -168 33 -123 137c30 68 185 199 260 174c18 -6 33 -19 26 -45c-1 -6 -18 -43 -25 -34c-4 3 -5 8 -4 11c1 7 5 14 5 20c0 9 -5 20 -15 20c-51 0 -175 -102 -202 -193c-23 -74 35 -80 92 -64c90 26 139 72 196 145
c5 6 10 2 12 2c5 -2 2 -11 0 -15zM206 444c-6 10 -5 30 10 15c13 -11 73 -59 84 -71c32 20 57 45 90 66c29 19 19 -6 7 -15c-17 -14 -91 -86 -110 -87c-20 7 -62 65 -81 92z" />
    <glyph glyph-name="Cacute" unicode="&#x106;" horiz-adv-x="480"
d="M515 583c55 -8 81 -43 80 -83c-4 -116 -209 -233 -309 -242c-32 -3 -22 29 5 31c104 9 201 65 250 159c24 46 28 102 -27 111c-105 16 -362 -171 -435 -400c-43 -131 22 -191 128 -192c119 -4 292 56 385 187c7 10 19 -1 14 -9c-104 -143 -270 -205 -399 -203
c-122 1 -216 73 -177 235c51 208 289 436 485 406zM624 715l-2 -1c-21 -17 -142 -75 -160 -76c-12 0 -7 7 -3 11c1 3 43 30 55 39c26 22 56 39 75 64c11 5 23 -3 28 -4c14 -9 14 -26 7 -33z" />
    <glyph glyph-name="cacute" unicode="&#x107;" horiz-adv-x="315"
d="M379 135c-57 -77 -123 -141 -222 -158c-96 -17 -168 33 -123 137c30 68 185 199 260 174c18 -6 33 -19 26 -45c-1 -6 -18 -43 -25 -34c-4 3 -5 8 -4 11c1 7 5 14 5 20c0 9 -5 20 -15 20c-51 0 -175 -102 -202 -193c-23 -74 35 -80 92 -64c90 26 139 72 196 145
c5 6 10 2 12 2c5 -2 2 -11 0 -15zM434 437l-2 -2c-21 -17 -142 -75 -160 -76c-12 0 -7 8 -3 11c1 3 43 30 55 39c26 23 56 39 75 64c11 5 23 -3 28 -4c14 -9 14 -26 7 -32z" />
    <glyph glyph-name="Zacute" unicode="&#x179;" horiz-adv-x="549"
d="M629 542c20 20 105 73 108 26c5 -54 -68 -88 -108 -79c-69 -39 -147 -132 -225 -221c46 4 95 10 141 7c15 -1 41 -8 0 -21c-25 -7 -101 -16 -173 -21l-47 -50c-50 -51 -119 -113 -180 -148c-14 -12 -5 -23 5 -30c139 -73 275 -181 429 -165c52 7 125 48 76 125
c-10 18 7 20 16 4c18 -29 24 -56 28 -80c6 -47 -25 -95 -93 -101c-201 -20 -367 165 -512 216c-24 -12 -53 -19 -62 -15c-25 9 -32 45 -1 59c9 4 34 -6 61 -9c58 20 139 101 222 190c-38 -2 -70 -4 -84 -2c-11 0 -26 11 -26 27c0 20 42 31 55 30c16 0 20 -19 28 -20
c20 -1 40 -1 59 0c94 100 185 203 248 235c-97 30 -258 55 -355 29c-54 -14 -98 -59 -82 -89c9 -19 2 -27 -12 -10c-41 53 19 119 76 138c118 40 289 5 408 -25zM625 714l-1 -1c-22 -18 -143 -75 -160 -76c-13 0 -8 7 -4 11c1 2 44 30 55 39c26 22 56 38 75 63
c11 5 24 -2 29 -3c13 -9 13 -27 6 -33z" />
    <glyph glyph-name="zacute" unicode="&#x17a;" horiz-adv-x="422"
d="M111 229c48 69 96 45 149 33l77 -18c14 13 75 48 78 18c2 -35 -59 -63 -86 -57c-47 -38 -118 -98 -173 -147c-6 -5 -15 -14 -26 -23l30 -15c55 -33 101 -55 151 -27c41 24 126 102 164 155c5 7 22 5 17 -4c-21 -36 -110 -127 -160 -164c-23 -17 -38 -22 -47 -25
c-53 -18 -99 0 -151 33c-10 6 -24 14 -39 19c-30 -23 -63 -40 -79 -32c-14 8 -6 54 36 68c19 6 42 4 64 -3c16 13 29 24 31 27c54 46 114 105 155 145c-33 10 -57 17 -86 21c-42 5 -66 -6 -89 -28c-22 -20 -45 -46 -62 -70c-5 -6 -15 -20 -20 -15c-4 3 -6 9 -1 17zM467 438
l-1 -1c-21 -18 -142 -75 -160 -77c-12 0 -7 8 -4 12c2 2 44 30 55 38c27 23 57 39 75 64c12 5 24 -2 29 -4c14 -8 14 -26 6 -32z" />
    <glyph glyph-name="Dcaron" unicode="&#x10e;" horiz-adv-x="567"
d="M115 295c0 -50 61 -56 84 -67c13 -6 7 -15 -7 -14c-35 3 -120 34 -111 95c0 3 -2 11 -2 16c0 244 583 314 750 180c55 -45 78 -105 78 -168c0 -214 -212 -374 -415 -374c-68 0 -135 16 -181 51c-5 -7 -44 -90 -71 -90c-51 0 -59 78 -59 93c0 43 4 73 9 107
c1 9 -4 18 -8 28c-2 8 2 15 7 20c10 7 35 15 42 10c4 -3 4 -8 -2 -22c-8 -17 -8 -13 -8 -32c0 -23 65 -75 69 -76c17 42 75 165 102 221c13 26 9 36 7 41c6 33 106 155 158 155c12 0 54 -10 59 -36c1 -13 -5 -3 -12 -3c-93 0 -242 -308 -284 -398c145 -107 357 -4 457 117
c148 179 107 396 -162 404c-216 5 -500 -118 -500 -258zM277 29c-15 13 -43 45 -61 61c0 -13 -1 -70 8 -116c12 -62 48 43 53 55zM564 715c-7 10 -5 30 10 15c12 -11 72 -58 83 -71c33 20 58 45 90 66c29 19 19 -6 8 -15c-18 -13 -91 -86 -110 -87c-20 7 -63 65 -81 92z" />
    <glyph glyph-name="dcaron" unicode="&#x10f;" horiz-adv-x="704"
d="M90 -11c-21 0 -49 14 -64 34c-74 94 154 244 229 262c30 8 75 10 100 -8l4 -3c67 155 166 339 281 316c57 -11 52 -57 29 -98c-59 -104 -204 -204 -294 -282c-20 -47 -43 -117 -55 -162c-16 -63 -18 -110 -1 -138c8 -16 26 -23 45 -8c5 3 8 7 15 11c12 7 17 4 11 -8
c-4 -5 -9 -11 -15 -17c-14 -10 -48 -13 -66 -10c-100 16 -18 232 8 297c-61 -71 -167 -186 -227 -186zM351 258c-10 5 -22 6 -35 6c-52 0 -122 -40 -174 -86c-28 -26 -111 -121 -80 -165c14 -20 63 16 77 27c67 55 138 120 198 184zM405 268c80 52 194 157 239 242
c25 48 10 77 -40 39c-90 -69 -147 -166 -199 -281zM776 522c0 -14 -20 -45 -42 -73c-28 -32 -57 -62 -64 -67c-11 -8 -11 2 -11 6c0 1 11 15 22 27c20 23 38 48 46 77c12 33 -7 28 -5 52c8 10 23 10 28 10c16 0 26 -21 26 -32z" />
    <glyph glyph-name="Emacron" unicode="&#x112;" horiz-adv-x="525"
d="M452 589c35 -9 60 -35 83 -56c7 -8 17 -18 29 -21c5 -3 13 -2 18 -5c12 -10 19 -32 25 -47c14 -33 5 -123 -25 -87c-16 20 -18 55 -31 81c-16 34 -34 64 -60 86c-15 14 -49 35 -85 22c-104 -43 -60 -219 -15 -278c6 -7 41 -9 53 -10c36 -4 36 -29 17 -40
c-20 -11 -66 6 -90 11c-100 -2 -301 -77 -304 -197c-1 -54 37 -98 149 -98c108 0 256 42 321 75c54 28 175 118 160 180c-1 5 9 5 12 2c53 -77 -57 -167 -119 -202c-83 -47 -246 -80 -339 -80c-111 0 -227 32 -227 153c0 167 228 194 337 199c-55 63 -105 183 -61 258
c25 43 109 64 152 54zM550 648c-48 -4 -125 -8 -159 -9c-46 -2 -11 36 9 36c22 0 107 2 149 2c32 0 53 -7 55 -13c0 -12 -47 -15 -54 -16z" />
    <glyph glyph-name="emacron" unicode="&#x113;" horiz-adv-x="319"
d="M310 195c-36 -53 -131 -91 -176 -95c-15 -1 -22 13 -7 14c32 3 88 35 125 65c17 13 47 43 45 65c-1 28 -37 13 -51 6c-59 -27 -145 -110 -167 -183c-25 -84 52 -85 117 -59c74 30 138 84 174 139c4 5 9 5 11 3c5 -2 5 -7 1 -12c-40 -66 -103 -121 -173 -150
c-102 -41 -230 0 -175 126c30 68 185 199 260 174c41 -14 35 -65 16 -93zM361 360c-47 -3 -125 -7 -159 -8c-46 -3 -11 36 9 36c23 0 108 1 149 1c32 0 54 -6 55 -12c0 -13 -46 -15 -54 -17z" />
    <glyph glyph-name="Edotaccent" unicode="&#x116;" horiz-adv-x="525"
d="M452 589c35 -9 60 -35 83 -56c7 -8 17 -18 29 -21c5 -3 13 -2 18 -5c12 -10 19 -32 25 -47c14 -33 5 -123 -25 -87c-16 20 -18 55 -31 81c-16 34 -34 64 -60 86c-15 14 -49 35 -85 22c-104 -43 -60 -219 -15 -278c6 -7 41 -9 53 -10c36 -4 36 -29 17 -40
c-20 -11 -66 6 -90 11c-100 -2 -301 -77 -304 -197c-1 -54 37 -98 149 -98c108 0 256 42 321 75c54 28 175 118 160 180c-1 5 9 5 12 2c53 -77 -57 -167 -119 -202c-83 -47 -246 -80 -339 -80c-111 0 -227 32 -227 153c0 167 228 194 337 199c-55 63 -105 183 -61 258
c25 43 109 64 152 54zM524 712c0 -13 -28 -57 -42 -57c-20 0 -50 0 -50 25c0 7 42 43 49 49c49 39 43 6 43 -17z" />
    <glyph glyph-name="edotaccent" unicode="&#x117;" horiz-adv-x="319"
d="M310 195c-36 -53 -131 -91 -176 -95c-15 -1 -22 13 -7 14c32 3 88 35 125 65c17 13 47 43 45 65c-1 28 -37 13 -51 6c-59 -27 -145 -110 -167 -183c-25 -84 52 -85 117 -59c74 30 138 84 174 139c4 5 9 5 11 3c5 -2 5 -7 1 -12c-40 -66 -103 -121 -173 -150
c-102 -41 -230 0 -175 126c30 68 185 199 260 174c41 -14 35 -65 16 -93zM334 407c0 -9 -19 -39 -28 -39c-14 0 -34 0 -34 17c0 4 28 29 33 33c34 26 29 5 29 -11z" />
    <glyph glyph-name="Ecaron" unicode="&#x11a;" horiz-adv-x="525"
d="M452 589c35 -9 60 -35 83 -56c7 -8 17 -18 29 -21c5 -3 13 -2 18 -5c12 -10 19 -32 25 -47c14 -33 5 -123 -25 -87c-16 20 -18 55 -31 81c-16 34 -34 64 -60 86c-15 14 -49 35 -85 22c-104 -43 -60 -219 -15 -278c6 -7 41 -9 53 -10c36 -4 36 -29 17 -40
c-20 -11 -66 6 -90 11c-100 -2 -301 -77 -304 -197c-1 -54 37 -98 149 -98c108 0 256 42 321 75c54 28 175 118 160 180c-1 5 9 5 12 2c53 -77 -57 -167 -119 -202c-83 -47 -246 -80 -339 -80c-111 0 -227 32 -227 153c0 167 228 194 337 199c-55 63 -105 183 -61 258
c25 43 109 64 152 54zM417 725c-6 10 -5 30 10 15c13 -11 73 -58 84 -71c33 20 58 45 90 66c29 19 19 -6 8 -15c-18 -13 -92 -86 -110 -87c-20 7 -63 65 -82 92z" />
    <glyph glyph-name="ecaron" unicode="&#x11b;" horiz-adv-x="319"
d="M310 195c-36 -53 -131 -91 -176 -95c-15 -1 -22 13 -7 14c32 3 88 35 125 65c17 13 47 43 45 65c-1 28 -37 13 -51 6c-59 -27 -145 -110 -167 -183c-25 -84 52 -85 117 -59c74 30 138 84 174 139c4 5 9 5 11 3c5 -2 5 -7 1 -12c-40 -66 -103 -121 -173 -150
c-102 -41 -230 0 -175 126c30 68 185 199 260 174c41 -14 35 -65 16 -93zM224 457c-7 10 -5 30 10 15c12 -12 72 -59 83 -72c33 20 58 45 90 67c29 18 19 -7 8 -15c-18 -14 -91 -87 -110 -88c-20 8 -63 65 -81 93z" />
    <glyph glyph-name="Eogonek" unicode="&#x118;" horiz-adv-x="525"
d="M255 -228c21 20 26 2 12 -13c-15 -17 -87 -125 -167 -125c-21 0 -49 14 -64 34c-37 46 3 112 66 156c54 38 119 78 155 101h-6c-111 0 -227 32 -227 153c0 167 228 194 337 199c-55 63 -105 183 -61 258c25 43 109 64 152 54c35 -9 60 -35 83 -56c7 -8 17 -18 29 -21
c5 -3 13 -2 18 -5c12 -10 19 -32 25 -47c14 -33 5 -123 -25 -87c-16 20 -18 55 -31 81c-16 34 -34 64 -60 86c-15 14 -49 35 -85 22c-104 -43 -60 -219 -15 -278c6 -7 41 -9 53 -10c36 -4 36 -29 17 -40c-20 -11 -66 6 -90 11c-100 -2 -301 -77 -304 -197
c-1 -54 37 -98 149 -98c108 0 256 42 321 75c54 28 175 118 160 180c-1 5 9 5 12 2c53 -77 -57 -167 -119 -202c-71 -40 -201 -70 -295 -77c-39 -38 -93 -60 -143 -105c-28 -26 -111 -121 -80 -165c24 -35 160 96 183 114z" />
    <glyph glyph-name="eogonek" unicode="&#x119;" horiz-adv-x="319"
d="M76 -156c18 16 21 3 10 -10c-12 -14 -71 -101 -136 -101c-16 0 -39 11 -51 27c-30 38 2 92 53 127c47 32 104 67 133 86c2 2 5 4 9 4c-58 12 -94 58 -60 137c30 68 185 199 260 174c41 -14 35 -65 16 -93c-36 -53 -131 -91 -176 -95c-15 -1 -22 13 -7 14
c32 3 88 35 125 65c17 13 47 43 45 65c-1 28 -37 13 -51 6c-59 -27 -145 -110 -167 -183c-25 -84 52 -85 117 -59c74 30 138 84 174 139c4 5 9 5 11 3c5 -2 5 -7 1 -12c-40 -66 -103 -121 -173 -150c-33 -13 -67 -18 -98 -14v-1c-31 -31 -76 -49 -119 -88
c-22 -21 -90 -97 -65 -133c20 -29 130 78 149 92z" />
    <glyph glyph-name="gcommaaccent" unicode="&#x123;" horiz-adv-x="416"
d="M307 393c0 14 22 45 44 72c26 34 55 63 63 68c11 7 11 -3 11 -6c0 -2 -10 -14 -23 -28c-18 -22 -36 -46 -45 -76c-11 -34 12 -29 4 -53c-4 -12 -22 -10 -27 -10c-17 0 -27 22 -27 33zM275 -50c-43 -88 -83 -171 -114 -220c-37 -55 -96 -122 -164 -110c-7 2 -15 4 -20 7
c-63 31 -33 91 20 153c50 58 154 127 219 170c46 94 85 187 100 233c-27 -33 -65 -78 -80 -94c-37 -41 -95 -100 -145 -100c-21 0 -49 14 -64 34c-73 94 154 244 229 262c29 8 74 10 100 -8c10 -7 18 -17 18 -27c0 -7 -3 -7 -8 -5c-10 17 -30 19 -49 19
c-52 0 -122 -40 -173 -86c-30 -26 -112 -121 -80 -165c11 -16 58 10 98 41c63 49 128 118 165 163c9 23 72 -4 67 -15c-25 -55 -62 -129 -99 -208c26 14 114 86 176 158c26 30 31 6 5 -24c-44 -50 -162 -156 -201 -178zM197 -88c-52 -39 -125 -95 -177 -148
c-40 -40 -65 -100 -33 -117c9 -5 24 -2 48 17c76 63 120 163 162 248z" />
    <glyph glyph-name="Iogonek" unicode="&#x12e;" horiz-adv-x="312"
d="M240 68c79 105 139 334 170 455c-108 -9 -218 -45 -214 -120c3 -38 44 -50 60 -60c11 -8 8 -13 -2 -10c-24 5 -78 37 -79 84c0 1 -3 8 -3 12c-6 101 127 139 249 139c0 4 1 6 3 10c3 14 57 17 55 0c-2 -4 -4 -8 -5 -13c43 -3 81 -13 107 -26c15 -7 54 -49 -6 -29
c-26 9 -69 14 -115 14c-40 -122 -113 -360 -201 -472c-13 -15 -25 -29 -38 -39c73 -1 136 1 178 4c33 2 7 -20 1 -24c-10 -5 -110 -9 -204 -11c-37 -30 -84 -52 -127 -92c-29 -26 -112 -121 -80 -165c23 -35 160 97 182 114c21 20 26 3 13 -12c-15 -18 -88 -125 -168 -125
c-21 0 -49 13 -64 33c-37 47 3 113 67 157c45 32 98 65 136 88c-55 -1 -101 -1 -118 -1c-26 1 -37 9 -23 43c10 23 45 26 56 17c40 -30 111 -49 170 29z" />
    <glyph glyph-name="iogonek" unicode="&#x12f;"
d="M55 -146c17 16 21 3 10 -10c-13 -14 -71 -101 -136 -101c-17 0 -39 11 -52 27c-30 38 3 92 54 127c46 32 103 67 131 86c-12 5 -22 15 -27 32c-8 23 9 77 30 123c-9 -11 -18 -26 -39 -50c-10 -11 -20 2 -11 14c35 43 62 80 77 103c-1 3 -1 7 2 13c11 31 21 56 35 59
c13 1 30 -2 35 -12c6 -12 -5 -31 -20 -62c-30 -60 -57 -113 -60 -145c-7 -43 13 -66 46 -49c32 18 107 81 149 139c5 7 17 1 12 -8c-19 -35 -80 -101 -130 -137c-19 -14 -50 -26 -77 -25c-30 -28 -73 -45 -113 -83c-22 -21 -90 -97 -65 -133c20 -29 130 78 149 92zM207 378
c0 -11 -23 -49 -33 -49c-18 0 -43 0 -43 21c0 5 54 45 60 50c41 33 16 -2 16 -22z" />
    <glyph glyph-name="Imacron" unicode="&#x12a;" horiz-adv-x="312"
d="M240 68c79 105 139 334 170 455c-108 -9 -218 -45 -214 -120c3 -38 44 -50 60 -60c11 -8 8 -13 -2 -10c-24 5 -78 37 -79 84c0 1 -3 8 -3 12c-6 101 127 139 249 139c0 4 1 6 3 10c3 14 57 17 55 0c-2 -4 -4 -8 -5 -13c43 -3 81 -13 107 -26c15 -7 54 -49 -6 -29
c-26 9 -69 14 -115 14c-40 -122 -113 -360 -201 -472c-13 -15 -25 -29 -38 -39c73 -1 136 1 178 4c33 2 7 -20 1 -24c-18 -9 -316 -15 -363 -14c-26 1 -37 9 -23 43c10 23 45 26 56 17c40 -30 111 -49 170 29zM539 658c-48 -4 -125 -8 -159 -9c-46 -2 -11 36 9 36
c22 0 107 2 148 2c33 0 54 -7 55 -13c0 -12 -46 -15 -53 -16z" />
    <glyph glyph-name="imacron" unicode="&#x12b;"
d="M291 140c-19 -35 -80 -101 -130 -137c-32 -24 -106 -48 -126 12c-8 23 9 77 30 123c-9 -11 -18 -26 -39 -50c-10 -11 -20 2 -11 14c35 43 62 80 77 103c-1 3 -1 7 2 13c11 31 21 56 35 59c13 1 30 -2 35 -12c6 -12 -5 -31 -20 -62c-30 -60 -57 -113 -60 -145
c-7 -43 13 -66 46 -49c32 18 107 81 149 139c5 7 17 1 12 -8zM250 378c-48 -4 -125 -8 -159 -9c-46 -2 -11 36 9 36c22 0 107 2 149 2c32 0 53 -7 55 -13c0 -12 -47 -15 -54 -16z" />
    <glyph glyph-name="Kcommaaccent" unicode="&#x136;" horiz-adv-x="529"
d="M241 465c-39 -35 -89 -51 -130 -55c-15 -1 -15 15 0 17c58 6 128 67 159 138c4 15 67 19 64 0c-54 -131 -100 -266 -163 -393c25 31 54 63 90 102c-1 15 0 28 1 39c3 11 17 31 22 6c0 -5 1 -10 2 -15l1 3c32 36 299 260 330 275c83 38 102 -17 58 -38
c-15 -7 -120 -64 -203 -119c-90 -61 -160 -121 -180 -143c29 -105 50 -155 119 -240c30 -37 64 -60 90 -60c49 0 25 56 9 80c-14 21 7 17 19 6c7 -8 22 -35 22 -53c-1 -41 -52 -60 -77 -60c-127 0 -185 162 -209 293c-58 -68 -119 -141 -154 -189
c-59 -96 -125 -174 -197 -196c-33 -11 -60 -11 -84 -4c-28 9 -46 28 -55 58c-5 17 7 42 17 5c7 -20 19 -32 38 -37c16 -3 46 -7 67 0c79 25 145 109 200 210c62 117 107 245 144 370zM201 -108c0 -14 -21 -45 -44 -73c-26 -34 -55 -62 -62 -67c-11 -8 -11 2 -11 6
c0 1 10 14 22 27c19 23 36 47 45 77c11 33 -11 28 -4 52c4 13 23 10 28 10c16 0 26 -21 26 -32z" />
    <glyph glyph-name="Lcommaaccent" unicode="&#x13b;" horiz-adv-x="471"
d="M212 84l22 6c26 77 46 150 55 178c33 106 66 199 107 245c115 130 239 80 239 -38c0 -175 -194 -332 -359 -390c-17 -40 -36 -81 -57 -117c108 -70 236 -155 381 -143c61 5 154 47 112 124c-8 18 12 20 20 4c14 -29 17 -55 15 -80c-1 -48 -47 -94 -126 -100
c-171 -14 -301 99 -412 179c-33 -57 -68 -95 -98 -90c-11 2 -7 13 0 13c24 2 50 40 74 93c-33 22 -64 40 -94 50c-25 -10 -55 -15 -64 -13c-22 8 -25 39 9 49c15 5 63 -17 108 0c6 3 23 3 6 -9c-9 -5 -38 -7 -46 -11c10 -4 26 -12 35 -17l53 -33c12 28 24 56 34 88
c-4 -2 -9 -3 -12 -3c-22 -4 -15 11 -2 15zM335 240c-9 -25 -25 -73 -48 -127c144 65 273 185 303 342c11 59 1 115 -53 115c-118 0 -176 -248 -202 -330zM282 -197c0 -14 -21 -45 -43 -73c-27 -33 -55 -62 -63 -67c-11 -8 -11 2 -11 6c0 1 10 14 22 28c19 22 37 46 45 76
c12 34 -11 29 -3 52c3 13 22 10 27 10c16 0 26 -21 26 -32z" />
    <glyph glyph-name="lcommaaccent" unicode="&#x13c;" horiz-adv-x="211"
d="M132 237c-11 -23 -20 -47 -28 -69c98 67 230 240 283 342c27 49 4 72 -40 39c-61 -47 -112 -119 -155 -196c-11 -20 -37 -71 -60 -116zM89 128c-7 -20 -12 -36 -13 -46c-6 -49 8 -103 66 -70c39 21 113 88 147 136c5 7 17 1 11 -10c-20 -35 -83 -101 -133 -138
c-20 -15 -43 -22 -62 -22c-60 0 -78 34 -76 80c6 100 127 339 192 425c38 49 83 109 151 109c45 0 78 -35 42 -100c-82 -143 -200 -260 -325 -364zM81 -97c0 -14 -21 -45 -44 -73c-26 -33 -55 -62 -62 -67c-11 -8 -11 2 -11 6c0 1 10 14 22 28c19 22 36 46 45 76
c11 34 -11 29 -4 52c4 13 23 10 28 10c16 0 26 -21 26 -32z" />
    <glyph glyph-name="Lcaron" unicode="&#x13d;" horiz-adv-x="471"
d="M212 84l22 6c26 77 46 150 55 178c33 106 66 199 107 245c115 130 239 80 239 -38c0 -175 -194 -332 -359 -390c-17 -40 -36 -81 -57 -117c108 -70 236 -155 381 -143c61 5 154 47 112 124c-8 18 12 20 20 4c14 -29 17 -55 15 -80c-1 -48 -47 -94 -126 -100
c-171 -14 -301 99 -412 179c-33 -57 -68 -95 -98 -90c-11 2 -7 13 0 13c24 2 50 40 74 93c-33 22 -64 40 -94 50c-25 -10 -55 -15 -64 -13c-22 8 -25 39 9 49c15 5 63 -17 108 0c6 3 23 3 6 -9c-9 -5 -38 -7 -46 -11c10 -4 26 -12 35 -17l53 -33c12 28 24 56 34 88
c-4 -2 -9 -3 -12 -3c-22 -4 -15 11 -2 15zM335 240c-9 -25 -25 -73 -48 -127c144 65 273 185 303 342c11 59 1 115 -53 115c-118 0 -176 -248 -202 -330zM770 530c0 -13 -20 -45 -43 -72c-27 -33 -56 -63 -63 -68c-12 -7 -12 3 -12 7c0 1 12 15 23 27c20 23 37 48 46 76
c11 34 -7 29 -5 53c8 10 23 10 28 10c16 0 26 -21 26 -33z" />
    <glyph glyph-name="lcaron" unicode="&#x13e;" horiz-adv-x="446"
d="M132 237c-11 -23 -20 -47 -28 -69c98 67 230 240 283 342c27 49 4 72 -40 39c-61 -47 -112 -119 -155 -196c-11 -20 -37 -71 -60 -116zM89 128c-7 -20 -12 -36 -13 -46c-6 -49 8 -103 66 -70c39 21 113 88 147 136c5 7 17 1 11 -10c-20 -35 -83 -101 -133 -138
c-20 -15 -43 -22 -62 -22c-60 0 -78 34 -76 80c6 100 127 339 192 425c38 49 83 109 151 109c45 0 78 -35 42 -100c-82 -143 -200 -260 -325 -364zM531 525c0 -13 -20 -45 -42 -72c-28 -33 -57 -63 -64 -68c-11 -7 -11 3 -11 7c0 1 11 15 22 27c20 23 38 48 46 76
c12 34 -7 29 -5 53c8 10 23 10 28 10c16 0 26 -21 26 -33z" />
    <glyph glyph-name="Lacute" unicode="&#x139;" horiz-adv-x="471"
d="M212 84l22 6c26 77 46 150 55 178c33 106 66 199 107 245c115 130 239 80 239 -38c0 -175 -194 -332 -359 -390c-17 -40 -36 -81 -57 -117c108 -70 236 -155 381 -143c61 5 154 47 112 124c-8 18 12 20 20 4c14 -29 17 -55 15 -80c-1 -48 -47 -94 -126 -100
c-171 -14 -301 99 -412 179c-33 -57 -68 -95 -98 -90c-11 2 -7 13 0 13c24 2 50 40 74 93c-33 22 -64 40 -94 50c-25 -10 -55 -15 -64 -13c-22 8 -25 39 9 49c15 5 63 -17 108 0c6 3 23 3 6 -9c-9 -5 -38 -7 -46 -11c10 -4 26 -12 35 -17l53 -33c12 28 24 56 34 88
c-4 -2 -9 -3 -12 -3c-22 -4 -15 11 -2 15zM335 240c-9 -25 -25 -73 -48 -127c144 65 273 185 303 342c11 59 1 115 -53 115c-118 0 -176 -248 -202 -330zM710 715l-1 -1c-22 -17 -143 -75 -160 -76c-13 0 -8 7 -4 11c1 3 44 30 55 39c26 22 56 39 75 64c11 5 24 -3 29 -4
c13 -9 13 -26 6 -33z" />
    <glyph glyph-name="lacute" unicode="&#x13a;" horiz-adv-x="211"
d="M132 237c-11 -23 -20 -47 -28 -69c98 67 230 240 283 342c27 49 4 72 -40 39c-61 -47 -112 -119 -155 -196c-11 -20 -37 -71 -60 -116zM89 128c-7 -20 -12 -36 -13 -46c-6 -49 8 -103 66 -70c39 21 113 88 147 136c5 7 17 1 11 -10c-20 -35 -83 -101 -133 -138
c-20 -15 -43 -22 -62 -22c-60 0 -78 34 -76 80c6 100 127 339 192 425c38 49 83 109 151 109c45 0 78 -35 42 -100c-82 -143 -200 -260 -325 -364zM551 719l-1 -1c-21 -18 -143 -75 -160 -76c-13 0 -8 7 -4 11c1 2 44 30 55 39c26 22 56 38 75 63c11 5 24 -2 29 -3
c14 -9 14 -27 6 -33z" />
    <glyph glyph-name="Ncommaaccent" unicode="&#x145;" horiz-adv-x="520"
d="M266 442c-39 -35 -89 -52 -130 -55c-15 -2 -14 15 1 17c58 6 128 68 158 139c5 15 69 19 65 0c-6 -15 -9 -53 -11 -71c-14 -94 20 -505 151 -505c129 0 220 397 199 520c-7 36 -17 58 -27 87c-2 5 14 18 19 19c43 0 64 -90 98 -121c11 -10 17 -12 25 -12c3 0 7 3 12 3
c8 0 10 -4 11 -10c0 -11 -12 -19 -22 -20c-8 0 -15 2 -21 6c-17 8 -30 18 -43 29c13 -178 -117 -535 -259 -535c-158 0 -196 272 -196 450c-41 -108 -79 -200 -132 -298c-60 -106 -129 -195 -204 -218c-31 -10 -58 -10 -80 -4c-26 9 -44 26 -51 56c-5 16 6 40 16 4
c5 -18 16 -29 35 -34c16 -5 44 -7 64 0c75 23 137 104 190 201c58 112 95 227 132 352zM345 -128c0 -14 -21 -45 -44 -73c-26 -34 -55 -62 -62 -67c-12 -8 -12 2 -12 6c0 1 10 14 23 27c19 23 36 47 45 77c11 33 -11 28 -4 52c4 13 23 10 28 10c16 0 26 -21 26 -32z" />
    <glyph glyph-name="ncommaaccent" unicode="&#x146;" horiz-adv-x="409"
d="M266 193c18 32 14 57 -59 -6c-57 -52 -141 -184 -160 -195c-10 -5 -63 -29 -53 -10c8 20 67 191 87 246c5 12 1 59 53 45c16 -4 15 -13 7 -29c-25 -55 -57 -144 -69 -176c42 52 129 146 184 189c58 43 100 36 80 -24c-11 -34 -34 -65 -47 -99c-13 -30 -20 -57 -23 -76
c-6 -43 14 -66 46 -49c32 18 108 81 149 139c5 7 18 1 13 -8c-19 -35 -80 -101 -130 -137c-19 -14 -52 -28 -80 -25c-105 10 -23 169 2 215zM172 -108c0 -14 -21 -45 -43 -73c-27 -34 -55 -62 -63 -67c-11 -8 -11 2 -11 6c0 1 10 14 22 27c19 23 37 47 45 77
c12 33 -11 28 -3 52c3 13 22 10 27 10c16 0 26 -21 26 -32z" />
    <glyph glyph-name="Nacute" unicode="&#x143;" horiz-adv-x="520"
d="M266 442c-39 -35 -89 -52 -130 -55c-15 -2 -14 15 1 17c58 6 128 68 158 139c5 15 69 19 65 0c-6 -15 -9 -53 -11 -71c-14 -94 20 -505 151 -505c129 0 220 397 199 520c-7 36 -17 58 -27 87c-2 5 14 18 19 19c43 0 64 -90 98 -121c11 -10 17 -12 25 -12c3 0 7 3 12 3
c8 0 10 -4 11 -10c0 -11 -12 -19 -22 -20c-8 0 -15 2 -21 6c-17 8 -30 18 -43 29c13 -178 -117 -535 -259 -535c-158 0 -196 272 -196 450c-41 -108 -79 -200 -132 -298c-60 -106 -129 -195 -204 -218c-31 -10 -58 -10 -80 -4c-26 9 -44 26 -51 56c-5 16 6 40 16 4
c5 -18 16 -29 35 -34c16 -5 44 -7 64 0c75 23 137 104 190 201c58 112 95 227 132 352zM662 677l-1 -2c-21 -17 -142 -75 -160 -76c-12 0 -7 8 -4 11c2 3 44 30 55 39c27 23 57 39 75 64c12 5 24 -3 29 -4c14 -9 14 -26 6 -32z" />
    <glyph glyph-name="nacute" unicode="&#x144;" horiz-adv-x="409"
d="M266 193c18 32 14 57 -59 -6c-57 -52 -141 -184 -160 -195c-10 -5 -63 -29 -53 -10c8 20 67 191 87 246c5 12 1 59 53 45c16 -4 15 -13 7 -29c-25 -55 -57 -144 -69 -176c42 52 129 146 184 189c58 43 100 36 80 -24c-11 -34 -34 -65 -47 -99c-13 -30 -20 -57 -23 -76
c-6 -43 14 -66 46 -49c32 18 108 81 149 139c5 7 18 1 13 -8c-19 -35 -80 -101 -130 -137c-19 -14 -52 -28 -80 -25c-105 10 -23 169 2 215zM401 435l-1 -1c-21 -17 -143 -75 -160 -76c-13 0 -8 7 -4 11c1 3 44 30 55 39c26 22 56 39 75 64c11 5 24 -3 29 -4
c14 -9 14 -26 6 -33z" />
    <glyph glyph-name="Ncaron" unicode="&#x147;" horiz-adv-x="520"
d="M266 442c-39 -35 -89 -52 -130 -55c-15 -2 -14 15 1 17c58 6 128 68 158 139c5 15 69 19 65 0c-6 -15 -9 -53 -11 -71c-14 -94 20 -505 151 -505c129 0 220 397 199 520c-7 36 -17 58 -27 87c-2 5 14 18 19 19c43 0 64 -90 98 -121c11 -10 17 -12 25 -12c3 0 7 3 12 3
c8 0 10 -4 11 -10c0 -11 -12 -19 -22 -20c-8 0 -15 2 -21 6c-17 8 -30 18 -43 29c13 -178 -117 -535 -259 -535c-158 0 -196 272 -196 450c-41 -108 -79 -200 -132 -298c-60 -106 -129 -195 -204 -218c-31 -10 -58 -10 -80 -4c-26 9 -44 26 -51 56c-5 16 6 40 16 4
c5 -18 16 -29 35 -34c16 -5 44 -7 64 0c75 23 137 104 190 201c58 112 95 227 132 352zM455 689c-6 10 -5 30 10 15c12 -11 72 -59 84 -71c32 20 57 45 90 66c28 19 18 -6 7 -15c-17 -14 -91 -86 -110 -87c-20 7 -62 65 -81 92z" />
    <glyph glyph-name="ncaron" unicode="&#x148;" horiz-adv-x="409"
d="M266 193c18 32 14 57 -59 -6c-57 -52 -141 -184 -160 -195c-10 -5 -63 -29 -53 -10c8 20 67 191 87 246c5 12 1 59 53 45c16 -4 15 -13 7 -29c-25 -55 -57 -144 -69 -176c42 52 129 146 184 189c58 43 100 36 80 -24c-11 -34 -34 -65 -47 -99c-13 -30 -20 -57 -23 -76
c-6 -43 14 -66 46 -49c32 18 108 81 149 139c5 7 18 1 13 -8c-19 -35 -80 -101 -130 -137c-19 -14 -52 -28 -80 -25c-105 10 -23 169 2 215zM182 454c-6 10 -5 30 10 15c13 -11 73 -59 84 -71c33 20 58 45 90 66c29 19 19 -6 8 -15c-18 -14 -92 -86 -110 -87
c-20 7 -63 65 -82 92z" />
    <glyph glyph-name="Ohungarumlaut" unicode="&#x150;" horiz-adv-x="614"
d="M717 337c0 -210 -176 -377 -332 -413c-348 -81 -396 460 -44 543c39 8 94 10 126 -23c14 -15 12 -19 8 -19s-10 5 -16 8c-20 7 -45 9 -63 5c-292 -69 -366 -571 -22 -491c136 31 297 252 293 426c-3 137 -93 202 -230 192c-76 -5 -152 -37 -205 -75
c-90 -63 -161 -165 -168 -260c-2 -23 -18 -3 -18 15c-1 100 64 199 156 265c67 48 160 79 238 80c160 0 277 -91 277 -253zM592 737c-15 -27 -35 -54 -57 -94c-11 -20 -25 -14 -16 4c11 25 31 87 35 95c11 33 3 58 48 58c37 0 -1 -48 -10 -63zM480 737
c-15 -27 -34 -54 -56 -94c-12 -20 -27 -14 -18 4c13 25 33 87 35 95c11 33 5 58 49 58c37 0 -1 -48 -10 -63z" />
    <glyph glyph-name="ohungarumlaut" unicode="&#x151;" horiz-adv-x="351"
d="M225 72c-1 2 -3 3 -3 6c-6 21 8 37 25 32c27 54 19 75 14 87c-11 28 33 38 41 11c14 -41 -21 -103 -43 -134c1 -19 12 -27 25 -27c32 0 65 37 85 58c12 14 25 29 35 43c5 7 17 1 12 -8c-6 -12 -19 -28 -34 -46c-22 -27 -62 -70 -101 -70c-17 0 -34 10 -41 25
c-13 -14 -26 -27 -39 -39c-45 -38 -99 -41 -132 -20c-33 20 -45 67 -27 129c10 38 43 91 88 131c37 33 82 49 112 38c18 -6 33 -23 29 -48c-2 -16 -17 -15 -17 -7c2 11 0 27 -19 27c-44 0 -140 -102 -156 -193c-7 -39 5 -73 42 -73c31 0 74 33 104 78zM355 442
c-13 -20 -28 -42 -45 -73c-9 -16 -20 -11 -13 3c9 20 24 68 28 73c9 28 2 47 37 47c29 0 -1 -38 -7 -50zM266 442c-11 -20 -26 -42 -44 -73c-8 -16 -20 -11 -13 3c10 20 26 68 27 73c9 28 4 47 39 47c29 0 -1 -38 -9 -50z" />
    <glyph glyph-name="Omacron" unicode="&#x14c;" horiz-adv-x="614"
d="M717 337c0 -210 -176 -377 -332 -413c-348 -81 -396 460 -44 543c39 8 94 10 126 -23c14 -15 12 -19 8 -19s-10 5 -16 8c-20 7 -45 9 -63 5c-292 -69 -366 -571 -22 -491c136 31 297 252 293 426c-3 137 -93 202 -230 192c-76 -5 -152 -37 -205 -75
c-90 -63 -161 -165 -168 -260c-2 -23 -18 -3 -18 15c-1 100 64 199 156 265c67 48 160 79 238 80c160 0 277 -91 277 -253zM582 657c-47 -4 -125 -8 -158 -9c-47 -3 -12 36 8 36c23 0 108 1 149 1c33 0 54 -6 55 -12c0 -13 -46 -15 -54 -16z" />
    <glyph glyph-name="omacron" unicode="&#x14d;" horiz-adv-x="351"
d="M225 72c-1 2 -3 3 -3 6c-6 21 8 37 25 32c27 54 19 75 14 87c-11 28 33 38 41 11c14 -41 -21 -103 -43 -134c1 -19 12 -27 25 -27c32 0 65 37 85 58c12 14 25 29 35 43c5 7 17 1 12 -8c-6 -12 -19 -28 -34 -46c-22 -27 -62 -70 -101 -70c-17 0 -34 10 -41 25
c-13 -14 -26 -27 -39 -39c-45 -38 -99 -41 -132 -20c-33 20 -45 67 -27 129c10 38 43 91 88 131c37 33 82 49 112 38c18 -6 33 -23 29 -48c-2 -16 -17 -15 -17 -7c2 11 0 27 -19 27c-44 0 -140 -102 -156 -193c-7 -39 5 -73 42 -73c31 0 74 33 104 78zM332 372
c-47 -4 -125 -8 -158 -9c-47 -3 -12 36 8 36c23 0 108 1 149 1c33 0 54 -6 55 -12c0 -13 -46 -15 -54 -16z" />
    <glyph glyph-name="Racute" unicode="&#x154;" horiz-adv-x="495"
d="M280 193c114 -140 219 -299 414 -335c61 -11 158 10 140 95c-4 20 16 16 20 -1c6 -32 1 -58 -7 -80c-15 -47 -92 -78 -170 -63c-227 44 -336 268 -420 378c-3 5 -7 1 -7 1c-30 -56 -55 -109 -68 -138c-23 -57 10 -53 33 -26c15 18 29 35 37 34c5 -5 -12 -25 -13 -26
c-15 -22 -43 -70 -70 -70c-5 0 -38 5 -39 12c-5 38 40 131 82 214c-10 1 -18 4 -22 6c-20 13 -13 45 21 45c6 0 18 -4 24 -9c21 40 41 75 50 94c12 25 9 35 7 41c5 33 77 119 129 119c10 0 50 -10 56 -34c5 -16 -6 -6 -11 -6c-57 0 -137 -117 -200 -227c9 -4 24 -7 43 -4
c126 14 275 62 351 141c59 61 45 138 -56 168c-162 45 -518 -4 -545 -167c-8 -48 45 -61 65 -73c12 -9 6 -17 -7 -14c-31 5 -96 44 -83 105c0 1 -2 11 -2 16c12 63 92 115 147 143c101 48 281 70 422 25c78 -27 123 -84 118 -142c-9 -110 -149 -173 -277 -202
c-52 -11 -112 -18 -162 -20zM620 702l-1 -2c-22 -17 -143 -75 -160 -76c-13 0 -8 8 -4 11c1 3 44 30 55 39c26 23 56 39 75 64c11 5 24 -3 29 -4c13 -9 13 -26 6 -32z" />
    <glyph glyph-name="racute" unicode="&#x155;" horiz-adv-x="307"
d="M46 113c-10 -13 -27 -8 -12 11c36 44 67 91 93 141c-15 2 -25 12 -21 24c9 30 51 71 81 85c29 13 50 24 23 -25l-39 -62c34 -2 69 -4 105 -2c60 3 36 -31 1 -71c-45 -52 -78 -117 -90 -149c-16 -45 -1 -73 32 -56c32 18 107 81 148 139c5 7 18 1 13 -8
c-19 -35 -80 -101 -130 -137c-18 -14 -50 -28 -78 -28c-22 0 -41 9 -48 37c-18 65 48 138 85 176c15 17 61 61 -8 72c-16 3 -30 5 -45 5c-36 -51 -70 -103 -110 -152zM441 475l-1 -1c-21 -17 -143 -75 -160 -76c-13 0 -8 7 -4 11c1 3 44 30 55 39c26 22 56 39 75 64
c11 5 24 -3 29 -4c14 -9 14 -26 6 -33z" />
    <glyph glyph-name="Rcaron" unicode="&#x158;" horiz-adv-x="495"
d="M280 193c114 -140 219 -299 414 -335c61 -11 158 10 140 95c-4 20 16 16 20 -1c6 -32 1 -58 -7 -80c-15 -47 -92 -78 -170 -63c-227 44 -336 268 -420 378c-3 5 -7 1 -7 1c-30 -56 -55 -109 -68 -138c-23 -57 10 -53 33 -26c15 18 29 35 37 34c5 -5 -12 -25 -13 -26
c-15 -22 -43 -70 -70 -70c-5 0 -38 5 -39 12c-5 38 40 131 82 214c-10 1 -18 4 -22 6c-20 13 -13 45 21 45c6 0 18 -4 24 -9c21 40 41 75 50 94c12 25 9 35 7 41c5 33 77 119 129 119c10 0 50 -10 56 -34c5 -16 -6 -6 -11 -6c-57 0 -137 -117 -200 -227c9 -4 24 -7 43 -4
c126 14 275 62 351 141c59 61 45 138 -56 168c-162 45 -518 -4 -545 -167c-8 -48 45 -61 65 -73c12 -9 6 -17 -7 -14c-31 5 -96 44 -83 105c0 1 -2 11 -2 16c12 63 92 115 147 143c101 48 281 70 422 25c78 -27 123 -84 118 -142c-9 -110 -149 -173 -277 -202
c-52 -11 -112 -18 -162 -20zM416 712c-6 10 -5 30 10 15c13 -12 73 -59 84 -72c32 20 57 45 90 67c29 18 19 -7 7 -15c-17 -14 -91 -87 -110 -88c-20 8 -62 65 -81 93z" />
    <glyph glyph-name="rcaron" unicode="&#x159;" horiz-adv-x="307"
d="M46 113c-10 -13 -27 -8 -12 11c36 44 67 91 93 141c-15 2 -25 12 -21 24c9 30 51 71 81 85c29 13 50 24 23 -25l-39 -62c34 -2 69 -4 105 -2c60 3 36 -31 1 -71c-45 -52 -78 -117 -90 -149c-16 -45 -1 -73 32 -56c32 18 107 81 148 139c5 7 18 1 13 -8
c-19 -35 -80 -101 -130 -137c-18 -14 -50 -28 -78 -28c-22 0 -41 9 -48 37c-18 65 48 138 85 176c15 17 61 61 -8 72c-16 3 -30 5 -45 5c-36 -51 -70 -103 -110 -152zM196 478c-6 10 -5 30 10 15c13 -11 73 -59 84 -71c32 20 57 45 90 66c29 19 19 -6 7 -15
c-17 -14 -91 -86 -110 -88c-20 8 -62 65 -81 93z" />
    <glyph glyph-name="Rcommaaccent" unicode="&#x156;" horiz-adv-x="495"
d="M280 193c114 -140 219 -299 414 -335c61 -11 158 10 140 95c-4 20 16 16 20 -1c6 -32 1 -58 -7 -80c-15 -47 -92 -78 -170 -63c-227 44 -336 268 -420 378c-3 5 -7 1 -7 1c-30 -56 -55 -109 -68 -138c-23 -57 10 -53 33 -26c15 18 29 35 37 34c5 -5 -12 -25 -13 -26
c-15 -22 -43 -70 -70 -70c-5 0 -38 5 -39 12c-5 38 40 131 82 214c-10 1 -18 4 -22 6c-20 13 -13 45 21 45c6 0 18 -4 24 -9c21 40 41 75 50 94c12 25 9 35 7 41c5 33 77 119 129 119c10 0 50 -10 56 -34c5 -16 -6 -6 -11 -6c-57 0 -137 -117 -200 -227c9 -4 24 -7 43 -4
c126 14 275 62 351 141c59 61 45 138 -56 168c-162 45 -518 -4 -545 -167c-8 -48 45 -61 65 -73c12 -9 6 -17 -7 -14c-31 5 -96 44 -83 105c0 1 -2 11 -2 16c12 63 92 115 147 143c101 48 281 70 422 25c78 -27 123 -84 118 -142c-9 -110 -149 -173 -277 -202
c-52 -11 -112 -18 -162 -20zM307 -108c0 -14 -21 -45 -43 -73c-27 -34 -55 -62 -63 -67c-11 -8 -11 2 -11 6c0 1 10 14 22 27c19 23 37 47 45 77c12 33 -11 28 -3 52c3 13 22 10 27 10c16 0 26 -21 26 -32z" />
    <glyph glyph-name="rcommaaccent" unicode="&#x157;" horiz-adv-x="307"
d="M46 113c-10 -13 -27 -8 -12 11c36 44 67 91 93 141c-15 2 -25 12 -21 24c9 30 51 71 81 85c29 13 50 24 23 -25l-39 -62c34 -2 69 -4 105 -2c60 3 36 -31 1 -71c-45 -52 -78 -117 -90 -149c-16 -45 -1 -73 32 -56c32 18 107 81 148 139c5 7 18 1 13 -8
c-19 -35 -80 -101 -130 -137c-18 -14 -50 -28 -78 -28c-22 0 -41 9 -48 37c-18 65 48 138 85 176c15 17 61 61 -8 72c-16 3 -30 5 -45 5c-36 -51 -70 -103 -110 -152zM102 -87c0 -14 -21 -45 -43 -73c-27 -33 -55 -62 -63 -67c-11 -8 -11 2 -11 6c0 1 10 14 22 28
c19 22 37 46 45 76c12 34 -11 29 -3 52c3 13 22 10 27 10c16 0 26 -21 26 -32z" />
    <glyph glyph-name="Scaron" unicode="&#x160;" horiz-adv-x="532"
d="M645 528c0 -18 -5 -30 -18 -51c-15 -28 -52 -55 -52 -35c0 5 44 36 44 63c0 29 -35 43 -85 43c-37 0 -130 -14 -203 -54c-80 -44 -92 -75 -31 -104c96 -45 292 -88 292 -193c0 -28 -16 -57 -46 -87c-95 -91 -266 -156 -384 -156c-93 0 -148 31 -148 90
c0 61 41 114 97 150c51 35 115 55 168 55c31 0 21 -15 -2 -15c-48 0 -113 -26 -158 -67c-89 -80 -68 -167 62 -167c68 0 146 19 176 29c73 24 158 66 187 111c101 154 -330 145 -330 274c0 110 233 169 321 169c74 0 110 -18 110 -55zM482 713c-6 10 -5 30 10 15
c13 -11 73 -59 84 -71c33 20 58 45 90 66c29 19 19 -6 8 -15c-18 -14 -92 -86 -110 -88c-20 8 -63 65 -82 93z" />
    <glyph glyph-name="scaron" unicode="&#x161;" horiz-adv-x="285"
d="M77 12c-11 -5 -21 -14 -27 -22c-15 -20 -6 -40 31 -30c50 15 124 72 124 130c0 28 -56 49 -75 62c-15 10 -28 21 -34 36c-11 -19 -27 -43 -45 -69c-9 -11 -21 -2 -14 9c29 40 47 74 54 94c10 78 141 143 213 143c45 0 85 -21 62 -68c-6 -14 -17 -25 -31 -34
c-5 -4 -18 2 -5 15c16 16 29 51 1 54c-31 2 -85 -20 -109 -32c-33 -16 -61 -37 -86 -72c-21 -29 -17 -49 11 -66c68 -40 153 -64 79 -147c-34 -38 -91 -62 -140 -73c-19 -4 -61 -10 -72 11c-7 10 2 27 13 40c10 10 29 21 48 29c7 2 9 -7 2 -10zM231 485c-6 10 -5 30 10 15
c13 -11 73 -58 84 -71c32 20 57 45 90 66c29 19 19 -6 7 -15c-17 -13 -91 -86 -110 -87c-20 7 -62 65 -81 92z" />
    <glyph glyph-name="Sacute" unicode="&#x15a;" horiz-adv-x="532"
d="M645 528c0 -18 -5 -30 -18 -51c-15 -28 -52 -55 -52 -35c0 5 44 36 44 63c0 29 -35 43 -85 43c-37 0 -130 -14 -203 -54c-80 -44 -92 -75 -31 -104c96 -45 292 -88 292 -193c0 -28 -16 -57 -46 -87c-95 -91 -266 -156 -384 -156c-93 0 -148 31 -148 90
c0 61 41 114 97 150c51 35 115 55 168 55c31 0 21 -15 -2 -15c-48 0 -113 -26 -158 -67c-89 -80 -68 -167 62 -167c68 0 146 19 176 29c73 24 158 66 187 111c101 154 -330 145 -330 274c0 110 233 169 321 169c74 0 110 -18 110 -55zM670 703l-1 -1
c-22 -18 -143 -75 -160 -77c-13 0 -8 8 -4 12c1 2 44 30 55 38c26 23 56 39 75 64c11 5 24 -2 29 -4c13 -8 13 -26 6 -32z" />
    <glyph glyph-name="sacute" unicode="&#x15b;" horiz-adv-x="285"
d="M77 12c-11 -5 -21 -14 -27 -22c-15 -20 -6 -40 31 -30c50 15 124 72 124 130c0 28 -56 49 -75 62c-15 10 -28 21 -34 36c-11 -19 -27 -43 -45 -69c-9 -11 -21 -2 -14 9c29 40 47 74 54 94c10 78 141 143 213 143c45 0 85 -21 62 -68c-6 -14 -17 -25 -31 -34
c-5 -4 -18 2 -5 15c16 16 29 51 1 54c-31 2 -85 -20 -109 -32c-33 -16 -61 -37 -86 -72c-21 -29 -17 -49 11 -66c68 -40 153 -64 79 -147c-34 -38 -91 -62 -140 -73c-19 -4 -61 -10 -72 11c-7 10 2 27 13 40c10 10 29 21 48 29c7 2 9 -7 2 -10zM427 474l-1 -1
c-21 -18 -142 -75 -160 -76c-12 0 -7 7 -4 11c2 2 44 30 55 39c27 22 57 38 75 63c12 5 24 -2 29 -3c14 -9 14 -27 6 -33z" />
    <glyph glyph-name="Tcaron" unicode="&#x164;" horiz-adv-x="251"
d="M236 24c14 18 28 35 36 34c7 -5 -11 -25 -12 -26c-16 -22 -43 -70 -70 -70c-6 0 -38 5 -39 12c-9 64 126 291 155 350c13 25 9 35 6 41c7 33 77 119 129 119c13 0 63 -14 59 -45c-4 3 -9 5 -13 5c-92 0 -245 -301 -283 -394c-24 -57 10 -53 32 -26zM664 365
c6 -8 -7 -21 -20 -5c-13 14 -14 84 8 129c5 9 18 24 24 30c-130 3 -266 29 -392 10c-120 -16 -227 -69 -245 -152c-12 -49 40 -68 60 -83c12 -9 3 -16 -9 -12c-34 10 -98 56 -76 115c0 1 0 11 1 16c21 100 142 147 271 156c154 10 328 -34 403 -35c18 20 31 30 41 31
c25 5 51 -12 29 -36c-10 -10 -32 -22 -52 -42c-35 -35 -67 -85 -43 -122zM417 699c-6 10 -5 30 10 15c13 -11 73 -59 84 -71c33 20 58 45 90 66c29 19 19 -6 8 -15c-18 -14 -92 -86 -110 -87c-20 7 -63 65 -82 92z" />
    <glyph glyph-name="tcaron" unicode="&#x165;" horiz-adv-x="461"
d="M294 287c12 0 33 -7 -9 -17c-15 -5 -66 -12 -113 -17c-13 -24 -25 -41 -28 -50c-30 -60 -57 -113 -60 -145c-7 -43 13 -66 46 -49c32 18 107 81 149 139c5 7 17 1 12 -8c-19 -35 -80 -101 -130 -137c-32 -24 -106 -48 -126 12c-8 23 9 77 30 123c-9 -11 -18 -26 -39 -50
c-10 -11 -20 2 -11 14c35 43 62 80 77 103c0 2 9 18 22 42c-10 -2 -18 -2 -23 -2c-10 0 -20 9 -14 22c8 17 34 17 53 18c1 2 2 2 4 2l50 93c25 43 27 53 41 55c15 2 34 -1 40 -10c9 -12 -3 -32 -9 -41c-5 -10 -15 -9 -21 -21l-48 -84l13 1c31 3 56 8 94 7zM444 492
c0 -14 -20 -45 -43 -73c-27 -32 -56 -62 -64 -67c-11 -8 -11 2 -11 6c0 1 11 15 23 27c20 23 37 48 46 77c11 33 -8 28 -5 52c7 10 22 10 27 10c17 0 27 -21 27 -32z" />
    <glyph glyph-name="Zcaron" unicode="&#x17d;" horiz-adv-x="549"
d="M629 542c20 20 105 73 108 26c5 -54 -68 -88 -108 -79c-69 -39 -147 -132 -225 -221c46 4 95 10 141 7c15 -1 41 -8 0 -21c-25 -7 -101 -16 -173 -21l-47 -50c-50 -51 -119 -113 -180 -148c-14 -12 -5 -23 5 -30c139 -73 275 -181 429 -165c52 7 125 48 76 125
c-10 18 7 20 16 4c18 -29 24 -56 28 -80c6 -47 -25 -95 -93 -101c-201 -20 -367 165 -512 216c-24 -12 -53 -19 -62 -15c-25 9 -32 45 -1 59c9 4 34 -6 61 -9c58 20 139 101 222 190c-38 -2 -70 -4 -84 -2c-11 0 -26 11 -26 27c0 20 42 31 55 30c16 0 20 -19 28 -20
c20 -1 40 -1 59 0c94 100 185 203 248 235c-97 30 -258 55 -355 29c-54 -14 -98 -59 -82 -89c9 -19 2 -27 -12 -10c-41 53 19 119 76 138c118 40 289 5 408 -25zM460 733c-6 10 -5 30 10 15c12 -11 72 -59 84 -71c32 20 57 45 90 66c28 19 18 -6 7 -15
c-17 -14 -91 -86 -110 -88c-20 8 -62 65 -81 93z" />
    <glyph glyph-name="zcaron" unicode="&#x17e;" horiz-adv-x="422"
d="M111 229c48 69 96 45 149 33l77 -18c14 13 75 48 78 18c2 -35 -59 -63 -86 -57c-47 -38 -118 -98 -173 -147c-6 -5 -15 -14 -26 -23l30 -15c55 -33 101 -55 151 -27c41 24 126 102 164 155c5 7 22 5 17 -4c-21 -36 -110 -127 -160 -164c-23 -17 -38 -22 -47 -25
c-53 -18 -99 0 -151 33c-10 6 -24 14 -39 19c-30 -23 -63 -40 -79 -32c-14 8 -6 54 36 68c19 6 42 4 64 -3c16 13 29 24 31 27c54 46 114 105 155 145c-33 10 -57 17 -86 21c-42 5 -66 -6 -89 -28c-22 -20 -45 -46 -62 -70c-5 -6 -15 -20 -20 -15c-4 3 -6 9 -1 17zM227 440
c-6 10 -5 30 10 15c13 -11 73 -58 84 -71c33 20 58 45 90 66c29 19 19 -6 8 -15c-18 -13 -92 -86 -110 -87c-20 7 -63 65 -82 92z" />
    <glyph glyph-name="Umacron" unicode="&#x16a;" horiz-adv-x="474"
d="M476 484c33 69 76 115 136 110c63 -4 69 -54 55 -100c-35 -117 -160 -241 -232 -335c-10 -52 -16 -130 -18 -179c-1 -68 10 -118 33 -146c14 -15 34 -21 49 -4c3 5 7 10 12 15c10 10 18 7 14 -7c-3 -5 -6 -13 -13 -19c-11 -14 -43 -21 -63 -20c-45 1 -65 44 -74 98
c-8 57 -4 138 9 225c-77 -74 -175 -154 -270 -154c-34 0 -62 17 -69 65c-16 119 89 282 136 399c8 17 -1 18 -24 0c-45 -38 -95 -67 -136 -70c-15 -2 -12 15 3 16c57 6 192 126 210 159c5 15 70 18 63 0c-22 -37 -170 -277 -195 -414c-15 -88 9 -120 45 -120
c70 0 174 89 242 155c20 129 55 260 87 326zM451 223c70 66 159 191 185 287c14 54 -7 83 -51 35c-74 -82 -109 -193 -134 -322zM551 645c-47 -3 -125 -7 -159 -8c-46 -3 -11 36 9 36c23 0 108 1 149 1c32 0 54 -6 55 -12c0 -13 -46 -15 -54 -17z" />
    <glyph glyph-name="umacron" unicode="&#x16b;" horiz-adv-x="445"
d="M510 140c-19 -35 -80 -101 -130 -137c-33 -24 -106 -48 -126 12c-9 27 3 94 17 129c-15 -10 -77 -155 -159 -155c-20 0 -57 13 -70 34c-23 37 -1 112 35 167c14 22 39 59 48 62c17 5 40 5 54 0c12 -5 5 -15 -2 -20c-22 -20 -73 -73 -98 -140c-32 -85 13 -108 83 -52
c37 30 80 88 117 142c18 26 52 90 65 110c13 0 62 -9 52 -27c-12 -20 -49 -82 -62 -108c-15 -29 -27 -63 -32 -99c-6 -43 14 -66 47 -49c32 18 107 81 148 139c5 7 18 1 13 -8zM365 374c-48 -4 -125 -7 -159 -9c-46 -2 -11 37 9 37c22 0 107 1 149 1c32 0 53 -6 55 -13
c0 -12 -47 -15 -54 -16z" />
    <glyph glyph-name="Uring" unicode="&#x16e;" horiz-adv-x="474"
d="M476 484c33 69 76 115 136 110c63 -4 69 -54 55 -100c-35 -117 -160 -241 -232 -335c-10 -52 -16 -130 -18 -179c-1 -68 10 -118 33 -146c14 -15 34 -21 49 -4c3 5 7 10 12 15c10 10 18 7 14 -7c-3 -5 -6 -13 -13 -19c-11 -14 -43 -21 -63 -20c-45 1 -65 44 -74 98
c-8 57 -4 138 9 225c-77 -74 -175 -154 -270 -154c-34 0 -62 17 -69 65c-16 119 89 282 136 399c8 17 -1 18 -24 0c-45 -38 -95 -67 -136 -70c-15 -2 -12 15 3 16c57 6 192 126 210 159c5 15 70 18 63 0c-22 -37 -170 -277 -195 -414c-15 -88 9 -120 45 -120
c70 0 174 89 242 155c20 129 55 260 87 326zM451 223c70 66 159 191 185 287c14 54 -7 83 -51 35c-74 -82 -109 -193 -134 -322zM464 647c6 15 10 51 -30 51c-38 0 -73 -46 -70 -73c1 -13 12 -26 36 -26c34 0 57 30 64 48zM491 668c0 -26 -19 -51 -44 -69
c-23 -15 -56 -16 -78 -7c-22 8 -35 26 -32 52c3 14 15 36 39 51c11 9 36 15 59 15c27 0 56 -11 56 -42z" />
    <glyph glyph-name="uring" unicode="&#x16f;" horiz-adv-x="445"
d="M510 140c-19 -35 -80 -101 -130 -137c-33 -24 -106 -48 -126 12c-9 27 3 94 17 129c-15 -10 -77 -155 -159 -155c-20 0 -57 13 -70 34c-23 37 -1 112 35 167c14 22 39 59 48 62c17 5 40 5 54 0c12 -5 5 -15 -2 -20c-22 -20 -73 -73 -98 -140c-32 -85 13 -108 83 -52
c37 30 80 88 117 142c18 26 52 90 65 110c13 0 62 -9 52 -27c-12 -20 -49 -82 -62 -108c-15 -29 -27 -63 -32 -99c-6 -43 14 -66 47 -49c32 18 107 81 148 139c5 7 18 1 13 -8zM362 418c7 15 10 51 -30 51c-37 0 -72 -46 -70 -72c2 -14 13 -27 37 -27c33 0 57 30 63 48z
M390 439c0 -26 -19 -51 -44 -69c-24 -15 -56 -16 -79 -7c-21 9 -35 26 -31 52c3 14 15 37 39 52c11 8 36 15 59 15c27 0 56 -12 56 -43z" />
    <glyph glyph-name="Uhungarumlaut" unicode="&#x170;" horiz-adv-x="474"
d="M476 484c33 69 76 115 136 110c63 -4 69 -54 55 -100c-35 -117 -160 -241 -232 -335c-10 -52 -16 -130 -18 -179c-1 -68 10 -118 33 -146c14 -15 34 -21 49 -4c3 5 7 10 12 15c10 10 18 7 14 -7c-3 -5 -6 -13 -13 -19c-11 -14 -43 -21 -63 -20c-45 1 -65 44 -74 98
c-8 57 -4 138 9 225c-77 -74 -175 -154 -270 -154c-34 0 -62 17 -69 65c-16 119 89 282 136 399c8 17 -1 18 -24 0c-45 -38 -95 -67 -136 -70c-15 -2 -12 15 3 16c57 6 192 126 210 159c5 15 70 18 63 0c-22 -37 -170 -277 -195 -414c-15 -88 9 -120 45 -120
c70 0 174 89 242 155c20 129 55 260 87 326zM451 223c70 66 159 191 185 287c14 54 -7 83 -51 35c-74 -82 -109 -193 -134 -322zM525 704c-15 -26 -35 -54 -58 -94c-11 -20 -25 -13 -16 4c11 25 31 88 35 95c11 34 4 59 49 59c36 0 -1 -49 -10 -64zM412 704
c-15 -26 -33 -54 -56 -94c-11 -20 -26 -13 -17 4c12 25 32 88 35 95c11 34 5 59 48 59c38 0 -1 -49 -10 -64z" />
    <glyph glyph-name="uhungarumlaut" unicode="&#x171;" horiz-adv-x="445"
d="M510 140c-19 -35 -80 -101 -130 -137c-33 -24 -106 -48 -126 12c-9 27 3 94 17 129c-15 -10 -77 -155 -159 -155c-20 0 -57 13 -70 34c-23 37 -1 112 35 167c14 22 39 59 48 62c17 5 40 5 54 0c12 -5 5 -15 -2 -20c-22 -20 -73 -73 -98 -140c-32 -85 13 -108 83 -52
c37 30 80 88 117 142c18 26 52 90 65 110c13 0 62 -9 52 -27c-12 -20 -49 -82 -62 -108c-15 -29 -27 -63 -32 -99c-6 -43 14 -66 47 -49c32 18 107 81 148 139c5 7 18 1 13 -8zM390 453c-13 -20 -28 -41 -45 -73c-9 -16 -20 -11 -13 3c9 20 24 69 28 74c9 27 2 46 37 46
c29 0 -1 -38 -7 -50zM301 453c-11 -20 -26 -41 -44 -73c-8 -16 -20 -11 -13 3c10 20 26 69 27 74c9 27 4 46 39 46c29 0 -1 -38 -9 -50z" />
    <glyph glyph-name="Uogonek" unicode="&#x172;" horiz-adv-x="474"
d="M117 -178c22 20 27 2 13 -13c-15 -17 -88 -125 -168 -125c-21 0 -48 14 -63 34c-38 46 2 112 66 156c49 34 106 70 144 94c-32 1 -58 20 -64 65c-16 119 89 282 136 399c8 17 -1 18 -24 0c-45 -38 -95 -67 -136 -70c-15 -2 -12 15 3 16c57 6 192 126 210 159
c5 15 70 18 63 0c-22 -37 -170 -277 -195 -414c-15 -88 9 -120 45 -120c70 0 174 89 242 155c20 129 55 260 87 326c33 69 76 115 136 110c63 -4 69 -54 55 -100c-35 -117 -160 -241 -232 -335c-10 -52 -16 -130 -18 -179c-1 -68 10 -118 33 -146c14 -15 34 -21 49 -4
c3 5 7 10 12 15c10 10 18 7 14 -7c-3 -5 -6 -13 -13 -19c-11 -14 -43 -21 -63 -20c-45 1 -65 44 -74 98c-8 57 -4 138 9 225c-67 -64 -149 -133 -232 -149c-37 -35 -90 -56 -137 -100c-29 -26 -111 -121 -80 -165c24 -35 160 96 182 114zM451 223c70 66 159 191 185 287
c14 54 -7 83 -51 35c-74 -82 -109 -193 -134 -322z" />
    <glyph glyph-name="uogonek" unicode="&#x173;" horiz-adv-x="445"
d="M309 -145c17 17 21 3 10 -10c-13 -13 -72 -101 -137 -101c-16 0 -38 11 -51 28c-30 37 3 91 54 126c41 30 92 61 122 80c-22 0 -45 10 -53 37c-9 27 3 94 17 129c-15 -10 -77 -155 -159 -155c-20 0 -57 13 -70 34c-23 37 -1 112 35 167c14 22 39 59 48 62c17 5 40 5 54 0
c12 -5 5 -15 -2 -20c-22 -20 -73 -73 -98 -140c-32 -85 13 -108 83 -52c37 30 80 88 117 142c18 26 52 90 65 110c13 0 62 -9 52 -27c-12 -20 -49 -82 -62 -108c-15 -29 -27 -63 -32 -99c-6 -43 14 -66 47 -49c32 18 107 81 148 139c5 7 18 1 13 -8
c-19 -35 -80 -101 -130 -137c-10 -8 -23 -14 -36 -19c-32 -31 -77 -49 -119 -87c-23 -22 -90 -98 -65 -134c20 -29 130 79 149 92z" />
    <glyph glyph-name="Yacute" unicode="&#xdd;" horiz-adv-x="526"
d="M694 552c18 -4 10 -20 -4 -20c-53 5 -83 -35 -111 -112c-25 -65 -103 -325 -120 -373c45 11 81 16 92 10c6 -5 3 -18 -5 -14c-14 7 -92 -8 -101 -31c-221 -562 -584 -428 -375 -189c91 104 202 167 332 209c13 33 40 145 72 253c-105 -160 -247 -317 -360 -317
c-34 0 -62 17 -69 65c-16 119 89 282 136 399c8 17 -1 18 -24 0c-45 -38 -95 -67 -136 -70c-15 -2 -12 15 3 16c57 6 192 126 210 159c5 15 70 18 63 0c-22 -37 -170 -278 -195 -414c-15 -88 9 -120 45 -120c114 0 289 255 377 441c10 21 17 41 26 58c5 10 9 17 14 21
c8 14 20 21 32 26c43 18 86 4 98 3zM396 13c-109 -36 -204 -95 -277 -185c-133 -164 -10 -263 118 -106c70 85 122 188 159 291zM601 693l-1 -1c-21 -18 -143 -75 -160 -77c-13 0 -8 8 -4 12c1 2 44 30 55 38c26 23 56 39 75 64c11 5 24 -2 29 -4c14 -8 14 -26 6 -32z" />
    <glyph glyph-name="yacute" unicode="&#xfd;" horiz-adv-x="416"
d="M275 -50c-43 -88 -83 -171 -114 -220c-37 -55 -96 -122 -164 -110c-7 2 -15 4 -20 7c-63 31 -33 91 20 153c50 58 154 127 219 170c46 94 104 223 119 269c-54 -62 -153 -230 -244 -230c-89 0 -80 90 -51 146c22 44 49 77 81 105c44 42 81 -5 68 -15
c-23 -13 -57 -46 -87 -85c-16 -21 -55 -102 -28 -121c18 -14 53 0 82 28c75 71 129 151 194 230c9 23 71 -4 66 -15c-25 -55 -84 -189 -121 -268c25 13 119 86 179 160c12 15 20 -1 8 -17c-40 -54 -152 -157 -207 -187zM197 -88c-52 -39 -125 -95 -177 -148
c-76 -76 -50 -161 25 -101c76 61 110 164 152 249zM451 440l-1 -1c-21 -17 -143 -75 -160 -76c-13 0 -8 7 -4 11c1 3 44 30 55 39c26 22 56 39 75 64c11 5 24 -3 29 -4c14 -9 14 -26 6 -33z" />
    <glyph glyph-name="Zdotaccent" unicode="&#x17b;" horiz-adv-x="549"
d="M629 542c20 20 105 73 108 26c5 -54 -68 -88 -108 -79c-69 -39 -147 -132 -225 -221c46 4 95 10 141 7c15 -1 41 -8 0 -21c-25 -7 -101 -16 -173 -21l-47 -50c-50 -51 -119 -113 -180 -148c-14 -12 -5 -23 5 -30c139 -73 275 -181 429 -165c52 7 125 48 76 125
c-10 18 7 20 16 4c18 -29 24 -56 28 -80c6 -47 -25 -95 -93 -101c-201 -20 -367 165 -512 216c-24 -12 -53 -19 -62 -15c-25 9 -32 45 -1 59c9 4 34 -6 61 -9c58 20 139 101 222 190c-38 -2 -70 -4 -84 -2c-11 0 -26 11 -26 27c0 20 42 31 55 30c16 0 20 -19 28 -20
c20 -1 40 -1 59 0c94 100 185 203 248 235c-97 30 -258 55 -355 29c-54 -14 -98 -59 -82 -89c9 -19 2 -27 -12 -10c-41 53 19 119 76 138c118 40 289 5 408 -25zM570 703c0 -13 -28 -56 -41 -56c-20 0 -50 0 -50 25c0 6 41 42 48 48c49 39 43 7 43 -17z" />
    <glyph glyph-name="zdotaccent" unicode="&#x17c;" horiz-adv-x="422"
d="M111 229c48 69 96 45 149 33l77 -18c14 13 75 48 78 18c2 -35 -59 -63 -86 -57c-47 -38 -118 -98 -173 -147c-6 -5 -15 -14 -26 -23l30 -15c55 -33 101 -55 151 -27c41 24 126 102 164 155c5 7 22 5 17 -4c-21 -36 -110 -127 -160 -164c-23 -17 -38 -22 -47 -25
c-53 -18 -99 0 -151 33c-10 6 -24 14 -39 19c-30 -23 -63 -40 -79 -32c-14 8 -6 54 36 68c19 6 42 4 64 -3c16 13 29 24 31 27c54 46 114 105 155 145c-33 10 -57 17 -86 21c-42 5 -66 -6 -89 -28c-22 -20 -45 -46 -62 -70c-5 -6 -15 -20 -20 -15c-4 3 -6 9 -1 17zM366 400
c0 -8 -19 -38 -27 -38c-14 0 -34 0 -34 17c0 4 27 29 32 33c34 26 29 5 29 -12z" />
    <glyph glyph-name="Gcommaaccent" unicode="&#x122;" horiz-adv-x="621"
d="M266 -177c90 104 203 167 333 209c17 51 33 103 48 157c-105 -99 -213 -175 -310 -192c-123 -24 -263 27 -263 176c0 102 47 196 138 280c107 95 234 137 375 137c32 0 135 -10 144 -67c8 -43 -20 -46 -22 -21c-3 53 -57 66 -102 66c-146 0 -508 -198 -508 -399
c0 -136 146 -154 305 -106c112 34 170 94 255 175c38 97 126 70 141 69c15 -3 9 -15 -4 -14c-41 2 -72 -45 -91 -101c-16 -48 -33 -97 -51 -145c46 11 81 16 92 10c8 -5 4 -18 -4 -14c-15 7 -92 -8 -101 -31c-221 -562 -585 -428 -375 -189zM592 13
c-110 -36 -205 -95 -277 -185c-133 -164 -10 -263 119 -106c68 85 121 188 158 291zM234 -88c0 -14 -22 -45 -44 -73c-26 -34 -55 -62 -63 -67c-11 -8 -11 2 -11 6c0 1 10 14 23 27c18 23 36 47 45 77c11 33 -12 28 -4 52c4 13 22 10 27 10c17 0 27 -21 27 -32z" />
    <glyph glyph-name="Abreve" unicode="&#x102;" horiz-adv-x="470"
d="M11 12c0 21 20 42 20 0c0 -24 10 -40 30 -53c15 -10 36 -15 61 -15c53 0 112 20 163 54c59 40 136 119 215 209c-56 7 -113 13 -168 17c-70 4 -155 -5 -183 -82c-5 -14 -5 -28 1 -38c7 -14 -9 -22 -18 -9c-8 14 -12 38 -10 62c10 121 114 120 215 108
c59 -6 123 -20 185 -32c105 121 209 256 273 336c2 3 5 5 7 6c14 8 43 14 52 14c6 0 10 -4 10 -10c0 -2 -3 -6 -5 -11c-68 -113 -115 -231 -149 -358l-3 -7c9 0 17 -1 25 -1c27 -2 53 1 73 10c14 5 25 13 30 22c6 10 17 -1 11 -11c-7 -13 -21 -23 -39 -29
c-21 -9 -50 -11 -78 -10c-9 0 -18 1 -27 1c-8 -37 -16 -76 -18 -115c-9 -101 38 -87 107 -35c46 35 85 79 111 114c4 4 17 3 12 -9c-3 -7 -48 -73 -119 -130c-38 -30 -78 -35 -98 -35c-42 0 -65 48 -58 112c2 32 8 66 17 102c-40 4 -79 9 -119 14
c-80 -99 -161 -188 -231 -239c-52 -39 -107 -59 -164 -59c-37 0 -67 9 -90 25c-27 19 -41 45 -41 82zM752 478c2 4 3 7 5 11c-58 -79 -128 -174 -201 -264l105 -17c24 94 60 191 91 270zM1031 774c5 -2 6 -9 6 -11c-36 -148 -282 -176 -257 -9c5 31 35 20 35 4
c-3 -114 162 -130 209 15c1 5 6 2 7 1z" />
    <glyph glyph-name="Scommaaccent" unicode="&#x218;" horiz-adv-x="532"
d="M645 528c0 -18 -5 -30 -18 -51c-15 -28 -52 -55 -52 -35c0 5 44 36 44 63c0 29 -35 43 -85 43c-37 0 -130 -14 -203 -54c-80 -44 -92 -75 -31 -104c96 -45 292 -88 292 -193c0 -28 -16 -57 -46 -87c-95 -91 -266 -156 -384 -156c-93 0 -148 31 -148 90
c0 61 41 114 97 150c51 35 115 55 168 55c31 0 21 -15 -2 -15c-48 0 -113 -26 -158 -67c-89 -80 -68 -167 62 -167c68 0 146 19 176 29c73 24 158 66 187 111c101 154 -330 145 -330 274c0 110 233 169 321 169c74 0 110 -18 110 -55zM214 -122c0 -14 -22 -45 -44 -73
c-26 -33 -55 -62 -63 -67c-11 -8 -11 2 -11 6c0 1 10 14 23 28c18 22 36 46 45 76c11 34 -12 29 -4 52c4 13 22 10 27 10c17 0 27 -21 27 -32z" />
    <glyph glyph-name="abreve" unicode="&#x103;" horiz-adv-x="457"
d="M90 -11c-21 0 -49 14 -64 34c-74 94 154 244 229 262c30 8 74 10 100 -8c10 -7 17 -17 17 -27c0 -7 -1 -7 -6 -5c-11 17 -31 19 -50 19c-52 0 -122 -40 -174 -86c-28 -26 -111 -121 -80 -165c14 -20 63 16 77 27c26 22 71 60 97 88c14 15 90 99 99 99c10 0 49 -8 40 -24
c-36 -51 -56 -113 -60 -145c-6 -43 14 -66 46 -49c33 18 108 81 149 139c5 7 17 1 12 -8c-18 -35 -80 -101 -130 -137c-32 -24 -106 -48 -126 12c-9 27 3 87 16 122c-17 -8 -112 -148 -192 -148zM501 494c5 -2 6 -9 6 -11c-36 -148 -282 -176 -257 -9c5 31 35 20 35 4
c-3 -114 162 -130 209 15c1 5 6 2 7 1z" />
    <glyph glyph-name="scommaaccent" unicode="&#x219;" horiz-adv-x="285"
d="M77 12c-11 -5 -21 -14 -27 -22c-15 -20 -6 -40 31 -30c50 15 124 72 124 130c0 28 -56 49 -75 62c-15 10 -28 21 -34 36c-11 -19 -27 -43 -45 -69c-9 -11 -21 -2 -14 9c29 40 47 74 54 94c10 78 141 143 213 143c45 0 85 -21 62 -68c-6 -14 -17 -25 -31 -34
c-5 -4 -18 2 -5 15c16 16 29 51 1 54c-31 2 -85 -20 -109 -32c-33 -16 -61 -37 -86 -72c-21 -29 -17 -49 11 -66c68 -40 153 -64 79 -147c-34 -38 -91 -62 -140 -73c-19 -4 -61 -10 -72 11c-7 10 2 27 13 40c10 10 29 21 48 29c7 2 9 -7 2 -10zM47 -136
c0 -14 -21 -45 -43 -72c-27 -34 -55 -63 -63 -68c-11 -7 -11 3 -11 6c0 2 10 14 22 28c19 22 37 46 45 76c12 34 -11 29 -3 53c3 12 22 10 27 10c16 0 26 -22 26 -33z" />
    <glyph glyph-name="Tcedila" unicode="&#x21a;" horiz-adv-x="251"
d="M236 24c14 18 28 35 36 34c7 -5 -11 -25 -12 -26c-16 -22 -43 -70 -70 -70c-6 0 -38 5 -39 12c-9 64 126 291 155 350c13 25 9 35 6 41c7 33 77 119 129 119c13 0 63 -14 59 -45c-4 3 -9 5 -13 5c-92 0 -245 -301 -283 -394c-24 -57 10 -53 32 -26zM664 365
c6 -8 -7 -21 -20 -5c-13 14 -14 84 8 129c5 9 18 24 24 30c-130 3 -266 29 -392 10c-120 -16 -227 -69 -245 -152c-12 -49 40 -68 60 -83c12 -9 3 -16 -9 -12c-34 10 -98 56 -76 115c0 1 0 11 1 16c21 100 142 147 271 156c154 10 328 -34 403 -35c18 20 31 30 41 31
c25 5 51 -12 29 -36c-10 -10 -32 -22 -52 -42c-35 -35 -67 -85 -43 -122zM174 -127c0 -14 -22 -45 -44 -73c-26 -33 -55 -62 -63 -67c-11 -8 -11 2 -11 6c0 1 10 14 23 28c18 22 36 46 45 76c11 34 -12 29 -4 52c4 13 22 10 27 10c17 0 27 -21 27 -32z" />
    <glyph glyph-name="tcedila" unicode="&#x21b;"
d="M294 287c12 0 33 -7 -9 -17c-15 -5 -66 -12 -113 -17c-13 -24 -25 -41 -28 -50c-30 -60 -57 -113 -60 -145c-7 -43 13 -66 46 -49c32 18 107 81 149 139c5 7 17 1 12 -8c-19 -35 -80 -101 -130 -137c-32 -24 -106 -48 -126 12c-8 23 9 77 30 123c-9 -11 -18 -26 -39 -50
c-10 -11 -20 2 -11 14c35 43 62 80 77 103c0 2 9 18 22 42c-10 -2 -18 -2 -23 -2c-10 0 -20 9 -14 22c8 17 34 17 53 18c1 2 2 2 4 2l50 93c25 43 27 53 41 55c15 2 34 -1 40 -10c9 -12 -3 -32 -9 -41c-5 -10 -15 -9 -21 -21l-48 -84l13 1c31 3 56 8 94 7zM71 -122
c0 -14 -21 -45 -44 -73c-26 -33 -55 -62 -62 -67c-11 -8 -11 2 -11 6c0 1 10 14 22 28c19 22 36 46 45 76c11 34 -11 29 -4 52c4 13 23 10 28 10c16 0 26 -21 26 -32z" />
    <glyph glyph-name="Omega" unicode="&#x2126;" horiz-adv-x="642"
d="M50 17c41 2 102 5 140 6c-58 62 -79 177 -38 290c48 134 154 237 294 230c134 -8 151 -145 113 -275c-33 -109 -89 -191 -170 -246c31 0 95 1 131 1c32 0 55 -6 55 -13c0 -12 -45 -15 -54 -16c-46 -4 -125 -7 -159 -9c-35 -1 -23 20 -7 30c2 8 11 18 21 24
c54 31 120 156 138 228c30 113 40 253 -80 253c-105 0 -203 -108 -244 -235c-35 -113 -21 -202 22 -255l4 -7c26 -5 -4 -35 -22 -35c-22 0 -107 -1 -148 -1c-42 0 -16 27 4 30z" />
    <glyph glyph-name="Gbreve" unicode="&#x11e;" horiz-adv-x="621"
d="M266 -177c90 104 203 167 333 209c17 51 33 103 48 157c-105 -99 -213 -175 -310 -192c-123 -24 -263 27 -263 176c0 102 47 196 138 280c107 95 234 137 375 137c32 0 135 -10 144 -67c8 -43 -20 -46 -22 -21c-3 53 -57 66 -102 66c-146 0 -508 -198 -508 -399
c0 -136 146 -154 305 -106c112 34 170 94 255 175c38 97 126 70 141 69c15 -3 9 -15 -4 -14c-41 2 -72 -45 -91 -101c-16 -48 -33 -97 -51 -145c46 11 81 16 92 10c8 -5 4 -18 -4 -14c-15 7 -92 -8 -101 -31c-221 -562 -585 -428 -375 -189zM592 13
c-110 -36 -205 -95 -277 -185c-133 -164 -10 -263 119 -106c68 85 121 188 158 291zM751 772c5 -3 6 -9 6 -12c-36 -147 -282 -176 -257 -8c5 31 35 20 35 3c-3 -113 162 -130 209 15c1 5 6 3 7 2z" />
    <glyph glyph-name="gbreve" unicode="&#x11f;" horiz-adv-x="416"
d="M275 -50c-43 -88 -83 -171 -114 -220c-37 -55 -96 -122 -164 -110c-7 2 -15 4 -20 7c-63 31 -33 91 20 153c50 58 154 127 219 170c46 94 85 187 100 233c-27 -33 -65 -78 -80 -94c-37 -41 -95 -100 -145 -100c-21 0 -49 14 -64 34c-73 94 154 244 229 262
c29 8 74 10 100 -8c10 -7 18 -17 18 -27c0 -7 -3 -7 -8 -5c-10 17 -30 19 -49 19c-52 0 -122 -40 -173 -86c-30 -26 -112 -121 -80 -165c11 -16 58 10 98 41c63 49 128 118 165 163c9 23 72 -4 67 -15c-25 -55 -62 -129 -99 -208c26 14 114 86 176 158c26 30 31 6 5 -24
c-44 -50 -162 -156 -201 -178zM197 -88c-52 -39 -125 -95 -177 -148c-40 -40 -65 -100 -33 -117c9 -5 24 -2 48 17c76 63 120 163 162 248zM495 490c5 -2 6 -8 6 -11c-36 -147 -282 -176 -257 -9c5 32 35 20 35 4c-3 -114 162 -130 208 15c2 5 7 3 8 1z" />
    <glyph glyph-name="Idotaccent" unicode="&#x130;" horiz-adv-x="312"
d="M240 68c79 105 139 334 170 455c-108 -9 -218 -45 -214 -120c3 -38 44 -50 60 -60c11 -8 8 -13 -2 -10c-24 5 -78 37 -79 84c0 1 -3 8 -3 12c-6 101 127 139 249 139c0 4 1 6 3 10c3 14 57 17 55 0c-2 -4 -4 -8 -5 -13c43 -3 81 -13 107 -26c15 -7 54 -49 -6 -29
c-26 9 -69 14 -115 14c-40 -122 -113 -360 -201 -472c-13 -15 -25 -29 -38 -39c73 -1 136 1 178 4c33 2 7 -20 1 -24c-18 -9 -316 -15 -363 -14c-26 1 -37 9 -23 43c10 23 45 26 56 17c40 -30 111 -49 170 29zM540 715c0 -12 -26 -55 -39 -55c-20 0 -49 0 -49 25
c0 5 40 40 47 45c47 38 41 8 41 -15z" />
    <glyph glyph-name="Scedilla" unicode="&#x15e;" horiz-adv-x="532"
d="M-16 -272c-13 22 2 24 13 7c48 -72 213 -5 213 78c0 31 -25 54 -65 45c-36 -8 -61 -14 -43 11c12 16 39 64 49 85c-87 3 -137 34 -137 90c0 61 41 114 97 150c51 35 115 55 168 55c31 0 21 -15 -2 -15c-48 0 -113 -26 -158 -67c-89 -80 -68 -167 62 -167
c68 0 146 19 176 29c73 24 158 66 187 111c101 154 -330 145 -330 274c0 110 233 169 321 169c74 0 110 -18 110 -55c0 -18 -5 -30 -18 -51c-15 -28 -52 -55 -52 -35c0 5 44 36 44 63c0 29 -35 43 -85 43c-37 0 -130 -14 -203 -54c-80 -44 -92 -75 -31 -104
c96 -45 292 -88 292 -193c0 -28 -16 -57 -46 -87c-90 -86 -246 -147 -362 -155c-9 -16 -48 -65 -54 -76c81 16 126 -20 126 -66c0 -101 -219 -175 -272 -85z" />
    <glyph glyph-name="scedilla" unicode="&#x15f;" horiz-adv-x="285"
d="M77 12c-11 -5 -21 -14 -27 -22c-15 -20 -6 -40 31 -30c50 15 124 72 124 130c0 28 -56 49 -75 62c-15 10 -28 21 -34 36c-11 -19 -27 -43 -45 -69c-9 -11 -21 -2 -14 9c29 40 47 74 54 94c10 78 141 143 213 143c45 0 85 -21 62 -68c-6 -14 -17 -25 -31 -34
c-5 -4 -18 2 -5 15c16 16 29 51 1 54c-31 2 -85 -20 -109 -32c-33 -16 -61 -37 -86 -72c-21 -29 -17 -49 11 -66c68 -40 153 -64 79 -147c-34 -38 -91 -62 -140 -73c-19 -4 -61 -10 -72 11c-7 10 2 27 13 40c10 10 29 21 48 29c7 2 9 -7 2 -10zM90 -115
c0 -11 -18 -37 -36 -60c-22 -27 -45 -51 -52 -55c-8 -6 -8 3 -8 5s8 12 18 23c15 19 30 39 37 62c10 28 -9 24 -3 44c3 10 19 8 23 8c13 0 21 -18 21 -27z" />
    <glyph glyph-name="Dcroat" unicode="&#x110;" horiz-adv-x="567"
d="M452 180l-60 -5c-32 -58 -58 -113 -72 -143c145 -107 357 -4 457 117c148 179 107 396 -162 404c-216 5 -500 -118 -500 -258c0 -50 61 -56 84 -67c13 -6 7 -15 -7 -14c-35 3 -120 34 -111 95c0 3 -2 11 -2 16c0 244 583 314 750 180c55 -45 78 -105 78 -168
c0 -214 -212 -374 -415 -374c-68 0 -135 16 -181 51c-5 -7 -44 -90 -71 -90c-51 0 -59 78 -59 93c0 43 4 73 9 107c1 9 -4 18 -8 28c-2 8 2 15 7 20c10 7 35 15 42 10c4 -3 4 -8 -2 -22c-8 -17 -8 -13 -8 -32c0 -23 65 -75 69 -76c10 23 32 72 55 121c-21 -1 -39 -1 -51 -1
c-47 -3 -12 36 8 36h59c11 25 23 47 31 65c13 26 9 36 7 41c6 33 106 155 158 155c12 0 54 -10 59 -36c1 -13 -5 -3 -12 -3c-57 0 -133 -112 -194 -221h41c33 0 54 -6 55 -12c0 -13 -46 -15 -54 -17zM277 29c-15 13 -43 45 -61 61c0 -13 -1 -70 8 -116c12 -62 48 43 53 55z
" />
    <glyph glyph-name="Tcommaaccent" unicode="&#x162;" horiz-adv-x="251"
d="M236 24c14 18 28 35 36 34c7 -5 -11 -25 -12 -26c-16 -22 -43 -70 -70 -70c-6 0 -38 5 -39 12c-9 64 126 291 155 350c13 25 9 35 6 41c7 33 77 119 129 119c13 0 63 -14 59 -45c-4 3 -9 5 -13 5c-92 0 -245 -301 -283 -394c-24 -57 10 -53 32 -26zM664 365
c6 -8 -7 -21 -20 -5c-13 14 -14 84 8 129c5 9 18 24 24 30c-130 3 -266 29 -392 10c-120 -16 -227 -69 -245 -152c-12 -49 40 -68 60 -83c12 -9 3 -16 -9 -12c-34 10 -98 56 -76 115c0 1 0 11 1 16c21 100 142 147 271 156c154 10 328 -34 403 -35c18 20 31 30 41 31
c25 5 51 -12 29 -36c-10 -10 -32 -22 -52 -42c-35 -35 -67 -85 -43 -122zM174 -130c0 -13 -22 -45 -44 -72c-26 -34 -55 -63 -63 -68c-11 -7 -11 3 -11 7c0 1 10 13 23 27c18 23 36 46 45 76c11 34 -12 29 -4 53c4 12 22 10 27 10c17 0 27 -21 27 -33z" />
    <glyph glyph-name="dcroat" unicode="&#x111;" horiz-adv-x="469"
d="M616 417h-5c-70 -77 -169 -148 -236 -207c-20 -47 -43 -117 -55 -162c-16 -63 -18 -110 -1 -138c8 -16 26 -23 45 -8c5 3 8 7 15 11c12 7 17 4 11 -8c-4 -5 -9 -11 -15 -17c-14 -10 -48 -13 -66 -10c-100 16 -18 232 8 297c-61 -71 -167 -186 -227 -186
c-21 0 -49 14 -64 34c-74 94 154 244 229 262c30 8 75 10 100 -8l4 -3c18 44 41 90 65 134c-8 -1 -15 -1 -20 -1c-63 -3 -15 38 12 38h29c55 92 122 159 195 145c57 -11 52 -57 29 -98c-9 -15 -20 -32 -32 -47c32 -1 52 -6 52 -11c0 -14 -60 -16 -73 -17zM351 258
c-10 5 -22 6 -35 6c-52 0 -122 -40 -174 -86c-28 -26 -111 -121 -80 -165c14 -20 63 16 77 27c67 55 138 120 198 184zM604 549c-39 -30 -72 -65 -99 -104c34 0 67 2 95 2c17 21 32 42 44 63c25 48 10 77 -40 39zM405 268c51 34 116 89 167 146l-92 -4
c-28 -43 -53 -91 -75 -142z" />
    <glyph glyph-name="tcommaaccent" unicode="&#x163;"
d="M294 287c12 0 33 -7 -9 -17c-15 -5 -66 -12 -113 -17c-13 -24 -25 -41 -28 -50c-30 -60 -57 -113 -60 -145c-7 -43 13 -66 46 -49c32 18 107 81 149 139c5 7 17 1 12 -8c-19 -35 -80 -101 -130 -137c-32 -24 -106 -48 -126 12c-8 23 9 77 30 123c-9 -11 -18 -26 -39 -50
c-10 -11 -20 2 -11 14c35 43 62 80 77 103c0 2 9 18 22 42c-10 -2 -18 -2 -23 -2c-10 0 -20 9 -14 22c8 17 34 17 53 18c1 2 2 2 4 2l50 93c25 43 27 53 41 55c15 2 34 -1 40 -10c9 -12 -3 -32 -9 -41c-5 -10 -15 -9 -21 -21l-48 -84l13 1c31 3 56 8 94 7zM64 -87
c0 -14 -22 -45 -44 -73c-26 -33 -55 -62 -63 -67c-11 -8 -11 2 -11 6c0 1 10 14 23 28c18 22 36 46 45 76c11 34 -12 29 -4 52c4 13 22 10 27 10c17 0 27 -21 27 -32z" />
    <glyph glyph-name="AEacute" unicode="&#x1fc;" horiz-adv-x="854"
d="M656 232c-2 -9 -24 -9 -65 -12c-39 -2 -105 -5 -166 -5c-29 -80 -45 -218 91 -218c113 0 253 57 326 143c9 10 15 -8 9 -16c-59 -71 -191 -160 -364 -160c-165 0 -151 138 -108 250c-38 0 -68 0 -83 -1c-1 0 -2 1 -4 0c-77 0 -156 1 -167 0c-48 -79 -93 -214 -98 -288
c-1 -2 -1 -8 -5 -8c-7 0 -20 18 -21 25c-11 68 49 213 83 267h-19c-29 -1 -29 34 11 36c13 0 24 2 30 3c53 81 240 301 359 301c12 0 54 -6 60 -24c17 5 39 8 61 9c59 5 148 6 219 0c1 0 4 1 6 1c19 4 40 -8 23 -26c-8 -7 -25 -17 -40 -32c-28 -27 -52 -64 -34 -92
c4 -7 -5 -16 -16 -3c-9 10 -10 62 7 97c6 10 16 25 29 36c-76 -2 -169 -15 -201 -33c-24 -14 -113 -179 -142 -238c84 -1 162 -1 198 -1c9 0 25 -1 21 -11zM141 245h49c56 -1 130 -1 201 -1c36 80 96 149 101 240c3 35 -13 44 -22 49c-136 -38 -249 -171 -329 -288zM632 690
l-1 -1c-21 -17 -142 -75 -160 -76c-12 0 -7 7 -4 11c2 3 44 30 55 39c27 22 57 39 75 64c12 5 24 -3 29 -4c14 -9 14 -26 6 -33z" />
    <glyph glyph-name="Ccircumflex" unicode="&#x108;" horiz-adv-x="480"
d="M515 583c55 -8 81 -43 80 -83c-4 -116 -209 -233 -309 -242c-32 -3 -22 29 5 31c104 9 201 65 250 159c24 46 28 102 -27 111c-105 16 -362 -171 -435 -400c-43 -131 22 -191 128 -192c119 -4 292 56 385 187c7 10 19 -1 14 -9c-104 -143 -270 -205 -399 -203
c-122 1 -216 73 -177 235c51 208 289 436 485 406zM614 637c6 -9 6 -29 -10 -15c-12 12 -72 60 -83 72c-32 -20 -59 -46 -90 -67c-30 -19 -19 6 -9 15c18 13 92 86 112 87c18 -7 62 -65 80 -92z" />
    <glyph glyph-name="Cdotaccent" unicode="&#x10a;" horiz-adv-x="480"
d="M515 583c55 -8 81 -43 80 -83c-4 -116 -209 -233 -309 -242c-32 -3 -22 29 5 31c104 9 201 65 250 159c24 46 28 102 -27 111c-105 16 -362 -171 -435 -400c-43 -131 22 -191 128 -192c119 -4 292 56 385 187c7 10 19 -1 14 -9c-104 -143 -270 -205 -399 -203
c-122 1 -216 73 -177 235c51 208 289 436 485 406zM575 702c0 -12 -25 -53 -38 -53c-18 0 -46 0 -46 24c0 5 38 39 45 44c45 36 39 7 39 -15z" />
    <glyph glyph-name="Ebreve" unicode="&#x114;" horiz-adv-x="525"
d="M452 589c35 -9 60 -35 83 -56c7 -8 17 -18 29 -21c5 -3 13 -2 18 -5c12 -10 19 -32 25 -47c14 -33 5 -123 -25 -87c-16 20 -18 55 -31 81c-16 34 -34 64 -60 86c-15 14 -49 35 -85 22c-104 -43 -60 -219 -15 -278c6 -7 41 -9 53 -10c36 -4 36 -29 17 -40
c-20 -11 -66 6 -90 11c-100 -2 -301 -77 -304 -197c-1 -54 37 -98 149 -98c108 0 256 42 321 75c54 28 175 118 160 180c-1 5 9 5 12 2c53 -77 -57 -167 -119 -202c-83 -47 -246 -80 -339 -80c-111 0 -227 32 -227 153c0 167 228 194 337 199c-55 63 -105 183 -61 258
c25 43 109 64 152 54zM630 767c5 -3 6 -9 6 -12c-36 -147 -282 -176 -257 -8c5 31 35 20 35 3c-3 -113 162 -130 208 15c2 5 7 3 8 2z" />
    <glyph glyph-name="Gcircumflex" unicode="&#x11c;" horiz-adv-x="621"
d="M266 -177c90 104 203 167 333 209c17 51 33 103 48 157c-105 -99 -213 -175 -310 -192c-123 -24 -263 27 -263 176c0 102 47 196 138 280c107 95 234 137 375 137c32 0 135 -10 144 -67c8 -43 -20 -46 -22 -21c-3 53 -57 66 -102 66c-146 0 -508 -198 -508 -399
c0 -136 146 -154 305 -106c112 34 170 94 255 175c38 97 126 70 141 69c15 -3 9 -15 -4 -14c-41 2 -72 -45 -91 -101c-16 -48 -33 -97 -51 -145c46 11 81 16 92 10c8 -5 4 -18 -4 -14c-15 7 -92 -8 -101 -31c-221 -562 -585 -428 -375 -189zM592 13
c-110 -36 -205 -95 -277 -185c-133 -164 -10 -263 119 -106c68 85 121 188 158 291zM711 649c6 -9 6 -29 -10 -15c-11 13 -71 60 -82 73c-33 -20 -59 -47 -90 -68c-30 -19 -19 6 -9 15c17 14 91 86 111 88c19 -8 63 -65 80 -93z" />
    <glyph glyph-name="Gdotaccent" unicode="&#x120;" horiz-adv-x="621"
d="M266 -177c90 104 203 167 333 209c17 51 33 103 48 157c-105 -99 -213 -175 -310 -192c-123 -24 -263 27 -263 176c0 102 47 196 138 280c107 95 234 137 375 137c32 0 135 -10 144 -67c8 -43 -20 -46 -22 -21c-3 53 -57 66 -102 66c-146 0 -508 -198 -508 -399
c0 -136 146 -154 305 -106c112 34 170 94 255 175c38 97 126 70 141 69c15 -3 9 -15 -4 -14c-41 2 -72 -45 -91 -101c-16 -48 -33 -97 -51 -145c46 11 81 16 92 10c8 -5 4 -18 -4 -14c-15 7 -92 -8 -101 -31c-221 -562 -585 -428 -375 -189zM592 13
c-110 -36 -205 -95 -277 -185c-133 -164 -10 -263 119 -106c68 85 121 188 158 291zM662 692c0 -12 -23 -50 -35 -50c-17 0 -43 0 -43 22c0 5 35 36 41 41c44 35 37 7 37 -13z" />
    <glyph glyph-name="Hbar" unicode="&#x126;" horiz-adv-x="529"
d="M246 427c15 1 30 6 45 15c-2 8 18 20 40 26c30 26 56 60 73 97c3 15 67 19 63 0l-36 -92c76 0 188 1 251 1h5c18 39 70 98 114 98c13 0 64 -13 61 -44c-3 1 -8 5 -12 5c-25 0 -53 -26 -81 -64c20 -2 32 -6 33 -9c0 -7 -23 -11 -50 -13c-50 -74 -95 -174 -112 -213
c29 0 61 4 85 14c14 5 24 14 30 22c6 10 17 0 10 -11c-8 -12 -21 -22 -38 -29c-27 -11 -63 -13 -95 -13c-40 -94 -107 -312 63 -182c45 35 84 79 110 114c4 4 17 3 12 -9c-3 -7 -48 -73 -118 -130c-39 -30 -78 -35 -98 -35c-96 0 -50 143 -32 193c6 17 13 34 21 51
c-84 8 -165 23 -248 33c-77 -175 -177 -353 -295 -389c-32 -11 -60 -11 -83 -4c-28 9 -47 28 -55 58c-5 17 7 42 17 5c6 -20 19 -32 38 -37c16 -3 46 -7 67 0c118 37 208 205 273 372l-53 3c-70 4 -155 -5 -182 -81c-7 -15 -7 -29 0 -39c8 -13 -9 -22 -18 -8
c-7 13 -12 37 -10 61c11 121 115 121 215 109c20 -2 41 -5 61 -9c18 47 33 95 47 139h-23h-17c-27 -13 -55 -19 -79 -22c-15 -1 -14 15 1 17zM676 412c6 15 8 23 8 30l-268 -9c-17 -45 -37 -96 -60 -148c81 -16 164 -38 241 -47c27 57 55 115 79 174z" />
    <glyph glyph-name="Hcircumflex" unicode="&#x124;" horiz-adv-x="529"
d="M246 427c58 6 126 67 158 138c3 15 67 19 63 0c-26 -63 -63 -170 -111 -280c81 -16 164 -38 241 -47c27 57 55 115 79 174c11 26 8 35 5 41c3 32 68 119 120 119c13 0 64 -13 61 -44c-3 1 -8 5 -12 5c-73 0 -181 -234 -210 -299c29 0 61 4 85 14c14 5 24 14 30 22
c6 10 17 0 10 -11c-8 -12 -21 -22 -38 -29c-27 -11 -63 -13 -95 -13c-40 -94 -107 -312 63 -182c45 35 84 79 110 114c4 4 17 3 12 -9c-3 -7 -48 -73 -118 -130c-39 -30 -78 -35 -98 -35c-96 0 -50 143 -32 193c6 17 13 34 21 51c-84 8 -165 23 -248 33
c-77 -175 -177 -353 -295 -389c-32 -11 -60 -11 -83 -4c-28 9 -47 28 -55 58c-5 17 7 42 17 5c6 -20 19 -32 38 -37c16 -3 46 -7 67 0c118 37 208 205 273 372l-53 3c-70 4 -155 -5 -182 -81c-7 -15 -7 -29 0 -39c8 -13 -9 -22 -18 -8c-7 13 -12 37 -10 61
c11 121 115 121 215 109c20 -2 41 -5 61 -9c23 61 42 121 58 172c-39 -35 -89 -51 -130 -55c-15 -1 -14 15 1 17zM734 627c6 -9 6 -29 -10 -15c-12 12 -72 60 -83 72c-32 -20 -59 -46 -90 -67c-30 -19 -19 6 -9 15c18 13 92 86 112 87c18 -7 62 -65 80 -92z" />
    <glyph glyph-name="Ibreve" unicode="&#x12c;" horiz-adv-x="312"
d="M240 68c79 105 139 334 170 455c-108 -9 -218 -45 -214 -120c3 -38 44 -50 60 -60c11 -8 8 -13 -2 -10c-24 5 -78 37 -79 84c0 1 -3 8 -3 12c-6 101 127 139 249 139c0 4 1 6 3 10c3 14 57 17 55 0c-2 -4 -4 -8 -5 -13c43 -3 81 -13 107 -26c15 -7 54 -49 -6 -29
c-26 9 -69 14 -115 14c-40 -122 -113 -360 -201 -472c-13 -15 -25 -29 -38 -39c73 -1 136 1 178 4c33 2 7 -20 1 -24c-18 -9 -316 -15 -363 -14c-26 1 -37 9 -23 43c10 23 45 26 56 17c40 -30 111 -49 170 29zM517 743c5 -3 7 -9 7 -11c-37 -148 -283 -177 -258 -9
c5 31 35 20 35 4c-2 -114 163 -130 209 15c1 5 6 2 7 1z" />
    <glyph glyph-name="Itilde" unicode="&#x128;" horiz-adv-x="312"
d="M240 68c79 105 139 334 170 455c-108 -9 -218 -45 -214 -120c3 -38 44 -50 60 -60c11 -8 8 -13 -2 -10c-24 5 -78 37 -79 84c0 1 -3 8 -3 12c-6 101 127 139 249 139c0 4 1 6 3 10c3 14 57 17 55 0c-2 -4 -4 -8 -5 -13c43 -3 81 -13 107 -26c15 -7 54 -49 -6 -29
c-26 9 -69 14 -115 14c-40 -122 -113 -360 -201 -472c-13 -15 -25 -29 -38 -39c73 -1 136 1 178 4c33 2 7 -20 1 -24c-18 -9 -316 -15 -363 -14c-26 1 -37 9 -23 43c10 23 45 26 56 17c40 -30 111 -49 170 29zM605 699c-18 -40 -55 -72 -93 -60c-37 14 -73 36 -111 29
c-21 -5 -39 -18 -50 -35c-4 -5 -17 0 -15 4c30 42 64 88 110 72c20 -7 54 -29 81 -37c30 -9 49 -2 60 30c4 6 20 2 18 -3z" />
    <glyph glyph-name="IJ" unicode="&#x132;" horiz-adv-x="696"
d="M240 68c79 105 139 334 170 455c-108 -9 -218 -45 -214 -120c3 -38 44 -50 60 -60c11 -8 8 -13 -2 -10c-24 5 -78 37 -79 84c0 1 -3 8 -3 12c-6 101 127 139 249 139c0 4 1 6 3 10c3 14 57 17 55 0c-2 -4 -4 -8 -5 -13c43 -3 81 -13 107 -26l4 -2c72 33 184 37 264 23
c16 18 33 29 52 29c16 0 13 -14 0 -16c-7 -3 -19 -9 -29 -18c18 -5 34 -10 47 -16c15 -7 53 -49 -7 -29c-15 5 -35 9 -58 12c-24 -58 -44 -145 -63 -208c46 11 85 16 96 10c8 -5 4 -17 -3 -14c-15 8 -93 -6 -102 -31c-173 -476 -468 -454 -433 -291c-92 -6 -277 -10 -312 -9
c-26 1 -37 9 -23 43c10 23 45 26 56 17c40 -30 111 -49 170 29zM552 515c-25 5 -57 9 -92 9c-40 -122 -113 -360 -201 -472c-13 -15 -25 -29 -38 -39c51 -1 99 0 136 1c10 24 27 50 50 78c90 103 203 166 333 207c16 48 44 155 84 225c-123 5 -295 -27 -290 -121
c2 -38 43 -50 60 -60c11 -8 7 -13 -3 -10c-24 5 -77 37 -79 84c0 1 -2 8 -2 12c-3 36 15 65 42 86zM734 280c-110 -36 -205 -95 -278 -185c-24 -28 -39 -55 -47 -78c16 -3 0 -18 -8 -23c-21 -94 74 -124 174 -4c69 84 121 188 159 290z" />
    <glyph glyph-name="Jcircumflex" unicode="&#x134;" horiz-adv-x="384"
d="M589 589c16 0 12 -14 0 -16c-8 -3 -19 -9 -29 -18c17 -5 34 -10 46 -16c15 -7 54 -49 -6 -29c-15 5 -35 9 -59 12c-24 -58 -44 -145 -62 -208c46 11 85 16 96 10c7 -5 4 -17 -4 -14c-15 8 -92 -6 -101 -31c-206 -566 -585 -427 -375 -187c90 103 202 166 332 207
c17 48 44 155 84 225c-122 5 -295 -27 -290 -121c3 -38 44 -50 60 -60c11 -8 8 -13 -2 -10c-24 5 -78 37 -79 84c0 1 -3 8 -3 12c-7 128 207 155 339 131c16 18 34 29 53 29zM421 280c-110 -36 -205 -95 -277 -185c-133 -163 -12 -262 118 -105c69 84 122 188 159 290z
M659 637c6 -9 6 -29 -10 -15c-12 12 -72 60 -83 72c-32 -20 -59 -46 -90 -67c-30 -19 -19 6 -9 15c18 13 92 86 112 87c18 -7 62 -65 80 -92z" />
    <glyph glyph-name="Ldot" unicode="&#x13f;" horiz-adv-x="471"
d="M212 84l22 6c26 77 46 150 55 178c33 106 66 199 107 245c115 130 239 80 239 -38c0 -175 -194 -332 -359 -390c-17 -40 -36 -81 -57 -117c108 -70 236 -155 381 -143c61 5 154 47 112 124c-8 18 12 20 20 4c14 -29 17 -55 15 -80c-1 -48 -47 -94 -126 -100
c-171 -14 -301 99 -412 179c-33 -57 -68 -95 -98 -90c-11 2 -7 13 0 13c24 2 50 40 74 93c-33 22 -64 40 -94 50c-25 -10 -55 -15 -64 -13c-22 8 -25 39 9 49c15 5 63 -17 108 0c6 3 23 3 6 -9c-9 -5 -38 -7 -46 -11c10 -4 26 -12 35 -17l53 -33c12 28 24 56 34 88
c-4 -2 -9 -3 -12 -3c-22 -4 -15 11 -2 15zM335 240c-9 -25 -25 -73 -48 -127c144 65 273 185 303 342c11 59 1 115 -53 115c-118 0 -176 -248 -202 -330zM527 139c0 -10 -17 -39 -26 -39c-14 0 -34 0 -34 17c0 5 28 28 33 33c32 25 27 4 27 -11z" />
    <glyph glyph-name="Obreve" unicode="&#x14e;" horiz-adv-x="614"
d="M717 337c0 -210 -176 -377 -332 -413c-348 -81 -396 460 -44 543c39 8 94 10 126 -23c14 -15 12 -19 8 -19s-10 5 -16 8c-20 7 -45 9 -63 5c-292 -69 -366 -571 -22 -491c136 31 297 252 293 426c-3 137 -93 202 -230 192c-76 -5 -152 -37 -205 -75
c-90 -63 -161 -165 -168 -260c-2 -23 -18 -3 -18 15c-1 100 64 199 156 265c67 48 160 79 238 80c160 0 277 -91 277 -253zM682 767c5 -3 7 -9 7 -12c-37 -147 -283 -176 -258 -8c5 31 35 20 35 3c-2 -113 163 -130 209 15c1 5 6 3 7 2z" />
    <glyph glyph-name="Oslashacute" unicode="&#x1fe;" horiz-adv-x="614"
d="M642 577l-31 -33c65 -42 106 -112 106 -207c0 -210 -176 -377 -332 -413c-95 -22 -169 3 -216 51l-5 -7c-14 -23 -55 -31 -47 -10c3 9 13 25 28 46c-98 141 -43 406 196 463c39 8 94 10 126 -23l5 -6c37 45 69 82 92 109c-35 16 -78 22 -127 18c-76 -5 -152 -37 -205 -75
c-90 -63 -161 -165 -168 -260c-2 -23 -18 -3 -18 15c-1 100 64 199 156 265c67 48 160 79 238 80c51 0 97 -10 137 -27l18 17c19 17 64 15 47 -3zM667 373c-2 71 -27 124 -70 155c-105 -116 -303 -356 -418 -535c36 -45 98 -69 195 -46c136 31 297 252 293 426zM396 438
c-194 -46 -291 -280 -236 -411c69 98 204 275 306 402l-7 4c-20 7 -45 9 -63 5zM670 710l-1 -1c-22 -17 -143 -75 -160 -76c-13 0 -8 7 -4 11c1 3 44 30 55 39c26 22 56 39 75 64c11 5 24 -3 29 -4c13 -9 13 -26 6 -33z" />
    <glyph glyph-name="Scircumflex" unicode="&#x15c;" horiz-adv-x="532"
d="M645 528c0 -18 -5 -30 -18 -51c-15 -28 -52 -55 -52 -35c0 5 44 36 44 63c0 29 -35 43 -85 43c-37 0 -130 -14 -203 -54c-80 -44 -92 -75 -31 -104c96 -45 292 -88 292 -193c0 -28 -16 -57 -46 -87c-95 -91 -266 -156 -384 -156c-93 0 -148 31 -148 90
c0 61 41 114 97 150c51 35 115 55 168 55c31 0 21 -15 -2 -15c-48 0 -113 -26 -158 -67c-89 -80 -68 -167 62 -167c68 0 146 19 176 29c73 24 158 66 187 111c101 154 -330 145 -330 274c0 110 233 169 321 169c74 0 110 -18 110 -55zM639 634c6 -9 6 -29 -10 -15
c-12 13 -72 60 -83 73c-32 -20 -59 -47 -90 -68c-30 -19 -19 6 -9 15c18 14 92 86 112 88c18 -8 62 -65 80 -93z" />
    <glyph glyph-name="Tbar" unicode="&#x166;" horiz-adv-x="251"
d="M664 365c6 -8 -7 -21 -20 -5c-13 14 -14 84 8 129c5 9 18 24 24 30c-130 3 -266 29 -392 10c-120 -16 -227 -69 -245 -152c-12 -49 40 -68 60 -83c12 -9 3 -16 -9 -12c-34 10 -98 56 -76 115c0 1 0 11 1 16c21 100 142 147 271 156c154 10 328 -34 403 -35
c18 20 31 30 41 31c25 5 51 -12 29 -36c-10 -10 -32 -22 -52 -42c-35 -35 -67 -85 -43 -122zM395 310l-54 -3c-61 -93 -116 -207 -137 -257c-24 -57 10 -53 32 -26c14 18 28 35 36 34c7 -5 -11 -25 -12 -26c-16 -22 -43 -70 -70 -70c-6 0 -38 5 -39 12
c-9 58 103 251 145 330c-24 -1 -46 -2 -60 -2c-46 -3 -11 36 9 36h67c5 15 2 22 0 27c7 33 77 119 129 119c13 0 63 -14 59 -45c-4 3 -9 5 -13 5c-36 0 -80 -45 -123 -105h30c32 0 53 -6 55 -12c0 -13 -47 -15 -54 -17z" />
    <glyph glyph-name="Ubreve" unicode="&#x16c;" horiz-adv-x="474"
d="M476 484c33 69 76 115 136 110c63 -4 69 -54 55 -100c-35 -117 -160 -241 -232 -335c-10 -52 -16 -130 -18 -179c-1 -68 10 -118 33 -146c14 -15 34 -21 49 -4c3 5 7 10 12 15c10 10 18 7 14 -7c-3 -5 -6 -13 -13 -19c-11 -14 -43 -21 -63 -20c-45 1 -65 44 -74 98
c-8 57 -4 138 9 225c-77 -74 -175 -154 -270 -154c-34 0 -62 17 -69 65c-16 119 89 282 136 399c8 17 -1 18 -24 0c-45 -38 -95 -67 -136 -70c-15 -2 -12 15 3 16c57 6 192 126 210 159c5 15 70 18 63 0c-22 -37 -170 -277 -195 -414c-15 -88 9 -120 45 -120
c70 0 174 89 242 155c20 129 55 260 87 326zM451 223c70 66 159 191 185 287c14 54 -7 83 -51 35c-74 -82 -109 -193 -134 -322zM559 735c5 -2 6 -8 6 -11c-36 -147 -283 -176 -258 -9c5 32 35 20 35 4c-2 -114 163 -130 209 15c1 5 6 3 8 1z" />
    <glyph glyph-name="Utilde" unicode="&#x168;" horiz-adv-x="474"
d="M476 484c33 69 76 115 136 110c63 -4 69 -54 55 -100c-35 -117 -160 -241 -232 -335c-10 -52 -16 -130 -18 -179c-1 -68 10 -118 33 -146c14 -15 34 -21 49 -4c3 5 7 10 12 15c10 10 18 7 14 -7c-3 -5 -6 -13 -13 -19c-11 -14 -43 -21 -63 -20c-45 1 -65 44 -74 98
c-8 57 -4 138 9 225c-77 -74 -175 -154 -270 -154c-34 0 -62 17 -69 65c-16 119 89 282 136 399c8 17 -1 18 -24 0c-45 -38 -95 -67 -136 -70c-15 -2 -12 15 3 16c57 6 192 126 210 159c5 15 70 18 63 0c-22 -37 -170 -277 -195 -414c-15 -88 9 -120 45 -120
c70 0 174 89 242 155c20 129 55 260 87 326zM451 223c70 66 159 191 185 287c14 54 -7 83 -51 35c-74 -82 -109 -193 -134 -322zM616 692c-17 -40 -55 -73 -92 -60c-38 13 -74 36 -112 28c-21 -5 -38 -17 -50 -35c-3 -5 -17 0 -15 4c30 43 64 89 110 73c20 -8 54 -29 82 -38
c30 -9 48 -1 60 30c3 6 20 3 17 -2z" />
    <glyph glyph-name="Wacute" unicode="&#x1e82;" horiz-adv-x="810"
d="M612 298c-2 -155 77 -304 167 -301c150 2 227 358 111 482c-24 25 -59 39 -100 33c-15 -2 -30 -8 -44 -18c-11 -7 -26 6 -15 14c64 46 131 50 180 17c168 -108 43 -568 -164 -566c-103 0 -193 126 -183 281c-64 -80 -174 -186 -263 -248c-67 -50 -139 -84 -211 -83
c-103 3 -88 74 -41 153c47 81 111 171 167 256c48 69 105 150 133 205c-123 9 -309 -23 -304 -120c2 -38 44 -50 60 -60c11 -8 7 -13 -3 -10c-23 5 -77 37 -78 84c0 1 -4 8 -4 12c-6 129 212 156 344 130c2 10 2 18 0 23c-7 13 17 21 26 -3c1 -6 1 -15 -1 -26
c15 -4 28 -9 40 -14c16 -7 55 -49 -5 -29c-13 4 -28 8 -45 10c-20 -57 -67 -143 -115 -215c-68 -100 -142 -210 -172 -298c-42 -123 74 -75 184 -2c111 77 213 178 290 287c-2 40 -2 105 5 147c4 25 68 104 71 16c2 -41 -2 -101 -30 -157zM774 687l-2 -2
c-21 -17 -142 -75 -160 -76c-12 0 -7 8 -3 11c1 3 43 30 55 39c26 23 56 39 75 64c11 5 23 -3 28 -4c14 -9 14 -26 7 -32z" />
    <glyph glyph-name="Wcircumflex" unicode="&#x174;" horiz-adv-x="810"
d="M612 298c-2 -155 77 -304 167 -301c150 2 227 358 111 482c-24 25 -59 39 -100 33c-15 -2 -30 -8 -44 -18c-11 -7 -26 6 -15 14c64 46 131 50 180 17c168 -108 43 -568 -164 -566c-103 0 -193 126 -183 281c-64 -80 -174 -186 -263 -248c-67 -50 -139 -84 -211 -83
c-103 3 -88 74 -41 153c47 81 111 171 167 256c48 69 105 150 133 205c-123 9 -309 -23 -304 -120c2 -38 44 -50 60 -60c11 -8 7 -13 -3 -10c-23 5 -77 37 -78 84c0 1 -4 8 -4 12c-6 129 212 156 344 130c2 10 2 18 0 23c-7 13 17 21 26 -3c1 -6 1 -15 -1 -26
c15 -4 28 -9 40 -14c16 -7 55 -49 -5 -29c-13 4 -28 8 -45 10c-20 -57 -67 -143 -115 -215c-68 -100 -142 -210 -172 -298c-42 -123 74 -75 184 -2c111 77 213 178 290 287c-2 40 -2 105 5 147c4 25 68 104 71 16c2 -41 -2 -101 -30 -157zM761 622c6 -9 6 -29 -10 -15
c-11 12 -71 60 -82 72c-33 -20 -59 -46 -90 -67c-30 -19 -19 6 -9 15c17 13 91 86 111 87c19 -7 63 -65 80 -92z" />
    <glyph glyph-name="Wdieresis" unicode="&#x1e84;" horiz-adv-x="810"
d="M612 298c-2 -155 77 -304 167 -301c150 2 227 358 111 482c-24 25 -59 39 -100 33c-15 -2 -30 -8 -44 -18c-11 -7 -26 6 -15 14c64 46 131 50 180 17c168 -108 43 -568 -164 -566c-103 0 -193 126 -183 281c-64 -80 -174 -186 -263 -248c-67 -50 -139 -84 -211 -83
c-103 3 -88 74 -41 153c47 81 111 171 167 256c48 69 105 150 133 205c-123 9 -309 -23 -304 -120c2 -38 44 -50 60 -60c11 -8 7 -13 -3 -10c-23 5 -77 37 -78 84c0 1 -4 8 -4 12c-6 129 212 156 344 130c2 10 2 18 0 23c-7 13 17 21 26 -3c1 -6 1 -15 -1 -26
c15 -4 28 -9 40 -14c16 -7 55 -49 -5 -29c-13 4 -28 8 -45 10c-20 -57 -67 -143 -115 -215c-68 -100 -142 -210 -172 -298c-42 -123 74 -75 184 -2c111 77 213 178 290 287c-2 40 -2 105 5 147c4 25 68 104 71 16c2 -41 -2 -101 -30 -157zM606 667c0 -10 -17 -39 -26 -39
c-14 0 -34 0 -34 16c0 5 43 36 48 40c32 26 12 -2 12 -17zM765 667c0 -10 -19 -39 -26 -39c-15 0 -34 0 -34 16c0 5 42 36 47 40c33 26 13 -2 13 -17z" />
    <glyph glyph-name="Wgrave" unicode="&#x1e80;" horiz-adv-x="810"
d="M612 298c-2 -155 77 -304 167 -301c150 2 227 358 111 482c-24 25 -59 39 -100 33c-15 -2 -30 -8 -44 -18c-11 -7 -26 6 -15 14c64 46 131 50 180 17c168 -108 43 -568 -164 -566c-103 0 -193 126 -183 281c-64 -80 -174 -186 -263 -248c-67 -50 -139 -84 -211 -83
c-103 3 -88 74 -41 153c47 81 111 171 167 256c48 69 105 150 133 205c-123 9 -309 -23 -304 -120c2 -38 44 -50 60 -60c11 -8 7 -13 -3 -10c-23 5 -77 37 -78 84c0 1 -4 8 -4 12c-6 129 212 156 344 130c2 10 2 18 0 23c-7 13 17 21 26 -3c1 -6 1 -15 -1 -26
c15 -4 28 -9 40 -14c16 -7 55 -49 -5 -29c-13 4 -28 8 -45 10c-20 -57 -67 -143 -115 -215c-68 -100 -142 -210 -172 -298c-42 -123 74 -75 184 -2c111 77 213 178 290 287c-2 40 -2 105 5 147c4 25 68 104 71 16c2 -41 -2 -101 -30 -157zM736 619c5 -2 9 -11 -4 -11
s-91 36 -133 60c-14 7 -58 37 -22 50c18 6 37 -8 58 -23c34 -26 67 -51 101 -76z" />
    <glyph glyph-name="Ycircumflex" unicode="&#x176;" horiz-adv-x="310"
d="M694 552c18 -4 10 -20 -4 -20c-53 5 -83 -35 -111 -112c-25 -65 -103 -325 -120 -373c45 11 81 16 92 10c6 -5 3 -18 -5 -14c-14 7 -92 -8 -101 -31c-221 -562 -584 -428 -375 -189c91 104 202 167 332 209c13 33 40 145 72 253c-105 -160 -247 -317 -360 -317
c-34 0 -62 17 -69 65c-16 119 89 282 136 399c8 17 -1 18 -24 0c-45 -38 -95 -67 -136 -70c-15 -2 -12 15 3 16c57 6 192 126 210 159c5 15 70 18 63 0c-22 -37 -170 -278 -195 -414c-15 -88 9 -120 45 -120c114 0 289 255 377 441c10 21 17 41 26 58c5 10 9 17 14 21
c8 14 20 21 32 26c43 18 86 4 98 3zM396 13c-109 -36 -204 -95 -277 -185c-133 -164 -10 -263 118 -106c70 85 122 188 159 291zM571 628c6 -9 6 -29 -10 -15c-11 12 -71 60 -82 72c-33 -20 -59 -46 -90 -67c-30 -19 -19 6 -9 15c17 14 91 86 111 87c19 -7 63 -65 80 -92z
" />
    <glyph glyph-name="Ygrave" unicode="&#x1ef2;" horiz-adv-x="310"
d="M694 552c18 -4 10 -20 -4 -20c-53 5 -83 -35 -111 -112c-25 -65 -103 -325 -120 -373c45 11 81 16 92 10c6 -5 3 -18 -5 -14c-14 7 -92 -8 -101 -31c-221 -562 -584 -428 -375 -189c91 104 202 167 332 209c13 33 40 145 72 253c-105 -160 -247 -317 -360 -317
c-34 0 -62 17 -69 65c-16 119 89 282 136 399c8 17 -1 18 -24 0c-45 -38 -95 -67 -136 -70c-15 -2 -12 15 3 16c57 6 192 126 210 159c5 15 70 18 63 0c-22 -37 -170 -278 -195 -414c-15 -88 9 -120 45 -120c114 0 289 255 377 441c10 21 17 41 26 58c5 10 9 17 14 21
c8 14 20 21 32 26c43 18 86 4 98 3zM396 13c-109 -36 -204 -95 -277 -185c-133 -164 -10 -263 118 -106c70 85 122 188 159 291zM521 603c5 -3 9 -11 -4 -11s-91 36 -133 60c-14 7 -58 37 -22 50c18 6 37 -8 58 -23c34 -26 67 -51 101 -76z" />
    <glyph glyph-name="gcircumflex" unicode="&#x11d;" horiz-adv-x="416"
d="M275 -50c-43 -88 -83 -171 -114 -220c-37 -55 -96 -122 -164 -110c-7 2 -15 4 -20 7c-63 31 -33 91 20 153c50 58 154 127 219 170c46 94 85 187 100 233c-27 -33 -65 -78 -80 -94c-37 -41 -95 -100 -145 -100c-21 0 -49 14 -64 34c-73 94 154 244 229 262
c29 8 74 10 100 -8c10 -7 18 -17 18 -27c0 -7 -3 -7 -8 -5c-10 17 -30 19 -49 19c-52 0 -122 -40 -173 -86c-30 -26 -112 -121 -80 -165c11 -16 58 10 98 41c63 49 128 118 165 163c9 23 72 -4 67 -15c-25 -55 -62 -129 -99 -208c26 14 114 86 176 158c26 30 31 6 5 -24
c-44 -50 -162 -156 -201 -178zM197 -88c-52 -39 -125 -95 -177 -148c-40 -40 -65 -100 -33 -117c9 -5 24 -2 48 17c76 63 120 163 162 248zM415 357c6 -9 6 -29 -10 -15c-11 12 -71 60 -83 72c-32 -20 -58 -46 -90 -67c-30 -19 -18 6 -8 15c17 13 91 86 111 87
c19 -7 62 -65 80 -92z" />
    <glyph glyph-name="gdotaccent" unicode="&#x121;" horiz-adv-x="416"
d="M275 -50c-43 -88 -83 -171 -114 -220c-37 -55 -96 -122 -164 -110c-7 2 -15 4 -20 7c-63 31 -33 91 20 153c50 58 154 127 219 170c46 94 85 187 100 233c-27 -33 -65 -78 -80 -94c-37 -41 -95 -100 -145 -100c-21 0 -49 14 -64 34c-73 94 154 244 229 262
c29 8 74 10 100 -8c10 -7 18 -17 18 -27c0 -7 -3 -7 -8 -5c-10 17 -30 19 -49 19c-52 0 -122 -40 -173 -86c-30 -26 -112 -121 -80 -165c11 -16 58 10 98 41c63 49 128 118 165 163c9 23 72 -4 67 -15c-25 -55 -62 -129 -99 -208c26 14 114 86 176 158c26 30 31 6 5 -24
c-44 -50 -162 -156 -201 -178zM197 -88c-52 -39 -125 -95 -177 -148c-40 -40 -65 -100 -33 -117c9 -5 24 -2 48 17c76 63 120 163 162 248zM386 400c0 -8 -19 -38 -27 -38c-14 0 -34 0 -34 17c0 4 27 29 32 33c34 26 29 5 29 -12z" />
    <glyph glyph-name="aeacute" unicode="&#x1fd;" horiz-adv-x="565"
d="M627 138c-38 -66 -103 -121 -173 -150c-49 -20 -105 -21 -143 -1c-60 30 -49 97 -29 150c-17 -8 -112 -148 -192 -148c-21 0 -49 14 -64 34c-74 94 154 244 229 262c30 8 74 10 100 -8c10 -7 17 -17 17 -27c0 -7 -1 -7 -6 -5c-11 17 -31 19 -50 19
c-52 0 -122 -40 -174 -86c-28 -26 -111 -121 -80 -165c14 -20 63 16 77 27c26 22 71 60 97 88c14 15 90 99 99 99c6 0 24 -3 34 -9c56 47 126 85 170 70c41 -14 35 -65 16 -93c-36 -53 -130 -91 -176 -95c-15 -1 -22 13 -7 14c33 3 88 35 125 65c17 13 47 43 45 65
c-1 28 -37 13 -51 6c-59 -27 -145 -110 -167 -183c-25 -84 53 -85 117 -59c74 30 136 86 175 139c4 5 9 5 10 3c5 -2 5 -7 1 -12zM467 435l-1 -1c-21 -17 -142 -75 -160 -76c-12 0 -7 7 -4 11c2 3 44 30 55 39c27 22 57 39 75 64c12 5 24 -3 29 -4c14 -9 14 -26 6 -33z" />
    </font>
</defs>
</svg>
