<?xml version="1.0" standalone="no"?>
<!DOCTYPE svg PUBLIC "-//W3C//DTD SVG 1.1//EN" "http://www.w3.org/Graphics/SVG/1.1/DTD/svg11.dtd" >
<svg xmlns="http://www.w3.org/2000/svg" xmlns:xlink="http://www.w3.org/1999/xlink" version="1.1">
<metadata>
Created by FontForge 20230101 at Sat Sep 30 05:29:59 2023
 By Glenn Lewis
Copyright 2022 The Noto Project Authors (https://github.com/notofonts/latin-greek-cyrillic)
</metadata>
<defs>
<font id="NotoSansSemiCondensed-MediumItalic" horiz-adv-x="0" >
  <font-face 
    font-family="Noto Sans SemiCondensed Medium"
    font-weight="500"
    font-style="italic"
    font-stretch="semi-condensed"
    units-per-em="1000"
    panose-1="2 11 5 2 4 5 4 9 2 4"
    ascent="800"
    descent="-200"
    x-height="539"
    cap-height="714"
    bbox="-627 -394 2687 1065"
    underline-thickness="50"
    underline-position="-125"
    slope="-12"
    unicode-range="U+000D-1DF1E"
  />
<missing-glyph horiz-adv-x="584" 
d="M94 0v714h401v-714h-401zM143 49h303v616h-303v-616z" />
    <glyph glyph-name="f_f" unicode="ff" horiz-adv-x="592" 
d="M-50 -240q-18 0 -34.5 2.5t-29.5 6.5v85q12 -4 25 -7t26 -3q32 0 51 25.5t30 80.5l108 510h-77l10 48l84 32l11 49q11 46 25 79.5t34 55t48 31.5t65 10q26 0 50.5 -5t42.5 -14l-30 -77q-12 5 -26 9t-30 4q-33 0 -51 -22.5t-29 -73.5l-11 -47h192l11 50q11 46 25 79.5
t34.5 55t48 31.5t65.5 10q25 0 50 -5t43 -14l-30 -77q-13 5 -27 9t-30 4q-32 0 -50.5 -22.5t-29.5 -73.5l-10 -47h99l-17 -79h-98l-111 -521q-11 -52 -30.5 -93t-51.5 -63.5t-83 -22.5q-19 0 -35.5 2.5t-28.5 6.5v85q11 -4 24 -7t27 -3q32 0 50.5 26t30.5 80l108 510h-192
l-111 -521q-11 -52 -30 -93t-51.5 -63.5t-83.5 -22.5z" />
    <glyph glyph-name="f_f_i" unicode="ffi" horiz-adv-x="834" 
d="M-50 -240q-18 0 -34.5 2.5t-29.5 6.5v85q12 -4 25 -7t26 -3q32 0 51 25.5t30 80.5l108 510h-77l10 48l84 32l11 49q11 46 25 79.5t34 55t48 31.5t65 10q26 0 50.5 -5t42.5 -14l-30 -77q-12 5 -26 9t-30 4q-33 0 -51 -22.5t-29 -73.5l-11 -47h192l11 50q11 46 25 79.5
t34.5 55t48 31.5t65.5 10q25 0 50 -5t43 -14l-30 -77q-13 5 -27 9t-30 4q-32 0 -50.5 -22.5t-29.5 -73.5l-10 -47h99l-17 -79h-98l-111 -521q-11 -52 -30.5 -93t-51.5 -63.5t-83 -22.5q-19 0 -35.5 2.5t-28.5 6.5v85q11 -4 24 -7t27 -3q32 0 50.5 26t30.5 80l108 510h-192
l-111 -521q-11 -52 -30 -93t-51.5 -63.5t-83.5 -22.5zM604 0l115 539h100l-115 -539h-100zM793 622q-22 0 -36.5 12t-14.5 36q0 20 7.5 36.5t22.5 26.5t36 10q24 0 37 -11.5t13 -34.5q0 -33 -18.5 -54t-46.5 -21z" />
    <glyph glyph-name="f_f_l" unicode="ffl" horiz-adv-x="834" 
d="M-50 -240q-18 0 -34.5 2.5t-29.5 6.5v85q12 -4 25 -7t26 -3q32 0 51 25.5t30 80.5l108 510h-77l10 48l84 32l11 49q11 46 25 79.5t34 55t48 31.5t65 10q26 0 50.5 -5t42.5 -14l-30 -77q-12 5 -26 9t-30 4q-33 0 -51 -22.5t-29 -73.5l-11 -47h192l11 50q11 46 25 79.5
t34.5 55t48 31.5t65.5 10q25 0 50 -5t43 -14l-30 -77q-13 5 -27 9t-30 4q-32 0 -50.5 -22.5t-29.5 -73.5l-10 -47h99l-17 -79h-98l-111 -521q-11 -52 -30.5 -93t-51.5 -63.5t-83 -22.5q-19 0 -35.5 2.5t-28.5 6.5v85q11 -4 24 -7t27 -3q32 0 50.5 26t30.5 80l108 510h-192
l-111 -521q-11 -52 -30 -93t-51.5 -63.5t-83.5 -22.5zM605 0l161 760h100l-162 -760h-99z" />
    <glyph glyph-name="fi" unicode="fi" horiz-adv-x="544" 
d="M-50 -240q-18 0 -34.5 2.5t-29.5 6.5v85q12 -4 25 -7t26 -3q35 0 52.5 27.5t28.5 78.5l108 510h-77l10 48l84 32l11 49q11 46 25 79.5t34 55t48 31.5t65 10q26 0 50.5 -5t42.5 -14l-30 -77q-12 5 -26 9t-30 4q-33 0 -51 -22.5t-29 -73.5l-11 -47h99l-16 -79h-99
l-111 -521q-11 -52 -30 -93t-51.5 -63.5t-83.5 -22.5zM314 0l115 539h99l-114 -539h-100zM503 622q-24 0 -38 12t-14 36q0 20 8 36.5t22.5 26.5t36.5 10q23 0 36.5 -11.5t13.5 -34.5q0 -33 -18.5 -54t-46.5 -21z" />
    <glyph glyph-name="fl" unicode="fl" horiz-adv-x="543" 
d="M-50 -240q-18 0 -34.5 2.5t-29.5 6.5v85q12 -4 25 -7t26 -3q35 0 52.5 27.5t28.5 78.5l108 510h-77l10 48l84 32l11 49q11 46 25 79.5t34 55t48 31.5t65 10q26 0 50.5 -5t42.5 -14l-30 -77q-12 5 -26 9t-30 4q-33 0 -51 -22.5t-29 -73.5l-11 -47h99l-16 -79h-99
l-111 -521q-11 -52 -30 -93t-51.5 -63.5t-83.5 -22.5zM314 0l161 760h100l-162 -760h-99z" />
    <glyph glyph-name=".notdef" horiz-adv-x="584" 
d="M94 0v714h401v-714h-401zM143 49h303v616h-303v-616z" />
    <glyph glyph-name="NULL" 
 />
    <glyph glyph-name="CR" unicode="&#xd;" horiz-adv-x="227" 
 />
    <glyph glyph-name="space" unicode=" " horiz-adv-x="227" 
 />
    <glyph glyph-name="exclam" unicode="!" horiz-adv-x="257" 
d="M69 210l91 504h117l-125 -504h-83zM69 -12q-27 0 -41 15t-14 39q0 34 19 60t60 26q24 0 38 -14.5t14 -40.5q0 -34 -20 -59.5t-56 -25.5z" />
    <glyph glyph-name="quotedbl" unicode="&#x22;" horiz-adv-x="390" 
d="M275 456l37 258h105l-73 -258h-69zM103 456l37 258h104l-72 -258h-69z" />
    <glyph glyph-name="numbersign" unicode="#" horiz-adv-x="570" 
d="M61 0l61 209h-105l9 74h118l46 152h-111l9 74h123l60 205h78l-61 -205h114l61 205h75l-60 -205h106l-9 -74h-119l-46 -152h114l-9 -74h-127l-62 -209h-77l63 209h-113l-62 -209h-76zM221 283h113l45 152h-113z" />
    <glyph glyph-name="dollar" unicode="$" horiz-adv-x="497" 
d="M169 47q-44 2 -82 11.5t-66 25.5l5 93q32 -19 74.5 -32.5t85.5 -15.5l43 203q-35 17 -63.5 38t-45 50.5t-16.5 71.5q0 59 25.5 98.5t70.5 61t102 26.5l18 81h57l-17 -82q39 -3 71 -12.5t60 -25.5l-39 -81q-23 14 -51 24t-59 12l-42 -194q39 -18 68 -39.5t45 -50.5t16 -71
q0 -57 -25.5 -98t-71 -64.5t-107.5 -29.5l-22 -105h-57zM243 132q28 4 48.5 16.5t32 32.5t11.5 47q0 17 -6 30.5t-17.5 25.5t-31.5 22zM284 594q-26 -3 -46 -15t-31 -31.5t-11 -47.5q0 -15 6 -28.5t17.5 -24.5t29.5 -21z" />
    <glyph glyph-name="percent" unicode="%" horiz-adv-x="750" 
d="M109 0l473 714h83l-473 -714h-83zM173 276q-52 0 -80.5 35.5t-28.5 102.5q0 31 6 71.5t19 82.5t34.5 77.5t53 57t73.5 21.5q53 0 82 -34t29 -100q0 -30 -6 -70.5t-19.5 -83t-35.5 -79t-53.5 -59t-73.5 -22.5zM181 349q21 0 37 18.5t28 48t19.5 62.5t11.5 62.5t4 48.5
q0 32 -10 47.5t-28 15.5q-20 0 -36 -18t-28 -46t-19.5 -60.5t-11.5 -63t-4 -51.5q0 -33 9.5 -48.5t27.5 -15.5zM525 -10q-53 0 -81.5 35t-28.5 101q0 35 6 77t19.5 83t35.5 76t53 55.5t72 20.5q54 0 82.5 -33.5t28.5 -98.5q0 -31 -6 -72t-19.5 -83.5t-35.5 -79t-53 -59
t-73 -22.5zM532 63q21 0 37 18.5t28 48t19.5 62.5t11 63t3.5 48q0 33 -9.5 48t-27.5 15q-21 0 -37 -18t-27.5 -46.5t-19 -61t-11 -63t-3.5 -50.5q0 -32 9 -48t27 -16z" />
    <glyph glyph-name="ampersand" unicode="&#x26;" horiz-adv-x="599" 
d="M187 -10q-77 0 -122.5 43t-45.5 122q0 53 20 95.5t58.5 77.5t94.5 66q-16 31 -27 65.5t-11 72.5q0 56 22 99t63 68.5t97 25.5q45 0 76.5 -16.5t49 -45.5t17.5 -69q0 -49 -22 -88t-59.5 -70.5t-86.5 -60.5l96 -164q25 29 43 64.5t32 74.5h99q-15 -40 -34.5 -78.5
t-42.5 -73t-50 -64.5l82 -134h-118l-38 67q-40 -33 -84.5 -55t-108.5 -22zM206 76q28 0 50.5 8.5t42.5 22.5t38 30l-108 192q-31 -20 -55.5 -43t-39 -52t-14.5 -68q0 -27 10.5 -47.5t30 -31.5t45.5 -11zM275 439q20 13 39.5 28t35 32.5t25 38.5t9.5 45q0 28 -14.5 45.5
t-41.5 17.5q-26 0 -43.5 -14.5t-26.5 -39t-9 -53.5q0 -28 6.5 -53t19.5 -47z" />
    <glyph glyph-name="quotesingle" unicode="'" horiz-adv-x="217" 
d="M104 456l37 258h104l-72 -258h-69z" />
    <glyph glyph-name="parenleft" unicode="(" horiz-adv-x="288" 
d="M95 -158q-21 38 -35 83.5t-21.5 95.5t-7.5 100q0 86 16 167t47 156t76 143.5t102 129.5h89q-52 -61 -95.5 -130t-75.5 -144t-49 -156t-17 -167q0 -51 5.5 -100t16.5 -93.5t28 -84.5h-79z" />
    <glyph glyph-name="parenright" unicode=")" horiz-adv-x="288" 
d="M-75 -158q52 61 95.5 129.5t75 144t48.5 156t17 166.5q0 51 -5.5 100t-16.5 94.5t-27 84.5h79q22 -40 35.5 -85t20.5 -94t7 -101q0 -87 -16 -168.5t-47 -156t-76 -142.5t-102 -128h-88z" />
    <glyph glyph-name="asterisk" unicode="*" horiz-adv-x="485" 
d="M338 337l-48 163l-101 -138l-69 63l127 118l-151 44l30 86l151 -77l13 169l94 -17l-47 -162l169 17l-1 -91l-159 14l80 -156z" />
    <glyph glyph-name="plus" unicode="+" horiz-adv-x="525" 
d="M317 393h179v-81h-179v-199h-82v199h-179v81h179v200h82v-200z" />
    <glyph glyph-name="comma" unicode="," horiz-adv-x="245" 
d="M-46 -130q17 38 34.5 81.5t34 87t27.5 77.5h102l4 -10q-16 -38 -36.5 -78.5t-43 -81t-45.5 -76.5h-77z" />
    <glyph glyph-name="hyphen" unicode="-" horiz-adv-x="298" 
d="M21 223l19 91h232l-19 -91h-232z" />
    <glyph glyph-name="period" unicode="." horiz-adv-x="245" 
d="M69 -12q-27 0 -41 14.5t-14 38.5q0 34 19.5 60.5t60.5 26.5q24 0 38 -14t14 -40q0 -35 -20.5 -60.5t-56.5 -25.5z" />
    <glyph glyph-name="slash" unicode="/" horiz-adv-x="364" 
d="M-47 -1l393 716h98l-393 -716h-98z" />
    <glyph glyph-name="zero" unicode="0" horiz-adv-x="497" 
d="M201 -10q-80 0 -120.5 55t-40.5 162q0 49 7 105.5t22 115t38 111.5t54.5 95t73 66.5t91.5 24.5q41 0 71 -13t50 -39.5t30 -65.5t10 -92q0 -54 -7 -113.5t-22 -118.5t-38 -112t-54.5 -93.5t-72.5 -64t-92 -23.5zM211 77q28 0 52 21.5t43.5 57.5t34.5 81.5t25.5 95.5
t15.5 98t5 88q0 58 -16.5 88t-51.5 30q-28 0 -52 -21t-44 -57.5t-35.5 -82t-26 -94t-16 -94.5t-5.5 -82q0 -64 17 -96.5t54 -32.5z" />
    <glyph glyph-name="one" unicode="1" horiz-adv-x="497" 
d="M269 450q5 24 10.5 48t12 48t12.5 47q-11 -12 -24.5 -23t-29.5 -22l-86 -61l-46 70l220 157h88l-152 -714h-101z" />
    <glyph glyph-name="two" unicode="2" horiz-adv-x="497" 
d="M-15 0l16 78l208 206q42 40 73.5 74t53 65t33 62t11.5 64q0 41 -22 64.5t-62 23.5q-25 0 -47.5 -8.5t-44 -22.5t-44.5 -32l-45 70q41 36 89 58t108 22q56 0 94 -20.5t58 -55.5t20 -81q0 -59 -23.5 -110t-68.5 -103.5t-111 -114.5l-151 -145v-4h277l-18 -90h-404z" />
    <glyph glyph-name="three" unicode="3" horiz-adv-x="497" 
d="M171 -10q-51 0 -91 9t-74 27v95q33 -20 77 -33t87 -13q36 0 64.5 10t48.5 29t30.5 44.5t10.5 58.5q0 35 -14 59.5t-41.5 37.5t-69.5 13h-54l17 82h48q36 0 67 10t54.5 29t37 46t13.5 61q0 39 -22.5 61t-63.5 22q-39 0 -72.5 -14.5t-66.5 -36.5l-39 72q41 30 87 47.5
t108 17.5q55 0 93 -19t58.5 -52.5t20.5 -79.5q0 -50 -20.5 -92t-59 -70.5t-92.5 -40.5v-4q50 -10 82.5 -47.5t32.5 -99.5q0 -45 -15.5 -86t-47.5 -73.5t-80 -51t-114 -18.5z" />
    <glyph glyph-name="four" unicode="4" horiz-adv-x="497" 
d="M236 0l33 156h-275l17 84l366 476h109l-100 -474h89l-18 -86h-90l-33 -156h-98zM106 242h182l43 200q6 26 13.5 55t15 55.5t12.5 44.5h-4q-9 -16 -20 -32.5l-21 -31.5t-19 -26z" />
    <glyph glyph-name="five" unicode="5" horiz-adv-x="497" 
d="M168 -10q-31 0 -58.5 4t-51 12t-41.5 18v98q30 -20 68.5 -33t80.5 -13q45 0 77 14t52.5 37t30.5 53.5t10 62.5q0 55 -29 86t-84 31q-26 0 -49.5 -5t-48.5 -13l-37 32l95 340h311l-19 -91h-223l-55 -190q16 4 33.5 6.5t37.5 2.5q52 0 91 -21.5t60.5 -62.5t21.5 -100
q0 -49 -15 -97t-47.5 -86.5t-84.5 -61.5t-126 -23z" />
    <glyph glyph-name="six" unicode="6" horiz-adv-x="497" 
d="M219 -10q-56 0 -94.5 24t-58.5 71.5t-20 115.5q0 54 9 112t26.5 114.5t44.5 106.5t63 89q27 30 60 52.5t74.5 35.5t90.5 13q27 0 51 -3t42 -8l-20 -86q-16 5 -36.5 8.5t-42.5 3.5q-58 0 -105 -29t-81.5 -87t-57.5 -148h4q17 24 39 41.5t49.5 27.5t57.5 10q68 0 105 -45.5
t37 -124.5q0 -48 -13.5 -99.5t-42 -95.5t-73.5 -71.5t-108 -27.5zM226 76q33 0 57 18.5t40 48.5t24 64.5t8 67.5q0 46 -19.5 71t-58.5 25q-28 0 -52.5 -13.5t-41 -34t-24.5 -41.5q-4 -12 -7.5 -26.5t-5 -31t-1.5 -33.5q0 -24 4.5 -45t14.5 -37t25.5 -24.5t36.5 -8.5z" />
    <glyph glyph-name="seven" unicode="7" horiz-adv-x="497" 
d="M54 0l347 624h-301l18 90h408l-14 -74l-349 -640h-109z" />
    <glyph glyph-name="eight" unicode="8" horiz-adv-x="497" 
d="M215 -10q-64 0 -106.5 22t-63.5 60.5t-21 87.5q0 53 20.5 93.5t59.5 71.5t94 55q-23 20 -40 42.5t-26.5 50t-9.5 60.5q0 56 25.5 99.5t72.5 68t109 24.5q57 0 94.5 -20.5t56 -55t18.5 -76.5q0 -50 -21 -87.5t-56 -65t-79 -47.5q31 -23 53 -49t34 -57t12 -72
q0 -53 -25 -100t-75.5 -76t-125.5 -29zM221 72q42 0 68.5 17t39.5 44.5t13 58.5q0 29 -9.5 53.5t-28 45.5t-45.5 39q-39 -16 -69.5 -37.5t-48 -51.5t-17.5 -73t27 -69.5t70 -26.5zM283 420q38 17 63.5 37.5t39 46t13.5 57.5q0 38 -22 60t-58 22q-30 0 -52.5 -13.5
t-34.5 -37.5t-12 -56q0 -39 17 -67t46 -49z" />
    <glyph glyph-name="nine" unicode="9" horiz-adv-x="497" 
d="M136 -10q-30 0 -57.5 4t-49.5 11v90q22 -8 48.5 -13.5t56.5 -5.5q46 0 81.5 17t63 50.5t48 82t34.5 110.5h-4q-16 -22 -37 -39.5t-47 -27t-55 -9.5q-49 0 -82 22t-49 61.5t-16 92.5q0 49 14 99.5t43.5 93.5t75 69t106.5 26q54 0 91.5 -23.5t58 -69.5t20.5 -116
q0 -49 -7.5 -103.5t-22 -108t-36 -101t-49.5 -84.5q-20 -29 -44.5 -53t-53 -40.5t-61.5 -25.5t-70 -9zM249 343q25 0 46 10.5t37.5 28t26.5 40.5q11 20 16 46.5t5 57.5q0 35 -9 60t-26 38.5t-43 13.5q-32 0 -56.5 -17t-41 -45.5t-25 -63t-8.5 -67.5q0 -49 20 -75.5t58 -26.5
z" />
    <glyph glyph-name="colon" unicode=":" horiz-adv-x="246" 
d="M151 409q-27 0 -40.5 14t-13.5 39q0 23 8 42.5t26 32t45 12.5q24 0 38 -14.5t14 -40.5q0 -35 -20.5 -60t-56.5 -25zM67 -12q-27 0 -41 14.5t-14 38.5q0 34 19 60.5t60 26.5q24 0 38 -14t14 -40q0 -35 -20.5 -60.5t-55.5 -25.5z" />
    <glyph glyph-name="semicolon" unicode=";" horiz-adv-x="246" 
d="M-50 -130q18 40 35.5 83t33 85t27.5 78h102l4 -10q-16 -37 -36.5 -78t-43 -81t-46.5 -77h-76zM153 409q-27 0 -41 14t-14 39q0 23 8.5 42.5t26.5 32t45 12.5q24 0 38 -14.5t14 -40.5q0 -35 -20.5 -60t-56.5 -25z" />
    <glyph glyph-name="less" unicode="&#x3c;" horiz-adv-x="525" 
d="M497 117l-442 207v55l442 223v-89l-331 -159l331 -147v-90z" />
    <glyph glyph-name="equal" unicode="=" horiz-adv-x="525" 
d="M59 413v81h434v-81h-434zM59 210v81h434v-81h-434z" />
    <glyph glyph-name="greater" unicode="&#x3e;" horiz-adv-x="525" 
d="M56 207l331 146l-331 160v89l441 -223v-56l-441 -206v90z" />
    <glyph glyph-name="question" unicode="?" horiz-adv-x="389" 
d="M105 210q8 46 21 79t34 60.5t53 55.5q31 27 55.5 50t38.5 48.5t14 60.5q0 36 -19 54.5t-55 18.5q-34 0 -65.5 -12.5t-62.5 -28.5l-30 76q39 24 84 38t90 14q74 0 116 -37t42 -108q0 -46 -16.5 -82.5t-46 -69t-70.5 -65.5q-33 -28 -52.5 -48.5t-30 -44t-18.5 -59.5h-82z
M110 -12q-27 0 -41 14.5t-14 38.5q0 34 19.5 60.5t60.5 26.5q23 0 37.5 -14t14.5 -40q0 -35 -20.5 -60.5t-56.5 -25.5z" />
    <glyph glyph-name="at" unicode="@" horiz-adv-x="760" 
d="M330 -88q-69 0 -122.5 21t-90.5 61t-56.5 95t-19.5 123q0 80 20 154t58 137.5t91.5 111.5t120.5 74.5t145 26.5q89 0 148 -36t89 -98t30 -141q0 -49 -9.5 -97.5t-27.5 -91t-43.5 -75t-57 -51t-69.5 -18.5q-46 0 -67 23t-26 58h-3q-20 -36 -49 -58.5t-70 -22.5
q-49 0 -78 32.5t-29 96.5q0 41 10.5 82t31 77.5t49 65t64 45t76.5 16.5q43 0 73.5 -8t54.5 -18l-52 -206q-7 -24 -10.5 -41t-3.5 -31q0 -24 10 -34t26 -10q22 0 41.5 16.5t34.5 44.5t25.5 62t16.5 69.5t6 67.5q0 64 -21 111.5t-65.5 74t-114.5 26.5q-64 0 -117.5 -23
t-96 -63.5t-72 -94.5t-45.5 -117t-16 -131q0 -70 23.5 -123.5t72 -83.5t123.5 -30q49 0 95.5 11t88.5 28v-67q-44 -19 -93.5 -30t-98.5 -11zM341 175q36 0 62 39t45 107l33 128q-9 3 -19.5 5t-25.5 2q-32 0 -58 -19.5t-45 -51t-29 -69t-10 -72.5q0 -37 12.5 -53t34.5 -16z
" />
    <glyph glyph-name="A" unicode="A" horiz-adv-x="524" 
d="M-60 0l353 715h120l54 -715h-102l-14 209h-202l-99 -209h-110zM191 299h156l-8 190q-2 31 -3.5 65.5t-0.5 62.5h-3q-11 -29 -25 -61t-30 -67z" />
    <glyph glyph-name="B" unicode="B" horiz-adv-x="546" 
d="M23 0l151 714h173q59 0 103 -16.5t68.5 -50.5t24.5 -88q0 -47 -17.5 -85t-51 -64t-82.5 -37v-4q45 -13 72.5 -48.5t27.5 -89.5q0 -72 -32.5 -123.5t-90 -79.5t-135.5 -28h-211zM237 87q49 0 82 18t50 51t17 76q0 45 -25.5 71.5t-80.5 26.5h-85l-52 -243h94zM297 414
q41 0 72.5 16t49 44.5t17.5 68.5q0 41 -24 62.5t-78 21.5h-77l-45 -213h85z" />
    <glyph glyph-name="C" unicode="C" horiz-adv-x="523" 
d="M279 -10q-72 0 -121.5 31t-75.5 89t-26 139q0 62 14 129t42.5 128.5t71.5 111t100.5 78t129.5 28.5q49 0 88.5 -10t74.5 -31l-45 -83q-24 15 -53 25t-65 10q-52 0 -92.5 -24.5t-70.5 -65.5t-49.5 -91t-29 -102t-9.5 -99q0 -85 35 -129t102 -44q35 0 69.5 8t68.5 21v-89
q-34 -14 -72.5 -22t-86.5 -8z" />
    <glyph glyph-name="D" unicode="D" horiz-adv-x="599" 
d="M23 0l151 714h157q116 0 180 -64t64 -192q0 -72 -15.5 -140t-46 -125.5t-77 -101t-108 -67.5t-138.5 -24h-167zM198 89q55 0 98 20.5t75.5 56t54 82t32 99.5t10.5 107q0 90 -39.5 131t-108.5 41h-63l-114 -537h55z" />
    <glyph glyph-name="E" unicode="E" horiz-adv-x="468" 
d="M23 0l151 714h335l-19 -89h-233l-44 -208h217l-18 -89h-218l-51 -239h234l-19 -89h-335z" />
    <glyph glyph-name="F" unicode="F" horiz-adv-x="442" 
d="M23 0l151 714h335l-19 -89h-233l-50 -238h217l-19 -88h-217l-63 -299h-102z" />
    <glyph glyph-name="G" unicode="G" horiz-adv-x="615" 
d="M299 -10q-117 0 -179.5 66.5t-62.5 189.5q0 78 16.5 149.5t48.5 131.5t77.5 104.5t103.5 68.5t126 24q56 0 101.5 -11.5t84.5 -32.5l-42 -87q-34 19 -70 30t-79 11q-59 0 -107 -31.5t-82.5 -85t-53 -122t-18.5 -142.5q0 -54 15.5 -93t48.5 -59.5t85 -20.5q28 0 52.5 4
t44.5 10l43 201h-118l19 88h219l-77 -357q-44 -16 -92 -26t-104 -10z" />
    <glyph glyph-name="H" unicode="H" horiz-adv-x="616" 
d="M23 0l151 714h102l-63 -297h251l63 297h101l-151 -714h-102l69 328h-250l-69 -328h-102z" />
    <glyph glyph-name="I" unicode="I" horiz-adv-x="318" 
d="M-32 0l12 57l84 23l117 554l-74 23l12 57h261l-12 -57l-85 -23l-117 -554l74 -23l-11 -57h-261z" />
    <glyph glyph-name="J" unicode="J" horiz-adv-x="262" 
d="M-77 -196q-25 0 -44 3.5t-33 8.5l9 88q14 -5 30 -8t34 -3q29 0 50 13.5t36 40.5t23 67l149 700h102l-152 -714q-14 -69 -42 -112.5t-68 -63.5t-94 -20z" />
    <glyph glyph-name="K" unicode="K" horiz-adv-x="520" 
d="M23 0l151 714h102l-74 -346l61 79l226 267h119l-275 -325l131 -389h-112l-103 324l-67 -52l-57 -272h-102z" />
    <glyph glyph-name="L" unicode="L" horiz-adv-x="437" 
d="M23 0l151 714h102l-133 -624h233l-19 -90h-334z" />
    <glyph glyph-name="M" unicode="M" horiz-adv-x="782" 
d="M23 0l151 714h139l44 -565h4l283 565h150l-150 -714h-100l90 421q7 31 14 60.5t13 56t12 47.5h-2l-297 -585h-90l-47 583h-3q-3 -20 -7.5 -48.5t-9.5 -59.5t-12 -61l-88 -414h-94z" />
    <glyph glyph-name="N" unicode="N" horiz-adv-x="650" 
d="M23 0l151 714h114l162 -561h3q5 27 10.5 60.5t12 67t11.5 60.5l80 373h96l-152 -714h-112l-165 568h-4q-2 -18 -6 -43.5t-9 -53.5l-10 -56t-10 -50l-77 -365h-95z" />
    <glyph glyph-name="O" unicode="O" horiz-adv-x="645" 
d="M284 -10q-74 0 -125 30t-77 86.5t-26 136.5q0 58 10 116t29.5 111.5t48 100t66.5 81t85 54t102 19.5q110 0 166.5 -66t56.5 -186q0 -56 -8.5 -113t-27 -111t-46.5 -101t-65 -82.5t-84 -55.5t-105 -20zM290 80q35 0 65 16t55 45t44.5 66.5t32.5 82t20 91.5t7 93
q0 78 -32.5 119.5t-91.5 41.5q-37 0 -68 -16.5t-56 -46t-44.5 -68t-32.5 -82.5t-19.5 -89.5t-6.5 -88.5q0 -54 15 -90.5t43.5 -55t68.5 -18.5z" />
    <glyph glyph-name="P" unicode="P" horiz-adv-x="520" 
d="M23 0l151 714h152q72 0 116 -22.5t65 -63t21 -94.5q0 -60 -19 -108.5t-56 -83t-90.5 -52.5t-121.5 -18h-59l-57 -272h-102zM249 359q55 0 94 19.5t60 57.5t21 92q0 51 -27.5 74.5t-82.5 23.5h-57l-56 -267h48z" />
    <glyph glyph-name="Q" unicode="Q" horiz-adv-x="645" 
d="M292 -9q-4 -1 -8 -1t-8 1q-71 1 -120.5 31t-74.5 86.5t-25 134.5q0 58 10 116t29.5 111.5t48 100t66.5 81t85 54t102 19.5q110 0 166.5 -66t56.5 -186q0 -56 -9 -113t-27 -111t-45.5 -101t-64.5 -82.5t-83 -53.5l105 -182h-123zM290 80q36 0 66 16t55 45t44 66.5t32.5 82
t20 91.5t6.5 93q0 78 -32.5 119.5t-91.5 41.5q-37 0 -68 -16.5t-56 -46t-44.5 -68t-32.5 -82.5t-19.5 -89.5t-6.5 -88.5q0 -54 15 -90.5t43.5 -55t68.5 -18.5z" />
    <glyph glyph-name="R" unicode="R" horiz-adv-x="528" 
d="M23 0l151 714h145q100 0 152.5 -44t52.5 -131q0 -55 -18.5 -101t-54.5 -78t-89 -48l100 -312h-111l-84 291h-81l-61 -291h-102zM261 376q40 0 69.5 12t49 32.5t29 49t9.5 60.5q0 51 -27.5 73.5t-82.5 22.5h-51l-53 -250h57z" />
    <glyph glyph-name="S" unicode="S" horiz-adv-x="466" 
d="M163 -10q-50 0 -89 9t-70 26l6 100q31 -18 70 -31t84 -13q29 0 54 7t43.5 21.5t29.5 37t11 51.5q0 27 -9.5 47t-30 40t-55.5 45q-33 24 -58.5 49.5t-40 58t-14.5 77.5q0 48 17 86.5t47.5 66t72 42t91.5 14.5q49 0 90.5 -11t76.5 -31l-42 -87q-27 16 -60.5 27t-66.5 11
q-26 0 -47.5 -7t-37.5 -21.5t-25 -35t-9 -46.5q0 -28 10 -48t30.5 -38t51.5 -41q36 -26 62 -52.5t39.5 -59t13.5 -76.5q0 -51 -17 -91.5t-49.5 -69t-77.5 -43t-101 -14.5z" />
    <glyph glyph-name="T" unicode="T" horiz-adv-x="454" 
d="M117 0l132 624h-165l20 90h431l-19 -90h-165l-132 -624h-102z" />
    <glyph glyph-name="U" unicode="U" horiz-adv-x="608" 
d="M256 -10q-64 0 -108 21.5t-66 62.5t-22 98q0 17 3 40t8 47l97 455h101l-97 -458q-4 -20 -6.5 -40.5t-2.5 -35.5q0 -48 26 -74t77 -26q46 0 76.5 18.5t50 55.5t31.5 93l100 467h102l-102 -477q-16 -75 -48 -130.5t-85.5 -86t-134.5 -30.5z" />
    <glyph glyph-name="V" unicode="V" horiz-adv-x="511" 
d="M138 0l-48 714h101l23 -442q2 -24 2.5 -50t0.5 -52t-2 -51h3q11 32 26.5 68.5t34.5 78.5l211 448h110l-350 -714h-112z" />
    <glyph glyph-name="W" unicode="W" horiz-adv-x="794" 
d="M108 0l-11 714h99l1 -423q1 -41 -1 -82t-5 -75h3q13 37 30 80.5t34 81.5l182 418h96l5 -413q1 -28 0.5 -57.5t-1 -57.5t-1.5 -52h3q9 26 18.5 53.5t20 54.5t20.5 53l173 419h106l-307 -714h-112l-6 421q0 23 -0.5 45.5t0 44t0.5 42.5h-2q-10 -30 -21.5 -59.5t-27.5 -66.5
l-185 -427h-111z" />
    <glyph glyph-name="X" unicode="X" horiz-adv-x="492" 
d="M-55 0l262 375l-98 339h105l68 -261l176 261h111l-242 -346l104 -368h-108l-72 287l-195 -287h-111z" />
    <glyph glyph-name="Y" unicode="Y" horiz-adv-x="471" 
d="M123 0l58 271l-91 443h103l59 -329l196 329h113l-279 -443l-57 -271h-102z" />
    <glyph glyph-name="Z" unicode="Z" horiz-adv-x="466" 
d="M-25 0l15 75l386 550h-261l19 89h383l-15 -76l-387 -548h280l-19 -90h-401z" />
    <glyph glyph-name="bracketleft" unicode="[" horiz-adv-x="295" 
d="M-19 -160l187 877h201l-17 -78h-110l-153 -720h110l-17 -79h-201z" />
    <glyph glyph-name="backslash" unicode="\" horiz-adv-x="366" 
d="M205 -2l-100 718h89l102 -718h-91z" />
    <glyph glyph-name="bracketright" unicode="]" horiz-adv-x="295" 
d="M-70 -160l17 79h109l153 720h-110l17 78h201l-187 -877h-200z" />
    <glyph glyph-name="asciicircum" unicode="^" horiz-adv-x="508" 
d="M22 283l240 434h57l167 -434h-85l-123 317l-166 -317h-90z" />
    <glyph glyph-name="underscore" unicode="_" horiz-adv-x="367" 
d="M-91 -155l15 69h368l-14 -69h-369z" />
    <glyph glyph-name="grave" unicode="`" horiz-adv-x="280" 
d="M249 606q-17 19 -37.5 46t-38.5 55t-27 49v10h108q7 -23 15.5 -48.5t19.5 -50.5t23 -50v-11h-63z" />
    <glyph glyph-name="a" unicode="a" horiz-adv-x="523" 
d="M171 -10q-39 0 -69 19.5t-47 58t-17 96.5q0 53 10.5 107.5t31.5 104.5t50.5 88.5t68 61.5t83.5 23q31 0 54 -11t39 -30t26 -44h4l28 75h79l-114 -539h-79l9 85h-3q-20 -27 -43.5 -48.5t-51 -34t-59.5 -12.5zM206 73q34 0 63 26.5t51.5 69t34.5 91.5q9 34 12 61.5t3 52.5
q0 41 -20 65.5t-54 24.5q-28 0 -51.5 -17.5t-43 -48t-33 -68.5t-21 -80t-7.5 -82q0 -47 17.5 -71t48.5 -24z" />
    <glyph glyph-name="b" unicode="b" horiz-adv-x="526" 
d="M245 -10q-31 0 -54.5 11t-39.5 30t-26 42h-4l-29 -73h-77l161 760h99l-40 -190q-4 -22 -10.5 -45t-11.5 -42t-8 -27h3q20 27 42.5 47.5t49 32.5t57.5 12q39 0 68.5 -19t46.5 -57.5t17 -96.5q0 -52 -10.5 -106.5t-30.5 -104.5t-49.5 -89t-68 -62t-85.5 -23zM234 73
q27 0 50.5 18t42.5 49t32.5 70t20.5 80.5t7 79.5q0 48 -17 71.5t-50 23.5q-23 0 -44 -13.5t-39 -36.5t-33 -52.5t-25.5 -63t-16.5 -67.5t-6 -65q0 -44 19.5 -69t58.5 -25z" />
    <glyph glyph-name="c" unicode="c" horiz-adv-x="413" 
d="M214 -10q-52 0 -92 20.5t-62 62t-22 104.5q0 55 11.5 108t33 101t53.5 84.5t74.5 57.5t94.5 21q35 0 66.5 -7t58.5 -21l-33 -80q-19 9 -42 16.5t-49 7.5q-39 0 -70 -25t-52.5 -66t-32.5 -91t-11 -99q0 -36 11 -60.5t31 -37t50 -12.5q29 0 57 9.5t57 23.5v-84
q-27 -14 -60 -23.5t-72 -9.5z" />
    <glyph glyph-name="d" unicode="d" horiz-adv-x="528" 
d="M170 -10q-39 0 -68.5 19.5t-46.5 58t-17 96.5q0 53 10 107t30.5 103.5t50 89t67.5 62t84 22.5q31 0 54 -10.5t39 -29t26 -42.5h4q2 17 4.5 36t6 39t7.5 39l38 180h99l-161 -760h-79l8 84h-3q-21 -28 -44 -49t-49.5 -33t-59.5 -12zM207 73q24 0 45 14t39 37.5t32.5 54
t25 64.5t16 67.5t5.5 62.5q0 42 -18.5 66.5t-57.5 24.5q-28 0 -52 -18t-42.5 -49.5t-32 -70t-20.5 -80t-7 -79.5q0 -47 17 -70.5t50 -23.5z" />
    <glyph glyph-name="e" unicode="e" horiz-adv-x="471" 
d="M219 -10q-57 0 -97.5 22.5t-62 65.5t-21.5 103q0 70 18.5 135.5t53 118t83 83.5t110.5 31q70 0 107.5 -33.5t37.5 -92.5q0 -43 -18 -78t-54.5 -60.5t-90.5 -39t-128 -13.5h-15q-2 -12 -3 -24t-1 -23q0 -55 25.5 -84.5t75.5 -29.5q36 0 66.5 9.5t68.5 28.5v-81
q-36 -18 -72 -28t-83 -10zM164 307q58 0 100 12.5t65 37t23 60.5q0 24 -14 38t-44 14q-28 0 -55 -19.5t-49 -56t-35 -86.5h9z" />
    <glyph glyph-name="f" unicode="f" horiz-adv-x="300" 
d="M-50 -240q-18 0 -34.5 2.5t-29.5 6.5v85q12 -4 25 -7t26 -3q35 0 52.5 27.5t28.5 78.5l108 510h-77l10 48l84 32l11 49q11 46 25 79.5t34 55t48 31.5t65 10q26 0 50.5 -5t42.5 -14l-30 -77q-12 5 -26 9t-30 4q-33 0 -51 -22.5t-29 -73.5l-11 -47h99l-16 -79h-99
l-111 -521q-11 -52 -30 -93t-51.5 -63.5t-83.5 -22.5z" />
    <glyph glyph-name="g" unicode="g" horiz-adv-x="528" 
d="M154 -240q-46 0 -83.5 9.5t-65.5 23.5v91q18 -10 42 -19.5t51.5 -15.5t53.5 -6q55 0 90 30t50 93l7 32q4 18 10.5 41.5t11.5 42.5h-3q-20 -26 -42.5 -47t-49 -33t-58.5 -12q-38 0 -67.5 19.5t-46 58t-16.5 95.5q0 52 10.5 106.5t30.5 104.5t50 89.5t68 62.5t85 23
q32 0 55 -11t39 -30t26 -44h3l28 75h79l-121 -568q-16 -76 -48 -122.5t-79 -67.5t-110 -21zM208 74q23 0 43 13.5t38.5 37t33 53.5t25 63.5t16.5 68t6 65.5q0 41 -18.5 65t-56.5 24q-29 0 -52.5 -18t-42.5 -49.5t-32.5 -70t-20.5 -79.5t-7 -79q0 -47 17.5 -70.5t50.5 -23.5z
" />
    <glyph glyph-name="h" unicode="h" horiz-adv-x="527" 
d="M15 0l161 760h100l-40 -182q-3 -19 -8.5 -40l-11 -42t-11.5 -40h3q18 25 40 46t50 33.5t62 12.5q39 0 66 -15t41.5 -43.5t14.5 -70.5q0 -20 -3.5 -43t-8.5 -48l-70 -328h-99l69 328q5 23 8 42t3 34q0 29 -14 44t-43 15q-30 0 -60.5 -22t-55 -68t-39.5 -118l-54 -255h-100
z" />
    <glyph glyph-name="i" unicode="i" horiz-adv-x="244" 
d="M15 0l115 539h99l-114 -539h-100zM204 622q-24 0 -38 12t-14 36q0 20 8 36.5t22.5 26.5t36.5 10q23 0 36.5 -11.5t13.5 -34.5q0 -33 -18.5 -54t-46.5 -21z" />
    <glyph glyph-name="j" unicode="j" horiz-adv-x="245" 
d="M-64 -240q-18 0 -34.5 2.5t-28.5 6.5v85q11 -4 24.5 -6.5t27.5 -2.5q21 0 36 10t25.5 32.5t18.5 59.5l125 592h99l-128 -602q-10 -53 -29.5 -92.5t-51.5 -62t-84 -22.5zM204 622q-23 0 -37 12t-14 36q0 20 7.5 36.5t22.5 26.5t36 10q24 0 37 -11.5t13 -34.5
q0 -33 -18.5 -54t-46.5 -21z" />
    <glyph glyph-name="k" unicode="k" horiz-adv-x="466" 
d="M15 0l161 760h100l-70 -329q-11 -48 -20.5 -83.5t-16.5 -56.5h3l220 248h114l-209 -230l112 -309h-109l-83 240l-64 -54l-38 -186h-100z" />
    <glyph glyph-name="l" unicode="l" horiz-adv-x="244" 
d="M15 0l161 760h100l-162 -760h-99z" />
    <glyph glyph-name="m" unicode="m" horiz-adv-x="791" 
d="M15 0l114 539h80l-10 -88h4q18 26 40.5 48.5t50.5 36t62 13.5q49 0 76.5 -26t35.5 -73h3q18 27 42 49.5t53 36t63 13.5q57 0 87.5 -33t30.5 -94q0 -20 -3 -40t-7 -42l-72 -340h-100l72 339q4 20 6.5 36.5t2.5 29.5q0 28 -13.5 43.5t-40.5 15.5q-23 0 -44.5 -13.5
t-40.5 -38t-34 -59.5t-24 -78l-59 -275h-99l72 341q4 20 6 35.5t2 26.5q0 30 -12.5 45.5t-39.5 15.5q-24 0 -47 -14.5t-42.5 -41.5t-35 -66.5t-26.5 -89.5l-53 -252h-100z" />
    <glyph glyph-name="n" unicode="n" horiz-adv-x="527" 
d="M13 0l115 540h83l-10 -89h2q18 27 40.5 49.5t51.5 36t64 13.5q38 0 66 -14.5t43.5 -43t15.5 -70.5q0 -21 -4 -45.5t-8 -46.5l-71 -330h-102l70 331q5 22 8 41t3 34q0 28 -14 42t-41 14q-31 0 -61 -23.5t-54.5 -70t-40.5 -117.5l-53 -251h-103z" />
    <glyph glyph-name="o" unicode="o" horiz-adv-x="514" 
d="M216 -9q-54 0 -94.5 23t-62 66t-21.5 103q0 48 10 99t30.5 98t51 85t73 60.5t96.5 22.5q55 0 94.5 -23.5t61 -67t21.5 -104.5q0 -50 -10.5 -101.5t-30.5 -98t-51 -83t-73 -58t-95 -21.5zM224 75q27 0 50 15t41.5 42.5t31.5 63.5t20.5 77.5t7.5 84.5q0 29 -8.5 53
t-26 38.5t-47.5 14.5t-54 -17.5t-43 -46.5t-31.5 -66t-19 -76.5t-6.5 -76.5q0 -51 22 -78.5t63 -27.5z" />
    <glyph glyph-name="p" unicode="p" horiz-adv-x="526" 
d="M-34 -238l164 777h80l-10 -88h4q20 28 43.5 50t51 34.5t58.5 12.5q39 0 68.5 -19t46.5 -57.5t17 -97.5q0 -53 -10.5 -107.5t-30.5 -104t-49.5 -88.5t-68 -61.5t-84.5 -22.5q-30 0 -53 11t-38.5 30t-26.5 42h-4q-2 -24 -6 -52t-9 -50l-45 -209h-98zM234 74q27 0 51 18
t43 48.5t32 69t20 80.5t7 81q0 47 -16.5 70.5t-50.5 23.5q-22 0 -43 -13t-39.5 -36.5t-33.5 -53.5t-25.5 -63.5t-16.5 -67.5t-6 -65q0 -42 19.5 -67t58.5 -25z" />
    <glyph glyph-name="q" unicode="q" horiz-adv-x="528" 
d="M293 -24q3 13 7.5 31t10.5 38.5t10 36.5h-3q-20 -26 -42.5 -47t-49 -33t-58.5 -12q-37 0 -66.5 19t-46.5 57.5t-17 96.5q0 52 10 106t30.5 104t50.5 89.5t68.5 63t85.5 23.5q32 0 54.5 -11t38.5 -30t25 -44h4l28 75h79l-165 -779h-100zM208 74q22 0 43 13.5t39 36.5
t33 53.5t25.5 64t16 67.5t5.5 65q0 40 -18.5 65t-57.5 25q-28 0 -51.5 -18t-42.5 -48.5t-32.5 -69t-20.5 -80t-7 -80.5q0 -48 17 -71t51 -23z" />
    <glyph glyph-name="r" unicode="r" horiz-adv-x="362" 
d="M15 0l114 539h79l-10 -95h4q19 31 40.5 54.5t48.5 37t60 13.5q12 0 25 -1.5t24 -5.5l-25 -97q-10 4 -21.5 5.5t-23.5 1.5q-31 0 -57 -16.5t-46.5 -44t-35 -62t-22.5 -71.5l-54 -258h-100z" />
    <glyph glyph-name="s" unicode="s" horiz-adv-x="401" 
d="M141 -10q-45 0 -79.5 8.5t-60.5 22.5v91q26 -16 61.5 -28t72.5 -12q31 0 53.5 9t34.5 26.5t12 42.5q0 18 -6.5 31.5t-23 28.5t-46.5 36q-32 21 -53 42.5t-32 46t-11 56.5q0 47 21.5 82.5t61.5 55.5t95 20q45 0 84 -11t68 -28l-35 -77q-24 15 -53 24.5t-62 9.5
q-35 0 -57 -18t-22 -48q0 -16 6 -29t21.5 -27t44.5 -33q31 -22 54 -42.5t35 -46t12 -62.5q0 -54 -23.5 -92.5t-67.5 -58.5t-105 -20z" />
    <glyph glyph-name="t" unicode="t" horiz-adv-x="318" 
d="M160 -10q-52 0 -83 26.5t-31 84.5q0 14 2.5 32t6.5 37l61 290h-69l10 50l80 33l56 116h65l-26 -120h115l-17 -79h-114l-62 -293q-3 -13 -5.5 -26t-2.5 -24q0 -20 10.5 -31.5t32.5 -11.5q15 0 31 3t32 9v-77q-16 -8 -41.5 -13.5t-50.5 -5.5z" />
    <glyph glyph-name="u" unicode="u" horiz-adv-x="527" 
d="M166 -10q-39 0 -66.5 15t-42 44t-14.5 69q0 20 3.5 43.5t8.5 46.5l70 331h100l-71 -334q-4 -21 -6.5 -38.5t-2.5 -32.5q0 -28 13 -43.5t42 -15.5q32 0 62.5 23.5t55.5 71t40 118.5l53 251h99l-114 -539h-79l8 88h-4q-18 -26 -41 -48.5t-51 -36t-63 -13.5z" />
    <glyph glyph-name="v" unicode="v" horiz-adv-x="434" 
d="M97 0l-44 539h99l16 -291q2 -20 3 -48t1.5 -54t-0.5 -41h4q8 21 18 44.5t20.5 47t18.5 39.5l147 303h105l-272 -539h-116z" />
    <glyph glyph-name="w" unicode="w" horiz-adv-x="677" 
d="M71 0l-11 539h96l1 -278q0 -43 -1.5 -80.5t-4.5 -68.5h4q6 20 15 45t19 48.5t17 40.5l126 293h110l4 -282q0 -33 -0.5 -72.5t-2.5 -74.5h3q8 24 18 52t21 57t23 57l111 263h102l-238 -539h-116l-2 294v44.5t1 46t2 47.5h-4q-7 -20 -14.5 -40t-16 -40.5t-18.5 -44.5
l-131 -307h-113z" />
    <glyph glyph-name="x" unicode="x" horiz-adv-x="448" 
d="M-43 0l211 278l-92 261h104l58 -186l131 186h114l-203 -266l99 -273h-105l-64 196l-139 -196h-114z" />
    <glyph glyph-name="y" unicode="y" horiz-adv-x="437" 
d="M-22 -240q-22 0 -37.5 2.5t-27.5 6.5l4 84q13 -4 26.5 -6.5t28.5 -2.5q37 0 61.5 24t46.5 67l31 63l-57 541h99l21 -270q3 -26 4.5 -55t2 -56.5t-0.5 -47.5h3q7 18 17 43t21 51t21 46l139 289h106l-317 -629q-25 -49 -52 -82.5t-61 -50.5t-79 -17z" />
    <glyph glyph-name="z" unicode="z" horiz-adv-x="394" 
d="M-25 0l14 65l288 395h-191l17 79h302l-15 -73l-283 -387h211l-17 -79h-326z" />
    <glyph glyph-name="braceleft" unicode="{" horiz-adv-x="344" 
d="M218 -158q-77 0 -113.5 29.5t-36.5 86.5q0 15 2.5 30t5.5 31l24 110q2 12 4 23.5t2 22.5q0 34 -23 50.5t-71 16.5l17 81q56 0 88.5 21.5t42.5 71.5l33 154q11 54 34 85.5t62 45t97 13.5h17l-18 -81q-44 -1 -68 -16.5t-34 -62.5l-34 -153q-10 -51 -40.5 -82t-86.5 -40v-3
q39 -10 57.5 -35.5t18.5 -62.5q0 -12 -2 -27t-6 -30l-22 -107q-2 -11 -3.5 -20.5t-1.5 -17.5q0 -30 17.5 -41.5t51.5 -11.5l-1 -81h-13z" />
    <glyph glyph-name="bar" unicode="|" horiz-adv-x="485" 
d="M210 -236v997h82v-997h-82z" />
    <glyph glyph-name="braceright" unicode="}" horiz-adv-x="343" 
d="M-47 -77q31 0 53 7t36 24t21 48l33 153q11 51 41.5 82t86.5 39v4q-39 11 -57.5 36t-18.5 62q0 13 2 27t6 29l23 108q2 11 3.5 20.5t1.5 17.5q0 29 -19.5 41t-58.5 12l17 81h7q52 0 84.5 -13t48 -38t15.5 -63q0 -15 -2 -31t-6 -32l-24 -111q-2 -12 -4.5 -23t-2.5 -22
q0 -34 23.5 -50.5t71.5 -16.5l-17 -81q-56 0 -88 -22t-43 -71l-33 -154q-12 -55 -35 -86.5t-61 -44.5t-96 -13h-9z" />
    <glyph glyph-name="asciitilde" unicode="~" horiz-adv-x="525" 
d="M262 314q-32 15 -55.5 21t-44.5 6q-26 0 -54.5 -16.5t-52.5 -42.5v88q23 26 51.5 39t62.5 13q29 0 56 -6.5t66 -24.5q33 -15 56 -21t43 -6q27 0 56 17t52 42v-88q-23 -25 -51.5 -38.5t-62.5 -13.5q-29 0 -56 7t-66 24z" />
    <glyph glyph-name="uni00A0" unicode="&#xa0;" horiz-adv-x="227" 
 />
    <glyph glyph-name="exclamdown" unicode="&#xa1;" horiz-adv-x="257" 
d="M-21 -183l129 507h75l-87 -507h-117zM165 406q-25 0 -39 14t-14 40q0 36 20.5 61t56.5 25q27 0 40.5 -15t13.5 -39q0 -32 -19 -59t-59 -27z" />
    <glyph glyph-name="cent" unicode="&#xa2;" horiz-adv-x="497" 
d="M204 93q-55 14 -86.5 59t-31.5 123q0 50 9.5 99.5t28.5 94.5t47 81.5t65 61t82 31.5l17 81h67l-18 -81q27 -2 50.5 -8.5t43.5 -16.5l-33 -81q-19 9 -42 16.5t-48 7.5q-39 0 -69.5 -24.5t-52.5 -65.5t-33.5 -91t-11.5 -100q0 -55 24 -82.5t66 -27.5q30 0 57 9t53 23l9 -81
q-26 -14 -58.5 -23t-68.5 -11l-21 -97h-67z" />
    <glyph glyph-name="sterling" unicode="&#xa3;" horiz-adv-x="497" 
d="M3 84q27 9 49 25.5t38 44t25 67.5l20 95h-85l16 76h85l32 154q13 60 40 99t67.5 59t92.5 20q46 0 84 -12t67 -30l-41 -79q-22 14 -49.5 24.5t-59.5 10.5q-37 0 -64 -23.5t-39 -80.5l-31 -142h148l-16 -76h-147l-20 -92q-12 -55 -36 -86t-55 -48h301l-19 -90h-420z" />
    <glyph glyph-name="currency" unicode="&#xa4;" horiz-adv-x="533" 
d="M385 198q-23 -14 -49.5 -22.5t-54.5 -8.5q-29 0 -55.5 8.5t-49.5 23.5l-62 -62l-49 50l62 62q-16 23 -24 49t-8 55q0 28 8 54.5t24 49.5l-63 63l50 51l63 -64q23 16 49.5 24.5t54.5 8.5t54.5 -8.5t49.5 -24.5l63 64l51 -50l-63 -63q15 -23 23.5 -49.5t8.5 -55.5
t-8.5 -55.5t-23.5 -49.5l62 -62l-50 -50zM281 238q33 0 59 15.5t42 42t16 57.5q0 32 -16 58t-42.5 42t-58.5 16q-31 0 -57.5 -15.5t-42 -41.5t-15.5 -59q0 -32 15.5 -58t42 -41.5t57.5 -15.5z" />
    <glyph glyph-name="yen" unicode="&#xa5;" horiz-adv-x="496" 
d="M137 0l27 124h-123l15 70h122l16 77h-123l16 70h98l-73 373h99l53 -326l190 326h106l-231 -373h101l-15 -70h-125l-16 -77h125l-15 -70h-124l-27 -124h-96z" />
    <glyph glyph-name="brokenbar" unicode="&#xa6;" horiz-adv-x="485" 
d="M210 377v384h82v-384h-82zM210 -236v384h82v-384h-82z" />
    <glyph glyph-name="section" unicode="&#xa7;" horiz-adv-x="440" 
d="M154 4q-46 0 -81.5 9t-58.5 23v82q28 -18 65 -30t73 -12q51 0 79 21.5t28 58.5q0 16 -8 29t-25.5 26t-45.5 27q-32 17 -56.5 36.5t-38.5 45t-14 58.5q0 35 14 61.5t37.5 47t53.5 35.5q-23 18 -36 41.5t-13 55.5q0 41 21.5 73.5t62 51.5t96.5 19q44 0 81 -9.5t68 -26.5
l-33 -69q-27 16 -56 24.5t-61 8.5q-22 0 -42.5 -7.5t-33 -22.5t-12.5 -38q0 -25 19.5 -42t60.5 -38q35 -18 59 -38t36.5 -43.5t12.5 -53.5q0 -34 -13 -61.5t-35 -49t-52 -39.5q19 -16 32.5 -38.5t13.5 -54.5q0 -47 -24 -83.5t-68 -57t-106 -20.5zM254 293q27 16 45.5 41.5
t18.5 57.5q0 19 -9 34t-28.5 29.5t-51.5 29.5q-19 -7 -35.5 -20.5t-26 -32t-9.5 -40.5q0 -20 9.5 -35.5t30.5 -30.5t56 -33z" />
    <glyph glyph-name="dieresis" unicode="&#xa8;" horiz-adv-x="521" 
d="M414 628q-20 0 -32 11t-12 33q0 27 15.5 46t43.5 19q20 0 31 -10.5t11 -31.5q0 -30 -16 -48.5t-41 -18.5zM242 628q-20 0 -32.5 11t-12.5 33q0 27 15.5 46t43.5 19q14 0 23.5 -4.5t14.5 -14t5 -23.5q0 -30 -16 -48.5t-41 -18.5z" />
    <glyph glyph-name="copyright" unicode="&#xa9;" horiz-adv-x="831" 
d="M415 -10q-82 0 -149 27.5t-116 77.5t-75.5 116.5t-26.5 145.5q0 80 27.5 147t77.5 116.5t117 76.5t146 27q77 0 144 -27.5t117 -77t78 -116.5t28 -146q0 -80 -27.5 -147t-77 -116.5t-116.5 -76.5t-147 -27zM430 132q-98 0 -148.5 60.5t-50.5 163.5q0 67 23.5 118t69 79
t110.5 28q32 0 64.5 -8t61.5 -22l-29 -62q-25 12 -49 18.5t-46 6.5q-59 0 -92 -41t-33 -116q0 -78 30 -118t94 -40q24 0 52 6.5t55 17.5v-66q-26 -11 -52 -18t-60 -7zM416 46q65 0 120.5 23.5t97 65t64.5 98t23 124.5q0 66 -22.5 122.5t-64 98.5t-97 66t-122.5 24
t-123.5 -23.5t-97.5 -65.5t-63.5 -98.5t-22.5 -123.5t23 -124t64.5 -98.5t97.5 -65t123 -23.5z" />
    <glyph glyph-name="ordfeminine" unicode="&#xaa;" horiz-adv-x="324" 
d="M164 378q-22 0 -43 12.5t-34 38.5t-13 66t10 80t30 73t50 53t69 20q31 0 48 -14t26 -35h4l17 43h52l-71 -331h-53l6 51h-3q-17 -25 -39.5 -41t-55.5 -16zM186 437q20 0 35.5 11t27 29.5t19 40.5t11.5 43.5t4 39.5q0 29 -11.5 46t-35.5 17q-21 0 -38 -14.5t-29 -38.5
t-18.5 -53t-6.5 -58q0 -32 11 -47.5t31 -15.5z" />
    <glyph glyph-name="guillemotleft" unicode="&#xab;" horiz-adv-x="478" 
d="M138 53l-103 214v12l184 199l59 -48l-139 -164l75 -181zM335 53l-101 205l1 12l179 206l61 -46l-137 -172l72 -173z" />
    <glyph glyph-name="logicalnot" unicode="&#xac;" horiz-adv-x="525" 
d="M493 393v-269h-81v188h-356v81h437z" />
    <glyph glyph-name="uni00AD" unicode="&#xad;" horiz-adv-x="298" 
d="M21 223l19 91h232l-19 -91h-232z" />
    <glyph glyph-name="registered" unicode="&#xae;" horiz-adv-x="831" 
d="M277 141v435h127q81 0 120 -32.5t39 -96.5q0 -46 -21.5 -74t-53.5 -41l108 -191h-87l-92 170h-61v-170h-79zM401 373q39 0 60.5 19t21.5 52q0 35 -19.5 51t-62.5 16h-45v-138h45zM415 -10q-82 0 -149 27.5t-116 77.5t-75.5 116.5t-26.5 145.5q0 80 27.5 147t77.5 116.5
t117 76.5t146 27q77 0 144 -27.5t117 -77t78 -116.5t28 -146q0 -80 -27.5 -147t-77 -116.5t-116.5 -76.5t-147 -27zM416 46q65 0 120.5 23.5t97 65t64.5 98t23 124.5q0 66 -22.5 122.5t-64 98.5t-97 66t-122.5 24t-123.5 -23.5t-97.5 -65.5t-63.5 -98.5t-22.5 -123.5
t23 -124t64.5 -98.5t97.5 -65t123 -23.5z" />
    <glyph glyph-name="overscore" unicode="&#xaf;" horiz-adv-x="417" 
d="M96 760l17 74h421l-17 -74h-421z" />
    <glyph glyph-name="degree" unicode="&#xb0;" horiz-adv-x="405" 
d="M202 423q-46 0 -81 19t-54.5 52.5t-19.5 78.5t19.5 79t54.5 53t81 19t81 -19t55 -53t20 -79t-20 -79t-55.5 -52.5t-80.5 -18.5zM203 488q40 0 61.5 23.5t21.5 61.5q0 39 -22 62.5t-61 23.5q-41 0 -63 -23.5t-22 -62.5q0 -38 22.5 -61.5t62.5 -23.5z" />
    <glyph glyph-name="plusminus" unicode="&#xb1;" horiz-adv-x="525" 
d="M56 0v81h440v-81h-440zM317 409h179v-80h-179v-199h-82v199h-179v80h179v201h82v-201z" />
    <glyph glyph-name="uni00B2" unicode="&#xb2;" horiz-adv-x="333" 
d="M57 416l13 62l126 116q33 31 55.5 55t34 45.5t11.5 45.5q0 22 -12.5 35t-35.5 13q-22 0 -43.5 -10.5t-43.5 -28.5l-32 54q29 25 63 38t74 13q37 0 61.5 -13.5t37 -36.5t12.5 -51q0 -35 -14 -65t-40.5 -59t-65.5 -62l-92 -82h171l-14 -69h-266z" />
    <glyph glyph-name="uni00B3" unicode="&#xb3;" horiz-adv-x="333" 
d="M177 408q-32 0 -60.5 7.5t-48.5 18.5v72q23 -15 51 -24t58 -9q43 0 66.5 20.5t23.5 55.5q0 28 -17.5 43t-51.5 15h-45l13 60h40q29 0 49.5 9t32 25.5t11.5 38.5q0 25 -14 37.5t-39 11.5q-24 0 -44.5 -8.5t-41.5 -23.5l-30 54q26 20 59 31.5t71 11.5q40 0 66 -13
t38.5 -35.5t12.5 -51.5q0 -45 -26.5 -73t-71.5 -41v-4q32 -9 48.5 -32t16.5 -57q0 -42 -20 -73t-57.5 -48.5t-89.5 -17.5z" />
    <glyph glyph-name="acute" unicode="&#xb4;" horiz-adv-x="274" 
d="M114 617q20 22 39.5 48t38 52.5t32.5 48.5h114v-9q-10 -13 -29.5 -33.5t-43 -43t-46 -42t-39.5 -32.5h-66v11z" />
    <glyph glyph-name="uni03BC" unicode="&#x3bc;" horiz-adv-x="547" 
d="M-35 -238l165 777h100l-71 -337q-9 -41 -8.5 -69.5t13 -43t40.5 -14.5q37 0 67.5 25.5t54 73t36.5 112.5l54 253h99l-86 -403q-7 -32 1.5 -46.5t25.5 -14.5q8 0 16.5 2t13.5 3l-17 -78q-4 -3 -14 -6t-22 -4.5t-21 -1.5q-28 0 -46.5 8t-27 29.5t-8.5 60.5h-5
q-12 -23 -26.5 -41t-30.5 -30.5t-34.5 -19.5t-38.5 -7q-31 0 -46.5 12t-26.5 34h-3q-2 -14 -5 -32t-7 -38.5t-9 -41.5l-34 -162h-99z" />
    <glyph glyph-name="paragraph" unicode="&#xb6;" horiz-adv-x="587" 
d="M317 284q-11 -4 -25.5 -6t-31.5 -2q-42 0 -75 15t-55 45.5t-33.5 75.5t-11.5 104q0 64 13.5 110t38.5 75.5t61 44t81 14.5h247v-887h-62v813h-84v-813h-62z" />
    <glyph glyph-name="periodcentered" unicode="&#xb7;" horiz-adv-x="246" 
d="M125 282q-27 0 -41 14.5t-14 38.5q0 34 19.5 60.5t60.5 26.5q24 0 38 -14t14 -40q0 -35 -20.5 -60.5t-56.5 -25.5z" />
    <glyph glyph-name="cedilla" unicode="&#xb8;" horiz-adv-x="196" 
d="M-29 -240q-17 0 -32 2t-26 5v59q10 -2 22 -4t25 -2q23 0 38.5 6t23.5 17.5t8 27.5q0 21 -17 31.5t-50 14.5l49 83h61l-29 -50q28 -7 47.5 -25.5t19.5 -53.5q0 -33 -16.5 -58t-48 -39t-75.5 -14z" />
    <glyph glyph-name="uni00B9" unicode="&#xb9;" horiz-adv-x="333" 
d="M227 672q5 22 11 45t11 40q-8 -7 -18 -15.5t-18 -14.5l-57 -39l-33 53l151 102h69l-91 -428h-80z" />
    <glyph glyph-name="ordmasculine" unicode="&#xba;" horiz-adv-x="324" 
d="M194 378q-54 0 -84.5 33t-30.5 95q0 40 10.5 78.5t31 69.5t51.5 49.5t72 18.5q56 0 84.5 -34t28.5 -92q0 -38 -9.5 -76.5t-29 -70.5t-50.5 -51.5t-74 -19.5zM201 438q22 0 38.5 13.5t27 36.5t15.5 50.5t5 54.5q0 35 -12.5 52t-36.5 17q-23 0 -39.5 -13.5t-27.5 -36
t-16.5 -50t-5.5 -54.5q0 -36 13.5 -53t38.5 -17z" />
    <glyph glyph-name="guillemotright" unicode="&#xbb;" horiz-adv-x="479" 
d="M258 53l-59 48l139 164l-75 181l75 32l104 -214v-13zM63 56l-61 45l136 171l-72 174l76 32l100 -205v-13z" />
    <glyph glyph-name="onequarter" unicode="&#xbc;" horiz-adv-x="729" 
d="M78 0l526 714h84l-525 -714h-85zM202 542q5 22 11 45t11 40q-8 -7 -18 -15.5t-18 -14.5l-57 -39l-33 53l151 102h69l-91 -428h-80zM526 1l18 90h-166l11 58l223 283h82l-59 -278h55l-13 -63h-55l-20 -90h-76zM463 154h95l22 101q5 22 9.5 41t10.5 39q-5 -8 -13 -19.5
t-16.5 -23.5t-15.5 -21z" />
    <glyph glyph-name="onehalf" unicode="&#xbd;" horiz-adv-x="786" 
d="M76 0l526 714h84l-525 -714h-85zM202 542q5 22 11 45t11 40q-8 -7 -18 -15.5t-18 -14.5l-57 -39l-33 53l151 102h69l-91 -428h-80zM424 0l13 62l126 116q33 31 55.5 55t34 45.5t11.5 45.5q0 22 -12.5 35t-35.5 13q-22 0 -43.5 -10.5t-43.5 -28.5l-32 54q29 25 63 38
t74 13q37 0 61.5 -13.5t37 -36.5t12.5 -51q0 -35 -14 -65t-40.5 -59t-65.5 -62l-92 -82h171l-14 -69h-266z" />
    <glyph glyph-name="threequarters" unicode="&#xbe;" horiz-adv-x="764" 
d="M153 278q-32 0 -60.5 7.5t-48.5 18.5v72q23 -15 51 -24t58 -9q43 0 66.5 20.5t23.5 55.5q0 28 -17.5 43t-51.5 15h-45l13 60h40q29 0 49.5 9t32 25.5t11.5 38.5q0 25 -14 37.5t-39 11.5q-24 0 -44.5 -8.5t-41.5 -23.5l-30 54q26 20 59 31.5t71 11.5q40 0 66 -13
t38.5 -35.5t12.5 -51.5q0 -45 -26.5 -73t-71.5 -41v-4q32 -9 48.5 -32t16.5 -57q0 -42 -20 -73t-57.5 -48.5t-89.5 -17.5zM116 0l526 714h84l-525 -714h-85zM560 0l18 90h-166l11 58l223 283h82l-59 -278h55l-13 -63h-55l-20 -90h-76zM497 153h95l22 101q5 22 9.5 41
t10.5 39q-5 -8 -13 -19.5t-16.5 -23.5t-15.5 -21z" />
    <glyph glyph-name="questiondown" unicode="&#xbf;" horiz-adv-x="388" 
d="M285 323q-9 -46 -21.5 -79t-33.5 -60t-54 -56q-31 -27 -55.5 -50t-38.5 -49t-14 -60q0 -35 19 -54.5t55 -19.5q34 0 66 12.5t63 29.5l29 -76q-39 -24 -83.5 -38t-90.5 -14q-74 0 -116 37t-42 107q0 46 17 83t46.5 69.5t69.5 64.5q34 29 53 50t29.5 44.5t18.5 58.5h83z
M279 544q27 0 41 -14t14 -39q0 -34 -19.5 -60t-60.5 -26q-23 0 -37 14t-14 40q0 35 20.5 60t55.5 25z" />
    <glyph glyph-name="Agrave" unicode="&#xc0;" horiz-adv-x="524" 
d="M-60 0l353 715h120l54 -715h-102l-14 209h-202l-99 -209h-110zM191 299h156l-8 190q-2 31 -3.5 65.5t-0.5 62.5h-3q-11 -29 -25 -61t-30 -67zM364 785q-17 19 -37.5 46t-38.5 55t-27 49v10h108q7 -23 15.5 -48.5t19.5 -50.5t23 -50v-11h-63z" />
    <glyph glyph-name="Aacute" unicode="&#xc1;" horiz-adv-x="524" 
d="M-60 0l353 715h120l54 -715h-102l-14 209h-202l-99 -209h-110zM191 299h156l-8 190q-2 31 -3.5 65.5t-0.5 62.5h-3q-11 -29 -25 -61t-30 -67zM307 796q20 22 39.5 48t38 52.5t32.5 48.5h114v-9q-10 -13 -29.5 -33.5t-43 -43t-46 -42t-39.5 -32.5h-66v11z" />
    <glyph glyph-name="Acircumflex" unicode="&#xc2;" horiz-adv-x="524" 
d="M-60 0l353 715h120l54 -715h-102l-14 209h-202l-99 -209h-110zM191 299h156l-8 190q-2 31 -3.5 65.5t-0.5 62.5h-3q-11 -29 -25 -61t-30 -67zM207 797q20 19 45.5 45t49 53t38.5 50h98q8 -23 21 -50t27.5 -53t25.5 -45l-1 -12h-62q-10 11 -22 25t-24 30.5t-24 33.5
q-28 -27 -55.5 -49.5t-51.5 -39.5h-66z" />
    <glyph glyph-name="Atilde" unicode="&#xc3;" horiz-adv-x="524" 
d="M-60 0l353 715h120l54 -715h-102l-14 209h-202l-99 -209h-110zM191 299h156l-8 190q-2 31 -3.5 65.5t-0.5 62.5h-3q-11 -29 -25 -61t-30 -67zM202 785q9 44 24.5 73.5t37.5 45t52 15.5q22 0 39.5 -8.5t33 -19t29 -19t26.5 -8.5q18 0 29 12.5t21 43.5h60q-10 -46 -27 -76
t-38.5 -44t-48.5 -14q-21 0 -38.5 8.5t-32.5 19.5t-29 19.5t-29 8.5q-18 0 -29.5 -14.5t-20.5 -42.5h-59z" />
    <glyph glyph-name="Adieresis" unicode="&#xc4;" horiz-adv-x="524" 
d="M-60 0l353 715h120l54 -715h-102l-14 209h-202l-99 -209h-110zM191 299h156l-8 190q-2 31 -3.5 65.5t-0.5 62.5h-3q-11 -29 -25 -61t-30 -67zM456 807q-20 0 -32 11t-12 33q0 27 15.5 46t43.5 19q20 0 31 -10.5t11 -31.5q0 -30 -16 -48.5t-41 -18.5zM284 807
q-20 0 -32.5 11t-12.5 33q0 27 15.5 46t43.5 19q14 0 23.5 -4.5t14.5 -14t5 -23.5q0 -30 -16 -48.5t-41 -18.5z" />
    <glyph glyph-name="Aring" unicode="&#xc5;" horiz-adv-x="524" 
d="M-60 0l353 715h120l54 -715h-102l-14 209h-202l-99 -209h-110zM191 299h156l-8 190q-2 31 -3.5 65.5t-0.5 62.5h-3q-11 -29 -25 -61t-30 -67zM374 780q-50 0 -80 28t-30 78q0 49 31 77.5t79 28.5t78.5 -28t31.5 -76q0 -51 -31 -79.5t-79 -28.5zM374 833q24 0 38.5 14.5
t14.5 38.5t-14.5 38.5t-38.5 14.5q-23 0 -38 -14.5t-15 -38.5t13.5 -38.5t39.5 -14.5z" />
    <glyph glyph-name="AE" unicode="&#xc6;" horiz-adv-x="746" 
d="M-61 0l413 714h435l-18 -89h-234l-44 -208h218l-19 -89h-218l-50 -239h233l-19 -89h-335l44 210h-176l-118 -210h-112zM221 300h143l69 325h-30z" />
    <glyph glyph-name="Ccedilla" unicode="&#xc7;" horiz-adv-x="523" 
d="M279 -10q-72 0 -121.5 31t-75.5 89t-26 139q0 62 14 129t42.5 128.5t71.5 111t100.5 78t129.5 28.5q49 0 88.5 -10t74.5 -31l-45 -83q-24 15 -53 25t-65 10q-52 0 -92.5 -24.5t-70.5 -65.5t-49.5 -91t-29 -102t-9.5 -99q0 -85 35 -129t102 -44q35 0 69.5 8t68.5 21v-89
q-34 -14 -72.5 -22t-86.5 -8zM200 -240q-17 0 -32 2t-26 5v59q10 -2 22 -4t25 -2q23 0 38.5 6t23.5 17.5t8 27.5q0 21 -17 31.5t-50 14.5l49 83h61l-29 -50q28 -7 47.5 -25.5t19.5 -53.5q0 -33 -16.5 -58t-48 -39t-75.5 -14z" />
    <glyph glyph-name="Egrave" unicode="&#xc8;" horiz-adv-x="468" 
d="M23 0l151 714h335l-19 -89h-233l-44 -208h217l-18 -89h-218l-51 -239h234l-19 -89h-335zM346 783q-17 19 -37.5 46t-38.5 55t-27 49v10h108q7 -23 15.5 -48.5t19.5 -50.5t23 -50v-11h-63z" />
    <glyph glyph-name="Eacute" unicode="&#xc9;" horiz-adv-x="468" 
d="M23 0l151 714h335l-19 -89h-233l-44 -208h217l-18 -89h-218l-51 -239h234l-19 -89h-335zM290 793q20 22 39.5 48t38 52.5t32.5 48.5h114v-9q-10 -13 -29.5 -33.5t-43 -43t-46 -42t-39.5 -32.5h-66v11z" />
    <glyph glyph-name="Ecircumflex" unicode="&#xca;" horiz-adv-x="468" 
d="M23 0l151 714h335l-19 -89h-233l-44 -208h217l-18 -89h-218l-51 -239h234l-19 -89h-335zM193 789q20 19 45.5 45t49 53t38.5 50h98q8 -23 21 -50t27.5 -53t25.5 -45l-1 -12h-62q-10 11 -22 25t-24 30.5t-24 33.5q-28 -27 -55.5 -49.5t-51.5 -39.5h-66z" />
    <glyph glyph-name="Edieresis" unicode="&#xcb;" horiz-adv-x="468" 
d="M23 0l151 714h335l-19 -89h-233l-44 -208h217l-18 -89h-218l-51 -239h234l-19 -89h-335zM440 799q-20 0 -32 11t-12 33q0 27 15.5 46t43.5 19q20 0 31 -10.5t11 -31.5q0 -30 -16 -48.5t-41 -18.5zM268 799q-20 0 -32.5 11t-12.5 33q0 27 15.5 46t43.5 19q14 0 23.5 -4.5
t14.5 -14t5 -23.5q0 -30 -16 -48.5t-41 -18.5z" />
    <glyph glyph-name="Igrave" unicode="&#xcc;" horiz-adv-x="318" 
d="M-32 0l12 57l84 23l117 554l-74 23l12 57h261l-12 -57l-85 -23l-117 -554l74 -23l-11 -57h-261zM260 785q-17 19 -37.5 46t-38.5 55t-27 49v10h108q7 -23 15.5 -48.5t19.5 -50.5t23 -50v-11h-63z" />
    <glyph glyph-name="Iacute" unicode="&#xcd;" horiz-adv-x="318" 
d="M-32 0l12 57l84 23l117 554l-74 23l12 57h261l-12 -57l-85 -23l-117 -554l74 -23l-11 -57h-261zM204 795q20 22 39.5 48t38 52.5t32.5 48.5h114v-9q-10 -13 -29.5 -33.5t-43 -43t-46 -42t-39.5 -32.5h-66v11z" />
    <glyph glyph-name="Icircumflex" unicode="&#xce;" horiz-adv-x="318" 
d="M-32 0l12 57l84 23l117 554l-74 23l12 57h261l-12 -57l-85 -23l-117 -554l74 -23l-11 -57h-261zM106 797q20 19 45.5 45t49 53t38.5 50h98q8 -23 21 -50t27.5 -53t25.5 -45l-1 -12h-62q-10 11 -22 25t-24 30.5t-24 33.5q-28 -27 -55.5 -49.5t-51.5 -39.5h-66z" />
    <glyph glyph-name="Idieresis" unicode="&#xcf;" horiz-adv-x="318" 
d="M-32 0l12 57l84 23l117 554l-74 23l12 57h261l-12 -57l-85 -23l-117 -554l74 -23l-11 -57h-261zM355 807q-20 0 -32 11t-12 33q0 27 15.5 46t43.5 19q20 0 31 -10.5t11 -31.5q0 -30 -16 -48.5t-41 -18.5zM183 807q-20 0 -32.5 11t-12.5 33q0 27 15.5 46t43.5 19
q14 0 23.5 -4.5t14.5 -14t5 -23.5q0 -30 -16 -48.5t-41 -18.5z" />
    <glyph glyph-name="Eth" unicode="&#xd0;" horiz-adv-x="599" 
d="M26 317l18 85h287l-18 -85h-287zM23 0l151 714h157q116 0 180 -64t64 -192q0 -72 -15.5 -140t-46 -125.5t-77 -101t-108 -67.5t-138.5 -24h-167zM198 89q55 0 98 20.5t75.5 56t54 82t32 99.5t10.5 107q0 90 -39.5 131t-108.5 41h-63l-114 -537h55z" />
    <glyph glyph-name="Ntilde" unicode="&#xd1;" horiz-adv-x="650" 
d="M23 0l151 714h114l162 -561h3q5 27 10.5 60.5t12 67t11.5 60.5l80 373h96l-152 -714h-112l-165 568h-4q-2 -18 -6 -43.5t-9 -53.5l-10 -56t-10 -50l-77 -365h-95zM267 777q9 44 24.5 73.5t37.5 45t52 15.5q22 0 39.5 -8.5t33 -19t29 -19t26.5 -8.5q18 0 29 12.5t21 43.5
h60q-10 -46 -27 -76t-38.5 -44t-48.5 -14q-21 0 -38.5 8.5t-32.5 19.5t-29 19.5t-29 8.5q-18 0 -29.5 -14.5t-20.5 -42.5h-59z" />
    <glyph glyph-name="Ograve" unicode="&#xd2;" horiz-adv-x="645" 
d="M284 -10q-74 0 -125 30t-77 86.5t-26 136.5q0 58 10 116t29.5 111.5t48 100t66.5 81t85 54t102 19.5q110 0 166.5 -66t56.5 -186q0 -56 -8.5 -113t-27 -111t-46.5 -101t-65 -82.5t-84 -55.5t-105 -20zM290 80q35 0 65 16t55 45t44.5 66.5t32.5 82t20 91.5t7 93
q0 78 -32.5 119.5t-91.5 41.5q-37 0 -68 -16.5t-56 -46t-44.5 -68t-32.5 -82.5t-19.5 -89.5t-6.5 -88.5q0 -54 15 -90.5t43.5 -55t68.5 -18.5zM425 783q-17 19 -37.5 46t-38.5 55t-27 49v10h108q7 -23 15.5 -48.5t19.5 -50.5t23 -50v-11h-63z" />
    <glyph glyph-name="Oacute" unicode="&#xd3;" horiz-adv-x="645" 
d="M284 -10q-74 0 -125 30t-77 86.5t-26 136.5q0 58 10 116t29.5 111.5t48 100t66.5 81t85 54t102 19.5q110 0 166.5 -66t56.5 -186q0 -56 -8.5 -113t-27 -111t-46.5 -101t-65 -82.5t-84 -55.5t-105 -20zM290 80q35 0 65 16t55 45t44.5 66.5t32.5 82t20 91.5t7 93
q0 78 -32.5 119.5t-91.5 41.5q-37 0 -68 -16.5t-56 -46t-44.5 -68t-32.5 -82.5t-19.5 -89.5t-6.5 -88.5q0 -54 15 -90.5t43.5 -55t68.5 -18.5zM369 793q20 22 39.5 48t38 52.5t32.5 48.5h114v-9q-10 -13 -29.5 -33.5t-43 -43t-46 -42t-39.5 -32.5h-66v11z" />
    <glyph glyph-name="Ocircumflex" unicode="&#xd4;" horiz-adv-x="645" 
d="M284 -10q-74 0 -125 30t-77 86.5t-26 136.5q0 58 10 116t29.5 111.5t48 100t66.5 81t85 54t102 19.5q110 0 166.5 -66t56.5 -186q0 -56 -8.5 -113t-27 -111t-46.5 -101t-65 -82.5t-84 -55.5t-105 -20zM290 80q35 0 65 16t55 45t44.5 66.5t32.5 82t20 91.5t7 93
q0 78 -32.5 119.5t-91.5 41.5q-37 0 -68 -16.5t-56 -46t-44.5 -68t-32.5 -82.5t-19.5 -89.5t-6.5 -88.5q0 -54 15 -90.5t43.5 -55t68.5 -18.5zM265 789q20 19 45.5 45t49 53t38.5 50h98q8 -23 21 -50t27.5 -53t25.5 -45l-1 -12h-62q-10 11 -22 25t-24 30.5t-24 33.5
q-28 -27 -55.5 -49.5t-51.5 -39.5h-66z" />
    <glyph glyph-name="Otilde" unicode="&#xd5;" horiz-adv-x="645" 
d="M284 -10q-74 0 -125 30t-77 86.5t-26 136.5q0 58 10 116t29.5 111.5t48 100t66.5 81t85 54t102 19.5q110 0 166.5 -66t56.5 -186q0 -56 -8.5 -113t-27 -111t-46.5 -101t-65 -82.5t-84 -55.5t-105 -20zM290 80q35 0 65 16t55 45t44.5 66.5t32.5 82t20 91.5t7 93
q0 78 -32.5 119.5t-91.5 41.5q-37 0 -68 -16.5t-56 -46t-44.5 -68t-32.5 -82.5t-19.5 -89.5t-6.5 -88.5q0 -54 15 -90.5t43.5 -55t68.5 -18.5zM261 777q9 44 24.5 73.5t37.5 45t52 15.5q22 0 39.5 -8.5t33 -19t29 -19t26.5 -8.5q18 0 29 12.5t21 43.5h60q-10 -46 -27 -76
t-38.5 -44t-48.5 -14q-21 0 -38.5 8.5t-32.5 19.5t-29 19.5t-29 8.5q-18 0 -29.5 -14.5t-20.5 -42.5h-59z" />
    <glyph glyph-name="Odieresis" unicode="&#xd6;" horiz-adv-x="645" 
d="M284 -10q-74 0 -125 30t-77 86.5t-26 136.5q0 58 10 116t29.5 111.5t48 100t66.5 81t85 54t102 19.5q110 0 166.5 -66t56.5 -186q0 -56 -8.5 -113t-27 -111t-46.5 -101t-65 -82.5t-84 -55.5t-105 -20zM290 80q35 0 65 16t55 45t44.5 66.5t32.5 82t20 91.5t7 93
q0 78 -32.5 119.5t-91.5 41.5q-37 0 -68 -16.5t-56 -46t-44.5 -68t-32.5 -82.5t-19.5 -89.5t-6.5 -88.5q0 -54 15 -90.5t43.5 -55t68.5 -18.5zM528 807q-20 0 -32 11t-12 33q0 27 15.5 46t43.5 19q20 0 31 -10.5t11 -31.5q0 -30 -16 -48.5t-41 -18.5zM356 807
q-20 0 -32.5 11t-12.5 33q0 27 15.5 46t43.5 19q14 0 23.5 -4.5t14.5 -14t5 -23.5q0 -30 -16 -48.5t-41 -18.5z" />
    <glyph glyph-name="multiply" unicode="&#xd7;" horiz-adv-x="525" 
d="M429 563l57 -57l-153 -153l151 -153l-56 -56l-153 152l-151 -152l-56 57l151 152l-152 152l57 57l152 -152z" />
    <glyph glyph-name="Oslash" unicode="&#xd8;" horiz-adv-x="645" 
d="M89 -44l-57 41l64 87q-20 31 -30 71.5t-10 87.5q0 58 10 116t29.5 111.5t48 100t66.5 81t85 54t103 19.5q42 0 76.5 -11.5t62.5 -34.5l55 75l57 -42l-65 -88q18 -28 27 -67t9 -84q0 -56 -8.5 -113t-27 -111t-46.5 -101t-65 -82.5t-84 -55.5t-105 -20q-43 0 -77 10.5
t-61 31.5zM290 79q35 0 65 15.5t54.5 42.5t43.5 63.5t32.5 79t21 88.5t7.5 92q1 17 -1 33t-5 29l-303 -409q15 -16 36.5 -25t48.5 -9zM476 597q-15 20 -36.5 29.5t-50.5 9.5q-36 0 -66.5 -15.5t-55.5 -44t-44 -65t-32.5 -79t-20.5 -87t-8 -88.5q0 -20 2.5 -38.5t6.5 -34.5z
" />
    <glyph glyph-name="Ugrave" unicode="&#xd9;" horiz-adv-x="608" 
d="M256 -10q-64 0 -108 21.5t-66 62.5t-22 98q0 17 3 40t8 47l97 455h101l-97 -458q-4 -20 -6.5 -40.5t-2.5 -35.5q0 -48 26 -74t77 -26q46 0 76.5 18.5t50 55.5t31.5 93l100 467h102l-102 -477q-16 -75 -48 -130.5t-85.5 -86t-134.5 -30.5zM406 783q-17 19 -37.5 46
t-38.5 55t-27 49v10h108q7 -23 15.5 -48.5t19.5 -50.5t23 -50v-11h-63z" />
    <glyph glyph-name="Uacute" unicode="&#xda;" horiz-adv-x="608" 
d="M256 -10q-64 0 -108 21.5t-66 62.5t-22 98q0 17 3 40t8 47l97 455h101l-97 -458q-4 -20 -6.5 -40.5t-2.5 -35.5q0 -48 26 -74t77 -26q46 0 76.5 18.5t50 55.5t31.5 93l100 467h102l-102 -477q-16 -75 -48 -130.5t-85.5 -86t-134.5 -30.5zM350 793q20 22 39.5 48t38 52.5
t32.5 48.5h114v-9q-10 -13 -29.5 -33.5t-43 -43t-46 -42t-39.5 -32.5h-66v11z" />
    <glyph glyph-name="Ucircumflex" unicode="&#xdb;" horiz-adv-x="608" 
d="M256 -10q-64 0 -108 21.5t-66 62.5t-22 98q0 17 3 40t8 47l97 455h101l-97 -458q-4 -20 -6.5 -40.5t-2.5 -35.5q0 -48 26 -74t77 -26q46 0 76.5 18.5t50 55.5t31.5 93l100 467h102l-102 -477q-16 -75 -48 -130.5t-85.5 -86t-134.5 -30.5zM250 789q20 19 45.5 45t49 53
t38.5 50h98q8 -23 21 -50t27.5 -53t25.5 -45l-1 -12h-62q-10 11 -22 25t-24 30.5t-24 33.5q-28 -27 -55.5 -49.5t-51.5 -39.5h-66z" />
    <glyph glyph-name="Udieresis" unicode="&#xdc;" horiz-adv-x="608" 
d="M256 -10q-64 0 -108 21.5t-66 62.5t-22 98q0 17 3 40t8 47l97 455h101l-97 -458q-4 -20 -6.5 -40.5t-2.5 -35.5q0 -48 26 -74t77 -26q46 0 76.5 18.5t50 55.5t31.5 93l100 467h102l-102 -477q-16 -75 -48 -130.5t-85.5 -86t-134.5 -30.5zM509 807q-20 0 -32 11t-12 33
q0 27 15.5 46t43.5 19q20 0 31 -10.5t11 -31.5q0 -30 -16 -48.5t-41 -18.5zM337 807q-20 0 -32.5 11t-12.5 33q0 27 15.5 46t43.5 19q14 0 23.5 -4.5t14.5 -14t5 -23.5q0 -30 -16 -48.5t-41 -18.5z" />
    <glyph glyph-name="Yacute" unicode="&#xdd;" horiz-adv-x="471" 
d="M123 0l58 271l-91 443h103l59 -329l196 329h113l-279 -443l-57 -271h-102zM281 793q20 22 39.5 48t38 52.5t32.5 48.5h114v-9q-10 -13 -29.5 -33.5t-43 -43t-46 -42t-39.5 -32.5h-66v11z" />
    <glyph glyph-name="Thorn" unicode="&#xde;" horiz-adv-x="518" 
d="M23 0l151 714h102l-26 -121h49q71 0 115.5 -22t65.5 -62.5t21 -94.5q0 -60 -19.5 -108.5t-56.5 -83t-90.5 -52.5t-121.5 -18h-56l-32 -152h-102zM222 239q55 0 93.5 19.5t60 57t21.5 91.5q0 51 -27.5 74.5t-82.5 23.5h-55l-57 -266h47z" />
    <glyph glyph-name="germandbls" unicode="&#xdf;" horiz-adv-x="543" 
d="M-66 -240q-17 0 -33.5 2.5t-28.5 6.5v86q11 -5 23.5 -7.5t26.5 -2.5q31 0 49.5 23.5t29.5 76.5l133 623q14 66 42 109.5t73 65.5t108 22q78 0 123 -35.5t45 -97.5q0 -35 -11.5 -62t-32 -49t-46.5 -44q-29 -23 -50 -44t-21 -49q0 -13 7.5 -25.5t19.5 -25t23 -24.5
q31 -30 50.5 -61.5t19.5 -77.5q0 -57 -25 -97.5t-68.5 -61.5t-99.5 -21q-39 0 -69.5 8t-51.5 22l4 90q22 -16 51 -27t58 -11q49 0 74 25t25 63q0 18 -6 33t-18 31t-32 36q-33 31 -48.5 57.5t-15.5 58.5q0 30 11.5 53.5t31 43t42.5 37.5q22 17 39 33.5t27 35.5t10 42
q0 29 -20 45t-55 16q-32 0 -55 -14t-37.5 -40.5t-23.5 -64.5l-131 -622q-12 -54 -31 -95t-51.5 -63.5t-84.5 -22.5z" />
    <glyph glyph-name="agrave" unicode="&#xe0;" horiz-adv-x="523" 
d="M171 -10q-39 0 -69 19.5t-47 58t-17 96.5q0 53 10.5 107.5t31.5 104.5t50.5 88.5t68 61.5t83.5 23q31 0 54 -11t39 -30t26 -44h4l28 75h79l-114 -539h-79l9 85h-3q-20 -27 -43.5 -48.5t-51 -34t-59.5 -12.5zM206 73q34 0 63 26.5t51.5 69t34.5 91.5q9 34 12 61.5t3 52.5
q0 41 -20 65.5t-54 24.5q-28 0 -51.5 -17.5t-43 -48t-33 -68.5t-21 -80t-7.5 -82q0 -47 17.5 -71t48.5 -24zM327 608q-17 19 -37.5 46t-38.5 55t-27 49v10h108q7 -23 15.5 -48.5t19.5 -50.5t23 -50v-11h-63z" />
    <glyph glyph-name="aacute" unicode="&#xe1;" horiz-adv-x="523" 
d="M171 -10q-39 0 -69 19.5t-47 58t-17 96.5q0 53 10.5 107.5t31.5 104.5t50.5 88.5t68 61.5t83.5 23q31 0 54 -11t39 -30t26 -44h4l28 75h79l-114 -539h-79l9 85h-3q-20 -27 -43.5 -48.5t-51 -34t-59.5 -12.5zM206 73q34 0 63 26.5t51.5 69t34.5 91.5q9 34 12 61.5t3 52.5
q0 41 -20 65.5t-54 24.5q-28 0 -51.5 -17.5t-43 -48t-33 -68.5t-21 -80t-7.5 -82q0 -47 17.5 -71t48.5 -24zM270 619q20 22 39.5 48t38 52.5t32.5 48.5h114v-9q-10 -13 -29.5 -33.5t-43 -43t-46 -42t-39.5 -32.5h-66v11z" />
    <glyph glyph-name="acircumflex" unicode="&#xe2;" horiz-adv-x="523" 
d="M171 -10q-39 0 -69 19.5t-47 58t-17 96.5q0 53 10.5 107.5t31.5 104.5t50.5 88.5t68 61.5t83.5 23q31 0 54 -11t39 -30t26 -44h4l28 75h79l-114 -539h-79l9 85h-3q-20 -27 -43.5 -48.5t-51 -34t-59.5 -12.5zM206 73q34 0 63 26.5t51.5 69t34.5 91.5q9 34 12 61.5t3 52.5
q0 41 -20 65.5t-54 24.5q-28 0 -51.5 -17.5t-43 -48t-33 -68.5t-21 -80t-7.5 -82q0 -47 17.5 -71t48.5 -24zM174 619q20 19 45.5 45t49 53t38.5 50h98q8 -23 21 -50t27.5 -53t25.5 -45l-1 -12h-62q-10 11 -22 25t-24 30.5t-24 33.5q-28 -27 -55.5 -49.5t-51.5 -39.5h-66z
" />
    <glyph glyph-name="atilde" unicode="&#xe3;" horiz-adv-x="523" 
d="M171 -10q-39 0 -69 19.5t-47 58t-17 96.5q0 53 10.5 107.5t31.5 104.5t50.5 88.5t68 61.5t83.5 23q31 0 54 -11t39 -30t26 -44h4l28 75h79l-114 -539h-79l9 85h-3q-20 -27 -43.5 -48.5t-51 -34t-59.5 -12.5zM206 73q34 0 63 26.5t51.5 69t34.5 91.5q9 34 12 61.5t3 52.5
q0 41 -20 65.5t-54 24.5q-28 0 -51.5 -17.5t-43 -48t-33 -68.5t-21 -80t-7.5 -82q0 -47 17.5 -71t48.5 -24zM169 607q9 44 24.5 73.5t37.5 45t52 15.5q22 0 39.5 -8.5t33 -19t29 -19t26.5 -8.5q18 0 29 12.5t21 43.5h60q-10 -46 -27 -76t-38.5 -44t-48.5 -14
q-21 0 -38.5 8.5t-32.5 19.5t-29 19.5t-29 8.5q-18 0 -29.5 -14.5t-20.5 -42.5h-59z" />
    <glyph glyph-name="adieresis" unicode="&#xe4;" horiz-adv-x="523" 
d="M171 -10q-39 0 -69 19.5t-47 58t-17 96.5q0 53 10.5 107.5t31.5 104.5t50.5 88.5t68 61.5t83.5 23q31 0 54 -11t39 -30t26 -44h4l28 75h79l-114 -539h-79l9 85h-3q-20 -27 -43.5 -48.5t-51 -34t-59.5 -12.5zM206 73q34 0 63 26.5t51.5 69t34.5 91.5q9 34 12 61.5t3 52.5
q0 41 -20 65.5t-54 24.5q-28 0 -51.5 -17.5t-43 -48t-33 -68.5t-21 -80t-7.5 -82q0 -47 17.5 -71t48.5 -24zM423 629q-20 0 -32 11t-12 33q0 27 15.5 46t43.5 19q20 0 31 -10.5t11 -31.5q0 -30 -16 -48.5t-41 -18.5zM251 629q-20 0 -32.5 11t-12.5 33q0 27 15.5 46t43.5 19
q14 0 23.5 -4.5t14.5 -14t5 -23.5q0 -30 -16 -48.5t-41 -18.5z" />
    <glyph glyph-name="aring" unicode="&#xe5;" horiz-adv-x="523" 
d="M171 -10q-39 0 -69 19.5t-47 58t-17 96.5q0 53 10.5 107.5t31.5 104.5t50.5 88.5t68 61.5t83.5 23q31 0 54 -11t39 -30t26 -44h4l28 75h79l-114 -539h-79l9 85h-3q-20 -27 -43.5 -48.5t-51 -34t-59.5 -12.5zM206 73q34 0 63 26.5t51.5 69t34.5 91.5q9 34 12 61.5t3 52.5
q0 41 -20 65.5t-54 24.5q-28 0 -51.5 -17.5t-43 -48t-33 -68.5t-21 -80t-7.5 -82q0 -47 17.5 -71t48.5 -24zM342 607q-50 0 -80 28t-30 78q0 49 31 77.5t79 28.5t78.5 -28t31.5 -76q0 -51 -31 -79.5t-79 -28.5zM342 660q24 0 38.5 14.5t14.5 38.5t-14.5 38.5t-38.5 14.5
q-23 0 -38 -14.5t-15 -38.5t13.5 -38.5t39.5 -14.5z" />
    <glyph glyph-name="ae" unicode="&#xe6;" horiz-adv-x="760" 
d="M161 -10q-37 0 -65 20t-43 59t-15 95q0 58 11.5 114t32.5 105t50.5 86.5t66.5 58.5t79 21q28 0 49 -10.5t36.5 -28.5t25.5 -43h4l25 72h67l-13 -60q24 30 59 50t81 20q57 0 93.5 -33t36.5 -93q0 -43 -18 -78t-54.5 -60.5t-90.5 -39t-128 -13.5h-16q-2 -12 -3 -23.5
t-1 -23.5q0 -52 24.5 -83t79.5 -31q34 0 67 11t69 28l-5 -84q-36 -17 -71.5 -26.5t-77.5 -9.5q-48 0 -81.5 17.5t-50.5 52.5l-12 -60h-67l10 84h-3q-22 -29 -44.5 -50t-49 -32.5t-58.5 -11.5zM198 73q25 0 46.5 14.5t40 39.5t33 58.5t24.5 70.5q9 34 12.5 63t3.5 55
q0 41 -17 65.5t-48 24.5q-26 0 -49 -17t-42 -46t-33 -67t-21.5 -80.5t-7.5 -85.5q0 -48 15.5 -71.5t42.5 -23.5zM458 307q58 0 100 12.5t65 37t23 59.5q0 27 -15 40t-40 13q-30 0 -58 -20t-49.5 -56.5t-35.5 -85.5h10z" />
    <glyph glyph-name="ccedilla" unicode="&#xe7;" horiz-adv-x="413" 
d="M214 -10q-52 0 -92 20.5t-62 62t-22 104.5q0 55 11.5 108t33 101t53.5 84.5t74.5 57.5t94.5 21q35 0 66.5 -7t58.5 -21l-33 -80q-19 9 -42 16.5t-49 7.5q-39 0 -70 -25t-52.5 -66t-32.5 -91t-11 -99q0 -36 11 -60.5t31 -37t50 -12.5q29 0 57 9.5t57 23.5v-84
q-27 -14 -60 -23.5t-72 -9.5zM122 -240q-17 0 -32 2t-26 5v59q10 -2 22 -4t25 -2q23 0 38.5 6t23.5 17.5t8 27.5q0 21 -17 31.5t-50 14.5l49 83h61l-29 -50q28 -7 47.5 -25.5t19.5 -53.5q0 -33 -16.5 -58t-48 -39t-75.5 -14z" />
    <glyph glyph-name="egrave" unicode="&#xe8;" horiz-adv-x="471" 
d="M219 -10q-57 0 -97.5 22.5t-62 65.5t-21.5 103q0 70 18.5 135.5t53 118t83 83.5t110.5 31q70 0 107.5 -33.5t37.5 -92.5q0 -43 -18 -78t-54.5 -60.5t-90.5 -39t-128 -13.5h-15q-2 -12 -3 -24t-1 -23q0 -55 25.5 -84.5t75.5 -29.5q36 0 66.5 9.5t68.5 28.5v-81
q-36 -18 -72 -28t-83 -10zM164 307q58 0 100 12.5t65 37t23 60.5q0 24 -14 38t-44 14q-28 0 -55 -19.5t-49 -56t-35 -86.5h9zM307 606q-17 19 -37.5 46t-38.5 55t-27 49v10h108q7 -23 15.5 -48.5t19.5 -50.5t23 -50v-11h-63z" />
    <glyph glyph-name="eacute" unicode="&#xe9;" horiz-adv-x="471" 
d="M219 -10q-57 0 -97.5 22.5t-62 65.5t-21.5 103q0 70 18.5 135.5t53 118t83 83.5t110.5 31q70 0 107.5 -33.5t37.5 -92.5q0 -43 -18 -78t-54.5 -60.5t-90.5 -39t-128 -13.5h-15q-2 -12 -3 -24t-1 -23q0 -55 25.5 -84.5t75.5 -29.5q36 0 66.5 9.5t68.5 28.5v-81
q-36 -18 -72 -28t-83 -10zM164 307q58 0 100 12.5t65 37t23 60.5q0 24 -14 38t-44 14q-28 0 -55 -19.5t-49 -56t-35 -86.5h9zM249 617q20 22 39.5 48t38 52.5t32.5 48.5h114v-9q-10 -13 -29.5 -33.5t-43 -43t-46 -42t-39.5 -32.5h-66v11z" />
    <glyph glyph-name="ecircumflex" unicode="&#xea;" horiz-adv-x="471" 
d="M219 -10q-57 0 -97.5 22.5t-62 65.5t-21.5 103q0 70 18.5 135.5t53 118t83 83.5t110.5 31q70 0 107.5 -33.5t37.5 -92.5q0 -43 -18 -78t-54.5 -60.5t-90.5 -39t-128 -13.5h-15q-2 -12 -3 -24t-1 -23q0 -55 25.5 -84.5t75.5 -29.5q36 0 66.5 9.5t68.5 28.5v-81
q-36 -18 -72 -28t-83 -10zM164 307q58 0 100 12.5t65 37t23 60.5q0 24 -14 38t-44 14q-28 0 -55 -19.5t-49 -56t-35 -86.5h9zM155 618q20 19 45.5 45t49 53t38.5 50h98q8 -23 21 -50t27.5 -53t25.5 -45l-1 -12h-62q-10 11 -22 25t-24 30.5t-24 33.5q-28 -27 -55.5 -49.5
t-51.5 -39.5h-66z" />
    <glyph glyph-name="edieresis" unicode="&#xeb;" horiz-adv-x="471" 
d="M219 -10q-57 0 -97.5 22.5t-62 65.5t-21.5 103q0 70 18.5 135.5t53 118t83 83.5t110.5 31q70 0 107.5 -33.5t37.5 -92.5q0 -43 -18 -78t-54.5 -60.5t-90.5 -39t-128 -13.5h-15q-2 -12 -3 -24t-1 -23q0 -55 25.5 -84.5t75.5 -29.5q36 0 66.5 9.5t68.5 28.5v-81
q-36 -18 -72 -28t-83 -10zM164 307q58 0 100 12.5t65 37t23 60.5q0 24 -14 38t-44 14q-28 0 -55 -19.5t-49 -56t-35 -86.5h9zM405 628q-20 0 -32 11t-12 33q0 27 15.5 46t43.5 19q20 0 31 -10.5t11 -31.5q0 -30 -16 -48.5t-41 -18.5zM233 628q-20 0 -32.5 11t-12.5 33
q0 27 15.5 46t43.5 19q14 0 23.5 -4.5t14.5 -14t5 -23.5q0 -30 -16 -48.5t-41 -18.5z" />
    <glyph glyph-name="igrave" unicode="&#xec;" horiz-adv-x="244" 
d="M15 0l115 539h99l-115 -539h-99zM188 608q-17 19 -37.5 46t-38.5 55t-27 49v10h108q7 -23 15.5 -48.5t19.5 -50.5t23 -50v-11h-63z" />
    <glyph glyph-name="iacute" unicode="&#xed;" horiz-adv-x="244" 
d="M15 0l115 539h99l-115 -539h-99zM132 619q20 22 39.5 48t38 52.5t32.5 48.5h114v-9q-10 -13 -29.5 -33.5t-43 -43t-46 -42t-39.5 -32.5h-66v11z" />
    <glyph glyph-name="icircumflex" unicode="&#xee;" horiz-adv-x="244" 
d="M15 0l115 539h99l-115 -539h-99zM33 618q20 19 45.5 45t49 53t38.5 50h98q8 -23 21 -50t27.5 -53t25.5 -45l-1 -12h-62q-10 11 -22 25t-24 30.5t-24 33.5q-28 -27 -55.5 -49.5t-51.5 -39.5h-66z" />
    <glyph glyph-name="idieresis" unicode="&#xef;" horiz-adv-x="244" 
d="M15 0l115 539h99l-115 -539h-99zM283 628q-20 0 -32 11t-12 33q0 27 15.5 46t43.5 19q20 0 31 -10.5t11 -31.5q0 -30 -16 -48.5t-41 -18.5zM111 628q-20 0 -32.5 11t-12.5 33q0 27 15.5 46t43.5 19q14 0 23.5 -4.5t14.5 -14t5 -23.5q0 -30 -16 -48.5t-41 -18.5z" />
    <glyph glyph-name="eth" unicode="&#xf0;" horiz-adv-x="515" 
d="M207 -10q-55 0 -94.5 21t-61 62.5t-21.5 101.5q0 54 15.5 107.5t46 97.5t75 70.5t102.5 26.5q47 0 74.5 -22t40.5 -52l2 1q0 56 -12.5 105.5t-47.5 92.5l-113 -65l-32 54l104 60q-13 13 -30 26t-37 26l49 63q25 -15 49 -32t45 -38l112 65l32 -53l-102 -60q24 -32 40 -69
t24.5 -80t8.5 -93q0 -56 -8.5 -114.5t-28 -112.5t-50.5 -96.5t-76 -67.5t-106 -25zM213 72q31 0 54.5 14t41 38.5t29.5 53.5t17 59t5 56q0 21 -4.5 39.5t-15 32.5t-26.5 22.5t-39 8.5q-36 0 -63.5 -20t-45 -53t-26.5 -72t-9 -77q0 -47 20 -74.5t62 -27.5z" />
    <glyph glyph-name="ntilde" unicode="&#xf1;" horiz-adv-x="527" 
d="M13 0l115 540h83l-10 -89h2q18 27 40.5 49.5t51.5 36t64 13.5q38 0 66 -14.5t43.5 -43t15.5 -70.5q0 -21 -4 -45.5t-8 -46.5l-71 -330h-102l70 331q5 22 8 41t3 34q0 28 -14 42t-41 14q-31 0 -61 -23.5t-54.5 -70t-40.5 -117.5l-53 -251h-103zM172 607q9 44 24.5 73.5
t37.5 45t52 15.5q22 0 39.5 -8.5t33 -19t29 -19t26.5 -8.5q18 0 29 12.5t21 43.5h60q-10 -46 -27 -76t-38.5 -44t-48.5 -14q-21 0 -38.5 8.5t-32.5 19.5t-29 19.5t-29 8.5q-18 0 -29.5 -14.5t-20.5 -42.5h-59z" />
    <glyph glyph-name="ograve" unicode="&#xf2;" horiz-adv-x="514" 
d="M216 -9q-54 0 -94.5 23t-62 66t-21.5 103q0 48 10 99t30.5 98t51 85t73 60.5t96.5 22.5q55 0 94.5 -23.5t61 -67t21.5 -104.5q0 -50 -10.5 -101.5t-30.5 -98t-51 -83t-73 -58t-95 -21.5zM224 75q27 0 50 15t41.5 42.5t31.5 63.5t20.5 77.5t7.5 84.5q0 29 -8.5 53
t-26 38.5t-47.5 14.5t-54 -17.5t-43 -46.5t-31.5 -66t-19 -76.5t-6.5 -76.5q0 -51 22 -78.5t63 -27.5zM313 606q-17 19 -37.5 46t-38.5 55t-27 49v10h108q7 -23 15.5 -48.5t19.5 -50.5t23 -50v-11h-63z" />
    <glyph glyph-name="oacute" unicode="&#xf3;" horiz-adv-x="514" 
d="M216 -9q-54 0 -94.5 23t-62 66t-21.5 103q0 48 10 99t30.5 98t51 85t73 60.5t96.5 22.5q55 0 94.5 -23.5t61 -67t21.5 -104.5q0 -50 -10.5 -101.5t-30.5 -98t-51 -83t-73 -58t-95 -21.5zM224 75q27 0 50 15t41.5 42.5t31.5 63.5t20.5 77.5t7.5 84.5q0 29 -8.5 53
t-26 38.5t-47.5 14.5t-54 -17.5t-43 -46.5t-31.5 -66t-19 -76.5t-6.5 -76.5q0 -51 22 -78.5t63 -27.5zM257 617q20 22 39.5 48t38 52.5t32.5 48.5h114v-9q-10 -13 -29.5 -33.5t-43 -43t-46 -42t-39.5 -32.5h-66v11z" />
    <glyph glyph-name="ocircumflex" unicode="&#xf4;" horiz-adv-x="514" 
d="M216 -9q-54 0 -94.5 23t-62 66t-21.5 103q0 48 10 99t30.5 98t51 85t73 60.5t96.5 22.5q55 0 94.5 -23.5t61 -67t21.5 -104.5q0 -50 -10.5 -101.5t-30.5 -98t-51 -83t-73 -58t-95 -21.5zM224 75q27 0 50 15t41.5 42.5t31.5 63.5t20.5 77.5t7.5 84.5q0 29 -8.5 53
t-26 38.5t-47.5 14.5t-54 -17.5t-43 -46.5t-31.5 -66t-19 -76.5t-6.5 -76.5q0 -51 22 -78.5t63 -27.5zM158 618q20 19 45.5 45t49 53t38.5 50h98q8 -23 21 -50t27.5 -53t25.5 -45l-1 -12h-62q-10 11 -22 25t-24 30.5t-24 33.5q-28 -27 -55.5 -49.5t-51.5 -39.5h-66z" />
    <glyph glyph-name="otilde" unicode="&#xf5;" horiz-adv-x="514" 
d="M216 -9q-54 0 -94.5 23t-62 66t-21.5 103q0 48 10 99t30.5 98t51 85t73 60.5t96.5 22.5q55 0 94.5 -23.5t61 -67t21.5 -104.5q0 -50 -10.5 -101.5t-30.5 -98t-51 -83t-73 -58t-95 -21.5zM224 75q27 0 50 15t41.5 42.5t31.5 63.5t20.5 77.5t7.5 84.5q0 29 -8.5 53
t-26 38.5t-47.5 14.5t-54 -17.5t-43 -46.5t-31.5 -66t-19 -76.5t-6.5 -76.5q0 -51 22 -78.5t63 -27.5zM152 606q9 44 24.5 73.5t37.5 45t52 15.5q22 0 39.5 -8.5t33 -19t29 -19t26.5 -8.5q18 0 29 12.5t21 43.5h60q-10 -46 -27 -76t-38.5 -44t-48.5 -14q-21 0 -38.5 8.5
t-32.5 19.5t-29 19.5t-29 8.5q-18 0 -29.5 -14.5t-20.5 -42.5h-59z" />
    <glyph glyph-name="odieresis" unicode="&#xf6;" horiz-adv-x="514" 
d="M216 -9q-54 0 -94.5 23t-62 66t-21.5 103q0 48 10 99t30.5 98t51 85t73 60.5t96.5 22.5q55 0 94.5 -23.5t61 -67t21.5 -104.5q0 -50 -10.5 -101.5t-30.5 -98t-51 -83t-73 -58t-95 -21.5zM224 75q27 0 50 15t41.5 42.5t31.5 63.5t20.5 77.5t7.5 84.5q0 29 -8.5 53
t-26 38.5t-47.5 14.5t-54 -17.5t-43 -46.5t-31.5 -66t-19 -76.5t-6.5 -76.5q0 -51 22 -78.5t63 -27.5zM406 628q-20 0 -32 11t-12 33q0 27 15.5 46t43.5 19q20 0 31 -10.5t11 -31.5q0 -30 -16 -48.5t-41 -18.5zM234 628q-20 0 -32.5 11t-12.5 33q0 27 15.5 46t43.5 19
q14 0 23.5 -4.5t14.5 -14t5 -23.5q0 -30 -16 -48.5t-41 -18.5z" />
    <glyph glyph-name="divide" unicode="&#xf7;" horiz-adv-x="525" 
d="M56 312v81h440v-81h-440zM276 112q-25 0 -41.5 16t-16.5 50q0 35 16.5 50t41.5 15t41.5 -15t16.5 -50q0 -34 -16.5 -50t-41.5 -16zM276 462q-25 0 -41.5 16t-16.5 49q0 35 16.5 50t41.5 15t41.5 -15t16.5 -50q0 -33 -16.5 -49t-41.5 -16z" />
    <glyph glyph-name="oslash" unicode="&#xf8;" horiz-adv-x="514" 
d="M65 -49l-53 39l56 76q-14 24 -21.5 53t-7.5 64q0 47 10 98t30 98t51 85.5t73 61t96 22.5q32 0 58 -8t46 -23l45 60l53 -38l-52 -68q13 -22 19.5 -52t6.5 -62q0 -48 -9.5 -99t-29.5 -98.5t-51 -85.5t-73 -60.5t-95 -22.5q-30 0 -56 7t-46 21zM224 71q27 0 50 14.5t41.5 40
t32 59t21 72t8.5 78.5q1 11 0 21t-2 17l-207 -281q10 -10 24.5 -15.5t31.5 -5.5zM350 443q-9 11 -23 17t-34 6q-29 0 -53 -15.5t-42.5 -42t-32 -60.5t-20.5 -71.5t-8 -74.5q-1 -13 0 -24t3 -18z" />
    <glyph glyph-name="ugrave" unicode="&#xf9;" horiz-adv-x="527" 
d="M166 -10q-39 0 -66.5 15t-42 44t-14.5 69q0 20 3.5 43.5t8.5 46.5l70 331h100l-71 -334q-4 -21 -6.5 -38.5t-2.5 -32.5q0 -28 13 -43.5t42 -15.5q32 0 62.5 23.5t55.5 71t40 118.5l53 251h99l-114 -539h-79l8 88h-4q-18 -26 -41 -48.5t-51 -36t-63 -13.5zM328 606
q-17 19 -37.5 46t-38.5 55t-27 49v10h108q7 -23 15.5 -48.5t19.5 -50.5t23 -50v-11h-63z" />
    <glyph glyph-name="uacute" unicode="&#xfa;" horiz-adv-x="527" 
d="M166 -10q-39 0 -66.5 15t-42 44t-14.5 69q0 20 3.5 43.5t8.5 46.5l70 331h100l-71 -334q-4 -21 -6.5 -38.5t-2.5 -32.5q0 -28 13 -43.5t42 -15.5q32 0 62.5 23.5t55.5 71t40 118.5l53 251h99l-114 -539h-79l8 88h-4q-18 -26 -41 -48.5t-51 -36t-63 -13.5zM274 617
q20 22 39.5 48t38 52.5t32.5 48.5h114v-9q-10 -13 -29.5 -33.5t-43 -43t-46 -42t-39.5 -32.5h-66v11z" />
    <glyph glyph-name="ucircumflex" unicode="&#xfb;" horiz-adv-x="527" 
d="M166 -10q-39 0 -66.5 15t-42 44t-14.5 69q0 20 3.5 43.5t8.5 46.5l70 331h100l-71 -334q-4 -21 -6.5 -38.5t-2.5 -32.5q0 -28 13 -43.5t42 -15.5q32 0 62.5 23.5t55.5 71t40 118.5l53 251h99l-114 -539h-79l8 88h-4q-18 -26 -41 -48.5t-51 -36t-63 -13.5zM175 618
q20 19 45.5 45t49 53t38.5 50h98q8 -23 21 -50t27.5 -53t25.5 -45l-1 -12h-62q-10 11 -22 25t-24 30.5t-24 33.5q-28 -27 -55.5 -49.5t-51.5 -39.5h-66z" />
    <glyph glyph-name="udieresis" unicode="&#xfc;" horiz-adv-x="527" 
d="M166 -10q-39 0 -66.5 15t-42 44t-14.5 69q0 20 3.5 43.5t8.5 46.5l70 331h100l-71 -334q-4 -21 -6.5 -38.5t-2.5 -32.5q0 -28 13 -43.5t42 -15.5q32 0 62.5 23.5t55.5 71t40 118.5l53 251h99l-114 -539h-79l8 88h-4q-18 -26 -41 -48.5t-51 -36t-63 -13.5zM421 628
q-20 0 -32 11t-12 33q0 27 15.5 46t43.5 19q20 0 31 -10.5t11 -31.5q0 -30 -16 -48.5t-41 -18.5zM249 628q-20 0 -32.5 11t-12.5 33q0 27 15.5 46t43.5 19q14 0 23.5 -4.5t14.5 -14t5 -23.5q0 -30 -16 -48.5t-41 -18.5z" />
    <glyph glyph-name="yacute" unicode="&#xfd;" horiz-adv-x="437" 
d="M-22 -240q-22 0 -37.5 2.5t-27.5 6.5l4 84q13 -4 26.5 -6.5t28.5 -2.5q37 0 61.5 24t46.5 67l31 63l-57 541h99l21 -270q3 -26 4.5 -55t2 -56.5t-0.5 -47.5h3q7 18 17 43t21 51t21 46l139 289h106l-317 -629q-25 -49 -52 -82.5t-61 -50.5t-79 -17zM217 617q20 22 39.5 48
t38 52.5t32.5 48.5h114v-9q-10 -13 -29.5 -33.5t-43 -43t-46 -42t-39.5 -32.5h-66v11z" />
    <glyph glyph-name="thorn" unicode="&#xfe;" horiz-adv-x="526" 
d="M-34 -238l210 998h100l-43 -198q-6 -29 -13.5 -56.5t-13.5 -48.5h4q20 27 42.5 47.5t48.5 32t56 11.5q60 0 96 -43.5t36 -130.5q0 -52 -10 -106t-29.5 -104t-49 -89t-67.5 -62t-85 -23q-30 0 -53.5 11t-40 30t-26.5 42h-4q-2 -21 -5.5 -47t-8.5 -46l-46 -218h-98zM234 74
q28 0 52 18.5t43 50t32 70t19.5 80t6.5 78.5q0 47 -17 70.5t-51 23.5q-32 0 -61.5 -26t-52 -68.5t-34.5 -93.5q-5 -19 -8 -38.5t-5 -37.5t-2 -35q0 -42 19 -67t59 -25z" />
    <glyph glyph-name="ydieresis" unicode="&#xff;" horiz-adv-x="437" 
d="M-22 -240q-22 0 -37.5 2.5t-27.5 6.5l4 84q13 -4 26.5 -6.5t28.5 -2.5q37 0 61.5 24t46.5 67l31 63l-57 541h99l21 -270q3 -26 4.5 -55t2 -56.5t-0.5 -47.5h3q7 18 17 43t21 51t21 46l139 289h106l-317 -629q-25 -49 -52 -82.5t-61 -50.5t-79 -17zM365 628q-20 0 -32 11
t-12 33q0 27 15.5 46t43.5 19q20 0 31 -10.5t11 -31.5q0 -30 -16 -48.5t-41 -18.5zM193 628q-20 0 -32.5 11t-12.5 33q0 27 15.5 46t43.5 19q14 0 23.5 -4.5t14.5 -14t5 -23.5q0 -30 -16 -48.5t-41 -18.5z" />
    <glyph glyph-name="Amacron" unicode="&#x100;" horiz-adv-x="524" 
d="M-60 0l353 715h120l54 -715h-102l-14 209h-202l-99 -209h-110zM191 299h156l-8 190q-2 31 -3.5 65.5t-0.5 62.5h-3q-11 -29 -25 -61t-30 -67zM228 786l16 76h267l-16 -76h-267z" />
    <glyph glyph-name="amacron" unicode="&#x101;" horiz-adv-x="523" 
d="M171 -10q-39 0 -69 19.5t-47 58t-17 96.5q0 53 10.5 107.5t31.5 104.5t50.5 88.5t68 61.5t83.5 23q31 0 54 -11t39 -30t26 -44h4l28 75h79l-114 -539h-79l9 85h-3q-20 -27 -43.5 -48.5t-51 -34t-59.5 -12.5zM206 73q34 0 63 26.5t51.5 69t34.5 91.5q9 34 12 61.5t3 52.5
q0 41 -20 65.5t-54 24.5q-28 0 -51.5 -17.5t-43 -48t-33 -68.5t-21 -80t-7.5 -82q0 -47 17.5 -71t48.5 -24zM196 608l16 76h267l-16 -76h-267z" />
    <glyph glyph-name="Abreve" unicode="&#x102;" horiz-adv-x="524" 
d="M-60 0l353 715h120l54 -715h-102l-14 209h-202l-99 -209h-110zM191 299h156l-8 190q-2 31 -3.5 65.5t-0.5 62.5h-3q-11 -29 -25 -61t-30 -67zM365 785q-41 0 -68.5 14t-41.5 39.5t-14 58.5q0 8 0.5 15.5t2.5 14.5h60q0 -21 6.5 -35.5t21.5 -22t39 -7.5q38 0 59.5 16
t29.5 49h63q-14 -72 -54 -107t-104 -35z" />
    <glyph glyph-name="abreve" unicode="&#x103;" horiz-adv-x="523" 
d="M171 -10q-39 0 -69 19.5t-47 58t-17 96.5q0 53 10.5 107.5t31.5 104.5t50.5 88.5t68 61.5t83.5 23q31 0 54 -11t39 -30t26 -44h4l28 75h79l-114 -539h-79l9 85h-3q-20 -27 -43.5 -48.5t-51 -34t-59.5 -12.5zM206 73q34 0 63 26.5t51.5 69t34.5 91.5q9 34 12 61.5t3 52.5
q0 41 -20 65.5t-54 24.5q-28 0 -51.5 -17.5t-43 -48t-33 -68.5t-21 -80t-7.5 -82q0 -47 17.5 -71t48.5 -24zM332 607q-41 0 -68.5 14t-41.5 39.5t-14 58.5q0 8 0.5 15.5t2.5 14.5h60q0 -21 6.5 -35.5t21.5 -22t39 -7.5q38 0 59.5 16t29.5 49h63q-14 -72 -54 -107t-104 -35z
" />
    <glyph glyph-name="Aogonek" unicode="&#x104;" horiz-adv-x="524" 
d="M-60 0l353 715h120l54 -715h-102l-14 209h-202l-99 -209h-110zM191 299h156l-8 190q-2 31 -3.5 65.5t-0.5 62.5h-3q-11 -29 -25 -61t-30 -67zM357 -225q-40 0 -64 21.5t-24 59.5q0 30 12.5 55t36 46.5t54.5 42.5h67q-23 -20 -43.5 -40t-32.5 -41.5t-12 -45.5q0 -15 8 -23
t23 -8q10 0 20.5 1.5t20.5 3.5l-5 -63q-14 -5 -29 -7t-32 -2z" />
    <glyph glyph-name="aogonek" unicode="&#x105;" horiz-adv-x="523" 
d="M171 -10q-39 0 -69 19.5t-47 58t-17 96.5q0 53 10.5 107.5t31.5 104.5t50.5 88.5t68 61.5t83.5 23q31 0 54 -11t39 -30t26 -44h4l28 75h79l-114 -539h-79l9 85h-3q-20 -27 -43.5 -48.5t-51 -34t-59.5 -12.5zM206 73q34 0 63 26.5t51.5 69t34.5 91.5q9 34 12 61.5t3 52.5
q0 41 -20 65.5t-54 24.5q-28 0 -51.5 -17.5t-43 -48t-33 -68.5t-21 -80t-7.5 -82q0 -47 17.5 -71t48.5 -24zM306 -225q-40 0 -64 21.5t-24 59.5q0 30 12.5 55t36 46.5t54.5 42.5h67q-23 -20 -43.5 -40t-32.5 -41.5t-12 -45.5q0 -15 8 -23t23 -8q10 0 20.5 1.5t20.5 3.5
l-5 -63q-14 -5 -29 -7t-32 -2z" />
    <glyph glyph-name="Cacute" unicode="&#x106;" horiz-adv-x="523" 
d="M279 -10q-72 0 -121.5 31t-75.5 89t-26 139q0 62 14 129t42.5 128.5t71.5 111t100.5 78t129.5 28.5q49 0 88.5 -10t74.5 -31l-45 -83q-24 15 -53 25t-65 10q-52 0 -92.5 -24.5t-70.5 -65.5t-49.5 -91t-29 -102t-9.5 -99q0 -85 35 -129t102 -44q35 0 69.5 8t68.5 21v-89
q-34 -14 -72.5 -22t-86.5 -8zM346 793q20 22 39.5 48t38 52.5t32.5 48.5h114v-9q-10 -13 -29.5 -33.5t-43 -43t-46 -42t-39.5 -32.5h-66v11z" />
    <glyph glyph-name="cacute" unicode="&#x107;" horiz-adv-x="413" 
d="M214 -10q-52 0 -92 20.5t-62 62t-22 104.5q0 55 11.5 108t33 101t53.5 84.5t74.5 57.5t94.5 21q35 0 66.5 -7t58.5 -21l-33 -80q-19 9 -42 16.5t-49 7.5q-39 0 -70 -25t-52.5 -66t-32.5 -91t-11 -99q0 -36 11 -60.5t31 -37t50 -12.5q29 0 57 9.5t57 23.5v-84
q-27 -14 -60 -23.5t-72 -9.5zM236 619q20 22 39.5 48t38 52.5t32.5 48.5h114v-9q-10 -13 -29.5 -33.5t-43 -43t-46 -42t-39.5 -32.5h-66v11z" />
    <glyph glyph-name="Ccircumflex" unicode="&#x108;" horiz-adv-x="523" 
d="M279 -10q-72 0 -121.5 31t-75.5 89t-26 139q0 62 14 129t42.5 128.5t71.5 111t100.5 78t129.5 28.5q49 0 88.5 -10t74.5 -31l-45 -83q-24 15 -53 25t-65 10q-52 0 -92.5 -24.5t-70.5 -65.5t-49.5 -91t-29 -102t-9.5 -99q0 -85 35 -129t102 -44q35 0 69.5 8t68.5 21v-89
q-34 -14 -72.5 -22t-86.5 -8zM257 789q20 19 45.5 45t49 53t38.5 50h98q8 -23 21 -50t27.5 -53t25.5 -45l-1 -12h-62q-10 11 -22 25t-24 30.5t-24 33.5q-28 -27 -55.5 -49.5t-51.5 -39.5h-66z" />
    <glyph glyph-name="ccircumflex" unicode="&#x109;" horiz-adv-x="413" 
d="M214 -10q-52 0 -92 20.5t-62 62t-22 104.5q0 55 11.5 108t33 101t53.5 84.5t74.5 57.5t94.5 21q35 0 66.5 -7t58.5 -21l-33 -80q-19 9 -42 16.5t-49 7.5q-39 0 -70 -25t-52.5 -66t-32.5 -91t-11 -99q0 -36 11 -60.5t31 -37t50 -12.5q29 0 57 9.5t57 23.5v-84
q-27 -14 -60 -23.5t-72 -9.5zM144 618q20 19 45.5 45t49 53t38.5 50h98q8 -23 21 -50t27.5 -53t25.5 -45l-1 -12h-62q-10 11 -22 25t-24 30.5t-24 33.5q-28 -27 -55.5 -49.5t-51.5 -39.5h-66z" />
    <glyph glyph-name="Cdotaccent" unicode="&#x10a;" horiz-adv-x="523" 
d="M279 -10q-72 0 -121.5 31t-75.5 89t-26 139q0 62 14 129t42.5 128.5t71.5 111t100.5 78t129.5 28.5q49 0 88.5 -10t74.5 -31l-45 -83q-24 15 -53 25t-65 10q-52 0 -92.5 -24.5t-70.5 -65.5t-49.5 -91t-29 -102t-9.5 -99q0 -85 35 -129t102 -44q35 0 69.5 8t68.5 21v-89
q-34 -14 -72.5 -22t-86.5 -8zM426 795q-22 0 -36.5 12.5t-14.5 36.5q0 30 17 51t49 21q16 0 27 -5.5t17 -15.5t6 -26q0 -33 -18 -53.5t-47 -20.5z" />
    <glyph glyph-name="cdotaccent" unicode="&#x10b;" horiz-adv-x="413" 
d="M214 -10q-52 0 -92 20.5t-62 62t-22 104.5q0 55 11.5 108t33 101t53.5 84.5t74.5 57.5t94.5 21q35 0 66.5 -7t58.5 -21l-33 -80q-19 9 -42 16.5t-49 7.5q-39 0 -70 -25t-52.5 -66t-32.5 -91t-11 -99q0 -36 11 -60.5t31 -37t50 -12.5q29 0 57 9.5t57 23.5v-84
q-27 -14 -60 -23.5t-72 -9.5zM313 622q-22 0 -36.5 12.5t-14.5 36.5q0 30 17 51t49 21q16 0 27 -5.5t17 -15.5t6 -26q0 -33 -18 -53.5t-47 -20.5z" />
    <glyph glyph-name="Ccaron" unicode="&#x10c;" horiz-adv-x="523" 
d="M279 -10q-72 0 -121.5 31t-75.5 89t-26 139q0 62 14 129t42.5 128.5t71.5 111t100.5 78t129.5 28.5q49 0 88.5 -10t74.5 -31l-45 -83q-24 15 -53 25t-65 10q-52 0 -92.5 -24.5t-70.5 -65.5t-49.5 -91t-29 -102t-9.5 -99q0 -85 35 -129t102 -44q35 0 69.5 8t68.5 21v-89
q-34 -14 -72.5 -22t-86.5 -8zM368 777q-8 23 -21 50t-26.5 53t-25.5 45l1 12h61q10 -10 22 -24t24 -30.5t24 -34.5q28 27 55.5 49.5t52.5 39.5h65v-12q-17 -16 -43.5 -43t-51 -55.5t-39.5 -49.5h-98z" />
    <glyph glyph-name="ccaron" unicode="&#x10d;" horiz-adv-x="413" 
d="M214 -10q-52 0 -92 20.5t-62 62t-22 104.5q0 55 11.5 108t33 101t53.5 84.5t74.5 57.5t94.5 21q35 0 66.5 -7t58.5 -21l-33 -80q-19 9 -42 16.5t-49 7.5q-39 0 -70 -25t-52.5 -66t-32.5 -91t-11 -99q0 -36 11 -60.5t31 -37t50 -12.5q29 0 57 9.5t57 23.5v-84
q-27 -14 -60 -23.5t-72 -9.5zM253 606q-8 23 -21 50t-26.5 53t-25.5 45l1 12h61q10 -10 22 -24t24 -30.5t24 -34.5q28 27 55.5 49.5t52.5 39.5h65v-12q-17 -16 -43.5 -43t-51 -55.5t-39.5 -49.5h-98z" />
    <glyph glyph-name="Dcaron" unicode="&#x10e;" horiz-adv-x="599" 
d="M23 0l151 714h157q116 0 180 -64t64 -192q0 -72 -15.5 -140t-46 -125.5t-77 -101t-108 -67.5t-138.5 -24h-167zM198 89q55 0 98 20.5t75.5 56t54 82t32 99.5t10.5 107q0 90 -39.5 131t-108.5 41h-63l-114 -537h55zM340 777q-8 23 -21 50t-26.5 53t-25.5 45l1 12h61
q10 -10 22 -24t24 -30.5t24 -34.5q28 27 55.5 49.5t52.5 39.5h65v-12q-17 -16 -43.5 -43t-51 -55.5t-39.5 -49.5h-98z" />
    <glyph glyph-name="dcaron" unicode="&#x10f;" horiz-adv-x="588" 
d="M569 612q11 21 23 47t22.5 53t17.5 48h95v-10q-8 -19 -24.5 -46t-36 -54.5t-39.5 -49.5h-58v12zM170 -10q-39 0 -68.5 19.5t-46.5 58t-17 96.5q0 53 10 107t30.5 103.5t50 89t67.5 62t84 22.5q31 0 54 -10.5t39 -29t26 -42.5h4q2 17 4.5 36t6 39t7.5 39l38 180h99
l-161 -760h-79l8 84h-3q-21 -28 -44 -49t-49.5 -33t-59.5 -12zM207 73q24 0 45 14t39 37.5t32.5 54t25 64.5t16 67.5t5.5 62.5q0 42 -18.5 66.5t-57.5 24.5q-28 0 -52 -18t-42.5 -49.5t-32 -70t-20.5 -80t-7 -79.5q0 -47 17 -70.5t50 -23.5z" />
    <glyph glyph-name="Dcroat" unicode="&#x110;" horiz-adv-x="599" 
d="M26 317l18 85h287l-18 -85h-287zM23 0l151 714h157q116 0 180 -64t64 -192q0 -72 -15.5 -140t-46 -125.5t-77 -101t-108 -67.5t-138.5 -24h-167zM198 89q55 0 98 20.5t75.5 56t54 82t32 99.5t10.5 107q0 90 -39.5 131t-108.5 41h-63l-114 -537h55z" />
    <glyph glyph-name="dcroat" unicode="&#x111;" horiz-adv-x="528" 
d="M171 -10q-40 0 -70 19.5t-46.5 58.5t-16.5 96q0 51 10 104t29.5 102.5t48.5 88t67 61.5t85 23q31 0 54.5 -10t40 -28.5t25.5 -41.5h4q2 13 4 28t4.5 30.5t4.5 29.5l10 50h-140l15 72h142l17 87h99l-18 -87h68l-15 -72h-68l-128 -601h-79l8 84h-3q-21 -27 -44 -48
t-49 -33.5t-59 -12.5zM208 73q23 0 43.5 13.5t38.5 36.5t33 53t25.5 63t16 66.5t5.5 63.5q0 42 -18 66t-58 24q-29 0 -53 -18t-42.5 -48.5t-31.5 -68.5t-20 -79t-7 -78q0 -47 17.5 -70.5t50.5 -23.5z" />
    <glyph glyph-name="Emacron" unicode="&#x112;" horiz-adv-x="468" 
d="M23 0l151 714h335l-19 -89h-233l-44 -208h217l-18 -89h-218l-51 -239h234l-19 -89h-335zM214 778l16 76h267l-16 -76h-267z" />
    <glyph glyph-name="emacron" unicode="&#x113;" horiz-adv-x="471" 
d="M219 -10q-57 0 -97.5 22.5t-62 65.5t-21.5 103q0 70 18.5 135.5t53 118t83 83.5t110.5 31q70 0 107.5 -33.5t37.5 -92.5q0 -43 -18 -78t-54.5 -60.5t-90.5 -39t-128 -13.5h-15q-2 -12 -3 -24t-1 -23q0 -55 25.5 -84.5t75.5 -29.5q36 0 66.5 9.5t68.5 28.5v-81
q-36 -18 -72 -28t-83 -10zM164 307q58 0 100 12.5t65 37t23 60.5q0 24 -14 38t-44 14q-28 0 -55 -19.5t-49 -56t-35 -86.5h9zM178 607l16 76h267l-16 -76h-267z" />
    <glyph glyph-name="Ebreve" unicode="&#x114;" horiz-adv-x="468" 
d="M23 0l151 714h335l-19 -89h-233l-44 -208h217l-18 -89h-218l-51 -239h234l-19 -89h-335zM350 777q-41 0 -68.5 14t-41.5 39.5t-14 58.5q0 8 0.5 15.5t2.5 14.5h60q0 -21 6.5 -35.5t21.5 -22t39 -7.5q38 0 59.5 16t29.5 49h63q-14 -72 -54 -107t-104 -35z" />
    <glyph glyph-name="ebreve" unicode="&#x115;" horiz-adv-x="471" 
d="M219 -10q-57 0 -97.5 22.5t-62 65.5t-21.5 103q0 70 18.5 135.5t53 118t83 83.5t110.5 31q70 0 107.5 -33.5t37.5 -92.5q0 -43 -18 -78t-54.5 -60.5t-90.5 -39t-128 -13.5h-15q-2 -12 -3 -24t-1 -23q0 -55 25.5 -84.5t75.5 -29.5q36 0 66.5 9.5t68.5 28.5v-81
q-36 -18 -72 -28t-83 -10zM164 307q58 0 100 12.5t65 37t23 60.5q0 24 -14 38t-44 14q-28 0 -55 -19.5t-49 -56t-35 -86.5h9zM318 606q-41 0 -68.5 14t-41.5 39.5t-14 58.5q0 8 0.5 15.5t2.5 14.5h60q0 -21 6.5 -35.5t21.5 -22t39 -7.5q38 0 59.5 16t29.5 49h63
q-14 -72 -54 -107t-104 -35z" />
    <glyph glyph-name="Edotaccent" unicode="&#x116;" horiz-adv-x="468" 
d="M23 0l151 714h335l-19 -89h-233l-44 -208h217l-18 -89h-218l-51 -239h234l-19 -89h-335zM358 788q-22 0 -36.5 12.5t-14.5 36.5q0 30 17 51t49 21q16 0 27 -5.5t17 -15.5t6 -26q0 -33 -18 -53.5t-47 -20.5z" />
    <glyph glyph-name="edotaccent" unicode="&#x117;" horiz-adv-x="471" 
d="M219 -10q-57 0 -97.5 22.5t-62 65.5t-21.5 103q0 70 18.5 135.5t53 118t83 83.5t110.5 31q70 0 107.5 -33.5t37.5 -92.5q0 -43 -18 -78t-54.5 -60.5t-90.5 -39t-128 -13.5h-15q-2 -12 -3 -24t-1 -23q0 -55 25.5 -84.5t75.5 -29.5q36 0 66.5 9.5t68.5 28.5v-81
q-36 -18 -72 -28t-83 -10zM164 307q58 0 100 12.5t65 37t23 60.5q0 24 -14 38t-44 14q-28 0 -55 -19.5t-49 -56t-35 -86.5h9zM325 622q-22 0 -36.5 12.5t-14.5 36.5q0 30 17 51t49 21q16 0 27 -5.5t17 -15.5t6 -26q0 -33 -18 -53.5t-47 -20.5z" />
    <glyph glyph-name="Eogonek" unicode="&#x118;" horiz-adv-x="468" 
d="M23 0l151 714h335l-19 -89h-233l-44 -208h217l-18 -89h-218l-51 -239h234l-19 -89h-335zM245 -225q-40 0 -64 21.5t-24 59.5q0 30 12.5 55t36 46.5t54.5 42.5h67q-23 -20 -43.5 -40t-32.5 -41.5t-12 -45.5q0 -15 8 -23t23 -8q10 0 20.5 1.5t20.5 3.5l-5 -63
q-14 -5 -29 -7t-32 -2z" />
    <glyph glyph-name="eogonek" unicode="&#x119;" horiz-adv-x="471" 
d="M253 -220q-41 0 -64.5 21.5t-23.5 59.5q0 30 12.5 54.5t35.5 46.5t54 43l88 17q-31 -24 -55.5 -48.5t-38.5 -48t-14 -47.5q0 -15 8.5 -23t21.5 -8q11 0 21 1.5t20 3.5l-5 -63q-14 -5 -29 -7t-31 -2zM219 -10q-57 0 -97.5 22.5t-62 65.5t-21.5 103q0 70 18.5 135.5t53 118
t83 83.5t110.5 31q70 0 107.5 -33.5t37.5 -92.5q0 -43 -18 -78t-54.5 -60.5t-90.5 -39t-128 -13.5h-15q-2 -12 -3 -24t-1 -23q0 -55 25.5 -84.5t75.5 -29.5q36 0 66.5 9.5t68.5 28.5v-81q-36 -18 -72 -28t-83 -10zM164 307q58 0 100 12.5t65 37t23 60.5q0 24 -14 38t-44 14
q-28 0 -55 -19.5t-49 -56t-35 -86.5h9z" />
    <glyph glyph-name="Ecaron" unicode="&#x11a;" horiz-adv-x="468" 
d="M23 0l151 714h335l-19 -89h-233l-44 -208h217l-18 -89h-218l-51 -239h234l-19 -89h-335zM298 777q-8 23 -21 50t-26.5 53t-25.5 45l1 12h61q10 -10 22 -24t24 -30.5t24 -34.5q28 27 55.5 49.5t52.5 39.5h65v-12q-17 -16 -43.5 -43t-51 -55.5t-39.5 -49.5h-98z" />
    <glyph glyph-name="ecaron" unicode="&#x11b;" horiz-adv-x="471" 
d="M219 -10q-57 0 -97.5 22.5t-62 65.5t-21.5 103q0 70 18.5 135.5t53 118t83 83.5t110.5 31q70 0 107.5 -33.5t37.5 -92.5q0 -43 -18 -78t-54.5 -60.5t-90.5 -39t-128 -13.5h-15q-2 -12 -3 -24t-1 -23q0 -55 25.5 -84.5t75.5 -29.5q36 0 66.5 9.5t68.5 28.5v-81
q-36 -18 -72 -28t-83 -10zM164 307q58 0 100 12.5t65 37t23 60.5q0 24 -14 38t-44 14q-28 0 -55 -19.5t-49 -56t-35 -86.5h9zM262 606q-8 23 -21 50t-26.5 53t-25.5 45l1 12h61q10 -10 22 -24t24 -30.5t24 -34.5q28 27 55.5 49.5t52.5 39.5h65v-12q-17 -16 -43.5 -43
t-51 -55.5t-39.5 -49.5h-98z" />
    <glyph glyph-name="Gcircumflex" unicode="&#x11c;" horiz-adv-x="615" 
d="M299 -10q-117 0 -179.5 66.5t-62.5 189.5q0 78 16.5 149.5t48.5 131.5t77.5 104.5t103.5 68.5t126 24q56 0 101.5 -11.5t84.5 -32.5l-42 -87q-34 19 -70 30t-79 11q-59 0 -107 -31.5t-82.5 -85t-53 -122t-18.5 -142.5q0 -54 15.5 -93t48.5 -59.5t85 -20.5q28 0 52.5 4
t44.5 10l43 201h-118l19 88h219l-77 -357q-44 -16 -92 -26t-104 -10zM279 789q20 19 45.5 45t49 53t38.5 50h98q8 -23 21 -50t27.5 -53t25.5 -45l-1 -12h-62q-10 11 -22 25t-24 30.5t-24 33.5q-28 -27 -55.5 -49.5t-51.5 -39.5h-66z" />
    <glyph glyph-name="gcircumflex" unicode="&#x11d;" horiz-adv-x="528" 
d="M154 -240q-46 0 -83.5 9.5t-65.5 23.5v91q18 -10 42 -19.5t51.5 -15.5t53.5 -6q55 0 90 30t50 93l7 32q4 18 10.5 41.5t11.5 42.5h-3q-20 -26 -42.5 -47t-49 -33t-58.5 -12q-38 0 -67.5 19.5t-46 58t-16.5 95.5q0 52 10.5 106.5t30.5 104.5t50 89.5t68 62.5t85 23
q32 0 55 -11t39 -30t26 -44h3l28 75h79l-121 -568q-16 -76 -48 -122.5t-79 -67.5t-110 -21zM208 74q23 0 43 13.5t38.5 37t33 53.5t25 63.5t16.5 68t6 65.5q0 41 -18.5 65t-56.5 24q-29 0 -52.5 -18t-42.5 -49.5t-32.5 -70t-20.5 -79.5t-7 -79q0 -47 17.5 -70.5t50.5 -23.5z
M165 619q20 19 45.5 45t49 53t38.5 50h98q8 -23 21 -50t27.5 -53t25.5 -45l-1 -12h-62q-10 11 -22 25t-24 30.5t-24 33.5q-28 -27 -55.5 -49.5t-51.5 -39.5h-66z" />
    <glyph glyph-name="Gbreve" unicode="&#x11e;" horiz-adv-x="615" 
d="M299 -10q-117 0 -179.5 66.5t-62.5 189.5q0 78 16.5 149.5t48.5 131.5t77.5 104.5t103.5 68.5t126 24q56 0 101.5 -11.5t84.5 -32.5l-42 -87q-34 19 -70 30t-79 11q-59 0 -107 -31.5t-82.5 -85t-53 -122t-18.5 -142.5q0 -54 15.5 -93t48.5 -59.5t85 -20.5q28 0 52.5 4
t44.5 10l43 201h-118l19 88h219l-77 -357q-44 -16 -92 -26t-104 -10zM440 777q-41 0 -68.5 14t-41.5 39.5t-14 58.5q0 8 0.5 15.5t2.5 14.5h60q0 -21 6.5 -35.5t21.5 -22t39 -7.5q38 0 59.5 16t29.5 49h63q-14 -72 -54 -107t-104 -35z" />
    <glyph glyph-name="gbreve" unicode="&#x11f;" horiz-adv-x="528" 
d="M154 -240q-46 0 -83.5 9.5t-65.5 23.5v91q18 -10 42 -19.5t51.5 -15.5t53.5 -6q55 0 90 30t50 93l7 32q4 18 10.5 41.5t11.5 42.5h-3q-20 -26 -42.5 -47t-49 -33t-58.5 -12q-38 0 -67.5 19.5t-46 58t-16.5 95.5q0 52 10.5 106.5t30.5 104.5t50 89.5t68 62.5t85 23
q32 0 55 -11t39 -30t26 -44h3l28 75h79l-121 -568q-16 -76 -48 -122.5t-79 -67.5t-110 -21zM208 74q23 0 43 13.5t38.5 37t33 53.5t25 63.5t16.5 68t6 65.5q0 41 -18.5 65t-56.5 24q-29 0 -52.5 -18t-42.5 -49.5t-32.5 -70t-20.5 -79.5t-7 -79q0 -47 17.5 -70.5t50.5 -23.5z
M323 607q-41 0 -68.5 14t-41.5 39.5t-14 58.5q0 8 0.5 15.5t2.5 14.5h60q0 -21 6.5 -35.5t21.5 -22t39 -7.5q38 0 59.5 16t29.5 49h63q-14 -72 -54 -107t-104 -35z" />
    <glyph glyph-name="Gdotaccent" unicode="&#x120;" horiz-adv-x="615" 
d="M299 -10q-117 0 -179.5 66.5t-62.5 189.5q0 78 16.5 149.5t48.5 131.5t77.5 104.5t103.5 68.5t126 24q56 0 101.5 -11.5t84.5 -32.5l-42 -87q-34 19 -70 30t-79 11q-59 0 -107 -31.5t-82.5 -85t-53 -122t-18.5 -142.5q0 -54 15.5 -93t48.5 -59.5t85 -20.5q28 0 52.5 4
t44.5 10l43 201h-118l19 88h219l-77 -357q-44 -16 -92 -26t-104 -10zM448 793q-22 0 -36.5 12.5t-14.5 36.5q0 30 17 51t49 21q16 0 27 -5.5t17 -15.5t6 -26q0 -33 -18 -53.5t-47 -20.5z" />
    <glyph glyph-name="gdotaccent" unicode="&#x121;" horiz-adv-x="528" 
d="M154 -240q-46 0 -83.5 9.5t-65.5 23.5v91q18 -10 42 -19.5t51.5 -15.5t53.5 -6q55 0 90 30t50 93l7 32q4 18 10.5 41.5t11.5 42.5h-3q-20 -26 -42.5 -47t-49 -33t-58.5 -12q-38 0 -67.5 19.5t-46 58t-16.5 95.5q0 52 10.5 106.5t30.5 104.5t50 89.5t68 62.5t85 23
q32 0 55 -11t39 -30t26 -44h3l28 75h79l-121 -568q-16 -76 -48 -122.5t-79 -67.5t-110 -21zM208 74q23 0 43 13.5t38.5 37t33 53.5t25 63.5t16.5 68t6 65.5q0 41 -18.5 65t-56.5 24q-29 0 -52.5 -18t-42.5 -49.5t-32.5 -70t-20.5 -79.5t-7 -79q0 -47 17.5 -70.5t50.5 -23.5z
M331 622q-22 0 -36.5 12.5t-14.5 36.5q0 30 17 51t49 21q16 0 27 -5.5t17 -15.5t6 -26q0 -33 -18 -53.5t-47 -20.5z" />
    <glyph glyph-name="uni0122" unicode="&#x122;" horiz-adv-x="615" 
d="M299 -10q-117 0 -179.5 66.5t-62.5 189.5q0 78 16.5 149.5t48.5 131.5t77.5 104.5t103.5 68.5t126 24q56 0 101.5 -11.5t84.5 -32.5l-42 -87q-34 19 -70 30t-79 11q-59 0 -107 -31.5t-82.5 -85t-53 -122t-18.5 -142.5q0 -54 15.5 -93t48.5 -59.5t85 -20.5q28 0 52.5 4
t44.5 10l43 201h-118l19 88h219l-77 -357q-44 -16 -92 -26t-104 -10zM174 -208q10 18 23 44t25.5 54t18.5 49h95v-10q-7 -19 -24.5 -46t-38.5 -55t-41 -49h-58v13z" />
    <glyph glyph-name="uni0123" unicode="&#x123;" horiz-adv-x="528" 
d="M270 616q9 20 25.5 47t37.5 54.5t41 48.5h58v-12q-9 -16 -22.5 -43.5t-25.5 -55.5t-19 -49h-95v10zM154 -240q-46 0 -83.5 9.5t-65.5 23.5v91q18 -10 42 -19.5t51.5 -15.5t53.5 -6q55 0 90 30t50 93l7 32q4 18 10.5 41.5t11.5 42.5h-3q-20 -26 -42.5 -47t-49 -33
t-58.5 -12q-38 0 -67.5 19.5t-46 58t-16.5 95.5q0 52 10.5 106.5t30.5 104.5t50 89.5t68 62.5t85 23q32 0 55 -11t39 -30t26 -44h3l28 75h79l-121 -568q-16 -76 -48 -122.5t-79 -67.5t-110 -21zM208 74q23 0 43 13.5t38.5 37t33 53.5t25 63.5t16.5 68t6 65.5q0 41 -18.5 65
t-56.5 24q-29 0 -52.5 -18t-42.5 -49.5t-32.5 -70t-20.5 -79.5t-7 -79q0 -47 17.5 -70.5t50.5 -23.5z" />
    <glyph glyph-name="Hcircumflex" unicode="&#x124;" horiz-adv-x="616" 
d="M23 0l151 714h102l-63 -297h251l63 297h101l-151 -714h-102l69 328h-250l-69 -328h-102zM252 789q20 19 45.5 45t49 53t38.5 50h98q8 -23 21 -50t27.5 -53t25.5 -45l-1 -12h-62q-10 11 -22 25t-24 30.5t-24 33.5q-28 -27 -55.5 -49.5t-51.5 -39.5h-66z" />
    <glyph glyph-name="hcircumflex" unicode="&#x125;" horiz-adv-x="527" 
d="M15 0l161 760h100l-40 -182q-3 -19 -8.5 -40l-11 -42t-11.5 -40h3q18 25 40 46t50 33.5t62 12.5q39 0 66 -15t41.5 -43.5t14.5 -70.5q0 -20 -3.5 -43t-8.5 -48l-70 -328h-99l69 328q5 23 8 42t3 34q0 29 -14 44t-43 15q-30 0 -60.5 -22t-55 -68t-39.5 -118l-54 -255h-100
zM79 840q20 19 45.5 45t49 53t38.5 50h98q8 -23 21 -50t27.5 -53t25.5 -45l-1 -12h-62q-10 11 -22 25t-24 30.5t-24 33.5q-28 -27 -55.5 -49.5t-51.5 -39.5h-66z" />
    <glyph glyph-name="Hbar" unicode="&#x126;" horiz-adv-x="615" 
d="M23 0l111 525h-80l16 76h80l24 113h102l-25 -113h250l25 113h102l-24 -113h80l-16 -76h-80l-111 -525h-102l69 328h-250l-69 -328h-102zM213 416h250l23 109h-251z" />
    <glyph glyph-name="hbar" unicode="&#x127;" horiz-adv-x="527" 
d="M15 0l128 601h-70l16 72h69l18 87h100l-19 -87h136l-15 -72h-136q-9 -38 -16.5 -68t-13 -51.5t-10.5 -37.5h4q18 25 40 46t50 33.5t62 12.5q38 0 65.5 -15t42 -44t14.5 -71q0 -20 -4 -43t-9 -48l-67 -315h-99l67 315q5 23 8 42t3 34q0 29 -14.5 44.5t-42.5 15.5
q-31 0 -61.5 -22.5t-55 -69t-39.5 -117.5l-51 -242h-100z" />
    <glyph glyph-name="Itilde" unicode="&#x128;" horiz-adv-x="318" 
d="M-32 0l12 57l84 23l117 554l-74 23l12 57h261l-12 -57l-85 -23l-117 -554l74 -23l-11 -57h-261zM101 785q9 44 24.5 73.5t37.5 45t52 15.5q22 0 39.5 -8.5t33 -19t29 -19t26.5 -8.5q18 0 29 12.5t21 43.5h60q-10 -46 -27 -76t-38.5 -44t-48.5 -14q-21 0 -38.5 8.5
t-32.5 19.5t-29 19.5t-29 8.5q-18 0 -29.5 -14.5t-20.5 -42.5h-59z" />
    <glyph glyph-name="itilde" unicode="&#x129;" horiz-adv-x="244" 
d="M15 0l115 539h99l-115 -539h-99zM29 606q9 44 24.5 73.5t37.5 45t52 15.5q22 0 39.5 -8.5t33 -19t29 -19t26.5 -8.5q18 0 29 12.5t21 43.5h60q-10 -46 -27 -76t-38.5 -44t-48.5 -14q-21 0 -38.5 8.5t-32.5 19.5t-29 19.5t-29 8.5q-18 0 -29.5 -14.5t-20.5 -42.5h-59z" />
    <glyph glyph-name="Imacron" unicode="&#x12a;" horiz-adv-x="318" 
d="M-32 0l12 57l84 23l117 554l-74 23l12 57h261l-12 -57l-85 -23l-117 -554l74 -23l-11 -57h-261zM127 786l16 76h267l-16 -76h-267z" />
    <glyph glyph-name="imacron" unicode="&#x12b;" horiz-adv-x="244" 
d="M15 0l115 539h99l-115 -539h-99zM56 607l16 76h267l-16 -76h-267z" />
    <glyph glyph-name="Ibreve" unicode="&#x12c;" horiz-adv-x="318" 
d="M-32 0l12 57l84 23l117 554l-74 23l12 57h261l-12 -57l-85 -23l-117 -554l74 -23l-11 -57h-261zM264 785q-41 0 -68.5 14t-41.5 39.5t-14 58.5q0 8 0.5 15.5t2.5 14.5h60q0 -21 6.5 -35.5t21.5 -22t39 -7.5q38 0 59.5 16t29.5 49h63q-14 -72 -54 -107t-104 -35z" />
    <glyph glyph-name="ibreve" unicode="&#x12d;" horiz-adv-x="244" 
d="M15 0l115 539h99l-115 -539h-99zM193 606q-41 0 -68.5 14t-41.5 39.5t-14 58.5q0 8 0.5 15.5t2.5 14.5h60q0 -21 6.5 -35.5t21.5 -22t39 -7.5q38 0 59.5 16t29.5 49h63q-14 -72 -54 -107t-104 -35z" />
    <glyph glyph-name="Iogonek" unicode="&#x12e;" horiz-adv-x="318" 
d="M-32 0l12 57l84 23l117 554l-74 23l12 57h261l-12 -57l-85 -23l-117 -554l74 -23l-11 -57h-261zM90 -225q-40 0 -64 21.5t-24 59.5q0 30 12.5 55t36 46.5t54.5 42.5h67q-23 -20 -43.5 -40t-32.5 -41.5t-12 -45.5q0 -15 8 -23t23 -8q10 0 20.5 1.5t20.5 3.5l-5 -63
q-14 -5 -29 -7t-32 -2z" />
    <glyph glyph-name="iogonek" unicode="&#x12f;" horiz-adv-x="244" 
d="M15 0l115 539h99l-114 -539h-100zM204 622q-24 0 -38 12t-14 36q0 20 8 36.5t22.5 26.5t36.5 10q23 0 36.5 -11.5t13.5 -34.5q0 -33 -18.5 -54t-46.5 -21zM37 -225q-40 0 -64 21.5t-24 59.5q0 30 12.5 55t36 46.5t54.5 42.5h67q-23 -20 -43.5 -40t-32.5 -41.5t-12 -45.5
q0 -15 8 -23t23 -8q10 0 20.5 1.5t20.5 3.5l-5 -63q-14 -5 -29 -7t-32 -2z" />
    <glyph glyph-name="Idotaccent" unicode="&#x130;" horiz-adv-x="318" 
d="M-32 0l12 57l84 23l117 554l-74 23l12 57h261l-12 -57l-85 -23l-117 -554l74 -23l-11 -57h-261zM271 801q-22 0 -36.5 12.5t-14.5 36.5q0 30 17 51t49 21q16 0 27 -5.5t17 -15.5t6 -26q0 -33 -18 -53.5t-47 -20.5z" />
    <glyph glyph-name="IJ" unicode="&#x132;" horiz-adv-x="582" 
d="M-32 0l12 57l84 23l117 554l-74 23l12 57h261l-12 -57l-85 -23l-117 -554l74 -23l-11 -57h-261zM243 -196q-25 0 -44 3.5t-33 8.5l9 88q14 -5 30 -8t34 -3q29 0 50 13.5t36 40.5t23 67l149 700h102l-152 -714q-14 -69 -42 -112.5t-68 -63.5t-94 -20z" />
    <glyph glyph-name="ij" unicode="&#x133;" horiz-adv-x="489" 
d="M15 0l115 539h99l-114 -539h-100zM204 622q-24 0 -38 12t-14 36q0 20 8 36.5t22.5 26.5t36.5 10q23 0 36.5 -11.5t13.5 -34.5q0 -33 -18.5 -54t-46.5 -21zM180 -240q-18 0 -34.5 2.5t-28.5 6.5v85q11 -4 24.5 -6.5t27.5 -2.5q21 0 36 10t25.5 32.5t18.5 59.5l125 592h99
l-128 -602q-10 -53 -29.5 -92.5t-51.5 -62t-84 -22.5zM448 622q-23 0 -37 12t-14 36q0 20 7.5 36.5t22.5 26.5t36 10q24 0 37 -11.5t13 -34.5q0 -33 -18.5 -54t-46.5 -21z" />
    <glyph glyph-name="Jcircumflex" unicode="&#x134;" horiz-adv-x="262" 
d="M-77 -196q-25 0 -44 3.5t-33 8.5l9 88q14 -5 30 -8t34 -3q29 0 50 13.5t36 40.5t23 67l149 700h102l-152 -714q-14 -69 -42 -112.5t-68 -63.5t-94 -20zM78 789q20 19 45.5 45t49 53t38.5 50h98q8 -23 21 -50t27.5 -53t25.5 -45l-1 -12h-62q-10 11 -22 25t-24 30.5
t-24 33.5q-28 -27 -55.5 -49.5t-51.5 -39.5h-66z" />
    <glyph glyph-name="jcircumflex" unicode="&#x135;" horiz-adv-x="244" 
d="M-64 -240q-18 0 -34.5 2.5t-28.5 6.5v85q11 -4 25 -6.5t27 -2.5q21 0 36 10t25.5 32.5t18.5 59.5l125 592h99l-128 -602q-10 -53 -29 -92.5t-51.5 -62t-84.5 -22.5zM33 618q20 19 45.5 45t49 53t38.5 50h98q8 -23 21 -50t27.5 -53t25.5 -45l-1 -12h-62q-10 11 -22 25
t-24 30.5t-24 33.5q-28 -27 -55.5 -49.5t-51.5 -39.5h-66z" />
    <glyph glyph-name="uni0136" unicode="&#x136;" horiz-adv-x="520" 
d="M23 0l151 714h102l-74 -346l61 79l226 267h119l-275 -325l131 -389h-112l-103 324l-67 -52l-57 -272h-102zM110 -208q10 18 23 44t25.5 54t18.5 49h95v-10q-7 -19 -24.5 -46t-38.5 -55t-41 -49h-58v13z" />
    <glyph glyph-name="uni0137" unicode="&#x137;" horiz-adv-x="466" 
d="M15 0l161 760h100l-70 -329q-11 -48 -20.5 -83.5t-16.5 -56.5h3l220 248h114l-209 -230l112 -309h-109l-83 240l-64 -54l-38 -186h-100zM86 -208q10 18 23 44t25.5 54t18.5 49h95v-10q-7 -19 -24.5 -46t-38.5 -55t-41 -49h-58v13z" />
    <glyph glyph-name="kgreenlandic" unicode="&#x138;" horiz-adv-x="467" 
d="M15 0l114 539h100l-29 -132q-6 -30 -15 -60.5t-16 -56.5h2l221 249h114l-209 -230l112 -309h-109l-83 240l-64 -54l-38 -186h-100z" />
    <glyph glyph-name="Lacute" unicode="&#x139;" horiz-adv-x="437" 
d="M23 0l151 714h102l-133 -624h233l-19 -90h-334zM210 793q20 22 39.5 48t38 52.5t32.5 48.5h114v-9q-10 -13 -29.5 -33.5t-43 -43t-46 -42t-39.5 -32.5h-66v11z" />
    <glyph glyph-name="lacute" unicode="&#x13a;" horiz-adv-x="244" 
d="M15 0l161 760h100l-162 -760h-99zM178 837q20 22 39.5 48t38 52.5t32.5 48.5h114v-9q-10 -13 -29.5 -33.5t-43 -43t-46 -42t-39.5 -32.5h-66v11z" />
    <glyph glyph-name="uni013B" unicode="&#x13b;" horiz-adv-x="437" 
d="M23 0l151 714h102l-133 -624h233l-19 -90h-334zM75 -208q10 18 23 44t25.5 54t18.5 49h95v-10q-7 -19 -24.5 -46t-38.5 -55t-41 -49h-58v13z" />
    <glyph glyph-name="uni013C" unicode="&#x13c;" horiz-adv-x="244" 
d="M15 0l161 760h100l-162 -760h-99zM-46 -208q10 18 23 44t25.5 54t18.5 49h95v-10q-7 -19 -24.5 -46t-38.5 -55t-41 -49h-58v13z" />
    <glyph glyph-name="Lcaron" unicode="&#x13d;" horiz-adv-x="437" 
d="M331 564q12 22 24 48t22.5 52.5t17.5 48.5h95v-10q-9 -19 -25 -46.5t-36 -55t-39 -48.5h-59v11zM23 0l151 714h102l-133 -624h233l-19 -90h-334z" />
    <glyph glyph-name="lcaron" unicode="&#x13e;" horiz-adv-x="304" 
d="M284 612q12 21 24 47t22.5 53t17.5 48h95v-10q-8 -19 -24.5 -46t-36.5 -54.5t-39 -49.5h-59v12zM15 0l161 760h100l-162 -760h-99z" />
    <glyph glyph-name="Ldot" unicode="&#x13f;" horiz-adv-x="437" 
d="M23 0l151 714h102l-133 -624h233l-19 -90h-334zM350 301q-22 0 -36.5 12.5t-14.5 36.5q0 30 17 51t49 21q16 0 27 -5.5t17 -15.5t6 -26q0 -33 -18 -53.5t-47 -20.5z" />
    <glyph glyph-name="ldot" unicode="&#x140;" horiz-adv-x="325" 
d="M15 0l161 760h100l-162 -760h-99zM296 289q-22 0 -36.5 12.5t-14.5 36.5q0 30 17 51t49 21q16 0 27 -5.5t17 -15.5t6 -26q0 -33 -18 -53.5t-47 -20.5z" />
    <glyph glyph-name="Lslash" unicode="&#x141;" horiz-adv-x="440" 
d="M26 0l53 250l-47 -27l-37 66l105 61l77 364h102l-63 -294l96 56l37 -65l-154 -91l-48 -230h232l-18 -90h-335z" />
    <glyph glyph-name="lslash" unicode="&#x142;" horiz-adv-x="261" 
d="M21 0l61 285l-50 -28l-33 65l102 58l82 380h99l-68 -321l56 32l32 -65l-108 -61l-74 -345h-99z" />
    <glyph glyph-name="Nacute" unicode="&#x143;" horiz-adv-x="650" 
d="M23 0l151 714h114l162 -561h3q5 27 10.5 60.5t12 67t11.5 60.5l80 373h96l-152 -714h-112l-165 568h-4q-2 -18 -6 -43.5t-9 -53.5l-10 -56t-10 -50l-77 -365h-95zM376 793q20 22 39.5 48t38 52.5t32.5 48.5h114v-9q-10 -13 -29.5 -33.5t-43 -43t-46 -42t-39.5 -32.5h-66
v11z" />
    <glyph glyph-name="nacute" unicode="&#x144;" horiz-adv-x="527" 
d="M13 0l115 540h83l-10 -89h2q18 27 40.5 49.5t51.5 36t64 13.5q38 0 66 -14.5t43.5 -43t15.5 -70.5q0 -21 -4 -45.5t-8 -46.5l-71 -330h-102l70 331q5 22 8 41t3 34q0 28 -14 42t-41 14q-31 0 -61 -23.5t-54.5 -70t-40.5 -117.5l-53 -251h-103zM275 617q20 22 39.5 48
t38 52.5t32.5 48.5h114v-9q-10 -13 -29.5 -33.5t-43 -43t-46 -42t-39.5 -32.5h-66v11z" />
    <glyph glyph-name="uni0145" unicode="&#x145;" horiz-adv-x="650" 
d="M23 0l151 714h114l162 -561h3q5 27 10.5 60.5t12 67t11.5 60.5l80 373h96l-152 -714h-112l-165 568h-4q-2 -18 -6 -43.5t-9 -53.5l-10 -56t-10 -50l-77 -365h-95zM156 -208q10 18 23 44t25.5 54t18.5 49h95v-10q-7 -19 -24.5 -46t-38.5 -55t-41 -49h-58v13z" />
    <glyph glyph-name="uni0146" unicode="&#x146;" horiz-adv-x="527" 
d="M13 0l115 540h83l-10 -89h2q18 27 40.5 49.5t51.5 36t64 13.5q38 0 66 -14.5t43.5 -43t15.5 -70.5q0 -21 -4 -45.5t-8 -46.5l-71 -330h-102l70 331q5 22 8 41t3 34q0 28 -14 42t-41 14q-31 0 -61 -23.5t-54.5 -70t-40.5 -117.5l-53 -251h-103zM98 -208q10 18 23 44
t25.5 54t18.5 49h95v-10q-7 -19 -24.5 -46t-38.5 -55t-41 -49h-58v13z" />
    <glyph glyph-name="Ncaron" unicode="&#x147;" horiz-adv-x="650" 
d="M23 0l151 714h114l162 -561h3q5 27 10.5 60.5t12 67t11.5 60.5l80 373h96l-152 -714h-112l-165 568h-4q-2 -18 -6 -43.5t-9 -53.5l-10 -56t-10 -50l-77 -365h-95zM379 777q-8 23 -21 50t-26.5 53t-25.5 45l1 12h61q10 -10 22 -24t24 -30.5t24 -34.5q28 27 55.5 49.5
t52.5 39.5h65v-12q-17 -16 -43.5 -43t-51 -55.5t-39.5 -49.5h-98z" />
    <glyph glyph-name="ncaron" unicode="&#x148;" horiz-adv-x="527" 
d="M13 0l115 540h83l-10 -89h2q18 27 40.5 49.5t51.5 36t64 13.5q38 0 66 -14.5t43.5 -43t15.5 -70.5q0 -21 -4 -45.5t-8 -46.5l-71 -330h-102l70 331q5 22 8 41t3 34q0 28 -14 42t-41 14q-31 0 -61 -23.5t-54.5 -70t-40.5 -117.5l-53 -251h-103zM281 606q-8 23 -21 50
t-26.5 53t-25.5 45l1 12h61q10 -10 22 -24t24 -30.5t24 -34.5q28 27 55.5 49.5t52.5 39.5h65v-12q-17 -16 -43.5 -43t-51 -55.5t-39.5 -49.5h-98z" />
    <glyph glyph-name="napostrophe" unicode="&#x149;" horiz-adv-x="603" 
d="M89 0l115 540h83l-10 -89h2q18 27 40.5 49.5t51.5 36t64 13.5q38 0 66 -14.5t43.5 -43t15.5 -70.5q0 -21 -4 -45.5t-8 -46.5l-71 -330h-102l70 331q5 22 8 41t3 34q0 28 -14 42t-41 14q-31 0 -61 -23.5t-54.5 -70t-40.5 -117.5l-53 -251h-103zM27 467q18 41 35.5 83.5
t33 85t27.5 78.5h102l4 -11q-16 -37 -36.5 -77.5t-43 -81t-45.5 -77.5h-77z" />
    <glyph glyph-name="Eng" unicode="&#x14a;" horiz-adv-x="650" 
d="M306 -195q-22 0 -42 3t-33 9l8 87q14 -5 30.5 -8t34.5 -3q28 0 49 11t36.5 34t22.5 60l-177 575h-4q-2 -16 -5 -37t-7 -45t-8.5 -49t-9.5 -48l-83 -394h-95l151 714h113l166 -543h3q4 24 8.5 53.5t11 60.5t11.5 60l79 369h97l-151 -710q-14 -66 -40.5 -110.5t-67.5 -66.5
t-98 -22z" />
    <glyph glyph-name="eng" unicode="&#x14b;" horiz-adv-x="526" 
d="M221 -240q-19 0 -35 3t-29 6v85q13 -4 26 -6.5t27 -2.5q20 0 35 10t26 33t18 59l81 383q5 22 8 41.5t3 34.5q0 27 -13.5 42t-42.5 15q-32 0 -62 -23t-54.5 -70t-39.5 -116l-54 -254h-100l114 539h80l-10 -89h4q18 27 41 49t51.5 36t63.5 14q38 0 65.5 -14.5t42.5 -42.5
t15 -70q0 -21 -3.5 -44t-8.5 -48l-83 -393q-12 -58 -32 -97.5t-52 -59.5t-82 -20z" />
    <glyph glyph-name="Omacron" unicode="&#x14c;" horiz-adv-x="645" 
d="M284 -10q-74 0 -125 30t-77 86.5t-26 136.5q0 58 10 116t29.5 111.5t48 100t66.5 81t85 54t102 19.5q110 0 166.5 -66t56.5 -186q0 -56 -8.5 -113t-27 -111t-46.5 -101t-65 -82.5t-84 -55.5t-105 -20zM290 80q35 0 65 16t55 45t44.5 66.5t32.5 82t20 91.5t7 93
q0 78 -32.5 119.5t-91.5 41.5q-37 0 -68 -16.5t-56 -46t-44.5 -68t-32.5 -82.5t-19.5 -89.5t-6.5 -88.5q0 -54 15 -90.5t43.5 -55t68.5 -18.5zM289 778l16 76h267l-16 -76h-267z" />
    <glyph glyph-name="omacron" unicode="&#x14d;" horiz-adv-x="514" 
d="M216 -9q-54 0 -94.5 23t-62 66t-21.5 103q0 48 10 99t30.5 98t51 85t73 60.5t96.5 22.5q55 0 94.5 -23.5t61 -67t21.5 -104.5q0 -50 -10.5 -101.5t-30.5 -98t-51 -83t-73 -58t-95 -21.5zM224 75q27 0 50 15t41.5 42.5t31.5 63.5t20.5 77.5t7.5 84.5q0 29 -8.5 53
t-26 38.5t-47.5 14.5t-54 -17.5t-43 -46.5t-31.5 -66t-19 -76.5t-6.5 -76.5q0 -51 22 -78.5t63 -27.5zM179 607l16 76h267l-16 -76h-267z" />
    <glyph glyph-name="Obreve" unicode="&#x14e;" horiz-adv-x="645" 
d="M284 -10q-74 0 -125 30t-77 86.5t-26 136.5q0 58 10 116t29.5 111.5t48 100t66.5 81t85 54t102 19.5q110 0 166.5 -66t56.5 -186q0 -56 -8.5 -113t-27 -111t-46.5 -101t-65 -82.5t-84 -55.5t-105 -20zM290 80q35 0 65 16t55 45t44.5 66.5t32.5 82t20 91.5t7 93
q0 78 -32.5 119.5t-91.5 41.5q-37 0 -68 -16.5t-56 -46t-44.5 -68t-32.5 -82.5t-19.5 -89.5t-6.5 -88.5q0 -54 15 -90.5t43.5 -55t68.5 -18.5zM426 777q-41 0 -68.5 14t-41.5 39.5t-14 58.5q0 8 0.5 15.5t2.5 14.5h60q0 -21 6.5 -35.5t21.5 -22t39 -7.5q38 0 59.5 16
t29.5 49h63q-14 -72 -54 -107t-104 -35z" />
    <glyph glyph-name="obreve" unicode="&#x14f;" horiz-adv-x="514" 
d="M216 -9q-54 0 -94.5 23t-62 66t-21.5 103q0 48 10 99t30.5 98t51 85t73 60.5t96.5 22.5q55 0 94.5 -23.5t61 -67t21.5 -104.5q0 -50 -10.5 -101.5t-30.5 -98t-51 -83t-73 -58t-95 -21.5zM224 75q27 0 50 15t41.5 42.5t31.5 63.5t20.5 77.5t7.5 84.5q0 29 -8.5 53
t-26 38.5t-47.5 14.5t-54 -17.5t-43 -46.5t-31.5 -66t-19 -76.5t-6.5 -76.5q0 -51 22 -78.5t63 -27.5zM319 606q-41 0 -68.5 14t-41.5 39.5t-14 58.5q0 8 0.5 15.5t2.5 14.5h60q0 -21 6.5 -35.5t21.5 -22t39 -7.5q38 0 59.5 16t29.5 49h63q-14 -72 -54 -107t-104 -35z" />
    <glyph glyph-name="Ohungarumlaut" unicode="&#x150;" horiz-adv-x="645" 
d="M284 -10q-74 0 -125 30t-77 86.5t-26 136.5q0 58 10 116t29.5 111.5t48 100t66.5 81t85 54t102 19.5q110 0 166.5 -66t56.5 -186q0 -56 -8.5 -113t-27 -111t-46.5 -101t-65 -82.5t-84 -55.5t-105 -20zM290 80q35 0 65 16t55 45t44.5 66.5t32.5 82t20 91.5t7 93
q0 78 -32.5 119.5t-91.5 41.5q-37 0 -68 -16.5t-56 -46t-44.5 -68t-32.5 -82.5t-19.5 -89.5t-6.5 -88.5q0 -54 15 -90.5t43.5 -55t68.5 -18.5zM467 789q20 23 40.5 49.5t38.5 52.5t30 46h102v-9q-10 -14 -29 -34t-41.5 -42t-45.5 -41.5t-41 -33.5h-55zM299 789
q20 23 40.5 49.5t38.5 52.5t31 46h102l-1 -9q-10 -14 -28.5 -34t-41 -41.5t-46 -41.5t-42.5 -34h-54z" />
    <glyph glyph-name="ohungarumlaut" unicode="&#x151;" horiz-adv-x="514" 
d="M216 -9q-54 0 -94.5 23t-62 66t-21.5 103q0 48 10 99t30.5 98t51 85t73 60.5t96.5 22.5q55 0 94.5 -23.5t61 -67t21.5 -104.5q0 -50 -10.5 -101.5t-30.5 -98t-51 -83t-73 -58t-95 -21.5zM224 75q27 0 50 15t41.5 42.5t31.5 63.5t20.5 77.5t7.5 84.5q0 29 -8.5 53
t-26 38.5t-47.5 14.5t-54 -17.5t-43 -46.5t-31.5 -66t-19 -76.5t-6.5 -76.5q0 -51 22 -78.5t63 -27.5zM361 618q20 23 40.5 49.5t38.5 52.5t30 46h102v-9q-10 -14 -29 -34t-41.5 -42t-45.5 -41.5t-41 -33.5h-55zM193 618q20 23 40.5 49.5t38.5 52.5t31 46h102l-1 -9
q-10 -14 -28.5 -34t-41 -41.5t-46 -41.5t-42.5 -34h-54z" />
    <glyph glyph-name="OE" unicode="&#x152;" horiz-adv-x="771" 
d="M283 -8q-74 0 -125 30.5t-76.5 86.5t-25.5 132q0 67 13.5 135.5t40.5 131t67.5 111t95 76.5t122.5 28q32 0 56.5 -2t43.5 -7h318l-19 -89h-233l-44 -208h217l-18 -89h-218l-51 -239h234l-19 -89h-304q-16 -3 -35 -5.5t-40 -2.5zM293 82q15 0 28.5 2t24.5 6l113 533
q-14 5 -31 8t-38 3q-43 0 -78.5 -22.5t-63 -61t-47 -89t-29 -106t-9.5 -110.5q0 -53 15 -89.5t44 -55t71 -18.5z" />
    <glyph glyph-name="oe" unicode="&#x153;" horiz-adv-x="788" 
d="M210 -9q-78 0 -125 51t-47 142q0 46 10 96.5t30 98t50.5 85.5t72.5 61t97 23q60 0 94.5 -27t50.5 -74q33 48 79.5 75t100.5 27q65 0 103.5 -32.5t38.5 -93.5q0 -43 -18 -78t-53.5 -60.5t-90 -39t-127.5 -13.5h-17q-2 -12 -3 -24t-1 -23q0 -55 25.5 -84.5t75.5 -29.5
q36 0 67.5 10t67.5 28v-82q-37 -18 -74 -27.5t-81 -9.5q-38 0 -68 11t-51.5 33t-34.5 54q-29 -45 -71.5 -71t-100.5 -26zM222 74q29 0 53 16.5t42.5 44.5t31 64.5t19 77.5t6.5 82q0 49 -20 77t-62 28q-29 0 -53 -17t-42.5 -46t-31.5 -65.5t-19.5 -75.5t-6.5 -76
q0 -54 21.5 -82t61.5 -28zM481 307q59 0 101 12.5t64.5 37.5t22.5 61q0 23 -13.5 37t-39.5 14q-32 0 -61 -21t-51 -57.5t-33 -83.5h10z" />
    <glyph glyph-name="Racute" unicode="&#x154;" horiz-adv-x="528" 
d="M23 0l151 714h145q100 0 152.5 -44t52.5 -131q0 -55 -18.5 -101t-54.5 -78t-89 -48l100 -312h-111l-84 291h-81l-61 -291h-102zM261 376q40 0 69.5 12t49 32.5t29 49t9.5 60.5q0 51 -27.5 73.5t-82.5 22.5h-51l-53 -250h57zM309 793q20 22 39.5 48t38 52.5t32.5 48.5h114
v-9q-10 -13 -29.5 -33.5t-43 -43t-46 -42t-39.5 -32.5h-66v11z" />
    <glyph glyph-name="racute" unicode="&#x155;" horiz-adv-x="362" 
d="M15 0l114 539h79l-10 -95h4q19 31 40.5 54.5t48.5 37t60 13.5q12 0 25 -1.5t24 -5.5l-25 -97q-10 4 -21.5 5.5t-23.5 1.5q-31 0 -57 -16.5t-46.5 -44t-35 -62t-22.5 -71.5l-54 -258h-100zM211 617q20 22 39.5 48t38 52.5t32.5 48.5h114v-9q-10 -13 -29.5 -33.5t-43 -43
t-46 -42t-39.5 -32.5h-66v11z" />
    <glyph glyph-name="uni0156" unicode="&#x156;" horiz-adv-x="528" 
d="M23 0l151 714h145q100 0 152.5 -44t52.5 -131q0 -55 -18.5 -101t-54.5 -78t-89 -48l100 -312h-111l-84 291h-81l-61 -291h-102zM261 376q40 0 69.5 12t49 32.5t29 49t9.5 60.5q0 51 -27.5 73.5t-82.5 22.5h-51l-53 -250h57zM110 -208q10 18 23 44t25.5 54t18.5 49h95v-10
q-7 -19 -24.5 -46t-38.5 -55t-41 -49h-58v13z" />
    <glyph glyph-name="uni0157" unicode="&#x157;" horiz-adv-x="362" 
d="M15 0l114 539h79l-10 -95h4q19 31 40.5 54.5t48.5 37t60 13.5q12 0 25 -1.5t24 -5.5l-25 -97q-10 4 -21.5 5.5t-23.5 1.5q-31 0 -57 -16.5t-46.5 -44t-35 -62t-22.5 -71.5l-54 -258h-100zM-32 -208q10 18 23 44t25.5 54t18.5 49h95v-10q-7 -19 -24.5 -46t-38.5 -55
t-41 -49h-58v13z" />
    <glyph glyph-name="Rcaron" unicode="&#x158;" horiz-adv-x="528" 
d="M23 0l151 714h145q100 0 152.5 -44t52.5 -131q0 -55 -18.5 -101t-54.5 -78t-89 -48l100 -312h-111l-84 291h-81l-61 -291h-102zM261 376q40 0 69.5 12t49 32.5t29 49t9.5 60.5q0 51 -27.5 73.5t-82.5 22.5h-51l-53 -250h57zM311 777q-8 23 -21 50t-26.5 53t-25.5 45l1 12
h61q10 -10 22 -24t24 -30.5t24 -34.5q28 27 55.5 49.5t52.5 39.5h65v-12q-17 -16 -43.5 -43t-51 -55.5t-39.5 -49.5h-98z" />
    <glyph glyph-name="rcaron" unicode="&#x159;" horiz-adv-x="362" 
d="M15 0l114 539h79l-10 -95h4q19 31 40.5 54.5t48.5 37t60 13.5q12 0 25 -1.5t24 -5.5l-25 -97q-10 4 -21.5 5.5t-23.5 1.5q-31 0 -57 -16.5t-46.5 -44t-35 -62t-22.5 -71.5l-54 -258h-100zM225 606q-8 23 -21 50t-26.5 53t-25.5 45l1 12h61q10 -10 22 -24t24 -30.5
t24 -34.5q28 27 55.5 49.5t52.5 39.5h65v-12q-17 -16 -43.5 -43t-51 -55.5t-39.5 -49.5h-98z" />
    <glyph glyph-name="Sacute" unicode="&#x15a;" horiz-adv-x="466" 
d="M163 -10q-50 0 -89 9t-70 26l6 100q31 -18 70 -31t84 -13q29 0 54 7t43.5 21.5t29.5 37t11 51.5q0 27 -9.5 47t-30 40t-55.5 45q-33 24 -58.5 49.5t-40 58t-14.5 77.5q0 48 17 86.5t47.5 66t72 42t91.5 14.5q49 0 90.5 -11t76.5 -31l-42 -87q-27 16 -60.5 27t-66.5 11
q-26 0 -47.5 -7t-37.5 -21.5t-25 -35t-9 -46.5q0 -28 10 -48t30.5 -38t51.5 -41q36 -26 62 -52.5t39.5 -59t13.5 -76.5q0 -51 -17 -91.5t-49.5 -69t-77.5 -43t-101 -14.5zM274 793q20 22 39.5 48t38 52.5t32.5 48.5h114v-9q-10 -13 -29.5 -33.5t-43 -43t-46 -42t-39.5 -32.5
h-66v11z" />
    <glyph glyph-name="sacute" unicode="&#x15b;" horiz-adv-x="401" 
d="M141 -10q-45 0 -79.5 8.5t-60.5 22.5v91q26 -16 61.5 -28t72.5 -12q31 0 53.5 9t34.5 26.5t12 42.5q0 18 -6.5 31.5t-23 28.5t-46.5 36q-32 21 -53 42.5t-32 46t-11 56.5q0 47 21.5 82.5t61.5 55.5t95 20q45 0 84 -11t68 -28l-35 -77q-24 15 -53 24.5t-62 9.5
q-35 0 -57 -18t-22 -48q0 -16 6 -29t21.5 -27t44.5 -33q31 -22 54 -42.5t35 -46t12 -62.5q0 -54 -23.5 -92.5t-67.5 -58.5t-105 -20zM204 617q20 22 39.5 48t38 52.5t32.5 48.5h114v-9q-10 -13 -29.5 -33.5t-43 -43t-46 -42t-39.5 -32.5h-66v11z" />
    <glyph glyph-name="Scircumflex" unicode="&#x15c;" horiz-adv-x="466" 
d="M163 -10q-50 0 -89 9t-70 26l6 100q31 -18 70 -31t84 -13q29 0 54 7t43.5 21.5t29.5 37t11 51.5q0 27 -9.5 47t-30 40t-55.5 45q-33 24 -58.5 49.5t-40 58t-14.5 77.5q0 48 17 86.5t47.5 66t72 42t91.5 14.5q49 0 90.5 -11t76.5 -31l-42 -87q-27 16 -60.5 27t-66.5 11
q-26 0 -47.5 -7t-37.5 -21.5t-25 -35t-9 -46.5q0 -28 10 -48t30.5 -38t51.5 -41q36 -26 62 -52.5t39.5 -59t13.5 -76.5q0 -51 -17 -91.5t-49.5 -69t-77.5 -43t-101 -14.5zM173 789q20 19 45.5 45t49 53t38.5 50h98q8 -23 21 -50t27.5 -53t25.5 -45l-1 -12h-62q-10 11 -22 25
t-24 30.5t-24 33.5q-28 -27 -55.5 -49.5t-51.5 -39.5h-66z" />
    <glyph glyph-name="scircumflex" unicode="&#x15d;" horiz-adv-x="401" 
d="M141 -10q-45 0 -79.5 8.5t-60.5 22.5v91q26 -16 61.5 -28t72.5 -12q31 0 53.5 9t34.5 26.5t12 42.5q0 18 -6.5 31.5t-23 28.5t-46.5 36q-32 21 -53 42.5t-32 46t-11 56.5q0 47 21.5 82.5t61.5 55.5t95 20q45 0 84 -11t68 -28l-35 -77q-24 15 -53 24.5t-62 9.5
q-35 0 -57 -18t-22 -48q0 -16 6 -29t21.5 -27t44.5 -33q31 -22 54 -42.5t35 -46t12 -62.5q0 -54 -23.5 -92.5t-67.5 -58.5t-105 -20zM103 618q20 19 45.5 45t49 53t38.5 50h98q8 -23 21 -50t27.5 -53t25.5 -45l-1 -12h-62q-10 11 -22 25t-24 30.5t-24 33.5
q-28 -27 -55.5 -49.5t-51.5 -39.5h-66z" />
    <glyph glyph-name="Scedilla" unicode="&#x15e;" horiz-adv-x="466" 
d="M163 -10q-50 0 -89 9t-70 26l6 100q31 -18 70 -31t84 -13q29 0 54 7t43.5 21.5t29.5 37t11 51.5q0 27 -9.5 47t-30 40t-55.5 45q-33 24 -58.5 49.5t-40 58t-14.5 77.5q0 48 17 86.5t47.5 66t72 42t91.5 14.5q49 0 90.5 -11t76.5 -31l-42 -87q-27 16 -60.5 27t-66.5 11
q-26 0 -47.5 -7t-37.5 -21.5t-25 -35t-9 -46.5q0 -28 10 -48t30.5 -38t51.5 -41q36 -26 62 -52.5t39.5 -59t13.5 -76.5q0 -51 -17 -91.5t-49.5 -69t-77.5 -43t-101 -14.5zM107 -240q-17 0 -32 2t-26 5v59q10 -2 22 -4t25 -2q23 0 38.5 6t23.5 17.5t8 27.5q0 21 -17 31.5
t-50 14.5l49 83h61l-29 -50q28 -7 47.5 -25.5t19.5 -53.5q0 -33 -16.5 -58t-48 -39t-75.5 -14z" />
    <glyph glyph-name="scedilla" unicode="&#x15f;" horiz-adv-x="401" 
d="M141 -10q-45 0 -79.5 8.5t-60.5 22.5v91q26 -16 61.5 -28t72.5 -12q31 0 53.5 9t34.5 26.5t12 42.5q0 18 -6.5 31.5t-23 28.5t-46.5 36q-32 21 -53 42.5t-32 46t-11 56.5q0 47 21.5 82.5t61.5 55.5t95 20q45 0 84 -11t68 -28l-35 -77q-24 15 -53 24.5t-62 9.5
q-35 0 -57 -18t-22 -48q0 -16 6 -29t21.5 -27t44.5 -33q31 -22 54 -42.5t35 -46t12 -62.5q0 -54 -23.5 -92.5t-67.5 -58.5t-105 -20zM77 -240q-17 0 -32 2t-26 5v59q10 -2 22 -4t25 -2q23 0 38.5 6t23.5 17.5t8 27.5q0 21 -17 31.5t-50 14.5l49 83h61l-29 -50
q28 -7 47.5 -25.5t19.5 -53.5q0 -33 -16.5 -58t-48 -39t-75.5 -14z" />
    <glyph glyph-name="Scaron" unicode="&#x160;" horiz-adv-x="466" 
d="M163 -10q-50 0 -89 9t-70 26l6 100q31 -18 70 -31t84 -13q29 0 54 7t43.5 21.5t29.5 37t11 51.5q0 27 -9.5 47t-30 40t-55.5 45q-33 24 -58.5 49.5t-40 58t-14.5 77.5q0 48 17 86.5t47.5 66t72 42t91.5 14.5q49 0 90.5 -11t76.5 -31l-42 -87q-27 16 -60.5 27t-66.5 11
q-26 0 -47.5 -7t-37.5 -21.5t-25 -35t-9 -46.5q0 -28 10 -48t30.5 -38t51.5 -41q36 -26 62 -52.5t39.5 -59t13.5 -76.5q0 -51 -17 -91.5t-49.5 -69t-77.5 -43t-101 -14.5zM283 777q-8 23 -21 50t-26.5 53t-25.5 45l1 12h61q10 -10 22 -24t24 -30.5t24 -34.5q28 27 55.5 49.5
t52.5 39.5h65v-12q-17 -16 -43.5 -43t-51 -55.5t-39.5 -49.5h-98z" />
    <glyph glyph-name="scaron" unicode="&#x161;" horiz-adv-x="401" 
d="M141 -10q-45 0 -79.5 8.5t-60.5 22.5v91q26 -16 61.5 -28t72.5 -12q31 0 53.5 9t34.5 26.5t12 42.5q0 18 -6.5 31.5t-23 28.5t-46.5 36q-32 21 -53 42.5t-32 46t-11 56.5q0 47 21.5 82.5t61.5 55.5t95 20q45 0 84 -11t68 -28l-35 -77q-24 15 -53 24.5t-62 9.5
q-35 0 -57 -18t-22 -48q0 -16 6 -29t21.5 -27t44.5 -33q31 -22 54 -42.5t35 -46t12 -62.5q0 -54 -23.5 -92.5t-67.5 -58.5t-105 -20zM211 606q-8 23 -21 50t-26.5 53t-25.5 45l1 12h61q10 -10 22 -24t24 -30.5t24 -34.5q28 27 55.5 49.5t52.5 39.5h65v-12q-17 -16 -43.5 -43
t-51 -55.5t-39.5 -49.5h-98z" />
    <glyph glyph-name="uni021A" unicode="&#x21a;" horiz-adv-x="454" 
d="M117 0l132 624h-165l20 90h431l-19 -90h-165l-132 -624h-102zM59 -208q10 18 23 44t25.5 54t18.5 49h95v-10q-7 -19 -24.5 -46t-38.5 -55t-41 -49h-58v13z" />
    <glyph glyph-name="uni021B" unicode="&#x21b;" horiz-adv-x="318" 
d="M160 -10q-52 0 -83 26.5t-31 84.5q0 14 2.5 32t6.5 37l61 290h-69l10 50l80 33l56 116h65l-26 -120h115l-17 -79h-114l-62 -293q-3 -13 -5.5 -26t-2.5 -24q0 -20 10.5 -31.5t32.5 -11.5q15 0 31 3t32 9v-77q-16 -8 -41.5 -13.5t-50.5 -5.5zM18 -208q10 18 23 44t25.5 54
t18.5 49h95v-10q-7 -19 -24.5 -46t-38.5 -55t-41 -49h-58v13z" />
    <glyph glyph-name="Tcaron" unicode="&#x164;" horiz-adv-x="454" 
d="M117 0l132 624h-165l20 90h431l-19 -90h-165l-132 -624h-102zM279 777q-8 23 -21 50t-26.5 53t-25.5 45l1 12h61q10 -10 22 -24t24 -30.5t24 -34.5q28 27 55.5 49.5t52.5 39.5h65v-12q-17 -16 -43.5 -43t-51 -55.5t-39.5 -49.5h-98z" />
    <glyph glyph-name="tcaron" unicode="&#x165;" horiz-adv-x="325" 
d="M287 609q12 22 24 48t22.5 52.5t16.5 48.5h96v-10q-9 -19 -25 -46.5t-36 -55t-39 -48.5h-59v11zM160 -10q-52 0 -83 26.5t-31 84.5q0 14 2.5 32t6.5 37l61 290h-69l10 50l80 33l56 116h65l-26 -120h115l-17 -79h-114l-62 -293q-3 -13 -5.5 -26t-2.5 -24q0 -20 10.5 -31.5
t32.5 -11.5q15 0 31 3t32 9v-77q-16 -8 -41.5 -13.5t-50.5 -5.5z" />
    <glyph glyph-name="Tbar" unicode="&#x166;" horiz-adv-x="454" 
d="M117 0l67 320h-113l18 82h112l48 222h-164l19 90h431l-19 -90h-165l-47 -222h117l-17 -82h-117l-68 -320h-102z" />
    <glyph glyph-name="tbar" unicode="&#x167;" horiz-adv-x="317" 
d="M160 -10q-52 0 -83 26.5t-31 84.5q0 14 2 31t6 37l21 101h-60l15 73h61l25 117h-69l10 50l80 33l56 116h65l-26 -120h115l-17 -79h-114l-26 -117h104l-15 -73h-104l-22 -103q-2 -13 -4.5 -25.5t-2.5 -23.5q0 -21 11 -32.5t33 -11.5q14 0 29.5 3t32.5 9v-77
q-16 -8 -42 -13.5t-50 -5.5z" />
    <glyph glyph-name="Utilde" unicode="&#x168;" horiz-adv-x="608" 
d="M256 -10q-64 0 -108 21.5t-66 62.5t-22 98q0 17 3 40t8 47l97 455h101l-97 -458q-4 -20 -6.5 -40.5t-2.5 -35.5q0 -48 26 -74t77 -26q46 0 76.5 18.5t50 55.5t31.5 93l100 467h102l-102 -477q-16 -75 -48 -130.5t-85.5 -86t-134.5 -30.5zM245 777q9 44 24.5 73.5t37.5 45
t52 15.5q22 0 39.5 -8.5t33 -19t29 -19t26.5 -8.5q18 0 29 12.5t21 43.5h60q-10 -46 -27 -76t-38.5 -44t-48.5 -14q-21 0 -38.5 8.5t-32.5 19.5t-29 19.5t-29 8.5q-18 0 -29.5 -14.5t-20.5 -42.5h-59z" />
    <glyph glyph-name="utilde" unicode="&#x169;" horiz-adv-x="527" 
d="M166 -10q-39 0 -66.5 15t-42 44t-14.5 69q0 20 3.5 43.5t8.5 46.5l70 331h100l-71 -334q-4 -21 -6.5 -38.5t-2.5 -32.5q0 -28 13 -43.5t42 -15.5q32 0 62.5 23.5t55.5 71t40 118.5l53 251h99l-114 -539h-79l8 88h-4q-18 -26 -41 -48.5t-51 -36t-63 -13.5zM171 606
q9 44 24.5 73.5t37.5 45t52 15.5q22 0 39.5 -8.5t33 -19t29 -19t26.5 -8.5q18 0 29 12.5t21 43.5h60q-10 -46 -27 -76t-38.5 -44t-48.5 -14q-21 0 -38.5 8.5t-32.5 19.5t-29 19.5t-29 8.5q-18 0 -29.5 -14.5t-20.5 -42.5h-59z" />
    <glyph glyph-name="Umacron" unicode="&#x16a;" horiz-adv-x="608" 
d="M256 -10q-64 0 -108 21.5t-66 62.5t-22 98q0 17 3 40t8 47l97 455h101l-97 -458q-4 -20 -6.5 -40.5t-2.5 -35.5q0 -48 26 -74t77 -26q46 0 76.5 18.5t50 55.5t31.5 93l100 467h102l-102 -477q-16 -75 -48 -130.5t-85.5 -86t-134.5 -30.5zM271 778l16 76h267l-16 -76h-267
z" />
    <glyph glyph-name="umacron" unicode="&#x16b;" horiz-adv-x="527" 
d="M166 -10q-39 0 -66.5 15t-42 44t-14.5 69q0 20 3.5 43.5t8.5 46.5l70 331h100l-71 -334q-4 -21 -6.5 -38.5t-2.5 -32.5q0 -28 13 -43.5t42 -15.5q32 0 62.5 23.5t55.5 71t40 118.5l53 251h99l-114 -539h-79l8 88h-4q-18 -26 -41 -48.5t-51 -36t-63 -13.5zM196 607l16 76
h267l-16 -76h-267z" />
    <glyph glyph-name="Ubreve" unicode="&#x16c;" horiz-adv-x="608" 
d="M256 -10q-64 0 -108 21.5t-66 62.5t-22 98q0 17 3 40t8 47l97 455h101l-97 -458q-4 -20 -6.5 -40.5t-2.5 -35.5q0 -48 26 -74t77 -26q46 0 76.5 18.5t50 55.5t31.5 93l100 467h102l-102 -477q-16 -75 -48 -130.5t-85.5 -86t-134.5 -30.5zM407 777q-41 0 -68.5 14
t-41.5 39.5t-14 58.5q0 8 0.5 15.5t2.5 14.5h60q0 -21 6.5 -35.5t21.5 -22t39 -7.5q38 0 59.5 16t29.5 49h63q-14 -72 -54 -107t-104 -35z" />
    <glyph glyph-name="ubreve" unicode="&#x16d;" horiz-adv-x="527" 
d="M166 -10q-39 0 -66.5 15t-42 44t-14.5 69q0 20 3.5 43.5t8.5 46.5l70 331h100l-71 -334q-4 -21 -6.5 -38.5t-2.5 -32.5q0 -28 13 -43.5t42 -15.5q32 0 62.5 23.5t55.5 71t40 118.5l53 251h99l-114 -539h-79l8 88h-4q-18 -26 -41 -48.5t-51 -36t-63 -13.5zM334 606
q-41 0 -68.5 14t-41.5 39.5t-14 58.5q0 8 0.5 15.5t2.5 14.5h60q0 -21 6.5 -35.5t21.5 -22t39 -7.5q38 0 59.5 16t29.5 49h63q-14 -72 -54 -107t-104 -35z" />
    <glyph glyph-name="Uring" unicode="&#x16e;" horiz-adv-x="608" 
d="M256 -10q-64 0 -108 21.5t-66 62.5t-22 98q0 17 3 40t8 47l97 455h101l-97 -458q-4 -20 -6.5 -40.5t-2.5 -35.5q0 -48 26 -74t77 -26q46 0 76.5 18.5t50 55.5t31.5 93l100 467h102l-102 -477q-16 -75 -48 -130.5t-85.5 -86t-134.5 -30.5zM416 778q-50 0 -80 28t-30 78
q0 49 31 77.5t79 28.5t78.5 -28t31.5 -76q0 -51 -31 -79.5t-79 -28.5zM416 831q24 0 38.5 14.5t14.5 38.5t-14.5 38.5t-38.5 14.5q-23 0 -38 -14.5t-15 -38.5t13.5 -38.5t39.5 -14.5z" />
    <glyph glyph-name="uring" unicode="&#x16f;" horiz-adv-x="527" 
d="M166 -10q-39 0 -66.5 15t-42 44t-14.5 69q0 20 3.5 43.5t8.5 46.5l70 331h100l-71 -334q-4 -21 -6.5 -38.5t-2.5 -32.5q0 -28 13 -43.5t42 -15.5q32 0 62.5 23.5t55.5 71t40 118.5l53 251h99l-114 -539h-79l8 88h-4q-18 -26 -41 -48.5t-51 -36t-63 -13.5zM344 607
q-50 0 -80 28t-30 78q0 49 31 77.5t79 28.5t78.5 -28t31.5 -76q0 -51 -31 -79.5t-79 -28.5zM344 660q24 0 38.5 14.5t14.5 38.5t-14.5 38.5t-38.5 14.5q-23 0 -38 -14.5t-15 -38.5t13.5 -38.5t39.5 -14.5z" />
    <glyph glyph-name="Uhungarumlaut" unicode="&#x170;" horiz-adv-x="608" 
d="M256 -10q-64 0 -108 21.5t-66 62.5t-22 98q0 17 3 40t8 47l97 455h101l-97 -458q-4 -20 -6.5 -40.5t-2.5 -35.5q0 -48 26 -74t77 -26q46 0 76.5 18.5t50 55.5t31.5 93l100 467h102l-102 -477q-16 -75 -48 -130.5t-85.5 -86t-134.5 -30.5zM451 789q20 23 40.5 49.5
t38.5 52.5t30 46h102v-9q-10 -14 -29 -34t-41.5 -42t-45.5 -41.5t-41 -33.5h-55zM283 789q20 23 40.5 49.5t38.5 52.5t31 46h102l-1 -9q-10 -14 -28.5 -34t-41 -41.5t-46 -41.5t-42.5 -34h-54z" />
    <glyph glyph-name="uhungarumlaut" unicode="&#x171;" horiz-adv-x="527" 
d="M166 -10q-39 0 -66.5 15t-42 44t-14.5 69q0 20 3.5 43.5t8.5 46.5l70 331h100l-71 -334q-4 -21 -6.5 -38.5t-2.5 -32.5q0 -28 13 -43.5t42 -15.5q32 0 62.5 23.5t55.5 71t40 118.5l53 251h99l-114 -539h-79l8 88h-4q-18 -26 -41 -48.5t-51 -36t-63 -13.5zM375 618
q20 23 40.5 49.5t38.5 52.5t30 46h102v-9q-10 -14 -29 -34t-41.5 -42t-45.5 -41.5t-41 -33.5h-55zM207 618q20 23 40.5 49.5t38.5 52.5t31 46h102l-1 -9q-10 -14 -28.5 -34t-41 -41.5t-46 -41.5t-42.5 -34h-54z" />
    <glyph glyph-name="Uogonek" unicode="&#x172;" horiz-adv-x="608" 
d="M256 -10q-64 0 -108 21.5t-66 62.5t-22 98q0 17 3 40t8 47l97 455h101l-97 -458q-4 -20 -6.5 -40.5t-2.5 -35.5q0 -48 26 -74t77 -26q46 0 76.5 18.5t50 55.5t31.5 93l100 467h102l-102 -477q-16 -75 -48 -130.5t-85.5 -86t-134.5 -30.5zM243 -225q-40 0 -64 21.5
t-24 59.5q0 30 12.5 55t36 46.5t54.5 42.5h67q-23 -20 -43.5 -40t-32.5 -41.5t-12 -45.5q0 -15 8 -23t23 -8q10 0 20.5 1.5t20.5 3.5l-5 -63q-14 -5 -29 -7t-32 -2z" />
    <glyph glyph-name="uogonek" unicode="&#x173;" horiz-adv-x="527" 
d="M166 -10q-39 0 -66.5 15t-42 44t-14.5 69q0 20 3.5 43.5t8.5 46.5l70 331h100l-71 -334q-4 -21 -6.5 -38.5t-2.5 -32.5q0 -28 13 -43.5t42 -15.5q32 0 62.5 23.5t55.5 71t40 118.5l53 251h99l-114 -539h-79l8 88h-4q-18 -26 -41 -48.5t-51 -36t-63 -13.5zM307 -225
q-40 0 -64 21.5t-24 59.5q0 30 12.5 55t36 46.5t54.5 42.5h67q-23 -20 -43.5 -40t-32.5 -41.5t-12 -45.5q0 -15 8 -23t23 -8q10 0 20.5 1.5t20.5 3.5l-5 -63q-14 -5 -29 -7t-32 -2z" />
    <glyph glyph-name="Wcircumflex" unicode="&#x174;" horiz-adv-x="794" 
d="M108 0l-11 714h99l1 -423q1 -41 -1 -82t-5 -75h3q13 37 30 80.5t34 81.5l182 418h96l5 -413q1 -28 0.5 -57.5t-1 -57.5t-1.5 -52h3q9 26 18.5 53.5t20 54.5t20.5 53l173 419h106l-307 -714h-112l-6 421q0 23 -0.5 45.5t0 44t0.5 42.5h-2q-10 -30 -21.5 -59.5t-27.5 -66.5
l-185 -427h-111zM340 789q20 19 45.5 45t49 53t38.5 50h98q8 -23 21 -50t27.5 -53t25.5 -45l-1 -12h-62q-10 11 -22 25t-24 30.5t-24 33.5q-28 -27 -55.5 -49.5t-51.5 -39.5h-66z" />
    <glyph glyph-name="wcircumflex" unicode="&#x175;" horiz-adv-x="677" 
d="M71 0l-11 539h96l1 -278q0 -43 -1.5 -80.5t-4.5 -68.5h4q6 20 15 45t19 48.5t17 40.5l126 293h110l4 -282q0 -33 -0.5 -72.5t-2.5 -74.5h3q8 24 18 52t21 57t23 57l111 263h102l-238 -539h-116l-2 294v44.5t1 46t2 47.5h-4q-7 -20 -14.5 -40t-16 -40.5t-18.5 -44.5
l-131 -307h-113zM243 618q20 19 45.5 45t49 53t38.5 50h98q8 -23 21 -50t27.5 -53t25.5 -45l-1 -12h-62q-10 11 -22 25t-24 30.5t-24 33.5q-28 -27 -55.5 -49.5t-51.5 -39.5h-66z" />
    <glyph glyph-name="Ycircumflex" unicode="&#x176;" horiz-adv-x="471" 
d="M123 0l58 271l-91 443h103l59 -329l196 329h113l-279 -443l-57 -271h-102zM177 789q20 19 45.5 45t49 53t38.5 50h98q8 -23 21 -50t27.5 -53t25.5 -45l-1 -12h-62q-10 11 -22 25t-24 30.5t-24 33.5q-28 -27 -55.5 -49.5t-51.5 -39.5h-66z" />
    <glyph glyph-name="ycircumflex" unicode="&#x177;" horiz-adv-x="437" 
d="M-22 -240q-22 0 -37.5 2.5t-27.5 6.5l4 84q13 -4 26.5 -6.5t28.5 -2.5q37 0 61.5 24t46.5 67l31 63l-57 541h99l21 -270q3 -26 4.5 -55t2 -56.5t-0.5 -47.5h3q7 18 17 43t21 51t21 46l139 289h106l-317 -629q-25 -49 -52 -82.5t-61 -50.5t-79 -17zM115 618q20 19 45.5 45
t49 53t38.5 50h98q8 -23 21 -50t27.5 -53t25.5 -45l-1 -12h-62q-10 11 -22 25t-24 30.5t-24 33.5q-28 -27 -55.5 -49.5t-51.5 -39.5h-66z" />
    <glyph glyph-name="Ydieresis" unicode="&#x178;" horiz-adv-x="471" 
d="M123 0l58 271l-91 443h103l59 -329l196 329h113l-279 -443l-57 -271h-102zM426 799q-20 0 -32 11t-12 33q0 27 15.5 46t43.5 19q20 0 31 -10.5t11 -31.5q0 -30 -16 -48.5t-41 -18.5zM254 799q-20 0 -32.5 11t-12.5 33q0 27 15.5 46t43.5 19q14 0 23.5 -4.5t14.5 -14
t5 -23.5q0 -30 -16 -48.5t-41 -18.5z" />
    <glyph glyph-name="Zacute" unicode="&#x179;" horiz-adv-x="466" 
d="M-25 0l15 75l386 550h-261l19 89h383l-15 -76l-387 -548h280l-19 -90h-401zM279 793q20 22 39.5 48t38 52.5t32.5 48.5h114v-9q-10 -13 -29.5 -33.5t-43 -43t-46 -42t-39.5 -32.5h-66v11z" />
    <glyph glyph-name="zacute" unicode="&#x17a;" horiz-adv-x="394" 
d="M-25 0l14 65l288 395h-191l17 79h302l-15 -73l-283 -387h211l-17 -79h-326zM207 617q20 22 39.5 48t38 52.5t32.5 48.5h114v-9q-10 -13 -29.5 -33.5t-43 -43t-46 -42t-39.5 -32.5h-66v11z" />
    <glyph glyph-name="Zdotaccent" unicode="&#x17b;" horiz-adv-x="466" 
d="M-25 0l15 75l386 550h-261l19 89h383l-15 -76l-387 -548h280l-19 -90h-401zM343 793q-22 0 -36.5 12.5t-14.5 36.5q0 30 17 51t49 21q16 0 27 -5.5t17 -15.5t6 -26q0 -33 -18 -53.5t-47 -20.5z" />
    <glyph glyph-name="zdotaccent" unicode="&#x17c;" horiz-adv-x="394" 
d="M-25 0l14 65l288 395h-191l17 79h302l-15 -73l-283 -387h211l-17 -79h-326zM273 622q-22 0 -36.5 12.5t-14.5 36.5q0 30 17 51t49 21q16 0 27 -5.5t17 -15.5t6 -26q0 -33 -18 -53.5t-47 -20.5z" />
    <glyph glyph-name="Zcaron" unicode="&#x17d;" horiz-adv-x="466" 
d="M-25 0l15 75l386 550h-261l19 89h383l-15 -76l-387 -548h280l-19 -90h-401zM286 777q-8 23 -21 50t-26.5 53t-25.5 45l1 12h61q10 -10 22 -24t24 -30.5t24 -34.5q28 27 55.5 49.5t52.5 39.5h65v-12q-17 -16 -43.5 -43t-51 -55.5t-39.5 -49.5h-98z" />
    <glyph glyph-name="zcaron" unicode="&#x17e;" horiz-adv-x="394" 
d="M-25 0l14 65l288 395h-191l17 79h302l-15 -73l-283 -387h211l-17 -79h-326zM213 606q-8 23 -21 50t-26.5 53t-25.5 45l1 12h61q10 -10 22 -24t24 -30.5t24 -34.5q28 27 55.5 49.5t52.5 39.5h65v-12q-17 -16 -43.5 -43t-51 -55.5t-39.5 -49.5h-98z" />
    <glyph glyph-name="longs" unicode="&#x17f;" horiz-adv-x="273" 
d="M-62 -240q-18 0 -34 2.5t-29 6.5v85q11 -4 24 -6.5t27 -2.5q32 0 51 26.5t30 78.5l135 639q13 61 34.5 99.5t55 57.5t82.5 19q26 0 50.5 -5t43.5 -14l-30 -77q-12 5 -26.5 9t-29.5 4q-23 0 -38.5 -11.5t-26 -34t-17.5 -56.5l-136 -641q-11 -53 -30.5 -93.5t-52 -63
t-83.5 -22.5z" />
    <glyph glyph-name="fhook" unicode="&#x192;" horiz-adv-x="406" 
d="M53 -242q-41 0 -72 16.5t-47.5 46t-16.5 67.5q0 19 4 35.5t10 28.5l81 -24q-3 -9 -5 -18t-2 -18q0 -15 5.5 -27t16 -18.5t25.5 -6.5q27 0 42.5 24t24.5 67l113 529h-77l10 48l84 32l11 49q11 46 25 79.5t34 55t48 31.5t65 10q26 0 50.5 -5t42.5 -14l-30 -77q-12 5 -26 9
t-30 4q-33 0 -51 -22.5t-29 -73.5l-11 -47h99l-16 -79h-99l-115 -533q-16 -78 -54 -123.5t-110 -45.5z" />
    <glyph glyph-name="Aringacute" unicode="&#x1fa;" horiz-adv-x="524" 
d="M259 637q-10 11 -16 27.5t-6 36.5q0 50 30.5 78t78.5 28q49 0 80 -28.5t31 -75.5q0 -29 -12 -51t-32 -34l55 -618h-102l-16 205h-200l-99 -205h-111zM193 296h153l-9 168q-2 27 -4 57.5t-3 58.5h-8q-10 -27 -22.5 -55.5t-26.5 -56.5zM346 649q24 0 38.5 14t14.5 38
t-14.5 38.5t-38.5 14.5q-23 0 -37.5 -14.5t-14.5 -38.5t13 -38t39 -14zM316 842q17 16 35 35.5t36 40t31 38.5h121v-7q-15 -15 -42 -37t-56.5 -43t-53.5 -35h-72z" />
    <glyph glyph-name="aringacute" unicode="&#x1fb;" horiz-adv-x="523" 
d="M171 -10q-39 0 -69 19t-47 58t-17 96q0 53 10.5 107.5t31 104.5t50.5 89t68.5 62t83.5 23q30 0 53 -10.5t39.5 -29.5t26.5 -44h4l28 74h79l-115 -539h-78l9 84h-4q-20 -27 -44 -48.5t-50.5 -33.5t-58.5 -12zM206 74q34 0 63 26t51 68.5t35 91.5q8 34 11.5 61.5t3.5 52.5
q0 41 -20 65.5t-55 24.5q-27 0 -50.5 -17.5t-43 -48t-33 -69t-21 -80.5t-7.5 -83q0 -46 16.5 -69t49.5 -23zM332 585q-49 0 -79 28t-30 77q0 50 31 78.5t78 28.5q48 0 79 -28t31 -77q0 -50 -30.5 -78.5t-79.5 -28.5zM332 638q23 0 38 14t15 38q0 25 -14.5 39.5t-38.5 14.5
t-38 -14.5t-14 -39.5t13 -38.5t39 -13.5zM308 841q16 16 34.5 35.5t36 40t31.5 39.5h122v-7q-15 -15 -42.5 -37t-57 -43t-54.5 -36h-71z" />
    <glyph glyph-name="AEacute" unicode="&#x1fc;" horiz-adv-x="746" 
d="M-61 0l413 714h435l-18 -89h-234l-44 -208h218l-19 -89h-218l-50 -239h233l-19 -89h-335l44 210h-176l-118 -210h-112zM221 300h143l69 325h-30zM423 793q20 22 39.5 48t38 52.5t32.5 48.5h114v-9q-10 -13 -29.5 -33.5t-43 -43t-46 -42t-39.5 -32.5h-66v11z" />
    <glyph glyph-name="aeacute" unicode="&#x1fd;" horiz-adv-x="760" 
d="M161 -10q-37 0 -65 20t-43 59t-15 95q0 58 11.5 114t32.5 105t50.5 86.5t66.5 58.5t79 21q28 0 49 -10.5t36.5 -28.5t25.5 -43h4l25 72h67l-13 -60q24 30 59 50t81 20q57 0 93.5 -33t36.5 -93q0 -43 -18 -78t-54.5 -60.5t-90.5 -39t-128 -13.5h-16q-2 -12 -3 -23.5
t-1 -23.5q0 -52 24.5 -83t79.5 -31q34 0 67 11t69 28l-5 -84q-36 -17 -71.5 -26.5t-77.5 -9.5q-48 0 -81.5 17.5t-50.5 52.5l-12 -60h-67l10 84h-3q-22 -29 -44.5 -50t-49 -32.5t-58.5 -11.5zM198 73q25 0 46.5 14.5t40 39.5t33 58.5t24.5 70.5q9 34 12.5 63t3.5 55
q0 41 -17 65.5t-48 24.5q-26 0 -49 -17t-42 -46t-33 -67t-21.5 -80.5t-7.5 -85.5q0 -48 15.5 -71.5t42.5 -23.5zM458 307q58 0 100 12.5t65 37t23 59.5q0 27 -15 40t-40 13q-30 0 -58 -20t-49.5 -56.5t-35.5 -85.5h10zM388 617q20 22 39.5 48t38 52.5t32.5 48.5h114v-9
q-10 -13 -29.5 -33.5t-43 -43t-46 -42t-39.5 -32.5h-66v11z" />
    <glyph glyph-name="Oslashacute" unicode="&#x1fe;" horiz-adv-x="645" 
d="M89 -44l-57 41l64 87q-20 31 -30 71.5t-10 87.5q0 58 10 116t29.5 111.5t48 100t66.5 81t85 54t103 19.5q42 0 76.5 -11.5t62.5 -34.5l55 75l57 -42l-65 -88q18 -28 27 -67t9 -84q0 -56 -8.5 -113t-27 -111t-46.5 -101t-65 -82.5t-84 -55.5t-105 -20q-43 0 -77 10.5
t-61 31.5zM290 79q35 0 65 15.5t54.5 42.5t43.5 63.5t32.5 79t21 88.5t7.5 92q1 17 -1 33t-5 29l-303 -409q15 -16 36.5 -25t48.5 -9zM476 597q-15 20 -36.5 29.5t-50.5 9.5q-36 0 -66.5 -15.5t-55.5 -44t-44 -65t-32.5 -79t-20.5 -87t-8 -88.5q0 -20 2.5 -38.5t6.5 -34.5z
M372 787q20 22 39.5 48t38 52.5t32.5 48.5h114v-9q-10 -13 -29.5 -33.5t-43 -43t-46 -42t-39.5 -32.5h-66v11z" />
    <glyph glyph-name="oslashacute" unicode="&#x1ff;" horiz-adv-x="514" 
d="M65 -49l-53 39l56 76q-14 24 -21.5 53t-7.5 64q0 47 10 98t30 98t51 85.5t73 61t96 22.5q32 0 58 -8t46 -23l45 60l53 -38l-52 -68q13 -22 19.5 -52t6.5 -62q0 -48 -9.5 -99t-29.5 -98.5t-51 -85.5t-73 -60.5t-95 -22.5q-30 0 -56 7t-46 21zM224 71q27 0 50 14.5t41.5 40
t32 59t21 72t8.5 78.5q1 11 0 21t-2 17l-207 -281q10 -10 24.5 -15.5t31.5 -5.5zM350 443q-9 11 -23 17t-34 6q-29 0 -53 -15.5t-42.5 -42t-32 -60.5t-20.5 -71.5t-8 -74.5q-1 -13 0 -24t3 -18zM276 617q20 22 39.5 48t38 52.5t32.5 48.5h114v-9q-10 -13 -29.5 -33.5
t-43 -43t-46 -42t-39.5 -32.5h-66v11z" />
    <glyph glyph-name="uni0218" unicode="&#x218;" horiz-adv-x="466" 
d="M163 -10q-50 0 -89 9t-70 26l6 100q31 -18 70 -31t84 -13q29 0 54 7t43.5 21.5t29.5 37t11 51.5q0 27 -9.5 47t-30 40t-55.5 45q-33 24 -58.5 49.5t-40 58t-14.5 77.5q0 48 17 86.5t47.5 66t72 42t91.5 14.5q49 0 90.5 -11t76.5 -31l-42 -87q-27 16 -60.5 27t-66.5 11
q-26 0 -47.5 -7t-37.5 -21.5t-25 -35t-9 -46.5q0 -28 10 -48t30.5 -38t51.5 -41q36 -26 62 -52.5t39.5 -59t13.5 -76.5q0 -51 -17 -91.5t-49.5 -69t-77.5 -43t-101 -14.5zM63 -208q10 18 23 44t25.5 54t18.5 49h95v-10q-7 -19 -24.5 -46t-38.5 -55t-41 -49h-58v13z" />
    <glyph glyph-name="uni0219" unicode="&#x219;" horiz-adv-x="401" 
d="M141 -10q-45 0 -79.5 8.5t-60.5 22.5v91q26 -16 61.5 -28t72.5 -12q31 0 53.5 9t34.5 26.5t12 42.5q0 18 -6.5 31.5t-23 28.5t-46.5 36q-32 21 -53 42.5t-32 46t-11 56.5q0 47 21.5 82.5t61.5 55.5t95 20q45 0 84 -11t68 -28l-35 -77q-24 15 -53 24.5t-62 9.5
q-35 0 -57 -18t-22 -48q0 -16 6 -29t21.5 -27t44.5 -33q31 -22 54 -42.5t35 -46t12 -62.5q0 -54 -23.5 -92.5t-67.5 -58.5t-105 -20zM33 -208q10 18 23 44t25.5 54t18.5 49h95v-10q-7 -19 -24.5 -46t-38.5 -55t-41 -49h-58v13z" />
    <glyph glyph-name="circumflex" unicode="&#x2c6;" horiz-adv-x="386" 
d="M114 618q20 19 45.5 45t49 53t38.5 50h98q8 -23 21 -50t27.5 -53t25.5 -45l-1 -12h-62q-10 11 -22 25t-24 30.5t-24 33.5q-28 -27 -55.5 -49.5t-51.5 -39.5h-66z" />
    <glyph glyph-name="caron" unicode="&#x2c7;" horiz-adv-x="387" 
d="M218 606q-8 23 -21 50t-26.5 53t-25.5 45l1 12h61q10 -10 22 -24t24 -30.5t24 -34.5q28 27 55.5 49.5t52.5 39.5h65v-12q-17 -16 -43.5 -43t-51 -55.5t-39.5 -49.5h-98z" />
    <glyph glyph-name="macronmod" unicode="&#x2c9;" horiz-adv-x="347" 
d="M112 607l16 76h267l-16 -76h-267z" />
    <glyph glyph-name="breve" unicode="&#x2d8;" horiz-adv-x="360" 
d="M263 606q-41 0 -68.5 14t-41.5 39.5t-14 58.5q0 8 0.5 15.5t2.5 14.5h60q0 -21 6.5 -35.5t21.5 -22t39 -7.5q38 0 59.5 16t29.5 49h63q-14 -72 -54 -107t-104 -35z" />
    <glyph glyph-name="dotaccent" unicode="&#x2d9;" horiz-adv-x="196" 
d="M179 622q-22 0 -36.5 12.5t-14.5 36.5q0 30 17 51t49 21q16 0 27 -5.5t17 -15.5t6 -26q0 -33 -18 -53.5t-47 -20.5z" />
    <glyph glyph-name="ring" unicode="&#x2da;" horiz-adv-x="305" 
d="M247 607q-50 0 -80 28t-30 78q0 49 31 77.5t79 28.5t78.5 -28t31.5 -76q0 -51 -31 -79.5t-79 -28.5zM247 660q24 0 38.5 14.5t14.5 38.5t-14.5 38.5t-38.5 14.5q-23 0 -38 -14.5t-15 -38.5t13.5 -38.5t39.5 -14.5z" />
    <glyph glyph-name="ogonek" unicode="&#x2db;" horiz-adv-x="247" 
d="M43 -225q-40 0 -64 21.5t-24 59.5q0 30 12.5 55t36 46.5t54.5 42.5h67q-23 -20 -43.5 -40t-32.5 -41.5t-12 -45.5q0 -15 8 -23t23 -8q10 0 20.5 1.5t20.5 3.5l-5 -63q-14 -5 -29 -7t-32 -2z" />
    <glyph glyph-name="tilde" unicode="&#x2dc;" horiz-adv-x="404" 
d="M112 606q9 44 24.5 73.5t37.5 45t52 15.5q22 0 39.5 -8.5t33 -19t29 -19t26.5 -8.5q18 0 29 12.5t21 43.5h60q-10 -46 -27 -76t-38.5 -44t-48.5 -14q-21 0 -38.5 8.5t-32.5 19.5t-29 19.5t-29 8.5q-18 0 -29.5 -14.5t-20.5 -42.5h-59z" />
    <glyph glyph-name="hungarumlaut" unicode="&#x2dd;" horiz-adv-x="429" 
d="M282 618q20 23 40.5 49.5t38.5 52.5t30 46h102v-9q-10 -14 -29 -34t-41.5 -42t-45.5 -41.5t-41 -33.5h-55zM114 618q20 23 40.5 49.5t38.5 52.5t31 46h102l-1 -9q-10 -14 -28.5 -34t-41 -41.5t-46 -41.5t-42.5 -34h-54z" />
    <glyph glyph-name="tonos" unicode="&#x384;" horiz-adv-x="248" 
d="M112 606l2 12l82 158h119l-2 -10l-133 -160h-68z" />
    <glyph glyph-name="dieresistonos" unicode="&#x385;" horiz-adv-x="633" 
d="M308 606l2 12l71 158h120l-2 -10l-123 -160h-68zM236 624q-21 0 -33 13.5t-6 41.5t23.5 41t39.5 13q21 0 33 -13t6 -41q-5 -28 -23 -41.5t-40 -13.5zM519 624q-22 0 -33.5 13.5t-5.5 40.5q5 29 23 42t39 13q22 0 34 -13t6 -41q-5 -28 -23.5 -41.5t-39.5 -13.5z" />
    <glyph glyph-name="Alphatonos" unicode="&#x386;" horiz-adv-x="602" 
d="M19 0l353 715h120l54 -715h-102l-14 209h-202l-99 -209h-110zM270 299h156l-8 190q-2 31 -3.5 65.5t-0.5 62.5h-3q-11 -29 -25 -61t-30 -67zM85 544l2 12l82 158h119l-2 -10l-133 -160h-68z" />
    <glyph glyph-name="anoteleia" unicode="&#x387;" horiz-adv-x="246" 
d="M152 408q-27 0 -41 14.5t-14 38.5q0 34 19.5 60.5t60.5 26.5q24 0 38 -14t14 -40q0 -35 -20.5 -60.5t-56.5 -25.5z" />
    <glyph glyph-name="Epsilontonos" unicode="&#x388;" horiz-adv-x="644" 
d="M199 0l151 714h335l-19 -89h-233l-44 -208h217l-18 -89h-218l-51 -239h234l-19 -89h-335zM69 544l2 12l82 158h119l-2 -10l-133 -160h-68z" />
    <glyph glyph-name="Etatonos" unicode="&#x389;" horiz-adv-x="792" 
d="M199 0l151 714h102l-63 -297h251l63 297h101l-151 -714h-102l69 328h-250l-69 -328h-102zM69 544l2 12l82 158h119l-2 -10l-133 -160h-68z" />
    <glyph glyph-name="Iotatonos" unicode="&#x38a;" horiz-adv-x="514" 
d="M164 0l12 57l84 23l117 554l-74 23l12 57h261l-12 -57l-85 -23l-117 -554l74 -23l-11 -57h-261zM69 544l2 12l82 158h119l-2 -10l-133 -160h-68z" />
    <glyph glyph-name="Omicrontonos" unicode="&#x38c;" horiz-adv-x="776" 
d="M415 -10q-74 0 -125 30t-77 86.5t-26 136.5q0 58 10 116t29.5 111.5t48 100t66.5 81t85 54t102 19.5q110 0 166.5 -66t56.5 -186q0 -56 -8.5 -113t-27 -111t-46.5 -101t-65 -82.5t-84 -55.5t-105 -20zM421 80q35 0 65 16t55 45t44.5 66.5t32.5 82t20 91.5t7 93
q0 78 -32.5 119.5t-91.5 41.5q-37 0 -68 -16.5t-56 -46t-44.5 -68t-32.5 -82.5t-19.5 -89.5t-6.5 -88.5q0 -54 15 -90.5t43.5 -55t68.5 -18.5zM69 544l2 12l82 158h119l-2 -10l-133 -160h-68z" />
    <glyph glyph-name="Upsilontonos" unicode="&#x38e;" horiz-adv-x="690" 
d="M342 0l58 271l-91 443h103l59 -329l196 329h113l-279 -443l-57 -271h-102zM69 544l2 12l82 158h119l-2 -10l-133 -160h-68z" />
    <glyph glyph-name="Omegatonos" unicode="&#x38f;" horiz-adv-x="798" 
d="M155 0l20 92h137q-33 29 -54 73t-28.5 101t1.5 126q13 99 54 174t108 117t159 42q93 0 148 -42t74 -117t5 -174q-9 -69 -35 -126.5t-63 -101t-81 -72.5h138l-20 -92h-236l18 89q53 37 87.5 81t55.5 97.5t30 117.5q10 75 1.5 131.5t-41 87.5t-93.5 31t-102.5 -30.5
t-66 -87t-34.5 -133.5q-8 -64 -3.5 -119t23 -99t53.5 -77l-19 -89h-236zM69 544l2 12l82 158h119l-2 -10l-133 -160h-68z" />
    <glyph glyph-name="iotadieresistonos" unicode="&#x390;" horiz-adv-x="328" 
d="M156 -10q-41 0 -67.5 13t-39 37.5t-12.5 58.5q0 13 1.5 27t4.5 30l82 383h102l-81 -380q-2 -10 -3 -18.5t-1 -16.5q0 -27 13.5 -37.5t35.5 -10.5q15 0 29.5 2.5t28.5 6.5l-18 -84q-15 -5 -34 -8t-41 -3zM174 606l2 12l71 158h120l-2 -10l-123 -160h-68zM102 624
q-21 0 -33 13.5t-6 41.5t23.5 41t39.5 13q21 0 33 -13t6 -41q-5 -28 -23 -41.5t-40 -13.5zM385 624q-22 0 -33.5 13.5t-5.5 40.5q5 29 23 42t39 13q22 0 34 -13t6 -41q-5 -28 -23.5 -41.5t-39.5 -13.5z" />
    <glyph glyph-name="Alpha" unicode="&#x391;" horiz-adv-x="524" 
d="M-60 0l353 715h120l54 -715h-102l-14 209h-202l-99 -209h-110zM191 299h156l-8 190q-2 31 -3.5 65.5t-0.5 62.5h-3q-11 -29 -25 -61t-30 -67z" />
    <glyph glyph-name="Beta" unicode="&#x392;" horiz-adv-x="546" 
d="M23 0l151 714h173q59 0 103 -16.5t68.5 -50.5t24.5 -88q0 -47 -17.5 -85t-51 -64t-82.5 -37v-4q45 -13 72.5 -48.5t27.5 -89.5q0 -72 -32.5 -123.5t-90 -79.5t-135.5 -28h-211zM237 87q49 0 82 18t50 51t17 76q0 45 -25.5 71.5t-80.5 26.5h-85l-52 -243h94zM297 414
q41 0 72.5 16t49 44.5t17.5 68.5q0 41 -24 62.5t-78 21.5h-77l-45 -213h85z" />
    <glyph glyph-name="Gamma" unicode="&#x393;" horiz-adv-x="439" 
d="M23 0l151 714h331l-18 -89h-231l-132 -625h-101z" />
    <glyph glyph-name="Epsilon" unicode="&#x395;" horiz-adv-x="468" 
d="M23 0l151 714h335l-19 -89h-233l-44 -208h217l-18 -89h-218l-51 -239h234l-19 -89h-335z" />
    <glyph glyph-name="Zeta" unicode="&#x396;" horiz-adv-x="466" 
d="M-25 0l15 75l386 550h-261l19 89h383l-15 -76l-387 -548h280l-19 -90h-401z" />
    <glyph glyph-name="Eta" unicode="&#x397;" horiz-adv-x="616" 
d="M23 0l151 714h102l-63 -297h251l63 297h101l-151 -714h-102l69 328h-250l-69 -328h-102z" />
    <glyph glyph-name="Theta" unicode="&#x398;" horiz-adv-x="645" 
d="M220 319l19 89h218l-19 -89h-218zM284 -10q-74 0 -125 30t-77 86.5t-26 136.5q0 58 10 116t29.5 111.5t48 100t66.5 81t85 54t102 19.5q110 0 166.5 -66t56.5 -186q0 -56 -8.5 -113t-27 -111t-46.5 -101t-65 -82.5t-84 -55.5t-105 -20zM290 80q35 0 65 16t55 45
t44.5 66.5t32.5 82t20 91.5t7 93q0 78 -32.5 119.5t-91.5 41.5q-37 0 -68 -16.5t-56 -46t-44.5 -68t-32.5 -82.5t-19.5 -89.5t-6.5 -88.5q0 -54 15 -90.5t43.5 -55t68.5 -18.5z" />
    <glyph glyph-name="Iota" unicode="&#x399;" horiz-adv-x="318" 
d="M-32 0l12 57l84 23l117 554l-74 23l12 57h261l-12 -57l-85 -23l-117 -554l74 -23l-11 -57h-261z" />
    <glyph glyph-name="Kappa" unicode="&#x39a;" horiz-adv-x="520" 
d="M23 0l151 714h102l-74 -346l61 79l226 267h119l-275 -325l131 -389h-112l-103 324l-67 -52l-57 -272h-102z" />
    <glyph glyph-name="Lambda" unicode="&#x39b;" horiz-adv-x="518" 
d="M-60 0l353 715h114l55 -715h-102l-28 444q-2 35 -3 76t-2 76h-2q-13 -38 -30 -79t-38 -83l-208 -434h-109z" />
    <glyph glyph-name="Mu" unicode="&#x39c;" horiz-adv-x="782" 
d="M23 0l151 714h139l44 -565h4l283 565h150l-150 -714h-100l90 421q7 31 14 60.5t13 56t12 47.5h-2l-297 -585h-90l-47 583h-3q-3 -20 -7.5 -48.5t-9.5 -59.5t-12 -61l-88 -414h-94z" />
    <glyph glyph-name="Nu" unicode="&#x39d;" horiz-adv-x="650" 
d="M23 0l151 714h114l162 -561h3q5 27 10.5 60.5t12 67t11.5 60.5l80 373h96l-152 -714h-112l-165 568h-4q-2 -18 -6 -43.5t-9 -53.5l-10 -56t-10 -50l-77 -365h-95z" />
    <glyph glyph-name="Xi" unicode="&#x39e;" horiz-adv-x="494" 
d="M-4 0l19 89h387l-19 -89h-387zM115 329l18 88h290l-19 -88h-289zM144 625l19 89h356l-19 -89h-356z" />
    <glyph glyph-name="Omicron" unicode="&#x39f;" horiz-adv-x="645" 
d="M284 -10q-74 0 -125 30t-77 86.5t-26 136.5q0 58 10 116t29.5 111.5t48 100t66.5 81t85 54t102 19.5q110 0 166.5 -66t56.5 -186q0 -56 -8.5 -113t-27 -111t-46.5 -101t-65 -82.5t-84 -55.5t-105 -20zM290 80q35 0 65 16t55 45t44.5 66.5t32.5 82t20 91.5t7 93
q0 78 -32.5 119.5t-91.5 41.5q-37 0 -68 -16.5t-56 -46t-44.5 -68t-32.5 -82.5t-19.5 -89.5t-6.5 -88.5q0 -54 15 -90.5t43.5 -55t68.5 -18.5z" />
    <glyph glyph-name="Pi" unicode="&#x3a0;" horiz-adv-x="614" 
d="M23 0l151 714h452l-151 -714h-103l132 624h-247l-132 -624h-102z" />
    <glyph glyph-name="Rho" unicode="&#x3a1;" horiz-adv-x="520" 
d="M23 0l151 714h152q72 0 116 -22.5t65 -63t21 -94.5q0 -60 -19 -108.5t-56 -83t-90.5 -52.5t-121.5 -18h-59l-57 -272h-102zM249 359q55 0 94 19.5t60 57.5t21 92q0 51 -27.5 74.5t-82.5 23.5h-57l-56 -267h48z" />
    <glyph glyph-name="Sigma" unicode="&#x3a3;" horiz-adv-x="464" 
d="M-25 0l17 83l224 291l-90 258l17 82h373l-19 -89h-167h-33.5t-35.5 1t-29 1l82 -245l-3 -17l-211 -278q32 1 61.5 2t59.5 1h172l-19 -90h-399z" />
    <glyph glyph-name="Tau" unicode="&#x3a4;" horiz-adv-x="454" 
d="M117 0l132 624h-165l20 90h431l-19 -90h-165l-132 -624h-102z" />
    <glyph glyph-name="Upsilon" unicode="&#x3a5;" horiz-adv-x="471" 
d="M123 0l58 271l-91 443h103l59 -329l196 329h113l-279 -443l-57 -271h-102z" />
    <glyph glyph-name="Phi" unicode="&#x3a6;" horiz-adv-x="781" 
d="M280 -3l20 96q-78 6 -128.5 30t-78 62.5t-35 88t1.5 104.5q8 52 31.5 99.5t66 84.5t106.5 59t153 22l15 74h100l-16 -74q79 -5 129.5 -29.5t78.5 -63t35.5 -88t-1.5 -104.5q-8 -52 -31.5 -99.5t-66.5 -84t-107 -59t-153 -22.5l-20 -96h-100zM318 180l81 377
q-75 -1 -124.5 -24t-76 -62.5t-35.5 -93.5q-6 -41 -2 -76t21 -61t50.5 -41.5t85.5 -18.5zM418 179q76 2 125 24.5t76 62.5t35 93q7 41 3 76t-21 61t-50.5 42t-87.5 18z" />
    <glyph glyph-name="Chi" unicode="&#x3a7;" horiz-adv-x="492" 
d="M-55 0l262 375l-98 339h105l68 -261l176 261h111l-242 -346l104 -368h-108l-72 287l-195 -287h-111z" />
    <glyph glyph-name="Psi" unicode="&#x3a8;" horiz-adv-x="751" 
d="M265 0l39 183q-60 3 -103 22t-67 52.5t-29.5 83.5t8.5 115l55 258h101l-55 -260q-14 -65 -5.5 -105t37.5 -58.5t77 -18.5l94 442h101l-94 -442q47 0 83.5 17t63 57t40.5 109l55 259h102l-55 -258q-15 -67 -40 -117.5t-62.5 -84.5t-88 -51.5t-116.5 -19.5l-39 -183h-102z
" />
    <glyph glyph-name="Iotadieresis" unicode="&#x3aa;" horiz-adv-x="318" 
d="M-32 0l12 57l84 23l117 554l-74 23l12 57h261l-12 -57l-85 -23l-117 -554l74 -23l-11 -57h-261zM355 807q-20 0 -32 11t-12 33q0 27 15.5 46t43.5 19q20 0 31 -10.5t11 -31.5q0 -30 -16 -48.5t-41 -18.5zM183 807q-20 0 -32.5 11t-12.5 33q0 27 15.5 46t43.5 19
q14 0 23.5 -4.5t14.5 -14t5 -23.5q0 -30 -16 -48.5t-41 -18.5z" />
    <glyph glyph-name="Upsilondieresis" unicode="&#x3ab;" horiz-adv-x="471" 
d="M123 0l58 271l-91 443h103l59 -329l196 329h113l-279 -443l-57 -271h-102zM426 799q-20 0 -32 11t-12 33q0 27 15.5 46t43.5 19q20 0 31 -10.5t11 -31.5q0 -30 -16 -48.5t-41 -18.5zM254 799q-20 0 -32.5 11t-12.5 33q0 27 15.5 46t43.5 19q14 0 23.5 -4.5t14.5 -14
t5 -23.5q0 -30 -16 -48.5t-41 -18.5z" />
    <glyph glyph-name="alphatonos" unicode="&#x3ac;" horiz-adv-x="528" 
d="M166 -10q-59 0 -95 43.5t-36 129.5q0 56 11 111.5t32 105t51 87.5t67.5 60t81.5 22q33 0 56 -10t38.5 -29.5t26.5 -46.5h4l31 76h75l-83 -392q-3 -12 -4.5 -22t-1.5 -19q0 -15 6.5 -23t21.5 -8q7 0 14.5 1.5t15.5 3.5l-17 -78q-6 -3 -16 -6t-21.5 -4.5t-21.5 -1.5
q-28 0 -46.5 9t-27 29.5t-9.5 54.5h-3q-20 -27 -42.5 -48.5t-48.5 -33t-59 -11.5zM204 74q33 0 61.5 25t50 65.5t34.5 85.5q9 35 13 66t4 56q0 42 -19 67t-57 25q-28 0 -52 -18t-42.5 -49t-32 -69.5t-20.5 -79t-7 -77.5q0 -50 17.5 -73.5t49.5 -23.5zM269 606l2 12l82 158
h119l-2 -10l-133 -160h-68z" />
    <glyph glyph-name="epsilontonos" unicode="&#x3ad;" horiz-adv-x="386" 
d="M181 -10q-55 0 -91.5 19.5t-53 53t-14.5 77.5q4 65 39.5 99t88.5 45v3q-31 14 -49 42.5t-15 72.5q2 49 26.5 82t64.5 49t87 16q44 0 77.5 -9.5t62.5 -27.5l-34 -78q-20 14 -46 23t-56 9q-25 0 -45 -8t-31.5 -24t-12.5 -42q-2 -31 15.5 -50.5t55.5 -19.5h52l-16 -77h-49
q-31 0 -56 -9.5t-40.5 -29.5t-16.5 -51q-3 -37 16 -60t60 -23q37 0 68 9.5t61 26.5v-84q-26 -17 -64 -25.5t-84 -8.5zM250 606l2 12l82 158h119l-2 -10l-133 -160h-68z" />
    <glyph glyph-name="etatonos" unicode="&#x3ae;" horiz-adv-x="527" 
d="M369 330q5 22 8 41.5t3 34.5q0 29 -14 42.5t-41 13.5q-24 0 -47 -13t-43.5 -40t-37 -66t-28.5 -92l-53 -251h-103l115 540h83l-10 -89h2q14 21 30.5 39t36 31.5t41.5 21t48 7.5q38 0 66 -14.5t43.5 -43.5t15.5 -70q0 -21 -4 -45t-8 -47l-122 -570h-102zM279 606l2 12
l82 158h119l-2 -10l-133 -160h-68z" />
    <glyph glyph-name="iotatonos" unicode="&#x3af;" horiz-adv-x="289" 
d="M156 -10q-41 0 -67.5 13t-39 37.5t-12.5 58.5q0 13 1.5 27t4.5 30l82 383h102l-81 -380q-2 -10 -3 -18.5t-1 -16.5q0 -27 13.5 -37.5t35.5 -10.5q15 0 29.5 2.5t28.5 6.5l-18 -84q-15 -5 -34 -8t-41 -3zM166 606l2 12l82 158h119l-2 -10l-133 -160h-68z" />
    <glyph glyph-name="upsilondieresistonos" unicode="&#x3b0;" horiz-adv-x="520" 
d="M199 -9q-60 0 -98 23t-50.5 69t1.5 112l73 344h100l-74 -347q-13 -61 1.5 -88.5t58.5 -27.5q60 0 101.5 49t61.5 146q6 30 10.5 64t6.5 70t2 70t-2 64h98q5 -37 4.5 -84t-4.5 -95.5t-14 -92.5q-18 -91 -56 -152.5t-93.5 -92.5t-126.5 -31zM284 606l2 12l71 158h120
l-2 -10l-123 -160h-68zM212 624q-21 0 -33 13.5t-6 41.5t23.5 41t39.5 13q21 0 33 -13t6 -41q-5 -28 -23 -41.5t-40 -13.5zM495 624q-22 0 -33.5 13.5t-5.5 40.5q5 29 23 42t39 13q22 0 34 -13t6 -41q-5 -28 -23.5 -41.5t-39.5 -13.5z" />
    <glyph glyph-name="alpha" unicode="&#x3b1;" horiz-adv-x="528" 
d="M166 -10q-59 0 -95 43.5t-36 129.5q0 56 11 111.5t32 105t51 87.5t67.5 60t81.5 22q33 0 56 -10t38.5 -29.5t26.5 -46.5h4l31 76h75l-83 -392q-3 -12 -4.5 -22t-1.5 -19q0 -15 6.5 -23t21.5 -8q7 0 14.5 1.5t15.5 3.5l-17 -78q-6 -3 -16 -6t-21.5 -4.5t-21.5 -1.5
q-28 0 -46.5 9t-27 29.5t-9.5 54.5h-3q-20 -27 -42.5 -48.5t-48.5 -33t-59 -11.5zM204 74q33 0 61.5 25t50 65.5t34.5 85.5q9 35 13 66t4 56q0 42 -19 67t-57 25q-28 0 -52 -18t-42.5 -49t-32 -69.5t-20.5 -79t-7 -77.5q0 -50 17.5 -73.5t49.5 -23.5z" />
    <glyph glyph-name="beta" unicode="&#x3b2;" horiz-adv-x="533" 
d="M-35 -238l166 782q14 68 40.5 117t72 76.5t116.5 27.5q54 0 92.5 -19t59 -54.5t20.5 -84.5q0 -54 -19.5 -97t-56 -71.5t-89.5 -40.5q50 -10 85 -48.5t35 -107.5q0 -46 -14.5 -91t-43 -81.5t-72 -58t-103.5 -21.5q-45 0 -78 13.5t-54 28.5l-59 -270h-98zM245 74
q36 0 62.5 15t43.5 39t25.5 54t8.5 59q1 37 -11 63t-36.5 40t-63.5 14h-29l17 79h30q35 0 61 13t43 35t25.5 50t8.5 59q0 42 -20.5 65t-58.5 23q-35 0 -58.5 -16t-37.5 -46.5t-24 -72.5l-92 -437q18 -16 47.5 -26t58.5 -10z" />
    <glyph glyph-name="gamma" unicode="&#x3b3;" horiz-adv-x="442" 
d="M41 -210l48 224l-36 525h98l10 -305q1 -22 2 -48t2 -50.5t0 -42.5h4q55 62 91.5 129.5t58 146t30.5 170.5h102q-12 -104 -41.5 -195t-84 -174t-141.5 -167l-45 -213h-98z" />
    <glyph glyph-name="delta" unicode="&#x3b4;" horiz-adv-x="508" 
d="M217 -10q-62 0 -103 25t-61 67t-20 93q0 71 25.5 130t74.5 101.5t118 62.5q-31 30 -47 60t-16 75q0 49 23 84.5t64.5 55.5t95.5 20q56 0 97 -15.5t69 -35.5l-43 -74q-26 19 -57.5 31.5t-66.5 12.5q-40 0 -62 -20t-22 -56q0 -23 9 -42t26 -37t40 -42q31 -29 54.5 -62
t36.5 -71.5t13 -85.5q0 -57 -15.5 -107t-47 -88t-78 -60t-107.5 -22zM227 73q33 0 58.5 17t42.5 44.5t26 61t9 68.5q0 34 -8 62.5t-22.5 52t-34.5 41.5q-49 -15 -85 -49t-56.5 -82.5t-20.5 -104.5q0 -33 10 -58t30.5 -39t50.5 -14z" />
    <glyph glyph-name="epsilon" unicode="&#x3b5;" horiz-adv-x="386" 
d="M181 -10q-55 0 -91.5 19.5t-53 53t-14.5 77.5q4 65 39.5 99t88.5 45v3q-31 14 -49 42.5t-15 72.5q2 49 26.5 82t64.5 49t87 16q44 0 77.5 -9.5t62.5 -27.5l-34 -78q-20 14 -46 23t-56 9q-25 0 -45 -8t-31.5 -24t-12.5 -42q-2 -31 15.5 -50.5t55.5 -19.5h52l-16 -77h-49
q-31 0 -56 -9.5t-40.5 -29.5t-16.5 -51q-3 -37 16 -60t60 -23q37 0 68 9.5t61 26.5v-84q-26 -17 -64 -25.5t-84 -8.5z" />
    <glyph glyph-name="zeta" unicode="&#x3b6;" horiz-adv-x="375" 
d="M176 -202q26 36 40 65.5t18 53.5q2 17 -1.5 30t-19 24t-47.5 23q-54 19 -88.5 49.5t-48 73t-6.5 96.5q6 45 23.5 85.5t45 81t64 84.5t81.5 94l114 128q-9 -2 -28.5 -3.5t-44 -2t-49.5 -0.5h-116l17 80h348l-14 -64l-159 -183q-63 -73 -99.5 -124.5t-53.5 -91t-23 -77.5
q-4 -30 2 -57.5t29.5 -49.5t72.5 -41q41 -15 66 -33t34.5 -43.5t4.5 -62.5q-4 -27 -13 -50t-22 -43t-28 -42h-99z" />
    <glyph glyph-name="eta" unicode="&#x3b7;" horiz-adv-x="527" 
d="M369 330q5 22 8 41.5t3 34.5q0 29 -14 42.5t-41 13.5q-24 0 -47 -13t-43.5 -40t-37 -66t-28.5 -92l-53 -251h-103l115 540h83l-10 -89h2q14 21 30.5 39t36 31.5t41.5 21t48 7.5q38 0 66 -14.5t43.5 -43.5t15.5 -70q0 -21 -4 -45t-8 -47l-122 -570h-102z" />
    <glyph glyph-name="theta" unicode="&#x3b8;" horiz-adv-x="499" 
d="M38 192q0 31 3 65.5t9 72t14 74.5q18 79 42.5 145.5t58 115t77.5 75.5t101 27q48 0 82.5 -21t53.5 -66.5t19 -118.5q0 -35 -5 -79t-14 -91t-23 -91q-17 -70 -41.5 -127t-56 -98t-72 -63t-91.5 -22q-52 0 -87 23t-52.5 68.5t-17.5 110.5zM135 188q0 -60 17 -89t52 -29
q28 0 51.5 19t43.5 54.5t37 86.5t32 116h-215q-9 -47 -13.5 -86.5t-4.5 -71.5zM170 427h214q8 42 12 79t4 68q0 56 -16.5 84.5t-50.5 28.5q-27 0 -50.5 -18t-43.5 -51.5t-37 -81.5t-32 -109z" />
    <glyph glyph-name="iota" unicode="&#x3b9;" horiz-adv-x="289" 
d="M156 -10q-41 0 -67.5 13t-39 37.5t-12.5 58.5q0 13 1.5 27t4.5 30l82 383h102l-81 -380q-2 -10 -3 -18.5t-1 -16.5q0 -27 13.5 -37.5t35.5 -10.5q15 0 29.5 2.5t28.5 6.5l-18 -84q-15 -5 -34 -8t-41 -3z" />
    <glyph glyph-name="kappa" unicode="&#x3ba;" horiz-adv-x="466" 
d="M15 0l114 539h100l-29 -132q-6 -30 -15 -60.5t-16 -56.5h2l221 249h114l-209 -230l112 -309h-109l-83 240l-64 -54l-38 -186h-100z" />
    <glyph glyph-name="lambda" unicode="&#x3bb;" horiz-adv-x="494" 
d="M370 -10q-28 0 -46 10.5t-26.5 32t-11.5 56.5l-15 173q-2 16 -3.5 34.5t-3.5 38t-3 38t-1 33.5h-4q-11 -30 -27.5 -63l-32.5 -65l-131 -278h-109l280 534l-7 67q-4 44 -26 61t-59 17q-15 0 -28 -2t-23 -4l18 84q10 3 20 4.5t22 2.5t25 1q46 0 76.5 -14.5t48 -48.5
t23.5 -90l53 -476q3 -23 7.5 -36t12.5 -18t19 -5q8 0 16 1.5t14 3.5l-17 -81q-8 -3 -18 -5.5t-21 -4t-22 -1.5z" />
    <glyph glyph-name="nu" unicode="&#x3bd;" horiz-adv-x="442" 
d="M90 0l-37 539h98l10 -305q1 -22 2 -48t2 -50.5t0 -42.5h4q55 62 91.5 129.5t58 146t30.5 170.5h102q-12 -104 -41.5 -194.5t-84.5 -175t-142 -169.5h-93z" />
    <glyph glyph-name="xi" unicode="&#x3be;" horiz-adv-x="442" 
d="M193 -202q16 23 27.5 43t19.5 38.5t11 37.5q4 25 -8 42t-54 32q-50 19 -87 45t-54.5 66t-11.5 98q5 54 28.5 94t61.5 66t85 38l1 5q-45 13 -64.5 49.5t-14.5 82.5q3 29 14 53.5t29 43t41 32t49 21.5l-22 -2t-23.5 -2t-29.5 -1h-54l18 80h339l-17 -76h-25q-33 0 -63.5 -5
t-57 -15.5t-47 -26.5t-33.5 -38.5t-16 -52.5q-4 -31 5.5 -55.5t34.5 -39t68 -14.5h66l-17 -78h-65q-45 0 -78 -9.5t-55.5 -27.5t-35 -42.5t-15.5 -53.5q-4 -39 5 -67.5t36 -50t76 -39.5q40 -15 62 -34t29.5 -44t2.5 -57q-4 -27 -13 -49.5t-21.5 -43t-27.5 -43.5h-99z" />
    <glyph glyph-name="omicron" unicode="&#x3bf;" horiz-adv-x="514" 
d="M216 -9q-54 0 -94.5 23t-62 66t-21.5 103q0 48 10 99t30.5 98t51 85t73 60.5t96.5 22.5q55 0 94.5 -23.5t61 -67t21.5 -104.5q0 -50 -10.5 -101.5t-30.5 -98t-51 -83t-73 -58t-95 -21.5zM224 75q27 0 50 15t41.5 42.5t31.5 63.5t20.5 77.5t7.5 84.5q0 29 -8.5 53
t-26 38.5t-47.5 14.5t-54 -17.5t-43 -46.5t-31.5 -66t-19 -76.5t-6.5 -76.5q0 -51 22 -78.5t63 -27.5z" />
    <glyph glyph-name="pi" unicode="&#x3c0;" horiz-adv-x="563" 
d="M417 -9q-47 0 -72.5 24.5t-25.5 69.5q0 14 2.5 30.5t6.5 36.5l63 304h-148l-98 -456h-101l99 456h-97l18 83h537l-16 -83h-94l-64 -310q-2 -11 -3.5 -21.5t-1.5 -18.5q0 -16 8 -23.5t23 -7.5q11 0 22.5 3t20.5 6v-76q-16 -7 -36 -12t-43 -5z" />
    <glyph glyph-name="rho" unicode="&#x3c1;" horiz-adv-x="511" 
d="M80 305q11 54 28 98.5t42 77t62.5 50t90.5 17.5q57 0 94.5 -23t56.5 -66t19 -104q0 -48 -9.5 -99t-27.5 -98t-45 -85t-63.5 -60.5t-82.5 -22.5q-42 0 -72.5 15t-52.5 40q-4 -31 -9.5 -60.5t-12.5 -62.5l-34 -162h-99zM232 74q28 0 50 18t38.5 49t27.5 68t17 75t6 71
q0 51 -17.5 80.5t-57.5 29.5q-33 0 -55 -19.5t-36.5 -58.5t-27.5 -98l-36 -168q15 -20 38 -33.5t53 -13.5z" />
    <glyph glyph-name="uni03C2" unicode="&#x3c2;" horiz-adv-x="444" 
d="M195 -202q16 24 28 44t19.5 38t9.5 34q3 18 -1 31.5t-18.5 25t-45.5 22.5q-47 17 -80 43t-50 65.5t-17 94.5q1 49 12.5 99.5t33 95.5t53.5 81t73 56.5t91 20.5q35 0 69 -7t60 -21l-34 -80q-18 9 -42.5 16.5t-49.5 7.5q-30 0 -55 -16t-45.5 -42t-34.5 -59t-21.5 -68.5
t-7.5 -68.5q0 -36 11 -61.5t35.5 -43.5t64.5 -34q41 -15 65.5 -33.5t34 -44t3.5 -62.5q-4 -27 -13 -49.5t-21.5 -42.5t-27.5 -42h-99z" />
    <glyph glyph-name="sigma" unicode="&#x3c3;" horiz-adv-x="516" 
d="M210 -10q-64 0 -106 35.5t-57 98.5t-1 145q16 100 55.5 159t100 85t136.5 26h215l-18 -83h-104q31 -38 38.5 -91t-3.5 -119q-8 -54 -29.5 -100.5t-54.5 -81.5t-76 -54.5t-96 -19.5zM226 73q58 0 92 49t47 129q7 41 7.5 78t-7 69.5t-23.5 57.5h-23q-47 0 -81.5 -18.5
t-57 -61t-34.5 -113.5q-8 -56 -3.5 -99t25 -67t58.5 -24z" />
    <glyph glyph-name="tau" unicode="&#x3c4;" horiz-adv-x="384" 
d="M221 -10q-53 0 -85.5 25.5t-32.5 84.5q0 16 3 37.5t8 43.5l58 275h-126l18 83h367l-18 -83h-141l-60 -280q-3 -17 -5.5 -31.5t-2.5 -26.5q0 -20 11 -32.5t33 -12.5q16 0 31.5 4t31.5 9v-77q-16 -8 -41 -13.5t-49 -5.5z" />
    <glyph glyph-name="upsilon" unicode="&#x3c5;" horiz-adv-x="520" 
d="M199 -9q-60 0 -98 23t-50.5 69t1.5 112l73 344h100l-74 -347q-13 -61 1.5 -88.5t58.5 -27.5q60 0 101.5 49t61.5 146q6 30 10.5 64t6.5 70t2 70t-2 64h98q5 -37 4.5 -84t-4.5 -95.5t-14 -92.5q-18 -91 -56 -152.5t-93.5 -92.5t-126.5 -31z" />
    <glyph glyph-name="phi" unicode="&#x3c6;" horiz-adv-x="655" 
d="M167 -240l50 232q-49 7 -88.5 33.5t-62.5 73t-23 111.5q0 68 18.5 130t54.5 115t90 91l63 -57q-39 -30 -67 -73t-43 -94t-15 -106q0 -44 12 -74t32.5 -46.5t45.5 -21.5l63 299q12 55 33.5 94t56 60.5t85.5 21.5q47 0 80.5 -21.5t51.5 -61.5t18 -96q0 -55 -12 -108.5
t-37 -100.5t-62.5 -84t-87.5 -60t-113 -27l-48 -230h-95zM329 74q42 5 73.5 26t54.5 53t37 70t21 76.5t7 72.5q0 33 -7 54t-19 31t-28 10q-29 0 -47 -24t-30 -78z" />
    <glyph glyph-name="chi" unicode="&#x3c7;" horiz-adv-x="525" 
d="M359 -240q-38 0 -59.5 12t-33.5 38t-21 68l-98 509q-7 37 -17 55t-33 18q-9 0 -19 -2t-19 -5l17 83l26 6t32 3q29 0 48 -10t31.5 -33.5t20.5 -64.5l101 -515q6 -27 11 -44t15.5 -25t30.5 -8q11 0 21 1.5t20 3.5l-17 -81q-9 -3 -17.5 -5t-18 -3t-21.5 -1zM-60 -240
l269 413l23 -107l-185 -306h-107zM277 123l-23 105l189 311h107z" />
    <glyph glyph-name="psi" unicode="&#x3c8;" horiz-adv-x="654" 
d="M177 -240l49 231q-66 3 -109.5 28.5t-58.5 81.5t5 149l62 289h100l-62 -290q-13 -63 -7 -100t29 -53t58 -20l146 686h96l-145 -685q43 4 75.5 26.5t56 65t38.5 107.5q9 41 13.5 85t5.5 89t-2 89h99q3 -46 3 -91t-4.5 -88.5t-13.5 -83.5q-20 -95 -63 -156.5t-101 -92.5
t-125 -36l-49 -231h-96z" />
    <glyph glyph-name="omega" unicode="&#x3c9;" horiz-adv-x="720" 
d="M192 -10q-46 0 -76.5 20.5t-46.5 57.5t-18.5 85.5t7.5 104.5q14 68 35 119.5t48.5 91.5t61.5 70h99q-34 -31 -61.5 -71.5t-48 -93.5t-34.5 -120q-9 -51 -8.5 -91.5t15 -63t44.5 -22.5q26 0 45 15.5t32.5 45.5t22.5 72l31 149h96l-32 -149q-9 -44 -5.5 -73.5t19 -44.5
t40.5 -15q29 0 51.5 18.5t38.5 55t25 89.5q13 64 12 119.5t-9.5 101t-23.5 78.5h99q13 -32 23 -77.5t11 -102.5t-11 -124q-14 -75 -43 -130.5t-73.5 -85t-104.5 -29.5q-34 0 -59.5 11.5t-40.5 35t-17 60.5h-4q-18 -37 -38 -60.5t-45 -35t-57 -11.5z" />
    <glyph glyph-name="iotadieresis" unicode="&#x3ca;" horiz-adv-x="289" 
d="M156 -10q-41 0 -67.5 13t-39 37.5t-12.5 58.5q0 13 1.5 27t4.5 30l82 383h102l-81 -380q-2 -10 -3 -18.5t-1 -16.5q0 -27 13.5 -37.5t35.5 -10.5q15 0 29.5 2.5t28.5 6.5l-18 -84q-15 -5 -34 -8t-41 -3zM291 631q-20 0 -32 11t-12 33q0 27 15.5 46t43.5 19q20 0 31 -10.5
t11 -31.5q0 -30 -16 -48.5t-41 -18.5zM119 631q-20 0 -32.5 11t-12.5 33q0 27 15.5 46t43.5 19q14 0 23.5 -4.5t14.5 -14t5 -23.5q0 -30 -16 -48.5t-41 -18.5z" />
    <glyph glyph-name="upsilondieresis" unicode="&#x3cb;" horiz-adv-x="520" 
d="M199 -9q-60 0 -98 23t-50.5 69t1.5 112l73 344h100l-74 -347q-13 -61 1.5 -88.5t58.5 -27.5q60 0 101.5 49t61.5 146q6 30 10.5 64t6.5 70t2 70t-2 64h98q5 -37 4.5 -84t-4.5 -95.5t-14 -92.5q-18 -91 -56 -152.5t-93.5 -92.5t-126.5 -31zM408 631q-20 0 -32 11t-12 33
q0 27 15.5 46t43.5 19q20 0 31 -10.5t11 -31.5q0 -30 -16 -48.5t-41 -18.5zM236 631q-20 0 -32.5 11t-12.5 33q0 27 15.5 46t43.5 19q14 0 23.5 -4.5t14.5 -14t5 -23.5q0 -30 -16 -48.5t-41 -18.5z" />
    <glyph glyph-name="omicrontonos" unicode="&#x3cc;" horiz-adv-x="514" 
d="M216 -9q-54 0 -94.5 23t-62 66t-21.5 103q0 48 10 99t30.5 98t51 85t73 60.5t96.5 22.5q55 0 94.5 -23.5t61 -67t21.5 -104.5q0 -50 -10.5 -101.5t-30.5 -98t-51 -83t-73 -58t-95 -21.5zM224 75q27 0 50 15t41.5 42.5t31.5 63.5t20.5 77.5t7.5 84.5q0 29 -8.5 53
t-26 38.5t-47.5 14.5t-54 -17.5t-43 -46.5t-31.5 -66t-19 -76.5t-6.5 -76.5q0 -51 22 -78.5t63 -27.5zM291 602l2 12l82 158h119l-2 -10l-133 -160h-68z" />
    <glyph glyph-name="upsilontonos" unicode="&#x3cd;" horiz-adv-x="520" 
d="M199 -9q-60 0 -98 23t-50.5 69t1.5 112l73 344h100l-74 -347q-13 -61 1.5 -88.5t58.5 -27.5q60 0 101.5 49t61.5 146q6 30 10.5 64t6.5 70t2 70t-2 64h98q5 -37 4.5 -84t-4.5 -95.5t-14 -92.5q-18 -91 -56 -152.5t-93.5 -92.5t-126.5 -31zM284 606l2 12l82 158h119
l-2 -10l-133 -160h-68z" />
    <glyph glyph-name="omegatonos" unicode="&#x3ce;" horiz-adv-x="720" 
d="M192 -10q-46 0 -76.5 20.5t-46.5 57.5t-18.5 85.5t7.5 104.5q14 68 35 119.5t48.5 91.5t61.5 70h99q-34 -31 -61.5 -71.5t-48 -93.5t-34.5 -120q-9 -51 -8.5 -91.5t15 -63t44.5 -22.5q26 0 45 15.5t32.5 45.5t22.5 72l31 149h96l-32 -149q-9 -44 -5.5 -73.5t19 -44.5
t40.5 -15q29 0 51.5 18.5t38.5 55t25 89.5q13 64 12 119.5t-9.5 101t-23.5 78.5h99q13 -32 23 -77.5t11 -102.5t-11 -124q-14 -75 -43 -130.5t-73.5 -85t-104.5 -29.5q-34 0 -59.5 11.5t-40.5 35t-17 60.5h-4q-18 -37 -38 -60.5t-45 -35t-57 -11.5zM411 606l2 12l82 158h119
l-2 -10l-133 -160h-68z" />
    <glyph glyph-name="uni0401" unicode="&#x401;" horiz-adv-x="463" 
d="M22 0l151 714h336l-19 -90h-233l-44 -207h217l-19 -89h-217l-51 -238h234l-19 -90h-336zM400 853q5 26 19.5 40t34.5 14q26 0 37.5 -18t4.5 -48q-5 -25 -19 -39t-35 -14q-26 0 -37 17.5t-5 47.5zM240 853q6 26 20 40t35 14q25 0 36.5 -18t5.5 -48q-6 -25 -20 -39t-35 -14
q-26 0 -37 17.5t-5 47.5z" />
    <glyph glyph-name="uni0402" unicode="&#x402;" horiz-adv-x="609" 
d="M360 -10q-19 0 -38.5 3t-34.5 9v90q13 -6 27.5 -9t29.5 -3q36 0 61.5 21t39 57t13.5 79q0 51 -26 79t-78 28q-25 0 -51.5 -5.5t-50.5 -15.5l25 37l-76 -360h-103l133 624h-142l19 90h424l-19 -90h-180l-47 -224l-16 13q24 10 52 15t57 5q89 0 136.5 -51.5t47.5 -138.5
q0 -47 -13 -92.5t-39 -81.5t-64 -57.5t-87 -21.5z" />
    <glyph glyph-name="uni0403" unicode="&#x403;" horiz-adv-x="429" 
d="M23 0l151 714h328l-19 -90h-226l-132 -624h-102zM299 792l110 149h115v-9l-158 -151h-67v11z" />
    <glyph glyph-name="uni0404" unicode="&#x404;" horiz-adv-x="525" 
d="M290 -10q-72 0 -122 27.5t-78 79.5t-33 124t14 161q17 79 47.5 142t73.5 108t99.5 69t124.5 24q42 0 84 -9.5t78 -29.5l-42 -86q-30 17 -61 26t-64 9q-44 0 -81.5 -18t-67.5 -52.5t-51 -84t-35 -112.5q-19 -93 -10 -157.5t45.5 -97t98.5 -32.5q32 0 65.5 7.5t64.5 19.5
v-90q-30 -12 -68 -20t-82 -8zM145 323l18 89h280l-19 -89h-279z" />
    <glyph glyph-name="uni0405" unicode="&#x405;" horiz-adv-x="466" 
d="M163 -10q-49 0 -88.5 9.5t-70.5 26.5l6 100q31 -19 70 -32t85 -13q33 0 61 9.5t47.5 29.5t25.5 49q8 36 -2 62.5t-33.5 50t-56.5 48.5q-48 36 -75 72t-34.5 76.5t1.5 86.5q11 51 42 86.5t78 54.5t103 19q50 0 91.5 -11t75.5 -31l-41 -87q-28 16 -61 27t-67 11
q-29 0 -53.5 -10t-40.5 -28.5t-22 -46.5q-7 -36 3 -62t33 -47t54 -44q56 -39 82.5 -79.5t31 -80.5t-4.5 -83q-11 -53 -43.5 -89t-82 -55t-114.5 -19z" />
    <glyph glyph-name="uni0406" unicode="&#x406;" horiz-adv-x="260" 
d="M21 0l152 714h103l-151 -714h-104z" />
    <glyph glyph-name="uni0407" unicode="&#x407;" horiz-adv-x="262" 
d="M22 0l152 714h103l-152 -714h-103zM184 788q-25 0 -36 18t-5 47q6 26 19.5 39.5t34.5 13.5q25 0 36.5 -17.5t5.5 -47.5q-6 -25 -19.5 -39t-35.5 -14zM310 788q-26 0 -36.5 18t-4.5 47q5 26 19 39.5t35 13.5q25 0 36.5 -17.5t4.5 -47.5q-5 -25 -19 -39t-35 -14z" />
    <glyph glyph-name="uni0408" unicode="&#x408;" horiz-adv-x="260" 
d="M-79 -197q-22 0 -40.5 3.5t-31.5 8.5l1 89q15 -4 31 -7t34 -3q44 0 71.5 29t40.5 92l149 699h102l-151 -714q-14 -69 -42 -113t-68.5 -64t-95.5 -20z" />
    <glyph glyph-name="uni0409" unicode="&#x409;" horiz-adv-x="856" 
d="M21 -7q-16 0 -32 2.5t-29 6.5v93q12 -3 25 -5t24 -2q27 0 46.5 12t35.5 40.5t29 78.5l135 495h364l-57 -272h45q77 0 126.5 -30t69 -85t4.5 -130q-21 -98 -88.5 -147.5t-180.5 -49.5h-172l132 624h-168l-118 -434q-19 -69 -45.5 -112.5t-62.5 -64t-83 -20.5zM487 88h59
q67 0 105 29.5t51 93.5q15 69 -13.5 105.5t-96.5 36.5h-48z" />
    <glyph glyph-name="uni040A" unicode="&#x40a;" horiz-adv-x="842" 
d="M22 0l151 714h103l-60 -283h227l60 283h103l-61 -284h45q78 0 127.5 -29t69.5 -82.5t4 -126.5q-20 -95 -87.5 -143.5t-181.5 -48.5h-170l72 341h-227l-72 -341h-103zM473 88h58q68 0 106 29.5t50 87.5q13 65 -15 100.5t-96 35.5h-49z" />
    <glyph glyph-name="uni040B" unicode="&#x40b;" horiz-adv-x="623" 
d="M98 0l133 624h-142l19 90h423l-19 -90h-179l-48 -225l-15 13q30 12 59 16.5t58 4.5q97 0 144 -55t27 -151l-48 -227h-102l47 223q13 60 -11.5 90.5t-83.5 30.5q-25 0 -52.5 -5t-56.5 -17l26 40l-76 -362h-103z" />
    <glyph glyph-name="uni040C" unicode="&#x40c;" horiz-adv-x="533" 
d="M363 0l-117 361l-1 21l256 332h114l-274 -353v26l132 -387h-110zM22 0l151 714h103l-152 -714h-102zM170 327l19 90h130l-19 -90h-130zM354 792l110 149h115v-9l-158 -151h-67v11z" />
    <glyph glyph-name="uni040E" unicode="&#x40e;" horiz-adv-x="509" 
d="M67 -10q-17 0 -34.5 2.5t-33.5 8.5v91q15 -5 30.5 -7t27.5 -2q27 0 48 8.5t39.5 28t37 51t41.5 76.5l-14 -87l-111 554h104l55 -298q4 -17 6.5 -37.5t5 -40.5t4.5 -37q11 27 23 54.5t25 53.5l160 305h113l-294 -537q-35 -62 -68.5 -103.5t-72.5 -62.5t-92 -21zM359 777
q-69 0 -103.5 31t-34.5 90q0 3 0.5 8.5t1.5 11.5h83q-1 -6 -1 -9.5v-7.5q0 -30 13.5 -44.5t44.5 -14.5q37 0 57 19t29 57h85q-15 -69 -58.5 -105t-116.5 -36z" />
    <glyph glyph-name="uni040F" unicode="&#x40f;" horiz-adv-x="602" 
d="M163 -151l32 151h-173l151 714h103l-132 -624h239l132 624h103l-152 -714h-171l-32 -151h-100z" />
    <glyph glyph-name="uni0410" unicode="&#x410;" horiz-adv-x="529" 
d="M-56 0l353 715h120l54 -715h-102l-14 209h-202l-99 -209h-110zM195 299h156l-8 190q-2 31 -3.5 65.5t-0.5 62.5h-3q-11 -29 -25 -61t-30 -67z" />
    <glyph glyph-name="uni0411" unicode="&#x411;" horiz-adv-x="515" 
d="M22 0l151 714h351l-19 -90h-249l-41 -193h45q79 0 130 -28.5t70 -82t3 -127.5q-20 -97 -87.5 -145t-173.5 -48h-180zM142 89h65q62 0 101 27.5t51 87.5q15 68 -14.5 103.5t-99.5 35.5h-48z" />
    <glyph glyph-name="uni0412" unicode="&#x412;" horiz-adv-x="543" 
d="M23 0l151 714h158q76 0 125.5 -25t69.5 -70t7 -106q-13 -59 -50.5 -94t-100.5 -47v-4q41 -11 66 -38t34 -65.5t-1 -86.5q-17 -86 -82.5 -132t-172.5 -46h-204zM143 88h92q60 0 96 27t46 81q8 39 -1 69.5t-35 47.5t-69 17h-77zM213 415h83q57 0 90 25.5t42 73.5
q10 54 -18 83t-90 29h-63z" />
    <glyph glyph-name="uni0413" unicode="&#x413;" horiz-adv-x="429" 
d="M23 0l151 714h328l-19 -90h-226l-132 -624h-102z" />
    <glyph glyph-name="uni0414" unicode="&#x414;" horiz-adv-x="640" 
d="M-85 -151l51 241h62q33 37 59.5 76t48.5 87.5t39 114.5l94 346h373l-133 -624h87l-51 -241h-101l32 151h-428l-33 -151h-100zM148 90h259l113 534h-176l-69 -257q-18 -65 -37 -114.5t-41.5 -89t-48.5 -73.5z" />
    <glyph glyph-name="uni0415" unicode="&#x415;" horiz-adv-x="462" 
d="M22 0l151 714h336l-19 -90h-233l-44 -207h217l-19 -89h-217l-51 -238h234l-19 -90h-336z" />
    <glyph glyph-name="uni0416" unicode="&#x416;" horiz-adv-x="762" 
d="M-54 0l302 400l15 -68l-135 382h97l117 -333l-12 -30l-261 -351h-123zM281 0l151 714h100l-151 -714h-100zM275 327l19 90h270l-19 -90h-270zM594 0l-114 361l3 22l250 331h115l-272 -355l-2 29l128 -388h-108z" />
    <glyph glyph-name="uni0417" unicode="&#x417;" horiz-adv-x="491" 
d="M162 -10q-45 0 -88 8t-77 22v95q35 -17 77.5 -27t83.5 -10q47 0 80.5 12.5t55.5 38t29 62.5q9 43 -3.5 73.5t-43.5 47t-77 16.5h-75l19 86h77q42 0 74.5 10.5t54 33t27.5 58.5q7 37 -4 64t-38 41.5t-68 14.5q-29 0 -63 -8t-66 -23l-30 83q37 18 83 27.5t90 9.5
q71 0 120.5 -26t71.5 -72.5t9 -107.5q-9 -42 -31.5 -73t-57.5 -49.5t-81 -24.5l-1 -4q50 -11 79 -39t38.5 -69t-0.5 -89q-12 -59 -47 -99.5t-89.5 -61t-128.5 -20.5z" />
    <glyph glyph-name="uni0418" unicode="&#x418;" horiz-adv-x="626" 
d="M22 0l151 714h100l-72 -342q-7 -33 -16.5 -72t-18.5 -74.5t-16 -61.5h4l367 550h120l-151 -714h-100l72 338q6 27 13 57.5t14.5 60t14.5 55t12 43.5l-4 1l-369 -555h-121z" />
    <glyph glyph-name="uni0419" unicode="&#x419;" horiz-adv-x="626" 
d="M22 0l151 714h100l-72 -342q-7 -33 -16.5 -72t-18.5 -74.5t-16 -61.5h4l367 550h120l-151 -714h-100l72 338q6 27 13 57.5t14.5 60t14.5 55t12 43.5l-4 1l-369 -555h-121zM423 781q-69 0 -103.5 31t-34.5 90q0 3 0.5 8.5t1.5 11.5h83q-1 -6 -1 -9.5v-7.5
q0 -30 13.5 -44.5t44.5 -14.5q37 0 57 19t29 57h85q-15 -69 -58.5 -105t-116.5 -36z" />
    <glyph glyph-name="uni041A" unicode="&#x41a;" horiz-adv-x="533" 
d="M363 0l-117 361l-1 21l256 332h114l-274 -353v26l132 -387h-110zM22 0l151 714h103l-152 -714h-102zM170 327l19 90h130l-19 -90h-130z" />
    <glyph glyph-name="uni041B" unicode="&#x41b;" horiz-adv-x="618" 
d="M21 -7q-16 0 -32 2.5t-29 6.5v93q12 -3 23.5 -5t23.5 -2q26 0 46.5 12t37 40.5t29.5 78.5l135 495h379l-152 -714h-103l133 624h-182l-118 -434q-19 -69 -45.5 -112.5t-62.5 -64t-83 -20.5z" />
    <glyph glyph-name="uni041C" unicode="&#x41c;" horiz-adv-x="781" 
d="M22 0l151 714h141l44 -563h3l283 563h152l-150 -714h-100l89 420q7 32 14 61.5t13 55.5t12 47h-3l-297 -584h-90l-46 584h-4q-2 -21 -6.5 -49.5t-10 -59.5t-11.5 -61l-88 -414h-96z" />
    <glyph glyph-name="uni041D" unicode="&#x41d;" horiz-adv-x="614" 
d="M22 0l151 714h103l-63 -297h250l63 297h103l-151 -714h-103l69 327h-251l-68 -327h-103z" />
    <glyph glyph-name="uni041E" unicode="&#x41e;" horiz-adv-x="629" 
d="M282 -10q-54 0 -96 18t-71 51.5t-44 82t-15 110.5t16 135q36 164 115.5 251t197.5 87q54 0 96 -17.5t71 -51.5t43.5 -82.5t14.5 -110t-16 -135.5q-35 -163 -114 -250.5t-198 -87.5zM286 80q75 0 126 66t77 194q20 94 14 159.5t-37.5 100.5t-86.5 35q-72 0 -123 -66
t-79 -194q-19 -93 -13 -159t37.5 -101t84.5 -35z" />
    <glyph glyph-name="uni041F" unicode="&#x41f;" horiz-adv-x="604" 
d="M22 0l151 714h446l-151 -714h-103l132 624h-240l-132 -624h-103z" />
    <glyph glyph-name="uni0420" unicode="&#x420;" horiz-adv-x="513" 
d="M22 0l151 714h146q78 0 128.5 -30t70 -84.5t3.5 -129.5q-21 -98 -88 -148t-179 -50h-72l-57 -272h-103zM201 361h60q67 0 105 29.5t50 91.5q15 70 -13.5 106.5t-94.5 36.5h-51z" />
    <glyph glyph-name="uni0421" unicode="&#x421;" horiz-adv-x="523" 
d="M290 -10q-72 0 -122 28t-78 79.5t-33 123.5t14 161q17 80 47.5 143.5t74 108t99.5 68t123 23.5q43 0 84.5 -9.5t77.5 -29.5l-42 -86q-29 17 -60 26t-64 9q-44 0 -81.5 -18t-67 -52.5t-51 -84t-35.5 -112.5q-19 -92 -10 -156.5t45.5 -98t98.5 -33.5q32 0 64.5 8t63.5 20
v-91q-30 -11 -68 -19t-80 -8z" />
    <glyph glyph-name="uni0422" unicode="&#x422;" horiz-adv-x="458" 
d="M121 0l132 624h-165l20 90h431l-19 -90h-165l-132 -624h-102z" />
    <glyph glyph-name="uni0423" unicode="&#x423;" horiz-adv-x="509" 
d="M67 -10q-17 0 -34.5 2.5t-33.5 8.5v91q15 -5 30.5 -7t27.5 -2q27 0 48 8.5t39.5 28t37 51t41.5 76.5l-14 -87l-111 554h104l55 -298q4 -17 6.5 -37.5t5 -40.5t4.5 -37q11 27 23 54.5t25 53.5l160 305h113l-294 -537q-35 -62 -68.5 -103.5t-72.5 -62.5t-92 -21z" />
    <glyph glyph-name="uni0424" unicode="&#x424;" horiz-adv-x="750" 
d="M309 86q-91 1 -151.5 39t-84.5 106.5t-5 158.5q27 125 117.5 187t239.5 62l-17 -86q-102 0 -159.5 -41.5t-78.5 -132.5q-14 -66 -0.5 -112.5t53.5 -70.5t103 -24zM263 -10l27 124l9 40l91 425l8 35l24 111h100l-24 -113l-8 -34l-92 -427l-7 -36l-27 -125h-101zM365 86
l17 86q103 0 160 41.5t77 132.5q15 66 1.5 112.5t-53 71t-103.5 23.5l17 86q91 0 151.5 -38.5t84.5 -106.5t4 -159q-26 -125 -116 -187t-240 -62z" />
    <glyph glyph-name="uni0425" unicode="&#x425;" horiz-adv-x="496" 
d="M-54 0l289 412l-13 -81l-111 383h105l80 -304l-36 6l200 298h112l-269 -383l14 81l118 -412h-110l-82 331l36 -7l-221 -324h-112z" />
    <glyph glyph-name="uni0426" unicode="&#x426;" horiz-adv-x="615" 
d="M418 -151l33 151h-431l152 714h103l-133 -624h239l132 624h103l-133 -624h88l-51 -241h-102z" />
    <glyph glyph-name="uni0427" unicode="&#x427;" horiz-adv-x="577" 
d="M338 0l68 324l41 -25q-31 -11 -59.5 -18.5t-55 -11.5t-54.5 -4q-103 1 -148 59.5t-23 160.5l49 229h102l-49 -227q-14 -68 10.5 -100t88.5 -32q36 0 76.5 9.5t75.5 25.5l-50 -49l79 373h103l-151 -714h-103z" />
    <glyph glyph-name="uni0428" unicode="&#x428;" horiz-adv-x="870" 
d="M23 0l151 714h102l-132 -623h202l132 623h102l-131 -623h201l132 623h102l-151 -714h-710z" />
    <glyph glyph-name="uni0429" unicode="&#x429;" horiz-adv-x="881" 
d="M685 -151l32 151h-695l151 714h103l-133 -623h201l132 623h103l-132 -623h200l132 623h103l-132 -623h88l-52 -242h-101z" />
    <glyph glyph-name="uni042A" unicode="&#x42a;" horiz-adv-x="597" 
d="M105 0l131 624h-148l20 90h250l-57 -272h46q77 0 127 -30t69.5 -84.5t3.5 -129.5q-21 -99 -88.5 -148.5t-180.5 -49.5h-173zM226 88h60q67 0 105.5 29.5t51.5 93.5q14 69 -15 105.5t-96 36.5h-50z" />
    <glyph glyph-name="uni042B" unicode="&#x42b;" horiz-adv-x="751" 
d="M22 0l151 714h103l-58 -272h41q77 0 127 -30t69.5 -84.5t3.5 -129.5q-21 -99 -88.5 -148.5t-180.5 -49.5h-168zM143 88h56q67 0 105 29.5t51 93.5q14 69 -14.5 105.5t-96.5 36.5h-44zM512 0l151 714h103l-151 -714h-103z" />
    <glyph glyph-name="uni042C" unicode="&#x42c;" horiz-adv-x="514" 
d="M22 0l151 714h102l-57 -272h46q78 0 127.5 -30t69 -85t3.5 -130q-21 -98 -88.5 -147.5t-179.5 -49.5h-174zM143 88h61q67 0 105 29.5t51 92.5q14 70 -14.5 106.5t-96.5 36.5h-50z" />
    <glyph glyph-name="uni042D" unicode="&#x42d;" horiz-adv-x="533" 
d="M160 -10q-33 0 -72.5 5.5t-75.5 19.5v94q35 -14 72 -21t71 -7q51 0 89.5 17t67 50t48.5 81.5t33 113.5q20 96 12.5 161t-42.5 97.5t-98 32.5q-29 0 -60.5 -7t-67.5 -22l-26 86q39 17 83 25.5t86 8.5q92 0 150 -46.5t76.5 -134t-7.5 -211.5q-17 -83 -45.5 -146.5
t-70.5 -107.5t-97.5 -66.5t-125.5 -22.5zM137 322l19 90h265l-15 -90h-269z" />
    <glyph glyph-name="uni042E" unicode="&#x42e;" horiz-adv-x="856" 
d="M516 -10q-52 0 -93 18t-69.5 51.5t-42.5 82t-13.5 110.5t16.5 136q36 162 115 249.5t192 87.5q53 0 93.5 -17.5t68 -51.5t42 -82.5t14 -110t-16.5 -135.5q-35 -163 -113 -250.5t-193 -87.5zM22 0l151 714h103l-63 -297h139l-17 -90h-141l-69 -327h-103zM521 81
q69 0 118.5 64.5t77.5 193.5q20 95 14.5 161t-35 100.5t-82.5 34.5q-69 0 -118 -65.5t-77 -193.5q-20 -95 -14.5 -161t35 -100t81.5 -34z" />
    <glyph glyph-name="uni042F" unicode="&#x42f;" horiz-adv-x="534" 
d="M-43 0l236 327q-54 32 -74.5 84.5t-6.5 120.5q20 92 85 137t175 45h178l-151 -714h-103l61 291h-75l-202 -291h-123zM324 377h52l53 249h-69q-60 0 -95 -25t-48 -80q-9 -44 1.5 -76.5t37.5 -50t68 -17.5z" />
    <glyph glyph-name="uni0430" unicode="&#x430;" horiz-adv-x="518" 
d="M163 -10q-44 0 -73 22t-44 62t-15 94.5t14 118.5q13 57 34.5 104.5t50.5 82.5t66 54.5t80 19.5q30 0 52.5 -10.5t39.5 -29t26 -44.5h4l28 75h80l-114 -539h-79l8 85h-3q-30 -41 -69 -68t-86 -27zM201 74q33 0 62 25t51.5 69.5t36.5 102.5q10 41 11.5 76t-6 61.5t-24 40.5
t-42.5 14q-34 0 -62.5 -24t-49 -66.5t-33.5 -100.5q-13 -62 -11 -106.5t19 -68t48 -23.5z" />
    <glyph glyph-name="uni0431" unicode="&#x431;" horiz-adv-x="506" 
d="M221 -10q-48 0 -83.5 16t-57 47.5t-31 77t-6 104t18.5 128.5q16 78 41.5 142t63.5 113.5t92 81t128 43.5q27 5 62.5 10t70.5 10l8 -87q-40 -6 -75.5 -11t-62.5 -10q-47 -9 -81 -27.5t-58.5 -46.5t-43 -67t-33.5 -90h4q27 38 64.5 63t87.5 25q47 0 77.5 -20.5t47 -57
t18 -86t-10.5 -107.5q-25 -119 -87 -185t-154 -66zM224 73q51 0 85.5 45t52.5 133q12 58 7.5 98t-24.5 61t-55 21t-62.5 -20t-47 -58.5t-30.5 -94.5q-9 -43 -8.5 -77.5t10 -58.5t28 -36.5t44.5 -12.5z" />
    <glyph glyph-name="uni0432" unicode="&#x432;" horiz-adv-x="483" 
d="M225 -10q-63 0 -104.5 24t-62.5 65.5t-23.5 95.5t9.5 113q16 78 51 136.5t87 91t121 32.5q55 0 93 -20.5t55 -57t7 -85.5q-9 -43 -40 -70t-82 -38v-3q36 -10 57.5 -31.5t28 -51.5t-0.5 -66q-8 -38 -33 -68.5t-65.5 -48.5t-97.5 -18zM230 68q37 0 62 19.5t31 55.5
q8 44 -17.5 69t-81.5 25h-105l13 77h100q37 0 63.5 9t42.5 25.5t21 40.5q8 36 -9 58t-54 22q-34 0 -64 -20t-52.5 -63t-36.5 -112q-19 -96 1.5 -151t85.5 -55z" />
    <glyph glyph-name="uni0433" unicode="&#x433;" horiz-adv-x="414" 
d="M177 -10q-60 0 -99.5 23t-55 62t-5.5 89q9 40 33 67t57.5 46t69.5 34q33 14 57.5 27t39.5 28t20 35q6 29 -10.5 47t-55.5 18q-30 0 -59 -9t-56 -22l-27 77q34 16 74 26t83 10q58 0 95 -21.5t51 -58t4 -82.5q-8 -37 -30.5 -62.5t-54.5 -43.5t-69 -34q-53 -25 -83.5 -44.5
t-37.5 -51.5q-5 -22 2.5 -39.5t26 -28t48.5 -10.5q24 0 47 5t45.5 14t43.5 19v-85q-33 -16 -70.5 -25.5t-83.5 -9.5z" />
    <glyph glyph-name="uni0434" unicode="&#x434;" horiz-adv-x="511" 
d="M207 -10q-59 0 -96.5 24t-56.5 65.5t-20.5 94t9.5 109.5q15 67 45 119t75 81.5t103 29.5q32 0 56 -10t41 -25.5t28 -34.5h3q1 12 1 23.5v19.5q0 102 -29.5 150t-94.5 48q-23 0 -48 -5.5t-49 -17.5l-28 79q29 14 65 21.5t71 7.5q52 0 90 -18t63.5 -51t39.5 -77t18 -97.5
t-1.5 -112t-18.5 -120.5q-13 -60 -34.5 -114.5t-54 -97t-76.5 -67t-101 -24.5zM213 73q31 0 55 18.5t43 50t33 71t23.5 84t15.5 86.5l3 -64q-4 24 -12.5 44.5t-21.5 36t-31 24.5t-40 9q-34 0 -61 -20t-46.5 -57t-30.5 -89q-7 -36 -9 -70.5t5 -62.5t25 -44.5t49 -16.5z" />
    <glyph glyph-name="uni0435" unicode="&#x435;" horiz-adv-x="455" 
d="M217 -10q-52 0 -88 16.5t-57 46t-30.5 67.5t-8 81t10.5 87q16 74 50.5 133t86 93t118.5 34q53 0 88.5 -20.5t49.5 -57t4 -85.5q-10 -46 -45 -81t-95.5 -54t-147.5 -19h-31l14 76h24q51 0 90.5 9.5t64 29.5t30.5 51q5 19 0.5 35t-18 26t-37.5 10q-32 0 -60.5 -21.5
t-50.5 -64.5t-35 -108q-8 -40 -9.5 -72.5t4 -56.5t18 -40.5t32.5 -24.5t47 -8q32 0 64 9.5t70 27.5v-83q-35 -17 -71 -26.5t-82 -9.5z" />
    <glyph glyph-name="uni0436" unicode="&#x436;" horiz-adv-x="821" 
d="M39 -9q-17 0 -31.5 2t-26.5 5l25 83q10 -3 19 -5t19 -2q34 0 61 22.5t46 64t31 96.5q13 62 11 109t-19.5 73t-51.5 26q-10 0 -21 -1.5t-21 -5.5v80q10 4 26.5 6.5t33.5 2.5q50 0 82.5 -22.5t49.5 -62.5t18.5 -94.5t-12.5 -119.5q-17 -83 -50.5 -140.5t-81 -87
t-107.5 -29.5zM680 -9q-50 0 -83 22t-49.5 62.5t-17.5 95t12 118.5q18 84 51.5 141.5t81 87t106.5 29.5q18 0 32.5 -2t26.5 -6l-26 -82q-9 3 -18 4.5t-19 1.5q-34 0 -61 -22.5t-46 -63t-31 -96.5q-13 -62 -11 -109t19.5 -73t50.5 -26q11 0 22 2t21 5v-80q-11 -4 -27 -7
t-34 -2zM305 0l114 539h96l-115 -539h-95zM250 232l14 80h307l-15 -80h-306z" />
    <glyph glyph-name="uni0437" unicode="&#x437;" horiz-adv-x="421" 
d="M141 -10q-40 0 -76 7.5t-64 19.5v87q30 -14 64.5 -22.5t70.5 -8.5q33 0 58.5 7.5t42 24.5t21.5 42q9 42 -12.5 67t-73.5 25h-70l17 79h57q34 0 58 6.5t38 21t18 37.5q8 40 -14 61.5t-67 21.5q-24 0 -53 -6.5t-58 -18.5l-27 75q35 16 74 24t77 8q63 0 103.5 -21t57.5 -58
t7 -83q-9 -42 -36.5 -68.5t-75.5 -37.5l-1 -4q39 -11 58 -34.5t23 -53t-2 -60.5q-14 -63 -68.5 -100.5t-146.5 -37.5z" />
    <glyph glyph-name="uni0438" unicode="&#x438;" horiz-adv-x="519" 
d="M161 -10q-38 0 -64 14t-40 41.5t-15.5 67.5t9.5 92l72 334h100l-72 -337q-8 -41 -6.5 -69.5t15 -43t39.5 -14.5q33 0 62.5 23.5t53.5 70.5t38 117l54 253h100l-114 -539h-80l8 88h-4q-23 -33 -46.5 -55t-50.5 -32.5t-59 -10.5z" />
    <glyph glyph-name="uni0439" unicode="&#x439;" horiz-adv-x="519" 
d="M161 -10q-38 0 -64 14t-40 41.5t-15.5 67.5t9.5 92l72 334h100l-72 -337q-8 -41 -6.5 -69.5t15 -43t39.5 -14.5q33 0 62.5 23.5t53.5 70.5t38 117l54 253h100l-114 -539h-80l8 88h-4q-23 -33 -46.5 -55t-50.5 -32.5t-59 -10.5zM329 603q-68 0 -101.5 31.5t-33.5 88.5
q0 4 0.5 11t1.5 16h82q0 -8 -0.5 -13t-0.5 -11q0 -29 13 -43.5t43 -14.5q35 0 54.5 20t28.5 62h87q-17 -73 -60 -110t-114 -37z" />
    <glyph glyph-name="uni043A" unicode="&#x43a;" horiz-adv-x="467" 
d="M298 0l-94 270l2 17l193 252h113l-221 -279v49l115 -309h-108zM12 0l115 539h100l-114 -539h-101zM140 235l18 84h115l-18 -84h-115z" />
    <glyph glyph-name="uni043B" unicode="&#x43b;" horiz-adv-x="524" 
d="M6 -7q-14 0 -26 2.5t-21 4.5v87q8 -3 17 -4.5t18 -1.5q32 0 54 21.5t38 81.5l96 355h330l-115 -539h-101l98 455h-137l-81 -295q-16 -60 -39.5 -97t-55 -53.5t-75.5 -16.5z" />
    <glyph glyph-name="uni043C" unicode="&#x43c;" horiz-adv-x="682" 
d="M13 0l114 539h136l42 -409h3l217 409h144l-114 -539h-95l63 291q7 35 15.5 69t16.5 63h-3l-228 -423h-85l-46 423h-3q-4 -30 -10.5 -63t-12.5 -66l-61 -294h-93z" />
    <glyph glyph-name="uni043D" unicode="&#x43d;" horiz-adv-x="520" 
d="M12 0l115 539h100l-46 -219h179l47 219h100l-114 -539h-101l50 237h-179l-50 -237h-101z" />
    <glyph glyph-name="uni043E" unicode="&#x43e;" horiz-adv-x="507" 
d="M215 -10q-71 0 -115.5 37t-59 105.5t5.5 161.5q26 123 90 188.5t156 65.5q72 0 116.5 -36.5t58.5 -104t-6 -161.5q-27 -125 -90.5 -190.5t-155.5 -65.5zM222 72q50 0 85 46t54 140q21 102 1.5 154.5t-75.5 52.5q-51 0 -86.5 -45t-54.5 -139q-21 -101 -1 -155t77 -54z" />
    <glyph glyph-name="uni043F" unicode="&#x43f;" horiz-adv-x="519" 
d="M12 0l115 540h80l-10 -89h2q23 33 47 54.5t51 32t58 10.5q40 0 66.5 -15t40 -42.5t15.5 -65t-8 -83.5l-73 -342h-101l73 344q8 36 6 62t-14.5 40.5t-40.5 14.5q-36 0 -65 -25.5t-51.5 -72t-36.5 -110.5l-54 -253h-100z" />
    <glyph glyph-name="uni0440" unicode="&#x440;" horiz-adv-x="525" 
d="M-37 -238l165 777h81l-10 -88h4q35 50 73.5 73.5t82.5 23.5q38 0 64 -16t42 -44t22.5 -65.5t4 -81t-12.5 -90.5q-12 -57 -34 -104.5t-51.5 -82.5t-66 -54.5t-78.5 -19.5q-43 0 -74.5 22t-47.5 64h-4q-2 -24 -6.5 -53t-9.5 -52l-44 -209h-100zM234 75q34 0 62 24t49 67
t33 99q8 39 10 75t-4 63.5t-21 44t-42 16.5q-33 0 -62.5 -26t-51.5 -70t-34 -100q-8 -39 -10.5 -73.5t4 -61.5t23 -42.5t44.5 -15.5z" />
    <glyph glyph-name="uni0441" unicode="&#x441;" horiz-adv-x="416" 
d="M215 -10q-56 0 -95.5 21t-61 60t-25.5 94t11 123q17 77 50.5 135.5t85 91.5t120.5 33q34 0 65.5 -7t58.5 -20l-33 -82q-18 10 -41 17t-49 7q-41 0 -72 -23t-51.5 -64.5t-32.5 -97.5q-10 -50 -10 -88t11 -64t32.5 -39t53.5 -13q25 0 52 7.5t56 20.5v-83q-27 -13 -58.5 -21
t-66.5 -8z" />
    <glyph glyph-name="uni0442" unicode="&#x442;" horiz-adv-x="785" 
d="M12 0l114 539h81l-10 -88h4q18 27 40 49t50 35t63 13q48 0 76 -25t36 -73h3q18 27 41 49.5t51.5 35.5t65.5 13q38 0 63.5 -15t39 -42.5t14.5 -66t-9 -85.5l-72 -339h-101l72 340q8 37 7.5 64.5t-13 43t-39.5 15.5q-24 0 -45.5 -12.5t-40 -37t-33 -59t-23.5 -78.5
l-59 -276h-100l72 342q6 24 7.5 45.5t-2.5 38.5t-15.5 27t-33.5 10q-24 0 -46.5 -14t-42 -40.5t-35 -65.5t-25.5 -89l-54 -254h-101z" />
    <glyph glyph-name="uni0443" unicode="&#x443;" horiz-adv-x="449" 
d="M-18 -240q-17 0 -33 3t-28 7v86q13 -4 26.5 -6.5t27.5 -2.5q38 0 63 23.5t47 65.5l32 62l-58 541h100l21 -269q3 -26 4 -55t2 -56t0 -48h3q7 18 17 43t21 51.5t21 45.5l138 288h108l-318 -629q-24 -48 -52 -82t-62 -51t-80 -17z" />
    <glyph glyph-name="uni0444" unicode="&#x444;" horiz-adv-x="636" 
d="M161 -240l54 257l8 30l94 444l6 32l50 237h99l-51 -238l-7 -31l-94 -444l-6 -31l-53 -256h-100zM238 -8q-59 4 -102 28t-68 65t-31.5 94.5t6.5 115.5q17 77 57.5 133t104 87t148.5 31l-17 -83q-51 2 -90 -19.5t-65 -61.5t-38 -96q-10 -45 -7.5 -82.5t16 -66.5t40 -45
t63.5 -17zM283 -9l17 83q52 0 90.5 21.5t64.5 61.5t38 95q10 45 7.5 82.5t-16.5 66t-40 45t-63 17.5l17 82q59 -3 102 -27.5t68 -65.5t31.5 -95t-7.5 -116q-12 -56 -37.5 -102t-64.5 -79t-91 -50.5t-116 -18.5z" />
    <glyph glyph-name="uni0445" unicode="&#x445;" horiz-adv-x="435" 
d="M-51 0l239 314l-13 -79l-107 304h104l72 -229l-40 6l157 223h115l-231 -303l12 79l114 -315h-105l-78 239l40 -6l-165 -233h-114z" />
    <glyph glyph-name="uni0446" unicode="&#x446;" horiz-adv-x="539" 
d="M346 -132l39 176l21 -52q-28 3 -47 12.5t-28.5 29t-10.5 50.5h-3q-23 -31 -47 -52.5t-50.5 -31.5t-58.5 -10q-38 0 -64 14t-40 41.5t-15.5 67.5t9.5 92l72 334h101l-72 -337q-9 -41 -7.5 -69.5t15 -43t39.5 -14.5q27 0 51 15t43.5 42.5t34.5 66t25 86.5l54 254h100
l-81 -381q-6 -30 -5 -47.5t10 -25.5t26 -8q9 0 17 1.5t15 3.5l-45 -214h-98z" />
    <glyph glyph-name="uni0447" unicode="&#x447;" horiz-adv-x="506" 
d="M279 0l34 161q5 24 12 49t13 45h-4q-26 -35 -63 -56t-83 -21q-43 0 -70 16t-39.5 45t-12.5 67t9 83l32 150h101l-31 -149q-7 -34 -8.5 -62.5t11.5 -46.5t48 -18q31 0 59 19t51 61t39 113l17 83h101l-115 -539h-101z" />
    <glyph glyph-name="uni0448" unicode="&#x448;" horiz-adv-x="785" 
d="M160 -10q-39 0 -64.5 15t-39 43t-14.5 67t9 87l72 337h101l-72 -339q-9 -39 -8 -67t14 -43t39 -15q33 0 60.5 24t49 68t34.5 104l57 268h101l-73 -339q-6 -34 -7 -62.5t11 -45.5t40 -17q24 0 46 14.5t41.5 41.5t35 66t26.5 88l53 254h101l-115 -539h-79l8 86h-4
q-17 -26 -39 -48t-49.5 -35t-61.5 -13q-24 0 -43 6.5t-33 19.5t-23 31.5t-13 41.5h-3q-18 -26 -41.5 -49t-52 -36.5t-64.5 -13.5z" />
    <glyph glyph-name="uni0449" unicode="&#x449;" horiz-adv-x="805" 
d="M612 -132l39 176l21 -52q-28 3 -47 12.5t-28.5 29t-10.5 49.5h-4q-18 -25 -39.5 -46t-48.5 -34t-61 -13q-24 0 -43 6.5t-33 19.5t-23 31.5t-13 41.5h-3q-18 -26 -41.5 -49t-52 -36.5t-64.5 -13.5q-38 0 -64 15t-39 43t-14.5 67t8.5 87l72 337h101l-72 -339q-9 -39 -8 -67
t14 -43t39 -15q33 0 60.5 24t49 68t34.5 104l57 268h101l-72 -339q-7 -34 -8 -62.5t11 -45.5t40 -17q24 0 46 14.5t41.5 41.5t35 66t26.5 88l53 254h101l-81 -381q-6 -30 -5 -47.5t9.5 -25.5t25.5 -8q8 0 16.5 1.5t16.5 3.5l-45 -214h-98z" />
    <glyph glyph-name="uni044A" unicode="&#x44a;" horiz-adv-x="545" 
d="M286 -10q-103 0 -143 59t-15 174l49 231h-130l18 85h231l-69 -319q-18 -81 -2 -116.5t69 -35.5q42 0 67 21.5t34 66.5q10 51 -11 78.5t-70 27.5q-25 0 -54 -4t-50 -10l17 78q24 8 53 11.5t56 3.5q49 0 83 -16t54 -42.5t25 -62t-3 -75.5q-16 -75 -69.5 -115t-139.5 -40z
" />
    <glyph glyph-name="uni044B" unicode="&#x44b;" horiz-adv-x="685" 
d="M212 -10q-100 0 -139.5 59t-15.5 175l68 315h101l-69 -317q-12 -55 -9 -89.5t21.5 -49.5t52.5 -15q38 0 62 21.5t33 65.5q10 52 -10 80t-70 28q-21 0 -48.5 -4t-47.5 -10l17 79q22 6 50 10t52 4q48 0 82 -15.5t53.5 -42t24.5 -62.5t-3 -76q-16 -77 -69 -116.5t-136 -39.5
zM458 0l114 539h101l-115 -539h-100z" />
    <glyph glyph-name="uni044C" unicode="&#x44c;" horiz-adv-x="473" 
d="M213 -10q-103 0 -143 58.5t-15 174.5l67 316h101l-68 -319q-18 -81 -2.5 -116.5t69.5 -35.5q41 0 66 21.5t34 65.5q10 53 -11 80t-72 27q-23 0 -52 -4t-50 -10l17 78q24 8 53 11.5t56 3.5q62 0 101.5 -24.5t55 -68.5t2.5 -103q-16 -76 -69.5 -115.5t-139.5 -39.5z" />
    <glyph glyph-name="uni044D" unicode="&#x44d;" horiz-adv-x="428" 
d="M124 -10q-34 0 -64 7.5t-49 16.5v86q27 -13 54 -19.5t54 -6.5q62 0 101 39t58 128q11 53 11.5 94t-10 70t-32 44t-53.5 15q-22 0 -46.5 -6.5t-47.5 -17.5l-27 77q29 14 63 22.5t71 8.5q63 0 103 -25.5t59.5 -69.5t21.5 -101t-12 -121q-15 -74 -48 -128t-84 -83.5
t-123 -29.5zM91 237l16 78h197l-14 -78h-199z" />
    <glyph glyph-name="uni044E" unicode="&#x44e;" horiz-adv-x="711" 
d="M428 -10q-67 0 -110 37.5t-56 106t6 160.5q27 123 88 188.5t150 65.5q69 0 111 -36.5t55.5 -104t-6.5 -160.5q-26 -126 -87.5 -191.5t-150.5 -65.5zM14 0l115 539h100l-46 -219h108l-15 -83h-111l-50 -237h-101zM434 73q49 0 80.5 45.5t51.5 139.5q21 102 3.5 154.5
t-69.5 52.5q-47 0 -80 -45.5t-52 -137.5q-14 -67 -11 -114t23 -71t54 -24z" />
    <glyph glyph-name="uni044F" unicode="&#x44f;" horiz-adv-x="477" 
d="M-41 0l186 238q-45 21 -65.5 63.5t-9.5 97.5q15 66 68 103t140 37h187l-114 -539h-100l45 210h-59l-160 -210h-118zM252 288h60l37 172h-78q-41 0 -67 -18.5t-34 -55.5q-6 -29 1.5 -51.5t28.5 -34.5t52 -12z" />
    <glyph glyph-name="uni0451" unicode="&#x451;" horiz-adv-x="455" 
d="M217 -10q-52 0 -88 16.5t-57 46t-30.5 67.5t-8 81t10.5 87q16 74 50.5 133t86 93t118.5 34q53 0 88.5 -20.5t49.5 -57t4 -85.5q-10 -46 -45 -81t-95.5 -54t-147.5 -19h-31l14 76h24q51 0 90.5 9.5t64 29.5t30.5 51q5 19 0.5 35t-18 26t-37.5 10q-32 0 -60.5 -21.5
t-50.5 -64.5t-35 -108q-8 -40 -9.5 -72.5t4 -56.5t18 -40.5t32.5 -24.5t47 -8q32 0 64 9.5t70 27.5v-83q-35 -17 -71 -26.5t-82 -9.5zM403 618q-26 0 -38.5 16.5t-6.5 45.5q5 25 19.5 38.5t35.5 13.5q26 0 38 -17t7 -46q-5 -25 -19 -38t-36 -13zM234 618q-26 0 -38 16.5
t-7 45.5q6 25 20 38.5t35 13.5q27 0 39 -17t6 -46q-4 -25 -18.5 -38t-36.5 -13z" />
    <glyph glyph-name="uni0452" unicode="&#x452;" horiz-adv-x="523" 
d="M221 -240q-20 0 -38 3t-30 8v85q13 -4 26 -6.5t26 -2.5q23 0 39 11t27 34t18 56l79 373q9 40 7 67t-15.5 41t-39.5 14q-30 0 -59.5 -22t-54.5 -68t-40 -117l-51 -236h-101l127 600h-67l16 73h67l19 87h100l-19 -87h138l-16 -73h-137l-10 -48q-3 -12 -5.5 -24t-5.5 -23
l-6 -22t-6.5 -22t-7.5 -22h4q18 26 40 46.5t49.5 32.5t62.5 12q41 0 67.5 -16t39.5 -44t13.5 -67t-9.5 -85l-81 -381q-11 -54 -30 -93.5t-51.5 -61.5t-84.5 -22z" />
    <glyph glyph-name="uni0453" unicode="&#x453;" horiz-adv-x="414" 
d="M177 -10q-60 0 -99.5 23t-55 62t-5.5 89q9 40 33 67t57.5 46t69.5 34q33 14 57.5 27t39.5 28t20 35q6 29 -10.5 47t-55.5 18q-30 0 -59 -9t-56 -22l-27 77q34 16 74 26t83 10q58 0 95 -21.5t51 -58t4 -82.5q-8 -37 -30.5 -62.5t-54.5 -43.5t-69 -34q-53 -25 -83.5 -44.5
t-37.5 -51.5q-5 -22 2.5 -39.5t26 -28t48.5 -10.5q24 0 47 5t45.5 14t43.5 19v-85q-33 -16 -70.5 -25.5t-83.5 -9.5zM213 617l110 149h115v-9l-158 -151h-67v11z" />
    <glyph glyph-name="uni0454" unicode="&#x454;" horiz-adv-x="417" 
d="M214 -10q-58 0 -97 21.5t-60 61.5t-24 94.5t11 120.5q16 76 50 135t85.5 92t119.5 33q35 0 66.5 -7t59.5 -20l-33 -82q-19 11 -42.5 18t-49.5 7q-41 0 -72 -24t-51.5 -65.5t-31.5 -96.5q-10 -48 -10.5 -85.5t10 -64t32 -40.5t54.5 -14q27 0 54 7.5t56 20.5v-83
q-27 -13 -59 -21t-68 -8zM120 236l17 79h201l-17 -79h-201z" />
    <glyph glyph-name="uni0455" unicode="&#x455;" horiz-adv-x="396" 
d="M139 -10q-45 0 -80 8.5t-61 22.5v92q26 -17 61.5 -29t71.5 -12q42 0 67.5 16t31.5 44q6 24 -2 42.5t-26.5 35.5t-45.5 35q-40 28 -63 56.5t-30 59.5t1 67q12 56 57.5 88t117.5 32q45 0 83.5 -10.5t68.5 -28.5l-35 -77q-25 14 -53.5 24t-62.5 10q-30 0 -50.5 -13.5
t-25.5 -37.5q-5 -23 4 -41t27 -32.5t38 -29.5q46 -31 69.5 -60.5t30.5 -61.5t-2 -72q-13 -61 -63 -94.5t-129 -33.5z" />
    <glyph glyph-name="uni0456" unicode="&#x456;" horiz-adv-x="243" 
d="M14 0l114 539h101l-115 -539h-100zM204 621q-21 0 -33.5 8.5t-16.5 23.5t-1 35q6 27 22 41.5t40 14.5q22 0 34.5 -9t17 -24t0.5 -35q-5 -27 -21.5 -41t-41.5 -14z" />
    <glyph glyph-name="uni0457" unicode="&#x457;" horiz-adv-x="239" 
d="M12 0l115 539h100l-115 -539h-100zM143 621q-25 0 -35.5 18.5t-4.5 48.5q6 28 19 42t33 14q25 0 36 -18t4 -50q-5 -27 -18 -41t-34 -14zM259 621q-25 0 -35.5 18.5t-3.5 48.5q5 28 18.5 42t33.5 14q25 0 36 -18t4 -50q-6 -26 -19.5 -40.5t-33.5 -14.5z" />
    <glyph glyph-name="uni0458" unicode="&#x458;" horiz-adv-x="240" 
d="M-65 -240q-18 0 -35.5 2.5t-29.5 7.5v86q12 -5 25.5 -7t25.5 -2q22 0 37 10t25.5 32t18.5 58l125 592h100l-128 -602q-11 -53 -29.5 -92.5t-50.5 -62t-84 -22.5zM203 621q-22 0 -34.5 8.5t-16.5 23.5t0 35q5 27 21 41.5t41 14.5q21 0 33.5 -9t17 -24t0.5 -35
q-5 -27 -21 -41t-41 -14z" />
    <glyph glyph-name="uni0459" unicode="&#x459;" horiz-adv-x="746" 
d="M7 -8q-15 0 -27 2.5t-21 5.5v87q8 -3 17 -4.5t18 -1.5q32 0 54 21t38 82l96 355h319l-68 -321q-17 -79 -1.5 -114.5t67.5 -35.5q40 0 64 21.5t32 67.5q11 51 -10 78t-71 27q-23 0 -50 -4t-48 -10l17 78q23 7 51.5 11t53.5 4q60 0 99.5 -25t55 -69t3.5 -102
q-17 -79 -71 -117t-135 -38q-100 0 -140.5 59t-16.5 174l51 232h-127l-81 -295q-16 -60 -39 -97t-55 -54t-75 -17z" />
    <glyph glyph-name="uni045A" unicode="&#x45a;" horiz-adv-x="734" 
d="M481 -10q-102 0 -141.5 59.5t-14.5 175.5l67 314h101l-70 -325q-16 -76 0 -111t67 -35q38 0 61.5 21t31.5 62q10 49 -10.5 74t-68.5 25h-107l-33 -1h-198l-53 -249h-101l115 539h100l-44 -208h196l34 -1h112q61 0 100.5 -23.5t54.5 -66.5t3 -100q-16 -75 -69 -112.5
t-133 -37.5z" />
    <glyph glyph-name="uni045B" unicode="&#x45b;" horiz-adv-x="524" 
d="M14 0l128 600h-70l16 74h69l19 86h100l-19 -86h136l-16 -74h-135q-9 -38 -16.5 -67.5t-13 -51.5t-10.5 -38h4q22 32 45 52t49.5 30.5t56.5 10.5q43 0 69.5 -16.5t39 -46.5t12.5 -70.5t-10 -87.5l-67 -315h-101l67 316q7 27 8.5 51t-3 42t-16.5 28.5t-35 10.5
q-32 0 -62 -22t-54 -68t-39 -116l-51 -242h-101z" />
    <glyph glyph-name="uni045C" unicode="&#x45c;" horiz-adv-x="467" 
d="M298 0l-94 270l2 17l193 252h113l-221 -279v49l115 -309h-108zM12 0l115 539h100l-114 -539h-101zM140 235l18 84h115l-18 -84h-115zM279 617l110 149h115v-9l-158 -151h-67v11z" />
    <glyph glyph-name="uni045E" unicode="&#x45e;" horiz-adv-x="449" 
d="M-18 -240q-17 0 -33 3t-28 7v86q13 -4 26.5 -6.5t27.5 -2.5q38 0 63 23.5t47 65.5l32 62l-58 541h100l21 -269q3 -26 4 -55t2 -56t0 -48h3q7 18 17 43t21 51.5t21 45.5l138 288h108l-318 -629q-24 -48 -52 -82t-62 -51t-80 -17zM289 603q-68 0 -101.5 31.5t-33.5 88.5
q0 4 0.5 11t1.5 16h82q0 -8 -0.5 -13t-0.5 -11q0 -29 13 -43.5t43 -14.5q35 0 54.5 20t28.5 62h87q-17 -73 -60 -110t-114 -37z" />
    <glyph glyph-name="uni045F" unicode="&#x45f;" horiz-adv-x="519" 
d="M120 -205l33 144l84 30h18l-38 -174h-97zM161 -10q-38 0 -64 14t-40 41.5t-15.5 67.5t9.5 92l72 334h100l-72 -337q-8 -41 -6.5 -69.5t15 -43t39.5 -14.5q33 0 62.5 23.5t53.5 70.5t38 117l54 253h100l-114 -539h-80l8 88h-4q-23 -33 -46.5 -55t-50.5 -32.5t-59 -10.5z
" />
    <glyph glyph-name="uni0490" unicode="&#x490;" horiz-adv-x="436" 
d="M23 0l151 714h238l32 148h96l-51 -237h-232l-133 -625h-101z" />
    <glyph glyph-name="uni0491" unicode="&#x491;" horiz-adv-x="371" 
d="M13 0l115 539h181l33 153h97l-50 -234h-179l-97 -458h-100z" />
    <glyph glyph-name="Wgrave" unicode="&#x1e80;" horiz-adv-x="794" 
d="M108 0l-11 714h99l1 -423q1 -41 -1 -82t-5 -75h3q13 37 30 80.5t34 81.5l182 418h96l5 -413q1 -28 0.5 -57.5t-1 -57.5t-1.5 -52h3q9 26 18.5 53.5t20 54.5t20.5 53l173 419h106l-307 -714h-112l-6 421q0 23 -0.5 45.5t0 44t0.5 42.5h-2q-10 -30 -21.5 -59.5t-27.5 -66.5
l-185 -427h-111zM499 783q-17 19 -37.5 46t-38.5 55t-27 49v10h108q7 -23 15.5 -48.5t19.5 -50.5t23 -50v-11h-63z" />
    <glyph glyph-name="wgrave" unicode="&#x1e81;" horiz-adv-x="677" 
d="M71 0l-11 539h96l1 -278q0 -43 -1.5 -80.5t-4.5 -68.5h4q6 20 15 45t19 48.5t17 40.5l126 293h110l4 -282q0 -33 -0.5 -72.5t-2.5 -74.5h3q8 24 18 52t21 57t23 57l111 263h102l-238 -539h-116l-2 294v44.5t1 46t2 47.5h-4q-7 -20 -14.5 -40t-16 -40.5t-18.5 -44.5
l-131 -307h-113zM398 606q-17 19 -37.5 46t-38.5 55t-27 49v10h108q7 -23 15.5 -48.5t19.5 -50.5t23 -50v-11h-63z" />
    <glyph glyph-name="Wacute" unicode="&#x1e82;" horiz-adv-x="794" 
d="M108 0l-11 714h99l1 -423q1 -41 -1 -82t-5 -75h3q13 37 30 80.5t34 81.5l182 418h96l5 -413q1 -28 0.5 -57.5t-1 -57.5t-1.5 -52h3q9 26 18.5 53.5t20 54.5t20.5 53l173 419h106l-307 -714h-112l-6 421q0 23 -0.5 45.5t0 44t0.5 42.5h-2q-10 -30 -21.5 -59.5t-27.5 -66.5
l-185 -427h-111zM444 793q20 22 39.5 48t38 52.5t32.5 48.5h114v-9q-10 -13 -29.5 -33.5t-43 -43t-46 -42t-39.5 -32.5h-66v11z" />
    <glyph glyph-name="wacute" unicode="&#x1e83;" horiz-adv-x="677" 
d="M71 0l-11 539h96l1 -278q0 -43 -1.5 -80.5t-4.5 -68.5h4q6 20 15 45t19 48.5t17 40.5l126 293h110l4 -282q0 -33 -0.5 -72.5t-2.5 -74.5h3q8 24 18 52t21 57t23 57l111 263h102l-238 -539h-116l-2 294v44.5t1 46t2 47.5h-4q-7 -20 -14.5 -40t-16 -40.5t-18.5 -44.5
l-131 -307h-113zM342 617q20 22 39.5 48t38 52.5t32.5 48.5h114v-9q-10 -13 -29.5 -33.5t-43 -43t-46 -42t-39.5 -32.5h-66v11z" />
    <glyph glyph-name="Wdieresis" unicode="&#x1e84;" horiz-adv-x="794" 
d="M108 0l-11 714h99l1 -423q1 -41 -1 -82t-5 -75h3q13 37 30 80.5t34 81.5l182 418h96l5 -413q1 -28 0.5 -57.5t-1 -57.5t-1.5 -52h3q9 26 18.5 53.5t20 54.5t20.5 53l173 419h106l-307 -714h-112l-6 421q0 23 -0.5 45.5t0 44t0.5 42.5h-2q-10 -30 -21.5 -59.5t-27.5 -66.5
l-185 -427h-111zM602 807q-20 0 -32 11t-12 33q0 27 15.5 46t43.5 19q20 0 31 -10.5t11 -31.5q0 -30 -16 -48.5t-41 -18.5zM430 807q-20 0 -32.5 11t-12.5 33q0 27 15.5 46t43.5 19q14 0 23.5 -4.5t14.5 -14t5 -23.5q0 -30 -16 -48.5t-41 -18.5z" />
    <glyph glyph-name="wdieresis" unicode="&#x1e85;" horiz-adv-x="677" 
d="M71 0l-11 539h96l1 -278q0 -43 -1.5 -80.5t-4.5 -68.5h4q6 20 15 45t19 48.5t17 40.5l126 293h110l4 -282q0 -33 -0.5 -72.5t-2.5 -74.5h3q8 24 18 52t21 57t23 57l111 263h102l-238 -539h-116l-2 294v44.5t1 46t2 47.5h-4q-7 -20 -14.5 -40t-16 -40.5t-18.5 -44.5
l-131 -307h-113zM492 628q-20 0 -32 11t-12 33q0 27 15.5 46t43.5 19q20 0 31 -10.5t11 -31.5q0 -30 -16 -48.5t-41 -18.5zM320 628q-20 0 -32.5 11t-12.5 33q0 27 15.5 46t43.5 19q14 0 23.5 -4.5t14.5 -14t5 -23.5q0 -30 -16 -48.5t-41 -18.5z" />
    <glyph glyph-name="Ygrave" unicode="&#x1ef2;" horiz-adv-x="471" 
d="M123 0l58 271l-91 443h103l59 -329l196 329h113l-279 -443l-57 -271h-102zM335 783q-17 19 -37.5 46t-38.5 55t-27 49v10h108q7 -23 15.5 -48.5t19.5 -50.5t23 -50v-11h-63z" />
    <glyph glyph-name="ygrave" unicode="&#x1ef3;" horiz-adv-x="437" 
d="M-22 -240q-22 0 -37.5 2.5t-27.5 6.5l4 84q13 -4 26.5 -6.5t28.5 -2.5q37 0 61.5 24t46.5 67l31 63l-57 541h99l21 -270q3 -26 4.5 -55t2 -56.5t-0.5 -47.5h3q7 18 17 43t21 51t21 46l139 289h106l-317 -629q-25 -49 -52 -82.5t-61 -50.5t-79 -17zM271 606
q-17 19 -37.5 46t-38.5 55t-27 49v10h108q7 -23 15.5 -48.5t19.5 -50.5t23 -50v-11h-63z" />
    <glyph glyph-name="endash" unicode="&#x2013;" horiz-adv-x="471" 
d="M24 227l18 85h401l-18 -85h-401z" />
    <glyph glyph-name="emdash" unicode="&#x2014;" horiz-adv-x="940" 
d="M24 227l18 85h870l-17 -85h-871z" />
    <glyph glyph-name="uni2015" unicode="&#x2015;" horiz-adv-x="947" 
d="M24 227l18 85h870l-17 -85h-871z" />
    <glyph glyph-name="underscoredbl" unicode="&#x2017;" horiz-adv-x="400" 
d="M-73 -103l13 61h402l-13 -61h-402zM-99 -229l14 61h402l-14 -61h-402z" />
    <glyph glyph-name="quoteleft" unicode="&#x2018;" horiz-adv-x="186" 
d="M59 478q16 38 36 79t43 81t46 76h76q-12 -28 -25.5 -60t-26 -65.5t-24.5 -64.5t-20 -57h-102z" />
    <glyph glyph-name="quoteright" unicode="&#x2019;" horiz-adv-x="186" 
d="M57 467q18 41 35.5 83.5t33 85t27.5 78.5h102l4 -11q-16 -37 -36.5 -77.5t-43 -81t-45.5 -77.5h-77z" />
    <glyph glyph-name="quotesinglbase" unicode="&#x201a;" horiz-adv-x="239" 
d="M-49 -130q16 38 34 81.5t34.5 87t27.5 77.5h103l3 -10q-15 -38 -36 -78.5t-43.5 -80.5t-45.5 -77h-77z" />
    <glyph glyph-name="quotereversed" unicode="&#x201b;" horiz-adv-x="186" 
d="M138 467q-9 36 -15.5 76.5t-11 81t-6.5 78.5l8 11h96q-1 -30 -1.5 -62t-0.5 -64.5t1.5 -63t3.5 -57.5h-74z" />
    <glyph glyph-name="quotedblleft" unicode="&#x201c;" horiz-adv-x="370" 
d="M244 478q16 39 36.5 79.5t43.5 80.5t45 76h77q-17 -38 -35 -82t-34 -86.5t-28 -78.5h-102zM60 478q16 39 36.5 79.5t43 81t45.5 75.5h76q-12 -28 -25.5 -60t-26.5 -65.5t-24.5 -64.5t-19.5 -57h-102z" />
    <glyph glyph-name="quotedblright" unicode="&#x201d;" horiz-adv-x="370" 
d="M241 467q17 40 34.5 83t33 85t28.5 79h102l4 -11q-15 -37 -36 -77.5t-44 -81t-46 -77.5h-76zM56 467q18 40 35.5 83t33 85t27.5 79h102l4 -11q-16 -37 -36 -77.5t-43 -81t-46 -77.5h-77z" />
    <glyph glyph-name="quotedblbase" unicode="&#x201e;" horiz-adv-x="413" 
d="M129 -131q17 38 34.5 82t34 87.5t27.5 77.5h102l4 -11q-16 -37 -36.5 -77.5t-43 -81t-45.5 -77.5h-77zM-55 -131q17 40 35 83.5t33.5 86t27.5 77.5h102l4 -11q-16 -37 -36.5 -77.5t-43 -81t-46.5 -77.5h-76z" />
    <glyph glyph-name="dagger" unicode="&#x2020;" horiz-adv-x="454" 
d="M109 0l127 491l-141 -14l19 91l135 -14l22 206h106l-66 -206l149 14l-19 -91l-143 14l-83 -491h-106z" />
    <glyph glyph-name="daggerdbl" unicode="&#x2021;" horiz-adv-x="454" 
d="M111 0l62 186l-147 -14l19 91l142 -13l10 134l45 126l-147 -13l20 91l141 -15l17 187h107l-62 -187l149 15l-20 -91l-143 13l-8 -126l-47 -134l149 13l-20 -91l-143 14l-17 -186h-107z" />
    <glyph glyph-name="bullet" unicode="&#x2022;" horiz-adv-x="370" 
d="M203 229q-54 0 -88 33t-34 103q0 47 15 77.5t43 44.5t64 14t63.5 -14.5t43 -44.5t15.5 -77q0 -46 -15.5 -76.5t-43 -45t-63.5 -14.5z" />
    <glyph glyph-name="ellipsis" unicode="&#x2026;" horiz-adv-x="733" 
d="M69 -12q-27 0 -41 14.5t-14 38.5q0 34 19.5 60.5t60.5 26.5q24 0 38 -14t14 -40q0 -35 -20.5 -60.5t-56.5 -25.5zM314 -12q-27 0 -41 14.5t-14 38.5q0 34 19.5 60.5t60.5 26.5q24 0 38 -14t14 -40q0 -35 -20.5 -60.5t-56.5 -25.5zM558 -12q-27 0 -41 14.5t-14 38.5
q0 34 19.5 60.5t60.5 26.5q24 0 38 -14t14 -40q0 -35 -20.5 -60.5t-56.5 -25.5z" />
    <glyph glyph-name="perthousand" unicode="&#x2030;" horiz-adv-x="1065" 
d="M109 0l473 714h83l-473 -714h-83zM173 276q-52 0 -80.5 35.5t-28.5 102.5q0 31 6 71.5t19 82.5t34.5 77.5t53 57t73.5 21.5q53 0 82 -34t29 -100q0 -30 -6 -70.5t-19.5 -83t-35.5 -79t-53.5 -59t-73.5 -22.5zM181 349q21 0 37 18.5t28 48t19.5 62.5t11.5 62.5t4 48.5
q0 32 -10 47.5t-28 15.5q-20 0 -36 -18t-28 -46t-19.5 -60.5t-11.5 -63t-4 -51.5q0 -33 9.5 -48.5t27.5 -15.5zM525 -10q-53 0 -81.5 35t-28.5 101q0 35 6 77t19.5 83t35.5 76t53 55.5t72 20.5q54 0 82.5 -33.5t28.5 -98.5q0 -31 -6 -72t-19.5 -83.5t-35.5 -79t-53 -59
t-73 -22.5zM532 63q21 0 37 18.5t28 48t19.5 62.5t11 63t3.5 48q0 33 -9.5 48t-27.5 15q-21 0 -37 -18t-27.5 -46.5t-19 -61t-11 -63t-3.5 -50.5q0 -32 9 -48t27 -16zM841 -10q-54 0 -82 35t-28 101q0 35 6 77t19.5 83t35.5 76t53 55.5t72 20.5q53 0 81.5 -33.5t28.5 -98.5
q0 -31 -6 -72t-19.5 -83.5t-35 -79t-52.5 -59t-73 -22.5zM848 63q21 0 37 18.5t27.5 48t19 62.5t11.5 63t4 48q0 33 -9.5 48t-27.5 15q-21 0 -37 -18t-28 -46.5t-19 -61t-11 -63t-4 -50.5q0 -32 9.5 -48t27.5 -16z" />
    <glyph glyph-name="minute" unicode="&#x2032;" horiz-adv-x="224" 
d="M66 472l120 242h104l-154 -242h-70z" />
    <glyph glyph-name="second" unicode="&#x2033;" horiz-adv-x="404" 
d="M246 472l120 242h104l-154 -242h-70zM66 472l120 242h104l-154 -242h-70z" />
    <glyph glyph-name="guilsinglleft" unicode="&#x2039;" horiz-adv-x="282" 
d="M138 53l-103 212v13l184 200l59 -48l-139 -165l75 -180z" />
    <glyph glyph-name="guilsinglright" unicode="&#x203a;" horiz-adv-x="282" 
d="M61 53l-59 48l139 165l-74 180l75 32l103 -212l-1 -13z" />
    <glyph glyph-name="exclamdbl" unicode="&#x203c;" horiz-adv-x="487" 
d="M299 210l91 504h117l-125 -504h-83zM299 -12q-27 0 -41 15t-14 39q0 34 19 60t60 26q24 0 38 -14.5t14 -40.5q0 -34 -20 -59.5t-56 -25.5zM69 210l91 504h117l-125 -504h-83zM69 -12q-27 0 -41 15t-14 39q0 34 19 60t60 26q24 0 38 -14.5t14 -40.5q0 -34 -20 -59.5
t-56 -25.5z" />
    <glyph glyph-name="fraction" unicode="&#x2044;" horiz-adv-x="120" 
d="M-241 0l526 714h84l-525 -714h-85z" />
    <glyph glyph-name="uni207F" unicode="&#x207f;" horiz-adv-x="342" 
d="M62 287l74 324h54l-7 -53h2q12 16 26.5 29.5t33 21.5t42.5 8t42.5 -8.5t28 -26t9.5 -42.5q0 -13 -2 -27.5t-5 -27.5l-46 -198h-67l46 198q3 14 5 25t2 20q0 17 -9 25.5t-27 8.5q-20 0 -39.5 -14t-35.5 -42t-26 -70l-35 -151h-66z" />
    <glyph glyph-name="franc" unicode="&#x20a3;" horiz-adv-x="497" 
d="M56 0l27 129h-74l15 72h74l109 513h330l-19 -89h-230l-49 -229h215l-19 -89h-214l-24 -106h124l-15 -72h-123l-28 -129h-99z" />
    <glyph glyph-name="lira" unicode="&#x20a4;" horiz-adv-x="497" 
d="M3 84q31 9 52.5 27t36 46.5t23.5 70.5h-83l15 70h84l16 76h-86l16 69h85l21 103q12 57 37.5 96.5t66 60.5t96.5 21q45 0 84 -12t67 -30l-41 -79q-22 14 -51 24.5t-58 10.5q-45 0 -69 -28t-34 -76l-19 -91h150l-15 -69h-150l-17 -76h152l-15 -70h-151q-9 -37 -21 -63.5
t-29.5 -44t-41.5 -30.5h301l-19 -90h-420z" />
    <glyph glyph-name="peseta" unicode="&#x20a7;" horiz-adv-x="707" 
d="M15 0l152 714h109q67 0 110.5 -21.5t65.5 -60.5t22 -94q0 -57 -17 -105.5t-51.5 -84.5t-86.5 -56t-122 -20h-26l-58 -272h-98zM205 359q47 0 78.5 13.5t51.5 37.5t29 54.5t9 63.5q0 48 -26.5 73t-79.5 25h-22l-55 -267h15zM548 -10q-50 0 -75 27t-25 72q0 14 2.5 32
t8.5 44l36 170h-60l9 42l71 39l52 108h62l-25 -113h94l-15 -76h-95l-38 -177q-3 -16 -4.5 -28t-1.5 -21q0 -18 9 -27.5t27 -9.5q14 0 28 3.5t28 9.5v-76q-18 -8 -40.5 -13.5t-47.5 -5.5z" />
    <glyph glyph-name="Euro" unicode="&#x20ac;" horiz-adv-x="497" 
d="M284 -10q-64 0 -107 27.5t-64.5 84t-21.5 141.5h-73l14 68h64q2 12 4 26.5t5 28t5 23.5h-62l14 68h67q26 81 66.5 140.5t95.5 93t124 33.5q45 0 78.5 -11.5t61.5 -31.5l-46 -80q-21 15 -44.5 25t-53.5 10q-40 0 -74 -22t-60.5 -62.5t-45.5 -94.5h177l-15 -68h-182
q-2 -11 -5 -24t-5 -26.5t-4 -27.5h156l-15 -68h-147q0 -57 11 -93t35.5 -53.5t61.5 -17.5q32 0 59.5 7t56.5 20l6 -86q-27 -13 -62.5 -21.5t-74.5 -8.5z" />
    <glyph glyph-name="uni2105" unicode="&#x2105;" horiz-adv-x="695" 
d="M70 0l484 714h82l-483 -714h-83zM468 -6q-53 0 -83 32t-30 89q0 41 10 80t30.5 71t51.5 51t72 19q55 0 84.5 -34t29.5 -91q0 -42 -10.5 -81t-31.5 -70t-51.5 -48.5t-71.5 -17.5zM475 54q22 0 37.5 16t26 41t15.5 52t5 49q0 31 -11.5 47t-33.5 16q-23 0 -39 -15.5
t-26 -40.5t-15 -52.5t-5 -49.5q0 -30 11.5 -46.5t34.5 -16.5zM210 378q-53 0 -84.5 31.5t-31.5 93.5q0 39 11.5 78t33.5 70.5t55.5 50t78.5 18.5q24 0 44 -4.5t38 -14.5l-24 -58q-15 7 -30 11.5t-32 4.5q-24 0 -42.5 -14t-31 -36.5t-18.5 -49.5t-6 -52q0 -33 13 -50.5
t40 -17.5q20 0 37 5.5t34 13.5l-5 -60q-16 -9 -36.5 -14.5t-43.5 -5.5z" />
    <glyph glyph-name="uni2113" unicode="&#x2113;" horiz-adv-x="474" 
d="M270 -9q-45 0 -78.5 18.5t-52 59.5t-18.5 107v93q-20 -8 -41 -14.5t-42 -11.5v71q22 6 42.5 12.5t40.5 13.5v216q0 53 14.5 90.5t46.5 57t82 19.5q42 0 71.5 -18.5t45.5 -52.5t16 -82q0 -63 -22 -113.5t-62.5 -89t-96.5 -65.5v-131q0 -50 15 -77.5t50 -27.5q30 0 49.5 24
t22.5 80h69q-2 -58 -18.5 -98t-49 -60.5t-84.5 -20.5zM216 378q49 29 73 76t24 113q0 27 -5 46.5t-16 30.5t-27 11q-28 0 -38.5 -22.5t-10.5 -63.5v-191z" />
    <glyph glyph-name="uni2116" unicode="&#x2116;" horiz-adv-x="876" 
d="M13 0l151 714h112l117 -553q5 28 9.5 56.5t10 56.5t10.5 53l82 387h92l-151 -714h-109l-119 559q-2 -16 -5.5 -36.5t-7 -42.5t-8 -43.5t-8.5 -41.5l-83 -395h-93zM530 0l15 73h235l-16 -73h-234zM682 136q-55 0 -85.5 32.5t-30.5 92.5q0 39 10.5 77.5t31 70.5t52 51.5
t72.5 19.5q55 0 85.5 -34.5t30.5 -93.5q0 -34 -9.5 -71.5t-29 -70.5t-51.5 -53.5t-76 -20.5zM687 199q23 0 39.5 15t27 39t15.5 50.5t5 49.5q0 30 -11.5 46.5t-35.5 16.5q-22 0 -38 -15t-27 -39t-16 -50.5t-5 -50.5q0 -30 11.5 -46t34.5 -16z" />
    <glyph glyph-name="trademark" unicode="&#x2122;" horiz-adv-x="725" 
d="M304 362v352h91l88 -267l91 267h87v-352h-62v200q0 10 1 33t2 36h-4l-94 -269h-50l-90 269h-4q1 -17 2 -36.5t1 -28.5v-204h-59zM109 362v296h-95v56h253v-56h-96v-296h-62z" />
    <glyph glyph-name="uni03A9" unicode="&#x3a9;" horiz-adv-x="618" 
d="M-25 0l20 92h137q-33 29 -54 73t-28.5 101t1.5 126q13 99 54 174t108 117t159 42q93 0 148 -42t74 -117t5 -174q-9 -69 -35 -126.5t-63 -101t-81 -72.5h138l-20 -92h-236l18 89q53 37 87.5 81t55.5 97.5t30 117.5q10 75 1.5 131.5t-41 87.5t-93.5 31t-102.5 -30.5
t-66 -87t-34.5 -133.5q-8 -64 -3.5 -119t23 -99t53.5 -77l-19 -89h-236z" />
    <glyph glyph-name="estimated" unicode="&#x212e;" horiz-adv-x="596" 
d="M302 -17q-80 0 -136 38.5t-84.5 101.5t-28.5 136q0 67 20.5 118.5t55.5 86.5t79.5 53t93.5 18q71 0 127.5 -34t89.5 -96t32 -146h-388v-174q22 -24 60 -42t79 -18q69 0 111 29.5t75 84.5l34 -20q-24 -40 -53.5 -71t-69.5 -48t-97 -17zM163 301h280v135q-20 22 -57.5 40
t-84.5 18q-45 0 -79.5 -16t-58.5 -41v-136z" />
    <glyph glyph-name="oneeighth" unicode="&#x215b;" horiz-adv-x="770" 
d="M76 0l526 714h84l-525 -714h-85zM202 542q5 22 11 45t11 40q-8 -7 -18 -15.5t-18 -14.5l-57 -39l-33 53l151 102h69l-91 -428h-80zM551 -10q-59 0 -93 28t-34 78q0 45 27 76.5t79 51.5q-23 19 -35.5 40t-12.5 53q0 35 17.5 61.5t49 41.5t73.5 15q57 0 86 -27.5t29 -69.5
q0 -40 -24.5 -68.5t-69.5 -46.5q29 -17 45.5 -40.5t16.5 -61.5q0 -39 -19.5 -69t-54 -46t-80.5 -16zM556 49q33 0 52 20t19 50q0 25 -14 42.5t-35 28.5q-32 -11 -54.5 -32.5t-22.5 -54.5q0 -23 15 -38t40 -16zM596 254q26 10 46 28t20 49q0 20 -12 32t-34 12
q-28 0 -43.5 -16.5t-15.5 -41.5q0 -22 11 -37t28 -26z" />
    <glyph glyph-name="threeeighths" unicode="&#x215c;" horiz-adv-x="798" 
d="M153 278q-32 0 -60.5 7.5t-48.5 18.5v72q23 -15 51 -24t58 -9q43 0 66.5 20.5t23.5 55.5q0 28 -17.5 43t-51.5 15h-45l13 60h40q29 0 49.5 9t32 25.5t11.5 38.5q0 25 -14 37.5t-39 11.5q-24 0 -44.5 -8.5t-41.5 -23.5l-30 54q26 20 59 31.5t71 11.5q40 0 66 -13
t38.5 -35.5t12.5 -51.5q0 -45 -26.5 -73t-71.5 -41v-4q32 -9 48.5 -32t16.5 -57q0 -42 -20 -73t-57.5 -48.5t-89.5 -17.5zM108 0l526 714h84l-525 -714h-85zM579 -10q-59 0 -93 28t-34 78q0 45 27 76.5t79 51.5q-23 19 -35.5 40t-12.5 53q0 35 17.5 61.5t49 41.5t73.5 15
q57 0 86 -27.5t29 -69.5q0 -40 -24.5 -68.5t-69.5 -46.5q29 -17 45.5 -40.5t16.5 -61.5q0 -39 -19.5 -69t-54 -46t-80.5 -16zM584 49q33 0 52 20t19 50q0 25 -14 42.5t-35 28.5q-32 -11 -54.5 -32.5t-22.5 -54.5q0 -23 15 -38t40 -16zM624 254q26 10 46 28t20 49
q0 20 -12 32t-34 12q-28 0 -43.5 -16.5t-15.5 -41.5q0 -22 11 -37t28 -26z" />
    <glyph glyph-name="fiveeighths" unicode="&#x215d;" horiz-adv-x="800" 
d="M109 0l526 714h84l-525 -714h-85zM154 277q-28 0 -53.5 6t-47.5 18l4 71q22 -15 47 -23t51 -8q32 0 53 12.5t31.5 34t10.5 46.5q0 31 -18 46.5t-49 15.5q-13 0 -27 -2.5t-28 -7.5l-32 25l59 203h208l-14 -68h-146l-29 -96q9 2 19.5 3.5t23.5 1.5q52 0 81.5 -30.5
t29.5 -82.5q0 -32 -10.5 -61.5t-32 -52.5t-54 -37t-77.5 -14zM581 -11q-59 0 -93 28t-34 78q0 45 27 76.5t79 51.5q-23 19 -35.5 40t-12.5 53q0 35 17.5 61.5t49 41.5t73.5 15q57 0 86 -27.5t29 -69.5q0 -40 -24.5 -68.5t-69.5 -46.5q29 -17 45.5 -40.5t16.5 -61.5
q0 -39 -19.5 -69t-54 -46t-80.5 -16zM586 48q33 0 52 20t19 50q0 25 -14 42.5t-35 28.5q-32 -11 -54.5 -32.5t-22.5 -54.5q0 -23 15 -38t40 -16zM626 253q26 10 46 28t20 49q0 20 -12 32t-34 12q-28 0 -43.5 -16.5t-15.5 -41.5q0 -22 11 -37t28 -26z" />
    <glyph glyph-name="seveneighths" unicode="&#x215e;" horiz-adv-x="756" 
d="M57 0l526 714h84l-525 -714h-85zM537 -11q-59 0 -93 28t-34 78q0 45 27 76.5t79 51.5q-23 19 -35.5 40t-12.5 53q0 35 17.5 61.5t49 41.5t73.5 15q57 0 86 -27.5t29 -69.5q0 -40 -24.5 -68.5t-69.5 -46.5q29 -17 45.5 -40.5t16.5 -61.5q0 -39 -19.5 -69t-54 -46
t-80.5 -16zM542 48q33 0 52 20t19 50q0 25 -14 42.5t-35 28.5q-32 -11 -54.5 -32.5t-22.5 -54.5q0 -23 15 -38t40 -16zM582 253q26 10 46 28t20 49q0 20 -12 32t-34 12q-28 0 -43.5 -16.5t-15.5 -41.5q0 -22 11 -37t28 -26zM76 286l216 362h-181l14 66h265l-11 -54
l-215 -374h-88z" />
    <glyph glyph-name="uni0394" unicode="&#x394;" horiz-adv-x="551" 
d="M-50 0l13 61l344 654h119l71 -655l-13 -60h-534zM86 93h307l-36 415l-2.5 32.5t-3 40t-3.5 36.5h-2q-8 -16 -17.5 -36t-19 -39t-16.5 -34z" />
    <glyph glyph-name="cyrillicbreve" 
d="M235 603q-68 0 -101.5 31.5t-33.5 88.5q0 4 0.5 11t1.5 16h82q0 -8 -0.5 -13t-0.5 -11q0 -29 13 -43.5t43 -14.5q35 0 54.5 20t28.5 62h87q-17 -73 -60 -110t-114 -37z" />
    <glyph glyph-name="uni2074" unicode="&#x2074;" horiz-adv-x="333" 
d="M209 416l18 90h-166l11 58l223 283h82l-59 -278h55l-13 -63h-55l-20 -90h-76zM146 569h95l22 101q5 22 9.5 41t10.5 39q-5 -8 -13 -19.5t-16.5 -23.5t-15.5 -21z" />
    </font>
</defs>
</svg>
