<?xml version="1.0" standalone="no"?>
<!DOCTYPE svg PUBLIC "-//W3C//DTD SVG 1.1//EN" "http://www.w3.org/Graphics/SVG/1.1/DTD/svg11.dtd" >
<svg xmlns="http://www.w3.org/2000/svg" xmlns:xlink="http://www.w3.org/1999/xlink" version="1.1">
<metadata>
Created by FontForge 20201107 at Fri Apr 12 17:43:54 2024
 By Glenn Lewis
Copyright (c) Qwerasd 2024
</metadata>
<defs>
<font id="PixelCode-ExtraBoldItalic" horiz-adv-x="672" >
  <font-face 
    font-family="Pixel Code ExtraBold"
    font-weight="800"
    font-style="italic"
    font-stretch="normal"
    units-per-em="1008"
    panose-1="2 0 0 9 0 0 0 5 0 3"
    ascent="806"
    descent="-202"
    x-height="596"
    cap-height="820"
    bbox="-56 -224 1564 1156"
    underline-thickness="112"
    underline-position="-280"
    slope="-14"
    unicode-range="U+0020-1FBF9"
  />
<missing-glyph 
d="M428 820h184l-28 -112h112l-28 -112h112l-32 -130l-56 -224l-32 -130h-112l-28 -112h-112l-28 -112h-184l28 112h-112l28 112h-112l32 130l56 224l33 130h112l27 112h112zM448 681l-24 -94h76l24 94h-76zM308 569l-24 -94h76l24 94h-76zM532 569l-52 -206h76l52 206h-76z
M364 345l-24 -94h76l24 94h-76zM308 121l-24 -94h77l23 94h-76z" />
    <glyph glyph-name="bar_bar" unicode="&#x7c;&#x7c;" 
 />
    <glyph glyph-name="hyphen_bar_equal" unicode="&#x2d;&#x7c;&#x3d;" 
 />
    <glyph glyph-name="colon_slash_slash" unicode="&#x3a;&#x2f;&#x2f;" 
 />
    <glyph glyph-name="equal_equal_equal" unicode="&#x3d;&#x3d;&#x3d;" 
 />
    <glyph glyph-name="hyphen_hyphen_greater" unicode="&#x2d;&#x2d;&#x3e;" 
 />
    <glyph glyph-name="less_exclam_hyphen_hyphen" unicode="&#x3c;&#x21;&#x2d;&#x2d;" 
 />
    <glyph glyph-name="plus_bar_equal" unicode="&#x2b;&#x7c;&#x3d;" 
 />
    <glyph glyph-name="slash_slash_slash" unicode="&#x2f;&#x2f;&#x2f;" 
 />
    <glyph glyph-name="exclam_equal_equal" unicode="&#x21;&#x3d;&#x3d;" 
 />
    <glyph glyph-name="slash_asterisk" unicode="&#x2f;&#x2a;" 
 />
    <glyph glyph-name="equal_greater" unicode="&#x3d;&#x3e;" 
 />
    <glyph glyph-name="asterisk_equal" unicode="&#x2a;&#x3d;" 
 />
    <glyph glyph-name="less_hyphen" unicode="&#x3c;&#x2d;" 
 />
    <glyph glyph-name="equal_equal" unicode="&#x3d;&#x3d;" 
 />
    <glyph glyph-name="less_less_bar_equal" unicode="&#x3c;&#x3c;&#x7c;&#x3d;" 
 />
    <glyph glyph-name="colon_colon" unicode="&#x3a;&#x3a;" 
 />
    <glyph glyph-name="asterisk_slash" unicode="&#x2a;&#x2f;" 
 />
    <glyph glyph-name="asterisk_asterisk" unicode="&#x2a;&#x2a;" 
 />
    <glyph glyph-name="slash_equal" unicode="&#x2f;&#x3d;" 
 />
    <glyph glyph-name="asterisk_bar_equal" unicode="&#x2a;&#x7c;&#x3d;" 
 />
    <glyph glyph-name="question_period" unicode="&#x3f;&#x2e;" 
 />
    <glyph glyph-name="less_less_equal" unicode="&#x3c;&#x3c;&#x3d;" 
 />
    <glyph glyph-name="greater_equal" unicode="&#x3e;&#x3d;" 
 />
    <glyph glyph-name="less_equal" unicode="&#x3c;&#x3d;" 
 />
    <glyph glyph-name="greater_greater_equal" unicode="&#x3e;&#x3e;&#x3d;" 
 />
    <glyph glyph-name="bar_equal" unicode="&#x7c;&#x3d;" 
 />
    <glyph glyph-name="exclam_equal" unicode="&#x21;&#x3d;" 
 />
    <glyph glyph-name="colon_equal" unicode="&#x3a;&#x3d;" 
 />
    <glyph glyph-name="hyphen_greater" unicode="&#x2d;&#x3e;" 
 />
    <glyph glyph-name="slash_slash" unicode="&#x2f;&#x2f;" 
 />
    <glyph glyph-name=".notdef" 
d="M428 820h184l-28 -112h112l-28 -112h112l-32 -130l-56 -224l-32 -130h-112l-28 -112h-112l-28 -112h-184l28 112h-112l28 112h-112l32 130l56 224l33 130h112l27 112h112zM448 681l-24 -94h76l24 94h-76zM308 569l-24 -94h76l24 94h-76zM532 569l-52 -206h76l52 206h-76z
M364 345l-24 -94h76l24 94h-76zM308 121l-24 -94h77l23 94h-76z" />
    <glyph glyph-name="uni2705" unicode="&#x2705;" horiz-adv-x="1344" 
d="M456 932h856l-28 -112h112l-32 -130l-140 -560l-32 -130h-112l-28 -112h-856l28 112h-112l32 130l140 560l32 130h112zM1035 793l-27 -112h-112l-26 -103l-30 -121h-112l-26 -103l-30 -121h-148l28 112h-76l-52 -206h112l-28 -112h77l28 112h112l25 103l30 121h112
l26 103l30 121h112l52 206h-77z" />
    <glyph glyph-name="uni270C" unicode="&#x270c;" 
d="M288 708h184l-32 -130l-24 -94h41l23 94l32 130h184l-32 -130l-33 -130h-112l-19 -76h224l-64 -260h-112l-28 -112h-408l28 112h-112l32 130l28 112l33 130h112l23 94zM364 345l-24 -94h76l24 94h-76zM448 233l-24 -94h77l23 94h-76z" />
    <glyph glyph-name="uni2713" unicode="&#x2713;" 
d="M652 820h184l-37 -148h-112l-23 -94l-33 -130h-112l-23 -94l-32 -130h-112l-24 -94l-32 -130h-184l32 130l24 94h-112l37 148h183l-28 -112h41l23 94l33 130h112l23 94l32 130h112z" />
    <glyph glyph-name="uni2714" unicode="&#x2714;" 
d="M652 820h184l-32 -130l-33 -130h-112l-23 -94l-33 -130h-112l-23 -94l-32 -130h-112l-28 -112h-184l28 112h-112l65 260h183l-28 -112h41l23 94l33 130h112l23 94l32 130h112z" />
    <glyph glyph-name="uni2715" unicode="&#x2715;" 
d="M149 596h183l-28 -112h112l-28 -112h41l28 112h112l28 112h183l-37 -148h-112l-28 -112h-112l-19 -76h112l-27 -112h112l-37 -148h-184l28 112h-112l28 112h-40l-28 -112h-112l-28 -112h-184l37 148h112l28 112h112l19 76h-112l28 112h-112z" />
    <glyph glyph-name="uni2716" unicode="&#x2716;" 
d="M204 820h184l-28 -112h112l-28 -112h41l27 112h112l28 112h184l-32 -130l-33 -130h-112l-28 -112h-112l-19 -76h112l-28 -112h112l-64 -260h-184l28 112h-112l28 112h-40l-28 -112h-112l-28 -112h-184l65 260h112l28 112h112l19 76h-112l28 112h-112l32 130z" />
    <glyph glyph-name="uni2717" unicode="&#x2717;" 
d="M652 820h184l-37 -148h-112l-23 -94l-33 -130h-112l-19 -76h112l-28 -112h112l-36 -148h-184l28 112h-112l28 112h-41l-23 -94l-32 -130h-112l-28 -112h-184l37 148h112l23 94l33 130h112l19 76h-112l28 112h-112l36 148h184l-28 -112h112l-28 -112h41l23 94l32 130h112z
" />
    <glyph glyph-name="uni2718" unicode="&#x2718;" 
d="M652 820h184l-32 -130l-33 -130h-112l-28 -112h-112l-19 -76h112l-28 -112h112l-36 -148h-296l28 112h-40l-28 -112h-112l-28 -112h-184l65 260h112l28 112h112l19 76h-112l28 112h-112l36 148h296l-28 -112h41l27 112h112z" />
    <glyph glyph-name="uni2728" unicode="&#x2728;" horiz-adv-x="1344" 
d="M568 932h184l-28 -112h112l-37 -148h-112l-28 -112h-183l28 112h-112l36 148h112zM988 820h184l-32 -130l-24 -94h112l-28 -112h224l-37 -148h-224l-27 -112h-112l-24 -94l-32 -130h-184l32 130l24 94h-112l28 112h-224l37 148h224l28 112h112l23 94zM587 793l-23 -94h76
l24 94h-77zM980 569l-28 -112h-112l-24 -94h112l-28 -112h76l28 112h112l24 94h-112l28 112h-76zM317 372h183l-32 -130l-23 -94h224l-37 -148h-224l-24 -94l-32 -130h-184l33 130l23 94h-224l37 148h224l23 94zM308 121l-24 -94h77l23 94h-76z" />
    <glyph glyph-name="uni274C" unicode="&#x274c;" horiz-adv-x="1344" 
d="M344 932h296l-28 -112h112l-28 -112h112l-28 -112h41l27 112h112l28 112h112l28 112h296l-32 -130l-33 -130h-112l-28 -112h-112l-28 -112h-112l-19 -76h112l-28 -112h112l-27 -112h112l-65 -260h-296l28 112h-112l28 112h-112l28 112h-40l-28 -112h-112l-28 -112h-112
l-28 -112h-296l65 260h112l28 112h112l28 112h112l19 76h-112l28 112h-112l28 112h-112l32 130z" />
    <glyph glyph-name="uni274E" unicode="&#x274e;" horiz-adv-x="1344" 
d="M456 932h856l-28 -112h112l-32 -130l-140 -560l-32 -130h-112l-28 -112h-856l28 112h-112l32 130l140 560l32 130h112zM587 793l-51 -206h112l-28 -112h112l-32 -130h-112l-28 -112h-112l-52 -206h77l28 112h112l27 112h148l-28 -112h112l-28 -112h77l51 206h-112l28 112
h-112l32 130h112l28 112h112l52 206h-77l-27 -112h-112l-28 -112h-148l28 112h-112l28 112h-77z" />
    <glyph glyph-name="uni274F" unicode="&#x274f;" 
d="M149 596h519l-28 -112h112l-32 -130l-56 -224l-32 -130h-520l28 112h-112l32 130l56 224zM280 457l-52 -206h188l26 103l26 103h-188z" />
    <glyph glyph-name="uni2750" unicode="&#x2750;" 
d="M261 596h519l-32 -130l-56 -224l-32 -130h-112l-28 -112h-520l32 130l56 224l33 130h112zM252 345l-52 -206h189l25 103l26 103h-188z" />
    <glyph glyph-name="uni275B" unicode="&#x275b;" 
d="M428 820h184l-37 -148h-112l-19 -76h224l-65 -260h-295l28 112h-112l32 130l32 130h112z" />
    <glyph glyph-name="uni275C" unicode="&#x275c;" 
d="M316 820h296l-28 -112h112l-32 -130l-33 -130h-112l-28 -112h-183l37 148h112l19 76h-224l32 130z" />
    <glyph glyph-name="uni275D" unicode="&#x275d;" 
d="M316 820h184l-37 -148h-112l-19 -76h112l-65 -260h-295l32 130l28 112l32 130h112zM652 820h184l-37 -148h-112l-19 -76h112l-65 -260h-295l32 130l28 112l32 130h112z" />
    <glyph glyph-name="uni275E" unicode="&#x275e;" 
d="M204 820h296l-32 -130l-28 -112l-33 -130h-112l-28 -112h-183l37 148h112l19 76h-112l32 130zM540 820h296l-32 -130l-28 -112l-33 -130h-112l-28 -112h-183l37 148h112l19 76h-112l32 130z" />
    <glyph glyph-name="uni2762" unicode="&#x2762;" 
d="M428 820h184l-28 -112h112l-32 -130l-28 -112l-33 -130h-112l-27 -112h-184l28 112h-112l32 130l28 112l32 130h112zM261 148h184l-37 -148h-184z" />
    <glyph glyph-name="uni2763" unicode="&#x2763;" 
d="M288 708h184l-28 -112h41l27 112h184l-28 -112h112l-37 -148h-112l-28 -112h-112l-27 -112h-184l28 112h-112l28 112h-112l37 148h112zM261 148h184l-37 -148h-184z" />
    <glyph glyph-name="uni2764" unicode="&#x2764;" 
d="M288 708h184l-28 -112h41l27 112h184l-28 -112h112l-65 -260h-112l-27 -112h-112l-28 -112h-184l28 112h-112l28 112h-112l32 130l33 130h112z" />
    <glyph glyph-name="uni2765" unicode="&#x2765;" 
d="M288 708h296l-28 -112h112l-28 -112h112l-37 -148h-112l-27 -112h-112l-28 -112h-296l28 112h-112l37 148h112l19 76h-112l37 148h112z" />
    <glyph glyph-name="uni2768" unicode="&#x2768;" 
d="M540 820h296l-37 -148h-112l-28 -112h-112l-23 -94l-28 -112l-24 -94h112l-27 -112h112l-37 -148h-296l28 112h-112l28 112h-112l32 130l28 112l33 130h112l27 112h112z" />
    <glyph glyph-name="uni2769" unicode="&#x2769;" 
d="M204 820h296l-28 -112h112l-28 -112h112l-32 -130l-28 -112l-32 -130h-112l-28 -112h-112l-28 -112h-296l37 148h112l28 112h112l23 94l28 112l24 94h-112l28 112h-112z" />
    <glyph glyph-name="uni276A" unicode="&#x276a;" 
d="M540 820h296l-37 -148h-112l-23 -94l-33 -130h-112l-19 -76h112l-32 -130l-23 -94h112l-37 -148h-296l28 112h-112l28 112h-112l32 130l28 112l33 130h112l27 112h112z" />
    <glyph glyph-name="uni276B" unicode="&#x276b;" 
d="M204 820h296l-28 -112h112l-28 -112h112l-32 -130l-28 -112l-32 -130h-112l-28 -112h-112l-28 -112h-296l37 148h112l23 94l33 130h112l19 76h-112l32 130l24 94h-112z" />
    <glyph glyph-name="uni276C" unicode="&#x276c;" 
d="M540 820h184l-37 -148h-112l-23 -94l-33 -130h-112l-19 -76h112l-32 -130l-23 -94h112l-37 -148h-184l28 112h-112l28 112h-112l28 112h-112l37 148h112l28 112h112l27 112h112z" />
    <glyph glyph-name="uni276D" unicode="&#x276d;" 
d="M316 820h184l-28 -112h112l-28 -112h112l-28 -112h112l-37 -148h-112l-27 -112h-112l-28 -112h-112l-28 -112h-184l37 148h112l23 94l33 130h112l19 76h-112l32 130l24 94h-112z" />
    <glyph glyph-name="uni276E" unicode="&#x276e;" 
d="M540 820h296l-37 -148h-112l-28 -112h-112l-28 -112h-112l-19 -76h112l-28 -112h112l-27 -112h112l-37 -148h-296l28 112h-112l28 112h-112l28 112h-112l37 148h112l28 112h112l27 112h112z" />
    <glyph glyph-name="uni276F" unicode="&#x276f;" 
d="M204 820h296l-28 -112h112l-28 -112h112l-28 -112h112l-37 -148h-112l-27 -112h-112l-28 -112h-112l-28 -112h-296l37 148h112l28 112h112l28 112h112l19 76h-112l28 112h-112l28 112h-112z" />
    <glyph glyph-name="uni2770" unicode="&#x2770;" 
d="M540 820h296l-37 -148h-112l-23 -94l-33 -130h-112l-19 -76h112l-32 -130l-23 -94h112l-37 -148h-296l28 112h-112l28 112h-112l28 112h-112l37 148h112l28 112h112l27 112h112z" />
    <glyph glyph-name="uni2771" unicode="&#x2771;" 
d="M204 820h296l-28 -112h112l-28 -112h112l-28 -112h112l-37 -148h-112l-27 -112h-112l-28 -112h-112l-28 -112h-296l37 148h112l23 94l33 130h112l19 76h-112l32 130l24 94h-112z" />
    <glyph glyph-name="uni2772" unicode="&#x2772;" 
d="M540 820h184l-37 -148h-112l-28 -112h-112l-23 -94l-28 -112l-24 -94h112l-27 -112h112l-37 -148h-184l28 112h-112l28 112h-112l32 130l28 112l33 130h112l27 112h112z" />
    <glyph glyph-name="uni2773" unicode="&#x2773;" 
d="M316 820h184l-28 -112h112l-28 -112h112l-32 -130l-28 -112l-32 -130h-112l-28 -112h-112l-28 -112h-184l37 148h112l28 112h112l23 94l28 112l24 94h-112l28 112h-112z" />
    <glyph glyph-name="uni2774" unicode="&#x2774;" 
d="M540 820h296l-37 -148h-112l-23 -94l-84 -336l-23 -94h112l-37 -148h-296l28 112h-112l32 130l24 94h-112l37 148h112l23 94l32 130h112z" />
    <glyph glyph-name="uni2775" unicode="&#x2775;" 
d="M204 820h296l-28 -112h112l-32 -130l-24 -94h112l-37 -148h-112l-23 -94l-32 -130h-112l-28 -112h-296l37 148h112l23 94l84 336l24 94h-112z" />
    <glyph glyph-name="uni2776" unicode="&#x2776;" 
d="M316 820h408l-28 -112h112l-32 -130l-84 -336l-32 -130h-112l-28 -112h-408l28 112h-112l32 130l84 336l32 130h112zM448 681l-28 -112h-112l-24 -94h112l-60 -242h-112l-24 -94h301l23 94h-112l30 121l56 224l26 103h-76z" />
    <glyph glyph-name="uni2777" unicode="&#x2777;" 
d="M316 820h408l-28 -112h112l-32 -130l-84 -336l-32 -130h-112l-28 -112h-408l28 112h-112l32 130l84 336l32 130h112zM336 681l-24 -94h188l24 94h-188zM532 569l-24 -94h76l24 94h-76zM392 457l-24 -94h76l24 94h-76zM252 345l-52 -206h301l23 94h-224l28 112h-76z" />
    <glyph glyph-name="uni2778" unicode="&#x2778;" 
d="M316 820h408l-28 -112h112l-32 -130l-84 -336l-32 -130h-112l-28 -112h-408l28 112h-112l32 130l84 336l32 130h112zM336 681l-24 -94h188l24 94h-188zM532 569l-24 -94h76l24 94h-76zM392 457l-24 -94h76l24 94h-76zM476 345l-24 -94h76l24 94h-76zM224 233l-24 -94h189
l23 94h-188z" />
    <glyph glyph-name="uni2779" unicode="&#x2779;" 
d="M316 820h408l-28 -112h112l-32 -130l-84 -336l-32 -130h-112l-28 -112h-408l28 112h-112l32 130l84 336l32 130h112zM336 681l-26 -103l-28 -112l-26 -103h224l-30 -121l-26 -103h77l25 103l28 112l56 224l26 103h-76l-26 -103l-30 -121h-148l30 121l26 103h-76z" />
    <glyph glyph-name="uni277A" unicode="&#x277a;" 
d="M316 820h408l-28 -112h112l-32 -130l-84 -336l-32 -130h-112l-28 -112h-408l28 112h-112l32 130l84 336l32 130h112zM336 681l-26 -103l-28 -112l-26 -103h224l-28 -112h76l26 103l26 103h-224l32 130h224l24 94h-300zM224 233l-24 -94h189l23 94h-188z" />
    <glyph glyph-name="uni277B" unicode="&#x277b;" 
d="M316 820h408l-28 -112h112l-32 -130l-84 -336l-32 -130h-112l-28 -112h-408l28 112h-112l32 130l84 336l32 130h112zM448 681l-24 -94h188l24 94h-188zM308 569l-26 -103l-28 -112l-26 -103h76l28 112h112l24 94h-112l28 112h-76zM476 345l-24 -94h76l24 94h-76zM336 233
l-24 -94h77l23 94h-76z" />
    <glyph glyph-name="uni277C" unicode="&#x277c;" 
d="M316 820h408l-28 -112h112l-32 -130l-84 -336l-32 -130h-112l-28 -112h-408l28 112h-112l32 130l84 336l32 130h112zM336 681l-24 -94h224l-28 -112h76l52 206h-300zM392 457l-26 -103l-28 -112l-26 -103h77l25 103l28 112l26 103h-76z" />
    <glyph glyph-name="uni277D" unicode="&#x277d;" 
d="M316 820h408l-28 -112h112l-32 -130l-84 -336l-32 -130h-112l-28 -112h-408l28 112h-112l32 130l84 336l32 130h112zM448 681l-24 -94h76l24 94h-76zM308 569l-24 -94h76l24 94h-76zM532 569l-24 -94h76l24 94h-76zM392 457l-24 -94h76l24 94h-76zM252 345l-24 -94h76
l24 94h-76zM476 345l-24 -94h76l24 94h-76zM336 233l-24 -94h77l23 94h-76z" />
    <glyph glyph-name="uni277E" unicode="&#x277e;" 
d="M316 820h408l-28 -112h112l-32 -130l-84 -336l-32 -130h-112l-28 -112h-408l28 112h-112l32 130l84 336l32 130h112zM448 681l-24 -94h76l24 94h-76zM308 569l-24 -94h76l24 94h-76zM532 569l-28 -112h-112l-24 -94h112l-28 -112h76l26 103l28 112l26 103h-76zM224 233
l-24 -94h189l23 94h-188z" />
    <glyph glyph-name="uni277F" unicode="&#x277f;" 
d="M176 708h184l-32 -130l-84 -336l-32 -130h-184l32 130l84 336zM512 708h184l-28 -112h112l-32 -130l-28 -112l-32 -130h-112l-28 -112h-184l28 112h-112l32 130l28 112l33 130h112zM532 569l-26 -103l-28 -112l-26 -103h76l26 103l28 112l26 103h-76z" />
    <glyph glyph-name="uni2780" unicode="&#x2780;" 
d="M400 708h184l-32 -130l-56 -224l-24 -94h112l-36 -148h-408l37 148h112l47 188h-112l37 148h112z" />
    <glyph glyph-name="uni2781" unicode="&#x2781;" 
d="M288 708h296l-28 -112h112l-37 -148h-112l-28 -112h-112l-19 -76h224l-36 -148h-408l65 260h112l28 112h112l19 76h-224z" />
    <glyph glyph-name="uni2782" unicode="&#x2782;" 
d="M288 708h296l-28 -112h112l-37 -148h-112l-19 -76h112l-36 -148h-112l-28 -112h-296l37 148h224l19 76h-112l37 148h112l19 76h-224z" />
    <glyph glyph-name="uni2783" unicode="&#x2783;" 
d="M288 708h184l-32 -130l-24 -94h41l23 94l32 130h184l-32 -130l-84 -336l-32 -130h-184l32 130l24 94h-224l32 130l28 112z" />
    <glyph glyph-name="uni2784" unicode="&#x2784;" 
d="M288 708h408l-37 -148h-224l-19 -76h224l-64 -260h-112l-28 -112h-296l37 148h224l19 76h-224l32 130l28 112z" />
    <glyph glyph-name="uni2785" unicode="&#x2785;" 
d="M400 708h296l-37 -148h-224l-19 -76h112l-28 -112h112l-36 -148h-112l-28 -112h-184l28 112h-112l32 130l28 112l33 130h112zM364 345l-24 -94h76l24 94h-76z" />
    <glyph glyph-name="uni2786" unicode="&#x2786;" 
d="M288 708h408l-32 -130l-33 -130h-112l-23 -94l-28 -112l-32 -130h-184l32 130l28 112l33 130h112l19 76h-224z" />
    <glyph glyph-name="uni2787" unicode="&#x2787;" 
d="M400 708h184l-28 -112h112l-37 -148h-112l-19 -76h112l-36 -148h-112l-28 -112h-184l28 112h-112l37 148h112l19 76h-112l37 148h112zM420 569l-24 -94h76l24 94h-76zM364 345l-24 -94h76l24 94h-76z" />
    <glyph glyph-name="uni2788" unicode="&#x2788;" 
d="M400 708h184l-28 -112h112l-32 -130l-28 -112l-32 -130h-112l-28 -112h-296l37 148h224l19 76h-112l28 112h-112l37 148h112zM420 569l-24 -94h76l24 94h-76z" />
    <glyph glyph-name="uni2789" unicode="&#x2789;" 
d="M176 708h184l-32 -130l-84 -336l-32 -130h-184l32 130l84 336zM512 708h184l-28 -112h112l-32 -130l-28 -112l-32 -130h-112l-28 -112h-184l28 112h-112l32 130l28 112l33 130h112zM532 569l-26 -103l-28 -112l-26 -103h76l26 103l28 112l26 103h-76z" />
    <glyph glyph-name="uni278A" unicode="&#x278a;" 
d="M316 820h408l-28 -112h112l-32 -130l-84 -336l-32 -130h-112l-28 -112h-408l28 112h-112l32 130l84 336l32 130h112zM448 681l-28 -112h-112l-24 -94h112l-60 -242h-112l-24 -94h301l23 94h-112l30 121l56 224l26 103h-76z" />
    <glyph glyph-name="uni278B" unicode="&#x278b;" 
d="M316 820h408l-28 -112h112l-32 -130l-84 -336l-32 -130h-112l-28 -112h-408l28 112h-112l32 130l84 336l32 130h112zM336 681l-24 -94h188l24 94h-188zM532 569l-24 -94h76l24 94h-76zM392 457l-24 -94h76l24 94h-76zM252 345l-52 -206h301l23 94h-224l28 112h-76z" />
    <glyph glyph-name="uni278C" unicode="&#x278c;" 
d="M316 820h408l-28 -112h112l-32 -130l-84 -336l-32 -130h-112l-28 -112h-408l28 112h-112l32 130l84 336l32 130h112zM336 681l-24 -94h188l24 94h-188zM532 569l-24 -94h76l24 94h-76zM392 457l-24 -94h76l24 94h-76zM476 345l-24 -94h76l24 94h-76zM224 233l-24 -94h189
l23 94h-188z" />
    <glyph glyph-name="uni278D" unicode="&#x278d;" 
d="M316 820h408l-28 -112h112l-32 -130l-84 -336l-32 -130h-112l-28 -112h-408l28 112h-112l32 130l84 336l32 130h112zM336 681l-26 -103l-28 -112l-26 -103h224l-30 -121l-26 -103h77l25 103l28 112l56 224l26 103h-76l-26 -103l-30 -121h-148l30 121l26 103h-76z" />
    <glyph glyph-name="uni278E" unicode="&#x278e;" 
d="M316 820h408l-28 -112h112l-32 -130l-84 -336l-32 -130h-112l-28 -112h-408l28 112h-112l32 130l84 336l32 130h112zM336 681l-26 -103l-28 -112l-26 -103h224l-28 -112h76l26 103l26 103h-224l32 130h224l24 94h-300zM224 233l-24 -94h189l23 94h-188z" />
    <glyph glyph-name="uni278F" unicode="&#x278f;" 
d="M316 820h408l-28 -112h112l-32 -130l-84 -336l-32 -130h-112l-28 -112h-408l28 112h-112l32 130l84 336l32 130h112zM448 681l-24 -94h188l24 94h-188zM308 569l-26 -103l-28 -112l-26 -103h76l28 112h112l24 94h-112l28 112h-76zM476 345l-24 -94h76l24 94h-76zM336 233
l-24 -94h77l23 94h-76z" />
    <glyph glyph-name="uni2790" unicode="&#x2790;" 
d="M316 820h408l-28 -112h112l-32 -130l-84 -336l-32 -130h-112l-28 -112h-408l28 112h-112l32 130l84 336l32 130h112zM336 681l-24 -94h224l-28 -112h76l52 206h-300zM392 457l-26 -103l-28 -112l-26 -103h77l25 103l28 112l26 103h-76z" />
    <glyph glyph-name="uni2791" unicode="&#x2791;" 
d="M316 820h408l-28 -112h112l-32 -130l-84 -336l-32 -130h-112l-28 -112h-408l28 112h-112l32 130l84 336l32 130h112zM448 681l-24 -94h76l24 94h-76zM308 569l-24 -94h76l24 94h-76zM532 569l-24 -94h76l24 94h-76zM392 457l-24 -94h76l24 94h-76zM252 345l-24 -94h76
l24 94h-76zM476 345l-24 -94h76l24 94h-76zM336 233l-24 -94h77l23 94h-76z" />
    <glyph glyph-name="uni2792" unicode="&#x2792;" 
d="M316 820h408l-28 -112h112l-32 -130l-84 -336l-32 -130h-112l-28 -112h-408l28 112h-112l32 130l84 336l32 130h112zM448 681l-24 -94h76l24 94h-76zM308 569l-24 -94h76l24 94h-76zM532 569l-28 -112h-112l-24 -94h112l-28 -112h76l26 103l28 112l26 103h-76zM224 233
l-24 -94h189l23 94h-188z" />
    <glyph glyph-name="uni2793" unicode="&#x2793;" 
d="M176 708h184l-32 -130l-84 -336l-32 -130h-184l32 130l84 336zM512 708h184l-28 -112h112l-32 -130l-28 -112l-32 -130h-112l-28 -112h-184l28 112h-112l32 130l28 112l33 130h112zM532 569l-26 -103l-28 -112l-26 -103h76l26 103l28 112l26 103h-76z" />
    <glyph glyph-name="uni27B0" unicode="&#x27b0;" horiz-adv-x="1344" 
d="M428 820h408l-28 -112h40l28 112h408l-28 -112h112l-37 -148h-183l28 112h-265l-19 -76h112l-28 -112h112l-32 -130l-28 -112l-32 -130h-112l-28 -112h-408l28 112h-112l32 130l28 112l33 130h112l28 112h112l19 76h-265l-28 -112h-183l36 148h112zM756 569l-28 -112
h-112l-26 -103l-28 -112l-26 -103h301l25 103l28 112l26 103h-112l28 112h-76z" />
    <glyph glyph-name="uni27BF" unicode="&#x27bf;" horiz-adv-x="1344" 
d="M204 820h296l-28 -112h40l28 112h632l-28 -112h40l28 112h296l-37 -148h-224l-19 -76h112l-28 -112h112l-32 -130l-28 -112l-32 -130h-112l-28 -112h-408l28 112h-112l32 130l28 112l33 130h112l28 112h112l19 76h-489l-19 -76h112l-28 -112h112l-32 -130l-28 -112
l-32 -130h-112l-28 -112h-408l28 112h-112l32 130l28 112l33 130h112l28 112h112l19 76h-224zM420 569l-28 -112h-112l-26 -103l-28 -112l-26 -103h301l25 103l28 112l26 103h-112l28 112h-76zM1092 569l-28 -112h-112l-26 -103l-28 -112l-26 -103h301l25 103l28 112l26 103
h-112l28 112h-76z" />
    <glyph glyph-name="uni2C7C" unicode="&#x2c7c;" 
d="M317 372h183l-36 -148h-184zM261 148h184l-65 -260h-112l-28 -112h-184l37 148h112l23 94z" />
    <glyph glyph-name="uni2C7D" unicode="&#x2c7d;" 
d="M232 932h184l-32 -130l-24 -94h112l-32 -130l-24 -94h41l23 94l32 130h112l24 94l32 130h184l-32 -130l-33 -130h-112l-23 -94l-33 -130h-112l-28 -112h-183l28 112h-112l32 130l24 94h-112l32 130z" />
    <glyph glyph-name="uniEE00" unicode="&#xee00;" 
d="M232 932h744l-37 -148h-560l-23 -94l-140 -560l-23 -94h560l-37 -148h-744l32 130l196 784z" />
    <glyph glyph-name="uniEE01" unicode="&#xee01;" 
d="M232 932h744l-37 -148h-744zM9 36h744l-37 -148h-744z" />
    <glyph glyph-name="uniEE02" unicode="&#xee02;" 
d="M232 932h632l-32 -130l-196 -784l-32 -130h-632l37 148h448l23 94l140 560l23 94h-448z" />
    <glyph glyph-name="uniEE03" unicode="&#xee03;" 
d="M232 932h744l-37 -148h-560l-23 -94l-140 -560l-23 -94h560l-37 -148h-744l32 130l196 784zM400 708h520l-32 -130l-84 -336l-32 -130h-520l32 130l84 336z" />
    <glyph glyph-name="uniEE04" unicode="&#xee04;" 
d="M232 932h744l-37 -148h-744zM176 708h744l-32 -130l-84 -336l-32 -130h-744l32 130l84 336zM9 36h744l-37 -148h-744z" />
    <glyph glyph-name="uniEE05" unicode="&#xee05;" 
d="M232 932h632l-32 -130l-196 -784l-32 -130h-632l37 148h448l23 94l140 560l23 94h-448zM176 708h408l-32 -130l-84 -336l-32 -130h-408l32 130l84 336z" />
    <glyph glyph-name="uniEE06" unicode="&#xee06;" 
d="M288 708h408l-28 -112h112l-37 -148h-183l28 112h-265l-28 -112h-183l37 148h112z" />
    <glyph glyph-name="uniEE07" unicode="&#xee07;" 
d="M400 708h296l-28 -112h112l-32 -130l-28 -112l-32 -130h-184l32 130l28 112l24 94h-224z" />
    <glyph glyph-name="uniEE08" unicode="&#xee08;" 
d="M597 596h183l-32 -130l-28 -112l-32 -130h-112l-28 -112h-296l37 148h224l23 94l28 112z" />
    <glyph glyph-name="uniEE09" unicode="&#xee09;" 
d="M93 372h183l-28 -112h265l28 112h183l-36 -148h-112l-28 -112h-408l28 112h-112z" />
    <glyph glyph-name="uniEE0A" unicode="&#xee0a;" 
d="M149 596h183l-32 -130l-28 -112l-24 -94h224l-36 -148h-296l28 112h-112l32 130l28 112z" />
    <glyph glyph-name="uniEE0B" unicode="&#xee0b;" 
d="M288 708h296l-37 -148h-224l-23 -94l-28 -112l-32 -130h-184l32 130l28 112l33 130h112z" />
    <glyph glyph-name="space" unicode=" " 
 />
    <glyph glyph-name="exclam" unicode="!" 
d="M428 820h184l-32 -130l-84 -336l-32 -130h-184l32 130l84 336zM261 148h184l-37 -148h-184z" />
    <glyph glyph-name="quotedbl" unicode="&#x22;" 
d="M316 820h184l-32 -130l-33 -130h-183l32 130zM540 820h184l-32 -130l-33 -130h-183l32 130z" />
    <glyph glyph-name="numbersign" unicode="#" 
d="M316 820h184l-32 -130l-24 -94h41l23 94l32 130h184l-32 -130l-24 -94h112l-37 -148h-112l-19 -76h112l-36 -148h-112l-24 -94l-32 -130h-184l32 130l24 94h-40l-24 -94l-32 -130h-184l32 130l24 94h-112l37 148h112l19 76h-112l37 148h112l23 94zM392 457l-24 -94h76
l24 94h-76z" />
    <glyph glyph-name="dollar" unicode="$" 
d="M456 932h184l-28 -112h112l-28 -112h112l-37 -148h-183l28 112h-41l-47 -188h112l-28 -112h112l-64 -260h-112l-28 -112h-112l-28 -112h-184l28 112h-112l28 112h-112l37 148h183l-27 -112h40l47 188h-112l28 112h-112l32 130l32 130h112l28 112h112zM336 681l-52 -206
h76l52 206h-76zM476 345l-52 -206h77l25 103l26 103h-76z" />
    <glyph glyph-name="percent" unicode="%" 
d="M204 820h184l-32 -130l-33 -130h-183l32 130zM652 820h184l-37 -148h-112l-23 -94l-33 -130h-112l-28 -112h-112l-23 -94l-32 -130h-112l-28 -112h-184l37 148h112l23 94l33 130h112l28 112h112l23 94l32 130h112zM513 260h183l-64 -260h-184z" />
    <glyph glyph-name="ampersand" unicode="&#x26;" 
d="M316 820h184l-28 -112h112l-37 -148h-112l-19 -76h112l-28 -112h41l28 112h183l-37 -148h-112l-46 -188h112l-37 -148h-184l28 112h-40l-28 -112h-296l28 112h-112l32 130l28 112l33 130h112l19 76h-112l36 148h112zM336 681l-24 -94h76l24 94h-76zM280 457l-26 -103
l-28 -112l-26 -103h189l25 103l26 103h-112l28 112h-76z" />
    <glyph glyph-name="quotesingle" unicode="'" 
d="M428 820h184l-32 -130l-33 -130h-183l32 130z" />
    <glyph glyph-name="parenleft" unicode="(" 
d="M568 932h184l-37 -148h-112l-28 -112h-112l-23 -94l-84 -336l-23 -94h112l-28 -112h112l-37 -148h-184l28 112h-112l28 112h-112l32 130l84 336l32 130h112l28 112h112z" />
    <glyph glyph-name="parenright" unicode=")" 
d="M344 932h184l-28 -112h112l-28 -112h112l-32 -130l-84 -336l-32 -130h-112l-28 -112h-112l-28 -112h-184l37 148h112l28 112h112l23 94l84 336l24 94h-112l27 112h-112z" />
    <glyph glyph-name="asterisk" unicode="*" 
d="M316 820h184l-28 -112h40l28 112h184l-37 -148h-112l-19 -76h112l-37 -148h-183l28 112h-41l-28 -112h-183l37 148h112l19 76h-112z" />
    <glyph glyph-name="plus" unicode="+" 
d="M400 708h184l-32 -130l-24 -94h224l-37 -148h-224l-23 -94l-32 -130h-184l32 130l24 94h-224l37 148h224l23 94z" />
    <glyph glyph-name="comma" unicode="," 
d="M149 148h184l-37 -148h-112l-28 -112h-184l37 148h112z" />
    <glyph glyph-name="hyphen" unicode="-" 
d="M121 484h631l-37 -148h-631z" />
    <glyph glyph-name="period" unicode="." 
d="M261 148h184l-37 -148h-184z" />
    <glyph glyph-name="slash" unicode="/" 
d="M652 820h184l-37 -148h-112l-23 -94l-33 -130h-112l-28 -112h-112l-23 -94l-32 -130h-112l-28 -112h-184l37 148h112l23 94l33 130h112l28 112h112l23 94l32 130h112z" />
    <glyph glyph-name="zero" unicode="0" 
d="M316 820h408l-28 -112h112l-32 -130l-84 -336l-32 -130h-112l-28 -112h-408l28 112h-112l32 130l84 336l32 130h112zM336 681l-26 -103l-28 -112l-26 -103h76l28 112h112l28 112h112l24 94h-300zM504 457l-28 -112h-112l-28 -112h-112l-24 -94h301l25 103l28 112l26 103
h-76z" />
    <glyph glyph-name="one" unicode="1" 
d="M428 820h184l-32 -130l-112 -448l-23 -94h224l-37 -148h-632l37 148h224l23 94l56 224l24 94h-41l-28 -112h-183l37 148h112l27 112h112z" />
    <glyph glyph-name="two" unicode="2" 
d="M316 820h408l-28 -112h112l-32 -130l-33 -130h-112l-28 -112h-112l-27 -112h-112l-19 -76h336l-37 -148h-632l37 148h112l28 112h112l28 112h112l28 112h112l47 188h-265l-28 -112h-183l36 148h112z" />
    <glyph glyph-name="three" unicode="3" 
d="M316 820h408l-28 -112h112l-32 -130l-33 -130h-112l-19 -76h112l-64 -260h-112l-28 -112h-408l28 112h-112l37 148h183l-27 -112h264l47 188h-224l37 148h224l47 188h-265l-28 -112h-183l36 148h112z" />
    <glyph glyph-name="four" unicode="4" 
d="M428 820h296l-32 -130l-28 -112l-24 -94h112l-37 -148h-112l-23 -94l-28 -112l-32 -130h-184l32 130l28 112l24 94h-336l32 130l33 130h112l27 112h112zM448 681l-28 -112h-112l-24 -94h188l52 206h-76z" />
    <glyph glyph-name="five" unicode="5" 
d="M204 820h632l-37 -148h-448l-19 -76h336l-28 -112h112l-32 -130l-28 -112l-32 -130h-112l-28 -112h-408l28 112h-112l37 148h183l-27 -112h264l23 94l28 112l24 94h-448l32 130l28 112z" />
    <glyph glyph-name="six" unicode="6" 
d="M428 820h296l-37 -148h-224l-28 -112h-112l-19 -76h336l-28 -112h112l-64 -260h-112l-28 -112h-408l28 112h-112l32 130l56 224l33 130h112l27 112h112zM252 345l-52 -206h301l25 103l26 103h-300z" />
    <glyph glyph-name="seven" unicode="7" 
d="M204 820h632l-32 -130l-28 -112l-33 -130h-112l-23 -94l-32 -130h-112l-24 -94l-32 -130h-184l65 260h112l23 94l33 130h112l47 188h-265l-28 -112h-183l32 130z" />
    <glyph glyph-name="eight" unicode="8" 
d="M316 820h408l-28 -112h112l-32 -130l-33 -130h-112l-19 -76h112l-64 -260h-112l-28 -112h-408l28 112h-112l65 260h112l19 76h-112l32 130l32 130h112zM336 681l-52 -206h300l52 206h-300zM252 345l-52 -206h301l25 103l26 103h-300z" />
    <glyph glyph-name="nine" unicode="9" 
d="M316 820h408l-28 -112h112l-32 -130l-56 -224l-32 -130h-112l-28 -112h-112l-28 -112h-296l37 148h224l28 112h112l19 76h-336l28 112h-112l32 130l32 130h112zM336 681l-52 -206h300l52 206h-300z" />
    <glyph glyph-name="colon" unicode=":" 
d="M373 596h183l-37 -148h-183zM261 148h184l-37 -148h-184z" />
    <glyph glyph-name="semicolon" unicode=";" 
d="M373 596h183l-37 -148h-183zM261 148h184l-37 -148h-112l-28 -112h-184l37 148h112z" />
    <glyph glyph-name="less" unicode="&#x3c;" 
d="M652 820h184l-37 -148h-112l-28 -112h-112l-28 -112h-112l-19 -76h112l-28 -112h112l-27 -112h112l-37 -148h-184l28 112h-112l28 112h-112l28 112h-112l37 148h112l28 112h112l27 112h112z" />
    <glyph glyph-name="equal" unicode="=" 
d="M149 596h631l-37 -148h-631zM93 372h631l-36 -148h-632z" />
    <glyph glyph-name="greater" unicode="&#x3e;" 
d="M204 820h184l-28 -112h112l-28 -112h112l-28 -112h112l-37 -148h-112l-27 -112h-112l-28 -112h-112l-28 -112h-184l37 148h112l28 112h112l28 112h112l19 76h-112l28 112h-112l28 112h-112z" />
    <glyph glyph-name="question" unicode="?" 
d="M316 820h408l-28 -112h112l-32 -130l-33 -130h-112l-28 -112h-112l-27 -112h-184l37 148h112l28 112h112l47 188h-265l-28 -112h-183l36 148h112zM261 148h184l-37 -148h-184z" />
    <glyph glyph-name="at" unicode="@" 
d="M316 820h408l-28 -112h112l-32 -130l-56 -224l-32 -130h-408l32 130l28 112l33 130h183l-32 -130l-24 -94h41l23 94l28 112l24 94h-265l-23 -94l-84 -336l-23 -94h448l-37 -148h-520l28 112h-112l32 130l84 336l32 130h112z" />
    <glyph glyph-name="A" unicode="A" 
d="M316 820h408l-28 -112h112l-32 -130l-112 -448l-32 -130h-184l32 130l56 224l24 94h-265l-23 -94l-56 -224l-32 -130h-184l32 130l112 448l32 130h112zM336 681l-24 -94h300l24 94h-300z" />
    <glyph glyph-name="B" unicode="B" 
d="M204 820h520l-28 -112h112l-37 -148h-112l-19 -76h112l-32 -130l-28 -112l-32 -130h-112l-28 -112h-520l32 130l140 560zM336 681l-24 -94h300l24 94h-300zM280 457l-26 -103l-28 -112l-26 -103h301l25 103l28 112l26 103h-300z" />
    <glyph glyph-name="C" unicode="C" 
d="M316 820h408l-28 -112h112l-37 -148h-183l28 112h-265l-23 -94l-84 -336l-23 -94h264l28 112h183l-36 -148h-112l-28 -112h-408l28 112h-112l32 130l84 336l32 130h112z" />
    <glyph glyph-name="D" unicode="D" 
d="M204 820h520l-28 -112h112l-32 -130l-84 -336l-32 -130h-112l-28 -112h-520l32 130l140 560zM336 681l-26 -103l-84 -336l-26 -103h301l25 103l28 112l56 224l26 103h-300z" />
    <glyph glyph-name="E" unicode="E" 
d="M204 820h632l-37 -148h-448l-47 -188h224l-37 -148h-224l-46 -188h448l-37 -148h-632l32 130l140 560z" />
    <glyph glyph-name="F" unicode="F" 
d="M204 820h632l-37 -148h-448l-47 -188h336l-37 -148h-336l-23 -94l-28 -112l-32 -130h-184l32 130l140 560z" />
    <glyph glyph-name="G" unicode="G" 
d="M316 820h408l-28 -112h112l-37 -148h-183l28 112h-265l-23 -94l-84 -336l-23 -94h264l47 188h-112l37 148h295l-32 -130l-28 -112l-32 -130h-112l-28 -112h-408l28 112h-112l32 130l84 336l32 130h112z" />
    <glyph glyph-name="H" unicode="H" 
d="M204 820h184l-32 -130l-24 -94h265l23 94l32 130h184l-32 -130l-140 -560l-32 -130h-184l32 130l56 224l24 94h-265l-23 -94l-56 -224l-32 -130h-184l32 130l140 560z" />
    <glyph glyph-name="I" unicode="I" 
d="M316 820h408l-37 -148h-112l-23 -94l-84 -336l-23 -94h112l-37 -148h-408l37 148h112l23 94l84 336l24 94h-112z" />
    <glyph glyph-name="J" unicode="J" 
d="M428 820h408l-37 -148h-112l-23 -94l-84 -336l-32 -130h-112l-28 -112h-296l28 112h-112l37 148h183l-27 -112h152l23 94l84 336l24 94h-112z" />
    <glyph glyph-name="K" unicode="K" 
d="M204 820h184l-32 -130l-24 -94h153l27 112h112l28 112h184l-37 -148h-112l-28 -112h-112l-19 -76h112l-28 -112h112l-32 -130l-28 -112l-32 -130h-184l32 130l28 112l24 94h-112l28 112h-153l-23 -94l-56 -224l-32 -130h-184l32 130l140 560z" />
    <glyph glyph-name="L" unicode="L" 
d="M204 820h184l-32 -130l-112 -448l-23 -94h448l-37 -148h-632l32 130l140 560z" />
    <glyph glyph-name="M" unicode="M" 
d="M204 820h184l-28 -112h112l-28 -112h41l27 112h112l28 112h184l-32 -130l-140 -560l-32 -130h-184l32 130l84 336l24 94h-41l-28 -112h-183l28 112h-41l-23 -94l-84 -336l-32 -130h-184l32 130l140 560z" />
    <glyph glyph-name="N" unicode="N" 
d="M204 820h184l-28 -112h112l-28 -112h112l-28 -112h41l23 94l28 112l32 130h184l-32 -130l-140 -560l-32 -130h-184l32 130l28 112l24 94h-112l28 112h-112l28 112h-41l-23 -94l-84 -336l-32 -130h-184l32 130l140 560z" />
    <glyph glyph-name="O" unicode="O" 
d="M316 820h408l-28 -112h112l-32 -130l-84 -336l-32 -130h-112l-28 -112h-408l28 112h-112l32 130l84 336l32 130h112zM336 681l-26 -103l-84 -336l-26 -103h301l25 103l28 112l56 224l26 103h-300z" />
    <glyph glyph-name="P" unicode="P" 
d="M204 820h520l-28 -112h112l-32 -130l-33 -130h-112l-28 -112h-336l-23 -94l-28 -112l-32 -130h-184l32 130l140 560zM336 681l-52 -206h300l52 206h-300z" />
    <glyph glyph-name="Q" unicode="Q" 
d="M316 820h408l-28 -112h112l-32 -130l-56 -224l-32 -130h-112l-19 -76h112l-37 -148h-184l28 112h-40l-28 -112h-296l28 112h-112l32 130l84 336l32 130h112zM336 681l-26 -103l-84 -336l-26 -103h189l27 112h112l26 103l56 224l26 103h-300z" />
    <glyph glyph-name="R" unicode="R" 
d="M204 820h520l-28 -112h112l-32 -130l-33 -130h-112l-19 -76h112l-32 -130l-28 -112l-32 -130h-184l32 130l28 112l24 94h-265l-23 -94l-28 -112l-32 -130h-184l32 130l140 560zM336 681l-52 -206h300l52 206h-300z" />
    <glyph glyph-name="S" unicode="S" 
d="M316 820h408l-28 -112h112l-37 -148h-183l28 112h-265l-47 -188h336l-28 -112h112l-64 -260h-112l-28 -112h-408l28 112h-112l37 148h183l-27 -112h264l47 188h-336l28 112h-112l32 130l32 130h112z" />
    <glyph glyph-name="T" unicode="T" 
d="M204 820h632l-37 -148h-224l-23 -94l-112 -448l-32 -130h-184l32 130l112 448l24 94h-224z" />
    <glyph glyph-name="U" unicode="U" 
d="M204 820h184l-32 -130l-112 -448l-23 -94h264l23 94l112 448l32 130h184l-32 -130l-112 -448l-32 -130h-112l-28 -112h-408l28 112h-112l32 130l112 448z" />
    <glyph glyph-name="V" unicode="V" 
d="M204 820h184l-32 -130l-56 -224l-24 -94h112l-32 -130l-23 -94h40l23 94l33 130h112l23 94l56 224l32 130h184l-32 -130l-56 -224l-33 -130h-112l-23 -94l-32 -130h-112l-28 -112h-184l28 112h-112l32 130l24 94h-112l32 130l56 224z" />
    <glyph glyph-name="W" unicode="W" 
d="M204 820h184l-32 -130l-84 -336l-24 -94h41l23 94l33 130h183l-32 -130l-24 -94h41l23 94l84 336l32 130h184l-32 -130l-84 -336l-32 -130h-112l-24 -94l-32 -130h-184l32 130l24 94h-40l-24 -94l-32 -130h-184l32 130l24 94h-112l32 130l84 336z" />
    <glyph glyph-name="X" unicode="X" 
d="M204 820h184l-32 -130l-24 -94h112l-28 -112h41l28 112h112l23 94l32 130h184l-32 -130l-33 -130h-112l-28 -112h-112l-19 -76h112l-28 -112h112l-64 -260h-184l32 130l24 94h-112l28 112h-41l-27 -112h-112l-24 -94l-32 -130h-184l65 260h112l28 112h112l19 76h-112
l28 112h-112l32 130z" />
    <glyph glyph-name="Y" unicode="Y" 
d="M204 820h184l-32 -130l-24 -94h112l-28 -112h41l28 112h112l23 94l32 130h184l-32 -130l-33 -130h-112l-28 -112h-112l-23 -94l-56 -224l-32 -130h-184l32 130l56 224l24 94h-112l28 112h-112l32 130z" />
    <glyph glyph-name="Z" unicode="Z" 
d="M204 820h632l-32 -130l-33 -130h-112l-28 -112h-112l-28 -112h-112l-27 -112h-112l-19 -76h448l-37 -148h-632l65 260h112l28 112h112l28 112h112l28 112h112l19 76h-448z" />
    <glyph glyph-name="bracketleft" unicode="[" 
d="M456 932h296l-37 -148h-112l-23 -94l-140 -560l-23 -94h112l-37 -148h-296l32 130l196 784z" />
    <glyph glyph-name="backslash" unicode="\" 
d="M204 820h184l-28 -112h112l-32 -130l-24 -94h112l-28 -112h112l-32 -130l-23 -94h112l-37 -148h-184l28 112h-112l32 130l24 94h-112l28 112h-112l32 130l24 94h-112z" />
    <glyph glyph-name="bracketright" unicode="]" 
d="M344 932h296l-32 -130l-196 -784l-32 -130h-296l37 148h112l23 94l140 560l23 94h-112z" />
    <glyph glyph-name="asciicircum" unicode="^" 
d="M428 820h184l-28 -112h112l-28 -112h112l-37 -148h-183l28 112h-112l28 112h-41l-28 -112h-112l-28 -112h-183l37 148h112l27 112h112z" />
    <glyph glyph-name="underscore" unicode="_" 
d="M9 36h632l-37 -148h-632z" />
    <glyph glyph-name="grave" unicode="`" 
d="M316 820h184l-28 -112h112l-37 -148h-183l28 112h-112z" />
    <glyph glyph-name="a" unicode="a" 
d="M261 596h407l-28 -112h112l-32 -130l-56 -224l-32 -130h-520l28 112h-112l37 148h112l28 112h336l19 76h-336zM224 233l-24 -94h301l23 94h-300z" />
    <glyph glyph-name="b" unicode="b" 
d="M204 820h184l-32 -130l-28 -112l-24 -94h41l28 112h295l-28 -112h112l-32 -130l-28 -112l-32 -130h-112l-28 -112h-520l32 130l140 560zM392 457l-28 -112h-112l-52 -206h301l25 103l28 112l26 103h-188z" />
    <glyph glyph-name="c" unicode="c" 
d="M261 596h407l-28 -112h112l-37 -148h-183l28 112h-265l-23 -94l-28 -112l-23 -94h264l28 112h183l-36 -148h-112l-28 -112h-408l28 112h-112l32 130l28 112l33 130h112z" />
    <glyph glyph-name="d" unicode="d" 
d="M540 820h184l-32 -130l-112 -448l-23 -94h112l-37 -148h-184l28 112h-40l-28 -112h-296l28 112h-112l32 130l28 112l33 130h112l28 112h224l23 94zM280 457l-26 -103l-28 -112l-26 -103h189l25 103l28 112l26 103h-188z" />
    <glyph glyph-name="e" unicode="e" 
d="M261 596h407l-28 -112h112l-64 -260h-448l-19 -76h448l-37 -148h-520l28 112h-112l32 130l28 112l33 130h112zM280 457l-24 -94h300l24 94h-300z" />
    <glyph glyph-name="f" unicode="f" 
d="M428 820h296l-28 -112h112l-37 -148h-183l28 112h-153l-47 -188h224l-37 -148h-224l-23 -94l-28 -112l-32 -130h-184l32 130l28 112l24 94h-112l37 148h112l23 94l32 130h112z" />
    <glyph glyph-name="g" unicode="g" 
d="M261 596h519l-32 -130l-84 -336l-32 -130h-112l-28 -112h-520l37 148h448l19 76h-336l28 112h-112l65 260h112zM280 457l-52 -206h300l26 103l26 103h-300z" />
    <glyph glyph-name="h" unicode="h" 
d="M204 820h184l-32 -130l-28 -112l-24 -94h41l28 112h295l-28 -112h112l-32 -130l-56 -224l-32 -130h-184l32 130l56 224l24 94h-153l-28 -112h-112l-23 -94l-28 -112l-32 -130h-184l32 130l140 560z" />
    <glyph glyph-name="i" unicode="i" 
d="M428 820h184l-37 -148h-183zM261 596h295l-32 -130l-56 -224l-23 -94h112l-37 -148h-408l37 148h112l23 94l28 112l24 94h-112z" />
    <glyph glyph-name="j" unicode="j" 
d="M540 820h184l-37 -148h-183zM373 596h295l-32 -130l-84 -336l-32 -130h-112l-28 -112h-296l28 112h-112l37 148h184l-28 -112h152l23 94l56 224l24 94h-112z" />
    <glyph glyph-name="k" unicode="k" 
d="M204 820h184l-32 -130l-56 -224l-24 -94h41l28 112h112l28 112h183l-37 -148h-112l-28 -112h-112l-19 -76h112l-27 -112h224l-37 -148h-296l28 112h-112l28 112h-40l-24 -94l-32 -130h-184l32 130l140 560z" />
    <glyph glyph-name="l" unicode="l" 
d="M316 820h296l-32 -130l-112 -448l-23 -94h224l-37 -148h-296l28 112h-112l32 130l84 336l24 94h-112z" />
    <glyph glyph-name="m" unicode="m" 
d="M149 596h295l-28 -112h41l28 112h183l-28 -112h112l-32 -130l-56 -224l-32 -130h-184l32 130l56 224l24 94h-41l-23 -94l-56 -224l-32 -130h-184l32 130l56 224l24 94h-41l-23 -94l-56 -224l-32 -130h-184l32 130l84 336z" />
    <glyph glyph-name="n" unicode="n" 
d="M149 596h183l-28 -112h41l28 112h295l-28 -112h112l-32 -130l-56 -224l-32 -130h-184l32 130l56 224l24 94h-153l-28 -112h-112l-23 -94l-28 -112l-32 -130h-184l32 130l84 336z" />
    <glyph glyph-name="o" unicode="o" 
d="M261 596h407l-28 -112h112l-32 -130l-28 -112l-32 -130h-112l-28 -112h-408l28 112h-112l32 130l28 112l33 130h112zM280 457l-26 -103l-28 -112l-26 -103h301l25 103l28 112l26 103h-300z" />
    <glyph glyph-name="p" unicode="p" 
d="M149 596h183l-28 -112h41l28 112h295l-28 -112h112l-64 -260h-112l-28 -112h-336l-24 -94l-32 -130h-184l32 130l112 448zM392 457l-28 -112h-112l-24 -94h300l26 103l26 103h-188z" />
    <glyph glyph-name="q" unicode="q" 
d="M261 596h407l-32 -130l-84 -336l-23 -94h112l-37 -148h-296l32 130l24 94h-224l28 112h-112l65 260h112zM280 457l-52 -206h188l26 103l26 103h-188z" />
    <glyph glyph-name="r" unicode="r" 
d="M149 596h183l-28 -112h41l28 112h295l-28 -112h112l-37 -148h-183l28 112h-153l-28 -112h-112l-23 -94l-28 -112l-32 -130h-184l32 130l84 336z" />
    <glyph glyph-name="s" unicode="s" 
d="M261 596h519l-37 -148h-448l-19 -76h336l-28 -112h112l-36 -148h-112l-28 -112h-520l37 148h448l19 76h-336l28 112h-112l37 148h112z" />
    <glyph glyph-name="t" unicode="t" 
d="M316 820h184l-32 -130l-24 -94h224l-37 -148h-224l-23 -94l-28 -112l-23 -94h336l-37 -148h-408l28 112h-112l32 130l28 112l24 94h-112l37 148h112l23 94z" />
    <glyph glyph-name="u" unicode="u" 
d="M149 596h183l-32 -130l-56 -224l-23 -94h152l23 94l56 224l33 130h183l-32 -130l-56 -224l-23 -94h112l-37 -148h-184l28 112h-40l-28 -112h-296l28 112h-112l32 130l56 224z" />
    <glyph glyph-name="v" unicode="v" 
d="M149 596h183l-32 -130l-28 -112l-24 -94h112l-27 -112h40l28 112h112l23 94l28 112l33 130h183l-32 -130l-28 -112l-32 -130h-112l-28 -112h-112l-28 -112h-184l28 112h-112l28 112h-112l32 130l28 112z" />
    <glyph glyph-name="w" unicode="w" 
d="M149 596h183l-32 -130l-28 -112l-24 -94h41l23 94l33 130h183l-32 -130l-24 -94h41l23 94l28 112l33 130h183l-32 -130l-28 -112l-32 -130h-112l-24 -94l-32 -130h-184l32 130l24 94h-40l-24 -94l-32 -130h-184l32 130l24 94h-112l32 130l28 112z" />
    <glyph glyph-name="x" unicode="x" 
d="M149 596h295l-32 -130l-24 -94h41l23 94l33 130h295l-37 -148h-112l-28 -112h-112l-19 -76h112l-27 -112h112l-37 -148h-296l32 130l24 94h-40l-24 -94l-32 -130h-296l37 148h112l28 112h112l19 76h-112l28 112h-112z" />
    <glyph glyph-name="y" unicode="y" 
d="M149 596h183l-32 -130l-28 -112l-24 -94h265l23 94l28 112l33 130h183l-32 -130l-84 -336l-32 -130h-112l-28 -112h-520l37 148h448l19 76h-336l28 112h-112l32 130l28 112z" />
    <glyph glyph-name="z" unicode="z" 
d="M149 596h631l-37 -148h-112l-28 -112h-112l-27 -112h-112l-19 -76h336l-37 -148h-632l37 148h112l28 112h112l28 112h112l19 76h-336z" />
    <glyph glyph-name="braceleft" unicode="{" 
d="M456 932h296l-37 -148h-224l-47 -188h112l-37 -148h-112l-19 -76h112l-36 -148h-112l-47 -188h224l-37 -148h-296l28 112h-112l65 260h112l19 76h-224l37 148h224l19 76h-112l32 130l32 130h112z" />
    <glyph glyph-name="bar" unicode="|" 
d="M456 932h184l-32 -130l-196 -784l-32 -130h-184l32 130l196 784z" />
    <glyph glyph-name="braceright" unicode="}" 
d="M344 932h296l-28 -112h112l-32 -130l-33 -130h-112l-19 -76h224l-37 -148h-224l-19 -76h112l-64 -260h-112l-28 -112h-296l37 148h224l47 188h-112l37 148h112l19 76h-112l37 148h112l23 94l23 94h-224z" />
    <glyph glyph-name="asciitilde" unicode="~" 
d="M261 596h183l-28 -112h112l-28 -112h41l23 94l33 130h183l-65 -260h-112l-27 -112h-184l28 112h-112l28 112h-41l-23 -94l-32 -130h-184l65 260h112z" />
    <glyph glyph-name="uniA7F2" unicode="&#xa7f2;" 
d="M428 820h296l-37 -148h-224l-47 -188h224l-37 -148h-295l28 112h-112l32 130l32 130h112z" />
    <glyph glyph-name="uniA7F3" unicode="&#xa7f3;" 
d="M316 820h408l-37 -148h-224l-19 -76h112l-37 -148h-112l-28 -112h-183l32 130l56 224z" />
    <glyph glyph-name="uniA7F4" unicode="&#xa7f4;" 
d="M316 820h296l-28 -112h112l-37 -148h-112l-19 -76h112l-37 -148h-183l28 112h-41l-28 -112h-183l28 112h-112l32 130l32 130h112zM336 681l-52 -206h76l28 112h112l24 94h-188z" />
    <glyph glyph-name="uniA7F9" unicode="&#xa7f9;" 
d="M316 820h184l-28 -112h40l28 112h184l-28 -112h112l-37 -148h-224l-19 -76h224l-37 -148h-295l28 112h-41l-28 -112h-183l28 112h-112l32 130l32 130h112zM336 681l-52 -206h76l52 206h-76z" />
    <glyph glyph-name="uni400" unicode="&#x400;" 
d="M204 820h632l-37 -148h-448l-47 -188h224l-37 -148h-224l-46 -188h448l-37 -148h-632l32 130l140 560z" />
    <glyph glyph-name="uni401" unicode="&#x401;" 
d="M372 1044h184l-37 -148h-184zM596 1044h184l-37 -148h-184zM204 820h632l-37 -148h-448l-47 -188h224l-37 -148h-224l-46 -188h448l-37 -148h-632l32 130l140 560z" />
    <glyph glyph-name="uni402" unicode="&#x402;" 
d="M204 820h520l-37 -148h-224l-23 -94l-28 -112l-24 -94h41l28 112h183l-28 -112h112l-32 -130l-28 -112l-32 -130h-112l-28 -112h-184l37 148h112l23 94l28 112l24 94h-41l-27 -112h-112l-24 -94l-32 -130h-184l32 130l112 448l24 94h-112z" />
    <glyph glyph-name="uni403" unicode="&#x403;" 
d="M624 1156h184l-37 -148h-112l-28 -112h-184l37 148h112zM204 820h632l-37 -148h-448l-23 -94l-112 -448l-32 -130h-184l32 130l140 560z" />
    <glyph glyph-name="uni404" unicode="&#x404;" 
d="M316 820h408l-28 -112h112l-37 -148h-183l28 112h-265l-47 -188h336l-37 -148h-336l-46 -188h264l28 112h183l-36 -148h-112l-28 -112h-408l28 112h-112l32 130l84 336l32 130h112z" />
    <glyph glyph-name="uni405" unicode="&#x405;" 
d="M316 820h408l-28 -112h112l-37 -148h-183l28 112h-265l-47 -188h336l-28 -112h112l-64 -260h-112l-28 -112h-408l28 112h-112l37 148h183l-27 -112h264l47 188h-336l28 112h-112l32 130l32 130h112z" />
    <glyph glyph-name="uni406" unicode="&#x406;" 
d="M316 820h408l-37 -148h-112l-23 -94l-84 -336l-23 -94h112l-37 -148h-408l37 148h112l23 94l84 336l24 94h-112z" />
    <glyph glyph-name="uni407" unicode="&#x407;" 
d="M372 1044h184l-37 -148h-184zM596 1044h184l-37 -148h-184zM316 820h408l-37 -148h-112l-23 -94l-84 -336l-23 -94h112l-37 -148h-408l37 148h112l23 94l84 336l24 94h-112z" />
    <glyph glyph-name="uni408" unicode="&#x408;" 
d="M428 820h408l-37 -148h-112l-23 -94l-84 -336l-32 -130h-112l-28 -112h-296l28 112h-112l37 148h183l-27 -112h152l23 94l84 336l24 94h-112z" />
    <glyph glyph-name="uni409" unicode="&#x409;" 
d="M316 820h296l-32 -130l-28 -112l-24 -94h112l-28 -112h112l-64 -260h-112l-28 -112h-296l32 130l112 448l24 94h-41l-23 -94l-112 -448l-32 -130h-184l32 130l112 448l32 130h112zM476 345l-52 -206h77l25 103l26 103h-76z" />
    <glyph glyph-name="uni40A" unicode="&#x40a;" 
d="M204 820h184l-32 -130l-28 -112l-24 -94h41l23 94l28 112l32 130h184l-32 -130l-28 -112l-24 -94h112l-28 -112h112l-64 -260h-112l-28 -112h-296l32 130l28 112l24 94h-41l-23 -94l-28 -112l-32 -130h-184l32 130l140 560zM476 345l-52 -206h77l25 103l26 103h-76z" />
    <glyph glyph-name="uni40B" unicode="&#x40b;" 
d="M204 820h520l-37 -148h-224l-23 -94l-28 -112l-24 -94h41l28 112h183l-28 -112h112l-32 -130l-28 -112l-32 -130h-184l32 130l28 112l24 94h-41l-27 -112h-112l-24 -94l-32 -130h-184l32 130l112 448l24 94h-112z" />
    <glyph glyph-name="uni40C" unicode="&#x40c;" 
d="M624 1156h184l-37 -148h-112l-28 -112h-184l37 148h112zM204 820h184l-32 -130l-24 -94h153l27 112h112l28 112h184l-37 -148h-112l-28 -112h-112l-19 -76h112l-28 -112h112l-32 -130l-28 -112l-32 -130h-184l32 130l28 112l24 94h-112l28 112h-153l-23 -94l-56 -224
l-32 -130h-184l32 130l140 560z" />
    <glyph glyph-name="uni40D" unicode="&#x40d;" 
d="M512 1156h184l-28 -112h112l-37 -148h-184l28 112h-112zM204 820h184l-32 -130l-28 -112l-24 -94h41l28 112h112l27 112h112l28 112h184l-32 -130l-140 -560l-32 -130h-184l32 130l84 336l24 94h-41l-28 -112h-112l-28 -112h-112l-23 -94l-28 -112l-32 -130h-184l32 130
l140 560z" />
    <glyph glyph-name="uni40E" unicode="&#x40e;" 
d="M400 1156h184l-28 -112h40l28 112h184l-37 -148h-112l-28 -112h-184l28 112h-112zM204 820h184l-32 -130l-24 -94h112l-32 -130l-24 -94h41l23 94l33 130h112l23 94l32 130h184l-32 -130l-33 -130h-112l-23 -94l-33 -130h-112l-23 -94l-32 -130h-112l-28 -112h-184
l37 148h112l47 188h-112l32 130l24 94h-112l32 130z" />
    <glyph glyph-name="uni40F" unicode="&#x40f;" 
d="M204 820h184l-32 -130l-112 -448l-23 -94h264l23 94l112 448l32 130h184l-32 -130l-140 -560l-32 -130h-224l-28 -112h-184l28 112h-224l32 130l140 560z" />
    <glyph glyph-name="uni410" unicode="&#x410;" 
d="M316 820h408l-28 -112h112l-32 -130l-112 -448l-32 -130h-184l32 130l56 224l24 94h-265l-23 -94l-56 -224l-32 -130h-184l32 130l112 448l32 130h112zM336 681l-24 -94h300l24 94h-300z" />
    <glyph glyph-name="uni411" unicode="&#x411;" 
d="M204 820h632l-37 -148h-448l-19 -76h336l-28 -112h112l-32 -130l-28 -112l-32 -130h-112l-28 -112h-520l32 130l140 560zM280 457l-26 -103l-28 -112l-26 -103h301l25 103l28 112l26 103h-300z" />
    <glyph glyph-name="uni412" unicode="&#x412;" 
d="M204 820h520l-28 -112h112l-37 -148h-112l-19 -76h112l-32 -130l-28 -112l-32 -130h-112l-28 -112h-520l32 130l140 560zM336 681l-24 -94h300l24 94h-300zM280 457l-26 -103l-28 -112l-26 -103h301l25 103l28 112l26 103h-300z" />
    <glyph glyph-name="uni413" unicode="&#x413;" 
d="M204 820h632l-37 -148h-448l-23 -94l-112 -448l-32 -130h-184l32 130l140 560z" />
    <glyph glyph-name="uni414" unicode="&#x414;" 
d="M428 820h408l-32 -130l-168 -672l-32 -130h-184l28 112h-264l-28 -112h-184l32 130l28 112l33 130h112l23 94l28 112l33 130h112l23 94zM560 681l-28 -112h-112l-26 -103l-28 -112l-30 -121h-112l-24 -94h301l25 103l28 112l56 224l26 103h-76z" />
    <glyph glyph-name="uni415" unicode="&#x415;" 
d="M204 820h632l-37 -148h-448l-47 -188h224l-37 -148h-224l-46 -188h448l-37 -148h-632l32 130l140 560z" />
    <glyph glyph-name="uni416" unicode="&#x416;" 
d="M204 820h184l-32 -130l-28 -112l-24 -94h41l23 94l28 112l32 130h184l-32 -130l-28 -112l-24 -94h41l23 94l28 112l32 130h184l-32 -130l-28 -112l-33 -130h-112l-19 -76h112l-32 -130l-28 -112l-32 -130h-184l32 130l28 112l24 94h-41l-23 -94l-28 -112l-32 -130h-184
l32 130l28 112l24 94h-41l-23 -94l-28 -112l-32 -130h-184l32 130l28 112l33 130h112l19 76h-112l32 130l28 112z" />
    <glyph glyph-name="uni417" unicode="&#x417;" 
d="M316 820h408l-28 -112h112l-32 -130l-33 -130h-112l-19 -76h112l-64 -260h-112l-28 -112h-408l28 112h-112l37 148h183l-27 -112h264l47 188h-224l37 148h224l47 188h-265l-28 -112h-183l36 148h112z" />
    <glyph glyph-name="uni418" unicode="&#x418;" 
d="M204 820h184l-32 -130l-28 -112l-24 -94h41l28 112h112l27 112h112l28 112h184l-32 -130l-140 -560l-32 -130h-184l32 130l84 336l24 94h-41l-28 -112h-112l-28 -112h-112l-23 -94l-28 -112l-32 -130h-184l32 130l140 560z" />
    <glyph glyph-name="uni419" unicode="&#x419;" 
d="M400 1156h184l-28 -112h40l28 112h184l-37 -148h-112l-28 -112h-184l28 112h-112zM204 820h184l-32 -130l-28 -112l-24 -94h41l28 112h112l27 112h112l28 112h184l-32 -130l-140 -560l-32 -130h-184l32 130l84 336l24 94h-41l-28 -112h-112l-28 -112h-112l-23 -94
l-28 -112l-32 -130h-184l32 130l140 560z" />
    <glyph glyph-name="uni41A" unicode="&#x41a;" 
d="M204 820h184l-32 -130l-24 -94h153l27 112h112l28 112h184l-37 -148h-112l-28 -112h-112l-19 -76h112l-28 -112h112l-32 -130l-28 -112l-32 -130h-184l32 130l28 112l24 94h-112l28 112h-153l-23 -94l-56 -224l-32 -130h-184l32 130l140 560z" />
    <glyph glyph-name="uni41B" unicode="&#x41b;" 
d="M428 820h408l-32 -130l-140 -560l-32 -130h-184l32 130l112 448l24 94h-41l-28 -112h-112l-23 -94l-28 -112l-32 -130h-112l-24 -94l-32 -130h-184l65 260h112l23 94l28 112l33 130h112l23 94z" />
    <glyph glyph-name="uni41C" unicode="&#x41c;" 
d="M204 820h184l-28 -112h112l-28 -112h41l27 112h112l28 112h184l-32 -130l-140 -560l-32 -130h-184l32 130l84 336l24 94h-41l-28 -112h-183l28 112h-41l-23 -94l-84 -336l-32 -130h-184l32 130l140 560z" />
    <glyph glyph-name="uni41D" unicode="&#x41d;" 
d="M204 820h184l-32 -130l-24 -94h265l23 94l32 130h184l-32 -130l-140 -560l-32 -130h-184l32 130l56 224l24 94h-265l-23 -94l-56 -224l-32 -130h-184l32 130l140 560z" />
    <glyph glyph-name="uni41E" unicode="&#x41e;" 
d="M316 820h408l-28 -112h112l-32 -130l-84 -336l-32 -130h-112l-28 -112h-408l28 112h-112l32 130l84 336l32 130h112zM336 681l-26 -103l-84 -336l-26 -103h301l25 103l28 112l56 224l26 103h-300z" />
    <glyph glyph-name="uni41F" unicode="&#x41f;" 
d="M204 820h632l-32 -130l-140 -560l-32 -130h-184l32 130l112 448l24 94h-265l-23 -94l-112 -448l-32 -130h-184l32 130l140 560z" />
    <glyph glyph-name="uni420" unicode="&#x420;" 
d="M204 820h520l-28 -112h112l-32 -130l-33 -130h-112l-28 -112h-336l-23 -94l-28 -112l-32 -130h-184l32 130l140 560zM336 681l-52 -206h300l52 206h-300z" />
    <glyph glyph-name="uni421" unicode="&#x421;" 
d="M316 820h408l-28 -112h112l-37 -148h-183l28 112h-265l-23 -94l-84 -336l-23 -94h264l28 112h183l-36 -148h-112l-28 -112h-408l28 112h-112l32 130l84 336l32 130h112z" />
    <glyph glyph-name="uni422" unicode="&#x422;" 
d="M204 820h632l-37 -148h-224l-23 -94l-112 -448l-32 -130h-184l32 130l112 448l24 94h-224z" />
    <glyph glyph-name="uni423" unicode="&#x423;" 
d="M204 820h184l-32 -130l-24 -94h112l-32 -130l-24 -94h41l23 94l33 130h112l23 94l32 130h184l-32 -130l-33 -130h-112l-23 -94l-33 -130h-112l-23 -94l-32 -130h-112l-28 -112h-184l37 148h112l47 188h-112l32 130l24 94h-112l32 130z" />
    <glyph glyph-name="uni424" unicode="&#x424;" 
d="M428 820h184l-28 -112h112l-28 -112h112l-32 -130l-28 -112l-32 -130h-112l-28 -112h-112l-28 -112h-184l28 112h-112l28 112h-112l32 130l28 112l33 130h112l27 112h112zM308 569l-26 -103l-28 -112l-26 -103h76l26 103l28 112l26 103h-76zM532 569l-26 -103l-28 -112
l-26 -103h76l26 103l28 112l26 103h-76z" />
    <glyph glyph-name="uni425" unicode="&#x425;" 
d="M204 820h184l-32 -130l-24 -94h112l-28 -112h41l28 112h112l23 94l32 130h184l-32 -130l-33 -130h-112l-28 -112h-112l-19 -76h112l-28 -112h112l-64 -260h-184l32 130l24 94h-112l28 112h-41l-27 -112h-112l-24 -94l-32 -130h-184l65 260h112l28 112h112l19 76h-112
l28 112h-112l32 130z" />
    <glyph glyph-name="uni426" unicode="&#x426;" 
d="M204 820h184l-32 -130l-112 -448l-23 -94h152l23 94l112 448l32 130h184l-32 -130l-112 -448l-23 -94h112l-65 -260h-184l28 112h-448l32 130l140 560z" />
    <glyph glyph-name="uni427" unicode="&#x427;" 
d="M204 820h184l-32 -130l-56 -224l-24 -94h265l23 94l56 224l32 130h184l-32 -130l-140 -560l-32 -130h-184l32 130l24 94h-336l28 112h-112l32 130l56 224z" />
    <glyph glyph-name="uni428" unicode="&#x428;" 
d="M204 820h184l-32 -130l-112 -448l-23 -94h40l23 94l112 448l32 130h184l-32 -130l-112 -448l-23 -94h40l23 94l112 448l32 130h184l-32 -130l-140 -560l-32 -130h-632l32 130l140 560z" />
    <glyph glyph-name="uni429" unicode="&#x429;" 
d="M204 820h184l-32 -130l-112 -448l-23 -94h40l23 94l112 448l32 130h184l-32 -130l-112 -448l-23 -94h40l23 94l112 448l32 130h184l-32 -130l-168 -672l-32 -130h-184l28 112h-448l32 130l140 560z" />
    <glyph glyph-name="uni42A" unicode="&#x42a;" 
d="M204 820h296l-32 -130l-28 -112l-24 -94h224l-28 -112h112l-64 -260h-112l-28 -112h-408l32 130l112 448l24 94h-112zM364 345l-52 -206h189l25 103l26 103h-188z" />
    <glyph glyph-name="uni42B" unicode="&#x42b;" 
d="M204 820h184l-32 -130l-28 -112l-24 -94h224l-28 -112h41l23 94l56 224l32 130h184l-32 -130l-140 -560l-32 -130h-184l28 112h-40l-28 -112h-408l32 130l140 560zM252 345l-52 -206h189l25 103l26 103h-188z" />
    <glyph glyph-name="uni42C" unicode="&#x42c;" 
d="M204 820h184l-32 -130l-28 -112l-24 -94h336l-28 -112h112l-64 -260h-112l-28 -112h-520l32 130l140 560zM252 345l-52 -206h301l25 103l26 103h-300z" />
    <glyph glyph-name="uni42D" unicode="&#x42d;" 
d="M316 820h408l-28 -112h112l-32 -130l-84 -336l-32 -130h-112l-28 -112h-408l28 112h-112l37 148h183l-27 -112h264l47 188h-336l37 148h336l47 188h-265l-28 -112h-183l36 148h112z" />
    <glyph glyph-name="uni42E" unicode="&#x42e;" 
d="M204 820h184l-32 -130l-28 -112l-24 -94h41l23 94l32 130h112l28 112h184l-28 -112h112l-32 -130l-84 -336l-32 -130h-112l-28 -112h-184l28 112h-112l32 130l24 94h-41l-23 -94l-28 -112l-32 -130h-184l32 130l140 560zM560 681l-26 -103l-84 -336l-26 -103h77l25 103
l28 112l56 224l26 103h-76z" />
    <glyph glyph-name="uni42F" unicode="&#x42f;" 
d="M316 820h520l-32 -130l-140 -560l-32 -130h-184l32 130l28 112l24 94h-265l-23 -94l-28 -112l-32 -130h-184l32 130l28 112l33 130h112l19 76h-112l32 130l32 130h112zM336 681l-52 -206h300l52 206h-300z" />
    <glyph glyph-name="uni430" unicode="&#x430;" 
d="M261 596h407l-28 -112h112l-32 -130l-56 -224l-32 -130h-520l28 112h-112l37 148h112l28 112h336l19 76h-336zM224 233l-24 -94h301l23 94h-300z" />
    <glyph glyph-name="uni431" unicode="&#x431;" 
d="M316 820h408l-37 -148h-336l-47 -188h41l28 112h295l-28 -112h112l-32 -130l-28 -112l-32 -130h-112l-28 -112h-408l28 112h-112l32 130l84 336l32 130h112zM392 457l-28 -112h-112l-52 -206h301l25 103l28 112l26 103h-188z" />
    <glyph glyph-name="uni432" unicode="&#x432;" 
d="M261 596h407l-28 -112h112l-37 -148h-112l-19 -76h112l-36 -148h-112l-28 -112h-408l32 130l84 336zM392 457l-24 -94h188l24 94h-188zM336 233l-24 -94h189l23 94h-188z" />
    <glyph glyph-name="uni433" unicode="&#x433;" 
d="M261 596h519l-37 -148h-336l-23 -94l-56 -224l-32 -130h-184l32 130l84 336z" />
    <glyph glyph-name="uni434" unicode="&#x434;" 
d="M261 596h519l-32 -130l-112 -448l-32 -130h-184l28 112h-264l-28 -112h-184l32 130l28 112l33 130h112l23 94l28 112zM392 457l-26 -103l-30 -121h-112l-24 -94h301l25 103l28 112l26 103h-188z" />
    <glyph glyph-name="uni435" unicode="&#x435;" 
d="M261 596h407l-28 -112h112l-64 -260h-448l-19 -76h448l-37 -148h-520l28 112h-112l32 130l28 112l33 130h112zM280 457l-24 -94h300l24 94h-300z" />
    <glyph glyph-name="uni436" unicode="&#x436;" 
d="M149 596h183l-32 -130l-24 -94h41l23 94l33 130h183l-32 -130l-24 -94h41l23 94l33 130h183l-65 -260h-112l-19 -76h112l-64 -260h-184l32 130l24 94h-40l-24 -94l-32 -130h-184l32 130l24 94h-40l-24 -94l-32 -130h-184l65 260h112l19 76h-112l32 130z" />
    <glyph glyph-name="uni437" unicode="&#x437;" 
d="M261 596h407l-28 -112h112l-37 -148h-112l-19 -76h112l-36 -148h-112l-28 -112h-408l28 112h-112l37 148h183l-27 -112h264l19 76h-224l37 148h224l19 76h-265l-28 -112h-183l37 148h112z" />
    <glyph glyph-name="uni438" unicode="&#x438;" 
d="M149 596h183l-32 -130l-28 -112l-24 -94h41l28 112h112l28 112h112l28 112h183l-32 -130l-84 -336l-32 -130h-184l32 130l28 112l24 94h-41l-27 -112h-112l-28 -112h-112l-28 -112h-184l32 130l84 336z" />
    <glyph glyph-name="uni439" unicode="&#x439;" 
d="M344 932h184l-28 -112h40l28 112h184l-37 -148h-112l-28 -112h-183l27 112h-112zM149 596h183l-32 -130l-28 -112l-24 -94h41l28 112h112l28 112h112l28 112h183l-32 -130l-84 -336l-32 -130h-184l32 130l28 112l24 94h-41l-27 -112h-112l-28 -112h-112l-28 -112h-184
l32 130l84 336z" />
    <glyph glyph-name="uni43A" unicode="&#x43a;" 
d="M149 596h183l-32 -130l-24 -94h153l28 112h112l28 112h183l-37 -148h-112l-28 -112h-112l-19 -76h112l-27 -112h112l-37 -148h-184l28 112h-112l28 112h-152l-24 -94l-32 -130h-184l32 130l84 336z" />
    <glyph glyph-name="uni43B" unicode="&#x43b;" 
d="M261 596h519l-32 -130l-84 -336l-32 -130h-184l32 130l56 224l24 94h-153l-23 -94l-32 -130h-112l-24 -94l-32 -130h-184l65 260h112l23 94l28 112z" />
    <glyph glyph-name="uni43C" unicode="&#x43c;" 
d="M149 596h183l-28 -112h112l-28 -112h41l28 112h112l28 112h183l-32 -130l-84 -336l-32 -130h-184l32 130l28 112l24 94h-41l-27 -112h-184l28 112h-41l-23 -94l-28 -112l-32 -130h-184l32 130l84 336z" />
    <glyph glyph-name="uni43D" unicode="&#x43d;" 
d="M149 596h183l-32 -130l-24 -94h265l23 94l33 130h183l-32 -130l-84 -336l-32 -130h-184l32 130l24 94h-264l-24 -94l-32 -130h-184l32 130l84 336z" />
    <glyph glyph-name="uni43E" unicode="&#x43e;" 
d="M261 596h407l-28 -112h112l-32 -130l-28 -112l-32 -130h-112l-28 -112h-408l28 112h-112l32 130l28 112l33 130h112zM280 457l-26 -103l-28 -112l-26 -103h301l25 103l28 112l26 103h-300z" />
    <glyph glyph-name="uni43F" unicode="&#x43f;" 
d="M149 596h631l-32 -130l-84 -336l-32 -130h-184l32 130l56 224l24 94h-265l-23 -94l-56 -224l-32 -130h-184l32 130l84 336z" />
    <glyph glyph-name="uni440" unicode="&#x440;" 
d="M149 596h183l-28 -112h41l28 112h295l-28 -112h112l-64 -260h-112l-28 -112h-336l-24 -94l-32 -130h-184l32 130l112 448zM392 457l-28 -112h-112l-24 -94h300l26 103l26 103h-188z" />
    <glyph glyph-name="uni441" unicode="&#x441;" 
d="M261 596h407l-28 -112h112l-37 -148h-183l28 112h-265l-23 -94l-28 -112l-23 -94h264l28 112h183l-36 -148h-112l-28 -112h-408l28 112h-112l32 130l28 112l33 130h112z" />
    <glyph glyph-name="uni442" unicode="&#x442;" 
d="M149 596h631l-37 -148h-224l-23 -94l-56 -224l-32 -130h-184l32 130l56 224l24 94h-224z" />
    <glyph glyph-name="uni443" unicode="&#x443;" 
d="M149 596h183l-32 -130l-24 -94h112l-32 -130l-23 -94h40l23 94l33 130h112l23 94l33 130h183l-65 -260h-112l-23 -94l-32 -130h-112l-24 -94l-32 -130h-112l-28 -112h-184l37 148h112l47 188h-112l32 130l24 94h-112l32 130z" />
    <glyph glyph-name="uni444" unicode="&#x444;" 
d="M428 820h184l-32 -130l-24 -94h112l-28 -112h112l-32 -130l-28 -112l-32 -130h-112l-28 -112h-112l-24 -94l-32 -130h-184l33 130l23 94h-112l28 112h-112l32 130l28 112l33 130h112l28 112h112l23 94zM280 457l-26 -103l-28 -112l-26 -103h77l25 103l28 112l26 103h-76z
M504 457l-26 -103l-28 -112l-26 -103h77l25 103l28 112l26 103h-76z" />
    <glyph glyph-name="uni445" unicode="&#x445;" 
d="M149 596h295l-32 -130l-24 -94h41l23 94l33 130h295l-37 -148h-112l-28 -112h-112l-19 -76h112l-27 -112h112l-37 -148h-296l32 130l24 94h-40l-24 -94l-32 -130h-296l37 148h112l28 112h112l19 76h-112l28 112h-112z" />
    <glyph glyph-name="uni446" unicode="&#x446;" 
d="M149 596h183l-32 -130l-56 -224l-23 -94h152l23 94l56 224l33 130h183l-32 -130l-56 -224l-23 -94h112l-65 -260h-184l28 112h-448l32 130l84 336z" />
    <glyph glyph-name="uni447" unicode="&#x447;" 
d="M149 596h183l-32 -130l-28 -112l-24 -94h265l23 94l28 112l33 130h183l-32 -130l-84 -336l-32 -130h-184l28 112h-336l28 112h-112l32 130l28 112z" />
    <glyph glyph-name="uni448" unicode="&#x448;" 
d="M149 596h183l-32 -130l-56 -224l-23 -94h40l23 94l56 224l33 130h183l-32 -130l-56 -224l-23 -94h40l23 94l56 224l33 130h183l-32 -130l-84 -336l-32 -130h-632l32 130l84 336z" />
    <glyph glyph-name="uni449" unicode="&#x449;" 
d="M149 596h183l-32 -130l-56 -224l-23 -94h40l23 94l56 224l33 130h183l-32 -130l-56 -224l-23 -94h40l23 94l56 224l33 130h183l-32 -130l-112 -448l-32 -130h-184l28 112h-448l32 130l84 336z" />
    <glyph glyph-name="uni44A" unicode="&#x44a;" 
d="M149 596h295l-28 -112h224l-28 -112h112l-64 -260h-112l-28 -112h-408l32 130l56 224l24 94h-112zM364 345l-52 -206h189l25 103l26 103h-188z" />
    <glyph glyph-name="uni44B" unicode="&#x44b;" 
d="M149 596h183l-28 -112h224l-28 -112h41l23 94l33 130h183l-32 -130l-84 -336l-32 -130h-184l28 112h-40l-28 -112h-408l32 130l84 336zM252 345l-52 -206h189l25 103l26 103h-188z" />
    <glyph glyph-name="uni44C" unicode="&#x44c;" 
d="M149 596h183l-28 -112h336l-28 -112h112l-64 -260h-112l-28 -112h-520l32 130l84 336zM252 345l-52 -206h301l25 103l26 103h-300z" />
    <glyph glyph-name="uni44D" unicode="&#x44d;" 
d="M261 596h407l-28 -112h112l-32 -130l-28 -112l-32 -130h-112l-28 -112h-408l28 112h-112l37 148h183l-27 -112h264l19 76h-224l37 148h224l19 76h-265l-28 -112h-183l37 148h112z" />
    <glyph glyph-name="uni44E" unicode="&#x44e;" 
d="M149 596h183l-32 -130l-24 -94h41l28 112h112l28 112h183l-28 -112h112l-32 -130l-28 -112l-32 -130h-112l-28 -112h-184l28 112h-112l28 112h-40l-24 -94l-32 -130h-184l32 130l84 336zM504 457l-26 -103l-28 -112l-26 -103h77l25 103l28 112l26 103h-76z" />
    <glyph glyph-name="uni44F" unicode="&#x44f;" 
d="M261 596h519l-32 -130l-84 -336l-32 -130h-184l32 130l24 94h-264l-24 -94l-32 -130h-184l65 260h112l19 76h-112l37 148h112zM280 457l-24 -94h300l24 94h-300z" />
    <glyph glyph-name="uni450" unicode="&#x450;" 
d="M456 932h184l-28 -112h112l-37 -148h-183l27 112h-112zM261 596h407l-28 -112h112l-64 -260h-448l-19 -76h448l-37 -148h-520l28 112h-112l32 130l28 112l33 130h112zM280 457l-24 -94h300l24 94h-300z" />
    <glyph glyph-name="uni451" unicode="&#x451;" 
d="M316 820h184l-37 -148h-183zM540 820h184l-37 -148h-183zM261 596h407l-28 -112h112l-64 -260h-448l-19 -76h448l-37 -148h-520l28 112h-112l32 130l28 112l33 130h112zM280 457l-24 -94h300l24 94h-300z" />
    <glyph glyph-name="uni452" unicode="&#x452;" 
d="M316 820h184l-28 -112h112l-37 -148h-112l-47 -188h41l28 112h183l-28 -112h112l-32 -130l-28 -112l-32 -130h-112l-28 -112h-184l37 148h112l23 94l28 112l24 94h-41l-27 -112h-112l-24 -94l-32 -130h-184l32 130l84 336l24 94h-112l36 148h112z" />
    <glyph glyph-name="uni453" unicode="&#x453;" 
d="M568 932h184l-37 -148h-112l-28 -112h-183l36 148h112zM261 596h519l-37 -148h-336l-23 -94l-56 -224l-32 -130h-184l32 130l84 336z" />
    <glyph glyph-name="uni454" unicode="&#x454;" 
d="M261 596h407l-28 -112h112l-37 -148h-183l28 112h-265l-19 -76h224l-36 -148h-224l-19 -76h264l28 112h183l-36 -148h-112l-28 -112h-408l28 112h-112l32 130l28 112l33 130h112z" />
    <glyph glyph-name="uni455" unicode="&#x455;" 
d="M261 596h519l-37 -148h-448l-19 -76h336l-28 -112h112l-36 -148h-112l-28 -112h-520l37 148h448l19 76h-336l28 112h-112l37 148h112z" />
    <glyph glyph-name="uni456" unicode="&#x456;" 
d="M428 820h184l-37 -148h-183zM261 596h295l-32 -130l-56 -224l-23 -94h112l-37 -148h-408l37 148h112l23 94l28 112l24 94h-112z" />
    <glyph glyph-name="uni457" unicode="&#x457;" 
d="M316 820h184l-37 -148h-183zM540 820h184l-37 -148h-183zM261 596h295l-32 -130l-56 -224l-23 -94h112l-37 -148h-408l37 148h112l23 94l28 112l24 94h-112z" />
    <glyph glyph-name="uni458" unicode="&#x458;" 
d="M540 820h184l-37 -148h-183zM373 596h295l-32 -130l-84 -336l-32 -130h-112l-28 -112h-296l28 112h-112l37 148h184l-28 -112h152l23 94l56 224l24 94h-112z" />
    <glyph glyph-name="uni459" unicode="&#x459;" 
d="M261 596h295l-32 -130l-24 -94h112l-28 -112h112l-36 -148h-112l-28 -112h-296l32 130l56 224l24 94h-41l-23 -94l-56 -224l-32 -130h-184l32 130l56 224l33 130h112zM448 233l-24 -94h77l23 94h-76z" />
    <glyph glyph-name="uni45A" unicode="&#x45a;" 
d="M149 596h183l-32 -130l-24 -94h41l23 94l33 130h183l-32 -130l-24 -94h112l-28 -112h112l-36 -148h-112l-28 -112h-296l32 130l24 94h-40l-24 -94l-32 -130h-184l32 130l84 336zM448 233l-24 -94h77l23 94h-76z" />
    <glyph glyph-name="uni45B" unicode="&#x45b;" 
d="M316 820h184l-28 -112h112l-37 -148h-112l-47 -188h41l28 112h183l-28 -112h112l-32 -130l-28 -112l-32 -130h-184l32 130l28 112l24 94h-41l-27 -112h-112l-24 -94l-32 -130h-184l32 130l84 336l24 94h-112l36 148h112z" />
    <glyph glyph-name="uni45C" unicode="&#x45c;" 
d="M568 932h184l-37 -148h-112l-28 -112h-183l36 148h112zM149 596h183l-32 -130l-24 -94h153l28 112h112l28 112h183l-37 -148h-112l-28 -112h-112l-19 -76h112l-27 -112h112l-37 -148h-184l28 112h-112l28 112h-152l-24 -94l-32 -130h-184l32 130l84 336z" />
    <glyph glyph-name="uni45D" unicode="&#x45d;" 
d="M456 932h184l-28 -112h112l-37 -148h-183l27 112h-112zM149 596h183l-32 -130l-28 -112l-24 -94h41l28 112h112l28 112h112l28 112h183l-32 -130l-84 -336l-32 -130h-184l32 130l28 112l24 94h-41l-27 -112h-112l-28 -112h-112l-28 -112h-184l32 130l84 336z" />
    <glyph glyph-name="uni45E" unicode="&#x45e;" 
d="M344 932h184l-28 -112h40l28 112h184l-37 -148h-112l-28 -112h-183l27 112h-112zM149 596h183l-32 -130l-24 -94h112l-32 -130l-23 -94h40l23 94l33 130h112l23 94l33 130h183l-65 -260h-112l-23 -94l-32 -130h-112l-24 -94l-32 -130h-112l-28 -112h-184l37 148h112
l47 188h-112l32 130l24 94h-112l32 130z" />
    <glyph glyph-name="uni45F" unicode="&#x45f;" 
d="M149 596h183l-32 -130l-56 -224l-23 -94h264l23 94l56 224l33 130h183l-32 -130l-84 -336l-32 -130h-224l-28 -112h-184l28 112h-224l32 130l84 336z" />
    <glyph glyph-name="uni1FB00" unicode="&#x1fb00;" 
d="M288 1156h408l-33 -130l-55 -224l-33 -130h-407l32 130l28 112l28 112z" />
    <glyph glyph-name="uni1FB01" unicode="&#x1fb01;" 
d="M624 1156h408l-33 -130l-55 -224l-33 -130h-407l32 130l28 112l28 112z" />
    <glyph glyph-name="uni1FB02" unicode="&#x1fb02;" 
d="M288 1156h744l-33 -130l-55 -224l-33 -130h-743l32 130l28 112l28 112z" />
    <glyph glyph-name="uni1FB03" unicode="&#x1fb03;" 
d="M176 708h408l-32 -130l-56 -224l-32 -130h-408l32 130l56 224z" />
    <glyph glyph-name="uni1FB04" unicode="&#x1fb04;" 
d="M288 1156h408l-33 -130l-167 -672l-32 -130h-408l32 130l140 560l28 112z" />
    <glyph glyph-name="uni1FB05" unicode="&#x1fb05;" 
d="M624 1156h408l-33 -130l-55 -224l-33 -130h-336l-23 -94l-56 -224l-32 -130h-408l32 130l56 224l32 130h336l24 94l28 112l28 112z" />
    <glyph glyph-name="uni1FB06" unicode="&#x1fb06;" 
d="M288 1156h744l-33 -130l-55 -224l-33 -130h-336l-23 -94l-56 -224l-32 -130h-408l32 130l140 560l28 112z" />
    <glyph glyph-name="uni1FB07" unicode="&#x1fb07;" 
d="M512 708h408l-32 -130l-56 -224l-32 -130h-408l32 130l56 224z" />
    <glyph glyph-name="uni1FB08" unicode="&#x1fb08;" 
d="M288 1156h408l-33 -130l-55 -224l-24 -94h336l-32 -130l-56 -224l-32 -130h-408l32 130l56 224l24 94h-336l32 130l28 112l28 112z" />
    <glyph glyph-name="uni1FB09" unicode="&#x1fb09;" 
d="M624 1156h408l-33 -130l-167 -672l-32 -130h-408l32 130l140 560l28 112z" />
    <glyph glyph-name="uni1FB0A" unicode="&#x1fb0a;" 
d="M288 1156h744l-33 -130l-167 -672l-32 -130h-408l32 130l56 224l24 94h-336l32 130l28 112l28 112z" />
    <glyph glyph-name="uni1FB0B" unicode="&#x1fb0b;" 
d="M176 708h744l-32 -130l-56 -224l-32 -130h-744l32 130l56 224z" />
    <glyph glyph-name="uni1FB0C" unicode="&#x1fb0c;" 
d="M288 1156h408l-33 -130l-55 -224l-24 -94h336l-32 -130l-56 -224l-32 -130h-744l32 130l140 560l28 112z" />
    <glyph glyph-name="uni1FB0D" unicode="&#x1fb0d;" 
d="M624 1156h408l-33 -130l-167 -672l-32 -130h-744l32 130l56 224l32 130h336l24 94l28 112l28 112z" />
    <glyph glyph-name="uni1FB0E" unicode="&#x1fb0e;" 
d="M288 1156h744l-33 -130l-167 -672l-32 -130h-744l32 130l140 560l28 112z" />
    <glyph glyph-name="uni1FB0F" unicode="&#x1fb0f;" 
d="M65 260h407l-32 -130l-56 -224l-32 -130h-408l33 130l55 224z" />
    <glyph glyph-name="uni1FB10" unicode="&#x1fb10;" 
d="M288 1156h408l-33 -130l-55 -224l-33 -130h-407l32 130l28 112l28 112zM65 260h407l-32 -130l-56 -224l-32 -130h-408l33 130l55 224z" />
    <glyph glyph-name="uni1FB11" unicode="&#x1fb11;" 
d="M624 1156h408l-33 -130l-55 -224l-33 -130h-407l32 130l28 112l28 112zM65 260h407l-32 -130l-56 -224l-32 -130h-408l33 130l55 224z" />
    <glyph glyph-name="uni1FB12" unicode="&#x1fb12;" 
d="M288 1156h744l-33 -130l-55 -224l-33 -130h-743l32 130l28 112l28 112zM65 260h407l-32 -130l-56 -224l-32 -130h-408l33 130l55 224z" />
    <glyph glyph-name="uni1FB13" unicode="&#x1fb13;" 
d="M176 708h408l-32 -130l-168 -672l-32 -130h-408l33 130l167 672z" />
    <glyph glyph-name="uni1FB14" unicode="&#x1fb14;" 
d="M624 1156h408l-33 -130l-55 -224l-33 -130h-336l-23 -94l-168 -672l-32 -130h-408l33 130l167 672l32 130h336l24 94l28 112l28 112z" />
    <glyph glyph-name="uni1FB15" unicode="&#x1fb15;" 
d="M288 1156h744l-33 -130l-55 -224l-33 -130h-336l-23 -94l-168 -672l-32 -130h-408l33 130l251 1008l28 112z" />
    <glyph glyph-name="uni1FB16" unicode="&#x1fb16;" 
d="M512 708h408l-32 -130l-56 -224l-32 -130h-336l-24 -94l-56 -224l-32 -130h-408l33 130l55 224l33 130h336l23 94l56 224z" />
    <glyph glyph-name="uni1FB17" unicode="&#x1fb17;" 
d="M288 1156h408l-33 -130l-55 -224l-24 -94h336l-32 -130l-56 -224l-32 -130h-336l-24 -94l-56 -224l-32 -130h-408l33 130l55 224l33 130h336l23 94l56 224l24 94h-336l32 130l28 112l28 112z" />
    <glyph glyph-name="uni1FB18" unicode="&#x1fb18;" 
d="M624 1156h408l-33 -130l-167 -672l-32 -130h-336l-24 -94l-56 -224l-32 -130h-408l33 130l55 224l33 130h336l23 94l140 560l28 112z" />
    <glyph glyph-name="uni1FB19" unicode="&#x1fb19;" 
d="M400 1156h632l-33 -130l-167 -672l-32 -130h-336l-24 -94l-56 -224l-32 -130h-408l33 130l55 224l33 130h336l23 94l56 224l24 94h-224l32 130l28 112l28 112z" />
    <glyph glyph-name="uni1FB1A" unicode="&#x1fb1a;" 
d="M176 708h744l-32 -130l-56 -224l-32 -130h-336l-24 -94l-56 -224l-32 -130h-408l33 130l167 672z" />
    <glyph glyph-name="uni1FB1B" unicode="&#x1fb1b;" 
d="M288 1156h408l-33 -130l-55 -224l-24 -94h336l-32 -130l-56 -224l-32 -130h-336l-24 -94l-56 -224l-32 -130h-408l33 130l251 1008l28 112z" />
    <glyph glyph-name="uni1FB1C" unicode="&#x1fb1c;" 
d="M624 1156h408l-33 -130l-167 -672l-32 -130h-336l-24 -94l-56 -224l-32 -130h-408l33 130l167 672l32 130h336l24 94l28 112l28 112z" />
    <glyph glyph-name="uni1FB1D" unicode="&#x1fb1d;" 
d="M288 1156h744l-33 -130l-167 -672l-32 -130h-336l-24 -94l-56 -224l-32 -130h-408l33 130l251 1008l28 112z" />
    <glyph glyph-name="uni1FB1E" unicode="&#x1fb1e;" 
d="M401 260h407l-32 -130l-56 -224l-32 -130h-408l33 130l55 224z" />
    <glyph glyph-name="uni1FB1F" unicode="&#x1fb1f;" 
d="M288 1156h408l-33 -130l-55 -224l-33 -130h-407l32 130l28 112l28 112zM401 260h407l-32 -130l-56 -224l-32 -130h-408l33 130l55 224z" />
    <glyph glyph-name="uni1FB20" unicode="&#x1fb20;" 
d="M624 1156h408l-33 -130l-55 -224l-33 -130h-407l32 130l28 112l28 112zM401 260h407l-32 -130l-56 -224l-32 -130h-408l33 130l55 224z" />
    <glyph glyph-name="uni1FB21" unicode="&#x1fb21;" 
d="M288 1156h744l-33 -130l-55 -224l-33 -130h-743l32 130l28 112l28 112zM401 260h407l-32 -130l-56 -224l-32 -130h-408l33 130l55 224z" />
    <glyph glyph-name="uni1FB22" unicode="&#x1fb22;" 
d="M176 708h408l-32 -130l-56 -224l-24 -94h336l-32 -130l-56 -224l-32 -130h-408l33 130l55 224l24 94h-336l32 130l56 224z" />
    <glyph glyph-name="uni1FB23" unicode="&#x1fb23;" 
d="M288 1156h408l-33 -130l-167 -672l-24 -94h336l-32 -130l-56 -224l-32 -130h-408l33 130l55 224l24 94h-336l32 130l140 560l28 112z" />
    <glyph glyph-name="uni1FB24" unicode="&#x1fb24;" 
d="M624 1156h408l-33 -130l-55 -224l-33 -130h-336l-23 -94l-56 -224l-24 -94h336l-32 -130l-56 -224l-32 -130h-408l33 130l55 224l24 94h-336l32 130l56 224l32 130h336l24 94l28 112l28 112z" />
    <glyph glyph-name="uni1FB25" unicode="&#x1fb25;" 
d="M288 1156h744l-33 -130l-55 -224l-33 -130h-336l-23 -94l-56 -224l-24 -94h336l-32 -130l-56 -224l-32 -130h-408l33 130l55 224l24 94h-336l32 130l140 560l28 112z" />
    <glyph glyph-name="uni1FB26" unicode="&#x1fb26;" 
d="M512 708h408l-32 -130l-168 -672l-32 -130h-408l33 130l167 672z" />
    <glyph glyph-name="uni1FB27" unicode="&#x1fb27;" 
d="M288 1156h408l-33 -130l-55 -224l-24 -94h336l-32 -130l-168 -672l-32 -130h-408l33 130l167 672l24 94h-336l32 130l28 112l28 112z" />
    <glyph glyph-name="uni1FB28" unicode="&#x1fb28;" 
d="M288 1156h744l-33 -130l-279 -1120l-32 -130h-408l33 130l167 672l24 94h-336l32 130l28 112l28 112z" />
    <glyph glyph-name="uni1FB29" unicode="&#x1fb29;" 
d="M176 708h744l-32 -130l-168 -672l-32 -130h-408l33 130l55 224l24 94h-336l32 130l56 224z" />
    <glyph glyph-name="uni1FB2A" unicode="&#x1fb2a;" 
d="M288 1156h408l-33 -130l-55 -224l-24 -94h336l-32 -130l-168 -672l-32 -130h-408l33 130l55 224l24 94h-336l32 130l140 560l28 112z" />
    <glyph glyph-name="uni1FB2B" unicode="&#x1fb2b;" 
d="M624 1156h408l-33 -130l-279 -1120l-32 -130h-408l33 130l55 224l24 94h-336l32 130l56 224l32 130h336l24 94l28 112l28 112z" />
    <glyph glyph-name="uni1FB2C" unicode="&#x1fb2c;" 
d="M288 1156h744l-33 -130l-279 -1120l-32 -130h-408l33 130l55 224l24 94h-336l32 130l140 560l28 112z" />
    <glyph glyph-name="uni1FB2D" unicode="&#x1fb2d;" 
d="M65 260h743l-32 -130l-56 -224l-32 -130h-744l33 130l55 224z" />
    <glyph glyph-name="uni1FB2E" unicode="&#x1fb2e;" 
d="M288 1156h408l-33 -130l-55 -224l-33 -130h-407l32 130l28 112l28 112zM65 260h743l-32 -130l-56 -224l-32 -130h-744l33 130l55 224z" />
    <glyph glyph-name="uni1FB2F" unicode="&#x1fb2f;" 
d="M624 1156h408l-33 -130l-55 -224l-33 -130h-407l32 130l28 112l28 112zM65 260h743l-32 -130l-56 -224l-32 -130h-744l33 130l55 224z" />
    <glyph glyph-name="uni1FB30" unicode="&#x1fb30;" 
d="M288 1156h744l-33 -130l-55 -224l-33 -130h-743l32 130l28 112l28 112zM65 260h743l-32 -130l-56 -224l-32 -130h-744l33 130l55 224z" />
    <glyph glyph-name="uni1FB31" unicode="&#x1fb31;" 
d="M176 708h408l-32 -130l-56 -224l-24 -94h336l-32 -130l-56 -224l-32 -130h-744l33 130l167 672z" />
    <glyph glyph-name="uni1FB32" unicode="&#x1fb32;" 
d="M288 1156h408l-33 -130l-167 -672l-24 -94h336l-32 -130l-56 -224l-32 -130h-744l33 130l251 1008l28 112z" />
    <glyph glyph-name="uni1FB33" unicode="&#x1fb33;" 
d="M624 1156h408l-33 -130l-55 -224l-33 -130h-336l-23 -94l-56 -224l-24 -94h336l-32 -130l-56 -224l-32 -130h-744l33 130l167 672l32 130h336l24 94l28 112l28 112z" />
    <glyph glyph-name="uni1FB34" unicode="&#x1fb34;" 
d="M288 1156h744l-33 -130l-55 -224l-33 -130h-336l-23 -94l-56 -224l-24 -94h336l-32 -130l-56 -224l-32 -130h-744l33 130l251 1008l28 112z" />
    <glyph glyph-name="uni1FB35" unicode="&#x1fb35;" 
d="M512 708h408l-32 -130l-168 -672l-32 -130h-744l33 130l55 224l33 130h336l23 94l56 224z" />
    <glyph glyph-name="uni1FB36" unicode="&#x1fb36;" 
d="M288 1156h408l-33 -130l-55 -224l-24 -94h336l-32 -130l-168 -672l-32 -130h-744l33 130l55 224l33 130h336l23 94l56 224l24 94h-336l32 130l28 112l28 112z" />
    <glyph glyph-name="uni1FB37" unicode="&#x1fb37;" 
d="M624 1156h408l-33 -130l-279 -1120l-32 -130h-744l33 130l55 224l33 130h336l23 94l140 560l28 112z" />
    <glyph glyph-name="uni1FB38" unicode="&#x1fb38;" 
d="M288 1156h744l-33 -130l-279 -1120l-32 -130h-744l33 130l55 224l33 130h336l23 94l56 224l24 94h-336l32 130l28 112l28 112z" />
    <glyph glyph-name="uni1FB39" unicode="&#x1fb39;" 
d="M176 708h744l-32 -130l-168 -672l-32 -130h-744l33 130l167 672z" />
    <glyph glyph-name="uni1FB3A" unicode="&#x1fb3a;" 
d="M288 1156h408l-33 -130l-55 -224l-24 -94h336l-32 -130l-168 -672l-32 -130h-744l33 130l251 1008l28 112z" />
    <glyph glyph-name="uni1FB3B" unicode="&#x1fb3b;" 
d="M624 1156h408l-33 -130l-279 -1120l-32 -130h-744l33 130l167 672l32 130h336l24 94l28 112l28 112z" />
    <glyph glyph-name="uni1FB3C" unicode="&#x1fb3c;" 
d="M65 260h183l-32 -130l-23 -94h112l-28 -112h112l-37 -148h-408l33 130l55 224z" />
    <glyph glyph-name="uni1FB3D" unicode="&#x1fb3d;" 
d="M65 260h183l-27 -112h112l-28 -112h224l-28 -112h224l-37 -148h-744l33 130l55 224z" />
    <glyph glyph-name="uni1FB3E" unicode="&#x1fb3e;" 
d="M176 708h184l-32 -130l-28 -112l-24 -94h112l-32 -130l-28 -112l-23 -94h112l-65 -260h-408l33 130l167 672z" />
    <glyph glyph-name="uni1FB3F" unicode="&#x1fb3f;" 
d="M176 708h184l-32 -130l-24 -94h112l-32 -130l-24 -94h112l-27 -112h112l-28 -112h112l-28 -112h112l-37 -148h-744l33 130l167 672z" />
    <glyph glyph-name="uni1FB40" unicode="&#x1fb40;" 
d="M288 1156h184l-33 -130l-55 -224l-24 -94h112l-32 -130l-56 -224l-24 -94h112l-32 -130l-56 -224l-32 -130h-408l33 130l251 1008l28 112z" />
    <glyph glyph-name="uni1FB41" unicode="&#x1fb41;" 
d="M624 1156h408l-33 -130l-279 -1120l-32 -130h-744l33 130l195 784l32 130h112l28 112h112l28 112h112z" />
    <glyph glyph-name="uni1FB42" unicode="&#x1fb42;" 
d="M848 1156h184l-33 -130l-279 -1120l-32 -130h-744l33 130l167 672l32 130h112l28 112h224l28 112h112l28 112h112z" />
    <glyph glyph-name="uni1FB43" unicode="&#x1fb43;" 
d="M624 1156h408l-33 -130l-279 -1120l-32 -130h-744l33 130l55 224l33 130h112l23 94l28 112l33 130h112l23 94l28 112l32 130h112l24 94z" />
    <glyph glyph-name="uni1FB44" unicode="&#x1fb44;" 
d="M848 1156h184l-33 -130l-279 -1120l-32 -130h-744l33 130l55 224l33 130h112l23 94l33 130h112l28 112h112l23 94l32 130h112l28 112h112l24 94z" />
    <glyph glyph-name="uni1FB45" unicode="&#x1fb45;" 
d="M624 1156h408l-33 -130l-279 -1120l-32 -130h-744l33 130l27 112l33 130h112l23 94l28 112l33 130h112l23 94l28 112l32 130h112l24 94l28 112z" />
    <glyph glyph-name="uni1FB46" unicode="&#x1fb46;" 
d="M736 708h184l-32 -130l-168 -672l-32 -130h-744l33 130l55 224l33 130h112l28 112h224l28 112h112l28 112h112z" />
    <glyph glyph-name="uni1FB47" unicode="&#x1fb47;" 
d="M625 260h183l-32 -130l-56 -224l-32 -130h-408l37 148h112l28 112h112l23 94z" />
    <glyph glyph-name="uni1FB48" unicode="&#x1fb48;" 
d="M625 260h183l-32 -130l-56 -224l-32 -130h-744l37 148h224l28 112h224l28 112h112z" />
    <glyph glyph-name="uni1FB49" unicode="&#x1fb49;" 
d="M736 708h184l-32 -130l-168 -672l-32 -130h-408l65 260h112l23 94l28 112l33 130h112l23 94l28 112z" />
    <glyph glyph-name="uni1FB4A" unicode="&#x1fb4a;" 
d="M736 708h184l-32 -130l-168 -672l-32 -130h-744l37 148h112l28 112h112l28 112h112l28 112h112l23 94l33 130h112l23 94z" />
    <glyph glyph-name="uni1FB4B" unicode="&#x1fb4b;" 
d="M848 1156h184l-33 -130l-279 -1120l-32 -130h-408l33 130l55 224l33 130h112l23 94l56 224l32 130h112l24 94l28 112l28 112z" />
    <glyph glyph-name="uni1FB4C" unicode="&#x1fb4c;" 
d="M288 1156h408l-28 -112h112l-28 -112h112l-28 -112h112l-32 -130l-196 -784l-32 -130h-744l33 130l251 1008l28 112z" />
    <glyph glyph-name="uni1FB4D" unicode="&#x1fb4d;" 
d="M288 1156h184l-28 -112h112l-28 -112h112l-28 -112h224l-28 -112h112l-32 -130l-168 -672l-32 -130h-744l33 130l251 1008l28 112z" />
    <glyph glyph-name="uni1FB4E" unicode="&#x1fb4e;" 
d="M288 1156h408l-33 -130l-23 -94h112l-32 -130l-28 -112l-24 -94h112l-32 -130l-28 -112l-24 -94h112l-32 -130l-56 -224l-32 -130h-744l33 130l251 1008l28 112z" />
    <glyph glyph-name="uni1FB4F" unicode="&#x1fb4f;" 
d="M288 1156h184l-33 -130l-23 -94h112l-28 -112h112l-32 -130l-24 -94h112l-28 -112h112l-32 -130l-24 -94h112l-32 -130l-56 -224l-32 -130h-744l33 130l251 1008l28 112z" />
    <glyph glyph-name="uni1FB50" unicode="&#x1fb50;" 
d="M288 1156h408l-33 -130l-27 -112l-24 -94h112l-32 -130l-28 -112l-24 -94h112l-32 -130l-28 -112l-23 -94h112l-33 -130l-28 -112l-32 -130h-744l33 130l251 1008l28 112z" />
    <glyph glyph-name="uni1FB51" unicode="&#x1fb51;" 
d="M176 708h184l-28 -112h112l-28 -112h112l-28 -112h224l-28 -112h112l-32 -130l-56 -224l-32 -130h-744l33 130l167 672z" />
    <glyph glyph-name="uni1FB52" unicode="&#x1fb52;" 
d="M288 1156h744l-33 -130l-279 -1120l-32 -130h-408l28 112h-112l28 112h-112l28 112h-112l32 130l168 672l28 112z" />
    <glyph glyph-name="uni1FB53" unicode="&#x1fb53;" 
d="M288 1156h744l-33 -130l-279 -1120l-32 -130h-184l28 112h-112l28 112h-112l28 112h-224l28 112h-112l32 130l140 560l28 112z" />
    <glyph glyph-name="uni1FB54" unicode="&#x1fb54;" 
d="M288 1156h744l-33 -130l-279 -1120l-32 -130h-408l33 130l23 94h-112l32 130l28 112l24 94h-112l32 130l28 112l24 94h-112l32 130l28 112l28 112z" />
    <glyph glyph-name="uni1FB55" unicode="&#x1fb55;" 
d="M288 1156h744l-33 -130l-279 -1120l-32 -130h-184l33 130l23 94h-112l28 112h-112l32 130l24 94h-112l28 112h-112l32 130l24 94h-112l32 130l28 112l28 112z" />
    <glyph glyph-name="uni1FB56" unicode="&#x1fb56;" 
d="M288 1156h744l-33 -130l-279 -1120l-32 -130h-408l33 130l27 112l24 94h-112l32 130l28 112l24 94h-112l32 130l28 112l23 94h-112l33 130l28 112z" />
    <glyph glyph-name="uni1FB57" unicode="&#x1fb57;" 
d="M288 1156h408l-37 -148h-112l-28 -112h-112l-23 -94l-33 -130h-183l32 130l28 112l28 112z" />
    <glyph glyph-name="uni1FB58" unicode="&#x1fb58;" 
d="M288 1156h744l-37 -148h-224l-28 -112h-224l-28 -112h-112l-28 -112h-183l32 130l28 112l28 112z" />
    <glyph glyph-name="uni1FB59" unicode="&#x1fb59;" 
d="M288 1156h408l-33 -130l-32 -130h-112l-23 -94l-28 -112l-33 -130h-112l-23 -94l-28 -112l-32 -130h-184l32 130l140 560l28 112z" />
    <glyph glyph-name="uni1FB5A" unicode="&#x1fb5a;" 
d="M288 1156h744l-37 -148h-112l-28 -112h-112l-28 -112h-112l-28 -112h-112l-23 -94l-33 -130h-112l-23 -94l-32 -130h-184l32 130l140 560l28 112z" />
    <glyph glyph-name="uni1FB5B" unicode="&#x1fb5b;" 
d="M288 1156h408l-33 -130l-55 -224l-33 -130h-112l-23 -94l-56 -224l-32 -130h-112l-24 -94l-56 -224l-32 -130h-184l33 130l251 1008l28 112z" />
    <glyph glyph-name="uni1FB5C" unicode="&#x1fb5c;" 
d="M288 1156h744l-33 -130l-55 -224l-33 -130h-112l-28 -112h-224l-28 -112h-112l-28 -112h-112l-27 -112h-184l32 130l140 560l28 112z" />
    <glyph glyph-name="uni1FB5D" unicode="&#x1fb5d;" 
d="M288 1156h744l-33 -130l-195 -784l-32 -130h-112l-28 -112h-112l-28 -112h-112l-28 -112h-408l33 130l251 1008l28 112z" />
    <glyph glyph-name="uni1FB5E" unicode="&#x1fb5e;" 
d="M288 1156h744l-33 -130l-167 -672l-32 -130h-112l-28 -112h-224l-28 -112h-112l-28 -112h-112l-28 -112h-184l33 130l251 1008l28 112z" />
    <glyph glyph-name="uni1FB5F" unicode="&#x1fb5f;" 
d="M288 1156h744l-33 -130l-55 -224l-33 -130h-112l-23 -94l-28 -112l-33 -130h-112l-23 -94l-28 -112l-32 -130h-112l-24 -94l-32 -130h-408l33 130l251 1008l28 112z" />
    <glyph glyph-name="uni1FB60" unicode="&#x1fb60;" 
d="M288 1156h744l-33 -130l-55 -224l-33 -130h-112l-23 -94l-33 -130h-112l-28 -112h-112l-23 -94l-32 -130h-112l-28 -112h-112l-24 -94l-32 -130h-184l33 130l251 1008l28 112z" />
    <glyph glyph-name="uni1FB61" unicode="&#x1fb61;" 
d="M288 1156h744l-33 -130l-27 -112l-33 -130h-112l-23 -94l-28 -112l-33 -130h-112l-23 -94l-28 -112l-32 -130h-112l-24 -94l-28 -112l-32 -130h-408l33 130l251 1008l28 112z" />
    <glyph glyph-name="uni1FB62" unicode="&#x1fb62;" 
d="M624 1156h408l-33 -130l-55 -224l-33 -130h-183l32 130l23 94h-112l28 112h-112z" />
    <glyph glyph-name="uni1FB63" unicode="&#x1fb63;" 
d="M288 1156h744l-33 -130l-55 -224l-33 -130h-183l27 112h-112l28 112h-224l28 112h-224z" />
    <glyph glyph-name="uni1FB64" unicode="&#x1fb64;" 
d="M624 1156h408l-33 -130l-167 -672l-32 -130h-184l32 130l28 112l24 94h-112l32 130l28 112l23 94h-112l33 130z" />
    <glyph glyph-name="uni1FB65" unicode="&#x1fb65;" 
d="M288 1156h744l-33 -130l-167 -672l-32 -130h-184l32 130l24 94h-112l32 130l24 94h-112l27 112h-112l28 112h-112l28 112h-112z" />
    <glyph glyph-name="uni1FB66" unicode="&#x1fb66;" 
d="M624 1156h408l-33 -130l-279 -1120l-32 -130h-184l33 130l55 224l24 94h-112l32 130l56 224l24 94h-112l32 130l28 112l28 112z" />
    <glyph glyph-name="uni1FB67" unicode="&#x1fb67;" 
d="M288 1156h744l-33 -130l-167 -672l-32 -130h-184l28 112h-112l28 112h-112l28 112h-224l28 112h-112l32 130l28 112l28 112z" />
    <glyph glyph-name="uni1FB68" unicode="&#x1fb68;" 
d="M288 1156h744l-33 -130l-279 -1120l-32 -130h-744l37 148h112l23 94l33 130h112l23 94l33 130h112l47 188h-112l32 130l23 94h-112l33 130l23 94h-112z" />
    <glyph glyph-name="uni1FB69" unicode="&#x1fb69;" 
d="M260 1044h184l-32 -130l-24 -94h112l-32 -130l-24 -94h153l23 94l32 130h112l24 94l32 130h184l-32 -130l-252 -1008l-32 -130h-744l33 130l251 1008z" />
    <glyph glyph-name="uni1FB6A" unicode="&#x1fb6a;" 
d="M288 1156h744l-37 -148h-112l-23 -94l-33 -130h-112l-23 -94l-33 -130h-112l-47 -188h112l-32 -130l-23 -94h112l-33 -130l-23 -94h112l-37 -148h-744l33 130l251 1008l28 112z" />
    <glyph glyph-name="uni1FB6B" unicode="&#x1fb6b;" 
d="M288 1156h744l-33 -130l-251 -1008l-32 -130h-184l32 130l24 94h-112l32 130l24 94h-153l-23 -94l-32 -130h-112l-24 -94l-32 -130h-184l32 130l224 896l28 112z" />
    <glyph glyph-name="uni1FB6C" unicode="&#x1fb6c;" 
d="M260 1044h184l-32 -130l-24 -94h112l-32 -130l-24 -94h112l-65 -260h-112l-23 -94l-32 -130h-112l-24 -94l-32 -130h-184l32 130l224 896z" />
    <glyph glyph-name="uni1FB6D" unicode="&#x1fb6d;" 
d="M288 1156h744l-37 -148h-112l-23 -94l-33 -130h-112l-23 -94l-33 -130h-295l32 130l23 94h-112l33 130l23 94h-112z" />
    <glyph glyph-name="uni1FB6E" unicode="&#x1fb6e;" 
d="M820 1044h184l-32 -130l-224 -896l-32 -130h-184l32 130l24 94h-112l32 130l24 94h-112l32 130l33 130h112l23 94l32 130h112l24 94z" />
    <glyph glyph-name="uni1FB6F" unicode="&#x1fb6f;" 
d="M317 372h295l-32 -130l-23 -94h112l-33 -130l-23 -94h112l-37 -148h-744l37 148h112l23 94l33 130h112l23 94z" />
    <glyph glyph-name="uni1FB8C" unicode="&#x1fb8c;" 
d="M288 1156h184l-28 -112h40l28 112h184l-37 -148h-112l-19 -76h112l-37 -148h-112l-19 -76h112l-37 -148h-112l-19 -76h112l-37 -148h-112l-19 -76h112l-36 -148h-112l-19 -76h112l-37 -148h-112l-28 -112h-184l28 112h-112l37 148h112l19 76h-112l37 148h112l19 76h-112
l37 148h112l19 76h-112l36 148h112l19 76h-112l37 148h112l19 76h-112zM391 905l-23 -94h76l24 94h-77zM336 681l-24 -94h76l24 94h-76zM280 457l-24 -94h76l24 94h-76zM224 233l-24 -94h77l23 94h-76zM168 9l-23 -94h76l23 94h-76z" />
    <glyph glyph-name="uni1FB8D" unicode="&#x1fb8d;" 
d="M736 1156h184l-28 -112h112l-37 -148h-112l-19 -76h112l-37 -148h-112l-19 -76h112l-37 -148h-112l-19 -76h112l-36 -148h-112l-19 -76h112l-37 -148h-112l-19 -76h112l-37 -148h-184l28 112h-40l-28 -112h-184l37 148h112l19 76h-112l37 148h112l19 76h-112l37 148h112
l19 76h-112l37 148h112l19 76h-112l36 148h112l19 76h-112l37 148h112zM755 1017l-23 -94h76l23 94h-76zM699 793l-23 -94h76l24 94h-77zM644 569l-24 -94h76l24 94h-76zM588 345l-24 -94h76l24 94h-76zM532 121l-24 -94h77l23 94h-76z" />
    <glyph glyph-name="uni1FB8E" unicode="&#x1fb8e;" 
d="M288 1156h184l-28 -112h40l28 112h184l-28 -112h40l28 112h184l-28 -112h112l-37 -148h-112l-19 -76h112l-37 -148h-112l-19 -76h112l-37 -148h-183l28 112h-41l-28 -112h-183l28 112h-41l-28 -112h-183l28 112h-112l36 148h112l19 76h-112l37 148h112l19 76h-112z
M531 1017l-23 -94h76l23 94h-76zM755 1017l-23 -94h76l23 94h-76zM391 905l-23 -94h76l24 94h-77zM615 905l-23 -94h76l24 94h-77zM475 793l-23 -94h76l24 94h-77zM699 793l-23 -94h76l24 94h-77zM336 681l-24 -94h76l24 94h-76zM560 681l-24 -94h76l24 94h-76z" />
    <glyph glyph-name="uni1FB8F" unicode="&#x1fb8f;" 
d="M121 484h183l-28 -112h41l28 112h183l-28 -112h41l28 112h183l-28 -112h112l-36 -148h-112l-19 -76h112l-37 -148h-112l-19 -76h112l-37 -148h-184l28 112h-40l-28 -112h-184l28 112h-40l-28 -112h-184l28 112h-112l37 148h112l19 76h-112l37 148h112l19 76h-112z
M364 345l-24 -94h76l24 94h-76zM588 345l-24 -94h76l24 94h-76zM224 233l-24 -94h77l23 94h-76zM448 233l-24 -94h77l23 94h-76zM308 121l-24 -94h77l23 94h-76zM532 121l-24 -94h77l23 94h-76zM168 9l-23 -94h76l23 94h-76zM392 9l-23 -94h76l23 94h-76z" />
    <glyph glyph-name="uni1FB90" unicode="&#x1fb90;" 
d="M400 1156h184l-28 -112h40l28 112h184l-28 -112h40l28 112h184l-37 -148h-112l-19 -76h112l-37 -148h-112l-19 -76h112l-37 -148h-112l-19 -76h112l-37 -148h-112l-19 -76h112l-36 -148h-112l-19 -76h112l-37 -148h-112l-28 -112h-184l28 112h-40l-28 -112h-184l28 112
h-40l-28 -112h-184l37 148h112l19 76h-112l37 148h112l19 76h-112l37 148h112l19 76h-112l37 148h112l19 76h-112l36 148h112l19 76h-112l37 148h112zM419 1017l-23 -94h76l23 94h-76zM643 1017l-23 -94h76l23 94h-76zM503 905l-23 -94h76l24 94h-77zM727 905l-23 -94h76
l24 94h-77zM363 793l-23 -94h76l24 94h-77zM587 793l-23 -94h76l24 94h-77zM448 681l-24 -94h76l24 94h-76zM672 681l-24 -94h76l24 94h-76zM308 569l-24 -94h76l24 94h-76zM532 569l-24 -94h76l24 94h-76zM392 457l-24 -94h76l24 94h-76zM616 457l-24 -94h76l24 94h-76z
M252 345l-24 -94h76l24 94h-76zM476 345l-24 -94h76l24 94h-76zM336 233l-24 -94h77l23 94h-76zM560 233l-24 -94h77l23 94h-76zM196 121l-24 -94h77l23 94h-76zM420 121l-24 -94h77l23 94h-76zM280 9l-23 -94h76l23 94h-76zM504 9l-23 -94h76l23 94h-76z" />
    <glyph glyph-name="uni1FB91" unicode="&#x1fb91;" 
d="M288 1156h744l-33 -130l-139 -560l-33 -130h-112l-19 -76h112l-36 -148h-112l-19 -76h112l-37 -148h-112l-28 -112h-184l28 112h-40l-28 -112h-184l28 112h-40l-28 -112h-184l37 148h112l19 76h-112l37 148h112l19 76h-112l37 148h112l19 76h-112l32 130l84 336l28 112z
M392 457l-24 -94h76l24 94h-76zM616 457l-24 -94h76l24 94h-76zM252 345l-24 -94h76l24 94h-76zM476 345l-24 -94h76l24 94h-76zM336 233l-24 -94h77l23 94h-76zM560 233l-24 -94h77l23 94h-76zM196 121l-24 -94h77l23 94h-76zM420 121l-24 -94h77l23 94h-76zM280 9l-23 -94
h76l23 94h-76zM504 9l-23 -94h76l23 94h-76z" />
    <glyph glyph-name="uni1FB92" unicode="&#x1fb92;" 
d="M400 1156h184l-28 -112h40l28 112h184l-28 -112h40l28 112h184l-37 -148h-112l-19 -76h112l-37 -148h-112l-19 -76h112l-37 -148h-112l-19 -76h112l-32 -130l-112 -448l-32 -130h-744l33 130l139 560l33 130h112l19 76h-112l36 148h112l19 76h-112l37 148h112zM419 1017
l-23 -94h76l23 94h-76zM643 1017l-23 -94h76l23 94h-76zM503 905l-23 -94h76l24 94h-77zM727 905l-23 -94h76l24 94h-77zM363 793l-23 -94h76l24 94h-77zM587 793l-23 -94h76l24 94h-77zM448 681l-24 -94h76l24 94h-76zM672 681l-24 -94h76l24 94h-76zM308 569l-24 -94h76
l24 94h-76zM532 569l-24 -94h76l24 94h-76z" />
    <glyph glyph-name="uni1FB94" unicode="&#x1fb94;" 
d="M400 1156h184l-28 -112h40l28 112h408l-33 -130l-279 -1120l-32 -130h-520l28 112h-40l-28 -112h-184l37 148h112l19 76h-112l37 148h112l19 76h-112l37 148h112l19 76h-112l37 148h112l19 76h-112l36 148h112l19 76h-112l37 148h112zM419 1017l-23 -94h76l23 94h-76z
M503 905l-23 -94h76l24 94h-77zM363 793l-23 -94h76l24 94h-77zM448 681l-24 -94h76l24 94h-76zM308 569l-24 -94h76l24 94h-76zM392 457l-24 -94h76l24 94h-76zM252 345l-24 -94h76l24 94h-76zM336 233l-24 -94h77l23 94h-76zM196 121l-24 -94h77l23 94h-76zM280 9l-23 -94
h76l23 94h-76z" />
    <glyph glyph-name="uni1FB95" unicode="&#x1fb95;" 
d="M288 1156h184l-33 -130l-27 -112l-24 -94h40l24 94l28 112l32 130h184l-33 -130l-27 -112l-24 -94h40l24 94l28 112l32 130h184l-33 -130l-27 -112l-24 -94h112l-32 -130l-28 -112l-33 -130h-112l-23 -94l-28 -112l-23 -94h112l-33 -130l-28 -112l-32 -130h-184l33 130
l27 112l24 94h-40l-24 -94l-28 -112l-32 -130h-184l33 130l27 112l24 94h-40l-24 -94l-28 -112l-32 -130h-184l33 130l27 112l24 94h-112l32 130l28 112l33 130h112l23 94l28 112l23 94h-112l33 130l28 112zM475 793l-25 -103l-28 -112l-26 -103h76l26 103l28 112l26 103
h-77zM699 793l-25 -103l-28 -112l-26 -103h76l26 103l28 112l26 103h-77zM280 457l-26 -103l-28 -112l-26 -103h77l25 103l28 112l26 103h-76zM504 457l-26 -103l-28 -112l-26 -103h77l25 103l28 112l26 103h-76z" />
    <glyph glyph-name="uni1FB96" unicode="&#x1fb96;" 
d="M400 1156h184l-33 -130l-27 -112l-24 -94h40l24 94l28 112l32 130h184l-33 -130l-27 -112l-24 -94h40l24 94l28 112l32 130h184l-33 -130l-27 -112l-33 -130h-112l-23 -94l-28 -112l-24 -94h112l-32 -130l-28 -112l-32 -130h-112l-24 -94l-28 -112l-32 -130h-184l33 130
l27 112l24 94h-40l-24 -94l-28 -112l-32 -130h-184l33 130l27 112l24 94h-40l-24 -94l-28 -112l-32 -130h-184l33 130l27 112l33 130h112l23 94l28 112l24 94h-112l32 130l28 112l32 130h112l24 94l28 112zM363 793l-25 -103l-28 -112l-26 -103h76l26 103l28 112l26 103h-77
zM587 793l-25 -103l-28 -112l-26 -103h76l26 103l28 112l26 103h-77zM392 457l-26 -103l-28 -112l-26 -103h77l25 103l28 112l26 103h-76zM616 457l-26 -103l-28 -112l-26 -103h77l25 103l28 112l26 103h-76z" />
    <glyph glyph-name="uni1FB97" unicode="&#x1fb97;" 
d="M204 820h744l-32 -130l-28 -112l-33 -130h-743l32 130l28 112zM37 148h744l-33 -130l-28 -112l-32 -130h-744l33 130l27 112z" />
    <glyph glyph-name="uni1FB98" unicode="&#x1fb98;" 
d="M512 1156h184l-28 -112h112l-28 -112h112l-28 -112h112l-37 -148h-183l27 112h-112l28 112h-112l28 112h-112zM848 1156h184l-37 -148h-184zM260 1044h184l-28 -112h112l-28 -112h112l-28 -112h112l-28 -112h112l-28 -112h112l-37 -148h-183l28 112h-112l28 112h-112
l28 112h-112l27 112h-112l28 112h-112zM176 708h184l-28 -112h112l-28 -112h112l-28 -112h112l-28 -112h112l-27 -112h112l-37 -148h-184l28 112h-112l28 112h-112l28 112h-112l28 112h-112l28 112h-112zM93 372h183l-28 -112h112l-27 -112h112l-28 -112h112l-28 -112h112
l-37 -148h-184l28 112h-112l28 112h-112l28 112h-112l28 112h-112zM9 36h184l-28 -112h112l-37 -148h-184l28 112h-112z" />
    <glyph glyph-name="uni1FB99" unicode="&#x1fb99;" 
d="M288 1156h184l-37 -148h-184zM624 1156h184l-37 -148h-112l-28 -112h-112l-28 -112h-112l-28 -112h-183l36 148h112l28 112h112l28 112h112zM820 1044h184l-37 -148h-112l-28 -112h-112l-28 -112h-112l-28 -112h-112l-28 -112h-112l-28 -112h-183l37 148h112l28 112h112
l27 112h112l28 112h112l28 112h112zM736 708h184l-37 -148h-112l-28 -112h-112l-28 -112h-112l-27 -112h-112l-28 -112h-112l-28 -112h-184l37 148h112l28 112h112l28 112h112l28 112h112l28 112h112zM653 372h183l-36 -148h-112l-28 -112h-112l-28 -112h-112l-28 -112h-112
l-28 -112h-184l37 148h112l28 112h112l28 112h112l28 112h112zM569 36h184l-37 -148h-112l-28 -112h-184l37 148h112z" />
    <glyph glyph-name="uni1FB9A" unicode="&#x1fb9a;" 
d="M288 1156h744l-37 -148h-112l-23 -94l-33 -130h-112l-23 -94l-112 -448l-23 -94h112l-33 -130l-23 -94h112l-37 -148h-744l37 148h112l23 94l33 130h112l23 94l112 448l23 94h-112l33 130l23 94h-112z" />
    <glyph glyph-name="uni1FB9B" unicode="&#x1fb9b;" 
d="M260 1044h184l-32 -130l-24 -94h112l-32 -130l-24 -94h153l23 94l32 130h112l24 94l32 130h184l-32 -130l-224 -896l-32 -130h-184l32 130l24 94h-112l32 130l24 94h-153l-23 -94l-32 -130h-112l-24 -94l-32 -130h-184l32 130l224 896z" />
    <glyph glyph-name="uni1FB9C" unicode="&#x1fb9c;" 
d="M288 1156h184l-28 -112h40l28 112h184l-28 -112h40l28 112h184l-28 -112h112l-37 -148h-112l-28 -112h-112l-28 -112h-112l-19 -76h112l-37 -148h-112l-28 -112h-112l-27 -112h-112l-19 -76h112l-37 -148h-112l-28 -112h-184l37 148h112l19 76h-112l37 148h112l19 76
h-112l37 148h112l19 76h-112l36 148h112l19 76h-112l37 148h112l19 76h-112zM531 1017l-23 -94h76l23 94h-76zM755 1017l-23 -94h76l23 94h-76zM391 905l-23 -94h76l24 94h-77zM615 905l-23 -94h76l24 94h-77zM475 793l-23 -94h76l24 94h-77zM336 681l-24 -94h76l24 94h-76z
M420 569l-24 -94h76l24 94h-76zM280 457l-24 -94h76l24 94h-76z" />
    <glyph glyph-name="uni1FB9D" unicode="&#x1fb9d;" 
d="M288 1156h184l-28 -112h40l28 112h184l-28 -112h40l28 112h184l-28 -112h112l-37 -148h-112l-19 -76h112l-37 -148h-112l-19 -76h112l-37 -148h-112l-19 -76h112l-36 -148h-112l-19 -76h112l-37 -148h-184l28 112h-112l28 112h-112l37 148h112l19 76h-112l28 112h-112
l28 112h-112l27 112h-112l37 148h112l19 76h-112zM531 1017l-23 -94h76l23 94h-76zM755 1017l-23 -94h76l23 94h-76zM391 905l-23 -94h76l24 94h-77zM615 905l-23 -94h76l24 94h-77zM475 793l-23 -94h76l24 94h-77zM699 793l-23 -94h76l24 94h-77zM560 681l-24 -94h76l24 94
h-76zM644 569l-24 -94h76l24 94h-76zM588 345l-24 -94h76l24 94h-76zM541 -76h184l-37 -148h-184z" />
    <glyph glyph-name="uni1FB9E" unicode="&#x1fb9e;" 
d="M820 1044h184l-37 -148h-112l-19 -76h112l-37 -148h-112l-19 -76h112l-37 -148h-112l-19 -76h112l-36 -148h-112l-19 -76h112l-37 -148h-112l-19 -76h112l-37 -148h-184l28 112h-40l-28 -112h-184l28 112h-40l-28 -112h-184l28 112h-112l37 148h112l28 112h112l28 112
h112l19 76h-112l37 148h112l28 112h112l27 112h112l19 76h-112l37 148h112zM644 569l-24 -94h76l24 94h-76zM504 457l-24 -94h76l24 94h-76zM588 345l-24 -94h76l24 94h-76zM448 233l-24 -94h77l23 94h-76zM308 121l-24 -94h77l23 94h-76zM532 121l-24 -94h77l23 94h-76z
M168 9l-23 -94h76l23 94h-76zM392 9l-23 -94h76l23 94h-76z" />
    <glyph glyph-name="uni1FB9F" unicode="&#x1fb9f;" 
d="M288 1156h184l-37 -148h-184zM232 932h184l-28 -112h112l-28 -112h112l-37 -148h-112l-19 -76h112l-28 -112h112l-28 -112h112l-27 -112h112l-37 -148h-112l-19 -76h112l-37 -148h-184l28 112h-40l-28 -112h-184l28 112h-40l-28 -112h-184l28 112h-112l37 148h112l19 76
h-112l37 148h112l19 76h-112l37 148h112l19 76h-112l36 148h112l19 76h-112zM336 681l-24 -94h76l24 94h-76zM280 457l-24 -94h76l24 94h-76zM364 345l-24 -94h76l24 94h-76zM224 233l-24 -94h77l23 94h-76zM448 233l-24 -94h77l23 94h-76zM308 121l-24 -94h77l23 94h-76z
M532 121l-24 -94h77l23 94h-76zM168 9l-23 -94h76l23 94h-76zM392 9l-23 -94h76l23 94h-76z" />
    <glyph glyph-name="uni1FBA0" unicode="&#x1fba0;" 
d="M512 1156h184l-33 -130l-32 -130h-112l-23 -94l-33 -130h-112l-23 -94l-33 -130h-183l32 130l32 130h112l24 94l32 130h112l24 94z" />
    <glyph glyph-name="uni1FBA1" unicode="&#x1fba1;" 
d="M624 1156h184l-33 -130l-23 -94h112l-32 -130l-24 -94h112l-32 -130l-33 -130h-183l32 130l24 94h-112l32 130l23 94h-112l33 130z" />
    <glyph glyph-name="uni1FBA2" unicode="&#x1fba2;" 
d="M121 484h183l-32 -130l-24 -94h112l-32 -130l-23 -94h112l-65 -260h-184l33 130l23 94h-112l32 130l24 94h-112z" />
    <glyph glyph-name="uni1FBA3" unicode="&#x1fba3;" 
d="M681 484h183l-64 -260h-112l-24 -94l-32 -130h-112l-24 -94l-32 -130h-184l65 260h112l23 94l33 130h112l23 94z" />
    <glyph glyph-name="uni1FBA4" unicode="&#x1fba4;" 
d="M512 1156h184l-33 -130l-32 -130h-112l-23 -94l-33 -130h-112l-23 -94l-56 -224l-24 -94h112l-32 -130l-23 -94h112l-65 -260h-184l33 130l23 94h-112l32 130l24 94h-112l32 130l56 224l32 130h112l24 94l32 130h112l24 94z" />
    <glyph glyph-name="uni1FBA5" unicode="&#x1fba5;" 
d="M624 1156h184l-33 -130l-23 -94h112l-32 -130l-24 -94h112l-32 -130l-56 -224l-32 -130h-112l-24 -94l-32 -130h-112l-24 -94l-32 -130h-184l65 260h112l23 94l33 130h112l23 94l56 224l24 94h-112l32 130l23 94h-112l33 130z" />
    <glyph glyph-name="uni1FBA6" unicode="&#x1fba6;" 
d="M121 484h183l-32 -130l-24 -94h112l-32 -130l-23 -94h152l23 94l33 130h112l23 94l33 130h183l-64 -260h-112l-24 -94l-32 -130h-112l-24 -94l-32 -130h-296l33 130l23 94h-112l32 130l24 94h-112z" />
    <glyph glyph-name="uni1FBA7" unicode="&#x1fba7;" 
d="M512 1156h296l-33 -130l-23 -94h112l-32 -130l-24 -94h112l-32 -130l-33 -130h-183l32 130l24 94h-112l32 130l23 94h-152l-23 -94l-33 -130h-112l-23 -94l-33 -130h-183l32 130l32 130h112l24 94l32 130h112l24 94z" />
    <glyph glyph-name="uni1FBA8" unicode="&#x1fba8;" 
d="M512 1156h184l-33 -130l-32 -130h-112l-23 -94l-33 -130h-112l-23 -94l-33 -130h-183l32 130l32 130h112l24 94l32 130h112l24 94zM681 484h183l-64 -260h-112l-24 -94l-32 -130h-112l-24 -94l-32 -130h-184l65 260h112l23 94l33 130h112l23 94z" />
    <glyph glyph-name="uni1FBA9" unicode="&#x1fba9;" 
d="M624 1156h184l-33 -130l-23 -94h112l-32 -130l-24 -94h112l-32 -130l-33 -130h-183l32 130l24 94h-112l32 130l23 94h-112l33 130zM121 484h183l-32 -130l-24 -94h112l-32 -130l-23 -94h112l-65 -260h-184l33 130l23 94h-112l32 130l24 94h-112z" />
    <glyph glyph-name="uni1FBAA" unicode="&#x1fbaa;" 
d="M624 1156h184l-33 -130l-23 -94h112l-32 -130l-24 -94h112l-32 -130l-56 -224l-32 -130h-112l-24 -94l-32 -130h-112l-24 -94l-32 -130h-296l33 130l23 94h-112l32 130l24 94h-112l65 260h183l-32 -130l-24 -94h112l-32 -130l-23 -94h152l23 94l33 130h112l23 94l56 224
l24 94h-112l32 130l23 94h-112l33 130z" />
    <glyph glyph-name="uni1FBAB" unicode="&#x1fbab;" 
d="M512 1156h184l-33 -130l-32 -130h-112l-23 -94l-33 -130h-112l-23 -94l-56 -224l-24 -94h112l-32 -130l-23 -94h152l23 94l33 130h112l23 94l33 130h183l-64 -260h-112l-24 -94l-32 -130h-112l-24 -94l-32 -130h-296l33 130l23 94h-112l32 130l24 94h-112l32 130l56 224
l32 130h112l24 94l32 130h112l24 94z" />
    <glyph glyph-name="uni1FBAC" unicode="&#x1fbac;" 
d="M512 1156h296l-33 -130l-23 -94h112l-32 -130l-24 -94h112l-32 -130l-56 -224l-32 -130h-112l-24 -94l-32 -130h-112l-24 -94l-32 -130h-184l65 260h112l23 94l33 130h112l23 94l56 224l24 94h-112l32 130l23 94h-152l-23 -94l-33 -130h-112l-23 -94l-33 -130h-183
l32 130l32 130h112l24 94l32 130h112l24 94z" />
    <glyph glyph-name="uni1FBAD" unicode="&#x1fbad;" 
d="M512 1156h296l-33 -130l-23 -94h112l-32 -130l-24 -94h112l-32 -130l-28 -112l-33 -130h-183l32 130l28 112l24 94h-112l32 130l23 94h-152l-23 -94l-33 -130h-112l-23 -94l-56 -224l-24 -94h112l-32 -130l-23 -94h112l-65 -260h-184l33 130l23 94h-112l32 130l24 94
h-112l32 130l56 224l32 130h112l24 94l32 130h112l24 94z" />
    <glyph glyph-name="uni1FBAE" unicode="&#x1fbae;" 
d="M512 1156h296l-33 -130l-23 -94h112l-32 -130l-24 -94h112l-32 -130l-56 -224l-32 -130h-112l-24 -94l-32 -130h-112l-24 -94l-32 -130h-296l33 130l23 94h-112l32 130l24 94h-112l32 130l56 224l32 130h112l24 94l32 130h112l24 94zM503 905l-25 -103l-30 -121h-112
l-26 -103l-56 -224l-26 -103h112l-30 -121l-26 -103h189l25 103l30 121h112l26 103l56 224l26 103h-112l30 121l26 103h-189z" />
    <glyph glyph-name="uni1FBAF" unicode="&#x1fbaf;" 
d="M400 1156h408l-33 -130l-111 -448l-24 -94h224l-37 -148h-224l-23 -94l-84 -336l-32 -130h-408l33 130l83 336l24 94h-112l37 148h112l23 94l84 336l28 112z" />
    <glyph glyph-name="uni1FBB0" unicode="&#x1fbb0;" 
d="M232 932h184l-28 -112h112l-28 -112h112l-28 -112h112l-28 -112h112l-28 -112h112l-64 -260h-184l28 112h-224l28 112h-41l-23 -94l-32 -130h-112l-24 -94l-32 -130h-184l32 130l196 784z" />
    <glyph glyph-name="uni1FBB1" unicode="&#x1fbb1;" 
d="M288 1156h744l-33 -130l-279 -1120l-32 -130h-744l33 130l251 1008l28 112zM699 793l-51 -206h76l52 206h-77zM532 569l-52 -206h76l52 206h-76zM280 457l-24 -94h76l24 94h-76zM364 345l-52 -206h77l25 103l26 103h-76z" />
    <glyph glyph-name="uni1FBB2" unicode="&#x1fbb2;" 
d="M596 1044h296l-32 -130l-24 -94h112l-32 -130l-56 -224l-33 -130h-112l-23 -94l-32 -130h-112l-28 -112h-224l-28 -112h-184l65 260h336l23 94l28 112l24 94h-112l28 112h-41l-23 -94l-33 -130h-183l32 130l33 130h112l27 112h224l19 76h-112l33 130z" />
    <glyph glyph-name="uni1FBB3" unicode="&#x1fbb3;" 
d="M428 820h184l-37 -148h-112l-28 -112h-295l36 148h224zM121 484h183l-32 -130l-24 -94h112l-27 -112h112l-28 -112h112l-37 -148h-296l32 130l24 94h-112l28 112h-112z" />
    <glyph glyph-name="uni1FBB4" unicode="&#x1fbb4;" 
d="M288 1156h744l-33 -130l-279 -1120l-32 -130h-744l33 130l251 1008l28 112zM699 793l-25 -103l-56 -224l-30 -121h-148l28 112h-76l-28 -112h-112l-24 -94h112l-28 -112h77l27 112h224l26 103l84 336l26 103h-77z" />
    <glyph glyph-name="uni1FBB5" unicode="&#x1fbb5;" 
d="M288 1156h744l-33 -130l-32 -130h-744l33 130zM512 708h184l-32 -130l-24 -94h224l-37 -148h-224l-23 -94l-32 -130h-184l28 112h-112l28 112h-112l37 148h112l28 112h112zM9 36h744l-65 -260h-744z" />
    <glyph glyph-name="uni1FBB6" unicode="&#x1fbb6;" 
d="M288 1156h744l-33 -130l-32 -130h-744l33 130zM400 708h184l-28 -112h112l-28 -112h112l-37 -148h-112l-27 -112h-112l-28 -112h-184l32 130l24 94h-224l37 148h224l23 94zM9 36h744l-65 -260h-744z" />
    <glyph glyph-name="uni1FBB7" unicode="&#x1fbb7;" 
d="M848 1156h184l-33 -130l-83 -336l-33 -130h-183l32 130l56 224l28 112zM428 820h184l-32 -130l-28 -112l-24 -94h224l-37 -148h-112l-27 -112h-112l-28 -112h-184l28 112h-112l28 112h-112l37 148h224l23 94l28 112zM625 260h183l-32 -130l-56 -224l-32 -130h-184l33 130
l55 224z" />
    <glyph glyph-name="uni1FBB8" unicode="&#x1fbb8;" 
d="M848 1156h184l-33 -130l-83 -336l-33 -130h-183l32 130l56 224l28 112zM400 708h184l-28 -112h112l-28 -112h112l-37 -148h-224l-23 -94l-28 -112l-32 -130h-184l32 130l28 112l24 94h-224l37 148h112l28 112h112zM625 260h183l-32 -130l-56 -224l-32 -130h-184l33 130
l55 224z" />
    <glyph glyph-name="uni1FBB9" unicode="&#x1fbb9;" 
d="M428 820h520l-32 -130l-33 -130h-448l-23 -94l-56 -224l-23 -94h448l-37 -148h-632l32 130l112 448l32 130h112z" />
    <glyph glyph-name="uni1FBBA" unicode="&#x1fbba;" 
d="M176 708h520l-32 -130l-112 -448l-32 -130h-520l37 148h336l23 94l56 224l24 94h-336z" />
    <glyph glyph-name="uni1FBBB" unicode="&#x1fbbb;" 
d="M400 1156h184l-33 -130l-83 -336l-33 -130h-295l36 148h112l24 94l28 112l28 112zM736 1156h184l-33 -130l-55 -224l-24 -94h112l-37 -148h-295l32 130l56 224l28 112zM93 372h295l-32 -130l-84 -336l-32 -130h-184l33 130l55 224l24 94h-112zM541 372h295l-36 -148h-112
l-24 -94l-56 -224l-32 -130h-184l33 130l83 336z" />
    <glyph glyph-name="uni1FBBC" unicode="&#x1fbbc;" 
d="M288 1156h744l-33 -130l-279 -1120l-32 -130h-744l37 148h560l23 94l224 896l23 94h-560zM373 596h295l-65 -260h-295l32 130z" />
    <glyph glyph-name="uni1FBBD" unicode="&#x1fbbd;" 
d="M400 1156h520l-33 -130l-23 -94h112l-32 -130l-168 -672l-32 -130h-112l-24 -94l-32 -130h-520l33 130l23 94h-112l32 130l168 672l32 130h112l24 94zM391 905l-51 -206h76l52 206h-77zM727 905l-51 -206h76l52 206h-77zM448 681l-26 -103l-56 -224l-26 -103h188l26 103
l56 224l26 103h-188zM224 233l-52 -206h77l51 206h-76zM560 233l-52 -206h77l51 206h-76z" />
    <glyph glyph-name="uni1FBBE" unicode="&#x1fbbe;" 
d="M288 1156h744l-33 -130l-111 -448l-33 -130h-112l-47 -188h112l-32 -130l-56 -224l-32 -130h-296l33 130l23 94h-40l-24 -94l-32 -130h-408l33 130l251 1008l28 112zM560 233l-52 -206h77l51 206h-76z" />
    <glyph glyph-name="uni1FBBF" unicode="&#x1fbbf;" 
d="M288 1156h296l-33 -130l-23 -94h152l24 94l32 130h296l-33 -130l-55 -224l-33 -130h-112l-23 -94l-56 -224l-24 -94h112l-32 -130l-56 -224l-32 -130h-296l33 130l23 94h-152l-24 -94l-32 -130h-296l33 130l55 224l33 130h112l23 94l56 224l24 94h-112l32 130l28 112
l28 112zM391 905l-51 -206h76l52 206h-77zM727 905l-51 -206h76l52 206h-77zM224 233l-52 -206h77l51 206h-76zM560 233l-52 -206h77l51 206h-76z" />
    <glyph glyph-name="uni1FBC0" unicode="&#x1fbc0;" 
d="M316 820h184l-28 -112h40l28 112h184l-28 -112h112l-32 -130l-33 -130h-112l-19 -76h112l-64 -260h-112l-28 -112h-184l28 112h-40l-28 -112h-184l28 112h-112l65 260h112l19 76h-112l32 130l32 130h112zM336 681l-52 -206h112l-32 -130h-112l-52 -206h77l27 112h148
l-28 -112h77l25 103l26 103h-112l32 130h112l52 206h-76l-28 -112h-148l28 112h-76z" />
    <glyph glyph-name="uni1FBC1" unicode="&#x1fbc1;" 
d="M232 932h296l-28 -112h152l28 112h296l-37 -148h-224l-28 -112h-112l-23 -94l-28 -112l-24 -94h153l28 112h183l-37 -148h-112l-19 -76h112l-36 -148h-184l28 112h-152l-47 -188h336l-37 -148h-408l28 112h-40l-28 -112h-296l32 130l196 784zM363 793l-25 -103l-140 -560
l-26 -103h77l25 103l28 112l28 112l84 336l26 103h-77z" />
    <glyph glyph-name="uni1FBC2" unicode="&#x1fbc2;" 
d="M232 932h744l-37 -148h-224l-19 -76h224l-37 -148h-112l-23 -94l-33 -130h-112l-23 -94l-32 -130h-112l-28 -112h-408l37 148h336l19 76h-224l28 112h-112l32 130l33 130h336l19 76h-336l32 130zM532 569l-28 -112h-224l-24 -94h300l52 206h-76z" />
    <glyph glyph-name="uni1FBC3" unicode="&#x1fbc3;" 
d="M232 932h520l-28 -112h112l-32 -130l-33 -130h-631l36 148h448l19 76h-448z" />
    <glyph glyph-name="uni1FBC4" unicode="&#x1fbc4;" 
d="M288 1156h744l-33 -130l-279 -1120l-32 -130h-744l33 130l251 1008l28 112zM475 793l-23 -94h188l24 94h-189zM336 681l-24 -94h76l24 94h-76zM672 681l-52 -206h76l52 206h-76zM392 457l-52 -206h76l28 112h112l24 94h-188zM308 121l-24 -94h77l23 94h-76z" />
    <glyph glyph-name="uni1FBC5" unicode="&#x1fbc5;" 
d="M372 1044h408l-28 -112h112l-32 -130l-33 -130h-112l-28 -112h-112l-19 -76h112l-28 -112h112l-36 -148h-184l28 112h-41l-46 -188h112l-28 -112h112l-37 -148h-184l28 112h-112l28 112h-40l-28 -112h-112l-28 -112h-184l37 148h112l28 112h112l47 188h-41l-27 -112h-184
l37 148h112l28 112h112l19 76h-112l28 112h-112l32 130l32 130h112zM391 905l-51 -206h300l52 206h-301z" />
    <glyph glyph-name="uni1FBC6" unicode="&#x1fbc6;" 
d="M372 1044h408l-28 -112h112l-32 -130l-33 -130h-112l-19 -76h112l-37 -148h-112l-28 -112h-112l-46 -188h112l-28 -112h112l-37 -148h-184l28 112h-112l28 112h-40l-28 -112h-112l-28 -112h-184l37 148h112l28 112h112l47 188h-112l28 112h-112l37 148h112l19 76h-112
l32 130l32 130h112zM391 905l-51 -206h300l52 206h-301zM308 569l-24 -94h76l24 94h-76zM532 569l-24 -94h76l24 94h-76z" />
    <glyph glyph-name="uni1FBC7" unicode="&#x1fbc7;" 
d="M372 1044h408l-28 -112h112l-32 -130l-33 -130h-112l-19 -76h112l-37 -148h-112l-28 -112h-112l-46 -188h112l-28 -112h112l-37 -148h-184l28 112h-112l28 112h-40l-24 -94l-32 -130h-184l65 260h112l47 188h-41l-27 -112h-184l37 148h112l28 112h112l19 76h-112l28 112
h-112l32 130l32 130h112zM391 905l-51 -206h300l52 206h-301zM532 569l-24 -94h76l24 94h-76z" />
    <glyph glyph-name="uni1FBC8" unicode="&#x1fbc8;" 
d="M372 1044h408l-28 -112h112l-32 -130l-33 -130h-112l-28 -112h-112l-19 -76h112l-28 -112h112l-36 -148h-184l28 112h-41l-46 -188h112l-65 -260h-184l32 130l24 94h-40l-28 -112h-112l-28 -112h-184l37 148h112l28 112h112l47 188h-112l28 112h-112l37 148h112l19 76
h-112l32 130l32 130h112zM391 905l-51 -206h300l52 206h-301zM308 569l-24 -94h76l24 94h-76z" />
    <glyph glyph-name="uni1FBC9" unicode="&#x1fbc9;" 
d="M372 1044h408l-28 -112h112l-32 -130l-33 -130h-112l-28 -112h-112l-19 -76h224l-37 -148h-112l-19 -76h112l-64 -260h-112l-28 -112h-184l28 112h-40l-28 -112h-184l28 112h-112l65 260h112l19 76h-112l37 148h224l19 76h-112l28 112h-112l32 130l32 130h112zM391 905
l-51 -206h300l52 206h-301zM392 457l-26 -103l-30 -121h-112l-24 -94h301l23 94h-112l30 121l26 103h-76z" />
    <glyph glyph-name="uni1FBCA" unicode="&#x1fbca;" 
d="M428 820h184l-28 -112h112l-28 -112h112l-32 -130l-84 -336l-32 -130h-184l28 112h-112l28 112h-40l-28 -112h-112l-28 -112h-184l32 130l84 336l33 130h112l27 112h112zM448 681l-28 -112h-112l-26 -103l-28 -112l-26 -103h76l28 112h148l-28 -112h76l26 103l28 112
l26 103h-112l28 112h-76z" />
    <glyph glyph-name="uni1FBF0" unicode="&#x1fbf0;" 
d="M316 820h408l-28 -112h112l-32 -130l-33 -130h-183l32 130l24 94h-265l-23 -94l-33 -130h-183l32 130l32 130h112zM93 372h183l-32 -130l-23 -94h264l23 94l33 130h183l-64 -260h-112l-28 -112h-408l28 112h-112z" />
    <glyph glyph-name="uni1FBF1" unicode="&#x1fbf1;" 
d="M624 708h184l-32 -130l-33 -130h-183l32 130zM541 372h183l-64 -260h-184z" />
    <glyph glyph-name="uni1FBF2" unicode="&#x1fbf2;" 
d="M316 820h408l-28 -112h112l-32 -130l-33 -130h-112l-28 -112h-336l-46 -188h336l-37 -148h-408l28 112h-112l65 260h112l28 112h336l47 188h-336z" />
    <glyph glyph-name="uni1FBF3" unicode="&#x1fbf3;" 
d="M316 820h408l-28 -112h112l-32 -130l-33 -130h-112l-19 -76h112l-64 -260h-112l-28 -112h-408l37 148h336l47 188h-336l37 148h336l47 188h-336z" />
    <glyph glyph-name="uni1FBF4" unicode="&#x1fbf4;" 
d="M176 708h184l-32 -130l-24 -94h265l23 94l32 130h184l-32 -130l-33 -130h-112l-19 -76h112l-64 -260h-184l32 130l24 94h-336l28 112h-112l32 130z" />
    <glyph glyph-name="uni1FBF5" unicode="&#x1fbf5;" 
d="M316 820h408l-37 -148h-336l-47 -188h336l-28 -112h112l-64 -260h-112l-28 -112h-408l37 148h336l47 188h-336l28 112h-112l32 130l32 130h112z" />
    <glyph glyph-name="uni1FBF6" unicode="&#x1fbf6;" 
d="M316 820h408l-37 -148h-336l-47 -188h336l-28 -112h112l-64 -260h-112l-28 -112h-408l28 112h-112l65 260h112l19 76h-112l32 130l32 130h112zM252 345l-52 -206h301l25 103l26 103h-300z" />
    <glyph glyph-name="uni1FBF7" unicode="&#x1fbf7;" 
d="M316 820h408l-28 -112h112l-32 -130l-33 -130h-183l32 130l24 94h-336zM541 372h183l-64 -260h-184z" />
    <glyph glyph-name="uni1FBF8" unicode="&#x1fbf8;" 
d="M316 820h408l-28 -112h112l-32 -130l-33 -130h-112l-19 -76h112l-64 -260h-112l-28 -112h-408l28 112h-112l65 260h112l19 76h-112l32 130l32 130h112zM336 681l-52 -206h300l52 206h-300zM252 345l-52 -206h301l25 103l26 103h-300z" />
    <glyph glyph-name="uni1FBF9" unicode="&#x1fbf9;" 
d="M316 820h408l-28 -112h112l-32 -130l-33 -130h-112l-19 -76h112l-64 -260h-112l-28 -112h-408l37 148h336l47 188h-336l28 112h-112l32 130l32 130h112zM336 681l-52 -206h300l52 206h-300z" />
    <glyph glyph-name="uni2070" unicode="&#x2070;" 
d="M428 820h184l-28 -112h112l-32 -130l-33 -130h-112l-28 -112h-183l28 112h-112l32 130l32 130h112zM448 681l-52 -206h76l52 206h-76z" />
    <glyph glyph-name="uni2071" unicode="&#x2071;" 
d="M428 820h184l-37 -148h-183zM373 596h183l-65 -260h-183l32 130z" />
    <glyph glyph-name="uni2074" unicode="&#x2074;" 
d="M540 820h184l-32 -130l-56 -224l-33 -130h-183l28 112h-224l32 130l32 130h184l-28 -112h41l23 94z" />
    <glyph glyph-name="uni2075" unicode="&#x2075;" 
d="M316 820h408l-37 -148h-224l-19 -76h224l-37 -148h-112l-28 -112h-295l37 148h112l19 76h-112l32 130z" />
    <glyph glyph-name="uni2076" unicode="&#x2076;" 
d="M428 820h184l-37 -148h-112l-19 -76h224l-37 -148h-112l-28 -112h-183l28 112h-112l32 130l32 130h112z" />
    <glyph glyph-name="uni2077" unicode="&#x2077;" 
d="M316 820h408l-32 -130l-33 -130h-112l-23 -94l-33 -130h-183l32 130l33 130h112l19 76h-224z" />
    <glyph glyph-name="uni2078" unicode="&#x2078;" 
d="M456 932h184l-28 -112h112l-37 -148h-112l-19 -76h112l-37 -148h-112l-28 -112h-183l28 112h-112l37 148h112l19 76h-112l36 148h112zM475 793l-23 -94h76l24 94h-77zM420 569l-24 -94h76l24 94h-76z" />
    <glyph glyph-name="uni2079" unicode="&#x2079;" 
d="M428 820h184l-28 -112h112l-32 -130l-33 -130h-112l-28 -112h-183l37 148h112l19 76h-224l36 148h112z" />
    <glyph glyph-name="uni207A" unicode="&#x207a;" 
d="M428 820h184l-28 -112h112l-37 -148h-112l-28 -112h-183l28 112h-112l36 148h112z" />
    <glyph glyph-name="uni207B" unicode="&#x207b;" 
d="M288 708h408l-37 -148h-407z" />
    <glyph glyph-name="uni207C" unicode="&#x207c;" 
d="M316 820h408l-37 -148h-407zM261 596h407l-37 -148h-407z" />
    <glyph glyph-name="uni207D" unicode="&#x207d;" 
d="M568 932h184l-37 -148h-112l-23 -94l-56 -224l-24 -94h112l-36 -148h-184l28 112h-112l32 130l56 224l32 130h112z" />
    <glyph glyph-name="uni207E" unicode="&#x207e;" 
d="M344 932h184l-28 -112h112l-32 -130l-56 -224l-33 -130h-112l-27 -112h-184l37 148h112l23 94l56 224l23 94h-112z" />
    <glyph glyph-name="uni207F" unicode="&#x207f;" 
d="M204 820h184l-28 -112h40l28 112h184l-28 -112h112l-32 -130l-28 -112l-33 -130h-183l32 130l28 112l24 94h-41l-28 -112h-112l-23 -94l-33 -130h-183l32 130l56 224z" />
    <glyph glyph-name="uni2080" unicode="&#x2080;" 
d="M289 260h183l-27 -112h112l-65 -260h-112l-28 -112h-184l28 112h-112l65 260h112zM308 121l-51 -206h76l51 206h-76z" />
    <glyph glyph-name="uni2081" unicode="&#x2081;" 
d="M289 260h183l-32 -130l-28 -112l-23 -94h112l-37 -148h-408l37 148h112l19 76h-112l37 148h112z" />
    <glyph glyph-name="uni2082" unicode="&#x2082;" 
d="M177 260h295l-27 -112h112l-37 -148h-112l-19 -76h112l-37 -148h-408l37 148h112l28 112h112l19 76h-224z" />
    <glyph glyph-name="uni2083" unicode="&#x2083;" 
d="M177 260h295l-27 -112h112l-65 -260h-112l-28 -112h-296l37 148h224l19 76h-112l28 112h-112z" />
    <glyph glyph-name="uni2084" unicode="&#x2084;" 
d="M401 260h183l-32 -130l-56 -224l-32 -130h-184l28 112h-224l65 260h184l-28 -112h40l23 94z" />
    <glyph glyph-name="uni2085" unicode="&#x2085;" 
d="M177 260h407l-36 -148h-224l-19 -76h224l-37 -148h-112l-28 -112h-296l37 148h112l19 76h-112z" />
    <glyph glyph-name="uni2086" unicode="&#x2086;" 
d="M289 260h183l-36 -148h-112l-19 -76h224l-37 -148h-112l-28 -112h-184l28 112h-112l65 260h112z" />
    <glyph glyph-name="uni2087" unicode="&#x2087;" 
d="M177 260h407l-64 -260h-112l-24 -94l-32 -130h-184l65 260h112l19 76h-224z" />
    <glyph glyph-name="uni2088" unicode="&#x2088;" 
d="M317 372h183l-28 -112h112l-36 -148h-112l-19 -76h112l-37 -148h-112l-28 -112h-184l28 112h-112l37 148h112l19 76h-112l37 148h112zM336 233l-24 -94h77l23 94h-76zM280 9l-23 -94h76l23 94h-76z" />
    <glyph glyph-name="uni2089" unicode="&#x2089;" 
d="M289 260h183l-27 -112h112l-65 -260h-112l-28 -112h-184l37 148h112l19 76h-224l37 148h112z" />
    <glyph glyph-name="uni208A" unicode="&#x208a;" 
d="M289 260h183l-27 -112h112l-37 -148h-112l-28 -112h-184l28 112h-112l37 148h112z" />
    <glyph glyph-name="uni208B" unicode="&#x208b;" 
d="M149 148h408l-37 -148h-408z" />
    <glyph glyph-name="uni208C" unicode="&#x208c;" 
d="M177 260h407l-36 -148h-408zM121 36h408l-37 -148h-408z" />
    <glyph glyph-name="uni208D" unicode="&#x208d;" 
d="M429 372h183l-36 -148h-112l-24 -94l-28 -112l-23 -94h112l-37 -148h-184l28 112h-112l32 130l28 112l33 130h112z" />
    <glyph glyph-name="uni208E" unicode="&#x208e;" 
d="M205 372h183l-28 -112h112l-32 -130l-28 -112l-32 -130h-112l-28 -112h-184l37 148h112l23 94l28 112l24 94h-112z" />
    <glyph glyph-name="uni2090" unicode="&#x2090;" 
d="M317 372h295l-32 -130l-28 -112l-23 -94h112l-37 -148h-184l28 112h-40l-28 -112h-184l28 112h-112l65 260h112zM336 233l-52 -206h77l51 206h-76z" />
    <glyph glyph-name="uni2091" unicode="&#x2091;" 
d="M317 372h183l-28 -112h112l-36 -148h-224l-19 -76h224l-37 -148h-296l28 112h-112l65 260h112z" />
    <glyph glyph-name="uni2092" unicode="&#x2092;" 
d="M205 372h295l-28 -112h112l-64 -260h-112l-28 -112h-296l28 112h-112l65 260h112zM224 233l-52 -206h189l51 206h-188z" />
    <glyph glyph-name="uni2093" unicode="&#x2093;" 
d="M93 372h183l-28 -112h153l28 112h183l-36 -148h-112l-47 -188h112l-37 -148h-184l28 112h-152l-28 -112h-184l37 148h112l47 188h-112z" />
    <glyph glyph-name="uni2095" unicode="&#x2095;" 
d="M121 484h183l-32 -130l-28 -112l-23 -94h40l28 112h183l-27 -112h112l-65 -260h-184l32 130l24 94h-40l-28 -112h-112l-28 -112h-184l32 130l84 336z" />
    <glyph glyph-name="uni2096" unicode="&#x2096;" 
d="M233 484h183l-32 -130l-28 -112l-23 -94h40l28 112h183l-36 -148h-112l-19 -76h112l-37 -148h-184l28 112h-40l-28 -112h-184l32 130l84 336z" />
    <glyph glyph-name="uni2097" unicode="&#x2097;" 
d="M345 484h183l-32 -130l-56 -224l-23 -94h112l-37 -148h-184l28 112h-112l32 130l56 224z" />
    <glyph glyph-name="uni2098" unicode="&#x2098;" 
d="M93 372h295l-28 -112h41l28 112h183l-28 -112h112l-32 -130l-28 -112l-32 -130h-184l32 130l28 112l24 94h-40l-24 -94l-28 -112l-32 -130h-184l32 130l28 112l24 94h-40l-24 -94l-28 -112l-32 -130h-184l32 130l56 224z" />
    <glyph glyph-name="uni2099" unicode="&#x2099;" 
d="M93 372h183l-28 -112h41l28 112h183l-28 -112h112l-32 -130l-28 -112l-32 -130h-184l32 130l28 112l24 94h-40l-28 -112h-112l-24 -94l-32 -130h-184l32 130l56 224z" />
    <glyph glyph-name="uni209A" unicode="&#x209a;" 
d="M93 372h183l-28 -112h41l28 112h183l-28 -112h112l-64 -260h-112l-28 -112h-224l-28 -112h-184l33 130l83 336zM336 233l-28 -112h-112l-24 -94h189l51 206h-76z" />
    <glyph glyph-name="uni209B" unicode="&#x209b;" 
d="M317 372h295l-36 -148h-224l-19 -76h224l-37 -148h-112l-28 -112h-296l37 148h112l19 76h-112l37 148h112z" />
    <glyph glyph-name="uni209C" unicode="&#x209c;" 
d="M345 484h183l-28 -112h112l-36 -148h-112l-47 -188h112l-37 -148h-184l28 112h-112l32 130l24 94h-112l37 148h112z" />
    <glyph glyph-name="uni2801" unicode="&#x2801;" 
d="M288 708h184l-37 -148h-183z" />
    <glyph glyph-name="uni2802" unicode="&#x2802;" 
d="M233 484h183l-37 -148h-183z" />
    <glyph glyph-name="uni2803" unicode="&#x2803;" 
d="M288 708h184l-37 -148h-183zM233 484h183l-37 -148h-183z" />
    <glyph glyph-name="uni2804" unicode="&#x2804;" 
d="M177 260h183l-36 -148h-184z" />
    <glyph glyph-name="uni2805" unicode="&#x2805;" 
d="M288 708h184l-37 -148h-183zM177 260h183l-36 -148h-184z" />
    <glyph glyph-name="uni2806" unicode="&#x2806;" 
d="M233 484h183l-37 -148h-183zM177 260h183l-36 -148h-184z" />
    <glyph glyph-name="uni2807" unicode="&#x2807;" 
d="M288 708h184l-37 -148h-183zM233 484h183l-37 -148h-183zM177 260h183l-36 -148h-184z" />
    <glyph glyph-name="uni2808" unicode="&#x2808;" 
d="M512 708h184l-37 -148h-183z" />
    <glyph glyph-name="uni2809" unicode="&#x2809;" 
d="M288 708h184l-37 -148h-183zM512 708h184l-37 -148h-183z" />
    <glyph glyph-name="uni280A" unicode="&#x280a;" 
d="M512 708h184l-37 -148h-183zM233 484h183l-37 -148h-183z" />
    <glyph glyph-name="uni280B" unicode="&#x280b;" 
d="M288 708h184l-37 -148h-183zM512 708h184l-37 -148h-183zM233 484h183l-37 -148h-183z" />
    <glyph glyph-name="uni280C" unicode="&#x280c;" 
d="M512 708h184l-37 -148h-183zM177 260h183l-36 -148h-184z" />
    <glyph glyph-name="uni280D" unicode="&#x280d;" 
d="M288 708h184l-37 -148h-183zM512 708h184l-37 -148h-183zM177 260h183l-36 -148h-184z" />
    <glyph glyph-name="uni280E" unicode="&#x280e;" 
d="M512 708h184l-37 -148h-183zM233 484h183l-37 -148h-183zM177 260h183l-36 -148h-184z" />
    <glyph glyph-name="uni280F" unicode="&#x280f;" 
d="M288 708h184l-37 -148h-183zM512 708h184l-37 -148h-183zM233 484h183l-37 -148h-183zM177 260h183l-36 -148h-184z" />
    <glyph glyph-name="uni2810" unicode="&#x2810;" 
d="M457 484h183l-37 -148h-183z" />
    <glyph glyph-name="uni2811" unicode="&#x2811;" 
d="M288 708h184l-37 -148h-183zM457 484h183l-37 -148h-183z" />
    <glyph glyph-name="uni2812" unicode="&#x2812;" 
d="M233 484h183l-37 -148h-183zM457 484h183l-37 -148h-183z" />
    <glyph glyph-name="uni2813" unicode="&#x2813;" 
d="M288 708h184l-37 -148h-183zM233 484h183l-37 -148h-183zM457 484h183l-37 -148h-183z" />
    <glyph glyph-name="uni2814" unicode="&#x2814;" 
d="M457 484h183l-37 -148h-183zM177 260h183l-36 -148h-184z" />
    <glyph glyph-name="uni2815" unicode="&#x2815;" 
d="M288 708h184l-37 -148h-183zM457 484h183l-37 -148h-183zM177 260h183l-36 -148h-184z" />
    <glyph glyph-name="uni2816" unicode="&#x2816;" 
d="M233 484h183l-37 -148h-183zM457 484h183l-37 -148h-183zM177 260h183l-36 -148h-184z" />
    <glyph glyph-name="uni2817" unicode="&#x2817;" 
d="M288 708h184l-37 -148h-183zM233 484h183l-37 -148h-183zM457 484h183l-37 -148h-183zM177 260h183l-36 -148h-184z" />
    <glyph glyph-name="uni2818" unicode="&#x2818;" 
d="M512 708h184l-37 -148h-183zM457 484h183l-37 -148h-183z" />
    <glyph glyph-name="uni2819" unicode="&#x2819;" 
d="M288 708h184l-37 -148h-183zM512 708h184l-37 -148h-183zM457 484h183l-37 -148h-183z" />
    <glyph glyph-name="uni281A" unicode="&#x281a;" 
d="M512 708h184l-37 -148h-183zM233 484h183l-37 -148h-183zM457 484h183l-37 -148h-183z" />
    <glyph glyph-name="uni281B" unicode="&#x281b;" 
d="M288 708h184l-37 -148h-183zM512 708h184l-37 -148h-183zM233 484h183l-37 -148h-183zM457 484h183l-37 -148h-183z" />
    <glyph glyph-name="uni281C" unicode="&#x281c;" 
d="M512 708h184l-37 -148h-183zM457 484h183l-37 -148h-183zM177 260h183l-36 -148h-184z" />
    <glyph glyph-name="uni281D" unicode="&#x281d;" 
d="M288 708h184l-37 -148h-183zM512 708h184l-37 -148h-183zM457 484h183l-37 -148h-183zM177 260h183l-36 -148h-184z" />
    <glyph glyph-name="uni281E" unicode="&#x281e;" 
d="M512 708h184l-37 -148h-183zM233 484h183l-37 -148h-183zM457 484h183l-37 -148h-183zM177 260h183l-36 -148h-184z" />
    <glyph glyph-name="uni281F" unicode="&#x281f;" 
d="M288 708h184l-37 -148h-183zM512 708h184l-37 -148h-183zM233 484h183l-37 -148h-183zM457 484h183l-37 -148h-183zM177 260h183l-36 -148h-184z" />
    <glyph glyph-name="uni2820" unicode="&#x2820;" 
d="M401 260h183l-36 -148h-184z" />
    <glyph glyph-name="uni2821" unicode="&#x2821;" 
d="M288 708h184l-37 -148h-183zM401 260h183l-36 -148h-184z" />
    <glyph glyph-name="uni2822" unicode="&#x2822;" 
d="M233 484h183l-37 -148h-183zM401 260h183l-36 -148h-184z" />
    <glyph glyph-name="uni2823" unicode="&#x2823;" 
d="M288 708h184l-37 -148h-183zM233 484h183l-37 -148h-183zM401 260h183l-36 -148h-184z" />
    <glyph glyph-name="uni2824" unicode="&#x2824;" 
d="M177 260h183l-36 -148h-184zM401 260h183l-36 -148h-184z" />
    <glyph glyph-name="uni2825" unicode="&#x2825;" 
d="M288 708h184l-37 -148h-183zM177 260h183l-36 -148h-184zM401 260h183l-36 -148h-184z" />
    <glyph glyph-name="uni2826" unicode="&#x2826;" 
d="M233 484h183l-37 -148h-183zM177 260h183l-36 -148h-184zM401 260h183l-36 -148h-184z" />
    <glyph glyph-name="uni2827" unicode="&#x2827;" 
d="M288 708h184l-37 -148h-183zM233 484h183l-37 -148h-183zM177 260h183l-36 -148h-184zM401 260h183l-36 -148h-184z" />
    <glyph glyph-name="uni2828" unicode="&#x2828;" 
d="M512 708h184l-37 -148h-183zM401 260h183l-36 -148h-184z" />
    <glyph glyph-name="uni2829" unicode="&#x2829;" 
d="M288 708h184l-37 -148h-183zM512 708h184l-37 -148h-183zM401 260h183l-36 -148h-184z" />
    <glyph glyph-name="uni282A" unicode="&#x282a;" 
d="M512 708h184l-37 -148h-183zM233 484h183l-37 -148h-183zM401 260h183l-36 -148h-184z" />
    <glyph glyph-name="uni282B" unicode="&#x282b;" 
d="M288 708h184l-37 -148h-183zM512 708h184l-37 -148h-183zM233 484h183l-37 -148h-183zM401 260h183l-36 -148h-184z" />
    <glyph glyph-name="uni282C" unicode="&#x282c;" 
d="M512 708h184l-37 -148h-183zM177 260h183l-36 -148h-184zM401 260h183l-36 -148h-184z" />
    <glyph glyph-name="uni282D" unicode="&#x282d;" 
d="M288 708h184l-37 -148h-183zM512 708h184l-37 -148h-183zM177 260h183l-36 -148h-184zM401 260h183l-36 -148h-184z" />
    <glyph glyph-name="uni282E" unicode="&#x282e;" 
d="M512 708h184l-37 -148h-183zM233 484h183l-37 -148h-183zM177 260h183l-36 -148h-184zM401 260h183l-36 -148h-184z" />
    <glyph glyph-name="uni282F" unicode="&#x282f;" 
d="M288 708h184l-37 -148h-183zM512 708h184l-37 -148h-183zM233 484h183l-37 -148h-183zM177 260h183l-36 -148h-184zM401 260h183l-36 -148h-184z" />
    <glyph glyph-name="uni2830" unicode="&#x2830;" 
d="M457 484h183l-37 -148h-183zM401 260h183l-36 -148h-184z" />
    <glyph glyph-name="uni2831" unicode="&#x2831;" 
d="M288 708h184l-37 -148h-183zM457 484h183l-37 -148h-183zM401 260h183l-36 -148h-184z" />
    <glyph glyph-name="uni2832" unicode="&#x2832;" 
d="M233 484h183l-37 -148h-183zM457 484h183l-37 -148h-183zM401 260h183l-36 -148h-184z" />
    <glyph glyph-name="uni2833" unicode="&#x2833;" 
d="M288 708h184l-37 -148h-183zM233 484h183l-37 -148h-183zM457 484h183l-37 -148h-183zM401 260h183l-36 -148h-184z" />
    <glyph glyph-name="uni2834" unicode="&#x2834;" 
d="M457 484h183l-37 -148h-183zM177 260h183l-36 -148h-184zM401 260h183l-36 -148h-184z" />
    <glyph glyph-name="uni2835" unicode="&#x2835;" 
d="M288 708h184l-37 -148h-183zM457 484h183l-37 -148h-183zM177 260h183l-36 -148h-184zM401 260h183l-36 -148h-184z" />
    <glyph glyph-name="uni2836" unicode="&#x2836;" 
d="M233 484h183l-37 -148h-183zM457 484h183l-37 -148h-183zM177 260h183l-36 -148h-184zM401 260h183l-36 -148h-184z" />
    <glyph glyph-name="uni2837" unicode="&#x2837;" 
d="M288 708h184l-37 -148h-183zM233 484h183l-37 -148h-183zM457 484h183l-37 -148h-183zM177 260h183l-36 -148h-184zM401 260h183l-36 -148h-184z" />
    <glyph glyph-name="uni2838" unicode="&#x2838;" 
d="M512 708h184l-37 -148h-183zM457 484h183l-37 -148h-183zM401 260h183l-36 -148h-184z" />
    <glyph glyph-name="uni2839" unicode="&#x2839;" 
d="M288 708h184l-37 -148h-183zM512 708h184l-37 -148h-183zM457 484h183l-37 -148h-183zM401 260h183l-36 -148h-184z" />
    <glyph glyph-name="uni283A" unicode="&#x283a;" 
d="M512 708h184l-37 -148h-183zM233 484h183l-37 -148h-183zM457 484h183l-37 -148h-183zM401 260h183l-36 -148h-184z" />
    <glyph glyph-name="uni283B" unicode="&#x283b;" 
d="M288 708h184l-37 -148h-183zM512 708h184l-37 -148h-183zM233 484h183l-37 -148h-183zM457 484h183l-37 -148h-183zM401 260h183l-36 -148h-184z" />
    <glyph glyph-name="uni283C" unicode="&#x283c;" 
d="M512 708h184l-37 -148h-183zM457 484h183l-37 -148h-183zM177 260h183l-36 -148h-184zM401 260h183l-36 -148h-184z" />
    <glyph glyph-name="uni283D" unicode="&#x283d;" 
d="M288 708h184l-37 -148h-183zM512 708h184l-37 -148h-183zM457 484h183l-37 -148h-183zM177 260h183l-36 -148h-184zM401 260h183l-36 -148h-184z" />
    <glyph glyph-name="uni283E" unicode="&#x283e;" 
d="M512 708h184l-37 -148h-183zM233 484h183l-37 -148h-183zM457 484h183l-37 -148h-183zM177 260h183l-36 -148h-184zM401 260h183l-36 -148h-184z" />
    <glyph glyph-name="uni283F" unicode="&#x283f;" 
d="M288 708h184l-37 -148h-183zM512 708h184l-37 -148h-183zM233 484h183l-37 -148h-183zM457 484h183l-37 -148h-183zM177 260h183l-36 -148h-184zM401 260h183l-36 -148h-184z" />
    <glyph glyph-name="uni2840" unicode="&#x2840;" 
d="M121 36h184l-37 -148h-184z" />
    <glyph glyph-name="uni2841" unicode="&#x2841;" 
d="M288 708h184l-37 -148h-183zM121 36h184l-37 -148h-184z" />
    <glyph glyph-name="uni2842" unicode="&#x2842;" 
d="M233 484h183l-37 -148h-183zM121 36h184l-37 -148h-184z" />
    <glyph glyph-name="uni2843" unicode="&#x2843;" 
d="M288 708h184l-37 -148h-183zM233 484h183l-37 -148h-183zM121 36h184l-37 -148h-184z" />
    <glyph glyph-name="uni2844" unicode="&#x2844;" 
d="M177 260h183l-36 -148h-184zM121 36h184l-37 -148h-184z" />
    <glyph glyph-name="uni2845" unicode="&#x2845;" 
d="M288 708h184l-37 -148h-183zM177 260h183l-36 -148h-184zM121 36h184l-37 -148h-184z" />
    <glyph glyph-name="uni2846" unicode="&#x2846;" 
d="M233 484h183l-37 -148h-183zM177 260h183l-36 -148h-184zM121 36h184l-37 -148h-184z" />
    <glyph glyph-name="uni2847" unicode="&#x2847;" 
d="M288 708h184l-37 -148h-183zM233 484h183l-37 -148h-183zM177 260h183l-36 -148h-184zM121 36h184l-37 -148h-184z" />
    <glyph glyph-name="uni2848" unicode="&#x2848;" 
d="M512 708h184l-37 -148h-183zM121 36h184l-37 -148h-184z" />
    <glyph glyph-name="uni2849" unicode="&#x2849;" 
d="M288 708h184l-37 -148h-183zM512 708h184l-37 -148h-183zM121 36h184l-37 -148h-184z" />
    <glyph glyph-name="uni284A" unicode="&#x284a;" 
d="M512 708h184l-37 -148h-183zM233 484h183l-37 -148h-183zM121 36h184l-37 -148h-184z" />
    <glyph glyph-name="uni284B" unicode="&#x284b;" 
d="M288 708h184l-37 -148h-183zM512 708h184l-37 -148h-183zM233 484h183l-37 -148h-183zM121 36h184l-37 -148h-184z" />
    <glyph glyph-name="uni284C" unicode="&#x284c;" 
d="M512 708h184l-37 -148h-183zM177 260h183l-36 -148h-184zM121 36h184l-37 -148h-184z" />
    <glyph glyph-name="uni284D" unicode="&#x284d;" 
d="M288 708h184l-37 -148h-183zM512 708h184l-37 -148h-183zM177 260h183l-36 -148h-184zM121 36h184l-37 -148h-184z" />
    <glyph glyph-name="uni284E" unicode="&#x284e;" 
d="M512 708h184l-37 -148h-183zM233 484h183l-37 -148h-183zM177 260h183l-36 -148h-184zM121 36h184l-37 -148h-184z" />
    <glyph glyph-name="uni284F" unicode="&#x284f;" 
d="M288 708h184l-37 -148h-183zM512 708h184l-37 -148h-183zM233 484h183l-37 -148h-183zM177 260h183l-36 -148h-184zM121 36h184l-37 -148h-184z" />
    <glyph glyph-name="uni2850" unicode="&#x2850;" 
d="M457 484h183l-37 -148h-183zM121 36h184l-37 -148h-184z" />
    <glyph glyph-name="uni2851" unicode="&#x2851;" 
d="M288 708h184l-37 -148h-183zM457 484h183l-37 -148h-183zM121 36h184l-37 -148h-184z" />
    <glyph glyph-name="uni2852" unicode="&#x2852;" 
d="M233 484h183l-37 -148h-183zM457 484h183l-37 -148h-183zM121 36h184l-37 -148h-184z" />
    <glyph glyph-name="uni2853" unicode="&#x2853;" 
d="M288 708h184l-37 -148h-183zM233 484h183l-37 -148h-183zM457 484h183l-37 -148h-183zM121 36h184l-37 -148h-184z" />
    <glyph glyph-name="uni2854" unicode="&#x2854;" 
d="M457 484h183l-37 -148h-183zM177 260h183l-36 -148h-184zM121 36h184l-37 -148h-184z" />
    <glyph glyph-name="uni2855" unicode="&#x2855;" 
d="M288 708h184l-37 -148h-183zM457 484h183l-37 -148h-183zM177 260h183l-36 -148h-184zM121 36h184l-37 -148h-184z" />
    <glyph glyph-name="uni2856" unicode="&#x2856;" 
d="M233 484h183l-37 -148h-183zM457 484h183l-37 -148h-183zM177 260h183l-36 -148h-184zM121 36h184l-37 -148h-184z" />
    <glyph glyph-name="uni2857" unicode="&#x2857;" 
d="M288 708h184l-37 -148h-183zM233 484h183l-37 -148h-183zM457 484h183l-37 -148h-183zM177 260h183l-36 -148h-184zM121 36h184l-37 -148h-184z" />
    <glyph glyph-name="uni2858" unicode="&#x2858;" 
d="M512 708h184l-37 -148h-183zM457 484h183l-37 -148h-183zM121 36h184l-37 -148h-184z" />
    <glyph glyph-name="uni2859" unicode="&#x2859;" 
d="M288 708h184l-37 -148h-183zM512 708h184l-37 -148h-183zM457 484h183l-37 -148h-183zM121 36h184l-37 -148h-184z" />
    <glyph glyph-name="uni285A" unicode="&#x285a;" 
d="M512 708h184l-37 -148h-183zM233 484h183l-37 -148h-183zM457 484h183l-37 -148h-183zM121 36h184l-37 -148h-184z" />
    <glyph glyph-name="uni285B" unicode="&#x285b;" 
d="M288 708h184l-37 -148h-183zM512 708h184l-37 -148h-183zM233 484h183l-37 -148h-183zM457 484h183l-37 -148h-183zM121 36h184l-37 -148h-184z" />
    <glyph glyph-name="uni285C" unicode="&#x285c;" 
d="M512 708h184l-37 -148h-183zM457 484h183l-37 -148h-183zM177 260h183l-36 -148h-184zM121 36h184l-37 -148h-184z" />
    <glyph glyph-name="uni285D" unicode="&#x285d;" 
d="M288 708h184l-37 -148h-183zM512 708h184l-37 -148h-183zM457 484h183l-37 -148h-183zM177 260h183l-36 -148h-184zM121 36h184l-37 -148h-184z" />
    <glyph glyph-name="uni285E" unicode="&#x285e;" 
d="M512 708h184l-37 -148h-183zM233 484h183l-37 -148h-183zM457 484h183l-37 -148h-183zM177 260h183l-36 -148h-184zM121 36h184l-37 -148h-184z" />
    <glyph glyph-name="uni285F" unicode="&#x285f;" 
d="M288 708h184l-37 -148h-183zM512 708h184l-37 -148h-183zM233 484h183l-37 -148h-183zM457 484h183l-37 -148h-183zM177 260h183l-36 -148h-184zM121 36h184l-37 -148h-184z" />
    <glyph glyph-name="uni2860" unicode="&#x2860;" 
d="M401 260h183l-36 -148h-184zM121 36h184l-37 -148h-184z" />
    <glyph glyph-name="uni2861" unicode="&#x2861;" 
d="M288 708h184l-37 -148h-183zM401 260h183l-36 -148h-184zM121 36h184l-37 -148h-184z" />
    <glyph glyph-name="uni2862" unicode="&#x2862;" 
d="M233 484h183l-37 -148h-183zM401 260h183l-36 -148h-184zM121 36h184l-37 -148h-184z" />
    <glyph glyph-name="uni2863" unicode="&#x2863;" 
d="M288 708h184l-37 -148h-183zM233 484h183l-37 -148h-183zM401 260h183l-36 -148h-184zM121 36h184l-37 -148h-184z" />
    <glyph glyph-name="uni2864" unicode="&#x2864;" 
d="M177 260h183l-36 -148h-184zM401 260h183l-36 -148h-184zM121 36h184l-37 -148h-184z" />
    <glyph glyph-name="uni2865" unicode="&#x2865;" 
d="M288 708h184l-37 -148h-183zM177 260h183l-36 -148h-184zM401 260h183l-36 -148h-184zM121 36h184l-37 -148h-184z" />
    <glyph glyph-name="uni2866" unicode="&#x2866;" 
d="M233 484h183l-37 -148h-183zM177 260h183l-36 -148h-184zM401 260h183l-36 -148h-184zM121 36h184l-37 -148h-184z" />
    <glyph glyph-name="uni2867" unicode="&#x2867;" 
d="M288 708h184l-37 -148h-183zM233 484h183l-37 -148h-183zM177 260h183l-36 -148h-184zM401 260h183l-36 -148h-184zM121 36h184l-37 -148h-184z" />
    <glyph glyph-name="uni2868" unicode="&#x2868;" 
d="M512 708h184l-37 -148h-183zM401 260h183l-36 -148h-184zM121 36h184l-37 -148h-184z" />
    <glyph glyph-name="uni2869" unicode="&#x2869;" 
d="M288 708h184l-37 -148h-183zM512 708h184l-37 -148h-183zM401 260h183l-36 -148h-184zM121 36h184l-37 -148h-184z" />
    <glyph glyph-name="uni286A" unicode="&#x286a;" 
d="M512 708h184l-37 -148h-183zM233 484h183l-37 -148h-183zM401 260h183l-36 -148h-184zM121 36h184l-37 -148h-184z" />
    <glyph glyph-name="uni286B" unicode="&#x286b;" 
d="M288 708h184l-37 -148h-183zM512 708h184l-37 -148h-183zM233 484h183l-37 -148h-183zM401 260h183l-36 -148h-184zM121 36h184l-37 -148h-184z" />
    <glyph glyph-name="uni286C" unicode="&#x286c;" 
d="M512 708h184l-37 -148h-183zM177 260h183l-36 -148h-184zM401 260h183l-36 -148h-184zM121 36h184l-37 -148h-184z" />
    <glyph glyph-name="uni286D" unicode="&#x286d;" 
d="M288 708h184l-37 -148h-183zM512 708h184l-37 -148h-183zM177 260h183l-36 -148h-184zM401 260h183l-36 -148h-184zM121 36h184l-37 -148h-184z" />
    <glyph glyph-name="uni286E" unicode="&#x286e;" 
d="M512 708h184l-37 -148h-183zM233 484h183l-37 -148h-183zM177 260h183l-36 -148h-184zM401 260h183l-36 -148h-184zM121 36h184l-37 -148h-184z" />
    <glyph glyph-name="uni286F" unicode="&#x286f;" 
d="M288 708h184l-37 -148h-183zM512 708h184l-37 -148h-183zM233 484h183l-37 -148h-183zM177 260h183l-36 -148h-184zM401 260h183l-36 -148h-184zM121 36h184l-37 -148h-184z" />
    <glyph glyph-name="uni2870" unicode="&#x2870;" 
d="M457 484h183l-37 -148h-183zM401 260h183l-36 -148h-184zM121 36h184l-37 -148h-184z" />
    <glyph glyph-name="uni2871" unicode="&#x2871;" 
d="M288 708h184l-37 -148h-183zM457 484h183l-37 -148h-183zM401 260h183l-36 -148h-184zM121 36h184l-37 -148h-184z" />
    <glyph glyph-name="uni2872" unicode="&#x2872;" 
d="M233 484h183l-37 -148h-183zM457 484h183l-37 -148h-183zM401 260h183l-36 -148h-184zM121 36h184l-37 -148h-184z" />
    <glyph glyph-name="uni2873" unicode="&#x2873;" 
d="M288 708h184l-37 -148h-183zM233 484h183l-37 -148h-183zM457 484h183l-37 -148h-183zM401 260h183l-36 -148h-184zM121 36h184l-37 -148h-184z" />
    <glyph glyph-name="uni2874" unicode="&#x2874;" 
d="M457 484h183l-37 -148h-183zM177 260h183l-36 -148h-184zM401 260h183l-36 -148h-184zM121 36h184l-37 -148h-184z" />
    <glyph glyph-name="uni2875" unicode="&#x2875;" 
d="M288 708h184l-37 -148h-183zM457 484h183l-37 -148h-183zM177 260h183l-36 -148h-184zM401 260h183l-36 -148h-184zM121 36h184l-37 -148h-184z" />
    <glyph glyph-name="uni2876" unicode="&#x2876;" 
d="M233 484h183l-37 -148h-183zM457 484h183l-37 -148h-183zM177 260h183l-36 -148h-184zM401 260h183l-36 -148h-184zM121 36h184l-37 -148h-184z" />
    <glyph glyph-name="uni2877" unicode="&#x2877;" 
d="M288 708h184l-37 -148h-183zM233 484h183l-37 -148h-183zM457 484h183l-37 -148h-183zM177 260h183l-36 -148h-184zM401 260h183l-36 -148h-184zM121 36h184l-37 -148h-184z" />
    <glyph glyph-name="uni2878" unicode="&#x2878;" 
d="M512 708h184l-37 -148h-183zM457 484h183l-37 -148h-183zM401 260h183l-36 -148h-184zM121 36h184l-37 -148h-184z" />
    <glyph glyph-name="uni2879" unicode="&#x2879;" 
d="M288 708h184l-37 -148h-183zM512 708h184l-37 -148h-183zM457 484h183l-37 -148h-183zM401 260h183l-36 -148h-184zM121 36h184l-37 -148h-184z" />
    <glyph glyph-name="uni287A" unicode="&#x287a;" 
d="M512 708h184l-37 -148h-183zM233 484h183l-37 -148h-183zM457 484h183l-37 -148h-183zM401 260h183l-36 -148h-184zM121 36h184l-37 -148h-184z" />
    <glyph glyph-name="uni287B" unicode="&#x287b;" 
d="M288 708h184l-37 -148h-183zM512 708h184l-37 -148h-183zM233 484h183l-37 -148h-183zM457 484h183l-37 -148h-183zM401 260h183l-36 -148h-184zM121 36h184l-37 -148h-184z" />
    <glyph glyph-name="uni287C" unicode="&#x287c;" 
d="M512 708h184l-37 -148h-183zM457 484h183l-37 -148h-183zM177 260h183l-36 -148h-184zM401 260h183l-36 -148h-184zM121 36h184l-37 -148h-184z" />
    <glyph glyph-name="uni287D" unicode="&#x287d;" 
d="M288 708h184l-37 -148h-183zM512 708h184l-37 -148h-183zM457 484h183l-37 -148h-183zM177 260h183l-36 -148h-184zM401 260h183l-36 -148h-184zM121 36h184l-37 -148h-184z" />
    <glyph glyph-name="uni287E" unicode="&#x287e;" 
d="M512 708h184l-37 -148h-183zM233 484h183l-37 -148h-183zM457 484h183l-37 -148h-183zM177 260h183l-36 -148h-184zM401 260h183l-36 -148h-184zM121 36h184l-37 -148h-184z" />
    <glyph glyph-name="uni287F" unicode="&#x287f;" 
d="M288 708h184l-37 -148h-183zM512 708h184l-37 -148h-183zM233 484h183l-37 -148h-183zM457 484h183l-37 -148h-183zM177 260h183l-36 -148h-184zM401 260h183l-36 -148h-184zM121 36h184l-37 -148h-184z" />
    <glyph glyph-name="uni2880" unicode="&#x2880;" 
d="M345 36h184l-37 -148h-184z" />
    <glyph glyph-name="uni2881" unicode="&#x2881;" 
d="M288 708h184l-37 -148h-183zM345 36h184l-37 -148h-184z" />
    <glyph glyph-name="uni2882" unicode="&#x2882;" 
d="M233 484h183l-37 -148h-183zM345 36h184l-37 -148h-184z" />
    <glyph glyph-name="uni2883" unicode="&#x2883;" 
d="M288 708h184l-37 -148h-183zM233 484h183l-37 -148h-183zM345 36h184l-37 -148h-184z" />
    <glyph glyph-name="uni2884" unicode="&#x2884;" 
d="M177 260h183l-36 -148h-184zM345 36h184l-37 -148h-184z" />
    <glyph glyph-name="uni2885" unicode="&#x2885;" 
d="M288 708h184l-37 -148h-183zM177 260h183l-36 -148h-184zM345 36h184l-37 -148h-184z" />
    <glyph glyph-name="uni2886" unicode="&#x2886;" 
d="M233 484h183l-37 -148h-183zM177 260h183l-36 -148h-184zM345 36h184l-37 -148h-184z" />
    <glyph glyph-name="uni2887" unicode="&#x2887;" 
d="M288 708h184l-37 -148h-183zM233 484h183l-37 -148h-183zM177 260h183l-36 -148h-184zM345 36h184l-37 -148h-184z" />
    <glyph glyph-name="uni2888" unicode="&#x2888;" 
d="M512 708h184l-37 -148h-183zM345 36h184l-37 -148h-184z" />
    <glyph glyph-name="uni2889" unicode="&#x2889;" 
d="M288 708h184l-37 -148h-183zM512 708h184l-37 -148h-183zM345 36h184l-37 -148h-184z" />
    <glyph glyph-name="uni288A" unicode="&#x288a;" 
d="M512 708h184l-37 -148h-183zM233 484h183l-37 -148h-183zM345 36h184l-37 -148h-184z" />
    <glyph glyph-name="uni288B" unicode="&#x288b;" 
d="M288 708h184l-37 -148h-183zM512 708h184l-37 -148h-183zM233 484h183l-37 -148h-183zM345 36h184l-37 -148h-184z" />
    <glyph glyph-name="uni288C" unicode="&#x288c;" 
d="M512 708h184l-37 -148h-183zM177 260h183l-36 -148h-184zM345 36h184l-37 -148h-184z" />
    <glyph glyph-name="uni288D" unicode="&#x288d;" 
d="M288 708h184l-37 -148h-183zM512 708h184l-37 -148h-183zM177 260h183l-36 -148h-184zM345 36h184l-37 -148h-184z" />
    <glyph glyph-name="uni288E" unicode="&#x288e;" 
d="M512 708h184l-37 -148h-183zM233 484h183l-37 -148h-183zM177 260h183l-36 -148h-184zM345 36h184l-37 -148h-184z" />
    <glyph glyph-name="uni288F" unicode="&#x288f;" 
d="M288 708h184l-37 -148h-183zM512 708h184l-37 -148h-183zM233 484h183l-37 -148h-183zM177 260h183l-36 -148h-184zM345 36h184l-37 -148h-184z" />
    <glyph glyph-name="uni2890" unicode="&#x2890;" 
d="M457 484h183l-37 -148h-183zM345 36h184l-37 -148h-184z" />
    <glyph glyph-name="uni2891" unicode="&#x2891;" 
d="M288 708h184l-37 -148h-183zM457 484h183l-37 -148h-183zM345 36h184l-37 -148h-184z" />
    <glyph glyph-name="uni2892" unicode="&#x2892;" 
d="M233 484h183l-37 -148h-183zM457 484h183l-37 -148h-183zM345 36h184l-37 -148h-184z" />
    <glyph glyph-name="uni2893" unicode="&#x2893;" 
d="M288 708h184l-37 -148h-183zM233 484h183l-37 -148h-183zM457 484h183l-37 -148h-183zM345 36h184l-37 -148h-184z" />
    <glyph glyph-name="uni2894" unicode="&#x2894;" 
d="M457 484h183l-37 -148h-183zM177 260h183l-36 -148h-184zM345 36h184l-37 -148h-184z" />
    <glyph glyph-name="uni2895" unicode="&#x2895;" 
d="M288 708h184l-37 -148h-183zM457 484h183l-37 -148h-183zM177 260h183l-36 -148h-184zM345 36h184l-37 -148h-184z" />
    <glyph glyph-name="uni2896" unicode="&#x2896;" 
d="M233 484h183l-37 -148h-183zM457 484h183l-37 -148h-183zM177 260h183l-36 -148h-184zM345 36h184l-37 -148h-184z" />
    <glyph glyph-name="uni2897" unicode="&#x2897;" 
d="M288 708h184l-37 -148h-183zM233 484h183l-37 -148h-183zM457 484h183l-37 -148h-183zM177 260h183l-36 -148h-184zM345 36h184l-37 -148h-184z" />
    <glyph glyph-name="uni2898" unicode="&#x2898;" 
d="M512 708h184l-37 -148h-183zM457 484h183l-37 -148h-183zM345 36h184l-37 -148h-184z" />
    <glyph glyph-name="uni2899" unicode="&#x2899;" 
d="M288 708h184l-37 -148h-183zM512 708h184l-37 -148h-183zM457 484h183l-37 -148h-183zM345 36h184l-37 -148h-184z" />
    <glyph glyph-name="uni289A" unicode="&#x289a;" 
d="M512 708h184l-37 -148h-183zM233 484h183l-37 -148h-183zM457 484h183l-37 -148h-183zM345 36h184l-37 -148h-184z" />
    <glyph glyph-name="uni289B" unicode="&#x289b;" 
d="M288 708h184l-37 -148h-183zM512 708h184l-37 -148h-183zM233 484h183l-37 -148h-183zM457 484h183l-37 -148h-183zM345 36h184l-37 -148h-184z" />
    <glyph glyph-name="uni289C" unicode="&#x289c;" 
d="M512 708h184l-37 -148h-183zM457 484h183l-37 -148h-183zM177 260h183l-36 -148h-184zM345 36h184l-37 -148h-184z" />
    <glyph glyph-name="uni289D" unicode="&#x289d;" 
d="M288 708h184l-37 -148h-183zM512 708h184l-37 -148h-183zM457 484h183l-37 -148h-183zM177 260h183l-36 -148h-184zM345 36h184l-37 -148h-184z" />
    <glyph glyph-name="uni289E" unicode="&#x289e;" 
d="M512 708h184l-37 -148h-183zM233 484h183l-37 -148h-183zM457 484h183l-37 -148h-183zM177 260h183l-36 -148h-184zM345 36h184l-37 -148h-184z" />
    <glyph glyph-name="uni289F" unicode="&#x289f;" 
d="M288 708h184l-37 -148h-183zM512 708h184l-37 -148h-183zM233 484h183l-37 -148h-183zM457 484h183l-37 -148h-183zM177 260h183l-36 -148h-184zM345 36h184l-37 -148h-184z" />
    <glyph glyph-name="uni28A0" unicode="&#x28a0;" 
d="M401 260h183l-36 -148h-184zM345 36h184l-37 -148h-184z" />
    <glyph glyph-name="uni28A1" unicode="&#x28a1;" 
d="M288 708h184l-37 -148h-183zM401 260h183l-36 -148h-184zM345 36h184l-37 -148h-184z" />
    <glyph glyph-name="uni28A2" unicode="&#x28a2;" 
d="M233 484h183l-37 -148h-183zM401 260h183l-36 -148h-184zM345 36h184l-37 -148h-184z" />
    <glyph glyph-name="uni28A3" unicode="&#x28a3;" 
d="M288 708h184l-37 -148h-183zM233 484h183l-37 -148h-183zM401 260h183l-36 -148h-184zM345 36h184l-37 -148h-184z" />
    <glyph glyph-name="uni28A4" unicode="&#x28a4;" 
d="M177 260h183l-36 -148h-184zM401 260h183l-36 -148h-184zM345 36h184l-37 -148h-184z" />
    <glyph glyph-name="uni28A5" unicode="&#x28a5;" 
d="M288 708h184l-37 -148h-183zM177 260h183l-36 -148h-184zM401 260h183l-36 -148h-184zM345 36h184l-37 -148h-184z" />
    <glyph glyph-name="uni28A6" unicode="&#x28a6;" 
d="M233 484h183l-37 -148h-183zM177 260h183l-36 -148h-184zM401 260h183l-36 -148h-184zM345 36h184l-37 -148h-184z" />
    <glyph glyph-name="uni28A7" unicode="&#x28a7;" 
d="M288 708h184l-37 -148h-183zM233 484h183l-37 -148h-183zM177 260h183l-36 -148h-184zM401 260h183l-36 -148h-184zM345 36h184l-37 -148h-184z" />
    <glyph glyph-name="uni28A8" unicode="&#x28a8;" 
d="M512 708h184l-37 -148h-183zM401 260h183l-36 -148h-184zM345 36h184l-37 -148h-184z" />
    <glyph glyph-name="uni28A9" unicode="&#x28a9;" 
d="M288 708h184l-37 -148h-183zM512 708h184l-37 -148h-183zM401 260h183l-36 -148h-184zM345 36h184l-37 -148h-184z" />
    <glyph glyph-name="uni28AA" unicode="&#x28aa;" 
d="M512 708h184l-37 -148h-183zM233 484h183l-37 -148h-183zM401 260h183l-36 -148h-184zM345 36h184l-37 -148h-184z" />
    <glyph glyph-name="uni28AB" unicode="&#x28ab;" 
d="M288 708h184l-37 -148h-183zM512 708h184l-37 -148h-183zM233 484h183l-37 -148h-183zM401 260h183l-36 -148h-184zM345 36h184l-37 -148h-184z" />
    <glyph glyph-name="uni28AC" unicode="&#x28ac;" 
d="M512 708h184l-37 -148h-183zM177 260h183l-36 -148h-184zM401 260h183l-36 -148h-184zM345 36h184l-37 -148h-184z" />
    <glyph glyph-name="uni28AD" unicode="&#x28ad;" 
d="M288 708h184l-37 -148h-183zM512 708h184l-37 -148h-183zM177 260h183l-36 -148h-184zM401 260h183l-36 -148h-184zM345 36h184l-37 -148h-184z" />
    <glyph glyph-name="uni28AE" unicode="&#x28ae;" 
d="M512 708h184l-37 -148h-183zM233 484h183l-37 -148h-183zM177 260h183l-36 -148h-184zM401 260h183l-36 -148h-184zM345 36h184l-37 -148h-184z" />
    <glyph glyph-name="uni28AF" unicode="&#x28af;" 
d="M288 708h184l-37 -148h-183zM512 708h184l-37 -148h-183zM233 484h183l-37 -148h-183zM177 260h183l-36 -148h-184zM401 260h183l-36 -148h-184zM345 36h184l-37 -148h-184z" />
    <glyph glyph-name="uni28B0" unicode="&#x28b0;" 
d="M457 484h183l-37 -148h-183zM401 260h183l-36 -148h-184zM345 36h184l-37 -148h-184z" />
    <glyph glyph-name="uni28B1" unicode="&#x28b1;" 
d="M288 708h184l-37 -148h-183zM457 484h183l-37 -148h-183zM401 260h183l-36 -148h-184zM345 36h184l-37 -148h-184z" />
    <glyph glyph-name="uni28B2" unicode="&#x28b2;" 
d="M233 484h183l-37 -148h-183zM457 484h183l-37 -148h-183zM401 260h183l-36 -148h-184zM345 36h184l-37 -148h-184z" />
    <glyph glyph-name="uni28B3" unicode="&#x28b3;" 
d="M288 708h184l-37 -148h-183zM233 484h183l-37 -148h-183zM457 484h183l-37 -148h-183zM401 260h183l-36 -148h-184zM345 36h184l-37 -148h-184z" />
    <glyph glyph-name="uni28B4" unicode="&#x28b4;" 
d="M457 484h183l-37 -148h-183zM177 260h183l-36 -148h-184zM401 260h183l-36 -148h-184zM345 36h184l-37 -148h-184z" />
    <glyph glyph-name="uni28B5" unicode="&#x28b5;" 
d="M288 708h184l-37 -148h-183zM457 484h183l-37 -148h-183zM177 260h183l-36 -148h-184zM401 260h183l-36 -148h-184zM345 36h184l-37 -148h-184z" />
    <glyph glyph-name="uni28B6" unicode="&#x28b6;" 
d="M233 484h183l-37 -148h-183zM457 484h183l-37 -148h-183zM177 260h183l-36 -148h-184zM401 260h183l-36 -148h-184zM345 36h184l-37 -148h-184z" />
    <glyph glyph-name="uni28B7" unicode="&#x28b7;" 
d="M288 708h184l-37 -148h-183zM233 484h183l-37 -148h-183zM457 484h183l-37 -148h-183zM177 260h183l-36 -148h-184zM401 260h183l-36 -148h-184zM345 36h184l-37 -148h-184z" />
    <glyph glyph-name="uni28B8" unicode="&#x28b8;" 
d="M512 708h184l-37 -148h-183zM457 484h183l-37 -148h-183zM401 260h183l-36 -148h-184zM345 36h184l-37 -148h-184z" />
    <glyph glyph-name="uni28B9" unicode="&#x28b9;" 
d="M288 708h184l-37 -148h-183zM512 708h184l-37 -148h-183zM457 484h183l-37 -148h-183zM401 260h183l-36 -148h-184zM345 36h184l-37 -148h-184z" />
    <glyph glyph-name="uni28BA" unicode="&#x28ba;" 
d="M512 708h184l-37 -148h-183zM233 484h183l-37 -148h-183zM457 484h183l-37 -148h-183zM401 260h183l-36 -148h-184zM345 36h184l-37 -148h-184z" />
    <glyph glyph-name="uni28BB" unicode="&#x28bb;" 
d="M288 708h184l-37 -148h-183zM512 708h184l-37 -148h-183zM233 484h183l-37 -148h-183zM457 484h183l-37 -148h-183zM401 260h183l-36 -148h-184zM345 36h184l-37 -148h-184z" />
    <glyph glyph-name="uni28BC" unicode="&#x28bc;" 
d="M512 708h184l-37 -148h-183zM457 484h183l-37 -148h-183zM177 260h183l-36 -148h-184zM401 260h183l-36 -148h-184zM345 36h184l-37 -148h-184z" />
    <glyph glyph-name="uni28BD" unicode="&#x28bd;" 
d="M288 708h184l-37 -148h-183zM512 708h184l-37 -148h-183zM457 484h183l-37 -148h-183zM177 260h183l-36 -148h-184zM401 260h183l-36 -148h-184zM345 36h184l-37 -148h-184z" />
    <glyph glyph-name="uni28BE" unicode="&#x28be;" 
d="M512 708h184l-37 -148h-183zM233 484h183l-37 -148h-183zM457 484h183l-37 -148h-183zM177 260h183l-36 -148h-184zM401 260h183l-36 -148h-184zM345 36h184l-37 -148h-184z" />
    <glyph glyph-name="uni28BF" unicode="&#x28bf;" 
d="M288 708h184l-37 -148h-183zM512 708h184l-37 -148h-183zM233 484h183l-37 -148h-183zM457 484h183l-37 -148h-183zM177 260h183l-36 -148h-184zM401 260h183l-36 -148h-184zM345 36h184l-37 -148h-184z" />
    <glyph glyph-name="uni28C0" unicode="&#x28c0;" 
d="M121 36h184l-37 -148h-184zM345 36h184l-37 -148h-184z" />
    <glyph glyph-name="uni28C1" unicode="&#x28c1;" 
d="M288 708h184l-37 -148h-183zM121 36h184l-37 -148h-184zM345 36h184l-37 -148h-184z" />
    <glyph glyph-name="uni28C2" unicode="&#x28c2;" 
d="M233 484h183l-37 -148h-183zM121 36h184l-37 -148h-184zM345 36h184l-37 -148h-184z" />
    <glyph glyph-name="uni28C3" unicode="&#x28c3;" 
d="M288 708h184l-37 -148h-183zM233 484h183l-37 -148h-183zM121 36h184l-37 -148h-184zM345 36h184l-37 -148h-184z" />
    <glyph glyph-name="uni28C4" unicode="&#x28c4;" 
d="M177 260h183l-36 -148h-184zM121 36h184l-37 -148h-184zM345 36h184l-37 -148h-184z" />
    <glyph glyph-name="uni28C5" unicode="&#x28c5;" 
d="M288 708h184l-37 -148h-183zM177 260h183l-36 -148h-184zM121 36h184l-37 -148h-184zM345 36h184l-37 -148h-184z" />
    <glyph glyph-name="uni28C6" unicode="&#x28c6;" 
d="M233 484h183l-37 -148h-183zM177 260h183l-36 -148h-184zM121 36h184l-37 -148h-184zM345 36h184l-37 -148h-184z" />
    <glyph glyph-name="uni28C7" unicode="&#x28c7;" 
d="M288 708h184l-37 -148h-183zM233 484h183l-37 -148h-183zM177 260h183l-36 -148h-184zM121 36h184l-37 -148h-184zM345 36h184l-37 -148h-184z" />
    <glyph glyph-name="uni28C8" unicode="&#x28c8;" 
d="M512 708h184l-37 -148h-183zM121 36h184l-37 -148h-184zM345 36h184l-37 -148h-184z" />
    <glyph glyph-name="uni28C9" unicode="&#x28c9;" 
d="M288 708h184l-37 -148h-183zM512 708h184l-37 -148h-183zM121 36h184l-37 -148h-184zM345 36h184l-37 -148h-184z" />
    <glyph glyph-name="uni28CA" unicode="&#x28ca;" 
d="M512 708h184l-37 -148h-183zM233 484h183l-37 -148h-183zM121 36h184l-37 -148h-184zM345 36h184l-37 -148h-184z" />
    <glyph glyph-name="uni28CB" unicode="&#x28cb;" 
d="M288 708h184l-37 -148h-183zM512 708h184l-37 -148h-183zM233 484h183l-37 -148h-183zM121 36h184l-37 -148h-184zM345 36h184l-37 -148h-184z" />
    <glyph glyph-name="uni28CC" unicode="&#x28cc;" 
d="M512 708h184l-37 -148h-183zM177 260h183l-36 -148h-184zM121 36h184l-37 -148h-184zM345 36h184l-37 -148h-184z" />
    <glyph glyph-name="uni28CD" unicode="&#x28cd;" 
d="M288 708h184l-37 -148h-183zM512 708h184l-37 -148h-183zM177 260h183l-36 -148h-184zM121 36h184l-37 -148h-184zM345 36h184l-37 -148h-184z" />
    <glyph glyph-name="uni28CE" unicode="&#x28ce;" 
d="M512 708h184l-37 -148h-183zM233 484h183l-37 -148h-183zM177 260h183l-36 -148h-184zM121 36h184l-37 -148h-184zM345 36h184l-37 -148h-184z" />
    <glyph glyph-name="uni28CF" unicode="&#x28cf;" 
d="M288 708h184l-37 -148h-183zM512 708h184l-37 -148h-183zM233 484h183l-37 -148h-183zM177 260h183l-36 -148h-184zM121 36h184l-37 -148h-184zM345 36h184l-37 -148h-184z" />
    <glyph glyph-name="uni28D0" unicode="&#x28d0;" 
d="M457 484h183l-37 -148h-183zM121 36h184l-37 -148h-184zM345 36h184l-37 -148h-184z" />
    <glyph glyph-name="uni28D1" unicode="&#x28d1;" 
d="M288 708h184l-37 -148h-183zM457 484h183l-37 -148h-183zM121 36h184l-37 -148h-184zM345 36h184l-37 -148h-184z" />
    <glyph glyph-name="uni28D2" unicode="&#x28d2;" 
d="M233 484h183l-37 -148h-183zM457 484h183l-37 -148h-183zM121 36h184l-37 -148h-184zM345 36h184l-37 -148h-184z" />
    <glyph glyph-name="uni28D3" unicode="&#x28d3;" 
d="M288 708h184l-37 -148h-183zM233 484h183l-37 -148h-183zM457 484h183l-37 -148h-183zM121 36h184l-37 -148h-184zM345 36h184l-37 -148h-184z" />
    <glyph glyph-name="uni28D4" unicode="&#x28d4;" 
d="M457 484h183l-37 -148h-183zM177 260h183l-36 -148h-184zM121 36h184l-37 -148h-184zM345 36h184l-37 -148h-184z" />
    <glyph glyph-name="uni28D5" unicode="&#x28d5;" 
d="M288 708h184l-37 -148h-183zM457 484h183l-37 -148h-183zM177 260h183l-36 -148h-184zM121 36h184l-37 -148h-184zM345 36h184l-37 -148h-184z" />
    <glyph glyph-name="uni28D6" unicode="&#x28d6;" 
d="M233 484h183l-37 -148h-183zM457 484h183l-37 -148h-183zM177 260h183l-36 -148h-184zM121 36h184l-37 -148h-184zM345 36h184l-37 -148h-184z" />
    <glyph glyph-name="uni28D7" unicode="&#x28d7;" 
d="M288 708h184l-37 -148h-183zM233 484h183l-37 -148h-183zM457 484h183l-37 -148h-183zM177 260h183l-36 -148h-184zM121 36h184l-37 -148h-184zM345 36h184l-37 -148h-184z" />
    <glyph glyph-name="uni28D8" unicode="&#x28d8;" 
d="M512 708h184l-37 -148h-183zM457 484h183l-37 -148h-183zM121 36h184l-37 -148h-184zM345 36h184l-37 -148h-184z" />
    <glyph glyph-name="uni28D9" unicode="&#x28d9;" 
d="M288 708h184l-37 -148h-183zM512 708h184l-37 -148h-183zM457 484h183l-37 -148h-183zM121 36h184l-37 -148h-184zM345 36h184l-37 -148h-184z" />
    <glyph glyph-name="uni28DA" unicode="&#x28da;" 
d="M512 708h184l-37 -148h-183zM233 484h183l-37 -148h-183zM457 484h183l-37 -148h-183zM121 36h184l-37 -148h-184zM345 36h184l-37 -148h-184z" />
    <glyph glyph-name="uni28DB" unicode="&#x28db;" 
d="M288 708h184l-37 -148h-183zM512 708h184l-37 -148h-183zM233 484h183l-37 -148h-183zM457 484h183l-37 -148h-183zM121 36h184l-37 -148h-184zM345 36h184l-37 -148h-184z" />
    <glyph glyph-name="uni28DC" unicode="&#x28dc;" 
d="M512 708h184l-37 -148h-183zM457 484h183l-37 -148h-183zM177 260h183l-36 -148h-184zM121 36h184l-37 -148h-184zM345 36h184l-37 -148h-184z" />
    <glyph glyph-name="uni28DD" unicode="&#x28dd;" 
d="M288 708h184l-37 -148h-183zM512 708h184l-37 -148h-183zM457 484h183l-37 -148h-183zM177 260h183l-36 -148h-184zM121 36h184l-37 -148h-184zM345 36h184l-37 -148h-184z" />
    <glyph glyph-name="uni28DE" unicode="&#x28de;" 
d="M512 708h184l-37 -148h-183zM233 484h183l-37 -148h-183zM457 484h183l-37 -148h-183zM177 260h183l-36 -148h-184zM121 36h184l-37 -148h-184zM345 36h184l-37 -148h-184z" />
    <glyph glyph-name="uni28DF" unicode="&#x28df;" 
d="M288 708h184l-37 -148h-183zM512 708h184l-37 -148h-183zM233 484h183l-37 -148h-183zM457 484h183l-37 -148h-183zM177 260h183l-36 -148h-184zM121 36h184l-37 -148h-184zM345 36h184l-37 -148h-184z" />
    <glyph glyph-name="uni28E0" unicode="&#x28e0;" 
d="M401 260h183l-36 -148h-184zM121 36h184l-37 -148h-184zM345 36h184l-37 -148h-184z" />
    <glyph glyph-name="uni28E1" unicode="&#x28e1;" 
d="M288 708h184l-37 -148h-183zM401 260h183l-36 -148h-184zM121 36h184l-37 -148h-184zM345 36h184l-37 -148h-184z" />
    <glyph glyph-name="uni28E2" unicode="&#x28e2;" 
d="M233 484h183l-37 -148h-183zM401 260h183l-36 -148h-184zM121 36h184l-37 -148h-184zM345 36h184l-37 -148h-184z" />
    <glyph glyph-name="uni28E3" unicode="&#x28e3;" 
d="M288 708h184l-37 -148h-183zM233 484h183l-37 -148h-183zM401 260h183l-36 -148h-184zM121 36h184l-37 -148h-184zM345 36h184l-37 -148h-184z" />
    <glyph glyph-name="uni28E4" unicode="&#x28e4;" 
d="M177 260h183l-36 -148h-184zM401 260h183l-36 -148h-184zM121 36h184l-37 -148h-184zM345 36h184l-37 -148h-184z" />
    <glyph glyph-name="uni28E5" unicode="&#x28e5;" 
d="M288 708h184l-37 -148h-183zM177 260h183l-36 -148h-184zM401 260h183l-36 -148h-184zM121 36h184l-37 -148h-184zM345 36h184l-37 -148h-184z" />
    <glyph glyph-name="uni28E6" unicode="&#x28e6;" 
d="M233 484h183l-37 -148h-183zM177 260h183l-36 -148h-184zM401 260h183l-36 -148h-184zM121 36h184l-37 -148h-184zM345 36h184l-37 -148h-184z" />
    <glyph glyph-name="uni28E7" unicode="&#x28e7;" 
d="M288 708h184l-37 -148h-183zM233 484h183l-37 -148h-183zM177 260h183l-36 -148h-184zM401 260h183l-36 -148h-184zM121 36h184l-37 -148h-184zM345 36h184l-37 -148h-184z" />
    <glyph glyph-name="uni28E8" unicode="&#x28e8;" 
d="M512 708h184l-37 -148h-183zM401 260h183l-36 -148h-184zM121 36h184l-37 -148h-184zM345 36h184l-37 -148h-184z" />
    <glyph glyph-name="uni28E9" unicode="&#x28e9;" 
d="M288 708h184l-37 -148h-183zM512 708h184l-37 -148h-183zM401 260h183l-36 -148h-184zM121 36h184l-37 -148h-184zM345 36h184l-37 -148h-184z" />
    <glyph glyph-name="uni28EA" unicode="&#x28ea;" 
d="M512 708h184l-37 -148h-183zM233 484h183l-37 -148h-183zM401 260h183l-36 -148h-184zM121 36h184l-37 -148h-184zM345 36h184l-37 -148h-184z" />
    <glyph glyph-name="uni28EB" unicode="&#x28eb;" 
d="M288 708h184l-37 -148h-183zM512 708h184l-37 -148h-183zM233 484h183l-37 -148h-183zM401 260h183l-36 -148h-184zM121 36h184l-37 -148h-184zM345 36h184l-37 -148h-184z" />
    <glyph glyph-name="uni28EC" unicode="&#x28ec;" 
d="M512 708h184l-37 -148h-183zM177 260h183l-36 -148h-184zM401 260h183l-36 -148h-184zM121 36h184l-37 -148h-184zM345 36h184l-37 -148h-184z" />
    <glyph glyph-name="uni28ED" unicode="&#x28ed;" 
d="M288 708h184l-37 -148h-183zM512 708h184l-37 -148h-183zM177 260h183l-36 -148h-184zM401 260h183l-36 -148h-184zM121 36h184l-37 -148h-184zM345 36h184l-37 -148h-184z" />
    <glyph glyph-name="uni28EE" unicode="&#x28ee;" 
d="M512 708h184l-37 -148h-183zM233 484h183l-37 -148h-183zM177 260h183l-36 -148h-184zM401 260h183l-36 -148h-184zM121 36h184l-37 -148h-184zM345 36h184l-37 -148h-184z" />
    <glyph glyph-name="uni28EF" unicode="&#x28ef;" 
d="M288 708h184l-37 -148h-183zM512 708h184l-37 -148h-183zM233 484h183l-37 -148h-183zM177 260h183l-36 -148h-184zM401 260h183l-36 -148h-184zM121 36h184l-37 -148h-184zM345 36h184l-37 -148h-184z" />
    <glyph glyph-name="uni28F0" unicode="&#x28f0;" 
d="M457 484h183l-37 -148h-183zM401 260h183l-36 -148h-184zM121 36h184l-37 -148h-184zM345 36h184l-37 -148h-184z" />
    <glyph glyph-name="uni28F1" unicode="&#x28f1;" 
d="M288 708h184l-37 -148h-183zM457 484h183l-37 -148h-183zM401 260h183l-36 -148h-184zM121 36h184l-37 -148h-184zM345 36h184l-37 -148h-184z" />
    <glyph glyph-name="uni28F2" unicode="&#x28f2;" 
d="M233 484h183l-37 -148h-183zM457 484h183l-37 -148h-183zM401 260h183l-36 -148h-184zM121 36h184l-37 -148h-184zM345 36h184l-37 -148h-184z" />
    <glyph glyph-name="uni28F3" unicode="&#x28f3;" 
d="M288 708h184l-37 -148h-183zM233 484h183l-37 -148h-183zM457 484h183l-37 -148h-183zM401 260h183l-36 -148h-184zM121 36h184l-37 -148h-184zM345 36h184l-37 -148h-184z" />
    <glyph glyph-name="uni28F4" unicode="&#x28f4;" 
d="M457 484h183l-37 -148h-183zM177 260h183l-36 -148h-184zM401 260h183l-36 -148h-184zM121 36h184l-37 -148h-184zM345 36h184l-37 -148h-184z" />
    <glyph glyph-name="uni28F5" unicode="&#x28f5;" 
d="M288 708h184l-37 -148h-183zM457 484h183l-37 -148h-183zM177 260h183l-36 -148h-184zM401 260h183l-36 -148h-184zM121 36h184l-37 -148h-184zM345 36h184l-37 -148h-184z" />
    <glyph glyph-name="uni28F6" unicode="&#x28f6;" 
d="M233 484h183l-37 -148h-183zM457 484h183l-37 -148h-183zM177 260h183l-36 -148h-184zM401 260h183l-36 -148h-184zM121 36h184l-37 -148h-184zM345 36h184l-37 -148h-184z" />
    <glyph glyph-name="uni28F7" unicode="&#x28f7;" 
d="M288 708h184l-37 -148h-183zM233 484h183l-37 -148h-183zM457 484h183l-37 -148h-183zM177 260h183l-36 -148h-184zM401 260h183l-36 -148h-184zM121 36h184l-37 -148h-184zM345 36h184l-37 -148h-184z" />
    <glyph glyph-name="uni28F8" unicode="&#x28f8;" 
d="M512 708h184l-37 -148h-183zM457 484h183l-37 -148h-183zM401 260h183l-36 -148h-184zM121 36h184l-37 -148h-184zM345 36h184l-37 -148h-184z" />
    <glyph glyph-name="uni28F9" unicode="&#x28f9;" 
d="M288 708h184l-37 -148h-183zM512 708h184l-37 -148h-183zM457 484h183l-37 -148h-183zM401 260h183l-36 -148h-184zM121 36h184l-37 -148h-184zM345 36h184l-37 -148h-184z" />
    <glyph glyph-name="uni28FA" unicode="&#x28fa;" 
d="M512 708h184l-37 -148h-183zM233 484h183l-37 -148h-183zM457 484h183l-37 -148h-183zM401 260h183l-36 -148h-184zM121 36h184l-37 -148h-184zM345 36h184l-37 -148h-184z" />
    <glyph glyph-name="uni28FB" unicode="&#x28fb;" 
d="M288 708h184l-37 -148h-183zM512 708h184l-37 -148h-183zM233 484h183l-37 -148h-183zM457 484h183l-37 -148h-183zM401 260h183l-36 -148h-184zM121 36h184l-37 -148h-184zM345 36h184l-37 -148h-184z" />
    <glyph glyph-name="uni28FC" unicode="&#x28fc;" 
d="M512 708h184l-37 -148h-183zM457 484h183l-37 -148h-183zM177 260h183l-36 -148h-184zM401 260h183l-36 -148h-184zM121 36h184l-37 -148h-184zM345 36h184l-37 -148h-184z" />
    <glyph glyph-name="uni28FD" unicode="&#x28fd;" 
d="M288 708h184l-37 -148h-183zM512 708h184l-37 -148h-183zM457 484h183l-37 -148h-183zM177 260h183l-36 -148h-184zM401 260h183l-36 -148h-184zM121 36h184l-37 -148h-184zM345 36h184l-37 -148h-184z" />
    <glyph glyph-name="uni28FE" unicode="&#x28fe;" 
d="M512 708h184l-37 -148h-183zM233 484h183l-37 -148h-183zM457 484h183l-37 -148h-183zM177 260h183l-36 -148h-184zM401 260h183l-36 -148h-184zM121 36h184l-37 -148h-184zM345 36h184l-37 -148h-184z" />
    <glyph glyph-name="uni28FF" unicode="&#x28ff;" 
d="M288 708h184l-37 -148h-183zM512 708h184l-37 -148h-183zM233 484h183l-37 -148h-183zM457 484h183l-37 -148h-183zM177 260h183l-36 -148h-184zM401 260h183l-36 -148h-184zM121 36h184l-37 -148h-184zM345 36h184l-37 -148h-184z" />
    <glyph glyph-name="uni2B00" unicode="&#x2b00;" 
d="M316 820h520l-32 -130l-56 -224l-33 -130h-183l28 112h-41l-28 -112h-112l-27 -112h-184l28 112h-112l37 148h112l28 112h112l19 76h-112zM560 681l-24 -94h76l24 94h-76zM420 569l-24 -94h76l24 94h-76zM280 457l-24 -94h76l24 94h-76z" />
    <glyph glyph-name="uni2B01" unicode="&#x2b01;" 
d="M204 820h520l-37 -148h-112l-19 -76h112l-28 -112h112l-37 -148h-112l-27 -112h-184l28 112h-112l28 112h-41l-28 -112h-183l32 130l56 224zM336 681l-24 -94h76l24 94h-76zM420 569l-24 -94h76l24 94h-76zM504 457l-24 -94h76l24 94h-76z" />
    <glyph glyph-name="uni2B02" unicode="&#x2b02;" 
d="M261 596h183l-28 -112h112l-28 -112h41l28 112h183l-32 -130l-56 -224l-32 -130h-520l37 148h112l19 76h-112l28 112h-112l37 148h112zM280 457l-24 -94h76l24 94h-76zM364 345l-24 -94h76l24 94h-76zM448 233l-24 -94h77l23 94h-76z" />
    <glyph glyph-name="uni2B03" unicode="&#x2b03;" 
d="M485 596h183l-28 -112h112l-37 -148h-112l-27 -112h-112l-19 -76h112l-37 -148h-520l32 130l56 224l33 130h183l-28 -112h41l28 112h112zM504 457l-24 -94h76l24 94h-76zM364 345l-24 -94h76l24 94h-76zM224 233l-24 -94h77l23 94h-76z" />
    <glyph glyph-name="uni2B05" unicode="&#x2b05;" 
d="M400 708h184l-28 -112h224l-32 -130l-28 -112l-32 -130h-224l-28 -112h-184l28 112h-112l28 112h-112l37 148h112l28 112h112z" />
    <glyph glyph-name="uni2B06" unicode="&#x2b06;" 
d="M428 820h184l-28 -112h112l-28 -112h112l-37 -148h-112l-23 -94l-56 -224l-32 -130h-408l32 130l56 224l24 94h-112l37 148h112l27 112h112z" />
    <glyph glyph-name="uni2B07" unicode="&#x2b07;" 
d="M316 820h408l-32 -130l-56 -224l-24 -94h112l-36 -148h-112l-28 -112h-112l-28 -112h-184l28 112h-112l28 112h-112l37 148h112l23 94l56 224z" />
    <glyph glyph-name="uni2B08" unicode="&#x2b08;" 
d="M316 820h520l-32 -130l-56 -224l-33 -130h-183l28 112h-41l-28 -112h-112l-27 -112h-184l28 112h-112l37 148h112l28 112h112l19 76h-112z" />
    <glyph glyph-name="uni2B09" unicode="&#x2b09;" 
d="M204 820h520l-37 -148h-112l-19 -76h112l-28 -112h112l-37 -148h-112l-27 -112h-184l28 112h-112l28 112h-41l-28 -112h-183l32 130l56 224z" />
    <glyph glyph-name="uni2B0A" unicode="&#x2b0a;" 
d="M261 596h183l-28 -112h112l-28 -112h41l28 112h183l-32 -130l-56 -224l-32 -130h-520l37 148h112l19 76h-112l28 112h-112l37 148h112z" />
    <glyph glyph-name="uni2B0B" unicode="&#x2b0b;" 
d="M485 596h183l-28 -112h112l-37 -148h-112l-27 -112h-112l-19 -76h112l-37 -148h-520l32 130l56 224l33 130h183l-28 -112h41l28 112h112z" />
    <glyph glyph-name="uni2B0E" unicode="&#x2b0e;" 
d="M149 596h407l-32 -130l-24 -94h224l-36 -148h-112l-28 -112h-112l-28 -112h-184l28 112h-112l28 112h-112l37 148h224l19 76h-224z" />
    <glyph glyph-name="uni2B0F" unicode="&#x2b0f;" 
d="M373 596h183l-28 -112h112l-28 -112h112l-36 -148h-224l-24 -94l-32 -130h-408l37 148h224l19 76h-224l37 148h112l28 112h112z" />
    <glyph glyph-name="uni2B10" unicode="&#x2b10;" 
d="M373 596h407l-37 -148h-224l-19 -76h224l-36 -148h-112l-28 -112h-112l-28 -112h-184l28 112h-112l28 112h-112l37 148h224l23 94z" />
    <glyph glyph-name="uni2B11" unicode="&#x2b11;" 
d="M373 596h183l-28 -112h112l-28 -112h112l-36 -148h-224l-19 -76h224l-37 -148h-408l32 130l24 94h-224l37 148h112l28 112h112z" />
    <glyph glyph-name="uni2B12" unicode="&#x2b12;" 
d="M149 596h631l-32 -130l-84 -336l-32 -130h-632l32 130l84 336zM252 345l-52 -206h301l25 103l26 103h-300z" />
    <glyph glyph-name="uni2B13" unicode="&#x2b13;" 
d="M149 596h631l-32 -130l-84 -336l-32 -130h-632l32 130l84 336zM280 457l-52 -206h300l26 103l26 103h-300z" />
    <glyph glyph-name="uni2B14" unicode="&#x2b14;" 
d="M149 596h631l-32 -130l-84 -336l-32 -130h-632l32 130l84 336zM280 457l-26 -103l-28 -112l-26 -103h301l23 94h-112l28 112h-112l28 112h-76z" />
    <glyph glyph-name="uni2B15" unicode="&#x2b15;" 
d="M149 596h631l-32 -130l-84 -336l-32 -130h-632l32 130l84 336zM280 457l-24 -94h112l-28 -112h112l-28 -112h77l25 103l28 112l26 103h-300z" />
    <glyph glyph-name="uni2B16" unicode="&#x2b16;" 
d="M373 596h183l-28 -112h112l-28 -112h112l-36 -148h-112l-28 -112h-112l-28 -112h-184l28 112h-112l28 112h-112l37 148h112l28 112h112zM392 457l-26 -103l-28 -112l-26 -103h77l27 112h112l24 94h-112l28 112h-76z" />
    <glyph glyph-name="uni2B17" unicode="&#x2b17;" 
d="M373 596h183l-28 -112h112l-28 -112h112l-36 -148h-112l-28 -112h-112l-28 -112h-184l28 112h-112l28 112h-112l37 148h112l28 112h112zM392 457l-28 -112h-112l-24 -94h112l-28 -112h77l25 103l28 112l26 103h-76z" />
    <glyph glyph-name="uni2B18" unicode="&#x2b18;" 
d="M373 596h183l-28 -112h112l-28 -112h112l-36 -148h-112l-28 -112h-112l-28 -112h-184l28 112h-112l28 112h-112l37 148h112l28 112h112zM252 345l-24 -94h112l-28 -112h77l27 112h112l24 94h-300z" />
    <glyph glyph-name="uni2B19" unicode="&#x2b19;" 
d="M373 596h183l-28 -112h112l-28 -112h112l-36 -148h-112l-28 -112h-112l-28 -112h-184l28 112h-112l28 112h-112l37 148h112l28 112h112zM392 457l-28 -112h-112l-24 -94h300l24 94h-112l28 112h-76z" />
    <glyph glyph-name="uni2B1A" unicode="&#x2b1a;" 
d="M149 596h183l-37 -148h-183zM373 596h183l-37 -148h-183zM597 596h183l-37 -148h-183zM93 372h183l-36 -148h-184zM541 372h183l-36 -148h-184zM37 148h184l-37 -148h-184zM261 148h184l-37 -148h-184zM485 148h184l-37 -148h-184z" />
    <glyph glyph-name="uni2B1B" unicode="&#x2b1b;" horiz-adv-x="1344" 
d="M372 1044h1192l-32 -130l-224 -896l-32 -130h-1192l32 130l224 896z" />
    <glyph glyph-name="uni2B1C" unicode="&#x2b1c;" horiz-adv-x="1344" 
d="M372 1044h1192l-32 -130l-224 -896l-32 -130h-1192l32 130l224 896zM503 905l-25 -103l-168 -672l-26 -103h861l25 103l28 112l28 112l112 448l26 103h-861z" />
    <glyph glyph-name="uni2B1D" unicode="&#x2b1d;" 
d="M261 596h407l-32 -130l-28 -112l-32 -130h-408l32 130l28 112z" />
    <glyph glyph-name="uni2B1E" unicode="&#x2b1e;" 
d="M261 596h407l-32 -130l-28 -112l-32 -130h-408l32 130l28 112zM392 457l-24 -94h76l24 94h-76z" />
    <glyph glyph-name="uni2B25" unicode="&#x2b25;" 
d="M373 596h183l-28 -112h112l-28 -112h112l-36 -148h-112l-28 -112h-112l-28 -112h-184l28 112h-112l28 112h-112l37 148h112l28 112h112z" />
    <glyph glyph-name="uni2B26" unicode="&#x2b26;" 
d="M373 596h183l-28 -112h112l-28 -112h112l-36 -148h-112l-28 -112h-112l-28 -112h-184l28 112h-112l28 112h-112l37 148h112l28 112h112zM392 457l-28 -112h-112l-24 -94h112l-28 -112h77l27 112h112l24 94h-112l28 112h-76z" />
    <glyph glyph-name="uni2B27" unicode="&#x2b27;" 
d="M428 820h184l-28 -112h112l-32 -130l-24 -94h112l-37 -148h-112l-23 -94l-32 -130h-112l-28 -112h-184l28 112h-112l32 130l24 94h-112l37 148h112l23 94l32 130h112z" />
    <glyph glyph-name="uni2B28" unicode="&#x2b28;" 
d="M428 820h184l-28 -112h112l-32 -130l-24 -94h112l-37 -148h-112l-23 -94l-32 -130h-112l-28 -112h-184l28 112h-112l32 130l24 94h-112l37 148h112l23 94l32 130h112zM448 681l-26 -103l-30 -121h-112l-24 -94h112l-30 -121l-26 -103h77l25 103l30 121h112l24 94h-112
l30 121l26 103h-76z" />
    <glyph glyph-name="uni2B55" unicode="&#x2b55;" horiz-adv-x="1344" 
d="M568 932h632l-28 -112h112l-28 -112h112l-32 -130l-84 -336l-32 -130h-112l-28 -112h-112l-28 -112h-632l28 112h-112l28 112h-112l32 130l84 336l32 130h112l28 112h112zM672 681l-28 -112h-112l-26 -103l-28 -112l-26 -103h112l-28 -112h301l27 112h112l26 103l28 112
l26 103h-112l28 112h-300z" />
    <glyph glyph-name="uni2B60" unicode="&#x2b60;" 
d="M400 708h184l-32 -130l-24 -94h224l-37 -148h-224l-23 -94l-32 -130h-184l28 112h-112l28 112h-112l37 148h112l28 112h112z" />
    <glyph glyph-name="uni2B61" unicode="&#x2b61;" 
d="M428 820h184l-28 -112h112l-28 -112h112l-37 -148h-224l-23 -94l-56 -224l-32 -130h-184l32 130l56 224l24 94h-224l37 148h112l27 112h112z" />
    <glyph glyph-name="uni2B62" unicode="&#x2b62;" 
d="M400 708h184l-28 -112h112l-28 -112h112l-37 -148h-112l-27 -112h-112l-28 -112h-184l32 130l24 94h-224l37 148h224l23 94z" />
    <glyph glyph-name="uni2B63" unicode="&#x2b63;" 
d="M428 820h184l-32 -130l-56 -224l-24 -94h224l-36 -148h-112l-28 -112h-112l-28 -112h-184l28 112h-112l28 112h-112l37 148h224l23 94l56 224z" />
    <glyph glyph-name="uni2B65" unicode="&#x2b65;" 
d="M428 820h184l-28 -112h112l-28 -112h112l-37 -148h-224l-19 -76h224l-36 -148h-112l-28 -112h-112l-28 -112h-184l28 112h-112l28 112h-112l37 148h224l19 76h-224l37 148h112l27 112h112z" />
    <glyph glyph-name="uni2B66" unicode="&#x2b66;" 
d="M204 820h408l-37 -148h-112l-19 -76h112l-28 -112h112l-28 -112h112l-36 -148h-184l28 112h-112l28 112h-112l28 112h-41l-28 -112h-183l32 130l28 112z" />
    <glyph glyph-name="uni2B67" unicode="&#x2b67;" 
d="M428 820h408l-32 -130l-28 -112l-33 -130h-183l28 112h-41l-28 -112h-112l-28 -112h-112l-27 -112h-184l37 148h112l28 112h112l28 112h112l19 76h-112z" />
    <glyph glyph-name="uni2B68" unicode="&#x2b68;" 
d="M149 596h183l-28 -112h112l-28 -112h112l-28 -112h41l28 112h183l-32 -130l-28 -112l-32 -130h-408l37 148h112l19 76h-112l28 112h-112l28 112h-112z" />
    <glyph glyph-name="uni2B69" unicode="&#x2b69;" 
d="M597 596h183l-37 -148h-112l-28 -112h-112l-27 -112h-112l-19 -76h112l-37 -148h-408l32 130l28 112l33 130h183l-28 -112h41l28 112h112l28 112h112z" />
    <glyph glyph-name="uni2B6E" unicode="&#x2b6e;" 
d="M176 708h408l-32 -130l-28 -112l-33 -130h-183l28 112h-41l-47 -188h265l23 94l28 112l33 130h183l-32 -130l-28 -112l-32 -130h-112l-28 -112h-408l28 112h-112l65 260h112l19 76h-112z" />
    <glyph glyph-name="uni2B6F" unicode="&#x2b6f;" 
d="M400 708h408l-37 -148h-112l-19 -76h112l-64 -260h-112l-28 -112h-408l28 112h-112l32 130l28 112l33 130h183l-32 -130l-28 -112l-24 -94h265l47 188h-41l-28 -112h-183l32 130l28 112z" />
    <glyph glyph-name="uni2B8C" unicode="&#x2b8c;" 
d="M428 820h184l-32 -130l-24 -94h112l-28 -112h112l-32 -130l-28 -112l-32 -130h-112l-28 -112h-520l37 148h448l23 94l28 112l24 94h-41l-23 -94l-32 -130h-184l28 112h-112l28 112h-112l37 148h112l27 112h112z" />
    <glyph glyph-name="uni2B8D" unicode="&#x2b8d;" 
d="M428 820h184l-28 -112h112l-28 -112h112l-37 -148h-224l-23 -94l-28 -112l-32 -130h-112l-28 -112h-184l28 112h-112l65 260h183l-32 -130l-23 -94h40l23 94l28 112l24 94h-224l37 148h112l27 112h112z" />
    <glyph glyph-name="uni2B8E" unicode="&#x2b8e;" 
d="M316 820h520l-37 -148h-448l-23 -94l-28 -112l-24 -94h41l23 94l33 130h183l-28 -112h112l-28 -112h112l-36 -148h-112l-28 -112h-112l-28 -112h-184l32 130l24 94h-112l28 112h-112l32 130l28 112l32 130h112z" />
    <glyph glyph-name="uni2B8F" unicode="&#x2b8f;" 
d="M540 820h184l-28 -112h112l-32 -130l-33 -130h-183l32 130l24 94h-41l-23 -94l-28 -112l-24 -94h224l-36 -148h-112l-28 -112h-112l-28 -112h-184l28 112h-112l28 112h-112l37 148h224l23 94l28 112l32 130h112z" />
    <glyph glyph-name="uni2B90" unicode="&#x2b90;" 
d="M540 820h184l-28 -112h112l-32 -130l-56 -224l-32 -130h-336l-19 -76h112l-37 -148h-184l28 112h-112l28 112h-112l37 148h112l28 112h112l28 112h183l-37 -148h-112l-19 -76h153l23 94l28 112l24 94h-112z" />
    <glyph glyph-name="uni2B91" unicode="&#x2b91;" 
d="M316 820h184l-37 -148h-112l-23 -94l-28 -112l-24 -94h153l19 76h-112l37 148h183l-28 -112h112l-28 -112h112l-36 -148h-112l-28 -112h-112l-28 -112h-184l37 148h112l19 76h-336l32 130l56 224l32 130h112z" />
    <glyph glyph-name="uni2B92" unicode="&#x2b92;" 
d="M204 820h296l-37 -148h-295zM540 820h296l-32 -130l-84 -336l-32 -130h-336l-19 -76h112l-37 -148h-184l28 112h-112l28 112h-112l37 148h112l28 112h112l28 112h183l-37 -148h-112l-19 -76h153l23 94l28 112l24 94h-112z" />
    <glyph glyph-name="uni2B93" unicode="&#x2b93;" 
d="M204 820h296l-37 -148h-112l-23 -94l-28 -112l-24 -94h153l19 76h-112l37 148h183l-28 -112h112l-28 -112h112l-36 -148h-112l-28 -112h-112l-28 -112h-184l37 148h112l19 76h-336l32 130l84 336zM540 820h296l-37 -148h-295z" />
    <glyph glyph-name="uni2B95" unicode="&#x2b95;" 
d="M400 708h184l-28 -112h112l-28 -112h112l-37 -148h-112l-27 -112h-112l-28 -112h-184l28 112h-224l32 130l28 112l33 130h224z" />
    <glyph glyph-name="uni2BAC" unicode="&#x2bac;" 
d="M428 820h184l-28 -112h112l-28 -112h112l-37 -148h-112l-23 -94l-28 -112l-23 -94h112l-37 -148h-408l28 112h-112l32 130l28 112l24 94h-112l37 148h112l27 112h112z" />
    <glyph glyph-name="uni2BAD" unicode="&#x2bad;" 
d="M428 820h184l-28 -112h112l-28 -112h112l-37 -148h-112l-23 -94l-28 -112l-32 -130h-112l-28 -112h-408l37 148h112l23 94l28 112l24 94h-112l37 148h112l27 112h112z" />
    <glyph glyph-name="uni2BAE" unicode="&#x2bae;" 
d="M428 820h408l-37 -148h-112l-23 -94l-28 -112l-24 -94h112l-36 -148h-112l-28 -112h-112l-28 -112h-184l28 112h-112l28 112h-112l37 148h112l23 94l28 112l32 130h112z" />
    <glyph glyph-name="uni2BAF" unicode="&#x2baf;" 
d="M204 820h408l-28 -112h112l-32 -130l-28 -112l-24 -94h112l-36 -148h-112l-28 -112h-112l-28 -112h-184l28 112h-112l28 112h-112l37 148h112l23 94l28 112l24 94h-112z" />
    <glyph glyph-name="uni2BBA" unicode="&#x2bba;" 
d="M288 708h520l-32 -130l-56 -224l-32 -130h-112l-24 -94l-32 -130h-520l32 130l56 224l33 130h112l23 94zM420 569l-24 -94h188l24 94h-188zM224 233l-24 -94h189l23 94h-188z" />
    <glyph glyph-name="uni2BBB" unicode="&#x2bbb;" 
d="M288 708h520l-32 -130l-56 -224l-32 -130h-112l-24 -94l-32 -130h-520l32 130l56 224l33 130h112l23 94zM224 233l-24 -94h189l23 94h-188z" />
    <glyph glyph-name="uni2BBC" unicode="&#x2bbc;" 
d="M288 708h520l-32 -130l-56 -224l-32 -130h-112l-24 -94l-32 -130h-520l32 130l56 224l33 130h112l23 94z" />
    <glyph glyph-name="uni2BC0" unicode="&#x2bc0;" 
d="M176 708h632l-32 -130l-84 -336l-32 -130h-632l32 130l84 336z" />
    <glyph glyph-name="uni2BC1" unicode="&#x2bc1;" 
d="M400 708h184l-28 -112h112l-28 -112h112l-37 -148h-112l-27 -112h-112l-28 -112h-184l28 112h-112l28 112h-112l37 148h112l28 112h112z" />
    <glyph glyph-name="uni2BC5" unicode="&#x2bc5;" 
d="M400 708h184l-32 -130l-24 -94h112l-32 -130l-24 -94h112l-36 -148h-632l37 148h112l23 94l33 130h112l23 94z" />
    <glyph glyph-name="uni2BC6" unicode="&#x2bc6;" 
d="M176 708h632l-37 -148h-112l-23 -94l-33 -130h-112l-23 -94l-32 -130h-184l32 130l24 94h-112l32 130l24 94h-112z" />
    <glyph glyph-name="uni2BC7" unicode="&#x2bc7;" 
d="M624 708h184l-32 -130l-84 -336l-32 -130h-184l28 112h-224l28 112h-224l37 148h224l28 112h224z" />
    <glyph glyph-name="uni2BC8" unicode="&#x2bc8;" 
d="M176 708h184l-28 -112h224l-28 -112h224l-37 -148h-224l-27 -112h-224l-28 -112h-184l32 130l84 336z" />
    <glyph glyph-name="uni2BCA" unicode="&#x2bca;" 
d="M316 820h408l-28 -112h112l-32 -130l-33 -130h-631l32 130l32 130h112z" />
    <glyph glyph-name="uni2BCB" unicode="&#x2bcb;" 
d="M93 372h631l-64 -260h-112l-28 -112h-408l28 112h-112z" />
    <glyph glyph-name="uni2BD1" unicode="&#x2bd1;" 
d="M428 820h184l-28 -112h112l-28 -112h112l-32 -130l-28 -112l-32 -130h-112l-28 -112h-112l-28 -112h-184l28 112h-112l28 112h-112l32 130l28 112l33 130h112l27 112h112zM448 681l-24 -94h76l24 94h-76zM532 569l-24 -94h76l24 94h-76zM392 457l-24 -94h76l24 94h-76z
M336 233l-24 -94h77l23 94h-76z" />
    <glyph glyph-name="uni2BD2" unicode="&#x2bd2;" 
d="M428 820h184l-28 -112h112l-37 -148h-112l-19 -76h224l-37 -148h-224l-19 -76h112l-36 -148h-112l-28 -112h-184l28 112h-112l37 148h112l19 76h-224l37 148h224l19 76h-112l36 148h112z" />
    <glyph glyph-name="uni2BFE" unicode="&#x2bfe;" 
d="M597 596h183l-32 -130l-84 -336l-32 -130h-632l37 148h448l23 94l56 224z" />
    <glyph glyph-name="uni2BFF" unicode="&#x2bff;" 
d="M316 820h408l-32 -130l-33 -130h-112l-19 -76h112l-37 -148h-112l-19 -76h112l-64 -260h-408l65 260h112l23 94l28 112l24 94h-112l32 130z" />
    <glyph glyph-name="SF100000" unicode="&#x2500;" 
d="M121 484h743l-37 -148h-743z" />
    <glyph glyph-name="uni2501" unicode="&#x2501;" 
d="M149 596h743l-32 -130l-28 -112l-32 -130h-744l32 130l28 112z" />
    <glyph glyph-name="SF110000" unicode="&#x2502;" 
d="M512 1156h184l-33 -130l-279 -1120l-32 -130h-184l33 130l251 1008l28 112z" />
    <glyph glyph-name="uni2503" unicode="&#x2503;" 
d="M400 1156h408l-33 -130l-279 -1120l-32 -130h-408l33 130l251 1008l28 112z" />
    <glyph glyph-name="uni2504" unicode="&#x2504;" 
d="M121 484h183l-37 -148h-183zM345 484h183l-37 -148h-183zM569 484h183l-37 -148h-183z" />
    <glyph glyph-name="uni2505" unicode="&#x2505;" 
d="M149 596h183l-32 -130l-28 -112l-32 -130h-184l32 130l28 112zM373 596h183l-32 -130l-28 -112l-32 -130h-184l32 130l28 112zM597 596h183l-32 -130l-28 -112l-32 -130h-184l32 130l28 112z" />
    <glyph glyph-name="uni2506" unicode="&#x2506;" 
d="M512 1156h184l-33 -130l-27 -112l-33 -130h-184l33 130l28 112zM400 708h184l-32 -130l-28 -112l-33 -130h-183l32 130l28 112zM289 260h183l-32 -130l-28 -112l-32 -130h-184l32 130l28 112z" />
    <glyph glyph-name="uni2507" unicode="&#x2507;" 
d="M400 1156h408l-33 -130l-27 -112l-33 -130h-408l33 130l28 112zM288 708h408l-32 -130l-28 -112l-33 -130h-407l32 130l28 112zM177 260h407l-32 -130l-28 -112l-32 -130h-408l32 130l28 112z" />
    <glyph glyph-name="uni250A" unicode="&#x250a;" 
d="M512 1156h184l-33 -130l-32 -130h-184l33 130zM428 820h184l-32 -130l-33 -130h-183l32 130zM345 484h183l-64 -260h-184zM261 148h184l-65 -260h-184z" />
    <glyph glyph-name="uni250B" unicode="&#x250b;" 
d="M400 1156h408l-33 -130l-32 -130h-408l33 130zM316 820h408l-32 -130l-33 -130h-407l32 130zM233 484h407l-64 -260h-408zM149 148h408l-65 -260h-408z" />
    <glyph glyph-name="SF010000" unicode="&#x250c;" 
d="M345 484h519l-37 -148h-336l-23 -94l-84 -336l-32 -130h-184l33 130l111 448z" />
    <glyph glyph-name="uni250D" unicode="&#x250d;" 
d="M373 596h519l-32 -130l-28 -112l-32 -130h-336l-24 -94l-56 -224l-32 -130h-184l33 130l139 560z" />
    <glyph glyph-name="uni250E" unicode="&#x250e;" 
d="M233 484h631l-37 -148h-224l-23 -94l-84 -336l-32 -130h-408l33 130l111 448z" />
    <glyph glyph-name="uni250F" unicode="&#x250f;" 
d="M261 596h631l-32 -130l-28 -112l-32 -130h-224l-24 -94l-56 -224l-32 -130h-408l33 130l139 560z" />
    <glyph glyph-name="SF030000" unicode="&#x2510;" 
d="M121 484h407l-32 -130l-112 -448l-32 -130h-184l33 130l83 336l24 94h-224z" />
    <glyph glyph-name="uni2511" unicode="&#x2511;" 
d="M149 596h407l-32 -130l-140 -560l-32 -130h-184l33 130l55 224l24 94h-224l32 130l28 112z" />
    <glyph glyph-name="uni2512" unicode="&#x2512;" 
d="M121 484h519l-32 -130l-112 -448l-32 -130h-408l33 130l83 336l24 94h-112z" />
    <glyph glyph-name="uni2513" unicode="&#x2513;" 
d="M149 596h519l-32 -130l-140 -560l-32 -130h-408l33 130l55 224l24 94h-112l32 130l28 112z" />
    <glyph glyph-name="SF020000" unicode="&#x2514;" 
d="M512 1156h184l-33 -130l-111 -448l-24 -94h336l-37 -148h-519l32 130l112 448l28 112z" />
    <glyph glyph-name="uni2515" unicode="&#x2515;" 
d="M512 1156h184l-33 -130l-83 -336l-24 -94h336l-32 -130l-28 -112l-32 -130h-520l32 130l140 560l28 112z" />
    <glyph glyph-name="uni2516" unicode="&#x2516;" 
d="M400 1156h408l-33 -130l-111 -448l-24 -94h224l-37 -148h-631l32 130l112 448l28 112z" />
    <glyph glyph-name="uni2517" unicode="&#x2517;" 
d="M400 1156h408l-33 -130l-83 -336l-24 -94h224l-32 -130l-28 -112l-32 -130h-632l32 130l140 560l28 112z" />
    <glyph glyph-name="SF040000" unicode="&#x2518;" 
d="M512 1156h184l-33 -130l-139 -560l-33 -130h-407l37 148h224l23 94l84 336l28 112z" />
    <glyph glyph-name="uni2519" unicode="&#x2519;" 
d="M512 1156h184l-33 -130l-167 -672l-32 -130h-408l32 130l28 112l33 130h224l23 94l56 224l28 112z" />
    <glyph glyph-name="uni251A" unicode="&#x251a;" 
d="M400 1156h408l-33 -130l-139 -560l-33 -130h-519l37 148h112l23 94l84 336l28 112z" />
    <glyph glyph-name="uni251B" unicode="&#x251b;" 
d="M400 1156h408l-33 -130l-167 -672l-32 -130h-520l32 130l28 112l33 130h112l23 94l56 224l28 112z" />
    <glyph glyph-name="SF080000" unicode="&#x251c;" 
d="M512 1156h184l-33 -130l-111 -448l-24 -94h336l-37 -148h-336l-23 -94l-84 -336l-32 -130h-184l33 130l251 1008l28 112z" />
    <glyph glyph-name="uni251D" unicode="&#x251d;" 
d="M512 1156h184l-33 -130l-83 -336l-24 -94h336l-32 -130l-28 -112l-32 -130h-336l-24 -94l-56 -224l-32 -130h-184l33 130l251 1008l28 112z" />
    <glyph glyph-name="uni251E" unicode="&#x251e;" 
d="M400 1156h408l-33 -130l-111 -448l-24 -94h224l-37 -148h-336l-23 -94l-84 -336l-32 -130h-184l33 130l83 336l24 94h-112l32 130l112 448l28 112z" />
    <glyph glyph-name="uni251F" unicode="&#x251f;" 
d="M512 1156h184l-33 -130l-111 -448l-24 -94h336l-37 -148h-224l-23 -94l-84 -336l-32 -130h-408l33 130l111 448l33 130h112l23 94l84 336l28 112z" />
    <glyph glyph-name="uni2520" unicode="&#x2520;" 
d="M400 1156h408l-33 -130l-111 -448l-24 -94h224l-37 -148h-224l-23 -94l-84 -336l-32 -130h-408l33 130l251 1008l28 112z" />
    <glyph glyph-name="uni2521" unicode="&#x2521;" 
d="M400 1156h408l-33 -130l-83 -336l-24 -94h224l-32 -130l-28 -112l-32 -130h-336l-24 -94l-56 -224l-32 -130h-184l33 130l55 224l24 94h-112l32 130l140 560l28 112z" />
    <glyph glyph-name="uni2522" unicode="&#x2522;" 
d="M512 1156h184l-33 -130l-83 -336l-24 -94h336l-32 -130l-28 -112l-32 -130h-224l-24 -94l-56 -224l-32 -130h-408l33 130l139 560l33 130h112l23 94l56 224l28 112z" />
    <glyph glyph-name="uni2523" unicode="&#x2523;" 
d="M400 1156h408l-33 -130l-83 -336l-24 -94h224l-32 -130l-28 -112l-32 -130h-224l-24 -94l-56 -224l-32 -130h-408l33 130l251 1008l28 112z" />
    <glyph glyph-name="SF090000" unicode="&#x2524;" 
d="M512 1156h184l-33 -130l-279 -1120l-32 -130h-184l33 130l83 336l24 94h-224l37 148h224l23 94l84 336l28 112z" />
    <glyph glyph-name="uni2525" unicode="&#x2525;" 
d="M512 1156h184l-33 -130l-279 -1120l-32 -130h-184l33 130l55 224l24 94h-224l32 130l28 112l33 130h224l23 94l56 224l28 112z" />
    <glyph glyph-name="uni2526" unicode="&#x2526;" 
d="M400 1156h408l-33 -130l-139 -560l-33 -130h-112l-23 -94l-84 -336l-32 -130h-184l33 130l83 336l24 94h-224l37 148h112l23 94l84 336l28 112z" />
    <glyph glyph-name="uni2527" unicode="&#x2527;" 
d="M512 1156h184l-33 -130l-111 -448l-24 -94h112l-32 -130l-112 -448l-32 -130h-408l33 130l83 336l24 94h-112l37 148h224l23 94l84 336l28 112z" />
    <glyph glyph-name="uni2528" unicode="&#x2528;" 
d="M400 1156h408l-33 -130l-279 -1120l-32 -130h-408l33 130l83 336l24 94h-112l37 148h112l23 94l84 336l28 112z" />
    <glyph glyph-name="uni2529" unicode="&#x2529;" 
d="M400 1156h408l-33 -130l-167 -672l-32 -130h-112l-24 -94l-56 -224l-32 -130h-184l33 130l55 224l24 94h-224l32 130l28 112l33 130h112l23 94l56 224l28 112z" />
    <glyph glyph-name="uni252A" unicode="&#x252a;" 
d="M512 1156h184l-33 -130l-83 -336l-24 -94h112l-32 -130l-140 -560l-32 -130h-408l33 130l55 224l24 94h-112l32 130l28 112l33 130h224l23 94l56 224l28 112z" />
    <glyph glyph-name="uni252B" unicode="&#x252b;" 
d="M400 1156h408l-33 -130l-279 -1120l-32 -130h-408l33 130l55 224l24 94h-112l32 130l28 112l33 130h112l23 94l56 224l28 112z" />
    <glyph glyph-name="SF060000" unicode="&#x252c;" 
d="M121 484h743l-37 -148h-336l-23 -94l-84 -336l-32 -130h-184l33 130l83 336l24 94h-224z" />
    <glyph glyph-name="uni252D" unicode="&#x252d;" 
d="M149 596h407l-28 -112h336l-37 -148h-336l-23 -94l-84 -336l-32 -130h-184l33 130l55 224l24 94h-224l32 130l28 112z" />
    <glyph glyph-name="uni252E" unicode="&#x252e;" 
d="M373 596h519l-32 -130l-28 -112l-32 -130h-336l-24 -94l-56 -224l-32 -130h-184l33 130l83 336l24 94h-224l37 148h224z" />
    <glyph glyph-name="uni252F" unicode="&#x252f;" 
d="M149 596h743l-32 -130l-28 -112l-32 -130h-336l-24 -94l-56 -224l-32 -130h-184l33 130l55 224l24 94h-224l32 130l28 112z" />
    <glyph glyph-name="uni2530" unicode="&#x2530;" 
d="M121 484h743l-37 -148h-224l-23 -94l-84 -336l-32 -130h-408l33 130l83 336l24 94h-112z" />
    <glyph glyph-name="uni2531" unicode="&#x2531;" 
d="M149 596h519l-28 -112h224l-37 -148h-224l-23 -94l-84 -336l-32 -130h-408l33 130l55 224l24 94h-112l32 130l28 112z" />
    <glyph glyph-name="uni2532" unicode="&#x2532;" 
d="M261 596h631l-32 -130l-28 -112l-32 -130h-224l-24 -94l-56 -224l-32 -130h-408l33 130l83 336l24 94h-112l37 148h112z" />
    <glyph glyph-name="uni2533" unicode="&#x2533;" 
d="M149 596h743l-32 -130l-28 -112l-32 -130h-224l-24 -94l-56 -224l-32 -130h-408l33 130l55 224l24 94h-112l32 130l28 112z" />
    <glyph glyph-name="SF070000" unicode="&#x2534;" 
d="M512 1156h184l-33 -130l-111 -448l-24 -94h336l-37 -148h-743l37 148h224l23 94l84 336l28 112z" />
    <glyph glyph-name="uni2535" unicode="&#x2535;" 
d="M512 1156h184l-33 -130l-111 -448l-24 -94h336l-37 -148h-336l-27 -112h-408l32 130l28 112l33 130h224l23 94l56 224l28 112z" />
    <glyph glyph-name="uni2536" unicode="&#x2536;" 
d="M512 1156h184l-33 -130l-83 -336l-24 -94h336l-32 -130l-28 -112l-32 -130h-520l28 112h-224l37 148h224l23 94l84 336l28 112z" />
    <glyph glyph-name="uni2537" unicode="&#x2537;" 
d="M512 1156h184l-33 -130l-83 -336l-24 -94h336l-32 -130l-28 -112l-32 -130h-744l32 130l28 112l33 130h224l23 94l56 224l28 112z" />
    <glyph glyph-name="uni2538" unicode="&#x2538;" 
d="M400 1156h408l-33 -130l-111 -448l-24 -94h224l-37 -148h-743l37 148h112l23 94l84 336l28 112z" />
    <glyph glyph-name="uni2539" unicode="&#x2539;" 
d="M400 1156h408l-33 -130l-111 -448l-24 -94h224l-37 -148h-224l-27 -112h-520l32 130l28 112l33 130h112l23 94l56 224l28 112z" />
    <glyph glyph-name="uni253A" unicode="&#x253a;" 
d="M400 1156h408l-33 -130l-83 -336l-24 -94h224l-32 -130l-28 -112l-32 -130h-632l28 112h-112l37 148h112l23 94l84 336l28 112z" />
    <glyph glyph-name="uni253B" unicode="&#x253b;" 
d="M400 1156h408l-33 -130l-83 -336l-24 -94h224l-32 -130l-28 -112l-32 -130h-744l32 130l28 112l33 130h112l23 94l56 224l28 112z" />
    <glyph glyph-name="SF050000" unicode="&#x253c;" 
d="M512 1156h184l-33 -130l-111 -448l-24 -94h336l-37 -148h-336l-23 -94l-84 -336l-32 -130h-184l33 130l83 336l24 94h-224l37 148h224l23 94l84 336l28 112z" />
    <glyph glyph-name="uni253D" unicode="&#x253d;" 
d="M512 1156h184l-33 -130l-111 -448l-24 -94h336l-37 -148h-336l-23 -94l-84 -336l-32 -130h-184l33 130l55 224l24 94h-224l32 130l28 112l33 130h224l23 94l56 224l28 112z" />
    <glyph glyph-name="uni253E" unicode="&#x253e;" 
d="M512 1156h184l-33 -130l-83 -336l-24 -94h336l-32 -130l-28 -112l-32 -130h-336l-24 -94l-56 -224l-32 -130h-184l33 130l83 336l24 94h-224l37 148h224l23 94l84 336l28 112z" />
    <glyph glyph-name="uni253F" unicode="&#x253f;" 
d="M512 1156h184l-33 -130l-83 -336l-24 -94h336l-32 -130l-28 -112l-32 -130h-336l-24 -94l-56 -224l-32 -130h-184l33 130l55 224l24 94h-224l32 130l28 112l33 130h224l23 94l56 224l28 112z" />
    <glyph glyph-name="uni2540" unicode="&#x2540;" 
d="M400 1156h408l-33 -130l-111 -448l-24 -94h224l-37 -148h-336l-23 -94l-84 -336l-32 -130h-184l33 130l83 336l24 94h-224l37 148h112l23 94l84 336l28 112z" />
    <glyph glyph-name="uni2541" unicode="&#x2541;" 
d="M512 1156h184l-33 -130l-111 -448l-24 -94h336l-37 -148h-224l-23 -94l-84 -336l-32 -130h-408l33 130l83 336l24 94h-112l37 148h224l23 94l84 336l28 112z" />
    <glyph glyph-name="uni2542" unicode="&#x2542;" 
d="M400 1156h408l-33 -130l-111 -448l-24 -94h224l-37 -148h-224l-23 -94l-84 -336l-32 -130h-408l33 130l83 336l24 94h-112l37 148h112l23 94l84 336l28 112z" />
    <glyph glyph-name="uni2543" unicode="&#x2543;" 
d="M400 1156h408l-33 -130l-111 -448l-24 -94h224l-37 -148h-224l-27 -112h-112l-24 -94l-56 -224l-32 -130h-184l33 130l55 224l24 94h-224l32 130l28 112l33 130h112l23 94l56 224l28 112z" />
    <glyph glyph-name="uni2544" unicode="&#x2544;" 
d="M400 1156h408l-33 -130l-83 -336l-24 -94h224l-32 -130l-28 -112l-32 -130h-336l-24 -94l-56 -224l-32 -130h-184l33 130l55 224l24 94h-112l28 112h-112l37 148h112l23 94l84 336l28 112z" />
    <glyph glyph-name="uni2545" unicode="&#x2545;" 
d="M512 1156h184l-33 -130l-83 -336l-24 -94h112l-28 -112h224l-37 -148h-224l-23 -94l-84 -336l-32 -130h-408l33 130l55 224l24 94h-112l32 130l28 112l33 130h224l23 94l56 224l28 112z" />
    <glyph glyph-name="uni2546" unicode="&#x2546;" 
d="M512 1156h184l-33 -130l-83 -336l-24 -94h336l-32 -130l-28 -112l-32 -130h-224l-24 -94l-56 -224l-32 -130h-408l33 130l83 336l24 94h-112l37 148h112l28 112h112l23 94l56 224l28 112z" />
    <glyph glyph-name="uni2547" unicode="&#x2547;" 
d="M400 1156h408l-33 -130l-83 -336l-24 -94h224l-32 -130l-28 -112l-32 -130h-336l-24 -94l-56 -224l-32 -130h-184l33 130l55 224l24 94h-224l32 130l28 112l33 130h112l23 94l56 224l28 112z" />
    <glyph glyph-name="uni2548" unicode="&#x2548;" 
d="M512 1156h184l-33 -130l-83 -336l-24 -94h336l-32 -130l-28 -112l-32 -130h-224l-24 -94l-56 -224l-32 -130h-408l33 130l55 224l24 94h-112l32 130l28 112l33 130h224l23 94l56 224l28 112z" />
    <glyph glyph-name="uni2549" unicode="&#x2549;" 
d="M400 1156h408l-33 -130l-111 -448l-24 -94h224l-37 -148h-224l-23 -94l-84 -336l-32 -130h-408l33 130l55 224l24 94h-112l32 130l28 112l33 130h112l23 94l56 224l28 112z" />
    <glyph glyph-name="uni254A" unicode="&#x254a;" 
d="M400 1156h408l-33 -130l-83 -336l-24 -94h224l-32 -130l-28 -112l-32 -130h-224l-24 -94l-56 -224l-32 -130h-408l33 130l83 336l24 94h-112l37 148h112l23 94l84 336l28 112z" />
    <glyph glyph-name="uni254B" unicode="&#x254b;" 
d="M400 1156h408l-33 -130l-83 -336l-24 -94h224l-32 -130l-28 -112l-32 -130h-224l-24 -94l-56 -224l-32 -130h-408l33 130l55 224l24 94h-112l32 130l28 112l33 130h112l23 94l56 224l28 112z" />
    <glyph glyph-name="uni254C" unicode="&#x254c;" 
d="M121 484h295l-37 -148h-295zM457 484h295l-37 -148h-295z" />
    <glyph glyph-name="uni254D" unicode="&#x254d;" 
d="M149 596h295l-32 -130l-28 -112l-32 -130h-296l32 130l28 112zM485 596h295l-32 -130l-28 -112l-32 -130h-296l32 130l28 112z" />
    <glyph glyph-name="uni254E" unicode="&#x254e;" 
d="M512 1156h184l-33 -130l-83 -336l-33 -130h-183l32 130l56 224l28 112zM345 484h183l-32 -130l-84 -336l-32 -130h-184l32 130l84 336z" />
    <glyph glyph-name="uni254F" unicode="&#x254f;" 
d="M400 1156h408l-33 -130l-55 -224l-33 -130h-407l32 130l28 112l28 112zM233 484h407l-32 -130l-56 -224l-32 -130h-408l32 130l56 224z" />
    <glyph glyph-name="SF430000" unicode="&#x2550;" 
d="M149 596h743l-37 -148h-743zM93 372h743l-36 -148h-744z" />
    <glyph glyph-name="SF240000" unicode="&#x2551;" 
d="M400 1156h184l-33 -130l-279 -1120l-32 -130h-184l33 130l251 1008l28 112zM624 1156h184l-33 -130l-279 -1120l-32 -130h-184l33 130l251 1008l28 112z" />
    <glyph glyph-name="SF510000" unicode="&#x2552;" 
d="M373 596h519l-37 -148h-336l-19 -76h336l-36 -148h-336l-24 -94l-56 -224l-32 -130h-184l33 130l139 560z" />
    <glyph glyph-name="SF520000" unicode="&#x2553;" 
d="M233 484h631l-37 -148h-224l-23 -94l-84 -336l-32 -130h-184l33 130l83 336l24 94h-41l-23 -94l-84 -336l-32 -130h-184l33 130l111 448z" />
    <glyph glyph-name="SF390000" unicode="&#x2554;" 
d="M261 596h631l-37 -148h-448l-23 -94l-112 -448l-32 -130h-184l33 130l139 560zM429 372h407l-36 -148h-224l-24 -94l-56 -224l-32 -130h-184l33 130l83 336z" />
    <glyph glyph-name="SF220000" unicode="&#x2555;" 
d="M149 596h407l-32 -130l-140 -560l-32 -130h-184l33 130l55 224l24 94h-224l37 148h224l19 76h-224z" />
    <glyph glyph-name="SF210000" unicode="&#x2556;" 
d="M121 484h519l-32 -130l-112 -448l-32 -130h-184l33 130l83 336l24 94h-41l-23 -94l-84 -336l-32 -130h-184l33 130l83 336l24 94h-112z" />
    <glyph glyph-name="SF250000" unicode="&#x2557;" 
d="M149 596h519l-32 -130l-140 -560l-32 -130h-184l33 130l111 448l24 94h-336zM93 372h295l-32 -130l-84 -336l-32 -130h-184l33 130l55 224l24 94h-112z" />
    <glyph glyph-name="SF500000" unicode="&#x2558;" 
d="M512 1156h184l-33 -130l-83 -336l-24 -94h336l-37 -148h-336l-19 -76h336l-36 -148h-520l32 130l140 560l28 112z" />
    <glyph glyph-name="SF490000" unicode="&#x2559;" 
d="M400 1156h184l-33 -130l-111 -448l-24 -94h41l23 94l84 336l28 112l32 130h184l-33 -130l-111 -448l-24 -94h224l-37 -148h-631l32 130l112 448l28 112z" />
    <glyph glyph-name="SF380000" unicode="&#x255a;" 
d="M400 1156h184l-33 -130l-139 -560l-24 -94h448l-36 -148h-632l32 130l140 560l28 112zM624 1156h184l-33 -130l-83 -336l-24 -94h224l-37 -148h-407l32 130l84 336l28 112z" />
    <glyph glyph-name="SF280000" unicode="&#x255b;" 
d="M512 1156h184l-33 -130l-167 -672l-32 -130h-408l37 148h224l19 76h-224l37 148h224l23 94l56 224l28 112z" />
    <glyph glyph-name="SF270000" unicode="&#x255c;" 
d="M400 1156h184l-33 -130l-111 -448l-24 -94h41l23 94l84 336l28 112l32 130h184l-33 -130l-139 -560l-33 -130h-519l37 148h112l23 94l84 336l28 112z" />
    <glyph glyph-name="SF260000" unicode="&#x255d;" 
d="M400 1156h184l-33 -130l-111 -448l-33 -130h-295l37 148h112l23 94l56 224l28 112zM624 1156h184l-33 -130l-167 -672l-32 -130h-520l37 148h336l23 94l112 448l28 112z" />
    <glyph glyph-name="SF360000" unicode="&#x255e;" 
d="M512 1156h184l-33 -130l-83 -336l-24 -94h336l-37 -148h-336l-19 -76h336l-36 -148h-336l-24 -94l-56 -224l-32 -130h-184l33 130l251 1008l28 112z" />
    <glyph glyph-name="SF370000" unicode="&#x255f;" 
d="M400 1156h184l-33 -130l-279 -1120l-32 -130h-184l33 130l251 1008l28 112zM624 1156h184l-33 -130l-111 -448l-24 -94h224l-37 -148h-224l-23 -94l-84 -336l-32 -130h-184l33 130l251 1008l28 112z" />
    <glyph glyph-name="SF420000" unicode="&#x2560;" 
d="M400 1156h184l-33 -130l-279 -1120l-32 -130h-184l33 130l251 1008l28 112zM624 1156h184l-33 -130l-83 -336l-24 -94h224l-37 -148h-407l32 130l84 336l28 112zM429 372h407l-36 -148h-224l-24 -94l-56 -224l-32 -130h-184l33 130l83 336z" />
    <glyph glyph-name="SF190000" unicode="&#x2561;" 
d="M512 1156h184l-33 -130l-279 -1120l-32 -130h-184l33 130l55 224l24 94h-224l37 148h224l19 76h-224l37 148h224l23 94l56 224l28 112z" />
    <glyph glyph-name="SF200000" unicode="&#x2562;" 
d="M400 1156h184l-33 -130l-279 -1120l-32 -130h-184l33 130l83 336l24 94h-112l37 148h112l23 94l84 336l28 112zM624 1156h184l-33 -130l-279 -1120l-32 -130h-184l33 130l251 1008l28 112z" />
    <glyph glyph-name="SF230000" unicode="&#x2563;" 
d="M400 1156h184l-33 -130l-111 -448l-33 -130h-295l37 148h112l23 94l56 224l28 112zM624 1156h184l-33 -130l-279 -1120l-32 -130h-184l33 130l251 1008l28 112zM93 372h295l-32 -130l-84 -336l-32 -130h-184l33 130l55 224l24 94h-112z" />
    <glyph glyph-name="SF470000" unicode="&#x2564;" 
d="M149 596h743l-37 -148h-743zM93 372h743l-36 -148h-336l-24 -94l-56 -224l-32 -130h-184l33 130l55 224l24 94h-224z" />
    <glyph glyph-name="SF480000" unicode="&#x2565;" 
d="M121 484h743l-37 -148h-224l-23 -94l-84 -336l-32 -130h-184l33 130l83 336l24 94h-41l-23 -94l-84 -336l-32 -130h-184l33 130l83 336l24 94h-112z" />
    <glyph glyph-name="SF410000" unicode="&#x2566;" 
d="M149 596h743l-37 -148h-743zM93 372h295l-32 -130l-84 -336l-32 -130h-184l33 130l55 224l24 94h-112zM429 372h407l-36 -148h-224l-24 -94l-56 -224l-32 -130h-184l33 130l83 336z" />
    <glyph glyph-name="SF450000" unicode="&#x2567;" 
d="M512 1156h184l-33 -130l-83 -336l-24 -94h336l-37 -148h-743l37 148h224l23 94l56 224l28 112zM93 372h743l-36 -148h-744z" />
    <glyph glyph-name="SF460000" unicode="&#x2568;" 
d="M400 1156h184l-33 -130l-111 -448l-24 -94h41l23 94l84 336l28 112l32 130h184l-33 -130l-111 -448l-24 -94h224l-37 -148h-743l37 148h112l23 94l84 336l28 112z" />
    <glyph glyph-name="SF400000" unicode="&#x2569;" 
d="M400 1156h184l-33 -130l-111 -448l-33 -130h-295l37 148h112l23 94l56 224l28 112zM624 1156h184l-33 -130l-83 -336l-24 -94h224l-37 -148h-407l32 130l84 336l28 112zM93 372h743l-36 -148h-744z" />
    <glyph glyph-name="SF540000" unicode="&#x256a;" 
d="M512 1156h184l-33 -130l-83 -336l-24 -94h336l-37 -148h-336l-19 -76h336l-36 -148h-336l-24 -94l-56 -224l-32 -130h-184l33 130l55 224l24 94h-224l37 148h224l19 76h-224l37 148h224l23 94l56 224l28 112z" />
    <glyph glyph-name="SF530000" unicode="&#x256b;" 
d="M400 1156h184l-33 -130l-111 -448l-24 -94h41l23 94l84 336l28 112l32 130h184l-33 -130l-111 -448l-24 -94h224l-37 -148h-224l-23 -94l-84 -336l-32 -130h-184l33 130l83 336l24 94h-41l-23 -94l-84 -336l-32 -130h-184l33 130l83 336l24 94h-112l37 148h112l23 94
l84 336l28 112z" />
    <glyph glyph-name="SF440000" unicode="&#x256c;" 
d="M400 1156h184l-33 -130l-111 -448l-33 -130h-295l37 148h112l23 94l56 224l28 112zM624 1156h184l-33 -130l-83 -336l-24 -94h224l-37 -148h-407l32 130l84 336l28 112zM93 372h295l-32 -130l-84 -336l-32 -130h-184l33 130l55 224l24 94h-112zM429 372h407l-36 -148
h-224l-24 -94l-56 -224l-32 -130h-184l33 130l83 336z" />
    <glyph glyph-name="uni256D" unicode="&#x256d;" 
d="M569 484h295l-37 -148h-224l-27 -112h-112l-24 -94l-56 -224l-32 -130h-184l33 130l55 224l33 130h112l28 112h112z" />
    <glyph glyph-name="uni256E" unicode="&#x256e;" 
d="M121 484h183l-28 -112h112l-28 -112h112l-32 -130l-56 -224l-32 -130h-184l33 130l55 224l24 94h-112l28 112h-112z" />
    <glyph glyph-name="uni256F" unicode="&#x256f;" 
d="M512 1156h184l-33 -130l-83 -336l-33 -130h-112l-28 -112h-112l-28 -112h-183l37 148h112l28 112h112l23 94l56 224l28 112z" />
    <glyph glyph-name="uni2570" unicode="&#x2570;" 
d="M512 1156h184l-33 -130l-83 -336l-24 -94h112l-28 -112h224l-37 -148h-295l28 112h-112l28 112h-112l32 130l56 224l28 112z" />
    <glyph glyph-name="uni2571" unicode="&#x2571;" 
d="M848 1156h184l-33 -130l-32 -130h-112l-23 -94l-33 -130h-112l-23 -94l-33 -130h-112l-23 -94l-32 -130h-112l-24 -94l-32 -130h-112l-24 -94l-32 -130h-184l65 260h112l23 94l33 130h112l23 94l33 130h112l23 94l32 130h112l24 94l32 130h112l24 94z" />
    <glyph glyph-name="uni2572" unicode="&#x2572;" 
d="M288 1156h184l-33 -130l-23 -94h112l-32 -130l-24 -94h112l-32 -130l-24 -94h112l-32 -130l-24 -94h112l-32 -130l-23 -94h112l-65 -260h-184l33 130l23 94h-112l32 130l24 94h-112l32 130l24 94h-112l32 130l24 94h-112l32 130l23 94h-112l33 130z" />
    <glyph glyph-name="uni2573" unicode="&#x2573;" 
d="M288 1156h184l-33 -130l-23 -94h112l-32 -130l-24 -94h152l24 94l32 130h112l24 94l32 130h184l-33 -130l-32 -130h-112l-23 -94l-33 -130h-112l-23 -94l-56 -224l-24 -94h112l-32 -130l-23 -94h112l-65 -260h-184l33 130l23 94h-112l32 130l24 94h-152l-24 -94l-32 -130
h-112l-24 -94l-32 -130h-184l65 260h112l23 94l33 130h112l23 94l56 224l24 94h-112l32 130l23 94h-112l33 130z" />
    <glyph glyph-name="uni2574" unicode="&#x2574;" 
d="M121 484h407l-37 -148h-407z" />
    <glyph glyph-name="uni2575" unicode="&#x2575;" 
d="M512 1156h184l-33 -130l-139 -560l-33 -130h-183l32 130l112 448l28 112z" />
    <glyph glyph-name="uni2576" unicode="&#x2576;" 
d="M345 484h519l-37 -148h-519z" />
    <glyph glyph-name="uni2577" unicode="&#x2577;" 
d="M345 484h183l-32 -130l-112 -448l-32 -130h-184l33 130l111 448z" />
    <glyph glyph-name="uni2578" unicode="&#x2578;" 
d="M149 596h407l-32 -130l-28 -112l-32 -130h-408l32 130l28 112z" />
    <glyph glyph-name="uni2579" unicode="&#x2579;" 
d="M400 1156h408l-33 -130l-139 -560l-33 -130h-407l32 130l112 448l28 112z" />
    <glyph glyph-name="uni257A" unicode="&#x257a;" 
d="M373 596h519l-32 -130l-28 -112l-32 -130h-520l32 130l28 112z" />
    <glyph glyph-name="uni257B" unicode="&#x257b;" 
d="M233 484h407l-32 -130l-112 -448l-32 -130h-408l33 130l111 448z" />
    <glyph glyph-name="uni257C" unicode="&#x257c;" 
d="M373 596h519l-32 -130l-28 -112l-32 -130h-520l28 112h-224l37 148h224z" />
    <glyph glyph-name="uni257D" unicode="&#x257d;" 
d="M512 1156h184l-33 -130l-111 -448l-24 -94h112l-32 -130l-112 -448l-32 -130h-408l33 130l111 448l33 130h112l23 94l84 336l28 112z" />
    <glyph glyph-name="uni257E" unicode="&#x257e;" 
d="M149 596h407l-28 -112h336l-37 -148h-336l-27 -112h-408l32 130l28 112z" />
    <glyph glyph-name="uni257F" unicode="&#x257f;" 
d="M400 1156h408l-33 -130l-139 -560l-33 -130h-112l-23 -94l-84 -336l-32 -130h-184l33 130l83 336l24 94h-112l32 130l112 448l28 112z" />
    <glyph glyph-name="exclamdown" unicode="&#xa1;" 
d="M428 820h184l-37 -148h-183zM373 596h183l-32 -130l-84 -336l-32 -130h-184l32 130l84 336z" />
    </font>
</defs>
</svg>
