<?xml version="1.0" standalone="no"?>
<!DOCTYPE svg PUBLIC "-//W3C//DTD SVG 1.1//EN" "http://www.w3.org/Graphics/SVG/1.1/DTD/svg11.dtd" >
<svg xmlns="http://www.w3.org/2000/svg" xmlns:xlink="http://www.w3.org/1999/xlink" version="1.1">
<metadata>
Created by FontForge 20230101 at Fri Oct  2 12:30:30 2020
 By Glenn Lewis
Copyright 2011 The Alegreya Project Authors (https://github.com/huertatipografica/Alegreya)
</metadata>
<defs>
<font id="Alegreya-SemiBoldItalic" horiz-adv-x="0" >
  <font-face 
    font-family="Alegreya SemiBold"
    font-weight="600"
    font-style="italic"
    font-stretch="normal"
    units-per-em="1000"
    panose-1="0 0 0 0 0 0 0 0 0 0"
    ascent="800"
    descent="-200"
    x-height="462"
    cap-height="648"
    bbox="-215 -310 1309 1043"
    underline-thickness="75"
    underline-position="-239"
    slope="-7"
    unicode-range="U+000D-FB02"
  />
<missing-glyph horiz-adv-x="641" 
d="M641 -109l-658 658l16 16l658 -658zM-1 -109l-16 16l658 658l16 -16z" />
    <glyph glyph-name="uni1EBC" unicode="&#x7e;E" horiz-adv-x="573" 
d="M212 103q0 -25 13 -31.5t49 -6.5q49 0 79 4t47.5 15.5t28.5 35t21 63.5l70 6l4 -8l-8 -26t-19 -66.5t-22 -86.5l-8 -9l-20 0.5t-52.5 2t-72 2.5t-79 1.5t-73.5 0.5q-40 0 -76 -2.5t-58.5 -5l-22.5 -2.5l14 59q42 6 59 24t22 61l50 396q4 32 -1 43t-25 11q-8 0 -19.5 -1
l-11.5 -1l-4 7l14 54l15.5 -0.5t40.5 -1t53.5 -1t53.5 -0.5q72 0 126.5 1t95.5 4t71 7l5 -9l-7.5 -24.5t-17.5 -64.5t-18 -86l-75 -6l2 10t4 24t2 26q0 21 -10 31t-36.5 13.5t-77.5 3.5q-25 0 -37 -2t-16.5 -9.5t-6.5 -24.5l-28 -171q16 0 44 -0.5t49 -0.5q12 0 31 1.5
t38 3.5t32 3.5l13 1.5l6 -7l-23 -76l-21.5 1t-51.5 1.5t-56 0.5q-21 0 -41 -2t-32 -4q-10 -65 -18 -112.5t-8 -70.5zM218 691l-30 32l1 9l86 90l16 4q16 0 44 -8t55 -16.5t40 -8.5q9 0 20.5 7.5t22.5 17t18.5 17l7.5 7.5h9l30 -32l-1 -8l-86 -91l-17 -4q-16 0 -43.5 8.5
t-54 16.5t-40.5 8q-9 0 -20.5 -7.5t-22.5 -17t-18.5 -17l-7.5 -7.5h-9z" />
    <glyph glyph-name="Idieresis" unicode="&#xa8;I" horiz-adv-x="350" 
d="M278 534q-8 -45 -17 -98.5t-17.5 -108t-16 -102t-11.5 -81t-4 -46.5q0 -24 8 -32.5t25 -8.5t31 1.5l14 1.5l3 -6l-15 -57l-15 0.5t-37.5 1t-45.5 1t-40 0.5q-19 0 -41.5 -1.5t-42 -3t-32 -3.5l-12.5 -2l14 57q44 9 61 26.5t22 58.5l49 399q4 32 -1.5 42.5t-27.5 10.5
q-9 0 -22 -1l-13 -1q-1 2 -2 3.5t-2 3.5l14 53q8 0 30.5 -0.5t49.5 -1t48 -0.5q16 0 38 1t43 2.5t35 3l14 1.5l-13 -58q-38 -5 -52 -16t-19 -40zM323 712q-24 0 -35.5 14t-11.5 33q0 30 20 50t49 20q23 0 35 -13.5t12 -34.5q0 -29 -20 -49t-49 -20zM153 712q-23 0 -34.5 14
t-11.5 33q0 30 19.5 50t49.5 20q23 0 34.5 -13.5t11.5 -34.5q0 -29 -19.5 -49t-49.5 -20z" />
    <glyph glyph-name="Itilde" unicode="&#x7e;I" horiz-adv-x="351" 
d="M285 534q-8 -45 -17 -98.5t-17.5 -108t-16 -102t-11.5 -81t-4 -46.5q0 -24 8 -32.5t25 -8.5t31 1.5l14 1.5l3 -6l-15 -57l-15 0.5t-37.5 1t-45.5 1t-40 0.5q-19 0 -41.5 -1.5t-42 -3t-32 -3.5l-12.5 -2l14 57q44 9 61 26.5t22 58.5l49 399q4 32 -1.5 42.5t-27.5 10.5
q-9 0 -22 -1l-13 -1q-1 2 -2 3.5t-2 3.5l14 53q8 0 30.5 -0.5t49.5 -1t48 -0.5q16 0 38 1t43 2.5t35 3l14 1.5l-13 -58q-38 -5 -52 -16t-19 -40zM136 711l-30 31l1 9l87 97l16 4q16 0 44 -8t55.5 -16.5t40.5 -8.5q8 0 19.5 8.5t23 19.5t18.5 19.5l7 8.5h10l30 -32l-1 -8
l-87 -98l-16 -4q-17 0 -44.5 8.5t-54 17t-40.5 8.5q-9 0 -20.5 -9t-23 -19.5t-18.5 -19l-7 -8.5h-10z" />
    <glyph glyph-name="Odieresis" unicode="&#xa8;O" horiz-adv-x="655" 
d="M292 -12q-75 0 -133 33t-90.5 93t-32.5 141q0 86 25.5 158.5t71.5 126t109.5 83t139.5 29.5q78 0 136 -33t91 -92.5t33 -139.5q0 -86 -25.5 -159t-72.5 -127t-111 -83.5t-141 -29.5zM311 61q59 0 103.5 36.5t69 104.5t24.5 160q0 65 -18 111.5t-51.5 71.5t-78.5 25
q-57 0 -101 -37t-68.5 -104.5t-24.5 -160.5q0 -64 18 -110.5t50.5 -71.5t76.5 -25zM467 712q-24 0 -35.5 14t-11.5 33q0 30 20 50t49 20q23 0 35 -13.5t12 -34.5q0 -29 -20 -49t-49 -20zM297 712q-23 0 -34.5 14t-11.5 33q0 30 19.5 50t49.5 20q23 0 34.5 -13.5t11.5 -34.5
q0 -29 -19.5 -49t-49.5 -20z" />
    <glyph glyph-name="Utilde" unicode="&#x7e;U" horiz-adv-x="637" 
d="M202 242q-1 -11 -2 -22.5t-1 -20.5q0 -65 28.5 -99.5t85.5 -34.5q65 0 102.5 36.5t46.5 109.5q3 20 7 58t9 83l9.5 85.5t7.5 66.5l3 26q2 34 -2.5 44t-23.5 10q-8 0 -22 -1l-14 -1l-1 4l15 57l20 -1t46 -1.5t44 -0.5q24 0 49.5 1.5t43 3.5l17.5 2l-13 -58q-39 -7 -51 -16
t-15 -37l-40 -321q-14 -110 -83 -168.5t-186 -58.5q-99 0 -149 45.5t-50 132.5q0 19 3 40l40 324q4 33 -0.5 43.5t-25.5 10.5q-9 0 -20.5 -1l-11.5 -1l-1 4l15 57l21.5 -1t51.5 -1.5t55 -0.5q15 0 34 1t36.5 2.5t29 3l11.5 1.5l-13 -60q-33 -4 -46 -15.5t-17 -38.5zM269 711
l-30 31l1 9l87 97l16 4q16 0 44 -8t55.5 -16.5t40.5 -8.5q8 0 19.5 8.5t23 19.5t18.5 19.5l7 8.5h10l30 -32l-1 -8l-87 -98l-16 -4q-17 0 -44.5 8.5t-54 17t-40.5 8.5q-9 0 -20.5 -9t-23 -19.5t-18.5 -19l-7 -8.5h-10z" />
    <glyph glyph-name="Yacute" unicode="&#xb4;Y" horiz-adv-x="562" 
d="M236 556q0 -9 6 -33.5t15 -55t18 -60t16 -51t8 -25.5h7l110 184q20 32 20 51q0 11 -10 16.5t-36 6.5l-2 5l13 51q9 0 30 -1.5t46 -3t45 -1.5q21 0 43 1t37.5 2l15.5 1l3 -6l-13 -52q-22 -6 -39 -15.5t-31.5 -24t-30 -36.5t-35.5 -53l-114 -177q-12 -18 -18.5 -37
t-10.5 -46.5t-10 -71.5q-4 -37 2.5 -52t33.5 -15q16 0 32 1.5l16 1.5l3 -4l-16 -60l-16 0.5t-40 1.5t-49 1.5t-42 0.5q-20 0 -43.5 -2t-45.5 -3.5t-36 -3.5l-14 -2l14 59q37 6 56.5 16t27.5 29.5t11 54.5l4 35q3 28 1 50.5t-15 56.5l-69 188q-12 34 -22.5 55.5t-27.5 33.5
t-49 17l-3 5l14 54l12.5 -0.5t31.5 -1.5t39 -1.5t35 -0.5q19 0 44.5 1.5t49.5 3t40 3l16 1.5l3 -9l-11 -49q-40 -2 -55 -9.5t-15 -24.5zM481 759l-19 -5.5t-50.5 -15t-71 -21.5t-81.5 -26l-11 7l-11 40q38 17 76.5 36t69.5 34.5t50 25.5l19 10l11 -6l23 -68z" />
    <glyph glyph-name="uni1EF8" unicode="&#x7e;Y" horiz-adv-x="557" 
d="M236 556q0 -9 6 -33.5t15 -55t18 -60t16 -51t8 -25.5h7l110 184q20 32 20 51q0 11 -10 16.5t-36 6.5l-2 5l13 51q9 0 30 -1.5t46 -3t45 -1.5q21 0 43 1t37.5 2l15.5 1l3 -6l-13 -52q-22 -6 -39 -15.5t-31.5 -24t-30 -36.5t-35.5 -53l-114 -177q-12 -18 -18.5 -37
t-10.5 -46.5t-10 -71.5q-4 -37 2.5 -52t33.5 -15q16 0 32 1.5l16 1.5l3 -4l-16 -60l-16 0.5t-40 1.5t-49 1.5t-42 0.5q-20 0 -43.5 -2t-45.5 -3.5t-36 -3.5l-14 -2l14 59q37 6 56.5 16t27.5 29.5t11 54.5l4 35q3 28 1 50.5t-15 56.5l-69 188q-12 34 -22.5 55.5t-27.5 33.5
t-49 17l-3 5l14 54l12.5 -0.5t31.5 -1.5t39 -1.5t35 -0.5q19 0 44.5 1.5t49.5 3t40 3l16 1.5l3 -9l-11 -49q-40 -2 -55 -9.5t-15 -24.5zM217 691l-30 32l1 9l86 90l16 4q16 0 44 -8t55 -16.5t40 -8.5q9 0 20.5 7.5t22.5 17t18.5 17l7.5 7.5h9l30 -32l-1 -8l-86 -91l-17 -4
q-16 0 -43.5 8.5t-54 16.5t-40.5 8q-9 0 -20.5 -7.5t-22.5 -17t-18.5 -17l-7.5 -7.5h-9z" />
    <glyph glyph-name="uni1EBD" unicode="&#x7e;e" horiz-adv-x="382" 
d="M371 381q0 -43 -24.5 -77t-77.5 -62.5t-140 -56.5q-1 -51 16.5 -81.5t48.5 -30.5q29 0 56.5 21.5t47.5 59.5l17 -1l27 -35q-19 -37 -49 -66.5t-64.5 -46.5t-69.5 -17q-60 0 -96 46.5t-36 125.5q0 59 20.5 115t55 100t78.5 69.5t91 25.5t73 -23t26 -66zM239 392
q-24 0 -45.5 -20t-37.5 -54t-23 -78q74 24 107.5 51.5t33.5 61.5q0 39 -35 39zM145 530l-30 31l1 9l87 97l16 4q16 0 44 -8t55.5 -16.5t40.5 -8.5q8 0 19.5 8.5t23 19.5t18.5 19.5l7 8.5h10l30 -32l-1 -8l-87 -98l-16 -4q-17 0 -44.5 8.5t-54 17t-40.5 8.5q-9 0 -20.5 -9
t-23 -19.5t-18.5 -19l-7 -8.5h-10z" />
    <glyph glyph-name="idieresis" unicode="&#xa8;i" horiz-adv-x="277" 
d="M160 91q7 0 19 9.5t51 43.5l16 -2l15 -32q-40 -43 -70.5 -70t-52.5 -39.5t-40 -12.5q-41 0 -41 45q15 88 26 158t17 114.5t6 53.5q0 22 -9 31t-30 9h-37l8 52q23 0 54.5 1t65 3t62.5 4l12 -15q-15 -49 -29.5 -111t-26.5 -124.5t-19 -114.5zM255 546q-22 0 -36 14t-14 37
q0 28 18 46t46 18q23 0 36 -14t13 -37q0 -28 -18 -46t-45 -18zM92 546q-22 0 -36 14t-14 37q0 28 18 46t46 18q23 0 36 -14t13 -37q0 -28 -18 -46t-45 -18z" />
    <glyph glyph-name="itilde" unicode="&#x7e;i" horiz-adv-x="277" 
d="M37 543l-30 31l1 9l87 97l16 4q16 0 44 -8t55.5 -16.5t40.5 -8.5q8 0 19.5 8.5t23 19.5t18.5 19.5l7 8.5h10l30 -32l-1 -8l-87 -98l-16 -4q-17 0 -44.5 8.5t-54 17t-40.5 8.5q-9 0 -20.5 -9t-23 -19.5t-18.5 -19l-7 -8.5h-10zM161 91q7 0 19 9.5t51 43.5l16 -2l15 -32
q-40 -43 -70.5 -70t-52.5 -39.5t-40 -12.5q-41 0 -41 45q15 88 26 158t17 114.5t6 53.5q0 22 -9 31t-30 9h-37l8 52q23 0 54.5 1t65 3t62.5 4l12 -15q-15 -49 -29.5 -111t-26.5 -124.5t-19 -114.5z" />
    <glyph glyph-name="odieresis" unicode="&#xa8;o" horiz-adv-x="432" 
d="M163 -12q-61 0 -97.5 46.5t-36.5 127.5q0 64 18.5 120t51.5 98t77 66.5t94 24.5q64 0 99.5 -42.5t35.5 -120.5q0 -66 -18 -124.5t-51 -102.5t-77.5 -68.5t-95.5 -24.5zM203 60q28 0 49 23.5t32.5 68.5t11.5 108t-17 97t-50 34q-28 0 -49 -22.5t-32.5 -63.5t-11.5 -99
q0 -69 18 -107.5t49 -38.5zM341 547q-23 0 -37 14.5t-14 37.5q0 28 18.5 46.5t46.5 18.5q23 0 36.5 -14.5t13.5 -37.5q0 -28 -18.5 -46.5t-45.5 -18.5zM171 547q-22 0 -36 14.5t-14 37.5q0 28 18.5 46.5t46.5 18.5q23 0 36 -14.5t13 -37.5q0 -28 -18 -46.5t-46 -18.5z" />
    <glyph glyph-name="utilde" unicode="&#x7e;u" horiz-adv-x="501" 
d="M150 -11q-48 0 -76 25t-28 66q0 17 7 46.5t17 64.5t20 69.5t17 62t7 41.5q0 35 -39 35h-37l10 52q22 0 52.5 1t64.5 3t65 4l11 -15q-26 -78 -46.5 -144.5t-32.5 -112t-12 -60.5q0 -16 5.5 -23.5t19.5 -7.5q17 0 46 37.5t64 105.5t73 160l-22 -196l-24 8
q-41 -81 -80.5 -136.5t-81.5 -85.5zM322 -12q-41 0 -41 35q0 6 2.5 20t8 39.5t14.5 65.5t21 96l4 51l27 161l12 6l89 -7l9 -11q-15 -49 -30.5 -109.5t-28.5 -121.5t-21 -112l3 -4q5 1 11.5 4.5t18.5 13.5t34 29l15 -2l16 -32q-46 -46 -76.5 -72.5t-50.5 -38t-37 -11.5z
M174 530l-30 31l1 9l87 97l16 4q16 0 44 -8t55.5 -16.5t40.5 -8.5q8 0 19.5 8.5t23 19.5t18.5 19.5l7 8.5h10l30 -32l-1 -8l-87 -98l-16 -4q-17 0 -44.5 8.5t-54 17t-40.5 8.5q-9 0 -20.5 -9t-23 -19.5t-18.5 -19l-7 -8.5h-10z" />
    <glyph glyph-name="yacute" unicode="&#xb4;y" horiz-adv-x="454" 
d="M295 447l116 24q15 -12 23.5 -34t8.5 -50q0 -53 -47 -147t-138 -226q-92 -133 -156 -192t-117 -59q-32 0 -56 12.5t-31 31.5q4 21 12.5 45t21.5 44l14 1q28 -32 57.5 -37t63.5 18.5t74 74.5q-7 81 -14 152.5t-15 135t-16 118.5q-4 21 -12 28.5t-26 7.5q-5 0 -18.5 -1
t-24.5 -2l4 51l167 22l11 -10q8 -71 12 -162.5t3 -216.5h12q37 62 62 113.5t38.5 91t13.5 63.5q0 48 -49 76zM378 655l-26.5 -18.5t-68.5 -48.5t-87 -66l-13 4l-27 33q30 29 58.5 59.5t52 55.5t37.5 40.5l14 15.5l12 -2l49 -60z" />
    <glyph glyph-name="uni1EF9" unicode="&#x7e;y" horiz-adv-x="454" 
d="M295 447l116 24q15 -12 23.5 -34t8.5 -50q0 -53 -47 -147t-138 -226q-92 -133 -156 -192t-117 -59q-32 0 -56 12.5t-31 31.5q4 21 12.5 45t21.5 44l14 1q28 -32 57.5 -37t63.5 18.5t74 74.5q-7 81 -14 152.5t-15 135t-16 118.5q-4 21 -12 28.5t-26 7.5q-5 0 -18.5 -1
t-24.5 -2l4 51l167 22l11 -10q8 -71 12 -162.5t3 -216.5h12q37 62 62 113.5t38.5 91t13.5 63.5q0 48 -49 76zM149 530l-30 31l1 9l87 97l16 4q16 0 44 -8t55.5 -16.5t40.5 -8.5q8 0 19.5 8.5t23 19.5t18.5 19.5l7 8.5h10l30 -32l-1 -8l-87 -98l-16 -4q-17 0 -44.5 8.5
t-54 17t-40.5 8.5q-9 0 -20.5 -9t-23 -19.5t-18.5 -19l-7 -8.5h-10z" />
    <glyph glyph-name="f_j" unicode="fj" horiz-adv-x="542" 
d="M25 402l5 41l82 12l8 69q5 46 28 85t57.5 69t77 47t88.5 17q29 0 62.5 -6t54.5 -16l4 -11l-40 -85l-19 -3q-33 23 -59.5 33t-49.5 10q-43 0 -67.5 -25t-31.5 -79l-13 -107h239l5 -4l-10 -50h-231l-9 -6l-49 -446q-4 -40 -20.5 -74.5t-41.5 -60.5t-56 -40t-65 -14
q-37 0 -66.5 15t-37.5 36q4 15 12 34t17 37t16 29h16q1 -39 19.5 -60.5t51.5 -21.5q27 0 47 22t23 58q4 37 4.5 70.5t3.5 63.5l27 347l-8 7l-71 2zM431 19q-8 -63 -33 -112.5t-65 -86.5t-93 -63l-24 27l3 10q38 28 62 58t38 74t23 110l3.5 21.5t9 55t12 72.5t12 75.5t9 63
t3.5 35.5q0 40 -40 40h-37l9 52q27 0 58 1.5t58.5 2.5t45.5 2.5l18 1.5l12 -15l-6 -24.5t-15.5 -67t-21 -97t-22.5 -115.5t-19 -121z" />
    <glyph glyph-name="fi" unicode="fi" horiz-adv-x="556" 
d="M439 91q7 0 19 9.5t52 43.5l15 -2l15 -32q-35 -38 -62.5 -63t-49 -38.5t-39.5 -17.5q-13 -3 -23 -1q-30 5 -30 43l3.5 21.5t9 56t12 74t12 76.5t9 63.5t3.5 34.5q0 22 -9 31t-30 9h-131l-9 -6l-43 -396q-6 -52 -20.5 -95.5t-37.5 -75.5t-56 -50t-75 -18q-37 0 -66.5 15
t-37.5 36q4 15 12 34t17 37t16 29h16q1 -39 19.5 -60.5t51.5 -21.5q27 0 47 22t23 58q3 30 4 58.5t2 53.5l29 369l-8 7l-71 2l-3 5l5 41l82 12l6 51q7 58 31.5 102.5t61 74t78 44.5t82.5 15q33 0 69.5 -7t60.5 -18l4 -11l-40 -85l-19 -3q-37 24 -66 35t-53 11
q-52 0 -74.5 -31t-29.5 -93l-11 -87h104q20 0 50 0.5t60 1.5t50.5 2t23.5 2l11 -15l-8 -29.5t-20 -79.5t-25 -112.5t-22 -128.5z" />
    <glyph glyph-name="fl" unicode="fl" horiz-adv-x="543" 
d="M25 402l5 41l82 12l8 69q5 46 26.5 85t54 69t73.5 47t83 17q32 0 67 -6t57 -16l4 -11l-33 -78l-19 -3q-38 19 -67.5 27.5t-54.5 8.5q-38 0 -58.5 -25t-27.5 -79l-13 -107l131 1l5 -5l-10 -51l-123 1l-9 -6l-49 -446q-4 -40 -20.5 -74.5t-41.5 -60.5t-56 -40t-65 -14
q-37 0 -66.5 15t-37.5 36q4 15 12 34t17 37t16 29h16q1 -39 19.5 -60.5t51.5 -21.5q27 0 47 22t23 58q4 37 4.5 70.5t3.5 63.5l27 347l-8 7l-71 2zM427 91q7 0 19 9.5t51 43.5l16 -2l15 -32q-40 -43 -70.5 -70t-52.5 -39.5t-40 -12.5q-42 0 -42 41l5 31t13 83t18 114.5
t20 126t18 118.5t13 91.5t5 44.5q0 38 -39 38h-37l8 52q27 0 58.5 1.5t60 2.5t46.5 2.5l18 1.5l11 -15l-6.5 -30t-17 -82t-23.5 -117t-26.5 -136t-25 -138.5t-18.5 -123.5z" />
    <glyph glyph-name="T_h.liga" unicode="Th" horiz-adv-x="939" 
d="M256 577q-45 -2 -70.5 -6t-40 -16.5t-23 -37.5t-19.5 -69l-70 -5q8 36 14.5 71t12 68t9.5 59l12 10l88 -11h356l95 8l-21 -121q-27 20 -54.5 30.5t-67 14.5t-101.5 5q-6 -33 -13.5 -77.5t-15 -95t-14.5 -100t-13 -91.5t-9.5 -70t-3.5 -37q0 -26 9 -36.5t29.5 -11.5
t53.5 2l3 -4l-16 -60q-23 1 -52 2t-56 1.5t-45 0.5q-24 0 -68.5 -1.5t-83.5 -4.5l15 57q32 3 52 8.5t31 16.5t17 32t10 56zM813 92q4 0 10 3.5t19.5 14.5t40.5 35l16 -2l15 -32q-42 -44 -72.5 -70.5t-52.5 -39t-38 -12.5q-43 0 -43 39q0 16 7 45t18 63.5t22 69.5t18 64.5
t7 46.5t-8 27t-21 10q-18 0 -44.5 -32t-57 -89.5t-60.5 -132.5l-10 -76q-1 -6 -16 -14t-35.5 -13t-38.5 -5l-11 13q12 83 26.5 175t28 180.5t24.5 163.5t18 125.5t7 64.5l12 17l94 5l11 -15q-9 -41 -21.5 -99t-26 -123.5t-25.5 -133.5t-21 -130l5 -2q46 92 91 153t85 85
q44 0 72.5 -28.5t28.5 -71.5q0 -23 -9.5 -58.5t-23.5 -75.5t-26.5 -77.5t-17.5 -64.5z" />
    <glyph glyph-name="gamma_gamma" unicode="&#x3b3;&#x3b3;" horiz-adv-x="815" 
d="M482 -237l-19 3l-41 37q6 36 13 63t19 55t32.5 66.5t54.5 97.5l-32 -78q5 44 7.5 79t2.5 64.5t-3 58.5q-4 68 -16 98.5t-38 31.5t-74 -22l35 155q49 0 79 -24.5t46.5 -79.5t22.5 -148q4 -62 2 -129.5t-9.5 -143t-21.5 -164.5zM547 -27l6 193l30 -2q23 48 49 95.5t54 99
t58 107.5l16 1q20 -12 35.5 -30t28.5 -45q-45 -64 -90 -130t-91 -137.5t-96 -151.5zM126 -237l-19 3l-41 37q7 36 13.5 63t18.5 55t33 66.5t54 97.5l-32 -78q6 44 8 79t2 64.5t-3 58.5q-4 68 -16 98.5t-38 31.5t-73 -22l-9 11q15 87 73 136q55 0 84 -59t35 -185
q4 -62 1.5 -129.5t-10 -143t-21.5 -164.5zM191 -27l7 193l29 -2q24 48 50 96t54 98.5t58 105.5l34 8l45 -80q-44 -64 -89 -130t-91 -137.5t-97 -151.5z" />
    <glyph glyph-name="lambda_lambda" unicode="&#x3bb;&#x3bb;" horiz-adv-x="796" 
d="M706 -7q-43 0 -61 22t-25 83l-53 439q-5 46 -20 65t-43.5 14t-74.5 -33l-10 13q18 91 83 142q55 0 87.5 -45t41.5 -132l44 -388q5 -51 28 -60.5t78 18.5l8 -14q-11 -39 -32.5 -71t-50.5 -53zM60 -10l-76 33l-2 10q73 126 134 232.5t115 203.5l38 -154h-38
q-32 -68 -60.5 -125t-53 -105.5t-46.5 -91.5zM365 -9q-36 1 -55.5 10t-29.5 32t-15 65l-52 439q-6 46 -21 65t-43 14t-75 -33l-10 13q18 91 83 142q55 0 87.5 -45t41.5 -132l44 -388q6 -51 29 -60.5t77 18.5zM365 -9l-29 42q74 126 135 232.5t114 203.5l39 -154h-39
q-47 -99 -85 -174.5t-70 -140.5z" />
    <glyph glyph-name="Gtilde" unicode="&#x7e;G" horiz-adv-x="633" 
d="M298 -12q-80 0 -138.5 32.5t-91 92t-32.5 142.5q0 89 26.5 161.5t76 125t117.5 81.5t151 29q30 0 63 -4t61.5 -8.5t46.5 -8l18 -3.5l4 -11l-8 -23t-19 -62.5t-21 -90.5l-80 -5l2.5 11t5 25.5t2.5 23.5q0 74 -110 74q-61 0 -107 -34.5t-70.5 -100t-24.5 -158.5
q0 -100 39 -156t111 -56q33 0 57 7t38 15l14 8l12 105q4 31 -3.5 40.5t-35.5 9.5h-23h-22.5h-9.5l-3 7l17 63l12 -0.5t32 -1t43 -1t43 -0.5q21 0 42 1.5l35 2.5l14 1l2 -32q-17 -11 -27.5 -32t-15.5 -53q-3 -20 -6.5 -47t-6.5 -50.5t-3 -33.5t0.5 -21.5l0.5 -11.5l-8 -10
l-27.5 -10.5t-76.5 -21.5t-116 -11zM258 691l-30 32l1 9l86 90l16 4q16 0 44 -8t55 -16.5t40 -8.5q9 0 20.5 7.5t22.5 17t18.5 17l7.5 7.5h9l30 -32l-1 -8l-86 -91l-17 -4q-16 0 -43.5 8.5t-54 16.5t-40.5 8q-9 0 -20.5 -7.5t-22.5 -17t-18.5 -17l-7.5 -7.5h-9z" />
    <glyph glyph-name="gtilde" unicode="&#x7e;g" horiz-adv-x="463" 
d="M93 -241q-47 0 -87.5 18.5t-63.5 49t-20 65.5l3 7q17 12 45 29.5t62 38t70 39.5l1 9q-28 14 -43.5 49t-15.5 83q0 57 20 113.5t53.5 102.5t74 73.5t82.5 27.5l92 -17l9 23l10 5l64 -14l10 -15q-18 -37 -32.5 -72t-22.5 -65.5t-11 -56.5q-3 -21 -5 -53.5t-4 -69t-4 -68.5
t-5 -50q-4 -34 -23 -69.5t-49 -68t-65 -58.5t-73 -41t-72 -15zM134 -162q60 0 100.5 41t49.5 114l24 196l-9 2q-34 -59 -57.5 -95t-43 -56.5t-40.5 -36.5q-27 -19 -57.5 -39t-51.5 -36t-21 -24q0 -15 15.5 -30t40 -25.5t50.5 -10.5zM181 105q13 0 37 33t54.5 91.5
t62.5 134.5q-13 7 -29 14t-32 11t-31 4q-23 0 -44.5 -28t-35 -72.5t-13.5 -92.5q0 -39 9 -67t22 -28zM160 555l-30 31l1 9l87 97l16 4q16 0 44 -8t55.5 -16.5t40.5 -8.5q8 0 19.5 8.5t23 19.5t18.5 19.5l7 8.5h10l30 -32l-1 -8l-87 -98l-16 -4q-17 0 -44.5 8.5t-54 17
t-40.5 8.5q-9 0 -20.5 -9t-23 -19.5t-18.5 -19l-7 -8.5h-10z" />
    <glyph glyph-name=".notdef" horiz-adv-x="641" 
d="M641 -109l-658 658l16 16l658 -658zM-1 -109l-16 16l658 658l16 -16z" />
    <glyph glyph-name="A" unicode="A" horiz-adv-x="590" 
d="M502 125q7 -37 22.5 -51.5t49.5 -19.5l3 -5l-13 -52l-20 1t-47 1.5t-46 0.5q-39 0 -75.5 -2t-59.5 -4.5l-23 -2.5l-3 8l10 52q52 4 68 12.5t16 31.5q0 7 -1 15t-2 17l-12 89q-8 0 -26 0.5t-36.5 0.5h-28.5q-16 0 -35.5 -1.5t-36.5 -3t-26 -2.5l-37 -87q-11 -26 -11 -40
q0 -29 43 -29h47l2 -5l-13 -55l-21 1.5t-53 3t-64 1.5q-24 0 -50.5 -0.5t-44.5 -1.5l-18 -1l15 59q24 4 41 19t34 52l236 508l125 16l10 -4l3.5 -25t9.5 -67.5t14 -96.5t17 -113t18.5 -115.5t18.5 -104.5zM211 281h73q17 0 39.5 1.5t38.5 2.5l-33 238h-12z" />
    <glyph glyph-name="Aacute" unicode="&#xc1;" horiz-adv-x="590" 
d="M502 125q7 -37 22.5 -51.5t49.5 -19.5l3 -5l-13 -52l-20 1t-47 1.5t-46 0.5q-39 0 -75.5 -2t-59.5 -4.5l-23 -2.5l-3 8l10 52q52 4 68 12.5t16 31.5q0 7 -1 15t-2 17l-12 89q-8 0 -26 0.5t-36.5 0.5h-28.5q-16 0 -35.5 -1.5t-36.5 -3t-26 -2.5l-37 -87q-11 -26 -11 -40
q0 -29 43 -29h47l2 -5l-13 -55l-21 1.5t-53 3t-64 1.5q-24 0 -50.5 -0.5t-44.5 -1.5l-18 -1l15 59q24 4 41 19t34 52l236 508l125 16l10 -4l3.5 -25t9.5 -67.5t14 -96.5t17 -113t18.5 -115.5t18.5 -104.5zM211 281h73q17 0 39.5 1.5t38.5 2.5l-33 238h-12zM481 759l-19 -5.5
t-50.5 -15t-71 -21.5t-81.5 -26l-11 7l-11 40q38 17 76.5 36t69.5 34.5t50 25.5l19 10l11 -6l23 -68z" />
    <glyph glyph-name="Abreve" unicode="&#x102;" horiz-adv-x="590" 
d="M502 125q7 -37 22.5 -51.5t49.5 -19.5l3 -5l-13 -52l-20 1t-47 1.5t-46 0.5q-39 0 -75.5 -2t-59.5 -4.5l-23 -2.5l-3 8l10 52q52 4 68 12.5t16 31.5q0 7 -1 15t-2 17l-12 89q-8 0 -26 0.5t-36.5 0.5h-28.5q-16 0 -35.5 -1.5t-36.5 -3t-26 -2.5l-37 -87q-11 -26 -11 -40
q0 -29 43 -29h47l2 -5l-13 -55l-21 1.5t-53 3t-64 1.5q-24 0 -50.5 -0.5t-44.5 -1.5l-18 -1l15 59q24 4 41 19t34 52l236 508l125 16l10 -4l3.5 -25t9.5 -67.5t14 -96.5t17 -113t18.5 -115.5t18.5 -104.5zM211 281h73q17 0 39.5 1.5t38.5 2.5l-33 238h-12zM359 785
q32 0 60.5 14t44.5 42l14 -2l20 -27q-11 -27 -31.5 -52.5t-49.5 -41.5t-68 -16t-64.5 16t-39.5 41.5t-19 52.5l28 27l14 2q10 -28 34.5 -42t56.5 -14z" />
    <glyph glyph-name="uni1EAE" unicode="&#x1eae;" horiz-adv-x="590" 
d="M502 125q7 -37 22.5 -51.5t49.5 -19.5l3 -5l-13 -52l-20 1t-47 1.5t-46 0.5q-39 0 -75.5 -2t-59.5 -4.5l-23 -2.5l-3 8l10 52q52 4 68 12.5t16 31.5q0 7 -1 15t-2 17l-12 89q-8 0 -26 0.5t-36.5 0.5h-28.5q-16 0 -35.5 -1.5t-36.5 -3t-26 -2.5l-37 -87q-11 -26 -11 -40
q0 -29 43 -29h47l2 -5l-13 -55l-21 1.5t-53 3t-64 1.5q-24 0 -50.5 -0.5t-44.5 -1.5l-18 -1l15 59q24 4 41 19t34 52l236 508l125 16l10 -4l3.5 -25t9.5 -67.5t14 -96.5t17 -113t18.5 -115.5t18.5 -104.5zM211 281h73q17 0 39.5 1.5t38.5 2.5l-33 238h-12zM370 811
q32 0 60 16.5t45 50.5l14 -2l21 -27q-11 -30 -31.5 -58t-50 -45.5t-68.5 -17.5t-64.5 17.5t-39 45.5t-18.5 58l28 27l14 2q9 -34 33 -50.5t57 -16.5zM491 959l-114 -109h-13l-31 25l98 137l11 1l49 -41v-13z" />
    <glyph glyph-name="uni1EB6" unicode="&#x1eb6;" horiz-adv-x="590" 
d="M502 125q7 -37 22.5 -51.5t49.5 -19.5l3 -5l-13 -52l-20 1t-47 1.5t-46 0.5q-39 0 -75.5 -2t-59.5 -4.5l-23 -2.5l-3 8l10 52q52 4 68 12.5t16 31.5q0 7 -1 15t-2 17l-12 89q-8 0 -26 0.5t-36.5 0.5h-28.5q-16 0 -35.5 -1.5t-36.5 -3t-26 -2.5l-37 -87q-11 -26 -11 -40
q0 -29 43 -29h47l2 -5l-13 -55l-21 1.5t-53 3t-64 1.5q-24 0 -50.5 -0.5t-44.5 -1.5l-18 -1l15 59q24 4 41 19t34 52l236 508l125 16l10 -4l3.5 -25t9.5 -67.5t14 -96.5t17 -113t18.5 -115.5t18.5 -104.5zM211 281h73q17 0 39.5 1.5t38.5 2.5l-33 238h-12zM358 789
q32 0 60 17t45 50l15 -2l20 -27q-11 -30 -31.5 -58t-50 -45.5t-68.5 -17.5t-64.5 17.5t-39 45.5t-17.5 58l26 27l15 2q9 -33 33 -50t57 -17zM238 -205q-30 0 -44.5 17.5t-14.5 42.5q0 36 23 60.5t61 24.5q29 0 44.5 -17t15.5 -43q0 -36 -23 -60.5t-62 -24.5z" />
    <glyph glyph-name="uni1EB0" unicode="&#x1eb0;" horiz-adv-x="590" 
d="M502 125q7 -37 22.5 -51.5t49.5 -19.5l3 -5l-13 -52l-20 1t-47 1.5t-46 0.5q-39 0 -75.5 -2t-59.5 -4.5l-23 -2.5l-3 8l10 52q52 4 68 12.5t16 31.5q0 7 -1 15t-2 17l-12 89q-8 0 -26 0.5t-36.5 0.5h-28.5q-16 0 -35.5 -1.5t-36.5 -3t-26 -2.5l-37 -87q-11 -26 -11 -40
q0 -29 43 -29h47l2 -5l-13 -55l-21 1.5t-53 3t-64 1.5q-24 0 -50.5 -0.5t-44.5 -1.5l-18 -1l15 59q24 4 41 19t34 52l236 508l125 16l10 -4l3.5 -25t9.5 -67.5t14 -96.5t17 -113t18.5 -115.5t18.5 -104.5zM211 281h73q17 0 39.5 1.5t38.5 2.5l-33 238h-12zM365 808
q32 0 60 17t45 50l14 -2l21 -27q-11 -30 -31.5 -58t-50 -45.5t-68.5 -17.5t-64.5 17.5t-39 45.5t-18.5 58l28 27l14 2q9 -33 33 -50t57 -17zM257 969l49 42l12 -1l97 -137l-31 -26h-13l-114 109v13z" />
    <glyph glyph-name="uni1EB2" unicode="&#x1eb2;" horiz-adv-x="590" 
d="M502 125q7 -37 22.5 -51.5t49.5 -19.5l3 -5l-13 -52l-20 1t-47 1.5t-46 0.5q-39 0 -75.5 -2t-59.5 -4.5l-23 -2.5l-3 8l10 52q52 4 68 12.5t16 31.5q0 7 -1 15t-2 17l-12 89q-8 0 -26 0.5t-36.5 0.5h-28.5q-16 0 -35.5 -1.5t-36.5 -3t-26 -2.5l-37 -87q-11 -26 -11 -40
q0 -29 43 -29h47l2 -5l-13 -55l-21 1.5t-53 3t-64 1.5q-24 0 -50.5 -0.5t-44.5 -1.5l-18 -1l15 59q24 4 41 19t34 52l236 508l125 16l10 -4l3.5 -25t9.5 -67.5t14 -96.5t17 -113t18.5 -115.5t18.5 -104.5zM211 281h73q17 0 39.5 1.5t38.5 2.5l-33 238h-12zM372 808
q34 0 62 17.5t44 49.5l14 -2l20 -27q-21 -56 -61.5 -88.5t-88.5 -32.5q-49 0 -81 32.5t-40 88.5l27 27l15 2q8 -31 31 -49t58 -18zM294 988l13 11t32.5 24t39.5 20q40 0 61.5 -15.5t21.5 -44.5q0 -13 -7 -26.5t-21 -28.5t-38 -32l18 -36l-47 -24l-30 61q31 20 44 35t13 30
q0 23 -31 23q-14 0 -27 -5t-21.5 -10l-8.5 -5z" />
    <glyph glyph-name="uni1EB4" unicode="&#x1eb4;" horiz-adv-x="590" 
d="M502 125q7 -37 22.5 -51.5t49.5 -19.5l3 -5l-13 -52l-20 1t-47 1.5t-46 0.5q-39 0 -75.5 -2t-59.5 -4.5l-23 -2.5l-3 8l10 52q52 4 68 12.5t16 31.5q0 7 -1 15t-2 17l-12 89q-8 0 -26 0.5t-36.5 0.5h-28.5q-16 0 -35.5 -1.5t-36.5 -3t-26 -2.5l-37 -87q-11 -26 -11 -40
q0 -29 43 -29h47l2 -5l-13 -55l-21 1.5t-53 3t-64 1.5q-24 0 -50.5 -0.5t-44.5 -1.5l-18 -1l15 59q24 4 41 19t34 52l236 508l125 16l10 -4l3.5 -25t9.5 -67.5t14 -96.5t17 -113t18.5 -115.5t18.5 -104.5zM211 281h73q17 0 39.5 1.5t38.5 2.5l-33 238h-12zM355 799
q30 0 55.5 11.5t39.5 33.5l13 -2l22 -24q-15 -36 -49.5 -66t-89.5 -30q-36 0 -60.5 14t-38 36t-17.5 46l28 24l13 2q10 -22 32 -33.5t52 -11.5zM244 862l-24 30l1 7l71 67l14 4q14 0 38 -7t47.5 -14.5t35.5 -7.5q10 0 23.5 8.5t24 17l10.5 8.5h8l23 -31l-1 -7l-70 -67
l-15 -3q-13 0 -37 7.5t-47.5 14.5t-36.5 7q-10 0 -23 -8.5t-23.5 -17l-10.5 -8.5h-8z" />
    <glyph glyph-name="uni01CD" unicode="&#x1cd;" horiz-adv-x="590" 
d="M502 125q7 -37 22.5 -51.5t49.5 -19.5l3 -5l-13 -52l-20 1t-47 1.5t-46 0.5q-39 0 -75.5 -2t-59.5 -4.5l-23 -2.5l-3 8l10 52q52 4 68 12.5t16 31.5q0 7 -1 15t-2 17l-12 89q-8 0 -26 0.5t-36.5 0.5h-28.5q-16 0 -35.5 -1.5t-36.5 -3t-26 -2.5l-37 -87q-11 -26 -11 -40
q0 -29 43 -29h47l2 -5l-13 -55l-21 1.5t-53 3t-64 1.5q-24 0 -50.5 -0.5t-44.5 -1.5l-18 -1l15 59q24 4 41 19t34 52l236 508l125 16l10 -4l3.5 -25t9.5 -67.5t14 -96.5t17 -113t18.5 -115.5t18.5 -104.5zM211 281h73q17 0 39.5 1.5t38.5 2.5l-33 238h-12zM518 819
q-9 -6 -28 -20t-42 -31t-44 -33t-34.5 -26l-13.5 -10h-18l-11 10t-28 26t-35.5 33t-34 31t-22.5 20l24 35l15 3q5 -3 22 -12t36.5 -19.5t35.5 -19.5t19 -10q3 1 15.5 7t29.5 14.5t34.5 16.5t31 14.5t17.5 8.5l13 -3z" />
    <glyph glyph-name="Acircumflex" unicode="&#xc2;" horiz-adv-x="590" 
d="M502 125q7 -37 22.5 -51.5t49.5 -19.5l3 -5l-13 -52l-20 1t-47 1.5t-46 0.5q-39 0 -75.5 -2t-59.5 -4.5l-23 -2.5l-3 8l10 52q52 4 68 12.5t16 31.5q0 7 -1 15t-2 17l-12 89q-8 0 -26 0.5t-36.5 0.5h-28.5q-16 0 -35.5 -1.5t-36.5 -3t-26 -2.5l-37 -87q-11 -26 -11 -40
q0 -29 43 -29h47l2 -5l-13 -55l-21 1.5t-53 3t-64 1.5q-24 0 -50.5 -0.5t-44.5 -1.5l-18 -1l15 59q24 4 41 19t34 52l236 508l125 16l10 -4l3.5 -25t9.5 -67.5t14 -96.5t17 -113t18.5 -115.5t18.5 -104.5zM211 281h73q17 0 39.5 1.5t38.5 2.5l-33 238h-12zM208 746
q8 6 27 20t41.5 31t43.5 33t35 26l14 10h18q0 1 11 -9t28.5 -26t36 -33.5t33.5 -31t23 -20.5l-26 -35l-14 -3q-5 3 -21.5 12t-36.5 19.5t-36 19.5t-20 10q-3 -1 -15 -7t-29 -14t-34.5 -16.5t-31 -15t-18.5 -8.5l-13 3z" />
    <glyph glyph-name="uni1EA4" unicode="&#x1ea4;" horiz-adv-x="590" 
d="M502 125q7 -37 22.5 -51.5t49.5 -19.5l3 -5l-13 -52l-20 1t-47 1.5t-46 0.5q-39 0 -75.5 -2t-59.5 -4.5l-23 -2.5l-3 8l10 52q52 4 68 12.5t16 31.5q0 7 -1 15t-2 17l-12 89q-8 0 -26 0.5t-36.5 0.5h-28.5q-16 0 -35.5 -1.5t-36.5 -3t-26 -2.5l-37 -87q-11 -26 -11 -40
q0 -29 43 -29h47l2 -5l-13 -55l-21 1.5t-53 3t-64 1.5q-24 0 -50.5 -0.5t-44.5 -1.5l-18 -1l15 59q24 4 41 19t34 52l236 508l125 16l10 -4l3.5 -25t9.5 -67.5t14 -96.5t17 -113t18.5 -115.5t18.5 -104.5zM211 281h73q17 0 39.5 1.5t38.5 2.5l-33 238h-12zM596 936l-97 -116
l-14 -1l-33 23l80 141l11 2l53 -36v-13zM220 745q27 19 54.5 39.5t50.5 38t36.5 28l13.5 10.5h18l19 -18t48.5 -45t59.5 -53l-24 -33l-13 -3q-30 18 -61 34t-49 25q-22 -9 -55.5 -25t-69.5 -34l-12 3z" />
    <glyph glyph-name="uni1EAC" unicode="&#x1eac;" horiz-adv-x="590" 
d="M502 125q7 -37 22.5 -51.5t49.5 -19.5l3 -5l-13 -52l-20 1t-47 1.5t-46 0.5q-39 0 -75.5 -2t-59.5 -4.5l-23 -2.5l-3 8l10 52q52 4 68 12.5t16 31.5q0 7 -1 15t-2 17l-12 89q-8 0 -26 0.5t-36.5 0.5h-28.5q-16 0 -35.5 -1.5t-36.5 -3t-26 -2.5l-37 -87q-11 -26 -11 -40
q0 -29 43 -29h47l2 -5l-13 -55l-21 1.5t-53 3t-64 1.5q-24 0 -50.5 -0.5t-44.5 -1.5l-18 -1l15 59q24 4 41 19t34 52l236 508l125 16l10 -4l3.5 -25t9.5 -67.5t14 -96.5t17 -113t18.5 -115.5t18.5 -104.5zM211 281h73q17 0 39.5 1.5t38.5 2.5l-33 238h-12zM208 746
q8 6 27 20t41.5 31t43.5 33t35 26l14 10h18q0 1 11 -9t28.5 -26t36 -33.5t33.5 -31t23 -20.5l-26 -35l-14 -3q-5 3 -21.5 12t-36.5 19.5t-36 19.5t-20 10q-3 -1 -15 -7t-29 -14t-34.5 -16.5t-31 -15t-18.5 -8.5l-13 3zM238 -205q-30 0 -44.5 17.5t-14.5 42.5q0 36 23 60.5
t61 24.5q29 0 44.5 -17t15.5 -43q0 -36 -23 -60.5t-62 -24.5z" />
    <glyph glyph-name="uni1EA6" unicode="&#x1ea6;" horiz-adv-x="590" 
d="M502 125q7 -37 22.5 -51.5t49.5 -19.5l3 -5l-13 -52l-20 1t-47 1.5t-46 0.5q-39 0 -75.5 -2t-59.5 -4.5l-23 -2.5l-3 8l10 52q52 4 68 12.5t16 31.5q0 7 -1 15t-2 17l-12 89q-8 0 -26 0.5t-36.5 0.5h-28.5q-16 0 -35.5 -1.5t-36.5 -3t-26 -2.5l-37 -87q-11 -26 -11 -40
q0 -29 43 -29h47l2 -5l-13 -55l-21 1.5t-53 3t-64 1.5q-24 0 -50.5 -0.5t-44.5 -1.5l-18 -1l15 59q24 4 41 19t34 52l236 508l125 16l10 -4l3.5 -25t9.5 -67.5t14 -96.5t17 -113t18.5 -115.5t18.5 -104.5zM211 281h73q17 0 39.5 1.5t38.5 2.5l-33 238h-12zM416 954l61 29
l11 -3l45 -141l-39 -18l-13 1l-69 119zM214 745q27 19 54.5 39.5t50 38t36.5 28l14 10.5h18l19 -18t48.5 -45t59.5 -53l-24 -33l-14 -3q-30 18 -60.5 34t-48.5 25q-22 -9 -55.5 -25t-69.5 -34l-13 3z" />
    <glyph glyph-name="uni1EA8" unicode="&#x1ea8;" horiz-adv-x="590" 
d="M502 125q7 -37 22.5 -51.5t49.5 -19.5l3 -5l-13 -52l-20 1t-47 1.5t-46 0.5q-39 0 -75.5 -2t-59.5 -4.5l-23 -2.5l-3 8l10 52q52 4 68 12.5t16 31.5q0 7 -1 15t-2 17l-12 89q-8 0 -26 0.5t-36.5 0.5h-28.5q-16 0 -35.5 -1.5t-36.5 -3t-26 -2.5l-37 -87q-11 -26 -11 -40
q0 -29 43 -29h47l2 -5l-13 -55l-21 1.5t-53 3t-64 1.5q-24 0 -50.5 -0.5t-44.5 -1.5l-18 -1l15 59q24 4 41 19t34 52l236 508l125 16l10 -4l3.5 -25t9.5 -67.5t14 -96.5t17 -113t18.5 -115.5t18.5 -104.5zM211 281h73q17 0 39.5 1.5t38.5 2.5l-33 238h-12zM405 963l13 11
t32.5 24t38.5 20q40 0 62 -15.5t23 -44.5q0 -19 -15 -40.5t-49 -46.5l18 -36l-46 -24l-31 61q30 21 42.5 35.5t11.5 29.5q0 23 -30 23q-14 0 -27 -5t-21.5 -10l-8.5 -5zM207 745q27 19 54.5 39.5t50.5 38t36.5 28l13.5 10.5h18l19 -18t48.5 -45t59.5 -53l-24 -33l-13 -3
q-30 18 -61 34t-49 25q-22 -9 -55.5 -25t-69.5 -34l-12 3z" />
    <glyph glyph-name="uni1EAA" unicode="&#x1eaa;" horiz-adv-x="590" 
d="M502 125q7 -37 22.5 -51.5t49.5 -19.5l3 -5l-13 -52l-20 1t-47 1.5t-46 0.5q-39 0 -75.5 -2t-59.5 -4.5l-23 -2.5l-3 8l10 52q52 4 68 12.5t16 31.5q0 7 -1 15t-2 17l-12 89q-8 0 -26 0.5t-36.5 0.5h-28.5q-16 0 -35.5 -1.5t-36.5 -3t-26 -2.5l-37 -87q-11 -26 -11 -40
q0 -29 43 -29h47l2 -5l-13 -55l-21 1.5t-53 3t-64 1.5q-24 0 -50.5 -0.5t-44.5 -1.5l-18 -1l15 59q24 4 41 19t34 52l236 508l125 16l10 -4l3.5 -25t9.5 -67.5t14 -96.5t17 -113t18.5 -115.5t18.5 -104.5zM211 281h73q17 0 39.5 1.5t38.5 2.5l-33 238h-12zM251 865l-27 29
l2 7l75 80l15 4q14 0 38.5 -7.5t48.5 -15t36 -7.5q8 0 18 6.5t20 15t16 15.5l6 7h9l27 -29l-1 -7l-76 -80l-15 -4q-14 0 -38.5 8t-48 15t-36.5 7q-10 0 -24.5 -10.5t-25 -22l-10.5 -11.5h-9zM207 745q27 19 54.5 39.5t50.5 38t36.5 28l13.5 10.5h18l19 -18t48.5 -45
t59.5 -53l-24 -33l-13 -3q-30 18 -61 34t-49 25q-22 -9 -55.5 -25t-69.5 -34l-12 3z" />
    <glyph glyph-name="uni0200" unicode="&#x200;" horiz-adv-x="590" 
d="M502 125q7 -37 22.5 -51.5t49.5 -19.5l3 -5l-13 -52l-20 1t-47 1.5t-46 0.5q-39 0 -75.5 -2t-59.5 -4.5l-23 -2.5l-3 8l10 52q52 4 68 12.5t16 31.5q0 7 -1 15t-2 17l-12 89q-8 0 -26 0.5t-36.5 0.5h-28.5q-16 0 -35.5 -1.5t-36.5 -3t-26 -2.5l-37 -87q-11 -26 -11 -40
q0 -29 43 -29h47l2 -5l-13 -55l-21 1.5t-53 3t-64 1.5q-24 0 -50.5 -0.5t-44.5 -1.5l-18 -1l15 59q24 4 41 19t34 52l236 508l125 16l10 -4l3.5 -25t9.5 -67.5t14 -96.5t17 -113t18.5 -115.5t18.5 -104.5zM211 281h73q17 0 39.5 1.5t38.5 2.5l-33 238h-12zM466 680
q-42 26 -80 47.5t-62.5 34.5l-24.5 13l-2 11l36 55l11 3l22.5 -19.5t57.5 -49t72 -60.5l-18 -30zM307 674q-42 26 -80 47.5t-62.5 34.5l-24.5 13l-2 11l37 55l10 3l23 -19.5t58 -49.5t71 -60l-19 -30z" />
    <glyph glyph-name="Adieresis" unicode="&#xc4;" horiz-adv-x="590" 
d="M502 125q7 -37 22.5 -51.5t49.5 -19.5l3 -5l-13 -52l-20 1t-47 1.5t-46 0.5q-39 0 -75.5 -2t-59.5 -4.5l-23 -2.5l-3 8l10 52q52 4 68 12.5t16 31.5q0 7 -1 15t-2 17l-12 89q-8 0 -26 0.5t-36.5 0.5h-28.5q-16 0 -35.5 -1.5t-36.5 -3t-26 -2.5l-37 -87q-11 -26 -11 -40
q0 -29 43 -29h47l2 -5l-13 -55l-21 1.5t-53 3t-64 1.5q-24 0 -50.5 -0.5t-44.5 -1.5l-18 -1l15 59q24 4 41 19t34 52l236 508l125 16l10 -4l3.5 -25t9.5 -67.5t14 -96.5t17 -113t18.5 -115.5t18.5 -104.5zM211 281h73q17 0 39.5 1.5t38.5 2.5l-33 238h-12zM435 712
q-24 0 -35.5 14t-11.5 33q0 30 20 50t49 20q23 0 35 -13.5t12 -34.5q0 -29 -20 -49t-49 -20zM265 712q-23 0 -34.5 14t-11.5 33q0 30 19.5 50t49.5 20q23 0 34.5 -13.5t11.5 -34.5q0 -29 -19.5 -49t-49.5 -20z" />
    <glyph glyph-name="uni1EA0" unicode="&#x1ea0;" horiz-adv-x="590" 
d="M502 125q7 -37 22.5 -51.5t49.5 -19.5l3 -5l-13 -52l-20 1t-47 1.5t-46 0.5q-39 0 -75.5 -2t-59.5 -4.5l-23 -2.5l-3 8l10 52q52 4 68 12.5t16 31.5q0 7 -1 15t-2 17l-12 89q-8 0 -26 0.5t-36.5 0.5h-28.5q-16 0 -35.5 -1.5t-36.5 -3t-26 -2.5l-37 -87q-11 -26 -11 -40
q0 -29 43 -29h47l2 -5l-13 -55l-21 1.5t-53 3t-64 1.5q-24 0 -50.5 -0.5t-44.5 -1.5l-18 -1l15 59q24 4 41 19t34 52l236 508l125 16l10 -4l3.5 -25t9.5 -67.5t14 -96.5t17 -113t18.5 -115.5t18.5 -104.5zM211 281h73q17 0 39.5 1.5t38.5 2.5l-33 238h-12zM238 -205
q-30 0 -44.5 17.5t-14.5 42.5q0 36 23 60.5t61 24.5q29 0 44.5 -17t15.5 -43q0 -36 -23 -60.5t-62 -24.5z" />
    <glyph glyph-name="Agrave" unicode="&#xc0;" horiz-adv-x="590" 
d="M502 125q7 -37 22.5 -51.5t49.5 -19.5l3 -5l-13 -52l-20 1t-47 1.5t-46 0.5q-39 0 -75.5 -2t-59.5 -4.5l-23 -2.5l-3 8l10 52q52 4 68 12.5t16 31.5q0 7 -1 15t-2 17l-12 89q-8 0 -26 0.5t-36.5 0.5h-28.5q-16 0 -35.5 -1.5t-36.5 -3t-26 -2.5l-37 -87q-11 -26 -11 -40
q0 -29 43 -29h47l2 -5l-13 -55l-21 1.5t-53 3t-64 1.5q-24 0 -50.5 -0.5t-44.5 -1.5l-18 -1l15 59q24 4 41 19t34 52l236 508l125 16l10 -4l3.5 -25t9.5 -67.5t14 -96.5t17 -113t18.5 -115.5t18.5 -104.5zM211 281h73q17 0 39.5 1.5t38.5 2.5l-33 238h-12zM236 770l23 68
l11 5l19 -9.5l50 -25t69.5 -34.5t76.5 -37l-10 -39l-12 -8q-41 14 -81 26.5t-71.5 21.5t-50.5 14.5l-19 5.5z" />
    <glyph glyph-name="uni1EA2" unicode="&#x1ea2;" horiz-adv-x="590" 
d="M502 125q7 -37 22.5 -51.5t49.5 -19.5l3 -5l-13 -52l-20 1t-47 1.5t-46 0.5q-39 0 -75.5 -2t-59.5 -4.5l-23 -2.5l-3 8l10 52q52 4 68 12.5t16 31.5q0 7 -1 15t-2 17l-12 89q-8 0 -26 0.5t-36.5 0.5h-28.5q-16 0 -35.5 -1.5t-36.5 -3t-26 -2.5l-37 -87q-11 -26 -11 -40
q0 -29 43 -29h47l2 -5l-13 -55l-21 1.5t-53 3t-64 1.5q-24 0 -50.5 -0.5t-44.5 -1.5l-18 -1l15 59q24 4 41 19t34 52l236 508l125 16l10 -4l3.5 -25t9.5 -67.5t14 -96.5t17 -113t18.5 -115.5t18.5 -104.5zM211 281h73q17 0 39.5 1.5t38.5 2.5l-33 238h-12zM278 875l14 11.5
t35 26t42 21.5q43 0 66.5 -16.5t23.5 -47.5q0 -14 -7.5 -29t-23 -31t-40.5 -34l19 -39l-51 -26l-32 66q34 23 47.5 39t13.5 31q0 25 -33 25q-14 0 -28.5 -5.5t-23.5 -11l-9 -5.5z" />
    <glyph glyph-name="uni0202" unicode="&#x202;" horiz-adv-x="590" 
d="M502 125q7 -37 22.5 -51.5t49.5 -19.5l3 -5l-13 -52l-20 1t-47 1.5t-46 0.5q-39 0 -75.5 -2t-59.5 -4.5l-23 -2.5l-3 8l10 52q52 4 68 12.5t16 31.5q0 7 -1 15t-2 17l-12 89q-8 0 -26 0.5t-36.5 0.5h-28.5q-16 0 -35.5 -1.5t-36.5 -3t-26 -2.5l-37 -87q-11 -26 -11 -40
q0 -29 43 -29h47l2 -5l-13 -55l-21 1.5t-53 3t-64 1.5q-24 0 -50.5 -0.5t-44.5 -1.5l-18 -1l15 59q24 4 41 19t34 52l236 508l125 16l10 -4l3.5 -25t9.5 -67.5t14 -96.5t17 -113t18.5 -115.5t18.5 -104.5zM211 281h73q17 0 39.5 1.5t38.5 2.5l-33 238h-12zM366 779
q-35 0 -64.5 -18t-47.5 -51l-14 4l-22 29q12 30 32 57t50 44.5t68 17.5q41 0 67.5 -18.5t41.5 -46.5t19 -58l-26 -25l-14 -1q-10 34 -34 50t-56 16z" />
    <glyph glyph-name="Amacron" unicode="&#x100;" horiz-adv-x="590" 
d="M502 125q7 -37 22.5 -51.5t49.5 -19.5l3 -5l-13 -52l-20 1t-47 1.5t-46 0.5q-39 0 -75.5 -2t-59.5 -4.5l-23 -2.5l-3 8l10 52q52 4 68 12.5t16 31.5q0 7 -1 15t-2 17l-12 89q-8 0 -26 0.5t-36.5 0.5h-28.5q-16 0 -35.5 -1.5t-36.5 -3t-26 -2.5l-37 -87q-11 -26 -11 -40
q0 -29 43 -29h47l2 -5l-13 -55l-21 1.5t-53 3t-64 1.5q-24 0 -50.5 -0.5t-44.5 -1.5l-18 -1l15 59q24 4 41 19t34 52l236 508l125 16l10 -4l3.5 -25t9.5 -67.5t14 -96.5t17 -113t18.5 -115.5t18.5 -104.5zM211 281h73q17 0 39.5 1.5t38.5 2.5l-33 238h-12zM510 780l-19 -67
l-137 -1h-59.5t-53.5 -0.5l-22 -0.5l-8 11l21 66h25t60 -0.5t63 -0.5q24 0 53 1.5t50 3l21 1.5z" />
    <glyph glyph-name="Aogonek" unicode="&#x104;" horiz-adv-x="590" 
d="M502 125q7 -37 22.5 -51.5t49.5 -19.5l3 -5l-13 -52l-20 1t-47 1.5t-46 0.5q-39 0 -75.5 -2t-59.5 -4.5l-23 -2.5l-3 8l10 52q52 4 68 12.5t16 31.5q0 7 -1 15t-2 17l-12 89q-8 0 -26 0.5t-36.5 0.5h-28.5q-16 0 -35.5 -1.5t-36.5 -3t-26 -2.5l-37 -87q-11 -26 -11 -40
q0 -29 43 -29h47l2 -5l-13 -55l-21 1.5t-53 3t-64 1.5q-24 0 -50.5 -0.5t-44.5 -1.5l-18 -1l15 59q24 4 41 19t34 52l236 508l125 16l10 -4l3.5 -25t9.5 -67.5t14 -96.5t17 -113t18.5 -115.5t18.5 -104.5zM211 281h73q17 0 39.5 1.5t38.5 2.5l-33 238h-12zM548 -174
q-8 -6 -25.5 -19t-39 -26.5t-43.5 -21.5q-48 0 -77 22t-29 63q0 29 18 58t51.5 63t78.5 77h58q-44 -43 -70.5 -73.5t-38.5 -53t-12 -43.5q0 -19 11.5 -30t30.5 -11q15 0 29.5 4.5t26 10t15.5 8.5z" />
    <glyph glyph-name="Aring" unicode="&#xc5;" horiz-adv-x="590" 
d="M502 125q7 -37 22.5 -51.5t49.5 -19.5l3 -5l-13 -52l-20 1t-47 1.5t-46 0.5q-39 0 -75.5 -2t-59.5 -4.5l-23 -2.5l-3 8l10 52q52 4 68 12.5t16 31.5q0 7 -1 15t-2 17l-12 89q-8 0 -26 0.5t-36.5 0.5h-28.5q-16 0 -35.5 -1.5t-36.5 -3t-26 -2.5l-37 -87q-11 -26 -11 -40
q0 -29 43 -29h47l2 -5l-13 -55l-21 1.5t-53 3t-64 1.5q-24 0 -50.5 -0.5t-44.5 -1.5l-18 -1l15 59q24 4 41 19t34 52l236 508l125 16l10 -4l3.5 -25t9.5 -67.5t14 -96.5t17 -113t18.5 -115.5t18.5 -104.5zM211 281h73q17 0 39.5 1.5t38.5 2.5l-33 238h-12zM345 677
q-36 0 -54.5 20.5t-18.5 53.5q0 45 29 75t74 30q40 0 56.5 -22t16.5 -51q0 -27 -12.5 -51.5t-35.5 -39.5t-55 -15zM357 725q9 0 19 3t18 12t8 28q0 17 -10 27.5t-31 10.5t-32 -12t-11 -31q0 -20 13.5 -29t25.5 -9z" />
    <glyph glyph-name="Aringacute" unicode="&#x1fa;" horiz-adv-x="590" 
d="M502 125q7 -37 22.5 -51.5t49.5 -19.5l3 -5l-13 -52l-20 1t-47 1.5t-46 0.5q-39 0 -75.5 -2t-59.5 -4.5l-23 -2.5l-3 8l10 52q52 4 68 12.5t16 31.5q0 7 -1 15t-2 17l-12 89q-8 0 -26 0.5t-36.5 0.5h-28.5q-16 0 -35.5 -1.5t-36.5 -3t-26 -2.5l-37 -87q-11 -26 -11 -40
q0 -29 43 -29h47l2 -5l-13 -55l-21 1.5t-53 3t-64 1.5q-24 0 -50.5 -0.5t-44.5 -1.5l-18 -1l15 59q24 4 41 19t34 52l236 508l125 16l10 -4l3.5 -25t9.5 -67.5t14 -96.5t17 -113t18.5 -115.5t18.5 -104.5zM211 281h73q17 0 39.5 1.5t38.5 2.5l-33 238h-12zM345 673
q-32 0 -48.5 18.5t-16.5 48.5q0 40 26 67t66 27q37 0 52 -20t15 -45q0 -24 -11.5 -46.5t-32.5 -36t-50 -13.5zM357 716q10 0 25 7t15 32q0 16 -9.5 25.5t-26.5 9.5q-20 0 -30.5 -11t-10.5 -28q0 -19 13 -27t24 -8zM491 895l-29 -8t-74.5 -22t-95.5 -30l-11 6l-10 36
q35 15 69.5 32t62.5 31.5t45 23l17 8.5l10 -5l21 -61z" />
    <glyph glyph-name="Atilde" unicode="&#xc3;" horiz-adv-x="590" 
d="M502 125q7 -37 22.5 -51.5t49.5 -19.5l3 -5l-13 -52l-20 1t-47 1.5t-46 0.5q-39 0 -75.5 -2t-59.5 -4.5l-23 -2.5l-3 8l10 52q52 4 68 12.5t16 31.5q0 7 -1 15t-2 17l-12 89q-8 0 -26 0.5t-36.5 0.5h-28.5q-16 0 -35.5 -1.5t-36.5 -3t-26 -2.5l-37 -87q-11 -26 -11 -40
q0 -29 43 -29h47l2 -5l-13 -55l-21 1.5t-53 3t-64 1.5q-24 0 -50.5 -0.5t-44.5 -1.5l-18 -1l15 59q24 4 41 19t34 52l236 508l125 16l10 -4l3.5 -25t9.5 -67.5t14 -96.5t17 -113t18.5 -115.5t18.5 -104.5zM211 281h73q17 0 39.5 1.5t38.5 2.5l-33 238h-12zM217 691l-30 32
l1 9l86 90l16 4q16 0 44 -8t55 -16.5t40 -8.5q9 0 20.5 7.5t22.5 17t18.5 17l7.5 7.5h9l30 -32l-1 -8l-86 -91l-17 -4q-16 0 -43.5 8.5t-54 16.5t-40.5 8q-9 0 -20.5 -7.5t-22.5 -17t-18.5 -17l-7.5 -7.5h-9z" />
    <glyph glyph-name="AE" unicode="&#xc6;" horiz-adv-x="823" 
d="M281 52q45 4 67.5 21t23.5 48q0 8 0.5 17.5t0.5 17.5l-1 102l-88 -9l-85 -14l-63 -112q-10 -17 -13.5 -26t-3.5 -18q0 -14 11 -19t39 -5l37 -3l-13 -58l-15.5 1t-39.5 2t-50 2t-47 1q-14 0 -30 -1t-28 -1.5l-12 -0.5l2 51q6 2 26 22.5t42 56.5l261 436q-1 11 -6 15.5
t-16 4.5q-8 0 -19 -1l-11 -1l-5 8l15 54l18 -0.5t48.5 -1t68 -1t76.5 -0.5q56 0 103.5 1t86 2.5t67.5 4t47 4.5l5 -9l-7.5 -24.5t-17.5 -65t-19 -86.5l-77 -6l2 10t4.5 24t2.5 25q0 20 -9.5 30.5t-37 14t-80.5 3.5q-35 0 -46 -6.5t-11 -22.5l3 -197l101 11l94 18l7 -9
l-21 -73l-87 -5l-93 -10l4 -140q1 -36 16 -51.5t49 -15.5q43 0 70 4t43.5 15.5t26.5 35t21 62.5l71 6l6 -8l-8.5 -26t-19.5 -67t-21 -87l-9 -9q1 1 -19 1.5t-52.5 1.5t-74 2t-84 1.5t-82.5 0.5q-38 0 -72.5 -2t-56.5 -4.5l-22 -2.5l-2 8zM310 319l63 7l1 194h-13l-118 -205z
" />
    <glyph glyph-name="AEacute" unicode="&#x1fc;" horiz-adv-x="823" 
d="M281 52q45 4 67.5 21t23.5 48q0 8 0.5 17.5t0.5 17.5l-1 102l-88 -9l-85 -14l-63 -112q-10 -17 -13.5 -26t-3.5 -18q0 -14 11 -19t39 -5l37 -3l-13 -58l-15.5 1t-39.5 2t-50 2t-47 1q-14 0 -30 -1t-28 -1.5l-12 -0.5l2 51q6 2 26 22.5t42 56.5l261 436q-1 11 -6 15.5
t-16 4.5q-8 0 -19 -1l-11 -1l-5 8l15 54l18 -0.5t48.5 -1t68 -1t76.5 -0.5q56 0 103.5 1t86 2.5t67.5 4t47 4.5l5 -9l-7.5 -24.5t-17.5 -65t-19 -86.5l-77 -6l2 10t4.5 24t2.5 25q0 20 -9.5 30.5t-37 14t-80.5 3.5q-35 0 -46 -6.5t-11 -22.5l3 -197l101 11l94 18l7 -9
l-21 -73l-87 -5l-93 -10l4 -140q1 -36 16 -51.5t49 -15.5q43 0 70 4t43.5 15.5t26.5 35t21 62.5l71 6l6 -8l-8.5 -26t-19.5 -67t-21 -87l-9 -9q1 1 -19 1.5t-52.5 1.5t-74 2t-84 1.5t-82.5 0.5q-38 0 -72.5 -2t-56.5 -4.5l-22 -2.5l-2 8zM310 319l63 7l1 194h-13l-118 -205z
M623 843l-26.5 -18.5t-68.5 -48.5t-87 -66l-13 4l-27 33q30 29 58.5 59.5t52 55.5t37.5 40.5l14 15.5l12 -2l49 -60z" />
    <glyph glyph-name="B" unicode="B" horiz-adv-x="596" 
d="M145 0q-19 0 -42.5 -1.5t-43.5 -3.5t-33 -3.5l-13 -1.5l13 58q44 8 61 25t22 57l50 403q3 29 -2.5 40t-23.5 11q-9 0 -21 -1l-12 -1l-5 7l15 53l14.5 -0.5t35.5 -0.5t41.5 -0.5t33.5 -0.5t33 0.5t40.5 1.5t34 2l13.5 1q89 0 144 -35t55 -100q0 -55 -33 -98.5t-94 -73.5
q59 -17 91 -53t32 -84q0 -61 -32 -108.5t-89.5 -75t-133.5 -27.5q-13 0 -32.5 1.5t-40.5 3.5t-41.5 3.5t-36.5 1.5zM239 287l-25 -162q-4 -34 16.5 -48.5t73.5 -14.5q57 0 89.5 33.5t32.5 89.5q0 40 -23.5 67t-71.5 36zM249 362l11.5 -1t27.5 -3.5t30 -3.5t20 -1l14.5 6
t33.5 20.5t33.5 40t14.5 64.5q0 94 -132 94q-10 0 -14 -4t-7 -16q-5 -30 -11 -64t-11 -68t-10 -64z" />
    <glyph glyph-name="C" unicode="C" horiz-adv-x="595" 
d="M298 -12q-80 0 -138.5 32.5t-91 92t-32.5 142.5q0 89 26.5 161.5t76 125t117.5 81.5t151 29q30 0 63 -4t61.5 -8.5t46.5 -8l18 -3.5l4 -11l-8 -24t-19 -65t-21 -91l-80 -6l2.5 12t5 27.5t2.5 24.5q0 75 -110 75q-61 0 -107 -34.5t-70.5 -100t-24.5 -158.5q0 -100 39 -156
t111 -56q38 0 66.5 15t50 47t37.5 83l79 6l-4.5 -16.5t-11.5 -43t-14.5 -57.5t-12.5 -60l-9 -11l-26 -10t-71.5 -20t-105.5 -10z" />
    <glyph glyph-name="Cacute" unicode="&#x106;" horiz-adv-x="595" 
d="M298 -12q-80 0 -138.5 32.5t-91 92t-32.5 142.5q0 89 26.5 161.5t76 125t117.5 81.5t151 29q30 0 63 -4t61.5 -8.5t46.5 -8l18 -3.5l4 -11l-8 -24t-19 -65t-21 -91l-80 -6l2.5 12t5 27.5t2.5 24.5q0 75 -110 75q-61 0 -107 -34.5t-70.5 -100t-24.5 -158.5q0 -100 39 -156
t111 -56q38 0 66.5 15t50 47t37.5 83l79 6l-4.5 -16.5t-11.5 -43t-14.5 -57.5t-12.5 -60l-9 -11l-26 -10t-71.5 -20t-105.5 -10zM501 759l-19 -5.5t-50.5 -15t-71 -21.5t-81.5 -26l-11 7l-11 40q38 17 76.5 36t69.5 34.5t50 25.5l19 10l11 -6l23 -68z" />
    <glyph glyph-name="Ccaron" unicode="&#x10c;" horiz-adv-x="595" 
d="M298 -12q-80 0 -138.5 32.5t-91 92t-32.5 142.5q0 89 26.5 161.5t76 125t117.5 81.5t151 29q30 0 63 -4t61.5 -8.5t46.5 -8l18 -3.5l4 -11l-8 -24t-19 -65t-21 -91l-80 -6l2.5 12t5 27.5t2.5 24.5q0 75 -110 75q-61 0 -107 -34.5t-70.5 -100t-24.5 -158.5q0 -100 39 -156
t111 -56q38 0 66.5 15t50 47t37.5 83l79 6l-4.5 -16.5t-11.5 -43t-14.5 -57.5t-12.5 -60l-9 -11l-26 -10t-71.5 -20t-105.5 -10zM538 819q-9 -6 -28 -20t-42 -31t-44 -33t-34.5 -26l-13.5 -10h-18l-11 10t-28 26t-35.5 33t-34 31t-22.5 20l24 35l15 3q5 -3 22 -12
t36.5 -19.5t35.5 -19.5t19 -10q3 1 15.5 7t29.5 14.5t34.5 16.5t31 14.5t17.5 8.5l13 -3z" />
    <glyph glyph-name="Ccedilla" unicode="&#xc7;" horiz-adv-x="595" 
d="M298 -12q-80 0 -138.5 32.5t-91 92t-32.5 142.5q0 89 26.5 161.5t76 125t117.5 81.5t151 29q30 0 63 -4t61.5 -8.5t46.5 -8l18 -3.5l4 -11l-8 -24t-19 -65t-21 -91l-80 -6l2.5 12t5 27.5t2.5 24.5q0 75 -110 75q-61 0 -107 -34.5t-70.5 -100t-24.5 -158.5q0 -100 39 -156
t111 -56q38 0 66.5 15t50 47t37.5 83l79 6l-4.5 -16.5t-11.5 -43t-14.5 -57.5t-12.5 -60l-9 -11l-26 -10t-71.5 -20t-105.5 -10zM294 27h49l-30 -73q16 -10 34.5 -24t32 -30.5t13.5 -35.5q0 -27 -21 -50t-53 -36.5t-65 -13.5q-23 0 -46 10.5t-23 28.5q0 8 7 19t17 23.5
t18 20.5h8q-2 -28 10.5 -42t33.5 -14q18 0 31 10t13 25q0 16 -24 35t-50 34z" />
    <glyph glyph-name="uni1E08" unicode="&#x1e08;" horiz-adv-x="595" 
d="M298 -12q-80 0 -138.5 32.5t-91 92t-32.5 142.5q0 89 26.5 161.5t76 125t117.5 81.5t151 29q30 0 63 -4t61.5 -8.5t46.5 -8l18 -3.5l4 -11l-8 -24t-19 -65t-21 -91l-80 -6l2.5 12t5 27.5t2.5 24.5q0 75 -110 75q-61 0 -107 -34.5t-70.5 -100t-24.5 -158.5q0 -100 39 -156
t111 -56q38 0 66.5 15t50 47t37.5 83l79 6l-4.5 -16.5t-11.5 -43t-14.5 -57.5t-12.5 -60l-9 -11l-26 -10t-71.5 -20t-105.5 -10zM294 27h49l-30 -73q16 -10 34.5 -24t32 -30.5t13.5 -35.5q0 -27 -21 -50t-53 -36.5t-65 -13.5q-23 0 -46 10.5t-23 28.5q0 8 7 19t17 23.5
t18 20.5h8q-2 -28 10.5 -42t33.5 -14q18 0 31 10t13 25q0 16 -24 35t-50 34zM501 759l-19 -5.5t-50.5 -15t-71 -21.5t-81.5 -26l-11 7l-11 40q38 17 76.5 36t69.5 34.5t50 25.5l19 10l11 -6l23 -68z" />
    <glyph glyph-name="Ccircumflex" unicode="&#x108;" horiz-adv-x="595" 
d="M298 -12q-80 0 -138.5 32.5t-91 92t-32.5 142.5q0 89 26.5 161.5t76 125t117.5 81.5t151 29q30 0 63 -4t61.5 -8.5t46.5 -8l18 -3.5l4 -11l-8 -24t-19 -65t-21 -91l-80 -6l2.5 12t5 27.5t2.5 24.5q0 75 -110 75q-61 0 -107 -34.5t-70.5 -100t-24.5 -158.5q0 -100 39 -156
t111 -56q38 0 66.5 15t50 47t37.5 83l79 6l-4.5 -16.5t-11.5 -43t-14.5 -57.5t-12.5 -60l-9 -11l-26 -10t-71.5 -20t-105.5 -10zM232 735q9 7 28 24.5t41.5 39.5t43.5 42.5t35 34l14 13.5h18l10.5 -13.5t26.5 -34t34 -42.5t32.5 -39.5t21.5 -24.5l-29 -35l-14 -3
q-3 3 -14 12t-25 21.5t-28 24t-24 20.5t-12 10q-3 -1 -15 -10t-28.5 -20.5t-34 -24t-30.5 -21.5t-17 -12l-13 3z" />
    <glyph glyph-name="Cdotaccent" unicode="&#x10a;" horiz-adv-x="595" 
d="M298 -12q-80 0 -138.5 32.5t-91 92t-32.5 142.5q0 89 26.5 161.5t76 125t117.5 81.5t151 29q30 0 63 -4t61.5 -8.5t46.5 -8l18 -3.5l4 -11l-8 -24t-19 -65t-21 -91l-80 -6l2.5 12t5 27.5t2.5 24.5q0 75 -110 75q-61 0 -107 -34.5t-70.5 -100t-24.5 -158.5q0 -100 39 -156
t111 -56q38 0 66.5 15t50 47t37.5 83l79 6l-4.5 -16.5t-11.5 -43t-14.5 -57.5t-12.5 -60l-9 -11l-26 -10t-71.5 -20t-105.5 -10zM370 707q-27 0 -41.5 16.5t-14.5 40.5q0 35 23 58.5t59 23.5q27 0 41 -16.5t14 -39.5q0 -35 -23 -59t-58 -24z" />
    <glyph glyph-name="D" unicode="D" horiz-adv-x="670" 
d="M284 -12l-15.5 2t-39.5 4t-49 4t-45 2q-25 0 -53 -2.5t-48 -5.5l-20 -3l14 60q43 8 59.5 25t22.5 60l48 395q4 32 -1 43t-23 11q-10 0 -21.5 -1l-11.5 -1l-4 8l14 54l12.5 -0.5t31.5 -1t38.5 -1t33.5 -0.5q17 0 40.5 0.5t47 1.5t39 1.5l15.5 0.5q87 0 152 -31.5
t100.5 -89.5t35.5 -139q0 -83 -28 -155t-79 -126.5t-119 -84.5t-147 -30zM313 573q-16 0 -23 -4.5t-9 -18.5q-8 -50 -16 -98.5t-15.5 -94.5t-13.5 -86t-10.5 -71.5t-7 -52.5t-2.5 -28q0 -35 18.5 -47t66.5 -12q69 0 119 38.5t77 108t27 163.5q0 100 -53 151.5t-158 51.5z
" />
    <glyph glyph-name="uni01C4" unicode="&#x1c4;" horiz-adv-x="1225" 
d="M284 -12l-15.5 2t-39.5 4t-49 4t-45 2q-25 0 -53 -2.5t-48 -5.5l-20 -3l14 60q43 8 59.5 25t22.5 60l48 395q4 32 -1 43t-23 11q-10 0 -21.5 -1l-11.5 -1l-4 8l14 54l12.5 -0.5t31.5 -1t38.5 -1t33.5 -0.5q17 0 40.5 0.5t47 1.5t39 1.5l15.5 0.5q87 0 152 -31.5
t100.5 -89.5t35.5 -139q0 -83 -28 -155t-79 -126.5t-119 -84.5t-147 -30zM313 573q-16 0 -23 -4.5t-9 -18.5q-8 -50 -16 -98.5t-15.5 -94.5t-13.5 -86t-10.5 -71.5t-7 -52.5t-2.5 -28q0 -35 18.5 -47t66.5 -12q69 0 119 38.5t77 108t27 163.5q0 100 -53 151.5t-158 51.5z
M1126 -3l-368 6l-73 -7l-15 39l411 541l-138 -8q-42 -2 -67.5 -14t-39.5 -38.5t-25 -75.5l-71 -5l4.5 19t11.5 50t14 67.5t12 70.5l11 10l170 -11l270 -5l11 -36q-73 -88 -139.5 -172t-122.5 -157t-96.5 -127t-60.5 -82l163 10q49 3 81.5 39t54.5 117l71 7l-6 -20.5
t-14 -53.5t-16.5 -71t-14.5 -75zM1190 819q-9 -6 -28 -20t-42 -31t-44 -33t-34.5 -26l-13.5 -10h-18l-11 10t-28 26t-35.5 33t-34 31t-22.5 20l24 35l15 3q5 -3 22 -12t36.5 -19.5t35.5 -19.5t19 -10q3 1 15.5 7t29.5 14.5t34.5 16.5t31 14.5t17.5 8.5l13 -3z" />
    <glyph glyph-name="Eth" unicode="&#xd0;" horiz-adv-x="683" 
d="M168 292h-144l-7 7l15 51h143zM245 350l148 1l5 -8l-12 -51h-150zM297 -12l-15.5 2t-39 4t-49 4t-44.5 2q-25 0 -53.5 -2.5t-48.5 -5.5l-20 -3l14 60q43 8 59.5 25t22.5 60l48 395q4 32 -0.5 43t-23.5 11q-9 0 -21 -1l-12 -1l-3 8l13 54l12.5 -0.5t31.5 -1t38.5 -1
t33.5 -0.5q17 0 40.5 0.5t47 1.5t39 1.5l15.5 0.5q87 0 152 -31.5t100.5 -89.5t35.5 -139q0 -83 -28 -155t-79 -126.5t-119 -84.5t-147 -30zM326 573q-16 0 -23 -4.5t-9 -18.5q-8 -50 -16 -98.5t-15 -94.5t-13 -86t-11 -71.5t-7.5 -52.5t-2.5 -28q0 -35 19 -47t66 -12
q69 0 119 38.5t77 108t27 163.5q0 100 -53 151.5t-158 51.5z" />
    <glyph glyph-name="Dcaron" unicode="&#x10e;" horiz-adv-x="670" 
d="M284 -12l-15.5 2t-39.5 4t-49 4t-45 2q-25 0 -53 -2.5t-48 -5.5l-20 -3l14 60q43 8 59.5 25t22.5 60l48 395q4 32 -1 43t-23 11q-10 0 -21.5 -1l-11.5 -1l-4 8l14 54l12.5 -0.5t31.5 -1t38.5 -1t33.5 -0.5q17 0 40.5 0.5t47 1.5t39 1.5l15.5 0.5q87 0 152 -31.5
t100.5 -89.5t35.5 -139q0 -83 -28 -155t-79 -126.5t-119 -84.5t-147 -30zM313 573q-16 0 -23 -4.5t-9 -18.5q-8 -50 -16 -98.5t-15.5 -94.5t-13.5 -86t-10.5 -71.5t-7 -52.5t-2.5 -28q0 -35 18.5 -47t66.5 -12q69 0 119 38.5t77 108t27 163.5q0 100 -53 151.5t-158 51.5z
M547 819q-9 -6 -28 -20t-42 -31t-44 -33t-34.5 -26l-13.5 -10h-18l-11 10t-28 26t-35.5 33t-34 31t-22.5 20l24 35l15 3q5 -3 22 -12t36.5 -19.5t35.5 -19.5t19 -10q3 1 15.5 7t29.5 14.5t34.5 16.5t31 14.5t17.5 8.5l13 -3z" />
    <glyph glyph-name="Dcroat" unicode="&#x110;" horiz-adv-x="683" 
d="M168 292h-144l-7 7l15 51h143zM245 350l148 1l5 -8l-12 -51h-150zM297 -12l-15.5 2t-39 4t-49 4t-44.5 2q-25 0 -53.5 -2.5t-48.5 -5.5l-20 -3l14 60q43 8 59.5 25t22.5 60l48 395q4 32 -0.5 43t-23.5 11q-9 0 -21 -1l-12 -1l-3 8l13 54l12.5 -0.5t31.5 -1t38.5 -1
t33.5 -0.5q17 0 40.5 0.5t47 1.5t39 1.5l15.5 0.5q87 0 152 -31.5t100.5 -89.5t35.5 -139q0 -83 -28 -155t-79 -126.5t-119 -84.5t-147 -30zM326 573q-16 0 -23 -4.5t-9 -18.5q-8 -50 -16 -98.5t-15 -94.5t-13 -86t-11 -71.5t-7.5 -52.5t-2.5 -28q0 -35 19 -47t66 -12
q69 0 119 38.5t77 108t27 163.5q0 100 -53 151.5t-158 51.5z" />
    <glyph glyph-name="uni1E0C" unicode="&#x1e0c;" horiz-adv-x="670" 
d="M284 -12l-15.5 2t-39.5 4t-49 4t-45 2q-25 0 -53 -2.5t-48 -5.5l-20 -3l14 60q43 8 59.5 25t22.5 60l48 395q4 32 -1 43t-23 11q-10 0 -21.5 -1l-11.5 -1l-4 8l14 54l12.5 -0.5t31.5 -1t38.5 -1t33.5 -0.5q17 0 40.5 0.5t47 1.5t39 1.5l15.5 0.5q87 0 152 -31.5
t100.5 -89.5t35.5 -139q0 -83 -28 -155t-79 -126.5t-119 -84.5t-147 -30zM313 573q-16 0 -23 -4.5t-9 -18.5q-8 -50 -16 -98.5t-15.5 -94.5t-13.5 -86t-10.5 -71.5t-7 -52.5t-2.5 -28q0 -35 18.5 -47t66.5 -12q69 0 119 38.5t77 108t27 163.5q0 100 -53 151.5t-158 51.5z
M271 -205q-30 0 -44.5 17.5t-14.5 42.5q0 36 23 60.5t61 24.5q29 0 44.5 -17t15.5 -43q0 -36 -23 -60.5t-62 -24.5z" />
    <glyph glyph-name="uni1E0E" unicode="&#x1e0e;" horiz-adv-x="670" 
d="M284 -12l-15.5 2t-39.5 4t-49 4t-45 2q-25 0 -53 -2.5t-48 -5.5l-20 -3l14 60q43 8 59.5 25t22.5 60l48 395q4 32 -1 43t-23 11q-10 0 -21.5 -1l-11.5 -1l-4 8l14 54l12.5 -0.5t31.5 -1t38.5 -1t33.5 -0.5q17 0 40.5 0.5t47 1.5t39 1.5l15.5 0.5q87 0 152 -31.5
t100.5 -89.5t35.5 -139q0 -83 -28 -155t-79 -126.5t-119 -84.5t-147 -30zM313 573q-16 0 -23 -4.5t-9 -18.5q-8 -50 -16 -98.5t-15.5 -94.5t-13.5 -86t-10.5 -71.5t-7 -52.5t-2.5 -28q0 -35 18.5 -47t66.5 -12q69 0 119 38.5t77 108t27 163.5q0 100 -53 151.5t-158 51.5z
M434 -104l-19 -67l-136 -1h-60t-53.5 -0.5l-21.5 -0.5l-8 11l20 66h25.5t60.5 -0.5t63 -0.5q24 0 53 1.5t49.5 3l20.5 1.5z" />
    <glyph glyph-name="uni01C5" unicode="&#x1c5;" horiz-adv-x="1086" 
d="M284 -12l-15.5 2t-39.5 4t-49 4t-45 2q-25 0 -53 -2.5t-48 -5.5l-20 -3l14 60q43 8 59.5 25t22.5 60l48 395q4 32 -1 43t-23 11q-10 0 -21.5 -1l-11.5 -1l-4 8l14 54l12.5 -0.5t31.5 -1t38.5 -1t33.5 -0.5q17 0 40.5 0.5t47 1.5t39 1.5l15.5 0.5q87 0 152 -31.5
t100.5 -89.5t35.5 -139q0 -83 -28 -155t-79 -126.5t-119 -84.5t-147 -30zM313 573q-16 0 -23 -4.5t-9 -18.5q-8 -50 -16 -98.5t-15.5 -94.5t-13.5 -86t-10.5 -71.5t-7 -52.5t-2.5 -28q0 -35 18.5 -47t66.5 -12q69 0 119 38.5t77 108t27 163.5q0 100 -53 151.5t-158 51.5z
M716 295l4.5 15t10.5 40t12 53.5t11 56.5l23 11l16.5 -3t42.5 -6.5t54.5 -7.5t53.5 -7t38 -3q15 0 23 3.5t16 12.5l20 23l51 -26l5 -19q-53 -58 -106.5 -119.5t-100.5 -117t-82 -97.5l27 5q27 0 62.5 -8.5t64.5 -8.5q26 0 45 19t25 53l22 -1q6 -14 8.5 -29t2.5 -29
q0 -33 -14 -59.5t-37.5 -42t-51.5 -15.5q-30 0 -59 11.5t-58 22.5t-64 11q-23 0 -49 -8.5t-52 -24.5l-17 26l279 340l-82 1q-41 0 -61 -14t-32 -52zM800 717l14 3q30 -29 59 -52.5t47 -38.5q21 15 56.5 39t72.5 52l12 -3l21 -36q-29 -27 -58.5 -54.5t-54 -51.5t-39.5 -38.5
l-15 -14.5h-17l-11.5 14.5t-30 38.5t-41 51.5t-45.5 54.5z" />
    <glyph glyph-name="E" unicode="E" horiz-adv-x="573" 
d="M212 103q0 -25 13 -31.5t49 -6.5q49 0 79 4t47.5 15.5t28.5 35t21 63.5l70 6l4 -8l-8 -26t-19 -66.5t-22 -86.5l-8 -9l-20 0.5t-52.5 2t-72 2.5t-79 1.5t-73.5 0.5q-40 0 -76 -2.5t-58.5 -5l-22.5 -2.5l14 59q42 6 59 24t22 61l50 396q4 32 -1 43t-25 11q-8 0 -19.5 -1
l-11.5 -1l-4 7l14 54l15.5 -0.5t40.5 -1t53.5 -1t53.5 -0.5q72 0 126.5 1t95.5 4t71 7l5 -9l-7.5 -24.5t-17.5 -64.5t-18 -86l-75 -6l2 10t4 24t2 26q0 21 -10 31t-36.5 13.5t-77.5 3.5q-25 0 -37 -2t-16.5 -9.5t-6.5 -24.5l-28 -171q16 0 44 -0.5t49 -0.5q12 0 31 1.5
t38 3.5t32 3.5l13 1.5l6 -7l-23 -76l-21.5 1t-51.5 1.5t-56 0.5q-21 0 -41 -2t-32 -4q-10 -65 -18 -112.5t-8 -70.5z" />
    <glyph glyph-name="Eacute" unicode="&#xc9;" horiz-adv-x="574" 
d="M212 103q0 -25 13 -31.5t49 -6.5q49 0 79 4t47.5 15.5t28.5 35t21 63.5l70 6l4 -8l-8 -26t-19 -66.5t-22 -86.5l-8 -9l-20 0.5t-52.5 2t-72 2.5t-79 1.5t-73.5 0.5q-40 0 -76 -2.5t-58.5 -5l-22.5 -2.5l14 59q42 6 59 24t22 61l50 396q4 32 -1 43t-25 11q-8 0 -19.5 -1
l-11.5 -1l-4 7l14 54l15.5 -0.5t40.5 -1t53.5 -1t53.5 -0.5q72 0 126.5 1t95.5 4t71 7l5 -9l-7.5 -24.5t-17.5 -64.5t-18 -86l-75 -6l2 10t4 24t2 26q0 21 -10 31t-36.5 13.5t-77.5 3.5q-25 0 -37 -2t-16.5 -9.5t-6.5 -24.5l-28 -171q16 0 44 -0.5t49 -0.5q12 0 31 1.5
t38 3.5t32 3.5l13 1.5l6 -7l-23 -76l-21.5 1t-51.5 1.5t-56 0.5q-21 0 -41 -2t-32 -4q-10 -65 -18 -112.5t-8 -70.5zM482 759l-19 -5.5t-50.5 -15t-71 -21.5t-81.5 -26l-11 7l-11 40q38 17 76.5 36t69.5 34.5t50 25.5l19 10l11 -6l23 -68z" />
    <glyph glyph-name="Ebreve" unicode="&#x114;" horiz-adv-x="573" 
d="M212 103q0 -25 13 -31.5t49 -6.5q49 0 79 4t47.5 15.5t28.5 35t21 63.5l70 6l4 -8l-8 -26t-19 -66.5t-22 -86.5l-8 -9l-20 0.5t-52.5 2t-72 2.5t-79 1.5t-73.5 0.5q-40 0 -76 -2.5t-58.5 -5l-22.5 -2.5l14 59q42 6 59 24t22 61l50 396q4 32 -1 43t-25 11q-8 0 -19.5 -1
l-11.5 -1l-4 7l14 54l15.5 -0.5t40.5 -1t53.5 -1t53.5 -0.5q72 0 126.5 1t95.5 4t71 7l5 -9l-7.5 -24.5t-17.5 -64.5t-18 -86l-75 -6l2 10t4 24t2 26q0 21 -10 31t-36.5 13.5t-77.5 3.5q-25 0 -37 -2t-16.5 -9.5t-6.5 -24.5l-28 -171q16 0 44 -0.5t49 -0.5q12 0 31 1.5
t38 3.5t32 3.5l13 1.5l6 -7l-23 -76l-21.5 1t-51.5 1.5t-56 0.5q-21 0 -41 -2t-32 -4q-10 -65 -18 -112.5t-8 -70.5zM360 789q32 0 60 17t45 50l15 -2l20 -27q-11 -30 -31.5 -58t-50 -45.5t-68.5 -17.5t-64.5 17.5t-39 45.5t-17.5 58l26 27l15 2q9 -33 33 -50t57 -17z" />
    <glyph glyph-name="Ecaron" unicode="&#x11a;" horiz-adv-x="573" 
d="M212 103q0 -25 13 -31.5t49 -6.5q49 0 79 4t47.5 15.5t28.5 35t21 63.5l70 6l4 -8l-8 -26t-19 -66.5t-22 -86.5l-8 -9l-20 0.5t-52.5 2t-72 2.5t-79 1.5t-73.5 0.5q-40 0 -76 -2.5t-58.5 -5l-22.5 -2.5l14 59q42 6 59 24t22 61l50 396q4 32 -1 43t-25 11q-8 0 -19.5 -1
l-11.5 -1l-4 7l14 54l15.5 -0.5t40.5 -1t53.5 -1t53.5 -0.5q72 0 126.5 1t95.5 4t71 7l5 -9l-7.5 -24.5t-17.5 -64.5t-18 -86l-75 -6l2 10t4 24t2 26q0 21 -10 31t-36.5 13.5t-77.5 3.5q-25 0 -37 -2t-16.5 -9.5t-6.5 -24.5l-28 -171q16 0 44 -0.5t49 -0.5q12 0 31 1.5
t38 3.5t32 3.5l13 1.5l6 -7l-23 -76l-21.5 1t-51.5 1.5t-56 0.5q-21 0 -41 -2t-32 -4q-10 -65 -18 -112.5t-8 -70.5zM519 819q-9 -6 -28 -20t-42 -31t-44 -33t-34.5 -26l-13.5 -10h-18l-11 10t-28 26t-35.5 33t-34 31t-22.5 20l24 35l15 3q5 -3 22 -12t36.5 -19.5
t35.5 -19.5t19 -10q3 1 15.5 7t29.5 14.5t34.5 16.5t31 14.5t17.5 8.5l13 -3z" />
    <glyph glyph-name="uni1E1C" unicode="&#x1e1c;" horiz-adv-x="573" 
d="M212 103q0 -25 13 -31.5t49 -6.5q49 0 79 4t47.5 15.5t28.5 35t21 63.5l70 6l4 -8l-8 -26t-19 -66.5t-22 -86.5l-8 -9l-20 0.5t-52.5 2t-72 2.5t-79 1.5t-73.5 0.5q-40 0 -76 -2.5t-58.5 -5l-22.5 -2.5l14 59q42 6 59 24t22 61l50 396q4 32 -1 43t-25 11q-8 0 -19.5 -1
l-11.5 -1l-4 7l14 54l15.5 -0.5t40.5 -1t53.5 -1t53.5 -0.5q72 0 126.5 1t95.5 4t71 7l5 -9l-7.5 -24.5t-17.5 -64.5t-18 -86l-75 -6l2 10t4 24t2 26q0 21 -10 31t-36.5 13.5t-77.5 3.5q-25 0 -37 -2t-16.5 -9.5t-6.5 -24.5l-28 -171q16 0 44 -0.5t49 -0.5q12 0 31 1.5
t38 3.5t32 3.5l13 1.5l6 -7l-23 -76l-21.5 1t-51.5 1.5t-56 0.5q-21 0 -41 -2t-32 -4q-10 -65 -18 -112.5t-8 -70.5zM246 27h49l-30 -73q16 -10 34.5 -24t32 -30.5t13.5 -35.5q0 -27 -21 -50t-53 -36.5t-65 -13.5q-23 0 -46 10.5t-23 28.5q0 8 7 19t17 23.5t18 20.5h8
q-2 -28 10.5 -42t33.5 -14q18 0 31 10t13 25q0 16 -24 35t-50 34zM360 785q32 0 60.5 14t44.5 42l14 -2l20 -27q-11 -27 -31.5 -52.5t-49.5 -41.5t-68 -16t-64.5 16t-39.5 41.5t-19 52.5l28 27l14 2q10 -28 34.5 -42t56.5 -14z" />
    <glyph glyph-name="Ecircumflex" unicode="&#xca;" horiz-adv-x="574" 
d="M212 103q0 -25 13 -31.5t49 -6.5q49 0 79 4t47.5 15.5t28.5 35t21 63.5l70 6l4 -8l-8 -26t-19 -66.5t-22 -86.5l-8 -9l-20 0.5t-52.5 2t-72 2.5t-79 1.5t-73.5 0.5q-40 0 -76 -2.5t-58.5 -5l-22.5 -2.5l14 59q42 6 59 24t22 61l50 396q4 32 -1 43t-25 11q-8 0 -19.5 -1
l-11.5 -1l-4 7l14 54l15.5 -0.5t40.5 -1t53.5 -1t53.5 -0.5q72 0 126.5 1t95.5 4t71 7l5 -9l-7.5 -24.5t-17.5 -64.5t-18 -86l-75 -6l2 10t4 24t2 26q0 21 -10 31t-36.5 13.5t-77.5 3.5q-25 0 -37 -2t-16.5 -9.5t-6.5 -24.5l-28 -171q16 0 44 -0.5t49 -0.5q12 0 31 1.5
t38 3.5t32 3.5l13 1.5l6 -7l-23 -76l-21.5 1t-51.5 1.5t-56 0.5q-21 0 -41 -2t-32 -4q-10 -65 -18 -112.5t-8 -70.5zM210 746q8 6 27 20t41.5 31t43.5 33t35 26l14 10h18q0 1 11 -9t28.5 -26t36 -33.5t33.5 -31t23 -20.5l-26 -35l-14 -3q-5 3 -21.5 12t-36.5 19.5t-36 19.5
t-20 10q-3 -1 -15 -7t-29 -14t-34.5 -16.5t-31 -15t-18.5 -8.5l-13 3z" />
    <glyph glyph-name="uni1EBE" unicode="&#x1ebe;" horiz-adv-x="573" 
d="M212 103q0 -25 13 -31.5t49 -6.5q49 0 79 4t47.5 15.5t28.5 35t21 63.5l70 6l4 -8l-8 -26t-19 -66.5t-22 -86.5l-8 -9l-20 0.5t-52.5 2t-72 2.5t-79 1.5t-73.5 0.5q-40 0 -76 -2.5t-58.5 -5l-22.5 -2.5l14 59q42 6 59 24t22 61l50 396q4 32 -1 43t-25 11q-8 0 -19.5 -1
l-11.5 -1l-4 7l14 54l15.5 -0.5t40.5 -1t53.5 -1t53.5 -0.5q72 0 126.5 1t95.5 4t71 7l5 -9l-7.5 -24.5t-17.5 -64.5t-18 -86l-75 -6l2 10t4 24t2 26q0 21 -10 31t-36.5 13.5t-77.5 3.5q-25 0 -37 -2t-16.5 -9.5t-6.5 -24.5l-28 -171q16 0 44 -0.5t49 -0.5q12 0 31 1.5
t38 3.5t32 3.5l13 1.5l6 -7l-23 -76l-21.5 1t-51.5 1.5t-56 0.5q-21 0 -41 -2t-32 -4q-10 -65 -18 -112.5t-8 -70.5zM598 936l-97 -116l-14 -1l-33 23l80 141l11 2l53 -36v-13zM222 745q27 19 54.5 39.5t50.5 38t36.5 28l13.5 10.5h18l19 -18t48.5 -45t59.5 -53l-24 -33
l-13 -3q-30 18 -61 34t-49 25q-22 -9 -55.5 -25t-69.5 -34l-12 3z" />
    <glyph glyph-name="uni1EC6" unicode="&#x1ec6;" horiz-adv-x="573" 
d="M212 103q0 -25 13 -31.5t49 -6.5q49 0 79 4t47.5 15.5t28.5 35t21 63.5l70 6l4 -8l-8 -26t-19 -66.5t-22 -86.5l-8 -9l-20 0.5t-52.5 2t-72 2.5t-79 1.5t-73.5 0.5q-40 0 -76 -2.5t-58.5 -5l-22.5 -2.5l14 59q42 6 59 24t22 61l50 396q4 32 -1 43t-25 11q-8 0 -19.5 -1
l-11.5 -1l-4 7l14 54l15.5 -0.5t40.5 -1t53.5 -1t53.5 -0.5q72 0 126.5 1t95.5 4t71 7l5 -9l-7.5 -24.5t-17.5 -64.5t-18 -86l-75 -6l2 10t4 24t2 26q0 21 -10 31t-36.5 13.5t-77.5 3.5q-25 0 -37 -2t-16.5 -9.5t-6.5 -24.5l-28 -171q16 0 44 -0.5t49 -0.5q12 0 31 1.5
t38 3.5t32 3.5l13 1.5l6 -7l-23 -76l-21.5 1t-51.5 1.5t-56 0.5q-21 0 -41 -2t-32 -4q-10 -65 -18 -112.5t-8 -70.5zM210 746q8 6 27 20t41.5 31t43.5 33t35 26l14 10h18q0 1 11 -9t28.5 -26t36 -33.5t33.5 -31t23 -20.5l-26 -35l-14 -3q-5 3 -21.5 12t-36.5 19.5t-36 19.5
t-20 10q-3 -1 -15 -7t-29 -14t-34.5 -16.5t-31 -15t-18.5 -8.5l-13 3zM230 -205q-30 0 -44.5 17.5t-14.5 42.5q0 36 23 60.5t61 24.5q29 0 44.5 -17t15.5 -43q0 -36 -23 -60.5t-62 -24.5z" />
    <glyph glyph-name="uni1EC0" unicode="&#x1ec0;" horiz-adv-x="573" 
d="M212 103q0 -25 13 -31.5t49 -6.5q49 0 79 4t47.5 15.5t28.5 35t21 63.5l70 6l4 -8l-8 -26t-19 -66.5t-22 -86.5l-8 -9l-20 0.5t-52.5 2t-72 2.5t-79 1.5t-73.5 0.5q-40 0 -76 -2.5t-58.5 -5l-22.5 -2.5l14 59q42 6 59 24t22 61l50 396q4 32 -1 43t-25 11q-8 0 -19.5 -1
l-11.5 -1l-4 7l14 54l15.5 -0.5t40.5 -1t53.5 -1t53.5 -0.5q72 0 126.5 1t95.5 4t71 7l5 -9l-7.5 -24.5t-17.5 -64.5t-18 -86l-75 -6l2 10t4 24t2 26q0 21 -10 31t-36.5 13.5t-77.5 3.5q-25 0 -37 -2t-16.5 -9.5t-6.5 -24.5l-28 -171q16 0 44 -0.5t49 -0.5q12 0 31 1.5
t38 3.5t32 3.5l13 1.5l6 -7l-23 -76l-21.5 1t-51.5 1.5t-56 0.5q-21 0 -41 -2t-32 -4q-10 -65 -18 -112.5t-8 -70.5zM418 954l61 29l11 -3l45 -141l-39 -18l-13 1l-69 119zM216 745q27 19 54.5 39.5t50 38t36.5 28l14 10.5h18l19 -18t48.5 -45t59.5 -53l-24 -33l-14 -3
q-30 18 -60.5 34t-48.5 25q-22 -9 -55.5 -25t-69.5 -34l-13 3z" />
    <glyph glyph-name="uni1EC2" unicode="&#x1ec2;" horiz-adv-x="573" 
d="M212 103q0 -25 13 -31.5t49 -6.5q49 0 79 4t47.5 15.5t28.5 35t21 63.5l70 6l4 -8l-8 -26t-19 -66.5t-22 -86.5l-8 -9l-20 0.5t-52.5 2t-72 2.5t-79 1.5t-73.5 0.5q-40 0 -76 -2.5t-58.5 -5l-22.5 -2.5l14 59q42 6 59 24t22 61l50 396q4 32 -1 43t-25 11q-8 0 -19.5 -1
l-11.5 -1l-4 7l14 54l15.5 -0.5t40.5 -1t53.5 -1t53.5 -0.5q72 0 126.5 1t95.5 4t71 7l5 -9l-7.5 -24.5t-17.5 -64.5t-18 -86l-75 -6l2 10t4 24t2 26q0 21 -10 31t-36.5 13.5t-77.5 3.5q-25 0 -37 -2t-16.5 -9.5t-6.5 -24.5l-28 -171q16 0 44 -0.5t49 -0.5q12 0 31 1.5
t38 3.5t32 3.5l13 1.5l6 -7l-23 -76l-21.5 1t-51.5 1.5t-56 0.5q-21 0 -41 -2t-32 -4q-10 -65 -18 -112.5t-8 -70.5zM407 963l13 11t32.5 24t38.5 20q40 0 62 -15.5t23 -44.5q0 -19 -15 -40.5t-49 -46.5l18 -36l-46 -24l-31 61q30 21 42.5 35.5t11.5 29.5q0 23 -30 23
q-14 0 -27 -5t-21.5 -10l-8.5 -5zM209 745q27 19 54.5 39.5t50.5 38t36.5 28l13.5 10.5h18l19 -18t48.5 -45t59.5 -53l-24 -33l-13 -3q-30 18 -61 34t-49 25q-22 -9 -55.5 -25t-69.5 -34l-12 3z" />
    <glyph glyph-name="uni1EC4" unicode="&#x1ec4;" horiz-adv-x="573" 
d="M212 103q0 -25 13 -31.5t49 -6.5q49 0 79 4t47.5 15.5t28.5 35t21 63.5l70 6l4 -8l-8 -26t-19 -66.5t-22 -86.5l-8 -9l-20 0.5t-52.5 2t-72 2.5t-79 1.5t-73.5 0.5q-40 0 -76 -2.5t-58.5 -5l-22.5 -2.5l14 59q42 6 59 24t22 61l50 396q4 32 -1 43t-25 11q-8 0 -19.5 -1
l-11.5 -1l-4 7l14 54l15.5 -0.5t40.5 -1t53.5 -1t53.5 -0.5q72 0 126.5 1t95.5 4t71 7l5 -9l-7.5 -24.5t-17.5 -64.5t-18 -86l-75 -6l2 10t4 24t2 26q0 21 -10 31t-36.5 13.5t-77.5 3.5q-25 0 -37 -2t-16.5 -9.5t-6.5 -24.5l-28 -171q16 0 44 -0.5t49 -0.5q12 0 31 1.5
t38 3.5t32 3.5l13 1.5l6 -7l-23 -76l-21.5 1t-51.5 1.5t-56 0.5q-21 0 -41 -2t-32 -4q-10 -65 -18 -112.5t-8 -70.5zM253 865l-27 29l2 7l75 80l15 4q14 0 38.5 -7.5t48.5 -15t36 -7.5q8 0 18 6.5t20 15t16 15.5l6 7h9l27 -29l-1 -7l-76 -80l-15 -4q-14 0 -38.5 8t-48 15
t-36.5 7q-10 0 -24.5 -10.5t-25 -22l-10.5 -11.5h-9zM209 745q27 19 54.5 39.5t50.5 38t36.5 28l13.5 10.5h18l19 -18t48.5 -45t59.5 -53l-24 -33l-13 -3q-30 18 -61 34t-49 25q-22 -9 -55.5 -25t-69.5 -34l-12 3z" />
    <glyph glyph-name="uni0204" unicode="&#x204;" horiz-adv-x="573" 
d="M212 103q0 -25 13 -31.5t49 -6.5q49 0 79 4t47.5 15.5t28.5 35t21 63.5l70 6l4 -8l-8 -26t-19 -66.5t-22 -86.5l-8 -9l-20 0.5t-52.5 2t-72 2.5t-79 1.5t-73.5 0.5q-40 0 -76 -2.5t-58.5 -5l-22.5 -2.5l14 59q42 6 59 24t22 61l50 396q4 32 -1 43t-25 11q-8 0 -19.5 -1
l-11.5 -1l-4 7l14 54l15.5 -0.5t40.5 -1t53.5 -1t53.5 -0.5q72 0 126.5 1t95.5 4t71 7l5 -9l-7.5 -24.5t-17.5 -64.5t-18 -86l-75 -6l2 10t4 24t2 26q0 21 -10 31t-36.5 13.5t-77.5 3.5q-25 0 -37 -2t-16.5 -9.5t-6.5 -24.5l-28 -171q16 0 44 -0.5t49 -0.5q12 0 31 1.5
t38 3.5t32 3.5l13 1.5l6 -7l-23 -76l-21.5 1t-51.5 1.5t-56 0.5q-21 0 -41 -2t-32 -4q-10 -65 -18 -112.5t-8 -70.5zM467 680q-42 26 -80 47.5t-62.5 34.5l-24.5 13l-2 11l36 55l11 3l22.5 -19.5t57.5 -49t72 -60.5l-18 -30zM308 674q-42 26 -80 47.5t-62.5 34.5l-24.5 13
l-2 11l37 55l10 3l23 -19.5t58 -49.5t71 -60l-19 -30z" />
    <glyph glyph-name="Edieresis" unicode="&#xcb;" horiz-adv-x="573" 
d="M212 103q0 -25 13 -31.5t49 -6.5q49 0 79 4t47.5 15.5t28.5 35t21 63.5l70 6l4 -8l-8 -26t-19 -66.5t-22 -86.5l-8 -9l-20 0.5t-52.5 2t-72 2.5t-79 1.5t-73.5 0.5q-40 0 -76 -2.5t-58.5 -5l-22.5 -2.5l14 59q42 6 59 24t22 61l50 396q4 32 -1 43t-25 11q-8 0 -19.5 -1
l-11.5 -1l-4 7l14 54l15.5 -0.5t40.5 -1t53.5 -1t53.5 -0.5q72 0 126.5 1t95.5 4t71 7l5 -9l-7.5 -24.5t-17.5 -64.5t-18 -86l-75 -6l2 10t4 24t2 26q0 21 -10 31t-36.5 13.5t-77.5 3.5q-25 0 -37 -2t-16.5 -9.5t-6.5 -24.5l-28 -171q16 0 44 -0.5t49 -0.5q12 0 31 1.5
t38 3.5t32 3.5l13 1.5l6 -7l-23 -76l-21.5 1t-51.5 1.5t-56 0.5q-21 0 -41 -2t-32 -4q-10 -65 -18 -112.5t-8 -70.5zM437 712q-24 0 -35.5 14t-11.5 33q0 30 20 50t49 20q23 0 35 -13.5t12 -34.5q0 -29 -20 -49t-49 -20zM267 712q-23 0 -34.5 14t-11.5 33q0 30 19.5 50
t49.5 20q23 0 34.5 -13.5t11.5 -34.5q0 -29 -19.5 -49t-49.5 -20z" />
    <glyph glyph-name="Edotaccent" unicode="&#x116;" horiz-adv-x="573" 
d="M212 103q0 -25 13 -31.5t49 -6.5q49 0 79 4t47.5 15.5t28.5 35t21 63.5l70 6l4 -8l-8 -26t-19 -66.5t-22 -86.5l-8 -9l-20 0.5t-52.5 2t-72 2.5t-79 1.5t-73.5 0.5q-40 0 -76 -2.5t-58.5 -5l-22.5 -2.5l14 59q42 6 59 24t22 61l50 396q4 32 -1 43t-25 11q-8 0 -19.5 -1
l-11.5 -1l-4 7l14 54l15.5 -0.5t40.5 -1t53.5 -1t53.5 -0.5q72 0 126.5 1t95.5 4t71 7l5 -9l-7.5 -24.5t-17.5 -64.5t-18 -86l-75 -6l2 10t4 24t2 26q0 21 -10 31t-36.5 13.5t-77.5 3.5q-25 0 -37 -2t-16.5 -9.5t-6.5 -24.5l-28 -171q16 0 44 -0.5t49 -0.5q12 0 31 1.5
t38 3.5t32 3.5l13 1.5l6 -7l-23 -76l-21.5 1t-51.5 1.5t-56 0.5q-21 0 -41 -2t-32 -4q-10 -65 -18 -112.5t-8 -70.5zM351 707q-27 0 -41.5 16.5t-14.5 40.5q0 35 23 58.5t59 23.5q27 0 41 -16.5t14 -39.5q0 -35 -23 -59t-58 -24z" />
    <glyph glyph-name="uni1EB8" unicode="&#x1eb8;" horiz-adv-x="573" 
d="M212 103q0 -25 13 -31.5t49 -6.5q49 0 79 4t47.5 15.5t28.5 35t21 63.5l70 6l4 -8l-8 -26t-19 -66.5t-22 -86.5l-8 -9l-20 0.5t-52.5 2t-72 2.5t-79 1.5t-73.5 0.5q-40 0 -76 -2.5t-58.5 -5l-22.5 -2.5l14 59q42 6 59 24t22 61l50 396q4 32 -1 43t-25 11q-8 0 -19.5 -1
l-11.5 -1l-4 7l14 54l15.5 -0.5t40.5 -1t53.5 -1t53.5 -0.5q72 0 126.5 1t95.5 4t71 7l5 -9l-7.5 -24.5t-17.5 -64.5t-18 -86l-75 -6l2 10t4 24t2 26q0 21 -10 31t-36.5 13.5t-77.5 3.5q-25 0 -37 -2t-16.5 -9.5t-6.5 -24.5l-28 -171q16 0 44 -0.5t49 -0.5q12 0 31 1.5
t38 3.5t32 3.5l13 1.5l6 -7l-23 -76l-21.5 1t-51.5 1.5t-56 0.5q-21 0 -41 -2t-32 -4q-10 -65 -18 -112.5t-8 -70.5zM230 -205q-30 0 -44.5 17.5t-14.5 42.5q0 36 23 60.5t61 24.5q29 0 44.5 -17t15.5 -43q0 -36 -23 -60.5t-62 -24.5z" />
    <glyph glyph-name="Egrave" unicode="&#xc8;" horiz-adv-x="574" 
d="M212 103q0 -25 13 -31.5t49 -6.5q49 0 79 4t47.5 15.5t28.5 35t21 63.5l70 6l4 -8l-8 -26t-19 -66.5t-22 -86.5l-8 -9l-20 0.5t-52.5 2t-72 2.5t-79 1.5t-73.5 0.5q-40 0 -76 -2.5t-58.5 -5l-22.5 -2.5l14 59q42 6 59 24t22 61l50 396q4 32 -1 43t-25 11q-8 0 -19.5 -1
l-11.5 -1l-4 7l14 54l15.5 -0.5t40.5 -1t53.5 -1t53.5 -0.5q72 0 126.5 1t95.5 4t71 7l5 -9l-7.5 -24.5t-17.5 -64.5t-18 -86l-75 -6l2 10t4 24t2 26q0 21 -10 31t-36.5 13.5t-77.5 3.5q-25 0 -37 -2t-16.5 -9.5t-6.5 -24.5l-28 -171q16 0 44 -0.5t49 -0.5q12 0 31 1.5
t38 3.5t32 3.5l13 1.5l6 -7l-23 -76l-21.5 1t-51.5 1.5t-56 0.5q-21 0 -41 -2t-32 -4q-10 -65 -18 -112.5t-8 -70.5zM238 770l23 68l11 5l19 -9.5l50 -25t69.5 -34.5t76.5 -37l-10 -39l-12 -8q-41 14 -81 26.5t-71.5 21.5t-50.5 14.5l-19 5.5z" />
    <glyph glyph-name="uni1EBA" unicode="&#x1eba;" horiz-adv-x="573" 
d="M212 103q0 -25 13 -31.5t49 -6.5q49 0 79 4t47.5 15.5t28.5 35t21 63.5l70 6l4 -8l-8 -26t-19 -66.5t-22 -86.5l-8 -9l-20 0.5t-52.5 2t-72 2.5t-79 1.5t-73.5 0.5q-40 0 -76 -2.5t-58.5 -5l-22.5 -2.5l14 59q42 6 59 24t22 61l50 396q4 32 -1 43t-25 11q-8 0 -19.5 -1
l-11.5 -1l-4 7l14 54l15.5 -0.5t40.5 -1t53.5 -1t53.5 -0.5q72 0 126.5 1t95.5 4t71 7l5 -9l-7.5 -24.5t-17.5 -64.5t-18 -86l-75 -6l2 10t4 24t2 26q0 21 -10 31t-36.5 13.5t-77.5 3.5q-25 0 -37 -2t-16.5 -9.5t-6.5 -24.5l-28 -171q16 0 44 -0.5t49 -0.5q12 0 31 1.5
t38 3.5t32 3.5l13 1.5l6 -7l-23 -76l-21.5 1t-51.5 1.5t-56 0.5q-21 0 -41 -2t-32 -4q-10 -65 -18 -112.5t-8 -70.5zM279 875l14 11.5t35 26t42 21.5q43 0 66.5 -16.5t23.5 -47.5q0 -14 -7.5 -29t-23 -31t-40.5 -34l19 -39l-51 -26l-32 66q34 23 47.5 39t13.5 31
q0 25 -33 25q-14 0 -28.5 -5.5t-23.5 -11l-9 -5.5z" />
    <glyph glyph-name="uni0206" unicode="&#x206;" horiz-adv-x="573" 
d="M212 103q0 -25 13 -31.5t49 -6.5q49 0 79 4t47.5 15.5t28.5 35t21 63.5l70 6l4 -8l-8 -26t-19 -66.5t-22 -86.5l-8 -9l-20 0.5t-52.5 2t-72 2.5t-79 1.5t-73.5 0.5q-40 0 -76 -2.5t-58.5 -5l-22.5 -2.5l14 59q42 6 59 24t22 61l50 396q4 32 -1 43t-25 11q-8 0 -19.5 -1
l-11.5 -1l-4 7l14 54l15.5 -0.5t40.5 -1t53.5 -1t53.5 -0.5q72 0 126.5 1t95.5 4t71 7l5 -9l-7.5 -24.5t-17.5 -64.5t-18 -86l-75 -6l2 10t4 24t2 26q0 21 -10 31t-36.5 13.5t-77.5 3.5q-25 0 -37 -2t-16.5 -9.5t-6.5 -24.5l-28 -171q16 0 44 -0.5t49 -0.5q12 0 31 1.5
t38 3.5t32 3.5l13 1.5l6 -7l-23 -76l-21.5 1t-51.5 1.5t-56 0.5q-21 0 -41 -2t-32 -4q-10 -65 -18 -112.5t-8 -70.5zM368 779q-35 0 -64.5 -18t-47.5 -51l-14 4l-22 29q12 30 32 57t50 44.5t68 17.5q41 0 67.5 -18.5t41.5 -46.5t19 -58l-26 -25l-14 -1q-10 34 -34 50t-56 16
z" />
    <glyph glyph-name="Emacron" unicode="&#x112;" horiz-adv-x="573" 
d="M212 103q0 -25 13 -31.5t49 -6.5q49 0 79 4t47.5 15.5t28.5 35t21 63.5l70 6l4 -8l-8 -26t-19 -66.5t-22 -86.5l-8 -9l-20 0.5t-52.5 2t-72 2.5t-79 1.5t-73.5 0.5q-40 0 -76 -2.5t-58.5 -5l-22.5 -2.5l14 59q42 6 59 24t22 61l50 396q4 32 -1 43t-25 11q-8 0 -19.5 -1
l-11.5 -1l-4 7l14 54l15.5 -0.5t40.5 -1t53.5 -1t53.5 -0.5q72 0 126.5 1t95.5 4t71 7l5 -9l-7.5 -24.5t-17.5 -64.5t-18 -86l-75 -6l2 10t4 24t2 26q0 21 -10 31t-36.5 13.5t-77.5 3.5q-25 0 -37 -2t-16.5 -9.5t-6.5 -24.5l-28 -171q16 0 44 -0.5t49 -0.5q12 0 31 1.5
t38 3.5t32 3.5l13 1.5l6 -7l-23 -76l-21.5 1t-51.5 1.5t-56 0.5q-21 0 -41 -2t-32 -4q-10 -65 -18 -112.5t-8 -70.5zM511 780l-19 -67l-137 -1h-59.5t-53.5 -0.5l-22 -0.5l-8 11l21 66h25t60 -0.5t63 -0.5q24 0 53 1.5t50 3l21 1.5z" />
    <glyph glyph-name="uni1E16" unicode="&#x1e16;" horiz-adv-x="573" 
d="M212 103q0 -25 13 -31.5t49 -6.5q49 0 79 4t47.5 15.5t28.5 35t21 63.5l70 6l4 -8l-8 -26t-19 -66.5t-22 -86.5l-8 -9l-20 0.5t-52.5 2t-72 2.5t-79 1.5t-73.5 0.5q-40 0 -76 -2.5t-58.5 -5l-22.5 -2.5l14 59q42 6 59 24t22 61l50 396q4 32 -1 43t-25 11q-8 0 -19.5 -1
l-11.5 -1l-4 7l14 54l15.5 -0.5t40.5 -1t53.5 -1t53.5 -0.5q72 0 126.5 1t95.5 4t71 7l5 -9l-7.5 -24.5t-17.5 -64.5t-18 -86l-75 -6l2 10t4 24t2 26q0 21 -10 31t-36.5 13.5t-77.5 3.5q-25 0 -37 -2t-16.5 -9.5t-6.5 -24.5l-28 -171q16 0 44 -0.5t49 -0.5q12 0 31 1.5
t38 3.5t32 3.5l13 1.5l6 -7l-23 -76l-21.5 1t-51.5 1.5t-56 0.5q-21 0 -41 -2t-32 -4q-10 -65 -18 -112.5t-8 -70.5zM518 776l-19 -67l-136 -1h-60t-53.5 -0.5l-21.5 -0.5l-8 11l20 66h25.5t60.5 -0.5t63 -0.5q24 0 53 1.5t49.5 3l20.5 1.5zM503 886l-19 -5.5t-50.5 -15
t-71 -21.5t-81.5 -26l-11 7l-11 40q38 17 76.5 36t69.5 34.5t50 25.5l19 10l11 -6l23 -68z" />
    <glyph glyph-name="uni1E14" unicode="&#x1e14;" horiz-adv-x="573" 
d="M212 103q0 -25 13 -31.5t49 -6.5q49 0 79 4t47.5 15.5t28.5 35t21 63.5l70 6l4 -8l-8 -26t-19 -66.5t-22 -86.5l-8 -9l-20 0.5t-52.5 2t-72 2.5t-79 1.5t-73.5 0.5q-40 0 -76 -2.5t-58.5 -5l-22.5 -2.5l14 59q42 6 59 24t22 61l50 396q4 32 -1 43t-25 11q-8 0 -19.5 -1
l-11.5 -1l-4 7l14 54l15.5 -0.5t40.5 -1t53.5 -1t53.5 -0.5q72 0 126.5 1t95.5 4t71 7l5 -9l-7.5 -24.5t-17.5 -64.5t-18 -86l-75 -6l2 10t4 24t2 26q0 21 -10 31t-36.5 13.5t-77.5 3.5q-25 0 -37 -2t-16.5 -9.5t-6.5 -24.5l-28 -171q16 0 44 -0.5t49 -0.5q12 0 31 1.5
t38 3.5t32 3.5l13 1.5l6 -7l-23 -76l-21.5 1t-51.5 1.5t-56 0.5q-21 0 -41 -2t-32 -4q-10 -65 -18 -112.5t-8 -70.5zM517 776l-19 -67l-136 -1h-60t-53.5 -0.5l-21.5 -0.5l-8 11l20 66h25.5t60.5 -0.5t63 -0.5q24 0 53 1.5t49.5 3l20.5 1.5zM261 902l23 68l11 5l19 -9.5
l50 -25t69.5 -34.5t76.5 -37l-10 -39l-12 -8q-41 14 -81 26.5t-71.5 21.5t-50.5 14.5l-19 5.5z" />
    <glyph glyph-name="Eogonek" unicode="&#x118;" horiz-adv-x="573" 
d="M212 103q0 -25 13 -31.5t49 -6.5q49 0 79 4t47.5 15.5t28.5 35t21 63.5l70 6l4 -8l-8 -26t-19 -66.5t-22 -86.5l-8 -9l-20 0.5t-52.5 2t-72 2.5t-79 1.5t-73.5 0.5q-40 0 -76 -2.5t-58.5 -5l-22.5 -2.5l14 59q42 6 59 24t22 61l50 396q4 32 -1 43t-25 11q-8 0 -19.5 -1
l-11.5 -1l-4 7l14 54l15.5 -0.5t40.5 -1t53.5 -1t53.5 -0.5q72 0 126.5 1t95.5 4t71 7l5 -9l-7.5 -24.5t-17.5 -64.5t-18 -86l-75 -6l2 10t4 24t2 26q0 21 -10 31t-36.5 13.5t-77.5 3.5q-25 0 -37 -2t-16.5 -9.5t-6.5 -24.5l-28 -171q16 0 44 -0.5t49 -0.5q12 0 31 1.5
t38 3.5t32 3.5l13 1.5l6 -7l-23 -76l-21.5 1t-51.5 1.5t-56 0.5q-21 0 -41 -2t-32 -4q-10 -65 -18 -112.5t-8 -70.5zM467 -175q-8 -6 -25.5 -19t-39 -26.5t-43.5 -21.5q-48 0 -77 22t-29 63q0 29 18 58t51.5 63t78.5 77h58q-44 -43 -70.5 -73.5t-38.5 -53t-12 -43.5
q0 -19 11.5 -30t30.5 -11q15 0 29.5 4.5t26 10t15.5 8.5z" />
    <glyph glyph-name="uni01B7" unicode="&#x1b7;" horiz-adv-x="553" 
d="M208 -12q-39 0 -83 6t-85 18l-6 10l31 164l10 8l63 4q-11 -75 11 -105.5t88 -30.5t103 35.5t37 97.5q0 55 -36 78t-119 20l-7 8l12 48l38 15q123 0 185.5 -39t62.5 -117q0 -66 -37.5 -115.5t-106.5 -77t-161 -27.5zM227 349l258 261l-19 -63h-203q-30 0 -47.5 -7
t-28 -28.5t-21.5 -63.5l-76 -4q10 32 21 84.5t19 112.5l11 10l166 -10l236 -1l11 -51l-249 -251z" />
    <glyph glyph-name="uni01EE" unicode="&#x1ee;" horiz-adv-x="553" 
d="M208 -12q-39 0 -83 6t-85 18l-6 10l31 164l10 8l63 4q-11 -75 11 -105.5t88 -30.5t103 35.5t37 97.5q0 55 -36 78t-119 20l-7 8l12 48l38 15q123 0 185.5 -39t62.5 -117q0 -66 -37.5 -115.5t-106.5 -77t-161 -27.5zM227 349l258 261l-19 -63h-203q-30 0 -47.5 -7
t-28 -28.5t-21.5 -63.5l-76 -4q10 32 21 84.5t19 112.5l11 10l166 -10l236 -1l11 -51l-249 -251zM515 820q-9 -6 -28 -20t-42 -31t-44 -33t-34.5 -26l-13.5 -10h-18l-11 10t-28 26t-35.5 33t-34 31t-22.5 20l24 35l15 3q5 -3 22 -12t36.5 -19.5t35.5 -19.5t19 -10
q3 1 15.5 7t29.5 14.5t34.5 16.5t31 14.5t17.5 8.5l13 -3z" />
    <glyph glyph-name="F" unicode="F" horiz-adv-x="506" 
d="M215 130q-4 -36 2.5 -51t31.5 -15q12 0 27 1.5t26.5 2.5l11.5 1l5 -9l-17 -64l-16 0.5t-39.5 1.5t-48.5 1.5t-43 0.5q-33 0 -66 -3t-54.5 -5.5l-21.5 -2.5l13 59q44 8 60.5 25.5t21.5 60.5l50 396q4 32 -1 43t-25 11q-8 0 -19.5 -1l-11.5 -1l-4 7l14 54l15.5 -0.5
t40.5 -1t53.5 -1t53.5 -0.5q63 0 113.5 1t90 4t68.5 7l5 -9l-7 -25t-17 -65.5t-18 -86.5l-75 -6l2 10.5t4.5 25.5t2.5 26q0 22 -9 31.5t-31.5 13t-64.5 3.5q-25 0 -37 -2t-16.5 -9.5t-6.5 -24.5l-30 -188l93 -1q15 0 39.5 2.5t43.5 5l19 2.5l5 -7l-22 -76l-20 1t-47 1.5
t-50 0.5q-21 0 -41 -2.5t-33 -4.5z" />
    <glyph glyph-name="G" unicode="G" horiz-adv-x="633" 
d="M298 -12q-80 0 -138.5 32.5t-91 92t-32.5 142.5q0 89 26.5 161.5t76 125t117.5 81.5t151 29q30 0 63 -4t61.5 -8.5t46.5 -8l18 -3.5l4 -11l-8 -23t-19 -62.5t-21 -90.5l-80 -5l2.5 11t5 25.5t2.5 23.5q0 74 -110 74q-61 0 -107 -34.5t-70.5 -100t-24.5 -158.5
q0 -100 39 -156t111 -56q33 0 57 7t38 15l14 8l12 105q4 31 -3.5 40.5t-35.5 9.5h-23h-22.5h-9.5l-3 7l17 63l12 -0.5t32 -1t43 -1t43 -0.5q21 0 42 1.5l35 2.5l14 1l2 -32q-17 -11 -27.5 -32t-15.5 -53q-3 -20 -6.5 -47t-6.5 -50.5t-3 -33.5t0.5 -21.5l0.5 -11.5l-8 -10
l-27.5 -10.5t-76.5 -21.5t-116 -11z" />
    <glyph glyph-name="Gbreve" unicode="&#x11e;" horiz-adv-x="633" 
d="M298 -12q-80 0 -138.5 32.5t-91 92t-32.5 142.5q0 89 26.5 161.5t76 125t117.5 81.5t151 29q30 0 63 -4t61.5 -8.5t46.5 -8l18 -3.5l4 -11l-8 -23t-19 -62.5t-21 -90.5l-80 -5l2.5 11t5 25.5t2.5 23.5q0 74 -110 74q-61 0 -107 -34.5t-70.5 -100t-24.5 -158.5
q0 -100 39 -156t111 -56q33 0 57 7t38 15l14 8l12 105q4 31 -3.5 40.5t-35.5 9.5h-23h-22.5h-9.5l-3 7l17 63l12 -0.5t32 -1t43 -1t43 -0.5q21 0 42 1.5l35 2.5l14 1l2 -32q-17 -11 -27.5 -32t-15.5 -53q-3 -20 -6.5 -47t-6.5 -50.5t-3 -33.5t0.5 -21.5l0.5 -11.5l-8 -10
l-27.5 -10.5t-76.5 -21.5t-116 -11zM400 785q32 0 60.5 14t44.5 42l14 -2l20 -27q-11 -27 -31.5 -52.5t-49.5 -41.5t-68 -16t-64.5 16t-39.5 41.5t-19 52.5l28 27l14 2q10 -28 34.5 -42t56.5 -14z" />
    <glyph glyph-name="Gcaron" unicode="&#x1e6;" horiz-adv-x="633" 
d="M298 -12q-80 0 -138.5 32.5t-91 92t-32.5 142.5q0 89 26.5 161.5t76 125t117.5 81.5t151 29q30 0 63 -4t61.5 -8.5t46.5 -8l18 -3.5l4 -11l-8 -23t-19 -62.5t-21 -90.5l-80 -5l2.5 11t5 25.5t2.5 23.5q0 74 -110 74q-61 0 -107 -34.5t-70.5 -100t-24.5 -158.5
q0 -100 39 -156t111 -56q33 0 57 7t38 15l14 8l12 105q4 31 -3.5 40.5t-35.5 9.5h-23h-22.5h-9.5l-3 7l17 63l12 -0.5t32 -1t43 -1t43 -0.5q21 0 42 1.5l35 2.5l14 1l2 -32q-17 -11 -27.5 -32t-15.5 -53q-3 -20 -6.5 -47t-6.5 -50.5t-3 -33.5t0.5 -21.5l0.5 -11.5l-8 -10
l-27.5 -10.5t-76.5 -21.5t-116 -11zM559 819q-9 -6 -28 -20t-42 -31t-44 -33t-34.5 -26l-13.5 -10h-18l-11 10t-28 26t-35.5 33t-34 31t-22.5 20l24 35l15 3q5 -3 22 -12t36.5 -19.5t35.5 -19.5t19 -10q3 1 15.5 7t29.5 14.5t34.5 16.5t31 14.5t17.5 8.5l13 -3z" />
    <glyph glyph-name="Gcircumflex" unicode="&#x11c;" horiz-adv-x="633" 
d="M298 -12q-80 0 -138.5 32.5t-91 92t-32.5 142.5q0 89 26.5 161.5t76 125t117.5 81.5t151 29q30 0 63 -4t61.5 -8.5t46.5 -8l18 -3.5l4 -11l-8 -23t-19 -62.5t-21 -90.5l-80 -5l2.5 11t5 25.5t2.5 23.5q0 74 -110 74q-61 0 -107 -34.5t-70.5 -100t-24.5 -158.5
q0 -100 39 -156t111 -56q33 0 57 7t38 15l14 8l12 105q4 31 -3.5 40.5t-35.5 9.5h-23h-22.5h-9.5l-3 7l17 63l12 -0.5t32 -1t43 -1t43 -0.5q21 0 42 1.5l35 2.5l14 1l2 -32q-17 -11 -27.5 -32t-15.5 -53q-3 -20 -6.5 -47t-6.5 -50.5t-3 -33.5t0.5 -21.5l0.5 -11.5l-8 -10
l-27.5 -10.5t-76.5 -21.5t-116 -11zM253 735q9 7 28 24.5t41.5 39.5t43.5 42.5t35 34l14 13.5h18l10.5 -13.5t26.5 -34t34 -42.5t32.5 -39.5t21.5 -24.5l-29 -35l-14 -3q-3 3 -14 12t-25 21.5t-28 24t-24 20.5t-12 10q-3 -1 -15 -10t-28.5 -20.5t-34 -24t-30.5 -21.5
t-17 -12l-13 3z" />
    <glyph glyph-name="uni0122" unicode="&#x122;" horiz-adv-x="633" 
d="M298 -12q-80 0 -138.5 32.5t-91 92t-32.5 142.5q0 89 26.5 161.5t76 125t117.5 81.5t151 29q30 0 63 -4t61.5 -8.5t46.5 -8l18 -3.5l4 -11l-8 -23t-19 -62.5t-21 -90.5l-80 -5l2.5 11t5 25.5t2.5 23.5q0 74 -110 74q-61 0 -107 -34.5t-70.5 -100t-24.5 -158.5
q0 -100 39 -156t111 -56q33 0 57 7t38 15l14 8l12 105q4 31 -3.5 40.5t-35.5 9.5h-23h-22.5h-9.5l-3 7l17 63l12 -0.5t32 -1t43 -1t43 -0.5q21 0 42 1.5l35 2.5l14 1l2 -32q-17 -11 -27.5 -32t-15.5 -53q-3 -20 -6.5 -47t-6.5 -50.5t-3 -33.5t0.5 -21.5l0.5 -11.5l-8 -10
l-27.5 -10.5t-76.5 -21.5t-116 -11zM229 -88q16 12 35.5 22t36.5 10q28 0 46 -22t18 -59q0 -36 -20.5 -68t-52 -58.5t-67.5 -46.5l-31 25v15q29 20 49 48t20 53q0 20 -10.5 38t-25.5 29z" />
    <glyph glyph-name="Gdotaccent" unicode="&#x120;" horiz-adv-x="633" 
d="M298 -12q-80 0 -138.5 32.5t-91 92t-32.5 142.5q0 89 26.5 161.5t76 125t117.5 81.5t151 29q30 0 63 -4t61.5 -8.5t46.5 -8l18 -3.5l4 -11l-8 -23t-19 -62.5t-21 -90.5l-80 -5l2.5 11t5 25.5t2.5 23.5q0 74 -110 74q-61 0 -107 -34.5t-70.5 -100t-24.5 -158.5
q0 -100 39 -156t111 -56q33 0 57 7t38 15l14 8l12 105q4 31 -3.5 40.5t-35.5 9.5h-23h-22.5h-9.5l-3 7l17 63l12 -0.5t32 -1t43 -1t43 -0.5q21 0 42 1.5l35 2.5l14 1l2 -32q-17 -11 -27.5 -32t-15.5 -53q-3 -20 -6.5 -47t-6.5 -50.5t-3 -33.5t0.5 -21.5l0.5 -11.5l-8 -10
l-27.5 -10.5t-76.5 -21.5t-116 -11zM390 707q-27 0 -41.5 16.5t-14.5 40.5q0 35 23 58.5t59 23.5q27 0 41 -16.5t14 -39.5q0 -35 -23 -59t-58 -24z" />
    <glyph glyph-name="uni1E20" unicode="&#x1e20;" horiz-adv-x="633" 
d="M298 -12q-80 0 -138.5 32.5t-91 92t-32.5 142.5q0 89 26.5 161.5t76 125t117.5 81.5t151 29q30 0 63 -4t61.5 -8.5t46.5 -8l18 -3.5l4 -11l-8 -23t-19 -62.5t-21 -90.5l-80 -5l2.5 11t5 25.5t2.5 23.5q0 74 -110 74q-61 0 -107 -34.5t-70.5 -100t-24.5 -158.5
q0 -100 39 -156t111 -56q33 0 57 7t38 15l14 8l12 105q4 31 -3.5 40.5t-35.5 9.5h-23h-22.5h-9.5l-3 7l17 63l12 -0.5t32 -1t43 -1t43 -0.5q21 0 42 1.5l35 2.5l14 1l2 -32q-17 -11 -27.5 -32t-15.5 -53q-3 -20 -6.5 -47t-6.5 -50.5t-3 -33.5t0.5 -21.5l0.5 -11.5l-8 -10
l-27.5 -10.5t-76.5 -21.5t-116 -11zM551 780l-19 -67l-137 -1h-59.5t-53.5 -0.5l-22 -0.5l-8 11l21 66h25t60 -0.5t63 -0.5q24 0 53 1.5t50 3l21 1.5z" />
    <glyph glyph-name="uni01E4" unicode="&#x1e4;" horiz-adv-x="640" 
d="M298 -12q-80 0 -138.5 32.5t-91 92t-32.5 142.5q0 89 26.5 161.5t76 125t117.5 81.5t151 29q35 0 73 -5t70 -11t46 -8l4 -11q-3 -7 -11.5 -33t-18.5 -63.5t-18 -79.5l-80 -5q1 4 3 15t4.5 24t2.5 21q0 74 -110 74q-61 0 -107 -34.5t-70.5 -100.5t-24.5 -160
q0 -100 39 -157t111 -57q30 0 53.5 7t38.5 14.5l17 8.5l12 109q4 31 -3.5 40.5t-35.5 9.5h-22h-22.5h-10.5l-3 7l17 63q7 0 28 -1t49 -1.5t53 -0.5q21 0 42 1.5l35 2.5l14 1l2 -32q-17 -11 -27 -32t-16 -53q-3 -20 -6.5 -47t-6.5 -50.5t-3 -33.5q0 -8 0.5 -19.5t0.5 -13.5
l-8 -10q-8 -3 -39.5 -13.5t-78 -20t-102.5 -9.5zM315 141l-4 9l13 45h49t53 -0.5t43 -0.5q22 0 59.5 1.5t73.5 3.5l5 -11l-11 -45l-143 -1q-27 0 -67.5 -0.5t-70.5 -0.5z" />
    <glyph glyph-name="H" unicode="H" horiz-adv-x="721" 
d="M13 -10l14 57q32 7 48.5 17t24.5 31t11 60l47 376q4 32 -1.5 42.5t-27.5 10.5q-5 0 -14 -0.5t-16 -1.5l-3 7l13 53q26 0 59.5 -1t53.5 -1q19 0 53.5 2.5t78.5 5.5l-11 -58q-26 -4 -39 -11t-19.5 -22.5t-11.5 -45.5l-33 -206l-19 -138q-3 -22 -6 -45.5t-1 -37.5
q1 -16 8 -21.5t23 -5.5q10 0 21 1t18 2q0 -2 1 -3.5t2 -2.5l-16 -57q-9 1 -28.5 1.5t-41 1t-35.5 0.5q-25 0 -56.5 -1.5t-58 -3.5t-38.5 -5zM219 279l16 82q37 0 74.5 -1t74.5 -1q35 0 64.5 2t76.5 7l-12 -78l-132 1q-9 0 -35.5 -1.5t-60 -4t-66.5 -6.5zM645 -3q-21 1 -54 2
t-65 1h-37q-18 0 -38.5 -0.5t-39 -1t-26.5 -0.5l15 58q28 1 44 9t25 29t13 59l47 378q4 31 -1.5 42t-27.5 11q-6 0 -14.5 -0.5t-15.5 -1.5l-4 7l14 53h10t25 -0.5t32 -1t32 -0.5h23q25 0 59 2.5t67 5.5l-11 -58q-37 -5 -50.5 -16t-18.5 -40q-11 -66 -21 -127t-17.5 -112.5
t-13.5 -92t-8.5 -67t-2.5 -35.5q0 -24 7.5 -33.5t26.5 -9.5q9 0 20 1t18 2q1 -2 2 -3t1 -3z" />
    <glyph glyph-name="Hbar" unicode="&#x126;" horiz-adv-x="721" 
d="M417 498q47 0 100.5 1t101 1.5t77 1.5l29.5 1l14 -14l-4 -43l-342 -1h-115t-109.5 -0.5t-82 -0.5h-31.5l-10 9l8 46h23h62t86.5 -0.5t97.5 -0.5h95zM13 -10l14 57q32 7 48.5 17t24.5 31t11 60l47 376q4 32 -1.5 42.5t-27.5 10.5q-5 0 -14 -0.5t-16 -1.5l-3 7l13 53
q26 0 59.5 -1t53.5 -1q19 0 53.5 2.5t78.5 5.5l-11 -58q-26 -4 -39 -11t-19.5 -22.5t-11.5 -45.5l-33 -206l-19 -138q-3 -22 -6 -45.5t-1 -37.5q1 -16 8 -21.5t23 -5.5q10 0 21 1t18 2q0 -2 1 -3.5t2 -2.5l-16 -57q-9 1 -28.5 1.5t-41 1t-35.5 0.5q-25 0 -56.5 -1.5
t-58 -3.5t-38.5 -5zM219 279l16 82q37 0 74.5 -1t74.5 -1q35 0 64.5 2t76.5 7l-12 -78l-132 1q-9 0 -35.5 -1.5t-60 -4t-66.5 -6.5zM645 -3q-21 1 -54 2t-65 1h-37q-18 0 -38.5 -0.5t-39 -1t-26.5 -0.5l15 58q28 1 44 9t25 29t13 59l47 378q4 31 -1.5 42t-27.5 11
q-6 0 -14.5 -0.5t-15.5 -1.5l-4 7l14 53h10t25 -0.5t32 -1t32 -0.5h23q25 0 59 2.5t67 5.5l-11 -58q-37 -5 -50.5 -16t-18.5 -40q-11 -66 -21 -127t-17.5 -112.5t-13.5 -92t-8.5 -67t-2.5 -35.5q0 -24 7.5 -33.5t26.5 -9.5q9 0 20 1t18 2q1 -2 2 -3t1 -3z" />
    <glyph glyph-name="uni1E2A" unicode="&#x1e2a;" horiz-adv-x="721" 
d="M13 -10l14 57q32 7 48.5 17t24.5 31t11 60l47 376q4 32 -1.5 42.5t-27.5 10.5q-5 0 -14 -0.5t-16 -1.5l-3 7l13 53q26 0 59.5 -1t53.5 -1q19 0 53.5 2.5t78.5 5.5l-11 -58q-26 -4 -39 -11t-19.5 -22.5t-11.5 -45.5l-33 -206l-19 -138q-3 -22 -6 -45.5t-1 -37.5
q1 -16 8 -21.5t23 -5.5q10 0 21 1t18 2q0 -2 1 -3.5t2 -2.5l-16 -57q-9 1 -28.5 1.5t-41 1t-35.5 0.5q-25 0 -56.5 -1.5t-58 -3.5t-38.5 -5zM219 279l16 82q37 0 74.5 -1t74.5 -1q35 0 64.5 2t76.5 7l-12 -78l-132 1q-9 0 -35.5 -1.5t-60 -4t-66.5 -6.5zM645 -3q-21 1 -54 2
t-65 1h-37q-18 0 -38.5 -0.5t-39 -1t-26.5 -0.5l15 58q28 1 44 9t25 29t13 59l47 378q4 31 -1.5 42t-27.5 11q-6 0 -14.5 -0.5t-15.5 -1.5l-4 7l14 53h10t25 -0.5t32 -1t32 -0.5h23q25 0 59 2.5t67 5.5l-11 -58q-37 -5 -50.5 -16t-18.5 -40q-11 -66 -21 -127t-17.5 -112.5
t-13.5 -92t-8.5 -67t-2.5 -35.5q0 -24 7.5 -33.5t26.5 -9.5q9 0 20 1t18 2q1 -2 2 -3t1 -3zM311 -134q32 0 60 17t45 50l15 -2l20 -27q-11 -30 -31.5 -58t-50 -45.5t-68.5 -17.5t-64.5 17.5t-39 45.5t-17.5 58l26 27l15 2q9 -33 33 -50t57 -17z" />
    <glyph glyph-name="uni021E" unicode="&#x21e;" horiz-adv-x="721" 
d="M13 -10l14 57q32 7 48.5 17t24.5 31t11 60l47 376q4 32 -1.5 42.5t-27.5 10.5q-5 0 -14 -0.5t-16 -1.5l-3 7l13 53q26 0 59.5 -1t53.5 -1q19 0 53.5 2.5t78.5 5.5l-11 -58q-26 -4 -39 -11t-19.5 -22.5t-11.5 -45.5l-33 -206l-19 -138q-3 -22 -6 -45.5t-1 -37.5
q1 -16 8 -21.5t23 -5.5q10 0 21 1t18 2q0 -2 1 -3.5t2 -2.5l-16 -57q-9 1 -28.5 1.5t-41 1t-35.5 0.5q-25 0 -56.5 -1.5t-58 -3.5t-38.5 -5zM219 279l16 82q37 0 74.5 -1t74.5 -1q35 0 64.5 2t76.5 7l-12 -78l-132 1q-9 0 -35.5 -1.5t-60 -4t-66.5 -6.5zM645 -3q-21 1 -54 2
t-65 1h-37q-18 0 -38.5 -0.5t-39 -1t-26.5 -0.5l15 58q28 1 44 9t25 29t13 59l47 378q4 31 -1.5 42t-27.5 11q-6 0 -14.5 -0.5t-15.5 -1.5l-4 7l14 53h10t25 -0.5t32 -1t32 -0.5h23q25 0 59 2.5t67 5.5l-11 -58q-37 -5 -50.5 -16t-18.5 -40q-11 -66 -21 -127t-17.5 -112.5
t-13.5 -92t-8.5 -67t-2.5 -35.5q0 -24 7.5 -33.5t26.5 -9.5q9 0 20 1t18 2q1 -2 2 -3t1 -3zM583 819q-9 -6 -28 -20t-42 -31t-44 -33t-34.5 -26l-13.5 -10h-18l-11 10t-28 26t-35.5 33t-34 31t-22.5 20l24 35l15 3q5 -3 22 -12t36.5 -19.5t35.5 -19.5t19 -10q3 1 15.5 7
t29.5 14.5t34.5 16.5t31 14.5t17.5 8.5l13 -3z" />
    <glyph glyph-name="Hcircumflex" unicode="&#x124;" horiz-adv-x="721" 
d="M13 -10l14 57q32 7 48.5 17t24.5 31t11 60l47 376q4 32 -1.5 42.5t-27.5 10.5q-5 0 -14 -0.5t-16 -1.5l-3 7l13 53q26 0 59.5 -1t53.5 -1q19 0 53.5 2.5t78.5 5.5l-11 -58q-26 -4 -39 -11t-19.5 -22.5t-11.5 -45.5l-33 -206l-19 -138q-3 -22 -6 -45.5t-1 -37.5
q1 -16 8 -21.5t23 -5.5q10 0 21 1t18 2q0 -2 1 -3.5t2 -2.5l-16 -57q-9 1 -28.5 1.5t-41 1t-35.5 0.5q-25 0 -56.5 -1.5t-58 -3.5t-38.5 -5zM219 279l16 82q37 0 74.5 -1t74.5 -1q35 0 64.5 2t76.5 7l-12 -78l-132 1q-9 0 -35.5 -1.5t-60 -4t-66.5 -6.5zM645 -3q-21 1 -54 2
t-65 1h-37q-18 0 -38.5 -0.5t-39 -1t-26.5 -0.5l15 58q28 1 44 9t25 29t13 59l47 378q4 31 -1.5 42t-27.5 11q-6 0 -14.5 -0.5t-15.5 -1.5l-4 7l14 53h10t25 -0.5t32 -1t32 -0.5h23q25 0 59 2.5t67 5.5l-11 -58q-37 -5 -50.5 -16t-18.5 -40q-11 -66 -21 -127t-17.5 -112.5
t-13.5 -92t-8.5 -67t-2.5 -35.5q0 -24 7.5 -33.5t26.5 -9.5q9 0 20 1t18 2q1 -2 2 -3t1 -3zM274 746q8 6 27 20t41.5 31t43.5 33t35 26l14 10h18q0 1 11 -9t28.5 -26t36 -33.5t33.5 -31t23 -20.5l-26 -35l-14 -3q-5 3 -21.5 12t-36.5 19.5t-36 19.5t-20 10q-3 -1 -15 -7
t-29 -14t-34.5 -16.5t-31 -15t-18.5 -8.5l-13 3z" />
    <glyph glyph-name="uni1E24" unicode="&#x1e24;" horiz-adv-x="721" 
d="M13 -10l14 57q32 7 48.5 17t24.5 31t11 60l47 376q4 32 -1.5 42.5t-27.5 10.5q-5 0 -14 -0.5t-16 -1.5l-3 7l13 53q26 0 59.5 -1t53.5 -1q19 0 53.5 2.5t78.5 5.5l-11 -58q-26 -4 -39 -11t-19.5 -22.5t-11.5 -45.5l-33 -206l-19 -138q-3 -22 -6 -45.5t-1 -37.5
q1 -16 8 -21.5t23 -5.5q10 0 21 1t18 2q0 -2 1 -3.5t2 -2.5l-16 -57q-9 1 -28.5 1.5t-41 1t-35.5 0.5q-25 0 -56.5 -1.5t-58 -3.5t-38.5 -5zM219 279l16 82q37 0 74.5 -1t74.5 -1q35 0 64.5 2t76.5 7l-12 -78l-132 1q-9 0 -35.5 -1.5t-60 -4t-66.5 -6.5zM645 -3q-21 1 -54 2
t-65 1h-37q-18 0 -38.5 -0.5t-39 -1t-26.5 -0.5l15 58q28 1 44 9t25 29t13 59l47 378q4 31 -1.5 42t-27.5 11q-6 0 -14.5 -0.5t-15.5 -1.5l-4 7l14 53h10t25 -0.5t32 -1t32 -0.5h23q25 0 59 2.5t67 5.5l-11 -58q-37 -5 -50.5 -16t-18.5 -40q-11 -66 -21 -127t-17.5 -112.5
t-13.5 -92t-8.5 -67t-2.5 -35.5q0 -24 7.5 -33.5t26.5 -9.5q9 0 20 1t18 2q1 -2 2 -3t1 -3zM303 -205q-30 0 -44.5 17.5t-14.5 42.5q0 36 23 60.5t61 24.5q29 0 44.5 -17t15.5 -43q0 -36 -23 -60.5t-62 -24.5z" />
    <glyph glyph-name="I" unicode="I" horiz-adv-x="350" 
d="M278 534q-8 -45 -17 -98.5t-17.5 -108t-16 -102t-11.5 -81t-4 -46.5q0 -24 8 -32.5t25 -8.5t31 1.5l14 1.5l3 -6l-15 -57l-15 0.5t-37.5 1t-45.5 1t-40 0.5q-19 0 -41.5 -1.5t-42 -3t-32 -3.5l-12.5 -2l14 57q44 9 61 26.5t22 58.5l49 399q4 32 -1.5 42.5t-27.5 10.5
q-9 0 -22 -1l-13 -1q-1 2 -2 3.5t-2 3.5l14 53q8 0 30.5 -0.5t49.5 -1t48 -0.5q16 0 38 1t43 2.5t35 3l14 1.5l-13 -58q-38 -5 -52 -16t-19 -40z" />
    <glyph glyph-name="IJ" unicode="&#x132;" horiz-adv-x="668" 
d="M278 534q-8 -45 -17 -98.5t-17.5 -108t-16 -102t-11.5 -81t-4 -46.5q0 -24 8 -32.5t25 -8.5t31 1.5l14 1.5l3 -6l-15 -57l-15 0.5t-37.5 1t-45.5 1t-40 0.5q-19 0 -41.5 -1.5t-42 -3t-32 -3.5l-12.5 -2l14 57q44 9 61 26.5t22 58.5l49 399q4 32 -1.5 42.5t-27.5 10.5
q-9 0 -22 -1l-13 -1q-1 2 -2 3.5t-2 3.5l14 53q8 0 30.5 -0.5t49.5 -1t48 -0.5q16 0 38 1t43 2.5t35 3l14 1.5l-13 -58q-38 -5 -52 -16t-19 -40zM498 531q4 32 -1.5 42t-25.5 10q-6 0 -16.5 -0.5t-18.5 -1.5l-8 -1l-2 7l13 53h114q30 0 61 2t53 4l22 2l-12 -58
q-33 -6 -43.5 -15.5t-15.5 -40.5q-4 -27 -11 -69t-14.5 -91.5t-15 -99.5t-14 -93.5t-10.5 -73.5q-13 -100 -65 -161t-152 -96l-20 37l4 11q42 26 67.5 54t38.5 67t21 101z" />
    <glyph glyph-name="Iacute" unicode="&#xcd;" horiz-adv-x="351" 
d="M278 534q-8 -45 -17 -98.5t-17.5 -108t-16 -102t-11.5 -81t-4 -46.5q0 -24 8 -32.5t25 -8.5t31 1.5l14 1.5l3 -6l-15 -57l-15 0.5t-37.5 1t-45.5 1t-40 0.5q-19 0 -41.5 -1.5t-42 -3t-32 -3.5l-12.5 -2l14 57q44 9 61 26.5t22 58.5l49 399q4 32 -1.5 42.5t-27.5 10.5
q-9 0 -22 -1l-13 -1q-1 2 -2 3.5t-2 3.5l14 53q8 0 30.5 -0.5t49.5 -1t48 -0.5q16 0 38 1t43 2.5t35 3l14 1.5l-13 -58q-38 -5 -52 -16t-19 -40zM369 759l-19 -5.5t-50.5 -15t-71 -21.5t-81.5 -26l-11 7l-11 40q38 17 76.5 36t69.5 34.5t50 25.5l19 10l11 -6l23 -68z" />
    <glyph glyph-name="Ibreve" unicode="&#x12c;" horiz-adv-x="350" 
d="M278 534q-8 -45 -17 -98.5t-17.5 -108t-16 -102t-11.5 -81t-4 -46.5q0 -24 8 -32.5t25 -8.5t31 1.5l14 1.5l3 -6l-15 -57l-15 0.5t-37.5 1t-45.5 1t-40 0.5q-19 0 -41.5 -1.5t-42 -3t-32 -3.5l-12.5 -2l14 57q44 9 61 26.5t22 58.5l49 399q4 32 -1.5 42.5t-27.5 10.5
q-9 0 -22 -1l-13 -1q-1 2 -2 3.5t-2 3.5l14 53q8 0 30.5 -0.5t49.5 -1t48 -0.5q16 0 38 1t43 2.5t35 3l14 1.5l-13 -58q-38 -5 -52 -16t-19 -40zM247 785q32 0 60.5 14t44.5 42l14 -2l20 -27q-11 -27 -31.5 -52.5t-49.5 -41.5t-68 -16t-64.5 16t-39.5 41.5t-19 52.5l28 27
l14 2q10 -28 34.5 -42t56.5 -14z" />
    <glyph glyph-name="uni01CF" unicode="&#x1cf;" horiz-adv-x="350" 
d="M278 534q-8 -45 -17 -98.5t-17.5 -108t-16 -102t-11.5 -81t-4 -46.5q0 -24 8 -32.5t25 -8.5t31 1.5l14 1.5l3 -6l-15 -57l-15 0.5t-37.5 1t-45.5 1t-40 0.5q-19 0 -41.5 -1.5t-42 -3t-32 -3.5l-12.5 -2l14 57q44 9 61 26.5t22 58.5l49 399q4 32 -1.5 42.5t-27.5 10.5
q-9 0 -22 -1l-13 -1q-1 2 -2 3.5t-2 3.5l14 53q8 0 30.5 -0.5t49.5 -1t48 -0.5q16 0 38 1t43 2.5t35 3l14 1.5l-13 -58q-38 -5 -52 -16t-19 -40zM406 819q-9 -6 -28 -20t-42 -31t-44 -33t-34.5 -26l-13.5 -10h-18l-11 10t-28 26t-35.5 33t-34 31t-22.5 20l24 35l15 3
q5 -3 22 -12t36.5 -19.5t35.5 -19.5t19 -10q3 1 15.5 7t29.5 14.5t34.5 16.5t31 14.5t17.5 8.5l13 -3z" />
    <glyph glyph-name="Icircumflex" unicode="&#xce;" horiz-adv-x="350" 
d="M278 534q-8 -45 -17 -98.5t-17.5 -108t-16 -102t-11.5 -81t-4 -46.5q0 -24 8 -32.5t25 -8.5t31 1.5l14 1.5l3 -6l-15 -57l-15 0.5t-37.5 1t-45.5 1t-40 0.5q-19 0 -41.5 -1.5t-42 -3t-32 -3.5l-12.5 -2l14 57q44 9 61 26.5t22 58.5l49 399q4 32 -1.5 42.5t-27.5 10.5
q-9 0 -22 -1l-13 -1q-1 2 -2 3.5t-2 3.5l14 53q8 0 30.5 -0.5t49.5 -1t48 -0.5q16 0 38 1t43 2.5t35 3l14 1.5l-13 -58q-38 -5 -52 -16t-19 -40zM96 746q8 6 27 20t41.5 31t43.5 33t35 26l14 10h18q0 1 11 -9t28.5 -26t36 -33.5t33.5 -31t23 -20.5l-26 -35l-14 -3
q-5 3 -21.5 12t-36.5 19.5t-36 19.5t-20 10q-3 -1 -15 -7t-29 -14t-34.5 -16.5t-31 -15t-18.5 -8.5l-13 3z" />
    <glyph glyph-name="uni0208" unicode="&#x208;" horiz-adv-x="350" 
d="M278 534q-8 -45 -17 -98.5t-17.5 -108t-16 -102t-11.5 -81t-4 -46.5q0 -24 8 -32.5t25 -8.5t31 1.5l14 1.5l3 -6l-15 -57l-15 0.5t-37.5 1t-45.5 1t-40 0.5q-19 0 -41.5 -1.5t-42 -3t-32 -3.5l-12.5 -2l14 57q44 9 61 26.5t22 58.5l49 399q4 32 -1.5 42.5t-27.5 10.5
q-9 0 -22 -1l-13 -1q-1 2 -2 3.5t-2 3.5l14 53q8 0 30.5 -0.5t49.5 -1t48 -0.5q16 0 38 1t43 2.5t35 3l14 1.5l-13 -58q-38 -5 -52 -16t-19 -40zM354 680q-42 26 -80 47.5t-62.5 34.5l-24.5 13l-2 11l36 55l11 3l22.5 -19.5t57.5 -49t72 -60.5l-18 -30zM195 674
q-42 26 -80 47.5t-62.5 34.5l-24.5 13l-2 11l37 55l10 3l23 -19.5t58 -49.5t71 -60l-19 -30z" />
    <glyph glyph-name="uni1E2E" unicode="&#x1e2e;" horiz-adv-x="350" 
d="M278 534q-8 -45 -17 -98.5t-17.5 -108t-16 -102t-11.5 -81t-4 -46.5q0 -24 8 -32.5t25 -8.5t31 1.5l14 1.5l3 -6l-15 -57l-15 0.5t-37.5 1t-45.5 1t-40 0.5q-19 0 -41.5 -1.5t-42 -3t-32 -3.5l-12.5 -2l14 57q44 9 61 26.5t22 58.5l49 399q4 32 -1.5 42.5t-27.5 10.5
q-9 0 -22 -1l-13 -1q-1 2 -2 3.5t-2 3.5l14 53q8 0 30.5 -0.5t49.5 -1t48 -0.5q16 0 38 1t43 2.5t35 3l14 1.5l-13 -58q-38 -5 -52 -16t-19 -40zM335 723q-23 0 -34.5 14t-11.5 33q0 30 19.5 50t48.5 20q23 0 35 -13.5t12 -34.5q0 -29 -19.5 -49t-49.5 -20zM166 723
q-23 0 -34.5 14t-11.5 33q0 30 20 50t48 20q24 0 35.5 -13.5t11.5 -34.5q0 -29 -19.5 -49t-49.5 -20zM396 931l-18.5 -5.5t-50 -14.5t-71.5 -21.5t-81 -26.5l-12 8l-11 39q39 18 77.5 36.5t69.5 34.5t50 25.5l19 9.5l11 -6l22 -67z" />
    <glyph glyph-name="Idotaccent" unicode="&#x130;" horiz-adv-x="350" 
d="M278 534q-8 -45 -17 -98.5t-17.5 -108t-16 -102t-11.5 -81t-4 -46.5q0 -24 8 -32.5t25 -8.5t31 1.5l14 1.5l3 -6l-15 -57l-15 0.5t-37.5 1t-45.5 1t-40 0.5q-19 0 -41.5 -1.5t-42 -3t-32 -3.5l-12.5 -2l14 57q44 9 61 26.5t22 58.5l49 399q4 32 -1.5 42.5t-27.5 10.5
q-9 0 -22 -1l-13 -1q-1 2 -2 3.5t-2 3.5l14 53q8 0 30.5 -0.5t49.5 -1t48 -0.5q16 0 38 1t43 2.5t35 3l14 1.5l-13 -58q-38 -5 -52 -16t-19 -40zM237 707q-27 0 -41.5 16.5t-14.5 40.5q0 35 23 58.5t59 23.5q27 0 41 -16.5t14 -39.5q0 -35 -23 -59t-58 -24z" />
    <glyph glyph-name="uni1ECA" unicode="&#x1eca;" horiz-adv-x="350" 
d="M278 534q-8 -45 -17 -98.5t-17.5 -108t-16 -102t-11.5 -81t-4 -46.5q0 -24 8 -32.5t25 -8.5t31 1.5l14 1.5l3 -6l-15 -57l-15 0.5t-37.5 1t-45.5 1t-40 0.5q-19 0 -41.5 -1.5t-42 -3t-32 -3.5l-12.5 -2l14 57q44 9 61 26.5t22 58.5l49 399q4 32 -1.5 42.5t-27.5 10.5
q-9 0 -22 -1l-13 -1q-1 2 -2 3.5t-2 3.5l14 53q8 0 30.5 -0.5t49.5 -1t48 -0.5q16 0 38 1t43 2.5t35 3l14 1.5l-13 -58q-38 -5 -52 -16t-19 -40zM118 -205q-30 0 -44.5 17.5t-14.5 42.5q0 36 23 60.5t61 24.5q29 0 44.5 -17t15.5 -43q0 -36 -23 -60.5t-62 -24.5z" />
    <glyph glyph-name="Igrave" unicode="&#xcc;" horiz-adv-x="351" 
d="M278 534q-8 -45 -17 -98.5t-17.5 -108t-16 -102t-11.5 -81t-4 -46.5q0 -24 8 -32.5t25 -8.5t31 1.5l14 1.5l3 -6l-15 -57l-15 0.5t-37.5 1t-45.5 1t-40 0.5q-19 0 -41.5 -1.5t-42 -3t-32 -3.5l-12.5 -2l14 57q44 9 61 26.5t22 58.5l49 399q4 32 -1.5 42.5t-27.5 10.5
q-9 0 -22 -1l-13 -1q-1 2 -2 3.5t-2 3.5l14 53q8 0 30.5 -0.5t49.5 -1t48 -0.5q16 0 38 1t43 2.5t35 3l14 1.5l-13 -58q-38 -5 -52 -16t-19 -40zM124 770l23 68l11 5l19 -9.5l50 -25t69.5 -34.5t76.5 -37l-10 -39l-12 -8q-41 14 -81 26.5t-71.5 21.5t-50.5 14.5l-19 5.5z
" />
    <glyph glyph-name="uni1EC8" unicode="&#x1ec8;" horiz-adv-x="350" 
d="M278 534q-8 -45 -17 -98.5t-17.5 -108t-16 -102t-11.5 -81t-4 -46.5q0 -24 8 -32.5t25 -8.5t31 1.5l14 1.5l3 -6l-15 -57l-15 0.5t-37.5 1t-45.5 1t-40 0.5q-19 0 -41.5 -1.5t-42 -3t-32 -3.5l-12.5 -2l14 57q44 9 61 26.5t22 58.5l49 399q4 32 -1.5 42.5t-27.5 10.5
q-9 0 -22 -1l-13 -1q-1 2 -2 3.5t-2 3.5l14 53q8 0 30.5 -0.5t49.5 -1t48 -0.5q16 0 38 1t43 2.5t35 3l14 1.5l-13 -58q-38 -5 -52 -16t-19 -40zM166 875l14 11.5t35 26t42 21.5q43 0 66.5 -16.5t23.5 -47.5q0 -14 -7.5 -29t-23 -31t-40.5 -34l19 -39l-51 -26l-32 66
q34 23 47.5 39t13.5 31q0 25 -33 25q-14 0 -28.5 -5.5t-23.5 -11l-9 -5.5z" />
    <glyph glyph-name="uni020A" unicode="&#x20a;" horiz-adv-x="350" 
d="M278 534q-8 -45 -17 -98.5t-17.5 -108t-16 -102t-11.5 -81t-4 -46.5q0 -24 8 -32.5t25 -8.5t31 1.5l14 1.5l3 -6l-15 -57l-15 0.5t-37.5 1t-45.5 1t-40 0.5q-19 0 -41.5 -1.5t-42 -3t-32 -3.5l-12.5 -2l14 57q44 9 61 26.5t22 58.5l49 399q4 32 -1.5 42.5t-27.5 10.5
q-9 0 -22 -1l-13 -1q-1 2 -2 3.5t-2 3.5l14 53q8 0 30.5 -0.5t49.5 -1t48 -0.5q16 0 38 1t43 2.5t35 3l14 1.5l-13 -58q-38 -5 -52 -16t-19 -40zM254 779q-35 0 -64.5 -18t-47.5 -51l-14 4l-22 29q12 30 32 57t50 44.5t68 17.5q41 0 67.5 -18.5t41.5 -46.5t19 -58l-26 -25
l-14 -1q-10 34 -34 50t-56 16z" />
    <glyph glyph-name="Imacron" unicode="&#x12a;" horiz-adv-x="350" 
d="M278 534q-8 -45 -17 -98.5t-17.5 -108t-16 -102t-11.5 -81t-4 -46.5q0 -24 8 -32.5t25 -8.5t31 1.5l14 1.5l3 -6l-15 -57l-15 0.5t-37.5 1t-45.5 1t-40 0.5q-19 0 -41.5 -1.5t-42 -3t-32 -3.5l-12.5 -2l14 57q44 9 61 26.5t22 58.5l49 399q4 32 -1.5 42.5t-27.5 10.5
q-9 0 -22 -1l-13 -1q-1 2 -2 3.5t-2 3.5l14 53q8 0 30.5 -0.5t49.5 -1t48 -0.5q16 0 38 1t43 2.5t35 3l14 1.5l-13 -58q-38 -5 -52 -16t-19 -40zM398 780l-19 -67l-137 -1h-59.5t-53.5 -0.5l-22 -0.5l-8 11l21 66h25t60 -0.5t63 -0.5q24 0 53 1.5t50 3l21 1.5z" />
    <glyph glyph-name="Iogonek" unicode="&#x12e;" horiz-adv-x="350" 
d="M278 534q-8 -45 -17 -98.5t-17.5 -108t-16 -102t-11.5 -81t-4 -46.5q0 -24 8 -32.5t25 -8.5t31 1.5l14 1.5l3 -6l-15 -57l-15 0.5t-37.5 1t-45.5 1t-40 0.5q-19 0 -41.5 -1.5t-42 -3t-32 -3.5l-12.5 -2l14 57q44 9 61 26.5t22 58.5l49 399q4 32 -1.5 42.5t-27.5 10.5
q-9 0 -22 -1l-13 -1q-1 2 -2 3.5t-2 3.5l14 53q8 0 30.5 -0.5t49.5 -1t48 -0.5q16 0 38 1t43 2.5t35 3l14 1.5l-13 -58q-38 -5 -52 -16t-19 -40zM264 -179q-8 -6 -25.5 -19t-39 -26.5t-43.5 -21.5q-48 0 -77 22t-29 63q0 29 18 58t51.5 63t78.5 77h58q-44 -43 -70.5 -73.5
t-38.5 -53t-12 -43.5q0 -19 11.5 -30t30.5 -11q15 0 29.5 4.5t26 10t15.5 8.5z" />
    <glyph glyph-name="J" unicode="J" horiz-adv-x="318" 
d="M148 531q4 32 -1.5 42t-25.5 10q-6 0 -16.5 -0.5t-18.5 -1.5l-8 -1l-2 7l13 53h114q30 0 61 2t53 4l22 2l-12 -58q-33 -6 -43.5 -15.5t-15.5 -40.5q-4 -27 -11 -69t-14.5 -91.5t-15 -99.5t-14 -93.5t-10.5 -73.5q-13 -100 -65 -161t-152 -96l-20 37l4 11q42 26 67.5 54
t38.5 67t21 101z" />
    <glyph glyph-name="Jcircumflex" unicode="&#x134;" horiz-adv-x="318" 
d="M148 531q4 32 -1.5 42t-25.5 10q-6 0 -16.5 -0.5t-18.5 -1.5l-8 -1l-2 7l13 53h114q30 0 61 2t53 4l22 2l-12 -58q-33 -6 -43.5 -15.5t-15.5 -40.5q-4 -27 -11 -69t-14.5 -91.5t-15 -99.5t-14 -93.5t-10.5 -73.5q-13 -100 -65 -161t-152 -96l-20 37l4 11q42 26 67.5 54
t38.5 67t21 101zM76 735q9 7 28 24.5t41.5 39.5t43.5 42.5t35 34l14 13.5h18l10.5 -13.5t26.5 -34t34 -42.5t32.5 -39.5t21.5 -24.5l-29 -35l-14 -3q-3 3 -14 12t-25 21.5t-28 24t-24 20.5t-12 10q-3 -1 -15 -10t-28.5 -20.5t-34 -24t-30.5 -21.5t-17 -12l-13 3z" />
    <glyph glyph-name="K" unicode="K" horiz-adv-x="625" 
d="M158 531q4 32 -1.5 42.5t-27.5 10.5q-8 0 -19 -1l-11 -1l-3 7l14 54l14.5 -0.5t35 -1.5t41 -1h31.5q15 0 36 1t41 2.5t33.5 3l13.5 1.5l-11 -58q-38 -7 -52 -19t-18 -40l-60 -407q-6 -40 0.5 -53.5t29.5 -13.5q15 0 27.5 1.5l12.5 1.5l4 -6l-16 -57l-14.5 0.5t-36.5 1
l-44 1t-38 0.5q-19 0 -41.5 -0.5t-41.5 -1t-31.5 -0.5h-12.5l16 56q44 6 59.5 21t20.5 57zM264 334l171 168q18 18 26.5 32t8.5 24q0 13 -12 19.5t-38 8.5l-3 6l15 54l12 -1t30.5 -2.5t38.5 -2t34 -0.5t32 0.5t35 1.5t28 1.5l11 0.5l3 -9l-12 -51q-21 -7 -39 -18t-39 -30.5
t-51 -49.5l-143 -143l113 -207q25 -45 48 -65t55 -21l5 -7l-13 -46l-13 -2t-31 -4t-34 -4t-22 -2q-28 0 -51.5 21.5t-44.5 63.5l-124 246z" />
    <glyph glyph-name="uni01E8" unicode="&#x1e8;" horiz-adv-x="625" 
d="M158 531q4 32 -1.5 42.5t-27.5 10.5q-8 0 -19 -1l-11 -1l-3 7l14 54l14.5 -0.5t35 -1.5t41 -1h31.5q15 0 36 1t41 2.5t33.5 3l13.5 1.5l-11 -58q-38 -7 -52 -19t-18 -40l-60 -407q-6 -40 0.5 -53.5t29.5 -13.5q15 0 27.5 1.5l12.5 1.5l4 -6l-16 -57l-14.5 0.5t-36.5 1
l-44 1t-38 0.5q-19 0 -41.5 -0.5t-41.5 -1t-31.5 -0.5h-12.5l16 56q44 6 59.5 21t20.5 57zM264 334l171 168q18 18 26.5 32t8.5 24q0 13 -12 19.5t-38 8.5l-3 6l15 54l12 -1t30.5 -2.5t38.5 -2t34 -0.5t32 0.5t35 1.5t28 1.5l11 0.5l3 -9l-12 -51q-21 -7 -39 -18t-39 -30.5
t-51 -49.5l-143 -143l113 -207q25 -45 48 -65t55 -21l5 -7l-13 -46l-13 -2t-31 -4t-34 -4t-22 -2q-28 0 -51.5 21.5t-44.5 63.5l-124 246zM560 826q-9 -6 -28 -20t-42 -31t-44 -33t-34.5 -26l-13.5 -10h-18l-11 10t-28 26t-35.5 33t-34 31t-22.5 20l24 35l15 3q5 -3 22 -12
t36.5 -19.5t35.5 -19.5t19 -10q3 1 15.5 7t29.5 14.5t34.5 16.5t31 14.5t17.5 8.5l13 -3z" />
    <glyph glyph-name="uni0136" unicode="&#x136;" horiz-adv-x="625" 
d="M158 531q4 32 -1.5 42.5t-27.5 10.5q-8 0 -19 -1l-11 -1l-3 7l14 54l14.5 -0.5t35 -1.5t41 -1h31.5q15 0 36 1t41 2.5t33.5 3l13.5 1.5l-11 -58q-38 -7 -52 -19t-18 -40l-60 -407q-6 -40 0.5 -53.5t29.5 -13.5q15 0 27.5 1.5l12.5 1.5l4 -6l-16 -57l-14.5 0.5t-36.5 1
l-44 1t-38 0.5q-19 0 -41.5 -0.5t-41.5 -1t-31.5 -0.5h-12.5l16 56q44 6 59.5 21t20.5 57zM264 334l171 168q18 18 26.5 32t8.5 24q0 13 -12 19.5t-38 8.5l-3 6l15 54l12 -1t30.5 -2.5t38.5 -2t34 -0.5t32 0.5t35 1.5t28 1.5l11 0.5l3 -9l-12 -51q-21 -7 -39 -18t-39 -30.5
t-51 -49.5l-143 -143l113 -207q25 -45 48 -65t55 -21l5 -7l-13 -46l-13 -2t-31 -4t-34 -4t-22 -2q-28 0 -51.5 21.5t-44.5 63.5l-124 246zM299 -88q16 12 35.5 22t36.5 10q28 0 46 -22t18 -59q0 -36 -20.5 -68t-52 -58.5t-67.5 -46.5l-31 25v15q29 20 49 48t20 53
q0 20 -10.5 38t-25.5 29z" />
    <glyph glyph-name="L" unicode="L" horiz-adv-x="504" 
d="M174 0q-40 0 -75.5 -2.5t-57.5 -5l-22 -2.5l15 59q37 6 53 24t21 61l50 397q4 32 -2.5 42.5t-26.5 10.5q-8 0 -19.5 -1l-11.5 -1q0 2 -1 3.5t-2 3.5l14 53q9 0 30.5 -0.5t47 -1t45.5 -0.5q16 0 39 1t45 2.5t36.5 3l14.5 1.5l-13 -60q-30 -4 -45 -10t-22.5 -22t-13.5 -50
q-6 -32 -13.5 -78t-15.5 -96.5t-14.5 -97.5t-11 -80.5t-4.5 -44.5q0 -26 12.5 -35t48.5 -9q37 0 61 5.5t39.5 21t27.5 45t23 76.5l71 7q0 -2 1.5 -3.5t2.5 -3.5l-8.5 -30.5t-20.5 -79t-24 -103.5l-9 -8l-25.5 1t-66.5 2.5t-87 3t-86 1.5z" />
    <glyph glyph-name="uni01C7" unicode="&#x1c7;" horiz-adv-x="822" 
d="M174 0q-40 0 -75.5 -2.5t-57.5 -5l-22 -2.5l15 59q37 6 53 24t21 61l50 397q4 32 -2.5 42.5t-26.5 10.5q-8 0 -19.5 -1l-11.5 -1q0 2 -1 3.5t-2 3.5l14 53q9 0 30.5 -0.5t47 -1t45.5 -0.5q16 0 39 1t45 2.5t36.5 3l14.5 1.5l-13 -60q-30 -4 -45 -10t-22.5 -22t-13.5 -50
q-6 -32 -13.5 -78t-15.5 -96.5t-14.5 -97.5t-11 -80.5t-4.5 -44.5q0 -26 12.5 -35t48.5 -9q37 0 61 5.5t39.5 21t27.5 45t23 76.5l71 7q0 -2 1.5 -3.5t2.5 -3.5l-8.5 -30.5t-20.5 -79t-24 -103.5l-9 -8l-25.5 1t-66.5 2.5t-87 3t-86 1.5zM652 531q4 32 -1.5 42t-25.5 10
q-6 0 -16.5 -0.5t-18.5 -1.5l-8 -1l-2 7l13 53h114q30 0 61 2t53 4l22 2l-12 -58q-33 -6 -43.5 -15.5t-15.5 -40.5q-4 -27 -11 -69t-14.5 -91.5t-15 -99.5t-14 -93.5t-10.5 -73.5q-13 -100 -65 -161t-152 -96l-20 37l4 11q42 26 67.5 54t38.5 67t21 101z" />
    <glyph glyph-name="Lacute" unicode="&#x139;" horiz-adv-x="504" 
d="M174 0q-40 0 -75.5 -2.5t-57.5 -5l-22 -2.5l15 59q37 6 53 24t21 61l50 397q4 32 -2.5 42.5t-26.5 10.5q-8 0 -19.5 -1l-11.5 -1q0 2 -1 3.5t-2 3.5l14 53q9 0 30.5 -0.5t47 -1t45.5 -0.5q16 0 39 1t45 2.5t36.5 3l14.5 1.5l-13 -60q-30 -4 -45 -10t-22.5 -22t-13.5 -50
q-6 -32 -13.5 -78t-15.5 -96.5t-14.5 -97.5t-11 -80.5t-4.5 -44.5q0 -26 12.5 -35t48.5 -9q37 0 61 5.5t39.5 21t27.5 45t23 76.5l71 7q0 -2 1.5 -3.5t2.5 -3.5l-8.5 -30.5t-20.5 -79t-24 -103.5l-9 -8l-25.5 1t-66.5 2.5t-87 3t-86 1.5zM375 759l-19 -5.5t-50.5 -15
t-71 -21.5t-81.5 -26l-11 7l-11 40q38 17 76.5 36t69.5 34.5t50 25.5l19 10l11 -6l23 -68z" />
    <glyph glyph-name="Lcaron" unicode="&#x13d;" horiz-adv-x="518" 
d="M552 629l-8.5 -31.5t-23 -81t-32.5 -102.5l-42 -18l-13 4q9 56 13 107.5t5.5 84l1.5 32.5l92 14zM174 0q-40 0 -75.5 -2.5t-57.5 -5l-22 -2.5l15 59q37 6 53 24t21 61l50 397q4 32 -2.5 42.5t-26.5 10.5q-8 0 -19.5 -1l-11.5 -1q0 2 -1 3.5t-2 3.5l14 53q9 0 30.5 -0.5
t47 -1t45.5 -0.5q16 0 39 1t45 2.5t36.5 3l14.5 1.5l-13 -60q-30 -4 -45 -10t-22.5 -22t-13.5 -50q-6 -32 -13.5 -78t-15.5 -96.5t-14.5 -97.5t-11 -80.5t-4.5 -44.5q0 -26 12.5 -35t48.5 -9q37 0 61 5.5t39.5 21t27.5 45t23 76.5l71 7q0 -2 1.5 -3.5t2.5 -3.5l-8.5 -30.5
t-20.5 -79t-24 -103.5l-9 -8l-25.5 1t-66.5 2.5t-87 3t-86 1.5z" />
    <glyph glyph-name="uni013B" unicode="&#x13b;" horiz-adv-x="504" 
d="M174 0q-40 0 -75.5 -2.5t-57.5 -5l-22 -2.5l15 59q37 6 53 24t21 61l50 397q4 32 -2.5 42.5t-26.5 10.5q-8 0 -19.5 -1l-11.5 -1q0 2 -1 3.5t-2 3.5l14 53q9 0 30.5 -0.5t47 -1t45.5 -0.5q16 0 39 1t45 2.5t36.5 3l14.5 1.5l-13 -60q-30 -4 -45 -10t-22.5 -22t-13.5 -50
q-6 -32 -13.5 -78t-15.5 -96.5t-14.5 -97.5t-11 -80.5t-4.5 -44.5q0 -26 12.5 -35t48.5 -9q37 0 61 5.5t39.5 21t27.5 45t23 76.5l71 7q0 -2 1.5 -3.5t2.5 -3.5l-8.5 -30.5t-20.5 -79t-24 -103.5l-9 -8l-25.5 1t-66.5 2.5t-87 3t-86 1.5zM178 -88q16 12 35.5 22t36.5 10
q28 0 46 -22t18 -59q0 -36 -20.5 -68t-52 -58.5t-67.5 -46.5l-31 25v15q29 20 49 48t20 53q0 20 -10.5 38t-25.5 29z" />
    <glyph glyph-name="Ldot" unicode="&#x13f;" horiz-adv-x="538" 
d="M174 0q-40 0 -75.5 -2.5t-57.5 -5l-22 -2.5l15 59q37 6 53 24t21 61l50 397q4 32 -2.5 42.5t-26.5 10.5q-8 0 -19.5 -1l-11.5 -1q0 2 -1 3.5t-2 3.5l14 53q9 0 30.5 -0.5t47 -1t45.5 -0.5q16 0 39 1t45 2.5t36.5 3l14.5 1.5l-13 -60q-30 -4 -45 -10t-22.5 -22t-13.5 -50
q-6 -32 -13.5 -78t-15.5 -96.5t-14.5 -97.5t-11 -80.5t-4.5 -44.5q0 -26 12.5 -35t48.5 -9q37 0 61 5.5t39.5 21t27.5 45t23 76.5l71 7q0 -2 1.5 -3.5t2.5 -3.5l-8.5 -30.5t-20.5 -79t-24 -103.5l-9 -8l-25.5 1t-66.5 2.5t-87 3t-86 1.5zM445 401q-30 0 -44.5 17.5
t-14.5 42.5q0 37 23 61t60 24q29 0 44.5 -16.5t15.5 -43.5q0 -36 -23.5 -60.5t-60.5 -24.5z" />
    <glyph glyph-name="uni1E36" unicode="&#x1e36;" horiz-adv-x="504" 
d="M174 0q-40 0 -75.5 -2.5t-57.5 -5l-22 -2.5l15 59q37 6 53 24t21 61l50 397q4 32 -2.5 42.5t-26.5 10.5q-8 0 -19.5 -1l-11.5 -1q0 2 -1 3.5t-2 3.5l14 53q9 0 30.5 -0.5t47 -1t45.5 -0.5q16 0 39 1t45 2.5t36.5 3l14.5 1.5l-13 -60q-30 -4 -45 -10t-22.5 -22t-13.5 -50
q-6 -32 -13.5 -78t-15.5 -96.5t-14.5 -97.5t-11 -80.5t-4.5 -44.5q0 -26 12.5 -35t48.5 -9q37 0 61 5.5t39.5 21t27.5 45t23 76.5l71 7q0 -2 1.5 -3.5t2.5 -3.5l-8.5 -30.5t-20.5 -79t-24 -103.5l-9 -8l-25.5 1t-66.5 2.5t-87 3t-86 1.5zM222 -205q-30 0 -44.5 17.5
t-14.5 42.5q0 36 23 60.5t61 24.5q29 0 44.5 -17t15.5 -43q0 -36 -23 -60.5t-62 -24.5z" />
    <glyph glyph-name="uni01C8" unicode="&#x1c8;" horiz-adv-x="767" 
d="M174 0q-40 0 -75.5 -2.5t-57.5 -5l-22 -2.5l15 59q37 6 53 24t21 61l50 397q4 32 -2.5 42.5t-26.5 10.5q-8 0 -19.5 -1l-11.5 -1q0 2 -1 3.5t-2 3.5l14 53q9 0 30.5 -0.5t47 -1t45.5 -0.5q16 0 39 1t45 2.5t36.5 3l14.5 1.5l-13 -60q-30 -4 -45 -10t-22.5 -22t-13.5 -50
q-6 -32 -13.5 -78t-15.5 -96.5t-14.5 -97.5t-11 -80.5t-4.5 -44.5q0 -26 12.5 -35t48.5 -9q37 0 61 5.5t39.5 21t27.5 45t23 76.5l71 7q0 -2 1.5 -3.5t2.5 -3.5l-8.5 -30.5t-20.5 -79t-24 -103.5l-9 -8l-25.5 1t-66.5 2.5t-87 3t-86 1.5zM655 19q-8 -63 -33 -112.5
t-64.5 -86.5t-93.5 -63l-23 27l3 10q38 28 62 58t38 74t22 110l3.5 21.5t9.5 55t12 72.5t12 75.5t9.5 63t3.5 35.5q0 40 -41 40h-36l9 52q26 0 57 1.5t59 2.5t46 2.5l18 1.5l12 -15l-6 -24.5t-15.5 -67t-21 -97t-22.5 -115.5t-20 -121zM687 577q-25 0 -39 15.5t-14 39.5
q0 37 23 60t58 23q25 0 39 -14.5t14 -39.5q0 -36 -23 -60t-58 -24z" />
    <glyph glyph-name="uni1E3A" unicode="&#x1e3a;" horiz-adv-x="504" 
d="M174 0q-40 0 -75.5 -2.5t-57.5 -5l-22 -2.5l15 59q37 6 53 24t21 61l50 397q4 32 -2.5 42.5t-26.5 10.5q-8 0 -19.5 -1l-11.5 -1q0 2 -1 3.5t-2 3.5l14 53q9 0 30.5 -0.5t47 -1t45.5 -0.5q16 0 39 1t45 2.5t36.5 3l14.5 1.5l-13 -60q-30 -4 -45 -10t-22.5 -22t-13.5 -50
q-6 -32 -13.5 -78t-15.5 -96.5t-14.5 -97.5t-11 -80.5t-4.5 -44.5q0 -26 12.5 -35t48.5 -9q37 0 61 5.5t39.5 21t27.5 45t23 76.5l71 7q0 -2 1.5 -3.5t2.5 -3.5l-8.5 -30.5t-20.5 -79t-24 -103.5l-9 -8l-25.5 1t-66.5 2.5t-87 3t-86 1.5zM385 -104l-19 -67l-136 -1h-60
t-53.5 -0.5l-21.5 -0.5l-8 11l20 66h25.5t60.5 -0.5t63 -0.5q24 0 53 1.5t49.5 3l20.5 1.5z" />
    <glyph glyph-name="Lslash" unicode="&#x141;" horiz-adv-x="509" 
d="M180 307l-130 -65l-9 3l-14 52l153 76v-11l199 99l8 -5l14 -51l-221 -109v11zM177 0q-40 0 -75.5 -2.5t-57.5 -5l-22 -2.5l15 59q38 6 53.5 24t20.5 61l50 397q4 32 -2.5 42.5t-26.5 10.5q-8 0 -19 -1l-11 -1q-1 2 -2 3.5t-1 3.5l13 53q9 0 30.5 -0.5t47 -1t46.5 -0.5
q16 0 38.5 1t44.5 2.5t36.5 3l14.5 1.5l-13 -60q-30 -4 -45 -10t-22 -22t-14 -50q-5 -32 -13 -78t-15.5 -96.5t-14.5 -97.5t-11 -80.5t-4 -44.5q0 -26 12 -35t48 -9q37 0 61 5.5t39.5 21t27.5 45t23 76.5l71 7q1 -2 2 -3.5t2 -3.5l-8 -30.5t-20 -79t-25 -103.5l-9 -8
l-25.5 1t-66.5 2.5t-87 3t-86 1.5z" />
    <glyph glyph-name="M" unicode="M" horiz-adv-x="811" 
d="M333 -17q-22 116 -40 204.5t-32.5 158.5t-26.5 129h-7q-22 -120 -36 -195.5t-21.5 -118l-10.5 -59.5t-3 -20q0 -26 27 -26q4 0 15 0.5t20 1.5q0 -2 1 -3l2 -2l-17 -57q-21 2 -42 2.5t-38 1t-28 0.5q-7 0 -18.5 -0.5t-24 -2t-25.5 -2.5t-25 -3l14 58q30 5 44.5 21t23.5 53
q4 23 12 60.5t18 83.5t20 92.5t18 87t13 67t5 32.5q0 20 -16 30t-54 13l-4 5l14 50q45 -2 74.5 -3.5t41.5 -1.5q14 0 39 1.5t54 2.5q8 -55 18 -115t21 -119.5t22.5 -114t21.5 -96.5h7q22 47 53 118.5t66 155.5t70 169q10 0 27.5 -0.5t37 -1.5t36.5 0q18 0 48.5 2t51.5 4
l2 -2t1 -2l-12 -52q-42 -4 -58.5 -15.5t-19.5 -38.5q-2 -15 -4 -49t-4.5 -77.5t-4.5 -91t-3.5 -91.5t-3.5 -77q-1 -55 6 -74t30 -19q4 0 11.5 0.5t15.5 1.5q1 -2 2 -3t1 -2l-16 -57q-18 1 -45.5 2t-49.5 1q-10 0 -26 -0.5t-34.5 -2t-36 -2.5t-32.5 -3l14 59q29 3 43 15
t17 34q1 10 3.5 46.5t6 89.5t7 115t6.5 124h-8l-35 -77t-46 -102t-60 -133.5t-78 -171.5z" />
    <glyph glyph-name="uni1E42" unicode="&#x1e42;" horiz-adv-x="811" 
d="M333 -17q-22 116 -40 204.5t-32.5 158.5t-26.5 129h-7q-22 -120 -36 -195.5t-21.5 -118l-10.5 -59.5t-3 -20q0 -26 27 -26q4 0 15 0.5t20 1.5q0 -2 1 -3l2 -2l-17 -57q-21 2 -42 2.5t-38 1t-28 0.5q-7 0 -18.5 -0.5t-24 -2t-25.5 -2.5t-25 -3l14 58q30 5 44.5 21t23.5 53
q4 23 12 60.5t18 83.5t20 92.5t18 87t13 67t5 32.5q0 20 -16 30t-54 13l-4 5l14 50q45 -2 74.5 -3.5t41.5 -1.5q14 0 39 1.5t54 2.5q8 -55 18 -115t21 -119.5t22.5 -114t21.5 -96.5h7q22 47 53 118.5t66 155.5t70 169q10 0 27.5 -0.5t37 -1.5t36.5 0q18 0 48.5 2t51.5 4
l2 -2t1 -2l-12 -52q-42 -4 -58.5 -15.5t-19.5 -38.5q-2 -15 -4 -49t-4.5 -77.5t-4.5 -91t-3.5 -91.5t-3.5 -77q-1 -55 6 -74t30 -19q4 0 11.5 0.5t15.5 1.5q1 -2 2 -3t1 -2l-16 -57q-18 1 -45.5 2t-49.5 1q-10 0 -26 -0.5t-34.5 -2t-36 -2.5t-32.5 -3l14 59q29 3 43 15
t17 34q1 10 3.5 46.5t6 89.5t7 115t6.5 124h-8l-35 -77t-46 -102t-60 -133.5t-78 -171.5zM373 -205q-30 0 -44.5 17.5t-14.5 42.5q0 36 23 60.5t61 24.5q29 0 44.5 -17t15.5 -43q0 -36 -23 -60.5t-62 -24.5z" />
    <glyph glyph-name="N" unicode="N" horiz-adv-x="698" 
d="M515 199l41 341q2 24 -4.5 33.5t-22.5 9.5h-21.5h-12.5l-3 6l15 55l11.5 -0.5t30 -1.5t37.5 -1.5t34 -0.5q23 0 48 1.5t43 3.5l18 2l-12 -59q-33 -4 -49.5 -19t-21.5 -44l-79 -544l-79 -13q-48 101 -92.5 189.5t-79.5 155l-55 104.5l-20 38h-7l-47 -356q-3 -24 3.5 -33.5
t24.5 -9.5q5 0 15.5 0.5t19 1l8.5 0.5l4 -5l-16 -57l-12 0.5t-30.5 1.5t-38.5 1.5t-36 0.5q-23 0 -49 -2t-43.5 -4l-17.5 -2l14 58q30 4 46 18.5t20 44.5l63 413q4 31 -11 43.5t-62 17.5q-1 3 -2 4.5t-2 3.5l12 50l17.5 -1t41 -2.5t44.5 -1.5q19 0 38 1t32 2l13 1
q41 -87 80.5 -166.5t72 -142.5t52 -99.5l19.5 -36.5h8z" />
    <glyph glyph-name="uni01CA" unicode="&#x1ca;" horiz-adv-x="1017" 
d="M515 199l41 341q2 24 -4.5 33.5t-22.5 9.5h-21.5h-12.5l-3 6l15 55l11.5 -0.5t30 -1.5t37.5 -1.5t34 -0.5q23 0 48 1.5t43 3.5l18 2l-12 -59q-33 -4 -49.5 -19t-21.5 -44l-79 -544l-79 -13q-48 101 -92.5 189.5t-79.5 155l-55 104.5l-20 38h-7l-47 -356q-3 -24 3.5 -33.5
t24.5 -9.5q5 0 15.5 0.5t19 1l8.5 0.5l4 -5l-16 -57l-12 0.5t-30.5 1.5t-38.5 1.5t-36 0.5q-23 0 -49 -2t-43.5 -4l-17.5 -2l14 58q30 4 46 18.5t20 44.5l63 413q4 31 -11 43.5t-62 17.5q-1 3 -2 4.5t-2 3.5l12 50l17.5 -1t41 -2.5t44.5 -1.5q19 0 38 1t32 2l13 1
q41 -87 80.5 -166.5t72 -142.5t52 -99.5l19.5 -36.5h8zM846 531q4 32 -1.5 42t-25.5 10q-6 0 -16.5 -0.5t-18.5 -1.5l-8 -1l-2 7l13 53h114q30 0 61 2t53 4l22 2l-12 -58q-33 -6 -43.5 -15.5t-15.5 -40.5q-4 -27 -11 -69t-14.5 -91.5t-15 -99.5t-14 -93.5t-10.5 -73.5
q-13 -100 -65 -161t-152 -96l-20 37l4 11q42 26 67.5 54t38.5 67t21 101z" />
    <glyph glyph-name="Nacute" unicode="&#x143;" horiz-adv-x="698" 
d="M515 199l41 341q2 24 -4.5 33.5t-22.5 9.5h-21.5h-12.5l-3 6l15 55l11.5 -0.5t30 -1.5t37.5 -1.5t34 -0.5q23 0 48 1.5t43 3.5l18 2l-12 -59q-33 -4 -49.5 -19t-21.5 -44l-79 -544l-79 -13q-48 101 -92.5 189.5t-79.5 155l-55 104.5l-20 38h-7l-47 -356q-3 -24 3.5 -33.5
t24.5 -9.5q5 0 15.5 0.5t19 1l8.5 0.5l4 -5l-16 -57l-12 0.5t-30.5 1.5t-38.5 1.5t-36 0.5q-23 0 -49 -2t-43.5 -4l-17.5 -2l14 58q30 4 46 18.5t20 44.5l63 413q4 31 -11 43.5t-62 17.5q-1 3 -2 4.5t-2 3.5l12 50l17.5 -1t41 -2.5t44.5 -1.5q19 0 38 1t32 2l13 1
q41 -87 80.5 -166.5t72 -142.5t52 -99.5l19.5 -36.5h8zM535 759l-19 -5.5t-50.5 -15t-71 -21.5t-81.5 -26l-11 7l-11 40q38 17 76.5 36t69.5 34.5t50 25.5l19 10l11 -6l23 -68z" />
    <glyph glyph-name="Ncaron" unicode="&#x147;" horiz-adv-x="698" 
d="M515 199l41 341q2 24 -4.5 33.5t-22.5 9.5h-21.5h-12.5l-3 6l15 55l11.5 -0.5t30 -1.5t37.5 -1.5t34 -0.5q23 0 48 1.5t43 3.5l18 2l-12 -59q-33 -4 -49.5 -19t-21.5 -44l-79 -544l-79 -13q-48 101 -92.5 189.5t-79.5 155l-55 104.5l-20 38h-7l-47 -356q-3 -24 3.5 -33.5
t24.5 -9.5q5 0 15.5 0.5t19 1l8.5 0.5l4 -5l-16 -57l-12 0.5t-30.5 1.5t-38.5 1.5t-36 0.5q-23 0 -49 -2t-43.5 -4l-17.5 -2l14 58q30 4 46 18.5t20 44.5l63 413q4 31 -11 43.5t-62 17.5q-1 3 -2 4.5t-2 3.5l12 50l17.5 -1t41 -2.5t44.5 -1.5q19 0 38 1t32 2l13 1
q41 -87 80.5 -166.5t72 -142.5t52 -99.5l19.5 -36.5h8zM572 819q-9 -6 -28 -20t-42 -31t-44 -33t-34.5 -26l-13.5 -10h-18l-11 10t-28 26t-35.5 33t-34 31t-22.5 20l24 35l15 3q5 -3 22 -12t36.5 -19.5t35.5 -19.5t19 -10q3 1 15.5 7t29.5 14.5t34.5 16.5t31 14.5t17.5 8.5
l13 -3z" />
    <glyph glyph-name="uni0145" unicode="&#x145;" horiz-adv-x="698" 
d="M515 199l41 341q2 24 -4.5 33.5t-22.5 9.5h-21.5h-12.5l-3 6l15 55l11.5 -0.5t30 -1.5t37.5 -1.5t34 -0.5q23 0 48 1.5t43 3.5l18 2l-12 -59q-33 -4 -49.5 -19t-21.5 -44l-79 -544l-79 -13q-48 101 -92.5 189.5t-79.5 155l-55 104.5l-20 38h-7l-47 -356q-3 -24 3.5 -33.5
t24.5 -9.5q5 0 15.5 0.5t19 1l8.5 0.5l4 -5l-16 -57l-12 0.5t-30.5 1.5t-38.5 1.5t-36 0.5q-23 0 -49 -2t-43.5 -4l-17.5 -2l14 58q30 4 46 18.5t20 44.5l63 413q4 31 -11 43.5t-62 17.5q-1 3 -2 4.5t-2 3.5l12 50l17.5 -1t41 -2.5t44.5 -1.5q19 0 38 1t32 2l13 1
q41 -87 80.5 -166.5t72 -142.5t52 -99.5l19.5 -36.5h8zM248 -88q16 12 35.5 22t36.5 10q28 0 46 -22t18 -59q0 -36 -20.5 -68t-52 -58.5t-67.5 -46.5l-31 25v15q29 20 49 48t20 53q0 20 -10.5 38t-25.5 29z" />
    <glyph glyph-name="uni1E44" unicode="&#x1e44;" horiz-adv-x="698" 
d="M515 199l41 341q2 24 -4.5 33.5t-22.5 9.5h-21.5h-12.5l-3 6l15 55l11.5 -0.5t30 -1.5t37.5 -1.5t34 -0.5q23 0 48 1.5t43 3.5l18 2l-12 -59q-33 -4 -49.5 -19t-21.5 -44l-79 -544l-79 -13q-48 101 -92.5 189.5t-79.5 155l-55 104.5l-20 38h-7l-47 -356q-3 -24 3.5 -33.5
t24.5 -9.5q5 0 15.5 0.5t19 1l8.5 0.5l4 -5l-16 -57l-12 0.5t-30.5 1.5t-38.5 1.5t-36 0.5q-23 0 -49 -2t-43.5 -4l-17.5 -2l14 58q30 4 46 18.5t20 44.5l63 413q4 31 -11 43.5t-62 17.5q-1 3 -2 4.5t-2 3.5l12 50l17.5 -1t41 -2.5t44.5 -1.5q19 0 38 1t32 2l13 1
q41 -87 80.5 -166.5t72 -142.5t52 -99.5l19.5 -36.5h8zM404 707q-27 0 -41.5 16.5t-14.5 40.5q0 35 23 58.5t59 23.5q27 0 41 -16.5t14 -39.5q0 -35 -23 -59t-58 -24z" />
    <glyph glyph-name="uni1E46" unicode="&#x1e46;" horiz-adv-x="698" 
d="M515 199l41 341q2 24 -4.5 33.5t-22.5 9.5h-21.5h-12.5l-3 6l15 55l11.5 -0.5t30 -1.5t37.5 -1.5t34 -0.5q23 0 48 1.5t43 3.5l18 2l-12 -59q-33 -4 -49.5 -19t-21.5 -44l-79 -544l-79 -13q-48 101 -92.5 189.5t-79.5 155l-55 104.5l-20 38h-7l-47 -356q-3 -24 3.5 -33.5
t24.5 -9.5q5 0 15.5 0.5t19 1l8.5 0.5l4 -5l-16 -57l-12 0.5t-30.5 1.5t-38.5 1.5t-36 0.5q-23 0 -49 -2t-43.5 -4l-17.5 -2l14 58q30 4 46 18.5t20 44.5l63 413q4 31 -11 43.5t-62 17.5q-1 3 -2 4.5t-2 3.5l12 50l17.5 -1t41 -2.5t44.5 -1.5q19 0 38 1t32 2l13 1
q41 -87 80.5 -166.5t72 -142.5t52 -99.5l19.5 -36.5h8zM292 -205q-30 0 -44.5 17.5t-14.5 42.5q0 36 23 60.5t61 24.5q29 0 44.5 -17t15.5 -43q0 -36 -23 -60.5t-62 -24.5z" />
    <glyph glyph-name="Eng" unicode="&#x14a;" horiz-adv-x="699" 
d="M197 640q14 0 34.5 1t36.5 2l16 1q28 -61 59 -124t60.5 -120t52.5 -101.5t37 -71l14 -26.5h8l41 339q2 23 -4 33t-23 10q-10 0 -22 -0.5l-12 -0.5l-3 6l15 56l13.5 -0.5t32.5 -1.5t38 -1.5t31 -0.5q21 1 46.5 2.5t43.5 3l18 1.5l-12 -59q-34 -4 -49.5 -19t-20.5 -44
l-63 -439q-16 -99 -68 -156.5t-155 -89.5l-20 38l4 11q48 21 77.5 49.5t46.5 66.5q-46 94 -87 175.5t-72.5 142.5t-50 95l-18.5 34h-8l-45 -352q-3 -24 3 -33.5t24 -9.5q5 0 15.5 0.5t19 1l8.5 0.5l4 -5l-16 -58l-21 1t-51.5 2t-58.5 1q-19 0 -41.5 -2t-39 -4l-16.5 -2
l14 59q32 3 47 20t22 59l59 395q4 31 -10 43.5t-61 18.5l-6 8l13 50l18.5 -1t42.5 -2.5t39 -1.5z" />
    <glyph glyph-name="uni01CB" unicode="&#x1cb;" horiz-adv-x="961" 
d="M515 199l41 341q2 24 -4.5 33.5t-22.5 9.5h-21.5h-12.5l-3 6l15 55l11.5 -0.5t30 -1.5t37.5 -1.5t34 -0.5q23 0 48 1.5t43 3.5l18 2l-12 -59q-33 -4 -49.5 -19t-21.5 -44l-79 -544l-79 -13q-48 101 -92.5 189.5t-79.5 155l-55 104.5l-20 38h-7l-47 -356q-3 -24 3.5 -33.5
t24.5 -9.5q5 0 15.5 0.5t19 1l8.5 0.5l4 -5l-16 -57l-12 0.5t-30.5 1.5t-38.5 1.5t-36 0.5q-23 0 -49 -2t-43.5 -4l-17.5 -2l14 58q30 4 46 18.5t20 44.5l63 413q4 31 -11 43.5t-62 17.5q-1 3 -2 4.5t-2 3.5l12 50l17.5 -1t41 -2.5t44.5 -1.5q19 0 38 1t32 2l13 1
q41 -87 80.5 -166.5t72 -142.5t52 -99.5l19.5 -36.5h8zM849 19q-8 -63 -33 -112.5t-64.5 -86.5t-93.5 -63l-23 27l3 10q38 28 62 58t38 74t22 110l3.5 21.5t9.5 55t12 72.5t12 75.5t9.5 63t3.5 35.5q0 40 -41 40h-36l9 52q26 0 57 1.5t59 2.5t46 2.5l18 1.5l12 -15l-6 -24.5
t-15.5 -67t-21 -97t-22.5 -115.5t-20 -121zM881 577q-25 0 -39 15.5t-14 39.5q0 37 23 60t58 23q25 0 39 -14.5t14 -39.5q0 -36 -23 -60t-58 -24z" />
    <glyph glyph-name="uni1E48" unicode="&#x1e48;" horiz-adv-x="698" 
d="M515 199l41 341q2 24 -4.5 33.5t-22.5 9.5h-21.5h-12.5l-3 6l15 55l11.5 -0.5t30 -1.5t37.5 -1.5t34 -0.5q23 0 48 1.5t43 3.5l18 2l-12 -59q-33 -4 -49.5 -19t-21.5 -44l-79 -544l-79 -13q-48 101 -92.5 189.5t-79.5 155l-55 104.5l-20 38h-7l-47 -356q-3 -24 3.5 -33.5
t24.5 -9.5q5 0 15.5 0.5t19 1l8.5 0.5l4 -5l-16 -57l-12 0.5t-30.5 1.5t-38.5 1.5t-36 0.5q-23 0 -49 -2t-43.5 -4l-17.5 -2l14 58q30 4 46 18.5t20 44.5l63 413q4 31 -11 43.5t-62 17.5q-1 3 -2 4.5t-2 3.5l12 50l17.5 -1t41 -2.5t44.5 -1.5q19 0 38 1t32 2l13 1
q41 -87 80.5 -166.5t72 -142.5t52 -99.5l19.5 -36.5h8zM456 -104l-19 -67l-136 -1h-60t-53.5 -0.5l-21.5 -0.5l-8 11l20 66h25.5t60.5 -0.5t63 -0.5q24 0 53 1.5t49.5 3l20.5 1.5z" />
    <glyph glyph-name="Ntilde" unicode="&#xd1;" horiz-adv-x="698" 
d="M515 199l41 341q2 24 -4.5 33.5t-22.5 9.5h-21.5h-12.5l-3 6l15 55l11.5 -0.5t30 -1.5t37.5 -1.5t34 -0.5q23 0 48 1.5t43 3.5l18 2l-12 -59q-33 -4 -49.5 -19t-21.5 -44l-79 -544l-79 -13q-48 101 -92.5 189.5t-79.5 155l-55 104.5l-20 38h-7l-47 -356q-3 -24 3.5 -33.5
t24.5 -9.5q5 0 15.5 0.5t19 1l8.5 0.5l4 -5l-16 -57l-12 0.5t-30.5 1.5t-38.5 1.5t-36 0.5q-23 0 -49 -2t-43.5 -4l-17.5 -2l14 58q30 4 46 18.5t20 44.5l63 413q4 31 -11 43.5t-62 17.5q-1 3 -2 4.5t-2 3.5l12 50l17.5 -1t41 -2.5t44.5 -1.5q19 0 38 1t32 2l13 1
q41 -87 80.5 -166.5t72 -142.5t52 -99.5l19.5 -36.5h8zM271 691l-30 32l1 9l86 90l16 4q16 0 44 -8t55 -16.5t40 -8.5q9 0 20.5 7.5t22.5 17t18.5 17l7.5 7.5h9l30 -32l-1 -8l-86 -91l-17 -4q-16 0 -43.5 8.5t-54 16.5t-40.5 8q-9 0 -20.5 -7.5t-22.5 -17t-18.5 -17
l-7.5 -7.5h-9z" />
    <glyph glyph-name="O" unicode="O" horiz-adv-x="655" 
d="M292 -12q-75 0 -133 33t-90.5 93t-32.5 141q0 86 25.5 158.5t71.5 126t109.5 83t139.5 29.5q78 0 136 -33t91 -92.5t33 -139.5q0 -86 -25.5 -159t-72.5 -127t-111 -83.5t-141 -29.5zM311 61q59 0 103.5 36.5t69 104.5t24.5 160q0 65 -18 111.5t-51.5 71.5t-78.5 25
q-57 0 -101 -37t-68.5 -104.5t-24.5 -160.5q0 -64 18 -110.5t50.5 -71.5t76.5 -25z" />
    <glyph glyph-name="Oacute" unicode="&#xd3;" horiz-adv-x="653" 
d="M292 -12q-75 0 -133 33t-90.5 93t-32.5 141q0 86 25.5 158.5t71.5 126t109.5 83t139.5 29.5q78 0 136 -33t91 -92.5t33 -139.5q0 -86 -25.5 -159t-72.5 -127t-111 -83.5t-141 -29.5zM311 61q59 0 103.5 36.5t69 104.5t24.5 160q0 65 -18 111.5t-51.5 71.5t-78.5 25
q-57 0 -101 -37t-68.5 -104.5t-24.5 -160.5q0 -64 18 -110.5t50.5 -71.5t76.5 -25zM513 759l-19 -5.5t-50.5 -15t-71 -21.5t-81.5 -26l-11 7l-11 40q38 17 76.5 36t69.5 34.5t50 25.5l19 10l11 -6l23 -68z" />
    <glyph glyph-name="Obreve" unicode="&#x14e;" horiz-adv-x="655" 
d="M292 -12q-75 0 -133 33t-90.5 93t-32.5 141q0 86 25.5 158.5t71.5 126t109.5 83t139.5 29.5q78 0 136 -33t91 -92.5t33 -139.5q0 -86 -25.5 -159t-72.5 -127t-111 -83.5t-141 -29.5zM311 61q59 0 103.5 36.5t69 104.5t24.5 160q0 65 -18 111.5t-51.5 71.5t-78.5 25
q-57 0 -101 -37t-68.5 -104.5t-24.5 -160.5q0 -64 18 -110.5t50.5 -71.5t76.5 -25zM391 789q32 0 60 17t45 50l15 -2l20 -27q-11 -30 -31.5 -58t-50 -45.5t-68.5 -17.5t-64.5 17.5t-39 45.5t-17.5 58l26 27l15 2q9 -33 33 -50t57 -17z" />
    <glyph glyph-name="uni01D1" unicode="&#x1d1;" horiz-adv-x="655" 
d="M292 -12q-75 0 -133 33t-90.5 93t-32.5 141q0 86 25.5 158.5t71.5 126t109.5 83t139.5 29.5q78 0 136 -33t91 -92.5t33 -139.5q0 -86 -25.5 -159t-72.5 -127t-111 -83.5t-141 -29.5zM311 61q59 0 103.5 36.5t69 104.5t24.5 160q0 65 -18 111.5t-51.5 71.5t-78.5 25
q-57 0 -101 -37t-68.5 -104.5t-24.5 -160.5q0 -64 18 -110.5t50.5 -71.5t76.5 -25zM550 819q-9 -6 -28 -20t-42 -31t-44 -33t-34.5 -26l-13.5 -10h-18l-11 10t-28 26t-35.5 33t-34 31t-22.5 20l24 35l15 3q5 -3 22 -12t36.5 -19.5t35.5 -19.5t19 -10q3 1 15.5 7t29.5 14.5
t34.5 16.5t31 14.5t17.5 8.5l13 -3z" />
    <glyph glyph-name="Ocircumflex" unicode="&#xd4;" horiz-adv-x="653" 
d="M292 -12q-75 0 -133 33t-90.5 93t-32.5 141q0 86 25.5 158.5t71.5 126t109.5 83t139.5 29.5q78 0 136 -33t91 -92.5t33 -139.5q0 -86 -25.5 -159t-72.5 -127t-111 -83.5t-141 -29.5zM311 61q59 0 103.5 36.5t69 104.5t24.5 160q0 65 -18 111.5t-51.5 71.5t-78.5 25
q-57 0 -101 -37t-68.5 -104.5t-24.5 -160.5q0 -64 18 -110.5t50.5 -71.5t76.5 -25zM241 746q8 6 27 20t41.5 31t43.5 33t35 26l14 10h18q0 1 11 -9t28.5 -26t36 -33.5t33.5 -31t23 -20.5l-26 -35l-14 -3q-5 3 -21.5 12t-36.5 19.5t-36 19.5t-20 10q-3 -1 -15 -7t-29 -14
t-34.5 -16.5t-31 -15t-18.5 -8.5l-13 3z" />
    <glyph glyph-name="uni1ED0" unicode="&#x1ed0;" horiz-adv-x="655" 
d="M292 -12q-75 0 -133 33t-90.5 93t-32.5 141q0 86 25.5 158.5t71.5 126t109.5 83t139.5 29.5q78 0 136 -33t91 -92.5t33 -139.5q0 -86 -25.5 -159t-72.5 -127t-111 -83.5t-141 -29.5zM311 61q59 0 103.5 36.5t69 104.5t24.5 160q0 65 -18 111.5t-51.5 71.5t-78.5 25
q-57 0 -101 -37t-68.5 -104.5t-24.5 -160.5q0 -64 18 -110.5t50.5 -71.5t76.5 -25zM629 936l-97 -116l-14 -1l-33 23l80 141l11 2l53 -36v-13zM253 745q27 19 54.5 39.5t50.5 38t36.5 28l13.5 10.5h18l19 -18t48.5 -45t59.5 -53l-24 -33l-13 -3q-30 18 -61 34t-49 25
q-22 -9 -55.5 -25t-69.5 -34l-12 3z" />
    <glyph glyph-name="uni1ED8" unicode="&#x1ed8;" horiz-adv-x="655" 
d="M292 -12q-75 0 -133 33t-90.5 93t-32.5 141q0 86 25.5 158.5t71.5 126t109.5 83t139.5 29.5q78 0 136 -33t91 -92.5t33 -139.5q0 -86 -25.5 -159t-72.5 -127t-111 -83.5t-141 -29.5zM311 61q59 0 103.5 36.5t69 104.5t24.5 160q0 65 -18 111.5t-51.5 71.5t-78.5 25
q-57 0 -101 -37t-68.5 -104.5t-24.5 -160.5q0 -64 18 -110.5t50.5 -71.5t76.5 -25zM241 746q8 6 27 20t41.5 31t43.5 33t35 26l14 10h18q0 1 11 -9t28.5 -26t36 -33.5t33.5 -31t23 -20.5l-26 -35l-14 -3q-5 3 -21.5 12t-36.5 19.5t-36 19.5t-20 10q-3 -1 -15 -7t-29 -14
t-34.5 -16.5t-31 -15t-18.5 -8.5l-13 3zM270 -205q-30 0 -44.5 17.5t-14.5 42.5q0 36 23 60.5t61 24.5q29 0 44.5 -17t15.5 -43q0 -36 -23 -60.5t-62 -24.5z" />
    <glyph glyph-name="uni1ED2" unicode="&#x1ed2;" horiz-adv-x="655" 
d="M292 -12q-75 0 -133 33t-90.5 93t-32.5 141q0 86 25.5 158.5t71.5 126t109.5 83t139.5 29.5q78 0 136 -33t91 -92.5t33 -139.5q0 -86 -25.5 -159t-72.5 -127t-111 -83.5t-141 -29.5zM311 61q59 0 103.5 36.5t69 104.5t24.5 160q0 65 -18 111.5t-51.5 71.5t-78.5 25
q-57 0 -101 -37t-68.5 -104.5t-24.5 -160.5q0 -64 18 -110.5t50.5 -71.5t76.5 -25zM449 954l61 29l11 -3l45 -141l-39 -18l-13 1l-69 119zM247 745q27 19 54.5 39.5t50 38t36.5 28l14 10.5h18l19 -18t48.5 -45t59.5 -53l-24 -33l-14 -3q-30 18 -60.5 34t-48.5 25
q-22 -9 -55.5 -25t-69.5 -34l-13 3z" />
    <glyph glyph-name="uni1ED4" unicode="&#x1ed4;" horiz-adv-x="655" 
d="M292 -12q-75 0 -133 33t-90.5 93t-32.5 141q0 86 25.5 158.5t71.5 126t109.5 83t139.5 29.5q78 0 136 -33t91 -92.5t33 -139.5q0 -86 -25.5 -159t-72.5 -127t-111 -83.5t-141 -29.5zM311 61q59 0 103.5 36.5t69 104.5t24.5 160q0 65 -18 111.5t-51.5 71.5t-78.5 25
q-57 0 -101 -37t-68.5 -104.5t-24.5 -160.5q0 -64 18 -110.5t50.5 -71.5t76.5 -25zM438 963l13 11t32.5 24t38.5 20q40 0 62 -15.5t23 -44.5q0 -19 -15 -40.5t-49 -46.5l18 -36l-46 -24l-31 61q30 21 42.5 35.5t11.5 29.5q0 23 -30 23q-14 0 -27 -5t-21.5 -10l-8.5 -5z
M240 745q27 19 54.5 39.5t50.5 38t36.5 28l13.5 10.5h18l19 -18t48.5 -45t59.5 -53l-24 -33l-13 -3q-30 18 -61 34t-49 25q-22 -9 -55.5 -25t-69.5 -34l-12 3z" />
    <glyph glyph-name="uni1ED6" unicode="&#x1ed6;" horiz-adv-x="655" 
d="M292 -12q-75 0 -133 33t-90.5 93t-32.5 141q0 86 25.5 158.5t71.5 126t109.5 83t139.5 29.5q78 0 136 -33t91 -92.5t33 -139.5q0 -86 -25.5 -159t-72.5 -127t-111 -83.5t-141 -29.5zM311 61q59 0 103.5 36.5t69 104.5t24.5 160q0 65 -18 111.5t-51.5 71.5t-78.5 25
q-57 0 -101 -37t-68.5 -104.5t-24.5 -160.5q0 -64 18 -110.5t50.5 -71.5t76.5 -25zM284 865l-27 29l2 7l75 80l15 4q14 0 38.5 -7.5t48.5 -15t36 -7.5q8 0 18 6.5t20 15t16 15.5l6 7h9l27 -29l-1 -7l-76 -80l-15 -4q-14 0 -38.5 8t-48 15t-36.5 7q-10 0 -24.5 -10.5t-25 -22
l-10.5 -11.5h-9zM240 745q27 19 54.5 39.5t50.5 38t36.5 28l13.5 10.5h18l19 -18t48.5 -45t59.5 -53l-24 -33l-13 -3q-30 18 -61 34t-49 25q-22 -9 -55.5 -25t-69.5 -34l-12 3z" />
    <glyph glyph-name="uni020C" unicode="&#x20c;" horiz-adv-x="655" 
d="M292 -12q-75 0 -133 33t-90.5 93t-32.5 141q0 86 25.5 158.5t71.5 126t109.5 83t139.5 29.5q78 0 136 -33t91 -92.5t33 -139.5q0 -86 -25.5 -159t-72.5 -127t-111 -83.5t-141 -29.5zM311 61q59 0 103.5 36.5t69 104.5t24.5 160q0 65 -18 111.5t-51.5 71.5t-78.5 25
q-57 0 -101 -37t-68.5 -104.5t-24.5 -160.5q0 -64 18 -110.5t50.5 -71.5t76.5 -25zM498 680q-42 26 -80 47.5t-62.5 34.5l-24.5 13l-2 11l36 55l11 3l22.5 -19.5t57.5 -49t72 -60.5l-18 -30zM339 674q-42 26 -80 47.5t-62.5 34.5l-24.5 13l-2 11l37 55l10 3l23 -19.5
t58 -49.5t71 -60l-19 -30z" />
    <glyph glyph-name="uni022A" unicode="&#x22a;" horiz-adv-x="655" 
d="M292 -12q-75 0 -133 33t-90.5 93t-32.5 141q0 86 25.5 158.5t71.5 126t109.5 83t139.5 29.5q78 0 136 -33t91 -92.5t33 -139.5q0 -86 -25.5 -159t-72.5 -127t-111 -83.5t-141 -29.5zM311 61q59 0 103.5 36.5t69 104.5t24.5 160q0 65 -18 111.5t-51.5 71.5t-78.5 25
q-57 0 -101 -37t-68.5 -104.5t-24.5 -160.5q0 -64 18 -110.5t50.5 -71.5t76.5 -25zM463 709q-23 0 -34.5 14t-11.5 34q0 29 19.5 49.5t48.5 20.5q23 0 35 -14t12 -34q0 -29 -19.5 -49.5t-49.5 -20.5zM294 709q-23 0 -34.5 14t-11.5 34q0 29 20 49.5t48 20.5q24 0 35.5 -14
t11.5 -34q0 -29 -19.5 -49.5t-49.5 -20.5zM559 940l-18 -67l-137 -1h-59.5t-53.5 -0.5l-22 -0.5l-8 11l21 66h15t37.5 -0.5t48.5 -0.5h47q24 0 53 1.5t50 3l21 1.5z" />
    <glyph glyph-name="uni0230" unicode="&#x230;" horiz-adv-x="655" 
d="M292 -12q-75 0 -133 33t-90.5 93t-32.5 141q0 86 25.5 158.5t71.5 126t109.5 83t139.5 29.5q78 0 136 -33t91 -92.5t33 -139.5q0 -86 -25.5 -159t-72.5 -127t-111 -83.5t-141 -29.5zM311 61q59 0 103.5 36.5t69 104.5t24.5 160q0 65 -18 111.5t-51.5 71.5t-78.5 25
q-57 0 -101 -37t-68.5 -104.5t-24.5 -160.5q0 -64 18 -110.5t50.5 -71.5t76.5 -25zM379 688q-26 0 -38.5 15t-12.5 38q0 32 21.5 53.5t53.5 21.5q25 0 38 -15t13 -37q0 -32 -21.5 -54t-53.5 -22zM557 915l-19 -67l-136 -1h-59.5t-53.5 -0.5l-22 -0.5l-8 11l21 65h25t60 -0.5
t63 -0.5q24 0 53 1.5t50 3l21 1.5z" />
    <glyph glyph-name="uni1ECC" unicode="&#x1ecc;" horiz-adv-x="655" 
d="M292 -12q-75 0 -133 33t-90.5 93t-32.5 141q0 86 25.5 158.5t71.5 126t109.5 83t139.5 29.5q78 0 136 -33t91 -92.5t33 -139.5q0 -86 -25.5 -159t-72.5 -127t-111 -83.5t-141 -29.5zM311 61q59 0 103.5 36.5t69 104.5t24.5 160q0 65 -18 111.5t-51.5 71.5t-78.5 25
q-57 0 -101 -37t-68.5 -104.5t-24.5 -160.5q0 -64 18 -110.5t50.5 -71.5t76.5 -25zM270 -205q-30 0 -44.5 17.5t-14.5 42.5q0 36 23 60.5t61 24.5q29 0 44.5 -17t15.5 -43q0 -36 -23 -60.5t-62 -24.5z" />
    <glyph glyph-name="Ograve" unicode="&#xd2;" horiz-adv-x="653" 
d="M292 -12q-75 0 -133 33t-90.5 93t-32.5 141q0 86 25.5 158.5t71.5 126t109.5 83t139.5 29.5q78 0 136 -33t91 -92.5t33 -139.5q0 -86 -25.5 -159t-72.5 -127t-111 -83.5t-141 -29.5zM311 61q59 0 103.5 36.5t69 104.5t24.5 160q0 65 -18 111.5t-51.5 71.5t-78.5 25
q-57 0 -101 -37t-68.5 -104.5t-24.5 -160.5q0 -64 18 -110.5t50.5 -71.5t76.5 -25zM268 770l23 68l11 5l19 -9.5l50 -25t69.5 -34.5t76.5 -37l-10 -39l-12 -8q-41 14 -81 26.5t-71.5 21.5t-50.5 14.5l-19 5.5z" />
    <glyph glyph-name="uni1ECE" unicode="&#x1ece;" horiz-adv-x="655" 
d="M292 -12q-75 0 -133 33t-90.5 93t-32.5 141q0 86 25.5 158.5t71.5 126t109.5 83t139.5 29.5q78 0 136 -33t91 -92.5t33 -139.5q0 -86 -25.5 -159t-72.5 -127t-111 -83.5t-141 -29.5zM311 61q59 0 103.5 36.5t69 104.5t24.5 160q0 65 -18 111.5t-51.5 71.5t-78.5 25
q-57 0 -101 -37t-68.5 -104.5t-24.5 -160.5q0 -64 18 -110.5t50.5 -71.5t76.5 -25zM310 875l14 11.5t35 26t42 21.5q43 0 66.5 -16.5t23.5 -47.5q0 -14 -7.5 -29t-23 -31t-40.5 -34l19 -39l-51 -26l-32 66q34 23 47.5 39t13.5 31q0 25 -33 25q-14 0 -28.5 -5.5t-23.5 -11
l-9 -5.5z" />
    <glyph glyph-name="Ohorn" unicode="&#x1a0;" horiz-adv-x="678" 
d="M598 747q20 15 38 23.5t33 8.5q25 0 38.5 -18.5t13.5 -49.5q0 -29 -12.5 -54t-33.5 -44t-47 -29.5t-52 -9.5l-187 78q46 0 74 -8t47.5 -16t42.5 -8q27 0 45 14.5t18 40.5q0 15 -5.5 31t-16.5 27zM311 61q59 0 103.5 36.5t69 104.5t24.5 160q0 65 -18 111.5t-51.5 71.5
t-78.5 25q-58 0 -101.5 -37t-68 -104.5t-24.5 -160.5q0 -64 18 -110.5t50.5 -71.5t76.5 -25zM285 -12q-75 0 -131 33t-87 93t-31 141q0 86 26 158.5t73.5 126t112 83t141.5 29.5t133.5 -32t88 -92t31.5 -141q0 -86 -26.5 -159t-74.5 -127t-113 -83.5t-143 -29.5z" />
    <glyph glyph-name="uni1EDA" unicode="&#x1eda;" horiz-adv-x="678" 
d="M598 747q20 15 38 23.5t33 8.5q25 0 38.5 -18.5t13.5 -49.5q0 -29 -12.5 -54t-33.5 -44t-47 -29.5t-52 -9.5l-187 78q46 0 74 -8t47.5 -16t42.5 -8q27 0 45 14.5t18 40.5q0 15 -5.5 31t-16.5 27zM311 61q59 0 103.5 36.5t69 104.5t24.5 160q0 65 -18 111.5t-51.5 71.5
t-78.5 25q-58 0 -101.5 -37t-68 -104.5t-24.5 -160.5q0 -64 18 -110.5t50.5 -71.5t76.5 -25zM285 -12q-75 0 -131 33t-87 93t-31 141q0 86 26 158.5t73.5 126t112 83t141.5 29.5t133.5 -32t88 -92t31.5 -141q0 -86 -26.5 -159t-74.5 -127t-113 -83.5t-143 -29.5zM430 766
l-19 -5.5t-50.5 -15t-71 -21.5t-81.5 -26l-11 7l-11 40q38 17 76.5 36t69.5 34.5t50 25.5l19 10l11 -6l23 -68z" />
    <glyph glyph-name="uni1EE2" unicode="&#x1ee2;" horiz-adv-x="678" 
d="M598 747q20 15 38 23.5t33 8.5q25 0 38.5 -18.5t13.5 -49.5q0 -29 -12.5 -54t-33.5 -44t-47 -29.5t-52 -9.5l-187 78q46 0 74 -8t47.5 -16t42.5 -8q27 0 45 14.5t18 40.5q0 15 -5.5 31t-16.5 27zM311 61q59 0 103.5 36.5t69 104.5t24.5 160q0 65 -18 111.5t-51.5 71.5
t-78.5 25q-58 0 -101.5 -37t-68 -104.5t-24.5 -160.5q0 -64 18 -110.5t50.5 -71.5t76.5 -25zM285 -12q-75 0 -131 33t-87 93t-31 141q0 86 26 158.5t73.5 126t112 83t141.5 29.5t133.5 -32t88 -92t31.5 -141q0 -86 -26.5 -159t-74.5 -127t-113 -83.5t-143 -29.5zM257 -205
q-30 0 -44.5 17.5t-14.5 42.5q0 36 23 60.5t61 24.5q29 0 44.5 -17t15.5 -43q0 -36 -23 -60.5t-62 -24.5z" />
    <glyph glyph-name="uni1EDC" unicode="&#x1edc;" horiz-adv-x="678" 
d="M598 747q20 15 38 23.5t33 8.5q25 0 38.5 -18.5t13.5 -49.5q0 -29 -12.5 -54t-33.5 -44t-47 -29.5t-52 -9.5l-187 78q46 0 74 -8t47.5 -16t42.5 -8q27 0 45 14.5t18 40.5q0 15 -5.5 31t-16.5 27zM311 61q59 0 103.5 36.5t69 104.5t24.5 160q0 65 -18 111.5t-51.5 71.5
t-78.5 25q-58 0 -101.5 -37t-68 -104.5t-24.5 -160.5q0 -64 18 -110.5t50.5 -71.5t76.5 -25zM285 -12q-75 0 -131 33t-87 93t-31 141q0 86 26 158.5t73.5 126t112 83t141.5 29.5t133.5 -32t88 -92t31.5 -141q0 -86 -26.5 -159t-74.5 -127t-113 -83.5t-143 -29.5zM186 777
l23 68l11 5l19 -9.5l50 -25t69.5 -34.5t76.5 -37l-10 -39l-12 -8q-41 14 -81 26.5t-71.5 21.5t-50.5 14.5l-19 5.5z" />
    <glyph glyph-name="uni1EDE" unicode="&#x1ede;" horiz-adv-x="678" 
d="M598 747q20 15 38 23.5t33 8.5q25 0 38.5 -18.5t13.5 -49.5q0 -29 -12.5 -54t-33.5 -44t-47 -29.5t-52 -9.5l-187 78q46 0 74 -8t47.5 -16t42.5 -8q27 0 45 14.5t18 40.5q0 15 -5.5 31t-16.5 27zM311 61q59 0 103.5 36.5t69 104.5t24.5 160q0 65 -18 111.5t-51.5 71.5
t-78.5 25q-58 0 -101.5 -37t-68 -104.5t-24.5 -160.5q0 -64 18 -110.5t50.5 -71.5t76.5 -25zM285 -12q-75 0 -131 33t-87 93t-31 141q0 86 26 158.5t73.5 126t112 83t141.5 29.5t133.5 -32t88 -92t31.5 -141q0 -86 -26.5 -159t-74.5 -127t-113 -83.5t-143 -29.5zM227 882
l14 11.5t35 26t42 21.5q43 0 66.5 -16.5t23.5 -47.5q0 -14 -7.5 -29t-23 -31t-40.5 -34l19 -39l-51 -26l-32 66q34 23 47.5 39t13.5 31q0 25 -33 25q-14 0 -28.5 -5.5t-23.5 -11l-9 -5.5z" />
    <glyph glyph-name="uni1EE0" unicode="&#x1ee0;" horiz-adv-x="678" 
d="M598 747q20 15 38 23.5t33 8.5q25 0 38.5 -18.5t13.5 -49.5q0 -29 -12.5 -54t-33.5 -44t-47 -29.5t-52 -9.5l-187 78q46 0 74 -8t47.5 -16t42.5 -8q27 0 45 14.5t18 40.5q0 15 -5.5 31t-16.5 27zM311 61q59 0 103.5 36.5t69 104.5t24.5 160q0 65 -18 111.5t-51.5 71.5
t-78.5 25q-58 0 -101.5 -37t-68 -104.5t-24.5 -160.5q0 -64 18 -110.5t50.5 -71.5t76.5 -25zM285 -12q-75 0 -131 33t-87 93t-31 141q0 86 26 158.5t73.5 126t112 83t141.5 29.5t133.5 -32t88 -92t31.5 -141q0 -86 -26.5 -159t-74.5 -127t-113 -83.5t-143 -29.5zM166 698
l-30 32l1 9l86 90l16 4q16 0 44 -8t55 -16.5t40 -8.5q9 0 20.5 7.5t22.5 17t18.5 17l7.5 7.5h9l30 -32l-1 -8l-86 -91l-17 -4q-16 0 -43.5 8.5t-54 16.5t-40.5 8q-9 0 -20.5 -7.5t-22.5 -17t-18.5 -17l-7.5 -7.5h-9z" />
    <glyph glyph-name="Ohungarumlaut" unicode="&#x150;" horiz-adv-x="655" 
d="M292 -12q-75 0 -133 33t-90.5 93t-32.5 141q0 86 25.5 158.5t71.5 126t109.5 83t139.5 29.5q78 0 136 -33t91 -92.5t33 -139.5q0 -86 -25.5 -159t-72.5 -127t-111 -83.5t-141 -29.5zM311 61q59 0 103.5 36.5t69 104.5t24.5 160q0 65 -18 111.5t-51.5 71.5t-78.5 25
q-57 0 -101 -37t-68.5 -104.5t-24.5 -160.5q0 -64 18 -110.5t50.5 -71.5t76.5 -25zM445 782l-24.5 -13t-62.5 -34.5t-80 -47.5l-12 5l-18 30q36 31 71 60.5t57.5 49l22.5 19.5l11 -3l37 -55zM604 776l-24.5 -13t-62.5 -34.5t-80 -47.5l-11 5l-19 30q36 30 71 60t57.5 49.5
l22.5 19.5l11 -3l37 -55z" />
    <glyph glyph-name="uni020E" unicode="&#x20e;" horiz-adv-x="655" 
d="M292 -12q-75 0 -133 33t-90.5 93t-32.5 141q0 86 25.5 158.5t71.5 126t109.5 83t139.5 29.5q78 0 136 -33t91 -92.5t33 -139.5q0 -86 -25.5 -159t-72.5 -127t-111 -83.5t-141 -29.5zM311 61q59 0 103.5 36.5t69 104.5t24.5 160q0 65 -18 111.5t-51.5 71.5t-78.5 25
q-57 0 -101 -37t-68.5 -104.5t-24.5 -160.5q0 -64 18 -110.5t50.5 -71.5t76.5 -25zM399 779q-35 0 -64.5 -18t-47.5 -51l-14 4l-22 29q12 30 32 57t50 44.5t68 17.5q41 0 67.5 -18.5t41.5 -46.5t19 -58l-26 -25l-14 -1q-10 34 -34 50t-56 16z" />
    <glyph glyph-name="Omacron" unicode="&#x14c;" horiz-adv-x="655" 
d="M292 -12q-75 0 -133 33t-90.5 93t-32.5 141q0 86 25.5 158.5t71.5 126t109.5 83t139.5 29.5q78 0 136 -33t91 -92.5t33 -139.5q0 -86 -25.5 -159t-72.5 -127t-111 -83.5t-141 -29.5zM311 61q59 0 103.5 36.5t69 104.5t24.5 160q0 65 -18 111.5t-51.5 71.5t-78.5 25
q-57 0 -101 -37t-68.5 -104.5t-24.5 -160.5q0 -64 18 -110.5t50.5 -71.5t76.5 -25zM542 780l-19 -67l-137 -1h-59.5t-53.5 -0.5l-22 -0.5l-8 11l21 66h25t60 -0.5t63 -0.5q24 0 53 1.5t50 3l21 1.5z" />
    <glyph glyph-name="uni1E52" unicode="&#x1e52;" horiz-adv-x="655" 
d="M292 -12q-75 0 -133 33t-90.5 93t-32.5 141q0 86 25.5 158.5t71.5 126t109.5 83t139.5 29.5q78 0 136 -33t91 -92.5t33 -139.5q0 -86 -25.5 -159t-72.5 -127t-111 -83.5t-141 -29.5zM311 61q59 0 103.5 36.5t69 104.5t24.5 160q0 65 -18 111.5t-51.5 71.5t-78.5 25
q-57 0 -101 -37t-68.5 -104.5t-24.5 -160.5q0 -64 18 -110.5t50.5 -71.5t76.5 -25zM549 776l-19 -67l-136 -1h-60t-53.5 -0.5l-21.5 -0.5l-8 11l20 66h25.5t60.5 -0.5t63 -0.5q24 0 53 1.5t49.5 3l20.5 1.5zM534 886l-19 -5.5t-50.5 -15t-71 -21.5t-81.5 -26l-11 7l-11 40
q38 17 76.5 36t69.5 34.5t50 25.5l19 10l11 -6l23 -68z" />
    <glyph glyph-name="uni1E50" unicode="&#x1e50;" horiz-adv-x="655" 
d="M292 -12q-75 0 -133 33t-90.5 93t-32.5 141q0 86 25.5 158.5t71.5 126t109.5 83t139.5 29.5q78 0 136 -33t91 -92.5t33 -139.5q0 -86 -25.5 -159t-72.5 -127t-111 -83.5t-141 -29.5zM311 61q59 0 103.5 36.5t69 104.5t24.5 160q0 65 -18 111.5t-51.5 71.5t-78.5 25
q-57 0 -101 -37t-68.5 -104.5t-24.5 -160.5q0 -64 18 -110.5t50.5 -71.5t76.5 -25zM548 776l-19 -67l-136 -1h-60t-53.5 -0.5l-21.5 -0.5l-8 11l20 66h25.5t60.5 -0.5t63 -0.5q24 0 53 1.5t49.5 3l20.5 1.5zM292 902l23 68l11 5l19 -9.5l50 -25t69.5 -34.5t76.5 -37l-10 -39
l-12 -8q-41 14 -81 26.5t-71.5 21.5t-50.5 14.5l-19 5.5z" />
    <glyph glyph-name="uni01EA" unicode="&#x1ea;" horiz-adv-x="655" 
d="M292 -12q-75 0 -133 33t-90.5 93t-32.5 141q0 86 25.5 158.5t71.5 126t109.5 83t139.5 29.5q78 0 136 -33t91 -92.5t33 -139.5q0 -86 -25.5 -159t-72.5 -127t-111 -83.5t-141 -29.5zM311 61q59 0 103.5 36.5t69 104.5t24.5 160q0 65 -18 111.5t-51.5 71.5t-78.5 25
q-57 0 -101 -37t-68.5 -104.5t-24.5 -160.5q0 -64 18 -110.5t50.5 -71.5t76.5 -25zM430 -194q-8 -6 -25.5 -19t-39 -26.5t-43.5 -21.5q-48 0 -77 22t-29 63q0 29 18 58t51.5 63t78.5 77h58q-44 -43 -70.5 -73.5t-38.5 -53t-12 -43.5q0 -19 11.5 -30t30.5 -11q15 0 29.5 4.5
t26 10t15.5 8.5z" />
    <glyph glyph-name="Oslash" unicode="&#xd8;" horiz-adv-x="653" 
d="M502 549l-54 33l80 140l51 -22l3 -12zM219 50l-52 32l281 500l54 -33zM167 82l52 -32l-91 -154l-50 22l-2 10zM292 -12q-75 0 -133 33t-90.5 93t-32.5 141q0 86 25.5 158.5t71.5 126t109.5 83t139.5 29.5q78 0 136 -33t91 -92.5t33 -139.5q0 -86 -25.5 -159t-72.5 -127
t-111 -83.5t-141 -29.5zM311 61q59 0 103.5 36.5t69 104.5t24.5 160q0 65 -18 111.5t-51.5 71.5t-78.5 25q-57 0 -101 -37t-68.5 -104.5t-24.5 -160.5q0 -64 18 -110.5t50.5 -71.5t76.5 -25z" />
    <glyph glyph-name="Oslashacute" unicode="&#x1fe;" horiz-adv-x="653" 
d="M502 549l-54 33l80 140l51 -22l3 -12zM219 50l-52 32l281 500l54 -33zM167 82l52 -32l-91 -154l-50 22l-2 10zM292 -12q-75 0 -133 33t-90.5 93t-32.5 141q0 86 25.5 158.5t71.5 126t109.5 83t139.5 29.5q78 0 136 -33t91 -92.5t33 -139.5q0 -86 -25.5 -159t-72.5 -127
t-111 -83.5t-141 -29.5zM311 61q59 0 103.5 36.5t69 104.5t24.5 160q0 65 -18 111.5t-51.5 71.5t-78.5 25q-57 0 -101 -37t-68.5 -104.5t-24.5 -160.5q0 -64 18 -110.5t50.5 -71.5t76.5 -25zM463 766l-19 -5.5t-50.5 -15t-71 -21.5t-81.5 -26l-11 7l-11 40q38 17 76.5 36
t69.5 34.5t50 25.5l19 10l11 -6l23 -68z" />
    <glyph glyph-name="Otilde" unicode="&#xd5;" horiz-adv-x="653" 
d="M292 -12q-75 0 -133 33t-90.5 93t-32.5 141q0 86 25.5 158.5t71.5 126t109.5 83t139.5 29.5q78 0 136 -33t91 -92.5t33 -139.5q0 -86 -25.5 -159t-72.5 -127t-111 -83.5t-141 -29.5zM311 61q59 0 103.5 36.5t69 104.5t24.5 160q0 65 -18 111.5t-51.5 71.5t-78.5 25
q-57 0 -101 -37t-68.5 -104.5t-24.5 -160.5q0 -64 18 -110.5t50.5 -71.5t76.5 -25zM249 691l-30 32l1 9l86 90l16 4q16 0 44 -8t55 -16.5t40 -8.5q9 0 20.5 7.5t22.5 17t18.5 17l7.5 7.5h9l30 -32l-1 -8l-86 -91l-17 -4q-16 0 -43.5 8.5t-54 16.5t-40.5 8q-9 0 -20.5 -7.5
t-22.5 -17t-18.5 -17l-7.5 -7.5h-9z" />
    <glyph glyph-name="uni1E4C" unicode="&#x1e4c;" horiz-adv-x="655" 
d="M292 -12q-75 0 -133 33t-90.5 93t-32.5 141q0 86 25.5 158.5t71.5 126t109.5 83t139.5 29.5q78 0 136 -33t91 -92.5t33 -139.5q0 -86 -25.5 -159t-72.5 -127t-111 -83.5t-141 -29.5zM311 61q59 0 103.5 36.5t69 104.5t24.5 160q0 65 -18 111.5t-51.5 71.5t-78.5 25
q-57 0 -101 -37t-68.5 -104.5t-24.5 -160.5q0 -64 18 -110.5t50.5 -71.5t76.5 -25zM259 683l-29 30l1 9l85 94l15 4q16 0 43 -8t53.5 -16t39.5 -8q8 0 19.5 8.5t22.5 19t18 18.5l7 8h9l30 -30l-2 -8l-84 -95l-16 -4q-16 0 -43 8.5t-53 16.5t-40 8q-11 0 -27 -13.5t-28 -27.5
l-12 -14h-9zM528 897l-19 -5t-51 -13.5t-72 -19t-82 -23.5l-12 8l-9 39q39 17 77.5 34t70.5 32t51 24l19 9l11 -6l21 -67z" />
    <glyph glyph-name="uni1E4E" unicode="&#x1e4e;" horiz-adv-x="655" 
d="M292 -12q-75 0 -133 33t-90.5 93t-32.5 141q0 86 25.5 158.5t71.5 126t109.5 83t139.5 29.5q78 0 136 -33t91 -92.5t33 -139.5q0 -86 -25.5 -159t-72.5 -127t-111 -83.5t-141 -29.5zM311 61q59 0 103.5 36.5t69 104.5t24.5 160q0 65 -18 111.5t-51.5 71.5t-78.5 25
q-57 0 -101 -37t-68.5 -104.5t-24.5 -160.5q0 -64 18 -110.5t50.5 -71.5t76.5 -25zM276 670l-29 31l1 8l85 95l15 4q16 0 43.5 -8t53.5 -16.5t40 -8.5q8 0 19 8.5t22 19t18 19l7 8.5h9l30 -31l-2 -8l-84 -95l-16 -4q-16 0 -43 8.5t-53 16.5t-40 8q-11 0 -27 -13.5t-28 -27.5
l-12 -14h-9zM507 845q-22 0 -35.5 14t-13.5 37q0 26 17.5 44t44.5 18q23 0 35.5 -14t12.5 -37q0 -27 -17.5 -44.5t-43.5 -17.5zM342 845q-21 0 -35 14t-14 37q0 26 18 44t45 18q22 0 35 -14t13 -37q0 -27 -17.5 -44.5t-44.5 -17.5z" />
    <glyph glyph-name="uni022C" unicode="&#x22c;" horiz-adv-x="655" 
d="M292 -12q-75 0 -133 33t-90.5 93t-32.5 141q0 86 25.5 158.5t71.5 126t109.5 83t139.5 29.5q78 0 136 -33t91 -92.5t33 -139.5q0 -86 -25.5 -159t-72.5 -127t-111 -83.5t-141 -29.5zM311 61q59 0 103.5 36.5t69 104.5t24.5 160q0 65 -18 111.5t-51.5 71.5t-78.5 25
q-57 0 -101 -37t-68.5 -104.5t-24.5 -160.5q0 -64 18 -110.5t50.5 -71.5t76.5 -25zM278 678l-28 30l2 8l82 92l15 4q15 0 41.5 -8t52 -16t39.5 -8q10 0 25.5 13.5t27 26.5l11.5 13h9l29 -30l-1 -8l-82 -92l-16 -4q-15 0 -41.5 8t-52 16t-38.5 8q-12 0 -27 -13.5t-26.5 -26.5
l-11.5 -13h-10zM581 945l-20 -67l-136 -1h-59.5t-53.5 -0.5l-22 -0.5l-8 11l21 66h25t60 -0.5t63 -0.5q25 0 54 1.5t49.5 3l20.5 1.5z" />
    <glyph glyph-name="OE" unicode="&#x152;" horiz-adv-x="911" 
d="M554 128q-3 -27 -1 -39.5t16 -16.5t43 -4q48 0 77 4t47 15.5t28.5 35t20.5 62.5l73 6l5 -8l-8 -26t-19 -67t-21 -88l-10 -9l-20 1t-53 2t-72.5 2.5t-79.5 2.5t-74 1q-67 0 -121.5 -6.5t-101.5 -6.5q-74 0 -129.5 32.5t-86.5 92.5t-31 141q0 87 25.5 159t71.5 125
t109.5 81.5t139.5 28.5q49 0 105.5 -6.5t117.5 -6.5q60 0 114.5 2t101 5.5t85.5 8.5l5 -9l-7 -25t-17.5 -65t-19.5 -87l-78 -5l2 9.5t4 23.5t2 25q0 21 -9.5 31.5t-36 13.5t-76.5 3q-25 0 -36.5 -2t-15.5 -9t-7 -24l-28 -167l92 -1q13 0 32 1t38 3t32 3.5l13 1.5l6 -8
l-23 -77l-21.5 1t-51.5 1.5t-54 0.5l-75 -7zM307 62q71 0 105.5 33t44.5 109l33 254q5 43 -5 67.5t-39 35t-84 10.5t-98.5 -37.5t-68 -106t-24.5 -162.5q0 -62 16 -108t46.5 -70.5t73.5 -24.5z" />
    <glyph glyph-name="P" unicode="P" horiz-adv-x="548" 
d="M110 642q7 0 27 -0.5t44.5 -1t44.5 -0.5q12 0 32.5 0.5t41 1.5t35 1.5l14.5 0.5q55 0 96 -12t68.5 -34t41 -51t13.5 -63q0 -49 -21 -94t-56 -80.5t-79.5 -55.5t-92.5 -20h-89l-18 -120q-4 -32 4 -45t35 -13q13 0 29.5 2l16.5 2q0 -2 0.5 -3l1.5 -3l-16 -57l-12.5 0.5
t-30.5 1t-36.5 1t-30.5 0.5q-19 0 -45 -1t-51.5 -2.5t-42.5 -3l-17 -1.5l14 59q42 7 57.5 23.5t20.5 59.5l49 396q4 32 -1.5 43t-24.5 11q-9 0 -21 -1l-12 -1l-4 7zM330 297q58 12 87.5 55t29.5 111q0 57 -34 84t-106 27q-16 0 -19 -2.5t-5 -14.5q-12 -55 -22 -119t-19 -127
z" />
    <glyph glyph-name="Thorn" unicode="&#xde;" horiz-adv-x="545" 
d="M275 511h75q97 0 146.5 -38t49.5 -111q0 -45 -20.5 -84.5t-56.5 -69t-82.5 -45.5t-98.5 -16h-68l-4 -34q-3 -33 3 -44t29 -11q18 0 33 1.5l15 1.5l3 -6l-16 -58l-15.5 0.5t-39 1l-47 1t-40.5 0.5q-20 0 -42.5 -1.5t-42.5 -3t-32.5 -3.5l-12.5 -2l14 59q43 9 60 26t22 59
l49 396q4 31 -2 42t-27 11q-9 0 -22 -1l-13 -1l-4 7l15 54q9 0 31.5 -0.5t49 -1t48.5 -0.5q16 0 38 1.5t44 2.5t36 2.5l14 1.5l-13 -60q-39 -5 -52 -14.5t-18 -35.5zM261 428q-6 -43 -11.5 -80.5t-10.5 -68t-8 -53.5q17 -5 42 -9.5t41 -4.5q53 8 79.5 42.5t26.5 89.5
q0 50 -32.5 73.5t-101.5 23.5q-14 0 -18.5 -3t-6.5 -10z" />
    <glyph glyph-name="Q" unicode="Q" horiz-adv-x="659" 
d="M396 18l-1 -17q53 -42 97 -69t83.5 -39t74.5 -12q23 0 41.5 2.5t29.5 5l11 2.5l6 -5l5 -32l-10.5 -7.5t-26.5 -19t-33.5 -23.5t-32.5 -19.5t-22 -7.5q-32 0 -61.5 8t-65.5 30.5t-85.5 64t-123.5 108.5zM310 60q60 0 105 36.5t70 104.5t25 161q0 64 -18.5 111t-52.5 72.5
t-79 25.5q-57 0 -101.5 -37t-69 -104.5t-24.5 -160.5q0 -64 17.5 -111t50.5 -72.5t77 -25.5zM292 -12q-75 0 -133 33.5t-90.5 93.5t-32.5 140q0 86 25.5 158.5t71.5 126t109.5 83t139.5 29.5q77 0 135.5 -33t91.5 -92.5t33 -139.5q0 -86 -26 -159t-72.5 -127t-110.5 -83.5
t-141 -29.5z" />
    <glyph glyph-name="R" unicode="R" horiz-adv-x="610" 
d="M234 260l-18 -126q-4 -34 -1.5 -51t16.5 -22t45 -6l2 -5l-16 -54l-12 0.5t-31 1t-39.5 1t-37.5 0.5q-27 1 -57 -0.5t-51 -3l-21 -1.5l16 59q42 6 58.5 22t21.5 59l49 399q4 30 -1.5 40.5t-24.5 10.5q-9 0 -21 -1l-12 -1l-4 7l15 54l12.5 -0.5t31.5 -1.5t38.5 -1h33.5
t34.5 0.5t40.5 1.5t33.5 1.5l13.5 0.5q64 0 112.5 -17t75.5 -49.5t27 -79.5q0 -66 -37.5 -120t-114.5 -91l72 -153q22 -46 45 -66t56 -20l5 -8l-12 -45l-105 -11q-30 0 -53.5 24.5t-39.5 69.5l-67 182h-78zM335 326q5 3 22 11t36.5 24.5t34 45t14.5 70.5q0 101 -141 101
q-10 0 -13.5 -4.5t-7.5 -18.5q-9 -50 -15.5 -88.5t-10.5 -69t-8 -61.5z" />
    <glyph glyph-name="Racute" unicode="&#x154;" horiz-adv-x="610" 
d="M234 260l-18 -126q-4 -34 -1.5 -51t16.5 -22t45 -6l2 -5l-16 -54l-12 0.5t-31 1t-39.5 1t-37.5 0.5q-27 1 -57 -0.5t-51 -3l-21 -1.5l16 59q42 6 58.5 22t21.5 59l49 399q4 30 -1.5 40.5t-24.5 10.5q-9 0 -21 -1l-12 -1l-4 7l15 54l12.5 -0.5t31.5 -1.5t38.5 -1h33.5
t34.5 0.5t40.5 1.5t33.5 1.5l13.5 0.5q64 0 112.5 -17t75.5 -49.5t27 -79.5q0 -66 -37.5 -120t-114.5 -91l72 -153q22 -46 45 -66t56 -20l5 -8l-12 -45l-105 -11q-30 0 -53.5 24.5t-39.5 69.5l-67 182h-78zM335 326q5 3 22 11t36.5 24.5t34 45t14.5 70.5q0 101 -141 101
q-10 0 -13.5 -4.5t-7.5 -18.5q-9 -50 -15.5 -88.5t-10.5 -69t-8 -61.5zM491 759l-19 -5.5t-50.5 -15t-71 -21.5t-81.5 -26l-11 7l-11 40q38 17 76.5 36t69.5 34.5t50 25.5l19 10l11 -6l23 -68z" />
    <glyph glyph-name="Rcaron" unicode="&#x158;" horiz-adv-x="610" 
d="M234 260l-18 -126q-4 -34 -1.5 -51t16.5 -22t45 -6l2 -5l-16 -54l-12 0.5t-31 1t-39.5 1t-37.5 0.5q-27 1 -57 -0.5t-51 -3l-21 -1.5l16 59q42 6 58.5 22t21.5 59l49 399q4 30 -1.5 40.5t-24.5 10.5q-9 0 -21 -1l-12 -1l-4 7l15 54l12.5 -0.5t31.5 -1.5t38.5 -1h33.5
t34.5 0.5t40.5 1.5t33.5 1.5l13.5 0.5q64 0 112.5 -17t75.5 -49.5t27 -79.5q0 -66 -37.5 -120t-114.5 -91l72 -153q22 -46 45 -66t56 -20l5 -8l-12 -45l-105 -11q-30 0 -53.5 24.5t-39.5 69.5l-67 182h-78zM335 326q5 3 22 11t36.5 24.5t34 45t14.5 70.5q0 101 -141 101
q-10 0 -13.5 -4.5t-7.5 -18.5q-9 -50 -15.5 -88.5t-10.5 -69t-8 -61.5zM528 819q-9 -6 -28 -20t-42 -31t-44 -33t-34.5 -26l-13.5 -10h-18l-11 10t-28 26t-35.5 33t-34 31t-22.5 20l24 35l15 3q5 -3 22 -12t36.5 -19.5t35.5 -19.5t19 -10q3 1 15.5 7t29.5 14.5t34.5 16.5
t31 14.5t17.5 8.5l13 -3z" />
    <glyph glyph-name="uni0156" unicode="&#x156;" horiz-adv-x="610" 
d="M234 260l-18 -126q-4 -34 -1.5 -51t16.5 -22t45 -6l2 -5l-16 -54l-12 0.5t-31 1t-39.5 1t-37.5 0.5q-27 1 -57 -0.5t-51 -3l-21 -1.5l16 59q42 6 58.5 22t21.5 59l49 399q4 30 -1.5 40.5t-24.5 10.5q-9 0 -21 -1l-12 -1l-4 7l15 54l12.5 -0.5t31.5 -1.5t38.5 -1h33.5
t34.5 0.5t40.5 1.5t33.5 1.5l13.5 0.5q64 0 112.5 -17t75.5 -49.5t27 -79.5q0 -66 -37.5 -120t-114.5 -91l72 -153q22 -46 45 -66t56 -20l5 -8l-12 -45l-105 -11q-30 0 -53.5 24.5t-39.5 69.5l-67 182h-78zM335 326q5 3 22 11t36.5 24.5t34 45t14.5 70.5q0 101 -141 101
q-10 0 -13.5 -4.5t-7.5 -18.5q-9 -50 -15.5 -88.5t-10.5 -69t-8 -61.5zM204 -88q16 12 35.5 22t36.5 10q28 0 46 -22t18 -59q0 -36 -20.5 -68t-52 -58.5t-67.5 -46.5l-31 25v15q29 20 49 48t20 53q0 20 -10.5 38t-25.5 29z" />
    <glyph glyph-name="uni0210" unicode="&#x210;" horiz-adv-x="610" 
d="M234 260l-18 -126q-4 -34 -1.5 -51t16.5 -22t45 -6l2 -5l-16 -54l-12 0.5t-31 1t-39.5 1t-37.5 0.5q-27 1 -57 -0.5t-51 -3l-21 -1.5l16 59q42 6 58.5 22t21.5 59l49 399q4 30 -1.5 40.5t-24.5 10.5q-9 0 -21 -1l-12 -1l-4 7l15 54l12.5 -0.5t31.5 -1.5t38.5 -1h33.5
t34.5 0.5t40.5 1.5t33.5 1.5l13.5 0.5q64 0 112.5 -17t75.5 -49.5t27 -79.5q0 -66 -37.5 -120t-114.5 -91l72 -153q22 -46 45 -66t56 -20l5 -8l-12 -45l-105 -11q-30 0 -53.5 24.5t-39.5 69.5l-67 182h-78zM335 326q5 3 22 11t36.5 24.5t34 45t14.5 70.5q0 101 -141 101
q-10 0 -13.5 -4.5t-7.5 -18.5q-9 -50 -15.5 -88.5t-10.5 -69t-8 -61.5zM476 680q-42 26 -80 47.5t-62.5 34.5l-24.5 13l-2 11l36 55l11 3l22.5 -19.5t57.5 -49t72 -60.5l-18 -30zM317 674q-42 26 -80 47.5t-62.5 34.5l-24.5 13l-2 11l37 55l10 3l23 -19.5t58 -49.5t71 -60
l-19 -30z" />
    <glyph glyph-name="uni1E5A" unicode="&#x1e5a;" horiz-adv-x="610" 
d="M234 260l-18 -126q-4 -34 -1.5 -51t16.5 -22t45 -6l2 -5l-16 -54l-12 0.5t-31 1t-39.5 1t-37.5 0.5q-27 1 -57 -0.5t-51 -3l-21 -1.5l16 59q42 6 58.5 22t21.5 59l49 399q4 30 -1.5 40.5t-24.5 10.5q-9 0 -21 -1l-12 -1l-4 7l15 54l12.5 -0.5t31.5 -1.5t38.5 -1h33.5
t34.5 0.5t40.5 1.5t33.5 1.5l13.5 0.5q64 0 112.5 -17t75.5 -49.5t27 -79.5q0 -66 -37.5 -120t-114.5 -91l72 -153q22 -46 45 -66t56 -20l5 -8l-12 -45l-105 -11q-30 0 -53.5 24.5t-39.5 69.5l-67 182h-78zM335 326q5 3 22 11t36.5 24.5t34 45t14.5 70.5q0 101 -141 101
q-10 0 -13.5 -4.5t-7.5 -18.5q-9 -50 -15.5 -88.5t-10.5 -69t-8 -61.5zM248 -205q-30 0 -44.5 17.5t-14.5 42.5q0 36 23 60.5t61 24.5q29 0 44.5 -17t15.5 -43q0 -36 -23 -60.5t-62 -24.5z" />
    <glyph glyph-name="uni0212" unicode="&#x212;" horiz-adv-x="610" 
d="M234 260l-18 -126q-4 -34 -1.5 -51t16.5 -22t45 -6l2 -5l-16 -54l-12 0.5t-31 1t-39.5 1t-37.5 0.5q-27 1 -57 -0.5t-51 -3l-21 -1.5l16 59q42 6 58.5 22t21.5 59l49 399q4 30 -1.5 40.5t-24.5 10.5q-9 0 -21 -1l-12 -1l-4 7l15 54l12.5 -0.5t31.5 -1.5t38.5 -1h33.5
t34.5 0.5t40.5 1.5t33.5 1.5l13.5 0.5q64 0 112.5 -17t75.5 -49.5t27 -79.5q0 -66 -37.5 -120t-114.5 -91l72 -153q22 -46 45 -66t56 -20l5 -8l-12 -45l-105 -11q-30 0 -53.5 24.5t-39.5 69.5l-67 182h-78zM335 326q5 3 22 11t36.5 24.5t34 45t14.5 70.5q0 101 -141 101
q-10 0 -13.5 -4.5t-7.5 -18.5q-9 -50 -15.5 -88.5t-10.5 -69t-8 -61.5zM376 779q-35 0 -64.5 -18t-47.5 -51l-14 4l-22 29q12 30 32 57t50 44.5t68 17.5q41 0 67.5 -18.5t41.5 -46.5t19 -58l-26 -25l-14 -1q-10 34 -34 50t-56 16z" />
    <glyph glyph-name="uni1E5E" unicode="&#x1e5e;" horiz-adv-x="610" 
d="M234 260l-18 -126q-4 -34 -1.5 -51t16.5 -22t45 -6l2 -5l-16 -54l-12 0.5t-31 1t-39.5 1t-37.5 0.5q-27 1 -57 -0.5t-51 -3l-21 -1.5l16 59q42 6 58.5 22t21.5 59l49 399q4 30 -1.5 40.5t-24.5 10.5q-9 0 -21 -1l-12 -1l-4 7l15 54l12.5 -0.5t31.5 -1.5t38.5 -1h33.5
t34.5 0.5t40.5 1.5t33.5 1.5l13.5 0.5q64 0 112.5 -17t75.5 -49.5t27 -79.5q0 -66 -37.5 -120t-114.5 -91l72 -153q22 -46 45 -66t56 -20l5 -8l-12 -45l-105 -11q-30 0 -53.5 24.5t-39.5 69.5l-67 182h-78zM335 326q5 3 22 11t36.5 24.5t34 45t14.5 70.5q0 101 -141 101
q-10 0 -13.5 -4.5t-7.5 -18.5q-9 -50 -15.5 -88.5t-10.5 -69t-8 -61.5zM411 -104l-19 -67l-136 -1h-60t-53.5 -0.5l-21.5 -0.5l-8 11l20 66h25.5t60.5 -0.5t63 -0.5q24 0 53 1.5t49.5 3l20.5 1.5z" />
    <glyph glyph-name="S" unicode="S" horiz-adv-x="516" 
d="M193 -12q-49 0 -87 9t-60.5 18l-22.5 9l-6 13l4 14t10 38t12.5 55t10.5 64l69 6q-7 -60 -1.5 -93.5t28 -46.5t66.5 -13q54 0 88.5 26.5t34.5 70.5q0 35 -31 60t-74 48q-36 21 -72.5 44t-60.5 54.5t-24 77.5q0 60 34 107t93 75t134 28q47 0 84 -6.5t59.5 -13l22.5 -6.5
l4 -10l-7 -23.5t-17 -62.5t-19 -85l-62 -5l-7 6l2 10t4 24t2 25q0 37 -21 53t-70 16q-47 0 -79.5 -25.5t-32.5 -63.5q0 -28 20.5 -49t50.5 -40q30 -18 63.5 -36.5t63.5 -40t49 -50.5t19 -67q0 -62 -34 -110.5t-95.5 -76t-144.5 -27.5z" />
    <glyph glyph-name="Sacute" unicode="&#x15a;" horiz-adv-x="516" 
d="M193 -12q-49 0 -87 9t-60.5 18l-22.5 9l-6 13l4 14t10 38t12.5 55t10.5 64l69 6q-7 -60 -1.5 -93.5t28 -46.5t66.5 -13q54 0 88.5 26.5t34.5 70.5q0 35 -31 60t-74 48q-36 21 -72.5 44t-60.5 54.5t-24 77.5q0 60 34 107t93 75t134 28q47 0 84 -6.5t59.5 -13l22.5 -6.5
l4 -10l-7 -23.5t-17 -62.5t-19 -85l-62 -5l-7 6l2 10t4 24t2 25q0 37 -21 53t-70 16q-47 0 -79.5 -25.5t-32.5 -63.5q0 -28 20.5 -49t50.5 -40q30 -18 63.5 -36.5t63.5 -40t49 -50.5t19 -67q0 -62 -34 -110.5t-95.5 -76t-144.5 -27.5zM457 759l-19 -5.5t-50.5 -15t-71 -21.5
t-81.5 -26l-11 7l-11 40q38 17 76.5 36t69.5 34.5t50 25.5l19 10l11 -6l23 -68z" />
    <glyph glyph-name="uni1E64" unicode="&#x1e64;" horiz-adv-x="516" 
d="M193 -12q-49 0 -87 9t-60.5 18l-22.5 9l-6 13l4 14t10 38t12.5 55t10.5 64l69 6q-7 -60 -1.5 -93.5t28 -46.5t66.5 -13q54 0 88.5 26.5t34.5 70.5q0 35 -31 60t-74 48q-36 21 -72.5 44t-60.5 54.5t-24 77.5q0 60 34 107t93 75t134 28q47 0 84 -6.5t59.5 -13l22.5 -6.5
l4 -10l-7 -23.5t-17 -62.5t-19 -85l-62 -5l-7 6l2 10t4 24t2 25q0 37 -21 53t-70 16q-47 0 -79.5 -25.5t-32.5 -63.5q0 -28 20.5 -49t50.5 -40q30 -18 63.5 -36.5t63.5 -40t49 -50.5t19 -67q0 -62 -34 -110.5t-95.5 -76t-144.5 -27.5zM457 759l-19 -5.5t-50.5 -15t-71 -21.5
t-81.5 -26l-11 7l-11 40q38 17 76.5 36t69.5 34.5t50 25.5l19 10l11 -6l23 -68zM324 849q-28 0 -41.5 16.5t-13.5 39.5q0 36 23 59.5t58 23.5q28 0 42 -16.5t14 -40.5q0 -34 -23.5 -58t-58.5 -24z" />
    <glyph glyph-name="uniA78B" unicode="&#xa78b;" horiz-adv-x="204" 
d="M214 651q-7 -33 -20.5 -83.5t-30 -108t-34.5 -111.5l-46 -19l-13 4q13 57 21.5 116.5t13.5 111.5t6 85l96 15z" />
    <glyph glyph-name="Scaron" unicode="&#x160;" horiz-adv-x="516" 
d="M193 -12q-49 0 -87 9t-60.5 18l-22.5 9l-6 13l4 14t10 38t12.5 55t10.5 64l69 6q-7 -60 -1.5 -93.5t28 -46.5t66.5 -13q54 0 88.5 26.5t34.5 70.5q0 35 -31 60t-74 48q-36 21 -72.5 44t-60.5 54.5t-24 77.5q0 60 34 107t93 75t134 28q47 0 84 -6.5t59.5 -13l22.5 -6.5
l4 -10l-7 -23.5t-17 -62.5t-19 -85l-62 -5l-7 6l2 10t4 24t2 25q0 37 -21 53t-70 16q-47 0 -79.5 -25.5t-32.5 -63.5q0 -28 20.5 -49t50.5 -40q30 -18 63.5 -36.5t63.5 -40t49 -50.5t19 -67q0 -62 -34 -110.5t-95.5 -76t-144.5 -27.5zM494 819q-9 -6 -28 -20t-42 -31
t-44 -33t-34.5 -26l-13.5 -10h-18l-11 10t-28 26t-35.5 33t-34 31t-22.5 20l24 35l15 3q5 -3 22 -12t36.5 -19.5t35.5 -19.5t19 -10q3 1 15.5 7t29.5 14.5t34.5 16.5t31 14.5t17.5 8.5l13 -3z" />
    <glyph glyph-name="uni1E66" unicode="&#x1e66;" horiz-adv-x="516" 
d="M193 -12q-49 0 -87 9t-60.5 18l-22.5 9l-6 13l4 14t10 38t12.5 55t10.5 64l69 6q-7 -60 -1.5 -93.5t28 -46.5t66.5 -13q54 0 88.5 26.5t34.5 70.5q0 35 -31 60t-74 48q-36 21 -72.5 44t-60.5 54.5t-24 77.5q0 60 34 107t93 75t134 28q47 0 84 -6.5t59.5 -13l22.5 -6.5
l4 -10l-7 -23.5t-17 -62.5t-19 -85l-62 -5l-7 6l2 10t4 24t2 25q0 37 -21 53t-70 16q-47 0 -79.5 -25.5t-32.5 -63.5q0 -28 20.5 -49t50.5 -40q30 -18 63.5 -36.5t63.5 -40t49 -50.5t19 -67q0 -62 -34 -110.5t-95.5 -76t-144.5 -27.5zM494 819q-9 -6 -28 -20t-42 -31
t-44 -33t-34.5 -26l-13.5 -10h-18l-11 10t-28 26t-35.5 33t-34 31t-22.5 20l24 35l15 3q5 -3 22 -12t36.5 -19.5t35.5 -19.5t19 -10q3 1 15.5 7t29.5 14.5t34.5 16.5t31 14.5t17.5 8.5l13 -3zM337 856q-28 0 -41.5 16.5t-13.5 39.5q0 36 23 59.5t58 23.5q28 0 42 -16.5
t14 -40.5q0 -34 -23.5 -58t-58.5 -24z" />
    <glyph glyph-name="Scedilla" unicode="&#x15e;" horiz-adv-x="516" 
d="M193 -12q-49 0 -87 9t-60.5 18l-22.5 9l-6 13l4 14t10 38t12.5 55t10.5 64l69 6q-7 -60 -1.5 -93.5t28 -46.5t66.5 -13q54 0 88.5 26.5t34.5 70.5q0 35 -31 60t-74 48q-36 21 -72.5 44t-60.5 54.5t-24 77.5q0 60 34 107t93 75t134 28q47 0 84 -6.5t59.5 -13l22.5 -6.5
l4 -10l-7 -23.5t-17 -62.5t-19 -85l-62 -5l-7 6l2 10t4 24t2 25q0 37 -21 53t-70 16q-47 0 -79.5 -25.5t-32.5 -63.5q0 -28 20.5 -49t50.5 -40q30 -18 63.5 -36.5t63.5 -40t49 -50.5t19 -67q0 -62 -34 -110.5t-95.5 -76t-144.5 -27.5zM217 27h49l-30 -73q16 -10 34.5 -24
t32 -30.5t13.5 -35.5q0 -27 -21 -50t-53 -36.5t-65 -13.5q-23 0 -46 10.5t-23 28.5q0 8 7 19t17 23.5t18 20.5h8q-2 -28 10.5 -42t33.5 -14q18 0 31 10t13 25q0 16 -24 35t-50 34z" />
    <glyph glyph-name="Scircumflex" unicode="&#x15c;" horiz-adv-x="516" 
d="M193 -12q-49 0 -87 9t-60.5 18l-22.5 9l-6 13l4 14t10 38t12.5 55t10.5 64l69 6q-7 -60 -1.5 -93.5t28 -46.5t66.5 -13q54 0 88.5 26.5t34.5 70.5q0 35 -31 60t-74 48q-36 21 -72.5 44t-60.5 54.5t-24 77.5q0 60 34 107t93 75t134 28q47 0 84 -6.5t59.5 -13l22.5 -6.5
l4 -10l-7 -23.5t-17 -62.5t-19 -85l-62 -5l-7 6l2 10t4 24t2 25q0 37 -21 53t-70 16q-47 0 -79.5 -25.5t-32.5 -63.5q0 -28 20.5 -49t50.5 -40q30 -18 63.5 -36.5t63.5 -40t49 -50.5t19 -67q0 -62 -34 -110.5t-95.5 -76t-144.5 -27.5zM185 746q8 6 27 20t41.5 31t43.5 33
t35 26l14 10h18q0 1 11 -9t28.5 -26t36 -33.5t33.5 -31t23 -20.5l-26 -35l-14 -3q-5 3 -21.5 12t-36.5 19.5t-36 19.5t-20 10q-3 -1 -15 -7t-29 -14t-34.5 -16.5t-31 -15t-18.5 -8.5l-13 3z" />
    <glyph glyph-name="uni0218" unicode="&#x218;" horiz-adv-x="516" 
d="M193 -12q-49 0 -87 9t-60.5 18l-22.5 9l-6 13l4 14t10 38t12.5 55t10.5 64l69 6q-7 -60 -1.5 -93.5t28 -46.5t66.5 -13q54 0 88.5 26.5t34.5 70.5q0 35 -31 60t-74 48q-36 21 -72.5 44t-60.5 54.5t-24 77.5q0 60 34 107t93 75t134 28q47 0 84 -6.5t59.5 -13l22.5 -6.5
l4 -10l-7 -23.5t-17 -62.5t-19 -85l-62 -5l-7 6l2 10t4 24t2 25q0 37 -21 53t-70 16q-47 0 -79.5 -25.5t-32.5 -63.5q0 -28 20.5 -49t50.5 -40q30 -18 63.5 -36.5t63.5 -40t49 -50.5t19 -67q0 -62 -34 -110.5t-95.5 -76t-144.5 -27.5zM157 -88q16 12 35.5 22t36.5 10
q28 0 46 -22t18 -59q0 -36 -20.5 -68t-52 -58.5t-67.5 -46.5l-31 25v15q29 20 49 48t20 53q0 20 -10.5 38t-25.5 29z" />
    <glyph glyph-name="uni1E60" unicode="&#x1e60;" horiz-adv-x="516" 
d="M193 -12q-49 0 -87 9t-60.5 18l-22.5 9l-6 13l4 14t10 38t12.5 55t10.5 64l69 6q-7 -60 -1.5 -93.5t28 -46.5t66.5 -13q54 0 88.5 26.5t34.5 70.5q0 35 -31 60t-74 48q-36 21 -72.5 44t-60.5 54.5t-24 77.5q0 60 34 107t93 75t134 28q47 0 84 -6.5t59.5 -13l22.5 -6.5
l4 -10l-7 -23.5t-17 -62.5t-19 -85l-62 -5l-7 6l2 10t4 24t2 25q0 37 -21 53t-70 16q-47 0 -79.5 -25.5t-32.5 -63.5q0 -28 20.5 -49t50.5 -40q30 -18 63.5 -36.5t63.5 -40t49 -50.5t19 -67q0 -62 -34 -110.5t-95.5 -76t-144.5 -27.5zM326 707q-27 0 -41.5 16.5t-14.5 40.5
q0 35 23 58.5t59 23.5q27 0 41 -16.5t14 -39.5q0 -35 -23 -59t-58 -24z" />
    <glyph glyph-name="uni1E62" unicode="&#x1e62;" horiz-adv-x="516" 
d="M193 -12q-49 0 -87 9t-60.5 18l-22.5 9l-6 13l4 14t10 38t12.5 55t10.5 64l69 6q-7 -60 -1.5 -93.5t28 -46.5t66.5 -13q54 0 88.5 26.5t34.5 70.5q0 35 -31 60t-74 48q-36 21 -72.5 44t-60.5 54.5t-24 77.5q0 60 34 107t93 75t134 28q47 0 84 -6.5t59.5 -13l22.5 -6.5
l4 -10l-7 -23.5t-17 -62.5t-19 -85l-62 -5l-7 6l2 10t4 24t2 25q0 37 -21 53t-70 16q-47 0 -79.5 -25.5t-32.5 -63.5q0 -28 20.5 -49t50.5 -40q30 -18 63.5 -36.5t63.5 -40t49 -50.5t19 -67q0 -62 -34 -110.5t-95.5 -76t-144.5 -27.5zM201 -205q-30 0 -44.5 17.5t-14.5 42.5
q0 36 23 60.5t61 24.5q29 0 44.5 -17t15.5 -43q0 -36 -23 -60.5t-62 -24.5z" />
    <glyph glyph-name="uni1E68" unicode="&#x1e68;" horiz-adv-x="516" 
d="M193 -12q-49 0 -87 9t-60.5 18l-22.5 9l-6 13l4 14t10 38t12.5 55t10.5 64l69 6q-7 -60 -1.5 -93.5t28 -46.5t66.5 -13q54 0 88.5 26.5t34.5 70.5q0 35 -31 60t-74 48q-36 21 -72.5 44t-60.5 54.5t-24 77.5q0 60 34 107t93 75t134 28q47 0 84 -6.5t59.5 -13l22.5 -6.5
l4 -10l-7 -23.5t-17 -62.5t-19 -85l-62 -5l-7 6l2 10t4 24t2 25q0 37 -21 53t-70 16q-47 0 -79.5 -25.5t-32.5 -63.5q0 -28 20.5 -49t50.5 -40q30 -18 63.5 -36.5t63.5 -40t49 -50.5t19 -67q0 -62 -34 -110.5t-95.5 -76t-144.5 -27.5zM201 -205q-30 0 -44.5 17.5t-14.5 42.5
q0 36 23 60.5t61 24.5q29 0 44.5 -17t15.5 -43q0 -36 -23 -60.5t-62 -24.5zM326 707q-27 0 -41.5 16.5t-14.5 40.5q0 35 23 58.5t59 23.5q27 0 41 -16.5t14 -39.5q0 -35 -23 -59t-58 -24z" />
    <glyph glyph-name="uni1E9E" unicode="&#x1e9e;" horiz-adv-x="750" 
d="M467 -12q-48 0 -83 9t-53.5 18l-18.5 9l-5 13l3.5 13.5t8.5 37t11 52.5t11 59l65 5q-7 -57 -2.5 -88t26 -43t62.5 -12q34 0 59 17.5t40 47.5t15 69q0 110 -134 110q-19 0 -38.5 -2t-32.5 -4.5l-13 -2.5l-20 39l197 235h-227q-25 0 -37.5 -2t-16.5 -9.5t-7 -24.5l-62 -404
q-5 -39 0.5 -52.5t27.5 -13.5q11 0 23.5 1.5l12.5 1.5l5 -8l-17 -63l-11.5 0.5t-30 1.5t-37.5 1.5t-35 0.5q-32 0 -64.5 -3t-54.5 -5.5l-22 -2.5l15 59q42 8 59 25.5t22 60.5l50 396q5 32 -0.5 43t-25.5 11q-9 0 -19.5 -1l-10.5 -1l-5 7l14 54l16.5 -0.5t42.5 -0.5
t56.5 -0.5t58.5 -1t48 -0.5q41 0 90.5 0.5t99 1.5t90.5 2t66.5 1.5l25.5 0.5l13 -29l-192 -221l29 -1q52 -1 91 -23t61 -59t22 -84q0 -68 -34.5 -123t-93.5 -86.5t-134 -31.5z" />
    <glyph glyph-name="uni018F" unicode="&#x18f;" horiz-adv-x="634" 
d="M265 -12q-84 0 -141.5 37.5t-84 107t-16.5 164.5l124 -14q0 -71 16.5 -121t49.5 -76.5t79 -26.5q51 0 92.5 30t68.5 84t35 127q10 79 -8.5 135.5t-60.5 86.5t-105 30q-41 0 -92.5 -12t-94.5 -32l-10 4l-12 45q57 36 99.5 56t78.5 29t73 9q64 0 115.5 -24t87 -68
t51.5 -103.5t8 -129.5q-7 -72 -38 -133.5t-78.5 -107t-108 -71.5t-128.5 -26zM37 250l-14 45l11 19h513l-5 -53z" />
    <glyph glyph-name="T" unicode="T" horiz-adv-x="541" 
d="M256 577q-45 -2 -71.5 -6.5t-40 -17t-22.5 -37.5t-19 -68l-70 -5l3.5 17.5t9 46.5t12 64t11.5 70l12 10l88 -11h301l94 11l9 -10q-3 -35 -6 -69.5t-4 -62.5t-1.5 -44.5l-0.5 -16.5l-71 -5q0 45 -2.5 71.5t-12.5 39t-33.5 17t-65.5 6.5q-5 -24 -11.5 -65t-14.5 -90.5
t-15.5 -101t-13.5 -96t-10 -75.5t-4 -41q0 -27 10.5 -39t35.5 -12q23 0 38 1.5l15 1.5l3 -4l-16 -60l-17.5 0.5t-43.5 1.5t-53 1.5t-46 0.5t-44.5 -1t-50 -2t-41 -2l-16.5 -1l15 57q32 3 52 8.5t31 16.5t17 32t10 56z" />
    <glyph glyph-name="Tbar" unicode="&#x166;" horiz-adv-x="543" 
d="M427 334l13 -14l-4 -43h-168l-148 -1l-10 9l8 45l173 -1zM256 577q-45 -2 -71.5 -6.5t-40 -17t-22.5 -37.5t-19 -68l-70 -5l3.5 17.5t9 46.5t12 64t11.5 70l12 10l88 -11h301l94 11l9 -10q-3 -35 -6 -69.5t-4 -62.5t-1.5 -44.5l-0.5 -16.5l-71 -5q0 45 -2.5 71.5
t-12.5 39t-33.5 17t-65.5 6.5q-5 -24 -11.5 -65t-14.5 -90.5t-15.5 -101t-13.5 -96t-10 -75.5t-4 -41q0 -27 10.5 -39t35.5 -12q23 0 38 1.5l15 1.5l3 -4l-16 -60l-17.5 0.5t-43.5 1.5t-53 1.5t-46 0.5t-44.5 -1t-50 -2t-41 -2l-16.5 -1l15 57q32 3 52 8.5t31 16.5t17 32
t10 56z" />
    <glyph glyph-name="Tcaron" unicode="&#x164;" horiz-adv-x="541" 
d="M256 577q-45 -2 -71.5 -6.5t-40 -17t-22.5 -37.5t-19 -68l-70 -5l3.5 17.5t9 46.5t12 64t11.5 70l12 10l88 -11h301l94 11l9 -10q-3 -35 -6 -69.5t-4 -62.5t-1.5 -44.5l-0.5 -16.5l-71 -5q0 45 -2.5 71.5t-12.5 39t-33.5 17t-65.5 6.5q-5 -24 -11.5 -65t-14.5 -90.5
t-15.5 -101t-13.5 -96t-10 -75.5t-4 -41q0 -27 10.5 -39t35.5 -12q23 0 38 1.5l15 1.5l3 -4l-16 -60l-17.5 0.5t-43.5 1.5t-53 1.5t-46 0.5t-44.5 -1t-50 -2t-41 -2l-16.5 -1l15 57q32 3 52 8.5t31 16.5t17 32t10 56zM493 819q-9 -6 -28 -20t-42 -31t-44 -33t-34.5 -26
l-13.5 -10h-18l-11 10t-28 26t-35.5 33t-34 31t-22.5 20l24 35l15 3q5 -3 22 -12t36.5 -19.5t35.5 -19.5t19 -10q3 1 15.5 7t29.5 14.5t34.5 16.5t31 14.5t17.5 8.5l13 -3z" />
    <glyph glyph-name="uni0162" unicode="&#x162;" horiz-adv-x="541" 
d="M256 577q-45 -2 -71.5 -6.5t-40 -17t-22.5 -37.5t-19 -68l-70 -5l3.5 17.5t9 46.5t12 64t11.5 70l12 10l88 -11h301l94 11l9 -10q-3 -35 -6 -69.5t-4 -62.5t-1.5 -44.5l-0.5 -16.5l-71 -5q0 45 -2.5 71.5t-12.5 39t-33.5 17t-65.5 6.5q-5 -24 -11.5 -65t-14.5 -90.5
t-15.5 -101t-13.5 -96t-10 -75.5t-4 -41q0 -27 10.5 -39t35.5 -12q23 0 38 1.5l15 1.5l3 -4l-16 -60l-17.5 0.5t-43.5 1.5t-53 1.5t-46 0.5t-44.5 -1t-50 -2t-41 -2l-16.5 -1l15 57q32 3 52 8.5t31 16.5t17 32t10 56zM230 27h49l-30 -73q16 -10 34.5 -24t32 -30.5
t13.5 -35.5q0 -27 -21 -50t-53 -36.5t-65 -13.5q-23 0 -46 10.5t-23 28.5q0 8 7 19t17 23.5t18 20.5h8q-2 -28 10.5 -42t33.5 -14q18 0 31 10t13 25q0 16 -24 35t-50 34z" />
    <glyph glyph-name="uni021A" unicode="&#x21a;" horiz-adv-x="541" 
d="M256 577q-45 -2 -71.5 -6.5t-40 -17t-22.5 -37.5t-19 -68l-70 -5l3.5 17.5t9 46.5t12 64t11.5 70l12 10l88 -11h301l94 11l9 -10q-3 -35 -6 -69.5t-4 -62.5t-1.5 -44.5l-0.5 -16.5l-71 -5q0 45 -2.5 71.5t-12.5 39t-33.5 17t-65.5 6.5q-5 -24 -11.5 -65t-14.5 -90.5
t-15.5 -101t-13.5 -96t-10 -75.5t-4 -41q0 -27 10.5 -39t35.5 -12q23 0 38 1.5l15 1.5l3 -4l-16 -60l-17.5 0.5t-43.5 1.5t-53 1.5t-46 0.5t-44.5 -1t-50 -2t-41 -2l-16.5 -1l15 57q32 3 52 8.5t31 16.5t17 32t10 56zM169 -88q16 12 35.5 22t36.5 10q28 0 46 -22t18 -59
q0 -36 -20.5 -68t-52 -58.5t-67.5 -46.5l-31 25v15q29 20 49 48t20 53q0 20 -10.5 38t-25.5 29z" />
    <glyph glyph-name="uni1E6C" unicode="&#x1e6c;" horiz-adv-x="541" 
d="M256 577q-45 -2 -71.5 -6.5t-40 -17t-22.5 -37.5t-19 -68l-70 -5l3.5 17.5t9 46.5t12 64t11.5 70l12 10l88 -11h301l94 11l9 -10q-3 -35 -6 -69.5t-4 -62.5t-1.5 -44.5l-0.5 -16.5l-71 -5q0 45 -2.5 71.5t-12.5 39t-33.5 17t-65.5 6.5q-5 -24 -11.5 -65t-14.5 -90.5
t-15.5 -101t-13.5 -96t-10 -75.5t-4 -41q0 -27 10.5 -39t35.5 -12q23 0 38 1.5l15 1.5l3 -4l-16 -60l-17.5 0.5t-43.5 1.5t-53 1.5t-46 0.5t-44.5 -1t-50 -2t-41 -2l-16.5 -1l15 57q32 3 52 8.5t31 16.5t17 32t10 56zM213 -205q-30 0 -44.5 17.5t-14.5 42.5q0 36 23 60.5
t61 24.5q29 0 44.5 -17t15.5 -43q0 -36 -23 -60.5t-62 -24.5z" />
    <glyph glyph-name="uni1E6E" unicode="&#x1e6e;" horiz-adv-x="541" 
d="M256 577q-45 -2 -71.5 -6.5t-40 -17t-22.5 -37.5t-19 -68l-70 -5l3.5 17.5t9 46.5t12 64t11.5 70l12 10l88 -11h301l94 11l9 -10q-3 -35 -6 -69.5t-4 -62.5t-1.5 -44.5l-0.5 -16.5l-71 -5q0 45 -2.5 71.5t-12.5 39t-33.5 17t-65.5 6.5q-5 -24 -11.5 -65t-14.5 -90.5
t-15.5 -101t-13.5 -96t-10 -75.5t-4 -41q0 -27 10.5 -39t35.5 -12q23 0 38 1.5l15 1.5l3 -4l-16 -60l-17.5 0.5t-43.5 1.5t-53 1.5t-46 0.5t-44.5 -1t-50 -2t-41 -2l-16.5 -1l15 57q32 3 52 8.5t31 16.5t17 32t10 56zM377 -104l-19 -67l-136 -1h-60t-53.5 -0.5l-21.5 -0.5
l-8 11l20 66h25.5t60.5 -0.5t63 -0.5q24 0 53 1.5t49.5 3l20.5 1.5z" />
    <glyph glyph-name="U" unicode="U" horiz-adv-x="639" 
d="M202 242q-1 -11 -2 -22.5t-1 -20.5q0 -65 28.5 -99.5t85.5 -34.5q65 0 102.5 36.5t46.5 109.5q3 20 7 58t9 83l9.5 85.5t7.5 66.5l3 26q2 34 -2.5 44t-23.5 10q-8 0 -22 -1l-14 -1l-1 4l15 57l20 -1t46 -1.5t44 -0.5q24 0 49.5 1.5t43 3.5l17.5 2l-13 -58q-39 -7 -51 -16
t-15 -37l-40 -321q-14 -110 -83 -168.5t-186 -58.5q-99 0 -149 45.5t-50 132.5q0 19 3 40l40 324q4 33 -0.5 43.5t-25.5 10.5q-9 0 -20.5 -1l-11.5 -1l-1 4l15 57l21.5 -1t51.5 -1.5t55 -0.5q15 0 34 1t36.5 2.5t29 3l11.5 1.5l-13 -60q-33 -4 -46 -15.5t-17 -38.5z" />
    <glyph glyph-name="Uacute" unicode="&#xda;" horiz-adv-x="637" 
d="M202 242q-1 -11 -2 -22.5t-1 -20.5q0 -65 28.5 -99.5t85.5 -34.5q65 0 102.5 36.5t46.5 109.5q3 20 7 58t9 83l9.5 85.5t7.5 66.5l3 26q2 34 -2.5 44t-23.5 10q-8 0 -22 -1l-14 -1l-1 4l15 57l20 -1t46 -1.5t44 -0.5q24 0 49.5 1.5t43 3.5l17.5 2l-13 -58q-39 -7 -51 -16
t-15 -37l-40 -321q-14 -110 -83 -168.5t-186 -58.5q-99 0 -149 45.5t-50 132.5q0 19 3 40l40 324q4 33 -0.5 43.5t-25.5 10.5q-9 0 -20.5 -1l-11.5 -1l-1 4l15 57l21.5 -1t51.5 -1.5t55 -0.5q15 0 34 1t36.5 2.5t29 3l11.5 1.5l-13 -60q-33 -4 -46 -15.5t-17 -38.5zM509 759
l-19 -5.5t-50.5 -15t-71 -21.5t-81.5 -26l-11 7l-11 40q38 17 76.5 36t69.5 34.5t50 25.5l19 10l11 -6l23 -68z" />
    <glyph glyph-name="Ubreve" unicode="&#x16c;" horiz-adv-x="639" 
d="M202 242q-1 -11 -2 -22.5t-1 -20.5q0 -65 28.5 -99.5t85.5 -34.5q65 0 102.5 36.5t46.5 109.5q3 20 7 58t9 83l9.5 85.5t7.5 66.5l3 26q2 34 -2.5 44t-23.5 10q-8 0 -22 -1l-14 -1l-1 4l15 57l20 -1t46 -1.5t44 -0.5q24 0 49.5 1.5t43 3.5l17.5 2l-13 -58q-39 -7 -51 -16
t-15 -37l-40 -321q-14 -110 -83 -168.5t-186 -58.5q-99 0 -149 45.5t-50 132.5q0 19 3 40l40 324q4 33 -0.5 43.5t-25.5 10.5q-9 0 -20.5 -1l-11.5 -1l-1 4l15 57l21.5 -1t51.5 -1.5t55 -0.5q15 0 34 1t36.5 2.5t29 3l11.5 1.5l-13 -60q-33 -4 -46 -15.5t-17 -38.5zM387 789
q32 0 60 17t45 50l15 -2l20 -27q-11 -30 -31.5 -58t-50 -45.5t-68.5 -17.5t-64.5 17.5t-39 45.5t-17.5 58l26 27l15 2q9 -33 33 -50t57 -17z" />
    <glyph glyph-name="uni01D3" unicode="&#x1d3;" horiz-adv-x="639" 
d="M202 242q-1 -11 -2 -22.5t-1 -20.5q0 -65 28.5 -99.5t85.5 -34.5q65 0 102.5 36.5t46.5 109.5q3 20 7 58t9 83l9.5 85.5t7.5 66.5l3 26q2 34 -2.5 44t-23.5 10q-8 0 -22 -1l-14 -1l-1 4l15 57l20 -1t46 -1.5t44 -0.5q24 0 49.5 1.5t43 3.5l17.5 2l-13 -58q-39 -7 -51 -16
t-15 -37l-40 -321q-14 -110 -83 -168.5t-186 -58.5q-99 0 -149 45.5t-50 132.5q0 19 3 40l40 324q4 33 -0.5 43.5t-25.5 10.5q-9 0 -20.5 -1l-11.5 -1l-1 4l15 57l21.5 -1t51.5 -1.5t55 -0.5q15 0 34 1t36.5 2.5t29 3l11.5 1.5l-13 -60q-33 -4 -46 -15.5t-17 -38.5zM546 819
q-9 -6 -28 -20t-42 -31t-44 -33t-34.5 -26l-13.5 -10h-18l-11 10t-28 26t-35.5 33t-34 31t-22.5 20l24 35l15 3q5 -3 22 -12t36.5 -19.5t35.5 -19.5t19 -10q3 1 15.5 7t29.5 14.5t34.5 16.5t31 14.5t17.5 8.5l13 -3z" />
    <glyph glyph-name="Ucircumflex" unicode="&#xdb;" horiz-adv-x="639" 
d="M202 242q-1 -11 -2 -22.5t-1 -20.5q0 -65 28.5 -99.5t85.5 -34.5q65 0 102.5 36.5t46.5 109.5q3 20 7 58t9 83l9.5 85.5t7.5 66.5l3 26q2 34 -2.5 44t-23.5 10q-8 0 -22 -1l-14 -1l-1 4l15 57l20 -1t46 -1.5t44 -0.5q24 0 49.5 1.5t43 3.5l17.5 2l-13 -58q-39 -7 -51 -16
t-15 -37l-40 -321q-14 -110 -83 -168.5t-186 -58.5q-99 0 -149 45.5t-50 132.5q0 19 3 40l40 324q4 33 -0.5 43.5t-25.5 10.5q-9 0 -20.5 -1l-11.5 -1l-1 4l15 57l21.5 -1t51.5 -1.5t55 -0.5q15 0 34 1t36.5 2.5t29 3l11.5 1.5l-13 -60q-33 -4 -46 -15.5t-17 -38.5zM237 746
q8 6 27 20t41.5 31t43.5 33t35 26l14 10h18q0 1 11 -9t28.5 -26t36 -33.5t33.5 -31t23 -20.5l-26 -35l-14 -3q-5 3 -21.5 12t-36.5 19.5t-36 19.5t-20 10q-3 -1 -15 -7t-29 -14t-34.5 -16.5t-31 -15t-18.5 -8.5l-13 3z" />
    <glyph glyph-name="uni0214" unicode="&#x214;" horiz-adv-x="639" 
d="M202 242q-1 -11 -2 -22.5t-1 -20.5q0 -65 28.5 -99.5t85.5 -34.5q65 0 102.5 36.5t46.5 109.5q3 20 7 58t9 83l9.5 85.5t7.5 66.5l3 26q2 34 -2.5 44t-23.5 10q-8 0 -22 -1l-14 -1l-1 4l15 57l20 -1t46 -1.5t44 -0.5q24 0 49.5 1.5t43 3.5l17.5 2l-13 -58q-39 -7 -51 -16
t-15 -37l-40 -321q-14 -110 -83 -168.5t-186 -58.5q-99 0 -149 45.5t-50 132.5q0 19 3 40l40 324q4 33 -0.5 43.5t-25.5 10.5q-9 0 -20.5 -1l-11.5 -1l-1 4l15 57l21.5 -1t51.5 -1.5t55 -0.5q15 0 34 1t36.5 2.5t29 3l11.5 1.5l-13 -60q-33 -4 -46 -15.5t-17 -38.5zM494 680
q-42 26 -80 47.5t-62.5 34.5l-24.5 13l-2 11l36 55l11 3l22.5 -19.5t57.5 -49t72 -60.5l-18 -30zM335 674q-42 26 -80 47.5t-62.5 34.5l-24.5 13l-2 11l37 55l10 3l23 -19.5t58 -49.5t71 -60l-19 -30z" />
    <glyph glyph-name="Udieresis" unicode="&#xdc;" horiz-adv-x="639" 
d="M202 242q-1 -11 -2 -22.5t-1 -20.5q0 -65 28.5 -99.5t85.5 -34.5q65 0 102.5 36.5t46.5 109.5q3 20 7 58t9 83l9.5 85.5t7.5 66.5l3 26q2 34 -2.5 44t-23.5 10q-8 0 -22 -1l-14 -1l-1 4l15 57l20 -1t46 -1.5t44 -0.5q24 0 49.5 1.5t43 3.5l17.5 2l-13 -58q-39 -7 -51 -16
t-15 -37l-40 -321q-14 -110 -83 -168.5t-186 -58.5q-99 0 -149 45.5t-50 132.5q0 19 3 40l40 324q4 33 -0.5 43.5t-25.5 10.5q-9 0 -20.5 -1l-11.5 -1l-1 4l15 57l21.5 -1t51.5 -1.5t55 -0.5q15 0 34 1t36.5 2.5t29 3l11.5 1.5l-13 -60q-33 -4 -46 -15.5t-17 -38.5zM463 712
q-24 0 -35.5 14t-11.5 33q0 30 20 50t49 20q23 0 35 -13.5t12 -34.5q0 -29 -20 -49t-49 -20zM293 712q-23 0 -34.5 14t-11.5 33q0 30 19.5 50t49.5 20q23 0 34.5 -13.5t11.5 -34.5q0 -29 -19.5 -49t-49.5 -20z" />
    <glyph glyph-name="uni01D7" unicode="&#x1d7;" horiz-adv-x="639" 
d="M202 242q-1 -11 -2 -22.5t-1 -20.5q0 -65 28.5 -99.5t85.5 -34.5q65 0 102.5 36.5t46.5 109.5q3 20 7 58t9 83l9.5 85.5t7.5 66.5l3 26q2 34 -2.5 44t-23.5 10q-8 0 -22 -1l-14 -1l-1 4l15 57l20 -1t46 -1.5t44 -0.5q24 0 49.5 1.5t43 3.5l17.5 2l-13 -58q-39 -7 -51 -16
t-15 -37l-40 -321q-14 -110 -83 -168.5t-186 -58.5q-99 0 -149 45.5t-50 132.5q0 19 3 40l40 324q4 33 -0.5 43.5t-25.5 10.5q-9 0 -20.5 -1l-11.5 -1l-1 4l15 57l21.5 -1t51.5 -1.5t55 -0.5q15 0 34 1t36.5 2.5t29 3l11.5 1.5l-13 -60q-33 -4 -46 -15.5t-17 -38.5zM475 723
q-23 0 -34.5 14t-11.5 33q0 30 19.5 50t48.5 20q23 0 35 -13.5t12 -34.5q0 -29 -19.5 -49t-49.5 -20zM306 723q-23 0 -34.5 14t-11.5 33q0 30 20 50t48 20q24 0 35.5 -13.5t11.5 -34.5q0 -29 -19.5 -49t-49.5 -20zM536 931l-18.5 -5.5t-50 -14.5t-71.5 -21.5t-81 -26.5
l-12 8l-11 39q39 18 77.5 36.5t69.5 34.5t50 25.5l19 9.5l11 -6l22 -67z" />
    <glyph glyph-name="uni01D9" unicode="&#x1d9;" horiz-adv-x="639" 
d="M202 242q-1 -11 -2 -22.5t-1 -20.5q0 -65 28.5 -99.5t85.5 -34.5q65 0 102.5 36.5t46.5 109.5q3 20 7 58t9 83l9.5 85.5t7.5 66.5l3 26q2 34 -2.5 44t-23.5 10q-8 0 -22 -1l-14 -1l-1 4l15 57l20 -1t46 -1.5t44 -0.5q24 0 49.5 1.5t43 3.5l17.5 2l-13 -58q-39 -7 -51 -16
t-15 -37l-40 -321q-14 -110 -83 -168.5t-186 -58.5q-99 0 -149 45.5t-50 132.5q0 19 3 40l40 324q4 33 -0.5 43.5t-25.5 10.5q-9 0 -20.5 -1l-11.5 -1l-1 4l15 57l21.5 -1t51.5 -1.5t55 -0.5q15 0 34 1t36.5 2.5t29 3l11.5 1.5l-13 -60q-33 -4 -46 -15.5t-17 -38.5zM456 723
q-23 0 -34.5 14t-11.5 33q0 30 19.5 50t48.5 20q23 0 35 -13.5t12 -34.5q0 -29 -19.5 -49t-49.5 -20zM287 723q-23 0 -34.5 14t-11.5 33q0 30 20 50t48 20q24 0 35.5 -13.5t11.5 -34.5q0 -29 -19.5 -49t-49.5 -20zM561 963q-28 -19 -56.5 -40t-52 -39t-38 -29.5l-14.5 -11.5
h-18l-11.5 11.5t-31 29.5t-42.5 39t-47 40l26 35l13 3q32 -18 63.5 -34.5t50.5 -25.5q22 9 57 25t71 35l13 -3z" />
    <glyph glyph-name="uni01DB" unicode="&#x1db;" horiz-adv-x="639" 
d="M202 242q-1 -11 -2 -22.5t-1 -20.5q0 -65 28.5 -99.5t85.5 -34.5q65 0 102.5 36.5t46.5 109.5q3 20 7 58t9 83l9.5 85.5t7.5 66.5l3 26q2 34 -2.5 44t-23.5 10q-8 0 -22 -1l-14 -1l-1 4l15 57l20 -1t46 -1.5t44 -0.5q24 0 49.5 1.5t43 3.5l17.5 2l-13 -58q-39 -7 -51 -16
t-15 -37l-40 -321q-14 -110 -83 -168.5t-186 -58.5q-99 0 -149 45.5t-50 132.5q0 19 3 40l40 324q4 33 -0.5 43.5t-25.5 10.5q-9 0 -20.5 -1l-11.5 -1l-1 4l15 57l21.5 -1t51.5 -1.5t55 -0.5q15 0 34 1t36.5 2.5t29 3l11.5 1.5l-13 -60q-33 -4 -46 -15.5t-17 -38.5zM475 723
q-23 0 -34.5 14t-11.5 33q0 30 19.5 50t48.5 20q23 0 35 -13.5t12 -34.5q0 -29 -19.5 -49t-49.5 -20zM306 723q-23 0 -34.5 14t-11.5 33q0 30 20 50t48 20q24 0 35.5 -13.5t11.5 -34.5q0 -29 -19.5 -49t-49.5 -20zM292 943l22 67l12 6l18.5 -9.5t50 -25.5t69.5 -34.5
t77 -36.5l-11 -39l-11 -8q-42 14 -81.5 26.5t-71.5 21.5t-50.5 14.5l-18.5 5.5z" />
    <glyph glyph-name="uni01D5" unicode="&#x1d5;" horiz-adv-x="639" 
d="M202 242q-1 -11 -2 -22.5t-1 -20.5q0 -65 28.5 -99.5t85.5 -34.5q65 0 102.5 36.5t46.5 109.5q3 20 7 58t9 83l9.5 85.5t7.5 66.5l3 26q2 34 -2.5 44t-23.5 10q-8 0 -22 -1l-14 -1l-1 4l15 57l20 -1t46 -1.5t44 -0.5q24 0 49.5 1.5t43 3.5l17.5 2l-13 -58q-39 -7 -51 -16
t-15 -37l-40 -321q-14 -110 -83 -168.5t-186 -58.5q-99 0 -149 45.5t-50 132.5q0 19 3 40l40 324q4 33 -0.5 43.5t-25.5 10.5q-9 0 -20.5 -1l-11.5 -1l-1 4l15 57l21.5 -1t51.5 -1.5t55 -0.5q15 0 34 1t36.5 2.5t29 3l11.5 1.5l-13 -60q-33 -4 -46 -15.5t-17 -38.5zM459 709
q-23 0 -34.5 14t-11.5 34q0 29 19.5 49.5t48.5 20.5q23 0 35 -14t12 -34q0 -29 -19.5 -49.5t-49.5 -20.5zM290 709q-23 0 -34.5 14t-11.5 34q0 29 20 49.5t48 20.5q24 0 35.5 -14t11.5 -34q0 -29 -19.5 -49.5t-49.5 -20.5zM555 940l-18 -67l-137 -1h-59.5t-53.5 -0.5
l-22 -0.5l-8 11l21 66h15t37.5 -0.5t48.5 -0.5h47q24 0 53 1.5t50 3l21 1.5z" />
    <glyph glyph-name="uni1EE4" unicode="&#x1ee4;" horiz-adv-x="639" 
d="M202 242q-1 -11 -2 -22.5t-1 -20.5q0 -65 28.5 -99.5t85.5 -34.5q65 0 102.5 36.5t46.5 109.5q3 20 7 58t9 83l9.5 85.5t7.5 66.5l3 26q2 34 -2.5 44t-23.5 10q-8 0 -22 -1l-14 -1l-1 4l15 57l20 -1t46 -1.5t44 -0.5q24 0 49.5 1.5t43 3.5l17.5 2l-13 -58q-39 -7 -51 -16
t-15 -37l-40 -321q-14 -110 -83 -168.5t-186 -58.5q-99 0 -149 45.5t-50 132.5q0 19 3 40l40 324q4 33 -0.5 43.5t-25.5 10.5q-9 0 -20.5 -1l-11.5 -1l-1 4l15 57l21.5 -1t51.5 -1.5t55 -0.5q15 0 34 1t36.5 2.5t29 3l11.5 1.5l-13 -60q-33 -4 -46 -15.5t-17 -38.5z
M263 -205q-30 0 -44.5 17.5t-14.5 42.5q0 36 23 60.5t61 24.5q29 0 44.5 -17t15.5 -43q0 -36 -23 -60.5t-62 -24.5z" />
    <glyph glyph-name="Ugrave" unicode="&#xd9;" horiz-adv-x="637" 
d="M202 242q-1 -11 -2 -22.5t-1 -20.5q0 -65 28.5 -99.5t85.5 -34.5q65 0 102.5 36.5t46.5 109.5q3 20 7 58t9 83l9.5 85.5t7.5 66.5l3 26q2 34 -2.5 44t-23.5 10q-8 0 -22 -1l-14 -1l-1 4l15 57l20 -1t46 -1.5t44 -0.5q24 0 49.5 1.5t43 3.5l17.5 2l-13 -58q-39 -7 -51 -16
t-15 -37l-40 -321q-14 -110 -83 -168.5t-186 -58.5q-99 0 -149 45.5t-50 132.5q0 19 3 40l40 324q4 33 -0.5 43.5t-25.5 10.5q-9 0 -20.5 -1l-11.5 -1l-1 4l15 57l21.5 -1t51.5 -1.5t55 -0.5q15 0 34 1t36.5 2.5t29 3l11.5 1.5l-13 -60q-33 -4 -46 -15.5t-17 -38.5zM264 770
l23 68l11 5l19 -9.5l50 -25t69.5 -34.5t76.5 -37l-10 -39l-12 -8q-41 14 -81 26.5t-71.5 21.5t-50.5 14.5l-19 5.5z" />
    <glyph glyph-name="uni1EE6" unicode="&#x1ee6;" horiz-adv-x="639" 
d="M202 242q-1 -11 -2 -22.5t-1 -20.5q0 -65 28.5 -99.5t85.5 -34.5q65 0 102.5 36.5t46.5 109.5q3 20 7 58t9 83l9.5 85.5t7.5 66.5l3 26q2 34 -2.5 44t-23.5 10q-8 0 -22 -1l-14 -1l-1 4l15 57l20 -1t46 -1.5t44 -0.5q24 0 49.5 1.5t43 3.5l17.5 2l-13 -58q-39 -7 -51 -16
t-15 -37l-40 -321q-14 -110 -83 -168.5t-186 -58.5q-99 0 -149 45.5t-50 132.5q0 19 3 40l40 324q4 33 -0.5 43.5t-25.5 10.5q-9 0 -20.5 -1l-11.5 -1l-1 4l15 57l21.5 -1t51.5 -1.5t55 -0.5q15 0 34 1t36.5 2.5t29 3l11.5 1.5l-13 -60q-33 -4 -46 -15.5t-17 -38.5zM306 875
l14 11.5t35 26t42 21.5q43 0 66.5 -16.5t23.5 -47.5q0 -14 -7.5 -29t-23 -31t-40.5 -34l19 -39l-51 -26l-32 66q34 23 47.5 39t13.5 31q0 25 -33 25q-14 0 -28.5 -5.5t-23.5 -11l-9 -5.5z" />
    <glyph glyph-name="Uhorn" unicode="&#x1af;" horiz-adv-x="658" 
d="M565 640q32 0 44 13t12 35q0 29 -23 50l4 14q20 14 38 23t32 9q25 0 39.5 -16t14.5 -43q0 -45 -19.5 -72t-51.5 -44q-20 -11 -33.5 -19.5t-20.5 -20t-10 -33.5zM202 242q-1 -11 -2 -22.5t-1 -20.5q0 -65 28.5 -99.5t85.5 -34.5q65 0 102.5 36.5t46.5 109.5q3 20 7 58
t9 83l9.5 85.5t7.5 66.5l3 26q2 34 -2.5 44t-23.5 10q-8 0 -22 -1l-14 -1l-1 4l15 57l13 -0.5t31.5 -1t38 -1t32.5 -0.5l26 -104l-40 -321q-14 -110 -83 -168.5t-186 -58.5q-99 0 -149 45.5t-50 132.5q0 19 3 40l40 324q4 33 -0.5 43.5t-25.5 10.5q-9 0 -20.5 -1l-11.5 -1
l-1 4l15 57l21.5 -1t51.5 -1.5t55 -0.5q15 0 34 1t36.5 2.5t29 3l11.5 1.5l-13 -60q-33 -4 -46 -15.5t-17 -38.5z" />
    <glyph glyph-name="uni1EE8" unicode="&#x1ee8;" horiz-adv-x="658" 
d="M565 640q32 0 44 13t12 35q0 29 -23 50l4 14q20 14 38 23t32 9q25 0 39.5 -16t14.5 -43q0 -45 -19.5 -72t-51.5 -44q-20 -11 -33.5 -19.5t-20.5 -20t-10 -33.5zM202 242q-1 -11 -2 -22.5t-1 -20.5q0 -65 28.5 -99.5t85.5 -34.5q65 0 102.5 36.5t46.5 109.5q3 20 7 58
t9 83l9.5 85.5t7.5 66.5l3 26q2 34 -2.5 44t-23.5 10q-8 0 -22 -1l-14 -1l-1 4l15 57l13 -0.5t31.5 -1t38 -1t32.5 -0.5l26 -104l-40 -321q-14 -110 -83 -168.5t-186 -58.5q-99 0 -149 45.5t-50 132.5q0 19 3 40l40 324q4 33 -0.5 43.5t-25.5 10.5q-9 0 -20.5 -1l-11.5 -1
l-1 4l15 57l21.5 -1t51.5 -1.5t55 -0.5q15 0 34 1t36.5 2.5t29 3l11.5 1.5l-13 -60q-33 -4 -46 -15.5t-17 -38.5zM495 759l-19 -5.5t-50.5 -15t-71 -21.5t-81.5 -26l-11 7l-11 40q38 17 76.5 36t69.5 34.5t50 25.5l19 10l11 -6l23 -68z" />
    <glyph glyph-name="uni1EF0" unicode="&#x1ef0;" horiz-adv-x="658" 
d="M269 -205q-30 0 -44.5 17.5t-14.5 42.5q0 36 23 60.5t61 24.5q29 0 44.5 -17t15.5 -43q0 -36 -23 -60.5t-62 -24.5zM565 640q32 0 44 13t12 35q0 29 -23 50l4 14q20 14 38 23t32 9q25 0 39.5 -16t14.5 -43q0 -45 -19.5 -72t-51.5 -44q-20 -11 -33.5 -19.5t-20.5 -20
t-10 -33.5zM202 242q-1 -11 -2 -22.5t-1 -20.5q0 -65 28.5 -99.5t85.5 -34.5q65 0 102.5 36.5t46.5 109.5q3 20 7 58t9 83l9.5 85.5t7.5 66.5l3 26q2 34 -2.5 44t-23.5 10q-8 0 -22 -1l-14 -1l-1 4l15 57l13 -0.5t31.5 -1t38 -1t32.5 -0.5l26 -104l-40 -321
q-14 -110 -83 -168.5t-186 -58.5q-99 0 -149 45.5t-50 132.5q0 19 3 40l40 324q4 33 -0.5 43.5t-25.5 10.5q-9 0 -20.5 -1l-11.5 -1l-1 4l15 57l21.5 -1t51.5 -1.5t55 -0.5q15 0 34 1t36.5 2.5t29 3l11.5 1.5l-13 -60q-33 -4 -46 -15.5t-17 -38.5z" />
    <glyph glyph-name="uni1EEA" unicode="&#x1eea;" horiz-adv-x="658" 
d="M235 770l23 68l11 5l19 -9.5l50 -25t69.5 -34.5t76.5 -37l-10 -39l-12 -8q-41 14 -81 26.5t-71.5 21.5t-50.5 14.5l-19 5.5zM565 640q32 0 44 13t12 35q0 29 -23 50l4 14q20 14 38 23t32 9q25 0 39.5 -16t14.5 -43q0 -45 -19.5 -72t-51.5 -44q-20 -11 -33.5 -19.5
t-20.5 -20t-10 -33.5zM202 242q-1 -11 -2 -22.5t-1 -20.5q0 -65 28.5 -99.5t85.5 -34.5q65 0 102.5 36.5t46.5 109.5q3 20 7 58t9 83l9.5 85.5t7.5 66.5l3 26q2 34 -2.5 44t-23.5 10q-8 0 -22 -1l-14 -1l-1 4l15 57l13 -0.5t31.5 -1t38 -1t32.5 -0.5l26 -104l-40 -321
q-14 -110 -83 -168.5t-186 -58.5q-99 0 -149 45.5t-50 132.5q0 19 3 40l40 324q4 33 -0.5 43.5t-25.5 10.5q-9 0 -20.5 -1l-11.5 -1l-1 4l15 57l21.5 -1t51.5 -1.5t55 -0.5q15 0 34 1t36.5 2.5t29 3l11.5 1.5l-13 -60q-33 -4 -46 -15.5t-17 -38.5z" />
    <glyph glyph-name="uni1EEC" unicode="&#x1eec;" horiz-adv-x="658" 
d="M284 862l14 11.5t35 26t42 21.5q43 0 66.5 -16.5t23.5 -47.5q0 -14 -7.5 -29t-23 -31t-40.5 -34l19 -39l-51 -26l-32 66q34 23 47.5 39t13.5 31q0 25 -33 25q-14 0 -28.5 -5.5t-23.5 -11l-9 -5.5zM565 640q32 0 44 13t12 35q0 29 -23 50l4 14q20 14 38 23t32 9
q25 0 39.5 -16t14.5 -43q0 -45 -19.5 -72t-51.5 -44q-20 -11 -33.5 -19.5t-20.5 -20t-10 -33.5zM202 242q-1 -11 -2 -22.5t-1 -20.5q0 -65 28.5 -99.5t85.5 -34.5q65 0 102.5 36.5t46.5 109.5q3 20 7 58t9 83l9.5 85.5t7.5 66.5l3 26q2 34 -2.5 44t-23.5 10q-8 0 -22 -1
l-14 -1l-1 4l15 57l13 -0.5t31.5 -1t38 -1t32.5 -0.5l26 -104l-40 -321q-14 -110 -83 -168.5t-186 -58.5q-99 0 -149 45.5t-50 132.5q0 19 3 40l40 324q4 33 -0.5 43.5t-25.5 10.5q-9 0 -20.5 -1l-11.5 -1l-1 4l15 57l21.5 -1t51.5 -1.5t55 -0.5q15 0 34 1t36.5 2.5t29 3
l11.5 1.5l-13 -60q-33 -4 -46 -15.5t-17 -38.5z" />
    <glyph glyph-name="uni1EEE" unicode="&#x1eee;" horiz-adv-x="658" 
d="M224 718l-30 31l1 9l87 97l16 4q16 0 44 -8t55.5 -16.5t40.5 -8.5q8 0 19.5 8.5t23 19.5t18.5 19.5l7 8.5h10l30 -32l-1 -8l-87 -98l-16 -4q-17 0 -44.5 8.5t-54 17t-40.5 8.5q-9 0 -20.5 -9t-23 -19.5t-18.5 -19l-7 -8.5h-10zM565 640q32 0 44 13t12 35q0 29 -23 50
l4 14q20 14 38 23t32 9q25 0 39.5 -16t14.5 -43q0 -45 -19.5 -72t-51.5 -44q-20 -11 -33.5 -19.5t-20.5 -20t-10 -33.5zM202 242q-1 -11 -2 -22.5t-1 -20.5q0 -65 28.5 -99.5t85.5 -34.5q65 0 102.5 36.5t46.5 109.5q3 20 7 58t9 83l9.5 85.5t7.5 66.5l3 26q2 34 -2.5 44
t-23.5 10q-8 0 -22 -1l-14 -1l-1 4l15 57l13 -0.5t31.5 -1t38 -1t32.5 -0.5l26 -104l-40 -321q-14 -110 -83 -168.5t-186 -58.5q-99 0 -149 45.5t-50 132.5q0 19 3 40l40 324q4 33 -0.5 43.5t-25.5 10.5q-9 0 -20.5 -1l-11.5 -1l-1 4l15 57l21.5 -1t51.5 -1.5t55 -0.5
q15 0 34 1t36.5 2.5t29 3l11.5 1.5l-13 -60q-33 -4 -46 -15.5t-17 -38.5z" />
    <glyph glyph-name="Uhungarumlaut" unicode="&#x170;" horiz-adv-x="639" 
d="M202 242q-1 -11 -2 -22.5t-1 -20.5q0 -65 28.5 -99.5t85.5 -34.5q65 0 102.5 36.5t46.5 109.5q3 20 7 58t9 83l9.5 85.5t7.5 66.5l3 26q2 34 -2.5 44t-23.5 10q-8 0 -22 -1l-14 -1l-1 4l15 57l20 -1t46 -1.5t44 -0.5q24 0 49.5 1.5t43 3.5l17.5 2l-13 -58q-39 -7 -51 -16
t-15 -37l-40 -321q-14 -110 -83 -168.5t-186 -58.5q-99 0 -149 45.5t-50 132.5q0 19 3 40l40 324q4 33 -0.5 43.5t-25.5 10.5q-9 0 -20.5 -1l-11.5 -1l-1 4l15 57l21.5 -1t51.5 -1.5t55 -0.5q15 0 34 1t36.5 2.5t29 3l11.5 1.5l-13 -60q-33 -4 -46 -15.5t-17 -38.5zM441 782
l-24.5 -13t-62.5 -34.5t-80 -47.5l-12 5l-18 30q36 31 71 60.5t57.5 49l22.5 19.5l11 -3l37 -55zM600 776l-24.5 -13t-62.5 -34.5t-80 -47.5l-11 5l-19 30q36 30 71 60t57.5 49.5l22.5 19.5l11 -3l37 -55z" />
    <glyph glyph-name="uni0216" unicode="&#x216;" horiz-adv-x="639" 
d="M202 242q-1 -11 -2 -22.5t-1 -20.5q0 -65 28.5 -99.5t85.5 -34.5q65 0 102.5 36.5t46.5 109.5q3 20 7 58t9 83l9.5 85.5t7.5 66.5l3 26q2 34 -2.5 44t-23.5 10q-8 0 -22 -1l-14 -1l-1 4l15 57l20 -1t46 -1.5t44 -0.5q24 0 49.5 1.5t43 3.5l17.5 2l-13 -58q-39 -7 -51 -16
t-15 -37l-40 -321q-14 -110 -83 -168.5t-186 -58.5q-99 0 -149 45.5t-50 132.5q0 19 3 40l40 324q4 33 -0.5 43.5t-25.5 10.5q-9 0 -20.5 -1l-11.5 -1l-1 4l15 57l21.5 -1t51.5 -1.5t55 -0.5q15 0 34 1t36.5 2.5t29 3l11.5 1.5l-13 -60q-33 -4 -46 -15.5t-17 -38.5zM395 779
q-35 0 -64.5 -18t-47.5 -51l-14 4l-22 29q12 30 32 57t50 44.5t68 17.5q41 0 67.5 -18.5t41.5 -46.5t19 -58l-26 -25l-14 -1q-10 34 -34 50t-56 16z" />
    <glyph glyph-name="Umacron" unicode="&#x16a;" horiz-adv-x="639" 
d="M202 242q-1 -11 -2 -22.5t-1 -20.5q0 -65 28.5 -99.5t85.5 -34.5q65 0 102.5 36.5t46.5 109.5q3 20 7 58t9 83l9.5 85.5t7.5 66.5l3 26q2 34 -2.5 44t-23.5 10q-8 0 -22 -1l-14 -1l-1 4l15 57l20 -1t46 -1.5t44 -0.5q24 0 49.5 1.5t43 3.5l17.5 2l-13 -58q-39 -7 -51 -16
t-15 -37l-40 -321q-14 -110 -83 -168.5t-186 -58.5q-99 0 -149 45.5t-50 132.5q0 19 3 40l40 324q4 33 -0.5 43.5t-25.5 10.5q-9 0 -20.5 -1l-11.5 -1l-1 4l15 57l21.5 -1t51.5 -1.5t55 -0.5q15 0 34 1t36.5 2.5t29 3l11.5 1.5l-13 -60q-33 -4 -46 -15.5t-17 -38.5zM538 780
l-19 -67l-137 -1h-59.5t-53.5 -0.5l-22 -0.5l-8 11l21 66h25t60 -0.5t63 -0.5q24 0 53 1.5t50 3l21 1.5z" />
    <glyph glyph-name="uni1E7A" unicode="&#x1e7a;" horiz-adv-x="639" 
d="M202 242q-1 -11 -2 -22.5t-1 -20.5q0 -65 28.5 -99.5t85.5 -34.5q65 0 102.5 36.5t46.5 109.5q3 20 7 58t9 83l9.5 85.5t7.5 66.5l3 26q2 34 -2.5 44t-23.5 10q-8 0 -22 -1l-14 -1l-1 4l15 57l20 -1t46 -1.5t44 -0.5q24 0 49.5 1.5t43 3.5l17.5 2l-13 -58q-39 -7 -51 -16
t-15 -37l-40 -321q-14 -110 -83 -168.5t-186 -58.5q-99 0 -149 45.5t-50 132.5q0 19 3 40l40 324q4 33 -0.5 43.5t-25.5 10.5q-9 0 -20.5 -1l-11.5 -1l-1 4l15 57l21.5 -1t51.5 -1.5t55 -0.5q15 0 34 1t36.5 2.5t29 3l11.5 1.5l-13 -60q-33 -4 -46 -15.5t-17 -38.5zM538 780
l-19 -67l-137 -1h-59.5t-53.5 -0.5l-22 -0.5l-8 11l21 66h25t60 -0.5t63 -0.5q24 0 53 1.5t50 3l21 1.5zM481 823q-24 0 -35.5 14t-11.5 33q0 30 20 50t49 20q23 0 35 -13.5t12 -34.5q0 -29 -20 -49t-49 -20zM311 823q-23 0 -34.5 14t-11.5 33q0 30 19.5 50t49.5 20
q23 0 34.5 -13.5t11.5 -34.5q0 -29 -19.5 -49t-49.5 -20z" />
    <glyph glyph-name="Uogonek" unicode="&#x172;" horiz-adv-x="637" 
d="M82 643l21.5 -1t51.5 -1.5t55 -0.5q15 0 34 1t36.5 2.5t29 3l11.5 1.5l-13 -60q-33 -4 -46 -15.5t-17 -38.5l-43 -292q-1 -11 -2 -23t-1 -20q0 -66 29 -100t85 -34q65 0 102.5 36.5t46.5 109.5q3 20 7 58t9 83l9.5 85.5t7.5 66.5l3 26q2 34 -2.5 44t-23.5 10q-8 0 -22 -1
l-14 -1l-1 4l15 57l20 -1t46 -1.5t44 -0.5q24 0 49.5 1.5t43 3.5l17.5 2l-13 -58q-41 -8 -52.5 -17.5t-13.5 -35.5l-40 -321q-7 -54 -29 -96t-50.5 -75.5t-56.5 -62t-46 -55t-18 -54.5q0 -20 11.5 -30.5t29.5 -10.5q16 0 30.5 4.5t26 10t14.5 8.5l16 -28q-7 -6 -24.5 -19
t-39 -26.5t-43.5 -21.5q-49 0 -77.5 23t-28.5 62q0 23 12.5 48.5t42 60t78.5 80.5l-12 -29q-23 -8 -50 -12t-55 -4q-98 0 -148.5 45.5t-50.5 132.5q0 19 3 40l40 324q4 33 -1 43.5t-25 10.5q-9 0 -20.5 -1l-11.5 -1l-1 4z" />
    <glyph glyph-name="Uring" unicode="&#x16e;" horiz-adv-x="639" 
d="M202 242q-1 -11 -2 -22.5t-1 -20.5q0 -65 28.5 -99.5t85.5 -34.5q65 0 102.5 36.5t46.5 109.5q3 20 7 58t9 83l9.5 85.5t7.5 66.5l3 26q2 34 -2.5 44t-23.5 10q-8 0 -22 -1l-14 -1l-1 4l15 57l20 -1t46 -1.5t44 -0.5q24 0 49.5 1.5t43 3.5l17.5 2l-13 -58q-39 -7 -51 -16
t-15 -37l-40 -321q-14 -110 -83 -168.5t-186 -58.5q-99 0 -149 45.5t-50 132.5q0 19 3 40l40 324q4 33 -0.5 43.5t-25.5 10.5q-9 0 -20.5 -1l-11.5 -1l-1 4l15 57l21.5 -1t51.5 -1.5t55 -0.5q15 0 34 1t36.5 2.5t29 3l11.5 1.5l-13 -60q-33 -4 -46 -15.5t-17 -38.5zM374 677
q-36 0 -54.5 20.5t-18.5 53.5q0 45 29 75t74 30q40 0 56.5 -22t16.5 -51q0 -27 -12.5 -51.5t-35.5 -39.5t-55 -15zM386 725q9 0 19 3t18 12t8 28q0 17 -10 27.5t-31 10.5t-32 -12t-11 -31q0 -20 13.5 -29t25.5 -9z" />
    <glyph glyph-name="uni1E78" unicode="&#x1e78;" horiz-adv-x="639" 
d="M202 242q-1 -11 -2 -22.5t-1 -20.5q0 -65 28.5 -99.5t85.5 -34.5q65 0 102.5 36.5t46.5 109.5q3 20 7 58t9 83l9.5 85.5t7.5 66.5l3 26q2 34 -2.5 44t-23.5 10q-8 0 -22 -1l-14 -1l-1 4l15 57l20 -1t46 -1.5t44 -0.5q24 0 49.5 1.5t43 3.5l17.5 2l-13 -58q-39 -7 -51 -16
t-15 -37l-40 -321q-14 -110 -83 -168.5t-186 -58.5q-99 0 -149 45.5t-50 132.5q0 19 3 40l40 324q4 33 -0.5 43.5t-25.5 10.5q-9 0 -20.5 -1l-11.5 -1l-1 4l15 57l21.5 -1t51.5 -1.5t55 -0.5q15 0 34 1t36.5 2.5t29 3l11.5 1.5l-13 -60q-33 -4 -46 -15.5t-17 -38.5zM255 683
l-29 30l1 9l85 94l15 4q16 0 43 -8t53.5 -16t39.5 -8q8 0 19.5 8.5t22.5 19t18 18.5l7 8h9l30 -30l-2 -8l-84 -95l-16 -4q-16 0 -43 8.5t-53 16.5t-40 8q-11 0 -27 -13.5t-28 -27.5l-12 -14h-9zM524 897l-19 -5t-51 -13.5t-72 -19t-82 -23.5l-12 8l-9 39q39 17 77.5 34
t70.5 32t51 24l19 9l11 -6l21 -67z" />
    <glyph glyph-name="V" unicode="V" horiz-adv-x="597" 
d="M110 523q-5 31 -21.5 45t-48.5 16l-3 6l14 52l21.5 -0.5t49 -1t46.5 -0.5q25 0 52 1.5t50.5 3t38.5 3l15 1.5l3 -7l-11 -53q-36 -2 -53.5 -7.5t-23.5 -14.5t-6 -24q0 -14 3.5 -51t9 -85t11 -98.5t11 -94t9 -70.5l3.5 -27h12q13 29 32 70t40 87.5t41.5 92.5t37 86t26.5 67
t10 35q0 16 -11.5 23t-38.5 7h-42l-4 6l14 55l22.5 -1.5t56.5 -3t64 -1.5q25 0 50.5 0.5t43 1.5l17.5 1l-14 -59q-26 -2 -37.5 -11.5t-25.5 -38.5l-246 -529l-130 -21l-3.5 24.5t-10.5 67t-15.5 97t-18.5 115l-20 121t-20 114.5z" />
    <glyph glyph-name="W" unicode="W" horiz-adv-x="918" 
d="M526 -16l-47 378h-9l-156 -357l-128 -21l-3 24.5t-8.5 67t-13 97t-16.5 115l-18 121t-18 114.5q-6 31 -21.5 45t-45.5 16l-3 6l13 52l20.5 -0.5t47.5 -1t45 -0.5q38 0 73 2.5t58 4.5l23 2l3 -7l-10 -53q-51 -4 -68 -14t-17 -33q0 -16 3 -53.5t8 -85.5t11 -98t10.5 -92.5
t8 -69l3.5 -26.5h11q19 45 39.5 92.5t41.5 96t41 95t39 86.5q1 14 0.5 22t-2.5 14t-3 11q-4 27 -18.5 38t-48.5 12l-3 6l14 52l13.5 -0.5t33.5 -0.5t40.5 -0.5t35.5 -0.5q35 0 70 2.5t59 4.5l24 2l3 -7l-11 -53q-52 -4 -68.5 -13t-16.5 -33q0 -15 3 -52t8.5 -85t11 -98.5
t11 -93.5t8.5 -70l3 -27h11q14 33 33 76t40 90.5t40.5 93.5t35.5 85t25 65t9 32q0 15 -11.5 20.5t-38.5 5.5h-36l-3 6l14 55l21.5 -1.5t53 -3t60.5 -1.5q24 0 48 0.5t41 1.5l17 1l-14 -59q-24 -3 -35.5 -12.5t-24.5 -37.5l-244 -529z" />
    <glyph glyph-name="Wacute" unicode="&#x1e82;" horiz-adv-x="918" 
d="M526 -16l-47 378h-9l-156 -357l-128 -21l-3 24.5t-8.5 67t-13 97t-16.5 115l-18 121t-18 114.5q-6 31 -21.5 45t-45.5 16l-3 6l13 52l20.5 -0.5t47.5 -1t45 -0.5q38 0 73 2.5t58 4.5l23 2l3 -7l-10 -53q-51 -4 -68 -14t-17 -33q0 -16 3 -53.5t8 -85.5t11 -98t10.5 -92.5
t8 -69l3.5 -26.5h11q19 45 39.5 92.5t41.5 96t41 95t39 86.5q1 14 0.5 22t-2.5 14t-3 11q-4 27 -18.5 38t-48.5 12l-3 6l14 52l13.5 -0.5t33.5 -0.5t40.5 -0.5t35.5 -0.5q35 0 70 2.5t59 4.5l24 2l3 -7l-11 -53q-52 -4 -68.5 -13t-16.5 -33q0 -15 3 -52t8.5 -85t11 -98.5
t11 -93.5t8.5 -70l3 -27h11q14 33 33 76t40 90.5t40.5 93.5t35.5 85t25 65t9 32q0 15 -11.5 20.5t-38.5 5.5h-36l-3 6l14 55l21.5 -1.5t53 -3t60.5 -1.5q24 0 48 0.5t41 1.5l17 1l-14 -59q-24 -3 -35.5 -12.5t-24.5 -37.5l-244 -529zM645 759l-19 -5.5t-50.5 -15t-71 -21.5
t-81.5 -26l-11 7l-11 40q38 17 76.5 36t69.5 34.5t50 25.5l19 10l11 -6l23 -68z" />
    <glyph glyph-name="Wcircumflex" unicode="&#x174;" horiz-adv-x="918" 
d="M526 -16l-47 378h-9l-156 -357l-128 -21l-3 24.5t-8.5 67t-13 97t-16.5 115l-18 121t-18 114.5q-6 31 -21.5 45t-45.5 16l-3 6l13 52l20.5 -0.5t47.5 -1t45 -0.5q38 0 73 2.5t58 4.5l23 2l3 -7l-10 -53q-51 -4 -68 -14t-17 -33q0 -16 3 -53.5t8 -85.5t11 -98t10.5 -92.5
t8 -69l3.5 -26.5h11q19 45 39.5 92.5t41.5 96t41 95t39 86.5q1 14 0.5 22t-2.5 14t-3 11q-4 27 -18.5 38t-48.5 12l-3 6l14 52l13.5 -0.5t33.5 -0.5t40.5 -0.5t35.5 -0.5q35 0 70 2.5t59 4.5l24 2l3 -7l-11 -53q-52 -4 -68.5 -13t-16.5 -33q0 -15 3 -52t8.5 -85t11 -98.5
t11 -93.5t8.5 -70l3 -27h11q14 33 33 76t40 90.5t40.5 93.5t35.5 85t25 65t9 32q0 15 -11.5 20.5t-38.5 5.5h-36l-3 6l14 55l21.5 -1.5t53 -3t60.5 -1.5q24 0 48 0.5t41 1.5l17 1l-14 -59q-24 -3 -35.5 -12.5t-24.5 -37.5l-244 -529zM373 746q8 6 27 20t41.5 31t43.5 33
t35 26l14 10h18q0 1 11 -9t28.5 -26t36 -33.5t33.5 -31t23 -20.5l-26 -35l-14 -3q-5 3 -21.5 12t-36.5 19.5t-36 19.5t-20 10q-3 -1 -15 -7t-29 -14t-34.5 -16.5t-31 -15t-18.5 -8.5l-13 3z" />
    <glyph glyph-name="Wdieresis" unicode="&#x1e84;" horiz-adv-x="918" 
d="M526 -16l-47 378h-9l-156 -357l-128 -21l-3 24.5t-8.5 67t-13 97t-16.5 115l-18 121t-18 114.5q-6 31 -21.5 45t-45.5 16l-3 6l13 52l20.5 -0.5t47.5 -1t45 -0.5q38 0 73 2.5t58 4.5l23 2l3 -7l-10 -53q-51 -4 -68 -14t-17 -33q0 -16 3 -53.5t8 -85.5t11 -98t10.5 -92.5
t8 -69l3.5 -26.5h11q19 45 39.5 92.5t41.5 96t41 95t39 86.5q1 14 0.5 22t-2.5 14t-3 11q-4 27 -18.5 38t-48.5 12l-3 6l14 52l13.5 -0.5t33.5 -0.5t40.5 -0.5t35.5 -0.5q35 0 70 2.5t59 4.5l24 2l3 -7l-11 -53q-52 -4 -68.5 -13t-16.5 -33q0 -15 3 -52t8.5 -85t11 -98.5
t11 -93.5t8.5 -70l3 -27h11q14 33 33 76t40 90.5t40.5 93.5t35.5 85t25 65t9 32q0 15 -11.5 20.5t-38.5 5.5h-36l-3 6l14 55l21.5 -1.5t53 -3t60.5 -1.5q24 0 48 0.5t41 1.5l17 1l-14 -59q-24 -3 -35.5 -12.5t-24.5 -37.5l-244 -529zM599 712q-24 0 -35.5 14t-11.5 33
q0 30 20 50t49 20q23 0 35 -13.5t12 -34.5q0 -29 -20 -49t-49 -20zM429 712q-23 0 -34.5 14t-11.5 33q0 30 19.5 50t49.5 20q23 0 34.5 -13.5t11.5 -34.5q0 -29 -19.5 -49t-49.5 -20z" />
    <glyph glyph-name="Wgrave" unicode="&#x1e80;" horiz-adv-x="918" 
d="M526 -16l-47 378h-9l-156 -357l-128 -21l-3 24.5t-8.5 67t-13 97t-16.5 115l-18 121t-18 114.5q-6 31 -21.5 45t-45.5 16l-3 6l13 52l20.5 -0.5t47.5 -1t45 -0.5q38 0 73 2.5t58 4.5l23 2l3 -7l-10 -53q-51 -4 -68 -14t-17 -33q0 -16 3 -53.5t8 -85.5t11 -98t10.5 -92.5
t8 -69l3.5 -26.5h11q19 45 39.5 92.5t41.5 96t41 95t39 86.5q1 14 0.5 22t-2.5 14t-3 11q-4 27 -18.5 38t-48.5 12l-3 6l14 52l13.5 -0.5t33.5 -0.5t40.5 -0.5t35.5 -0.5q35 0 70 2.5t59 4.5l24 2l3 -7l-11 -53q-52 -4 -68.5 -13t-16.5 -33q0 -15 3 -52t8.5 -85t11 -98.5
t11 -93.5t8.5 -70l3 -27h11q14 33 33 76t40 90.5t40.5 93.5t35.5 85t25 65t9 32q0 15 -11.5 20.5t-38.5 5.5h-36l-3 6l14 55l21.5 -1.5t53 -3t60.5 -1.5q24 0 48 0.5t41 1.5l17 1l-14 -59q-24 -3 -35.5 -12.5t-24.5 -37.5l-244 -529zM400 770l23 68l11 5l19 -9.5l50 -25
t69.5 -34.5t76.5 -37l-10 -39l-12 -8q-41 14 -81 26.5t-71.5 21.5t-50.5 14.5l-19 5.5z" />
    <glyph glyph-name="X" unicode="X" horiz-adv-x="648" 
d="M318 -7l-3 7l11 52q32 1 49.5 9t17.5 24q0 14 -12 37l-72 139l-85 -102q-19 -22 -29.5 -37t-14.5 -24t-4 -18q0 -12 9.5 -18.5t33.5 -7.5l3 -6l-13 -54l-13.5 1t-33 2.5t-39 2.5t-33.5 1q-13 0 -31.5 -1t-35 -2t-27.5 -1.5l-11 -0.5l-3 9l11 52q26 8 52 27.5t53.5 47
t56.5 61.5l116 133l-90 175q-13 26 -30 43t-38 26t-48 14l-2 5l13 54l14 -0.5t36.5 -1.5t48.5 -1h49q25 0 50 1t46.5 2.5t34 3l12.5 1.5l3 -9l-10 -49q-71 -4 -71 -34q0 -15 20.5 -58.5t51.5 -107.5q17 22 38.5 48t42 52t33.5 46t13 30q0 11 -9.5 16t-33.5 7q0 2 -0.5 3
t-0.5 2l11 51q9 0 30 -1.5t46 -2.5t45 -1q22 0 45.5 0.5t40.5 1.5l17 1l3 -6l-12 -52q-30 -9 -51.5 -21t-42 -32t-47.5 -52l-127 -151l99 -187q23 -41 49.5 -60.5t69.5 -23.5l-13 -60l-13 0.5t-32.5 1t-40.5 1t-37 0.5q-15 0 -36.5 -1t-44 -2t-42 -2t-31.5 -2z" />
    <glyph glyph-name="Y" unicode="Y" horiz-adv-x="557" 
d="M236 556q0 -9 6 -33.5t15 -55t18 -60t16 -51t8 -25.5h7l110 184q20 32 20 51q0 11 -10 16.5t-36 6.5l-2 5l13 51q9 0 30 -1.5t46 -3t45 -1.5q21 0 43 1t37.5 2l15.5 1l3 -6l-13 -52q-22 -6 -39 -15.5t-31.5 -24t-30 -36.5t-35.5 -53l-114 -177q-12 -18 -18.5 -37
t-10.5 -46.5t-10 -71.5q-4 -37 2.5 -52t33.5 -15q16 0 32 1.5l16 1.5l3 -4l-16 -60l-16 0.5t-40 1.5t-49 1.5t-42 0.5q-20 0 -43.5 -2t-45.5 -3.5t-36 -3.5l-14 -2l14 59q37 6 56.5 16t27.5 29.5t11 54.5l4 35q3 28 1 50.5t-15 56.5l-69 188q-12 34 -22.5 55.5t-27.5 33.5
t-49 17l-3 5l14 54l12.5 -0.5t31.5 -1.5t39 -1.5t35 -0.5q19 0 44.5 1.5t49.5 3t40 3l16 1.5l3 -9l-11 -49q-40 -2 -55 -9.5t-15 -24.5z" />
    <glyph glyph-name="Ycircumflex" unicode="&#x176;" horiz-adv-x="557" 
d="M236 556q0 -9 6 -33.5t15 -55t18 -60t16 -51t8 -25.5h7l110 184q20 32 20 51q0 11 -10 16.5t-36 6.5l-2 5l13 51q9 0 30 -1.5t46 -3t45 -1.5q21 0 43 1t37.5 2l15.5 1l3 -6l-13 -52q-22 -6 -39 -15.5t-31.5 -24t-30 -36.5t-35.5 -53l-114 -177q-12 -18 -18.5 -37
t-10.5 -46.5t-10 -71.5q-4 -37 2.5 -52t33.5 -15q16 0 32 1.5l16 1.5l3 -4l-16 -60l-16 0.5t-40 1.5t-49 1.5t-42 0.5q-20 0 -43.5 -2t-45.5 -3.5t-36 -3.5l-14 -2l14 59q37 6 56.5 16t27.5 29.5t11 54.5l4 35q3 28 1 50.5t-15 56.5l-69 188q-12 34 -22.5 55.5t-27.5 33.5
t-49 17l-3 5l14 54l12.5 -0.5t31.5 -1.5t39 -1.5t35 -0.5q19 0 44.5 1.5t49.5 3t40 3l16 1.5l3 -9l-11 -49q-40 -2 -55 -9.5t-15 -24.5zM208 746q8 6 27 20t41.5 31t43.5 33t35 26l14 10h18q0 1 11 -9t28.5 -26t36 -33.5t33.5 -31t23 -20.5l-26 -35l-14 -3q-5 3 -21.5 12
t-36.5 19.5t-36 19.5t-20 10q-3 -1 -15 -7t-29 -14t-34.5 -16.5t-31 -15t-18.5 -8.5l-13 3z" />
    <glyph glyph-name="Ydieresis" unicode="&#x178;" horiz-adv-x="557" 
d="M236 556q0 -9 6 -33.5t15 -55t18 -60t16 -51t8 -25.5h7l110 184q20 32 20 51q0 11 -10 16.5t-36 6.5l-2 5l13 51q9 0 30 -1.5t46 -3t45 -1.5q21 0 43 1t37.5 2l15.5 1l3 -6l-13 -52q-22 -6 -39 -15.5t-31.5 -24t-30 -36.5t-35.5 -53l-114 -177q-12 -18 -18.5 -37
t-10.5 -46.5t-10 -71.5q-4 -37 2.5 -52t33.5 -15q16 0 32 1.5l16 1.5l3 -4l-16 -60l-16 0.5t-40 1.5t-49 1.5t-42 0.5q-20 0 -43.5 -2t-45.5 -3.5t-36 -3.5l-14 -2l14 59q37 6 56.5 16t27.5 29.5t11 54.5l4 35q3 28 1 50.5t-15 56.5l-69 188q-12 34 -22.5 55.5t-27.5 33.5
t-49 17l-3 5l14 54l12.5 -0.5t31.5 -1.5t39 -1.5t35 -0.5q19 0 44.5 1.5t49.5 3t40 3l16 1.5l3 -9l-11 -49q-40 -2 -55 -9.5t-15 -24.5zM435 712q-24 0 -35.5 14t-11.5 33q0 30 20 50t49 20q23 0 35 -13.5t12 -34.5q0 -29 -20 -49t-49 -20zM265 712q-23 0 -34.5 14t-11.5 33
q0 30 19.5 50t49.5 20q23 0 34.5 -13.5t11.5 -34.5q0 -29 -19.5 -49t-49.5 -20z" />
    <glyph glyph-name="uni1E8E" unicode="&#x1e8e;" horiz-adv-x="557" 
d="M236 556q0 -9 6 -33.5t15 -55t18 -60t16 -51t8 -25.5h7l110 184q20 32 20 51q0 11 -10 16.5t-36 6.5l-2 5l13 51q9 0 30 -1.5t46 -3t45 -1.5q21 0 43 1t37.5 2l15.5 1l3 -6l-13 -52q-22 -6 -39 -15.5t-31.5 -24t-30 -36.5t-35.5 -53l-114 -177q-12 -18 -18.5 -37
t-10.5 -46.5t-10 -71.5q-4 -37 2.5 -52t33.5 -15q16 0 32 1.5l16 1.5l3 -4l-16 -60l-16 0.5t-40 1.5t-49 1.5t-42 0.5q-20 0 -43.5 -2t-45.5 -3.5t-36 -3.5l-14 -2l14 59q37 6 56.5 16t27.5 29.5t11 54.5l4 35q3 28 1 50.5t-15 56.5l-69 188q-12 34 -22.5 55.5t-27.5 33.5
t-49 17l-3 5l14 54l12.5 -0.5t31.5 -1.5t39 -1.5t35 -0.5q19 0 44.5 1.5t49.5 3t40 3l16 1.5l3 -9l-11 -49q-40 -2 -55 -9.5t-15 -24.5zM349 707q-27 0 -41.5 16.5t-14.5 40.5q0 35 23 58.5t59 23.5q27 0 41 -16.5t14 -39.5q0 -35 -23 -59t-58 -24z" />
    <glyph glyph-name="uni1EF4" unicode="&#x1ef4;" horiz-adv-x="557" 
d="M236 556q0 -9 6 -33.5t15 -55t18 -60t16 -51t8 -25.5h7l110 184q20 32 20 51q0 11 -10 16.5t-36 6.5l-2 5l13 51q9 0 30 -1.5t46 -3t45 -1.5q21 0 43 1t37.5 2l15.5 1l3 -6l-13 -52q-22 -6 -39 -15.5t-31.5 -24t-30 -36.5t-35.5 -53l-114 -177q-12 -18 -18.5 -37
t-10.5 -46.5t-10 -71.5q-4 -37 2.5 -52t33.5 -15q16 0 32 1.5l16 1.5l3 -4l-16 -60l-16 0.5t-40 1.5t-49 1.5t-42 0.5q-20 0 -43.5 -2t-45.5 -3.5t-36 -3.5l-14 -2l14 59q37 6 56.5 16t27.5 29.5t11 54.5l4 35q3 28 1 50.5t-15 56.5l-69 188q-12 34 -22.5 55.5t-27.5 33.5
t-49 17l-3 5l14 54l12.5 -0.5t31.5 -1.5t39 -1.5t35 -0.5q19 0 44.5 1.5t49.5 3t40 3l16 1.5l3 -9l-11 -49q-40 -2 -55 -9.5t-15 -24.5zM221 -205q-30 0 -44.5 17.5t-14.5 42.5q0 36 23 60.5t61 24.5q29 0 44.5 -17t15.5 -43q0 -36 -23 -60.5t-62 -24.5z" />
    <glyph glyph-name="Ygrave" unicode="&#x1ef2;" horiz-adv-x="562" 
d="M236 556q0 -9 6 -33.5t15 -55t18 -60t16 -51t8 -25.5h7l110 184q20 32 20 51q0 11 -10 16.5t-36 6.5l-2 5l13 51q9 0 30 -1.5t46 -3t45 -1.5q21 0 43 1t37.5 2l15.5 1l3 -6l-13 -52q-22 -6 -39 -15.5t-31.5 -24t-30 -36.5t-35.5 -53l-114 -177q-12 -18 -18.5 -37
t-10.5 -46.5t-10 -71.5q-4 -37 2.5 -52t33.5 -15q16 0 32 1.5l16 1.5l3 -4l-16 -60l-16 0.5t-40 1.5t-49 1.5t-42 0.5q-20 0 -43.5 -2t-45.5 -3.5t-36 -3.5l-14 -2l14 59q37 6 56.5 16t27.5 29.5t11 54.5l4 35q3 28 1 50.5t-15 56.5l-69 188q-12 34 -22.5 55.5t-27.5 33.5
t-49 17l-3 5l14 54l12.5 -0.5t31.5 -1.5t39 -1.5t35 -0.5q19 0 44.5 1.5t49.5 3t40 3l16 1.5l3 -9l-11 -49q-40 -2 -55 -9.5t-15 -24.5zM236 770l23 68l11 5l19 -9.5l50 -25t69.5 -34.5t76.5 -37l-10 -39l-12 -8q-41 14 -81 26.5t-71.5 21.5t-50.5 14.5l-19 5.5z" />
    <glyph glyph-name="uni1EF6" unicode="&#x1ef6;" horiz-adv-x="557" 
d="M236 556q0 -9 6 -33.5t15 -55t18 -60t16 -51t8 -25.5h7l110 184q20 32 20 51q0 11 -10 16.5t-36 6.5l-2 5l13 51q9 0 30 -1.5t46 -3t45 -1.5q21 0 43 1t37.5 2l15.5 1l3 -6l-13 -52q-22 -6 -39 -15.5t-31.5 -24t-30 -36.5t-35.5 -53l-114 -177q-12 -18 -18.5 -37
t-10.5 -46.5t-10 -71.5q-4 -37 2.5 -52t33.5 -15q16 0 32 1.5l16 1.5l3 -4l-16 -60l-16 0.5t-40 1.5t-49 1.5t-42 0.5q-20 0 -43.5 -2t-45.5 -3.5t-36 -3.5l-14 -2l14 59q37 6 56.5 16t27.5 29.5t11 54.5l4 35q3 28 1 50.5t-15 56.5l-69 188q-12 34 -22.5 55.5t-27.5 33.5
t-49 17l-3 5l14 54l12.5 -0.5t31.5 -1.5t39 -1.5t35 -0.5q19 0 44.5 1.5t49.5 3t40 3l16 1.5l3 -9l-11 -49q-40 -2 -55 -9.5t-15 -24.5zM278 875l14 11.5t35 26t42 21.5q43 0 66.5 -16.5t23.5 -47.5q0 -14 -7.5 -29t-23 -31t-40.5 -34l19 -39l-51 -26l-32 66q34 23 47.5 39
t13.5 31q0 25 -33 25q-14 0 -28.5 -5.5t-23.5 -11l-9 -5.5z" />
    <glyph glyph-name="uni0232" unicode="&#x232;" horiz-adv-x="557" 
d="M236 556q0 -9 6 -33.5t15 -55t18 -60t16 -51t8 -25.5h7l110 184q20 32 20 51q0 11 -10 16.5t-36 6.5l-2 5l13 51q9 0 30 -1.5t46 -3t45 -1.5q21 0 43 1t37.5 2l15.5 1l3 -6l-13 -52q-22 -6 -39 -15.5t-31.5 -24t-30 -36.5t-35.5 -53l-114 -177q-12 -18 -18.5 -37
t-10.5 -46.5t-10 -71.5q-4 -37 2.5 -52t33.5 -15q16 0 32 1.5l16 1.5l3 -4l-16 -60l-16 0.5t-40 1.5t-49 1.5t-42 0.5q-20 0 -43.5 -2t-45.5 -3.5t-36 -3.5l-14 -2l14 59q37 6 56.5 16t27.5 29.5t11 54.5l4 35q3 28 1 50.5t-15 56.5l-69 188q-12 34 -22.5 55.5t-27.5 33.5
t-49 17l-3 5l14 54l12.5 -0.5t31.5 -1.5t39 -1.5t35 -0.5q19 0 44.5 1.5t49.5 3t40 3l16 1.5l3 -9l-11 -49q-40 -2 -55 -9.5t-15 -24.5zM510 780l-19 -67l-137 -1h-59.5t-53.5 -0.5l-22 -0.5l-8 11l21 66h25t60 -0.5t63 -0.5q24 0 53 1.5t50 3l21 1.5z" />
    <glyph glyph-name="Z" unicode="Z" horiz-adv-x="555" 
d="M456 -3l-368 6l-73 -7l-15 39l411 541l-138 -8q-42 -2 -67.5 -14t-39.5 -38.5t-25 -75.5l-71 -5l4.5 19t11.5 50t14 67.5t12 70.5l11 10l170 -11l270 -5l11 -36q-73 -88 -139.5 -172t-122.5 -157t-96.5 -127t-60.5 -82l163 10q49 3 81.5 39t54.5 117l71 7l-6 -20.5
t-14 -53.5t-16.5 -71t-14.5 -75z" />
    <glyph glyph-name="Zacute" unicode="&#x179;" horiz-adv-x="555" 
d="M456 -3l-368 6l-73 -7l-15 39l411 541l-138 -8q-42 -2 -67.5 -14t-39.5 -38.5t-25 -75.5l-71 -5l4.5 19t11.5 50t14 67.5t12 70.5l11 10l170 -11l270 -5l11 -36q-73 -88 -139.5 -172t-122.5 -157t-96.5 -127t-60.5 -82l163 10q49 3 81.5 39t54.5 117l71 7l-6 -20.5
t-14 -53.5t-16.5 -71t-14.5 -75zM483 759l-19 -5.5t-50.5 -15t-71 -21.5t-81.5 -26l-11 7l-11 40q38 17 76.5 36t69.5 34.5t50 25.5l19 10l11 -6l23 -68z" />
    <glyph glyph-name="Zcaron" unicode="&#x17d;" horiz-adv-x="555" 
d="M456 -3l-368 6l-73 -7l-15 39l411 541l-138 -8q-42 -2 -67.5 -14t-39.5 -38.5t-25 -75.5l-71 -5l4.5 19t11.5 50t14 67.5t12 70.5l11 10l170 -11l270 -5l11 -36q-73 -88 -139.5 -172t-122.5 -157t-96.5 -127t-60.5 -82l163 10q49 3 81.5 39t54.5 117l71 7l-6 -20.5
t-14 -53.5t-16.5 -71t-14.5 -75zM520 819q-9 -6 -28 -20t-42 -31t-44 -33t-34.5 -26l-13.5 -10h-18l-11 10t-28 26t-35.5 33t-34 31t-22.5 20l24 35l15 3q5 -3 22 -12t36.5 -19.5t35.5 -19.5t19 -10q3 1 15.5 7t29.5 14.5t34.5 16.5t31 14.5t17.5 8.5l13 -3z" />
    <glyph glyph-name="Zdotaccent" unicode="&#x17b;" horiz-adv-x="555" 
d="M456 -3l-368 6l-73 -7l-15 39l411 541l-138 -8q-42 -2 -67.5 -14t-39.5 -38.5t-25 -75.5l-71 -5l4.5 19t11.5 50t14 67.5t12 70.5l11 10l170 -11l270 -5l11 -36q-73 -88 -139.5 -172t-122.5 -157t-96.5 -127t-60.5 -82l163 10q49 3 81.5 39t54.5 117l71 7l-6 -20.5
t-14 -53.5t-16.5 -71t-14.5 -75zM352 707q-27 0 -41.5 16.5t-14.5 40.5q0 35 23 58.5t59 23.5q27 0 41 -16.5t14 -39.5q0 -35 -23 -59t-58 -24z" />
    <glyph glyph-name="uni1E92" unicode="&#x1e92;" horiz-adv-x="555" 
d="M456 -3l-368 6l-73 -7l-15 39l411 541l-138 -8q-42 -2 -67.5 -14t-39.5 -38.5t-25 -75.5l-71 -5l4.5 19t11.5 50t14 67.5t12 70.5l11 10l170 -11l270 -5l11 -36q-73 -88 -139.5 -172t-122.5 -157t-96.5 -127t-60.5 -82l163 10q49 3 81.5 39t54.5 117l71 7l-6 -20.5
t-14 -53.5t-16.5 -71t-14.5 -75zM220 -205q-30 0 -44.5 17.5t-14.5 42.5q0 36 23 60.5t61 24.5q29 0 44.5 -17t15.5 -43q0 -36 -23 -60.5t-62 -24.5z" />
    <glyph glyph-name="Iacute_J.loclNLD" horiz-adv-x="668" 
d="M278 534q-8 -45 -17 -98.5t-17.5 -108t-16 -102t-11.5 -81t-4 -46.5q0 -24 8 -32.5t25 -8.5t31 1.5l14 1.5l3 -6l-15 -57l-15 0.5t-37.5 1t-45.5 1t-40 0.5q-19 0 -41.5 -1.5t-42 -3t-32 -3.5l-12.5 -2l14 57q44 9 61 26.5t22 58.5l49 399q4 32 -1.5 42.5t-27.5 10.5
q-9 0 -22 -1l-13 -1q-1 2 -2 3.5t-2 3.5l14 53q8 0 30.5 -0.5t49.5 -1t48 -0.5q16 0 38 1t43 2.5t35 3l14 1.5l-13 -58q-38 -5 -52 -16t-19 -40zM369 759l-19 -5.5t-50.5 -15t-71 -21.5t-81.5 -26l-11 7l-11 40q38 17 76.5 36t69.5 34.5t50 25.5l19 10l11 -6l23 -68z
M498 531q4 32 -1.5 42t-25.5 10q-6 0 -16.5 -0.5t-18.5 -1.5l-8 -1l-2 7l13 53h114q30 0 61 2t53 4l22 2l-12 -58q-33 -6 -43.5 -15.5t-15.5 -40.5q-4 -27 -11 -69t-14.5 -91.5t-15 -99.5t-14 -93.5t-10.5 -73.5q-13 -100 -65 -161t-152 -96l-20 37l4 11q42 26 67.5 54
t38.5 67t21 101zM695 759l-19 -5.5t-50.5 -15t-71 -21.5t-81.5 -26l-11 7l-11 40q38 17 76.5 36t69.5 34.5t50 25.5l19 10l11 -6l23 -68z" />
    <glyph glyph-name="C.ss01" horiz-adv-x="663" 
d="M197 12q-77 33 -113 108.5t-23 185.5q10 76 42 139t82 109t115 71l342 -8l-8.5 -25t-20.5 -66.5t-22 -92.5l-84 -4l4.5 18t6.5 38q6 43 -20.5 63t-86.5 20q-58 0 -102 -27.5t-72 -80t-38 -129.5q-10 -82 5 -141t52 -90.5t93 -31.5q60 0 99.5 35.5t62.5 110.5l85 4
l-5 -16.5t-12.5 -44t-15 -59t-13.5 -61.5l-11 -8l-12 -5.5t-36 -12.5zM-49 0l5 45h705l-5 -45h-705zM25 602l5 45h705l-5 -45h-705z" />
    <glyph glyph-name="D.ss01" horiz-adv-x="718" 
d="M27 19l1 26q46 0 65.5 22t24.5 64l50 407q4 26 2.5 40t-13 19t-39.5 5l-1 36h20t52 0.5t68.5 1t68.5 0.5t52 0.5l20 0.5q99 0 166.5 -36t98.5 -103t20 -161q-9 -74 -41.5 -138t-82 -111t-113.5 -74zM-49 0l5 45h760l-5 -45h-760zM313 63q64 0 112 30t78.5 87.5
t40.5 140.5q11 85 -9.5 140t-71.5 82.5t-132 27.5q-19 0 -27.5 -6.5t-10.5 -22.5q-23 -139 -39.5 -243.5t-23.5 -162.5q-4 -29 1.5 -45t25 -22t56.5 -6zM25 602l5 45h760l-5 -45h-760z" />
    <glyph glyph-name="I.ss01" horiz-adv-x="380" 
d="M27 45q43 0 64.5 19.5t27.5 64.5l49 403q4 28 0 43.5t-18.5 21t-44.5 5.5h281q-40 0 -63.5 -18t-29.5 -56q-10 -52 -19.5 -110t-18 -114.5t-15.5 -105.5t-11 -83q-5 -43 8.5 -56.5t60.5 -13.5h-271zM-49 0l5 45h423l-6 -45h-422zM25 602l5 45h423l-6 -45h-422z" />
    <glyph glyph-name="L.ss01" horiz-adv-x="560" 
d="M31 21l1 24q38 0 58.5 20t25.5 64l50 403q4 29 0.5 44.5t-16.5 20.5t-39 5h255q-30 0 -45 -11t-22 -32.5t-13 -54.5q-9 -50 -20 -114.5t-20.5 -132t-16.5 -128.5q-3 -26 -0.5 -39.5t16 -17.5t42.5 -4q38 0 64 6t42.5 22t29 45.5t24.5 77.5l72 5l6 -8q-4 -12 -12 -42
t-18.5 -71t-19.5 -84zM-49 0l5 45h602l-5 -45h-602zM25 602l5 45h602l-5 -45h-602z" />
    <glyph glyph-name="M.ss01" horiz-adv-x="857" 
d="M348 27q-11 54 -23.5 111.5t-25.5 116t-25 114t-24 104.5l-8 -2l-76 -395q-3 -17 5.5 -24t28.5 -7h-187q33 0 52 18t29 61q11 45 22 92.5t21.5 94t19.5 87.5t16.5 74t12 54t4.5 26q3 25 -11 37.5t-54 12.5l220 11q12 -67 26 -142t28.5 -145t26.5 -124l8 4q27 57 60.5 128
t66.5 145t61 138l213 -15q-38 0 -59.5 -15.5t-25.5 -52.5q-1 -10 -3.5 -39.5t-5 -72t-5.5 -91t-5.5 -98.5t-4.5 -93q-1 -53 12 -74t46 -21h-232q32 0 50.5 14t21.5 42q1 6 2.5 31t4 70.5t6 112.5t8.5 158l-7 -4q-28 -57 -62 -128t-72 -151.5t-76 -166.5zM-49 0l5 45h900
l-6 -45h-899zM25 602l5 45h900l-6 -45h-899z" />
    <glyph glyph-name="V.ss01" horiz-adv-x="661" 
d="M218 24q-7 54 -17 118t-21.5 132t-23 135.5t-22.5 128.5q-12 64 -71 64h293q-46 0 -66 -10t-23 -33q-2 -20 10 -129.5t39 -311.5l14 4q43 91 79 169t62 137.5t41 96.5t16 47q2 17 -10 23.5t-45 6.5h231q-52 0 -81 -62l-256 -518zM-49 0l5 45h703l-5 -45h-703zM25 602
l5 45h704l-6 -45h-703z" />
    <glyph glyph-name="X.ss01" horiz-adv-x="726" 
d="M11 45q23 0 49.5 21t57 55.5t65.5 74.5l122 131l-93 173q-29 51 -57.5 76.5t-74.5 25.5h319q-69 0 -74 -37q-1 -9 4.5 -27t22.5 -52.5t49 -93.5q49 60 77.5 96t41.5 57t14 33q2 13 -9 18.5t-38 5.5h255q-23 0 -46.5 -11.5t-52.5 -39t-70 -75.5l-132 -149l105 -189
q26 -46 53.5 -69.5t64.5 -23.5h-304q33 0 52.5 10t21.5 27q1 4 -2.5 13.5t-10.5 24.5l-80 141l-89 -107q-21 -25 -32.5 -39.5t-16 -23t-5.5 -17.5q-1 -13 12 -21t39 -8h-238zM-49 0l5 45h768l-5 -45h-768zM25 602l5 45h768l-5 -45h-768z" />
    <glyph glyph-name="a" unicode="a" horiz-adv-x="483" 
d="M370 91q5 0 11.5 3.5t20.5 15.5t39 34l15 -2l15 -32q-47 -48 -77.5 -74.5t-50 -37t-38.5 -10.5q-17 0 -27.5 9t-10.5 25q0 11 10 57.5t27 123.5l-7 2q-46 -84 -86.5 -135.5t-82.5 -81.5q-48 0 -75.5 37.5t-27.5 103.5q0 62 20 121.5t54.5 107.5t76.5 77t86 29l91 -17
l7 23l10 5l64 -14l8 -16q-15 -55 -29.5 -118t-26.5 -123.5t-19 -109.5zM157 93q11 0 30.5 22t42.5 60t47.5 86.5t45.5 101.5q-22 13 -47 21.5t-43 8.5q-26 0 -49.5 -30t-38 -78t-14.5 -102q0 -38 7.5 -64t18.5 -26z" />
    <glyph glyph-name="aacute" unicode="&#xe1;" horiz-adv-x="491" 
d="M378 91q5 0 11.5 3.5t20.5 15.5t39 34l15 -2l15 -32q-47 -48 -77.5 -74.5t-50 -37t-38.5 -10.5q-17 0 -27.5 9t-10.5 25q0 11 10 57.5t27 123.5l-7 2q-46 -84 -86.5 -135.5t-82.5 -81.5q-48 0 -75.5 37.5t-27.5 103.5q0 62 20 121.5t54.5 107.5t76.5 77t86 29l91 -17
l7 23l10 5l64 -14l8 -16q-15 -55 -29.5 -118t-26.5 -123.5t-19 -109.5zM165 93q11 0 30.5 22t42.5 60t47.5 86.5t45.5 101.5q-22 13 -47 21.5t-43 8.5q-26 0 -49.5 -30t-38 -78t-14.5 -102q0 -38 7.5 -64t18.5 -26zM407 670l-26.5 -18.5t-68.5 -48.5t-87 -66l-13 4l-27 33
q30 29 58.5 59.5t52 55.5t37.5 40.5l14 15.5l12 -2l49 -60z" />
    <glyph glyph-name="abreve" unicode="&#x103;" horiz-adv-x="483" 
d="M370 91q5 0 11.5 3.5t20.5 15.5t39 34l15 -2l15 -32q-47 -48 -77.5 -74.5t-50 -37t-38.5 -10.5q-17 0 -27.5 9t-10.5 25q0 11 10 57.5t27 123.5l-7 2q-46 -84 -86.5 -135.5t-82.5 -81.5q-48 0 -75.5 37.5t-27.5 103.5q0 62 20 121.5t54.5 107.5t76.5 77t86 29l91 -17
l7 23l10 5l64 -14l8 -16q-15 -55 -29.5 -118t-26.5 -123.5t-19 -109.5zM157 93q11 0 30.5 22t42.5 60t47.5 86.5t45.5 101.5q-22 13 -47 21.5t-43 8.5q-26 0 -49.5 -30t-38 -78t-14.5 -102q0 -38 7.5 -64t18.5 -26zM289 623q32 0 60 17t45 50l15 -2l20 -27
q-11 -30 -31.5 -58t-50 -45.5t-68.5 -17.5t-64.5 17.5t-39 45.5t-17.5 58l26 27l15 2q9 -33 33 -50t57 -17z" />
    <glyph glyph-name="uni1EAF" unicode="&#x1eaf;" horiz-adv-x="483" 
d="M370 91q5 0 11.5 3.5t20.5 15.5t39 34l15 -2l15 -32q-47 -48 -77.5 -74.5t-50 -37t-38.5 -10.5q-17 0 -27.5 9t-10.5 25q0 11 10 57.5t27 123.5l-7 2q-46 -84 -86.5 -135.5t-82.5 -81.5q-48 0 -75.5 37.5t-27.5 103.5q0 62 20 121.5t54.5 107.5t76.5 77t86 29l91 -17
l7 23l10 5l64 -14l8 -16q-15 -55 -29.5 -118t-26.5 -123.5t-19 -109.5zM157 93q11 0 30.5 22t42.5 60t47.5 86.5t45.5 101.5q-22 13 -47 21.5t-43 8.5q-26 0 -49.5 -30t-38 -78t-14.5 -102q0 -38 7.5 -64t18.5 -26zM300 645q32 0 60 16.5t45 50.5l14 -2l21 -27
q-11 -30 -31.5 -58t-50 -45.5t-68.5 -17.5t-64.5 17.5t-39 45.5t-18.5 58l28 27l14 2q9 -34 33 -50.5t57 -16.5zM421 793l-114 -109h-13l-31 25l98 137l11 1l49 -41v-13z" />
    <glyph glyph-name="uni1EB7" unicode="&#x1eb7;" horiz-adv-x="483" 
d="M370 91q5 0 11.5 3.5t20.5 15.5t39 34l15 -2l15 -32q-47 -48 -77.5 -74.5t-50 -37t-38.5 -10.5q-17 0 -27.5 9t-10.5 25q0 11 10 57.5t27 123.5l-7 2q-46 -84 -86.5 -135.5t-82.5 -81.5q-48 0 -75.5 37.5t-27.5 103.5q0 62 20 121.5t54.5 107.5t76.5 77t86 29l91 -17
l7 23l10 5l64 -14l8 -16q-15 -55 -29.5 -118t-26.5 -123.5t-19 -109.5zM157 93q11 0 30.5 22t42.5 60t47.5 86.5t45.5 101.5q-22 13 -47 21.5t-43 8.5q-26 0 -49.5 -30t-38 -78t-14.5 -102q0 -38 7.5 -64t18.5 -26zM289 623q32 0 60 17t45 50l15 -2l20 -27
q-11 -30 -31.5 -58t-50 -45.5t-68.5 -17.5t-64.5 17.5t-39 45.5t-17.5 58l26 27l15 2q9 -33 33 -50t57 -17zM224 -205q-30 0 -44.5 17.5t-14.5 42.5q0 36 23 60.5t61 24.5q29 0 44.5 -17t15.5 -43q0 -36 -23 -60.5t-62 -24.5z" />
    </font>
</defs>
</svg>
