<?xml version="1.0" standalone="no"?>
<!DOCTYPE svg PUBLIC "-//W3C//DTD SVG 1.1//EN" "http://www.w3.org/Graphics/SVG/1.1/DTD/svg11.dtd" >
<svg xmlns="http://www.w3.org/2000/svg" xmlns:xlink="http://www.w3.org/1999/xlink" version="1.1">
<metadata>
Created by FontForge 20170924 at Sun Dec  2 05:27:00 2012
 By Glenn,,,
Copyright (c) 2012 by Brian J. Bonislawsky DBA Astigmatic (AOETI) (astigma@astigmatic.com), with Reserved Font Name "Grand Hotel"
</metadata>
<defs>
<font id="GrandHotel-Regular" horiz-adv-x="400" >
  <font-face 
    font-family="Grand Hotel"
    font-weight="400"
    font-stretch="normal"
    units-per-em="1000"
    panose-1="2 0 6 6 0 0 0 2 0 3"
    ascent="800"
    descent="-200"
    x-height="382"
    cap-height="700"
    bbox="-138 -412 998 946"
    underline-thickness="50"
    underline-position="-100"
    unicode-range="U+0020-FB02"
  />
<missing-glyph horiz-adv-x="250" 
 />
    <glyph glyph-name="fi" unicode="fi" horiz-adv-x="411" 
d="M349 333v-249c0 -9 0 -46 26 -46c40 0 58 64 67 108c12 61 66 14 58 -18c-18 -66 -57 -156 -143 -156c-53 0 -84 43 -84 94v236l-162 1v-22c91 -113 149 -240 149 -405c0 -167 -53 -288 -133 -288c-70 0 -92 76 -92 150v548c-2 2 -4 5 -6 7c-16 16 -31 28 -31 44
c0 10 7 22 23 24c3 0 7 1 14 1v274c0 29 -10 31 -10 38s18 11 32 11c33 0 54 -20 54 -44v-274c90 5 164 18 176 18c55 0 62 -28 62 -52zM184 -124c0 91 -25 201 -73 297v-435c0 -32 4 -77 24 -77c29 0 49 88 49 215zM316 481c-33 0 -60 28 -60 61c0 35 27 61 60 61
c35 0 61 -26 61 -61c0 -33 -26 -61 -61 -61z" />
    <glyph glyph-name="fl" unicode="fl" horiz-adv-x="438" 
d="M471 145c12 59 66 14 58 -18c-18 -54 -67 -155 -158 -155c-77 0 -118 53 -118 132v155c-15 -3 -32 -5 -51 -5c-44 0 -74 10 -91 18v-8c91 -99 149 -274 149 -408c0 -167 -53 -268 -133 -268c-70 0 -92 76 -92 150v529l-6 6c-16 16 -31 21 -31 51c0 10 7 25 23 27
c3 0 8 0 14 -1v286c0 29 -10 31 -10 38s18 11 32 11c33 0 54 -20 54 -44v-310c24 -6 50 -11 73 -11c27 0 50 4 69 10v229c0 81 41 128 91 128c88 0 89 -77 89 -129c0 -148 -57 -221 -104 -266v-185c0 -40 16 -69 53 -69c46 0 80 63 89 107zM184 -144c0 73 -25 200 -73 301
v-419c0 -32 4 -77 24 -77c29 0 49 68 49 195zM329 581v-200c31 50 42 102 42 171c0 59 -9 69 -25 69c-11 0 -17 -19 -17 -40z" />
    <glyph glyph-name=".notdef" horiz-adv-x="250" 
 />
    <glyph glyph-name="B" unicode="B" horiz-adv-x="581" 
d="M200 161v363c0 19 -4 25 -4 32c0 10 12 17 26 17c33 0 56 -20 56 -44v-371c0 -96 32 -134 91 -134c56 0 98 44 98 102c0 90 -69 117 -132 117c-18 0 -35 75 -5 75c47 0 162 31 162 176c0 76 -49 154 -172 154c-161 0 -226 -106 -226 -228c0 -88 36 -119 38 -122
c11 3 15 -4 15 -14c0 -18 -27 -84 -56 -62c-16 15 -73 75 -73 192c0 187 123 309 301 309c151 0 250 -85 250 -227c0 -109 -56 -176 -129 -215c58 -17 105 -67 105 -153c0 -100 -76 -173 -175 -173c-131 0 -170 83 -170 206z" />
    <glyph glyph-name="C" unicode="C" horiz-adv-x="488" 
d="M226 416c74 0 181 83 181 168c0 23 -15 56 -61 56c-132 0 -233 -201 -233 -364c0 -124 41 -242 156 -242c85 0 137 59 139 60c26 43 75 -28 51 -52c-3 -3 -76 -83 -197 -83c-143 0 -229 124 -229 317c0 195 127 437 326 437c72 0 127 -45 127 -132
c0 -123 -154 -235 -265 -235c-24 0 -44 15 -44 48c0 14 4 32 11 32s9 -10 38 -10z" />
    <glyph glyph-name="D" unicode="D" horiz-adv-x="609" 
d="M275 516v-393c0 -55 16 -84 56 -84c76 0 165 154 165 354c0 135 -57 246 -190 246c-166 0 -210 -120 -210 -226c0 -96 49 -152 53 -155c11 3 15 -4 15 -14c0 -26 -25 -59 -48 -59c-5 0 -10 1 -15 5c-3 2 -83 76 -83 217c0 182 116 309 291 309c186 0 267 -154 267 -315
c0 -284 -141 -439 -251 -439c-94 0 -128 60 -128 166v383c0 19 -4 25 -4 32c0 10 12 17 26 17c33 0 56 -20 56 -44z" />
    <glyph glyph-name="E" unicode="E" horiz-adv-x="446" 
d="M423 72c-17 -29 -80 -115 -208 -115c-96 0 -176 60 -176 164c0 73 43 126 91 151c-44 27 -87 76 -87 163c0 133 120 282 266 282c92 0 142 -59 142 -132c0 -104 -86 -207 -185 -207c-25 0 -55 12 -55 48c0 14 4 36 11 36s9 -10 38 -10c66 0 112 70 112 134
c0 36 -26 54 -63 54c-100 0 -186 -104 -186 -200c0 -75 57 -130 101 -134c3 1 6 1 9 1c12 0 17 -11 17 -24c0 -22 -12 -51 -24 -52c-42 -5 -107 -29 -107 -108c0 -51 42 -87 98 -87c84 0 134 54 147 82c5 12 13 17 21 17c20 0 41 -26 41 -49c0 -5 -1 -10 -3 -14z" />
    <glyph glyph-name="F" unicode="F" horiz-adv-x="583" 
d="M412 56c0 -88 -23 -123 -56 -123c-25 0 -65 39 -65 58c0 13 7 5 17 5c18 0 26 22 26 73v157h-52c-21 0 -36 29 -36 50c0 11 5 20 15 20h73v325c-140 -9 -237 -59 -237 -216c0 -69 31 -110 57 -136c11 3 15 -4 15 -14c0 -26 -25 -59 -48 -59c-5 0 -10 1 -15 5
c-29 21 -88 98 -88 204c0 192 124 295 364 295c55 0 206 -2 227 -2c20 0 25 8 28 8c7 0 14 -18 14 -33c0 -24 -15 -53 -46 -53c-18 0 -131 2 -193 3v-327h125c31 23 14 -70 -9 -70h-116v-170z" />
    <glyph glyph-name="G" unicode="G" horiz-adv-x="513" 
d="M383 58c-42 -62 -94 -98 -155 -98c-124 0 -194 124 -194 311c0 199 127 443 326 443c72 0 127 -47 127 -124c0 -109 -121 -202 -208 -202c-24 0 -44 15 -44 48c0 14 4 36 11 36s9 -10 38 -10c51 0 124 59 124 123c0 23 -15 56 -61 56c-125 0 -230 -194 -230 -369
c0 -144 49 -234 113 -234c102 0 154 138 154 220c0 10 -2 26 -2 33c0 19 15 20 32 20c18 0 52 -16 52 -38c-5 -54 -6 -101 -6 -151c0 -47 1 -96 1 -157c19 3 37 4 53 5c47 3 22 -78 -13 -79c-15 0 -28 -1 -42 -2c-5 -112 -29 -243 -146 -243c-68 0 -112 51 -112 118
c0 102 91 156 184 184v10c0 43 -2 76 -2 100zM315 -277c45 0 62 71 67 151c-66 -21 -103 -58 -103 -108c0 -30 16 -43 36 -43z" />
    <glyph glyph-name="H" unicode="H" horiz-adv-x="678" 
d="M387 658v-356h156v341c0 71 24 107 52 107c29 0 53 -39 53 -53c0 -15 -27 9 -27 -75v-627c0 -17 -13 -23 -28 -23c-23 0 -50 14 -50 29v231h-156v-237c0 -17 -13 -23 -28 -23c-23 0 -50 14 -50 29v231h-71c-21 0 -36 29 -36 50c0 11 5 20 15 20h92v323
c-123 0 -212 -85 -212 -219c0 -84 40 -138 53 -138c6 0 7 5 12 5s6 -9 6 -16c0 -42 -37 -78 -66 -57c-35 25 -84 93 -84 203c0 212 177 297 329 297c21 0 40 -18 40 -42z" />
    <glyph glyph-name="I" unicode="I" horiz-adv-x="396" 
d="M339 658v-663c0 -17 -13 -23 -28 -23c-23 0 -50 14 -50 29v621c-90 -11 -164 -78 -164 -204c0 -80 40 -131 53 -131c5 0 6 7 11 7s7 -8 7 -15c0 -42 -37 -81 -66 -60c-35 24 -84 98 -84 199c0 212 163 282 281 282c21 0 40 -18 40 -42z" />
    <glyph glyph-name="J" unicode="J" horiz-adv-x="401" 
d="M261 -42v664c-90 -11 -164 -78 -164 -204c0 -80 40 -131 53 -131c5 0 6 7 11 7s7 -8 7 -15c0 -34 -24 -66 -49 -66c-6 0 -12 2 -17 6c-25 16 -84 82 -84 199c0 212 163 282 281 282c21 0 40 -18 40 -42v-663v-30c19 3 37 4 53 5c47 3 22 -78 -13 -79c-15 0 -28 -1 -41 -2
c-6 -115 -31 -243 -147 -243c-68 0 -112 51 -112 118c0 101 90 156 182 183v11zM193 -277c45 0 61 71 66 150c-66 -20 -102 -57 -102 -107c0 -30 16 -43 36 -43z" />
    <glyph glyph-name="K" unicode="K" horiz-adv-x="599" 
d="M339 658v-352c194 40 86 264 184 431c2 4 9 13 21 13c25 0 59 -14 59 -30c0 -4 -2 -8 -8 -11c-83 -126 -8 -366 -185 -444c141 -75 122 -258 213 -360c5 -6 19 -6 19 -14c0 -19 -52 -52 -68 -52c-5 0 -9 2 -13 6c-112 140 -65 332 -222 376v-226c0 -17 -13 -23 -28 -23
c-23 0 -50 14 -50 29v621c-90 -11 -164 -78 -164 -204c0 -80 40 -131 53 -131c6 0 11 4 16 4s8 -5 8 -12c0 -42 -43 -81 -72 -60c-35 24 -84 98 -84 199c0 212 163 282 281 282c21 0 40 -18 40 -42z" />
    <glyph glyph-name="L" unicode="L" horiz-adv-x="505" 
d="M374 -37c-59 0 -105 43 -146 84c-19 -41 -54 -75 -105 -75c-66 0 -104 49 -104 103c0 65 54 110 114 110c11 0 22 -2 32 -5c-23 86 -81 158 -81 269c0 129 95 261 238 261c89 0 149 -57 149 -135c0 -117 -114 -210 -201 -210c-27 0 -51 18 -51 57c0 8 3 13 8 13
c3 0 8 -7 19 -7c66 0 146 73 146 133c0 39 -23 72 -73 72c-92 0 -155 -88 -155 -187c0 -104 79 -193 82 -316c43 -41 79 -89 120 -89c56 0 72 56 72 92c0 9 -2 14 -2 18c0 5 4 7 12 7c35 0 55 -21 55 -45c0 -78 -52 -150 -129 -150zM126 116c-20 0 -36 -15 -36 -37
c0 -19 12 -37 35 -37c27 0 43 27 47 56c-15 11 -30 18 -46 18z" />
    <glyph glyph-name="M" unicode="M" horiz-adv-x="548" 
d="M531 19c16 -10 -24 -48 -58 -47c-32 1 -65 37 -65 116v463c0 76 -34 76 -47 76c-15 0 -48 0 -48 -86v-540c2 0 5 -3 5 -5c0 -10 -33 -24 -58 -24c-13 0 -25 0 -25 19v560c0 76 -32 76 -47 76c-13 0 -48 0 -48 -76v-443c0 -88 -30 -136 -86 -136c-37 0 -47 30 -47 48
c0 9 13 3 27 8s28 29 28 95v418c0 117 64 159 124 159c17 0 61 -4 92 -41c25 37 62 41 81 41c62 0 127 -42 127 -159v-445c0 -42 21 -65 45 -77z" />
    <glyph glyph-name="N" unicode="N" horiz-adv-x="616" 
d="M339 658v-82c40 69 94 124 152 124c28 0 68 -21 68 -87v-583c0 -75 48 -69 48 -90c0 -15 -20 -34 -51 -34c-29 0 -74 23 -75 107v594c0 13 -5 14 -9 14c-30 0 -133 -155 -133 -240v-386c0 -17 -13 -23 -28 -23c-23 0 -50 14 -50 29v621c-90 -11 -164 -78 -164 -204
c0 -80 40 -131 53 -131c6 0 11 4 16 4s8 -5 8 -12c0 -34 -28 -66 -54 -66c-34 0 -102 88 -102 205c0 212 163 282 281 282c21 0 40 -18 40 -42z" />
    <glyph glyph-name="O" unicode="O" horiz-adv-x="509" 
d="M391 340c0 19 -1 40 -3 61h-19c-83 0 -150 49 -150 126c0 52 37 95 91 95c73 0 115 -58 137 -128c10 6 19 15 28 25c3 9 7 13 12 13c14 0 32 -27 32 -54c0 -25 -23 -45 -56 -59c4 -28 6 -55 6 -79c0 -253 -110 -368 -227 -368c-146 0 -222 147 -222 326
c0 340 202 418 210 421c3 1 7 2 11 2c22 0 35 -30 35 -52c0 -13 -4 -23 -13 -23c-2 0 -3 0 -5 1c-35 -20 -158 -83 -158 -339c0 -181 74 -261 145 -261c83 0 145 106 146 293zM366 470h12c-10 46 -30 80 -61 80c-20 0 -25 -14 -25 -25c0 -24 22 -55 74 -55z" />
    <glyph glyph-name="P" unicode="P" horiz-adv-x="567" 
d="M200 1v523c0 19 -4 25 -4 32c0 10 12 17 26 17c33 0 56 -20 56 -44v-327c68 8 205 84 205 252c0 76 -46 171 -163 171c-161 0 -226 -106 -226 -228c0 -88 36 -119 38 -122c11 3 15 -4 15 -14c0 -18 -27 -84 -56 -62c-16 15 -73 75 -73 192c0 187 123 309 301 309
c146 0 241 -102 241 -244c0 -174 -135 -301 -282 -329v-132c0 -17 -13 -23 -28 -23c-23 0 -50 14 -50 29z" />
    <glyph glyph-name="Q" unicode="Q" horiz-adv-x="522" 
d="M456 -118c25 0 30 17 38 17c26 0 -5 -95 -69 -95c-161 0 -392 188 -392 528c0 261 129 368 232 368s217 -101 217 -356c0 -270 -135 -361 -180 -361c-17 0 -50 37 -50 53c0 5 3 8 9 8h5c94 26 138 157 138 300c0 198 -71 280 -141 280s-152 -89 -152 -291
c0 -338 220 -451 345 -451z" />
    <glyph glyph-name="R" unicode="R" horiz-adv-x="567" 
d="M200 1v523c0 19 -4 25 -4 32c0 10 12 17 26 17c33 0 56 -20 56 -44v-327c76 14 205 83 205 252c0 76 -49 171 -166 171c-154 0 -223 -111 -223 -228c0 -88 36 -119 38 -122c11 3 15 -4 15 -14c0 -18 -27 -84 -56 -62c-16 15 -73 75 -73 192c0 185 120 309 298 309
c146 0 244 -102 244 -244c0 -136 -85 -242 -190 -291c99 -57 87 -192 155 -265c5 -6 19 -6 19 -14c0 -19 -52 -52 -68 -52c-5 0 -9 2 -13 6c-98 111 -49 257 -185 294v-139c0 -17 -13 -23 -28 -23c-23 0 -50 14 -50 29z" />
    <glyph glyph-name="S" unicode="S" horiz-adv-x="414" 
d="M202 -36c-85 0 -108 44 -108 50c0 23 24 58 39 58c5 0 8 -3 11 -9c3 -3 20 -24 58 -24c41 0 70 27 70 70c0 119 -244 124 -244 328c0 132 144 272 280 272c78 0 126 -51 126 -129c0 -111 -129 -216 -190 -216c-35 0 -56 37 -56 58c0 17 9 7 26 7c54 0 144 84 144 150
c0 34 -15 55 -55 55c-74 0 -197 -88 -197 -197c0 -155 245 -158 245 -325c0 -81 -65 -148 -149 -148z" />
    <glyph glyph-name="T" unicode="T" horiz-adv-x="513" 
d="M412 56c0 -88 -23 -123 -56 -123c-25 0 -65 39 -65 58c0 13 7 5 17 5c18 0 26 22 26 73v552c-124 -10 -237 -61 -237 -216c0 -69 31 -110 57 -136c11 3 15 -4 15 -14c0 -26 -25 -59 -48 -59c-5 0 -10 1 -15 5c-29 21 -88 98 -88 204c0 192 151 295 359 295
c48 0 149 -2 168 -2c17 0 21 8 24 8c6 0 12 -18 12 -33c0 -24 -13 -53 -39 -53c-14 0 -83 2 -130 3v-567z" />
    <glyph glyph-name="U" unicode="U" horiz-adv-x="616" 
d="M481 94v2c-41 -69 -95 -124 -152 -124c-28 0 -68 21 -68 87v563c-90 -11 -164 -78 -164 -204c0 -80 40 -131 53 -131c6 0 11 4 16 4s8 -5 8 -12c0 -42 -43 -81 -72 -60c-35 24 -84 98 -84 199c0 212 163 282 281 282c21 0 40 -18 40 -42v-593c0 -13 5 -14 9 -14
c30 0 133 135 133 220v380c0 19 -4 25 -4 32c0 10 12 17 26 17c33 0 56 -20 56 -44v-434c0 -131 5 -187 9 -219c2 -3 3 -5 3 -7c0 -13 -29 -24 -51 -24c-35 0 -36 41 -39 122z" />
    <glyph glyph-name="V" unicode="V" horiz-adv-x="589" 
d="M481 530c0 99 -10 137 -10 153c0 10 12 17 26 17c33 0 47 -13 53 -42c5 -24 9 -54 9 -115c0 -346 -118 -571 -230 -571c-28 0 -68 21 -68 87v563c-90 -11 -164 -78 -164 -204c0 -80 40 -131 53 -131c6 0 11 4 16 4s8 -5 8 -12c0 -42 -43 -81 -72 -60
c-35 24 -84 98 -84 199c0 212 163 282 281 282c21 0 40 -18 40 -42v-593c0 -13 5 -14 9 -14c30 0 133 155 133 479z" />
    <glyph glyph-name="W" unicode="W" horiz-adv-x="548" 
d="M486 586v-455c0 -117 -64 -159 -124 -159c-18 0 -63 4 -94 42c-28 -38 -68 -42 -86 -42c-62 0 -120 42 -120 159v455c0 50 -11 69 -35 77c-3 1 -4 2 -4 4c0 9 36 33 64 33c25 0 53 -23 53 -104v-475c0 -76 34 -76 47 -76c15 0 48 0 48 86v490c0 19 -4 25 -4 32
c0 10 12 17 26 17c33 0 56 -20 56 -44v-505c0 -76 32 -76 47 -76c13 0 48 0 48 76v475c0 81 28 104 52 104c29 0 65 -24 65 -33c0 -2 -1 -3 -4 -4c-26 -8 -35 -27 -35 -77z" />
    <glyph glyph-name="X" unicode="X" horiz-adv-x="393" 
d="M374 26c6 -3 9 -4 9 -10c0 -11 -40 -44 -59 -44c-10 0 -16 4 -21 12c-39 61 -74 124 -105 185c-28 -57 -60 -116 -97 -175c-8 -13 -16 -22 -37 -22c-35 0 -64 37 -64 48c0 3 2 5 9 5c21 0 83 95 147 234c-94 211 -135 389 -135 403c0 22 40 38 63 38c9 0 21 -3 21 -9
c0 -3 -7 -6 -7 -17c0 -3 31 -141 101 -314c41 100 78 215 102 329c-1 1 -1 2 -1 3c0 8 19 8 24 8c22 0 50 -11 50 -27c0 -8 -32 -182 -133 -410c37 -79 81 -161 133 -237z" />
    <glyph glyph-name="Y" unicode="Y" horiz-adv-x="621" 
d="M559 656v-661v-30c19 3 37 4 53 5c47 3 22 -78 -13 -79c-15 0 -28 -1 -41 -2c-6 -115 -31 -243 -147 -243c-68 0 -112 51 -112 118c0 101 90 156 182 183v11v138c-41 -69 -95 -124 -152 -124c-28 0 -68 21 -68 87v563c-90 -11 -164 -78 -164 -204c0 -80 40 -131 53 -131
c6 0 11 4 16 4s8 -5 8 -12c0 -42 -43 -81 -72 -60c-35 24 -84 98 -84 199c0 212 163 282 281 282c21 0 40 -18 40 -42v-593c0 -13 5 -14 9 -14c30 0 133 135 133 220v380c0 19 -4 25 -4 32c0 10 12 17 26 17c33 0 56 -20 56 -44zM413 -277c45 0 61 71 66 150
c-66 -20 -102 -57 -102 -107c0 -30 16 -43 36 -43z" />
    <glyph glyph-name="Z" unicode="Z" horiz-adv-x="487" 
d="M158 -249c0 97 83 152 171 180c-18 59 -59 92 -113 94c-22 1 -34 28 -34 49c0 14 5 25 17 25c2 0 5 0 8 -1c7 -1 170 61 170 331c0 171 -97 193 -133 193c-69 0 -136 -67 -136 -189c0 -127 69 -176 99 -176c7 0 12 3 16 3c3 0 5 -3 5 -14c0 -35 -19 -61 -50 -61
c-46 0 -150 82 -150 243c0 186 117 272 218 272c123 0 211 -106 211 -276c0 -197 -87 -299 -149 -351c38 -17 77 -55 96 -124c24 5 47 7 67 8c47 3 22 -78 -13 -79c-15 0 -29 -1 -43 -3c1 -7 1 -15 1 -23c0 -101 -33 -219 -146 -219c-68 0 -112 51 -112 118zM340 -147v8
c-67 -20 -104 -58 -104 -108c0 -30 16 -43 36 -43c47 0 68 77 68 143z" />
    <glyph glyph-name="a" unicode="a" horiz-adv-x="354" 
d="M318 38c40 0 58 64 67 108c4 21 14 30 24 30c16 0 35 -22 35 -41c0 -1 0 -3 -1 -7c-17 -66 -57 -156 -143 -156c-35 0 -62 17 -77 41c-20 -23 -48 -41 -86 -41c-78 0 -119 66 -119 151c0 167 116 269 238 269c27 0 46 -16 46 -42c0 -17 -3 -23 -13 -23c-9 0 -19 2 -29 2
c-76 0 -165 -65 -165 -209c0 -52 22 -82 57 -82c27 0 45 24 56 52v154c0 19 -4 25 -4 32c0 10 12 17 26 17c33 0 54 -20 54 -44v-165c0 -22 10 -46 34 -46z" />
    <glyph glyph-name="b" unicode="b" horiz-adv-x="378" 
d="M144 255c0 81 38 117 85 117c53 0 106 -51 106 -163c0 -39 -5 -79 -15 -114c7 -2 14 -2 21 -2c43 0 66 33 72 72c4 23 70 27 57 -29c-12 -54 -53 -99 -121 -99c-18 0 -35 2 -51 7c-25 -43 -64 -72 -122 -72c-92 0 -141 69 -141 167v477c0 29 -10 31 -10 38s18 11 32 11
c33 0 54 -20 54 -44v-468c0 -66 23 -115 71 -115c25 0 42 14 54 35c-57 41 -92 111 -92 182zM206 259c0 -48 19 -93 48 -124c4 23 5 47 5 66c0 67 -17 105 -35 105c-13 0 -18 -19 -18 -47z" />
    <glyph glyph-name="c" unicode="c" horiz-adv-x="297" 
d="M195 -28c-89 0 -173 66 -173 189c0 115 68 231 163 231c69 0 95 -63 95 -98c0 -38 -69 -58 -63 -23c-5 17 -7 54 -41 54c-37 0 -72 -74 -72 -164c0 -79 43 -123 102 -123c78 0 114 65 126 126c9 45 65 25 61 -10c-7 -61 -51 -182 -198 -182z" />
    <glyph glyph-name="d" unicode="d" horiz-adv-x="366" 
d="M147 -28c-78 0 -129 56 -129 161c0 153 93 242 202 257v226c0 29 -10 31 -10 38s18 11 32 11c33 0 54 -20 54 -44v-537c0 -22 10 -46 34 -46c40 0 58 64 67 108c4 21 14 30 24 30c16 0 35 -22 35 -41c0 -1 0 -3 -1 -7c-17 -66 -57 -156 -143 -156c-34 0 -61 16 -76 39
c-22 -22 -51 -39 -89 -39zM162 38c26 0 45 17 58 39v247c-65 -12 -125 -59 -125 -184c0 -72 32 -102 67 -102z" />
    <glyph glyph-name="e" unicode="e" horiz-adv-x="297" 
d="M265 291c0 -74 -51 -162 -148 -191c14 -34 41 -62 93 -62c78 0 110 65 122 126c9 45 65 25 61 -10c-7 -61 -47 -182 -194 -182c-91 0 -177 73 -177 198c0 127 76 222 153 222c56 0 90 -41 90 -101zM104 173c0 -6 1 -12 1 -18c50 23 82 75 82 135c0 22 -8 35 -21 35
c-49 0 -64 -110 -62 -152z" />
    <glyph glyph-name="f" unicode="f" horiz-adv-x="268" 
d="M226 286l-115 7v-22c91 -111 149 -230 149 -395c0 -167 -53 -288 -133 -288c-70 0 -92 76 -92 150v538c-2 2 -4 5 -6 7c-16 16 -31 28 -31 44c0 10 7 22 23 24c3 0 8 1 14 1v284c0 29 -10 31 -10 38s18 11 32 11c33 0 54 -20 54 -44v-283c46 4 97 7 124 7
c22 0 41 -7 41 -28c0 -14 -6 -63 -19 -63c-6 0 -4 10 -31 12zM184 -124c0 91 -25 197 -73 290v-428c0 -32 4 -77 24 -77c29 0 49 88 49 215z" />
    <glyph glyph-name="g" unicode="g" horiz-adv-x="352" 
d="M95 -297c0 101 58 152 124 210v105c-20 -20 -47 -36 -82 -36c-78 0 -119 66 -119 151c0 167 116 269 238 269c27 0 46 -16 46 -42c0 -17 -3 -23 -13 -23c-9 0 -19 2 -29 2c-76 0 -165 -65 -165 -209c0 -52 22 -82 57 -82c40 0 60 53 67 93v113c0 19 -4 25 -4 32
c0 10 12 17 26 17c33 0 54 -20 54 -44v-272c36 40 68 90 88 159c6 21 14 30 24 30c16 0 35 -22 35 -41c0 -1 0 -6 -1 -10c-34 -116 -92 -175 -146 -222v-173c0 -105 -53 -142 -104 -142c-56 0 -96 51 -96 115zM191 -349c32 0 28 60 28 79v107c-32 -33 -54 -71 -54 -131
c0 -31 10 -55 26 -55z" />
    <glyph glyph-name="h" unicode="h" horiz-adv-x="368" 
d="M35 16v600c0 29 -10 31 -10 38s18 11 32 11c33 0 54 -20 54 -44v-328c27 56 63 99 112 99c67 0 83 -55 83 -101v-207c0 -9 0 -46 26 -46c40 0 58 64 67 108c12 61 66 14 58 -18c-18 -66 -57 -156 -143 -156c-53 0 -84 43 -84 94v203c0 31 -2 57 -21 57
c-29 0 -91 -86 -98 -165v-146c0 -19 1 -43 -28 -43c-20 0 -48 7 -48 44z" />
    <glyph glyph-name="i" unicode="i" horiz-adv-x="173" 
d="M88 481c-33 0 -60 28 -60 61c0 35 27 61 60 61c35 0 61 -26 61 -61c0 -33 -26 -61 -61 -61zM111 338v-254c0 -9 0 -46 26 -46c40 0 58 64 67 108c12 61 66 14 58 -18c-18 -66 -57 -156 -143 -156c-53 0 -84 43 -84 94v267c0 19 -4 25 -4 32c0 10 12 17 26 17
c33 0 54 -20 54 -44z" />
    <glyph glyph-name="j" unicode="j" horiz-adv-x="168" 
d="M199 146c6 21 14 30 24 30c16 0 35 -22 35 -41c0 -1 0 -6 -1 -10c-34 -116 -92 -175 -146 -222v-173c0 -105 -53 -142 -104 -142c-56 0 -96 51 -96 115c0 101 58 152 124 210v420c0 19 -4 25 -4 32c0 10 12 17 26 17c33 0 54 -20 54 -44v-351c36 40 68 90 88 159zM12 542
c0 35 27 61 61 61c33 0 61 -26 61 -61c0 -33 -28 -61 -61 -61c-34 0 -61 28 -61 61zM7 -349c32 0 28 60 28 79v107c-32 -33 -54 -71 -54 -131c0 -31 10 -55 26 -55z" />
    <glyph glyph-name="k" unicode="k" horiz-adv-x="350" 
d="M35 16v600c0 29 -10 31 -10 38s18 11 32 11c33 0 54 -20 54 -44v-312c32 44 72 83 117 83c62 0 89 -52 89 -108c0 -77 -56 -134 -96 -163c10 -43 32 -83 71 -83c46 0 80 63 89 107c12 61 66 14 58 -18c-18 -54 -67 -155 -158 -155c-79 0 -131 90 -131 156
c0 31 93 63 93 155c0 25 -13 42 -32 42c-24 0 -69 -32 -100 -138v-172c0 -19 1 -43 -28 -43c-20 0 -48 7 -48 44z" />
    <glyph glyph-name="l" unicode="l" horiz-adv-x="220" 
d="M111 581v-285c21 42 42 174 42 229c0 66 -11 96 -27 96c-11 0 -15 -24 -15 -40zM253 145c12 59 66 14 58 -18c-18 -54 -67 -155 -158 -155c-77 0 -118 53 -118 132v455c0 75 41 128 91 128c88 0 89 -105 89 -161c0 -147 -91 -349 -104 -361v-58c0 -40 16 -69 53 -69
c46 0 80 63 89 107z" />
    <glyph glyph-name="m" unicode="m" horiz-adv-x="543" 
d="M632 128c-18 -66 -57 -156 -143 -156c-53 0 -84 43 -84 94v203c0 31 -2 57 -19 57c-27 0 -84 -86 -90 -165v-146c0 -19 1 -43 -28 -43c-20 0 -48 7 -48 44v253c0 31 -2 57 -19 57c-27 0 -84 -86 -90 -165v-146c0 -19 1 -43 -28 -43c-20 0 -48 7 -48 44v317
c0 19 -4 25 -4 32c0 10 12 17 26 17c33 0 54 -20 54 -44v-42c26 54 61 96 106 96c60 0 77 -49 79 -94c25 53 60 94 105 94c65 0 80 -55 80 -101v-207c0 -9 0 -46 26 -46c40 0 58 64 67 108c4 21 14 30 24 30c16 0 35 -22 35 -41c0 -1 0 -3 -1 -7z" />
    <glyph glyph-name="n" unicode="n" horiz-adv-x="361" 
d="M35 16v317c0 19 -4 25 -4 32c0 10 12 17 26 17c33 0 54 -20 54 -44v-45c27 56 63 99 112 99c67 0 83 -55 83 -101v-207c0 -9 0 -46 26 -46c40 0 58 64 67 108c4 21 14 30 24 30c16 0 35 -22 35 -41c0 -1 0 -3 -1 -7c-17 -66 -57 -156 -143 -156c-53 0 -84 43 -84 94v203
c0 31 -2 57 -21 57c-29 0 -91 -86 -98 -165v-146c0 -19 1 -43 -28 -43c-20 0 -48 7 -48 44z" />
    <glyph glyph-name="o" unicode="o" horiz-adv-x="366" 
d="M401 165c4 23 70 27 57 -29c-12 -54 -53 -99 -121 -99c-18 0 -34 2 -49 7c-25 -43 -63 -72 -120 -72c-101 0 -146 86 -146 186c0 147 80 236 102 236c26 0 46 -53 20 -70c-16 -24 -46 -61 -46 -160c0 -84 33 -126 72 -126c28 0 46 15 59 38c-47 40 -72 106 -72 178
c0 63 27 117 81 117c47 0 85 -71 85 -168c0 -37 -4 -74 -14 -108c7 -2 13 -2 20 -2c43 0 66 33 72 72zM210 258c0 -45 15 -87 38 -117c2 16 3 31 3 46c0 68 -3 118 -24 118c-11 0 -17 -16 -17 -47z" />
    <glyph glyph-name="p" unicode="p" horiz-adv-x="361" 
d="M159 -38c-24 0 -40 6 -48 15v-325c0 -37 -33 -44 -53 -44s-23 12 -23 27v698c0 29 -10 31 -10 38s18 11 32 11c32 0 53 -20 54 -43c21 30 49 53 91 53c78 0 116 -77 116 -176c0 -56 -11 -110 -26 -146c66 3 81 29 104 76c9 19 14 27 23 27c17 0 36 -24 36 -38
c0 -46 -62 -127 -195 -127c-27 -29 -66 -46 -101 -46zM177 325c-29 0 -55 -35 -66 -84v-216c14 21 48 31 94 35c24 35 35 103 35 140c0 92 -29 125 -63 125z" />
    <glyph glyph-name="q" unicode="q" horiz-adv-x="365" 
d="M137 -28c-78 0 -119 66 -119 151c0 167 116 269 238 269c27 0 46 -16 46 -42c0 -17 -3 -23 -13 -23c-9 0 -19 2 -29 2c-76 0 -165 -65 -165 -209c0 -52 22 -82 57 -82c40 0 60 53 67 93v113c0 19 -4 25 -4 32c0 10 12 17 26 17c33 0 54 -20 54 -44v-276
c41 42 78 96 101 173c6 21 14 30 24 30c16 0 35 -22 35 -41c0 -1 0 -6 -1 -10c-31 -106 -83 -165 -133 -210c60 -66 97 -122 97 -194c0 -79 -46 -133 -99 -133c-68 0 -100 50 -100 132v289c-20 -21 -46 -37 -82 -37zM347 -290c0 49 -10 94 -52 149v-148c0 -47 16 -57 26 -57
c13 0 26 17 26 56z" />
    <glyph glyph-name="r" unicode="r" horiz-adv-x="307" 
d="M253 -28c-47 0 -103 26 -103 114c0 64 18 135 50 221h-76h-11c-1 -39 -7 -126 -25 -184c-13 -42 -65 -6 -56 28c11 40 15 123 16 174c-25 14 -43 35 -43 64c0 28 24 46 50 46c24 0 52 -12 63 -53c33 -4 43 -4 53 -4h52c12 0 52 -33 48 -56c0 -12 -45 -130 -45 -230
c0 -28 13 -54 40 -54c46 0 63 64 72 108c4 21 14 30 24 30c16 0 35 -22 35 -41c0 -3 -1 -5 -1 -7c-18 -66 -57 -156 -143 -156z" />
    <glyph glyph-name="s" unicode="s" horiz-adv-x="319" 
d="M92 137c-11 -42 -66 -14 -58 20c10 44 31 101 49 154c-10 15 -16 30 -16 47c0 34 58 79 85 79c24 0 36 -18 36 -45c0 -29 -23 -62 -24 -68c47 -83 108 -119 108 -214c0 -12 -2 -25 -5 -36c47 10 71 40 82 72c7 19 14 27 23 27c17 0 36 -26 36 -40c0 -20 -23 -58 -46 -77
c-31 -25 -72 -44 -134 -48c-24 -21 -57 -36 -98 -36c-42 0 -90 23 -110 42c-49 47 -22 100 0 100c20 0 111 -58 161 -58c11 13 22 36 22 61c0 63 -37 105 -72 141c-16 -39 -26 -73 -39 -121z" />
    <glyph glyph-name="t" unicode="t" horiz-adv-x="181" 
d="M-55 470c0 0 36 -2 90 -3v169c0 29 -10 31 -10 38s18 11 32 11c33 0 54 -20 54 -44v-175c61 0 131 1 199 4c28 30 19 -66 -7 -67c-80 -2 -139 -2 -192 -2v-317c0 -32 13 -46 34 -46c40 0 58 64 67 108c4 21 14 30 24 30c16 0 35 -22 35 -41c0 -1 0 -3 -1 -7
c-17 -66 -57 -156 -143 -156c-54 0 -92 32 -92 111v318c-44 0 -69 2 -69 2c-32 0 -50 67 -21 67z" />
    <glyph glyph-name="u" unicode="u" horiz-adv-x="364" 
d="M310 -28c-45 0 -75 31 -82 71c-24 -42 -56 -72 -100 -72c-67 0 -106 57 -106 144c0 106 36 225 36 225c7 17 0 37 53 37c49 0 20 -40 16 -55c-18 -74 -29 -118 -29 -202c0 -54 17 -83 46 -83c40 0 70 65 82 135v161c0 29 -10 31 -10 38s18 11 32 11c33 0 54 -20 54 -44
v-254c0 -9 0 -46 26 -46c40 0 58 64 67 108c4 21 14 30 24 30c16 0 35 -22 35 -41c0 -1 0 -3 -1 -7c-18 -66 -57 -156 -143 -156z" />
    <glyph glyph-name="v" unicode="v" horiz-adv-x="325" 
d="M35 70v263c0 19 -4 25 -4 32c0 10 12 17 26 17c33 0 54 -20 54 -44v-269c0 -19 4 -31 22 -31c49 0 105 68 105 184c0 81 -28 102 -41 112c-5 4 -14 3 -14 9c0 18 22 49 41 49c40 0 89 -87 89 -173c0 -135 -75 -247 -193 -247c-64 0 -85 44 -85 98z" />
    <glyph glyph-name="w" unicode="w" horiz-adv-x="498" 
d="M210 109v224c0 19 -4 25 -4 32c0 10 12 17 26 17c33 0 54 -20 54 -44v-229c1 -42 10 -71 49 -71c38 0 50 33 50 71v224c0 19 -4 25 -4 32c0 10 12 17 26 17c33 0 54 -20 54 -44v-229c0 -62 -19 -137 -122 -137c-43 0 -77 22 -91 48c-13 -26 -53 -48 -91 -48
c-111 0 -122 84 -122 138v223c0 19 -4 25 -4 32c0 10 12 17 26 17c33 0 54 -20 54 -44v-229c0 -36 6 -71 49 -71c38 0 50 33 50 71z" />
    <glyph glyph-name="x" unicode="x" horiz-adv-x="407" 
d="M88 123c-13 -42 -65 -6 -56 28c10 37 26 142 26 193c0 35 17 48 59 48c16 0 40 -6 53 -27c24 -39 44 -78 69 -131c34 52 61 100 78 132c9 18 17 27 28 27c20 0 42 -29 42 -52c0 -6 -1 -11 -4 -15l-113 -161c38 -81 65 -131 102 -131c40 0 57 68 66 112c4 21 14 30 24 30
c16 0 35 -22 35 -41c0 -1 0 -3 -1 -7c-17 -66 -52 -156 -133 -156c-60 0 -97 34 -140 125l-67 -95c-14 -22 -27 -30 -45 -30c-23 0 -52 14 -52 33c0 13 11 7 43 44c31 36 62 76 90 116c-21 48 -44 93 -71 139c-2 -44 -18 -133 -33 -181z" />
    <glyph glyph-name="y" unicode="y" horiz-adv-x="359" 
d="M390 146c6 21 14 30 24 30c16 0 35 -22 35 -41c0 -1 0 -6 -1 -10c-34 -116 -92 -175 -146 -222v-173c0 -105 -53 -142 -104 -142c-56 0 -96 51 -96 115c0 101 58 152 124 210v127c-24 -40 -55 -69 -98 -69c-67 0 -106 57 -106 144c0 106 36 225 36 225c7 17 0 37 53 37
c49 0 20 -40 16 -55c-18 -74 -29 -118 -29 -202c0 -54 17 -83 46 -83c40 0 70 65 82 135v161c0 19 -4 25 -4 32c0 10 12 17 26 17c33 0 54 -20 54 -44v-351c36 40 68 90 88 159zM198 -349c32 0 28 60 28 79v107c-32 -33 -54 -71 -54 -131c0 -31 10 -55 26 -55z" />
    <glyph glyph-name="z" unicode="z" horiz-adv-x="360" 
d="M103 -297c0 104 62 155 130 216c-11 56 -38 106 -99 106l-14 55c70 20 145 82 145 182c0 34 -18 64 -57 64c-50 0 -81 -38 -118 -193c-14 -57 -61 1 -56 26c25 131 58 233 174 233c84 0 133 -61 133 -138c0 -84 -57 -151 -128 -183c38 -21 65 -48 82 -92
c39 41 75 93 96 167c6 21 14 30 24 30c16 0 35 -22 35 -41c0 -1 0 -6 -1 -10c-33 -110 -86 -169 -138 -214c4 -27 6 -59 6 -96c0 -105 -27 -227 -118 -227c-56 0 -96 51 -96 115zM241 -199c0 14 0 31 -1 49c-39 -36 -67 -76 -67 -144c0 -31 10 -55 26 -55c38 0 42 96 42 150
z" />
    <glyph glyph-name="germandbls" unicode="&#xdf;" horiz-adv-x="389" 
d="M268 547c0 -96 -40 -131 -40 -171c0 -67 114 -143 114 -256c0 -15 -2 -31 -6 -47c47 11 72 41 83 73c7 19 14 27 23 27c17 0 36 -26 36 -40c0 -20 -23 -58 -46 -77c-30 -24 -69 -43 -127 -47c-19 -22 -47 -37 -85 -37c-53 0 -81 44 -81 79c0 25 15 43 28 43
s54 -36 81 -35c11 13 21 33 21 58c0 69 -111 174 -107 245c3 58 32 102 32 188c0 35 -14 78 -47 78c-27 0 -36 -37 -36 -101v-771c0 -37 -33 -44 -53 -44s-23 12 -23 27v788c0 115 51 173 115 173c71 0 118 -79 118 -153z" />
    <glyph glyph-name="Agrave" unicode="&#xc0;" horiz-adv-x="496" 
d="M240 385c-24 0 -44 17 -44 50c0 14 4 32 11 32s9 -10 38 -10c72 0 160 47 160 122c0 27 -18 55 -56 55c-155 0 -236 -222 -236 -379c0 -125 28 -217 114 -217c117 0 147 190 167 347c2 13 22 20 41 20c16 0 35 -7 31 -26c-5 -26 -13 -85 -13 -163c0 -131 5 -187 9 -219
c2 -3 3 -5 3 -7c0 -13 -29 -24 -51 -24c-35 0 -33 26 -36 107c-30 -63 -90 -113 -160 -113c-109 0 -185 78 -185 293c0 221 131 457 321 457c82 0 130 -56 130 -127c0 -115 -122 -198 -244 -198zM327 760l-94 103c-5 6 -8 12 -8 17c0 19 28 32 41 32c14 0 22 -9 29 -19
l91 -105c4 -5 8 -10 8 -15c0 -11 -18 -23 -45 -23c-11 0 -19 5 -22 10z" />
    <glyph glyph-name="agrave" unicode="&#xe0;" horiz-adv-x="354" 
d="M318 38c40 0 58 64 67 108c4 21 14 30 24 30c16 0 35 -22 35 -41c0 -1 0 -3 -1 -7c-17 -66 -57 -156 -143 -156c-35 0 -62 17 -77 41c-20 -23 -48 -41 -86 -41c-78 0 -119 66 -119 151c0 167 116 269 238 269c27 0 46 -16 46 -42c0 -17 -3 -23 -13 -23c-9 0 -19 2 -29 2
c-76 0 -165 -65 -165 -209c0 -52 22 -82 57 -82c27 0 45 24 56 52v154c0 19 -4 25 -4 32c0 10 12 17 26 17c33 0 54 -20 54 -44v-165c0 -22 10 -46 34 -46zM209 452l-94 103c-5 6 -8 12 -8 17c0 19 28 32 41 32c14 0 22 -9 29 -19l91 -105c4 -5 8 -10 8 -15
c0 -11 -18 -23 -45 -23c-11 0 -19 5 -22 10z" />
    <glyph glyph-name="Aacute" unicode="&#xc1;" horiz-adv-x="496" 
d="M240 385c-24 0 -44 17 -44 50c0 14 4 32 11 32s9 -10 38 -10c72 0 160 47 160 122c0 27 -18 55 -56 55c-155 0 -236 -222 -236 -379c0 -125 28 -217 114 -217c117 0 147 190 167 347c2 13 22 20 41 20c16 0 35 -7 31 -26c-5 -26 -13 -85 -13 -163c0 -131 5 -187 9 -219
c2 -3 3 -5 3 -7c0 -13 -29 -24 -51 -24c-35 0 -33 26 -36 107c-30 -63 -90 -113 -160 -113c-109 0 -185 78 -185 293c0 221 131 457 321 457c82 0 130 -56 130 -127c0 -115 -122 -198 -244 -198zM417 863l-89 -95c-8 -13 -22 -18 -33 -18c-27 0 -39 12 -39 23c0 5 4 10 8 15
l91 105c2 11 19 19 33 19c19 0 41 -12 41 -29c0 -9 -7 -14 -12 -20z" />
    <glyph glyph-name="aacute" unicode="&#xe1;" horiz-adv-x="354" 
d="M318 38c40 0 58 64 67 108c4 21 14 30 24 30c16 0 35 -22 35 -41c0 -1 0 -3 -1 -7c-17 -66 -57 -156 -143 -156c-35 0 -62 17 -77 41c-20 -23 -48 -41 -86 -41c-78 0 -119 66 -119 151c0 167 116 269 238 269c27 0 46 -16 46 -42c0 -17 -3 -23 -13 -23c-9 0 -19 2 -29 2
c-76 0 -165 -65 -165 -209c0 -52 22 -82 57 -82c27 0 45 24 56 52v154c0 19 -4 25 -4 32c0 10 12 17 26 17c33 0 54 -20 54 -44v-165c0 -22 10 -46 34 -46zM299 555l-89 -95c-8 -13 -22 -18 -33 -18c-27 0 -39 12 -39 23c0 5 4 10 8 15l91 105c2 11 19 19 33 19
c19 0 41 -12 41 -29c0 -9 -7 -14 -12 -20z" />
    <glyph glyph-name="Acircumflex" unicode="&#xc2;" horiz-adv-x="496" 
d="M240 385c-24 0 -44 17 -44 50c0 14 4 32 11 32s9 -10 38 -10c72 0 160 47 160 122c0 27 -18 55 -56 55c-155 0 -236 -222 -236 -379c0 -125 28 -217 114 -217c117 0 147 190 167 347c2 13 22 20 41 20c16 0 35 -7 31 -26c-5 -26 -13 -85 -13 -163c0 -131 5 -187 9 -219
c2 -3 3 -5 3 -7c0 -13 -29 -24 -51 -24c-35 0 -33 26 -36 107c-30 -63 -90 -113 -160 -113c-109 0 -185 78 -185 293c0 221 131 457 321 457c82 0 130 -56 130 -127c0 -115 -122 -198 -244 -198zM366 884l66 -96c4 -5 8 -10 8 -15c0 -11 -18 -23 -45 -23c-11 0 -19 5 -22 10
l-49 76l-43 -69c-5 -9 -9 -17 -24 -17c-18 0 -43 17 -43 31c0 2 1 3 2 4l70 100c12 18 29 27 46 27c24 0 26 -9 34 -28z" />
    <glyph glyph-name="acircumflex" unicode="&#xe2;" horiz-adv-x="354" 
d="M318 38c40 0 58 64 67 108c4 21 14 30 24 30c16 0 35 -22 35 -41c0 -1 0 -3 -1 -7c-17 -66 -57 -156 -143 -156c-35 0 -62 17 -77 41c-20 -23 -48 -41 -86 -41c-78 0 -119 66 -119 151c0 167 116 269 238 269c27 0 46 -16 46 -42c0 -17 -3 -23 -13 -23c-9 0 -19 2 -29 2
c-76 0 -165 -65 -165 -209c0 -52 22 -82 57 -82c27 0 45 24 56 52v154c0 19 -4 25 -4 32c0 10 12 17 26 17c33 0 54 -20 54 -44v-165c0 -22 10 -46 34 -46zM248 576l66 -96c4 -5 8 -10 8 -15c0 -11 -18 -23 -45 -23c-11 0 -19 5 -22 10l-49 76l-43 -69c-5 -9 -9 -17 -24 -17
c-18 0 -43 17 -43 31c0 2 1 3 2 4l70 100c12 18 29 27 46 27c24 0 26 -9 34 -28z" />
    <glyph glyph-name="Atilde" unicode="&#xc3;" horiz-adv-x="496" 
d="M240 385c-24 0 -44 17 -44 50c0 14 4 32 11 32s9 -10 38 -10c72 0 160 47 160 122c0 27 -18 55 -56 55c-155 0 -236 -222 -236 -379c0 -125 28 -217 114 -217c117 0 147 190 167 347c2 13 22 20 41 20c16 0 35 -7 31 -26c-5 -26 -13 -85 -13 -163c0 -131 5 -187 9 -219
c2 -3 3 -5 3 -7c0 -13 -29 -24 -51 -24c-35 0 -33 26 -36 107c-30 -63 -90 -113 -160 -113c-109 0 -185 78 -185 293c0 221 131 457 321 457c82 0 130 -56 130 -127c0 -115 -122 -198 -244 -198zM261 783c0 -9 -13 -13 -23 -13c-17 0 -36 9 -36 20c0 39 31 91 76 91
c54 0 69 -53 100 -53c13 0 20 12 20 31c0 15 16 20 27 20c16 0 34 -9 34 -18c0 -64 -45 -96 -79 -96c-53 0 -78 55 -93 55c-19 0 -23 -20 -26 -37z" />
    <glyph glyph-name="atilde" unicode="&#xe3;" horiz-adv-x="354" 
d="M318 38c40 0 58 64 67 108c4 21 14 30 24 30c16 0 35 -22 35 -41c0 -1 0 -3 -1 -7c-17 -66 -57 -156 -143 -156c-35 0 -62 17 -77 41c-20 -23 -48 -41 -86 -41c-78 0 -119 66 -119 151c0 167 116 269 238 269c27 0 46 -16 46 -42c0 -17 -3 -23 -13 -23c-9 0 -19 2 -29 2
c-76 0 -165 -65 -165 -209c0 -52 22 -82 57 -82c27 0 45 24 56 52v154c0 19 -4 25 -4 32c0 10 12 17 26 17c33 0 54 -20 54 -44v-165c0 -22 10 -46 34 -46zM143 475c0 -9 -13 -13 -23 -13c-17 0 -36 9 -36 20c0 39 31 91 76 91c54 0 69 -53 100 -53c13 0 20 12 20 31
c0 15 16 20 27 20c16 0 34 -9 34 -18c0 -64 -45 -96 -79 -96c-53 0 -78 55 -93 55c-19 0 -23 -20 -26 -37z" />
    <glyph glyph-name="Adieresis" unicode="&#xc4;" horiz-adv-x="496" 
d="M240 385c-24 0 -44 17 -44 50c0 14 4 32 11 32s9 -10 38 -10c72 0 160 47 160 122c0 27 -18 55 -56 55c-155 0 -236 -222 -236 -379c0 -125 28 -217 114 -217c117 0 147 190 167 347c2 13 22 20 41 20c16 0 35 -7 31 -26c-5 -26 -13 -85 -13 -163c0 -131 5 -187 9 -219
c2 -3 3 -5 3 -7c0 -13 -29 -24 -51 -24c-35 0 -33 26 -36 107c-30 -63 -90 -113 -160 -113c-109 0 -185 78 -185 293c0 221 131 457 321 457c82 0 130 -56 130 -127c0 -115 -122 -198 -244 -198zM208 817c0 26 21 47 47 47s47 -21 47 -47s-21 -47 -47 -47s-47 21 -47 47z
M352 817c0 26 21 47 47 47s47 -21 47 -47s-21 -47 -47 -47s-47 21 -47 47z" />
    <glyph glyph-name="adieresis" unicode="&#xe4;" horiz-adv-x="354" 
d="M318 38c40 0 58 64 67 108c4 21 14 30 24 30c16 0 35 -22 35 -41c0 -1 0 -3 -1 -7c-17 -66 -57 -156 -143 -156c-35 0 -62 17 -77 41c-20 -23 -48 -41 -86 -41c-78 0 -119 66 -119 151c0 167 116 269 238 269c27 0 46 -16 46 -42c0 -17 -3 -23 -13 -23c-9 0 -19 2 -29 2
c-76 0 -165 -65 -165 -209c0 -52 22 -82 57 -82c27 0 45 24 56 52v154c0 19 -4 25 -4 32c0 10 12 17 26 17c33 0 54 -20 54 -44v-165c0 -22 10 -46 34 -46zM90 509c0 26 21 47 47 47s47 -21 47 -47s-21 -47 -47 -47s-47 21 -47 47zM234 509c0 26 21 47 47 47s47 -21 47 -47
s-21 -47 -47 -47s-47 21 -47 47z" />
    <glyph glyph-name="Aring" unicode="&#xc5;" horiz-adv-x="496" 
d="M240 385c-24 0 -44 17 -44 50c0 14 4 32 11 32s9 -10 38 -10c72 0 160 47 160 122c0 27 -18 55 -56 55c-155 0 -236 -222 -236 -379c0 -125 28 -217 114 -217c117 0 147 190 167 347c2 13 22 20 41 20c16 0 35 -7 31 -26c-5 -26 -13 -85 -13 -163c0 -131 5 -187 9 -219
c2 -3 3 -5 3 -7c0 -13 -29 -24 -51 -24c-35 0 -33 26 -36 107c-30 -63 -90 -113 -160 -113c-109 0 -185 78 -185 293c0 221 131 457 321 457c82 0 130 -56 130 -127c0 -115 -122 -198 -244 -198zM224 843c0 57 46 103 103 103s103 -46 103 -103s-46 -103 -103 -103
s-103 46 -103 103zM283 843c0 -25 19 -44 44 -44c24 0 44 19 44 44c0 24 -20 44 -44 44c-25 0 -44 -20 -44 -44z" />
    <glyph glyph-name="aring" unicode="&#xe5;" horiz-adv-x="354" 
d="M318 38c40 0 58 64 67 108c4 21 14 30 24 30c16 0 35 -22 35 -41c0 -1 0 -3 -1 -7c-17 -66 -57 -156 -143 -156c-35 0 -62 17 -77 41c-20 -23 -48 -41 -86 -41c-78 0 -119 66 -119 151c0 167 116 269 238 269c27 0 46 -16 46 -42c0 -17 -3 -23 -13 -23c-9 0 -19 2 -29 2
c-76 0 -165 -65 -165 -209c0 -52 22 -82 57 -82c27 0 45 24 56 52v154c0 19 -4 25 -4 32c0 10 12 17 26 17c33 0 54 -20 54 -44v-165c0 -22 10 -46 34 -46zM106 535c0 57 46 103 103 103s103 -46 103 -103s-46 -103 -103 -103s-103 46 -103 103zM165 535
c0 -25 19 -44 44 -44c24 0 44 19 44 44c0 24 -20 44 -44 44c-25 0 -44 -20 -44 -44z" />
    <glyph glyph-name="AE" unicode="&#xc6;" horiz-adv-x="832" 
d="M809 72c-17 -29 -80 -115 -208 -115c-58 0 -109 22 -142 61c1 -8 2 -15 3 -21c2 -3 3 -5 3 -7c0 -13 -29 -24 -51 -24c-35 0 -33 26 -36 107c-30 -63 -90 -113 -160 -113c-109 0 -185 78 -185 293c0 221 131 457 321 457c77 0 124 -50 129 -115c49 70 126 122 212 122
c92 0 142 -59 142 -132c0 -104 -86 -207 -185 -207c-25 0 -55 12 -55 48c0 14 4 36 11 36s9 -10 38 -10c66 0 112 70 112 134c0 36 -26 54 -63 54c-100 0 -186 -104 -186 -200c0 -75 57 -130 101 -134c3 1 6 1 9 1c12 0 17 -11 17 -24c0 -22 -12 -51 -24 -52
c-42 -5 -107 -29 -107 -108c0 -51 42 -87 98 -87c84 0 134 54 147 82c5 12 13 17 21 17c20 0 41 -26 41 -49c0 -5 -1 -10 -3 -14zM240 385c-24 0 -44 17 -44 50c0 14 4 32 11 32s9 -10 38 -10c72 0 160 47 160 122c0 27 -18 55 -56 55c-155 0 -236 -222 -236 -379
c0 -125 28 -217 114 -217c117 0 147 190 167 347c2 12 19 19 37 20c-1 9 -2 19 -2 30c0 8 0 17 1 26c-47 -47 -118 -76 -190 -76zM453 216v-1c16 25 39 44 63 57c-21 13 -42 30 -58 55c-3 -30 -5 -67 -5 -111z" />
    <glyph glyph-name="ae" unicode="&#xe6;" horiz-adv-x="481" 
d="M129 -28c-68 0 -111 66 -111 151c0 167 116 269 238 269c18 0 33 -8 41 -21c19 14 40 21 62 21c56 0 90 -41 90 -101c0 -74 -51 -162 -148 -191c14 -34 41 -62 93 -62c78 0 110 65 122 126c9 45 65 25 61 -10c-7 -61 -47 -182 -194 -182c-37 0 -73 12 -102 34
c-1 -17 -5 -34 -29 -34c-19 0 -41 6 -44 36c-21 -21 -47 -36 -79 -36zM152 38c33 0 52 35 62 70c-5 19 -8 39 -8 62c0 64 19 119 48 159c-75 -4 -159 -69 -159 -209c0 -52 22 -82 57 -82zM288 173c0 -6 1 -12 1 -18c50 23 82 75 82 135c0 22 -8 35 -21 35
c-49 0 -64 -110 -62 -152z" />
    <glyph glyph-name="AEacute" unicode="&#x1fc;" horiz-adv-x="832" 
d="M809 72c-17 -29 -80 -115 -208 -115c-58 0 -109 22 -142 61c1 -8 2 -15 3 -21c2 -3 3 -5 3 -7c0 -13 -29 -24 -51 -24c-35 0 -33 26 -36 107c-30 -63 -90 -113 -160 -113c-109 0 -185 78 -185 293c0 221 131 457 321 457c77 0 124 -50 129 -115c49 70 126 122 212 122
c92 0 142 -59 142 -132c0 -104 -86 -207 -185 -207c-25 0 -55 12 -55 48c0 14 4 36 11 36s9 -10 38 -10c66 0 112 70 112 134c0 36 -26 54 -63 54c-100 0 -186 -104 -186 -200c0 -75 57 -130 101 -134c3 1 6 1 9 1c12 0 17 -11 17 -24c0 -22 -12 -51 -24 -52
c-42 -5 -107 -29 -107 -108c0 -51 42 -87 98 -87c84 0 134 54 147 82c5 12 13 17 21 17c20 0 41 -26 41 -49c0 -5 -1 -10 -3 -14zM240 385c-24 0 -44 17 -44 50c0 14 4 32 11 32s9 -10 38 -10c72 0 160 47 160 122c0 27 -18 55 -56 55c-155 0 -236 -222 -236 -379
c0 -125 28 -217 114 -217c117 0 147 190 167 347c2 12 19 19 37 20c-1 9 -2 19 -2 30c0 8 0 17 1 26c-47 -47 -118 -76 -190 -76zM453 216v-1c16 25 39 44 63 57c-21 13 -42 30 -58 55c-3 -30 -5 -67 -5 -111zM603 863l-89 -95c-8 -13 -22 -18 -33 -18c-27 0 -39 12 -39 23
c0 5 4 10 8 15l91 105c2 11 19 19 33 19c19 0 41 -12 41 -29c0 -9 -7 -14 -12 -20z" />
    <glyph glyph-name="aeacute" unicode="&#x1fd;" horiz-adv-x="481" 
d="M129 -28c-68 0 -111 66 -111 151c0 167 116 269 238 269c18 0 33 -8 41 -21c19 14 40 21 62 21c56 0 90 -41 90 -101c0 -74 -51 -162 -148 -191c14 -34 41 -62 93 -62c78 0 110 65 122 126c9 45 65 25 61 -10c-7 -61 -47 -182 -194 -182c-37 0 -73 12 -102 34
c-1 -17 -5 -34 -29 -34c-19 0 -41 6 -44 36c-21 -21 -47 -36 -79 -36zM152 38c33 0 52 35 62 70c-5 19 -8 39 -8 62c0 64 19 119 48 159c-75 -4 -159 -69 -159 -209c0 -52 22 -82 57 -82zM288 173c0 -6 1 -12 1 -18c50 23 82 75 82 135c0 22 -8 35 -21 35
c-49 0 -64 -110 -62 -152zM371 555l-89 -95c-8 -13 -22 -18 -33 -18c-27 0 -39 12 -39 23c0 5 4 10 8 15l91 105c2 11 19 19 33 19c19 0 41 -12 41 -29c0 -9 -7 -14 -12 -20z" />
    <glyph glyph-name="Amacron" unicode="&#x100;" horiz-adv-x="496" 
d="M240 385c-24 0 -44 17 -44 50c0 14 4 32 11 32s9 -10 38 -10c72 0 160 47 160 122c0 27 -18 55 -56 55c-155 0 -236 -222 -236 -379c0 -125 28 -217 114 -217c117 0 147 190 167 347c2 13 22 20 41 20c16 0 35 -7 31 -26c-5 -26 -13 -85 -13 -163c0 -131 5 -187 9 -219
c2 -3 3 -5 3 -7c0 -13 -29 -24 -51 -24c-35 0 -33 26 -36 107c-30 -63 -90 -113 -160 -113c-109 0 -185 78 -185 293c0 221 131 457 321 457c82 0 130 -56 130 -127c0 -115 -122 -198 -244 -198zM248 842h172c17 2 22 -9 22 -26c0 -19 -10 -41 -26 -41c-1 0 -3 0 -5 1h-173
c-18 0 -26 9 -26 23c0 27 13 43 36 43z" />
    <glyph glyph-name="amacron" unicode="&#x101;" horiz-adv-x="354" 
d="M318 38c40 0 58 64 67 108c4 21 14 30 24 30c16 0 35 -22 35 -41c0 -1 0 -3 -1 -7c-17 -66 -57 -156 -143 -156c-35 0 -62 17 -77 41c-20 -23 -48 -41 -86 -41c-78 0 -119 66 -119 151c0 167 116 269 238 269c27 0 46 -16 46 -42c0 -17 -3 -23 -13 -23c-9 0 -19 2 -29 2
c-76 0 -165 -65 -165 -209c0 -52 22 -82 57 -82c27 0 45 24 56 52v154c0 19 -4 25 -4 32c0 10 12 17 26 17c33 0 54 -20 54 -44v-165c0 -22 10 -46 34 -46zM130 534h172c17 2 22 -9 22 -26c0 -19 -10 -41 -26 -41c-1 0 -3 0 -5 1h-173c-18 0 -26 9 -26 23c0 27 13 43 36 43z
" />
    <glyph glyph-name="Abreve" unicode="&#x102;" horiz-adv-x="496" 
d="M240 385c-24 0 -44 17 -44 50c0 14 4 32 11 32s9 -10 38 -10c72 0 160 47 160 122c0 27 -18 55 -56 55c-155 0 -236 -222 -236 -379c0 -125 28 -217 114 -217c117 0 147 190 167 347c2 13 22 20 41 20c16 0 35 -7 31 -26c-5 -26 -13 -85 -13 -163c0 -131 5 -187 9 -219
c2 -3 3 -5 3 -7c0 -13 -29 -24 -51 -24c-35 0 -33 26 -36 107c-30 -63 -90 -113 -160 -113c-109 0 -185 78 -185 293c0 221 131 457 321 457c82 0 130 -56 130 -127c0 -115 -122 -198 -244 -198zM328 760c-49 0 -122 25 -122 119c0 11 18 23 45 23c11 0 19 -5 22 -10
c2 -29 5 -71 54 -71c48 0 47 40 47 63c2 8 10 18 25 18c18 0 42 -16 42 -30c0 -98 -79 -112 -113 -112z" />
    <glyph glyph-name="abreve" unicode="&#x103;" horiz-adv-x="354" 
d="M318 38c40 0 58 64 67 108c4 21 14 30 24 30c16 0 35 -22 35 -41c0 -1 0 -3 -1 -7c-17 -66 -57 -156 -143 -156c-35 0 -62 17 -77 41c-20 -23 -48 -41 -86 -41c-78 0 -119 66 -119 151c0 167 116 269 238 269c27 0 46 -16 46 -42c0 -17 -3 -23 -13 -23c-9 0 -19 2 -29 2
c-76 0 -165 -65 -165 -209c0 -52 22 -82 57 -82c27 0 45 24 56 52v154c0 19 -4 25 -4 32c0 10 12 17 26 17c33 0 54 -20 54 -44v-165c0 -22 10 -46 34 -46zM210 452c-49 0 -122 25 -122 119c0 11 18 23 45 23c11 0 19 -5 22 -10c2 -29 5 -71 54 -71c48 0 47 40 47 63
c2 8 10 18 25 18c18 0 42 -16 42 -30c0 -98 -79 -112 -113 -112z" />
    <glyph glyph-name="Aogonek" unicode="&#x104;" horiz-adv-x="496" 
d="M240 385c-24 0 -44 17 -44 50c0 14 4 32 11 32s9 -10 38 -10c72 0 160 47 160 122c0 27 -18 55 -56 55c-155 0 -236 -222 -236 -379c0 -125 28 -217 114 -217c117 0 147 190 167 347c2 13 22 20 41 20c16 0 35 -7 31 -26c-5 -26 -13 -85 -13 -163c0 -74 -5 -153 12 -226
c2 -8 -2 -13 -9 -16c-39 -15 -83 -55 -83 -96c0 -19 11 -36 46 -36c15 0 45 2 59 9c9 5 14 -15 14 -24c0 -30 -21 -43 -78 -43c-80 0 -108 49 -108 85c0 50 39 97 77 124c-3 16 -4 42 -5 80c-30 -63 -90 -113 -160 -113c-109 0 -185 78 -185 293c0 221 131 457 321 457
c82 0 130 -56 130 -127c0 -115 -122 -198 -244 -198z" />
    <glyph glyph-name="aogonek" unicode="&#x105;" horiz-adv-x="354" 
d="M318 38c40 0 58 64 67 108c4 21 14 30 24 30c16 0 35 -22 35 -41c0 -1 0 -3 -1 -7c-12 -44 -33 -99 -72 -130c-40 -32 -82 -57 -82 -98c0 -19 11 -36 46 -36c15 0 45 2 59 9c9 5 14 -15 14 -24c0 -30 -21 -43 -78 -43c-80 0 -108 49 -108 85c0 33 16 58 46 86
c-19 7 -37 22 -45 36c-20 -23 -48 -41 -86 -41c-78 0 -119 66 -119 151c0 167 116 269 238 269c27 0 46 -16 46 -42c0 -17 -3 -23 -13 -23c-9 0 -19 2 -29 2c-76 0 -165 -65 -165 -209c0 -52 22 -82 57 -82c27 0 45 24 56 52v154c0 19 -4 25 -4 32c0 10 12 17 26 17
c33 0 54 -20 54 -44v-165c0 -22 10 -46 34 -46z" />
    <glyph glyph-name="Ccedilla" unicode="&#xc7;" horiz-adv-x="488" 
d="M226 416c74 0 181 83 181 168c0 23 -15 56 -61 56c-132 0 -233 -201 -233 -364c0 -124 41 -242 156 -242c85 0 137 59 139 60c26 43 75 -28 51 -52c-3 -3 -67 -73 -174 -82l-9 -26c70 -12 81 -60 81 -87c0 -36 -28 -95 -108 -95c-57 0 -78 13 -78 43c0 9 5 29 14 24
c14 -7 38 -9 53 -9c35 0 58 16 58 43c0 49 -81 8 -81 55c0 8 9 36 14 53c-123 18 -196 137 -196 315c0 195 127 437 326 437c72 0 127 -45 127 -132c0 -123 -154 -235 -265 -235c-24 0 -44 15 -44 48c0 14 4 32 11 32s9 -10 38 -10z" />
    <glyph glyph-name="ccedilla" unicode="&#xe7;" horiz-adv-x="297" 
d="M202 -31l-11 -31c70 -12 81 -60 81 -87c0 -36 -28 -95 -108 -95c-57 0 -78 13 -78 43c0 9 5 29 14 24c14 -7 38 -9 53 -9c35 0 58 16 58 43c0 49 -81 8 -81 55c0 11 16 59 18 66c-70 19 -126 81 -126 183c0 115 68 231 163 231c69 0 95 -63 95 -98c0 -38 -69 -58 -63 -23
c-5 17 -7 54 -41 54c-37 0 -72 -74 -72 -164c0 -79 43 -123 102 -123c78 0 114 65 126 126c9 45 65 25 61 -10c-7 -60 -50 -177 -190 -182c-1 -1 -1 -2 -1 -3z" />
    <glyph glyph-name="Cacute" unicode="&#x106;" horiz-adv-x="488" 
d="M226 416c74 0 181 83 181 168c0 23 -15 56 -61 56c-132 0 -233 -201 -233 -364c0 -124 41 -242 156 -242c85 0 137 59 139 60c26 43 75 -28 51 -52c-3 -3 -76 -83 -197 -83c-143 0 -229 124 -229 317c0 195 127 437 326 437c72 0 127 -45 127 -132
c0 -123 -154 -235 -265 -235c-24 0 -44 15 -44 48c0 14 4 32 11 32s9 -10 38 -10zM428 866l-89 -95c-8 -13 -22 -18 -33 -18c-27 0 -39 12 -39 23c0 5 4 10 8 15l91 105c2 11 19 19 33 19c19 0 41 -12 41 -29c0 -9 -7 -14 -12 -20z" />
    <glyph glyph-name="cacute" unicode="&#x107;" horiz-adv-x="297" 
d="M195 -28c-89 0 -173 66 -173 189c0 115 68 231 163 231c69 0 95 -63 95 -98c0 -38 -69 -58 -63 -23c-5 17 -7 54 -41 54c-37 0 -72 -74 -72 -164c0 -79 43 -123 102 -123c78 0 114 65 126 126c9 45 65 25 61 -10c-7 -61 -51 -182 -198 -182zM282 555l-89 -95
c-8 -13 -22 -18 -33 -18c-27 0 -39 12 -39 23c0 5 4 10 8 15l91 105c2 11 19 19 33 19c19 0 41 -12 41 -29c0 -9 -7 -14 -12 -20z" />
    <glyph glyph-name="Ccircumflex" unicode="&#x108;" horiz-adv-x="488" 
d="M226 416c74 0 181 83 181 168c0 23 -15 56 -61 56c-132 0 -233 -201 -233 -364c0 -124 41 -242 156 -242c85 0 137 59 139 60c26 43 75 -28 51 -52c-3 -3 -76 -83 -197 -83c-143 0 -229 124 -229 317c0 195 127 437 326 437c72 0 127 -45 127 -132
c0 -123 -154 -235 -265 -235c-24 0 -44 15 -44 48c0 14 4 32 11 32s9 -10 38 -10zM377 887l66 -96c4 -5 8 -10 8 -15c0 -11 -18 -23 -45 -23c-11 0 -19 5 -22 10l-49 76l-43 -69c-5 -9 -9 -17 -24 -17c-18 0 -43 17 -43 31c0 2 1 3 2 4l70 100c12 18 29 27 46 27
c24 0 26 -9 34 -28z" />
    <glyph glyph-name="ccircumflex" unicode="&#x109;" horiz-adv-x="297" 
d="M195 -28c-89 0 -173 66 -173 189c0 115 68 231 163 231c69 0 95 -63 95 -98c0 -38 -69 -58 -63 -23c-5 17 -7 54 -41 54c-37 0 -72 -74 -72 -164c0 -79 43 -123 102 -123c78 0 114 65 126 126c9 45 65 25 61 -10c-7 -61 -51 -182 -198 -182zM231 576l66 -96
c4 -5 8 -10 8 -15c0 -11 -18 -23 -45 -23c-11 0 -19 5 -22 10l-49 76l-43 -69c-5 -9 -9 -17 -24 -17c-18 0 -43 17 -43 31c0 2 1 3 2 4l70 100c12 18 29 27 46 27c24 0 26 -9 34 -28z" />
    <glyph glyph-name="Cdotaccent" unicode="&#x10a;" horiz-adv-x="488" 
d="M226 416c74 0 181 83 181 168c0 23 -15 56 -61 56c-132 0 -233 -201 -233 -364c0 -124 41 -242 156 -242c85 0 137 59 139 60c26 43 75 -28 51 -52c-3 -3 -76 -83 -197 -83c-143 0 -229 124 -229 317c0 195 127 437 326 437c72 0 127 -45 127 -132
c0 -123 -154 -235 -265 -235c-24 0 -44 15 -44 48c0 14 4 32 11 32s9 -10 38 -10zM288 813c0 28 22 50 50 50s50 -22 50 -50s-22 -50 -50 -50s-50 22 -50 50z" />
    <glyph glyph-name="cdotaccent" unicode="&#x10b;" horiz-adv-x="297" 
d="M195 -28c-89 0 -173 66 -173 189c0 115 68 231 163 231c69 0 95 -63 95 -98c0 -38 -69 -58 -63 -23c-5 17 -7 54 -41 54c-37 0 -72 -74 -72 -164c0 -79 43 -123 102 -123c78 0 114 65 126 126c9 45 65 25 61 -10c-7 -61 -51 -182 -198 -182zM142 502c0 28 22 50 50 50
s50 -22 50 -50s-22 -50 -50 -50s-50 22 -50 50z" />
    <glyph glyph-name="Ccaron" unicode="&#x10c;" horiz-adv-x="488" 
d="M226 416c74 0 181 83 181 168c0 23 -15 56 -61 56c-132 0 -233 -201 -233 -364c0 -124 41 -242 156 -242c85 0 137 59 139 60c26 43 75 -28 51 -52c-3 -3 -76 -83 -197 -83c-143 0 -229 124 -229 317c0 195 127 437 326 437c72 0 127 -45 127 -132
c0 -123 -154 -235 -265 -235c-24 0 -44 15 -44 48c0 14 4 32 11 32s9 -10 38 -10zM296 781l-66 96c-4 5 -8 10 -8 15c0 11 18 23 45 23c11 0 19 -5 22 -10l49 -76l43 69c2 8 9 17 24 17c18 0 42 -16 42 -30c0 -4 -6 -12 -7 -13l-64 -92c-6 -18 -15 -27 -32 -27
c-27 0 -32 7 -48 28z" />
    <glyph glyph-name="ccaron" unicode="&#x10d;" horiz-adv-x="297" 
d="M195 -28c-89 0 -173 66 -173 189c0 115 68 231 163 231c69 0 95 -63 95 -98c0 -38 -69 -58 -63 -23c-5 17 -7 54 -41 54c-37 0 -72 -74 -72 -164c0 -79 43 -123 102 -123c78 0 114 65 126 126c9 45 65 25 61 -10c-7 -61 -51 -182 -198 -182zM150 470l-66 96
c-4 5 -8 10 -8 15c0 11 18 23 45 23c11 0 19 -5 22 -10l49 -76l43 69c2 8 9 17 24 17c18 0 42 -16 42 -30c0 -4 -6 -12 -7 -13l-64 -92c-6 -18 -15 -27 -32 -27c-27 0 -32 7 -48 28z" />
    <glyph glyph-name="Dcaron" unicode="&#x10e;" horiz-adv-x="609" 
d="M275 516v-393c0 -55 16 -84 56 -84c76 0 165 154 165 354c0 135 -57 246 -190 246c-166 0 -210 -120 -210 -226c0 -96 49 -152 53 -155c11 3 15 -4 15 -14c0 -26 -25 -59 -48 -59c-5 0 -10 1 -15 5c-3 2 -83 76 -83 217c0 182 116 309 291 309c186 0 267 -154 267 -315
c0 -284 -141 -439 -251 -439c-94 0 -128 60 -128 166v383c0 19 -4 25 -4 32c0 10 12 17 26 17c33 0 56 -20 56 -44zM277 784l-66 96c-4 5 -8 10 -8 15c0 11 18 23 45 23c11 0 19 -5 22 -10l49 -76l43 69c2 8 9 17 24 17c18 0 42 -16 42 -30c0 -4 -6 -12 -7 -13l-64 -92
c-6 -18 -15 -27 -32 -27c-27 0 -32 7 -48 28z" />
    <glyph glyph-name="dcaron" unicode="&#x10f;" horiz-adv-x="446" 
d="M147 -28c-78 0 -129 56 -129 161c0 153 93 242 202 257v226c0 29 -10 31 -10 38s18 11 32 11c33 0 54 -20 54 -44v-537c0 -22 10 -46 34 -46c40 0 58 64 67 108c4 21 14 30 24 30c16 0 35 -22 35 -41c0 -1 0 -3 -1 -7c-17 -66 -57 -156 -143 -156c-34 0 -61 16 -76 39
c-22 -22 -51 -39 -89 -39zM162 38c26 0 45 17 58 39v247c-65 -12 -125 -59 -125 -184c0 -72 32 -102 67 -102zM388 644c24 0 46 -17 46 -54c0 -38 -45 -101 -68 -101c-16 0 -27 17 -27 28c0 5 3 5 6 7c7 2 19 14 31 32c-19 4 -34 20 -34 44c0 28 23 44 46 44z" />
    <glyph glyph-name="Eth" unicode="&#xd0;" horiz-adv-x="609" 
d="M171 359h26v152c0 19 -4 25 -4 32c0 10 12 17 26 17c33 0 56 -20 56 -44v-157h68c17 2 22 -9 22 -26c0 -19 -10 -41 -26 -41c-1 0 -3 0 -5 1h-59v-170c0 -55 16 -84 56 -84c76 0 165 154 165 354c0 135 -57 246 -190 246c-166 0 -210 -120 -210 -226
c0 -96 49 -152 53 -155c11 3 15 -4 15 -14c0 -26 -25 -59 -48 -59c-5 0 -10 1 -15 5c-3 2 -83 76 -83 217c0 182 116 309 291 309c186 0 267 -154 267 -315c0 -284 -141 -439 -251 -439c-94 0 -128 60 -128 166v165h-36c-18 0 -26 9 -26 23c0 27 13 43 36 43z" />
    <glyph glyph-name="eth" unicode="&#xf0;" horiz-adv-x="343" 
d="M56 524c0 0 34 24 77 56c-29 32 -55 49 -67 49c-7 0 -11 -2 -17 -2c-5 0 -8 2 -8 11c0 18 30 62 56 62c12 0 19 -3 29 -11c20 -17 42 -39 64 -65c25 20 49 40 73 62c4 41 55 -44 34 -59c-27 -19 -51 -36 -72 -51c53 -81 98 -196 98 -353c0 -135 -44 -251 -155 -251
c-96 0 -146 96 -146 196c0 146 88 224 141 224c17 0 32 -24 32 -45c0 -10 -8 -23 -25 -18c-28 -15 -72 -43 -72 -155c0 -84 33 -136 72 -136c57 0 81 82 81 179c0 144 -40 249 -83 317c-40 -30 -59 -46 -59 -46c-25 -20 -76 18 -53 36z" />
    <glyph glyph-name="Dcroat" unicode="&#x110;" horiz-adv-x="609" 
d="M171 359h26v152c0 19 -4 25 -4 32c0 10 12 17 26 17c33 0 56 -20 56 -44v-157h68c17 2 22 -9 22 -26c0 -19 -10 -41 -26 -41c-1 0 -3 0 -5 1h-59v-170c0 -55 16 -84 56 -84c76 0 165 154 165 354c0 135 -57 246 -190 246c-166 0 -210 -120 -210 -226
c0 -96 49 -152 53 -155c11 3 15 -4 15 -14c0 -26 -25 -59 -48 -59c-5 0 -10 1 -15 5c-3 2 -83 76 -83 217c0 182 116 309 291 309c186 0 267 -154 267 -315c0 -284 -141 -439 -251 -439c-94 0 -128 60 -128 166v165h-36c-18 0 -26 9 -26 23c0 27 13 43 36 43z" />
    <glyph glyph-name="dcroat" unicode="&#x111;" horiz-adv-x="366" 
d="M147 -28c-78 0 -129 56 -129 161c0 153 93 242 202 257v69h-76c-18 0 -26 9 -26 23c0 27 13 43 36 43h66v91c0 29 -10 31 -10 38s18 11 32 11c33 0 54 -20 54 -44v-96h40c17 2 22 -9 22 -26c0 -19 -10 -41 -26 -41c-1 0 -3 0 -5 1h-31v-375c0 -22 10 -46 34 -46
c40 0 58 64 67 108c4 21 14 30 24 30c16 0 35 -22 35 -41c0 -1 0 -3 -1 -7c-17 -66 -57 -156 -143 -156c-34 0 -61 16 -76 39c-22 -22 -51 -39 -89 -39zM162 38c26 0 45 17 58 39v247c-65 -12 -125 -59 -125 -184c0 -72 32 -102 67 -102z" />
    <glyph glyph-name="Egrave" unicode="&#xc8;" horiz-adv-x="446" 
d="M423 72c-17 -29 -80 -115 -208 -115c-96 0 -176 60 -176 164c0 73 43 126 91 151c-44 27 -87 76 -87 163c0 133 120 282 266 282c92 0 142 -59 142 -132c0 -104 -86 -207 -185 -207c-25 0 -55 12 -55 48c0 14 4 36 11 36s9 -10 38 -10c66 0 112 70 112 134
c0 36 -26 54 -63 54c-100 0 -186 -104 -186 -200c0 -75 57 -130 101 -134c3 1 6 1 9 1c12 0 17 -11 17 -24c0 -22 -12 -51 -24 -52c-42 -5 -107 -29 -107 -108c0 -51 42 -87 98 -87c84 0 134 54 147 82c5 12 13 17 21 17c20 0 41 -26 41 -49c0 -5 -1 -10 -3 -14zM289 767
l-94 103c-5 6 -8 12 -8 17c0 19 28 32 41 32c14 0 22 -9 29 -19l91 -105c4 -5 8 -10 8 -15c0 -11 -18 -23 -45 -23c-11 0 -19 5 -22 10z" />
    <glyph glyph-name="egrave" unicode="&#xe8;" horiz-adv-x="297" 
d="M265 291c0 -74 -51 -162 -148 -191c14 -34 41 -62 93 -62c78 0 110 65 122 126c9 45 65 25 61 -10c-7 -61 -47 -182 -194 -182c-91 0 -177 73 -177 198c0 127 76 222 153 222c56 0 90 -41 90 -101zM104 173c0 -6 1 -12 1 -18c50 23 82 75 82 135c0 22 -8 35 -21 35
c-49 0 -64 -110 -62 -152zM175 452l-94 103c-5 6 -8 12 -8 17c0 19 28 32 41 32c14 0 22 -9 29 -19l91 -105c4 -5 8 -10 8 -15c0 -11 -18 -23 -45 -23c-11 0 -19 5 -22 10z" />
    <glyph glyph-name="Eacute" unicode="&#xc9;" horiz-adv-x="446" 
d="M423 72c-17 -29 -80 -115 -208 -115c-96 0 -176 60 -176 164c0 73 43 126 91 151c-44 27 -87 76 -87 163c0 133 120 282 266 282c92 0 142 -59 142 -132c0 -104 -86 -207 -185 -207c-25 0 -55 12 -55 48c0 14 4 36 11 36s9 -10 38 -10c66 0 112 70 112 134
c0 36 -26 54 -63 54c-100 0 -186 -104 -186 -200c0 -75 57 -130 101 -134c3 1 6 1 9 1c12 0 17 -11 17 -24c0 -22 -12 -51 -24 -52c-42 -5 -107 -29 -107 -108c0 -51 42 -87 98 -87c84 0 134 54 147 82c5 12 13 17 21 17c20 0 41 -26 41 -49c0 -5 -1 -10 -3 -14zM379 870
l-89 -95c-8 -13 -22 -18 -33 -18c-27 0 -39 12 -39 23c0 5 4 10 8 15l91 105c2 11 19 19 33 19c19 0 41 -12 41 -29c0 -9 -7 -14 -12 -20z" />
    <glyph glyph-name="eacute" unicode="&#xe9;" horiz-adv-x="297" 
d="M265 291c0 -74 -51 -162 -148 -191c14 -34 41 -62 93 -62c78 0 110 65 122 126c9 45 65 25 61 -10c-7 -61 -47 -182 -194 -182c-91 0 -177 73 -177 198c0 127 76 222 153 222c56 0 90 -41 90 -101zM104 173c0 -6 1 -12 1 -18c50 23 82 75 82 135c0 22 -8 35 -21 35
c-49 0 -64 -110 -62 -152zM265 555l-89 -95c-8 -13 -22 -18 -33 -18c-27 0 -39 12 -39 23c0 5 4 10 8 15l91 105c2 11 19 19 33 19c19 0 41 -12 41 -29c0 -9 -7 -14 -12 -20z" />
    <glyph glyph-name="Ecircumflex" unicode="&#xca;" horiz-adv-x="446" 
d="M423 72c-17 -29 -80 -115 -208 -115c-96 0 -176 60 -176 164c0 73 43 126 91 151c-44 27 -87 76 -87 163c0 133 120 282 266 282c92 0 142 -59 142 -132c0 -104 -86 -207 -185 -207c-25 0 -55 12 -55 48c0 14 4 36 11 36s9 -10 38 -10c66 0 112 70 112 134
c0 36 -26 54 -63 54c-100 0 -186 -104 -186 -200c0 -75 57 -130 101 -134c3 1 6 1 9 1c12 0 17 -11 17 -24c0 -22 -12 -51 -24 -52c-42 -5 -107 -29 -107 -108c0 -51 42 -87 98 -87c84 0 134 54 147 82c5 12 13 17 21 17c20 0 41 -26 41 -49c0 -5 -1 -10 -3 -14zM328 891
l66 -96c4 -5 8 -10 8 -15c0 -11 -18 -23 -45 -23c-11 0 -19 5 -22 10l-49 76l-43 -69c-5 -9 -9 -17 -24 -17c-18 0 -43 17 -43 31c0 2 1 3 2 4l70 100c12 18 29 27 46 27c24 0 26 -9 34 -28z" />
    <glyph glyph-name="ecircumflex" unicode="&#xea;" horiz-adv-x="297" 
d="M265 291c0 -74 -51 -162 -148 -191c14 -34 41 -62 93 -62c78 0 110 65 122 126c9 45 65 25 61 -10c-7 -61 -47 -182 -194 -182c-91 0 -177 73 -177 198c0 127 76 222 153 222c56 0 90 -41 90 -101zM104 173c0 -6 1 -12 1 -18c50 23 82 75 82 135c0 22 -8 35 -21 35
c-49 0 -64 -110 -62 -152zM214 576l66 -96c4 -5 8 -10 8 -15c0 -11 -18 -23 -45 -23c-11 0 -19 5 -22 10l-49 76l-43 -69c-5 -9 -9 -17 -24 -17c-18 0 -43 17 -43 31c0 2 1 3 2 4l70 100c12 18 29 27 46 27c24 0 26 -9 34 -28z" />
    <glyph glyph-name="Edieresis" unicode="&#xcb;" horiz-adv-x="446" 
d="M423 72c-17 -29 -80 -115 -208 -115c-96 0 -176 60 -176 164c0 73 43 126 91 151c-44 27 -87 76 -87 163c0 133 120 282 266 282c92 0 142 -59 142 -132c0 -104 -86 -207 -185 -207c-25 0 -55 12 -55 48c0 14 4 36 11 36s9 -10 38 -10c66 0 112 70 112 134
c0 36 -26 54 -63 54c-100 0 -186 -104 -186 -200c0 -75 57 -130 101 -134c3 1 6 1 9 1c12 0 17 -11 17 -24c0 -22 -12 -51 -24 -52c-42 -5 -107 -29 -107 -108c0 -51 42 -87 98 -87c84 0 134 54 147 82c5 12 13 17 21 17c20 0 41 -26 41 -49c0 -5 -1 -10 -3 -14zM170 824
c0 26 21 47 47 47s47 -21 47 -47s-21 -47 -47 -47s-47 21 -47 47zM314 824c0 26 21 47 47 47s47 -21 47 -47s-21 -47 -47 -47s-47 21 -47 47z" />
    <glyph glyph-name="edieresis" unicode="&#xeb;" horiz-adv-x="297" 
d="M265 291c0 -74 -51 -162 -148 -191c14 -34 41 -62 93 -62c78 0 110 65 122 126c9 45 65 25 61 -10c-7 -61 -47 -182 -194 -182c-91 0 -177 73 -177 198c0 127 76 222 153 222c56 0 90 -41 90 -101zM104 173c0 -6 1 -12 1 -18c50 23 82 75 82 135c0 22 -8 35 -21 35
c-49 0 -64 -110 -62 -152zM56 509c0 26 21 47 47 47s47 -21 47 -47s-21 -47 -47 -47s-47 21 -47 47zM200 509c0 26 21 47 47 47s47 -21 47 -47s-21 -47 -47 -47s-47 21 -47 47z" />
    <glyph glyph-name="Emacron" unicode="&#x112;" horiz-adv-x="446" 
d="M423 72c-17 -29 -80 -115 -208 -115c-96 0 -176 60 -176 164c0 73 43 126 91 151c-44 27 -87 76 -87 163c0 133 120 282 266 282c92 0 142 -59 142 -132c0 -104 -86 -207 -185 -207c-25 0 -55 12 -55 48c0 14 4 36 11 36s9 -10 38 -10c66 0 112 70 112 134
c0 36 -26 54 -63 54c-100 0 -186 -104 -186 -200c0 -75 57 -130 101 -134c3 1 6 1 9 1c12 0 17 -11 17 -24c0 -22 -12 -51 -24 -52c-42 -5 -107 -29 -107 -108c0 -51 42 -87 98 -87c84 0 134 54 147 82c5 12 13 17 21 17c20 0 41 -26 41 -49c0 -5 -1 -10 -3 -14zM210 849
h172c17 2 22 -9 22 -26c0 -19 -10 -41 -26 -41c-1 0 -3 0 -5 1h-173c-18 0 -26 9 -26 23c0 27 13 43 36 43z" />
    <glyph glyph-name="emacron" unicode="&#x113;" horiz-adv-x="297" 
d="M265 291c0 -74 -51 -162 -148 -191c14 -34 41 -62 93 -62c78 0 110 65 122 126c9 45 65 25 61 -10c-7 -61 -47 -182 -194 -182c-91 0 -177 73 -177 198c0 127 76 222 153 222c56 0 90 -41 90 -101zM104 173c0 -6 1 -12 1 -18c50 23 82 75 82 135c0 22 -8 35 -21 35
c-49 0 -64 -110 -62 -152zM96 534h172c17 2 22 -9 22 -26c0 -19 -10 -41 -26 -41c-1 0 -3 0 -5 1h-173c-18 0 -26 9 -26 23c0 27 13 43 36 43z" />
    <glyph glyph-name="Ebreve" unicode="&#x114;" horiz-adv-x="446" 
d="M423 72c-17 -29 -80 -115 -208 -115c-96 0 -176 60 -176 164c0 73 43 126 91 151c-44 27 -87 76 -87 163c0 133 120 282 266 282c92 0 142 -59 142 -132c0 -104 -86 -207 -185 -207c-25 0 -55 12 -55 48c0 14 4 36 11 36s9 -10 38 -10c66 0 112 70 112 134
c0 36 -26 54 -63 54c-100 0 -186 -104 -186 -200c0 -75 57 -130 101 -134c3 1 6 1 9 1c12 0 17 -11 17 -24c0 -22 -12 -51 -24 -52c-42 -5 -107 -29 -107 -108c0 -51 42 -87 98 -87c84 0 134 54 147 82c5 12 13 17 21 17c20 0 41 -26 41 -49c0 -5 -1 -10 -3 -14zM290 767
c-49 0 -122 25 -122 119c0 11 18 23 45 23c11 0 19 -5 22 -10c2 -29 5 -71 54 -71c48 0 47 40 47 63c2 8 10 18 25 18c18 0 42 -16 42 -30c0 -98 -79 -112 -113 -112z" />
    <glyph glyph-name="ebreve" unicode="&#x115;" horiz-adv-x="297" 
d="M265 291c0 -74 -51 -162 -148 -191c14 -34 41 -62 93 -62c78 0 110 65 122 126c9 45 65 25 61 -10c-7 -61 -47 -182 -194 -182c-91 0 -177 73 -177 198c0 127 76 222 153 222c56 0 90 -41 90 -101zM104 173c0 -6 1 -12 1 -18c50 23 82 75 82 135c0 22 -8 35 -21 35
c-49 0 -64 -110 -62 -152zM176 452c-49 0 -122 25 -122 119c0 11 18 23 45 23c11 0 19 -5 22 -10c2 -29 5 -71 54 -71c48 0 47 40 47 63c2 8 10 18 25 18c18 0 42 -16 42 -30c0 -98 -79 -112 -113 -112z" />
    <glyph glyph-name="Edotaccent" unicode="&#x116;" horiz-adv-x="446" 
d="M423 72c-17 -29 -80 -115 -208 -115c-96 0 -176 60 -176 164c0 73 43 126 91 151c-44 27 -87 76 -87 163c0 133 120 282 266 282c92 0 142 -59 142 -132c0 -104 -86 -207 -185 -207c-25 0 -55 12 -55 48c0 14 4 36 11 36s9 -10 38 -10c66 0 112 70 112 134
c0 36 -26 54 -63 54c-100 0 -186 -104 -186 -200c0 -75 57 -130 101 -134c3 1 6 1 9 1c12 0 17 -11 17 -24c0 -22 -12 -51 -24 -52c-42 -5 -107 -29 -107 -108c0 -51 42 -87 98 -87c84 0 134 54 147 82c5 12 13 17 21 17c20 0 41 -26 41 -49c0 -5 -1 -10 -3 -14zM239 817
c0 28 22 50 50 50s50 -22 50 -50s-22 -50 -50 -50s-50 22 -50 50z" />
    <glyph glyph-name="edotaccent" unicode="&#x117;" horiz-adv-x="297" 
d="M265 291c0 -74 -51 -162 -148 -191c14 -34 41 -62 93 -62c78 0 110 65 122 126c9 45 65 25 61 -10c-7 -61 -47 -182 -194 -182c-91 0 -177 73 -177 198c0 127 76 222 153 222c56 0 90 -41 90 -101zM104 173c0 -6 1 -12 1 -18c50 23 82 75 82 135c0 22 -8 35 -21 35
c-49 0 -64 -110 -62 -152zM125 502c0 28 22 50 50 50s50 -22 50 -50s-22 -50 -50 -50s-50 22 -50 50z" />
    <glyph glyph-name="Eogonek" unicode="&#x118;" horiz-adv-x="446" 
d="M423 72c-16 -26 -50 -64 -100 -91c-37 -20 -84 -56 -84 -91c0 -19 11 -36 46 -36c15 0 45 2 59 9c9 5 14 -15 14 -24c0 -30 -21 -43 -78 -43c-80 0 -108 49 -108 85c0 28 13 51 36 76c-95 3 -169 65 -169 164c0 73 43 126 91 151c-44 27 -87 76 -87 163
c0 133 120 282 266 282c92 0 142 -59 142 -132c0 -104 -86 -207 -185 -207c-25 0 -55 12 -55 48c0 14 4 36 11 36s9 -10 38 -10c66 0 112 70 112 134c0 36 -26 54 -63 54c-100 0 -186 -104 -186 -200c0 -75 57 -130 101 -134c3 1 6 1 9 1c12 0 17 -11 17 -24
c0 -22 -12 -51 -24 -52c-42 -5 -107 -29 -107 -108c0 -51 42 -87 98 -87c84 0 134 54 147 82c5 12 13 17 21 17c20 0 41 -26 41 -49c0 -5 -1 -10 -3 -14z" />
    <glyph glyph-name="eogonek" unicode="&#x119;" horiz-adv-x="297" 
d="M265 291c0 -74 -51 -162 -148 -191c14 -34 41 -62 93 -62c78 0 110 65 122 126c9 45 65 25 61 -10c-10 -79 -48 -143 -127 -172c-40 -15 -90 -57 -90 -94c0 -19 11 -36 46 -36c15 0 45 2 59 9c9 5 14 -15 14 -24c0 -30 -21 -43 -78 -43c-80 0 -108 49 -108 85
c0 37 19 68 57 96c-81 17 -144 89 -144 195c0 127 76 222 153 222c56 0 90 -41 90 -101zM104 173c0 -6 1 -12 1 -18c50 23 82 75 82 135c0 22 -8 35 -21 35c-49 0 -64 -110 -62 -152z" />
    <glyph glyph-name="Ecaron" unicode="&#x11a;" horiz-adv-x="446" 
d="M423 72c-17 -29 -80 -115 -208 -115c-96 0 -176 60 -176 164c0 73 43 126 91 151c-44 27 -87 76 -87 163c0 133 120 282 266 282c92 0 142 -59 142 -132c0 -104 -86 -207 -185 -207c-25 0 -55 12 -55 48c0 14 4 36 11 36s9 -10 38 -10c66 0 112 70 112 134
c0 36 -26 54 -63 54c-100 0 -186 -104 -186 -200c0 -75 57 -130 101 -134c3 1 6 1 9 1c12 0 17 -11 17 -24c0 -22 -12 -51 -24 -52c-42 -5 -107 -29 -107 -108c0 -51 42 -87 98 -87c84 0 134 54 147 82c5 12 13 17 21 17c20 0 41 -26 41 -49c0 -5 -1 -10 -3 -14zM247 785
l-66 96c-4 5 -8 10 -8 15c0 11 18 23 45 23c11 0 19 -5 22 -10l49 -76l43 69c2 8 9 17 24 17c18 0 42 -16 42 -30c0 -4 -6 -12 -7 -13l-64 -92c-6 -18 -15 -27 -32 -27c-27 0 -32 7 -48 28z" />
    <glyph glyph-name="ecaron" unicode="&#x11b;" horiz-adv-x="297" 
d="M265 291c0 -74 -51 -162 -148 -191c14 -34 41 -62 93 -62c78 0 110 65 122 126c9 45 65 25 61 -10c-7 -61 -47 -182 -194 -182c-91 0 -177 73 -177 198c0 127 76 222 153 222c56 0 90 -41 90 -101zM104 173c0 -6 1 -12 1 -18c50 23 82 75 82 135c0 22 -8 35 -21 35
c-49 0 -64 -110 -62 -152zM133 470l-66 96c-4 5 -8 10 -8 15c0 11 18 23 45 23c11 0 19 -5 22 -10l49 -76l43 69c2 8 9 17 24 17c18 0 42 -16 42 -30c0 -4 -6 -12 -7 -13l-64 -92c-6 -18 -15 -27 -32 -27c-27 0 -32 7 -48 28z" />
    <glyph glyph-name="Gcircumflex" unicode="&#x11c;" horiz-adv-x="513" 
d="M383 58c-42 -62 -94 -98 -155 -98c-124 0 -194 124 -194 311c0 199 127 443 326 443c72 0 127 -47 127 -124c0 -109 -121 -202 -208 -202c-24 0 -44 15 -44 48c0 14 4 36 11 36s9 -10 38 -10c51 0 124 59 124 123c0 23 -15 56 -61 56c-125 0 -230 -194 -230 -369
c0 -144 49 -234 113 -234c102 0 154 138 154 220c0 10 -2 26 -2 33c0 19 15 20 32 20c18 0 52 -16 52 -38c-5 -54 -6 -101 -6 -151c0 -47 1 -96 1 -157c19 3 37 4 53 5c47 3 22 -78 -13 -79c-15 0 -28 -1 -42 -2c-5 -112 -29 -243 -146 -243c-68 0 -112 51 -112 118
c0 102 91 156 184 184v10c0 43 -2 76 -2 100zM315 -277c45 0 62 71 67 151c-66 -21 -103 -58 -103 -108c0 -30 16 -43 36 -43zM386 889l66 -96c4 -5 8 -10 8 -15c0 -11 -18 -23 -45 -23c-11 0 -19 5 -22 10l-49 76l-43 -69c-5 -9 -9 -17 -24 -17c-18 0 -43 17 -43 31
c0 2 1 3 2 4l70 100c12 18 29 27 46 27c24 0 26 -9 34 -28z" />
    <glyph glyph-name="gcircumflex" unicode="&#x11d;" horiz-adv-x="352" 
d="M95 -297c0 101 58 152 124 210v105c-20 -20 -47 -36 -82 -36c-78 0 -119 66 -119 151c0 167 116 269 238 269c27 0 46 -16 46 -42c0 -17 -3 -23 -13 -23c-9 0 -19 2 -29 2c-76 0 -165 -65 -165 -209c0 -52 22 -82 57 -82c40 0 60 53 67 93v113c0 19 -4 25 -4 32
c0 10 12 17 26 17c33 0 54 -20 54 -44v-272c36 40 68 90 88 159c6 21 14 30 24 30c16 0 35 -22 35 -41c0 -1 0 -6 -1 -10c-34 -116 -92 -175 -146 -222v-173c0 -105 -53 -142 -104 -142c-56 0 -96 51 -96 115zM191 -349c32 0 28 60 28 79v107c-32 -33 -54 -71 -54 -131
c0 -31 10 -55 26 -55zM261 588l66 -96c4 -5 8 -10 8 -15c0 -11 -18 -23 -45 -23c-11 0 -19 5 -22 10l-49 76l-43 -69c-5 -9 -9 -17 -24 -17c-18 0 -43 17 -43 31c0 2 1 3 2 4l70 100c12 18 29 27 46 27c24 0 26 -9 34 -28z" />
    <glyph glyph-name="Gbreve" unicode="&#x11e;" horiz-adv-x="513" 
d="M383 58c-42 -62 -94 -98 -155 -98c-124 0 -194 124 -194 311c0 199 127 443 326 443c72 0 127 -47 127 -124c0 -109 -121 -202 -208 -202c-24 0 -44 15 -44 48c0 14 4 36 11 36s9 -10 38 -10c51 0 124 59 124 123c0 23 -15 56 -61 56c-125 0 -230 -194 -230 -369
c0 -144 49 -234 113 -234c102 0 154 138 154 220c0 10 -2 26 -2 33c0 19 15 20 32 20c18 0 52 -16 52 -38c-5 -54 -6 -101 -6 -151c0 -47 1 -96 1 -157c19 3 37 4 53 5c47 3 22 -78 -13 -79c-15 0 -28 -1 -42 -2c-5 -112 -29 -243 -146 -243c-68 0 -112 51 -112 118
c0 102 91 156 184 184v10c0 43 -2 76 -2 100zM315 -277c45 0 62 71 67 151c-66 -21 -103 -58 -103 -108c0 -30 16 -43 36 -43zM348 765c-49 0 -122 25 -122 119c0 11 18 23 45 23c11 0 19 -5 22 -10c2 -29 5 -71 54 -71c48 0 47 40 47 63c2 8 10 18 25 18
c18 0 42 -16 42 -30c0 -98 -79 -112 -113 -112z" />
    <glyph glyph-name="gbreve" unicode="&#x11f;" horiz-adv-x="352" 
d="M95 -297c0 101 58 152 124 210v105c-20 -20 -47 -36 -82 -36c-78 0 -119 66 -119 151c0 167 116 269 238 269c27 0 46 -16 46 -42c0 -17 -3 -23 -13 -23c-9 0 -19 2 -29 2c-76 0 -165 -65 -165 -209c0 -52 22 -82 57 -82c40 0 60 53 67 93v113c0 19 -4 25 -4 32
c0 10 12 17 26 17c33 0 54 -20 54 -44v-272c36 40 68 90 88 159c6 21 14 30 24 30c16 0 35 -22 35 -41c0 -1 0 -6 -1 -10c-34 -116 -92 -175 -146 -222v-173c0 -105 -53 -142 -104 -142c-56 0 -96 51 -96 115zM191 -349c32 0 28 60 28 79v107c-32 -33 -54 -71 -54 -131
c0 -31 10 -55 26 -55zM223 464c-49 0 -122 25 -122 119c0 11 18 23 45 23c11 0 19 -5 22 -10c2 -29 5 -71 54 -71c48 0 47 40 47 63c2 8 10 18 25 18c18 0 42 -16 42 -30c0 -98 -79 -112 -113 -112z" />
    <glyph glyph-name="Gdotaccent" unicode="&#x120;" horiz-adv-x="513" 
d="M383 58c-42 -62 -94 -98 -155 -98c-124 0 -194 124 -194 311c0 199 127 443 326 443c72 0 127 -47 127 -124c0 -109 -121 -202 -208 -202c-24 0 -44 15 -44 48c0 14 4 36 11 36s9 -10 38 -10c51 0 124 59 124 123c0 23 -15 56 -61 56c-125 0 -230 -194 -230 -369
c0 -144 49 -234 113 -234c102 0 154 138 154 220c0 10 -2 26 -2 33c0 19 15 20 32 20c18 0 52 -16 52 -38c-5 -54 -6 -101 -6 -151c0 -47 1 -96 1 -157c19 3 37 4 53 5c47 3 22 -78 -13 -79c-15 0 -28 -1 -42 -2c-5 -112 -29 -243 -146 -243c-68 0 -112 51 -112 118
c0 102 91 156 184 184v10c0 43 -2 76 -2 100zM315 -277c45 0 62 71 67 151c-66 -21 -103 -58 -103 -108c0 -30 16 -43 36 -43zM297 815c0 28 22 50 50 50s50 -22 50 -50s-22 -50 -50 -50s-50 22 -50 50z" />
    <glyph glyph-name="gdotaccent" unicode="&#x121;" horiz-adv-x="352" 
d="M95 -297c0 101 58 152 124 210v105c-20 -20 -47 -36 -82 -36c-78 0 -119 66 -119 151c0 167 116 269 238 269c27 0 46 -16 46 -42c0 -17 -3 -23 -13 -23c-9 0 -19 2 -29 2c-76 0 -165 -65 -165 -209c0 -52 22 -82 57 -82c40 0 60 53 67 93v113c0 19 -4 25 -4 32
c0 10 12 17 26 17c33 0 54 -20 54 -44v-272c36 40 68 90 88 159c6 21 14 30 24 30c16 0 35 -22 35 -41c0 -1 0 -6 -1 -10c-34 -116 -92 -175 -146 -222v-173c0 -105 -53 -142 -104 -142c-56 0 -96 51 -96 115zM191 -349c32 0 28 60 28 79v107c-32 -33 -54 -71 -54 -131
c0 -31 10 -55 26 -55zM172 514c0 28 22 50 50 50s50 -22 50 -50s-22 -50 -50 -50s-50 22 -50 50z" />
    <glyph glyph-name="Gcommaaccent" unicode="&#x122;" horiz-adv-x="513" 
d="M253 -338c-46 30 34 97 45 65c5 -3 11 -4 17 -4c61 0 70 130 70 235c0 43 -2 76 -2 100c-42 -62 -94 -98 -155 -98c-124 0 -194 124 -194 311c0 199 127 443 326 443c72 0 127 -47 127 -124c0 -109 -121 -202 -208 -202c-24 0 -44 15 -44 48c0 14 4 36 11 36
s9 -10 38 -10c51 0 124 59 124 123c0 23 -15 56 -61 56c-125 0 -230 -194 -230 -369c0 -144 49 -234 113 -234c102 0 154 138 154 220c0 10 -2 26 -2 33c0 19 15 20 32 20c18 0 52 -16 52 -38c-5 -54 -6 -101 -6 -151s1 -103 1 -171c0 -117 -8 -305 -148 -305
c-23 0 -43 5 -60 16zM233 -81c24 0 46 -17 46 -54c0 -38 -45 -101 -68 -101c-16 0 -27 17 -27 28c0 5 3 5 6 7c7 2 19 14 31 32c-19 4 -34 20 -34 44c0 28 23 44 46 44z" />
    <glyph glyph-name="gcommaaccent" unicode="&#x123;" horiz-adv-x="352" 
d="M95 -297c0 101 58 152 124 210v105c-20 -20 -47 -36 -82 -36c-78 0 -119 66 -119 151c0 167 116 269 238 269c27 0 46 -16 46 -42c0 -17 -3 -23 -13 -23c-9 0 -19 2 -29 2c-76 0 -165 -65 -165 -209c0 -52 22 -82 57 -82c40 0 60 53 67 93v113c0 19 -4 25 -4 32
c0 10 12 17 26 17c33 0 54 -20 54 -44v-272c36 40 68 90 88 159c6 21 14 30 24 30c16 0 35 -22 35 -41c0 -1 0 -6 -1 -10c-34 -116 -92 -175 -146 -222v-173c0 -105 -53 -142 -104 -142c-56 0 -96 51 -96 115zM227 452c-24 0 -46 17 -46 54c0 38 45 101 68 101
c16 0 27 -17 27 -28c0 -5 -3 -5 -6 -7c-7 -2 -19 -14 -31 -32c19 -4 34 -20 34 -44c0 -28 -23 -44 -46 -44zM191 -349c32 0 28 60 28 79v107c-32 -33 -54 -71 -54 -131c0 -31 10 -55 26 -55z" />
    <glyph glyph-name="Hcircumflex" unicode="&#x124;" horiz-adv-x="678" 
d="M387 658v-356h156v341c0 71 24 107 52 107c29 0 53 -39 53 -53c0 -15 -27 9 -27 -75v-627c0 -17 -13 -23 -28 -23c-23 0 -50 14 -50 29v231h-156v-237c0 -17 -13 -23 -28 -23c-23 0 -50 14 -50 29v231h-71c-21 0 -36 29 -36 50c0 11 5 20 15 20h92v323
c-123 0 -212 -85 -212 -219c0 -84 40 -138 53 -138c6 0 7 5 12 5s6 -9 6 -16c0 -42 -37 -78 -66 -57c-35 25 -84 93 -84 203c0 212 177 297 329 297c21 0 40 -18 40 -42zM479 877l66 -96c4 -5 8 -10 8 -15c0 -11 -18 -23 -45 -23c-11 0 -19 5 -22 10l-49 76l-43 -69
c-5 -9 -9 -17 -24 -17c-18 0 -43 17 -43 31c0 2 1 3 2 4l70 100c12 18 29 27 46 27c24 0 26 -9 34 -28z" />
    <glyph glyph-name="hcircumflex" unicode="&#x125;" horiz-adv-x="368" 
d="M35 16v600c0 29 -10 31 -10 38s18 11 32 11c33 0 54 -20 54 -44v-328c27 56 63 99 112 99c67 0 83 -55 83 -101v-207c0 -9 0 -46 26 -46c40 0 58 64 67 108c12 61 66 14 58 -18c-18 -66 -57 -156 -143 -156c-53 0 -84 43 -84 94v203c0 31 -2 57 -21 57
c-29 0 -91 -86 -98 -165v-146c0 -19 1 -43 -28 -43c-20 0 -48 7 -48 44zM110 840l66 -96c4 -5 8 -10 8 -15c0 -11 -18 -23 -45 -23c-11 0 -19 5 -22 10l-49 76l-43 -69c-5 -9 -9 -17 -24 -17c-18 0 -43 17 -43 31c0 2 1 3 2 4l70 100c12 18 29 27 46 27c24 0 26 -9 34 -28z
" />
    <glyph glyph-name="Hbar" unicode="&#x126;" horiz-adv-x="678" 
d="M621 622v-137h40c17 2 22 -9 22 -26c0 -19 -10 -41 -26 -41c-1 0 -3 0 -5 1h-31v-424c0 -17 -13 -23 -28 -23c-23 0 -50 14 -50 29v231h-156v-237c0 -17 -13 -23 -28 -23c-23 0 -50 14 -50 29v418h-55c-18 0 -26 9 -26 23c0 27 13 43 36 43h45v140
c-123 0 -212 -85 -212 -219c0 -84 40 -138 53 -138c6 0 7 5 12 5s6 -9 6 -16c0 -42 -37 -78 -66 -57c-35 25 -84 93 -84 203c0 212 177 297 329 297c21 0 40 -18 40 -42v-173h156v158c0 71 24 107 52 107c29 0 53 -39 53 -53c0 -15 -27 9 -27 -75zM387 419v-117h156v117
h-156z" />
    <glyph glyph-name="hbar" unicode="&#x127;" horiz-adv-x="368" 
d="M35 16v443h-31c-18 0 -26 9 -26 23c0 27 13 43 36 43h21v91c0 29 -10 31 -10 38s18 11 32 11c33 0 54 -20 54 -44v-96h85c17 2 22 -9 22 -26c0 -19 -10 -41 -26 -41c-1 0 -3 0 -5 1h-76v-166c27 56 63 99 112 99c67 0 83 -55 83 -101v-207c0 -9 0 -46 26 -46
c40 0 58 64 67 108c12 61 66 14 58 -18c-18 -66 -57 -156 -143 -156c-53 0 -84 43 -84 94v203c0 31 -2 57 -21 57c-29 0 -91 -86 -98 -165v-146c0 -19 1 -43 -28 -43c-20 0 -48 7 -48 44z" />
    <glyph glyph-name="Igrave" unicode="&#xcc;" horiz-adv-x="396" 
d="M339 658v-663c0 -17 -13 -23 -28 -23c-23 0 -50 14 -50 29v621c-90 -11 -164 -78 -164 -204c0 -80 40 -131 53 -131c5 0 6 7 11 7s7 -8 7 -15c0 -42 -37 -81 -66 -60c-35 24 -84 98 -84 199c0 212 163 282 281 282c21 0 40 -18 40 -42zM278 750l-94 103c-5 6 -8 12 -8 17
c0 19 28 32 41 32c14 0 22 -9 29 -19l91 -105c4 -5 8 -10 8 -15c0 -11 -18 -23 -45 -23c-11 0 -19 5 -22 10z" />
    <glyph glyph-name="igrave" unicode="&#xec;" horiz-adv-x="173" 
d="M111 338v-254c0 -9 0 -46 26 -46c40 0 58 64 67 108c12 61 66 14 58 -18c-18 -66 -57 -156 -143 -156c-53 0 -84 43 -84 94v267c0 19 -4 25 -4 32c0 10 12 17 26 17c33 0 54 -20 54 -44zM73 447l-94 103c-5 6 -8 12 -8 17c0 19 28 32 41 32c14 0 22 -9 29 -19l91 -105
c4 -5 8 -10 8 -15c0 -11 -18 -23 -45 -23c-11 0 -19 5 -22 10z" />
    <glyph glyph-name="Iacute" unicode="&#xcd;" horiz-adv-x="396" 
d="M339 658v-663c0 -17 -13 -23 -28 -23c-23 0 -50 14 -50 29v621c-90 -11 -164 -78 -164 -204c0 -80 40 -131 53 -131c5 0 6 7 11 7s7 -8 7 -15c0 -42 -37 -81 -66 -60c-35 24 -84 98 -84 199c0 212 163 282 281 282c21 0 40 -18 40 -42zM368 853l-89 -95
c-8 -13 -22 -18 -33 -18c-27 0 -39 12 -39 23c0 5 4 10 8 15l91 105c2 11 19 19 33 19c19 0 41 -12 41 -29c0 -9 -7 -14 -12 -20z" />
    <glyph glyph-name="iacute" unicode="&#xed;" horiz-adv-x="173" 
d="M111 338v-254c0 -9 0 -46 26 -46c40 0 58 64 67 108c12 61 66 14 58 -18c-18 -66 -57 -156 -143 -156c-53 0 -84 43 -84 94v267c0 19 -4 25 -4 32c0 10 12 17 26 17c33 0 54 -20 54 -44zM163 550l-89 -95c-8 -13 -22 -18 -33 -18c-27 0 -39 12 -39 23c0 5 4 10 8 15
l91 105c2 11 19 19 33 19c19 0 41 -12 41 -29c0 -9 -7 -14 -12 -20z" />
    <glyph glyph-name="Icircumflex" unicode="&#xce;" horiz-adv-x="396" 
d="M339 658v-663c0 -17 -13 -23 -28 -23c-23 0 -50 14 -50 29v621c-90 -11 -164 -78 -164 -204c0 -80 40 -131 53 -131c5 0 6 7 11 7s7 -8 7 -15c0 -42 -37 -81 -66 -60c-35 24 -84 98 -84 199c0 212 163 282 281 282c21 0 40 -18 40 -42zM317 874l66 -96c4 -5 8 -10 8 -15
c0 -11 -18 -23 -45 -23c-11 0 -19 5 -22 10l-49 76l-43 -69c-5 -9 -9 -17 -24 -17c-18 0 -43 17 -43 31c0 2 1 3 2 4l70 100c12 18 29 27 46 27c24 0 26 -9 34 -28z" />
    <glyph glyph-name="icircumflex" unicode="&#xee;" horiz-adv-x="173" 
d="M111 338v-254c0 -9 0 -46 26 -46c40 0 58 64 67 108c12 61 66 14 58 -18c-18 -66 -57 -156 -143 -156c-53 0 -84 43 -84 94v267c0 19 -4 25 -4 32c0 10 12 17 26 17c33 0 54 -20 54 -44zM112 571l66 -96c4 -5 8 -10 8 -15c0 -11 -18 -23 -45 -23c-11 0 -19 5 -22 10
l-49 76l-43 -69c-5 -9 -9 -17 -24 -17c-18 0 -43 17 -43 31c0 2 1 3 2 4l70 100c12 18 29 27 46 27c24 0 26 -9 34 -28z" />
    <glyph glyph-name="Idieresis" unicode="&#xcf;" horiz-adv-x="396" 
d="M339 658v-663c0 -17 -13 -23 -28 -23c-23 0 -50 14 -50 29v621c-90 -11 -164 -78 -164 -204c0 -80 40 -131 53 -131c5 0 6 7 11 7s7 -8 7 -15c0 -42 -37 -81 -66 -60c-35 24 -84 98 -84 199c0 212 163 282 281 282c21 0 40 -18 40 -42zM159 807c0 26 21 47 47 47
s47 -21 47 -47s-21 -47 -47 -47s-47 21 -47 47zM303 807c0 26 21 47 47 47s47 -21 47 -47s-21 -47 -47 -47s-47 21 -47 47z" />
    <glyph glyph-name="idieresis" unicode="&#xef;" horiz-adv-x="173" 
d="M111 338v-254c0 -9 0 -46 26 -46c40 0 58 64 67 108c12 61 66 14 58 -18c-18 -66 -57 -156 -143 -156c-53 0 -84 43 -84 94v267c0 19 -4 25 -4 32c0 10 12 17 26 17c33 0 54 -20 54 -44zM-46 504c0 26 21 47 47 47s47 -21 47 -47s-21 -47 -47 -47s-47 21 -47 47zM98 504
c0 26 21 47 47 47s47 -21 47 -47s-21 -47 -47 -47s-47 21 -47 47z" />
    <glyph glyph-name="Itilde" unicode="&#x128;" horiz-adv-x="396" 
d="M339 658v-663c0 -17 -13 -23 -28 -23c-23 0 -50 14 -50 29v621c-90 -11 -164 -78 -164 -204c0 -80 40 -131 53 -131c5 0 6 7 11 7s7 -8 7 -15c0 -42 -37 -81 -66 -60c-35 24 -84 98 -84 199c0 212 163 282 281 282c21 0 40 -18 40 -42zM212 773c0 -9 -13 -13 -23 -13
c-17 0 -36 9 -36 20c0 39 31 91 76 91c54 0 69 -53 100 -53c13 0 20 12 20 31c0 15 16 20 27 20c16 0 34 -9 34 -18c0 -64 -45 -96 -79 -96c-53 0 -78 55 -93 55c-19 0 -23 -20 -26 -37z" />
    <glyph glyph-name="itilde" unicode="&#x129;" horiz-adv-x="173" 
d="M111 338v-254c0 -9 0 -46 26 -46c40 0 58 64 67 108c12 61 66 14 58 -18c-18 -66 -57 -156 -143 -156c-53 0 -84 43 -84 94v267c0 19 -4 25 -4 32c0 10 12 17 26 17c33 0 54 -20 54 -44zM7 470c0 -9 -13 -13 -23 -13c-17 0 -36 9 -36 20c0 39 31 91 76 91
c54 0 69 -53 100 -53c13 0 20 12 20 31c0 15 16 20 27 20c16 0 34 -9 34 -18c0 -64 -45 -96 -79 -96c-53 0 -78 55 -93 55c-19 0 -23 -20 -26 -37z" />
    <glyph glyph-name="Imacron" unicode="&#x12a;" horiz-adv-x="396" 
d="M339 658v-663c0 -17 -13 -23 -28 -23c-23 0 -50 14 -50 29v621c-90 -11 -164 -78 -164 -204c0 -80 40 -131 53 -131c5 0 6 7 11 7s7 -8 7 -15c0 -42 -37 -81 -66 -60c-35 24 -84 98 -84 199c0 212 163 282 281 282c21 0 40 -18 40 -42zM199 832h172c17 2 22 -9 22 -26
c0 -19 -10 -41 -26 -41c-1 0 -3 0 -5 1h-173c-18 0 -26 9 -26 23c0 27 13 43 36 43z" />
    <glyph glyph-name="imacron" unicode="&#x12b;" horiz-adv-x="173" 
d="M111 338v-254c0 -9 0 -46 26 -46c40 0 58 64 67 108c12 61 66 14 58 -18c-18 -66 -57 -156 -143 -156c-53 0 -84 43 -84 94v267c0 19 -4 25 -4 32c0 10 12 17 26 17c33 0 54 -20 54 -44zM-6 529h172c17 2 22 -9 22 -26c0 -19 -10 -41 -26 -41c-1 0 -3 0 -5 1h-173
c-18 0 -26 9 -26 23c0 27 13 43 36 43z" />
    <glyph glyph-name="Ibreve" unicode="&#x12c;" horiz-adv-x="396" 
d="M339 658v-663c0 -17 -13 -23 -28 -23c-23 0 -50 14 -50 29v621c-90 -11 -164 -78 -164 -204c0 -80 40 -131 53 -131c5 0 6 7 11 7s7 -8 7 -15c0 -42 -37 -81 -66 -60c-35 24 -84 98 -84 199c0 212 163 282 281 282c21 0 40 -18 40 -42zM279 750c-49 0 -122 25 -122 119
c0 11 18 23 45 23c11 0 19 -5 22 -10c2 -29 5 -71 54 -71c48 0 47 40 47 63c2 8 10 18 25 18c18 0 42 -16 42 -30c0 -98 -79 -112 -113 -112z" />
    <glyph glyph-name="ibreve" unicode="&#x12d;" horiz-adv-x="173" 
d="M111 338v-254c0 -9 0 -46 26 -46c40 0 58 64 67 108c12 61 66 14 58 -18c-18 -66 -57 -156 -143 -156c-53 0 -84 43 -84 94v267c0 19 -4 25 -4 32c0 10 12 17 26 17c33 0 54 -20 54 -44zM74 447c-49 0 -122 25 -122 119c0 11 18 23 45 23c11 0 19 -5 22 -10
c2 -29 5 -71 54 -71c48 0 47 40 47 63c2 8 10 18 25 18c18 0 42 -16 42 -30c0 -98 -79 -112 -113 -112z" />
    <glyph glyph-name="Iogonek" unicode="&#x12e;" horiz-adv-x="396" 
d="M339 658v-659c0 -12 -3 -22 -16 -27c-39 -14 -72 -51 -72 -92c0 -19 11 -36 46 -36c15 0 45 2 59 9c9 5 14 -15 14 -24c0 -30 -21 -43 -78 -43c-80 0 -108 49 -108 85c0 51 39 98 78 124c-1 2 -1 4 -1 6v621c-90 -11 -164 -78 -164 -204c0 -80 40 -131 53 -131
c5 0 6 7 11 7s7 -8 7 -15c0 -42 -37 -81 -66 -60c-35 24 -84 98 -84 199c0 212 163 282 281 282c21 0 40 -18 40 -42z" />
    <glyph glyph-name="iogonek" unicode="&#x12f;" horiz-adv-x="173" 
d="M111 338v-254c0 -9 0 -46 26 -46c40 0 58 64 67 108c12 61 66 14 58 -18c-16 -60 -48 -130 -115 -156c-37 -14 -72 -49 -72 -80c0 -19 11 -36 46 -36c15 0 45 2 59 9c9 5 14 -15 14 -24c0 -30 -21 -43 -78 -43c-80 0 -108 49 -108 85c0 42 24 77 61 105
c-23 19 -34 48 -34 78v267c0 19 -4 25 -4 32c0 10 12 17 26 17c33 0 54 -20 54 -44zM88 481c-33 0 -60 28 -60 61c0 35 27 61 60 61c35 0 61 -26 61 -61c0 -33 -26 -61 -61 -61z" />
    <glyph glyph-name="Idotaccent" unicode="&#x130;" horiz-adv-x="396" 
d="M339 658v-663c0 -17 -13 -23 -28 -23c-23 0 -50 14 -50 29v621c-90 -11 -164 -78 -164 -204c0 -80 40 -131 53 -131c5 0 6 7 11 7s7 -8 7 -15c0 -42 -37 -81 -66 -60c-35 24 -84 98 -84 199c0 212 163 282 281 282c21 0 40 -18 40 -42zM228 800c0 28 22 50 50 50
s50 -22 50 -50s-22 -50 -50 -50s-50 22 -50 50z" />
    <glyph glyph-name="dotlessi" unicode="&#x131;" horiz-adv-x="173" 
d="M111 338v-254c0 -9 0 -46 26 -46c40 0 58 64 67 108c12 61 66 14 58 -18c-18 -66 -57 -156 -143 -156c-53 0 -84 43 -84 94v267c0 19 -4 25 -4 32c0 10 12 17 26 17c33 0 54 -20 54 -44z" />
    <glyph glyph-name="IJ" unicode="&#x132;" horiz-adv-x="798" 
d="M339 658v-663c0 -17 -13 -23 -28 -23c-23 0 -50 14 -50 29v621c-90 -11 -164 -78 -164 -204c0 -80 40 -131 53 -131c5 0 6 7 11 7s7 -8 7 -15c0 -42 -37 -81 -66 -60c-35 24 -84 98 -84 199c0 212 163 282 281 282c21 0 40 -18 40 -42zM658 -42v664
c-90 -11 -164 -78 -164 -204c0 -80 40 -131 53 -131c5 0 6 7 11 7s7 -8 7 -15c0 -34 -24 -66 -49 -66c-6 0 -12 2 -17 6c-25 16 -84 82 -84 199c0 212 163 282 281 282c21 0 40 -18 40 -42v-663v-30c19 3 37 4 53 5c47 3 22 -78 -13 -79c-15 0 -28 -1 -41 -2
c-6 -115 -31 -243 -147 -243c-68 0 -112 51 -112 118c0 101 90 156 182 183v11zM590 -277c45 0 61 71 66 150c-66 -20 -102 -57 -102 -107c0 -30 16 -43 36 -43z" />
    <glyph glyph-name="ij" unicode="&#x133;" horiz-adv-x="341" 
d="M372 146c6 21 14 30 24 30c16 0 35 -22 35 -41c0 -1 0 -6 -1 -10c-34 -116 -92 -175 -146 -222v-173c0 -105 -53 -142 -104 -142c-56 0 -96 51 -96 115c0 101 58 152 124 210v102c-22 -25 -51 -43 -89 -43c-53 0 -84 43 -84 94v267c0 19 -4 25 -4 32c0 10 12 17 26 17
c33 0 54 -20 54 -44v-254c0 -9 0 -46 26 -46c53 0 71 110 71 131v164c0 19 -4 25 -4 32c0 10 12 17 26 17c33 0 54 -20 54 -44v-351c36 40 68 90 88 159zM185 542c0 35 27 61 61 61c33 0 61 -26 61 -61c0 -33 -28 -61 -61 -61c-34 0 -61 28 -61 61zM88 481
c-33 0 -60 28 -60 61c0 35 27 61 60 61c35 0 61 -26 61 -61c0 -33 -26 -61 -61 -61zM180 -349c32 0 28 60 28 79v107c-32 -33 -54 -71 -54 -131c0 -31 10 -55 26 -55z" />
    <glyph glyph-name="Jcircumflex" unicode="&#x134;" horiz-adv-x="401" 
d="M261 -42v664c-90 -11 -164 -78 -164 -204c0 -80 40 -131 53 -131c5 0 6 7 11 7s7 -8 7 -15c0 -34 -24 -66 -49 -66c-6 0 -12 2 -17 6c-25 16 -84 82 -84 199c0 212 163 282 281 282c21 0 40 -18 40 -42v-663v-30c19 3 37 4 53 5c47 3 22 -78 -13 -79c-15 0 -28 -1 -41 -2
c-6 -115 -31 -243 -147 -243c-68 0 -112 51 -112 118c0 101 90 156 182 183v11zM193 -277c45 0 61 71 66 150c-66 -20 -102 -57 -102 -107c0 -30 16 -43 36 -43zM318 874l66 -96c4 -5 8 -10 8 -15c0 -11 -18 -23 -45 -23c-11 0 -19 5 -22 10l-49 76l-43 -69
c-5 -9 -9 -17 -24 -17c-18 0 -43 17 -43 31c0 2 1 3 2 4l70 100c12 18 29 27 46 27c24 0 26 -9 34 -28z" />
    <glyph glyph-name="jcircumflex" unicode="&#x135;" horiz-adv-x="168" 
d="M199 146c6 21 14 30 24 30c16 0 35 -22 35 -41c0 -1 0 -6 -1 -10c-34 -116 -92 -175 -146 -222v-173c0 -105 -53 -142 -104 -142c-56 0 -96 51 -96 115c0 101 58 152 124 210v420c0 19 -4 25 -4 32c0 10 12 17 26 17c33 0 54 -20 54 -44v-351c36 40 68 90 88 159zM7 -349
c32 0 28 60 28 79v107c-32 -33 -54 -71 -54 -131c0 -31 10 -55 26 -55zM123 576l66 -96c4 -5 8 -10 8 -15c0 -11 -18 -23 -45 -23c-11 0 -19 5 -22 10l-49 76l-43 -69c-5 -9 -9 -17 -24 -17c-18 0 -43 17 -43 31c0 2 1 3 2 4l70 100c12 18 29 27 46 27c24 0 26 -9 34 -28z
" />
    <glyph glyph-name="dotlessj" unicode="&#x237;" horiz-adv-x="168" 
d="M199 146c6 21 14 30 24 30c16 0 35 -22 35 -41c0 -1 0 -6 -1 -10c-34 -116 -92 -175 -146 -222v-173c0 -105 -53 -142 -104 -142c-56 0 -96 51 -96 115c0 101 58 152 124 210v420c0 19 -4 25 -4 32c0 10 12 17 26 17c33 0 54 -20 54 -44v-351c36 40 68 90 88 159zM7 -349
c32 0 28 60 28 79v107c-32 -33 -54 -71 -54 -131c0 -31 10 -55 26 -55z" />
    <glyph glyph-name="Kcommaaccent" unicode="&#x136;" horiz-adv-x="599" 
d="M339 658v-352c194 40 86 264 184 431c2 4 9 13 21 13c25 0 59 -14 59 -30c0 -4 -2 -8 -8 -11c-83 -126 -8 -366 -185 -444c141 -75 122 -258 213 -360c5 -6 19 -6 19 -14c0 -19 -52 -52 -68 -52c-5 0 -9 2 -13 6c-112 140 -65 332 -222 376v-226c0 -17 -13 -23 -28 -23
c-23 0 -50 14 -50 29v621c-90 -11 -164 -78 -164 -204c0 -80 40 -131 53 -131c6 0 11 4 16 4s8 -5 8 -12c0 -42 -43 -81 -72 -60c-35 24 -84 98 -84 199c0 212 163 282 281 282c21 0 40 -18 40 -42zM407 -70c24 0 46 -17 46 -54c0 -38 -45 -101 -68 -101
c-16 0 -27 17 -27 28c0 5 3 5 6 7c7 2 19 14 31 32c-19 4 -34 20 -34 44c0 28 23 44 46 44z" />
    <glyph glyph-name="kcommaaccent" unicode="&#x137;" horiz-adv-x="350" 
d="M35 16v600c0 29 -10 31 -10 38s18 11 32 11c33 0 54 -20 54 -44v-312c32 44 72 83 117 83c62 0 89 -52 89 -108c0 -77 -56 -134 -96 -163c10 -43 32 -83 71 -83c46 0 80 63 89 107c12 61 66 14 58 -18c-18 -54 -67 -155 -158 -155c-79 0 -131 90 -131 156
c0 31 93 63 93 155c0 25 -13 42 -32 42c-24 0 -69 -32 -100 -138v-172c0 -19 1 -43 -28 -43c-20 0 -48 7 -48 44zM177 -62c24 0 46 -17 46 -54c0 -38 -45 -101 -68 -101c-16 0 -27 17 -27 28c0 5 3 5 6 7c7 2 19 14 31 32c-19 4 -34 20 -34 44c0 28 23 44 46 44z" />
    <glyph glyph-name="kgreenlandic" unicode="&#x138;" horiz-adv-x="350" 
d="M35 16v327c0 29 -10 31 -10 38s18 11 32 11c33 0 54 -20 54 -44v-39c32 44 72 83 117 83c62 0 89 -52 89 -108c0 -77 -56 -134 -96 -163c10 -43 32 -83 71 -83c46 0 80 63 89 107c12 61 66 14 58 -18c-18 -54 -67 -155 -158 -155c-79 0 -131 90 -131 156
c0 31 93 63 93 155c0 25 -13 42 -32 42c-24 0 -69 -32 -100 -138v-172c0 -19 1 -43 -28 -43c-20 0 -48 7 -48 44z" />
    <glyph glyph-name="Lacute" unicode="&#x139;" horiz-adv-x="505" 
d="M374 -37c-59 0 -105 43 -146 84c-19 -41 -54 -75 -105 -75c-66 0 -104 49 -104 103c0 65 54 110 114 110c11 0 22 -2 32 -5c-23 86 -81 158 -81 269c0 129 95 261 238 261c89 0 149 -57 149 -135c0 -117 -114 -210 -201 -210c-27 0 -51 18 -51 57c0 8 3 13 8 13
c3 0 8 -7 19 -7c66 0 146 73 146 133c0 39 -23 72 -73 72c-92 0 -155 -88 -155 -187c0 -104 79 -193 82 -316c43 -41 79 -89 120 -89c56 0 72 56 72 92c0 9 -2 14 -2 18c0 5 4 7 12 7c35 0 55 -21 55 -45c0 -78 -52 -150 -129 -150zM126 116c-20 0 -36 -15 -36 -37
c0 -19 12 -37 35 -37c27 0 43 27 47 56c-15 11 -30 18 -46 18zM409 863l-89 -95c-8 -13 -22 -18 -33 -18c-27 0 -39 12 -39 23c0 5 4 10 8 15l91 105c2 11 19 19 33 19c19 0 41 -12 41 -29c0 -9 -7 -14 -12 -20z" />
    <glyph glyph-name="lacute" unicode="&#x13a;" horiz-adv-x="220" 
d="M111 581v-285c21 42 42 174 42 229c0 66 -11 96 -27 96c-11 0 -15 -24 -15 -40zM253 145c12 59 66 14 58 -18c-18 -54 -67 -155 -158 -155c-77 0 -118 53 -118 132v455c0 75 41 128 91 128c88 0 89 -105 89 -161c0 -147 -91 -349 -104 -361v-58c0 -40 16 -69 53 -69
c46 0 80 63 89 107zM215 835l-89 -95c-8 -13 -22 -18 -33 -18c-27 0 -39 12 -39 23c0 5 4 10 8 15l91 105c2 11 19 19 33 19c19 0 41 -12 41 -29c0 -9 -7 -14 -12 -20z" />
    <glyph glyph-name="Lcommaaccent" unicode="&#x13b;" horiz-adv-x="505" 
d="M374 -37c-59 0 -105 43 -146 84c-19 -41 -54 -75 -105 -75c-66 0 -104 49 -104 103c0 65 54 110 114 110c11 0 22 -2 32 -5c-23 86 -81 158 -81 269c0 129 95 261 238 261c89 0 149 -57 149 -135c0 -117 -114 -210 -201 -210c-27 0 -51 18 -51 57c0 8 3 13 8 13
c3 0 8 -7 19 -7c66 0 146 73 146 133c0 39 -23 72 -73 72c-92 0 -155 -88 -155 -187c0 -104 79 -193 82 -316c43 -41 79 -89 120 -89c56 0 72 56 72 92c0 9 -2 14 -2 18c0 5 4 7 12 7c35 0 55 -21 55 -45c0 -78 -52 -150 -129 -150zM126 116c-20 0 -36 -15 -36 -37
c0 -19 12 -37 35 -37c27 0 43 27 47 56c-15 11 -30 18 -46 18zM254 -62c24 0 46 -17 46 -54c0 -38 -45 -101 -68 -101c-16 0 -27 17 -27 28c0 5 3 5 6 7c7 2 19 14 31 32c-19 4 -34 20 -34 44c0 28 23 44 46 44z" />
    <glyph glyph-name="lcommaaccent" unicode="&#x13c;" horiz-adv-x="220" 
d="M111 581v-285c21 42 42 174 42 229c0 66 -11 96 -27 96c-11 0 -15 -24 -15 -40zM253 145c12 59 66 14 58 -18c-18 -54 -67 -155 -158 -155c-77 0 -118 53 -118 132v455c0 75 41 128 91 128c88 0 89 -105 89 -161c0 -147 -91 -349 -104 -361v-58c0 -40 16 -69 53 -69
c46 0 80 63 89 107zM132 -62c24 0 46 -17 46 -54c0 -38 -45 -101 -68 -101c-16 0 -27 17 -27 28c0 5 3 5 6 7c7 2 19 14 31 32c-19 4 -34 20 -34 44c0 28 23 44 46 44z" />
    <glyph glyph-name="Lcaron" unicode="&#x13d;" horiz-adv-x="619" 
d="M374 -37c-59 0 -105 43 -146 84c-19 -41 -54 -75 -105 -75c-66 0 -104 49 -104 103c0 65 54 110 114 110c11 0 22 -2 32 -5c-23 86 -81 158 -81 269c0 129 95 261 238 261c89 0 149 -57 149 -135c0 -117 -114 -210 -201 -210c-27 0 -51 18 -51 57c0 8 3 13 8 13
c3 0 8 -7 19 -7c66 0 146 73 146 133c0 39 -23 72 -73 72c-92 0 -155 -88 -155 -187c0 -104 79 -193 82 -316c43 -41 79 -89 120 -89c56 0 72 56 72 92c0 9 -2 14 -2 18c0 5 4 7 12 7c35 0 55 -21 55 -45c0 -78 -52 -150 -129 -150zM126 116c-20 0 -36 -15 -36 -37
c0 -19 12 -37 35 -37c27 0 43 27 47 56c-15 11 -30 18 -46 18zM561 655c24 0 46 -17 46 -54c0 -38 -45 -101 -68 -101c-16 0 -27 17 -27 28c0 5 3 5 6 7c7 2 19 14 31 32c-19 4 -34 20 -34 44c0 28 23 44 46 44z" />
    <glyph glyph-name="lcaron" unicode="&#x13e;" horiz-adv-x="333" 
d="M111 581v-285c21 42 42 174 42 229c0 66 -11 96 -27 96c-11 0 -15 -24 -15 -40zM253 145c12 59 66 14 58 -18c-18 -54 -67 -155 -158 -155c-77 0 -118 53 -118 132v455c0 75 41 128 91 128c88 0 89 -105 89 -161c0 -147 -91 -349 -104 -361v-58c0 -40 16 -69 53 -69
c46 0 80 63 89 107zM297 648c24 0 46 -17 46 -54c0 -38 -45 -101 -68 -101c-16 0 -27 17 -27 28c0 5 3 5 6 7c7 2 19 14 31 32c-19 4 -34 20 -34 44c0 28 23 44 46 44z" />
    <glyph glyph-name="Ldot" unicode="&#x13f;" horiz-adv-x="505" 
d="M374 -37c-59 0 -105 43 -146 84c-19 -41 -54 -75 -105 -75c-66 0 -104 49 -104 103c0 65 54 110 114 110c11 0 22 -2 32 -5c-23 86 -81 158 -81 269c0 129 95 261 238 261c89 0 149 -57 149 -135c0 -117 -114 -210 -201 -210c-27 0 -51 18 -51 57c0 8 3 13 8 13
c3 0 8 -7 19 -7c66 0 146 73 146 133c0 39 -23 72 -73 72c-92 0 -155 -88 -155 -187c0 -104 79 -193 82 -316c43 -41 79 -89 120 -89c56 0 72 56 72 92c0 9 -2 14 -2 18c0 5 4 7 12 7c35 0 55 -21 55 -45c0 -78 -52 -150 -129 -150zM126 116c-20 0 -36 -15 -36 -37
c0 -19 12 -37 35 -37c27 0 43 27 47 56c-15 11 -30 18 -46 18zM439 322c27 0 49 -21 49 -48c0 -25 -22 -47 -49 -47c-26 0 -48 22 -48 47c0 27 22 48 48 48z" />
    <glyph glyph-name="ldotaccent" unicode="&#x140;" horiz-adv-x="282" 
d="M111 581v-285c21 42 42 174 42 229c0 66 -11 96 -27 96c-11 0 -15 -24 -15 -40zM253 145c12 59 66 14 58 -18c-18 -54 -67 -155 -158 -155c-77 0 -118 53 -118 132v455c0 75 41 128 91 128c88 0 89 -105 89 -161c0 -147 -91 -349 -104 -361v-58c0 -40 16 -69 53 -69
c46 0 80 63 89 107zM237 310c27 0 49 -21 49 -48c0 -25 -22 -47 -49 -47c-26 0 -48 22 -48 47c0 27 22 48 48 48z" />
    <glyph glyph-name="Lslash" unicode="&#x141;" horiz-adv-x="505" 
d="M374 -37c-59 0 -105 43 -146 84c-19 -41 -54 -75 -105 -75c-66 0 -104 49 -104 103c0 65 54 110 114 110c11 0 22 -2 32 -5c-5 17 -11 34 -18 51l-78 -22c-4 -1 -8 -2 -11 -2c-17 0 -23 17 -23 32c0 16 9 25 26 30l62 17c-20 48 -39 99 -39 163c0 129 95 261 238 261
c89 0 149 -57 149 -135c0 -117 -114 -210 -201 -210c-27 0 -51 18 -51 57c0 8 3 13 8 13c3 0 8 -7 19 -7c66 0 146 73 146 133c0 39 -23 72 -73 72c-92 0 -155 -88 -155 -187c0 -48 16 -92 35 -138l92 26c4 2 8 3 11 3c11 0 20 -13 20 -33c0 -15 -8 -30 -22 -30l-80 -23
c14 -37 25 -77 26 -121c43 -41 79 -89 120 -89c56 0 72 56 72 92c0 9 -2 14 -2 18c0 5 4 7 12 7c35 0 55 -21 55 -45c0 -78 -52 -150 -129 -150zM125 42c27 0 43 27 47 56c-15 11 -30 18 -46 18c-20 0 -36 -15 -36 -37c0 -19 12 -37 35 -37z" />
    <glyph glyph-name="lslash" unicode="&#x142;" horiz-adv-x="220" 
d="M253 145c12 59 66 14 58 -18c-18 -54 -67 -155 -158 -155c-77 0 -118 52 -118 130l-19 -7c-4 -1 -8 -2 -11 -2c-17 -2 -24 15 -25 30c-1 16 7 25 24 32l31 11v393c0 75 41 128 91 128c88 0 89 -105 89 -161c0 -113 -53 -258 -84 -325l58 21c4 2 8 4 11 4
c11 1 21 -12 22 -32c1 -15 -5 -30 -19 -31l-92 -34v-22c0 -40 16 -69 53 -69c46 0 80 63 89 107zM111 581v-285c21 42 42 174 42 229c0 66 -11 96 -27 96c-11 0 -15 -24 -15 -40z" />
    <glyph glyph-name="Ntilde" unicode="&#xd1;" horiz-adv-x="616" 
d="M339 658v-82c40 69 94 124 152 124c28 0 68 -21 68 -87v-583c0 -75 48 -69 48 -90c0 -15 -20 -34 -51 -34c-29 0 -74 23 -75 107v594c0 13 -5 14 -9 14c-30 0 -133 -155 -133 -240v-386c0 -17 -13 -23 -28 -23c-23 0 -50 14 -50 29v621c-90 -11 -164 -78 -164 -204
c0 -80 40 -131 53 -131c6 0 11 4 16 4s8 -5 8 -12c0 -34 -28 -66 -54 -66c-34 0 -102 88 -102 205c0 212 163 282 281 282c21 0 40 -18 40 -42zM325 773c0 -9 -13 -13 -23 -13c-17 0 -36 9 -36 20c0 39 31 91 76 91c54 0 69 -53 100 -53c13 0 20 12 20 31c0 15 16 20 27 20
c16 0 34 -9 34 -18c0 -64 -45 -96 -79 -96c-53 0 -78 55 -93 55c-19 0 -23 -20 -26 -37z" />
    <glyph glyph-name="ntilde" unicode="&#xf1;" horiz-adv-x="368" 
d="M35 16v317c0 19 -4 25 -4 32c0 10 12 17 26 17c33 0 54 -20 54 -44v-45c27 56 63 99 112 99c67 0 83 -55 83 -101v-207c0 -9 0 -46 26 -46c40 0 58 64 67 108c4 21 14 30 24 30c16 0 35 -22 35 -41c0 -1 0 -3 -1 -7c-17 -66 -57 -156 -143 -156c-53 0 -84 43 -84 94v203
c0 31 -2 57 -21 57c-29 0 -91 -86 -98 -165v-146c0 -19 1 -43 -28 -43c-20 0 -48 7 -48 44zM105 475c0 -9 -13 -13 -23 -13c-17 0 -36 9 -36 20c0 39 31 91 76 91c54 0 69 -53 100 -53c13 0 20 12 20 31c0 15 16 20 27 20c16 0 34 -9 34 -18c0 -64 -45 -96 -79 -96
c-53 0 -78 55 -93 55c-19 0 -23 -20 -26 -37z" />
    <glyph glyph-name="Nacute" unicode="&#x143;" horiz-adv-x="616" 
d="M339 658v-82c40 69 94 124 152 124c28 0 68 -21 68 -87v-583c0 -75 48 -69 48 -90c0 -15 -20 -34 -51 -34c-29 0 -74 23 -75 107v594c0 13 -5 14 -9 14c-30 0 -133 -155 -133 -240v-386c0 -17 -13 -23 -28 -23c-23 0 -50 14 -50 29v621c-90 -11 -164 -78 -164 -204
c0 -80 40 -131 53 -131c6 0 11 4 16 4s8 -5 8 -12c0 -34 -28 -66 -54 -66c-34 0 -102 88 -102 205c0 212 163 282 281 282c21 0 40 -18 40 -42zM481 853l-89 -95c-8 -13 -22 -18 -33 -18c-27 0 -39 12 -39 23c0 5 4 10 8 15l91 105c2 11 19 19 33 19c19 0 41 -12 41 -29
c0 -9 -7 -14 -12 -20z" />
    <glyph glyph-name="nacute" unicode="&#x144;" horiz-adv-x="368" 
d="M35 16v317c0 19 -4 25 -4 32c0 10 12 17 26 17c33 0 54 -20 54 -44v-45c27 56 63 99 112 99c67 0 83 -55 83 -101v-207c0 -9 0 -46 26 -46c40 0 58 64 67 108c4 21 14 30 24 30c16 0 35 -22 35 -41c0 -1 0 -3 -1 -7c-17 -66 -57 -156 -143 -156c-53 0 -84 43 -84 94v203
c0 31 -2 57 -21 57c-29 0 -91 -86 -98 -165v-146c0 -19 1 -43 -28 -43c-20 0 -48 7 -48 44zM261 555l-89 -95c-8 -13 -22 -18 -33 -18c-27 0 -39 12 -39 23c0 5 4 10 8 15l91 105c2 11 19 19 33 19c19 0 41 -12 41 -29c0 -9 -7 -14 -12 -20z" />
    <glyph glyph-name="Ncommaaccent" unicode="&#x145;" horiz-adv-x="616" 
d="M339 658v-82c40 69 94 124 152 124c28 0 68 -21 68 -87v-583c0 -75 48 -69 48 -90c0 -15 -20 -34 -51 -34c-29 0 -74 23 -75 107v594c0 13 -5 14 -9 14c-30 0 -133 -155 -133 -240v-386c0 -17 -13 -23 -28 -23c-23 0 -50 14 -50 29v621c-90 -11 -164 -78 -164 -204
c0 -80 40 -131 53 -131c6 0 11 4 16 4s8 -5 8 -12c0 -34 -28 -66 -54 -66c-34 0 -102 88 -102 205c0 212 163 282 281 282c21 0 40 -18 40 -42zM412 -62c24 0 46 -17 46 -54c0 -38 -45 -101 -68 -101c-16 0 -27 17 -27 28c0 5 3 5 6 7c7 2 19 14 31 32c-19 4 -34 20 -34 44
c0 28 23 44 46 44z" />
    <glyph glyph-name="ncommaaccent" unicode="&#x146;" horiz-adv-x="368" 
d="M35 16v317c0 19 -4 25 -4 32c0 10 12 17 26 17c33 0 54 -20 54 -44v-45c27 56 63 99 112 99c67 0 83 -55 83 -101v-207c0 -9 0 -46 26 -46c40 0 58 64 67 108c4 21 14 30 24 30c16 0 35 -22 35 -41c0 -1 0 -3 -1 -7c-17 -66 -57 -156 -143 -156c-53 0 -84 43 -84 94v203
c0 31 -2 57 -21 57c-29 0 -91 -86 -98 -165v-146c0 -19 1 -43 -28 -43c-20 0 -48 7 -48 44zM186 -62c24 0 46 -17 46 -54c0 -38 -45 -101 -68 -101c-16 0 -27 17 -27 28c0 5 3 5 6 7c7 2 19 14 31 32c-19 4 -34 20 -34 44c0 28 23 44 46 44z" />
    <glyph glyph-name="Ncaron" unicode="&#x147;" horiz-adv-x="616" 
d="M339 658v-82c40 69 94 124 152 124c28 0 68 -21 68 -87v-583c0 -75 48 -69 48 -90c0 -15 -20 -34 -51 -34c-29 0 -74 23 -75 107v594c0 13 -5 14 -9 14c-30 0 -133 -155 -133 -240v-386c0 -17 -13 -23 -28 -23c-23 0 -50 14 -50 29v621c-90 -11 -164 -78 -164 -204
c0 -80 40 -131 53 -131c6 0 11 4 16 4s8 -5 8 -12c0 -34 -28 -66 -54 -66c-34 0 -102 88 -102 205c0 212 163 282 281 282c21 0 40 -18 40 -42zM349 768l-66 96c-4 5 -8 10 -8 15c0 11 18 23 45 23c11 0 19 -5 22 -10l49 -76l43 69c2 8 9 17 24 17c18 0 42 -16 42 -30
c0 -4 -6 -12 -7 -13l-64 -92c-6 -18 -15 -27 -32 -27c-27 0 -32 7 -48 28z" />
    <glyph glyph-name="ncaron" unicode="&#x148;" horiz-adv-x="368" 
d="M35 16v317c0 19 -4 25 -4 32c0 10 12 17 26 17c33 0 54 -20 54 -44v-45c27 56 63 99 112 99c67 0 83 -55 83 -101v-207c0 -9 0 -46 26 -46c40 0 58 64 67 108c4 21 14 30 24 30c16 0 35 -22 35 -41c0 -1 0 -3 -1 -7c-17 -66 -57 -156 -143 -156c-53 0 -84 43 -84 94v203
c0 31 -2 57 -21 57c-29 0 -91 -86 -98 -165v-146c0 -19 1 -43 -28 -43c-20 0 -48 7 -48 44zM129 470l-66 96c-4 5 -8 10 -8 15c0 11 18 23 45 23c11 0 19 -5 22 -10l49 -76l43 69c2 8 9 17 24 17c18 0 42 -16 42 -30c0 -4 -6 -12 -7 -13l-64 -92c-6 -18 -15 -27 -32 -27
c-27 0 -32 7 -48 28z" />
    <glyph glyph-name="napostrophe" unicode="&#x149;" horiz-adv-x="368" 
d="M35 16v317c0 19 -4 25 -4 32c0 10 12 17 26 17c33 0 54 -20 54 -44v-45c27 56 63 99 112 99c67 0 83 -55 83 -101v-207c0 -9 0 -46 26 -46c40 0 58 64 67 108c4 21 14 30 24 30c16 0 35 -22 35 -41c0 -1 0 -3 -1 -7c-17 -66 -57 -156 -143 -156c-53 0 -84 43 -84 94v203
c0 31 -2 57 -21 57c-29 0 -91 -86 -98 -165v-146c0 -19 1 -43 -28 -43c-20 0 -48 7 -48 44zM49 640c24 0 46 -17 46 -54c0 -38 -45 -101 -68 -101c-16 0 -27 17 -27 28c0 5 3 5 6 7c7 2 19 14 31 32c-19 4 -34 20 -34 44c0 28 23 44 46 44z" />
    <glyph glyph-name="Eng" unicode="&#x14a;" horiz-adv-x="621" 
d="M339 658v-82c40 69 94 124 152 124c28 0 68 -21 68 -87v-618v-30c19 3 37 4 53 5c47 3 22 -78 -13 -79c-15 0 -28 -1 -41 -2c-6 -115 -31 -243 -147 -243c-68 0 -112 51 -112 118c0 101 90 156 182 183v11v649c0 13 -5 14 -9 14c-30 0 -128 -148 -133 -234v-392
c0 -17 -13 -23 -28 -23c-23 0 -50 14 -50 29v621c-90 -11 -164 -78 -164 -204c0 -80 40 -131 53 -131c6 0 11 4 16 4s8 -5 8 -12c0 -34 -28 -66 -54 -66c-34 0 -102 88 -102 205c0 212 163 282 281 282c21 0 40 -18 40 -42zM413 -277c45 0 61 71 66 150
c-66 -20 -102 -57 -102 -107c0 -30 16 -43 36 -43z" />
    <glyph glyph-name="eng" unicode="&#x14b;" horiz-adv-x="363" 
d="M35 16v317c0 19 -4 25 -4 32c0 10 12 17 26 17c33 0 54 -20 54 -44v-45c27 56 63 99 112 99c67 0 83 -55 83 -101v-304c36 40 68 90 88 159c6 21 14 30 24 30c16 0 35 -22 35 -41c0 -1 0 -6 -1 -10c-34 -116 -92 -175 -146 -222v-173c0 -105 -53 -142 -104 -142
c-56 0 -96 51 -96 115c0 101 58 152 124 210v356c0 31 -2 57 -21 57c-29 0 -91 -86 -98 -165v-146c0 -19 1 -43 -28 -43c-20 0 -48 7 -48 44zM230 -270v107c-32 -33 -54 -71 -54 -131c0 -31 10 -55 26 -55c32 0 28 60 28 79z" />
    <glyph glyph-name="Ograve" unicode="&#xd2;" horiz-adv-x="509" 
d="M391 340c0 19 -1 40 -3 61h-19c-83 0 -150 49 -150 126c0 52 37 95 91 95c73 0 115 -58 137 -128c10 6 19 15 28 25c3 9 7 13 12 13c14 0 32 -27 32 -54c0 -25 -23 -45 -56 -59c4 -28 6 -55 6 -79c0 -253 -110 -368 -227 -368c-146 0 -222 147 -222 326
c0 340 202 418 210 421c3 1 7 2 11 2c22 0 35 -30 35 -52c0 -13 -4 -23 -13 -23c-2 0 -3 0 -5 1c-35 -20 -158 -83 -158 -339c0 -181 74 -261 145 -261c83 0 145 106 146 293zM366 470h12c-10 46 -30 80 -61 80c-20 0 -25 -14 -25 -25c0 -24 22 -55 74 -55zM283 760l-94 103
c-5 6 -8 12 -8 17c0 19 28 32 41 32c14 0 22 -9 29 -19l91 -105c4 -5 8 -10 8 -15c0 -11 -18 -23 -45 -23c-11 0 -19 5 -22 10z" />
    <glyph glyph-name="ograve" unicode="&#xf2;" horiz-adv-x="366" 
d="M401 165c4 23 70 27 57 -29c-12 -54 -53 -99 -121 -99c-18 0 -34 2 -49 7c-25 -43 -63 -72 -120 -72c-101 0 -146 86 -146 186c0 147 80 236 102 236c26 0 46 -53 20 -70c-16 -24 -46 -61 -46 -160c0 -84 33 -126 72 -126c28 0 46 15 59 38c-47 40 -72 106 -72 178
c0 63 27 117 81 117c47 0 85 -71 85 -168c0 -37 -4 -74 -14 -108c7 -2 13 -2 20 -2c43 0 66 33 72 72zM210 258c0 -45 15 -87 38 -117c2 16 3 31 3 46c0 68 -3 118 -24 118c-11 0 -17 -16 -17 -47zM179 451l-94 103c-5 6 -8 12 -8 17c0 19 28 32 41 32c14 0 22 -9 29 -19
l91 -105c4 -5 8 -10 8 -15c0 -11 -18 -23 -45 -23c-11 0 -19 5 -22 10z" />
    <glyph glyph-name="Oacute" unicode="&#xd3;" horiz-adv-x="509" 
d="M391 340c0 19 -1 40 -3 61h-19c-83 0 -150 49 -150 126c0 52 37 95 91 95c73 0 115 -58 137 -128c10 6 19 15 28 25c3 9 7 13 12 13c14 0 32 -27 32 -54c0 -25 -23 -45 -56 -59c4 -28 6 -55 6 -79c0 -253 -110 -368 -227 -368c-146 0 -222 147 -222 326
c0 340 202 418 210 421c3 1 7 2 11 2c22 0 35 -30 35 -52c0 -13 -4 -23 -13 -23c-2 0 -3 0 -5 1c-35 -20 -158 -83 -158 -339c0 -181 74 -261 145 -261c83 0 145 106 146 293zM366 470h12c-10 46 -30 80 -61 80c-20 0 -25 -14 -25 -25c0 -24 22 -55 74 -55zM373 863l-89 -95
c-8 -13 -22 -18 -33 -18c-27 0 -39 12 -39 23c0 5 4 10 8 15l91 105c2 11 19 19 33 19c19 0 41 -12 41 -29c0 -9 -7 -14 -12 -20z" />
    <glyph glyph-name="oacute" unicode="&#xf3;" horiz-adv-x="366" 
d="M401 165c4 23 70 27 57 -29c-12 -54 -53 -99 -121 -99c-18 0 -34 2 -49 7c-25 -43 -63 -72 -120 -72c-101 0 -146 86 -146 186c0 147 80 236 102 236c26 0 46 -53 20 -70c-16 -24 -46 -61 -46 -160c0 -84 33 -126 72 -126c28 0 46 15 59 38c-47 40 -72 106 -72 178
c0 63 27 117 81 117c47 0 85 -71 85 -168c0 -37 -4 -74 -14 -108c7 -2 13 -2 20 -2c43 0 66 33 72 72zM210 258c0 -45 15 -87 38 -117c2 16 3 31 3 46c0 68 -3 118 -24 118c-11 0 -17 -16 -17 -47zM269 554l-89 -95c-8 -13 -22 -18 -33 -18c-27 0 -39 12 -39 23
c0 5 4 10 8 15l91 105c2 11 19 19 33 19c19 0 41 -12 41 -29c0 -9 -7 -14 -12 -20z" />
    <glyph glyph-name="Ocircumflex" unicode="&#xd4;" horiz-adv-x="509" 
d="M391 340c0 19 -1 40 -3 61h-19c-83 0 -150 49 -150 126c0 52 37 95 91 95c73 0 115 -58 137 -128c10 6 19 15 28 25c3 9 7 13 12 13c14 0 32 -27 32 -54c0 -25 -23 -45 -56 -59c4 -28 6 -55 6 -79c0 -253 -110 -368 -227 -368c-146 0 -222 147 -222 326
c0 340 202 418 210 421c3 1 7 2 11 2c22 0 35 -30 35 -52c0 -13 -4 -23 -13 -23c-2 0 -3 0 -5 1c-35 -20 -158 -83 -158 -339c0 -181 74 -261 145 -261c83 0 145 106 146 293zM366 470h12c-10 46 -30 80 -61 80c-20 0 -25 -14 -25 -25c0 -24 22 -55 74 -55zM322 884l66 -96
c4 -5 8 -10 8 -15c0 -11 -18 -23 -45 -23c-11 0 -19 5 -22 10l-49 76l-43 -69c-5 -9 -9 -17 -24 -17c-18 0 -43 17 -43 31c0 2 1 3 2 4l70 100c12 18 29 27 46 27c24 0 26 -9 34 -28z" />
    <glyph glyph-name="ocircumflex" unicode="&#xf4;" horiz-adv-x="366" 
d="M401 165c4 23 70 27 57 -29c-12 -54 -53 -99 -121 -99c-18 0 -34 2 -49 7c-25 -43 -63 -72 -120 -72c-101 0 -146 86 -146 186c0 147 80 236 102 236c26 0 46 -53 20 -70c-16 -24 -46 -61 -46 -160c0 -84 33 -126 72 -126c28 0 46 15 59 38c-47 40 -72 106 -72 178
c0 63 27 117 81 117c47 0 85 -71 85 -168c0 -37 -4 -74 -14 -108c7 -2 13 -2 20 -2c43 0 66 33 72 72zM210 258c0 -45 15 -87 38 -117c2 16 3 31 3 46c0 68 -3 118 -24 118c-11 0 -17 -16 -17 -47zM218 575l66 -96c4 -5 8 -10 8 -15c0 -11 -18 -23 -45 -23
c-11 0 -19 5 -22 10l-49 76l-43 -69c-5 -9 -9 -17 -24 -17c-18 0 -43 17 -43 31c0 2 1 3 2 4l70 100c12 18 29 27 46 27c24 0 26 -9 34 -28z" />
    <glyph glyph-name="Otilde" unicode="&#xd5;" horiz-adv-x="509" 
d="M391 340c0 19 -1 40 -3 61h-19c-83 0 -150 49 -150 126c0 52 37 95 91 95c73 0 115 -58 137 -128c10 6 19 15 28 25c3 9 7 13 12 13c14 0 32 -27 32 -54c0 -25 -23 -45 -56 -59c4 -28 6 -55 6 -79c0 -253 -110 -368 -227 -368c-146 0 -222 147 -222 326
c0 340 202 418 210 421c3 1 7 2 11 2c22 0 35 -30 35 -52c0 -13 -4 -23 -13 -23c-2 0 -3 0 -5 1c-35 -20 -158 -83 -158 -339c0 -181 74 -261 145 -261c83 0 145 106 146 293zM366 470h12c-10 46 -30 80 -61 80c-20 0 -25 -14 -25 -25c0 -24 22 -55 74 -55zM217 783
c0 -9 -13 -13 -23 -13c-17 0 -36 9 -36 20c0 39 31 91 76 91c54 0 69 -53 100 -53c13 0 20 12 20 31c0 15 16 20 27 20c16 0 34 -9 34 -18c0 -64 -45 -96 -79 -96c-53 0 -78 55 -93 55c-19 0 -23 -20 -26 -37z" />
    <glyph glyph-name="otilde" unicode="&#xf5;" horiz-adv-x="366" 
d="M401 165c4 23 70 27 57 -29c-12 -54 -53 -99 -121 -99c-18 0 -34 2 -49 7c-25 -43 -63 -72 -120 -72c-101 0 -146 86 -146 186c0 147 80 236 102 236c26 0 46 -53 20 -70c-16 -24 -46 -61 -46 -160c0 -84 33 -126 72 -126c28 0 46 15 59 38c-47 40 -72 106 -72 178
c0 63 27 117 81 117c47 0 85 -71 85 -168c0 -37 -4 -74 -14 -108c7 -2 13 -2 20 -2c43 0 66 33 72 72zM210 258c0 -45 15 -87 38 -117c2 16 3 31 3 46c0 68 -3 118 -24 118c-11 0 -17 -16 -17 -47zM113 474c0 -9 -13 -13 -23 -13c-17 0 -36 9 -36 20c0 39 31 91 76 91
c54 0 69 -53 100 -53c13 0 20 12 20 31c0 15 16 20 27 20c16 0 34 -9 34 -18c0 -64 -45 -96 -79 -96c-53 0 -78 55 -93 55c-19 0 -23 -20 -26 -37z" />
    <glyph glyph-name="Odieresis" unicode="&#xd6;" horiz-adv-x="509" 
d="M391 340c0 19 -1 40 -3 61h-19c-83 0 -150 49 -150 126c0 52 37 95 91 95c73 0 115 -58 137 -128c10 6 19 15 28 25c3 9 7 13 12 13c14 0 32 -27 32 -54c0 -25 -23 -45 -56 -59c4 -28 6 -55 6 -79c0 -253 -110 -368 -227 -368c-146 0 -222 147 -222 326
c0 340 202 418 210 421c3 1 7 2 11 2c22 0 35 -30 35 -52c0 -13 -4 -23 -13 -23c-2 0 -3 0 -5 1c-35 -20 -158 -83 -158 -339c0 -181 74 -261 145 -261c83 0 145 106 146 293zM366 470h12c-10 46 -30 80 -61 80c-20 0 -25 -14 -25 -25c0 -24 22 -55 74 -55zM164 817
c0 26 21 47 47 47s47 -21 47 -47s-21 -47 -47 -47s-47 21 -47 47zM308 817c0 26 21 47 47 47s47 -21 47 -47s-21 -47 -47 -47s-47 21 -47 47z" />
    <glyph glyph-name="odieresis" unicode="&#xf6;" horiz-adv-x="366" 
d="M401 165c4 23 70 27 57 -29c-12 -54 -53 -99 -121 -99c-18 0 -34 2 -49 7c-25 -43 -63 -72 -120 -72c-101 0 -146 86 -146 186c0 147 80 236 102 236c26 0 46 -53 20 -70c-16 -24 -46 -61 -46 -160c0 -84 33 -126 72 -126c28 0 46 15 59 38c-47 40 -72 106 -72 178
c0 63 27 117 81 117c47 0 85 -71 85 -168c0 -37 -4 -74 -14 -108c7 -2 13 -2 20 -2c43 0 66 33 72 72zM210 258c0 -45 15 -87 38 -117c2 16 3 31 3 46c0 68 -3 118 -24 118c-11 0 -17 -16 -17 -47zM60 508c0 26 21 47 47 47s47 -21 47 -47s-21 -47 -47 -47s-47 21 -47 47z
M204 508c0 26 21 47 47 47s47 -21 47 -47s-21 -47 -47 -47s-47 21 -47 47z" />
    <glyph glyph-name="Omacron" unicode="&#x14c;" horiz-adv-x="509" 
d="M391 340c0 19 -1 40 -3 61h-19c-83 0 -150 49 -150 126c0 52 37 95 91 95c73 0 115 -58 137 -128c10 6 19 15 28 25c3 9 7 13 12 13c14 0 32 -27 32 -54c0 -25 -23 -45 -56 -59c4 -28 6 -55 6 -79c0 -253 -110 -368 -227 -368c-146 0 -222 147 -222 326
c0 340 202 418 210 421c3 1 7 2 11 2c22 0 35 -30 35 -52c0 -13 -4 -23 -13 -23c-2 0 -3 0 -5 1c-35 -20 -158 -83 -158 -339c0 -181 74 -261 145 -261c83 0 145 106 146 293zM366 470h12c-10 46 -30 80 -61 80c-20 0 -25 -14 -25 -25c0 -24 22 -55 74 -55zM204 842h172
c17 2 22 -9 22 -26c0 -19 -10 -41 -26 -41c-1 0 -3 0 -5 1h-173c-18 0 -26 9 -26 23c0 27 13 43 36 43z" />
    <glyph glyph-name="omacron" unicode="&#x14d;" horiz-adv-x="366" 
d="M401 165c4 23 70 27 57 -29c-12 -54 -53 -99 -121 -99c-18 0 -34 2 -49 7c-25 -43 -63 -72 -120 -72c-101 0 -146 86 -146 186c0 147 80 236 102 236c26 0 46 -53 20 -70c-16 -24 -46 -61 -46 -160c0 -84 33 -126 72 -126c28 0 46 15 59 38c-47 40 -72 106 -72 178
c0 63 27 117 81 117c47 0 85 -71 85 -168c0 -37 -4 -74 -14 -108c7 -2 13 -2 20 -2c43 0 66 33 72 72zM210 258c0 -45 15 -87 38 -117c2 16 3 31 3 46c0 68 -3 118 -24 118c-11 0 -17 -16 -17 -47zM100 533h172c17 2 22 -9 22 -26c0 -19 -10 -41 -26 -41c-1 0 -3 0 -5 1
h-173c-18 0 -26 9 -26 23c0 27 13 43 36 43z" />
    <glyph glyph-name="Obreve" unicode="&#x14e;" horiz-adv-x="509" 
d="M391 340c0 19 -1 40 -3 61h-19c-83 0 -150 49 -150 126c0 52 37 95 91 95c73 0 115 -58 137 -128c10 6 19 15 28 25c3 9 7 13 12 13c14 0 32 -27 32 -54c0 -25 -23 -45 -56 -59c4 -28 6 -55 6 -79c0 -253 -110 -368 -227 -368c-146 0 -222 147 -222 326
c0 340 202 418 210 421c3 1 7 2 11 2c22 0 35 -30 35 -52c0 -13 -4 -23 -13 -23c-2 0 -3 0 -5 1c-35 -20 -158 -83 -158 -339c0 -181 74 -261 145 -261c83 0 145 106 146 293zM366 470h12c-10 46 -30 80 -61 80c-20 0 -25 -14 -25 -25c0 -24 22 -55 74 -55zM284 760
c-49 0 -122 25 -122 119c0 11 18 23 45 23c11 0 19 -5 22 -10c2 -29 5 -71 54 -71c48 0 47 40 47 63c2 8 10 18 25 18c18 0 42 -16 42 -30c0 -98 -79 -112 -113 -112z" />
    <glyph glyph-name="obreve" unicode="&#x14f;" horiz-adv-x="366" 
d="M401 165c4 23 70 27 57 -29c-12 -54 -53 -99 -121 -99c-18 0 -34 2 -49 7c-25 -43 -63 -72 -120 -72c-101 0 -146 86 -146 186c0 147 80 236 102 236c26 0 46 -53 20 -70c-16 -24 -46 -61 -46 -160c0 -84 33 -126 72 -126c28 0 46 15 59 38c-47 40 -72 106 -72 178
c0 63 27 117 81 117c47 0 85 -71 85 -168c0 -37 -4 -74 -14 -108c7 -2 13 -2 20 -2c43 0 66 33 72 72zM210 258c0 -45 15 -87 38 -117c2 16 3 31 3 46c0 68 -3 118 -24 118c-11 0 -17 -16 -17 -47zM180 451c-49 0 -122 25 -122 119c0 11 18 23 45 23c11 0 19 -5 22 -10
c2 -29 5 -71 54 -71c48 0 47 40 47 63c2 8 10 18 25 18c18 0 42 -16 42 -30c0 -98 -79 -112 -113 -112z" />
    <glyph glyph-name="Ohungarumlaut" unicode="&#x150;" horiz-adv-x="509" 
d="M391 340c0 19 -1 40 -3 61h-19c-83 0 -150 49 -150 126c0 52 37 95 91 95c73 0 115 -58 137 -128c10 6 19 15 28 25c3 9 7 13 12 13c14 0 32 -27 32 -54c0 -25 -23 -45 -56 -59c4 -28 6 -55 6 -79c0 -253 -110 -368 -227 -368c-146 0 -222 147 -222 326
c0 340 202 418 210 421c3 1 7 2 11 2c22 0 35 -30 35 -52c0 -13 -4 -23 -13 -23c-2 0 -3 0 -5 1c-35 -20 -158 -83 -158 -339c0 -181 74 -261 145 -261c83 0 145 106 146 293zM366 470h12c-10 46 -30 80 -61 80c-20 0 -25 -14 -25 -25c0 -24 22 -55 74 -55zM308 863l-64 -95
c-5 -13 -18 -18 -29 -18c-27 0 -33 12 -36 23c-1 5 2 10 5 15l64 105c-1 11 14 19 28 19c19 0 35 -12 39 -29c2 -9 -3 -14 -7 -20zM444 863l-74 -95c-6 -13 -19 -18 -30 -18c-27 0 -34 12 -36 23c-1 5 2 10 6 15l74 105c1 11 16 19 30 19c19 0 36 -12 39 -29
c1 -9 -5 -14 -9 -20z" />
    <glyph glyph-name="ohungarumlaut" unicode="&#x151;" horiz-adv-x="366" 
d="M401 165c4 23 70 27 57 -29c-12 -54 -53 -99 -121 -99c-18 0 -34 2 -49 7c-25 -43 -63 -72 -120 -72c-101 0 -146 86 -146 186c0 147 80 236 102 236c26 0 46 -53 20 -70c-16 -24 -46 -61 -46 -160c0 -84 33 -126 72 -126c28 0 46 15 59 38c-47 40 -72 106 -72 178
c0 63 27 117 81 117c47 0 85 -71 85 -168c0 -37 -4 -74 -14 -108c7 -2 13 -2 20 -2c43 0 66 33 72 72zM210 258c0 -45 15 -87 38 -117c2 16 3 31 3 46c0 68 -3 118 -24 118c-11 0 -17 -16 -17 -47zM204 554l-64 -95c-5 -13 -18 -18 -29 -18c-27 0 -33 12 -36 23
c-1 5 2 10 5 15l64 105c-1 11 14 19 28 19c19 0 35 -12 39 -29c2 -9 -3 -14 -7 -20zM340 554l-74 -95c-6 -13 -19 -18 -30 -18c-27 0 -34 12 -36 23c-1 5 2 10 6 15l74 105c1 11 16 19 30 19c19 0 36 -12 39 -29c1 -9 -5 -14 -9 -20z" />
    <glyph glyph-name="Oslash" unicode="&#xd8;" horiz-adv-x="509" 
d="M38 -5l39 71c-38 59 -57 141 -57 232c0 340 202 418 210 421c3 1 7 2 11 2c22 0 35 -30 35 -52c0 -13 -4 -23 -13 -23c-2 0 -3 0 -5 1c-35 -20 -158 -83 -158 -339c0 -65 9 -116 24 -156l217 392c-7 6 -15 9 -24 9c-20 0 -27 -17 -27 -28c0 -21 11 -17 11 -24
c0 -8 -29 -36 -52 -36c-20 0 -30 42 -30 62c0 52 37 95 91 95c24 0 46 -7 64 -18l34 61c2 3 0 8 1 12s4 6 11 5c15 -2 55 -21 51 -45c0 -1 0 -5 -2 -6l-45 -82c34 -60 45 -145 45 -209c0 -253 -110 -368 -227 -368c-46 0 -85 15 -116 39l-33 -59c-4 -7 -11 -8 -19 -6
c-17 2 -43 22 -40 41c1 3 2 5 4 8zM391 340c0 40 -3 88 -12 128l-213 -384c24 -25 51 -37 79 -37c82 0 146 106 146 293z" />
    <glyph glyph-name="oslash" unicode="&#xf8;" horiz-adv-x="366" 
d="M401 165c4 23 70 27 57 -29c-12 -54 -53 -99 -121 -99c-18 0 -34 2 -49 7c-25 -43 -63 -72 -120 -72c-21 0 -40 4 -56 10l-39 -81c-3 -6 -7 -7 -13 -7c-18 0 -38 13 -38 32c0 4 1 8 4 12l38 79c-29 35 -42 86 -42 141c0 147 80 236 102 236c26 0 46 -53 20 -70
c-16 -24 -46 -61 -46 -160c0 -25 2 -45 7 -63l55 111c-2 14 -3 28 -3 42c0 63 27 116 80 117l37 74c0 2 -1 5 -1 8c0 5 1 9 8 9c12 0 48 -12 48 -35c0 -2 0 -6 -2 -10l-39 -78c21 -30 35 -78 35 -136c0 -37 -4 -74 -14 -108c7 -2 13 -2 20 -2c43 0 66 33 72 72zM170 38
c28 0 46 15 59 38c-18 15 -32 34 -43 55l-43 -86c8 -5 18 -7 27 -7zM219 198c6 -21 17 -41 29 -57c2 16 3 31 3 46c0 27 -1 52 -3 71z" />
    <glyph glyph-name="Oslashacute" unicode="&#x1fe;" horiz-adv-x="509" 
d="M38 -5l39 71c-38 59 -57 141 -57 232c0 340 202 418 210 421c3 1 7 2 11 2c22 0 35 -30 35 -52c0 -13 -4 -23 -13 -23c-2 0 -3 0 -5 1c-35 -20 -158 -83 -158 -339c0 -65 9 -116 24 -156l217 392c-7 6 -15 9 -24 9c-20 0 -27 -17 -27 -28c0 -21 11 -17 11 -24
c0 -8 -29 -36 -52 -36c-20 0 -30 42 -30 62c0 52 37 95 91 95c24 0 46 -7 64 -18l34 61c2 3 0 8 1 12s4 6 11 5c15 -2 55 -21 51 -45c0 -1 0 -5 -2 -6l-45 -82c34 -60 45 -145 45 -209c0 -253 -110 -368 -227 -368c-46 0 -85 15 -116 39l-33 -59c-4 -7 -11 -8 -19 -6
c-17 2 -43 22 -40 41c1 3 2 5 4 8zM391 340c0 40 -3 88 -12 128l-213 -384c24 -25 51 -37 79 -37c82 0 146 106 146 293zM402 863l-89 -95c-8 -13 -22 -18 -33 -18c-27 0 -39 12 -39 23c0 5 4 10 8 15l91 105c2 11 19 19 33 19c19 0 41 -12 41 -29c0 -9 -7 -14 -12 -20z" />
    <glyph glyph-name="oslashacute" unicode="&#x1ff;" horiz-adv-x="366" 
d="M401 165c4 23 70 27 57 -29c-12 -54 -53 -99 -121 -99c-18 0 -34 2 -49 7c-25 -43 -63 -72 -120 -72c-21 0 -40 4 -56 10l-39 -81c-3 -6 -7 -7 -13 -7c-18 0 -38 13 -38 32c0 4 1 8 4 12l38 79c-29 35 -42 86 -42 141c0 147 80 236 102 236c26 0 46 -53 20 -70
c-16 -24 -46 -61 -46 -160c0 -25 2 -45 7 -63l55 111c-2 14 -3 28 -3 42c0 63 27 116 80 117l37 74c0 2 -1 5 -1 8c0 5 1 9 8 9c12 0 48 -12 48 -35c0 -2 0 -6 -2 -10l-39 -78c21 -30 35 -78 35 -136c0 -37 -4 -74 -14 -108c7 -2 13 -2 20 -2c43 0 66 33 72 72zM170 38
c28 0 46 15 59 38c-18 15 -32 34 -43 55l-43 -86c8 -5 18 -7 27 -7zM219 198c6 -21 17 -41 29 -57c2 16 3 31 3 46c0 27 -1 52 -3 71zM281 555l-89 -95c-8 -13 -22 -18 -33 -18c-27 0 -39 12 -39 23c0 5 4 10 8 15l91 105c2 11 19 19 33 19c19 0 41 -12 41 -29
c0 -9 -7 -14 -12 -20z" />
    <glyph glyph-name="OE" unicode="&#x152;" horiz-adv-x="828" 
d="M805 72c-17 -29 -80 -115 -208 -115c-89 0 -165 51 -175 142c-43 -87 -110 -127 -180 -127c-146 0 -222 147 -222 326c0 340 202 418 210 421c3 1 7 2 11 2c22 0 35 -30 35 -52c0 -13 -4 -23 -13 -23c-2 0 -3 0 -5 1c-35 -20 -158 -83 -158 -339c0 -181 74 -261 145 -261
c83 0 145 106 146 293c0 19 -1 40 -3 61h-19c-83 0 -150 49 -150 126c0 52 37 95 91 95c73 0 115 -59 137 -127c25 114 119 222 244 222c92 0 142 -59 142 -132c0 -104 -86 -207 -185 -207c-25 0 -55 12 -55 48c0 14 4 36 11 36s9 -10 38 -10c66 0 112 70 112 134
c0 36 -26 54 -63 54c-100 0 -186 -104 -186 -200c0 -75 57 -130 101 -134c3 1 6 1 9 1c12 0 17 -11 17 -24c0 -22 -12 -51 -24 -52c-42 -5 -107 -29 -107 -108c0 -51 42 -87 98 -87c84 0 134 54 147 82c5 12 13 17 21 17c20 0 41 -26 41 -49c0 -5 -1 -10 -3 -14zM366 470
c4 0 8 -1 12 0c-10 45 -29 80 -61 80c-20 0 -25 -14 -25 -25c0 -24 22 -55 74 -55zM468 314c-1 -29 -3 -57 -7 -82c15 17 33 30 51 40c-17 10 -32 24 -44 42z" />
    <glyph glyph-name="oe" unicode="&#x153;" horiz-adv-x="517" 
d="M170 38c28 0 46 15 59 38c-46 40 -72 106 -72 178c0 63 27 117 81 117c22 0 42 -16 57 -42c26 39 62 63 100 63c56 0 90 -41 90 -101c0 -74 -51 -162 -148 -191c14 -34 41 -62 93 -62c78 0 110 65 122 126c9 45 65 25 61 -10c-7 -61 -47 -182 -194 -182
c-53 0 -101 25 -132 70c-24 -42 -63 -70 -119 -70c-101 0 -146 86 -146 186c0 147 80 236 102 236c26 0 46 -53 20 -70c-16 -24 -46 -61 -46 -160c0 -84 33 -126 72 -126zM324 173c0 -6 1 -12 1 -18c50 23 82 75 82 135c0 22 -8 35 -21 35c-49 0 -64 -110 -62 -152zM210 258
c0 -45 15 -87 38 -117c2 16 3 31 3 46c0 68 -3 118 -24 118c-11 0 -17 -16 -17 -47z" />
    <glyph glyph-name="Thorn" unicode="&#xde;" horiz-adv-x="577" 
d="M200 1v495c-75 -27 -106 -82 -106 -143c0 -62 36 -84 38 -86c11 3 15 -4 15 -14c0 -18 -27 -84 -56 -62c-16 12 -73 60 -73 153c0 113 70 196 182 229v78c0 19 -4 25 -4 32c0 10 12 17 26 17c33 0 56 -20 56 -44v-68c13 1 27 2 41 2c146 0 241 -84 241 -201
c0 -143 -135 -247 -282 -270v-124c0 -17 -13 -23 -28 -23c-23 0 -50 14 -50 29zM320 515c-15 0 -29 -1 -42 -2v-320c68 6 205 64 205 192c0 58 -46 130 -163 130z" />
    <glyph glyph-name="thorn" unicode="&#xfe;" horiz-adv-x="361" 
d="M111 643v-304c21 30 49 53 91 53c78 0 116 -77 116 -176c0 -56 -11 -110 -26 -146c66 3 81 29 104 76c9 19 14 27 23 27c17 0 36 -24 36 -38c0 -46 -62 -127 -195 -127c-27 -29 -66 -46 -101 -46c-24 0 -40 6 -48 15v-325c0 -37 -33 -44 -53 -44s-23 12 -23 27v1003
c0 29 -10 31 -10 38s18 11 32 11c33 0 54 -20 54 -44zM177 325c-29 0 -55 -35 -66 -84v-216c14 21 48 31 94 35c24 35 35 103 35 140c0 92 -29 125 -63 125z" />
    <glyph glyph-name="Racute" unicode="&#x154;" horiz-adv-x="567" 
d="M200 1v523c0 19 -4 25 -4 32c0 10 12 17 26 17c33 0 56 -20 56 -44v-327c76 14 205 83 205 252c0 76 -49 171 -166 171c-154 0 -223 -111 -223 -228c0 -88 36 -119 38 -122c11 3 15 -4 15 -14c0 -18 -27 -84 -56 -62c-16 15 -73 75 -73 192c0 185 120 309 298 309
c146 0 244 -102 244 -244c0 -136 -85 -242 -190 -291c99 -57 87 -192 155 -265c5 -6 19 -6 19 -14c0 -19 -52 -52 -68 -52c-5 0 -9 2 -13 6c-98 111 -49 257 -185 294v-139c0 -17 -13 -23 -28 -23c-23 0 -50 14 -50 29zM410 853l-89 -95c-8 -13 -22 -18 -33 -18
c-27 0 -39 12 -39 23c0 5 4 10 8 15l91 105c2 11 19 19 33 19c19 0 41 -12 41 -29c0 -9 -7 -14 -12 -20z" />
    <glyph glyph-name="racute" unicode="&#x155;" horiz-adv-x="307" 
d="M253 -28c-47 0 -103 26 -103 114c0 64 18 135 50 221h-76h-11c-1 -39 -7 -126 -25 -184c-13 -42 -65 -6 -56 28c11 40 15 123 16 174c-25 14 -43 35 -43 64c0 28 24 46 50 46c24 0 52 -12 63 -53c33 -4 43 -4 53 -4h52c12 0 52 -33 48 -56c0 -12 -45 -130 -45 -230
c0 -28 13 -54 40 -54c46 0 63 64 72 108c4 21 14 30 24 30c16 0 35 -22 35 -41c0 -3 -1 -5 -1 -7c-18 -66 -57 -156 -143 -156zM248 567l-89 -95c-8 -13 -22 -18 -33 -18c-27 0 -39 12 -39 23c0 5 4 10 8 15l91 105c2 11 19 19 33 19c19 0 41 -12 41 -29
c0 -9 -7 -14 -12 -20z" />
    <glyph glyph-name="Rcommaaccent" unicode="&#x156;" horiz-adv-x="567" 
d="M200 1v523c0 19 -4 25 -4 32c0 10 12 17 26 17c33 0 56 -20 56 -44v-327c76 14 205 83 205 252c0 76 -49 171 -166 171c-154 0 -223 -111 -223 -228c0 -88 36 -119 38 -122c11 3 15 -4 15 -14c0 -18 -27 -84 -56 -62c-16 15 -73 75 -73 192c0 185 120 309 298 309
c146 0 244 -102 244 -244c0 -136 -85 -242 -190 -291c99 -57 87 -192 155 -265c5 -6 19 -6 19 -14c0 -19 -52 -52 -68 -52c-5 0 -9 2 -13 6c-98 111 -49 257 -185 294v-139c0 -17 -13 -23 -28 -23c-23 0 -50 14 -50 29zM315 -62c24 0 46 -17 46 -54c0 -38 -45 -101 -68 -101
c-16 0 -27 17 -27 28c0 5 3 5 6 7c7 2 19 14 31 32c-19 4 -34 20 -34 44c0 28 23 44 46 44z" />
    <glyph glyph-name="rcommaaccent" unicode="&#x157;" horiz-adv-x="307" 
d="M253 -28c-47 0 -103 26 -103 114c0 64 18 135 50 221h-76h-11c-1 -39 -7 -126 -25 -184c-13 -42 -65 -6 -56 28c11 40 15 123 16 174c-25 14 -43 35 -43 64c0 28 24 46 50 46c24 0 52 -12 63 -53c33 -4 43 -4 53 -4h52c12 0 52 -33 48 -56c0 -12 -45 -130 -45 -230
c0 -28 13 -54 40 -54c46 0 63 64 72 108c4 21 14 30 24 30c16 0 35 -22 35 -41c0 -3 -1 -5 -1 -7c-18 -66 -57 -156 -143 -156zM135 -52c24 0 46 -17 46 -54c0 -38 -45 -101 -68 -101c-16 0 -27 17 -27 28c0 5 3 5 6 7c7 2 19 14 31 32c-19 4 -34 20 -34 44
c0 28 23 44 46 44z" />
    <glyph glyph-name="Rcaron" unicode="&#x158;" horiz-adv-x="567" 
d="M200 1v523c0 19 -4 25 -4 32c0 10 12 17 26 17c33 0 56 -20 56 -44v-327c76 14 205 83 205 252c0 76 -49 171 -166 171c-154 0 -223 -111 -223 -228c0 -88 36 -119 38 -122c11 3 15 -4 15 -14c0 -18 -27 -84 -56 -62c-16 15 -73 75 -73 192c0 185 120 309 298 309
c146 0 244 -102 244 -244c0 -136 -85 -242 -190 -291c99 -57 87 -192 155 -265c5 -6 19 -6 19 -14c0 -19 -52 -52 -68 -52c-5 0 -9 2 -13 6c-98 111 -49 257 -185 294v-139c0 -17 -13 -23 -28 -23c-23 0 -50 14 -50 29zM278 768l-66 96c-4 5 -8 10 -8 15c0 11 18 23 45 23
c11 0 19 -5 22 -10l49 -76l43 69c2 8 9 17 24 17c18 0 42 -16 42 -30c0 -4 -6 -12 -7 -13l-64 -92c-6 -18 -15 -27 -32 -27c-27 0 -32 7 -48 28z" />
    <glyph glyph-name="rcaron" unicode="&#x159;" horiz-adv-x="307" 
d="M253 -28c-47 0 -103 26 -103 114c0 64 18 135 50 221h-76h-11c-1 -39 -7 -126 -25 -184c-13 -42 -65 -6 -56 28c11 40 15 123 16 174c-25 14 -43 35 -43 64c0 28 24 46 50 46c24 0 52 -12 63 -53c33 -4 43 -4 53 -4h52c12 0 52 -33 48 -56c0 -12 -45 -130 -45 -230
c0 -28 13 -54 40 -54c46 0 63 64 72 108c4 21 14 30 24 30c16 0 35 -22 35 -41c0 -3 -1 -5 -1 -7c-18 -66 -57 -156 -143 -156zM116 482l-66 96c-4 5 -8 10 -8 15c0 11 18 23 45 23c11 0 19 -5 22 -10l49 -76l43 69c2 8 9 17 24 17c18 0 42 -16 42 -30c0 -4 -6 -12 -7 -13
l-64 -92c-6 -18 -15 -27 -32 -27c-27 0 -32 7 -48 28z" />
    <glyph glyph-name="Sacute" unicode="&#x15a;" horiz-adv-x="414" 
d="M202 -36c-85 0 -108 44 -108 50c0 23 24 58 39 58c5 0 8 -3 11 -9c3 -3 20 -24 58 -24c41 0 70 27 70 70c0 119 -244 124 -244 328c0 132 144 272 280 272c78 0 126 -51 126 -129c0 -111 -129 -216 -190 -216c-35 0 -56 37 -56 58c0 17 9 7 26 7c54 0 144 84 144 150
c0 34 -15 55 -55 55c-74 0 -197 -88 -197 -197c0 -155 245 -158 245 -325c0 -81 -65 -148 -149 -148zM377 863l-89 -95c-8 -13 -22 -18 -33 -18c-27 0 -39 12 -39 23c0 5 4 10 8 15l91 105c2 11 19 19 33 19c19 0 41 -12 41 -29c0 -9 -7 -14 -12 -20z" />
    <glyph glyph-name="sacute" unicode="&#x15b;" horiz-adv-x="319" 
d="M92 137c-11 -42 -66 -14 -58 20c10 44 31 101 49 154c-10 15 -16 30 -16 47c0 34 58 79 85 79c24 0 36 -18 36 -45c0 -29 -23 -62 -24 -68c47 -83 108 -119 108 -214c0 -12 -2 -25 -5 -36c47 10 71 40 82 72c7 19 14 27 23 27c17 0 36 -26 36 -40c0 -20 -23 -58 -46 -77
c-31 -25 -72 -44 -134 -48c-24 -21 -57 -36 -98 -36c-42 0 -90 23 -110 42c-49 47 -22 100 0 100c20 0 111 -58 161 -58c11 13 22 36 22 61c0 63 -37 105 -72 141c-16 -39 -26 -73 -39 -121zM241 600l-89 -95c-8 -13 -22 -18 -33 -18c-27 0 -39 12 -39 23c0 5 4 10 8 15
l91 105c2 11 19 19 33 19c19 0 41 -12 41 -29c0 -9 -7 -14 -12 -20z" />
    <glyph glyph-name="Scircumflex" unicode="&#x15c;" horiz-adv-x="414" 
d="M202 -36c-85 0 -108 44 -108 50c0 23 24 58 39 58c5 0 8 -3 11 -9c3 -3 20 -24 58 -24c41 0 70 27 70 70c0 119 -244 124 -244 328c0 132 144 272 280 272c78 0 126 -51 126 -129c0 -111 -129 -216 -190 -216c-35 0 -56 37 -56 58c0 17 9 7 26 7c54 0 144 84 144 150
c0 34 -15 55 -55 55c-74 0 -197 -88 -197 -197c0 -155 245 -158 245 -325c0 -81 -65 -148 -149 -148zM326 884l66 -96c4 -5 8 -10 8 -15c0 -11 -18 -23 -45 -23c-11 0 -19 5 -22 10l-49 76l-43 -69c-5 -9 -9 -17 -24 -17c-18 0 -43 17 -43 31c0 2 1 3 2 4l70 100
c12 18 29 27 46 27c24 0 26 -9 34 -28z" />
    <glyph glyph-name="scircumflex" unicode="&#x15d;" horiz-adv-x="319" 
d="M92 137c-11 -42 -66 -14 -58 20c10 44 31 101 49 154c-10 15 -16 30 -16 47c0 34 58 79 85 79c24 0 36 -18 36 -45c0 -29 -23 -62 -24 -68c47 -83 108 -119 108 -214c0 -12 -2 -25 -5 -36c47 10 71 40 82 72c7 19 14 27 23 27c17 0 36 -26 36 -40c0 -20 -23 -58 -46 -77
c-31 -25 -72 -44 -134 -48c-24 -21 -57 -36 -98 -36c-42 0 -90 23 -110 42c-49 47 -22 100 0 100c20 0 111 -58 161 -58c11 13 22 36 22 61c0 63 -37 105 -72 141c-16 -39 -26 -73 -39 -121zM190 621l66 -96c4 -5 8 -10 8 -15c0 -11 -18 -23 -45 -23c-11 0 -19 5 -22 10
l-49 76l-43 -69c-5 -9 -9 -17 -24 -17c-18 0 -43 17 -43 31c0 2 1 3 2 4l70 100c12 18 29 27 46 27c24 0 26 -9 34 -28z" />
    <glyph glyph-name="Scedilla" unicode="&#x15e;" horiz-adv-x="414" 
d="M351 112c0 -72 -51 -132 -121 -145l-10 -29c70 -12 81 -60 81 -87c0 -36 -28 -95 -108 -95c-57 0 -78 13 -78 43c0 9 5 29 14 24c14 -7 38 -9 53 -9c35 0 58 16 58 43c0 49 -81 8 -81 55c0 8 9 37 14 54c-61 8 -79 42 -79 48c0 23 24 58 39 58c5 0 8 -3 11 -9
c3 -3 20 -24 58 -24c41 0 70 27 70 70c0 119 -244 124 -244 328c0 132 144 272 280 272c78 0 126 -51 126 -129c0 -111 -129 -216 -190 -216c-35 0 -56 37 -56 58c0 17 9 7 26 7c54 0 144 84 144 150c0 34 -15 55 -55 55c-74 0 -197 -88 -197 -197c0 -155 245 -158 245 -325
z" />
    <glyph glyph-name="scedilla" unicode="&#x15f;" horiz-adv-x="319" 
d="M92 137c-11 -42 -66 -14 -58 20c10 44 31 101 49 154c-10 15 -16 30 -16 47c0 34 58 79 85 79c24 0 36 -18 36 -45c0 -29 -23 -62 -24 -68c47 -83 108 -119 108 -214c0 -12 -2 -25 -5 -36c47 10 71 40 82 72c7 19 14 27 23 27c17 0 36 -26 36 -40c0 -20 -23 -58 -46 -77
c-31 -25 -72 -44 -134 -48c-17 -15 -39 -27 -65 -32l-9 -28c70 -12 81 -60 81 -87c0 -36 -28 -95 -108 -95c-57 0 -78 13 -78 43c0 9 5 29 14 24c14 -7 38 -9 53 -9c35 0 58 16 58 43c0 49 -81 8 -81 55c0 8 8 35 14 52c-36 6 -71 25 -87 40c-49 47 -22 100 0 100
c20 0 111 -58 161 -58c11 13 22 36 22 61c0 63 -37 105 -72 141c-16 -39 -26 -73 -39 -121z" />
    <glyph glyph-name="Scaron" unicode="&#x160;" horiz-adv-x="414" 
d="M202 -36c-85 0 -108 44 -108 50c0 23 24 58 39 58c5 0 8 -3 11 -9c3 -3 20 -24 58 -24c41 0 70 27 70 70c0 119 -244 124 -244 328c0 132 144 272 280 272c78 0 126 -51 126 -129c0 -111 -129 -216 -190 -216c-35 0 -56 37 -56 58c0 17 9 7 26 7c54 0 144 84 144 150
c0 34 -15 55 -55 55c-74 0 -197 -88 -197 -197c0 -155 245 -158 245 -325c0 -81 -65 -148 -149 -148zM245 778l-66 96c-4 5 -8 10 -8 15c0 11 18 23 45 23c11 0 19 -5 22 -10l49 -76l43 69c2 8 9 17 24 17c18 0 42 -16 42 -30c0 -4 -6 -12 -7 -13l-64 -92
c-6 -18 -15 -27 -32 -27c-27 0 -32 7 -48 28z" />
    <glyph glyph-name="scaron" unicode="&#x161;" horiz-adv-x="319" 
d="M92 137c-11 -42 -66 -14 -58 20c10 44 31 101 49 154c-10 15 -16 30 -16 47c0 34 58 79 85 79c24 0 36 -18 36 -45c0 -29 -23 -62 -24 -68c47 -83 108 -119 108 -214c0 -12 -2 -25 -5 -36c47 10 71 40 82 72c7 19 14 27 23 27c17 0 36 -26 36 -40c0 -20 -23 -58 -46 -77
c-31 -25 -72 -44 -134 -48c-24 -21 -57 -36 -98 -36c-42 0 -90 23 -110 42c-49 47 -22 100 0 100c20 0 111 -58 161 -58c11 13 22 36 22 61c0 63 -37 105 -72 141c-16 -39 -26 -73 -39 -121zM109 515l-66 96c-4 5 -8 10 -8 15c0 11 18 23 45 23c11 0 19 -5 22 -10l49 -76
l43 69c2 8 9 17 24 17c18 0 42 -16 42 -30c0 -4 -6 -12 -7 -13l-64 -92c-6 -18 -15 -27 -32 -27c-27 0 -32 7 -48 28z" />
    <glyph glyph-name="Tcommaaccent" unicode="&#x162;" horiz-adv-x="513" 
d="M412 56c0 -88 -23 -123 -56 -123c-25 0 -65 39 -65 58c0 13 7 5 17 5c18 0 26 22 26 73v552c-124 -10 -237 -61 -237 -216c0 -69 31 -110 57 -136c11 3 15 -4 15 -14c0 -26 -25 -59 -48 -59c-5 0 -10 1 -15 5c-29 21 -88 98 -88 204c0 192 151 295 359 295
c48 0 149 -2 168 -2c17 0 21 8 24 8c6 0 12 -18 12 -33c0 -24 -13 -53 -39 -53c-14 0 -83 2 -130 3v-567zM359 -113c24 0 46 -17 46 -54c0 -38 -45 -101 -68 -101c-16 0 -27 17 -27 28c0 5 3 5 6 7c7 2 19 14 31 32c-19 4 -34 20 -34 44c0 28 23 44 46 44z" />
    <glyph glyph-name="tcommaaccent" unicode="&#x163;" horiz-adv-x="181" 
d="M-55 470c0 0 36 -2 90 -3v169c0 29 -10 31 -10 38s18 11 32 11c33 0 54 -20 54 -44v-175c61 0 131 1 199 4c28 30 19 -66 -7 -67c-80 -2 -139 -2 -192 -2v-317c0 -32 13 -46 34 -46c40 0 58 64 67 108c4 21 14 30 24 30c16 0 35 -22 35 -41c0 -1 0 -3 -1 -7
c-17 -66 -57 -156 -143 -156c-54 0 -92 32 -92 111v318c-44 0 -69 2 -69 2c-32 0 -50 67 -21 67zM122 -62c24 0 46 -17 46 -54c0 -38 -45 -101 -68 -101c-16 0 -27 17 -27 28c0 5 3 5 6 7c7 2 19 14 31 32c-19 4 -34 20 -34 44c0 28 23 44 46 44z" />
    <glyph glyph-name="Tcaron" unicode="&#x164;" horiz-adv-x="513" 
d="M412 56c0 -88 -23 -123 -56 -123c-25 0 -65 39 -65 58c0 13 7 5 17 5c18 0 26 22 26 73v552c-124 -10 -237 -61 -237 -216c0 -69 31 -110 57 -136c11 3 15 -4 15 -14c0 -26 -25 -59 -48 -59c-5 0 -10 1 -15 5c-29 21 -88 98 -88 204c0 192 151 295 359 295
c48 0 149 -2 168 -2c17 0 21 8 24 8c6 0 12 -18 12 -33c0 -24 -13 -53 -39 -53c-14 0 -83 2 -130 3v-567zM333 770l-66 96c-4 5 -8 10 -8 15c0 11 18 23 45 23c11 0 19 -5 22 -10l49 -76l43 69c2 8 9 17 24 17c18 0 42 -16 42 -30c0 -4 -6 -12 -7 -13l-64 -92
c-6 -18 -15 -27 -32 -27c-27 0 -32 7 -48 28z" />
    <glyph glyph-name="tcaron" unicode="&#x165;" horiz-adv-x="238" 
d="M-55 470c0 0 36 -2 90 -3v169c0 29 -10 31 -10 38s18 11 32 11c33 0 54 -20 54 -44v-175c61 0 131 1 199 4c28 30 19 -66 -7 -67c-80 -2 -139 -2 -192 -2v-317c0 -32 13 -46 34 -46c40 0 58 64 67 108c4 21 14 30 24 30c16 0 35 -22 35 -41c0 -1 0 -3 -1 -7
c-17 -66 -57 -156 -143 -156c-54 0 -92 32 -92 111v318c-44 0 -69 2 -69 2c-32 0 -50 67 -21 67zM194 667c24 0 46 -17 46 -54c0 -38 -45 -101 -68 -101c-16 0 -27 17 -27 28c0 5 3 5 6 7c7 2 19 14 31 32c-19 4 -34 20 -34 44c0 28 23 44 46 44z" />
    <glyph glyph-name="Tbar" unicode="&#x166;" horiz-adv-x="513" 
d="M412 56c0 -88 -23 -123 -56 -123c-25 0 -65 39 -65 58c0 13 7 5 17 5c18 0 26 22 26 73v339h-115c-18 0 -26 9 -26 23c0 27 13 43 36 43h105v147c-124 -10 -237 -61 -237 -216c0 -69 31 -110 57 -136c11 3 15 -4 15 -14c0 -26 -25 -59 -48 -59c-5 0 -10 1 -15 5
c-29 21 -88 98 -88 204c0 192 151 295 359 295c48 0 149 -2 168 -2c17 0 21 8 24 8c6 0 12 -18 12 -33c0 -24 -13 -53 -39 -53c-14 0 -83 2 -130 3v-149h109c17 2 22 -9 22 -26c0 -19 -10 -41 -26 -41c-1 0 -3 0 -5 1h-100v-352z" />
    <glyph glyph-name="tbar" unicode="&#x167;" horiz-adv-x="181" 
d="M145 38c40 0 58 64 67 108c4 21 14 30 24 30c16 0 35 -22 35 -41c0 -1 0 -3 -1 -7c-17 -66 -57 -156 -143 -156c-54 0 -92 32 -92 111v174h-56c-18 0 -26 9 -26 23c0 27 13 42 36 42h46v79c-44 0 -69 2 -69 2c-32 0 -50 67 -21 67c0 0 36 -2 90 -3v169
c0 29 -10 31 -10 38s18 11 32 11c33 0 54 -20 54 -44v-175c61 0 131 1 199 4c28 30 19 -66 -7 -67c-80 -2 -139 -2 -192 -2v-79h80c17 2 22 -8 22 -25c0 -19 -10 -41 -26 -41c-1 0 -3 0 -5 1h-71v-173c0 -32 13 -46 34 -46z" />
    <glyph glyph-name="Ugrave" unicode="&#xd9;" horiz-adv-x="616" 
d="M481 94v2c-41 -69 -95 -124 -152 -124c-28 0 -68 21 -68 87v563c-90 -11 -164 -78 -164 -204c0 -80 40 -131 53 -131c6 0 11 4 16 4s8 -5 8 -12c0 -42 -43 -81 -72 -60c-35 24 -84 98 -84 199c0 212 163 282 281 282c21 0 40 -18 40 -42v-593c0 -13 5 -14 9 -14
c30 0 133 135 133 220v380c0 19 -4 25 -4 32c0 10 12 17 26 17c33 0 56 -20 56 -44v-434c0 -131 5 -187 9 -219c2 -3 3 -5 3 -7c0 -13 -29 -24 -51 -24c-35 0 -36 41 -39 122zM403 749l-94 103c-5 6 -8 12 -8 17c0 19 28 32 41 32c14 0 22 -9 29 -19l91 -105
c4 -5 8 -10 8 -15c0 -11 -18 -23 -45 -23c-11 0 -19 5 -22 10z" />
    <glyph glyph-name="ugrave" unicode="&#xf9;" horiz-adv-x="364" 
d="M310 -28c-45 0 -75 31 -82 71c-24 -42 -56 -72 -100 -72c-67 0 -106 57 -106 144c0 106 36 225 36 225c7 17 0 37 53 37c49 0 20 -40 16 -55c-18 -74 -29 -118 -29 -202c0 -54 17 -83 46 -83c40 0 70 65 82 135v161c0 29 -10 31 -10 38s18 11 32 11c33 0 54 -20 54 -44
v-254c0 -9 0 -46 26 -46c40 0 58 64 67 108c4 21 14 30 24 30c16 0 35 -22 35 -41c0 -1 0 -3 -1 -7c-18 -66 -57 -156 -143 -156zM180 447l-94 103c-5 6 -8 12 -8 17c0 19 28 32 41 32c14 0 22 -9 29 -19l91 -105c4 -5 8 -10 8 -15c0 -11 -18 -23 -45 -23
c-11 0 -19 5 -22 10z" />
    <glyph glyph-name="Uacute" unicode="&#xda;" horiz-adv-x="616" 
d="M481 94v2c-41 -69 -95 -124 -152 -124c-28 0 -68 21 -68 87v563c-90 -11 -164 -78 -164 -204c0 -80 40 -131 53 -131c6 0 11 4 16 4s8 -5 8 -12c0 -42 -43 -81 -72 -60c-35 24 -84 98 -84 199c0 212 163 282 281 282c21 0 40 -18 40 -42v-593c0 -13 5 -14 9 -14
c30 0 133 135 133 220v380c0 19 -4 25 -4 32c0 10 12 17 26 17c33 0 56 -20 56 -44v-434c0 -131 5 -187 9 -219c2 -3 3 -5 3 -7c0 -13 -29 -24 -51 -24c-35 0 -36 41 -39 122zM493 852l-89 -95c-8 -13 -22 -18 -33 -18c-27 0 -39 12 -39 23c0 5 4 10 8 15l91 105
c2 11 19 19 33 19c19 0 41 -12 41 -29c0 -9 -7 -14 -12 -20z" />
    <glyph glyph-name="uacute" unicode="&#xfa;" horiz-adv-x="364" 
d="M310 -28c-45 0 -75 31 -82 71c-24 -42 -56 -72 -100 -72c-67 0 -106 57 -106 144c0 106 36 225 36 225c7 17 0 37 53 37c49 0 20 -40 16 -55c-18 -74 -29 -118 -29 -202c0 -54 17 -83 46 -83c40 0 70 65 82 135v161c0 29 -10 31 -10 38s18 11 32 11c33 0 54 -20 54 -44
v-254c0 -9 0 -46 26 -46c40 0 58 64 67 108c4 21 14 30 24 30c16 0 35 -22 35 -41c0 -1 0 -3 -1 -7c-18 -66 -57 -156 -143 -156zM270 550l-89 -95c-8 -13 -22 -18 -33 -18c-27 0 -39 12 -39 23c0 5 4 10 8 15l91 105c2 11 19 19 33 19c19 0 41 -12 41 -29
c0 -9 -7 -14 -12 -20z" />
    <glyph glyph-name="Ucircumflex" unicode="&#xdb;" horiz-adv-x="616" 
d="M481 94v2c-41 -69 -95 -124 -152 -124c-28 0 -68 21 -68 87v563c-90 -11 -164 -78 -164 -204c0 -80 40 -131 53 -131c6 0 11 4 16 4s8 -5 8 -12c0 -42 -43 -81 -72 -60c-35 24 -84 98 -84 199c0 212 163 282 281 282c21 0 40 -18 40 -42v-593c0 -13 5 -14 9 -14
c30 0 133 135 133 220v380c0 19 -4 25 -4 32c0 10 12 17 26 17c33 0 56 -20 56 -44v-434c0 -131 5 -187 9 -219c2 -3 3 -5 3 -7c0 -13 -29 -24 -51 -24c-35 0 -36 41 -39 122zM442 873l66 -96c4 -5 8 -10 8 -15c0 -11 -18 -23 -45 -23c-11 0 -19 5 -22 10l-49 76l-43 -69
c-5 -9 -9 -17 -24 -17c-18 0 -43 17 -43 31c0 2 1 3 2 4l70 100c12 18 29 27 46 27c24 0 26 -9 34 -28z" />
    <glyph glyph-name="ucircumflex" unicode="&#xfb;" horiz-adv-x="364" 
d="M310 -28c-45 0 -75 31 -82 71c-24 -42 -56 -72 -100 -72c-67 0 -106 57 -106 144c0 106 36 225 36 225c7 17 0 37 53 37c49 0 20 -40 16 -55c-18 -74 -29 -118 -29 -202c0 -54 17 -83 46 -83c40 0 70 65 82 135v161c0 29 -10 31 -10 38s18 11 32 11c33 0 54 -20 54 -44
v-254c0 -9 0 -46 26 -46c40 0 58 64 67 108c4 21 14 30 24 30c16 0 35 -22 35 -41c0 -1 0 -3 -1 -7c-18 -66 -57 -156 -143 -156zM219 571l66 -96c4 -5 8 -10 8 -15c0 -11 -18 -23 -45 -23c-11 0 -19 5 -22 10l-49 76l-43 -69c-5 -9 -9 -17 -24 -17c-18 0 -43 17 -43 31
c0 2 1 3 2 4l70 100c12 18 29 27 46 27c24 0 26 -9 34 -28z" />
    <glyph glyph-name="Udieresis" unicode="&#xdc;" horiz-adv-x="616" 
d="M481 94v2c-41 -69 -95 -124 -152 -124c-28 0 -68 21 -68 87v563c-90 -11 -164 -78 -164 -204c0 -80 40 -131 53 -131c6 0 11 4 16 4s8 -5 8 -12c0 -42 -43 -81 -72 -60c-35 24 -84 98 -84 199c0 212 163 282 281 282c21 0 40 -18 40 -42v-593c0 -13 5 -14 9 -14
c30 0 133 135 133 220v380c0 19 -4 25 -4 32c0 10 12 17 26 17c33 0 56 -20 56 -44v-434c0 -131 5 -187 9 -219c2 -3 3 -5 3 -7c0 -13 -29 -24 -51 -24c-35 0 -36 41 -39 122zM284 806c0 26 21 47 47 47s47 -21 47 -47s-21 -47 -47 -47s-47 21 -47 47zM428 806
c0 26 21 47 47 47s47 -21 47 -47s-21 -47 -47 -47s-47 21 -47 47z" />
    <glyph glyph-name="udieresis" unicode="&#xfc;" horiz-adv-x="364" 
d="M310 -28c-45 0 -75 31 -82 71c-24 -42 -56 -72 -100 -72c-67 0 -106 57 -106 144c0 106 36 225 36 225c7 17 0 37 53 37c49 0 20 -40 16 -55c-18 -74 -29 -118 -29 -202c0 -54 17 -83 46 -83c40 0 70 65 82 135v161c0 29 -10 31 -10 38s18 11 32 11c33 0 54 -20 54 -44
v-254c0 -9 0 -46 26 -46c40 0 58 64 67 108c4 21 14 30 24 30c16 0 35 -22 35 -41c0 -1 0 -3 -1 -7c-18 -66 -57 -156 -143 -156zM61 504c0 26 21 47 47 47s47 -21 47 -47s-21 -47 -47 -47s-47 21 -47 47zM205 504c0 26 21 47 47 47s47 -21 47 -47s-21 -47 -47 -47
s-47 21 -47 47z" />
    <glyph glyph-name="Utilde" unicode="&#x168;" horiz-adv-x="616" 
d="M481 94v2c-41 -69 -95 -124 -152 -124c-28 0 -68 21 -68 87v563c-90 -11 -164 -78 -164 -204c0 -80 40 -131 53 -131c6 0 11 4 16 4s8 -5 8 -12c0 -42 -43 -81 -72 -60c-35 24 -84 98 -84 199c0 212 163 282 281 282c21 0 40 -18 40 -42v-593c0 -13 5 -14 9 -14
c30 0 133 135 133 220v380c0 19 -4 25 -4 32c0 10 12 17 26 17c33 0 56 -20 56 -44v-434c0 -131 5 -187 9 -219c2 -3 3 -5 3 -7c0 -13 -29 -24 -51 -24c-35 0 -36 41 -39 122zM337 772c0 -9 -13 -13 -23 -13c-17 0 -36 9 -36 20c0 39 31 91 76 91c54 0 69 -53 100 -53
c13 0 20 12 20 31c0 15 16 20 27 20c16 0 34 -9 34 -18c0 -64 -45 -96 -79 -96c-53 0 -78 55 -93 55c-19 0 -23 -20 -26 -37z" />
    <glyph glyph-name="utilde" unicode="&#x169;" horiz-adv-x="364" 
d="M310 -28c-45 0 -75 31 -82 71c-24 -42 -56 -72 -100 -72c-67 0 -106 57 -106 144c0 106 36 225 36 225c7 17 0 37 53 37c49 0 20 -40 16 -55c-18 -74 -29 -118 -29 -202c0 -54 17 -83 46 -83c40 0 70 65 82 135v161c0 29 -10 31 -10 38s18 11 32 11c33 0 54 -20 54 -44
v-254c0 -9 0 -46 26 -46c40 0 58 64 67 108c4 21 14 30 24 30c16 0 35 -22 35 -41c0 -1 0 -3 -1 -7c-18 -66 -57 -156 -143 -156zM114 470c0 -9 -13 -13 -23 -13c-17 0 -36 9 -36 20c0 39 31 91 76 91c54 0 69 -53 100 -53c13 0 20 12 20 31c0 15 16 20 27 20
c16 0 34 -9 34 -18c0 -64 -45 -96 -79 -96c-53 0 -78 55 -93 55c-19 0 -23 -20 -26 -37z" />
    <glyph glyph-name="Umacron" unicode="&#x16a;" horiz-adv-x="616" 
d="M481 94v2c-41 -69 -95 -124 -152 -124c-28 0 -68 21 -68 87v563c-90 -11 -164 -78 -164 -204c0 -80 40 -131 53 -131c6 0 11 4 16 4s8 -5 8 -12c0 -42 -43 -81 -72 -60c-35 24 -84 98 -84 199c0 212 163 282 281 282c21 0 40 -18 40 -42v-593c0 -13 5 -14 9 -14
c30 0 133 135 133 220v380c0 19 -4 25 -4 32c0 10 12 17 26 17c33 0 56 -20 56 -44v-434c0 -131 5 -187 9 -219c2 -3 3 -5 3 -7c0 -13 -29 -24 -51 -24c-35 0 -36 41 -39 122zM324 831h172c17 2 22 -9 22 -26c0 -19 -10 -41 -26 -41c-1 0 -3 0 -5 1h-173c-18 0 -26 9 -26 23
c0 27 13 43 36 43z" />
    <glyph glyph-name="umacron" unicode="&#x16b;" horiz-adv-x="364" 
d="M310 -28c-45 0 -75 31 -82 71c-24 -42 -56 -72 -100 -72c-67 0 -106 57 -106 144c0 106 36 225 36 225c7 17 0 37 53 37c49 0 20 -40 16 -55c-18 -74 -29 -118 -29 -202c0 -54 17 -83 46 -83c40 0 70 65 82 135v161c0 29 -10 31 -10 38s18 11 32 11c33 0 54 -20 54 -44
v-254c0 -9 0 -46 26 -46c40 0 58 64 67 108c4 21 14 30 24 30c16 0 35 -22 35 -41c0 -1 0 -3 -1 -7c-18 -66 -57 -156 -143 -156zM101 529h172c17 2 22 -9 22 -26c0 -19 -10 -41 -26 -41c-1 0 -3 0 -5 1h-173c-18 0 -26 9 -26 23c0 27 13 43 36 43z" />
    <glyph glyph-name="Ubreve" unicode="&#x16c;" horiz-adv-x="616" 
d="M481 94v2c-41 -69 -95 -124 -152 -124c-28 0 -68 21 -68 87v563c-90 -11 -164 -78 -164 -204c0 -80 40 -131 53 -131c6 0 11 4 16 4s8 -5 8 -12c0 -42 -43 -81 -72 -60c-35 24 -84 98 -84 199c0 212 163 282 281 282c21 0 40 -18 40 -42v-593c0 -13 5 -14 9 -14
c30 0 133 135 133 220v380c0 19 -4 25 -4 32c0 10 12 17 26 17c33 0 56 -20 56 -44v-434c0 -131 5 -187 9 -219c2 -3 3 -5 3 -7c0 -13 -29 -24 -51 -24c-35 0 -36 41 -39 122zM404 749c-49 0 -122 25 -122 119c0 11 18 23 45 23c11 0 19 -5 22 -10c2 -29 5 -71 54 -71
c48 0 47 40 47 63c2 8 10 18 25 18c18 0 42 -16 42 -30c0 -98 -79 -112 -113 -112z" />
    <glyph glyph-name="ubreve" unicode="&#x16d;" horiz-adv-x="364" 
d="M310 -28c-45 0 -75 31 -82 71c-24 -42 -56 -72 -100 -72c-67 0 -106 57 -106 144c0 106 36 225 36 225c7 17 0 37 53 37c49 0 20 -40 16 -55c-18 -74 -29 -118 -29 -202c0 -54 17 -83 46 -83c40 0 70 65 82 135v161c0 29 -10 31 -10 38s18 11 32 11c33 0 54 -20 54 -44
v-254c0 -9 0 -46 26 -46c40 0 58 64 67 108c4 21 14 30 24 30c16 0 35 -22 35 -41c0 -1 0 -3 -1 -7c-18 -66 -57 -156 -143 -156zM181 447c-49 0 -122 25 -122 119c0 11 18 23 45 23c11 0 19 -5 22 -10c2 -29 5 -71 54 -71c48 0 47 40 47 63c2 8 10 18 25 18
c18 0 42 -16 42 -30c0 -98 -79 -112 -113 -112z" />
    <glyph glyph-name="Uring" unicode="&#x16e;" horiz-adv-x="616" 
d="M481 94v2c-41 -69 -95 -124 -152 -124c-28 0 -68 21 -68 87v563c-90 -11 -164 -78 -164 -204c0 -80 40 -131 53 -131c6 0 11 4 16 4s8 -5 8 -12c0 -42 -43 -81 -72 -60c-35 24 -84 98 -84 199c0 212 163 282 281 282c21 0 40 -18 40 -42v-593c0 -13 5 -14 9 -14
c30 0 133 135 133 220v380c0 19 -4 25 -4 32c0 10 12 17 26 17c33 0 56 -20 56 -44v-434c0 -131 5 -187 9 -219c2 -3 3 -5 3 -7c0 -13 -29 -24 -51 -24c-35 0 -36 41 -39 122zM300 832c0 57 46 103 103 103s103 -46 103 -103s-46 -103 -103 -103s-103 46 -103 103zM359 832
c0 -25 19 -44 44 -44c24 0 44 19 44 44c0 24 -20 44 -44 44c-25 0 -44 -20 -44 -44z" />
    <glyph glyph-name="uring" unicode="&#x16f;" horiz-adv-x="364" 
d="M310 -28c-45 0 -75 31 -82 71c-24 -42 -56 -72 -100 -72c-67 0 -106 57 -106 144c0 106 36 225 36 225c7 17 0 37 53 37c49 0 20 -40 16 -55c-18 -74 -29 -118 -29 -202c0 -54 17 -83 46 -83c40 0 70 65 82 135v161c0 29 -10 31 -10 38s18 11 32 11c33 0 54 -20 54 -44
v-254c0 -9 0 -46 26 -46c40 0 58 64 67 108c4 21 14 30 24 30c16 0 35 -22 35 -41c0 -1 0 -3 -1 -7c-18 -66 -57 -156 -143 -156zM77 530c0 57 46 103 103 103s103 -46 103 -103s-46 -103 -103 -103s-103 46 -103 103zM136 530c0 -25 19 -44 44 -44c24 0 44 19 44 44
c0 24 -20 44 -44 44c-25 0 -44 -20 -44 -44z" />
    <glyph glyph-name="Uhungarumlaut" unicode="&#x170;" horiz-adv-x="616" 
d="M481 94v2c-41 -69 -95 -124 -152 -124c-28 0 -68 21 -68 87v563c-90 -11 -164 -78 -164 -204c0 -80 40 -131 53 -131c6 0 11 4 16 4s8 -5 8 -12c0 -42 -43 -81 -72 -60c-35 24 -84 98 -84 199c0 212 163 282 281 282c21 0 40 -18 40 -42v-593c0 -13 5 -14 9 -14
c30 0 133 135 133 220v380c0 19 -4 25 -4 32c0 10 12 17 26 17c33 0 56 -20 56 -44v-434c0 -131 5 -187 9 -219c2 -3 3 -5 3 -7c0 -13 -29 -24 -51 -24c-35 0 -36 41 -39 122zM428 852l-64 -95c-5 -13 -18 -18 -29 -18c-27 0 -33 12 -36 23c-1 5 2 10 5 15l64 105
c-1 11 14 19 28 19c19 0 35 -12 39 -29c2 -9 -3 -14 -7 -20zM564 852l-74 -95c-6 -13 -19 -18 -30 -18c-27 0 -34 12 -36 23c-1 5 2 10 6 15l74 105c1 11 16 19 30 19c19 0 36 -12 39 -29c1 -9 -5 -14 -9 -20z" />
    <glyph glyph-name="uhungarumlaut" unicode="&#x171;" horiz-adv-x="364" 
d="M310 -28c-45 0 -75 31 -82 71c-24 -42 -56 -72 -100 -72c-67 0 -106 57 -106 144c0 106 36 225 36 225c7 17 0 37 53 37c49 0 20 -40 16 -55c-18 -74 -29 -118 -29 -202c0 -54 17 -83 46 -83c40 0 70 65 82 135v161c0 29 -10 31 -10 38s18 11 32 11c33 0 54 -20 54 -44
v-254c0 -9 0 -46 26 -46c40 0 58 64 67 108c4 21 14 30 24 30c16 0 35 -22 35 -41c0 -1 0 -3 -1 -7c-18 -66 -57 -156 -143 -156zM205 550l-64 -95c-5 -13 -18 -18 -29 -18c-27 0 -33 12 -36 23c-1 5 2 10 5 15l64 105c-1 11 14 19 28 19c19 0 35 -12 39 -29
c2 -9 -3 -14 -7 -20zM341 550l-74 -95c-6 -13 -19 -18 -30 -18c-27 0 -34 12 -36 23c-1 5 2 10 6 15l74 105c1 11 16 19 30 19c19 0 36 -12 39 -29c1 -9 -5 -14 -9 -20z" />
    <glyph glyph-name="Uogonek" unicode="&#x172;" horiz-adv-x="616" 
d="M481 94v2c-41 -69 -95 -124 -152 -124c-28 0 -68 21 -68 87v563c-90 -11 -164 -78 -164 -204c0 -80 40 -131 53 -131c6 0 11 4 16 4s8 -5 8 -12c0 -42 -43 -81 -72 -60c-35 24 -84 98 -84 199c0 212 163 282 281 282c21 0 40 -18 40 -42v-593c0 -13 5 -14 9 -14
c30 0 133 135 133 220v380c0 19 -4 25 -4 32c0 10 12 17 26 17c33 0 56 -20 56 -44v-434c0 -131 5 -187 9 -219c2 -3 3 -5 3 -7c0 -8 -7 -11 -15 -16c-38 -22 -88 -52 -88 -93c0 -19 11 -36 46 -36c15 0 45 2 59 9c9 5 14 -15 14 -24c0 -30 -21 -43 -78 -43
c-80 0 -108 49 -108 85c0 54 35 84 88 122c-5 20 -7 53 -8 94z" />
    <glyph glyph-name="uogonek" unicode="&#x173;" horiz-adv-x="364" 
d="M262 -13c-18 13 -30 35 -34 56c-24 -42 -56 -72 -100 -72c-67 0 -106 57 -106 144c0 106 36 225 36 225c7 17 0 37 53 37c49 0 20 -40 16 -55c-18 -74 -29 -118 -29 -202c0 -54 17 -83 46 -83c40 0 70 65 82 135v161c0 29 -10 31 -10 38s18 11 32 11c33 0 54 -20 54 -44
v-254c0 -9 0 -46 26 -46c40 0 58 64 67 108c4 21 14 30 24 30c16 0 35 -22 35 -41c0 -1 0 -3 -1 -7c-16 -59 -48 -130 -114 -157c-36 -15 -71 -48 -71 -78c0 -19 11 -36 46 -36c15 0 45 2 59 9c9 5 14 -15 14 -24c0 -30 -21 -43 -78 -43c-80 0 -108 49 -108 85
c0 41 23 73 61 103z" />
    <glyph glyph-name="Wcircumflex" unicode="&#x174;" horiz-adv-x="548" 
d="M486 586v-455c0 -117 -64 -159 -124 -159c-18 0 -63 4 -94 42c-28 -38 -68 -42 -86 -42c-62 0 -120 42 -120 159v455c0 50 -11 69 -35 77c-3 1 -4 2 -4 4c0 9 36 33 64 33c25 0 53 -23 53 -104v-475c0 -76 34 -76 47 -76c15 0 48 0 48 86v490c0 19 -4 25 -4 32
c0 10 12 17 26 17c33 0 56 -20 56 -44v-505c0 -76 32 -76 47 -76c13 0 48 0 48 76v475c0 81 28 104 52 104c29 0 65 -24 65 -33c0 -2 -1 -3 -4 -4c-26 -8 -35 -27 -35 -77zM315 846l66 -96c4 -5 8 -10 8 -15c0 -11 -18 -23 -45 -23c-11 0 -19 5 -22 10l-49 76l-43 -69
c-5 -9 -9 -17 -24 -17c-18 0 -43 17 -43 31c0 2 1 3 2 4l70 100c12 18 29 27 46 27c24 0 26 -9 34 -28z" />
    <glyph glyph-name="wcircumflex" unicode="&#x175;" horiz-adv-x="498" 
d="M210 109v224c0 19 -4 25 -4 32c0 10 12 17 26 17c33 0 54 -20 54 -44v-229c1 -42 10 -71 49 -71c38 0 50 33 50 71v224c0 19 -4 25 -4 32c0 10 12 17 26 17c33 0 54 -20 54 -44v-229c0 -62 -19 -137 -122 -137c-43 0 -77 22 -91 48c-13 -26 -53 -48 -91 -48
c-111 0 -122 84 -122 138v223c0 19 -4 25 -4 32c0 10 12 17 26 17c33 0 54 -20 54 -44v-229c0 -36 6 -71 49 -71c38 0 50 33 50 71zM285 571l66 -96c4 -5 8 -10 8 -15c0 -11 -18 -23 -45 -23c-11 0 -19 5 -22 10l-49 76l-43 -69c-5 -9 -9 -17 -24 -17c-18 0 -43 17 -43 31
c0 2 1 3 2 4l70 100c12 18 29 27 46 27c24 0 26 -9 34 -28z" />
    <glyph glyph-name="Wgrave" unicode="&#x1e80;" horiz-adv-x="548" 
d="M486 586v-455c0 -117 -64 -159 -124 -159c-18 0 -63 4 -94 42c-28 -38 -68 -42 -86 -42c-62 0 -120 42 -120 159v455c0 50 -11 69 -35 77c-3 1 -4 2 -4 4c0 9 36 33 64 33c25 0 53 -23 53 -104v-475c0 -76 34 -76 47 -76c15 0 48 0 48 86v490c0 19 -4 25 -4 32
c0 10 12 17 26 17c33 0 56 -20 56 -44v-505c0 -76 32 -76 47 -76c13 0 48 0 48 76v475c0 81 28 104 52 104c29 0 65 -24 65 -33c0 -2 -1 -3 -4 -4c-26 -8 -35 -27 -35 -77zM276 722l-94 103c-5 6 -8 12 -8 17c0 19 28 32 41 32c14 0 22 -9 29 -19l91 -105c4 -5 8 -10 8 -15
c0 -11 -18 -23 -45 -23c-11 0 -19 5 -22 10z" />
    <glyph glyph-name="wgrave" unicode="&#x1e81;" horiz-adv-x="498" 
d="M210 109v224c0 19 -4 25 -4 32c0 10 12 17 26 17c33 0 54 -20 54 -44v-229c1 -42 10 -71 49 -71c38 0 50 33 50 71v224c0 19 -4 25 -4 32c0 10 12 17 26 17c33 0 54 -20 54 -44v-229c0 -62 -19 -137 -122 -137c-43 0 -77 22 -91 48c-13 -26 -53 -48 -91 -48
c-111 0 -122 84 -122 138v223c0 19 -4 25 -4 32c0 10 12 17 26 17c33 0 54 -20 54 -44v-229c0 -36 6 -71 49 -71c38 0 50 33 50 71zM246 447l-94 103c-5 6 -8 12 -8 17c0 19 28 32 41 32c14 0 22 -9 29 -19l91 -105c4 -5 8 -10 8 -15c0 -11 -18 -23 -45 -23
c-11 0 -19 5 -22 10z" />
    <glyph glyph-name="Wacute" unicode="&#x1e82;" horiz-adv-x="548" 
d="M486 586v-455c0 -117 -64 -159 -124 -159c-18 0 -63 4 -94 42c-28 -38 -68 -42 -86 -42c-62 0 -120 42 -120 159v455c0 50 -11 69 -35 77c-3 1 -4 2 -4 4c0 9 36 33 64 33c25 0 53 -23 53 -104v-475c0 -76 34 -76 47 -76c15 0 48 0 48 86v490c0 19 -4 25 -4 32
c0 10 12 17 26 17c33 0 56 -20 56 -44v-505c0 -76 32 -76 47 -76c13 0 48 0 48 76v475c0 81 28 104 52 104c29 0 65 -24 65 -33c0 -2 -1 -3 -4 -4c-26 -8 -35 -27 -35 -77zM366 825l-89 -95c-8 -13 -22 -18 -33 -18c-27 0 -39 12 -39 23c0 5 4 10 8 15l91 105
c2 11 19 19 33 19c19 0 41 -12 41 -29c0 -9 -7 -14 -12 -20z" />
    <glyph glyph-name="wacute" unicode="&#x1e83;" horiz-adv-x="498" 
d="M210 109v224c0 19 -4 25 -4 32c0 10 12 17 26 17c33 0 54 -20 54 -44v-229c1 -42 10 -71 49 -71c38 0 50 33 50 71v224c0 19 -4 25 -4 32c0 10 12 17 26 17c33 0 54 -20 54 -44v-229c0 -62 -19 -137 -122 -137c-43 0 -77 22 -91 48c-13 -26 -53 -48 -91 -48
c-111 0 -122 84 -122 138v223c0 19 -4 25 -4 32c0 10 12 17 26 17c33 0 54 -20 54 -44v-229c0 -36 6 -71 49 -71c38 0 50 33 50 71zM336 550l-89 -95c-8 -13 -22 -18 -33 -18c-27 0 -39 12 -39 23c0 5 4 10 8 15l91 105c2 11 19 19 33 19c19 0 41 -12 41 -29
c0 -9 -7 -14 -12 -20z" />
    <glyph glyph-name="Wdieresis" unicode="&#x1e84;" horiz-adv-x="548" 
d="M486 586v-455c0 -117 -64 -159 -124 -159c-18 0 -63 4 -94 42c-28 -38 -68 -42 -86 -42c-62 0 -120 42 -120 159v455c0 50 -11 69 -35 77c-3 1 -4 2 -4 4c0 9 36 33 64 33c25 0 53 -23 53 -104v-475c0 -76 34 -76 47 -76c15 0 48 0 48 86v490c0 19 -4 25 -4 32
c0 10 12 17 26 17c33 0 56 -20 56 -44v-505c0 -76 32 -76 47 -76c13 0 48 0 48 76v475c0 81 28 104 52 104c29 0 65 -24 65 -33c0 -2 -1 -3 -4 -4c-26 -8 -35 -27 -35 -77zM157 779c0 26 21 47 47 47s47 -21 47 -47s-21 -47 -47 -47s-47 21 -47 47zM301 779
c0 26 21 47 47 47s47 -21 47 -47s-21 -47 -47 -47s-47 21 -47 47z" />
    <glyph glyph-name="wdieresis" unicode="&#x1e85;" horiz-adv-x="498" 
d="M210 109v224c0 19 -4 25 -4 32c0 10 12 17 26 17c33 0 54 -20 54 -44v-229c1 -42 10 -71 49 -71c38 0 50 33 50 71v224c0 19 -4 25 -4 32c0 10 12 17 26 17c33 0 54 -20 54 -44v-229c0 -62 -19 -137 -122 -137c-43 0 -77 22 -91 48c-13 -26 -53 -48 -91 -48
c-111 0 -122 84 -122 138v223c0 19 -4 25 -4 32c0 10 12 17 26 17c33 0 54 -20 54 -44v-229c0 -36 6 -71 49 -71c38 0 50 33 50 71zM127 504c0 26 21 47 47 47s47 -21 47 -47s-21 -47 -47 -47s-47 21 -47 47zM271 504c0 26 21 47 47 47s47 -21 47 -47s-21 -47 -47 -47
s-47 21 -47 47z" />
    <glyph glyph-name="Yacute" unicode="&#xdd;" horiz-adv-x="621" 
d="M559 656v-661v-30c19 3 37 4 53 5c47 3 22 -78 -13 -79c-15 0 -28 -1 -41 -2c-6 -115 -31 -243 -147 -243c-68 0 -112 51 -112 118c0 101 90 156 182 183v11v138c-41 -69 -95 -124 -152 -124c-28 0 -68 21 -68 87v563c-90 -11 -164 -78 -164 -204c0 -80 40 -131 53 -131
c6 0 11 4 16 4s8 -5 8 -12c0 -42 -43 -81 -72 -60c-35 24 -84 98 -84 199c0 212 163 282 281 282c21 0 40 -18 40 -42v-593c0 -13 5 -14 9 -14c30 0 133 135 133 220v380c0 19 -4 25 -4 32c0 10 12 17 26 17c33 0 56 -20 56 -44zM413 -277c45 0 61 71 66 150
c-66 -20 -102 -57 -102 -107c0 -30 16 -43 36 -43zM495 853l-89 -95c-8 -13 -22 -18 -33 -18c-27 0 -39 12 -39 23c0 5 4 10 8 15l91 105c2 11 19 19 33 19c19 0 41 -12 41 -29c0 -9 -7 -14 -12 -20z" />
    <glyph glyph-name="yacute" unicode="&#xfd;" horiz-adv-x="359" 
d="M390 146c6 21 14 30 24 30c16 0 35 -22 35 -41c0 -1 0 -6 -1 -10c-34 -116 -92 -175 -146 -222v-173c0 -105 -53 -142 -104 -142c-56 0 -96 51 -96 115c0 101 58 152 124 210v127c-24 -40 -55 -69 -98 -69c-67 0 -106 57 -106 144c0 106 36 225 36 225c7 17 0 37 53 37
c49 0 20 -40 16 -55c-18 -74 -29 -118 -29 -202c0 -54 17 -83 46 -83c40 0 70 65 82 135v161c0 19 -4 25 -4 32c0 10 12 17 26 17c33 0 54 -20 54 -44v-351c36 40 68 90 88 159zM198 -349c32 0 28 60 28 79v107c-32 -33 -54 -71 -54 -131c0 -31 10 -55 26 -55zM281 550
l-89 -95c-8 -13 -22 -18 -33 -18c-27 0 -39 12 -39 23c0 5 4 10 8 15l91 105c2 11 19 19 33 19c19 0 41 -12 41 -29c0 -9 -7 -14 -12 -20z" />
    <glyph glyph-name="Ycircumflex" unicode="&#x176;" horiz-adv-x="621" 
d="M559 656v-661v-30c19 3 37 4 53 5c47 3 22 -78 -13 -79c-15 0 -28 -1 -41 -2c-6 -115 -31 -243 -147 -243c-68 0 -112 51 -112 118c0 101 90 156 182 183v11v138c-41 -69 -95 -124 -152 -124c-28 0 -68 21 -68 87v563c-90 -11 -164 -78 -164 -204c0 -80 40 -131 53 -131
c6 0 11 4 16 4s8 -5 8 -12c0 -42 -43 -81 -72 -60c-35 24 -84 98 -84 199c0 212 163 282 281 282c21 0 40 -18 40 -42v-593c0 -13 5 -14 9 -14c30 0 133 135 133 220v380c0 19 -4 25 -4 32c0 10 12 17 26 17c33 0 56 -20 56 -44zM413 -277c45 0 61 71 66 150
c-66 -20 -102 -57 -102 -107c0 -30 16 -43 36 -43zM444 874l66 -96c4 -5 8 -10 8 -15c0 -11 -18 -23 -45 -23c-11 0 -19 5 -22 10l-49 76l-43 -69c-5 -9 -9 -17 -24 -17c-18 0 -43 17 -43 31c0 2 1 3 2 4l70 100c12 18 29 27 46 27c24 0 26 -9 34 -28z" />
    <glyph glyph-name="ycircumflex" unicode="&#x177;" horiz-adv-x="359" 
d="M390 146c6 21 14 30 24 30c16 0 35 -22 35 -41c0 -1 0 -6 -1 -10c-34 -116 -92 -175 -146 -222v-173c0 -105 -53 -142 -104 -142c-56 0 -96 51 -96 115c0 101 58 152 124 210v127c-24 -40 -55 -69 -98 -69c-67 0 -106 57 -106 144c0 106 36 225 36 225c7 17 0 37 53 37
c49 0 20 -40 16 -55c-18 -74 -29 -118 -29 -202c0 -54 17 -83 46 -83c40 0 70 65 82 135v161c0 19 -4 25 -4 32c0 10 12 17 26 17c33 0 54 -20 54 -44v-351c36 40 68 90 88 159zM198 -349c32 0 28 60 28 79v107c-32 -33 -54 -71 -54 -131c0 -31 10 -55 26 -55zM230 571
l66 -96c4 -5 8 -10 8 -15c0 -11 -18 -23 -45 -23c-11 0 -19 5 -22 10l-49 76l-43 -69c-5 -9 -9 -17 -24 -17c-18 0 -43 17 -43 31c0 2 1 3 2 4l70 100c12 18 29 27 46 27c24 0 26 -9 34 -28z" />
    <glyph glyph-name="Ydieresis" unicode="&#x178;" horiz-adv-x="621" 
d="M559 656v-661v-30c19 3 37 4 53 5c47 3 22 -78 -13 -79c-15 0 -28 -1 -41 -2c-6 -115 -31 -243 -147 -243c-68 0 -112 51 -112 118c0 101 90 156 182 183v11v138c-41 -69 -95 -124 -152 -124c-28 0 -68 21 -68 87v563c-90 -11 -164 -78 -164 -204c0 -80 40 -131 53 -131
c6 0 11 4 16 4s8 -5 8 -12c0 -42 -43 -81 -72 -60c-35 24 -84 98 -84 199c0 212 163 282 281 282c21 0 40 -18 40 -42v-593c0 -13 5 -14 9 -14c30 0 133 135 133 220v380c0 19 -4 25 -4 32c0 10 12 17 26 17c33 0 56 -20 56 -44zM413 -277c45 0 61 71 66 150
c-66 -20 -102 -57 -102 -107c0 -30 16 -43 36 -43zM286 807c0 26 21 47 47 47s47 -21 47 -47s-21 -47 -47 -47s-47 21 -47 47zM430 807c0 26 21 47 47 47s47 -21 47 -47s-21 -47 -47 -47s-47 21 -47 47z" />
    <glyph glyph-name="ydieresis" unicode="&#xff;" horiz-adv-x="359" 
d="M390 146c6 21 14 30 24 30c16 0 35 -22 35 -41c0 -1 0 -6 -1 -10c-34 -116 -92 -175 -146 -222v-173c0 -105 -53 -142 -104 -142c-56 0 -96 51 -96 115c0 101 58 152 124 210v127c-24 -40 -55 -69 -98 -69c-67 0 -106 57 -106 144c0 106 36 225 36 225c7 17 0 37 53 37
c49 0 20 -40 16 -55c-18 -74 -29 -118 -29 -202c0 -54 17 -83 46 -83c40 0 70 65 82 135v161c0 19 -4 25 -4 32c0 10 12 17 26 17c33 0 54 -20 54 -44v-351c36 40 68 90 88 159zM198 -349c32 0 28 60 28 79v107c-32 -33 -54 -71 -54 -131c0 -31 10 -55 26 -55zM72 504
c0 26 21 47 47 47s47 -21 47 -47s-21 -47 -47 -47s-47 21 -47 47zM216 504c0 26 21 47 47 47s47 -21 47 -47s-21 -47 -47 -47s-47 21 -47 47z" />
    <glyph glyph-name="Ygrave" unicode="&#x1ef2;" horiz-adv-x="621" 
d="M559 656v-661v-30c19 3 37 4 53 5c47 3 22 -78 -13 -79c-15 0 -28 -1 -41 -2c-6 -115 -31 -243 -147 -243c-68 0 -112 51 -112 118c0 101 90 156 182 183v11v138c-41 -69 -95 -124 -152 -124c-28 0 -68 21 -68 87v563c-90 -11 -164 -78 -164 -204c0 -80 40 -131 53 -131
c6 0 11 4 16 4s8 -5 8 -12c0 -42 -43 -81 -72 -60c-35 24 -84 98 -84 199c0 212 163 282 281 282c21 0 40 -18 40 -42v-593c0 -13 5 -14 9 -14c30 0 133 135 133 220v380c0 19 -4 25 -4 32c0 10 12 17 26 17c33 0 56 -20 56 -44zM413 -277c45 0 61 71 66 150
c-66 -20 -102 -57 -102 -107c0 -30 16 -43 36 -43zM405 750l-94 103c-5 6 -8 12 -8 17c0 19 28 32 41 32c14 0 22 -9 29 -19l91 -105c4 -5 8 -10 8 -15c0 -11 -18 -23 -45 -23c-11 0 -19 5 -22 10z" />
    <glyph glyph-name="ygrave" unicode="&#x1ef3;" horiz-adv-x="359" 
d="M390 146c6 21 14 30 24 30c16 0 35 -22 35 -41c0 -1 0 -6 -1 -10c-34 -116 -92 -175 -146 -222v-173c0 -105 -53 -142 -104 -142c-56 0 -96 51 -96 115c0 101 58 152 124 210v127c-24 -40 -55 -69 -98 -69c-67 0 -106 57 -106 144c0 106 36 225 36 225c7 17 0 37 53 37
c49 0 20 -40 16 -55c-18 -74 -29 -118 -29 -202c0 -54 17 -83 46 -83c40 0 70 65 82 135v161c0 19 -4 25 -4 32c0 10 12 17 26 17c33 0 54 -20 54 -44v-351c36 40 68 90 88 159zM198 -349c32 0 28 60 28 79v107c-32 -33 -54 -71 -54 -131c0 -31 10 -55 26 -55zM191 447
l-94 103c-5 6 -8 12 -8 17c0 19 28 32 41 32c14 0 22 -9 29 -19l91 -105c4 -5 8 -10 8 -15c0 -11 -18 -23 -45 -23c-11 0 -19 5 -22 10z" />
    <glyph glyph-name="Zacute" unicode="&#x179;" horiz-adv-x="487" 
d="M158 -249c0 97 83 152 171 180c-18 59 -59 92 -113 94c-22 1 -34 28 -34 49c0 14 5 25 17 25c2 0 5 0 8 -1c7 -1 170 61 170 331c0 171 -97 193 -133 193c-69 0 -136 -67 -136 -189c0 -127 69 -176 99 -176c7 0 12 3 16 3c3 0 5 -3 5 -14c0 -35 -19 -61 -50 -61
c-46 0 -150 82 -150 243c0 186 117 272 218 272c123 0 211 -106 211 -276c0 -197 -87 -299 -149 -351c38 -17 77 -55 96 -124c24 5 47 7 67 8c47 3 22 -78 -13 -79c-15 0 -29 -1 -43 -3c1 -7 1 -15 1 -23c0 -101 -33 -219 -146 -219c-68 0 -112 51 -112 118zM340 -147v8
c-67 -20 -104 -58 -104 -108c0 -30 16 -43 36 -43c47 0 68 77 68 143zM347 853l-89 -95c-8 -13 -22 -18 -33 -18c-27 0 -39 12 -39 23c0 5 4 10 8 15l91 105c2 11 19 19 33 19c19 0 41 -12 41 -29c0 -9 -7 -14 -12 -20z" />
    <glyph glyph-name="zacute" unicode="&#x17a;" horiz-adv-x="360" 
d="M103 -297c0 104 62 155 130 216c-11 56 -38 106 -99 106l-14 55c70 20 145 82 145 182c0 34 -18 64 -57 64c-50 0 -81 -38 -118 -193c-14 -57 -61 1 -56 26c25 131 58 233 174 233c84 0 133 -61 133 -138c0 -84 -57 -151 -128 -183c38 -21 65 -48 82 -92
c39 41 75 93 96 167c6 21 14 30 24 30c16 0 35 -22 35 -41c0 -1 0 -6 -1 -10c-33 -110 -86 -169 -138 -214c4 -27 6 -59 6 -96c0 -105 -27 -227 -118 -227c-56 0 -96 51 -96 115zM241 -199c0 14 0 31 -1 49c-39 -36 -67 -76 -67 -144c0 -31 10 -55 26 -55c38 0 42 96 42 150
zM298 555l-89 -95c-8 -13 -22 -18 -33 -18c-27 0 -39 12 -39 23c0 5 4 10 8 15l91 105c2 11 19 19 33 19c19 0 41 -12 41 -29c0 -9 -7 -14 -12 -20z" />
    <glyph glyph-name="Zdotaccent" unicode="&#x17b;" horiz-adv-x="487" 
d="M158 -249c0 97 83 152 171 180c-18 59 -59 92 -113 94c-22 1 -34 28 -34 49c0 14 5 25 17 25c2 0 5 0 8 -1c7 -1 170 61 170 331c0 171 -97 193 -133 193c-69 0 -136 -67 -136 -189c0 -127 69 -176 99 -176c7 0 12 3 16 3c3 0 5 -3 5 -14c0 -35 -19 -61 -50 -61
c-46 0 -150 82 -150 243c0 186 117 272 218 272c123 0 211 -106 211 -276c0 -197 -87 -299 -149 -351c38 -17 77 -55 96 -124c24 5 47 7 67 8c47 3 22 -78 -13 -79c-15 0 -29 -1 -43 -3c1 -7 1 -15 1 -23c0 -101 -33 -219 -146 -219c-68 0 -112 51 -112 118zM340 -147v8
c-67 -20 -104 -58 -104 -108c0 -30 16 -43 36 -43c47 0 68 77 68 143zM207 800c0 28 22 50 50 50s50 -22 50 -50s-22 -50 -50 -50s-50 22 -50 50z" />
    <glyph glyph-name="zdotaccent" unicode="&#x17c;" horiz-adv-x="360" 
d="M103 -297c0 104 62 155 130 216c-11 56 -38 106 -99 106l-14 55c70 20 145 82 145 182c0 34 -18 64 -57 64c-50 0 -81 -38 -118 -193c-14 -57 -61 1 -56 26c25 131 58 233 174 233c84 0 133 -61 133 -138c0 -84 -57 -151 -128 -183c38 -21 65 -48 82 -92
c39 41 75 93 96 167c6 21 14 30 24 30c16 0 35 -22 35 -41c0 -1 0 -6 -1 -10c-33 -110 -86 -169 -138 -214c4 -27 6 -59 6 -96c0 -105 -27 -227 -118 -227c-56 0 -96 51 -96 115zM241 -199c0 14 0 31 -1 49c-39 -36 -67 -76 -67 -144c0 -31 10 -55 26 -55c38 0 42 96 42 150
zM158 502c0 28 22 50 50 50s50 -22 50 -50s-22 -50 -50 -50s-50 22 -50 50z" />
    <glyph glyph-name="Zcaron" unicode="&#x17d;" horiz-adv-x="487" 
d="M158 -249c0 97 83 152 171 180c-18 59 -59 92 -113 94c-22 1 -34 28 -34 49c0 14 5 25 17 25c2 0 5 0 8 -1c7 -1 170 61 170 331c0 171 -97 193 -133 193c-69 0 -136 -67 -136 -189c0 -127 69 -176 99 -176c7 0 12 3 16 3c3 0 5 -3 5 -14c0 -35 -19 -61 -50 -61
c-46 0 -150 82 -150 243c0 186 117 272 218 272c123 0 211 -106 211 -276c0 -197 -87 -299 -149 -351c38 -17 77 -55 96 -124c24 5 47 7 67 8c47 3 22 -78 -13 -79c-15 0 -29 -1 -43 -3c1 -7 1 -15 1 -23c0 -101 -33 -219 -146 -219c-68 0 -112 51 -112 118zM340 -147v8
c-67 -20 -104 -58 -104 -108c0 -30 16 -43 36 -43c47 0 68 77 68 143zM215 768l-66 96c-4 5 -8 10 -8 15c0 11 18 23 45 23c11 0 19 -5 22 -10l49 -76l43 69c2 8 9 17 24 17c18 0 42 -16 42 -30c0 -4 -6 -12 -7 -13l-64 -92c-6 -18 -15 -27 -32 -27c-27 0 -32 7 -48 28z" />
    <glyph glyph-name="zcaron" unicode="&#x17e;" horiz-adv-x="360" 
d="M103 -297c0 104 62 155 130 216c-11 56 -38 106 -99 106l-14 55c70 20 145 82 145 182c0 34 -18 64 -57 64c-50 0 -81 -38 -118 -193c-14 -57 -61 1 -56 26c25 131 58 233 174 233c84 0 133 -61 133 -138c0 -84 -57 -151 -128 -183c38 -21 65 -48 82 -92
c39 41 75 93 96 167c6 21 14 30 24 30c16 0 35 -22 35 -41c0 -1 0 -6 -1 -10c-33 -110 -86 -169 -138 -214c4 -27 6 -59 6 -96c0 -105 -27 -227 -118 -227c-56 0 -96 51 -96 115zM241 -199c0 14 0 31 -1 49c-39 -36 -67 -76 -67 -144c0 -31 10 -55 26 -55c38 0 42 96 42 150
zM166 470l-66 96c-4 5 -8 10 -8 15c0 11 18 23 45 23c11 0 19 -5 22 -10l49 -76l43 69c2 8 9 17 24 17c18 0 42 -16 42 -30c0 -4 -6 -12 -7 -13l-64 -92c-6 -18 -15 -27 -32 -27c-27 0 -32 7 -48 28z" />
    <glyph glyph-name="zero" unicode="0" horiz-adv-x="435" 
d="M218 -28c-122 0 -183 123 -183 364c0 91 0 364 183 364c163 0 182 -207 182 -364c0 -302 -99 -364 -182 -364zM218 626c-71 0 -105 -98 -105 -290c0 -108 12 -290 105 -290c66 0 104 110 104 290c0 288 -79 290 -104 290z" />
    <glyph glyph-name="one" unicode="1" horiz-adv-x="261" 
d="M123 11v552c-40 -55 -61 -69 -73 -69c-24 0 -42 28 -42 46c0 7 5 8 11 10c23 8 111 134 111 134c7 10 18 16 30 16c20 0 39 -19 39 -39v-656c0 -17 -13 -23 -28 -23c-23 0 -48 14 -48 29z" />
    <glyph glyph-name="two" unicode="2" horiz-adv-x="398" 
d="M177 65h145c16 0 16 14 25 14s11 -16 11 -29c0 -31 -12 -60 -39 -60h-225c-19 0 -37 15 -37 37c0 11 4 22 12 29c2 2 219 220 219 439c0 107 -58 131 -88 131c-46 0 -95 -35 -95 -131c0 -66 28 -117 43 -117c5 0 7 5 10 5c2 0 4 -3 3 -9c-2 -17 -23 -44 -49 -44
c-50 0 -84 92 -84 165c0 141 89 205 174 205c114 0 164 -107 164 -208c0 -172 -117 -340 -189 -427z" />
    <glyph glyph-name="three" unicode="3" horiz-adv-x="387" 
d="M23 501c0 137 86 199 170 199c117 0 162 -114 162 -217c0 -124 -52 -189 -109 -228c37 -22 88 -62 88 -139c0 -83 -59 -144 -139 -144c-85 0 -135 82 -135 134c0 17 31 25 53 25c15 0 22 -2 22 -6s-2 -5 -2 -11c0 -8 14 -68 66 -68c29 0 58 25 58 66
c0 76 -65 100 -90 107c-16 4 -28 17 -28 44c0 10 3 25 20 25c2 0 5 -1 8 -1c61 20 112 75 112 199c0 98 -41 140 -90 140c-46 0 -90 -40 -90 -126c0 -60 27 -106 42 -106c5 0 7 5 10 5c2 0 3 -2 3 -6c0 -17 -21 -47 -49 -47c-49 0 -82 86 -82 155z" />
    <glyph glyph-name="four" unicode="4" horiz-adv-x="387" 
d="M344 188h-23v-183c0 -17 -13 -23 -28 -23c-23 0 -48 14 -48 29v179h-36c-46 0 -118 -3 -152 -3c-23 0 -45 28 -45 44c0 13 8 18 15 25c54 138 58 294 58 359c0 15 -5 35 -5 37c0 8 10 12 27 12c22 0 55 -10 55 -59c0 -83 -15 -238 -57 -344c36 1 82 2 120 2h20v388
c0 29 -10 31 -10 38s18 11 32 11c33 0 54 -20 54 -44v-394h26c16 0 16 14 25 14s11 -16 11 -29c0 -31 -11 -59 -39 -59z" />
    <glyph glyph-name="five" unicode="5" horiz-adv-x="366" 
d="M46 435l29 239c1 8 7 10 11 10h101c56 0 86 1 86 1c16 0 17 10 25 10s10 -16 10 -25c0 -31 -11 -60 -38 -60h-131l-11 -126c13 10 34 19 60 19c56 0 144 -44 144 -247c0 -207 -81 -284 -160 -284c-114 0 -145 134 -145 185c0 29 7 46 32 46s49 -16 49 -25
c0 -6 -4 -6 -4 -18c0 -22 6 -114 69 -114c52 0 81 72 81 210c0 109 -27 175 -82 175c-41 0 -53 -35 -78 -35c-12 0 -52 15 -48 39z" />
    <glyph glyph-name="six" unicode="6" horiz-adv-x="399" 
d="M212 627c-44 0 -80 -48 -92 -187c37 41 70 47 96 47c107 0 151 -119 151 -240c0 -261 -131 -275 -157 -275c-166 0 -172 262 -172 351c0 93 0 377 174 377c74 0 131 -73 131 -114c0 -16 -34 -32 -56 -32c-9 0 -16 2 -16 8c0 32 -25 65 -59 65zM210 415
c-47 0 -82 -43 -93 -133c5 -187 51 -237 93 -237c34 0 81 45 81 202c0 89 -26 168 -81 168z" />
    <glyph glyph-name="seven" unicode="7" horiz-adv-x="319" 
d="M172 5c0 -17 -14 -23 -29 -23c-23 0 -51 10 -51 54c0 226 73 451 133 576c-63 -3 -127 -7 -170 -7c-34 0 -37 24 -37 45c0 19 6 37 17 37c3 0 4 -1 8 -2c22 -1 59 -3 128 -3c68 0 104 8 121 8c12 0 24 -9 24 -27c0 -9 -4 -20 -9 -32c-65 -154 -135 -308 -135 -626z" />
    <glyph glyph-name="eight" unicode="8" horiz-adv-x="380" 
d="M187 -28c-72 0 -123 64 -123 143c0 42 16 78 41 103c-42 35 -75 103 -75 222c0 192 81 260 157 260c37 0 158 -19 158 -260c0 -113 -32 -184 -76 -221c26 -24 42 -61 42 -104c0 -79 -50 -143 -124 -143zM187 626c-48 0 -81 -76 -81 -186c0 -125 42 -184 81 -184
c40 0 82 66 82 184c0 114 -32 186 -82 186zM187 183c-25 0 -49 -25 -49 -68c0 -38 19 -70 50 -70c33 0 49 32 49 70c0 44 -24 68 -50 68z" />
    <glyph glyph-name="nine" unicode="9" horiz-adv-x="399" 
d="M187 45c43 0 79 47 91 187c-36 -41 -70 -47 -95 -47c-107 0 -151 119 -151 240c0 261 131 275 157 275c166 0 172 -262 172 -351c0 -93 0 -377 -174 -377c-74 0 -131 73 -131 114c0 16 34 32 56 32c9 0 16 -2 16 -8c0 -32 25 -65 59 -65zM189 257c46 0 82 43 93 132
c-6 187 -51 238 -93 238c-34 0 -81 -45 -81 -202c0 -89 26 -168 81 -168z" />
    <glyph glyph-name="dollar" unicode="$" horiz-adv-x="395" 
d="M173 -33v64c-63 6 -96 40 -96 45c0 20 22 51 36 51c12 0 23 -25 60 -31v147c-66 37 -145 81 -145 186c0 81 65 166 145 206v79c0 3 -5 8 -5 13c0 8 10 11 29 11s31 -6 31 -25v-58c12 2 24 4 37 4c67 0 108 -44 108 -111c0 -61 -37 -122 -75 -122c-17 0 -34 14 -39 29
c-5 14 3 21 9 21c24 0 31 34 31 67c0 27 -11 43 -42 43c-9 0 -19 -2 -29 -5v-287c51 -31 100 -67 100 -136c0 -58 -45 -106 -100 -122v-80c0 -13 -6 -18 -20 -18c-19 0 -35 9 -35 29zM104 429c0 -47 30 -76 69 -102v225c-38 -29 -69 -73 -69 -123zM258 155
c0 21 -12 38 -30 53v-106c21 10 30 30 30 53z" />
    <glyph glyph-name="cent" unicode="&#xa2;" horiz-adv-x="359" 
d="M169 37v90c-72 17 -131 80 -131 184c0 98 52 197 131 224v89c0 3 -5 8 -5 13c0 8 10 11 29 11s31 -6 31 -25v-82c63 -7 88 -64 88 -97c0 -38 -69 -58 -63 -23c-5 13 -7 37 -25 48v-281c17 1 35 8 44 14c43 37 81 -25 43 -53c-23 -16 -51 -26 -87 -27v-96
c0 -13 -6 -18 -20 -18c-19 0 -35 9 -35 29zM116 311c0 -56 20 -94 53 -112v264c-33 -24 -53 -83 -53 -152z" />
    <glyph glyph-name="sterling" unicode="&#xa3;" horiz-adv-x="474" 
d="M315 232h-98c11 -38 20 -75 20 -108c0 -19 -7 -52 -18 -72c35 -13 62 -22 96 -22c66 0 74 53 74 103c0 9 -2 14 -2 18c0 5 4 7 12 7c35 0 55 -16 55 -42c0 -78 -47 -153 -132 -153c-45 0 -100 19 -141 34c-18 -15 -51 -25 -77 -25c-58 0 -94 22 -94 61c0 68 95 61 145 41
c6 13 10 28 10 42c0 40 -11 77 -25 116h-78c-21 0 -29 23 -29 44c0 11 5 20 15 20h68c-17 47 -31 99 -31 163c0 120 75 241 203 241c79 0 132 -63 132 -141c0 -46 -21 -117 -61 -117c-41 0 -72 40 -45 39c24 -1 32 47 32 70c0 39 -27 72 -68 72c-63 0 -113 -62 -113 -177
c0 -48 15 -100 31 -150h128c31 23 14 -64 -9 -64z" />
    <glyph glyph-name="yen" unicode="&#xa5;" horiz-adv-x="662" 
d="M616 -93h-51c-3 -118 -24 -261 -147 -261c-68 0 -112 51 -112 118c0 51 20 92 57 120c4 3 8 4 13 4c22 0 45 -34 45 -51c0 -5 -2 -9 -8 -9c-1 0 -3 1 -4 1c-17 -18 -25 -39 -25 -63c0 -30 16 -43 36 -43c51 0 64 92 67 184h-74c-21 0 -29 23 -29 44c0 11 5 20 15 20h89
v46h-75c-21 0 -29 23 -29 44c0 11 5 20 15 20h89v135c-41 -69 -95 -124 -152 -124c-28 0 -68 21 -68 87v443c-90 -11 -164 -78 -164 -204c0 -80 40 -131 53 -131c6 0 11 4 16 4s8 -5 8 -12c0 -42 -43 -81 -72 -60c-35 24 -84 98 -84 199c0 212 163 282 281 282
c21 0 40 -18 40 -42v-473c0 -13 5 -14 9 -14c30 0 133 135 133 220v260c0 19 -4 25 -4 32c0 10 12 17 26 17c33 0 56 -20 56 -44v-575h59c31 23 14 -64 -9 -64h-50v-22v-24h59c31 23 14 -64 -9 -64z" />
    <glyph glyph-name="florin" unicode="&#x192;" horiz-adv-x="429" 
d="M-46 -174c-3 5 -4 8 -4 13c0 22 25 57 45 57c5 0 8 -3 11 -9c8 -20 16 -35 38 -35c27 0 44 33 52 84l58 399h-50c-21 0 -29 23 -29 44c0 11 5 20 15 20h74l22 152c13 91 64 149 137 149c52 0 96 -48 96 -108c0 -25 -36 -45 -65 -45c-8 0 -13 2 -13 7s10 11 10 23
c0 28 -12 51 -37 51c-29 0 -46 -37 -55 -101l-19 -128h74c3 3 6 4 9 4c5 0 8 -7 8 -16c0 -20 -12 -52 -26 -52h-75l-59 -406c-14 -91 -58 -149 -129 -149c-44 0 -73 23 -88 46z" />
    <glyph glyph-name="Euro" unicode="&#x20ac;" horiz-adv-x="446" 
d="M232 236h-99c9 -98 49 -182 123 -182c62 0 101 59 102 60c26 43 75 -28 51 -52c-2 -3 -62 -83 -160 -83c-108 0 -185 99 -196 257h-24c-21 0 -29 23 -29 44c0 11 5 20 15 20h37c1 18 3 37 5 56h-28c-21 0 -29 23 -29 44c0 11 5 20 15 20h54c34 146 118 279 242 279
c60 0 115 -45 115 -132c0 -29 -5 -78 -41 -78c-30 0 -65 20 -47 36c6 15 9 30 9 45c0 23 -11 56 -45 56c-68 0 -126 -93 -153 -206h121c31 23 14 -64 -9 -64h-124c-2 -19 -4 -38 -5 -56h109c31 23 14 -64 -9 -64z" />
    <glyph glyph-name="currency" unicode="&#xa4;" horiz-adv-x="478" 
d="M47 205l49 49c-17 27 -26 58 -26 93c0 33 9 64 25 90l-47 48c-6 6 -19 8 -19 15c0 16 28 46 49 46c5 0 9 -1 13 -5l53 -53c26 18 59 28 94 28s67 -10 94 -27l50 50c6 8 11 8 15 8c13 0 33 -23 33 -48c0 -6 -2 -12 -5 -15l-44 -44c17 -27 27 -59 27 -93
c0 -36 -10 -68 -28 -95l52 -52c2 -2 3 -5 3 -8c0 -17 -26 -50 -42 -50c-2 0 -4 1 -6 3l-58 58c-26 -16 -57 -25 -91 -25s-66 10 -92 27l-58 -58c-2 -2 -5 -3 -9 -3c-16 0 -39 23 -39 45c0 6 2 11 7 16zM134 346c0 -57 47 -104 104 -104s106 47 106 104s-49 106 -106 106
s-104 -49 -104 -106z" />
    <glyph glyph-name="percent" unicode="%" horiz-adv-x="566" 
d="M139 347c-62 0 -114 49 -114 176s52 177 114 177s113 -50 113 -177s-51 -176 -113 -176zM139 646c-33 0 -48 -37 -48 -123s15 -122 48 -122s47 36 47 122s-14 123 -47 123zM73 27l367 657c1 2 0 8 0 10c0 6 6 7 11 7c16 0 46 -15 46 -36c0 -3 1 -6 -2 -11l-374 -666
c-3 -5 -8 -7 -13 -7c-15 0 -39 11 -39 32c0 3 1 10 4 14zM428 -20c-62 0 -114 49 -114 176s52 177 114 177s113 -50 113 -177s-51 -176 -113 -176zM428 279c-33 0 -48 -37 -48 -123s15 -122 48 -122s47 36 47 122s-14 123 -47 123z" />
    <glyph glyph-name="perthousand" unicode="&#x2030;" horiz-adv-x="826" 
d="M139 347c-62 0 -114 49 -114 176s52 177 114 177s113 -50 113 -177s-51 -176 -113 -176zM139 646c-33 0 -48 -37 -48 -123s15 -122 48 -122s47 36 47 122s-14 123 -47 123zM73 27l367 657c1 2 0 8 0 10c0 6 6 7 11 7c16 0 46 -15 46 -36c0 -3 1 -6 -2 -11l-374 -666
c-3 -5 -8 -7 -13 -7c-15 0 -39 11 -39 32c0 3 1 10 4 14zM428 -20c-62 0 -114 49 -114 176s52 177 114 177s113 -50 113 -177s-51 -176 -113 -176zM428 279c-33 0 -48 -37 -48 -123s15 -122 48 -122s47 36 47 122s-14 123 -47 123zM688 -20c-62 0 -114 49 -114 176
s52 177 114 177s113 -50 113 -177s-51 -176 -113 -176zM688 279c-33 0 -48 -37 -48 -123s15 -122 48 -122s47 36 47 122s-14 123 -47 123z" />
    <glyph glyph-name="numbersign" unicode="#" horiz-adv-x="465" 
d="M47 282h70l18 95h-68c-12 0 -17 10 -17 22c0 16 11 33 27 33h68l30 156c0 11 3 21 17 21c21 0 48 -8 42 -32l-28 -145h89l30 156c0 11 3 21 17 21c21 0 48 -8 42 -32l-28 -145h63c3 0 5 1 8 1c11 0 18 -8 18 -21c0 -26 -16 -35 -35 -35h-65l-18 -95h62c3 0 5 1 8 1
c11 0 18 -8 18 -21c0 -26 -16 -35 -35 -35h-63l-33 -173c0 -10 -12 -12 -23 -12c-17 0 -34 13 -34 27c0 3 0 4 1 9l28 149h-89l-33 -173c0 -10 -12 -12 -23 -12c-17 0 -34 13 -34 27c0 3 0 4 1 9l28 149h-69c-12 0 -17 10 -17 22c0 16 11 33 27 33zM195 377l-18 -95h90
l18 95h-90z" />
    <glyph glyph-name="onesuperior" unicode="&#xb9;" horiz-adv-x="217" 
d="M92 296v306c-18 -26 -31 -32 -40 -32c-18 0 -32 21 -32 33c0 11 8 7 15 14c13 12 63 72 63 72c1 7 8 11 18 11c23 0 41 -13 41 -27v-380c0 -13 -14 -17 -26 -17c-18 0 -39 10 -39 20z" />
    <glyph glyph-name="twosuperior" unicode="&#xb2;" horiz-adv-x="287" 
d="M138 337h85c12 0 14 8 19 8c4 0 10 -16 10 -26c0 -20 -10 -39 -31 -39h-147c-15 0 -29 11 -29 26c0 6 5 14 9 19c8 8 136 129 136 252c0 59 -32 69 -49 69c-26 0 -51 -16 -51 -69c0 -35 13 -63 20 -64c6 3 10 3 9 -6c-1 -17 -15 -30 -33 -30c-36 0 -61 56 -61 100
c0 85 61 123 117 123c76 0 115 -64 115 -125c0 -96 -73 -186 -119 -238z" />
    <glyph glyph-name="threesuperior" unicode="&#xb3;" horiz-adv-x="280" 
d="M20 581c0 82 61 119 117 119c77 0 113 -68 113 -130c0 -71 -30 -108 -67 -132c24 -14 53 -37 53 -81c0 -50 -45 -87 -98 -87c-58 0 -94 49 -94 81c0 13 27 19 44 19c13 0 19 -1 19 -14c0 -4 6 -32 33 -32c16 0 31 12 31 33c0 44 -34 54 -52 57c-13 2 -22 11 -22 29
c0 13 10 17 22 17c31 0 66 43 66 112c0 54 -23 74 -51 74c-26 0 -49 -19 -49 -66c0 -33 13 -57 21 -57c4 0 11 4 11 -5c0 -11 -15 -31 -36 -31c-35 0 -61 52 -61 94z" />
    <glyph glyph-name="onequarter" unicode="&#xbc;" horiz-adv-x="612" 
d="M542 102h-9v-99c0 -13 -16 -17 -28 -17c-18 0 -37 10 -37 20v97h-16c-54 0 -86 -2 -100 -2c-18 0 -34 23 -34 33c0 7 3 9 9 16c34 81 37 170 37 207c0 6 -4 17 -4 21c0 8 13 11 27 11c16 0 41 -7 41 -38c0 -46 -9 -134 -33 -195c21 1 46 1 67 1h6v221c0 14 -6 15 -6 22
s14 10 26 10c25 0 45 -14 45 -30v-223c6 1 12 1 16 2c1 3 6 5 10 5c11 0 13 -11 13 -21c0 -20 -9 -41 -30 -41zM66 46l353 632c1 2 0 8 0 10c0 6 6 7 11 7c16 0 46 -15 46 -36c0 -3 1 -6 -2 -11l-360 -641c-3 -5 -8 -7 -13 -7c-15 0 -39 11 -39 32c0 3 1 10 4 14zM92 296
v306c-18 -26 -31 -32 -40 -32c-18 0 -32 21 -32 33c0 11 8 7 15 14c13 12 63 72 63 72c1 7 8 11 18 11c23 0 41 -13 41 -27v-380c0 -13 -14 -17 -26 -17c-18 0 -39 10 -39 20z" />
    <glyph glyph-name="onehalf" unicode="&#xbd;" horiz-adv-x="606" 
d="M66 46l353 632c1 2 0 8 0 10c0 6 6 7 11 7c16 0 46 -15 46 -36c0 -3 1 -6 -2 -11l-360 -641c-3 -5 -8 -7 -13 -7c-15 0 -39 11 -39 32c0 3 1 10 4 14zM92 296v306c-18 -26 -31 -32 -40 -32c-18 0 -32 21 -32 33c0 11 8 7 15 14c13 12 63 72 63 72c1 7 8 11 18 11
c23 0 41 -13 41 -27v-380c0 -13 -14 -17 -26 -17c-18 0 -39 10 -39 20zM447 47h85c12 0 14 8 19 8c4 0 10 -16 10 -26c0 -20 -10 -39 -31 -39h-147c-15 0 -29 11 -29 26c0 6 5 14 9 19c8 8 136 129 136 252c0 59 -32 69 -49 69c-26 0 -51 -16 -51 -69c0 -35 13 -63 20 -64
c6 3 10 3 9 -6c-1 -17 -15 -30 -33 -30c-36 0 -61 56 -61 100c0 85 61 123 117 123c76 0 115 -64 115 -125c0 -96 -73 -186 -119 -238z" />
    <glyph glyph-name="threequarters" unicode="&#xbe;" horiz-adv-x="668" 
d="M598 102h-9v-99c0 -13 -16 -17 -28 -17c-18 0 -37 10 -37 20v97h-16c-54 0 -86 -2 -100 -2c-18 0 -34 23 -34 33c0 7 3 9 9 16c34 81 37 170 37 207c0 6 -4 17 -4 21c0 8 13 11 27 11c16 0 41 -7 41 -38c0 -46 -9 -134 -33 -195c21 1 46 1 67 1h6v221c0 14 -6 15 -6 22
s14 10 26 10c25 0 45 -14 45 -30v-223c6 1 12 1 16 2c1 3 6 5 10 5c11 0 13 -11 13 -21c0 -20 -9 -41 -30 -41zM20 581c0 82 61 119 117 119c77 0 113 -68 113 -130c0 -71 -30 -108 -67 -132c24 -14 53 -37 53 -81c0 -50 -45 -87 -98 -87c-58 0 -94 49 -94 81
c0 13 27 19 44 19c13 0 19 -1 19 -14c0 -4 6 -32 33 -32c16 0 31 12 31 33c0 44 -34 54 -52 57c-13 2 -22 11 -22 29c0 13 10 17 22 17c31 0 66 43 66 112c0 54 -23 74 -51 74c-26 0 -49 -19 -49 -66c0 -33 13 -57 21 -57c4 0 11 4 11 -5c0 -11 -15 -31 -36 -31
c-35 0 -61 52 -61 94zM122 46l353 632c1 2 0 8 0 10c0 6 6 7 11 7c16 0 46 -15 46 -36c0 -3 1 -6 -2 -11l-360 -641c-3 -5 -8 -7 -13 -7c-15 0 -39 11 -39 32c0 3 1 10 4 14z" />
    <glyph glyph-name="degree" unicode="&#xb0;" horiz-adv-x="265" 
d="M50 617c0 46 37 83 82 83c46 0 83 -37 83 -83c0 -45 -37 -82 -83 -82c-45 0 -82 37 -82 82zM98 617c0 -20 14 -34 34 -34s35 14 35 34s-15 35 -35 35s-34 -15 -34 -35z" />
    <glyph glyph-name="ordfeminine" unicode="&#xaa;" horiz-adv-x="304" 
d="M114 383c-62 0 -94 50 -94 115c0 126 89 204 183 204c22 0 38 -13 38 -34c0 -13 -3 -19 -13 -19c-7 0 -14 2 -22 2c-55 0 -120 -48 -120 -155c0 -38 15 -60 39 -60c18 0 30 17 38 38v105c0 15 -3 14 -3 24c0 8 11 15 23 15c27 0 45 -16 45 -35v-114c0 -16 6 -33 21 -33
c6 0 13 1 16 6c2 4 3 5 8 5c9 0 21 -17 21 -32c0 -23 -34 -32 -58 -32c-25 0 -46 10 -59 27c-15 -16 -36 -27 -63 -27zM71 342h178c17 2 22 -9 22 -26c0 -19 -10 -34 -26 -34c-1 0 -3 0 -5 1h-179c-18 0 -26 9 -26 23c0 27 13 36 36 36z" />
    <glyph glyph-name="ordmasculine" unicode="&#xba;" horiz-adv-x="318" 
d="M271 480c3 2 7 3 11 3c14 0 26 -17 26 -31c0 -20 -27 -21 -47 -21c-13 0 -24 2 -35 4c-19 -32 -48 -53 -92 -53c-79 0 -114 65 -114 141c0 112 63 179 81 179c15 0 28 -19 28 -35c0 -7 -5 -14 -12 -24c-13 -17 -32 -45 -32 -115c0 -62 23 -93 50 -93c19 0 32 10 41 26
c-35 31 -54 80 -54 134c0 49 21 90 64 90c38 0 68 -54 68 -128c0 -27 -3 -55 -10 -79c4 -1 7 -1 11 -1c6 0 12 0 16 3zM169 598c0 -30 8 -57 22 -78c1 8 1 17 1 25c0 50 -2 87 -14 87c-6 0 -9 -11 -9 -34zM66 342h173c17 2 22 -9 22 -26c0 -19 -10 -34 -26 -34
c-1 0 -3 0 -5 1h-174c-18 0 -26 9 -26 23c0 27 13 36 36 36z" />
    <glyph glyph-name="plus" unicode="+" 
d="M67 350h98v104c0 7 -4 8 -4 12s8 7 26 7s48 -3 48 -17v-106h104c7 0 10 5 13 5c7 0 10 -10 10 -21c0 -21 -13 -54 -31 -54h-96v-105c0 -20 -69 -29 -70 -7v112h-110c-10 0 -16 13 -16 28c0 18 9 42 28 42z" />
    <glyph glyph-name="minus" unicode="&#x2212;" 
d="M77 350h252c7 0 10 5 13 5c7 0 10 -10 10 -21c0 -21 -13 -54 -31 -54h-256c-10 0 -16 13 -16 28c0 18 9 42 28 42z" />
    <glyph glyph-name="equal" unicode="=" 
d="M77 280h252c7 0 10 5 13 5c7 0 10 -10 10 -21c0 -21 -13 -54 -31 -54h-256c-10 0 -16 13 -16 28c0 18 9 42 28 42zM77 420h252c7 0 10 5 13 5c7 0 10 -10 10 -21c0 -21 -13 -54 -31 -54h-256c-10 0 -16 13 -16 28c0 18 9 42 28 42z" />
    <glyph glyph-name="notequal" unicode="&#x2260;" 
d="M93 103l37 107h-65c-10 0 -16 13 -16 28c0 18 9 42 28 42h78l24 70h-114c-10 0 -16 13 -16 28c0 18 9 42 28 42h126l38 108c1 3 -1 8 -1 12s3 7 10 7c15 0 50 -13 50 -37c0 -1 0 -5 -1 -7l-29 -83h59c7 0 10 5 13 5c7 0 10 -10 10 -21c0 -21 -13 -54 -31 -54h-76l-24 -70
h108c7 0 10 5 13 5c7 0 10 -10 10 -21c0 -21 -13 -54 -31 -54h-125l-46 -133c-3 -7 -10 -9 -18 -9c-17 0 -41 7 -41 26c0 3 1 6 2 9z" />
    <glyph glyph-name="approxequal" unicode="&#x2248;" 
d="M109 343c0 -8 -8 -11 -21 -11c-20 0 -43 9 -43 20c0 40 37 93 91 93c58 0 86 -49 123 -49c16 0 29 14 29 30c0 12 12 16 26 16c19 0 41 -9 41 -18c0 -66 -55 -98 -95 -98c-59 0 -95 49 -115 49c-23 0 -33 -19 -36 -32zM109 202c0 -8 -8 -11 -21 -11c-20 0 -43 9 -43 20
c0 40 37 93 91 93c58 0 86 -49 123 -49c16 0 29 14 29 30c0 12 12 16 26 16c19 0 41 -9 41 -18c0 -66 -55 -98 -95 -98c-59 0 -95 49 -115 49c-23 0 -33 -19 -36 -32z" />
    <glyph glyph-name="multiply" unicode="&#xd7;" 
d="M109 459l96 -97l95 95c6 8 1 15 10 15c13 0 38 -30 38 -55c0 -6 -2 -12 -5 -15l-89 -89l96 -95c2 -2 3 -5 3 -8c0 -17 -26 -50 -42 -50c-2 0 -4 1 -6 3l-101 100l-98 -98c-2 -2 -5 -3 -9 -3c-16 0 -39 23 -39 45c0 6 2 11 7 16l90 90l-89 90c-6 6 -19 8 -19 15
c0 16 28 46 49 46c5 0 9 -1 13 -5z" />
    <glyph glyph-name="divide" unicode="&#xf7;" 
d="M67 350h272c7 0 10 5 13 5c7 0 10 -10 10 -21c0 -21 -13 -54 -31 -54h-276c-10 0 -16 13 -16 28c0 18 9 42 28 42zM156 432c0 24 20 44 44 44s44 -20 44 -44s-20 -44 -44 -44s-44 20 -44 44zM156 198c0 24 20 44 44 44s44 -20 44 -44s-20 -44 -44 -44s-44 20 -44 44z" />
    <glyph glyph-name="logicalnot" unicode="&#xac;" 
d="M68 420h253c18 0 24 -6 24 -14c0 -9 -2 -13 -2 -27v-154c1 -3 1 -6 1 -8c0 -12 -14 -18 -30 -18c-19 0 -41 8 -41 19v132h-217c-10 0 -16 13 -16 28c0 18 9 42 28 42z" />
    <glyph glyph-name="plusminus" unicode="&#xb1;" 
d="M67 350h98v104c0 7 -4 8 -4 12s8 7 26 7s48 -3 48 -17v-106h104c7 0 10 5 13 5c7 0 10 -10 10 -21c0 -21 -13 -54 -31 -54h-96v-105c0 -20 -69 -29 -70 -7v112h-110c-10 0 -16 13 -16 28c0 18 9 42 28 42zM77 100h252c7 0 10 5 13 5c7 0 10 -10 10 -21
c0 -21 -13 -54 -31 -54h-256c-10 0 -16 13 -16 28c0 18 9 42 28 42z" />
    <glyph glyph-name="less" unicode="&#x3c;" 
d="M81 353l215 125c8 6 4 15 13 12c12 -3 29 -39 24 -63c-2 -6 -6 -11 -9 -13l-179 -100l187 -104c2 -2 4 -4 5 -7c4 -16 -13 -55 -28 -59c-2 -1 -5 0 -6 1l-223 128c-18 12 -27 29 -27 46c0 28 9 26 28 34z" />
    <glyph glyph-name="greater" unicode="&#x3e;" 
d="M319 283l-215 -125c-8 -4 -11 -8 -15 -8c-13 0 -23 27 -23 50c0 11 5 19 10 22l181 100l-189 104c-3 3 -6 5 -6 12c0 19 11 60 25 60c4 0 5 -4 10 -7l223 -128c18 -12 27 -3 27 -20c0 -28 -9 -52 -28 -60z" />
    <glyph glyph-name="lessequal" unicode="&#x2264;" 
d="M73 100h252c7 0 10 5 13 5c7 0 10 -10 10 -21c0 -21 -13 -54 -31 -54h-256c-10 0 -16 13 -16 28c0 18 9 42 28 42zM71 343l215 115c8 6 4 15 13 12c12 -3 29 -39 24 -63c-2 -6 -6 -11 -9 -13l-179 -90l187 -94c2 -2 4 -4 5 -7c4 -16 -13 -55 -28 -59c-2 -1 -5 0 -6 1
l-223 118c-18 12 -27 29 -27 46c0 28 9 26 28 34z" />
    <glyph glyph-name="greaterequal" unicode="&#x2265;" 
d="M82 100h252c7 0 10 5 13 5c7 0 10 -10 10 -21c0 -21 -13 -54 -31 -54h-256c-10 0 -16 13 -16 28c0 18 9 42 28 42zM320 273l-215 -115c-8 -4 -11 -8 -15 -8c-13 0 -23 27 -23 50c0 11 5 19 10 22l181 90l-189 94c-3 3 -6 5 -6 12c0 19 11 60 25 60c4 0 5 -4 10 -7
l223 -118c18 -12 27 -3 27 -20c0 -28 -9 -52 -28 -60z" />
    <glyph glyph-name="fraction" unicode="&#x2044;" horiz-adv-x="139" 
d="M-134 46l353 632c1 2 0 8 0 10c0 6 6 7 11 7c16 0 46 -15 46 -36c0 -3 1 -6 -2 -11l-360 -641c-3 -5 -8 -7 -13 -7c-15 0 -39 11 -39 32c0 3 1 10 4 14z" />
    <glyph glyph-name="bar" unicode="|" horiz-adv-x="250" 
d="M87 -221v947c0 3 -5 8 -5 13c0 8 20 11 39 11s41 -6 41 -25v-957c0 -13 -16 -18 -30 -18c-19 0 -45 9 -45 29z" />
    <glyph glyph-name="brokenbar" unicode="&#xa6;" horiz-adv-x="250" 
d="M87 352v334c0 3 -5 8 -5 13c0 8 20 11 39 11s41 -6 41 -25v-344c0 -13 -16 -18 -30 -18c-19 0 -45 9 -45 29zM87 -181v334c0 3 -5 8 -5 13c0 8 20 11 39 11s41 -6 41 -25v-344c0 -13 -16 -18 -30 -18c-19 0 -45 9 -45 29z" />
    <glyph glyph-name="at" unicode="@" horiz-adv-x="641" 
d="M315 109c37 34 31 -60 -27 -60c-95 0 -200 82 -200 231s101 289 264 289c121 0 197 -82 197 -202c0 -101 -40 -198 -129 -198c-25 0 -49 13 -63 34c-16 -18 -36 -34 -62 -34c-56 0 -85 41 -85 106c0 107 64 186 150 186c19 0 34 -3 37 -3c3 1 5 2 7 2c6 0 9 -6 9 -13
c0 -18 -13 -46 -27 -46c-5 0 -16 3 -29 3c-53 0 -85 -50 -85 -125c0 -34 16 -52 33 -52s29 11 39 25v107c-3 2 -4 4 -4 5c0 6 16 10 32 10s32 -4 32 -15v-93c0 -34 14 -42 23 -42c40 0 59 67 59 142c0 95 -49 143 -135 143c-120 0 -200 -109 -200 -231
c0 -103 69 -169 164 -169z" />
    <glyph glyph-name="bullet" unicode="&#x2022;" horiz-adv-x="319" 
d="M70 326c0 50 40 90 89 90c50 0 90 -40 90 -90c0 -49 -40 -89 -90 -89c-49 0 -89 40 -89 89z" />
    <glyph glyph-name="asciicircum" unicode="^" 
d="M237 672l89 -152c4 -7 8 -10 8 -15c0 -11 -18 -23 -45 -23c-11 0 -19 5 -22 10l-69 124l-66 -117c-5 -9 -9 -17 -24 -17c-18 0 -43 17 -43 31c0 2 1 3 2 4l90 156c12 18 29 27 46 27c28 0 26 -9 34 -28z" />
    <glyph glyph-name="asciitilde" unicode="~" 
d="M109 271c0 -11 -8 -16 -21 -16c-20 0 -43 11 -43 24c0 47 37 110 91 110c58 0 86 -70 123 -70c16 0 29 20 29 43c0 18 12 24 26 24c19 0 41 -11 41 -21c0 -78 -55 -116 -95 -116c-59 0 -95 70 -115 70c-23 0 -33 -28 -36 -48z" />
    <glyph glyph-name="slash" unicode="/" horiz-adv-x="310" 
d="M10 25l229 651c1 3 -1 8 -1 12s3 7 10 7c15 0 58 -12 58 -36c0 -1 0 -5 -1 -7l-233 -661c-3 -7 -10 -9 -18 -9c-17 0 -46 15 -46 34c0 3 1 6 2 9z" />
    <glyph glyph-name="backslash" unicode="\" horiz-adv-x="310" 
d="M69 679l231 -654c17 -26 -52 -58 -62 -34l-237 673c-8 12 -12 23 22 31c37 9 43 -8 46 -16z" />
    <glyph glyph-name="quotesingle" unicode="'" horiz-adv-x="180" 
d="M123 662v-177c0 -20 -65 -29 -66 -7v173c0 12 -7 11 -7 17c0 7 11 11 29 11s44 -3 44 -17z" />
    <glyph glyph-name="quotedbl" unicode="&#x22;" horiz-adv-x="300" 
d="M123 662v-177c0 -20 -65 -29 -66 -7v173c0 12 -7 11 -7 17c0 7 11 11 29 11s44 -3 44 -17zM243 662v-177c0 -20 -65 -29 -66 -7v173c0 12 -7 11 -7 17c0 7 11 11 29 11s44 -3 44 -17z" />
    <glyph glyph-name="ampersand" unicode="&#x26;" horiz-adv-x="422" 
d="M387 20c9 -1 13 -4 13 -9c0 -14 -32 -39 -57 -39c-10 0 -19 4 -25 14c-8 14 -16 28 -23 42c-35 -37 -77 -56 -116 -56c-103 0 -156 82 -156 186c0 124 72 239 99 278c-40 129 -50 208 -50 215c0 23 14 39 39 39h187c4 1 8 2 11 2c13 0 19 -11 19 -24
c0 -23 -16 -54 -41 -54c-21 0 -98 1 -134 3c7 -70 56 -235 146 -426c8 38 12 81 12 130c0 14 -8 33 -4 42c8 20 35 26 61 26c12 0 25 -4 25 -11c0 -10 -9 -5 -9 -57c0 -93 -16 -165 -41 -220c14 -27 28 -54 44 -81zM183 46c31 0 57 17 78 48c-47 93 -82 178 -109 252
c-26 -44 -54 -107 -54 -187c0 -58 33 -113 85 -113z" />
    <glyph glyph-name="parenleft" unicode="(" horiz-adv-x="270" 
d="M237 -79c23 -21 2 -52 -40 -52c-36 0 -159 179 -159 453c0 309 145 451 151 457c2 2 5 2 8 2c19 0 60 -19 61 -36c0 -6 -3 -11 -13 -15c-1 -1 -130 -132 -130 -408c0 -263 120 -401 122 -401z" />
    <glyph glyph-name="parenright" unicode=")" horiz-adv-x="270" 
d="M33 729c-23 21 -2 52 40 52c36 0 159 -179 159 -453c0 -309 -145 -451 -151 -457c-2 -2 -5 -2 -8 -2c-19 0 -60 19 -61 36c0 6 3 11 13 15c1 1 130 132 130 408c0 263 -120 401 -122 401z" />
    <glyph glyph-name="bracketleft" unicode="[" horiz-adv-x="270" 
d="M122 697v-741h21c18 0 46 0 65 2c2 1 4 1 5 1c9 0 14 -13 14 -29c0 -21 -10 -42 -30 -42h-123c-19 0 -26 4 -26 26v824c0 11 8 24 21 24h126c21 0 28 -11 28 -29c0 -21 -11 -45 -20 -45c-3 0 -6 2 -8 7c-27 2 -48 2 -60 2h-13z" />
    <glyph glyph-name="bracketright" unicode="]" horiz-adv-x="270" 
d="M148 -47v741h-21c-18 0 -46 0 -65 -2c-2 -1 -4 -1 -5 -1c-9 0 -14 13 -14 29c0 21 10 42 30 42h123c19 0 26 -4 26 -26v-824c0 -11 -8 -24 -21 -24h-126c-21 0 -28 11 -28 29c0 21 11 45 20 45c3 0 6 -2 8 -7c27 -2 48 -2 60 -2h13z" />
    <glyph glyph-name="braceleft" unicode="{" horiz-adv-x="295" 
d="M228 -147c-57 0 -155 33 -155 153c0 69 44 138 44 194c0 99 -89 53 -89 111c0 60 89 12 89 112c0 65 -45 125 -45 197c0 127 93 162 154 162c29 0 37 -25 36 -47c-1 -21 -12 -39 -24 -29c-51 0 -89 -26 -89 -87c0 -68 44 -127 44 -196c0 -55 -35 -92 -71 -111
c37 -12 71 -54 71 -112c0 -65 -43 -115 -43 -194c0 -50 35 -75 90 -75c14 3 23 -16 23 -36c0 -21 -10 -42 -35 -42z" />
    <glyph glyph-name="braceright" unicode="}" horiz-adv-x="295" 
d="M67 781c57 0 155 -33 155 -153c0 -69 -44 -138 -44 -194c0 -99 89 -53 89 -111c0 -60 -89 -12 -89 -112c0 -65 45 -125 45 -197c0 -127 -93 -162 -154 -162c-29 0 -37 25 -36 47c1 21 12 39 24 29c51 0 89 26 89 87c0 68 -44 127 -44 196c0 55 35 92 71 111
c-37 12 -71 54 -71 112c0 65 43 115 43 194c0 50 -35 75 -90 75c-14 -3 -23 16 -23 36c0 21 10 42 35 42z" />
    <glyph glyph-name="asterisk" unicode="*" horiz-adv-x="330" 
d="M76 633l61 -45v66c-3 19 2 25 22 25c18 0 34 -3 34 -20v-74l54 40c8 6 15 11 21 11c10 0 26 -32 26 -41c0 -4 -1 -7 -5 -9l-75 -54l77 -56c3 -2 5 -6 5 -11c0 -15 -15 -37 -28 -37c-2 0 -4 0 -6 2l-69 49v-67c0 -12 -20 -20 -36 -20c-11 0 -20 4 -20 13v71l-67 -48
c-2 -1 -4 -2 -5 -2c-12 0 -27 22 -27 38c0 5 2 10 6 13l75 55l-67 48c-13 9 -18 8 -18 16c0 9 20 40 34 40c2 0 5 -1 8 -3z" />
    <glyph glyph-name="dagger" unicode="&#x2020;" horiz-adv-x="350" 
d="M212 660v-124h90c7 0 10 5 13 5c7 0 10 -10 10 -21c0 -21 -13 -54 -31 -54h-82v-525c0 -26 -14 -37 -31 -37c-21 0 -42 19 -42 46v516h-98c-10 0 -16 13 -16 28c0 18 9 42 28 42h86v117c0 19 -9 27 -9 35c0 7 9 12 30 12c27 0 52 -9 52 -40z" />
    <glyph glyph-name="daggerdbl" unicode="&#x2021;" horiz-adv-x="350" 
d="M53 136h86v330h-98c-10 0 -16 13 -16 28c0 18 9 42 28 42h86v117c0 19 -9 27 -9 35c0 7 9 12 30 12c27 0 52 -9 52 -40v-124h90c7 0 10 5 13 5c7 0 10 -10 10 -21c0 -21 -13 -54 -31 -54h-82v-330h90c7 0 10 5 13 5c7 0 10 -10 10 -21c0 -21 -13 -54 -31 -54h-82v-125
c0 -26 -14 -37 -31 -37c-21 0 -42 19 -42 46v116h-98c-10 0 -16 13 -16 28c0 18 9 42 28 42z" />
    <glyph glyph-name="section" unicode="&#xa7;" horiz-adv-x="350" 
d="M92 90c17 0 33 -12 38 -27s-5 -23 -12 -23c-17 0 -23 -19 -23 -38c0 -30 25 -46 60 -46c41 0 96 37 96 109c0 49 -42 74 -86 101c-49 30 -101 59 -101 126c0 43 28 81 68 99c-46 29 -87 66 -87 138c0 84 73 175 173 175c58 0 104 -39 104 -97c0 -54 -33 -106 -67 -106
c-16 0 -32 12 -37 27s5 23 11 23c17 0 25 26 25 44c0 24 -19 40 -43 40c-46 0 -95 -46 -95 -106c0 -48 44 -76 87 -101c49 -29 101 -61 101 -126c0 -44 -28 -81 -68 -99c46 -29 87 -67 87 -138c0 -95 -75 -178 -174 -178c-72 0 -123 45 -123 109c0 52 33 94 66 94zM237 299
c0 10 -4 19 -10 27c-9 7 -22 15 -44 15c-38 0 -52 -20 -52 -46c0 -10 5 -22 11 -30c8 -7 22 -12 43 -12c38 0 52 20 52 46z" />
    <glyph glyph-name="paragraph" unicode="&#xb6;" horiz-adv-x="576" 
d="M291 0v123c-21 2 -42 6 -62 13c-98 33 -164 111 -183 216c-21 125 20 205 57 250c52 62 132 98 215 98c115 0 167 -37 173 -42c9 -7 15 -18 15 -31v-632c0 -17 -13 -23 -28 -23c-23 0 -48 14 -48 29v140c-20 -8 -41 -14 -62 -17v-129c0 -17 -13 -23 -28 -23
c-23 0 -49 13 -49 28zM252 208c12 -4 25 -7 39 -9v422c-51 -6 -99 -31 -130 -68c-39 -47 -53 -112 -39 -188c18 -104 89 -143 130 -157zM430 605c-13 5 -33 11 -62 15v-418c23 5 45 13 62 25v378z" />
    <glyph glyph-name="copyright" unicode="&#xa9;" horiz-adv-x="828" 
d="M399 396c43 0 103 46 103 86c0 18 -10 36 -42 36c-104 0 -184 -119 -184 -215c0 -72 33 -140 124 -140c69 0 111 34 112 35c5 6 11 9 19 9c14 0 30 -19 30 -36c0 -6 -2 -13 -5 -15c-1 -2 -62 -55 -160 -55c-115 0 -185 79 -185 202c0 139 105 276 254 276
c59 0 101 -36 101 -94c0 -79 -92 -146 -171 -146c-18 0 -34 10 -34 36c0 12 5 28 14 28c6 0 6 -2 9 -3c3 -2 6 -4 15 -4zM50 335c0 201 163 364 364 364s364 -163 364 -364s-163 -364 -364 -364s-364 163 -364 364zM115 335c0 -165 134 -299 299 -299s299 134 299 299
s-134 299 -299 299s-299 -134 -299 -299z" />
    <glyph glyph-name="registered" unicode="&#xae;" horiz-adv-x="600" 
d="M50 452c0 138 112 250 250 250s250 -112 250 -250s-112 -250 -250 -250s-250 112 -250 250zM110 452c0 -105 85 -190 190 -190s190 85 190 190s-85 190 -190 190s-190 -85 -190 -190zM215 327v170c0 4 -1 9 -1 12c0 9 9 14 22 14c19 0 33 -8 33 -24v-55c40 4 90 27 90 64
c0 19 -17 44 -67 44c-33 0 -59 -7 -72 -16c-3 -10 -10 -16 -21 -16c-13 0 -30 15 -30 30c0 35 79 57 122 57c76 0 126 -39 126 -93c0 -48 -38 -84 -92 -102c15 -11 25 -22 31 -32c22 -36 36 -39 44 -39c4 0 8 -1 8 -9c0 -13 -23 -35 -32 -35c-26 0 -51 39 -63 60
c-8 15 -16 29 -44 36v-68c0 -16 -3 -21 -16 -21s-38 7 -38 23z" />
    <glyph glyph-name="trademark" unicode="&#x2122;" horiz-adv-x="576" 
d="M512 388c3 -2 4 -4 4 -7c0 -12 -16 -31 -35 -31c-20 0 -41 12 -41 58v212c0 29 -11 29 -15 29c-5 0 -15 0 -15 -34v-245c0 -8 -19 -20 -34 -20c-12 0 -20 3 -20 20v250c0 29 -10 29 -15 29s-16 0 -16 -29v-202c0 -48 -17 -68 -49 -68c-24 0 -31 19 -31 31
c0 14 10 8 18 11c4 2 8 10 8 39v184c0 63 36 85 69 85c17 0 33 -6 45 -19c15 16 33 19 42 19c29 0 67 -22 67 -85v-197c0 -16 9 -24 18 -30zM178 408c0 -49 -14 -58 -35 -58c-15 0 -40 19 -40 36c0 15 7 10 17 10c3 0 4 9 4 28v223c-26 -1 -56 -1 -61 -1c-15 0 -23 5 -23 22
c0 16 9 32 27 32h164c11 0 12 4 16 4c6 0 13 -14 13 -24c0 -16 -9 -34 -27 -34c-29 0 -40 1 -55 1v-239z" />
    <glyph glyph-name="period" unicode="." horiz-adv-x="270" 
d="M142 73c27 0 49 -21 49 -48c0 -25 -22 -47 -49 -47c-26 0 -48 22 -48 47c0 27 22 48 48 48z" />
    <glyph glyph-name="comma" unicode="," horiz-adv-x="270" 
d="M143 73c26 0 49 -19 49 -59c0 -37 -50 -110 -75 -110c-17 0 -29 19 -29 31c0 5 3 5 7 7c7 2 22 19 36 38c-21 5 -37 23 -37 45c0 27 23 48 49 48z" />
    <glyph glyph-name="colon" unicode=":" horiz-adv-x="300" 
d="M157 73c27 0 49 -21 49 -48c0 -25 -22 -47 -49 -47c-26 0 -48 22 -48 47c0 27 22 48 48 48zM157 353c27 0 49 -21 49 -48c0 -25 -22 -47 -49 -47c-26 0 -48 22 -48 47c0 27 22 48 48 48z" />
    <glyph glyph-name="semicolon" unicode=";" horiz-adv-x="300" 
d="M157 353c27 0 49 -21 49 -48c0 -25 -22 -47 -49 -47c-26 0 -48 22 -48 47c0 27 22 48 48 48zM158 73c26 0 49 -19 49 -59c0 -37 -50 -110 -75 -110c-17 0 -29 19 -29 31c0 5 3 5 7 7c7 2 22 19 36 38c-21 5 -37 23 -37 45c0 27 23 48 49 48z" />
    <glyph glyph-name="exclam" unicode="!" horiz-adv-x="320" 
d="M160 73c27 0 49 -21 49 -48c0 -25 -22 -47 -49 -47c-26 0 -48 22 -48 47c0 27 22 48 48 48zM199 660v-509c0 -26 -14 -37 -31 -37c-21 0 -46 19 -46 46v493c0 19 -9 27 -9 35c0 7 9 12 30 12c27 0 56 -9 56 -40z" />
    <glyph glyph-name="exclamdown" unicode="&#xa1;" horiz-adv-x="320" 
d="M170 347c-27 0 -49 21 -49 48c0 25 22 47 49 47c26 0 48 -22 48 -47c0 -27 -22 -48 -48 -48zM131 -240v509c0 26 14 37 31 37c21 0 46 -19 46 -46v-493c0 -19 9 -27 9 -35c0 -7 -9 -12 -30 -12c-27 0 -56 9 -56 40z" />
    <glyph glyph-name="question" unicode="?" horiz-adv-x="432" 
d="M213 73c27 0 48 -21 48 -48c0 -25 -21 -47 -48 -47s-49 22 -49 47c0 27 22 48 49 48zM251 139c0 -45 -76 -25 -76 14c0 16 0 38 1 51c2 22 8 33 22 46c34 29 116 97 116 237c0 127 -65 141 -95 141c-47 0 -95 -32 -95 -123c0 -43 15 -98 35 -98c4 0 7 2 9 2
c6 0 9 -4 9 -9c0 -16 -24 -45 -56 -45c-43 0 -73 84 -73 150c0 135 85 195 171 195c108 0 171 -89 171 -214c0 -140 -69 -213 -127 -269c-11 -11 -12 -25 -12 -39v-39z" />
    <glyph glyph-name="questiondown" unicode="&#xbf;" horiz-adv-x="432" 
d="M225 347c-27 0 -48 21 -48 48c0 25 21 47 48 47s49 -22 49 -47c0 -27 -22 -48 -49 -48zM187 281c0 45 76 25 76 -14c0 -16 0 -38 -1 -51c-2 -22 -8 -33 -22 -46c-34 -29 -116 -97 -116 -237c0 -127 65 -141 95 -141c47 0 95 32 95 123c0 43 -15 98 -35 98
c-4 0 -7 -2 -9 -2c-6 0 -9 4 -9 9c0 16 24 45 56 45c43 0 73 -84 73 -150c0 -135 -85 -195 -171 -195c-108 0 -171 89 -171 214c0 140 69 213 127 269c11 11 12 25 12 39v39z" />
    <glyph glyph-name="quoteleft" unicode="&#x2018;" horiz-adv-x="180" 
d="M87 515c-26 0 -49 19 -49 59c0 37 50 110 75 110c17 0 29 -19 29 -31c0 -5 -3 -5 -7 -7c-7 -2 -22 -19 -36 -38c21 -5 37 -23 37 -45c0 -27 -23 -48 -49 -48z" />
    <glyph glyph-name="quoteright" unicode="&#x2019;" horiz-adv-x="180" 
d="M93 685c26 0 49 -19 49 -59c0 -37 -50 -110 -75 -110c-17 0 -29 19 -29 31c0 5 3 5 7 7c7 2 22 19 36 38c-21 5 -37 23 -37 45c0 27 23 48 49 48z" />
    <glyph glyph-name="quotedblleft" unicode="&#x201c;" horiz-adv-x="303" 
d="M210 515c-26 0 -49 19 -49 59c0 37 50 110 75 110c17 0 29 -19 29 -31c0 -5 -3 -5 -7 -7c-7 -2 -22 -19 -36 -38c21 -5 37 -23 37 -45c0 -27 -23 -48 -49 -48zM87 515c-26 0 -49 19 -49 59c0 37 50 110 75 110c17 0 29 -19 29 -31c0 -5 -3 -5 -7 -7
c-7 -2 -22 -19 -36 -38c21 -5 37 -23 37 -45c0 -27 -23 -48 -49 -48z" />
    <glyph glyph-name="quotedblright" unicode="&#x201d;" horiz-adv-x="303" 
d="M93 685c26 0 49 -19 49 -59c0 -37 -50 -110 -75 -110c-17 0 -29 19 -29 31c0 5 3 5 7 7c7 2 22 19 36 38c-21 5 -37 23 -37 45c0 27 23 48 49 48zM216 685c26 0 49 -19 49 -59c0 -37 -50 -110 -75 -110c-17 0 -29 19 -29 31c0 5 3 5 7 7c7 2 22 19 36 38
c-21 5 -37 23 -37 45c0 27 23 48 49 48z" />
    <glyph glyph-name="quotesinglbase" unicode="&#x201a;" horiz-adv-x="180" 
d="M93 73c26 0 49 -19 49 -59c0 -37 -50 -110 -75 -110c-17 0 -29 19 -29 31c0 5 3 5 7 7c7 2 22 19 36 38c-21 5 -37 23 -37 45c0 27 23 48 49 48z" />
    <glyph glyph-name="quotedblbase" unicode="&#x201e;" horiz-adv-x="303" 
d="M93 73c26 0 49 -19 49 -59c0 -37 -50 -110 -75 -110c-17 0 -29 19 -29 31c0 5 3 5 7 7c7 2 22 19 36 38c-21 5 -37 23 -37 45c0 27 23 48 49 48zM216 73c26 0 49 -19 49 -59c0 -37 -50 -110 -75 -110c-17 0 -29 19 -29 31c0 5 3 5 7 7c7 2 22 19 36 38
c-21 5 -37 23 -37 45c0 27 23 48 49 48z" />
    <glyph glyph-name="guilsinglleft" unicode="&#x2039;" horiz-adv-x="352" 
d="M92 281l123 116c6 6 11 14 22 14c10 0 25 -25 25 -47c0 -9 -3 -20 -11 -28l-105 -94l105 -93c7 -7 10 -12 10 -25c0 -22 -17 -45 -31 -45c-7 0 -9 4 -10 5l-129 117c-18 12 -21 31 -21 48c0 14 3 24 22 32z" />
    <glyph glyph-name="guilsinglright" unicode="&#x203a;" horiz-adv-x="352" 
d="M260 209l-123 -116c-6 -6 -11 -14 -22 -14c-10 0 -25 25 -25 47c0 9 3 20 11 28l105 94l-101 91c-7 7 -15 9 -15 22c0 22 18 50 32 50c7 0 9 -4 10 -5l129 -117c17 -6 21 -19 21 -36c0 -14 -8 -31 -22 -44z" />
    <glyph glyph-name="guillemotleft" unicode="&#xab;" horiz-adv-x="532" 
d="M92 281l123 116c6 6 11 14 22 14c10 0 25 -25 25 -47c0 -9 -3 -20 -11 -28l-105 -94l105 -93c7 -7 10 -12 10 -25c0 -22 -17 -45 -31 -45c-7 0 -9 4 -10 5l-129 117c-18 12 -21 31 -21 48c0 14 3 24 22 32zM272 281l123 116c6 6 11 14 22 14c10 0 25 -25 25 -47
c0 -9 -3 -20 -11 -28l-105 -94l105 -93c7 -7 10 -12 10 -25c0 -22 -17 -45 -31 -45c-7 0 -9 4 -10 5l-129 117c-18 12 -21 31 -21 48c0 14 3 24 22 32z" />
    <glyph glyph-name="guillemotright" unicode="&#xbb;" horiz-adv-x="532" 
d="M440 209l-123 -116c-6 -6 -11 -14 -22 -14c-10 0 -25 25 -25 47c0 9 3 20 11 28l105 94l-105 93c-7 7 -10 12 -10 25c0 22 17 45 31 45c7 0 9 -4 10 -5l129 -117c18 -12 21 -31 21 -48c0 -14 -3 -24 -22 -32zM260 209l-123 -116c-6 -6 -11 -14 -22 -14
c-10 0 -25 25 -25 47c0 9 3 20 11 28l105 94l-105 93c-7 7 -10 12 -10 25c0 22 17 45 31 45c7 0 9 -4 10 -5l129 -117c18 -12 21 -31 21 -48c0 -14 -3 -24 -22 -32z" />
    <glyph glyph-name="periodcentered" unicode="&#xb7;" horiz-adv-x="270" 
d="M142 362c27 0 49 -21 49 -48c0 -25 -22 -47 -49 -47c-26 0 -48 22 -48 47c0 27 22 48 48 48z" />
    <glyph glyph-name="ellipsis" unicode="&#x2026;" horiz-adv-x="730" 
d="M142 73c27 0 49 -21 49 -48c0 -25 -22 -47 -49 -47c-26 0 -48 22 -48 47c0 27 22 48 48 48zM372 73c27 0 49 -21 49 -48c0 -25 -22 -47 -49 -47c-26 0 -48 22 -48 47c0 27 22 48 48 48zM602 73c27 0 49 -21 49 -48c0 -25 -22 -47 -49 -47c-26 0 -48 22 -48 47
c0 27 22 48 48 48z" />
    <glyph glyph-name="hyphen" unicode="-" horiz-adv-x="350" 
d="M76 303h202c7 0 10 5 13 5c7 0 10 -10 10 -21c0 -21 -13 -64 -31 -64h-206c-10 0 -16 13 -16 28c0 18 9 52 28 52z" />
    <glyph glyph-name="uni00AD" unicode="&#xad;" horiz-adv-x="350" 
d="M76 303h202c7 0 10 5 13 5c7 0 10 -10 10 -21c0 -21 -13 -64 -31 -64h-206c-10 0 -16 13 -16 28c0 18 9 52 28 52z" />
    <glyph glyph-name="endash" unicode="&#x2013;" horiz-adv-x="500" 
d="M75 293h353c7 0 10 5 13 5c7 0 10 -10 10 -21c0 -21 -13 -44 -31 -44h-357c-10 0 -16 13 -16 28c0 18 9 32 28 32z" />
    <glyph glyph-name="emdash" unicode="&#x2014;" horiz-adv-x="1000" 
d="M26 293h949c7 0 10 5 13 5c7 0 10 -10 10 -21c0 -21 -13 -44 -31 -44h-953c-10 0 -16 13 -16 28c0 18 9 32 28 32z" />
    <glyph glyph-name="underscore" unicode="_" horiz-adv-x="404" 
d="M28 -80h353c7 0 10 5 13 5c7 0 10 -20 10 -31c0 -21 -13 -54 -31 -54h-357c-10 0 -16 23 -16 38c0 18 9 42 28 42z" />
    <glyph glyph-name="grave" unicode="`" 
d="M217 452l-94 103c-5 6 -8 12 -8 17c0 19 28 32 41 32c14 0 22 -9 29 -19l91 -105c4 -5 8 -10 8 -15c0 -11 -18 -23 -45 -23c-11 0 -19 5 -22 10z" />
    <glyph glyph-name="acute" unicode="&#xb4;" 
d="M274 555l-89 -95c-8 -13 -22 -18 -33 -18c-27 0 -39 12 -39 23c0 5 4 10 8 15l91 105c2 11 19 19 33 19c19 0 41 -12 41 -29c0 -9 -7 -14 -12 -20z" />
    <glyph glyph-name="dieresis" unicode="&#xa8;" 
d="M81 509c0 26 21 47 47 47s47 -21 47 -47s-21 -47 -47 -47s-47 21 -47 47zM225 509c0 26 21 47 47 47s47 -21 47 -47s-21 -47 -47 -47s-47 21 -47 47z" />
    <glyph glyph-name="macron" unicode="&#xaf;" 
d="M121 534h172c17 2 22 -9 22 -26c0 -19 -10 -41 -26 -41c-1 0 -3 0 -5 1h-173c-18 0 -26 9 -26 23c0 27 13 43 36 43z" />
    <glyph glyph-name="cedilla" unicode="&#xb8;" 
d="M225 -21l-11 -31c70 -12 81 -60 81 -87c0 -36 -28 -95 -108 -95c-57 0 -78 13 -78 43c0 9 5 29 14 24c14 -7 38 -9 53 -9c35 0 58 16 58 43c0 49 -81 8 -81 55c0 12 19 67 19 67c2 18 17 26 31 26c27 0 29 -13 22 -36z" />
    <glyph glyph-name="circumflex" unicode="&#x2c6;" 
d="M239 576l66 -96c4 -5 8 -10 8 -15c0 -11 -18 -23 -45 -23c-11 0 -19 5 -22 10l-49 76l-43 -69c-5 -9 -9 -17 -24 -17c-18 0 -43 17 -43 31c0 2 1 3 2 4l70 100c12 18 29 27 46 27c24 0 26 -9 34 -28z" />
    <glyph glyph-name="caron" unicode="&#x2c7;" 
d="M161 470l-66 96c-4 5 -8 10 -8 15c0 11 18 23 45 23c11 0 19 -5 22 -10l49 -76l43 69c2 8 9 17 24 17c18 0 42 -16 42 -30c0 -4 -6 -12 -7 -13l-64 -92c-6 -18 -15 -27 -32 -27c-27 0 -32 7 -48 28z" />
    <glyph glyph-name="breve" unicode="&#x2d8;" 
d="M204 452c-49 0 -122 25 -122 119c0 11 18 23 45 23c11 0 19 -5 22 -10c2 -29 5 -71 54 -71c48 0 47 40 47 63c2 8 10 18 25 18c18 0 42 -16 42 -30c0 -98 -79 -112 -113 -112z" />
    <glyph glyph-name="dotaccent" unicode="&#x2d9;" 
d="M150 502c0 28 22 50 50 50s50 -22 50 -50s-22 -50 -50 -50s-50 22 -50 50z" />
    <glyph glyph-name="ring" unicode="&#x2da;" 
d="M97 535c0 57 46 103 103 103s103 -46 103 -103s-46 -103 -103 -103s-103 46 -103 103zM156 535c0 -25 19 -44 44 -44c24 0 44 19 44 44c0 24 -20 44 -44 44c-25 0 -44 -20 -44 -44z" />
    <glyph glyph-name="ogonek" unicode="&#x2db;" 
d="M242 16c25 -1 62 -28 37 -37c-39 -14 -103 -58 -103 -99c0 -19 11 -36 46 -36c15 0 45 2 59 9c9 5 14 -15 14 -24c0 -30 -21 -43 -78 -43c-80 0 -108 49 -108 85c0 77 92 147 133 145z" />
    <glyph glyph-name="tilde" unicode="&#x2dc;" 
d="M134 475c0 -9 -13 -13 -23 -13c-17 0 -36 9 -36 20c0 39 31 91 76 91c54 0 69 -53 100 -53c13 0 20 12 20 31c0 15 16 20 27 20c16 0 34 -9 34 -18c0 -64 -45 -96 -79 -96c-53 0 -78 55 -93 55c-19 0 -23 -20 -26 -37z" />
    <glyph glyph-name="hungarumlaut" unicode="&#x2dd;" 
d="M215 555l-64 -95c-5 -13 -18 -18 -29 -18c-27 0 -33 12 -36 23c-1 5 2 10 5 15l64 105c-1 11 14 19 28 19c19 0 35 -12 39 -29c2 -9 -3 -14 -7 -20zM351 555l-74 -95c-6 -13 -19 -18 -30 -18c-27 0 -34 12 -36 23c-1 5 2 10 6 15l74 105c1 11 16 19 30 19
c19 0 36 -12 39 -29c1 -9 -5 -14 -9 -20z" />
    <glyph glyph-name="space" unicode=" " horiz-adv-x="220" 
 />
    <glyph glyph-name="nbspace" unicode="&#xa0;" horiz-adv-x="220" 
 />
    <glyph glyph-name="mu" unicode="&#xb5;" horiz-adv-x="364" 
d="M115 338v-218c0 -54 27 -83 56 -83c44 0 63 61 72 127v169c0 29 -10 31 -10 38s18 11 32 11c33 0 54 -20 54 -44v-254c0 -9 0 -46 26 -46c11 0 19 9 27 17c3 3 7 5 10 5c10 0 18 -12 18 -31c0 -13 -3 -25 -10 -33c-13 -15 -36 -24 -63 -24c-37 0 -64 21 -76 51
c-19 -30 -43 -51 -76 -51c-28 0 -46 14 -60 38v-168c0 -37 -33 -44 -53 -44s-23 12 -23 27v508c0 29 -10 31 -10 38s18 11 32 11c33 0 54 -20 54 -44z" />
    <glyph glyph-name="partialdiff" unicode="&#x2202;" horiz-adv-x="343" 
d="M251 197c0 281 -150 432 -185 432c-7 0 -11 -2 -17 -2c-5 0 -8 2 -8 11c0 18 27 62 53 62c13 0 19 -3 29 -11c81 -69 200 -232 200 -486c0 -115 -44 -231 -155 -231c-96 0 -146 96 -146 196c0 147 80 226 102 226c17 0 32 -24 32 -45c0 -32 -58 -36 -58 -175
c0 -84 33 -136 72 -136c57 0 81 82 81 159z" />
    <glyph glyph-name="commaaccent" 
d="M214 -62c24 0 46 -17 46 -54c0 -38 -45 -101 -68 -101c-16 0 -27 17 -27 28c0 5 3 5 6 7c7 2 19 14 31 32c-19 4 -34 20 -34 44c0 28 23 44 46 44z" />
    <glyph glyph-name="uni2215" unicode="&#x2215;" horiz-adv-x="139" 
d="M-134 46l353 632c1 2 0 8 0 10c0 6 6 7 11 7c16 0 46 -15 46 -36c0 -3 1 -6 -2 -11l-360 -641c-3 -5 -8 -7 -13 -7c-15 0 -39 11 -39 32c0 3 1 10 4 14z" />
    <glyph glyph-name="A" unicode="A" horiz-adv-x="496" 
d="M240 385c-24 0 -44 17 -44 50c0 14 4 32 11 32s9 -10 38 -10c72 0 160 47 160 122c0 27 -18 55 -56 55c-155 0 -236 -222 -236 -379c0 -125 28 -217 114 -217c117 0 147 190 167 347c2 13 22 20 41 20c16 0 35 -7 31 -26c-5 -26 -13 -85 -13 -163c0 -131 5 -187 9 -219
c2 -3 3 -5 3 -7c0 -13 -29 -24 -51 -24c-35 0 -33 26 -36 107c-30 -63 -90 -113 -160 -113c-109 0 -185 78 -185 293c0 221 131 457 321 457c82 0 130 -56 130 -127c0 -115 -122 -198 -244 -198z" />
    </font>
</defs>
</svg>
