<?xml version="1.0" standalone="no"?>
<!DOCTYPE svg PUBLIC "-//W3C//DTD SVG 1.1//EN" "http://www.w3.org/Graphics/SVG/1.1/DTD/svg11.dtd" >
<svg xmlns="http://www.w3.org/2000/svg" xmlns:xlink="http://www.w3.org/1999/xlink" version="1.1">
<metadata>
Created by FontForge 20230101 at Fri Oct 21 06:11:42 2022
 By Glenn Lewis
Copyright 2019 The Chivo Project Authors (https://github.com/Omnibus-Type/Chivo)
</metadata>
<defs>
<font id="Chivo-BoldItalic" horiz-adv-x="0" >
  <font-face 
    font-family="Chivo"
    font-weight="700"
    font-style="italic"
    font-stretch="normal"
    units-per-em="1000"
    panose-1="0 0 0 0 0 0 0 0 0 0"
    ascent="800"
    descent="-200"
    x-height="511"
    cap-height="686"
    bbox="-196 -375 1313 1131"
    underline-thickness="72"
    underline-position="-206"
    slope="-8.05"
    unicode-range="U+000D-1FA9D"
  />
<missing-glyph horiz-adv-x="500" 
d="M0 0v700h500v-700h-500zM80 50h340l-170 255zM50 95l170 255l-170 255v-510zM450 95v510l-170 -255zM250 395l170 255h-340z" />
    <glyph glyph-name="f_f" unicode="ff" horiz-adv-x="752" 
d="M18 -185q-17 0 -37.5 2t-40.5 6.5t-33 11.5l13 96q11 -5 29.5 -9t30.5 -4q28 0 44.5 16t21.5 51l59 412h-62l16 114h62l10 72q7 53 32 85t63.5 46t85.5 14q16 0 37 -2t42 -6.5t34 -12.5l-13 -94q-12 5 -30 8.5t-31 3.5q-32 0 -46 -16t-19 -49l-8 -49h209l10 72
q8 53 32.5 85t63.5 46t86 14q16 0 37 -2t41.5 -6.5t33.5 -12.5l-13 -94q-12 5 -29.5 8.5t-30.5 3.5q-32 0 -46.5 -16t-19.5 -49l-7 -49h120l-16 -114h-120l-60 -426q-11 -81 -61.5 -118.5t-123.5 -37.5q-16 0 -37 2t-40.5 6.5t-33.5 11.5l13 96q12 -5 30 -9t31 -4
q28 0 44.5 16t21.5 51l59 412h-209l-60 -426q-11 -81 -62 -118.5t-123 -37.5z" />
    <glyph glyph-name="f_f_i" unicode="ffi" horiz-adv-x="1036" 
d="M18 -185q-17 0 -37.5 2t-40.5 6.5t-33 11.5l13 96q11 -5 29.5 -9t30.5 -4q28 0 44.5 16t21.5 51l59 412h-62l16 114h62l10 72q7 53 32 85t63.5 46t85.5 14q16 0 37 -2t42 -6.5t34 -12.5l-13 -94q-12 5 -30 8.5t-31 3.5q-32 0 -46 -16t-19 -49l-8 -49h209l10 72
q8 53 32.5 85t63.5 46t86 14q16 0 37 -2t41.5 -6.5t33.5 -12.5l-13 -94q-12 5 -29.5 8.5t-30.5 3.5q-32 0 -46.5 -16t-19.5 -49l-7 -49h120l-16 -114h-120l-60 -426q-11 -81 -61.5 -118.5t-123.5 -37.5q-16 0 -37 2t-40.5 6.5t-33.5 11.5l13 96q12 -5 30 -9t31 -4
q28 0 44.5 16t21.5 51l59 412h-209l-60 -426q-11 -81 -62 -118.5t-123 -37.5zM773 0l71 511h158l-72 -511h-157zM856 599l16 121h160l-17 -121h-159z" />
    <glyph glyph-name="f_f_l" unicode="ffl" horiz-adv-x="1036" 
d="M18 -185q-17 0 -37.5 2t-40.5 6.5t-33 11.5l13 96q11 -5 29.5 -9t30.5 -4q28 0 44.5 16t21.5 51l59 412h-62l16 114h62l10 72q7 53 32 85t63.5 46t85.5 14q16 0 37 -2t42 -6.5t34 -12.5l-13 -94q-12 5 -30 8.5t-31 3.5q-32 0 -46 -16t-19 -49l-8 -49h209l10 72
q8 53 32.5 85t63.5 46t86 14q16 0 37 -2t41.5 -6.5t33.5 -12.5l-13 -94q-12 5 -29.5 8.5t-30.5 3.5q-32 0 -46.5 -16t-19.5 -49l-7 -49h120l-16 -114h-120l-60 -426q-11 -81 -61.5 -118.5t-123.5 -37.5q-16 0 -37 2t-40.5 6.5t-33.5 11.5l13 96q12 -5 30 -9t31 -4
q28 0 44.5 16t21.5 51l59 412h-209l-60 -426q-11 -81 -62 -118.5t-123 -37.5zM771 0l101 720h158l-101 -720h-158z" />
    <glyph glyph-name="fi" unicode="fi" horiz-adv-x="661" 
d="M18 -185q-17 0 -37.5 2t-40.5 6.5t-33 11.5l13 96q11 -5 29.5 -9t30.5 -4q28 0 44.5 16t21.5 51l59 412h-62l16 114h62l10 72q7 53 32 85t63.5 46t85.5 14q16 0 37 -2t42 -6.5t34 -12.5l-13 -94q-12 5 -30 8.5t-31 3.5q-30 0 -45 -14.5t-20 -45.5l-8 -54h120l-16 -114
h-119l-60 -426q-11 -81 -62 -118.5t-123 -37.5zM399 0l72 511h157l-72 -511h-157zM482 599l17 121h159l-17 -121h-159z" />
    <glyph glyph-name="fl" unicode="fl" horiz-adv-x="664" 
d="M18 -185q-17 0 -37.5 2t-40.5 6.5t-33 11.5l13 96q11 -5 29.5 -9t30.5 -4q28 0 44.5 16t21.5 51l59 412h-62l16 114h62l10 72q7 53 32 85t63.5 46t85.5 14q16 0 37 -2t42 -6.5t34 -12.5l-13 -94q-12 5 -30 8.5t-31 3.5q-30 0 -45 -14.5t-20 -45.5l-8 -54h120l-16 -114
h-119l-60 -426q-11 -81 -62 -118.5t-123 -37.5zM399 0l101 720h158l-101 -720h-158z" />
    <glyph glyph-name=".notdef" horiz-adv-x="500" 
d="M0 0v700h500v-700h-500zM80 50h340l-170 255zM50 95l170 255l-170 255v-510zM450 95v510l-170 -255zM250 395l170 255h-340z" />
    <glyph glyph-name="A" unicode="A" horiz-adv-x="688" 
d="M-42 0l340 686h202l147 -686h-174l-29 133h-261l-65 -133h-160zM244 256h175l-49 255h-5z" />
    <glyph glyph-name="Aacute" unicode="&#xc1;" horiz-adv-x="688" 
d="M-42 0l340 686h202l147 -686h-174l-29 133h-261l-65 -133h-160zM244 256h175l-49 255h-5zM349 749l111 140h143l1 -3l-137 -137h-118z" />
    <glyph glyph-name="Abreve" unicode="&#x102;" horiz-adv-x="688" 
d="M-42 0l340 686h202l147 -686h-174l-29 133h-261l-65 -133h-160zM244 256h175l-49 255h-5zM404 748q-85 0 -123.5 38.5t-32.5 98.5h88q1 -28 19.5 -42t56.5 -14q39 0 62 14t33 42h87q-10 -60 -58.5 -98.5t-131.5 -38.5z" />
    <glyph glyph-name="uni1EAE" unicode="&#x1eae;" horiz-adv-x="688" 
d="M-42 0l340 686h202l147 -686h-174l-29 133h-261l-65 -133h-160zM244 256h175l-49 255h-5zM368 908l113 145h127l1 -3l-141 -142h-100zM406 756q-61 0 -101 18t-57.5 48.5t-12.5 70.5h88q2 -28 24.5 -42t66.5 -14q46 0 72.5 14t37.5 42h86q-5 -40 -31 -70.5t-69.5 -48.5
t-103.5 -18z" />
    <glyph glyph-name="uni1EB6" unicode="&#x1eb6;" horiz-adv-x="688" 
d="M-42 0l340 686h202l147 -686h-174l-29 133h-261l-65 -133h-160zM244 256h175l-49 255h-5zM207 -206l18 128h128l-18 -128h-128z" />
    <glyph glyph-name="uni1EB0" unicode="&#x1eb0;" horiz-adv-x="688" 
d="M-42 0l340 686h202l147 -686h-174l-29 133h-261l-65 -133h-160zM244 256h175l-49 255h-5zM382 908l-102 142l2 3h127l72 -145h-99zM407 756q-62 0 -101.5 18t-57 48.5t-12.5 70.5h88q2 -28 24.5 -42t66.5 -14q46 0 72.5 14t37.5 42h86q-5 -40 -31 -70.5t-69.5 -48.5
t-103.5 -18z" />
    <glyph glyph-name="uni1EB2" unicode="&#x1eb2;" horiz-adv-x="688" 
d="M-42 0l340 686h202l147 -686h-174l-29 133h-261l-65 -133h-160zM244 256h175l-49 255h-5zM405 908l8 57q26 2 41.5 14t15.5 33q0 13 -10 20t-27 7q-11 0 -25.5 -2.5t-31.5 -7.5l11 74q16 5 31.5 6.5t29.5 1.5q42 0 69 -20t27 -58q0 -35 -21 -62.5t-52.5 -44t-65.5 -18.5z
M406 756q-62 0 -101.5 18t-57 48.5t-12.5 70.5h88q2 -28 24.5 -42t66.5 -14q46 0 72.5 14t37.5 42h86q-5 -40 -31 -70.5t-69.5 -48.5t-103.5 -18z" />
    <glyph glyph-name="uni1EB4" unicode="&#x1eb4;" horiz-adv-x="688" 
d="M-42 0l340 686h202l147 -686h-174l-29 133h-261l-65 -133h-160zM244 256h175l-49 255h-5zM239 934q5 35 23.5 64t47.5 46.5t66 17.5q33 0 54.5 -8.5t41 -17.5t44.5 -9q20 0 34 9.5t22 25.5h65q-5 -34 -23 -63.5t-47.5 -47t-66.5 -17.5q-32 0 -53.5 9t-40.5 18t-46 9
q-20 0 -34 -9.5t-21 -26.5h-66zM406 756q-62 0 -102 18t-57.5 48.5t-11.5 70.5h87q3 -28 25 -42t67 -14t71.5 14t37.5 42h87q-6 -40 -32 -70.5t-69.5 -48.5t-102.5 -18z" />
    <glyph glyph-name="uni01CD" unicode="&#x1cd;" horiz-adv-x="688" 
d="M-42 0l340 686h202l147 -686h-174l-29 133h-261l-65 -133h-160zM244 256h175l-49 255h-5zM331 753l-95 132h114l74 -102h-33l104 102h113l-129 -132h-148z" />
    <glyph glyph-name="Acircumflex" unicode="&#xc2;" horiz-adv-x="688" 
d="M-42 0l340 686h202l147 -686h-174l-29 133h-261l-65 -133h-160zM244 256h175l-49 255h-5zM216 753l128 132h149l97 -132h-114l-75 102h34l-105 -102h-114z" />
    <glyph glyph-name="uni1EA4" unicode="&#x1ea4;" horiz-adv-x="688" 
d="M-42 0l340 686h202l147 -686h-174l-29 133h-261l-65 -133h-160zM244 256h175l-49 255h-5zM377 933l101 131h127l1 -3l-130 -128h-99zM209 758l156 132h114l119 -132h-105l-78 63l-97 -63h-109z" />
    <glyph glyph-name="uni1EAC" unicode="&#x1eac;" horiz-adv-x="688" 
d="M-42 0l340 686h202l147 -686h-174l-29 133h-261l-65 -133h-160zM244 256h175l-49 255h-5zM207 -206l18 128h128l-18 -128h-128z" />
    <glyph glyph-name="uni1EA6" unicode="&#x1ea6;" horiz-adv-x="688" 
d="M-42 0l340 686h202l147 -686h-174l-29 133h-261l-65 -133h-160zM244 256h175l-49 255h-5zM380 933l-94 128l2 3h127l65 -131h-100zM210 758l156 132h114l119 -132h-105l-78 63l-97 -63h-109z" />
    <glyph glyph-name="uni1EA8" unicode="&#x1ea8;" horiz-adv-x="688" 
d="M-42 0l340 686h202l147 -686h-174l-29 133h-261l-65 -133h-160zM244 256h175l-49 255h-5zM409 928l8 57q26 2 41.5 14t15.5 33q0 13 -10 20.5t-27 7.5q-11 0 -25.5 -2.5t-31.5 -8.5l10 74q17 5 32.5 6.5t29.5 1.5q42 0 68.5 -20t26.5 -58q0 -35 -20.5 -62.5t-52 -44
t-65.5 -18.5zM208 758l157 132h114l118 -132h-105l-78 63l-96 -63h-110z" />
    <glyph glyph-name="uni1EAA" unicode="&#x1eaa;" horiz-adv-x="688" 
d="M-42 0l340 686h202l147 -686h-174l-29 133h-261l-65 -133h-160zM244 256h175l-49 255h-5zM238 929q5 35 23.5 64t47.5 46.5t66 17.5q33 0 54.5 -9t41 -18t44.5 -9q20 0 34 9.5t22 26.5h65q-5 -35 -23 -64t-47.5 -46.5t-66.5 -17.5q-32 0 -53.5 8.5t-40.5 17.5t-46 10
q-20 0 -34 -10t-21 -26h-66zM209 758l157 132h114l118 -132h-105l-78 63l-96 -63h-110z" />
    <glyph glyph-name="uni0200" unicode="&#x200;" horiz-adv-x="688" 
d="M-42 0l340 686h202l147 -686h-174l-29 133h-261l-65 -133h-160zM244 256h175l-49 255h-5zM459 752l-102 142l5 3h122l73 -145h-98zM263 752l-102 142l2 3h125l73 -145h-98z" />
    <glyph glyph-name="Adieresis" unicode="&#xc4;" horiz-adv-x="688" 
d="M-42 0l340 686h202l147 -686h-174l-29 133h-261l-65 -133h-160zM244 256h175l-49 255h-5zM222 757l17 122h124l-17 -122h-124zM462 757l17 122h124l-17 -122h-124z" />
    <glyph glyph-name="uni1EA0" unicode="&#x1ea0;" horiz-adv-x="688" 
d="M-42 0l340 686h202l147 -686h-174l-29 133h-261l-65 -133h-160zM244 256h175l-49 255h-5zM207 -206l18 128h128l-18 -128h-128z" />
    <glyph glyph-name="Agrave" unicode="&#xc0;" horiz-adv-x="688" 
d="M-42 0l340 686h202l147 -686h-174l-29 133h-261l-65 -133h-160zM244 256h175l-49 255h-5zM356 749l-103 137l1 3h136l76 -140h-110z" />
    <glyph glyph-name="uni1EA2" unicode="&#x1ea2;" horiz-adv-x="688" 
d="M-42 0l340 686h202l147 -686h-174l-29 133h-261l-65 -133h-160zM244 256h175l-49 255h-5zM374 729l10 70q31 3 49.5 17t19.5 38q1 17 -10.5 26.5t-34.5 9.5q-13 0 -31 -3t-39 -10l13 92q20 5 39 7.5t37 2.5q52 0 84.5 -24.5t32.5 -70.5q0 -44 -25 -78t-64 -54.5
t-81 -22.5z" />
    <glyph glyph-name="uni0202" unicode="&#x202;" horiz-adv-x="688" 
d="M-42 0l340 686h202l147 -686h-174l-29 133h-261l-65 -133h-160zM244 256h175l-49 255h-5zM215 756q6 39 31 70t67.5 48.5t101.5 17.5q63 0 103.5 -17.5t59 -48.5t12.5 -70h-87q-3 28 -24.5 42t-67.5 14q-45 0 -71.5 -14t-37.5 -42h-87z" />
    <glyph glyph-name="Amacron" unicode="&#x100;" horiz-adv-x="688" 
d="M-42 0l340 686h202l147 -686h-174l-29 133h-261l-65 -133h-160zM244 256h175l-49 255h-5zM239 775l12 83h334l-12 -83h-334z" />
    <glyph glyph-name="Aogonek" unicode="&#x104;" horiz-adv-x="688" 
d="M-42 0l340 686h202l147 -686h-174l-29 133h-261l-65 -133h-160zM244 256h175l-49 255h-5zM510 -146q-36 0 -64 14.5t-28 49.5q0 28 17 49t38 33h91q-23 -12 -37.5 -26.5t-14.5 -34.5q0 -15 10.5 -21t24.5 -6q15 0 31.5 4t31.5 9l7 -44q-24 -13 -52 -20t-55 -7z" />
    <glyph glyph-name="Aring" unicode="&#xc5;" horiz-adv-x="688" 
d="M-42 0l340 686h202l147 -686h-174l-29 133h-261l-65 -133h-160zM244 256h175l-49 255h-5zM398 725q-40 0 -65.5 23.5t-25.5 62.5q0 35 17 62t45 42.5t60 15.5q42 0 67 -23.5t25 -62.5q0 -34 -16.5 -61.5t-44.5 -43t-62 -15.5zM408 786q21 0 34 15t13 34q0 15 -9.5 25
t-25.5 10q-20 0 -33.5 -15t-13.5 -34q0 -15 9.5 -25t25.5 -10z" />
    <glyph glyph-name="Aringacute" unicode="&#x1fa;" horiz-adv-x="688" 
d="M-42 0l340 686h202l147 -686h-174l-29 133h-261l-65 -133h-160zM244 256h175l-49 255h-5zM390 989l77 119h115l1 -2l-103 -117h-90zM392 741q-41 0 -66.5 23t-25.5 62q0 35 17 62.5t45 43t61 15.5q41 0 66 -23.5t25 -62.5q0 -35 -16.5 -62t-44.5 -42.5t-61 -15.5z
M401 802q21 0 34 15t13 34q0 15 -9.5 24.5t-25.5 9.5q-20 0 -33.5 -14.5t-13.5 -34.5q0 -15 9.5 -24.5t25.5 -9.5z" />
    <glyph glyph-name="Atilde" unicode="&#xc3;" horiz-adv-x="688" 
d="M-42 0l340 686h202l147 -686h-174l-29 133h-261l-65 -133h-160zM244 256h175l-49 255h-5zM208 750q8 44 25 74.5t44 47.5t63 17t62.5 -10.5t48.5 -21.5t43 -11t34 11.5t21 30.5h68q-7 -42 -24.5 -73t-44 -48t-62.5 -17t-63 10.5t-49 21.5t-44 11q-19 0 -31.5 -11
t-21.5 -32h-69z" />
    <glyph glyph-name="AE" unicode="&#xc6;" horiz-adv-x="1002" 
d="M-46 0l435 686h629l-36 -131h-380l9 -140h332l-18 -128h-302l10 -152h291v-135h-461l-7 133h-260l-84 -133h-158zM275 256h175l-14 255h-5z" />
    <glyph glyph-name="AEacute" unicode="&#x1fc;" horiz-adv-x="1002" 
d="M-46 0l435 686h629l-36 -131h-380l9 -140h332l-18 -128h-302l10 -152h291v-135h-461l-7 133h-260l-84 -133h-158zM275 256h175l-14 255h-5zM467 749l111 140h143l1 -3l-137 -137h-118z" />
    <glyph glyph-name="B" unicode="B" horiz-adv-x="653" 
d="M27 0l97 686h345q47 0 83 -18.5t57 -51.5t21 -76q0 -58 -22 -95t-54.5 -57.5t-63.5 -29.5l-1 -4q20 -5 39.5 -15.5t35.5 -27.5t26 -41.5t10 -57.5q0 -61 -29.5 -109t-80.5 -75.5t-115 -27.5h-348zM201 124h151q25 0 45 12t31.5 33.5t11.5 51.5q0 31 -18.5 50t-47.5 19
h-149zM242 410h145q24 0 42 13t28.5 35t10.5 47q0 30 -17 45.5t-43 15.5h-145z" />
    <glyph glyph-name="C" unicode="C" horiz-adv-x="678" 
d="M304 -10q-75 0 -135.5 30t-95.5 86.5t-35 135.5q0 20 5.5 62t12.5 88q10 69 37 125t69.5 95.5t99.5 61t126 21.5h19q71 0 128 -25.5t90.5 -76t33.5 -126.5q0 -14 -1 -27.5t-3 -27.5h-159q3 16 4 26.5t1 21.5q0 35 -14 58t-39 35t-59 12q-42 0 -74 -17t-52.5 -50.5
t-28.5 -83.5q-7 -49 -11 -80.5t-6.5 -50t-3.5 -29t-1 -18.5q0 -37 14 -62.5t40 -39t62 -13.5q45 0 77 15.5t51.5 49t27.5 87.5h152q-13 -91 -55 -154t-108 -96t-152 -33h-17z" />
    <glyph glyph-name="Cacute" unicode="&#x106;" horiz-adv-x="678" 
d="M304 -10q-75 0 -135.5 30t-95.5 86.5t-35 135.5q0 20 5.5 62t12.5 88q10 69 37 125t69.5 95.5t99.5 61t126 21.5h19q71 0 128 -25.5t90.5 -76t33.5 -126.5q0 -14 -1 -27.5t-3 -27.5h-159q3 16 4 26.5t1 21.5q0 35 -14 58t-39 35t-59 12q-42 0 -74 -17t-52.5 -50.5
t-28.5 -83.5q-7 -49 -11 -80.5t-6.5 -50t-3.5 -29t-1 -18.5q0 -37 14 -62.5t40 -39t62 -13.5q45 0 77 15.5t51.5 49t27.5 87.5h152q-13 -91 -55 -154t-108 -96t-152 -33h-17zM343 749l111 140h143l1 -3l-137 -137h-118z" />
    <glyph glyph-name="Ccaron" unicode="&#x10c;" horiz-adv-x="678" 
d="M304 -10q-75 0 -135.5 30t-95.5 86.5t-35 135.5q0 20 5.5 62t12.5 88q10 69 37 125t69.5 95.5t99.5 61t126 21.5h19q71 0 128 -25.5t90.5 -76t33.5 -126.5q0 -14 -1 -27.5t-3 -27.5h-159q3 16 4 26.5t1 21.5q0 35 -14 58t-39 35t-59 12q-42 0 -74 -17t-52.5 -50.5
t-28.5 -83.5q-7 -49 -11 -80.5t-6.5 -50t-3.5 -29t-1 -18.5q0 -37 14 -62.5t40 -39t62 -13.5q45 0 77 15.5t51.5 49t27.5 87.5h152q-13 -91 -55 -154t-108 -96t-152 -33h-17zM325 753l-95 132h114l74 -102h-33l104 102h113l-129 -132h-148z" />
    <glyph glyph-name="Ccedilla" unicode="&#xc7;" horiz-adv-x="678" 
d="M304 -10q-75 0 -135.5 30t-95.5 86.5t-35 135.5q0 20 5.5 62t12.5 88q10 69 37 125t69.5 95.5t99.5 61t126 21.5h19q71 0 128 -25.5t90.5 -76t33.5 -126.5q0 -14 -1 -27.5t-3 -27.5h-159q3 16 4 26.5t1 21.5q0 35 -14 58t-39 35t-59 12q-42 0 -74 -17t-52.5 -50.5
t-28.5 -83.5q-7 -49 -11 -80.5t-6.5 -50t-3.5 -29t-1 -18.5q0 -37 14 -62.5t40 -39t62 -13.5q45 0 77 15.5t51.5 49t27.5 87.5h152q-13 -91 -55 -154t-108 -96t-152 -33h-17zM265 -210q-29 0 -57 7.5t-47 21.5l31 56q12 -10 30 -18t46 -8q14 0 25.5 4t19 12.5t7.5 22.5
q0 15 -8.5 20.5t-24.5 5.5h-22l9 56h34q37 0 66 -16.5t29 -55.5q0 -40 -22.5 -64t-54 -34t-61.5 -10z" />
    <glyph glyph-name="Ccircumflex" unicode="&#x108;" horiz-adv-x="678" 
d="M304 -10q-75 0 -135.5 30t-95.5 86.5t-35 135.5q0 20 5.5 62t12.5 88q10 69 37 125t69.5 95.5t99.5 61t126 21.5h19q71 0 128 -25.5t90.5 -76t33.5 -126.5q0 -14 -1 -27.5t-3 -27.5h-159q3 16 4 26.5t1 21.5q0 35 -14 58t-39 35t-59 12q-42 0 -74 -17t-52.5 -50.5
t-28.5 -83.5q-7 -49 -11 -80.5t-6.5 -50t-3.5 -29t-1 -18.5q0 -37 14 -62.5t40 -39t62 -13.5q45 0 77 15.5t51.5 49t27.5 87.5h152q-13 -91 -55 -154t-108 -96t-152 -33h-17zM210 753l128 132h149l97 -132h-114l-75 102h34l-105 -102h-114z" />
    <glyph glyph-name="Cdotaccent" unicode="&#x10a;" horiz-adv-x="678" 
d="M304 -10q-75 0 -135.5 30t-95.5 86.5t-35 135.5q0 20 5.5 62t12.5 88q10 69 37 125t69.5 95.5t99.5 61t126 21.5h19q71 0 128 -25.5t90.5 -76t33.5 -126.5q0 -14 -1 -27.5t-3 -27.5h-159q3 16 4 26.5t1 21.5q0 35 -14 58t-39 35t-59 12q-42 0 -74 -17t-52.5 -50.5
t-28.5 -83.5q-7 -49 -11 -80.5t-6.5 -50t-3.5 -29t-1 -18.5q0 -37 14 -62.5t40 -39t62 -13.5q45 0 77 15.5t51.5 49t27.5 87.5h152q-13 -91 -55 -154t-108 -96t-152 -33h-17zM335 755l17 122h124l-17 -122h-124z" />
    <glyph glyph-name="D" unicode="D" horiz-adv-x="689" 
d="M27 0l97 686h282q74 0 131.5 -29.5t90.5 -84.5t33 -132q0 -11 -1 -26.5t-4 -42t-10 -73.5q-10 -69 -37.5 -124.5t-71 -94t-103 -59t-132.5 -20.5h-275zM214 132h101q42 0 73 16.5t51.5 48.5t26.5 78q6 39 10.5 71t7 57.5t2.5 40.5q0 37 -14 61.5t-38.5 37.5t-59.5 13
h-101z" />
    <glyph glyph-name="uni01C4" unicode="&#x1c4;" horiz-adv-x="1299" 
d="M27 0l97 686h282q74 0 131.5 -29.5t90.5 -84.5t33 -132q0 -11 -1 -26.5t-4 -42t-10 -73.5q-10 -69 -37.5 -124.5t-71 -94t-103 -59t-132.5 -20.5h-275zM214 132h101q42 0 73 16.5t51.5 48.5t26.5 78q6 39 10.5 71t7 57.5t2.5 40.5q0 37 -14 61.5t-38.5 37.5t-59.5 13
h-101zM672 0l7 52l376 502h-282l19 132h521l-8 -52l-373 -501h311l-19 -133h-552zM971 753l-95 132h114l74 -102h-33l104 102h113l-129 -132h-148z" />
    <glyph glyph-name="Eth" unicode="&#xd0;" horiz-adv-x="689" 
d="M27 0l97 686h282q74 0 131.5 -29.5t90.5 -84.5t33 -132q0 -11 -1 -26.5t-4 -42t-10 -73.5q-10 -69 -37.5 -124.5t-71 -94t-103 -59t-132.5 -20.5h-275zM214 132h101q42 0 73 16.5t51.5 48.5t26.5 78q6 39 10.5 71t7 57.5t2.5 40.5q0 37 -14 61.5t-38.5 37.5t-59.5 13
h-101zM1 294l15 108h370l-16 -108h-369z" />
    <glyph glyph-name="Dcaron" unicode="&#x10e;" horiz-adv-x="689" 
d="M27 0l97 686h282q74 0 131.5 -29.5t90.5 -84.5t33 -132q0 -11 -1 -26.5t-4 -42t-10 -73.5q-10 -69 -37.5 -124.5t-71 -94t-103 -59t-132.5 -20.5h-275zM214 132h101q42 0 73 16.5t51.5 48.5t26.5 78q6 39 10.5 71t7 57.5t2.5 40.5q0 37 -14 61.5t-38.5 37.5t-59.5 13
h-101zM321 753l-95 132h114l74 -102h-33l104 102h113l-129 -132h-148z" />
    <glyph glyph-name="Dcroat" unicode="&#x110;" horiz-adv-x="689" 
d="M27 0l97 686h282q74 0 131.5 -29.5t90.5 -84.5t33 -132q0 -11 -1 -26.5t-4 -42t-10 -73.5q-10 -69 -37.5 -124.5t-71 -94t-103 -59t-132.5 -20.5h-275zM214 132h101q42 0 73 16.5t51.5 48.5t26.5 78q6 39 10.5 71t7 57.5t2.5 40.5q0 37 -14 61.5t-38.5 37.5t-59.5 13
h-101zM1 294l15 108h370l-16 -108h-369z" />
    <glyph glyph-name="uni01C5" unicode="&#x1c5;" horiz-adv-x="1175" 
d="M27 0l97 686h282q74 0 131.5 -29.5t90.5 -84.5t33 -132q0 -11 -1 -26.5t-4 -42t-10 -73.5q-10 -69 -37.5 -124.5t-71 -94t-103 -59t-132.5 -20.5h-275zM214 132h101q42 0 73 16.5t51.5 48.5t26.5 78q6 39 10.5 71t7 57.5t2.5 40.5q0 37 -14 61.5t-38.5 37.5t-59.5 13
h-101zM679 0l7 54l261 352h-199l14 105h407l-7 -51l-262 -354h220l-14 -106h-427zM1191 762l-157 -179h-124l-107 179h114l92 -158h-71l136 158h117z" />
    <glyph glyph-name="E" unicode="E" horiz-adv-x="598" 
d="M27 0l97 686h490l-35 -128h-308l-20 -144h288l-17 -125h-289l-23 -161h309l1 -128h-493z" />
    <glyph glyph-name="Eacute" unicode="&#xc9;" horiz-adv-x="598" 
d="M27 0l97 686h490l-35 -128h-308l-20 -144h288l-17 -125h-289l-23 -161h309l1 -128h-493zM321 749l111 140h143l1 -3l-137 -137h-118z" />
    <glyph glyph-name="Ebreve" unicode="&#x114;" horiz-adv-x="598" 
d="M27 0l97 686h490l-35 -128h-308l-20 -144h288l-17 -125h-289l-23 -161h309l1 -128h-493zM377 748q-85 0 -123.5 38.5t-32.5 98.5h88q1 -28 19.5 -42t56.5 -14q39 0 62 14t33 42h87q-10 -60 -58.5 -98.5t-131.5 -38.5z" />
    <glyph glyph-name="Ecaron" unicode="&#x11a;" horiz-adv-x="598" 
d="M27 0l97 686h490l-35 -128h-308l-20 -144h288l-17 -125h-289l-23 -161h309l1 -128h-493zM303 753l-95 132h114l74 -102h-33l104 102h113l-129 -132h-148z" />
    <glyph glyph-name="Ecircumflex" unicode="&#xca;" horiz-adv-x="598" 
d="M27 0l97 686h490l-35 -128h-308l-20 -144h288l-17 -125h-289l-23 -161h309l1 -128h-493zM188 753l128 132h149l97 -132h-114l-75 102h34l-105 -102h-114z" />
    <glyph glyph-name="uni1EBE" unicode="&#x1ebe;" horiz-adv-x="598" 
d="M27 0l97 686h490l-35 -128h-308l-20 -144h288l-17 -125h-289l-23 -161h309l1 -128h-493zM350 933l101 131h127l1 -3l-130 -128h-99zM182 758l156 132h114l119 -132h-105l-78 63l-97 -63h-109z" />
    <glyph glyph-name="uni1EC6" unicode="&#x1ec6;" horiz-adv-x="598" 
d="M27 0l97 686h490l-35 -128h-308l-20 -144h288l-17 -125h-289l-23 -161h309l1 -128h-493zM187 -206l18 128h128l-18 -128h-128z" />
    <glyph glyph-name="uni1EC0" unicode="&#x1ec0;" horiz-adv-x="598" 
d="M27 0l97 686h490l-35 -128h-308l-20 -144h288l-17 -125h-289l-23 -161h309l1 -128h-493zM352 933l-94 128l2 3h127l65 -131h-100zM182 758l156 132h114l119 -132h-105l-78 63l-97 -63h-109z" />
    <glyph glyph-name="uni1EC2" unicode="&#x1ec2;" horiz-adv-x="598" 
d="M27 0l97 686h490l-35 -128h-308l-20 -144h288l-17 -125h-289l-23 -161h309l1 -128h-493zM382 928l8 57q26 2 41.5 14t15.5 33q0 13 -10 20.5t-27 7.5q-11 0 -25.5 -2.5t-31.5 -8.5l10 74q17 5 32.5 6.5t29.5 1.5q42 0 68.5 -20t26.5 -58q0 -35 -20.5 -62.5t-52 -44
t-65.5 -18.5zM181 758l157 132h114l118 -132h-105l-78 63l-96 -63h-110z" />
    <glyph glyph-name="uni1EC4" unicode="&#x1ec4;" horiz-adv-x="598" 
d="M27 0l97 686h490l-35 -128h-308l-20 -144h288l-17 -125h-289l-23 -161h309l1 -128h-493zM211 929q5 35 23.5 64t47.5 46.5t66 17.5q33 0 54.5 -9t41 -18t44.5 -9q20 0 34 9.5t22 26.5h65q-5 -35 -23 -64t-47.5 -46.5t-66.5 -17.5q-32 0 -53.5 8.5t-40.5 17.5t-46 10
q-20 0 -34 -10t-21 -26h-66zM182 758l157 132h114l118 -132h-105l-78 63l-96 -63h-110z" />
    <glyph glyph-name="uni0204" unicode="&#x204;" horiz-adv-x="598" 
d="M27 0l97 686h490l-35 -128h-308l-20 -144h288l-17 -125h-289l-23 -161h309l1 -128h-493zM432 752l-102 142l5 3h122l73 -145h-98zM236 752l-102 142l2 3h125l73 -145h-98z" />
    <glyph glyph-name="Edieresis" unicode="&#xcb;" horiz-adv-x="598" 
d="M27 0l97 686h490l-35 -128h-308l-20 -144h288l-17 -125h-289l-23 -161h309l1 -128h-493zM194 757l17 122h124l-17 -122h-124zM434 757l17 122h124l-17 -122h-124z" />
    <glyph glyph-name="Edotaccent" unicode="&#x116;" horiz-adv-x="598" 
d="M27 0l97 686h490l-35 -128h-308l-20 -144h288l-17 -125h-289l-23 -161h309l1 -128h-493zM314 755l17 122h124l-17 -122h-124z" />
    <glyph glyph-name="uni1EB8" unicode="&#x1eb8;" horiz-adv-x="598" 
d="M27 0l97 686h490l-35 -128h-308l-20 -144h288l-17 -125h-289l-23 -161h309l1 -128h-493zM187 -206l18 128h128l-18 -128h-128z" />
    <glyph glyph-name="Egrave" unicode="&#xc8;" horiz-adv-x="598" 
d="M27 0l97 686h490l-35 -128h-308l-20 -144h288l-17 -125h-289l-23 -161h309l1 -128h-493zM328 749l-103 137l1 3h136l76 -140h-110z" />
    <glyph glyph-name="uni1EBA" unicode="&#x1eba;" horiz-adv-x="598" 
d="M27 0l97 686h490l-35 -128h-308l-20 -144h288l-17 -125h-289l-23 -161h309l1 -128h-493zM346 729l10 70q31 3 49.5 17t19.5 38q1 17 -10.5 26.5t-34.5 9.5q-13 0 -31 -3t-39 -10l13 92q20 5 39 7.5t37 2.5q52 0 84.5 -24.5t32.5 -70.5q0 -44 -25 -78t-64 -54.5t-81 -22.5
z" />
    <glyph glyph-name="uni0206" unicode="&#x206;" horiz-adv-x="598" 
d="M27 0l97 686h490l-35 -128h-308l-20 -144h288l-17 -125h-289l-23 -161h309l1 -128h-493zM188 756q6 39 31 70t67.5 48.5t101.5 17.5q63 0 103.5 -17.5t59 -48.5t12.5 -70h-87q-3 28 -24.5 42t-67.5 14q-45 0 -71.5 -14t-37.5 -42h-87z" />
    <glyph glyph-name="Emacron" unicode="&#x112;" horiz-adv-x="598" 
d="M27 0l97 686h490l-35 -128h-308l-20 -144h288l-17 -125h-289l-23 -161h309l1 -128h-493zM212 775l12 83h334l-12 -83h-334z" />
    <glyph glyph-name="Eogonek" unicode="&#x118;" horiz-adv-x="598" 
d="M27 0l97 686h490l-35 -128h-308l-20 -144h288l-17 -125h-289l-23 -161h309l1 -128h-493zM460 -146q-36 0 -64 14.5t-28 49.5q0 28 17 49t38 33h91q-23 -12 -37.5 -26.5t-14.5 -34.5q0 -15 10.5 -21t24.5 -6q15 0 31.5 4t31.5 9l7 -44q-24 -13 -52 -20t-55 -7z" />
    <glyph glyph-name="uni1EBC" unicode="&#x1ebc;" horiz-adv-x="598" 
d="M27 0l97 686h490l-35 -128h-308l-20 -144h288l-17 -125h-289l-23 -161h309l1 -128h-493zM180 750q8 44 25 74.5t44 47.5t63 17t62.5 -10.5t48.5 -21.5t43 -11t34 11.5t21 30.5h68q-7 -42 -24.5 -73t-44 -48t-62.5 -17t-63 10.5t-49 21.5t-44 11q-19 0 -31.5 -11
t-21.5 -32h-69z" />
    <glyph glyph-name="uni018F" unicode="&#x18f;" horiz-adv-x="711" 
d="M299 -10q-73 0 -130.5 28.5t-91 82.5t-33.5 129q0 12 1 26t4.5 36.5t8.5 60.5h175q-6 -48 -10 -75t-5.5 -40t-1.5 -20q0 -35 13 -58.5t38.5 -35t61.5 -11.5q31 0 57.5 8.5t46.5 26.5t33.5 45.5t18.5 64.5q8 60 12.5 95.5t7 54.5t3.5 27.5t1 14.5q0 36 -14.5 61.5
t-41 39.5t-62.5 14t-67.5 -12.5t-52.5 -38t-26 -66.5l-2 -12h-169l3 19q9 57 38.5 101t73.5 75.5t95.5 47.5t103.5 16h33q76 0 135 -31t93 -88t34 -133q0 -19 -5.5 -61t-12.5 -88q-9 -69 -38 -125t-72.5 -96t-100 -61.5t-122.5 -21.5h-33zM78 228l17 125h546l-18 -125h-545z
" />
    <glyph glyph-name="F" unicode="F" horiz-adv-x="560" 
d="M27 0l97 686h472l-36 -128h-290l-22 -159h262l-18 -124h-262l-39 -275h-164z" />
    <glyph glyph-name="uni0191" unicode="&#x191;" horiz-adv-x="560" 
d="M0 -186q-16 0 -37 2.5t-41 7t-34 10.5l13 97q11 -5 30 -9t30 -4q20 0 39 12t25 54l99 702h472l-36 -128h-290l-22 -159h262l-18 -124h-262l-42 -296q-12 -85 -62 -125t-126 -40z" />
    <glyph glyph-name="G" unicode="G" horiz-adv-x="693" 
d="M282 -10q-73 0 -128 30t-85.5 86.5t-30.5 135.5q0 20 5.5 62t12.5 88q9 68 36.5 123.5t70.5 96t100.5 62t128.5 21.5h19q69 0 125 -25.5t89.5 -73t33.5 -113.5v-19.5t-2 -21.5h-157q1 5 1 10.5v13.5q0 34 -14 55.5t-39.5 32.5t-58.5 11q-42 0 -74 -17t-52.5 -50.5
t-28.5 -83.5q-7 -49 -11 -80.5t-6.5 -50t-3.5 -29t-1 -18.5q0 -37 14 -62.5t40 -39t62 -13.5q30 0 54.5 6.5t43.5 21t31 38t16 56.5l2 15h-146l16 118h302l-33 -238q-6 -46 -9.5 -80t-3.5 -58h-91l-14 77q-38 -40 -87.5 -63.5t-118.5 -23.5h-8z" />
    <glyph glyph-name="Gbreve" unicode="&#x11e;" horiz-adv-x="693" 
d="M282 -10q-73 0 -128 30t-85.5 86.5t-30.5 135.5q0 20 5.5 62t12.5 88q9 68 36.5 123.5t70.5 96t100.5 62t128.5 21.5h19q69 0 125 -25.5t89.5 -73t33.5 -113.5v-19.5t-2 -21.5h-157q1 5 1 10.5v13.5q0 34 -14 55.5t-39.5 32.5t-58.5 11q-42 0 -74 -17t-52.5 -50.5
t-28.5 -83.5q-7 -49 -11 -80.5t-6.5 -50t-3.5 -29t-1 -18.5q0 -37 14 -62.5t40 -39t62 -13.5q30 0 54.5 6.5t43.5 21t31 38t16 56.5l2 15h-146l16 118h302l-33 -238q-6 -46 -9.5 -80t-3.5 -58h-91l-14 77q-38 -40 -87.5 -63.5t-118.5 -23.5h-8zM405 748q-85 0 -123.5 38.5
t-32.5 98.5h88q1 -28 19.5 -42t56.5 -14q39 0 62 14t33 42h87q-10 -60 -58.5 -98.5t-131.5 -38.5z" />
    <glyph glyph-name="Gcaron" unicode="&#x1e6;" horiz-adv-x="693" 
d="M282 -10q-73 0 -128 30t-85.5 86.5t-30.5 135.5q0 20 5.5 62t12.5 88q9 68 36.5 123.5t70.5 96t100.5 62t128.5 21.5h19q69 0 125 -25.5t89.5 -73t33.5 -113.5v-19.5t-2 -21.5h-157q1 5 1 10.5v13.5q0 34 -14 55.5t-39.5 32.5t-58.5 11q-42 0 -74 -17t-52.5 -50.5
t-28.5 -83.5q-7 -49 -11 -80.5t-6.5 -50t-3.5 -29t-1 -18.5q0 -37 14 -62.5t40 -39t62 -13.5q30 0 54.5 6.5t43.5 21t31 38t16 56.5l2 15h-146l16 118h302l-33 -238q-6 -46 -9.5 -80t-3.5 -58h-91l-14 77q-38 -40 -87.5 -63.5t-118.5 -23.5h-8zM331 753l-95 132h114l74 -102
h-33l104 102h113l-129 -132h-148z" />
    <glyph glyph-name="Gcircumflex" unicode="&#x11c;" horiz-adv-x="693" 
d="M282 -10q-73 0 -128 30t-85.5 86.5t-30.5 135.5q0 20 5.5 62t12.5 88q9 68 36.5 123.5t70.5 96t100.5 62t128.5 21.5h19q69 0 125 -25.5t89.5 -73t33.5 -113.5v-19.5t-2 -21.5h-157q1 5 1 10.5v13.5q0 34 -14 55.5t-39.5 32.5t-58.5 11q-42 0 -74 -17t-52.5 -50.5
t-28.5 -83.5q-7 -49 -11 -80.5t-6.5 -50t-3.5 -29t-1 -18.5q0 -37 14 -62.5t40 -39t62 -13.5q30 0 54.5 6.5t43.5 21t31 38t16 56.5l2 15h-146l16 118h302l-33 -238q-6 -46 -9.5 -80t-3.5 -58h-91l-14 77q-38 -40 -87.5 -63.5t-118.5 -23.5h-8zM216 753l128 132h149l97 -132
h-114l-75 102h34l-105 -102h-114z" />
    <glyph glyph-name="uni0122" unicode="&#x122;" horiz-adv-x="693" 
d="M282 -10q-73 0 -128 30t-85.5 86.5t-30.5 135.5q0 20 5.5 62t12.5 88q9 68 36.5 123.5t70.5 96t100.5 62t128.5 21.5h19q69 0 125 -25.5t89.5 -73t33.5 -113.5v-19.5t-2 -21.5h-157q1 5 1 10.5v13.5q0 34 -14 55.5t-39.5 32.5t-58.5 11q-42 0 -74 -17t-52.5 -50.5
t-28.5 -83.5q-7 -49 -11 -80.5t-6.5 -50t-3.5 -29t-1 -18.5q0 -37 14 -62.5t40 -39t62 -13.5q30 0 54.5 6.5t43.5 21t31 38t16 56.5l2 15h-146l16 118h302l-33 -238q-6 -46 -9.5 -80t-3.5 -58h-91l-14 77q-38 -40 -87.5 -63.5t-118.5 -23.5h-8zM189 -375l3 16q35 32 55 67.5
t25 72.5h-61l21 146h134l-18 -124q-6 -50 -29 -96.5t-60 -81.5h-70z" />
    <glyph glyph-name="Gdotaccent" unicode="&#x120;" horiz-adv-x="693" 
d="M282 -10q-73 0 -128 30t-85.5 86.5t-30.5 135.5q0 20 5.5 62t12.5 88q9 68 36.5 123.5t70.5 96t100.5 62t128.5 21.5h19q69 0 125 -25.5t89.5 -73t33.5 -113.5v-19.5t-2 -21.5h-157q1 5 1 10.5v13.5q0 34 -14 55.5t-39.5 32.5t-58.5 11q-42 0 -74 -17t-52.5 -50.5
t-28.5 -83.5q-7 -49 -11 -80.5t-6.5 -50t-3.5 -29t-1 -18.5q0 -37 14 -62.5t40 -39t62 -13.5q30 0 54.5 6.5t43.5 21t31 38t16 56.5l2 15h-146l16 118h302l-33 -238q-6 -46 -9.5 -80t-3.5 -58h-91l-14 77q-38 -40 -87.5 -63.5t-118.5 -23.5h-8zM342 755l17 122h124l-17 -122
h-124z" />
    <glyph glyph-name="uni01E4" unicode="&#x1e4;" horiz-adv-x="693" 
d="M282 -10q-73 0 -128 30t-85.5 86.5t-30.5 135.5q0 20 5.5 62t12.5 88q9 68 36.5 123.5t70.5 96t100.5 62t128.5 21.5h19q69 0 125 -25.5t89.5 -73t33.5 -113.5v-19.5t-2 -21.5h-157q1 5 1 10.5v13.5q0 34 -14 55.5t-39.5 32.5t-58.5 11q-42 0 -74 -17t-52.5 -50.5
t-28.5 -83.5q-9 -65 -14 -102.5t-7 -56t-2 -29.5q0 -37 14 -62.5t40 -39t62 -13.5q30 0 55 6.5t43.5 21t30.5 38t16 56.5l5 40h-146l14 103h302l-33 -238q-6 -46 -9.5 -80t-3.5 -58h-91l-14 77q-38 -40 -87.5 -63.5t-118.5 -23.5h-8zM348 167l9 68h320l-9 -68h-320z" />
    <glyph glyph-name="H" unicode="H" horiz-adv-x="695" 
d="M27 0l97 686h168l-38 -267h221l38 267h166l-97 -686h-166l39 282h-220l-40 -282h-168z" />
    <glyph glyph-name="Hbar" unicode="&#x126;" horiz-adv-x="695" 
d="M27 0l97 686h168l-38 -267h221l38 267h166l-97 -686h-166l39 282h-220l-40 -282h-168zM29 489l14 108h691l-15 -108h-690z" />
    <glyph glyph-name="Hcircumflex" unicode="&#x124;" horiz-adv-x="695" 
d="M27 0l97 686h168l-38 -267h221l38 267h166l-97 -686h-166l39 282h-220l-40 -282h-168zM220 753l128 132h149l97 -132h-114l-75 102h34l-105 -102h-114z" />
    <glyph glyph-name="uni1E24" unicode="&#x1e24;" horiz-adv-x="695" 
d="M27 0l97 686h168l-38 -267h221l38 267h166l-97 -686h-166l39 282h-220l-40 -282h-168zM212 -206l18 128h128l-18 -128h-128z" />
    <glyph glyph-name="I" unicode="I" horiz-adv-x="428" 
d="M6 0l18 127h82l60 433h-81l18 126h330l-18 -126h-82l-61 -433h82l-18 -127h-330z" />
    <glyph glyph-name="IJ" unicode="&#x132;" horiz-adv-x="962" 
d="M6 0l18 127h82l60 433h-81l18 126h330l-18 -126h-82l-61 -433h82l-18 -127h-330zM612 -10q-56 0 -98.5 18t-66.5 54.5t-24 90.5q0 9 1.5 26t8.5 54h155q-3 -19 -5.5 -35.5t-2.5 -22.5q0 -25 16.5 -41t41.5 -16q30 0 51 18t26 49l70 501h164l-71 -503q-9 -64 -42.5 -107
t-85 -64.5t-116.5 -21.5h-22z" />
    <glyph glyph-name="Iacute" unicode="&#xcd;" horiz-adv-x="428" 
d="M6 0l18 127h82l60 433h-81l18 126h330l-18 -126h-82l-61 -433h82l-18 -127h-330zM216 749l111 140h143l1 -3l-137 -137h-118z" />
    <glyph glyph-name="Ibreve" unicode="&#x12c;" horiz-adv-x="428" 
d="M6 0l18 127h82l60 433h-81l18 126h330l-18 -126h-82l-61 -433h82l-18 -127h-330zM272 748q-85 0 -123.5 38.5t-32.5 98.5h88q1 -28 19.5 -42t56.5 -14q39 0 62 14t33 42h87q-10 -60 -58.5 -98.5t-131.5 -38.5z" />
    <glyph glyph-name="uni01CF" unicode="&#x1cf;" horiz-adv-x="428" 
d="M6 0l18 127h82l60 433h-81l18 126h330l-18 -126h-82l-61 -433h82l-18 -127h-330zM198 753l-95 132h114l74 -102h-33l104 102h113l-129 -132h-148z" />
    <glyph glyph-name="Icircumflex" unicode="&#xce;" horiz-adv-x="428" 
d="M6 0l18 127h82l60 433h-81l18 126h330l-18 -126h-82l-61 -433h82l-18 -127h-330zM83 753l128 132h149l97 -132h-114l-75 102h34l-105 -102h-114z" />
    <glyph glyph-name="uni0208" unicode="&#x208;" horiz-adv-x="428" 
d="M6 0l18 127h82l60 433h-81l18 126h330l-18 -126h-82l-61 -433h82l-18 -127h-330zM327 752l-102 142l5 3h122l73 -145h-98zM131 752l-102 142l2 3h125l73 -145h-98z" />
    <glyph glyph-name="Idieresis" unicode="&#xcf;" horiz-adv-x="428" 
d="M6 0l18 127h82l60 433h-81l18 126h330l-18 -126h-82l-61 -433h82l-18 -127h-330zM89 757l17 122h124l-17 -122h-124zM329 757l17 122h124l-17 -122h-124z" />
    <glyph glyph-name="Idotaccent" unicode="&#x130;" horiz-adv-x="428" 
d="M6 0l18 127h82l60 433h-81l18 126h330l-18 -126h-82l-61 -433h82l-18 -127h-330zM209 755l17 122h124l-17 -122h-124z" />
    <glyph glyph-name="uni1ECA" unicode="&#x1eca;" horiz-adv-x="428" 
d="M6 0l18 127h82l60 433h-81l18 126h330l-18 -126h-82l-61 -433h82l-18 -127h-330zM70 -206l18 128h128l-18 -128h-128z" />
    <glyph glyph-name="Igrave" unicode="&#xcc;" horiz-adv-x="428" 
d="M6 0l18 127h82l60 433h-81l18 126h330l-18 -126h-82l-61 -433h82l-18 -127h-330zM223 749l-103 137l1 3h136l76 -140h-110z" />
    <glyph glyph-name="uni1EC8" unicode="&#x1ec8;" horiz-adv-x="428" 
d="M6 0l18 127h82l60 433h-81l18 126h330l-18 -126h-82l-61 -433h82l-18 -127h-330zM241 729l10 70q31 3 49.5 17t19.5 38q1 17 -10.5 26.5t-34.5 9.5q-13 0 -31 -3t-39 -10l13 92q20 5 39 7.5t37 2.5q52 0 84.5 -24.5t32.5 -70.5q0 -44 -25 -78t-64 -54.5t-81 -22.5z" />
    <glyph glyph-name="uni020A" unicode="&#x20a;" horiz-adv-x="428" 
d="M6 0l18 127h82l60 433h-81l18 126h330l-18 -126h-82l-61 -433h82l-18 -127h-330zM83 756q6 39 31 70t67.5 48.5t101.5 17.5q63 0 103.5 -17.5t59 -48.5t12.5 -70h-87q-3 28 -24.5 42t-67.5 14q-45 0 -71.5 -14t-37.5 -42h-87z" />
    <glyph glyph-name="Imacron" unicode="&#x12a;" horiz-adv-x="428" 
d="M6 0l18 127h82l60 433h-81l18 126h330l-18 -126h-82l-61 -433h82l-18 -127h-330zM107 775l12 83h334l-12 -83h-334z" />
    <glyph glyph-name="Iogonek" unicode="&#x12e;" horiz-adv-x="428" 
d="M6 0l18 127h82l60 433h-81l18 126h330l-18 -126h-82l-61 -433h82l-18 -127h-330zM271 -146q-36 0 -64 14.5t-28 49.5q0 28 17 49t38 33h91q-23 -12 -37.5 -26.5t-14.5 -34.5q0 -15 10.5 -21t24.5 -6q15 0 31.5 4t31.5 9l7 -44q-24 -13 -52 -20t-55 -7z" />
    <glyph glyph-name="uni0197" unicode="&#x197;" horiz-adv-x="428" 
d="M70 402h313l-16 -117h-313zM6 0l18 127h82l60 433h-81l18 126h330l-18 -126h-82l-61 -433h82l-18 -127h-330z" />
    <glyph glyph-name="Itilde" unicode="&#x128;" horiz-adv-x="428" 
d="M6 0l18 127h82l60 433h-81l18 126h330l-18 -126h-82l-61 -433h82l-18 -127h-330zM75 750q8 44 25 74.5t44 47.5t63 17t62.5 -10.5t48.5 -21.5t43 -11t34 11.5t21 30.5h68q-7 -42 -24.5 -73t-44 -48t-62.5 -17t-63 10.5t-49 21.5t-44 11q-19 0 -31.5 -11t-21.5 -32h-69z
" />
    <glyph glyph-name="J" unicode="J" horiz-adv-x="535" 
d="M184 -10q-56 0 -98.5 18t-66.5 54.5t-24 90.5q0 9 1.5 26t8.5 54h155q-3 -19 -5.5 -35.5t-2.5 -22.5q0 -25 16.5 -41t41.5 -16q30 0 51 18t26 49l70 501h164l-71 -503q-9 -64 -42.5 -107t-85 -64.5t-116.5 -21.5h-22z" />
    <glyph glyph-name="Jcircumflex" unicode="&#x134;" horiz-adv-x="535" 
d="M184 -10q-56 0 -98.5 18t-66.5 54.5t-24 90.5q0 9 1.5 26t8.5 54h155q-3 -19 -5.5 -35.5t-2.5 -22.5q0 -25 16.5 -41t41.5 -16q30 0 51 18t26 49l70 501h164l-71 -503q-9 -64 -42.5 -107t-85 -64.5t-116.5 -21.5h-22z" />
    <glyph glyph-name="K" unicode="K" horiz-adv-x="662" 
d="M27 0l97 686h164l-43 -304l278 304h186l-266 -286l176 -400h-189l-114 271l-101 -98l-24 -173h-164z" />
    <glyph glyph-name="uni0136" unicode="&#x136;" horiz-adv-x="662" 
d="M27 0l97 686h164l-43 -304l278 304h186l-266 -286l176 -400h-189l-114 271l-101 -98l-24 -173h-164zM190 -375l3 16q35 32 55 67.5t25 72.5h-61l21 146h134l-18 -124q-6 -50 -29 -96.5t-60 -81.5h-70z" />
    <glyph glyph-name="L" unicode="L" horiz-adv-x="536" 
d="M27 0l97 686h168l-77 -548h272v-138h-460z" />
    <glyph glyph-name="uni01C7" unicode="&#x1c7;" horiz-adv-x="1071" 
d="M27 0l97 686h168l-77 -548h272v-138h-460zM720 -10q-56 0 -98.5 18t-66.5 54.5t-24 90.5q0 9 1.5 26t8.5 54h155q-3 -19 -5.5 -35.5t-2.5 -22.5q0 -25 16.5 -41t41.5 -16q30 0 51 18t26 49l70 501h164l-71 -503q-9 -64 -42.5 -107t-85 -64.5t-116.5 -21.5h-22z" />
    <glyph glyph-name="Lacute" unicode="&#x139;" horiz-adv-x="536" 
d="M27 0l97 686h168l-77 -548h272v-138h-460zM158 749l111 140h143l1 -3l-137 -137h-118z" />
    <glyph glyph-name="Lcaron" unicode="&#x13d;" horiz-adv-x="536" 
d="M27 0l97 686h168l-77 -548h272v-138h-460zM406 386l2 16q31 30 50.5 61.5t24.5 65.5h-58l19 135h127l-15 -114q-7 -47 -29 -88.5t-56 -75.5h-65z" />
    <glyph glyph-name="uni013B" unicode="&#x13b;" horiz-adv-x="536" 
d="M27 0l97 686h168l-77 -548h272v-138h-460zM147 -375l3 16q35 32 55 67.5t25 72.5h-61l21 146h134l-18 -124q-6 -50 -29 -96.5t-60 -81.5h-70z" />
    <glyph glyph-name="Ldot" unicode="&#x13f;" horiz-adv-x="536" 
d="M27 0l97 686h168l-77 -548h272v-138h-460zM339 326l22 155h156l-22 -155h-156z" />
    <glyph glyph-name="uni01C8" unicode="&#x1c8;" horiz-adv-x="820" 
d="M27 0l97 686h168l-77 -548h272v-138h-460zM531 -186q-16 0 -37 2.5t-41 7t-34 10.5l13 97q11 -5 30 -9t30 -4q20 0 39 12t25 56l74 525h159l-75 -532q-12 -85 -59.5 -125t-123.5 -40zM642 599l16 121h161l-17 -121h-160z" />
    <glyph glyph-name="Lslash" unicode="&#x141;" horiz-adv-x="536" 
d="M27 0l97 686h168l-77 -548h272v-138h-460zM0 264l12 92l367 172l-13 -92z" />
    <glyph glyph-name="M" unicode="M" horiz-adv-x="978" 
d="M27 0l97 686h271l85 -433h4l206 433h272l-97 -686h-167l69 491h-5l-234 -491h-180l-95 491h-5l-69 -491h-152z" />
    <glyph glyph-name="N" unicode="N" horiz-adv-x="695" 
d="M27 0l97 686h142l173 -322l30 -61l3 1l53 382h154l-97 -686h-143l-171 318l-31 64l-3 -1l-54 -381h-153z" />
    <glyph glyph-name="uni01CA" unicode="&#x1ca;" horiz-adv-x="1229" 
d="M27 0l97 686h142l173 -322l30 -61l3 1l53 382h154l-97 -686h-143l-171 318l-31 64l-3 -1l-54 -381h-153zM879 -10q-56 0 -98.5 18t-66.5 54.5t-24 90.5q0 9 1.5 26t8.5 54h155q-3 -19 -5.5 -35.5t-2.5 -22.5q0 -25 16.5 -41t41.5 -16q30 0 51 18t26 49l70 501h164
l-71 -503q-9 -64 -42.5 -107t-85 -64.5t-116.5 -21.5h-22z" />
    <glyph glyph-name="Nacute" unicode="&#x143;" horiz-adv-x="695" 
d="M27 0l97 686h142l173 -322l30 -61l3 1l53 382h154l-97 -686h-143l-171 318l-31 64l-3 -1l-54 -381h-153zM344 749l111 140h143l1 -3l-137 -137h-118z" />
    <glyph glyph-name="Ncaron" unicode="&#x147;" horiz-adv-x="695" 
d="M27 0l97 686h142l173 -322l30 -61l3 1l53 382h154l-97 -686h-143l-171 318l-31 64l-3 -1l-54 -381h-153zM326 753l-95 132h114l74 -102h-33l104 102h113l-129 -132h-148z" />
    <glyph glyph-name="uni0145" unicode="&#x145;" horiz-adv-x="695" 
d="M27 0l97 686h142l173 -322l30 -61l3 1l53 382h154l-97 -686h-143l-171 318l-31 64l-3 -1l-54 -381h-153zM185 -375l3 16q35 32 55 67.5t25 72.5h-61l21 146h134l-18 -124q-6 -50 -29 -96.5t-60 -81.5h-70z" />
    <glyph glyph-name="uni019D" unicode="&#x19d;" horiz-adv-x="695" 
d="M0 -186q-16 0 -37 2.5t-41 7t-34 10.5l13 97q11 -5 30 -9t30 -4q20 0 39 12t25 54l99 702h142l173 -322l30 -61l3 1l53 382h154l-97 -686h-143l-171 318l-31 64l-3 -1l-57 -402q-12 -85 -56.5 -125t-120.5 -40z" />
    <glyph glyph-name="uni01CB" unicode="&#x1cb;" horiz-adv-x="978" 
d="M27 0l97 686h142l173 -322l30 -61l3 1l53 382h154l-97 -686h-143l-171 318l-31 64l-3 -1l-54 -381h-153zM690 -186q-16 0 -37 2.5t-41 7t-34 10.5l13 97q11 -5 30 -9t30 -4q20 0 39 12t25 56l74 525h159l-75 -532q-12 -85 -59.5 -125t-123.5 -40zM801 599l16 121h161
l-17 -121h-160z" />
    <glyph glyph-name="Ntilde" unicode="&#xd1;" horiz-adv-x="695" 
d="M27 0l97 686h142l173 -322l30 -61l3 1l53 382h154l-97 -686h-143l-171 318l-31 64l-3 -1l-54 -381h-153zM203 750q8 44 25 74.5t44 47.5t63 17t62.5 -10.5t48.5 -21.5t43 -11t34 11.5t21 30.5h68q-7 -42 -24.5 -73t-44 -48t-62.5 -17t-63 10.5t-49 21.5t-44 11
q-19 0 -31.5 -11t-21.5 -32h-69z" />
    <glyph glyph-name="Eng" unicode="&#x14a;" horiz-adv-x="695" 
d="M395 -186q-15 0 -36 2.5t-41.5 7t-33.5 10.5l13 97q11 -5 30 -9t30 -4q20 0 39 12t25 56l5 37l-158 295l-31 64l-3 -1l-54 -381h-153l97 686h142l173 -322l30 -61l3 1l53 382h154l-101 -707q-11 -85 -58.5 -125t-124.5 -40z" />
    <glyph glyph-name="O" unicode="O" horiz-adv-x="709" 
d="M294 -10q-73 0 -131 31.5t-91.5 88t-33.5 132.5q0 20 5.5 62t12.5 88q10 69 38.5 125t72.5 95.5t101.5 61t125.5 21.5h31q73 0 131 -31t91.5 -88t33.5 -133q0 -20 -5.5 -61.5t-12.5 -87.5q-9 -69 -38 -125t-73 -96t-101.5 -61.5t-125.5 -21.5h-31zM330 121q31 0 57.5 9.5
t46.5 28.5t33 47t18 66q7 49 11 80t6.5 49.5t3.5 29.5t1 19q0 37 -15 62.5t-41.5 39t-61.5 13.5q-31 0 -57.5 -9.5t-46.5 -28.5t-33 -47.5t-18 -65.5q-7 -49 -11 -80.5t-6.5 -50t-3.5 -29t-1 -18.5q0 -37 15 -63t41.5 -39t61.5 -13z" />
    <glyph glyph-name="Oacute" unicode="&#xd3;" horiz-adv-x="709" 
d="M294 -10q-73 0 -131 31.5t-91.5 88t-33.5 132.5q0 20 5.5 62t12.5 88q10 69 38.5 125t72.5 95.5t101.5 61t125.5 21.5h31q73 0 131 -31t91.5 -88t33.5 -133q0 -20 -5.5 -61.5t-12.5 -87.5q-9 -69 -38 -125t-73 -96t-101.5 -61.5t-125.5 -21.5h-31zM330 121q31 0 57.5 9.5
t46.5 28.5t33 47t18 66q7 49 11 80t6.5 49.5t3.5 29.5t1 19q0 37 -15 62.5t-41.5 39t-61.5 13.5q-31 0 -57.5 -9.5t-46.5 -28.5t-33 -47.5t-18 -65.5q-7 -49 -11 -80.5t-6.5 -50t-3.5 -29t-1 -18.5q0 -37 15 -63t41.5 -39t61.5 -13zM356 749l111 140h143l1 -3l-137 -137
h-118z" />
    <glyph glyph-name="Obreve" unicode="&#x14e;" horiz-adv-x="709" 
d="M294 -10q-73 0 -131 31.5t-91.5 88t-33.5 132.5q0 20 5.5 62t12.5 88q10 69 38.5 125t72.5 95.5t101.5 61t125.5 21.5h31q73 0 131 -31t91.5 -88t33.5 -133q0 -20 -5.5 -61.5t-12.5 -87.5q-9 -69 -38 -125t-73 -96t-101.5 -61.5t-125.5 -21.5h-31zM330 121q31 0 57.5 9.5
t46.5 28.5t33 47t18 66q7 49 11 80t6.5 49.5t3.5 29.5t1 19q0 37 -15 62.5t-41.5 39t-61.5 13.5q-31 0 -57.5 -9.5t-46.5 -28.5t-33 -47.5t-18 -65.5q-7 -49 -11 -80.5t-6.5 -50t-3.5 -29t-1 -18.5q0 -37 15 -63t41.5 -39t61.5 -13zM412 748q-85 0 -123.5 38.5t-32.5 98.5
h88q1 -28 19.5 -42t56.5 -14q39 0 62 14t33 42h87q-10 -60 -58.5 -98.5t-131.5 -38.5z" />
    <glyph glyph-name="uni01D1" unicode="&#x1d1;" horiz-adv-x="709" 
d="M294 -10q-73 0 -131 31.5t-91.5 88t-33.5 132.5q0 20 5.5 62t12.5 88q10 69 38.5 125t72.5 95.5t101.5 61t125.5 21.5h31q73 0 131 -31t91.5 -88t33.5 -133q0 -20 -5.5 -61.5t-12.5 -87.5q-9 -69 -38 -125t-73 -96t-101.5 -61.5t-125.5 -21.5h-31zM330 121q31 0 57.5 9.5
t46.5 28.5t33 47t18 66q7 49 11 80t6.5 49.5t3.5 29.5t1 19q0 37 -15 62.5t-41.5 39t-61.5 13.5q-31 0 -57.5 -9.5t-46.5 -28.5t-33 -47.5t-18 -65.5q-7 -49 -11 -80.5t-6.5 -50t-3.5 -29t-1 -18.5q0 -37 15 -63t41.5 -39t61.5 -13zM338 753l-95 132h114l74 -102h-33
l104 102h113l-129 -132h-148z" />
    <glyph glyph-name="Ocircumflex" unicode="&#xd4;" horiz-adv-x="709" 
d="M294 -10q-73 0 -131 31.5t-91.5 88t-33.5 132.5q0 20 5.5 62t12.5 88q10 69 38.5 125t72.5 95.5t101.5 61t125.5 21.5h31q73 0 131 -31t91.5 -88t33.5 -133q0 -20 -5.5 -61.5t-12.5 -87.5q-9 -69 -38 -125t-73 -96t-101.5 -61.5t-125.5 -21.5h-31zM330 121q31 0 57.5 9.5
t46.5 28.5t33 47t18 66q7 49 11 80t6.5 49.5t3.5 29.5t1 19q0 37 -15 62.5t-41.5 39t-61.5 13.5q-31 0 -57.5 -9.5t-46.5 -28.5t-33 -47.5t-18 -65.5q-7 -49 -11 -80.5t-6.5 -50t-3.5 -29t-1 -18.5q0 -37 15 -63t41.5 -39t61.5 -13zM223 753l128 132h149l97 -132h-114
l-75 102h34l-105 -102h-114z" />
    <glyph glyph-name="uni1ED0" unicode="&#x1ed0;" horiz-adv-x="709" 
d="M294 -10q-73 0 -131 31.5t-91.5 88t-33.5 132.5q0 20 5.5 62t12.5 88q10 69 38.5 125t72.5 95.5t101.5 61t125.5 21.5h31q73 0 131 -31t91.5 -88t33.5 -133q0 -20 -5.5 -61.5t-12.5 -87.5q-9 -69 -38 -125t-73 -96t-101.5 -61.5t-125.5 -21.5h-31zM330 121q31 0 57.5 9.5
t46.5 28.5t33 47t18 66q7 49 11 80t6.5 49.5t3.5 29.5t1 19q0 37 -15 62.5t-41.5 39t-61.5 13.5q-31 0 -57.5 -9.5t-46.5 -28.5t-33 -47.5t-18 -65.5q-7 -49 -11 -80.5t-6.5 -50t-3.5 -29t-1 -18.5q0 -37 15 -63t41.5 -39t61.5 -13zM385 933l101 131h127l1 -3l-130 -128h-99
zM217 758l156 132h114l119 -132h-105l-78 63l-97 -63h-109z" />
    <glyph glyph-name="uni1ED8" unicode="&#x1ed8;" horiz-adv-x="709" 
d="M294 -10q-73 0 -131 31.5t-91.5 88t-33.5 132.5q0 20 5.5 62t12.5 88q10 69 38.5 125t72.5 95.5t101.5 61t125.5 21.5h31q73 0 131 -31t91.5 -88t33.5 -133q0 -20 -5.5 -61.5t-12.5 -87.5q-9 -69 -38 -125t-73 -96t-101.5 -61.5t-125.5 -21.5h-31zM330 121q31 0 57.5 9.5
t46.5 28.5t33 47t18 66q7 49 11 80t6.5 49.5t3.5 29.5t1 19q0 37 -15 62.5t-41.5 39t-61.5 13.5q-31 0 -57.5 -9.5t-46.5 -28.5t-33 -47.5t-18 -65.5q-7 -49 -11 -80.5t-6.5 -50t-3.5 -29t-1 -18.5q0 -37 15 -63t41.5 -39t61.5 -13zM218 -206l18 128h128l-18 -128h-128z" />
    <glyph glyph-name="uni1ED2" unicode="&#x1ed2;" horiz-adv-x="709" 
d="M294 -10q-73 0 -131 31.5t-91.5 88t-33.5 132.5q0 20 5.5 62t12.5 88q10 69 38.5 125t72.5 95.5t101.5 61t125.5 21.5h31q73 0 131 -31t91.5 -88t33.5 -133q0 -20 -5.5 -61.5t-12.5 -87.5q-9 -69 -38 -125t-73 -96t-101.5 -61.5t-125.5 -21.5h-31zM330 121q31 0 57.5 9.5
t46.5 28.5t33 47t18 66q7 49 11 80t6.5 49.5t3.5 29.5t1 19q0 37 -15 62.5t-41.5 39t-61.5 13.5q-31 0 -57.5 -9.5t-46.5 -28.5t-33 -47.5t-18 -65.5q-7 -49 -11 -80.5t-6.5 -50t-3.5 -29t-1 -18.5q0 -37 15 -63t41.5 -39t61.5 -13zM387 933l-94 128l2 3h127l65 -131h-100z
M217 758l156 132h114l119 -132h-105l-78 63l-97 -63h-109z" />
    <glyph glyph-name="uni1ED4" unicode="&#x1ed4;" horiz-adv-x="709" 
d="M294 -10q-73 0 -131 31.5t-91.5 88t-33.5 132.5q0 20 5.5 62t12.5 88q10 69 38.5 125t72.5 95.5t101.5 61t125.5 21.5h31q73 0 131 -31t91.5 -88t33.5 -133q0 -20 -5.5 -61.5t-12.5 -87.5q-9 -69 -38 -125t-73 -96t-101.5 -61.5t-125.5 -21.5h-31zM330 121q31 0 57.5 9.5
t46.5 28.5t33 47t18 66q7 49 11 80t6.5 49.5t3.5 29.5t1 19q0 37 -15 62.5t-41.5 39t-61.5 13.5q-31 0 -57.5 -9.5t-46.5 -28.5t-33 -47.5t-18 -65.5q-7 -49 -11 -80.5t-6.5 -50t-3.5 -29t-1 -18.5q0 -37 15 -63t41.5 -39t61.5 -13zM417 928l8 57q26 2 41.5 14t15.5 33
q0 13 -10 20.5t-27 7.5q-11 0 -25.5 -2.5t-31.5 -8.5l10 74q17 5 32.5 6.5t29.5 1.5q42 0 68.5 -20t26.5 -58q0 -35 -20.5 -62.5t-52 -44t-65.5 -18.5zM216 758l157 132h114l118 -132h-105l-78 63l-96 -63h-110z" />
    <glyph glyph-name="uni1ED6" unicode="&#x1ed6;" horiz-adv-x="709" 
d="M294 -10q-73 0 -131 31.5t-91.5 88t-33.5 132.5q0 20 5.5 62t12.5 88q10 69 38.5 125t72.5 95.5t101.5 61t125.5 21.5h31q73 0 131 -31t91.5 -88t33.5 -133q0 -20 -5.5 -61.5t-12.5 -87.5q-9 -69 -38 -125t-73 -96t-101.5 -61.5t-125.5 -21.5h-31zM330 121q31 0 57.5 9.5
t46.5 28.5t33 47t18 66q7 49 11 80t6.5 49.5t3.5 29.5t1 19q0 37 -15 62.5t-41.5 39t-61.5 13.5q-31 0 -57.5 -9.5t-46.5 -28.5t-33 -47.5t-18 -65.5q-7 -49 -11 -80.5t-6.5 -50t-3.5 -29t-1 -18.5q0 -37 15 -63t41.5 -39t61.5 -13zM246 929q5 35 23.5 64t47.5 46.5t66 17.5
q33 0 54.5 -9t41 -18t44.5 -9q20 0 34 9.5t22 26.5h65q-5 -35 -23 -64t-47.5 -46.5t-66.5 -17.5q-32 0 -53.5 8.5t-40.5 17.5t-46 10q-20 0 -34 -10t-21 -26h-66zM217 758l157 132h114l118 -132h-105l-78 63l-96 -63h-110z" />
    <glyph glyph-name="uni020C" unicode="&#x20c;" horiz-adv-x="709" 
d="M294 -10q-73 0 -131 31.5t-91.5 88t-33.5 132.5q0 20 5.5 62t12.5 88q10 69 38.5 125t72.5 95.5t101.5 61t125.5 21.5h31q73 0 131 -31t91.5 -88t33.5 -133q0 -20 -5.5 -61.5t-12.5 -87.5q-9 -69 -38 -125t-73 -96t-101.5 -61.5t-125.5 -21.5h-31zM330 121q31 0 57.5 9.5
t46.5 28.5t33 47t18 66q7 49 11 80t6.5 49.5t3.5 29.5t1 19q0 37 -15 62.5t-41.5 39t-61.5 13.5q-31 0 -57.5 -9.5t-46.5 -28.5t-33 -47.5t-18 -65.5q-7 -49 -11 -80.5t-6.5 -50t-3.5 -29t-1 -18.5q0 -37 15 -63t41.5 -39t61.5 -13zM467 752l-102 142l5 3h122l73 -145h-98z
M271 752l-102 142l2 3h125l73 -145h-98z" />
    <glyph glyph-name="Odieresis" unicode="&#xd6;" horiz-adv-x="709" 
d="M294 -10q-73 0 -131 31.5t-91.5 88t-33.5 132.5q0 20 5.5 62t12.5 88q10 69 38.5 125t72.5 95.5t101.5 61t125.5 21.5h31q73 0 131 -31t91.5 -88t33.5 -133q0 -20 -5.5 -61.5t-12.5 -87.5q-9 -69 -38 -125t-73 -96t-101.5 -61.5t-125.5 -21.5h-31zM330 121q31 0 57.5 9.5
t46.5 28.5t33 47t18 66q7 49 11 80t6.5 49.5t3.5 29.5t1 19q0 37 -15 62.5t-41.5 39t-61.5 13.5q-31 0 -57.5 -9.5t-46.5 -28.5t-33 -47.5t-18 -65.5q-7 -49 -11 -80.5t-6.5 -50t-3.5 -29t-1 -18.5q0 -37 15 -63t41.5 -39t61.5 -13zM229 757l17 122h124l-17 -122h-124z
M469 757l17 122h124l-17 -122h-124z" />
    <glyph glyph-name="uni022A" unicode="&#x22a;" horiz-adv-x="709" 
d="M294 -10q-73 0 -131 31.5t-91.5 88t-33.5 132.5q0 20 5.5 62t12.5 88q10 69 38.5 125t72.5 95.5t101.5 61t125.5 21.5h31q73 0 131 -31t91.5 -88t33.5 -133q0 -20 -5.5 -61.5t-12.5 -87.5q-9 -69 -38 -125t-73 -96t-101.5 -61.5t-125.5 -21.5h-31zM330 121q31 0 57.5 9.5
t46.5 28.5t33 47t18 66q7 49 11 80t6.5 49.5t3.5 29.5t1 19q0 37 -15 62.5t-41.5 39t-61.5 13.5q-31 0 -57.5 -9.5t-46.5 -28.5t-33 -47.5t-18 -65.5q-7 -49 -11 -80.5t-6.5 -50t-3.5 -29t-1 -18.5q0 -37 15 -63t41.5 -39t61.5 -13zM268 933l13 87h335l-12 -87h-336z
M247 765l17 122h124l-17 -122h-124zM455 765l17 122h123l-17 -122h-123z" />
    <glyph glyph-name="uni0230" unicode="&#x230;" horiz-adv-x="709" 
d="M294 -10q-73 0 -131 31.5t-91.5 88t-33.5 132.5q0 20 5.5 62t12.5 88q10 69 38.5 125t72.5 95.5t101.5 61t125.5 21.5h31q73 0 131 -31t91.5 -88t33.5 -133q0 -20 -5.5 -61.5t-12.5 -87.5q-9 -69 -38 -125t-73 -96t-101.5 -61.5t-125.5 -21.5h-31zM330 121q31 0 57.5 9.5
t46.5 28.5t33 47t18 66q7 49 11 80t6.5 49.5t3.5 29.5t1 19q0 37 -15 62.5t-41.5 39t-61.5 13.5q-31 0 -57.5 -9.5t-46.5 -28.5t-33 -47.5t-18 -65.5q-7 -49 -11 -80.5t-6.5 -50t-3.5 -29t-1 -18.5q0 -37 15 -63t41.5 -39t61.5 -13zM271 933l12 87h330l-13 -87h-329z
M350 765l17 122h124l-17 -122h-124z" />
    <glyph glyph-name="uni1ECC" unicode="&#x1ecc;" horiz-adv-x="709" 
d="M294 -10q-73 0 -131 31.5t-91.5 88t-33.5 132.5q0 20 5.5 62t12.5 88q10 69 38.5 125t72.5 95.5t101.5 61t125.5 21.5h31q73 0 131 -31t91.5 -88t33.5 -133q0 -20 -5.5 -61.5t-12.5 -87.5q-9 -69 -38 -125t-73 -96t-101.5 -61.5t-125.5 -21.5h-31zM330 121q31 0 57.5 9.5
t46.5 28.5t33 47t18 66q7 49 11 80t6.5 49.5t3.5 29.5t1 19q0 37 -15 62.5t-41.5 39t-61.5 13.5q-31 0 -57.5 -9.5t-46.5 -28.5t-33 -47.5t-18 -65.5q-7 -49 -11 -80.5t-6.5 -50t-3.5 -29t-1 -18.5q0 -37 15 -63t41.5 -39t61.5 -13zM218 -206l18 128h128l-18 -128h-128z" />
    <glyph glyph-name="Ograve" unicode="&#xd2;" horiz-adv-x="709" 
d="M294 -10q-73 0 -131 31.5t-91.5 88t-33.5 132.5q0 20 5.5 62t12.5 88q10 69 38.5 125t72.5 95.5t101.5 61t125.5 21.5h31q73 0 131 -31t91.5 -88t33.5 -133q0 -20 -5.5 -61.5t-12.5 -87.5q-9 -69 -38 -125t-73 -96t-101.5 -61.5t-125.5 -21.5h-31zM330 121q31 0 57.5 9.5
t46.5 28.5t33 47t18 66q7 49 11 80t6.5 49.5t3.5 29.5t1 19q0 37 -15 62.5t-41.5 39t-61.5 13.5q-31 0 -57.5 -9.5t-46.5 -28.5t-33 -47.5t-18 -65.5q-7 -49 -11 -80.5t-6.5 -50t-3.5 -29t-1 -18.5q0 -37 15 -63t41.5 -39t61.5 -13zM363 749l-103 137l1 3h136l76 -140h-110z
" />
    <glyph glyph-name="uni1ECE" unicode="&#x1ece;" horiz-adv-x="709" 
d="M294 -10q-73 0 -131 31.5t-91.5 88t-33.5 132.5q0 20 5.5 62t12.5 88q10 69 38.5 125t72.5 95.5t101.5 61t125.5 21.5h31q73 0 131 -31t91.5 -88t33.5 -133q0 -20 -5.5 -61.5t-12.5 -87.5q-9 -69 -38 -125t-73 -96t-101.5 -61.5t-125.5 -21.5h-31zM330 121q31 0 57.5 9.5
t46.5 28.5t33 47t18 66q7 49 11 80t6.5 49.5t3.5 29.5t1 19q0 37 -15 62.5t-41.5 39t-61.5 13.5q-31 0 -57.5 -9.5t-46.5 -28.5t-33 -47.5t-18 -65.5q-7 -49 -11 -80.5t-6.5 -50t-3.5 -29t-1 -18.5q0 -37 15 -63t41.5 -39t61.5 -13zM381 729l10 70q31 3 49.5 17t19.5 38
q1 17 -10.5 26.5t-34.5 9.5q-13 0 -31 -3t-39 -10l13 92q20 5 39 7.5t37 2.5q52 0 84.5 -24.5t32.5 -70.5q0 -44 -25 -78t-64 -54.5t-81 -22.5z" />
    <glyph glyph-name="Ohorn" unicode="&#x1a0;" horiz-adv-x="709" 
d="M294 -10q-73 0 -131 31.5t-91.5 88t-33.5 132.5q0 20 5.5 62t12.5 88q10 69 38.5 125t72.5 95.5t101.5 61t125.5 21.5h31q73 0 131 -31t91.5 -88t33.5 -133q0 -20 -5.5 -61.5t-12.5 -87.5q-9 -69 -38 -125t-73 -96t-101.5 -61.5t-125.5 -21.5h-31zM330 121q31 0 57.5 9.5
t46.5 28.5t33 47t18 66q7 49 11 80t6.5 49.5t3.5 29.5t1 19q0 37 -15 62.5t-41.5 39t-61.5 13.5q-31 0 -57.5 -9.5t-46.5 -28.5t-33 -47.5t-18 -65.5q-7 -49 -11 -80.5t-6.5 -50t-3.5 -29t-1 -18.5q0 -37 15 -63t41.5 -39t61.5 -13zM536 572l12 84q50 8 72 41.5t31 97.5h135
q-7 -55 -42 -104t-89 -81.5t-119 -37.5z" />
    <glyph glyph-name="uni1EDA" unicode="&#x1eda;" horiz-adv-x="709" 
d="M294 -10q-73 0 -131 31.5t-91.5 88t-33.5 132.5q0 20 5.5 62t12.5 88q10 69 38.5 125t72.5 95.5t101.5 61t125.5 21.5h31q73 0 131 -31t91.5 -88t33.5 -133q0 -20 -5.5 -61.5t-12.5 -87.5q-9 -69 -38 -125t-73 -96t-101.5 -61.5t-125.5 -21.5h-31zM330 121q31 0 57.5 9.5
t46.5 28.5t33 47t18 66q7 49 11 80t6.5 49.5t3.5 29.5t1 19q0 37 -15 62.5t-41.5 39t-61.5 13.5q-31 0 -57.5 -9.5t-46.5 -28.5t-33 -47.5t-18 -65.5q-7 -49 -11 -80.5t-6.5 -50t-3.5 -29t-1 -18.5q0 -37 15 -63t41.5 -39t61.5 -13zM536 572l12 84q50 8 72 41.5t31 97.5h135
q-7 -55 -42 -104t-89 -81.5t-119 -37.5zM356 749l111 140h143l1 -3l-137 -137h-118z" />
    <glyph glyph-name="uni1EE2" unicode="&#x1ee2;" horiz-adv-x="709" 
d="M294 -10q-73 0 -131 31.5t-91.5 88t-33.5 132.5q0 20 5.5 62t12.5 88q10 69 38.5 125t72.5 95.5t101.5 61t125.5 21.5h31q73 0 131 -31t91.5 -88t33.5 -133q0 -20 -5.5 -61.5t-12.5 -87.5q-9 -69 -38 -125t-73 -96t-101.5 -61.5t-125.5 -21.5h-31zM330 121q31 0 57.5 9.5
t46.5 28.5t33 47t18 66q7 49 11 80t6.5 49.5t3.5 29.5t1 19q0 37 -15 62.5t-41.5 39t-61.5 13.5q-31 0 -57.5 -9.5t-46.5 -28.5t-33 -47.5t-18 -65.5q-7 -49 -11 -80.5t-6.5 -50t-3.5 -29t-1 -18.5q0 -37 15 -63t41.5 -39t61.5 -13zM536 572l12 84q50 8 72 41.5t31 97.5h135
q-7 -55 -42 -104t-89 -81.5t-119 -37.5zM218 -206l18 128h128l-18 -128h-128z" />
    <glyph glyph-name="uni1EDC" unicode="&#x1edc;" horiz-adv-x="709" 
d="M294 -10q-73 0 -131 31.5t-91.5 88t-33.5 132.5q0 20 5.5 62t12.5 88q10 69 38.5 125t72.5 95.5t101.5 61t125.5 21.5h31q73 0 131 -31t91.5 -88t33.5 -133q0 -20 -5.5 -61.5t-12.5 -87.5q-9 -69 -38 -125t-73 -96t-101.5 -61.5t-125.5 -21.5h-31zM330 121q31 0 57.5 9.5
t46.5 28.5t33 47t18 66q7 49 11 80t6.5 49.5t3.5 29.5t1 19q0 37 -15 62.5t-41.5 39t-61.5 13.5q-31 0 -57.5 -9.5t-46.5 -28.5t-33 -47.5t-18 -65.5q-7 -49 -11 -80.5t-6.5 -50t-3.5 -29t-1 -18.5q0 -37 15 -63t41.5 -39t61.5 -13zM536 572l12 84q50 8 72 41.5t31 97.5h135
q-7 -55 -42 -104t-89 -81.5t-119 -37.5zM363 749l-103 137l1 3h136l76 -140h-110z" />
    <glyph glyph-name="uni1EDE" unicode="&#x1ede;" horiz-adv-x="709" 
d="M294 -10q-73 0 -131 31.5t-91.5 88t-33.5 132.5q0 20 5.5 62t12.5 88q10 69 38.5 125t72.5 95.5t101.5 61t125.5 21.5h31q73 0 131 -31t91.5 -88t33.5 -133q0 -20 -5.5 -61.5t-12.5 -87.5q-9 -69 -38 -125t-73 -96t-101.5 -61.5t-125.5 -21.5h-31zM330 121q31 0 57.5 9.5
t46.5 28.5t33 47t18 66q7 49 11 80t6.5 49.5t3.5 29.5t1 19q0 37 -15 62.5t-41.5 39t-61.5 13.5q-31 0 -57.5 -9.5t-46.5 -28.5t-33 -47.5t-18 -65.5q-7 -49 -11 -80.5t-6.5 -50t-3.5 -29t-1 -18.5q0 -37 15 -63t41.5 -39t61.5 -13zM536 572l12 84q50 8 72 41.5t31 97.5h135
q-7 -55 -42 -104t-89 -81.5t-119 -37.5zM381 729l10 70q31 3 49.5 17t19.5 38q1 17 -10.5 26.5t-34.5 9.5q-13 0 -31 -3t-39 -10l13 92q20 5 39 7.5t37 2.5q52 0 84.5 -24.5t32.5 -70.5q0 -44 -25 -78t-64 -54.5t-81 -22.5z" />
    <glyph glyph-name="uni1EE0" unicode="&#x1ee0;" horiz-adv-x="709" 
d="M294 -10q-73 0 -131 31.5t-91.5 88t-33.5 132.5q0 20 5.5 62t12.5 88q10 69 38.5 125t72.5 95.5t101.5 61t125.5 21.5h31q73 0 131 -31t91.5 -88t33.5 -133q0 -20 -5.5 -61.5t-12.5 -87.5q-9 -69 -38 -125t-73 -96t-101.5 -61.5t-125.5 -21.5h-31zM330 121q31 0 57.5 9.5
t46.5 28.5t33 47t18 66q7 49 11 80t6.5 49.5t3.5 29.5t1 19q0 37 -15 62.5t-41.5 39t-61.5 13.5q-31 0 -57.5 -9.5t-46.5 -28.5t-33 -47.5t-18 -65.5q-7 -49 -11 -80.5t-6.5 -50t-3.5 -29t-1 -18.5q0 -37 15 -63t41.5 -39t61.5 -13zM536 572l12 84q50 8 72 41.5t31 97.5h135
q-7 -55 -42 -104t-89 -81.5t-119 -37.5zM215 750q8 44 25 74.5t44 47.5t63 17t62.5 -10.5t48.5 -21.5t43 -11t34 11.5t21 30.5h68q-7 -42 -24.5 -73t-44 -48t-62.5 -17t-63 10.5t-49 21.5t-44 11q-19 0 -31.5 -11t-21.5 -32h-69z" />
    <glyph glyph-name="Ohungarumlaut" unicode="&#x150;" horiz-adv-x="709" 
d="M294 -10q-73 0 -131 31.5t-91.5 88t-33.5 132.5q0 20 5.5 62t12.5 88q10 69 38.5 125t72.5 95.5t101.5 61t125.5 21.5h31q73 0 131 -31t91.5 -88t33.5 -133q0 -20 -5.5 -61.5t-12.5 -87.5q-9 -69 -38 -125t-73 -96t-101.5 -61.5t-125.5 -21.5h-31zM330 121q31 0 57.5 9.5
t46.5 28.5t33 47t18 66q7 49 11 80t6.5 49.5t3.5 29.5t1 19q0 37 -15 62.5t-41.5 39t-61.5 13.5q-31 0 -57.5 -9.5t-46.5 -28.5t-33 -47.5t-18 -65.5q-7 -49 -11 -80.5t-6.5 -50t-3.5 -29t-1 -18.5q0 -37 15 -63t41.5 -39t61.5 -13zM436 749l112 140h132l2 -3l-141 -137
h-105zM245 749l112 140h129l5 -3l-141 -137h-105z" />
    <glyph glyph-name="uni020E" unicode="&#x20e;" horiz-adv-x="709" 
d="M294 -10q-73 0 -131 31.5t-91.5 88t-33.5 132.5q0 20 5.5 62t12.5 88q10 69 38.5 125t72.5 95.5t101.5 61t125.5 21.5h31q73 0 131 -31t91.5 -88t33.5 -133q0 -20 -5.5 -61.5t-12.5 -87.5q-9 -69 -38 -125t-73 -96t-101.5 -61.5t-125.5 -21.5h-31zM330 121q31 0 57.5 9.5
t46.5 28.5t33 47t18 66q7 49 11 80t6.5 49.5t3.5 29.5t1 19q0 37 -15 62.5t-41.5 39t-61.5 13.5q-31 0 -57.5 -9.5t-46.5 -28.5t-33 -47.5t-18 -65.5q-7 -49 -11 -80.5t-6.5 -50t-3.5 -29t-1 -18.5q0 -37 15 -63t41.5 -39t61.5 -13zM223 756q6 39 31 70t67.5 48.5
t101.5 17.5q63 0 103.5 -17.5t59 -48.5t12.5 -70h-87q-3 28 -24.5 42t-67.5 14q-45 0 -71.5 -14t-37.5 -42h-87z" />
    <glyph glyph-name="Omacron" unicode="&#x14c;" horiz-adv-x="709" 
d="M294 -10q-73 0 -131 31.5t-91.5 88t-33.5 132.5q0 20 5.5 62t12.5 88q10 69 38.5 125t72.5 95.5t101.5 61t125.5 21.5h31q73 0 131 -31t91.5 -88t33.5 -133q0 -20 -5.5 -61.5t-12.5 -87.5q-9 -69 -38 -125t-73 -96t-101.5 -61.5t-125.5 -21.5h-31zM330 121q31 0 57.5 9.5
t46.5 28.5t33 47t18 66q7 49 11 80t6.5 49.5t3.5 29.5t1 19q0 37 -15 62.5t-41.5 39t-61.5 13.5q-31 0 -57.5 -9.5t-46.5 -28.5t-33 -47.5t-18 -65.5q-7 -49 -11 -80.5t-6.5 -50t-3.5 -29t-1 -18.5q0 -37 15 -63t41.5 -39t61.5 -13zM247 775l12 83h334l-12 -83h-334z" />
    <glyph glyph-name="uni01EA" unicode="&#x1ea;" horiz-adv-x="709" 
d="M294 -10q-73 0 -131 31.5t-91.5 88t-33.5 132.5q0 20 5.5 62t12.5 88q10 69 38.5 125t72.5 95.5t101.5 61t125.5 21.5h31q73 0 131 -31t91.5 -88t33.5 -133q0 -20 -5.5 -61.5t-12.5 -87.5q-9 -69 -38 -125t-73 -96t-101.5 -61.5t-125.5 -21.5h-31zM330 121q31 0 57.5 9.5
t46.5 28.5t33 47t18 66q7 49 11 80t6.5 49.5t3.5 29.5t1 19q0 37 -15 62.5t-41.5 39t-61.5 13.5q-31 0 -57.5 -9.5t-46.5 -28.5t-33 -47.5t-18 -65.5q-7 -49 -11 -80.5t-6.5 -50t-3.5 -29t-1 -18.5q0 -37 15 -63t41.5 -39t61.5 -13zM357 -146q-36 0 -64 14.5t-28 49.5
q0 28 17 49t38 33h91q-23 -12 -37.5 -26.5t-14.5 -34.5q0 -15 10.5 -21t24.5 -6q15 0 31.5 4t31.5 9l7 -44q-24 -13 -52 -20t-55 -7z" />
    <glyph glyph-name="Oslash" unicode="&#xd8;" horiz-adv-x="709" 
d="M294 -10q-73 0 -131 31.5t-91.5 88t-33.5 132.5q0 20 5.5 62t12.5 88q10 69 38.5 125t72.5 95.5t101.5 61t125.5 21.5h31q73 0 131 -31t91.5 -88t33.5 -133q0 -20 -5.5 -61.5t-12.5 -87.5q-9 -69 -38 -125t-73 -96t-101.5 -61.5t-125.5 -21.5h-31zM330 121q31 0 57.5 9.5
t46.5 28.5t33 47t18 66q7 49 11 80t6.5 49.5t3.5 29.5t1 19q0 37 -15 62.5t-41.5 39t-61.5 13.5q-31 0 -57.5 -9.5t-46.5 -28.5t-33 -47.5t-18 -65.5q-7 -49 -11 -80.5t-6.5 -50t-3.5 -29t-1 -18.5q0 -37 15 -63t41.5 -39t61.5 -13zM3 -78l612 819h91l-612 -819h-91z" />
    <glyph glyph-name="Oslashacute" unicode="&#x1fe;" horiz-adv-x="709" 
d="M294 -10q-73 0 -131 31.5t-91.5 88t-33.5 132.5q0 20 5.5 62t12.5 88q10 69 38.5 125t72.5 95.5t101.5 61t125.5 21.5h31q73 0 131 -31t91.5 -88t33.5 -133q0 -20 -5.5 -61.5t-12.5 -87.5q-9 -69 -38 -125t-73 -96t-101.5 -61.5t-125.5 -21.5h-31zM330 121q31 0 57.5 9.5
t46.5 28.5t33 47t18 66q7 49 11 80t6.5 49.5t3.5 29.5t1 19q0 37 -15 62.5t-41.5 39t-61.5 13.5q-31 0 -57.5 -9.5t-46.5 -28.5t-33 -47.5t-18 -65.5q-7 -49 -11 -80.5t-6.5 -50t-3.5 -29t-1 -18.5q0 -37 15 -63t41.5 -39t61.5 -13zM3 -78l612 819h91l-612 -819h-91z
M363 751l112 145h137l1 -3l-141 -142h-109z" />
    <glyph glyph-name="Otilde" unicode="&#xd5;" horiz-adv-x="709" 
d="M294 -10q-73 0 -131 31.5t-91.5 88t-33.5 132.5q0 20 5.5 62t12.5 88q10 69 38.5 125t72.5 95.5t101.5 61t125.5 21.5h31q73 0 131 -31t91.5 -88t33.5 -133q0 -20 -5.5 -61.5t-12.5 -87.5q-9 -69 -38 -125t-73 -96t-101.5 -61.5t-125.5 -21.5h-31zM330 121q31 0 57.5 9.5
t46.5 28.5t33 47t18 66q7 49 11 80t6.5 49.5t3.5 29.5t1 19q0 37 -15 62.5t-41.5 39t-61.5 13.5q-31 0 -57.5 -9.5t-46.5 -28.5t-33 -47.5t-18 -65.5q-7 -49 -11 -80.5t-6.5 -50t-3.5 -29t-1 -18.5q0 -37 15 -63t41.5 -39t61.5 -13zM215 750q8 44 25 74.5t44 47.5t63 17
t62.5 -10.5t48.5 -21.5t43 -11t34 11.5t21 30.5h68q-7 -42 -24.5 -73t-44 -48t-62.5 -17t-63 10.5t-49 21.5t-44 11q-19 0 -31.5 -11t-21.5 -32h-69z" />
    <glyph glyph-name="uni022C" unicode="&#x22c;" horiz-adv-x="709" 
d="M294 -10q-73 0 -131 31.5t-91.5 88t-33.5 132.5q0 20 5.5 62t12.5 88q10 69 38.5 125t72.5 95.5t101.5 61t125.5 21.5h31q73 0 131 -31t91.5 -88t33.5 -133q0 -20 -5.5 -61.5t-12.5 -87.5q-9 -69 -38 -125t-73 -96t-101.5 -61.5t-125.5 -21.5h-31zM330 121q31 0 57.5 9.5
t46.5 28.5t33 47t18 66q7 49 11 80t6.5 49.5t3.5 29.5t1 19q0 37 -15 62.5t-41.5 39t-61.5 13.5q-31 0 -57.5 -9.5t-46.5 -28.5t-33 -47.5t-18 -65.5q-7 -49 -11 -80.5t-6.5 -50t-3.5 -29t-1 -18.5q0 -37 15 -63t41.5 -39t61.5 -13zM258 937l11 79h355l-11 -79h-355z
M206 744q5 37 24.5 68t50 49t68.5 18q35 0 59 -9t45.5 -18.5t48.5 -9.5q20 0 35.5 10t22.5 27h69q-5 -36 -24.5 -67t-50 -49.5t-69.5 -18.5q-34 0 -57.5 9.5t-45 19t-49.5 9.5q-21 0 -35.5 -10.5t-22.5 -27.5h-69z" />
    <glyph glyph-name="OE" unicode="&#x152;" horiz-adv-x="1017" 
d="M293 -10q-78 0 -137.5 34.5t-91 96.5t-25.5 143q2 17 4 32t5 37t8 59q10 69 39.5 125t76 96t104 61t122.5 21q48 0 82 -10.5t60 -29.5l5 31h482l-46 -131h-288l-20 -144h269l-18 -128h-269l-21 -152h300l4 -131h-490l3 29q-30 -19 -67 -29t-91 -10zM328 121q30 0 56.5 10
t46.5 28t34 45.5t19 62.5q6 41 10.5 72t7.5 56t5 48q2 39 -12.5 66.5t-41 42t-63.5 14.5q-30 0 -56 -10t-46.5 -29.5t-34 -47.5t-18.5 -64q-5 -41 -9 -71t-7 -54t-6 -46q-2 -39 12 -66t40.5 -42t62.5 -15z" />
    <glyph glyph-name="P" unicode="P" horiz-adv-x="636" 
d="M27 0l97 686h334q53 0 95 -22.5t66.5 -62.5t24.5 -91q0 -69 -31 -126t-86 -90.5t-129 -33.5h-167l-37 -260h-167zM248 385h133q31 0 52.5 14t32 37.5t10.5 51.5q0 29 -17.5 50.5t-53.5 21.5h-132z" />
    <glyph glyph-name="Thorn" unicode="&#xde;" horiz-adv-x="640" 
d="M27 0l97 686h167l-16 -111h172q53 0 93.5 -22.5t64 -62.5t23.5 -91q0 -69 -32 -125t-87 -89t-123 -33h-171l-21 -152h-167zM233 274h135q27 0 47.5 14.5t33 38t12.5 52.5q0 31 -18 50.5t-49 19.5h-137z" />
    <glyph glyph-name="Q" unicode="Q" horiz-adv-x="709" 
d="M437 -155q-65 0 -107 22t-62.5 56t-22.5 71q-56 10 -103 41.5t-75.5 83.5t-28.5 123q0 20 5.5 62t12.5 88q10 69 38.5 125t72.5 95.5t101.5 61t125.5 21.5h31q73 0 131 -31t91.5 -88t33.5 -133q0 -20 -5.5 -61.5t-12.5 -87.5q-9 -64 -32.5 -113.5t-57 -86t-75 -60
t-85.5 -33.5q3 -12 11.5 -24.5t25 -20t42.5 -7.5t57.5 7.5t68.5 18.5l-13 -92q-14 -7 -37.5 -16t-56 -15.5t-74.5 -6.5zM330 121q31 0 57.5 9.5t46.5 28.5t33 47t18 66q7 49 11 80t6.5 49.5t3.5 29.5t1 19q0 38 -15 63t-41.5 38.5t-61.5 13.5q-31 0 -57.5 -9.5t-46.5 -28.5
t-33 -47.5t-18 -65.5q-7 -49 -11 -80.5t-6.5 -50t-3.5 -29t-1 -18.5q0 -37 15 -62.5t41.5 -39t61.5 -13.5z" />
    <glyph glyph-name="R" unicode="R" horiz-adv-x="675" 
d="M517 -8q-33 0 -57.5 8.5t-38 29t-13.5 57.5q0 20 4 41.5t4 40.5q0 25 -5.5 42.5t-16 28.5t-25.5 16t-36 5h-105l-37 -261h-163l96 686h344q50 0 90.5 -18.5t65 -53t24.5 -82.5q0 -49 -19 -89t-52 -68t-76 -42l-1 -5q17 -6 32.5 -15t27.5 -24t19.5 -36.5t7.5 -51.5
q0 -21 -3.5 -43.5t-3.5 -42.5q0 -18 3.5 -33t12 -25t22.5 -14l-5 -36q-21 -8 -46.5 -11.5t-49.5 -3.5zM246 385h144q25 0 44.5 15.5t32 40t12.5 52.5t-15.5 47.5t-47.5 19.5h-146z" />
    <glyph glyph-name="Racute" unicode="&#x154;" horiz-adv-x="675" 
d="M517 -8q-33 0 -57.5 8.5t-38 29t-13.5 57.5q0 20 4 41.5t4 40.5q0 25 -5.5 42.5t-16 28.5t-25.5 16t-36 5h-105l-37 -261h-163l96 686h344q50 0 90.5 -18.5t65 -53t24.5 -82.5q0 -49 -19 -89t-52 -68t-76 -42l-1 -5q17 -6 32.5 -15t27.5 -24t19.5 -36.5t7.5 -51.5
q0 -21 -3.5 -43.5t-3.5 -42.5q0 -18 3.5 -33t12 -25t22.5 -14l-5 -36q-21 -8 -46.5 -11.5t-49.5 -3.5zM246 385h144q25 0 44.5 15.5t32 40t12.5 52.5t-15.5 47.5t-47.5 19.5h-146zM335 749l111 140h143l1 -3l-137 -137h-118z" />
    <glyph glyph-name="Rcaron" unicode="&#x158;" horiz-adv-x="675" 
d="M517 -8q-33 0 -57.5 8.5t-38 29t-13.5 57.5q0 20 4 41.5t4 40.5q0 25 -5.5 42.5t-16 28.5t-25.5 16t-36 5h-105l-37 -261h-163l96 686h344q50 0 90.5 -18.5t65 -53t24.5 -82.5q0 -49 -19 -89t-52 -68t-76 -42l-1 -5q17 -6 32.5 -15t27.5 -24t19.5 -36.5t7.5 -51.5
q0 -21 -3.5 -43.5t-3.5 -42.5q0 -18 3.5 -33t12 -25t22.5 -14l-5 -36q-21 -8 -46.5 -11.5t-49.5 -3.5zM246 385h144q25 0 44.5 15.5t32 40t12.5 52.5t-15.5 47.5t-47.5 19.5h-146zM317 753l-95 132h114l74 -102h-33l104 102h113l-129 -132h-148z" />
    <glyph glyph-name="uni0156" unicode="&#x156;" horiz-adv-x="675" 
d="M517 -8q-33 0 -57.5 8.5t-38 29t-13.5 57.5q0 20 4 41.5t4 40.5q0 25 -5.5 42.5t-16 28.5t-25.5 16t-36 5h-105l-37 -261h-163l96 686h344q50 0 90.5 -18.5t65 -53t24.5 -82.5q0 -49 -19 -89t-52 -68t-76 -42l-1 -5q17 -6 32.5 -15t27.5 -24t19.5 -36.5t7.5 -51.5
q0 -21 -3.5 -43.5t-3.5 -42.5q0 -18 3.5 -33t12 -25t22.5 -14l-5 -36q-21 -8 -46.5 -11.5t-49.5 -3.5zM246 385h144q25 0 44.5 15.5t32 40t12.5 52.5t-15.5 47.5t-47.5 19.5h-146zM190 -375l3 16q35 32 55 67.5t25 72.5h-61l21 146h134l-18 -124q-6 -50 -29 -96.5t-60 -81.5
h-70z" />
    <glyph glyph-name="uni0210" unicode="&#x210;" horiz-adv-x="675" 
d="M517 -8q-33 0 -57.5 8.5t-38 29t-13.5 57.5q0 20 4 41.5t4 40.5q0 25 -5.5 42.5t-16 28.5t-25.5 16t-36 5h-105l-37 -261h-163l96 686h344q50 0 90.5 -18.5t65 -53t24.5 -82.5q0 -49 -19 -89t-52 -68t-76 -42l-1 -5q17 -6 32.5 -15t27.5 -24t19.5 -36.5t7.5 -51.5
q0 -21 -3.5 -43.5t-3.5 -42.5q0 -18 3.5 -33t12 -25t22.5 -14l-5 -36q-21 -8 -46.5 -11.5t-49.5 -3.5zM246 385h144q25 0 44.5 15.5t32 40t12.5 52.5t-15.5 47.5t-47.5 19.5h-146zM445 752l-102 142l5 3h122l73 -145h-98zM249 752l-102 142l2 3h125l73 -145h-98z" />
    <glyph glyph-name="uni0212" unicode="&#x212;" horiz-adv-x="675" 
d="M517 -8q-33 0 -57.5 8.5t-38 29t-13.5 57.5q0 20 4 41.5t4 40.5q0 25 -5.5 42.5t-16 28.5t-25.5 16t-36 5h-105l-37 -261h-163l96 686h344q50 0 90.5 -18.5t65 -53t24.5 -82.5q0 -49 -19 -89t-52 -68t-76 -42l-1 -5q17 -6 32.5 -15t27.5 -24t19.5 -36.5t7.5 -51.5
q0 -21 -3.5 -43.5t-3.5 -42.5q0 -18 3.5 -33t12 -25t22.5 -14l-5 -36q-21 -8 -46.5 -11.5t-49.5 -3.5zM246 385h144q25 0 44.5 15.5t32 40t12.5 52.5t-15.5 47.5t-47.5 19.5h-146zM201 756q6 39 31 70t67.5 48.5t101.5 17.5q63 0 103.5 -17.5t59 -48.5t12.5 -70h-87
q-3 28 -24.5 42t-67.5 14q-45 0 -71.5 -14t-37.5 -42h-87z" />
    <glyph glyph-name="S" unicode="S" horiz-adv-x="642" 
d="M269 -10q-68 0 -125 18.5t-91 58.5t-34 104q0 14 1.5 29t4.5 27h157q-2 -5 -3 -14t-1 -15q0 -23 11.5 -40.5t36 -27t61.5 -9.5q50 0 79 10t42 28t13 41q0 24 -19 38.5t-49.5 24.5t-67.5 19t-74 22t-67.5 33.5t-49.5 52.5t-19 80q0 75 38 125t105.5 75.5t154.5 25.5
q67 0 122.5 -18t88.5 -56t33 -98q0 -7 -0.5 -17.5t-3.5 -25.5h-155q1 8 1.5 12.5t0.5 8.5q0 32 -26.5 50t-71.5 18q-38 0 -64.5 -8.5t-40.5 -24t-14 -37.5q0 -24 19 -39t50 -24.5t68.5 -18.5t74.5 -21.5t68 -32.5t50 -52t19 -80q0 -54 -21.5 -99t-62.5 -77t-101 -49
t-138 -17z" />
    <glyph glyph-name="Sacute" unicode="&#x15a;" horiz-adv-x="642" 
d="M269 -10q-68 0 -125 18.5t-91 58.5t-34 104q0 14 1.5 29t4.5 27h157q-2 -5 -3 -14t-1 -15q0 -23 11.5 -40.5t36 -27t61.5 -9.5q50 0 79 10t42 28t13 41q0 24 -19 38.5t-49.5 24.5t-67.5 19t-74 22t-67.5 33.5t-49.5 52.5t-19 80q0 75 38 125t105.5 75.5t154.5 25.5
q67 0 122.5 -18t88.5 -56t33 -98q0 -7 -0.5 -17.5t-3.5 -25.5h-155q1 8 1.5 12.5t0.5 8.5q0 32 -26.5 50t-71.5 18q-38 0 -64.5 -8.5t-40.5 -24t-14 -37.5q0 -24 19 -39t50 -24.5t68.5 -18.5t74.5 -21.5t68 -32.5t50 -52t19 -80q0 -54 -21.5 -99t-62.5 -77t-101 -49
t-138 -17zM316 749l111 140h143l1 -3l-137 -137h-118z" />
    <glyph glyph-name="Scaron" unicode="&#x160;" horiz-adv-x="642" 
d="M269 -10q-68 0 -125 18.5t-91 58.5t-34 104q0 14 1.5 29t4.5 27h157q-2 -5 -3 -14t-1 -15q0 -23 11.5 -40.5t36 -27t61.5 -9.5q50 0 79 10t42 28t13 41q0 24 -19 38.5t-49.5 24.5t-67.5 19t-74 22t-67.5 33.5t-49.5 52.5t-19 80q0 75 38 125t105.5 75.5t154.5 25.5
q67 0 122.5 -18t88.5 -56t33 -98q0 -7 -0.5 -17.5t-3.5 -25.5h-155q1 8 1.5 12.5t0.5 8.5q0 32 -26.5 50t-71.5 18q-38 0 -64.5 -8.5t-40.5 -24t-14 -37.5q0 -24 19 -39t50 -24.5t68.5 -18.5t74.5 -21.5t68 -32.5t50 -52t19 -80q0 -54 -21.5 -99t-62.5 -77t-101 -49
t-138 -17zM298 753l-95 132h114l74 -102h-33l104 102h113l-129 -132h-148z" />
    <glyph glyph-name="Scedilla" unicode="&#x15e;" horiz-adv-x="642" 
d="M269 -10q-68 0 -125 18.5t-91 58.5t-34 104q0 14 1.5 29t4.5 27h157q-2 -5 -3 -14t-1 -15q0 -23 11.5 -40.5t36 -27t61.5 -9.5q50 0 79 10t42 28t13 41q0 24 -19 38.5t-49.5 24.5t-67.5 19t-74 22t-67.5 33.5t-49.5 52.5t-19 80q0 75 38 125t105.5 75.5t154.5 25.5
q67 0 122.5 -18t88.5 -56t33 -98q0 -7 -0.5 -17.5t-3.5 -25.5h-155q1 8 1.5 12.5t0.5 8.5q0 32 -26.5 50t-71.5 18q-38 0 -64.5 -8.5t-40.5 -24t-14 -37.5q0 -24 19 -39t50 -24.5t68.5 -18.5t74.5 -21.5t68 -32.5t50 -52t19 -80q0 -54 -21.5 -99t-62.5 -77t-101 -49
t-138 -17zM245 -210q-29 0 -57 7.5t-47 21.5l31 56q12 -10 30 -18t46 -8q14 0 25.5 4t19 12.5t7.5 22.5q0 15 -8.5 20.5t-24.5 5.5h-22l9 56h34q37 0 66 -16.5t29 -55.5q0 -40 -22.5 -64t-54 -34t-61.5 -10z" />
    <glyph glyph-name="Scircumflex" unicode="&#x15c;" horiz-adv-x="642" 
d="M269 -10q-68 0 -125 18.5t-91 58.5t-34 104q0 14 1.5 29t4.5 27h157q-2 -5 -3 -14t-1 -15q0 -23 11.5 -40.5t36 -27t61.5 -9.5q50 0 79 10t42 28t13 41q0 24 -19 38.5t-49.5 24.5t-67.5 19t-74 22t-67.5 33.5t-49.5 52.5t-19 80q0 75 38 125t105.5 75.5t154.5 25.5
q67 0 122.5 -18t88.5 -56t33 -98q0 -7 -0.5 -17.5t-3.5 -25.5h-155q1 8 1.5 12.5t0.5 8.5q0 32 -26.5 50t-71.5 18q-38 0 -64.5 -8.5t-40.5 -24t-14 -37.5q0 -24 19 -39t50 -24.5t68.5 -18.5t74.5 -21.5t68 -32.5t50 -52t19 -80q0 -54 -21.5 -99t-62.5 -77t-101 -49
t-138 -17zM183 753l128 132h149l97 -132h-114l-75 102h34l-105 -102h-114z" />
    <glyph glyph-name="uni0218" unicode="&#x218;" horiz-adv-x="642" 
d="M269 -10q-68 0 -125 18.5t-91 58.5t-34 104q0 14 1.5 29t4.5 27h157q-2 -5 -3 -14t-1 -15q0 -23 11.5 -40.5t36 -27t61.5 -9.5q50 0 79 10t42 28t13 41q0 24 -19 38.5t-49.5 24.5t-67.5 19t-74 22t-67.5 33.5t-49.5 52.5t-19 80q0 75 38 125t105.5 75.5t154.5 25.5
q67 0 122.5 -18t88.5 -56t33 -98q0 -7 -0.5 -17.5t-3.5 -25.5h-155q1 8 1.5 12.5t0.5 8.5q0 32 -26.5 50t-71.5 18q-38 0 -64.5 -8.5t-40.5 -24t-14 -37.5q0 -24 19 -39t50 -24.5t68.5 -18.5t74.5 -21.5t68 -32.5t50 -52t19 -80q0 -54 -21.5 -99t-62.5 -77t-101 -49
t-138 -17zM165 -375l3 16q35 32 55 67.5t25 72.5h-61l21 146h134l-18 -124q-6 -50 -29 -96.5t-60 -81.5h-70z" />
    <glyph glyph-name="uni1E62" unicode="&#x1e62;" horiz-adv-x="642" 
d="M269 -10q-68 0 -125 18.5t-91 58.5t-34 104q0 14 1.5 29t4.5 27h157q-2 -5 -3 -14t-1 -15q0 -23 11.5 -40.5t36 -27t61.5 -9.5q50 0 79 10t42 28t13 41q0 24 -19 38.5t-49.5 24.5t-67.5 19t-74 22t-67.5 33.5t-49.5 52.5t-19 80q0 75 38 125t105.5 75.5t154.5 25.5
q67 0 122.5 -18t88.5 -56t33 -98q0 -7 -0.5 -17.5t-3.5 -25.5h-155q1 8 1.5 12.5t0.5 8.5q0 32 -26.5 50t-71.5 18q-38 0 -64.5 -8.5t-40.5 -24t-14 -37.5q0 -24 19 -39t50 -24.5t68.5 -18.5t74.5 -21.5t68 -32.5t50 -52t19 -80q0 -54 -21.5 -99t-62.5 -77t-101 -49
t-138 -17zM190 -206l18 128h128l-18 -128h-128z" />
    <glyph glyph-name="uni1E9E" unicode="&#x1e9e;" horiz-adv-x="787" 
d="M466 -10q-104 0 -155 42t-51 127q0 11 1 23t3 24h146q-1 -7 -1.5 -13.5t-0.5 -13.5q0 -32 16 -47.5t54 -15.5q52 0 74 30.5t22 77.5q0 39 -26.5 55t-68.5 16h-109l16 110h104q28 0 51 9.5t37 29.5t14 50q0 42 -40.5 59t-106.5 17q-51 0 -91 -13.5t-66 -47t-34 -92.5
l-59 -417h-174l53 374q17 121 71.5 191t137.5 100.5t184 30.5q82 0 147 -20.5t102.5 -60t37.5 -96.5q0 -42 -17 -73.5t-44.5 -53t-58.5 -32.5v-4q42 -14 71 -49.5t29 -90.5q0 -70 -34.5 -121t-95 -78t-138.5 -27z" />
    <glyph glyph-name="T" unicode="T" horiz-adv-x="576" 
d="M161 0l78 551h-189l19 135h545l-19 -135h-189l-78 -551h-167z" />
    <glyph glyph-name="Tbar" unicode="&#x166;" horiz-adv-x="576" 
d="M161 0l78 551h-189l19 135h545l-19 -135h-189l-78 -551h-167zM100 280l15 108h370l-16 -108h-369z" />
    <glyph glyph-name="Tcaron" unicode="&#x164;" horiz-adv-x="576" 
d="M161 0l78 551h-189l19 135h545l-19 -135h-189l-78 -551h-167zM273 753l-95 132h114l74 -102h-33l104 102h113l-129 -132h-148z" />
    <glyph glyph-name="uni0162" unicode="&#x162;" horiz-adv-x="576" 
d="M161 0l78 551h-189l19 135h545l-19 -135h-189l-78 -551h-167zM207 -210q-29 0 -57 7.5t-47 21.5l31 56q12 -10 30 -18t46 -8q14 0 25.5 4t19 12.5t7.5 22.5q0 15 -8.5 20.5t-24.5 5.5h-22l9 56h34q37 0 66 -16.5t29 -55.5q0 -40 -22.5 -64t-54 -34t-61.5 -10z" />
    <glyph glyph-name="uni021A" unicode="&#x21a;" horiz-adv-x="576" 
d="M161 0l78 551h-189l19 135h545l-19 -135h-189l-78 -551h-167zM127 -375l3 16q35 32 55 67.5t25 72.5h-61l21 146h134l-18 -124q-6 -50 -29 -96.5t-60 -81.5h-70z" />
    <glyph glyph-name="uni1E6C" unicode="&#x1e6c;" horiz-adv-x="576" 
d="M161 0l78 551h-189l19 135h545l-19 -135h-189l-78 -551h-167zM152 -206l18 128h128l-18 -128h-128z" />
    <glyph glyph-name="U" unicode="U" horiz-adv-x="683" 
d="M282 -10q-108 0 -168 52.5t-60 136.5q0 12 1 27t3 35.5t6 48.5t8.5 65t11 85.5t15 109.5t19.5 136h167q-14 -105 -24.5 -181.5t-18 -129t-12 -87t-6 -55.5t-1.5 -35q0 -39 24.5 -58.5t68.5 -19.5q53 0 85.5 28.5t38.5 72.5l65 465h167l-65 -467q-10 -70 -47 -121.5
t-99 -79.5t-148 -28h-31z" />
    <glyph glyph-name="Uacute" unicode="&#xda;" horiz-adv-x="683" 
d="M282 -10q-108 0 -168 52.5t-60 136.5q0 12 1 27t3 35.5t6 48.5t8.5 65t11 85.5t15 109.5t19.5 136h167q-14 -105 -24.5 -181.5t-18 -129t-12 -87t-6 -55.5t-1.5 -35q0 -39 24.5 -58.5t68.5 -19.5q53 0 85.5 28.5t38.5 72.5l65 465h167l-65 -467q-10 -70 -47 -121.5
t-99 -79.5t-148 -28h-31zM345 749l111 140h143l1 -3l-137 -137h-118z" />
    <glyph glyph-name="uni0244" unicode="&#x244;" horiz-adv-x="683" 
d="M33 445h658l-16 -113h-658zM282 -10q-108 0 -168 52.5t-60 136.5q0 12 1 27t3 35.5t6 48.5t8.5 65t11 85.5t15 109.5t19.5 136h167q-14 -105 -24.5 -181.5t-18 -129t-12 -87t-6 -55.5t-1.5 -35q0 -39 24.5 -58.5t68.5 -19.5q53 0 85.5 28.5t38.5 72.5l65 465h167
l-65 -467q-10 -70 -47 -121.5t-99 -79.5t-148 -28h-31z" />
    <glyph glyph-name="Ubreve" unicode="&#x16c;" horiz-adv-x="683" 
d="M282 -10q-108 0 -168 52.5t-60 136.5q0 12 1 27t3 35.5t6 48.5t8.5 65t11 85.5t15 109.5t19.5 136h167q-14 -105 -24.5 -181.5t-18 -129t-12 -87t-6 -55.5t-1.5 -35q0 -39 24.5 -58.5t68.5 -19.5q53 0 85.5 28.5t38.5 72.5l65 465h167l-65 -467q-10 -70 -47 -121.5
t-99 -79.5t-148 -28h-31zM400 748q-85 0 -123.5 38.5t-32.5 98.5h88q1 -28 19.5 -42t56.5 -14q39 0 62 14t33 42h87q-10 -60 -58.5 -98.5t-131.5 -38.5z" />
    <glyph glyph-name="uni01D3" unicode="&#x1d3;" horiz-adv-x="683" 
d="M282 -10q-108 0 -168 52.5t-60 136.5q0 12 1 27t3 35.5t6 48.5t8.5 65t11 85.5t15 109.5t19.5 136h167q-14 -105 -24.5 -181.5t-18 -129t-12 -87t-6 -55.5t-1.5 -35q0 -39 24.5 -58.5t68.5 -19.5q53 0 85.5 28.5t38.5 72.5l65 465h167l-65 -467q-10 -70 -47 -121.5
t-99 -79.5t-148 -28h-31zM327 753l-95 132h114l74 -102h-33l104 102h113l-129 -132h-148z" />
    <glyph glyph-name="Ucircumflex" unicode="&#xdb;" horiz-adv-x="683" 
d="M282 -10q-108 0 -168 52.5t-60 136.5q0 12 1 27t3 35.5t6 48.5t8.5 65t11 85.5t15 109.5t19.5 136h167q-14 -105 -24.5 -181.5t-18 -129t-12 -87t-6 -55.5t-1.5 -35q0 -39 24.5 -58.5t68.5 -19.5q53 0 85.5 28.5t38.5 72.5l65 465h167l-65 -467q-10 -70 -47 -121.5
t-99 -79.5t-148 -28h-31zM212 753l128 132h149l97 -132h-114l-75 102h34l-105 -102h-114z" />
    <glyph glyph-name="uni0214" unicode="&#x214;" horiz-adv-x="683" 
d="M282 -10q-108 0 -168 52.5t-60 136.5q0 12 1 27t3 35.5t6 48.5t8.5 65t11 85.5t15 109.5t19.5 136h167q-14 -105 -24.5 -181.5t-18 -129t-12 -87t-6 -55.5t-1.5 -35q0 -39 24.5 -58.5t68.5 -19.5q53 0 85.5 28.5t38.5 72.5l65 465h167l-65 -467q-10 -70 -47 -121.5
t-99 -79.5t-148 -28h-31zM455 752l-102 142l5 3h122l73 -145h-98zM259 752l-102 142l2 3h125l73 -145h-98z" />
    <glyph glyph-name="Udieresis" unicode="&#xdc;" horiz-adv-x="683" 
d="M282 -10q-108 0 -168 52.5t-60 136.5q0 12 1 27t3 35.5t6 48.5t8.5 65t11 85.5t15 109.5t19.5 136h167q-14 -105 -24.5 -181.5t-18 -129t-12 -87t-6 -55.5t-1.5 -35q0 -39 24.5 -58.5t68.5 -19.5q53 0 85.5 28.5t38.5 72.5l65 465h167l-65 -467q-10 -70 -47 -121.5
t-99 -79.5t-148 -28h-31zM218 757l17 122h124l-17 -122h-124zM458 757l17 122h124l-17 -122h-124z" />
    <glyph glyph-name="uni01D7" unicode="&#x1d7;" horiz-adv-x="683" 
d="M282 -10q-108 0 -168 52.5t-60 136.5q0 12 1 27t3 35.5t6 48.5t8.5 65t11 85.5t15 109.5t19.5 136h167q-14 -105 -24.5 -181.5t-18 -129t-12 -87t-6 -55.5t-1.5 -35q0 -39 24.5 -58.5t68.5 -19.5q53 0 85.5 28.5t38.5 72.5l65 465h167l-65 -467q-10 -70 -47 -121.5
t-99 -79.5t-148 -28h-31zM375 930l101 131h127v-3l-129 -128h-99zM234 765l17 122h124l-17 -122h-124zM442 765l17 122h124l-18 -122h-123z" />
    <glyph glyph-name="uni01D9" unicode="&#x1d9;" horiz-adv-x="683" 
d="M282 -10q-108 0 -168 52.5t-60 136.5q0 12 1 27t3 35.5t6 48.5t8.5 65t11 85.5t15 109.5t19.5 136h167q-14 -105 -24.5 -181.5t-18 -129t-12 -87t-6 -55.5t-1.5 -35q0 -39 24.5 -58.5t68.5 -19.5q53 0 85.5 28.5t38.5 72.5l65 465h167l-65 -467q-10 -70 -47 -121.5
t-99 -79.5t-148 -28h-31zM369 930l-120 125h111l73 -63l91 63h109l-155 -125h-109zM234 765l18 122h124l-18 -122h-124zM442 765l18 122h123l-17 -122h-124z" />
    <glyph glyph-name="uni01DB" unicode="&#x1db;" horiz-adv-x="683" 
d="M282 -10q-108 0 -168 52.5t-60 136.5q0 12 1 27t3 35.5t6 48.5t8.5 65t11 85.5t15 109.5t19.5 136h167q-14 -105 -24.5 -181.5t-18 -129t-12 -87t-6 -55.5t-1.5 -35q0 -39 24.5 -58.5t68.5 -19.5q53 0 85.5 28.5t38.5 72.5l65 465h167l-65 -467q-10 -70 -47 -121.5
t-99 -79.5t-148 -28h-31zM373 930l-95 128l2 3h128l64 -131h-99zM234 765l18 122h123l-17 -122h-124zM442 765l17 122h124l-17 -122h-124z" />
    <glyph glyph-name="uni01D5" unicode="&#x1d5;" horiz-adv-x="683" 
d="M282 -10q-108 0 -168 52.5t-60 136.5q0 12 1 27t3 35.5t6 48.5t8.5 65t11 85.5t15 109.5t19.5 136h167q-14 -105 -24.5 -181.5t-18 -129t-12 -87t-6 -55.5t-1.5 -35q0 -39 24.5 -58.5t68.5 -19.5q53 0 85.5 28.5t38.5 72.5l65 465h167l-65 -467q-10 -70 -47 -121.5
t-99 -79.5t-148 -28h-31zM257 933l13 87h335l-12 -87h-336zM236 765l17 122h124l-17 -122h-124zM444 765l17 122h123l-17 -122h-123z" />
    <glyph glyph-name="uni1EE4" unicode="&#x1ee4;" horiz-adv-x="683" 
d="M282 -10q-108 0 -168 52.5t-60 136.5q0 12 1 27t3 35.5t6 48.5t8.5 65t11 85.5t15 109.5t19.5 136h167q-14 -105 -24.5 -181.5t-18 -129t-12 -87t-6 -55.5t-1.5 -35q0 -39 24.5 -58.5t68.5 -19.5q53 0 85.5 28.5t38.5 72.5l65 465h167l-65 -467q-10 -70 -47 -121.5
t-99 -79.5t-148 -28h-31zM208 -206l18 128h128l-18 -128h-128z" />
    <glyph glyph-name="Ugrave" unicode="&#xd9;" horiz-adv-x="683" 
d="M282 -10q-108 0 -168 52.5t-60 136.5q0 12 1 27t3 35.5t6 48.5t8.5 65t11 85.5t15 109.5t19.5 136h167q-14 -105 -24.5 -181.5t-18 -129t-12 -87t-6 -55.5t-1.5 -35q0 -39 24.5 -58.5t68.5 -19.5q53 0 85.5 28.5t38.5 72.5l65 465h167l-65 -467q-10 -70 -47 -121.5
t-99 -79.5t-148 -28h-31zM352 749l-103 137l1 3h136l76 -140h-110z" />
    <glyph glyph-name="uni1EE6" unicode="&#x1ee6;" horiz-adv-x="683" 
d="M282 -10q-108 0 -168 52.5t-60 136.5q0 12 1 27t3 35.5t6 48.5t8.5 65t11 85.5t15 109.5t19.5 136h167q-14 -105 -24.5 -181.5t-18 -129t-12 -87t-6 -55.5t-1.5 -35q0 -39 24.5 -58.5t68.5 -19.5q53 0 85.5 28.5t38.5 72.5l65 465h167l-65 -467q-10 -70 -47 -121.5
t-99 -79.5t-148 -28h-31zM370 729l10 70q31 3 49.5 17t19.5 38q1 17 -10.5 26.5t-34.5 9.5q-13 0 -31 -3t-39 -10l13 92q20 5 39 7.5t37 2.5q52 0 84.5 -24.5t32.5 -70.5q0 -44 -25 -78t-64 -54.5t-81 -22.5z" />
    <glyph glyph-name="Uhorn" unicode="&#x1af;" horiz-adv-x="683" 
d="M282 -10q-108 0 -168 52.5t-60 136.5q0 12 1 27t3 35.5t6 48.5t8.5 65t11 85.5t15 109.5t19.5 136h167q-14 -105 -24.5 -181.5t-18 -129t-12 -87t-6 -55.5t-1.5 -35q0 -39 24.5 -58.5t68.5 -19.5q53 0 85.5 28.5t38.5 72.5l65 465h167l-65 -467q-10 -70 -47 -121.5
t-99 -79.5t-148 -28h-31zM552 602l12 84q50 8 72 41.5t31 97.5h135q-7 -55 -42 -104t-89 -81.5t-119 -37.5z" />
    <glyph glyph-name="uni1EE8" unicode="&#x1ee8;" horiz-adv-x="683" 
d="M282 -10q-108 0 -168 52.5t-60 136.5q0 12 1 27t3 35.5t6 48.5t8.5 65t11 85.5t15 109.5t19.5 136h167q-14 -105 -24.5 -181.5t-18 -129t-12 -87t-6 -55.5t-1.5 -35q0 -39 24.5 -58.5t68.5 -19.5q53 0 85.5 28.5t38.5 72.5l65 465h167l-65 -467q-10 -70 -47 -121.5
t-99 -79.5t-148 -28h-31zM552 602l12 84q50 8 72 41.5t31 97.5h135q-7 -55 -42 -104t-89 -81.5t-119 -37.5zM345 749l111 140h143l1 -3l-137 -137h-118z" />
    <glyph glyph-name="uni1EF0" unicode="&#x1ef0;" horiz-adv-x="683" 
d="M282 -10q-108 0 -168 52.5t-60 136.5q0 12 1 27t3 35.5t6 48.5t8.5 65t11 85.5t15 109.5t19.5 136h167q-14 -105 -24.5 -181.5t-18 -129t-12 -87t-6 -55.5t-1.5 -35q0 -39 24.5 -58.5t68.5 -19.5q53 0 85.5 28.5t38.5 72.5l65 465h167l-65 -467q-10 -70 -47 -121.5
t-99 -79.5t-148 -28h-31zM552 602l12 84q50 8 72 41.5t31 97.5h135q-7 -55 -42 -104t-89 -81.5t-119 -37.5zM208 -206l18 128h128l-18 -128h-128z" />
    <glyph glyph-name="uni1EEA" unicode="&#x1eea;" horiz-adv-x="683" 
d="M282 -10q-108 0 -168 52.5t-60 136.5q0 12 1 27t3 35.5t6 48.5t8.5 65t11 85.5t15 109.5t19.5 136h167q-14 -105 -24.5 -181.5t-18 -129t-12 -87t-6 -55.5t-1.5 -35q0 -39 24.5 -58.5t68.5 -19.5q53 0 85.5 28.5t38.5 72.5l65 465h167l-65 -467q-10 -70 -47 -121.5
t-99 -79.5t-148 -28h-31zM552 602l12 84q50 8 72 41.5t31 97.5h135q-7 -55 -42 -104t-89 -81.5t-119 -37.5zM352 749l-103 137l1 3h136l76 -140h-110z" />
    <glyph glyph-name="uni1EEC" unicode="&#x1eec;" horiz-adv-x="683" 
d="M282 -10q-108 0 -168 52.5t-60 136.5q0 12 1 27t3 35.5t6 48.5t8.5 65t11 85.5t15 109.5t19.5 136h167q-14 -105 -24.5 -181.5t-18 -129t-12 -87t-6 -55.5t-1.5 -35q0 -39 24.5 -58.5t68.5 -19.5q53 0 85.5 28.5t38.5 72.5l65 465h167l-65 -467q-10 -70 -47 -121.5
t-99 -79.5t-148 -28h-31zM552 602l12 84q50 8 72 41.5t31 97.5h135q-7 -55 -42 -104t-89 -81.5t-119 -37.5zM370 729l10 70q31 3 49.5 17t19.5 38q1 17 -10.5 26.5t-34.5 9.5q-13 0 -31 -3t-39 -10l13 92q20 5 39 7.5t37 2.5q52 0 84.5 -24.5t32.5 -70.5q0 -44 -25 -78
t-64 -54.5t-81 -22.5z" />
    <glyph glyph-name="uni1EEE" unicode="&#x1eee;" horiz-adv-x="683" 
d="M282 -10q-108 0 -168 52.5t-60 136.5q0 12 1 27t3 35.5t6 48.5t8.5 65t11 85.5t15 109.5t19.5 136h167q-14 -105 -24.5 -181.5t-18 -129t-12 -87t-6 -55.5t-1.5 -35q0 -39 24.5 -58.5t68.5 -19.5q53 0 85.5 28.5t38.5 72.5l65 465h167l-65 -467q-10 -70 -47 -121.5
t-99 -79.5t-148 -28h-31zM552 602l12 84q50 8 72 41.5t31 97.5h135q-7 -55 -42 -104t-89 -81.5t-119 -37.5zM204 750q8 44 25 74.5t44 47.5t63 17t62.5 -10.5t48.5 -21.5t43 -11t34 11.5t21 30.5h68q-7 -42 -24.5 -73t-44 -48t-62.5 -17t-63 10.5t-49 21.5t-44 11
q-19 0 -31.5 -11t-21.5 -32h-69z" />
    <glyph glyph-name="Uhungarumlaut" unicode="&#x170;" horiz-adv-x="683" 
d="M282 -10q-108 0 -168 52.5t-60 136.5q0 12 1 27t3 35.5t6 48.5t8.5 65t11 85.5t15 109.5t19.5 136h167q-14 -105 -24.5 -181.5t-18 -129t-12 -87t-6 -55.5t-1.5 -35q0 -39 24.5 -58.5t68.5 -19.5q53 0 85.5 28.5t38.5 72.5l65 465h167l-65 -467q-10 -70 -47 -121.5
t-99 -79.5t-148 -28h-31zM424 749l112 140h132l2 -3l-141 -137h-105zM233 749l112 140h129l5 -3l-141 -137h-105z" />
    <glyph glyph-name="uni0216" unicode="&#x216;" horiz-adv-x="683" 
d="M282 -10q-108 0 -168 52.5t-60 136.5q0 12 1 27t3 35.5t6 48.5t8.5 65t11 85.5t15 109.5t19.5 136h167q-14 -105 -24.5 -181.5t-18 -129t-12 -87t-6 -55.5t-1.5 -35q0 -39 24.5 -58.5t68.5 -19.5q53 0 85.5 28.5t38.5 72.5l65 465h167l-65 -467q-10 -70 -47 -121.5
t-99 -79.5t-148 -28h-31zM211 756q6 39 31 70t67.5 48.5t101.5 17.5q63 0 103.5 -17.5t59 -48.5t12.5 -70h-87q-3 28 -24.5 42t-67.5 14q-45 0 -71.5 -14t-37.5 -42h-87z" />
    <glyph glyph-name="Umacron" unicode="&#x16a;" horiz-adv-x="683" 
d="M282 -10q-108 0 -168 52.5t-60 136.5q0 12 1 27t3 35.5t6 48.5t8.5 65t11 85.5t15 109.5t19.5 136h167q-14 -105 -24.5 -181.5t-18 -129t-12 -87t-6 -55.5t-1.5 -35q0 -39 24.5 -58.5t68.5 -19.5q53 0 85.5 28.5t38.5 72.5l65 465h167l-65 -467q-10 -70 -47 -121.5
t-99 -79.5t-148 -28h-31zM235 775l12 83h334l-12 -83h-334z" />
    <glyph glyph-name="Uogonek" unicode="&#x172;" horiz-adv-x="683" 
d="M282 -10q-108 0 -168 52.5t-60 136.5q0 12 1 27t3 35.5t6 48.5t8.5 65t11 85.5t15 109.5t19.5 136h167q-14 -105 -24.5 -181.5t-18 -129t-12 -87t-6 -55.5t-1.5 -35q0 -39 24.5 -58.5t68.5 -19.5q53 0 85.5 28.5t38.5 72.5l65 465h167l-65 -467q-10 -70 -47 -121.5
t-99 -79.5t-148 -28h-31zM349 -146q-36 0 -64 14.5t-28 49.5q0 28 17 49t38 33h91q-23 -12 -37.5 -26.5t-14.5 -34.5q0 -15 10.5 -21t24.5 -6q15 0 31.5 4t31.5 9l7 -44q-24 -13 -52 -20t-55 -7z" />
    <glyph glyph-name="Uring" unicode="&#x16e;" horiz-adv-x="683" 
d="M282 -10q-108 0 -168 52.5t-60 136.5q0 12 1 27t3 35.5t6 48.5t8.5 65t11 85.5t15 109.5t19.5 136h167q-14 -105 -24.5 -181.5t-18 -129t-12 -87t-6 -55.5t-1.5 -35q0 -39 24.5 -58.5t68.5 -19.5q53 0 85.5 28.5t38.5 72.5l65 465h167l-65 -467q-10 -70 -47 -121.5
t-99 -79.5t-148 -28h-31zM394 725q-40 0 -65.5 23.5t-25.5 62.5q0 35 17 62t45 42.5t60 15.5q42 0 67 -23.5t25 -62.5q0 -34 -16.5 -61.5t-44.5 -43t-62 -15.5zM404 786q21 0 34 15t13 34q0 15 -9.5 25t-25.5 10q-20 0 -33.5 -15t-13.5 -34q0 -15 9.5 -25t25.5 -10z" />
    <glyph glyph-name="Utilde" unicode="&#x168;" horiz-adv-x="683" 
d="M282 -10q-108 0 -168 52.5t-60 136.5q0 12 1 27t3 35.5t6 48.5t8.5 65t11 85.5t15 109.5t19.5 136h167q-14 -105 -24.5 -181.5t-18 -129t-12 -87t-6 -55.5t-1.5 -35q0 -39 24.5 -58.5t68.5 -19.5q53 0 85.5 28.5t38.5 72.5l65 465h167l-65 -467q-10 -70 -47 -121.5
t-99 -79.5t-148 -28h-31zM204 750q8 44 25 74.5t44 47.5t63 17t62.5 -10.5t48.5 -21.5t43 -11t34 11.5t21 30.5h68q-7 -42 -24.5 -73t-44 -48t-62.5 -17t-63 10.5t-49 21.5t-44 11q-19 0 -31.5 -11t-21.5 -32h-69z" />
    <glyph glyph-name="V" unicode="V" horiz-adv-x="638" 
d="M177 0l-123 686h175l81 -475h5l214 475h161l-319 -686h-194z" />
    <glyph glyph-name="W" unicode="W" horiz-adv-x="982" 
d="M151 0l-94 686h174l54 -433h5l178 433h169l53 -433h5l177 433h158l-289 -686h-185l-49 393h-6l-163 -393h-187z" />
    <glyph glyph-name="Wacute" unicode="&#x1e82;" horiz-adv-x="982" 
d="M151 0l-94 686h174l54 -433h5l178 433h169l53 -433h5l177 433h158l-289 -686h-185l-49 393h-6l-163 -393h-187zM500 749l111 140h143l1 -3l-137 -137h-118z" />
    <glyph glyph-name="Wcircumflex" unicode="&#x174;" horiz-adv-x="982" 
d="M151 0l-94 686h174l54 -433h5l178 433h169l53 -433h5l177 433h158l-289 -686h-185l-49 393h-6l-163 -393h-187zM367 753l128 132h149l97 -132h-114l-75 102h34l-105 -102h-114z" />
    <glyph glyph-name="Wdieresis" unicode="&#x1e84;" horiz-adv-x="982" 
d="M151 0l-94 686h174l54 -433h5l178 433h169l53 -433h5l177 433h158l-289 -686h-185l-49 393h-6l-163 -393h-187zM373 757l17 122h124l-17 -122h-124zM613 757l17 122h124l-17 -122h-124z" />
    <glyph glyph-name="Wgrave" unicode="&#x1e80;" horiz-adv-x="982" 
d="M151 0l-94 686h174l54 -433h5l178 433h169l53 -433h5l177 433h158l-289 -686h-185l-49 393h-6l-163 -393h-187zM507 749l-103 137l1 3h136l76 -140h-110z" />
    <glyph glyph-name="X" unicode="X" horiz-adv-x="657" 
d="M-47 0l278 360l-160 326h195l93 -202h4l153 202h180l-252 -324l177 -362h-196l-110 237h-4l-179 -237h-179z" />
    <glyph glyph-name="Y" unicode="Y" horiz-adv-x="623" 
d="M184 0l38 263l-174 423h188l97 -261h5l171 261h171l-292 -423l-37 -263h-167z" />
    <glyph glyph-name="Yacute" unicode="&#xdd;" horiz-adv-x="623" 
d="M184 0l38 263l-174 423h188l97 -261h5l171 261h171l-292 -423l-37 -263h-167zM317 749l111 140h143l1 -3l-137 -137h-118z" />
    <glyph glyph-name="Ycircumflex" unicode="&#x176;" horiz-adv-x="623" 
d="M184 0l38 263l-174 423h188l97 -261h5l171 261h171l-292 -423l-37 -263h-167zM184 753l128 132h149l97 -132h-114l-75 102h34l-105 -102h-114z" />
    <glyph glyph-name="Ydieresis" unicode="&#x178;" horiz-adv-x="623" 
d="M184 0l38 263l-174 423h188l97 -261h5l171 261h171l-292 -423l-37 -263h-167zM190 757l17 122h124l-17 -122h-124zM430 757l17 122h124l-17 -122h-124z" />
    <glyph glyph-name="uni1EF4" unicode="&#x1ef4;" horiz-adv-x="623" 
d="M184 0l38 263l-174 423h188l97 -261h5l171 261h171l-292 -423l-37 -263h-167zM174 -206l18 128h128l-18 -128h-128z" />
    <glyph glyph-name="Ygrave" unicode="&#x1ef2;" horiz-adv-x="623" 
d="M184 0l38 263l-174 423h188l97 -261h5l171 261h171l-292 -423l-37 -263h-167zM324 749l-103 137l1 3h136l76 -140h-110z" />
    <glyph glyph-name="uni1EF6" unicode="&#x1ef6;" horiz-adv-x="623" 
d="M184 0l38 263l-174 423h188l97 -261h5l171 261h171l-292 -423l-37 -263h-167zM342 729l10 70q31 3 49.5 17t19.5 38q1 17 -10.5 26.5t-34.5 9.5q-13 0 -31 -3t-39 -10l13 92q20 5 39 7.5t37 2.5q52 0 84.5 -24.5t32.5 -70.5q0 -44 -25 -78t-64 -54.5t-81 -22.5z" />
    <glyph glyph-name="uni0232" unicode="&#x232;" horiz-adv-x="623" 
d="M184 0l38 263l-174 423h188l97 -261h5l171 261h171l-292 -423l-37 -263h-167zM208 775l12 83h334l-12 -83h-334z" />
    <glyph glyph-name="uni1EF8" unicode="&#x1ef8;" horiz-adv-x="623" 
d="M184 0l38 263l-174 423h188l97 -261h5l171 261h171l-292 -423l-37 -263h-167zM176 750q8 44 25 74.5t44 47.5t63 17t62.5 -10.5t48.5 -21.5t43 -11t34 11.5t21 30.5h68q-7 -42 -24.5 -73t-44 -48t-62.5 -17t-63 10.5t-49 21.5t-44 11q-19 0 -31.5 -11t-21.5 -32h-69z" />
    <glyph glyph-name="Z" unicode="Z" horiz-adv-x="610" 
d="M-17 0l7 52l376 502h-282l19 132h521l-8 -52l-373 -501h311l-19 -133h-552z" />
    <glyph glyph-name="Zacute" unicode="&#x179;" horiz-adv-x="610" 
d="M-17 0l7 52l376 502h-282l19 132h521l-8 -52l-373 -501h311l-19 -133h-552zM300 749l111 140h143l1 -3l-137 -137h-118z" />
    <glyph glyph-name="Zcaron" unicode="&#x17d;" horiz-adv-x="610" 
d="M-17 0l7 52l376 502h-282l19 132h521l-8 -52l-373 -501h311l-19 -133h-552zM282 753l-95 132h114l74 -102h-33l104 102h113l-129 -132h-148z" />
    <glyph glyph-name="Zdotaccent" unicode="&#x17b;" horiz-adv-x="610" 
d="M-17 0l7 52l376 502h-282l19 132h521l-8 -52l-373 -501h311l-19 -133h-552zM292 755l17 122h124l-17 -122h-124z" />
    <glyph glyph-name="Cacute.loclPLK" horiz-adv-x="678" 
d="M304 -10q-75 0 -135.5 30t-95.5 86.5t-35 135.5q0 20 5.5 62t12.5 88q10 69 37 125t69.5 95.5t99.5 61t126 21.5h19q71 0 128 -25.5t90.5 -76t33.5 -126.5q0 -14 -1 -27.5t-3 -27.5h-159q3 16 4 26.5t1 21.5q0 35 -14 58t-39 35t-59 12q-42 0 -74 -17t-52.5 -50.5
t-28.5 -83.5q-7 -49 -11 -80.5t-6.5 -50t-3.5 -29t-1 -18.5q0 -37 14 -62.5t40 -39t62 -13.5q45 0 77 15.5t51.5 49t27.5 87.5h152q-13 -91 -55 -154t-108 -96t-152 -33h-17zM355 751l52 145h130l1 -3l-82 -142h-101z" />
    <glyph glyph-name="Nacute.loclPLK" horiz-adv-x="695" 
d="M27 0l97 686h142l173 -322l30 -61l3 1l53 382h154l-97 -686h-143l-171 318l-31 64l-3 -1l-54 -381h-153zM357 751l52 145h130l1 -3l-82 -142h-101z" />
    <glyph glyph-name="Oacute.loclPLK" horiz-adv-x="709" 
d="M294 -10q-73 0 -131 31.5t-91.5 88t-33.5 132.5q0 20 5.5 62t12.5 88q10 69 38.5 125t72.5 95.5t101.5 61t125.5 21.5h31q73 0 131 -31t91.5 -88t33.5 -133q0 -20 -5.5 -61.5t-12.5 -87.5q-9 -69 -38 -125t-73 -96t-101.5 -61.5t-125.5 -21.5h-31zM330 121q31 0 57.5 9.5
t46.5 28.5t33 47t18 66q7 49 11 80t6.5 49.5t3.5 29.5t1 19q0 37 -15 62.5t-41.5 39t-61.5 13.5q-31 0 -57.5 -9.5t-46.5 -28.5t-33 -47.5t-18 -65.5q-7 -49 -11 -80.5t-6.5 -50t-3.5 -29t-1 -18.5q0 -37 15 -63t41.5 -39t61.5 -13zM369 751l52 145h130l1 -3l-82 -142h-101z
" />
    <glyph glyph-name="Sacute.loclPLK" horiz-adv-x="642" 
d="M269 -10q-68 0 -125 18.5t-91 58.5t-34 104q0 14 1.5 29t4.5 27h157q-2 -5 -3 -14t-1 -15q0 -23 11.5 -40.5t36 -27t61.5 -9.5q50 0 79 10t42 28t13 41q0 24 -19 38.5t-49.5 24.5t-67.5 19t-74 22t-67.5 33.5t-49.5 52.5t-19 80q0 75 38 125t105.5 75.5t154.5 25.5
q67 0 122.5 -18t88.5 -56t33 -98q0 -7 -0.5 -17.5t-3.5 -25.5h-155q1 8 1.5 12.5t0.5 8.5q0 32 -26.5 50t-71.5 18q-38 0 -64.5 -8.5t-40.5 -24t-14 -37.5q0 -24 19 -39t50 -24.5t68.5 -18.5t74.5 -21.5t68 -32.5t50 -52t19 -80q0 -54 -21.5 -99t-62.5 -77t-101 -49
t-138 -17zM328 751l52 145h130l1 -3l-82 -142h-101z" />
    <glyph glyph-name="Zacute.loclPLK" horiz-adv-x="610" 
d="M-17 0l7 52l376 502h-282l19 132h521l-8 -52l-373 -501h311l-19 -133h-552zM312 751l52 145h130l1 -3l-82 -142h-101z" />
    <glyph glyph-name="uni026A" unicode="&#x26a;" horiz-adv-x="392" 
d="M-21 0l17 116h102l39 280h-102l16 115h362l-16 -115h-103l-39 -280h103l-17 -116h-362z" />
    <glyph glyph-name="Ismallstroke" unicode="&#x1d7b;" horiz-adv-x="283" 
d="M10 326h277l-16 -111h-277zM23 0l71 511h158l-71 -511h-158z" />
    <glyph glyph-name="a" unicode="a" horiz-adv-x="616" 
d="M199 -10q-57 0 -95.5 25t-57.5 70.5t-19 106.5q0 68 16 127.5t46.5 105t75.5 71t103 25.5q45 0 81.5 -19t57.5 -53h5l33 62h117q-7 -45 -15 -95.5t-15 -99.5t-12.5 -90.5t-9 -69.5t-3.5 -36q0 -12 6.5 -19t19.5 -7q10 0 21.5 4t18.5 9l-13 -95q-17 -9 -42.5 -15.5
t-50.5 -6.5q-30 0 -54 7.5t-39 24.5t-20 45q-28 -34 -68 -55.5t-87 -21.5zM258 94q29 0 50 13.5t34.5 37t18.5 54.5q9 64 12.5 91.5t3.5 37.5q0 41 -20 63.5t-56 22.5q-29 0 -50.5 -14t-35 -39t-18.5 -56q-8 -55 -11 -85t-3 -42q0 -39 19.5 -61.5t55.5 -22.5z" />
    <glyph glyph-name="aacute" unicode="&#xe1;" horiz-adv-x="616" 
d="M199 -10q-57 0 -95.5 25t-57.5 70.5t-19 106.5q0 68 16 127.5t46.5 105t75.5 71t103 25.5q45 0 81.5 -19t57.5 -53h5l33 62h117q-7 -45 -15 -95.5t-15 -99.5t-12.5 -90.5t-9 -69.5t-3.5 -36q0 -12 6.5 -19t19.5 -7q10 0 21.5 4t18.5 9l-13 -95q-17 -9 -42.5 -15.5
t-50.5 -6.5q-30 0 -54 7.5t-39 24.5t-20 45q-28 -34 -68 -55.5t-87 -21.5zM258 94q29 0 50 13.5t34.5 37t18.5 54.5q9 64 12.5 91.5t3.5 37.5q0 41 -20 63.5t-56 22.5q-29 0 -50.5 -14t-35 -39t-18.5 -56q-8 -55 -11 -85t-3 -42q0 -39 19.5 -61.5t55.5 -22.5zM280 586
l110 174h134l1 -3l-139 -171h-106z" />
    <glyph glyph-name="abreve" unicode="&#x103;" horiz-adv-x="616" 
d="M199 -10q-57 0 -95.5 25t-57.5 70.5t-19 106.5q0 68 16 127.5t46.5 105t75.5 71t103 25.5q45 0 81.5 -19t57.5 -53h5l33 62h117q-7 -45 -15 -95.5t-15 -99.5t-12.5 -90.5t-9 -69.5t-3.5 -36q0 -12 6.5 -19t19.5 -7q10 0 21.5 4t18.5 9l-13 -95q-17 -9 -42.5 -15.5
t-50.5 -6.5q-30 0 -54 7.5t-39 24.5t-20 45q-28 -34 -68 -55.5t-87 -21.5zM258 94q29 0 50 13.5t34.5 37t18.5 54.5q9 64 12.5 91.5t3.5 37.5q0 41 -20 63.5t-56 22.5q-29 0 -50.5 -14t-35 -39t-18.5 -56q-8 -55 -11 -85t-3 -42q0 -39 19.5 -61.5t55.5 -22.5zM338 588
q-60 0 -98 20.5t-54 55.5t-11 81h88q0 -39 20.5 -57.5t62.5 -18.5q44 0 69.5 18.5t38.5 57.5h87q-8 -46 -34 -81t-68 -55.5t-101 -20.5z" />
    <glyph glyph-name="uni1EAF" unicode="&#x1eaf;" horiz-adv-x="616" 
d="M199 -10q-57 0 -95.5 25t-57.5 70.5t-19 106.5q0 68 16 127.5t46.5 105t75.5 71t103 25.5q45 0 81.5 -19t57.5 -53h5l33 62h117q-7 -45 -15 -95.5t-15 -99.5t-12.5 -90.5t-9 -69.5t-3.5 -36q0 -12 6.5 -19t19.5 -7q10 0 21.5 4t18.5 9l-13 -95q-17 -9 -42.5 -15.5
t-50.5 -6.5q-30 0 -54 7.5t-39 24.5t-20 45q-28 -34 -68 -55.5t-87 -21.5zM258 94q29 0 50 13.5t34.5 37t18.5 54.5q9 64 12.5 91.5t3.5 37.5q0 41 -20 63.5t-56 22.5q-29 0 -50.5 -14t-35 -39t-18.5 -56q-8 -55 -11 -85t-3 -42q0 -39 19.5 -61.5t55.5 -22.5zM293 747
l113 145h127l1 -3l-141 -142h-100zM332 596q-62 0 -102.5 17.5t-58.5 48.5t-12 70h87q3 -28 25 -42t67 -14t71.5 14t37.5 42h87q-6 -39 -31 -70t-68.5 -48.5t-102.5 -17.5z" />
    <glyph glyph-name="uni1EB7" unicode="&#x1eb7;" horiz-adv-x="616" 
d="M199 -10q-57 0 -95.5 25t-57.5 70.5t-19 106.5q0 68 16 127.5t46.5 105t75.5 71t103 25.5q45 0 81.5 -19t57.5 -53h5l33 62h117q-7 -45 -15 -95.5t-15 -99.5t-12.5 -90.5t-9 -69.5t-3.5 -36q0 -12 6.5 -19t19.5 -7q10 0 21.5 4t18.5 9l-13 -95q-17 -9 -42.5 -15.5
t-50.5 -6.5q-30 0 -54 7.5t-39 24.5t-20 45q-28 -34 -68 -55.5t-87 -21.5zM258 94q29 0 50 13.5t34.5 37t18.5 54.5q9 64 12.5 91.5t3.5 37.5q0 41 -20 63.5t-56 22.5q-29 0 -50.5 -14t-35 -39t-18.5 -56q-8 -55 -11 -85t-3 -42q0 -39 19.5 -61.5t55.5 -22.5zM179 -206
l18 128h128l-18 -128h-128zM338 588q-60 0 -98 20.5t-54 55.5t-11 81h88q0 -39 20.5 -57.5t62.5 -18.5q44 0 69.5 18.5t38.5 57.5h87q-8 -46 -34 -81t-68 -55.5t-101 -20.5z" />
    <glyph glyph-name="uni1EB1" unicode="&#x1eb1;" horiz-adv-x="616" 
d="M199 -10q-57 0 -95.5 25t-57.5 70.5t-19 106.5q0 68 16 127.5t46.5 105t75.5 71t103 25.5q45 0 81.5 -19t57.5 -53h5l33 62h117q-7 -45 -15 -95.5t-15 -99.5t-12.5 -90.5t-9 -69.5t-3.5 -36q0 -12 6.5 -19t19.5 -7q10 0 21.5 4t18.5 9l-13 -95q-17 -9 -42.5 -15.5
t-50.5 -6.5q-30 0 -54 7.5t-39 24.5t-20 45q-28 -34 -68 -55.5t-87 -21.5zM258 94q29 0 50 13.5t34.5 37t18.5 54.5q9 64 12.5 91.5t3.5 37.5q0 41 -20 63.5t-56 22.5q-29 0 -50.5 -14t-35 -39t-18.5 -56q-8 -55 -11 -85t-3 -42q0 -39 19.5 -61.5t55.5 -22.5zM304 752
l-101 142l2 3h127l72 -145h-100zM332 601q-61 0 -102 17.5t-58.5 48.5t-12.5 70h88q2 -28 24.5 -42t66.5 -14q46 0 72.5 14t37.5 42h86q-5 -39 -30.5 -70t-68.5 -48.5t-103 -17.5z" />
    <glyph glyph-name="uni1EB3" unicode="&#x1eb3;" horiz-adv-x="616" 
d="M199 -10q-57 0 -95.5 25t-57.5 70.5t-19 106.5q0 68 16 127.5t46.5 105t75.5 71t103 25.5q45 0 81.5 -19t57.5 -53h5l33 62h117q-7 -45 -15 -95.5t-15 -99.5t-12.5 -90.5t-9 -69.5t-3.5 -36q0 -12 6.5 -19t19.5 -7q10 0 21.5 4t18.5 9l-13 -95q-17 -9 -42.5 -15.5
t-50.5 -6.5q-30 0 -54 7.5t-39 24.5t-20 45q-28 -34 -68 -55.5t-87 -21.5zM258 94q29 0 50 13.5t34.5 37t18.5 54.5q9 64 12.5 91.5t3.5 37.5q0 41 -20 63.5t-56 22.5q-29 0 -50.5 -14t-35 -39t-18.5 -56q-8 -55 -11 -85t-3 -42q0 -39 19.5 -61.5t55.5 -22.5zM328 752l8 57
q26 2 41.5 14t15.5 33q0 13 -10 20t-27 7q-11 0 -25.5 -2.5t-31.5 -7.5l11 74q16 5 31.5 6.5t29.5 1.5q42 0 69 -20t27 -58q0 -35 -21 -62.5t-52.5 -44t-65.5 -18.5zM332 601q-62 0 -102.5 17.5t-58.5 48.5t-12 70h87q3 -28 25 -42t67 -14t71.5 14t37.5 42h87
q-6 -39 -31 -70t-68.5 -48.5t-102.5 -17.5z" />
    <glyph glyph-name="uni1EB5" unicode="&#x1eb5;" horiz-adv-x="616" 
d="M199 -10q-57 0 -95.5 25t-57.5 70.5t-19 106.5q0 68 16 127.5t46.5 105t75.5 71t103 25.5q45 0 81.5 -19t57.5 -53h5l33 62h117q-7 -45 -15 -95.5t-15 -99.5t-12.5 -90.5t-9 -69.5t-3.5 -36q0 -12 6.5 -19t19.5 -7q10 0 21.5 4t18.5 9l-13 -95q-17 -9 -42.5 -15.5
t-50.5 -6.5q-30 0 -54 7.5t-39 24.5t-20 45q-28 -34 -68 -55.5t-87 -21.5zM258 94q29 0 50 13.5t34.5 37t18.5 54.5q9 64 12.5 91.5t3.5 37.5q0 41 -20 63.5t-56 22.5q-29 0 -50.5 -14t-35 -39t-18.5 -56q-8 -55 -11 -85t-3 -42q0 -39 19.5 -61.5t55.5 -22.5zM163 778
q5 35 23.5 64.5t47.5 46.5t65 17q33 0 55 -8.5t41.5 -17.5t44.5 -9q19 0 33.5 9.5t21.5 25.5h65q-4 -34 -22.5 -63.5t-47.5 -47t-66 -17.5q-32 0 -53.5 9t-41 18t-46.5 9q-19 0 -33 -9.5t-22 -26.5h-65zM331 601q-61 0 -102 17.5t-58.5 48.5t-12.5 70h88q2 -28 24.5 -42
t66.5 -14q46 0 72.5 14t37.5 42h86q-5 -39 -30.5 -70t-68.5 -48.5t-103 -17.5z" />
    <glyph glyph-name="uni01CE" unicode="&#x1ce;" horiz-adv-x="616" 
d="M199 -10q-57 0 -95.5 25t-57.5 70.5t-19 106.5q0 68 16 127.5t46.5 105t75.5 71t103 25.5q45 0 81.5 -19t57.5 -53h5l33 62h117q-7 -45 -15 -95.5t-15 -99.5t-12.5 -90.5t-9 -69.5t-3.5 -36q0 -12 6.5 -19t19.5 -7q10 0 21.5 4t18.5 9l-13 -95q-17 -9 -42.5 -15.5
t-50.5 -6.5q-30 0 -54 7.5t-39 24.5t-20 45q-28 -34 -68 -55.5t-87 -21.5zM258 94q29 0 50 13.5t34.5 37t18.5 54.5q9 64 12.5 91.5t3.5 37.5q0 41 -20 63.5t-56 22.5q-29 0 -50.5 -14t-35 -39t-18.5 -56q-8 -55 -11 -85t-3 -42q0 -39 19.5 -61.5t55.5 -22.5zM553 762
l-157 -179h-124l-107 179h114l92 -158h-71l136 158h117z" />
    <glyph glyph-name="acircumflex" unicode="&#xe2;" horiz-adv-x="616" 
d="M199 -10q-57 0 -95.5 25t-57.5 70.5t-19 106.5q0 68 16 127.5t46.5 105t75.5 71t103 25.5q45 0 81.5 -19t57.5 -53h5l33 62h117q-7 -45 -15 -95.5t-15 -99.5t-12.5 -90.5t-9 -69.5t-3.5 -36q0 -12 6.5 -19t19.5 -7q10 0 21.5 4t18.5 9l-13 -95q-17 -9 -42.5 -15.5
t-50.5 -6.5q-30 0 -54 7.5t-39 24.5t-20 45q-28 -34 -68 -55.5t-87 -21.5zM258 94q29 0 50 13.5t34.5 37t18.5 54.5q9 64 12.5 91.5t3.5 37.5q0 41 -20 63.5t-56 22.5q-29 0 -50.5 -14t-35 -39t-18.5 -56q-8 -55 -11 -85t-3 -42q0 -39 19.5 -61.5t55.5 -22.5zM143 581
l157 179h123l107 -179h-113l-95 158h77l-139 -158h-117z" />
    <glyph glyph-name="uni1EA5" unicode="&#x1ea5;" horiz-adv-x="616" 
d="M199 -10q-57 0 -95.5 25t-57.5 70.5t-19 106.5q0 68 16 127.5t46.5 105t75.5 71t103 25.5q45 0 81.5 -19t57.5 -53h5l33 62h117q-7 -45 -15 -95.5t-15 -99.5t-12.5 -90.5t-9 -69.5t-3.5 -36q0 -12 6.5 -19t19.5 -7q10 0 21.5 4t18.5 9l-13 -95q-17 -9 -42.5 -15.5
t-50.5 -6.5q-30 0 -54 7.5t-39 24.5t-20 45q-28 -34 -68 -55.5t-87 -21.5zM258 94q29 0 50 13.5t34.5 37t18.5 54.5q9 64 12.5 91.5t3.5 37.5q0 41 -20 63.5t-56 22.5q-29 0 -50.5 -14t-35 -39t-18.5 -56q-8 -55 -11 -85t-3 -42q0 -39 19.5 -61.5t55.5 -22.5zM305 782
l112 145h127l2 -3l-142 -142h-99zM135 591l157 146h109l118 -146h-103l-77 76l-97 -76h-107z" />
    <glyph glyph-name="uni1EAD" unicode="&#x1ead;" horiz-adv-x="616" 
d="M199 -10q-57 0 -95.5 25t-57.5 70.5t-19 106.5q0 68 16 127.5t46.5 105t75.5 71t103 25.5q45 0 81.5 -19t57.5 -53h5l33 62h117q-7 -45 -15 -95.5t-15 -99.5t-12.5 -90.5t-9 -69.5t-3.5 -36q0 -12 6.5 -19t19.5 -7q10 0 21.5 4t18.5 9l-13 -95q-17 -9 -42.5 -15.5
t-50.5 -6.5q-30 0 -54 7.5t-39 24.5t-20 45q-28 -34 -68 -55.5t-87 -21.5zM258 94q29 0 50 13.5t34.5 37t18.5 54.5q9 64 12.5 91.5t3.5 37.5q0 41 -20 63.5t-56 22.5q-29 0 -50.5 -14t-35 -39t-18.5 -56q-8 -55 -11 -85t-3 -42q0 -39 19.5 -61.5t55.5 -22.5zM179 -206
l18 128h128l-18 -128h-128zM143 581l157 179h123l107 -179h-113l-95 158h77l-139 -158h-117z" />
    <glyph glyph-name="uni1EA7" unicode="&#x1ea7;" horiz-adv-x="616" 
d="M199 -10q-57 0 -95.5 25t-57.5 70.5t-19 106.5q0 68 16 127.5t46.5 105t75.5 71t103 25.5q45 0 81.5 -19t57.5 -53h5l33 62h117q-7 -45 -15 -95.5t-15 -99.5t-12.5 -90.5t-9 -69.5t-3.5 -36q0 -12 6.5 -19t19.5 -7q10 0 21.5 4t18.5 9l-13 -95q-17 -9 -42.5 -15.5
t-50.5 -6.5q-30 0 -54 7.5t-39 24.5t-20 45q-28 -34 -68 -55.5t-87 -21.5zM258 94q29 0 50 13.5t34.5 37t18.5 54.5q9 64 12.5 91.5t3.5 37.5q0 41 -20 63.5t-56 22.5q-29 0 -50.5 -14t-35 -39t-18.5 -56q-8 -55 -11 -85t-3 -42q0 -39 19.5 -61.5t55.5 -22.5zM305 782
l-102 142l2 3h127l72 -145h-99zM136 591l158 146h108l118 -146h-103l-76 76l-98 -76h-107z" />
    <glyph glyph-name="uni1EA9" unicode="&#x1ea9;" horiz-adv-x="616" 
d="M199 -10q-57 0 -95.5 25t-57.5 70.5t-19 106.5q0 68 16 127.5t46.5 105t75.5 71t103 25.5q45 0 81.5 -19t57.5 -53h5l33 62h117q-7 -45 -15 -95.5t-15 -99.5t-12.5 -90.5t-9 -69.5t-3.5 -36q0 -12 6.5 -19t19.5 -7q10 0 21.5 4t18.5 9l-13 -95q-17 -9 -42.5 -15.5
t-50.5 -6.5q-30 0 -54 7.5t-39 24.5t-20 45q-28 -34 -68 -55.5t-87 -21.5zM258 94q29 0 50 13.5t34.5 37t18.5 54.5q9 64 12.5 91.5t3.5 37.5q0 41 -20 63.5t-56 22.5q-29 0 -50.5 -14t-35 -39t-18.5 -56q-8 -55 -11 -85t-3 -42q0 -39 19.5 -61.5t55.5 -22.5zM333 778l8 56
q26 3 41.5 15.5t15.5 32.5q0 14 -9.5 20.5t-27.5 6.5q-11 0 -25.5 -2.5t-31.5 -7.5l10 74q16 5 31.5 6.5t29.5 1.5q42 0 69 -20t27 -58q0 -36 -21 -63.5t-52.5 -43.5t-64.5 -18zM136 591l157 146h109l118 -146h-103l-77 76l-97 -76h-107z" />
    <glyph glyph-name="uni1EAB" unicode="&#x1eab;" horiz-adv-x="616" 
d="M199 -10q-57 0 -95.5 25t-57.5 70.5t-19 106.5q0 68 16 127.5t46.5 105t75.5 71t103 25.5q45 0 81.5 -19t57.5 -53h5l33 62h117q-7 -45 -15 -95.5t-15 -99.5t-12.5 -90.5t-9 -69.5t-3.5 -36q0 -12 6.5 -19t19.5 -7q10 0 21.5 4t18.5 9l-13 -95q-17 -9 -42.5 -15.5
t-50.5 -6.5q-30 0 -54 7.5t-39 24.5t-20 45q-28 -34 -68 -55.5t-87 -21.5zM258 94q29 0 50 13.5t34.5 37t18.5 54.5q9 64 12.5 91.5t3.5 37.5q0 41 -20 63.5t-56 22.5q-29 0 -50.5 -14t-35 -39t-18.5 -56q-8 -55 -11 -85t-3 -42q0 -39 19.5 -61.5t55.5 -22.5zM163 776
q5 35 23 64t47.5 46.5t65.5 17.5q33 0 55 -9t41.5 -18t44.5 -9q19 0 33.5 9.5t21.5 26.5h65q-5 -35 -23 -64t-47 -46.5t-66 -17.5q-32 0 -53.5 8.5t-40.5 17.5t-46 10q-20 0 -34 -10t-22 -26h-65zM135 591l158 146h108l118 -146h-103l-76 76l-98 -76h-107z" />
    <glyph glyph-name="uni0201" unicode="&#x201;" horiz-adv-x="616" 
d="M199 -10q-57 0 -95.5 25t-57.5 70.5t-19 106.5q0 68 16 127.5t46.5 105t75.5 71t103 25.5q45 0 81.5 -19t57.5 -53h5l33 62h117q-7 -45 -15 -95.5t-15 -99.5t-12.5 -90.5t-9 -69.5t-3.5 -36q0 -12 6.5 -19t19.5 -7q10 0 21.5 4t18.5 9l-13 -95q-17 -9 -42.5 -15.5
t-50.5 -6.5q-30 0 -54 7.5t-39 24.5t-20 45q-28 -34 -68 -55.5t-87 -21.5zM258 94q29 0 50 13.5t34.5 37t18.5 54.5q9 64 12.5 91.5t3.5 37.5q0 41 -20 63.5t-56 22.5q-29 0 -50.5 -14t-35 -39t-18.5 -56q-8 -55 -11 -85t-3 -42q0 -39 19.5 -61.5t55.5 -22.5zM383 592
l-102 142l4 3h127l73 -145h-102zM187 592l-102 142l2 3h129l72 -145h-101z" />
    <glyph glyph-name="adieresis" unicode="&#xe4;" horiz-adv-x="616" 
d="M199 -10q-57 0 -95.5 25t-57.5 70.5t-19 106.5q0 68 16 127.5t46.5 105t75.5 71t103 25.5q45 0 81.5 -19t57.5 -53h5l33 62h117q-7 -45 -15 -95.5t-15 -99.5t-12.5 -90.5t-9 -69.5t-3.5 -36q0 -12 6.5 -19t19.5 -7q10 0 21.5 4t18.5 9l-13 -95q-17 -9 -42.5 -15.5
t-50.5 -6.5q-30 0 -54 7.5t-39 24.5t-20 45q-28 -34 -68 -55.5t-87 -21.5zM258 94q29 0 50 13.5t34.5 37t18.5 54.5q9 64 12.5 91.5t3.5 37.5q0 41 -20 63.5t-56 22.5q-29 0 -50.5 -14t-35 -39t-18.5 -56q-8 -55 -11 -85t-3 -42q0 -39 19.5 -61.5t55.5 -22.5zM133 596
l18 134h151l-19 -134h-150zM394 596l18 134h151l-19 -134h-150z" />
    <glyph glyph-name="uni1EA1" unicode="&#x1ea1;" horiz-adv-x="616" 
d="M199 -10q-57 0 -95.5 25t-57.5 70.5t-19 106.5q0 68 16 127.5t46.5 105t75.5 71t103 25.5q45 0 81.5 -19t57.5 -53h5l33 62h117q-7 -45 -15 -95.5t-15 -99.5t-12.5 -90.5t-9 -69.5t-3.5 -36q0 -12 6.5 -19t19.5 -7q10 0 21.5 4t18.5 9l-13 -95q-17 -9 -42.5 -15.5
t-50.5 -6.5q-30 0 -54 7.5t-39 24.5t-20 45q-28 -34 -68 -55.5t-87 -21.5zM258 94q29 0 50 13.5t34.5 37t18.5 54.5q9 64 12.5 91.5t3.5 37.5q0 41 -20 63.5t-56 22.5q-29 0 -50.5 -14t-35 -39t-18.5 -56q-8 -55 -11 -85t-3 -42q0 -39 19.5 -61.5t55.5 -22.5zM179 -206
l18 128h128l-18 -128h-128z" />
    <glyph glyph-name="agrave" unicode="&#xe0;" horiz-adv-x="616" 
d="M199 -10q-57 0 -95.5 25t-57.5 70.5t-19 106.5q0 68 16 127.5t46.5 105t75.5 71t103 25.5q45 0 81.5 -19t57.5 -53h5l33 62h117q-7 -45 -15 -95.5t-15 -99.5t-12.5 -90.5t-9 -69.5t-3.5 -36q0 -12 6.5 -19t19.5 -7q10 0 21.5 4t18.5 9l-13 -95q-17 -9 -42.5 -15.5
t-50.5 -6.5q-30 0 -54 7.5t-39 24.5t-20 45q-28 -34 -68 -55.5t-87 -21.5zM258 94q29 0 50 13.5t34.5 37t18.5 54.5q9 64 12.5 91.5t3.5 37.5q0 41 -20 63.5t-56 22.5q-29 0 -50.5 -14t-35 -39t-18.5 -56q-8 -55 -11 -85t-3 -42q0 -39 19.5 -61.5t55.5 -22.5zM274 586
l-90 171l2 3h127l60 -174h-99z" />
    <glyph glyph-name="uni1EA3" unicode="&#x1ea3;" horiz-adv-x="616" 
d="M199 -10q-57 0 -95.5 25t-57.5 70.5t-19 106.5q0 68 16 127.5t46.5 105t75.5 71t103 25.5q45 0 81.5 -19t57.5 -53h5l33 62h117q-7 -45 -15 -95.5t-15 -99.5t-12.5 -90.5t-9 -69.5t-3.5 -36q0 -12 6.5 -19t19.5 -7q10 0 21.5 4t18.5 9l-13 -95q-17 -9 -42.5 -15.5
t-50.5 -6.5q-30 0 -54 7.5t-39 24.5t-20 45q-28 -34 -68 -55.5t-87 -21.5zM258 94q29 0 50 13.5t34.5 37t18.5 54.5q9 64 12.5 91.5t3.5 37.5q0 41 -20 63.5t-56 22.5q-29 0 -50.5 -14t-35 -39t-18.5 -56q-8 -55 -11 -85t-3 -42q0 -39 19.5 -61.5t55.5 -22.5zM303 570l10 70
q31 3 50 17.5t19 39.5q0 16 -11.5 24.5t-33.5 8.5q-13 0 -31 -2.5t-39 -9.5l13 91q20 6 39 8t37 2q52 0 84.5 -24.5t32.5 -70.5q0 -43 -25 -77.5t-64 -54.5t-81 -22z" />
    <glyph glyph-name="uni0203" unicode="&#x203;" horiz-adv-x="616" 
d="M199 -10q-57 0 -95.5 25t-57.5 70.5t-19 106.5q0 68 16 127.5t46.5 105t75.5 71t103 25.5q45 0 81.5 -19t57.5 -53h5l33 62h117q-7 -45 -15 -95.5t-15 -99.5t-12.5 -90.5t-9 -69.5t-3.5 -36q0 -12 6.5 -19t19.5 -7q10 0 21.5 4t18.5 9l-13 -95q-17 -9 -42.5 -15.5
t-50.5 -6.5q-30 0 -54 7.5t-39 24.5t-20 45q-28 -34 -68 -55.5t-87 -21.5zM258 94q29 0 50 13.5t34.5 37t18.5 54.5q9 64 12.5 91.5t3.5 37.5q0 41 -20 63.5t-56 22.5q-29 0 -50.5 -14t-35 -39t-18.5 -56q-8 -55 -11 -85t-3 -42q0 -39 19.5 -61.5t55.5 -22.5zM139 596
q6 39 31 70t68.5 48.5t102.5 17.5q62 0 102.5 -17.5t58.5 -48.5t12 -70h-87q-3 28 -24.5 42t-67.5 14q-45 0 -71.5 -14t-37.5 -42h-87z" />
    <glyph glyph-name="amacron" unicode="&#x101;" horiz-adv-x="616" 
d="M199 -10q-57 0 -95.5 25t-57.5 70.5t-19 106.5q0 68 16 127.5t46.5 105t75.5 71t103 25.5q45 0 81.5 -19t57.5 -53h5l33 62h117q-7 -45 -15 -95.5t-15 -99.5t-12.5 -90.5t-9 -69.5t-3.5 -36q0 -12 6.5 -19t19.5 -7q10 0 21.5 4t18.5 9l-13 -95q-17 -9 -42.5 -15.5
t-50.5 -6.5q-30 0 -54 7.5t-39 24.5t-20 45q-28 -34 -68 -55.5t-87 -21.5zM258 94q29 0 50 13.5t34.5 37t18.5 54.5q9 64 12.5 91.5t3.5 37.5q0 41 -20 63.5t-56 22.5q-29 0 -50.5 -14t-35 -39t-18.5 -56q-8 -55 -11 -85t-3 -42q0 -39 19.5 -61.5t55.5 -22.5zM168 613l12 83
h343l-12 -83h-343z" />
    <glyph glyph-name="aogonek" unicode="&#x105;" horiz-adv-x="616" 
d="M199 -10q-57 0 -95.5 25t-57.5 70.5t-19 106.5q0 68 16 127.5t46.5 105t75.5 71t103 25.5q45 0 81.5 -19t57.5 -53h5l33 62h117q-7 -45 -15 -95.5t-15 -99.5t-12.5 -90.5t-9 -69.5t-3.5 -36q0 -12 6.5 -19t19.5 -7q10 0 21.5 4t18.5 9l-13 -95q-17 -9 -42.5 -15.5
t-50.5 -6.5q-30 0 -54 7.5t-39 24.5t-20 45q-28 -34 -68 -55.5t-87 -21.5zM258 94q29 0 50 13.5t34.5 37t18.5 54.5q9 64 12.5 91.5t3.5 37.5q0 41 -20 63.5t-56 22.5q-29 0 -50.5 -14t-35 -39t-18.5 -56q-8 -55 -11 -85t-3 -42q0 -39 19.5 -61.5t55.5 -22.5zM485 -143
q-36 0 -64 14.5t-28 49.5q0 28 17 49t38 33h91q-23 -12 -37.5 -26.5t-14.5 -34.5q0 -15 10.5 -21t24.5 -6q15 0 31.5 4t31.5 9l7 -44q-24 -13 -52 -20t-55 -7z" />
    <glyph glyph-name="aring" unicode="&#xe5;" horiz-adv-x="616" 
d="M199 -10q-57 0 -95.5 25t-57.5 70.5t-19 106.5q0 68 16 127.5t46.5 105t75.5 71t103 25.5q45 0 81.5 -19t57.5 -53h5l33 62h117q-7 -45 -15 -95.5t-15 -99.5t-12.5 -90.5t-9 -69.5t-3.5 -36q0 -12 6.5 -19t19.5 -7q10 0 21.5 4t18.5 9l-13 -95q-17 -9 -42.5 -15.5
t-50.5 -6.5q-30 0 -54 7.5t-39 24.5t-20 45q-28 -34 -68 -55.5t-87 -21.5zM258 94q29 0 50 13.5t34.5 37t18.5 54.5q9 64 12.5 91.5t3.5 37.5q0 41 -20 63.5t-56 22.5q-29 0 -50.5 -14t-35 -39t-18.5 -56q-8 -55 -11 -85t-3 -42q0 -39 19.5 -61.5t55.5 -22.5zM334 582
q-41 0 -66.5 23t-25.5 62q0 35 17 62.5t45 43t61 15.5q41 0 66 -23.5t25 -62.5q0 -35 -16.5 -62t-44.5 -42.5t-61 -15.5zM343 643q21 0 34 15t13 34q0 15 -9.5 24.5t-25.5 9.5q-20 0 -33.5 -14.5t-13.5 -34.5q0 -15 9.5 -24.5t25.5 -9.5z" />
    <glyph glyph-name="aringacute" unicode="&#x1fb;" horiz-adv-x="616" 
d="M199 -10q-57 0 -95.5 25t-57.5 70.5t-19 106.5q0 68 16 127.5t46.5 105t75.5 71t103 25.5q45 0 81.5 -19t57.5 -53h5l33 62h117q-7 -45 -15 -95.5t-15 -99.5t-12.5 -90.5t-9 -69.5t-3.5 -36q0 -12 6.5 -19t19.5 -7q10 0 21.5 4t18.5 9l-13 -95q-17 -9 -42.5 -15.5
t-50.5 -6.5q-30 0 -54 7.5t-39 24.5t-20 45q-28 -34 -68 -55.5t-87 -21.5zM258 94q29 0 50 13.5t34.5 37t18.5 54.5q9 64 12.5 91.5t3.5 37.5q0 41 -20 63.5t-56 22.5q-29 0 -50.5 -14t-35 -39t-18.5 -56q-8 -55 -11 -85t-3 -42q0 -39 19.5 -61.5t55.5 -22.5zM316 830
l83 131h109l2 -2l-110 -129h-84zM318 582q-41 0 -66.5 23t-25.5 62q0 35 17 62.5t45 43t61 15.5q41 0 66 -23.5t25 -62.5q0 -35 -16.5 -62t-44.5 -42.5t-61 -15.5zM327 643q21 0 34 15t13 34q0 15 -9.5 24.5t-25.5 9.5q-20 0 -33.5 -14.5t-13.5 -34.5q0 -15 9.5 -24.5
t25.5 -9.5z" />
    <glyph glyph-name="atilde" unicode="&#xe3;" horiz-adv-x="616" 
d="M199 -10q-57 0 -95.5 25t-57.5 70.5t-19 106.5q0 68 16 127.5t46.5 105t75.5 71t103 25.5q45 0 81.5 -19t57.5 -53h5l33 62h117q-7 -45 -15 -95.5t-15 -99.5t-12.5 -90.5t-9 -69.5t-3.5 -36q0 -12 6.5 -19t19.5 -7q10 0 21.5 4t18.5 9l-13 -95q-17 -9 -42.5 -15.5
t-50.5 -6.5q-30 0 -54 7.5t-39 24.5t-20 45q-28 -34 -68 -55.5t-87 -21.5zM258 94q29 0 50 13.5t34.5 37t18.5 54.5q9 64 12.5 91.5t3.5 37.5q0 41 -20 63.5t-56 22.5q-29 0 -50.5 -14t-35 -39t-18.5 -56q-8 -55 -11 -85t-3 -42q0 -39 19.5 -61.5t55.5 -22.5zM133 591
q9 42 27.5 77.5t46.5 56t66 20.5q37 0 63.5 -14t48.5 -28.5t45 -14.5t37.5 15.5t23.5 42.5h69q-8 -42 -26.5 -77.5t-46.5 -56.5t-66 -21q-37 0 -64.5 14.5t-49.5 29t-45 14.5q-22 0 -36 -15.5t-24 -42.5h-69z" />
    <glyph glyph-name="ae" unicode="&#xe6;" horiz-adv-x="915" 
d="M177 -10q-29 0 -58 5.5t-53.5 19.5t-39 40t-14.5 66q0 61 27 98.5t75.5 58t115 28t146.5 7.5q3 15 4 25t1.5 16t0.5 8q0 17 -7.5 30t-24 21t-44.5 8q-38 0 -62.5 -17.5t-30.5 -49.5h-152q0 48 32.5 85.5t89 59.5t129.5 22h24q56 0 95.5 -12t63.5 -33q69 45 162 45h18
q66 0 111.5 -23t69.5 -64.5t24 -97.5q0 -20 -2.5 -44t-8.5 -61h-343q-5 -45 -0.5 -75.5t24 -46t59.5 -15.5q27 0 46.5 9t32 23.5t19 32t8.5 32.5h147q-8 -58 -43 -103.5t-91.5 -71.5t-129.5 -26h-10q-64 0 -112.5 22t-77.5 63q-26 -27 -60.5 -46t-75 -29t-85.5 -10zM248 94
q25 0 49 12t41 34.5t21 53.5l5 35q-45 0 -80 -5.5t-58.5 -15.5t-35.5 -26.5t-12 -38.5q0 -30 19.5 -39.5t50.5 -9.5zM539 313h185q5 48 -12 76.5t-63 28.5q-43 0 -72 -26.5t-38 -78.5z" />
    <glyph glyph-name="aeacute" unicode="&#x1fd;" horiz-adv-x="915" 
d="M177 -10q-29 0 -58 5.5t-53.5 19.5t-39 40t-14.5 66q0 61 27 98.5t75.5 58t115 28t146.5 7.5q3 15 4 25t1.5 16t0.5 8q0 17 -7.5 30t-24 21t-44.5 8q-38 0 -62.5 -17.5t-30.5 -49.5h-152q0 48 32.5 85.5t89 59.5t129.5 22h24q56 0 95.5 -12t63.5 -33q69 45 162 45h18
q66 0 111.5 -23t69.5 -64.5t24 -97.5q0 -20 -2.5 -44t-8.5 -61h-343q-5 -45 -0.5 -75.5t24 -46t59.5 -15.5q27 0 46.5 9t32 23.5t19 32t8.5 32.5h147q-8 -58 -43 -103.5t-91.5 -71.5t-129.5 -26h-10q-64 0 -112.5 22t-77.5 63q-26 -27 -60.5 -46t-75 -29t-85.5 -10zM248 94
q25 0 49 12t41 34.5t21 53.5l5 35q-45 0 -80 -5.5t-58.5 -15.5t-35.5 -26.5t-12 -38.5q0 -30 19.5 -39.5t50.5 -9.5zM539 313h185q5 48 -12 76.5t-63 28.5q-43 0 -72 -26.5t-38 -78.5zM454 586l110 174h134l1 -3l-139 -171h-106z" />
    <glyph glyph-name="b" unicode="b" horiz-adv-x="594" 
d="M298 -10q-110 0 -157 88l-65 -78h-56l100 720h158l-38 -266q22 23 60 45t91 22q71 0 117.5 -47t46.5 -145q0 -59 -14.5 -119t-45.5 -109.5t-79.5 -80t-117.5 -30.5zM277 94q31 0 52 13t34.5 36t17.5 53q8 51 12 85t4 48q0 42 -19 63.5t-55 21.5q-27 0 -48.5 -13.5
t-36 -37t-19.5 -54.5q-8 -57 -12 -87t-4 -46q0 -26 8.5 -44.5t25 -28t40.5 -9.5z" />
    <glyph glyph-name="c" unicode="c" horiz-adv-x="562" 
d="M245 -10q-65 0 -114 26.5t-76 74.5t-27 111q0 64 18 121.5t53.5 102t89 70t123.5 25.5h17q62 0 107.5 -22t71 -62.5t25.5 -95.5v-16.5t-2 -17.5h-143l2 16t1 16q0 35 -20 56.5t-56 21.5q-30 0 -53 -12.5t-37 -35.5t-19 -54q-7 -44 -11.5 -79t-4.5 -54q0 -36 19.5 -62
t62.5 -26q30 0 53 12t37.5 36.5t18.5 61.5h135q-10 -69 -45 -117t-89 -72.5t-120 -24.5h-17z" />
    <glyph glyph-name="cacute" unicode="&#x107;" horiz-adv-x="562" 
d="M245 -10q-65 0 -114 26.5t-76 74.5t-27 111q0 64 18 121.5t53.5 102t89 70t123.5 25.5h17q62 0 107.5 -22t71 -62.5t25.5 -95.5v-16.5t-2 -17.5h-143l2 16t1 16q0 35 -20 56.5t-56 21.5q-30 0 -53 -12.5t-37 -35.5t-19 -54q-7 -44 -11.5 -79t-4.5 -54q0 -36 19.5 -62
t62.5 -26q30 0 53 12t37.5 36.5t18.5 61.5h135q-10 -69 -45 -117t-89 -72.5t-120 -24.5h-17zM264 586l110 174h134l1 -3l-139 -171h-106z" />
    <glyph glyph-name="ccaron" unicode="&#x10d;" horiz-adv-x="562" 
d="M245 -10q-65 0 -114 26.5t-76 74.5t-27 111q0 64 18 121.5t53.5 102t89 70t123.5 25.5h17q62 0 107.5 -22t71 -62.5t25.5 -95.5v-16.5t-2 -17.5h-143l2 16t1 16q0 35 -20 56.5t-56 21.5q-30 0 -53 -12.5t-37 -35.5t-19 -54q-7 -44 -11.5 -79t-4.5 -54q0 -36 19.5 -62
t62.5 -26q30 0 53 12t37.5 36.5t18.5 61.5h135q-10 -69 -45 -117t-89 -72.5t-120 -24.5h-17zM537 762l-157 -179h-124l-107 179h114l92 -158h-71l136 158h117z" />
    <glyph glyph-name="ccedilla" unicode="&#xe7;" horiz-adv-x="562" 
d="M245 -10q-65 0 -114 26.5t-76 74.5t-27 111q0 64 18 121.5t53.5 102t89 70t123.5 25.5h17q62 0 107.5 -22t71 -62.5t25.5 -95.5v-16.5t-2 -17.5h-143l2 16t1 16q0 35 -20 56.5t-56 21.5q-30 0 -53 -12.5t-37 -35.5t-19 -54q-7 -44 -11.5 -79t-4.5 -54q0 -36 19.5 -62
t62.5 -26q30 0 53 12t37.5 36.5t18.5 61.5h135q-10 -69 -45 -117t-89 -72.5t-120 -24.5h-17zM211 -210q-29 0 -57 7.5t-47 21.5l31 56q12 -10 30 -18t46 -8q14 0 25.5 4t19 12.5t7.5 22.5q0 15 -8.5 20.5t-24.5 5.5h-22l9 56h34q37 0 66 -16.5t29 -55.5q0 -40 -22.5 -64
t-54 -34t-61.5 -10z" />
    <glyph glyph-name="ccircumflex" unicode="&#x109;" horiz-adv-x="562" 
d="M245 -10q-65 0 -114 26.5t-76 74.5t-27 111q0 64 18 121.5t53.5 102t89 70t123.5 25.5h17q62 0 107.5 -22t71 -62.5t25.5 -95.5v-16.5t-2 -17.5h-143l2 16t1 16q0 35 -20 56.5t-56 21.5q-30 0 -53 -12.5t-37 -35.5t-19 -54q-7 -44 -11.5 -79t-4.5 -54q0 -36 19.5 -62
t62.5 -26q30 0 53 12t37.5 36.5t18.5 61.5h135q-10 -69 -45 -117t-89 -72.5t-120 -24.5h-17zM127 581l157 179h123l107 -179h-113l-95 158h77l-139 -158h-117z" />
    <glyph glyph-name="cdotaccent" unicode="&#x10b;" horiz-adv-x="562" 
d="M245 -10q-65 0 -114 26.5t-76 74.5t-27 111q0 64 18 121.5t53.5 102t89 70t123.5 25.5h17q62 0 107.5 -22t71 -62.5t25.5 -95.5v-16.5t-2 -17.5h-143l2 16t1 16q0 35 -20 56.5t-56 21.5q-30 0 -53 -12.5t-37 -35.5t-19 -54q-7 -44 -11.5 -79t-4.5 -54q0 -36 19.5 -62
t62.5 -26q30 0 53 12t37.5 36.5t18.5 61.5h135q-10 -69 -45 -117t-89 -72.5t-120 -24.5h-17zM244 606l16 116h155l-16 -116h-155z" />
    <glyph glyph-name="d" unicode="d" horiz-adv-x="624" 
d="M199 -10q-77 0 -124.5 49.5t-47.5 152.5q0 64 15 123t45 105.5t74.5 73.5t104.5 27q53 0 85 -20t46 -47l37 266h158q-10 -67 -19.5 -130.5t-17.5 -121t-15.5 -108t-13.5 -92t-10 -72.5t-6 -50.5t-2 -24.5q0 -13 6.5 -20t18.5 -7q10 0 21.5 4t19.5 9l-14 -95
q-17 -9 -42 -15.5t-51 -6.5q-30 0 -53.5 7.5t-38.5 24t-20 43.5q-29 -33 -66.5 -54t-89.5 -21zM258 94q29 0 50 13.5t35 37t19 54.5q9 64 12.5 91.5t3.5 37.5q0 41 -20 63.5t-57 22.5q-29 0 -50.5 -14t-34.5 -39t-18 -56q-8 -55 -11 -85t-3 -42q0 -39 19 -61.5t55 -22.5z
" />
    <glyph glyph-name="eth" unicode="&#xf0;" horiz-adv-x="604" 
d="M245 -10q-66 0 -115.5 25.5t-77 72.5t-27.5 111q0 63 18.5 119.5t53.5 101t84 70.5t109 26q14 0 27 -1.5t23 -5.5q-6 11 -17 25.5t-24 29.5t-25 26l-84 -36l-44 44l88 39q-17 17 -38 31t-39 24l100 43q22 -9 43.5 -21t43.5 -27l85 37l40 -44l-74 -33q49 -45 86.5 -98
t58.5 -112t21 -121q0 -95 -36 -168.5t-101.5 -115.5t-155.5 -42h-23zM270 94q38 0 67 23.5t39 62.5q13 64 18.5 96t5.5 54q0 41 -24 64t-62 23q-44 0 -71.5 -27.5t-37.5 -71.5q-4 -23 -8.5 -48.5t-7 -48t-2.5 -36.5q0 -43 22 -67t61 -24z" />
    <glyph glyph-name="dcaron" unicode="&#x10f;" horiz-adv-x="692" 
d="M634 404l50 138h-62l20 143h143l-17 -121l-63 -160h-71zM199 -10q-77 0 -124.5 49.5t-47.5 152.5q0 64 15 123t45 105.5t74.5 73.5t104.5 27q53 0 85 -20t46 -47l37 266h158q-10 -67 -19.5 -130.5t-17.5 -121t-15.5 -108t-13.5 -92t-10 -72.5t-6 -50.5t-2 -24.5
q0 -13 6.5 -20t18.5 -7q10 0 21.5 4t19.5 9l-14 -95q-17 -9 -42 -15.5t-51 -6.5q-30 0 -53.5 7.5t-38.5 24t-20 43.5q-29 -33 -66.5 -54t-89.5 -21zM258 94q29 0 50 13.5t35 37t19 54.5q9 64 12.5 91.5t3.5 37.5q0 41 -20 63.5t-57 22.5q-29 0 -50.5 -14t-34.5 -39t-18 -56
q-8 -55 -11 -85t-3 -42q0 -39 19 -61.5t55 -22.5z" />
    <glyph glyph-name="dcroat" unicode="&#x111;" horiz-adv-x="624" 
d="M199 -10q-77 0 -124.5 49.5t-47.5 152.5q0 64 15 123t45 105.5t74.5 73.5t104.5 27q53 0 85 -20t46 -47l37 266h158q-10 -67 -19.5 -130.5t-17.5 -121t-15.5 -108t-13.5 -92t-10 -72.5t-6 -50.5t-2 -24.5q0 -13 6.5 -20t18.5 -7q10 0 21.5 4t19.5 9l-14 -95
q-17 -9 -42 -15.5t-51 -6.5q-30 0 -53.5 7.5t-38.5 24t-20 43.5q-29 -33 -66.5 -54t-89.5 -21zM258 94q29 0 50 13.5t35 37t19 54.5q9 64 12.5 91.5t3.5 37.5q0 41 -20 63.5t-57 22.5q-29 0 -50.5 -14t-34.5 -39t-18 -56q-8 -55 -11 -85t-3 -42q0 -39 19 -61.5t55 -22.5z
M264 563l15 108h370l-16 -108h-369z" />
    <glyph glyph-name="uni01C6" unicode="&#x1c6;" horiz-adv-x="1109" 
d="M199 -10q-77 0 -124.5 49.5t-47.5 152.5q0 64 15 123t45 105.5t74.5 73.5t104.5 27q53 0 85 -20t46 -47l37 266h158q-10 -67 -19.5 -130.5t-17.5 -121t-15.5 -108t-13.5 -92t-10 -72.5t-6 -50.5t-2 -24.5q0 -13 6.5 -20t18.5 -7q10 0 21.5 4t19.5 9l-14 -95
q-17 -9 -42 -15.5t-51 -6.5q-30 0 -53.5 7.5t-38.5 24t-20 43.5q-29 -33 -66.5 -54t-89.5 -21zM258 94q29 0 50 13.5t35 37t19 54.5q9 64 12.5 91.5t3.5 37.5q0 41 -20 63.5t-57 22.5q-29 0 -50.5 -14t-34.5 -39t-18 -56q-8 -55 -11 -85t-3 -42q0 -39 19 -61.5t55 -22.5z
M614 0l7 54l261 352h-199l14 105h407l-7 -51l-262 -354h220l-14 -106h-427zM1126 762l-157 -179h-124l-107 179h114l92 -158h-71l136 158h117z" />
    <glyph glyph-name="e" unicode="e" horiz-adv-x="585" 
d="M257 -10q-71 0 -122.5 26.5t-79 74t-27.5 112.5q0 62 18 119t54 102t91.5 71t130.5 26h18q64 0 111.5 -23t73.5 -64.5t26 -97.5q0 -15 -1.5 -30.5t-4 -33.5t-6.5 -41h-345q-2 -12 -3.5 -25.5t-1.5 -23.5q0 -40 23 -64t66 -24q34 0 56.5 14t34.5 36.5t16 46.5h147
q-8 -60 -43.5 -105.5t-91.5 -70.5t-127 -25h-13zM206 313h187q2 8 2.5 14.5t0.5 14.5q0 35 -21 55t-58 20q-41 0 -71.5 -26.5t-39.5 -77.5z" />
    <glyph glyph-name="eacute" unicode="&#xe9;" horiz-adv-x="585" 
d="M257 -10q-71 0 -122.5 26.5t-79 74t-27.5 112.5q0 62 18 119t54 102t91.5 71t130.5 26h18q64 0 111.5 -23t73.5 -64.5t26 -97.5q0 -15 -1.5 -30.5t-4 -33.5t-6.5 -41h-345q-2 -12 -3.5 -25.5t-1.5 -23.5q0 -40 23 -64t66 -24q34 0 56.5 14t34.5 36.5t16 46.5h147
q-8 -60 -43.5 -105.5t-91.5 -70.5t-127 -25h-13zM206 313h187q2 8 2.5 14.5t0.5 14.5q0 35 -21 55t-58 20q-41 0 -71.5 -26.5t-39.5 -77.5zM275 586l110 174h134l1 -3l-139 -171h-106z" />
    <glyph glyph-name="ebreve" unicode="&#x115;" horiz-adv-x="585" 
d="M257 -10q-71 0 -122.5 26.5t-79 74t-27.5 112.5q0 62 18 119t54 102t91.5 71t130.5 26h18q64 0 111.5 -23t73.5 -64.5t26 -97.5q0 -15 -1.5 -30.5t-4 -33.5t-6.5 -41h-345q-2 -12 -3.5 -25.5t-1.5 -23.5q0 -40 23 -64t66 -24q34 0 56.5 14t34.5 36.5t16 46.5h147
q-8 -60 -43.5 -105.5t-91.5 -70.5t-127 -25h-13zM206 313h187q2 8 2.5 14.5t0.5 14.5q0 35 -21 55t-58 20q-41 0 -71.5 -26.5t-39.5 -77.5zM333 588q-60 0 -98 20.5t-54 55.5t-11 81h88q0 -39 20.5 -57.5t62.5 -18.5q44 0 69.5 18.5t38.5 57.5h87q-8 -46 -34 -81t-68 -55.5
t-101 -20.5z" />
    <glyph glyph-name="ecaron" unicode="&#x11b;" horiz-adv-x="585" 
d="M257 -10q-71 0 -122.5 26.5t-79 74t-27.5 112.5q0 62 18 119t54 102t91.5 71t130.5 26h18q64 0 111.5 -23t73.5 -64.5t26 -97.5q0 -15 -1.5 -30.5t-4 -33.5t-6.5 -41h-345q-2 -12 -3.5 -25.5t-1.5 -23.5q0 -40 23 -64t66 -24q34 0 56.5 14t34.5 36.5t16 46.5h147
q-8 -60 -43.5 -105.5t-91.5 -70.5t-127 -25h-13zM206 313h187q2 8 2.5 14.5t0.5 14.5q0 35 -21 55t-58 20q-41 0 -71.5 -26.5t-39.5 -77.5zM548 762l-157 -179h-124l-107 179h114l92 -158h-71l136 158h117z" />
    <glyph glyph-name="ecircumflex" unicode="&#xea;" horiz-adv-x="585" 
d="M257 -10q-71 0 -122.5 26.5t-79 74t-27.5 112.5q0 62 18 119t54 102t91.5 71t130.5 26h18q64 0 111.5 -23t73.5 -64.5t26 -97.5q0 -15 -1.5 -30.5t-4 -33.5t-6.5 -41h-345q-2 -12 -3.5 -25.5t-1.5 -23.5q0 -40 23 -64t66 -24q34 0 56.5 14t34.5 36.5t16 46.5h147
q-8 -60 -43.5 -105.5t-91.5 -70.5t-127 -25h-13zM206 313h187q2 8 2.5 14.5t0.5 14.5q0 35 -21 55t-58 20q-41 0 -71.5 -26.5t-39.5 -77.5zM138 581l157 179h123l107 -179h-113l-95 158h77l-139 -158h-117z" />
    <glyph glyph-name="uni1EBF" unicode="&#x1ebf;" horiz-adv-x="585" 
d="M257 -10q-71 0 -122.5 26.5t-79 74t-27.5 112.5q0 62 18 119t54 102t91.5 71t130.5 26h18q64 0 111.5 -23t73.5 -64.5t26 -97.5q0 -15 -1.5 -30.5t-4 -33.5t-6.5 -41h-345q-2 -12 -3.5 -25.5t-1.5 -23.5q0 -40 23 -64t66 -24q34 0 56.5 14t34.5 36.5t16 46.5h147
q-8 -60 -43.5 -105.5t-91.5 -70.5t-127 -25h-13zM206 313h187q2 8 2.5 14.5t0.5 14.5q0 35 -21 55t-58 20q-41 0 -71.5 -26.5t-39.5 -77.5zM310 782l112 145h127l2 -3l-142 -142h-99zM140 591l157 146h109l118 -146h-103l-77 76l-97 -76h-107z" />
    <glyph glyph-name="uni1EC7" unicode="&#x1ec7;" horiz-adv-x="585" 
d="M257 -10q-71 0 -122.5 26.5t-79 74t-27.5 112.5q0 62 18 119t54 102t91.5 71t130.5 26h18q64 0 111.5 -23t73.5 -64.5t26 -97.5q0 -15 -1.5 -30.5t-4 -33.5t-6.5 -41h-345q-2 -12 -3.5 -25.5t-1.5 -23.5q0 -40 23 -64t66 -24q34 0 56.5 14t34.5 36.5t16 46.5h147
q-8 -60 -43.5 -105.5t-91.5 -70.5t-127 -25h-13zM206 313h187q2 8 2.5 14.5t0.5 14.5q0 35 -21 55t-58 20q-41 0 -71.5 -26.5t-39.5 -77.5zM169 -206l18 128h128l-18 -128h-128zM138 581l157 179h123l107 -179h-113l-95 158h77l-139 -158h-117z" />
    <glyph glyph-name="uni1EC1" unicode="&#x1ec1;" horiz-adv-x="585" 
d="M257 -10q-71 0 -122.5 26.5t-79 74t-27.5 112.5q0 62 18 119t54 102t91.5 71t130.5 26h18q64 0 111.5 -23t73.5 -64.5t26 -97.5q0 -15 -1.5 -30.5t-4 -33.5t-6.5 -41h-345q-2 -12 -3.5 -25.5t-1.5 -23.5q0 -40 23 -64t66 -24q34 0 56.5 14t34.5 36.5t16 46.5h147
q-8 -60 -43.5 -105.5t-91.5 -70.5t-127 -25h-13zM206 313h187q2 8 2.5 14.5t0.5 14.5q0 35 -21 55t-58 20q-41 0 -71.5 -26.5t-39.5 -77.5zM310 782l-102 142l2 3h127l72 -145h-99zM141 591l158 146h108l118 -146h-103l-76 76l-98 -76h-107z" />
    <glyph glyph-name="uni1EC3" unicode="&#x1ec3;" horiz-adv-x="585" 
d="M257 -10q-71 0 -122.5 26.5t-79 74t-27.5 112.5q0 62 18 119t54 102t91.5 71t130.5 26h18q64 0 111.5 -23t73.5 -64.5t26 -97.5q0 -15 -1.5 -30.5t-4 -33.5t-6.5 -41h-345q-2 -12 -3.5 -25.5t-1.5 -23.5q0 -40 23 -64t66 -24q34 0 56.5 14t34.5 36.5t16 46.5h147
q-8 -60 -43.5 -105.5t-91.5 -70.5t-127 -25h-13zM206 313h187q2 8 2.5 14.5t0.5 14.5q0 35 -21 55t-58 20q-41 0 -71.5 -26.5t-39.5 -77.5zM338 778l8 56q26 3 41.5 15.5t15.5 32.5q0 14 -9.5 20.5t-27.5 6.5q-11 0 -25.5 -2.5t-31.5 -7.5l10 74q16 5 31.5 6.5t29.5 1.5
q42 0 69 -20t27 -58q0 -36 -21 -63.5t-52.5 -43.5t-64.5 -18zM141 591l157 146h109l118 -146h-103l-77 76l-97 -76h-107z" />
    <glyph glyph-name="uni1EC5" unicode="&#x1ec5;" horiz-adv-x="585" 
d="M257 -10q-71 0 -122.5 26.5t-79 74t-27.5 112.5q0 62 18 119t54 102t91.5 71t130.5 26h18q64 0 111.5 -23t73.5 -64.5t26 -97.5q0 -15 -1.5 -30.5t-4 -33.5t-6.5 -41h-345q-2 -12 -3.5 -25.5t-1.5 -23.5q0 -40 23 -64t66 -24q34 0 56.5 14t34.5 36.5t16 46.5h147
q-8 -60 -43.5 -105.5t-91.5 -70.5t-127 -25h-13zM206 313h187q2 8 2.5 14.5t0.5 14.5q0 35 -21 55t-58 20q-41 0 -71.5 -26.5t-39.5 -77.5zM168 776q5 35 23 64t47.5 46.5t65.5 17.5q33 0 55 -9t41.5 -18t44.5 -9q19 0 33.5 9.5t21.5 26.5h65q-5 -35 -23 -64t-47 -46.5
t-66 -17.5q-32 0 -53.5 8.5t-40.5 17.5t-46 10q-20 0 -34 -10t-22 -26h-65zM140 591l158 146h108l118 -146h-103l-76 76l-98 -76h-107z" />
    <glyph glyph-name="uni0205" unicode="&#x205;" horiz-adv-x="585" 
d="M257 -10q-71 0 -122.5 26.5t-79 74t-27.5 112.5q0 62 18 119t54 102t91.5 71t130.5 26h18q64 0 111.5 -23t73.5 -64.5t26 -97.5q0 -15 -1.5 -30.5t-4 -33.5t-6.5 -41h-345q-2 -12 -3.5 -25.5t-1.5 -23.5q0 -40 23 -64t66 -24q34 0 56.5 14t34.5 36.5t16 46.5h147
q-8 -60 -43.5 -105.5t-91.5 -70.5t-127 -25h-13zM206 313h187q2 8 2.5 14.5t0.5 14.5q0 35 -21 55t-58 20q-41 0 -71.5 -26.5t-39.5 -77.5zM388 592l-102 142l4 3h127l73 -145h-102zM192 592l-102 142l2 3h129l72 -145h-101z" />
    <glyph glyph-name="edieresis" unicode="&#xeb;" horiz-adv-x="585" 
d="M257 -10q-71 0 -122.5 26.5t-79 74t-27.5 112.5q0 62 18 119t54 102t91.5 71t130.5 26h18q64 0 111.5 -23t73.5 -64.5t26 -97.5q0 -15 -1.5 -30.5t-4 -33.5t-6.5 -41h-345q-2 -12 -3.5 -25.5t-1.5 -23.5q0 -40 23 -64t66 -24q34 0 56.5 14t34.5 36.5t16 46.5h147
q-8 -60 -43.5 -105.5t-91.5 -70.5t-127 -25h-13zM206 313h187q2 8 2.5 14.5t0.5 14.5q0 35 -21 55t-58 20q-41 0 -71.5 -26.5t-39.5 -77.5zM128 596l18 134h151l-19 -134h-150zM389 596l18 134h151l-19 -134h-150z" />
    <glyph glyph-name="edotaccent" unicode="&#x117;" horiz-adv-x="585" 
d="M257 -10q-71 0 -122.5 26.5t-79 74t-27.5 112.5q0 62 18 119t54 102t91.5 71t130.5 26h18q64 0 111.5 -23t73.5 -64.5t26 -97.5q0 -15 -1.5 -30.5t-4 -33.5t-6.5 -41h-345q-2 -12 -3.5 -25.5t-1.5 -23.5q0 -40 23 -64t66 -24q34 0 56.5 14t34.5 36.5t16 46.5h147
q-8 -60 -43.5 -105.5t-91.5 -70.5t-127 -25h-13zM206 313h187q2 8 2.5 14.5t0.5 14.5q0 35 -21 55t-58 20q-41 0 -71.5 -26.5t-39.5 -77.5zM255 606l16 116h155l-16 -116h-155z" />
    <glyph glyph-name="uni1EB9" unicode="&#x1eb9;" horiz-adv-x="585" 
d="M257 -10q-71 0 -122.5 26.5t-79 74t-27.5 112.5q0 62 18 119t54 102t91.5 71t130.5 26h18q64 0 111.5 -23t73.5 -64.5t26 -97.5q0 -15 -1.5 -30.5t-4 -33.5t-6.5 -41h-345q-2 -12 -3.5 -25.5t-1.5 -23.5q0 -40 23 -64t66 -24q34 0 56.5 14t34.5 36.5t16 46.5h147
q-8 -60 -43.5 -105.5t-91.5 -70.5t-127 -25h-13zM206 313h187q2 8 2.5 14.5t0.5 14.5q0 35 -21 55t-58 20q-41 0 -71.5 -26.5t-39.5 -77.5zM169 -206l18 128h128l-18 -128h-128z" />
    <glyph glyph-name="egrave" unicode="&#xe8;" horiz-adv-x="585" 
d="M257 -10q-71 0 -122.5 26.5t-79 74t-27.5 112.5q0 62 18 119t54 102t91.5 71t130.5 26h18q64 0 111.5 -23t73.5 -64.5t26 -97.5q0 -15 -1.5 -30.5t-4 -33.5t-6.5 -41h-345q-2 -12 -3.5 -25.5t-1.5 -23.5q0 -40 23 -64t66 -24q34 0 56.5 14t34.5 36.5t16 46.5h147
q-8 -60 -43.5 -105.5t-91.5 -70.5t-127 -25h-13zM206 313h187q2 8 2.5 14.5t0.5 14.5q0 35 -21 55t-58 20q-41 0 -71.5 -26.5t-39.5 -77.5zM269 586l-90 171l2 3h127l60 -174h-99z" />
    <glyph glyph-name="uni1EBB" unicode="&#x1ebb;" horiz-adv-x="585" 
d="M257 -10q-71 0 -122.5 26.5t-79 74t-27.5 112.5q0 62 18 119t54 102t91.5 71t130.5 26h18q64 0 111.5 -23t73.5 -64.5t26 -97.5q0 -15 -1.5 -30.5t-4 -33.5t-6.5 -41h-345q-2 -12 -3.5 -25.5t-1.5 -23.5q0 -40 23 -64t66 -24q34 0 56.5 14t34.5 36.5t16 46.5h147
q-8 -60 -43.5 -105.5t-91.5 -70.5t-127 -25h-13zM206 313h187q2 8 2.5 14.5t0.5 14.5q0 35 -21 55t-58 20q-41 0 -71.5 -26.5t-39.5 -77.5zM308 570l10 70q31 3 50 17.5t19 39.5q0 16 -11.5 24.5t-33.5 8.5q-13 0 -31 -2.5t-39 -9.5l13 91q20 6 39 8t37 2q52 0 84.5 -24.5
t32.5 -70.5q0 -43 -25 -77.5t-64 -54.5t-81 -22z" />
    <glyph glyph-name="uni0207" unicode="&#x207;" horiz-adv-x="585" 
d="M257 -10q-71 0 -122.5 26.5t-79 74t-27.5 112.5q0 62 18 119t54 102t91.5 71t130.5 26h18q64 0 111.5 -23t73.5 -64.5t26 -97.5q0 -15 -1.5 -30.5t-4 -33.5t-6.5 -41h-345q-2 -12 -3.5 -25.5t-1.5 -23.5q0 -40 23 -64t66 -24q34 0 56.5 14t34.5 36.5t16 46.5h147
q-8 -60 -43.5 -105.5t-91.5 -70.5t-127 -25h-13zM206 313h187q2 8 2.5 14.5t0.5 14.5q0 35 -21 55t-58 20q-41 0 -71.5 -26.5t-39.5 -77.5zM144 596q6 39 31 70t68.5 48.5t102.5 17.5q62 0 102.5 -17.5t58.5 -48.5t12 -70h-87q-3 28 -24.5 42t-67.5 14q-45 0 -71.5 -14
t-37.5 -42h-87z" />
    <glyph glyph-name="emacron" unicode="&#x113;" horiz-adv-x="585" 
d="M257 -10q-71 0 -122.5 26.5t-79 74t-27.5 112.5q0 62 18 119t54 102t91.5 71t130.5 26h18q64 0 111.5 -23t73.5 -64.5t26 -97.5q0 -15 -1.5 -30.5t-4 -33.5t-6.5 -41h-345q-2 -12 -3.5 -25.5t-1.5 -23.5q0 -40 23 -64t66 -24q34 0 56.5 14t34.5 36.5t16 46.5h147
q-8 -60 -43.5 -105.5t-91.5 -70.5t-127 -25h-13zM206 313h187q2 8 2.5 14.5t0.5 14.5q0 35 -21 55t-58 20q-41 0 -71.5 -26.5t-39.5 -77.5zM163 613l12 83h343l-12 -83h-343z" />
    <glyph glyph-name="eogonek" unicode="&#x119;" horiz-adv-x="585" 
d="M257 -10q-71 0 -122.5 26.5t-79 74t-27.5 112.5q0 62 18 119t54 102t91.5 71t130.5 26h18q64 0 111.5 -23t73.5 -64.5t26 -97.5q0 -15 -1.5 -30.5t-4 -33.5t-6.5 -41h-345q-2 -12 -3.5 -25.5t-1.5 -23.5q0 -40 23 -64t66 -24q34 0 56.5 14t34.5 36.5t16 46.5h147
q-8 -60 -43.5 -105.5t-91.5 -70.5t-127 -25h-13zM206 313h187q2 8 2.5 14.5t0.5 14.5q0 35 -21 55t-58 20q-41 0 -71.5 -26.5t-39.5 -77.5zM298 -146q-36 0 -64 14.5t-28 49.5q0 28 17 49t38 33h91q-23 -12 -37.5 -26.5t-14.5 -34.5q0 -15 10.5 -21t24.5 -6q15 0 31.5 4
t31.5 9l7 -44q-24 -13 -52 -20t-55 -7z" />
    <glyph glyph-name="uni1EBD" unicode="&#x1ebd;" horiz-adv-x="585" 
d="M257 -10q-71 0 -122.5 26.5t-79 74t-27.5 112.5q0 62 18 119t54 102t91.5 71t130.5 26h18q64 0 111.5 -23t73.5 -64.5t26 -97.5q0 -15 -1.5 -30.5t-4 -33.5t-6.5 -41h-345q-2 -12 -3.5 -25.5t-1.5 -23.5q0 -40 23 -64t66 -24q34 0 56.5 14t34.5 36.5t16 46.5h147
q-8 -60 -43.5 -105.5t-91.5 -70.5t-127 -25h-13zM206 313h187q2 8 2.5 14.5t0.5 14.5q0 35 -21 55t-58 20q-41 0 -71.5 -26.5t-39.5 -77.5zM128 591q9 42 27.5 77.5t46.5 56t66 20.5q37 0 63.5 -14t48.5 -28.5t45 -14.5t37.5 15.5t23.5 42.5h69q-8 -42 -26.5 -77.5
t-46.5 -56.5t-66 -21q-37 0 -64.5 14.5t-49.5 29t-45 14.5q-22 0 -36 -15.5t-24 -42.5h-69z" />
    <glyph glyph-name="uni0259" unicode="&#x259;" horiz-adv-x="585" 
d="M328 521q72 0 123 -26t78.5 -73.5t27.5 -112.5q0 -62 -18 -119t-54 -102t-91.5 -71.5t-130.5 -26.5h-18q-64 0 -111.5 23.5t-73.5 65t-26 96.5q0 16 1.5 31.5t4.5 33.5t6 40h345q2 13 3.5 26.5t1.5 22.5q0 40 -23 64t-66 24q-34 0 -56.5 -14t-34.5 -36t-16 -47h-147
q8 62 43.5 107t91.5 69.5t127 24.5h13zM379 199h-187q-2 -8 -2.5 -14.5t-0.5 -14.5q0 -35 21.5 -55.5t57.5 -20.5q42 0 72 27t39 78z" />
    <glyph glyph-name="f" unicode="f" horiz-adv-x="385" 
d="M18 -185q-17 0 -37.5 2t-40.5 6.5t-33 11.5l13 96q11 -5 29.5 -9t30.5 -4q28 0 44.5 16t21.5 51l59 412h-62l16 114h62l10 72q7 53 32 85t63.5 46t85.5 14q16 0 37 -2t42 -6.5t34 -12.5l-13 -94q-12 5 -30 8.5t-31 3.5q-32 0 -46 -16t-19 -49l-8 -49h120l-16 -114h-119
l-60 -426q-11 -81 -62 -118.5t-123 -37.5z" />
    <glyph glyph-name="g" unicode="g" horiz-adv-x="589" 
d="M237 -186q-47 0 -88.5 10t-72.5 31t-48 52.5t-17 73.5h158q0 -15 8.5 -29.5t25.5 -23.5t43 -9q31 0 50.5 14t29.5 36t13 45l9 73q-27 -30 -66 -48.5t-85 -18.5q-54 0 -90.5 25t-55 69t-18.5 99t14.5 109.5t45.5 99.5t79 72t114 27q53 0 93.5 -21.5t63.5 -65.5l66 77h57
l-67 -473q-10 -72 -44 -122t-89 -76t-129 -26zM265 125q40 0 66 26t33 65q7 35 12 68t5 51q0 40 -20 61t-56 21q-24 0 -45.5 -10.5t-36 -32t-20.5 -55.5q-7 -42 -10 -71t-3 -39q0 -39 19.5 -61.5t55.5 -22.5z" />
    <glyph glyph-name="gbreve" unicode="&#x11f;" horiz-adv-x="589" 
d="M237 -186q-47 0 -88.5 10t-72.5 31t-48 52.5t-17 73.5h158q0 -15 8.5 -29.5t25.5 -23.5t43 -9q31 0 50.5 14t29.5 36t13 45l9 73q-27 -30 -66 -48.5t-85 -18.5q-54 0 -90.5 25t-55 69t-18.5 99t14.5 109.5t45.5 99.5t79 72t114 27q53 0 93.5 -21.5t63.5 -65.5l66 77h57
l-67 -473q-10 -72 -44 -122t-89 -76t-129 -26zM265 125q40 0 66 26t33 65q7 35 12 68t5 51q0 40 -20 61t-56 21q-24 0 -45.5 -10.5t-36 -32t-20.5 -55.5q-7 -42 -10 -71t-3 -39q0 -39 19.5 -61.5t55.5 -22.5zM343 588q-60 0 -98 20.5t-54 55.5t-11 81h88q0 -39 20.5 -57.5
t62.5 -18.5q44 0 69.5 18.5t38.5 57.5h87q-8 -46 -34 -81t-68 -55.5t-101 -20.5z" />
    <glyph glyph-name="gcaron" unicode="&#x1e7;" horiz-adv-x="589" 
d="M237 -186q-47 0 -88.5 10t-72.5 31t-48 52.5t-17 73.5h158q0 -15 8.5 -29.5t25.5 -23.5t43 -9q31 0 50.5 14t29.5 36t13 45l9 73q-27 -30 -66 -48.5t-85 -18.5q-54 0 -90.5 25t-55 69t-18.5 99t14.5 109.5t45.5 99.5t79 72t114 27q53 0 93.5 -21.5t63.5 -65.5l66 77h57
l-67 -473q-10 -72 -44 -122t-89 -76t-129 -26zM265 125q40 0 66 26t33 65q7 35 12 68t5 51q0 40 -20 61t-56 21q-24 0 -45.5 -10.5t-36 -32t-20.5 -55.5q-7 -42 -10 -71t-3 -39q0 -39 19.5 -61.5t55.5 -22.5zM558 762l-157 -179h-124l-107 179h114l92 -158h-71l136 158h117z
" />
    <glyph glyph-name="gcircumflex" unicode="&#x11d;" horiz-adv-x="589" 
d="M237 -186q-47 0 -88.5 10t-72.5 31t-48 52.5t-17 73.5h158q0 -15 8.5 -29.5t25.5 -23.5t43 -9q31 0 50.5 14t29.5 36t13 45l9 73q-27 -30 -66 -48.5t-85 -18.5q-54 0 -90.5 25t-55 69t-18.5 99t14.5 109.5t45.5 99.5t79 72t114 27q53 0 93.5 -21.5t63.5 -65.5l66 77h57
l-67 -473q-10 -72 -44 -122t-89 -76t-129 -26zM265 125q40 0 66 26t33 65q7 35 12 68t5 51q0 40 -20 61t-56 21q-24 0 -45.5 -10.5t-36 -32t-20.5 -55.5q-7 -42 -10 -71t-3 -39q0 -39 19.5 -61.5t55.5 -22.5zM148 581l157 179h123l107 -179h-113l-95 158h77l-139 -158h-117z
" />
    <glyph glyph-name="uni0123" unicode="&#x123;" horiz-adv-x="589" 
d="M237 -186q-47 0 -88.5 10t-72.5 31t-48 52.5t-17 73.5h158q0 -15 8.5 -29.5t25.5 -23.5t43 -9q31 0 50.5 14t29.5 36t13 45l9 73q-27 -30 -66 -48.5t-85 -18.5q-54 0 -90.5 25t-55 69t-18.5 99t14.5 109.5t45.5 99.5t79 72t114 27q53 0 93.5 -21.5t63.5 -65.5l66 77h57
l-67 -473q-10 -72 -44 -122t-89 -76t-129 -26zM265 125q40 0 66 26t33 65q7 35 12 68t5 51q0 40 -20 61t-56 21q-24 0 -45.5 -10.5t-36 -32t-20.5 -55.5q-7 -42 -10 -71t-3 -39q0 -39 19.5 -61.5t55.5 -22.5zM451 900l-3 -16q-35 -32 -55 -67.5t-25 -72.5h61l-21 -146h-134
l18 124q7 50 29.5 96.5t59.5 81.5h70z" />
    <glyph glyph-name="gdotaccent" unicode="&#x121;" horiz-adv-x="589" 
d="M237 -186q-47 0 -88.5 10t-72.5 31t-48 52.5t-17 73.5h158q0 -15 8.5 -29.5t25.5 -23.5t43 -9q31 0 50.5 14t29.5 36t13 45l9 73q-27 -30 -66 -48.5t-85 -18.5q-54 0 -90.5 25t-55 69t-18.5 99t14.5 109.5t45.5 99.5t79 72t114 27q53 0 93.5 -21.5t63.5 -65.5l66 77h57
l-67 -473q-10 -72 -44 -122t-89 -76t-129 -26zM265 125q40 0 66 26t33 65q7 35 12 68t5 51q0 40 -20 61t-56 21q-24 0 -45.5 -10.5t-36 -32t-20.5 -55.5q-7 -42 -10 -71t-3 -39q0 -39 19.5 -61.5t55.5 -22.5zM265 606l16 116h155l-16 -116h-155z" />
    <glyph glyph-name="uni01E5" unicode="&#x1e5;" horiz-adv-x="589" 
d="M275 241l9 68h319l-9 -68h-319zM237 -186q-47 0 -88.5 10t-72.5 31t-48 52.5t-17 73.5h158q0 -15 8.5 -29.5t25.5 -23.5t43 -9q31 0 50.5 14t29.5 36t13 45l9 73q-27 -30 -66 -48.5t-85 -18.5q-54 0 -90.5 25t-55 69t-18.5 99t14.5 109.5t45.5 99.5t79 72t114 27
q53 0 93.5 -21.5t63.5 -65.5l66 77h57l-67 -473q-10 -72 -44 -122t-89 -76t-129 -26zM265 125q40 0 66 26t33 65q7 35 12 68t5 51q0 40 -20 61t-56 21q-24 0 -45.5 -10.5t-36 -32t-20.5 -55.5q-7 -42 -10 -71t-3 -39q0 -39 19.5 -61.5t55.5 -22.5z" />
    <glyph glyph-name="h" unicode="h" horiz-adv-x="596" 
d="M20 0l100 720h158l-38 -268q17 18 39 33.5t51.5 25.5t65.5 10q69 0 109.5 -35t40.5 -98q0 -13 -4.5 -52t-16 -119t-31.5 -217h-158q13 91 22 153t14.5 101.5t7.5 60.5t2 30q0 30 -16.5 45.5t-46.5 15.5q-24 0 -45 -12t-35 -32.5t-18 -46.5l-44 -315h-157z" />
    <glyph glyph-name="hbar" unicode="&#x127;" horiz-adv-x="596" 
d="M20 0l100 720h158l-38 -268q17 18 39 33.5t51.5 25.5t65.5 10q69 0 109.5 -35t40.5 -98q0 -13 -4.5 -52t-16 -119t-31.5 -217h-158q13 91 22 153t14.5 101.5t7.5 60.5t2 30q0 30 -16.5 45.5t-46.5 15.5q-24 0 -45 -12t-35 -32.5t-18 -46.5l-44 -315h-157zM34 553l15 108
h370l-16 -108h-369z" />
    <glyph glyph-name="hcircumflex" unicode="&#x125;" horiz-adv-x="596" 
d="M20 0l100 720h158l-38 -268q17 18 39 33.5t51.5 25.5t65.5 10q69 0 109.5 -35t40.5 -98q0 -13 -4.5 -52t-16 -119t-31.5 -217h-158q13 91 22 153t14.5 101.5t7.5 60.5t2 30q0 30 -16.5 45.5t-46.5 15.5q-24 0 -45 -12t-35 -32.5t-18 -46.5l-44 -315h-157zM12 753l128 132
h149l97 -132h-114l-75 102h34l-105 -102h-114z" />
    <glyph glyph-name="uni1E25" unicode="&#x1e25;" horiz-adv-x="596" 
d="M20 0l100 720h158l-38 -268q17 18 39 33.5t51.5 25.5t65.5 10q69 0 109.5 -35t40.5 -98q0 -13 -4.5 -52t-16 -119t-31.5 -217h-158q13 91 22 153t14.5 101.5t7.5 60.5t2 30q0 30 -16.5 45.5t-46.5 15.5q-24 0 -45 -12t-35 -32.5t-18 -46.5l-44 -315h-157zM160 -206
l18 128h128l-18 -128h-128z" />
    <glyph glyph-name="i" unicode="i" horiz-adv-x="282" 
d="M20 0l71 511h158l-72 -511h-157zM102 599l17 121h159l-17 -121h-159z" />
    <glyph glyph-name="dotlessi" unicode="&#x131;" horiz-adv-x="283" 
d="M23 0l71 511h158l-71 -511h-158z" />
    <glyph glyph-name="iacute" unicode="&#xed;" horiz-adv-x="283" 
d="M23 0l71 511h158l-71 -511h-158zM128 586l110 174h134l1 -3l-139 -171h-106z" />
    <glyph glyph-name="ibreve" unicode="&#x12d;" horiz-adv-x="283" 
d="M23 0l71 511h158l-71 -511h-158zM187 588q-49 0 -81.5 18.5t-45 53.5t-6.5 85h87q-3 -42 10.5 -60t42.5 -18q31 0 50.5 18t28.5 60h86q-7 -50 -29 -85t-58 -53.5t-85 -18.5z" />
    <glyph glyph-name="uni01D0" unicode="&#x1d0;" horiz-adv-x="283" 
d="M23 0l71 511h158l-71 -511h-158zM369 760l-129 -179h-109l-84 179h103l72 -157h-71l116 157h102z" />
    <glyph glyph-name="icircumflex" unicode="&#xee;" horiz-adv-x="283" 
d="M23 0l71 511h158l-71 -511h-158zM22 581l128 179h109l85 -179h-103l-72 157h71l-116 -157h-102z" />
    <glyph glyph-name="uni0209" unicode="&#x209;" horiz-adv-x="283" 
d="M23 0l71 511h158l-71 -511h-158zM241 592l-102 142l4 3h127l73 -145h-102zM45 592l-102 142l2 3h129l72 -145h-101z" />
    <glyph glyph-name="idieresis" unicode="&#xef;" horiz-adv-x="283" 
d="M23 0l71 511h158l-71 -511h-158zM28 606l17 122h124l-17 -122h-124zM223 606l17 122h123l-17 -122h-123z" />
    <glyph glyph-name="i.loclTRK" horiz-adv-x="283" 
d="M23 0l71 511h158l-71 -511h-158zM108 606l16 116h155l-16 -116h-155z" />
    <glyph glyph-name="uni1ECB" unicode="&#x1ecb;" horiz-adv-x="282" 
d="M20 0l71 511h158l-72 -511h-157zM102 599l17 121h159l-17 -121h-159zM3 -206l18 128h128l-18 -128h-128z" />
    <glyph glyph-name="igrave" unicode="&#xec;" horiz-adv-x="283" 
d="M23 0l71 511h158l-71 -511h-158zM122 586l-90 171l2 3h127l60 -174h-99z" />
    <glyph glyph-name="uni1EC9" unicode="&#x1ec9;" horiz-adv-x="283" 
d="M23 0l71 511h158l-71 -511h-158zM161 570l10 70q31 3 50 17.5t19 39.5q0 16 -11.5 24.5t-33.5 8.5q-13 0 -31 -2.5t-39 -9.5l13 91q20 6 39 8t37 2q52 0 84.5 -24.5t32.5 -70.5q0 -43 -25 -77.5t-64 -54.5t-81 -22z" />
    <glyph glyph-name="uni020B" unicode="&#x20b;" horiz-adv-x="283" 
d="M23 0l71 511h158l-71 -511h-158zM31 588q8 51 30 85.5t58 53t84 18.5q51 0 82.5 -18.5t44.5 -53t7 -85.5h-88q4 42 -10 60t-43 18q-30 0 -49.5 -18t-28.5 -60h-87z" />
    <glyph glyph-name="ij" unicode="&#x133;" horiz-adv-x="571" 
d="M20 0l71 511h158l-72 -511h-157zM102 599l17 121h159l-17 -121h-159zM282 -186q-16 0 -37 2.5t-41 7t-34 10.5l13 97q11 -5 30 -9t30 -4q20 0 39 12t25 56l74 525h159l-75 -532q-12 -85 -59.5 -125t-123.5 -40zM393 599l16 121h161l-17 -121h-160z" />
    <glyph glyph-name="imacron" unicode="&#x12b;" horiz-adv-x="283" 
d="M23 0l71 511h158l-71 -511h-158zM50 613l12 83h275l-12 -83h-275z" />
    <glyph glyph-name="iogonek" unicode="&#x12f;" horiz-adv-x="282" 
d="M20 0l71 511h158l-72 -511h-157zM102 599l17 121h159l-17 -121h-159zM57 -146q-36 0 -64 14.5t-28 49.5q0 28 17 49t38 33h91q-23 -12 -37.5 -26.5t-14.5 -34.5q0 -15 10.5 -21t24.5 -6q15 0 31.5 4t31.5 9l7 -44q-24 -13 -52 -20t-55 -7z" />
    <glyph glyph-name="uni0268" unicode="&#x268;" horiz-adv-x="282" 
d="M3 326h276l-16 -111h-276zM20 0l71 511h158l-72 -511h-157zM102 599l17 121h159l-17 -121h-159z" />
    <glyph glyph-name="itilde" unicode="&#x129;" horiz-adv-x="283" 
d="M23 0l71 511h158l-71 -511h-158zM12 591q7 47 23 82t41 53.5t59 18.5q32 0 53 -14t37.5 -28.5t34.5 -14.5q17 0 29.5 16t20.5 42h69q-8 -46 -23.5 -81t-40 -54t-59.5 -19q-30 0 -51.5 14t-39 28.5t-35.5 14.5q-17 0 -29 -16.5t-20 -41.5h-69z" />
    <glyph glyph-name="j" unicode="j" horiz-adv-x="284" 
d="M-5 -186q-16 0 -37 2.5t-41 7t-34 10.5l13 97q11 -5 30 -9t30 -4q20 0 39 12t25 56l74 525h159l-75 -532q-12 -85 -59.5 -125t-123.5 -40zM106 599l16 121h161l-17 -121h-160z" />
    <glyph glyph-name="uni0237" unicode="&#x237;" horiz-adv-x="284" 
d="M-5 -186q-16 0 -37 2.5t-41 7t-34 10.5l13 97q11 -5 30 -9t30 -4q20 0 39 12t25 56l74 525h159l-75 -532q-12 -85 -59.5 -125t-123.5 -40z" />
    <glyph glyph-name="jcircumflex" unicode="&#x135;" horiz-adv-x="284" 
d="M-5 -186q-16 0 -37 2.5t-41 7t-34 10.5l13 97q11 -5 30 -9t30 -4q20 0 39 12t25 56l74 525h159l-75 -532q-12 -85 -59.5 -125t-123.5 -40zM20 581l128 179h109l85 -179h-103l-72 157h71l-116 -157h-102z" />
    <glyph glyph-name="k" unicode="k" horiz-adv-x="574" 
d="M20 0l100 720h158l-61 -435l200 226h179l-220 -237l154 -274h-187l-92 164l-58 -51l-16 -113h-157z" />
    <glyph glyph-name="uni0137" unicode="&#x137;" horiz-adv-x="574" 
d="M20 0l100 720h158l-61 -435l200 226h179l-220 -237l154 -274h-187l-92 164l-58 -51l-16 -113h-157zM144 -375l3 16q35 32 55 67.5t25 72.5h-61l21 146h134l-18 -124q-6 -50 -29 -96.5t-60 -81.5h-70z" />
    <glyph glyph-name="kgreenlandic" unicode="&#x138;" horiz-adv-x="574" 
d="M20 0l71 511h158l-32 -226l200 226h179l-220 -237l154 -274h-187l-92 164l-58 -51l-16 -113h-157z" />
    <glyph glyph-name="l" unicode="l" horiz-adv-x="285" 
d="M21 0l100 720h158l-101 -720h-157z" />
    <glyph glyph-name="lacute" unicode="&#x13a;" horiz-adv-x="285" 
d="M21 0l100 720h158l-101 -720h-157z" />
    <glyph glyph-name="lcaron" unicode="&#x13e;" horiz-adv-x="402" 
d="M305 408l2 15q31 30 50.5 61.5t24.5 66.5h-58l19 135h127l-15 -114q-7 -47 -29 -89t-56 -75h-65zM21 0l100 720h158l-101 -720h-157z" />
    <glyph glyph-name="uni013C" unicode="&#x13c;" horiz-adv-x="285" 
d="M21 0l100 720h158l-101 -720h-157zM-21 -375l3 16q35 32 55 67.5t25 72.5h-61l21 146h134l-18 -124q-6 -50 -29 -96.5t-60 -81.5h-70z" />
    <glyph glyph-name="ldot" unicode="&#x140;" horiz-adv-x="400" 
d="M264 299l21 155h157l-22 -155h-156zM21 0l100 720h158l-101 -720h-157z" />
    <glyph glyph-name="uni01C9" unicode="&#x1c9;" horiz-adv-x="569" 
d="M21 0l100 720h158l-101 -720h-157zM280 -186q-16 0 -37 2.5t-41 7t-34 10.5l13 97q11 -5 30 -9t30 -4q20 0 39 12t25 56l74 525h159l-75 -532q-12 -85 -59.5 -125t-123.5 -40zM391 599l16 121h161l-17 -121h-160z" />
    <glyph glyph-name="lslash" unicode="&#x142;" horiz-adv-x="285" 
d="M21 0l100 720h158l-101 -720h-157zM-13 240l13 92l315 148l-13 -92z" />
    <glyph glyph-name="m" unicode="m" horiz-adv-x="869" 
d="M22 0l72 511h118l7 -74q17 21 41 40.5t55 31.5t68 12q53 0 86.5 -21t47.5 -60q32 41 71.5 61t90.5 20q67 0 105 -35t38 -97q0 -11 -6 -59t-17.5 -130.5t-28.5 -199.5h-156q10 68 18.5 127.5t15 105.5t10 75.5t3.5 36.5q0 31 -15 46t-40 15q-21 0 -40 -11.5t-31.5 -31.5
t-16.5 -46l-44 -317h-156q12 81 20.5 142.5t14 104t9 67t3.5 31.5q0 30 -15 45.5t-40 15.5q-21 0 -40 -11.5t-31.5 -31.5t-16.5 -46l-44 -317h-156z" />
    <glyph glyph-name="n" unicode="n" horiz-adv-x="596" 
d="M22 0l72 511h119l5 -74q16 19 40.5 38.5t59 32.5t81.5 13q70 0 110.5 -35t40.5 -98q0 -8 -1.5 -23t-5 -41t-9.5 -68l-15 -105t-22 -151h-158q13 86 21 144.5t13 95t8 57t4 30.5t1 16q0 30 -17 46.5t-47 16.5q-24 0 -45 -12t-35 -32.5t-18 -46.5l-44 -315h-158z" />
    <glyph glyph-name="nacute" unicode="&#x144;" horiz-adv-x="596" 
d="M22 0l72 511h119l5 -74q16 19 40.5 38.5t59 32.5t81.5 13q70 0 110.5 -35t40.5 -98q0 -8 -1.5 -23t-5 -41t-9.5 -68l-15 -105t-22 -151h-158q13 86 21 144.5t13 95t8 57t4 30.5t1 16q0 30 -17 46.5t-47 16.5q-24 0 -45 -12t-35 -32.5t-18 -46.5l-44 -315h-158zM272 586
l110 174h134l1 -3l-139 -171h-106z" />
    <glyph glyph-name="napostrophe" unicode="&#x149;" horiz-adv-x="596" 
d="M22 0l72 511h119l5 -74q16 19 40.5 38.5t59 32.5t81.5 13q70 0 110.5 -35t40.5 -98q0 -8 -1.5 -23t-5 -41t-9.5 -68l-15 -105t-22 -151h-158q13 86 21 144.5t13 95t8 57t4 30.5t1 16q0 30 -17 46.5t-47 16.5q-24 0 -45 -12t-35 -32.5t-18 -46.5l-44 -315h-158zM12 551
l2 14q30 29 48 58.5t23 62.5h-55l18 127h121l-15 -107q-6 -45 -27 -84.5t-53 -70.5h-62z" />
    <glyph glyph-name="ncaron" unicode="&#x148;" horiz-adv-x="596" 
d="M22 0l72 511h119l5 -74q16 19 40.5 38.5t59 32.5t81.5 13q70 0 110.5 -35t40.5 -98q0 -8 -1.5 -23t-5 -41t-9.5 -68l-15 -105t-22 -151h-158q13 86 21 144.5t13 95t8 57t4 30.5t1 16q0 30 -17 46.5t-47 16.5q-24 0 -45 -12t-35 -32.5t-18 -46.5l-44 -315h-158zM545 762
l-157 -179h-124l-107 179h114l92 -158h-71l136 158h117z" />
    <glyph glyph-name="uni0146" unicode="&#x146;" horiz-adv-x="596" 
d="M22 0l72 511h119l5 -74q16 19 40.5 38.5t59 32.5t81.5 13q70 0 110.5 -35t40.5 -98q0 -8 -1.5 -23t-5 -41t-9.5 -68l-15 -105t-22 -151h-158q13 86 21 144.5t13 95t8 57t4 30.5t1 16q0 30 -17 46.5t-47 16.5q-24 0 -45 -12t-35 -32.5t-18 -46.5l-44 -315h-158zM142 -375
l3 16q35 32 55 67.5t25 72.5h-61l21 146h134l-18 -124q-6 -50 -29 -96.5t-60 -81.5h-70z" />
    <glyph glyph-name="uni0272" unicode="&#x272;" horiz-adv-x="596" 
d="M-5 -186q-16 0 -37 2.5t-41 7t-34 10.5l13 97q11 -5 30 -9t30 -4q20 0 39 12t25 54l74 527h119l5 -74q16 19 40.5 38.5t59 32.5t81.5 13q70 0 110.5 -35t40.5 -98q0 -8 -1.5 -23t-5 -41t-9.5 -68l-15 -105t-22 -151h-158q13 86 21 144.5t13 95t8 57t4 30.5t1 16
q0 30 -17 46.5t-47 16.5q-24 0 -45 -12t-35 -32.5t-18 -46.5l-46 -336q-12 -85 -59.5 -125t-123.5 -40z" />
    <glyph glyph-name="uni01CC" unicode="&#x1cc;" horiz-adv-x="880" 
d="M22 0l72 511h119l5 -74q16 19 40.5 38.5t59 32.5t81.5 13q70 0 110.5 -35t40.5 -98q0 -8 -1.5 -23t-5 -41t-9.5 -68l-15 -105t-22 -151h-158q13 86 21 144.5t13 95t8 57t4 30.5t1 16q0 30 -17 46.5t-47 16.5q-24 0 -45 -12t-35 -32.5t-18 -46.5l-44 -315h-158zM591 -186
q-16 0 -37 2.5t-41 7t-34 10.5l13 97q11 -5 30 -9t30 -4q20 0 39 12t25 56l74 525h159l-75 -532q-12 -85 -59.5 -125t-123.5 -40zM702 599l16 121h161l-17 -121h-160z" />
    <glyph glyph-name="ntilde" unicode="&#xf1;" horiz-adv-x="596" 
d="M22 0l72 511h119l5 -74q16 19 40.5 38.5t59 32.5t81.5 13q70 0 110.5 -35t40.5 -98q0 -8 -1.5 -23t-5 -41t-9.5 -68l-15 -105t-22 -151h-158q13 86 21 144.5t13 95t8 57t4 30.5t1 16q0 30 -17 46.5t-47 16.5q-24 0 -45 -12t-35 -32.5t-18 -46.5l-44 -315h-158zM125 591
q9 42 27.5 77.5t46.5 56t66 20.5q37 0 63.5 -14t48.5 -28.5t45 -14.5t37.5 15.5t23.5 42.5h69q-8 -42 -26.5 -77.5t-46.5 -56.5t-66 -21q-37 0 -64.5 14.5t-49.5 29t-45 14.5q-22 0 -36 -15.5t-24 -42.5h-69z" />
    <glyph glyph-name="eng" unicode="&#x14b;" horiz-adv-x="596" 
d="M312 -186q-16 0 -37 2.5t-41 7t-34 10.5l14 97q11 -5 29.5 -9t29.5 -4q20 0 39 12t25 54q13 91 21.5 152t14 99t8.5 59.5t4 32t1 16.5q0 30 -17 46.5t-47 16.5q-24 0 -45 -12t-35 -32.5t-18 -46.5l-44 -315h-158l72 511h119l5 -74q16 19 40.5 38.5t59 32.5t81.5 13
q70 0 110.5 -35t40.5 -98q0 -9 -2 -24t-5.5 -43t-10 -72.5t-15.5 -111t-23 -158.5q-12 -85 -59 -125t-123 -40z" />
    <glyph glyph-name="o" unicode="o" horiz-adv-x="601" 
d="M258 -10q-71 0 -122.5 26t-79.5 73.5t-28 112.5q0 61 17.5 118.5t53.5 102.5t92 71.5t131 26.5h14q70 0 121.5 -26t79.5 -73t28 -113q0 -61 -17.5 -118t-54 -102.5t-92 -72t-131.5 -26.5h-12zM275 94q29 0 52.5 13t39 36t19.5 53q7 45 12 80t5 53q0 41 -22.5 64.5
t-62.5 23.5q-29 0 -52.5 -12.5t-39 -35.5t-20.5 -54q-7 -44 -11.5 -79t-4.5 -54q0 -40 22.5 -64t62.5 -24z" />
    <glyph glyph-name="oacute" unicode="&#xf3;" horiz-adv-x="601" 
d="M258 -10q-71 0 -122.5 26t-79.5 73.5t-28 112.5q0 61 17.5 118.5t53.5 102.5t92 71.5t131 26.5h14q70 0 121.5 -26t79.5 -73t28 -113q0 -61 -17.5 -118t-54 -102.5t-92 -72t-131.5 -26.5h-12zM275 94q29 0 52.5 13t39 36t19.5 53q7 45 12 80t5 53q0 41 -22.5 64.5
t-62.5 23.5q-29 0 -52.5 -12.5t-39 -35.5t-20.5 -54q-7 -44 -11.5 -79t-4.5 -54q0 -40 22.5 -64t62.5 -24zM282 586l110 174h134l1 -3l-139 -171h-106z" />
    <glyph glyph-name="obreve" unicode="&#x14f;" horiz-adv-x="601" 
d="M258 -10q-71 0 -122.5 26t-79.5 73.5t-28 112.5q0 61 17.5 118.5t53.5 102.5t92 71.5t131 26.5h14q70 0 121.5 -26t79.5 -73t28 -113q0 -61 -17.5 -118t-54 -102.5t-92 -72t-131.5 -26.5h-12zM275 94q29 0 52.5 13t39 36t19.5 53q7 45 12 80t5 53q0 41 -22.5 64.5
t-62.5 23.5q-29 0 -52.5 -12.5t-39 -35.5t-20.5 -54q-7 -44 -11.5 -79t-4.5 -54q0 -40 22.5 -64t62.5 -24zM340 588q-60 0 -98 20.5t-54 55.5t-11 81h88q0 -39 20.5 -57.5t62.5 -18.5q44 0 69.5 18.5t38.5 57.5h87q-8 -46 -34 -81t-68 -55.5t-101 -20.5z" />
    <glyph glyph-name="uni01D2" unicode="&#x1d2;" horiz-adv-x="601" 
d="M258 -10q-71 0 -122.5 26t-79.5 73.5t-28 112.5q0 61 17.5 118.5t53.5 102.5t92 71.5t131 26.5h14q70 0 121.5 -26t79.5 -73t28 -113q0 -61 -17.5 -118t-54 -102.5t-92 -72t-131.5 -26.5h-12zM275 94q29 0 52.5 13t39 36t19.5 53q7 45 12 80t5 53q0 41 -22.5 64.5
t-62.5 23.5q-29 0 -52.5 -12.5t-39 -35.5t-20.5 -54q-7 -44 -11.5 -79t-4.5 -54q0 -40 22.5 -64t62.5 -24zM555 762l-157 -179h-124l-107 179h114l92 -158h-71l136 158h117z" />
    <glyph glyph-name="ocircumflex" unicode="&#xf4;" horiz-adv-x="601" 
d="M258 -10q-71 0 -122.5 26t-79.5 73.5t-28 112.5q0 61 17.5 118.5t53.5 102.5t92 71.5t131 26.5h14q70 0 121.5 -26t79.5 -73t28 -113q0 -61 -17.5 -118t-54 -102.5t-92 -72t-131.5 -26.5h-12zM275 94q29 0 52.5 13t39 36t19.5 53q7 45 12 80t5 53q0 41 -22.5 64.5
t-62.5 23.5q-29 0 -52.5 -12.5t-39 -35.5t-20.5 -54q-7 -44 -11.5 -79t-4.5 -54q0 -40 22.5 -64t62.5 -24zM145 581l157 179h123l107 -179h-113l-95 158h77l-139 -158h-117z" />
    <glyph glyph-name="uni1ED1" unicode="&#x1ed1;" horiz-adv-x="601" 
d="M258 -10q-71 0 -122.5 26t-79.5 73.5t-28 112.5q0 61 17.5 118.5t53.5 102.5t92 71.5t131 26.5h14q70 0 121.5 -26t79.5 -73t28 -113q0 -61 -17.5 -118t-54 -102.5t-92 -72t-131.5 -26.5h-12zM275 94q29 0 52.5 13t39 36t19.5 53q7 45 12 80t5 53q0 41 -22.5 64.5
t-62.5 23.5q-29 0 -52.5 -12.5t-39 -35.5t-20.5 -54q-7 -44 -11.5 -79t-4.5 -54q0 -40 22.5 -64t62.5 -24zM317 782l112 145h127l2 -3l-142 -142h-99zM147 591l157 146h109l118 -146h-103l-77 76l-97 -76h-107z" />
    <glyph glyph-name="uni1ED9" unicode="&#x1ed9;" horiz-adv-x="601" 
d="M258 -10q-71 0 -122.5 26t-79.5 73.5t-28 112.5q0 61 17.5 118.5t53.5 102.5t92 71.5t131 26.5h14q70 0 121.5 -26t79.5 -73t28 -113q0 -61 -17.5 -118t-54 -102.5t-92 -72t-131.5 -26.5h-12zM275 94q29 0 52.5 13t39 36t19.5 53q7 45 12 80t5 53q0 41 -22.5 64.5
t-62.5 23.5q-29 0 -52.5 -12.5t-39 -35.5t-20.5 -54q-7 -44 -11.5 -79t-4.5 -54q0 -40 22.5 -64t62.5 -24zM172 -206l18 128h128l-18 -128h-128zM145 581l157 179h123l107 -179h-113l-95 158h77l-139 -158h-117z" />
    <glyph glyph-name="uni1ED3" unicode="&#x1ed3;" horiz-adv-x="601" 
d="M258 -10q-71 0 -122.5 26t-79.5 73.5t-28 112.5q0 61 17.5 118.5t53.5 102.5t92 71.5t131 26.5h14q70 0 121.5 -26t79.5 -73t28 -113q0 -61 -17.5 -118t-54 -102.5t-92 -72t-131.5 -26.5h-12zM275 94q29 0 52.5 13t39 36t19.5 53q7 45 12 80t5 53q0 41 -22.5 64.5
t-62.5 23.5q-29 0 -52.5 -12.5t-39 -35.5t-20.5 -54q-7 -44 -11.5 -79t-4.5 -54q0 -40 22.5 -64t62.5 -24zM317 782l-102 142l2 3h127l72 -145h-99zM148 591l158 146h108l118 -146h-103l-76 76l-98 -76h-107z" />
    <glyph glyph-name="uni1ED5" unicode="&#x1ed5;" horiz-adv-x="601" 
d="M258 -10q-71 0 -122.5 26t-79.5 73.5t-28 112.5q0 61 17.5 118.5t53.5 102.5t92 71.5t131 26.5h14q70 0 121.5 -26t79.5 -73t28 -113q0 -61 -17.5 -118t-54 -102.5t-92 -72t-131.5 -26.5h-12zM275 94q29 0 52.5 13t39 36t19.5 53q7 45 12 80t5 53q0 41 -22.5 64.5
t-62.5 23.5q-29 0 -52.5 -12.5t-39 -35.5t-20.5 -54q-7 -44 -11.5 -79t-4.5 -54q0 -40 22.5 -64t62.5 -24zM345 778l8 56q26 3 41.5 15.5t15.5 32.5q0 14 -9.5 20.5t-27.5 6.5q-11 0 -25.5 -2.5t-31.5 -7.5l10 74q16 5 31.5 6.5t29.5 1.5q42 0 69 -20t27 -58
q0 -36 -21 -63.5t-52.5 -43.5t-64.5 -18zM148 591l157 146h109l118 -146h-103l-77 76l-97 -76h-107z" />
    <glyph glyph-name="uni1ED7" unicode="&#x1ed7;" horiz-adv-x="601" 
d="M258 -10q-71 0 -122.5 26t-79.5 73.5t-28 112.5q0 61 17.5 118.5t53.5 102.5t92 71.5t131 26.5h14q70 0 121.5 -26t79.5 -73t28 -113q0 -61 -17.5 -118t-54 -102.5t-92 -72t-131.5 -26.5h-12zM275 94q29 0 52.5 13t39 36t19.5 53q7 45 12 80t5 53q0 41 -22.5 64.5
t-62.5 23.5q-29 0 -52.5 -12.5t-39 -35.5t-20.5 -54q-7 -44 -11.5 -79t-4.5 -54q0 -40 22.5 -64t62.5 -24zM175 776q5 35 23 64t47.5 46.5t65.5 17.5q33 0 55 -9t41.5 -18t44.5 -9q19 0 33.5 9.5t21.5 26.5h65q-5 -35 -23 -64t-47 -46.5t-66 -17.5q-32 0 -53.5 8.5
t-40.5 17.5t-46 10q-20 0 -34 -10t-22 -26h-65zM147 591l158 146h108l118 -146h-103l-76 76l-98 -76h-107z" />
    <glyph glyph-name="uni020D" unicode="&#x20d;" horiz-adv-x="601" 
d="M258 -10q-71 0 -122.5 26t-79.5 73.5t-28 112.5q0 61 17.5 118.5t53.5 102.5t92 71.5t131 26.5h14q70 0 121.5 -26t79.5 -73t28 -113q0 -61 -17.5 -118t-54 -102.5t-92 -72t-131.5 -26.5h-12zM275 94q29 0 52.5 13t39 36t19.5 53q7 45 12 80t5 53q0 41 -22.5 64.5
t-62.5 23.5q-29 0 -52.5 -12.5t-39 -35.5t-20.5 -54q-7 -44 -11.5 -79t-4.5 -54q0 -40 22.5 -64t62.5 -24zM395 592l-102 142l4 3h127l73 -145h-102zM199 592l-102 142l2 3h129l72 -145h-101z" />
    <glyph glyph-name="odieresis" unicode="&#xf6;" horiz-adv-x="601" 
d="M258 -10q-71 0 -122.5 26t-79.5 73.5t-28 112.5q0 61 17.5 118.5t53.5 102.5t92 71.5t131 26.5h14q70 0 121.5 -26t79.5 -73t28 -113q0 -61 -17.5 -118t-54 -102.5t-92 -72t-131.5 -26.5h-12zM275 94q29 0 52.5 13t39 36t19.5 53q7 45 12 80t5 53q0 41 -22.5 64.5
t-62.5 23.5q-29 0 -52.5 -12.5t-39 -35.5t-20.5 -54q-7 -44 -11.5 -79t-4.5 -54q0 -40 22.5 -64t62.5 -24zM135 596l18 134h151l-19 -134h-150zM396 596l18 134h151l-19 -134h-150z" />
    <glyph glyph-name="uni022B" unicode="&#x22b;" horiz-adv-x="601" 
d="M258 -10q-71 0 -122.5 26t-79.5 73.5t-28 112.5q0 61 17.5 118.5t53.5 102.5t92 71.5t131 26.5h14q70 0 121.5 -26t79.5 -73t28 -113q0 -61 -17.5 -118t-54 -102.5t-92 -72t-131.5 -26.5h-12zM275 94q29 0 52.5 13t39 36t19.5 53q7 45 12 80t5 53q0 41 -22.5 64.5
t-62.5 23.5q-29 0 -52.5 -12.5t-39 -35.5t-20.5 -54q-7 -44 -11.5 -79t-4.5 -54q0 -40 22.5 -64t62.5 -24zM196 771l12 88h336l-13 -88h-335zM174 604l17 121h124l-17 -121h-124zM382 604l17 121h124l-17 -121h-124z" />
    <glyph glyph-name="uni0231" unicode="&#x231;" horiz-adv-x="601" 
d="M258 -10q-71 0 -122.5 26t-79.5 73.5t-28 112.5q0 61 17.5 118.5t53.5 102.5t92 71.5t131 26.5h14q70 0 121.5 -26t79.5 -73t28 -113q0 -61 -17.5 -118t-54 -102.5t-92 -72t-131.5 -26.5h-12zM275 94q29 0 52.5 13t39 36t19.5 53q7 45 12 80t5 53q0 41 -22.5 64.5
t-62.5 23.5q-29 0 -52.5 -12.5t-39 -35.5t-20.5 -54q-7 -44 -11.5 -79t-4.5 -54q0 -40 22.5 -64t62.5 -24zM199 770l13 88h329l-12 -88h-330zM278 603l17 121h124l-17 -121h-124z" />
    <glyph glyph-name="uni1ECD" unicode="&#x1ecd;" horiz-adv-x="601" 
d="M258 -10q-71 0 -122.5 26t-79.5 73.5t-28 112.5q0 61 17.5 118.5t53.5 102.5t92 71.5t131 26.5h14q70 0 121.5 -26t79.5 -73t28 -113q0 -61 -17.5 -118t-54 -102.5t-92 -72t-131.5 -26.5h-12zM275 94q29 0 52.5 13t39 36t19.5 53q7 45 12 80t5 53q0 41 -22.5 64.5
t-62.5 23.5q-29 0 -52.5 -12.5t-39 -35.5t-20.5 -54q-7 -44 -11.5 -79t-4.5 -54q0 -40 22.5 -64t62.5 -24zM172 -206l18 128h128l-18 -128h-128z" />
    <glyph glyph-name="ograve" unicode="&#xf2;" horiz-adv-x="601" 
d="M258 -10q-71 0 -122.5 26t-79.5 73.5t-28 112.5q0 61 17.5 118.5t53.5 102.5t92 71.5t131 26.5h14q70 0 121.5 -26t79.5 -73t28 -113q0 -61 -17.5 -118t-54 -102.5t-92 -72t-131.5 -26.5h-12zM275 94q29 0 52.5 13t39 36t19.5 53q7 45 12 80t5 53q0 41 -22.5 64.5
t-62.5 23.5q-29 0 -52.5 -12.5t-39 -35.5t-20.5 -54q-7 -44 -11.5 -79t-4.5 -54q0 -40 22.5 -64t62.5 -24zM276 586l-90 171l2 3h127l60 -174h-99z" />
    <glyph glyph-name="uni1ECF" unicode="&#x1ecf;" horiz-adv-x="601" 
d="M258 -10q-71 0 -122.5 26t-79.5 73.5t-28 112.5q0 61 17.5 118.5t53.5 102.5t92 71.5t131 26.5h14q70 0 121.5 -26t79.5 -73t28 -113q0 -61 -17.5 -118t-54 -102.5t-92 -72t-131.5 -26.5h-12zM275 94q29 0 52.5 13t39 36t19.5 53q7 45 12 80t5 53q0 41 -22.5 64.5
t-62.5 23.5q-29 0 -52.5 -12.5t-39 -35.5t-20.5 -54q-7 -44 -11.5 -79t-4.5 -54q0 -40 22.5 -64t62.5 -24zM315 570l10 70q31 3 50 17.5t19 39.5q0 16 -11.5 24.5t-33.5 8.5q-13 0 -31 -2.5t-39 -9.5l13 91q20 6 39 8t37 2q52 0 84.5 -24.5t32.5 -70.5q0 -43 -25 -77.5
t-64 -54.5t-81 -22z" />
    <glyph glyph-name="ohorn" unicode="&#x1a1;" horiz-adv-x="601" 
d="M258 -10q-71 0 -122.5 26t-79.5 73.5t-28 112.5q0 61 17.5 118.5t53.5 102.5t92 71.5t131 26.5h14q70 0 121.5 -26t79.5 -73t28 -113q0 -61 -17.5 -118t-54 -102.5t-92 -72t-131.5 -26.5h-12zM275 94q29 0 52.5 13t39 36t19.5 53q7 45 12 80t5 53q0 41 -22.5 64.5
t-62.5 23.5q-29 0 -52.5 -12.5t-39 -35.5t-20.5 -54q-7 -44 -11.5 -79t-4.5 -54q0 -40 22.5 -64t62.5 -24zM450 394l12 85q50 8 72.5 41t31.5 97h135q-8 -55 -43 -103.5t-89 -81t-119 -38.5z" />
    <glyph glyph-name="uni1EDB" unicode="&#x1edb;" horiz-adv-x="601" 
d="M258 -10q-71 0 -122.5 26t-79.5 73.5t-28 112.5q0 61 17.5 118.5t53.5 102.5t92 71.5t131 26.5h14q70 0 121.5 -26t79.5 -73t28 -113q0 -61 -17.5 -118t-54 -102.5t-92 -72t-131.5 -26.5h-12zM275 94q29 0 52.5 13t39 36t19.5 53q7 45 12 80t5 53q0 41 -22.5 64.5
t-62.5 23.5q-29 0 -52.5 -12.5t-39 -35.5t-20.5 -54q-7 -44 -11.5 -79t-4.5 -54q0 -40 22.5 -64t62.5 -24zM450 394l12 85q50 8 72.5 41t31.5 97h135q-8 -55 -43 -103.5t-89 -81t-119 -38.5zM279 586l110 174h134l1 -3l-139 -171h-106z" />
    <glyph glyph-name="uni1EE3" unicode="&#x1ee3;" horiz-adv-x="601" 
d="M258 -10q-71 0 -122.5 26t-79.5 73.5t-28 112.5q0 61 17.5 118.5t53.5 102.5t92 71.5t131 26.5h14q70 0 121.5 -26t79.5 -73t28 -113q0 -61 -17.5 -118t-54 -102.5t-92 -72t-131.5 -26.5h-12zM275 94q29 0 52.5 13t39 36t19.5 53q7 45 12 80t5 53q0 41 -22.5 64.5
t-62.5 23.5q-29 0 -52.5 -12.5t-39 -35.5t-20.5 -54q-7 -44 -11.5 -79t-4.5 -54q0 -40 22.5 -64t62.5 -24zM450 394l12 85q50 8 72.5 41t31.5 97h135q-8 -55 -43 -103.5t-89 -81t-119 -38.5zM172 -206l18 128h128l-18 -128h-128z" />
    <glyph glyph-name="uni1EDD" unicode="&#x1edd;" horiz-adv-x="601" 
d="M258 -10q-71 0 -122.5 26t-79.5 73.5t-28 112.5q0 61 17.5 118.5t53.5 102.5t92 71.5t131 26.5h14q70 0 121.5 -26t79.5 -73t28 -113q0 -61 -17.5 -118t-54 -102.5t-92 -72t-131.5 -26.5h-12zM275 94q29 0 52.5 13t39 36t19.5 53q7 45 12 80t5 53q0 41 -22.5 64.5
t-62.5 23.5q-29 0 -52.5 -12.5t-39 -35.5t-20.5 -54q-7 -44 -11.5 -79t-4.5 -54q0 -40 22.5 -64t62.5 -24zM450 394l12 85q50 8 72.5 41t31.5 97h135q-8 -55 -43 -103.5t-89 -81t-119 -38.5zM274 586l-90 171l2 3h127l60 -174h-99z" />
    <glyph glyph-name="uni1EDF" unicode="&#x1edf;" horiz-adv-x="601" 
d="M258 -10q-71 0 -122.5 26t-79.5 73.5t-28 112.5q0 61 17.5 118.5t53.5 102.5t92 71.5t131 26.5h14q70 0 121.5 -26t79.5 -73t28 -113q0 -61 -17.5 -118t-54 -102.5t-92 -72t-131.5 -26.5h-12zM275 94q29 0 52.5 13t39 36t19.5 53q7 45 12 80t5 53q0 41 -22.5 64.5
t-62.5 23.5q-29 0 -52.5 -12.5t-39 -35.5t-20.5 -54q-7 -44 -11.5 -79t-4.5 -54q0 -40 22.5 -64t62.5 -24zM450 394l12 85q50 8 72.5 41t31.5 97h135q-8 -55 -43 -103.5t-89 -81t-119 -38.5zM313 570l10 70q31 3 50 17.5t19 39.5q0 16 -11.5 24.5t-33.5 8.5q-13 0 -31 -2.5
t-39 -9.5l13 91q20 6 39 8t37 2q52 0 84.5 -24.5t32.5 -70.5q0 -43 -25 -77.5t-64 -54.5t-81 -22z" />
    <glyph glyph-name="uni1EE1" unicode="&#x1ee1;" horiz-adv-x="601" 
d="M258 -10q-71 0 -122.5 26t-79.5 73.5t-28 112.5q0 61 17.5 118.5t53.5 102.5t92 71.5t131 26.5h14q70 0 121.5 -26t79.5 -73t28 -113q0 -61 -17.5 -118t-54 -102.5t-92 -72t-131.5 -26.5h-12zM275 94q29 0 52.5 13t39 36t19.5 53q7 45 12 80t5 53q0 41 -22.5 64.5
t-62.5 23.5q-29 0 -52.5 -12.5t-39 -35.5t-20.5 -54q-7 -44 -11.5 -79t-4.5 -54q0 -40 22.5 -64t62.5 -24zM450 394l12 85q50 8 72.5 41t31.5 97h135q-8 -55 -43 -103.5t-89 -81t-119 -38.5zM132 591q9 42 27.5 77.5t46.5 56t66 20.5q37 0 63.5 -14t48.5 -28.5t45 -14.5
t37.5 15.5t23.5 42.5h69q-8 -42 -26.5 -77.5t-46.5 -56.5t-66 -21q-37 0 -64.5 14.5t-49.5 29t-45 14.5q-22 0 -36 -15.5t-24 -42.5h-69z" />
    <glyph glyph-name="ohungarumlaut" unicode="&#x151;" horiz-adv-x="601" 
d="M258 -10q-71 0 -122.5 26t-79.5 73.5t-28 112.5q0 61 17.5 118.5t53.5 102.5t92 71.5t131 26.5h14q70 0 121.5 -26t79.5 -73t28 -113q0 -61 -17.5 -118t-54 -102.5t-92 -72t-131.5 -26.5h-12zM275 94q29 0 52.5 13t39 36t19.5 53q7 45 12 80t5 53q0 41 -22.5 64.5
t-62.5 23.5q-29 0 -52.5 -12.5t-39 -35.5t-20.5 -54q-7 -44 -11.5 -79t-4.5 -54q0 -40 22.5 -64t62.5 -24zM376 592l113 145h129l2 -3l-142 -142h-102zM180 592l112 145h127l4 -3l-141 -142h-102z" />
    <glyph glyph-name="uni020F" unicode="&#x20f;" horiz-adv-x="601" 
d="M258 -10q-71 0 -122.5 26t-79.5 73.5t-28 112.5q0 61 17.5 118.5t53.5 102.5t92 71.5t131 26.5h14q70 0 121.5 -26t79.5 -73t28 -113q0 -61 -17.5 -118t-54 -102.5t-92 -72t-131.5 -26.5h-12zM275 94q29 0 52.5 13t39 36t19.5 53q7 45 12 80t5 53q0 41 -22.5 64.5
t-62.5 23.5q-29 0 -52.5 -12.5t-39 -35.5t-20.5 -54q-7 -44 -11.5 -79t-4.5 -54q0 -40 22.5 -64t62.5 -24zM151 596q6 39 31 70t68.5 48.5t102.5 17.5q62 0 102.5 -17.5t58.5 -48.5t12 -70h-87q-3 28 -24.5 42t-67.5 14q-45 0 -71.5 -14t-37.5 -42h-87z" />
    <glyph glyph-name="omacron" unicode="&#x14d;" horiz-adv-x="601" 
d="M258 -10q-71 0 -122.5 26t-79.5 73.5t-28 112.5q0 61 17.5 118.5t53.5 102.5t92 71.5t131 26.5h14q70 0 121.5 -26t79.5 -73t28 -113q0 -61 -17.5 -118t-54 -102.5t-92 -72t-131.5 -26.5h-12zM275 94q29 0 52.5 13t39 36t19.5 53q7 45 12 80t5 53q0 41 -22.5 64.5
t-62.5 23.5q-29 0 -52.5 -12.5t-39 -35.5t-20.5 -54q-7 -44 -11.5 -79t-4.5 -54q0 -40 22.5 -64t62.5 -24zM170 613l12 83h343l-12 -83h-343z" />
    <glyph glyph-name="uni01EB" unicode="&#x1eb;" horiz-adv-x="601" 
d="M258 -10q-71 0 -122.5 26t-79.5 73.5t-28 112.5q0 61 17.5 118.5t53.5 102.5t92 71.5t131 26.5h14q70 0 121.5 -26t79.5 -73t28 -113q0 -61 -17.5 -118t-54 -102.5t-92 -72t-131.5 -26.5h-12zM275 94q29 0 52.5 13t39 36t19.5 53q7 45 12 80t5 53q0 41 -22.5 64.5
t-62.5 23.5q-29 0 -52.5 -12.5t-39 -35.5t-20.5 -54q-7 -44 -11.5 -79t-4.5 -54q0 -40 22.5 -64t62.5 -24zM303 -145q-36 0 -64 14.5t-28 49.5q0 28 17 49t38 33h91q-23 -12 -37.5 -26.5t-14.5 -34.5q0 -15 10.5 -21t24.5 -6q15 0 31.5 4t31.5 9l7 -44q-24 -13 -52 -20
t-55 -7z" />
    <glyph glyph-name="oslash" unicode="&#xf8;" horiz-adv-x="601" 
d="M258 -10q-71 0 -122.5 26t-79.5 73.5t-28 112.5q0 61 17.5 118.5t53.5 102.5t92 71.5t131 26.5h14q70 0 121.5 -26t79.5 -73t28 -113q0 -61 -17.5 -118t-54 -102.5t-92 -72t-131.5 -26.5h-12zM275 94q29 0 52.5 13t39 36t19.5 53q7 45 12 80t5 53q0 41 -22.5 64.5
t-62.5 23.5q-29 0 -52.5 -12.5t-39 -35.5t-20.5 -54q-7 -44 -11.5 -79t-4.5 -54q0 -40 22.5 -64t62.5 -24zM16 -54l481 624h80l-482 -624h-79z" />
    <glyph glyph-name="oslashacute" unicode="&#x1ff;" horiz-adv-x="601" 
d="M258 -10q-71 0 -122.5 26t-79.5 73.5t-28 112.5q0 61 17.5 118.5t53.5 102.5t92 71.5t131 26.5h14q70 0 121.5 -26t79.5 -73t28 -113q0 -61 -17.5 -118t-54 -102.5t-92 -72t-131.5 -26.5h-12zM275 94q29 0 52.5 13t39 36t19.5 53q7 45 12 80t5 53q0 41 -22.5 64.5
t-62.5 23.5q-29 0 -52.5 -12.5t-39 -35.5t-20.5 -54q-7 -44 -11.5 -79t-4.5 -54q0 -40 22.5 -64t62.5 -24zM16 -54l481 624h80l-482 -624h-79zM279 586l110 174h134l1 -3l-139 -171h-106z" />
    <glyph glyph-name="otilde" unicode="&#xf5;" horiz-adv-x="601" 
d="M258 -10q-71 0 -122.5 26t-79.5 73.5t-28 112.5q0 61 17.5 118.5t53.5 102.5t92 71.5t131 26.5h14q70 0 121.5 -26t79.5 -73t28 -113q0 -61 -17.5 -118t-54 -102.5t-92 -72t-131.5 -26.5h-12zM275 94q29 0 52.5 13t39 36t19.5 53q7 45 12 80t5 53q0 41 -22.5 64.5
t-62.5 23.5q-29 0 -52.5 -12.5t-39 -35.5t-20.5 -54q-7 -44 -11.5 -79t-4.5 -54q0 -40 22.5 -64t62.5 -24zM135 591q9 42 27.5 77.5t46.5 56t66 20.5q37 0 63.5 -14t48.5 -28.5t45 -14.5t37.5 15.5t23.5 42.5h69q-8 -42 -26.5 -77.5t-46.5 -56.5t-66 -21q-37 0 -64.5 14.5
t-49.5 29t-45 14.5q-22 0 -36 -15.5t-24 -42.5h-69z" />
    <glyph glyph-name="uni022D" unicode="&#x22d;" horiz-adv-x="601" 
d="M258 -10q-71 0 -122.5 26t-79.5 73.5t-28 112.5q0 61 17.5 118.5t53.5 102.5t92 71.5t131 26.5h14q70 0 121.5 -26t79.5 -73t28 -113q0 -61 -17.5 -118t-54 -102.5t-92 -72t-131.5 -26.5h-12zM275 94q29 0 52.5 13t39 36t19.5 53q7 45 12 80t5 53q0 41 -22.5 64.5
t-62.5 23.5q-29 0 -52.5 -12.5t-39 -35.5t-20.5 -54q-7 -44 -11.5 -79t-4.5 -54q0 -40 22.5 -64t62.5 -24zM135 597q6 37 25 67.5t50 49t69 18.5q34 0 58.5 -9.5t46 -19t47.5 -9.5q21 0 36 10.5t23 27.5h68q-5 -37 -24.5 -67.5t-49.5 -49t-69 -18.5q-34 0 -58 9t-45.5 18.5
t-49.5 10.5q-20 0 -35 -10.5t-23 -27.5h-69zM185 784l11 79h355l-11 -79h-355z" />
    <glyph glyph-name="oe" unicode="&#x153;" horiz-adv-x="948" 
d="M257 -10q-71 0 -122.5 25t-79.5 71.5t-28 112.5q0 61 17.5 118.5t54 103.5t92.5 73t132 27h14q53 0 96.5 -15.5t72.5 -45.5q36 29 82.5 45t101.5 16h18q65 0 111 -23t70.5 -64.5t24.5 -97.5q0 -15 -1.5 -30.5t-4 -33.5t-6.5 -41h-343q-3 -14 -4.5 -25.5t-1.5 -22.5
q0 -40 23 -64.5t66 -24.5q34 0 56 14t34.5 36.5t15.5 46.5h148q-9 -60 -44.5 -105.5t-91.5 -70.5t-128 -25h-12q-52 0 -95.5 15.5t-72.5 45.5q-35 -28 -80.5 -44.5t-102.5 -16.5h-12zM273 94q30 0 53 13t38.5 36.5t20.5 52.5q4 25 8 51t6.5 48t2.5 33q0 39 -21 64t-62 25
q-29 0 -52.5 -12.5t-39 -35.5t-20.5 -54q-8 -44 -13 -79t-5 -54q0 -40 22.5 -64t61.5 -24zM571 313h186q1 7 1.5 13t0.5 14q0 35 -21 56t-57 21q-42 0 -71.5 -27t-38.5 -77z" />
    <glyph glyph-name="p" unicode="p" horiz-adv-x="594" 
d="M1 -181l96 692h125l7 -63q28 31 64.5 52t86.5 21q78 0 129 -48.5t51 -150.5q0 -55 -13.5 -113.5t-42 -108t-74.5 -80t-111 -30.5q-49 0 -81 20t-46 48l-34 -239h-157zM284 96q30 0 51.5 13t34.5 36t18 53q7 45 11.5 81.5t4.5 49.5q0 42 -19 64.5t-56 22.5
q-26 0 -48 -13.5t-36 -37t-19 -54.5q-7 -45 -11.5 -79.5t-4.5 -52.5q0 -26 8.5 -45t25 -28.5t40.5 -9.5z" />
    <glyph glyph-name="thorn" unicode="&#xfe;" horiz-adv-x="594" 
d="M1 -181l125 901h158l-36 -252q26 24 58.5 38.5t73.5 14.5q78 0 129 -48.5t51 -150.5q0 -55 -13.5 -113.5t-42 -108t-74.5 -80t-111 -30.5q-49 0 -81 20t-46 48l-34 -239h-157zM284 96q30 0 51.5 13t34.5 36t18 53q7 45 11.5 81.5t4.5 49.5q0 42 -19 64.5t-56 22.5
q-26 0 -48 -13.5t-36 -37t-19 -54.5q-7 -45 -11.5 -79.5t-4.5 -52.5q0 -26 8.5 -45t25 -28.5t40.5 -9.5z" />
    <glyph glyph-name="q" unicode="q" horiz-adv-x="594" 
d="M311 -180l33 237q-14 -15 -35.5 -30.5t-50 -26t-64.5 -10.5q-71 0 -117.5 49t-46.5 146q0 57 14 116t44 108.5t79 80.5t120 31q53 0 91.5 -20.5t61.5 -63.5l69 74h57l-97 -691h-158zM261 96q28 0 49 13t35 37t19 55q5 32 8.5 58.5t5.5 45t2 26.5q0 41 -19.5 63t-56.5 22
q-28 0 -50 -14t-35 -39t-19 -57q-8 -55 -11 -84t-3 -43q0 -39 19.5 -61t55.5 -22z" />
    <glyph glyph-name="r" unicode="r" horiz-adv-x="497" 
d="M22 0l72 511h118l7 -75q3 5 14 18.5t30 29t47 26.5t63 11q61 0 92.5 -33t31.5 -87q0 -24 -4.5 -48.5t-10.5 -41.5h-131q2 10 2.5 19.5t0.5 15.5q0 16 -5.5 29.5t-17.5 21t-31 7.5q-17 0 -31 -7t-23.5 -19t-15 -27t-8.5 -32l-45 -319h-155z" />
    <glyph glyph-name="racute" unicode="&#x155;" horiz-adv-x="497" 
d="M22 0l72 511h118l7 -75q3 5 14 18.5t30 29t47 26.5t63 11q61 0 92.5 -33t31.5 -87q0 -24 -4.5 -48.5t-10.5 -41.5h-131q2 10 2.5 19.5t0.5 15.5q0 16 -5.5 29.5t-17.5 21t-31 7.5q-17 0 -31 -7t-23.5 -19t-15 -27t-8.5 -32l-45 -319h-155zM251 586l110 174h134l1 -3
l-139 -171h-106z" />
    <glyph glyph-name="rcaron" unicode="&#x159;" horiz-adv-x="497" 
d="M22 0l72 511h118l7 -75q3 5 14 18.5t30 29t47 26.5t63 11q61 0 92.5 -33t31.5 -87q0 -24 -4.5 -48.5t-10.5 -41.5h-131q2 10 2.5 19.5t0.5 15.5q0 16 -5.5 29.5t-17.5 21t-31 7.5q-17 0 -31 -7t-23.5 -19t-15 -27t-8.5 -32l-45 -319h-155zM524 762l-157 -179h-124
l-107 179h114l92 -158h-71l136 158h117z" />
    <glyph glyph-name="uni0157" unicode="&#x157;" horiz-adv-x="497" 
d="M22 0l72 511h118l7 -75q3 5 14 18.5t30 29t47 26.5t63 11q61 0 92.5 -33t31.5 -87q0 -24 -4.5 -48.5t-10.5 -41.5h-131q2 10 2.5 19.5t0.5 15.5q0 16 -5.5 29.5t-17.5 21t-31 7.5q-17 0 -31 -7t-23.5 -19t-15 -27t-8.5 -32l-45 -319h-155zM-19 -375l3 16q35 32 55 67.5
t25 72.5h-61l21 146h134l-18 -124q-6 -50 -29 -96.5t-60 -81.5h-70z" />
    <glyph glyph-name="uni0211" unicode="&#x211;" horiz-adv-x="497" 
d="M22 0l72 511h118l7 -75q3 5 14 18.5t30 29t47 26.5t63 11q61 0 92.5 -33t31.5 -87q0 -24 -4.5 -48.5t-10.5 -41.5h-131q2 10 2.5 19.5t0.5 15.5q0 16 -5.5 29.5t-17.5 21t-31 7.5q-17 0 -31 -7t-23.5 -19t-15 -27t-8.5 -32l-45 -319h-155zM365 592l-102 142l4 3h127
l73 -145h-102zM169 592l-102 142l2 3h129l72 -145h-101z" />
    <glyph glyph-name="uni0213" unicode="&#x213;" horiz-adv-x="497" 
d="M22 0l72 511h118l7 -75q3 5 14 18.5t30 29t47 26.5t63 11q61 0 92.5 -33t31.5 -87q0 -24 -4.5 -48.5t-10.5 -41.5h-131q2 10 2.5 19.5t0.5 15.5q0 16 -5.5 29.5t-17.5 21t-31 7.5q-17 0 -31 -7t-23.5 -19t-15 -27t-8.5 -32l-45 -319h-155zM121 596q6 39 31 70t68.5 48.5
t102.5 17.5q62 0 102.5 -17.5t58.5 -48.5t12 -70h-87q-3 28 -24.5 42t-67.5 14q-45 0 -71.5 -14t-37.5 -42h-87z" />
    <glyph glyph-name="s" unicode="s" horiz-adv-x="548" 
d="M216 -10q-66 0 -112.5 16t-70 46.5t-23.5 72.5q0 11 1 21.5t3 17.5h136q-1 -5 -1.5 -8t-0.5 -7q0 -21 14.5 -33t36.5 -17t45 -5q15 0 33.5 2.5t35.5 8.5t28.5 16t11.5 25q0 21 -21.5 31t-55.5 16.5t-72.5 14t-72.5 21.5t-55.5 41t-21.5 71q0 48 20 82t55 56t79.5 32
t93.5 10h11q39 0 76 -8t65.5 -24t45.5 -39t17 -52q0 -13 -2 -22t-4 -15h-137q1 3 1 6.5v5.5q0 14 -9.5 24t-27 16t-43.5 6q-19 0 -36.5 -3t-31.5 -9.5t-22.5 -15t-8.5 -20.5q0 -19 22 -28.5t56 -16t73 -14.5t73 -23t56 -41.5t22 -71.5t-18.5 -79.5t-53 -58t-83.5 -36
t-110 -12.5h-17z" />
    <glyph glyph-name="sacute" unicode="&#x15b;" horiz-adv-x="548" 
d="M216 -10q-66 0 -112.5 16t-70 46.5t-23.5 72.5q0 11 1 21.5t3 17.5h136q-1 -5 -1.5 -8t-0.5 -7q0 -21 14.5 -33t36.5 -17t45 -5q15 0 33.5 2.5t35.5 8.5t28.5 16t11.5 25q0 21 -21.5 31t-55.5 16.5t-72.5 14t-72.5 21.5t-55.5 41t-21.5 71q0 48 20 82t55 56t79.5 32
t93.5 10h11q39 0 76 -8t65.5 -24t45.5 -39t17 -52q0 -13 -2 -22t-4 -15h-137q1 3 1 6.5v5.5q0 14 -9.5 24t-27 16t-43.5 6q-19 0 -36.5 -3t-31.5 -9.5t-22.5 -15t-8.5 -20.5q0 -19 22 -28.5t56 -16t73 -14.5t73 -23t56 -41.5t22 -71.5t-18.5 -79.5t-53 -58t-83.5 -36
t-110 -12.5h-17zM254 586l110 174h134l1 -3l-139 -171h-106z" />
    <glyph glyph-name="scaron" unicode="&#x161;" horiz-adv-x="548" 
d="M216 -10q-66 0 -112.5 16t-70 46.5t-23.5 72.5q0 11 1 21.5t3 17.5h136q-1 -5 -1.5 -8t-0.5 -7q0 -21 14.5 -33t36.5 -17t45 -5q15 0 33.5 2.5t35.5 8.5t28.5 16t11.5 25q0 21 -21.5 31t-55.5 16.5t-72.5 14t-72.5 21.5t-55.5 41t-21.5 71q0 48 20 82t55 56t79.5 32
t93.5 10h11q39 0 76 -8t65.5 -24t45.5 -39t17 -52q0 -13 -2 -22t-4 -15h-137q1 3 1 6.5v5.5q0 14 -9.5 24t-27 16t-43.5 6q-19 0 -36.5 -3t-31.5 -9.5t-22.5 -15t-8.5 -20.5q0 -19 22 -28.5t56 -16t73 -14.5t73 -23t56 -41.5t22 -71.5t-18.5 -79.5t-53 -58t-83.5 -36
t-110 -12.5h-17zM527 762l-157 -179h-124l-107 179h114l92 -158h-71l136 158h117z" />
    <glyph glyph-name="scedilla" unicode="&#x15f;" horiz-adv-x="548" 
d="M216 -10q-66 0 -112.5 16t-70 46.5t-23.5 72.5q0 11 1 21.5t3 17.5h136q-1 -5 -1.5 -8t-0.5 -7q0 -21 14.5 -33t36.5 -17t45 -5q15 0 33.5 2.5t35.5 8.5t28.5 16t11.5 25q0 21 -21.5 31t-55.5 16.5t-72.5 14t-72.5 21.5t-55.5 41t-21.5 71q0 48 20 82t55 56t79.5 32
t93.5 10h11q39 0 76 -8t65.5 -24t45.5 -39t17 -52q0 -13 -2 -22t-4 -15h-137q1 3 1 6.5v5.5q0 14 -9.5 24t-27 16t-43.5 6q-19 0 -36.5 -3t-31.5 -9.5t-22.5 -15t-8.5 -20.5q0 -19 22 -28.5t56 -16t73 -14.5t73 -23t56 -41.5t22 -71.5t-18.5 -79.5t-53 -58t-83.5 -36
t-110 -12.5h-17zM199 -210q-29 0 -57 7.5t-47 21.5l31 56q12 -10 30 -18t46 -8q14 0 25.5 4t19 12.5t7.5 22.5q0 15 -8.5 20.5t-24.5 5.5h-22l9 56h34q37 0 66 -16.5t29 -55.5q0 -40 -22.5 -64t-54 -34t-61.5 -10z" />
    <glyph glyph-name="scircumflex" unicode="&#x15d;" horiz-adv-x="548" 
d="M216 -10q-66 0 -112.5 16t-70 46.5t-23.5 72.5q0 11 1 21.5t3 17.5h136q-1 -5 -1.5 -8t-0.5 -7q0 -21 14.5 -33t36.5 -17t45 -5q15 0 33.5 2.5t35.5 8.5t28.5 16t11.5 25q0 21 -21.5 31t-55.5 16.5t-72.5 14t-72.5 21.5t-55.5 41t-21.5 71q0 48 20 82t55 56t79.5 32
t93.5 10h11q39 0 76 -8t65.5 -24t45.5 -39t17 -52q0 -13 -2 -22t-4 -15h-137q1 3 1 6.5v5.5q0 14 -9.5 24t-27 16t-43.5 6q-19 0 -36.5 -3t-31.5 -9.5t-22.5 -15t-8.5 -20.5q0 -19 22 -28.5t56 -16t73 -14.5t73 -23t56 -41.5t22 -71.5t-18.5 -79.5t-53 -58t-83.5 -36
t-110 -12.5h-17zM117 581l157 179h123l107 -179h-113l-95 158h77l-139 -158h-117z" />
    <glyph glyph-name="uni0219" unicode="&#x219;" horiz-adv-x="548" 
d="M216 -10q-66 0 -112.5 16t-70 46.5t-23.5 72.5q0 11 1 21.5t3 17.5h136q-1 -5 -1.5 -8t-0.5 -7q0 -21 14.5 -33t36.5 -17t45 -5q15 0 33.5 2.5t35.5 8.5t28.5 16t11.5 25q0 21 -21.5 31t-55.5 16.5t-72.5 14t-72.5 21.5t-55.5 41t-21.5 71q0 48 20 82t55 56t79.5 32
t93.5 10h11q39 0 76 -8t65.5 -24t45.5 -39t17 -52q0 -13 -2 -22t-4 -15h-137q1 3 1 6.5v5.5q0 14 -9.5 24t-27 16t-43.5 6q-19 0 -36.5 -3t-31.5 -9.5t-22.5 -15t-8.5 -20.5q0 -19 22 -28.5t56 -16t73 -14.5t73 -23t56 -41.5t22 -71.5t-18.5 -79.5t-53 -58t-83.5 -36
t-110 -12.5h-17zM119 -375l3 16q35 32 55 67.5t25 72.5h-61l21 146h134l-18 -124q-6 -50 -29 -96.5t-60 -81.5h-70z" />
    <glyph glyph-name="uni1E63" unicode="&#x1e63;" horiz-adv-x="548" 
d="M216 -10q-66 0 -112.5 16t-70 46.5t-23.5 72.5q0 11 1 21.5t3 17.5h136q-1 -5 -1.5 -8t-0.5 -7q0 -21 14.5 -33t36.5 -17t45 -5q15 0 33.5 2.5t35.5 8.5t28.5 16t11.5 25q0 21 -21.5 31t-55.5 16.5t-72.5 14t-72.5 21.5t-55.5 41t-21.5 71q0 48 20 82t55 56t79.5 32
t93.5 10h11q39 0 76 -8t65.5 -24t45.5 -39t17 -52q0 -13 -2 -22t-4 -15h-137q1 3 1 6.5v5.5q0 14 -9.5 24t-27 16t-43.5 6q-19 0 -36.5 -3t-31.5 -9.5t-22.5 -15t-8.5 -20.5q0 -19 22 -28.5t56 -16t73 -14.5t73 -23t56 -41.5t22 -71.5t-18.5 -79.5t-53 -58t-83.5 -36
t-110 -12.5h-17zM144 -206l18 128h128l-18 -128h-128z" />
    <glyph glyph-name="germandbls" unicode="&#xdf;" horiz-adv-x="635" 
d="M40 -66l65 463h-61l17 114h60q12 72 52 120.5t98.5 72.5t123.5 24q40 0 78.5 -9t70 -28t50 -49t18.5 -71q0 -39 -15 -74.5t-42 -62t-63 -40.5l1 -5q45 -17 71 -58t26 -91q0 -71 -34.5 -125t-95 -84.5t-137.5 -30.5h-71l17 118h46q30 0 57 16.5t44.5 44.5t17.5 63
q0 38 -25 63t-65 25h-45l14 104h42q26 0 49 14t37.5 37.5t14.5 51.5q0 33 -20.5 53t-53.5 20q-40 0 -68.5 -26.5t-34.5 -68.5l-81 -581h-158z" />
    <glyph glyph-name="longs" unicode="&#x17f;" horiz-adv-x="385" 
d="M18 -185q-17 0 -37.5 2t-40.5 6.5t-33 11.5l13 96q11 -5 29.5 -9t30.5 -4q28 0 44.5 16t21.5 51l59 412h-62l16 114h62l10 72q7 53 32 85t63.5 46t85.5 14q16 0 37 -2t42 -6.5t34 -12.5l-13 -94q-12 5 -30 8.5t-31 3.5q-32 0 -46 -16t-19 -49l-83 -589
q-11 -81 -62 -118.5t-123 -37.5z" />
    <glyph glyph-name="t" unicode="t" horiz-adv-x="388" 
d="M201 -10q-64 0 -103.5 23t-39.5 80q0 12 3 40.5t9 69.5t13 90.5t15 103.5h-56l16 114h56l77 163h113l-32 -163h119l-16 -114h-119q-10 -70 -18.5 -125t-13 -90t-4.5 -44q0 -29 15 -37t35 -8q11 0 30.5 4.5t32.5 9.5l-13 -97q-15 -6 -36.5 -10.5t-43.5 -7t-39 -2.5z" />
    <glyph glyph-name="tbar" unicode="&#x167;" horiz-adv-x="388" 
d="M201 -10q-64 0 -103.5 23t-39.5 80q0 12 3 40.5t9 69.5t13 90.5t15 103.5h-56l16 114h56l77 163h113l-32 -163h119l-16 -114h-119q-10 -70 -18.5 -125t-13 -90t-4.5 -44q0 -29 15 -37t35 -8q11 0 30.5 4.5t32.5 9.5l-13 -97q-15 -6 -36.5 -10.5t-43.5 -7t-39 -2.5z
M16 212l16 113h334l-16 -113h-334z" />
    <glyph glyph-name="tcaron" unicode="&#x165;" horiz-adv-x="388" 
d="M201 -10q-64 0 -103.5 23t-39.5 80q0 12 3 40.5t9 69.5t13 90.5t15 103.5h-56l16 114h56l77 163h113l-32 -163h119l-16 -114h-119q-10 -70 -18.5 -125t-13 -90t-4.5 -44q0 -29 15 -37t35 -8q11 0 30.5 4.5t32.5 9.5l-13 -97q-15 -6 -36.5 -10.5t-43.5 -7t-39 -2.5z
M340 568l2 16q31 30 50.5 61.5t24.5 65.5h-58l19 135h127l-15 -114q-7 -47 -29 -88.5t-56 -75.5h-65z" />
    <glyph glyph-name="uni0163" unicode="&#x163;" horiz-adv-x="388" 
d="M201 -10q-64 0 -103.5 23t-39.5 80q0 12 3 40.5t9 69.5t13 90.5t15 103.5h-56l16 114h56l77 163h113l-32 -163h119l-16 -114h-119q-10 -70 -18.5 -125t-13 -90t-4.5 -44q0 -29 15 -37t35 -8q11 0 30.5 4.5t32.5 9.5l-13 -97q-15 -6 -36.5 -10.5t-43.5 -7t-39 -2.5z
M147 -210q-29 0 -57 7.5t-47 21.5l31 56q12 -10 30 -18t46 -8q14 0 25.5 4t19 12.5t7.5 22.5q0 15 -8.5 20.5t-24.5 5.5h-22l9 56h34q37 0 66 -16.5t29 -55.5q0 -40 -22.5 -64t-54 -34t-61.5 -10z" />
    <glyph glyph-name="uni021B" unicode="&#x21b;" horiz-adv-x="388" 
d="M201 -10q-64 0 -103.5 23t-39.5 80q0 12 3 40.5t9 69.5t13 90.5t15 103.5h-56l16 114h56l77 163h113l-32 -163h119l-16 -114h-119q-10 -70 -18.5 -125t-13 -90t-4.5 -44q0 -29 15 -37t35 -8q11 0 30.5 4.5t32.5 9.5l-13 -97q-15 -6 -36.5 -10.5t-43.5 -7t-39 -2.5z
M67 -375l3 16q35 32 55 67.5t25 72.5h-61l21 146h134l-18 -124q-6 -50 -29 -96.5t-60 -81.5h-70z" />
    <glyph glyph-name="uni1E6D" unicode="&#x1e6d;" horiz-adv-x="388" 
d="M201 -10q-64 0 -103.5 23t-39.5 80q0 12 3 40.5t9 69.5t13 90.5t15 103.5h-56l16 114h56l77 163h113l-32 -163h119l-16 -114h-119q-10 -70 -18.5 -125t-13 -90t-4.5 -44q0 -29 15 -37t35 -8q11 0 30.5 4.5t32.5 9.5l-13 -97q-15 -6 -36.5 -10.5t-43.5 -7t-39 -2.5z
M92 -206l18 128h128l-18 -128h-128z" />
    <glyph glyph-name="u" unicode="u" horiz-adv-x="621" 
d="M190 -10q-70 0 -109.5 35.5t-39.5 99.5q0 24 7 78.5t18 133.5t25 174h158q-14 -100 -24 -171t-15 -114t-5 -61q0 -31 15.5 -45.5t45.5 -14.5q27 0 47.5 13.5t34 35.5t17.5 47l43 310h158q-7 -50 -13.5 -94t-12 -82t-10 -69.5l-8 -56t-6 -42.5t-4 -29.5t-1.5 -16.5
q0 -14 8.5 -20.5t17.5 -6.5q10 0 21 3.5t20 7.5l-13 -93q-12 -7 -35.5 -14.5t-58.5 -7.5q-57 0 -82.5 21.5t-30.5 58.5q-13 -15 -36.5 -34t-56.5 -32.5t-75 -13.5z" />
    <glyph glyph-name="uacute" unicode="&#xfa;" horiz-adv-x="621" 
d="M190 -10q-70 0 -109.5 35.5t-39.5 99.5q0 24 7 78.5t18 133.5t25 174h158q-14 -100 -24 -171t-15 -114t-5 -61q0 -31 15.5 -45.5t45.5 -14.5q27 0 47.5 13.5t34 35.5t17.5 47l43 310h158q-7 -50 -13.5 -94t-12 -82t-10 -69.5l-8 -56t-6 -42.5t-4 -29.5t-1.5 -16.5
q0 -14 8.5 -20.5t17.5 -6.5q10 0 21 3.5t20 7.5l-13 -93q-12 -7 -35.5 -14.5t-58.5 -7.5q-57 0 -82.5 21.5t-30.5 58.5q-13 -15 -36.5 -34t-56.5 -32.5t-75 -13.5zM278 586l110 174h134l1 -3l-139 -171h-106z" />
    <glyph glyph-name="uni0289" unicode="&#x289;" horiz-adv-x="621" 
d="M13 354h595l-15 -111h-596zM190 -10q-70 0 -109.5 35.5t-39.5 99.5q0 24 7 78.5t18 133.5t25 174h158q-14 -100 -24 -171t-15 -114t-5 -61q0 -31 15.5 -45.5t45.5 -14.5q27 0 47.5 13.5t34 35.5t17.5 47l43 310h158q-7 -50 -13.5 -94t-12 -82t-10 -69.5l-8 -56t-6 -42.5
t-4 -29.5t-1.5 -16.5q0 -14 8.5 -20.5t17.5 -6.5q10 0 21 3.5t20 7.5l-13 -93q-12 -7 -35.5 -14.5t-58.5 -7.5q-57 0 -82.5 21.5t-30.5 58.5q-13 -15 -36.5 -34t-56.5 -32.5t-75 -13.5z" />
    <glyph glyph-name="ubreve" unicode="&#x16d;" horiz-adv-x="621" 
d="M190 -10q-70 0 -109.5 35.5t-39.5 99.5q0 24 7 78.5t18 133.5t25 174h158q-14 -100 -24 -171t-15 -114t-5 -61q0 -31 15.5 -45.5t45.5 -14.5q27 0 47.5 13.5t34 35.5t17.5 47l43 310h158q-7 -50 -13.5 -94t-12 -82t-10 -69.5l-8 -56t-6 -42.5t-4 -29.5t-1.5 -16.5
q0 -14 8.5 -20.5t17.5 -6.5q10 0 21 3.5t20 7.5l-13 -93q-12 -7 -35.5 -14.5t-58.5 -7.5q-57 0 -82.5 21.5t-30.5 58.5q-13 -15 -36.5 -34t-56.5 -32.5t-75 -13.5zM336 588q-60 0 -98 20.5t-54 55.5t-11 81h88q0 -39 20.5 -57.5t62.5 -18.5q44 0 69.5 18.5t38.5 57.5h87
q-8 -46 -34 -81t-68 -55.5t-101 -20.5z" />
    <glyph glyph-name="uni01D4" unicode="&#x1d4;" horiz-adv-x="621" 
d="M190 -10q-70 0 -109.5 35.5t-39.5 99.5q0 24 7 78.5t18 133.5t25 174h158q-14 -100 -24 -171t-15 -114t-5 -61q0 -31 15.5 -45.5t45.5 -14.5q27 0 47.5 13.5t34 35.5t17.5 47l43 310h158q-7 -50 -13.5 -94t-12 -82t-10 -69.5l-8 -56t-6 -42.5t-4 -29.5t-1.5 -16.5
q0 -14 8.5 -20.5t17.5 -6.5q10 0 21 3.5t20 7.5l-13 -93q-12 -7 -35.5 -14.5t-58.5 -7.5q-57 0 -82.5 21.5t-30.5 58.5q-13 -15 -36.5 -34t-56.5 -32.5t-75 -13.5zM551 762l-157 -179h-124l-107 179h114l92 -158h-71l136 158h117z" />
    <glyph glyph-name="ucircumflex" unicode="&#xfb;" horiz-adv-x="621" 
d="M190 -10q-70 0 -109.5 35.5t-39.5 99.5q0 24 7 78.5t18 133.5t25 174h158q-14 -100 -24 -171t-15 -114t-5 -61q0 -31 15.5 -45.5t45.5 -14.5q27 0 47.5 13.5t34 35.5t17.5 47l43 310h158q-7 -50 -13.5 -94t-12 -82t-10 -69.5l-8 -56t-6 -42.5t-4 -29.5t-1.5 -16.5
q0 -14 8.5 -20.5t17.5 -6.5q10 0 21 3.5t20 7.5l-13 -93q-12 -7 -35.5 -14.5t-58.5 -7.5q-57 0 -82.5 21.5t-30.5 58.5q-13 -15 -36.5 -34t-56.5 -32.5t-75 -13.5zM141 581l157 179h123l107 -179h-113l-95 158h77l-139 -158h-117z" />
    <glyph glyph-name="uni0215" unicode="&#x215;" horiz-adv-x="621" 
d="M190 -10q-70 0 -109.5 35.5t-39.5 99.5q0 24 7 78.5t18 133.5t25 174h158q-14 -100 -24 -171t-15 -114t-5 -61q0 -31 15.5 -45.5t45.5 -14.5q27 0 47.5 13.5t34 35.5t17.5 47l43 310h158q-7 -50 -13.5 -94t-12 -82t-10 -69.5l-8 -56t-6 -42.5t-4 -29.5t-1.5 -16.5
q0 -14 8.5 -20.5t17.5 -6.5q10 0 21 3.5t20 7.5l-13 -93q-12 -7 -35.5 -14.5t-58.5 -7.5q-57 0 -82.5 21.5t-30.5 58.5q-13 -15 -36.5 -34t-56.5 -32.5t-75 -13.5zM391 592l-102 142l4 3h127l73 -145h-102zM195 592l-102 142l2 3h129l72 -145h-101z" />
    <glyph glyph-name="udieresis" unicode="&#xfc;" horiz-adv-x="621" 
d="M190 -10q-70 0 -109.5 35.5t-39.5 99.5q0 24 7 78.5t18 133.5t25 174h158q-14 -100 -24 -171t-15 -114t-5 -61q0 -31 15.5 -45.5t45.5 -14.5q27 0 47.5 13.5t34 35.5t17.5 47l43 310h158q-7 -50 -13.5 -94t-12 -82t-10 -69.5l-8 -56t-6 -42.5t-4 -29.5t-1.5 -16.5
q0 -14 8.5 -20.5t17.5 -6.5q10 0 21 3.5t20 7.5l-13 -93q-12 -7 -35.5 -14.5t-58.5 -7.5q-57 0 -82.5 21.5t-30.5 58.5q-13 -15 -36.5 -34t-56.5 -32.5t-75 -13.5zM131 596l18 134h151l-19 -134h-150zM392 596l18 134h151l-19 -134h-150z" />
    <glyph glyph-name="uni01D8" unicode="&#x1d8;" horiz-adv-x="621" 
d="M190 -10q-70 0 -109.5 35.5t-39.5 99.5q0 24 7 78.5t18 133.5t25 174h158q-14 -100 -24 -171t-15 -114t-5 -61q0 -31 15.5 -45.5t45.5 -14.5q27 0 47.5 13.5t34 35.5t17.5 47l43 310h158q-7 -50 -13.5 -94t-12 -82t-10 -69.5l-8 -56t-6 -42.5t-4 -29.5t-1.5 -16.5
q0 -14 8.5 -20.5t17.5 -6.5q10 0 21 3.5t20 7.5l-13 -93q-12 -7 -35.5 -14.5t-58.5 -7.5q-57 0 -82.5 21.5t-30.5 58.5q-13 -15 -36.5 -34t-56.5 -32.5t-75 -13.5zM315 772l113 145h127l1 -3l-142 -142h-99zM173 604l17 121h124l-17 -121h-124zM381 604l17 121h123l-17 -121
h-123z" />
    <glyph glyph-name="uni01DA" unicode="&#x1da;" horiz-adv-x="621" 
d="M190 -10q-70 0 -109.5 35.5t-39.5 99.5q0 24 7 78.5t18 133.5t25 174h158q-14 -100 -24 -171t-15 -114t-5 -61q0 -31 15.5 -45.5t45.5 -14.5q27 0 47.5 13.5t34 35.5t17.5 47l43 310h158q-7 -50 -13.5 -94t-12 -82t-10 -69.5l-8 -56t-6 -42.5t-4 -29.5t-1.5 -16.5
q0 -14 8.5 -20.5t17.5 -6.5q10 0 21 3.5t20 7.5l-13 -93q-12 -7 -35.5 -14.5t-58.5 -7.5q-57 0 -82.5 21.5t-30.5 58.5q-13 -15 -36.5 -34t-56.5 -32.5t-75 -13.5zM307 771l-117 145h108l71 -82l93 82h112l-159 -145h-108zM171 604l17 121h124l-17 -121h-124zM379 604
l17 121h123l-17 -121h-123z" />
    <glyph glyph-name="uni01DC" unicode="&#x1dc;" horiz-adv-x="621" 
d="M190 -10q-70 0 -109.5 35.5t-39.5 99.5q0 24 7 78.5t18 133.5t25 174h158q-14 -100 -24 -171t-15 -114t-5 -61q0 -31 15.5 -45.5t45.5 -14.5q27 0 47.5 13.5t34 35.5t17.5 47l43 310h158q-7 -50 -13.5 -94t-12 -82t-10 -69.5l-8 -56t-6 -42.5t-4 -29.5t-1.5 -16.5
q0 -14 8.5 -20.5t17.5 -6.5q10 0 21 3.5t20 7.5l-13 -93q-12 -7 -35.5 -14.5t-58.5 -7.5q-57 0 -82.5 21.5t-30.5 58.5q-13 -15 -36.5 -34t-56.5 -32.5t-75 -13.5zM307 771l-102 142l2 3h127l72 -145h-99zM170 604l17 121h124l-17 -121h-124zM378 604l17 121h123l-17 -121
h-123z" />
    <glyph glyph-name="uni01D6" unicode="&#x1d6;" horiz-adv-x="621" 
d="M190 -10q-70 0 -109.5 35.5t-39.5 99.5q0 24 7 78.5t18 133.5t25 174h158q-14 -100 -24 -171t-15 -114t-5 -61q0 -31 15.5 -45.5t45.5 -14.5q27 0 47.5 13.5t34 35.5t17.5 47l43 310h158q-7 -50 -13.5 -94t-12 -82t-10 -69.5l-8 -56t-6 -42.5t-4 -29.5t-1.5 -16.5
q0 -14 8.5 -20.5t17.5 -6.5q10 0 21 3.5t20 7.5l-13 -93q-12 -7 -35.5 -14.5t-58.5 -7.5q-57 0 -82.5 21.5t-30.5 58.5q-13 -15 -36.5 -34t-56.5 -32.5t-75 -13.5zM192 771l12 88h336l-13 -88h-335zM170 604l17 121h124l-17 -121h-124zM378 604l17 121h124l-17 -121h-124z
" />
    <glyph glyph-name="uni1EE5" unicode="&#x1ee5;" horiz-adv-x="621" 
d="M190 -10q-70 0 -109.5 35.5t-39.5 99.5q0 24 7 78.5t18 133.5t25 174h158q-14 -100 -24 -171t-15 -114t-5 -61q0 -31 15.5 -45.5t45.5 -14.5q27 0 47.5 13.5t34 35.5t17.5 47l43 310h158q-7 -50 -13.5 -94t-12 -82t-10 -69.5l-8 -56t-6 -42.5t-4 -29.5t-1.5 -16.5
q0 -14 8.5 -20.5t17.5 -6.5q10 0 21 3.5t20 7.5l-13 -93q-12 -7 -35.5 -14.5t-58.5 -7.5q-57 0 -82.5 21.5t-30.5 58.5q-13 -15 -36.5 -34t-56.5 -32.5t-75 -13.5zM181 -206l18 128h128l-18 -128h-128z" />
    <glyph glyph-name="ugrave" unicode="&#xf9;" horiz-adv-x="621" 
d="M190 -10q-70 0 -109.5 35.5t-39.5 99.5q0 24 7 78.5t18 133.5t25 174h158q-14 -100 -24 -171t-15 -114t-5 -61q0 -31 15.5 -45.5t45.5 -14.5q27 0 47.5 13.5t34 35.5t17.5 47l43 310h158q-7 -50 -13.5 -94t-12 -82t-10 -69.5l-8 -56t-6 -42.5t-4 -29.5t-1.5 -16.5
q0 -14 8.5 -20.5t17.5 -6.5q10 0 21 3.5t20 7.5l-13 -93q-12 -7 -35.5 -14.5t-58.5 -7.5q-57 0 -82.5 21.5t-30.5 58.5q-13 -15 -36.5 -34t-56.5 -32.5t-75 -13.5zM272 586l-90 171l2 3h127l60 -174h-99z" />
    <glyph glyph-name="uni1EE7" unicode="&#x1ee7;" horiz-adv-x="621" 
d="M190 -10q-70 0 -109.5 35.5t-39.5 99.5q0 24 7 78.5t18 133.5t25 174h158q-14 -100 -24 -171t-15 -114t-5 -61q0 -31 15.5 -45.5t45.5 -14.5q27 0 47.5 13.5t34 35.5t17.5 47l43 310h158q-7 -50 -13.5 -94t-12 -82t-10 -69.5l-8 -56t-6 -42.5t-4 -29.5t-1.5 -16.5
q0 -14 8.5 -20.5t17.5 -6.5q10 0 21 3.5t20 7.5l-13 -93q-12 -7 -35.5 -14.5t-58.5 -7.5q-57 0 -82.5 21.5t-30.5 58.5q-13 -15 -36.5 -34t-56.5 -32.5t-75 -13.5zM311 570l10 70q31 3 50 17.5t19 39.5q0 16 -11.5 24.5t-33.5 8.5q-13 0 -31 -2.5t-39 -9.5l13 91q20 6 39 8
t37 2q52 0 84.5 -24.5t32.5 -70.5q0 -43 -25 -77.5t-64 -54.5t-81 -22z" />
    <glyph glyph-name="uhorn" unicode="&#x1b0;" horiz-adv-x="621" 
d="M190 -10q-70 0 -109.5 35.5t-39.5 99.5q0 24 7 78.5t18 133.5t25 174h158q-14 -100 -24 -171t-15 -114t-5 -61q0 -31 15.5 -45.5t45.5 -14.5q27 0 47.5 13.5t34 35.5t17.5 47l43 310h158q-7 -50 -13.5 -94t-12 -82t-10 -69.5l-8 -56t-6 -42.5t-4 -29.5t-1.5 -16.5
q0 -14 8.5 -20.5t17.5 -6.5q10 0 21 3.5t20 7.5l-13 -93q-12 -7 -35.5 -14.5t-58.5 -7.5q-57 0 -82.5 21.5t-30.5 58.5q-13 -15 -36.5 -34t-56.5 -32.5t-75 -13.5zM440 427l12 85q50 8 72.5 41t31.5 97h135q-8 -55 -43 -103.5t-89 -81t-119 -38.5z" />
    <glyph glyph-name="uni1EE9" unicode="&#x1ee9;" horiz-adv-x="621" 
d="M190 -10q-70 0 -109.5 35.5t-39.5 99.5q0 24 7 78.5t18 133.5t25 174h158q-14 -100 -24 -171t-15 -114t-5 -61q0 -31 15.5 -45.5t45.5 -14.5q27 0 47.5 13.5t34 35.5t17.5 47l43 310h158q-7 -50 -13.5 -94t-12 -82t-10 -69.5l-8 -56t-6 -42.5t-4 -29.5t-1.5 -16.5
q0 -14 8.5 -20.5t17.5 -6.5q10 0 21 3.5t20 7.5l-13 -93q-12 -7 -35.5 -14.5t-58.5 -7.5q-57 0 -82.5 21.5t-30.5 58.5q-13 -15 -36.5 -34t-56.5 -32.5t-75 -13.5zM440 427l12 85q50 8 72.5 41t31.5 97h135q-8 -55 -43 -103.5t-89 -81t-119 -38.5zM283 586l110 174h134l1 -3
l-139 -171h-106z" />
    <glyph glyph-name="uni1EF1" unicode="&#x1ef1;" horiz-adv-x="621" 
d="M190 -10q-70 0 -109.5 35.5t-39.5 99.5q0 24 7 78.5t18 133.5t25 174h158q-14 -100 -24 -171t-15 -114t-5 -61q0 -31 15.5 -45.5t45.5 -14.5q27 0 47.5 13.5t34 35.5t17.5 47l43 310h158q-7 -50 -13.5 -94t-12 -82t-10 -69.5l-8 -56t-6 -42.5t-4 -29.5t-1.5 -16.5
q0 -14 8.5 -20.5t17.5 -6.5q10 0 21 3.5t20 7.5l-13 -93q-12 -7 -35.5 -14.5t-58.5 -7.5q-57 0 -82.5 21.5t-30.5 58.5q-13 -15 -36.5 -34t-56.5 -32.5t-75 -13.5zM440 427l12 85q50 8 72.5 41t31.5 97h135q-8 -55 -43 -103.5t-89 -81t-119 -38.5zM181 -206l18 128h128
l-18 -128h-128z" />
    <glyph glyph-name="uni1EEB" unicode="&#x1eeb;" horiz-adv-x="621" 
d="M190 -10q-70 0 -109.5 35.5t-39.5 99.5q0 24 7 78.5t18 133.5t25 174h158q-14 -100 -24 -171t-15 -114t-5 -61q0 -31 15.5 -45.5t45.5 -14.5q27 0 47.5 13.5t34 35.5t17.5 47l43 310h158q-7 -50 -13.5 -94t-12 -82t-10 -69.5l-8 -56t-6 -42.5t-4 -29.5t-1.5 -16.5
q0 -14 8.5 -20.5t17.5 -6.5q10 0 21 3.5t20 7.5l-13 -93q-12 -7 -35.5 -14.5t-58.5 -7.5q-57 0 -82.5 21.5t-30.5 58.5q-13 -15 -36.5 -34t-56.5 -32.5t-75 -13.5zM440 427l12 85q50 8 72.5 41t31.5 97h135q-8 -55 -43 -103.5t-89 -81t-119 -38.5zM277 586l-90 171l2 3h127
l60 -174h-99z" />
    <glyph glyph-name="uni1EED" unicode="&#x1eed;" horiz-adv-x="621" 
d="M190 -10q-70 0 -109.5 35.5t-39.5 99.5q0 24 7 78.5t18 133.5t25 174h158q-14 -100 -24 -171t-15 -114t-5 -61q0 -31 15.5 -45.5t45.5 -14.5q27 0 47.5 13.5t34 35.5t17.5 47l43 310h158q-7 -50 -13.5 -94t-12 -82t-10 -69.5l-8 -56t-6 -42.5t-4 -29.5t-1.5 -16.5
q0 -14 8.5 -20.5t17.5 -6.5q10 0 21 3.5t20 7.5l-13 -93q-12 -7 -35.5 -14.5t-58.5 -7.5q-57 0 -82.5 21.5t-30.5 58.5q-13 -15 -36.5 -34t-56.5 -32.5t-75 -13.5zM440 427l12 85q50 8 72.5 41t31.5 97h135q-8 -55 -43 -103.5t-89 -81t-119 -38.5zM316 570l10 70
q31 3 50 17.5t19 39.5q0 16 -11.5 24.5t-33.5 8.5q-13 0 -31 -2.5t-39 -9.5l13 91q20 6 39 8t37 2q52 0 84.5 -24.5t32.5 -70.5q0 -43 -25 -77.5t-64 -54.5t-81 -22z" />
    <glyph glyph-name="uni1EEF" unicode="&#x1eef;" horiz-adv-x="621" 
d="M190 -10q-70 0 -110.5 35t-40.5 99q0 17 7 73t19 138t26 176h158q-14 -98 -24.5 -171t-16.5 -117t-6 -58q0 -31 17.5 -45.5t46.5 -14.5q25 0 45.5 12.5t35 33.5t17.5 46l44 314h158q-7 -50 -13.5 -94t-12 -82t-10 -69.5l-8 -56t-6 -42.5t-4 -29.5t-1.5 -16.5
q0 -14 8.5 -20.5t17.5 -6.5q10 0 21 3.5t20 7.5l-13 -93q-12 -7 -35.5 -14.5t-58.5 -7.5q-57 0 -82.5 21.5t-30.5 58.5q-13 -15 -36.5 -34t-56.5 -32.5t-75 -13.5zM135 590q4 32 25 61.5t52.5 48t69.5 18.5q31 0 54.5 -9.5t45 -19t46.5 -9.5q20 0 35 10.5t22 27.5h69
q-4 -32 -25 -61.5t-52.5 -48t-69.5 -18.5q-23 0 -41 5.5t-33.5 12.5t-32 13t-39.5 7q-20 0 -34.5 -10.5t-22.5 -27.5h-69zM440 427l17 84q50 8 72.5 41.5t31.5 97.5h130q-8 -55 -43 -104t-89 -81.5t-119 -37.5z" />
    <glyph glyph-name="uhungarumlaut" unicode="&#x171;" horiz-adv-x="621" 
d="M190 -10q-70 0 -109.5 35.5t-39.5 99.5q0 24 7 78.5t18 133.5t25 174h158q-14 -100 -24 -171t-15 -114t-5 -61q0 -31 15.5 -45.5t45.5 -14.5q27 0 47.5 13.5t34 35.5t17.5 47l43 310h158q-7 -50 -13.5 -94t-12 -82t-10 -69.5l-8 -56t-6 -42.5t-4 -29.5t-1.5 -16.5
q0 -14 8.5 -20.5t17.5 -6.5q10 0 21 3.5t20 7.5l-13 -93q-12 -7 -35.5 -14.5t-58.5 -7.5q-57 0 -82.5 21.5t-30.5 58.5q-13 -15 -36.5 -34t-56.5 -32.5t-75 -13.5zM372 592l113 145h129l2 -3l-142 -142h-102zM176 592l112 145h127l4 -3l-141 -142h-102z" />
    <glyph glyph-name="uni0217" unicode="&#x217;" horiz-adv-x="621" 
d="M190 -10q-70 0 -109.5 35.5t-39.5 99.5q0 24 7 78.5t18 133.5t25 174h158q-14 -100 -24 -171t-15 -114t-5 -61q0 -31 15.5 -45.5t45.5 -14.5q27 0 47.5 13.5t34 35.5t17.5 47l43 310h158q-7 -50 -13.5 -94t-12 -82t-10 -69.5l-8 -56t-6 -42.5t-4 -29.5t-1.5 -16.5
q0 -14 8.5 -20.5t17.5 -6.5q10 0 21 3.5t20 7.5l-13 -93q-12 -7 -35.5 -14.5t-58.5 -7.5q-57 0 -82.5 21.5t-30.5 58.5q-13 -15 -36.5 -34t-56.5 -32.5t-75 -13.5zM147 596q6 39 31 70t68.5 48.5t102.5 17.5q62 0 102.5 -17.5t58.5 -48.5t12 -70h-87q-3 28 -24.5 42
t-67.5 14q-45 0 -71.5 -14t-37.5 -42h-87z" />
    <glyph glyph-name="umacron" unicode="&#x16b;" horiz-adv-x="621" 
d="M190 -10q-70 0 -109.5 35.5t-39.5 99.5q0 24 7 78.5t18 133.5t25 174h158q-14 -100 -24 -171t-15 -114t-5 -61q0 -31 15.5 -45.5t45.5 -14.5q27 0 47.5 13.5t34 35.5t17.5 47l43 310h158q-7 -50 -13.5 -94t-12 -82t-10 -69.5l-8 -56t-6 -42.5t-4 -29.5t-1.5 -16.5
q0 -14 8.5 -20.5t17.5 -6.5q10 0 21 3.5t20 7.5l-13 -93q-12 -7 -35.5 -14.5t-58.5 -7.5q-57 0 -82.5 21.5t-30.5 58.5q-13 -15 -36.5 -34t-56.5 -32.5t-75 -13.5zM166 613l12 83h343l-12 -83h-343z" />
    <glyph glyph-name="uogonek" unicode="&#x173;" horiz-adv-x="621" 
d="M190 -10q-70 0 -109.5 35.5t-39.5 99.5q0 24 7 78.5t18 133.5t25 174h158q-14 -100 -24 -171t-15 -114t-5 -61q0 -31 15.5 -45.5t45.5 -14.5q27 0 47.5 13.5t34 35.5t17.5 47l43 310h158q-7 -50 -13.5 -94t-12 -82t-10 -69.5l-8 -56t-6 -42.5t-4 -29.5t-1.5 -16.5
q0 -14 8.5 -20.5t17.5 -6.5q10 0 21 3.5t20 7.5l-13 -93q-12 -7 -35.5 -14.5t-58.5 -7.5q-57 0 -82.5 21.5t-30.5 58.5q-13 -15 -36.5 -34t-56.5 -32.5t-75 -13.5zM485 -146q-36 0 -64 14.5t-28 49.5q0 28 17 49t38 33h91q-23 -12 -37.5 -26.5t-14.5 -34.5q0 -15 10.5 -21
t24.5 -6q15 0 31.5 4t31.5 9l7 -44q-24 -13 -52 -20t-55 -7z" />
    <glyph glyph-name="uring" unicode="&#x16f;" horiz-adv-x="621" 
d="M190 -10q-70 0 -109.5 35.5t-39.5 99.5q0 24 7 78.5t18 133.5t25 174h158q-14 -100 -24 -171t-15 -114t-5 -61q0 -31 15.5 -45.5t45.5 -14.5q27 0 47.5 13.5t34 35.5t17.5 47l43 310h158q-7 -50 -13.5 -94t-12 -82t-10 -69.5l-8 -56t-6 -42.5t-4 -29.5t-1.5 -16.5
q0 -14 8.5 -20.5t17.5 -6.5q10 0 21 3.5t20 7.5l-13 -93q-12 -7 -35.5 -14.5t-58.5 -7.5q-57 0 -82.5 21.5t-30.5 58.5q-13 -15 -36.5 -34t-56.5 -32.5t-75 -13.5zM332 582q-41 0 -66.5 23t-25.5 62q0 35 17 62.5t45 43t61 15.5q41 0 66 -23.5t25 -62.5q0 -35 -16.5 -62
t-44.5 -42.5t-61 -15.5zM341 643q21 0 34 15t13 34q0 15 -9.5 24.5t-25.5 9.5q-20 0 -33.5 -14.5t-13.5 -34.5q0 -15 9.5 -24.5t25.5 -9.5z" />
    <glyph glyph-name="utilde" unicode="&#x169;" horiz-adv-x="621" 
d="M190 -10q-70 0 -109.5 35.5t-39.5 99.5q0 24 7 78.5t18 133.5t25 174h158q-14 -100 -24 -171t-15 -114t-5 -61q0 -31 15.5 -45.5t45.5 -14.5q27 0 47.5 13.5t34 35.5t17.5 47l43 310h158q-7 -50 -13.5 -94t-12 -82t-10 -69.5l-8 -56t-6 -42.5t-4 -29.5t-1.5 -16.5
q0 -14 8.5 -20.5t17.5 -6.5q10 0 21 3.5t20 7.5l-13 -93q-12 -7 -35.5 -14.5t-58.5 -7.5q-57 0 -82.5 21.5t-30.5 58.5q-13 -15 -36.5 -34t-56.5 -32.5t-75 -13.5zM131 591q9 42 27.5 77.5t46.5 56t66 20.5q37 0 63.5 -14t48.5 -28.5t45 -14.5t37.5 15.5t23.5 42.5h69
q-8 -42 -26.5 -77.5t-46.5 -56.5t-66 -21q-37 0 -64.5 14.5t-49.5 29t-45 14.5q-22 0 -36 -15.5t-24 -42.5h-69z" />
    <glyph glyph-name="v" unicode="v" horiz-adv-x="541" 
d="M140 0l-105 511h162l58 -340h5l153 340h154l-248 -511h-179z" />
    <glyph glyph-name="w" unicode="w" horiz-adv-x="835" 
d="M122 0l-82 511h159l41 -310h6l128 310h156l41 -310h6l126 310h154l-225 -511h-176l-38 269h-6l-112 -269h-178z" />
    <glyph glyph-name="wacute" unicode="&#x1e83;" horiz-adv-x="835" 
d="M122 0l-82 511h159l41 -310h6l128 310h156l41 -310h6l126 310h154l-225 -511h-176l-38 269h-6l-112 -269h-178zM403 586l110 174h134l1 -3l-139 -171h-106z" />
    <glyph glyph-name="wcircumflex" unicode="&#x175;" horiz-adv-x="835" 
d="M122 0l-82 511h159l41 -310h6l128 310h156l41 -310h6l126 310h154l-225 -511h-176l-38 269h-6l-112 -269h-178zM266 581l157 179h123l107 -179h-113l-95 158h77l-139 -158h-117z" />
    <glyph glyph-name="wdieresis" unicode="&#x1e85;" horiz-adv-x="835" 
d="M122 0l-82 511h159l41 -310h6l128 310h156l41 -310h6l126 310h154l-225 -511h-176l-38 269h-6l-112 -269h-178zM256 596l18 134h151l-19 -134h-150zM517 596l18 134h151l-19 -134h-150z" />
    <glyph glyph-name="wgrave" unicode="&#x1e81;" horiz-adv-x="835" 
d="M122 0l-82 511h159l41 -310h6l128 310h156l41 -310h6l126 310h154l-225 -511h-176l-38 269h-6l-112 -269h-178zM397 586l-90 171l2 3h127l60 -174h-99z" />
    <glyph glyph-name="x" unicode="x" horiz-adv-x="559" 
d="M-37 0l214 266l-128 245h182l66 -139h4l105 139h170l-198 -246l138 -265h-183l-75 160h-4l-121 -160h-170z" />
    <glyph glyph-name="y" unicode="y" horiz-adv-x="537" 
d="M63 -186q-28 0 -50 3.5t-36 10.5l14 109q10 -5 29.5 -9.5t37.5 -4.5q24 0 42.5 11t33.5 32t26 49l-123 496h168l61 -308h7l141 308h155l-247 -481q-31 -60 -70 -109t-86.5 -78t-102.5 -29z" />
    <glyph glyph-name="yacute" unicode="&#xfd;" horiz-adv-x="537" 
d="M63 -186q-28 0 -50 3.5t-36 10.5l14 109q10 -5 29.5 -9.5t37.5 -4.5q24 0 42.5 11t33.5 32t26 49l-123 496h168l61 -308h7l141 308h155l-247 -481q-31 -60 -70 -109t-86.5 -78t-102.5 -29zM249 586l110 174h134l1 -3l-139 -171h-106z" />
    <glyph glyph-name="ycircumflex" unicode="&#x177;" horiz-adv-x="537" 
d="M63 -186q-28 0 -50 3.5t-36 10.5l14 109q10 -5 29.5 -9.5t37.5 -4.5q24 0 42.5 11t33.5 32t26 49l-123 496h168l61 -308h7l141 308h155l-247 -481q-31 -60 -70 -109t-86.5 -78t-102.5 -29zM112 581l157 179h123l107 -179h-113l-95 158h77l-139 -158h-117z" />
    <glyph glyph-name="ydieresis" unicode="&#xff;" horiz-adv-x="537" 
d="M63 -186q-28 0 -50 3.5t-36 10.5l14 109q10 -5 29.5 -9.5t37.5 -4.5q24 0 42.5 11t33.5 32t26 49l-123 496h168l61 -308h7l141 308h155l-247 -481q-31 -60 -70 -109t-86.5 -78t-102.5 -29zM102 596l18 134h151l-19 -134h-150zM363 596l18 134h151l-19 -134h-150z" />
    <glyph glyph-name="uni1EF5" unicode="&#x1ef5;" horiz-adv-x="537" 
d="M63 -186q-28 0 -50 3.5t-36 10.5l14 109q10 -5 29.5 -9.5t37.5 -4.5q24 0 42.5 11t33.5 32t26 49l-123 496h168l61 -308h7l141 308h155l-247 -481q-31 -60 -70 -109t-86.5 -78t-102.5 -29zM296 -181l18 128h128l-18 -128h-128z" />
    <glyph glyph-name="ygrave" unicode="&#x1ef3;" horiz-adv-x="537" 
d="M63 -186q-28 0 -50 3.5t-36 10.5l14 109q10 -5 29.5 -9.5t37.5 -4.5q24 0 42.5 11t33.5 32t26 49l-123 496h168l61 -308h7l141 308h155l-247 -481q-31 -60 -70 -109t-86.5 -78t-102.5 -29zM244 586l-90 171l2 3h127l60 -174h-99z" />
    <glyph glyph-name="uni1EF7" unicode="&#x1ef7;" horiz-adv-x="537" 
d="M63 -186q-28 0 -50 3.5t-36 10.5l14 109q10 -5 29.5 -9.5t37.5 -4.5q24 0 42.5 11t33.5 32t26 49l-123 496h168l61 -308h7l141 308h155l-247 -481q-31 -60 -70 -109t-86.5 -78t-102.5 -29zM283 570l10 70q31 3 50 17.5t19 39.5q0 16 -11.5 24.5t-33.5 8.5q-13 0 -31 -2.5
t-39 -9.5l13 91q20 6 39 8t37 2q52 0 84.5 -24.5t32.5 -70.5q0 -43 -25 -77.5t-64 -54.5t-81 -22z" />
    <glyph glyph-name="uni0233" unicode="&#x233;" horiz-adv-x="537" 
d="M63 -186q-28 0 -50 3.5t-36 10.5l14 109q10 -5 29.5 -9.5t37.5 -4.5q24 0 42.5 11t33.5 32t26 49l-123 496h168l61 -308h7l141 308h155l-247 -481q-31 -60 -70 -109t-86.5 -78t-102.5 -29zM137 613l12 83h343l-12 -83h-343z" />
    <glyph glyph-name="uni1EF9" unicode="&#x1ef9;" horiz-adv-x="537" 
d="M63 -186q-28 0 -50 3.5t-36 10.5l14 109q10 -5 29.5 -9.5t37.5 -4.5q24 0 42.5 11t33.5 32t26 49l-123 496h168l61 -308h7l141 308h155l-247 -481q-31 -60 -70 -109t-86.5 -78t-102.5 -29zM102 591q9 42 27.5 77.5t46.5 56t66 20.5q37 0 63.5 -14t48.5 -28.5t45 -14.5
t37.5 15.5t23.5 42.5h69q-8 -42 -26.5 -77.5t-46.5 -56.5t-66 -21q-37 0 -64.5 14.5t-49.5 29t-45 14.5q-22 0 -36 -15.5t-24 -42.5h-69z" />
    <glyph glyph-name="z" unicode="z" horiz-adv-x="486" 
d="M-10 0l7 54l261 352h-199l14 105h407l-7 -51l-262 -354h220l-14 -106h-427z" />
    <glyph glyph-name="zacute" unicode="&#x17a;" horiz-adv-x="486" 
d="M-10 0l7 54l261 352h-199l14 105h407l-7 -51l-262 -354h220l-14 -106h-427zM229 586l110 174h134l1 -3l-139 -171h-106z" />
    <glyph glyph-name="zcaron" unicode="&#x17e;" horiz-adv-x="486" 
d="M-10 0l7 54l261 352h-199l14 105h407l-7 -51l-262 -354h220l-14 -106h-427zM502 762l-157 -179h-124l-107 179h114l92 -158h-71l136 158h117z" />
    <glyph glyph-name="zdotaccent" unicode="&#x17c;" horiz-adv-x="486" 
d="M-10 0l7 54l261 352h-199l14 105h407l-7 -51l-262 -354h220l-14 -106h-427zM209 606l16 116h155l-16 -116h-155z" />
    <glyph glyph-name="cacute.loclPLK" horiz-adv-x="562" 
d="M245 -10q-65 0 -114 26.5t-76 74.5t-27 111q0 64 18 121.5t53.5 102t89 70t123.5 25.5h17q62 0 107.5 -22t71 -62.5t25.5 -95.5v-16.5t-2 -17.5h-143l2 16t1 16q0 35 -20 56.5t-56 21.5q-30 0 -53 -12.5t-37 -35.5t-19 -54q-7 -44 -11.5 -79t-4.5 -54q0 -36 19.5 -62
t62.5 -26q30 0 53 12t37.5 36.5t18.5 61.5h135q-10 -69 -45 -117t-89 -72.5t-120 -24.5h-17zM270 575l52 145h130l1 -3l-82 -142h-101z" />
    <glyph glyph-name="nacute.loclPLK" horiz-adv-x="596" 
d="M22 0l72 511h119l5 -74q16 19 40.5 38.5t59 32.5t81.5 13q70 0 110.5 -35t40.5 -98q0 -8 -1.5 -23t-5 -41t-9.5 -68l-15 -105t-22 -151h-158q13 86 21 144.5t13 95t8 57t4 30.5t1 16q0 30 -17 46.5t-47 16.5q-24 0 -45 -12t-35 -32.5t-18 -46.5l-44 -315h-158zM300 575
l52 145h130l1 -3l-82 -142h-101z" />
    <glyph glyph-name="oacute.loclPLK" horiz-adv-x="601" 
d="M258 -10q-71 0 -122.5 26t-79.5 73.5t-28 112.5q0 61 17.5 118.5t53.5 102.5t92 71.5t131 26.5h14q70 0 121.5 -26t79.5 -73t28 -113q0 -61 -17.5 -118t-54 -102.5t-92 -72t-131.5 -26.5h-12zM275 94q29 0 52.5 13t39 36t19.5 53q7 45 12 80t5 53q0 41 -22.5 64.5
t-62.5 23.5q-29 0 -52.5 -12.5t-39 -35.5t-20.5 -54q-7 -44 -11.5 -79t-4.5 -54q0 -40 22.5 -64t62.5 -24zM288 575l52 145h130l1 -3l-82 -142h-101z" />
    <glyph glyph-name="sacute.loclPLK" horiz-adv-x="548" 
d="M216 -10q-66 0 -112.5 16t-70 46.5t-23.5 72.5q0 11 1 21.5t3 17.5h136q-1 -5 -1.5 -8t-0.5 -7q0 -21 14.5 -33t36.5 -17t45 -5q15 0 33.5 2.5t35.5 8.5t28.5 16t11.5 25q0 21 -21.5 31t-55.5 16.5t-72.5 14t-72.5 21.5t-55.5 41t-21.5 71q0 48 20 82t55 56t79.5 32
t93.5 10h11q39 0 76 -8t65.5 -24t45.5 -39t17 -52q0 -13 -2 -22t-4 -15h-137q1 3 1 6.5v5.5q0 14 -9.5 24t-27 16t-43.5 6q-19 0 -36.5 -3t-31.5 -9.5t-22.5 -15t-8.5 -20.5q0 -19 22 -28.5t56 -16t73 -14.5t73 -23t56 -41.5t22 -71.5t-18.5 -79.5t-53 -58t-83.5 -36
t-110 -12.5h-17zM260 575l52 145h130l1 -3l-82 -142h-101z" />
    <glyph glyph-name="zacute.loclPLK" horiz-adv-x="486" 
d="M-10 0l7 54l261 352h-199l14 105h407l-7 -51l-262 -354h220l-14 -106h-427zM236 575l52 145h130l1 -3l-82 -142h-101z" />
    <glyph glyph-name="uni207F" unicode="&#x207f;" horiz-adv-x="359" 
d="M58 381l43 309h71l4 -45q22 25 48.5 38t60.5 13q42 0 67 -21t25 -58q0 -6 -1.5 -18t-5 -37t-9.5 -68.5t-16 -112.5h-93q8 58 13.5 96.5t9 61.5t4.5 34.5t1 15.5q0 19 -10.5 29.5t-30.5 10.5q-22 0 -40 -16t-21 -39l-27 -193h-93z" />
    <glyph glyph-name="ordfeminine" unicode="&#xaa;" horiz-adv-x="412" 
d="M172 375q-52 0 -78 33t-26 89q0 39 9.5 74.5t28 64t46 44.5t62.5 16q27 0 49 -11.5t34 -32.5h5l19 38h71q-4 -28 -8.5 -56t-8 -54t-6.5 -48t-5.5 -39t-3.5 -27t-1 -12q0 -17 15 -17q6 0 13 2.5t12 5.5l-8 -57q-11 -5 -26 -9t-30 -4q-28 0 -46 10.5t-23 35.5
q-17 -20 -41 -33t-53 -13zM208 438q28 0 44 21.5t22 54t6 64.5q0 28 -12.5 41t-32.5 13q-27 0 -43 -20.5t-23 -52.5t-7 -68q0 -29 13 -41t33 -12z" />
    <glyph glyph-name="ordmasculine" unicode="&#xba;" horiz-adv-x="388" 
d="M200 376q-64 0 -103 32t-39 94q0 55 21 99t61.5 69.5t99.5 25.5q64 0 103 -31.5t39 -94.5q0 -54 -21 -98.5t-61.5 -70t-99.5 -25.5zM205 438q30 0 47.5 21t24 53t6.5 63q0 30 -13 44.5t-36 14.5q-30 0 -47.5 -21t-24.5 -52t-7 -64q0 -30 14 -44.5t36 -14.5z" />
    <glyph glyph-name="uni0394" unicode="&#x394;" horiz-adv-x="641" 
d="M-8 0l12 82l312 604h125l142 -604l-11 -82h-580zM129 96h334l-103 457z" />
    <glyph glyph-name="uni03A9" unicode="&#x3a9;" horiz-adv-x="738" 
d="M-3 0l17 135h21l99 -17q-35 36 -54 80.5t-19 100.5q0 86 25.5 158.5t71.5 125.5t108.5 82.5t136.5 29.5h41q72 0 129 -31t89.5 -87.5t32.5 -135.5q0 -55 -9 -101.5t-27 -85.5t-45 -73t-63 -63l103 17h20l-18 -135h-289l10 71q33 10 56 30.5t37.5 54t21.5 79.5
q8 61 13.5 99.5t8.5 61t4 34.5t1 18q0 40 -13.5 66.5t-39 39t-61.5 12.5q-32 0 -57.5 -10t-45 -30t-32.5 -49t-18 -68q-12 -83 -18 -128.5t-8.5 -66t-2.5 -30.5q0 -30 8 -53t24 -37.5t40 -22.5l-10 -71h-288z" />
    <glyph glyph-name="uni03BC" unicode="&#x3bc;" horiz-adv-x="631" 
d="M5 -161l95 672h158q-11 -67 -18.5 -120.5t-13 -92.5t-8.5 -66t-5 -41.5t-2 -18.5q0 -31 17 -49t47 -18q24 0 44.5 12.5t35 33.5t18.5 46l44 314h158q-13 -85 -23 -154.5t-17 -120t-11 -80t-4 -35.5q0 -14 8 -20.5t18 -6.5t21 3.5t19 7.5l-13 -93q-11 -7 -34.5 -14.5
t-58.5 -7.5q-58 0 -83 21.5t-30 58.5q-19 -26 -54 -50.5t-82 -25.5q-14 0 -27 2t-25 7q1 -18 0.5 -33t-2.5 -28l-14 -103h-158z" />
    <glyph glyph-name="pi" unicode="&#x3c0;" horiz-adv-x="685" 
d="M36 0q19 39 38 91t36.5 108t30.5 110t20 97q-40 0 -68.5 -3t-49.5 -8l-2 83q22 16 69.5 24.5t125.5 8.5h465l-27 -105h-81q-11 -81 -19 -137t-13 -93.5t-7.5 -61.5t-3.5 -40.5t-1 -32.5q0 -12 0.5 -22t1.5 -19h-150q-4 6 -5.5 18t-1.5 29q0 14 1.5 31t4.5 42t8 62.5
t12.5 92t18.5 131.5h-127q-6 -36 -16.5 -80t-23.5 -90.5t-27.5 -91t-29.5 -82t-29 -62.5h-150z" />
    <glyph glyph-name="uni2099" unicode="&#x2099;" horiz-adv-x="360" 
d="M-12 -119l43 309h71l4 -45q22 25 48.5 38t60.5 13q42 0 67 -21t25 -58q0 -6 -1.5 -18t-5 -37t-9.5 -68.5t-16 -112.5h-93q8 58 13.5 96.5t9 61.5t4.5 34.5t1 15.5q0 19 -10.5 29.5t-30.5 10.5q-22 0 -40 -16t-21 -39l-27 -193h-93z" />
    <glyph glyph-name="zero" unicode="0" horiz-adv-x="615" 
d="M247 -10q-61 0 -109 27t-75 74t-27 106q0 11 1 27.5t5 44t10.5 72.5t16.5 113q10 72 48.5 126.5t97.5 85t131 30.5h32q62 0 109 -26.5t74.5 -73.5t27.5 -107q0 -10 -1.5 -26.5t-5 -44.5t-10 -73t-16.5 -112q-11 -72 -49.5 -126.5t-97 -85.5t-130.5 -31h-32zM280 113
q32 0 56 12t38.5 35t19.5 54q6 44 11.5 82.5t10 71.5t7.5 57t4.5 40t1.5 22q0 38 -23 62t-62 24q-31 0 -55 -12t-39 -34.5t-19 -54.5q-7 -44 -12 -82.5t-9.5 -71t-7.5 -57t-5 -40.5t-2 -22q0 -37 23.5 -61.5t61.5 -24.5z" />
    <glyph glyph-name="one" unicode="1" horiz-adv-x="615" 
d="M40 0l17 129h163l53 376h-164l14 95q40 3 88.5 16t98 33.5t92.5 42.5h56l-79 -563h159l-18 -129h-480z" />
    <glyph glyph-name="two" unicode="2" horiz-adv-x="615" 
d="M9 0l4 34q6 42 21.5 75.5t39 60t53.5 46.5l206 144q35 24 54 45t27 41.5t8 43.5q0 20 -9 37t-27.5 28t-49.5 11q-35 0 -61 -16t-40 -43.5t-16 -61.5h-146q1 34 12.5 69.5t33 68t54 58t77 40.5t100.5 15h20q71 0 119 -25.5t72 -68t24 -92.5q0 -46 -15 -87t-46.5 -77
t-80.5 -69l-154 -102q-14 -9 -26.5 -19t-20.5 -18h295l-18 -138h-510z" />
    <glyph glyph-name="three" unicode="3" horiz-adv-x="615" 
d="M243 -10q-74 0 -124 22t-75.5 60.5t-25.5 88.5q0 12 1.5 22.5t3.5 22.5h145q-1 -6 -1.5 -10t-0.5 -9q0 -39 27.5 -55t73.5 -16q39 0 68.5 11.5t45.5 35.5t16 61q0 27 -13.5 42.5t-35 22t-46.5 6.5h-89l15 110h84q27 0 51.5 10.5t40.5 32.5t16 55q0 35 -25.5 51t-63.5 16
q-43 0 -73.5 -21.5t-36.5 -61.5h-140q3 64 40 111t97.5 72.5t132.5 25.5h22q63 0 110 -21t72.5 -57.5t25.5 -83.5q0 -42 -16.5 -76t-44.5 -58.5t-62 -39.5l1 -5q44 -17 70 -50.5t26 -85.5q0 -71 -38 -122.5t-102 -79t-141 -27.5h-31z" />
    <glyph glyph-name="four" unicode="4" horiz-adv-x="615" 
d="M286 0l22 158h-296l17 126q24 32 50 71.5t52.5 84t51.5 90t46 88t36 78.5h149q-13 -40 -38 -87t-55.5 -95.5t-63 -93t-61.5 -80t-51 -57.5h181l19 139q15 19 31 43.5t32 51.5t29 53t21 46h68l-47 -333h94l-18 -125h-93l-22 -158h-154z" />
    <glyph glyph-name="five" unicode="5" horiz-adv-x="615" 
d="M261 -10q-70 0 -121.5 24t-80 68t-28.5 106q0 9 0.5 16.5t1.5 15.5h146q-1 -3 -1 -6v-7q0 -40 27 -64t67 -24q36 0 64.5 15t45 43.5t16.5 68.5q0 38 -25 63t-67 25q-32 0 -59 -13.5t-46 -34.5l-128 19l81 381h420l-19 -139h-296l-31 -140q22 16 57 32t82 16
q62 0 104.5 -23.5t64.5 -65.5t22 -98q0 -84 -37.5 -146t-104 -97t-155.5 -35z" />
    <glyph glyph-name="six" unicode="6" horiz-adv-x="615" 
d="M258 -10q-63 0 -112 26t-77 72t-28 107q0 8 1 24.5t5 45.5t10 75t16 113q10 69 49.5 124t100 87t132.5 32h19q59 0 106 -22t74 -64t27 -103q0 -10 -0.5 -19t-2.5 -19h-147q1 5 1 10v10q0 37 -22.5 59t-62.5 22q-26 0 -51 -13t-41.5 -35t-20.5 -50l-13 -94q31 29 70 43
t75 14q56 0 100 -20.5t69.5 -59.5t25.5 -94q0 -63 -22.5 -113t-62 -85.5t-90.5 -54t-109 -18.5h-19zM287 111q38 0 64 18t39.5 49.5t13.5 69.5t-25 60t-63 22q-36 0 -63.5 -17t-42 -47.5t-14.5 -71.5q0 -37 25 -60t66 -23z" />
    <glyph glyph-name="seven" unicode="7" horiz-adv-x="615" 
d="M105 0q11 78 42 152.5t75 144t94 132.5t100 117h-317l20 140h499l-11 -76q-72 -79 -126.5 -151t-94 -143.5t-64.5 -149t-36 -166.5h-181z" />
    <glyph glyph-name="eight" unicode="8" horiz-adv-x="615" 
d="M263 -10q-105 0 -169 43t-64 125q0 50 17.5 86.5t47.5 61.5t67 42l1 4q-29 21 -47.5 47t-18.5 69q0 73 37 124t97 77.5t131 26.5q61 0 108.5 -19.5t74.5 -56.5t27 -91q0 -48 -15.5 -81.5t-40 -56t-51.5 -39.5l-1 -4q39 -21 63 -51.5t24 -79.5q0 -45 -17.5 -86
t-52.5 -72.5t-89.5 -50t-128.5 -18.5zM279 106q36 0 61.5 15.5t39 43t13.5 60.5q0 35 -24.5 54.5t-62.5 19.5q-33 0 -59 -15.5t-40.5 -42.5t-14.5 -62q0 -34 24.5 -53.5t62.5 -19.5zM321 400q32 0 55 14.5t35.5 39.5t12.5 56q0 30 -20.5 51t-57.5 21q-29 0 -53 -14
t-37.5 -39t-13.5 -58q0 -31 21.5 -51t57.5 -20z" />
    </font>
</defs>
</svg>
