<?xml version="1.0" standalone="no"?>
<!DOCTYPE svg PUBLIC "-//W3C//DTD SVG 1.1//EN" "http://www.w3.org/Graphics/SVG/1.1/DTD/svg11.dtd" >
<svg xmlns="http://www.w3.org/2000/svg" xmlns:xlink="http://www.w3.org/1999/xlink" version="1.1">
<metadata>
Created by FontForge 20170924 at Tue Jun  7 02:00:32 2011
 By Glenn,,,
Copyright (c) 2011 by Pablo Impallari. All rights reserved.
</metadata>
<defs>
<font id="LobsterTwo-BoldItalic" horiz-adv-x="526" >
  <font-face 
    font-family="Lobster Two"
    font-weight="700"
    font-style="italic"
    font-stretch="normal"
    units-per-em="1000"
    panose-1="2 0 5 6 0 0 0 2 0 3"
    ascent="800"
    descent="-200"
    x-height="500"
    cap-height="750"
    bbox="-192 -250 1203 1000"
    underline-thickness="50"
    underline-position="-100"
    stemh="40"
    stemv="149"
    unicode-range="U+0020-FB04"
  />
<missing-glyph horiz-adv-x="385" 
 />
    <glyph glyph-name="E_x" unicode="Ex" horiz-adv-x="788" 
d="M461 462h141l32 -178c59 64 95 123 95 159c0 4 0 8 -1 12c-6 -1 -12 -2 -17 -2c-35 0 -47 25 -47 56c0 30 25 47 56 47c45 0 68 -40 68 -89c0 -65 -45 -134 -143 -238l9 -50c7 -38 15 -88 59 -88c39 0 75 38 90 88h42c-57 -163 -152 -185 -206 -185
c-63 0 -93 39 -115 132c-73 -84 -208 -142 -321 -142c-104 0 -190 50 -190 174c0 105 70 231 185 259c-43 31 -61 75 -61 120c0 103 91 215 219 215c79 0 143 -43 143 -125c0 -60 -34 -104 -74 -104c-17 0 -33 8 -47 27c25 8 44 53 44 87c0 41 -28 56 -55 56
c-59 0 -102 -71 -102 -141c0 -58 29 -115 101 -134c-107 -24 -179 -147 -179 -239c0 -72 44 -102 102 -102c72 0 164 45 222 111z" />
    <glyph glyph-name="F_i" unicode="Fi" horiz-adv-x="818" 
d="M458 450h126l-16 -74h-126l-81 -376h-144l144 668h-11c-81 0 -139 -41 -139 -207c0 -51 13 -59 14 -68c-69 0 -107 25 -107 97c0 133 94 260 341 260c68 0 141 -20 231 -20c43 0 91 5 145 19c-14 -71 -44 -155 -124 -155c-82 0 -127 34 -210 56zM636 500h144l-72 -340
c-3 -13 -4 -23 -4 -32c0 -28 13 -37 41 -37c39 0 75 38 90 88h42c-57 -163 -156 -185 -210 -185c-60 0 -107 36 -107 120c0 19 3 41 8 65z" />
    <glyph glyph-name="IJ" unicode="IJ" horiz-adv-x="680" 
d="M447 748l-147 -690c41 -6 67 -30 67 -64c0 -11 -3 -22 -7 -33c-16 16 -33 23 -49 23c-36 0 -65 -33 -65 -73c0 -39 27 -68 71 -68c40 0 70 23 92 123l164 751l150 33l-150 -710c-29 -138 -95 -247 -250 -247c-113 0 -161 58 -161 137c0 27 5 50 16 70h-34l145 679
c-87 -36 -140 -111 -140 -217c0 -48 11 -60 14 -69c-66 0 -107 25 -107 92c0 141 184 265 350 265c15 0 28 -1 41 -2z" />
    <glyph glyph-name="T_h" unicode="Th" horiz-adv-x="1008" 
d="M153 460c0 -51 13 -59 14 -68c-69 0 -107 25 -107 97c0 133 105 260 352 260c46 0 168 -26 270 -26c49 0 93 6 121 24c-24 -44 -38 -73 -84 -301c43 49 87 58 119 58c64 0 111 -33 111 -113c0 -81 -48 -202 -48 -258c0 -25 10 -42 40 -42c44 0 62 36 84 88h42
c-56 -164 -133 -185 -186 -185c-87 0 -118 56 -118 113c0 68 45 191 45 255c0 33 -12 51 -36 51c-35 0 -61 -39 -76 -86c-17 -87 -37 -194 -61 -327h-144l137 638c-41 3 -86 11 -132 17l-141 -655h-144l143 664c-112 -4 -201 -47 -201 -204z" />
    <glyph glyph-name="T_i" unicode="Ti" horiz-adv-x="783" 
d="M213 0l144 671c-14 2 -27 3 -40 3c-92 0 -162 -49 -162 -214c0 -51 13 -59 14 -68c-69 0 -107 25 -107 97c0 133 94 260 341 260c41 0 159 -16 257 -16c46 0 88 3 115 14c8 -25 11 -47 11 -66c0 -81 -67 -100 -103 -100c-46 0 -104 27 -189 56l-137 -637h-144zM601 500
h144l-72 -340c-3 -13 -4 -23 -4 -32c0 -28 13 -37 41 -37c39 0 75 38 90 88h42c-57 -163 -156 -185 -210 -185c-60 0 -107 36 -107 120c0 19 3 41 8 65z" />
    <glyph glyph-name="a_x" unicode="ax" horiz-adv-x="901" 
d="M353 500h144l-72 -340c-2 -9 -3 -17 -3 -25c0 -25 10 -44 43 -44c52 0 118 43 160 94l-58 315h141l39 -216c59 64 95 123 95 159c0 4 0 8 -1 12c-6 -1 -12 -2 -17 -2c-35 0 -47 25 -47 56c0 30 25 47 56 47c45 0 68 -40 68 -89c0 -65 -45 -134 -143 -238l9 -50
c7 -38 15 -88 59 -88c39 0 75 38 90 88h42c-57 -163 -152 -185 -206 -185c-63 0 -93 39 -116 134c-75 -95 -154 -134 -235 -134c-55 0 -104 35 -114 94c-31 -47 -78 -94 -150 -94c-68 0 -133 42 -133 161c0 135 83 350 257 350c33 0 75 -6 82 -52zM292 443
c-85 0 -140 -180 -140 -274c0 -77 32 -78 50 -78c29 0 71 30 83 88l48 226c-1 12 -10 38 -41 38z" />
    <glyph glyph-name="a_z" unicode="az" horiz-adv-x="906" 
d="M353 500h144l-72 -340c-3 -13 -4 -23 -4 -32c0 -28 13 -37 41 -37c9 0 15 1 22 4c-27 -70 -46 -101 -100 -101s-90 35 -98 93c-30 -46 -78 -93 -149 -93c-68 0 -133 42 -133 161c0 135 83 350 257 350c33 0 75 -6 82 -52zM801 91c-13 1 -19 10 -19 21c0 18 19 43 56 43
c30 0 44 -21 44 -48c0 -46 -45 -107 -122 -107h-265l255 446h-56c-31 0 -55 -2 -55 -16c0 -5 11 1 11 -22c0 -37 -28 -53 -54 -53c-23 0 -46 15 -46 44c0 41 45 101 116 101h257l-245 -423c17 -1 49 -6 76 -6c24 0 44 4 47 20zM292 443c-85 0 -140 -180 -140 -274
c0 -77 32 -78 50 -78c29 0 71 30 83 88l48 226c-1 12 -10 38 -41 38z" />
    <glyph glyph-name="b_s" unicode="bs" horiz-adv-x="799" 
d="M816 179h42c-47 -54 -96 -90 -139 -117c-34 -50 -93 -68 -147 -68c-119 0 -139 72 -139 133c0 59 37 95 72 95c34 0 52 -13 52 -42c0 -24 -22 -45 -48 -45c-10 0 -22 3 -27 13c0 -47 20 -75 58 -75c44 0 63 23 63 93c0 56 -11 87 -22 272c-47 -70 -100 -115 -158 -135
c-9 -121 -77 -309 -273 -309c-92 0 -140 48 -140 128c0 17 2 36 7 57l107 501l148 20l-48 -225c41 25 62 30 82 30c66 0 112 -41 117 -152c49 8 101 65 155 158l148 20c12 -259 22 -298 22 -364c0 -13 -1 -26 -3 -37c27 15 52 34 71 49zM305 338c0 18 5 31 13 41
c-7 30 -23 53 -48 53c-14 0 -48 -5 -59 -18l-55 -254c-2 -8 -3 -16 -3 -23c0 -29 17 -46 53 -46c57 0 105 109 115 207c-11 7 -16 20 -16 40z" />
    <glyph glyph-name="b_s_x" unicode="bsx" horiz-adv-x="1146" 
d="M812 500h141l39 -216c59 64 95 123 95 159c0 4 0 8 -1 12c-6 -1 -12 -2 -17 -2c-35 0 -47 25 -47 56c0 30 25 47 56 47c45 0 68 -40 68 -89c0 -65 -45 -134 -143 -238l9 -50c7 -38 15 -88 59 -88c39 0 75 38 90 88h42c-57 -163 -152 -185 -206 -185
c-66 0 -96 44 -119 148c-50 -35 -118 -61 -161 -82c-34 -48 -92 -66 -145 -66c-119 0 -139 72 -139 133c0 59 37 95 72 95c34 0 52 -13 52 -42c0 -24 -22 -45 -48 -45c-10 0 -22 3 -27 13c0 -47 20 -75 58 -75c44 0 63 23 63 93c0 56 -11 87 -22 272
c-47 -70 -100 -115 -158 -135c-9 -121 -77 -309 -273 -309c-92 0 -140 48 -140 128c0 17 2 36 7 57l107 501l148 20l-48 -225c41 25 62 30 82 30c66 0 112 -41 117 -152c49 8 101 65 155 158l148 20c12 -259 22 -298 22 -364c0 -16 -2 -31 -4 -44c41 17 90 43 124 72z
M305 338c0 18 5 31 13 41c-7 30 -23 53 -48 53c-14 0 -48 -5 -59 -18l-55 -254c-2 -8 -3 -16 -3 -23c0 -29 17 -46 53 -46c57 0 105 109 115 207c-11 7 -16 20 -16 40z" />
    <glyph glyph-name="b_s_z" unicode="bsz" horiz-adv-x="1158" 
d="M17 179l107 501l148 20l-48 -225c41 25 62 30 82 30c66 0 112 -41 117 -152c49 8 101 65 155 158l148 20c12 -259 22 -298 22 -364c0 -130 -94 -173 -176 -173c-119 0 -139 72 -139 133c0 59 37 95 72 95c34 0 52 -13 52 -42c0 -24 -22 -45 -48 -45c-10 0 -22 3 -27 13
c0 -47 20 -75 58 -75c44 0 63 23 63 93c0 56 -11 87 -22 272c-47 -70 -100 -115 -158 -135c-9 -121 -77 -309 -273 -309c-92 0 -140 48 -140 128c0 17 2 36 7 57zM1053 91c-13 1 -19 10 -19 21c0 18 19 43 56 43c30 0 44 -21 44 -48c0 -46 -45 -107 -122 -107h-265l255 446
h-56c-31 0 -55 -2 -55 -16c0 -5 11 1 11 -22c0 -37 -28 -53 -54 -53c-23 0 -46 15 -46 44c0 41 45 101 116 101h257l-245 -423c17 -1 49 -6 76 -6c24 0 44 4 47 20zM305 338c0 18 5 31 13 41c-7 30 -23 53 -48 53c-14 0 -48 -5 -59 -18l-55 -254c-2 -8 -3 -16 -3 -23
c0 -29 17 -46 53 -46c57 0 105 109 115 207c-11 7 -16 20 -16 40z" />
    <glyph glyph-name="c_x" unicode="cx" horiz-adv-x="765" 
d="M297 356c8 21 12 42 12 59c0 24 -8 41 -27 41c-64 0 -129 -190 -129 -281c0 -74 44 -99 101 -99c71 0 168 39 234 114l-57 310h141l39 -216c59 64 95 123 95 159c0 4 0 8 -1 12c-6 -1 -12 -2 -18 -2c-34 0 -46 27 -46 52c0 35 24 51 54 51c47 0 70 -39 70 -87
c0 -65 -42 -132 -143 -241l9 -49c7 -38 15 -88 59 -88c39 0 75 38 90 88h42c-57 -163 -153 -185 -203 -185c-68 0 -98 41 -120 138c-84 -86 -210 -138 -316 -138c-97 0 -178 43 -178 164c0 108 65 351 269 351c89 0 111 -46 111 -93c0 -51 -26 -72 -53 -72
c-12 0 -24 4 -35 12z" />
    <glyph glyph-name="c_z" unicode="cz" horiz-adv-x="777" 
d="M672 91c-13 1 -19 10 -19 21c0 18 19 43 56 43c30 0 44 -21 44 -48c0 -46 -45 -107 -122 -107h-265l255 446h-36c-31 0 -55 -2 -55 -16c0 -5 11 1 11 -22c0 -37 -28 -53 -54 -53c-23 0 -46 15 -46 44c0 41 45 101 116 101h237l-245 -423c37 0 62 -12 91 -12
c16 0 28 6 32 26zM297 356c8 21 12 42 12 59c0 24 -8 41 -27 41c-64 0 -129 -187 -129 -286c0 -62 26 -83 60 -83c39 0 89 29 120 55c-21 -114 -93 -148 -173 -148c-93 0 -155 46 -155 159c0 116 66 356 269 356c89 0 111 -46 111 -93c0 -51 -26 -72 -53 -72
c-12 0 -24 4 -35 12z" />
    <glyph glyph-name="e_x" unicode="ex" horiz-adv-x="763" 
d="M431 500h141l39 -216c59 64 95 123 95 159c0 4 0 8 -1 12c-6 -1 -12 -2 -18 -2c-34 0 -46 27 -46 52c0 35 24 51 54 51c47 0 70 -39 70 -87c0 -65 -42 -132 -143 -241l9 -49c7 -38 15 -88 59 -88c39 0 75 38 90 88h42c-57 -163 -153 -185 -203 -185
c-66 0 -96 38 -120 139c-80 -83 -204 -139 -316 -139c-97 0 -178 42 -178 163c0 108 65 348 270 348c89 0 110 -46 110 -96c0 -114 -110 -200 -231 -207c-1 -10 -1 -19 -1 -27c0 -75 44 -99 100 -99c71 0 169 39 235 114zM308 411c0 25 -6 41 -25 41
c-51 0 -100 -111 -121 -202c78 4 146 79 146 161z" />
    <glyph glyph-name="e_z" unicode="ez" horiz-adv-x="796" 
d="M155 202c-1 -8 -1 -17 -1 -26c0 -41 9 -87 61 -87c38 0 86 25 118 53c-21 -114 -93 -148 -173 -148c-93 0 -155 46 -155 159c0 114 65 352 270 352c89 0 110 -46 110 -96c0 -114 -110 -200 -230 -207zM691 91c-13 1 -19 10 -19 21c0 18 19 43 56 43c30 0 44 -21 44 -48
c0 -46 -45 -107 -122 -107h-265l255 446h-56c-31 0 -55 -2 -55 -16c0 -5 11 1 11 -22c0 -37 -28 -53 -54 -53c-23 0 -46 15 -46 44c0 41 45 101 116 101h257l-245 -423c17 -1 49 -6 76 -6c24 0 44 4 47 20zM308 411c0 25 -6 41 -25 41c-50 0 -100 -108 -121 -202
c78 4 146 79 146 161z" />
    <glyph glyph-name="eacute_x" unicode="&#xe9;x" horiz-adv-x="765" 
d="M431 500h141l39 -216c59 64 95 123 95 159c0 4 0 8 -1 12c-6 -1 -12 -2 -17 -2c-35 0 -47 25 -47 56c0 30 25 47 56 47c45 0 68 -40 68 -89c0 -65 -45 -134 -143 -238l9 -50c7 -38 15 -88 59 -88c39 0 75 38 90 88h42c-57 -163 -152 -185 -206 -185
c-64 0 -94 41 -117 139c-81 -84 -208 -139 -313 -139c-100 0 -181 43 -181 160c0 114 65 351 271 351c89 0 109 -46 109 -99c0 -109 -110 -197 -230 -204c-1 -11 -2 -22 -2 -32c0 -68 44 -94 103 -94c68 0 166 39 232 114zM244 561l91 189h105l-121 -189h-75zM308 408
c0 28 -6 44 -24 44c-52 0 -101 -107 -122 -202c78 4 146 81 146 158z" />
    <glyph glyph-name="f_f_t" unicode="fft" horiz-adv-x="780" 
d="M-73 -250c-61 0 -118 43 -118 108c0 92 78 121 173 150l120 571c30 143 116 170 182 170c50 0 88 -14 115 -42c36 33 80 42 117 42c90 0 175 -33 265 -69l-38 -180h60l-8 -40h-61l-63 -300c-3 -13 -4 -23 -4 -32c0 -28 13 -37 41 -37c39 0 75 38 90 88h42
c-57 -163 -156 -185 -210 -185c-60 0 -107 36 -107 120c0 19 3 41 8 65l59 281h-135l-115 -540c-29 -138 -113 -170 -176 -170c-50 0 -89 20 -109 54c-39 -43 -87 -54 -128 -54zM224 460l-90 -424l88 15l87 409h-85zM599 500l36 170c-26 11 -69 16 -82 16
c-22 0 -54 -12 -68 -79l-22 -107h136zM89 -142c3 -28 27 -33 37 -33c27 0 54 25 68 92l23 109l-89 -18l-19 -88c-5 -23 -12 -44 -20 -62zM317 500l17 79c7 36 19 65 32 87c-8 6 -18 10 -32 10c-56 0 -78 -51 -86 -94l-16 -82h85zM-130 -128c0 -14 18 -33 40 -33
c20 0 47 19 59 78l12 58c-63 -21 -111 -49 -111 -103z" />
    <glyph glyph-name="f_i_x" unicode="fix" horiz-adv-x="899" 
d="M427 553c-29 0 -60 11 -60 54c0 22 13 49 34 49c2 0 7 0 8 -1c-1 26 -23 40 -55 40c-65 0 -94 -56 -106 -113l-17 -82h80l-8 -40h-80l-114 -540c-29 -138 -113 -170 -176 -170c-73 0 -124 43 -124 112c0 89 87 120 173 146l111 526c39 184 148 215 234 215
c80 0 179 -18 179 -115c0 -60 -38 -81 -79 -81zM351 500h144l-72 -340c-3 -13 -4 -23 -4 -32c0 -25 18 -36 44 -36c51 0 116 39 159 94l-57 314h141l39 -216c59 64 95 123 95 159c0 4 0 8 -1 12c-6 -1 -12 -2 -17 -2c-35 0 -47 25 -47 56c0 30 25 47 56 47
c45 0 68 -40 68 -89c0 -65 -45 -134 -143 -238l9 -50c7 -38 15 -88 59 -88c39 0 75 38 90 88h42c-57 -163 -152 -185 -206 -185c-64 0 -94 41 -116 138c-65 -73 -160 -138 -253 -138c-61 0 -106 37 -106 119c0 19 3 41 8 66zM-136 -121c0 -34 30 -40 41 -40
c20 0 46 21 58 78l12 58c-63 -20 -111 -54 -111 -96z" />
    <glyph glyph-name="f_i_z" unicode="fiz" horiz-adv-x="903" 
d="M-136 -121c0 -34 30 -40 41 -40c20 0 46 21 58 78l12 58c-63 -20 -111 -54 -111 -96zM427 553c-29 0 -60 11 -60 54c0 22 13 49 34 49c2 0 7 0 8 -1c-1 26 -23 40 -55 40c-65 0 -94 -56 -106 -113l-17 -82h80l-8 -40h-80l-114 -540c-29 -138 -113 -170 -176 -170
c-73 0 -124 43 -124 112c0 89 87 120 173 146l111 526c39 184 148 215 234 215c80 0 179 -18 179 -115c0 -60 -38 -81 -79 -81zM351 500h144l-72 -340c-3 -13 -4 -23 -4 -32c0 -28 13 -37 41 -37c18 0 26 3 32 6c-5 -71 -56 -103 -110 -103c-60 0 -107 36 -107 120
c0 19 3 41 8 65zM798 91c-13 1 -19 10 -19 21c0 18 19 43 56 43c30 0 44 -21 44 -48c0 -46 -45 -107 -122 -107h-265l255 446h-56c-31 0 -55 -2 -55 -16c0 -5 11 1 11 -22c0 -37 -28 -53 -54 -53c-23 0 -46 15 -46 44c0 41 45 101 116 101h257l-245 -423c17 -1 49 -6 76 -6
c24 0 44 4 47 20z" />
    <glyph glyph-name="f_l_x" unicode="flx" horiz-adv-x="915" 
d="M549 680l-110 -520c-3 -13 -4 -23 -4 -32c0 -25 18 -36 44 -36c51 0 116 39 159 94l-57 314h141l39 -216c59 64 95 123 95 159c0 4 0 8 -1 12c-6 -1 -12 -2 -17 -2c-35 0 -47 25 -47 56c0 30 25 47 56 47c45 0 68 -40 68 -89c0 -65 -45 -134 -143 -238l9 -50
c7 -38 15 -88 59 -88c39 0 75 38 90 88h42c-57 -163 -152 -185 -206 -185c-64 0 -94 41 -116 138c-65 -73 -160 -138 -253 -138c-61 0 -106 37 -106 119c0 19 3 41 8 66l104 491c-26 11 -69 16 -82 16c-22 0 -54 -12 -68 -79l-22 -107h93l-8 -40h-93l-114 -540
c-30 -143 -116 -170 -182 -170c-61 0 -118 43 -118 108c0 92 78 121 173 150l120 571c30 143 117 170 182 170c90 0 175 -33 265 -69zM-136 -128c0 -14 18 -33 40 -33c21 0 46 19 59 78l12 58c-63 -21 -111 -49 -111 -103z" />
    <glyph glyph-name="f_l_z" unicode="flz" horiz-adv-x="939" 
d="M-136 -128c0 -14 18 -33 40 -33c20 0 47 19 59 78l12 58c-63 -21 -111 -49 -111 -103zM549 680l-110 -520c-3 -13 -4 -23 -4 -32c0 -28 13 -37 41 -37c18 0 26 3 32 6c-5 -71 -56 -103 -110 -103c-60 0 -107 36 -107 120c0 19 3 41 8 65l104 491c-26 11 -69 16 -82 16
c-22 0 -54 -12 -68 -79l-22 -107h93l-8 -40h-93l-114 -540c-30 -143 -116 -170 -182 -170c-61 0 -118 43 -118 108c0 92 78 121 173 150l120 571c30 143 117 170 182 170c90 0 175 -33 265 -69zM834 91c-13 1 -19 10 -19 21c0 18 19 43 56 43c30 0 44 -21 44 -48
c0 -46 -45 -107 -122 -107h-265l255 446h-56c-31 0 -55 -2 -55 -16c0 -5 11 1 11 -22c0 -37 -28 -53 -54 -53c-23 0 -46 15 -46 44c0 41 45 101 116 101h257l-245 -423c17 -1 49 -6 76 -6c24 0 44 4 47 20z" />
    <glyph glyph-name="f_t" unicode="ft" horiz-adv-x="548" 
d="M502 460l-63 -300c-3 -13 -4 -23 -4 -32c0 -28 13 -37 41 -37c39 0 75 38 90 88h42c-57 -163 -156 -185 -210 -185c-60 0 -107 36 -107 120c0 19 3 41 8 65l59 281h-135l-114 -540c-30 -143 -116 -170 -182 -170c-61 0 -118 43 -118 108c0 92 78 121 173 150l120 571
c30 143 117 170 182 170c90 0 175 -33 265 -69l-38 -180h60l-8 -40h-61zM367 500l36 170c-26 11 -69 16 -82 16c-22 0 -54 -12 -68 -79l-22 -107h136zM-136 -128c0 -14 18 -33 40 -33c21 0 46 19 59 78l12 58c-63 -21 -111 -49 -111 -103z" />
    <glyph glyph-name="f_u" unicode="fu" horiz-adv-x="771" 
d="M229 500h267l-72 -340c-2 -10 -3 -19 -3 -28c0 -23 8 -41 30 -41c39 0 65 38 80 88l68 321h144l-72 -340c-3 -13 -4 -23 -4 -32c0 -28 13 -37 41 -37c39 0 66 38 81 88h42c-57 -163 -147 -185 -201 -185c-57 0 -93 33 -99 95c-50 -82 -106 -95 -148 -95
c-60 0 -107 36 -107 120c0 19 3 41 8 65l59 281h-122l-115 -540c-30 -143 -113 -170 -179 -170c-61 0 -118 43 -118 108c0 92 77 121 172 150l121 571c30 143 116 170 182 170c61 0 118 -43 118 -108c0 -16 -1 -29 -3 -41h-47c1 10 2 18 2 27c0 23 -18 34 -38 34
c-22 0 -56 -15 -70 -82zM-136 -128c0 -14 18 -33 40 -33c21 0 44 19 57 78l13 58c-63 -21 -110 -49 -110 -103z" />
    <glyph glyph-name="f_x" unicode="fx" horiz-adv-x="664" 
d="M229 500h243l36 -198c62 56 98 103 98 141c0 4 0 8 -1 12c-6 -1 -12 -2 -17 -2c-35 0 -47 25 -47 56c0 30 25 47 56 47c45 0 68 -40 68 -89c0 -66 -44 -130 -146 -222l12 -66c7 -38 15 -88 59 -88c39 0 75 38 90 88h42c-57 -163 -152 -185 -206 -185
c-73 0 -102 54 -126 185l-2 7c-46 -31 -90 -72 -90 -112c5 1 9 1 13 1c34 0 41 -26 41 -49c0 -39 -23 -55 -56 -55c-45 0 -66 28 -66 71c0 66 75 153 148 200l-40 218h-117l-115 -540c-30 -143 -113 -170 -179 -170c-61 0 -118 43 -118 108c0 92 77 121 172 150l121 571
c30 143 116 170 182 170c61 0 118 -43 118 -108c0 -16 -1 -29 -3 -41h-47c1 10 2 18 2 27c0 23 -18 34 -38 34c-22 0 -56 -15 -70 -82zM-139 -128c0 -14 18 -33 40 -33c21 0 44 19 57 78l13 58c-63 -21 -110 -49 -110 -103z" />
    <glyph glyph-name="ff" unicode="ff" horiz-adv-x="512" 
d="M-73 -250c-61 0 -118 43 -118 108c0 92 78 121 173 150l120 571c30 143 116 170 182 170c45 0 88 -24 107 -63c40 51 93 63 137 63c61 0 118 -43 118 -108c0 -16 -1 -29 -3 -41h-47c1 10 2 18 2 27c0 23 -18 34 -38 34c-22 0 -53 -12 -68 -79l-18 -82h100l-9 -40h-99
l-113 -540c-30 -143 -116 -170 -182 -170c-57 0 -92 25 -108 63c-39 -51 -92 -63 -136 -63zM222 460l-89 -423l103 18l85 405h-99zM90 -141c9 -16 32 -20 58 -20c21 0 46 19 59 78l24 114l-103 -19l-19 -92c-5 -23 -12 -44 -19 -61zM354 627c0 23 -18 34 -38 34
c-22 0 -53 -12 -68 -79l-18 -82h99l23 105c2 8 2 14 2 22zM-130 -128c0 -14 18 -33 40 -33c21 0 46 19 59 78l12 58c-63 -21 -111 -49 -111 -103z" />
    <glyph glyph-name="ffi" unicode="ffi" horiz-adv-x="765" 
d="M462 500h265l-72 -340c-3 -13 -4 -23 -4 -32c0 -28 13 -37 41 -37c39 0 75 38 90 88h42c-57 -163 -156 -185 -210 -185c-60 0 -107 36 -107 120c0 19 3 41 8 65l59 281h-120l-114 -540c-29 -138 -113 -170 -176 -170c-49 0 -89 20 -109 53c-38 -42 -87 -53 -128 -53
c-61 0 -118 43 -118 108c0 92 78 121 173 150l120 571c30 143 116 170 182 170c55 0 96 -17 123 -52c47 42 102 52 151 52c80 0 179 -18 179 -115c0 -60 -38 -81 -79 -81c-29 0 -60 11 -60 54c0 22 13 49 34 49c2 0 7 0 8 -1c-1 26 -23 40 -55 40c-65 0 -94 -56 -106 -113z
M224 460l-90 -424l88 15l86 409h-84zM126 -175c27 0 54 25 68 92l23 109l-89 -18l-19 -88c-5 -24 -12 -45 -20 -63c4 -27 27 -32 37 -32zM317 500l7 34c11 54 29 94 50 125c-9 10 -21 17 -40 17c-56 0 -78 -51 -86 -94l-16 -82h85zM-130 -128c0 -14 18 -33 40 -33
c20 0 47 19 59 78l12 58c-63 -21 -111 -49 -111 -103z" />
    <glyph glyph-name="ffl" unicode="ffl" horiz-adv-x="780" 
d="M-73 -250c-61 0 -118 43 -118 108c0 92 78 121 173 150l120 571c30 143 116 170 182 170c50 0 88 -14 115 -42c36 33 80 42 117 42c90 0 175 -33 265 -69l-110 -520c-3 -13 -4 -23 -4 -32c0 -28 13 -37 41 -37c39 0 75 38 90 88h42c-57 -163 -156 -185 -210 -185
c-60 0 -107 36 -107 120c0 19 3 41 8 65l104 491c-26 11 -69 16 -82 16c-22 0 -54 -12 -68 -79l-22 -107h93l-8 -40h-93l-115 -540c-29 -138 -113 -170 -176 -170c-50 0 -89 20 -109 54c-39 -43 -87 -54 -128 -54zM224 460l-90 -424l88 15l87 409h-85zM89 -142
c3 -28 27 -33 37 -33c27 0 54 25 68 92l23 109l-89 -18l-19 -88c-5 -23 -12 -44 -20 -62zM317 500l17 79c7 36 19 65 32 87c-8 6 -18 10 -32 10c-56 0 -78 -51 -86 -94l-16 -82h85zM-130 -128c0 -14 18 -33 40 -33c20 0 47 19 59 78l12 58c-63 -21 -111 -49 -111 -103z" />
    <glyph glyph-name="fi" unicode="fi" horiz-adv-x="533" 
d="M427 553c-29 0 -60 11 -60 54c0 22 13 49 34 49c2 0 7 0 8 -1c-1 26 -23 40 -55 40c-65 0 -94 -56 -106 -113l-17 -82h80l-8 -40h-80l-114 -540c-29 -138 -113 -170 -176 -170c-73 0 -124 43 -124 112c0 89 87 120 173 146l111 526c39 184 148 215 234 215
c80 0 179 -18 179 -115c0 -60 -38 -81 -79 -81zM-136 -121c0 -34 30 -40 41 -40c20 0 46 21 58 78l12 58c-63 -20 -111 -54 -111 -96zM351 500h144l-72 -340c-3 -13 -4 -23 -4 -32c0 -28 13 -37 41 -37c39 0 75 38 90 88h42c-57 -163 -156 -185 -210 -185
c-60 0 -107 36 -107 120c0 19 3 41 8 65z" />
    <glyph glyph-name="fl" unicode="fl" horiz-adv-x="548" 
d="M-136 -128c0 -14 18 -33 40 -33c20 0 47 19 59 78l12 58c-63 -21 -111 -49 -111 -103zM549 680l-110 -520c-3 -13 -4 -23 -4 -32c0 -28 13 -37 41 -37c39 0 75 38 90 88h42c-57 -163 -156 -185 -210 -185c-60 0 -107 36 -107 120c0 19 3 41 8 65l104 491
c-26 11 -69 16 -82 16c-22 0 -54 -12 -68 -79l-22 -107h93l-8 -40h-93l-114 -540c-30 -143 -116 -170 -182 -170c-61 0 -118 43 -118 108c0 92 78 121 173 150l120 571c30 143 117 170 182 170c90 0 175 -33 265 -69z" />
    <glyph glyph-name="g_p" unicode="gp" horiz-adv-x="975" 
d="M600 537h144l-16 -75c29 25 67 43 117 43c68 0 122 -39 122 -158c0 -135 -52 -353 -246 -353c-34 0 -64 1 -92 3l-45 -211l-151 -36l53 252c-31 -1 -63 -4 -97 -11l-15 -71c-30 -143 -114 -170 -180 -170c-61 0 -112 32 -112 97c0 84 88 129 164 154l17 80
c-28 -36 -68 -67 -126 -67c-68 0 -133 42 -133 161c0 127 83 330 257 330c33 0 75 -5 82 -52l10 47h144l-98 -459c34 8 67 14 100 19zM690 76c105 0 140 180 140 274c0 77 -32 83 -50 83c-22 0 -50 -17 -69 -49l-65 -309c14 1 29 1 44 1zM292 443c-85 0 -140 -166 -140 -254
c0 -77 32 -78 50 -78c27 0 69 26 84 77l47 218c-1 13 -11 37 -41 37zM137 -139c0 -14 12 -33 34 -33c21 0 45 30 58 89l6 29c-51 -19 -98 -45 -98 -85z" />
    <glyph glyph-name="g_x" unicode="gx" horiz-adv-x="894" 
d="M560 500h141l39 -216c59 64 95 123 95 159c0 4 0 8 -1 12c-6 -1 -12 -2 -17 -2c-35 0 -47 25 -47 56c0 30 25 47 56 47c45 0 68 -40 68 -89c0 -65 -45 -134 -143 -238l9 -50c7 -38 15 -88 59 -88c39 0 75 38 90 88h42c-57 -163 -152 -185 -206 -185
c-64 0 -94 40 -116 137c-73 -81 -167 -117 -240 -138l-15 -73c-30 -143 -114 -170 -180 -170c-61 0 -112 32 -112 97c0 84 88 123 163 146l19 89c-28 -36 -68 -68 -127 -68c-68 0 -133 42 -133 161c0 127 83 330 257 330c33 0 75 -5 82 -52l10 47h144l-98 -461
c69 25 136 60 217 153zM292 443c-85 0 -140 -166 -140 -254c0 -77 32 -78 50 -78c29 0 75 30 87 88l44 207c-1 12 -10 37 -41 37zM137 -139c0 -14 12 -33 34 -33c21 0 45 30 58 89l6 30c-51 -19 -98 -45 -98 -86z" />
    <glyph glyph-name="g_z" unicode="gz" horiz-adv-x="908" 
d="M353 500h144l-123 -580c-30 -143 -114 -170 -180 -170c-61 0 -112 32 -112 97c0 84 88 126 163 149l19 85c-29 -36 -69 -67 -127 -67c-68 0 -133 42 -133 161c0 127 83 330 257 330c33 0 75 -5 82 -52zM803 91c-13 1 -19 10 -19 21c0 18 19 43 56 43c30 0 44 -21 44 -48
c0 -46 -45 -107 -122 -107h-265l255 446h-56c-31 0 -55 -2 -55 -16c0 -5 11 1 11 -22c0 -37 -28 -53 -54 -53c-23 0 -46 15 -46 44c0 41 45 101 116 101h257l-245 -423c17 -1 49 -6 76 -6c24 0 44 4 47 20zM292 443c-85 0 -140 -166 -140 -254c0 -77 32 -78 50 -78
c27 0 74 25 87 88l44 207c-1 12 -10 37 -41 37zM137 -139c0 -14 12 -33 34 -33c21 0 45 30 58 89l6 29c-51 -19 -98 -45 -98 -85z" />
    <glyph glyph-name="i_x" unicode="ix" horiz-adv-x="633" 
d="M85 500h144l-72 -340c-3 -13 -4 -23 -4 -32c0 -25 18 -36 44 -36c51 0 116 39 159 94l-57 314h141l39 -216c59 64 95 123 95 159c0 4 0 8 -1 12c-6 -1 -12 -2 -17 -2c-35 0 -47 25 -47 56c0 30 25 47 56 47c45 0 68 -40 68 -89c0 -65 -45 -134 -143 -238l9 -50
c7 -38 15 -88 59 -88c39 0 75 38 90 88h42c-57 -163 -152 -185 -206 -185c-64 0 -94 41 -116 138c-65 -73 -160 -138 -253 -138c-61 0 -106 37 -106 119c0 19 3 41 8 66zM105 633c0 44 35 80 79 80s80 -36 80 -80s-36 -79 -80 -79s-79 35 -79 79z" />
    <glyph glyph-name="i_z" unicode="iz" horiz-adv-x="637" 
d="M105 633c0 44 35 80 79 80s80 -36 80 -80s-36 -79 -80 -79s-79 35 -79 79zM85 500h144l-72 -340c-3 -13 -4 -23 -4 -32c0 -28 13 -37 41 -37c18 0 26 3 32 6c-5 -71 -56 -103 -110 -103c-60 0 -107 36 -107 120c0 19 3 41 8 65zM532 91c-13 1 -19 10 -19 21
c0 18 19 43 56 43c30 0 44 -21 44 -48c0 -46 -45 -107 -122 -107h-265l255 446h-56c-31 0 -55 -2 -55 -16c0 -5 11 1 11 -22c0 -37 -28 -53 -54 -53c-23 0 -46 15 -46 44c0 41 45 101 116 101h257l-245 -423c17 -1 49 -6 76 -6c24 0 44 4 47 20z" />
    <glyph glyph-name="iacute_x" unicode="&#xed;x" horiz-adv-x="633" 
d="M85 500h144l-72 -340c-3 -13 -4 -23 -4 -32c0 -25 18 -36 44 -36c51 0 116 39 159 94l-57 314h141l39 -216c59 64 95 123 95 159c0 4 0 8 -1 12c-6 -1 -12 -2 -17 -2c-35 0 -47 25 -47 56c0 30 25 47 56 47c45 0 68 -40 68 -89c0 -65 -45 -134 -143 -238l9 -50
c7 -38 15 -88 59 -88c39 0 75 38 90 88h42c-57 -163 -152 -185 -206 -185c-64 0 -94 41 -116 138c-65 -73 -160 -138 -253 -138c-61 0 -106 37 -106 119c0 19 3 41 8 66zM129 561l91 189h105l-121 -189h-75z" />
    <glyph glyph-name="iacute_z" unicode="&#xed;z" horiz-adv-x="637" 
d="M85 500h144l-72 -340c-3 -13 -4 -23 -4 -32c0 -28 13 -37 41 -37c18 0 26 3 32 6c-5 -71 -56 -103 -110 -103c-60 0 -107 36 -107 120c0 19 3 41 8 65zM532 91c-13 1 -19 10 -19 21c0 18 19 43 56 43c30 0 44 -21 44 -48c0 -46 -45 -107 -122 -107h-265l255 446h-56
c-31 0 -55 -2 -55 -16c0 -5 11 1 11 -22c0 -37 -28 -53 -54 -53c-23 0 -46 15 -46 44c0 41 45 101 116 101h257l-245 -423c17 -1 49 -6 76 -6c24 0 44 4 47 20zM128 561l91 189h105l-121 -189h-75z" />
    <glyph glyph-name="ij" unicode="ij" horiz-adv-x="507" 
d="M353 500h144l-99 -464c61 22 98 56 126 143h42c-39 -132 -115 -170 -177 -187l-15 -72c-30 -143 -114 -170 -180 -170c-61 0 -112 32 -112 97c0 84 88 126 163 149zM85 500h144l-72 -340c-3 -13 -4 -23 -4 -32c0 -28 13 -37 41 -37c18 0 26 3 32 6
c-5 -71 -56 -103 -110 -103c-60 0 -107 36 -107 120c0 19 3 41 8 65zM105 633c0 44 35 80 79 80s80 -36 80 -80s-36 -79 -80 -79s-79 35 -79 79zM364 634c0 44 35 80 79 80s80 -36 80 -80s-36 -79 -80 -79s-79 35 -79 79zM137 -139c0 -14 12 -33 34 -33c21 0 45 30 58 89
l6 29c-51 -19 -98 -45 -98 -85z" />
    <glyph glyph-name="j_x" unicode="jx" horiz-adv-x="625" 
d="M293 500h141l39 -216c59 64 95 123 95 159c0 4 0 8 -1 12c-6 -1 -12 -2 -17 -2c-35 0 -47 25 -47 56c0 30 25 47 56 47c45 0 68 -40 68 -89c0 -65 -45 -134 -143 -238l9 -50c7 -38 15 -88 59 -88c39 0 75 38 90 88h42c-57 -163 -152 -185 -206 -185
c-64 0 -94 40 -116 137c-73 -81 -167 -117 -240 -138l-15 -73c-30 -143 -114 -170 -180 -170c-61 0 -112 32 -112 97c0 84 88 123 164 146l107 507h144l-98 -461c69 25 136 60 217 153zM97 634c0 44 35 80 79 80s80 -36 80 -80s-36 -79 -80 -79s-79 35 -79 79zM-130 -139
c0 -14 12 -33 34 -33c21 0 45 30 58 89l7 30c-52 -19 -99 -45 -99 -86z" />
    <glyph glyph-name="j_z" unicode="jz" horiz-adv-x="616" 
d="M-17 8l103 492h145l-122 -580c-30 -143 -116 -170 -182 -170c-61 0 -118 43 -118 108c0 93 78 122 174 150zM511 91c-13 1 -19 10 -19 21c0 18 19 43 56 43c30 0 44 -21 44 -48c0 -46 -45 -107 -122 -107h-265l255 446h-56c-31 0 -55 -2 -55 -16c0 -5 11 1 11 -22
c0 -37 -28 -53 -54 -53c-23 0 -46 15 -46 44c0 41 45 101 116 101h257l-245 -423c17 -1 49 -6 76 -6c24 0 44 4 47 20zM102 634c0 44 35 80 79 80s80 -36 80 -80s-36 -79 -80 -79s-79 35 -79 79zM-136 -128c0 -14 18 -33 40 -33c21 0 46 19 59 78l13 59
c-64 -21 -112 -50 -112 -104z" />
    <glyph glyph-name="l_x" unicode="lx" horiz-adv-x="633" 
d="M18 179l106 501l148 20l-114 -540c-3 -13 -4 -23 -4 -32c0 -25 18 -36 44 -36c50 0 115 38 159 93l-58 315h141l39 -216c59 64 95 123 95 159c0 4 0 8 -1 12c-6 -1 -12 -2 -17 -2c-35 0 -47 25 -47 56c0 30 25 47 56 47c45 0 68 -40 68 -89c0 -65 -45 -134 -143 -238
l9 -50c7 -38 15 -88 59 -88c39 0 75 38 90 88h42c-57 -163 -152 -185 -206 -185c-64 0 -94 40 -116 137c-65 -73 -160 -137 -252 -137c-61 0 -106 37 -106 119c0 19 3 41 8 66z" />
    <glyph glyph-name="l_z" unicode="lz" horiz-adv-x="638" 
d="M273 702l-115 -540c-2 -10 -4 -20 -4 -29c0 -23 10 -40 41 -40c18 0 26 3 32 6c-5 -71 -56 -105 -110 -105c-60 0 -107 37 -107 122c0 19 3 41 8 65l107 501zM533 91c-13 1 -19 10 -19 21c0 18 19 43 56 43c30 0 44 -21 44 -48c0 -46 -45 -107 -122 -107h-265l255 446
h-56c-31 0 -55 -2 -55 -16c0 -5 11 1 11 -22c0 -37 -28 -53 -54 -53c-23 0 -46 15 -46 44c0 41 45 101 116 101h257l-245 -423c17 -1 49 -6 76 -6c24 0 44 4 47 20z" />
    <glyph glyph-name="m_x" unicode="mx" horiz-adv-x="1126" 
d="M792 500h141l39 -216c59 64 95 123 95 159c0 4 0 8 -1 12c-6 -1 -12 -2 -17 -2c-35 0 -47 25 -47 56c0 30 25 47 56 47c45 0 68 -40 68 -89c0 -65 -45 -134 -143 -238l9 -50c7 -38 15 -88 59 -88c39 0 75 38 90 88h42c-57 -163 -152 -185 -206 -185
c-64 0 -94 41 -117 138c-68 -73 -170 -138 -241 -138c-87 0 -112 56 -112 113c0 68 45 191 45 255c0 33 -12 51 -36 51c-36 0 -63 -42 -78 -92l-68 -321h-144l73 345c2 8 3 16 3 25c0 22 -8 44 -30 44c-39 0 -66 -43 -81 -93l-68 -321h-144l106 500h144l-11 -52
c42 48 87 57 122 57c53 0 92 -24 103 -86c48 74 102 85 139 85c64 0 111 -33 111 -113c0 -81 -48 -202 -48 -258c0 -25 14 -42 44 -42c46 0 115 40 160 95z" />
    <glyph glyph-name="m_z" unicode="mz" horiz-adv-x="1125" 
d="M552 362c0 33 -12 51 -36 51c-36 0 -63 -42 -78 -92l-68 -321h-144l73 345c2 8 3 16 3 25c0 22 -8 44 -30 44c-39 0 -66 -43 -81 -93l-68 -321h-144l106 500h144l-11 -52c42 48 87 57 122 57c53 0 92 -24 103 -86c48 74 102 85 139 85c64 0 111 -33 111 -113
c0 -81 -48 -202 -48 -258c0 -25 10 -42 40 -42c17 0 27 2 33 6c-9 -72 -57 -103 -110 -103c-77 0 -101 56 -101 113c0 68 45 191 45 255zM1020 91c-13 1 -19 10 -19 21c0 18 19 43 56 43c30 0 44 -21 44 -48c0 -46 -45 -107 -122 -107h-265l255 446h-56
c-31 0 -55 -2 -55 -16c0 -5 11 1 11 -22c0 -37 -28 -53 -54 -53c-23 0 -46 15 -46 44c0 41 45 101 116 101h257l-245 -423c17 -1 49 -6 76 -6c24 0 44 4 47 20z" />
    <glyph glyph-name="n_z" unicode="nz" horiz-adv-x="882" 
d="M305 362c0 33 -12 51 -36 51c-36 0 -63 -42 -78 -92l-68 -321h-144l106 500h144l-11 -52c42 48 86 56 117 56c64 0 111 -33 111 -113c0 -81 -48 -202 -48 -258c0 -25 10 -42 40 -42c17 0 27 2 33 6c-9 -72 -57 -103 -110 -103c-77 0 -101 56 -101 113c0 68 45 191 45 255
zM777 91c-13 1 -19 10 -19 21c0 18 19 43 56 43c30 0 44 -21 44 -48c0 -46 -45 -107 -122 -107h-265l255 446h-56c-31 0 -55 -2 -55 -16c0 -5 11 1 11 -22c0 -37 -28 -53 -54 -53c-23 0 -46 15 -46 44c0 41 45 101 116 101h257l-245 -423c17 -1 49 -6 76 -6c24 0 44 4 47 20
z" />
    <glyph glyph-name="o_ae" unicode="o&#xe6;" horiz-adv-x="1088" 
d="M277 505c82 0 125 -49 128 -146c119 48 164 146 294 146c67 0 116 -12 149 -41c35 25 79 41 132 41c89 0 109 -42 109 -95c0 -111 -110 -201 -230 -208c-1 -11 -2 -22 -2 -32c0 -75 24 -92 60 -92c96 0 134 40 189 101h34c-56 -90 -140 -185 -276 -185
c-73 0 -128 28 -147 96c-25 -47 -63 -96 -136 -96c-68 0 -133 24 -133 131c0 123 95 165 228 165c20 0 35 -2 46 -4c13 29 22 62 22 90c0 39 -18 70 -68 70c-114 0 -132 -85 -272 -132c-11 -196 -114 -320 -241 -320c-93 0 -160 44 -160 158c0 115 68 353 274 353zM203 88
c49 0 101 89 116 207c-19 3 -28 21 -28 48c0 28 13 46 32 54c-4 35 -14 48 -38 48c-71 0 -133 -178 -133 -276c0 -66 13 -81 51 -81zM1012 412c0 28 -6 44 -24 44c-52 0 -101 -110 -122 -206c78 5 146 83 146 162zM694 229c-52 0 -105 -28 -105 -91c0 -42 33 -47 51 -47
c25 0 56 29 75 137c-7 1 -14 1 -21 1z" />
    <glyph glyph-name="o_s" unicode="os" horiz-adv-x="786" 
d="M565 511l148 20c12 -259 22 -298 22 -364c0 -13 -1 -26 -3 -37c27 15 52 34 71 49h42c-47 -54 -96 -90 -139 -117c-34 -50 -93 -68 -147 -68c-119 0 -139 72 -139 133c0 59 37 95 72 95c34 0 52 -13 52 -42c0 -24 -22 -45 -48 -45c-10 0 -22 3 -27 13
c0 -47 20 -75 58 -75c44 0 63 23 63 93c0 56 -11 87 -22 272c-48 -73 -104 -118 -165 -137c-15 -189 -116 -307 -240 -307c-93 0 -160 44 -160 158c0 115 68 353 274 353c84 0 126 -51 128 -153c50 5 104 62 160 159zM203 88c49 0 100 87 116 204c-18 5 -27 20 -27 46
c0 28 13 46 31 53c-2 40 -13 54 -38 54c-71 0 -133 -178 -133 -276c0 -66 13 -81 51 -81z" />
    <glyph glyph-name="o_s_x" unicode="osx" horiz-adv-x="1134" 
d="M800 500h141l39 -216c59 64 95 123 95 159c0 4 0 8 -1 12c-6 -1 -12 -2 -17 -2c-35 0 -47 25 -47 56c0 30 25 47 56 47c45 0 68 -40 68 -89c0 -65 -45 -134 -143 -238l9 -50c7 -38 15 -88 59 -88c39 0 75 38 90 88h42c-57 -163 -152 -185 -206 -185
c-66 0 -96 44 -119 148c-50 -35 -118 -61 -161 -82c-34 -48 -92 -66 -145 -66c-119 0 -139 72 -139 133c0 59 37 95 72 95c34 0 52 -13 52 -42c0 -24 -22 -45 -48 -45c-10 0 -22 3 -27 13c0 -47 20 -75 58 -75c44 0 63 23 63 93c0 56 -11 87 -22 272
c-49 -73 -105 -119 -166 -137c-15 -189 -116 -307 -240 -307c-93 0 -160 44 -160 158c0 115 68 353 274 353c84 0 126 -51 128 -153c50 4 105 62 161 159l148 20c12 -259 22 -298 22 -364c0 -16 -2 -31 -4 -44c41 17 90 43 124 72zM203 88c49 0 100 88 116 205
c-17 5 -26 19 -26 45c0 28 12 45 30 53c-2 40 -13 54 -38 54c-71 0 -133 -178 -133 -276c0 -66 13 -81 51 -81z" />
    <glyph glyph-name="o_s_z" unicode="osz" horiz-adv-x="1139" 
d="M277 505c84 0 126 -51 128 -153c50 5 104 62 160 159l148 20c12 -259 22 -298 22 -364c0 -130 -94 -173 -176 -173c-119 0 -139 72 -139 133c0 59 37 95 72 95c34 0 52 -13 52 -42c0 -24 -22 -45 -48 -45c-10 0 -22 3 -27 13c0 -47 20 -75 58 -75c44 0 63 23 63 93
c0 56 -11 87 -22 272c-48 -73 -104 -118 -165 -137c-15 -189 -116 -307 -240 -307c-93 0 -160 44 -160 158c0 115 68 353 274 353zM1034 91c-13 1 -19 10 -19 21c0 18 19 43 56 43c30 0 44 -21 44 -48c0 -46 -45 -107 -122 -107h-265l255 446h-56c-31 0 -55 -2 -55 -16
c0 -5 11 1 11 -22c0 -37 -28 -53 -54 -53c-23 0 -46 15 -46 44c0 41 45 101 116 101h257l-245 -423c17 -1 49 -6 76 -6c24 0 44 4 47 20zM203 88c49 0 100 87 116 204c-18 5 -27 20 -27 46c0 28 13 46 31 53c-2 40 -13 54 -38 54c-71 0 -133 -178 -133 -276
c0 -66 13 -81 51 -81z" />
    <glyph glyph-name="o_x" unicode="ox" horiz-adv-x="851" 
d="M277 505c84 0 126 -51 128 -153c38 5 79 40 122 100l-9 48h141l36 -198c62 56 98 103 98 141c0 4 0 8 -1 12c-6 -1 -12 -2 -17 -2c-35 0 -47 25 -47 56c0 30 25 47 56 47c45 0 68 -40 68 -89c0 -66 -44 -130 -146 -222l12 -66c7 -38 15 -88 59 -88c39 0 75 38 90 88h42
c-57 -163 -152 -185 -206 -185c-73 0 -102 54 -126 185l-2 7c-46 -31 -90 -72 -90 -112c5 1 9 1 13 1c34 0 41 -26 41 -49c0 -39 -23 -55 -56 -55c-45 0 -66 28 -66 71c0 66 75 153 148 200l-28 155c-41 -48 -86 -80 -134 -96c-14 -188 -116 -307 -240 -307
c-93 0 -160 44 -160 158c0 115 68 353 274 353zM203 88c49 0 100 87 116 204c-18 5 -28 19 -28 46c0 28 13 46 32 54c-3 39 -13 53 -38 53c-71 0 -133 -178 -133 -276c0 -66 13 -81 51 -81z" />
    <glyph glyph-name="oacute_s" unicode="&#xf3;s" horiz-adv-x="787" 
d="M566 511l148 20c12 -259 22 -298 22 -364c0 -13 -1 -26 -3 -37c27 15 52 34 71 49h42c-47 -54 -96 -90 -139 -117c-34 -50 -93 -68 -147 -68c-119 0 -139 72 -139 133c0 59 37 95 72 95c34 0 52 -13 52 -42c0 -24 -22 -45 -48 -45c-10 0 -22 3 -27 13
c0 -47 20 -75 58 -75c44 0 63 23 63 93c0 56 -11 87 -22 272c-48 -73 -104 -118 -165 -137c-15 -189 -116 -307 -240 -307c-93 0 -160 44 -160 158c0 115 68 353 274 353c84 0 126 -51 128 -153c50 5 104 62 160 159zM204 88c49 0 100 87 116 204c-18 5 -27 20 -27 46
c0 28 13 46 31 53c-2 40 -13 54 -38 54c-71 0 -133 -178 -133 -276c0 -66 13 -81 51 -81zM236 561l91 189h105l-121 -189h-75z" />
    <glyph glyph-name="oacute_s_x" unicode="&#xf3;sx" horiz-adv-x="1134" 
d="M800 500h141l39 -216c59 64 95 123 95 159c0 4 0 8 -1 12c-6 -1 -12 -2 -17 -2c-35 0 -47 25 -47 56c0 30 25 47 56 47c45 0 68 -40 68 -89c0 -65 -45 -134 -143 -238l9 -50c7 -38 15 -88 59 -88c39 0 75 38 90 88h42c-57 -163 -152 -185 -206 -185
c-66 0 -96 44 -119 148c-49 -35 -116 -60 -159 -81c-35 -49 -93 -67 -146 -67c-119 0 -139 72 -139 133c0 59 37 95 72 95c34 0 52 -13 52 -42c0 -24 -22 -45 -48 -45c-10 0 -22 3 -27 13c0 -47 20 -75 58 -75c44 0 63 23 63 93c0 56 -11 87 -22 272
c-49 -73 -105 -119 -167 -138c-15 -188 -116 -306 -240 -306c-93 0 -160 44 -160 158c0 115 68 353 274 353c84 0 126 -51 128 -153c51 3 105 61 162 159l148 20c12 -259 22 -298 22 -364c0 -16 -1 -31 -4 -44c41 17 89 43 123 72zM203 88c49 0 100 88 116 205
c-17 6 -25 20 -25 45c0 27 12 45 29 53c-2 40 -13 54 -38 54c-71 0 -133 -178 -133 -276c0 -66 13 -81 51 -81zM237 561l91 189h105l-121 -189h-75z" />
    <glyph glyph-name="oacute_s_z" unicode="&#xf3;sz" horiz-adv-x="1140" 
d="M277 505c84 0 126 -51 128 -153c50 4 105 62 161 159l148 20c12 -259 22 -298 22 -364c0 -130 -94 -173 -176 -173c-119 0 -139 72 -139 133c0 59 37 95 72 95c34 0 52 -13 52 -42c0 -24 -22 -45 -48 -45c-10 0 -22 3 -27 13c0 -47 20 -75 58 -75c44 0 63 23 63 93
c0 56 -11 87 -22 272c-49 -73 -105 -119 -166 -137c-15 -189 -116 -307 -240 -307c-93 0 -160 44 -160 158c0 115 68 353 274 353zM1035 91c-13 1 -19 10 -19 21c0 18 19 43 56 43c30 0 44 -21 44 -48c0 -46 -45 -107 -122 -107h-265l255 446h-56c-31 0 -55 -2 -55 -16
c0 -5 11 1 11 -22c0 -37 -28 -53 -54 -53c-23 0 -46 15 -46 44c0 41 45 101 116 101h257l-245 -423c17 -1 49 -6 76 -6c24 0 44 4 47 20zM203 88c49 0 100 88 116 205c-17 5 -26 19 -26 45c0 28 12 45 30 53c-2 40 -13 54 -38 54c-71 0 -133 -178 -133 -276
c0 -66 13 -81 51 -81zM236 561l91 189h105l-121 -189h-75z" />
    <glyph glyph-name="oacute_x" unicode="&#xf3;x" horiz-adv-x="852" 
d="M277 505c84 0 126 -51 128 -153c39 4 80 40 123 100l-9 48h141l36 -198c62 56 98 103 98 141c0 4 0 8 -1 12c-6 -1 -12 -2 -17 -2c-35 0 -47 25 -47 56c0 30 25 47 56 47c45 0 68 -40 68 -89c0 -66 -44 -130 -146 -222l12 -66c7 -38 15 -88 59 -88c39 0 75 38 90 88h42
c-57 -163 -152 -185 -206 -185c-73 0 -102 54 -126 185l-2 7c-46 -31 -90 -72 -90 -112c5 1 9 1 13 1c34 0 41 -26 41 -49c0 -39 -23 -55 -56 -55c-45 0 -66 28 -66 71c0 66 75 153 148 200l-28 155c-41 -49 -87 -81 -135 -96c-15 -189 -116 -307 -240 -307
c-93 0 -160 44 -160 158c0 115 68 353 274 353zM203 88c49 0 100 87 116 204c-18 5 -27 20 -27 46c0 28 13 46 31 53c-2 40 -13 54 -38 54c-71 0 -133 -178 -133 -276c0 -66 13 -81 51 -81zM235 561l91 189h105l-121 -189h-75z" />
    <glyph glyph-name="r_x" unicode="rx" horiz-adv-x="785" 
d="M439 500h141l45 -202c64 58 102 106 102 145c0 4 0 8 -1 12c-6 -1 -12 -2 -17 -2c-35 0 -47 25 -47 56c0 30 25 47 56 47c45 0 68 -40 68 -89c0 -67 -44 -131 -149 -224l15 -64c9 -38 15 -88 59 -88c39 0 75 38 90 88h42c-57 -163 -149 -185 -203 -185
c-73 0 -100 55 -129 185l-2 7c-46 -31 -90 -72 -90 -112c5 1 9 1 13 1c34 0 41 -26 41 -49c0 -39 -23 -55 -56 -55c-45 0 -66 28 -66 71c0 66 73 151 146 198zM85 500h144l-14 -63c38 37 82 68 122 68c45 0 69 -37 69 -75c0 -35 -23 -73 -72 -73c-56 0 -28 63 -58 63
c-25 0 -47 -16 -73 -40l-80 -380h-144z" />
    <glyph glyph-name="r_z" unicode="rz" horiz-adv-x="654" 
d="M276 418c-30 0 -48 -15 -73 -38l-80 -380h-144l106 500h144l-13 -62c35 30 73 62 121 62h334l-245 -423c37 0 62 -12 91 -12c16 0 28 6 32 26c-13 1 -19 10 -19 21c0 18 19 43 56 43c30 0 44 -21 44 -48c0 -46 -45 -107 -122 -107h-265l254 443h-93c1 -5 1 -10 1 -15
c0 -42 -26 -76 -71 -76c-56 0 -28 66 -58 66z" />
    <glyph glyph-name="s_x" unicode="sx" horiz-adv-x="729" 
d="M395 500h141l39 -216c59 64 95 123 95 159c0 4 0 8 -1 12c-6 -1 -12 -2 -17 -2c-35 0 -47 25 -47 56c0 30 25 47 56 47c45 0 68 -40 68 -89c0 -65 -45 -134 -143 -238l9 -50c7 -38 15 -88 59 -88c39 0 75 38 90 88h42c-57 -163 -152 -185 -206 -185
c-66 0 -96 44 -119 148c-55 -39 -132 -66 -173 -88c-42 -44 -106 -60 -157 -60c-102 0 -146 67 -146 128c0 46 25 80 53 93c56 99 92 198 123 296l148 20c12 -259 22 -298 22 -364c0 -16 -2 -31 -5 -45c41 17 91 43 125 73zM109 179c0 -24 -18 -49 -44 -49
c-10 0 -22 3 -27 13c0 -47 17 -70 61 -70s87 23 87 93c0 52 -9 83 -19 237c-20 -65 -48 -125 -81 -189c13 -6 23 -18 23 -35z" />
    <glyph glyph-name="s_z" unicode="sz" horiz-adv-x="744" 
d="M161 511l148 20c12 -259 22 -298 22 -364c0 -130 -118 -173 -200 -173c-102 0 -146 67 -146 128c0 46 25 80 53 93c56 99 92 198 123 296zM639 91c-13 1 -19 10 -19 21c0 18 19 43 56 43c30 0 44 -21 44 -48c0 -46 -45 -107 -122 -107h-265l255 446h-56
c-31 0 -55 -2 -55 -16c0 -5 11 1 11 -22c0 -37 -28 -53 -54 -53c-23 0 -46 15 -46 44c0 41 45 101 116 101h257l-245 -423c17 -1 49 -6 76 -6c24 0 44 4 47 20zM109 179c0 -24 -18 -49 -44 -49c-10 0 -22 3 -27 13c0 -47 17 -70 61 -70s87 23 87 93c0 52 -9 83 -19 237
c-20 -65 -48 -125 -81 -189c13 -6 23 -18 23 -35z" />
    <glyph glyph-name="t_x" unicode="tx" horiz-adv-x="632" 
d="M17 179l60 281h-33l8 40h33l30 138l148 20l-34 -158h210l39 -216c59 64 95 123 95 159c0 4 0 8 -1 12c-6 -1 -12 -2 -17 -2c-35 0 -47 25 -47 56c0 30 25 47 56 47c45 0 68 -40 68 -89c0 -65 -45 -134 -143 -238l9 -50c7 -38 15 -88 59 -88c39 0 75 38 90 88h42
c-57 -163 -152 -185 -206 -185c-64 0 -94 40 -116 137c-65 -73 -160 -137 -252 -137c-61 0 -106 37 -106 119c0 19 3 41 8 66zM221 460l-64 -300c-3 -13 -4 -23 -4 -32c0 -25 18 -36 44 -36c50 0 115 38 159 93l-51 275h-84z" />
    <glyph glyph-name="t_z" unicode="tz" horiz-adv-x="700" 
d="M221 460l-64 -300c-3 -12 -5 -24 -5 -35c0 -21 8 -36 35 -36c7 0 18 0 26 3c-28 -86 -72 -98 -106 -98c-70 0 -100 49 -100 113c0 17 2 35 6 53l64 300h-33l8 40h33l30 138l148 20s-15 -68 -34 -158h60l-8 -40h-60zM595 91c-13 1 -19 10 -19 21c0 18 19 43 56 43
c30 0 44 -21 44 -48c0 -46 -45 -107 -122 -107h-265l255 446h-56c-31 0 -55 -2 -55 -16c0 -5 11 1 11 -22c0 -37 -28 -53 -54 -53c-23 0 -46 15 -46 44c0 41 45 101 116 101h257l-245 -423c17 -1 49 -6 76 -6c24 0 44 4 47 20z" />
    <glyph glyph-name="u_v" unicode="uv" horiz-adv-x="915" 
d="M85 500h144l-72 -340c-2 -8 -3 -17 -3 -25c0 -23 7 -44 30 -44c39 0 65 38 80 88l68 321h143l-106 -500h-143l11 51c-43 -48 -87 -57 -121 -57c-60 0 -107 36 -107 120c0 19 3 41 8 65zM853 520c43 0 64 -38 64 -90c0 -156 -79 -436 -281 -436c-77 0 -124 40 -124 115
c0 15 2 32 6 51l59 286l-26 13l8 41h176l-73 -340c-3 -14 -6 -26 -6 -37c0 -19 9 -32 38 -32c88 0 165 199 165 312v16c-6 -2 -15 -4 -21 -4c-29 0 -42 28 -42 56c0 21 24 49 57 49z" />
    <glyph glyph-name="u_x" unicode="ux" horiz-adv-x="880" 
d="M85 500h144l-72 -340c-2 -8 -3 -17 -3 -25c0 -23 7 -44 30 -44c39 0 65 38 80 88l68 321h144l-72 -340c-2 -9 -3 -17 -3 -25c0 -25 10 -44 43 -44c52 0 118 43 160 94l-58 315h141l39 -216c59 64 95 123 95 159c0 4 0 8 -1 12c-6 -1 -12 -2 -17 -2c-35 0 -47 25 -47 56
c0 30 25 47 56 47c45 0 68 -40 68 -89c0 -65 -45 -134 -143 -238l9 -50c7 -38 15 -88 59 -88c39 0 75 38 90 88h42c-57 -163 -152 -185 -206 -185c-63 0 -93 39 -116 134c-75 -95 -154 -134 -235 -134c-55 0 -105 36 -115 96c-50 -83 -107 -96 -149 -96
c-60 0 -107 38 -107 121c0 19 3 40 8 64z" />
    <glyph glyph-name="y_p" unicode="yp" horiz-adv-x="954" 
d="M579 537h144l-16 -75c29 25 67 43 117 43c68 0 122 -39 122 -158c0 -135 -52 -353 -246 -353c-34 0 -64 1 -92 3l-45 -211l-151 -36l53 252c-31 -1 -63 -4 -97 -11l-15 -71c-30 -143 -114 -170 -180 -170c-61 0 -112 32 -112 97c0 84 88 129 164 154l11 49
c-42 -47 -86 -56 -120 -56c-60 0 -107 36 -107 120c0 19 3 41 8 65l68 321h144l-72 -340c-2 -8 -3 -17 -3 -25c0 -23 7 -44 30 -44c37 0 63 35 78 82l70 327h144l-98 -459c34 8 67 14 100 19zM669 76c105 0 140 180 140 274c0 77 -32 83 -50 83c-22 0 -50 -17 -69 -49
l-65 -309c14 1 29 1 44 1zM116 -139c0 -14 12 -33 34 -33c21 0 45 30 58 89l6 29c-51 -19 -98 -45 -98 -85z" />
    <glyph glyph-name="y_x" unicode="yx" horiz-adv-x="873" 
d="M332 500h144l-98 -461c69 25 136 60 217 153l-56 308h141l39 -216c59 64 95 123 95 159c0 4 0 8 -1 12c-6 -1 -12 -2 -17 -2c-35 0 -47 25 -47 56c0 30 25 47 56 47c45 0 68 -40 68 -89c0 -65 -45 -134 -143 -238l9 -50c7 -38 15 -88 59 -88c39 0 75 38 90 88h42
c-57 -163 -152 -184 -206 -184c-64 0 -94 40 -116 136c-73 -81 -167 -117 -240 -138l-15 -73c-30 -143 -114 -170 -180 -170c-61 0 -112 32 -112 97c0 84 88 123 163 146l13 58c-43 -48 -87 -56 -121 -56c-60 0 -107 35 -107 119c0 19 3 41 8 65l68 321h144l-72 -340
c-2 -8 -3 -17 -3 -25c0 -23 7 -44 30 -44c39 0 65 38 80 88zM116 -139c0 -14 12 -33 34 -33c21 0 45 30 58 89l6 30c-51 -19 -98 -45 -98 -86z" />
    <glyph glyph-name="y_z" unicode="yz" horiz-adv-x="888" 
d="M85 500h144l-72 -340c-2 -8 -3 -17 -3 -25c0 -23 7 -44 30 -44c39 0 65 38 80 88l68 321h145l-122 -580c-30 -143 -116 -170 -182 -170c-61 0 -118 43 -118 108c0 93 78 122 173 150l10 44c-43 -49 -88 -58 -122 -58c-60 0 -107 36 -107 120c0 19 3 41 8 65zM783 91
c-13 1 -19 10 -19 21c0 18 19 43 56 43c30 0 44 -21 44 -48c0 -46 -45 -107 -122 -107h-265l255 446h-56c-31 0 -55 -2 -55 -16c0 -5 11 1 11 -22c0 -37 -28 -53 -54 -53c-23 0 -46 15 -46 44c0 41 45 101 116 101h257l-245 -423c17 -1 49 -6 76 -6c24 0 44 4 47 20z
M110 -128c0 -14 18 -33 40 -33c20 0 46 19 59 78l12 59c-63 -21 -111 -50 -111 -104z" />
    <glyph glyph-name=".notdef" horiz-adv-x="385" 
 />
    <glyph glyph-name="A" unicode="A" horiz-adv-x="603" 
d="M487 0h-144l77 363c-51 23 -90 32 -134 36c-75 -163 -130 -352 -130 -453c0 -38 8 -51 14 -60c-54 0 -134 2 -134 106c0 90 60 254 147 407c-62 -4 -104 -18 -117 -52c5 0 13 -17 13 -31c0 -24 -25 -39 -56 -39c-34 0 -62 19 -62 58c0 68 87 123 202 123
c14 0 33 -1 54 -3c101 160 231 295 350 295c20 0 53 -4 77 -14zM429 407l58 272c-60 -32 -124 -125 -180 -237c41 -8 83 -19 122 -35z" />
    <glyph glyph-name="A.salt" horiz-adv-x="535" 
d="M419 0h-144l77 366h-158c-64 -154 -106 -326 -106 -423c0 -46 11 -50 14 -56c-69 4 -134 6 -134 112c0 189 290 752 528 752c24 0 56 -5 80 -15zM216 418h147l56 264c-73 -32 -145 -138 -203 -264z" />
    <glyph glyph-name="AE" unicode="&#xc6;" horiz-adv-x="842" 
d="M766 0h-369l77 363c-51 22 -92 33 -135 36c-75 -162 -129 -352 -129 -456c0 -51 13 -47 14 -56c-69 4 -134 6 -134 112c0 85 59 248 147 400c-60 -4 -103 -16 -117 -52c5 0 13 -17 13 -31c0 -21 -18 -39 -61 -39c-29 0 -57 18 -57 63c0 61 92 115 195 115
c17 0 37 -1 59 -3c101 162 231 299 349 299c55 0 110 -20 180 -20c35 0 73 5 117 19c-14 -43 -24 -110 -107 -110c-50 0 -86 17 -124 32l-54 -253h155l-20 -74h-151l-51 -239h224zM483 407l58 272c-61 -33 -126 -126 -182 -238c42 -8 85 -19 124 -34z" />
    <glyph glyph-name="Aacute" unicode="&#xc1;" horiz-adv-x="603" 
d="M487 0h-144l77 363c-51 23 -90 32 -134 36c-75 -163 -130 -352 -130 -453c0 -38 8 -51 14 -60c-54 0 -134 2 -134 106c0 90 60 254 147 407c-62 -4 -104 -18 -117 -52c5 0 13 -17 13 -31c0 -24 -25 -39 -56 -39c-34 0 -62 19 -62 58c0 68 87 123 202 123
c14 0 33 -1 54 -3c101 160 231 295 350 295c20 0 53 -4 77 -14zM429 407l58 272c-60 -32 -124 -125 -180 -237c41 -8 83 -19 122 -35zM438 811l91 189h105l-121 -189h-75z" />
    <glyph glyph-name="Acircumflex" unicode="&#xc2;" horiz-adv-x="603" 
d="M487 0h-144l77 363c-51 23 -90 32 -134 36c-75 -163 -130 -352 -130 -453c0 -38 8 -51 14 -60c-54 0 -134 2 -134 106c0 90 60 254 147 407c-62 -4 -104 -18 -117 -52c5 0 13 -17 13 -31c0 -24 -25 -39 -56 -39c-34 0 -62 19 -62 58c0 68 87 123 202 123
c14 0 33 -1 54 -3c101 160 231 295 350 295c20 0 53 -4 77 -14zM429 407l58 272c-60 -32 -124 -125 -180 -237c41 -8 83 -19 122 -35zM652 811h-32l-60 80l-157 -80h-44l212 189h21z" />
    <glyph glyph-name="Adieresis" unicode="&#xc4;" horiz-adv-x="603" 
d="M487 0h-144l77 363c-51 23 -90 32 -134 36c-75 -163 -130 -352 -130 -453c0 -38 8 -51 14 -60c-54 0 -134 2 -134 106c0 90 60 254 147 407c-62 -4 -104 -18 -117 -52c5 0 13 -17 13 -31c0 -24 -25 -39 -56 -39c-34 0 -62 19 -62 58c0 68 87 123 202 123
c14 0 33 -1 54 -3c101 160 231 295 350 295c20 0 53 -4 77 -14zM429 407l58 272c-60 -32 -124 -125 -180 -237c41 -8 83 -19 122 -35zM562 884c0 33 27 61 61 61c33 0 61 -28 61 -61c0 -34 -28 -61 -61 -61c-34 0 -61 27 -61 61zM382 884c0 33 27 61 61 61
c33 0 61 -28 61 -61c0 -34 -28 -61 -61 -61c-34 0 -61 27 -61 61z" />
    <glyph glyph-name="Agrave" unicode="&#xc0;" horiz-adv-x="603" 
d="M487 0h-144l77 363c-51 23 -90 32 -134 36c-75 -163 -130 -352 -130 -453c0 -38 8 -51 14 -60c-54 0 -134 2 -134 106c0 90 60 254 147 407c-62 -4 -104 -18 -117 -52c5 0 13 -17 13 -31c0 -24 -25 -39 -56 -39c-34 0 -62 19 -62 58c0 68 87 123 202 123
c14 0 33 -1 54 -3c101 160 231 295 350 295c20 0 53 -4 77 -14zM429 407l58 272c-60 -32 -124 -125 -180 -237c41 -8 83 -19 122 -35zM448 811l-59 189h105l29 -189h-75z" />
    <glyph glyph-name="Aogonek" unicode="&#x104;" horiz-adv-x="603" 
d="M460 5h-70l-7 -5h-40l77 363c-51 23 -90 32 -134 36c-75 -163 -130 -352 -130 -453c0 -38 8 -51 14 -60c-54 0 -134 2 -134 106c0 90 60 254 147 407c-62 -4 -104 -18 -117 -52c5 0 13 -17 13 -31c0 -24 -25 -39 -56 -39c-34 0 -62 19 -62 58c0 68 87 123 202 123
c14 0 33 -1 54 -3c101 160 231 295 350 295c20 0 53 -4 77 -14l-157 -736h-38c3 2 7 3 11 5zM429 407l58 272c-60 -32 -124 -125 -180 -237c41 -8 83 -19 122 -35zM313 -115c0 36 24 78 70 115h66c-26 -15 -53 -49 -53 -84c0 -22 11 -50 39 -50c24 0 48 21 68 34
c-1 -12 -2 -19 -2 -31c-25 -23 -57 -62 -109 -62c-55 0 -79 43 -79 78z" />
    <glyph glyph-name="Aring" unicode="&#xc5;" horiz-adv-x="603" 
d="M487 0h-144l77 363c-51 23 -90 32 -134 36c-75 -163 -130 -352 -130 -453c0 -38 8 -51 14 -60c-54 0 -134 2 -134 106c0 90 60 254 147 407c-62 -4 -104 -18 -117 -52c5 0 13 -17 13 -31c0 -24 -25 -39 -56 -39c-34 0 -62 19 -62 58c0 68 87 123 202 123
c14 0 33 -1 54 -3c101 160 231 295 350 295c20 0 53 -4 77 -14zM429 407l58 272c-60 -32 -124 -125 -180 -237c41 -8 83 -19 122 -35zM522 963c49 0 72 -34 72 -77c0 -44 -25 -84 -87 -84c-43 0 -70 32 -70 70c0 36 25 91 85 91zM557 883c0 19 -1 47 -33 47
c-35 0 -47 -31 -47 -56c0 -22 10 -37 34 -37c31 0 46 18 46 46z" />
    <glyph glyph-name="Atilde" unicode="&#xc3;" horiz-adv-x="603" 
d="M487 0h-144l77 363c-51 23 -90 32 -134 36c-75 -163 -130 -352 -130 -453c0 -38 8 -51 14 -60c-54 0 -134 2 -134 106c0 90 60 254 147 407c-62 -4 -104 -18 -117 -52c5 0 13 -17 13 -31c0 -24 -25 -39 -56 -39c-34 0 -62 19 -62 58c0 68 87 123 202 123
c14 0 33 -1 54 -3c101 160 231 295 350 295c20 0 53 -4 77 -14zM756 920l6 -1c-11 -47 -85 -100 -161 -100c-66 0 -113 37 -168 37c-26 0 -48 -9 -66 -26l-6 2c32 64 91 98 167 98c73 0 107 -33 165 -33c25 0 49 8 63 23zM429 407l58 272c-60 -32 -124 -125 -180 -237
c41 -8 83 -19 122 -35z" />
    <glyph glyph-name="B" unicode="B" horiz-adv-x="681" 
d="M281 636l148 20l-47 -222h6c80 0 144 87 144 162c0 57 -37 108 -132 108c-117 0 -250 -78 -250 -243c0 -48 11 -59 14 -68c-66 0 -107 25 -107 92c0 138 174 265 363 265c147 0 213 -77 213 -159c0 -59 -35 -122 -100 -159c85 -17 118 -86 118 -161
c0 -96 -52 -288 -219 -288c-43 0 -99 13 -99 74c0 16 4 35 13 58c25 -26 44 -36 67 -36c73 0 99 104 99 180c0 70 -22 127 -95 127c-8 0 -28 -1 -46 -3l-82 -383h-144z" />
    <glyph glyph-name="B.salt" horiz-adv-x="675" 
d="M281 636l148 20l-47 -222h6c83 0 142 87 142 168c0 53 -25 102 -126 102c-138 0 -254 -91 -254 -243c0 -51 13 -59 14 -68c-66 0 -107 25 -107 92c0 139 177 265 360 265c144 0 218 -78 218 -161c0 -58 -36 -119 -100 -157c82 -15 114 -77 114 -149
c0 -136 -110 -311 -235 -311c-39 0 -80 17 -119 58l-6 -30h-144zM370 64c72 0 130 120 130 216c0 57 -21 106 -84 106c-7 0 -27 -1 -45 -3l-62 -290c20 -21 41 -29 61 -29z" />
    <glyph glyph-name="C" unicode="C" horiz-adv-x="507" 
d="M526 180l23 -10c-54 -120 -175 -186 -298 -186c-131 0 -206 74 -206 245c0 181 84 521 353 521c89 0 163 -37 163 -136c0 -50 -19 -90 -70 -90c-16 0 -38 4 -57 26c24 12 46 55 46 91c0 33 -18 62 -57 62c-116 0 -212 -263 -212 -464c0 -96 22 -164 119 -164
c76 0 150 42 196 105z" />
    <glyph glyph-name="Cacute" unicode="&#x106;" horiz-adv-x="507" 
d="M526 180l23 -10c-54 -120 -175 -186 -298 -186c-131 0 -206 74 -206 245c0 181 84 521 353 521c89 0 163 -37 163 -136c0 -50 -19 -90 -70 -90c-16 0 -38 4 -57 26c24 12 46 55 46 91c0 33 -18 62 -57 62c-116 0 -212 -263 -212 -464c0 -96 22 -164 119 -164
c76 0 150 42 196 105zM363 811l91 189h105l-121 -189h-75z" />
    <glyph glyph-name="Ccaron" unicode="&#x10c;" horiz-adv-x="507" 
d="M526 180l23 -10c-54 -120 -175 -186 -298 -186c-131 0 -206 74 -206 245c0 181 84 521 353 521c89 0 163 -37 163 -136c0 -50 -19 -90 -70 -90c-16 0 -38 4 -57 26c24 12 46 55 46 91c0 33 -18 62 -57 62c-116 0 -212 -263 -212 -464c0 -96 22 -164 119 -164
c76 0 150 42 196 105zM318 1000h32l60 -80l157 80h44l-212 -189h-21z" />
    <glyph glyph-name="Ccedilla" unicode="&#xc7;" horiz-adv-x="507" 
d="M388 -108c0 -72 -62 -110 -120 -110c-51 0 -78 13 -107 28c9 16 21 32 40 32c41 0 46 -27 74 -27c17 0 30 21 30 42c0 18 -11 36 -39 36c-26 0 -41 -7 -52 -12l37 103c-131 0 -206 74 -206 245c0 181 84 521 353 521c89 0 163 -37 163 -136c0 -50 -19 -90 -70 -90
c-16 0 -38 4 -57 26c24 12 46 55 46 91c0 33 -18 62 -57 62c-116 0 -212 -263 -212 -464c0 -96 22 -164 119 -164c76 0 150 42 196 105l23 -10c-48 -106 -148 -170 -255 -183l-21 -53c20 5 38 8 53 8c42 0 62 -19 62 -50z" />
    <glyph glyph-name="Ccircumflex" unicode="&#x108;" horiz-adv-x="507" 
d="M526 180l23 -10c-54 -120 -175 -186 -298 -186c-131 0 -206 74 -206 245c0 181 84 521 353 521c89 0 163 -37 163 -136c0 -50 -19 -90 -70 -90c-16 0 -38 4 -57 26c24 12 46 55 46 91c0 33 -18 62 -57 62c-116 0 -212 -263 -212 -464c0 -96 22 -164 119 -164
c76 0 150 42 196 105zM521 811h-32l-60 80l-157 -80h-44l212 189h21z" />
    <glyph glyph-name="D" unicode="D" horiz-adv-x="708" 
d="M281 636l148 20l-120 -561c19 -14 38 -20 57 -20c119 0 192 245 192 427c0 150 -50 202 -154 202c-137 0 -254 -91 -254 -243c0 -47 11 -59 14 -68c-66 0 -107 25 -107 93c0 137 171 264 368 264c198 0 271 -129 271 -294c0 -220 -129 -469 -277 -469
c-38 0 -79 16 -122 53l-8 -40h-144z" />
    <glyph glyph-name="E" unicode="E" horiz-adv-x="449" 
d="M467 180l23 -10c-52 -118 -174 -188 -293 -188c-128 0 -184 82 -184 176c0 105 70 231 185 259c-43 31 -61 75 -61 120c0 103 91 215 219 215c79 0 143 -43 143 -125c0 -60 -34 -104 -74 -104c-17 0 -33 8 -47 27c25 8 44 53 44 87c0 41 -28 56 -55 56
c-59 0 -102 -71 -102 -141c0 -58 29 -115 101 -134c-107 -24 -179 -147 -179 -239c0 -56 27 -101 95 -101c61 0 149 36 185 102z" />
    <glyph glyph-name="E.salt" horiz-adv-x="586" 
d="M376 419h154l-20 -74h-150l-53 -244h224l-20 -101h-369l144 668c-77 -3 -130 -47 -130 -207c0 -51 13 -59 14 -68c-69 0 -107 25 -107 97c0 133 94 260 341 260c40 0 103 -12 166 -12c31 0 62 3 90 12c-14 -42 -17 -103 -95 -120c-46 0 -94 9 -140 19z" />
    <glyph glyph-name="Eacute" unicode="&#xc9;" horiz-adv-x="449" 
d="M467 180l23 -10c-52 -118 -174 -188 -293 -188c-128 0 -184 82 -184 176c0 105 70 231 185 259c-43 31 -61 75 -61 120c0 103 91 215 219 215c79 0 143 -43 143 -125c0 -60 -34 -104 -74 -104c-17 0 -33 8 -47 27c25 8 44 53 44 87c0 41 -28 56 -55 56
c-59 0 -102 -71 -102 -141c0 -58 29 -115 101 -134c-107 -24 -179 -147 -179 -239c0 -56 27 -101 95 -101c61 0 149 36 185 102zM355 811l91 189h105l-121 -189h-75z" />
    <glyph glyph-name="Ecircumflex" unicode="&#xca;" horiz-adv-x="449" 
d="M467 180l23 -10c-52 -118 -174 -188 -293 -188c-128 0 -184 82 -184 176c0 105 70 231 185 259c-43 31 -61 75 -61 120c0 103 91 215 219 215c79 0 143 -43 143 -125c0 -60 -34 -104 -74 -104c-17 0 -33 8 -47 27c25 8 44 53 44 87c0 41 -28 56 -55 56
c-59 0 -102 -71 -102 -141c0 -58 29 -115 101 -134c-107 -24 -179 -147 -179 -239c0 -56 27 -101 95 -101c61 0 149 36 185 102zM501 811h-32l-60 80l-157 -80h-44l212 189h21z" />
    <glyph glyph-name="Edieresis" unicode="&#xcb;" horiz-adv-x="449" 
d="M467 180l23 -10c-52 -118 -174 -188 -293 -188c-128 0 -184 82 -184 176c0 105 70 231 185 259c-43 31 -61 75 -61 120c0 103 91 215 219 215c79 0 143 -43 143 -125c0 -60 -34 -104 -74 -104c-17 0 -33 8 -47 27c25 8 44 53 44 87c0 41 -28 56 -55 56
c-59 0 -102 -71 -102 -141c0 -58 29 -115 101 -134c-107 -24 -179 -147 -179 -239c0 -56 27 -101 95 -101c61 0 149 36 185 102zM244 884c0 33 27 61 61 61c33 0 61 -28 61 -61c0 -34 -28 -61 -61 -61c-34 0 -61 27 -61 61zM424 884c0 33 27 61 61 61c33 0 61 -28 61 -61
c0 -34 -28 -61 -61 -61c-34 0 -61 27 -61 61z" />
    <glyph glyph-name="Egrave" unicode="&#xc8;" horiz-adv-x="449" 
d="M467 180l23 -10c-52 -118 -174 -188 -293 -188c-128 0 -184 82 -184 176c0 105 70 231 185 259c-43 31 -61 75 -61 120c0 103 91 215 219 215c79 0 143 -43 143 -125c0 -60 -34 -104 -74 -104c-17 0 -33 8 -47 27c25 8 44 53 44 87c0 41 -28 56 -55 56
c-59 0 -102 -71 -102 -141c0 -58 29 -115 101 -134c-107 -24 -179 -147 -179 -239c0 -56 27 -101 95 -101c61 0 149 36 185 102zM317 811l-59 189h105l29 -189h-75z" />
    <glyph glyph-name="Eogonek" unicode="&#x118;" horiz-adv-x="464" 
d="M478 180l23 -10c-46 -144 -180 -129 -180 -254c0 -22 11 -50 39 -50c24 0 48 21 68 34c-1 -12 -2 -19 -2 -31c-25 -23 -57 -62 -109 -62c-55 0 -79 43 -79 78c0 36 25 79 72 116c-25 -5 -51 -7 -75 -7c-138 0 -207 99 -207 202c0 96 60 196 181 221
c-68 37 -99 95 -99 152c0 91 80 181 222 181c93 0 184 -37 184 -134c0 -53 -19 -92 -70 -92c-16 0 -38 4 -57 26c25 7 44 57 44 82c0 16 -2 74 -66 74c-73 0 -122 -56 -122 -123c0 -58 38 -123 132 -165c-127 -52 -174 -132 -174 -201c0 -73 53 -133 117 -133
c77 0 121 32 158 96z" />
    <glyph glyph-name="Eth" unicode="&#xd0;" horiz-adv-x="707" 
d="M281 636l148 20l-51 -237h79l-20 -74h-75l-53 -250c19 -14 38 -20 57 -20c119 0 192 241 192 433c0 125 -23 196 -138 196c-162 0 -270 -91 -270 -243c0 -51 13 -59 14 -68c-69 0 -107 25 -107 97c0 133 184 260 351 260c231 0 288 -129 288 -270
c0 -258 -129 -493 -277 -493c-38 0 -79 16 -122 53l-8 -40h-144l74 345h-39l20 74h35z" />
    <glyph glyph-name="Euro" unicode="&#x20ac;" horiz-adv-x="619" 
d="M264 334h196l-14 -50h-185v-13c0 -131 24 -187 132 -187c77 0 114 9 154 40l2 -29c-60 -79 -132 -101 -226 -101c-102 0 -219 50 -219 255v35h-85l14 50h74c2 21 5 43 8 65h-71l14 50h67c37 160 128 301 316 301c93 0 174 -37 174 -134c0 -53 -19 -92 -70 -92
c-16 0 -38 4 -57 26c25 7 44 57 44 82c0 16 -5 71 -69 71c-85 0 -149 -121 -180 -254h202l-14 -50h-199c-3 -22 -6 -44 -8 -65z" />
    <glyph glyph-name="F" unicode="F" horiz-adv-x="559" 
d="M383 450h146l-16 -74h-146l-81 -376h-144l144 668c-73 -3 -130 -47 -130 -198c0 -54 9 -66 14 -77c-71 0 -107 25 -107 101c0 129 104 256 327 256c69 0 112 -12 179 -12c33 0 63 3 91 12c-23 -106 -65 -120 -111 -120c-37 0 -80 9 -124 18z" />
    <glyph glyph-name="G" unicode="G" horiz-adv-x="591" 
d="M459 419l118 -1l-82 -376c-33 -153 -100 -249 -240 -249c-119 0 -155 69 -155 137c0 69 36 138 134 138c27 0 86 -5 86 -67c0 -11 -2 -25 -6 -40c-15 21 -41 26 -58 26c-49 0 -72 -39 -72 -77c0 -34 19 -67 68 -67c38 0 72 20 95 123l50 221c-41 -53 -93 -78 -152 -78
c-114 0 -195 92 -195 248c0 203 138 393 359 393c94 0 188 -34 188 -138c0 -47 -19 -88 -70 -88c-16 0 -50 4 -69 26c25 7 44 56 44 85c0 13 -4 62 -70 62c-126 0 -228 -177 -228 -338c0 -104 43 -163 95 -163c55 0 122 67 160 223z" />
    <glyph glyph-name="Gbreve" unicode="&#x11e;" horiz-adv-x="591" 
d="M459 419l118 -1l-82 -376c-33 -153 -100 -249 -240 -249c-119 0 -155 69 -155 137c0 69 36 138 134 138c27 0 86 -5 86 -67c0 -11 -2 -25 -6 -40c-15 21 -41 26 -58 26c-49 0 -72 -39 -72 -77c0 -34 19 -67 68 -67c38 0 72 20 95 123l50 221c-41 -53 -93 -78 -152 -78
c-114 0 -195 92 -195 248c0 203 138 393 359 393c94 0 188 -34 188 -138c0 -47 -19 -88 -70 -88c-16 0 -50 4 -69 26c25 7 44 56 44 85c0 13 -4 62 -70 62c-126 0 -228 -177 -228 -338c0 -104 43 -163 95 -163c55 0 122 67 160 223zM632 953h76c-1 -95 -71 -138 -210 -138
c-93 0 -155 31 -155 115c0 7 1 15 2 23h79c-1 -6 -2 -12 -2 -18c0 -56 39 -78 96 -78c59 0 107 22 114 96z" />
    <glyph glyph-name="H" unicode="H" horiz-adv-x="695" 
d="M447 748l-64 -298h147l64 298h144l-159 -748h-144l80 376h-147l-80 -376h-144l145 680c-88 -36 -140 -113 -140 -218c0 -49 11 -60 14 -69c-66 0 -107 25 -107 92c0 141 184 265 350 265c15 0 28 -1 41 -2z" />
    <glyph glyph-name="I" unicode="I" horiz-adv-x="404" 
d="M447 748l-159 -748h-144l145 679c-87 -36 -140 -111 -140 -217c0 -48 11 -60 14 -69c-66 0 -107 25 -107 92c0 141 184 265 350 265c15 0 28 -1 41 -2z" />
    <glyph glyph-name="Iacute" unicode="&#xcd;" horiz-adv-x="404" 
d="M447 748l-159 -748h-144l145 679c-87 -36 -140 -111 -140 -217c0 -48 11 -60 14 -69c-66 0 -107 25 -107 92c0 141 184 265 350 265c15 0 28 -1 41 -2zM319 811l91 189h105l-121 -189h-75z" />
    <glyph glyph-name="Icircumflex" unicode="&#xce;" horiz-adv-x="404" 
d="M447 748l-159 -748h-144l145 679c-87 -36 -140 -111 -140 -217c0 -48 11 -60 14 -69c-66 0 -107 25 -107 92c0 141 184 265 350 265c15 0 28 -1 41 -2zM494 811h-32l-60 80l-157 -80h-44l212 189h21z" />
    <glyph glyph-name="Idieresis" unicode="&#xcf;" horiz-adv-x="404" 
d="M447 748l-159 -748h-144l145 679c-87 -36 -140 -111 -140 -217c0 -48 11 -60 14 -69c-66 0 -107 25 -107 92c0 141 184 265 350 265c15 0 28 -1 41 -2zM397 884c0 33 27 61 61 61c33 0 61 -28 61 -61c0 -34 -28 -61 -61 -61c-34 0 -61 27 -61 61zM217 884
c0 33 27 61 61 61c33 0 61 -28 61 -61c0 -34 -28 -61 -61 -61c-34 0 -61 27 -61 61z" />
    <glyph glyph-name="Igrave" unicode="&#xcc;" horiz-adv-x="404" 
d="M447 748l-159 -748h-144l145 679c-87 -36 -140 -111 -140 -217c0 -48 11 -60 14 -69c-66 0 -107 25 -107 92c0 141 184 265 350 265c15 0 28 -1 41 -2zM280 811l-59 189h105l29 -189h-75z" />
    <glyph glyph-name="J" unicode="J" horiz-adv-x="445" 
d="M448 750h40l-150 -710c-31 -147 -101 -247 -250 -247c-114 0 -161 58 -161 139c0 69 35 136 134 136c27 0 86 -5 86 -67c0 -11 -2 -25 -6 -40c-13 21 -41 26 -59 26c-48 0 -71 -37 -71 -75c0 -44 30 -69 73 -69c38 0 67 20 90 123l157 714c-87 -36 -141 -112 -141 -219
c0 -48 11 -59 14 -68c-66 0 -107 25 -107 92c0 141 184 265 351 265z" />
    <glyph glyph-name="K" unicode="K" horiz-adv-x="647" 
d="M447 748l-68 -319l242 316h93l-282 -320c13 0 24 1 33 1c103 0 130 -44 130 -106c0 -83 -49 -192 -49 -252c0 -33 15 -59 39 -68c-42 -12 -75 -17 -99 -17c-65 0 -78 34 -78 67c0 66 53 187 53 263c0 40 -15 68 -59 68c-10 0 -22 -2 -34 -4l-80 -377h-144l145 680
c-88 -36 -140 -113 -140 -218c0 -48 11 -60 14 -69c-66 0 -107 25 -107 92c0 141 184 265 350 265c15 0 28 -1 41 -2z" />
    <glyph glyph-name="L" unicode="L" horiz-adv-x="455" 
d="M445 738l-154 -718c104 -23 207 -129 337 -129c25 0 54 4 83 16c-11 -96 -45 -157 -111 -157c-128 0 -265 227 -439 227c-8 0 -15 0 -23 -1l149 693c-87 -36 -140 -111 -140 -217c0 -47 10 -60 14 -69c-66 0 -107 25 -107 92c0 141 184 265 350 265c15 0 28 -1 41 -2z
" />
    <glyph glyph-name="Lslash" unicode="&#x141;" horiz-adv-x="492" 
d="M711 -93c-10 -96 -50 -157 -104 -157c-143 0 -269 227 -446 227c-8 0 -15 0 -23 -1l70 319l-65 -39l2 53l76 49l66 311c-87 -36 -140 -111 -140 -218c0 -51 13 -59 14 -68c-69 0 -107 25 -107 97c0 133 184 260 351 260c14 0 27 -1 40 -2l-55 -263l116 69l-4 -61
l-127 -78l-84 -385c104 -23 208 -129 336 -129c27 0 55 4 84 16z" />
    <glyph glyph-name="M" unicode="M" horiz-adv-x="790" 
d="M689 0h-144l64 449l-188 -449h-137l20 451l-167 -451h-80l254 687c-99 -33 -159 -111 -159 -225c0 -47 11 -60 14 -69c-64 0 -107 25 -107 90c0 129 166 267 316 267c29 0 54 -5 78 -14l-23 -527l220 527h144z" />
    <glyph glyph-name="N" unicode="N" horiz-adv-x="723" 
d="M673 748h97l-170 -748h-138l-116 496l-114 -496h-95l154 681c-86 -34 -137 -106 -137 -217c0 -50 10 -61 14 -71c-69 0 -107 25 -107 97c0 121 111 260 306 260c16 0 42 -1 70 -14l117 -531z" />
    <glyph glyph-name="N.salt" horiz-adv-x="703" 
d="M407 750c10 0 27 -1 41 -2l-19 -86c37 55 91 88 147 88c77 0 121 -61 121 -132c0 -108 -101 -420 -101 -488c0 -21 10 -39 40 -39c44 0 62 36 84 88h42c-56 -164 -133 -185 -186 -185c-87 0 -118 59 -118 107c0 86 98 404 98 494c0 50 -30 64 -49 64
c-42 0 -92 -66 -103 -117l-115 -542h-157l144 674c-79 -39 -126 -112 -126 -212c0 -53 13 -60 14 -69c-66 0 -107 25 -107 92c0 141 184 265 350 265z" />
    <glyph glyph-name="Nacute" unicode="&#x143;" horiz-adv-x="723" 
d="M673 748h97l-170 -748h-138l-116 496l-114 -496h-95l154 681c-86 -34 -137 -106 -137 -217c0 -50 10 -61 14 -71c-69 0 -107 25 -107 97c0 121 111 260 306 260c16 0 42 -1 70 -14l117 -531zM551 811l91 189h105l-121 -189h-75z" />
    <glyph glyph-name="Ntilde" unicode="&#xd1;" horiz-adv-x="723" 
d="M673 748h97l-170 -748h-138l-116 496l-114 -496h-95l154 681c-86 -34 -137 -106 -137 -217c0 -50 10 -61 14 -71c-69 0 -107 25 -107 97c0 121 111 260 306 260c16 0 42 -1 70 -14l117 -531zM758 920l6 -1c-11 -47 -85 -100 -161 -100c-66 0 -113 37 -168 37
c-26 0 -48 -9 -66 -26l-6 2c32 64 91 98 167 98c73 0 107 -33 165 -33c25 0 49 8 63 23z" />
    <glyph glyph-name="O" unicode="O" horiz-adv-x="697" 
d="M469 656c-91 -55 -175 -311 -175 -465c0 -68 16 -108 60 -108c99 0 207 240 207 456c0 117 -32 165 -133 165c-144 0 -283 -98 -283 -256c0 -37 5 -46 10 -55c-63 0 -101 23 -101 84c0 140 195 273 398 273c180 0 242 -105 242 -253c0 -196 -108 -503 -366 -503
c-109 0 -182 55 -182 201c0 162 90 469 272 469c15 0 33 -2 51 -8z" />
    <glyph glyph-name="OE" unicode="&#x152;" horiz-adv-x="870" 
d="M689 419h133l-20 -74h-127c-21 -86 -58 -173 -114 -239h243l-21 -106h-387c-21 -3 -44 -6 -68 -6c-109 0 -182 55 -182 201c0 162 90 469 272 469c15 0 33 -2 51 -8c-91 -55 -175 -311 -175 -465c0 -68 16 -108 60 -108c99 0 207 240 207 456c0 117 -32 165 -133 165
c-144 0 -283 -98 -283 -256c0 -37 5 -46 10 -55c-63 0 -101 23 -101 84c0 140 195 273 398 273c45 0 83 -6 114 -19c35 12 72 19 130 19c40 0 103 -12 166 -12c31 0 62 3 90 12c-14 -42 -17 -103 -95 -120c-78 0 -141 28 -207 36c31 -44 44 -102 44 -169
c0 -25 -2 -51 -5 -78z" />
    <glyph glyph-name="Oacute" unicode="&#xd3;" horiz-adv-x="697" 
d="M469 656c-91 -55 -175 -311 -175 -465c0 -68 16 -108 60 -108c99 0 207 240 207 456c0 117 -32 165 -133 165c-144 0 -283 -98 -283 -256c0 -37 5 -46 10 -55c-63 0 -101 23 -101 84c0 140 195 273 398 273c180 0 242 -105 242 -253c0 -196 -108 -503 -366 -503
c-109 0 -182 55 -182 201c0 162 90 469 272 469c15 0 33 -2 51 -8zM435 811l91 189h105l-121 -189h-75z" />
    <glyph glyph-name="Ocircumflex" unicode="&#xd4;" horiz-adv-x="697" 
d="M469 656c-91 -55 -175 -311 -175 -465c0 -68 16 -108 60 -108c99 0 207 240 207 456c0 117 -32 165 -133 165c-144 0 -283 -98 -283 -256c0 -37 5 -46 10 -55c-63 0 -101 23 -101 84c0 140 195 273 398 273c180 0 242 -105 242 -253c0 -196 -108 -503 -366 -503
c-109 0 -182 55 -182 201c0 162 90 469 272 469c15 0 33 -2 51 -8zM603 811h-32l-60 80l-157 -80h-44l212 189h21z" />
    <glyph glyph-name="Odieresis" unicode="&#xd6;" horiz-adv-x="697" 
d="M469 656c-91 -55 -175 -311 -175 -465c0 -68 16 -108 60 -108c99 0 207 240 207 456c0 117 -32 165 -133 165c-144 0 -283 -98 -283 -256c0 -37 5 -46 10 -55c-63 0 -101 23 -101 84c0 140 195 273 398 273c180 0 242 -105 242 -253c0 -196 -108 -503 -366 -503
c-109 0 -182 55 -182 201c0 162 90 469 272 469c15 0 33 -2 51 -8zM326 884c0 33 27 61 61 61c33 0 61 -28 61 -61c0 -34 -28 -61 -61 -61c-34 0 -61 27 -61 61zM506 884c0 33 27 61 61 61c33 0 61 -28 61 -61c0 -34 -28 -61 -61 -61c-34 0 -61 27 -61 61z" />
    <glyph glyph-name="Ograve" unicode="&#xd2;" horiz-adv-x="697" 
d="M469 656c-91 -55 -175 -311 -175 -465c0 -68 16 -108 60 -108c99 0 207 240 207 456c0 117 -32 165 -133 165c-144 0 -283 -98 -283 -256c0 -37 5 -46 10 -55c-63 0 -101 23 -101 84c0 140 195 273 398 273c180 0 242 -105 242 -253c0 -196 -108 -503 -366 -503
c-109 0 -182 55 -182 201c0 162 90 469 272 469c15 0 33 -2 51 -8zM389 811l-59 189h105l29 -189h-75z" />
    <glyph glyph-name="Ohungarumlaut" unicode="&#x150;" horiz-adv-x="697" 
d="M469 656c-91 -55 -175 -311 -175 -465c0 -68 16 -108 60 -108c99 0 207 240 207 456c0 117 -32 165 -133 165c-144 0 -283 -98 -283 -256c0 -37 5 -46 10 -55c-63 0 -101 23 -101 84c0 140 195 273 398 273c180 0 242 -105 242 -253c0 -196 -108 -503 -366 -503
c-109 0 -182 55 -182 201c0 162 90 469 272 469c15 0 33 -2 51 -8zM432 811l91 189h95l-121 -189h-65zM562 811l91 189h95l-121 -189h-65z" />
    <glyph glyph-name="Oslash" unicode="&#xd8;" horiz-adv-x="660" 
d="M348 -71h-52l14 65c-104 0 -175 52 -175 189c0 151 88 439 261 439c15 0 30 -2 45 -7l9 41c-11 2 -24 3 -38 3c-148 0 -278 -92 -278 -241c0 -36 10 -43 10 -50c-61 0 -98 21 -98 78c0 132 186 256 389 256c8 0 16 0 24 -1l11 49h52l-12 -56c112 -26 153 -115 153 -232
c0 -166 -88 -425 -300 -463zM278 179c0 -60 14 -103 48 -109l114 540c-85 -57 -162 -290 -162 -431zM535 495c0 66 -8 113 -38 139l-115 -546c80 58 153 249 153 407z" />
    <glyph glyph-name="Otilde" unicode="&#xd5;" horiz-adv-x="697" 
d="M469 656c-91 -55 -175 -311 -175 -465c0 -68 16 -108 60 -108c99 0 207 240 207 456c0 117 -32 165 -133 165c-144 0 -283 -98 -283 -256c0 -37 5 -46 10 -55c-63 0 -101 23 -101 84c0 140 195 273 398 273c180 0 242 -105 242 -253c0 -196 -108 -503 -366 -503
c-109 0 -182 55 -182 201c0 162 90 469 272 469c15 0 33 -2 51 -8zM707 920l6 -1c-11 -47 -85 -100 -161 -100c-66 0 -113 37 -168 37c-26 0 -48 -9 -66 -26l-6 2c32 64 91 98 167 98c73 0 107 -33 165 -33c25 0 49 8 63 23z" />
    <glyph glyph-name="P" unicode="P" horiz-adv-x="602" 
d="M281 636l148 20l-71 -334c101 8 175 137 175 250c0 70 -29 132 -141 132c-131 0 -242 -86 -242 -242c0 -50 9 -59 14 -69c-66 0 -107 25 -107 92c0 141 181 265 358 265c154 0 229 -94 229 -198c0 -125 -109 -267 -289 -267h-5l-61 -285h-144z" />
    <glyph glyph-name="Q" unicode="Q" horiz-adv-x="698" 
d="M469 656c-91 -55 -175 -311 -175 -465c0 -16 0 -30 2 -43c24 6 44 9 62 9c34 0 60 -11 81 -27c67 85 122 255 122 409c0 117 -32 165 -133 165c-144 0 -283 -98 -283 -256c0 -38 7 -46 10 -55c-63 0 -101 23 -101 84c0 140 195 273 398 273c180 0 242 -105 242 -253
c0 -144 -58 -346 -190 -445c29 -42 60 -81 122 -81c10 0 16 1 24 2c-26 -68 -58 -86 -105 -86c-86 0 -109 61 -126 121c-28 -9 -59 -14 -91 -14c-109 0 -182 55 -182 201c0 162 90 469 272 469c15 0 33 -2 51 -8zM354 75c12 0 24 3 36 10c-12 21 -29 35 -57 35
c-9 0 -18 -1 -29 -4c9 -26 25 -41 50 -41z" />
    <glyph glyph-name="R" unicode="R" horiz-adv-x="656" 
d="M281 636l148 20l-49 -231h8c83 0 142 96 142 177c0 53 -25 102 -126 102c-138 0 -254 -91 -254 -243c0 -47 11 -59 14 -68c-66 0 -107 25 -107 92c0 138 175 265 360 265c145 0 218 -78 218 -161c0 -60 -39 -130 -109 -170c54 -15 70 -52 70 -99c0 -83 -49 -192 -49 -252
c0 -33 15 -59 39 -68c-42 -12 -75 -17 -99 -17c-65 0 -78 34 -78 67c0 66 53 187 53 263c0 40 -15 68 -59 68c-10 0 -21 -2 -34 -4l-80 -377h-144z" />
    <glyph glyph-name="S" unicode="S" 
d="M516 630c0 -58 -32 -101 -82 -101c-18 0 -33 6 -46 21c27 16 45 53 45 86c0 35 -19 66 -74 66s-92 -30 -92 -90c0 -147 225 -167 225 -383c0 -168 -136 -247 -281 -247c-114 0 -212 47 -212 169c0 108 77 164 147 164c35 0 80 -14 88 -66c-55 0 -119 -28 -119 -97
c0 -50 35 -90 99 -90c67 0 115 46 115 130c0 171 -205 232 -205 379c0 104 102 179 231 179c47 0 161 -10 161 -120z" />
    <glyph glyph-name="Sacute" unicode="&#x15a;" 
d="M516 630c0 -58 -32 -101 -82 -101c-18 0 -33 6 -46 21c27 16 45 53 45 86c0 35 -19 66 -74 66s-92 -30 -92 -90c0 -147 225 -167 225 -383c0 -168 -136 -247 -281 -247c-114 0 -212 47 -212 169c0 108 77 164 147 164c35 0 80 -14 88 -66c-55 0 -119 -28 -119 -97
c0 -50 35 -90 99 -90c67 0 115 46 115 130c0 171 -205 232 -205 379c0 104 102 179 231 179c47 0 161 -10 161 -120zM330 811l91 189h105l-121 -189h-75z" />
    <glyph glyph-name="Scaron" unicode="&#x160;" 
d="M516 630c0 -58 -32 -101 -82 -101c-18 0 -33 6 -46 21c27 16 45 53 45 86c0 35 -19 66 -74 66s-92 -30 -92 -90c0 -147 225 -167 225 -383c0 -168 -136 -247 -281 -247c-114 0 -212 47 -212 169c0 108 77 164 147 164c35 0 80 -14 88 -66c-55 0 -119 -28 -119 -97
c0 -50 35 -90 99 -90c67 0 115 46 115 130c0 171 -205 232 -205 379c0 104 102 179 231 179c47 0 161 -10 161 -120zM270 1000h32l60 -80l157 80h44l-212 -189h-21z" />
    <glyph glyph-name="T" unicode="T" horiz-adv-x="674" 
d="M647 620c-46 0 -98 10 -152 22l-138 -642h-144l142 662h-11c-105 0 -189 -41 -189 -197c0 -55 10 -61 14 -73c-72 0 -107 25 -107 103c0 127 94 254 346 254c107 0 162 -23 245 -23c55 0 95 10 122 21c-2 -87 -44 -127 -128 -127z" />
    <glyph glyph-name="Thorn" unicode="&#xde;" horiz-adv-x="603" 
d="M278 730l148 20l-24 -110c152 -7 219 -98 219 -197c0 -127 -109 -268 -289 -268h-29l-37 -175h-144l120 562c-74 -39 -115 -112 -115 -211c0 -51 13 -59 14 -68c-69 0 -107 25 -107 97c0 98 100 193 219 236zM311 212h14c106 0 185 136 185 246c0 72 -34 133 -117 136z
" />
    <glyph glyph-name="U" unicode="U" horiz-adv-x="770" 
d="M675 748h141l-66 -312c-64 -304 -122 -443 -347 -443c-145 0 -193 58 -193 162c0 95 40 236 82 405l33 132c-109 -29 -177 -110 -177 -230c0 -49 10 -60 14 -69c-66 0 -107 25 -107 92c0 141 184 265 378 265c17 0 27 -1 48 -5c-93 -345 -135 -479 -135 -566
c0 -68 2 -95 79 -95s112 28 183 355z" />
    <glyph glyph-name="Uacute" unicode="&#xda;" horiz-adv-x="770" 
d="M675 748h141l-66 -312c-64 -304 -122 -443 -347 -443c-145 0 -193 58 -193 162c0 95 40 236 82 405l33 132c-109 -29 -177 -110 -177 -230c0 -49 10 -60 14 -69c-66 0 -107 25 -107 92c0 141 184 265 378 265c17 0 27 -1 48 -5c-93 -345 -135 -479 -135 -566
c0 -68 2 -95 79 -95s112 28 183 355zM506 811l91 189h105l-121 -189h-75z" />
    <glyph glyph-name="Ucircumflex" unicode="&#xdb;" horiz-adv-x="770" 
d="M675 748h141l-66 -312c-64 -304 -122 -443 -347 -443c-145 0 -193 58 -193 162c0 95 40 236 82 405l33 132c-109 -29 -177 -110 -177 -230c0 -49 10 -60 14 -69c-66 0 -107 25 -107 92c0 141 184 265 378 265c17 0 27 -1 48 -5c-93 -345 -135 -479 -135 -566
c0 -68 2 -95 79 -95s112 28 183 355zM711 811h-32l-60 80l-157 -80h-44l212 189h21z" />
    <glyph glyph-name="Udieresis" unicode="&#xdc;" horiz-adv-x="770" 
d="M675 748h141l-66 -312c-64 -304 -122 -443 -347 -443c-145 0 -193 58 -193 162c0 95 40 236 82 405l33 132c-109 -29 -177 -110 -177 -230c0 -49 10 -60 14 -69c-66 0 -107 25 -107 92c0 141 184 265 378 265c17 0 27 -1 48 -5c-93 -345 -135 -479 -135 -566
c0 -68 2 -95 79 -95s112 28 183 355zM608 884c0 33 27 61 61 61c33 0 61 -28 61 -61c0 -34 -28 -61 -61 -61c-34 0 -61 27 -61 61zM428 884c0 33 27 61 61 61c33 0 61 -28 61 -61c0 -34 -28 -61 -61 -61c-34 0 -61 27 -61 61z" />
    <glyph glyph-name="Ugrave" unicode="&#xd9;" horiz-adv-x="770" 
d="M675 748h141l-66 -312c-64 -304 -122 -443 -347 -443c-145 0 -193 58 -193 162c0 95 40 236 82 405l33 132c-109 -29 -177 -110 -177 -230c0 -49 10 -60 14 -69c-66 0 -107 25 -107 92c0 141 184 265 378 265c17 0 27 -1 48 -5c-93 -345 -135 -479 -135 -566
c0 -68 2 -95 79 -95s112 28 183 355zM524 811l-59 189h105l29 -189h-75z" />
    <glyph glyph-name="Uhungarumlaut" unicode="&#x170;" horiz-adv-x="770" 
d="M675 748h141l-66 -312c-64 -304 -122 -443 -347 -443c-145 0 -193 58 -193 162c0 95 40 236 82 405l33 132c-109 -29 -177 -110 -177 -230c0 -49 10 -60 14 -69c-66 0 -107 25 -107 92c0 141 184 265 378 265c17 0 27 -1 48 -5c-93 -345 -135 -479 -135 -566
c0 -68 2 -95 79 -95s112 28 183 355zM634 811l91 189h95l-121 -189h-65zM504 811l91 189h95l-121 -189h-65z" />
    <glyph glyph-name="V" unicode="V" horiz-adv-x="660" 
d="M446 748l9 -615l210 612h70l-278 -745h-144l-16 683c-93 -34 -149 -112 -149 -221c0 -47 11 -60 14 -69c-66 0 -107 25 -107 92c0 141 184 265 350 265c15 0 28 -1 41 -2z" />
    <glyph glyph-name="W" unicode="W" horiz-adv-x="1006" 
d="M446 748l9 -615l210 612h127l9 -612l210 612h70l-278 -745h-144l-12 509l-190 -509h-144l-16 683c-93 -34 -149 -112 -149 -221c0 -49 11 -60 14 -69c-66 0 -107 25 -107 92c0 141 184 265 350 265c15 0 28 -1 41 -2z" />
    <glyph glyph-name="X" unicode="X" horiz-adv-x="670" 
d="M628 0h-159l-70 276l-147 -276h-67l192 364l-80 319c-93 -34 -149 -112 -149 -221c0 -49 11 -60 14 -69c-66 0 -107 25 -107 92c0 141 184 265 350 265c15 0 28 -1 41 -2l66 -271l128 268h65l-173 -353z" />
    <glyph glyph-name="Y" unicode="Y" horiz-adv-x="661" 
d="M487 0h-160l66 308l-96 375c-93 -34 -149 -112 -149 -221c0 -49 11 -60 14 -69c-66 0 -107 25 -107 92c0 141 184 265 350 265c15 0 28 -1 41 -2l87 -358l148 355h66l-194 -437z" />
    <glyph glyph-name="Yacute" unicode="&#xdd;" horiz-adv-x="661" 
d="M487 0h-160l66 308l-96 375c-93 -34 -149 -112 -149 -221c0 -49 11 -60 14 -69c-66 0 -107 25 -107 92c0 141 184 265 350 265c15 0 28 -1 41 -2l87 -358l148 355h66l-194 -437zM502 811l91 189h105l-121 -189h-75z" />
    <glyph glyph-name="Ydieresis" unicode="&#x178;" horiz-adv-x="661" 
d="M487 0h-160l66 308l-96 375c-93 -34 -149 -112 -149 -221c0 -49 11 -60 14 -69c-66 0 -107 25 -107 92c0 141 184 265 350 265c15 0 28 -1 41 -2l87 -358l148 355h66l-194 -437zM608 884c0 33 27 61 61 61c33 0 61 -28 61 -61c0 -34 -28 -61 -61 -61c-34 0 -61 27 -61 61
zM428 884c0 33 27 61 61 61c33 0 61 -28 61 -61c0 -34 -28 -61 -61 -61c-34 0 -61 27 -61 61z" />
    <glyph glyph-name="Z" unicode="Z" horiz-adv-x="535" 
d="M404 85c-7 0 -18 7 -18 31c0 42 33 58 60 58c37 0 51 -30 51 -58c0 -51 -48 -116 -128 -116h-361l350 696c-21 0 -56 2 -90 2c-47 0 -92 -4 -92 -22c7 0 17 -8 17 -32c0 -44 -35 -57 -59 -57c-38 0 -51 31 -51 59c0 50 43 104 123 104h343l-345 -685c26 0 63 -2 96 -2
c47 0 91 4 104 22z" />
    <glyph glyph-name="Zacute" unicode="&#x179;" horiz-adv-x="535" 
d="M404 85c-7 0 -18 7 -18 31c0 42 33 58 60 58c37 0 51 -30 51 -58c0 -51 -48 -116 -128 -116h-361l350 696c-21 0 -56 2 -90 2c-47 0 -92 -4 -92 -22c7 0 17 -8 17 -32c0 -44 -35 -57 -59 -57c-38 0 -51 31 -51 59c0 50 43 104 123 104h343l-345 -685c26 0 63 -2 96 -2
c47 0 91 4 104 22zM360 811l91 189h105l-121 -189h-75z" />
    <glyph glyph-name="Zcaron" unicode="&#x17d;" horiz-adv-x="535" 
d="M404 85c-7 0 -18 7 -18 31c0 42 33 58 60 58c37 0 51 -30 51 -58c0 -51 -48 -116 -128 -116h-361l350 696c-21 0 -56 2 -90 2c-47 0 -92 -4 -92 -22c7 0 17 -8 17 -32c0 -44 -35 -57 -59 -57c-38 0 -51 31 -51 59c0 50 43 104 123 104h343l-345 -685c26 0 63 -2 96 -2
c47 0 91 4 104 22zM301 1000h32l60 -80l157 80h44l-212 -189h-21z" />
    <glyph glyph-name="Zdotaccent" unicode="&#x17b;" horiz-adv-x="535" 
d="M418 884c0 -34 -28 -61 -61 -61c-34 0 -61 27 -61 61c0 33 27 61 61 61c33 0 61 -28 61 -61zM404 85c-7 0 -18 7 -18 31c0 42 33 58 60 58c37 0 51 -30 51 -58c0 -51 -48 -116 -128 -116h-361l350 696c-21 0 -56 2 -90 2c-47 0 -92 -4 -92 -22c7 0 17 -8 17 -32
c0 -44 -35 -57 -59 -57c-38 0 -51 31 -51 59c0 50 43 104 123 104h343l-345 -685c26 0 63 -2 96 -2c47 0 91 4 104 22z" />
    <glyph glyph-name="a" unicode="a" 
d="M353 500h145l-73 -340c-3 -13 -4 -23 -4 -32c0 -28 13 -37 41 -37c39 0 66 38 81 88h42c-57 -163 -147 -179 -201 -179s-90 30 -98 87c-30 -46 -78 -93 -149 -93c-68 0 -133 42 -133 161c0 135 83 350 257 350c33 0 75 -6 82 -52zM292 443c-85 0 -140 -180 -140 -274
c0 -77 32 -78 50 -78c29 0 71 30 83 88l48 226c-1 12 -10 38 -41 38z" />
    <glyph glyph-name="a.end" horiz-adv-x="536" 
d="M353 500h144l-72 -340c-3 -13 -4 -23 -4 -32c0 -28 13 -37 41 -37c9 0 15 1 22 4c-27 -70 -46 -101 -100 -101s-90 35 -98 93c-30 -46 -78 -93 -149 -93c-68 0 -133 42 -133 161c0 135 83 350 257 350c33 0 75 -6 82 -52zM292 443c-85 0 -140 -180 -140 -274
c0 -77 32 -78 50 -78c29 0 71 30 83 88l48 226c-1 12 -10 38 -41 38z" />
    <glyph glyph-name="a_x.end" horiz-adv-x="914" 
d="M353 500h144l-72 -340c-2 -9 -3 -17 -3 -25c0 -25 10 -44 43 -44c52 0 118 43 160 94l-58 315h141l39 -216c59 64 95 123 95 159c0 4 0 8 -1 12c-6 -1 -12 -2 -17 -2c-35 0 -47 25 -47 56c0 30 25 47 56 47c45 0 68 -40 68 -89c0 -65 -45 -134 -143 -238l9 -50
c11 -59 19 -88 63 -88c18 0 26 3 32 6c-5 -71 -56 -103 -110 -103c-63 0 -93 39 -116 134c-75 -95 -154 -134 -235 -134c-55 0 -104 35 -114 94c-31 -47 -78 -94 -150 -94c-68 0 -133 42 -133 161c0 135 83 350 257 350c33 0 75 -6 82 -52zM292 443
c-85 0 -140 -180 -140 -274c0 -77 32 -78 50 -78c29 0 71 30 83 88l48 226c-1 12 -10 38 -41 38z" />
    <glyph glyph-name="aacute" unicode="&#xe1;" 
d="M353 500h145l-73 -340c-3 -13 -4 -23 -4 -32c0 -28 13 -37 41 -37c39 0 66 38 81 88h42c-57 -163 -147 -179 -201 -179s-90 30 -98 87c-30 -46 -78 -93 -149 -93c-68 0 -133 42 -133 161c0 135 83 350 257 350c33 0 75 -6 82 -52zM292 443c-85 0 -140 -180 -140 -274
c0 -77 32 -78 50 -78c29 0 71 30 83 88l48 226c-1 12 -10 38 -41 38zM262 561l91 189h105l-121 -189h-75z" />
    <glyph glyph-name="aacute.end" horiz-adv-x="537" 
d="M353 500h144l-72 -340c-3 -13 -4 -23 -4 -32c0 -28 13 -37 41 -37c9 0 15 1 22 4c-27 -70 -46 -101 -100 -101s-90 35 -98 93c-30 -46 -78 -93 -149 -93c-68 0 -133 42 -133 161c0 135 83 350 257 350c33 0 75 -6 82 -52zM292 443c-85 0 -140 -180 -140 -274
c0 -77 32 -78 50 -78c29 0 71 30 83 88l48 226c-1 12 -10 38 -41 38zM271 561l91 189h105l-121 -189h-75z" />
    <glyph glyph-name="acircumflex" unicode="&#xe2;" 
d="M353 500h145l-73 -340c-3 -13 -4 -23 -4 -32c0 -28 13 -37 41 -37c39 0 66 38 81 88h42c-57 -163 -147 -179 -201 -179s-90 30 -98 87c-30 -46 -78 -93 -149 -93c-68 0 -133 42 -133 161c0 135 83 350 257 350c33 0 75 -6 82 -52zM292 443c-85 0 -140 -180 -140 -274
c0 -77 32 -78 50 -78c29 0 71 30 83 88l48 226c-1 12 -10 38 -41 38zM456 561h-32l-60 80l-157 -80h-44l212 189h21z" />
    <glyph glyph-name="acute" unicode="&#xb4;" horiz-adv-x="316" 
d="M120 561l91 189h105l-121 -189h-75z" />
    <glyph glyph-name="adieresis" unicode="&#xe4;" 
d="M353 500h145l-73 -340c-3 -13 -4 -23 -4 -32c0 -28 13 -37 41 -37c39 0 66 38 81 88h42c-57 -163 -147 -179 -201 -179s-90 30 -98 87c-30 -46 -78 -93 -149 -93c-68 0 -133 42 -133 161c0 135 83 350 257 350c33 0 75 -6 82 -52zM292 443c-85 0 -140 -180 -140 -274
c0 -77 32 -78 50 -78c29 0 71 30 83 88l48 226c-1 12 -10 38 -41 38zM197 634c0 33 27 61 61 61c33 0 61 -28 61 -61c0 -34 -28 -61 -61 -61c-34 0 -61 27 -61 61zM377 634c0 33 27 61 61 61c33 0 61 -28 61 -61c0 -34 -28 -61 -61 -61c-34 0 -61 27 -61 61z" />
    <glyph glyph-name="ae" unicode="&#xe6;" horiz-adv-x="649" 
d="M136 -6c-58 0 -127 24 -127 130c0 124 96 166 222 166c24 0 40 -2 52 -4c13 28 21 60 21 88c0 40 -19 71 -61 71c-60 0 -92 -21 -121 -47l-28 29c74 76 126 78 182 78c50 0 96 -12 130 -40c36 27 81 44 135 44c89 0 109 -46 109 -99c0 -111 -110 -201 -230 -208
c-1 -11 -2 -22 -2 -32c0 -75 24 -92 60 -92c96 0 134 40 189 101h34c-56 -90 -140 -183 -276 -183c-73 0 -128 27 -147 94c-27 -51 -62 -96 -142 -96zM573 412c0 28 -6 44 -24 44c-52 0 -101 -110 -122 -206c78 5 146 83 146 162zM259 229c-65 0 -109 -35 -109 -88
c0 -46 34 -50 46 -50c33 0 60 28 80 137c-6 1 -11 1 -17 1z" />
    <glyph glyph-name="agrave" unicode="&#xe0;" 
d="M353 500h145l-73 -340c-3 -13 -4 -23 -4 -32c0 -28 13 -37 41 -37c39 0 66 38 81 88h42c-57 -163 -147 -179 -201 -179s-90 30 -98 87c-30 -46 -78 -93 -149 -93c-68 0 -133 42 -133 161c0 135 83 350 257 350c33 0 75 -6 82 -52zM292 443c-85 0 -140 -180 -140 -274
c0 -77 32 -78 50 -78c29 0 71 30 83 88l48 226c-1 12 -10 38 -41 38zM292 561l-59 189h105l29 -189h-75z" />
    <glyph glyph-name="ampersand" unicode="&#x26;" horiz-adv-x="673" 
d="M678 413h6c0 -56 -71 -127 -155 -139c-38 -163 -167 -292 -336 -292c-128 0 -184 82 -184 176c0 105 70 231 185 259c-43 31 -61 75 -61 120c0 103 91 215 219 215c79 0 143 -43 143 -125c0 -60 -34 -104 -74 -104c-17 0 -33 8 -47 27c25 8 44 53 44 87
c0 41 -28 56 -55 56c-59 0 -102 -71 -102 -141c0 -58 29 -115 101 -134c-107 -24 -179 -147 -179 -239c0 -56 27 -101 95 -101c111 0 175 63 215 194c-27 1 -53 6 -78 6c-43 0 -75 -15 -94 -45l-7 1c20 82 90 141 193 141c28 0 51 -5 76 -5c37 0 78 13 95 43z" />
    <glyph glyph-name="aogonek" unicode="&#x105;" horiz-adv-x="525" 
d="M353 500h144l-72 -340c-3 -13 -4 -23 -4 -32c0 -28 13 -43 41 -43c39 0 66 44 81 94h42c-39 -110 -93 -153 -140 -174c-22 -10 -56 -49 -56 -89c0 -22 11 -50 39 -50c24 0 48 21 68 34c-1 -12 -2 -19 -2 -31c-25 -23 -57 -62 -109 -62c-55 0 -79 43 -79 78
c0 34 22 73 64 110c-48 5 -79 36 -84 91c-31 -46 -78 -92 -149 -92c-68 0 -133 42 -133 161c0 135 83 350 257 350c57 0 81 -22 81 -51v-6zM292 443c-85 0 -140 -180 -140 -274c0 -77 32 -78 50 -78c29 0 71 30 83 88l48 226c0 12 -9 38 -41 38z" />
    <glyph glyph-name="aring" unicode="&#xe5;" 
d="M353 500h145l-73 -340c-3 -13 -4 -23 -4 -32c0 -28 13 -37 41 -37c39 0 66 38 81 88h42c-57 -163 -147 -179 -201 -179s-90 30 -98 87c-30 -46 -78 -93 -149 -93c-68 0 -133 42 -133 161c0 135 83 350 257 350c33 0 75 -6 82 -52zM292 443c-85 0 -140 -180 -140 -274
c0 -77 32 -78 50 -78c29 0 71 30 83 88l48 226c-1 12 -10 38 -41 38zM336 713c49 0 72 -34 72 -77c0 -44 -25 -84 -87 -84c-43 0 -70 32 -70 70c0 36 25 91 85 91zM371 633c0 19 -1 47 -33 47c-35 0 -47 -31 -47 -56c0 -22 10 -37 34 -37c31 0 46 18 46 46z" />
    <glyph glyph-name="asciicircum" unicode="^" horiz-adv-x="421" 
d="M343 561h-32l-60 80l-157 -80h-44l212 189h21z" />
    <glyph glyph-name="asciitilde" unicode="~" horiz-adv-x="441" 
d="M481 670l6 -1c-11 -47 -85 -100 -161 -100c-66 0 -113 37 -168 37c-26 0 -48 -9 -66 -26l-6 2c32 64 91 98 167 98c73 0 107 -33 165 -33c25 0 49 8 63 23z" />
    <glyph glyph-name="asterisk" unicode="*" horiz-adv-x="412" 
d="M225 752h64v-135l107 62l30 -52l-109 -63l109 -63l-30 -52l-107 62v-135h-64v135l-107 -62l-30 52l109 63l-109 63l30 52l107 -62v135z" />
    <glyph glyph-name="at" unicode="@" horiz-adv-x="549" 
d="M220 -38c-94 0 -204 48 -204 202c0 218 155 393 341 393c61 0 158 -19 158 -157c0 -130 -85 -264 -170 -264c-24 0 -38 11 -45 26c-16 -24 -34 -42 -63 -42c-36 0 -59 28 -59 88c0 88 49 224 131 224c19 0 32 -8 39 -17l4 15l55 -6l-45 -192c-2 -8 -4 -16 -4 -23
c0 -14 6 -19 12 -19c28 0 87 114 87 201c0 56 -24 113 -103 113c-141 0 -238 -182 -238 -320c0 -80 32 -141 133 -141c70 0 119 29 152 71c18 -8 23 -27 23 -43c0 -63 -80 -109 -204 -109zM297 216l43 167c-5 6 -12 10 -21 10c-47 0 -83 -118 -83 -169c0 -19 5 -45 21 -45
c9 0 23 8 37 19c0 6 1 12 3 18z" />
    <glyph glyph-name="atilde" unicode="&#xe3;" 
d="M353 500h145l-73 -340c-3 -13 -4 -23 -4 -32c0 -28 13 -37 41 -37c39 0 66 38 81 88h42c-57 -163 -147 -179 -201 -179s-90 30 -98 87c-30 -46 -78 -93 -149 -93c-68 0 -133 42 -133 161c0 135 83 350 257 350c33 0 75 -6 82 -52zM292 443c-85 0 -140 -180 -140 -274
c0 -77 32 -78 50 -78c29 0 71 30 83 88l48 226c-1 12 -10 38 -41 38zM514 670l6 -1c-11 -47 -85 -100 -161 -100c-66 0 -113 37 -168 37c-26 0 -48 -9 -66 -26l-6 2c32 64 91 98 167 98c73 0 107 -33 165 -33c25 0 49 8 63 23z" />
    <glyph glyph-name="b" unicode="b" horiz-adv-x="444" 
d="M17 179l107 501l148 20l-48 -225c41 25 62 30 82 30c70 0 118 -46 118 -173c0 -117 -62 -338 -274 -338c-92 0 -140 48 -140 128c0 17 2 36 7 57zM323 336c0 49 -17 96 -53 96c-14 0 -48 -5 -59 -18l-55 -254c-2 -8 -3 -16 -3 -23c0 -29 17 -46 53 -46
c65 0 117 140 117 245z" />
    <glyph glyph-name="b_s.end" horiz-adv-x="809" 
d="M17 179l107 501l148 20l-48 -225c41 25 62 30 82 30c66 0 112 -41 117 -152c49 8 101 65 155 158l148 20c12 -259 22 -298 22 -364c0 -130 -94 -173 -176 -173c-119 0 -139 72 -139 133c0 59 37 95 72 95c34 0 52 -13 52 -42c0 -24 -22 -45 -48 -45c-10 0 -22 3 -27 13
c0 -47 20 -75 58 -75c44 0 63 23 63 93c0 56 -11 87 -22 272c-47 -70 -100 -115 -158 -135c-9 -121 -77 -309 -273 -309c-92 0 -140 48 -140 128c0 17 2 36 7 57zM305 338c0 18 5 31 13 41c-7 30 -23 53 -48 53c-14 0 -48 -5 -59 -18l-55 -254c-2 -8 -3 -16 -3 -23
c0 -29 17 -46 53 -46c57 0 105 109 115 207c-11 7 -16 20 -16 40z" />
    <glyph glyph-name="backslash" unicode="\" 
d="M318 -250l-212 1000h72l212 -1000h-72z" />
    <glyph glyph-name="bar" unicode="|" horiz-adv-x="314" 
d="M188 751v-1001h-93v1001h93z" />
    <glyph glyph-name="braceleft" unicode="{" horiz-adv-x="288" 
d="M337 750l-9 -50c-41 0 -69 -2 -91 -26c-36 -40 -46 -84 -46 -138c0 -57 6 -114 6 -171c0 -58 -16 -91 -40 -111c7 -8 12 -20 12 -36c0 -89 -90 -242 -90 -342c0 -50 3 -80 85 -80l-9 -45h-29c-88 0 -133 43 -133 109c0 111 91 236 91 337c0 18 -9 31 -41 31
c-9 0 -19 -1 -32 -3l12 57c12 -2 22 -3 31 -3c63 0 67 64 67 111c0 55 -7 108 -7 159c0 76 47 201 180 201h43z" />
    <glyph glyph-name="braceright" unicode="}" horiz-adv-x="287" 
d="M-80 -249l9 50c41 0 69 2 91 26c36 40 46 84 46 138c0 57 -6 114 -6 171c0 58 16 91 40 111c-7 8 -12 20 -12 36c0 89 90 242 90 342c0 50 -3 80 -85 80l9 45h29c88 0 133 -43 133 -109c0 -111 -91 -236 -91 -337c0 -18 9 -31 41 -31c9 0 19 1 32 3l-12 -57
c-12 2 -22 3 -31 3c-63 0 -67 -64 -67 -111c0 -55 7 -108 7 -159c0 -76 -47 -201 -180 -201h-43z" />
    <glyph glyph-name="bracketleft" unicode="[" horiz-adv-x="298" 
d="M168 -188l-13 -62h-203l212 1000h203l-13 -62h-111l-186 -876h111z" />
    <glyph glyph-name="bracketright" unicode="]" horiz-adv-x="297" 
d="M100 688l13 62h203l-212 -1000h-203l13 62h111l186 876h-111z" />
    <glyph glyph-name="breve" unicode="&#x2d8;" horiz-adv-x="431" 
d="M355 703h76c-1 -95 -71 -138 -210 -138c-93 0 -155 31 -155 115c0 7 1 15 2 23h79c-1 -6 -2 -12 -2 -18c0 -56 39 -78 96 -78c59 0 107 22 114 96z" />
    <glyph glyph-name="brokenbar" unicode="&#xa6;" horiz-adv-x="318" 
d="M190 222v-472h-93v472h93zM190 301h-93v450h93v-450z" />
    <glyph glyph-name="bullet" unicode="&#x2022;" horiz-adv-x="281" 
d="M33 267c0 53 43 97 96 97s97 -44 97 -97s-44 -96 -97 -96s-96 43 -96 96z" />
    <glyph glyph-name="c" unicode="c" horiz-adv-x="384" 
d="M291 345c10 22 17 53 17 70c0 23 -9 37 -28 37c-69 0 -132 -180 -132 -289c0 -68 28 -85 76 -85c79 0 127 44 177 101h34c-57 -92 -142 -185 -275 -185c-94 0 -156 46 -156 159c0 114 66 352 269 352c89 0 111 -45 111 -88c0 -49 -24 -84 -53 -84c-11 0 -28 4 -40 12z
" />
    <glyph glyph-name="c.end" horiz-adv-x="382" 
d="M289 356c8 21 12 42 12 59c0 24 -8 41 -27 41c-64 0 -129 -187 -129 -286c0 -62 26 -83 60 -83c39 0 89 29 120 55c-21 -114 -93 -148 -173 -148c-93 0 -155 46 -155 159c0 116 66 356 269 356c89 0 111 -46 111 -93c0 -51 -26 -72 -53 -72c-12 0 -24 4 -35 12z" />
    <glyph glyph-name="cacute" unicode="&#x107;" horiz-adv-x="384" 
d="M291 345c10 22 17 53 17 70c0 23 -9 37 -28 37c-69 0 -132 -180 -132 -289c0 -68 28 -85 76 -85c79 0 127 44 177 101h34c-57 -92 -142 -185 -275 -185c-94 0 -156 46 -156 159c0 114 66 352 269 352c89 0 111 -45 111 -88c0 -49 -24 -84 -53 -84c-11 0 -28 4 -40 12z
M261 561l91 189h105l-121 -189h-75z" />
    <glyph glyph-name="caron" unicode="&#x2c7;" horiz-adv-x="294" 
d="M100 750h32l60 -80l157 80h44l-212 -189h-21z" />
    <glyph glyph-name="ccaron" unicode="&#x10d;" horiz-adv-x="384" 
d="M291 345c10 22 17 53 17 70c0 23 -9 37 -28 37c-69 0 -132 -180 -132 -289c0 -68 28 -85 76 -85c79 0 127 44 177 101h34c-57 -92 -142 -185 -275 -185c-94 0 -156 46 -156 159c0 114 66 352 269 352c89 0 111 -45 111 -88c0 -49 -24 -84 -53 -84c-11 0 -28 4 -40 12z
M223 750h32l60 -80l157 80h44l-212 -189h-21z" />
    <glyph glyph-name="ccedilla" unicode="&#xe7;" horiz-adv-x="384" 
d="M291 345c10 22 17 53 17 70c0 23 -9 37 -28 37c-69 0 -132 -180 -132 -289c0 -68 28 -85 76 -85c79 0 127 44 177 101h34c-57 -92 -142 -185 -275 -185c-6 0 -11 0 -17 1l5 11l-35 23l-10 -28c-61 16 -99 64 -99 152c0 114 66 352 269 352c89 0 111 -45 111 -88
c0 -49 -24 -84 -53 -84c-11 0 -28 4 -40 12zM234 -108c0 -72 -62 -110 -120 -110c-51 0 -78 13 -107 28c9 16 21 32 40 32c41 0 46 -27 74 -27c17 0 30 21 30 42c0 18 -11 36 -39 36c-26 0 -41 -7 -52 -12l43 120c12 -3 26 -5 40 -6l-24 -61c20 5 38 8 53 8
c42 0 62 -19 62 -50z" />
    <glyph glyph-name="ccircumflex" unicode="&#x109;" horiz-adv-x="384" 
d="M291 345c10 22 17 53 17 70c0 23 -9 37 -28 37c-69 0 -132 -180 -132 -289c0 -68 28 -85 76 -85c79 0 127 44 177 101h34c-57 -92 -142 -185 -275 -185c-94 0 -156 46 -156 159c0 114 66 352 269 352c89 0 111 -45 111 -88c0 -49 -24 -84 -53 -84c-11 0 -28 4 -40 12z
M423 561h-32l-60 80l-157 -80h-44l212 189h21z" />
    <glyph glyph-name="cedilla" unicode="&#xb8;" horiz-adv-x="227" 
d="M227 -108c0 -72 -62 -110 -120 -110c-51 0 -78 13 -107 28c9 16 21 32 40 32c41 0 46 -27 74 -27c17 0 30 21 30 42c0 18 -11 36 -39 36c-26 0 -41 -7 -52 -12l53 148l35 -23l-29 -72c20 5 38 8 53 8c42 0 62 -19 62 -50z" />
    <glyph glyph-name="cent" unicode="&#xa2;" horiz-adv-x="391" 
d="M130 -27l31 173c-69 10 -127 68 -127 170c0 135 73 261 208 279l22 123h58l-27 -122c47 -3 90 -20 90 -68c0 -11 -1 -20 -5 -33h-57c3 11 5 20 5 28c0 24 -15 34 -37 34h-5l-76 -343c5 -1 9 -1 15 -1c54 0 93 34 132 68c-14 -84 -64 -132 -162 -136l-38 -172h-27z
M139 319c0 -33 11 -70 37 -90l55 305c-54 -42 -92 -135 -92 -215z" />
    <glyph glyph-name="circumflex" unicode="&#x2c6;" horiz-adv-x="293" 
d="M293 561h-32l-60 80l-157 -80h-44l212 189h21z" />
    <glyph glyph-name="circunflex" horiz-adv-x="293" 
d="M293 561h-32l-60 80l-157 -80h-44l212 189h21z" />
    <glyph glyph-name="colon" unicode=":" horiz-adv-x="275" 
d="M20 135c0 44 35 80 79 80s80 -36 80 -80s-36 -79 -80 -79s-79 35 -79 79zM70 375c0 44 35 80 79 80s80 -36 80 -80s-36 -79 -80 -79s-79 35 -79 79z" />
    <glyph glyph-name="comma" unicode="," horiz-adv-x="232" 
d="M-9 75c0 44 35 80 79 80s68 -32 68 -76c0 -60 -48 -148 -130 -205c-7 5 -9 11 -9 17c0 36 46 60 46 97c0 25 -54 35 -54 87z" />
    <glyph glyph-name="copyright" unicode="&#xa9;" horiz-adv-x="564" 
d="M143 336c0 90 76 148 149 148c52 0 103 -30 123 -95l-47 -18c-7 40 -43 60 -79 60c-45 0 -91 -30 -91 -90s42 -107 95 -107c31 0 60 17 75 45l44 -29c-28 -42 -74 -68 -123 -68c-81 0 -146 71 -146 154zM284 76c-132 0 -242 113 -242 255c0 143 110 256 242 256
s242 -112 242 -255s-110 -256 -242 -256zM88 331c0 -120 90 -213 198 -213c107 0 197 93 197 213s-90 213 -197 213c-108 0 -198 -93 -198 -213z" />
    <glyph glyph-name="currency" unicode="&#xa4;" horiz-adv-x="479" 
d="M59 492l38 36l56 -56c26 19 57 30 91 30c33 0 64 -11 89 -29l56 56l36 -36l-55 -55c19 -26 30 -58 30 -92s-11 -65 -30 -91l55 -55l-36 -36l-55 55c-25 -18 -56 -29 -90 -29s-66 11 -92 30l-56 -56l-36 36l56 56c-18 25 -29 56 -29 89c0 34 11 65 29 90zM244 446
c-55 0 -100 -45 -100 -100s45 -100 100 -100s100 45 100 100s-45 100 -100 100z" />
    <glyph glyph-name="d" unicode="d" 
d="M392 680l148 20l-115 -540c-3 -13 -4 -23 -4 -32c0 -28 13 -37 41 -37c39 0 66 38 81 88h42c-57 -163 -147 -179 -201 -179s-90 30 -98 87c-30 -46 -78 -93 -149 -93c-68 0 -133 42 -133 161c0 135 83 350 257 350c33 0 76 -6 82 -53zM292 443c-85 0 -140 -180 -140 -274
c0 -77 32 -78 50 -78c29 0 71 30 83 88l48 225c0 12 -9 39 -41 39z" />
    <glyph glyph-name="d.end" horiz-adv-x="542" 
d="M539 700l-115 -540c-2 -10 -4 -20 -4 -29c0 -23 10 -40 41 -40c18 0 26 3 32 6c-5 -71 -56 -103 -110 -103c-51 0 -92 25 -104 83c-30 -43 -76 -83 -142 -83c-68 0 -133 42 -133 161c0 135 83 350 257 350c33 0 75 -5 82 -51l48 226zM202 91c26 0 68 22 82 88l49 228
c-2 13 -11 36 -41 36c-85 0 -140 -180 -140 -274c0 -77 32 -78 50 -78z" />
    <glyph glyph-name="dagger" unicode="&#x2020;" horiz-adv-x="411" 
d="M330 750l-69 -322h151l-23 -112h-151l-120 -566h-72l120 566h-146l24 112h145l69 322h72z" />
    <glyph glyph-name="daggerdbl" unicode="&#x2021;" horiz-adv-x="430" 
d="M339 750l-69 -322h151l-23 -112h-151l-22 -103h152l-23 -112h-153l-74 -351h-72l74 351h-144l24 112h144l22 103h-146l24 112h145l69 322h72z" />
    <glyph glyph-name="dcroat" unicode="&#x111;" horiz-adv-x="525" 
d="M392 680l148 20l-17 -79h63l-8 -40h-64l-89 -421c-3 -13 -4 -23 -4 -32c0 -28 13 -37 41 -37c39 0 66 38 81 88h42c-57 -163 -147 -179 -201 -179s-90 30 -98 87c-30 -46 -78 -93 -149 -93c-68 0 -133 42 -133 161c0 135 83 350 257 350c33 0 76 -6 82 -53l28 129h-33
l8 40h33zM292 443c-85 0 -140 -180 -140 -274c0 -77 32 -78 50 -78c29 0 71 30 83 88l48 225c0 12 -9 39 -41 39z" />
    <glyph glyph-name="degree" unicode="&#xb0;" horiz-adv-x="320" 
d="M246 702c58 0 82 -40 82 -113c0 -85 -52 -215 -148 -215c-78 0 -96 42 -96 114c0 118 62 214 162 214zM158 519c-1 -12 -2 -27 -2 -43c0 -32 5 -65 27 -65c53 0 85 92 85 193c0 35 -4 63 -25 63c-28 0 -77 -51 -85 -148z" />
    <glyph glyph-name="dieresis" unicode="&#xa8;" horiz-adv-x="392" 
d="M56 634c0 33 27 61 61 61c33 0 61 -28 61 -61c0 -34 -28 -61 -61 -61c-34 0 -61 27 -61 61zM236 634c0 33 27 61 61 61c33 0 61 -28 61 -61c0 -34 -28 -61 -61 -61c-34 0 -61 27 -61 61z" />
    <glyph glyph-name="divide" unicode="&#xf7;" horiz-adv-x="415" 
d="M102 80c0 44 35 80 79 80s80 -36 80 -80s-36 -79 -80 -79s-79 35 -79 79zM162 415c0 44 35 80 79 80s80 -36 80 -80s-36 -79 -80 -79s-79 35 -79 79zM374 285l-17 -79h-351l18 79h350z" />
    <glyph glyph-name="dollar" unicode="$" horiz-adv-x="388" 
d="M109 -27l24 135c-57 4 -110 35 -110 110c0 59 33 90 74 90c25 0 41 -12 41 -25c-31 -5 -40 -43 -40 -69c0 -33 14 -52 42 -66l36 196c-48 40 -106 73 -106 137c0 74 80 128 154 131l19 106h58l-25 -109c46 -8 87 -26 87 -86c0 -38 -16 -73 -49 -73c-15 0 -25 7 -38 23
c17 10 24 32 24 49c0 21 -11 38 -32 47l-36 -161c69 -48 113 -87 113 -156c0 -93 -81 -144 -180 -145l-29 -134h-27zM240 232c0 34 -12 57 -29 78l-37 -166c48 6 66 47 66 88zM165 501c0 -23 8 -42 28 -62l24 135c-39 -8 -52 -44 -52 -73z" />
    <glyph glyph-name="dotlessi" unicode="&#x131;" horiz-adv-x="267" 
d="M85 500h144l-72 -340c-3 -13 -4 -23 -4 -32c0 -28 13 -37 41 -37c39 0 75 38 90 88h42c-57 -163 -156 -185 -210 -185c-60 0 -107 36 -107 120c0 19 3 41 8 65z" />
    <glyph glyph-name="dotlessi.end" horiz-adv-x="277" 
d="M85 500h144l-72 -340c-3 -13 -4 -23 -4 -32c0 -28 13 -37 41 -37c18 0 26 3 32 6c-5 -71 -56 -103 -110 -103c-60 0 -107 36 -107 120c0 19 3 41 8 65z" />
    <glyph glyph-name="e" unicode="e" horiz-adv-x="384" 
d="M152 162c0 -68 24 -84 72 -84c79 0 127 44 177 101h34c-57 -92 -142 -185 -275 -185c-94 0 -156 46 -156 159c0 114 65 352 270 352c89 0 110 -46 110 -96c0 -113 -110 -200 -230 -207c-1 -14 -2 -28 -2 -40zM307 411c0 25 -6 41 -25 41c-50 0 -99 -104 -120 -202
c78 5 145 80 145 161z" />
    <glyph glyph-name="e.end" horiz-adv-x="397" 
d="M153 202c-1 -10 -2 -20 -2 -31c0 -40 12 -82 62 -82c38 0 86 25 118 53c-21 -114 -93 -148 -173 -148c-93 0 -155 46 -155 159c0 114 65 352 270 352c89 0 110 -46 110 -96c0 -114 -110 -200 -230 -207zM306 411c0 25 -6 41 -25 41c-50 0 -100 -108 -121 -202
c78 4 146 79 146 161z" />
    <glyph glyph-name="e_x.end" horiz-adv-x="777" 
d="M431 500h141l39 -216c59 64 95 123 95 159c0 4 0 8 -1 12c-6 -1 -12 -2 -18 -2c-34 0 -46 27 -46 52c0 35 24 51 54 51c47 0 70 -39 70 -87c0 -65 -42 -132 -143 -241l9 -49c11 -59 19 -88 63 -88c18 0 26 3 32 6c-5 -71 -56 -103 -110 -103c-64 0 -94 40 -117 139
c-80 -83 -204 -139 -316 -139c-97 0 -178 42 -178 163c0 108 65 348 270 348c89 0 110 -46 110 -96c0 -114 -110 -200 -231 -207c-1 -10 -1 -19 -1 -27c0 -75 44 -99 100 -99c71 0 169 39 235 114zM308 411c0 25 -6 41 -25 41c-51 0 -100 -111 -121 -202
c78 4 146 79 146 161z" />
    <glyph glyph-name="eacute" unicode="&#xe9;" horiz-adv-x="384" 
d="M152 162c0 -68 24 -84 72 -84c79 0 127 44 177 101h34c-57 -92 -142 -185 -275 -185c-94 0 -156 46 -156 159c0 114 65 352 270 352c89 0 110 -46 110 -96c0 -113 -110 -200 -230 -207c-1 -14 -2 -28 -2 -40zM211 561l91 189h105l-121 -189h-75zM307 411
c0 25 -6 41 -25 41c-50 0 -99 -104 -120 -202c78 5 145 80 145 161z" />
    <glyph glyph-name="eacute.end" horiz-adv-x="397" 
d="M153 202c-1 -8 -1 -17 -1 -26c0 -41 9 -87 61 -87c38 0 86 25 118 53c-21 -114 -93 -148 -173 -148c-93 0 -155 46 -155 159c0 114 65 352 270 352c89 0 110 -46 110 -96c0 -114 -110 -200 -230 -207zM224 561l91 189h105l-121 -189h-75zM306 411c0 25 -6 41 -25 41
c-50 0 -100 -108 -121 -202c78 4 146 79 146 161z" />
    <glyph glyph-name="ecircumflex" unicode="&#xea;" horiz-adv-x="384" 
d="M152 162c0 -68 24 -84 72 -84c79 0 127 44 177 101h34c-57 -92 -142 -185 -275 -185c-94 0 -156 46 -156 159c0 114 65 352 270 352c89 0 110 -46 110 -96c0 -113 -110 -200 -230 -207c-1 -14 -2 -28 -2 -40zM415 561h-32l-60 80l-157 -80h-44l212 189h21zM307 411
c0 25 -6 41 -25 41c-50 0 -99 -104 -120 -202c78 5 145 80 145 161z" />
    <glyph glyph-name="edieresis" unicode="&#xeb;" horiz-adv-x="384" 
d="M152 162c0 -68 24 -84 72 -84c79 0 127 44 177 101h34c-57 -92 -142 -185 -275 -185c-94 0 -156 46 -156 159c0 114 65 352 270 352c89 0 110 -46 110 -96c0 -113 -110 -200 -230 -207c-1 -14 -2 -28 -2 -40zM307 411c0 25 -6 41 -25 41c-50 0 -99 -104 -120 -202
c78 5 145 80 145 161zM136 634c0 33 27 61 61 61c33 0 61 -28 61 -61c0 -34 -28 -61 -61 -61c-34 0 -61 27 -61 61zM316 634c0 33 27 61 61 61c33 0 61 -28 61 -61c0 -34 -28 -61 -61 -61c-34 0 -61 27 -61 61z" />
    <glyph glyph-name="egrave" unicode="&#xe8;" horiz-adv-x="384" 
d="M152 162c0 -68 24 -84 72 -84c79 0 127 44 177 101h34c-57 -92 -142 -185 -275 -185c-94 0 -156 46 -156 159c0 114 65 352 270 352c89 0 110 -46 110 -96c0 -113 -110 -200 -230 -207c-1 -14 -2 -28 -2 -40zM249 561l-59 189h105l29 -189h-75zM307 411
c0 25 -6 41 -25 41c-50 0 -99 -104 -120 -202c78 5 145 80 145 161z" />
    <glyph glyph-name="eight" unicode="8" horiz-adv-x="555" 
d="M238 78c65 0 128 89 128 165c0 66 -47 115 -88 135c-79 -33 -121 -123 -121 -190c0 -58 32 -110 81 -110zM229 -6c-134 0 -209 93 -209 195c0 89 57 192 180 228c-59 34 -85 84 -85 136c0 96 87 197 229 197c117 0 183 -68 183 -146c0 -67 -47 -142 -140 -187
c81 -26 121 -92 121 -162c0 -120 -115 -261 -279 -261zM299 451c66 43 106 114 106 172c0 40 -19 76 -61 76c-54 0 -98 -60 -98 -129c0 -44 17 -89 53 -119z" />
    <glyph glyph-name="ellipsis" unicode="&#x2026;" horiz-adv-x="720" 
d="M-9 75c0 44 35 80 79 80s80 -36 80 -80s-36 -79 -80 -79s-79 35 -79 79zM226 75c0 44 35 80 79 80s80 -36 80 -80s-36 -79 -80 -79s-79 35 -79 79zM471 75c0 44 35 80 79 80s80 -36 80 -80s-36 -79 -80 -79s-79 35 -79 79z" />
    <glyph glyph-name="emdash" unicode="&#x2014;" horiz-adv-x="471" 
d="M407 301l-17 -79h-351l18 79h350z" />
    <glyph glyph-name="endash" unicode="&#x2013;" horiz-adv-x="381" 
d="M317 301l-17 -79h-261l18 79h260z" />
    <glyph glyph-name="eogonek" unicode="&#x119;" horiz-adv-x="385" 
d="M219 -84c0 -22 11 -50 39 -50c24 0 48 21 68 34c-1 -12 -2 -19 -2 -31c-25 -23 -57 -62 -109 -62c-55 0 -79 43 -79 78s23 75 67 112c-13 -2 -27 -3 -42 -3c-94 0 -156 46 -156 159c0 115 65 356 270 356c89 0 110 -46 110 -96c0 -115 -110 -204 -230 -211
c-1 -14 -2 -28 -2 -40c0 -68 24 -84 72 -84c79 0 127 44 177 101h34c-105 -178 -217 -148 -217 -263zM308 415c0 25 -6 41 -25 41c-51 0 -100 -107 -120 -206c77 5 145 82 145 165z" />
    <glyph glyph-name="equal" unicode="=" horiz-adv-x="500" 
d="M456 428l-23 -112h-369l24 112h368zM412 213l-23 -112h-369l24 112h368z" />
    <glyph glyph-name="eth" unicode="&#xf0;" horiz-adv-x="538" 
d="M491 415l-54 -255c-3 -13 -4 -23 -4 -32c0 -28 13 -37 41 -37c39 0 66 38 81 88h42c-57 -163 -147 -179 -201 -179s-90 30 -98 87c-30 -46 -78 -93 -149 -93c-68 0 -133 42 -133 161c0 135 83 350 257 350c57 0 81 -22 81 -51v-6l8 37c7 34 11 64 12 90l-75 -12l2 39
l70 11c-6 31 -18 58 -40 87h45c33 -19 66 -40 90 -71l74 13v-41l-53 -9c9 -23 15 -50 15 -84c0 -27 -4 -58 -11 -93zM297 179l48 226c0 11 -8 38 -41 38c-85 0 -140 -180 -140 -274c0 -77 32 -78 50 -78c29 0 71 30 83 88z" />
    <glyph glyph-name="exclam" unicode="!" horiz-adv-x="270" 
d="M156 231h-85l71 469h144zM166 80c0 -44 -35 -80 -79 -80s-80 36 -80 80s36 79 80 79s79 -35 79 -79z" />
    <glyph glyph-name="exclamdown" unicode="&#xa1;" horiz-adv-x="259" 
d="M69 221h85l-71 -469h-144zM59 372c0 44 35 80 79 80s80 -36 80 -80s-36 -79 -80 -79s-79 35 -79 79z" />
    <glyph glyph-name="f" unicode="f" horiz-adv-x="267" 
d="M399 600h-47c1 10 2 18 2 27c0 23 -18 34 -38 34c-22 0 -56 -15 -70 -82l-17 -79h73l-7 -40h-74l-115 -540c-30 -143 -113 -170 -179 -170c-61 0 -118 43 -118 108c0 92 77 121 172 150l121 571c30 143 116 170 182 170c61 0 118 -43 118 -108c0 -16 -1 -29 -3 -41z
M-136 -128c0 -14 18 -33 40 -33c21 0 44 19 57 78l13 58c-63 -21 -110 -49 -110 -103z" />
    <glyph glyph-name="f_u.end" horiz-adv-x="792" 
d="M229 500h267l-72 -340c-2 -8 -3 -17 -3 -25c0 -23 7 -44 30 -44c39 0 65 38 80 88l68 321h144l-72 -340c-3 -13 -4 -23 -4 -32c0 -28 13 -37 41 -37c19 0 24 3 33 6c-5 -72 -57 -103 -111 -103c-55 0 -91 36 -98 95c-50 -82 -107 -95 -149 -95c-60 0 -107 36 -107 120
c0 19 3 41 8 65l59 281h-122l-115 -540c-30 -143 -113 -170 -179 -170c-61 0 -118 43 -118 108c0 92 77 121 172 150l121 571c30 143 116 170 182 170c61 0 118 -43 118 -108c0 -16 -1 -29 -3 -41h-47c1 10 2 18 2 27c0 23 -18 34 -38 34c-22 0 -56 -15 -70 -82zM-136 -128
c0 -14 18 -33 40 -33c21 0 44 19 57 78l13 58c-63 -21 -110 -49 -110 -103z" />
    <glyph glyph-name="fi.end" horiz-adv-x="544" 
d="M-135 -121c0 -34 30 -40 41 -40c20 0 46 21 58 78l12 58c-63 -20 -111 -54 -111 -96zM428 553c-29 0 -60 11 -60 54c0 22 13 49 34 49c2 0 7 0 8 -1c-1 26 -23 40 -55 40c-65 0 -94 -56 -106 -113l-17 -82h80l-8 -40h-80l-114 -540c-29 -138 -113 -170 -176 -170
c-73 0 -124 43 -124 112c0 89 87 120 173 146l111 526c39 184 148 215 234 215c80 0 179 -18 179 -115c0 -60 -38 -81 -79 -81zM352 500h144l-72 -340c-3 -13 -4 -23 -4 -32c0 -28 13 -37 41 -37c18 0 26 3 32 6c-5 -71 -56 -103 -110 -103c-60 0 -107 36 -107 120
c0 19 3 41 8 65z" />
    <glyph glyph-name="five" unicode="5" horiz-adv-x="527" 
d="M499 749c1 -11 2 -22 2 -33c0 -64 -30 -116 -115 -116c-53 0 -126 20 -167 25l-40 -181c46 22 88 31 125 31c121 0 176 -96 176 -207c0 -138 -86 -274 -288 -274c-80 0 -178 21 -178 145c0 105 70 142 130 142c39 0 64 -16 71 -51c-52 -6 -91 -26 -91 -82
c0 -54 35 -80 81 -80c88 0 131 98 131 184c0 88 -45 139 -112 139c-54 0 -111 -32 -149 -56l82 399c70 -8 125 -17 180 -17c51 0 101 8 162 32z" />
    <glyph glyph-name="fl.end" horiz-adv-x="556" 
d="M-137 -128c0 -14 18 -33 40 -33c20 0 47 19 59 78l12 58c-63 -21 -111 -49 -111 -103zM548 680l-110 -520c-3 -13 -4 -23 -4 -32c0 -28 13 -37 41 -37c18 0 26 3 32 6c-5 -71 -56 -103 -110 -103c-60 0 -107 36 -107 120c0 19 3 41 8 65l104 491c-26 11 -69 16 -82 16
c-22 0 -54 -12 -68 -79l-22 -107h93l-8 -40h-93l-114 -540c-30 -143 -116 -170 -182 -170c-61 0 -118 43 -118 108c0 92 78 121 173 150l120 571c30 143 117 170 182 170c90 0 175 -33 265 -69z" />
    <glyph glyph-name="florin" unicode="&#x192;" horiz-adv-x="271" 
d="M226 460l-114 -540c-30 -143 -113 -170 -179 -170c-61 0 -118 43 -118 108c0 92 77 121 172 150l96 452h-60l8 40h60l17 79c30 143 116 170 182 170c61 0 118 -43 118 -108c0 -16 -1 -29 -3 -41h-47c1 10 2 18 2 27c0 23 -18 34 -38 34c-22 0 -56 -15 -70 -82l-17 -79h74
l-8 -40h-75zM-130 -128c0 -14 18 -33 40 -33c21 0 44 19 57 78l13 58c-63 -21 -110 -49 -110 -103z" />
    <glyph glyph-name="four" unicode="4" horiz-adv-x="507" 
d="M252 270h-242c36 110 151 250 151 396c0 20 -7 61 -12 84c58 0 111 -26 111 -106c0 -105 -87 -200 -137 -295h146l82 381l148 20l-86 -401h64l-20 -79h-61l-57 -270h-144z" />
    <glyph glyph-name="g" unicode="g" horiz-adv-x="507" 
d="M353 500h144l-99 -464c61 22 98 56 126 143h42c-39 -132 -115 -170 -177 -187l-15 -72c-30 -143 -114 -170 -180 -170c-61 0 -112 32 -112 97c0 84 88 126 163 149l19 85c-29 -36 -69 -67 -127 -67c-68 0 -133 42 -133 161c0 127 83 330 257 330c33 0 75 -5 82 -52z
M292 443c-85 0 -140 -166 -140 -254c0 -77 32 -78 50 -78c29 0 74 29 87 88l44 207c-1 12 -10 37 -41 37zM137 -139c0 -14 12 -33 34 -33c21 0 45 30 58 89l6 29c-51 -19 -98 -45 -98 -85z" />
    <glyph glyph-name="g.end" horiz-adv-x="504" 
d="M353 500h144l-123 -580c-30 -143 -114 -170 -180 -170c-61 0 -112 32 -112 97c0 84 88 126 163 149l19 85c-29 -36 -69 -67 -127 -67c-68 0 -133 42 -133 161c0 127 83 330 257 330c33 0 75 -5 82 -52zM292 443c-85 0 -140 -166 -140 -254c0 -77 32 -78 50 -78
c27 0 74 25 87 88l44 207c-1 12 -10 37 -41 37zM137 -139c0 -14 12 -33 34 -33c21 0 45 30 58 89l6 29c-51 -19 -98 -45 -98 -85z" />
    <glyph glyph-name="gbreve" unicode="&#x11f;" horiz-adv-x="507" 
d="M353 500h144l-99 -464c61 22 98 56 126 143h42c-39 -132 -115 -170 -177 -187l-15 -72c-30 -143 -114 -170 -180 -170c-61 0 -112 32 -112 97c0 84 88 126 163 149l19 85c-29 -36 -69 -67 -127 -67c-68 0 -133 42 -133 161c0 127 83 330 257 330c33 0 75 -5 82 -52z
M292 443c-85 0 -140 -166 -140 -254c0 -77 32 -78 50 -78c29 0 74 29 87 88l44 207c-1 12 -10 37 -41 37zM447 703h76c-1 -95 -71 -138 -210 -138c-93 0 -155 31 -155 115c0 7 1 15 2 23h79c-1 -6 -2 -12 -2 -18c0 -56 39 -78 96 -78c59 0 107 22 114 96zM137 -139
c0 -14 12 -33 34 -33c20 0 46 30 58 89l6 29c-51 -19 -98 -45 -98 -85z" />
    <glyph glyph-name="germandbls" unicode="&#xdf;" horiz-adv-x="450" 
d="M242 530l-159 -744l-151 -36l166 780c30 143 116 170 182 170c93 0 137 -61 137 -127c0 -57 -32 -118 -92 -146c71 -24 97 -82 97 -142c0 -204 -118 -285 -190 -285c-11 0 -22 1 -33 2l13 59c83 0 109 154 109 245c0 44 -18 73 -72 87l18 58c41 17 83 52 83 111
c0 39 -12 50 -38 50c-22 0 -56 -15 -70 -82z" />
    <glyph glyph-name="grave" unicode="`" horiz-adv-x="201" 
d="M83 561l-59 189h105l29 -189h-75z" />
    <glyph glyph-name="greater" unicode="&#x3e;" horiz-adv-x="362" 
d="M71 374l9 55l246 -150l-11 -54l-304 -124l14 57l240 96z" />
    <glyph glyph-name="guillemotleft" unicode="&#xab;" horiz-adv-x="516" 
d="M224 449l42 -45l-175 -151l137 -140l-40 -44l-180 185zM432 449l42 -45l-175 -151l137 -140l-40 -44l-180 185z" />
    <glyph glyph-name="guillemotright" unicode="&#xbb;" horiz-adv-x="519" 
d="M267 69l-42 45l175 151l-137 140l40 44l180 -185zM59 69l-42 45l175 151l-137 140l40 44l180 -185z" />
    <glyph glyph-name="guilsinglleft" unicode="&#x2039;" horiz-adv-x="308" 
d="M224 449l42 -45l-175 -151l137 -140l-40 -44l-180 185z" />
    <glyph glyph-name="guilsinglright" unicode="&#x203a;" horiz-adv-x="311" 
d="M59 69l-42 45l175 151l-137 140l40 44l180 -185z" />
    <glyph glyph-name="h" unicode="h" horiz-adv-x="505" 
d="M305 362c0 33 -12 51 -36 51c-36 0 -63 -42 -78 -92l-68 -321h-144l145 680l148 20l-54 -252c42 48 86 56 117 56c64 0 111 -33 111 -113c0 -81 -48 -202 -48 -258c0 -25 10 -42 40 -42c44 0 62 36 84 88h42c-56 -164 -133 -185 -186 -185c-87 0 -118 56 -118 113
c0 68 45 191 45 255z" />
    <glyph glyph-name="h.end" horiz-adv-x="518" 
d="M304 362c0 33 -12 51 -36 51c-33 0 -60 -35 -75 -80l-71 -333h-144l145 680l148 20l-54 -251c43 47 86 55 117 55c64 0 111 -33 111 -113c0 -81 -48 -202 -48 -258c0 -25 10 -42 40 -42c17 0 27 2 33 6c-9 -72 -57 -103 -110 -103c-77 0 -101 56 -101 113
c0 68 45 191 45 255z" />
    <glyph glyph-name="hungarumlaut" unicode="&#x2dd;" horiz-adv-x="436" 
d="M120 561l91 189h95l-121 -189h-65zM250 561l91 189h95l-121 -189h-65z" />
    <glyph glyph-name="hyphen" unicode="-" horiz-adv-x="321" 
d="M257 301l-17 -79h-201l18 79h200z" />
    <glyph glyph-name="i" unicode="i" horiz-adv-x="267" 
d="M105 633c0 44 35 80 79 80s80 -36 80 -80s-36 -79 -80 -79s-79 35 -79 79zM85 500h144l-72 -340c-3 -13 -4 -23 -4 -32c0 -28 13 -37 41 -37c39 0 75 38 90 88h42c-57 -163 -156 -185 -210 -185c-60 0 -107 36 -107 120c0 19 3 41 8 65z" />
    <glyph glyph-name="i.end" horiz-adv-x="277" 
d="M105 633c0 44 35 80 79 80s80 -36 80 -80s-36 -79 -80 -79s-79 35 -79 79zM85 500h144l-72 -340c-3 -13 -4 -23 -4 -32c0 -28 13 -37 41 -37c18 0 26 3 32 6c-5 -71 -56 -103 -110 -103c-60 0 -107 36 -107 120c0 19 3 41 8 65z" />
    <glyph glyph-name="i_x.end" horiz-adv-x="646" 
d="M85 500h144l-72 -340c-3 -13 -4 -23 -4 -32c0 -25 18 -36 44 -36c51 0 116 39 159 94l-57 314h141l39 -216c59 64 95 123 95 159c0 4 0 8 -1 12c-6 -1 -12 -2 -17 -2c-35 0 -47 25 -47 56c0 30 25 47 56 47c45 0 68 -40 68 -89c0 -65 -45 -134 -143 -238l9 -50
c11 -59 19 -88 63 -88c18 0 26 3 32 6c-5 -71 -56 -103 -110 -103c-64 0 -94 40 -116 137c-65 -73 -161 -137 -253 -137c-61 0 -106 37 -106 119c0 19 3 41 8 66zM105 633c0 44 35 80 79 80s80 -36 80 -80s-36 -79 -80 -79s-79 35 -79 79z" />
    <glyph glyph-name="iacute" unicode="&#xed;" horiz-adv-x="267" 
d="M85 500h144l-72 -340c-3 -13 -4 -23 -4 -32c0 -28 13 -37 41 -37c39 0 75 38 90 88h42c-57 -163 -156 -185 -210 -185c-60 0 -107 36 -107 120c0 19 3 41 8 65zM138 561l91 189h105l-121 -189h-75z" />
    <glyph glyph-name="iacute.end" horiz-adv-x="277" 
d="M85 500h144l-72 -340c-3 -13 -4 -23 -4 -32c0 -28 13 -37 41 -37c18 0 26 3 32 6c-5 -71 -56 -103 -110 -103c-60 0 -107 36 -107 120c0 19 3 41 8 65zM128 561l91 189h105l-121 -189h-75z" />
    <glyph glyph-name="icircumflex" unicode="&#xee;" horiz-adv-x="267" 
d="M85 500h144l-72 -340c-3 -13 -4 -23 -4 -32c0 -28 13 -37 41 -37c39 0 75 38 90 88h42c-57 -163 -156 -185 -210 -185c-60 0 -107 36 -107 120c0 19 3 41 8 65zM316 561h-32l-60 80l-157 -80h-44l212 189h21z" />
    <glyph glyph-name="idieresis" unicode="&#xef;" horiz-adv-x="267" 
d="M85 500h144l-72 -340c-3 -13 -4 -23 -4 -32c0 -28 13 -37 41 -37c39 0 75 38 90 88h42c-57 -163 -156 -185 -210 -185c-60 0 -107 36 -107 120c0 19 3 41 8 65zM34 634c0 33 27 61 61 61c33 0 61 -28 61 -61c0 -34 -28 -61 -61 -61c-34 0 -61 27 -61 61zM214 634
c0 33 27 61 61 61c33 0 61 -28 61 -61c0 -34 -28 -61 -61 -61c-34 0 -61 27 -61 61z" />
    <glyph glyph-name="igrave" unicode="&#xec;" horiz-adv-x="267" 
d="M85 500h144l-72 -340c-3 -13 -4 -23 -4 -32c0 -28 13 -37 41 -37c39 0 75 38 90 88h42c-57 -163 -156 -185 -210 -185c-60 0 -107 36 -107 120c0 19 3 41 8 65zM142 561l-59 189h105l29 -189h-75z" />
    <glyph glyph-name="ij.end" horiz-adv-x="504" 
d="M248 8l104 492h145l-122 -580c-30 -143 -116 -170 -182 -170c-61 0 -118 43 -118 108c0 93 78 122 173 150zM85 500h144l-72 -340c-3 -13 -4 -23 -4 -32c0 -28 13 -37 41 -37c18 0 26 3 32 6c-5 -71 -56 -103 -110 -103c-60 0 -107 36 -107 120c0 19 3 41 8 65zM105 633
c0 44 35 80 79 80s80 -36 80 -80s-36 -79 -80 -79s-79 35 -79 79zM368 634c0 44 35 80 79 80s80 -36 80 -80s-36 -79 -80 -79s-79 35 -79 79zM130 -128c0 -14 18 -33 40 -33c21 0 46 19 59 78l12 59c-63 -21 -111 -50 -111 -104z" />
    <glyph glyph-name="j" unicode="j" horiz-adv-x="240" 
d="M86 500h144l-99 -464c61 22 98 56 126 143h42c-39 -132 -115 -170 -177 -187l-15 -72c-30 -143 -114 -170 -180 -170c-61 0 -112 32 -112 97c0 84 88 126 164 149zM97 634c0 44 35 80 79 80s80 -36 80 -80s-36 -79 -80 -79s-79 35 -79 79zM-130 -139c0 -14 12 -33 34 -33
c21 0 45 30 58 89l6 29c-51 -19 -98 -45 -98 -85z" />
    <glyph glyph-name="j.end" horiz-adv-x="237" 
d="M-18 8l103 492h145l-122 -580c-30 -143 -116 -170 -182 -170c-61 0 -118 43 -118 108c0 93 78 122 174 150zM101 634c0 44 35 80 79 80s80 -36 80 -80s-36 -79 -80 -79s-79 35 -79 79zM-137 -128c0 -14 18 -33 40 -33c21 0 46 19 59 78l13 59c-64 -21 -112 -50 -112 -104
z" />
    <glyph glyph-name="k" unicode="k" horiz-adv-x="518" 
d="M390 500h99l-200 -139c11 2 22 4 33 4c74 0 110 -53 110 -117c0 -43 -20 -81 -20 -120c0 -20 8 -37 39 -37c44 0 62 36 84 88h42c-57 -168 -138 -185 -184 -185c-82 0 -126 41 -126 114c0 46 18 86 18 128c0 29 -10 48 -36 48c-23 0 -46 -14 -74 -37l-52 -247h-144
l145 680l148 20l-75 -352z" />
    <glyph glyph-name="k.end" horiz-adv-x="534" 
d="M390 500h99l-200 -139c11 2 22 4 33 4c74 0 110 -53 110 -117c0 -12 -1 -25 -4 -38l-11 -50c-2 -10 -5 -21 -5 -32c0 -20 8 -37 39 -37c24 0 28 3 35 6c-5 -71 -67 -103 -93 -103c-82 0 -126 41 -126 114c0 16 2 33 6 52l8 39c3 13 4 26 4 37c0 29 -10 48 -36 48
c-23 0 -46 -14 -74 -37l-52 -247h-144l145 680l148 20l-75 -352z" />
    <glyph glyph-name="k.salt" horiz-adv-x="518" 
d="M428 210l-11 -50c-2 -10 -5 -21 -5 -32c0 -20 8 -37 39 -37c44 0 62 36 84 88h42c-57 -168 -138 -185 -184 -185c-82 0 -126 41 -126 114c0 16 2 33 6 52l8 39c3 13 4 26 4 37c0 29 -10 48 -36 48c-23 0 -46 -14 -74 -37l-52 -247h-144l145 680l148 20l-72 -337
c130 124 169 143 221 143c33 0 47 -28 47 -50c0 -28 -20 -53 -51 -53c-23 0 -40 12 -57 12c-45 0 -77 -21 -138 -79c32 17 65 29 100 29c74 0 110 -53 110 -117c0 -12 -1 -25 -4 -38z" />
    <glyph glyph-name="l" unicode="l" horiz-adv-x="267" 
d="M124 680l148 20l-115 -540c-3 -13 -4 -23 -4 -32c0 -28 13 -37 41 -37c39 0 75 38 90 88h42c-57 -163 -156 -185 -210 -185c-60 0 -107 36 -107 120c0 19 3 41 8 65z" />
    <glyph glyph-name="l.end" horiz-adv-x="273" 
d="M270 702l-115 -540c-2 -10 -4 -20 -4 -29c0 -23 10 -40 41 -40c18 0 26 3 32 6c-5 -71 -56 -105 -110 -105c-60 0 -107 37 -107 122c0 19 3 41 8 65l107 501z" />
    <glyph glyph-name="less" unicode="&#x3c;" horiz-adv-x="358" 
d="M323 429l-10 -55l-241 -120l194 -96l-12 -57l-247 137l9 41z" />
    <glyph glyph-name="logicalnot" unicode="&#xac;" horiz-adv-x="467" 
d="M400 301l-51 -250h-113l35 171h-251l18 79h362z" />
    <glyph glyph-name="lslash" unicode="&#x142;" horiz-adv-x="266" 
d="M17 179l23 107l-57 -37v58l71 43l70 330l148 20l-50 -237l118 71l-4 -61c-47 -26 -93 -55 -129 -78l-50 -235c-3 -13 -4 -23 -4 -32c0 -28 13 -37 41 -37c39 0 75 38 90 88h42c-57 -163 -156 -185 -210 -185c-60 0 -107 36 -107 121c0 19 3 40 8 64z" />
    <glyph glyph-name="m" unicode="m" horiz-adv-x="752" 
d="M552 362c0 33 -12 51 -36 51c-36 0 -63 -42 -78 -92l-68 -321h-144l73 345c2 8 3 16 3 25c0 22 -8 44 -30 44c-39 0 -66 -43 -81 -93l-68 -321h-144l106 500h144l-11 -52c42 48 87 57 122 57c49 0 89 -19 102 -86c49 74 103 85 140 85c64 0 111 -33 111 -113
c0 -81 -48 -202 -48 -258c0 -25 10 -42 40 -42c44 0 62 36 84 88h42c-56 -164 -133 -185 -186 -185c-87 0 -118 56 -118 113c0 68 45 191 45 255z" />
    <glyph glyph-name="m.end" horiz-adv-x="766" 
d="M552 362c0 33 -12 51 -36 51c-36 0 -63 -42 -78 -92l-68 -321h-144l73 345c2 8 3 16 3 25c0 22 -8 44 -30 44c-39 0 -66 -43 -81 -93l-68 -321h-144l106 500h144l-11 -52c42 48 87 57 122 57c53 0 92 -24 103 -86c48 74 102 85 139 85c64 0 111 -33 111 -113
c0 -81 -48 -202 -48 -258c0 -25 10 -42 40 -42c17 0 27 2 33 6c-9 -72 -57 -103 -110 -103c-77 0 -101 56 -101 113c0 68 45 191 45 255z" />
    <glyph glyph-name="minus" unicode="&#x2212;" horiz-adv-x="471" 
d="M407 301l-17 -79h-351l18 79h350z" />
    <glyph glyph-name="mu" unicode="&#xb5;" horiz-adv-x="505" 
d="M85 500h144l-72 -340c-2 -8 -3 -16 -3 -25c0 -23 8 -44 30 -44c39 0 65 38 80 88l68 321h144l-72 -340c-3 -13 -4 -23 -4 -32c0 -28 13 -37 41 -37c39 0 66 38 81 88h42c-57 -163 -147 -179 -201 -179c-55 0 -92 31 -98 90c-48 -76 -102 -89 -143 -90l-27 -130l-151 -36z
" />
    <glyph glyph-name="multiply" unicode="&#xd7;" horiz-adv-x="414" 
d="M35 355l65 64l94 -95l96 96l64 -65l-95 -95l95 -95l-64 -65l-96 95l-94 -94l-65 64l95 95z" />
    <glyph glyph-name="n" unicode="n" horiz-adv-x="505" 
d="M305 362c0 33 -12 51 -36 51c-36 0 -63 -42 -78 -92l-68 -321h-144l106 500h144l-11 -52c42 48 86 56 117 56c64 0 111 -33 111 -113c0 -81 -48 -202 -48 -258c0 -25 10 -42 40 -42c44 0 62 36 84 88h42c-56 -164 -133 -185 -186 -185c-87 0 -118 56 -118 113
c0 68 45 191 45 255z" />
    <glyph glyph-name="n.end" horiz-adv-x="519" 
d="M305 362c0 33 -12 51 -36 51c-36 0 -63 -42 -78 -92l-68 -321h-144l106 500h144l-11 -52c42 48 86 56 117 56c64 0 111 -33 111 -113c0 -81 -48 -202 -48 -258c0 -25 10 -42 40 -42c17 0 27 2 33 6c-9 -72 -57 -103 -110 -103c-77 0 -101 56 -101 113c0 68 45 191 45 255
z" />
    <glyph glyph-name="nacute" unicode="&#x144;" horiz-adv-x="505" 
d="M305 362c0 33 -12 51 -36 51c-36 0 -63 -42 -78 -92l-68 -321h-144l106 500h144l-11 -52c42 48 86 56 117 56c64 0 111 -33 111 -113c0 -81 -48 -202 -48 -258c0 -25 10 -42 40 -42c44 0 62 36 84 88h42c-56 -164 -133 -185 -186 -185c-87 0 -118 56 -118 113
c0 68 45 191 45 255zM281 561l91 189h105l-121 -189h-75z" />
    <glyph glyph-name="nine" unicode="9" horiz-adv-x="556" 
d="M324 444c20 -12 24 -35 24 -48c0 -53 -66 -91 -134 -91c-103 0 -144 87 -144 179c0 145 102 266 263 266c152 0 203 -84 203 -228c0 -269 -142 -527 -344 -527c-92 0 -127 49 -127 99c0 35 17 78 86 78c-10 -10 -14 -22 -14 -34c0 -21 12 -56 60 -56c16 0 175 4 200 405
c1 19 2 33 2 53c0 115 -34 149 -80 149c-80 0 -135 -103 -135 -205c0 -37 7 -109 61 -109c32 0 63 25 79 69z" />
    <glyph glyph-name="ntilde" unicode="&#xf1;" horiz-adv-x="505" 
d="M305 362c0 33 -12 51 -36 51c-36 0 -63 -42 -78 -92l-68 -321h-144l106 500h144l-11 -52c42 48 86 56 117 56c64 0 111 -33 111 -113c0 -81 -48 -202 -48 -258c0 -25 10 -42 40 -42c44 0 62 36 84 88h42c-56 -164 -133 -185 -186 -185c-87 0 -118 56 -118 113
c0 68 45 191 45 255zM500 670l6 -1c-11 -47 -85 -100 -161 -100c-66 0 -113 37 -168 37c-26 0 -48 -9 -66 -26l-6 2c32 64 91 98 167 98c73 0 107 -33 165 -33c25 0 49 8 63 23z" />
    <glyph glyph-name="numbersign" unicode="#" horiz-adv-x="542" 
d="M261 -27l25 138h-118l-30 -138h-57l25 138h-107l21 102h104l21 113h-102l21 102h99l52 290h88l-65 -290h105l52 290h88l-65 -290h104l-20 -102h-106l-25 -113h107l-20 -102h-110l-30 -138h-57zM216 326l-25 -113h113l21 113h-109z" />
    <glyph glyph-name="o" unicode="o" horiz-adv-x="439" 
d="M277 505c85 0 127 -53 128 -157c4 -1 8 -1 11 -1c46 0 111 30 154 60l9 -27c-38 -41 -104 -71 -176 -83c-16 -186 -117 -303 -240 -303c-93 0 -160 44 -160 158c0 115 68 353 274 353zM203 88c49 0 101 88 116 206c-21 5 -27 22 -27 42c0 28 13 46 31 53
c-2 41 -13 56 -38 56c-71 0 -133 -178 -133 -276c0 -66 13 -81 51 -81z" />
    <glyph glyph-name="o.end" horiz-adv-x="483" 
d="M277 505c78 0 120 -44 127 -131c33 9 58 51 68 69h32c-20 -42 -49 -103 -101 -133c-11 -194 -114 -316 -240 -316c-93 0 -160 44 -160 158c0 115 68 353 274 353zM203 88c49 0 100 88 116 205c-18 5 -27 20 -27 46c0 28 13 46 31 53c-3 39 -13 53 -38 53
c-71 0 -133 -178 -133 -276c0 -66 13 -81 51 -81z" />
    <glyph glyph-name="o_s.end" horiz-adv-x="796" 
d="M277 505c84 0 126 -51 128 -153c50 5 104 62 160 159l148 20c12 -259 22 -298 22 -364c0 -130 -94 -173 -176 -173c-119 0 -139 72 -139 133c0 59 37 95 72 95c34 0 52 -13 52 -42c0 -24 -22 -45 -48 -45c-10 0 -22 3 -27 13c0 -47 20 -75 58 -75c44 0 63 23 63 93
c0 56 -11 87 -22 272c-48 -73 -104 -118 -165 -137c-15 -189 -116 -307 -240 -307c-93 0 -160 44 -160 158c0 115 68 353 274 353zM203 88c49 0 100 87 116 204c-18 5 -27 20 -27 46c0 28 13 46 31 53c-2 40 -13 54 -38 54c-71 0 -133 -178 -133 -276c0 -66 13 -81 51 -81z
" />
    <glyph glyph-name="oacute" unicode="&#xf3;" horiz-adv-x="439" 
d="M277 505c85 0 127 -53 128 -157c4 -1 8 -1 11 -1c46 0 111 30 154 60l9 -27c-38 -41 -104 -71 -176 -83c-16 -186 -117 -303 -240 -303c-93 0 -160 44 -160 158c0 115 68 353 274 353zM203 88c49 0 101 88 116 206c-21 5 -27 22 -27 42c0 28 13 46 31 53
c-2 41 -13 56 -38 56c-71 0 -133 -178 -133 -276c0 -66 13 -81 51 -81zM242 561l91 189h105l-121 -189h-75z" />
    <glyph glyph-name="oacute.end" horiz-adv-x="480" 
d="M278 505c78 0 120 -44 127 -131c33 9 58 51 68 69h32c-20 -42 -49 -103 -101 -133c-11 -194 -114 -316 -240 -316c-93 0 -160 44 -160 158c0 115 68 353 274 353zM204 88c49 0 100 88 116 205c-18 5 -27 20 -27 46c0 28 13 46 31 53c-3 39 -13 53 -38 53
c-71 0 -133 -178 -133 -276c0 -66 13 -81 51 -81zM236 561l91 189h105l-121 -189h-75z" />
    <glyph glyph-name="oacute_s.end" horiz-adv-x="797" 
d="M278 505c84 0 126 -51 128 -153c50 5 104 62 160 159l148 20c12 -259 22 -298 22 -364c0 -130 -94 -173 -176 -173c-119 0 -139 72 -139 133c0 59 37 95 72 95c34 0 52 -13 52 -42c0 -24 -22 -45 -48 -45c-10 0 -22 3 -27 13c0 -47 20 -75 58 -75c44 0 63 23 63 93
c0 56 -11 87 -22 272c-48 -73 -104 -118 -165 -137c-15 -189 -116 -307 -240 -307c-93 0 -160 44 -160 158c0 115 68 353 274 353zM204 88c49 0 100 87 116 204c-18 5 -27 20 -27 46c0 28 13 46 31 53c-2 40 -13 54 -38 54c-71 0 -133 -178 -133 -276c0 -66 13 -81 51 -81z
M236 561l91 189h105l-121 -189h-75z" />
    <glyph glyph-name="ocircumflex" unicode="&#xf4;" horiz-adv-x="439" 
d="M277 505c85 0 127 -53 128 -157c4 -1 8 -1 11 -1c46 0 111 30 154 60l9 -27c-38 -41 -104 -71 -176 -83c-16 -186 -117 -303 -240 -303c-93 0 -160 44 -160 158c0 115 68 353 274 353zM203 88c49 0 101 88 116 206c-21 5 -27 22 -27 42c0 28 13 46 31 53
c-2 41 -13 56 -38 56c-71 0 -133 -178 -133 -276c0 -66 13 -81 51 -81zM411 561h-32l-60 80l-157 -80h-44l212 189h21z" />
    <glyph glyph-name="odieresis" unicode="&#xf6;" horiz-adv-x="439" 
d="M277 505c85 0 127 -53 128 -157c4 -1 8 -1 11 -1c46 0 111 30 154 60l9 -27c-38 -41 -104 -71 -176 -83c-16 -186 -117 -303 -240 -303c-93 0 -160 44 -160 158c0 115 68 353 274 353zM203 88c49 0 101 88 116 206c-21 5 -27 22 -27 42c0 28 13 46 31 53
c-2 41 -13 56 -38 56c-71 0 -133 -178 -133 -276c0 -66 13 -81 51 -81zM128 634c0 33 27 61 61 61c33 0 61 -28 61 -61c0 -34 -28 -61 -61 -61c-34 0 -61 27 -61 61zM308 634c0 33 27 61 61 61c33 0 61 -28 61 -61c0 -34 -28 -61 -61 -61c-34 0 -61 27 -61 61z" />
    <glyph glyph-name="oe" unicode="&#x153;" horiz-adv-x="671" 
d="M271 510c67 0 99 -37 112 -85c37 50 88 84 160 84c82 0 128 -34 128 -104c0 -122 -131 -192 -226 -204c-2 -16 -3 -31 -3 -43c0 -66 43 -86 82 -86c49 0 133 58 168 132h45c-57 -103 -153 -204 -282 -204c-68 0 -114 36 -135 87c-44 -62 -103 -93 -159 -93
c-107 0 -153 45 -153 164c0 246 125 352 263 352zM208 91c61 0 95 96 107 193c-29 0 -42 21 -42 45c0 29 17 60 44 70c-3 33 -14 52 -42 52c-94 0 -134 -204 -134 -284c0 -60 28 -76 67 -76zM611 400c0 21 -5 56 -35 56c-56 0 -102 -113 -123 -207c92 1 157 80 158 151z" />
    <glyph glyph-name="ogonek" unicode="&#x2db;" horiz-adv-x="291" 
d="M122 5h70c-29 -11 -64 -49 -64 -89c0 -22 11 -50 39 -50c24 0 48 21 68 34c-1 -12 -2 -19 -2 -31c-25 -23 -57 -62 -109 -62c-55 0 -79 43 -79 78c0 37 27 81 77 120z" />
    <glyph glyph-name="ograve" unicode="&#xf2;" horiz-adv-x="439" 
d="M277 505c85 0 127 -53 128 -157c4 -1 8 -1 11 -1c46 0 111 30 154 60l9 -27c-38 -41 -104 -71 -176 -83c-16 -186 -117 -303 -240 -303c-93 0 -160 44 -160 158c0 115 68 353 274 353zM203 88c49 0 101 88 116 206c-21 5 -27 22 -27 42c0 28 13 46 31 53
c-2 41 -13 56 -38 56c-71 0 -133 -178 -133 -276c0 -66 13 -81 51 -81zM261 561l-59 189h105l29 -189h-75z" />
    <glyph glyph-name="ohungarumlaut" unicode="&#x151;" horiz-adv-x="439" 
d="M277 505c85 0 127 -53 128 -157c4 -1 8 -1 11 -1c46 0 111 30 154 60l9 -27c-38 -41 -104 -71 -176 -83c-16 -186 -117 -303 -240 -303c-93 0 -160 44 -160 158c0 115 68 353 274 353zM203 88c49 0 101 88 116 206c-21 5 -27 22 -27 42c0 28 13 46 31 53
c-2 41 -13 56 -38 56c-71 0 -133 -178 -133 -276c0 -66 13 -81 51 -81zM214 561l91 189h95l-121 -189h-65zM344 561l91 189h95l-121 -189h-65z" />
    <glyph glyph-name="one" unicode="1" horiz-adv-x="335" 
d="M348 748l-159 -748h-144l126 598h-95l18 72c55 0 133 6 254 78z" />
    <glyph glyph-name="onehalf" unicode="&#xbd;" horiz-adv-x="684" 
d="M449 750l-264 -915h-72l264 915h72zM225 629l-92 -404h-84l77 337h-55l7 25c32 0 77 3 147 42zM417 76c37 0 74 -10 113 -10c38 0 48 14 75 38c0 -69 -1 -105 -69 -105c-63 0 -84 20 -143 20c-14 0 -35 -12 -46 -16c-1 6 -2 12 -2 18c0 118 191 171 191 315
c0 26 -18 44 -35 44c-39 0 -47 -16 -47 -43c0 -13 6 -33 22 -37c-15 -13 -31 -19 -45 -19c-23 0 -41 17 -41 49c0 37 32 79 120 79c79 0 110 -34 110 -86c0 -121 -159 -174 -207 -247h4z" />
    <glyph glyph-name="onequarter" unicode="&#xbc;" horiz-adv-x="676" 
d="M454 750l-264 -915h-72l264 915h72zM494 150h-141c20 59 84 144 84 223c0 11 -1 22 -4 33c34 0 65 -17 65 -51c0 -69 -56 -115 -85 -166h90l47 206l86 11l-50 -217h38l-12 -39h-35l-34 -149h-83zM225 629l-92 -404h-84l77 337h-55l7 25c32 0 77 3 147 42z" />
    <glyph glyph-name="onesuperior" unicode="&#xb9;" horiz-adv-x="227" 
d="M257 749l-92 -404h-84l77 337h-55l7 25c32 0 77 3 147 42z" />
    <glyph glyph-name="ordfeminine" unicode="&#xaa;" horiz-adv-x="356" 
d="M374 740l-42 -184c-2 -9 -3 -15 -3 -19c0 -10 5 -19 21 -19c4 0 10 0 15 2c-16 -47 -41 -50 -56 -50c-40 0 -52 19 -57 54c-17 -27 -46 -57 -89 -57c-50 0 -68 41 -68 90c0 78 47 188 142 188c26 0 41 -8 51 -18l3 13h83zM253 711c-45 0 -80 -85 -80 -146
c0 -42 17 -53 29 -53c18 0 37 24 48 49l32 139c-10 8 -21 11 -29 11z" />
    <glyph glyph-name="ordmasculine" unicode="&#xba;" horiz-adv-x="309" 
d="M317 671c15 9 20 18 33 32l6 -11c-6 -19 -16 -44 -39 -57c-6 -112 -75 -169 -129 -169c-62 0 -91 25 -91 89c0 132 73 190 152 190c28 0 55 -10 55 -24c0 -16 -14 -22 -26 -26c-5 12 -13 19 -26 19c-57 0 -78 -111 -78 -154c0 -32 17 -41 41 -41c36 0 53 59 59 108
c-11 3 -15 11 -15 22c0 19 20 41 39 41c14 0 19 -4 19 -19z" />
    <glyph glyph-name="oslash" unicode="&#xf8;" horiz-adv-x="439" 
d="M187 -103h-52l21 97c-90 2 -153 47 -153 158c0 112 65 342 261 352l21 101h52l-22 -105c58 -14 88 -61 90 -143c51 3 113 38 145 60h32c-28 -41 -102 -90 -179 -111c-11 -167 -91 -280 -194 -306zM203 88c50 0 101 90 116 209c-20 4 -30 18 -30 46c0 29 14 47 34 54
c-4 35 -14 48 -38 48c-71 0 -133 -178 -133 -276c0 -66 13 -81 51 -81z" />
    <glyph glyph-name="otilde" unicode="&#xf5;" horiz-adv-x="439" 
d="M277 505c85 0 127 -53 128 -157c4 -1 8 -1 11 -1c46 0 111 30 154 60l9 -27c-38 -41 -104 -71 -176 -83c-16 -186 -117 -303 -240 -303c-93 0 -160 44 -160 158c0 115 68 353 274 353zM203 88c49 0 101 88 116 206c-21 5 -27 22 -27 42c0 28 13 46 31 53
c-2 41 -13 56 -38 56c-71 0 -133 -178 -133 -276c0 -66 13 -81 51 -81zM458 670l6 -1c-11 -47 -85 -100 -161 -100c-66 0 -113 37 -168 37c-26 0 -48 -9 -66 -26l-6 2c32 64 91 98 167 98c73 0 107 -33 165 -33c25 0 49 8 63 23z" />
    <glyph glyph-name="p" unicode="p" horiz-adv-x="468" 
d="M93 537h144l-16 -75c29 25 67 43 117 43c68 0 122 -39 122 -158c0 -135 -52 -353 -246 -353c-50 0 -74 17 -85 36l-52 -244l-151 -36zM183 81c105 0 140 175 140 269c0 77 -32 83 -50 83c-22 0 -50 -17 -69 -49l-59 -280c4 -11 15 -23 38 -23z" />
    <glyph glyph-name="p.calt" horiz-adv-x="505" 
d="M305 362c0 33 -12 51 -36 51c-36 0 -63 -42 -78 -92l-114 -535l-151 -36l167 787h144l-19 -89c42 48 86 56 117 56c64 0 111 -33 111 -113c0 -81 -48 -202 -48 -258c0 -25 10 -42 40 -42c44 0 62 36 84 88h42c-56 -164 -133 -185 -186 -185c-87 0 -118 56 -118 113
c0 68 45 191 45 255z" />
    <glyph glyph-name="p.salt" horiz-adv-x="482" 
d="M551 282l-13 -58c-32 -2 -69 -8 -106 -17c-34 -118 -106 -213 -183 -213c-57 0 -81 28 -81 75c0 71 69 120 157 154c6 29 10 60 10 88c0 56 -16 102 -64 102c-39 0 -65 -42 -80 -92l-114 -535l-151 -36l167 787h144l-19 -89c42 48 86 56 121 56c74 0 112 -73 112 -161
c0 -28 -3 -56 -7 -83c37 9 74 16 107 22zM229 86c0 -7 6 -14 15 -14c15 0 38 16 59 73l6 17c-47 -24 -80 -51 -80 -76z" />
    <glyph glyph-name="paragraph" unicode="&#xb6;" horiz-adv-x="519" 
d="M232 -81h-94l77 369c-101 20 -150 109 -150 203c0 124 85 258 250 258c100 0 185 -44 185 -165c0 -22 -3 -46 -8 -72l-127 -593h-94l81 380c-15 -5 -29 -8 -43 -11zM320 339h6c12 0 24 1 35 4l48 227c4 19 6 35 6 49c0 31 -9 50 -23 63z" />
    <glyph glyph-name="parenleft" unicode="(" horiz-adv-x="281" 
d="M338 750l13 -40c-149 -74 -266 -377 -266 -637c0 -114 22 -219 73 -294l-33 -29c-78 86 -113 214 -113 350c0 261 128 555 326 650z" />
    <glyph glyph-name="parenright" unicode=")" horiz-adv-x="281" 
d="M-86 -250l-13 40c149 74 266 376 266 637c0 113 -22 219 -73 294l33 29c78 -86 113 -214 113 -350c0 -262 -128 -555 -326 -650z" />
    <glyph glyph-name="percent" unicode="%" horiz-adv-x="623" 
d="M541 750l-386 -750h-72l386 750h72zM231 702c58 0 82 -40 82 -113c0 -85 -52 -215 -148 -215c-78 0 -96 42 -96 114c0 118 62 214 162 214zM143 519c-1 -12 -2 -27 -2 -43c0 -32 5 -65 27 -65c53 0 85 92 85 193c0 35 -4 63 -25 63c-28 0 -77 -51 -85 -148zM479 328
c58 0 92 -40 92 -113c0 -85 -42 -215 -158 -215c-78 0 -96 42 -96 114c0 118 62 214 162 214zM386 145c-1 -12 -2 -27 -2 -43c0 -32 5 -65 27 -65c53 0 82 85 82 186c0 35 -7 68 -28 68c-28 0 -71 -49 -79 -146z" />
    <glyph glyph-name="period" unicode="." horiz-adv-x="240" 
d="M-9 75c0 44 35 80 79 80s80 -36 80 -80s-36 -79 -80 -79s-79 35 -79 79z" />
    <glyph glyph-name="periodcentered" unicode="&#xb7;" horiz-adv-x="281" 
d="M33 267c0 53 43 97 96 97s97 -44 97 -97s-44 -96 -97 -96s-96 43 -96 96z" />
    <glyph glyph-name="perthousand" unicode="&#x2030;" horiz-adv-x="912" 
d="M542 750l-386 -750h-72l386 750h72zM232 702c58 0 82 -40 82 -113c0 -85 -52 -215 -148 -215c-78 0 -96 42 -96 114c0 118 62 214 162 214zM144 519c-1 -12 -2 -27 -2 -43c0 -32 5 -65 27 -65c53 0 85 92 85 193c0 35 -4 63 -25 63c-28 0 -77 -51 -85 -148zM480 328
c58 0 92 -40 92 -113c0 -85 -42 -215 -158 -215c-78 0 -96 42 -96 114c0 118 62 214 162 214zM387 145c-1 -12 -2 -27 -2 -43c0 -32 5 -65 27 -65c53 0 82 85 82 186c0 35 -7 68 -28 68c-28 0 -71 -49 -79 -146zM768 328c58 0 92 -40 92 -113c0 -85 -42 -215 -158 -215
c-78 0 -96 42 -96 114c0 118 62 214 162 214zM675 145c-1 -12 -2 -27 -2 -43c0 -32 5 -65 27 -65c53 0 82 85 82 186c0 35 -7 68 -28 68c-28 0 -71 -49 -79 -146z" />
    <glyph glyph-name="plus" unicode="+" horiz-adv-x="442" 
d="M304 439l-27 -122h127l-23 -112h-128l-27 -123h-113l27 123h-128l24 112h128l27 122h113z" />
    <glyph glyph-name="plusminus" unicode="&#xb1;" horiz-adv-x="479" 
d="M346 543l-27 -122h127l-23 -112h-128l-27 -123h-113l27 123h-128l24 112h128l27 122h113zM387 147l-17 -79h-368l18 79h367z" />
    <glyph glyph-name="q" unicode="q" horiz-adv-x="486" 
d="M352 500h144l-152 -714l-151 -36l63 299c-29 -31 -68 -55 -119 -55c-68 0 -133 42 -133 161c0 135 83 350 257 350c32 0 73 -5 81 -49zM292 443c-85 0 -140 -180 -140 -274c0 -77 32 -78 50 -78c26 0 62 24 78 71l52 247c-2 12 -12 34 -40 34z" />
    <glyph glyph-name="question" unicode="?" horiz-adv-x="420" 
d="M443 572c0 -171 -192 -195 -240 -340h-66c0 137 187 191 187 337c0 60 -31 77 -59 77c-39 0 -81 -33 -81 -82c0 -24 10 -59 38 -67c-17 -28 -45 -42 -73 -42c-39 0 -76 28 -76 84c0 68 56 161 215 161c122 0 155 -54 155 -128zM225 80c0 -44 -35 -80 -79 -80
s-80 36 -80 80s36 79 80 79s79 -35 79 -79z" />
    <glyph glyph-name="questiondown" unicode="&#xbf;" horiz-adv-x="417" 
d="M-64 -119c0 171 192 195 240 340h66c0 -137 -187 -191 -187 -337c0 -60 31 -77 59 -77c39 0 81 33 81 82c0 24 -10 59 -38 67c17 28 45 42 73 42c39 0 76 -28 76 -84c0 -68 -56 -161 -215 -161c-122 0 -155 54 -155 128zM154 373c0 44 35 80 79 80s80 -36 80 -80
s-36 -79 -80 -79s-79 35 -79 79z" />
    <glyph glyph-name="quotedbl" unicode="&#x22;" horiz-adv-x="353" 
d="M93 561l61 189h105l-91 -189h-75zM250 561l61 189h105l-91 -189h-75z" />
    <glyph glyph-name="quotedblbase" unicode="&#x201e;" horiz-adv-x="440" 
d="M-10 76c0 38 32 70 73 70s64 -28 64 -66c0 -52 -45 -119 -121 -168c-7 4 -9 9 -9 14l49 70c0 6 -4 12 -12 17c-25 15 -44 35 -44 63zM210 76c0 38 32 70 73 70s64 -28 64 -66c0 -52 -45 -119 -121 -168c-7 4 -9 9 -9 14l49 70c0 6 -4 12 -12 17c-25 15 -44 35 -44 63z
" />
    <glyph glyph-name="quotedblleft" unicode="&#x201c;" horiz-adv-x="429" 
d="M450 584c0 -38 -32 -70 -73 -70s-64 28 -64 66c0 52 45 119 121 168c7 -4 9 -9 9 -14l-49 -70c0 -6 4 -12 12 -17c25 -15 44 -35 44 -63zM230 584c0 -38 -32 -70 -73 -70s-64 28 -64 66c0 52 45 119 121 168c7 -4 9 -9 9 -14l-49 -70c0 -6 4 -12 12 -17
c25 -15 44 -35 44 -63z" />
    <glyph glyph-name="quotedblright" unicode="&#x201d;" horiz-adv-x="426" 
d="M109 678c0 38 32 70 73 70s64 -28 64 -66c0 -52 -45 -119 -121 -168c-7 4 -9 9 -9 14l49 70c0 6 -4 12 -12 17c-25 15 -44 35 -44 63zM329 678c0 38 32 70 73 70s64 -28 64 -66c0 -52 -45 -119 -121 -168c-7 4 -9 9 -9 14l49 70c0 6 -4 12 -12 17c-25 15 -44 35 -44 63z
" />
    <glyph glyph-name="quoteleft" unicode="&#x2018;" horiz-adv-x="209" 
d="M230 584c0 -38 -32 -70 -73 -70s-64 28 -64 66c0 52 45 119 121 168c7 -4 9 -9 9 -14l-49 -70c0 -6 4 -12 12 -17c25 -15 44 -35 44 -63z" />
    <glyph glyph-name="quoteright" unicode="&#x2019;" horiz-adv-x="206" 
d="M109 678c0 38 32 70 73 70s64 -28 64 -66c0 -52 -45 -119 -121 -168c-7 4 -9 9 -9 14l49 70c0 6 -4 12 -12 17c-25 15 -44 35 -44 63z" />
    <glyph glyph-name="quotesinglbase" unicode="&#x201a;" horiz-adv-x="220" 
d="M-10 76c0 38 32 70 73 70s64 -28 64 -66c0 -52 -45 -119 -121 -168c-7 4 -9 9 -9 14l49 70c0 6 -4 12 -12 17c-25 15 -44 35 -44 63z" />
    <glyph glyph-name="quotesingle" unicode="'" horiz-adv-x="196" 
d="M93 561l61 189h105l-91 -189h-75z" />
    <glyph glyph-name="r" unicode="r" horiz-adv-x="376" 
d="M85 500h144l-14 -63c38 37 82 68 122 68c45 0 69 -37 69 -75c0 -35 -23 -73 -72 -73c-56 0 -28 63 -58 63c-25 0 -47 -16 -73 -40l-80 -380h-144z" />
    <glyph glyph-name="registered" unicode="&#xae;" horiz-adv-x="564" 
d="M285 79c-132 0 -242 113 -242 255c0 143 110 256 242 256s242 -112 242 -255s-110 -256 -242 -256zM89 334c0 -120 90 -213 198 -213c107 0 197 93 197 213s-90 213 -197 213c-108 0 -198 -93 -198 -213zM189 192l1 291h97c70 0 110 -30 110 -84c0 -37 -24 -67 -59 -77
l65 -125l-47 -7l-62 125h-59v-123h-46zM235 442v-89h45c29 0 71 7 71 44c0 35 -28 45 -61 45h-55z" />
    <glyph glyph-name="ring" unicode="&#x2da;" horiz-adv-x="156" 
d="M85 713c49 0 72 -34 72 -77c0 -44 -25 -84 -87 -84c-43 0 -70 32 -70 70c0 36 25 91 85 91zM120 633c0 19 -1 47 -33 47c-35 0 -47 -31 -47 -56c0 -22 10 -37 34 -37c31 0 46 18 46 46z" />
    <glyph glyph-name="s" unicode="s" horiz-adv-x="382" 
d="M399 179h42c-52 -60 -107 -98 -153 -125c-42 -44 -106 -60 -157 -60c-102 0 -146 67 -146 128c0 46 25 80 53 93c56 99 92 198 123 296l148 20c12 -259 22 -298 22 -364c0 -14 -1 -26 -4 -38c27 16 53 34 72 50zM109 179c0 -24 -18 -49 -44 -49c-10 0 -22 3 -27 13
c0 -47 17 -70 61 -70s87 23 87 93c0 52 -9 83 -19 237c-20 -65 -48 -125 -81 -189c13 -6 23 -18 23 -35z" />
    <glyph glyph-name="s.end" horiz-adv-x="390" 
d="M161 511l148 20c12 -259 22 -298 22 -364c0 -130 -118 -173 -200 -173c-102 0 -146 67 -146 128c0 46 25 80 53 93c56 99 92 198 123 296zM109 179c0 -24 -18 -49 -44 -49c-10 0 -22 3 -27 13c0 -47 17 -70 61 -70s87 23 87 93c0 52 -9 83 -19 237
c-20 -65 -48 -125 -81 -189c13 -6 23 -18 23 -35z" />
    <glyph glyph-name="sacute" unicode="&#x15b;" horiz-adv-x="382" 
d="M399 179h42c-52 -60 -107 -98 -153 -125c-42 -44 -106 -60 -157 -60c-102 0 -146 67 -146 128c0 46 25 80 53 93c56 99 92 198 123 296l148 20c12 -259 22 -298 22 -364c0 -14 -1 -26 -4 -38c27 16 53 34 72 50zM109 179c0 -24 -18 -49 -44 -49c-10 0 -22 3 -27 13
c0 -47 17 -70 61 -70s87 23 87 93c0 52 -9 83 -19 237c-20 -65 -48 -125 -81 -189c13 -6 23 -18 23 -35zM204 561l91 189h105l-121 -189h-75z" />
    <glyph glyph-name="scaron" unicode="&#x161;" horiz-adv-x="382" 
d="M399 179h42c-52 -60 -107 -98 -153 -125c-42 -44 -106 -60 -157 -60c-102 0 -146 67 -146 128c0 46 25 80 53 93c56 99 92 198 123 296l148 20c12 -259 22 -298 22 -364c0 -14 -1 -26 -4 -38c27 16 53 34 72 50zM109 179c0 -24 -18 -49 -44 -49c-10 0 -22 3 -27 13
c0 -47 17 -70 61 -70s87 23 87 93c0 52 -9 83 -19 237c-20 -65 -48 -125 -81 -189c13 -6 23 -18 23 -35zM155 750h32l60 -80l157 80h44l-212 -189h-21z" />
    <glyph glyph-name="section" unicode="&#xa7;" horiz-adv-x="521" 
d="M506 655c0 -46 -25 -81 -66 -81c-12 0 -25 3 -37 16c22 13 36 43 36 69c0 28 -17 54 -56 54c-54 0 -94 -51 -94 -107c0 -124 198 -138 198 -303c0 -76 -42 -152 -116 -167c0 -117 -81 -190 -217 -190c-59 0 -165 14 -165 131c0 73 42 123 96 123c40 0 62 -28 79 -50
c-59 -5 -81 -26 -81 -76s23 -78 77 -78s85 27 85 96c0 165 -180 176 -180 306c0 64 44 114 104 137c-3 13 -5 27 -5 42c0 119 111 173 212 173c37 0 130 -7 130 -95zM384 246c0 116 -135 150 -194 240c-11 -6 -19 -16 -19 -35c0 -83 162 -129 194 -268c12 15 19 38 19 63z
" />
    <glyph glyph-name="semicolon" unicode=";" horiz-adv-x="269" 
d="M59 331c0 44 35 80 79 80s80 -36 80 -80s-36 -79 -80 -79s-79 35 -79 79zM11 91c0 44 35 80 79 80s68 -32 68 -76c0 -60 -48 -148 -130 -205c-7 5 -9 11 -9 17c0 36 46 60 46 97c0 25 -54 35 -54 87z" />
    <glyph glyph-name="seven" unicode="7" horiz-adv-x="499" 
d="M578 732c0 -76 -301 -359 -301 -613c0 -38 5 -63 17 -112c-23 -11 -45 -16 -63 -16c-69 0 -102 50 -102 134c0 190 298 412 298 501c-35 8 -111 19 -161 19c-61 0 -116 -17 -121 -77c-36 1 -62 38 -62 91c0 76 53 90 118 90c86 0 205 -25 295 -25c26 0 53 2 82 8z" />
    <glyph glyph-name="six" unicode="6" horiz-adv-x="558" 
d="M274 302c-42 0 -50 25 -50 44c0 51 58 117 150 117c103 0 140 -83 140 -171c0 -146 -101 -298 -287 -298c-148 0 -186 83 -186 215c0 261 131 541 357 541c89 0 132 -41 132 -82c0 -29 -20 -72 -65 -72c-9 0 -15 2 -24 4c11 10 18 27 18 42c0 29 -26 48 -59 48
c-124 0 -223 -265 -223 -463c0 -104 27 -142 83 -142c101 0 139 125 139 201c0 71 -34 100 -68 100c-35 0 -60 -29 -60 -63c0 -7 1 -14 3 -21z" />
    <glyph glyph-name="slash" unicode="/" horiz-adv-x="217" 
d="M236 750l-212 -1000h-72l212 1000h72z" />
    <glyph glyph-name="space" unicode=" " horiz-adv-x="215" 
 />
    <glyph glyph-name="sterling" unicode="&#xa3;" horiz-adv-x="488" 
d="M420 423l6 -1c-11 -47 -85 -100 -161 -100h-16l-56 -231c70 9 126 -13 234 67c-10 -96 -50 -158 -104 -158h-295l86 358c-5 0 -11 1 -17 1c-26 0 -48 -9 -66 -26l-6 2c22 45 59 75 105 89l72 295l150 31l-80 -331c28 -9 53 -19 85 -19c25 0 49 8 63 23z" />
    <glyph glyph-name="t" unicode="t" horiz-adv-x="267" 
d="M115 638l148 20l-34 -158h60l-8 -40h-60l-64 -300c-3 -13 -4 -23 -4 -32c0 -28 13 -37 41 -37c39 0 75 38 90 88h42c-57 -163 -156 -185 -210 -185c-60 0 -107 36 -107 120c0 19 3 41 8 65l60 281h-33l8 40h33z" />
    <glyph glyph-name="t.end" horiz-adv-x="278" 
d="M225 460l-64 -300c-3 -12 -5 -24 -5 -35c0 -21 8 -36 35 -36c7 0 18 0 26 3c-28 -86 -72 -98 -106 -98c-70 0 -100 49 -100 113c0 17 2 35 6 53l64 300h-33l8 40h33l30 138l148 20s-15 -68 -34 -158h60l-8 -40h-60z" />
    <glyph glyph-name="thorn" unicode="&#xfe;" horiz-adv-x="473" 
d="M-75 -250l156 735c8 36 12 67 12 93c0 46 -13 82 -43 122h45c65 -36 126 -79 126 -192c0 -15 -1 -31 -4 -49c29 26 69 46 121 46c68 0 122 -39 122 -158c0 -135 -52 -353 -246 -353c-52 0 -76 18 -86 37l-52 -245zM183 81c105 0 140 175 140 269c0 77 -32 83 -50 83
c-22 0 -52 -18 -70 -52l-59 -275c4 -12 15 -25 39 -25z" />
    <glyph glyph-name="three" unicode="3" horiz-adv-x="540" 
d="M210 257c-72 0 -88 -56 -88 -95c0 -78 45 -88 86 -88c79 0 129 87 129 176c0 79 -40 157 -133 168c113 31 171 118 171 188c0 46 -25 83 -76 83c-48 0 -79 -25 -79 -72c0 -27 10 -63 38 -71c-25 -23 -52 -34 -76 -34c-40 0 -72 31 -72 85c0 91 91 152 207 152
c123 0 186 -68 186 -146c0 -66 -45 -140 -137 -186c88 -31 126 -100 126 -175c0 -116 -111 -248 -282 -248c-58 0 -199 17 -199 171c0 83 41 143 121 143c37 0 70 -13 78 -51z" />
    <glyph glyph-name="threequarters" unicode="&#xbe;" horiz-adv-x="778" 
d="M555 750l-264 -915h-72l264 915h72zM141 364c-47 -4 -51 -37 -51 -64c0 -36 21 -44 51 -44c42 0 71 46 71 94c0 41 -22 84 -75 101c67 16 99 69 99 107c0 24 -13 42 -37 42c-38 0 -52 -16 -52 -43c0 -13 6 -33 22 -37c-15 -13 -31 -19 -45 -19c-23 0 -41 17 -41 49
c0 37 38 79 125 79c67 0 102 -37 102 -79c0 -36 -25 -75 -79 -100c51 -15 72 -49 72 -88c0 -65 -63 -140 -149 -140c-47 0 -129 9 -129 87c0 51 24 82 69 82c26 0 42 -8 47 -27zM598 150h-141c20 59 84 144 84 223c0 11 -1 22 -4 33c34 0 65 -17 65 -51
c0 -69 -56 -115 -85 -166h90l47 206l86 11l-50 -217h38l-12 -39h-35l-34 -149h-83z" />
    <glyph glyph-name="threesuperior" unicode="&#xb3;" horiz-adv-x="350" 
d="M183 484c-47 -4 -51 -37 -51 -64c0 -36 21 -44 51 -44c42 0 71 46 71 94c0 41 -22 84 -75 101c67 16 99 69 99 107c0 24 -13 42 -37 42c-38 0 -52 -16 -52 -43c0 -13 6 -33 22 -37c-15 -13 -31 -19 -45 -19c-23 0 -41 17 -41 49c0 37 38 79 125 79c67 0 102 -37 102 -79
c0 -36 -25 -75 -79 -100c51 -15 72 -49 72 -88c0 -65 -63 -140 -149 -140c-47 0 -129 9 -129 87c0 51 24 82 69 82c26 0 42 -8 47 -27z" />
    <glyph glyph-name="tilde" unicode="&#x2dc;" horiz-adv-x="403" 
d="M433 670l6 -1c-11 -47 -85 -100 -161 -100c-66 0 -113 37 -168 37c-26 0 -48 -9 -66 -26l-6 2c32 64 91 98 167 98c73 0 107 -33 165 -33c25 0 49 8 63 23z" />
    <glyph glyph-name="trademark" unicode="&#x2122;" horiz-adv-x="493" 
d="M463 433h-43l27 156l-63 -156h-41v131l-40 -131h-24l68 210l41 6v-169l66 174h47zM237 628l-42 -195h-43l43 199c-34 -1 -60 -14 -60 -61c0 -15 3 -17 4 -20c-21 0 -32 8 -32 29c0 40 28 78 102 78c12 0 46 -5 75 -5c15 0 28 1 37 5c-2 -12 -8 -39 -25 -39
c-16 0 -37 6 -59 9z" />
    <glyph glyph-name="two" unicode="2" horiz-adv-x="529" 
d="M134 122c52 0 119 -18 186 -18c72 0 99 22 137 69c1 -16 1 -30 1 -44c0 -96 -20 -140 -126 -140c-93 0 -143 36 -241 36c-23 0 -59 -21 -79 -28c-2 11 -2 22 -2 33c0 213 329 330 329 570c0 62 -22 89 -72 89c-56 0 -70 -36 -70 -72c0 -28 9 -62 38 -71
c-23 -21 -51 -34 -76 -34c-39 0 -72 28 -72 87c0 72 55 150 206 150c137 0 190 -64 190 -162c0 -227 -287 -325 -361 -466c4 0 8 1 12 1z" />
    <glyph glyph-name="twosuperior" unicode="&#xb2;" horiz-adv-x="349" 
d="M141 416c37 0 74 -10 113 -10c38 0 48 14 75 38c0 -69 -1 -105 -69 -105c-63 0 -84 20 -143 20c-14 0 -35 -12 -46 -16c-1 6 -2 12 -2 18c0 118 191 171 191 315c0 26 -18 44 -35 44c-39 0 -47 -16 -47 -43c0 -13 6 -33 22 -37c-15 -13 -31 -19 -45 -19
c-23 0 -41 17 -41 49c0 37 32 79 120 79c79 0 110 -34 110 -86c0 -121 -159 -174 -207 -247h4z" />
    <glyph glyph-name="u" unicode="u" horiz-adv-x="505" 
d="M332 500h144l-72 -340c-3 -13 -4 -23 -4 -32c0 -28 13 -37 41 -37c39 0 66 38 81 88h42c-57 -163 -147 -185 -201 -185c-57 0 -93 33 -99 95c-50 -82 -106 -95 -148 -95c-60 0 -107 36 -107 120c0 19 3 41 8 65l68 321h144l-72 -340c-2 -10 -3 -19 -3 -28
c0 -23 8 -41 30 -41c39 0 65 38 80 88z" />
    <glyph glyph-name="u.end" horiz-adv-x="525" 
d="M85 500h144l-72 -340c-2 -8 -3 -17 -3 -25c0 -23 7 -44 30 -44c39 0 65 38 80 88l68 321h144l-72 -340c-3 -13 -4 -23 -4 -32c0 -28 13 -37 41 -37c19 0 24 3 33 6c-5 -72 -57 -103 -111 -103c-55 0 -91 36 -98 95c-50 -82 -107 -95 -149 -95c-60 0 -107 36 -107 120
c0 19 3 41 8 65z" />
    <glyph glyph-name="u_x.end" horiz-adv-x="894" 
d="M85 500h144l-72 -340c-2 -8 -3 -17 -3 -25c0 -23 7 -44 30 -44c39 0 65 38 80 88l68 321h144l-72 -340c-2 -9 -3 -17 -3 -25c0 -25 10 -44 43 -44c52 0 118 43 160 94l-58 315h141l39 -216c59 64 95 123 95 159c0 4 0 8 -1 12c-6 -1 -12 -2 -17 -2c-35 0 -47 25 -47 56
c0 30 25 47 56 47c45 0 68 -40 68 -89c0 -65 -45 -134 -143 -238l9 -50c11 -59 19 -88 63 -88c18 0 26 3 32 6c-5 -71 -56 -97 -110 -97c-63 0 -93 34 -116 128c-75 -95 -154 -134 -235 -134c-55 0 -105 36 -115 96c-50 -83 -107 -96 -149 -96c-60 0 -107 38 -107 121
c0 19 3 40 8 64z" />
    <glyph glyph-name="uacute" unicode="&#xfa;" horiz-adv-x="505" 
d="M332 500h144l-72 -340c-3 -13 -4 -23 -4 -32c0 -28 13 -37 41 -37c39 0 66 38 81 88h42c-57 -163 -147 -185 -201 -185c-57 0 -93 33 -99 95c-50 -82 -106 -95 -148 -95c-60 0 -107 36 -107 120c0 19 3 41 8 65l68 321h144l-72 -340c-2 -10 -3 -19 -3 -28
c0 -23 8 -41 30 -41c39 0 65 38 80 88zM256 561l91 189h105l-121 -189h-75z" />
    <glyph glyph-name="uacute.end" horiz-adv-x="525" 
d="M85 500h144l-72 -340c-2 -8 -3 -17 -3 -25c0 -23 7 -44 30 -44c39 0 65 38 80 88l68 321h144l-72 -340c-3 -13 -4 -23 -4 -32c0 -28 13 -37 41 -37c19 0 24 3 33 6c-5 -72 -57 -103 -111 -103c-55 0 -91 36 -98 95c-50 -82 -107 -95 -149 -95c-60 0 -107 36 -107 120
c0 19 3 41 8 65zM236 561l91 189h105l-121 -189h-75z" />
    <glyph glyph-name="ucircumflex" unicode="&#xfb;" horiz-adv-x="505" 
d="M332 500h144l-72 -340c-3 -13 -4 -23 -4 -32c0 -28 13 -37 41 -37c39 0 66 38 81 88h42c-57 -163 -147 -185 -201 -185c-57 0 -93 33 -99 95c-50 -82 -106 -95 -148 -95c-60 0 -107 36 -107 120c0 19 3 41 8 65l68 321h144l-72 -340c-2 -10 -3 -19 -3 -28
c0 -23 8 -41 30 -41c39 0 65 38 80 88zM436 561h-32l-60 80l-157 -80h-44l212 189h21z" />
    <glyph glyph-name="udieresis" unicode="&#xfc;" horiz-adv-x="505" 
d="M332 500h144l-72 -340c-3 -13 -4 -23 -4 -32c0 -28 13 -37 41 -37c39 0 66 38 81 88h42c-57 -163 -147 -185 -201 -185c-57 0 -93 33 -99 95c-50 -82 -106 -95 -148 -95c-60 0 -107 36 -107 120c0 19 3 41 8 65l68 321h144l-72 -340c-2 -10 -3 -19 -3 -28
c0 -23 8 -41 30 -41c39 0 65 38 80 88zM333 634c0 33 27 61 61 61c33 0 61 -28 61 -61c0 -34 -28 -61 -61 -61c-34 0 -61 27 -61 61zM153 634c0 33 27 61 61 61c33 0 61 -28 61 -61c0 -34 -28 -61 -61 -61c-34 0 -61 27 -61 61z" />
    <glyph glyph-name="ugrave" unicode="&#xf9;" horiz-adv-x="505" 
d="M332 500h144l-72 -340c-3 -13 -4 -23 -4 -32c0 -28 13 -37 41 -37c39 0 66 38 81 88h42c-57 -163 -147 -185 -201 -185c-57 0 -93 33 -99 95c-50 -82 -106 -95 -148 -95c-60 0 -107 36 -107 120c0 19 3 41 8 65l68 321h144l-72 -340c-2 -10 -3 -19 -3 -28
c0 -23 8 -41 30 -41c39 0 65 38 80 88zM261 561l-59 189h105l29 -189h-75z" />
    <glyph glyph-name="uhungarumlaut" unicode="&#x171;" horiz-adv-x="505" 
d="M332 500h144l-72 -340c-3 -13 -4 -23 -4 -32c0 -28 13 -37 41 -37c39 0 66 38 81 88h42c-57 -163 -147 -185 -201 -185c-57 0 -93 33 -99 95c-50 -82 -106 -95 -148 -95c-60 0 -107 36 -107 120c0 19 3 41 8 65l68 321h144l-72 -340c-2 -10 -3 -19 -3 -28
c0 -23 8 -41 30 -41c39 0 65 38 80 88zM313 561l91 189h95l-121 -189h-65zM183 561l91 189h95l-121 -189h-65z" />
    <glyph glyph-name="underscore" unicode="_" horiz-adv-x="443" 
d="M347 79l-17 -79h-351l18 79h350z" />
    <glyph glyph-name="uni00AD" unicode="&#xad;" horiz-adv-x="321" 
d="M257 301l-17 -79h-201l18 79h200z" />
    <glyph glyph-name="v" unicode="v" horiz-adv-x="414" 
d="M353 520c48 0 63 -43 63 -87c0 -160 -81 -439 -285 -439c-76 0 -123 39 -123 118c0 11 1 29 5 48l72 340h144l-72 -340c-3 -14 -5 -27 -5 -36c0 -20 10 -33 34 -33c98 0 173 224 173 334c-3 -7 -24 -10 -32 -10c-24 0 -36 29 -36 51c0 31 20 54 62 54z" />
    <glyph glyph-name="w" unicode="w" horiz-adv-x="661" 
d="M85 500h144l-72 -340c-2 -8 -3 -17 -3 -25c0 -23 7 -44 30 -44c39 0 65 38 80 88l68 321h144l-72 -340c-3 -14 -5 -27 -5 -36c0 -20 10 -33 34 -33c98 0 173 224 173 334c-3 -7 -24 -10 -32 -10c-24 0 -36 29 -36 51c0 31 20 54 62 54c48 0 63 -43 63 -87
c0 -160 -81 -439 -285 -439c-65 0 -108 28 -120 84c-49 -72 -102 -84 -142 -84c-60 0 -107 36 -107 120c0 19 3 41 8 65z" />
    <glyph glyph-name="x" unicode="x" horiz-adv-x="522" 
d="M378 248l9 -70c8 -65 27 -87 62 -87c39 0 75 38 90 88h42c-54 -155 -146 -185 -204 -185c-59 0 -102 52 -122 174l-138 -168h-72l202 228l-16 112c-10 67 -20 83 -38 83c-39 0 -99 -79 -134 -244h-42c31 148 102 326 236 326c80 0 102 -68 108 -119l9 -76
c55 62 85 107 87 144c-6 -1 -12 -2 -17 -2c-35 0 -47 25 -47 56c0 34 32 49 68 49c37 0 56 -48 56 -91c0 -63 -46 -116 -139 -218z" />
    <glyph glyph-name="x.end" horiz-adv-x="538" 
d="M383 254l13 -76c11 -65 23 -87 58 -87c19 0 26 2 37 6c-5 -73 -63 -103 -118 -103c-59 0 -98 52 -118 174l-138 -168h-72l202 228l-16 112c-10 67 -20 83 -38 83c-39 0 -99 -79 -134 -244h-42c31 148 102 326 236 326c80 0 99 -68 108 -119l12 -73c53 61 82 104 84 141
c-6 -1 -12 -2 -17 -2c-35 0 -47 25 -47 56c0 34 32 49 68 49c37 0 56 -48 56 -91c0 -62 -44 -114 -134 -212z" />
    <glyph glyph-name="y" unicode="y" horiz-adv-x="486" 
d="M332 500h144l-99 -464c61 22 98 56 126 143h42c-39 -132 -115 -170 -177 -187l-15 -72c-30 -143 -114 -170 -180 -170c-61 0 -112 32 -112 97c0 84 88 126 163 149l12 54c-42 -47 -86 -56 -120 -56c-60 0 -107 36 -107 120c0 19 3 41 8 65l68 321h144l-72 -340
c-2 -8 -3 -17 -3 -25c0 -23 7 -44 30 -44c37 0 63 35 78 82zM116 -139c0 -14 12 -33 34 -33c21 0 45 30 58 89l6 29c-51 -19 -98 -45 -98 -85z" />
    <glyph glyph-name="y.end" horiz-adv-x="484" 
d="M85 500h144l-72 -340c-2 -8 -3 -17 -3 -25c0 -23 7 -44 30 -44c39 0 65 38 80 88l68 321h145l-122 -580c-30 -143 -116 -170 -182 -170c-61 0 -118 43 -118 108c0 93 78 122 173 150l10 44c-43 -49 -88 -58 -122 -58c-60 0 -107 36 -107 120c0 19 3 41 8 65zM110 -128
c0 -14 18 -33 40 -33c20 0 46 19 59 78l12 59c-63 -21 -111 -50 -111 -104z" />
    <glyph glyph-name="yacute" unicode="&#xfd;" horiz-adv-x="486" 
d="M332 500h144l-99 -464c61 22 98 56 126 143h42c-39 -132 -115 -170 -177 -187l-15 -72c-30 -143 -114 -170 -180 -170c-61 0 -112 32 -112 97c0 84 88 126 163 149l12 54c-42 -47 -86 -56 -120 -56c-60 0 -107 36 -107 120c0 19 3 41 8 65l68 321h144l-72 -340
c-2 -8 -3 -17 -3 -25c0 -23 7 -44 30 -44c37 0 63 35 78 82zM255 561l91 189h105l-121 -189h-75zM116 -139c0 -14 12 -33 34 -33c21 0 45 30 58 89l6 29c-51 -19 -98 -45 -98 -85z" />
    <glyph glyph-name="ydieresis" unicode="&#xff;" horiz-adv-x="486" 
d="M332 500h144l-99 -464c61 22 98 56 126 143h42c-39 -132 -115 -170 -177 -187l-15 -72c-30 -143 -114 -170 -180 -170c-61 0 -112 32 -112 97c0 84 88 126 163 149l12 54c-42 -47 -86 -56 -120 -56c-60 0 -107 36 -107 120c0 19 3 41 8 65l68 321h144l-72 -340
c-2 -8 -3 -17 -3 -25c0 -23 7 -44 30 -44c37 0 63 35 78 82zM140 634c0 33 27 61 61 61c33 0 61 -28 61 -61c0 -34 -28 -61 -61 -61c-34 0 -61 27 -61 61zM320 634c0 33 27 61 61 61c33 0 61 -28 61 -61c0 -34 -28 -61 -61 -61c-34 0 -61 27 -61 61zM116 -139
c0 -14 12 -33 34 -33c21 0 45 30 58 89l6 29c-51 -19 -98 -45 -98 -85z" />
    <glyph glyph-name="yen" unicode="&#xa5;" horiz-adv-x="558" 
d="M379 307h131l-14 -50h-128l-14 -65h131l-14 -50h-128l-30 -142h-160l30 142h-99l14 50h96l14 65h-99l14 50h96l-112 443h164l88 -361l150 361h66z" />
    <glyph glyph-name="z" unicode="z" horiz-adv-x="428" 
d="M323 91c-13 1 -19 10 -19 21c0 18 19 43 56 43c30 0 44 -21 44 -48c0 -46 -45 -107 -122 -107h-265l255 446h-56c-31 0 -55 -2 -55 -16c0 -5 11 1 11 -22c0 -37 -28 -53 -54 -53c-23 0 -46 15 -46 44c0 41 45 101 116 101h257l-245 -423c17 -1 49 -6 76 -6
c24 0 44 4 47 20z" />
    <glyph glyph-name="zacute" unicode="&#x17a;" horiz-adv-x="428" 
d="M323 91c-13 1 -19 10 -19 21c0 18 19 43 56 43c30 0 44 -21 44 -48c0 -46 -45 -107 -122 -107h-265l255 446h-56c-31 0 -55 -2 -55 -16c0 -5 11 1 11 -22c0 -37 -28 -53 -54 -53c-23 0 -46 15 -46 44c0 41 45 101 116 101h257l-245 -423c17 -1 49 -6 76 -6
c24 0 44 4 47 20zM250 561l91 189h105l-121 -189h-75z" />
    <glyph glyph-name="zcaron" unicode="&#x17e;" horiz-adv-x="428" 
d="M323 91c-13 1 -19 10 -19 21c0 18 19 43 56 43c30 0 44 -21 44 -48c0 -46 -45 -107 -122 -107h-265l255 446h-56c-31 0 -55 -2 -55 -16c0 -5 11 1 11 -22c0 -37 -28 -53 -54 -53c-23 0 -46 15 -46 44c0 41 45 101 116 101h257l-245 -423c17 -1 49 -6 76 -6
c24 0 44 4 47 20zM204 750h32l60 -80l157 80h44l-212 -189h-21z" />
    <glyph glyph-name="zdotaccent" unicode="&#x17c;" horiz-adv-x="428" 
d="M358 634c0 -34 -28 -61 -61 -61c-34 0 -61 27 -61 61c0 33 27 61 61 61c33 0 61 -28 61 -61zM323 91c-13 1 -19 10 -19 21c0 18 19 43 56 43c30 0 44 -21 44 -48c0 -46 -45 -107 -122 -107h-265l255 446h-56c-31 0 -55 -2 -55 -16c0 -5 11 1 11 -22
c0 -37 -28 -53 -54 -53c-23 0 -46 15 -46 44c0 41 45 101 116 101h257l-245 -423c17 -1 49 -6 76 -6c24 0 44 4 47 20z" />
    <glyph glyph-name="zero" unicode="0" horiz-adv-x="598" 
d="M389 750c132 0 185 -93 185 -249c0 -210 -97 -507 -339 -507c-151 0 -186 114 -186 255c0 277 134 501 340 501zM201 220c0 -63 12 -133 67 -133c104 0 175 242 175 469c0 69 -7 124 -51 124c-105 0 -191 -233 -191 -460z" />
    </font>
</defs>
</svg>
