<?xml version="1.0" standalone="no"?>
<!DOCTYPE svg PUBLIC "-//W3C//DTD SVG 1.1//EN" "http://www.w3.org/Graphics/SVG/1.1/DTD/svg11.dtd" >
<svg xmlns="http://www.w3.org/2000/svg" xmlns:xlink="http://www.w3.org/1999/xlink" version="1.1">
<metadata>
Created by FontForge 20230101 at Tue Dec 13 05:26:42 2016
 By Glenn Lewis
Copyright 2011 The Old Standard Project Authors (amkryukov@gmail.com)
</metadata>
<defs>
<font id="OldStandardTT-Regular" horiz-adv-x="0" >
  <font-face 
    font-family="Old Standard TT"
    font-weight="400"
    font-stretch="normal"
    units-per-em="1000"
    panose-1="0 0 5 0 0 0 0 0 0 0"
    ascent="762"
    descent="-238"
    x-height="456"
    cap-height="712"
    bbox="-820 -294 1386 1100"
    underline-thickness="50"
    underline-position="-100"
    unicode-range="U+000D-FB02"
  />
<missing-glyph horiz-adv-x="500" 
d="M410 762v-1000h-317v1000h317zM333 695h-165v-33h65v-37h-66v-33h166v33h-66v37h66v33zM267 566h-100v-104h166v34h-66v70zM233 532v-36h-33v36h33zM333 435h-166v-33h66v-37h-66v-33h100v70h66v33zM333 375h-33v-66h-133v-34h166v100zM333 253h-100v-56h34v23h33v-47
h-100v80h-33v-113h166v113zM333 80h-166v-113h166v113zM300 47v-47h-100v47h100zM333 -56h-166v-33h70l-70 -47v-33h166v33h-102l70 47h32v33z" />
    <glyph glyph-name="fi" unicode="fi" horiz-adv-x="530" 
d="M28 24h52q12 0 17 5t5 17v382h-74v28h74v36q0 74 30.5 125.5t78 77t97.5 25.5q66 0 100 -32t34 -75q0 -30 -15.5 -46.5t-39.5 -16.5q-21 0 -34 11.5t-13 32.5q0 20 13 35q11 11 11 24q0 21 -18.5 32t-47.5 11q-26 0 -55 -18t-49 -57.5t-20 -100.5v-64h260v-410
q0 -12 5 -17t17 -5h42v-24h-200v24h42q12 0 17 5t5 17v360q0 12 -5 17t-17 5h-166v-382q0 -12 5 -17t17 -5h42v-24h-210v24z" />
    <glyph glyph-name="fl" unicode="fl" horiz-adv-x="530" 
d="M28 24h52q12 0 17 5t5 17v382h-74v28h74v36q0 74 30.5 125.5t78 77t97.5 25.5q27 0 55 -8h71v-666q0 -12 5 -17t17 -5h52v-24h-210v24h42q12 0 17 5t5 17v382h-188v-382q0 -12 5 -17t17 -5h42v-24h-210v24zM362 456v101q-10 1 -16 12.5t-6 26.5q0 19 16 37q8 8 8 23
q0 16 -14.5 28t-51.5 12q-26 0 -55 -18t-49 -57.5t-20 -100.5v-64h188z" />
    <glyph glyph-name=".notdef" horiz-adv-x="500" 
d="M410 762v-1000h-317v1000h317zM333 695h-165v-33h65v-37h-66v-33h166v33h-66v37h66v33zM267 566h-100v-104h166v34h-66v70zM233 532v-36h-33v36h33zM333 435h-166v-33h66v-37h-66v-33h100v70h66v33zM333 375h-33v-66h-133v-34h166v100zM333 253h-100v-56h34v23h33v-47
h-100v80h-33v-113h166v113zM333 80h-166v-113h166v113zM300 47v-47h-100v47h100zM333 -56h-166v-33h70l-70 -47v-33h166v33h-102l70 47h32v33z" />
    <glyph glyph-name="NULL" 
 />
    <glyph glyph-name="nonmarkingreturn" unicode="&#xd;" horiz-adv-x="280" 
 />
    <glyph glyph-name="space" unicode=" " horiz-adv-x="280" 
 />
    <glyph glyph-name="A" unicode="A" horiz-adv-x="764" 
d="M46 32h37q59 0 86 73l215 607h25l217 -636q10 -25 24 -34.5t36 -9.5h56v-32h-310v32h66q15 0 25 7.5t10 17.5q0 13 -4 22l-47 133h-234l-24 -67q-14 -40 -14 -58q0 -22 11 -38.5t38 -16.5h61v-32h-274v32zM259 244h212l-104 305z" />
    <glyph glyph-name="Aacute" unicode="&#xc1;" horiz-adv-x="764" 
d="M371 773l92 133q13 18 24 25t25 7q13 0 20.5 -8.5t7.5 -22.5q0 -23 -28 -44l-128 -101zM46 32h37q59 0 86 73l215 607h25l217 -636q10 -25 24 -34.5t36 -9.5h56v-32h-310v32h66q15 0 25 7.5t10 17.5q0 13 -4 22l-47 133h-234l-24 -67q-14 -40 -14 -58q0 -22 11 -38.5
t38 -16.5h61v-32h-274v32zM259 244h212l-104 305z" />
    <glyph glyph-name="Abreve" unicode="&#x102;" horiz-adv-x="764" 
d="M46 32h37q59 0 86 73l215 607h25l217 -636q10 -25 24 -34.5t36 -9.5h56v-32h-310v32h66q15 0 25 7.5t10 17.5q0 13 -4 22l-47 133h-234l-24 -67q-14 -40 -14 -58q0 -22 11 -38.5t38 -16.5h61v-32h-274v32zM259 244h212l-104 305zM312.5 786.5q-34.5 24.5 -51 60.5
t-16.5 69h28q9 -42 40.5 -75t82.5 -33t82.5 33t40.5 75h28q0 -33 -16.5 -69t-51 -60.5t-83.5 -24.5t-83.5 24.5z" />
    <glyph glyph-name="uni1EAE" unicode="&#x1eae;" horiz-adv-x="764" 
d="M383 926l92 133q13 18 24 25t25 7q13 0 20.5 -8.5t7.5 -22.5q0 -23 -28 -44l-128 -101zM320.5 805.5q-31.5 23.5 -47 56.5t-15.5 60h22q6 -40 33.5 -70t82.5 -30t82.5 30t33.5 70h22q0 -27 -15.5 -60t-47 -56.5t-75.5 -23.5t-75.5 23.5zM46 32h37q59 0 86 73l215 607h25
l217 -636q10 -25 24 -34.5t36 -9.5h56v-32h-310v32h66q15 0 25 7.5t10 17.5q0 13 -4 22l-47 133h-234l-24 -67q-14 -40 -14 -58q0 -22 11 -38.5t38 -16.5h61v-32h-274v32zM259 244h212l-104 305z" />
    <glyph glyph-name="uni1EB6" unicode="&#x1eb6;" horiz-adv-x="764" 
d="M46 32h37q59 0 86 73l215 607h25l217 -636q10 -25 24 -34.5t36 -9.5h56v-32h-310v32h66q15 0 25 7.5t10 17.5q0 13 -4 22l-47 133h-234l-24 -67q-14 -40 -14 -58q0 -22 11 -38.5t38 -16.5h61v-32h-274v32zM259 244h212l-104 305zM344.5 -179.5q-14.5 14.5 -14.5 37.5
q0 22 14.5 37t37.5 15q22 0 37 -15t15 -37q0 -23 -15 -37.5t-37 -14.5q-23 0 -37.5 14.5zM312.5 786.5q-34.5 24.5 -51 60.5t-16.5 69h28q9 -42 40.5 -75t82.5 -33t82.5 33t40.5 75h28q0 -33 -16.5 -69t-51 -60.5t-83.5 -24.5t-83.5 24.5z" />
    <glyph glyph-name="uni1EB0" unicode="&#x1eb0;" horiz-adv-x="764" 
d="M261 1022q-28 21 -28 44q0 14 7.5 22.5t20.5 8.5q14 0 25 -7t24 -25l92 -133l-13 -11zM320.5 805.5q-31.5 23.5 -47 56.5t-15.5 60h22q6 -40 33.5 -70t82.5 -30t82.5 30t33.5 70h22q0 -27 -15.5 -60t-47 -56.5t-75.5 -23.5t-75.5 23.5zM46 32h37q59 0 86 73l215 607h25
l217 -636q10 -25 24 -34.5t36 -9.5h56v-32h-310v32h66q15 0 25 7.5t10 17.5q0 13 -4 22l-47 133h-234l-24 -67q-14 -40 -14 -58q0 -22 11 -38.5t38 -16.5h61v-32h-274v32zM259 244h212l-104 305z" />
    <glyph glyph-name="uni1EB2" unicode="&#x1eb2;" horiz-adv-x="764" 
d="M46 32h37q59 0 86 73l215 607h25l217 -636q10 -25 24 -34.5t36 -9.5h56v-32h-310v32h66q15 0 25 7.5t10 17.5q0 13 -4 22l-47 133h-234l-24 -67q-14 -40 -14 -58q0 -22 11 -38.5t38 -16.5h61v-32h-274v32zM259 244h212l-104 305zM320.5 805.5q-31.5 23.5 -47 56.5
t-15.5 60h22q6 -40 33.5 -70t82.5 -30t82.5 30t33.5 70h22q0 -27 -15.5 -60t-47 -56.5t-75.5 -23.5t-75.5 23.5zM413 971q27 23 27 58q0 24 -13.5 40t-40.5 16q-21 0 -37.5 -11t-16.5 -25q0 -10 3 -13q1 -1 2.5 -2t2.5 0q1 -1 4 1q3 1 4.5 0.5t3.5 0.5q8 -1 13 -6t5 -13
q0 -9 -7 -15.5t-20 -6.5q-12 0 -22 11t-10 29q0 27 24.5 45.5t54.5 19.5q38 -1 64.5 -19.5t26.5 -51.5q0 -27 -17 -46t-51 -43h-35z" />
    <glyph glyph-name="uni1EB4" unicode="&#x1eb4;" horiz-adv-x="764" 
d="M46 32h37q59 0 86 73l215 607h25l217 -636q10 -25 24 -34.5t36 -9.5h56v-32h-310v32h66q15 0 25 7.5t10 17.5q0 13 -4 22l-47 133h-234l-24 -67q-14 -40 -14 -58q0 -22 11 -38.5t38 -16.5h61v-32h-274v32zM259 244h212l-104 305zM320.5 805.5q-31.5 23.5 -47 56.5
t-15.5 60h22q6 -40 33.5 -70t82.5 -30t82.5 30t33.5 70h22q0 -27 -15.5 -60t-47 -56.5t-75.5 -23.5t-75.5 23.5zM262 956q6 36 28 62t58 26q19 0 36 -5.5t39 -14.5q19 -8 32 -12t28 -4q34 0 46 42l17 -4q-6 -36 -28 -62t-58 -26q-19 0 -36 5.5t-39 14.5q-19 8 -32 12t-28 4
q-34 0 -46 -42z" />
    <glyph glyph-name="Acircumflex" unicode="&#xc2;" horiz-adv-x="764" 
d="M238 778q91 52 138 142h40q47 -90 138 -142l-10 -16q-26 9 -71.5 38.5t-76.5 57.5q-31 -28 -76.5 -57.5t-71.5 -38.5zM46 32h37q59 0 86 73l215 607h25l217 -636q10 -25 24 -34.5t36 -9.5h56v-32h-310v32h66q15 0 25 7.5t10 17.5q0 13 -4 22l-47 133h-234l-24 -67
q-14 -40 -14 -58q0 -22 11 -38.5t38 -16.5h61v-32h-274v32zM259 244h212l-104 305z" />
    <glyph glyph-name="uni1EA4" unicode="&#x1ea4;" horiz-adv-x="764" 
d="M46 32h37q59 0 86 73l215 607h25l217 -636q10 -25 24 -34.5t36 -9.5h56v-32h-310v32h66q15 0 25 7.5t10 17.5q0 13 -4 22l-47 133h-234l-24 -67q-14 -40 -14 -58q0 -22 11 -38.5t38 -16.5h61v-32h-274v32zM259 244h212l-104 305zM265 777q75 49 111 151h40
q36 -102 111 -151l-9 -13q-69 36 -122 92q-54 -57 -122 -92zM499 866l92 133q13 18 24 25t25 7q13 0 20.5 -8.5t7.5 -22.5q0 -23 -28 -44l-128 -101z" />
    <glyph glyph-name="uni1EAC" unicode="&#x1eac;" horiz-adv-x="764" 
d="M46 32h37q59 0 86 73l215 607h25l217 -636q10 -25 24 -34.5t36 -9.5h56v-32h-310v32h66q15 0 25 7.5t10 17.5q0 13 -4 22l-47 133h-234l-24 -67q-14 -40 -14 -58q0 -22 11 -38.5t38 -16.5h61v-32h-274v32zM259 244h212l-104 305zM344.5 -179.5q-14.5 14.5 -14.5 37.5
q0 22 14.5 37t37.5 15q22 0 37 -15t15 -37q0 -23 -15 -37.5t-37 -14.5q-23 0 -37.5 14.5zM238 778q91 52 138 142h40q47 -90 138 -142l-10 -16q-26 9 -71.5 38.5t-76.5 57.5q-31 -28 -76.5 -57.5t-71.5 -38.5z" />
    <glyph glyph-name="uni1EA6" unicode="&#x1ea6;" horiz-adv-x="764" 
d="M46 32h37q59 0 86 73l215 607h25l217 -636q10 -25 24 -34.5t36 -9.5h56v-32h-310v32h66q15 0 25 7.5t10 17.5q0 13 -4 22l-47 133h-234l-24 -67q-14 -40 -14 -58q0 -22 11 -38.5t38 -16.5h61v-32h-274v32zM259 244h212l-104 305zM265 777q75 49 111 151h40
q36 -102 111 -151l-9 -13q-69 36 -122 92q-54 -57 -122 -92zM375 1014q-28 21 -28 44q0 14 7.5 22.5t20.5 8.5q14 0 25 -7t24 -25l92 -133l-13 -11z" />
    <glyph glyph-name="uni1EA8" unicode="&#x1ea8;" horiz-adv-x="764" 
d="M46 32h37q59 0 86 73l215 607h25l217 -636q10 -25 24 -34.5t36 -9.5h56v-32h-310v32h66q15 0 25 7.5t10 17.5q0 13 -4 22l-47 133h-234l-24 -67q-14 -40 -14 -58q0 -22 11 -38.5t38 -16.5h61v-32h-274v32zM259 244h212l-104 305zM265 777q75 49 111 151h40
q36 -102 111 -151l-9 -13q-69 36 -122 92q-54 -57 -122 -92zM517 938q27 23 27 58q0 24 -13.5 40t-40.5 16q-21 0 -37.5 -11t-16.5 -25q0 -10 3 -13q1 -1 2.5 -2t2.5 0q1 -1 4 1q3 1 4.5 0.5t3.5 0.5q8 -1 13 -6t5 -13q0 -9 -7 -15.5t-20 -6.5q-12 0 -22 11t-10 29
q0 27 24.5 45.5t54.5 19.5q38 -1 64.5 -19.5t26.5 -51.5q0 -27 -17 -46t-51 -43h-35z" />
    <glyph glyph-name="uni1EAA" unicode="&#x1eaa;" horiz-adv-x="764" 
d="M46 32h37q59 0 86 73l215 607h25l217 -636q10 -25 24 -34.5t36 -9.5h56v-32h-310v32h66q15 0 25 7.5t10 17.5q0 13 -4 22l-47 133h-234l-24 -67q-14 -40 -14 -58q0 -22 11 -38.5t38 -16.5h61v-32h-274v32zM259 244h212l-104 305zM265 777q75 49 111 151h40
q36 -102 111 -151l-9 -13q-69 36 -122 92q-54 -57 -122 -92zM276 959q6 36 28 62t58 26q19 0 36 -5.5t39 -14.5q19 -8 32 -12t28 -4q34 0 46 42l17 -4q-6 -36 -28 -62t-58 -26q-19 0 -36 5.5t-39 14.5q-19 8 -32 12t-28 4q-34 0 -46 -42z" />
    <glyph glyph-name="uni0200" unicode="&#x200;" horiz-adv-x="764" 
d="M212 863q-28 21 -28 44q0 14 7.5 22.5t20.5 8.5q14 0 25 -7t24 -25l92 -133l-13 -11zM348 863q-28 21 -28 44q0 14 7.5 22.5t20.5 8.5q14 0 25 -7t24 -25l92 -133l-13 -11zM46 32h37q59 0 86 73l215 607h25l217 -636q10 -25 24 -34.5t36 -9.5h56v-32h-310v32h66
q15 0 25 7.5t10 17.5q0 13 -4 22l-47 133h-234l-24 -67q-14 -40 -14 -58q0 -22 11 -38.5t38 -16.5h61v-32h-274v32zM259 244h212l-104 305z" />
    <glyph glyph-name="Adieresis" unicode="&#xc4;" horiz-adv-x="764" 
d="M257 813q-15 15 -15 37q0 23 15 37.5t37 14.5q23 0 37.5 -14.5t14.5 -37.5q0 -22 -14.5 -37t-37.5 -15q-22 0 -37 15zM461 813q-15 15 -15 37q0 23 15 37.5t37 14.5q23 0 37.5 -14.5t14.5 -37.5q0 -22 -14.5 -37t-37.5 -15q-22 0 -37 15zM46 32h37q59 0 86 73l215 607h25
l217 -636q10 -25 24 -34.5t36 -9.5h56v-32h-310v32h66q15 0 25 7.5t10 17.5q0 13 -4 22l-47 133h-234l-24 -67q-14 -40 -14 -58q0 -22 11 -38.5t38 -16.5h61v-32h-274v32zM259 244h212l-104 305z" />
    <glyph glyph-name="uni1EA0" unicode="&#x1ea0;" horiz-adv-x="764" 
d="M46 32h37q59 0 86 73l215 607h25l217 -636q10 -25 24 -34.5t36 -9.5h56v-32h-310v32h66q15 0 25 7.5t10 17.5q0 13 -4 22l-47 133h-234l-24 -67q-14 -40 -14 -58q0 -22 11 -38.5t38 -16.5h61v-32h-274v32zM259 244h212l-104 305zM344.5 -179.5q-14.5 14.5 -14.5 37.5
q0 22 14.5 37t37.5 15q22 0 37 -15t15 -37q0 -23 -15 -37.5t-37 -14.5q-23 0 -37.5 14.5z" />
    <glyph glyph-name="Agrave" unicode="&#xc0;" horiz-adv-x="764" 
d="M280 863q-28 21 -28 44q0 14 7.5 22.5t20.5 8.5q14 0 25 -7t24 -25l92 -133l-13 -11zM46 32h37q59 0 86 73l215 607h25l217 -636q10 -25 24 -34.5t36 -9.5h56v-32h-310v32h66q15 0 25 7.5t10 17.5q0 13 -4 22l-47 133h-234l-24 -67q-14 -40 -14 -58q0 -22 11 -38.5
t38 -16.5h61v-32h-274v32zM259 244h212l-104 305z" />
    <glyph glyph-name="uni1EA2" unicode="&#x1ea2;" horiz-adv-x="764" 
d="M46 32h37q59 0 86 73l215 607h25l217 -636q10 -25 24 -34.5t36 -9.5h56v-32h-310v32h66q15 0 25 7.5t10 17.5q0 13 -4 22l-47 133h-234l-24 -67q-14 -40 -14 -58q0 -22 11 -38.5t38 -16.5h61v-32h-274v32zM259 244h212l-104 305zM413 817q27 23 27 58q0 24 -13.5 40
t-40.5 16q-21 0 -37.5 -11t-16.5 -25q0 -10 3 -13q1 -1 2.5 -2t2.5 0q1 -1 4 1q3 1 4.5 0.5t3.5 0.5q8 -1 13 -6t5 -13q0 -9 -7 -15.5t-20 -6.5q-12 0 -22 11t-10 29q0 27 24.5 45.5t54.5 19.5q38 -1 64.5 -19.5t26.5 -51.5q0 -27 -17 -46t-51 -43h-35z" />
    <glyph glyph-name="uni0202" unicode="&#x202;" horiz-adv-x="764" 
d="M249 770q7 31 29 66.5t53 59.5t65 24t65 -24t53 -59.5t29 -66.5l-20 -8q-21 45 -54 73.5t-73 28.5t-73 -28.5t-54 -73.5zM46 32h37q59 0 86 73l215 607h25l217 -636q10 -25 24 -34.5t36 -9.5h56v-32h-310v32h66q15 0 25 7.5t10 17.5q0 13 -4 22l-47 133h-234l-24 -67
q-14 -40 -14 -58q0 -22 11 -38.5t38 -16.5h61v-32h-274v32zM259 244h212l-104 305z" />
    <glyph glyph-name="Amacron" unicode="&#x100;" horiz-adv-x="764" 
d="M260 822v40h272v-40h-272zM46 32h37q59 0 86 73l215 607h25l217 -636q10 -25 24 -34.5t36 -9.5h56v-32h-310v32h66q15 0 25 7.5t10 17.5q0 13 -4 22l-47 133h-234l-24 -67q-14 -40 -14 -58q0 -22 11 -38.5t38 -16.5h61v-32h-274v32zM259 244h212l-104 305z" />
    <glyph glyph-name="Aogonek" unicode="&#x104;" horiz-adv-x="764" 
d="M477.5 -213.5q-25.5 24.5 -25.5 65.5q0 80 112 143l-2 5h-130v32h66q15 0 25 7.5t10 17.5q0 13 -4 22l-47 133h-234l-24 -67q-14 -40 -14 -58q0 -22 11 -38.5t38 -16.5h61v-32h-274v32h37q59 0 86 73l215 607h25l217 -636q10 -25 24 -34.5t36 -9.5h56v-32h-126
q-42 -21 -69 -55.5t-27 -79.5q0 -25 14 -42t38 -17q22 0 35.5 6.5t26.5 20.5l12 -9q-13 -25 -38 -43.5t-61 -18.5q-44 0 -69.5 24.5zM259 244h212l-104 305z" />
    <glyph glyph-name="Aring" unicode="&#xc5;" horiz-adv-x="764" 
d="M327 781q-29 29 -29 69q0 41 29 69.5t69 28.5q41 0 69.5 -28.5t28.5 -69.5q0 -40 -28.5 -69t-69.5 -29q-40 0 -69 29zM448.5 797.5q21.5 21.5 21.5 52.5t-21.5 52.5t-52.5 21.5t-52.5 -21.5t-21.5 -52.5t21.5 -52.5t52.5 -21.5t52.5 21.5zM46 32h37q59 0 86 73l215 607
h25l217 -636q10 -25 24 -34.5t36 -9.5h56v-32h-310v32h66q15 0 25 7.5t10 17.5q0 13 -4 22l-47 133h-234l-24 -67q-14 -40 -14 -58q0 -22 11 -38.5t38 -16.5h61v-32h-274v32zM259 244h212l-104 305z" />
    <glyph glyph-name="Aringacute" unicode="&#x1fa;" horiz-adv-x="764" 
d="M374 877l60 57q18 18 35 18q7 0 12 -5.5t5 -13.5q0 -10 -7.5 -16.5t-21.5 -13.5l-77 -35zM336 749q-24 17 -24 47t24 47t60 17t60 -17t24 -47t-24 -47t-60 -17t-60 17zM438.5 765q17.5 9 17.5 31t-17.5 31t-42.5 9t-42.5 -9t-17.5 -31t17.5 -31t42.5 -9t42.5 9zM46 32h37
q59 0 86 73l215 607h25l217 -636q10 -25 24 -34.5t36 -9.5h56v-32h-310v32h66q15 0 25 7.5t10 17.5q0 13 -4 22l-47 133h-234l-24 -67q-14 -40 -14 -58q0 -22 11 -38.5t38 -16.5h61v-32h-274v32zM259 244h212l-104 305z" />
    <glyph glyph-name="Atilde" unicode="&#xc3;" horiz-adv-x="764" 
d="M240 810q3 38 25.5 65t60.5 27q29 0 90 -21q49 -17 72 -17q18 0 29 11t15 31l20 -2q-3 -38 -25.5 -65t-60.5 -27q-29 0 -90 21q-49 17 -72 17q-18 0 -29 -11t-15 -31zM46 32h37q59 0 86 73l215 607h25l217 -636q10 -25 24 -34.5t36 -9.5h56v-32h-310v32h66q15 0 25 7.5
t10 17.5q0 13 -4 22l-47 133h-234l-24 -67q-14 -40 -14 -58q0 -22 11 -38.5t38 -16.5h61v-32h-274v32zM259 244h212l-104 305z" />
    <glyph glyph-name="AE" unicode="&#xc6;" horiz-adv-x="1004" 
d="M26 32h32q38 0 61.5 20.5t39.5 52.5l266 503q17 31 17 51q0 11 -5.5 16t-19.5 5h-41v32h558l4 -250h-25q0 20 -8.5 68t-33.5 86q-42 64 -118 64h-159q-14 0 -20.5 -6.5t-6.5 -20.5v-269h77q51 0 73.5 52t22.5 111h26v-358h-26q0 59 -22.5 111t-73.5 52h-77v-293
q0 -27 27 -27h160q29 0 59 13t51 40q20 28 33 70t18 76.5t6 44.5h25l-12 -276h-553v32h67q27 0 27 27v153h-216l-36 -67q-18 -34 -18 -60q0 -23 8 -38t36 -15h47v-32h-270v32zM276 244h199v376z" />
    <glyph glyph-name="AEacute" unicode="&#x1fc;" horiz-adv-x="1004" 
d="M625 773l92 133q13 18 24 25t25 7q13 0 20.5 -8.5t7.5 -22.5q0 -23 -28 -44l-128 -101zM26 32h32q38 0 61.5 20.5t39.5 52.5l266 503q17 31 17 51q0 11 -5.5 16t-19.5 5h-41v32h558l4 -250h-25q0 20 -8.5 68t-33.5 86q-42 64 -118 64h-159q-14 0 -20.5 -6.5t-6.5 -20.5
v-269h77q51 0 73.5 52t22.5 111h26v-358h-26q0 59 -22.5 111t-73.5 52h-77v-293q0 -27 27 -27h160q29 0 59 13t51 40q20 28 33 70t18 76.5t6 44.5h25l-12 -276h-553v32h67q27 0 27 27v153h-216l-36 -67q-18 -34 -18 -60q0 -23 8 -38t36 -15h47v-32h-270v32zM276 244h199v376
z" />
    <glyph glyph-name="B" unicode="B" horiz-adv-x="690" 
d="M62 32h72q27 0 27 27v594q0 14 -6.5 20.5t-20.5 6.5h-72v32h326q59 0 110.5 -22t82.5 -60.5t31 -87.5q0 -68 -46 -112t-107 -57v-4q41 -3 81.5 -25.5t67 -61.5t26.5 -88q0 -61 -32 -105t-85.5 -66.5t-117.5 -22.5h-337v32zM384 388q81 0 110.5 41.5t29.5 112.5
q0 60 -38 99t-94 39h-112q-14 0 -20.5 -6.5t-6.5 -20.5v-265h131zM388 32q61 0 100.5 36.5t39.5 125.5t-39.5 125.5t-100.5 36.5h-135v-297q0 -27 27 -27h108z" />
    <glyph glyph-name="C" unicode="C" horiz-adv-x="670" 
d="M206 36q-67 54 -101.5 141.5t-34.5 184.5q0 101 34 185t97 133.5t147 49.5q44 0 83 -20t64 -43q24 -22 32 -22t11.5 5t7.5 16l19 56h25l4 -310h-28q-22 95 -57 159.5t-76.5 95.5t-82.5 31q-95 0 -134.5 -86t-39.5 -250q0 -169 41 -258.5t149 -89.5q96 0 146.5 71.5
t57.5 173.5h36q-3 -59 -24.5 -122t-74.5 -109t-141 -46q-93 0 -160 54z" />
    <glyph glyph-name="Cacute" unicode="&#x106;" horiz-adv-x="670" 
d="M323 773l92 133q13 18 24 25t25 7q13 0 20.5 -8.5t7.5 -22.5q0 -23 -28 -44l-128 -101zM206 36q-67 54 -101.5 141.5t-34.5 184.5q0 101 34 185t97 133.5t147 49.5q44 0 83 -20t64 -43q24 -22 32 -22t11.5 5t7.5 16l19 56h25l4 -310h-28q-22 95 -57 159.5t-76.5 95.5
t-82.5 31q-95 0 -134.5 -86t-39.5 -250q0 -169 41 -258.5t149 -89.5q96 0 146.5 71.5t57.5 173.5h36q-3 -59 -24.5 -122t-74.5 -109t-141 -46q-93 0 -160 54z" />
    <glyph glyph-name="Ccaron" unicode="&#x10c;" horiz-adv-x="670" 
d="M328 762l-140 144l12 14l148 -96l148 96l12 -14l-140 -144h-40zM206 36q-67 54 -101.5 141.5t-34.5 184.5q0 101 34 185t97 133.5t147 49.5q44 0 83 -20t64 -43q24 -22 32 -22t11.5 5t7.5 16l19 56h25l4 -310h-28q-22 95 -57 159.5t-76.5 95.5t-82.5 31q-95 0 -134.5 -86
t-39.5 -250q0 -169 41 -258.5t149 -89.5q96 0 146.5 71.5t57.5 173.5h36q-3 -59 -24.5 -122t-74.5 -109t-141 -46q-93 0 -160 54z" />
    <glyph glyph-name="Ccedilla" unicode="&#xc7;" horiz-adv-x="670" 
d="M298 -219.5q-30 18.5 -30 51.5q0 12 7.5 21t19.5 9q26 0 32 -35q3 -19 17 -30t35 -11q31 0 46 13.5t15 36.5q0 52 -68 52h-49l17 95q-85 8 -146 63.5t-92.5 139.5t-31.5 176q0 101 34 185t97 133.5t147 49.5q44 0 83 -20t64 -43q24 -22 32 -22t11.5 5t7.5 16l19 56h25
l4 -310h-28q-22 95 -57 159.5t-76.5 95.5t-82.5 31q-95 0 -134.5 -86t-39.5 -250q0 -169 41 -258.5t149 -89.5q96 0 146.5 71.5t57.5 173.5h36q-3 -59 -24.5 -122t-74.5 -109t-141 -46l-7 -38h31q39 0 66.5 -21t27.5 -60q0 -42 -28 -71.5t-90 -29.5q-38 0 -68 18.5z" />
    <glyph glyph-name="uni1E08" unicode="&#x1e08;" horiz-adv-x="670" 
d="M333 773l92 133q13 18 24 25t25 7q13 0 20.5 -8.5t7.5 -22.5q0 -23 -28 -44l-128 -101zM298 -219.5q-30 18.5 -30 51.5q0 12 7.5 21t19.5 9q26 0 32 -35q3 -19 17 -30t35 -11q31 0 46 13.5t15 36.5q0 52 -68 52h-49l17 95q-85 8 -146 63.5t-92.5 139.5t-31.5 176
q0 101 34 185t97 133.5t147 49.5q44 0 83 -20t64 -43q24 -22 32 -22t11.5 5t7.5 16l19 56h25l4 -310h-28q-22 95 -57 159.5t-76.5 95.5t-82.5 31q-95 0 -134.5 -86t-39.5 -250q0 -169 41 -258.5t149 -89.5q96 0 146.5 71.5t57.5 173.5h36q-3 -59 -24.5 -122t-74.5 -109
t-141 -46l-7 -38h31q39 0 66.5 -21t27.5 -60q0 -42 -28 -71.5t-90 -29.5q-38 0 -68 18.5z" />
    <glyph glyph-name="Ccircumflex" unicode="&#x108;" horiz-adv-x="670" 
d="M190 778q91 52 138 142h40q47 -90 138 -142l-10 -16q-26 9 -71.5 38.5t-76.5 57.5q-31 -28 -76.5 -57.5t-71.5 -38.5zM206 36q-67 54 -101.5 141.5t-34.5 184.5q0 101 34 185t97 133.5t147 49.5q44 0 83 -20t64 -43q24 -22 32 -22t11.5 5t7.5 16l19 56h25l4 -310h-28
q-22 95 -57 159.5t-76.5 95.5t-82.5 31q-95 0 -134.5 -86t-39.5 -250q0 -169 41 -258.5t149 -89.5q96 0 146.5 71.5t57.5 173.5h36q-3 -59 -24.5 -122t-74.5 -109t-141 -46q-93 0 -160 54z" />
    <glyph glyph-name="Cdotaccent" unicode="&#x10a;" horiz-adv-x="670" 
d="M311 813q-15 15 -15 37q0 23 15 37.5t37 14.5q23 0 37.5 -14.5t14.5 -37.5q0 -22 -14.5 -37t-37.5 -15q-22 0 -37 15zM206 36q-67 54 -101.5 141.5t-34.5 184.5q0 101 34 185t97 133.5t147 49.5q44 0 83 -20t64 -43q24 -22 32 -22t11.5 5t7.5 16l19 56h25l4 -310h-28
q-22 95 -57 159.5t-76.5 95.5t-82.5 31q-95 0 -134.5 -86t-39.5 -250q0 -169 41 -258.5t149 -89.5q96 0 146.5 71.5t57.5 173.5h36q-3 -59 -24.5 -122t-74.5 -109t-141 -46q-93 0 -160 54z" />
    <glyph glyph-name="D" unicode="D" horiz-adv-x="780" 
d="M62 32h72q27 0 27 27v594q0 14 -6.5 20.5t-20.5 6.5h-72v32h366q83 0 152 -44.5t109.5 -124t40.5 -181.5t-40.5 -185t-110 -130t-151.5 -47h-366v32zM424 32q70 0 115 47.5t65 122t20 160.5q0 134 -48.5 226t-151.5 92h-144q-14 0 -20.5 -6.5t-6.5 -20.5v-594
q0 -27 27 -27h144z" />
    <glyph glyph-name="uni01F1" unicode="&#x1f1;" horiz-adv-x="1432" 
d="M62 32h72q27 0 27 27v594q0 14 -6.5 20.5t-20.5 6.5h-72v32h366q83 0 152 -44.5t109.5 -124t40.5 -181.5t-40.5 -185t-110 -130t-151.5 -47h-366v32zM848 32l414 648h-188q-33 0 -61.5 -18t-47.5 -40q-24 -28 -40 -64.5t-24 -67t-8 -34.5h-25l24 256h476v-32l-410 -648
h200q34 0 70 20.5t59 52.5q25 36 41.5 79.5t24.5 78.5t8 39h25l-16 -302h-522v32zM424 32q70 0 115 47.5t65 122t20 160.5q0 134 -48.5 226t-151.5 92h-144q-14 0 -20.5 -6.5t-6.5 -20.5v-594q0 -27 27 -27h144z" />
    <glyph glyph-name="uni01C4" unicode="&#x1c4;" horiz-adv-x="652" 
d="M1120 762l-140 144l12 14l148 -96l148 96l12 -14l-140 -144h-40zM62 32h72q27 0 27 27v594q0 14 -6.5 20.5t-20.5 6.5h-72v32h366q83 0 152 -44.5t109.5 -124t40.5 -181.5t-40.5 -185t-110 -130t-151.5 -47h-366v32zM848 32l414 648h-188q-33 0 -61.5 -18t-47.5 -40
q-24 -28 -40 -64.5t-24 -67t-8 -34.5h-25l24 256h476v-32l-410 -648h200q34 0 70 20.5t59 52.5q25 36 41.5 79.5t24.5 78.5t8 39h25l-16 -302h-522v32zM424 32q70 0 115 47.5t65 122t20 160.5q0 134 -48.5 226t-151.5 92h-144q-14 0 -20.5 -6.5t-6.5 -20.5v-594
q0 -27 27 -27h144z" />
    <glyph glyph-name="Eth" unicode="&#xd0;" horiz-adv-x="768" 
d="M62 32h72q27 0 27 27v297h-93v36h93v261q0 14 -6.5 20.5t-20.5 6.5h-72v32h366q83 0 152 -44.5t109.5 -124t40.5 -181.5t-40.5 -185t-110 -130t-151.5 -47h-366v32zM424 32q70 0 115 47.5t65 122t20 160.5q0 134 -48.5 226t-151.5 92h-144q-14 0 -20.5 -6.5t-6.5 -20.5
v-261h115v-36h-115v-297q0 -27 27 -27h144z" />
    <glyph glyph-name="Dcaron" unicode="&#x10e;" horiz-adv-x="780" 
d="M348 762l-140 144l12 14l148 -96l148 96l12 -14l-140 -144h-40zM62 32h72q27 0 27 27v594q0 14 -6.5 20.5t-20.5 6.5h-72v32h366q83 0 152 -44.5t109.5 -124t40.5 -181.5t-40.5 -185t-110 -130t-151.5 -47h-366v32zM424 32q70 0 115 47.5t65 122t20 160.5
q0 134 -48.5 226t-151.5 92h-144q-14 0 -20.5 -6.5t-6.5 -20.5v-594q0 -27 27 -27h144z" />
    <glyph glyph-name="Dcroat" unicode="&#x110;" horiz-adv-x="768" 
d="M62 32h72q27 0 27 27v297h-93v36h93v261q0 14 -6.5 20.5t-20.5 6.5h-72v32h366q83 0 152 -44.5t109.5 -124t40.5 -181.5t-40.5 -185t-110 -130t-151.5 -47h-366v32zM424 32q70 0 115 47.5t65 122t20 160.5q0 134 -48.5 226t-151.5 92h-144q-14 0 -20.5 -6.5t-6.5 -20.5
v-261h115v-36h-115v-297q0 -27 27 -27h144z" />
    <glyph glyph-name="uni1E0C" unicode="&#x1e0c;" horiz-adv-x="780" 
d="M62 32h72q27 0 27 27v594q0 14 -6.5 20.5t-20.5 6.5h-72v32h366q83 0 152 -44.5t109.5 -124t40.5 -181.5t-40.5 -185t-110 -130t-151.5 -47h-366v32zM424 32q70 0 115 47.5t65 122t20 160.5q0 134 -48.5 226t-151.5 92h-144q-14 0 -20.5 -6.5t-6.5 -20.5v-594
q0 -27 27 -27h144zM331 -179.5q-15 14.5 -15 37.5q0 22 15 37t37 15q23 0 37.5 -15t14.5 -37q0 -23 -14.5 -37.5t-37.5 -14.5q-22 0 -37 14.5z" />
    <glyph glyph-name="uni1E0E" unicode="&#x1e0e;" horiz-adv-x="780" 
d="M62 32h72q27 0 27 27v594q0 14 -6.5 20.5t-20.5 6.5h-72v32h366q83 0 152 -44.5t109.5 -124t40.5 -181.5t-40.5 -185t-110 -130t-151.5 -47h-366v32zM424 32q70 0 115 47.5t65 122t20 160.5q0 134 -48.5 226t-151.5 92h-144q-14 0 -20.5 -6.5t-6.5 -20.5v-594
q0 -27 27 -27h144zM238 -166v40h260v-40h-260z" />
    <glyph glyph-name="uni01F2" unicode="&#x1f2;" horiz-adv-x="1220" 
d="M62 32h72q27 0 27 27v594q0 14 -6.5 20.5t-20.5 6.5h-72v32h366q83 0 152 -44.5t109.5 -124t40.5 -181.5t-40.5 -185t-110 -130t-151.5 -47h-366v32zM424 32q70 0 115 47.5t65 122t20 160.5q0 134 -48.5 226t-151.5 92h-144q-14 0 -20.5 -6.5t-6.5 -20.5v-594
q0 -27 27 -27h144zM820 26l260 406h-122q-62 0 -88 -50q-15 -30 -22.5 -62.5t-7.5 -39.5h-20l6 176h336v-32l-259 -400h127q32 0 54 13.5t34 36.5q15 30 22.5 62.5t7.5 39.5h20l-6 -176h-342v26z" />
    <glyph glyph-name="uni01C5" unicode="&#x1c5;" horiz-adv-x="1220" 
d="M62 32h72q27 0 27 27v594q0 14 -6.5 20.5t-20.5 6.5h-72v32h366q83 0 152 -44.5t109.5 -124t40.5 -181.5t-40.5 -185t-110 -130t-151.5 -47h-366v32zM424 32q70 0 115 47.5t65 122t20 160.5q0 134 -48.5 226t-151.5 92h-144q-14 0 -20.5 -6.5t-6.5 -20.5v-594
q0 -27 27 -27h144zM980 508l-112 153l13 11l119 -100l119 100l13 -11l-112 -153h-40zM820 26l260 406h-122q-62 0 -88 -50q-15 -30 -22.5 -62.5t-7.5 -39.5h-20l6 176h336v-32l-259 -400h127q32 0 54 13.5t34 36.5q15 30 22.5 62.5t7.5 39.5h20l-6 -176h-342v26z" />
    <glyph glyph-name="E" unicode="E" horiz-adv-x="690" 
d="M62 32h72q27 0 27 27v594q0 14 -6.5 20.5t-20.5 6.5h-72v32h558l4 -250h-25q0 20 -8.5 68t-33.5 86q-42 64 -118 64h-159q-14 0 -20.5 -6.5t-6.5 -20.5v-269h77q51 0 73.5 52t22.5 111h26v-358h-26q0 59 -22.5 111t-73.5 52h-77v-293q0 -27 27 -27h160q29 0 59 13t51 40
q20 28 33 70t18 76.5t6 44.5h25l-12 -276h-558v32z" />
    <glyph glyph-name="Eacute" unicode="&#xc9;" horiz-adv-x="690" 
d="M343 773l92 133q13 18 24 25t25 7q13 0 20.5 -8.5t7.5 -22.5q0 -23 -28 -44l-128 -101zM62 32h72q27 0 27 27v594q0 14 -6.5 20.5t-20.5 6.5h-72v32h558l4 -250h-25q0 20 -8.5 68t-33.5 86q-42 64 -118 64h-159q-14 0 -20.5 -6.5t-6.5 -20.5v-269h77q51 0 73.5 52
t22.5 111h26v-358h-26q0 59 -22.5 111t-73.5 52h-77v-293q0 -27 27 -27h160q29 0 59 13t51 40q20 28 33 70t18 76.5t6 44.5h25l-12 -276h-558v32z" />
    <glyph glyph-name="Ebreve" unicode="&#x114;" horiz-adv-x="690" 
d="M284.5 786.5q-34.5 24.5 -51 60.5t-16.5 69h28q9 -42 40.5 -75t82.5 -33t82.5 33t40.5 75h28q0 -33 -16.5 -69t-51 -60.5t-83.5 -24.5t-83.5 24.5zM62 32h72q27 0 27 27v594q0 14 -6.5 20.5t-20.5 6.5h-72v32h558l4 -250h-25q0 20 -8.5 68t-33.5 86q-42 64 -118 64h-159
q-14 0 -20.5 -6.5t-6.5 -20.5v-269h77q51 0 73.5 52t22.5 111h26v-358h-26q0 59 -22.5 111t-73.5 52h-77v-293q0 -27 27 -27h160q29 0 59 13t51 40q20 28 33 70t18 76.5t6 44.5h25l-12 -276h-558v32z" />
    <glyph glyph-name="Ecaron" unicode="&#x11a;" horiz-adv-x="690" 
d="M348 762l-140 144l12 14l148 -96l148 96l12 -14l-140 -144h-40zM62 32h72q27 0 27 27v594q0 14 -6.5 20.5t-20.5 6.5h-72v32h558l4 -250h-25q0 20 -8.5 68t-33.5 86q-42 64 -118 64h-159q-14 0 -20.5 -6.5t-6.5 -20.5v-269h77q51 0 73.5 52t22.5 111h26v-358h-26
q0 59 -22.5 111t-73.5 52h-77v-293q0 -27 27 -27h160q29 0 59 13t51 40q20 28 33 70t18 76.5t6 44.5h25l-12 -276h-558v32z" />
    <glyph glyph-name="uni1E1C" unicode="&#x1e1c;" horiz-adv-x="690" 
d="M284.5 786.5q-34.5 24.5 -51 60.5t-16.5 69h28q9 -42 40.5 -75t82.5 -33t82.5 33t40.5 75h28q0 -33 -16.5 -69t-51 -60.5t-83.5 -24.5t-83.5 24.5zM308 -219.5q-30 18.5 -30 51.5q0 12 7.5 21t19.5 9q26 0 32 -35q3 -19 17 -30t35 -11q31 0 46 13.5t15 36.5q0 52 -68 52
h-49l20 112h-291v32h72q27 0 27 27v594q0 14 -6.5 20.5t-20.5 6.5h-72v32h558l4 -250h-25q0 20 -8.5 68t-33.5 86q-42 64 -118 64h-159q-14 0 -20.5 -6.5t-6.5 -20.5v-269h77q51 0 73.5 52t22.5 111h26v-358h-26q0 59 -22.5 111t-73.5 52h-77v-293q0 -27 27 -27h160
q29 0 59 13t51 40q20 28 33 70t18 76.5t6 44.5h25l-12 -276h-241l-10 -56h31q39 0 66.5 -21t27.5 -60q0 -42 -28 -71.5t-90 -29.5q-38 0 -68 18.5z" />
    <glyph glyph-name="Ecircumflex" unicode="&#xca;" horiz-adv-x="690" 
d="M210 778q91 52 138 142h40q47 -90 138 -142l-10 -16q-26 9 -71.5 38.5t-76.5 57.5q-31 -28 -76.5 -57.5t-71.5 -38.5zM62 32h72q27 0 27 27v594q0 14 -6.5 20.5t-20.5 6.5h-72v32h558l4 -250h-25q0 20 -8.5 68t-33.5 86q-42 64 -118 64h-159q-14 0 -20.5 -6.5t-6.5 -20.5
v-269h77q51 0 73.5 52t22.5 111h26v-358h-26q0 59 -22.5 111t-73.5 52h-77v-293q0 -27 27 -27h160q29 0 59 13t51 40q20 28 33 70t18 76.5t6 44.5h25l-12 -276h-558v32z" />
    <glyph glyph-name="uni1EBE" unicode="&#x1ebe;" horiz-adv-x="690" 
d="M62 32h72q27 0 27 27v594q0 14 -6.5 20.5t-20.5 6.5h-72v32h558l4 -250h-25q0 20 -8.5 68t-33.5 86q-42 64 -118 64h-159q-14 0 -20.5 -6.5t-6.5 -20.5v-269h77q51 0 73.5 52t22.5 111h26v-358h-26q0 59 -22.5 111t-73.5 52h-77v-293q0 -27 27 -27h160q29 0 59 13t51 40
q20 28 33 70t18 76.5t6 44.5h25l-12 -276h-558v32zM214 777q75 49 111 151h40q36 -102 111 -151l-9 -13q-69 36 -122 92q-54 -57 -122 -92zM448 866l92 133q13 18 24 25t25 7q13 0 20.5 -8.5t7.5 -22.5q0 -23 -28 -44l-128 -101z" />
    <glyph glyph-name="uni1EC6" unicode="&#x1ec6;" horiz-adv-x="690" 
d="M62 32h72q27 0 27 27v594q0 14 -6.5 20.5t-20.5 6.5h-72v32h558l4 -250h-25q0 20 -8.5 68t-33.5 86q-42 64 -118 64h-159q-14 0 -20.5 -6.5t-6.5 -20.5v-269h77q51 0 73.5 52t22.5 111h26v-358h-26q0 59 -22.5 111t-73.5 52h-77v-293q0 -27 27 -27h160q29 0 59 13t51 40
q20 28 33 70t18 76.5t6 44.5h25l-12 -276h-558v32zM307.5 -179.5q-14.5 14.5 -14.5 37.5q0 22 14.5 37t37.5 15q22 0 37 -15t15 -37q0 -23 -15 -37.5t-37 -14.5q-23 0 -37.5 14.5zM187 778q91 52 138 142h40q47 -90 138 -142l-10 -16q-26 9 -71.5 38.5t-76.5 57.5
q-31 -28 -76.5 -57.5t-71.5 -38.5z" />
    <glyph glyph-name="uni1EC0" unicode="&#x1ec0;" horiz-adv-x="690" 
d="M62 32h72q27 0 27 27v594q0 14 -6.5 20.5t-20.5 6.5h-72v32h558l4 -250h-25q0 20 -8.5 68t-33.5 86q-42 64 -118 64h-159q-14 0 -20.5 -6.5t-6.5 -20.5v-269h77q51 0 73.5 52t22.5 111h26v-358h-26q0 59 -22.5 111t-73.5 52h-77v-293q0 -27 27 -27h160q29 0 59 13t51 40
q20 28 33 70t18 76.5t6 44.5h25l-12 -276h-558v32zM214 777q75 49 111 151h40q36 -102 111 -151l-9 -13q-69 36 -122 92q-54 -57 -122 -92zM324 1014q-28 21 -28 44q0 14 7.5 22.5t20.5 8.5q14 0 25 -7t24 -25l92 -133l-13 -11z" />
    <glyph glyph-name="uni1EC2" unicode="&#x1ec2;" horiz-adv-x="690" 
d="M62 32h72q27 0 27 27v594q0 14 -6.5 20.5t-20.5 6.5h-72v32h558l4 -250h-25q0 20 -8.5 68t-33.5 86q-42 64 -118 64h-159q-14 0 -20.5 -6.5t-6.5 -20.5v-269h77q51 0 73.5 52t22.5 111h26v-358h-26q0 59 -22.5 111t-73.5 52h-77v-293q0 -27 27 -27h160q29 0 59 13t51 40
q20 28 33 70t18 76.5t6 44.5h25l-12 -276h-558v32zM214 777q75 49 111 151h40q36 -102 111 -151l-9 -13q-69 36 -122 92q-54 -57 -122 -92zM466 938q27 23 27 58q0 24 -13.5 40t-40.5 16q-21 0 -37.5 -11t-16.5 -25q0 -10 3 -13q1 -1 2.5 -2t2.5 0q1 -1 4 1q3 1 4.5 0.5
t3.5 0.5q8 -1 13 -6t5 -13q0 -9 -7 -15.5t-20 -6.5q-12 0 -22 11t-10 29q0 27 24.5 45.5t54.5 19.5q38 -1 64.5 -19.5t26.5 -51.5q0 -27 -17 -46t-51 -43h-35z" />
    <glyph glyph-name="uni1EC4" unicode="&#x1ec4;" horiz-adv-x="690" 
d="M62 32h72q27 0 27 27v594q0 14 -6.5 20.5t-20.5 6.5h-72v32h558l4 -250h-25q0 20 -8.5 68t-33.5 86q-42 64 -118 64h-159q-14 0 -20.5 -6.5t-6.5 -20.5v-269h77q51 0 73.5 52t22.5 111h26v-358h-26q0 59 -22.5 111t-73.5 52h-77v-293q0 -27 27 -27h160q29 0 59 13t51 40
q20 28 33 70t18 76.5t6 44.5h25l-12 -276h-558v32zM214 777q75 49 111 151h40q36 -102 111 -151l-9 -13q-69 36 -122 92q-54 -57 -122 -92zM225 959q6 36 28 62t58 26q19 0 36 -5.5t39 -14.5q19 -8 32 -12t28 -4q34 0 46 42l17 -4q-6 -36 -28 -62t-58 -26q-19 0 -36 5.5
t-39 14.5q-19 8 -32 12t-28 4q-34 0 -46 -42z" />
    <glyph glyph-name="uni0204" unicode="&#x204;" horiz-adv-x="690" 
d="M184 863q-28 21 -28 44q0 14 7.5 22.5t20.5 8.5q14 0 25 -7t24 -25l92 -133l-13 -11zM320 863q-28 21 -28 44q0 14 7.5 22.5t20.5 8.5q14 0 25 -7t24 -25l92 -133l-13 -11zM62 32h72q27 0 27 27v594q0 14 -6.5 20.5t-20.5 6.5h-72v32h558l4 -250h-25q0 20 -8.5 68
t-33.5 86q-42 64 -118 64h-159q-14 0 -20.5 -6.5t-6.5 -20.5v-269h77q51 0 73.5 52t22.5 111h26v-358h-26q0 59 -22.5 111t-73.5 52h-77v-293q0 -27 27 -27h160q29 0 59 13t51 40q20 28 33 70t18 76.5t6 44.5h25l-12 -276h-558v32z" />
    <glyph glyph-name="Edieresis" unicode="&#xcb;" horiz-adv-x="690" 
d="M229 813q-15 15 -15 37q0 23 15 37.5t37 14.5q23 0 37.5 -14.5t14.5 -37.5q0 -22 -14.5 -37t-37.5 -15q-22 0 -37 15zM433 813q-15 15 -15 37q0 23 15 37.5t37 14.5q23 0 37.5 -14.5t14.5 -37.5q0 -22 -14.5 -37t-37.5 -15q-22 0 -37 15zM62 32h72q27 0 27 27v594
q0 14 -6.5 20.5t-20.5 6.5h-72v32h558l4 -250h-25q0 20 -8.5 68t-33.5 86q-42 64 -118 64h-159q-14 0 -20.5 -6.5t-6.5 -20.5v-269h77q51 0 73.5 52t22.5 111h26v-358h-26q0 59 -22.5 111t-73.5 52h-77v-293q0 -27 27 -27h160q29 0 59 13t51 40q20 28 33 70t18 76.5t6 44.5
h25l-12 -276h-558v32z" />
    <glyph glyph-name="Edotaccent" unicode="&#x116;" horiz-adv-x="690" 
d="M331 813q-15 15 -15 37q0 23 15 37.5t37 14.5q23 0 37.5 -14.5t14.5 -37.5q0 -22 -14.5 -37t-37.5 -15q-22 0 -37 15zM62 32h72q27 0 27 27v594q0 14 -6.5 20.5t-20.5 6.5h-72v32h558l4 -250h-25q0 20 -8.5 68t-33.5 86q-42 64 -118 64h-159q-14 0 -20.5 -6.5t-6.5 -20.5
v-269h77q51 0 73.5 52t22.5 111h26v-358h-26q0 59 -22.5 111t-73.5 52h-77v-293q0 -27 27 -27h160q29 0 59 13t51 40q20 28 33 70t18 76.5t6 44.5h25l-12 -276h-558v32z" />
    <glyph glyph-name="uni1EB8" unicode="&#x1eb8;" horiz-adv-x="690" 
d="M62 32h72q27 0 27 27v594q0 14 -6.5 20.5t-20.5 6.5h-72v32h558l4 -250h-25q0 20 -8.5 68t-33.5 86q-42 64 -118 64h-159q-14 0 -20.5 -6.5t-6.5 -20.5v-269h77q51 0 73.5 52t22.5 111h26v-358h-26q0 59 -22.5 111t-73.5 52h-77v-293q0 -27 27 -27h160q29 0 59 13t51 40
q20 28 33 70t18 76.5t6 44.5h25l-12 -276h-558v32zM307.5 -179.5q-14.5 14.5 -14.5 37.5q0 22 14.5 37t37.5 15q22 0 37 -15t15 -37q0 -23 -15 -37.5t-37 -14.5q-23 0 -37.5 14.5z" />
    <glyph glyph-name="Egrave" unicode="&#xc8;" horiz-adv-x="690" 
d="M252 863q-28 21 -28 44q0 14 7.5 22.5t20.5 8.5q14 0 25 -7t24 -25l92 -133l-13 -11zM62 32h72q27 0 27 27v594q0 14 -6.5 20.5t-20.5 6.5h-72v32h558l4 -250h-25q0 20 -8.5 68t-33.5 86q-42 64 -118 64h-159q-14 0 -20.5 -6.5t-6.5 -20.5v-269h77q51 0 73.5 52t22.5 111
h26v-358h-26q0 59 -22.5 111t-73.5 52h-77v-293q0 -27 27 -27h160q29 0 59 13t51 40q20 28 33 70t18 76.5t6 44.5h25l-12 -276h-558v32z" />
    <glyph glyph-name="uni1EBA" unicode="&#x1eba;" horiz-adv-x="690" 
d="M62 32h72q27 0 27 27v594q0 14 -6.5 20.5t-20.5 6.5h-72v32h558l4 -250h-25q0 20 -8.5 68t-33.5 86q-42 64 -118 64h-159q-14 0 -20.5 -6.5t-6.5 -20.5v-269h77q51 0 73.5 52t22.5 111h26v-358h-26q0 59 -22.5 111t-73.5 52h-77v-293q0 -27 27 -27h160q29 0 59 13t51 40
q20 28 33 70t18 76.5t6 44.5h25l-12 -276h-558v32zM362 817q27 23 27 58q0 24 -13.5 40t-40.5 16q-21 0 -37.5 -11t-16.5 -25q0 -10 3 -13q1 -1 2.5 -2t2.5 0q1 -1 4 1q3 1 4.5 0.5t3.5 0.5q8 -1 13 -6t5 -13q0 -9 -7 -15.5t-20 -6.5q-12 0 -22 11t-10 29q0 27 24.5 45.5
t54.5 19.5q38 -1 64.5 -19.5t26.5 -51.5q0 -27 -17 -46t-51 -43h-35z" />
    <glyph glyph-name="uni0206" unicode="&#x206;" horiz-adv-x="690" 
d="M221 770q7 31 29 66.5t53 59.5t65 24t65 -24t53 -59.5t29 -66.5l-20 -8q-21 45 -54 73.5t-73 28.5t-73 -28.5t-54 -73.5zM62 32h72q27 0 27 27v594q0 14 -6.5 20.5t-20.5 6.5h-72v32h558l4 -250h-25q0 20 -8.5 68t-33.5 86q-42 64 -118 64h-159q-14 0 -20.5 -6.5
t-6.5 -20.5v-269h77q51 0 73.5 52t22.5 111h26v-358h-26q0 59 -22.5 111t-73.5 52h-77v-293q0 -27 27 -27h160q29 0 59 13t51 40q20 28 33 70t18 76.5t6 44.5h25l-12 -276h-558v32z" />
    <glyph glyph-name="Emacron" unicode="&#x112;" horiz-adv-x="690" 
d="M232 822v40h272v-40h-272zM62 32h72q27 0 27 27v594q0 14 -6.5 20.5t-20.5 6.5h-72v32h558l4 -250h-25q0 20 -8.5 68t-33.5 86q-42 64 -118 64h-159q-14 0 -20.5 -6.5t-6.5 -20.5v-269h77q51 0 73.5 52t22.5 111h26v-358h-26q0 59 -22.5 111t-73.5 52h-77v-293
q0 -27 27 -27h160q29 0 59 13t51 40q20 28 33 70t18 76.5t6 44.5h25l-12 -276h-558v32z" />
    <glyph glyph-name="uni1E16" unicode="&#x1e16;" horiz-adv-x="690" 
d="M328 840l111 91q26 21 45 21q14 0 23 -10.5t9 -23.5q0 -16 -13 -25.5t-34 -16.5l-134 -48zM232 776v36h272v-36h-272zM62 32h72q27 0 27 27v594q0 14 -6.5 20.5t-20.5 6.5h-72v32h558l4 -250h-25q0 20 -8.5 68t-33.5 86q-42 64 -118 64h-159q-14 0 -20.5 -6.5t-6.5 -20.5
v-269h77q51 0 73.5 52t22.5 111h26v-358h-26q0 59 -22.5 111t-73.5 52h-77v-293q0 -27 27 -27h160q29 0 59 13t51 40q20 28 33 70t18 76.5t6 44.5h25l-12 -276h-558v32z" />
    <glyph glyph-name="uni1E14" unicode="&#x1e14;" horiz-adv-x="690" 
d="M267 876q-21 7 -34 16.5t-13 25.5q0 13 9 23.5t23 10.5q19 0 45 -21l111 -91l-7 -12zM232 776v36h272v-36h-272zM62 32h72q27 0 27 27v594q0 14 -6.5 20.5t-20.5 6.5h-72v32h558l4 -250h-25q0 20 -8.5 68t-33.5 86q-42 64 -118 64h-159q-14 0 -20.5 -6.5t-6.5 -20.5v-269
h77q51 0 73.5 52t22.5 111h26v-358h-26q0 59 -22.5 111t-73.5 52h-77v-293q0 -27 27 -27h160q29 0 59 13t51 40q20 28 33 70t18 76.5t6 44.5h25l-12 -276h-558v32z" />
    <glyph glyph-name="Eogonek" unicode="&#x118;" horiz-adv-x="690" 
d="M389.5 -213.5q-25.5 24.5 -25.5 65.5q0 43 31.5 80t80.5 63l-2 5h-412v32h72q27 0 27 27v594q0 14 -6.5 20.5t-20.5 6.5h-72v32h558l4 -250h-25q0 20 -8.5 68t-33.5 86q-42 64 -118 64h-159q-14 0 -20.5 -6.5t-6.5 -20.5v-269h77q51 0 73.5 52t22.5 111h26v-358h-26
q0 59 -22.5 111t-73.5 52h-77v-293q0 -27 27 -27h160q29 0 59 13t51 40q20 28 33 70t18 76.5t6 44.5h25l-12 -276h-92q-42 -21 -69 -55.5t-27 -79.5q0 -25 14 -42t38 -17q22 0 35.5 6.5t26.5 20.5l12 -9q-13 -25 -38 -43.5t-61 -18.5q-44 0 -69.5 24.5z" />
    <glyph glyph-name="uni1EBC" unicode="&#x1ebc;" horiz-adv-x="690" 
d="M62 32h72q27 0 27 27v594q0 14 -6.5 20.5t-20.5 6.5h-72v32h558l4 -250h-25q0 20 -8.5 68t-33.5 86q-42 64 -118 64h-159q-14 0 -20.5 -6.5t-6.5 -20.5v-269h77q51 0 73.5 52t22.5 111h26v-358h-26q0 59 -22.5 111t-73.5 52h-77v-293q0 -27 27 -27h160q29 0 59 13t51 40
q20 28 33 70t18 76.5t6 44.5h25l-12 -276h-558v32zM189 810q3 38 25.5 65t60.5 27q29 0 90 -21q49 -17 72 -17q18 0 29 11t15 31l20 -2q-3 -38 -25.5 -65t-60.5 -27q-29 0 -90 21q-49 17 -72 17q-18 0 -29 -11t-15 -31z" />
    <glyph glyph-name="F" unicode="F" horiz-adv-x="676" 
d="M62 32h72q27 0 27 27v594q0 14 -6.5 20.5t-20.5 6.5h-72v32h558l4 -250h-25q0 20 -8.5 68t-33.5 86q-42 64 -118 64h-159q-14 0 -20.5 -6.5t-6.5 -20.5v-269h77q51 0 73.5 54.5t22.5 114.5h26v-370h-26q0 60 -22.5 114.5t-73.5 54.5h-77v-287q0 -15 6.5 -24t20.5 -9h88
v-32h-306v32z" />
    <glyph glyph-name="G" unicode="G" horiz-adv-x="720" 
d="M200.5 32.5q-63.5 50.5 -97 137t-33.5 192.5q0 101 34 185t97 133.5t147 49.5q44 0 83 -20t64 -43q24 -22 32 -22t11.5 5t7.5 16l19 56h25l4 -310h-28q-22 95 -57 159.5t-76.5 95.5t-82.5 31q-69 0 -107 -41.5t-52.5 -115.5t-14.5 -185t14.5 -185t52.5 -115.5t107 -41.5
q37 0 71 26.5t55.5 67.5t21.5 81v90q0 14 -6.5 20.5t-20.5 6.5h-111v32h330v-32h-73q-14 0 -20.5 -6.5t-6.5 -20.5v-292h-32v91q0 17 -4 25.5t-13 8.5q-11 0 -19 -8t-16 -22q-23 -37 -65 -68.5t-91 -31.5q-86 0 -149.5 50.5z" />
    <glyph glyph-name="Gbreve" unicode="&#x11e;" horiz-adv-x="720" 
d="M264.5 786.5q-34.5 24.5 -51 60.5t-16.5 69h28q9 -42 40.5 -75t82.5 -33t82.5 33t40.5 75h28q0 -33 -16.5 -69t-51 -60.5t-83.5 -24.5t-83.5 24.5zM200.5 32.5q-63.5 50.5 -97 137t-33.5 192.5q0 101 34 185t97 133.5t147 49.5q44 0 83 -20t64 -43q24 -22 32 -22t11.5 5
t7.5 16l19 56h25l4 -310h-28q-22 95 -57 159.5t-76.5 95.5t-82.5 31q-69 0 -107 -41.5t-52.5 -115.5t-14.5 -185t14.5 -185t52.5 -115.5t107 -41.5q37 0 71 26.5t55.5 67.5t21.5 81v90q0 14 -6.5 20.5t-20.5 6.5h-111v32h330v-32h-73q-14 0 -20.5 -6.5t-6.5 -20.5v-292h-32
v91q0 17 -4 25.5t-13 8.5q-11 0 -19 -8t-16 -22q-23 -37 -65 -68.5t-91 -31.5q-86 0 -149.5 50.5z" />
    <glyph glyph-name="Gcircumflex" unicode="&#x11c;" horiz-adv-x="720" 
d="M190 778q91 52 138 142h40q47 -90 138 -142l-10 -16q-26 9 -71.5 38.5t-76.5 57.5q-31 -28 -76.5 -57.5t-71.5 -38.5zM200.5 32.5q-63.5 50.5 -97 137t-33.5 192.5q0 101 34 185t97 133.5t147 49.5q44 0 83 -20t64 -43q24 -22 32 -22t11.5 5t7.5 16l19 56h25l4 -310h-28
q-22 95 -57 159.5t-76.5 95.5t-82.5 31q-69 0 -107 -41.5t-52.5 -115.5t-14.5 -185t14.5 -185t52.5 -115.5t107 -41.5q37 0 71 26.5t55.5 67.5t21.5 81v90q0 14 -6.5 20.5t-20.5 6.5h-111v32h330v-32h-73q-14 0 -20.5 -6.5t-6.5 -20.5v-292h-32v91q0 17 -4 25.5t-13 8.5
q-11 0 -19 -8t-16 -22q-23 -37 -65 -68.5t-91 -31.5q-86 0 -149.5 50.5z" />
    <glyph glyph-name="Gcommaaccent" unicode="&#x122;" horiz-adv-x="720" 
d="M200.5 32.5q-63.5 50.5 -97 137t-33.5 192.5q0 101 34 185t97 133.5t147 49.5q44 0 83 -20t64 -43q24 -22 32 -22t11.5 5t7.5 16l19 56h25l4 -310h-28q-22 95 -57 159.5t-76.5 95.5t-82.5 31q-69 0 -107 -41.5t-52.5 -115.5t-14.5 -185t14.5 -185t52.5 -115.5t107 -41.5
q37 0 71 26.5t55.5 67.5t21.5 81v90q0 14 -6.5 20.5t-20.5 6.5h-111v32h330v-32h-73q-14 0 -20.5 -6.5t-6.5 -20.5v-292h-32v91q0 17 -4 25.5t-13 8.5q-11 0 -19 -8t-16 -22q-23 -37 -65 -68.5t-91 -31.5q-86 0 -149.5 50.5zM308 -227q26 12 45.5 33.5t19.5 41.5q0 16 -8 22
q-6 4 -24 4q-16 0 -25.5 13t-9.5 28q0 21 13.5 33t33.5 12q26 0 41.5 -19t15.5 -47q0 -43 -27.5 -80t-64.5 -52z" />
    <glyph glyph-name="Gdotaccent" unicode="&#x120;" horiz-adv-x="720" 
d="M311 813q-15 15 -15 37q0 23 15 37.5t37 14.5q23 0 37.5 -14.5t14.5 -37.5q0 -22 -14.5 -37t-37.5 -15q-22 0 -37 15zM200.5 32.5q-63.5 50.5 -97 137t-33.5 192.5q0 101 34 185t97 133.5t147 49.5q44 0 83 -20t64 -43q24 -22 32 -22t11.5 5t7.5 16l19 56h25l4 -310h-28
q-22 95 -57 159.5t-76.5 95.5t-82.5 31q-69 0 -107 -41.5t-52.5 -115.5t-14.5 -185t14.5 -185t52.5 -115.5t107 -41.5q37 0 71 26.5t55.5 67.5t21.5 81v90q0 14 -6.5 20.5t-20.5 6.5h-111v32h330v-32h-73q-14 0 -20.5 -6.5t-6.5 -20.5v-292h-32v91q0 17 -4 25.5t-13 8.5
q-11 0 -19 -8t-16 -22q-23 -37 -65 -68.5t-91 -31.5q-86 0 -149.5 50.5z" />
    <glyph glyph-name="uni1E20" unicode="&#x1e20;" horiz-adv-x="720" 
d="M212 822v40h272v-40h-272zM200.5 32.5q-63.5 50.5 -97 137t-33.5 192.5q0 101 34 185t97 133.5t147 49.5q44 0 83 -20t64 -43q24 -22 32 -22t11.5 5t7.5 16l19 56h25l4 -310h-28q-22 95 -57 159.5t-76.5 95.5t-82.5 31q-69 0 -107 -41.5t-52.5 -115.5t-14.5 -185
t14.5 -185t52.5 -115.5t107 -41.5q37 0 71 26.5t55.5 67.5t21.5 81v90q0 14 -6.5 20.5t-20.5 6.5h-111v32h330v-32h-73q-14 0 -20.5 -6.5t-6.5 -20.5v-292h-32v91q0 17 -4 25.5t-13 8.5q-11 0 -19 -8t-16 -22q-23 -37 -65 -68.5t-91 -31.5q-86 0 -149.5 50.5z" />
    <glyph glyph-name="H" unicode="H" horiz-adv-x="788" 
d="M62 32h72q27 0 27 27v594q0 27 -27 27h-72v32h290v-32h-72q-27 0 -27 -27v-263h302v263q0 27 -27 27h-72v32h290v-32h-72q-27 0 -27 -27v-594q0 -27 27 -27h72v-32h-290v32h72q27 0 27 27v299h-302v-299q0 -27 27 -27h72v-32h-290v32z" />
    <glyph glyph-name="Hbar" unicode="&#x126;" horiz-adv-x="804" 
d="M70 32h72q27 0 27 27v449h-113v36h113v109q0 27 -27 27h-72v32h290v-32h-72q-27 0 -27 -27v-109h302v109q0 27 -27 27h-72v32h290v-32h-72q-27 0 -27 -27v-109h113v-36h-113v-449q0 -27 27 -27h72v-32h-290v32h72q27 0 27 27v299h-302v-299q0 -27 27 -27h72v-32h-290v32z
M261 390h302v118h-302v-118z" />
    <glyph glyph-name="uni1E2A" unicode="&#x1e2a;" horiz-adv-x="788" 
d="M62 32h72q27 0 27 27v594q0 27 -27 27h-72v32h290v-32h-72q-27 0 -27 -27v-263h302v263q0 27 -27 27h-72v32h290v-32h-72q-27 0 -27 -27v-594q0 -27 27 -27h72v-32h-290v32h72q27 0 27 27v299h-302v-299q0 -27 27 -27h72v-32h-290v32zM328.5 -189.5q-31.5 23.5 -47 56.5
t-15.5 60h22q6 -40 33.5 -70t82.5 -30t82.5 30t33.5 70h22q0 -27 -15.5 -60t-47 -56.5t-75.5 -23.5t-75.5 23.5z" />
    <glyph glyph-name="Hcircumflex" unicode="&#x124;" horiz-adv-x="788" 
d="M246 778q91 52 138 142h40q47 -90 138 -142l-10 -16q-26 9 -71.5 38.5t-76.5 57.5q-31 -28 -76.5 -57.5t-71.5 -38.5zM62 32h72q27 0 27 27v594q0 27 -27 27h-72v32h290v-32h-72q-27 0 -27 -27v-263h302v263q0 27 -27 27h-72v32h290v-32h-72q-27 0 -27 -27v-594
q0 -27 27 -27h72v-32h-290v32h72q27 0 27 27v299h-302v-299q0 -27 27 -27h72v-32h-290v32z" />
    <glyph glyph-name="uni1E24" unicode="&#x1e24;" horiz-adv-x="788" 
d="M62 32h72q27 0 27 27v594q0 27 -27 27h-72v32h290v-32h-72q-27 0 -27 -27v-263h302v263q0 27 -27 27h-72v32h290v-32h-72q-27 0 -27 -27v-594q0 -27 27 -27h72v-32h-290v32h72q27 0 27 27v299h-302v-299q0 -27 27 -27h72v-32h-290v32zM367 -179.5q-15 14.5 -15 37.5
q0 22 15 37t37 15q23 0 37.5 -15t14.5 -37q0 -23 -14.5 -37.5t-37.5 -14.5q-22 0 -37 14.5z" />
    <glyph glyph-name="I" unicode="I" horiz-adv-x="394" 
d="M62 32h72q27 0 27 27v594q0 14 -6.5 20.5t-20.5 6.5h-72v32h290v-32h-72q-14 0 -20.5 -6.5t-6.5 -20.5v-594q0 -27 27 -27h72v-32h-290v32z" />
    <glyph glyph-name="Iacute" unicode="&#xcd;" horiz-adv-x="394" 
d="M183 773l92 133q13 18 24 25t25 7q13 0 20.5 -8.5t7.5 -22.5q0 -23 -28 -44l-128 -101zM62 32h72q27 0 27 27v594q0 14 -6.5 20.5t-20.5 6.5h-72v32h290v-32h-72q-14 0 -20.5 -6.5t-6.5 -20.5v-594q0 -27 27 -27h72v-32h-290v32z" />
    <glyph glyph-name="Ibreve" unicode="&#x12c;" horiz-adv-x="394" 
d="M124.5 786.5q-34.5 24.5 -51 60.5t-16.5 69h28q9 -42 40.5 -75t82.5 -33t82.5 33t40.5 75h28q0 -33 -16.5 -69t-51 -60.5t-83.5 -24.5t-83.5 24.5zM62 32h72q27 0 27 27v594q0 14 -6.5 20.5t-20.5 6.5h-72v32h290v-32h-72q-14 0 -20.5 -6.5t-6.5 -20.5v-594q0 -27 27 -27
h72v-32h-290v32z" />
    <glyph glyph-name="Icircumflex" unicode="&#xce;" horiz-adv-x="394" 
d="M50 778q91 52 138 142h40q47 -90 138 -142l-10 -16q-26 9 -71.5 38.5t-76.5 57.5q-31 -28 -76.5 -57.5t-71.5 -38.5zM62 32h72q27 0 27 27v594q0 14 -6.5 20.5t-20.5 6.5h-72v32h290v-32h-72q-14 0 -20.5 -6.5t-6.5 -20.5v-594q0 -27 27 -27h72v-32h-290v32z" />
    <glyph glyph-name="uni0208" unicode="&#x208;" horiz-adv-x="394" 
d="M24 863q-28 21 -28 44q0 14 7.5 22.5t20.5 8.5q14 0 25 -7t24 -25l92 -133l-13 -11zM160 863q-28 21 -28 44q0 14 7.5 22.5t20.5 8.5q14 0 25 -7t24 -25l92 -133l-13 -11zM62 32h72q27 0 27 27v594q0 14 -6.5 20.5t-20.5 6.5h-72v32h290v-32h-72q-14 0 -20.5 -6.5
t-6.5 -20.5v-594q0 -27 27 -27h72v-32h-290v32z" />
    <glyph glyph-name="Idieresis" unicode="&#xcf;" horiz-adv-x="394" 
d="M69 813q-15 15 -15 37q0 23 15 37.5t37 14.5q23 0 37.5 -14.5t14.5 -37.5q0 -22 -14.5 -37t-37.5 -15q-22 0 -37 15zM273 813q-15 15 -15 37q0 23 15 37.5t37 14.5q23 0 37.5 -14.5t14.5 -37.5q0 -22 -14.5 -37t-37.5 -15q-22 0 -37 15zM62 32h72q27 0 27 27v594
q0 14 -6.5 20.5t-20.5 6.5h-72v32h290v-32h-72q-14 0 -20.5 -6.5t-6.5 -20.5v-594q0 -27 27 -27h72v-32h-290v32z" />
    <glyph glyph-name="uni1E2E" unicode="&#x1e2e;" horiz-adv-x="394" 
d="M169 840l111 91q26 21 45 21q14 0 23 -10.5t9 -23.5q0 -16 -13 -25.5t-34 -16.5l-134 -48zM70.5 784.5q-12.5 12.5 -12.5 29.5t12.5 29.5t29.5 12.5t29.5 -12.5t12.5 -29.5t-12.5 -29.5t-29.5 -12.5t-29.5 12.5zM286.5 784.5q-12.5 12.5 -12.5 29.5t12.5 29.5t29.5 12.5
t29.5 -12.5t12.5 -29.5t-12.5 -29.5t-29.5 -12.5t-29.5 12.5zM62 32h72q27 0 27 27v594q0 14 -6.5 20.5t-20.5 6.5h-72v32h290v-32h-72q-14 0 -20.5 -6.5t-6.5 -20.5v-594q0 -27 27 -27h72v-32h-290v32z" />
    <glyph glyph-name="Idotaccent" unicode="&#x130;" horiz-adv-x="394" 
d="M171 813q-15 15 -15 37q0 23 15 37.5t37 14.5q23 0 37.5 -14.5t14.5 -37.5q0 -22 -14.5 -37t-37.5 -15q-22 0 -37 15zM62 32h72q27 0 27 27v594q0 14 -6.5 20.5t-20.5 6.5h-72v32h290v-32h-72q-14 0 -20.5 -6.5t-6.5 -20.5v-594q0 -27 27 -27h72v-32h-290v32z" />
    <glyph glyph-name="uni1ECA" unicode="&#x1eca;" horiz-adv-x="394" 
d="M62 32h72q27 0 27 27v594q0 14 -6.5 20.5t-20.5 6.5h-72v32h290v-32h-72q-14 0 -20.5 -6.5t-6.5 -20.5v-594q0 -27 27 -27h72v-32h-290v32zM159.5 -179.5q-14.5 14.5 -14.5 37.5q0 22 14.5 37t37.5 15q22 0 37 -15t15 -37q0 -23 -15 -37.5t-37 -14.5q-23 0 -37.5 14.5z
" />
    <glyph glyph-name="Igrave" unicode="&#xcc;" horiz-adv-x="394" 
d="M92 863q-28 21 -28 44q0 14 7.5 22.5t20.5 8.5q14 0 25 -7t24 -25l92 -133l-13 -11zM62 32h72q27 0 27 27v594q0 14 -6.5 20.5t-20.5 6.5h-72v32h290v-32h-72q-14 0 -20.5 -6.5t-6.5 -20.5v-594q0 -27 27 -27h72v-32h-290v32z" />
    <glyph glyph-name="uni1EC8" unicode="&#x1ec8;" horiz-adv-x="394" 
d="M62 32h72q27 0 27 27v594q0 14 -6.5 20.5t-20.5 6.5h-72v32h290v-32h-72q-14 0 -20.5 -6.5t-6.5 -20.5v-594q0 -27 27 -27h72v-32h-290v32zM214 817q27 23 27 58q0 24 -13.5 40t-40.5 16q-21 0 -37.5 -11t-16.5 -25q0 -10 3 -13q1 -1 2.5 -2t2.5 0q1 -1 4 1q3 1 4.5 0.5
t3.5 0.5q8 -1 13 -6t5 -13q0 -9 -7 -15.5t-20 -6.5q-12 0 -22 11t-10 29q0 27 24.5 45.5t54.5 19.5q38 -1 64.5 -19.5t26.5 -51.5q0 -27 -17 -46t-51 -43h-35z" />
    <glyph glyph-name="uni020A" unicode="&#x20a;" horiz-adv-x="394" 
d="M61 770q7 31 29 66.5t53 59.5t65 24t65 -24t53 -59.5t29 -66.5l-20 -8q-21 45 -54 73.5t-73 28.5t-73 -28.5t-54 -73.5zM62 32h72q27 0 27 27v594q0 14 -6.5 20.5t-20.5 6.5h-72v32h290v-32h-72q-14 0 -20.5 -6.5t-6.5 -20.5v-594q0 -27 27 -27h72v-32h-290v32z" />
    <glyph glyph-name="Imacron" unicode="&#x12a;" horiz-adv-x="394" 
d="M72 822v40h272v-40h-272zM62 32h72q27 0 27 27v594q0 14 -6.5 20.5t-20.5 6.5h-72v32h290v-32h-72q-14 0 -20.5 -6.5t-6.5 -20.5v-594q0 -27 27 -27h72v-32h-290v32z" />
    <glyph glyph-name="Iogonek" unicode="&#x12e;" horiz-adv-x="394" 
d="M195.5 -213.5q-25.5 24.5 -25.5 65.5q0 43 31.5 80t80.5 63l-2 5h-218v32h72q27 0 27 27v594q0 14 -6.5 20.5t-20.5 6.5h-72v32h290v-32h-72q-14 0 -20.5 -6.5t-6.5 -20.5v-594q0 -27 27 -27h72v-32h-18q-42 -21 -69 -55.5t-27 -79.5q0 -25 14 -42t38 -17q22 0 35.5 6.5
t26.5 20.5l12 -9q-13 -25 -38 -43.5t-61 -18.5q-44 0 -69.5 24.5z" />
    <glyph glyph-name="Itilde" unicode="&#x128;" horiz-adv-x="394" 
d="M52 810q3 38 25.5 65t60.5 27q29 0 90 -21q49 -17 72 -17q18 0 29 11t15 31l20 -2q-3 -38 -25.5 -65t-60.5 -27q-29 0 -90 21q-49 17 -72 17q-18 0 -29 -11t-15 -31zM62 32h72q27 0 27 27v594q0 14 -6.5 20.5t-20.5 6.5h-72v32h290v-32h-72q-14 0 -20.5 -6.5t-6.5 -20.5
v-594q0 -27 27 -27h72v-32h-290v32z" />
    <glyph glyph-name="J" unicode="J" horiz-adv-x="540" 
d="M92 20q-48 38 -48 105q0 30 13 51t32.5 31.5t37.5 10.5q29 0 43 -14.5t14 -35.5t-11.5 -32.5t-36.5 -19.5q-17 -5 -24.5 -12t-7.5 -22q0 -31 32 -49.5t78 -18.5q49 0 76 38t27 91v510q0 14 -6.5 20.5t-20.5 6.5h-72v32h290v-32h-72q-14 0 -20.5 -6.5t-6.5 -20.5v-459
q0 -66 -27 -114t-71.5 -73t-96.5 -25q-74 0 -122 38z" />
    <glyph glyph-name="Jcircumflex" unicode="&#x134;" horiz-adv-x="540" 
d="M204 778q91 52 138 142h40q47 -90 138 -142l-10 -16q-26 9 -71.5 38.5t-76.5 57.5q-31 -28 -76.5 -57.5t-71.5 -38.5zM92 20q-48 38 -48 105q0 30 13 51t32.5 31.5t37.5 10.5q29 0 43 -14.5t14 -35.5t-11.5 -32.5t-36.5 -19.5q-17 -5 -24.5 -12t-7.5 -22q0 -31 32 -49.5
t78 -18.5q49 0 76 38t27 91v510q0 14 -6.5 20.5t-20.5 6.5h-72v32h290v-32h-72q-14 0 -20.5 -6.5t-6.5 -20.5v-459q0 -66 -27 -114t-71.5 -73t-96.5 -25q-74 0 -122 38z" />
    <glyph glyph-name="K" unicode="K" horiz-adv-x="756" 
d="M62 32h72q27 0 27 27v594q0 14 -6.5 20.5t-20.5 6.5h-72v32h285v-32h-67q-14 0 -20.5 -6.5t-6.5 -20.5v-310l230 235q13 14 19 28t6 32t-13 30t-32 12h-27v32h264v-32h-40q-33 0 -90 -59l-168 -170l204 -375q13 -25 29 -34.5t46 -9.5h33v-32h-302v32h67q11 0 19 6.5
t8 14.5q0 6 -2 13.5t-5 11.5l-163 306l-83 -84v-241q0 -27 27 -27h67v-32h-285v32z" />
    <glyph glyph-name="Kcommaaccent" unicode="&#x136;" horiz-adv-x="756" 
d="M62 32h72q27 0 27 27v594q0 14 -6.5 20.5t-20.5 6.5h-72v32h285v-32h-67q-14 0 -20.5 -6.5t-6.5 -20.5v-310l230 235q13 14 19 28t6 32t-13 30t-32 12h-27v32h264v-32h-40q-33 0 -90 -59l-168 -170l204 -375q13 -25 29 -34.5t46 -9.5h33v-32h-302v32h67q11 0 19 6.5
t8 14.5q0 6 -2 13.5t-5 11.5l-163 306l-83 -84v-241q0 -27 27 -27h67v-32h-285v32zM334 -227q26 12 45.5 33.5t19.5 41.5q0 16 -8 22q-6 4 -24 4q-16 0 -25.5 13t-9.5 28q0 21 13.5 33t33.5 12q26 0 41.5 -19t15.5 -47q0 -43 -27.5 -80t-64.5 -52z" />
    <glyph glyph-name="L" unicode="L" horiz-adv-x="670" 
d="M62 32h72q27 0 27 27v594q0 14 -6.5 20.5t-20.5 6.5h-72v32h306v-32h-88q-14 0 -20.5 -6.5t-6.5 -20.5v-594q0 -27 27 -27h101q53 0 95 24t63 70q16 34 26.5 72.5t15.5 65.5t6 34h25l-9 -298h-541v32z" />
    <glyph glyph-name="uni01C7" unicode="&#x1c7;" horiz-adv-x="1210" 
d="M62 32h72q27 0 27 27v594q0 14 -6.5 20.5t-20.5 6.5h-72v32h306v-32h-88q-14 0 -20.5 -6.5t-6.5 -20.5v-594q0 -27 27 -27h101q53 0 95 24t63 70q16 34 26.5 72.5t15.5 65.5t6 34h25l-9 -298h-541v32zM762 20q-48 38 -48 105q0 30 13 51t32.5 31.5t37.5 10.5
q29 0 43 -14.5t14 -35.5t-11.5 -32.5t-36.5 -19.5q-17 -5 -24.5 -12t-7.5 -22q0 -31 32 -49.5t78 -18.5q49 0 76 38t27 91v510q0 14 -6.5 20.5t-20.5 6.5h-72v32h290v-32h-72q-14 0 -20.5 -6.5t-6.5 -20.5v-459q0 -66 -27 -114t-71.5 -73t-96.5 -25q-74 0 -122 38z" />
    <glyph glyph-name="Lacute" unicode="&#x139;" horiz-adv-x="670" 
d="M195 773l92 133q13 18 24 25t25 7q13 0 20.5 -8.5t7.5 -22.5q0 -23 -28 -44l-128 -101zM62 32h72q27 0 27 27v594q0 14 -6.5 20.5t-20.5 6.5h-72v32h306v-32h-88q-14 0 -20.5 -6.5t-6.5 -20.5v-594q0 -27 27 -27h101q53 0 95 24t63 70q16 34 26.5 72.5t15.5 65.5t6 34h25
l-9 -298h-541v32z" />
    <glyph glyph-name="Lcaron" unicode="&#x13d;" horiz-adv-x="690" 
d="M546 500q31 15 53.5 41t22.5 49q0 16 -10 24q-8 6 -28 6q-18 0 -29 15t-11 33q0 25 15.5 38.5t38.5 13.5q30 0 48 -21.5t18 -54.5q0 -50 -31.5 -92.5t-74.5 -63.5zM62 32h72q27 0 27 27v594q0 14 -6.5 20.5t-20.5 6.5h-72v32h306v-32h-88q-14 0 -20.5 -6.5t-6.5 -20.5
v-594q0 -27 27 -27h101q53 0 95 24t63 70q16 34 26.5 72.5t15.5 65.5t6 34h25l-9 -298h-541v32z" />
    <glyph glyph-name="Lcommaaccent" unicode="&#x13b;" horiz-adv-x="670" 
d="M62 32h72q27 0 27 27v594q0 14 -6.5 20.5t-20.5 6.5h-72v32h306v-32h-88q-14 0 -20.5 -6.5t-6.5 -20.5v-594q0 -27 27 -27h101q53 0 95 24t63 70q16 34 26.5 72.5t15.5 65.5t6 34h25l-9 -298h-541v32zM292 -227q26 12 45.5 33.5t19.5 41.5q0 16 -8 22q-6 4 -24 4
q-16 0 -25.5 13t-9.5 28q0 21 13.5 33t33.5 12q26 0 41.5 -19t15.5 -47q0 -43 -27.5 -80t-64.5 -52z" />
    <glyph glyph-name="Ldot" unicode="&#x13f;" horiz-adv-x="670" 
d="M62 32h72q27 0 27 27v594q0 14 -6.5 20.5t-20.5 6.5h-72v32h306v-32h-88q-14 0 -20.5 -6.5t-6.5 -20.5v-594q0 -27 27 -27h101q53 0 95 24t63 70q16 34 26.5 72.5t15.5 65.5t6 34h25l-9 -298h-541v32zM495 357q-15 15 -15 37q0 23 15 37.5t37 14.5q23 0 37.5 -14.5
t14.5 -37.5q0 -22 -14.5 -37t-37.5 -15q-22 0 -37 15z" />
    <glyph glyph-name="uni1E36" unicode="&#x1e36;" horiz-adv-x="670" 
d="M62 32h72q27 0 27 27v594q0 14 -6.5 20.5t-20.5 6.5h-72v32h306v-32h-88q-14 0 -20.5 -6.5t-6.5 -20.5v-594q0 -27 27 -27h101q53 0 95 24t63 70q16 34 26.5 72.5t15.5 65.5t6 34h25l-9 -298h-541v32zM331 -179.5q-15 14.5 -15 37.5q0 22 15 37t37 15q23 0 37.5 -15
t14.5 -37q0 -23 -14.5 -37.5t-37.5 -14.5q-22 0 -37 14.5z" />
    <glyph glyph-name="uni01C8" unicode="&#x1c8;" horiz-adv-x="990" 
d="M62 32h72q27 0 27 27v594q0 14 -6.5 20.5t-20.5 6.5h-72v32h306v-32h-88q-14 0 -20.5 -6.5t-6.5 -20.5v-594q0 -27 27 -27h101q53 0 95 24t63 70q16 34 26.5 72.5t15.5 65.5t6 34h25l-9 -298h-541v32zM809 595q-15 15 -15 37q0 23 15 37.5t37 14.5q23 0 37.5 -14.5
t14.5 -37.5q0 -22 -14.5 -37t-37.5 -15q-22 0 -37 15zM662.5 -212.5q-30.5 25.5 -30.5 68.5q0 27 15.5 45.5t37.5 18.5q17 0 27 -9.5t10 -24.5q0 -12 -5.5 -20.5t-15.5 -17.5q-15 -14 -15 -30q0 -17 15.5 -24.5t35.5 -7.5q33 0 56 32t23 111v481q0 12 -5 17t-17 5h-72v24
h166v-499q0 -67 -22.5 -111t-57.5 -64t-73 -20q-42 0 -72.5 25.5z" />
    <glyph glyph-name="uni1E3A" unicode="&#x1e3a;" horiz-adv-x="670" 
d="M62 32h72q27 0 27 27v594q0 14 -6.5 20.5t-20.5 6.5h-72v32h306v-32h-88q-14 0 -20.5 -6.5t-6.5 -20.5v-594q0 -27 27 -27h101q53 0 95 24t63 70q16 34 26.5 72.5t15.5 65.5t6 34h25l-9 -298h-541v32zM238 -166v40h260v-40h-260z" />
    <glyph glyph-name="Lslash" unicode="&#x141;" horiz-adv-x="691" 
d="M62 32h72q27 0 27 27v253l-75 -44l-18 32l93 54v299q0 14 -6.5 20.5t-20.5 6.5h-72v32h306v-32h-88q-14 0 -20.5 -6.5t-6.5 -20.5v-245l137 80l18 -32l-155 -90v-307q0 -27 27 -27h101q53 0 95 24t63 70q16 34 26.5 72.5t15.5 65.5t6 34h25l-9 -298h-541v32z" />
    <glyph glyph-name="M" unicode="M" horiz-adv-x="838" 
d="M207 622h-6v-510q0 -37 17.5 -58.5t45.5 -21.5h36v-32h-238v32h36q28 0 45.5 21.5t17.5 58.5v541q0 14 -6.5 20.5t-20.5 6.5h-72v32h212l163 -551l152 551h207v-32h-72q-14 0 -20.5 -6.5t-6.5 -20.5v-594q0 -27 27 -27h72v-32h-290v32h72q27 0 27 27v590l-183 -661h-24z
" />
    <glyph glyph-name="uni1E42" unicode="&#x1e42;" horiz-adv-x="838" 
d="M207 622h-6v-510q0 -37 17.5 -58.5t45.5 -21.5h36v-32h-238v32h36q28 0 45.5 21.5t17.5 58.5v541q0 14 -6.5 20.5t-20.5 6.5h-72v32h212l163 -551l152 551h207v-32h-72q-14 0 -20.5 -6.5t-6.5 -20.5v-594q0 -27 27 -27h72v-32h-290v32h72q27 0 27 27v590l-183 -661h-24z
M375 -179.5q-15 14.5 -15 37.5q0 22 15 37t37 15q23 0 37.5 -15t14.5 -37q0 -23 -14.5 -37.5t-37.5 -14.5q-22 0 -37 14.5z" />
    <glyph glyph-name="N" unicode="N" horiz-adv-x="770" 
d="M205 603h-4v-491q0 -37 17.5 -58.5t45.5 -21.5h36v-32h-238v32h36q29 0 46 21.5t17 58.5v541q-1 14 -7 20.5t-20 6.5h-72v32h189l347 -558v446q0 37 -17 58.5t-45 21.5h-36v32h238v-32h-36q-28 0 -46 -21.5t-18 -58.5v-618h-40z" />
    <glyph glyph-name="uni01CA" unicode="&#x1ca;" horiz-adv-x="1310" 
d="M205 603h-4v-491q0 -37 17.5 -58.5t45.5 -21.5h36v-32h-238v32h36q29 0 46 21.5t17 58.5v541q-1 14 -7 20.5t-20 6.5h-72v32h189l347 -558v446q0 37 -17 58.5t-45 21.5h-36v32h238v-32h-36q-28 0 -46 -21.5t-18 -58.5v-618h-40zM862 20q-48 38 -48 105q0 30 13 51
t32.5 31.5t37.5 10.5q29 0 43 -14.5t14 -35.5t-11.5 -32.5t-36.5 -19.5q-17 -5 -24.5 -12t-7.5 -22q0 -31 32 -49.5t78 -18.5q49 0 76 38t27 91v510q0 14 -6.5 20.5t-20.5 6.5h-72v32h290v-32h-72q-14 0 -20.5 -6.5t-6.5 -20.5v-459q0 -66 -27 -114t-71.5 -73t-96.5 -25
q-74 0 -122 38z" />
    <glyph glyph-name="Nacute" unicode="&#x143;" horiz-adv-x="770" 
d="M391 773l92 133q13 18 24 25t25 7q13 0 20.5 -8.5t7.5 -22.5q0 -23 -28 -44l-128 -101zM205 603h-4v-491q0 -37 17.5 -58.5t45.5 -21.5h36v-32h-238v32h36q29 0 46 21.5t17 58.5v541q-1 14 -7 20.5t-20 6.5h-72v32h189l347 -558v446q0 37 -17 58.5t-45 21.5h-36v32h238
v-32h-36q-28 0 -46 -21.5t-18 -58.5v-618h-40z" />
    <glyph glyph-name="Ncaron" unicode="&#x147;" horiz-adv-x="770" 
d="M396 762l-140 144l12 14l148 -96l148 96l12 -14l-140 -144h-40zM205 603h-4v-491q0 -37 17.5 -58.5t45.5 -21.5h36v-32h-238v32h36q29 0 46 21.5t17 58.5v541q-1 14 -7 20.5t-20 6.5h-72v32h189l347 -558v446q0 37 -17 58.5t-45 21.5h-36v32h238v-32h-36q-28 0 -46 -21.5
t-18 -58.5v-618h-40z" />
    <glyph glyph-name="Ncommaaccent" unicode="&#x145;" horiz-adv-x="770" 
d="M205 603h-4v-491q0 -37 17.5 -58.5t45.5 -21.5h36v-32h-238v32h36q29 0 46 21.5t17 58.5v541q-1 14 -7 20.5t-20 6.5h-72v32h189l347 -558v446q0 37 -17 58.5t-45 21.5h-36v32h238v-32h-36q-28 0 -46 -21.5t-18 -58.5v-618h-40zM366 -227q26 12 45.5 33.5t19.5 41.5
q0 16 -8 22q-6 4 -24 4q-16 0 -25.5 13t-9.5 28q0 21 13.5 33t33.5 12q26 0 41.5 -19t15.5 -47q0 -43 -27.5 -80t-64.5 -52z" />
    <glyph glyph-name="uni1E44" unicode="&#x1e44;" horiz-adv-x="770" 
d="M379 813q-15 15 -15 37q0 23 15 37.5t37 14.5q23 0 37.5 -14.5t14.5 -37.5q0 -22 -14.5 -37t-37.5 -15q-22 0 -37 15zM205 603h-4v-491q0 -37 17.5 -58.5t45.5 -21.5h36v-32h-238v32h36q29 0 46 21.5t17 58.5v541q-1 14 -7 20.5t-20 6.5h-72v32h189l347 -558v446
q0 37 -17 58.5t-45 21.5h-36v32h238v-32h-36q-28 0 -46 -21.5t-18 -58.5v-618h-40z" />
    <glyph glyph-name="uni1E46" unicode="&#x1e46;" horiz-adv-x="770" 
d="M205 603h-4v-491q0 -37 17.5 -58.5t45.5 -21.5h36v-32h-238v32h36q29 0 46 21.5t17 58.5v541q-1 14 -7 20.5t-20 6.5h-72v32h189l347 -558v446q0 37 -17 58.5t-45 21.5h-36v32h238v-32h-36q-28 0 -46 -21.5t-18 -58.5v-618h-40zM379 -179.5q-15 14.5 -15 37.5q0 22 15 37
t37 15q23 0 37.5 -15t14.5 -37q0 -23 -14.5 -37.5t-37.5 -14.5q-22 0 -37 14.5z" />
    <glyph glyph-name="Eng" unicode="&#x14a;" horiz-adv-x="770" 
d="M417.5 -213q-30.5 25 -30.5 60q0 19 11 31t27 12q19 0 28 -13t12 -35q5 -23 17 -35.5t30 -12.5q32 0 59 23t27 67v98l-393 621h-4v-491q0 -37 17.5 -58.5t45.5 -21.5h36v-32h-238v32h36q29 0 46 21.5t17 58.5v541q-1 14 -7 20.5t-20 6.5h-72v32h189l347 -558v446
q0 37 -17 58.5t-45 21.5h-36v32h238v-32h-36q-28 0 -46 -21.5t-18 -58.5v-699q0 -62 -39.5 -100.5t-105.5 -38.5q-45 0 -75.5 25z" />
    <glyph glyph-name="uni01CB" unicode="&#x1cb;" horiz-adv-x="1090" 
d="M205 603h-4v-491q0 -37 17.5 -58.5t45.5 -21.5h36v-32h-238v32h36q29 0 46 21.5t17 58.5v541q-1 14 -7 20.5t-20 6.5h-72v32h189l347 -558v446q0 37 -17 58.5t-45 21.5h-36v32h238v-32h-36q-28 0 -46 -21.5t-18 -58.5v-618h-40zM909 595q-15 15 -15 37q0 23 15 37.5
t37 14.5q23 0 37.5 -14.5t14.5 -37.5q0 -22 -14.5 -37t-37.5 -15q-22 0 -37 15zM762.5 -212.5q-30.5 25.5 -30.5 68.5q0 27 15.5 45.5t37.5 18.5q17 0 27 -9.5t10 -24.5q0 -12 -5.5 -20.5t-15.5 -17.5q-15 -14 -15 -30q0 -17 15.5 -24.5t35.5 -7.5q33 0 56 32t23 111v481
q0 12 -5 17t-17 5h-72v24h166v-499q0 -67 -22.5 -111t-57.5 -64t-73 -20q-42 0 -72.5 25.5z" />
    <glyph glyph-name="uni1E48" unicode="&#x1e48;" horiz-adv-x="770" 
d="M205 603h-4v-491q0 -37 17.5 -58.5t45.5 -21.5h36v-32h-238v32h36q29 0 46 21.5t17 58.5v541q-1 14 -7 20.5t-20 6.5h-72v32h189l347 -558v446q0 37 -17 58.5t-45 21.5h-36v32h238v-32h-36q-28 0 -46 -21.5t-18 -58.5v-618h-40zM286 -166v40h260v-40h-260z" />
    <glyph glyph-name="Ntilde" unicode="&#xd1;" horiz-adv-x="770" 
d="M260 810q3 38 25.5 65t60.5 27q29 0 90 -21q49 -17 72 -17q18 0 29 11t15 31l20 -2q-3 -38 -25.5 -65t-60.5 -27q-29 0 -90 21q-49 17 -72 17q-18 0 -29 -11t-15 -31zM205 603h-4v-491q0 -37 17.5 -58.5t45.5 -21.5h36v-32h-238v32h36q29 0 46 21.5t17 58.5v541
q-1 14 -7 20.5t-20 6.5h-72v32h189l347 -558v446q0 37 -17 58.5t-45 21.5h-36v32h238v-32h-36q-28 0 -46 -21.5t-18 -58.5v-618h-40z" />
    <glyph glyph-name="O" unicode="O" horiz-adv-x="700" 
d="M210 35q-66 53 -103 139.5t-37 181.5t37 181.5t103 139.5t150 53t150 -53t103 -139.5t37 -181.5t-37 -181.5t-103 -139.5t-150 -53t-150 53zM501 103.5q43 89.5 43 252.5q0 164 -43 253t-141 89t-141 -89t-43 -253q0 -163 43 -252.5t141 -89.5t141 89.5z" />
    <glyph glyph-name="Oacute" unicode="&#xd3;" horiz-adv-x="700" 
d="M335 773l92 133q13 18 24 25t25 7q13 0 20.5 -8.5t7.5 -22.5q0 -23 -28 -44l-128 -101zM210 35q-66 53 -103 139.5t-37 181.5t37 181.5t103 139.5t150 53t150 -53t103 -139.5t37 -181.5t-37 -181.5t-103 -139.5t-150 -53t-150 53zM501 103.5q43 89.5 43 252.5
q0 164 -43 253t-141 89t-141 -89t-43 -253q0 -163 43 -252.5t141 -89.5t141 89.5z" />
    <glyph glyph-name="Obreve" unicode="&#x14e;" horiz-adv-x="700" 
d="M276.5 786.5q-34.5 24.5 -51 60.5t-16.5 69h28q9 -42 40.5 -75t82.5 -33t82.5 33t40.5 75h28q0 -33 -16.5 -69t-51 -60.5t-83.5 -24.5t-83.5 24.5zM210 35q-66 53 -103 139.5t-37 181.5t37 181.5t103 139.5t150 53t150 -53t103 -139.5t37 -181.5t-37 -181.5t-103 -139.5
t-150 -53t-150 53zM501 103.5q43 89.5 43 252.5q0 164 -43 253t-141 89t-141 -89t-43 -253q0 -163 43 -252.5t141 -89.5t141 89.5z" />
    <glyph glyph-name="Ocircumflex" unicode="&#xd4;" horiz-adv-x="700" 
d="M202 778q91 52 138 142h40q47 -90 138 -142l-10 -16q-26 9 -71.5 38.5t-76.5 57.5q-31 -28 -76.5 -57.5t-71.5 -38.5zM210 35q-66 53 -103 139.5t-37 181.5t37 181.5t103 139.5t150 53t150 -53t103 -139.5t37 -181.5t-37 -181.5t-103 -139.5t-150 -53t-150 53zM501 103.5
q43 89.5 43 252.5q0 164 -43 253t-141 89t-141 -89t-43 -253q0 -163 43 -252.5t141 -89.5t141 89.5z" />
    <glyph glyph-name="uni1ED0" unicode="&#x1ed0;" horiz-adv-x="700" 
d="M210 35q-66 53 -103 139.5t-37 181.5t37 181.5t103 139.5t150 53t150 -53t103 -139.5t37 -181.5t-37 -181.5t-103 -139.5t-150 -53t-150 53zM501 103.5q43 89.5 43 252.5q0 164 -43 253t-141 89t-141 -89t-43 -253q0 -163 43 -252.5t141 -89.5t141 89.5zM219 777
q75 49 111 151h40q36 -102 111 -151l-9 -13q-69 36 -122 92q-54 -57 -122 -92zM453 866l92 133q13 18 24 25t25 7q13 0 20.5 -8.5t7.5 -22.5q0 -23 -28 -44l-128 -101z" />
    <glyph glyph-name="uni1ED8" unicode="&#x1ed8;" horiz-adv-x="700" 
d="M210 35q-66 53 -103 139.5t-37 181.5t37 181.5t103 139.5t150 53t150 -53t103 -139.5t37 -181.5t-37 -181.5t-103 -139.5t-150 -53t-150 53zM501 103.5q43 89.5 43 252.5q0 164 -43 253t-141 89t-141 -89t-43 -253q0 -163 43 -252.5t141 -89.5t141 89.5zM312.5 -179.5
q-14.5 14.5 -14.5 37.5q0 22 14.5 37t37.5 15q22 0 37 -15t15 -37q0 -23 -15 -37.5t-37 -14.5q-23 0 -37.5 14.5zM192 778q91 52 138 142h40q47 -90 138 -142l-10 -16q-26 9 -71.5 38.5t-76.5 57.5q-31 -28 -76.5 -57.5t-71.5 -38.5z" />
    <glyph glyph-name="uni1ED2" unicode="&#x1ed2;" horiz-adv-x="700" 
d="M210 35q-66 53 -103 139.5t-37 181.5t37 181.5t103 139.5t150 53t150 -53t103 -139.5t37 -181.5t-37 -181.5t-103 -139.5t-150 -53t-150 53zM501 103.5q43 89.5 43 252.5q0 164 -43 253t-141 89t-141 -89t-43 -253q0 -163 43 -252.5t141 -89.5t141 89.5zM219 777
q75 49 111 151h40q36 -102 111 -151l-9 -13q-69 36 -122 92q-54 -57 -122 -92zM329 1014q-28 21 -28 44q0 14 7.5 22.5t20.5 8.5q14 0 25 -7t24 -25l92 -133l-13 -11z" />
    <glyph glyph-name="uni1ED4" unicode="&#x1ed4;" horiz-adv-x="700" 
d="M210 35q-66 53 -103 139.5t-37 181.5t37 181.5t103 139.5t150 53t150 -53t103 -139.5t37 -181.5t-37 -181.5t-103 -139.5t-150 -53t-150 53zM501 103.5q43 89.5 43 252.5q0 164 -43 253t-141 89t-141 -89t-43 -253q0 -163 43 -252.5t141 -89.5t141 89.5zM219 777
q75 49 111 151h40q36 -102 111 -151l-9 -13q-69 36 -122 92q-54 -57 -122 -92zM471 938q27 23 27 58q0 24 -13.5 40t-40.5 16q-21 0 -37.5 -11t-16.5 -25q0 -10 3 -13q1 -1 2.5 -2t2.5 0q1 -1 4 1q3 1 4.5 0.5t3.5 0.5q8 -1 13 -6t5 -13q0 -9 -7 -15.5t-20 -6.5
q-12 0 -22 11t-10 29q0 27 24.5 45.5t54.5 19.5q38 -1 64.5 -19.5t26.5 -51.5q0 -27 -17 -46t-51 -43h-35z" />
    <glyph glyph-name="uni1ED6" unicode="&#x1ed6;" horiz-adv-x="700" 
d="M210 35q-66 53 -103 139.5t-37 181.5t37 181.5t103 139.5t150 53t150 -53t103 -139.5t37 -181.5t-37 -181.5t-103 -139.5t-150 -53t-150 53zM501 103.5q43 89.5 43 252.5q0 164 -43 253t-141 89t-141 -89t-43 -253q0 -163 43 -252.5t141 -89.5t141 89.5zM219 777
q75 49 111 151h40q36 -102 111 -151l-9 -13q-69 36 -122 92q-54 -57 -122 -92zM230 959q6 36 28 62t58 26q19 0 36 -5.5t39 -14.5q19 -8 32 -12t28 -4q34 0 46 42l17 -4q-6 -36 -28 -62t-58 -26q-19 0 -36 5.5t-39 14.5q-19 8 -32 12t-28 4q-34 0 -46 -42z" />
    <glyph glyph-name="uni020C" unicode="&#x20c;" horiz-adv-x="700" 
d="M176 863q-28 21 -28 44q0 14 7.5 22.5t20.5 8.5q14 0 25 -7t24 -25l92 -133l-13 -11zM312 863q-28 21 -28 44q0 14 7.5 22.5t20.5 8.5q14 0 25 -7t24 -25l92 -133l-13 -11zM210 35q-66 53 -103 139.5t-37 181.5t37 181.5t103 139.5t150 53t150 -53t103 -139.5t37 -181.5
t-37 -181.5t-103 -139.5t-150 -53t-150 53zM501 103.5q43 89.5 43 252.5q0 164 -43 253t-141 89t-141 -89t-43 -253q0 -163 43 -252.5t141 -89.5t141 89.5z" />
    <glyph glyph-name="Odieresis" unicode="&#xd6;" horiz-adv-x="700" 
d="M221 813q-15 15 -15 37q0 23 15 37.5t37 14.5q23 0 37.5 -14.5t14.5 -37.5q0 -22 -14.5 -37t-37.5 -15q-22 0 -37 15zM425 813q-15 15 -15 37q0 23 15 37.5t37 14.5q23 0 37.5 -14.5t14.5 -37.5q0 -22 -14.5 -37t-37.5 -15q-22 0 -37 15zM210 35q-66 53 -103 139.5
t-37 181.5t37 181.5t103 139.5t150 53t150 -53t103 -139.5t37 -181.5t-37 -181.5t-103 -139.5t-150 -53t-150 53zM501 103.5q43 89.5 43 252.5q0 164 -43 253t-141 89t-141 -89t-43 -253q0 -163 43 -252.5t141 -89.5t141 89.5z" />
    <glyph glyph-name="uni1ECC" unicode="&#x1ecc;" horiz-adv-x="700" 
d="M210 35q-66 53 -103 139.5t-37 181.5t37 181.5t103 139.5t150 53t150 -53t103 -139.5t37 -181.5t-37 -181.5t-103 -139.5t-150 -53t-150 53zM501 103.5q43 89.5 43 252.5q0 164 -43 253t-141 89t-141 -89t-43 -253q0 -163 43 -252.5t141 -89.5t141 89.5zM312.5 -179.5
q-14.5 14.5 -14.5 37.5q0 22 14.5 37t37.5 15q22 0 37 -15t15 -37q0 -23 -15 -37.5t-37 -14.5q-23 0 -37.5 14.5z" />
    <glyph glyph-name="Ograve" unicode="&#xd2;" horiz-adv-x="700" 
d="M244 863q-28 21 -28 44q0 14 7.5 22.5t20.5 8.5q14 0 25 -7t24 -25l92 -133l-13 -11zM210 35q-66 53 -103 139.5t-37 181.5t37 181.5t103 139.5t150 53t150 -53t103 -139.5t37 -181.5t-37 -181.5t-103 -139.5t-150 -53t-150 53zM501 103.5q43 89.5 43 252.5
q0 164 -43 253t-141 89t-141 -89t-43 -253q0 -163 43 -252.5t141 -89.5t141 89.5z" />
    <glyph glyph-name="uni1ECE" unicode="&#x1ece;" horiz-adv-x="700" 
d="M210 35q-66 53 -103 139.5t-37 181.5t37 181.5t103 139.5t150 53t150 -53t103 -139.5t37 -181.5t-37 -181.5t-103 -139.5t-150 -53t-150 53zM501 103.5q43 89.5 43 252.5q0 164 -43 253t-141 89t-141 -89t-43 -253q0 -163 43 -252.5t141 -89.5t141 89.5zM367 817
q27 23 27 58q0 24 -13.5 40t-40.5 16q-21 0 -37.5 -11t-16.5 -25q0 -10 3 -13q1 -1 2.5 -2t2.5 0q1 -1 4 1q3 1 4.5 0.5t3.5 0.5q8 -1 13 -6t5 -13q0 -9 -7 -15.5t-20 -6.5q-12 0 -22 11t-10 29q0 27 24.5 45.5t54.5 19.5q38 -1 64.5 -19.5t26.5 -51.5q0 -27 -17 -46
t-51 -43h-35z" />
    <glyph glyph-name="Ohorn" unicode="&#x1a0;" horiz-adv-x="700" 
d="M605 555q45 -93 45 -199q0 -95 -37 -181.5t-103 -139.5t-150 -53t-150 53t-103 139.5t-37 181.5t37 181.5t103 139.5t150 53q48 0 90 -18q44 2 58.5 25t13.5 75h63l1 -15q0 -46 -27.5 -71t-74.5 -31q76 -47 121 -140zM501 103.5q43 89.5 43 252.5q0 164 -43 253t-141 89
t-141 -89t-43 -253q0 -163 43 -252.5t141 -89.5t141 89.5z" />
    <glyph glyph-name="uni1EDA" unicode="&#x1eda;" horiz-adv-x="700" 
d="M605 555q45 -93 45 -199q0 -95 -37 -181.5t-103 -139.5t-150 -53t-150 53t-103 139.5t-37 181.5t37 181.5t103 139.5t150 53q48 0 90 -18q44 2 58.5 25t13.5 75h63l1 -15q0 -46 -27.5 -71t-74.5 -31q76 -47 121 -140zM501 103.5q43 89.5 43 252.5q0 164 -43 253t-141 89
t-141 -89t-43 -253q0 -163 43 -252.5t141 -89.5t141 89.5zM337 773l92 133q13 18 24 25t25 7q13 0 20.5 -8.5t7.5 -22.5q0 -23 -28 -44l-128 -101z" />
    <glyph glyph-name="uni1EE2" unicode="&#x1ee2;" horiz-adv-x="700" 
d="M605 555q45 -93 45 -199q0 -95 -37 -181.5t-103 -139.5t-150 -53t-150 53t-103 139.5t-37 181.5t37 181.5t103 139.5t150 53q48 0 90 -18q44 2 58.5 25t13.5 75h63l1 -15q0 -46 -27.5 -71t-74.5 -31q76 -47 121 -140zM501 103.5q43 89.5 43 252.5q0 164 -43 253t-141 89
t-141 -89t-43 -253q0 -163 43 -252.5t141 -89.5t141 89.5zM312.5 -179.5q-14.5 14.5 -14.5 37.5q0 22 14.5 37t37.5 15q22 0 37 -15t15 -37q0 -23 -15 -37.5t-37 -14.5q-23 0 -37.5 14.5z" />
    <glyph glyph-name="uni1EDC" unicode="&#x1edc;" horiz-adv-x="700" 
d="M605 555q45 -93 45 -199q0 -95 -37 -181.5t-103 -139.5t-150 -53t-150 53t-103 139.5t-37 181.5t37 181.5t103 139.5t150 53q48 0 90 -18q44 2 58.5 25t13.5 75h63l1 -15q0 -46 -27.5 -71t-74.5 -31q76 -47 121 -140zM501 103.5q43 89.5 43 252.5q0 164 -43 253t-141 89
t-141 -89t-43 -253q0 -163 43 -252.5t141 -89.5t141 89.5zM223 863q-28 21 -28 44q0 14 7.5 22.5t20.5 8.5q14 0 25 -7t24 -25l92 -133l-13 -11z" />
    <glyph glyph-name="uni1EDE" unicode="&#x1ede;" horiz-adv-x="700" 
d="M605 555q45 -93 45 -199q0 -95 -37 -181.5t-103 -139.5t-150 -53t-150 53t-103 139.5t-37 181.5t37 181.5t103 139.5t150 53q48 0 90 -18q44 2 58.5 25t13.5 75h63l1 -15q0 -46 -27.5 -71t-74.5 -31q76 -47 121 -140zM501 103.5q43 89.5 43 252.5q0 164 -43 253t-141 89
t-141 -89t-43 -253q0 -163 43 -252.5t141 -89.5t141 89.5zM367 817q27 23 27 58q0 24 -13.5 40t-40.5 16q-21 0 -37.5 -11t-16.5 -25q0 -10 3 -13q1 -1 2.5 -2t2.5 0q1 -1 4 1q3 1 4.5 0.5t3.5 0.5q8 -1 13 -6t5 -13q0 -9 -7 -15.5t-20 -6.5q-12 0 -22 11t-10 29
q0 27 24.5 45.5t54.5 19.5q38 -1 64.5 -19.5t26.5 -51.5q0 -27 -17 -46t-51 -43h-35z" />
    <glyph glyph-name="uni1EE0" unicode="&#x1ee0;" horiz-adv-x="700" 
d="M605 555q45 -93 45 -199q0 -95 -37 -181.5t-103 -139.5t-150 -53t-150 53t-103 139.5t-37 181.5t37 181.5t103 139.5t150 53q48 0 90 -18q44 2 58.5 25t13.5 75h63l1 -15q0 -46 -27.5 -71t-74.5 -31q76 -47 121 -140zM501 103.5q43 89.5 43 252.5q0 164 -43 253t-141 89
t-141 -89t-43 -253q0 -163 43 -252.5t141 -89.5t141 89.5zM194 810q3 38 25.5 65t60.5 27q29 0 90 -21q49 -17 72 -17q18 0 29 11t15 31l20 -2q-3 -38 -25.5 -65t-60.5 -27q-29 0 -90 21q-49 17 -72 17q-18 0 -29 -11t-15 -31z" />
    <glyph glyph-name="Ohungarumlaut" unicode="&#x150;" horiz-adv-x="700" 
d="M267 773l92 133q13 18 24 25t25 7q13 0 20.5 -8.5t7.5 -22.5q0 -23 -28 -44l-128 -101zM403 773l92 133q13 18 24 25t25 7q13 0 20.5 -8.5t7.5 -22.5q0 -23 -28 -44l-128 -101zM210 35q-66 53 -103 139.5t-37 181.5t37 181.5t103 139.5t150 53t150 -53t103 -139.5
t37 -181.5t-37 -181.5t-103 -139.5t-150 -53t-150 53zM501 103.5q43 89.5 43 252.5q0 164 -43 253t-141 89t-141 -89t-43 -253q0 -163 43 -252.5t141 -89.5t141 89.5z" />
    <glyph glyph-name="uni020E" unicode="&#x20e;" horiz-adv-x="700" 
d="M213 770q7 31 29 66.5t53 59.5t65 24t65 -24t53 -59.5t29 -66.5l-20 -8q-21 45 -54 73.5t-73 28.5t-73 -28.5t-54 -73.5zM210 35q-66 53 -103 139.5t-37 181.5t37 181.5t103 139.5t150 53t150 -53t103 -139.5t37 -181.5t-37 -181.5t-103 -139.5t-150 -53t-150 53z
M501 103.5q43 89.5 43 252.5q0 164 -43 253t-141 89t-141 -89t-43 -253q0 -163 43 -252.5t141 -89.5t141 89.5z" />
    <glyph glyph-name="Omacron" unicode="&#x14c;" horiz-adv-x="700" 
d="M224 822v40h272v-40h-272zM210 35q-66 53 -103 139.5t-37 181.5t37 181.5t103 139.5t150 53t150 -53t103 -139.5t37 -181.5t-37 -181.5t-103 -139.5t-150 -53t-150 53zM501 103.5q43 89.5 43 252.5q0 164 -43 253t-141 89t-141 -89t-43 -253q0 -163 43 -252.5t141 -89.5
t141 89.5z" />
    <glyph glyph-name="uni1E52" unicode="&#x1e52;" horiz-adv-x="700" 
d="M320 840l111 91q26 21 45 21q14 0 23 -10.5t9 -23.5q0 -16 -13 -25.5t-34 -16.5l-134 -48zM224 776v36h272v-36h-272zM210 35q-66 53 -103 139.5t-37 181.5t37 181.5t103 139.5t150 53t150 -53t103 -139.5t37 -181.5t-37 -181.5t-103 -139.5t-150 -53t-150 53zM501 103.5
q43 89.5 43 252.5q0 164 -43 253t-141 89t-141 -89t-43 -253q0 -163 43 -252.5t141 -89.5t141 89.5z" />
    <glyph glyph-name="uni1E50" unicode="&#x1e50;" horiz-adv-x="700" 
d="M259 876q-21 7 -34 16.5t-13 25.5q0 13 9 23.5t23 10.5q19 0 45 -21l111 -91l-7 -12zM224 776v36h272v-36h-272zM210 35q-66 53 -103 139.5t-37 181.5t37 181.5t103 139.5t150 53t150 -53t103 -139.5t37 -181.5t-37 -181.5t-103 -139.5t-150 -53t-150 53zM501 103.5
q43 89.5 43 252.5q0 164 -43 253t-141 89t-141 -89t-43 -253q0 -163 43 -252.5t141 -89.5t141 89.5z" />
    <glyph glyph-name="uni01EA" unicode="&#x1ea;" horiz-adv-x="700" 
d="M261.5 -213.5q-25.5 24.5 -25.5 65.5q0 38 24.5 69t68.5 59v4q-76 10 -135 64t-91.5 136t-32.5 172q0 95 37 181.5t103 139.5t150 53t150 -53t103 -139.5t37 -181.5q0 -91 -33.5 -173t-92 -135.5t-129.5 -63.5q-36 -4 -61 -36q-30 -37 -30 -83q0 -25 14 -42t38 -17
q22 0 35.5 6.5t26.5 20.5l12 -9q-13 -25 -38 -43.5t-61 -18.5q-44 0 -69.5 24.5zM501 103.5q43 89.5 43 252.5q0 164 -43 253t-141 89t-141 -89t-43 -253q0 -163 43 -252.5t141 -89.5t141 89.5z" />
    <glyph glyph-name="Oslash" unicode="&#xd8;" horiz-adv-x="700" 
d="M70 6l75 99q-36 52 -55.5 117.5t-19.5 133.5q0 95 36.5 181.5t103 139.5t150.5 53q55 0 103 -23.5t86 -65.5l67 89l32 -24l-74 -98q37 -52 56.5 -117.5t19.5 -134.5q0 -95 -37 -181.5t-103 -139.5t-150 -53q-55 0 -103.5 23.5t-86.5 66.5l-68 -90zM510 589
q-44 109 -150 109q-98 0 -141 -89t-43 -253q0 -107 18 -185zM501 103.5q43 89.5 43 252.5q0 111 -19 187l-316 -419q45 -110 151 -110q98 0 141 89.5z" />
    <glyph glyph-name="Oslashacute" unicode="&#x1fe;" horiz-adv-x="700" 
d="M343 773l92 133q13 18 24 25t25 7q13 0 20.5 -8.5t7.5 -22.5q0 -23 -28 -44l-128 -101zM70 6l75 99q-36 52 -55.5 117.5t-19.5 133.5q0 95 36.5 181.5t103 139.5t150.5 53q55 0 103 -23.5t86 -65.5l67 89l32 -24l-74 -98q37 -52 56.5 -117.5t19.5 -134.5
q0 -95 -37 -181.5t-103 -139.5t-150 -53q-55 0 -103.5 23.5t-86.5 66.5l-68 -90zM510 589q-44 109 -150 109q-98 0 -141 -89t-43 -253q0 -107 18 -185zM501 103.5q43 89.5 43 252.5q0 111 -19 187l-316 -419q45 -110 151 -110q98 0 141 89.5z" />
    <glyph glyph-name="Otilde" unicode="&#xd5;" horiz-adv-x="700" 
d="M204 810q3 38 25.5 65t60.5 27q29 0 90 -21q49 -17 72 -17q18 0 29 11t15 31l20 -2q-3 -38 -25.5 -65t-60.5 -27q-29 0 -90 21q-49 17 -72 17q-18 0 -29 -11t-15 -31zM210 35q-66 53 -103 139.5t-37 181.5t37 181.5t103 139.5t150 53t150 -53t103 -139.5t37 -181.5
t-37 -181.5t-103 -139.5t-150 -53t-150 53zM501 103.5q43 89.5 43 252.5q0 164 -43 253t-141 89t-141 -89t-43 -253q0 -163 43 -252.5t141 -89.5t141 89.5z" />
    <glyph glyph-name="uni1E4C" unicode="&#x1e4c;" horiz-adv-x="700" 
d="M319 853l118 81q17 12 25.5 15t15.5 3q16 0 22.5 -10t6.5 -20q0 -16 -12.5 -24.5t-31.5 -15.5l-137 -42zM226 811q24 20 67 20q27 0 81 -10t82 -10q20 0 32.5 8t14.5 22h17q-2 -30 -26 -50t-67 -20q-27 0 -81 10t-82 10q-20 0 -32.5 -8t-14.5 -22h-17q2 30 26 50zM210 35
q-66 53 -103 139.5t-37 181.5t37 181.5t103 139.5t150 53t150 -53t103 -139.5t37 -181.5t-37 -181.5t-103 -139.5t-150 -53t-150 53zM501 103.5q43 89.5 43 252.5q0 164 -43 253t-141 89t-141 -89t-43 -253q0 -163 43 -252.5t141 -89.5t141 89.5z" />
    <glyph glyph-name="uni1E4E" unicode="&#x1e4e;" horiz-adv-x="700" 
d="M230 882q-12 12 -12 28q0 17 12 28.5t28 11.5q17 0 28.5 -11.5t11.5 -28.5q0 -16 -11.5 -28t-28.5 -12q-16 0 -28 12zM434 882q-12 12 -12 28q0 17 12 28.5t28 11.5q17 0 28.5 -11.5t11.5 -28.5q0 -16 -11.5 -28t-28.5 -12q-16 0 -28 12zM228.5 820q27.5 26 69.5 26
q19 0 36.5 -4t42.5 -12t42.5 -12t38.5 -4q36 0 48 39h18q-5 -31 -32.5 -57t-69.5 -26q-19 0 -36.5 4t-42.5 12t-42.5 12t-38.5 4q-36 0 -48 -39h-18q5 31 32.5 57zM210 35q-66 53 -103 139.5t-37 181.5t37 181.5t103 139.5t150 53t150 -53t103 -139.5t37 -181.5t-37 -181.5
t-103 -139.5t-150 -53t-150 53zM501 103.5q43 89.5 43 252.5q0 164 -43 253t-141 89t-141 -89t-43 -253q0 -163 43 -252.5t141 -89.5t141 89.5z" />
    <glyph glyph-name="OE" unicode="&#x152;" horiz-adv-x="1048" 
d="M209.5 35q-66.5 53 -103 139.5t-36.5 181.5t36.5 181.5t103 139.5t150.5 53q15 0 47 -6q46 -12 111 -12h460l4 -250h-25q0 20 -8.5 68t-33.5 86q-42 64 -118 64h-159q-14 0 -20.5 -6.5t-6.5 -20.5v-269h77q51 0 73.5 52t22.5 111h26v-358h-26q0 59 -22.5 111t-73.5 52
h-77v-293q0 -27 27 -27h160q29 0 59 13t51 40q20 28 33 70t18 76.5t6 44.5h25l-12 -276h-459q-66 0 -112 -12q-32 -6 -47 -6q-84 0 -150.5 53zM477.5 59q41.5 45 41.5 122v349q0 79 -38 123.5t-121 44.5q-98 0 -141 -89t-43 -253q0 -163 43 -252.5t141 -89.5q76 0 117.5 45z
" />
    <glyph glyph-name="P" unicode="P" horiz-adv-x="680" 
d="M62 32h72q27 0 27 27v594q0 14 -6.5 20.5t-20.5 6.5h-72v32h334q70 0 124.5 -23.5t85 -66t30.5 -96.5q0 -55 -30.5 -98t-85 -67.5t-124.5 -24.5h-143v-277q0 -14 6 -20.5t21 -6.5h88v-32h-306v32zM409 368q54 0 87.5 46.5t33.5 111.5t-33 109.5t-88 44.5h-129
q-14 0 -20.5 -6.5t-6.5 -20.5v-285h156z" />
    <glyph glyph-name="Thorn" unicode="&#xde;" horiz-adv-x="680" 
d="M62 32h72q27 0 27 27v594q0 14 -6.5 20.5t-20.5 6.5h-72v32h306v-32h-88q-14 0 -20.5 -6.5t-6.5 -20.5v-67h143q70 0 124.5 -23.5t85 -66t30.5 -96.5q0 -55 -30.5 -98t-85 -67.5t-124.5 -24.5h-143v-151q0 -27 27 -27h88v-32h-306v32zM409 242q54 0 87.5 46.5t33.5 111.5
t-33 109.5t-88 44.5h-129q-14 0 -20.5 -6.5t-6.5 -20.5v-285h156z" />
    <glyph glyph-name="Q" unicode="Q" horiz-adv-x="700" 
d="M451 -123q-24 45 -29 115q-36 -10 -62 -10q-84 0 -150.5 54t-103 141t-36.5 183q0 95 37 180.5t103 137.5t150 52t150 -52t103 -137.5t37 -180.5q0 -109 -42.5 -201t-122.5 -140q11 -52 30.5 -83.5t51.5 -31.5q38 0 51 40.5t13 105.5h19q0 -101 -23.5 -159.5t-91.5 -58.5
q-60 0 -84 45zM265 47q-5 12 -5 28q0 42 28 69t69 27q47 0 75 -30t41 -78q38 39 54.5 113t16.5 184q0 163 -42.5 250.5t-141.5 87.5t-141.5 -87.5t-42.5 -250.5q0 -103 18 -186t70 -128zM419 25q-3 51 -16 82.5t-49 31.5q-26 0 -43 -17.5t-17 -47.5q0 -60 66 -60q32 0 59 11
z" />
    <glyph glyph-name="R" unicode="R" horiz-adv-x="716" 
d="M524.5 -1q-22.5 11 -35.5 36q-27 52 -29 177q-1 67 -24 111.5t-74 44.5h-109v-309q0 -14 6 -20.5t21 -6.5h89v-32h-307v32h72q27 0 27 27v594q0 14 -6.5 20.5t-20.5 6.5h-72v32h328q97 0 159 -37t62 -123q0 -74 -55.5 -119t-133.5 -53v-4q57 -11 93.5 -52.5t48.5 -141.5
q7 -57 12.5 -83t14 -36.5t25.5 -10.5q43 0 43 108h25q0 -65 -19 -118.5t-85 -53.5q-33 0 -55.5 11zM350 400q84 0 119.5 40.5t35.5 111.5q0 61 -32.5 94.5t-88.5 33.5h-104q-14 0 -20.5 -6.5t-6.5 -20.5v-253h97z" />
    <glyph glyph-name="Racute" unicode="&#x154;" horiz-adv-x="716" 
d="M307 773l92 133q13 18 24 25t25 7q13 0 20.5 -8.5t7.5 -22.5q0 -23 -28 -44l-128 -101zM524.5 -1q-22.5 11 -35.5 36q-27 52 -29 177q-1 67 -24 111.5t-74 44.5h-109v-309q0 -14 6 -20.5t21 -6.5h89v-32h-307v32h72q27 0 27 27v594q0 14 -6.5 20.5t-20.5 6.5h-72v32h328
q97 0 159 -37t62 -123q0 -74 -55.5 -119t-133.5 -53v-4q57 -11 93.5 -52.5t48.5 -141.5q7 -57 12.5 -83t14 -36.5t25.5 -10.5q43 0 43 108h25q0 -65 -19 -118.5t-85 -53.5q-33 0 -55.5 11zM350 400q84 0 119.5 40.5t35.5 111.5q0 61 -32.5 94.5t-88.5 33.5h-104
q-14 0 -20.5 -6.5t-6.5 -20.5v-253h97z" />
    <glyph glyph-name="Rcaron" unicode="&#x158;" horiz-adv-x="716" 
d="M312 762l-140 144l12 14l148 -96l148 96l12 -14l-140 -144h-40zM524.5 -1q-22.5 11 -35.5 36q-27 52 -29 177q-1 67 -24 111.5t-74 44.5h-109v-309q0 -14 6 -20.5t21 -6.5h89v-32h-307v32h72q27 0 27 27v594q0 14 -6.5 20.5t-20.5 6.5h-72v32h328q97 0 159 -37t62 -123
q0 -74 -55.5 -119t-133.5 -53v-4q57 -11 93.5 -52.5t48.5 -141.5q7 -57 12.5 -83t14 -36.5t25.5 -10.5q43 0 43 108h25q0 -65 -19 -118.5t-85 -53.5q-33 0 -55.5 11zM350 400q84 0 119.5 40.5t35.5 111.5q0 61 -32.5 94.5t-88.5 33.5h-104q-14 0 -20.5 -6.5t-6.5 -20.5v-253
h97z" />
    <glyph glyph-name="Rcommaaccent" unicode="&#x156;" horiz-adv-x="716" 
d="M524.5 -1q-22.5 11 -35.5 36q-27 52 -29 177q-1 67 -24 111.5t-74 44.5h-109v-309q0 -14 6 -20.5t21 -6.5h89v-32h-307v32h72q27 0 27 27v594q0 14 -6.5 20.5t-20.5 6.5h-72v32h328q97 0 159 -37t62 -123q0 -74 -55.5 -119t-133.5 -53v-4q57 -11 93.5 -52.5t48.5 -141.5
q7 -57 12.5 -83t14 -36.5t25.5 -10.5q43 0 43 108h25q0 -65 -19 -118.5t-85 -53.5q-33 0 -55.5 11zM350 400q84 0 119.5 40.5t35.5 111.5q0 61 -32.5 94.5t-88.5 33.5h-104q-14 0 -20.5 -6.5t-6.5 -20.5v-253h97zM334 -227q26 12 45.5 33.5t19.5 41.5q0 16 -8 22q-6 4 -24 4
q-16 0 -25.5 13t-9.5 28q0 21 13.5 33t33.5 12q26 0 41.5 -19t15.5 -47q0 -43 -27.5 -80t-64.5 -52z" />
    <glyph glyph-name="uni0210" unicode="&#x210;" horiz-adv-x="716" 
d="M148 863q-28 21 -28 44q0 14 7.5 22.5t20.5 8.5q14 0 25 -7t24 -25l92 -133l-13 -11zM284 863q-28 21 -28 44q0 14 7.5 22.5t20.5 8.5q14 0 25 -7t24 -25l92 -133l-13 -11zM524.5 -1q-22.5 11 -35.5 36q-27 52 -29 177q-1 67 -24 111.5t-74 44.5h-109v-309q0 -14 6 -20.5
t21 -6.5h89v-32h-307v32h72q27 0 27 27v594q0 14 -6.5 20.5t-20.5 6.5h-72v32h328q97 0 159 -37t62 -123q0 -74 -55.5 -119t-133.5 -53v-4q57 -11 93.5 -52.5t48.5 -141.5q7 -57 12.5 -83t14 -36.5t25.5 -10.5q43 0 43 108h25q0 -65 -19 -118.5t-85 -53.5q-33 0 -55.5 11z
M350 400q84 0 119.5 40.5t35.5 111.5q0 61 -32.5 94.5t-88.5 33.5h-104q-14 0 -20.5 -6.5t-6.5 -20.5v-253h97z" />
    <glyph glyph-name="uni1E5A" unicode="&#x1e5a;" horiz-adv-x="716" 
d="M524.5 -1q-22.5 11 -35.5 36q-27 52 -29 177q-1 67 -24 111.5t-74 44.5h-109v-309q0 -14 6 -20.5t21 -6.5h89v-32h-307v32h72q27 0 27 27v594q0 14 -6.5 20.5t-20.5 6.5h-72v32h328q97 0 159 -37t62 -123q0 -74 -55.5 -119t-133.5 -53v-4q57 -11 93.5 -52.5t48.5 -141.5
q7 -57 12.5 -83t14 -36.5t25.5 -10.5q43 0 43 108h25q0 -65 -19 -118.5t-85 -53.5q-33 0 -55.5 11zM350 400q84 0 119.5 40.5t35.5 111.5q0 61 -32.5 94.5t-88.5 33.5h-104q-14 0 -20.5 -6.5t-6.5 -20.5v-253h97zM295 -179.5q-15 14.5 -15 37.5q0 22 15 37t37 15
q23 0 37.5 -15t14.5 -37q0 -23 -14.5 -37.5t-37.5 -14.5q-22 0 -37 14.5z" />
    <glyph glyph-name="uni0212" unicode="&#x212;" horiz-adv-x="716" 
d="M185 770q7 31 29 66.5t53 59.5t65 24t65 -24t53 -59.5t29 -66.5l-20 -8q-21 45 -54 73.5t-73 28.5t-73 -28.5t-54 -73.5zM524.5 -1q-22.5 11 -35.5 36q-27 52 -29 177q-1 67 -24 111.5t-74 44.5h-109v-309q0 -14 6 -20.5t21 -6.5h89v-32h-307v32h72q27 0 27 27v594
q0 14 -6.5 20.5t-20.5 6.5h-72v32h328q97 0 159 -37t62 -123q0 -74 -55.5 -119t-133.5 -53v-4q57 -11 93.5 -52.5t48.5 -141.5q7 -57 12.5 -83t14 -36.5t25.5 -10.5q43 0 43 108h25q0 -65 -19 -118.5t-85 -53.5q-33 0 -55.5 11zM350 400q84 0 119.5 40.5t35.5 111.5
q0 61 -32.5 94.5t-88.5 33.5h-104q-14 0 -20.5 -6.5t-6.5 -20.5v-253h97z" />
    <glyph glyph-name="uni1E5E" unicode="&#x1e5e;" horiz-adv-x="716" 
d="M524.5 -1q-22.5 11 -35.5 36q-27 52 -29 177q-1 67 -24 111.5t-74 44.5h-109v-309q0 -14 6 -20.5t21 -6.5h89v-32h-307v32h72q27 0 27 27v594q0 14 -6.5 20.5t-20.5 6.5h-72v32h328q97 0 159 -37t62 -123q0 -74 -55.5 -119t-133.5 -53v-4q57 -11 93.5 -52.5t48.5 -141.5
q7 -57 12.5 -83t14 -36.5t25.5 -10.5q43 0 43 108h25q0 -65 -19 -118.5t-85 -53.5q-33 0 -55.5 11zM350 400q84 0 119.5 40.5t35.5 111.5q0 61 -32.5 94.5t-88.5 33.5h-104q-14 0 -20.5 -6.5t-6.5 -20.5v-253h97zM202 -166v40h260v-40h-260z" />
    <glyph glyph-name="S" unicode="S" horiz-adv-x="620" 
d="M268.5 0.5q-40.5 18.5 -70.5 40.5q-42 32 -50 32q-20 0 -26 -43l-4 -40h-23l-7 316h24q6 -74 41.5 -141.5t88.5 -109t109 -41.5q82 0 119.5 40t37.5 96q0 49 -28.5 77t-83.5 50l-152 61q-79 32 -116.5 82.5t-37.5 121.5q0 96 56 142t140 46q66 0 146 -60q10 -7 20 -12.5
t18 -5.5q17 0 20 24l4 36h24l10 -260h-24q-16 72 -50.5 128t-80.5 87t-95 31q-56 0 -92 -36.5t-36 -101.5q0 -45 23 -70t68 -43l193 -77q67 -27 100.5 -77t33.5 -105q0 -53 -23.5 -100t-72 -76.5t-121.5 -29.5q-42 0 -82.5 18.5z" />
    <glyph glyph-name="Sacute" unicode="&#x15a;" horiz-adv-x="620" 
d="M267 773l92 133q13 18 24 25t25 7q13 0 20.5 -8.5t7.5 -22.5q0 -23 -28 -44l-128 -101zM268.5 0.5q-40.5 18.5 -70.5 40.5q-42 32 -50 32q-20 0 -26 -43l-4 -40h-23l-7 316h24q6 -74 41.5 -141.5t88.5 -109t109 -41.5q82 0 119.5 40t37.5 96q0 49 -28.5 77t-83.5 50
l-152 61q-79 32 -116.5 82.5t-37.5 121.5q0 96 56 142t140 46q66 0 146 -60q10 -7 20 -12.5t18 -5.5q17 0 20 24l4 36h24l10 -260h-24q-16 72 -50.5 128t-80.5 87t-95 31q-56 0 -92 -36.5t-36 -101.5q0 -45 23 -70t68 -43l193 -77q67 -27 100.5 -77t33.5 -105
q0 -53 -23.5 -100t-72 -76.5t-121.5 -29.5q-42 0 -82.5 18.5z" />
    <glyph glyph-name="uni1E64" unicode="&#x1e64;" horiz-adv-x="620" 
d="M262.5 880.5q-12.5 12.5 -12.5 29.5t12.5 29.5t29.5 12.5t29.5 -12.5t12.5 -29.5t-12.5 -29.5t-29.5 -12.5t-29.5 12.5zM284 774l105 123q25 29 47 29q16 0 23 -9.5t7 -21.5q0 -25 -32 -45l-138 -88zM268.5 0.5q-40.5 18.5 -70.5 40.5q-42 32 -50 32q-20 0 -26 -43
l-4 -40h-23l-7 316h24q6 -74 41.5 -141.5t88.5 -109t109 -41.5q82 0 119.5 40t37.5 96q0 49 -28.5 77t-83.5 50l-152 61q-79 32 -116.5 82.5t-37.5 121.5q0 96 56 142t140 46q66 0 146 -60q10 -7 20 -12.5t18 -5.5q17 0 20 24l4 36h24l10 -260h-24q-16 72 -50.5 128
t-80.5 87t-95 31q-56 0 -92 -36.5t-36 -101.5q0 -45 23 -70t68 -43l193 -77q67 -27 100.5 -77t33.5 -105q0 -53 -23.5 -100t-72 -76.5t-121.5 -29.5q-42 0 -82.5 18.5z" />
    <glyph glyph-name="Scaron" unicode="&#x160;" horiz-adv-x="620" 
d="M272 762l-140 144l12 14l148 -96l148 96l12 -14l-140 -144h-40zM268.5 0.5q-40.5 18.5 -70.5 40.5q-42 32 -50 32q-20 0 -26 -43l-4 -40h-23l-7 316h24q6 -74 41.5 -141.5t88.5 -109t109 -41.5q82 0 119.5 40t37.5 96q0 49 -28.5 77t-83.5 50l-152 61q-79 32 -116.5 82.5
t-37.5 121.5q0 96 56 142t140 46q66 0 146 -60q10 -7 20 -12.5t18 -5.5q17 0 20 24l4 36h24l10 -260h-24q-16 72 -50.5 128t-80.5 87t-95 31q-56 0 -92 -36.5t-36 -101.5q0 -45 23 -70t68 -43l193 -77q67 -27 100.5 -77t33.5 -105q0 -53 -23.5 -100t-72 -76.5t-121.5 -29.5
q-42 0 -82.5 18.5z" />
    <glyph glyph-name="uni1E66" unicode="&#x1e66;" horiz-adv-x="620" 
d="M262.5 880.5q-12.5 12.5 -12.5 29.5t12.5 29.5t29.5 12.5t29.5 -12.5t12.5 -29.5t-12.5 -29.5t-29.5 -12.5t-29.5 12.5zM272 762l-140 124l10 14l150 -88l150 88l10 -14l-140 -124h-40zM268.5 0.5q-40.5 18.5 -70.5 40.5q-42 32 -50 32q-20 0 -26 -43l-4 -40h-23l-7 316
h24q6 -74 41.5 -141.5t88.5 -109t109 -41.5q82 0 119.5 40t37.5 96q0 49 -28.5 77t-83.5 50l-152 61q-79 32 -116.5 82.5t-37.5 121.5q0 96 56 142t140 46q66 0 146 -60q10 -7 20 -12.5t18 -5.5q17 0 20 24l4 36h24l10 -260h-24q-16 72 -50.5 128t-80.5 87t-95 31
q-56 0 -92 -36.5t-36 -101.5q0 -45 23 -70t68 -43l193 -77q67 -27 100.5 -77t33.5 -105q0 -53 -23.5 -100t-72 -76.5t-121.5 -29.5q-42 0 -82.5 18.5z" />
    <glyph glyph-name="Scedilla" unicode="&#x15e;" horiz-adv-x="620" 
d="M274 -219.5q-30 18.5 -30 51.5q0 12 7.5 21t19.5 9q26 0 32 -35q3 -19 17 -30t35 -11q31 0 46 13.5t15 36.5q0 52 -68 52h-49l17 97q-57 11 -118 56q-42 32 -50 32q-20 0 -26 -43l-4 -40h-23l-7 316h24q6 -74 41.5 -141.5t88.5 -109t109 -41.5q82 0 119.5 40t37.5 96
q0 49 -28.5 77t-83.5 50l-152 61q-79 32 -116.5 82.5t-37.5 121.5q0 96 56 142t140 46q66 0 146 -60q10 -7 20 -12.5t18 -5.5q17 0 20 24l4 36h24l10 -260h-24q-16 72 -50.5 128t-80.5 87t-95 31q-56 0 -92 -36.5t-36 -101.5q0 -45 23 -70t68 -43l193 -77q67 -27 100.5 -77
t33.5 -105q0 -53 -23.5 -100t-72 -76.5t-121.5 -29.5h-9l-7 -38h31q39 0 66.5 -21t27.5 -60q0 -42 -28 -71.5t-90 -29.5q-38 0 -68 18.5z" />
    <glyph glyph-name="Scircumflex" unicode="&#x15c;" horiz-adv-x="620" 
d="M134 778q91 52 138 142h40q47 -90 138 -142l-10 -16q-26 9 -71.5 38.5t-76.5 57.5q-31 -28 -76.5 -57.5t-71.5 -38.5zM268.5 0.5q-40.5 18.5 -70.5 40.5q-42 32 -50 32q-20 0 -26 -43l-4 -40h-23l-7 316h24q6 -74 41.5 -141.5t88.5 -109t109 -41.5q82 0 119.5 40t37.5 96
q0 49 -28.5 77t-83.5 50l-152 61q-79 32 -116.5 82.5t-37.5 121.5q0 96 56 142t140 46q66 0 146 -60q10 -7 20 -12.5t18 -5.5q17 0 20 24l4 36h24l10 -260h-24q-16 72 -50.5 128t-80.5 87t-95 31q-56 0 -92 -36.5t-36 -101.5q0 -45 23 -70t68 -43l193 -77q67 -27 100.5 -77
t33.5 -105q0 -53 -23.5 -100t-72 -76.5t-121.5 -29.5q-42 0 -82.5 18.5z" />
    <glyph glyph-name="Scommaaccent" unicode="&#x218;" horiz-adv-x="620" 
d="M268.5 0.5q-40.5 18.5 -70.5 40.5q-42 32 -50 32q-20 0 -26 -43l-4 -40h-23l-7 316h24q6 -74 41.5 -141.5t88.5 -109t109 -41.5q82 0 119.5 40t37.5 96q0 49 -28.5 77t-83.5 50l-152 61q-79 32 -116.5 82.5t-37.5 121.5q0 96 56 142t140 46q66 0 146 -60q10 -7 20 -12.5
t18 -5.5q17 0 20 24l4 36h24l10 -260h-24q-16 72 -50.5 128t-80.5 87t-95 31q-56 0 -92 -36.5t-36 -101.5q0 -45 23 -70t68 -43l193 -77q67 -27 100.5 -77t33.5 -105q0 -53 -23.5 -100t-72 -76.5t-121.5 -29.5q-42 0 -82.5 18.5zM284 -227q26 12 45.5 33.5t19.5 41.5
q0 16 -8 22q-6 4 -24 4q-16 0 -25.5 13t-9.5 28q0 21 13.5 33t33.5 12q26 0 41.5 -19t15.5 -47q0 -43 -27.5 -80t-64.5 -52z" />
    <glyph glyph-name="uni1E60" unicode="&#x1e60;" horiz-adv-x="620" 
d="M269 813q-15 15 -15 37q0 23 15 37.5t37 14.5q23 0 37.5 -14.5t14.5 -37.5q0 -22 -14.5 -37t-37.5 -15q-22 0 -37 15zM268.5 0.5q-40.5 18.5 -70.5 40.5q-42 32 -50 32q-20 0 -26 -43l-4 -40h-23l-7 316h24q6 -74 41.5 -141.5t88.5 -109t109 -41.5q82 0 119.5 40t37.5 96
q0 49 -28.5 77t-83.5 50l-152 61q-79 32 -116.5 82.5t-37.5 121.5q0 96 56 142t140 46q66 0 146 -60q10 -7 20 -12.5t18 -5.5q17 0 20 24l4 36h24l10 -260h-24q-16 72 -50.5 128t-80.5 87t-95 31q-56 0 -92 -36.5t-36 -101.5q0 -45 23 -70t68 -43l193 -77q67 -27 100.5 -77
t33.5 -105q0 -53 -23.5 -100t-72 -76.5t-121.5 -29.5q-42 0 -82.5 18.5z" />
    <glyph glyph-name="uni1E62" unicode="&#x1e62;" horiz-adv-x="620" 
d="M268.5 0.5q-40.5 18.5 -70.5 40.5q-42 32 -50 32q-20 0 -26 -43l-4 -40h-23l-7 316h24q6 -74 41.5 -141.5t88.5 -109t109 -41.5q82 0 119.5 40t37.5 96q0 49 -28.5 77t-83.5 50l-152 61q-79 32 -116.5 82.5t-37.5 121.5q0 96 56 142t140 46q66 0 146 -60q10 -7 20 -12.5
t18 -5.5q17 0 20 24l4 36h24l10 -260h-24q-16 72 -50.5 128t-80.5 87t-95 31q-56 0 -92 -36.5t-36 -101.5q0 -45 23 -70t68 -43l193 -77q67 -27 100.5 -77t33.5 -105q0 -53 -23.5 -100t-72 -76.5t-121.5 -29.5q-42 0 -82.5 18.5zM287 -179.5q-15 14.5 -15 37.5q0 22 15 37
t37 15q23 0 37.5 -15t14.5 -37q0 -23 -14.5 -37.5t-37.5 -14.5q-22 0 -37 14.5z" />
    <glyph glyph-name="uni1E68" unicode="&#x1e68;" horiz-adv-x="620" 
d="M269 813q-15 15 -15 37q0 23 15 37.5t37 14.5q23 0 37.5 -14.5t14.5 -37.5q0 -22 -14.5 -37t-37.5 -15q-22 0 -37 15zM268.5 0.5q-40.5 18.5 -70.5 40.5q-42 32 -50 32q-20 0 -26 -43l-4 -40h-23l-7 316h24q6 -74 41.5 -141.5t88.5 -109t109 -41.5q82 0 119.5 40t37.5 96
q0 49 -28.5 77t-83.5 50l-152 61q-79 32 -116.5 82.5t-37.5 121.5q0 96 56 142t140 46q66 0 146 -60q10 -7 20 -12.5t18 -5.5q17 0 20 24l4 36h24l10 -260h-24q-16 72 -50.5 128t-80.5 87t-95 31q-56 0 -92 -36.5t-36 -101.5q0 -45 23 -70t68 -43l193 -77q67 -27 100.5 -77
t33.5 -105q0 -53 -23.5 -100t-72 -76.5t-121.5 -29.5q-42 0 -82.5 18.5zM287 -179.5q-15 14.5 -15 37.5q0 22 15 37t37 15q23 0 37.5 -15t14.5 -37q0 -23 -14.5 -37.5t-37.5 -14.5q-22 0 -37 14.5z" />
    <glyph glyph-name="uni1E9E" unicode="&#x1e9e;" horiz-adv-x="746" 
d="M317.5 20q-45.5 38 -45.5 97q0 42 25.5 70.5t64.5 28.5q29 0 44 -17.5t15 -37.5q0 -23 -9.5 -36t-29.5 -26q-26 -17 -26 -42q0 -22 26 -32.5t61 -10.5q74 0 118.5 47.5t44.5 148.5q0 81 -35.5 135.5t-106.5 54.5q-35 0 -57 -9.5t-47 -34.5l-23 23l234 253l-3 5
q-30 -9 -67 -9q-42 0 -83 11q-29 7 -45 10t-34 3q-106 0 -106 -128v-524h-191v32h72q27 0 27 27v365q0 102 39.5 171t103 102t134.5 33q37 0 85 -6q46 -6 72 -6q28 0 46.5 2.5t40.5 9.5l31 -14l-264 -285l3 -3q21 4 43 4q76 0 129.5 -31t80.5 -82t27 -109q0 -64 -31.5 -116
t-91.5 -82t-141 -30q-85 0 -130.5 38z" />
    <glyph glyph-name="uni018F" unicode="&#x18f;" horiz-adv-x="670" 
d="M137 88q-67 106 -67 278h444q-1 107 -16 179t-55.5 112.5t-112.5 40.5q-56 0 -98 -28t-69 -74q-18 -30 -29 -65.5t-15 -62.5h-36q14 84 49 144q32 54 82 86t116 32q93 0 158.5 -52.5t98.5 -138t33 -183.5q0 -101 -34.5 -186.5t-98.5 -136.5t-147 -51q-136 0 -203 106z
M473 96.5q39 82.5 41 237.5h-338q0 -132 36.5 -226t127.5 -94q94 0 133 82.5z" />
    <glyph glyph-name="T" unicode="T" horiz-adv-x="714" 
d="M198 32h96q27 0 27 27v597q0 14 -6 20.5t-21 6.5h-36q-63 0 -109 -64q-29 -41 -39 -102.5t-10 -90.5h-28l8 286h574l8 -286h-28q0 29 -10 90.5t-39 102.5q-46 64 -109 64h-36q-15 0 -21 -6.5t-6 -20.5v-597q0 -27 27 -27h96v-32h-338v32z" />
    <glyph glyph-name="Tbar" unicode="&#x166;" horiz-adv-x="714" 
d="M198 32h96q27 0 27 27v297h-162v36h162v265q0 14 -6 20.5t-21 6.5h-36q-62 0 -109 -65q-29 -41 -39 -102.5t-10 -90.5h-28l8 286h574l8 -286h-28q0 29 -10 90.5t-39 102.5q-47 65 -109 65h-36q-15 0 -21 -6.5t-6 -20.5v-265h162v-36h-162v-297q0 -27 27 -27h96v-32h-338
v32z" />
    <glyph glyph-name="Tcaron" unicode="&#x164;" horiz-adv-x="714" 
d="M348 762l-140 144l12 14l148 -96l148 96l12 -14l-140 -144h-40zM198 32h96q27 0 27 27v597q0 14 -6 20.5t-21 6.5h-36q-63 0 -109 -64q-29 -41 -39 -102.5t-10 -90.5h-28l8 286h574l8 -286h-28q0 29 -10 90.5t-39 102.5q-46 64 -109 64h-36q-15 0 -21 -6.5t-6 -20.5v-597
q0 -27 27 -27h96v-32h-338v32z" />
    <glyph glyph-name="uni0162" unicode="&#x162;" horiz-adv-x="714" 
d="M308 -219.5q-30 18.5 -30 51.5q0 12 7.5 21t19.5 9q26 0 32 -35q3 -19 17 -30t35 -11q31 0 46 13.5t15 36.5q0 52 -68 52h-49l20 112h-155v32h96q27 0 27 27v598q0 14 -6 20.5t-21 6.5h-36q-62 0 -109 -65q-29 -41 -39 -102.5t-10 -90.5h-28l8 286h574l8 -286h-28
q0 29 -10 90.5t-39 102.5q-47 65 -109 65h-36q-15 0 -21 -6.5t-6 -20.5v-598q0 -27 27 -27h96v-32h-157l-10 -56h31q39 0 66.5 -21t27.5 -60q0 -42 -28 -71.5t-90 -29.5q-38 0 -68 18.5z" />
    <glyph glyph-name="uni021A" unicode="&#x21a;" horiz-adv-x="714" 
d="M198 32h96q27 0 27 27v597q0 14 -6 20.5t-21 6.5h-36q-63 0 -109 -64q-29 -41 -39 -102.5t-10 -90.5h-28l8 286h574l8 -286h-28q0 29 -10 90.5t-39 102.5q-46 64 -109 64h-36q-15 0 -21 -6.5t-6 -20.5v-597q0 -27 27 -27h96v-32h-338v32zM318 -227q26 12 45.5 33.5
t19.5 41.5q0 16 -8 22q-6 4 -24 4q-16 0 -25.5 13t-9.5 28q0 21 13.5 33t33.5 12q26 0 41.5 -19t15.5 -47q0 -43 -27.5 -80t-64.5 -52z" />
    <glyph glyph-name="uni1E6C" unicode="&#x1e6c;" horiz-adv-x="714" 
d="M198 32h96q27 0 27 27v597q0 14 -6 20.5t-21 6.5h-36q-63 0 -109 -64q-29 -41 -39 -102.5t-10 -90.5h-28l8 286h574l8 -286h-28q0 29 -10 90.5t-39 102.5q-46 64 -109 64h-36q-15 0 -21 -6.5t-6 -20.5v-597q0 -27 27 -27h96v-32h-338v32zM331 -179.5q-15 14.5 -15 37.5
q0 22 15 37t37 15q23 0 37.5 -15t14.5 -37q0 -23 -14.5 -37.5t-37.5 -14.5q-22 0 -37 14.5z" />
    <glyph glyph-name="uni1E6E" unicode="&#x1e6e;" horiz-adv-x="714" 
d="M198 32h96q27 0 27 27v597q0 14 -6 20.5t-21 6.5h-36q-63 0 -109 -64q-29 -41 -39 -102.5t-10 -90.5h-28l8 286h574l8 -286h-28q0 29 -10 90.5t-39 102.5q-46 64 -109 64h-36q-15 0 -21 -6.5t-6 -20.5v-597q0 -27 27 -27h96v-32h-338v32zM238 -166v40h260v-40h-260z" />
    <glyph glyph-name="U" unicode="U" horiz-adv-x="780" 
d="M265 17.5q-59 35.5 -86.5 93t-27.5 126.5v416q0 14 -6.5 20.5t-20.5 6.5h-72v32h291v-32h-73q-14 0 -20.5 -6.5t-6.5 -20.5v-443q0 -93 45 -144.5t126 -51.5q63 0 108 25.5t68 67.5t23 91v401q0 37 -18 59t-46 22h-35v32h238v-32h-35q-28 0 -46 -22t-18 -59v-391
q0 -63 -28.5 -114.5t-83 -81.5t-127.5 -30q-90 0 -149 35.5z" />
    <glyph glyph-name="Uacute" unicode="&#xda;" horiz-adv-x="780" 
d="M387 773l92 133q13 18 24 25t25 7q13 0 20.5 -8.5t7.5 -22.5q0 -23 -28 -44l-128 -101zM265 17.5q-59 35.5 -86.5 93t-27.5 126.5v416q0 14 -6.5 20.5t-20.5 6.5h-72v32h291v-32h-73q-14 0 -20.5 -6.5t-6.5 -20.5v-443q0 -93 45 -144.5t126 -51.5q63 0 108 25.5t68 67.5
t23 91v401q0 37 -18 59t-46 22h-35v32h238v-32h-35q-28 0 -46 -22t-18 -59v-391q0 -63 -28.5 -114.5t-83 -81.5t-127.5 -30q-90 0 -149 35.5z" />
    <glyph glyph-name="Ubreve" unicode="&#x16c;" horiz-adv-x="780" 
d="M328.5 786.5q-34.5 24.5 -51 60.5t-16.5 69h28q9 -42 40.5 -75t82.5 -33t82.5 33t40.5 75h28q0 -33 -16.5 -69t-51 -60.5t-83.5 -24.5t-83.5 24.5zM265 17.5q-59 35.5 -86.5 93t-27.5 126.5v416q0 14 -6.5 20.5t-20.5 6.5h-72v32h291v-32h-73q-14 0 -20.5 -6.5
t-6.5 -20.5v-443q0 -93 45 -144.5t126 -51.5q63 0 108 25.5t68 67.5t23 91v401q0 37 -18 59t-46 22h-35v32h238v-32h-35q-28 0 -46 -22t-18 -59v-391q0 -63 -28.5 -114.5t-83 -81.5t-127.5 -30q-90 0 -149 35.5z" />
    <glyph glyph-name="Ucircumflex" unicode="&#xdb;" horiz-adv-x="780" 
d="M254 778q91 52 138 142h40q47 -90 138 -142l-10 -16q-26 9 -71.5 38.5t-76.5 57.5q-31 -28 -76.5 -57.5t-71.5 -38.5zM265 17.5q-59 35.5 -86.5 93t-27.5 126.5v416q0 14 -6.5 20.5t-20.5 6.5h-72v32h291v-32h-73q-14 0 -20.5 -6.5t-6.5 -20.5v-443q0 -93 45 -144.5
t126 -51.5q63 0 108 25.5t68 67.5t23 91v401q0 37 -18 59t-46 22h-35v32h238v-32h-35q-28 0 -46 -22t-18 -59v-391q0 -63 -28.5 -114.5t-83 -81.5t-127.5 -30q-90 0 -149 35.5z" />
    <glyph glyph-name="uni0214" unicode="&#x214;" horiz-adv-x="780" 
d="M228 863q-28 21 -28 44q0 14 7.5 22.5t20.5 8.5q14 0 25 -7t24 -25l92 -133l-13 -11zM364 863q-28 21 -28 44q0 14 7.5 22.5t20.5 8.5q14 0 25 -7t24 -25l92 -133l-13 -11zM265 17.5q-59 35.5 -86.5 93t-27.5 126.5v416q0 14 -6.5 20.5t-20.5 6.5h-72v32h291v-32h-73
q-14 0 -20.5 -6.5t-6.5 -20.5v-443q0 -93 45 -144.5t126 -51.5q63 0 108 25.5t68 67.5t23 91v401q0 37 -18 59t-46 22h-35v32h238v-32h-35q-28 0 -46 -22t-18 -59v-391q0 -63 -28.5 -114.5t-83 -81.5t-127.5 -30q-90 0 -149 35.5z" />
    <glyph glyph-name="Udieresis" unicode="&#xdc;" horiz-adv-x="780" 
d="M273 813q-15 15 -15 37q0 23 15 37.5t37 14.5q23 0 37.5 -14.5t14.5 -37.5q0 -22 -14.5 -37t-37.5 -15q-22 0 -37 15zM477 813q-15 15 -15 37q0 23 15 37.5t37 14.5q23 0 37.5 -14.5t14.5 -37.5q0 -22 -14.5 -37t-37.5 -15q-22 0 -37 15zM265 17.5q-59 35.5 -86.5 93
t-27.5 126.5v416q0 14 -6.5 20.5t-20.5 6.5h-72v32h291v-32h-73q-14 0 -20.5 -6.5t-6.5 -20.5v-443q0 -93 45 -144.5t126 -51.5q63 0 108 25.5t68 67.5t23 91v401q0 37 -18 59t-46 22h-35v32h238v-32h-35q-28 0 -46 -22t-18 -59v-391q0 -63 -28.5 -114.5t-83 -81.5
t-127.5 -30q-90 0 -149 35.5z" />
    <glyph glyph-name="uni1EE4" unicode="&#x1ee4;" horiz-adv-x="780" 
d="M265 17.5q-59 35.5 -86.5 93t-27.5 126.5v416q0 14 -6.5 20.5t-20.5 6.5h-72v32h291v-32h-73q-14 0 -20.5 -6.5t-6.5 -20.5v-443q0 -93 45 -144.5t126 -51.5q63 0 108 25.5t68 67.5t23 91v401q0 37 -18 59t-46 22h-35v32h238v-32h-35q-28 0 -46 -22t-18 -59v-391
q0 -63 -28.5 -114.5t-83 -81.5t-127.5 -30q-90 0 -149 35.5zM352.5 -179.5q-14.5 14.5 -14.5 37.5q0 22 14.5 37t37.5 15q22 0 37 -15t15 -37q0 -23 -15 -37.5t-37 -14.5q-23 0 -37.5 14.5z" />
    <glyph glyph-name="Ugrave" unicode="&#xd9;" horiz-adv-x="780" 
d="M296 863q-28 21 -28 44q0 14 7.5 22.5t20.5 8.5q14 0 25 -7t24 -25l92 -133l-13 -11zM265 17.5q-59 35.5 -86.5 93t-27.5 126.5v416q0 14 -6.5 20.5t-20.5 6.5h-72v32h291v-32h-73q-14 0 -20.5 -6.5t-6.5 -20.5v-443q0 -93 45 -144.5t126 -51.5q63 0 108 25.5t68 67.5
t23 91v401q0 37 -18 59t-46 22h-35v32h238v-32h-35q-28 0 -46 -22t-18 -59v-391q0 -63 -28.5 -114.5t-83 -81.5t-127.5 -30q-90 0 -149 35.5z" />
    <glyph glyph-name="uni1EE6" unicode="&#x1ee6;" horiz-adv-x="780" 
d="M265 17.5q-59 35.5 -86.5 93t-27.5 126.5v416q0 14 -6.5 20.5t-20.5 6.5h-72v32h291v-32h-73q-14 0 -20.5 -6.5t-6.5 -20.5v-443q0 -93 45 -144.5t126 -51.5q63 0 108 25.5t68 67.5t23 91v401q0 37 -18 59t-46 22h-35v32h238v-32h-35q-28 0 -46 -22t-18 -59v-391
q0 -63 -28.5 -114.5t-83 -81.5t-127.5 -30q-90 0 -149 35.5zM407 817q27 23 27 58q0 24 -13.5 40t-40.5 16q-21 0 -37.5 -11t-16.5 -25q0 -10 3 -13q1 -1 2.5 -2t2.5 0q1 -1 4 1q3 1 4.5 0.5t3.5 0.5q8 -1 13 -6t5 -13q0 -9 -7 -15.5t-20 -6.5q-12 0 -22 11t-10 29
q0 27 24.5 45.5t54.5 19.5q38 -1 64.5 -19.5t26.5 -51.5q0 -27 -17 -46t-51 -43h-35z" />
    <glyph glyph-name="Uhorn" unicode="&#x1af;" horiz-adv-x="780" 
d="M782 797q0 -52 -35 -77t-94 -28v-484q0 -63 -28.5 -114.5t-83 -81.5t-127.5 -30q-90 0 -149 35.5t-86.5 93t-27.5 126.5v416q0 14 -6.5 20.5t-20.5 6.5h-72v32h291v-32h-73q-14 0 -20.5 -6.5t-6.5 -20.5v-443q0 -93 45 -144.5t126 -51.5q63 0 108 25.5t68 67.5t23 91v401
q0 37 -18 59t-46 22h-35v32h124q49 0 65 23t15 77h63z" />
    <glyph glyph-name="uni1EE8" unicode="&#x1ee8;" horiz-adv-x="780" 
d="M782 797q0 -52 -35 -77t-94 -28v-484q0 -63 -28.5 -114.5t-83 -81.5t-127.5 -30q-90 0 -149 35.5t-86.5 93t-27.5 126.5v416q0 14 -6.5 20.5t-20.5 6.5h-72v32h291v-32h-73q-14 0 -20.5 -6.5t-6.5 -20.5v-443q0 -93 45 -144.5t126 -51.5q63 0 108 25.5t68 67.5t23 91v401
q0 37 -18 59t-46 22h-35v32h124q49 0 65 23t15 77h63zM377 773l92 133q13 18 24 25t25 7q13 0 20.5 -8.5t7.5 -22.5q0 -23 -28 -44l-128 -101z" />
    <glyph glyph-name="uni1EF0" unicode="&#x1ef0;" horiz-adv-x="780" 
d="M782 797q0 -52 -35 -77t-94 -28v-484q0 -63 -28.5 -114.5t-83 -81.5t-127.5 -30q-90 0 -149 35.5t-86.5 93t-27.5 126.5v416q0 14 -6.5 20.5t-20.5 6.5h-72v32h291v-32h-73q-14 0 -20.5 -6.5t-6.5 -20.5v-443q0 -93 45 -144.5t126 -51.5q63 0 108 25.5t68 67.5t23 91v401
q0 37 -18 59t-46 22h-35v32h124q49 0 65 23t15 77h63zM352.5 -179.5q-14.5 14.5 -14.5 37.5q0 22 14.5 37t37.5 15q22 0 37 -15t15 -37q0 -23 -15 -37.5t-37 -14.5q-23 0 -37.5 14.5z" />
    <glyph glyph-name="uni1EEA" unicode="&#x1eea;" horiz-adv-x="780" 
d="M782 797q0 -52 -35 -77t-94 -28v-484q0 -63 -28.5 -114.5t-83 -81.5t-127.5 -30q-90 0 -149 35.5t-86.5 93t-27.5 126.5v416q0 14 -6.5 20.5t-20.5 6.5h-72v32h291v-32h-73q-14 0 -20.5 -6.5t-6.5 -20.5v-443q0 -93 45 -144.5t126 -51.5q63 0 108 25.5t68 67.5t23 91v401
q0 37 -18 59t-46 22h-35v32h124q49 0 65 23t15 77h63zM263 863q-28 21 -28 44q0 14 7.5 22.5t20.5 8.5q14 0 25 -7t24 -25l92 -133l-13 -11z" />
    <glyph glyph-name="uni1EEC" unicode="&#x1eec;" horiz-adv-x="780" 
d="M782 797q0 -52 -35 -77t-94 -28v-484q0 -63 -28.5 -114.5t-83 -81.5t-127.5 -30q-90 0 -149 35.5t-86.5 93t-27.5 126.5v416q0 14 -6.5 20.5t-20.5 6.5h-72v32h291v-32h-73q-14 0 -20.5 -6.5t-6.5 -20.5v-443q0 -93 45 -144.5t126 -51.5q63 0 108 25.5t68 67.5t23 91v401
q0 37 -18 59t-46 22h-35v32h124q49 0 65 23t15 77h63zM407 817q27 23 27 58q0 24 -13.5 40t-40.5 16q-21 0 -37.5 -11t-16.5 -25q0 -10 3 -13q1 -1 2.5 -2t2.5 0q1 -1 4 1q3 1 4.5 0.5t3.5 0.5q8 -1 13 -6t5 -13q0 -9 -7 -15.5t-20 -6.5q-12 0 -22 11t-10 29q0 27 24.5 45.5
t54.5 19.5q38 -1 64.5 -19.5t26.5 -51.5q0 -27 -17 -46t-51 -43h-35z" />
    <glyph glyph-name="uni1EEE" unicode="&#x1eee;" horiz-adv-x="780" 
d="M782 797q0 -52 -35 -77t-94 -28v-484q0 -63 -28.5 -114.5t-83 -81.5t-127.5 -30q-90 0 -149 35.5t-86.5 93t-27.5 126.5v416q0 14 -6.5 20.5t-20.5 6.5h-72v32h291v-32h-73q-14 0 -20.5 -6.5t-6.5 -20.5v-443q0 -93 45 -144.5t126 -51.5q63 0 108 25.5t68 67.5t23 91v401
q0 37 -18 59t-46 22h-35v32h124q49 0 65 23t15 77h63zM234 810q3 38 25.5 65t60.5 27q29 0 90 -21q49 -17 72 -17q18 0 29 11t15 31l20 -2q-3 -38 -25.5 -65t-60.5 -27q-29 0 -90 21q-49 17 -72 17q-18 0 -29 -11t-15 -31z" />
    <glyph glyph-name="Uhungarumlaut" unicode="&#x170;" horiz-adv-x="780" 
d="M319 773l92 133q13 18 24 25t25 7q13 0 20.5 -8.5t7.5 -22.5q0 -23 -28 -44l-128 -101zM455 773l92 133q13 18 24 25t25 7q13 0 20.5 -8.5t7.5 -22.5q0 -23 -28 -44l-128 -101zM265 17.5q-59 35.5 -86.5 93t-27.5 126.5v416q0 14 -6.5 20.5t-20.5 6.5h-72v32h291v-32h-73
q-14 0 -20.5 -6.5t-6.5 -20.5v-443q0 -93 45 -144.5t126 -51.5q63 0 108 25.5t68 67.5t23 91v401q0 37 -18 59t-46 22h-35v32h238v-32h-35q-28 0 -46 -22t-18 -59v-391q0 -63 -28.5 -114.5t-83 -81.5t-127.5 -30q-90 0 -149 35.5z" />
    <glyph glyph-name="uni0216" unicode="&#x216;" horiz-adv-x="780" 
d="M265 770q7 31 29 66.5t53 59.5t65 24t65 -24t53 -59.5t29 -66.5l-20 -8q-21 45 -54 73.5t-73 28.5t-73 -28.5t-54 -73.5zM265 17.5q-59 35.5 -86.5 93t-27.5 126.5v416q0 14 -6.5 20.5t-20.5 6.5h-72v32h291v-32h-73q-14 0 -20.5 -6.5t-6.5 -20.5v-443q0 -93 45 -144.5
t126 -51.5q63 0 108 25.5t68 67.5t23 91v401q0 37 -18 59t-46 22h-35v32h238v-32h-35q-28 0 -46 -22t-18 -59v-391q0 -63 -28.5 -114.5t-83 -81.5t-127.5 -30q-90 0 -149 35.5z" />
    <glyph glyph-name="Umacron" unicode="&#x16a;" horiz-adv-x="780" 
d="M276 822v40h272v-40h-272zM265 17.5q-59 35.5 -86.5 93t-27.5 126.5v416q0 14 -6.5 20.5t-20.5 6.5h-72v32h291v-32h-73q-14 0 -20.5 -6.5t-6.5 -20.5v-443q0 -93 45 -144.5t126 -51.5q63 0 108 25.5t68 67.5t23 91v401q0 37 -18 59t-46 22h-35v32h238v-32h-35
q-28 0 -46 -22t-18 -59v-391q0 -63 -28.5 -114.5t-83 -81.5t-127.5 -30q-90 0 -149 35.5z" />
    <glyph glyph-name="uni1E7A" unicode="&#x1e7a;" horiz-adv-x="780" 
d="M282 882q-12 12 -12 28q0 17 12 28.5t28 11.5q17 0 28.5 -11.5t11.5 -28.5q0 -16 -11.5 -28t-28.5 -12q-16 0 -28 12zM486 882q-12 12 -12 28q0 17 12 28.5t28 11.5q17 0 28.5 -11.5t11.5 -28.5q0 -16 -11.5 -28t-28.5 -12q-16 0 -28 12zM276 778v36h272v-36h-272z
M265 17.5q-59 35.5 -86.5 93t-27.5 126.5v416q0 14 -6.5 20.5t-20.5 6.5h-72v32h291v-32h-73q-14 0 -20.5 -6.5t-6.5 -20.5v-443q0 -93 45 -144.5t126 -51.5q63 0 108 25.5t68 67.5t23 91v401q0 37 -18 59t-46 22h-35v32h238v-32h-35q-28 0 -46 -22t-18 -59v-391
q0 -63 -28.5 -114.5t-83 -81.5t-127.5 -30q-90 0 -149 35.5z" />
    <glyph glyph-name="Uogonek" unicode="&#x172;" horiz-adv-x="780" 
d="M379.5 -213.5q-25.5 24.5 -25.5 65.5q0 37 26 70.5t64 56.5v5q-13 -2 -30 -2q-90 0 -149 35.5t-86.5 93t-27.5 126.5v416q0 14 -6.5 20.5t-20.5 6.5h-72v32h291v-32h-73q-14 0 -20.5 -6.5t-6.5 -20.5v-443q0 -93 45 -144.5t126 -51.5q63 0 108 25.5t68 67.5t23 91v401
q0 37 -18 59t-46 22h-35v32h238v-32h-35q-28 0 -46 -22t-18 -59v-391q0 -77 -37.5 -129t-95.5 -78q-22 -10 -54 -38q-20 -18 -32 -44t-12 -54q0 -25 14 -42t38 -17q22 0 35.5 6.5t26.5 20.5l12 -9q-13 -25 -38 -43.5t-61 -18.5q-44 0 -69.5 24.5z" />
    <glyph glyph-name="Uring" unicode="&#x16e;" horiz-adv-x="780" 
d="M343 781q-29 29 -29 69q0 41 29 69.5t69 28.5q41 0 69.5 -28.5t28.5 -69.5q0 -40 -28.5 -69t-69.5 -29q-40 0 -69 29zM464.5 797.5q21.5 21.5 21.5 52.5t-21.5 52.5t-52.5 21.5t-52.5 -21.5t-21.5 -52.5t21.5 -52.5t52.5 -21.5t52.5 21.5zM265 17.5q-59 35.5 -86.5 93
t-27.5 126.5v416q0 14 -6.5 20.5t-20.5 6.5h-72v32h291v-32h-73q-14 0 -20.5 -6.5t-6.5 -20.5v-443q0 -93 45 -144.5t126 -51.5q63 0 108 25.5t68 67.5t23 91v401q0 37 -18 59t-46 22h-35v32h238v-32h-35q-28 0 -46 -22t-18 -59v-391q0 -63 -28.5 -114.5t-83 -81.5
t-127.5 -30q-90 0 -149 35.5z" />
    <glyph glyph-name="Utilde" unicode="&#x168;" horiz-adv-x="780" 
d="M256 810q3 38 25.5 65t60.5 27q29 0 90 -21q49 -17 72 -17q18 0 29 11t15 31l20 -2q-3 -38 -25.5 -65t-60.5 -27q-29 0 -90 21q-49 17 -72 17q-18 0 -29 -11t-15 -31zM265 17.5q-59 35.5 -86.5 93t-27.5 126.5v416q0 14 -6.5 20.5t-20.5 6.5h-72v32h291v-32h-73
q-14 0 -20.5 -6.5t-6.5 -20.5v-443q0 -93 45 -144.5t126 -51.5q63 0 108 25.5t68 67.5t23 91v401q0 37 -18 59t-46 22h-35v32h238v-32h-35q-28 0 -46 -22t-18 -59v-391q0 -63 -28.5 -114.5t-83 -81.5t-127.5 -30q-90 0 -149 35.5z" />
    <glyph glyph-name="uni1E78" unicode="&#x1e78;" horiz-adv-x="780" 
d="M371 853l118 81q17 12 25.5 15t15.5 3q16 0 22.5 -10t6.5 -20q0 -16 -12.5 -24.5t-31.5 -15.5l-137 -42zM278 811q24 20 67 20q27 0 81 -10t82 -10q20 0 32.5 8t14.5 22h17q-2 -30 -26 -50t-67 -20q-27 0 -81 10t-82 10q-20 0 -32.5 -8t-14.5 -22h-17q2 30 26 50z
M265 17.5q-59 35.5 -86.5 93t-27.5 126.5v416q0 14 -6.5 20.5t-20.5 6.5h-72v32h291v-32h-73q-14 0 -20.5 -6.5t-6.5 -20.5v-443q0 -93 45 -144.5t126 -51.5q63 0 108 25.5t68 67.5t23 91v401q0 37 -18 59t-46 22h-35v32h238v-32h-35q-28 0 -46 -22t-18 -59v-391
q0 -63 -28.5 -114.5t-83 -81.5t-127.5 -30q-90 0 -149 35.5z" />
    <glyph glyph-name="V" unicode="V" horiz-adv-x="772" 
d="M166 636q-9 25 -23 34.5t-36 9.5h-63v32h320v-32h-66q-14 0 -24 -7.5t-10 -17.5q0 -11 4 -22l171 -481l132 406q12 39 12 69q0 21 -11.5 37t-39.5 16h-54v32h270v-32h-37q-35 0 -54 -20.5t-30 -52.5l-203 -625h-25z" />
    <glyph glyph-name="W" unicode="W" horiz-adv-x="1068" 
d="M159 636q-9 25 -23 34.5t-36 9.5h-62v32h296v-32h-48q-14 0 -24 -7.5t-10 -17.5q0 -8 4 -22l133 -460l121 438l-10 32q-7 20 -28 28.5t-43 8.5h-29v32h296v-32h-39q-51 0 -51 -52q0 -14 6 -31l126 -433l124 394q7 27 9.5 41.5t2.5 35.5q0 19 -17.5 32t-48.5 13h-34v32
h270v-32h-43q-34 0 -52.5 -20t-28.5 -53l-199 -625h-25l-164 556l-158 -556h-25z" />
    <glyph glyph-name="Wacute" unicode="&#x1e82;" horiz-adv-x="1068" 
d="M521 773l92 133q13 18 24 25t25 7q13 0 20.5 -8.5t7.5 -22.5q0 -23 -28 -44l-128 -101zM159 636q-9 25 -23 34.5t-36 9.5h-62v32h296v-32h-48q-14 0 -24 -7.5t-10 -17.5q0 -8 4 -22l133 -460l121 438l-10 32q-7 20 -28 28.5t-43 8.5h-29v32h296v-32h-39q-51 0 -51 -52
q0 -14 6 -31l126 -433l124 394q7 27 9.5 41.5t2.5 35.5q0 19 -17.5 32t-48.5 13h-34v32h270v-32h-43q-34 0 -52.5 -20t-28.5 -53l-199 -625h-25l-164 556l-158 -556h-25z" />
    <glyph glyph-name="Wcircumflex" unicode="&#x174;" horiz-adv-x="1068" 
d="M388 778q91 52 138 142h40q47 -90 138 -142l-10 -16q-26 9 -71.5 38.5t-76.5 57.5q-31 -28 -76.5 -57.5t-71.5 -38.5zM159 636q-9 25 -23 34.5t-36 9.5h-62v32h296v-32h-48q-14 0 -24 -7.5t-10 -17.5q0 -8 4 -22l133 -460l121 438l-10 32q-7 20 -28 28.5t-43 8.5h-29v32
h296v-32h-39q-51 0 -51 -52q0 -14 6 -31l126 -433l124 394q7 27 9.5 41.5t2.5 35.5q0 19 -17.5 32t-48.5 13h-34v32h270v-32h-43q-34 0 -52.5 -20t-28.5 -53l-199 -625h-25l-164 556l-158 -556h-25z" />
    <glyph glyph-name="Wdieresis" unicode="&#x1e84;" horiz-adv-x="1068" 
d="M407 813q-15 15 -15 37q0 23 15 37.5t37 14.5q23 0 37.5 -14.5t14.5 -37.5q0 -22 -14.5 -37t-37.5 -15q-22 0 -37 15zM611 813q-15 15 -15 37q0 23 15 37.5t37 14.5q23 0 37.5 -14.5t14.5 -37.5q0 -22 -14.5 -37t-37.5 -15q-22 0 -37 15zM159 636q-9 25 -23 34.5t-36 9.5
h-62v32h296v-32h-48q-14 0 -24 -7.5t-10 -17.5q0 -8 4 -22l133 -460l121 438l-10 32q-7 20 -28 28.5t-43 8.5h-29v32h296v-32h-39q-51 0 -51 -52q0 -14 6 -31l126 -433l124 394q7 27 9.5 41.5t2.5 35.5q0 19 -17.5 32t-48.5 13h-34v32h270v-32h-43q-34 0 -52.5 -20
t-28.5 -53l-199 -625h-25l-164 556l-158 -556h-25z" />
    <glyph glyph-name="Wgrave" unicode="&#x1e80;" horiz-adv-x="1068" 
d="M430 863q-28 21 -28 44q0 14 7.5 22.5t20.5 8.5q14 0 25 -7t24 -25l92 -133l-13 -11zM159 636q-9 25 -23 34.5t-36 9.5h-62v32h296v-32h-48q-14 0 -24 -7.5t-10 -17.5q0 -8 4 -22l133 -460l121 438l-10 32q-7 20 -28 28.5t-43 8.5h-29v32h296v-32h-39q-51 0 -51 -52
q0 -14 6 -31l126 -433l124 394q7 27 9.5 41.5t2.5 35.5q0 19 -17.5 32t-48.5 13h-34v32h270v-32h-43q-34 0 -52.5 -20t-28.5 -53l-199 -625h-25l-164 556l-158 -556h-25z" />
    <glyph glyph-name="X" unicode="X" horiz-adv-x="750" 
d="M46 32h31q33 0 55.5 17.5t43.5 49.5l169 253l-149 276q-15 28 -30.5 40t-48.5 12h-61v32h310v-32h-60q-18 0 -18 -15q0 -6 2 -13t6 -13l108 -200l95 142q20 30 20 57q0 17 -13.5 29.5t-35.5 12.5h-31v32h270v-32h-45q-30 0 -50.5 -11.5t-37.5 -37.5l-153 -230l177 -325
q14 -25 28 -34.5t34 -9.5h62v-32h-310v32h60q14 0 20.5 6t6.5 15q0 6 -2 13t-5 12l-128 236l-115 -175q-25 -38 -25 -63q0 -18 9 -31t27 -13h54v-32h-270v32z" />
    <glyph glyph-name="Y" unicode="Y" horiz-adv-x="728" 
d="M224 32h96q27 0 27 27v259l-194 318q-15 26 -27 35t-32 9h-52v32h310v-32h-60q-15 0 -25 -7t-10 -18q0 -15 5 -22l158 -267l102 196q5 7 11 28t6 33q0 24 -13.5 40.5t-41.5 16.5h-30v32h248v-32h-29q-32 0 -52 -19.5t-39 -53.5l-143 -272v-276q0 -27 27 -27h96v-32h-338
v32z" />
    <glyph glyph-name="Yacute" unicode="&#xdd;" horiz-adv-x="728" 
d="M367 773l92 133q13 18 24 25t25 7q13 0 20.5 -8.5t7.5 -22.5q0 -23 -28 -44l-128 -101zM224 32h96q27 0 27 27v259l-194 318q-15 26 -27 35t-32 9h-52v32h310v-32h-60q-15 0 -25 -7t-10 -18q0 -15 5 -22l158 -267l102 196q5 7 11 28t6 33q0 24 -13.5 40.5t-41.5 16.5h-30
v32h248v-32h-29q-32 0 -52 -19.5t-39 -53.5l-143 -272v-276q0 -27 27 -27h96v-32h-338v32z" />
    <glyph glyph-name="Ycircumflex" unicode="&#x176;" horiz-adv-x="728" 
d="M234 778q91 52 138 142h40q47 -90 138 -142l-10 -16q-26 9 -71.5 38.5t-76.5 57.5q-31 -28 -76.5 -57.5t-71.5 -38.5zM224 32h96q27 0 27 27v259l-194 318q-15 26 -27 35t-32 9h-52v32h310v-32h-60q-15 0 -25 -7t-10 -18q0 -15 5 -22l158 -267l102 196q5 7 11 28t6 33
q0 24 -13.5 40.5t-41.5 16.5h-30v32h248v-32h-29q-32 0 -52 -19.5t-39 -53.5l-143 -272v-276q0 -27 27 -27h96v-32h-338v32z" />
    <glyph glyph-name="Ydieresis" unicode="&#x178;" horiz-adv-x="728" 
d="M253 813q-15 15 -15 37q0 23 15 37.5t37 14.5q23 0 37.5 -14.5t14.5 -37.5q0 -22 -14.5 -37t-37.5 -15q-22 0 -37 15zM457 813q-15 15 -15 37q0 23 15 37.5t37 14.5q23 0 37.5 -14.5t14.5 -37.5q0 -22 -14.5 -37t-37.5 -15q-22 0 -37 15zM224 32h96q27 0 27 27v259
l-194 318q-15 26 -27 35t-32 9h-52v32h310v-32h-60q-15 0 -25 -7t-10 -18q0 -15 5 -22l158 -267l102 196q5 7 11 28t6 33q0 24 -13.5 40.5t-41.5 16.5h-30v32h248v-32h-29q-32 0 -52 -19.5t-39 -53.5l-143 -272v-276q0 -27 27 -27h96v-32h-338v32z" />
    <glyph glyph-name="uni1E8E" unicode="&#x1e8e;" horiz-adv-x="728" 
d="M355 813q-15 15 -15 37q0 23 15 37.5t37 14.5q23 0 37.5 -14.5t14.5 -37.5q0 -22 -14.5 -37t-37.5 -15q-22 0 -37 15zM224 32h96q27 0 27 27v259l-194 318q-15 26 -27 35t-32 9h-52v32h310v-32h-60q-15 0 -25 -7t-10 -18q0 -15 5 -22l158 -267l102 196q5 7 11 28t6 33
q0 24 -13.5 40.5t-41.5 16.5h-30v32h248v-32h-29q-32 0 -52 -19.5t-39 -53.5l-143 -272v-276q0 -27 27 -27h96v-32h-338v32z" />
    <glyph glyph-name="uni1EF4" unicode="&#x1ef4;" horiz-adv-x="728" 
d="M224 32h96q27 0 27 27v259l-194 318q-15 26 -27 35t-32 9h-52v32h310v-32h-60q-15 0 -25 -7t-10 -18q0 -15 5 -22l158 -267l102 196q5 7 11 28t6 33q0 24 -13.5 40.5t-41.5 16.5h-30v32h248v-32h-29q-32 0 -52 -19.5t-39 -53.5l-143 -272v-276q0 -27 27 -27h96v-32h-338
v32zM326.5 -179.5q-14.5 14.5 -14.5 37.5q0 22 14.5 37t37.5 15q22 0 37 -15t15 -37q0 -23 -15 -37.5t-37 -14.5q-23 0 -37.5 14.5z" />
    <glyph glyph-name="Ygrave" unicode="&#x1ef2;" horiz-adv-x="728" 
d="M224 32h96q27 0 27 27v259l-194 318q-15 26 -27 35t-32 9h-52v32h310v-32h-60q-15 0 -25 -7t-10 -18q0 -15 5 -22l158 -267l102 196q5 7 11 28t6 33q0 24 -13.5 40.5t-41.5 16.5h-30v32h248v-32h-29q-32 0 -52 -19.5t-39 -53.5l-143 -272v-276q0 -27 27 -27h96v-32h-338
v32zM237 863q-28 21 -28 44q0 14 7.5 22.5t20.5 8.5q14 0 25 -7t24 -25l92 -133l-13 -11z" />
    <glyph glyph-name="uni1EF6" unicode="&#x1ef6;" horiz-adv-x="728" 
d="M224 32h96q27 0 27 27v259l-194 318q-15 26 -27 35t-32 9h-52v32h310v-32h-60q-15 0 -25 -7t-10 -18q0 -15 5 -22l158 -267l102 196q5 7 11 28t6 33q0 24 -13.5 40.5t-41.5 16.5h-30v32h248v-32h-29q-32 0 -52 -19.5t-39 -53.5l-143 -272v-276q0 -27 27 -27h96v-32h-338
v32zM381 817q27 23 27 58q0 24 -13.5 40t-40.5 16q-21 0 -37.5 -11t-16.5 -25q0 -10 3 -13q1 -1 2.5 -2t2.5 0q1 -1 4 1q3 1 4.5 0.5t3.5 0.5q8 -1 13 -6t5 -13q0 -9 -7 -15.5t-20 -6.5q-12 0 -22 11t-10 29q0 27 24.5 45.5t54.5 19.5q38 -1 64.5 -19.5t26.5 -51.5
q0 -27 -17 -46t-51 -43h-35z" />
    <glyph glyph-name="uni0232" unicode="&#x232;" horiz-adv-x="728" 
d="M256 822v40h272v-40h-272zM224 32h96q27 0 27 27v259l-194 318q-15 26 -27 35t-32 9h-52v32h310v-32h-60q-15 0 -25 -7t-10 -18q0 -15 5 -22l158 -267l102 196q5 7 11 28t6 33q0 24 -13.5 40.5t-41.5 16.5h-30v32h248v-32h-29q-32 0 -52 -19.5t-39 -53.5l-143 -272v-276
q0 -27 27 -27h96v-32h-338v32z" />
    <glyph glyph-name="uni1EF8" unicode="&#x1ef8;" horiz-adv-x="728" 
d="M224 32h96q27 0 27 27v259l-194 318q-15 26 -27 35t-32 9h-52v32h310v-32h-60q-15 0 -25 -7t-10 -18q0 -15 5 -22l158 -267l102 196q5 7 11 28t6 33q0 24 -13.5 40.5t-41.5 16.5h-30v32h248v-32h-29q-32 0 -52 -19.5t-39 -53.5l-143 -272v-276q0 -27 27 -27h96v-32h-338
v32zM208 810q3 38 25.5 65t60.5 27q29 0 90 -21q49 -17 72 -17q18 0 29 11t15 31l20 -2q-3 -38 -25.5 -65t-60.5 -27q-29 0 -90 21q-49 17 -72 17q-18 0 -29 -11t-15 -31z" />
    <glyph glyph-name="Z" unicode="Z" horiz-adv-x="652" 
d="M68 32l414 648h-188q-33 0 -61.5 -18t-47.5 -40q-24 -28 -40 -64.5t-24 -67t-8 -34.5h-25l24 256h476v-32l-410 -648h200q34 0 70 20.5t59 52.5q25 36 41.5 79.5t24.5 78.5t8 39h25l-16 -302h-522v32z" />
    <glyph glyph-name="Zacute" unicode="&#x179;" horiz-adv-x="652" 
d="M335 773l92 133q13 18 24 25t25 7q13 0 20.5 -8.5t7.5 -22.5q0 -23 -28 -44l-128 -101zM68 32l414 648h-188q-33 0 -61.5 -18t-47.5 -40q-24 -28 -40 -64.5t-24 -67t-8 -34.5h-25l24 256h476v-32l-410 -648h200q34 0 70 20.5t59 52.5q25 36 41.5 79.5t24.5 78.5t8 39h25
l-16 -302h-522v32z" />
    <glyph glyph-name="Zcaron" unicode="&#x17d;" horiz-adv-x="652" 
d="M340 762l-140 144l12 14l148 -96l148 96l12 -14l-140 -144h-40zM68 32l414 648h-188q-33 0 -61.5 -18t-47.5 -40q-24 -28 -40 -64.5t-24 -67t-8 -34.5h-25l24 256h476v-32l-410 -648h200q34 0 70 20.5t59 52.5q25 36 41.5 79.5t24.5 78.5t8 39h25l-16 -302h-522v32z" />
    <glyph glyph-name="Zdotaccent" unicode="&#x17b;" horiz-adv-x="652" 
d="M323 813q-15 15 -15 37q0 23 15 37.5t37 14.5q23 0 37.5 -14.5t14.5 -37.5q0 -22 -14.5 -37t-37.5 -15q-22 0 -37 15zM68 32l414 648h-188q-33 0 -61.5 -18t-47.5 -40q-24 -28 -40 -64.5t-24 -67t-8 -34.5h-25l24 256h476v-32l-410 -648h200q34 0 70 20.5t59 52.5
q25 36 41.5 79.5t24.5 78.5t8 39h25l-16 -302h-522v32z" />
    <glyph glyph-name="uni1E92" unicode="&#x1e92;" horiz-adv-x="652" 
d="M68 32l414 648h-188q-33 0 -61.5 -18t-47.5 -40q-24 -28 -40 -64.5t-24 -67t-8 -34.5h-25l24 256h476v-32l-410 -648h200q34 0 70 20.5t59 52.5q25 36 41.5 79.5t24.5 78.5t8 39h25l-16 -302h-522v32zM323 -179.5q-15 14.5 -15 37.5q0 22 15 37t37 15q23 0 37.5 -15
t14.5 -37q0 -23 -14.5 -37.5t-37.5 -14.5q-22 0 -37 14.5z" />
    <glyph glyph-name="a" unicode="a" horiz-adv-x="494" 
d="M84.5 14q-38.5 26 -38.5 92q0 51 26 80t60.5 41.5t83.5 21.5l92 17v85q0 93 -93 93q-34 0 -62 -17.5t-28 -39.5q0 -10 3 -15q2 -3 6.5 -6t8.5 -4q18 -5 27.5 -14t9.5 -25q0 -21 -12.5 -30t-31.5 -9q-22 0 -40 17t-18 49q0 37 20.5 64t53 40.5t66.5 13.5q66 0 114 -34.5
t48 -107.5v-246q0 -50 31 -50q25 0 36 29t11 71h18q0 -60 -17.5 -101t-62.5 -41q-43 0 -64.5 25.5t-23.5 70.5l-5 2q-15 -35 -48.5 -66.5t-78.5 -31.5q-53 0 -91.5 26zM262.5 59.5q25.5 35.5 45.5 90.5v95l-87 -19q-48 -10 -69.5 -39.5t-21.5 -83.5q0 -46 19 -62.5t43 -16.5
q45 0 70.5 35.5z" />
    <glyph glyph-name="aacute" unicode="&#xe1;" horiz-adv-x="494" 
d="M203 519l92 133q13 18 24 25t25 7q13 0 20.5 -8.5t7.5 -22.5q0 -23 -28 -44l-128 -101zM84.5 14q-38.5 26 -38.5 92q0 51 26 80t60.5 41.5t83.5 21.5l92 17v85q0 93 -93 93q-34 0 -62 -17.5t-28 -39.5q0 -10 3 -15q2 -3 6.5 -6t8.5 -4q18 -5 27.5 -14t9.5 -25
q0 -21 -12.5 -30t-31.5 -9q-22 0 -40 17t-18 49q0 37 20.5 64t53 40.5t66.5 13.5q66 0 114 -34.5t48 -107.5v-246q0 -50 31 -50q25 0 36 29t11 71h18q0 -60 -17.5 -101t-62.5 -41q-43 0 -64.5 25.5t-23.5 70.5l-5 2q-15 -35 -48.5 -66.5t-78.5 -31.5q-53 0 -91.5 26z
M262.5 59.5q25.5 35.5 45.5 90.5v95l-87 -19q-48 -10 -69.5 -39.5t-21.5 -83.5q0 -46 19 -62.5t43 -16.5q45 0 70.5 35.5z" />
    <glyph glyph-name="abreve" unicode="&#x103;" horiz-adv-x="494" 
d="M84.5 14q-38.5 26 -38.5 92q0 51 26 80t60.5 41.5t83.5 21.5l92 17v85q0 93 -93 93q-34 0 -62 -17.5t-28 -39.5q0 -10 3 -15q2 -3 6.5 -6t8.5 -4q18 -5 27.5 -14t9.5 -25q0 -21 -12.5 -30t-31.5 -9q-22 0 -40 17t-18 49q0 37 20.5 64t53 40.5t66.5 13.5q66 0 114 -34.5
t48 -107.5v-246q0 -50 31 -50q25 0 36 29t11 71h18q0 -60 -17.5 -101t-62.5 -41q-43 0 -64.5 25.5t-23.5 70.5l-5 2q-15 -35 -48.5 -66.5t-78.5 -31.5q-53 0 -91.5 26zM262.5 59.5q25.5 35.5 45.5 90.5v95l-87 -19q-48 -10 -69.5 -39.5t-21.5 -83.5q0 -46 19 -62.5t43 -16.5
q45 0 70.5 35.5zM171.5 549.5q-31.5 23.5 -47 56.5t-15.5 60h22q6 -40 33.5 -70t82.5 -30t82.5 30t33.5 70h22q0 -27 -15.5 -60t-47 -56.5t-75.5 -23.5t-75.5 23.5z" />
    <glyph glyph-name="uni1EAF" unicode="&#x1eaf;" horiz-adv-x="494" 
d="M234 670l92 133q13 18 24 25t25 7q13 0 20.5 -8.5t7.5 -22.5q0 -23 -28 -44l-128 -101zM171.5 549.5q-31.5 23.5 -47 56.5t-15.5 60h22q6 -40 33.5 -70t82.5 -30t82.5 30t33.5 70h22q0 -27 -15.5 -60t-47 -56.5t-75.5 -23.5t-75.5 23.5zM84.5 14q-38.5 26 -38.5 92
q0 51 26 80t60.5 41.5t83.5 21.5l92 17v85q0 93 -93 93q-34 0 -62 -17.5t-28 -39.5q0 -10 3 -15q2 -3 6.5 -6t8.5 -4q18 -5 27.5 -14t9.5 -25q0 -21 -12.5 -30t-31.5 -9q-22 0 -40 17t-18 49q0 37 20.5 64t53 40.5t66.5 13.5q66 0 114 -34.5t48 -107.5v-246q0 -50 31 -50
q25 0 36 29t11 71h18q0 -60 -17.5 -101t-62.5 -41q-43 0 -64.5 25.5t-23.5 70.5l-5 2q-15 -35 -48.5 -66.5t-78.5 -31.5q-53 0 -91.5 26zM262.5 59.5q25.5 35.5 45.5 90.5v95l-87 -19q-48 -10 -69.5 -39.5t-21.5 -83.5q0 -46 19 -62.5t43 -16.5q45 0 70.5 35.5z" />
    <glyph glyph-name="uni1EB7" unicode="&#x1eb7;" horiz-adv-x="494" 
d="M84.5 14q-38.5 26 -38.5 92q0 51 26 80t60.5 41.5t83.5 21.5l92 17v85q0 93 -93 93q-34 0 -62 -17.5t-28 -39.5q0 -10 3 -15q2 -3 6.5 -6t8.5 -4q18 -5 27.5 -14t9.5 -25q0 -21 -12.5 -30t-31.5 -9q-22 0 -40 17t-18 49q0 37 20.5 64t53 40.5t66.5 13.5q66 0 114 -34.5
t48 -107.5v-246q0 -50 31 -50q25 0 36 29t11 71h18q0 -60 -17.5 -101t-62.5 -41q-43 0 -64.5 25.5t-23.5 70.5l-5 2q-15 -35 -48.5 -66.5t-78.5 -31.5q-53 0 -91.5 26zM262.5 59.5q25.5 35.5 45.5 90.5v95l-87 -19q-48 -10 -69.5 -39.5t-21.5 -83.5q0 -46 19 -62.5t43 -16.5
q45 0 70.5 35.5zM209.5 -179.5q-14.5 14.5 -14.5 37.5q0 22 14.5 37t37.5 15q22 0 37 -15t15 -37q0 -23 -15 -37.5t-37 -14.5q-23 0 -37.5 14.5zM171.5 549.5q-31.5 23.5 -47 56.5t-15.5 60h22q6 -40 33.5 -70t82.5 -30t82.5 30t33.5 70h22q0 -27 -15.5 -60t-47 -56.5
t-75.5 -23.5t-75.5 23.5z" />
    <glyph glyph-name="uni1EB1" unicode="&#x1eb1;" horiz-adv-x="494" 
d="M112 766q-28 21 -28 44q0 14 7.5 22.5t20.5 8.5q14 0 25 -7t24 -25l92 -133l-13 -11zM171.5 549.5q-31.5 23.5 -47 56.5t-15.5 60h22q6 -40 33.5 -70t82.5 -30t82.5 30t33.5 70h22q0 -27 -15.5 -60t-47 -56.5t-75.5 -23.5t-75.5 23.5zM84.5 14q-38.5 26 -38.5 92
q0 51 26 80t60.5 41.5t83.5 21.5l92 17v85q0 93 -93 93q-34 0 -62 -17.5t-28 -39.5q0 -10 3 -15q2 -3 6.5 -6t8.5 -4q18 -5 27.5 -14t9.5 -25q0 -21 -12.5 -30t-31.5 -9q-22 0 -40 17t-18 49q0 37 20.5 64t53 40.5t66.5 13.5q66 0 114 -34.5t48 -107.5v-246q0 -50 31 -50
q25 0 36 29t11 71h18q0 -60 -17.5 -101t-62.5 -41q-43 0 -64.5 25.5t-23.5 70.5l-5 2q-15 -35 -48.5 -66.5t-78.5 -31.5q-53 0 -91.5 26zM262.5 59.5q25.5 35.5 45.5 90.5v95l-87 -19q-48 -10 -69.5 -39.5t-21.5 -83.5q0 -46 19 -62.5t43 -16.5q45 0 70.5 35.5z" />
    <glyph glyph-name="uni1EB3" unicode="&#x1eb3;" horiz-adv-x="494" 
d="M84.5 14q-38.5 26 -38.5 92q0 51 26 80t60.5 41.5t83.5 21.5l92 17v85q0 93 -93 93q-34 0 -62 -17.5t-28 -39.5q0 -10 3 -15q2 -3 6.5 -6t8.5 -4q18 -5 27.5 -14t9.5 -25q0 -21 -12.5 -30t-31.5 -9q-22 0 -40 17t-18 49q0 37 20.5 64t53 40.5t66.5 13.5q66 0 114 -34.5
t48 -107.5v-246q0 -50 31 -50q25 0 36 29t11 71h18q0 -60 -17.5 -101t-62.5 -41q-43 0 -64.5 25.5t-23.5 70.5l-5 2q-15 -35 -48.5 -66.5t-78.5 -31.5q-53 0 -91.5 26zM262.5 59.5q25.5 35.5 45.5 90.5v95l-87 -19q-48 -10 -69.5 -39.5t-21.5 -83.5q0 -46 19 -62.5t43 -16.5
q45 0 70.5 35.5zM171.5 549.5q-31.5 23.5 -47 56.5t-15.5 60h22q6 -40 33.5 -70t82.5 -30t82.5 30t33.5 70h22q0 -27 -15.5 -60t-47 -56.5t-75.5 -23.5t-75.5 23.5zM264 715q27 23 27 58q0 24 -13.5 40t-40.5 16q-21 0 -37.5 -11t-16.5 -25q0 -10 3 -13q1 -1 2.5 -2t2.5 0
q1 -1 4 1q3 1 4.5 0.5t3.5 0.5q8 -1 13 -6t5 -13q0 -9 -7 -15.5t-20 -6.5q-12 0 -22 11t-10 29q0 27 24.5 45.5t54.5 19.5q38 -1 64.5 -19.5t26.5 -51.5q0 -27 -17 -46t-51 -43h-35z" />
    <glyph glyph-name="uni1EB5" unicode="&#x1eb5;" horiz-adv-x="494" 
d="M84.5 14q-38.5 26 -38.5 92q0 51 26 80t60.5 41.5t83.5 21.5l92 17v85q0 93 -93 93q-34 0 -62 -17.5t-28 -39.5q0 -10 3 -15q2 -3 6.5 -6t8.5 -4q18 -5 27.5 -14t9.5 -25q0 -21 -12.5 -30t-31.5 -9q-22 0 -40 17t-18 49q0 37 20.5 64t53 40.5t66.5 13.5q66 0 114 -34.5
t48 -107.5v-246q0 -50 31 -50q25 0 36 29t11 71h18q0 -60 -17.5 -101t-62.5 -41q-43 0 -64.5 25.5t-23.5 70.5l-5 2q-15 -35 -48.5 -66.5t-78.5 -31.5q-53 0 -91.5 26zM262.5 59.5q25.5 35.5 45.5 90.5v95l-87 -19q-48 -10 -69.5 -39.5t-21.5 -83.5q0 -46 19 -62.5t43 -16.5
q45 0 70.5 35.5zM171.5 549.5q-31.5 23.5 -47 56.5t-15.5 60h22q6 -40 33.5 -70t82.5 -30t82.5 30t33.5 70h22q0 -27 -15.5 -60t-47 -56.5t-75.5 -23.5t-75.5 23.5zM113 700q6 36 28 62t58 26q19 0 36 -5.5t39 -14.5q19 -8 32 -12t28 -4q34 0 46 42l17 -4q-6 -36 -28 -62
t-58 -26q-19 0 -36 5.5t-39 14.5q-19 8 -32 12t-28 4q-34 0 -46 -42z" />
    <glyph glyph-name="acircumflex" unicode="&#xe2;" horiz-adv-x="494" 
d="M97 521q75 49 111 151h40q36 -102 111 -151l-9 -13q-69 36 -122 92q-54 -57 -122 -92zM84.5 14q-38.5 26 -38.5 92q0 51 26 80t60.5 41.5t83.5 21.5l92 17v85q0 93 -93 93q-34 0 -62 -17.5t-28 -39.5q0 -10 3 -15q2 -3 6.5 -6t8.5 -4q18 -5 27.5 -14t9.5 -25
q0 -21 -12.5 -30t-31.5 -9q-22 0 -40 17t-18 49q0 37 20.5 64t53 40.5t66.5 13.5q66 0 114 -34.5t48 -107.5v-246q0 -50 31 -50q25 0 36 29t11 71h18q0 -60 -17.5 -101t-62.5 -41q-43 0 -64.5 25.5t-23.5 70.5l-5 2q-15 -35 -48.5 -66.5t-78.5 -31.5q-53 0 -91.5 26z
M262.5 59.5q25.5 35.5 45.5 90.5v95l-87 -19q-48 -10 -69.5 -39.5t-21.5 -83.5q0 -46 19 -62.5t43 -16.5q45 0 70.5 35.5z" />
    <glyph glyph-name="uni1EA5" unicode="&#x1ea5;" horiz-adv-x="494" 
d="M84.5 14q-38.5 26 -38.5 92q0 51 26 80t60.5 41.5t83.5 21.5l92 17v85q0 93 -93 93q-34 0 -62 -17.5t-28 -39.5q0 -10 3 -15q2 -3 6.5 -6t8.5 -4q18 -5 27.5 -14t9.5 -25q0 -21 -12.5 -30t-31.5 -9q-22 0 -40 17t-18 49q0 37 20.5 64t53 40.5t66.5 13.5q66 0 114 -34.5
t48 -107.5v-246q0 -50 31 -50q25 0 36 29t11 71h18q0 -60 -17.5 -101t-62.5 -41q-43 0 -64.5 25.5t-23.5 70.5l-5 2q-15 -35 -48.5 -66.5t-78.5 -31.5q-53 0 -91.5 26zM262.5 59.5q25.5 35.5 45.5 90.5v95l-87 -19q-48 -10 -69.5 -39.5t-21.5 -83.5q0 -46 19 -62.5t43 -16.5
q45 0 70.5 35.5zM116 521q75 49 111 151h40q36 -102 111 -151l-9 -13q-69 36 -122 92q-54 -57 -122 -92zM350 610l92 133q13 18 24 25t25 7q13 0 20.5 -8.5t7.5 -22.5q0 -23 -28 -44l-128 -101z" />
    <glyph glyph-name="uni1EAD" unicode="&#x1ead;" horiz-adv-x="494" 
d="M84.5 14q-38.5 26 -38.5 92q0 51 26 80t60.5 41.5t83.5 21.5l92 17v85q0 93 -93 93q-34 0 -62 -17.5t-28 -39.5q0 -10 3 -15q2 -3 6.5 -6t8.5 -4q18 -5 27.5 -14t9.5 -25q0 -21 -12.5 -30t-31.5 -9q-22 0 -40 17t-18 49q0 37 20.5 64t53 40.5t66.5 13.5q66 0 114 -34.5
t48 -107.5v-246q0 -50 31 -50q25 0 36 29t11 71h18q0 -60 -17.5 -101t-62.5 -41q-43 0 -64.5 25.5t-23.5 70.5l-5 2q-15 -35 -48.5 -66.5t-78.5 -31.5q-53 0 -91.5 26zM262.5 59.5q25.5 35.5 45.5 90.5v95l-87 -19q-48 -10 -69.5 -39.5t-21.5 -83.5q0 -46 19 -62.5t43 -16.5
q45 0 70.5 35.5zM209.5 -179.5q-14.5 14.5 -14.5 37.5q0 22 14.5 37t37.5 15q22 0 37 -15t15 -37q0 -23 -15 -37.5t-37 -14.5q-23 0 -37.5 14.5zM116 521q75 49 111 151h40q36 -102 111 -151l-9 -13q-69 36 -122 92q-54 -57 -122 -92z" />
    <glyph glyph-name="uni1EA7" unicode="&#x1ea7;" horiz-adv-x="494" 
d="M84.5 14q-38.5 26 -38.5 92q0 51 26 80t60.5 41.5t83.5 21.5l92 17v85q0 93 -93 93q-34 0 -62 -17.5t-28 -39.5q0 -10 3 -15q2 -3 6.5 -6t8.5 -4q18 -5 27.5 -14t9.5 -25q0 -21 -12.5 -30t-31.5 -9q-22 0 -40 17t-18 49q0 37 20.5 64t53 40.5t66.5 13.5q66 0 114 -34.5
t48 -107.5v-246q0 -50 31 -50q25 0 36 29t11 71h18q0 -60 -17.5 -101t-62.5 -41q-43 0 -64.5 25.5t-23.5 70.5l-5 2q-15 -35 -48.5 -66.5t-78.5 -31.5q-53 0 -91.5 26zM262.5 59.5q25.5 35.5 45.5 90.5v95l-87 -19q-48 -10 -69.5 -39.5t-21.5 -83.5q0 -46 19 -62.5t43 -16.5
q45 0 70.5 35.5zM116 521q75 49 111 151h40q36 -102 111 -151l-9 -13q-69 36 -122 92q-54 -57 -122 -92zM226 758q-28 21 -28 44q0 14 7.5 22.5t20.5 8.5q14 0 25 -7t24 -25l92 -133l-13 -11z" />
    <glyph glyph-name="uni1EA9" unicode="&#x1ea9;" horiz-adv-x="494" 
d="M84.5 14q-38.5 26 -38.5 92q0 51 26 80t60.5 41.5t83.5 21.5l92 17v85q0 93 -93 93q-34 0 -62 -17.5t-28 -39.5q0 -10 3 -15q2 -3 6.5 -6t8.5 -4q18 -5 27.5 -14t9.5 -25q0 -21 -12.5 -30t-31.5 -9q-22 0 -40 17t-18 49q0 37 20.5 64t53 40.5t66.5 13.5q66 0 114 -34.5
t48 -107.5v-246q0 -50 31 -50q25 0 36 29t11 71h18q0 -60 -17.5 -101t-62.5 -41q-43 0 -64.5 25.5t-23.5 70.5l-5 2q-15 -35 -48.5 -66.5t-78.5 -31.5q-53 0 -91.5 26zM262.5 59.5q25.5 35.5 45.5 90.5v95l-87 -19q-48 -10 -69.5 -39.5t-21.5 -83.5q0 -46 19 -62.5t43 -16.5
q45 0 70.5 35.5zM116 521q75 49 111 151h40q36 -102 111 -151l-9 -13q-69 36 -122 92q-54 -57 -122 -92zM368 682q27 23 27 58q0 24 -13.5 40t-40.5 16q-21 0 -37.5 -11t-16.5 -25q0 -10 3 -13q1 -1 2.5 -2t2.5 0q1 -1 4 1q3 1 4.5 0.5t3.5 0.5q8 -1 13 -6t5 -13
q0 -9 -7 -15.5t-20 -6.5q-12 0 -22 11t-10 29q0 27 24.5 45.5t54.5 19.5q38 -1 64.5 -19.5t26.5 -51.5q0 -27 -17 -46t-51 -43h-35z" />
    <glyph glyph-name="uni1EAB" unicode="&#x1eab;" horiz-adv-x="494" 
d="M84.5 14q-38.5 26 -38.5 92q0 51 26 80t60.5 41.5t83.5 21.5l92 17v85q0 93 -93 93q-34 0 -62 -17.5t-28 -39.5q0 -10 3 -15q2 -3 6.5 -6t8.5 -4q18 -5 27.5 -14t9.5 -25q0 -21 -12.5 -30t-31.5 -9q-22 0 -40 17t-18 49q0 37 20.5 64t53 40.5t66.5 13.5q66 0 114 -34.5
t48 -107.5v-246q0 -50 31 -50q25 0 36 29t11 71h18q0 -60 -17.5 -101t-62.5 -41q-43 0 -64.5 25.5t-23.5 70.5l-5 2q-15 -35 -48.5 -66.5t-78.5 -31.5q-53 0 -91.5 26zM262.5 59.5q25.5 35.5 45.5 90.5v95l-87 -19q-48 -10 -69.5 -39.5t-21.5 -83.5q0 -46 19 -62.5t43 -16.5
q45 0 70.5 35.5zM116 521q75 49 111 151h40q36 -102 111 -151l-9 -13q-69 36 -122 92q-54 -57 -122 -92zM127 703q6 36 28 62t58 26q19 0 36 -5.5t39 -14.5q19 -8 32 -12t28 -4q34 0 46 42l17 -4q-6 -36 -28 -62t-58 -26q-19 0 -36 5.5t-39 14.5q-19 8 -32 12t-28 4
q-34 0 -46 -42z" />
    <glyph glyph-name="uni0201" unicode="&#x201;" horiz-adv-x="494" 
d="M44 609q-28 21 -28 44q0 14 7.5 22.5t20.5 8.5q14 0 25 -7t24 -25l92 -133l-13 -11zM180 609q-28 21 -28 44q0 14 7.5 22.5t20.5 8.5q14 0 25 -7t24 -25l92 -133l-13 -11zM84.5 14q-38.5 26 -38.5 92q0 51 26 80t60.5 41.5t83.5 21.5l92 17v85q0 93 -93 93
q-34 0 -62 -17.5t-28 -39.5q0 -10 3 -15q2 -3 6.5 -6t8.5 -4q18 -5 27.5 -14t9.5 -25q0 -21 -12.5 -30t-31.5 -9q-22 0 -40 17t-18 49q0 37 20.5 64t53 40.5t66.5 13.5q66 0 114 -34.5t48 -107.5v-246q0 -50 31 -50q25 0 36 29t11 71h18q0 -60 -17.5 -101t-62.5 -41
q-43 0 -64.5 25.5t-23.5 70.5l-5 2q-15 -35 -48.5 -66.5t-78.5 -31.5q-53 0 -91.5 26zM262.5 59.5q25.5 35.5 45.5 90.5v95l-87 -19q-48 -10 -69.5 -39.5t-21.5 -83.5q0 -46 19 -62.5t43 -16.5q45 0 70.5 35.5z" />
    <glyph glyph-name="adieresis" unicode="&#xe4;" horiz-adv-x="494" 
d="M100.5 562.5q-14.5 14.5 -14.5 33.5q0 20 14.5 34t33.5 14q20 0 34 -14t14 -34q0 -19 -14 -33.5t-34 -14.5q-19 0 -33.5 14.5zM288.5 562.5q-14.5 14.5 -14.5 33.5q0 20 14.5 34t33.5 14q20 0 34 -14t14 -34q0 -19 -14 -33.5t-34 -14.5q-19 0 -33.5 14.5zM84.5 14
q-38.5 26 -38.5 92q0 51 26 80t60.5 41.5t83.5 21.5l92 17v85q0 93 -93 93q-34 0 -62 -17.5t-28 -39.5q0 -10 3 -15q2 -3 6.5 -6t8.5 -4q18 -5 27.5 -14t9.5 -25q0 -21 -12.5 -30t-31.5 -9q-22 0 -40 17t-18 49q0 37 20.5 64t53 40.5t66.5 13.5q66 0 114 -34.5t48 -107.5
v-246q0 -50 31 -50q25 0 36 29t11 71h18q0 -60 -17.5 -101t-62.5 -41q-43 0 -64.5 25.5t-23.5 70.5l-5 2q-15 -35 -48.5 -66.5t-78.5 -31.5q-53 0 -91.5 26zM262.5 59.5q25.5 35.5 45.5 90.5v95l-87 -19q-48 -10 -69.5 -39.5t-21.5 -83.5q0 -46 19 -62.5t43 -16.5
q45 0 70.5 35.5z" />
    <glyph glyph-name="uni1EA1" unicode="&#x1ea1;" horiz-adv-x="494" 
d="M84.5 14q-38.5 26 -38.5 92q0 51 26 80t60.5 41.5t83.5 21.5l92 17v85q0 93 -93 93q-34 0 -62 -17.5t-28 -39.5q0 -10 3 -15q2 -3 6.5 -6t8.5 -4q18 -5 27.5 -14t9.5 -25q0 -21 -12.5 -30t-31.5 -9q-22 0 -40 17t-18 49q0 37 20.5 64t53 40.5t66.5 13.5q66 0 114 -34.5
t48 -107.5v-246q0 -50 31 -50q25 0 36 29t11 71h18q0 -60 -17.5 -101t-62.5 -41q-43 0 -64.5 25.5t-23.5 70.5l-5 2q-15 -35 -48.5 -66.5t-78.5 -31.5q-53 0 -91.5 26zM262.5 59.5q25.5 35.5 45.5 90.5v95l-87 -19q-48 -10 -69.5 -39.5t-21.5 -83.5q0 -46 19 -62.5t43 -16.5
q45 0 70.5 35.5zM209.5 -179.5q-14.5 14.5 -14.5 37.5q0 22 14.5 37t37.5 15q22 0 37 -15t15 -37q0 -23 -15 -37.5t-37 -14.5q-23 0 -37.5 14.5z" />
    <glyph glyph-name="agrave" unicode="&#xe0;" horiz-adv-x="494" 
d="M112 609q-28 21 -28 44q0 14 7.5 22.5t20.5 8.5q14 0 25 -7t24 -25l92 -133l-13 -11zM84.5 14q-38.5 26 -38.5 92q0 51 26 80t60.5 41.5t83.5 21.5l92 17v85q0 93 -93 93q-34 0 -62 -17.5t-28 -39.5q0 -10 3 -15q2 -3 6.5 -6t8.5 -4q18 -5 27.5 -14t9.5 -25
q0 -21 -12.5 -30t-31.5 -9q-22 0 -40 17t-18 49q0 37 20.5 64t53 40.5t66.5 13.5q66 0 114 -34.5t48 -107.5v-246q0 -50 31 -50q25 0 36 29t11 71h18q0 -60 -17.5 -101t-62.5 -41q-43 0 -64.5 25.5t-23.5 70.5l-5 2q-15 -35 -48.5 -66.5t-78.5 -31.5q-53 0 -91.5 26z
M262.5 59.5q25.5 35.5 45.5 90.5v95l-87 -19q-48 -10 -69.5 -39.5t-21.5 -83.5q0 -46 19 -62.5t43 -16.5q45 0 70.5 35.5z" />
    <glyph glyph-name="uni1EA3" unicode="&#x1ea3;" horiz-adv-x="494" 
d="M84.5 14q-38.5 26 -38.5 92q0 51 26 80t60.5 41.5t83.5 21.5l92 17v85q0 93 -93 93q-34 0 -62 -17.5t-28 -39.5q0 -10 3 -15q2 -3 6.5 -6t8.5 -4q18 -5 27.5 -14t9.5 -25q0 -21 -12.5 -30t-31.5 -9q-22 0 -40 17t-18 49q0 37 20.5 64t53 40.5t66.5 13.5q66 0 114 -34.5
t48 -107.5v-246q0 -50 31 -50q25 0 36 29t11 71h18q0 -60 -17.5 -101t-62.5 -41q-43 0 -64.5 25.5t-23.5 70.5l-5 2q-15 -35 -48.5 -66.5t-78.5 -31.5q-53 0 -91.5 26zM262.5 59.5q25.5 35.5 45.5 90.5v95l-87 -19q-48 -10 -69.5 -39.5t-21.5 -83.5q0 -46 19 -62.5t43 -16.5
q45 0 70.5 35.5zM264 561q27 23 27 58q0 24 -13.5 40t-40.5 16q-21 0 -37.5 -11t-16.5 -25q0 -10 3 -13q1 -1 2.5 -2t2.5 0q1 -1 4 1q3 1 4.5 0.5t3.5 0.5q8 -1 13 -6t5 -13q0 -9 -7 -15.5t-20 -6.5q-12 0 -22 11t-10 29q0 27 24.5 45.5t54.5 19.5q38 -1 64.5 -19.5
t26.5 -51.5q0 -27 -17 -46t-51 -43h-35z" />
    <glyph glyph-name="uni0203" unicode="&#x203;" horiz-adv-x="494" 
d="M96 524q8 29 27 63t46.5 58.5t58.5 24.5t58.5 -24.5t46.5 -58.5t27 -63l-16 -6q-15 36 -45.5 66t-70.5 30t-70.5 -30t-45.5 -66zM84.5 14q-38.5 26 -38.5 92q0 51 26 80t60.5 41.5t83.5 21.5l92 17v85q0 93 -93 93q-34 0 -62 -17.5t-28 -39.5q0 -10 3 -15q2 -3 6.5 -6
t8.5 -4q18 -5 27.5 -14t9.5 -25q0 -21 -12.5 -30t-31.5 -9q-22 0 -40 17t-18 49q0 37 20.5 64t53 40.5t66.5 13.5q66 0 114 -34.5t48 -107.5v-246q0 -50 31 -50q25 0 36 29t11 71h18q0 -60 -17.5 -101t-62.5 -41q-43 0 -64.5 25.5t-23.5 70.5l-5 2q-15 -35 -48.5 -66.5
t-78.5 -31.5q-53 0 -91.5 26zM262.5 59.5q25.5 35.5 45.5 90.5v95l-87 -19q-48 -10 -69.5 -39.5t-21.5 -83.5q0 -46 19 -62.5t43 -16.5q45 0 70.5 35.5z" />
    <glyph glyph-name="amacron" unicode="&#x101;" horiz-adv-x="494" 
d="M98 572v40h260v-40h-260zM84.5 14q-38.5 26 -38.5 92q0 51 26 80t60.5 41.5t83.5 21.5l92 17v85q0 93 -93 93q-34 0 -62 -17.5t-28 -39.5q0 -10 3 -15q2 -3 6.5 -6t8.5 -4q18 -5 27.5 -14t9.5 -25q0 -21 -12.5 -30t-31.5 -9q-22 0 -40 17t-18 49q0 37 20.5 64t53 40.5
t66.5 13.5q66 0 114 -34.5t48 -107.5v-246q0 -50 31 -50q25 0 36 29t11 71h18q0 -60 -17.5 -101t-62.5 -41q-43 0 -64.5 25.5t-23.5 70.5l-5 2q-15 -35 -48.5 -66.5t-78.5 -31.5q-53 0 -91.5 26zM262.5 59.5q25.5 35.5 45.5 90.5v95l-87 -19q-48 -10 -69.5 -39.5
t-21.5 -83.5q0 -46 19 -62.5t43 -16.5q45 0 70.5 35.5z" />
    <glyph glyph-name="aogonek" unicode="&#x105;" horiz-adv-x="494" 
d="M297 -198.5q-23 21.5 -23 56.5q0 67 98 130v2q-31 7 -46.5 31.5t-17.5 62.5l-5 2q-15 -35 -48.5 -66.5t-78.5 -31.5q-53 0 -91.5 26t-38.5 92q0 51 26 80t60.5 41.5t83.5 21.5l92 17v85q0 93 -93 93q-34 0 -62 -17.5t-28 -39.5q0 -10 3 -15q2 -3 6.5 -6t8.5 -4
q18 -5 27.5 -14t9.5 -25q0 -21 -12.5 -30t-31.5 -9q-22 0 -40 17t-18 49q0 37 20.5 64t53 40.5t66.5 13.5q66 0 114 -34.5t48 -107.5v-246q0 -50 31 -50q25 0 36 29t11 71h18q0 -56 -13.5 -92.5t-48.5 -49.5q-36 -14 -60 -46.5t-24 -70.5q0 -22 11 -34.5t33 -12.5
q18 0 30.5 8.5t27.5 25.5l14 -10q-15 -28 -39.5 -48t-53.5 -20q-33 0 -56 21.5zM262.5 59.5q25.5 35.5 45.5 90.5v95l-87 -19q-48 -10 -69.5 -39.5t-21.5 -83.5q0 -46 19 -62.5t43 -16.5q45 0 70.5 35.5z" />
    <glyph glyph-name="aring" unicode="&#xe5;" horiz-adv-x="494" 
d="M159 529q-29 29 -29 69q0 41 29 69.5t69 28.5q41 0 69.5 -28.5t28.5 -69.5q0 -40 -28.5 -69t-69.5 -29q-40 0 -69 29zM280.5 545.5q21.5 21.5 21.5 52.5t-21.5 52.5t-52.5 21.5t-52.5 -21.5t-21.5 -52.5t21.5 -52.5t52.5 -21.5t52.5 21.5zM84.5 14q-38.5 26 -38.5 92
q0 51 26 80t60.5 41.5t83.5 21.5l92 17v85q0 93 -93 93q-34 0 -62 -17.5t-28 -39.5q0 -10 3 -15q2 -3 6.5 -6t8.5 -4q18 -5 27.5 -14t9.5 -25q0 -21 -12.5 -30t-31.5 -9q-22 0 -40 17t-18 49q0 37 20.5 64t53 40.5t66.5 13.5q66 0 114 -34.5t48 -107.5v-246q0 -50 31 -50
q25 0 36 29t11 71h18q0 -60 -17.5 -101t-62.5 -41q-43 0 -64.5 25.5t-23.5 70.5l-5 2q-15 -35 -48.5 -66.5t-78.5 -31.5q-53 0 -91.5 26zM262.5 59.5q25.5 35.5 45.5 90.5v95l-87 -19q-48 -10 -69.5 -39.5t-21.5 -83.5q0 -46 19 -62.5t43 -16.5q45 0 70.5 35.5z" />
    <glyph glyph-name="aringacute" unicode="&#x1fb;" horiz-adv-x="494" 
d="M203 707l92 133q13 18 24 25t25 7q13 0 20.5 -8.5t7.5 -22.5q0 -23 -28 -44l-128 -101zM159 513q-29 29 -29 69q0 41 29 69.5t69 28.5q41 0 69.5 -28.5t28.5 -69.5q0 -40 -28.5 -69t-69.5 -29q-40 0 -69 29zM280.5 529.5q21.5 21.5 21.5 52.5t-21.5 52.5t-52.5 21.5
t-52.5 -21.5t-21.5 -52.5t21.5 -52.5t52.5 -21.5t52.5 21.5zM84.5 14q-38.5 26 -38.5 92q0 51 26 80t60.5 41.5t83.5 21.5l92 17v85q0 93 -93 93q-34 0 -62 -17.5t-28 -39.5q0 -10 3 -15q2 -3 6.5 -6t8.5 -4q18 -5 27.5 -14t9.5 -25q0 -21 -12.5 -30t-31.5 -9q-22 0 -40 17
t-18 49q0 37 20.5 64t53 40.5t66.5 13.5q66 0 114 -34.5t48 -107.5v-246q0 -50 31 -50q25 0 36 29t11 71h18q0 -60 -17.5 -101t-62.5 -41q-43 0 -64.5 25.5t-23.5 70.5l-5 2q-15 -35 -48.5 -66.5t-78.5 -31.5q-53 0 -91.5 26zM262.5 59.5q25.5 35.5 45.5 90.5v95l-87 -19
q-48 -10 -69.5 -39.5t-21.5 -83.5q0 -46 19 -62.5t43 -16.5q45 0 70.5 35.5z" />
    <glyph glyph-name="atilde" unicode="&#xe3;" horiz-adv-x="494" 
d="M86 558q6 36 28 62t58 26q19 0 36 -5.5t39 -14.5q19 -8 32 -12t28 -4q34 0 46 42l17 -4q-6 -36 -28 -62t-58 -26q-19 0 -36 5.5t-39 14.5q-19 8 -32 12t-28 4q-34 0 -46 -42zM84.5 14q-38.5 26 -38.5 92q0 51 26 80t60.5 41.5t83.5 21.5l92 17v85q0 93 -93 93
q-34 0 -62 -17.5t-28 -39.5q0 -10 3 -15q2 -3 6.5 -6t8.5 -4q18 -5 27.5 -14t9.5 -25q0 -21 -12.5 -30t-31.5 -9q-22 0 -40 17t-18 49q0 37 20.5 64t53 40.5t66.5 13.5q66 0 114 -34.5t48 -107.5v-246q0 -50 31 -50q25 0 36 29t11 71h18q0 -60 -17.5 -101t-62.5 -41
q-43 0 -64.5 25.5t-23.5 70.5l-5 2q-15 -35 -48.5 -66.5t-78.5 -31.5q-53 0 -91.5 26zM262.5 59.5q25.5 35.5 45.5 90.5v95l-87 -19q-48 -10 -69.5 -39.5t-21.5 -83.5q0 -46 19 -62.5t43 -16.5q45 0 70.5 35.5z" />
    <glyph glyph-name="ae" unicode="&#xe6;" horiz-adv-x="700" 
d="M84.5 14q-38.5 26 -38.5 92q0 51 26 80t60.5 41.5t83.5 21.5l92 17v85q0 93 -93 93q-34 0 -62 -17.5t-28 -39.5q0 -10 3 -15q2 -3 6.5 -6t8.5 -4q18 -5 27.5 -14t9.5 -25q0 -21 -12.5 -30t-31.5 -9q-22 0 -40 17t-18 49q0 37 20.5 64t53 40.5t66.5 13.5q43 0 80 -14.5
t59 -45.5q50 60 125 60q61 0 100 -33t56.5 -83.5t17.5 -103.5q0 -11 -7 -14.5t-24 -3.5h-245q0 -101 27 -159.5t91 -58.5q46 0 86.5 35t51.5 109h24q-6 -73 -50.5 -120.5t-115.5 -47.5q-66 0 -107.5 29.5t-63.5 74.5h-4q-16 -37 -56.5 -70.5t-86.5 -33.5q-53 0 -91.5 26z
M570 254q0 80 -21 135t-69 55q-50 0 -75 -55.5t-25 -134.5h190zM269 51.5q31 27.5 45 62.5q-6 44 -6 128l-87 -16q-48 -9 -69.5 -39t-21.5 -84q0 -46 19 -62.5t43 -16.5q46 0 77 27.5z" />
    <glyph glyph-name="aeacute" unicode="&#x1fd;" horiz-adv-x="700" 
d="M331 519l92 133q13 18 24 25t25 7q13 0 20.5 -8.5t7.5 -22.5q0 -23 -28 -44l-128 -101zM84.5 14q-38.5 26 -38.5 92q0 51 26 80t60.5 41.5t83.5 21.5l92 17v85q0 93 -93 93q-34 0 -62 -17.5t-28 -39.5q0 -10 3 -15q2 -3 6.5 -6t8.5 -4q18 -5 27.5 -14t9.5 -25
q0 -21 -12.5 -30t-31.5 -9q-22 0 -40 17t-18 49q0 37 20.5 64t53 40.5t66.5 13.5q43 0 80 -14.5t59 -45.5q50 60 125 60q61 0 100 -33t56.5 -83.5t17.5 -103.5q0 -11 -7 -14.5t-24 -3.5h-245q0 -101 27 -159.5t91 -58.5q46 0 86.5 35t51.5 109h24q-6 -73 -50.5 -120.5
t-115.5 -47.5q-66 0 -107.5 29.5t-63.5 74.5h-4q-16 -37 -56.5 -70.5t-86.5 -33.5q-53 0 -91.5 26zM570 254q0 80 -21 135t-69 55q-50 0 -75 -55.5t-25 -134.5h190zM269 51.5q31 27.5 45 62.5q-6 44 -6 128l-87 -16q-48 -9 -69.5 -39t-21.5 -84q0 -46 19 -62.5t43 -16.5
q46 0 77 27.5z" />
    <glyph glyph-name="b" unicode="b" horiz-adv-x="512" 
d="M214 15q-34 27 -54 71h-4l-42 -86h-18v666q0 12 -5 17t-17 5h-52v24h146v-330l4 -1q15 36 46 61.5t70 25.5q47 0 87.5 -31.5t64.5 -86.5t24 -122t-24 -122t-64.5 -86.5t-87.5 -31.5q-40 0 -74 27zM351 71q25 55 25 157t-25 157t-74 55q-30 0 -55 -22t-39.5 -60.5
t-14.5 -83.5v-92q0 -45 14.5 -83.5t39.5 -60.5t55 -22q49 0 74 55z" />
    <glyph glyph-name="c" unicode="c" horiz-adv-x="436" 
d="M141.5 20q-44.5 32 -69 87t-24.5 121t25 121t69.5 87t101.5 32q46 0 80 -19.5t52 -50t18 -61.5t-16 -48.5t-39 -17.5q-20 0 -33.5 13t-13.5 31t10 30t24 16q16 5 16 18q0 12 -10.5 27t-32.5 26.5t-55 11.5q-63 0 -85.5 -54t-22.5 -162t22 -162t86 -54q61 0 94 43t40 101
h24q-3 -41 -21 -79.5t-53 -63.5t-84 -25q-58 0 -102.5 32z" />
    <glyph glyph-name="cacute" unicode="&#x107;" horiz-adv-x="436" 
d="M223 519l92 133q13 18 24 25t25 7q13 0 20.5 -8.5t7.5 -22.5q0 -23 -28 -44l-128 -101zM141.5 20q-44.5 32 -69 87t-24.5 121t25 121t69.5 87t101.5 32q46 0 80 -19.5t52 -50t18 -61.5t-16 -48.5t-39 -17.5q-20 0 -33.5 13t-13.5 31t10 30t24 16q16 5 16 18
q0 12 -10.5 27t-32.5 26.5t-55 11.5q-63 0 -85.5 -54t-22.5 -162t22 -162t86 -54q61 0 94 43t40 101h24q-3 -41 -21 -79.5t-53 -63.5t-84 -25q-58 0 -102.5 32z" />
    <glyph glyph-name="ccaron" unicode="&#x10d;" horiz-adv-x="436" 
d="M228 508l-112 153l13 11l119 -100l119 100l13 -11l-112 -153h-40zM141.5 20q-44.5 32 -69 87t-24.5 121t25 121t69.5 87t101.5 32q46 0 80 -19.5t52 -50t18 -61.5t-16 -48.5t-39 -17.5q-20 0 -33.5 13t-13.5 31t10 30t24 16q16 5 16 18q0 12 -10.5 27t-32.5 26.5
t-55 11.5q-63 0 -85.5 -54t-22.5 -162t22 -162t86 -54q61 0 94 43t40 101h24q-3 -41 -21 -79.5t-53 -63.5t-84 -25q-58 0 -102.5 32z" />
    <glyph glyph-name="ccedilla" unicode="&#xe7;" horiz-adv-x="436" 
d="M185.5 -195.5q-25.5 16.5 -25.5 46.5q0 11 7 19t17 8q23 0 27 -32q7 -40 40 -40q27 0 42 12.5t15 35.5q0 48 -58 48h-41l14 87q-53 6 -92.5 39t-61 85.5t-21.5 114.5q0 66 25 121t69.5 87t101.5 32q46 0 80 -19.5t52 -50t18 -61.5t-16 -48.5t-39 -17.5q-20 0 -33.5 13
t-13.5 31t10 30t24 16q16 5 16 18q0 12 -10.5 27t-32.5 26.5t-55 11.5q-63 0 -85.5 -54t-22.5 -162t22 -162t86 -54q61 0 94 43t40 101h24q-3 -40 -21 -79t-52.5 -64t-82.5 -25l-6 -38h26q33 0 56.5 -18.5t23.5 -53.5q0 -37 -24 -63.5t-78 -26.5q-33 0 -58.5 16.5z" />
    <glyph glyph-name="uni1E09" unicode="&#x1e09;" horiz-adv-x="436" 
d="M223 519l92 133q13 18 24 25t25 7q13 0 20.5 -8.5t7.5 -22.5q0 -23 -28 -44l-128 -101zM185.5 -195.5q-25.5 16.5 -25.5 46.5q0 11 7 19t17 8q23 0 27 -32q7 -40 40 -40q27 0 42 12.5t15 35.5q0 48 -58 48h-41l14 87q-53 6 -92.5 39t-61 85.5t-21.5 114.5q0 66 25 121
t69.5 87t101.5 32q46 0 80 -19.5t52 -50t18 -61.5t-16 -48.5t-39 -17.5q-20 0 -33.5 13t-13.5 31t10 30t24 16q16 5 16 18q0 12 -10.5 27t-32.5 26.5t-55 11.5q-63 0 -85.5 -54t-22.5 -162t22 -162t86 -54q61 0 94 43t40 101h24q-3 -40 -21 -79t-52.5 -64t-82.5 -25l-6 -38
h26q33 0 56.5 -18.5t23.5 -53.5q0 -37 -24 -63.5t-78 -26.5q-33 0 -58.5 16.5z" />
    <glyph glyph-name="ccircumflex" unicode="&#x109;" horiz-adv-x="436" 
d="M117 521q75 49 111 151h40q36 -102 111 -151l-9 -13q-69 36 -122 92q-54 -57 -122 -92zM141.5 20q-44.5 32 -69 87t-24.5 121t25 121t69.5 87t101.5 32q46 0 80 -19.5t52 -50t18 -61.5t-16 -48.5t-39 -17.5q-20 0 -33.5 13t-13.5 31t10 30t24 16q16 5 16 18
q0 12 -10.5 27t-32.5 26.5t-55 11.5q-63 0 -85.5 -54t-22.5 -162t22 -162t86 -54q61 0 94 43t40 101h24q-3 -41 -21 -79.5t-53 -63.5t-84 -25q-58 0 -102.5 32z" />
    <glyph glyph-name="cdotaccent" unicode="&#x10b;" horiz-adv-x="436" 
d="M211 559q-15 15 -15 37q0 23 15 37.5t37 14.5q23 0 37.5 -14.5t14.5 -37.5q0 -22 -14.5 -37t-37.5 -15q-22 0 -37 15zM141.5 20q-44.5 32 -69 87t-24.5 121t25 121t69.5 87t101.5 32q46 0 80 -19.5t52 -50t18 -61.5t-16 -48.5t-39 -17.5q-20 0 -33.5 13t-13.5 31t10 30
t24 16q16 5 16 18q0 12 -10.5 27t-32.5 26.5t-55 11.5q-63 0 -85.5 -54t-22.5 -162t22 -162t86 -54q61 0 94 43t40 101h24q-3 -41 -21 -79.5t-53 -63.5t-84 -25q-58 0 -102.5 32z" />
    <glyph glyph-name="d" unicode="d" horiz-adv-x="522" 
d="M136.5 19.5q-40.5 31.5 -64.5 86.5t-24 122t24 122t64.5 86.5t87.5 31.5q39 0 70 -25.5t46 -61.5l4 1v284q0 12 -5 17t-17 5h-72v24h166v-666q0 -12 5 -17t17 -5h52v-24h-146v74l-4 1q-19 -40 -48.5 -63.5t-67.5 -23.5q-47 0 -87.5 31.5zM290 38q25 22 39.5 60.5
t14.5 83.5v92q0 45 -14.5 83.5t-39.5 60.5t-55 22q-49 0 -74 -55t-25 -157t25 -157t74 -55q30 0 55 22z" />
    <glyph glyph-name="eth" unicode="&#xf0;" horiz-adv-x="500" 
d="M147 20.5q-46 32.5 -72.5 87.5t-26.5 120t26.5 120t72.5 87.5t101 32.5q32 0 63 -12l3 4q-23 43 -84 120l-108 -67l-15 23l104 65q-45 57 -103 111h96q26 -23 67 -74l108 68l15 -23l-105 -66q35 -43 67 -92q92 -143 92 -267q0 -85 -27 -146t-72.5 -92.5t-100.5 -31.5
t-101 32.5zM334 68.5q26 56.5 26 159.5t-26 159.5t-86 56.5t-86 -56.5t-26 -159.5t26 -159.5t86 -56.5t86 56.5z" />
    <glyph glyph-name="dcaron" unicode="&#x10f;" horiz-adv-x="576" 
d="M460 500q32 22 54 51.5t22 56.5q0 11 -6 18q-6 8 -24 8t-30 12.5t-12 29.5q0 20 12.5 32t31.5 12q26 0 43 -22t17 -54q0 -47 -27.5 -87t-70.5 -69zM136.5 19.5q-40.5 31.5 -64.5 86.5t-24 122t24 122t64.5 86.5t87.5 31.5q39 0 70 -25.5t46 -61.5l4 1v284q0 12 -5 17
t-17 5h-72v24h166v-666q0 -12 5 -17t17 -5h52v-24h-146v74l-4 1q-19 -40 -48.5 -63.5t-67.5 -23.5q-47 0 -87.5 31.5zM290 38q25 22 39.5 60.5t14.5 83.5v92q0 45 -14.5 83.5t-39.5 60.5t-55 22q-49 0 -74 -55t-25 -157t25 -157t74 -55q30 0 55 22z" />
    <glyph glyph-name="dcroat" unicode="&#x111;" horiz-adv-x="522" 
d="M136.5 19.5q-40.5 31.5 -64.5 86.5t-24 122t24 122t64.5 86.5t87.5 31.5q39 0 70 -25.5t46 -61.5l4 1v174h-184v28h184v82q0 12 -5 17t-17 5h-72v24h166v-128h74v-28h-74v-510q0 -12 5 -17t17 -5h52v-24h-146v74l-4 1q-19 -40 -48.5 -63.5t-67.5 -23.5q-47 0 -87.5 31.5z
M290 38q25 22 39.5 60.5t14.5 83.5v92q0 45 -14.5 83.5t-39.5 60.5t-55 22q-49 0 -74 -55t-25 -157t25 -157t74 -55q30 0 55 22z" />
    <glyph glyph-name="uni1E0D" unicode="&#x1e0d;" horiz-adv-x="522" 
d="M136.5 19.5q-40.5 31.5 -64.5 86.5t-24 122t24 122t64.5 86.5t87.5 31.5q39 0 70 -25.5t46 -61.5l4 1v284q0 12 -5 17t-17 5h-72v24h166v-666q0 -12 5 -17t17 -5h52v-24h-146v74l-4 1q-19 -40 -48.5 -63.5t-67.5 -23.5q-47 0 -87.5 31.5zM290 38q25 22 39.5 60.5
t14.5 83.5v92q0 45 -14.5 83.5t-39.5 60.5t-55 22q-49 0 -74 -55t-25 -157t25 -157t74 -55q30 0 55 22zM193 -179.5q-15 14.5 -15 37.5q0 22 15 37t37 15q23 0 37.5 -15t14.5 -37q0 -23 -14.5 -37.5t-37.5 -14.5q-22 0 -37 14.5z" />
    <glyph glyph-name="uni1E0F" unicode="&#x1e0f;" horiz-adv-x="522" 
d="M136.5 19.5q-40.5 31.5 -64.5 86.5t-24 122t24 122t64.5 86.5t87.5 31.5q39 0 70 -25.5t46 -61.5l4 1v284q0 12 -5 17t-17 5h-72v24h166v-666q0 -12 5 -17t17 -5h52v-24h-146v74l-4 1q-19 -40 -48.5 -63.5t-67.5 -23.5q-47 0 -87.5 31.5zM290 38q25 22 39.5 60.5
t14.5 83.5v92q0 45 -14.5 83.5t-39.5 60.5t-55 22q-49 0 -74 -55t-25 -157t25 -157t74 -55q30 0 55 22zM100 -166v40h260v-40h-260z" />
    <glyph glyph-name="uni01F3" unicode="&#x1f3;" horiz-adv-x="962" 
d="M136.5 19.5q-40.5 31.5 -64.5 86.5t-24 122t24 122t64.5 86.5t87.5 31.5q39 0 70 -25.5t46 -61.5l4 1v284q0 12 -5 17t-17 5h-72v24h166v-666q0 -12 5 -17t17 -5h52v-24h-146v74l-4 1q-19 -40 -48.5 -63.5t-67.5 -23.5q-47 0 -87.5 31.5zM562 26l260 406h-122
q-62 0 -88 -50q-15 -30 -22.5 -62.5t-7.5 -39.5h-20l6 176h336v-32l-259 -400h127q32 0 54 13.5t34 36.5q15 30 22.5 62.5t7.5 39.5h20l-6 -176h-342v26zM290 38q25 22 39.5 60.5t14.5 83.5v92q0 45 -14.5 83.5t-39.5 60.5t-55 22q-49 0 -74 -55t-25 -157t25 -157t74 -55
q30 0 55 22z" />
    <glyph glyph-name="uni01C6" unicode="&#x1c6;" horiz-adv-x="962" 
d="M136.5 19.5q-40.5 31.5 -64.5 86.5t-24 122t24 122t64.5 86.5t87.5 31.5q39 0 70 -25.5t46 -61.5l4 1v284q0 12 -5 17t-17 5h-72v24h166v-666q0 -12 5 -17t17 -5h52v-24h-146v74l-4 1q-19 -40 -48.5 -63.5t-67.5 -23.5q-47 0 -87.5 31.5zM722 508l-112 153l13 11
l119 -100l119 100l13 -11l-112 -153h-40zM562 26l260 406h-122q-62 0 -88 -50q-15 -30 -22.5 -62.5t-7.5 -39.5h-20l6 176h336v-32l-259 -400h127q32 0 54 13.5t34 36.5q15 30 22.5 62.5t7.5 39.5h20l-6 -176h-342v26zM290 38q25 22 39.5 60.5t14.5 83.5v92q0 45 -14.5 83.5
t-39.5 60.5t-55 22q-49 0 -74 -55t-25 -157t25 -157t74 -55q30 0 55 22z" />
    <glyph glyph-name="e" unicode="e" horiz-adv-x="460" 
d="M104.5 51q-56.5 63 -56.5 175q0 64 25 119.5t69.5 89t99.5 33.5q61 0 100 -33t56.5 -83.5t17.5 -103.5q0 -11 -7 -14.5t-24 -3.5h-249q0 -100 28.5 -159t93.5 -59q46 0 86.5 35t51.5 109h24q-6 -73 -50.5 -120.5t-115.5 -47.5q-93 0 -149.5 63zM330 254q0 80 -21 135
t-69 55q-51 0 -77.5 -55.5t-26.5 -134.5h194z" />
    <glyph glyph-name="eacute" unicode="&#xe9;" horiz-adv-x="460" 
d="M215 519l92 133q13 18 24 25t25 7q13 0 20.5 -8.5t7.5 -22.5q0 -23 -28 -44l-128 -101zM104.5 51q-56.5 63 -56.5 175q0 64 25 119.5t69.5 89t99.5 33.5q61 0 100 -33t56.5 -83.5t17.5 -103.5q0 -11 -7 -14.5t-24 -3.5h-249q0 -100 28.5 -159t93.5 -59q46 0 86.5 35
t51.5 109h24q-6 -73 -50.5 -120.5t-115.5 -47.5q-93 0 -149.5 63zM330 254q0 80 -21 135t-69 55q-51 0 -77.5 -55.5t-26.5 -134.5h194z" />
    <glyph glyph-name="ebreve" unicode="&#x115;" horiz-adv-x="460" 
d="M164.5 549.5q-31.5 23.5 -47 56.5t-15.5 60h22q6 -40 33.5 -70t82.5 -30t82.5 30t33.5 70h22q0 -27 -15.5 -60t-47 -56.5t-75.5 -23.5t-75.5 23.5zM104.5 51q-56.5 63 -56.5 175q0 64 25 119.5t69.5 89t99.5 33.5q61 0 100 -33t56.5 -83.5t17.5 -103.5q0 -11 -7 -14.5
t-24 -3.5h-249q0 -100 28.5 -159t93.5 -59q46 0 86.5 35t51.5 109h24q-6 -73 -50.5 -120.5t-115.5 -47.5q-93 0 -149.5 63zM330 254q0 80 -21 135t-69 55q-51 0 -77.5 -55.5t-26.5 -134.5h194z" />
    <glyph glyph-name="ecaron" unicode="&#x11b;" horiz-adv-x="460" 
d="M220 508l-112 153l13 11l119 -100l119 100l13 -11l-112 -153h-40zM104.5 51q-56.5 63 -56.5 175q0 64 25 119.5t69.5 89t99.5 33.5q61 0 100 -33t56.5 -83.5t17.5 -103.5q0 -11 -7 -14.5t-24 -3.5h-249q0 -100 28.5 -159t93.5 -59q46 0 86.5 35t51.5 109h24
q-6 -73 -50.5 -120.5t-115.5 -47.5q-93 0 -149.5 63zM330 254q0 80 -21 135t-69 55q-51 0 -77.5 -55.5t-26.5 -134.5h194z" />
    <glyph glyph-name="uni1E1D" unicode="&#x1e1d;" horiz-adv-x="460" 
d="M164.5 549.5q-31.5 23.5 -47 56.5t-15.5 60h22q6 -40 33.5 -70t82.5 -30t82.5 30t33.5 70h22q0 -27 -15.5 -60t-47 -56.5t-75.5 -23.5t-75.5 23.5zM189.5 -195.5q-25.5 16.5 -25.5 46.5q0 11 7 19t17 8q23 0 27 -32q7 -40 40 -40q28 0 42.5 12.5t14.5 35.5q0 48 -58 48
h-41l14 87q-82 9 -130.5 71t-48.5 166q0 64 25 119.5t69.5 89t99.5 33.5q61 0 100 -33t56.5 -83.5t17.5 -103.5q0 -11 -7 -14.5t-24 -3.5h-249q0 -100 28.5 -159t93.5 -59q46 0 86.5 35t51.5 109h24q-6 -73 -50.5 -120.5t-115.5 -47.5h-4l-6 -38h26q33 0 56.5 -18.5
t23.5 -53.5q0 -37 -24 -63.5t-78 -26.5q-33 0 -58.5 16.5zM330 254q0 80 -21 135t-69 55q-51 0 -77.5 -55.5t-26.5 -134.5h194z" />
    <glyph glyph-name="ecircumflex" unicode="&#xea;" horiz-adv-x="460" 
d="M109 521q75 49 111 151h40q36 -102 111 -151l-9 -13q-69 36 -122 92q-54 -57 -122 -92zM104.5 51q-56.5 63 -56.5 175q0 64 25 119.5t69.5 89t99.5 33.5q61 0 100 -33t56.5 -83.5t17.5 -103.5q0 -11 -7 -14.5t-24 -3.5h-249q0 -100 28.5 -159t93.5 -59q46 0 86.5 35
t51.5 109h24q-6 -73 -50.5 -120.5t-115.5 -47.5q-93 0 -149.5 63zM330 254q0 80 -21 135t-69 55q-51 0 -77.5 -55.5t-26.5 -134.5h194z" />
    <glyph glyph-name="uni1EBF" unicode="&#x1ebf;" horiz-adv-x="460" 
d="M104.5 51q-56.5 63 -56.5 175q0 64 25 119.5t69.5 89t99.5 33.5q61 0 100 -33t56.5 -83.5t17.5 -103.5q0 -11 -7 -14.5t-24 -3.5h-249q0 -100 28.5 -159t93.5 -59q46 0 86.5 35t51.5 109h24q-6 -73 -50.5 -120.5t-115.5 -47.5q-93 0 -149.5 63zM330 254q0 80 -21 135
t-69 55q-51 0 -77.5 -55.5t-26.5 -134.5h194zM99 521q75 49 111 151h40q36 -102 111 -151l-9 -13q-69 36 -122 92q-54 -57 -122 -92zM333 610l92 133q13 18 24 25t25 7q13 0 20.5 -8.5t7.5 -22.5q0 -23 -28 -44l-128 -101z" />
    <glyph glyph-name="uni1EC7" unicode="&#x1ec7;" horiz-adv-x="460" 
d="M104.5 51q-56.5 63 -56.5 175q0 64 25 119.5t69.5 89t99.5 33.5q61 0 100 -33t56.5 -83.5t17.5 -103.5q0 -11 -7 -14.5t-24 -3.5h-249q0 -100 28.5 -159t93.5 -59q46 0 86.5 35t51.5 109h24q-6 -73 -50.5 -120.5t-115.5 -47.5q-93 0 -149.5 63zM330 254q0 80 -21 135
t-69 55q-51 0 -77.5 -55.5t-26.5 -134.5h194zM192.5 -179.5q-14.5 14.5 -14.5 37.5q0 22 14.5 37t37.5 15q22 0 37 -15t15 -37q0 -23 -15 -37.5t-37 -14.5q-23 0 -37.5 14.5zM99 521q75 49 111 151h40q36 -102 111 -151l-9 -13q-69 36 -122 92q-54 -57 -122 -92z" />
    <glyph glyph-name="uni1EC1" unicode="&#x1ec1;" horiz-adv-x="460" 
d="M104.5 51q-56.5 63 -56.5 175q0 64 25 119.5t69.5 89t99.5 33.5q61 0 100 -33t56.5 -83.5t17.5 -103.5q0 -11 -7 -14.5t-24 -3.5h-249q0 -100 28.5 -159t93.5 -59q46 0 86.5 35t51.5 109h24q-6 -73 -50.5 -120.5t-115.5 -47.5q-93 0 -149.5 63zM330 254q0 80 -21 135
t-69 55q-51 0 -77.5 -55.5t-26.5 -134.5h194zM99 521q75 49 111 151h40q36 -102 111 -151l-9 -13q-69 36 -122 92q-54 -57 -122 -92zM209 758q-28 21 -28 44q0 14 7.5 22.5t20.5 8.5q14 0 25 -7t24 -25l92 -133l-13 -11z" />
    <glyph glyph-name="uni1EC3" unicode="&#x1ec3;" horiz-adv-x="460" 
d="M104.5 51q-56.5 63 -56.5 175q0 64 25 119.5t69.5 89t99.5 33.5q61 0 100 -33t56.5 -83.5t17.5 -103.5q0 -11 -7 -14.5t-24 -3.5h-249q0 -100 28.5 -159t93.5 -59q46 0 86.5 35t51.5 109h24q-6 -73 -50.5 -120.5t-115.5 -47.5q-93 0 -149.5 63zM330 254q0 80 -21 135
t-69 55q-51 0 -77.5 -55.5t-26.5 -134.5h194zM99 521q75 49 111 151h40q36 -102 111 -151l-9 -13q-69 36 -122 92q-54 -57 -122 -92zM351 682q27 23 27 58q0 24 -13.5 40t-40.5 16q-21 0 -37.5 -11t-16.5 -25q0 -10 3 -13q1 -1 2.5 -2t2.5 0q1 -1 4 1q3 1 4.5 0.5t3.5 0.5
q8 -1 13 -6t5 -13q0 -9 -7 -15.5t-20 -6.5q-12 0 -22 11t-10 29q0 27 24.5 45.5t54.5 19.5q38 -1 64.5 -19.5t26.5 -51.5q0 -27 -17 -46t-51 -43h-35z" />
    <glyph glyph-name="uni1EC5" unicode="&#x1ec5;" horiz-adv-x="460" 
d="M104.5 51q-56.5 63 -56.5 175q0 64 25 119.5t69.5 89t99.5 33.5q61 0 100 -33t56.5 -83.5t17.5 -103.5q0 -11 -7 -14.5t-24 -3.5h-249q0 -100 28.5 -159t93.5 -59q46 0 86.5 35t51.5 109h24q-6 -73 -50.5 -120.5t-115.5 -47.5q-93 0 -149.5 63zM330 254q0 80 -21 135
t-69 55q-51 0 -77.5 -55.5t-26.5 -134.5h194zM99 521q75 49 111 151h40q36 -102 111 -151l-9 -13q-69 36 -122 92q-54 -57 -122 -92zM110 703q6 36 28 62t58 26q19 0 36 -5.5t39 -14.5q19 -8 32 -12t28 -4q34 0 46 42l17 -4q-6 -36 -28 -62t-58 -26q-19 0 -36 5.5t-39 14.5
q-19 8 -32 12t-28 4q-34 0 -46 -42z" />
    <glyph glyph-name="uni0205" unicode="&#x205;" horiz-adv-x="460" 
d="M56 609q-28 21 -28 44q0 14 7.5 22.5t20.5 8.5q14 0 25 -7t24 -25l92 -133l-13 -11zM192 609q-28 21 -28 44q0 14 7.5 22.5t20.5 8.5q14 0 25 -7t24 -25l92 -133l-13 -11zM104.5 51q-56.5 63 -56.5 175q0 64 25 119.5t69.5 89t99.5 33.5q61 0 100 -33t56.5 -83.5
t17.5 -103.5q0 -11 -7 -14.5t-24 -3.5h-249q0 -100 28.5 -159t93.5 -59q46 0 86.5 35t51.5 109h24q-6 -73 -50.5 -120.5t-115.5 -47.5q-93 0 -149.5 63zM330 254q0 80 -21 135t-69 55q-51 0 -77.5 -55.5t-26.5 -134.5h194z" />
    <glyph glyph-name="edieresis" unicode="&#xeb;" horiz-adv-x="460" 
d="M112.5 562.5q-14.5 14.5 -14.5 33.5q0 20 14.5 34t33.5 14q20 0 34 -14t14 -34q0 -19 -14 -33.5t-34 -14.5q-19 0 -33.5 14.5zM300.5 562.5q-14.5 14.5 -14.5 33.5q0 20 14.5 34t33.5 14q20 0 34 -14t14 -34q0 -19 -14 -33.5t-34 -14.5q-19 0 -33.5 14.5zM104.5 51
q-56.5 63 -56.5 175q0 64 25 119.5t69.5 89t99.5 33.5q61 0 100 -33t56.5 -83.5t17.5 -103.5q0 -11 -7 -14.5t-24 -3.5h-249q0 -100 28.5 -159t93.5 -59q46 0 86.5 35t51.5 109h24q-6 -73 -50.5 -120.5t-115.5 -47.5q-93 0 -149.5 63zM330 254q0 80 -21 135t-69 55
q-51 0 -77.5 -55.5t-26.5 -134.5h194z" />
    <glyph glyph-name="edotaccent" unicode="&#x117;" horiz-adv-x="460" 
d="M203 559q-15 15 -15 37q0 23 15 37.5t37 14.5q23 0 37.5 -14.5t14.5 -37.5q0 -22 -14.5 -37t-37.5 -15q-22 0 -37 15zM104.5 51q-56.5 63 -56.5 175q0 64 25 119.5t69.5 89t99.5 33.5q61 0 100 -33t56.5 -83.5t17.5 -103.5q0 -11 -7 -14.5t-24 -3.5h-249
q0 -100 28.5 -159t93.5 -59q46 0 86.5 35t51.5 109h24q-6 -73 -50.5 -120.5t-115.5 -47.5q-93 0 -149.5 63zM330 254q0 80 -21 135t-69 55q-51 0 -77.5 -55.5t-26.5 -134.5h194z" />
    <glyph glyph-name="uni1EB9" unicode="&#x1eb9;" horiz-adv-x="460" 
d="M104.5 51q-56.5 63 -56.5 175q0 64 25 119.5t69.5 89t99.5 33.5q61 0 100 -33t56.5 -83.5t17.5 -103.5q0 -11 -7 -14.5t-24 -3.5h-249q0 -100 28.5 -159t93.5 -59q46 0 86.5 35t51.5 109h24q-6 -73 -50.5 -120.5t-115.5 -47.5q-93 0 -149.5 63zM330 254q0 80 -21 135
t-69 55q-51 0 -77.5 -55.5t-26.5 -134.5h194zM192.5 -179.5q-14.5 14.5 -14.5 37.5q0 22 14.5 37t37.5 15q22 0 37 -15t15 -37q0 -23 -15 -37.5t-37 -14.5q-23 0 -37.5 14.5z" />
    <glyph glyph-name="egrave" unicode="&#xe8;" horiz-adv-x="460" 
d="M124 609q-28 21 -28 44q0 14 7.5 22.5t20.5 8.5q14 0 25 -7t24 -25l92 -133l-13 -11zM104.5 51q-56.5 63 -56.5 175q0 64 25 119.5t69.5 89t99.5 33.5q61 0 100 -33t56.5 -83.5t17.5 -103.5q0 -11 -7 -14.5t-24 -3.5h-249q0 -100 28.5 -159t93.5 -59q46 0 86.5 35
t51.5 109h24q-6 -73 -50.5 -120.5t-115.5 -47.5q-93 0 -149.5 63zM330 254q0 80 -21 135t-69 55q-51 0 -77.5 -55.5t-26.5 -134.5h194z" />
    <glyph glyph-name="uni1EBB" unicode="&#x1ebb;" horiz-adv-x="460" 
d="M104.5 51q-56.5 63 -56.5 175q0 64 25 119.5t69.5 89t99.5 33.5q61 0 100 -33t56.5 -83.5t17.5 -103.5q0 -11 -7 -14.5t-24 -3.5h-249q0 -100 28.5 -159t93.5 -59q46 0 86.5 35t51.5 109h24q-6 -73 -50.5 -120.5t-115.5 -47.5q-93 0 -149.5 63zM330 254q0 80 -21 135
t-69 55q-51 0 -77.5 -55.5t-26.5 -134.5h194zM247 561q27 23 27 58q0 24 -13.5 40t-40.5 16q-21 0 -37.5 -11t-16.5 -25q0 -10 3 -13q1 -1 2.5 -2t2.5 0q1 -1 4 1q3 1 4.5 0.5t3.5 0.5q8 -1 13 -6t5 -13q0 -9 -7 -15.5t-20 -6.5q-12 0 -22 11t-10 29q0 27 24.5 45.5
t54.5 19.5q38 -1 64.5 -19.5t26.5 -51.5q0 -27 -17 -46t-51 -43h-35z" />
    <glyph glyph-name="uni0207" unicode="&#x207;" horiz-adv-x="460" 
d="M108 524q8 29 27 63t46.5 58.5t58.5 24.5t58.5 -24.5t46.5 -58.5t27 -63l-16 -6q-15 36 -45.5 66t-70.5 30t-70.5 -30t-45.5 -66zM104.5 51q-56.5 63 -56.5 175q0 64 25 119.5t69.5 89t99.5 33.5q61 0 100 -33t56.5 -83.5t17.5 -103.5q0 -11 -7 -14.5t-24 -3.5h-249
q0 -100 28.5 -159t93.5 -59q46 0 86.5 35t51.5 109h24q-6 -73 -50.5 -120.5t-115.5 -47.5q-93 0 -149.5 63zM330 254q0 80 -21 135t-69 55q-51 0 -77.5 -55.5t-26.5 -134.5h194z" />
    <glyph glyph-name="emacron" unicode="&#x113;" horiz-adv-x="460" 
d="M110 572v40h260v-40h-260zM104.5 51q-56.5 63 -56.5 175q0 64 25 119.5t69.5 89t99.5 33.5q61 0 100 -33t56.5 -83.5t17.5 -103.5q0 -11 -7 -14.5t-24 -3.5h-249q0 -100 28.5 -159t93.5 -59q46 0 86.5 35t51.5 109h24q-6 -73 -50.5 -120.5t-115.5 -47.5q-93 0 -149.5 63z
M330 254q0 80 -21 135t-69 55q-51 0 -77.5 -55.5t-26.5 -134.5h194z" />
    <glyph glyph-name="uni1E17" unicode="&#x1e17;" horiz-adv-x="460" 
d="M215 615l92 133q13 18 24 25t25 7q13 0 20.5 -8.5t7.5 -22.5q0 -23 -28 -44l-128 -101zM110 528v40h260v-40h-260zM104.5 51q-56.5 63 -56.5 175q0 64 25 119.5t69.5 89t99.5 33.5q61 0 100 -33t56.5 -83.5t17.5 -103.5q0 -11 -7 -14.5t-24 -3.5h-249q0 -100 28.5 -159
t93.5 -59q46 0 86.5 35t51.5 109h24q-6 -73 -50.5 -120.5t-115.5 -47.5q-93 0 -149.5 63zM330 254q0 80 -21 135t-69 55q-51 0 -77.5 -55.5t-26.5 -134.5h194z" />
    <glyph glyph-name="uni1E15" unicode="&#x1e15;" horiz-adv-x="460" 
d="M124 705q-28 21 -28 44q0 14 7.5 22.5t20.5 8.5q14 0 25 -7t24 -25l92 -133l-13 -11zM110 528v40h260v-40h-260zM104.5 51q-56.5 63 -56.5 175q0 64 25 119.5t69.5 89t99.5 33.5q61 0 100 -33t56.5 -83.5t17.5 -103.5q0 -11 -7 -14.5t-24 -3.5h-249q0 -100 28.5 -159
t93.5 -59q46 0 86.5 35t51.5 109h24q-6 -73 -50.5 -120.5t-115.5 -47.5q-93 0 -149.5 63zM330 254q0 80 -21 135t-69 55q-51 0 -77.5 -55.5t-26.5 -134.5h194z" />
    <glyph glyph-name="eogonek" unicode="&#x119;" horiz-adv-x="460" 
d="M224 -198.5q-23 21.5 -23 56.5q0 36 27.5 71t76.5 65l-2 3q-27 -9 -49 -9q-93 0 -149.5 63t-56.5 175q0 64 25 119.5t69.5 89t99.5 33.5q61 0 100 -33t56.5 -83.5t17.5 -103.5q0 -11 -7 -14.5t-24 -3.5h-249q0 -100 28.5 -159t93.5 -59q46 0 86.5 35t51.5 109h24
q-5 -52 -27.5 -88.5t-67.5 -79.5q-35 -34 -51.5 -59t-16.5 -58q0 -22 11 -34.5t33 -12.5q18 0 30.5 8.5t27.5 25.5l14 -10q-15 -28 -39.5 -48t-53.5 -20q-33 0 -56 21.5zM330 254q0 80 -21 135t-69 55q-51 0 -77.5 -55.5t-26.5 -134.5h194z" />
    <glyph glyph-name="uni1EBD" unicode="&#x1ebd;" horiz-adv-x="460" 
d="M104.5 51q-56.5 63 -56.5 175q0 64 25 119.5t69.5 89t99.5 33.5q61 0 100 -33t56.5 -83.5t17.5 -103.5q0 -11 -7 -14.5t-24 -3.5h-249q0 -100 28.5 -159t93.5 -59q46 0 86.5 35t51.5 109h24q-6 -73 -50.5 -120.5t-115.5 -47.5q-93 0 -149.5 63zM330 254q0 80 -21 135
t-69 55q-51 0 -77.5 -55.5t-26.5 -134.5h194zM88 558q6 36 28 62t58 26q19 0 36 -5.5t39 -14.5q19 -8 32 -12t28 -4q34 0 46 42l17 -4q-6 -36 -28 -62t-58 -26q-19 0 -36 5.5t-39 14.5q-19 8 -32 12t-28 4q-34 0 -46 -42z" />
    <glyph glyph-name="f" unicode="f" horiz-adv-x="330" 
d="M28 24h52q12 0 17 5t5 17v382h-74v28h74v69q0 67 22.5 111t57.5 64t73 20q43 0 73 -26.5t30 -75.5q0 -26 -12.5 -41t-34.5 -15q-18 0 -29.5 11.5t-11.5 30.5q0 10 5 20t13 16q16 9 16 24q0 17 -15.5 24.5t-35.5 7.5q-33 0 -56 -32t-23 -111v-97h94v-28h-94v-382
q0 -12 5 -17t17 -5h72v-24h-240v24z" />
    <glyph glyph-name="g" unicode="g" horiz-adv-x="540" 
d="M116 -210q-64 28 -64 88q0 37 29 65t69 34v3q-88 19 -88 74q0 41 31.5 64.5t77.5 31.5v3q-42 18 -71.5 54.5t-29.5 96.5q0 51 25 88t65.5 56.5t87.5 19.5q29 0 57.5 -9.5t49 -22t26.5 -20.5q9 26 29 39t40 13q34 0 56 -20t22 -52q0 -24 -11.5 -39t-30.5 -15
q-16 0 -28 8.5t-12 27.5q0 22 17 32q6 4 8.5 7.5t2.5 10.5q0 8 -8 12t-19 4q-18 0 -32.5 -14.5t-16.5 -33.5q28 -39 28 -92q0 -50 -24 -87.5t-64.5 -57t-89.5 -19.5q-57 0 -101.5 -15.5t-44.5 -51.5q0 -19 17 -26t47 -7q21 0 34 1q12 1 31 1h103q64 0 107 -34.5t43 -101.5
q0 -70 -59.5 -107t-156.5 -37q-88 0 -152 28zM320 201q26 37 26 103t-26 103t-72 37t-72 -37t-26 -103t26 -103t72 -37t72 37zM394 -188.5q54 25.5 54 86.5q0 31 -18.5 53.5t-64.5 22.5h-111q-64 0 -111 -21.5t-47 -72.5q0 -47 53 -70.5t119 -23.5q72 0 126 25.5z" />
    <glyph glyph-name="gbreve" unicode="&#x11f;" horiz-adv-x="540" 
d="M186.5 549.5q-31.5 23.5 -47 56.5t-15.5 60h22q6 -40 33.5 -70t82.5 -30t82.5 30t33.5 70h22q0 -27 -15.5 -60t-47 -56.5t-75.5 -23.5t-75.5 23.5zM116 -210q-64 28 -64 88q0 37 29 65t69 34v3q-88 19 -88 74q0 41 31.5 64.5t77.5 31.5v3q-42 18 -71.5 54.5t-29.5 96.5
q0 51 25 88t65.5 56.5t87.5 19.5q29 0 57.5 -9.5t49 -22t26.5 -20.5q9 26 29 39t40 13q34 0 56 -20t22 -52q0 -24 -11.5 -39t-30.5 -15q-16 0 -28 8.5t-12 27.5q0 22 17 32q6 4 8.5 7.5t2.5 10.5q0 8 -8 12t-19 4q-18 0 -32.5 -14.5t-16.5 -33.5q28 -39 28 -92
q0 -50 -24 -87.5t-64.5 -57t-89.5 -19.5q-57 0 -101.5 -15.5t-44.5 -51.5q0 -19 17 -26t47 -7q21 0 34 1q12 1 31 1h103q64 0 107 -34.5t43 -101.5q0 -70 -59.5 -107t-156.5 -37q-88 0 -152 28zM320 201q26 37 26 103t-26 103t-72 37t-72 -37t-26 -103t26 -103t72 -37t72 37
zM394 -188.5q54 25.5 54 86.5q0 31 -18.5 53.5t-64.5 22.5h-111q-64 0 -111 -21.5t-47 -72.5q0 -47 53 -70.5t119 -23.5q72 0 126 25.5z" />
    <glyph glyph-name="gcircumflex" unicode="&#x11d;" horiz-adv-x="540" 
d="M131 521q75 49 111 151h40q36 -102 111 -151l-9 -13q-69 36 -122 92q-54 -57 -122 -92zM116 -210q-64 28 -64 88q0 37 29 65t69 34v3q-88 19 -88 74q0 41 31.5 64.5t77.5 31.5v3q-42 18 -71.5 54.5t-29.5 96.5q0 51 25 88t65.5 56.5t87.5 19.5q29 0 57.5 -9.5t49 -22
t26.5 -20.5q9 26 29 39t40 13q34 0 56 -20t22 -52q0 -24 -11.5 -39t-30.5 -15q-16 0 -28 8.5t-12 27.5q0 22 17 32q6 4 8.5 7.5t2.5 10.5q0 8 -8 12t-19 4q-18 0 -32.5 -14.5t-16.5 -33.5q28 -39 28 -92q0 -50 -24 -87.5t-64.5 -57t-89.5 -19.5q-57 0 -101.5 -15.5
t-44.5 -51.5q0 -19 17 -26t47 -7q21 0 34 1q12 1 31 1h103q64 0 107 -34.5t43 -101.5q0 -70 -59.5 -107t-156.5 -37q-88 0 -152 28zM320 201q26 37 26 103t-26 103t-72 37t-72 -37t-26 -103t26 -103t72 -37t72 37zM394 -188.5q54 25.5 54 86.5q0 31 -18.5 53.5t-64.5 22.5
h-111q-64 0 -111 -21.5t-47 -72.5q0 -47 53 -70.5t119 -23.5q72 0 126 25.5z" />
    <glyph glyph-name="gcommaaccent" unicode="&#x123;" horiz-adv-x="540" 
d="M204 509.5q-18 21.5 -18 54.5q0 50 31.5 92.5t74.5 63.5l12 -12q-31 -15 -53.5 -41t-22.5 -49q0 -16 10 -24q8 -6 28 -6q18 0 29 -15t11 -33q0 -25 -15.5 -38.5t-38.5 -13.5q-30 0 -48 21.5zM116 -210q-64 28 -64 88q0 37 29 65t69 34v3q-88 19 -88 74q0 41 31.5 64.5
t77.5 31.5v3q-42 18 -71.5 54.5t-29.5 96.5q0 51 25 88t65.5 56.5t87.5 19.5q29 0 57.5 -9.5t49 -22t26.5 -20.5q9 26 29 39t40 13q34 0 56 -20t22 -52q0 -24 -11.5 -39t-30.5 -15q-16 0 -28 8.5t-12 27.5q0 22 17 32q6 4 8.5 7.5t2.5 10.5q0 8 -8 12t-19 4
q-18 0 -32.5 -14.5t-16.5 -33.5q28 -39 28 -92q0 -50 -24 -87.5t-64.5 -57t-89.5 -19.5q-57 0 -101.5 -15.5t-44.5 -51.5q0 -19 17 -26t47 -7q21 0 34 1q12 1 31 1h103q64 0 107 -34.5t43 -101.5q0 -70 -59.5 -107t-156.5 -37q-88 0 -152 28zM320 201q26 37 26 103t-26 103
t-72 37t-72 -37t-26 -103t26 -103t72 -37t72 37zM394 -188.5q54 25.5 54 86.5q0 31 -18.5 53.5t-64.5 22.5h-111q-64 0 -111 -21.5t-47 -72.5q0 -47 53 -70.5t119 -23.5q72 0 126 25.5z" />
    <glyph glyph-name="gdotaccent" unicode="&#x121;" horiz-adv-x="540" 
d="M225 559q-15 15 -15 37q0 23 15 37.5t37 14.5q23 0 37.5 -14.5t14.5 -37.5q0 -22 -14.5 -37t-37.5 -15q-22 0 -37 15zM116 -210q-64 28 -64 88q0 37 29 65t69 34v3q-88 19 -88 74q0 41 31.5 64.5t77.5 31.5v3q-42 18 -71.5 54.5t-29.5 96.5q0 51 25 88t65.5 56.5
t87.5 19.5q29 0 57.5 -9.5t49 -22t26.5 -20.5q9 26 29 39t40 13q34 0 56 -20t22 -52q0 -24 -11.5 -39t-30.5 -15q-16 0 -28 8.5t-12 27.5q0 22 17 32q6 4 8.5 7.5t2.5 10.5q0 8 -8 12t-19 4q-18 0 -32.5 -14.5t-16.5 -33.5q28 -39 28 -92q0 -50 -24 -87.5t-64.5 -57
t-89.5 -19.5q-57 0 -101.5 -15.5t-44.5 -51.5q0 -19 17 -26t47 -7q21 0 34 1q12 1 31 1h103q64 0 107 -34.5t43 -101.5q0 -70 -59.5 -107t-156.5 -37q-88 0 -152 28zM320 201q26 37 26 103t-26 103t-72 37t-72 -37t-26 -103t26 -103t72 -37t72 37zM394 -188.5
q54 25.5 54 86.5q0 31 -18.5 53.5t-64.5 22.5h-111q-64 0 -111 -21.5t-47 -72.5q0 -47 53 -70.5t119 -23.5q72 0 126 25.5z" />
    <glyph glyph-name="uni1E21" unicode="&#x1e21;" horiz-adv-x="540" 
d="M132 572v40h260v-40h-260zM116 -210q-64 28 -64 88q0 37 29 65t69 34v3q-88 19 -88 74q0 41 31.5 64.5t77.5 31.5v3q-42 18 -71.5 54.5t-29.5 96.5q0 51 25 88t65.5 56.5t87.5 19.5q29 0 57.5 -9.5t49 -22t26.5 -20.5q9 26 29 39t40 13q34 0 56 -20t22 -52
q0 -24 -11.5 -39t-30.5 -15q-16 0 -28 8.5t-12 27.5q0 22 17 32q6 4 8.5 7.5t2.5 10.5q0 8 -8 12t-19 4q-18 0 -32.5 -14.5t-16.5 -33.5q28 -39 28 -92q0 -50 -24 -87.5t-64.5 -57t-89.5 -19.5q-57 0 -101.5 -15.5t-44.5 -51.5q0 -19 17 -26t47 -7q21 0 34 1q12 1 31 1h103
q64 0 107 -34.5t43 -101.5q0 -70 -59.5 -107t-156.5 -37q-88 0 -152 28zM320 201q26 37 26 103t-26 103t-72 37t-72 -37t-26 -103t26 -103t72 -37t72 37zM394 -188.5q54 25.5 54 86.5q0 31 -18.5 53.5t-64.5 22.5h-111q-64 0 -111 -21.5t-47 -72.5q0 -47 53 -70.5t119 -23.5
q72 0 126 25.5z" />
    <glyph glyph-name="h" unicode="h" horiz-adv-x="544" 
d="M28 24h56q12 0 17 5t5 17v620q0 12 -5 17t-17 5h-56v24h150v-338l4 -1q23 48 57 71.5t75 23.5q73 0 103.5 -45t30.5 -108v-269q0 -12 5 -17t17 -5h42v-24h-200v24h42q12 0 17 5t5 17v288q0 44 -17.5 75t-59.5 31q-35 0 -62.5 -24.5t-43 -67t-15.5 -94.5v-208q0 -12 5 -17
t17 -5h42v-24h-214v24z" />
    <glyph glyph-name="hbar" unicode="&#x127;" horiz-adv-x="544" 
d="M28 24h56q12 0 17 5t5 17v510h-75v28h75v82q0 12 -5 17t-17 5h-56v24h150v-128h188v-28h-188v-182l4 -1q23 48 57 71.5t75 23.5q73 0 103.5 -45t30.5 -108v-269q0 -12 5 -17t17 -5h42v-24h-200v24h42q12 0 17 5t5 17v288q0 44 -17.5 75t-59.5 31q-35 0 -62.5 -24.5
t-43 -67t-15.5 -94.5v-208q0 -12 5 -17t17 -5h42v-24h-214v24z" />
    <glyph glyph-name="uni1E2B" unicode="&#x1e2b;" horiz-adv-x="544" 
d="M28 24h56q12 0 17 5t5 17v620q0 12 -5 17t-17 5h-56v24h150v-338l4 -1q23 48 57 71.5t75 23.5q73 0 103.5 -45t30.5 -108v-269q0 -12 5 -17t17 -5h42v-24h-200v24h42q12 0 17 5t5 17v288q0 44 -17.5 75t-59.5 31q-35 0 -62.5 -24.5t-43 -67t-15.5 -94.5v-208q0 -12 5 -17
t17 -5h42v-24h-214v24zM210.5 -188.5q-31.5 23.5 -47 56.5t-15.5 60h22q6 -40 33.5 -70t82.5 -30t82.5 30t33.5 70h22q0 -27 -15.5 -60t-47 -56.5t-75.5 -23.5t-75.5 23.5z" />
    <glyph glyph-name="hcircumflex" unicode="&#x125;" horiz-adv-x="544" 
d="M133 777q75 49 111 151h40q36 -102 111 -151l-9 -13q-69 36 -122 92q-54 -57 -122 -92zM28 24h56q12 0 17 5t5 17v620q0 12 -5 17t-17 5h-56v24h150v-338l4 -1q23 48 57 71.5t75 23.5q73 0 103.5 -45t30.5 -108v-269q0 -12 5 -17t17 -5h42v-24h-200v24h42q12 0 17 5t5 17
v288q0 44 -17.5 75t-59.5 31q-35 0 -62.5 -24.5t-43 -67t-15.5 -94.5v-208q0 -12 5 -17t17 -5h42v-24h-214v24z" />
    <glyph glyph-name="uni1E25" unicode="&#x1e25;" horiz-adv-x="544" 
d="M28 24h56q12 0 17 5t5 17v620q0 12 -5 17t-17 5h-56v24h150v-338l4 -1q23 48 57 71.5t75 23.5q73 0 103.5 -45t30.5 -108v-269q0 -12 5 -17t17 -5h42v-24h-200v24h42q12 0 17 5t5 17v288q0 44 -17.5 75t-59.5 31q-35 0 -62.5 -24.5t-43 -67t-15.5 -94.5v-208q0 -12 5 -17
t17 -5h42v-24h-214v24zM249 -179.5q-15 14.5 -15 37.5q0 22 15 37t37 15q23 0 37.5 -15t14.5 -37q0 -23 -14.5 -37.5t-37.5 -14.5q-22 0 -37 14.5z" />
    <glyph glyph-name="i" unicode="i" horiz-adv-x="270" 
d="M95 595q-15 15 -15 37q0 23 15 37.5t37 14.5q23 0 37.5 -14.5t14.5 -37.5q0 -22 -14.5 -37t-37.5 -15q-22 0 -37 15zM38 24h42q12 0 17 5t5 17v364q0 12 -5 17t-17 5h-42v24h136v-410q0 -12 5 -17t17 -5h42v-24h-200v24z" />
    <glyph glyph-name="dotlessi" unicode="&#x131;" horiz-adv-x="270" 
d="M38 24h42q12 0 17 5t5 17v364q0 12 -5 17t-17 5h-42v24h136v-410q0 -12 5 -17t17 -5h42v-24h-200v24z" />
    <glyph glyph-name="iacute" unicode="&#xed;" horiz-adv-x="270" 
d="M107 519l92 133q13 18 24 25t25 7q13 0 20.5 -8.5t7.5 -22.5q0 -23 -28 -44l-128 -101zM38 24h42q12 0 17 5t5 17v364q0 12 -5 17t-17 5h-42v24h136v-410q0 -12 5 -17t17 -5h42v-24h-200v24z" />
    <glyph glyph-name="ibreve" unicode="&#x12d;" horiz-adv-x="270" 
d="M62.5 549.5q-31.5 23.5 -47 56.5t-15.5 60h22q6 -40 33.5 -70t82.5 -30t82.5 30t33.5 70h22q0 -27 -15.5 -60t-47 -56.5t-75.5 -23.5t-75.5 23.5zM44 24h42q12 0 17 5t5 17v364q0 12 -5 17t-17 5h-42v24h136v-410q0 -12 5 -17t17 -5h42v-24h-200v24z" />
    <glyph glyph-name="icircumflex" unicode="&#xee;" horiz-adv-x="282" 
d="M7 521q75 49 111 151h40q36 -102 111 -151l-9 -13q-69 36 -122 92q-54 -57 -122 -92zM44 24h42q12 0 17 5t5 17v364q0 12 -5 17t-17 5h-42v24h136v-410q0 -12 5 -17t17 -5h42v-24h-200v24z" />
    <glyph glyph-name="uni0209" unicode="&#x209;" horiz-adv-x="270" 
d="M-46 609q-28 21 -28 44q0 14 7.5 22.5t20.5 8.5q14 0 25 -7t24 -25l92 -133l-13 -11zM90 609q-28 21 -28 44q0 14 7.5 22.5t20.5 8.5q14 0 25 -7t24 -25l92 -133l-13 -11zM38 24h42q12 0 17 5t5 17v364q0 12 -5 17t-17 5h-42v24h136v-410q0 -12 5 -17t17 -5h42v-24h-200
v24z" />
    <glyph glyph-name="idieresis" unicode="&#xef;" horiz-adv-x="282" 
d="M25.5 562.5q-14.5 14.5 -14.5 33.5q0 20 14.5 34t33.5 14q20 0 34 -14t14 -34q0 -19 -14 -33.5t-34 -14.5q-19 0 -33.5 14.5zM193.5 562.5q-14.5 14.5 -14.5 33.5q0 20 14.5 34t33.5 14q20 0 34 -14t14 -34q0 -19 -14 -33.5t-34 -14.5q-19 0 -33.5 14.5zM50 24h42
q12 0 17 5t5 17v364q0 12 -5 17t-17 5h-42v24h136v-410q0 -12 5 -17t17 -5h42v-24h-200v24z" />
    <glyph glyph-name="uni1E2F" unicode="&#x1e2f;" horiz-adv-x="270" 
d="M131 631l92 133q13 18 24 25t25 7q13 0 20.5 -8.5t7.5 -22.5q0 -23 -28 -44l-128 -101zM25.5 518.5q-14.5 14.5 -14.5 33.5q0 20 14.5 34t33.5 14q20 0 34 -14t14 -34q0 -19 -14 -33.5t-34 -14.5q-19 0 -33.5 14.5zM193.5 518.5q-14.5 14.5 -14.5 33.5q0 20 14.5 34
t33.5 14q20 0 34 -14t14 -34q0 -19 -14 -33.5t-34 -14.5q-19 0 -33.5 14.5zM50 24h42q12 0 17 5t5 17v364q0 12 -5 17t-17 5h-42v24h136v-410q0 -12 5 -17t17 -5h42v-24h-200v24z" />
    <glyph glyph-name="uni1ECB" unicode="&#x1ecb;" horiz-adv-x="270" 
d="M95 595q-15 15 -15 37q0 23 15 37.5t37 14.5q23 0 37.5 -14.5t14.5 -37.5q0 -22 -14.5 -37t-37.5 -15q-22 0 -37 15zM38 24h42q12 0 17 5t5 17v364q0 12 -5 17t-17 5h-42v24h136v-410q0 -12 5 -17t17 -5h42v-24h-200v24zM97.5 -179.5q-14.5 14.5 -14.5 37.5q0 22 14.5 37
t37.5 15q22 0 37 -15t15 -37q0 -23 -15 -37.5t-37 -14.5q-23 0 -37.5 14.5z" />
    <glyph glyph-name="igrave" unicode="&#xec;" horiz-adv-x="270" 
d="M16 609q-28 21 -28 44q0 14 7.5 22.5t20.5 8.5q14 0 25 -7t24 -25l92 -133l-13 -11zM38 24h42q12 0 17 5t5 17v364q0 12 -5 17t-17 5h-42v24h136v-410q0 -12 5 -17t17 -5h42v-24h-200v24z" />
    <glyph glyph-name="uni1EC9" unicode="&#x1ec9;" horiz-adv-x="270" 
d="M38 24h42q12 0 17 5t5 17v364q0 12 -5 17t-17 5h-42v24h136v-410q0 -12 5 -17t17 -5h42v-24h-200v24zM152 561q27 23 27 58q0 24 -13.5 40t-40.5 16q-21 0 -37.5 -11t-16.5 -25q0 -10 3 -13q1 -1 2.5 -2t2.5 0q1 -1 4 1q3 1 4.5 0.5t3.5 0.5q8 -1 13 -6t5 -13
q0 -9 -7 -15.5t-20 -6.5q-12 0 -22 11t-10 29q0 27 24.5 45.5t54.5 19.5q38 -1 64.5 -19.5t26.5 -51.5q0 -27 -17 -46t-51 -43h-35z" />
    <glyph glyph-name="uni020B" unicode="&#x20b;" horiz-adv-x="270" 
d="M6 524q8 29 27 63t46.5 58.5t58.5 24.5t58.5 -24.5t46.5 -58.5t27 -63l-16 -6q-15 36 -45.5 66t-70.5 30t-70.5 -30t-45.5 -66zM38 24h42q12 0 17 5t5 17v364q0 12 -5 17t-17 5h-42v24h136v-410q0 -12 5 -17t17 -5h42v-24h-200v24z" />
    <glyph glyph-name="imacron" unicode="&#x12b;" horiz-adv-x="270" 
d="M8 572v40h260v-40h-260zM44 24h42q12 0 17 5t5 17v364q0 12 -5 17t-17 5h-42v24h136v-410q0 -12 5 -17t17 -5h42v-24h-200v24z" />
    <glyph glyph-name="iogonek" unicode="&#x12f;" horiz-adv-x="270" 
d="M95 595q-15 15 -15 37q0 23 15 37.5t37 14.5q23 0 37.5 -14.5t14.5 -37.5q0 -22 -14.5 -37t-37.5 -15q-22 0 -37 15zM89 -198.5q-23 21.5 -23 56.5q0 40 28.5 73t77.5 65v4h-134v24h42q12 0 17 5t5 17v364q0 12 -5 17t-17 5h-42v24h136v-410q0 -12 5 -17t17 -5h42v-24
h-28q-45 -33 -66.5 -62.5t-21.5 -66.5q0 -22 11 -34.5t33 -12.5q18 0 30.5 8.5t27.5 25.5l14 -10q-15 -28 -39.5 -48t-53.5 -20q-33 0 -56 21.5z" />
    <glyph glyph-name="itilde" unicode="&#x129;" horiz-adv-x="270" 
d="M-4 558q6 36 28 62t58 26q19 0 36 -5.5t39 -14.5q19 -8 32 -12t28 -4q34 0 46 42l17 -4q-6 -36 -28 -62t-58 -26q-19 0 -36 5.5t-39 14.5q-19 8 -32 12t-28 4q-34 0 -46 -42zM44 24h42q12 0 17 5t5 17v364q0 12 -5 17t-17 5h-42v24h136v-410q0 -12 5 -17t17 -5h42v-24
h-200v24z" />
    <glyph glyph-name="j" unicode="j" horiz-adv-x="320" 
d="M139 595q-15 15 -15 37q0 23 15 37.5t37 14.5q23 0 37.5 -14.5t14.5 -37.5q0 -22 -14.5 -37t-37.5 -15q-22 0 -37 15zM-7.5 -212.5q-30.5 25.5 -30.5 68.5q0 27 15.5 45.5t37.5 18.5q17 0 27 -9.5t10 -24.5q0 -12 -5.5 -20.5t-15.5 -17.5q-15 -14 -15 -30
q0 -17 15.5 -24.5t35.5 -7.5q33 0 56 32t23 111v481q0 12 -5 17t-17 5h-72v24h166v-499q0 -67 -22.5 -111t-57.5 -64t-73 -20q-42 0 -72.5 25.5z" />
    <glyph glyph-name="uni0237" unicode="&#x237;" horiz-adv-x="320" 
d="M-7.5 -212.5q-30.5 25.5 -30.5 68.5q0 27 15.5 45.5t37.5 18.5q17 0 27 -9.5t10 -24.5q0 -12 -5.5 -20.5t-15.5 -17.5q-15 -14 -15 -30q0 -17 15.5 -24.5t35.5 -7.5q33 0 56 32t23 111v481q0 12 -5 17t-17 5h-72v24h166v-499q0 -67 -22.5 -111t-57.5 -64t-73 -20
q-42 0 -72.5 25.5z" />
    <glyph glyph-name="jcircumflex" unicode="&#x135;" horiz-adv-x="320" 
d="M45 521q75 49 111 151h40q36 -102 111 -151l-9 -13q-69 36 -122 92q-54 -57 -122 -92zM-7.5 -212.5q-30.5 25.5 -30.5 68.5q0 27 15.5 45.5t37.5 18.5q17 0 27 -9.5t10 -24.5q0 -12 -5.5 -20.5t-15.5 -17.5q-15 -14 -15 -30q0 -17 15.5 -24.5t35.5 -7.5q33 0 56 32
t23 111v481q0 12 -5 17t-17 5h-72v24h166v-499q0 -67 -22.5 -111t-57.5 -64t-73 -20q-42 0 -72.5 25.5z" />
    <glyph glyph-name="k" unicode="k" horiz-adv-x="520" 
d="M28 24h52q12 0 17 5t5 17v620q0 12 -5 17t-17 5h-52v24h146v-509l136 166q11 12 14.5 19t3.5 18q0 13 -9.5 19.5t-24.5 6.5h-26v24h204v-24h-32q-27 0 -48 -14t-48 -47l-76 -93l156 -222q12 -17 21 -24.5t25 -7.5h20v-24h-212v24h26q13 0 20 4.5t7 15.5t-3 18t-10 18
l-98 140l-46 -56v-118q0 -12 5 -17t17 -5h32v-24h-200v24z" />
    <glyph glyph-name="kcommaaccent" unicode="&#x137;" horiz-adv-x="520" 
d="M28 24h52q12 0 17 5t5 17v620q0 12 -5 17t-17 5h-52v24h146v-509l136 166q11 12 14.5 19t3.5 18q0 13 -9.5 19.5t-24.5 6.5h-26v24h204v-24h-32q-27 0 -48 -14t-48 -47l-76 -93l156 -222q12 -17 21 -24.5t25 -7.5h20v-24h-212v24h26q13 0 20 4.5t7 15.5t-3 18t-10 18
l-98 140l-46 -56v-118q0 -12 5 -17t17 -5h32v-24h-200v24zM212 -227q26 12 45.5 33.5t19.5 41.5q0 16 -8 22q-6 4 -24 4q-16 0 -25.5 13t-9.5 28q0 21 13.5 33t33.5 12q26 0 41.5 -19t15.5 -47q0 -43 -27.5 -80t-64.5 -52z" />
    <glyph glyph-name="kgreenlandic" unicode="&#x138;" horiz-adv-x="520" 
d="M38 24h42q12 0 17 5t5 17v364q0 12 -5 17t-17 5h-42v24h136v-253l136 166q11 12 14.5 19t3.5 18q0 13 -9.5 19.5t-24.5 6.5h-26v24h204v-24h-32q-27 0 -48 -14t-48 -47l-76 -93l156 -222q12 -17 21 -24.5t25 -7.5h20v-24h-212v24h26q13 0 20 4.5t7 15.5t-3 18t-10 18
l-98 140l-46 -56v-118q0 -12 5 -17t17 -5h32v-24h-190v24z" />
    <glyph glyph-name="l" unicode="l" horiz-adv-x="270" 
d="M28 24h52q12 0 17 5t5 17v620q0 12 -5 17t-17 5h-52v24h146v-666q0 -12 5 -17t17 -5h52v-24h-220v24z" />
    <glyph glyph-name="lacute" unicode="&#x13a;" horiz-adv-x="270" 
d="M107 775l92 133q13 18 24 25t25 7q13 0 20.5 -8.5t7.5 -22.5q0 -23 -28 -44l-128 -101zM28 24h52q12 0 17 5t5 17v620q0 12 -5 17t-17 5h-52v24h146v-666q0 -12 5 -17t17 -5h52v-24h-220v24z" />
    <glyph glyph-name="lcaron" unicode="&#x13e;" horiz-adv-x="334" 
d="M218 500q32 22 54 51.5t22 56.5q0 11 -6 18q-6 8 -24 8t-30 12.5t-12 29.5q0 20 12.5 32t31.5 12q26 0 43 -22t17 -54q0 -47 -27.5 -87t-70.5 -69zM28 24h52q12 0 17 5t5 17v620q0 12 -5 17t-17 5h-52v24h146v-666q0 -12 5 -17t17 -5h52v-24h-220v24z" />
    <glyph glyph-name="lcommaaccent" unicode="&#x13c;" horiz-adv-x="270" 
d="M28 24h52q12 0 17 5t5 17v620q0 12 -5 17t-17 5h-52v24h146v-666q0 -12 5 -17t17 -5h52v-24h-220v24zM82 -227q26 12 45.5 33.5t19.5 41.5q0 16 -8 22q-6 4 -24 4q-16 0 -25.5 13t-9.5 28q0 21 13.5 33t33.5 12q26 0 41.5 -19t15.5 -47q0 -43 -27.5 -80t-64.5 -52z" />
    <glyph glyph-name="ldot" unicode="&#x140;" horiz-adv-x="372" 
d="M28 24h52q12 0 17 5t5 17v620q0 12 -5 17t-17 5h-52v24h146v-666q0 -12 5 -17t17 -5h52v-24h-220v24zM287 335q-15 15 -15 37q0 23 15 37.5t37 14.5q23 0 37.5 -14.5t14.5 -37.5q0 -22 -14.5 -37t-37.5 -15q-22 0 -37 15z" />
    <glyph glyph-name="uni1E37" unicode="&#x1e37;" horiz-adv-x="270" 
d="M28 24h52q12 0 17 5t5 17v620q0 12 -5 17t-17 5h-52v24h146v-666q0 -12 5 -17t17 -5h52v-24h-220v24zM101 -179.5q-15 14.5 -15 37.5q0 22 15 37t37 15q23 0 37.5 -15t14.5 -37q0 -23 -14.5 -37.5t-37.5 -14.5q-22 0 -37 14.5z" />
    <glyph glyph-name="uni01C9" unicode="&#x1c9;" horiz-adv-x="590" 
d="M28 24h52q12 0 17 5t5 17v620q0 12 -5 17t-17 5h-52v24h146v-666q0 -12 5 -17t17 -5h52v-24h-220v24zM409 595q-15 15 -15 37q0 23 15 37.5t37 14.5q23 0 37.5 -14.5t14.5 -37.5q0 -22 -14.5 -37t-37.5 -15q-22 0 -37 15zM262.5 -212.5q-30.5 25.5 -30.5 68.5
q0 27 15.5 45.5t37.5 18.5q17 0 27 -9.5t10 -24.5q0 -12 -5.5 -20.5t-15.5 -17.5q-15 -14 -15 -30q0 -17 15.5 -24.5t35.5 -7.5q33 0 56 32t23 111v481q0 12 -5 17t-17 5h-72v24h166v-499q0 -67 -22.5 -111t-57.5 -64t-73 -20q-42 0 -72.5 25.5z" />
    <glyph glyph-name="uni1E3B" unicode="&#x1e3b;" horiz-adv-x="270" 
d="M28 24h52q12 0 17 5t5 17v620q0 12 -5 17t-17 5h-52v24h146v-666q0 -12 5 -17t17 -5h52v-24h-220v24zM8 -166v40h260v-40h-260z" />
    <glyph glyph-name="lslash" unicode="&#x142;" horiz-adv-x="276" 
d="M28 24h52q12 0 17 5t5 17v282l-60 -34l-14 24l74 42v278q0 12 -5 17t-17 5h-52v24h146v-283l76 43l14 -24l-90 -51v-323q0 -12 5 -17t17 -5h52v-24h-220v24z" />
    <glyph glyph-name="m" unicode="m" horiz-adv-x="794" 
d="M38 24h42q12 0 17 5t5 17v364q0 12 -5 17t-17 5h-42v24h136v-80l4 -1q21 46 54.5 69.5t71.5 23.5q59 0 87.5 -32t38.5 -76h4q12 40 47.5 74t82.5 34q73 0 103.5 -49t30.5 -115v-258q0 -12 5 -17t17 -5h42v-24h-200v24h42q12 0 17 5t5 17v293q0 40 -19 70.5t-55 30.5
q-30 0 -56.5 -23.5t-43 -64.5t-16.5 -92v-214q0 -12 5 -17t17 -5h42v-24h-200v24h42q12 0 17 5t5 17v293q0 40 -19 70.5t-55 30.5q-30 0 -56.5 -23.5t-43 -64.5t-16.5 -92v-214q0 -12 5 -17t17 -5h42v-24h-200v24z" />
    <glyph glyph-name="uni1E43" unicode="&#x1e43;" horiz-adv-x="794" 
d="M38 24h42q12 0 17 5t5 17v364q0 12 -5 17t-17 5h-42v24h136v-80l4 -1q21 46 54.5 69.5t71.5 23.5q59 0 87.5 -32t38.5 -76h4q12 40 47.5 74t82.5 34q73 0 103.5 -49t30.5 -115v-258q0 -12 5 -17t17 -5h42v-24h-200v24h42q12 0 17 5t5 17v293q0 40 -19 70.5t-55 30.5
q-30 0 -56.5 -23.5t-43 -64.5t-16.5 -92v-214q0 -12 5 -17t17 -5h42v-24h-200v24h42q12 0 17 5t5 17v293q0 40 -19 70.5t-55 30.5q-30 0 -56.5 -23.5t-43 -64.5t-16.5 -92v-214q0 -12 5 -17t17 -5h42v-24h-200v24zM363 -179.5q-15 14.5 -15 37.5q0 22 15 37t37 15
q23 0 37.5 -15t14.5 -37q0 -23 -14.5 -37.5t-37.5 -14.5q-22 0 -37 14.5z" />
    <glyph glyph-name="n" unicode="n" horiz-adv-x="540" 
d="M38 24h42q12 0 17 5t5 17v364q0 12 -5 17t-17 5h-42v24h136v-82l4 -1q23 48 57 71.5t75 23.5q73 0 103.5 -45t30.5 -108v-269q0 -12 5 -17t17 -5h42v-24h-200v24h42q12 0 17 5t5 17v288q0 44 -17.5 75t-59.5 31q-35 0 -62.5 -24.5t-43 -67t-15.5 -94.5v-208q0 -12 5 -17
t17 -5h42v-24h-200v24z" />
    <glyph glyph-name="nacute" unicode="&#x144;" horiz-adv-x="540" 
d="M251 519l92 133q13 18 24 25t25 7q13 0 20.5 -8.5t7.5 -22.5q0 -23 -28 -44l-128 -101zM38 24h42q12 0 17 5t5 17v364q0 12 -5 17t-17 5h-42v24h136v-82l4 -1q23 48 57 71.5t75 23.5q73 0 103.5 -45t30.5 -108v-269q0 -12 5 -17t17 -5h42v-24h-200v24h42q12 0 17 5t5 17
v288q0 44 -17.5 75t-59.5 31q-35 0 -62.5 -24.5t-43 -67t-15.5 -94.5v-208q0 -12 5 -17t17 -5h42v-24h-200v24z" />
    <glyph glyph-name="ncaron" unicode="&#x148;" horiz-adv-x="540" 
d="M256 508l-112 153l13 11l119 -100l119 100l13 -11l-112 -153h-40zM38 24h42q12 0 17 5t5 17v364q0 12 -5 17t-17 5h-42v24h136v-82l4 -1q23 48 57 71.5t75 23.5q73 0 103.5 -45t30.5 -108v-269q0 -12 5 -17t17 -5h42v-24h-200v24h42q12 0 17 5t5 17v288q0 44 -17.5 75
t-59.5 31q-35 0 -62.5 -24.5t-43 -67t-15.5 -94.5v-208q0 -12 5 -17t17 -5h42v-24h-200v24z" />
    <glyph glyph-name="ncommaaccent" unicode="&#x146;" horiz-adv-x="540" 
d="M38 24h42q12 0 17 5t5 17v364q0 12 -5 17t-17 5h-42v24h136v-82l4 -1q23 48 57 71.5t75 23.5q73 0 103.5 -45t30.5 -108v-269q0 -12 5 -17t17 -5h42v-24h-200v24h42q12 0 17 5t5 17v288q0 44 -17.5 75t-59.5 31q-35 0 -62.5 -24.5t-43 -67t-15.5 -94.5v-208q0 -12 5 -17
t17 -5h42v-24h-200v24zM226 -227q26 12 45.5 33.5t19.5 41.5q0 16 -8 22q-6 4 -24 4q-16 0 -25.5 13t-9.5 28q0 21 13.5 33t33.5 12q26 0 41.5 -19t15.5 -47q0 -43 -27.5 -80t-64.5 -52z" />
    <glyph glyph-name="uni1E45" unicode="&#x1e45;" horiz-adv-x="540" 
d="M239 559q-15 15 -15 37q0 23 15 37.5t37 14.5q23 0 37.5 -14.5t14.5 -37.5q0 -22 -14.5 -37t-37.5 -15q-22 0 -37 15zM38 24h42q12 0 17 5t5 17v364q0 12 -5 17t-17 5h-42v24h136v-82l4 -1q23 48 57 71.5t75 23.5q73 0 103.5 -45t30.5 -108v-269q0 -12 5 -17t17 -5h42
v-24h-200v24h42q12 0 17 5t5 17v288q0 44 -17.5 75t-59.5 31q-35 0 -62.5 -24.5t-43 -67t-15.5 -94.5v-208q0 -12 5 -17t17 -5h42v-24h-200v24z" />
    <glyph glyph-name="uni1E47" unicode="&#x1e47;" horiz-adv-x="540" 
d="M38 24h42q12 0 17 5t5 17v364q0 12 -5 17t-17 5h-42v24h136v-82l4 -1q23 48 57 71.5t75 23.5q73 0 103.5 -45t30.5 -108v-269q0 -12 5 -17t17 -5h42v-24h-200v24h42q12 0 17 5t5 17v288q0 44 -17.5 75t-59.5 31q-35 0 -62.5 -24.5t-43 -67t-15.5 -94.5v-208q0 -12 5 -17
t17 -5h42v-24h-200v24zM239 -179.5q-15 14.5 -15 37.5q0 22 15 37t37 15q23 0 37.5 -15t14.5 -37q0 -23 -14.5 -37.5t-37.5 -14.5q-22 0 -37 14.5z" />
    <glyph glyph-name="eng" unicode="&#x14b;" horiz-adv-x="516" 
d="M195 -220q-17 11 -28.5 28.5t-11.5 35.5t9 29t24 11q21 0 30 -13t16 -38q7 -27 21 -37t28 -10q48 0 68.5 40t20.5 103v405q0 44 -17.5 75t-59.5 31q-35 0 -62.5 -24.5t-43 -67t-15.5 -94.5v-208q0 -12 5 -17t17 -5h42v-24h-200v24h42q12 0 17 5t5 17v364q0 12 -5 17
t-17 5h-42v24h136v-82l4 -1q23 48 57 71.5t75 23.5q73 0 103.5 -45t30.5 -108v-331q0 -79 -26.5 -129t-65.5 -71.5t-80 -21.5q-49 0 -77 18z" />
    <glyph glyph-name="uni01CC" unicode="&#x1cc;" horiz-adv-x="848" 
d="M667 595q-15 15 -15 37q0 23 15 37.5t37 14.5q23 0 37.5 -14.5t14.5 -37.5q0 -22 -14.5 -37t-37.5 -15q-22 0 -37 15zM38 24h42q12 0 17 5t5 17v364q0 12 -5 17t-17 5h-42v24h136v-82l4 -1q23 48 57 71.5t75 23.5q73 0 103.5 -45t30.5 -108v-269q0 -12 5 -17t17 -5h42
v-24h-200v24h42q12 0 17 5t5 17v288q0 44 -17.5 75t-59.5 31q-35 0 -62.5 -24.5t-43 -67t-15.5 -94.5v-208q0 -12 5 -17t17 -5h42v-24h-200v24zM520.5 -212.5q-30.5 25.5 -30.5 68.5q0 27 15.5 45.5t37.5 18.5q17 0 27 -9.5t10 -24.5q0 -12 -5.5 -20.5t-15.5 -17.5
q-15 -14 -15 -30q0 -17 15.5 -24.5t35.5 -7.5q33 0 56 32t23 111v481q0 12 -5 17t-17 5h-72v24h166v-499q0 -67 -22.5 -111t-57.5 -64t-73 -20q-42 0 -72.5 25.5z" />
    <glyph glyph-name="uni1E49" unicode="&#x1e49;" horiz-adv-x="540" 
d="M38 24h42q12 0 17 5t5 17v364q0 12 -5 17t-17 5h-42v24h136v-82l4 -1q23 48 57 71.5t75 23.5q73 0 103.5 -45t30.5 -108v-269q0 -12 5 -17t17 -5h42v-24h-200v24h42q12 0 17 5t5 17v288q0 44 -17.5 75t-59.5 31q-35 0 -62.5 -24.5t-43 -67t-15.5 -94.5v-208q0 -12 5 -17
t17 -5h42v-24h-200v24zM146 -166v40h260v-40h-260z" />
    <glyph glyph-name="ntilde" unicode="&#xf1;" horiz-adv-x="540" 
d="M134 558q6 36 28 62t58 26q19 0 36 -5.5t39 -14.5q19 -8 32 -12t28 -4q34 0 46 42l17 -4q-6 -36 -28 -62t-58 -26q-19 0 -36 5.5t-39 14.5q-19 8 -32 12t-28 4q-34 0 -46 -42zM38 24h42q12 0 17 5t5 17v364q0 12 -5 17t-17 5h-42v24h136v-82l4 -1q23 48 57 71.5t75 23.5
q73 0 103.5 -45t30.5 -108v-269q0 -12 5 -17t17 -5h42v-24h-200v24h42q12 0 17 5t5 17v288q0 44 -17.5 75t-59.5 31q-35 0 -62.5 -24.5t-43 -67t-15.5 -94.5v-208q0 -12 5 -17t17 -5h42v-24h-200v24z" />
    <glyph glyph-name="o" unicode="o" horiz-adv-x="496" 
d="M147 20.5q-46 32.5 -72.5 87.5t-26.5 120t26.5 120t72.5 87.5t101 32.5t101 -32.5t72.5 -87.5t26.5 -120t-26.5 -120t-72.5 -87.5t-101 -32.5t-101 32.5zM334 68.5q26 56.5 26 159.5t-26 159.5t-86 56.5t-86 -56.5t-26 -159.5t26 -159.5t86 -56.5t86 56.5z" />
    <glyph glyph-name="oacute" unicode="&#xf3;" horiz-adv-x="496" 
d="M223 519l92 133q13 18 24 25t25 7q13 0 20.5 -8.5t7.5 -22.5q0 -23 -28 -44l-128 -101zM147 20.5q-46 32.5 -72.5 87.5t-26.5 120t26.5 120t72.5 87.5t101 32.5t101 -32.5t72.5 -87.5t26.5 -120t-26.5 -120t-72.5 -87.5t-101 -32.5t-101 32.5zM334 68.5q26 56.5 26 159.5
t-26 159.5t-86 56.5t-86 -56.5t-26 -159.5t26 -159.5t86 -56.5t86 56.5z" />
    <glyph glyph-name="obreve" unicode="&#x14f;" horiz-adv-x="496" 
d="M172.5 549.5q-31.5 23.5 -47 56.5t-15.5 60h22q6 -40 33.5 -70t82.5 -30t82.5 30t33.5 70h22q0 -27 -15.5 -60t-47 -56.5t-75.5 -23.5t-75.5 23.5zM147 20.5q-46 32.5 -72.5 87.5t-26.5 120t26.5 120t72.5 87.5t101 32.5t101 -32.5t72.5 -87.5t26.5 -120t-26.5 -120
t-72.5 -87.5t-101 -32.5t-101 32.5zM334 68.5q26 56.5 26 159.5t-26 159.5t-86 56.5t-86 -56.5t-26 -159.5t26 -159.5t86 -56.5t86 56.5z" />
    <glyph glyph-name="ocircumflex" unicode="&#xf4;" horiz-adv-x="496" 
d="M117 521q75 49 111 151h40q36 -102 111 -151l-9 -13q-69 36 -122 92q-54 -57 -122 -92zM147 20.5q-46 32.5 -72.5 87.5t-26.5 120t26.5 120t72.5 87.5t101 32.5t101 -32.5t72.5 -87.5t26.5 -120t-26.5 -120t-72.5 -87.5t-101 -32.5t-101 32.5zM334 68.5q26 56.5 26 159.5
t-26 159.5t-86 56.5t-86 -56.5t-26 -159.5t26 -159.5t86 -56.5t86 56.5z" />
    <glyph glyph-name="uni1ED1" unicode="&#x1ed1;" horiz-adv-x="496" 
d="M147 20.5q-46 32.5 -72.5 87.5t-26.5 120t26.5 120t72.5 87.5t101 32.5t101 -32.5t72.5 -87.5t26.5 -120t-26.5 -120t-72.5 -87.5t-101 -32.5t-101 32.5zM334 68.5q26 56.5 26 159.5t-26 159.5t-86 56.5t-86 -56.5t-26 -159.5t26 -159.5t86 -56.5t86 56.5zM117 521
q75 49 111 151h40q36 -102 111 -151l-9 -13q-69 36 -122 92q-54 -57 -122 -92zM351 610l92 133q13 18 24 25t25 7q13 0 20.5 -8.5t7.5 -22.5q0 -23 -28 -44l-128 -101z" />
    <glyph glyph-name="uni1ED9" unicode="&#x1ed9;" horiz-adv-x="496" 
d="M147 20.5q-46 32.5 -72.5 87.5t-26.5 120t26.5 120t72.5 87.5t101 32.5t101 -32.5t72.5 -87.5t26.5 -120t-26.5 -120t-72.5 -87.5t-101 -32.5t-101 32.5zM334 68.5q26 56.5 26 159.5t-26 159.5t-86 56.5t-86 -56.5t-26 -159.5t26 -159.5t86 -56.5t86 56.5zM210.5 -179.5
q-14.5 14.5 -14.5 37.5q0 22 14.5 37t37.5 15q22 0 37 -15t15 -37q0 -23 -15 -37.5t-37 -14.5q-23 0 -37.5 14.5zM117 521q75 49 111 151h40q36 -102 111 -151l-9 -13q-69 36 -122 92q-54 -57 -122 -92z" />
    <glyph glyph-name="uni1ED3" unicode="&#x1ed3;" horiz-adv-x="496" 
d="M147 20.5q-46 32.5 -72.5 87.5t-26.5 120t26.5 120t72.5 87.5t101 32.5t101 -32.5t72.5 -87.5t26.5 -120t-26.5 -120t-72.5 -87.5t-101 -32.5t-101 32.5zM334 68.5q26 56.5 26 159.5t-26 159.5t-86 56.5t-86 -56.5t-26 -159.5t26 -159.5t86 -56.5t86 56.5zM117 521
q75 49 111 151h40q36 -102 111 -151l-9 -13q-69 36 -122 92q-54 -57 -122 -92zM227 758q-28 21 -28 44q0 14 7.5 22.5t20.5 8.5q14 0 25 -7t24 -25l92 -133l-13 -11z" />
    <glyph glyph-name="uni1ED5" unicode="&#x1ed5;" horiz-adv-x="496" 
d="M147 20.5q-46 32.5 -72.5 87.5t-26.5 120t26.5 120t72.5 87.5t101 32.5t101 -32.5t72.5 -87.5t26.5 -120t-26.5 -120t-72.5 -87.5t-101 -32.5t-101 32.5zM334 68.5q26 56.5 26 159.5t-26 159.5t-86 56.5t-86 -56.5t-26 -159.5t26 -159.5t86 -56.5t86 56.5zM117 521
q75 49 111 151h40q36 -102 111 -151l-9 -13q-69 36 -122 92q-54 -57 -122 -92zM369 682q27 23 27 58q0 24 -13.5 40t-40.5 16q-21 0 -37.5 -11t-16.5 -25q0 -10 3 -13q1 -1 2.5 -2t2.5 0q1 -1 4 1q3 1 4.5 0.5t3.5 0.5q8 -1 13 -6t5 -13q0 -9 -7 -15.5t-20 -6.5
q-12 0 -22 11t-10 29q0 27 24.5 45.5t54.5 19.5q38 -1 64.5 -19.5t26.5 -51.5q0 -27 -17 -46t-51 -43h-35z" />
    <glyph glyph-name="uni1ED7" unicode="&#x1ed7;" horiz-adv-x="496" 
d="M147 20.5q-46 32.5 -72.5 87.5t-26.5 120t26.5 120t72.5 87.5t101 32.5t101 -32.5t72.5 -87.5t26.5 -120t-26.5 -120t-72.5 -87.5t-101 -32.5t-101 32.5zM334 68.5q26 56.5 26 159.5t-26 159.5t-86 56.5t-86 -56.5t-26 -159.5t26 -159.5t86 -56.5t86 56.5zM117 521
q75 49 111 151h40q36 -102 111 -151l-9 -13q-69 36 -122 92q-54 -57 -122 -92zM128 703q6 36 28 62t58 26q19 0 36 -5.5t39 -14.5q19 -8 32 -12t28 -4q34 0 46 42l17 -4q-6 -36 -28 -62t-58 -26q-19 0 -36 5.5t-39 14.5q-19 8 -32 12t-28 4q-34 0 -46 -42z" />
    <glyph glyph-name="uni020D" unicode="&#x20d;" horiz-adv-x="496" 
d="M64 609q-28 21 -28 44q0 14 7.5 22.5t20.5 8.5q14 0 25 -7t24 -25l92 -133l-13 -11zM200 609q-28 21 -28 44q0 14 7.5 22.5t20.5 8.5q14 0 25 -7t24 -25l92 -133l-13 -11zM147 20.5q-46 32.5 -72.5 87.5t-26.5 120t26.5 120t72.5 87.5t101 32.5t101 -32.5t72.5 -87.5
t26.5 -120t-26.5 -120t-72.5 -87.5t-101 -32.5t-101 32.5zM334 68.5q26 56.5 26 159.5t-26 159.5t-86 56.5t-86 -56.5t-26 -159.5t26 -159.5t86 -56.5t86 56.5z" />
    <glyph glyph-name="odieresis" unicode="&#xf6;" horiz-adv-x="496" 
d="M120.5 562.5q-14.5 14.5 -14.5 33.5q0 20 14.5 34t33.5 14q20 0 34 -14t14 -34q0 -19 -14 -33.5t-34 -14.5q-19 0 -33.5 14.5zM308.5 562.5q-14.5 14.5 -14.5 33.5q0 20 14.5 34t33.5 14q20 0 34 -14t14 -34q0 -19 -14 -33.5t-34 -14.5q-19 0 -33.5 14.5zM147 20.5
q-46 32.5 -72.5 87.5t-26.5 120t26.5 120t72.5 87.5t101 32.5t101 -32.5t72.5 -87.5t26.5 -120t-26.5 -120t-72.5 -87.5t-101 -32.5t-101 32.5zM334 68.5q26 56.5 26 159.5t-26 159.5t-86 56.5t-86 -56.5t-26 -159.5t26 -159.5t86 -56.5t86 56.5z" />
    <glyph glyph-name="uni1ECD" unicode="&#x1ecd;" horiz-adv-x="496" 
d="M147 20.5q-46 32.5 -72.5 87.5t-26.5 120t26.5 120t72.5 87.5t101 32.5t101 -32.5t72.5 -87.5t26.5 -120t-26.5 -120t-72.5 -87.5t-101 -32.5t-101 32.5zM334 68.5q26 56.5 26 159.5t-26 159.5t-86 56.5t-86 -56.5t-26 -159.5t26 -159.5t86 -56.5t86 56.5zM210.5 -179.5
q-14.5 14.5 -14.5 37.5q0 22 14.5 37t37.5 15q22 0 37 -15t15 -37q0 -23 -15 -37.5t-37 -14.5q-23 0 -37.5 14.5z" />
    <glyph glyph-name="ograve" unicode="&#xf2;" horiz-adv-x="496" 
d="M132 609q-28 21 -28 44q0 14 7.5 22.5t20.5 8.5q14 0 25 -7t24 -25l92 -133l-13 -11zM147 20.5q-46 32.5 -72.5 87.5t-26.5 120t26.5 120t72.5 87.5t101 32.5t101 -32.5t72.5 -87.5t26.5 -120t-26.5 -120t-72.5 -87.5t-101 -32.5t-101 32.5zM334 68.5q26 56.5 26 159.5
t-26 159.5t-86 56.5t-86 -56.5t-26 -159.5t26 -159.5t86 -56.5t86 56.5z" />
    <glyph glyph-name="uni1ECF" unicode="&#x1ecf;" horiz-adv-x="496" 
d="M147 20.5q-46 32.5 -72.5 87.5t-26.5 120t26.5 120t72.5 87.5t101 32.5t101 -32.5t72.5 -87.5t26.5 -120t-26.5 -120t-72.5 -87.5t-101 -32.5t-101 32.5zM334 68.5q26 56.5 26 159.5t-26 159.5t-86 56.5t-86 -56.5t-26 -159.5t26 -159.5t86 -56.5t86 56.5zM265 561
q27 23 27 58q0 24 -13.5 40t-40.5 16q-21 0 -37.5 -11t-16.5 -25q0 -10 3 -13q1 -1 2.5 -2t2.5 0q1 -1 4 1q3 1 4.5 0.5t3.5 0.5q8 -1 13 -6t5 -13q0 -9 -7 -15.5t-20 -6.5q-12 0 -22 11t-10 29q0 27 24.5 45.5t54.5 19.5q38 -1 64.5 -19.5t26.5 -51.5q0 -27 -17 -46
t-51 -43h-35z" />
    <glyph glyph-name="ohorn" unicode="&#x1a1;" horiz-adv-x="496" 
d="M419.5 351.5q28.5 -56.5 28.5 -123.5q0 -65 -26.5 -120t-72.5 -87.5t-101 -32.5t-101 32.5t-72.5 87.5t-26.5 120t26.5 120t72.5 87.5t101 32.5q33 0 62 -12q43 3 57 26t13 74h63l1 -15q0 -45 -27 -70t-73 -32q47 -31 75.5 -87.5zM334 68.5q26 56.5 26 159.5t-26 159.5
t-86 56.5t-86 -56.5t-26 -159.5t26 -159.5t86 -56.5t86 56.5z" />
    <glyph glyph-name="uni1EDB" unicode="&#x1edb;" horiz-adv-x="496" 
d="M419.5 351.5q28.5 -56.5 28.5 -123.5q0 -65 -26.5 -120t-72.5 -87.5t-101 -32.5t-101 32.5t-72.5 87.5t-26.5 120t26.5 120t72.5 87.5t101 32.5q33 0 62 -12q43 3 57 26t13 74h63l1 -15q0 -45 -27 -70t-73 -32q47 -31 75.5 -87.5zM334 68.5q26 56.5 26 159.5t-26 159.5
t-86 56.5t-86 -56.5t-26 -159.5t26 -159.5t86 -56.5t86 56.5zM163 519l92 133q13 18 24 25t25 7q13 0 20.5 -8.5t7.5 -22.5q0 -23 -28 -44l-128 -101z" />
    <glyph glyph-name="uni1EE3" unicode="&#x1ee3;" horiz-adv-x="496" 
d="M419.5 351.5q28.5 -56.5 28.5 -123.5q0 -65 -26.5 -120t-72.5 -87.5t-101 -32.5t-101 32.5t-72.5 87.5t-26.5 120t26.5 120t72.5 87.5t101 32.5q33 0 62 -12q43 3 57 26t13 74h63l1 -15q0 -45 -27 -70t-73 -32q47 -31 75.5 -87.5zM334 68.5q26 56.5 26 159.5t-26 159.5
t-86 56.5t-86 -56.5t-26 -159.5t26 -159.5t86 -56.5t86 56.5zM210.5 -179.5q-14.5 14.5 -14.5 37.5q0 22 14.5 37t37.5 15q22 0 37 -15t15 -37q0 -23 -15 -37.5t-37 -14.5q-23 0 -37.5 14.5z" />
    <glyph glyph-name="uni1EDD" unicode="&#x1edd;" horiz-adv-x="496" 
d="M419.5 351.5q28.5 -56.5 28.5 -123.5q0 -65 -26.5 -120t-72.5 -87.5t-101 -32.5t-101 32.5t-72.5 87.5t-26.5 120t26.5 120t72.5 87.5t101 32.5q33 0 62 -12q43 3 57 26t13 74h63l1 -15q0 -45 -27 -70t-73 -32q47 -31 75.5 -87.5zM334 68.5q26 56.5 26 159.5t-26 159.5
t-86 56.5t-86 -56.5t-26 -159.5t26 -159.5t86 -56.5t86 56.5zM191 609q-28 21 -28 44q0 14 7.5 22.5t20.5 8.5q14 0 25 -7t24 -25l92 -133l-13 -11z" />
    <glyph glyph-name="uni1EDF" unicode="&#x1edf;" horiz-adv-x="496" 
d="M419.5 351.5q28.5 -56.5 28.5 -123.5q0 -65 -26.5 -120t-72.5 -87.5t-101 -32.5t-101 32.5t-72.5 87.5t-26.5 120t26.5 120t72.5 87.5t101 32.5q33 0 62 -12q43 3 57 26t13 74h63l1 -15q0 -45 -27 -70t-73 -32q47 -31 75.5 -87.5zM334 68.5q26 56.5 26 159.5t-26 159.5
t-86 56.5t-86 -56.5t-26 -159.5t26 -159.5t86 -56.5t86 56.5zM265 561q27 23 27 58q0 24 -13.5 40t-40.5 16q-21 0 -37.5 -11t-16.5 -25q0 -10 3 -13q1 -1 2.5 -2t2.5 0q1 -1 4 1q3 1 4.5 0.5t3.5 0.5q8 -1 13 -6t5 -13q0 -9 -7 -15.5t-20 -6.5q-12 0 -22 11t-10 29
q0 27 24.5 45.5t54.5 19.5q38 -1 64.5 -19.5t26.5 -51.5q0 -27 -17 -46t-51 -43h-35z" />
    <glyph glyph-name="uni1EE1" unicode="&#x1ee1;" horiz-adv-x="496" 
d="M419.5 351.5q28.5 -56.5 28.5 -123.5q0 -65 -26.5 -120t-72.5 -87.5t-101 -32.5t-101 32.5t-72.5 87.5t-26.5 120t26.5 120t72.5 87.5t101 32.5q33 0 62 -12q43 3 57 26t13 74h63l1 -15q0 -45 -27 -70t-73 -32q47 -31 75.5 -87.5zM334 68.5q26 56.5 26 159.5t-26 159.5
t-86 56.5t-86 -56.5t-26 -159.5t26 -159.5t86 -56.5t86 56.5zM106 558q6 36 28 62t58 26q19 0 36 -5.5t39 -14.5q19 -8 32 -12t28 -4q34 0 46 42l17 -4q-6 -36 -28 -62t-58 -26q-19 0 -36 5.5t-39 14.5q-19 8 -32 12t-28 4q-34 0 -46 -42z" />
    <glyph glyph-name="ohungarumlaut" unicode="&#x151;" horiz-adv-x="496" 
d="M153 519l92 133q13 18 24 25t25 7q13 0 20.5 -8.5t7.5 -22.5q0 -23 -28 -44l-128 -101zM289 519l92 133q13 18 24 25t25 7q13 0 20.5 -8.5t7.5 -22.5q0 -23 -28 -44l-128 -101zM147 20.5q-46 32.5 -72.5 87.5t-26.5 120t26.5 120t72.5 87.5t101 32.5t101 -32.5
t72.5 -87.5t26.5 -120t-26.5 -120t-72.5 -87.5t-101 -32.5t-101 32.5zM334 68.5q26 56.5 26 159.5t-26 159.5t-86 56.5t-86 -56.5t-26 -159.5t26 -159.5t86 -56.5t86 56.5z" />
    <glyph glyph-name="uni020F" unicode="&#x20f;" horiz-adv-x="496" 
d="M116 524q8 29 27 63t46.5 58.5t58.5 24.5t58.5 -24.5t46.5 -58.5t27 -63l-16 -6q-15 36 -45.5 66t-70.5 30t-70.5 -30t-45.5 -66zM147 20.5q-46 32.5 -72.5 87.5t-26.5 120t26.5 120t72.5 87.5t101 32.5t101 -32.5t72.5 -87.5t26.5 -120t-26.5 -120t-72.5 -87.5
t-101 -32.5t-101 32.5zM334 68.5q26 56.5 26 159.5t-26 159.5t-86 56.5t-86 -56.5t-26 -159.5t26 -159.5t86 -56.5t86 56.5z" />
    <glyph glyph-name="omacron" unicode="&#x14d;" horiz-adv-x="496" 
d="M118 572v40h260v-40h-260zM147 20.5q-46 32.5 -72.5 87.5t-26.5 120t26.5 120t72.5 87.5t101 32.5t101 -32.5t72.5 -87.5t26.5 -120t-26.5 -120t-72.5 -87.5t-101 -32.5t-101 32.5zM334 68.5q26 56.5 26 159.5t-26 159.5t-86 56.5t-86 -56.5t-26 -159.5t26 -159.5
t86 -56.5t86 56.5z" />
    <glyph glyph-name="uni1E53" unicode="&#x1e53;" horiz-adv-x="496" 
d="M223 615l92 133q13 18 24 25t25 7q13 0 20.5 -8.5t7.5 -22.5q0 -23 -28 -44l-128 -101zM118 528v40h260v-40h-260zM147 20.5q-46 32.5 -72.5 87.5t-26.5 120t26.5 120t72.5 87.5t101 32.5t101 -32.5t72.5 -87.5t26.5 -120t-26.5 -120t-72.5 -87.5t-101 -32.5t-101 32.5z
M334 68.5q26 56.5 26 159.5t-26 159.5t-86 56.5t-86 -56.5t-26 -159.5t26 -159.5t86 -56.5t86 56.5z" />
    <glyph glyph-name="uni1E51" unicode="&#x1e51;" horiz-adv-x="496" 
d="M132 705q-28 21 -28 44q0 14 7.5 22.5t20.5 8.5q14 0 25 -7t24 -25l92 -133l-13 -11zM118 528v40h260v-40h-260zM147 20.5q-46 32.5 -72.5 87.5t-26.5 120t26.5 120t72.5 87.5t101 32.5t101 -32.5t72.5 -87.5t26.5 -120t-26.5 -120t-72.5 -87.5t-101 -32.5t-101 32.5z
M334 68.5q26 56.5 26 159.5t-26 159.5t-86 56.5t-86 -56.5t-26 -159.5t26 -159.5t86 -56.5t86 56.5z" />
    <glyph glyph-name="uni01EB" unicode="&#x1eb;" horiz-adv-x="496" 
d="M157 -198.5q-23 21.5 -23 56.5q0 37 27 70t69 59v2q-51 5 -92.5 38.5t-65.5 86t-24 114.5q0 65 26.5 120t72.5 87.5t101 32.5t101 -32.5t72.5 -87.5t26.5 -120q0 -92 -46 -154.5t-120 -82.5q-38 -10 -65 -46.5t-27 -73.5q0 -22 11 -34.5t33 -12.5q18 0 30.5 8.5
t27.5 25.5l14 -10q-15 -28 -39.5 -48t-53.5 -20q-33 0 -56 21.5zM334 68.5q26 56.5 26 159.5t-26 159.5t-86 56.5t-86 -56.5t-26 -159.5t26 -159.5t86 -56.5t86 56.5z" />
    <glyph glyph-name="oslash" unicode="&#xf8;" horiz-adv-x="496" 
d="M48 6l51 62q-24 32 -37.5 73.5t-13.5 86.5q0 65 26.5 120t72.5 87.5t101 32.5q37 0 70.5 -15t60.5 -43l47 58l22 -18l-51 -62q24 -32 37.5 -73.5t13.5 -86.5q0 -65 -26.5 -120t-72.5 -87.5t-101 -32.5q-37 0 -70.5 15t-60.5 43l-47 -58zM343 366q-27 78 -95 78
q-60 0 -86 -56.5t-26 -159.5q0 -59 9 -104zM334 68.5q26 56.5 26 159.5q0 59 -9 104l-198 -242q27 -78 95 -78q60 0 86 56.5z" />
    <glyph glyph-name="oslashacute" unicode="&#x1ff;" horiz-adv-x="496" 
d="M223 519l92 133q13 18 24 25t25 7q13 0 20.5 -8.5t7.5 -22.5q0 -23 -28 -44l-128 -101zM48 6l51 62q-24 32 -37.5 73.5t-13.5 86.5q0 65 26.5 120t72.5 87.5t101 32.5q37 0 70.5 -15t60.5 -43l47 58l22 -18l-51 -62q24 -32 37.5 -73.5t13.5 -86.5q0 -65 -26.5 -120
t-72.5 -87.5t-101 -32.5q-37 0 -70.5 15t-60.5 43l-47 -58zM343 366q-27 78 -95 78q-60 0 -86 -56.5t-26 -159.5q0 -59 9 -104zM334 68.5q26 56.5 26 159.5q0 59 -9 104l-198 -242q27 -78 95 -78q60 0 86 56.5z" />
    <glyph glyph-name="otilde" unicode="&#xf5;" horiz-adv-x="496" 
d="M106 558q6 36 28 62t58 26q19 0 36 -5.5t39 -14.5q19 -8 32 -12t28 -4q34 0 46 42l17 -4q-6 -36 -28 -62t-58 -26q-19 0 -36 5.5t-39 14.5q-19 8 -32 12t-28 4q-34 0 -46 -42zM147 20.5q-46 32.5 -72.5 87.5t-26.5 120t26.5 120t72.5 87.5t101 32.5t101 -32.5t72.5 -87.5
t26.5 -120t-26.5 -120t-72.5 -87.5t-101 -32.5t-101 32.5zM334 68.5q26 56.5 26 159.5t-26 159.5t-86 56.5t-86 -56.5t-26 -159.5t26 -159.5t86 -56.5t86 56.5z" />
    <glyph glyph-name="uni1E4D" unicode="&#x1e4d;" horiz-adv-x="496" 
d="M205 651l92 133q13 18 24 25t25 7q13 0 20.5 -8.5t7.5 -22.5q0 -23 -28 -44l-128 -101zM106 514q6 36 28 62t58 26q19 0 36 -5.5t39 -14.5q19 -8 32 -12t28 -4q34 0 46 42l17 -4q-6 -36 -28 -62t-58 -26q-19 0 -36 5.5t-39 14.5q-19 8 -32 12t-28 4q-34 0 -46 -42z
M147 20.5q-46 32.5 -72.5 87.5t-26.5 120t26.5 120t72.5 87.5t101 32.5t101 -32.5t72.5 -87.5t26.5 -120t-26.5 -120t-72.5 -87.5t-101 -32.5t-101 32.5zM334 68.5q26 56.5 26 159.5t-26 159.5t-86 56.5t-86 -56.5t-26 -159.5t26 -159.5t86 -56.5t86 56.5z" />
    <glyph glyph-name="uni1E4F" unicode="&#x1e4f;" horiz-adv-x="496" 
d="M120.5 668.5q-14.5 14.5 -14.5 33.5q0 20 14.5 34t33.5 14q20 0 34 -14t14 -34q0 -19 -14 -33.5t-34 -14.5q-19 0 -33.5 14.5zM308.5 668.5q-14.5 14.5 -14.5 33.5q0 20 14.5 34t33.5 14q20 0 34 -14t14 -34q0 -19 -14 -33.5t-34 -14.5q-19 0 -33.5 14.5zM106 520
q6 36 28 62t58 26q19 0 36 -5.5t39 -14.5q19 -8 32 -12t28 -4q34 0 46 42l17 -4q-6 -36 -28 -62t-58 -26q-19 0 -36 5.5t-39 14.5q-19 8 -32 12t-28 4q-34 0 -46 -42zM147 20.5q-46 32.5 -72.5 87.5t-26.5 120t26.5 120t72.5 87.5t101 32.5t101 -32.5t72.5 -87.5t26.5 -120
t-26.5 -120t-72.5 -87.5t-101 -32.5t-101 32.5zM334 68.5q26 56.5 26 159.5t-26 159.5t-86 56.5t-86 -56.5t-26 -159.5t26 -159.5t86 -56.5t86 56.5z" />
    <glyph glyph-name="oe" unicode="&#x153;" horiz-adv-x="766" 
d="M141.5 20q-44.5 32 -69 87t-24.5 121t24.5 121t69 87t102.5 32q47 0 86.5 -23t65.5 -62h4q26 40 64 62.5t84 22.5q61 0 100 -33t56.5 -83.5t17.5 -103.5q0 -11 -7 -14.5t-24 -3.5h-249q0 -100 28.5 -159t93.5 -59q46 0 86.5 35t51.5 109h24q-6 -73 -50.5 -120.5
t-115.5 -47.5q-106 0 -160 79h-4q-29 -36 -68 -57.5t-84 -21.5q-58 0 -102.5 32zM328 77.5q26 65.5 26 150.5t-26 150.5t-84 65.5t-83 -65t-25 -151t25 -151t83 -65t84 65.5zM636 254q0 80 -21 135t-69 55q-51 0 -77.5 -55.5t-26.5 -134.5h194z" />
    <glyph glyph-name="p" unicode="p" horiz-adv-x="518" 
d="M28 -206h52q12 0 17 5t5 17v594q0 12 -5 17t-17 5h-52v24h146v-74l4 -1q19 40 48.5 63.5t67.5 23.5q47 0 87.5 -31.5t64.5 -86.5t24 -122t-24 -122t-64.5 -86.5t-87.5 -31.5q-39 0 -70 25.5t-46 61.5l-4 -1v-258q0 -12 5 -17t17 -5h52v-24h-220v24zM357 71q25 55 25 157
t-25 157t-74 55q-30 0 -55 -22t-39.5 -60.5t-14.5 -83.5v-92q0 -45 14.5 -83.5t39.5 -60.5t55 -22q49 0 74 55z" />
    <glyph glyph-name="thorn" unicode="&#xfe;" horiz-adv-x="500" 
d="M26 -228l52 22q11 5 15.5 11t4.5 17v786q0 18 -16 18q-7 0 -16 -4l-30 -11l-10 24l116 49h28v-332l6 -2q28 55 72 86.5t88 31.5q46 0 81 -29t35 -90q0 -68 -44 -140t-114 -131q-56 -47 -124 -78v-199l-134 -53zM260 88q49 46 76.5 111t27.5 135q0 90 -62 90
q-29 0 -60 -29t-51.5 -74t-20.5 -89v-205q52 26 90 61z" />
    <glyph glyph-name="q" unicode="q" horiz-adv-x="502" 
d="M270 -206h52q12 0 17 5t5 17v258l-4 1q-15 -36 -46 -61.5t-70 -25.5q-47 0 -87.5 31.5t-64.5 86.5t-24 122t24 122t64.5 86.5t87.5 31.5q40 0 74 -27t54 -71h4l42 86h18v-640q0 -12 5 -17t17 -5h52v-24h-220v24zM290 38q25 22 39.5 60.5t14.5 83.5v92q0 45 -14.5 83.5
t-39.5 60.5t-55 22q-49 0 -74 -55t-25 -157t25 -157t74 -55q30 0 55 22z" />
    <glyph glyph-name="r" unicode="r" horiz-adv-x="410" 
d="M38 24h42q12 0 17 5t5 17v364q0 12 -5 17t-17 5h-42v24h136v-100l4 -1q21 52 54.5 82.5t71.5 30.5t62 -22t24 -60q0 -22 -15.5 -43t-39.5 -21q-19 0 -32 10t-13 28q0 21 20 36q9 6 13.5 11t4.5 13q0 9 -8.5 14.5t-23.5 5.5q-31 0 -59.5 -30t-45.5 -78t-17 -100v-186
q0 -12 5 -17t17 -5h42v-24h-200v24z" />
    <glyph glyph-name="racute" unicode="&#x155;" horiz-adv-x="410" 
d="M211 519l92 133q13 18 24 25t25 7q13 0 20.5 -8.5t7.5 -22.5q0 -23 -28 -44l-128 -101zM38 24h42q12 0 17 5t5 17v364q0 12 -5 17t-17 5h-42v24h136v-100l4 -1q21 52 54.5 82.5t71.5 30.5t62 -22t24 -60q0 -22 -15.5 -43t-39.5 -21q-19 0 -32 10t-13 28q0 21 20 36
q9 6 13.5 11t4.5 13q0 9 -8.5 14.5t-23.5 5.5q-31 0 -59.5 -30t-45.5 -78t-17 -100v-186q0 -12 5 -17t17 -5h42v-24h-200v24z" />
    <glyph glyph-name="rcaron" unicode="&#x159;" horiz-adv-x="410" 
d="M216 508l-112 153l13 11l119 -100l119 100l13 -11l-112 -153h-40zM38 24h42q12 0 17 5t5 17v364q0 12 -5 17t-17 5h-42v24h136v-100l4 -1q21 52 54.5 82.5t71.5 30.5t62 -22t24 -60q0 -22 -15.5 -43t-39.5 -21q-19 0 -32 10t-13 28q0 21 20 36q9 6 13.5 11t4.5 13
q0 9 -8.5 14.5t-23.5 5.5q-31 0 -59.5 -30t-45.5 -78t-17 -100v-186q0 -12 5 -17t17 -5h42v-24h-200v24z" />
    <glyph glyph-name="rcommaaccent" unicode="&#x157;" horiz-adv-x="410" 
d="M38 24h42q12 0 17 5t5 17v364q0 12 -5 17t-17 5h-42v24h136v-100l4 -1q21 52 54.5 82.5t71.5 30.5t62 -22t24 -60q0 -22 -15.5 -43t-39.5 -21q-19 0 -32 10t-13 28q0 21 20 36q9 6 13.5 11t4.5 13q0 9 -8.5 14.5t-23.5 5.5q-31 0 -59.5 -30t-45.5 -78t-17 -100v-186
q0 -12 5 -17t17 -5h42v-24h-200v24zM82 -227q26 12 45.5 33.5t19.5 41.5q0 16 -8 22q-6 4 -24 4q-16 0 -25.5 13t-9.5 28q0 21 13.5 33t33.5 12q26 0 41.5 -19t15.5 -47q0 -43 -27.5 -80t-64.5 -52z" />
    <glyph glyph-name="uni0211" unicode="&#x211;" horiz-adv-x="410" 
d="M52 609q-28 21 -28 44q0 14 7.5 22.5t20.5 8.5q14 0 25 -7t24 -25l92 -133l-13 -11zM188 609q-28 21 -28 44q0 14 7.5 22.5t20.5 8.5q14 0 25 -7t24 -25l92 -133l-13 -11zM38 24h42q12 0 17 5t5 17v364q0 12 -5 17t-17 5h-42v24h136v-100l4 -1q21 52 54.5 82.5t71.5 30.5
t62 -22t24 -60q0 -22 -15.5 -43t-39.5 -21q-19 0 -32 10t-13 28q0 21 20 36q9 6 13.5 11t4.5 13q0 9 -8.5 14.5t-23.5 5.5q-31 0 -59.5 -30t-45.5 -78t-17 -100v-186q0 -12 5 -17t17 -5h42v-24h-200v24z" />
    <glyph glyph-name="uni1E5B" unicode="&#x1e5b;" horiz-adv-x="410" 
d="M38 24h42q12 0 17 5t5 17v364q0 12 -5 17t-17 5h-42v24h136v-100l4 -1q21 52 54.5 82.5t71.5 30.5t62 -22t24 -60q0 -22 -15.5 -43t-39.5 -21q-19 0 -32 10t-13 28q0 21 20 36q9 6 13.5 11t4.5 13q0 9 -8.5 14.5t-23.5 5.5q-31 0 -59.5 -30t-45.5 -78t-17 -100v-186
q0 -12 5 -17t17 -5h42v-24h-200v24zM115 -179.5q-15 14.5 -15 37.5q0 22 15 37t37 15q23 0 37.5 -15t14.5 -37q0 -23 -14.5 -37.5t-37.5 -14.5q-22 0 -37 14.5z" />
    <glyph glyph-name="uni0213" unicode="&#x213;" horiz-adv-x="410" 
d="M104 524q8 29 27 63t46.5 58.5t58.5 24.5t58.5 -24.5t46.5 -58.5t27 -63l-16 -6q-15 36 -45.5 66t-70.5 30t-70.5 -30t-45.5 -66zM38 24h42q12 0 17 5t5 17v364q0 12 -5 17t-17 5h-42v24h136v-100l4 -1q21 52 54.5 82.5t71.5 30.5t62 -22t24 -60q0 -22 -15.5 -43
t-39.5 -21q-19 0 -32 10t-13 28q0 21 20 36q9 6 13.5 11t4.5 13q0 9 -8.5 14.5t-23.5 5.5q-31 0 -59.5 -30t-45.5 -78t-17 -100v-186q0 -12 5 -17t17 -5h42v-24h-200v24z" />
    <glyph glyph-name="uni1E5F" unicode="&#x1e5f;" horiz-adv-x="410" 
d="M38 24h42q12 0 17 5t5 17v364q0 12 -5 17t-17 5h-42v24h136v-100l4 -1q21 52 54.5 82.5t71.5 30.5t62 -22t24 -60q0 -22 -15.5 -43t-39.5 -21q-19 0 -32 10t-13 28q0 21 20 36q9 6 13.5 11t4.5 13q0 9 -8.5 14.5t-23.5 5.5q-31 0 -59.5 -30t-45.5 -78t-17 -100v-186
q0 -12 5 -17t17 -5h42v-24h-200v24zM22 -166v40h260v-40h-260z" />
    <glyph glyph-name="s" unicode="s" horiz-adv-x="434" 
d="M60 186h18l37 -79q54 -95 140 -95q46 0 68.5 22.5t22.5 61.5q0 23 -17.5 41.5t-46.5 29.5l-114 46q-54 22 -85 53t-31 79q0 61 38 92t96 31q29 0 54.5 -9.5t42.5 -22.5q22 -16 33 -16q13 0 16 18l2 20h18v-152h-18l-14 35q-23 57 -60.5 80t-74.5 23t-61 -18.5t-24 -51.5
q0 -29 23.5 -47.5t64.5 -35.5l108 -45q48 -20 72 -48.5t24 -79.5q0 -67 -38 -98.5t-100 -31.5q-37 0 -60 10t-45 27q-9 7 -18 12t-16 5q-24 0 -33 -34l-4 -20h-18v198z" />
    <glyph glyph-name="sacute" unicode="&#x15b;" horiz-adv-x="434" 
d="M181 519l92 133q13 18 24 25t25 7q13 0 20.5 -8.5t7.5 -22.5q0 -23 -28 -44l-128 -101zM60 186h18l37 -79q54 -95 140 -95q46 0 68.5 22.5t22.5 61.5q0 23 -17.5 41.5t-46.5 29.5l-114 46q-54 22 -85 53t-31 79q0 61 38 92t96 31q29 0 54.5 -9.5t42.5 -22.5
q22 -16 33 -16q13 0 16 18l2 20h18v-152h-18l-14 35q-23 57 -60.5 80t-74.5 23t-61 -18.5t-24 -51.5q0 -29 23.5 -47.5t64.5 -35.5l108 -45q48 -20 72 -48.5t24 -79.5q0 -67 -38 -98.5t-100 -31.5q-37 0 -60 10t-45 27q-9 7 -18 12t-16 5q-24 0 -33 -34l-4 -20h-18v198z" />
    <glyph glyph-name="uni1E65" unicode="&#x1e65;" horiz-adv-x="434" 
d="M171 673q-15 15 -15 37q0 23 15 37.5t37 14.5q23 0 37.5 -14.5t14.5 -37.5q0 -22 -14.5 -37t-37.5 -15q-22 0 -37 15zM181 519l92 133q13 18 24 25t25 7q13 0 20.5 -8.5t7.5 -22.5q0 -23 -28 -44l-128 -101zM60 186h18l37 -79q54 -95 140 -95q46 0 68.5 22.5t22.5 61.5
q0 23 -17.5 41.5t-46.5 29.5l-114 46q-54 22 -85 53t-31 79q0 61 38 92t96 31q29 0 54.5 -9.5t42.5 -22.5q22 -16 33 -16q13 0 16 18l2 20h18v-152h-18l-14 35q-23 57 -60.5 80t-74.5 23t-61 -18.5t-24 -51.5q0 -29 23.5 -47.5t64.5 -35.5l108 -45q48 -20 72 -48.5t24 -79.5
q0 -67 -38 -98.5t-100 -31.5q-37 0 -60 10t-45 27q-9 7 -18 12t-16 5q-24 0 -33 -34l-4 -20h-18v198z" />
    <glyph glyph-name="scaron" unicode="&#x161;" horiz-adv-x="434" 
d="M186 508l-112 153l13 11l119 -100l119 100l13 -11l-112 -153h-40zM60 186h18l37 -79q54 -95 140 -95q46 0 68.5 22.5t22.5 61.5q0 23 -17.5 41.5t-46.5 29.5l-114 46q-54 22 -85 53t-31 79q0 61 38 92t96 31q29 0 54.5 -9.5t42.5 -22.5q22 -16 33 -16q13 0 16 18l2 20h18
v-152h-18l-14 35q-23 57 -60.5 80t-74.5 23t-61 -18.5t-24 -51.5q0 -29 23.5 -47.5t64.5 -35.5l108 -45q48 -20 72 -48.5t24 -79.5q0 -67 -38 -98.5t-100 -31.5q-37 0 -60 10t-45 27q-9 7 -18 12t-16 5q-24 0 -33 -34l-4 -20h-18v198z" />
    </font>
</defs>
</svg>
