<?xml version="1.0" standalone="no"?>
<!DOCTYPE svg PUBLIC "-//W3C//DTD SVG 1.1//EN" "http://www.w3.org/Graphics/SVG/1.1/DTD/svg11.dtd" >
<svg xmlns="http://www.w3.org/2000/svg" xmlns:xlink="http://www.w3.org/1999/xlink" version="1.1">
<metadata>
Created by FontForge 20230101 at Tue Dec 13 05:26:46 2016
 By Glenn Lewis
Copyright 2011 The Old Standard Project Authors (amkryukov@gmail.com)
</metadata>
<defs>
<font id="OldStandardTT-Italic" horiz-adv-x="0" >
  <font-face 
    font-family="Old Standard TT"
    font-weight="400"
    font-style="italic"
    font-stretch="normal"
    units-per-em="1000"
    panose-1="0 0 5 0 0 0 0 0 0 0"
    ascent="762"
    descent="-238"
    x-height="456"
    cap-height="712"
    bbox="-830 -294 1430 1099"
    underline-thickness="40"
    underline-position="-158"
    slope="-15.1"
    unicode-range="U+000D-FB02"
  />
<missing-glyph horiz-adv-x="500" 
d="M410 762v-1000h-317v1000h317zM333 695h-165v-33h65v-37h-66v-33h166v33h-66v37h66v33zM267 566h-100v-104h166v34h-66v70zM233 532v-36h-33v36h33zM333 435h-166v-33h66v-37h-66v-33h100v70h66v33zM333 375h-33v-66h-133v-34h166v100zM333 253h-100v-56h34v23h33v-47
h-100v80h-33v-113h166v113zM333 80h-166v-113h166v113zM300 47v-47h-100v47h100zM333 -56h-166v-33h70l-70 -47v-33h166v33h-102l70 47h32v33z" />
    <glyph glyph-name="fi" unicode="fi" horiz-adv-x="550" 
d="M138 416h-102l6 28h104l12 43q10 32 20 53.5t29 53.5q34 57 93 91.5t120 34.5q36 0 61.5 -22.5t25.5 -52.5q0 -26 -15 -42.5t-37 -16.5q-14 0 -23 9t-9 24q0 23 16 32t16 22q0 10 -11 16.5t-28 6.5q-55 0 -105 -43.5t-81 -150.5l-16 -58h97l-6 -28h-99l-180 -658h-68z
M331.5 12q-18.5 24 -18.5 72q0 22 6 52.5t14 49.5l64 149q5 11 10.5 29t5.5 30q0 14 -5.5 23t-16.5 9q-34 0 -65.5 -52t-53.5 -112l-20 6q27 80 66 134t84 54q26 0 44.5 -25t18.5 -71q0 -22 -6 -53.5t-14 -48.5l-64 -149q-5 -11 -10.5 -29t-5.5 -30q0 -14 6 -23t17 -9
q34 0 65 52t53 112l20 -6q-27 -81 -65.5 -134.5t-83.5 -53.5q-27 0 -45.5 24z" />
    <glyph glyph-name="fl" unicode="fl" horiz-adv-x="546" 
d="M138 416h-102l6 28h104l12 43q10 32 20 53.5t29 53.5q34 57 93 91.5t120 34.5q20 0 38 -8h80l-157 -574q-1 -3 -9 -34.5t-8 -54.5q0 -14 4 -20.5t15 -6.5q28 0 56.5 46.5t51.5 113.5l20 -6q-27 -76 -62 -132t-85 -56q-58 0 -58 102q0 20 10 60l121 441q-14 9 -14 28
q0 23 16 32t16 22q0 10 -11 16.5t-28 6.5q-55 0 -105 -43.5t-81 -150.5l-16 -58h112l-6 -28h-114l-180 -658h-68z" />
    <glyph glyph-name=".notdef" horiz-adv-x="500" 
d="M410 762v-1000h-317v1000h317zM333 695h-165v-33h65v-37h-66v-33h166v33h-66v37h66v33zM267 566h-100v-104h166v34h-66v70zM233 532v-36h-33v36h33zM333 435h-166v-33h66v-37h-66v-33h100v70h66v33zM333 375h-33v-66h-133v-34h166v100zM333 253h-100v-56h34v23h33v-47
h-100v80h-33v-113h166v113zM333 80h-166v-113h166v113zM300 47v-47h-100v47h100zM333 -56h-166v-33h70l-70 -47v-33h166v33h-102l70 47h32v33z" />
    <glyph glyph-name="NULL" 
 />
    <glyph glyph-name="nonmarkingreturn" unicode="&#xd;" horiz-adv-x="280" 
 />
    <glyph glyph-name="space" unicode=" " horiz-adv-x="280" 
 />
    <glyph glyph-name="A" unicode="A" horiz-adv-x="728" 
d="M-36 32h37q41 0 73.5 21t50.5 51l411 608h24v-637q2 -25 14 -34t34 -9h56l-8 -32h-296l8 32h62q21 0 31.5 9t10.5 37v166h-209l-68 -100q-34 -49 -34 -78q0 -34 40 -34h55l-8 -32h-292zM285 276h187v276z" />
    <glyph glyph-name="Aacute" unicode="&#xc1;" horiz-adv-x="728" 
d="M538 774l106 123q13 15 24 21t24 6q28 0 28 -29q0 -27 -32 -46l-138 -87zM-36 32h37q41 0 73.5 21t50.5 51l411 608h24v-637q2 -25 14 -34t34 -9h56l-8 -32h-296l8 32h62q21 0 31.5 9t10.5 37v166h-209l-68 -100q-34 -49 -34 -78q0 -34 40 -34h55l-8 -32h-292zM285 276
h187v276z" />
    <glyph glyph-name="Abreve" unicode="&#x102;" horiz-adv-x="728" 
d="M475.5 796q-27.5 34 -27.5 81q0 19 5 39h28v-8q0 -41 23 -70.5t71 -29.5q51 0 91.5 33t60.5 75h28q-9 -33 -35.5 -69t-67.5 -60.5t-90 -24.5q-59 0 -86.5 34zM-36 32h37q41 0 73.5 21t50.5 51l411 608h24v-637q2 -25 14 -34t34 -9h56l-8 -32h-296l8 32h62q21 0 31.5 9
t10.5 37v166h-209l-68 -100q-34 -49 -34 -78q0 -34 40 -34h55l-8 -32h-292zM285 276h187v276z" />
    <glyph glyph-name="uni1EAE" unicode="&#x1eae;" horiz-adv-x="728" 
d="M570 917l106 123q13 15 24 21t24 6q15 0 21.5 -8.5t6.5 -20.5q0 -26 -32 -46l-138 -87zM479.5 795q-25.5 33 -25.5 76q0 13 4 31h22q-1 -5 -1 -16q0 -35 20.5 -59.5t69.5 -24.5q55 0 91 30.5t52 69.5h22q-7 -27 -31.5 -60t-62.5 -56.5t-82 -23.5q-53 0 -78.5 33zM-36 32
h37q41 0 73.5 21t50.5 51l411 608h24v-637q2 -25 14 -34t34 -9h56l-8 -32h-296l8 32h62q21 0 31.5 9t10.5 37v166h-209l-68 -100q-34 -49 -34 -78q0 -34 40 -34h55l-8 -32h-292zM285 276h187v276z" />
    <glyph glyph-name="uni1EB6" unicode="&#x1eb6;" horiz-adv-x="728" 
d="M-36 32h37q41 0 73.5 21t50.5 51l411 608h24v-637q2 -25 14 -34t34 -9h56l-8 -32h-296l8 32h62q21 0 31.5 9t10.5 37v166h-209l-68 -100q-34 -49 -34 -78q0 -34 40 -34h55l-8 -32h-292zM285 276h187v276zM226.5 -187.5q-14.5 14.5 -14.5 37.5q0 22 14.5 37t37.5 15
q22 0 37 -15t15 -37q0 -23 -15 -37.5t-37 -14.5q-23 0 -37.5 14.5zM474.5 796q-27.5 34 -27.5 81q0 19 5 39h28v-8q0 -41 23 -70.5t71 -29.5q51 0 91.5 33t60.5 75h28q-9 -33 -35.5 -69t-67.5 -60.5t-90 -24.5q-59 0 -86.5 34z" />
    <glyph glyph-name="uni1EB0" unicode="&#x1eb0;" horiz-adv-x="728" 
d="M-36 32h37q41 0 73.5 21t50.5 51l411 608h24v-637q2 -25 14 -34t34 -9h56l-8 -32h-296l8 32h62q21 0 31.5 9t10.5 37v166h-209l-68 -100q-34 -49 -34 -78q0 -34 40 -34h55l-8 -32h-292zM285 276h187v276zM493.5 827q-25.5 33 -25.5 76q0 13 4 31h22q-1 -5 -1 -16
q0 -35 20.5 -59.5t69.5 -24.5q55 0 91 30.5t52 69.5h22q-7 -27 -31.5 -60t-62.5 -56.5t-82 -23.5q-53 0 -78.5 33zM514 1028q-14 16 -14 35q0 12 8 24t28 12q15 0 24 -9t16 -30l40 -119l-17 -10z" />
    <glyph glyph-name="uni1EB2" unicode="&#x1eb2;" horiz-adv-x="728" 
d="M-36 32h37q41 0 73.5 21t50.5 51l411 608h24v-637q2 -25 14 -34t34 -9h56l-8 -32h-296l8 32h62q21 0 31.5 9t10.5 37v166h-209l-68 -100q-34 -49 -34 -78q0 -34 40 -34h55l-8 -32h-292zM285 276h187v276zM493.5 827q-25.5 33 -25.5 76q0 13 4 31h22q-1 -5 -1 -16
q0 -35 20.5 -59.5t69.5 -24.5q55 0 91 30.5t52 69.5h22q-7 -27 -31.5 -60t-62.5 -56.5t-82 -23.5q-53 0 -78.5 33zM627 953q32 23 39 58q2 10 2 15q0 18 -11 29.5t-34 11.5q-21 0 -40 -11t-21 -25q-3 -10 0 -13q1 -1 2.5 -2t2.5 0q1 -1 4 1q3 1 4.5 0.5t3.5 0.5
q14 -2 14 -15q0 -11 -8.5 -18.5t-22.5 -7.5q-10 0 -17.5 8t-7.5 22q0 31 29.5 52.5t63.5 22.5q33 -1 55.5 -16t22.5 -42q0 -33 -22.5 -54.5t-64.5 -47.5h-35z" />
    <glyph glyph-name="uni1EB4" unicode="&#x1eb4;" horiz-adv-x="728" 
d="M-36 32h37q41 0 73.5 21t50.5 51l411 608h24v-637q2 -25 14 -34t34 -9h56l-8 -32h-296l8 32h62q21 0 31.5 9t10.5 37v166h-209l-68 -100q-34 -49 -34 -78q0 -34 40 -34h55l-8 -32h-292zM285 276h187v276zM493.5 827q-25.5 33 -25.5 76q0 13 4 31h22q-1 -5 -1 -16
q0 -35 20.5 -59.5t69.5 -24.5q55 0 91 30.5t52 69.5h22q-7 -27 -31.5 -60t-62.5 -56.5t-82 -23.5q-53 0 -78.5 33zM512 1033.5q21 27.5 59 27.5q22 0 38.5 -5.5t38.5 -16.5q20 -9 32.5 -13.5t28.5 -4.5q17 0 25 10t11 30h22q0 -39 -21 -66.5t-59 -27.5q-22 0 -38.5 5.5
t-38.5 16.5q-20 9 -32.5 13.5t-28.5 4.5q-17 0 -25 -10t-11 -30h-22q0 39 21 66.5z" />
    <glyph glyph-name="Acircumflex" unicode="&#xc2;" horiz-adv-x="728" 
d="M396 778q106 52 176 142h40q23 -90 100 -142l-14 -16q-24 9 -61.5 38.5t-60.5 57.5q-39 -28 -92.5 -57.5t-81.5 -38.5zM-36 32h37q41 0 73.5 21t50.5 51l411 608h24v-637q2 -25 14 -34t34 -9h56l-8 -32h-296l8 32h62q21 0 31.5 9t10.5 37v166h-209l-68 -100
q-34 -49 -34 -78q0 -34 40 -34h55l-8 -32h-292zM285 276h187v276z" />
    <glyph glyph-name="uni1EA4" unicode="&#x1ea4;" horiz-adv-x="728" 
d="M-36 32h37q41 0 73.5 21t50.5 51l411 608h24v-637q2 -25 14 -34t34 -9h56l-8 -32h-296l8 32h62q21 0 31.5 9t10.5 37v166h-209l-68 -100q-34 -49 -34 -78q0 -34 40 -34h55l-8 -32h-292zM285 276h187v276zM430 789q89 47 152 151h40q9 -104 70 -151l-12 -13q-60 36 -97 92
q-70 -57 -147 -92zM679 868l106 123q13 15 24 21t24 6q15 0 21.5 -8.5t6.5 -20.5q0 -26 -32 -46l-138 -87z" />
    <glyph glyph-name="uni1EAC" unicode="&#x1eac;" horiz-adv-x="728" 
d="M-36 32h37q41 0 73.5 21t50.5 51l411 608h24v-637q2 -25 14 -34t34 -9h56l-8 -32h-296l8 32h62q21 0 31.5 9t10.5 37v166h-209l-68 -100q-34 -49 -34 -78q0 -34 40 -34h55l-8 -32h-292zM285 276h187v276zM226.5 -187.5q-14.5 14.5 -14.5 37.5q0 22 14.5 37t37.5 15
q22 0 37 -15t15 -37q0 -23 -15 -37.5t-37 -14.5q-23 0 -37.5 14.5zM390 778q106 52 176 142h40q23 -90 100 -142l-14 -16q-24 9 -61.5 38.5t-60.5 57.5q-39 -28 -92.5 -57.5t-81.5 -38.5z" />
    <glyph glyph-name="uni1EA6" unicode="&#x1ea6;" horiz-adv-x="728" 
d="M-36 32h37q41 0 73.5 21t50.5 51l411 608h24v-637q2 -25 14 -34t34 -9h56l-8 -32h-296l8 32h62q21 0 31.5 9t10.5 37v166h-209l-68 -100q-34 -49 -34 -78q0 -34 40 -34h55l-8 -32h-292zM285 276h187v276zM430 789q89 47 152 151h40q9 -104 70 -151l-12 -13q-60 36 -97 92
q-70 -57 -147 -92zM616 1004q-14 16 -14 35q0 12 8 24t28 12q15 0 24 -9t16 -30l40 -119l-17 -10z" />
    <glyph glyph-name="uni1EA8" unicode="&#x1ea8;" horiz-adv-x="728" 
d="M-36 32h37q41 0 73.5 21t50.5 51l411 608h24v-637q2 -25 14 -34t34 -9h56l-8 -32h-296l8 32h62q21 0 31.5 9t10.5 37v166h-209l-68 -100q-34 -49 -34 -78q0 -34 40 -34h55l-8 -32h-292zM285 276h187v276zM430 789q89 47 152 151h40q9 -104 70 -151l-12 -13q-60 36 -97 92
q-70 -57 -147 -92zM702 956q32 23 39 58q2 10 2 15q0 18 -11 29.5t-34 11.5q-21 0 -40 -11t-21 -25q-3 -10 0 -13q1 -1 2.5 -2t2.5 0q1 -1 4 1q3 1 4.5 0.5t3.5 0.5q14 -2 14 -15q0 -11 -8.5 -18.5t-22.5 -7.5q-10 0 -17.5 8t-7.5 22q0 31 29.5 52.5t63.5 22.5
q33 -1 55.5 -16t22.5 -42q0 -33 -22.5 -54.5t-64.5 -47.5h-35z" />
    <glyph glyph-name="uni1EAA" unicode="&#x1eaa;" horiz-adv-x="728" 
d="M-36 32h37q41 0 73.5 21t50.5 51l411 608h24v-637q2 -25 14 -34t34 -9h56l-8 -32h-296l8 32h62q21 0 31.5 9t10.5 37v166h-209l-68 -100q-34 -49 -34 -78q0 -34 40 -34h55l-8 -32h-292zM285 276h187v276zM430 789q89 47 152 151h40q9 -104 70 -151l-12 -13q-60 36 -97 92
q-70 -57 -147 -92zM505 1022.5q21 27.5 59 27.5q22 0 38.5 -5.5t38.5 -16.5q20 -9 32.5 -13.5t28.5 -4.5q17 0 25 10t11 30h22q0 -39 -21 -66.5t-59 -27.5q-22 0 -38.5 5.5t-38.5 16.5q-20 9 -32.5 13.5t-28.5 4.5q-17 0 -25 -10t-11 -30h-22q0 39 21 66.5z" />
    <glyph glyph-name="uni0200" unicode="&#x200;" horiz-adv-x="728" 
d="M385 859q-7 7 -11 17.5t-4 18.5q0 12 7.5 23.5t27.5 11.5q30 0 42 -37l41 -122l-15 -9zM539 859q-7 7 -11 17.5t-4 18.5q0 12 7.5 23.5t27.5 11.5q30 0 42 -37l41 -122l-15 -9zM-36 32h37q41 0 73.5 21t50.5 51l411 608h24v-637q2 -25 14 -34t34 -9h56l-8 -32h-296l8 32
h62q21 0 31.5 9t10.5 37v166h-209l-68 -100q-34 -49 -34 -78q0 -34 40 -34h55l-8 -32h-292zM285 276h187v276z" />
    <glyph glyph-name="Adieresis" unicode="&#xc4;" horiz-adv-x="728" 
d="M439 813q-15 15 -15 37q0 23 15 37.5t37 14.5q23 0 37.5 -14.5t14.5 -37.5q0 -22 -14.5 -37t-37.5 -15q-22 0 -37 15zM643 813q-15 15 -15 37q0 23 15 37.5t37 14.5q23 0 37.5 -14.5t14.5 -37.5q0 -22 -14.5 -37t-37.5 -15q-22 0 -37 15zM-36 32h37q41 0 73.5 21t50.5 51
l411 608h24v-637q2 -25 14 -34t34 -9h56l-8 -32h-296l8 32h62q21 0 31.5 9t10.5 37v166h-209l-68 -100q-34 -49 -34 -78q0 -34 40 -34h55l-8 -32h-292zM285 276h187v276z" />
    <glyph glyph-name="uni1EA0" unicode="&#x1ea0;" horiz-adv-x="728" 
d="M-36 32h37q41 0 73.5 21t50.5 51l411 608h24v-637q2 -25 14 -34t34 -9h56l-8 -32h-296l8 32h62q21 0 31.5 9t10.5 37v166h-209l-68 -100q-34 -49 -34 -78q0 -34 40 -34h55l-8 -32h-292zM285 276h187v276zM226.5 -187.5q-14.5 14.5 -14.5 37.5q0 22 14.5 37t37.5 15
q22 0 37 -15t15 -37q0 -23 -15 -37.5t-37 -14.5q-23 0 -37.5 14.5z" />
    <glyph glyph-name="Agrave" unicode="&#xc0;" horiz-adv-x="728" 
d="M459 859q-7 7 -11 17.5t-4 18.5q0 12 7.5 23.5t27.5 11.5q30 0 42 -37l41 -122l-15 -9zM-36 32h37q41 0 73.5 21t50.5 51l411 608h24v-637q2 -25 14 -34t34 -9h56l-8 -32h-296l8 32h62q21 0 31.5 9t10.5 37v166h-209l-68 -100q-34 -49 -34 -78q0 -34 40 -34h55l-8 -32
h-292zM285 276h187v276z" />
    <glyph glyph-name="uni1EA2" unicode="&#x1ea2;" horiz-adv-x="728" 
d="M-36 32h37q41 0 73.5 21t50.5 51l411 608h24v-637q2 -25 14 -34t34 -9h56l-8 -32h-296l8 32h62q21 0 31.5 9t10.5 37v166h-209l-68 -100q-34 -49 -34 -78q0 -34 40 -34h55l-8 -32h-292zM285 276h187v276zM589 801q32 23 39 58q2 10 2 15q0 18 -11 29.5t-34 11.5
q-21 0 -40 -11t-21 -25q-3 -10 0 -13q1 -1 2.5 -2t2.5 0q1 -1 4 1q3 1 4.5 0.5t3.5 0.5q14 -2 14 -15q0 -11 -8.5 -18.5t-22.5 -7.5q-10 0 -17.5 8t-7.5 22q0 31 29.5 52.5t63.5 22.5q33 -1 55.5 -16t22.5 -42q0 -33 -22.5 -54.5t-64.5 -47.5h-35z" />
    <glyph glyph-name="uni0202" unicode="&#x202;" horiz-adv-x="728" 
d="M412 770q18 31 49 66t68 59.5t71 24.5q33 0 56 -24.5t34.5 -59t13.5 -66.5l-20 -8q-7 46 -33 74t-66 28t-80 -28.5t-73 -73.5zM-36 32h37q41 0 73.5 21t50.5 51l411 608h24v-637q2 -25 14 -34t34 -9h56l-8 -32h-296l8 32h62q21 0 31.5 9t10.5 37v166h-209l-68 -100
q-34 -49 -34 -78q0 -34 40 -34h55l-8 -32h-292zM285 276h187v276z" />
    <glyph glyph-name="Amacron" unicode="&#x100;" horiz-adv-x="728" 
d="M414 822l10 40h314l-10 -40h-314zM-36 32h37q41 0 73.5 21t50.5 51l411 608h24v-637q2 -25 14 -34t34 -9h56l-8 -32h-296l8 32h62q21 0 31.5 9t10.5 37v166h-209l-68 -100q-34 -49 -34 -78q0 -34 40 -34h55l-8 -32h-292zM285 276h187v276z" />
    <glyph glyph-name="Aogonek" unicode="&#x104;" horiz-adv-x="728" 
d="M384 -227.5q-26 19.5 -26 58.5q0 82 127 164l-1 5h-124l8 32h62q21 0 31.5 9t10.5 37v166h-209l-68 -100q-34 -49 -34 -78q0 -34 40 -34h55l-8 -32h-292l8 32h37q41 0 73.5 21t50.5 51l411 608h24v-637q2 -25 14 -34t34 -9h56l-8 -32h-120q-53 -31 -87.5 -70.5
t-34.5 -77.5q0 -18 9 -26.5t23 -8.5q17 0 32 11q11 10 17.5 13t16.5 3q12 0 18.5 -8t6.5 -20q0 -14 -11 -28.5t-32 -24.5t-51 -10q-33 0 -59 19.5zM285 276h187v276z" />
    <glyph glyph-name="Aring" unicode="&#xc5;" horiz-adv-x="728" 
d="M484.5 782.5q-28.5 28.5 -28.5 69.5q0 40 28 68t69 28t69 -28t28 -68q0 -41 -28.5 -69.5t-68.5 -28.5t-68.5 28.5zM605 799q21 21 21 53q0 31 -20.5 51.5t-52.5 20.5t-52.5 -20.5t-20.5 -51.5q0 -32 21 -53t52 -21t52 21zM-36 32h37q41 0 73.5 21t50.5 51l411 608h24
v-637q2 -25 14 -34t34 -9h56l-8 -32h-296l8 32h62q21 0 31.5 9t10.5 37v166h-209l-68 -100q-34 -49 -34 -78q0 -34 40 -34h55l-8 -32h-292zM285 276h187v276z" />
    <glyph glyph-name="Aringacute" unicode="&#x1fa;" horiz-adv-x="728" 
d="M580 877l60 57q18 18 35 18q7 0 12 -5.5t5 -13.5q0 -10 -7.5 -16.5t-21.5 -13.5l-77 -35zM508 749q-24 17 -24 47t24 47t60 17t60 -17t24 -47t-24 -47t-60 -17t-60 17zM610.5 765q17.5 9 17.5 31t-17.5 31t-42.5 9t-42.5 -9t-17.5 -31t17.5 -31t42.5 -9t42.5 9zM-36 32
h37q41 0 73.5 21t50.5 51l411 608h24v-637q2 -25 14 -34t34 -9h56l-8 -32h-296l8 32h62q21 0 31.5 9t10.5 37v166h-209l-68 -100q-34 -49 -34 -78q0 -34 40 -34h55l-8 -32h-292zM285 276h187v276z" />
    <glyph glyph-name="Atilde" unicode="&#xc3;" horiz-adv-x="728" 
d="M416 810q3 38 25.5 65t60.5 27q29 0 90 -21q49 -17 72 -17q18 0 29 11t15 31l20 -2q-3 -38 -25.5 -65t-60.5 -27q-29 0 -90 21q-49 17 -72 17q-18 0 -29 -11t-15 -31zM-36 32h37q41 0 73.5 21t50.5 51l411 608h24v-637q2 -25 14 -34t34 -9h56l-8 -32h-296l8 32h62
q21 0 31.5 9t10.5 37v166h-209l-68 -100q-34 -49 -34 -78q0 -34 40 -34h55l-8 -32h-292zM285 276h187v276z" />
    <glyph glyph-name="AE" unicode="&#xc6;" horiz-adv-x="1010" 
d="M-36 32h39q38 0 67 20t54 52l390 487q5 7 20 24t22 29t7 21q0 15 -23 15h-46l8 32h552l-46 -228h-25q1 4 2 16.5t1 31.5q0 84 -27 116t-81 32h-164q-14 0 -22 -6.5t-12 -20.5l-72 -269h108q39 0 63 21.5t35.5 50.5t22.5 70h25l-87 -324h-25q10 44 10 75q0 35 -13.5 55
t-46.5 20h-101l-80 -293l-2 -12q0 -15 21 -15h186q26 0 61 12.5t63 39.5q28 28 51.5 68.5t37.5 73.5t17 42h24l-84 -268h-584l8 32h75q28 0 35 27l50 186h-197l-81 -101q-2 -3 -13 -18t-19.5 -32.5t-8.5 -32.5q0 -13 8.5 -21t27.5 -8h48l-8 -32h-279zM305 277h181l93 343z
" />
    <glyph glyph-name="AEacute" unicode="&#x1fc;" horiz-adv-x="1010" 
d="M752 774l106 123q13 15 24 21t24 6q28 0 28 -29q0 -27 -32 -46l-138 -87zM-36 32h39q38 0 67 20t54 52l390 487q5 7 20 24t22 29t7 21q0 15 -23 15h-46l8 32h552l-46 -228h-25q1 4 2 16.5t1 31.5q0 84 -27 116t-81 32h-164q-14 0 -22 -6.5t-12 -20.5l-72 -269h108
q39 0 63 21.5t35.5 50.5t22.5 70h25l-87 -324h-25q10 44 10 75q0 35 -13.5 55t-46.5 20h-101l-80 -293l-2 -12q0 -15 21 -15h186q26 0 61 12.5t63 39.5q28 28 51.5 68.5t37.5 73.5t17 42h24l-84 -268h-584l8 32h75q28 0 35 27l50 186h-197l-81 -101q-2 -3 -13 -18
t-19.5 -32.5t-8.5 -32.5q0 -13 8.5 -21t27.5 -8h48l-8 -32h-279zM305 277h181l93 343z" />
    <glyph glyph-name="B" unicode="B" horiz-adv-x="690" 
d="M-2 32h76q27 0 34 27l161 594q2 8 2 12q0 15 -21 15h-76l8 32h348q47 0 87 -17.5t64.5 -52t24.5 -83.5q0 -56 -35 -95t-85.5 -60t-100.5 -28l-1 -2q42 -2 79 -22t59 -54t22 -78q0 -65 -43 -115.5t-108.5 -77.5t-128.5 -27h-374zM424 394q69 0 110.5 26.5t58.5 64.5t17 76
q0 119 -111 119h-105q-27 0 -34 -27l-70 -259h134zM381 32q47 0 83 27.5t55 70t19 85.5q0 68 -30 107.5t-89 39.5h-138l-82 -303q-2 -8 -2 -11q0 -16 21 -16h163z" />
    <glyph glyph-name="C" unicode="C" horiz-adv-x="670" 
d="M203.5 11q-48.5 29 -80 90t-31.5 151q0 115 56 226t144.5 181.5t181.5 70.5q37 0 65 -14t46 -32l18 -18q10 -10 15.5 -13.5t13.5 -3.5q19 0 30 24.5t15 48.5h23l-64 -306h-23q1 20 1 63q0 35 -9.5 85t-33.5 83q-38 51 -101 51q-59 0 -108 -36.5t-96 -125.5
q-33 -62 -55.5 -153.5t-22.5 -186.5q0 -77 19.5 -117t48 -52.5t65.5 -12.5q56 0 108 32t91.5 84t60.5 112l31 -11q-36 -106 -113.5 -177.5t-194.5 -71.5q-52 0 -100.5 29z" />
    <glyph glyph-name="Cacute" unicode="&#x106;" horiz-adv-x="670" 
d="M476 774l106 123q13 15 24 21t24 6q28 0 28 -29q0 -27 -32 -46l-138 -87zM203.5 11q-48.5 29 -80 90t-31.5 151q0 115 56 226t144.5 181.5t181.5 70.5q37 0 65 -14t46 -32l18 -18q10 -10 15.5 -13.5t13.5 -3.5q19 0 30 24.5t15 48.5h23l-64 -306h-23q1 20 1 63
q0 35 -9.5 85t-33.5 83q-38 51 -101 51q-59 0 -108 -36.5t-96 -125.5q-33 -62 -55.5 -153.5t-22.5 -186.5q0 -77 19.5 -117t48 -52.5t65.5 -12.5q56 0 108 32t91.5 84t60.5 112l31 -11q-36 -106 -113.5 -177.5t-194.5 -71.5q-52 0 -100.5 29z" />
    <glyph glyph-name="Ccaron" unicode="&#x10c;" horiz-adv-x="670" 
d="M467 762l-101 144l15 14l122 -96l174 96l9 -14l-179 -144h-40zM203.5 11q-48.5 29 -80 90t-31.5 151q0 115 56 226t144.5 181.5t181.5 70.5q37 0 65 -14t46 -32l18 -18q10 -10 15.5 -13.5t13.5 -3.5q19 0 30 24.5t15 48.5h23l-64 -306h-23q1 20 1 63q0 35 -9.5 85
t-33.5 83q-38 51 -101 51q-59 0 -108 -36.5t-96 -125.5q-33 -62 -55.5 -153.5t-22.5 -186.5q0 -77 19.5 -117t48 -52.5t65.5 -12.5q56 0 108 32t91.5 84t60.5 112l31 -11q-36 -106 -113.5 -177.5t-194.5 -71.5q-52 0 -100.5 29z" />
    <glyph glyph-name="Ccedilla" unicode="&#xc7;" horiz-adv-x="670" 
d="M161.5 -217.5q-23.5 20.5 -23.5 53.5q0 20 12.5 35t30.5 15q15 0 23.5 -7.5t8.5 -21.5q0 -25 -24 -33q-8 -4 -8 -13q0 -12 8.5 -18.5t31.5 -6.5q30 0 52 22.5t22 52.5q0 28 -14 51q-18 29 -18 43q0 15 7 30q-47 9 -87 40.5t-65.5 88.5t-25.5 138q0 115 56 226
t144.5 181.5t181.5 70.5q37 0 65 -14t46 -32l18 -18q11 -10 16 -13.5t13 -3.5q15 0 24 12.5t13.5 30t7.5 30.5h23l-64 -306h-23l1 63q0 35 -9.5 85t-33.5 83q-38 51 -101 51q-59 0 -108 -36.5t-96 -125.5q-33 -62 -55.5 -153.5t-22.5 -186.5q0 -77 19.5 -117t48 -52.5
t65.5 -12.5q56 0 108 32t91.5 84t60.5 112l31 -11q-36 -106 -113.5 -177.5t-194.5 -71.5h-4l-2 -3q-5 -8 -5 -17t4 -16t17 -16q18 -14 28 -27.5t10 -33.5q0 -46 -40 -76.5t-95 -30.5q-32 0 -55.5 20.5z" />
    <glyph glyph-name="uni1E08" unicode="&#x1e08;" horiz-adv-x="670" 
d="M476 774l106 123q13 15 24 21t24 6q28 0 28 -29q0 -27 -32 -46l-138 -87zM161.5 -217.5q-23.5 20.5 -23.5 53.5q0 20 12.5 35t30.5 15q15 0 23.5 -7.5t8.5 -21.5q0 -25 -24 -33q-8 -4 -8 -13q0 -12 8.5 -18.5t31.5 -6.5q30 0 52 22.5t22 52.5q0 28 -14 51q-18 29 -18 43
q0 15 7 30q-47 9 -87 40.5t-65.5 88.5t-25.5 138q0 115 56 226t144.5 181.5t181.5 70.5q37 0 65 -14t46 -32l18 -18q11 -10 16 -13.5t13 -3.5q15 0 24 12.5t13.5 30t7.5 30.5h23l-64 -306h-23l1 63q0 35 -9.5 85t-33.5 83q-38 51 -101 51q-59 0 -108 -36.5t-96 -125.5
q-33 -62 -55.5 -153.5t-22.5 -186.5q0 -77 19.5 -117t48 -52.5t65.5 -12.5q56 0 108 32t91.5 84t60.5 112l31 -11q-36 -106 -113.5 -177.5t-194.5 -71.5h-4l-2 -3q-5 -8 -5 -17t4 -16t17 -16q18 -14 28 -27.5t10 -33.5q0 -46 -40 -76.5t-95 -30.5q-32 0 -55.5 20.5z" />
    <glyph glyph-name="Ccircumflex" unicode="&#x108;" horiz-adv-x="670" 
d="M334 778q106 52 176 142h40q23 -90 100 -142l-14 -16q-24 9 -61.5 38.5t-60.5 57.5q-39 -28 -92.5 -57.5t-81.5 -38.5zM203.5 11q-48.5 29 -80 90t-31.5 151q0 115 56 226t144.5 181.5t181.5 70.5q37 0 65 -14t46 -32l18 -18q10 -10 15.5 -13.5t13.5 -3.5q19 0 30 24.5
t15 48.5h23l-64 -306h-23q1 20 1 63q0 35 -9.5 85t-33.5 83q-38 51 -101 51q-59 0 -108 -36.5t-96 -125.5q-33 -62 -55.5 -153.5t-22.5 -186.5q0 -77 19.5 -117t48 -52.5t65.5 -12.5q56 0 108 32t91.5 84t60.5 112l31 -11q-36 -106 -113.5 -177.5t-194.5 -71.5
q-52 0 -100.5 29z" />
    <glyph glyph-name="Cdotaccent" unicode="&#x10a;" horiz-adv-x="670" 
d="M479 813q-15 15 -15 37q0 23 15 37.5t37 14.5q23 0 37.5 -14.5t14.5 -37.5q0 -22 -14.5 -37t-37.5 -15q-22 0 -37 15zM203.5 11q-48.5 29 -80 90t-31.5 151q0 115 56 226t144.5 181.5t181.5 70.5q37 0 65 -14t46 -32l18 -18q10 -10 15.5 -13.5t13.5 -3.5q19 0 30 24.5
t15 48.5h23l-64 -306h-23q1 20 1 63q0 35 -9.5 85t-33.5 83q-38 51 -101 51q-59 0 -108 -36.5t-96 -125.5q-33 -62 -55.5 -153.5t-22.5 -186.5q0 -77 19.5 -117t48 -52.5t65.5 -12.5q56 0 108 32t91.5 84t60.5 112l31 -11q-36 -106 -113.5 -177.5t-194.5 -71.5
q-52 0 -100.5 29z" />
    <glyph glyph-name="D" unicode="D" horiz-adv-x="750" 
d="M-2 32h76q27 0 34 27l161 594q2 8 2 12q0 15 -21 15h-76l9 32h321q70 0 120 -33t76 -91.5t26 -134.5q0 -79 -29 -160t-81 -145q-54 -67 -124.5 -107.5t-157.5 -40.5h-344zM344 32q130 0 213 148q33 59 53 143.5t20 176.5q0 80 -34.5 130t-113.5 50h-88q-27 0 -34 -27
l-161 -594q-2 -8 -2 -11q0 -16 21 -16h126z" />
    <glyph glyph-name="uni01F1" unicode="&#x1f1;" horiz-adv-x="1430" 
d="M-2 32h76q27 0 34 27l161 594q2 8 2 12q0 15 -21 15h-76l9 32h321q70 0 120 -33t76 -91.5t26 -134.5q0 -79 -29 -160t-81 -145q-54 -67 -124.5 -107.5t-157.5 -40.5h-344zM794 31l508 649h-180q-43 0 -79.5 -18.5t-76.5 -59.5q-25 -26 -42 -53t-25 -46.5t-8 -22.5h-25
l84 232h472l-8 -32l-506 -648h222q72 0 126 47q31 27 56.5 69t42 79.5t16.5 40.5h25l-86 -268h-524zM344 32q130 0 213 148q33 59 53 143.5t20 176.5q0 80 -34.5 130t-113.5 50h-88q-27 0 -34 -27l-161 -594q-2 -8 -2 -11q0 -16 21 -16h126z" />
    <glyph glyph-name="uni01C4" unicode="&#x1c4;" horiz-adv-x="1430" 
d="M1157 762l-101 144l15 14l122 -96l174 96l9 -14l-179 -144h-40zM-2 32h76q27 0 34 27l161 594q2 8 2 12q0 15 -21 15h-76l9 32h321q70 0 120 -33t76 -91.5t26 -134.5q0 -79 -29 -160t-81 -145q-54 -67 -124.5 -107.5t-157.5 -40.5h-344zM794 31l508 649h-180
q-43 0 -79.5 -18.5t-76.5 -59.5q-25 -26 -42 -53t-25 -46.5t-8 -22.5h-25l84 232h472l-8 -32l-506 -648h222q72 0 126 47q31 27 56.5 69t42 79.5t16.5 40.5h25l-86 -268h-524zM344 32q130 0 213 148q33 59 53 143.5t20 176.5q0 80 -34.5 130t-113.5 50h-88q-27 0 -34 -27
l-161 -594q-2 -8 -2 -11q0 -16 21 -16h126z" />
    <glyph glyph-name="Eth" unicode="&#xd0;" horiz-adv-x="748" 
d="M-2 32h76q27 0 34 27l80 297h-112l8 36h114l71 261q2 8 2 12q0 15 -21 15h-76l9 32h321q70 0 120 -33t76 -91.5t26 -134.5q0 -79 -29 -160t-81 -145q-54 -67 -124.5 -107.5t-157.5 -40.5h-344zM344 32q130 0 213 148q33 59 53 143.5t20 176.5q0 80 -34.5 130t-113.5 50
h-88q-27 0 -34 -27l-71 -261h131l-8 -36h-132l-81 -297q-2 -8 -2 -11q0 -16 21 -16h126z" />
    <glyph glyph-name="Dcaron" unicode="&#x10e;" horiz-adv-x="750" 
d="M437 762l-101 144l15 14l122 -96l174 96l9 -14l-179 -144h-40zM-2 32h76q27 0 34 27l161 594q2 8 2 12q0 15 -21 15h-76l9 32h321q70 0 120 -33t76 -91.5t26 -134.5q0 -79 -29 -160t-81 -145q-54 -67 -124.5 -107.5t-157.5 -40.5h-344zM344 32q130 0 213 148
q33 59 53 143.5t20 176.5q0 80 -34.5 130t-113.5 50h-88q-27 0 -34 -27l-161 -594q-2 -8 -2 -11q0 -16 21 -16h126z" />
    <glyph glyph-name="Dcroat" unicode="&#x110;" horiz-adv-x="748" 
d="M-2 32h76q27 0 34 27l80 297h-112l8 36h114l71 261q2 8 2 12q0 15 -21 15h-76l9 32h321q70 0 120 -33t76 -91.5t26 -134.5q0 -79 -29 -160t-81 -145q-54 -67 -124.5 -107.5t-157.5 -40.5h-344zM344 32q130 0 213 148q33 59 53 143.5t20 176.5q0 80 -34.5 130t-113.5 50
h-88q-27 0 -34 -27l-71 -261h131l-8 -36h-132l-81 -297q-2 -8 -2 -11q0 -16 21 -16h126z" />
    <glyph glyph-name="uni1E0C" unicode="&#x1e0c;" horiz-adv-x="750" 
d="M-2 32h76q27 0 34 27l161 594q2 8 2 12q0 15 -21 15h-76l9 32h321q70 0 120 -33t76 -91.5t26 -134.5q0 -79 -29 -160t-81 -145q-54 -67 -124.5 -107.5t-157.5 -40.5h-344zM344 32q130 0 213 148q33 59 53 143.5t20 176.5q0 80 -34.5 130t-113.5 50h-88q-27 0 -34 -27
l-161 -594q-2 -8 -2 -11q0 -16 21 -16h126zM151 -187.5q-15 14.5 -15 37.5q0 22 15 37t37 15q23 0 37.5 -15t14.5 -37q0 -23 -14.5 -37.5t-37.5 -14.5q-22 0 -37 14.5z" />
    <glyph glyph-name="uni1E0E" unicode="&#x1e0e;" horiz-adv-x="750" 
d="M-2 32h76q27 0 34 27l161 594q2 8 2 12q0 15 -21 15h-76l9 32h321q70 0 120 -33t76 -91.5t26 -134.5q0 -79 -29 -160t-81 -145q-54 -67 -124.5 -107.5t-157.5 -40.5h-344zM344 32q130 0 213 148q33 59 53 143.5t20 176.5q0 80 -34.5 130t-113.5 50h-88q-27 0 -34 -27
l-161 -594q-2 -8 -2 -11q0 -16 21 -16h126zM28 -168l10 40h314l-10 -40h-314z" />
    <glyph glyph-name="uni01F2" unicode="&#x1f2;" horiz-adv-x="1190" 
d="M-2 32h76q27 0 34 27l161 594q2 8 2 12q0 15 -21 15h-76l9 32h321q70 0 120 -33t76 -91.5t26 -134.5q0 -79 -29 -160t-81 -145q-54 -67 -124.5 -107.5t-157.5 -40.5h-344zM344 32q130 0 213 148q33 59 53 143.5t20 176.5q0 80 -34.5 130t-113.5 50h-88q-27 0 -34 -27
l-161 -594q-2 -8 -2 -11q0 -16 21 -16h126zM786 -0.5q-10 11.5 -10 30.5q0 70 52 124.5t119 82.5q88 36 124.5 60t49.5 55l-2 4q-27 -20 -51 -20q-21 0 -35.5 6.5t-31.5 19.5q-14 11 -24.5 16.5t-24.5 5.5q-43 0 -67.5 -29t-40.5 -69l-16 7q15 56 51.5 109.5t86.5 53.5
q27 0 47 -15.5t38 -41.5q13 -17 21.5 -25t17.5 -8q14 0 21.5 5t7.5 13q0 5 -1.5 8t-7.5 6t-11 10t-5 16q0 14 7 23t21 9q19 0 28.5 -13.5t9.5 -34.5q0 -33 -23 -70t-62.5 -69.5t-85.5 -52.5q-70 -30 -102.5 -46.5t-46 -30t-17.5 -32.5q42 -11 76 -29q25 -13 46.5 -19.5
t48.5 -6.5q45 0 73.5 36t43.5 83l19 -8q-22 -74 -56 -124.5t-91 -50.5q-37 0 -62 15.5t-48 42.5q-13 15 -22.5 22.5t-19.5 7.5q-21 0 -21 -16q0 -11 15 -16q17 -7 17 -25q0 -13 -7.5 -22t-22.5 -9q-16 0 -26 11.5z" />
    <glyph glyph-name="uni01C5" unicode="&#x1c5;" horiz-adv-x="1190" 
d="M-2 32h76q27 0 34 27l161 594q2 8 2 12q0 15 -21 15h-76l9 32h321q70 0 120 -33t76 -91.5t26 -134.5q0 -79 -29 -160t-81 -145q-54 -67 -124.5 -107.5t-157.5 -40.5h-344zM344 32q130 0 213 148q33 59 53 143.5t20 176.5q0 80 -34.5 130t-113.5 50h-88q-27 0 -34 -27
l-161 -594q-2 -8 -2 -11q0 -16 21 -16h126zM1023 508l-71 153l16 11l92 -100l146 100l10 -11l-153 -153h-40zM786 -0.5q-10 11.5 -10 30.5q0 70 52 124.5t119 82.5q88 36 124.5 60t49.5 55l-2 4q-27 -20 -51 -20q-21 0 -35.5 6.5t-31.5 19.5q-14 11 -24.5 16.5t-24.5 5.5
q-43 0 -67.5 -29t-40.5 -69l-16 7q15 56 51.5 109.5t86.5 53.5q27 0 47 -15.5t38 -41.5q13 -17 21.5 -25t17.5 -8q14 0 21.5 5t7.5 13q0 5 -1.5 8t-7.5 6t-11 10t-5 16q0 14 7 23t21 9q19 0 28.5 -13.5t9.5 -34.5q0 -33 -23 -70t-62.5 -69.5t-85.5 -52.5
q-70 -30 -102.5 -46.5t-46 -30t-17.5 -32.5q42 -11 76 -29q25 -13 46.5 -19.5t48.5 -6.5q45 0 73.5 36t43.5 83l19 -8q-22 -74 -56 -124.5t-91 -50.5q-37 0 -62 15.5t-48 42.5q-13 15 -22.5 22.5t-19.5 7.5q-21 0 -21 -16q0 -11 15 -16q17 -7 17 -25q0 -13 -7.5 -22
t-22.5 -9q-16 0 -26 11.5z" />
    <glyph glyph-name="E" unicode="E" horiz-adv-x="700" 
d="M-2 32h76q27 0 34 27l161 594q2 8 2 12q0 15 -21 15h-76l8 32h552l-46 -228h-25q1 4 2 16.5t1 31.5q0 84 -27 116t-81 32h-164q-27 0 -34 -27l-73 -269h108q39 0 63 21.5t35.5 50.5t22.5 70h25l-86 -324h-25q10 44 10 75q0 35 -13.5 55t-46.5 20h-101l-80 -293
q-2 -8 -2 -11q0 -16 21 -16h186q26 0 61 12.5t63 39.5q28 28 51.5 68.5t37.5 73.5t17 42h24l-84 -268h-584z" />
    <glyph glyph-name="Eacute" unicode="&#xc9;" horiz-adv-x="700" 
d="M466 774l106 123q13 15 24 21t24 6q28 0 28 -29q0 -27 -32 -46l-138 -87zM-2 32h76q27 0 34 27l161 594q2 8 2 12q0 15 -21 15h-76l8 32h552l-46 -228h-25q1 4 2 16.5t1 31.5q0 84 -27 116t-81 32h-164q-27 0 -34 -27l-73 -269h108q39 0 63 21.5t35.5 50.5t22.5 70h25
l-86 -324h-25q10 44 10 75q0 35 -13.5 55t-46.5 20h-101l-80 -293q-2 -8 -2 -11q0 -16 21 -16h186q26 0 61 12.5t63 39.5q28 28 51.5 68.5t37.5 73.5t17 42h24l-84 -268h-584z" />
    <glyph glyph-name="Ebreve" unicode="&#x114;" horiz-adv-x="700" 
d="M403.5 796q-27.5 34 -27.5 81q0 19 5 39h28v-8q0 -41 23 -70.5t71 -29.5q51 0 91.5 33t60.5 75h28q-9 -33 -35.5 -69t-67.5 -60.5t-90 -24.5q-59 0 -86.5 34zM-2 32h76q27 0 34 27l161 594q2 8 2 12q0 15 -21 15h-76l8 32h552l-46 -228h-25q1 4 2 16.5t1 31.5
q0 84 -27 116t-81 32h-164q-27 0 -34 -27l-73 -269h108q39 0 63 21.5t35.5 50.5t22.5 70h25l-86 -324h-25q10 44 10 75q0 35 -13.5 55t-46.5 20h-101l-80 -293q-2 -8 -2 -11q0 -16 21 -16h186q26 0 61 12.5t63 39.5q28 28 51.5 68.5t37.5 73.5t17 42h24l-84 -268h-584z" />
    <glyph glyph-name="Ecaron" unicode="&#x11a;" horiz-adv-x="700" 
d="M457 762l-101 144l15 14l122 -96l174 96l9 -14l-179 -144h-40zM-2 32h76q27 0 34 27l161 594q2 8 2 12q0 15 -21 15h-76l8 32h552l-46 -228h-25q1 4 2 16.5t1 31.5q0 84 -27 116t-81 32h-164q-27 0 -34 -27l-73 -269h108q39 0 63 21.5t35.5 50.5t22.5 70h25l-86 -324h-25
q10 44 10 75q0 35 -13.5 55t-46.5 20h-101l-80 -293q-2 -8 -2 -11q0 -16 21 -16h186q26 0 61 12.5t63 39.5q28 28 51.5 68.5t37.5 73.5t17 42h24l-84 -268h-584z" />
    <glyph glyph-name="uni1E1C" unicode="&#x1e1c;" horiz-adv-x="700" 
d="M403.5 796q-27.5 34 -27.5 81q0 19 5 39h28v-8q0 -41 23 -70.5t71 -29.5q51 0 91.5 33t60.5 75h28q-9 -33 -35.5 -69t-67.5 -60.5t-90 -24.5q-59 0 -86.5 34zM193.5 -217.5q-23.5 20.5 -23.5 53.5q0 20 12.5 35t30.5 15q15 0 23.5 -7.5t8.5 -21.5q0 -25 -24 -33
q-8 -4 -8 -13q0 -12 8.5 -18.5t31.5 -6.5q30 0 52 22.5t22 52.5q0 28 -14 51q-18 29 -18 43q0 17 9 34l7 11h-321l8 32h76q27 0 34 27l161 594q2 8 2 12q0 15 -21 15h-76l8 32h552l-46 -228h-25q1 4 2 16.5t1 31.5q0 84 -27 116t-81 32h-164q-27 0 -34 -27l-73 -269h108
q39 0 63 21.5t35.5 50.5t22.5 70h25l-86 -324h-25q10 44 10 75q0 35 -13.5 55t-46.5 20h-101l-80 -293q-2 -8 -2 -11q0 -16 21 -16h186q26 0 61 12.5t63 39.5q28 28 51.5 68.5t37.5 73.5t17 42h24l-84 -268h-232l-12 -21q-5 -8 -5 -17t4 -16t17 -16q18 -14 28 -27.5
t10 -33.5q0 -46 -40 -76.5t-95 -30.5q-32 0 -55.5 20.5z" />
    <glyph glyph-name="Ecircumflex" unicode="&#xca;" horiz-adv-x="700" 
d="M324 778q106 52 176 142h40q23 -90 100 -142l-14 -16q-24 9 -61.5 38.5t-60.5 57.5q-39 -28 -92.5 -57.5t-81.5 -38.5zM-2 32h76q27 0 34 27l161 594q2 8 2 12q0 15 -21 15h-76l8 32h552l-46 -228h-25q1 4 2 16.5t1 31.5q0 84 -27 116t-81 32h-164q-27 0 -34 -27
l-73 -269h108q39 0 63 21.5t35.5 50.5t22.5 70h25l-86 -324h-25q10 44 10 75q0 35 -13.5 55t-46.5 20h-101l-80 -293q-2 -8 -2 -11q0 -16 21 -16h186q26 0 61 12.5t63 39.5q28 28 51.5 68.5t37.5 73.5t17 42h24l-84 -268h-584z" />
    <glyph glyph-name="uni1EBE" unicode="&#x1ebe;" horiz-adv-x="700" 
d="M-2 32h76q27 0 34 27l161 594q2 8 2 12q0 15 -21 15h-76l8 32h552l-46 -228h-25q1 4 2 16.5t1 31.5q0 84 -27 116t-81 32h-164q-27 0 -34 -27l-73 -269h108q39 0 63 21.5t35.5 50.5t22.5 70h25l-86 -324h-25q10 44 10 75q0 35 -13.5 55t-46.5 20h-101l-80 -293
q-2 -8 -2 -11q0 -16 21 -16h186q26 0 61 12.5t63 39.5q28 28 51.5 68.5t37.5 73.5t17 42h24l-84 -268h-584zM365 789q89 47 152 151h40q9 -104 70 -151l-12 -13q-60 36 -97 92q-70 -57 -147 -92zM614 868l106 123q13 15 24 21t24 6q15 0 21.5 -8.5t6.5 -20.5q0 -26 -32 -46
l-138 -87z" />
    <glyph glyph-name="uni1EC6" unicode="&#x1ec6;" horiz-adv-x="700" 
d="M-2 32h76q27 0 34 27l161 594q2 8 2 12q0 15 -21 15h-76l8 32h552l-46 -228h-25q1 4 2 16.5t1 31.5q0 84 -27 116t-81 32h-164q-27 0 -34 -27l-73 -269h108q39 0 63 21.5t35.5 50.5t22.5 70h25l-86 -324h-25q10 44 10 75q0 35 -13.5 55t-46.5 20h-101l-80 -293
q-2 -8 -2 -11q0 -16 21 -16h186q26 0 61 12.5t63 39.5q28 28 51.5 68.5t37.5 73.5t17 42h24l-84 -268h-584zM212.5 -187.5q-14.5 14.5 -14.5 37.5q0 22 14.5 37t37.5 15q22 0 37 -15t15 -37q0 -23 -15 -37.5t-37 -14.5q-23 0 -37.5 14.5zM325 778q106 52 176 142h40
q23 -90 100 -142l-14 -16q-24 9 -61.5 38.5t-60.5 57.5q-39 -28 -92.5 -57.5t-81.5 -38.5z" />
    <glyph glyph-name="uni1EC0" unicode="&#x1ec0;" horiz-adv-x="700" 
d="M-2 32h76q27 0 34 27l161 594q2 8 2 12q0 15 -21 15h-76l8 32h552l-46 -228h-25q1 4 2 16.5t1 31.5q0 84 -27 116t-81 32h-164q-27 0 -34 -27l-73 -269h108q39 0 63 21.5t35.5 50.5t22.5 70h25l-86 -324h-25q10 44 10 75q0 35 -13.5 55t-46.5 20h-101l-80 -293
q-2 -8 -2 -11q0 -16 21 -16h186q26 0 61 12.5t63 39.5q28 28 51.5 68.5t37.5 73.5t17 42h24l-84 -268h-584zM365 789q89 47 152 151h40q9 -104 70 -151l-12 -13q-60 36 -97 92q-70 -57 -147 -92zM551 1004q-14 16 -14 35q0 12 8 24t28 12q15 0 24 -9t16 -30l40 -119l-17 -10
z" />
    <glyph glyph-name="uni1EC2" unicode="&#x1ec2;" horiz-adv-x="700" 
d="M-2 32h76q27 0 34 27l161 594q2 8 2 12q0 15 -21 15h-76l8 32h552l-46 -228h-25q1 4 2 16.5t1 31.5q0 84 -27 116t-81 32h-164q-27 0 -34 -27l-73 -269h108q39 0 63 21.5t35.5 50.5t22.5 70h25l-86 -324h-25q10 44 10 75q0 35 -13.5 55t-46.5 20h-101l-80 -293
q-2 -8 -2 -11q0 -16 21 -16h186q26 0 61 12.5t63 39.5q28 28 51.5 68.5t37.5 73.5t17 42h24l-84 -268h-584zM365 789q89 47 152 151h40q9 -104 70 -151l-12 -13q-60 36 -97 92q-70 -57 -147 -92zM637 956q32 23 39 58q2 10 2 15q0 18 -11 29.5t-34 11.5q-21 0 -40 -11
t-21 -25q-3 -10 0 -13q1 -1 2.5 -2t2.5 0q1 -1 4 1q3 1 4.5 0.5t3.5 0.5q14 -2 14 -15q0 -11 -8.5 -18.5t-22.5 -7.5q-10 0 -17.5 8t-7.5 22q0 31 29.5 52.5t63.5 22.5q33 -1 55.5 -16t22.5 -42q0 -33 -22.5 -54.5t-64.5 -47.5h-35z" />
    <glyph glyph-name="uni1EC4" unicode="&#x1ec4;" horiz-adv-x="700" 
d="M-2 32h76q27 0 34 27l161 594q2 8 2 12q0 15 -21 15h-76l8 32h552l-46 -228h-25q1 4 2 16.5t1 31.5q0 84 -27 116t-81 32h-164q-27 0 -34 -27l-73 -269h108q39 0 63 21.5t35.5 50.5t22.5 70h25l-86 -324h-25q10 44 10 75q0 35 -13.5 55t-46.5 20h-101l-80 -293
q-2 -8 -2 -11q0 -16 21 -16h186q26 0 61 12.5t63 39.5q28 28 51.5 68.5t37.5 73.5t17 42h24l-84 -268h-584zM365 789q89 47 152 151h40q9 -104 70 -151l-12 -13q-60 36 -97 92q-70 -57 -147 -92zM440 1022.5q21 27.5 59 27.5q22 0 38.5 -5.5t38.5 -16.5q20 -9 32.5 -13.5
t28.5 -4.5q17 0 25 10t11 30h22q0 -39 -21 -66.5t-59 -27.5q-22 0 -38.5 5.5t-38.5 16.5q-20 9 -32.5 13.5t-28.5 4.5q-17 0 -25 -10t-11 -30h-22q0 39 21 66.5z" />
    <glyph glyph-name="uni0204" unicode="&#x204;" horiz-adv-x="700" 
d="M313 859q-7 7 -11 17.5t-4 18.5q0 12 7.5 23.5t27.5 11.5q30 0 42 -37l41 -122l-15 -9zM467 859q-7 7 -11 17.5t-4 18.5q0 12 7.5 23.5t27.5 11.5q30 0 42 -37l41 -122l-15 -9zM-2 32h76q27 0 34 27l161 594q2 8 2 12q0 15 -21 15h-76l8 32h552l-46 -228h-25q1 4 2 16.5
t1 31.5q0 84 -27 116t-81 32h-164q-27 0 -34 -27l-73 -269h108q39 0 63 21.5t35.5 50.5t22.5 70h25l-86 -324h-25q10 44 10 75q0 35 -13.5 55t-46.5 20h-101l-80 -293q-2 -8 -2 -11q0 -16 21 -16h186q26 0 61 12.5t63 39.5q28 28 51.5 68.5t37.5 73.5t17 42h24l-84 -268
h-584z" />
    <glyph glyph-name="Edieresis" unicode="&#xcb;" horiz-adv-x="700" 
d="M367 813q-15 15 -15 37q0 23 15 37.5t37 14.5q23 0 37.5 -14.5t14.5 -37.5q0 -22 -14.5 -37t-37.5 -15q-22 0 -37 15zM571 813q-15 15 -15 37q0 23 15 37.5t37 14.5q23 0 37.5 -14.5t14.5 -37.5q0 -22 -14.5 -37t-37.5 -15q-22 0 -37 15zM-2 32h76q27 0 34 27l161 594
q2 8 2 12q0 15 -21 15h-76l8 32h552l-46 -228h-25q1 4 2 16.5t1 31.5q0 84 -27 116t-81 32h-164q-27 0 -34 -27l-73 -269h108q39 0 63 21.5t35.5 50.5t22.5 70h25l-86 -324h-25q10 44 10 75q0 35 -13.5 55t-46.5 20h-101l-80 -293q-2 -8 -2 -11q0 -16 21 -16h186
q26 0 61 12.5t63 39.5q28 28 51.5 68.5t37.5 73.5t17 42h24l-84 -268h-584z" />
    <glyph glyph-name="Edotaccent" unicode="&#x116;" horiz-adv-x="700" 
d="M469 813q-15 15 -15 37q0 23 15 37.5t37 14.5q23 0 37.5 -14.5t14.5 -37.5q0 -22 -14.5 -37t-37.5 -15q-22 0 -37 15zM-2 32h76q27 0 34 27l161 594q2 8 2 12q0 15 -21 15h-76l8 32h552l-46 -228h-25q1 4 2 16.5t1 31.5q0 84 -27 116t-81 32h-164q-27 0 -34 -27l-73 -269
h108q39 0 63 21.5t35.5 50.5t22.5 70h25l-86 -324h-25q10 44 10 75q0 35 -13.5 55t-46.5 20h-101l-80 -293q-2 -8 -2 -11q0 -16 21 -16h186q26 0 61 12.5t63 39.5q28 28 51.5 68.5t37.5 73.5t17 42h24l-84 -268h-584z" />
    <glyph glyph-name="uni1EB8" unicode="&#x1eb8;" horiz-adv-x="700" 
d="M-2 32h76q27 0 34 27l161 594q2 8 2 12q0 15 -21 15h-76l8 32h552l-46 -228h-25q1 4 2 16.5t1 31.5q0 84 -27 116t-81 32h-164q-27 0 -34 -27l-73 -269h108q39 0 63 21.5t35.5 50.5t22.5 70h25l-86 -324h-25q10 44 10 75q0 35 -13.5 55t-46.5 20h-101l-80 -293
q-2 -8 -2 -11q0 -16 21 -16h186q26 0 61 12.5t63 39.5q28 28 51.5 68.5t37.5 73.5t17 42h24l-84 -268h-584zM212.5 -187.5q-14.5 14.5 -14.5 37.5q0 22 14.5 37t37.5 15q22 0 37 -15t15 -37q0 -23 -15 -37.5t-37 -14.5q-23 0 -37.5 14.5z" />
    <glyph glyph-name="Egrave" unicode="&#xc8;" horiz-adv-x="700" 
d="M387 859q-7 7 -11 17.5t-4 18.5q0 12 7.5 23.5t27.5 11.5q30 0 42 -37l41 -122l-15 -9zM-2 32h76q27 0 34 27l161 594q2 8 2 12q0 15 -21 15h-76l8 32h552l-46 -228h-25q1 4 2 16.5t1 31.5q0 84 -27 116t-81 32h-164q-27 0 -34 -27l-73 -269h108q39 0 63 21.5t35.5 50.5
t22.5 70h25l-86 -324h-25q10 44 10 75q0 35 -13.5 55t-46.5 20h-101l-80 -293q-2 -8 -2 -11q0 -16 21 -16h186q26 0 61 12.5t63 39.5q28 28 51.5 68.5t37.5 73.5t17 42h24l-84 -268h-584z" />
    <glyph glyph-name="uni1EBA" unicode="&#x1eba;" horiz-adv-x="700" 
d="M-2 32h76q27 0 34 27l161 594q2 8 2 12q0 15 -21 15h-76l8 32h552l-46 -228h-25q1 4 2 16.5t1 31.5q0 84 -27 116t-81 32h-164q-27 0 -34 -27l-73 -269h108q39 0 63 21.5t35.5 50.5t22.5 70h25l-86 -324h-25q10 44 10 75q0 35 -13.5 55t-46.5 20h-101l-80 -293
q-2 -8 -2 -11q0 -16 21 -16h186q26 0 61 12.5t63 39.5q28 28 51.5 68.5t37.5 73.5t17 42h24l-84 -268h-584zM524 801q32 23 39 58q2 10 2 15q0 18 -11 29.5t-34 11.5q-21 0 -40 -11t-21 -25q-3 -10 0 -13q1 -1 2.5 -2t2.5 0q1 -1 4 1q3 1 4.5 0.5t3.5 0.5q14 -2 14 -15
q0 -11 -8.5 -18.5t-22.5 -7.5q-10 0 -17.5 8t-7.5 22q0 31 29.5 52.5t63.5 22.5q33 -1 55.5 -16t22.5 -42q0 -33 -22.5 -54.5t-64.5 -47.5h-35z" />
    <glyph glyph-name="uni0206" unicode="&#x206;" horiz-adv-x="700" 
d="M340 770q18 31 49 66t68 59.5t71 24.5q33 0 56 -24.5t34.5 -59t13.5 -66.5l-20 -8q-7 46 -33 74t-66 28t-80 -28.5t-73 -73.5zM-2 32h76q27 0 34 27l161 594q2 8 2 12q0 15 -21 15h-76l8 32h552l-46 -228h-25q1 4 2 16.5t1 31.5q0 84 -27 116t-81 32h-164q-27 0 -34 -27
l-73 -269h108q39 0 63 21.5t35.5 50.5t22.5 70h25l-86 -324h-25q10 44 10 75q0 35 -13.5 55t-46.5 20h-101l-80 -293q-2 -8 -2 -11q0 -16 21 -16h186q26 0 61 12.5t63 39.5q28 28 51.5 68.5t37.5 73.5t17 42h24l-84 -268h-584z" />
    <glyph glyph-name="Emacron" unicode="&#x112;" horiz-adv-x="700" 
d="M342 822l10 40h314l-10 -40h-314zM-2 32h76q27 0 34 27l161 594q2 8 2 12q0 15 -21 15h-76l8 32h552l-46 -228h-25q1 4 2 16.5t1 31.5q0 84 -27 116t-81 32h-164q-27 0 -34 -27l-73 -269h108q39 0 63 21.5t35.5 50.5t22.5 70h25l-86 -324h-25q10 44 10 75q0 35 -13.5 55
t-46.5 20h-101l-80 -293q-2 -8 -2 -11q0 -16 21 -16h186q26 0 61 12.5t63 39.5q28 28 51.5 68.5t37.5 73.5t17 42h24l-84 -268h-584z" />
    <glyph glyph-name="uni1E16" unicode="&#x1e16;" horiz-adv-x="700" 
d="M481 837l73 85q13 15 23 22.5t21 7.5q13 0 20.5 -8.5t7.5 -18.5q0 -21 -36 -41l-101 -56zM338 776l10 36h298l-10 -36h-298zM-2 32h76q27 0 34 27l161 594q2 8 2 12q0 15 -21 15h-76l8 32h552l-46 -228h-25q1 4 2 16.5t1 31.5q0 84 -27 116t-81 32h-164q-27 0 -34 -27
l-73 -269h108q39 0 63 21.5t35.5 50.5t22.5 70h25l-86 -324h-25q10 44 10 75q0 35 -13.5 55t-46.5 20h-101l-80 -293q-2 -8 -2 -11q0 -16 21 -16h186q26 0 61 12.5t63 39.5q28 28 51.5 68.5t37.5 73.5t17 42h24l-84 -268h-584z" />
    <glyph glyph-name="uni1E14" unicode="&#x1e14;" horiz-adv-x="700" 
d="M471 895q-15 15 -15 32q0 9 7.5 17t19.5 8q18 0 32 -31l37 -87l-12 -8zM338 776l10 36h298l-10 -36h-298zM-2 32h76q27 0 34 27l161 594q2 8 2 12q0 15 -21 15h-76l8 32h552l-46 -228h-25q1 4 2 16.5t1 31.5q0 84 -27 116t-81 32h-164q-27 0 -34 -27l-73 -269h108
q39 0 63 21.5t35.5 50.5t22.5 70h25l-86 -324h-25q10 44 10 75q0 35 -13.5 55t-46.5 20h-101l-80 -293q-2 -8 -2 -11q0 -16 21 -16h186q26 0 61 12.5t63 39.5q28 28 51.5 68.5t37.5 73.5t17 42h24l-84 -268h-584z" />
    <glyph glyph-name="Eogonek" unicode="&#x118;" horiz-adv-x="700" 
d="M336 -227.5q-26 19.5 -26 58.5q0 82 127 164l-1 5h-446l8 32h76q27 0 34 27l161 594q2 8 2 12q0 15 -21 15h-76l8 32h552l-46 -228h-25q1 4 2 16.5t1 31.5q0 84 -27 116t-81 32h-164q-27 0 -34 -27l-73 -269h108q39 0 63 21.5t35.5 50.5t22.5 70h25l-86 -324h-25
q10 44 10 75q0 35 -13.5 55t-46.5 20h-101l-80 -293q-2 -8 -2 -11q0 -16 21 -16h186q26 0 61 12.5t63 39.5q28 28 51.5 68.5t37.5 73.5t17 42h24l-84 -268h-86q-53 -31 -87.5 -70.5t-34.5 -77.5q0 -18 9 -26.5t23 -8.5q17 0 32 11q11 10 17.5 13t16.5 3q12 0 18.5 -8
t6.5 -20q0 -14 -11 -28.5t-32 -24.5t-51 -10q-33 0 -59 19.5z" />
    <glyph glyph-name="uni1EBC" unicode="&#x1ebc;" horiz-adv-x="700" 
d="M-2 32h76q27 0 34 27l161 594q2 8 2 12q0 15 -21 15h-76l8 32h552l-46 -228h-25q1 4 2 16.5t1 31.5q0 84 -27 116t-81 32h-164q-27 0 -34 -27l-73 -269h108q39 0 63 21.5t35.5 50.5t22.5 70h25l-86 -324h-25q10 44 10 75q0 35 -13.5 55t-46.5 20h-101l-80 -293
q-2 -8 -2 -11q0 -16 21 -16h186q26 0 61 12.5t63 39.5q28 28 51.5 68.5t37.5 73.5t17 42h24l-84 -268h-584zM345 810q3 38 25.5 65t60.5 27q29 0 90 -21q49 -17 72 -17q18 0 29 11t15 31l20 -2q-3 -38 -25.5 -65t-60.5 -27q-29 0 -90 21q-49 17 -72 17q-18 0 -29 -11
t-15 -31z" />
    <glyph glyph-name="F" unicode="F" horiz-adv-x="680" 
d="M-2 32h76q27 0 34 27l161 594q2 8 2 12q0 15 -21 15h-76l8 32h552l-46 -228h-25q1 4 2 16.5t1 31.5q0 84 -27 116t-81 32h-164q-27 0 -34 -27l-73 -269h107q39 0 63 21.5t35.5 50.5t22.5 70h25l-86 -324h-25q10 44 10 75q0 35 -13.5 55t-46.5 20h-100l-80 -293
q-2 -8 -2 -11q0 -16 21 -16h112l-8 -32h-332z" />
    <glyph glyph-name="G" unicode="G" horiz-adv-x="740" 
d="M197.5 15q-48.5 33 -77 94t-28.5 143q0 115 55.5 226t144 181.5t182.5 70.5q79 0 140 -54q17 -16 25.5 -21.5t17.5 -5.5q31 0 44 73h23l-64 -306h-23q1 19 1 63q0 118 -43 168q-23 26 -57 38.5t-68 12.5q-60 0 -108 -36t-96 -126q-33 -62 -55.5 -153.5t-22.5 -186.5
q0 -112 36.5 -147t89.5 -35q50 0 94 32t73.5 81t39.5 97l11 53q1 4 1 11q0 16 -21 16h-100l8 32h310l-8 -32h-64q-27 0 -35 -27l-61 -291h-25v70q0 41 -15 41q-8 0 -17 -7t-20 -20q-83 -88 -181 -88q-58 0 -106.5 33z" />
    <glyph glyph-name="Gbreve" unicode="&#x11e;" horiz-adv-x="740" 
d="M413.5 796q-27.5 34 -27.5 81q0 19 5 39h28v-8q0 -41 23 -70.5t71 -29.5q51 0 91.5 33t60.5 75h28q-9 -33 -35.5 -69t-67.5 -60.5t-90 -24.5q-59 0 -86.5 34zM197.5 15q-48.5 33 -77 94t-28.5 143q0 115 55.5 226t144 181.5t182.5 70.5q79 0 140 -54q17 -16 25.5 -21.5
t17.5 -5.5q31 0 44 73h23l-64 -306h-23q1 19 1 63q0 118 -43 168q-23 26 -57 38.5t-68 12.5q-60 0 -108 -36t-96 -126q-33 -62 -55.5 -153.5t-22.5 -186.5q0 -112 36.5 -147t89.5 -35q50 0 94 32t73.5 81t39.5 97l11 53q1 4 1 11q0 16 -21 16h-100l8 32h310l-8 -32h-64
q-27 0 -35 -27l-61 -291h-25v70q0 41 -15 41q-8 0 -17 -7t-20 -20q-83 -88 -181 -88q-58 0 -106.5 33z" />
    <glyph glyph-name="Gcircumflex" unicode="&#x11c;" horiz-adv-x="740" 
d="M334 778q106 52 176 142h40q23 -90 100 -142l-14 -16q-24 9 -61.5 38.5t-60.5 57.5q-39 -28 -92.5 -57.5t-81.5 -38.5zM197.5 15q-48.5 33 -77 94t-28.5 143q0 115 55.5 226t144 181.5t182.5 70.5q79 0 140 -54q17 -16 25.5 -21.5t17.5 -5.5q31 0 44 73h23l-64 -306h-23
q1 19 1 63q0 118 -43 168q-23 26 -57 38.5t-68 12.5q-60 0 -108 -36t-96 -126q-33 -62 -55.5 -153.5t-22.5 -186.5q0 -112 36.5 -147t89.5 -35q50 0 94 32t73.5 81t39.5 97l11 53q1 4 1 11q0 16 -21 16h-100l8 32h310l-8 -32h-64q-27 0 -35 -27l-61 -291h-25v70q0 41 -15 41
q-8 0 -17 -7t-20 -20q-83 -88 -181 -88q-58 0 -106.5 33z" />
    <glyph glyph-name="Gcommaaccent" unicode="&#x122;" horiz-adv-x="740" 
d="M197.5 15q-48.5 33 -77 94t-28.5 143q0 115 55.5 226t144 181.5t182.5 70.5q79 0 140 -54q17 -16 25.5 -21.5t17.5 -5.5q31 0 44 73h23l-64 -306h-23q1 19 1 63q0 118 -43 168q-23 26 -57 38.5t-68 12.5q-60 0 -108 -36t-96 -126q-33 -62 -55.5 -153.5t-22.5 -186.5
q0 -112 36.5 -147t89.5 -35q50 0 94 32t73.5 81t39.5 97l11 53q1 4 1 11q0 16 -21 16h-100l8 32h310l-8 -32h-64q-27 0 -35 -27l-61 -291h-25v70q0 41 -15 41q-8 0 -17 -7t-20 -20q-83 -88 -181 -88q-58 0 -106.5 33zM196 -231q93 38 93 90q0 11 -9 17q-6 2 -15 2
q-18 0 -27.5 11t-9.5 27q0 20 13 32t32 12q23 0 39 -15t16 -43q0 -55 -35.5 -92t-88.5 -58z" />
    <glyph glyph-name="Gdotaccent" unicode="&#x120;" horiz-adv-x="740" 
d="M479 813q-15 15 -15 37q0 23 15 37.5t37 14.5q23 0 37.5 -14.5t14.5 -37.5q0 -22 -14.5 -37t-37.5 -15q-22 0 -37 15zM197.5 15q-48.5 33 -77 94t-28.5 143q0 115 55.5 226t144 181.5t182.5 70.5q79 0 140 -54q17 -16 25.5 -21.5t17.5 -5.5q31 0 44 73h23l-64 -306h-23
q1 19 1 63q0 118 -43 168q-23 26 -57 38.5t-68 12.5q-60 0 -108 -36t-96 -126q-33 -62 -55.5 -153.5t-22.5 -186.5q0 -112 36.5 -147t89.5 -35q50 0 94 32t73.5 81t39.5 97l11 53q1 4 1 11q0 16 -21 16h-100l8 32h310l-8 -32h-64q-27 0 -35 -27l-61 -291h-25v70q0 41 -15 41
q-8 0 -17 -7t-20 -20q-83 -88 -181 -88q-58 0 -106.5 33z" />
    <glyph glyph-name="uni1E20" unicode="&#x1e20;" horiz-adv-x="740" 
d="M352 822l10 40h314l-10 -40h-314zM197.5 15q-48.5 33 -77 94t-28.5 143q0 115 55.5 226t144 181.5t182.5 70.5q79 0 140 -54q17 -16 25.5 -21.5t17.5 -5.5q31 0 44 73h23l-64 -306h-23q1 19 1 63q0 118 -43 168q-23 26 -57 38.5t-68 12.5q-60 0 -108 -36t-96 -126
q-33 -62 -55.5 -153.5t-22.5 -186.5q0 -112 36.5 -147t89.5 -35q50 0 94 32t73.5 81t39.5 97l11 53q1 4 1 11q0 16 -21 16h-100l8 32h310l-8 -32h-64q-27 0 -35 -27l-61 -291h-25v70q0 41 -15 41q-8 0 -17 -7t-20 -20q-83 -88 -181 -88q-58 0 -106.5 33z" />
    <glyph glyph-name="H" unicode="H" horiz-adv-x="800" 
d="M-2 32h76q27 0 34 27l161 594q2 8 2 11q0 16 -21 16h-76l8 32h296l-8 -32h-76q-26 0 -34 -27l-73 -269h309l73 269q2 8 2 11q0 16 -21 16h-76l8 32h296l-8 -32h-76q-26 0 -34 -27l-161 -594q-2 -8 -2 -11q0 -16 21 -16h76l-8 -32h-296l8 32h76q27 0 34 27l80 293h-309
l-80 -293q-2 -8 -2 -11q0 -16 21 -16h76l-8 -32h-296z" />
    <glyph glyph-name="Hbar" unicode="&#x126;" horiz-adv-x="816" 
d="M6 32h76q27 0 34 27l122 449h-122l9 36h122l30 109q2 8 2 11q0 16 -21 16h-76l8 32h296l-8 -32h-76q-26 0 -34 -27l-30 -109h309l30 109q2 8 2 11q0 16 -21 16h-76l8 32h296l-8 -32h-76q-26 0 -34 -27l-30 -109h121l-9 -36h-121l-122 -449q-2 -8 -2 -11q0 -16 21 -16h76
l-8 -32h-296l8 32h76q27 0 34 27l80 293h-309l-80 -293q-2 -8 -2 -11q0 -16 21 -16h76l-8 -32h-296zM295 384h309l33 124h-309z" />
    <glyph glyph-name="uni1E2A" unicode="&#x1e2a;" horiz-adv-x="800" 
d="M-2 32h76q27 0 34 27l161 594q2 8 2 11q0 16 -21 16h-76l8 32h296l-8 -32h-76q-26 0 -34 -27l-73 -269h309l73 269q2 8 2 11q0 16 -21 16h-76l8 32h296l-8 -32h-76q-26 0 -34 -27l-161 -594q-2 -8 -2 -11q0 -16 21 -16h76l-8 -32h-296l8 32h76q27 0 34 27l80 293h-309
l-80 -293q-2 -8 -2 -11q0 -16 21 -16h76l-8 -32h-296zM219.5 -187q-25.5 33 -25.5 76q0 13 4 31h22q-1 -5 -1 -16q0 -35 20.5 -59.5t69.5 -24.5q55 0 91 30.5t52 69.5h22q-7 -27 -31.5 -60t-62.5 -56.5t-82 -23.5q-53 0 -78.5 33z" />
    <glyph glyph-name="Hcircumflex" unicode="&#x124;" horiz-adv-x="800" 
d="M398 778q106 52 176 142h40q23 -90 100 -142l-14 -16q-24 9 -61.5 38.5t-60.5 57.5q-39 -28 -92.5 -57.5t-81.5 -38.5zM-2 32h76q27 0 34 27l161 594q2 8 2 11q0 16 -21 16h-76l8 32h296l-8 -32h-76q-26 0 -34 -27l-73 -269h309l73 269q2 8 2 11q0 16 -21 16h-76l8 32
h296l-8 -32h-76q-26 0 -34 -27l-161 -594q-2 -8 -2 -11q0 -16 21 -16h76l-8 -32h-296l8 32h76q27 0 34 27l80 293h-309l-80 -293q-2 -8 -2 -11q0 -16 21 -16h76l-8 -32h-296z" />
    <glyph glyph-name="uni1E24" unicode="&#x1e24;" horiz-adv-x="800" 
d="M-2 32h76q27 0 34 27l161 594q2 8 2 11q0 16 -21 16h-76l8 32h296l-8 -32h-76q-26 0 -34 -27l-73 -269h309l73 269q2 8 2 11q0 16 -21 16h-76l8 32h296l-8 -32h-76q-26 0 -34 -27l-161 -594q-2 -8 -2 -11q0 -16 21 -16h76l-8 -32h-296l8 32h76q27 0 34 27l80 293h-309
l-80 -293q-2 -8 -2 -11q0 -16 21 -16h76l-8 -32h-296zM271 -187.5q-15 14.5 -15 37.5q0 22 15 37t37 15q23 0 37.5 -15t14.5 -37q0 -23 -14.5 -37.5t-37.5 -14.5q-22 0 -37 14.5z" />
    <glyph glyph-name="I" unicode="I" horiz-adv-x="400" 
d="M-2 32h76q27 0 34 27l161 594q2 8 2 12q0 15 -21 15h-76l8 32h296l-8 -32h-76q-27 0 -34 -27l-161 -594q-2 -8 -2 -11q0 -16 21 -16h76l-8 -32h-296z" />
    <glyph glyph-name="Iacute" unicode="&#xcd;" horiz-adv-x="400" 
d="M334 774l106 123q13 15 24 21t24 6q28 0 28 -29q0 -27 -32 -46l-138 -87zM-2 32h76q27 0 34 27l161 594q2 8 2 12q0 15 -21 15h-76l8 32h296l-8 -32h-76q-27 0 -34 -27l-161 -594q-2 -8 -2 -11q0 -16 21 -16h76l-8 -32h-296z" />
    <glyph glyph-name="Ibreve" unicode="&#x12c;" horiz-adv-x="400" 
d="M271.5 796q-27.5 34 -27.5 81q0 19 5 39h28v-8q0 -41 23 -70.5t71 -29.5q51 0 91.5 33t60.5 75h28q-9 -33 -35.5 -69t-67.5 -60.5t-90 -24.5q-59 0 -86.5 34zM-2 32h76q27 0 34 27l161 594q2 8 2 12q0 15 -21 15h-76l8 32h296l-8 -32h-76q-27 0 -34 -27l-161 -594
q-2 -8 -2 -11q0 -16 21 -16h76l-8 -32h-296z" />
    <glyph glyph-name="Icircumflex" unicode="&#xce;" horiz-adv-x="400" 
d="M192 778q106 52 176 142h40q23 -90 100 -142l-14 -16q-24 9 -61.5 38.5t-60.5 57.5q-39 -28 -92.5 -57.5t-81.5 -38.5zM-2 32h76q27 0 34 27l161 594q2 8 2 12q0 15 -21 15h-76l8 32h296l-8 -32h-76q-27 0 -34 -27l-161 -594q-2 -8 -2 -11q0 -16 21 -16h76l-8 -32h-296z
" />
    <glyph glyph-name="uni0208" unicode="&#x208;" horiz-adv-x="400" 
d="M181 859q-7 7 -11 17.5t-4 18.5q0 12 7.5 23.5t27.5 11.5q30 0 42 -37l41 -122l-15 -9zM335 859q-7 7 -11 17.5t-4 18.5q0 12 7.5 23.5t27.5 11.5q30 0 42 -37l41 -122l-15 -9zM-2 32h76q27 0 34 27l161 594q2 8 2 12q0 15 -21 15h-76l8 32h296l-8 -32h-76q-27 0 -34 -27
l-161 -594q-2 -8 -2 -11q0 -16 21 -16h76l-8 -32h-296z" />
    <glyph glyph-name="Idieresis" unicode="&#xcf;" horiz-adv-x="400" 
d="M235 813q-15 15 -15 37q0 23 15 37.5t37 14.5q23 0 37.5 -14.5t14.5 -37.5q0 -22 -14.5 -37t-37.5 -15q-22 0 -37 15zM439 813q-15 15 -15 37q0 23 15 37.5t37 14.5q23 0 37.5 -14.5t14.5 -37.5q0 -22 -14.5 -37t-37.5 -15q-22 0 -37 15zM-2 32h76q27 0 34 27l161 594
q2 8 2 12q0 15 -21 15h-76l8 32h296l-8 -32h-76q-27 0 -34 -27l-161 -594q-2 -8 -2 -11q0 -16 21 -16h76l-8 -32h-296z" />
    <glyph glyph-name="uni1E2E" unicode="&#x1e2e;" horiz-adv-x="400" 
d="M326 840l121 91q26 21 47 21q13 0 20.5 -9t7.5 -21q0 -23 -44 -39l-145 -55zM226.5 780.5q-12.5 12.5 -12.5 29.5t12.5 29.5t29.5 12.5t29.5 -12.5t12.5 -29.5t-12.5 -29.5t-29.5 -12.5t-29.5 12.5zM442.5 780.5q-12.5 12.5 -12.5 29.5t12.5 29.5t29.5 12.5t29.5 -12.5
t12.5 -29.5t-12.5 -29.5t-29.5 -12.5t-29.5 12.5zM-2 32h76q27 0 34 27l161 594q2 8 2 12q0 15 -21 15h-76l8 32h296l-8 -32h-76q-27 0 -34 -27l-161 -594q-2 -8 -2 -11q0 -16 21 -16h76l-8 -32h-296z" />
    <glyph glyph-name="Idotaccent" unicode="&#x130;" horiz-adv-x="400" 
d="M337 813q-15 15 -15 37q0 23 15 37.5t37 14.5q23 0 37.5 -14.5t14.5 -37.5q0 -22 -14.5 -37t-37.5 -15q-22 0 -37 15zM-2 32h76q27 0 34 27l161 594q2 8 2 12q0 15 -21 15h-76l8 32h296l-8 -32h-76q-27 0 -34 -27l-161 -594q-2 -8 -2 -11q0 -16 21 -16h76l-8 -32h-296z
" />
    <glyph glyph-name="uni1ECA" unicode="&#x1eca;" horiz-adv-x="400" 
d="M-2 32h76q27 0 34 27l161 594q2 8 2 12q0 15 -21 15h-76l8 32h296l-8 -32h-76q-27 0 -34 -27l-161 -594q-2 -8 -2 -11q0 -16 21 -16h76l-8 -32h-296zM62.5 -187.5q-14.5 14.5 -14.5 37.5q0 22 14.5 37t37.5 15q22 0 37 -15t15 -37q0 -23 -15 -37.5t-37 -14.5
q-23 0 -37.5 14.5z" />
    <glyph glyph-name="Igrave" unicode="&#xcc;" horiz-adv-x="400" 
d="M255 859q-7 7 -11 17.5t-4 18.5q0 12 7.5 23.5t27.5 11.5q30 0 42 -37l41 -122l-15 -9zM-2 32h76q27 0 34 27l161 594q2 8 2 12q0 15 -21 15h-76l8 32h296l-8 -32h-76q-27 0 -34 -27l-161 -594q-2 -8 -2 -11q0 -16 21 -16h76l-8 -32h-296z" />
    <glyph glyph-name="uni1EC8" unicode="&#x1ec8;" horiz-adv-x="400" 
d="M-2 32h76q27 0 34 27l161 594q2 8 2 12q0 15 -21 15h-76l8 32h296l-8 -32h-76q-27 0 -34 -27l-161 -594q-2 -8 -2 -11q0 -16 21 -16h76l-8 -32h-296zM374 801q32 23 39 58q2 10 2 15q0 18 -11 29.5t-34 11.5q-21 0 -40 -11t-21 -25q-3 -10 0 -13q1 -1 2.5 -2t2.5 0
q1 -1 4 1q3 1 4.5 0.5t3.5 0.5q14 -2 14 -15q0 -11 -8.5 -18.5t-22.5 -7.5q-10 0 -17.5 8t-7.5 22q0 31 29.5 52.5t63.5 22.5q33 -1 55.5 -16t22.5 -42q0 -33 -22.5 -54.5t-64.5 -47.5h-35z" />
    <glyph glyph-name="uni020A" unicode="&#x20a;" horiz-adv-x="400" 
d="M208 770q18 31 49 66t68 59.5t71 24.5q33 0 56 -24.5t34.5 -59t13.5 -66.5l-20 -8q-7 46 -33 74t-66 28t-80 -28.5t-73 -73.5zM-2 32h76q27 0 34 27l161 594q2 8 2 12q0 15 -21 15h-76l8 32h296l-8 -32h-76q-27 0 -34 -27l-161 -594q-2 -8 -2 -11q0 -16 21 -16h76l-8 -32
h-296z" />
    <glyph glyph-name="Imacron" unicode="&#x12a;" horiz-adv-x="400" 
d="M210 822l10 40h314l-10 -40h-314zM-2 32h76q27 0 34 27l161 594q2 8 2 12q0 15 -21 15h-76l8 32h296l-8 -32h-76q-27 0 -34 -27l-161 -594q-2 -8 -2 -11q0 -16 21 -16h76l-8 -32h-296z" />
    <glyph glyph-name="Iogonek" unicode="&#x12e;" horiz-adv-x="400" 
d="M174 -227.5q-26 19.5 -26 58.5q0 82 127 164l-1 5h-200l8 32h76q27 0 34 27l161 594q2 8 2 12q0 15 -21 15h-76l8 32h296l-8 -32h-76q-27 0 -34 -27l-161 -594q-2 -8 -2 -11q0 -16 21 -16h76l-8 -32h-44q-53 -31 -87.5 -70.5t-34.5 -77.5q0 -18 9 -26.5t23 -8.5
q17 0 32 11q11 10 17.5 13t16.5 3q12 0 18.5 -8t6.5 -20q0 -14 -11 -28.5t-32 -24.5t-51 -10q-33 0 -59 19.5z" />
    <glyph glyph-name="Itilde" unicode="&#x128;" horiz-adv-x="400" 
d="M218 810q3 38 25.5 65t60.5 27q29 0 90 -21q49 -17 72 -17q18 0 29 11t15 31l20 -2q-3 -38 -25.5 -65t-60.5 -27q-29 0 -90 21q-49 17 -72 17q-18 0 -29 -11t-15 -31zM-2 32h76q27 0 34 27l161 594q2 8 2 12q0 15 -21 15h-76l8 32h296l-8 -32h-76q-27 0 -34 -27
l-161 -594q-2 -8 -2 -11q0 -16 21 -16h76l-8 -32h-296z" />
    <glyph glyph-name="J" unicode="J" horiz-adv-x="540" 
d="M50 18q-36 36 -36 92q0 47 26 76.5t64 29.5q27 0 44.5 -16t17.5 -41q0 -30 -17 -49t-49 -19q-9 0 -14.5 -6.5t-5.5 -16.5q0 -25 19.5 -39.5t56.5 -14.5q49 0 85.5 36.5t50.5 88.5l139 514q2 8 2 12q0 15 -21 15h-112l8 32h332l-8 -32h-76q-27 0 -34 -27l-127 -468
q-17 -62 -55.5 -108.5t-88.5 -70.5t-103 -24q-62 0 -98 36z" />
    <glyph glyph-name="Jcircumflex" unicode="&#x134;" horiz-adv-x="540" 
d="M334 778q106 52 176 142h40q23 -90 100 -142l-14 -16q-24 9 -61.5 38.5t-60.5 57.5q-39 -28 -92.5 -57.5t-81.5 -38.5zM50 18q-36 36 -36 92q0 47 26 76.5t64 29.5q27 0 44.5 -16t17.5 -41q0 -30 -17 -49t-49 -19q-9 0 -14.5 -6.5t-5.5 -16.5q0 -25 19.5 -39.5
t56.5 -14.5q49 0 85.5 36.5t50.5 88.5l139 514q2 8 2 12q0 15 -21 15h-112l8 32h332l-8 -32h-76q-27 0 -34 -27l-127 -468q-17 -62 -55.5 -108.5t-88.5 -70.5t-103 -24q-62 0 -98 36z" />
    <glyph glyph-name="K" unicode="K" horiz-adv-x="756" 
d="M-2 32h76q27 0 34 27l161 594q2 8 2 12q0 15 -21 15h-76l8 32h296l-8 -32h-76q-27 0 -34 -27l-80 -297l298 224q33 25 47.5 40.5t14.5 33.5q0 14 -15.5 20t-38.5 6h-24l8 32h274l-8 -32q-32 0 -65 -12t-80 -46l-243 -180l122 -366q9 -25 23.5 -34.5t46.5 -9.5h42l-8 -32
h-292l8 32h52q15 0 25 7t10 22q0 8 -3 17l-99 309l-108 -80l-68 -248q-2 -8 -2 -11q0 -16 21 -16h76l-8 -32h-296z" />
    <glyph glyph-name="Kcommaaccent" unicode="&#x136;" horiz-adv-x="756" 
d="M-2 32h76q27 0 34 27l161 594q2 8 2 12q0 15 -21 15h-76l8 32h296l-8 -32h-76q-27 0 -34 -27l-80 -297l298 224q33 25 47.5 40.5t14.5 33.5q0 14 -15.5 20t-38.5 6h-24l8 32h274l-8 -32q-32 0 -65 -12t-80 -46l-243 -180l122 -366q9 -25 23.5 -34.5t46.5 -9.5h42l-8 -32
h-292l8 32h52q15 0 25 7t10 22q0 8 -3 17l-99 309l-108 -80l-68 -248q-2 -8 -2 -11q0 -16 21 -16h76l-8 -32h-296zM226 -231q93 38 93 90q0 11 -9 17q-6 2 -15 2q-18 0 -27.5 11t-9.5 27q0 20 13 32t32 12q23 0 39 -15t16 -43q0 -55 -35.5 -92t-88.5 -58z" />
    <glyph glyph-name="L" unicode="L" horiz-adv-x="680" 
d="M-2 32h76q27 0 34 27l161 594q2 8 2 12q0 15 -21 15h-76l9 32h295l-8 -32h-76q-27 0 -34 -27l-161 -594q-2 -8 -2 -11q0 -16 21 -16h186q26 0 61 12.5t63 39.5q28 28 51.5 68.5t37.5 73.5t17 42h24l-84 -268h-584z" />
    <glyph glyph-name="uni01C7" unicode="&#x1c7;" horiz-adv-x="1220" 
d="M-2 32h76q27 0 34 27l161 594q2 8 2 12q0 15 -21 15h-76l9 32h295l-8 -32h-76q-27 0 -34 -27l-161 -594q-2 -8 -2 -11q0 -16 21 -16h186q26 0 61 12.5t63 39.5q28 28 51.5 68.5t37.5 73.5t17 42h24l-84 -268h-584zM730 18q-36 36 -36 92q0 47 26 76.5t64 29.5
q27 0 44.5 -16t17.5 -41q0 -30 -17 -49t-49 -19q-9 0 -14.5 -6.5t-5.5 -16.5q0 -25 19.5 -39.5t56.5 -14.5q49 0 85.5 36.5t50.5 88.5l139 514q2 8 2 12q0 15 -21 15h-112l8 32h332l-8 -32h-76q-27 0 -34 -27l-127 -468q-17 -62 -55.5 -108.5t-88.5 -70.5t-103 -24
q-62 0 -98 36z" />
    <glyph glyph-name="Lacute" unicode="&#x139;" horiz-adv-x="680" 
d="M332 774l106 123q13 15 24 21t24 6q28 0 28 -29q0 -27 -32 -46l-138 -87zM-2 32h76q27 0 34 27l161 594q2 8 2 12q0 15 -21 15h-76l9 32h295l-8 -32h-76q-27 0 -34 -27l-161 -594q-2 -8 -2 -11q0 -16 21 -16h186q26 0 61 12.5t63 39.5q28 28 51.5 68.5t37.5 73.5t17 42
h24l-84 -268h-584z" />
    <glyph glyph-name="Lcaron" unicode="&#x13d;" horiz-adv-x="674" 
d="M562 508q108 44 108 105q0 13 -10 19q-7 3 -18 3q-20 0 -31 13t-11 31q0 23 15 37t37 14q27 0 45.5 -17t18.5 -50q0 -64 -41 -107.5t-103 -67.5zM-2 32h76q27 0 34 27l161 594q2 8 2 12q0 15 -21 15h-76l9 32h295l-8 -32h-76q-27 0 -34 -27l-161 -594q-2 -8 -2 -11
q0 -16 21 -16h186q26 0 61 12.5t63 39.5q28 28 51.5 68.5t37.5 73.5t17 42h24l-84 -268h-584z" />
    <glyph glyph-name="Lcommaaccent" unicode="&#x13b;" horiz-adv-x="680" 
d="M-2 32h76q27 0 34 27l161 594q2 8 2 12q0 15 -21 15h-76l9 32h295l-8 -32h-76q-27 0 -34 -27l-161 -594q-2 -8 -2 -11q0 -16 21 -16h186q26 0 61 12.5t63 39.5q28 28 51.5 68.5t37.5 73.5t17 42h24l-84 -268h-584zM202 -231q93 38 93 90q0 11 -9 17q-6 2 -15 2
q-18 0 -27.5 11t-9.5 27q0 20 13 32t32 12q23 0 39 -15t16 -43q0 -55 -35.5 -92t-88.5 -58z" />
    <glyph glyph-name="Ldot" unicode="&#x13f;" horiz-adv-x="680" 
d="M-2 32h76q27 0 34 27l161 594q2 8 2 12q0 15 -21 15h-76l9 32h295l-8 -32h-76q-27 0 -34 -27l-161 -594q-2 -8 -2 -11q0 -16 21 -16h186q26 0 61 12.5t63 39.5q28 28 51.5 68.5t37.5 73.5t17 42h24l-84 -268h-584zM529.5 327.5q-17.5 17.5 -17.5 44.5t17.5 44.5
t44.5 17.5t44.5 -17.5t17.5 -44.5t-17.5 -44.5t-44.5 -17.5t-44.5 17.5z" />
    <glyph glyph-name="uni1E36" unicode="&#x1e36;" horiz-adv-x="680" 
d="M-2 32h76q27 0 34 27l161 594q2 8 2 12q0 15 -21 15h-76l9 32h295l-8 -32h-76q-27 0 -34 -27l-161 -594q-2 -8 -2 -11q0 -16 21 -16h186q26 0 61 12.5t63 39.5q28 28 51.5 68.5t37.5 73.5t17 42h24l-84 -268h-584zM237 -187.5q-15 14.5 -15 37.5q0 22 15 37t37 15
q23 0 37.5 -15t14.5 -37q0 -23 -14.5 -37.5t-37.5 -14.5q-22 0 -37 14.5z" />
    <glyph glyph-name="uni01C8" unicode="&#x1c8;" horiz-adv-x="326" 
d="M-2 32h76q27 0 34 27l161 594q2 8 2 12q0 15 -21 15h-76l9 32h295l-8 -32h-76q-27 0 -34 -27l-161 -594q-2 -8 -2 -11q0 -16 21 -16h186q26 0 61 12.5t63 39.5q28 28 51.5 68.5t37.5 73.5t17 42h24l-84 -268h-584zM935 601q-15 15 -15 37q0 23 15 37.5t37 14.5
q23 0 37.5 -14.5t14.5 -37.5q0 -22 -14.5 -37t-37.5 -15q-22 0 -37 15zM610 -226q-27 22 -27 63q0 28 18.5 48t41.5 20q18 0 28 -10.5t10 -27.5q0 -26 -23 -40q-8 -5 -12 -9.5t-4 -13.5q0 -28 31 -28q29 0 54 22.5t40 74.5l11 49l14 57l92 339q1 6 7.5 29t6.5 45
q0 12 -5.5 21t-16.5 9q-32 0 -64.5 -51.5t-55.5 -116.5l-20 6q26 76 67 136t93 60q36 0 50 -23.5t14 -50.5q0 -29 -11 -76l-96 -352q-14 -51 -42 -97.5t-65.5 -75.5t-78.5 -29q-30 0 -57 22z" />
    <glyph glyph-name="uni1E3A" unicode="&#x1e3a;" horiz-adv-x="680" 
d="M-2 32h76q27 0 34 27l161 594q2 8 2 12q0 15 -21 15h-76l9 32h295l-8 -32h-76q-27 0 -34 -27l-161 -594q-2 -8 -2 -11q0 -16 21 -16h186q26 0 61 12.5t63 39.5q28 28 51.5 68.5t37.5 73.5t17 42h24l-84 -268h-584zM114 -168l10 40h314l-10 -40h-314z" />
    <glyph glyph-name="Lslash" unicode="&#x141;" horiz-adv-x="680" 
d="M-2 32h76q27 0 34 27l68 252l-86 -43l-12 32l110 55l81 298q2 8 2 12q0 15 -21 15h-76l9 32h295l-8 -32h-76q-27 0 -34 -27l-66 -245l158 80l12 -32l-182 -92l-83 -305q-2 -8 -2 -11q0 -16 21 -16h186q26 0 61 12.5t63 39.5q28 28 51.5 68.5t37.5 73.5t17 42h24l-84 -268
h-584z" />
    <glyph glyph-name="M" unicode="M" horiz-adv-x="894" 
d="M348 680h-20l-152 -554q-6 -22 -6 -42q0 -52 50 -52h48l-8 -32h-270l8 32h48q33 0 56.5 26.5t34.5 67.5l143 527q2 8 2 12q0 15 -21 15h-87l8 32h254v-555l304 555h232l-8 -32h-76q-14 0 -22 -6.5t-12 -20.5l-161 -594q-2 -8 -2 -10q0 -17 23 -17h76l-8 -32h-298l8 32h76
q27 0 34 27l168 621h-15l-382 -692h-25v692z" />
    <glyph glyph-name="uni1E42" unicode="&#x1e42;" horiz-adv-x="894" 
d="M348 680h-20l-152 -554q-6 -22 -6 -42q0 -52 50 -52h48l-8 -32h-270l8 32h48q33 0 56.5 26.5t34.5 67.5l143 527q2 8 2 12q0 15 -21 15h-87l8 32h254v-555l304 555h232l-8 -32h-76q-14 0 -22 -6.5t-12 -20.5l-161 -594q-2 -8 -2 -10q0 -17 23 -17h76l-8 -32h-298l8 32h76
q27 0 34 27l168 621h-15l-382 -692h-25v692zM311 -187.5q-15 14.5 -15 37.5q0 22 15 37t37 15q23 0 37.5 -15t14.5 -37q0 -23 -14.5 -37.5t-37.5 -14.5q-22 0 -37 14.5z" />
    <glyph glyph-name="N" unicode="N" horiz-adv-x="790" 
d="M312 603h-5l-131 -477q-6 -22 -6 -43q0 -51 50 -51h48l-8 -32h-270l8 32h48q32 0 56.5 27t34.5 67l143 527q2 8 2 11q0 16 -21 16h-87l8 32h182l209 -583l125 457q7 24 7 43q0 51 -51 51h-48l8 32h270l-8 -32h-48q-29 0 -54 -25t-37 -69l-164 -604h-40z" />
    <glyph glyph-name="uni01CA" unicode="&#x1ca;" horiz-adv-x="1330" 
d="M312 603h-5l-131 -477q-6 -22 -6 -43q0 -51 50 -51h48l-8 -32h-270l8 32h48q32 0 56.5 27t34.5 67l143 527q2 8 2 11q0 16 -21 16h-87l8 32h182l209 -583l125 457q7 24 7 43q0 51 -51 51h-48l8 32h270l-8 -32h-48q-29 0 -54 -25t-37 -69l-164 -604h-40zM840 18
q-36 36 -36 92q0 47 26 76.5t64 29.5q27 0 44.5 -16t17.5 -41q0 -30 -17 -49t-49 -19q-9 0 -14.5 -6.5t-5.5 -16.5q0 -25 19.5 -39.5t56.5 -14.5q49 0 85.5 36.5t50.5 88.5l139 514q2 8 2 12q0 15 -21 15h-112l8 32h332l-8 -32h-76q-27 0 -34 -27l-127 -468
q-17 -62 -55.5 -108.5t-88.5 -70.5t-103 -24q-62 0 -98 36z" />
    <glyph glyph-name="Nacute" unicode="&#x143;" horiz-adv-x="790" 
d="M528 774l106 123q13 15 24 21t24 6q28 0 28 -29q0 -27 -32 -46l-138 -87zM312 603h-5l-131 -477q-6 -22 -6 -43q0 -51 50 -51h48l-8 -32h-270l8 32h48q32 0 56.5 27t34.5 67l143 527q2 8 2 11q0 16 -21 16h-87l8 32h182l209 -583l125 457q7 24 7 43q0 51 -51 51h-48l8 32
h270l-8 -32h-48q-29 0 -54 -25t-37 -69l-164 -604h-40z" />
    <glyph glyph-name="Ncaron" unicode="&#x147;" horiz-adv-x="790" 
d="M519 762l-101 144l15 14l122 -96l174 96l9 -14l-179 -144h-40zM312 603h-5l-131 -477q-6 -22 -6 -43q0 -51 50 -51h48l-8 -32h-270l8 32h48q32 0 56.5 27t34.5 67l143 527q2 8 2 11q0 16 -21 16h-87l8 32h182l209 -583l125 457q7 24 7 43q0 51 -51 51h-48l8 32h270
l-8 -32h-48q-29 0 -54 -25t-37 -69l-164 -604h-40z" />
    <glyph glyph-name="Ncommaaccent" unicode="&#x145;" horiz-adv-x="790" 
d="M312 603h-5l-131 -477q-6 -22 -6 -43q0 -51 50 -51h48l-8 -32h-270l8 32h48q32 0 56.5 27t34.5 67l143 527q2 8 2 11q0 16 -21 16h-87l8 32h182l209 -583l125 457q7 24 7 43q0 51 -51 51h-48l8 32h270l-8 -32h-48q-29 0 -54 -25t-37 -69l-164 -604h-40zM266 -231
q93 38 93 90q0 11 -9 17q-6 2 -15 2q-18 0 -27.5 11t-9.5 27q0 20 13 32t32 12q23 0 39 -15t16 -43q0 -55 -35.5 -92t-88.5 -58z" />
    <glyph glyph-name="uni1E44" unicode="&#x1e44;" horiz-adv-x="790" 
d="M531 813q-15 15 -15 37q0 23 15 37.5t37 14.5q23 0 37.5 -14.5t14.5 -37.5q0 -22 -14.5 -37t-37.5 -15q-22 0 -37 15zM312 603h-5l-131 -477q-6 -22 -6 -43q0 -51 50 -51h48l-8 -32h-270l8 32h48q32 0 56.5 27t34.5 67l143 527q2 8 2 11q0 16 -21 16h-87l8 32h182
l209 -583l125 457q7 24 7 43q0 51 -51 51h-48l8 32h270l-8 -32h-48q-29 0 -54 -25t-37 -69l-164 -604h-40z" />
    <glyph glyph-name="uni1E46" unicode="&#x1e46;" horiz-adv-x="790" 
d="M312 603h-5l-131 -477q-6 -22 -6 -43q0 -51 50 -51h48l-8 -32h-270l8 32h48q32 0 56.5 27t34.5 67l143 527q2 8 2 11q0 16 -21 16h-87l8 32h182l209 -583l125 457q7 24 7 43q0 51 -51 51h-48l8 32h270l-8 -32h-48q-29 0 -54 -25t-37 -69l-164 -604h-40zM301 -187.5
q-15 14.5 -15 37.5q0 22 15 37t37 15q23 0 37.5 -15t14.5 -37q0 -23 -14.5 -37.5t-37.5 -14.5q-22 0 -37 14.5z" />
    <glyph glyph-name="Eng" unicode="&#x14a;" horiz-adv-x="790" 
d="M343 -212.5q-27 25.5 -27 62.5q0 27 16 47t42 20q23 0 34 -13t11 -29q0 -11 -4.5 -22.5t-10.5 -18.5q-8 -10 -8 -22q0 -9 5 -13.5t13 -4.5q41 0 63.5 31.5t35.5 81.5l20 75l-221 621h-5l-131 -477q-6 -22 -6 -43q0 -51 50 -51h48l-8 -32h-270l8 32h48q32 0 56.5 27
t34.5 67l143 527q2 8 2 11q0 16 -21 16h-87l8 32h182l209 -583l125 457q7 24 7 43q0 51 -51 51h-48l8 32h270l-8 -32h-48q-29 0 -54 -25t-37 -69l-183 -677q-19 -70 -54.5 -108.5t-94.5 -38.5q-35 0 -62 25.5z" />
    <glyph glyph-name="uni01CB" unicode="&#x1cb;" horiz-adv-x="326" 
d="M312 603h-5l-131 -477q-6 -22 -6 -43q0 -51 50 -51h48l-8 -32h-270l8 32h48q32 0 56.5 27t34.5 67l143 527q2 8 2 11q0 16 -21 16h-87l8 32h182l209 -583l125 457q7 24 7 43q0 51 -51 51h-48l8 32h270l-8 -32h-48q-29 0 -54 -25t-37 -69l-164 -604h-40zM1045 601
q-15 15 -15 37q0 23 15 37.5t37 14.5q23 0 37.5 -14.5t14.5 -37.5q0 -22 -14.5 -37t-37.5 -15q-22 0 -37 15zM720 -226q-27 22 -27 63q0 28 18.5 48t41.5 20q18 0 28 -10.5t10 -27.5q0 -26 -23 -40q-8 -5 -12 -9.5t-4 -13.5q0 -28 31 -28q29 0 54 22.5t40 74.5l11 49l14 57
l92 339q1 6 7.5 29t6.5 45q0 12 -5.5 21t-16.5 9q-32 0 -64.5 -51.5t-55.5 -116.5l-20 6q26 76 67 136t93 60q36 0 50 -23.5t14 -50.5q0 -29 -11 -76l-96 -352q-14 -51 -42 -97.5t-65.5 -75.5t-78.5 -29q-30 0 -57 22z" />
    <glyph glyph-name="uni1E48" unicode="&#x1e48;" horiz-adv-x="790" 
d="M312 603h-5l-131 -477q-6 -22 -6 -43q0 -51 50 -51h48l-8 -32h-270l8 32h48q32 0 56.5 27t34.5 67l143 527q2 8 2 11q0 16 -21 16h-87l8 32h182l209 -583l125 457q7 24 7 43q0 51 -51 51h-48l8 32h270l-8 -32h-48q-29 0 -54 -25t-37 -69l-164 -604h-40zM178 -168l10 40
h314l-10 -40h-314z" />
    <glyph glyph-name="Ntilde" unicode="&#xd1;" horiz-adv-x="790" 
d="M412 810q3 38 25.5 65t60.5 27q29 0 90 -21q49 -17 72 -17q18 0 29 11t15 31l20 -2q-3 -38 -25.5 -65t-60.5 -27q-29 0 -90 21q-49 17 -72 17q-18 0 -29 -11t-15 -31zM312 603h-5l-131 -477q-6 -22 -6 -43q0 -51 50 -51h48l-8 -32h-270l8 32h48q32 0 56.5 27t34.5 67
l143 527q2 8 2 11q0 16 -21 16h-87l8 32h182l209 -583l125 457q7 24 7 43q0 51 -51 51h-48l8 32h270l-8 -32h-48q-29 0 -54 -25t-37 -69l-164 -604h-40z" />
    <glyph glyph-name="O" unicode="O" horiz-adv-x="710" 
d="M192 18q-48 36 -74 96.5t-26 133.5q0 130 56 241t145 176t181 65q64 0 112 -36.5t74 -97.5t26 -134q0 -130 -56 -240.5t-145 -175t-181 -64.5q-64 0 -112 36zM454.5 84q57.5 70 91.5 164q27 76 35.5 148t8.5 124q0 87 -32.5 132.5t-91.5 45.5q-85 0 -142.5 -70
t-91.5 -164q-27 -76 -35.5 -148t-8.5 -124q0 -87 32.5 -132.5t91.5 -45.5q85 0 142.5 70z" />
    <glyph glyph-name="Oacute" unicode="&#xd3;" horiz-adv-x="710" 
d="M482 774l106 123q13 15 24 21t24 6q28 0 28 -29q0 -27 -32 -46l-138 -87zM192 18q-48 36 -74 96.5t-26 133.5q0 130 56 241t145 176t181 65q64 0 112 -36.5t74 -97.5t26 -134q0 -130 -56 -240.5t-145 -175t-181 -64.5q-64 0 -112 36zM454.5 84q57.5 70 91.5 164
q27 76 35.5 148t8.5 124q0 87 -32.5 132.5t-91.5 45.5q-85 0 -142.5 -70t-91.5 -164q-27 -76 -35.5 -148t-8.5 -124q0 -87 32.5 -132.5t91.5 -45.5q85 0 142.5 70z" />
    <glyph glyph-name="Obreve" unicode="&#x14e;" horiz-adv-x="710" 
d="M192 18q-48 36 -74 96.5t-26 133.5q0 130 56 241t145 176t181 65q64 0 112 -36.5t74 -97.5t26 -134q0 -130 -56 -240.5t-145 -175t-181 -64.5q-64 0 -112 36zM454.5 84q57.5 70 91.5 164q27 76 35.5 148t8.5 124q0 87 -32.5 132.5t-91.5 45.5q-85 0 -142.5 -70
t-91.5 -164q-27 -76 -35.5 -148t-8.5 -124q0 -87 32.5 -132.5t91.5 -45.5q85 0 142.5 70zM414.5 796q-27.5 34 -27.5 81q0 19 5 39h28v-8q0 -41 23 -70.5t71 -29.5q51 0 91.5 33t60.5 75h28q-9 -33 -35.5 -69t-67.5 -60.5t-90 -24.5q-59 0 -86.5 34z" />
    <glyph glyph-name="Ocircumflex" unicode="&#xd4;" horiz-adv-x="710" 
d="M340 778q106 52 176 142h40q23 -90 100 -142l-14 -16q-24 9 -61.5 38.5t-60.5 57.5q-39 -28 -92.5 -57.5t-81.5 -38.5zM192 18q-48 36 -74 96.5t-26 133.5q0 130 56 241t145 176t181 65q64 0 112 -36.5t74 -97.5t26 -134q0 -130 -56 -240.5t-145 -175t-181 -64.5
q-64 0 -112 36zM454.5 84q57.5 70 91.5 164q27 76 35.5 148t8.5 124q0 87 -32.5 132.5t-91.5 45.5q-85 0 -142.5 -70t-91.5 -164q-27 -76 -35.5 -148t-8.5 -124q0 -87 32.5 -132.5t91.5 -45.5q85 0 142.5 70z" />
    <glyph glyph-name="uni1ED0" unicode="&#x1ed0;" horiz-adv-x="710" 
d="M192 18q-48 36 -74 96.5t-26 133.5q0 130 56 241t145 176t181 65q64 0 112 -36.5t74 -97.5t26 -134q0 -130 -56 -240.5t-145 -175t-181 -64.5q-64 0 -112 36zM454.5 84q57.5 70 91.5 164q27 76 35.5 148t8.5 124q0 87 -32.5 132.5t-91.5 45.5q-85 0 -142.5 -70
t-91.5 -164q-27 -76 -35.5 -148t-8.5 -124q0 -87 32.5 -132.5t91.5 -45.5q85 0 142.5 70zM370 789q89 47 152 151h40q9 -104 70 -151l-12 -13q-60 36 -97 92q-70 -57 -147 -92zM619 868l106 123q13 15 24 21t24 6q15 0 21.5 -8.5t6.5 -20.5q0 -26 -32 -46l-138 -87z" />
    <glyph glyph-name="uni1ED8" unicode="&#x1ed8;" horiz-adv-x="710" 
d="M192 18q-48 36 -74 96.5t-26 133.5q0 130 56 241t145 176t181 65q64 0 112 -36.5t74 -97.5t26 -134q0 -130 -56 -240.5t-145 -175t-181 -64.5q-64 0 -112 36zM454.5 84q57.5 70 91.5 164q27 76 35.5 148t8.5 124q0 87 -32.5 132.5t-91.5 45.5q-85 0 -142.5 -70
t-91.5 -164q-27 -76 -35.5 -148t-8.5 -124q0 -87 32.5 -132.5t91.5 -45.5q85 0 142.5 70zM217.5 -187.5q-14.5 14.5 -14.5 37.5q0 22 14.5 37t37.5 15q22 0 37 -15t15 -37q0 -23 -15 -37.5t-37 -14.5q-23 0 -37.5 14.5zM330 778q106 52 176 142h40q23 -90 100 -142l-14 -16
q-24 9 -61.5 38.5t-60.5 57.5q-39 -28 -92.5 -57.5t-81.5 -38.5z" />
    <glyph glyph-name="uni1ED2" unicode="&#x1ed2;" horiz-adv-x="710" 
d="M192 18q-48 36 -74 96.5t-26 133.5q0 130 56 241t145 176t181 65q64 0 112 -36.5t74 -97.5t26 -134q0 -130 -56 -240.5t-145 -175t-181 -64.5q-64 0 -112 36zM454.5 84q57.5 70 91.5 164q27 76 35.5 148t8.5 124q0 87 -32.5 132.5t-91.5 45.5q-85 0 -142.5 -70
t-91.5 -164q-27 -76 -35.5 -148t-8.5 -124q0 -87 32.5 -132.5t91.5 -45.5q85 0 142.5 70zM370 789q89 47 152 151h40q9 -104 70 -151l-12 -13q-60 36 -97 92q-70 -57 -147 -92zM556 1004q-14 16 -14 35q0 12 8 24t28 12q15 0 24 -9t16 -30l40 -119l-17 -10z" />
    <glyph glyph-name="uni1ED4" unicode="&#x1ed4;" horiz-adv-x="710" 
d="M192 18q-48 36 -74 96.5t-26 133.5q0 130 56 241t145 176t181 65q64 0 112 -36.5t74 -97.5t26 -134q0 -130 -56 -240.5t-145 -175t-181 -64.5q-64 0 -112 36zM454.5 84q57.5 70 91.5 164q27 76 35.5 148t8.5 124q0 87 -32.5 132.5t-91.5 45.5q-85 0 -142.5 -70
t-91.5 -164q-27 -76 -35.5 -148t-8.5 -124q0 -87 32.5 -132.5t91.5 -45.5q85 0 142.5 70zM370 789q89 47 152 151h40q9 -104 70 -151l-12 -13q-60 36 -97 92q-70 -57 -147 -92zM642 956q32 23 39 58q2 10 2 15q0 18 -11 29.5t-34 11.5q-21 0 -40 -11t-21 -25q-3 -10 0 -13
q1 -1 2.5 -2t2.5 0q1 -1 4 1q3 1 4.5 0.5t3.5 0.5q14 -2 14 -15q0 -11 -8.5 -18.5t-22.5 -7.5q-10 0 -17.5 8t-7.5 22q0 31 29.5 52.5t63.5 22.5q33 -1 55.5 -16t22.5 -42q0 -33 -22.5 -54.5t-64.5 -47.5h-35z" />
    <glyph glyph-name="uni1ED6" unicode="&#x1ed6;" horiz-adv-x="710" 
d="M192 18q-48 36 -74 96.5t-26 133.5q0 130 56 241t145 176t181 65q64 0 112 -36.5t74 -97.5t26 -134q0 -130 -56 -240.5t-145 -175t-181 -64.5q-64 0 -112 36zM454.5 84q57.5 70 91.5 164q27 76 35.5 148t8.5 124q0 87 -32.5 132.5t-91.5 45.5q-85 0 -142.5 -70
t-91.5 -164q-27 -76 -35.5 -148t-8.5 -124q0 -87 32.5 -132.5t91.5 -45.5q85 0 142.5 70zM370 789q89 47 152 151h40q9 -104 70 -151l-12 -13q-60 36 -97 92q-70 -57 -147 -92zM445 1022.5q21 27.5 59 27.5q22 0 38.5 -5.5t38.5 -16.5q20 -9 32.5 -13.5t28.5 -4.5
q17 0 25 10t11 30h22q0 -39 -21 -66.5t-59 -27.5q-22 0 -38.5 5.5t-38.5 16.5q-20 9 -32.5 13.5t-28.5 4.5q-17 0 -25 -10t-11 -30h-22q0 39 21 66.5z" />
    <glyph glyph-name="uni020C" unicode="&#x20c;" horiz-adv-x="710" 
d="M329 859q-7 7 -11 17.5t-4 18.5q0 12 7.5 23.5t27.5 11.5q30 0 42 -37l41 -122l-15 -9zM483 859q-7 7 -11 17.5t-4 18.5q0 12 7.5 23.5t27.5 11.5q30 0 42 -37l41 -122l-15 -9zM192 18q-48 36 -74 96.5t-26 133.5q0 130 56 241t145 176t181 65q64 0 112 -36.5t74 -97.5
t26 -134q0 -130 -56 -240.5t-145 -175t-181 -64.5q-64 0 -112 36zM454.5 84q57.5 70 91.5 164q27 76 35.5 148t8.5 124q0 87 -32.5 132.5t-91.5 45.5q-85 0 -142.5 -70t-91.5 -164q-27 -76 -35.5 -148t-8.5 -124q0 -87 32.5 -132.5t91.5 -45.5q85 0 142.5 70z" />
    <glyph glyph-name="Odieresis" unicode="&#xd6;" horiz-adv-x="710" 
d="M383 813q-15 15 -15 37q0 23 15 37.5t37 14.5q23 0 37.5 -14.5t14.5 -37.5q0 -22 -14.5 -37t-37.5 -15q-22 0 -37 15zM587 813q-15 15 -15 37q0 23 15 37.5t37 14.5q23 0 37.5 -14.5t14.5 -37.5q0 -22 -14.5 -37t-37.5 -15q-22 0 -37 15zM192 18q-48 36 -74 96.5
t-26 133.5q0 130 56 241t145 176t181 65q64 0 112 -36.5t74 -97.5t26 -134q0 -130 -56 -240.5t-145 -175t-181 -64.5q-64 0 -112 36zM454.5 84q57.5 70 91.5 164q27 76 35.5 148t8.5 124q0 87 -32.5 132.5t-91.5 45.5q-85 0 -142.5 -70t-91.5 -164q-27 -76 -35.5 -148
t-8.5 -124q0 -87 32.5 -132.5t91.5 -45.5q85 0 142.5 70z" />
    <glyph glyph-name="uni1ECC" unicode="&#x1ecc;" horiz-adv-x="710" 
d="M192 18q-48 36 -74 96.5t-26 133.5q0 130 56 241t145 176t181 65q64 0 112 -36.5t74 -97.5t26 -134q0 -130 -56 -240.5t-145 -175t-181 -64.5q-64 0 -112 36zM454.5 84q57.5 70 91.5 164q27 76 35.5 148t8.5 124q0 87 -32.5 132.5t-91.5 45.5q-85 0 -142.5 -70
t-91.5 -164q-27 -76 -35.5 -148t-8.5 -124q0 -87 32.5 -132.5t91.5 -45.5q85 0 142.5 70zM217.5 -187.5q-14.5 14.5 -14.5 37.5q0 22 14.5 37t37.5 15q22 0 37 -15t15 -37q0 -23 -15 -37.5t-37 -14.5q-23 0 -37.5 14.5z" />
    <glyph glyph-name="Ograve" unicode="&#xd2;" horiz-adv-x="710" 
d="M403 859q-7 7 -11 17.5t-4 18.5q0 12 7.5 23.5t27.5 11.5q30 0 42 -37l41 -122l-15 -9zM192 18q-48 36 -74 96.5t-26 133.5q0 130 56 241t145 176t181 65q64 0 112 -36.5t74 -97.5t26 -134q0 -130 -56 -240.5t-145 -175t-181 -64.5q-64 0 -112 36zM454.5 84
q57.5 70 91.5 164q27 76 35.5 148t8.5 124q0 87 -32.5 132.5t-91.5 45.5q-85 0 -142.5 -70t-91.5 -164q-27 -76 -35.5 -148t-8.5 -124q0 -87 32.5 -132.5t91.5 -45.5q85 0 142.5 70z" />
    <glyph glyph-name="uni1ECE" unicode="&#x1ece;" horiz-adv-x="710" 
d="M192 18q-48 36 -74 96.5t-26 133.5q0 130 56 241t145 176t181 65q64 0 112 -36.5t74 -97.5t26 -134q0 -130 -56 -240.5t-145 -175t-181 -64.5q-64 0 -112 36zM454.5 84q57.5 70 91.5 164q27 76 35.5 148t8.5 124q0 87 -32.5 132.5t-91.5 45.5q-85 0 -142.5 -70
t-91.5 -164q-27 -76 -35.5 -148t-8.5 -124q0 -87 32.5 -132.5t91.5 -45.5q85 0 142.5 70zM529 801q32 23 39 58q2 10 2 15q0 18 -11 29.5t-34 11.5q-21 0 -40 -11t-21 -25q-3 -10 0 -13q1 -1 2.5 -2t2.5 0q1 -1 4 1q3 1 4.5 0.5t3.5 0.5q14 -2 14 -15q0 -11 -8.5 -18.5
t-22.5 -7.5q-10 0 -17.5 8t-7.5 22q0 31 29.5 52.5t63.5 22.5q33 -1 55.5 -16t22.5 -42q0 -33 -22.5 -54.5t-64.5 -47.5h-35z" />
    <glyph glyph-name="Ohorn" unicode="&#x1a0;" horiz-adv-x="710" 
d="M658.5 600q27.5 -63 27.5 -138q0 -130 -56 -240.5t-145 -175t-181 -64.5q-64 0 -112 36t-74 96.5t-26 133.5q0 130 56 241t145 176t181 65q41 0 78 -16q36 5 52 28t24 70h63q-11 -92 -110 -115q50 -34 77.5 -97zM581.5 396q8.5 72 8.5 124q0 87 -32.5 132.5t-91.5 45.5
q-85 0 -142.5 -70t-91.5 -164q-27 -76 -35.5 -148t-8.5 -124q0 -87 32.5 -132.5t91.5 -45.5q85 0 142.5 70t91.5 164q27 76 35.5 148z" />
    <glyph glyph-name="uni1EDA" unicode="&#x1eda;" horiz-adv-x="710" 
d="M658.5 600q27.5 -63 27.5 -138q0 -130 -56 -240.5t-145 -175t-181 -64.5q-64 0 -112 36t-74 96.5t-26 133.5q0 130 56 241t145 176t181 65q41 0 78 -16q36 5 52 28t24 70h63q-11 -92 -110 -115q50 -34 77.5 -97zM581.5 396q8.5 72 8.5 124q0 87 -32.5 132.5t-91.5 45.5
q-85 0 -142.5 -70t-91.5 -164q-27 -76 -35.5 -148t-8.5 -124q0 -87 32.5 -132.5t91.5 -45.5q85 0 142.5 70t91.5 164q27 76 35.5 148zM475 774l106 123q13 15 24 21t24 6q28 0 28 -29q0 -27 -32 -46l-138 -87z" />
    <glyph glyph-name="uni1EE2" unicode="&#x1ee2;" horiz-adv-x="710" 
d="M658.5 600q27.5 -63 27.5 -138q0 -130 -56 -240.5t-145 -175t-181 -64.5q-64 0 -112 36t-74 96.5t-26 133.5q0 130 56 241t145 176t181 65q41 0 78 -16q36 5 52 28t24 70h63q-11 -92 -110 -115q50 -34 77.5 -97zM581.5 396q8.5 72 8.5 124q0 87 -32.5 132.5t-91.5 45.5
q-85 0 -142.5 -70t-91.5 -164q-27 -76 -35.5 -148t-8.5 -124q0 -87 32.5 -132.5t91.5 -45.5q85 0 142.5 70t91.5 164q27 76 35.5 148zM217.5 -187.5q-14.5 14.5 -14.5 37.5q0 22 14.5 37t37.5 15q22 0 37 -15t15 -37q0 -23 -15 -37.5t-37 -14.5q-23 0 -37.5 14.5z" />
    <glyph glyph-name="uni1EDC" unicode="&#x1edc;" horiz-adv-x="710" 
d="M658.5 600q27.5 -63 27.5 -138q0 -130 -56 -240.5t-145 -175t-181 -64.5q-64 0 -112 36t-74 96.5t-26 133.5q0 130 56 241t145 176t181 65q41 0 78 -16q36 5 52 28t24 70h63q-11 -92 -110 -115q50 -34 77.5 -97zM581.5 396q8.5 72 8.5 124q0 87 -32.5 132.5t-91.5 45.5
q-85 0 -142.5 -70t-91.5 -164q-27 -76 -35.5 -148t-8.5 -124q0 -87 32.5 -132.5t91.5 -45.5q85 0 142.5 70t91.5 164q27 76 35.5 148zM410 859q-7 7 -11 17.5t-4 18.5q0 12 7.5 23.5t27.5 11.5q30 0 42 -37l41 -122l-15 -9z" />
    <glyph glyph-name="uni1EDE" unicode="&#x1ede;" horiz-adv-x="710" 
d="M658.5 600q27.5 -63 27.5 -138q0 -130 -56 -240.5t-145 -175t-181 -64.5q-64 0 -112 36t-74 96.5t-26 133.5q0 130 56 241t145 176t181 65q41 0 78 -16q36 5 52 28t24 70h63q-11 -92 -110 -115q50 -34 77.5 -97zM581.5 396q8.5 72 8.5 124q0 87 -32.5 132.5t-91.5 45.5
q-85 0 -142.5 -70t-91.5 -164q-27 -76 -35.5 -148t-8.5 -124q0 -87 32.5 -132.5t91.5 -45.5q85 0 142.5 70t91.5 164q27 76 35.5 148zM529 801q32 23 39 58q2 10 2 15q0 18 -11 29.5t-34 11.5q-21 0 -40 -11t-21 -25q-3 -10 0 -13q1 -1 2.5 -2t2.5 0q1 -1 4 1q3 1 4.5 0.5
t3.5 0.5q14 -2 14 -15q0 -11 -8.5 -18.5t-22.5 -7.5q-10 0 -17.5 8t-7.5 22q0 31 29.5 52.5t63.5 22.5q33 -1 55.5 -16t22.5 -42q0 -33 -22.5 -54.5t-64.5 -47.5h-35z" />
    <glyph glyph-name="uni1EE0" unicode="&#x1ee0;" horiz-adv-x="710" 
d="M658.5 600q27.5 -63 27.5 -138q0 -130 -56 -240.5t-145 -175t-181 -64.5q-64 0 -112 36t-74 96.5t-26 133.5q0 130 56 241t145 176t181 65q41 0 78 -16q36 5 52 28t24 70h63q-11 -92 -110 -115q50 -34 77.5 -97zM581.5 396q8.5 72 8.5 124q0 87 -32.5 132.5t-91.5 45.5
q-85 0 -142.5 -70t-91.5 -164q-27 -76 -35.5 -148t-8.5 -124q0 -87 32.5 -132.5t91.5 -45.5q85 0 142.5 70t91.5 164q27 76 35.5 148zM350 810q3 38 25.5 65t60.5 27q29 0 90 -21q49 -17 72 -17q18 0 29 11t15 31l20 -2q-3 -38 -25.5 -65t-60.5 -27q-29 0 -90 21
q-49 17 -72 17q-18 0 -29 -11t-15 -31z" />
    <glyph glyph-name="Ohungarumlaut" unicode="&#x150;" horiz-adv-x="710" 
d="M400 773l92 133q13 18 24 25t25 7q13 0 20.5 -8.5t7.5 -22.5q0 -23 -28 -44l-128 -101zM555 773l92 133q13 18 24 25t25 7q13 0 20.5 -8.5t7.5 -22.5q0 -23 -28 -44l-128 -101zM192 18q-48 36 -74 96.5t-26 133.5q0 130 56 241t145 176t181 65q64 0 112 -36.5t74 -97.5
t26 -134q0 -130 -56 -240.5t-145 -175t-181 -64.5q-64 0 -112 36zM454.5 84q57.5 70 91.5 164q27 76 35.5 148t8.5 124q0 87 -32.5 132.5t-91.5 45.5q-85 0 -142.5 -70t-91.5 -164q-27 -76 -35.5 -148t-8.5 -124q0 -87 32.5 -132.5t91.5 -45.5q85 0 142.5 70z" />
    <glyph glyph-name="uni020E" unicode="&#x20e;" horiz-adv-x="710" 
d="M192 18q-48 36 -74 96.5t-26 133.5q0 130 56 241t145 176t181 65q64 0 112 -36.5t74 -97.5t26 -134q0 -130 -56 -240.5t-145 -175t-181 -64.5q-64 0 -112 36zM454.5 84q57.5 70 91.5 164q27 76 35.5 148t8.5 124q0 87 -32.5 132.5t-91.5 45.5q-85 0 -142.5 -70
t-91.5 -164q-27 -76 -35.5 -148t-8.5 -124q0 -87 32.5 -132.5t91.5 -45.5q85 0 142.5 70zM346 770q18 31 49 66t68 59.5t71 24.5q33 0 56 -24.5t34.5 -59t13.5 -66.5l-20 -8q-7 46 -33 74t-66 28t-80 -28.5t-73 -73.5z" />
    <glyph glyph-name="Omacron" unicode="&#x14c;" horiz-adv-x="710" 
d="M358 822l10 40h314l-10 -40h-314zM192 18q-48 36 -74 96.5t-26 133.5q0 130 56 241t145 176t181 65q64 0 112 -36.5t74 -97.5t26 -134q0 -130 -56 -240.5t-145 -175t-181 -64.5q-64 0 -112 36zM454.5 84q57.5 70 91.5 164q27 76 35.5 148t8.5 124q0 87 -32.5 132.5
t-91.5 45.5q-85 0 -142.5 -70t-91.5 -164q-27 -76 -35.5 -148t-8.5 -124q0 -87 32.5 -132.5t91.5 -45.5q85 0 142.5 70z" />
    <glyph glyph-name="uni1E52" unicode="&#x1e52;" horiz-adv-x="710" 
d="M497 837l73 85q13 15 23 22.5t21 7.5q13 0 20.5 -8.5t7.5 -18.5q0 -21 -36 -41l-101 -56zM354 776l10 36h298l-10 -36h-298zM192 18q-48 36 -74 96.5t-26 133.5q0 130 56 241t145 176t181 65q64 0 112 -36.5t74 -97.5t26 -134q0 -130 -56 -240.5t-145 -175t-181 -64.5
q-64 0 -112 36zM454.5 84q57.5 70 91.5 164q27 76 35.5 148t8.5 124q0 87 -32.5 132.5t-91.5 45.5q-85 0 -142.5 -70t-91.5 -164q-27 -76 -35.5 -148t-8.5 -124q0 -87 32.5 -132.5t91.5 -45.5q85 0 142.5 70z" />
    <glyph glyph-name="uni1E50" unicode="&#x1e50;" horiz-adv-x="710" 
d="M487 895q-15 15 -15 32q0 9 7.5 17t19.5 8q18 0 32 -31l37 -87l-12 -8zM354 776l10 36h298l-10 -36h-298zM192 18q-48 36 -74 96.5t-26 133.5q0 130 56 241t145 176t181 65q64 0 112 -36.5t74 -97.5t26 -134q0 -130 -56 -240.5t-145 -175t-181 -64.5q-64 0 -112 36z
M454.5 84q57.5 70 91.5 164q27 76 35.5 148t8.5 124q0 87 -32.5 132.5t-91.5 45.5q-85 0 -142.5 -70t-91.5 -164q-27 -76 -35.5 -148t-8.5 -124q0 -87 32.5 -132.5t91.5 -45.5q85 0 142.5 70z" />
    <glyph glyph-name="uni01EA" unicode="&#x1ea;" horiz-adv-x="710" 
d="M178 -227.5q-26 19.5 -26 58.5q0 74 110 151l-1 5q-78 17 -123.5 89.5t-45.5 171.5q0 130 56 241t145 176t181 65q64 0 112 -36.5t74 -97.5t26 -134q0 -128 -55.5 -238.5t-144.5 -176t-185 -65.5q-41 -29 -67 -59.5t-26 -70.5q0 -18 9 -26.5t23 -8.5q17 0 32 11
q11 10 17.5 13t16.5 3q12 0 18.5 -8t6.5 -20q0 -14 -11 -28.5t-32 -24.5t-51 -10q-33 0 -59 19.5zM454.5 84q57.5 70 91.5 164q27 76 35.5 148t8.5 124q0 87 -32.5 132.5t-91.5 45.5q-85 0 -142.5 -70t-91.5 -164q-27 -76 -35.5 -148t-8.5 -124q0 -87 32.5 -132.5
t91.5 -45.5q85 0 142.5 70z" />
    <glyph glyph-name="Oslash" unicode="&#xd8;" horiz-adv-x="710" 
d="M44 6l83 90q-35 65 -35 152q0 130 56 241t145 176t181 65q50 0 90.5 -22.5t68.5 -62.5l79 85l24 -24l-84 -92q34 -66 34 -152q0 -130 -56 -240.5t-145 -175t-181 -64.5q-50 0 -90 22t-69 62l-77 -84zM583 590q-11 54 -41 81t-76 27q-85 0 -142.5 -70t-91.5 -164
q-27 -76 -35.5 -148t-8.5 -124q0 -20 1 -29zM454.5 84q57.5 70 91.5 164q27 76 35.5 148t8.5 124q0 18 -1 27l-394 -427q12 -52 42 -79t75 -27q85 0 142.5 70z" />
    <glyph glyph-name="Oslashacute" unicode="&#x1fe;" horiz-adv-x="710" 
d="M482 774l106 123q13 15 24 21t24 6q28 0 28 -29q0 -27 -32 -46l-138 -87zM44 6l83 90q-35 65 -35 152q0 130 56 241t145 176t181 65q50 0 90.5 -22.5t68.5 -62.5l79 85l24 -24l-84 -92q34 -66 34 -152q0 -130 -56 -240.5t-145 -175t-181 -64.5q-50 0 -90 22t-69 62
l-77 -84zM583 590q-11 54 -41 81t-76 27q-85 0 -142.5 -70t-91.5 -164q-27 -76 -35.5 -148t-8.5 -124q0 -20 1 -29zM454.5 84q57.5 70 91.5 164q27 76 35.5 148t8.5 124q0 18 -1 27l-394 -427q12 -52 42 -79t75 -27q85 0 142.5 70z" />
    <glyph glyph-name="Otilde" unicode="&#xd5;" horiz-adv-x="710" 
d="M366 810q3 38 25.5 65t60.5 27q29 0 90 -21q49 -17 72 -17q18 0 29 11t15 31l20 -2q-3 -38 -25.5 -65t-60.5 -27q-29 0 -90 21q-49 17 -72 17q-18 0 -29 -11t-15 -31zM192 18q-48 36 -74 96.5t-26 133.5q0 130 56 241t145 176t181 65q64 0 112 -36.5t74 -97.5t26 -134
q0 -130 -56 -240.5t-145 -175t-181 -64.5q-64 0 -112 36zM454.5 84q57.5 70 91.5 164q27 76 35.5 148t8.5 124q0 87 -32.5 132.5t-91.5 45.5q-85 0 -142.5 -70t-91.5 -164q-27 -76 -35.5 -148t-8.5 -124q0 -87 32.5 -132.5t91.5 -45.5q85 0 142.5 70z" />
    <glyph glyph-name="uni1E4C" unicode="&#x1e4c;" horiz-adv-x="710" 
d="M476 860l105 74q25 18 41 18q13 0 20.5 -8.5t7.5 -18.5q0 -25 -47 -39l-121 -38zM348 770q17 66 94 66q27 0 81 -14t82 -14q21 0 31.5 7.5t19.5 23.5l14 -5q-17 -66 -94 -66q-34 0 -81 14q-49 14 -82 14q-21 0 -31.5 -7.5t-19.5 -23.5zM192 18q-48 36 -74 96.5t-26 133.5
q0 130 56 241t145 176t181 65q64 0 112 -36.5t74 -97.5t26 -134q0 -130 -56 -240.5t-145 -175t-181 -64.5q-64 0 -112 36zM454.5 84q57.5 70 91.5 164q27 76 35.5 148t8.5 124q0 87 -32.5 132.5t-91.5 45.5q-85 0 -142.5 -70t-91.5 -164q-27 -76 -35.5 -148t-8.5 -124
q0 -87 32.5 -132.5t91.5 -45.5q85 0 142.5 70z" />
    <glyph glyph-name="uni1E4E" unicode="&#x1e4e;" horiz-adv-x="710" 
d="M428 882q-12 12 -12 28q0 17 12 28.5t28 11.5q17 0 28.5 -11.5t11.5 -28.5q0 -16 -11.5 -28t-28.5 -12q-16 0 -28 12zM634 882q-12 12 -12 28q0 17 12 28.5t28 11.5q17 0 28.5 -11.5t11.5 -28.5q0 -16 -11.5 -28t-28.5 -12q-16 0 -28 12zM348 770q17 66 94 66
q27 0 81 -14t82 -14q21 0 31.5 7.5t19.5 23.5l14 -5q-17 -66 -94 -66q-34 0 -81 14q-49 14 -82 14q-21 0 -31.5 -7.5t-19.5 -23.5zM192 18q-48 36 -74 96.5t-26 133.5q0 130 56 241t145 176t181 65q64 0 112 -36.5t74 -97.5t26 -134q0 -130 -56 -240.5t-145 -175t-181 -64.5
q-64 0 -112 36zM454.5 84q57.5 70 91.5 164q27 76 35.5 148t8.5 124q0 87 -32.5 132.5t-91.5 45.5q-85 0 -142.5 -70t-91.5 -164q-27 -76 -35.5 -148t-8.5 -124q0 -87 32.5 -132.5t91.5 -45.5q85 0 142.5 70z" />
    <glyph glyph-name="OE" unicode="&#x152;" horiz-adv-x="1066" 
d="M192 18q-48 36 -74 96.5t-26 133.5q0 116 55.5 228.5t144.5 183t182 70.5q28 0 74 -10q36 -9 62 -9l490 1l-46 -228h-25q1 4 2 16.5t1 31.5q0 84 -27 116t-81 32h-164q-27 0 -34 -27l-73 -269h108q39 0 63 21.5t35.5 50.5t22.5 70h25l-86 -324h-25q10 44 10 75
q0 35 -13.5 55t-46.5 20h-101l-80 -293q-2 -8 -2 -11q0 -16 21 -16h186q26 0 61 12.5t63 39.5q28 28 51.5 68.5t37.5 73.5t17 42h24l-84 -268h-459q-67 0 -123 -12q-38 -6 -54 -6q-64 0 -112 36zM438.5 71q53.5 57 75.5 139l63 229q14 50 14 97q0 71 -31 116.5t-94 45.5
q-85 0 -140.5 -70.5t-93.5 -171.5q-26 -70 -35 -145t-9 -127q0 -170 124 -170q73 0 126.5 57z" />
    <glyph glyph-name="P" unicode="P" horiz-adv-x="654" 
d="M-2 32h76q27 0 34 27l161 594l2 12q0 15 -21 15h-76l9 32h341q74 0 120 -41.5t46 -116.5q0 -60 -36.5 -111.5t-104 -83t-155.5 -31.5h-122l-73 -269q-1 -4 -1 -11q0 -9 4.5 -12.5t15.5 -3.5h112l-8 -32h-332zM415 360q39 0 75.5 19t61.5 53q20 28 31 65.5t11 74.5
q0 55 -26.5 81.5t-65.5 26.5h-108q-27 0 -34 -27l-79 -293h134z" />
    <glyph glyph-name="Thorn" unicode="&#xde;" horiz-adv-x="678" 
d="M-2 32h76q27 0 34 27l161 594q2 8 2 12q0 15 -21 15h-76l9 32h331l-8 -32h-112q-15 0 -22.5 -6t-11.5 -21l-20 -75h148q73 5 119.5 -38.5t46.5 -119.5q0 -60 -36.5 -111.5t-104 -83t-155.5 -31.5h-122l-37 -135l-2 -12q0 -15 21 -15h112l-8 -32h-332zM379 226
q39 0 75.5 19t61.5 53q20 28 31 65.5t11 74.5q0 55 -26.5 81.5t-65.5 26.5h-108q-27 0 -34 -27l-79 -293h134z" />
    <glyph glyph-name="Q" unicode="Q" horiz-adv-x="710" 
d="M352 -160.5q-28 23.5 -28 69.5q0 18 7 51l6 25q-15 -3 -33 -3q-64 0 -112 36t-74 96.5t-26 133.5q0 130 56 241t145 176t181 65q64 0 112 -36t74 -97.5t26 -136.5q0 -114 -43 -210.5t-107 -159.5t-124 -85v-44q0 -40 8 -66.5t37 -26.5q57 0 91 122l24 -7
q-22 -95 -62 -131t-86 -36q-44 0 -72 23.5zM244 38q-13 18 -13 44q0 53 26.5 77t64.5 24t61 -37t28 -101q84 61 131.5 190.5t47.5 284.5q0 87 -32.5 132.5t-91.5 45.5q-80 0 -143.5 -71t-99 -187.5t-35.5 -247.5q0 -112 52 -154h4zM344 18l8 37q3 12 3 26q0 31 -9 52.5
t-38 21.5q-23 0 -36 -18.5t-13 -54.5q0 -34 14.5 -51t37.5 -17q13 0 33 4z" />
    <glyph glyph-name="R" unicode="R" horiz-adv-x="720" 
d="M480 9.5q-26 21.5 -26 71.5q0 23 4.5 46t9.5 43t6 26q16 55 16 81q0 39 -21 59t-55 20h-135l-80 -297q-1 -4 -1 -11q0 -16 20 -16h100l-8 -32h-320l8 32h76q27 0 34 27l161 594q2 8 2 12q0 15 -21 15h-76l8 32h311q85 0 132 -41t47 -121q0 -42 -27 -80.5t-71.5 -65
t-93.5 -35.5l-1 -4q91 -44 91 -145q0 -26 -12 -82q-10 -48 -10 -66q0 -14 6.5 -23t21.5 -9q37 0 58 36t35 86l25 -7q-13 -45 -26.5 -77t-43.5 -61t-78 -29q-40 0 -66 21.5zM410 388q76 0 121 49t45 137q0 53 -26 79.5t-76 26.5h-80q-27 0 -34 -27l-72 -265h122z" />
    <glyph glyph-name="Racute" unicode="&#x154;" horiz-adv-x="720" 
d="M446 774l106 123q13 15 24 21t24 6q28 0 28 -29q0 -27 -32 -46l-138 -87zM480 9.5q-26 21.5 -26 71.5q0 23 4.5 46t9.5 43t6 26q16 55 16 81q0 39 -21 59t-55 20h-135l-80 -297q-1 -4 -1 -11q0 -16 20 -16h100l-8 -32h-320l8 32h76q27 0 34 27l161 594q2 8 2 12
q0 15 -21 15h-76l8 32h311q85 0 132 -41t47 -121q0 -42 -27 -80.5t-71.5 -65t-93.5 -35.5l-1 -4q91 -44 91 -145q0 -26 -12 -82q-10 -48 -10 -66q0 -14 6.5 -23t21.5 -9q37 0 58 36t35 86l25 -7q-13 -45 -26.5 -77t-43.5 -61t-78 -29q-40 0 -66 21.5zM410 388q76 0 121 49
t45 137q0 53 -26 79.5t-76 26.5h-80q-27 0 -34 -27l-72 -265h122z" />
    <glyph glyph-name="Rcaron" unicode="&#x158;" horiz-adv-x="720" 
d="M437 762l-101 144l15 14l122 -96l174 96l9 -14l-179 -144h-40zM480 9.5q-26 21.5 -26 71.5q0 23 4.5 46t9.5 43t6 26q16 55 16 81q0 39 -21 59t-55 20h-135l-80 -297q-1 -4 -1 -11q0 -16 20 -16h100l-8 -32h-320l8 32h76q27 0 34 27l161 594q2 8 2 12q0 15 -21 15h-76
l8 32h311q85 0 132 -41t47 -121q0 -42 -27 -80.5t-71.5 -65t-93.5 -35.5l-1 -4q91 -44 91 -145q0 -26 -12 -82q-10 -48 -10 -66q0 -14 6.5 -23t21.5 -9q37 0 58 36t35 86l25 -7q-13 -45 -26.5 -77t-43.5 -61t-78 -29q-40 0 -66 21.5zM410 388q76 0 121 49t45 137
q0 53 -26 79.5t-76 26.5h-80q-27 0 -34 -27l-72 -265h122z" />
    <glyph glyph-name="Rcommaaccent" unicode="&#x156;" horiz-adv-x="720" 
d="M480 9.5q-26 21.5 -26 71.5q0 23 4.5 46t9.5 43t6 26q16 55 16 81q0 39 -21 59t-55 20h-135l-80 -297q-1 -4 -1 -11q0 -16 20 -16h100l-8 -32h-320l8 32h76q27 0 34 27l161 594q2 8 2 12q0 15 -21 15h-76l8 32h311q85 0 132 -41t47 -121q0 -42 -27 -80.5t-71.5 -65
t-93.5 -35.5l-1 -4q91 -44 91 -145q0 -26 -12 -82q-10 -48 -10 -66q0 -14 6.5 -23t21.5 -9q37 0 58 36t35 86l25 -7q-13 -45 -26.5 -77t-43.5 -61t-78 -29q-40 0 -66 21.5zM410 388q76 0 121 49t45 137q0 53 -26 79.5t-76 26.5h-80q-27 0 -34 -27l-72 -265h122zM226 -231
q93 38 93 90q0 11 -9 17q-6 2 -15 2q-18 0 -27.5 11t-9.5 27q0 20 13 32t32 12q23 0 39 -15t16 -43q0 -55 -35.5 -92t-88.5 -58z" />
    <glyph glyph-name="uni0210" unicode="&#x210;" horiz-adv-x="720" 
d="M293 859q-7 7 -11 17.5t-4 18.5q0 12 7.5 23.5t27.5 11.5q30 0 42 -37l41 -122l-15 -9zM447 859q-7 7 -11 17.5t-4 18.5q0 12 7.5 23.5t27.5 11.5q30 0 42 -37l41 -122l-15 -9zM480 9.5q-26 21.5 -26 71.5q0 23 4.5 46t9.5 43t6 26q16 55 16 81q0 39 -21 59t-55 20h-135
l-80 -297q-1 -4 -1 -11q0 -16 20 -16h100l-8 -32h-320l8 32h76q27 0 34 27l161 594q2 8 2 12q0 15 -21 15h-76l8 32h311q85 0 132 -41t47 -121q0 -42 -27 -80.5t-71.5 -65t-93.5 -35.5l-1 -4q91 -44 91 -145q0 -26 -12 -82q-10 -48 -10 -66q0 -14 6.5 -23t21.5 -9
q37 0 58 36t35 86l25 -7q-13 -45 -26.5 -77t-43.5 -61t-78 -29q-40 0 -66 21.5zM410 388q76 0 121 49t45 137q0 53 -26 79.5t-76 26.5h-80q-27 0 -34 -27l-72 -265h122z" />
    <glyph glyph-name="uni1E5A" unicode="&#x1e5a;" horiz-adv-x="720" 
d="M480 9.5q-26 21.5 -26 71.5q0 23 4.5 46t9.5 43t6 26q16 55 16 81q0 39 -21 59t-55 20h-135l-80 -297q-1 -4 -1 -11q0 -16 20 -16h100l-8 -32h-320l8 32h76q27 0 34 27l161 594q2 8 2 12q0 15 -21 15h-76l8 32h311q85 0 132 -41t47 -121q0 -42 -27 -80.5t-71.5 -65
t-93.5 -35.5l-1 -4q91 -44 91 -145q0 -26 -12 -82q-10 -48 -10 -66q0 -14 6.5 -23t21.5 -9q37 0 58 36t35 86l25 -7q-13 -45 -26.5 -77t-43.5 -61t-78 -29q-40 0 -66 21.5zM410 388q76 0 121 49t45 137q0 53 -26 79.5t-76 26.5h-80q-27 0 -34 -27l-72 -265h122zM261 -187.5
q-15 14.5 -15 37.5q0 22 15 37t37 15q23 0 37.5 -15t14.5 -37q0 -23 -14.5 -37.5t-37.5 -14.5q-22 0 -37 14.5z" />
    <glyph glyph-name="uni0212" unicode="&#x212;" horiz-adv-x="720" 
d="M320 770q18 31 49 66t68 59.5t71 24.5q33 0 56 -24.5t34.5 -59t13.5 -66.5l-20 -8q-7 46 -33 74t-66 28t-80 -28.5t-73 -73.5zM480 9.5q-26 21.5 -26 71.5q0 23 4.5 46t9.5 43t6 26q16 55 16 81q0 39 -21 59t-55 20h-135l-80 -297q-1 -4 -1 -11q0 -16 20 -16h100l-8 -32
h-320l8 32h76q27 0 34 27l161 594q2 8 2 12q0 15 -21 15h-76l8 32h311q85 0 132 -41t47 -121q0 -42 -27 -80.5t-71.5 -65t-93.5 -35.5l-1 -4q91 -44 91 -145q0 -26 -12 -82q-10 -48 -10 -66q0 -14 6.5 -23t21.5 -9q37 0 58 36t35 86l25 -7q-13 -45 -26.5 -77t-43.5 -61
t-78 -29q-40 0 -66 21.5zM410 388q76 0 121 49t45 137q0 53 -26 79.5t-76 26.5h-80q-27 0 -34 -27l-72 -265h122z" />
    <glyph glyph-name="uni1E5E" unicode="&#x1e5e;" horiz-adv-x="720" 
d="M480 9.5q-26 21.5 -26 71.5q0 23 4.5 46t9.5 43t6 26q16 55 16 81q0 39 -21 59t-55 20h-135l-80 -297q-1 -4 -1 -11q0 -16 20 -16h100l-8 -32h-320l8 32h76q27 0 34 27l161 594q2 8 2 12q0 15 -21 15h-76l8 32h311q85 0 132 -41t47 -121q0 -42 -27 -80.5t-71.5 -65
t-93.5 -35.5l-1 -4q91 -44 91 -145q0 -26 -12 -82q-10 -48 -10 -66q0 -14 6.5 -23t21.5 -9q37 0 58 36t35 86l25 -7q-13 -45 -26.5 -77t-43.5 -61t-78 -29q-40 0 -66 21.5zM410 388q76 0 121 49t45 137q0 53 -26 79.5t-76 26.5h-80q-27 0 -34 -27l-72 -265h122zM138 -168
l10 40h314l-10 -40h-314z" />
    <glyph glyph-name="S" unicode="S" horiz-adv-x="620" 
d="M205 7q-45 25 -66 46q-10 10 -17 15t-13 5q-16 0 -30 -27.5t-22 -55.5h-23l80 316h23q-5 -30 -5 -53q0 -63 25.5 -118t68.5 -88t93 -33q84 0 128 35t44 103q0 40 -20 65.5t-61 50.5l-116 71q-61 36 -89 76t-28 105q0 105 60.5 157.5t158.5 52.5q36 0 71.5 -19t57.5 -39
q10 -9 16 -12.5t13 -3.5q17 0 31 22t20 44h23l-58 -260h-23q3 48 -17.5 104t-58.5 94t-84 38q-51 0 -86.5 -19t-52.5 -49.5t-17 -64.5q0 -47 27.5 -75t74.5 -55l94 -55q46 -28 72.5 -50.5t41 -54t14.5 -77.5q0 -100 -64 -158t-180 -58q-61 0 -106 25z" />
    <glyph glyph-name="Sacute" unicode="&#x15a;" horiz-adv-x="620" 
d="M414 774l106 123q13 15 24 21t24 6q28 0 28 -29q0 -27 -32 -46l-138 -87zM205 7q-45 25 -66 46q-10 10 -17 15t-13 5q-16 0 -30 -27.5t-22 -55.5h-23l80 316h23q-5 -30 -5 -53q0 -63 25.5 -118t68.5 -88t93 -33q84 0 128 35t44 103q0 40 -20 65.5t-61 50.5l-116 71
q-61 36 -89 76t-28 105q0 105 60.5 157.5t158.5 52.5q36 0 71.5 -19t57.5 -39q10 -9 16 -12.5t13 -3.5q17 0 31 22t20 44h23l-58 -260h-23q3 48 -17.5 104t-58.5 94t-84 38q-51 0 -86.5 -19t-52.5 -49.5t-17 -64.5q0 -47 27.5 -75t74.5 -55l94 -55q46 -28 72.5 -50.5t41 -54
t14.5 -77.5q0 -100 -64 -158t-180 -58q-61 0 -106 25z" />
    <glyph glyph-name="uni1E64" unicode="&#x1e64;" horiz-adv-x="620" 
d="M411.5 880.5q-12.5 12.5 -12.5 29.5t12.5 29.5t29.5 12.5t29.5 -12.5t12.5 -29.5t-12.5 -29.5t-29.5 -12.5t-29.5 12.5zM415 775l117 109q26 24 46 24q14 0 22 -8.5t8 -21.5q0 -17 -10 -26.5t-26 -17.5l-146 -72zM205 7q-45 25 -66 46q-10 10 -17 15t-13 5
q-16 0 -30 -27.5t-22 -55.5h-23l80 316h23q-5 -30 -5 -53q0 -63 25.5 -118t68.5 -88t93 -33q84 0 128 35t44 103q0 40 -20 65.5t-61 50.5l-116 71q-61 36 -89 76t-28 105q0 105 60.5 157.5t158.5 52.5q36 0 71.5 -19t57.5 -39q10 -9 16 -12.5t13 -3.5q17 0 31 22t20 44h23
l-58 -260h-23q3 48 -17.5 104t-58.5 94t-84 38q-51 0 -86.5 -19t-52.5 -49.5t-17 -64.5q0 -47 27.5 -75t74.5 -55l94 -55q46 -28 72.5 -50.5t41 -54t14.5 -77.5q0 -100 -64 -158t-180 -58q-61 0 -106 25z" />
    <glyph glyph-name="Scaron" unicode="&#x160;" horiz-adv-x="620" 
d="M405 762l-101 144l15 14l122 -96l174 96l9 -14l-179 -144h-40zM205 7q-45 25 -66 46q-10 10 -17 15t-13 5q-16 0 -30 -27.5t-22 -55.5h-23l80 316h23q-5 -30 -5 -53q0 -63 25.5 -118t68.5 -88t93 -33q84 0 128 35t44 103q0 40 -20 65.5t-61 50.5l-116 71q-61 36 -89 76
t-28 105q0 105 60.5 157.5t158.5 52.5q36 0 71.5 -19t57.5 -39q10 -9 16 -12.5t13 -3.5q17 0 31 22t20 44h23l-58 -260h-23q3 48 -17.5 104t-58.5 94t-84 38q-51 0 -86.5 -19t-52.5 -49.5t-17 -64.5q0 -47 27.5 -75t74.5 -55l94 -55q46 -28 72.5 -50.5t41 -54t14.5 -77.5
q0 -100 -64 -158t-180 -58q-61 0 -106 25z" />
    <glyph glyph-name="uni1E66" unicode="&#x1e66;" horiz-adv-x="620" 
d="M422.5 880.5q-12.5 12.5 -12.5 29.5t12.5 29.5t29.5 12.5t29.5 -12.5t12.5 -29.5t-12.5 -29.5t-29.5 -12.5t-29.5 12.5zM405 762l-103 138l12 11l120 -96l179 97l9 -12l-177 -138h-40zM205 7q-45 25 -66 46q-10 10 -17 15t-13 5q-16 0 -30 -27.5t-22 -55.5h-23l80 316h23
q-5 -30 -5 -53q0 -63 25.5 -118t68.5 -88t93 -33q84 0 128 35t44 103q0 40 -20 65.5t-61 50.5l-116 71q-61 36 -89 76t-28 105q0 105 60.5 157.5t158.5 52.5q36 0 71.5 -19t57.5 -39q10 -9 16 -12.5t13 -3.5q17 0 31 22t20 44h23l-58 -260h-23q3 48 -17.5 104t-58.5 94
t-84 38q-51 0 -86.5 -19t-52.5 -49.5t-17 -64.5q0 -47 27.5 -75t74.5 -55l94 -55q46 -28 72.5 -50.5t41 -54t14.5 -77.5q0 -100 -64 -158t-180 -58q-61 0 -106 25z" />
    <glyph glyph-name="Scedilla" unicode="&#x15e;" horiz-adv-x="620" 
d="M153.5 -217.5q-23.5 20.5 -23.5 53.5q0 20 12.5 35t30.5 15q15 0 23.5 -7.5t8.5 -21.5q0 -25 -24 -33q-8 -4 -8 -13q0 -12 8.5 -18.5t31.5 -6.5q30 0 52 22.5t22 52.5q0 28 -14 51q-18 29 -18 43q0 16 8 32q-45 10 -77.5 30.5t-46.5 34.5q-6 4 -15 12.5t-15 8.5
q-16 0 -30 -27.5t-22 -55.5h-23l80 316h23q-5 -30 -5 -53q0 -63 25.5 -118t68.5 -88t93 -33q84 0 128 35t44 103q0 40 -20 65.5t-61 50.5l-116 71q-61 36 -89 76t-28 105q0 105 60.5 157.5t158.5 52.5q36 0 71.5 -19t57.5 -39q10 -9 16 -12.5t13 -3.5q17 0 31 22t20 44h23
l-58 -260h-23q3 48 -17.5 104t-58.5 94t-84 38q-51 0 -86.5 -19t-52.5 -49.5t-17 -64.5q0 -47 27.5 -75t74.5 -55l94 -55q46 -28 72.5 -50.5t41 -54t14.5 -77.5q0 -100 -64 -158t-180 -58q-13 0 -19 1l-2 -4q-5 -8 -5 -17t4 -16t17 -16q18 -14 28 -27.5t10 -33.5
q0 -46 -40 -76.5t-95 -30.5q-32 0 -55.5 20.5z" />
    <glyph glyph-name="Scircumflex" unicode="&#x15c;" horiz-adv-x="620" 
d="M252 778q106 52 176 142h40q23 -90 100 -142l-14 -16q-24 9 -61.5 38.5t-60.5 57.5q-39 -28 -92.5 -57.5t-81.5 -38.5zM205 7q-45 25 -66 46q-10 10 -17 15t-13 5q-16 0 -30 -27.5t-22 -55.5h-23l80 316h23q-5 -30 -5 -53q0 -63 25.5 -118t68.5 -88t93 -33q84 0 128 35
t44 103q0 40 -20 65.5t-61 50.5l-116 71q-61 36 -89 76t-28 105q0 105 60.5 157.5t158.5 52.5q36 0 71.5 -19t57.5 -39q10 -9 16 -12.5t13 -3.5q17 0 31 22t20 44h23l-58 -260h-23q3 48 -17.5 104t-58.5 94t-84 38q-51 0 -86.5 -19t-52.5 -49.5t-17 -64.5q0 -47 27.5 -75
t74.5 -55l94 -55q46 -28 72.5 -50.5t41 -54t14.5 -77.5q0 -100 -64 -158t-180 -58q-61 0 -106 25z" />
    <glyph glyph-name="Scommaaccent" unicode="&#x218;" horiz-adv-x="620" 
d="M205 7q-45 25 -66 46q-10 10 -17 15t-13 5q-16 0 -30 -27.5t-22 -55.5h-23l80 316h23q-5 -30 -5 -53q0 -63 25.5 -118t68.5 -88t93 -33q84 0 128 35t44 103q0 40 -20 65.5t-61 50.5l-116 71q-61 36 -89 76t-28 105q0 105 60.5 157.5t158.5 52.5q36 0 71.5 -19t57.5 -39
q10 -9 16 -12.5t13 -3.5q17 0 31 22t20 44h23l-58 -260h-23q3 48 -17.5 104t-58.5 94t-84 38q-51 0 -86.5 -19t-52.5 -49.5t-17 -64.5q0 -47 27.5 -75t74.5 -55l94 -55q46 -28 72.5 -50.5t41 -54t14.5 -77.5q0 -100 -64 -158t-180 -58q-61 0 -106 25zM174 -231q93 38 93 90
q0 11 -9 17q-6 2 -15 2q-18 0 -27.5 11t-9.5 27q0 20 13 32t32 12q23 0 39 -15t16 -43q0 -55 -35.5 -92t-88.5 -58z" />
    <glyph glyph-name="uni1E60" unicode="&#x1e60;" horiz-adv-x="620" 
d="M416 813q-15 15 -15 37q0 23 15 37.5t37 14.5q23 0 37.5 -14.5t14.5 -37.5q0 -22 -14.5 -37t-37.5 -15q-22 0 -37 15zM205 7q-45 25 -66 46q-10 10 -17 15t-13 5q-16 0 -30 -27.5t-22 -55.5h-23l80 316h23q-5 -30 -5 -53q0 -63 25.5 -118t68.5 -88t93 -33q84 0 128 35
t44 103q0 40 -20 65.5t-61 50.5l-116 71q-61 36 -89 76t-28 105q0 105 60.5 157.5t158.5 52.5q36 0 71.5 -19t57.5 -39q10 -9 16 -12.5t13 -3.5q17 0 31 22t20 44h23l-58 -260h-23q3 48 -17.5 104t-58.5 94t-84 38q-51 0 -86.5 -19t-52.5 -49.5t-17 -64.5q0 -47 27.5 -75
t74.5 -55l94 -55q46 -28 72.5 -50.5t41 -54t14.5 -77.5q0 -100 -64 -158t-180 -58q-61 0 -106 25z" />
    <glyph glyph-name="uni1E62" unicode="&#x1e62;" horiz-adv-x="620" 
d="M205 7q-45 25 -66 46q-10 10 -17 15t-13 5q-16 0 -30 -27.5t-22 -55.5h-23l80 316h23q-5 -30 -5 -53q0 -63 25.5 -118t68.5 -88t93 -33q84 0 128 35t44 103q0 40 -20 65.5t-61 50.5l-116 71q-61 36 -89 76t-28 105q0 105 60.5 157.5t158.5 52.5q36 0 71.5 -19t57.5 -39
q10 -9 16 -12.5t13 -3.5q17 0 31 22t20 44h23l-58 -260h-23q3 48 -17.5 104t-58.5 94t-84 38q-51 0 -86.5 -19t-52.5 -49.5t-17 -64.5q0 -47 27.5 -75t74.5 -55l94 -55q46 -28 72.5 -50.5t41 -54t14.5 -77.5q0 -100 -64 -158t-180 -58q-61 0 -106 25zM207 -187.5
q-15 14.5 -15 37.5q0 22 15 37t37 15q23 0 37.5 -15t14.5 -37q0 -23 -14.5 -37.5t-37.5 -14.5q-22 0 -37 14.5z" />
    <glyph glyph-name="uni1E68" unicode="&#x1e68;" horiz-adv-x="620" 
d="M416 813q-15 15 -15 37q0 23 15 37.5t37 14.5q23 0 37.5 -14.5t14.5 -37.5q0 -22 -14.5 -37t-37.5 -15q-22 0 -37 15zM205 7q-45 25 -66 46q-10 10 -17 15t-13 5q-16 0 -30 -27.5t-22 -55.5h-23l80 316h23q-5 -30 -5 -53q0 -63 25.5 -118t68.5 -88t93 -33q84 0 128 35
t44 103q0 40 -20 65.5t-61 50.5l-116 71q-61 36 -89 76t-28 105q0 105 60.5 157.5t158.5 52.5q36 0 71.5 -19t57.5 -39q10 -9 16 -12.5t13 -3.5q17 0 31 22t20 44h23l-58 -260h-23q3 48 -17.5 104t-58.5 94t-84 38q-51 0 -86.5 -19t-52.5 -49.5t-17 -64.5q0 -47 27.5 -75
t74.5 -55l94 -55q46 -28 72.5 -50.5t41 -54t14.5 -77.5q0 -100 -64 -158t-180 -58q-61 0 -106 25zM207 -187.5q-15 14.5 -15 37.5q0 22 15 37t37 15q23 0 37.5 -15t14.5 -37q0 -23 -14.5 -37.5t-37.5 -14.5q-22 0 -37 14.5z" />
    <glyph glyph-name="uni1E9E" unicode="&#x1e9e;" horiz-adv-x="780" 
d="M328 -2.5q-34 15.5 -55 43t-21 63.5q0 48 29 84.5t79 36.5q28 0 44.5 -15.5t16.5 -39.5q0 -28 -17 -43t-49 -22q-21 -5 -33 -14t-12 -25q0 -21 27.5 -36.5t57.5 -15.5q75 0 129.5 33.5t83.5 93.5t29 136q0 53 -23.5 88t-76.5 35q-37 0 -61.5 -7.5t-56.5 -27.5l-16 11
l301 248l-6 5q-33 -9 -73 -9q-46 0 -83 15q-25 10 -41.5 13.5t-35.5 3.5q-56 0 -97 -32.5t-58 -95.5l-141 -524h-201l9 32h82q27 0 34 27l98 365q27 102 91.5 171t144 102t155.5 33q41 0 87 -6q48 -6 75 -6q30 0 49.5 2.5t44.5 9.5l14 -20l-338 -279l1 -3q23 4 45 4
q88 0 133.5 -46t45.5 -118q0 -80 -40 -145t-116.5 -103t-182.5 -38q-38 0 -72 15.5z" />
    <glyph glyph-name="uni018F" unicode="&#x18f;" horiz-adv-x="700" 
d="M192 12q-46 30 -73 84.5t-27 126.5q0 24 6.5 63t16.5 80h452q8 58 10.5 84.5t2.5 65.5q0 84 -27.5 133t-105.5 49q-56 0 -108 -32t-91.5 -84t-60.5 -112l-31 11q36 106 113.5 177.5t194.5 71.5q67 0 115 -36.5t72.5 -98t24.5 -135.5q0 -120 -53 -230.5t-141.5 -179
t-187.5 -68.5q-56 0 -102 30zM431 70.5q55 56.5 85.5 129t42.5 134.5h-346q-25 -88 -25 -163q0 -67 27 -112t83 -45q78 0 133 56.5z" />
    <glyph glyph-name="T" unicode="T" horiz-adv-x="690" 
d="M114 32h100q26 0 33 27l161 594q2 10 2 12q0 15 -20 15h-33q-34 0 -64.5 -17t-50.5 -36q-29 -28 -51.5 -68.5t-36 -76t-13.5 -38.5h-25l80 268h548l-63 -268h-25q1 4 3.5 18t5.5 38t3 48q0 74 -30.5 103t-69.5 29h-33q-30 0 -36 -27l-161 -594q-1 -4 -1 -11q0 -8 4.5 -12
t14.5 -4h100l-8 -32h-342z" />
    <glyph glyph-name="Tbar" unicode="&#x166;" horiz-adv-x="690" 
d="M114 32h100q26 0 33 27l81 297h-142l8 36h143l71 261q2 10 2 12q0 15 -20 15h-33q-34 0 -64.5 -17t-50.5 -36q-29 -28 -51.5 -68.5t-36 -76t-13.5 -38.5h-25l80 268h548l-63 -268h-25q1 4 3.5 18t5.5 38t3 48q0 74 -30.5 103t-69.5 29h-33q-30 0 -36 -27l-71 -261h144
l-8 -36h-146l-80 -297q-1 -4 -1 -11q0 -8 4.5 -12t14.5 -4h100l-8 -32h-342z" />
    <glyph glyph-name="Tcaron" unicode="&#x164;" horiz-adv-x="690" 
d="M457 762l-101 144l15 14l122 -96l174 96l9 -14l-179 -144h-40zM114 32h100q26 0 33 27l161 594q2 10 2 12q0 15 -20 15h-33q-34 0 -64.5 -17t-50.5 -36q-29 -28 -51.5 -68.5t-36 -76t-13.5 -38.5h-25l80 268h548l-63 -268h-25q1 4 3.5 18t5.5 38t3 48q0 74 -30.5 103
t-69.5 29h-33q-30 0 -36 -27l-161 -594q-1 -4 -1 -11q0 -8 4.5 -12t14.5 -4h100l-8 -32h-342z" />
    <glyph glyph-name="uni0162" unicode="&#x162;" horiz-adv-x="690" 
d="M114 32h100q26 0 33 27l161 594q2 10 2 12q0 15 -20 15h-33q-34 0 -64.5 -17t-50.5 -36q-29 -28 -51.5 -68.5t-36 -76t-13.5 -38.5h-25l80 268h548l-63 -268h-25q1 4 3.5 18t5.5 38t3 48q0 74 -30.5 103t-69.5 29h-33q-30 0 -36 -27l-161 -594q-1 -4 -1 -11q0 -8 4.5 -12
t14.5 -4h100l-8 -32h-342zM168 -231q93 38 93 90q0 11 -9 17q-6 2 -15 2q-18 0 -27.5 11t-9.5 27q0 20 13 32t32 12q23 0 39 -15t16 -43q0 -55 -35.5 -92t-88.5 -58z" />
    <glyph glyph-name="uni021A" unicode="&#x21a;" horiz-adv-x="690" 
d="M114 32h100q26 0 33 27l161 594q2 10 2 12q0 15 -20 15h-33q-34 0 -64.5 -17t-50.5 -36q-29 -28 -51.5 -68.5t-36 -76t-13.5 -38.5h-25l80 268h548l-63 -268h-25q1 4 3.5 18t5.5 38t3 48q0 74 -30.5 103t-69.5 29h-33q-30 0 -36 -27l-161 -594q-1 -4 -1 -11q0 -8 4.5 -12
t14.5 -4h100l-8 -32h-342zM168 -231q93 38 93 90q0 11 -9 17q-6 2 -15 2q-18 0 -27.5 11t-9.5 27q0 20 13 32t32 12q23 0 39 -15t16 -43q0 -55 -35.5 -92t-88.5 -58z" />
    <glyph glyph-name="uni1E6C" unicode="&#x1e6c;" horiz-adv-x="690" 
d="M114 32h100q26 0 33 27l161 594q2 10 2 12q0 15 -20 15h-33q-34 0 -64.5 -17t-50.5 -36q-29 -28 -51.5 -68.5t-36 -76t-13.5 -38.5h-25l80 268h548l-63 -268h-25q1 4 3.5 18t5.5 38t3 48q0 74 -30.5 103t-69.5 29h-33q-30 0 -36 -27l-161 -594q-1 -4 -1 -11q0 -8 4.5 -12
t14.5 -4h100l-8 -32h-342zM203 -187.5q-15 14.5 -15 37.5q0 22 15 37t37 15q23 0 37.5 -15t14.5 -37q0 -23 -14.5 -37.5t-37.5 -14.5q-22 0 -37 14.5z" />
    <glyph glyph-name="uni1E6E" unicode="&#x1e6e;" horiz-adv-x="690" 
d="M114 32h100q26 0 33 27l161 594q2 10 2 12q0 15 -20 15h-33q-34 0 -64.5 -17t-50.5 -36q-29 -28 -51.5 -68.5t-36 -76t-13.5 -38.5h-25l80 268h548l-63 -268h-25q1 4 3.5 18t5.5 38t3 48q0 74 -30.5 103t-69.5 29h-33q-30 0 -36 -27l-161 -594q-1 -4 -1 -11q0 -8 4.5 -12
t14.5 -4h100l-8 -32h-342zM80 -168l10 40h314l-10 -40h-314z" />
    <glyph glyph-name="U" unicode="U" horiz-adv-x="784" 
d="M232.5 8q-51.5 26 -77 70t-25.5 98q0 24 9 62l112 415q2 8 2 11q0 16 -21 16h-76l8 32h296l-8 -32h-76q-14 0 -22 -6.5t-12 -20.5l-119 -442q-9 -38 -9 -57q0 -66 42.5 -103t112.5 -37q90 0 144 53t75 131l107 390q6 24 6 42q0 21 -11.5 35.5t-39.5 14.5h-48l8 32h270
l-8 -32h-48q-31 0 -55.5 -26.5t-35.5 -67.5l-104 -378q-29 -106 -90.5 -166t-177.5 -60q-77 0 -128.5 26z" />
    <glyph glyph-name="Uacute" unicode="&#xda;" horiz-adv-x="784" 
d="M532 774l106 123q13 15 24 21t24 6q28 0 28 -29q0 -27 -32 -46l-138 -87zM232.5 8q-51.5 26 -77 70t-25.5 98q0 24 9 62l112 415q2 8 2 11q0 16 -21 16h-76l8 32h296l-8 -32h-76q-14 0 -22 -6.5t-12 -20.5l-119 -442q-9 -38 -9 -57q0 -66 42.5 -103t112.5 -37
q90 0 144 53t75 131l107 390q6 24 6 42q0 21 -11.5 35.5t-39.5 14.5h-48l8 32h270l-8 -32h-48q-31 0 -55.5 -26.5t-35.5 -67.5l-104 -378q-29 -106 -90.5 -166t-177.5 -60q-77 0 -128.5 26z" />
    <glyph glyph-name="Ubreve" unicode="&#x16c;" horiz-adv-x="784" 
d="M469.5 796q-27.5 34 -27.5 81q0 19 5 39h28v-8q0 -41 23 -70.5t71 -29.5q51 0 91.5 33t60.5 75h28q-9 -33 -35.5 -69t-67.5 -60.5t-90 -24.5q-59 0 -86.5 34zM232.5 8q-51.5 26 -77 70t-25.5 98q0 24 9 62l112 415q2 8 2 11q0 16 -21 16h-76l8 32h296l-8 -32h-76
q-14 0 -22 -6.5t-12 -20.5l-119 -442q-9 -38 -9 -57q0 -66 42.5 -103t112.5 -37q90 0 144 53t75 131l107 390q6 24 6 42q0 21 -11.5 35.5t-39.5 14.5h-48l8 32h270l-8 -32h-48q-31 0 -55.5 -26.5t-35.5 -67.5l-104 -378q-29 -106 -90.5 -166t-177.5 -60q-77 0 -128.5 26z
" />
    <glyph glyph-name="Ucircumflex" unicode="&#xdb;" horiz-adv-x="784" 
d="M390 778q106 52 176 142h40q23 -90 100 -142l-14 -16q-24 9 -61.5 38.5t-60.5 57.5q-39 -28 -92.5 -57.5t-81.5 -38.5zM232.5 8q-51.5 26 -77 70t-25.5 98q0 24 9 62l112 415q2 8 2 11q0 16 -21 16h-76l8 32h296l-8 -32h-76q-14 0 -22 -6.5t-12 -20.5l-119 -442
q-9 -38 -9 -57q0 -66 42.5 -103t112.5 -37q90 0 144 53t75 131l107 390q6 24 6 42q0 21 -11.5 35.5t-39.5 14.5h-48l8 32h270l-8 -32h-48q-31 0 -55.5 -26.5t-35.5 -67.5l-104 -378q-29 -106 -90.5 -166t-177.5 -60q-77 0 -128.5 26z" />
    <glyph glyph-name="uni0214" unicode="&#x214;" horiz-adv-x="784" 
d="M379 859q-7 7 -11 17.5t-4 18.5q0 12 7.5 23.5t27.5 11.5q30 0 42 -37l41 -122l-15 -9zM533 859q-7 7 -11 17.5t-4 18.5q0 12 7.5 23.5t27.5 11.5q30 0 42 -37l41 -122l-15 -9zM232.5 8q-51.5 26 -77 70t-25.5 98q0 24 9 62l112 415q2 8 2 11q0 16 -21 16h-76l8 32h296
l-8 -32h-76q-14 0 -22 -6.5t-12 -20.5l-119 -442q-9 -38 -9 -57q0 -66 42.5 -103t112.5 -37q90 0 144 53t75 131l107 390q6 24 6 42q0 21 -11.5 35.5t-39.5 14.5h-48l8 32h270l-8 -32h-48q-31 0 -55.5 -26.5t-35.5 -67.5l-104 -378q-29 -106 -90.5 -166t-177.5 -60
q-77 0 -128.5 26z" />
    <glyph glyph-name="Udieresis" unicode="&#xdc;" horiz-adv-x="784" 
d="M433 813q-15 15 -15 37q0 23 15 37.5t37 14.5q23 0 37.5 -14.5t14.5 -37.5q0 -22 -14.5 -37t-37.5 -15q-22 0 -37 15zM637 813q-15 15 -15 37q0 23 15 37.5t37 14.5q23 0 37.5 -14.5t14.5 -37.5q0 -22 -14.5 -37t-37.5 -15q-22 0 -37 15zM232.5 8q-51.5 26 -77 70
t-25.5 98q0 24 9 62l112 415q2 8 2 11q0 16 -21 16h-76l8 32h296l-8 -32h-76q-14 0 -22 -6.5t-12 -20.5l-119 -442q-9 -38 -9 -57q0 -66 42.5 -103t112.5 -37q90 0 144 53t75 131l107 390q6 24 6 42q0 21 -11.5 35.5t-39.5 14.5h-48l8 32h270l-8 -32h-48q-31 0 -55.5 -26.5
t-35.5 -67.5l-104 -378q-29 -106 -90.5 -166t-177.5 -60q-77 0 -128.5 26z" />
    <glyph glyph-name="uni1EE4" unicode="&#x1ee4;" horiz-adv-x="784" 
d="M232.5 8q-51.5 26 -77 70t-25.5 98q0 24 9 62l112 415q2 8 2 11q0 16 -21 16h-76l8 32h296l-8 -32h-76q-14 0 -22 -6.5t-12 -20.5l-119 -442q-9 -38 -9 -57q0 -66 42.5 -103t112.5 -37q90 0 144 53t75 131l107 390q6 24 6 42q0 21 -11.5 35.5t-39.5 14.5h-48l8 32h270
l-8 -32h-48q-31 0 -55.5 -26.5t-35.5 -67.5l-104 -378q-29 -106 -90.5 -166t-177.5 -60q-77 0 -128.5 26zM254.5 -187.5q-14.5 14.5 -14.5 37.5q0 22 14.5 37t37.5 15q22 0 37 -15t15 -37q0 -23 -15 -37.5t-37 -14.5q-23 0 -37.5 14.5z" />
    <glyph glyph-name="Ugrave" unicode="&#xd9;" horiz-adv-x="784" 
d="M453 859q-7 7 -11 17.5t-4 18.5q0 12 7.5 23.5t27.5 11.5q30 0 42 -37l41 -122l-15 -9zM232.5 8q-51.5 26 -77 70t-25.5 98q0 24 9 62l112 415q2 8 2 11q0 16 -21 16h-76l8 32h296l-8 -32h-76q-14 0 -22 -6.5t-12 -20.5l-119 -442q-9 -38 -9 -57q0 -66 42.5 -103
t112.5 -37q90 0 144 53t75 131l107 390q6 24 6 42q0 21 -11.5 35.5t-39.5 14.5h-48l8 32h270l-8 -32h-48q-31 0 -55.5 -26.5t-35.5 -67.5l-104 -378q-29 -106 -90.5 -166t-177.5 -60q-77 0 -128.5 26z" />
    <glyph glyph-name="uni1EE6" unicode="&#x1ee6;" horiz-adv-x="784" 
d="M232.5 8q-51.5 26 -77 70t-25.5 98q0 24 9 62l112 415q2 8 2 11q0 16 -21 16h-76l8 32h296l-8 -32h-76q-14 0 -22 -6.5t-12 -20.5l-119 -442q-9 -38 -9 -57q0 -66 42.5 -103t112.5 -37q90 0 144 53t75 131l107 390q6 24 6 42q0 21 -11.5 35.5t-39.5 14.5h-48l8 32h270
l-8 -32h-48q-31 0 -55.5 -26.5t-35.5 -67.5l-104 -378q-29 -106 -90.5 -166t-177.5 -60q-77 0 -128.5 26zM566 801q32 23 39 58q2 10 2 15q0 18 -11 29.5t-34 11.5q-21 0 -40 -11t-21 -25q-3 -10 0 -13q1 -1 2.5 -2t2.5 0q1 -1 4 1q3 1 4.5 0.5t3.5 0.5q14 -2 14 -15
q0 -11 -8.5 -18.5t-22.5 -7.5q-10 0 -17.5 8t-7.5 22q0 31 29.5 52.5t63.5 22.5q33 -1 55.5 -16t22.5 -42q0 -33 -22.5 -54.5t-64.5 -47.5h-35z" />
    <glyph glyph-name="Uhorn" unicode="&#x1af;" horiz-adv-x="784" 
d="M855.5 728.5q-36.5 -28.5 -92.5 -34.5l-134 -486q-29 -106 -90.5 -166t-177.5 -60q-77 0 -128.5 26t-77 70t-25.5 98q0 24 9 62l112 415q2 8 2 11q0 16 -21 16h-76l8 32h296l-8 -32h-76q-14 0 -22 -6.5t-12 -20.5l-119 -442q-9 -38 -9 -57q0 -66 42.5 -103t112.5 -37
q90 0 144 53t75 131l107 390q6 24 6 42q0 21 -11.5 35.5t-39.5 14.5h-48l8 32h125q49 0 69.5 23t30.5 77h63q-6 -55 -42.5 -83.5z" />
    <glyph glyph-name="uni1EE8" unicode="&#x1ee8;" horiz-adv-x="784" 
d="M855.5 728.5q-36.5 -28.5 -92.5 -34.5l-134 -486q-29 -106 -90.5 -166t-177.5 -60q-77 0 -128.5 26t-77 70t-25.5 98q0 24 9 62l112 415q2 8 2 11q0 16 -21 16h-76l8 32h296l-8 -32h-76q-14 0 -22 -6.5t-12 -20.5l-119 -442q-9 -38 -9 -57q0 -66 42.5 -103t112.5 -37
q90 0 144 53t75 131l107 390q6 24 6 42q0 21 -11.5 35.5t-39.5 14.5h-48l8 32h125q49 0 69.5 23t30.5 77h63q-6 -55 -42.5 -83.5zM512 774l106 123q13 15 24 21t24 6q28 0 28 -29q0 -27 -32 -46l-138 -87z" />
    <glyph glyph-name="uni1EF0" unicode="&#x1ef0;" horiz-adv-x="784" 
d="M855.5 728.5q-36.5 -28.5 -92.5 -34.5l-134 -486q-29 -106 -90.5 -166t-177.5 -60q-77 0 -128.5 26t-77 70t-25.5 98q0 24 9 62l112 415q2 8 2 11q0 16 -21 16h-76l8 32h296l-8 -32h-76q-14 0 -22 -6.5t-12 -20.5l-119 -442q-9 -38 -9 -57q0 -66 42.5 -103t112.5 -37
q90 0 144 53t75 131l107 390q6 24 6 42q0 21 -11.5 35.5t-39.5 14.5h-48l8 32h125q49 0 69.5 23t30.5 77h63q-6 -55 -42.5 -83.5zM254.5 -187.5q-14.5 14.5 -14.5 37.5q0 22 14.5 37t37.5 15q22 0 37 -15t15 -37q0 -23 -15 -37.5t-37 -14.5q-23 0 -37.5 14.5z" />
    <glyph glyph-name="uni1EEA" unicode="&#x1eea;" horiz-adv-x="784" 
d="M855.5 728.5q-36.5 -28.5 -92.5 -34.5l-134 -486q-29 -106 -90.5 -166t-177.5 -60q-77 0 -128.5 26t-77 70t-25.5 98q0 24 9 62l112 415q2 8 2 11q0 16 -21 16h-76l8 32h296l-8 -32h-76q-14 0 -22 -6.5t-12 -20.5l-119 -442q-9 -38 -9 -57q0 -66 42.5 -103t112.5 -37
q90 0 144 53t75 131l107 390q6 24 6 42q0 21 -11.5 35.5t-39.5 14.5h-48l8 32h125q49 0 69.5 23t30.5 77h63q-6 -55 -42.5 -83.5zM447 859q-7 7 -11 17.5t-4 18.5q0 12 7.5 23.5t27.5 11.5q30 0 42 -37l41 -122l-15 -9z" />
    <glyph glyph-name="uni1EEC" unicode="&#x1eec;" horiz-adv-x="784" 
d="M855.5 728.5q-36.5 -28.5 -92.5 -34.5l-134 -486q-29 -106 -90.5 -166t-177.5 -60q-77 0 -128.5 26t-77 70t-25.5 98q0 24 9 62l112 415q2 8 2 11q0 16 -21 16h-76l8 32h296l-8 -32h-76q-14 0 -22 -6.5t-12 -20.5l-119 -442q-9 -38 -9 -57q0 -66 42.5 -103t112.5 -37
q90 0 144 53t75 131l107 390q6 24 6 42q0 21 -11.5 35.5t-39.5 14.5h-48l8 32h125q49 0 69.5 23t30.5 77h63q-6 -55 -42.5 -83.5zM566 801q32 23 39 58q2 10 2 15q0 18 -11 29.5t-34 11.5q-21 0 -40 -11t-21 -25q-3 -10 0 -13q1 -1 2.5 -2t2.5 0q1 -1 4 1q3 1 4.5 0.5
t3.5 0.5q14 -2 14 -15q0 -11 -8.5 -18.5t-22.5 -7.5q-10 0 -17.5 8t-7.5 22q0 31 29.5 52.5t63.5 22.5q33 -1 55.5 -16t22.5 -42q0 -33 -22.5 -54.5t-64.5 -47.5h-35z" />
    <glyph glyph-name="uni1EEE" unicode="&#x1eee;" horiz-adv-x="784" 
d="M855.5 728.5q-36.5 -28.5 -92.5 -34.5l-134 -486q-29 -106 -90.5 -166t-177.5 -60q-77 0 -128.5 26t-77 70t-25.5 98q0 24 9 62l112 415q2 8 2 11q0 16 -21 16h-76l8 32h296l-8 -32h-76q-14 0 -22 -6.5t-12 -20.5l-119 -442q-9 -38 -9 -57q0 -66 42.5 -103t112.5 -37
q90 0 144 53t75 131l107 390q6 24 6 42q0 21 -11.5 35.5t-39.5 14.5h-48l8 32h125q49 0 69.5 23t30.5 77h63q-6 -55 -42.5 -83.5zM387 810q3 38 25.5 65t60.5 27q29 0 90 -21q49 -17 72 -17q18 0 29 11t15 31l20 -2q-3 -38 -25.5 -65t-60.5 -27q-29 0 -90 21q-49 17 -72 17
q-18 0 -29 -11t-15 -31z" />
    <glyph glyph-name="Uhungarumlaut" unicode="&#x170;" horiz-adv-x="784" 
d="M450 773l92 133q13 18 24 25t25 7q13 0 20.5 -8.5t7.5 -22.5q0 -23 -28 -44l-128 -101zM605 773l92 133q13 18 24 25t25 7q13 0 20.5 -8.5t7.5 -22.5q0 -23 -28 -44l-128 -101zM232.5 8q-51.5 26 -77 70t-25.5 98q0 24 9 62l112 415q2 8 2 11q0 16 -21 16h-76l8 32h296
l-8 -32h-76q-14 0 -22 -6.5t-12 -20.5l-119 -442q-9 -38 -9 -57q0 -66 42.5 -103t112.5 -37q90 0 144 53t75 131l107 390q6 24 6 42q0 21 -11.5 35.5t-39.5 14.5h-48l8 32h270l-8 -32h-48q-31 0 -55.5 -26.5t-35.5 -67.5l-104 -378q-29 -106 -90.5 -166t-177.5 -60
q-77 0 -128.5 26z" />
    <glyph glyph-name="uni0216" unicode="&#x216;" horiz-adv-x="784" 
d="M406 770q18 31 49 66t68 59.5t71 24.5q33 0 56 -24.5t34.5 -59t13.5 -66.5l-20 -8q-7 46 -33 74t-66 28t-80 -28.5t-73 -73.5zM232.5 8q-51.5 26 -77 70t-25.5 98q0 24 9 62l112 415q2 8 2 11q0 16 -21 16h-76l8 32h296l-8 -32h-76q-14 0 -22 -6.5t-12 -20.5l-119 -442
q-9 -38 -9 -57q0 -66 42.5 -103t112.5 -37q90 0 144 53t75 131l107 390q6 24 6 42q0 21 -11.5 35.5t-39.5 14.5h-48l8 32h270l-8 -32h-48q-31 0 -55.5 -26.5t-35.5 -67.5l-104 -378q-29 -106 -90.5 -166t-177.5 -60q-77 0 -128.5 26z" />
    <glyph glyph-name="Umacron" unicode="&#x16a;" horiz-adv-x="784" 
d="M408 822l10 40h314l-10 -40h-314zM232.5 8q-51.5 26 -77 70t-25.5 98q0 24 9 62l112 415q2 8 2 11q0 16 -21 16h-76l8 32h296l-8 -32h-76q-14 0 -22 -6.5t-12 -20.5l-119 -442q-9 -38 -9 -57q0 -66 42.5 -103t112.5 -37q90 0 144 53t75 131l107 390q6 24 6 42
q0 21 -11.5 35.5t-39.5 14.5h-48l8 32h270l-8 -32h-48q-31 0 -55.5 -26.5t-35.5 -67.5l-104 -378q-29 -106 -90.5 -166t-177.5 -60q-77 0 -128.5 26z" />
    <glyph glyph-name="uni1E7A" unicode="&#x1e7a;" horiz-adv-x="784" 
d="M460 882q-12 12 -12 28q0 17 12 28.5t28 11.5q17 0 28.5 -11.5t11.5 -28.5q0 -16 -11.5 -28t-28.5 -12q-16 0 -28 12zM664 882q-12 12 -12 28q0 17 12 28.5t28 11.5q17 0 28.5 -11.5t11.5 -28.5q0 -16 -11.5 -28t-28.5 -12q-16 0 -28 12zM396 778l10 36h314l-10 -36h-314
zM232.5 8q-51.5 26 -77 70t-25.5 98q0 24 9 62l112 415q2 8 2 11q0 16 -21 16h-76l8 32h296l-8 -32h-76q-14 0 -22 -6.5t-12 -20.5l-119 -442q-9 -38 -9 -57q0 -66 42.5 -103t112.5 -37q90 0 144 53t75 131l107 390q6 24 6 42q0 21 -11.5 35.5t-39.5 14.5h-48l8 32h270
l-8 -32h-48q-31 0 -55.5 -26.5t-35.5 -67.5l-104 -378q-29 -106 -90.5 -166t-177.5 -60q-77 0 -128.5 26z" />
    <glyph glyph-name="Uogonek" unicode="&#x172;" horiz-adv-x="784" 
d="M282 -227.5q-26 19.5 -26 58.5q0 77 107 146l-2 5q-77 0 -128.5 26t-77 70t-25.5 98q0 24 9 62l112 415q2 8 2 11q0 16 -21 16h-76l8 32h296l-8 -32h-76q-14 0 -22 -6.5t-12 -20.5l-119 -442q-9 -38 -9 -57q0 -66 42.5 -103t112.5 -37q90 0 143.5 53t75.5 131l107 390
q6 24 6 42q0 21 -11.5 35.5t-39.5 14.5h-48l8 32h270l-8 -32h-48q-31 0 -55.5 -26.5t-35.5 -67.5l-104 -378q-26 -92 -73.5 -148t-139.5 -80q-23 -6 -47.5 -27.5t-40.5 -49.5t-16 -51q0 -18 9 -26.5t23 -8.5q17 0 32 11q11 10 17.5 13t16.5 3q12 0 18.5 -8t6.5 -20
q0 -14 -11 -28.5t-32 -24.5t-51 -10q-33 0 -59 19.5z" />
    <glyph glyph-name="Uring" unicode="&#x16e;" horiz-adv-x="784" 
d="M478.5 782.5q-28.5 28.5 -28.5 69.5q0 40 28 68t69 28t69 -28t28 -68q0 -41 -28.5 -69.5t-68.5 -28.5t-68.5 28.5zM599 799q21 21 21 53q0 31 -20.5 51.5t-52.5 20.5t-52.5 -20.5t-20.5 -51.5q0 -32 21 -53t52 -21t52 21zM232.5 8q-51.5 26 -77 70t-25.5 98q0 24 9 62
l112 415q2 8 2 11q0 16 -21 16h-76l8 32h296l-8 -32h-76q-14 0 -22 -6.5t-12 -20.5l-119 -442q-9 -38 -9 -57q0 -66 42.5 -103t112.5 -37q90 0 144 53t75 131l107 390q6 24 6 42q0 21 -11.5 35.5t-39.5 14.5h-48l8 32h270l-8 -32h-48q-31 0 -55.5 -26.5t-35.5 -67.5
l-104 -378q-29 -106 -90.5 -166t-177.5 -60q-77 0 -128.5 26z" />
    <glyph glyph-name="Utilde" unicode="&#x168;" horiz-adv-x="784" 
d="M416 810q3 38 25.5 65t60.5 27q29 0 90 -21q49 -17 72 -17q18 0 29 11t15 31l20 -2q-3 -38 -25.5 -65t-60.5 -27q-29 0 -90 21q-49 17 -72 17q-18 0 -29 -11t-15 -31zM232.5 8q-51.5 26 -77 70t-25.5 98q0 24 9 62l112 415q2 8 2 11q0 16 -21 16h-76l8 32h296l-8 -32h-76
q-14 0 -22 -6.5t-12 -20.5l-119 -442q-9 -38 -9 -57q0 -66 42.5 -103t112.5 -37q90 0 144 53t75 131l107 390q6 24 6 42q0 21 -11.5 35.5t-39.5 14.5h-48l8 32h270l-8 -32h-48q-31 0 -55.5 -26.5t-35.5 -67.5l-104 -378q-29 -106 -90.5 -166t-177.5 -60q-77 0 -128.5 26z
" />
    <glyph glyph-name="uni1E78" unicode="&#x1e78;" horiz-adv-x="784" 
d="M526 860l105 74q25 18 41 18q13 0 20.5 -8.5t7.5 -18.5q0 -25 -47 -39l-121 -38zM398 770q17 66 94 66q27 0 81 -14t82 -14q21 0 31.5 7.5t19.5 23.5l14 -5q-17 -66 -94 -66q-34 0 -81 14q-49 14 -82 14q-21 0 -31.5 -7.5t-19.5 -23.5zM232.5 8q-51.5 26 -77 70t-25.5 98
q0 24 9 62l112 415q2 8 2 11q0 16 -21 16h-76l8 32h296l-8 -32h-76q-14 0 -22 -6.5t-12 -20.5l-119 -442q-9 -38 -9 -57q0 -66 42.5 -103t112.5 -37q90 0 144 53t75 131l107 390q6 24 6 42q0 21 -11.5 35.5t-39.5 14.5h-48l8 32h270l-8 -32h-48q-31 0 -55.5 -26.5
t-35.5 -67.5l-104 -378q-29 -106 -90.5 -166t-177.5 -60q-77 0 -128.5 26z" />
    <glyph glyph-name="V" unicode="V" horiz-adv-x="752" 
d="M248 636q-3 25 -14.5 34.5t-33.5 9.5h-60l8 32h304l-8 -32h-70q-23 0 -30.5 -12t-7.5 -35v-494l260 397q21 32 31.5 56t10.5 46q0 19 -11.5 30.5t-32.5 11.5h-44l8 32h296l-8 -32h-39q-38 0 -70 -22t-50 -51l-414 -625h-25v654z" />
    <glyph glyph-name="W" unicode="W" horiz-adv-x="1078" 
d="M244 636q-3 26 -14 35t-33 9h-57l8 32h296l-8 -32h-68q-23 0 -29.5 -11.5t-6.5 -35.5v-488l244 391q31 47 31 100q0 25 -12 34.5t-35 9.5h-52l8 32h296l-8 -32h-57q-25 0 -38.5 -17t-13.5 -46v-461l238 375q38 59 38 105q0 15 -12 29.5t-28 14.5h-55l8 32h296l-8 -32h-44
q-34 0 -58.5 -21t-44.5 -54l-393 -623h-25v535l-338 -535h-25v654z" />
    <glyph glyph-name="Wacute" unicode="&#x1e82;" horiz-adv-x="1078" 
d="M656 774l106 123q13 15 24 21t24 6q28 0 28 -29q0 -27 -32 -46l-138 -87zM244 636q-3 26 -14 35t-33 9h-57l8 32h296l-8 -32h-68q-23 0 -29.5 -11.5t-6.5 -35.5v-488l244 391q31 47 31 100q0 25 -12 34.5t-35 9.5h-52l8 32h296l-8 -32h-57q-25 0 -38.5 -17t-13.5 -46
v-461l238 375q38 59 38 105q0 15 -12 29.5t-28 14.5h-55l8 32h296l-8 -32h-44q-34 0 -58.5 -21t-44.5 -54l-393 -623h-25v535l-338 -535h-25v654z" />
    <glyph glyph-name="Wcircumflex" unicode="&#x174;" horiz-adv-x="1078" 
d="M514 778q106 52 176 142h40q23 -90 100 -142l-14 -16q-24 9 -61.5 38.5t-60.5 57.5q-39 -28 -92.5 -57.5t-81.5 -38.5zM244 636q-3 26 -14 35t-33 9h-57l8 32h296l-8 -32h-68q-23 0 -29.5 -11.5t-6.5 -35.5v-488l244 391q31 47 31 100q0 25 -12 34.5t-35 9.5h-52l8 32
h296l-8 -32h-57q-25 0 -38.5 -17t-13.5 -46v-461l238 375q38 59 38 105q0 15 -12 29.5t-28 14.5h-55l8 32h296l-8 -32h-44q-34 0 -58.5 -21t-44.5 -54l-393 -623h-25v535l-338 -535h-25v654z" />
    <glyph glyph-name="Wdieresis" unicode="&#x1e84;" horiz-adv-x="1078" 
d="M557 813q-15 15 -15 37q0 23 15 37.5t37 14.5q23 0 37.5 -14.5t14.5 -37.5q0 -22 -14.5 -37t-37.5 -15q-22 0 -37 15zM761 813q-15 15 -15 37q0 23 15 37.5t37 14.5q23 0 37.5 -14.5t14.5 -37.5q0 -22 -14.5 -37t-37.5 -15q-22 0 -37 15zM244 636q-3 26 -14 35t-33 9h-57
l8 32h296l-8 -32h-68q-23 0 -29.5 -11.5t-6.5 -35.5v-488l244 391q31 47 31 100q0 25 -12 34.5t-35 9.5h-52l8 32h296l-8 -32h-57q-25 0 -38.5 -17t-13.5 -46v-461l238 375q38 59 38 105q0 15 -12 29.5t-28 14.5h-55l8 32h296l-8 -32h-44q-34 0 -58.5 -21t-44.5 -54
l-393 -623h-25v535l-338 -535h-25v654z" />
    <glyph glyph-name="Wgrave" unicode="&#x1e80;" horiz-adv-x="1078" 
d="M577 859q-7 7 -11 17.5t-4 18.5q0 12 7.5 23.5t27.5 11.5q30 0 42 -37l41 -122l-15 -9zM244 636q-3 26 -14 35t-33 9h-57l8 32h296l-8 -32h-68q-23 0 -29.5 -11.5t-6.5 -35.5v-488l244 391q31 47 31 100q0 25 -12 34.5t-35 9.5h-52l8 32h296l-8 -32h-57q-25 0 -38.5 -17
t-13.5 -46v-461l238 375q38 59 38 105q0 15 -12 29.5t-28 14.5h-55l8 32h296l-8 -32h-44q-34 0 -58.5 -21t-44.5 -54l-393 -623h-25v535l-338 -535h-25v654z" />
    <glyph glyph-name="X" unicode="X" horiz-adv-x="840" 
d="M19 32h43q41 0 73.5 19.5t65.5 56.5l217 237l-129 285q-9 20 -15.5 29.5t-19 15t-34.5 5.5h-68l8 32h312l-8 -32h-45q-12 0 -24 -10t-12 -25q0 -7 3 -15l97 -213l151 165q11 11 15.5 24t4.5 32q0 42 -51 42h-37l8 32h312l-8 -32h-36q-72 0 -120 -52l-223 -247l143 -313
q11 -23 23 -29.5t34 -6.5h61l-8 -32h-320l8 32h64q16 0 27 8t11 22q0 9 -4 18l-104 229l-153 -169q-16 -18 -22 -32t-6 -34q0 -42 52 -42h34l-9 -32h-320z" />
    <glyph glyph-name="Y" unicode="Y" horiz-adv-x="720" 
d="M114 32h100q26 0 33 26l70 260l-79 318q-8 25 -19 34.5t-31 9.5h-74l8 32h316l-8 -32h-59q-20 0 -32 -10.5t-12 -24.5q0 -8 2 -12l66 -278l172 198q23 27 36.5 47t13.5 41q0 39 -48 39h-43l8 32h296l-8 -32h-47q-57 0 -119 -73l-245 -278l-73 -271q-2 -8 -2 -12
q0 -14 20 -14h100l-8 -32h-342z" />
    <glyph glyph-name="Yacute" unicode="&#xdd;" horiz-adv-x="720" 
d="M478 774l106 123q13 15 24 21t24 6q28 0 28 -29q0 -27 -32 -46l-138 -87zM114 32h100q26 0 33 26l70 260l-79 318q-8 25 -19 34.5t-31 9.5h-74l8 32h316l-8 -32h-59q-20 0 -32 -10.5t-12 -24.5q0 -8 2 -12l66 -278l172 198q23 27 36.5 47t13.5 41q0 39 -48 39h-43l8 32
h296l-8 -32h-47q-57 0 -119 -73l-245 -278l-73 -271q-2 -8 -2 -12q0 -14 20 -14h100l-8 -32h-342z" />
    <glyph glyph-name="Ycircumflex" unicode="&#x176;" horiz-adv-x="720" 
d="M336 778q106 52 176 142h40q23 -90 100 -142l-14 -16q-24 9 -61.5 38.5t-60.5 57.5q-39 -28 -92.5 -57.5t-81.5 -38.5zM114 32h100q26 0 33 26l70 260l-79 318q-8 25 -19 34.5t-31 9.5h-74l8 32h316l-8 -32h-59q-20 0 -32 -10.5t-12 -24.5q0 -8 2 -12l66 -278l172 198
q23 27 36.5 47t13.5 41q0 39 -48 39h-43l8 32h296l-8 -32h-47q-57 0 -119 -73l-245 -278l-73 -271q-2 -8 -2 -12q0 -14 20 -14h100l-8 -32h-342z" />
    <glyph glyph-name="Ydieresis" unicode="&#x178;" horiz-adv-x="720" 
d="M379 813q-15 15 -15 37q0 23 15 37.5t37 14.5q23 0 37.5 -14.5t14.5 -37.5q0 -22 -14.5 -37t-37.5 -15q-22 0 -37 15zM583 813q-15 15 -15 37q0 23 15 37.5t37 14.5q23 0 37.5 -14.5t14.5 -37.5q0 -22 -14.5 -37t-37.5 -15q-22 0 -37 15zM114 32h100q26 0 33 26l70 260
l-79 318q-8 25 -19 34.5t-31 9.5h-74l8 32h316l-8 -32h-59q-20 0 -32 -10.5t-12 -24.5q0 -8 2 -12l66 -278l172 198q23 27 36.5 47t13.5 41q0 39 -48 39h-43l8 32h296l-8 -32h-47q-57 0 -119 -73l-245 -278l-73 -271q-2 -8 -2 -12q0 -14 20 -14h100l-8 -32h-342z" />
    <glyph glyph-name="uni1E8E" unicode="&#x1e8e;" horiz-adv-x="720" 
d="M481 813q-15 15 -15 37q0 23 15 37.5t37 14.5q23 0 37.5 -14.5t14.5 -37.5q0 -22 -14.5 -37t-37.5 -15q-22 0 -37 15zM114 32h100q26 0 33 26l70 260l-79 318q-8 25 -19 34.5t-31 9.5h-74l8 32h316l-8 -32h-59q-20 0 -32 -10.5t-12 -24.5q0 -8 2 -12l66 -278l172 198
q23 27 36.5 47t13.5 41q0 39 -48 39h-43l8 32h296l-8 -32h-47q-57 0 -119 -73l-245 -278l-73 -271q-2 -8 -2 -12q0 -14 20 -14h100l-8 -32h-342z" />
    <glyph glyph-name="uni1EF4" unicode="&#x1ef4;" horiz-adv-x="720" 
d="M114 32h100q26 0 33 26l70 260l-79 318q-8 25 -19 34.5t-31 9.5h-74l8 32h316l-8 -32h-59q-20 0 -32 -10.5t-12 -24.5q0 -8 2 -12l66 -278l172 198q23 27 36.5 47t13.5 41q0 39 -48 39h-43l8 32h296l-8 -32h-47q-57 0 -119 -73l-245 -278l-73 -271q-2 -8 -2 -12
q0 -14 20 -14h100l-8 -32h-342zM222.5 -187.5q-14.5 14.5 -14.5 37.5q0 22 14.5 37t37.5 15q22 0 37 -15t15 -37q0 -23 -15 -37.5t-37 -14.5q-23 0 -37.5 14.5z" />
    <glyph glyph-name="Ygrave" unicode="&#x1ef2;" horiz-adv-x="720" 
d="M114 32h100q26 0 33 26l70 260l-79 318q-8 25 -19 34.5t-31 9.5h-74l8 32h316l-8 -32h-59q-20 0 -32 -10.5t-12 -24.5q0 -8 2 -12l66 -278l172 198q23 27 36.5 47t13.5 41q0 39 -48 39h-43l8 32h296l-8 -32h-47q-57 0 -119 -73l-245 -278l-73 -271q-2 -8 -2 -12
q0 -14 20 -14h100l-8 -32h-342zM415 859q-7 7 -11 17.5t-4 18.5q0 12 7.5 23.5t27.5 11.5q30 0 42 -37l41 -122l-15 -9z" />
    <glyph glyph-name="uni1EF6" unicode="&#x1ef6;" horiz-adv-x="720" 
d="M114 32h100q26 0 33 26l70 260l-79 318q-8 25 -19 34.5t-31 9.5h-74l8 32h316l-8 -32h-59q-20 0 -32 -10.5t-12 -24.5q0 -8 2 -12l66 -278l172 198q23 27 36.5 47t13.5 41q0 39 -48 39h-43l8 32h296l-8 -32h-47q-57 0 -119 -73l-245 -278l-73 -271q-2 -8 -2 -12
q0 -14 20 -14h100l-8 -32h-342zM534 801q32 23 39 58q2 10 2 15q0 18 -11 29.5t-34 11.5q-21 0 -40 -11t-21 -25q-3 -10 0 -13q1 -1 2.5 -2t2.5 0q1 -1 4 1q3 1 4.5 0.5t3.5 0.5q14 -2 14 -15q0 -11 -8.5 -18.5t-22.5 -7.5q-10 0 -17.5 8t-7.5 22q0 31 29.5 52.5t63.5 22.5
q33 -1 55.5 -16t22.5 -42q0 -33 -22.5 -54.5t-64.5 -47.5h-35z" />
    <glyph glyph-name="uni0232" unicode="&#x232;" horiz-adv-x="720" 
d="M354 822l10 40h314l-10 -40h-314zM114 32h100q26 0 33 26l70 260l-79 318q-8 25 -19 34.5t-31 9.5h-74l8 32h316l-8 -32h-59q-20 0 -32 -10.5t-12 -24.5q0 -8 2 -12l66 -278l172 198q23 27 36.5 47t13.5 41q0 39 -48 39h-43l8 32h296l-8 -32h-47q-57 0 -119 -73
l-245 -278l-73 -271q-2 -8 -2 -12q0 -14 20 -14h100l-8 -32h-342z" />
    <glyph glyph-name="uni1EF8" unicode="&#x1ef8;" horiz-adv-x="720" 
d="M114 32h100q26 0 33 26l70 260l-79 318q-8 25 -19 34.5t-31 9.5h-74l8 32h316l-8 -32h-59q-20 0 -32 -10.5t-12 -24.5q0 -8 2 -12l66 -278l172 198q23 27 36.5 47t13.5 41q0 39 -48 39h-43l8 32h296l-8 -32h-47q-57 0 -119 -73l-245 -278l-73 -271q-2 -8 -2 -12
q0 -14 20 -14h100l-8 -32h-342zM355 810q3 38 25.5 65t60.5 27q29 0 90 -21q49 -17 72 -17q18 0 29 11t15 31l20 -2q-3 -38 -25.5 -65t-60.5 -27q-29 0 -90 21q-49 17 -72 17q-18 0 -29 -11t-15 -31z" />
    <glyph glyph-name="Z" unicode="Z" horiz-adv-x="680" 
d="M44 31l508 649h-180q-43 0 -79.5 -18.5t-76.5 -59.5q-25 -26 -42 -53t-25 -46.5t-8 -22.5h-25l84 232h472l-8 -32l-506 -648h222q72 0 126 47q31 27 56.5 69t42 79.5t16.5 40.5h25l-86 -268h-524z" />
    <glyph glyph-name="Zacute" unicode="&#x179;" horiz-adv-x="680" 
d="M416 774l106 123q13 15 24 21t24 6q28 0 28 -29q0 -27 -32 -46l-138 -87zM44 31l508 649h-180q-43 0 -79.5 -18.5t-76.5 -59.5q-25 -26 -42 -53t-25 -46.5t-8 -22.5h-25l84 232h472l-8 -32l-506 -648h222q72 0 126 47q31 27 56.5 69t42 79.5t16.5 40.5h25l-86 -268h-524z
" />
    <glyph glyph-name="Zcaron" unicode="&#x17d;" horiz-adv-x="680" 
d="M407 762l-101 144l15 14l122 -96l174 96l9 -14l-179 -144h-40zM44 31l508 649h-180q-43 0 -79.5 -18.5t-76.5 -59.5q-25 -26 -42 -53t-25 -46.5t-8 -22.5h-25l84 232h472l-8 -32l-506 -648h222q72 0 126 47q31 27 56.5 69t42 79.5t16.5 40.5h25l-86 -268h-524z" />
    <glyph glyph-name="Zdotaccent" unicode="&#x17b;" horiz-adv-x="680" 
d="M419 813q-15 15 -15 37q0 23 15 37.5t37 14.5q23 0 37.5 -14.5t14.5 -37.5q0 -22 -14.5 -37t-37.5 -15q-22 0 -37 15zM44 31l508 649h-180q-43 0 -79.5 -18.5t-76.5 -59.5q-25 -26 -42 -53t-25 -46.5t-8 -22.5h-25l84 232h472l-8 -32l-506 -648h222q72 0 126 47
q31 27 56.5 69t42 79.5t16.5 40.5h25l-86 -268h-524z" />
    <glyph glyph-name="uni1E92" unicode="&#x1e92;" horiz-adv-x="680" 
d="M44 31l508 649h-180q-43 0 -79.5 -18.5t-76.5 -59.5q-25 -26 -42 -53t-25 -46.5t-8 -22.5h-25l84 232h472l-8 -32l-506 -648h222q72 0 126 47q31 27 56.5 69t42 79.5t16.5 40.5h25l-86 -268h-524zM203 -187.5q-15 14.5 -15 37.5q0 22 15 37t37 15q23 0 37.5 -15t14.5 -37
q0 -23 -14.5 -37.5t-37.5 -14.5q-22 0 -37 14.5z" />
    <glyph glyph-name="a" unicode="a" horiz-adv-x="536" 
d="M71.5 25.5q-29.5 37.5 -29.5 99.5q0 61 18 117.5t41 92.5q35 55 81.5 88t94.5 33q31 0 56 -21.5t36 -66.5l4 -2l22 78h66l-85 -315q-14 -56 -14 -80q0 -14 4 -20.5t14 -6.5q27 0 56 44.5t53 115.5l20 -6q-26 -77 -63.5 -132.5t-83.5 -55.5q-58 0 -58 102q0 13 0.5 19.5
t0.5 7.5l-3 2q-21 -45 -61.5 -88t-86.5 -43q-53 0 -82.5 37.5zM231 49.5q34 37.5 63 100.5q20 45 35 100t15 90q0 44 -18 68t-49 24t-59 -34t-48 -78q-25 -56 -40.5 -119t-15.5 -116q0 -30 10.5 -51.5t35.5 -21.5q37 0 71 37.5z" />
    <glyph glyph-name="aacute" unicode="&#xe1;" horiz-adv-x="536" 
d="M308 520l106 123q13 15 24 21t24 6q15 0 21.5 -8.5t6.5 -20.5q0 -26 -32 -46l-138 -87zM71.5 25.5q-29.5 37.5 -29.5 99.5q0 61 18 117.5t41 92.5q35 55 81.5 88t94.5 33q31 0 56 -21.5t36 -66.5l4 -2l22 78h66l-85 -315q-14 -56 -14 -80q0 -14 4 -20.5t14 -6.5
q27 0 56 44.5t53 115.5l20 -6q-26 -77 -63.5 -132.5t-83.5 -55.5q-58 0 -58 102q0 13 0.5 19.5t0.5 7.5l-3 2q-21 -45 -61.5 -88t-86.5 -43q-53 0 -82.5 37.5zM231 49.5q34 37.5 63 100.5q20 45 35 100t15 90q0 44 -18 68t-49 24t-59 -34t-48 -78q-25 -56 -40.5 -119
t-15.5 -116q0 -30 10.5 -51.5t35.5 -21.5q37 0 71 37.5z" />
    <glyph glyph-name="abreve" unicode="&#x103;" horiz-adv-x="536" 
d="M259.5 559q-25.5 33 -25.5 76q0 13 4 31h22q-1 -5 -1 -16q0 -35 20.5 -59.5t69.5 -24.5q55 0 91 30.5t52 69.5h22q-7 -27 -31.5 -60t-62.5 -56.5t-82 -23.5q-53 0 -78.5 33zM71.5 25.5q-29.5 37.5 -29.5 99.5q0 61 18 117.5t41 92.5q35 55 81.5 88t94.5 33q31 0 56 -21.5
t36 -66.5l4 -2l22 78h66l-85 -315q-14 -56 -14 -80q0 -14 4 -20.5t14 -6.5q27 0 56 44.5t53 115.5l20 -6q-26 -77 -63.5 -132.5t-83.5 -55.5q-58 0 -58 102q0 13 0.5 19.5t0.5 7.5l-3 2q-21 -45 -61.5 -88t-86.5 -43q-53 0 -82.5 37.5zM231 49.5q34 37.5 63 100.5
q20 45 35 100t15 90q0 44 -18 68t-49 24t-59 -34t-48 -78q-25 -56 -40.5 -119t-15.5 -116q0 -30 10.5 -51.5t35.5 -21.5q37 0 71 37.5z" />
    <glyph glyph-name="uni1EAF" unicode="&#x1eaf;" horiz-adv-x="536" 
d="M71.5 25.5q-29.5 37.5 -29.5 99.5q0 61 18 117.5t41 92.5q35 55 81.5 88t94.5 33q31 0 56 -21.5t36 -66.5l4 -2l22 78h66l-85 -315q-14 -56 -14 -80q0 -14 4 -20.5t14 -6.5q27 0 56 44.5t53 115.5l20 -6q-26 -77 -63.5 -132.5t-83.5 -55.5q-58 0 -58 102q0 13 0.5 19.5
t0.5 7.5l-3 2q-21 -45 -61.5 -88t-86.5 -43q-53 0 -82.5 37.5zM231 49.5q34 37.5 63 100.5q20 45 35 100t15 90q0 44 -18 68t-49 24t-59 -34t-48 -78q-25 -56 -40.5 -119t-15.5 -116q0 -30 10.5 -51.5t35.5 -21.5q37 0 71 37.5zM274.5 559q-25.5 33 -25.5 76q0 13 4 31h22
q-1 -5 -1 -16q0 -35 20.5 -59.5t69.5 -24.5q55 0 91 30.5t52 69.5h22q-7 -27 -31.5 -60t-62.5 -56.5t-82 -23.5q-53 0 -78.5 33zM365 681l106 123q13 15 24 21t24 6q15 0 21.5 -8.5t6.5 -20.5q0 -26 -32 -46l-138 -87z" />
    <glyph glyph-name="uni1EB7" unicode="&#x1eb7;" horiz-adv-x="536" 
d="M71.5 25.5q-29.5 37.5 -29.5 99.5q0 61 18 117.5t41 92.5q35 55 81.5 88t94.5 33q31 0 56 -21.5t36 -66.5l4 -2l22 78h66l-85 -315q-14 -56 -14 -80q0 -14 4 -20.5t14 -6.5q27 0 56 44.5t53 115.5l20 -6q-26 -77 -63.5 -132.5t-83.5 -55.5q-58 0 -58 102q0 13 0.5 19.5
t0.5 7.5l-3 2q-21 -45 -61.5 -88t-86.5 -43q-53 0 -82.5 37.5zM231 49.5q34 37.5 63 100.5q20 45 35 100t15 90q0 44 -18 68t-49 24t-59 -34t-48 -78q-25 -56 -40.5 -119t-15.5 -116q0 -30 10.5 -51.5t35.5 -21.5q37 0 71 37.5zM130.5 -187.5q-14.5 14.5 -14.5 37.5
q0 22 14.5 37t37.5 15q22 0 37 -15t15 -37q0 -23 -15 -37.5t-37 -14.5q-23 0 -37.5 14.5zM274.5 559q-25.5 33 -25.5 76q0 13 4 31h22q-1 -5 -1 -16q0 -35 20.5 -59.5t69.5 -24.5q55 0 91 30.5t52 69.5h22q-7 -27 -31.5 -60t-62.5 -56.5t-82 -23.5q-53 0 -78.5 33z" />
    <glyph glyph-name="uni1EB1" unicode="&#x1eb1;" horiz-adv-x="536" 
d="M71.5 25.5q-29.5 37.5 -29.5 99.5q0 61 18 117.5t41 92.5q35 55 81.5 88t94.5 33q31 0 56 -21.5t36 -66.5l4 -2l22 78h66l-85 -315q-14 -56 -14 -80q0 -14 4 -20.5t14 -6.5q27 0 56 44.5t53 115.5l20 -6q-26 -77 -63.5 -132.5t-83.5 -55.5q-58 0 -58 102q0 13 0.5 19.5
t0.5 7.5l-3 2q-21 -45 -61.5 -88t-86.5 -43q-53 0 -82.5 37.5zM231 49.5q34 37.5 63 100.5q20 45 35 100t15 90q0 44 -18 68t-49 24t-59 -34t-48 -78q-25 -56 -40.5 -119t-15.5 -116q0 -30 10.5 -51.5t35.5 -21.5q37 0 71 37.5zM274.5 559q-25.5 33 -25.5 76q0 13 4 31h22
q-1 -5 -1 -16q0 -35 20.5 -59.5t69.5 -24.5q55 0 91 30.5t52 69.5h22q-7 -27 -31.5 -60t-62.5 -56.5t-82 -23.5q-53 0 -78.5 33zM295 760q-14 16 -14 35q0 12 8 24t28 12q15 0 24 -9t16 -30l40 -119l-17 -10z" />
    <glyph glyph-name="uni1EB3" unicode="&#x1eb3;" horiz-adv-x="536" 
d="M71.5 25.5q-29.5 37.5 -29.5 99.5q0 61 18 117.5t41 92.5q35 55 81.5 88t94.5 33q31 0 56 -21.5t36 -66.5l4 -2l22 78h66l-85 -315q-14 -56 -14 -80q0 -14 4 -20.5t14 -6.5q27 0 56 44.5t53 115.5l20 -6q-26 -77 -63.5 -132.5t-83.5 -55.5q-58 0 -58 102q0 13 0.5 19.5
t0.5 7.5l-3 2q-21 -45 -61.5 -88t-86.5 -43q-53 0 -82.5 37.5zM231 49.5q34 37.5 63 100.5q20 45 35 100t15 90q0 44 -18 68t-49 24t-59 -34t-48 -78q-25 -56 -40.5 -119t-15.5 -116q0 -30 10.5 -51.5t35.5 -21.5q37 0 71 37.5zM274.5 559q-25.5 33 -25.5 76q0 13 4 31h22
q-1 -5 -1 -16q0 -35 20.5 -59.5t69.5 -24.5q55 0 91 30.5t52 69.5h22q-7 -27 -31.5 -60t-62.5 -56.5t-82 -23.5q-53 0 -78.5 33zM408 685q32 23 39 58q2 10 2 15q0 18 -11 29.5t-34 11.5q-21 0 -40 -11t-21 -25q-3 -10 0 -13q1 -1 2.5 -2t2.5 0q1 -1 4 1q3 1 4.5 0.5
t3.5 0.5q14 -2 14 -15q0 -11 -8.5 -18.5t-22.5 -7.5q-10 0 -17.5 8t-7.5 22q0 31 29.5 52.5t63.5 22.5q33 -1 55.5 -16t22.5 -42q0 -33 -22.5 -54.5t-64.5 -47.5h-35z" />
    <glyph glyph-name="uni1EB5" unicode="&#x1eb5;" horiz-adv-x="536" 
d="M71.5 25.5q-29.5 37.5 -29.5 99.5q0 61 18 117.5t41 92.5q35 55 81.5 88t94.5 33q31 0 56 -21.5t36 -66.5l4 -2l22 78h66l-85 -315q-14 -56 -14 -80q0 -14 4 -20.5t14 -6.5q27 0 56 44.5t53 115.5l20 -6q-26 -77 -63.5 -132.5t-83.5 -55.5q-58 0 -58 102q0 13 0.5 19.5
t0.5 7.5l-3 2q-21 -45 -61.5 -88t-86.5 -43q-53 0 -82.5 37.5zM231 49.5q34 37.5 63 100.5q20 45 35 100t15 90q0 44 -18 68t-49 24t-59 -34t-48 -78q-25 -56 -40.5 -119t-15.5 -116q0 -30 10.5 -51.5t35.5 -21.5q37 0 71 37.5zM274.5 559q-25.5 33 -25.5 76q0 13 4 31h22
q-1 -5 -1 -16q0 -35 20.5 -59.5t69.5 -24.5q55 0 91 30.5t52 69.5h22q-7 -27 -31.5 -60t-62.5 -56.5t-82 -23.5q-53 0 -78.5 33zM293 765.5q21 27.5 59 27.5q22 0 38.5 -5.5t38.5 -16.5q20 -9 32.5 -13.5t28.5 -4.5q17 0 25 10t11 30h22q0 -39 -21 -66.5t-59 -27.5
q-22 0 -38.5 5.5t-38.5 16.5q-20 9 -32.5 13.5t-28.5 4.5q-17 0 -25 -10t-11 -30h-22q0 39 21 66.5z" />
    <glyph glyph-name="acircumflex" unicode="&#xe2;" horiz-adv-x="536" 
d="M194 521q89 47 152 151h40q9 -104 70 -151l-12 -13q-60 36 -97 92q-70 -57 -147 -92zM71.5 25.5q-29.5 37.5 -29.5 99.5q0 61 18 117.5t41 92.5q35 55 81.5 88t94.5 33q31 0 56 -21.5t36 -66.5l4 -2l22 78h66l-85 -315q-14 -56 -14 -80q0 -14 4 -20.5t14 -6.5
q27 0 56 44.5t53 115.5l20 -6q-26 -77 -63.5 -132.5t-83.5 -55.5q-58 0 -58 102q0 13 0.5 19.5t0.5 7.5l-3 2q-21 -45 -61.5 -88t-86.5 -43q-53 0 -82.5 37.5zM231 49.5q34 37.5 63 100.5q20 45 35 100t15 90q0 44 -18 68t-49 24t-59 -34t-48 -78q-25 -56 -40.5 -119
t-15.5 -116q0 -30 10.5 -51.5t35.5 -21.5q37 0 71 37.5z" />
    <glyph glyph-name="uni1EA5" unicode="&#x1ea5;" horiz-adv-x="536" 
d="M71.5 25.5q-29.5 37.5 -29.5 99.5q0 61 18 117.5t41 92.5q35 55 81.5 88t94.5 33q31 0 56 -21.5t36 -66.5l4 -2l22 78h66l-85 -315q-14 -56 -14 -80q0 -14 4 -20.5t14 -6.5q27 0 56 44.5t53 115.5l20 -6q-26 -77 -63.5 -132.5t-83.5 -55.5q-58 0 -58 102q0 13 0.5 19.5
t0.5 7.5l-3 2q-21 -45 -61.5 -88t-86.5 -43q-53 0 -82.5 37.5zM231 49.5q34 37.5 63 100.5q20 45 35 100t15 90q0 44 -18 68t-49 24t-59 -34t-48 -78q-25 -56 -40.5 -119t-15.5 -116q0 -30 10.5 -51.5t35.5 -21.5q37 0 71 37.5zM211 521q89 47 152 151h40q9 -104 70 -151
l-12 -13q-60 36 -97 92q-70 -57 -147 -92zM460 600l106 123q13 15 24 21t24 6q15 0 21.5 -8.5t6.5 -20.5q0 -26 -32 -46l-138 -87z" />
    <glyph glyph-name="uni1EAD" unicode="&#x1ead;" horiz-adv-x="536" 
d="M71.5 25.5q-29.5 37.5 -29.5 99.5q0 61 18 117.5t41 92.5q35 55 81.5 88t94.5 33q31 0 56 -21.5t36 -66.5l4 -2l22 78h66l-85 -315q-14 -56 -14 -80q0 -14 4 -20.5t14 -6.5q27 0 56 44.5t53 115.5l20 -6q-26 -77 -63.5 -132.5t-83.5 -55.5q-58 0 -58 102q0 13 0.5 19.5
t0.5 7.5l-3 2q-21 -45 -61.5 -88t-86.5 -43q-53 0 -82.5 37.5zM231 49.5q34 37.5 63 100.5q20 45 35 100t15 90q0 44 -18 68t-49 24t-59 -34t-48 -78q-25 -56 -40.5 -119t-15.5 -116q0 -30 10.5 -51.5t35.5 -21.5q37 0 71 37.5zM130.5 -187.5q-14.5 14.5 -14.5 37.5
q0 22 14.5 37t37.5 15q22 0 37 -15t15 -37q0 -23 -15 -37.5t-37 -14.5q-23 0 -37.5 14.5zM211 521q89 47 152 151h40q9 -104 70 -151l-12 -13q-60 36 -97 92q-70 -57 -147 -92z" />
    <glyph glyph-name="uni1EA7" unicode="&#x1ea7;" horiz-adv-x="536" 
d="M71.5 25.5q-29.5 37.5 -29.5 99.5q0 61 18 117.5t41 92.5q35 55 81.5 88t94.5 33q31 0 56 -21.5t36 -66.5l4 -2l22 78h66l-85 -315q-14 -56 -14 -80q0 -14 4 -20.5t14 -6.5q27 0 56 44.5t53 115.5l20 -6q-26 -77 -63.5 -132.5t-83.5 -55.5q-58 0 -58 102q0 13 0.5 19.5
t0.5 7.5l-3 2q-21 -45 -61.5 -88t-86.5 -43q-53 0 -82.5 37.5zM231 49.5q34 37.5 63 100.5q20 45 35 100t15 90q0 44 -18 68t-49 24t-59 -34t-48 -78q-25 -56 -40.5 -119t-15.5 -116q0 -30 10.5 -51.5t35.5 -21.5q37 0 71 37.5zM211 521q89 47 152 151h40q9 -104 70 -151
l-12 -13q-60 36 -97 92q-70 -57 -147 -92zM397 736q-14 16 -14 35q0 12 8 24t28 12q15 0 24 -9t16 -30l40 -119l-17 -10z" />
    <glyph glyph-name="uni1EA9" unicode="&#x1ea9;" horiz-adv-x="536" 
d="M71.5 25.5q-29.5 37.5 -29.5 99.5q0 61 18 117.5t41 92.5q35 55 81.5 88t94.5 33q31 0 56 -21.5t36 -66.5l4 -2l22 78h66l-85 -315q-14 -56 -14 -80q0 -14 4 -20.5t14 -6.5q27 0 56 44.5t53 115.5l20 -6q-26 -77 -63.5 -132.5t-83.5 -55.5q-58 0 -58 102q0 13 0.5 19.5
t0.5 7.5l-3 2q-21 -45 -61.5 -88t-86.5 -43q-53 0 -82.5 37.5zM231 49.5q34 37.5 63 100.5q20 45 35 100t15 90q0 44 -18 68t-49 24t-59 -34t-48 -78q-25 -56 -40.5 -119t-15.5 -116q0 -30 10.5 -51.5t35.5 -21.5q37 0 71 37.5zM211 521q89 47 152 151h40q9 -104 70 -151
l-12 -13q-60 36 -97 92q-70 -57 -147 -92zM483 688q32 23 39 58q2 10 2 15q0 18 -11 29.5t-34 11.5q-21 0 -40 -11t-21 -25q-3 -10 0 -13q1 -1 2.5 -2t2.5 0q1 -1 4 1q3 1 4.5 0.5t3.5 0.5q14 -2 14 -15q0 -11 -8.5 -18.5t-22.5 -7.5q-10 0 -17.5 8t-7.5 22q0 31 29.5 52.5
t63.5 22.5q33 -1 55.5 -16t22.5 -42q0 -33 -22.5 -54.5t-64.5 -47.5h-35z" />
    <glyph glyph-name="uni1EAB" unicode="&#x1eab;" horiz-adv-x="536" 
d="M71.5 25.5q-29.5 37.5 -29.5 99.5q0 61 18 117.5t41 92.5q35 55 81.5 88t94.5 33q31 0 56 -21.5t36 -66.5l4 -2l22 78h66l-85 -315q-14 -56 -14 -80q0 -14 4 -20.5t14 -6.5q27 0 56 44.5t53 115.5l20 -6q-26 -77 -63.5 -132.5t-83.5 -55.5q-58 0 -58 102q0 13 0.5 19.5
t0.5 7.5l-3 2q-21 -45 -61.5 -88t-86.5 -43q-53 0 -82.5 37.5zM231 49.5q34 37.5 63 100.5q20 45 35 100t15 90q0 44 -18 68t-49 24t-59 -34t-48 -78q-25 -56 -40.5 -119t-15.5 -116q0 -30 10.5 -51.5t35.5 -21.5q37 0 71 37.5zM211 521q89 47 152 151h40q9 -104 70 -151
l-12 -13q-60 36 -97 92q-70 -57 -147 -92zM286 754.5q21 27.5 59 27.5q22 0 38.5 -5.5t38.5 -16.5q20 -9 32.5 -13.5t28.5 -4.5q17 0 25 10t11 30h22q0 -39 -21 -66.5t-59 -27.5q-22 0 -38.5 5.5t-38.5 16.5q-20 9 -32.5 13.5t-28.5 4.5q-17 0 -25 -10t-11 -30h-22
q0 39 21 66.5z" />
    <glyph glyph-name="uni0201" unicode="&#x201;" horiz-adv-x="536" 
d="M174 605q-14 16 -14 33q0 12 9 25t29 13q31 0 38 -37l43 -131h-24zM308 605q-14 16 -14 33q0 12 9 25t29 13q31 0 38 -37l43 -131h-24zM71.5 25.5q-29.5 37.5 -29.5 99.5q0 61 18 117.5t41 92.5q35 55 81.5 88t94.5 33q31 0 56 -21.5t36 -66.5l4 -2l22 78h66l-85 -315
q-14 -56 -14 -80q0 -14 4 -20.5t14 -6.5q27 0 56 44.5t53 115.5l20 -6q-26 -77 -63.5 -132.5t-83.5 -55.5q-58 0 -58 102q0 13 0.5 19.5t0.5 7.5l-3 2q-21 -45 -61.5 -88t-86.5 -43q-53 0 -82.5 37.5zM231 49.5q34 37.5 63 100.5q20 45 35 100t15 90q0 44 -18 68t-49 24
t-59 -34t-48 -78q-25 -56 -40.5 -119t-15.5 -116q0 -30 10.5 -51.5t35.5 -21.5q37 0 71 37.5z" />
    <glyph glyph-name="adieresis" unicode="&#xe4;" horiz-adv-x="536" 
d="M220.5 562.5q-14.5 14.5 -14.5 33.5q0 20 14.5 34t33.5 14q20 0 34 -14t14 -34q0 -19 -14 -33.5t-34 -14.5q-19 0 -33.5 14.5zM408.5 562.5q-14.5 14.5 -14.5 33.5q0 20 14.5 34t33.5 14q20 0 34 -14t14 -34q0 -19 -14 -33.5t-34 -14.5q-19 0 -33.5 14.5zM71.5 25.5
q-29.5 37.5 -29.5 99.5q0 61 18 117.5t41 92.5q35 55 81.5 88t94.5 33q31 0 56 -21.5t36 -66.5l4 -2l22 78h66l-85 -315q-14 -56 -14 -80q0 -14 4 -20.5t14 -6.5q27 0 56 44.5t53 115.5l20 -6q-26 -77 -63.5 -132.5t-83.5 -55.5q-58 0 -58 102q0 13 0.5 19.5t0.5 7.5l-3 2
q-21 -45 -61.5 -88t-86.5 -43q-53 0 -82.5 37.5zM231 49.5q34 37.5 63 100.5q20 45 35 100t15 90q0 44 -18 68t-49 24t-59 -34t-48 -78q-25 -56 -40.5 -119t-15.5 -116q0 -30 10.5 -51.5t35.5 -21.5q37 0 71 37.5z" />
    <glyph glyph-name="uni1EA1" unicode="&#x1ea1;" horiz-adv-x="536" 
d="M71.5 25.5q-29.5 37.5 -29.5 99.5q0 61 18 117.5t41 92.5q35 55 81.5 88t94.5 33q31 0 56 -21.5t36 -66.5l4 -2l22 78h66l-85 -315q-14 -56 -14 -80q0 -14 4 -20.5t14 -6.5q27 0 56 44.5t53 115.5l20 -6q-26 -77 -63.5 -132.5t-83.5 -55.5q-58 0 -58 102q0 13 0.5 19.5
t0.5 7.5l-3 2q-21 -45 -61.5 -88t-86.5 -43q-53 0 -82.5 37.5zM231 49.5q34 37.5 63 100.5q20 45 35 100t15 90q0 44 -18 68t-49 24t-59 -34t-48 -78q-25 -56 -40.5 -119t-15.5 -116q0 -30 10.5 -51.5t35.5 -21.5q37 0 71 37.5zM130.5 -187.5q-14.5 14.5 -14.5 37.5
q0 22 14.5 37t37.5 15q22 0 37 -15t15 -37q0 -23 -15 -37.5t-37 -14.5q-23 0 -37.5 14.5z" />
    <glyph glyph-name="agrave" unicode="&#xe0;" horiz-adv-x="536" 
d="M244 605q-14 16 -14 35q0 12 8 24t28 12q15 0 24 -9t16 -30l40 -119l-17 -10zM71.5 25.5q-29.5 37.5 -29.5 99.5q0 61 18 117.5t41 92.5q35 55 81.5 88t94.5 33q31 0 56 -21.5t36 -66.5l4 -2l22 78h66l-85 -315q-14 -56 -14 -80q0 -14 4 -20.5t14 -6.5q27 0 56 44.5
t53 115.5l20 -6q-26 -77 -63.5 -132.5t-83.5 -55.5q-58 0 -58 102q0 13 0.5 19.5t0.5 7.5l-3 2q-21 -45 -61.5 -88t-86.5 -43q-53 0 -82.5 37.5zM231 49.5q34 37.5 63 100.5q20 45 35 100t15 90q0 44 -18 68t-49 24t-59 -34t-48 -78q-25 -56 -40.5 -119t-15.5 -116
q0 -30 10.5 -51.5t35.5 -21.5q37 0 71 37.5z" />
    <glyph glyph-name="uni1EA3" unicode="&#x1ea3;" horiz-adv-x="536" 
d="M71.5 25.5q-29.5 37.5 -29.5 99.5q0 61 18 117.5t41 92.5q35 55 81.5 88t94.5 33q31 0 56 -21.5t36 -66.5l4 -2l22 78h66l-85 -315q-14 -56 -14 -80q0 -14 4 -20.5t14 -6.5q27 0 56 44.5t53 115.5l20 -6q-26 -77 -63.5 -132.5t-83.5 -55.5q-58 0 -58 102q0 13 0.5 19.5
t0.5 7.5l-3 2q-21 -45 -61.5 -88t-86.5 -43q-53 0 -82.5 37.5zM231 49.5q34 37.5 63 100.5q20 45 35 100t15 90q0 44 -18 68t-49 24t-59 -34t-48 -78q-25 -56 -40.5 -119t-15.5 -116q0 -30 10.5 -51.5t35.5 -21.5q37 0 71 37.5zM370 533q32 23 39 58q2 10 2 15
q0 18 -11 29.5t-34 11.5q-21 0 -40 -11t-21 -25q-3 -10 0 -13q1 -1 2.5 -2t2.5 0q1 -1 4 1q3 1 4.5 0.5t3.5 0.5q14 -2 14 -15q0 -11 -8.5 -18.5t-22.5 -7.5q-10 0 -17.5 8t-7.5 22q0 31 29.5 52.5t63.5 22.5q33 -1 55.5 -16t22.5 -42q0 -33 -22.5 -54.5t-64.5 -47.5h-35z
" />
    <glyph glyph-name="uni0203" unicode="&#x203;" horiz-adv-x="536" 
d="M192 524q28 49 77 97.5t94 48.5q29 0 49 -24.5t30 -58.5t12 -63l-16 -6q-6 37 -28 66.5t-62 29.5t-77.5 -29.5t-62.5 -66.5zM71.5 25.5q-29.5 37.5 -29.5 99.5q0 61 18 117.5t41 92.5q35 55 81.5 88t94.5 33q31 0 56 -21.5t36 -66.5l4 -2l22 78h66l-85 -315
q-14 -56 -14 -80q0 -14 4 -20.5t14 -6.5q27 0 56 44.5t53 115.5l20 -6q-26 -77 -63.5 -132.5t-83.5 -55.5q-58 0 -58 102q0 13 0.5 19.5t0.5 7.5l-3 2q-21 -45 -61.5 -88t-86.5 -43q-53 0 -82.5 37.5zM231 49.5q34 37.5 63 100.5q20 45 35 100t15 90q0 44 -18 68t-49 24
t-59 -34t-48 -78q-25 -56 -40.5 -119t-15.5 -116q0 -30 10.5 -51.5t35.5 -21.5q37 0 71 37.5z" />
    <glyph glyph-name="amacron" unicode="&#x101;" horiz-adv-x="536" 
d="M180 546l10 40h314l-10 -40h-314zM71.5 25.5q-29.5 37.5 -29.5 99.5q0 61 18 117.5t41 92.5q35 55 81.5 88t94.5 33q31 0 56 -21.5t36 -66.5l4 -2l22 78h66l-85 -315q-14 -56 -14 -80q0 -14 4 -20.5t14 -6.5q27 0 56 44.5t53 115.5l20 -6q-26 -77 -63.5 -132.5
t-83.5 -55.5q-58 0 -58 102q0 13 0.5 19.5t0.5 7.5l-3 2q-21 -45 -61.5 -88t-86.5 -43q-53 0 -82.5 37.5zM231 49.5q34 37.5 63 100.5q20 45 35 100t15 90q0 44 -18 68t-49 24t-59 -34t-48 -78q-25 -56 -40.5 -119t-15.5 -116q0 -30 10.5 -51.5t35.5 -21.5q37 0 71 37.5z
" />
    <glyph glyph-name="aogonek" unicode="&#x105;" horiz-adv-x="536" 
d="M279 -202q-19 18 -19 48q0 41 24.5 74.5t66.5 64.5v5q-47 9 -47 100q0 13 0.5 19.5t0.5 7.5l-3 2q-21 -45 -61.5 -88t-86.5 -43q-53 0 -82.5 37.5t-29.5 99.5q0 61 18 117.5t41 92.5q35 55 81.5 88t94.5 33q31 0 56 -21.5t36 -66.5l4 -2l22 78h66l-85 -315
q-14 -56 -14 -80q0 -14 4 -20.5t14 -6.5q27 0 56 44.5t53 115.5l20 -6q-49 -143 -115 -182q-38 -22 -64 -57t-26 -67q0 -14 6 -23.5t18 -9.5q19 0 32 12q10 9 16.5 13t14.5 4q10 0 15.5 -6t5.5 -16q0 -13 -10 -28t-30 -25.5t-48 -10.5q-26 0 -45 18zM231 49.5
q34 37.5 63 100.5q20 45 35 100t15 90q0 44 -18 68t-49 24t-59 -34t-48 -78q-25 -56 -40.5 -119t-15.5 -116q0 -30 10.5 -51.5t35.5 -21.5q37 0 71 37.5z" />
    <glyph glyph-name="aring" unicode="&#xe5;" horiz-adv-x="536" 
d="M278.5 528.5q-28.5 28.5 -28.5 69.5q0 40 28 68t69 28t69 -28t28 -68q0 -41 -28.5 -69.5t-68.5 -28.5t-68.5 28.5zM399 545q21 21 21 53q0 31 -20.5 51.5t-52.5 20.5t-52.5 -20.5t-20.5 -51.5q0 -32 21 -53t52 -21t52 21zM71.5 25.5q-29.5 37.5 -29.5 99.5q0 61 18 117.5
t41 92.5q35 55 81.5 88t94.5 33q31 0 56 -21.5t36 -66.5l4 -2l22 78h66l-85 -315q-14 -56 -14 -80q0 -14 4 -20.5t14 -6.5q27 0 56 44.5t53 115.5l20 -6q-26 -77 -63.5 -132.5t-83.5 -55.5q-58 0 -58 102q0 13 0.5 19.5t0.5 7.5l-3 2q-21 -45 -61.5 -88t-86.5 -43
q-53 0 -82.5 37.5zM231 49.5q34 37.5 63 100.5q20 45 35 100t15 90q0 44 -18 68t-49 24t-59 -34t-48 -78q-25 -56 -40.5 -119t-15.5 -116q0 -30 10.5 -51.5t35.5 -21.5q37 0 71 37.5z" />
    <glyph glyph-name="aringacute" unicode="&#x1fb;" horiz-adv-x="536" 
d="M354 708l106 123q13 15 24 21t24 6q15 0 21.5 -8.5t6.5 -20.5q0 -26 -32 -46l-138 -87zM274.5 512.5q-28.5 28.5 -28.5 69.5q0 40 28 68t69 28t69 -28t28 -68q0 -41 -28.5 -69.5t-68.5 -28.5t-68.5 28.5zM395 529q21 21 21 53q0 31 -20.5 51.5t-52.5 20.5t-52.5 -20.5
t-20.5 -51.5q0 -32 21 -53t52 -21t52 21zM71.5 25.5q-29.5 37.5 -29.5 99.5q0 61 18 117.5t41 92.5q35 55 81.5 88t94.5 33q31 0 56 -21.5t36 -66.5l4 -2l22 78h66l-85 -315q-14 -56 -14 -80q0 -14 4 -20.5t14 -6.5q27 0 56 44.5t53 115.5l20 -6q-26 -77 -63.5 -132.5
t-83.5 -55.5q-58 0 -58 102q0 13 0.5 19.5t0.5 7.5l-3 2q-21 -45 -61.5 -88t-86.5 -43q-53 0 -82.5 37.5zM231 49.5q34 37.5 63 100.5q20 45 35 100t15 90q0 44 -18 68t-49 24t-59 -34t-48 -78q-25 -56 -40.5 -119t-15.5 -116q0 -30 10.5 -51.5t35.5 -21.5q37 0 71 37.5z
" />
    <glyph glyph-name="atilde" unicode="&#xe3;" horiz-adv-x="536" 
d="M235 622.5q21 27.5 59 27.5q22 0 38.5 -5.5t38.5 -16.5q20 -9 32.5 -13.5t28.5 -4.5q17 0 25 10t11 30h22q0 -39 -21 -66.5t-59 -27.5q-22 0 -38.5 5.5t-38.5 16.5q-20 9 -32.5 13.5t-28.5 4.5q-17 0 -25 -10t-11 -30h-22q0 39 21 66.5zM71.5 25.5q-29.5 37.5 -29.5 99.5
q0 61 18 117.5t41 92.5q35 55 81.5 88t94.5 33q31 0 56 -21.5t36 -66.5l4 -2l22 78h66l-85 -315q-14 -56 -14 -80q0 -14 4 -20.5t14 -6.5q27 0 56 44.5t53 115.5l20 -6q-26 -77 -63.5 -132.5t-83.5 -55.5q-58 0 -58 102q0 13 0.5 19.5t0.5 7.5l-3 2q-21 -45 -61.5 -88
t-86.5 -43q-53 0 -82.5 37.5zM231 49.5q34 37.5 63 100.5q20 45 35 100t15 90q0 44 -18 68t-49 24t-59 -34t-48 -78q-25 -56 -40.5 -119t-15.5 -116q0 -30 10.5 -51.5t35.5 -21.5q37 0 71 37.5z" />
    <glyph glyph-name="ae" unicode="&#xe6;" horiz-adv-x="684" 
d="M71.5 25.5q-29.5 37.5 -29.5 99.5q0 61 18 117.5t41 92.5q35 55 81.5 88t94.5 33q31 0 56 -21.5t36 -66.5l4 -2l22 78h66l-22 -78l7 2q62 88 129 88q36 0 58.5 -22t22.5 -59q0 -42 -27 -74t-73 -53q-58 -26 -154 -33q-23 -66 -23 -114q0 -89 78 -89q40 0 73.5 28t54.5 62
t28 53l21 -7q-15 -43 -44.5 -79.5t-66 -58.5t-71.5 -22q-130 0 -147 129l-3 2q-21 -45 -61.5 -88t-86.5 -43q-53 0 -82.5 37.5zM231 49.5q34 37.5 63 100.5q20 45 35 100t15 90q0 44 -18 68t-49 24t-59 -34t-48 -78q-25 -56 -40.5 -119t-15.5 -116q0 -30 10.5 -51.5
t35.5 -21.5q37 0 71 37.5zM537 265q31 14 51 44.5t20 69.5q0 53 -44 53q-40 0 -72.5 -37.5t-55.5 -84.5q-7 -15 -17 -39t-11 -31q87 6 129 25z" />
    <glyph glyph-name="aeacute" unicode="&#x1fd;" horiz-adv-x="684" 
d="M424 520l106 123q13 15 24 21t24 6q15 0 21.5 -8.5t6.5 -20.5q0 -26 -32 -46l-138 -87zM71.5 25.5q-29.5 37.5 -29.5 99.5q0 61 18 117.5t41 92.5q35 55 81.5 88t94.5 33q31 0 56 -21.5t36 -66.5l4 -2l22 78h66l-22 -78l7 2q62 88 129 88q36 0 58.5 -22t22.5 -59
q0 -42 -27 -74t-73 -53q-58 -26 -154 -33q-23 -66 -23 -114q0 -89 78 -89q40 0 73.5 28t54.5 62t28 53l21 -7q-15 -43 -44.5 -79.5t-66 -58.5t-71.5 -22q-130 0 -147 129l-3 2q-21 -45 -61.5 -88t-86.5 -43q-53 0 -82.5 37.5zM231 49.5q34 37.5 63 100.5q20 45 35 100t15 90
q0 44 -18 68t-49 24t-59 -34t-48 -78q-25 -56 -40.5 -119t-15.5 -116q0 -30 10.5 -51.5t35.5 -21.5q37 0 71 37.5zM537 265q31 14 51 44.5t20 69.5q0 53 -44 53q-40 0 -72.5 -37.5t-55.5 -84.5q-7 -15 -17 -39t-11 -31q87 6 129 25z" />
    <glyph glyph-name="b" unicode="b" horiz-adv-x="480" 
d="M128.5 6q-27.5 18 -44 51.5t-16.5 78.5q0 29 6 49l132 481q2 8 2 11q0 11 -17 11h-89l7 24h177l-98 -359l5 -4q27 47 64.5 77t80.5 30q52 0 80 -44t28 -102q0 -63 -34.5 -138.5t-76.5 -119.5q-32 -32 -67 -48t-80 -16q-32 0 -59.5 18zM262 42q26 30 51 78q61 115 61 229
q0 30 -11.5 56.5t-32.5 26.5q-34 0 -70.5 -33.5t-65.5 -92.5q-25 -50 -40.5 -103.5t-15.5 -96.5q0 -37 11.5 -65.5t52.5 -28.5q34 0 60 30z" />
    <glyph glyph-name="c" unicode="c" horiz-adv-x="424" 
d="M89 37.5q-37 49.5 -37 120.5q0 60 22 118.5t66 104.5q35 37 70.5 56t79.5 19q38 0 67 -24t29 -76q0 -30 -16.5 -50t-40.5 -20q-19 0 -29 11.5t-10 26.5q0 29 32 52q11 9 11 26q0 9 -11 19.5t-36 10.5q-78 0 -136 -174q-11 -33 -18.5 -82.5t-7.5 -77.5q0 -44 19.5 -65
t47.5 -21q62 0 101 50t55 93l21 -7q-24 -68 -73 -114t-109 -46t-97 49.5z" />
    <glyph glyph-name="cacute" unicode="&#x107;" horiz-adv-x="424" 
d="M300 520l106 123q13 15 24 21t24 6q15 0 21.5 -8.5t6.5 -20.5q0 -26 -32 -46l-138 -87zM89 37.5q-37 49.5 -37 120.5q0 60 22 118.5t66 104.5q35 37 70.5 56t79.5 19q38 0 67 -24t29 -76q0 -30 -16.5 -50t-40.5 -20q-19 0 -29 11.5t-10 26.5q0 29 32 52q11 9 11 26
q0 9 -11 19.5t-36 10.5q-78 0 -136 -174q-11 -33 -18.5 -82.5t-7.5 -77.5q0 -44 19.5 -65t47.5 -21q62 0 101 50t55 93l21 -7q-24 -68 -73 -114t-109 -46t-97 49.5z" />
    <glyph glyph-name="ccaron" unicode="&#x10d;" horiz-adv-x="424" 
d="M293 508l-71 153l16 11l92 -100l146 100l10 -11l-153 -153h-40zM89 37.5q-37 49.5 -37 120.5q0 60 22 118.5t66 104.5q35 37 70.5 56t79.5 19q38 0 67 -24t29 -76q0 -30 -16.5 -50t-40.5 -20q-19 0 -29 11.5t-10 26.5q0 29 32 52q11 9 11 26q0 9 -11 19.5t-36 10.5
q-78 0 -136 -174q-11 -33 -18.5 -82.5t-7.5 -77.5q0 -44 19.5 -65t47.5 -21q62 0 101 50t55 93l21 -7q-24 -68 -73 -114t-109 -46t-97 49.5z" />
    <glyph glyph-name="ccedilla" unicode="&#xe7;" horiz-adv-x="424" 
d="M63.5 -195.5q-22.5 16.5 -22.5 47.5q0 18 12 34.5t30 16.5q14 0 21 -8.5t7 -22.5q0 -10 -7.5 -18t-16.5 -8q-4 0 -6.5 -3t-2.5 -8q0 -25 39 -25q28 0 41.5 16.5t13.5 37.5q0 14 -3.5 25.5t-10.5 27.5q-10 22 -10 36q0 17 9 34l2 4q-49 11 -78 58t-29 109q0 60 22 118.5
t66 104.5q35 37 70.5 56t79.5 19q38 0 67 -24t29 -76q0 -30 -16.5 -50t-40.5 -20q-19 0 -29 11.5t-10 26.5q0 29 32 52q11 9 11 26q0 9 -11 19.5t-36 10.5q-78 0 -136 -174q-11 -33 -18.5 -82.5t-7.5 -77.5q0 -44 19.5 -65t47.5 -21q62 0 101 50t55 93l21 -7
q-24 -68 -73 -114t-109 -46h-2l-6 -9q-4 -7 -4 -15q0 -16 20 -36q14 -14 21 -26.5t7 -27.5q0 -36 -30.5 -61t-76.5 -25q-29 0 -51.5 16.5z" />
    <glyph glyph-name="uni1E09" unicode="&#x1e09;" horiz-adv-x="424" 
d="M300 520l106 123q13 15 24 21t24 6q15 0 21.5 -8.5t6.5 -20.5q0 -26 -32 -46l-138 -87zM63.5 -195.5q-22.5 16.5 -22.5 47.5q0 18 12 34.5t30 16.5q14 0 21 -8.5t7 -22.5q0 -10 -7.5 -18t-16.5 -8q-4 0 -6.5 -3t-2.5 -8q0 -25 39 -25q28 0 41.5 16.5t13.5 37.5
q0 14 -3.5 25.5t-10.5 27.5q-10 22 -10 36q0 17 9 34l2 4q-49 11 -78 58t-29 109q0 60 22 118.5t66 104.5q35 37 70.5 56t79.5 19q38 0 67 -24t29 -76q0 -30 -16.5 -50t-40.5 -20q-19 0 -29 11.5t-10 26.5q0 29 32 52q11 9 11 26q0 9 -11 19.5t-36 10.5q-78 0 -136 -174
q-11 -33 -18.5 -82.5t-7.5 -77.5q0 -44 19.5 -65t47.5 -21q62 0 101 50t55 93l21 -7q-24 -68 -73 -114t-109 -46h-2l-6 -9q-4 -7 -4 -15q0 -16 20 -36q14 -14 21 -26.5t7 -27.5q0 -36 -30.5 -61t-76.5 -25q-29 0 -51.5 16.5z" />
    <glyph glyph-name="ccircumflex" unicode="&#x109;" horiz-adv-x="424" 
d="M186 521q89 47 152 151h40q9 -104 70 -151l-12 -13q-60 36 -97 92q-70 -57 -147 -92zM89 37.5q-37 49.5 -37 120.5q0 60 22 118.5t66 104.5q35 37 70.5 56t79.5 19q38 0 67 -24t29 -76q0 -30 -16.5 -50t-40.5 -20q-19 0 -29 11.5t-10 26.5q0 29 32 52q11 9 11 26
q0 9 -11 19.5t-36 10.5q-78 0 -136 -174q-11 -33 -18.5 -82.5t-7.5 -77.5q0 -44 19.5 -65t47.5 -21q62 0 101 50t55 93l21 -7q-24 -68 -73 -114t-109 -46t-97 49.5z" />
    <glyph glyph-name="cdotaccent" unicode="&#x10b;" horiz-adv-x="424" 
d="M303 559q-15 15 -15 37q0 23 15 37.5t37 14.5q23 0 37.5 -14.5t14.5 -37.5q0 -22 -14.5 -37t-37.5 -15q-22 0 -37 15zM89 37.5q-37 49.5 -37 120.5q0 60 22 118.5t66 104.5q35 37 70.5 56t79.5 19q38 0 67 -24t29 -76q0 -30 -16.5 -50t-40.5 -20q-19 0 -29 11.5t-10 26.5
q0 29 32 52q11 9 11 26q0 9 -11 19.5t-36 10.5q-78 0 -136 -174q-11 -33 -18.5 -82.5t-7.5 -77.5q0 -44 19.5 -65t47.5 -21q62 0 101 50t55 93l21 -7q-24 -68 -73 -114t-109 -46t-97 49.5z" />
    <glyph glyph-name="d" unicode="d" horiz-adv-x="530" 
d="M71.5 25.5q-29.5 37.5 -29.5 99.5q0 60 22.5 118.5t48.5 99.5q33 53 78.5 83t91.5 30q30 0 54 -23t32 -65l4 -2l81 300l1 7q0 15 -17 15h-88l7 24h177l-158 -583q-14 -56 -14 -80q0 -14 4 -20.5t14 -6.5q27 0 56.5 45t52.5 115l20 -6q-28 -78 -64.5 -133t-82.5 -55
q-58 0 -58 102q0 13 0.5 19.5t0.5 7.5l-3 2q-21 -45 -61.5 -88t-86.5 -43q-53 0 -82.5 37.5zM231 49.5q34 37.5 63 100.5q20 45 35 100t15 90q0 44 -18 68t-49 24t-59 -34t-48 -78q-25 -56 -40.5 -119t-15.5 -116q0 -30 10.5 -51.5t35.5 -21.5q37 0 71 37.5z" />
    <glyph glyph-name="eth" unicode="&#xf0;" horiz-adv-x="494" 
d="M121.5 7.5q-30.5 19.5 -50 59.5t-19.5 97q0 70 33.5 138t89.5 111t119 43q23 0 43 -9t34 -23l9 4q0 52 -21 108l-9 23l-124 -46l-10 27l121 44q-24 53 -72 118h89q32 -47 51 -93l121 44l10 -27l-120 -44l7 -18q12 -33 20.5 -82.5t8.5 -84.5q0 -52 -14 -113.5t-32 -103.5
q-37 -85 -95 -138.5t-125 -53.5q-34 0 -64.5 19.5zM257 44q27 32 50 86q21 49 34 106t13 104q0 41 -16 66.5t-48 25.5q-40 0 -68 -32.5t-51 -85.5q-21 -49 -34 -106t-13 -104q0 -41 17 -66.5t49 -25.5q40 0 67 32z" />
    <glyph glyph-name="dcaron" unicode="&#x10f;" horiz-adv-x="622" 
d="M550 506q43 17 71.5 43.5t28.5 61.5q0 21 -21 28q-39 14 -39 46q0 22 13.5 33.5t33.5 11.5q24 0 40.5 -19.5t16.5 -47.5q0 -65 -38 -108t-98 -67zM71.5 25.5q-29.5 37.5 -29.5 99.5q0 60 22.5 118.5t48.5 99.5q33 53 78.5 83t91.5 30q30 0 54 -23t32 -65l4 -2l81 300l1 7
q0 15 -17 15h-88l7 24h177l-158 -583q-14 -56 -14 -80q0 -14 4 -20.5t14 -6.5q27 0 56.5 45t52.5 115l20 -6q-28 -78 -64.5 -133t-82.5 -55q-58 0 -58 102q0 13 0.5 19.5t0.5 7.5l-3 2q-21 -45 -61.5 -88t-86.5 -43q-53 0 -82.5 37.5zM231 49.5q34 37.5 63 100.5
q20 45 35 100t15 90q0 44 -18 68t-49 24t-59 -34t-48 -78q-25 -56 -40.5 -119t-15.5 -116q0 -30 10.5 -51.5t35.5 -21.5q37 0 71 37.5z" />
    <glyph glyph-name="dcroat" unicode="&#x111;" horiz-adv-x="530" 
d="M71.5 25.5q-29.5 37.5 -29.5 99.5q0 60 22.5 118.5t48.5 99.5q33 53 78.5 83t91.5 30q30 0 54 -23t32 -65l4 -2l51 190h-183l7 28h184l22 82l1 7q0 15 -17 15h-88l7 24h177l-35 -128h79l-7 -28h-79l-116 -427q-14 -56 -14 -80q0 -14 4 -20.5t14 -6.5q27 0 56.5 45
t52.5 115l20 -6q-28 -78 -64.5 -133t-82.5 -55q-58 0 -58 102q0 12 0.5 18.5t0.5 8.5l-3 2q-21 -45 -61.5 -88t-86.5 -43q-53 0 -82.5 37.5zM231 49.5q34 37.5 63 100.5q20 45 35 100t15 90q0 44 -18 68t-49 24t-59 -34t-48 -78q-25 -56 -40.5 -119t-15.5 -116
q0 -30 10.5 -51.5t35.5 -21.5q37 0 71 37.5z" />
    <glyph glyph-name="uni1E0D" unicode="&#x1e0d;" horiz-adv-x="530" 
d="M71.5 25.5q-29.5 37.5 -29.5 99.5q0 60 22.5 118.5t48.5 99.5q33 53 78.5 83t91.5 30q30 0 54 -23t32 -65l4 -2l81 300l1 7q0 15 -17 15h-88l7 24h177l-158 -583q-14 -56 -14 -80q0 -14 4 -20.5t14 -6.5q27 0 56.5 45t52.5 115l20 -6q-28 -78 -64.5 -133t-82.5 -55
q-58 0 -58 102q0 13 0.5 19.5t0.5 7.5l-3 2q-21 -45 -61.5 -88t-86.5 -43q-53 0 -82.5 37.5zM231 49.5q34 37.5 63 100.5q20 45 35 100t15 90q0 44 -18 68t-49 24t-59 -34t-48 -78q-25 -56 -40.5 -119t-15.5 -116q0 -30 10.5 -51.5t35.5 -21.5q37 0 71 37.5zM137 -187.5
q-15 14.5 -15 37.5q0 22 15 37t37 15q23 0 37.5 -15t14.5 -37q0 -23 -14.5 -37.5t-37.5 -14.5q-22 0 -37 14.5z" />
    <glyph glyph-name="uni1E0F" unicode="&#x1e0f;" horiz-adv-x="530" 
d="M71.5 25.5q-29.5 37.5 -29.5 99.5q0 60 22.5 118.5t48.5 99.5q33 53 78.5 83t91.5 30q30 0 54 -23t32 -65l4 -2l81 300l1 7q0 15 -17 15h-88l7 24h177l-158 -583q-14 -56 -14 -80q0 -14 4 -20.5t14 -6.5q27 0 56.5 45t52.5 115l20 -6q-28 -78 -64.5 -133t-82.5 -55
q-58 0 -58 102q0 13 0.5 19.5t0.5 7.5l-3 2q-21 -45 -61.5 -88t-86.5 -43q-53 0 -82.5 37.5zM231 49.5q34 37.5 63 100.5q20 45 35 100t15 90q0 44 -18 68t-49 24t-59 -34t-48 -78q-25 -56 -40.5 -119t-15.5 -116q0 -30 10.5 -51.5t35.5 -21.5q37 0 71 37.5zM14 -168l10 40
h314l-10 -40h-314z" />
    <glyph glyph-name="uni01F3" unicode="&#x1f3;" horiz-adv-x="970" 
d="M71.5 25.5q-29.5 37.5 -29.5 99.5q0 60 22.5 118.5t48.5 99.5q33 53 78.5 83t91.5 30q30 0 54 -23t32 -65l4 -2l81 300l1 7q0 15 -17 15h-88l7 24h177l-158 -583q-14 -56 -14 -80q0 -14 4 -20.5t14 -6.5q27 0 56.5 45t52.5 115l20 -6q-28 -78 -64.5 -133t-82.5 -55
q-58 0 -58 102q0 13 0.5 19.5t0.5 7.5l-3 2q-21 -45 -61.5 -88t-86.5 -43q-53 0 -82.5 37.5zM566 -0.5q-10 11.5 -10 30.5q0 70 52 124.5t119 82.5q88 36 124.5 60t49.5 55l-2 4q-27 -20 -51 -20q-21 0 -35.5 6.5t-31.5 19.5q-14 11 -24.5 16.5t-24.5 5.5q-43 0 -67.5 -29
t-40.5 -69l-16 7q15 56 51.5 109.5t86.5 53.5q27 0 47 -15.5t38 -41.5q13 -17 21.5 -25t17.5 -8q14 0 21.5 5t7.5 13q0 5 -1.5 8t-7.5 6t-11 10t-5 16q0 14 7 23t21 9q19 0 28.5 -13.5t9.5 -34.5q0 -33 -23 -70t-62.5 -69.5t-85.5 -52.5q-70 -30 -102.5 -46.5t-46 -30
t-17.5 -32.5q42 -11 76 -29q25 -13 46.5 -19.5t48.5 -6.5q45 0 73.5 36t43.5 83l19 -8q-22 -74 -56 -124.5t-91 -50.5q-37 0 -62 15.5t-48 42.5q-13 15 -22.5 22.5t-19.5 7.5q-21 0 -21 -16q0 -11 15 -16q17 -7 17 -25q0 -13 -7.5 -22t-22.5 -9q-16 0 -26 11.5zM231 49.5
q34 37.5 63 100.5q20 45 35 100t15 90q0 44 -18 68t-49 24t-59 -34t-48 -78q-25 -56 -40.5 -119t-15.5 -116q0 -30 10.5 -51.5t35.5 -21.5q37 0 71 37.5z" />
    <glyph glyph-name="uni01C6" unicode="&#x1c6;" horiz-adv-x="440" 
d="M71.5 25.5q-29.5 37.5 -29.5 99.5q0 60 22.5 118.5t48.5 99.5q33 53 78.5 83t91.5 30q30 0 54 -23t32 -65l4 -2l81 300l1 7q0 15 -17 15h-88l7 24h177l-158 -583q-14 -56 -14 -80q0 -14 4 -20.5t14 -6.5q27 0 56.5 45t52.5 115l20 -6q-28 -78 -64.5 -133t-82.5 -55
q-58 0 -58 102q0 13 0.5 19.5t0.5 7.5l-3 2q-21 -45 -61.5 -88t-86.5 -43q-53 0 -82.5 37.5zM803 508l-71 153l16 11l92 -100l146 100l10 -11l-153 -153h-40zM566 -0.5q-10 11.5 -10 30.5q0 70 52 124.5t119 82.5q88 36 124.5 60t49.5 55l-2 4q-27 -20 -51 -20
q-21 0 -35.5 6.5t-31.5 19.5q-14 11 -24.5 16.5t-24.5 5.5q-43 0 -67.5 -29t-40.5 -69l-16 7q15 56 51.5 109.5t86.5 53.5q27 0 47 -15.5t38 -41.5q13 -17 21.5 -25t17.5 -8q14 0 21.5 5t7.5 13q0 5 -1.5 8t-7.5 6t-11 10t-5 16q0 14 7 23t21 9q19 0 28.5 -13.5t9.5 -34.5
q0 -33 -23 -70t-62.5 -69.5t-85.5 -52.5q-70 -30 -102.5 -46.5t-46 -30t-17.5 -32.5q42 -11 76 -29q25 -13 46.5 -19.5t48.5 -6.5q45 0 73.5 36t43.5 83l19 -8q-22 -74 -56 -124.5t-91 -50.5q-37 0 -62 15.5t-48 42.5q-13 15 -22.5 22.5t-19.5 7.5q-21 0 -21 -16
q0 -11 15 -16q17 -7 17 -25q0 -13 -7.5 -22t-22.5 -9q-16 0 -26 11.5zM231 49.5q34 37.5 63 100.5q20 45 35 100t15 90q0 44 -18 68t-49 24t-59 -34t-48 -78q-25 -56 -40.5 -119t-15.5 -116q0 -30 10.5 -51.5t35.5 -21.5q37 0 71 37.5z" />
    <glyph glyph-name="e" unicode="e" horiz-adv-x="410" 
d="M89 37.5q-37 49.5 -37 120.5q0 60 22 118.5t66 104.5q72 75 150 75q40 0 65.5 -19.5t25.5 -64.5q0 -78 -101 -125q-34 -16 -68 -22.5t-74 -9.5q-5 -21 -9.5 -54.5t-4.5 -62.5q0 -44 19.5 -65t47.5 -21q62 0 101 50t55 93l21 -7q-24 -68 -73 -114t-109 -46t-97 49.5z
M261 265q32 14 52 44t20 69q0 29 -12 41.5t-30 12.5q-41 0 -76 -37.5t-51 -81.5q-5 -16 -11 -38t-9 -35q73 5 117 25z" />
    <glyph glyph-name="eacute" unicode="&#xe9;" horiz-adv-x="410" 
d="M298 520l106 123q13 15 24 21t24 6q15 0 21.5 -8.5t6.5 -20.5q0 -26 -32 -46l-138 -87zM89 37.5q-37 49.5 -37 120.5q0 60 22 118.5t66 104.5q72 75 150 75q40 0 65.5 -19.5t25.5 -64.5q0 -78 -101 -125q-34 -16 -68 -22.5t-74 -9.5q-5 -21 -9.5 -54.5t-4.5 -62.5
q0 -44 19.5 -65t47.5 -21q62 0 101 50t55 93l21 -7q-24 -68 -73 -114t-109 -46t-97 49.5zM261 265q32 14 52 44t20 69q0 29 -12 41.5t-30 12.5q-41 0 -76 -37.5t-51 -81.5q-5 -16 -11 -38t-9 -35q73 5 117 25z" />
    <glyph glyph-name="ebreve" unicode="&#x115;" horiz-adv-x="410" 
d="M249.5 559q-25.5 33 -25.5 76q0 13 4 31h22q-1 -5 -1 -16q0 -35 20.5 -59.5t69.5 -24.5q55 0 91 30.5t52 69.5h22q-7 -27 -31.5 -60t-62.5 -56.5t-82 -23.5q-53 0 -78.5 33zM89 37.5q-37 49.5 -37 120.5q0 60 22 118.5t66 104.5q72 75 150 75q40 0 65.5 -19.5t25.5 -64.5
q0 -78 -101 -125q-34 -16 -68 -22.5t-74 -9.5q-5 -21 -9.5 -54.5t-4.5 -62.5q0 -44 19.5 -65t47.5 -21q62 0 101 50t55 93l21 -7q-24 -68 -73 -114t-109 -46t-97 49.5zM261 265q32 14 52 44t20 69q0 29 -12 41.5t-30 12.5q-41 0 -76 -37.5t-51 -81.5q-5 -16 -11 -38t-9 -35
q73 5 117 25z" />
    <glyph glyph-name="ecaron" unicode="&#x11b;" horiz-adv-x="410" 
d="M291 508l-71 153l16 11l92 -100l146 100l10 -11l-153 -153h-40zM89 37.5q-37 49.5 -37 120.5q0 60 22 118.5t66 104.5q72 75 150 75q40 0 65.5 -19.5t25.5 -64.5q0 -78 -101 -125q-34 -16 -68 -22.5t-74 -9.5q-5 -21 -9.5 -54.5t-4.5 -62.5q0 -44 19.5 -65t47.5 -21
q62 0 101 50t55 93l21 -7q-24 -68 -73 -114t-109 -46t-97 49.5zM261 265q32 14 52 44t20 69q0 29 -12 41.5t-30 12.5q-41 0 -76 -37.5t-51 -81.5q-5 -16 -11 -38t-9 -35q73 5 117 25z" />
    <glyph glyph-name="uni1E1D" unicode="&#x1e1d;" horiz-adv-x="410" 
d="M249.5 559q-25.5 33 -25.5 76q0 13 4 31h22q-1 -5 -1 -16q0 -35 20.5 -59.5t69.5 -24.5q55 0 91 30.5t52 69.5h22q-7 -27 -31.5 -60t-62.5 -56.5t-82 -23.5q-53 0 -78.5 33zM63.5 -195.5q-22.5 16.5 -22.5 47.5q0 18 12 34.5t30 16.5q14 0 21 -8.5t7 -22.5
q0 -10 -7.5 -18t-16.5 -8q-4 0 -6.5 -3t-2.5 -8q0 -25 39 -25q28 0 41.5 16.5t13.5 37.5q0 14 -3.5 25.5t-10.5 27.5q-10 22 -10 36q0 17 9 34l2 4q-49 11 -78 58t-29 109q0 60 22 118.5t66 104.5q72 75 150 75q40 0 65.5 -19.5t25.5 -64.5q0 -78 -101 -125
q-34 -16 -68 -22.5t-74 -9.5q-5 -21 -9.5 -54.5t-4.5 -62.5q0 -44 19.5 -65t47.5 -21q62 0 101 50t55 93l21 -7q-24 -68 -73 -114t-109 -46h-2l-6 -9q-4 -7 -4 -15q0 -16 20 -36q14 -14 21 -26.5t7 -27.5q0 -36 -30.5 -61t-76.5 -25q-29 0 -51.5 16.5zM261 265q32 14 52 44
t20 69q0 29 -12 41.5t-30 12.5q-41 0 -76 -37.5t-51 -81.5q-5 -16 -11 -38t-9 -35q73 5 117 25z" />
    <glyph glyph-name="ecircumflex" unicode="&#xea;" horiz-adv-x="410" 
d="M184 521q89 47 152 151h40q9 -104 70 -151l-12 -13q-60 36 -97 92q-70 -57 -147 -92zM89 37.5q-37 49.5 -37 120.5q0 60 22 118.5t66 104.5q72 75 150 75q40 0 65.5 -19.5t25.5 -64.5q0 -78 -101 -125q-34 -16 -68 -22.5t-74 -9.5q-5 -21 -9.5 -54.5t-4.5 -62.5
q0 -44 19.5 -65t47.5 -21q62 0 101 50t55 93l21 -7q-24 -68 -73 -114t-109 -46t-97 49.5zM261 265q32 14 52 44t20 69q0 29 -12 41.5t-30 12.5q-41 0 -76 -37.5t-51 -81.5q-5 -16 -11 -38t-9 -35q73 5 117 25z" />
    <glyph glyph-name="uni1EBF" unicode="&#x1ebf;" horiz-adv-x="410" 
d="M89 37.5q-37 49.5 -37 120.5q0 60 22 118.5t66 104.5q72 75 150 75q40 0 65.5 -19.5t25.5 -64.5q0 -78 -101 -125q-34 -16 -68 -22.5t-74 -9.5q-5 -21 -9.5 -54.5t-4.5 -62.5q0 -44 19.5 -65t47.5 -21q62 0 101 50t55 93l21 -7q-24 -68 -73 -114t-109 -46t-97 49.5z
M261 265q32 14 52 44t20 69q0 29 -12 41.5t-30 12.5q-41 0 -76 -37.5t-51 -81.5q-5 -16 -11 -38t-9 -35q73 5 117 25zM148 521q89 47 152 151h40q9 -104 70 -151l-12 -13q-60 36 -97 92q-70 -57 -147 -92zM397 600l106 123q13 15 24 21t24 6q15 0 21.5 -8.5t6.5 -20.5
q0 -26 -32 -46l-138 -87z" />
    <glyph glyph-name="uni1EC7" unicode="&#x1ec7;" horiz-adv-x="410" 
d="M89 37.5q-37 49.5 -37 120.5q0 60 22 118.5t66 104.5q72 75 150 75q40 0 65.5 -19.5t25.5 -64.5q0 -78 -101 -125q-34 -16 -68 -22.5t-74 -9.5q-5 -21 -9.5 -54.5t-4.5 -62.5q0 -44 19.5 -65t47.5 -21q62 0 101 50t55 93l21 -7q-24 -68 -73 -114t-109 -46t-97 49.5z
M261 265q32 14 52 44t20 69q0 29 -12 41.5t-30 12.5q-41 0 -76 -37.5t-51 -81.5q-5 -16 -11 -38t-9 -35q73 5 117 25zM67.5 -187.5q-14.5 14.5 -14.5 37.5q0 22 14.5 37t37.5 15q22 0 37 -15t15 -37q0 -23 -15 -37.5t-37 -14.5q-23 0 -37.5 14.5zM148 521q89 47 152 151h40
q9 -104 70 -151l-12 -13q-60 36 -97 92q-70 -57 -147 -92z" />
    <glyph glyph-name="uni1EC1" unicode="&#x1ec1;" horiz-adv-x="410" 
d="M89 37.5q-37 49.5 -37 120.5q0 60 22 118.5t66 104.5q72 75 150 75q40 0 65.5 -19.5t25.5 -64.5q0 -78 -101 -125q-34 -16 -68 -22.5t-74 -9.5q-5 -21 -9.5 -54.5t-4.5 -62.5q0 -44 19.5 -65t47.5 -21q62 0 101 50t55 93l21 -7q-24 -68 -73 -114t-109 -46t-97 49.5z
M261 265q32 14 52 44t20 69q0 29 -12 41.5t-30 12.5q-41 0 -76 -37.5t-51 -81.5q-5 -16 -11 -38t-9 -35q73 5 117 25zM148 521q89 47 152 151h40q9 -104 70 -151l-12 -13q-60 36 -97 92q-70 -57 -147 -92zM334 736q-14 16 -14 35q0 12 8 24t28 12q15 0 24 -9t16 -30l40 -119
l-17 -10z" />
    <glyph glyph-name="uni1EC3" unicode="&#x1ec3;" horiz-adv-x="410" 
d="M89 37.5q-37 49.5 -37 120.5q0 60 22 118.5t66 104.5q72 75 150 75q40 0 65.5 -19.5t25.5 -64.5q0 -78 -101 -125q-34 -16 -68 -22.5t-74 -9.5q-5 -21 -9.5 -54.5t-4.5 -62.5q0 -44 19.5 -65t47.5 -21q62 0 101 50t55 93l21 -7q-24 -68 -73 -114t-109 -46t-97 49.5z
M261 265q32 14 52 44t20 69q0 29 -12 41.5t-30 12.5q-41 0 -76 -37.5t-51 -81.5q-5 -16 -11 -38t-9 -35q73 5 117 25zM148 521q89 47 152 151h40q9 -104 70 -151l-12 -13q-60 36 -97 92q-70 -57 -147 -92zM420 688q32 23 39 58q2 10 2 15q0 18 -11 29.5t-34 11.5
q-21 0 -40 -11t-21 -25q-3 -10 0 -13q1 -1 2.5 -2t2.5 0q1 -1 4 1q3 1 4.5 0.5t3.5 0.5q14 -2 14 -15q0 -11 -8.5 -18.5t-22.5 -7.5q-10 0 -17.5 8t-7.5 22q0 31 29.5 52.5t63.5 22.5q33 -1 55.5 -16t22.5 -42q0 -33 -22.5 -54.5t-64.5 -47.5h-35z" />
    <glyph glyph-name="uni1EC5" unicode="&#x1ec5;" horiz-adv-x="410" 
d="M89 37.5q-37 49.5 -37 120.5q0 60 22 118.5t66 104.5q72 75 150 75q40 0 65.5 -19.5t25.5 -64.5q0 -78 -101 -125q-34 -16 -68 -22.5t-74 -9.5q-5 -21 -9.5 -54.5t-4.5 -62.5q0 -44 19.5 -65t47.5 -21q62 0 101 50t55 93l21 -7q-24 -68 -73 -114t-109 -46t-97 49.5z
M261 265q32 14 52 44t20 69q0 29 -12 41.5t-30 12.5q-41 0 -76 -37.5t-51 -81.5q-5 -16 -11 -38t-9 -35q73 5 117 25zM148 521q89 47 152 151h40q9 -104 70 -151l-12 -13q-60 36 -97 92q-70 -57 -147 -92zM223 754.5q21 27.5 59 27.5q22 0 38.5 -5.5t38.5 -16.5
q20 -9 32.5 -13.5t28.5 -4.5q17 0 25 10t11 30h22q0 -39 -21 -66.5t-59 -27.5q-22 0 -38.5 5.5t-38.5 16.5q-20 9 -32.5 13.5t-28.5 4.5q-17 0 -25 -10t-11 -30h-22q0 39 21 66.5z" />
    <glyph glyph-name="uni0205" unicode="&#x205;" horiz-adv-x="410" 
d="M164 605q-14 16 -14 33q0 12 9 25t29 13q31 0 38 -37l43 -131h-24zM298 605q-14 16 -14 33q0 12 9 25t29 13q31 0 38 -37l43 -131h-24zM89 37.5q-37 49.5 -37 120.5q0 60 22 118.5t66 104.5q72 75 150 75q40 0 65.5 -19.5t25.5 -64.5q0 -78 -101 -125q-34 -16 -68 -22.5
t-74 -9.5q-5 -21 -9.5 -54.5t-4.5 -62.5q0 -44 19.5 -65t47.5 -21q62 0 101 50t55 93l21 -7q-24 -68 -73 -114t-109 -46t-97 49.5zM261 265q32 14 52 44t20 69q0 29 -12 41.5t-30 12.5q-41 0 -76 -37.5t-51 -81.5q-5 -16 -11 -38t-9 -35q73 5 117 25z" />
    <glyph glyph-name="edieresis" unicode="&#xeb;" horiz-adv-x="410" 
d="M210.5 562.5q-14.5 14.5 -14.5 33.5q0 20 14.5 34t33.5 14q20 0 34 -14t14 -34q0 -19 -14 -33.5t-34 -14.5q-19 0 -33.5 14.5zM398.5 562.5q-14.5 14.5 -14.5 33.5q0 20 14.5 34t33.5 14q20 0 34 -14t14 -34q0 -19 -14 -33.5t-34 -14.5q-19 0 -33.5 14.5zM89 37.5
q-37 49.5 -37 120.5q0 60 22 118.5t66 104.5q72 75 150 75q40 0 65.5 -19.5t25.5 -64.5q0 -78 -101 -125q-34 -16 -68 -22.5t-74 -9.5q-5 -21 -9.5 -54.5t-4.5 -62.5q0 -44 19.5 -65t47.5 -21q62 0 101 50t55 93l21 -7q-24 -68 -73 -114t-109 -46t-97 49.5zM261 265
q32 14 52 44t20 69q0 29 -12 41.5t-30 12.5q-41 0 -76 -37.5t-51 -81.5q-5 -16 -11 -38t-9 -35q73 5 117 25z" />
    <glyph glyph-name="edotaccent" unicode="&#x117;" horiz-adv-x="410" 
d="M301 559q-15 15 -15 37q0 23 15 37.5t37 14.5q23 0 37.5 -14.5t14.5 -37.5q0 -22 -14.5 -37t-37.5 -15q-22 0 -37 15zM89 37.5q-37 49.5 -37 120.5q0 60 22 118.5t66 104.5q72 75 150 75q40 0 65.5 -19.5t25.5 -64.5q0 -78 -101 -125q-34 -16 -68 -22.5t-74 -9.5
q-5 -21 -9.5 -54.5t-4.5 -62.5q0 -44 19.5 -65t47.5 -21q62 0 101 50t55 93l21 -7q-24 -68 -73 -114t-109 -46t-97 49.5zM261 265q32 14 52 44t20 69q0 29 -12 41.5t-30 12.5q-41 0 -76 -37.5t-51 -81.5q-5 -16 -11 -38t-9 -35q73 5 117 25z" />
    <glyph glyph-name="uni1EB9" unicode="&#x1eb9;" horiz-adv-x="410" 
d="M89 37.5q-37 49.5 -37 120.5q0 60 22 118.5t66 104.5q72 75 150 75q40 0 65.5 -19.5t25.5 -64.5q0 -78 -101 -125q-34 -16 -68 -22.5t-74 -9.5q-5 -21 -9.5 -54.5t-4.5 -62.5q0 -44 19.5 -65t47.5 -21q62 0 101 50t55 93l21 -7q-24 -68 -73 -114t-109 -46t-97 49.5z
M261 265q32 14 52 44t20 69q0 29 -12 41.5t-30 12.5q-41 0 -76 -37.5t-51 -81.5q-5 -16 -11 -38t-9 -35q73 5 117 25zM110.5 -187.5q-14.5 14.5 -14.5 37.5q0 22 14.5 37t37.5 15q22 0 37 -15t15 -37q0 -23 -15 -37.5t-37 -14.5q-23 0 -37.5 14.5z" />
    <glyph glyph-name="egrave" unicode="&#xe8;" horiz-adv-x="410" 
d="M234 605q-14 16 -14 35q0 12 8 24t28 12q15 0 24 -9t16 -30l40 -119l-17 -10zM89 37.5q-37 49.5 -37 120.5q0 60 22 118.5t66 104.5q72 75 150 75q40 0 65.5 -19.5t25.5 -64.5q0 -78 -101 -125q-34 -16 -68 -22.5t-74 -9.5q-5 -21 -9.5 -54.5t-4.5 -62.5q0 -44 19.5 -65
t47.5 -21q62 0 101 50t55 93l21 -7q-24 -68 -73 -114t-109 -46t-97 49.5zM261 265q32 14 52 44t20 69q0 29 -12 41.5t-30 12.5q-41 0 -76 -37.5t-51 -81.5q-5 -16 -11 -38t-9 -35q73 5 117 25z" />
    <glyph glyph-name="uni1EBB" unicode="&#x1ebb;" horiz-adv-x="410" 
d="M89 37.5q-37 49.5 -37 120.5q0 60 22 118.5t66 104.5q72 75 150 75q40 0 65.5 -19.5t25.5 -64.5q0 -78 -101 -125q-34 -16 -68 -22.5t-74 -9.5q-5 -21 -9.5 -54.5t-4.5 -62.5q0 -44 19.5 -65t47.5 -21q62 0 101 50t55 93l21 -7q-24 -68 -73 -114t-109 -46t-97 49.5z
M261 265q32 14 52 44t20 69q0 29 -12 41.5t-30 12.5q-41 0 -76 -37.5t-51 -81.5q-5 -16 -11 -38t-9 -35q73 5 117 25zM307 533q32 23 39 58q2 10 2 15q0 18 -11 29.5t-34 11.5q-21 0 -40 -11t-21 -25q-3 -10 0 -13q1 -1 2.5 -2t2.5 0q1 -1 4 1q3 1 4.5 0.5t3.5 0.5
q14 -2 14 -15q0 -11 -8.5 -18.5t-22.5 -7.5q-10 0 -17.5 8t-7.5 22q0 31 29.5 52.5t63.5 22.5q33 -1 55.5 -16t22.5 -42q0 -33 -22.5 -54.5t-64.5 -47.5h-35z" />
    <glyph glyph-name="uni0207" unicode="&#x207;" horiz-adv-x="410" 
d="M182 524q28 49 77 97.5t94 48.5q29 0 49 -24.5t30 -58.5t12 -63l-16 -6q-6 37 -28 66.5t-62 29.5t-77.5 -29.5t-62.5 -66.5zM89 37.5q-37 49.5 -37 120.5q0 60 22 118.5t66 104.5q72 75 150 75q40 0 65.5 -19.5t25.5 -64.5q0 -78 -101 -125q-34 -16 -68 -22.5t-74 -9.5
q-5 -21 -9.5 -54.5t-4.5 -62.5q0 -44 19.5 -65t47.5 -21q62 0 101 50t55 93l21 -7q-24 -68 -73 -114t-109 -46t-97 49.5zM261 265q32 14 52 44t20 69q0 29 -12 41.5t-30 12.5q-41 0 -76 -37.5t-51 -81.5q-5 -16 -11 -38t-9 -35q73 5 117 25z" />
    <glyph glyph-name="emacron" unicode="&#x113;" horiz-adv-x="410" 
d="M170 546l10 40h314l-10 -40h-314zM89 37.5q-37 49.5 -37 120.5q0 60 22 118.5t66 104.5q72 75 150 75q40 0 65.5 -19.5t25.5 -64.5q0 -78 -101 -125q-34 -16 -68 -22.5t-74 -9.5q-5 -21 -9.5 -54.5t-4.5 -62.5q0 -44 19.5 -65t47.5 -21q62 0 101 50t55 93l21 -7
q-24 -68 -73 -114t-109 -46t-97 49.5zM261 265q32 14 52 44t20 69q0 29 -12 41.5t-30 12.5q-41 0 -76 -37.5t-51 -81.5q-5 -16 -11 -38t-9 -35q73 5 117 25z" />
    <glyph glyph-name="uni1E17" unicode="&#x1e17;" horiz-adv-x="410" 
d="M318 624l106 123q13 15 24 21t24 6q15 0 21.5 -8.5t6.5 -20.5q0 -26 -32 -46l-138 -87zM156 524l10 40h314l-10 -40h-314zM89 37.5q-37 49.5 -37 120.5q0 60 22 118.5t66 104.5q72 75 150 75q40 0 65.5 -19.5t25.5 -64.5q0 -78 -101 -125q-34 -16 -68 -22.5t-74 -9.5
q-5 -21 -9.5 -54.5t-4.5 -62.5q0 -44 19.5 -65t47.5 -21q62 0 101 50t55 93l21 -7q-24 -68 -73 -114t-109 -46t-97 49.5zM261 265q32 14 52 44t20 69q0 29 -12 41.5t-30 12.5q-41 0 -76 -37.5t-51 -81.5q-5 -16 -11 -38t-9 -35q73 5 117 25z" />
    <glyph glyph-name="uni1E15" unicode="&#x1e15;" horiz-adv-x="410" 
d="M254 709q-14 16 -14 35q0 12 8 24t28 12q15 0 24 -9t16 -30l40 -119l-17 -10zM156 524l10 40h314l-10 -40h-314zM89 37.5q-37 49.5 -37 120.5q0 60 22 118.5t66 104.5q72 75 150 75q40 0 65.5 -19.5t25.5 -64.5q0 -78 -101 -125q-34 -16 -68 -22.5t-74 -9.5
q-5 -21 -9.5 -54.5t-4.5 -62.5q0 -44 19.5 -65t47.5 -21q62 0 101 50t55 93l21 -7q-24 -68 -73 -114t-109 -46t-97 49.5zM261 265q32 14 52 44t20 69q0 29 -12 41.5t-30 12.5q-41 0 -76 -37.5t-51 -81.5q-5 -16 -11 -38t-9 -35q73 5 117 25z" />
    <glyph glyph-name="eogonek" unicode="&#x119;" horiz-adv-x="410" 
d="M135 -202q-19 18 -19 48q0 71 92 141l-1 3q-14 -2 -21 -2q-60 0 -97 49.5t-37 120.5q0 60 22 118.5t66 104.5q72 75 150 75q40 0 65.5 -19.5t25.5 -64.5q0 -78 -101 -125q-34 -16 -68 -22.5t-74 -9.5q-5 -21 -9.5 -54.5t-4.5 -62.5q0 -44 19.5 -65t47.5 -21q62 0 101 50
t55 93l21 -7q-13 -37 -34 -69t-48 -53l-50 -40q-30 -22 -53 -54t-23 -62q0 -14 6 -23.5t18 -9.5q19 0 32 12q10 9 16.5 13t14.5 4q10 0 15.5 -6t5.5 -16q0 -13 -10 -28t-30 -25.5t-48 -10.5q-26 0 -45 18zM261 265q32 14 52 44t20 69q0 29 -12 41.5t-30 12.5
q-41 0 -76 -37.5t-51 -81.5q-5 -16 -11 -38t-9 -35q73 5 117 25z" />
    <glyph glyph-name="uni1EBD" unicode="&#x1ebd;" horiz-adv-x="410" 
d="M89 37.5q-37 49.5 -37 120.5q0 60 22 118.5t66 104.5q72 75 150 75q40 0 65.5 -19.5t25.5 -64.5q0 -78 -101 -125q-34 -16 -68 -22.5t-74 -9.5q-5 -21 -9.5 -54.5t-4.5 -62.5q0 -44 19.5 -65t47.5 -21q62 0 101 50t55 93l21 -7q-24 -68 -73 -114t-109 -46t-97 49.5z
M261 265q32 14 52 44t20 69q0 29 -12 41.5t-30 12.5q-41 0 -76 -37.5t-51 -81.5q-5 -16 -11 -38t-9 -35q73 5 117 25zM191 622.5q21 27.5 59 27.5q22 0 38.5 -5.5t38.5 -16.5q20 -9 32.5 -13.5t28.5 -4.5q17 0 25 10t11 30h22q0 -39 -21 -66.5t-59 -27.5q-22 0 -38.5 5.5
t-38.5 16.5q-20 9 -32.5 13.5t-28.5 4.5q-17 0 -25 -10t-11 -30h-22q0 39 21 66.5z" />
    <glyph glyph-name="f" unicode="f" horiz-adv-x="320" 
d="M138 416h-103l6 28h104l12 39q6 23 21.5 58t27.5 55q74 124 177 124q35 0 58 -21t23 -51q0 -27 -15 -44.5t-36 -17.5q-16 0 -24.5 9t-8.5 24q0 10 4.5 18.5t11.5 13.5q16 8 16 22q0 10 -7.5 16.5t-20.5 6.5q-32 0 -57.5 -14.5t-49.5 -56t-46 -119.5l-18 -62h112l-6 -28
h-113l-180 -654h-68z" />
    <glyph glyph-name="g" unicode="g" horiz-adv-x="480" 
d="M15 -222q-32 26 -32 72q0 28 16.5 44t37.5 16q19 0 29.5 -12.5t10.5 -27.5q0 -25 -19 -40q-5 -5 -7 -9t-2 -13q0 -32 43 -32q34 0 59.5 12.5t49.5 44.5q25 33 40.5 70.5t26.5 80.5q6 19 18.5 63.5t18.5 69.5l-3 2q-21 -45 -61.5 -88t-86.5 -43q-53 0 -82.5 37.5
t-29.5 99.5q0 60 22.5 118.5t48.5 99.5q33 53 78.5 83t91.5 30q30 0 54 -23t32 -65l4 -2l22 78h66l-123 -451q-13 -47 -41 -99.5t-64 -85.5q-31 -29 -66.5 -42.5t-66.5 -13.5q-53 0 -85 26zM231 49.5q34 37.5 63 100.5q20 45 35 100t15 90q0 44 -18 68t-49 24t-59 -34
t-48 -78q-25 -56 -40.5 -119t-15.5 -116q0 -30 10.5 -51.5t35.5 -21.5q37 0 71 37.5z" />
    <glyph glyph-name="gbreve" unicode="&#x11f;" horiz-adv-x="480" 
d="M259.5 559q-25.5 33 -25.5 76q0 13 4 31h22q-1 -5 -1 -16q0 -35 20.5 -59.5t69.5 -24.5q55 0 91 30.5t52 69.5h22q-7 -27 -31.5 -60t-62.5 -56.5t-82 -23.5q-53 0 -78.5 33zM15 -222q-32 26 -32 72q0 28 16.5 44t37.5 16q19 0 29.5 -12.5t10.5 -27.5q0 -25 -19 -40
q-5 -5 -7 -9t-2 -13q0 -32 43 -32q34 0 59.5 12.5t49.5 44.5q25 33 40.5 70.5t26.5 80.5q6 19 18.5 63.5t18.5 69.5l-3 2q-21 -45 -61.5 -88t-86.5 -43q-53 0 -82.5 37.5t-29.5 99.5q0 60 22.5 118.5t48.5 99.5q33 53 78.5 83t91.5 30q30 0 54 -23t32 -65l4 -2l22 78h66
l-123 -451q-13 -47 -41 -99.5t-64 -85.5q-31 -29 -66.5 -42.5t-66.5 -13.5q-53 0 -85 26zM231 49.5q34 37.5 63 100.5q20 45 35 100t15 90q0 44 -18 68t-49 24t-59 -34t-48 -78q-25 -56 -40.5 -119t-15.5 -116q0 -30 10.5 -51.5t35.5 -21.5q37 0 71 37.5z" />
    <glyph glyph-name="gcircumflex" unicode="&#x11d;" horiz-adv-x="480" 
d="M194 521q89 47 152 151h40q9 -104 70 -151l-12 -13q-60 36 -97 92q-70 -57 -147 -92zM15 -222q-32 26 -32 72q0 28 16.5 44t37.5 16q19 0 29.5 -12.5t10.5 -27.5q0 -25 -19 -40q-5 -5 -7 -9t-2 -13q0 -32 43 -32q34 0 59.5 12.5t49.5 44.5q25 33 40.5 70.5t26.5 80.5
q6 19 18.5 63.5t18.5 69.5l-3 2q-21 -45 -61.5 -88t-86.5 -43q-53 0 -82.5 37.5t-29.5 99.5q0 60 22.5 118.5t48.5 99.5q33 53 78.5 83t91.5 30q30 0 54 -23t32 -65l4 -2l22 78h66l-123 -451q-13 -47 -41 -99.5t-64 -85.5q-31 -29 -66.5 -42.5t-66.5 -13.5q-53 0 -85 26z
M231 49.5q34 37.5 63 100.5q20 45 35 100t15 90q0 44 -18 68t-49 24t-59 -34t-48 -78q-25 -56 -40.5 -119t-15.5 -116q0 -30 10.5 -51.5t35.5 -21.5q37 0 71 37.5z" />
    <glyph glyph-name="gcommaaccent" unicode="&#x123;" horiz-adv-x="480" 
d="M296.5 505q-18.5 17 -18.5 50q0 64 41 107.5t103 67.5l10 -20q-108 -44 -108 -105q0 -13 10 -19q7 -3 18 -3q20 0 31 -13t11 -31q0 -23 -15 -37t-37 -14q-27 0 -45.5 17zM15 -222q-32 26 -32 72q0 28 16.5 44t37.5 16q19 0 29.5 -12.5t10.5 -27.5q0 -25 -19 -40
q-5 -5 -7 -9t-2 -13q0 -32 43 -32q34 0 59.5 12.5t49.5 44.5q25 33 40.5 70.5t26.5 80.5q6 19 18.5 63.5t18.5 69.5l-3 2q-21 -45 -61.5 -88t-86.5 -43q-53 0 -82.5 37.5t-29.5 99.5q0 60 22.5 118.5t48.5 99.5q33 53 78.5 83t91.5 30q30 0 54 -23t32 -65l4 -2l22 78h66
l-123 -451q-13 -47 -41 -99.5t-64 -85.5q-31 -29 -66.5 -42.5t-66.5 -13.5q-53 0 -85 26zM231 49.5q34 37.5 63 100.5q20 45 35 100t15 90q0 44 -18 68t-49 24t-59 -34t-48 -78q-25 -56 -40.5 -119t-15.5 -116q0 -30 10.5 -51.5t35.5 -21.5q37 0 71 37.5z" />
    <glyph glyph-name="gdotaccent" unicode="&#x121;" horiz-adv-x="480" 
d="M311 559q-15 15 -15 37q0 23 15 37.5t37 14.5q23 0 37.5 -14.5t14.5 -37.5q0 -22 -14.5 -37t-37.5 -15q-22 0 -37 15zM15 -222q-32 26 -32 72q0 28 16.5 44t37.5 16q19 0 29.5 -12.5t10.5 -27.5q0 -25 -19 -40q-5 -5 -7 -9t-2 -13q0 -32 43 -32q34 0 59.5 12.5t49.5 44.5
q25 33 40.5 70.5t26.5 80.5q6 19 18.5 63.5t18.5 69.5l-3 2q-21 -45 -61.5 -88t-86.5 -43q-53 0 -82.5 37.5t-29.5 99.5q0 60 22.5 118.5t48.5 99.5q33 53 78.5 83t91.5 30q30 0 54 -23t32 -65l4 -2l22 78h66l-123 -451q-13 -47 -41 -99.5t-64 -85.5q-31 -29 -66.5 -42.5
t-66.5 -13.5q-53 0 -85 26zM231 49.5q34 37.5 63 100.5q20 45 35 100t15 90q0 44 -18 68t-49 24t-59 -34t-48 -78q-25 -56 -40.5 -119t-15.5 -116q0 -30 10.5 -51.5t35.5 -21.5q37 0 71 37.5z" />
    <glyph glyph-name="uni1E21" unicode="&#x1e21;" horiz-adv-x="480" 
d="M180 546l10 40h314l-10 -40h-314zM15 -222q-32 26 -32 72q0 28 16.5 44t37.5 16q19 0 29.5 -12.5t10.5 -27.5q0 -25 -19 -40q-5 -5 -7 -9t-2 -13q0 -32 43 -32q34 0 59.5 12.5t49.5 44.5q25 33 40.5 70.5t26.5 80.5q6 19 18.5 63.5t18.5 69.5l-3 2q-21 -45 -61.5 -88
t-86.5 -43q-53 0 -82.5 37.5t-29.5 99.5q0 60 22.5 118.5t48.5 99.5q33 53 78.5 83t91.5 30q30 0 54 -23t32 -65l4 -2l22 78h66l-123 -451q-13 -47 -41 -99.5t-64 -85.5q-31 -29 -66.5 -42.5t-66.5 -13.5q-53 0 -85 26zM231 49.5q34 37.5 63 100.5q20 45 35 100t15 90
q0 44 -18 68t-49 24t-59 -34t-48 -78q-25 -56 -40.5 -119t-15.5 -116q0 -30 10.5 -51.5t35.5 -21.5q37 0 71 37.5z" />
    <glyph glyph-name="h" unicode="h" horiz-adv-x="512" 
d="M293.5 12q-18.5 24 -18.5 72q0 22 6 52.5t14 49.5l64 149q5 11 10.5 29t5.5 30q0 14 -5.5 23t-16.5 9q-60 0 -127 -113q-40 -68 -71.5 -135t-44.5 -112l-20 -66h-66l182 666q2 8 2 10q0 12 -18 12h-88l7 24h177l-132 -479l4 -3l14 25q44 85 89.5 143t100.5 58
q30 0 47.5 -24.5t17.5 -71.5q0 -22 -6 -53.5t-14 -48.5l-64 -149q-5 -11 -10.5 -29t-5.5 -30q0 -14 6 -23t17 -9q34 0 65 52t53 112l20 -6q-27 -81 -65.5 -134.5t-83.5 -53.5q-27 0 -45.5 24z" />
    <glyph glyph-name="hbar" unicode="&#x127;" horiz-adv-x="512" 
d="M293.5 12q-18.5 24 -18.5 72q0 22 6 52.5t14 49.5l64 149q5 11 10.5 29t5.5 30q0 14 -5.5 23t-16.5 9q-60 0 -127 -113q-40 -68 -71.5 -135t-44.5 -112l-20 -66h-66l152 556h-116l8 28h116l22 82q2 8 2 10q0 12 -18 12h-88l7 24h177l-35 -128h163l-8 -28h-163l-89 -323
l4 -3l14 25q44 85 89.5 143t100.5 58q30 0 47.5 -24.5t17.5 -71.5q0 -22 -6 -53.5t-14 -48.5l-64 -149q-5 -11 -10.5 -29t-5.5 -30q0 -14 6 -23t17 -9q34 0 65 52t53 112l20 -6q-27 -81 -65.5 -134.5t-83.5 -53.5q-27 0 -45.5 24z" />
    <glyph glyph-name="uni1E2B" unicode="&#x1e2b;" horiz-adv-x="512" 
d="M293.5 12q-18.5 24 -18.5 72q0 22 6 52.5t14 49.5l64 149q5 11 10.5 29t5.5 30q0 14 -5.5 23t-16.5 9q-60 0 -127 -113q-40 -68 -71.5 -135t-44.5 -112l-20 -66h-66l182 666q2 8 2 10q0 12 -18 12h-88l7 24h177l-132 -479l4 -3l14 25q44 85 89.5 143t100.5 58
q30 0 47.5 -24.5t17.5 -71.5q0 -22 -6 -53.5t-14 -48.5l-64 -149q-5 -11 -10.5 -29t-5.5 -30q0 -14 6 -23t17 -9q34 0 65 52t53 112l20 -6q-27 -81 -65.5 -134.5t-83.5 -53.5q-27 0 -45.5 24zM73.5 -187q-25.5 33 -25.5 76q0 13 4 31h22q-1 -5 -1 -16q0 -35 20.5 -59.5
t69.5 -24.5q55 0 91 30.5t52 69.5h22q-7 -27 -31.5 -60t-62.5 -56.5t-82 -23.5q-53 0 -78.5 33z" />
    <glyph glyph-name="hcircumflex" unicode="&#x125;" horiz-adv-x="512" 
d="M234 775q89 47 152 151h40q9 -104 70 -151l-12 -13q-60 36 -97 92q-70 -57 -147 -92zM293.5 12q-18.5 24 -18.5 72q0 22 6 52.5t14 49.5l64 149q5 11 10.5 29t5.5 30q0 14 -5.5 23t-16.5 9q-60 0 -127 -113q-40 -68 -71.5 -135t-44.5 -112l-20 -66h-66l182 666q2 8 2 10
q0 12 -18 12h-88l7 24h177l-132 -479l4 -3l14 25q44 85 89.5 143t100.5 58q30 0 47.5 -24.5t17.5 -71.5q0 -22 -6 -53.5t-14 -48.5l-64 -149q-5 -11 -10.5 -29t-5.5 -30q0 -14 6 -23t17 -9q34 0 65 52t53 112l20 -6q-27 -81 -65.5 -134.5t-83.5 -53.5q-27 0 -45.5 24z" />
    <glyph glyph-name="uni1E25" unicode="&#x1e25;" horiz-adv-x="512" 
d="M293.5 12q-18.5 24 -18.5 72q0 22 6 52.5t14 49.5l64 149q5 11 10.5 29t5.5 30q0 14 -5.5 23t-16.5 9q-60 0 -127 -113q-40 -68 -71.5 -135t-44.5 -112l-20 -66h-66l182 666q2 8 2 10q0 12 -18 12h-88l7 24h177l-132 -479l4 -3l14 25q44 85 89.5 143t100.5 58
q30 0 47.5 -24.5t17.5 -71.5q0 -22 -6 -53.5t-14 -48.5l-64 -149q-5 -11 -10.5 -29t-5.5 -30q0 -14 6 -23t17 -9q34 0 65 52t53 112l20 -6q-27 -81 -65.5 -134.5t-83.5 -53.5q-27 0 -45.5 24zM125 -187.5q-15 14.5 -15 37.5q0 22 15 37t37 15q23 0 37.5 -15t14.5 -37
q0 -23 -14.5 -37.5t-37.5 -14.5q-22 0 -37 14.5z" />
    <glyph glyph-name="i" unicode="i" horiz-adv-x="334" 
d="M231 601q-15 15 -15 37q0 23 15 37.5t37 14.5q23 0 37.5 -14.5t14.5 -37.5q0 -22 -14.5 -37t-37.5 -15q-22 0 -37 15zM115.5 12q-18.5 24 -18.5 72q0 22 6 52.5t14 49.5l64 149q5 11 10.5 29t5.5 30q0 14 -5.5 23t-16.5 9q-34 0 -65.5 -52t-53.5 -112l-20 6q27 80 66 134
t84 54q26 0 44.5 -25t18.5 -71q0 -22 -6 -53.5t-14 -48.5l-64 -149q-5 -11 -10.5 -29t-5.5 -30q0 -14 6 -23t17 -9q34 0 65 52t53 112l20 -6q-27 -81 -65.5 -134.5t-83.5 -53.5q-27 0 -45.5 24z" />
    <glyph glyph-name="dotlessi" unicode="&#x131;" horiz-adv-x="334" 
d="M115.5 12q-18.5 24 -18.5 72q0 22 6 52.5t14 49.5l64 149q5 11 10.5 29t5.5 30q0 14 -5.5 23t-16.5 9q-34 0 -65.5 -52t-53.5 -112l-20 6q27 80 66 134t84 54q26 0 44.5 -25t18.5 -71q0 -22 -6 -53.5t-14 -48.5l-64 -149q-5 -11 -10.5 -29t-5.5 -30q0 -14 6 -23t17 -9
q34 0 65 52t53 112l20 -6q-27 -81 -65.5 -134.5t-83.5 -53.5q-27 0 -45.5 24z" />
    <glyph glyph-name="iacute" unicode="&#xed;" horiz-adv-x="334" 
d="M210 520l106 123q13 15 24 21t24 6q15 0 21.5 -8.5t6.5 -20.5q0 -26 -32 -46l-138 -87zM115.5 12q-18.5 24 -18.5 72q0 22 6 52.5t14 49.5l64 149q5 11 10.5 29t5.5 30q0 14 -5.5 23t-16.5 9q-34 0 -65.5 -52t-53.5 -112l-20 6q27 80 66 134t84 54q26 0 44.5 -25
t18.5 -71q0 -22 -6 -53.5t-14 -48.5l-64 -149q-5 -11 -10.5 -29t-5.5 -30q0 -14 6 -23t17 -9q34 0 65 52t53 112l20 -6q-27 -81 -65.5 -134.5t-83.5 -53.5q-27 0 -45.5 24z" />
    <glyph glyph-name="ibreve" unicode="&#x12d;" horiz-adv-x="334" 
d="M161.5 559q-25.5 33 -25.5 76q0 13 4 31h22q-1 -5 -1 -16q0 -35 20.5 -59.5t69.5 -24.5q55 0 91 30.5t52 69.5h22q-7 -27 -31.5 -60t-62.5 -56.5t-82 -23.5q-53 0 -78.5 33zM115.5 12q-18.5 24 -18.5 72q0 22 6 52.5t14 49.5l64 149q5 11 10.5 29t5.5 30q0 14 -5.5 23
t-16.5 9q-34 0 -65.5 -52t-53.5 -112l-20 6q27 80 66 134t84 54q26 0 44.5 -25t18.5 -71q0 -22 -6 -53.5t-14 -48.5l-64 -149q-5 -11 -10.5 -29t-5.5 -30q0 -14 6 -23t17 -9q34 0 65 52t53 112l20 -6q-27 -81 -65.5 -134.5t-83.5 -53.5q-27 0 -45.5 24z" />
    <glyph glyph-name="icircumflex" unicode="&#xee;" horiz-adv-x="334" 
d="M96 521q89 47 152 151h40q9 -104 70 -151l-12 -13q-60 36 -97 92q-70 -57 -147 -92zM115.5 12q-18.5 24 -18.5 72q0 22 6 52.5t14 49.5l64 149q5 11 10.5 29t5.5 30q0 14 -5.5 23t-16.5 9q-34 0 -65.5 -52t-53.5 -112l-20 6q27 80 66 134t84 54q26 0 44.5 -25t18.5 -71
q0 -22 -6 -53.5t-14 -48.5l-64 -149q-5 -11 -10.5 -29t-5.5 -30q0 -14 6 -23t17 -9q34 0 65 52t53 112l20 -6q-27 -81 -65.5 -134.5t-83.5 -53.5q-27 0 -45.5 24z" />
    <glyph glyph-name="uni0209" unicode="&#x209;" horiz-adv-x="334" 
d="M76 605q-14 16 -14 33q0 12 9 25t29 13q31 0 38 -37l43 -131h-24zM210 605q-14 16 -14 33q0 12 9 25t29 13q31 0 38 -37l43 -131h-24zM115.5 12q-18.5 24 -18.5 72q0 22 6 52.5t14 49.5l64 149q5 11 10.5 29t5.5 30q0 14 -5.5 23t-16.5 9q-34 0 -65.5 -52t-53.5 -112
l-20 6q27 80 66 134t84 54q26 0 44.5 -25t18.5 -71q0 -22 -6 -53.5t-14 -48.5l-64 -149q-5 -11 -10.5 -29t-5.5 -30q0 -14 6 -23t17 -9q34 0 65 52t53 112l20 -6q-27 -81 -65.5 -134.5t-83.5 -53.5q-27 0 -45.5 24z" />
    <glyph glyph-name="idieresis" unicode="&#xef;" horiz-adv-x="334" 
d="M134.5 562.5q-14.5 14.5 -14.5 33.5q0 20 14.5 34t33.5 14q20 0 34 -14t14 -34q0 -19 -14 -33.5t-34 -14.5q-19 0 -33.5 14.5zM298.5 562.5q-14.5 14.5 -14.5 33.5q0 20 14.5 34t33.5 14q20 0 34 -14t14 -34q0 -19 -14 -33.5t-34 -14.5q-19 0 -33.5 14.5zM115.5 12
q-18.5 24 -18.5 72q0 22 6 52.5t14 49.5l64 149q5 11 10.5 29t5.5 30q0 14 -5.5 23t-16.5 9q-34 0 -65.5 -52t-53.5 -112l-20 6q27 80 66 134t84 54q26 0 44.5 -25t18.5 -71q0 -22 -6 -53.5t-14 -48.5l-64 -149q-5 -11 -10.5 -29t-5.5 -30q0 -14 6 -23t17 -9q34 0 65 52
t53 112l20 -6q-27 -81 -65.5 -134.5t-83.5 -53.5q-27 0 -45.5 24z" />
    <glyph glyph-name="uni1E2F" unicode="&#x1e2f;" horiz-adv-x="334" 
d="M238 648l106 123q13 15 24 21t24 6q15 0 21.5 -8.5t6.5 -20.5q0 -26 -32 -46l-138 -87zM126.5 534.5q-14.5 14.5 -14.5 33.5q0 20 14.5 34t33.5 14q20 0 34 -14t14 -34q0 -19 -14 -33.5t-34 -14.5q-19 0 -33.5 14.5zM290.5 534.5q-14.5 14.5 -14.5 33.5q0 20 14.5 34
t33.5 14q20 0 34 -14t14 -34q0 -19 -14 -33.5t-34 -14.5q-19 0 -33.5 14.5zM115.5 12q-18.5 24 -18.5 72q0 22 6 52.5t14 49.5l64 149q5 11 10.5 29t5.5 30q0 14 -5.5 23t-16.5 9q-34 0 -65.5 -52t-53.5 -112l-20 6q27 80 66 134t84 54q26 0 44.5 -25t18.5 -71
q0 -22 -6 -53.5t-14 -48.5l-64 -149q-5 -11 -10.5 -29t-5.5 -30q0 -14 6 -23t17 -9q34 0 65 52t53 112l20 -6q-27 -81 -65.5 -134.5t-83.5 -53.5q-27 0 -45.5 24z" />
    <glyph glyph-name="uni1ECB" unicode="&#x1ecb;" horiz-adv-x="334" 
d="M231 601q-15 15 -15 37q0 23 15 37.5t37 14.5q23 0 37.5 -14.5t14.5 -37.5q0 -22 -14.5 -37t-37.5 -15q-22 0 -37 15zM115.5 12q-18.5 24 -18.5 72q0 22 6 52.5t14 49.5l64 149q5 11 10.5 29t5.5 30q0 14 -5.5 23t-16.5 9q-34 0 -65.5 -52t-53.5 -112l-20 6q27 80 66 134
t84 54q26 0 44.5 -25t18.5 -71q0 -22 -6 -53.5t-14 -48.5l-64 -149q-5 -11 -10.5 -29t-5.5 -30q0 -14 6 -23t17 -9q34 0 65 52t53 112l20 -6q-27 -81 -65.5 -134.5t-83.5 -53.5q-27 0 -45.5 24zM77.5 -187.5q-14.5 14.5 -14.5 37.5q0 22 14.5 37t37.5 15q22 0 37 -15t15 -37
q0 -23 -15 -37.5t-37 -14.5q-23 0 -37.5 14.5z" />
    <glyph glyph-name="igrave" unicode="&#xec;" horiz-adv-x="334" 
d="M146 605q-14 16 -14 35q0 12 8 24t28 12q15 0 24 -9t16 -30l40 -119l-17 -10zM115.5 12q-18.5 24 -18.5 72q0 22 6 52.5t14 49.5l64 149q5 11 10.5 29t5.5 30q0 14 -5.5 23t-16.5 9q-34 0 -65.5 -52t-53.5 -112l-20 6q27 80 66 134t84 54q26 0 44.5 -25t18.5 -71
q0 -22 -6 -53.5t-14 -48.5l-64 -149q-5 -11 -10.5 -29t-5.5 -30q0 -14 6 -23t17 -9q34 0 65 52t53 112l20 -6q-27 -81 -65.5 -134.5t-83.5 -53.5q-27 0 -45.5 24z" />
    <glyph glyph-name="uni1EC9" unicode="&#x1ec9;" horiz-adv-x="334" 
d="M115.5 12q-18.5 24 -18.5 72q0 22 6 52.5t14 49.5l64 149q5 11 10.5 29t5.5 30q0 14 -5.5 23t-16.5 9q-34 0 -65.5 -52t-53.5 -112l-20 6q27 80 66 134t84 54q26 0 44.5 -25t18.5 -71q0 -22 -6 -53.5t-14 -48.5l-64 -149q-5 -11 -10.5 -29t-5.5 -30q0 -14 6 -23t17 -9
q34 0 65 52t53 112l20 -6q-27 -81 -65.5 -134.5t-83.5 -53.5q-27 0 -45.5 24zM269 533q32 23 39 58q2 10 2 15q0 18 -11 29.5t-34 11.5q-21 0 -40 -11t-21 -25q-3 -10 0 -13q1 -1 2.5 -2t2.5 0q1 -1 4 1q3 1 4.5 0.5t3.5 0.5q14 -2 14 -15q0 -11 -8.5 -18.5t-22.5 -7.5
q-10 0 -17.5 8t-7.5 22q0 31 29.5 52.5t63.5 22.5q33 -1 55.5 -16t22.5 -42q0 -33 -22.5 -54.5t-64.5 -47.5h-35z" />
    <glyph glyph-name="uni020B" unicode="&#x20b;" horiz-adv-x="334" 
d="M94 524q28 49 77 97.5t94 48.5q29 0 49 -24.5t30 -58.5t12 -63l-16 -6q-6 37 -28 66.5t-62 29.5t-77.5 -29.5t-62.5 -66.5zM115.5 12q-18.5 24 -18.5 72q0 22 6 52.5t14 49.5l64 149q5 11 10.5 29t5.5 30q0 14 -5.5 23t-16.5 9q-34 0 -65.5 -52t-53.5 -112l-20 6
q27 80 66 134t84 54q26 0 44.5 -25t18.5 -71q0 -22 -6 -53.5t-14 -48.5l-64 -149q-5 -11 -10.5 -29t-5.5 -30q0 -14 6 -23t17 -9q34 0 65 52t53 112l20 -6q-27 -81 -65.5 -134.5t-83.5 -53.5q-27 0 -45.5 24z" />
    <glyph glyph-name="imacron" unicode="&#x12b;" horiz-adv-x="334" 
d="M82 546l10 40h314l-10 -40h-314zM115.5 12q-18.5 24 -18.5 72q0 22 6 52.5t14 49.5l64 149q5 11 10.5 29t5.5 30q0 14 -5.5 23t-16.5 9q-34 0 -65.5 -52t-53.5 -112l-20 6q27 80 66 134t84 54q26 0 44.5 -25t18.5 -71q0 -22 -6 -53.5t-14 -48.5l-64 -149
q-5 -11 -10.5 -29t-5.5 -30q0 -14 6 -23t17 -9q34 0 65 52t53 112l20 -6q-27 -81 -65.5 -134.5t-83.5 -53.5q-27 0 -45.5 24z" />
    <glyph glyph-name="iogonek" unicode="&#x12f;" horiz-adv-x="334" 
d="M231 601q-15 15 -15 37q0 23 15 37.5t37 14.5q23 0 37.5 -14.5t14.5 -37.5q0 -22 -14.5 -37t-37.5 -15q-22 0 -37 15zM83 -202q-19 18 -19 48q0 72 90 140v2q-25 5 -41 28t-16 68q0 22 6 52.5t14 49.5l64 149q5 11 10.5 29t5.5 30q0 14 -5.5 23t-16.5 9q-34 0 -65.5 -52
t-53.5 -112l-20 6q27 80 66 134t84 54q26 0 44.5 -25t18.5 -71q0 -22 -6 -53.5t-14 -48.5l-64 -149q-5 -11 -10.5 -29t-5.5 -30q0 -14 6 -23t17 -9q34 0 65 52t53 112l20 -6q-20 -60 -47.5 -107t-60.5 -70q-36 -24 -65 -59t-29 -70q0 -14 6 -23.5t18 -9.5q19 0 32 12
q10 9 16.5 13t14.5 4q10 0 15.5 -6t5.5 -16q0 -13 -10 -28t-30 -25.5t-48 -10.5q-26 0 -45 18z" />
    <glyph glyph-name="itilde" unicode="&#x129;" horiz-adv-x="334" 
d="M137 622.5q21 27.5 59 27.5q22 0 38.5 -5.5t38.5 -16.5q20 -9 32.5 -13.5t28.5 -4.5q17 0 25 10t11 30h22q0 -39 -21 -66.5t-59 -27.5q-22 0 -38.5 5.5t-38.5 16.5q-20 9 -32.5 13.5t-28.5 4.5q-17 0 -25 -10t-11 -30h-22q0 39 21 66.5zM115.5 12q-18.5 24 -18.5 72
q0 22 6 52.5t14 49.5l64 149q5 11 10.5 29t5.5 30q0 14 -5.5 23t-16.5 9q-34 0 -65.5 -52t-53.5 -112l-20 6q27 80 66 134t84 54q26 0 44.5 -25t18.5 -71q0 -22 -6 -53.5t-14 -48.5l-64 -149q-5 -11 -10.5 -29t-5.5 -30q0 -14 6 -23t17 -9q34 0 65 52t53 112l20 -6
q-27 -81 -65.5 -134.5t-83.5 -53.5q-27 0 -45.5 24z" />
    <glyph glyph-name="j" unicode="j" horiz-adv-x="326" 
d="M255 601q-15 15 -15 37q0 23 15 37.5t37 14.5q23 0 37.5 -14.5t14.5 -37.5q0 -22 -14.5 -37t-37.5 -15q-22 0 -37 15zM-70 -226q-27 22 -27 63q0 28 18.5 48t41.5 20q18 0 28 -10.5t10 -27.5q0 -26 -23 -40q-8 -5 -12 -9.5t-4 -13.5q0 -28 31 -28q29 0 54 22.5t40 74.5
l11 49l14 57l92 339q1 6 7.5 29t6.5 45q0 12 -5.5 21t-16.5 9q-32 0 -64.5 -51.5t-55.5 -116.5l-20 6q26 76 67 136t93 60q36 0 50 -23.5t14 -50.5q0 -29 -11 -76l-96 -352q-14 -51 -42 -97.5t-65.5 -75.5t-78.5 -29q-30 0 -57 22z" />
    <glyph glyph-name="uni0237" unicode="&#x237;" horiz-adv-x="326" 
d="M-70 -226q-27 22 -27 63q0 28 18.5 48t41.5 20q18 0 28 -10.5t10 -27.5q0 -26 -23 -40q-8 -5 -12 -9.5t-4 -13.5q0 -28 31 -28q29 0 54 22.5t40 74.5l11 49l14 57l92 339q1 6 7.5 29t6.5 45q0 12 -5.5 21t-16.5 9q-32 0 -64.5 -51.5t-55.5 -116.5l-20 6q26 76 67 136
t93 60q36 0 50 -23.5t14 -50.5q0 -29 -11 -76l-96 -352q-14 -51 -42 -97.5t-65.5 -75.5t-78.5 -29q-30 0 -57 22z" />
    <glyph glyph-name="jcircumflex" unicode="&#x135;" horiz-adv-x="326" 
d="M122 521q89 47 152 151h40q9 -104 70 -151l-12 -13q-60 36 -97 92q-70 -57 -147 -92zM-70 -226q-27 22 -27 63q0 28 18.5 48t41.5 20q18 0 28 -10.5t10 -27.5q0 -26 -23 -40q-8 -5 -12 -9.5t-4 -13.5q0 -28 31 -28q29 0 54 22.5t40 74.5l11 49l14 57l92 339q1 6 7.5 29
t6.5 45q0 12 -5.5 21t-16.5 9q-32 0 -64.5 -51.5t-55.5 -116.5l-20 6q26 76 67 136t93 60q36 0 50 -23.5t14 -50.5q0 -29 -11 -76l-96 -352q-14 -51 -42 -97.5t-65.5 -75.5t-78.5 -29q-30 0 -57 22z" />
    <glyph glyph-name="k" unicode="k" horiz-adv-x="490" 
d="M257 7q-21 19 -21 61q0 28 14 66q1 4 5.5 18.5t4.5 28.5q0 22 -9 33.5t-37 11.5h-60l-64 -226h-66l182 666q2 8 2 10q0 12 -18 12h-88l7 24h177l-126 -462h63q26 0 48 38t38 91q13 43 36 60t49 17q14 0 27 -7t19 -15q10 -13 13 -24t3 -26q0 -27 -14.5 -44.5t-35.5 -17.5
q-14 0 -25 9t-11 25q0 14 9 27q7 11 7 17q0 8 -4 12t-15 4q-14 0 -22 -10t-14 -29q-13 -43 -33 -85t-39 -49l-1 -5q26 -2 46 -22.5t20 -53.5q0 -26 -12 -66q-8 -32 -8 -43q0 -12 5 -21t16 -9q6 0 11 2t14 9q26 19 43 54.5t39 93.5l20 -6q-65 -188 -144 -188q-30 0 -51 19z
" />
    <glyph glyph-name="kcommaaccent" unicode="&#x137;" horiz-adv-x="490" 
d="M257 7q-21 19 -21 61q0 28 14 66q1 4 5.5 18.5t4.5 28.5q0 22 -9 33.5t-37 11.5h-60l-64 -226h-66l182 666q2 8 2 10q0 12 -18 12h-88l7 24h177l-126 -462h63q26 0 48 38t38 91q13 43 36 60t49 17q14 0 27 -7t19 -15q10 -13 13 -24t3 -26q0 -27 -14.5 -44.5t-35.5 -17.5
q-14 0 -25 9t-11 25q0 14 9 27q7 11 7 17q0 8 -4 12t-15 4q-14 0 -22 -10t-14 -29q-13 -43 -33 -85t-39 -49l-1 -5q26 -2 46 -22.5t20 -53.5q0 -26 -12 -66q-8 -32 -8 -43q0 -12 5 -21t16 -9q6 0 11 2t14 9q26 19 43 54.5t39 93.5l20 -6q-65 -188 -144 -188q-30 0 -51 19z
M86 -231q93 38 93 90q0 11 -9 17q-6 2 -15 2q-18 0 -27.5 11t-9.5 27q0 20 13 32t32 12q23 0 39 -15t16 -43q0 -55 -35.5 -92t-88.5 -58z" />
    <glyph glyph-name="kgreenlandic" unicode="&#x138;" horiz-adv-x="548" 
d="M315 7q-21 19 -21 61q0 28 14 66q1 4 5.5 18.5t4.5 28.5q0 22 -9 33.5t-37 11.5h-62l-62 -226h-66l84 306q1 5 9.5 35.5t8.5 51.5q0 29 -20 29q-28 0 -56.5 -46.5t-51.5 -113.5l-20 6q27 76 62 132t85 56q19 0 33.5 -13.5t19.5 -29.5q6 -21 6 -49q0 -18 -13 -70l-12 -44
h64q26 0 48 38t38 91q13 43 36 60t49 17q14 0 27 -7t19 -15q10 -13 13 -24t3 -26q0 -27 -14.5 -44.5t-35.5 -17.5q-14 0 -25 9t-11 25q0 14 9 27q7 11 7 17q0 8 -4 12t-15 4q-14 0 -22 -10t-14 -29q-13 -43 -33 -85t-39 -49l-1 -5q26 -2 46 -22.5t20 -53.5q0 -26 -12 -66
q-8 -32 -8 -43q0 -12 5 -21t16 -9q6 0 11 2t14 9q26 19 43 54.5t39 93.5l20 -6q-65 -188 -144 -188q-30 0 -51 19z" />
    <glyph glyph-name="l" unicode="l" horiz-adv-x="290" 
d="M54 90q0 20 10 60l142 516q2 8 2 10q0 12 -18 12h-88l7 24h175l-156 -574q-16 -64 -16 -89q0 -14 4 -20.5t15 -6.5q28 0 56.5 46.5t51.5 113.5l20 -6q-27 -76 -62 -132t-85 -56q-58 0 -58 102z" />
    <glyph glyph-name="lacute" unicode="&#x13a;" horiz-adv-x="290" 
d="M240 774l106 123q13 15 24 21t24 6q15 0 21.5 -8.5t6.5 -20.5q0 -26 -32 -46l-138 -87zM54 90q0 20 10 60l142 516q2 8 2 10q0 12 -18 12h-88l7 24h175l-156 -574q-16 -64 -16 -89q0 -14 4 -20.5t15 -6.5q28 0 56.5 46.5t51.5 113.5l20 -6q-27 -76 -62 -132t-85 -56
q-58 0 -58 102z" />
    <glyph glyph-name="lcaron" unicode="&#x13e;" horiz-adv-x="372" 
d="M300 506q43 17 71.5 43.5t28.5 61.5q0 21 -21 28q-39 14 -39 46q0 22 13.5 33.5t33.5 11.5q24 0 40.5 -19.5t16.5 -47.5q0 -65 -38 -108t-98 -67zM54 90q0 20 10 60l142 516q2 8 2 10q0 12 -18 12h-88l7 24h175l-156 -574q-16 -64 -16 -89q0 -14 4 -20.5t15 -6.5
q28 0 56.5 46.5t51.5 113.5l20 -6q-27 -76 -62 -132t-85 -56q-58 0 -58 102z" />
    <glyph glyph-name="lcommaaccent" unicode="&#x13c;" horiz-adv-x="290" 
d="M54 90q0 20 10 60l142 516q2 8 2 10q0 12 -18 12h-88l7 24h175l-156 -574q-16 -64 -16 -89q0 -14 4 -20.5t15 -6.5q28 0 56.5 46.5t51.5 113.5l20 -6q-27 -76 -62 -132t-85 -56q-58 0 -58 102zM2 -231q93 38 93 90q0 11 -9 17q-6 2 -15 2q-18 0 -27.5 11t-9.5 27
q0 20 13 32t32 12q23 0 39 -15t16 -43q0 -55 -35.5 -92t-88.5 -58z" />
    <glyph glyph-name="ldot" unicode="&#x140;" horiz-adv-x="466" 
d="M54 90q0 20 10 60l142 516q2 8 2 10q0 12 -18 12h-88l7 24h175l-156 -574q-16 -64 -16 -89q0 -14 4 -20.5t15 -6.5q28 0 56.5 46.5t51.5 113.5l20 -6q-27 -76 -62 -132t-85 -56q-58 0 -58 102zM345.5 327.5q-17.5 17.5 -17.5 44.5t17.5 44.5t44.5 17.5t44.5 -17.5
t17.5 -44.5t-17.5 -44.5t-44.5 -17.5t-44.5 17.5z" />
    <glyph glyph-name="uni1E37" unicode="&#x1e37;" horiz-adv-x="290" 
d="M54 90q0 20 10 60l142 516q2 8 2 10q0 12 -18 12h-88l7 24h175l-156 -574q-16 -64 -16 -89q0 -14 4 -20.5t15 -6.5q28 0 56.5 46.5t51.5 113.5l20 -6q-27 -76 -62 -132t-85 -56q-58 0 -58 102zM37 -187.5q-15 14.5 -15 37.5q0 22 15 37t37 15q23 0 37.5 -15t14.5 -37
q0 -23 -14.5 -37.5t-37.5 -14.5q-22 0 -37 14.5z" />
    <glyph glyph-name="uni01C9" unicode="&#x1c9;" horiz-adv-x="514" 
d="M121 -216q-27 22 -27 63q0 28 18.5 48t41.5 20q18 0 28 -10.5t10 -27.5q0 -26 -23 -40q-8 -5 -12 -9.5t-4 -13.5q0 -28 31 -28q29 0 54 22.5t40 74.5l11 49l14 57l89 329q1 6 7.5 29t6.5 45q0 12 -5.5 21t-16.5 9q-33 0 -68 -86l-94 -229q-23 -56 -48.5 -87.5
t-60.5 -31.5q-59 0 -59 102q0 20 10 60l142 516q2 8 2 10q0 12 -18 12h-88l7 24h175l-156 -574q-16 -64 -16 -89q0 -14 4 -20.5t15 -6.5q20 0 35.5 20.5t31.5 59.5l97 240q21 51 49 82.5t60 31.5q36 0 50 -23.5t14 -50.5q0 -29 -11 -76l-93 -342q-14 -51 -42 -97.5
t-65.5 -75.5t-78.5 -29q-30 0 -57 22zM443 601q-15 15 -15 37q0 23 15 37.5t37 14.5q23 0 37.5 -14.5t14.5 -37.5q0 -22 -14.5 -37t-37.5 -15q-22 0 -37 15z" />
    <glyph glyph-name="uni1E3B" unicode="&#x1e3b;" horiz-adv-x="290" 
d="M54 90q0 20 10 60l142 516q2 8 2 10q0 12 -18 12h-88l7 24h175l-156 -574q-16 -64 -16 -89q0 -14 4 -20.5t15 -6.5q28 0 56.5 46.5t51.5 113.5l20 -6q-27 -76 -62 -132t-85 -56q-58 0 -58 102zM-86 -168l10 40h314l-10 -40h-314z" />
    <glyph glyph-name="lslash" unicode="&#x142;" horiz-adv-x="290" 
d="M54 90q0 20 10 60l49 179l-88 -43l-7 24l104 50l84 306q2 8 2 10q0 12 -18 12h-88l7 24h175l-85 -315l108 53l7 -24l-124 -60l-62 -228q-16 -64 -16 -89q0 -14 4 -20.5t15 -6.5q28 0 56.5 46.5t51.5 113.5l20 -6q-27 -76 -62 -132t-85 -56q-58 0 -58 102z" />
    <glyph glyph-name="m" unicode="m" horiz-adv-x="806" 
d="M587.5 12q-18.5 24 -18.5 72q0 22 6 52.5t14 49.5l64 149q5 11 10.5 29t5.5 30q0 14 -5.5 23t-16.5 9q-60 0 -127 -113q-40 -68 -71.5 -135t-44.5 -112l-20 -66h-66l83 309q2 7 9.5 32.5t7.5 45.5q0 39 -32 39q-26 0 -71 -67t-87.5 -155t-57.5 -138l-20 -66h-66l84 309
q15 60 15 85q0 14 -4 21t-15 7q-51 0 -108 -160l-20 6q66 188 146 188q59 0 59 -103q0 -17 -9 -59t-18 -61l4 -3l12 22q45 86 87.5 145t81.5 59q77 0 77 -95q0 -21 -9.5 -61t-17.5 -67l3 -3l14 25q44 85 89.5 143t100.5 58q30 0 47.5 -24.5t17.5 -71.5q0 -22 -6 -53.5
t-14 -48.5l-64 -149q-5 -11 -10.5 -29t-5.5 -30q0 -14 6 -23t17 -9q34 0 65 52t53 112l20 -6q-27 -81 -65.5 -134.5t-83.5 -53.5q-27 0 -45.5 24z" />
    <glyph glyph-name="uni1E43" unicode="&#x1e43;" horiz-adv-x="806" 
d="M587.5 12q-18.5 24 -18.5 72q0 22 6 52.5t14 49.5l64 149q5 11 10.5 29t5.5 30q0 14 -5.5 23t-16.5 9q-60 0 -127 -113q-40 -68 -71.5 -135t-44.5 -112l-20 -66h-66l83 309q2 7 9.5 32.5t7.5 45.5q0 39 -32 39q-26 0 -71 -67t-87.5 -155t-57.5 -138l-20 -66h-66l84 309
q15 60 15 85q0 14 -4 21t-15 7q-51 0 -108 -160l-20 6q66 188 146 188q59 0 59 -103q0 -17 -9 -59t-18 -61l4 -3l12 22q45 86 87.5 145t81.5 59q77 0 77 -95q0 -21 -9.5 -61t-17.5 -67l3 -3l14 25q44 85 89.5 143t100.5 58q30 0 47.5 -24.5t17.5 -71.5q0 -22 -6 -53.5
t-14 -48.5l-64 -149q-5 -11 -10.5 -29t-5.5 -30q0 -14 6 -23t17 -9q34 0 65 52t53 112l20 -6q-27 -81 -65.5 -134.5t-83.5 -53.5q-27 0 -45.5 24zM277 -187.5q-15 14.5 -15 37.5q0 22 15 37t37 15q23 0 37.5 -15t14.5 -37q0 -23 -14.5 -37.5t-37.5 -14.5q-22 0 -37 14.5z
" />
    <glyph glyph-name="n" unicode="n" horiz-adv-x="572" 
d="M353.5 12q-18.5 24 -18.5 72q0 22 6 52.5t14 49.5l64 149q5 11 10.5 29t5.5 30q0 14 -5.5 23t-16.5 9q-60 0 -127 -113q-40 -68 -71.5 -135t-44.5 -112l-20 -66h-66l84 310q15 60 15 85q0 14 -4 20.5t-15 6.5q-28 0 -56.5 -46.5t-51.5 -113.5l-20 6q66 188 147 188
q58 0 58 -102q0 -20 -9.5 -61.5t-16.5 -59.5l3 -3l14 25q44 85 89.5 143t100.5 58q30 0 47.5 -24.5t17.5 -71.5q0 -22 -6 -53.5t-14 -48.5l-64 -149q-5 -11 -10.5 -29t-5.5 -30q0 -14 6 -23t17 -9q34 0 65 52t53 112l20 -6q-27 -81 -65.5 -134.5t-83.5 -53.5q-27 0 -45.5 24
z" />
    <glyph glyph-name="nacute" unicode="&#x144;" horiz-adv-x="572" 
d="M304 520l106 123q13 15 24 21t24 6q15 0 21.5 -8.5t6.5 -20.5q0 -26 -32 -46l-138 -87zM353.5 12q-18.5 24 -18.5 72q0 22 6 52.5t14 49.5l64 149q5 11 10.5 29t5.5 30q0 14 -5.5 23t-16.5 9q-60 0 -127 -113q-40 -68 -71.5 -135t-44.5 -112l-20 -66h-66l84 310
q15 60 15 85q0 14 -4 20.5t-15 6.5q-28 0 -56.5 -46.5t-51.5 -113.5l-20 6q66 188 147 188q58 0 58 -102q0 -20 -9.5 -61.5t-16.5 -59.5l3 -3l14 25q44 85 89.5 143t100.5 58q30 0 47.5 -24.5t17.5 -71.5q0 -22 -6 -53.5t-14 -48.5l-64 -149q-5 -11 -10.5 -29t-5.5 -30
q0 -14 6 -23t17 -9q34 0 65 52t53 112l20 -6q-27 -81 -65.5 -134.5t-83.5 -53.5q-27 0 -45.5 24z" />
    <glyph glyph-name="ncaron" unicode="&#x148;" horiz-adv-x="572" 
d="M329 508l-71 153l16 11l92 -100l146 100l10 -11l-153 -153h-40zM353.5 12q-18.5 24 -18.5 72q0 22 6 52.5t14 49.5l64 149q5 11 10.5 29t5.5 30q0 14 -5.5 23t-16.5 9q-60 0 -127 -113q-40 -68 -71.5 -135t-44.5 -112l-20 -66h-66l84 310q15 60 15 85q0 14 -4 20.5
t-15 6.5q-28 0 -56.5 -46.5t-51.5 -113.5l-20 6q66 188 147 188q58 0 58 -102q0 -20 -9.5 -61.5t-16.5 -59.5l3 -3l14 25q44 85 89.5 143t100.5 58q30 0 47.5 -24.5t17.5 -71.5q0 -22 -6 -53.5t-14 -48.5l-64 -149q-5 -11 -10.5 -29t-5.5 -30q0 -14 6 -23t17 -9q34 0 65 52
t53 112l20 -6q-27 -81 -65.5 -134.5t-83.5 -53.5q-27 0 -45.5 24z" />
    <glyph glyph-name="ncommaaccent" unicode="&#x146;" horiz-adv-x="572" 
d="M353.5 12q-18.5 24 -18.5 72q0 22 6 52.5t14 49.5l64 149q5 11 10.5 29t5.5 30q0 14 -5.5 23t-16.5 9q-60 0 -127 -113q-40 -68 -71.5 -135t-44.5 -112l-20 -66h-66l84 310q15 60 15 85q0 14 -4 20.5t-15 6.5q-28 0 -56.5 -46.5t-51.5 -113.5l-20 6q66 188 147 188
q58 0 58 -102q0 -20 -9.5 -61.5t-16.5 -59.5l3 -3l14 25q44 85 89.5 143t100.5 58q30 0 47.5 -24.5t17.5 -71.5q0 -22 -6 -53.5t-14 -48.5l-64 -149q-5 -11 -10.5 -29t-5.5 -30q0 -14 6 -23t17 -9q34 0 65 52t53 112l20 -6q-27 -81 -65.5 -134.5t-83.5 -53.5q-27 0 -45.5 24
zM150 -231q93 38 93 90q0 11 -9 17q-6 2 -15 2q-18 0 -27.5 11t-9.5 27q0 20 13 32t32 12q23 0 39 -15t16 -43q0 -55 -35.5 -92t-88.5 -58z" />
    <glyph glyph-name="uni1E45" unicode="&#x1e45;" horiz-adv-x="572" 
d="M339 559q-15 15 -15 37q0 23 15 37.5t37 14.5q23 0 37.5 -14.5t14.5 -37.5q0 -22 -14.5 -37t-37.5 -15q-22 0 -37 15zM353.5 12q-18.5 24 -18.5 72q0 22 6 52.5t14 49.5l64 149q5 11 10.5 29t5.5 30q0 14 -5.5 23t-16.5 9q-60 0 -127 -113q-40 -68 -71.5 -135t-44.5 -112
l-20 -66h-66l84 310q15 60 15 85q0 14 -4 20.5t-15 6.5q-28 0 -56.5 -46.5t-51.5 -113.5l-20 6q66 188 147 188q58 0 58 -102q0 -20 -9.5 -61.5t-16.5 -59.5l3 -3l14 25q44 85 89.5 143t100.5 58q30 0 47.5 -24.5t17.5 -71.5q0 -22 -6 -53.5t-14 -48.5l-64 -149
q-5 -11 -10.5 -29t-5.5 -30q0 -14 6 -23t17 -9q34 0 65 52t53 112l20 -6q-27 -81 -65.5 -134.5t-83.5 -53.5q-27 0 -45.5 24z" />
    <glyph glyph-name="uni1E47" unicode="&#x1e47;" horiz-adv-x="572" 
d="M353.5 12q-18.5 24 -18.5 72q0 22 6 52.5t14 49.5l64 149q5 11 10.5 29t5.5 30q0 14 -5.5 23t-16.5 9q-60 0 -127 -113q-40 -68 -71.5 -135t-44.5 -112l-20 -66h-66l84 310q15 60 15 85q0 14 -4 20.5t-15 6.5q-28 0 -56.5 -46.5t-51.5 -113.5l-20 6q66 188 147 188
q58 0 58 -102q0 -20 -9.5 -61.5t-16.5 -59.5l3 -3l14 25q44 85 89.5 143t100.5 58q30 0 47.5 -24.5t17.5 -71.5q0 -22 -6 -53.5t-14 -48.5l-64 -149q-5 -11 -10.5 -29t-5.5 -30q0 -14 6 -23t17 -9q34 0 65 52t53 112l20 -6q-27 -81 -65.5 -134.5t-83.5 -53.5q-27 0 -45.5 24
zM185 -187.5q-15 14.5 -15 37.5q0 22 15 37t37 15q23 0 37.5 -15t14.5 -37q0 -23 -14.5 -37.5t-37.5 -14.5q-22 0 -37 14.5z" />
    <glyph glyph-name="eng" unicode="&#x14b;" horiz-adv-x="540" 
d="M152.5 -223.5q-26.5 20.5 -26.5 56.5q0 23 12 39.5t36 16.5q16 0 25.5 -10.5t9.5 -23.5q0 -12 -4 -20t-11 -16q-4 -4 -5.5 -8t-1.5 -11q0 -10 9 -15t22 -5q36 0 58 42t45 126l106 387q4 10 6 27.5t2 31.5t-5.5 23t-16.5 9q-60 0 -127 -113q-40 -68 -71.5 -135t-44.5 -112
l-20 -66h-66l84 310q15 60 15 85q0 14 -4 20.5t-15 6.5q-28 0 -56.5 -46.5t-51.5 -113.5l-20 6q66 188 147 188q58 0 58 -102q0 -20 -9.5 -61.5t-16.5 -59.5l3 -3l14 25q44 85 89.5 143t100.5 58q30 0 47.5 -24.5t17.5 -71.5q0 -20 -6.5 -51.5t-12.5 -50.5l-73 -270
q-29 -106 -74.5 -169t-103.5 -63q-38 0 -64.5 20.5z" />
    <glyph glyph-name="uni01CC" unicode="&#x1cc;" horiz-adv-x="800" 
d="M729 601q-15 15 -15 37q0 23 15 37.5t37 14.5q23 0 37.5 -14.5t14.5 -37.5q0 -22 -14.5 -37t-37.5 -15q-22 0 -37 15zM407 -216q-27 22 -27 63q0 28 18.5 48t41.5 20q18 0 28 -10.5t10 -27.5q0 -26 -23 -40q-8 -5 -12 -9.5t-4 -13.5q0 -28 31 -28q29 0 54 22.5t40 74.5
l11 49l14 57l89 329q1 6 7.5 29t6.5 45q0 12 -5.5 21t-16.5 9q-33 0 -68 -86l-94 -229q-23 -56 -48.5 -87.5t-60.5 -31.5q-28 0 -46 24t-18 72q0 22 6 52.5t14 49.5l64 149q5 11 10.5 29t5.5 30q0 14 -5.5 23t-16.5 9q-60 0 -127 -113q-40 -68 -71.5 -135t-44.5 -112
l-20 -66h-66l84 310q15 60 15 85q0 14 -4 20.5t-15 6.5q-28 0 -56.5 -46.5t-51.5 -113.5l-20 6q66 188 147 188q58 0 58 -102q0 -20 -9.5 -61.5t-16.5 -59.5l3 -3l14 25q44 85 89.5 143t100.5 58q30 0 47.5 -24.5t17.5 -71.5q0 -22 -6 -53.5t-14 -48.5l-64 -149
q-5 -11 -10.5 -29t-5.5 -30q0 -14 5.5 -23t17.5 -9q19 0 39 23.5t35 60.5l97 240q21 51 49 82.5t60 31.5q36 0 50 -23.5t14 -50.5q0 -29 -11 -76l-93 -342q-14 -51 -42 -97.5t-65.5 -75.5t-78.5 -29q-30 0 -57 22z" />
    <glyph glyph-name="uni1E49" unicode="&#x1e49;" horiz-adv-x="572" 
d="M353.5 12q-18.5 24 -18.5 72q0 22 6 52.5t14 49.5l64 149q5 11 10.5 29t5.5 30q0 14 -5.5 23t-16.5 9q-60 0 -127 -113q-40 -68 -71.5 -135t-44.5 -112l-20 -66h-66l84 310q15 60 15 85q0 14 -4 20.5t-15 6.5q-28 0 -56.5 -46.5t-51.5 -113.5l-20 6q66 188 147 188
q58 0 58 -102q0 -20 -9.5 -61.5t-16.5 -59.5l3 -3l14 25q44 85 89.5 143t100.5 58q30 0 47.5 -24.5t17.5 -71.5q0 -22 -6 -53.5t-14 -48.5l-64 -149q-5 -11 -10.5 -29t-5.5 -30q0 -14 6 -23t17 -9q34 0 65 52t53 112l20 -6q-27 -81 -65.5 -134.5t-83.5 -53.5q-27 0 -45.5 24
zM62 -168l10 40h314l-10 -40h-314z" />
    <glyph glyph-name="ntilde" unicode="&#xf1;" horiz-adv-x="572" 
d="M263 622.5q21 27.5 59 27.5q22 0 38.5 -5.5t38.5 -16.5q20 -9 32.5 -13.5t28.5 -4.5q17 0 25 10t11 30h22q0 -39 -21 -66.5t-59 -27.5q-22 0 -38.5 5.5t-38.5 16.5q-20 9 -32.5 13.5t-28.5 4.5q-17 0 -25 -10t-11 -30h-22q0 39 21 66.5zM353.5 12q-18.5 24 -18.5 72
q0 22 6 52.5t14 49.5l64 149q5 11 10.5 29t5.5 30q0 14 -5.5 23t-16.5 9q-60 0 -127 -113q-40 -68 -71.5 -135t-44.5 -112l-20 -66h-66l84 310q15 60 15 85q0 14 -4 20.5t-15 6.5q-28 0 -56.5 -46.5t-51.5 -113.5l-20 6q66 188 147 188q58 0 58 -102q0 -20 -9.5 -61.5
t-16.5 -59.5l3 -3l14 25q44 85 89.5 143t100.5 58q30 0 47.5 -24.5t17.5 -71.5q0 -22 -6 -53.5t-14 -48.5l-64 -149q-5 -11 -10.5 -29t-5.5 -30q0 -14 6 -23t17 -9q34 0 65 52t53 112l20 -6q-27 -81 -65.5 -134.5t-83.5 -53.5q-27 0 -45.5 24z" />
    <glyph glyph-name="o" unicode="o" horiz-adv-x="462" 
d="M121.5 7.5q-30.5 19.5 -50 59.5t-19.5 97q0 70 33.5 138t89.5 111t119 43q34 0 64 -19.5t49 -59.5t19 -97q0 -70 -33 -138t-88.5 -111t-118.5 -43q-34 0 -64.5 19.5zM257 44q27 32 50 86q21 49 34 106t13 104q0 41 -16 66.5t-48 25.5q-40 0 -68 -32.5t-51 -85.5
q-21 -49 -34 -106t-13 -104q0 -41 17 -66.5t49 -25.5q40 0 67 32z" />
    <glyph glyph-name="oacute" unicode="&#xf3;" horiz-adv-x="462" 
d="M300 520l106 123q13 15 24 21t24 6q15 0 21.5 -8.5t6.5 -20.5q0 -26 -32 -46l-138 -87zM121.5 7.5q-30.5 19.5 -50 59.5t-19.5 97q0 70 33.5 138t89.5 111t119 43q34 0 64 -19.5t49 -59.5t19 -97q0 -70 -33 -138t-88.5 -111t-118.5 -43q-34 0 -64.5 19.5zM257 44
q27 32 50 86q21 49 34 106t13 104q0 41 -16 66.5t-48 25.5q-40 0 -68 -32.5t-51 -85.5q-21 -49 -34 -106t-13 -104q0 -41 17 -66.5t49 -25.5q40 0 67 32z" />
    <glyph glyph-name="obreve" unicode="&#x14f;" horiz-adv-x="462" 
d="M251.5 559q-25.5 33 -25.5 76q0 13 4 31h22q-1 -5 -1 -16q0 -35 20.5 -59.5t69.5 -24.5q55 0 91 30.5t52 69.5h22q-7 -27 -31.5 -60t-62.5 -56.5t-82 -23.5q-53 0 -78.5 33zM121.5 7.5q-30.5 19.5 -50 59.5t-19.5 97q0 70 33.5 138t89.5 111t119 43q34 0 64 -19.5
t49 -59.5t19 -97q0 -70 -33 -138t-88.5 -111t-118.5 -43q-34 0 -64.5 19.5zM257 44q27 32 50 86q21 49 34 106t13 104q0 41 -16 66.5t-48 25.5q-40 0 -68 -32.5t-51 -85.5q-21 -49 -34 -106t-13 -104q0 -41 17 -66.5t49 -25.5q40 0 67 32z" />
    <glyph glyph-name="ocircumflex" unicode="&#xf4;" horiz-adv-x="462" 
d="M186 521q89 47 152 151h40q9 -104 70 -151l-12 -13q-60 36 -97 92q-70 -57 -147 -92zM121.5 7.5q-30.5 19.5 -50 59.5t-19.5 97q0 70 33.5 138t89.5 111t119 43q34 0 64 -19.5t49 -59.5t19 -97q0 -70 -33 -138t-88.5 -111t-118.5 -43q-34 0 -64.5 19.5zM257 44
q27 32 50 86q21 49 34 106t13 104q0 41 -16 66.5t-48 25.5q-40 0 -68 -32.5t-51 -85.5q-21 -49 -34 -106t-13 -104q0 -41 17 -66.5t49 -25.5q40 0 67 32z" />
    </font>
</defs>
</svg>
