<?xml version="1.0" standalone="no"?>
<!DOCTYPE svg PUBLIC "-//W3C//DTD SVG 1.1//EN" "http://www.w3.org/Graphics/SVG/1.1/DTD/svg11.dtd" >
<svg xmlns="http://www.w3.org/2000/svg" xmlns:xlink="http://www.w3.org/1999/xlink" version="1.1">
<metadata>
Created by FontForge 20230101 at Sat Sep 30 05:29:59 2023
 By Glenn Lewis
Copyright 2022 The Noto Project Authors (https://github.com/notofonts/latin-greek-cyrillic)
</metadata>
<defs>
<font id="NotoSansCondensed-Italic" horiz-adv-x="0" >
  <font-face 
    font-family="Noto Sans Condensed"
    font-weight="400"
    font-style="italic"
    font-stretch="condensed"
    units-per-em="1000"
    panose-1="2 11 5 2 4 5 4 9 2 4"
    ascent="800"
    descent="-200"
    x-height="536"
    cap-height="714"
    bbox="-619 -395 2602 1064"
    underline-thickness="50"
    underline-position="-125"
    slope="-12"
    unicode-range="U+000D-1DF1E"
  />
<missing-glyph horiz-adv-x="566" 
d="M91 0v714h389v-714h-389zM139 47h295v620h-295v-620z" />
    <glyph glyph-name="f_f" unicode="ff" horiz-adv-x="508" 
d="M-65 -240q-15 0 -28.5 2t-26.5 6v70q11 -3 23 -5.5t24 -2.5q34 0 50 29t28 87l112 524h-68l8 41l74 27l12 53q10 44 22 77t29.5 54.5t42.5 32t59 10.5q21 0 42 -4.5t37 -12.5l-27 -63q-11 5 -23 8t-25 3q-32 0 -48.5 -25.5t-28.5 -80.5l-12 -54h172l11 56q10 43 22 76
t29.5 54.5t42.5 32t60 10.5q21 0 42 -4.5t37 -12.5l-27 -63q-12 5 -24 8t-24 3q-32 0 -49 -25.5t-28 -80.5l-12 -54h86l-14 -66h-85l-115 -532q-10 -50 -26.5 -91t-45 -64t-76.5 -23q-16 0 -30 2t-25 6v70q10 -3 22.5 -5.5t24.5 -2.5q34 0 50 29t28 87l112 524h-171
l-114 -532q-11 -50 -27.5 -91t-45.5 -64t-76 -23z" />
    <glyph glyph-name="f_f_i" unicode="ffi" horiz-adv-x="719" 
d="M-65 -240q-15 0 -28.5 2t-26.5 6v70q11 -3 23 -5.5t24 -2.5q34 0 50 29t28 87l112 524h-68l8 41l74 27l12 53q10 44 22 77t29.5 54.5t42.5 32t59 10.5q21 0 42 -4.5t37 -12.5l-27 -63q-11 5 -23 8t-25 3q-32 0 -48.5 -25.5t-28.5 -80.5l-12 -54h172l11 56q10 43 22 76
t29.5 54.5t42.5 32t60 10.5q21 0 42 -4.5t37 -12.5l-27 -63q-12 5 -24 8t-24 3q-32 0 -49 -25.5t-28 -80.5l-12 -54h86l-14 -66h-85l-115 -532q-10 -50 -26.5 -91t-45 -64t-76.5 -23q-16 0 -30 2t-25 6v70q10 -3 22.5 -5.5t24.5 -2.5q34 0 50 29t28 87l112 524h-171
l-114 -532q-11 -50 -27.5 -91t-45.5 -64t-76 -23zM515 0l114 536h80l-114 -536h-80zM692 626q-19 0 -30 10.5t-11 30.5q0 18 7 34t19.5 26t31.5 10t29 -10t10 -30q0 -31 -15.5 -51t-40.5 -20z" />
    <glyph glyph-name="f_f_l" unicode="ffl" horiz-adv-x="718" 
d="M-65 -240q-15 0 -28.5 2t-26.5 6v70q11 -3 23 -5.5t24 -2.5q34 0 50 29t28 87l112 524h-68l8 41l74 27l12 53q10 44 22 77t29.5 54.5t42.5 32t59 10.5q21 0 42 -4.5t37 -12.5l-27 -63q-11 5 -23 8t-25 3q-32 0 -48.5 -25.5t-28.5 -80.5l-12 -54h172l11 56q10 43 22 76
t29.5 54.5t42.5 32t60 10.5q21 0 42 -4.5t37 -12.5l-27 -63q-12 5 -24 8t-24 3q-32 0 -49 -25.5t-28 -80.5l-12 -54h86l-14 -66h-85l-115 -532q-10 -50 -26.5 -91t-45 -64t-76.5 -23q-16 0 -30 2t-25 6v70q10 -3 22.5 -5.5t24.5 -2.5q34 0 50 29t28 87l112 524h-171
l-114 -532q-11 -50 -27.5 -91t-45.5 -64t-76 -23zM516 0l162 760h80l-162 -760h-80z" />
    <glyph glyph-name="fi" unicode="fi" horiz-adv-x="466" 
d="M-65 -240q-15 0 -28.5 2t-26.5 6v70q11 -3 23 -5.5t24 -2.5q36 0 51 30.5t27 85.5l112 524h-68l8 41l74 27l12 53q10 44 22 77t29.5 54.5t42.5 32t59 10.5q21 0 42 -4.5t37 -12.5l-27 -63q-11 5 -23 8t-25 3q-32 0 -48.5 -25.5t-28.5 -80.5l-12 -54h86l-14 -66h-85
l-114 -532q-11 -50 -27.5 -91t-45.5 -64t-76 -23zM262 0l114 536h80l-114 -536h-80zM440 626q-20 0 -30.5 10.5t-10.5 30.5q0 18 6.5 34t19 26t31.5 10q20 0 30 -10t10 -30q0 -31 -16 -51t-40 -20z" />
    <glyph glyph-name="fl" unicode="fl" horiz-adv-x="465" 
d="M-65 -240q-15 0 -28.5 2t-26.5 6v70q11 -3 23 -5.5t24 -2.5q36 0 51 30.5t27 85.5l112 524h-68l8 41l74 27l12 53q10 44 22 77t29.5 54.5t42.5 32t59 10.5q21 0 42 -4.5t37 -12.5l-27 -63q-11 5 -23 8t-25 3q-32 0 -48.5 -25.5t-28.5 -80.5l-12 -54h86l-14 -66h-85
l-114 -532q-11 -50 -27.5 -91t-45.5 -64t-76 -23zM262 0l162 760h80l-162 -760h-80z" />
    <glyph glyph-name=".notdef" horiz-adv-x="566" 
d="M91 0v714h389v-714h-389zM139 47h295v620h-295v-620z" />
    <glyph glyph-name="NULL" 
 />
    <glyph glyph-name="CR" unicode="&#xd;" horiz-adv-x="197" 
 />
    <glyph glyph-name="space" unicode=" " horiz-adv-x="197" 
 />
    <glyph glyph-name="exclam" unicode="!" horiz-adv-x="243" 
d="M66 200l96 514h95l-126 -514h-65zM58 -10q-21 0 -33 12t-12 34q0 32 17.5 56.5t51.5 24.5q19 0 30.5 -12.5t11.5 -34.5q0 -33 -17.5 -56.5t-48.5 -23.5z" />
    <glyph glyph-name="quotedbl" unicode="&#x22;" horiz-adv-x="354" 
d="M259 456l40 258h89l-71 -258h-58zM102 456l39 258h89l-70 -258h-58z" />
    <glyph glyph-name="numbersign" unicode="#" horiz-adv-x="490" 
d="M32 0l65 215h-88l9 64h98l52 168h-94l10 63h104l61 204h64l-62 -204h106l62 204h63l-62 -204h90l-11 -63h-99l-52 -168h96l-9 -64h-106l-65 -215h-65l68 215h-107l-65 -215h-63zM180 279h106l51 168h-105z" />
    <glyph glyph-name="dollar" unicode="$" horiz-adv-x="439" 
d="M142 49q-41 2 -75 11t-57 22l7 80q26 -17 63 -30t76 -14l47 223q-29 17 -53.5 38t-39.5 49t-15 68q0 57 23 95t64 59.5t92 25.5l18 83h48l-17 -83q38 -3 67 -12.5t54 -24.5l-35 -67q-21 14 -46 23.5t-55 11.5l-45 -212q33 -20 57.5 -42.5t39 -51t14.5 -67.5
q0 -56 -24 -95.5t-65.5 -62t-95.5 -27.5l-22 -107h-49zM204 121q31 4 52 17.5t32 35.5t11 50q0 19 -5.5 33.5t-17 28.5t-31.5 29zM260 606q-29 -3 -49.5 -16.5t-31.5 -35t-11 -50.5q0 -16 5.5 -30t17 -26.5t30.5 -26.5z" />
    <glyph glyph-name="percent" unicode="%" horiz-adv-x="665" 
d="M98 0l420 714h67l-418 -714h-69zM149 276q-44 0 -67.5 31.5t-23.5 92.5q0 31 6 73t18.5 86t33 81t49 60.5t66.5 23.5q44 0 68 -30.5t24 -90.5q0 -30 -5.5 -72t-18.5 -86.5t-33.5 -83t-49.5 -62t-67 -23.5zM156 337q21 0 37.5 21t28.5 54t20.5 69.5t12.5 69t4 50.5
q0 33 -9 48t-26 15q-20 0 -36.5 -20.5t-28.5 -52.5t-20.5 -68t-12.5 -69t-4 -54q0 -33 9 -48t25 -15zM454 -10q-44 0 -67.5 31.5t-23.5 92.5q0 34 6 76.5t19 86t34 80.5t49 59t66 22q44 0 68 -30.5t24 -90.5q0 -30 -6.5 -72t-19 -86t-33 -83t-49.5 -62.5t-67 -23.5zM461 51
q21 0 37 21t28.5 54t20.5 69.5t12.5 69t4.5 51.5q0 33 -9 47.5t-26 14.5q-21 0 -37.5 -21t-28.5 -53.5t-20 -69t-12 -68.5t-4 -52q0 -32 9 -47.5t25 -15.5z" />
    <glyph glyph-name="ampersand" unicode="&#x26;" horiz-adv-x="501" 
d="M146 -10q-64 0 -102.5 39t-38.5 109q0 55 19.5 100t56.5 83t88 71q-13 32 -22 66t-9 71q0 54 18.5 98t54 70.5t86.5 26.5q34 0 59.5 -13t40.5 -38.5t15 -62.5q0 -48 -19 -89t-52.5 -76.5t-76.5 -67.5l77 -176q20 28 36 63t27 74h80q-11 -37 -27.5 -73.5t-37 -70.5
t-43.5 -65l62 -129h-93l-31 70q-34 -33 -73 -56.5t-95 -23.5zM162 61q26 0 47 10.5t39.5 27t35.5 34.5l-89 203q-32 -24 -56.5 -52t-38 -61t-13.5 -74q0 -27 9 -47t25.5 -30.5t40.5 -10.5zM237 433q19 16 36.5 34.5t31.5 39t22 44.5t8 49q0 27 -12 43.5t-35 16.5
q-25 0 -41 -18t-24 -46t-8 -59q0 -28 5.5 -54t16.5 -50z" />
    <glyph glyph-name="quotesingle" unicode="'" horiz-adv-x="197" 
d="M105 456l39 258h89l-70 -258h-58z" />
    <glyph glyph-name="parenleft" unicode="(" horiz-adv-x="267" 
d="M83 -158q-19 35 -32 80t-19.5 94t-6.5 96q0 85 16 167t46.5 159.5t75 148t101.5 131.5h71q-53 -64 -96 -135.5t-73.5 -148.5t-47 -158t-16.5 -164q0 -49 5 -96.5t15.5 -91.5t25.5 -82h-65z" />
    <glyph glyph-name="parenright" unicode=")" horiz-adv-x="267" 
d="M-74 -158q53 64 95.5 135.5t73 148.5t46.5 157.5t16 164.5q0 47 -5 95.5t-15 93t-25 81.5h66q19 -38 31.5 -82.5t19 -92t6.5 -96.5q0 -86 -16 -168.5t-47 -159.5t-75 -147t-100 -130h-71z" />
    <glyph glyph-name="asterisk" unicode="*" horiz-adv-x="418" 
d="M312 391l-46 143l-91 -123l-56 53l111 106l-131 38l26 72l128 -64l9 148l80 -12l-38 -144l141 20l3 -76l-138 7l74 -136z" />
    <glyph glyph-name="plus" unicode="+" horiz-adv-x="473" 
d="M284 387h164v-69h-164v-201h-70v201h-165v69h165v203h70v-203z" />
    <glyph glyph-name="comma" unicode="," horiz-adv-x="218" 
d="M-44 -131q15 36 32.5 79t34 86.5t26.5 78.5h85l4 -10q-16 -39 -35.5 -79t-41 -79.5t-43.5 -75.5h-62z" />
    <glyph glyph-name="hyphen" unicode="-" horiz-adv-x="275" 
d="M18 231l16 77h217l-16 -77h-217z" />
    <glyph glyph-name="period" unicode="." horiz-adv-x="218" 
d="M59 -10q-21 0 -33 12t-12 34q0 32 17.5 56.5t50.5 24.5q20 0 31.5 -12.5t11.5 -34.5q0 -33 -18.5 -56.5t-47.5 -23.5z" />
    <glyph glyph-name="slash" unicode="/" horiz-adv-x="341" 
d="M-48 -2l388 718h79l-389 -718h-78z" />
    <glyph glyph-name="zero" unicode="0" horiz-adv-x="439" 
d="M167 -10q-67 0 -101 47.5t-34 144.5q0 43 7 99t20.5 117t34.5 119t50.5 105t68.5 74.5t86 27.5q34 0 59 -11.5t42 -34.5t25 -58t8 -82q0 -46 -6.5 -104.5t-20 -120.5t-35 -119.5t-51 -103.5t-68 -73t-85.5 -27zM175 64q28 0 52 24.5t44 66t35 93t25.5 105t16 102.5
t5.5 86q0 55 -14.5 82.5t-45.5 27.5q-27 0 -51.5 -25t-44.5 -66t-35.5 -92t-26.5 -104t-17 -101t-6 -83q0 -59 15 -87.5t48 -28.5z" />
    <glyph glyph-name="one" unicode="1" horiz-adv-x="439" 
d="M250 483q5 24 9 42.5t9 38.5t13 47q-10 -10 -20 -19.5t-23 -19.5l-84 -66l-38 55l191 153h74l-152 -714h-82z" />
    <glyph glyph-name="two" unicode="2" horiz-adv-x="439" 
d="M-22 0l12 64l189 207q37 40 67.5 76t53.5 71t35.5 71t12.5 75q0 41 -20.5 64.5t-59.5 23.5q-22 0 -42.5 -7.5t-39 -20.5t-38.5 -28l-33 59q34 31 75 50t93 19q47 0 80 -18t51.5 -51t18.5 -78q0 -57 -23 -111t-65 -108.5t-101 -116.5l-152 -164v-3h252l-15 -74h-351z" />
    <glyph glyph-name="three" unicode="3" horiz-adv-x="439" 
d="M137 -10q-45 0 -78.5 8t-63.5 23v82q28 -19 65.5 -30.5t74.5 -11.5t65 12t47 33t29 49.5t10 62.5q0 39 -13.5 64.5t-39 38t-63.5 12.5h-42l15 71h42q36 0 66.5 12t52.5 34t34 52t12 64q0 41 -21 64t-60 23q-34 0 -64.5 -13.5t-61.5 -35.5l-29 61q35 27 75.5 43t91.5 16
q49 0 83 -17.5t52 -49t18 -76.5q0 -50 -19.5 -93.5t-56 -73.5t-87.5 -42v-4q44 -12 72 -48t28 -96q0 -45 -14.5 -87.5t-44 -75.5t-73 -52t-102.5 -19z" />
    <glyph glyph-name="four" unicode="4" horiz-adv-x="439" 
d="M203 0l35 158h-249l14 68l343 492h90l-103 -489h80l-16 -71h-80l-34 -158h-80zM79 229h174l56 260q5 21 11 44.5t12 45.5t10 39h-4q-10 -20 -20.5 -37t-19.5 -31.5t-17 -26.5z" />
    <glyph glyph-name="five" unicode="5" horiz-adv-x="439" 
d="M133 -10q-27 0 -51 4t-44 10.5t-35 14.5v84q26 -19 59 -30.5t71 -11.5q43 0 74 15t51.5 41t31 59.5t10.5 69.5q0 59 -27.5 91t-78.5 32q-23 0 -43.5 -4t-44.5 -12l-29 30l91 331h273l-16 -75h-200l-60 -209q16 4 32 6t34 2q48 0 82.5 -21t53 -60.5t18.5 -96.5
q0 -50 -14.5 -98.5t-44.5 -87t-78 -61.5t-115 -23z" />
    <glyph glyph-name="six" unicode="6" horiz-adv-x="439" 
d="M184 -10q-49 0 -82 23t-49.5 66t-16.5 103q0 54 8.5 112.5t24.5 115.5t40 107.5t55 90.5q24 31 54 57t68.5 42.5t84.5 16.5q26 0 46.5 -2.5t37.5 -7.5l-18 -73q-14 5 -31.5 8.5t-37.5 3.5q-52 0 -95.5 -31t-77 -92.5t-56.5 -156.5h3q16 24 37 41.5t46 26.5t53 9
q60 0 91.5 -43.5t31.5 -114.5q0 -49 -13 -101.5t-39 -98t-67 -74t-98 -28.5zM190 62q33 0 57.5 22t40 56.5t23 73t7.5 70.5q0 46 -18 71t-52 25q-27 0 -49.5 -12.5t-38.5 -32.5t-25 -43q-6 -14 -10.5 -32.5t-6.5 -39.5t-2 -43q0 -26 5 -47.5t14 -36t23 -23t32 -8.5z" />
    <glyph glyph-name="seven" unicode="7" horiz-adv-x="439" 
d="M46 0l328 640h-276l15 74h359l-11 -62l-329 -652h-86z" />
    <glyph glyph-name="eight" unicode="8" horiz-adv-x="439" 
d="M179 -10q-55 0 -93.5 20.5t-57.5 56.5t-19 84q0 54 20 95.5t58 74t91 58.5q-22 23 -38 47t-24 51t-8 59q0 55 23.5 97.5t66 66.5t99.5 24q48 0 81 -18t50 -50.5t17 -73.5q0 -48 -19.5 -87t-53.5 -69t-79 -53q30 -26 50 -53.5t30 -58.5t10 -68q0 -53 -23.5 -99.5t-69 -75
t-111.5 -28.5zM183 59q41 0 67 18t39 48t13 65q0 29 -8.5 54.5t-26 48t-41.5 42.5q-39 -18 -69.5 -42t-48.5 -57t-18 -80q0 -42 25.5 -69.5t67.5 -27.5zM246 414q39 19 65 43t39.5 52.5t13.5 61.5q0 40 -20.5 62t-55.5 22q-30 0 -53 -14t-35 -40.5t-12 -62.5
q0 -40 15.5 -69.5t42.5 -54.5z" />
    <glyph glyph-name="nine" unicode="9" horiz-adv-x="439" 
d="M108 -10q-28 0 -51.5 4t-43.5 9v74q19 -6 42.5 -10.5t50.5 -4.5q40 0 73.5 17t60.5 52t48.5 87t37.5 121h-4q-15 -22 -36 -39t-45 -26.5t-51 -9.5q-42 0 -69.5 20.5t-41.5 57t-14 84.5q0 50 13 102t40 96.5t68.5 72t96.5 27.5q47 0 79 -21.5t48.5 -63.5t16.5 -104
q0 -49 -6.5 -103t-19 -107t-31 -101t-43.5 -86q-18 -33 -41.5 -60t-50.5 -46.5t-59 -30.5t-68 -11zM217 335q21 0 39 7.5t32.5 22t24.5 33.5q18 24 26 60.5t8 81.5q0 36 -8 60.5t-23.5 38t-39.5 13.5q-31 0 -55.5 -20t-41 -53t-25 -71t-8.5 -73q0 -48 18.5 -74t52.5 -26z
" />
    <glyph glyph-name="colon" unicode=":" horiz-adv-x="220" 
d="M140 416q-21 0 -33 12t-12 34q0 21 7.5 40t23.5 30t37 11t32 -12.5t11 -34.5q0 -33 -18 -56.5t-48 -23.5zM52 -10q-20 0 -32.5 12t-12.5 34q0 32 17.5 56.5t51.5 24.5q20 0 31.5 -12.5t11.5 -34.5q0 -33 -18.5 -56.5t-48.5 -23.5z" />
    <glyph glyph-name="semicolon" unicode=";" horiz-adv-x="220" 
d="M-50 -131q19 41 36 83t32 83t26 78h85l4 -10q-15 -38 -35 -78t-41.5 -79.5t-44.5 -76.5h-62zM143 416q-21 0 -33 12t-12 34q0 21 8 40t23 30t38 11q20 0 31.5 -12.5t11.5 -34.5q0 -33 -18 -56.5t-49 -23.5z" />
    <glyph glyph-name="less" unicode="&#x3c;" horiz-adv-x="473" 
d="M449 127l-401 202v49l401 209v-78l-308 -155l308 -149v-78z" />
    <glyph glyph-name="equal" unicode="=" horiz-adv-x="473" 
d="M51 422v69h395v-69h-395zM51 213v69h395v-69h-395z" />
    <glyph glyph-name="greater" unicode="&#x3e;" horiz-adv-x="473" 
d="M49 205l308 149l-308 155v78l401 -209v-49l-401 -202v78z" />
    <glyph glyph-name="question" unicode="?" horiz-adv-x="331" 
d="M81 200q9 47 21 80.5t30.5 61t47.5 57.5q30 32 54 58.5t38 55t14 67.5q0 35 -18 53.5t-50 18.5q-31 0 -57.5 -11.5t-51.5 -26.5l-22 63q34 23 71 35t74 12q64 0 100 -33.5t36 -96.5q0 -44 -15.5 -81t-42 -70t-62.5 -68q-32 -32 -51.5 -56.5t-30.5 -51.5t-19 -67h-66z
M79 -10q-21 0 -33.5 12t-12.5 34q0 32 17.5 56.5t51.5 24.5q19 0 30.5 -12.5t11.5 -34.5q0 -33 -18 -56.5t-47 -23.5z" />
    <glyph glyph-name="at" unicode="@" horiz-adv-x="665" 
d="M269 -86q-57 0 -100.5 18.5t-74 53.5t-46 83.5t-15.5 108.5q0 79 17.5 157t51.5 147t82.5 122t110.5 83.5t136 30.5q72 0 120.5 -32.5t73 -88.5t24.5 -129q0 -47 -8.5 -97t-25.5 -96t-39.5 -82.5t-51.5 -58.5t-63 -22q-42 0 -58.5 23t-19.5 59h-2q-18 -37 -44.5 -60
t-59.5 -23q-42 0 -65 28.5t-23 84.5q0 37 9.5 78.5t27 80.5t43 70.5t57.5 50.5t71 19q33 0 58.5 -6t46.5 -16l-55 -218q-6 -24 -9.5 -41t-3.5 -29q0 -24 9 -34.5t24 -10.5q21 0 39.5 20.5t33 53.5t25 72t16.5 78t6 70q0 62 -18 106.5t-53.5 68t-92.5 23.5q-61 0 -112 -27
t-91 -74.5t-67.5 -108.5t-42 -129t-14.5 -138q0 -63 19 -110.5t58.5 -74.5t100.5 -27q40 0 80 9.5t73 25.5v-57q-37 -16 -77.5 -25.5t-80.5 -9.5zM293 168q30 0 53 39.5t44 114.5l35 139q-7 3 -16.5 4.5t-21.5 1.5q-30 0 -54 -23.5t-42 -60t-27 -77.5t-9 -75q0 -33 10 -48
t28 -15z" />
    <glyph glyph-name="A" unicode="A" horiz-adv-x="451" 
d="M-63 0l326 716h100l28 -716h-84l-8 226h-171l-100 -226h-91zM159 301h140l-2 220q-2 29 -2 57.5t1 51.5h-3q-8 -23 -18.5 -50.5t-24.5 -59.5z" />
    <glyph glyph-name="B" unicode="B" horiz-adv-x="481" 
d="M12 0l151 714h148q51 0 89.5 -16t60.5 -48t22 -82q0 -46 -16 -86t-48 -68t-79 -40v-3q41 -12 65 -48.5t24 -87.5q0 -68 -28.5 -121t-81.5 -83.5t-128 -30.5h-179zM191 72q52 0 85 22t50 59t17 84t-25.5 74t-75.5 27h-75l-57 -266h81zM256 408q42 0 73.5 19t48.5 53t17 76
q0 43 -23.5 64.5t-74.5 21.5h-66l-50 -234h75z" />
    <glyph glyph-name="C" unicode="C" horiz-adv-x="446" 
d="M235 -10q-61 0 -103 28t-63.5 82t-21.5 133q0 61 13 129t39 132t66 116t93 83.5t120 31.5q40 0 73 -9t61 -28l-41 -68q-19 14 -42.5 22t-51.5 8q-50 0 -89 -28t-68.5 -73.5t-48.5 -100.5t-28.5 -110t-9.5 -100q0 -87 30 -130.5t89 -43.5q29 0 57 7.5t57 18.5v-75
q-31 -13 -63 -19t-68 -6z" />
    <glyph glyph-name="D" unicode="D" horiz-adv-x="526" 
d="M12 0l151 714h133q101 0 155.5 -58.5t54.5 -174.5q0 -68 -13.5 -136.5t-41 -130.5t-70 -110t-100.5 -76t-133 -28h-136zM158 74q53 0 95 24t73 65t51.5 93t30.5 109t10 113q0 84 -34.5 123t-97.5 39h-55l-121 -566h48z" />
    <glyph glyph-name="E" unicode="E" horiz-adv-x="410" 
d="M12 0l151 714h290l-15 -74h-208l-48 -230h193l-15 -74h-194l-56 -262h208l-16 -74h-290z" />
    <glyph glyph-name="F" unicode="F" horiz-adv-x="385" 
d="M12 0l151 714h291l-16 -74h-208l-54 -260h194l-16 -74h-194l-65 -306h-83z" />
    <glyph glyph-name="G" unicode="G" horiz-adv-x="548" 
d="M262 -10q-106 0 -160.5 61.5t-54.5 178.5q0 82 16 156.5t47 136.5t73.5 107t95 70t113.5 25q50 0 92 -12t75 -32l-38 -72q-32 20 -64.5 30.5t-69.5 10.5q-57 0 -103.5 -35.5t-80.5 -95t-52 -133.5t-18 -152q0 -55 15 -93t45.5 -57.5t75.5 -19.5q26 0 49.5 4t43.5 10
l48 226h-104l16 73h186l-76 -354q-41 -16 -83.5 -24.5t-86.5 -8.5z" />
    <glyph glyph-name="H" unicode="H" horiz-adv-x="542" 
d="M13 0l151 714h82l-64 -303h230l64 303h83l-152 -714h-82l70 336h-229l-71 -336h-82z" />
    <glyph glyph-name="I" unicode="I" horiz-adv-x="279" 
d="M-42 0l10 46l81 17l124 588l-73 17l9 46h237l-10 -46l-80 -17l-125 -588l73 -17l-9 -46h-237z" />
    <glyph glyph-name="J" unicode="J" horiz-adv-x="223" 
d="M-80 -191q-23 0 -40 3t-30 9l14 73q12 -5 26 -8t28 -3q26 0 44 13.5t30.5 40.5t21.5 66l150 711h83l-153 -724q-13 -64 -37 -104t-58 -58.5t-79 -18.5z" />
    <glyph glyph-name="K" unicode="K" horiz-adv-x="452" 
d="M12 0l151 714h83l-75 -353l57 80l214 273h93l-250 -323l108 -391h-90l-87 332l-63 -58l-58 -274h-83z" />
    <glyph glyph-name="L" unicode="L" horiz-adv-x="379" 
d="M12 0l151 714h83l-136 -640h205l-15 -74h-288z" />
    <glyph glyph-name="M" unicode="M" horiz-adv-x="705" 
d="M12 0l151 714h116l36 -584h2l279 584h125l-150 -714h-83l99 466q6 24 11 45.5t10 42t9 37.5h-2l-286 -591h-78l-38 590h-2q-4 -20 -7.5 -43t-7.5 -46.5t-9 -45.5l-97 -455h-78z" />
    <glyph glyph-name="N" unicode="N" horiz-adv-x="571" 
d="M12 0l151 714h95l131 -575h3q5 32 11 66.5t12.5 66t11.5 55.5l82 387h80l-152 -714h-93l-133 582h-3q-3 -24 -8 -53t-10.5 -58t-11 -55t-8.5 -43l-79 -373h-79z" />
    <glyph glyph-name="O" unicode="O" horiz-adv-x="563" 
d="M235 -10q-62 0 -104.5 26t-63.5 77.5t-21 126.5q0 56 9 115t26.5 115.5t44 106t61.5 87t78 59t94 21.5q91 0 138 -57.5t47 -167.5q0 -52 -8 -109t-24.5 -114t-41.5 -108.5t-59.5 -91.5t-78 -63t-97.5 -23zM240 65q36 0 65.5 20t54 54.5t43 78.5t30.5 93t18.5 97.5
t6.5 91.5q0 75 -27.5 112.5t-78.5 37.5q-38 0 -68.5 -21t-55 -56.5t-42.5 -80.5t-30 -93.5t-17.5 -94.5t-5.5 -84q0 -53 12.5 -87t36 -51t58.5 -17z" />
    <glyph glyph-name="P" unicode="P" horiz-adv-x="453" 
d="M12 0l151 714h124q61 0 100.5 -20.5t58.5 -57.5t19 -87q0 -60 -17 -109.5t-50.5 -85.5t-81.5 -55.5t-111 -19.5h-51l-59 -279h-83zM208 352q55 0 93.5 23t58.5 65.5t20 100.5q0 51 -26.5 75.5t-79.5 24.5h-43l-62 -289h39z" />
    <glyph glyph-name="Q" unicode="Q" horiz-adv-x="563" 
d="M240 -8q-4 -1 -8 -1h-8q-59 2 -98.5 28.5t-59.5 77t-20 123.5q0 56 9 115t26.5 115.5t44 106t61.5 87t78 59t94 21.5q91 0 138 -57.5t47 -167.5q0 -53 -8.5 -112t-25.5 -117.5t-43.5 -111t-62.5 -91.5t-82 -59l81 -178h-99zM240 65q36 0 66 20t54 54.5t42.5 78.5t31 93
t18.5 97.5t6 91.5q0 75 -27.5 112.5t-78.5 37.5q-38 0 -68.5 -21t-55 -56.5t-42.5 -80.5t-30 -93.5t-17.5 -94.5t-5.5 -84q0 -53 12.5 -87t36 -51t58.5 -17z" />
    <glyph glyph-name="R" unicode="R" horiz-adv-x="464" 
d="M12 0l151 714h123q89 0 135 -42t46 -121q0 -56 -18 -105t-53 -83t-86 -48l81 -315h-91l-68 298h-74l-63 -298h-83zM227 368q40 0 69 14.5t48 38.5t27.5 55.5t8.5 65.5q0 52 -26.5 75.5t-78.5 23.5h-44l-58 -273h54z" />
    <glyph glyph-name="S" unicode="S" horiz-adv-x="415" 
d="M135 -10q-45 0 -82 8.5t-63 24.5l7 85q27 -18 63 -29.5t77 -11.5q29 0 53.5 8.5t43 25t28.5 41t10 56.5q0 27 -8 47.5t-27 43t-53 51.5q-30 25 -52.5 50.5t-34.5 56.5t-12 72q0 48 15.5 85.5t44 64.5t67.5 41t86 14q41 0 80 -10.5t66 -27.5l-37 -74q-24 15 -53.5 25.5
t-59.5 10.5q-26 0 -48 -8t-39 -23.5t-26 -38t-9 -51.5t10 -50.5t30 -42.5t50 -47q31 -26 52.5 -52t33 -57t11.5 -73q0 -49 -15 -88.5t-44 -68t-70.5 -43.5t-94.5 -15z" />
    <glyph glyph-name="T" unicode="T" horiz-adv-x="391" 
d="M92 0l135 639h-145l17 75h372l-16 -75h-145l-135 -639h-83z" />
    <glyph glyph-name="U" unicode="U" horiz-adv-x="533" 
d="M213 -10q-54 0 -91 19t-56 56t-19 89q0 18 2.5 41t7.5 47l101 472h82l-101 -477q-4 -20 -6.5 -40t-2.5 -35q0 -48 23.5 -72.5t68.5 -24.5q41 0 69.5 18.5t47 56.5t31.5 97l102 477h83l-104 -485q-16 -73 -44.5 -127t-75 -83t-118.5 -29z" />
    <glyph glyph-name="V" unicode="V" horiz-adv-x="448" 
d="M114 0l-26 714h84l10 -450q1 -24 1.5 -49t-0.5 -52t-3 -57h2q10 30 24 66t33 78l204 464h90l-326 -714h-93z" />
    <glyph glyph-name="W" unicode="W" horiz-adv-x="714" 
d="M90 0l3 714h81l-5 -444q0 -43 -2.5 -81t-4.5 -68h3q12 36 27.5 76t30.5 77l182 440h78l-4 -429q0 -32 -1 -60.5t-2 -54.5t-2 -49h2q10 28 19 54t19 51t19 50l176 438h86l-295 -714h-94l5 455q1 17 1.5 36.5l1 39t1.5 38.5h-2q-9 -26 -18.5 -53t-23.5 -58l-188 -458h-93z
" />
    <glyph glyph-name="X" unicode="X" horiz-adv-x="418" 
d="M-57 0l238 377l-73 337h86l50 -266l159 266h89l-217 -346l75 -368h-88l-50 294l-180 -294h-89z" />
    <glyph glyph-name="Y" unicode="Y" horiz-adv-x="402" 
d="M96 0l58 273l-67 441h85l43 -339l185 339h90l-253 -441l-58 -273h-83z" />
    <glyph glyph-name="Z" unicode="Z" horiz-adv-x="394" 
d="M-32 0l14 64l357 576h-229l16 74h324l-13 -65l-359 -575h244l-15 -74h-339z" />
    <glyph glyph-name="bracketleft" unicode="[" horiz-adv-x="284" 
d="M-22 -160l188 878h190l-15 -66h-115l-158 -746h115l-14 -66h-191z" />
    <glyph glyph-name="backslash" unicode="\" horiz-adv-x="345" 
d="M197 -2l-94 718h74l95 -718h-75z" />
    <glyph glyph-name="bracketright" unicode="]" horiz-adv-x="284" 
d="M-68 -160l14 66h115l158 746h-115l15 66h190l-188 -878h-189z" />
    <glyph glyph-name="asciicircum" unicode="^" horiz-adv-x="450" 
d="M19 312l225 403h52l141 -403h-73l-106 301l-162 -301h-77z" />
    <glyph glyph-name="underscore" unicode="_" horiz-adv-x="331" 
d="M-88 -148l12 63h332l-12 -63h-332z" />
    <glyph glyph-name="grave" unicode="`" horiz-adv-x="258" 
d="M239 606q-15 18 -33.5 45.5t-35 56t-24.5 49.5v8h91q7 -23 14.5 -48t17.5 -50t21 -50v-11h-51z" />
    <glyph glyph-name="a" unicode="a" horiz-adv-x="466" 
d="M149 -10q-37 0 -63 18.5t-40 54t-14 86.5q0 50 9.5 104.5t28 106.5t46 94t64.5 67t82 25q27 0 47 -10t34 -28.5t22 -43.5h3l25 72h67l-114 -536h-65l8 83h-2q-19 -28 -40.5 -48.5t-45.5 -32.5t-52 -12zM175 59q35 0 62.5 27t48 70.5t32.5 91.5q11 42 16 76t5 64
q0 41 -18.5 64.5t-49.5 23.5q-28 0 -52.5 -21t-43.5 -55t-32.5 -76.5t-20.5 -86.5t-7 -84q0 -47 15.5 -70.5t44.5 -23.5z" />
    <glyph glyph-name="b" unicode="b" horiz-adv-x="466" 
d="M206 -10q-28 0 -49 10.5t-34.5 28.5t-21.5 42h-3l-27 -71h-63l161 760h80l-47 -221q-4 -16 -8 -32.5t-7.5 -30t-6.5 -20.5h3q18 28 39.5 47.5t46 31t51.5 11.5q36 0 62 -18t40 -53t14 -87q0 -49 -9.5 -103.5t-27.5 -107t-46 -94.5t-64.5 -67.5t-82.5 -25.5zM199 59
q28 0 52 21t43 56t32 78t20 87t7 83q0 47 -15 69.5t-46 22.5q-23 0 -45 -15t-40 -41t-32.5 -59.5t-24.5 -70t-16 -72.5t-6 -68q0 -44 18 -67.5t53 -23.5z" />
    <glyph glyph-name="c" unicode="c" horiz-adv-x="358" 
d="M181 -10q-46 0 -80 19.5t-51.5 58t-17.5 95.5q0 51 9.5 104.5t29 103.5t49 89t69.5 62.5t90 23.5q29 0 54.5 -6t47.5 -18l-29 -67q-15 9 -34 15t-39 6q-41 0 -71.5 -28.5t-51 -74.5t-31.5 -100t-11 -104q0 -36 9.5 -60.5t28 -37t44.5 -12.5q24 0 47.5 8.5t48.5 21.5v-70
q-22 -12 -50.5 -20.5t-60.5 -8.5z" />
    <glyph glyph-name="d" unicode="d" horiz-adv-x="469" 
d="M147 -10q-36 0 -62 18.5t-40 53.5t-14 87q0 49 9 103t28 106t46.5 94.5t63.5 68t81 25.5q27 0 48 -10t35.5 -27.5t21.5 -41.5h4q3 19 6 37t6 35.5t7 34.5l39 186h80l-161 -760h-65l7 81h-2q-20 -27 -41 -47.5t-44.5 -32t-52.5 -11.5zM175 59q25 0 47 16t40 44t32.5 62.5
t24 72t15 72.5t5.5 63q0 41 -16.5 64t-53.5 23q-29 0 -53.5 -21.5t-43 -57t-31.5 -78.5t-20 -86.5t-7 -81.5q0 -46 15.5 -69t45.5 -23z" />
    <glyph glyph-name="e" unicode="e" horiz-adv-x="417" 
d="M187 -10q-49 0 -84 20.5t-53.5 60t-18.5 94.5q0 76 18 144.5t50.5 122t77 84t98.5 30.5q57 0 89 -29.5t32 -85.5q0 -43 -17 -78.5t-51 -61t-84 -39.5t-116 -14h-10q-3 -16 -4.5 -32.5t-1.5 -32.5q0 -58 23 -87t70 -29q31 0 57 8.5t59 25.5v-68q-30 -16 -62 -24.5
t-72 -8.5zM134 302q60 0 101 14.5t62.5 42t21.5 67.5q0 24 -13 38.5t-41 14.5q-27 0 -53.5 -22.5t-47.5 -62t-34 -92.5h4z" />
    <glyph glyph-name="f" unicode="f" horiz-adv-x="256" 
d="M-65 -240q-15 0 -28.5 2t-26.5 6v70q11 -3 23 -5.5t24 -2.5q36 0 51 30.5t27 85.5l112 524h-68l8 41l74 27l12 53q10 44 22 77t29.5 54.5t42.5 32t59 10.5q21 0 42 -4.5t37 -12.5l-27 -63q-11 5 -23 8t-25 3q-32 0 -48.5 -25.5t-28.5 -80.5l-12 -54h86l-14 -66h-85
l-114 -532q-11 -50 -27.5 -91t-45.5 -64t-76 -23z" />
    <glyph glyph-name="g" unicode="g" horiz-adv-x="470" 
d="M119 -240q-37 0 -70.5 9.5t-56.5 22.5v77q15 -10 35.5 -19t45 -15t47.5 -6q55 0 88.5 33t49.5 101l8 37q3 14 8.5 36t11.5 43h-3q-18 -28 -39.5 -48t-45 -30.5t-52.5 -10.5q-35 0 -61 17.5t-40 53t-14 86.5q0 49 9.5 103.5t28 107t46.5 95t64.5 68t83.5 25.5q28 0 48 -10
t33.5 -28.5t21.5 -43.5h3l24 72h66l-120 -569q-16 -73 -45 -118.5t-72 -67t-103 -21.5zM175 59q24 0 45 16.5t39.5 43.5t33 61.5t24.5 71.5t15.5 73.5t5.5 66.5q0 39 -17 61.5t-51 22.5q-30 0 -54 -21.5t-43 -57t-32 -78.5t-20 -86.5t-7 -80.5q0 -46 15 -69.5t46 -23.5z" />
    <glyph glyph-name="h" unicode="h" horiz-adv-x="461" 
d="M8 0l161 760h81l-43 -199q-4 -17 -8.5 -34t-8.5 -34.5t-10 -34.5h3q16 26 36 45.5t45 31t55 11.5q33 0 56.5 -13t36.5 -37.5t13 -62.5q0 -20 -4.5 -46.5t-9.5 -52.5l-71 -334h-81l70 330q6 25 9.5 48t3.5 42q0 26 -12.5 40t-39.5 14q-29 0 -56.5 -20t-49.5 -63.5
t-37 -113.5l-58 -277h-81z" />
    <glyph glyph-name="i" unicode="i" horiz-adv-x="212" 
d="M8 0l114 536h80l-114 -536h-80zM186 626q-20 0 -30.5 10.5t-10.5 30.5q0 18 6.5 34t19 26t31.5 10q20 0 30 -10t10 -30q0 -31 -16 -51t-40 -20z" />
    <glyph glyph-name="j" unicode="j" horiz-adv-x="212" 
d="M-74 -240q-15 0 -29 2t-25 6v71q9 -4 22 -6t25 -2q22 0 36 11.5t24 37t19 69.5l124 587h80l-126 -594q-11 -54 -27.5 -95t-45.5 -64t-77 -23zM186 626q-19 0 -30 10.5t-11 30.5q0 18 7 34t19.5 26t31.5 10t29 -10t10 -30q0 -31 -15.5 -51t-40.5 -20z" />
    <glyph glyph-name="k" unicode="k" horiz-adv-x="401" 
d="M8 0l162 760h80l-74 -348q-8 -38 -16.5 -69.5t-16.5 -59.5h2l206 253h90l-182 -221l83 -315h-86l-64 254l-64 -64l-39 -190h-81z" />
    <glyph glyph-name="l" unicode="l" horiz-adv-x="210" 
d="M8 0l162 760h80l-162 -760h-80z" />
    <glyph glyph-name="m" unicode="m" horiz-adv-x="692" 
d="M8 0l114 536h65l-10 -79h4q16 26 35.5 46t44 31.5t53.5 11.5q44 0 68.5 -21.5t30.5 -62.5h3q17 24 37.5 43t45.5 30t54 11q49 0 76 -28.5t27 -82.5q0 -18 -2.5 -36.5t-7.5 -38.5l-76 -360h-80l74 353q5 19 7 36t2 29q0 27 -12.5 42t-37.5 15q-22 0 -41.5 -12t-35.5 -33.5
t-28 -50.5t-20 -63l-67 -316h-80l76 358q4 19 5.5 34t1.5 25q0 29 -11.5 43.5t-37.5 14.5q-24 0 -45.5 -14.5t-39.5 -41t-31 -63.5t-22 -82l-58 -274h-81z" />
    <glyph glyph-name="n" unicode="n" horiz-adv-x="461" 
d="M6 0l115 537h67l-10 -80h2q17 26 37 46t45.5 32t54.5 12q33 0 57 -12t38 -37t14 -62q0 -22 -4.5 -48t-8.5 -50l-73 -338h-82l71 334q5 24 9 47t4 40q0 26 -12.5 39t-38.5 13q-31 0 -58 -22t-49 -66.5t-37 -113.5l-58 -271h-83z" />
    <glyph glyph-name="o" unicode="o" horiz-adv-x="454" 
d="M181 -9q-46 0 -80 20t-51.5 59.5t-17.5 95.5q0 43 8.5 94t27 101.5t46.5 92t68 66.5t91 25q47 0 80.5 -20.5t51 -60t17.5 -96.5q0 -49 -9.5 -101.5t-28 -102t-47.5 -88.5t-68 -62t-88 -23zM189 60q27 0 50.5 18.5t42 51t31.5 73t20 84.5t7 86q0 30 -8 53.5t-23.5 36.5
t-41.5 13q-31 0 -55.5 -20.5t-43 -55t-30.5 -75.5t-18.5 -83t-6.5 -78q0 -50 19.5 -77t56.5 -27z" />
    <glyph glyph-name="p" unicode="p" horiz-adv-x="466" 
d="M-40 -235l162 771h67l-11 -84h3q20 29 41.5 50t46 32.5t52.5 11.5q36 0 61.5 -18t39.5 -53t14 -88q0 -50 -9.5 -105t-28 -106.5t-46 -93.5t-64 -67t-81.5 -25q-27 0 -47.5 10.5t-34.5 28.5t-22 41h-3q-3 -22 -7 -48.5t-9 -46.5l-45 -210h-79zM199 59q28 0 52 21
t43.5 55.5t32.5 77.5t20 87.5t7 83.5q0 47 -15.5 70.5t-45.5 23.5q-24 0 -45 -16t-39.5 -42t-33 -60t-25 -71t-16 -73t-5.5 -67q0 -43 17.5 -66.5t52.5 -23.5z" />
    <glyph glyph-name="q" unicode="q" horiz-adv-x="469" 
d="M263 -8q3 10 6.5 24.5t8 31t8.5 31.5h-3q-18 -27 -39.5 -47t-45 -31t-52.5 -11q-35 0 -61 17.5t-40 52.5t-14 87q0 48 9 102.5t28 107t46.5 95.5t64.5 68.5t83 25.5q29 0 49 -10t33.5 -28.5t20.5 -43.5h3l25 72h66l-164 -775h-80zM175 59q24 0 45 15.5t39 42.5t33 60.5
t25 70.5t15.5 74t5.5 68q0 39 -17.5 62.5t-51.5 23.5q-29 0 -53 -21t-43 -56t-32 -78t-20 -86.5t-7 -82.5q0 -47 15.5 -70t45.5 -23z" />
    <glyph glyph-name="r" unicode="r" horiz-adv-x="313" 
d="M8 0l114 536h63l-11 -91h4q17 31 36 54t42.5 35t53.5 12q11 0 22 -1.5t22 -4.5l-22 -81q-9 3 -19 4.5t-21 1.5q-30 0 -53.5 -17t-42 -45.5t-31 -63.5t-19.5 -69l-57 -270h-81z" />
    <glyph glyph-name="s" unicode="s" horiz-adv-x="351" 
d="M116 -10q-39 0 -70.5 8t-51.5 20v79q20 -14 52 -25.5t64 -11.5q31 0 52.5 10t32.5 30t11 47q0 19 -5.5 34t-19.5 32t-41 38q-27 22 -45 43.5t-27 45.5t-9 54q0 44 19.5 78t55.5 54t86 20q41 0 75 -10t59 -26l-32 -64q-21 14 -46 23t-55 9q-36 0 -58 -20.5t-22 -54.5
q0 -17 4.5 -32t18 -30t38.5 -35q29 -25 48.5 -46t29.5 -45.5t10 -59.5q0 -51 -20.5 -88t-59.5 -57t-94 -20z" />
    <glyph glyph-name="t" unicode="t" horiz-adv-x="266" 
d="M127 -10q-45 0 -69 24.5t-24 73.5q0 14 2.5 32.5t6.5 38.5l66 311h-59l9 43l67 26l49 119h54l-26 -122h94l-14 -66h-94l-67 -315q-3 -14 -5.5 -29t-2.5 -26q0 -19 8.5 -29.5t28.5 -10.5q12 0 25.5 2.5t26.5 7.5v-64q-15 -7 -36.5 -11.5t-39.5 -4.5z" />
    <glyph glyph-name="u" unicode="u" horiz-adv-x="463" 
d="M141 -10q-33 0 -57.5 13t-37 38.5t-12.5 61.5q0 19 3.5 42t7.5 44l74 347h81l-73 -342q-5 -22 -7.5 -41t-2.5 -36q0 -26 12 -41t38 -15q31 0 59 22.5t50.5 68t36.5 113.5l58 271h80l-114 -536h-65l8 77h-4q-16 -24 -36.5 -44t-45 -31.5t-53.5 -11.5z" />
    <glyph glyph-name="v" unicode="v" horiz-adv-x="375" 
d="M80 0l-24 536h80l8 -297q0 -19 0.5 -47t0.5 -53.5t-2 -39.5h4q8 20 16 40.5t17.5 41t16.5 37.5l144 318h84l-251 -536h-94z" />
    <glyph glyph-name="w" unicode="w" horiz-adv-x="597" 
d="M61 0v536h78l-3 -300q-1 -37 -3 -70t-4 -60h3q6 19 13.5 39.5t16 41t14.5 36.5l129 313h90l-2 -298q-1 -30 -2 -66t-3 -68h3q8 23 16.5 47.5t18.5 49.5t20 52l113 283h83l-225 -536h-95l5 319q0 20 0.5 39t1.5 38.5t2 39.5h-3q-5 -16 -11 -31.5t-12.5 -32t-14.5 -36.5
l-136 -336h-93z" />
    <glyph glyph-name="x" unicode="x" horiz-adv-x="386" 
d="M-43 0l190 278l-71 258h84l46 -193l124 193h90l-182 -264l77 -272h-84l-52 206l-133 -206h-89z" />
    <glyph glyph-name="y" unicode="y" horiz-adv-x="378" 
d="M-36 -241q-19 0 -32.5 3t-25.5 7l7 70q11 -4 23 -6t25 -2q32 0 53.5 23t40.5 65l38 80l-34 537h81l11 -287q1 -24 1.5 -50t0.5 -50.5t-1 -45.5h3q7 19 16 42.5t18.5 46t16.5 39.5l139 305h84l-299 -635q-21 -45 -44 -76.5t-52 -48.5t-70 -17z" />
    <glyph glyph-name="z" unicode="z" horiz-adv-x="332" 
d="M-30 0l12 54l266 416h-167l14 66h256l-13 -60l-262 -409h184l-15 -67h-275z" />
    <glyph glyph-name="braceleft" unicode="{" horiz-adv-x="335" 
d="M211 -158q-73 1 -108 29.5t-35 84.5q0 14 2.5 28t5.5 30l26 125q3 11 4.5 21.5t1.5 21.5q0 33 -20.5 49.5t-68.5 16.5l15 66q55 0 85.5 23t40.5 74l35 163q11 55 34.5 85t62 42.5t94.5 12.5h7l-15 -67q-49 -1 -73 -19t-35 -68l-34 -159q-10 -50 -39 -81.5t-85 -39.5v-3
q39 -9 56.5 -32.5t17.5 -58.5q0 -11 -2 -24.5t-5 -28.5l-26 -123q-2 -12 -3.5 -22t-1.5 -19q0 -32 17.5 -45.5t53.5 -14.5l-1 -67h-7z" />
    <glyph glyph-name="bar" unicode="|" horiz-adv-x="421" 
d="M180 -238v1001h71v-1001h-71z" />
    <glyph glyph-name="braceright" unicode="}" horiz-adv-x="334" 
d="M-52 -91q34 0 57.5 8.5t37.5 27.5t21 51l34 159q11 50 39.5 81.5t83.5 39.5v3q-37 10 -55 33t-18 58q0 12 2 25.5t5 27.5l27 123q2 12 3 22t1 19q0 31 -18.5 45t-57.5 15l14 67h6q48 0 77.5 -12.5t43.5 -37.5t14 -62q0 -13 -1.5 -28.5t-5.5 -31.5l-27 -125q-2 -12 -4 -22
t-2 -21q0 -33 21 -49.5t68 -16.5l-14 -66q-55 0 -85 -23t-41 -74l-35 -163q-11 -55 -34 -85t-60.5 -42.5t-93.5 -12.5h-4z" />
    <glyph glyph-name="asciitilde" unicode="~" horiz-adv-x="473" 
d="M237 320q-26 14 -48 20.5t-41 6.5q-24 0 -50 -16t-50 -43v77q21 25 47 38.5t57 13.5q28 0 52.5 -7.5t56.5 -23.5q29 -14 49.5 -20.5t40.5 -6.5q25 0 51.5 16.5t48.5 41.5v-77q-21 -24 -47 -37t-57 -13q-30 0 -53.5 7t-56.5 23z" />
    <glyph glyph-name="uni00A0" unicode="&#xa0;" horiz-adv-x="197" 
 />
    <glyph glyph-name="exclamdown" unicode="&#xa1;" horiz-adv-x="243" 
d="M-18 -184l129 518h60l-93 -518h-96zM160 417q-20 0 -31.5 12.5t-11.5 33.5q0 34 18 57t48 23q21 0 33 -12t12 -34q0 -30 -17 -55t-51 -25z" />
    <glyph glyph-name="cent" unicode="&#xa2;" horiz-adv-x="439" 
d="M177 93q-49 12 -75 54t-26 115q0 46 8.5 95.5t26 96.5t43.5 87t60.5 66.5t78.5 33.5l16 83h57l-17 -82q22 -2 41.5 -7.5t35.5 -14.5l-29 -67q-16 8 -35 14.5t-38 6.5q-39 0 -69.5 -28.5t-52 -74.5t-33 -100t-11.5 -106q0 -55 21.5 -81.5t59.5 -26.5q24 0 46.5 7.5
t42.5 18.5l14 -64q-22 -13 -50.5 -21t-58.5 -10l-20 -98h-57z" />
    <glyph glyph-name="sterling" unicode="&#xa3;" horiz-adv-x="440" 
d="M-5 68q24 10 44 28t34.5 46t23.5 68l24 113h-76l14 65h75l35 166q13 55 36 93t58.5 57.5t84.5 19.5q39 0 70.5 -11t57.5 -30l-36 -65q-19 14 -42.5 23.5t-51.5 9.5q-38 0 -62 -26t-37 -84l-32 -153h131l-13 -65h-131l-25 -112q-11 -55 -33 -87t-51 -50h265l-15 -74h-362z
" />
    <glyph glyph-name="currency" unicode="&#xa4;" horiz-adv-x="519" 
d="M380 204q-24 -17 -51.5 -26t-56.5 -9t-57 9.5t-51 26.5l-63 -63l-40 41l63 62q-18 25 -27 52t-9 56t9 56t27 52l-64 63l41 41l63 -64q25 18 52.5 27t55.5 9q29 0 56.5 -9t51.5 -27l63 64l41 -40l-63 -63q17 -25 26.5 -52t9.5 -57t-9 -57t-27 -52l63 -63l-40 -40zM272 228
q36 0 64 17t45.5 45.5t17.5 62.5q0 35 -17.5 63t-46 45.5t-63.5 17.5q-34 0 -62.5 -17t-45.5 -45.5t-17 -63.5q0 -34 17 -63t45 -45.5t63 -16.5z" />
    <glyph glyph-name="yen" unicode="&#xa5;" horiz-adv-x="437" 
d="M114 0l27 131h-111l13 60h111l17 84h-110l12 60h93l-49 379h81l34 -333l175 333h85l-210 -379h95l-12 -60h-114l-18 -84h114l-12 -60h-114l-28 -131h-79z" />
    <glyph glyph-name="brokenbar" unicode="&#xa6;" horiz-adv-x="421" 
d="M180 381v381h71v-381h-71zM180 -238v381h71v-381h-71z" />
    <glyph glyph-name="section" unicode="&#xa7;" horiz-adv-x="387" 
d="M129 20q-40 0 -72 8t-52 20v71q24 -17 57 -27.5t64 -10.5q47 0 75 24t28 64q0 17 -7.5 30.5t-23.5 26.5t-40 28q-26 16 -48.5 34.5t-35 42.5t-12.5 56q0 33 12.5 58t35 45t53.5 34q-23 20 -34.5 43.5t-11.5 54.5q0 38 19.5 69.5t56 50.5t86.5 19q40 0 73 -9t59 -25
l-31 -57q-23 16 -48 23.5t-52 7.5q-23 0 -43 -9t-32.5 -26t-12.5 -41q0 -28 18 -46t52 -38q32 -20 53 -39t32 -40t11 -47q0 -32 -11.5 -58.5t-32.5 -48.5t-52 -40q19 -16 31 -38.5t12 -53.5q0 -45 -21.5 -80t-61 -55.5t-93.5 -20.5zM223 299q28 18 45 44t17 57
q0 19 -7.5 33.5t-25 28.5t-46.5 31q-21 -8 -37 -21.5t-25.5 -32t-9.5 -40.5q0 -19 9 -35t29 -31.5t51 -33.5z" />
    <glyph glyph-name="dieresis" unicode="&#xa8;" horiz-adv-x="495" 
d="M382 631q-17 0 -27 9.5t-10 28.5q0 26 14 44.5t39 18.5q18 0 26.5 -9.5t8.5 -26.5q0 -29 -14.5 -47t-36.5 -18zM224 631q-17 0 -27 9.5t-10 28.5q0 26 14 44.5t39 18.5q11 0 18.5 -4t11.5 -12t4 -20q0 -29 -14 -47t-36 -18z" />
    <glyph glyph-name="copyright" unicode="&#xa9;" horiz-adv-x="831" 
d="M415 -10q-83 0 -150.5 28.5t-116 79t-74.5 117t-26 142.5q0 81 28 148t78 116.5t117 76t144 26.5q80 0 147 -27.5t116.5 -77.5t76.5 -117t27 -145q0 -80 -27 -147t-76.5 -116.5t-116.5 -76.5t-147 -27zM430 134q-96 0 -147 58.5t-51 163.5q0 67 24 117.5t69.5 78
t108.5 27.5q32 0 63.5 -7t61.5 -21l-27 -58q-25 13 -49.5 18.5t-46.5 5.5q-60 0 -95 -41.5t-35 -117.5q0 -82 32 -122t96 -40q25 0 52 6t54 18v-62q-25 -12 -52.5 -18t-57.5 -6zM415 43q68 0 124.5 23.5t98 66.5t64.5 100t23 124t-23 124.5t-64.5 99.5t-98 66t-124.5 24
t-125.5 -23.5t-98.5 -66.5t-64 -100t-23 -124q0 -69 23.5 -126.5t65.5 -99.5t99 -65t123 -23z" />
    <glyph glyph-name="ordfeminine" unicode="&#xaa;" horiz-adv-x="291" 
d="M153 384q-20 0 -39 11t-31.5 36t-12.5 65q0 41 10 81t29 72.5t47 52t65 19.5q30 0 45.5 -14t22.5 -34h4l17 42h42l-68 -325h-45l6 49h-3q-15 -24 -36 -39.5t-53 -15.5zM169 435q20 0 35.5 11.5t27.5 30.5t19 41.5t11 44.5t4 40q0 32 -11 50t-36 18q-20 0 -37 -15
t-28.5 -39.5t-18 -54.5t-6.5 -60q0 -35 11 -51t29 -16z" />
    <glyph glyph-name="guillemotleft" unicode="&#xab;" horiz-adv-x="436" 
d="M130 59l-99 203l2 13l174 191l49 -36l-138 -166l72 -179zM310 59l-98 197l2 13l170 196l51 -35l-136 -171l70 -174z" />
    <glyph glyph-name="logicalnot" unicode="&#xac;" horiz-adv-x="473" 
d="M443 387v-265h-70v196h-324v69h394z" />
    <glyph glyph-name="uni00AD" unicode="&#xad;" horiz-adv-x="275" 
d="M18 231l16 77h217l-16 -77h-217z" />
    <glyph glyph-name="registered" unicode="&#xae;" horiz-adv-x="831" 
d="M282 143v431h120q77 0 117 -31t40 -96q0 -44 -19.5 -72t-53.5 -44l102 -188h-81l-87 171h-66v-171h-72zM399 370q39 0 62 19t23 56q0 36 -21 53t-65 17h-44v-145h45zM415 -10q-83 0 -150.5 28.5t-116 79t-74.5 117t-26 142.5q0 81 28 148t78 116.5t117 76t144 26.5
q80 0 147 -27.5t116.5 -77.5t76.5 -117t27 -145q0 -80 -27 -147t-76.5 -116.5t-116.5 -76.5t-147 -27zM415 43q68 0 124.5 23.5t98 66.5t64.5 100t23 124t-23 124.5t-64.5 99.5t-98 66t-124.5 24t-125.5 -23.5t-98.5 -66.5t-64 -100t-23 -124q0 -69 23.5 -126.5t65.5 -99.5
t99 -65t123 -23z" />
    <glyph glyph-name="overscore" unicode="&#xaf;" horiz-adv-x="394" 
d="M95 760l14 63h399l-14 -63h-399z" />
    <glyph glyph-name="degree" unicode="&#xb0;" horiz-adv-x="384" 
d="M192 444q-43 0 -75.5 17t-50.5 48.5t-18 73.5q0 44 18.5 75t51 48t74.5 17t74.5 -17t51 -48.5t18.5 -74.5q0 -42 -18.5 -73.5t-51.5 -48.5t-74 -17zM193 498q39 0 61 23.5t22 61.5q0 39 -22 63t-61 24q-42 0 -63.5 -24.5t-21.5 -62.5q0 -39 22.5 -62t62.5 -23z" />
    <glyph glyph-name="plusminus" unicode="&#xb1;" horiz-adv-x="473" 
d="M49 0v69h400v-69h-400zM284 401h164v-69h-164v-202h-70v202h-165v69h165v203h70v-203z" />
    <glyph glyph-name="uni00B2" unicode="&#xb2;" horiz-adv-x="300" 
d="M47 416l10 54l124 126q30 31 51.5 56t33 49t11.5 48t-13 37t-35 13t-42 -10.5t-39 -26.5l-25 45q25 24 55.5 35.5t64.5 11.5t56 -12.5t33 -34t11 -48.5q0 -35 -14 -66.5t-39.5 -61.5t-58.5 -61l-99 -97h164l-12 -57h-237z" />
    <glyph glyph-name="uni00B3" unicode="&#xb3;" horiz-adv-x="300" 
d="M153 408q-31 0 -55.5 6.5t-42.5 17.5v62q20 -14 45 -22t54 -8q43 0 66.5 23.5t23.5 60.5q0 32 -18.5 48t-50.5 16h-36l11 52h34q30 0 50.5 11t31.5 29.5t11 42.5q0 25 -13 38.5t-38 13.5q-23 0 -42 -8.5t-39 -22.5l-25 45q23 20 52.5 31t64.5 11q36 0 59 -13t34.5 -34.5
t11.5 -49.5q0 -44 -24 -74t-67 -43l-1 -4q26 -10 42 -32t16 -56q0 -41 -18 -73t-53 -50t-84 -18z" />
    <glyph glyph-name="acute" unicode="&#xb4;" horiz-adv-x="255" 
d="M114 616q22 25 42 51.5t38 51.5t30 47h96l-1 -9q-10 -14 -29 -34.5t-42 -42.5t-44.5 -41.5t-37.5 -32.5h-52v10z" />
    <glyph glyph-name="uni03BC" unicode="&#x3bc;" horiz-adv-x="483" 
d="M-41 -235l164 771h81l-74 -343q-9 -43 -9 -72.5t11 -44.5t37 -15q35 0 63.5 24t50 70.5t35.5 113.5l56 267h80l-86 -410q-7 -34 -0.5 -50t24.5 -16q8 0 16 1.5t15 3.5l-14 -65q-5 -2 -13.5 -4.5t-18 -4t-18.5 -1.5q-26 0 -43 8t-24.5 26.5t-7.5 52.5h-4
q-12 -19 -24.5 -35.5t-26 -28t-30 -17.5t-35.5 -6q-29 0 -44 12t-24 36h-3q-2 -16 -5 -33.5t-6.5 -35t-7.5 -35.5l-36 -169h-79z" />
    <glyph glyph-name="paragraph" unicode="&#xb6;" horiz-adv-x="516" 
d="M273 297q-9 -3 -19.5 -5t-24.5 -2q-38 0 -65 17t-44.5 48.5t-26 74t-8.5 93.5q0 57 11 101.5t33 74.5t53 45.5t72 15.5h205v-887h-54v827h-77v-827h-54z" />
    <glyph glyph-name="periodcentered" unicode="&#xb7;" horiz-adv-x="220" 
d="M114 289q-21 0 -33 12t-12 34q0 32 17.5 56.5t50.5 24.5q20 0 31.5 -12.5t11.5 -34.5q0 -33 -18.5 -56.5t-47.5 -23.5z" />
    <glyph glyph-name="cedilla" unicode="&#xb8;" horiz-adv-x="193" 
d="M-20 -240q-15 0 -30 1.5t-27 4.5v52q8 -3 20.5 -4.5t27.5 -1.5q24 0 40.5 6.5t25 19.5t8.5 30q0 22 -17.5 34t-50.5 16l50 82h50l-33 -53q29 -7 48 -25.5t19 -50.5q0 -34 -16.5 -59t-45.5 -38.5t-69 -13.5z" />
    <glyph glyph-name="uni00B9" unicode="&#xb9;" horiz-adv-x="300" 
d="M221 706q4 17 8.5 34.5t8.5 30.5q-9 -7 -17.5 -14.5t-15.5 -12.5l-58 -41l-26 44l135 97h59l-92 -428h-65z" />
    <glyph glyph-name="ordmasculine" unicode="&#xba;" horiz-adv-x="296" 
d="M175 383q-48 0 -75 31.5t-27 88.5q0 39 9.5 77.5t29 70.5t48.5 51.5t67 19.5q48 0 74.5 -30t26.5 -88q0 -38 -9 -77t-28 -71.5t-47.5 -52.5t-68.5 -20zM182 435q23 0 39.5 15t27.5 39.5t16 53.5t5 56q0 35 -12 53t-37 18q-23 0 -39 -15t-27.5 -38.5t-17 -52.5t-5.5 -57
q0 -37 12.5 -54.5t37.5 -17.5z" />
    <glyph glyph-name="guillemotright" unicode="&#xbb;" horiz-adv-x="437" 
d="M227 59l-49 37l137 165l-72 179l60 26l99 -203l-1 -13zM49 61l-51 35l136 170l-70 174l59 26l97 -197l-1 -14z" />
    <glyph glyph-name="onequarter" unicode="&#xbc;" horiz-adv-x="672" 
d="M55 0l528 714h70l-527 -714h-71zM198 576q4 17 8.5 34.5t8.5 30.5q-9 -7 -17.5 -14.5t-15.5 -12.5l-58 -41l-26 44l135 97h59l-92 -428h-65zM484 0l19 95h-155l9 48l215 288h66l-61 -281h51l-11 -55h-51l-20 -95h-62zM420 150h95l25 117q5 22 9 41.5t9 35.5
q-5 -9 -12.5 -20.5l-15 -23t-15.5 -21.5z" />
    <glyph glyph-name="onehalf" unicode="&#xbd;" horiz-adv-x="725" 
d="M51 0l528 714h70l-527 -714h-71zM198 576q4 17 8.5 34.5t8.5 30.5q-9 -7 -17.5 -14.5t-15.5 -12.5l-58 -41l-26 44l135 97h59l-92 -428h-65zM389 0l10 54l124 126q30 31 51.5 56t33 49t11.5 48t-13 37t-35 13t-42 -10.5t-39 -26.5l-25 45q25 24 55.5 35.5t64.5 11.5
t56 -12.5t33 -34t11 -48.5q0 -35 -14 -66.5t-39.5 -61.5t-58.5 -61l-99 -97h164l-12 -57h-237z" />
    <glyph glyph-name="threequarters" unicode="&#xbe;" horiz-adv-x="695" 
d="M131 278q-31 0 -55.5 6.5t-42.5 17.5v62q20 -14 45 -22t54 -8q43 0 66.5 23.5t23.5 60.5q0 32 -18.5 48t-50.5 16h-36l11 52h34q30 0 50.5 11t31.5 29.5t11 42.5q0 25 -13 38.5t-38 13.5q-23 0 -42 -8.5t-39 -22.5l-25 45q23 20 52.5 31t64.5 11q36 0 59 -13t34.5 -34.5
t11.5 -49.5q0 -44 -24 -74t-67 -43l-1 -4q26 -10 42 -32t16 -56q0 -41 -18 -73t-53 -50t-84 -18zM82 0l528 714h70l-527 -714h-71zM507 0l19 95h-155l9 48l215 288h66l-61 -281h51l-11 -55h-51l-20 -95h-62zM443 150h95l25 117q5 22 9 41.5t9 35.5q-5 -9 -12.5 -20.5
l-15 -23t-15.5 -21.5z" />
    <glyph glyph-name="questiondown" unicode="&#xbf;" horiz-adv-x="330" 
d="M248 331q-9 -46 -21 -79.5t-30.5 -61t-47.5 -58.5q-30 -31 -54.5 -58t-38 -55.5t-13.5 -67.5q0 -35 18 -53.5t50 -18.5q30 0 57 11.5t51 26.5l22 -63q-33 -23 -70.5 -35t-73.5 -12q-65 0 -100.5 33.5t-35.5 96.5q0 44 15.5 81t42.5 70.5t62 67.5q32 33 51 57t30.5 51.5
t19.5 66.5h66zM250 541q22 0 34 -12t12 -34q0 -31 -17.5 -56t-52.5 -25q-19 0 -30.5 12.5t-11.5 34.5q0 33 18.5 56.5t47.5 23.5z" />
    <glyph glyph-name="Agrave" unicode="&#xc0;" horiz-adv-x="451" 
d="M-63 0l326 716h100l28 -716h-84l-8 226h-171l-100 -226h-91zM159 301h140l-2 220q-2 29 -2 57.5t1 51.5h-3q-8 -23 -18.5 -50.5t-24.5 -59.5zM329 790q-15 18 -33.5 45.5t-35 56t-24.5 49.5v8h91q7 -23 14.5 -48t17.5 -50t21 -50v-11h-51z" />
    <glyph glyph-name="Aacute" unicode="&#xc1;" horiz-adv-x="451" 
d="M-63 0l326 716h100l28 -716h-84l-8 226h-171l-100 -226h-91zM159 301h140l-2 220q-2 29 -2 57.5t1 51.5h-3q-8 -23 -18.5 -50.5t-24.5 -59.5zM277 799q22 25 42 51.5t38 51.5t30 47h96l-1 -9q-10 -14 -29 -34.5t-42 -42.5t-44.5 -41.5t-37.5 -32.5h-52v10z" />
    <glyph glyph-name="Acircumflex" unicode="&#xc2;" horiz-adv-x="451" 
d="M-63 0l326 716h100l28 -716h-84l-8 226h-171l-100 -226h-91zM159 301h140l-2 220q-2 29 -2 57.5t1 51.5h-3q-8 -23 -18.5 -50.5t-24.5 -59.5zM187 800q22 22 45 48t44 52t36 49h74q5 -20 16.5 -48t24 -55.5t22.5 -45.5l-2 -11h-46q-10 12 -20.5 26.5t-21.5 31t-21 34.5
q-28 -27 -54.5 -51t-48.5 -41h-49z" />
    <glyph glyph-name="Atilde" unicode="&#xc3;" horiz-adv-x="451" 
d="M-63 0l326 716h100l28 -716h-84l-8 226h-171l-100 -226h-91zM159 301h140l-2 220q-2 29 -2 57.5t1 51.5h-3q-8 -23 -18.5 -50.5t-24.5 -59.5zM176 790q9 41 22.5 69t33 42.5t46.5 14.5q21 0 37.5 -8.5t30 -20t26 -20.5t25.5 -9q18 0 27.5 13t19.5 46h50q-9 -44 -24 -72
t-33.5 -41t-42.5 -13q-19 0 -35.5 9t-30 20.5t-26.5 20.5t-27 9q-18 0 -29.5 -15t-19.5 -45h-50z" />
    <glyph glyph-name="Adieresis" unicode="&#xc4;" horiz-adv-x="451" 
d="M-63 0l326 716h100l28 -716h-84l-8 226h-171l-100 -226h-91zM159 301h140l-2 220q-2 29 -2 57.5t1 51.5h-3q-8 -23 -18.5 -50.5t-24.5 -59.5zM405 814q-17 0 -27 9.5t-10 28.5q0 26 14 44.5t39 18.5q18 0 26.5 -9.5t8.5 -26.5q0 -29 -14.5 -47t-36.5 -18zM247 814
q-17 0 -27 9.5t-10 28.5q0 26 14 44.5t39 18.5q11 0 18.5 -4t11.5 -12t4 -20q0 -29 -14 -47t-36 -18z" />
    <glyph glyph-name="Aring" unicode="&#xc5;" horiz-adv-x="451" 
d="M-63 0l326 716h100l28 -716h-84l-8 226h-171l-100 -226h-91zM159 301h140l-2 220q-2 29 -2 57.5t1 51.5h-3q-8 -23 -18.5 -50.5t-24.5 -59.5zM332 783q-48 0 -75.5 27t-27.5 75q0 45 28.5 72.5t74.5 27.5q47 0 75 -27t28 -72q0 -46 -28 -74.5t-75 -28.5zM333 830
q25 0 39.5 15t14.5 40q0 24 -14.5 39.5t-39.5 15.5t-40 -15.5t-15 -39.5q0 -25 13.5 -40t41.5 -15z" />
    <glyph glyph-name="AE" unicode="&#xc6;" horiz-adv-x="636" 
d="M-64 0l374 714h368l-15 -74h-207l-49 -230h194l-15 -74h-195l-55 -262h207l-16 -74h-290l49 226h-144l-116 -226h-90zM180 301h122l71 338h-21z" />
    <glyph glyph-name="Ccedilla" unicode="&#xc7;" horiz-adv-x="446" 
d="M235 -10q-61 0 -103 28t-63.5 82t-21.5 133q0 61 13 129t39 132t66 116t93 83.5t120 31.5q40 0 73 -9t61 -28l-41 -68q-19 14 -42.5 22t-51.5 8q-50 0 -89 -28t-68.5 -73.5t-48.5 -100.5t-28.5 -110t-9.5 -100q0 -87 30 -130.5t89 -43.5q29 0 57 7.5t57 18.5v-75
q-31 -13 -63 -19t-68 -6zM152 -240q-15 0 -30 1.5t-27 4.5v52q8 -3 20.5 -4.5t27.5 -1.5q24 0 40.5 6.5t25 19.5t8.5 30q0 22 -17.5 34t-50.5 16l50 82h50l-33 -53q29 -7 48 -25.5t19 -50.5q0 -34 -16.5 -59t-45.5 -38.5t-69 -13.5z" />
    <glyph glyph-name="Egrave" unicode="&#xc8;" horiz-adv-x="410" 
d="M12 0l151 714h290l-15 -74h-208l-48 -230h193l-15 -74h-194l-56 -262h208l-16 -74h-290zM315 789q-15 18 -33.5 45.5t-35 56t-24.5 49.5v8h91q7 -23 14.5 -48t17.5 -50t21 -50v-11h-51z" />
    <glyph glyph-name="Eacute" unicode="&#xc9;" horiz-adv-x="410" 
d="M12 0l151 714h290l-15 -74h-208l-48 -230h193l-15 -74h-194l-56 -262h208l-16 -74h-290zM263 798q22 25 42 51.5t38 51.5t30 47h96l-1 -9q-10 -14 -29 -34.5t-42 -42.5t-44.5 -41.5t-37.5 -32.5h-52v10z" />
    <glyph glyph-name="Ecircumflex" unicode="&#xca;" horiz-adv-x="410" 
d="M12 0l151 714h290l-15 -74h-208l-48 -230h193l-15 -74h-194l-56 -262h208l-16 -74h-290zM184 786q22 22 45 48t44 52t36 49h74q5 -20 16.5 -48t24 -55.5t22.5 -45.5l-2 -11h-46q-10 12 -20.5 26.5t-21.5 31t-21 34.5q-28 -27 -54.5 -51t-48.5 -41h-49z" />
    <glyph glyph-name="Edieresis" unicode="&#xcb;" horiz-adv-x="410" 
d="M12 0l151 714h290l-15 -74h-208l-48 -230h193l-15 -74h-194l-56 -262h208l-16 -74h-290zM398 800q-17 0 -27 9.5t-10 28.5q0 26 14 44.5t39 18.5q18 0 26.5 -9.5t8.5 -26.5q0 -29 -14.5 -47t-36.5 -18zM240 800q-17 0 -27 9.5t-10 28.5q0 26 14 44.5t39 18.5
q11 0 18.5 -4t11.5 -12t4 -20q0 -29 -14 -47t-36 -18z" />
    <glyph glyph-name="Igrave" unicode="&#xcc;" horiz-adv-x="279" 
d="M-42 0l10 46l81 17l124 588l-73 17l9 46h237l-10 -46l-80 -17l-125 -588l73 -17l-9 -46h-237zM243 789q-15 18 -33.5 45.5t-35 56t-24.5 49.5v8h91q7 -23 14.5 -48t17.5 -50t21 -50v-11h-51z" />
    <glyph glyph-name="Iacute" unicode="&#xcd;" horiz-adv-x="279" 
d="M-42 0l10 46l81 17l124 588l-73 17l9 46h237l-10 -46l-80 -17l-125 -588l73 -17l-9 -46h-237zM191 798q22 25 42 51.5t38 51.5t30 47h96l-1 -9q-10 -14 -29 -34.5t-42 -42.5t-44.5 -41.5t-37.5 -32.5h-52v10z" />
    <glyph glyph-name="Icircumflex" unicode="&#xce;" horiz-adv-x="279" 
d="M-42 0l10 46l81 17l124 588l-73 17l9 46h237l-10 -46l-80 -17l-125 -588l73 -17l-9 -46h-237zM108 801q22 22 45 48t44 52t36 49h74q5 -20 16.5 -48t24 -55.5t22.5 -45.5l-2 -11h-46q-10 12 -20.5 26.5t-21.5 31t-21 34.5q-28 -27 -54.5 -51t-48.5 -41h-49z" />
    <glyph glyph-name="Idieresis" unicode="&#xcf;" horiz-adv-x="279" 
d="M-42 0l10 46l81 17l124 588l-73 17l9 46h237l-10 -46l-80 -17l-125 -588l73 -17l-9 -46h-237zM326 815q-17 0 -27 9.5t-10 28.5q0 26 14 44.5t39 18.5q18 0 26.5 -9.5t8.5 -26.5q0 -29 -14.5 -47t-36.5 -18zM168 815q-17 0 -27 9.5t-10 28.5q0 26 14 44.5t39 18.5
q11 0 18.5 -4t11.5 -12t4 -20q0 -29 -14 -47t-36 -18z" />
    <glyph glyph-name="Eth" unicode="&#xd0;" horiz-adv-x="526" 
d="M26 331l15 69h245l-15 -69h-245zM12 0l151 714h133q101 0 155.5 -58.5t54.5 -174.5q0 -68 -13.5 -136.5t-41 -130.5t-70 -110t-100.5 -76t-133 -28h-136zM158 74q53 0 95 24t73 65t51.5 93t30.5 109t10 113q0 84 -34.5 123t-97.5 39h-55l-121 -566h48z" />
    <glyph glyph-name="Ntilde" unicode="&#xd1;" horiz-adv-x="571" 
d="M12 0l151 714h95l131 -575h3q5 32 11 66.5t12.5 66t11.5 55.5l82 387h80l-152 -714h-93l-133 582h-3q-3 -24 -8 -53t-10.5 -58t-11 -55t-8.5 -43l-79 -373h-79zM236 776q9 41 22.5 69t33 42.5t46.5 14.5q21 0 37.5 -8.5t30 -20t26 -20.5t25.5 -9q18 0 27.5 13t19.5 46h50
q-9 -44 -24 -72t-33.5 -41t-42.5 -13q-19 0 -35.5 9t-30 20.5t-26.5 20.5t-27 9q-18 0 -29.5 -15t-19.5 -45h-50z" />
    <glyph glyph-name="Ograve" unicode="&#xd2;" horiz-adv-x="563" 
d="M235 -10q-62 0 -104.5 26t-63.5 77.5t-21 126.5q0 56 9 115t26.5 115.5t44 106t61.5 87t78 59t94 21.5q91 0 138 -57.5t47 -167.5q0 -52 -8 -109t-24.5 -114t-41.5 -108.5t-59.5 -91.5t-78 -63t-97.5 -23zM240 65q36 0 65.5 20t54 54.5t43 78.5t30.5 93t18.5 97.5
t6.5 91.5q0 75 -27.5 112.5t-78.5 37.5q-38 0 -68.5 -21t-55 -56.5t-42.5 -80.5t-30 -93.5t-17.5 -94.5t-5.5 -84q0 -53 12.5 -87t36 -51t58.5 -17zM386 789q-15 18 -33.5 45.5t-35 56t-24.5 49.5v8h91q7 -23 14.5 -48t17.5 -50t21 -50v-11h-51z" />
    <glyph glyph-name="Oacute" unicode="&#xd3;" horiz-adv-x="563" 
d="M235 -10q-62 0 -104.5 26t-63.5 77.5t-21 126.5q0 56 9 115t26.5 115.5t44 106t61.5 87t78 59t94 21.5q91 0 138 -57.5t47 -167.5q0 -52 -8 -109t-24.5 -114t-41.5 -108.5t-59.5 -91.5t-78 -63t-97.5 -23zM240 65q36 0 65.5 20t54 54.5t43 78.5t30.5 93t18.5 97.5
t6.5 91.5q0 75 -27.5 112.5t-78.5 37.5q-38 0 -68.5 -21t-55 -56.5t-42.5 -80.5t-30 -93.5t-17.5 -94.5t-5.5 -84q0 -53 12.5 -87t36 -51t58.5 -17zM334 798q22 25 42 51.5t38 51.5t30 47h96l-1 -9q-10 -14 -29 -34.5t-42 -42.5t-44.5 -41.5t-37.5 -32.5h-52v10z" />
    <glyph glyph-name="Ocircumflex" unicode="&#xd4;" horiz-adv-x="563" 
d="M235 -10q-62 0 -104.5 26t-63.5 77.5t-21 126.5q0 56 9 115t26.5 115.5t44 106t61.5 87t78 59t94 21.5q91 0 138 -57.5t47 -167.5q0 -52 -8 -109t-24.5 -114t-41.5 -108.5t-59.5 -91.5t-78 -63t-97.5 -23zM240 65q36 0 65.5 20t54 54.5t43 78.5t30.5 93t18.5 97.5
t6.5 91.5q0 75 -27.5 112.5t-78.5 37.5q-38 0 -68.5 -21t-55 -56.5t-42.5 -80.5t-30 -93.5t-17.5 -94.5t-5.5 -84q0 -53 12.5 -87t36 -51t58.5 -17zM240 786q22 22 45 48t44 52t36 49h74q5 -20 16.5 -48t24 -55.5t22.5 -45.5l-2 -11h-46q-10 12 -20.5 26.5t-21.5 31
t-21 34.5q-28 -27 -54.5 -51t-48.5 -41h-49z" />
    <glyph glyph-name="Otilde" unicode="&#xd5;" horiz-adv-x="563" 
d="M235 -10q-62 0 -104.5 26t-63.5 77.5t-21 126.5q0 56 9 115t26.5 115.5t44 106t61.5 87t78 59t94 21.5q91 0 138 -57.5t47 -167.5q0 -52 -8 -109t-24.5 -114t-41.5 -108.5t-59.5 -91.5t-78 -63t-97.5 -23zM240 65q36 0 65.5 20t54 54.5t43 78.5t30.5 93t18.5 97.5
t6.5 91.5q0 75 -27.5 112.5t-78.5 37.5q-38 0 -68.5 -21t-55 -56.5t-42.5 -80.5t-30 -93.5t-17.5 -94.5t-5.5 -84q0 -53 12.5 -87t36 -51t58.5 -17zM230 776q9 41 22.5 69t33 42.5t46.5 14.5q21 0 37.5 -8.5t30 -20t26 -20.5t25.5 -9q18 0 27.5 13t19.5 46h50
q-9 -44 -24 -72t-33.5 -41t-42.5 -13q-19 0 -35.5 9t-30 20.5t-26.5 20.5t-27 9q-18 0 -29.5 -15t-19.5 -45h-50z" />
    <glyph glyph-name="Odieresis" unicode="&#xd6;" horiz-adv-x="563" 
d="M235 -10q-62 0 -104.5 26t-63.5 77.5t-21 126.5q0 56 9 115t26.5 115.5t44 106t61.5 87t78 59t94 21.5q91 0 138 -57.5t47 -167.5q0 -52 -8 -109t-24.5 -114t-41.5 -108.5t-59.5 -91.5t-78 -63t-97.5 -23zM240 65q36 0 65.5 20t54 54.5t43 78.5t30.5 93t18.5 97.5
t6.5 91.5q0 75 -27.5 112.5t-78.5 37.5q-38 0 -68.5 -21t-55 -56.5t-42.5 -80.5t-30 -93.5t-17.5 -94.5t-5.5 -84q0 -53 12.5 -87t36 -51t58.5 -17zM480 814q-17 0 -27 9.5t-10 28.5q0 26 14 44.5t39 18.5q18 0 26.5 -9.5t8.5 -26.5q0 -29 -14.5 -47t-36.5 -18zM322 814
q-17 0 -27 9.5t-10 28.5q0 26 14 44.5t39 18.5q11 0 18.5 -4t11.5 -12t4 -20q0 -29 -14 -47t-36 -18z" />
    <glyph glyph-name="multiply" unicode="&#xd7;" horiz-adv-x="473" 
d="M395 548l49 -47l-147 -148l145 -146l-48 -48l-146 146l-145 -146l-48 48l145 146l-145 145l47 49l146 -146z" />
    <glyph glyph-name="Oslash" unicode="&#xd8;" horiz-adv-x="563" 
d="M57 -46l-47 31l65 97q-14 27 -21.5 61.5t-7.5 76.5q0 56 9 115t26.5 115.5t44 106t61.5 87t78 59t94 21.5q39 0 69.5 -12t53.5 -35l54 79l48 -33l-66 -96q13 -25 19.5 -57.5t6.5 -70.5q0 -52 -8 -109t-24.5 -114t-41.5 -108.5t-59.5 -91.5t-78 -63t-97.5 -23
q-39 0 -69.5 11t-52.5 34zM240 65q34 0 63.5 18.5t53.5 50.5t41.5 74t30 88.5t19.5 93.5t8 90q1 15 -0.5 28.5t-4.5 23.5l-291 -425q13 -21 33.5 -31.5t46.5 -10.5zM433 604q-13 23 -33 35t-48 12q-36 0 -66.5 -19.5t-54.5 -53.5t-42 -76.5t-30 -88.5t-18.5 -91t-6.5 -83
q-1 -18 0.5 -34t4.5 -30z" />
    <glyph glyph-name="Ugrave" unicode="&#xd9;" horiz-adv-x="533" 
d="M213 -10q-54 0 -91 19t-56 56t-19 89q0 18 2.5 41t7.5 47l101 472h82l-101 -477q-4 -20 -6.5 -40t-2.5 -35q0 -48 23.5 -72.5t68.5 -24.5q41 0 69.5 18.5t47 56.5t31.5 97l102 477h83l-104 -485q-16 -73 -44.5 -127t-75 -83t-118.5 -29zM371 789q-15 18 -33.5 45.5
t-35 56t-24.5 49.5v8h91q7 -23 14.5 -48t17.5 -50t21 -50v-11h-51z" />
    <glyph glyph-name="Uacute" unicode="&#xda;" horiz-adv-x="533" 
d="M213 -10q-54 0 -91 19t-56 56t-19 89q0 18 2.5 41t7.5 47l101 472h82l-101 -477q-4 -20 -6.5 -40t-2.5 -35q0 -48 23.5 -72.5t68.5 -24.5q41 0 69.5 18.5t47 56.5t31.5 97l102 477h83l-104 -485q-16 -73 -44.5 -127t-75 -83t-118.5 -29zM319 798q22 25 42 51.5t38 51.5
t30 47h96l-1 -9q-10 -14 -29 -34.5t-42 -42.5t-44.5 -41.5t-37.5 -32.5h-52v10z" />
    <glyph glyph-name="Ucircumflex" unicode="&#xdb;" horiz-adv-x="533" 
d="M213 -10q-54 0 -91 19t-56 56t-19 89q0 18 2.5 41t7.5 47l101 472h82l-101 -477q-4 -20 -6.5 -40t-2.5 -35q0 -48 23.5 -72.5t68.5 -24.5q41 0 69.5 18.5t47 56.5t31.5 97l102 477h83l-104 -485q-16 -73 -44.5 -127t-75 -83t-118.5 -29zM232 786q22 22 45 48t44 52t36 49
h74q5 -20 16.5 -48t24 -55.5t22.5 -45.5l-2 -11h-46q-10 12 -20.5 26.5t-21.5 31t-21 34.5q-28 -27 -54.5 -51t-48.5 -41h-49z" />
    <glyph glyph-name="Udieresis" unicode="&#xdc;" horiz-adv-x="533" 
d="M213 -10q-54 0 -91 19t-56 56t-19 89q0 18 2.5 41t7.5 47l101 472h82l-101 -477q-4 -20 -6.5 -40t-2.5 -35q0 -48 23.5 -72.5t68.5 -24.5q41 0 69.5 18.5t47 56.5t31.5 97l102 477h83l-104 -485q-16 -73 -44.5 -127t-75 -83t-118.5 -29zM465 814q-17 0 -27 9.5t-10 28.5
q0 26 14 44.5t39 18.5q18 0 26.5 -9.5t8.5 -26.5q0 -29 -14.5 -47t-36.5 -18zM307 814q-17 0 -27 9.5t-10 28.5q0 26 14 44.5t39 18.5q11 0 18.5 -4t11.5 -12t4 -20q0 -29 -14 -47t-36 -18z" />
    <glyph glyph-name="Yacute" unicode="&#xdd;" horiz-adv-x="402" 
d="M96 0l58 273l-67 441h85l43 -339l185 339h90l-253 -441l-58 -273h-83zM254 798q22 25 42 51.5t38 51.5t30 47h96l-1 -9q-10 -14 -29 -34.5t-42 -42.5t-44.5 -41.5t-37.5 -32.5h-52v10z" />
    <glyph glyph-name="Thorn" unicode="&#xde;" horiz-adv-x="450" 
d="M12 0l151 714h83l-26 -124h40q61 0 100.5 -20t59.5 -57t20 -87q0 -60 -18 -109t-51.5 -85.5t-82 -56t-110.5 -19.5h-51l-32 -156h-83zM182 228q55 0 93.5 23t58.5 65.5t20 100.5q0 51 -26 75.5t-80 24.5h-44l-61 -289h39z" />
    <glyph glyph-name="germandbls" unicode="&#xdf;" horiz-adv-x="464" 
d="M-77 -240q-16 0 -29.5 2t-25.5 6v71q10 -3 22 -5.5t24 -2.5q32 0 49 27t28 84l135 634q13 62 38 104t63 63.5t91 21.5q65 0 101.5 -32.5t36.5 -87.5q0 -32 -9.5 -58t-27.5 -48.5t-42 -45.5q-29 -28 -48.5 -52t-19.5 -54q0 -15 7 -29.5t17 -29t20 -29.5q23 -28 38.5 -59
t15.5 -74q0 -55 -22 -94.5t-61.5 -60.5t-90.5 -21q-33 0 -59 7.5t-44 19.5l7 77q20 -16 45 -25t49 -9q45 0 69 27.5t24 69.5q0 20 -5.5 36.5t-15 33.5t-25.5 38q-26 32 -38 58t-12 55q0 27 9 50t25.5 43.5t37.5 39.5q22 21 39 39.5t26.5 39.5t9.5 47q0 28 -17.5 43t-46.5 15
q-27 0 -47.5 -13.5t-34.5 -40.5t-23 -68l-135 -634q-12 -51 -28 -91.5t-44.5 -64t-75.5 -23.5z" />
    <glyph glyph-name="agrave" unicode="&#xe0;" horiz-adv-x="466" 
d="M149 -10q-37 0 -63 18.5t-40 54t-14 86.5q0 50 9.5 104.5t28 106.5t46 94t64.5 67t82 25q27 0 47 -10t34 -28.5t22 -43.5h3l25 72h67l-114 -536h-65l8 83h-2q-19 -28 -40.5 -48.5t-45.5 -32.5t-52 -12zM175 59q35 0 62.5 27t48 70.5t32.5 91.5q11 42 16 76t5 64
q0 41 -18.5 64.5t-49.5 23.5q-28 0 -52.5 -21t-43.5 -55t-32.5 -76.5t-20.5 -86.5t-7 -84q0 -47 15.5 -70.5t44.5 -23.5zM299 611q-15 18 -33.5 45.5t-35 56t-24.5 49.5v8h91q7 -23 14.5 -48t17.5 -50t21 -50v-11h-51z" />
    <glyph glyph-name="aacute" unicode="&#xe1;" horiz-adv-x="466" 
d="M149 -10q-37 0 -63 18.5t-40 54t-14 86.5q0 50 9.5 104.5t28 106.5t46 94t64.5 67t82 25q27 0 47 -10t34 -28.5t22 -43.5h3l25 72h67l-114 -536h-65l8 83h-2q-19 -28 -40.5 -48.5t-45.5 -32.5t-52 -12zM175 59q35 0 62.5 27t48 70.5t32.5 91.5q11 42 16 76t5 64
q0 41 -18.5 64.5t-49.5 23.5q-28 0 -52.5 -21t-43.5 -55t-32.5 -76.5t-20.5 -86.5t-7 -84q0 -47 15.5 -70.5t44.5 -23.5zM247 620q22 25 42 51.5t38 51.5t30 47h96l-1 -9q-10 -14 -29 -34.5t-42 -42.5t-44.5 -41.5t-37.5 -32.5h-52v10z" />
    <glyph glyph-name="acircumflex" unicode="&#xe2;" horiz-adv-x="466" 
d="M149 -10q-37 0 -63 18.5t-40 54t-14 86.5q0 50 9.5 104.5t28 106.5t46 94t64.5 67t82 25q27 0 47 -10t34 -28.5t22 -43.5h3l25 72h67l-114 -536h-65l8 83h-2q-19 -28 -40.5 -48.5t-45.5 -32.5t-52 -12zM175 59q35 0 62.5 27t48 70.5t32.5 91.5q11 42 16 76t5 64
q0 41 -18.5 64.5t-49.5 23.5q-28 0 -52.5 -21t-43.5 -55t-32.5 -76.5t-20.5 -86.5t-7 -84q0 -47 15.5 -70.5t44.5 -23.5zM168 618q22 22 45 48t44 52t36 49h74q5 -20 16.5 -48t24 -55.5t22.5 -45.5l-2 -11h-46q-10 12 -20.5 26.5t-21.5 31t-21 34.5q-28 -27 -54.5 -51
t-48.5 -41h-49z" />
    <glyph glyph-name="atilde" unicode="&#xe3;" horiz-adv-x="466" 
d="M149 -10q-37 0 -63 18.5t-40 54t-14 86.5q0 50 9.5 104.5t28 106.5t46 94t64.5 67t82 25q27 0 47 -10t34 -28.5t22 -43.5h3l25 72h67l-114 -536h-65l8 83h-2q-19 -28 -40.5 -48.5t-45.5 -32.5t-52 -12zM175 59q35 0 62.5 27t48 70.5t32.5 91.5q11 42 16 76t5 64
q0 41 -18.5 64.5t-49.5 23.5q-28 0 -52.5 -21t-43.5 -55t-32.5 -76.5t-20.5 -86.5t-7 -84q0 -47 15.5 -70.5t44.5 -23.5zM157 608q9 41 22.5 69t33 42.5t46.5 14.5q21 0 37.5 -8.5t30 -20t26 -20.5t25.5 -9q18 0 27.5 13t19.5 46h50q-9 -44 -24 -72t-33.5 -41t-42.5 -13
q-19 0 -35.5 9t-30 20.5t-26.5 20.5t-27 9q-18 0 -29.5 -15t-19.5 -45h-50z" />
    <glyph glyph-name="adieresis" unicode="&#xe4;" horiz-adv-x="466" 
d="M149 -10q-37 0 -63 18.5t-40 54t-14 86.5q0 50 9.5 104.5t28 106.5t46 94t64.5 67t82 25q27 0 47 -10t34 -28.5t22 -43.5h3l25 72h67l-114 -536h-65l8 83h-2q-19 -28 -40.5 -48.5t-45.5 -32.5t-52 -12zM175 59q35 0 62.5 27t48 70.5t32.5 91.5q11 42 16 76t5 64
q0 41 -18.5 64.5t-49.5 23.5q-28 0 -52.5 -21t-43.5 -55t-32.5 -76.5t-20.5 -86.5t-7 -84q0 -47 15.5 -70.5t44.5 -23.5zM386 632q-17 0 -27 9.5t-10 28.5q0 26 14 44.5t39 18.5q18 0 26.5 -9.5t8.5 -26.5q0 -29 -14.5 -47t-36.5 -18zM228 632q-17 0 -27 9.5t-10 28.5
q0 26 14 44.5t39 18.5q11 0 18.5 -4t11.5 -12t4 -20q0 -29 -14 -47t-36 -18z" />
    <glyph glyph-name="aring" unicode="&#xe5;" horiz-adv-x="466" 
d="M149 -10q-37 0 -63 18.5t-40 54t-14 86.5q0 50 9.5 104.5t28 106.5t46 94t64.5 67t82 25q27 0 47 -10t34 -28.5t22 -43.5h3l25 72h67l-114 -536h-65l8 83h-2q-19 -28 -40.5 -48.5t-45.5 -32.5t-52 -12zM175 59q35 0 62.5 27t48 70.5t32.5 91.5q11 42 16 76t5 64
q0 41 -18.5 64.5t-49.5 23.5q-28 0 -52.5 -21t-43.5 -55t-32.5 -76.5t-20.5 -86.5t-7 -84q0 -47 15.5 -70.5t44.5 -23.5zM314 608q-48 0 -75.5 27t-27.5 75q0 45 28.5 72.5t74.5 27.5q47 0 75 -27t28 -72q0 -46 -28 -74.5t-75 -28.5zM315 655q25 0 39.5 15t14.5 40
q0 24 -14.5 39.5t-39.5 15.5t-40 -15.5t-15 -39.5q0 -25 13.5 -40t41.5 -15z" />
    <glyph glyph-name="ae" unicode="&#xe6;" horiz-adv-x="677" 
d="M140 -10q-33 0 -57.5 18.5t-38 54t-13.5 86.5q0 58 11 115.5t31 108t48 89.5t63 61.5t75 22.5q23 0 42 -9t32 -26.5t21 -42.5h3l22 68h57l-14 -63q22 30 54 51.5t74 21.5q50 0 81 -29.5t31 -85.5q0 -44 -17 -79.5t-51 -61t-84 -39t-116 -13.5h-11q-3 -16 -4.5 -32.5
t-1.5 -32.5q0 -53 22 -84.5t73 -31.5q29 0 58 9.5t61 26.5l-6 -70q-32 -17 -61.5 -25t-66.5 -8q-44 0 -75 19.5t-43 56.5l-13 -66h-58l12 81h-2q-20 -28 -40.5 -49t-44.5 -31.5t-53 -10.5zM170 59q24 0 45 14.5t38 40t30.5 59.5t23.5 73q10 42 15 77.5t5 66.5q0 40 -15.5 63
t-42.5 23q-26 0 -49.5 -19.5t-42.5 -52t-33.5 -74.5t-22 -87.5t-7.5 -90.5q0 -47 14 -70t42 -23zM400 302q59 0 100.5 14.5t63 42.5t21.5 66q0 26 -13.5 40t-38.5 14q-30 0 -56 -22.5t-46.5 -62t-35.5 -92.5h5z" />
    <glyph glyph-name="ccedilla" unicode="&#xe7;" horiz-adv-x="358" 
d="M181 -10q-46 0 -80 19.5t-51.5 58t-17.5 95.5q0 51 9.5 104.5t29 103.5t49 89t69.5 62.5t90 23.5q29 0 54.5 -6t47.5 -18l-29 -67q-15 9 -34 15t-39 6q-41 0 -71.5 -28.5t-51 -74.5t-31.5 -100t-11 -104q0 -36 9.5 -60.5t28 -37t44.5 -12.5q24 0 47.5 8.5t48.5 21.5v-70
q-22 -12 -50.5 -20.5t-60.5 -8.5zM90 -240q-15 0 -30 1.5t-27 4.5v52q8 -3 20.5 -4.5t27.5 -1.5q24 0 40.5 6.5t25 19.5t8.5 30q0 22 -17.5 34t-50.5 16l50 82h50l-33 -53q29 -7 48 -25.5t19 -50.5q0 -34 -16.5 -59t-45.5 -38.5t-69 -13.5z" />
    <glyph glyph-name="egrave" unicode="&#xe8;" horiz-adv-x="417" 
d="M187 -10q-49 0 -84 20.5t-53.5 60t-18.5 94.5q0 76 18 144.5t50.5 122t77 84t98.5 30.5q57 0 89 -29.5t32 -85.5q0 -43 -17 -78.5t-51 -61t-84 -39.5t-116 -14h-10q-3 -16 -4.5 -32.5t-1.5 -32.5q0 -58 23 -87t70 -29q31 0 57 8.5t59 25.5v-68q-30 -16 -62 -24.5
t-72 -8.5zM134 302q60 0 101 14.5t62.5 42t21.5 67.5q0 24 -13 38.5t-41 14.5q-27 0 -53.5 -22.5t-47.5 -62t-34 -92.5h4zM276 606q-15 18 -33.5 45.5t-35 56t-24.5 49.5v8h91q7 -23 14.5 -48t17.5 -50t21 -50v-11h-51z" />
    <glyph glyph-name="eacute" unicode="&#xe9;" horiz-adv-x="417" 
d="M187 -10q-49 0 -84 20.5t-53.5 60t-18.5 94.5q0 76 18 144.5t50.5 122t77 84t98.5 30.5q57 0 89 -29.5t32 -85.5q0 -43 -17 -78.5t-51 -61t-84 -39.5t-116 -14h-10q-3 -16 -4.5 -32.5t-1.5 -32.5q0 -58 23 -87t70 -29q31 0 57 8.5t59 25.5v-68q-30 -16 -62 -24.5
t-72 -8.5zM134 302q60 0 101 14.5t62.5 42t21.5 67.5q0 24 -13 38.5t-41 14.5q-27 0 -53.5 -22.5t-47.5 -62t-34 -92.5h4zM224 615q22 25 42 51.5t38 51.5t30 47h96l-1 -9q-10 -14 -29 -34.5t-42 -42.5t-44.5 -41.5t-37.5 -32.5h-52v10z" />
    <glyph glyph-name="ecircumflex" unicode="&#xea;" horiz-adv-x="417" 
d="M187 -10q-49 0 -84 20.5t-53.5 60t-18.5 94.5q0 76 18 144.5t50.5 122t77 84t98.5 30.5q57 0 89 -29.5t32 -85.5q0 -43 -17 -78.5t-51 -61t-84 -39.5t-116 -14h-10q-3 -16 -4.5 -32.5t-1.5 -32.5q0 -58 23 -87t70 -29q31 0 57 8.5t59 25.5v-68q-30 -16 -62 -24.5
t-72 -8.5zM134 302q60 0 101 14.5t62.5 42t21.5 67.5q0 24 -13 38.5t-41 14.5q-27 0 -53.5 -22.5t-47.5 -62t-34 -92.5h4zM151 617q22 22 45 48t44 52t36 49h74q5 -20 16.5 -48t24 -55.5t22.5 -45.5l-2 -11h-46q-10 12 -20.5 26.5t-21.5 31t-21 34.5q-28 -27 -54.5 -51
t-48.5 -41h-49z" />
    <glyph glyph-name="edieresis" unicode="&#xeb;" horiz-adv-x="417" 
d="M187 -10q-49 0 -84 20.5t-53.5 60t-18.5 94.5q0 76 18 144.5t50.5 122t77 84t98.5 30.5q57 0 89 -29.5t32 -85.5q0 -43 -17 -78.5t-51 -61t-84 -39.5t-116 -14h-10q-3 -16 -4.5 -32.5t-1.5 -32.5q0 -58 23 -87t70 -29q31 0 57 8.5t59 25.5v-68q-30 -16 -62 -24.5
t-72 -8.5zM134 302q60 0 101 14.5t62.5 42t21.5 67.5q0 24 -13 38.5t-41 14.5q-27 0 -53.5 -22.5t-47.5 -62t-34 -92.5h4zM370 631q-17 0 -27 9.5t-10 28.5q0 26 14 44.5t39 18.5q18 0 26.5 -9.5t8.5 -26.5q0 -29 -14.5 -47t-36.5 -18zM212 631q-17 0 -27 9.5t-10 28.5
q0 26 14 44.5t39 18.5q11 0 18.5 -4t11.5 -12t4 -20q0 -29 -14 -47t-36 -18z" />
    <glyph glyph-name="igrave" unicode="&#xec;" horiz-adv-x="212" 
d="M8 0l114 536h80l-114 -536h-80zM172 611q-15 18 -33.5 45.5t-35 56t-24.5 49.5v8h91q7 -23 14.5 -48t17.5 -50t21 -50v-11h-51z" />
    <glyph glyph-name="iacute" unicode="&#xed;" horiz-adv-x="212" 
d="M8 0l114 536h80l-114 -536h-80zM120 620q22 25 42 51.5t38 51.5t30 47h96l-1 -9q-10 -14 -29 -34.5t-42 -42.5t-44.5 -41.5t-37.5 -32.5h-52v10z" />
    <glyph glyph-name="icircumflex" unicode="&#xee;" horiz-adv-x="212" 
d="M8 0l114 536h80l-114 -536h-80zM39 617q22 22 45 48t44 52t36 49h74q5 -20 16.5 -48t24 -55.5t22.5 -45.5l-2 -11h-46q-10 12 -20.5 26.5t-21.5 31t-21 34.5q-28 -27 -54.5 -51t-48.5 -41h-49z" />
    <glyph glyph-name="idieresis" unicode="&#xef;" horiz-adv-x="212" 
d="M8 0l114 536h80l-114 -536h-80zM257 631q-17 0 -27 9.5t-10 28.5q0 26 14 44.5t39 18.5q18 0 26.5 -9.5t8.5 -26.5q0 -29 -14.5 -47t-36.5 -18zM99 631q-17 0 -27 9.5t-10 28.5q0 26 14 44.5t39 18.5q11 0 18.5 -4t11.5 -12t4 -20q0 -29 -14 -47t-36 -18z" />
    <glyph glyph-name="eth" unicode="&#xf0;" horiz-adv-x="454" 
d="M170 -10q-47 0 -81 19.5t-51.5 57.5t-17.5 92q0 51 14 106t42 102.5t70 77t97 29.5q44 0 66.5 -24.5t32.5 -56.5h2q0 67 -12 123t-49 102l-108 -64l-26 45l102 60q-11 14 -29 29t-40 30l42 49q23 -14 45.5 -31.5t43.5 -38.5l106 63l28 -43l-101 -60q23 -33 39 -70.5
t24 -79.5t8 -91q0 -52 -7.5 -110.5t-24.5 -114.5t-45.5 -101.5t-70.5 -72.5t-99 -27zM176 59q30 0 53.5 15.5t41 42t29 58t17 64.5t5.5 61q0 23 -4.5 42t-13.5 33t-23.5 22t-34.5 8q-36 0 -62.5 -22.5t-45 -58.5t-27.5 -78.5t-9 -83.5q0 -50 18.5 -76.5t55.5 -26.5z" />
    <glyph glyph-name="ntilde" unicode="&#xf1;" horiz-adv-x="461" 
d="M6 0l115 537h67l-10 -80h2q17 26 37 46t45.5 32t54.5 12q33 0 57 -12t38 -37t14 -62q0 -22 -4.5 -48t-8.5 -50l-73 -338h-82l71 334q5 24 9 47t4 40q0 26 -12.5 39t-38.5 13q-31 0 -58 -22t-49 -66.5t-37 -113.5l-58 -271h-83zM153 608q9 41 22.5 69t33 42.5t46.5 14.5
q21 0 37.5 -8.5t30 -20t26 -20.5t25.5 -9q18 0 27.5 13t19.5 46h50q-9 -44 -24 -72t-33.5 -41t-42.5 -13q-19 0 -35.5 9t-30 20.5t-26.5 20.5t-27 9q-18 0 -29.5 -15t-19.5 -45h-50z" />
    <glyph glyph-name="ograve" unicode="&#xf2;" horiz-adv-x="454" 
d="M181 -9q-46 0 -80 20t-51.5 59.5t-17.5 95.5q0 43 8.5 94t27 101.5t46.5 92t68 66.5t91 25q47 0 80.5 -20.5t51 -60t17.5 -96.5q0 -49 -9.5 -101.5t-28 -102t-47.5 -88.5t-68 -62t-88 -23zM189 60q27 0 50.5 18.5t42 51t31.5 73t20 84.5t7 86q0 30 -8 53.5t-23.5 36.5
t-41.5 13q-31 0 -55.5 -20.5t-43 -55t-30.5 -75.5t-18.5 -83t-6.5 -78q0 -50 19.5 -77t56.5 -27zM287 606q-15 18 -33.5 45.5t-35 56t-24.5 49.5v8h91q7 -23 14.5 -48t17.5 -50t21 -50v-11h-51z" />
    <glyph glyph-name="oacute" unicode="&#xf3;" horiz-adv-x="454" 
d="M181 -9q-46 0 -80 20t-51.5 59.5t-17.5 95.5q0 43 8.5 94t27 101.5t46.5 92t68 66.5t91 25q47 0 80.5 -20.5t51 -60t17.5 -96.5q0 -49 -9.5 -101.5t-28 -102t-47.5 -88.5t-68 -62t-88 -23zM189 60q27 0 50.5 18.5t42 51t31.5 73t20 84.5t7 86q0 30 -8 53.5t-23.5 36.5
t-41.5 13q-31 0 -55.5 -20.5t-43 -55t-30.5 -75.5t-18.5 -83t-6.5 -78q0 -50 19.5 -77t56.5 -27zM235 615q22 25 42 51.5t38 51.5t30 47h96l-1 -9q-10 -14 -29 -34.5t-42 -42.5t-44.5 -41.5t-37.5 -32.5h-52v10z" />
    <glyph glyph-name="ocircumflex" unicode="&#xf4;" horiz-adv-x="454" 
d="M181 -9q-46 0 -80 20t-51.5 59.5t-17.5 95.5q0 43 8.5 94t27 101.5t46.5 92t68 66.5t91 25q47 0 80.5 -20.5t51 -60t17.5 -96.5q0 -49 -9.5 -101.5t-28 -102t-47.5 -88.5t-68 -62t-88 -23zM189 60q27 0 50.5 18.5t42 51t31.5 73t20 84.5t7 86q0 30 -8 53.5t-23.5 36.5
t-41.5 13q-31 0 -55.5 -20.5t-43 -55t-30.5 -75.5t-18.5 -83t-6.5 -78q0 -50 19.5 -77t56.5 -27zM153 617q22 22 45 48t44 52t36 49h74q5 -20 16.5 -48t24 -55.5t22.5 -45.5l-2 -11h-46q-10 12 -20.5 26.5t-21.5 31t-21 34.5q-28 -27 -54.5 -51t-48.5 -41h-49z" />
    <glyph glyph-name="otilde" unicode="&#xf5;" horiz-adv-x="454" 
d="M181 -9q-46 0 -80 20t-51.5 59.5t-17.5 95.5q0 43 8.5 94t27 101.5t46.5 92t68 66.5t91 25q47 0 80.5 -20.5t51 -60t17.5 -96.5q0 -49 -9.5 -101.5t-28 -102t-47.5 -88.5t-68 -62t-88 -23zM189 60q27 0 50.5 18.5t42 51t31.5 73t20 84.5t7 86q0 30 -8 53.5t-23.5 36.5
t-41.5 13q-31 0 -55.5 -20.5t-43 -55t-30.5 -75.5t-18.5 -83t-6.5 -78q0 -50 19.5 -77t56.5 -27zM137 607q9 41 22.5 69t33 42.5t46.5 14.5q21 0 37.5 -8.5t30 -20t26 -20.5t25.5 -9q18 0 27.5 13t19.5 46h50q-9 -44 -24 -72t-33.5 -41t-42.5 -13q-19 0 -35.5 9t-30 20.5
t-26.5 20.5t-27 9q-18 0 -29.5 -15t-19.5 -45h-50z" />
    <glyph glyph-name="odieresis" unicode="&#xf6;" horiz-adv-x="454" 
d="M181 -9q-46 0 -80 20t-51.5 59.5t-17.5 95.5q0 43 8.5 94t27 101.5t46.5 92t68 66.5t91 25q47 0 80.5 -20.5t51 -60t17.5 -96.5q0 -49 -9.5 -101.5t-28 -102t-47.5 -88.5t-68 -62t-88 -23zM189 60q27 0 50.5 18.5t42 51t31.5 73t20 84.5t7 86q0 30 -8 53.5t-23.5 36.5
t-41.5 13q-31 0 -55.5 -20.5t-43 -55t-30.5 -75.5t-18.5 -83t-6.5 -78q0 -50 19.5 -77t56.5 -27zM369 631q-17 0 -27 9.5t-10 28.5q0 26 14 44.5t39 18.5q18 0 26.5 -9.5t8.5 -26.5q0 -29 -14.5 -47t-36.5 -18zM211 631q-17 0 -27 9.5t-10 28.5q0 26 14 44.5t39 18.5
q11 0 18.5 -4t11.5 -12t4 -20q0 -29 -14 -47t-36 -18z" />
    <glyph glyph-name="divide" unicode="&#xf7;" horiz-adv-x="473" 
d="M49 318v69h399v-69h-399zM250 115q-25 0 -39 15t-14 46q0 32 14 47t39 15q23 0 36.5 -15t13.5 -47q0 -31 -14 -46t-36 -15zM250 467q-25 0 -39 15t-14 47t14 46.5t39 14.5q23 0 36.5 -14.5t13.5 -46.5t-14 -47t-36 -15z" />
    <glyph glyph-name="oslash" unicode="&#xf8;" horiz-adv-x="454" 
d="M43 -53l-44 30l57 83q-12 21 -18 47.5t-6 58.5q0 41 8.5 91.5t26.5 101t46.5 93t68 68t91.5 25.5q29 0 52 -8t41 -25l45 68l46 -30l-56 -79q10 -20 15.5 -46t5.5 -54q0 -44 -9 -95t-27 -101.5t-46.5 -92t-67.5 -66.5t-90 -25q-27 0 -49.5 7t-40.5 21zM189 57q26 0 49 17
t41 46t32 66.5t21.5 79t8.5 82.5q1 10 0.5 19.5t-1.5 16.5l-206 -301q10 -13 23.5 -19.5t31.5 -6.5zM323 448q-8 15 -22 22.5t-34 7.5q-28 0 -52 -18t-42.5 -49.5t-32 -70t-20.5 -80t-8 -79.5q0 -12 0.5 -22t2.5 -17z" />
    <glyph glyph-name="ugrave" unicode="&#xf9;" horiz-adv-x="463" 
d="M141 -10q-33 0 -57.5 13t-37 38.5t-12.5 61.5q0 19 3.5 42t7.5 44l74 347h81l-73 -342q-5 -22 -7.5 -41t-2.5 -36q0 -26 12 -41t38 -15q31 0 59 22.5t50.5 68t36.5 113.5l58 271h80l-114 -536h-65l8 77h-4q-16 -24 -36.5 -44t-45 -31.5t-53.5 -11.5zM296 606
q-15 18 -33.5 45.5t-35 56t-24.5 49.5v8h91q7 -23 14.5 -48t17.5 -50t21 -50v-11h-51z" />
    <glyph glyph-name="uacute" unicode="&#xfa;" horiz-adv-x="463" 
d="M141 -10q-33 0 -57.5 13t-37 38.5t-12.5 61.5q0 19 3.5 42t7.5 44l74 347h81l-73 -342q-5 -22 -7.5 -41t-2.5 -36q0 -26 12 -41t38 -15q31 0 59 22.5t50.5 68t36.5 113.5l58 271h80l-114 -536h-65l8 77h-4q-16 -24 -36.5 -44t-45 -31.5t-53.5 -11.5zM244 615
q22 25 42 51.5t38 51.5t30 47h96l-1 -9q-10 -14 -29 -34.5t-42 -42.5t-44.5 -41.5t-37.5 -32.5h-52v10z" />
    <glyph glyph-name="ucircumflex" unicode="&#xfb;" horiz-adv-x="463" 
d="M141 -10q-33 0 -57.5 13t-37 38.5t-12.5 61.5q0 19 3.5 42t7.5 44l74 347h81l-73 -342q-5 -22 -7.5 -41t-2.5 -36q0 -26 12 -41t38 -15q31 0 59 22.5t50.5 68t36.5 113.5l58 271h80l-114 -536h-65l8 77h-4q-16 -24 -36.5 -44t-45 -31.5t-53.5 -11.5zM164 617q22 22 45 48
t44 52t36 49h74q5 -20 16.5 -48t24 -55.5t22.5 -45.5l-2 -11h-46q-10 12 -20.5 26.5t-21.5 31t-21 34.5q-28 -27 -54.5 -51t-48.5 -41h-49z" />
    <glyph glyph-name="udieresis" unicode="&#xfc;" horiz-adv-x="463" 
d="M141 -10q-33 0 -57.5 13t-37 38.5t-12.5 61.5q0 19 3.5 42t7.5 44l74 347h81l-73 -342q-5 -22 -7.5 -41t-2.5 -36q0 -26 12 -41t38 -15q31 0 59 22.5t50.5 68t36.5 113.5l58 271h80l-114 -536h-65l8 77h-4q-16 -24 -36.5 -44t-45 -31.5t-53.5 -11.5zM377 631
q-17 0 -27 9.5t-10 28.5q0 26 14 44.5t39 18.5q18 0 26.5 -9.5t8.5 -26.5q0 -29 -14.5 -47t-36.5 -18zM219 631q-17 0 -27 9.5t-10 28.5q0 26 14 44.5t39 18.5q11 0 18.5 -4t11.5 -12t4 -20q0 -29 -14 -47t-36 -18z" />
    <glyph glyph-name="yacute" unicode="&#xfd;" horiz-adv-x="378" 
d="M-36 -241q-19 0 -32.5 3t-25.5 7l7 70q11 -4 23 -6t25 -2q32 0 53.5 23t40.5 65l38 80l-34 537h81l11 -287q1 -24 1.5 -50t0.5 -50.5t-1 -45.5h3q7 19 16 42.5t18.5 46t16.5 39.5l139 305h84l-299 -635q-21 -45 -44 -76.5t-52 -48.5t-70 -17zM197 615q22 25 42 51.5
t38 51.5t30 47h96l-1 -9q-10 -14 -29 -34.5t-42 -42.5t-44.5 -41.5t-37.5 -32.5h-52v10z" />
    <glyph glyph-name="thorn" unicode="&#xfe;" horiz-adv-x="466" 
d="M-40 -235l210 995h80l-50 -232l-9.5 -38t-8.5 -32h4q18 27 38.5 46t44.5 30.5t51 11.5q55 0 85.5 -40t30.5 -119q0 -50 -9.5 -104.5t-28 -106.5t-46 -94t-64 -67t-81.5 -25q-26 0 -47 10.5t-35 28.5t-22 42h-4q-1 -17 -4.5 -38t-6.5 -36l-49 -232h-79zM199 59
q30 0 54.5 22.5t43.5 58.5t31.5 79.5t19 86.5t6.5 78q0 47 -15.5 70.5t-45.5 23.5q-33 0 -61 -27t-49.5 -70.5t-33.5 -92.5q-7 -25 -11 -50t-6.5 -47.5t-2.5 -41.5q0 -43 17 -66.5t53 -23.5z" />
    <glyph glyph-name="ydieresis" unicode="&#xff;" horiz-adv-x="378" 
d="M-36 -241q-19 0 -32.5 3t-25.5 7l7 70q11 -4 23 -6t25 -2q32 0 53.5 23t40.5 65l38 80l-34 537h81l11 -287q1 -24 1.5 -50t0.5 -50.5t-1 -45.5h3q7 19 16 42.5t18.5 46t16.5 39.5l139 305h84l-299 -635q-21 -45 -44 -76.5t-52 -48.5t-70 -17zM329 631q-17 0 -27 9.5
t-10 28.5q0 26 14 44.5t39 18.5q18 0 26.5 -9.5t8.5 -26.5q0 -29 -14.5 -47t-36.5 -18zM171 631q-17 0 -27 9.5t-10 28.5q0 26 14 44.5t39 18.5q11 0 18.5 -4t11.5 -12t4 -20q0 -29 -14 -47t-36 -18z" />
    <glyph glyph-name="Amacron" unicode="&#x100;" horiz-adv-x="451" 
d="M-63 0l326 716h100l28 -716h-84l-8 226h-171l-100 -226h-91zM159 301h140l-2 220q-2 29 -2 57.5t1 51.5h-3q-8 -23 -18.5 -50.5t-24.5 -59.5zM196 792l13 63h248l-13 -63h-248z" />
    <glyph glyph-name="amacron" unicode="&#x101;" horiz-adv-x="466" 
d="M149 -10q-37 0 -63 18.5t-40 54t-14 86.5q0 50 9.5 104.5t28 106.5t46 94t64.5 67t82 25q27 0 47 -10t34 -28.5t22 -43.5h3l25 72h67l-114 -536h-65l8 83h-2q-19 -28 -40.5 -48.5t-45.5 -32.5t-52 -12zM175 59q35 0 62.5 27t48 70.5t32.5 91.5q11 42 16 76t5 64
q0 41 -18.5 64.5t-49.5 23.5q-28 0 -52.5 -21t-43.5 -55t-32.5 -76.5t-20.5 -86.5t-7 -84q0 -47 15.5 -70.5t44.5 -23.5zM177 610l13 63h248l-13 -63h-248z" />
    <glyph glyph-name="Abreve" unicode="&#x102;" horiz-adv-x="451" 
d="M-63 0l326 716h100l28 -716h-84l-8 226h-171l-100 -226h-91zM159 301h140l-2 220q-2 29 -2 57.5t1 51.5h-3q-8 -23 -18.5 -50.5t-24.5 -59.5zM324 789q-36 0 -59.5 12.5t-35.5 35.5t-12 54q0 9 0.5 17t1.5 14h51q0 -23 6 -38.5t19 -22.5t34 -7q34 0 53.5 16.5t28.5 51.5
h52q-13 -66 -48 -99.5t-91 -33.5z" />
    <glyph glyph-name="abreve" unicode="&#x103;" horiz-adv-x="466" 
d="M149 -10q-37 0 -63 18.5t-40 54t-14 86.5q0 50 9.5 104.5t28 106.5t46 94t64.5 67t82 25q27 0 47 -10t34 -28.5t22 -43.5h3l25 72h67l-114 -536h-65l8 83h-2q-19 -28 -40.5 -48.5t-45.5 -32.5t-52 -12zM175 59q35 0 62.5 27t48 70.5t32.5 91.5q11 42 16 76t5 64
q0 41 -18.5 64.5t-49.5 23.5q-28 0 -52.5 -21t-43.5 -55t-32.5 -76.5t-20.5 -86.5t-7 -84q0 -47 15.5 -70.5t44.5 -23.5zM305 607q-36 0 -59.5 12.5t-35.5 35.5t-12 54q0 9 0.5 17t1.5 14h51q0 -23 6 -38.5t19 -22.5t34 -7q34 0 53.5 16.5t28.5 51.5h52q-13 -66 -48 -99.5
t-91 -33.5z" />
    <glyph glyph-name="Aogonek" unicode="&#x104;" horiz-adv-x="451" 
d="M-63 0l326 716h100l28 -716h-84l-8 226h-171l-100 -226h-91zM159 301h140l-2 220q-2 29 -2 57.5t1 51.5h-3q-8 -23 -18.5 -50.5t-24.5 -59.5zM294 -222q-37 0 -57.5 20t-20.5 54q0 29 11.5 54t34 48t55.5 46h55q-26 -23 -45.5 -44.5t-30 -42.5t-10.5 -44q0 -16 8.5 -25
t24.5 -9q9 0 18.5 2t19.5 4l-9 -55q-12 -4 -25.5 -6t-28.5 -2z" />
    <glyph glyph-name="aogonek" unicode="&#x105;" horiz-adv-x="466" 
d="M149 -10q-37 0 -63 18.5t-40 54t-14 86.5q0 50 9.5 104.5t28 106.5t46 94t64.5 67t82 25q27 0 47 -10t34 -28.5t22 -43.5h3l25 72h67l-114 -536h-65l8 83h-2q-19 -28 -40.5 -48.5t-45.5 -32.5t-52 -12zM175 59q35 0 62.5 27t48 70.5t32.5 91.5q11 42 16 76t5 64
q0 41 -18.5 64.5t-49.5 23.5q-28 0 -52.5 -21t-43.5 -55t-32.5 -76.5t-20.5 -86.5t-7 -84q0 -47 15.5 -70.5t44.5 -23.5zM260 -222q-37 0 -57.5 20t-20.5 54q0 29 11.5 54t34 48t55.5 46h55q-26 -23 -45.5 -44.5t-30 -42.5t-10.5 -44q0 -16 8.5 -25t24.5 -9q9 0 18.5 2
t19.5 4l-9 -55q-12 -4 -25.5 -6t-28.5 -2z" />
    <glyph glyph-name="Cacute" unicode="&#x106;" horiz-adv-x="446" 
d="M235 -10q-61 0 -103 28t-63.5 82t-21.5 133q0 61 13 129t39 132t66 116t93 83.5t120 31.5q40 0 73 -9t61 -28l-41 -68q-19 14 -42.5 22t-51.5 8q-50 0 -89 -28t-68.5 -73.5t-48.5 -100.5t-28.5 -110t-9.5 -100q0 -87 30 -130.5t89 -43.5q29 0 57 7.5t57 18.5v-75
q-31 -13 -63 -19t-68 -6zM300 798q22 25 42 51.5t38 51.5t30 47h96l-1 -9q-10 -14 -29 -34.5t-42 -42.5t-44.5 -41.5t-37.5 -32.5h-52v10z" />
    <glyph glyph-name="cacute" unicode="&#x107;" horiz-adv-x="358" 
d="M181 -10q-46 0 -80 19.5t-51.5 58t-17.5 95.5q0 51 9.5 104.5t29 103.5t49 89t69.5 62.5t90 23.5q29 0 54.5 -6t47.5 -18l-29 -67q-15 9 -34 15t-39 6q-41 0 -71.5 -28.5t-51 -74.5t-31.5 -100t-11 -104q0 -36 9.5 -60.5t28 -37t44.5 -12.5q24 0 47.5 8.5t48.5 21.5v-70
q-22 -12 -50.5 -20.5t-60.5 -8.5zM200 620q22 25 42 51.5t38 51.5t30 47h96l-1 -9q-10 -14 -29 -34.5t-42 -42.5t-44.5 -41.5t-37.5 -32.5h-52v10z" />
    <glyph glyph-name="Ccircumflex" unicode="&#x108;" horiz-adv-x="446" 
d="M235 -10q-61 0 -103 28t-63.5 82t-21.5 133q0 61 13 129t39 132t66 116t93 83.5t120 31.5q40 0 73 -9t61 -28l-41 -68q-19 14 -42.5 22t-51.5 8q-50 0 -89 -28t-68.5 -73.5t-48.5 -100.5t-28.5 -110t-9.5 -100q0 -87 30 -130.5t89 -43.5q29 0 57 7.5t57 18.5v-75
q-31 -13 -63 -19t-68 -6zM241 786q22 22 45 48t44 52t36 49h74q5 -20 16.5 -48t24 -55.5t22.5 -45.5l-2 -11h-46q-10 12 -20.5 26.5t-21.5 31t-21 34.5q-28 -27 -54.5 -51t-48.5 -41h-49z" />
    <glyph glyph-name="ccircumflex" unicode="&#x109;" horiz-adv-x="358" 
d="M181 -10q-46 0 -80 19.5t-51.5 58t-17.5 95.5q0 51 9.5 104.5t29 103.5t49 89t69.5 62.5t90 23.5q29 0 54.5 -6t47.5 -18l-29 -67q-15 9 -34 15t-39 6q-41 0 -71.5 -28.5t-51 -74.5t-31.5 -100t-11 -104q0 -36 9.5 -60.5t28 -37t44.5 -12.5q24 0 47.5 8.5t48.5 21.5v-70
q-22 -12 -50.5 -20.5t-60.5 -8.5zM138 617q22 22 45 48t44 52t36 49h74q5 -20 16.5 -48t24 -55.5t22.5 -45.5l-2 -11h-46q-10 12 -20.5 26.5t-21.5 31t-21 34.5q-28 -27 -54.5 -51t-48.5 -41h-49z" />
    <glyph glyph-name="Cdotaccent" unicode="&#x10a;" horiz-adv-x="446" 
d="M235 -10q-61 0 -103 28t-63.5 82t-21.5 133q0 61 13 129t39 132t66 116t93 83.5t120 31.5q40 0 73 -9t61 -28l-41 -68q-19 14 -42.5 22t-51.5 8q-50 0 -89 -28t-68.5 -73.5t-48.5 -100.5t-28.5 -110t-9.5 -100q0 -87 30 -130.5t89 -43.5q29 0 57 7.5t57 18.5v-75
q-31 -13 -63 -19t-68 -6zM393 798q-19 0 -30.5 11.5t-11.5 30.5q0 27 15 48t42 21q14 0 23 -5t13.5 -14t4.5 -23q0 -29 -16 -49t-40 -20z" />
    <glyph glyph-name="cdotaccent" unicode="&#x10b;" horiz-adv-x="358" 
d="M181 -10q-46 0 -80 19.5t-51.5 58t-17.5 95.5q0 51 9.5 104.5t29 103.5t49 89t69.5 62.5t90 23.5q29 0 54.5 -6t47.5 -18l-29 -67q-15 9 -34 15t-39 6q-41 0 -71.5 -28.5t-51 -74.5t-31.5 -100t-11 -104q0 -36 9.5 -60.5t28 -37t44.5 -12.5q24 0 47.5 8.5t48.5 21.5v-70
q-22 -12 -50.5 -20.5t-60.5 -8.5zM291 626q-19 0 -30.5 11.5t-11.5 30.5q0 27 15 48t42 21q14 0 23 -5t13.5 -14t4.5 -23q0 -29 -16 -49t-40 -20z" />
    <glyph glyph-name="Ccaron" unicode="&#x10c;" horiz-adv-x="446" 
d="M235 -10q-61 0 -103 28t-63.5 82t-21.5 133q0 61 13 129t39 132t66 116t93 83.5t120 31.5q40 0 73 -9t61 -28l-41 -68q-19 14 -42.5 22t-51.5 8q-50 0 -89 -28t-68.5 -73.5t-48.5 -100.5t-28.5 -110t-9.5 -100q0 -87 30 -130.5t89 -43.5q29 0 57 7.5t57 18.5v-75
q-31 -13 -63 -19t-68 -6zM346 775q-6 20 -17.5 48t-23.5 56t-22 45l1 11h47q8 -9 18 -23.5t21.5 -31.5t23.5 -37q28 28 54 51.5t49 40.5h49l-1 -11q-16 -16 -41 -43.5t-48.5 -56.5t-35.5 -49h-74z" />
    <glyph glyph-name="ccaron" unicode="&#x10d;" horiz-adv-x="358" 
d="M181 -10q-46 0 -80 19.5t-51.5 58t-17.5 95.5q0 51 9.5 104.5t29 103.5t49 89t69.5 62.5t90 23.5q29 0 54.5 -6t47.5 -18l-29 -67q-15 9 -34 15t-39 6q-41 0 -71.5 -28.5t-51 -74.5t-31.5 -100t-11 -104q0 -36 9.5 -60.5t28 -37t44.5 -12.5q24 0 47.5 8.5t48.5 21.5v-70
q-22 -12 -50.5 -20.5t-60.5 -8.5zM241 606q-6 20 -17.5 48t-23.5 56t-22 45l1 11h47q8 -9 18 -23.5t21.5 -31.5t23.5 -37q28 28 54 51.5t49 40.5h49l-1 -11q-16 -16 -41 -43.5t-48.5 -56.5t-35.5 -49h-74z" />
    <glyph glyph-name="Dcaron" unicode="&#x10e;" horiz-adv-x="526" 
d="M12 0l151 714h133q101 0 155.5 -58.5t54.5 -174.5q0 -68 -13.5 -136.5t-41 -130.5t-70 -110t-100.5 -76t-133 -28h-136zM158 74q53 0 95 24t73 65t51.5 93t30.5 109t10 113q0 84 -34.5 123t-97.5 39h-55l-121 -566h48zM301 775q-6 20 -17.5 48t-23.5 56t-22 45l1 11h47
q8 -9 18 -23.5t21.5 -31.5t23.5 -37q28 28 54 51.5t49 40.5h49l-1 -11q-16 -16 -41 -43.5t-48.5 -56.5t-35.5 -49h-74z" />
    <glyph glyph-name="dcaron" unicode="&#x10f;" horiz-adv-x="528" 
d="M514 610q13 25 24 51.5t20.5 52t15.5 46.5h79v-10q-7 -19 -23 -47t-34.5 -55.5t-34.5 -47.5h-47v10zM147 -10q-36 0 -62 18.5t-40 53.5t-14 87q0 49 9 103t28 106t46.5 94.5t63.5 68t81 25.5q27 0 48 -10t35.5 -27.5t21.5 -41.5h4q3 19 6 37t6 35.5t7 34.5l39 186h80
l-161 -760h-65l7 81h-2q-20 -27 -41 -47.5t-44.5 -32t-52.5 -11.5zM175 59q25 0 47 16t40 44t32.5 62.5t24 72t15 72.5t5.5 63q0 41 -16.5 64t-53.5 23q-29 0 -53.5 -21.5t-43 -57t-31.5 -78.5t-20 -86.5t-7 -81.5q0 -46 15.5 -69t45.5 -23z" />
    <glyph glyph-name="Dcroat" unicode="&#x110;" horiz-adv-x="526" 
d="M26 331l15 69h245l-15 -69h-245zM12 0l151 714h133q101 0 155.5 -58.5t54.5 -174.5q0 -68 -13.5 -136.5t-41 -130.5t-70 -110t-100.5 -76t-133 -28h-136zM158 74q53 0 95 24t73 65t51.5 93t30.5 109t10 113q0 84 -34.5 123t-97.5 39h-55l-121 -566h48z" />
    <glyph glyph-name="dcroat" unicode="&#x111;" horiz-adv-x="469" 
d="M147 -10q-36 0 -62 18.5t-40 53.5t-14 87q0 48 9 102.5t27.5 107t46 94.5t63.5 67.5t81 25.5q27 0 48.5 -9.5t36 -27.5t21.5 -41h4q2 14 4.5 29.5l5 31t5.5 29.5l11 51h-120l13 62h121l18 89h80l-18 -89h62l-13 -62h-63l-129 -609h-65l7 81h-2q-20 -27 -41 -47.5
t-44.5 -32t-52.5 -11.5zM175 59q25 0 47 16t40 44t32.5 62.5t24 72t15 72.5t5.5 63q0 42 -17 64.5t-53 22.5q-29 0 -53.5 -21.5t-43.5 -57t-32 -78t-19.5 -86.5t-6.5 -82q0 -46 15.5 -69t45.5 -23z" />
    <glyph glyph-name="Emacron" unicode="&#x112;" horiz-adv-x="410" 
d="M12 0l151 714h290l-15 -74h-208l-48 -230h193l-15 -74h-194l-56 -262h208l-16 -74h-290zM192 778l13 63h248l-13 -63h-248z" />
    <glyph glyph-name="emacron" unicode="&#x113;" horiz-adv-x="417" 
d="M187 -10q-49 0 -84 20.5t-53.5 60t-18.5 94.5q0 76 18 144.5t50.5 122t77 84t98.5 30.5q57 0 89 -29.5t32 -85.5q0 -43 -17 -78.5t-51 -61t-84 -39.5t-116 -14h-10q-3 -16 -4.5 -32.5t-1.5 -32.5q0 -58 23 -87t70 -29q31 0 57 8.5t59 25.5v-68q-30 -16 -62 -24.5
t-72 -8.5zM134 302q60 0 101 14.5t62.5 42t21.5 67.5q0 24 -13 38.5t-41 14.5q-27 0 -53.5 -22.5t-47.5 -62t-34 -92.5h4zM163 609l13 63h248l-13 -63h-248z" />
    <glyph glyph-name="Ebreve" unicode="&#x114;" horiz-adv-x="410" 
d="M12 0l151 714h290l-15 -74h-208l-48 -230h193l-15 -74h-194l-56 -262h208l-16 -74h-290zM320 775q-36 0 -59.5 12.5t-35.5 35.5t-12 54q0 9 0.5 17t1.5 14h51q0 -23 6 -38.5t19 -22.5t34 -7q34 0 53.5 16.5t28.5 51.5h52q-13 -66 -48 -99.5t-91 -33.5z" />
    <glyph glyph-name="ebreve" unicode="&#x115;" horiz-adv-x="417" 
d="M187 -10q-49 0 -84 20.5t-53.5 60t-18.5 94.5q0 76 18 144.5t50.5 122t77 84t98.5 30.5q57 0 89 -29.5t32 -85.5q0 -43 -17 -78.5t-51 -61t-84 -39.5t-116 -14h-10q-3 -16 -4.5 -32.5t-1.5 -32.5q0 -58 23 -87t70 -29q31 0 57 8.5t59 25.5v-68q-30 -16 -62 -24.5
t-72 -8.5zM134 302q60 0 101 14.5t62.5 42t21.5 67.5q0 24 -13 38.5t-41 14.5q-27 0 -53.5 -22.5t-47.5 -62t-34 -92.5h4zM297 606q-36 0 -59.5 12.5t-35.5 35.5t-12 54q0 9 0.5 17t1.5 14h51q0 -23 6 -38.5t19 -22.5t34 -7q34 0 53.5 16.5t28.5 51.5h52q-13 -66 -48 -99.5
t-91 -33.5z" />
    <glyph glyph-name="Edotaccent" unicode="&#x116;" horiz-adv-x="410" 
d="M12 0l151 714h290l-15 -74h-208l-48 -230h193l-15 -74h-194l-56 -262h208l-16 -74h-290zM328 785q-19 0 -30.5 11.5t-11.5 30.5q0 27 15 48t42 21q14 0 23 -5t13.5 -14t4.5 -23q0 -29 -16 -49t-40 -20z" />
    <glyph glyph-name="edotaccent" unicode="&#x117;" horiz-adv-x="417" 
d="M187 -10q-49 0 -84 20.5t-53.5 60t-18.5 94.5q0 76 18 144.5t50.5 122t77 84t98.5 30.5q57 0 89 -29.5t32 -85.5q0 -43 -17 -78.5t-51 -61t-84 -39.5t-116 -14h-10q-3 -16 -4.5 -32.5t-1.5 -32.5q0 -58 23 -87t70 -29q31 0 57 8.5t59 25.5v-68q-30 -16 -62 -24.5
t-72 -8.5zM134 302q60 0 101 14.5t62.5 42t21.5 67.5q0 24 -13 38.5t-41 14.5q-27 0 -53.5 -22.5t-47.5 -62t-34 -92.5h4zM304 626q-19 0 -30.5 11.5t-11.5 30.5q0 27 15 48t42 21q14 0 23 -5t13.5 -14t4.5 -23q0 -29 -16 -49t-40 -20z" />
    <glyph glyph-name="Eogonek" unicode="&#x118;" horiz-adv-x="410" 
d="M12 0l151 714h290l-15 -74h-208l-48 -230h193l-15 -74h-194l-56 -262h208l-16 -74h-290zM194 -222q-37 0 -57.5 20t-20.5 54q0 29 11.5 54t34 48t55.5 46h55q-26 -23 -45.5 -44.5t-30 -42.5t-10.5 -44q0 -16 8.5 -25t24.5 -9q9 0 18.5 2t19.5 4l-9 -55q-12 -4 -25.5 -6
t-28.5 -2z" />
    <glyph glyph-name="eogonek" unicode="&#x119;" horiz-adv-x="417" 
d="M216 -212q-37 0 -57 20.5t-20 54.5q0 29 11.5 53.5t33.5 47.5t55 46l70 9q-31 -23 -53 -47t-34 -47t-12 -46q0 -16 8.5 -24.5t22.5 -8.5q9 0 18.5 1.5t18.5 3.5l-8 -55q-12 -4 -25.5 -6t-28.5 -2zM187 -10q-49 0 -84 20.5t-53.5 60t-18.5 94.5q0 76 18 144.5t50.5 122
t77 84t98.5 30.5q57 0 89 -29.5t32 -85.5q0 -43 -17 -78.5t-51 -61t-84 -39.5t-116 -14h-10q-3 -16 -4.5 -32.5t-1.5 -32.5q0 -58 23 -87t70 -29q31 0 57 8.5t59 25.5v-68q-30 -16 -62 -24.5t-72 -8.5zM134 302q60 0 101 14.5t62.5 42t21.5 67.5q0 24 -13 38.5t-41 14.5
q-27 0 -53.5 -22.5t-47.5 -62t-34 -92.5h4z" />
    <glyph glyph-name="Ecaron" unicode="&#x11a;" horiz-adv-x="410" 
d="M12 0l151 714h290l-15 -74h-208l-48 -230h193l-15 -74h-194l-56 -262h208l-16 -74h-290zM277 775q-6 20 -17.5 48t-23.5 56t-22 45l1 11h47q8 -9 18 -23.5t21.5 -31.5t23.5 -37q28 28 54 51.5t49 40.5h49l-1 -11q-16 -16 -41 -43.5t-48.5 -56.5t-35.5 -49h-74z" />
    <glyph glyph-name="ecaron" unicode="&#x11b;" horiz-adv-x="417" 
d="M187 -10q-49 0 -84 20.5t-53.5 60t-18.5 94.5q0 76 18 144.5t50.5 122t77 84t98.5 30.5q57 0 89 -29.5t32 -85.5q0 -43 -17 -78.5t-51 -61t-84 -39.5t-116 -14h-10q-3 -16 -4.5 -32.5t-1.5 -32.5q0 -58 23 -87t70 -29q31 0 57 8.5t59 25.5v-68q-30 -16 -62 -24.5
t-72 -8.5zM134 302q60 0 101 14.5t62.5 42t21.5 67.5q0 24 -13 38.5t-41 14.5q-27 0 -53.5 -22.5t-47.5 -62t-34 -92.5h4zM247 606q-6 20 -17.5 48t-23.5 56t-22 45l1 11h47q8 -9 18 -23.5t21.5 -31.5t23.5 -37q28 28 54 51.5t49 40.5h49l-1 -11q-16 -16 -41 -43.5
t-48.5 -56.5t-35.5 -49h-74z" />
    <glyph glyph-name="Gcircumflex" unicode="&#x11c;" horiz-adv-x="548" 
d="M262 -10q-106 0 -160.5 61.5t-54.5 178.5q0 82 16 156.5t47 136.5t73.5 107t95 70t113.5 25q50 0 92 -12t75 -32l-38 -72q-32 20 -64.5 30.5t-69.5 10.5q-57 0 -103.5 -35.5t-80.5 -95t-52 -133.5t-18 -152q0 -55 15 -93t45.5 -57.5t75.5 -19.5q26 0 49.5 4t43.5 10
l48 226h-104l16 73h186l-76 -354q-41 -16 -83.5 -24.5t-86.5 -8.5zM265 786q22 22 45 48t44 52t36 49h74q5 -20 16.5 -48t24 -55.5t22.5 -45.5l-2 -11h-46q-10 12 -20.5 26.5t-21.5 31t-21 34.5q-28 -27 -54.5 -51t-48.5 -41h-49z" />
    <glyph glyph-name="gcircumflex" unicode="&#x11d;" horiz-adv-x="470" 
d="M119 -240q-37 0 -70.5 9.5t-56.5 22.5v77q15 -10 35.5 -19t45 -15t47.5 -6q55 0 88.5 33t49.5 101l8 37q3 14 8.5 36t11.5 43h-3q-18 -28 -39.5 -48t-45 -30.5t-52.5 -10.5q-35 0 -61 17.5t-40 53t-14 86.5q0 49 9.5 103.5t28 107t46.5 95t64.5 68t83.5 25.5q28 0 48 -10
t33.5 -28.5t21.5 -43.5h3l24 72h66l-120 -569q-16 -73 -45 -118.5t-72 -67t-103 -21.5zM175 59q24 0 45 16.5t39.5 43.5t33 61.5t24.5 71.5t15.5 73.5t5.5 66.5q0 39 -17 61.5t-51 22.5q-30 0 -54 -21.5t-43 -57t-32 -78.5t-20 -86.5t-7 -80.5q0 -46 15 -69.5t46 -23.5z
M153 618q22 22 45 48t44 52t36 49h74q5 -20 16.5 -48t24 -55.5t22.5 -45.5l-2 -11h-46q-10 12 -20.5 26.5t-21.5 31t-21 34.5q-28 -27 -54.5 -51t-48.5 -41h-49z" />
    <glyph glyph-name="Gbreve" unicode="&#x11e;" horiz-adv-x="548" 
d="M262 -10q-106 0 -160.5 61.5t-54.5 178.5q0 82 16 156.5t47 136.5t73.5 107t95 70t113.5 25q50 0 92 -12t75 -32l-38 -72q-32 20 -64.5 30.5t-69.5 10.5q-57 0 -103.5 -35.5t-80.5 -95t-52 -133.5t-18 -152q0 -55 15 -93t45.5 -57.5t75.5 -19.5q26 0 49.5 4t43.5 10
l48 226h-104l16 73h186l-76 -354q-41 -16 -83.5 -24.5t-86.5 -8.5zM406 775q-36 0 -59.5 12.5t-35.5 35.5t-12 54q0 9 0.5 17t1.5 14h51q0 -23 6 -38.5t19 -22.5t34 -7q34 0 53.5 16.5t28.5 51.5h52q-13 -66 -48 -99.5t-91 -33.5z" />
    <glyph glyph-name="gbreve" unicode="&#x11f;" horiz-adv-x="470" 
d="M119 -240q-37 0 -70.5 9.5t-56.5 22.5v77q15 -10 35.5 -19t45 -15t47.5 -6q55 0 88.5 33t49.5 101l8 37q3 14 8.5 36t11.5 43h-3q-18 -28 -39.5 -48t-45 -30.5t-52.5 -10.5q-35 0 -61 17.5t-40 53t-14 86.5q0 49 9.5 103.5t28 107t46.5 95t64.5 68t83.5 25.5q28 0 48 -10
t33.5 -28.5t21.5 -43.5h3l24 72h66l-120 -569q-16 -73 -45 -118.5t-72 -67t-103 -21.5zM175 59q24 0 45 16.5t39.5 43.5t33 61.5t24.5 71.5t15.5 73.5t5.5 66.5q0 39 -17 61.5t-51 22.5q-30 0 -54 -21.5t-43 -57t-32 -78.5t-20 -86.5t-7 -80.5q0 -46 15 -69.5t46 -23.5z
M288 607q-36 0 -59.5 12.5t-35.5 35.5t-12 54q0 9 0.5 17t1.5 14h51q0 -23 6 -38.5t19 -22.5t34 -7q34 0 53.5 16.5t28.5 51.5h52q-13 -66 -48 -99.5t-91 -33.5z" />
    <glyph glyph-name="Gdotaccent" unicode="&#x120;" horiz-adv-x="548" 
d="M262 -10q-106 0 -160.5 61.5t-54.5 178.5q0 82 16 156.5t47 136.5t73.5 107t95 70t113.5 25q50 0 92 -12t75 -32l-38 -72q-32 20 -64.5 30.5t-69.5 10.5q-57 0 -103.5 -35.5t-80.5 -95t-52 -133.5t-18 -152q0 -55 15 -93t45.5 -57.5t75.5 -19.5q26 0 49.5 4t43.5 10
l48 226h-104l16 73h186l-76 -354q-41 -16 -83.5 -24.5t-86.5 -8.5zM415 795q-19 0 -30.5 11.5t-11.5 30.5q0 27 15 48t42 21q14 0 23 -5t13.5 -14t4.5 -23q0 -29 -16 -49t-40 -20z" />
    <glyph glyph-name="gdotaccent" unicode="&#x121;" horiz-adv-x="470" 
d="M119 -240q-37 0 -70.5 9.5t-56.5 22.5v77q15 -10 35.5 -19t45 -15t47.5 -6q55 0 88.5 33t49.5 101l8 37q3 14 8.5 36t11.5 43h-3q-18 -28 -39.5 -48t-45 -30.5t-52.5 -10.5q-35 0 -61 17.5t-40 53t-14 86.5q0 49 9.5 103.5t28 107t46.5 95t64.5 68t83.5 25.5q28 0 48 -10
t33.5 -28.5t21.5 -43.5h3l24 72h66l-120 -569q-16 -73 -45 -118.5t-72 -67t-103 -21.5zM175 59q24 0 45 16.5t39.5 43.5t33 61.5t24.5 71.5t15.5 73.5t5.5 66.5q0 39 -17 61.5t-51 22.5q-30 0 -54 -21.5t-43 -57t-32 -78.5t-20 -86.5t-7 -80.5q0 -46 15 -69.5t46 -23.5z
M298 626q-19 0 -30.5 11.5t-11.5 30.5q0 27 15 48t42 21q14 0 23 -5t13.5 -14t4.5 -23q0 -29 -16 -49t-40 -20z" />
    <glyph glyph-name="uni0122" unicode="&#x122;" horiz-adv-x="548" 
d="M262 -10q-106 0 -160.5 61.5t-54.5 178.5q0 82 16 156.5t47 136.5t73.5 107t95 70t113.5 25q50 0 92 -12t75 -32l-38 -72q-32 20 -64.5 30.5t-69.5 10.5q-57 0 -103.5 -35.5t-80.5 -95t-52 -133.5t-18 -152q0 -55 15 -93t45.5 -57.5t75.5 -19.5q26 0 49.5 4t43.5 10
l48 226h-104l16 73h186l-76 -354q-41 -16 -83.5 -24.5t-86.5 -8.5zM131 -207q10 17 24 43t27 54t19 49h78v-10q-7 -20 -24 -48t-38 -56t-40 -46h-46v14z" />
    <glyph glyph-name="uni0123" unicode="&#x123;" horiz-adv-x="470" 
d="M246 616q9 21 25.5 48.5t37 55t38.5 46.5h47v-12q-10 -14 -24 -42t-27 -57t-20 -49h-77v10zM119 -240q-37 0 -70.5 9.5t-56.5 22.5v77q15 -10 35.5 -19t45 -15t47.5 -6q55 0 88.5 33t49.5 101l8 37q3 14 8.5 36t11.5 43h-3q-18 -28 -39.5 -48t-45 -30.5t-52.5 -10.5
q-35 0 -61 17.5t-40 53t-14 86.5q0 49 9.5 103.5t28 107t46.5 95t64.5 68t83.5 25.5q28 0 48 -10t33.5 -28.5t21.5 -43.5h3l24 72h66l-120 -569q-16 -73 -45 -118.5t-72 -67t-103 -21.5zM175 59q24 0 45 16.5t39.5 43.5t33 61.5t24.5 71.5t15.5 73.5t5.5 66.5q0 39 -17 61.5
t-51 22.5q-30 0 -54 -21.5t-43 -57t-32 -78.5t-20 -86.5t-7 -80.5q0 -46 15 -69.5t46 -23.5z" />
    <glyph glyph-name="Hcircumflex" unicode="&#x124;" horiz-adv-x="542" 
d="M13 0l151 714h82l-64 -303h230l64 303h83l-152 -714h-82l70 336h-229l-71 -336h-82zM235 786q22 22 45 48t44 52t36 49h74q5 -20 16.5 -48t24 -55.5t22.5 -45.5l-2 -11h-46q-10 12 -20.5 26.5t-21.5 31t-21 34.5q-28 -27 -54.5 -51t-48.5 -41h-49z" />
    <glyph glyph-name="hcircumflex" unicode="&#x125;" horiz-adv-x="461" 
d="M8 0l161 760h81l-43 -199q-4 -17 -8.5 -34t-8.5 -34.5t-10 -34.5h3q16 26 36 45.5t45 31t55 11.5q33 0 56.5 -13t36.5 -37.5t13 -62.5q0 -20 -4.5 -46.5t-9.5 -52.5l-71 -334h-81l70 330q6 25 9.5 48t3.5 42q0 26 -12.5 40t-39.5 14q-29 0 -56.5 -20t-49.5 -63.5
t-37 -113.5l-58 -277h-81zM85 841q22 22 45 48t44 52t36 49h74q5 -20 16.5 -48t24 -55.5t22.5 -45.5l-2 -11h-46q-10 12 -20.5 26.5t-21.5 31t-21 34.5q-28 -27 -54.5 -51t-48.5 -41h-49z" />
    <glyph glyph-name="Hbar" unicode="&#x126;" horiz-adv-x="541" 
d="M12 0l112 528h-73l13 65h73l26 121h83l-26 -121h229l26 121h84l-26 -121h71l-13 -65h-72l-112 -528h-83l71 336h-229l-71 -336h-83zM181 408h230l25 120h-230z" />
    <glyph glyph-name="hbar" unicode="&#x127;" horiz-adv-x="462" 
d="M8 0l130 609h-65l13 62h64l19 89h81l-20 -89h116l-13 -62h-116q-9 -44 -16.5 -73.5t-12.5 -49.5t-9 -35h2q17 26 36.5 45.5t45 31t54.5 11.5q33 0 57 -13t36.5 -38t12.5 -62q0 -21 -4.5 -47.5t-9.5 -51.5l-69 -327h-81l69 322q6 25 9.5 48.5t3.5 41.5q0 27 -13.5 41
t-38.5 14q-30 0 -57.5 -21t-49 -64.5t-36.5 -112.5l-57 -269h-81z" />
    <glyph glyph-name="Itilde" unicode="&#x128;" horiz-adv-x="279" 
d="M-42 0l10 46l81 17l124 588l-73 17l9 46h237l-10 -46l-80 -17l-125 -588l73 -17l-9 -46h-237zM97 791q9 41 22.5 69t33 42.5t46.5 14.5q21 0 37.5 -8.5t30 -20t26 -20.5t25.5 -9q18 0 27.5 13t19.5 46h50q-9 -44 -24 -72t-33.5 -41t-42.5 -13q-19 0 -35.5 9t-30 20.5
t-26.5 20.5t-27 9q-18 0 -29.5 -15t-19.5 -45h-50z" />
    <glyph glyph-name="itilde" unicode="&#x129;" horiz-adv-x="212" 
d="M8 0l114 536h80l-114 -536h-80zM27 607q9 41 22.5 69t33 42.5t46.5 14.5q21 0 37.5 -8.5t30 -20t26 -20.5t25.5 -9q18 0 27.5 13t19.5 46h50q-9 -44 -24 -72t-33.5 -41t-42.5 -13q-19 0 -35.5 9t-30 20.5t-26.5 20.5t-27 9q-18 0 -29.5 -15t-19.5 -45h-50z" />
    <glyph glyph-name="Imacron" unicode="&#x12a;" horiz-adv-x="279" 
d="M-42 0l10 46l81 17l124 588l-73 17l9 46h237l-10 -46l-80 -17l-125 -588l73 -17l-9 -46h-237zM116 793l13 63h248l-13 -63h-248z" />
    <glyph glyph-name="imacron" unicode="&#x12b;" horiz-adv-x="212" 
d="M8 0l114 536h80l-114 -536h-80zM48 609l13 63h248l-13 -63h-248z" />
    <glyph glyph-name="Ibreve" unicode="&#x12c;" horiz-adv-x="279" 
d="M-42 0l10 46l81 17l124 588l-73 17l9 46h237l-10 -46l-80 -17l-125 -588l73 -17l-9 -46h-237zM245 790q-36 0 -59.5 12.5t-35.5 35.5t-12 54q0 9 0.5 17t1.5 14h51q0 -23 6 -38.5t19 -22.5t34 -7q34 0 53.5 16.5t28.5 51.5h52q-13 -66 -48 -99.5t-91 -33.5z" />
    <glyph glyph-name="ibreve" unicode="&#x12d;" horiz-adv-x="212" 
d="M8 0l114 536h80l-114 -536h-80zM179 606q-36 0 -59.5 12.5t-35.5 35.5t-12 54q0 9 0.5 17t1.5 14h51q0 -23 6 -38.5t19 -22.5t34 -7q34 0 53.5 16.5t28.5 51.5h52q-13 -66 -48 -99.5t-91 -33.5z" />
    <glyph glyph-name="Iogonek" unicode="&#x12e;" horiz-adv-x="279" 
d="M-42 0l10 46l81 17l124 588l-73 17l9 46h237l-10 -46l-80 -17l-125 -588l73 -17l-9 -46h-237zM61 -222q-37 0 -57.5 20t-20.5 54q0 29 11.5 54t34 48t55.5 46h55q-26 -23 -45.5 -44.5t-30 -42.5t-10.5 -44q0 -16 8.5 -25t24.5 -9q9 0 18.5 2t19.5 4l-9 -55
q-12 -4 -25.5 -6t-28.5 -2z" />
    <glyph glyph-name="iogonek" unicode="&#x12f;" horiz-adv-x="212" 
d="M8 0l114 536h80l-114 -536h-80zM186 626q-20 0 -30.5 10.5t-10.5 30.5q0 18 6.5 34t19 26t31.5 10q20 0 30 -10t10 -30q0 -31 -16 -51t-40 -20zM10 -222q-37 0 -57.5 20t-20.5 54q0 29 11.5 54t34 48t55.5 46h55q-26 -23 -45.5 -44.5t-30 -42.5t-10.5 -44q0 -16 8.5 -25
t24.5 -9q9 0 18.5 2t19.5 4l-9 -55q-12 -4 -25.5 -6t-28.5 -2z" />
    <glyph glyph-name="Idotaccent" unicode="&#x130;" horiz-adv-x="279" 
d="M-42 0l10 46l81 17l124 588l-73 17l9 46h237l-10 -46l-80 -17l-125 -588l73 -17l-9 -46h-237zM252 810q-19 0 -30.5 11.5t-11.5 30.5q0 27 15 48t42 21q14 0 23 -5t13.5 -14t4.5 -23q0 -29 -16 -49t-40 -20z" />
    <glyph glyph-name="IJ" unicode="&#x132;" horiz-adv-x="507" 
d="M-42 0l10 46l81 17l124 588l-73 17l9 46h237l-10 -46l-80 -17l-125 -588l73 -17l-9 -46h-237zM204 -191q-23 0 -40 3t-30 9l14 73q12 -5 26 -8t28 -3q26 0 44 13.5t30.5 40.5t21.5 66l150 711h83l-153 -724q-13 -64 -37 -104t-58 -58.5t-79 -18.5z" />
    <glyph glyph-name="ij" unicode="&#x133;" horiz-adv-x="424" 
d="M8 0l114 536h80l-114 -536h-80zM186 626q-20 0 -30.5 10.5t-10.5 30.5q0 18 6.5 34t19 26t31.5 10q20 0 30 -10t10 -30q0 -31 -16 -51t-40 -20zM138 -240q-15 0 -29 2t-25 6v71q9 -4 22 -6t25 -2q22 0 36 11.5t24 37t19 69.5l124 587h80l-126 -594q-11 -54 -27.5 -95
t-45.5 -64t-77 -23zM398 626q-19 0 -30 10.5t-11 30.5q0 18 7 34t19.5 26t31.5 10t29 -10t10 -30q0 -31 -15.5 -51t-40.5 -20z" />
    <glyph glyph-name="Jcircumflex" unicode="&#x134;" horiz-adv-x="223" 
d="M-80 -191q-23 0 -40 3t-30 9l14 73q12 -5 26 -8t28 -3q26 0 44 13.5t30.5 40.5t21.5 66l150 711h83l-153 -724q-13 -64 -37 -104t-58 -58.5t-79 -18.5zM78 786q22 22 45 48t44 52t36 49h74q5 -20 16.5 -48t24 -55.5t22.5 -45.5l-2 -11h-46q-10 12 -20.5 26.5t-21.5 31
t-21 34.5q-28 -27 -54.5 -51t-48.5 -41h-49z" />
    <glyph glyph-name="jcircumflex" unicode="&#x135;" horiz-adv-x="212" 
d="M-74 -240q-15 0 -29 2t-25 6v71q9 -4 22 -6t25 -2q22 0 36 11.5t24 37t19 69.5l124 587h80l-126 -594q-11 -54 -27.5 -95t-45.5 -64t-77 -23zM38 617q22 22 45 48t44 52t36 49h74q5 -20 16.5 -48t24 -55.5t22.5 -45.5l-2 -11h-46q-10 12 -20.5 26.5t-21.5 31t-21 34.5
q-28 -27 -54.5 -51t-48.5 -41h-49z" />
    <glyph glyph-name="uni0136" unicode="&#x136;" horiz-adv-x="452" 
d="M12 0l151 714h83l-75 -353l57 80l214 273h93l-250 -323l108 -391h-90l-87 332l-63 -58l-58 -274h-83zM76 -207q10 17 24 43t27 54t19 49h78v-10q-7 -20 -24 -48t-38 -56t-40 -46h-46v14z" />
    <glyph glyph-name="uni0137" unicode="&#x137;" horiz-adv-x="401" 
d="M8 0l162 760h80l-74 -348q-8 -38 -16.5 -69.5t-16.5 -59.5h2l206 253h90l-182 -221l83 -315h-86l-64 254l-64 -64l-39 -190h-81zM53 -207q10 17 24 43t27 54t19 49h78v-10q-7 -20 -24 -48t-38 -56t-40 -46h-46v14z" />
    <glyph glyph-name="kgreenlandic" unicode="&#x138;" horiz-adv-x="402" 
d="M8 0l114 536h81l-31 -141q-6 -25 -13.5 -54t-15.5 -58h2l206 253h90l-182 -221l83 -315h-86l-64 254l-64 -64l-39 -190h-81z" />
    <glyph glyph-name="Lacute" unicode="&#x139;" horiz-adv-x="379" 
d="M12 0l151 714h83l-136 -640h205l-15 -74h-288zM217 798q22 25 42 51.5t38 51.5t30 47h96l-1 -9q-10 -14 -29 -34.5t-42 -42.5t-44.5 -41.5t-37.5 -32.5h-52v10z" />
    <glyph glyph-name="lacute" unicode="&#x13a;" horiz-adv-x="210" 
d="M8 0l162 760h80l-162 -760h-80zM166 844q22 25 42 51.5t38 51.5t30 47h96l-1 -9q-10 -14 -29 -34.5t-42 -42.5t-44.5 -41.5t-37.5 -32.5h-52v10z" />
    <glyph glyph-name="uni013B" unicode="&#x13b;" horiz-adv-x="379" 
d="M12 0l151 714h83l-136 -640h205l-15 -74h-288zM44 -207q10 17 24 43t27 54t19 49h78v-10q-7 -20 -24 -48t-38 -56t-40 -46h-46v14z" />
    <glyph glyph-name="uni013C" unicode="&#x13c;" horiz-adv-x="210" 
d="M8 0l162 760h80l-162 -760h-80zM-52 -207q10 17 24 43t27 54t19 49h78v-10q-7 -20 -24 -48t-38 -56t-40 -46h-46v14z" />
    <glyph glyph-name="Lcaron" unicode="&#x13d;" horiz-adv-x="379" 
d="M293 563q12 25 23.5 51t21 52t15.5 47h79v-10q-8 -19 -23.5 -47t-34 -55.5t-34.5 -47.5h-47v10zM12 0l151 714h83l-136 -640h205l-15 -74h-288z" />
    <glyph glyph-name="lcaron" unicode="&#x13e;" horiz-adv-x="275" 
d="M261 610q13 25 24 51.5t20.5 52t15.5 46.5h79v-10q-7 -19 -22.5 -47t-34 -55.5t-35.5 -47.5h-47v10zM8 0l162 760h80l-162 -760h-80z" />
    <glyph glyph-name="Ldot" unicode="&#x13f;" horiz-adv-x="379" 
d="M12 0l151 714h83l-136 -640h205l-15 -74h-288zM301 308q-19 0 -30.5 11.5t-11.5 30.5q0 27 15 48t42 21q14 0 23 -5t13.5 -14t4.5 -23q0 -29 -16 -49t-40 -20z" />
    <glyph glyph-name="ldot" unicode="&#x140;" horiz-adv-x="289" 
d="M8 0l162 760h80l-162 -760h-80zM261 288q-19 0 -30.5 11.5t-11.5 30.5q0 27 15 48t42 21q14 0 23 -5t13.5 -14t4.5 -23q0 -29 -16 -49t-40 -20z" />
    <glyph glyph-name="Lslash" unicode="&#x141;" horiz-adv-x="383" 
d="M17 0l56 262l-56 -32l-30 54l103 62l78 368h83l-65 -307l99 59l32 -52l-150 -92l-52 -248h205l-15 -74h-288z" />
    <glyph glyph-name="lslash" unicode="&#x142;" horiz-adv-x="229" 
d="M14 0l66 310l-58 -33l-25 54l98 56l80 373h80l-69 -326l66 38l26 -54l-109 -62l-76 -356h-79z" />
    <glyph glyph-name="Nacute" unicode="&#x143;" horiz-adv-x="571" 
d="M12 0l151 714h95l131 -575h3q5 32 11 66.5t12.5 66t11.5 55.5l82 387h80l-152 -714h-93l-133 582h-3q-3 -24 -8 -53t-10.5 -58t-11 -55t-8.5 -43l-79 -373h-79zM340 798q22 25 42 51.5t38 51.5t30 47h96l-1 -9q-10 -14 -29 -34.5t-42 -42.5t-44.5 -41.5t-37.5 -32.5h-52
v10z" />
    <glyph glyph-name="nacute" unicode="&#x144;" horiz-adv-x="461" 
d="M6 0l115 537h67l-10 -80h2q17 26 37 46t45.5 32t54.5 12q33 0 57 -12t38 -37t14 -62q0 -22 -4.5 -48t-8.5 -50l-73 -338h-82l71 334q5 24 9 47t4 40q0 26 -12.5 39t-38.5 13q-31 0 -58 -22t-49 -66.5t-37 -113.5l-58 -271h-83zM246 617q22 25 42 51.5t38 51.5t30 47h96
l-1 -9q-10 -14 -29 -34.5t-42 -42.5t-44.5 -41.5t-37.5 -32.5h-52v10z" />
    <glyph glyph-name="uni0145" unicode="&#x145;" horiz-adv-x="571" 
d="M12 0l151 714h95l131 -575h3q5 32 11 66.5t12.5 66t11.5 55.5l82 387h80l-152 -714h-93l-133 582h-3q-3 -24 -8 -53t-10.5 -58t-11 -55t-8.5 -43l-79 -373h-79zM129 -207q10 17 24 43t27 54t19 49h78v-10q-7 -20 -24 -48t-38 -56t-40 -46h-46v14z" />
    <glyph glyph-name="uni0146" unicode="&#x146;" horiz-adv-x="461" 
d="M6 0l115 537h67l-10 -80h2q17 26 37 46t45.5 32t54.5 12q33 0 57 -12t38 -37t14 -62q0 -22 -4.5 -48t-8.5 -50l-73 -338h-82l71 334q5 24 9 47t4 40q0 26 -12.5 39t-38.5 13q-31 0 -58 -22t-49 -66.5t-37 -113.5l-58 -271h-83zM75 -207q10 17 24 43t27 54t19 49h78v-10
q-7 -20 -24 -48t-38 -56t-40 -46h-46v14z" />
    <glyph glyph-name="Ncaron" unicode="&#x147;" horiz-adv-x="571" 
d="M12 0l151 714h95l131 -575h3q5 32 11 66.5t12.5 66t11.5 55.5l82 387h80l-152 -714h-93l-133 582h-3q-3 -24 -8 -53t-10.5 -58t-11 -55t-8.5 -43l-79 -373h-79zM343 775q-6 20 -17.5 48t-23.5 56t-22 45l1 11h47q8 -9 18 -23.5t21.5 -31.5t23.5 -37q28 28 54 51.5
t49 40.5h49l-1 -11q-16 -16 -41 -43.5t-48.5 -56.5t-35.5 -49h-74z" />
    <glyph glyph-name="ncaron" unicode="&#x148;" horiz-adv-x="461" 
d="M6 0l115 537h67l-10 -80h2q17 26 37 46t45.5 32t54.5 12q33 0 57 -12t38 -37t14 -62q0 -22 -4.5 -48t-8.5 -50l-73 -338h-82l71 334q5 24 9 47t4 40q0 26 -12.5 39t-38.5 13q-31 0 -58 -22t-49 -66.5t-37 -113.5l-58 -271h-83zM256 606q-6 20 -17.5 48t-23.5 56t-22 45
l1 11h47q8 -9 18 -23.5t21.5 -31.5t23.5 -37q28 28 54 51.5t49 40.5h49l-1 -11q-16 -16 -41 -43.5t-48.5 -56.5t-35.5 -49h-74z" />
    <glyph glyph-name="napostrophe" unicode="&#x149;" horiz-adv-x="515" 
d="M59 0l115 537h67l-10 -80h2q17 26 37 46t45.5 32t54.5 12q33 0 57 -12t38 -37t14 -62q0 -22 -4.5 -48t-8.5 -50l-73 -338h-82l71 334q5 24 9 47t4 40q0 26 -12.5 39t-38.5 13q-31 0 -58 -22t-49 -66.5t-37 -113.5l-58 -271h-83zM18 470q19 40 36 82t32.5 83t26.5 79h84
l4 -11q-15 -38 -34.5 -77.5t-41.5 -79t-44 -76.5h-63z" />
    <glyph glyph-name="Eng" unicode="&#x14a;" horiz-adv-x="571" 
d="M260 -190q-18 0 -36.5 3.5t-30.5 8.5l13 74q12 -5 26 -8t30 -3q24 0 42 11.5t30.5 36t18.5 62.5l-140 593h-4q-2 -16 -4.5 -34.5t-6 -38.5t-7.5 -40.5t-9 -40.5l-91 -434h-79l151 714h96l132 -563h3q3 22 7 46t9 48.5t10 49.5l88 419h81l-151 -709q-13 -62 -34.5 -106
t-56 -66.5t-87.5 -22.5z" />
    <glyph glyph-name="eng" unicode="&#x14b;" horiz-adv-x="461" 
d="M177 -240q-17 0 -30.5 2.5t-24.5 5.5v71q11 -4 23.5 -6t24.5 -2q21 0 35 11t24.5 37t19.5 70l81 385q5 24 9 47t4 40q0 26 -12.5 39.5t-39.5 13.5q-31 0 -58.5 -21.5t-49 -66t-36.5 -110.5l-58 -276h-81l114 536h65l-10 -80h4q16 26 36 46.5t45.5 32t54.5 11.5
q32 0 56.5 -12t38 -36.5t13.5 -61.5q0 -22 -4 -47t-9 -50l-85 -397q-13 -64 -31 -104t-46 -59t-73 -19z" />
    <glyph glyph-name="Omacron" unicode="&#x14c;" horiz-adv-x="563" 
d="M235 -10q-62 0 -104.5 26t-63.5 77.5t-21 126.5q0 56 9 115t26.5 115.5t44 106t61.5 87t78 59t94 21.5q91 0 138 -57.5t47 -167.5q0 -52 -8 -109t-24.5 -114t-41.5 -108.5t-59.5 -91.5t-78 -63t-97.5 -23zM240 65q36 0 65.5 20t54 54.5t43 78.5t30.5 93t18.5 97.5
t6.5 91.5q0 75 -27.5 112.5t-78.5 37.5q-38 0 -68.5 -21t-55 -56.5t-42.5 -80.5t-30 -93.5t-17.5 -94.5t-5.5 -84q0 -53 12.5 -87t36 -51t58.5 -17zM253 778l13 63h248l-13 -63h-248z" />
    <glyph glyph-name="omacron" unicode="&#x14d;" horiz-adv-x="454" 
d="M181 -9q-46 0 -80 20t-51.5 59.5t-17.5 95.5q0 43 8.5 94t27 101.5t46.5 92t68 66.5t91 25q47 0 80.5 -20.5t51 -60t17.5 -96.5q0 -49 -9.5 -101.5t-28 -102t-47.5 -88.5t-68 -62t-88 -23zM189 60q27 0 50.5 18.5t42 51t31.5 73t20 84.5t7 86q0 30 -8 53.5t-23.5 36.5
t-41.5 13q-31 0 -55.5 -20.5t-43 -55t-30.5 -75.5t-18.5 -83t-6.5 -78q0 -50 19.5 -77t56.5 -27zM160 609l13 63h248l-13 -63h-248z" />
    <glyph glyph-name="Obreve" unicode="&#x14e;" horiz-adv-x="563" 
d="M235 -10q-62 0 -104.5 26t-63.5 77.5t-21 126.5q0 56 9 115t26.5 115.5t44 106t61.5 87t78 59t94 21.5q91 0 138 -57.5t47 -167.5q0 -52 -8 -109t-24.5 -114t-41.5 -108.5t-59.5 -91.5t-78 -63t-97.5 -23zM240 65q36 0 65.5 20t54 54.5t43 78.5t30.5 93t18.5 97.5
t6.5 91.5q0 75 -27.5 112.5t-78.5 37.5q-38 0 -68.5 -21t-55 -56.5t-42.5 -80.5t-30 -93.5t-17.5 -94.5t-5.5 -84q0 -53 12.5 -87t36 -51t58.5 -17zM383 775q-36 0 -59.5 12.5t-35.5 35.5t-12 54q0 9 0.5 17t1.5 14h51q0 -23 6 -38.5t19 -22.5t34 -7q34 0 53.5 16.5
t28.5 51.5h52q-13 -66 -48 -99.5t-91 -33.5z" />
    <glyph glyph-name="obreve" unicode="&#x14f;" horiz-adv-x="454" 
d="M181 -9q-46 0 -80 20t-51.5 59.5t-17.5 95.5q0 43 8.5 94t27 101.5t46.5 92t68 66.5t91 25q47 0 80.5 -20.5t51 -60t17.5 -96.5q0 -49 -9.5 -101.5t-28 -102t-47.5 -88.5t-68 -62t-88 -23zM189 60q27 0 50.5 18.5t42 51t31.5 73t20 84.5t7 86q0 30 -8 53.5t-23.5 36.5
t-41.5 13q-31 0 -55.5 -20.5t-43 -55t-30.5 -75.5t-18.5 -83t-6.5 -78q0 -50 19.5 -77t56.5 -27zM294 606q-36 0 -59.5 12.5t-35.5 35.5t-12 54q0 9 0.5 17t1.5 14h51q0 -23 6 -38.5t19 -22.5t34 -7q34 0 53.5 16.5t28.5 51.5h52q-13 -66 -48 -99.5t-91 -33.5z" />
    <glyph glyph-name="Ohungarumlaut" unicode="&#x150;" horiz-adv-x="563" 
d="M235 -10q-62 0 -104.5 26t-63.5 77.5t-21 126.5q0 56 9 115t26.5 115.5t44 106t61.5 87t78 59t94 21.5q91 0 138 -57.5t47 -167.5q0 -52 -8 -109t-24.5 -114t-41.5 -108.5t-59.5 -91.5t-78 -63t-97.5 -23zM240 65q36 0 65.5 20t54 54.5t43 78.5t30.5 93t18.5 97.5
t6.5 91.5q0 75 -27.5 112.5t-78.5 37.5q-38 0 -68.5 -21t-55 -56.5t-42.5 -80.5t-30 -93.5t-17.5 -94.5t-5.5 -84q0 -53 12.5 -87t36 -51t58.5 -17zM417 786q22 27 42.5 54t37 51.5t27.5 43.5h86l-1 -9q-10 -14 -28 -34.5t-39.5 -42.5t-43.5 -41t-40 -33h-43zM262 786
q23 27 43 54t37 51.5t28 43.5h86l-1 -9q-10 -15 -27.5 -35t-39.5 -41.5t-44.5 -40.5t-41.5 -34h-41z" />
    <glyph glyph-name="ohungarumlaut" unicode="&#x151;" horiz-adv-x="454" 
d="M181 -9q-46 0 -80 20t-51.5 59.5t-17.5 95.5q0 43 8.5 94t27 101.5t46.5 92t68 66.5t91 25q47 0 80.5 -20.5t51 -60t17.5 -96.5q0 -49 -9.5 -101.5t-28 -102t-47.5 -88.5t-68 -62t-88 -23zM189 60q27 0 50.5 18.5t42 51t31.5 73t20 84.5t7 86q0 30 -8 53.5t-23.5 36.5
t-41.5 13q-31 0 -55.5 -20.5t-43 -55t-30.5 -75.5t-18.5 -83t-6.5 -78q0 -50 19.5 -77t56.5 -27zM334 617q22 27 42.5 54t37 51.5t27.5 43.5h86l-1 -9q-10 -14 -28 -34.5t-39.5 -42.5t-43.5 -41t-40 -33h-43zM179 617q23 27 43 54t37 51.5t28 43.5h86l-1 -9
q-10 -15 -27.5 -35t-39.5 -41.5t-44.5 -40.5t-41.5 -34h-41z" />
    <glyph glyph-name="OE" unicode="&#x152;" horiz-adv-x="664" 
d="M235 -6q-62 0 -104.5 27t-63.5 77.5t-21 119.5q0 63 11.5 132.5t35.5 135.5t61 119t87 84.5t115 31.5q27 0 50.5 -2t39.5 -5h263l-16 -74h-207l-49 -230h194l-16 -74h-193l-56 -262h207l-15 -74h-255q-12 -2 -30 -4t-38 -2zM248 68q10 0 19.5 1t15.5 3l120 568
q-9 3 -21.5 5t-29.5 2q-43 0 -78 -27t-61 -71.5t-44 -100.5t-27 -114t-9 -111q0 -51 12.5 -85t38 -52t64.5 -18z" />
    <glyph glyph-name="oe" unicode="&#x153;" horiz-adv-x="701" 
d="M176 -9q-66 0 -105 46t-39 130q0 40 8 90t26 100.5t46 93t68 68.5t93 26q54 0 84 -28.5t40 -81.5q31 52 74.5 81.5t91.5 29.5q54 0 87 -28.5t33 -86.5q0 -43 -17.5 -78.5t-51 -61t-83 -39.5t-115.5 -14h-12q-3 -16 -4.5 -33t-1.5 -32q0 -58 23.5 -87t70.5 -29q30 0 58 9
t58 25v-67q-31 -17 -64 -25.5t-70 -8.5t-64 12.5t-45 36.5t-27 60q-28 -51 -68 -79.5t-94 -28.5zM187 59q29 0 53.5 20t43 53t31 74t19 84.5t6.5 84.5q0 49 -18 75t-55 26q-30 0 -54 -20t-42.5 -53.5t-31.5 -74t-19.5 -83.5t-6.5 -81q0 -52 19.5 -78.5t54.5 -26.5zM421 302
q60 0 101 14.5t62.5 43t21.5 67.5q0 23 -12.5 37.5t-38.5 14.5q-31 0 -59.5 -25t-49.5 -65.5t-31 -86.5h6z" />
    <glyph glyph-name="Racute" unicode="&#x154;" horiz-adv-x="464" 
d="M12 0l151 714h123q89 0 135 -42t46 -121q0 -56 -18 -105t-53 -83t-86 -48l81 -315h-91l-68 298h-74l-63 -298h-83zM227 368q40 0 69 14.5t48 38.5t27.5 55.5t8.5 65.5q0 52 -26.5 75.5t-78.5 23.5h-44l-58 -273h54zM284 798q22 25 42 51.5t38 51.5t30 47h96l-1 -9
q-10 -14 -29 -34.5t-42 -42.5t-44.5 -41.5t-37.5 -32.5h-52v10z" />
    <glyph glyph-name="racute" unicode="&#x155;" horiz-adv-x="313" 
d="M8 0l114 536h63l-11 -91h4q17 31 36 54t42.5 35t53.5 12q11 0 22 -1.5t22 -4.5l-22 -81q-9 3 -19 4.5t-21 1.5q-30 0 -53.5 -17t-42 -45.5t-31 -63.5t-19.5 -69l-57 -270h-81zM179 615q22 25 42 51.5t38 51.5t30 47h96l-1 -9q-10 -14 -29 -34.5t-42 -42.5t-44.5 -41.5
t-37.5 -32.5h-52v10z" />
    <glyph glyph-name="uni0156" unicode="&#x156;" horiz-adv-x="464" 
d="M12 0l151 714h123q89 0 135 -42t46 -121q0 -56 -18 -105t-53 -83t-86 -48l81 -315h-91l-68 298h-74l-63 -298h-83zM227 368q40 0 69 14.5t48 38.5t27.5 55.5t8.5 65.5q0 52 -26.5 75.5t-78.5 23.5h-44l-58 -273h54zM81 -207q10 17 24 43t27 54t19 49h78v-10
q-7 -20 -24 -48t-38 -56t-40 -46h-46v14z" />
    <glyph glyph-name="uni0157" unicode="&#x157;" horiz-adv-x="313" 
d="M8 0l114 536h63l-11 -91h4q17 31 36 54t42.5 35t53.5 12q11 0 22 -1.5t22 -4.5l-22 -81q-9 3 -19 4.5t-21 1.5q-30 0 -53.5 -17t-42 -45.5t-31 -63.5t-19.5 -69l-57 -270h-81zM-21 -207q10 17 24 43t27 54t19 49h78v-10q-7 -20 -24 -48t-38 -56t-40 -46h-46v14z" />
    <glyph glyph-name="Rcaron" unicode="&#x158;" horiz-adv-x="464" 
d="M12 0l151 714h123q89 0 135 -42t46 -121q0 -56 -18 -105t-53 -83t-86 -48l81 -315h-91l-68 298h-74l-63 -298h-83zM227 368q40 0 69 14.5t48 38.5t27.5 55.5t8.5 65.5q0 52 -26.5 75.5t-78.5 23.5h-44l-58 -273h54zM283 775q-6 20 -17.5 48t-23.5 56t-22 45l1 11h47
q8 -9 18 -23.5t21.5 -31.5t23.5 -37q28 28 54 51.5t49 40.5h49l-1 -11q-16 -16 -41 -43.5t-48.5 -56.5t-35.5 -49h-74z" />
    <glyph glyph-name="rcaron" unicode="&#x159;" horiz-adv-x="313" 
d="M8 0l114 536h63l-11 -91h4q17 31 36 54t42.5 35t53.5 12q11 0 22 -1.5t22 -4.5l-22 -81q-9 3 -19 4.5t-21 1.5q-30 0 -53.5 -17t-42 -45.5t-31 -63.5t-19.5 -69l-57 -270h-81zM209 606q-6 20 -17.5 48t-23.5 56t-22 45l1 11h47q8 -9 18 -23.5t21.5 -31.5t23.5 -37
q28 28 54 51.5t49 40.5h49l-1 -11q-16 -16 -41 -43.5t-48.5 -56.5t-35.5 -49h-74z" />
    <glyph glyph-name="Sacute" unicode="&#x15a;" horiz-adv-x="415" 
d="M135 -10q-45 0 -82 8.5t-63 24.5l7 85q27 -18 63 -29.5t77 -11.5q29 0 53.5 8.5t43 25t28.5 41t10 56.5q0 27 -8 47.5t-27 43t-53 51.5q-30 25 -52.5 50.5t-34.5 56.5t-12 72q0 48 15.5 85.5t44 64.5t67.5 41t86 14q41 0 80 -10.5t66 -27.5l-37 -74q-24 15 -53.5 25.5
t-59.5 10.5q-26 0 -48 -8t-39 -23.5t-26 -38t-9 -51.5t10 -50.5t30 -42.5t50 -47q31 -26 52.5 -52t33 -57t11.5 -73q0 -49 -15 -88.5t-44 -68t-70.5 -43.5t-94.5 -15zM257 798q22 25 42 51.5t38 51.5t30 47h96l-1 -9q-10 -14 -29 -34.5t-42 -42.5t-44.5 -41.5t-37.5 -32.5
h-52v10z" />
    <glyph glyph-name="sacute" unicode="&#x15b;" horiz-adv-x="351" 
d="M116 -10q-39 0 -70.5 8t-51.5 20v79q20 -14 52 -25.5t64 -11.5q31 0 52.5 10t32.5 30t11 47q0 19 -5.5 34t-19.5 32t-41 38q-27 22 -45 43.5t-27 45.5t-9 54q0 44 19.5 78t55.5 54t86 20q41 0 75 -10t59 -26l-32 -64q-21 14 -46 23t-55 9q-36 0 -58 -20.5t-22 -54.5
q0 -17 4.5 -32t18 -30t38.5 -35q29 -25 48.5 -46t29.5 -45.5t10 -59.5q0 -51 -20.5 -88t-59.5 -57t-94 -20zM185 615q22 25 42 51.5t38 51.5t30 47h96l-1 -9q-10 -14 -29 -34.5t-42 -42.5t-44.5 -41.5t-37.5 -32.5h-52v10z" />
    <glyph glyph-name="Scircumflex" unicode="&#x15c;" horiz-adv-x="415" 
d="M135 -10q-45 0 -82 8.5t-63 24.5l7 85q27 -18 63 -29.5t77 -11.5q29 0 53.5 8.5t43 25t28.5 41t10 56.5q0 27 -8 47.5t-27 43t-53 51.5q-30 25 -52.5 50.5t-34.5 56.5t-12 72q0 48 15.5 85.5t44 64.5t67.5 41t86 14q41 0 80 -10.5t66 -27.5l-37 -74q-24 15 -53.5 25.5
t-59.5 10.5q-26 0 -48 -8t-39 -23.5t-26 -38t-9 -51.5t10 -50.5t30 -42.5t50 -47q31 -26 52.5 -52t33 -57t11.5 -73q0 -49 -15 -88.5t-44 -68t-70.5 -43.5t-94.5 -15zM169 786q22 22 45 48t44 52t36 49h74q5 -20 16.5 -48t24 -55.5t22.5 -45.5l-2 -11h-46q-10 12 -20.5 26.5
t-21.5 31t-21 34.5q-28 -27 -54.5 -51t-48.5 -41h-49z" />
    <glyph glyph-name="scircumflex" unicode="&#x15d;" horiz-adv-x="351" 
d="M116 -10q-39 0 -70.5 8t-51.5 20v79q20 -14 52 -25.5t64 -11.5q31 0 52.5 10t32.5 30t11 47q0 19 -5.5 34t-19.5 32t-41 38q-27 22 -45 43.5t-27 45.5t-9 54q0 44 19.5 78t55.5 54t86 20q41 0 75 -10t59 -26l-32 -64q-21 14 -46 23t-55 9q-36 0 -58 -20.5t-22 -54.5
q0 -17 4.5 -32t18 -30t38.5 -35q29 -25 48.5 -46t29.5 -45.5t10 -59.5q0 -51 -20.5 -88t-59.5 -57t-94 -20zM103 617q22 22 45 48t44 52t36 49h74q5 -20 16.5 -48t24 -55.5t22.5 -45.5l-2 -11h-46q-10 12 -20.5 26.5t-21.5 31t-21 34.5q-28 -27 -54.5 -51t-48.5 -41h-49z
" />
    <glyph glyph-name="Scedilla" unicode="&#x15e;" horiz-adv-x="415" 
d="M135 -10q-45 0 -82 8.5t-63 24.5l7 85q27 -18 63 -29.5t77 -11.5q29 0 53.5 8.5t43 25t28.5 41t10 56.5q0 27 -8 47.5t-27 43t-53 51.5q-30 25 -52.5 50.5t-34.5 56.5t-12 72q0 48 15.5 85.5t44 64.5t67.5 41t86 14q41 0 80 -10.5t66 -27.5l-37 -74q-24 15 -53.5 25.5
t-59.5 10.5q-26 0 -48 -8t-39 -23.5t-26 -38t-9 -51.5t10 -50.5t30 -42.5t50 -47q31 -26 52.5 -52t33 -57t11.5 -73q0 -49 -15 -88.5t-44 -68t-70.5 -43.5t-94.5 -15zM78 -240q-15 0 -30 1.5t-27 4.5v52q8 -3 20.5 -4.5t27.5 -1.5q24 0 40.5 6.5t25 19.5t8.5 30
q0 22 -17.5 34t-50.5 16l50 82h50l-33 -53q29 -7 48 -25.5t19 -50.5q0 -34 -16.5 -59t-45.5 -38.5t-69 -13.5z" />
    <glyph glyph-name="scedilla" unicode="&#x15f;" horiz-adv-x="351" 
d="M116 -10q-39 0 -70.5 8t-51.5 20v79q20 -14 52 -25.5t64 -11.5q31 0 52.5 10t32.5 30t11 47q0 19 -5.5 34t-19.5 32t-41 38q-27 22 -45 43.5t-27 45.5t-9 54q0 44 19.5 78t55.5 54t86 20q41 0 75 -10t59 -26l-32 -64q-21 14 -46 23t-55 9q-36 0 -58 -20.5t-22 -54.5
q0 -17 4.5 -32t18 -30t38.5 -35q29 -25 48.5 -46t29.5 -45.5t10 -59.5q0 -51 -20.5 -88t-59.5 -57t-94 -20zM48 -240q-15 0 -30 1.5t-27 4.5v52q8 -3 20.5 -4.5t27.5 -1.5q24 0 40.5 6.5t25 19.5t8.5 30q0 22 -17.5 34t-50.5 16l50 82h50l-33 -53q29 -7 48 -25.5t19 -50.5
q0 -34 -16.5 -59t-45.5 -38.5t-69 -13.5z" />
    <glyph glyph-name="Scaron" unicode="&#x160;" horiz-adv-x="415" 
d="M135 -10q-45 0 -82 8.5t-63 24.5l7 85q27 -18 63 -29.5t77 -11.5q29 0 53.5 8.5t43 25t28.5 41t10 56.5q0 27 -8 47.5t-27 43t-53 51.5q-30 25 -52.5 50.5t-34.5 56.5t-12 72q0 48 15.5 85.5t44 64.5t67.5 41t86 14q41 0 80 -10.5t66 -27.5l-37 -74q-24 15 -53.5 25.5
t-59.5 10.5q-26 0 -48 -8t-39 -23.5t-26 -38t-9 -51.5t10 -50.5t30 -42.5t50 -47q31 -26 52.5 -52t33 -57t11.5 -73q0 -49 -15 -88.5t-44 -68t-70.5 -43.5t-94.5 -15zM270 775q-6 20 -17.5 48t-23.5 56t-22 45l1 11h47q8 -9 18 -23.5t21.5 -31.5t23.5 -37q28 28 54 51.5
t49 40.5h49l-1 -11q-16 -16 -41 -43.5t-48.5 -56.5t-35.5 -49h-74z" />
    <glyph glyph-name="scaron" unicode="&#x161;" horiz-adv-x="351" 
d="M116 -10q-39 0 -70.5 8t-51.5 20v79q20 -14 52 -25.5t64 -11.5q31 0 52.5 10t32.5 30t11 47q0 19 -5.5 34t-19.5 32t-41 38q-27 22 -45 43.5t-27 45.5t-9 54q0 44 19.5 78t55.5 54t86 20q41 0 75 -10t59 -26l-32 -64q-21 14 -46 23t-55 9q-36 0 -58 -20.5t-22 -54.5
q0 -17 4.5 -32t18 -30t38.5 -35q29 -25 48.5 -46t29.5 -45.5t10 -59.5q0 -51 -20.5 -88t-59.5 -57t-94 -20zM201 606q-6 20 -17.5 48t-23.5 56t-22 45l1 11h47q8 -9 18 -23.5t21.5 -31.5t23.5 -37q28 28 54 51.5t49 40.5h49l-1 -11q-16 -16 -41 -43.5t-48.5 -56.5t-35.5 -49
h-74z" />
    <glyph glyph-name="uni021A" unicode="&#x21a;" horiz-adv-x="391" 
d="M92 0l135 639h-145l17 75h372l-16 -75h-145l-135 -639h-83zM38 -207q10 17 24 43t27 54t19 49h78v-10q-7 -20 -24 -48t-38 -56t-40 -46h-46v14z" />
    <glyph glyph-name="uni021B" unicode="&#x21b;" horiz-adv-x="266" 
d="M127 -10q-45 0 -69 24.5t-24 73.5q0 14 2.5 32.5t6.5 38.5l66 311h-59l9 43l67 26l49 119h54l-26 -122h94l-14 -66h-94l-67 -315q-3 -14 -5.5 -29t-2.5 -26q0 -19 8.5 -29.5t28.5 -10.5q12 0 25.5 2.5t26.5 7.5v-64q-15 -7 -36.5 -11.5t-39.5 -4.5zM-13 -207q10 17 24 43
t27 54t19 49h78v-10q-7 -20 -24 -48t-38 -56t-40 -46h-46v14z" />
    <glyph glyph-name="Tcaron" unicode="&#x164;" horiz-adv-x="391" 
d="M92 0l135 639h-145l17 75h372l-16 -75h-145l-135 -639h-83zM254 775q-6 20 -17.5 48t-23.5 56t-22 45l1 11h47q8 -9 18 -23.5t21.5 -31.5t23.5 -37q28 28 54 51.5t49 40.5h49l-1 -11q-16 -16 -41 -43.5t-48.5 -56.5t-35.5 -49h-74z" />
    <glyph glyph-name="tcaron" unicode="&#x165;" horiz-adv-x="275" 
d="M254 602q12 24 23.5 50.5t21 52.5t15.5 47h79v-10q-7 -19 -23 -47t-34.5 -56t-34.5 -47h-47v10zM127 -10q-45 0 -69 24.5t-24 73.5q0 14 2.5 32.5t6.5 38.5l66 311h-59l9 43l67 26l49 119h54l-26 -122h94l-14 -66h-94l-67 -315q-3 -14 -5.5 -29t-2.5 -26q0 -19 8.5 -29.5
t28.5 -10.5q12 0 25.5 2.5t26.5 7.5v-64q-15 -7 -36.5 -11.5t-39.5 -4.5z" />
    <glyph glyph-name="Tbar" unicode="&#x166;" horiz-adv-x="390" 
d="M92 0l70 332h-103l14 65h102l52 242h-144l16 75h372l-16 -75h-145l-51 -242h107l-13 -65h-108l-70 -332h-83z" />
    <glyph glyph-name="tbar" unicode="&#x167;" horiz-adv-x="265" 
d="M126 -10q-44 0 -68.5 24.5t-24.5 72.5q0 14 2.5 31.5t6.5 37.5l26 124h-56l13 62h56l28 128h-59l9 43l67 26l49 119h54l-27 -122h95l-14 -66h-94l-28 -128h92l-13 -62h-91l-27 -125q-3 -14 -5.5 -28t-2.5 -25q0 -20 9.5 -31t29.5 -11q11 0 24 2.5t26 7.5v-64
q-15 -7 -36.5 -11.5t-40.5 -4.5z" />
    <glyph glyph-name="Utilde" unicode="&#x168;" horiz-adv-x="533" 
d="M213 -10q-54 0 -91 19t-56 56t-19 89q0 18 2.5 41t7.5 47l101 472h82l-101 -477q-4 -20 -6.5 -40t-2.5 -35q0 -48 23.5 -72.5t68.5 -24.5q41 0 69.5 18.5t47 56.5t31.5 97l102 477h83l-104 -485q-16 -73 -44.5 -127t-75 -83t-118.5 -29zM219 776q9 41 22.5 69t33 42.5
t46.5 14.5q21 0 37.5 -8.5t30 -20t26 -20.5t25.5 -9q18 0 27.5 13t19.5 46h50q-9 -44 -24 -72t-33.5 -41t-42.5 -13q-19 0 -35.5 9t-30 20.5t-26.5 20.5t-27 9q-18 0 -29.5 -15t-19.5 -45h-50z" />
    <glyph glyph-name="utilde" unicode="&#x169;" horiz-adv-x="463" 
d="M141 -10q-33 0 -57.5 13t-37 38.5t-12.5 61.5q0 19 3.5 42t7.5 44l74 347h81l-73 -342q-5 -22 -7.5 -41t-2.5 -36q0 -26 12 -41t38 -15q31 0 59 22.5t50.5 68t36.5 113.5l58 271h80l-114 -536h-65l8 77h-4q-16 -24 -36.5 -44t-45 -31.5t-53.5 -11.5zM155 607
q9 41 22.5 69t33 42.5t46.5 14.5q21 0 37.5 -8.5t30 -20t26 -20.5t25.5 -9q18 0 27.5 13t19.5 46h50q-9 -44 -24 -72t-33.5 -41t-42.5 -13q-19 0 -35.5 9t-30 20.5t-26.5 20.5t-27 9q-18 0 -29.5 -15t-19.5 -45h-50z" />
    <glyph glyph-name="Umacron" unicode="&#x16a;" horiz-adv-x="533" 
d="M213 -10q-54 0 -91 19t-56 56t-19 89q0 18 2.5 41t7.5 47l101 472h82l-101 -477q-4 -20 -6.5 -40t-2.5 -35q0 -48 23.5 -72.5t68.5 -24.5q41 0 69.5 18.5t47 56.5t31.5 97l102 477h83l-104 -485q-16 -73 -44.5 -127t-75 -83t-118.5 -29zM240 778l13 63h248l-13 -63h-248z
" />
    <glyph glyph-name="umacron" unicode="&#x16b;" horiz-adv-x="463" 
d="M141 -10q-33 0 -57.5 13t-37 38.5t-12.5 61.5q0 19 3.5 42t7.5 44l74 347h81l-73 -342q-5 -22 -7.5 -41t-2.5 -36q0 -26 12 -41t38 -15q31 0 59 22.5t50.5 68t36.5 113.5l58 271h80l-114 -536h-65l8 77h-4q-16 -24 -36.5 -44t-45 -31.5t-53.5 -11.5zM172 609l13 63h248
l-13 -63h-248z" />
    <glyph glyph-name="Ubreve" unicode="&#x16c;" horiz-adv-x="533" 
d="M213 -10q-54 0 -91 19t-56 56t-19 89q0 18 2.5 41t7.5 47l101 472h82l-101 -477q-4 -20 -6.5 -40t-2.5 -35q0 -48 23.5 -72.5t68.5 -24.5q41 0 69.5 18.5t47 56.5t31.5 97l102 477h83l-104 -485q-16 -73 -44.5 -127t-75 -83t-118.5 -29zM366 775q-36 0 -59.5 12.5
t-35.5 35.5t-12 54q0 9 0.5 17t1.5 14h51q0 -23 6 -38.5t19 -22.5t34 -7q34 0 53.5 16.5t28.5 51.5h52q-13 -66 -48 -99.5t-91 -33.5z" />
    <glyph glyph-name="ubreve" unicode="&#x16d;" horiz-adv-x="463" 
d="M141 -10q-33 0 -57.5 13t-37 38.5t-12.5 61.5q0 19 3.5 42t7.5 44l74 347h81l-73 -342q-5 -22 -7.5 -41t-2.5 -36q0 -26 12 -41t38 -15q31 0 59 22.5t50.5 68t36.5 113.5l58 271h80l-114 -536h-65l8 77h-4q-16 -24 -36.5 -44t-45 -31.5t-53.5 -11.5zM301 606
q-36 0 -59.5 12.5t-35.5 35.5t-12 54q0 9 0.5 17t1.5 14h51q0 -23 6 -38.5t19 -22.5t34 -7q34 0 53.5 16.5t28.5 51.5h52q-13 -66 -48 -99.5t-91 -33.5z" />
    <glyph glyph-name="Uring" unicode="&#x16e;" horiz-adv-x="533" 
d="M213 -10q-54 0 -91 19t-56 56t-19 89q0 18 2.5 41t7.5 47l101 472h82l-101 -477q-4 -20 -6.5 -40t-2.5 -35q0 -48 23.5 -72.5t68.5 -24.5q41 0 69.5 18.5t47 56.5t31.5 97l102 477h83l-104 -485q-16 -73 -44.5 -127t-75 -83t-118.5 -29zM375 777q-48 0 -75.5 27t-27.5 75
q0 45 28.5 72.5t74.5 27.5q47 0 75 -27t28 -72q0 -46 -28 -74.5t-75 -28.5zM376 824q25 0 39.5 15t14.5 40q0 24 -14.5 39.5t-39.5 15.5t-40 -15.5t-15 -39.5q0 -25 13.5 -40t41.5 -15z" />
    <glyph glyph-name="uring" unicode="&#x16f;" horiz-adv-x="463" 
d="M141 -10q-33 0 -57.5 13t-37 38.5t-12.5 61.5q0 19 3.5 42t7.5 44l74 347h81l-73 -342q-5 -22 -7.5 -41t-2.5 -36q0 -26 12 -41t38 -15q31 0 59 22.5t50.5 68t36.5 113.5l58 271h80l-114 -536h-65l8 77h-4q-16 -24 -36.5 -44t-45 -31.5t-53.5 -11.5zM309 608
q-48 0 -75.5 27t-27.5 75q0 45 28.5 72.5t74.5 27.5q47 0 75 -27t28 -72q0 -46 -28 -74.5t-75 -28.5zM310 655q25 0 39.5 15t14.5 40q0 24 -14.5 39.5t-39.5 15.5t-40 -15.5t-15 -39.5q0 -25 13.5 -40t41.5 -15z" />
    <glyph glyph-name="Uhungarumlaut" unicode="&#x170;" horiz-adv-x="533" 
d="M213 -10q-54 0 -91 19t-56 56t-19 89q0 18 2.5 41t7.5 47l101 472h82l-101 -477q-4 -20 -6.5 -40t-2.5 -35q0 -48 23.5 -72.5t68.5 -24.5q41 0 69.5 18.5t47 56.5t31.5 97l102 477h83l-104 -485q-16 -73 -44.5 -127t-75 -83t-118.5 -29zM409 786q22 27 42.5 54t37 51.5
t27.5 43.5h86l-1 -9q-10 -14 -28 -34.5t-39.5 -42.5t-43.5 -41t-40 -33h-43zM254 786q23 27 43 54t37 51.5t28 43.5h86l-1 -9q-10 -15 -27.5 -35t-39.5 -41.5t-44.5 -40.5t-41.5 -34h-41z" />
    <glyph glyph-name="uhungarumlaut" unicode="&#x171;" horiz-adv-x="463" 
d="M141 -10q-33 0 -57.5 13t-37 38.5t-12.5 61.5q0 19 3.5 42t7.5 44l74 347h81l-73 -342q-5 -22 -7.5 -41t-2.5 -36q0 -26 12 -41t38 -15q31 0 59 22.5t50.5 68t36.5 113.5l58 271h80l-114 -536h-65l8 77h-4q-16 -24 -36.5 -44t-45 -31.5t-53.5 -11.5zM339 617
q22 27 42.5 54t37 51.5t27.5 43.5h86l-1 -9q-10 -14 -28 -34.5t-39.5 -42.5t-43.5 -41t-40 -33h-43zM184 617q23 27 43 54t37 51.5t28 43.5h86l-1 -9q-10 -15 -27.5 -35t-39.5 -41.5t-44.5 -40.5t-41.5 -34h-41z" />
    <glyph glyph-name="Uogonek" unicode="&#x172;" horiz-adv-x="533" 
d="M213 -10q-54 0 -91 19t-56 56t-19 89q0 18 2.5 41t7.5 47l101 472h82l-101 -477q-4 -20 -6.5 -40t-2.5 -35q0 -48 23.5 -72.5t68.5 -24.5q41 0 69.5 18.5t47 56.5t31.5 97l102 477h83l-104 -485q-16 -73 -44.5 -127t-75 -83t-118.5 -29zM196 -222q-37 0 -57.5 20
t-20.5 54q0 29 11.5 54t34 48t55.5 46h55q-26 -23 -45.5 -44.5t-30 -42.5t-10.5 -44q0 -16 8.5 -25t24.5 -9q9 0 18.5 2t19.5 4l-9 -55q-12 -4 -25.5 -6t-28.5 -2z" />
    <glyph glyph-name="uogonek" unicode="&#x173;" horiz-adv-x="463" 
d="M141 -10q-33 0 -57.5 13t-37 38.5t-12.5 61.5q0 19 3.5 42t7.5 44l74 347h81l-73 -342q-5 -22 -7.5 -41t-2.5 -36q0 -26 12 -41t38 -15q31 0 59 22.5t50.5 68t36.5 113.5l58 271h80l-114 -536h-65l8 77h-4q-16 -24 -36.5 -44t-45 -31.5t-53.5 -11.5zM257 -222
q-37 0 -57.5 20t-20.5 54q0 29 11.5 54t34 48t55.5 46h55q-26 -23 -45.5 -44.5t-30 -42.5t-10.5 -44q0 -16 8.5 -25t24.5 -9q9 0 18.5 2t19.5 4l-9 -55q-12 -4 -25.5 -6t-28.5 -2z" />
    <glyph glyph-name="Wcircumflex" unicode="&#x174;" horiz-adv-x="714" 
d="M90 0l3 714h81l-5 -444q0 -43 -2.5 -81t-4.5 -68h3q12 36 27.5 76t30.5 77l182 440h78l-4 -429q0 -32 -1 -60.5t-2 -54.5t-2 -49h2q10 28 19 54t19 51t19 50l176 438h86l-295 -714h-94l5 455q1 17 1.5 36.5l1 39t1.5 38.5h-2q-9 -26 -18.5 -53t-23.5 -58l-188 -458h-93z
M316 786q22 22 45 48t44 52t36 49h74q5 -20 16.5 -48t24 -55.5t22.5 -45.5l-2 -11h-46q-10 12 -20.5 26.5t-21.5 31t-21 34.5q-28 -27 -54.5 -51t-48.5 -41h-49z" />
    <glyph glyph-name="wcircumflex" unicode="&#x175;" horiz-adv-x="597" 
d="M61 0v536h78l-3 -300q-1 -37 -3 -70t-4 -60h3q6 19 13.5 39.5t16 41t14.5 36.5l129 313h90l-2 -298q-1 -30 -2 -66t-3 -68h3q8 23 16.5 47.5t18.5 49.5t20 52l113 283h83l-225 -536h-95l5 319q0 20 0.5 39t1.5 38.5t2 39.5h-3q-5 -16 -11 -31.5t-12.5 -32t-14.5 -36.5
l-136 -336h-93zM228 617q22 22 45 48t44 52t36 49h74q5 -20 16.5 -48t24 -55.5t22.5 -45.5l-2 -11h-46q-10 12 -20.5 26.5t-21.5 31t-21 34.5q-28 -27 -54.5 -51t-48.5 -41h-49z" />
    <glyph glyph-name="Ycircumflex" unicode="&#x176;" horiz-adv-x="402" 
d="M96 0l58 273l-67 441h85l43 -339l185 339h90l-253 -441l-58 -273h-83zM162 786q22 22 45 48t44 52t36 49h74q5 -20 16.5 -48t24 -55.5t22.5 -45.5l-2 -11h-46q-10 12 -20.5 26.5t-21.5 31t-21 34.5q-28 -27 -54.5 -51t-48.5 -41h-49z" />
    <glyph glyph-name="ycircumflex" unicode="&#x177;" horiz-adv-x="378" 
d="M-36 -241q-19 0 -32.5 3t-25.5 7l7 70q11 -4 23 -6t25 -2q32 0 53.5 23t40.5 65l38 80l-34 537h81l11 -287q1 -24 1.5 -50t0.5 -50.5t-1 -45.5h3q7 19 16 42.5t18.5 46t16.5 39.5l139 305h84l-299 -635q-21 -45 -44 -76.5t-52 -48.5t-70 -17zM111 617q22 22 45 48t44 52
t36 49h74q5 -20 16.5 -48t24 -55.5t22.5 -45.5l-2 -11h-46q-10 12 -20.5 26.5t-21.5 31t-21 34.5q-28 -27 -54.5 -51t-48.5 -41h-49z" />
    <glyph glyph-name="Ydieresis" unicode="&#x178;" horiz-adv-x="402" 
d="M96 0l58 273l-67 441h85l43 -339l185 339h90l-253 -441l-58 -273h-83zM377 800q-17 0 -27 9.5t-10 28.5q0 26 14 44.5t39 18.5q18 0 26.5 -9.5t8.5 -26.5q0 -29 -14.5 -47t-36.5 -18zM219 800q-17 0 -27 9.5t-10 28.5q0 26 14 44.5t39 18.5q11 0 18.5 -4t11.5 -12t4 -20
q0 -29 -14 -47t-36 -18z" />
    <glyph glyph-name="Zacute" unicode="&#x179;" horiz-adv-x="394" 
d="M-32 0l14 64l357 576h-229l16 74h324l-13 -65l-359 -575h244l-15 -74h-339zM249 798q22 25 42 51.5t38 51.5t30 47h96l-1 -9q-10 -14 -29 -34.5t-42 -42.5t-44.5 -41.5t-37.5 -32.5h-52v10z" />
    <glyph glyph-name="zacute" unicode="&#x17a;" horiz-adv-x="332" 
d="M-30 0l12 54l266 416h-167l14 66h256l-13 -60l-262 -409h184l-15 -67h-275zM179 615q22 25 42 51.5t38 51.5t30 47h96l-1 -9q-10 -14 -29 -34.5t-42 -42.5t-44.5 -41.5t-37.5 -32.5h-52v10z" />
    <glyph glyph-name="Zdotaccent" unicode="&#x17b;" horiz-adv-x="394" 
d="M-32 0l14 64l357 576h-229l16 74h324l-13 -65l-359 -575h244l-15 -74h-339zM302 795q-19 0 -30.5 11.5t-11.5 30.5q0 27 15 48t42 21q14 0 23 -5t13.5 -14t4.5 -23q0 -29 -16 -49t-40 -20z" />
    <glyph glyph-name="zdotaccent" unicode="&#x17c;" horiz-adv-x="332" 
d="M-30 0l12 54l266 416h-167l14 66h256l-13 -60l-262 -409h184l-15 -67h-275zM241 626q-19 0 -30.5 11.5t-11.5 30.5q0 27 15 48t42 21q14 0 23 -5t13.5 -14t4.5 -23q0 -29 -16 -49t-40 -20z" />
    <glyph glyph-name="Zcaron" unicode="&#x17d;" horiz-adv-x="394" 
d="M-32 0l14 64l357 576h-229l16 74h324l-13 -65l-359 -575h244l-15 -74h-339zM256 775q-6 20 -17.5 48t-23.5 56t-22 45l1 11h47q8 -9 18 -23.5t21.5 -31.5t23.5 -37q28 28 54 51.5t49 40.5h49l-1 -11q-16 -16 -41 -43.5t-48.5 -56.5t-35.5 -49h-74z" />
    <glyph glyph-name="zcaron" unicode="&#x17e;" horiz-adv-x="332" 
d="M-30 0l12 54l266 416h-167l14 66h256l-13 -60l-262 -409h184l-15 -67h-275zM192 606q-6 20 -17.5 48t-23.5 56t-22 45l1 11h47q8 -9 18 -23.5t21.5 -31.5t23.5 -37q28 28 54 51.5t49 40.5h49l-1 -11q-16 -16 -41 -43.5t-48.5 -56.5t-35.5 -49h-74z" />
    <glyph glyph-name="longs" unicode="&#x17f;" horiz-adv-x="226" 
d="M-75 -240q-16 0 -29.5 2t-25.5 6v71q10 -4 22.5 -6t24.5 -2q34 0 50 29.5t28 85.5l137 645q12 54 29.5 93t47 60t76.5 21q22 0 43 -4.5t37 -12.5l-27 -64q-11 5 -23.5 8t-24.5 3q-24 0 -39 -14t-24 -40t-16 -60l-137 -643q-12 -51 -28.5 -91.5t-45 -63.5t-75.5 -23z" />
    <glyph glyph-name="fhook" unicode="&#x192;" horiz-adv-x="362" 
d="M38 -242q-39 0 -66 16t-40.5 43.5t-13.5 60.5q0 16 2.5 29.5t7.5 24.5l68 -18q-3 -8 -4.5 -16.5t-1.5 -16.5q0 -15 4.5 -27.5t15.5 -19.5t27 -7q30 0 44 25t22 66l119 552h-68l8 41l74 27l12 53q10 44 22.5 77t29.5 54.5t42 32t59 10.5q22 0 42.5 -4.5t36.5 -12.5
l-27 -63q-11 5 -23 8t-25 3q-31 0 -48 -25.5t-29 -80.5l-11 -54h85l-13 -66h-86l-120 -557q-15 -72 -48.5 -113.5t-96.5 -41.5z" />
    <glyph glyph-name="Aringacute" unicode="&#x1fa;" horiz-adv-x="451" 
d="M229 626q-15 11 -22.5 28.5t-7.5 40.5q0 46 28.5 73.5t74.5 27.5q47 0 75.5 -28t28.5 -72q0 -30 -13 -51.5t-36 -31.5l36 -613h-85l-11 221h-168l-100 -221h-90zM161 296h136l-6 194q-1 23 -2 47.5t-1 45.5h-6q-7 -20 -16.5 -44t-21.5 -48zM302 640q25 0 40 15t15 39
q0 25 -14.5 40t-40.5 15q-24 0 -38.5 -15t-14.5 -40q0 -24 13 -39t40 -15zM275 831q18 18 35.5 38.5t35 42t30.5 42.5h101v-8q-15 -16 -40.5 -39.5t-53.5 -46t-51 -37.5h-57v8z" />
    <glyph glyph-name="aringacute" unicode="&#x1fb;" horiz-adv-x="466" 
d="M149 -10q-38 0 -64 17.5t-40 53t-14 86.5q0 49 9.5 103.5t28 107.5t46.5 95t65 67.5t82 25.5q26 0 46 -9.5t34.5 -27t22.5 -43.5h3l25 70h66l-114 -536h-64l8 81h-4q-19 -27 -41 -48t-45 -32t-50 -11zM174 59q35 0 62 27t48 70.5t34 91.5q11 42 15.5 76t4.5 64
q0 41 -18 64.5t-50 23.5q-28 0 -52.5 -21t-43.5 -55.5t-32 -77.5t-20.5 -88t-7.5 -85q0 -45 14.5 -67.5t45.5 -22.5zM305 584q-47 0 -75 26.5t-28 73.5t28.5 74.5t74.5 27.5t74.5 -27t29.5 -73q0 -47 -28.5 -74.5t-75.5 -27.5zM305 630q24 0 39.5 14.5t15.5 39.5t-15 40.5
t-40 15.5t-39.5 -15.5t-14.5 -40.5q0 -26 13 -40t41 -14zM289 829q16 18 33 38t34 42t31 44h103v-8q-13 -15 -38.5 -38t-54 -46t-53.5 -40h-56z" />
    <glyph glyph-name="AEacute" unicode="&#x1fc;" horiz-adv-x="636" 
d="M-64 0l374 714h368l-15 -74h-207l-49 -230h194l-15 -74h-195l-55 -262h207l-16 -74h-290l49 226h-144l-116 -226h-90zM180 301h122l71 338h-21zM370 798q22 25 42 51.5t38 51.5t30 47h96l-1 -9q-10 -14 -29 -34.5t-42 -42.5t-44.5 -41.5t-37.5 -32.5h-52v10z" />
    <glyph glyph-name="aeacute" unicode="&#x1fd;" horiz-adv-x="677" 
d="M140 -10q-33 0 -57.5 18.5t-38 54t-13.5 86.5q0 58 11 115.5t31 108t48 89.5t63 61.5t75 22.5q23 0 42 -9t32 -26.5t21 -42.5h3l22 68h57l-14 -63q22 30 54 51.5t74 21.5q50 0 81 -29.5t31 -85.5q0 -44 -17 -79.5t-51 -61t-84 -39t-116 -13.5h-11q-3 -16 -4.5 -32.5
t-1.5 -32.5q0 -53 22 -84.5t73 -31.5q29 0 58 9.5t61 26.5l-6 -70q-32 -17 -61.5 -25t-66.5 -8q-44 0 -75 19.5t-43 56.5l-13 -66h-58l12 81h-2q-20 -28 -40.5 -49t-44.5 -31.5t-53 -10.5zM170 59q24 0 45 14.5t38 40t30.5 59.5t23.5 73q10 42 15 77.5t5 66.5q0 40 -15.5 63
t-42.5 23q-26 0 -49.5 -19.5t-42.5 -52t-33.5 -74.5t-22 -87.5t-7.5 -90.5q0 -47 14 -70t42 -23zM400 302q59 0 100.5 14.5t63 42.5t21.5 66q0 26 -13.5 40t-38.5 14q-30 0 -56 -22.5t-46.5 -62t-35.5 -92.5h5zM352 615q22 25 42 51.5t38 51.5t30 47h96l-1 -9
q-10 -14 -29 -34.5t-42 -42.5t-44.5 -41.5t-37.5 -32.5h-52v10z" />
    <glyph glyph-name="Oslashacute" unicode="&#x1fe;" horiz-adv-x="563" 
d="M57 -46l-47 31l65 97q-14 27 -21.5 61.5t-7.5 76.5q0 56 9 115t26.5 115.5t44 106t61.5 87t78 59t94 21.5q39 0 69.5 -12t53.5 -35l54 79l48 -33l-66 -96q13 -25 19.5 -57.5t6.5 -70.5q0 -52 -8 -109t-24.5 -114t-41.5 -108.5t-59.5 -91.5t-78 -63t-97.5 -23
q-39 0 -69.5 11t-52.5 34zM240 65q34 0 63.5 18.5t53.5 50.5t41.5 74t30 88.5t19.5 93.5t8 90q1 15 -0.5 28.5t-4.5 23.5l-291 -425q13 -21 33.5 -31.5t46.5 -10.5zM433 604q-13 23 -33 35t-48 12q-36 0 -66.5 -19.5t-54.5 -53.5t-42 -76.5t-30 -88.5t-18.5 -91t-6.5 -83
q-1 -18 0.5 -34t4.5 -30zM336 794q22 25 42 51.5t38 51.5t30 47h96l-1 -9q-10 -14 -29 -34.5t-42 -42.5t-44.5 -41.5t-37.5 -32.5h-52v10z" />
    <glyph glyph-name="oslashacute" unicode="&#x1ff;" horiz-adv-x="454" 
d="M43 -53l-44 30l57 83q-12 21 -18 47.5t-6 58.5q0 41 8.5 91.5t26.5 101t46.5 93t68 68t91.5 25.5q29 0 52 -8t41 -25l45 68l46 -30l-56 -79q10 -20 15.5 -46t5.5 -54q0 -44 -9 -95t-27 -101.5t-46.5 -92t-67.5 -66.5t-90 -25q-27 0 -49.5 7t-40.5 21zM189 57q26 0 49 17
t41 46t32 66.5t21.5 79t8.5 82.5q1 10 0.5 19.5t-1.5 16.5l-206 -301q10 -13 23.5 -19.5t31.5 -6.5zM323 448q-8 15 -22 22.5t-34 7.5q-28 0 -52 -18t-42.5 -49.5t-32 -70t-20.5 -80t-8 -79.5q0 -12 0.5 -22t2.5 -17zM246 615q22 25 42 51.5t38 51.5t30 47h96l-1 -9
q-10 -14 -29 -34.5t-42 -42.5t-44.5 -41.5t-37.5 -32.5h-52v10z" />
    <glyph glyph-name="uni0218" unicode="&#x218;" horiz-adv-x="415" 
d="M135 -10q-45 0 -82 8.5t-63 24.5l7 85q27 -18 63 -29.5t77 -11.5q29 0 53.5 8.5t43 25t28.5 41t10 56.5q0 27 -8 47.5t-27 43t-53 51.5q-30 25 -52.5 50.5t-34.5 56.5t-12 72q0 48 15.5 85.5t44 64.5t67.5 41t86 14q41 0 80 -10.5t66 -27.5l-37 -74q-24 15 -53.5 25.5
t-59.5 10.5q-26 0 -48 -8t-39 -23.5t-26 -38t-9 -51.5t10 -50.5t30 -42.5t50 -47q31 -26 52.5 -52t33 -57t11.5 -73q0 -49 -15 -88.5t-44 -68t-70.5 -43.5t-94.5 -15zM51 -207q10 17 24 43t27 54t19 49h78v-10q-7 -20 -24 -48t-38 -56t-40 -46h-46v14z" />
    <glyph glyph-name="uni0219" unicode="&#x219;" horiz-adv-x="351" 
d="M116 -10q-39 0 -70.5 8t-51.5 20v79q20 -14 52 -25.5t64 -11.5q31 0 52.5 10t32.5 30t11 47q0 19 -5.5 34t-19.5 32t-41 38q-27 22 -45 43.5t-27 45.5t-9 54q0 44 19.5 78t55.5 54t86 20q41 0 75 -10t59 -26l-32 -64q-21 14 -46 23t-55 9q-36 0 -58 -20.5t-22 -54.5
q0 -17 4.5 -32t18 -30t38.5 -35q29 -25 48.5 -46t29.5 -45.5t10 -59.5q0 -51 -20.5 -88t-59.5 -57t-94 -20zM18 -207q10 17 24 43t27 54t19 49h78v-10q-7 -20 -24 -48t-38 -56t-40 -46h-46v14z" />
    <glyph glyph-name="circumflex" unicode="&#x2c6;" horiz-adv-x="342" 
d="M114 617q22 22 45 48t44 52t36 49h74q5 -20 16.5 -48t24 -55.5t22.5 -45.5l-2 -11h-46q-10 12 -20.5 26.5t-21.5 31t-21 34.5q-28 -27 -54.5 -51t-48.5 -41h-49z" />
    <glyph glyph-name="caron" unicode="&#x2c7;" horiz-adv-x="343" 
d="M208 606q-6 20 -17.5 48t-23.5 56t-22 45l1 11h47q8 -9 18 -23.5t21.5 -31.5t23.5 -37q28 28 54 51.5t49 40.5h49l-1 -11q-16 -16 -41 -43.5t-48.5 -56.5t-35.5 -49h-74z" />
    <glyph glyph-name="macronmod" unicode="&#x2c9;" horiz-adv-x="329" 
d="M113 609l13 63h248l-13 -63h-248z" />
    <glyph glyph-name="breve" unicode="&#x2d8;" horiz-adv-x="324" 
d="M245 606q-36 0 -59.5 12.5t-35.5 35.5t-12 54q0 9 0.5 17t1.5 14h51q0 -23 6 -38.5t19 -22.5t34 -7q34 0 53.5 16.5t28.5 51.5h52q-13 -66 -48 -99.5t-91 -33.5z" />
    <glyph glyph-name="dotaccent" unicode="&#x2d9;" horiz-adv-x="177" 
d="M169 626q-19 0 -30.5 11.5t-11.5 30.5q0 27 15 48t42 21q14 0 23 -5t13.5 -14t4.5 -23q0 -29 -16 -49t-40 -20z" />
    <glyph glyph-name="ring" unicode="&#x2da;" horiz-adv-x="292" 
d="M240 608q-48 0 -75.5 27t-27.5 75q0 45 28.5 72.5t74.5 27.5q47 0 75 -27t28 -72q0 -46 -28 -74.5t-75 -28.5zM241 655q25 0 39.5 15t14.5 40q0 24 -14.5 39.5t-39.5 15.5t-40 -15.5t-15 -39.5q0 -25 13.5 -40t41.5 -15z" />
    <glyph glyph-name="ogonek" unicode="&#x2db;" horiz-adv-x="230" 
d="M33 -222q-37 0 -57.5 20t-20.5 54q0 29 11.5 54t34 48t55.5 46h55q-26 -23 -45.5 -44.5t-30 -42.5t-10.5 -44q0 -16 8.5 -25t24.5 -9q9 0 18.5 2t19.5 4l-9 -55q-12 -4 -25.5 -6t-28.5 -2z" />
    <glyph glyph-name="tilde" unicode="&#x2dc;" horiz-adv-x="371" 
d="M112 607q9 41 22.5 69t33 42.5t46.5 14.5q21 0 37.5 -8.5t30 -20t26 -20.5t25.5 -9q18 0 27.5 13t19.5 46h50q-9 -44 -24 -72t-33.5 -41t-42.5 -13q-19 0 -35.5 9t-30 20.5t-26.5 20.5t-27 9q-18 0 -29.5 -15t-19.5 -45h-50z" />
    <glyph glyph-name="hungarumlaut" unicode="&#x2dd;" horiz-adv-x="397" 
d="M269 617q22 27 42.5 54t37 51.5t27.5 43.5h86l-1 -9q-10 -14 -28 -34.5t-39.5 -42.5t-43.5 -41t-40 -33h-43zM114 617q23 27 43 54t37 51.5t28 43.5h86l-1 -9q-10 -15 -27.5 -35t-39.5 -41.5t-44.5 -40.5t-41.5 -34h-41z" />
    <glyph glyph-name="tonos" unicode="&#x384;" horiz-adv-x="228" 
d="M112 606l2 11l83 159h99l-2 -9l-128 -161h-54z" />
    <glyph glyph-name="dieresistonos" unicode="&#x385;" horiz-adv-x="585" 
d="M284 606l2 11l73 159h99l-2 -9l-118 -161h-54zM219 620q-18 0 -28 13t-5 39t20.5 38t34.5 12q18 0 27.5 -12.5t4.5 -37.5q-5 -26 -20.5 -39t-33.5 -13zM465 620q-19 0 -28 13t-4 39q4 26 20 38t34 12t28.5 -12.5t5.5 -37.5q-5 -26 -21 -39t-35 -13z" />
    <glyph glyph-name="Alphatonos" unicode="&#x386;" horiz-adv-x="515" 
d="M1 0l326 716h100l28 -716h-84l-8 226h-171l-100 -226h-91zM223 301h140l-2 220q-2 29 -2 57.5t1 51.5h-3q-8 -23 -18.5 -50.5t-24.5 -59.5zM60 544l2 11l83 159h99l-2 -9l-128 -161h-54z" />
    <glyph glyph-name="anoteleia" unicode="&#x387;" horiz-adv-x="220" 
d="M140 415q-21 0 -33 12t-12 34q0 32 17.5 56.5t50.5 24.5q20 0 31.5 -12.5t11.5 -34.5q0 -33 -18.5 -56.5t-47.5 -23.5z" />
    <glyph glyph-name="Epsilontonos" unicode="&#x388;" horiz-adv-x="568" 
d="M169 0l151 714h290l-15 -74h-208l-48 -230h193l-15 -74h-194l-56 -262h208l-16 -74h-290zM69 544l2 11l83 159h99l-2 -9l-128 -161h-54z" />
    <glyph glyph-name="Etatonos" unicode="&#x389;" horiz-adv-x="699" 
d="M170 0l151 714h82l-64 -303h230l64 303h83l-152 -714h-82l70 336h-229l-71 -336h-82zM69 544l2 11l83 159h99l-2 -9l-128 -161h-54z" />
    <glyph glyph-name="Iotatonos" unicode="&#x38a;" horiz-adv-x="457" 
d="M135 0l10 46l81 17l124 588l-73 17l9 46h237l-10 -46l-80 -17l-125 -588l73 -17l-9 -46h-237zM69 544l2 11l83 159h99l-2 -9l-128 -161h-54z" />
    <glyph glyph-name="Omicrontonos" unicode="&#x38c;" horiz-adv-x="678" 
d="M349 -10q-62 0 -104.5 26t-63.5 77.5t-21 126.5q0 56 9 115t26.5 115.5t44 106t61.5 87t78 59t94 21.5q91 0 138 -57.5t47 -167.5q0 -52 -8 -109t-24.5 -114t-41.5 -108.5t-59.5 -91.5t-78 -63t-97.5 -23zM354 65q36 0 65.5 20t54 54.5t43 78.5t30.5 93t18.5 97.5
t6.5 91.5q0 75 -27.5 112.5t-78.5 37.5q-38 0 -68.5 -21t-55 -56.5t-42.5 -80.5t-30 -93.5t-17.5 -94.5t-5.5 -84q0 -53 12.5 -87t36 -51t58.5 -17zM69 544l2 11l83 159h99l-2 -9l-128 -161h-54z" />
    <glyph glyph-name="Upsilontonos" unicode="&#x38e;" horiz-adv-x="602" 
d="M296 0l58 273l-67 441h85l43 -339l185 339h90l-253 -441l-58 -273h-83zM69 544l2 11l83 159h99l-2 -9l-128 -161h-54z" />
    <glyph glyph-name="Omegatonos" unicode="&#x38f;" horiz-adv-x="708" 
d="M150 0l17 77h122q-31 31 -49 78t-22 106.5t5 128.5q14 105 51 180t95 114.5t137 39.5t125 -40t60.5 -115t-0.5 -178q-9 -70 -33.5 -130.5t-59 -106.5t-75.5 -77h122l-16 -77h-204l15 68q46 41 79 86.5t54.5 102.5t31.5 128q11 80 4.5 139.5t-34.5 92.5t-82 33
q-52 0 -89 -32t-60 -91.5t-34 -142.5q-10 -70 -8 -128t18 -104t48 -84l-15 -68h-203zM69 544l2 11l83 159h99l-2 -9l-128 -161h-54z" />
    <glyph glyph-name="iotadieresistonos" unicode="&#x390;" horiz-adv-x="280" 
d="M125 -10q-32 1 -54 11.5t-32.5 32.5t-10.5 53q0 14 2 29t6 33l82 387h84l-83 -389q-3 -12 -4.5 -22t-1.5 -19q0 -23 10.5 -33t29.5 -10q11 0 23 2.5t23 6.5l-15 -72q-12 -4 -27 -7t-32 -3zM164 605l2 11l73 159h99l-2 -9l-118 -161h-54zM99 619q-18 0 -28 13t-5 39
t20.5 38t34.5 12q18 0 27.5 -12.5t4.5 -37.5q-5 -26 -20.5 -39t-33.5 -13zM345 619q-19 0 -28 13t-4 39q4 26 20 38t34 12t28.5 -12.5t5.5 -37.5q-5 -26 -21 -39t-35 -13z" />
    <glyph glyph-name="Alpha" unicode="&#x391;" horiz-adv-x="451" 
d="M-63 0l326 716h100l28 -716h-84l-8 226h-171l-100 -226h-91zM159 301h140l-2 220q-2 29 -2 57.5t1 51.5h-3q-8 -23 -18.5 -50.5t-24.5 -59.5z" />
    <glyph glyph-name="Beta" unicode="&#x392;" horiz-adv-x="481" 
d="M12 0l151 714h148q51 0 89.5 -16t60.5 -48t22 -82q0 -46 -16 -86t-48 -68t-79 -40v-3q41 -12 65 -48.5t24 -87.5q0 -68 -28.5 -121t-81.5 -83.5t-128 -30.5h-179zM191 72q52 0 85 22t50 59t17 84t-25.5 74t-75.5 27h-75l-57 -266h81zM256 408q42 0 73.5 19t48.5 53t17 76
q0 43 -23.5 64.5t-74.5 21.5h-66l-50 -234h75z" />
    <glyph glyph-name="Gamma" unicode="&#x393;" horiz-adv-x="375" 
d="M12 0l151 714h280l-15 -75h-198l-135 -639h-83z" />
    <glyph glyph-name="Epsilon" unicode="&#x395;" horiz-adv-x="410" 
d="M12 0l151 714h290l-15 -74h-208l-48 -230h193l-15 -74h-194l-56 -262h208l-16 -74h-290z" />
    <glyph glyph-name="Zeta" unicode="&#x396;" horiz-adv-x="394" 
d="M-32 0l14 64l357 576h-229l16 74h324l-13 -65l-359 -575h244l-15 -74h-339z" />
    <glyph glyph-name="Eta" unicode="&#x397;" horiz-adv-x="542" 
d="M13 0l151 714h82l-64 -303h230l64 303h83l-152 -714h-82l70 336h-229l-71 -336h-82z" />
    <glyph glyph-name="Theta" unicode="&#x398;" horiz-adv-x="563" 
d="M192 326l16 75h190l-16 -75h-190zM235 -10q-62 0 -104.5 26t-63.5 77.5t-21 126.5q0 56 9 115t26.5 115.5t44 106t61.5 87t78 59t94 21.5q91 0 138 -57.5t47 -167.5q0 -52 -8 -109t-24.5 -114t-41.5 -108.5t-59.5 -91.5t-78 -63t-97.5 -23zM240 65q36 0 65.5 20t54 54.5
t43 78.5t30.5 93t18.5 97.5t6.5 91.5q0 75 -27.5 112.5t-78.5 37.5q-38 0 -68.5 -21t-55 -56.5t-42.5 -80.5t-30 -93.5t-17.5 -94.5t-5.5 -84q0 -53 12.5 -87t36 -51t58.5 -17z" />
    <glyph glyph-name="Iota" unicode="&#x399;" horiz-adv-x="279" 
d="M-42 0l10 46l81 17l124 588l-73 17l9 46h237l-10 -46l-80 -17l-125 -588l73 -17l-9 -46h-237z" />
    <glyph glyph-name="Kappa" unicode="&#x39a;" horiz-adv-x="452" 
d="M12 0l151 714h83l-75 -353l57 80l214 273h93l-250 -323l108 -391h-90l-87 332l-63 -58l-58 -274h-83z" />
    <glyph glyph-name="Lambda" unicode="&#x39b;" horiz-adv-x="451" 
d="M-63 0l330 715h95l29 -715h-84l-14 465q-1 34 -1 71.5v71.5h-2q-13 -38 -30 -81t-38 -92l-196 -435h-89z" />
    <glyph glyph-name="Mu" unicode="&#x39c;" horiz-adv-x="705" 
d="M12 0l151 714h116l36 -584h2l279 584h125l-150 -714h-83l99 466q6 24 11 45.5t10 42t9 37.5h-2l-286 -591h-78l-38 590h-2q-4 -20 -7.5 -43t-7.5 -46.5t-9 -45.5l-97 -455h-78z" />
    <glyph glyph-name="Nu" unicode="&#x39d;" horiz-adv-x="571" 
d="M12 0l151 714h95l131 -575h3q5 32 11 66.5t12.5 66t11.5 55.5l82 387h80l-152 -714h-93l-133 582h-3q-3 -24 -8 -53t-10.5 -58t-11 -55t-8.5 -43l-79 -373h-79z" />
    <glyph glyph-name="Xi" unicode="&#x39e;" horiz-adv-x="434" 
d="M-6 0l16 74h331l-16 -74h-331zM103 337l16 74h256l-16 -74h-256zM142 640l15 74h308l-15 -74h-308z" />
    <glyph glyph-name="Omicron" unicode="&#x39f;" horiz-adv-x="563" 
d="M235 -10q-62 0 -104.5 26t-63.5 77.5t-21 126.5q0 56 9 115t26.5 115.5t44 106t61.5 87t78 59t94 21.5q91 0 138 -57.5t47 -167.5q0 -52 -8 -109t-24.5 -114t-41.5 -108.5t-59.5 -91.5t-78 -63t-97.5 -23zM240 65q36 0 65.5 20t54 54.5t43 78.5t30.5 93t18.5 97.5
t6.5 91.5q0 75 -27.5 112.5t-78.5 37.5q-38 0 -68.5 -21t-55 -56.5t-42.5 -80.5t-30 -93.5t-17.5 -94.5t-5.5 -84q0 -53 12.5 -87t36 -51t58.5 -17z" />
    <glyph glyph-name="Pi" unicode="&#x3a0;" horiz-adv-x="540" 
d="M13 0l151 714h392l-151 -714h-83l135 639h-227l-135 -639h-82z" />
    <glyph glyph-name="Rho" unicode="&#x3a1;" horiz-adv-x="453" 
d="M12 0l151 714h124q61 0 100.5 -20.5t58.5 -57.5t19 -87q0 -60 -17 -109.5t-50.5 -85.5t-81.5 -55.5t-111 -19.5h-51l-59 -279h-83zM208 352q55 0 93.5 23t58.5 65.5t20 100.5q0 51 -26.5 75.5t-79.5 24.5h-43l-62 -289h39z" />
    <glyph glyph-name="Sigma" unicode="&#x3a3;" horiz-adv-x="392" 
d="M-32 0l15 68l204 303l-68 275l13 68h316l-16 -74h-144h-29.5t-29 0.5t-23.5 1.5l62 -268l-3 -16l-195 -286q25 1 48.5 1.5t46.5 0.5h155l-16 -74h-336z" />
    <glyph glyph-name="Tau" unicode="&#x3a4;" horiz-adv-x="391" 
d="M92 0l135 639h-145l17 75h372l-16 -75h-145l-135 -639h-83z" />
    <glyph glyph-name="Upsilon" unicode="&#x3a5;" horiz-adv-x="402" 
d="M96 0l58 273l-67 441h85l43 -339l185 339h90l-253 -441l-58 -273h-83z" />
    <glyph glyph-name="Phi" unicode="&#x3a6;" horiz-adv-x="705" 
d="M248 0l20 98q-66 5 -111 28.5t-71 61t-34 85.5t1 103q8 56 30.5 103.5t63 83t99 55.5t137.5 21l16 75h83l-16 -76q67 -5 112.5 -28.5t71.5 -61t33.5 -85.5t-0.5 -103t-31 -102.5t-63 -83t-98.5 -56t-138.5 -21.5l-20 -97h-84zM284 171l83 395q-73 -2 -120.5 -25.5
t-73.5 -65t-34 -99.5q-6 -44 -2 -81t21.5 -63.5t48.5 -42t77 -18.5zM367 170q74 3 121.5 26t73.5 65t34 99q7 44 2.5 81t-21.5 63.5t-48 42.5t-78 17z" />
    <glyph glyph-name="Chi" unicode="&#x3a7;" horiz-adv-x="418" 
d="M-57 0l238 377l-73 337h86l50 -266l159 266h89l-217 -346l75 -368h-88l-50 294l-180 -294h-89z" />
    <glyph glyph-name="Psi" unicode="&#x3a8;" horiz-adv-x="659" 
d="M226 0l39 184q-53 4 -90.5 21t-58.5 48t-26 76t8 105l60 280h83l-59 -274q-12 -60 -7 -100.5t31 -61t75 -20.5l96 456h83l-97 -456q44 0 78 17.5t58.5 57.5t38.5 107l58 274h84l-59 -277q-13 -60 -36 -106.5t-56.5 -79t-78.5 -49.5t-102 -18l-39 -184h-83z" />
    <glyph glyph-name="Iotadieresis" unicode="&#x3aa;" horiz-adv-x="279" 
d="M-42 0l10 46l81 17l124 588l-73 17l9 46h237l-10 -46l-80 -17l-125 -588l73 -17l-9 -46h-237zM326 815q-17 0 -27 9.5t-10 28.5q0 26 14 44.5t39 18.5q18 0 26.5 -9.5t8.5 -26.5q0 -29 -14.5 -47t-36.5 -18zM168 815q-17 0 -27 9.5t-10 28.5q0 26 14 44.5t39 18.5
q11 0 18.5 -4t11.5 -12t4 -20q0 -29 -14 -47t-36 -18z" />
    <glyph glyph-name="Upsilondieresis" unicode="&#x3ab;" horiz-adv-x="402" 
d="M96 0l58 273l-67 441h85l43 -339l185 339h90l-253 -441l-58 -273h-83zM377 800q-17 0 -27 9.5t-10 28.5q0 26 14 44.5t39 18.5q18 0 26.5 -9.5t8.5 -26.5q0 -29 -14.5 -47t-36.5 -18zM219 800q-17 0 -27 9.5t-10 28.5q0 26 14 44.5t39 18.5q11 0 18.5 -4t11.5 -12t4 -20
q0 -29 -14 -47t-36 -18z" />
    <glyph glyph-name="alphatonos" unicode="&#x3ac;" horiz-adv-x="473" 
d="M144 -10q-54 0 -84.5 40.5t-30.5 117.5q0 53 10 109t29.5 107.5t47 92.5t63 65t77.5 24q31 0 51 -9.5t34 -27.5t22 -46h4l26 73h64l-84 -396q-3 -14 -5 -26t-2 -23q0 -15 6 -23t20 -8q7 0 14.5 1.5t16.5 3.5l-14 -65q-5 -2 -14 -4.5t-18.5 -4t-18.5 -1.5q-30 0 -46 10.5
t-21.5 31t-5.5 47.5h-3q-21 -29 -42.5 -49t-44.5 -30t-51 -10zM172 59q34 0 62 28t49 71t33 88q10 41 15 76t5 64q0 44 -17.5 67t-52.5 23q-29 0 -53.5 -22t-43.5 -57.5t-31.5 -78.5t-19 -85.5t-6.5 -78.5q0 -48 15 -71.5t45 -23.5zM255 605l2 11l83 159h99l-2 -9l-128 -161
h-54z" />
    <glyph glyph-name="epsilontonos" unicode="&#x3ad;" horiz-adv-x="334" 
d="M158 -10q-53 0 -85.5 21t-45.5 57t-8 81q6 63 38 96.5t77 41.5v4q-32 17 -47 44.5t-10 73.5q3 44 26 75t58.5 46.5t75.5 15.5q38 0 66 -8.5t53 -26.5l-31 -67q-17 14 -38.5 22t-45.5 8q-25 0 -44 -8t-30 -24t-14 -42q-4 -37 12 -58t55 -21h47l-14 -66h-43
q-30 0 -53 -10.5t-37.5 -32t-18.5 -55.5q-5 -45 13 -71.5t62 -26.5q25 0 50 7t52 23v-70q-20 -15 -52.5 -22t-67.5 -7zM228 605l2 11l83 159h99l-2 -9l-128 -161h-54z" />
    <glyph glyph-name="etatonos" unicode="&#x3ae;" horiz-adv-x="461" 
d="M329 334q5 24 9 47t4 40q0 26 -13 39t-38 13q-23 0 -44.5 -12t-40 -37.5t-33.5 -63.5t-26 -89l-58 -271h-83l115 537h67l-10 -80h3q12 20 26.5 36.5t31.5 28.5t36.5 18.5t41.5 6.5q33 0 57 -12t38 -37t14 -62q0 -22 -4.5 -48t-8.5 -49l-124 -579h-82zM240 605l2 11
l83 159h99l-2 -9l-128 -161h-54z" />
    <glyph glyph-name="iotatonos" unicode="&#x3af;" horiz-adv-x="239" 
d="M125 -10q-32 1 -54 11.5t-32.5 32.5t-10.5 53q0 14 2 29t6 33l82 387h84l-83 -389q-3 -12 -4.5 -22t-1.5 -19q0 -23 10.5 -33t29.5 -10q11 0 23 2.5t23 6.5l-15 -72q-12 -4 -27 -7t-32 -3zM154 605l2 11l83 159h99l-2 -9l-128 -161h-54z" />
    <glyph glyph-name="upsilondieresistonos" unicode="&#x3b0;" horiz-adv-x="451" 
d="M164 -9q-46 0 -79 19t-45 59t1 104l77 363h81l-79 -367q-11 -51 1 -78.5t53 -27.5q56 0 94 50t58 146q7 31 11.5 67.5t7 73.5t2.5 72t-2 64h79q5 -38 4.5 -85.5t-5.5 -98t-15 -99.5q-18 -84 -51.5 -142.5t-82 -89t-110.5 -30.5zM257 605l2 11l73 159h99l-2 -9l-118 -161
h-54zM192 619q-18 0 -28 13t-5 39t20.5 38t34.5 12q18 0 27.5 -12.5t4.5 -37.5q-5 -26 -20.5 -39t-33.5 -13zM438 619q-19 0 -28 13t-4 39q4 26 20 38t34 12t28.5 -12.5t5.5 -37.5q-5 -26 -21 -39t-35 -13z" />
    <glyph glyph-name="alpha" unicode="&#x3b1;" horiz-adv-x="473" 
d="M144 -10q-54 0 -84.5 40.5t-30.5 117.5q0 53 10 109t29.5 107.5t47 92.5t63 65t77.5 24q31 0 51 -9.5t34 -27.5t22 -46h4l26 73h64l-84 -396q-3 -14 -5 -26t-2 -23q0 -15 6 -23t20 -8q7 0 14.5 1.5t16.5 3.5l-14 -65q-5 -2 -14 -4.5t-18.5 -4t-18.5 -1.5q-30 0 -46 10.5
t-21.5 31t-5.5 47.5h-3q-21 -29 -42.5 -49t-44.5 -30t-51 -10zM172 59q34 0 62 28t49 71t33 88q10 41 15 76t5 64q0 44 -17.5 67t-52.5 23q-29 0 -53.5 -22t-43.5 -57.5t-31.5 -78.5t-19 -85.5t-6.5 -78.5q0 -48 15 -71.5t45 -23.5z" />
    <glyph glyph-name="beta" unicode="&#x3b2;" horiz-adv-x="476" 
d="M-41 -235l169 798q13 62 36.5 107t64 70t103.5 25q48 0 82 -17.5t52.5 -50.5t18.5 -78q0 -54 -20.5 -100t-57 -77.5t-87.5 -41.5q46 -9 80 -45t34 -106q0 -48 -14 -93.5t-42 -83.5t-70 -60t-97 -22q-33 0 -65 11.5t-52 27.5l-57 -264h-78zM209 61q37 0 64.5 17.5t45 45
t26 60t8.5 63.5q0 39 -11 65t-33.5 39.5t-58.5 13.5h-30l14 66h29q35 0 61 16t43 41.5t26 56.5t9 61q0 44 -19.5 67t-56.5 23q-34 0 -57.5 -16t-37.5 -45.5t-23 -70.5l-99 -467q17 -17 45.5 -26.5t54.5 -9.5z" />
    <glyph glyph-name="gamma" unicode="&#x3b3;" horiz-adv-x="390" 
d="M28 -210l49 229l-21 517h80l4 -317q0 -25 0.5 -50t0.5 -47.5t-1 -39.5h4q52 64 88 134.5t57.5 149.5t30.5 170h81q-11 -104 -40 -194.5t-80 -174t-129 -165.5l-45 -212h-79z" />
    <glyph glyph-name="delta" unicode="&#x3b4;" horiz-adv-x="452" 
d="M188 -10q-52 0 -88 23.5t-54 63.5t-18 90q0 71 24 132t70.5 105t112.5 65q-28 35 -43 65.5t-15 73.5q0 47 21 81.5t59 54t88 19.5q49 0 85.5 -14t57.5 -30l-38 -63q-22 17 -48.5 27.5t-59.5 10.5q-41 0 -63 -22.5t-22 -59.5q0 -25 8.5 -46.5t24 -42.5t34.5 -44
q27 -31 46 -64.5t30 -71.5t11 -85q0 -52 -13.5 -100t-41 -86t-69.5 -60t-99 -22zM196 59q35 0 60 19t41.5 49t24 64t7.5 64q0 37 -7 68t-20.5 57.5t-31.5 45.5q-49 -15 -84.5 -54t-55.5 -91t-20 -108q0 -32 10 -58t29.5 -41t46.5 -15z" />
    <glyph glyph-name="epsilon" unicode="&#x3b5;" horiz-adv-x="334" 
d="M158 -10q-53 0 -85.5 21t-45.5 57t-8 81q6 63 38 96.5t77 41.5v4q-32 17 -47 44.5t-10 73.5q3 44 26 75t58.5 46.5t75.5 15.5q38 0 66 -8.5t53 -26.5l-31 -67q-17 14 -38.5 22t-45.5 8q-25 0 -44 -8t-30 -24t-14 -42q-4 -37 12 -58t55 -21h47l-14 -66h-43
q-30 0 -53 -10.5t-37.5 -32t-18.5 -55.5q-5 -45 13 -71.5t62 -26.5q25 0 50 7t52 23v-70q-20 -15 -52.5 -22t-67.5 -7z" />
    <glyph glyph-name="zeta" unicode="&#x3b6;" horiz-adv-x="331" 
d="M154 -202q28 40 40 66.5t15 48.5q3 19 0 32t-16.5 23.5t-41.5 19.5q-51 17 -82 49.5t-42 77.5t-3 99q6 43 21 81t38.5 77.5t56.5 85t76 101.5l107 139q-10 -2 -27 -3t-38 -2t-45 -1h-101l14 68h298l-11 -52l-136 -180q-61 -79 -95 -136t-50 -98.5t-22 -78.5
q-4 -29 0 -59.5t25.5 -56.5t70.5 -44q36 -13 57 -30t28.5 -41t2.5 -60q-3 -24 -11.5 -45t-20.5 -40.5t-26 -40.5h-82z" />
    <glyph glyph-name="eta" unicode="&#x3b7;" horiz-adv-x="461" 
d="M329 334q5 24 9 47t4 40q0 26 -13 39t-38 13q-23 0 -44.5 -12t-40 -37.5t-33.5 -63.5t-26 -89l-58 -271h-83l115 537h67l-10 -80h3q12 20 26.5 36.5t31.5 28.5t36.5 18.5t41.5 6.5q33 0 57 -12t38 -37t14 -62q0 -22 -4.5 -48t-8.5 -49l-124 -579h-82z" />
    <glyph glyph-name="theta" unicode="&#x3b8;" horiz-adv-x="447" 
d="M33 181q0 33 3 70t10 77t16 82q16 71 39 136t54 115t71.5 79t91.5 29q42 0 72.5 -19.5t46.5 -61.5t16 -111q0 -44 -7 -99.5t-19.5 -113.5t-30.5 -108q-19 -61 -42 -110t-50.5 -84t-61 -53.5t-74.5 -18.5q-44 0 -74 21t-45.5 63.5t-15.5 106.5zM111 178q0 -62 16 -91
t48 -29q28 0 52 21.5t44.5 60.5t38 93.5t32.5 121.5h-210q-11 -56 -16 -100.5t-5 -76.5zM146 422h210q8 49 12.5 90.5t4.5 72.5q0 59 -15 87.5t-47 28.5q-27 0 -50.5 -19.5t-44 -56t-37.5 -88t-33 -115.5z" />
    <glyph glyph-name="iota" unicode="&#x3b9;" horiz-adv-x="239" 
d="M125 -10q-32 1 -54 11.5t-32.5 32.5t-10.5 53q0 14 2 29t6 33l82 387h84l-83 -389q-3 -12 -4.5 -22t-1.5 -19q0 -23 10.5 -33t29.5 -10q11 0 23 2.5t23 6.5l-15 -72q-12 -4 -27 -7t-32 -3z" />
    <glyph glyph-name="kappa" unicode="&#x3ba;" horiz-adv-x="401" 
d="M8 0l114 536h81l-31 -141q-6 -25 -13.5 -54t-15.5 -58h2l206 253h90l-182 -221l83 -315h-86l-64 254l-64 -64l-39 -190h-81z" />
    <glyph glyph-name="lambda" unicode="&#x3bb;" horiz-adv-x="437" 
d="M324 -10q-27 0 -44 11.5t-25.5 35.5t-9.5 62l-7 185q-1 14 -2 30t-2 33t-1 33v29h-4q-8 -22 -20 -46.5t-22 -46.5l-143 -316h-87l261 531l-5 87q-3 44 -22 59t-47 15q-12 0 -24.5 -2t-21.5 -4l15 71q8 2 17.5 4t19.5 3t20 1q35 0 61.5 -13.5t42.5 -45.5t19 -86l29 -497
q1 -22 5 -35.5t12 -19t19 -5.5q8 0 16 1.5t13 3.5l-14 -70q-7 -2 -15 -4t-16.5 -3t-17.5 -1z" />
    <glyph glyph-name="nu" unicode="&#x3bd;" horiz-adv-x="390" 
d="M77 0l-21 536h80l4 -317q0 -25 0.5 -50t0.5 -47.5t-1 -39.5h4q52 64 88 134.5t57.5 149.5t30.5 170h81q-11 -104 -40 -194.5t-80.5 -174t-130.5 -167.5h-73z" />
    <glyph glyph-name="xi" unicode="&#x3be;" horiz-adv-x="398" 
d="M171 -202q18 26 29 45t17.5 35.5t9.5 34.5q5 27 -5.5 44t-48.5 30q-42 15 -75.5 38.5t-51.5 63t-14 99.5q4 56 25 99.5t57 72.5t85 40l1 4q-40 15 -57.5 50.5t-13.5 78.5q2 30 12.5 56.5t27.5 47.5t39 36.5t47 24.5q-10 -1 -18.5 -2.5t-18 -2t-22.5 -0.5l-63 -1l15 67
l291 1l-13 -64h-26q-31 0 -58 -7t-49.5 -21t-40 -33t-27 -43t-12.5 -52q-2 -31 6.5 -55t30.5 -37.5t58 -13.5h47l-15 -69h-50q-40 0 -71 -11t-51.5 -31t-32.5 -47t-15 -58q-4 -46 6 -77t36.5 -52t69.5 -37q36 -13 55 -31.5t24 -43t0 -56.5q-4 -23 -12.5 -44t-20 -40
t-25.5 -39h-82z" />
    <glyph glyph-name="omicron" unicode="&#x3bf;" horiz-adv-x="454" 
d="M181 -9q-46 0 -80 20t-51.5 59.5t-17.5 95.5q0 43 8.5 94t27 101.5t46.5 92t68 66.5t91 25q47 0 80.5 -20.5t51 -60t17.5 -96.5q0 -49 -9.5 -101.5t-28 -102t-47.5 -88.5t-68 -62t-88 -23zM189 60q27 0 50.5 18.5t42 51t31.5 73t20 84.5t7 86q0 30 -8 53.5t-23.5 36.5
t-41.5 13q-31 0 -55.5 -20.5t-43 -55t-30.5 -75.5t-18.5 -83t-6.5 -78q0 -50 19.5 -77t56.5 -27z" />
    <glyph glyph-name="pi" unicode="&#x3c0;" horiz-adv-x="480" 
d="M355 -8q-39 0 -61 21t-22 64q0 13 2.5 29.5t6.5 36.5l68 324h-138l-100 -467h-80l100 467h-81l14 69h457l-13 -69h-78l-71 -331q-2 -11 -3.5 -22t-1.5 -21q0 -15 7.5 -22.5t21.5 -7.5q9 0 18 2.5t15 4.5v-64q-13 -7 -29 -10.5t-32 -3.5z" />
    <glyph glyph-name="rho" unicode="&#x3c1;" horiz-adv-x="452" 
d="M74 308q12 56 28.5 100t40 74.5t56 47t75.5 16.5q49 0 81.5 -21t49 -59.5t16.5 -93.5q0 -45 -8.5 -97t-25 -102t-42.5 -91.5t-60.5 -66.5t-77.5 -25q-39 0 -66.5 13.5t-46.5 35.5q-2 -23 -7 -46t-10 -50l-39 -183h-79zM197 59q28 0 50 21t39.5 55t28.5 74.5t17 83t6 78.5
q0 49 -16.5 77t-54.5 28q-29 0 -50.5 -20t-37 -61.5t-29.5 -106.5l-38 -182q13 -19 34 -33t51 -14z" />
    <glyph glyph-name="uni03C2" unicode="&#x3c2;" horiz-adv-x="392" 
d="M165 -202q18 27 29.5 46t18 35.5t9.5 34.5t-1.5 31t-17 23.5t-37.5 18.5q-41 14 -71 38.5t-46 62.5t-15 93q0 44 9.5 94.5t29 98t48.5 87t68 62.5t88 23q28 0 56 -6t50 -18l-30 -67q-14 9 -35.5 15t-40.5 6q-31 0 -56.5 -18.5t-45 -49t-33 -67.5t-20 -75.5t-6.5 -72.5
t10 -60t33 -45.5t60 -32.5q35 -13 56 -29.5t28.5 -41t2.5 -60.5q-4 -24 -12.5 -45.5t-20 -41t-26.5 -39.5h-82z" />
    <glyph glyph-name="sigma" unicode="&#x3c3;" horiz-adv-x="453" 
d="M181 -10q-58 0 -94 34t-48 95t1 142q17 97 52.5 157.5t90.5 89t128 28.5h182l-15 -69h-99q31 -42 36 -98t-6 -125q-9 -56 -29 -103t-49.5 -80.5t-67.5 -52t-82 -18.5zM192 59q53 0 86.5 50t48.5 140q6 40 7.5 79.5t-5 75.5t-24.5 63h-16q-45 0 -78.5 -21t-55.5 -66.5
t-34 -119.5q-10 -62 -5.5 -107.5t23.5 -69.5t53 -24z" />
    <glyph glyph-name="tau" unicode="&#x3c4;" horiz-adv-x="324" 
d="M183 -11q-46 0 -73.5 24t-27.5 75q0 16 3.5 37.5t8.5 45.5l63 296h-107l15 69h309l-15 -69h-122l-64 -303q-4 -18 -6.5 -33t-2.5 -28q0 -20 10.5 -32t31.5 -12q13 0 26 3t26 8v-64q-15 -8 -35.5 -12.5t-39.5 -4.5z" />
    <glyph glyph-name="upsilon" unicode="&#x3c5;" horiz-adv-x="451" 
d="M164 -9q-46 0 -79 19t-45 59t1 104l77 363h81l-79 -367q-11 -51 1 -78.5t53 -27.5q56 0 94 50t58 146q7 31 11.5 67.5t7 73.5t2.5 72t-2 64h79q5 -38 4.5 -85.5t-5.5 -98t-15 -99.5q-18 -84 -51.5 -142.5t-82 -89t-110.5 -30.5z" />
    <glyph glyph-name="phi" unicode="&#x3c6;" horiz-adv-x="583" 
d="M142 -240l49 232q-44 6 -79 31.5t-55 69.5t-20 106q0 65 18 129t52.5 120t85.5 94l53 -43q-39 -32 -67.5 -79t-44 -102.5t-15.5 -115.5q0 -42 11 -72.5t30.5 -48t45.5 -21.5l67 322q11 50 30.5 87t51 57t75.5 20q40 0 68 -18.5t43 -55t15 -88.5q0 -53 -11 -107
t-34.5 -104t-58 -90t-81 -64.5t-105.5 -28.5l-48 -230h-76zM282 59q43 5 74.5 28.5t54 59.5t36.5 77.5t20.5 83t6.5 76.5q0 33 -6 53t-17 30t-26 10q-26 0 -45 -23.5t-32 -81.5z" />
    <glyph glyph-name="chi" unicode="&#x3c7;" horiz-adv-x="447" 
d="M293 -240q-32 0 -51.5 10t-29 34t-15.5 65l-61 537q-4 35 -13 50.5t-29 15.5q-9 0 -17.5 -1.5t-15.5 -3.5l15 68q10 3 22 5.5t27 2.5q27 0 44 -9.5t27 -32t14 -62.5l60 -530q4 -30 7.5 -47t12.5 -24t26 -7q9 0 18.5 1.5t16.5 2.5l-15 -68q-7 -2 -13 -4t-13 -2.5t-17 -0.5
zM-66 -240l241 405l13 -103l-168 -302h-86zM234 124l-14 102l171 311h86z" />
    <glyph glyph-name="psi" unicode="&#x3c8;" horiz-adv-x="565" 
d="M143 -240l49 231q-61 2 -97.5 28t-47 80.5t7.5 140.5l63 296h81l-63 -294q-13 -62 -8.5 -100t25 -56.5t54.5 -22.5l149 701h78l-149 -700q42 4 71.5 27.5t51 67.5t35.5 107q8 39 13.5 85t7 93.5t-2.5 91.5h81q4 -46 2.5 -94t-6.5 -94t-13 -83q-18 -85 -54 -145
t-86.5 -92.5t-114.5 -36.5l-49 -231h-78z" />
    <glyph glyph-name="omega" unicode="&#x3c9;" horiz-adv-x="619" 
d="M157 -10q-38 0 -63.5 19t-38 53.5t-13.5 80.5t9 98q13 68 32.5 121.5t46 96.5t59.5 77h82q-32 -32 -58 -74.5t-46.5 -98.5t-34.5 -128q-8 -48 -8 -86.5t12 -61.5t37 -23q23 0 40 17t30 49t22 78l30 146h80l-30 -146q-10 -48 -7.5 -79.5t16 -47.5t35.5 -17q25 0 44.5 18.5
t34 55t24.5 90.5q12 63 12.5 121t-6.5 106t-17 81h81q11 -35 18.5 -82.5t7 -105t-12.5 -121.5q-13 -73 -37.5 -126.5t-62.5 -82t-93 -28.5q-28 0 -50 10.5t-34.5 32.5t-14.5 54h-3q-14 -32 -32 -54t-40 -32.5t-51 -10.5z" />
    <glyph glyph-name="iotadieresis" unicode="&#x3ca;" horiz-adv-x="239" 
d="M125 -10q-32 1 -54 11.5t-32.5 32.5t-10.5 53q0 14 2 29t6 33l82 387h84l-83 -389q-3 -12 -4.5 -22t-1.5 -19q0 -23 10.5 -33t29.5 -10q11 0 23 2.5t23 6.5l-15 -72q-12 -4 -27 -7t-32 -3zM266 636q-17 0 -27 9.5t-10 28.5q0 26 14 44.5t39 18.5q18 0 26.5 -9.5
t8.5 -26.5q0 -29 -14.5 -47t-36.5 -18zM108 636q-17 0 -27 9.5t-10 28.5q0 26 14 44.5t39 18.5q11 0 18.5 -4t11.5 -12t4 -20q0 -29 -14 -47t-36 -18z" />
    <glyph glyph-name="upsilondieresis" unicode="&#x3cb;" horiz-adv-x="451" 
d="M164 -9q-46 0 -79 19t-45 59t1 104l77 363h81l-79 -367q-11 -51 1 -78.5t53 -27.5q56 0 94 50t58 146q7 31 11.5 67.5t7 73.5t2.5 72t-2 64h79q5 -38 4.5 -85.5t-5.5 -98t-15 -99.5q-18 -84 -51.5 -142.5t-82 -89t-110.5 -30.5zM368 636q-17 0 -27 9.5t-10 28.5
q0 26 14 44.5t39 18.5q18 0 26.5 -9.5t8.5 -26.5q0 -29 -14.5 -47t-36.5 -18zM210 636q-17 0 -27 9.5t-10 28.5q0 26 14 44.5t39 18.5q11 0 18.5 -4t11.5 -12t4 -20q0 -29 -14 -47t-36 -18z" />
    <glyph glyph-name="omicrontonos" unicode="&#x3cc;" horiz-adv-x="454" 
d="M181 -9q-46 0 -80 20t-51.5 59.5t-17.5 95.5q0 43 8.5 94t27 101.5t46.5 92t68 66.5t91 25q47 0 80.5 -20.5t51 -60t17.5 -96.5q0 -49 -9.5 -101.5t-28 -102t-47.5 -88.5t-68 -62t-88 -23zM189 60q27 0 50.5 18.5t42 51t31.5 73t20 84.5t7 86q0 30 -8 53.5t-23.5 36.5
t-41.5 13q-31 0 -55.5 -20.5t-43 -55t-30.5 -75.5t-18.5 -83t-6.5 -78q0 -50 19.5 -77t56.5 -27zM270 600l2 11l83 159h99l-2 -9l-128 -161h-54z" />
    <glyph glyph-name="upsilontonos" unicode="&#x3cd;" horiz-adv-x="451" 
d="M164 -9q-46 0 -79 19t-45 59t1 104l77 363h81l-79 -367q-11 -51 1 -78.5t53 -27.5q56 0 94 50t58 146q7 31 11.5 67.5t7 73.5t2.5 72t-2 64h79q5 -38 4.5 -85.5t-5.5 -98t-15 -99.5q-18 -84 -51.5 -142.5t-82 -89t-110.5 -30.5zM256 605l2 11l83 159h99l-2 -9l-128 -161
h-54z" />
    <glyph glyph-name="omegatonos" unicode="&#x3ce;" horiz-adv-x="619" 
d="M157 -10q-38 0 -63.5 19t-38 53.5t-13.5 80.5t9 98q13 68 32.5 121.5t46 96.5t59.5 77h82q-32 -32 -58 -74.5t-46.5 -98.5t-34.5 -128q-8 -48 -8 -86.5t12 -61.5t37 -23q23 0 40 17t30 49t22 78l30 146h80l-30 -146q-10 -48 -7.5 -79.5t16 -47.5t35.5 -17q25 0 44.5 18.5
t34 55t24.5 90.5q12 63 12.5 121t-6.5 106t-17 81h81q11 -35 18.5 -82.5t7 -105t-12.5 -121.5q-13 -73 -37.5 -126.5t-62.5 -82t-93 -28.5q-28 0 -50 10.5t-34.5 32.5t-14.5 54h-3q-14 -32 -32 -54t-40 -32.5t-51 -10.5zM366 605l2 11l83 159h99l-2 -9l-128 -161h-54z" />
    <glyph glyph-name="uni0401" unicode="&#x401;" horiz-adv-x="407" 
d="M17 0l151 714h290l-16 -74h-207l-48 -230h193l-16 -74h-193l-56 -262h208l-16 -74h-290zM371 848q5 23 17 35.5t30 12.5q22 0 31.5 -15.5t4.5 -42.5q-5 -22 -17 -35t-30 -13q-23 0 -32 16t-4 42zM224 848q5 23 17 35.5t30 12.5q23 0 32.5 -15.5t3.5 -42.5q-5 -22 -17 -35
t-30 -13q-22 0 -31.5 16t-4.5 42z" />
    <glyph glyph-name="uni0402" unicode="&#x402;" horiz-adv-x="526" 
d="M292 -10q-15 0 -30.5 2.5t-29.5 7.5v73q11 -4 23.5 -6.5t25.5 -2.5q38 0 64 25t39.5 67t13.5 91q0 52 -24 81t-74 29q-24 0 -49.5 -5.5t-49.5 -17.5l33 35l-78 -369h-83l136 639h-122l16 75h362l-16 -75h-158l-51 -238l-22 10q23 10 49 15t52 5q81 0 123 -48.5t42 -130.5
q0 -47 -12.5 -93.5t-36 -84.5t-59.5 -61t-84 -23z" />
    <glyph glyph-name="uni0403" unicode="&#x403;" horiz-adv-x="368" 
d="M17 0l151 714h277l-15 -75h-195l-135 -639h-83zM274 794l110 150h96l-1 -9l-153 -151h-52v10z" />
    <glyph glyph-name="uni0404" unicode="&#x404;" horiz-adv-x="457" 
d="M253 -10q-63 0 -106.5 25.5t-68 74.5t-27.5 120.5t17 163.5q17 83 46.5 147.5t69.5 110t90.5 69.5t109.5 24q35 0 69.5 -8.5t63.5 -25.5l-34 -71q-27 15 -52.5 22.5t-50.5 7.5q-41 0 -76 -19t-63.5 -55.5t-50.5 -90t-37 -123.5q-21 -98 -14.5 -164.5t38.5 -99.5t88 -33
q28 0 57 6t53 16v-75q-26 -10 -57 -16t-65 -6zM124 334l17 74h250l-16 -74h-251z" />
    <glyph glyph-name="uni0405" unicode="&#x405;" horiz-adv-x="415" 
d="M135 -10q-45 0 -82 8.5t-63 24.5l7 85q27 -18 63 -29.5t77 -11.5q33 0 60 10.5t46 32t25 52.5q8 36 1 64t-28.5 55t-56.5 59q-45 40 -69 76.5t-29 74.5t4 79q10 49 39 83.5t72.5 53t96.5 18.5q41 0 80 -11t66 -28l-37 -74q-24 16 -53.5 26t-59.5 10t-55 -10.5
t-41.5 -30.5t-22.5 -49q-8 -39 1.5 -68t32.5 -53t53 -50q49 -41 71 -81t25 -79.5t-5 -79.5q-11 -48 -39.5 -83.5t-73.5 -54.5t-105 -19z" />
    <glyph glyph-name="uni0406" unicode="&#x406;" horiz-adv-x="230" 
d="M17 0l151 714h83l-151 -714h-83z" />
    <glyph glyph-name="uni0407" unicode="&#x407;" horiz-adv-x="230" 
d="M17 0l151 714h83l-151 -714h-83zM176 790q-21 0 -31 16.5t-4 42.5q5 22 17 34.5t30 12.5q21 0 30.5 -16t4.5 -42q-5 -22 -17 -35t-30 -13zM288 790q-23 0 -32 16.5t-4 42.5q5 22 17 34.5t30 12.5q21 0 31 -15.5t5 -42.5q-5 -22 -17 -35t-30 -13z" />
    <glyph glyph-name="uni0408" unicode="&#x408;" horiz-adv-x="223" 
d="M-81 -191q-18 0 -34.5 2.5t-27.5 6.5l1 76q12 -5 26.5 -7.5t28.5 -2.5q43 0 65.5 29.5t35.5 89.5l150 711h83l-153 -724q-13 -64 -36.5 -104t-57.5 -58.5t-81 -18.5z" />
    <glyph glyph-name="uni0409" unicode="&#x409;" horiz-adv-x="764" 
d="M8 -7q-14 0 -27 2t-25 6v75q10 -3 20.5 -5t21.5 -2q25 0 43.5 11.5t33.5 39t28 76.5l140 518h313l-58 -279h43q71 0 115 -29.5t60.5 -82.5t1.5 -127q-21 -99 -84.5 -147.5t-168.5 -48.5h-142l136 639h-156l-127 -465q-17 -64 -40 -104t-54.5 -58.5t-73.5 -18.5zM422 73
h52q67 0 106 31.5t53 102.5q16 76 -11 115.5t-94 39.5h-45z" />
    <glyph glyph-name="uni040A" unicode="&#x40a;" horiz-adv-x="755" 
d="M17 0l151 714h83l-62 -292h214l62 292h83l-63 -293h44q70 0 114.5 -28t61.5 -80t2 -124q-19 -95 -82 -142t-172 -47h-139l73 348h-214l-73 -348h-83zM412 73h51q70 0 108.5 31t51.5 96q14 72 -13 110t-93 38h-47z" />
    <glyph glyph-name="uni040B" unicode="&#x40b;" horiz-adv-x="539" 
d="M72 0l136 639h-121l16 75h361l-16 -75h-157l-53 -240l-21 11q26 11 54 16t57 5q88 0 130 -51.5t23 -141.5l-50 -238h-83l50 236q12 60 -11 90.5t-80 30.5q-25 0 -52 -5.5t-56 -18.5l35 40l-79 -373h-83z" />
    <glyph glyph-name="uni040C" unicode="&#x40c;" horiz-adv-x="471" 
d="M324 0l-103 360l-2 19l242 335h93l-259 -355l1 27l115 -386h-87zM17 0l151 714h83l-151 -714h-83zM155 335l16 74h127l-16 -74h-127zM328 794l110 150h96l-1 -9l-153 -151h-52v10z" />
    <glyph glyph-name="uni040E" unicode="&#x40e;" horiz-adv-x="432" 
d="M41 -9q-12 0 -26.5 1.5t-27.5 6.5v74q12 -4 24 -5.5t21 -1.5q24 0 42.5 8t35.5 28t36.5 56t46.5 92l-19 -80l-72 544h83l36 -299q2 -18 4 -40t3.5 -42.5t1.5 -35.5q11 26 23 55.5t26 57.5l148 304h89l-281 -558q-28 -53 -55.5 -90t-60 -56t-78.5 -19zM321 780
q-59 0 -89.5 29.5t-30.5 85.5q0 2 0.5 7t1.5 12h66v-10v-6q0 -33 12.5 -47.5t42.5 -14.5q36 0 56 19.5t29 58.5h69q-13 -65 -53 -99.5t-104 -34.5z" />
    <glyph glyph-name="uni040F" unicode="&#x40f;" horiz-adv-x="531" 
d="M138 -147l31 147h-153l152 714h83l-136 -640h219l136 640h83l-152 -714h-151l-31 -147h-81z" />
    <glyph glyph-name="uni0410" unicode="&#x410;" horiz-adv-x="458" 
d="M-55 0l326 716h100l28 -716h-84l-8 226h-171l-100 -226h-91zM167 301h140l-2 220q-2 29 -2 57.5t1 51.5h-3q-8 -23 -18.5 -50.5t-24.5 -59.5z" />
    <glyph glyph-name="uni0411" unicode="&#x411;" horiz-adv-x="458" 
d="M17 0l151 714h306l-16 -75h-224l-46 -215h38q73 0 119 -28t62.5 -80t1.5 -125q-22 -100 -86.5 -145.5t-165.5 -45.5h-140zM115 73h51q65 0 104.5 29t53.5 98q15 74 -12.5 112.5t-97.5 38.5h-41z" />
    <glyph glyph-name="uni0412" unicode="&#x412;" horiz-adv-x="484" 
d="M17 0l151 714h137q67 0 110 -24.5t59.5 -68.5t4.5 -104q-13 -59 -48.5 -95t-92.5 -48l-1 -4q37 -10 59.5 -37.5t30 -67t-1.5 -87.5q-18 -85 -79 -131.5t-155 -46.5h-174zM115 72h80q61 0 97 29.5t47 87.5q10 45 1 78.5t-33.5 52t-65.5 18.5h-70zM186 408h74q54 0 88 28.5
t45 81.5q12 59 -14.5 91.5t-86.5 32.5h-57z" />
    <glyph glyph-name="uni0413" unicode="&#x413;" horiz-adv-x="368" 
d="M17 0l151 714h277l-15 -75h-195l-135 -639h-83z" />
    <glyph glyph-name="uni0414" unicode="&#x414;" horiz-adv-x="571" 
d="M-84 -147l46 222h57q35 41 60.5 79.5t46 87t39.5 119.5l96 353h320l-137 -639h80l-47 -222h-82l32 147h-398l-32 -147h-81zM116 75h246l120 564h-162l-76 -280q-18 -70 -37 -120t-41 -89t-50 -75z" />
    <glyph glyph-name="uni0415" unicode="&#x415;" horiz-adv-x="407" 
d="M17 0l151 714h290l-16 -74h-207l-48 -230h193l-16 -74h-193l-56 -262h208l-16 -74h-290z" />
    <glyph glyph-name="uni0416" unicode="&#x416;" horiz-adv-x="673" 
d="M-54 0l282 399l12 -73l-112 388h77l97 -339l-19 -33l-240 -342h-97zM245 0l151 714h81l-152 -714h-80zM248 335l17 74h240l-16 -74h-241zM527 0l-99 360l1 20l239 334h92l-257 -355v28l110 -387h-86z" />
    <glyph glyph-name="uni0417" unicode="&#x417;" horiz-adv-x="437" 
d="M137 -10q-40 0 -78 7.5t-65 19.5v80q28 -15 64.5 -24t73.5 -9q45 0 77.5 13t53 39.5t28.5 66.5q9 45 -1 79.5t-37.5 53.5t-71.5 19h-67l15 73h70q42 0 73 12.5t51 38.5t27 63q7 40 -3 68.5t-36 44.5t-66 16q-26 0 -55.5 -7.5t-56.5 -20.5l-24 70q31 15 69.5 23.5
t75.5 8.5q65 0 109 -26t63 -72t7 -106q-8 -42 -29 -73t-53 -50t-75 -26l-1 -4q42 -10 67.5 -39t34 -70t-2.5 -91q-12 -58 -44 -98t-80.5 -60t-112.5 -20z" />
    <glyph glyph-name="uni0418" unicode="&#x418;" horiz-adv-x="555" 
d="M17 0l151 714h83l-68 -325q-9 -39 -19 -82t-20.5 -83.5t-19.5 -74.5h3l353 565h96l-151 -714h-82l68 320q6 32 14.5 67.5t17 69.5t16.5 63t14 49h-4l-355 -569h-97z" />
    <glyph glyph-name="uni0419" unicode="&#x419;" horiz-adv-x="555" 
d="M17 0l151 714h83l-68 -325q-9 -39 -19 -82t-20.5 -83.5t-19.5 -74.5h3l353 565h96l-151 -714h-82l68 320q6 32 14.5 67.5t17 69.5t16.5 63t14 49h-4l-355 -569h-97zM388 782q-59 0 -89.5 29.5t-30.5 85.5q0 2 0.5 7t1.5 12h66v-10v-6q0 -33 12.5 -47.5t42.5 -14.5
q36 0 56 19.5t29 58.5h69q-13 -65 -53 -99.5t-104 -34.5z" />
    <glyph glyph-name="uni041A" unicode="&#x41a;" horiz-adv-x="471" 
d="M324 0l-103 360l-2 19l242 335h93l-259 -355l1 27l115 -386h-87zM17 0l151 714h83l-151 -714h-83zM155 335l16 74h127l-16 -74h-127z" />
    <glyph glyph-name="uni041B" unicode="&#x41b;" horiz-adv-x="547" 
d="M8 -7q-14 0 -27 2t-25 6v75q10 -3 20 -5t20 -2q26 0 44.5 11.5t34 39t28.5 76.5l140 518h326l-152 -714h-83l137 639h-168l-127 -465q-17 -64 -40 -104t-54.5 -58.5t-73.5 -18.5z" />
    <glyph glyph-name="uni041C" unicode="&#x41c;" horiz-adv-x="707" 
d="M17 0l151 714h116l36 -584h2l280 584h125l-151 -714h-82l99 466q6 24 11 45.5t9.5 42t9.5 37.5h-3l-286 -591h-77l-39 590h-2q-4 -20 -7.5 -43t-7.5 -46.5t-9 -45.5l-96 -455h-79z" />
    <glyph glyph-name="uni041D" unicode="&#x41d;" horiz-adv-x="543" 
d="M17 0l151 714h83l-65 -305h230l65 305h83l-152 -714h-82l70 334h-230l-70 -334h-83z" />
    <glyph glyph-name="uni041E" unicode="&#x41e;" horiz-adv-x="550" 
d="M240 -10q-47 0 -83.5 17t-60 50t-35 81t-9.5 109t18 135q36 170 105.5 256.5t172.5 86.5q48 0 84 -17.5t59.5 -50t35 -80.5t9.5 -109t-18 -135q-36 -170 -105 -256.5t-173 -86.5zM243 64q67 0 113.5 69t75.5 210q21 99 18 167.5t-29.5 104.5t-76.5 36q-65 0 -112 -69.5
t-76 -209.5q-21 -99 -18 -167.5t29.5 -104.5t75.5 -36z" />
    <glyph glyph-name="uni041F" unicode="&#x41f;" horiz-adv-x="532" 
d="M17 0l151 714h385l-151 -714h-83l136 639h-220l-135 -639h-83z" />
    <glyph glyph-name="uni0420" unicode="&#x420;" horiz-adv-x="458" 
d="M17 0l151 714h124q70 0 115.5 -28.5t62.5 -82t1 -127.5q-20 -99 -83.5 -148t-171.5 -49h-57l-59 -279h-83zM174 352h52q70 0 108.5 32t51.5 102q16 77 -11 116t-94 39h-45z" />
    <glyph glyph-name="uni0421" unicode="&#x421;" horiz-adv-x="456" 
d="M251 -10q-62 0 -105.5 25.5t-67.5 75t-26.5 121t16.5 162.5q17 85 47 150t70 109.5t90 68t108 23.5q36 0 70 -9t63 -26l-34 -71q-26 16 -51 23.5t-51 7.5q-41 0 -76 -19t-63.5 -55t-50.5 -90t-37 -124q-21 -97 -15 -163.5t38.5 -100.5t88.5 -34q26 0 53.5 6.5t51.5 16.5
v-76q-26 -9 -56.5 -15t-62.5 -6z" />
    <glyph glyph-name="uni0422" unicode="&#x422;" horiz-adv-x="389" 
d="M96 0l135 639h-145l17 75h372l-16 -75h-145l-135 -639h-83z" />
    <glyph glyph-name="uni0423" unicode="&#x423;" horiz-adv-x="432" 
d="M41 -9q-12 0 -26.5 1.5t-27.5 6.5v74q12 -4 24 -5.5t21 -1.5q24 0 42.5 8t35.5 28t36.5 56t46.5 92l-19 -80l-72 544h83l36 -299q2 -18 4 -40t3.5 -42.5t1.5 -35.5q11 26 23 55.5t26 57.5l148 304h89l-281 -558q-28 -53 -55.5 -90t-60 -56t-78.5 -19z" />
    <glyph glyph-name="uni0424" unicode="&#x424;" horiz-adv-x="668" 
d="M275 89q-82 2 -135.5 40t-73 105.5t-0.5 157.5q27 125 110 187.5t217 62.5l-14 -72q-96 0 -152 -45t-78 -143q-16 -70 -4.5 -120.5t48.5 -76.5t95 -25zM231 -10l26 123l8 36l96 441l7 33l22 103h82l-22 -103l-8 -33l-95 -442l-7 -34l-26 -124h-83zM317 89l14 72
q98 -1 153 44t76 143q16 71 5 121t-47.5 76t-96.5 25l14 72q82 -1 135.5 -39t73 -106t-0.5 -159q-26 -124 -108 -186.5t-218 -62.5z" />
    <glyph glyph-name="uni0425" unicode="&#x425;" horiz-adv-x="417" 
d="M-52 0l258 408l-13 -68l-80 374h85l57 -302l-26 4l179 298h89l-236 -377l12 67l82 -404h-88l-56 330l25 -4l-199 -326h-89z" />
    <glyph glyph-name="uni0426" unicode="&#x426;" horiz-adv-x="538" 
d="M362 -147l32 147h-381l152 714h83l-137 -639h219l136 639h83l-136 -639h79l-48 -222h-82z" />
    <glyph glyph-name="uni0427" unicode="&#x427;" horiz-adv-x="514" 
d="M301 0l70 336l31 -31q-24 -10 -48.5 -17.5t-49.5 -11t-51 -3.5q-91 0 -130.5 54t-19.5 148l51 239h83l-52 -240q-14 -65 7.5 -96.5t80.5 -31.5q35 0 73 9.5t67 24.5l-40 -38l79 372h83l-151 -714h-83z" />
    <glyph glyph-name="uni0428" unicode="&#x428;" horiz-adv-x="766" 
d="M17 0l151 714h83l-137 -639h188l134 639h83l-135 -639h186l135 639h82l-151 -714h-619z" />
    <glyph glyph-name="uni0429" unicode="&#x429;" horiz-adv-x="774" 
d="M598 -147l32 147h-613l151 714h83l-136 -639h185l135 639h83l-135 -639h184l136 639h82l-136 -639h79l-48 -222h-82z" />
    <glyph glyph-name="uni042A" unicode="&#x42a;" horiz-adv-x="527" 
d="M87 0l134 639h-134l16 75h217l-59 -279h44q70 0 114 -29t60.5 -82.5t1.5 -126.5q-21 -99 -84 -148t-169 -49h-141zM185 73h52q67 0 106 31.5t54 102.5q15 76 -12 115.5t-94 39.5h-45z" />
    <glyph glyph-name="uni042B" unicode="&#x42b;" horiz-adv-x="665" 
d="M17 0l151 714h82l-58 -279h39q70 0 114 -29.5t60.5 -82.5t1.5 -126q-21 -99 -84.5 -148t-168.5 -49h-137zM115 73h48q67 0 106 31.5t54 102.5q15 76 -11.5 115.5t-94.5 39.5h-40zM452 0l152 714h82l-151 -714h-83z" />
    <glyph glyph-name="uni042C" unicode="&#x42c;" horiz-adv-x="457" 
d="M16 0l151 714h82l-58 -279h44q70 0 114.5 -29.5t60.5 -83t1 -127.5q-21 -99 -84 -147t-169 -48h-142zM114 73h54q67 0 106 31.5t53 101.5q16 77 -11 116.5t-94 39.5h-46z" />
    <glyph glyph-name="uni042D" unicode="&#x42d;" horiz-adv-x="466" 
d="M124 -10q-27 0 -58.5 4.5t-60.5 15.5v78q29 -11 59.5 -17t58.5 -6q48 0 84 18t63 53t46 86t32 117q22 101 16 170.5t-37 105t-88 35.5q-25 0 -53 -7t-56 -20l-20 72q34 15 70.5 22.5t70.5 7.5q82 0 131.5 -47t64 -134t-11.5 -209q-17 -84 -44.5 -148.5t-65.5 -108
t-88 -66t-113 -22.5zM121 332l16 74h239l-13 -74h-242z" />
    <glyph glyph-name="uni042E" unicode="&#x42e;" horiz-adv-x="747" 
d="M442 -10q-46 0 -81 17t-58 50t-33 81t-7 110t19 136q37 166 106.5 253.5t166.5 87.5q46 0 81 -17.5t57.5 -50t33 -80t8 -109.5t-19.5 -136q-36 -167 -104.5 -254.5t-168.5 -87.5zM17 0l151 714h83l-64 -304h118l-15 -74h-119l-71 -336h-83zM447 65q61 0 106 67t76 209
q23 102 21 170.5t-27.5 103t-72.5 34.5q-62 0 -107 -68t-75 -208q-23 -101 -21 -170t27.5 -103.5t72.5 -34.5z" />
    <glyph glyph-name="uni042F" unicode="&#x42f;" horiz-adv-x="470" 
d="M-41 0l221 328q-51 31 -69.5 82.5t-4.5 120.5q20 95 81.5 139t160.5 44h143l-151 -714h-83l63 298h-68l-195 -298h-98zM293 369h42l59 272h-56q-59 0 -96 -27t-51 -90q-11 -49 -1.5 -84t36 -53t67.5 -18z" />
    <glyph glyph-name="uni0430" unicode="&#x430;" horiz-adv-x="461" 
d="M143 -10q-40 0 -66.5 21t-39 60t-11.5 93t15 119q12 54 31.5 101t46 83.5t61 57t76.5 20.5q27 0 47 -9.5t34 -28t21 -43.5h4l25 72h66l-114 -536h-64l8 83h-3q-28 -41 -61.5 -67t-75.5 -26zM169 59q34 0 62.5 28t50.5 77t37 113q9 38 12 73.5t-2.5 63.5t-21 44.5
t-42.5 16.5q-34 0 -62 -27.5t-48 -73.5t-33 -103q-15 -68 -14.5 -115t16 -72t45.5 -25z" />
    <glyph glyph-name="uni0431" unicode="&#x431;" horiz-adv-x="447" 
d="M188 -10q-40 0 -70.5 14t-49.5 43t-26.5 73t-3.5 104t20 136q16 69 38.5 133t57.5 116.5t86.5 88t123.5 48.5q23 4 54 8.5t63 8.5l6 -70q-38 -5 -68.5 -10t-55.5 -10q-43 -8 -75 -27.5t-55.5 -48.5t-42 -69.5t-34.5 -92.5h4q25 35 58 56.5t74 21.5q42 0 69.5 -20
t41.5 -56.5t14.5 -86t-11.5 -108.5q-26 -122 -80.5 -187t-137.5 -65zM190 58q49 0 82 47.5t53 144.5q14 67 11.5 109.5t-21.5 63.5t-54 21q-33 0 -59 -20.5t-45.5 -61.5t-32.5 -102q-9 -48 -10 -85.5t7.5 -63.5t26 -39.5t42.5 -13.5z" />
    <glyph glyph-name="uni0432" unicode="&#x432;" horiz-adv-x="428" 
d="M193 -10q-59 0 -94.5 25.5t-51.5 68.5t-16 96t11 108q15 74 46.5 132t78.5 91.5t111 33.5q49 0 81.5 -19.5t46.5 -54.5t4 -83q-9 -43 -39.5 -70.5t-79.5 -38.5l-1 -3q31 -9 51.5 -30t27.5 -52.5t-1 -70.5t-31 -69t-59.5 -47t-84.5 -17zM198 56q36 0 60.5 21.5t31.5 61.5
q8 48 -15.5 77t-74.5 29h-103l10 65h98q35 0 61 10t42.5 28.5t22.5 44.5q8 39 -8 62.5t-51 23.5q-33 0 -62.5 -20.5t-52 -67t-37.5 -123.5q-18 -100 -0.5 -156t78.5 -56z" />
    <glyph glyph-name="uni0433" unicode="&#x433;" horiz-adv-x="360" 
d="M154 -10q-60 0 -93.5 24.5t-44.5 63t-2 82.5q8 36 28.5 62t49.5 46t63 37q29 15 52.5 29.5t39 32t20.5 39.5q6 28 -8 49.5t-54 21.5q-27 0 -52 -8.5t-47 -20.5l-22 64q31 17 65 25t68 8q55 0 86 -22t41.5 -57.5t1.5 -73.5q-7 -34 -26.5 -58.5t-47 -43t-59.5 -35.5
q-54 -28 -82.5 -51t-36.5 -57q-5 -22 0.5 -42t23 -33t50.5 -13q20 0 40 4.5t38.5 13t35.5 16.5v-72q-28 -14 -60.5 -22.5t-67.5 -8.5z" />
    <glyph glyph-name="uni0434" unicode="&#x434;" horiz-adv-x="451" 
d="M177 -10q-50 0 -83 22t-49 61t-16.5 91.5t11.5 114.5q16 71 44.5 123.5t70 81.5t92.5 29q28 0 48.5 -8t35.5 -21t24 -28h3q1 14 1 29.5v27.5q0 96 -26.5 141.5t-85.5 45.5q-21 0 -43.5 -5.5t-45.5 -16.5l-21 64q26 13 57.5 20t61.5 7q50 0 85 -20.5t56 -56.5t31 -83.5
t11 -100.5t-5.5 -108.5t-18.5 -107.5q-12 -61 -32 -115.5t-49 -96.5t-67.5 -66t-89.5 -24zM182 58q32 0 57.5 23.5t44 62t31.5 84t21 91t11 80.5l4 -51q-4 20 -12 38t-20.5 31.5t-28.5 21t-34 7.5q-33 0 -59 -20.5t-45.5 -61t-32.5 -99.5q-8 -44 -10 -82t4.5 -65.5
t23.5 -43.5t45 -16z" />
    <glyph glyph-name="uni0435" unicode="&#x435;" horiz-adv-x="399" 
d="M189 -10q-49 0 -81 17.5t-50 47.5t-24.5 68.5t-4 80t11.5 83.5q16 74 47.5 132.5t78 92t105.5 33.5q46 0 76 -19.5t41.5 -54t2.5 -79.5q-10 -46 -43 -81t-89 -54t-135 -19h-25l12 64h19q52 0 90 10t62 32t31 56q5 23 0.5 40.5t-17.5 27.5t-34 10q-30 0 -57.5 -22.5
t-49.5 -68t-35 -116.5q-8 -43 -10 -77t2.5 -59.5t16 -42t29.5 -25t44 -8.5q25 0 54 8t61 25v-71q-29 -16 -61.5 -23.5t-67.5 -7.5z" />
    <glyph glyph-name="uni0436" unicode="&#x436;" horiz-adv-x="723" 
d="M21 -9q-11 0 -22 2t-21 4l19 68q7 -3 14.5 -4t15.5 -1q35 0 61.5 25.5t46 70t30.5 101.5q14 65 13.5 114.5t-16.5 78t-51 28.5q-9 0 -18 -1t-15 -4v65q8 3 20 4.5t26 1.5q43 0 72 -20t44 -58t16 -92t-13 -123q-18 -89 -50 -146.5t-76 -85.5t-96 -28zM598 -9
q-44 0 -73.5 20t-44 58t-14.5 92t13 123q19 89 51 146.5t75.5 85.5t95.5 28q12 0 23 -1.5t20 -4.5l-19 -67q-7 2 -14 3t-15 1q-35 0 -62 -25.5t-46 -69.5t-31 -102q-13 -64 -13 -113.5t16 -78t51 -28.5q9 0 18 1.5t16 3.5v-65q-9 -2 -21.5 -4.5t-25.5 -2.5zM265 0l114 536
h76l-114 -536h-76zM222 241l11 67h265l-11 -67h-265z" />
    <glyph glyph-name="uni0437" unicode="&#x437;" horiz-adv-x="370" 
d="M115 -10q-34 0 -66 6.5t-57 18.5v74q27 -14 58 -22.5t62 -8.5q33 0 57 9.5t39 28.5t21 47q10 49 -11 76t-73 27h-60l15 68h58q30 0 51 7.5t35 23.5t19 41q8 42 -13.5 66.5t-67.5 24.5q-21 0 -45 -5.5t-48 -16.5l-21 63q28 13 60.5 20t63.5 7q58 0 94 -20.5t51 -56.5
t5 -81q-8 -42 -34.5 -69.5t-68.5 -37.5l-1 -4q32 -11 49.5 -33t22 -51t-3.5 -64q-13 -64 -62.5 -101t-128.5 -37z" />
    <glyph glyph-name="uni0438" unicode="&#x438;" horiz-adv-x="454" 
d="M137 -10q-33 0 -55.5 12.5t-34.5 38t-12.5 62t9.5 85.5l75 348h80l-73 -343q-10 -46 -9 -75.5t13.5 -43t35.5 -13.5q31 0 58 22.5t49 68t35 113.5l58 271h80l-113 -536h-65l7 77h-4q-20 -30 -40.5 -49.5t-43.5 -28.5t-50 -9z" />
    <glyph glyph-name="uni0439" unicode="&#x439;" horiz-adv-x="454" 
d="M137 -10q-33 0 -55.5 12.5t-34.5 38t-12.5 62t9.5 85.5l75 348h80l-73 -343q-10 -46 -9 -75.5t13.5 -43t35.5 -13.5q31 0 58 22.5t49 68t35 113.5l58 271h80l-113 -536h-65l7 77h-4q-20 -30 -40.5 -49.5t-43.5 -28.5t-50 -9zM295 600q-57 0 -87 29.5t-30 82.5
q0 6 0.5 12.5t1.5 14.5h67q-1 -9 -1 -13.5v-10.5q0 -30 12 -44.5t41 -14.5q32 0 51.5 20.5t29.5 62.5h71q-16 -68 -55 -103.5t-101 -35.5z" />
    <glyph glyph-name="uni043A" unicode="&#x43a;" horiz-adv-x="398" 
d="M255 0l-74 270l1 15l177 251h89l-196 -270v33l86 -299h-83zM8 0l114 536h80l-114 -536h-80zM125 243l16 69h109l-15 -69h-110z" />
    <glyph glyph-name="uni043B" unicode="&#x43b;" horiz-adv-x="457" 
d="M-5 -7q-14 0 -25 2t-17 5v71q8 -3 16 -4.5t16 -1.5q29 0 50 20.5t37 80.5l98 370h280l-114 -536h-81l100 467h-125l-87 -322q-14 -54 -34 -87.5t-48 -49t-66 -15.5z" />
    <glyph glyph-name="uni043C" unicode="&#x43c;" horiz-adv-x="600" 
d="M8 0l114 536h108l33 -423h2l212 423h115l-113 -536h-78l64 296q7 34 14.5 65.5t15.5 62.5h-3l-216 -424h-67l-37 423h-2q-4 -27 -10 -57t-12 -61l-64 -305h-76z" />
    <glyph glyph-name="uni043D" unicode="&#x43d;" horiz-adv-x="455" 
d="M8 0l114 536h80l-47 -224h165l47 224h80l-114 -536h-80l51 244h-164l-52 -244h-80z" />
    <glyph glyph-name="uni043E" unicode="&#x43e;" horiz-adv-x="444" 
d="M181 -10q-62 0 -100.5 35.5t-48.5 102t10 160.5q27 127 83.5 192t138.5 65q63 0 100.5 -34.5t47.5 -101t-10 -161.5q-27 -129 -83 -193.5t-138 -64.5zM186 58q48 0 81 48t55 152q23 109 6.5 164.5t-69.5 55.5q-47 0 -81 -48.5t-56 -150.5q-22 -108 -5 -164.5t69 -56.5z
" />
    <glyph glyph-name="uni043F" unicode="&#x43f;" horiz-adv-x="456" 
d="M8 0l114 537h65l-10 -80h2q20 31 41.5 50.5t45 28.5t50.5 9q34 0 57 -12.5t35.5 -36.5t14.5 -57t-7 -73l-78 -366h-81l76 362q8 35 6.5 59.5t-13.5 38t-38 13.5q-33 0 -60 -24t-47.5 -68.5t-34.5 -109.5l-58 -271h-80z" />
    <glyph glyph-name="uni0440" unicode="&#x440;" horiz-adv-x="462" 
d="M-41 -235l163 771h66l-10 -84h3q31 46 64.5 69.5t73.5 23.5q39 0 62.5 -18t36.5 -48.5t16.5 -68.5t-0.5 -78.5t-12 -78.5q-11 -52 -31 -99.5t-47 -84.5t-61 -58t-76 -21q-38 0 -65.5 21.5t-39.5 60.5h-3q-3 -22 -7 -49t-9 -48l-45 -210h-79zM198 60q34 0 62 28t48 73.5
t32 101.5q7 32 11 68.5t1 69.5t-17 54t-42 21q-34 0 -63.5 -30t-51 -78t-33.5 -103q-7 -32 -11 -68t-0.5 -67t18.5 -50.5t46 -19.5z" />
    <glyph glyph-name="uni0441" unicode="&#x441;" horiz-adv-x="362" 
d="M188 -10q-52 0 -87.5 21t-53 59.5t-19.5 93.5t13 123q16 72 46 130.5t77.5 93t111.5 34.5q27 0 53 -5.5t48 -17.5l-29 -68q-15 9 -34.5 15.5t-39.5 6.5q-40 0 -70 -26t-50 -70t-32 -100q-11 -53 -12 -94.5t8.5 -69.5t29.5 -42.5t50 -14.5q19 0 42 5.5t48 16.5v-69
q-22 -11 -48.5 -16.5t-51.5 -5.5z" />
    <glyph glyph-name="uni0442" unicode="&#x442;" horiz-adv-x="688" 
d="M8 0l114 536h65l-10 -79h4q15 26 35 46t44.5 31t53.5 11q43 0 68 -21t31 -62h3q16 24 36.5 43t45 29.5t54.5 10.5q38 0 60.5 -14.5t32.5 -40.5t9.5 -59.5t-8.5 -70.5l-76 -360h-80l74 353q7 30 8 58t-9.5 46t-39.5 18q-24 0 -43 -12t-35 -33.5t-28 -50.5t-19 -63
l-67 -316h-81l77 358q4 20 6 40t-1 37.5t-14 28.5t-33 11q-25 0 -46.5 -14.5t-38.5 -41t-30.5 -63.5t-22.5 -82l-58 -274h-81z" />
    <glyph glyph-name="uni0443" unicode="&#x443;" horiz-adv-x="384" 
d="M-34 -241q-15 0 -29 2.5t-25 7.5v71q12 -5 24 -7t25 -2q35 0 56 23.5t41 64.5l37 80l-33 537h80l11 -287q2 -24 2.5 -50t0.5 -50.5t-2 -45.5h3q7 19 16 42.5t18.5 46t17.5 39.5l138 305h85l-299 -635q-21 -45 -44 -76.5t-52.5 -48.5t-70.5 -17z" />
    <glyph glyph-name="uni0444" unicode="&#x444;" horiz-adv-x="556" 
d="M132 -240l52 250l8 30l97 459l5 26l49 235h80l-50 -235l-7 -26l-96 -459l-7 -30l-52 -250h-79zM205 -8q-50 1 -87 23.5t-59.5 62t-27.5 93.5t9 119q18 81 56.5 138t95 86.5t127.5 28.5l-14 -69q-44 3 -81.5 -19t-63.5 -65.5t-40 -106.5q-11 -50 -9 -91t14.5 -71t37 -45.5
t57.5 -14.5zM236 -8l14 69q46 -2 82.5 19t63 64.5t39.5 106.5q11 50 9.5 91.5t-14.5 71t-37 45t-58 15.5l15 69q51 -1 87.5 -23.5t59 -62.5t27.5 -94t-9 -119q-13 -60 -38 -107.5t-60.5 -80t-81.5 -49t-99 -15.5z" />
    <glyph glyph-name="uni0445" unicode="&#x445;" horiz-adv-x="378" 
d="M-48 0l211 309l-11 -66l-80 293h83l55 -229l-28 5l144 224h90l-204 -295l12 66l86 -307h-83l-62 241l29 -4l-152 -237h-90z" />
    <glyph glyph-name="uni0446" unicode="&#x446;" horiz-adv-x="471" 
d="M300 -126l34 162l21 -41q-27 3 -45 11t-26 24.5t-9 44.5h-3q-20 -30 -41 -49t-44 -27.5t-50 -8.5q-33 0 -55.5 12.5t-34.5 38t-12.5 62t9.5 85.5l75 348h80l-73 -343q-10 -46 -9 -75.5t13.5 -43t35.5 -13.5q25 0 46.5 13.5t39.5 40t32.5 64.5t23.5 86l58 271h80l-83 -390
q-7 -31 -5.5 -49t10 -25t24.5 -7q7 0 14.5 1t13.5 3l-41 -195h-79z" />
    <glyph glyph-name="uni0447" unicode="&#x447;" horiz-adv-x="444" 
d="M241 0l37 173q5 20 10.5 41.5t11.5 39.5h-3q-23 -34 -57.5 -54t-76.5 -20q-35 0 -58 13.5t-34.5 39t-12 61t8.5 79.5l35 163h81l-33 -157q-8 -37 -9 -66t11 -45.5t43 -16.5q30 0 56 18t47.5 58t35.5 106l22 103h80l-114 -536h-81z" />
    <glyph glyph-name="uni0448" unicode="&#x448;" horiz-adv-x="686" 
d="M136 -10q-32 0 -54 12.5t-34 37t-13.5 60t8.5 80.5l76 356h80l-74 -350q-10 -43 -8.5 -70.5t14 -41t35.5 -13.5q32 0 57 23.5t43 64t29 90.5l64 297h80l-75 -351q-7 -39 -7.5 -67t11 -42.5t36.5 -14.5q24 0 45 15t38 42.5t30.5 64t22.5 80.5l58 273h80l-114 -536h-64
l7 73h-3q-16 -24 -34.5 -43t-41.5 -29.5t-53 -10.5q-20 0 -36.5 5.5t-29.5 16.5t-20.5 26.5t-11.5 36.5h-3q-16 -24 -37 -43.5t-46 -30.5t-55 -11z" />
    <glyph glyph-name="uni0449" unicode="&#x449;" horiz-adv-x="703" 
d="M533 -126l34 162l21 -41q-27 3 -45 11t-26.5 24t-9.5 43h-3q-16 -24 -34.5 -43t-41.5 -29.5t-53 -10.5q-20 0 -36.5 5.5t-29.5 16.5t-20.5 26.5t-11.5 36.5h-3q-16 -24 -37 -43.5t-46 -30.5t-55 -11q-32 0 -54 12.5t-34 37t-13.5 60t8.5 80.5l76 356h80l-74 -350
q-10 -43 -8.5 -70.5t14 -41t35.5 -13.5q32 0 57 23.5t43 64t29 90.5l64 297h80l-75 -351q-7 -39 -7.5 -67t11 -42.5t36.5 -14.5q24 0 45 15t38 42.5t30.5 64t22.5 80.5l58 273h81l-83 -390q-6 -32 -5.5 -49.5t9 -24.5t24.5 -7q6 0 14 1t15 3l-41 -195h-79z" />
    <glyph glyph-name="uni044A" unicode="&#x44a;" horiz-adv-x="472" 
d="M240 -10q-89 0 -122 53t-10 158l57 264h-118l16 71h197l-73 -334q-17 -78 -3 -112.5t62 -34.5q40 0 64 23t34 70q10 55 -9 86.5t-66 31.5q-20 0 -43.5 -3t-40.5 -7l13 65q18 5 40.5 8t45.5 3q49 0 80 -17.5t46.5 -45.5t18 -62t-4.5 -69q-16 -71 -62.5 -109.5
t-121.5 -38.5z" />
    <glyph glyph-name="uni044B" unicode="&#x44b;" horiz-adv-x="598" 
d="M178 -10q-88 0 -120.5 53.5t-10.5 157.5l73 335h80l-73 -334q-12 -52 -9.5 -85t19.5 -47.5t48 -14.5q39 0 62.5 23t32.5 70q11 56 -8 87.5t-70 31.5q-16 0 -38 -3t-39 -8l13 65q17 5 39 8t44 3q49 0 79.5 -17t46.5 -44.5t18.5 -62.5t-5.5 -69q-15 -72 -62 -110.5
t-120 -38.5zM397 0l113 536h81l-114 -536h-80z" />
    <glyph glyph-name="uni044C" unicode="&#x44c;" horiz-adv-x="411" 
d="M178 -10q-89 0 -122 53t-10 158l72 335h80l-72 -335q-17 -78 -3.5 -112t62.5 -34q39 0 63 23t33 70q12 59 -7.5 88.5t-70.5 29.5q-16 0 -39.5 -2.5t-40.5 -7.5l13 65q18 5 41 8t45 3q56 0 91 -24t48.5 -68t0.5 -102q-16 -73 -63 -110.5t-121 -37.5z" />
    <glyph glyph-name="uni044D" unicode="&#x44d;" horiz-adv-x="373" 
d="M94 -10q-28 0 -54.5 6.5t-44.5 14.5v71q24 -11 48 -17t47 -6q60 0 98.5 44t58.5 140q12 56 13.5 99t-7.5 73.5t-29 46t-50 15.5q-19 0 -40 -6t-42 -15l-20 65q23 11 51.5 17.5t58.5 6.5q56 0 91 -23t52 -65t17.5 -98.5t-13.5 -123.5q-16 -77 -47 -132t-77.5 -84
t-110.5 -29zM81 243l14 66h178l-12 -66h-180z" />
    <glyph glyph-name="uni044E" unicode="&#x44e;" horiz-adv-x="624" 
d="M367 -10q-59 0 -95.5 35.5t-46 102.5t9.5 160q27 127 82.5 192t134.5 65q60 0 96 -35t45 -101t-11 -160q-27 -131 -81.5 -195t-133.5 -64zM9 0l114 536h79l-46 -224h97l-13 -68h-99l-52 -244h-80zM373 59q45 0 76.5 48t52.5 151q23 109 7.5 164t-64.5 55
q-43 0 -75.5 -48.5t-54.5 -148.5q-15 -72 -12.5 -121.5t20.5 -74.5t50 -25z" />
    <glyph glyph-name="uni044F" unicode="&#x44f;" horiz-adv-x="420" 
d="M-46 0l185 241q-45 19 -64.5 61.5t-8.5 97.5q14 64 64 100t128 36h154l-113 -536h-80l46 219h-52l-166 -219h-93zM226 284h53l40 188h-66q-44 0 -71 -20.5t-36 -60.5q-7 -33 1 -57t28.5 -37t50.5 -13z" />
    <glyph glyph-name="uni0451" unicode="&#x451;" horiz-adv-x="399" 
d="M189 -10q-49 0 -81 17.5t-50 47.5t-24.5 68.5t-4 80t11.5 83.5q16 74 47.5 132.5t78 92t105.5 33.5q46 0 76 -19.5t41.5 -54t2.5 -79.5q-10 -46 -43 -81t-89 -54t-135 -19h-25l12 64h19q52 0 90 10t62 32t31 56q5 23 0.5 40.5t-17.5 27.5t-34 10q-30 0 -57.5 -22.5
t-49.5 -68t-35 -116.5q-8 -43 -10 -77t2.5 -59.5t16 -42t29.5 -25t44 -8.5q25 0 54 8t61 25v-71q-29 -16 -61.5 -23.5t-67.5 -7.5zM367 618q-22 0 -32.5 15.5t-4.5 42.5q5 24 17.5 36t30.5 12q23 0 33.5 -15t4.5 -43q-5 -24 -17.5 -36t-31.5 -12zM212 618q-22 0 -32.5 15.5
t-4.5 42.5q5 24 17.5 36t30.5 12q23 0 33.5 -15t4.5 -43q-5 -24 -17.5 -36t-31.5 -12z" />
    <glyph glyph-name="uni0452" unicode="&#x452;" horiz-adv-x="458" 
d="M177 -240q-17 0 -31.5 2t-26.5 7v71q11 -4 22.5 -6t24.5 -2q24 0 39 13.5t25 40t18 63.5l83 392q10 43 8.5 70t-14.5 39.5t-37 12.5q-28 0 -55 -20t-49.5 -64t-37.5 -113l-57 -266h-81l129 608h-60l13 61h60l19 91h81l-20 -91h120l-13 -61h-120l-13 -61
q-2 -11 -4.5 -20.5t-5 -19.5t-5 -19.5t-5.5 -19.5l-6 -20h3q16 27 35.5 46t44.5 30t56 11q34 0 57 -13.5t35 -38t12.5 -60t-8.5 -80.5l-86 -401q-11 -56 -28.5 -97t-46 -63t-75.5 -22z" />
    <glyph glyph-name="uni0453" unicode="&#x453;" horiz-adv-x="360" 
d="M154 -10q-60 0 -93.5 24.5t-44.5 63t-2 82.5q8 36 28.5 62t49.5 46t63 37q29 15 52.5 29.5t39 32t20.5 39.5q6 28 -8 49.5t-54 21.5q-27 0 -52 -8.5t-47 -20.5l-22 64q31 17 65 25t68 8q55 0 86 -22t41.5 -57.5t1.5 -73.5q-7 -34 -26.5 -58.5t-47 -43t-59.5 -35.5
q-54 -28 -82.5 -51t-36.5 -57q-5 -22 0.5 -42t23 -33t50.5 -13q20 0 40 4.5t38.5 13t35.5 16.5v-72q-28 -14 -60.5 -22.5t-67.5 -8.5zM193 616l110 150h96l-1 -9l-153 -151h-52v10z" />
    <glyph glyph-name="uni0454" unicode="&#x454;" horiz-adv-x="363" 
d="M188 -10q-52 0 -87 21t-53 59.5t-20 93.5t13 123q16 72 46 130.5t77 93t112 34.5q27 0 53 -5.5t49 -17.5l-30 -68q-15 9 -34.5 15.5t-40.5 6.5q-39 0 -69.5 -26t-50.5 -70.5t-32 -99.5q-11 -53 -12 -94.5t8.5 -69.5t29.5 -42.5t51 -14.5q19 0 42 5.5t49 16.5v-69
q-23 -11 -49.5 -16.5t-51.5 -5.5zM101 243l14 66h178l-15 -66h-177z" />
    <glyph glyph-name="uni0455" unicode="&#x455;" horiz-adv-x="348" 
d="M115 -10q-39 0 -70.5 8t-52.5 20v79q21 -14 53 -25.5t64 -11.5q39 0 63 16.5t31 46.5q6 26 -0.5 46.5t-23 40.5t-40.5 41q-34 30 -54 58.5t-25.5 58t1.5 62.5q11 52 52 83.5t105 31.5q42 0 76 -10t58 -25l-32 -65q-21 15 -46 23.5t-54 8.5q-32 0 -53 -15t-26 -41
q-5 -24 2 -44.5t22.5 -37t35.5 -33.5q40 -35 60.5 -66t25.5 -61.5t-3 -68.5q-12 -57 -56 -88.5t-113 -31.5z" />
    <glyph glyph-name="uni0456" unicode="&#x456;" horiz-adv-x="212" 
d="M8 0l114 536h81l-114 -536h-81zM188 622q-17 0 -27.5 7.5t-14 21t-0.5 32.5q5 26 18.5 39.5t34.5 13.5q16 0 26.5 -7.5t15 -21t0.5 -32.5q-5 -26 -19 -39.5t-34 -13.5z" />
    <glyph glyph-name="uni0457" unicode="&#x457;" horiz-adv-x="209" 
d="M8 0l114 536h80l-114 -536h-80zM134 622q-22 0 -31 16.5t-3 44.5q5 26 16.5 39.5t30.5 13.5q22 0 31 -16.5t3 -45.5q-5 -26 -16.5 -39t-30.5 -13zM236 622q-21 0 -30 16.5t-3 44.5q6 26 17.5 39.5t30.5 13.5q21 0 30.5 -16t2.5 -46q-5 -25 -17 -38.5t-31 -13.5z" />
    <glyph glyph-name="uni0458" unicode="&#x458;" horiz-adv-x="209" 
d="M-74 -240q-15 0 -29.5 2t-25.5 6v72q10 -4 23 -6t24 -2q22 0 36 11t24 36.5t19 69.5l125 587h80l-127 -594q-11 -54 -27.5 -95t-45 -64t-76.5 -23zM187 622q-17 0 -27.5 7.5t-14 21t-0.5 32.5q5 26 18.5 39.5t34.5 13.5q17 0 27.5 -7.5t14.5 -21t0 -32.5
q-5 -26 -18.5 -39.5t-34.5 -13.5z" />
    <glyph glyph-name="uni0459" unicode="&#x459;" horiz-adv-x="650" 
d="M-5 -7q-14 0 -25 2t-17 5v71q8 -3 16 -4.5t16 -1.5q29 0 50 20.5t37 80.5l98 370h270l-72 -336q-16 -77 -3 -111t61 -34q38 0 61.5 23t32.5 71q13 57 -7 87t-70 30q-16 0 -38.5 -2.5t-38.5 -7.5l12 64q17 5 40.5 8.5t43.5 3.5q55 0 90 -24.5t48.5 -68t0.5 -101.5
q-16 -75 -63.5 -111.5t-117.5 -36.5q-88 0 -121.5 53.5t-10.5 157.5l57 266h-115l-87 -322q-14 -54 -34 -87.5t-48 -49t-66 -15.5z" />
    <glyph glyph-name="uni045A" unicode="&#x45a;" horiz-adv-x="643" 
d="M414 -10q-88 0 -121 53.5t-11 157.5l72 335h80l-72 -339q-16 -74 -2.5 -108t60.5 -34q37 0 60.5 22.5t33.5 68.5q11 55 -9 82t-69 27h-87l-27 -1h-180l-54 -254h-80l114 536h80l-46 -214h178l27 -1h90q58 0 94 -23t48.5 -64t0.5 -98q-16 -73 -62.5 -109.5t-117.5 -36.5z
" />
    <glyph glyph-name="uni045B" unicode="&#x45b;" horiz-adv-x="458" 
d="M8 0l130 609h-65l13 62h64l19 89h81l-20 -89h116l-13 -62h-116q-9 -44 -16.5 -73.5t-12.5 -49.5t-9 -35h2q19 30 40 49t45 29t51 10q41 0 64 -16.5t32 -45.5t7.5 -67.5t-11.5 -82.5l-69 -327h-81l69 322q6 25 9.5 50.5t1 46.5t-14 34t-35.5 13q-32 0 -59 -20.5t-48.5 -64
t-35.5 -112.5l-57 -269h-81z" />
    <glyph glyph-name="uni045C" unicode="&#x45c;" horiz-adv-x="398" 
d="M255 0l-74 270l1 15l177 251h89l-196 -270v33l86 -299h-83zM8 0l114 536h80l-114 -536h-80zM125 243l16 69h109l-15 -69h-110zM252 616l110 150h96l-1 -9l-153 -151h-52v10z" />
    <glyph glyph-name="uni045E" unicode="&#x45e;" horiz-adv-x="384" 
d="M-34 -241q-15 0 -29 2.5t-25 7.5v71q12 -5 24 -7t25 -2q35 0 56 23.5t41 64.5l37 80l-33 537h80l11 -287q2 -24 2.5 -50t0.5 -50.5t-2 -45.5h3q7 19 16 42.5t18.5 46t17.5 39.5l138 305h85l-299 -635q-21 -45 -44 -76.5t-52.5 -48.5t-70.5 -17zM258 600q-57 0 -87 29.5
t-30 82.5q0 6 0.5 12.5t1.5 14.5h67q-1 -9 -1 -13.5v-10.5q0 -30 12 -44.5t41 -14.5q32 0 51.5 20.5t29.5 62.5h71q-16 -68 -55 -103.5t-101 -35.5z" />
    <glyph glyph-name="uni045F" unicode="&#x45f;" horiz-adv-x="454" 
d="M96 -208l35 151l67 24h14l-39 -175h-77zM137 -10q-33 0 -55.5 12.5t-34.5 38t-12.5 62t9.5 85.5l75 348h80l-73 -343q-10 -46 -9 -75.5t13.5 -43t35.5 -13.5q31 0 58 22.5t49 68t35 113.5l58 271h80l-113 -536h-65l7 77h-4q-20 -30 -40.5 -49.5t-43.5 -28.5t-50 -9z" />
    <glyph glyph-name="uni0490" unicode="&#x490;" horiz-adv-x="379" 
d="M12 0l151 714h207l32 148h80l-48 -222h-204l-135 -640h-83z" />
    <glyph glyph-name="uni0491" unicode="&#x491;" horiz-adv-x="319" 
d="M4 0l114 536h156l33 155h78l-47 -222h-155l-99 -469h-80z" />
    <glyph glyph-name="Wgrave" unicode="&#x1e80;" horiz-adv-x="714" 
d="M90 0l3 714h81l-5 -444q0 -43 -2.5 -81t-4.5 -68h3q12 36 27.5 76t30.5 77l182 440h78l-4 -429q0 -32 -1 -60.5t-2 -54.5t-2 -49h2q10 28 19 54t19 51t19 50l176 438h86l-295 -714h-94l5 455q1 17 1.5 36.5l1 39t1.5 38.5h-2q-9 -26 -18.5 -53t-23.5 -58l-188 -458h-93z
M461 789q-15 18 -33.5 45.5t-35 56t-24.5 49.5v8h91q7 -23 14.5 -48t17.5 -50t21 -50v-11h-51z" />
    <glyph glyph-name="wgrave" unicode="&#x1e81;" horiz-adv-x="597" 
d="M61 0v536h78l-3 -300q-1 -37 -3 -70t-4 -60h3q6 19 13.5 39.5t16 41t14.5 36.5l129 313h90l-2 -298q-1 -30 -2 -66t-3 -68h3q8 23 16.5 47.5t18.5 49.5t20 52l113 283h83l-225 -536h-95l5 319q0 20 0.5 39t1.5 38.5t2 39.5h-3q-5 -16 -11 -31.5t-12.5 -32t-14.5 -36.5
l-136 -336h-93zM361 606q-15 18 -33.5 45.5t-35 56t-24.5 49.5v8h91q7 -23 14.5 -48t17.5 -50t21 -50v-11h-51z" />
    <glyph glyph-name="Wacute" unicode="&#x1e82;" horiz-adv-x="714" 
d="M90 0l3 714h81l-5 -444q0 -43 -2.5 -81t-4.5 -68h3q12 36 27.5 76t30.5 77l182 440h78l-4 -429q0 -32 -1 -60.5t-2 -54.5t-2 -49h2q10 28 19 54t19 51t19 50l176 438h86l-295 -714h-94l5 455q1 17 1.5 36.5l1 39t1.5 38.5h-2q-9 -26 -18.5 -53t-23.5 -58l-188 -458h-93z
M409 798q22 25 42 51.5t38 51.5t30 47h96l-1 -9q-10 -14 -29 -34.5t-42 -42.5t-44.5 -41.5t-37.5 -32.5h-52v10z" />
    <glyph glyph-name="wacute" unicode="&#x1e83;" horiz-adv-x="597" 
d="M61 0v536h78l-3 -300q-1 -37 -3 -70t-4 -60h3q6 19 13.5 39.5t16 41t14.5 36.5l129 313h90l-2 -298q-1 -30 -2 -66t-3 -68h3q8 23 16.5 47.5t18.5 49.5t20 52l113 283h83l-225 -536h-95l5 319q0 20 0.5 39t1.5 38.5t2 39.5h-3q-5 -16 -11 -31.5t-12.5 -32t-14.5 -36.5
l-136 -336h-93zM309 615q22 25 42 51.5t38 51.5t30 47h96l-1 -9q-10 -14 -29 -34.5t-42 -42.5t-44.5 -41.5t-37.5 -32.5h-52v10z" />
    <glyph glyph-name="Wdieresis" unicode="&#x1e84;" horiz-adv-x="714" 
d="M90 0l3 714h81l-5 -444q0 -43 -2.5 -81t-4.5 -68h3q12 36 27.5 76t30.5 77l182 440h78l-4 -429q0 -32 -1 -60.5t-2 -54.5t-2 -49h2q10 28 19 54t19 51t19 50l176 438h86l-295 -714h-94l5 455q1 17 1.5 36.5l1 39t1.5 38.5h-2q-9 -26 -18.5 -53t-23.5 -58l-188 -458h-93z
M555 814q-17 0 -27 9.5t-10 28.5q0 26 14 44.5t39 18.5q18 0 26.5 -9.5t8.5 -26.5q0 -29 -14.5 -47t-36.5 -18zM397 814q-17 0 -27 9.5t-10 28.5q0 26 14 44.5t39 18.5q11 0 18.5 -4t11.5 -12t4 -20q0 -29 -14 -47t-36 -18z" />
    <glyph glyph-name="wdieresis" unicode="&#x1e85;" horiz-adv-x="597" 
d="M61 0v536h78l-3 -300q-1 -37 -3 -70t-4 -60h3q6 19 13.5 39.5t16 41t14.5 36.5l129 313h90l-2 -298q-1 -30 -2 -66t-3 -68h3q8 23 16.5 47.5t18.5 49.5t20 52l113 283h83l-225 -536h-95l5 319q0 20 0.5 39t1.5 38.5t2 39.5h-3q-5 -16 -11 -31.5t-12.5 -32t-14.5 -36.5
l-136 -336h-93zM443 631q-17 0 -27 9.5t-10 28.5q0 26 14 44.5t39 18.5q18 0 26.5 -9.5t8.5 -26.5q0 -29 -14.5 -47t-36.5 -18zM285 631q-17 0 -27 9.5t-10 28.5q0 26 14 44.5t39 18.5q11 0 18.5 -4t11.5 -12t4 -20q0 -29 -14 -47t-36 -18z" />
    <glyph glyph-name="Ygrave" unicode="&#x1ef2;" horiz-adv-x="402" 
d="M96 0l58 273l-67 441h85l43 -339l185 339h90l-253 -441l-58 -273h-83zM305 789q-15 18 -33.5 45.5t-35 56t-24.5 49.5v8h91q7 -23 14.5 -48t17.5 -50t21 -50v-11h-51z" />
    <glyph glyph-name="ygrave" unicode="&#x1ef3;" horiz-adv-x="378" 
d="M-36 -241q-19 0 -32.5 3t-25.5 7l7 70q11 -4 23 -6t25 -2q32 0 53.5 23t40.5 65l38 80l-34 537h81l11 -287q1 -24 1.5 -50t0.5 -50.5t-1 -45.5h3q7 19 16 42.5t18.5 46t16.5 39.5l139 305h84l-299 -635q-21 -45 -44 -76.5t-52 -48.5t-70 -17zM249 606q-15 18 -33.5 45.5
t-35 56t-24.5 49.5v8h91q7 -23 14.5 -48t17.5 -50t21 -50v-11h-51z" />
    <glyph glyph-name="endash" unicode="&#x2013;" horiz-adv-x="462" 
d="M25 234l15 71h392l-15 -71h-392z" />
    <glyph glyph-name="emdash" unicode="&#x2014;" horiz-adv-x="921" 
d="M25 234l15 71h851l-14 -71h-852z" />
    <glyph glyph-name="uni2015" unicode="&#x2015;" horiz-adv-x="940" 
d="M25 234l15 71h851l-14 -71h-852z" />
    <glyph glyph-name="underscoredbl" unicode="&#x2017;" horiz-adv-x="395" 
d="M-69 -115l12 53h397l-11 -53h-398zM-93 -234l12 54h397l-12 -54h-397z" />
    <glyph glyph-name="quoteleft" unicode="&#x2018;" horiz-adv-x="173" 
d="M57 481q17 39 36.5 79.5t41 79.5t43.5 74h62q-11 -25 -24.5 -56.5t-26.5 -65t-24.5 -65.5t-19.5 -57h-84z" />
    <glyph glyph-name="quoteright" unicode="&#x2019;" horiz-adv-x="173" 
d="M55 470q19 40 36 82t32.5 83t26.5 79h84l4 -11q-15 -38 -34.5 -77.5t-41.5 -79t-44 -76.5h-63z" />
    <glyph glyph-name="quotesinglbase" unicode="&#x201a;" horiz-adv-x="216" 
d="M-47 -131q16 36 34 79t34 86.5t26 78.5h86l3 -10q-15 -39 -34.5 -79t-41.5 -79t-44 -76h-63z" />
    <glyph glyph-name="quotereversed" unicode="&#x201b;" horiz-adv-x="173" 
d="M124 470q-8 36 -13.5 75.5t-9 79.5t-4.5 77l8 12h81q-2 -29 -3 -61t-0.5 -64t1.5 -62.5t2 -56.5h-62z" />
    <glyph glyph-name="quotedblleft" unicode="&#x201c;" horiz-adv-x="336" 
d="M223 481q16 40 35.5 80.5t41.5 79t44 73.5h62q-17 -36 -35 -79t-33.5 -86t-26.5 -79h-85zM59 481q18 40 37 80.5t40.5 79.5t43.5 73h62q-12 -26 -25.5 -57.5t-26.5 -65t-24 -65t-19 -56.5h-84z" />
    <glyph glyph-name="quotedblright" unicode="&#x201d;" horiz-adv-x="336" 
d="M217 470q18 39 35.5 80.5t33 83t27.5 80.5h83l4 -11q-15 -38 -34.5 -77.5t-41.5 -79t-45 -76.5h-62zM54 470q18 39 35 80.5t32.5 83t26.5 80.5h85l3 -11q-15 -38 -34.5 -77.5t-41 -79t-44.5 -76.5h-62z" />
    <glyph glyph-name="quotedblbase" unicode="&#x201e;" horiz-adv-x="357" 
d="M102 -131q16 34 34 77.5t34.5 87.5t26.5 79h84l4 -11q-16 -38 -35.5 -78t-40.5 -79t-44 -76h-63zM-61 -131q18 38 35.5 80.5t32.5 84.5t27 79h84l3 -11q-15 -38 -34.5 -78t-41 -79t-44.5 -76h-62z" />
    <glyph glyph-name="dagger" unicode="&#x2020;" horiz-adv-x="423" 
d="M100 0l124 500l-132 -11l16 76l127 -12l27 207h87l-61 -207l139 12l-16 -76l-134 11l-90 -500h-87z" />
    <glyph glyph-name="daggerdbl" unicode="&#x2021;" horiz-adv-x="423" 
d="M100 0l58 189l-136 -12l16 75l131 -10l17 141l43 135l-136 -10l16 75l131 -12l22 189h89l-59 -189l140 12l-16 -75l-135 10l-15 -135l-44 -141l139 10l-17 -75l-133 12l-23 -189h-88z" />
    <glyph glyph-name="bullet" unicode="&#x2022;" horiz-adv-x="360" 
d="M195 234q-54 0 -86 33t-32 98q0 44 14.5 73.5t41 43.5t62.5 14q37 0 63 -14.5t40.5 -43.5t14.5 -73q0 -43 -14.5 -72.5t-41 -44t-62.5 -14.5z" />
    <glyph glyph-name="ellipsis" unicode="&#x2026;" horiz-adv-x="660" 
d="M59 -10q-21 0 -33 12t-12 34q0 32 17.5 56.5t50.5 24.5q20 0 31.5 -12.5t11.5 -34.5q0 -33 -18.5 -56.5t-47.5 -23.5zM280 -10q-21 0 -33 12t-12 34q0 32 17.5 56.5t50.5 24.5q20 0 31.5 -12.5t11.5 -34.5q0 -33 -18.5 -56.5t-47.5 -23.5zM501 -10q-21 0 -33 12t-12 34
q0 32 17.5 56.5t50.5 24.5q20 0 31.5 -12.5t11.5 -34.5q0 -33 -18.5 -56.5t-47.5 -23.5z" />
    <glyph glyph-name="perthousand" unicode="&#x2030;" horiz-adv-x="950" 
d="M98 0l420 714h67l-418 -714h-69zM149 276q-44 0 -67.5 31.5t-23.5 92.5q0 31 6 73t18.5 86t33 81t49 60.5t66.5 23.5q44 0 68 -30.5t24 -90.5q0 -30 -5.5 -72t-18.5 -86.5t-33.5 -83t-49.5 -62t-67 -23.5zM156 337q21 0 37.5 21t28.5 54t20.5 69.5t12.5 69t4 50.5
q0 33 -9 48t-26 15q-20 0 -36.5 -20.5t-28.5 -52.5t-20.5 -68t-12.5 -69t-4 -54q0 -33 9 -48t25 -15zM454 -10q-44 0 -67.5 31.5t-23.5 92.5q0 34 6 76.5t19 86t34 80.5t49 59t66 22q44 0 68 -30.5t24 -90.5q0 -30 -6.5 -72t-19 -86t-33 -83t-49.5 -62.5t-67 -23.5zM461 51
q21 0 37 21t28.5 54t20.5 69.5t12.5 69t4.5 51.5q0 33 -9 47.5t-26 14.5q-21 0 -37.5 -21t-28.5 -53.5t-20 -69t-12 -68.5t-4 -52q0 -32 9 -47.5t25 -15.5zM738 -10q-44 0 -67.5 31.5t-23.5 92.5q0 34 6 76.5t19 86t33.5 80.5t49 59t66.5 22q43 0 67.5 -30.5t24.5 -90.5
q0 -30 -6.5 -72t-19 -86t-33.5 -83t-49.5 -62.5t-66.5 -23.5zM746 51q20 0 36.5 21t28.5 54t20.5 69.5t12.5 69t4 51.5q0 33 -9 47.5t-26 14.5q-20 0 -36.5 -21t-29 -53.5t-20 -69t-12 -68.5t-4.5 -52q0 -32 9 -47.5t26 -15.5z" />
    <glyph glyph-name="minute" unicode="&#x2032;" horiz-adv-x="199" 
d="M69 491l101 223h89l-131 -223h-59z" />
    <glyph glyph-name="second" unicode="&#x2033;" horiz-adv-x="360" 
d="M230 491l101 223h89l-131 -223h-59zM69 491l101 223h89l-131 -223h-59z" />
    <glyph glyph-name="guilsinglleft" unicode="&#x2039;" horiz-adv-x="258" 
d="M130 59l-99 202l2 13l174 192l49 -36l-138 -167l72 -178z" />
    <glyph glyph-name="guilsinglright" unicode="&#x203a;" horiz-adv-x="258" 
d="M47 59l-49 37l138 166l-72 178l60 26l98 -202l-1 -13z" />
    <glyph glyph-name="exclamdbl" unicode="&#x203c;" horiz-adv-x="448" 
d="M271 200l96 514h95l-126 -514h-65zM263 -10q-21 0 -33 12t-12 34q0 32 17.5 56.5t51.5 24.5q19 0 30.5 -12.5t11.5 -34.5q0 -33 -17.5 -56.5t-48.5 -23.5zM66 200l96 514h95l-126 -514h-65zM58 -10q-21 0 -33 12t-12 34q0 32 17.5 56.5t51.5 24.5q19 0 30.5 -12.5
t11.5 -34.5q0 -33 -17.5 -56.5t-48.5 -23.5z" />
    <glyph glyph-name="fraction" unicode="&#x2044;" horiz-adv-x="115" 
d="M-235 0l528 714h70l-527 -714h-71z" />
    <glyph glyph-name="uni207F" unicode="&#x207f;" horiz-adv-x="300" 
d="M57 287l74 322h44l-6 -48h1q10 16 23.5 28t30 19t35.5 7q21 0 37 -7t25 -22t9 -38q0 -13 -3 -28.5t-6 -29.5l-47 -203h-53l46 201q3 14 5.5 27.5t2.5 24.5q0 15 -8 23t-25 8q-20 0 -38 -13t-32 -40t-23 -68l-38 -163h-54z" />
    <glyph glyph-name="franc" unicode="&#x20a3;" horiz-adv-x="439" 
d="M48 0l28 133h-70l14 63h70l109 518h285l-15 -74h-204l-54 -253h190l-15 -74h-190l-25 -117h114l-13 -63h-114l-28 -133h-82z" />
    <glyph glyph-name="lira" unicode="&#x20a4;" horiz-adv-x="439" 
d="M-5 68q30 11 49.5 30.5t33 51.5t23.5 79h-76l13 60h76l18 86h-77l14 60h75l25 119q11 53 33.5 90.5t58 58.5t87.5 21q38 0 70.5 -11t57.5 -30l-36 -65q-19 14 -43.5 23.5t-50.5 9.5q-45 0 -66.5 -31t-32.5 -79l-21 -106h128l-13 -60h-128l-19 -86h130l-13 -60h-129
q-10 -44 -21.5 -73.5t-27.5 -48.5t-40 -33h265l-15 -74h-362z" />
    <glyph glyph-name="peseta" unicode="&#x20a7;" horiz-adv-x="619" 
d="M5 0l152 714h87q58 0 97 -19.5t59.5 -56t20.5 -88.5q0 -54 -15.5 -103t-47 -87t-79.5 -59.5t-113 -21.5h-22l-59 -279h-80zM172 352q47 0 78.5 15.5t51 42t28 60t8.5 70.5q0 48 -25.5 74.5t-77.5 26.5h-14l-61 -289h12zM477 -10q-44 0 -64 24.5t-20 65.5q0 14 2.5 32
t7.5 41l40 190h-54l8 37l62 30l48 117h52l-26 -119h83l-13 -65h-83l-41 -192q-4 -17 -5.5 -30.5t-1.5 -23.5q0 -18 8.5 -27.5t25.5 -9.5q11 0 23 3t24 7v-64q-18 -7 -37.5 -11.5t-38.5 -4.5z" />
    <glyph glyph-name="Euro" unicode="&#x20ac;" horiz-adv-x="439" 
d="M244 -10q-60 0 -97 28t-54 85t-17 144h-67l12 58h60q2 14 4 30.5t5 32.5t6 28h-58l13 57h60q24 78 60.5 139t88 96.5t118.5 35.5q38 0 68 -10t53 -28l-40 -67q-16 14 -37 22.5t-48 8.5q-43 0 -77.5 -26.5t-60.5 -71t-43 -99.5h167l-12 -57h-171q-3 -12 -6 -27.5t-5 -31.5
l-4 -32h148l-13 -58h-141q0 -63 9.5 -104t32 -60.5t59.5 -19.5q27 0 50 6.5t48 18.5l10 -70q-24 -12 -55.5 -20t-65.5 -8z" />
    <glyph glyph-name="uni2105" unicode="&#x2105;" horiz-adv-x="611" 
d="M59 0l433 714h66l-432 -714h-67zM399 -6q-47 0 -72.5 29.5t-25.5 82.5q0 39 10 79t28.5 74t47.5 54.5t67 20.5q48 0 73 -30.5t25 -83.5q0 -40 -10 -80.5t-29.5 -73.5t-47.5 -52.5t-66 -19.5zM404 47q22 0 38 18.5t26.5 47t15.5 57.5t5 51q0 29 -9.5 44.5t-30.5 15.5
q-23 0 -38.5 -18.5t-26 -46t-15.5 -57t-5 -52.5q0 -29 10 -44.5t30 -15.5zM187 380q-47 0 -74 29.5t-27 87.5q0 39 10.5 78t31.5 72t52.5 53t73.5 20q21 0 39 -4.5t34 -13.5l-24 -52q-13 8 -26.5 12t-26.5 4q-24 0 -42.5 -15.5t-31 -40.5t-19 -54t-6.5 -56q0 -33 12.5 -49
t37.5 -16q17 0 33 4.5t32 12.5l-8 -54q-15 -8 -33 -13t-38 -5z" />
    <glyph glyph-name="uni2113" unicode="&#x2113;" horiz-adv-x="430" 
d="M241 -9q-44 0 -73.5 19t-44 60.5t-14.5 106.5v99q-18 -8 -37.5 -14.5t-37.5 -11.5v62l38 12t37 14v211q0 57 12.5 95.5t40 58.5t72.5 20q39 0 65.5 -18.5t40.5 -52.5t14 -81q0 -62 -20 -113t-57.5 -90t-90.5 -66v-136q0 -55 14.5 -83t48.5 -28q32 0 49.5 24.5t19.5 82.5
h61q-1 -56 -16.5 -94.5t-45 -57.5t-76.5 -19zM186 367q49 32 74 82t25 120q0 28 -6 49t-17 33t-27 12q-27 0 -38 -22t-11 -70v-204z" />
    <glyph glyph-name="uni2116" unicode="&#x2116;" horiz-adv-x="783" 
d="M7 0l151 714h97l86 -567q5 26 9 50.5t8.5 46.5t7.5 41l91 429h77l-151 -714h-94l-89 574q-2 -14 -4 -29t-4.5 -31t-5.5 -31t-6 -29l-95 -454h-78zM462 0l12 62h211l-14 -62h-209zM600 137q-50 0 -76 30t-26 85q0 40 10 79.5t29.5 72t48.5 52.5t67 20q50 0 76.5 -31.5
t26.5 -85.5q0 -35 -9.5 -74t-28.5 -72.5t-48.5 -54.5t-69.5 -21zM605 192q24 0 40.5 16.5t27 42.5t15.5 54.5t5 52.5q0 30 -11 46t-34 16q-22 0 -38 -16t-27 -42t-16.5 -54.5t-5.5 -54.5q0 -31 11 -46t33 -15z" />
    <glyph glyph-name="trademark" unicode="&#x2122;" horiz-adv-x="669" 
d="M282 362v352h80l86 -275l88 275h77v-352h-54v203q0 10 1 33.5t2 38.5h-4l-92 -275h-44l-89 275h-3q1 -17 2 -38t1 -29v-208h-51zM105 362v301h-92v51h237v-51h-92v-301h-53z" />
    <glyph glyph-name="uni03A9" unicode="&#x3a9;" horiz-adv-x="536" 
d="M-22 0l17 77h122q-31 31 -49 78t-22 106.5t5 128.5q14 105 51 180t95 114.5t137 39.5t125 -40t60.5 -115t-0.5 -178q-9 -70 -33.5 -130.5t-59 -106.5t-75.5 -77h122l-16 -77h-204l15 68q46 41 79 86.5t54.5 102.5t31.5 128q11 80 4.5 139.5t-34.5 92.5t-82 33
q-52 0 -89 -32t-60 -91.5t-34 -142.5q-10 -70 -8 -128t18 -104t48 -84l-15 -68h-203z" />
    <glyph glyph-name="estimated" unicode="&#x212e;" horiz-adv-x="576" 
d="M287 -17q-77 0 -131 38.5t-82 101.5t-28 136q0 63 18.5 113.5t51 87t76.5 56t95 19.5q69 1 123.5 -34t86.5 -97.5t31 -144.5h-375v-174q22 -25 59.5 -42.5t74.5 -17.5q66 0 106 28.5t74 85.5l32 -20q-24 -43 -53.5 -73.5t-67.5 -46.5t-91 -16zM153 301h270v135
q-22 24 -58 41t-79 17q-41 0 -74.5 -15t-58.5 -42v-136z" />
    <glyph glyph-name="oneeighth" unicode="&#x215b;" horiz-adv-x="701" 
d="M50 0l528 714h70l-527 -714h-71zM198 576q4 17 8.5 34.5t8.5 30.5q-9 -7 -17.5 -14.5t-15.5 -12.5l-58 -41l-26 44l135 97h59l-92 -428h-65zM495 -11q-54 0 -84.5 26.5t-30.5 75.5q0 46 26.5 78t77.5 53q-23 20 -34 41.5t-11 51.5q0 34 15.5 61.5t45.5 42.5t70 15
q50 0 76 -25.5t26 -68.5q0 -39 -24.5 -68.5t-68.5 -48.5q27 -17 42.5 -40.5t15.5 -61.5q0 -39 -18 -69t-49.5 -46.5t-74.5 -16.5zM499 41q35 0 54.5 22.5t19.5 56.5q0 26 -14 44t-35 31q-35 -13 -57.5 -37.5t-22.5 -59.5q0 -25 14.5 -40.5t40.5 -16.5zM540 248
q28 12 49.5 33t21.5 53q0 23 -13 35.5t-35 12.5q-31 0 -47 -19t-16 -46q0 -23 10.5 -39.5t29.5 -29.5z" />
    <glyph glyph-name="threeeighths" unicode="&#x215c;" horiz-adv-x="722" 
d="M131 278q-31 0 -55.5 6.5t-42.5 17.5v62q20 -14 45 -22t54 -8q43 0 66.5 23.5t23.5 60.5q0 32 -18.5 48t-50.5 16h-36l11 52h34q30 0 50.5 11t31.5 29.5t11 42.5q0 25 -13 38.5t-38 13.5q-23 0 -42 -8.5t-39 -22.5l-25 45q23 20 52.5 31t64.5 11q36 0 59 -13t34.5 -34.5
t11.5 -49.5q0 -44 -24 -74t-67 -43l-1 -4q26 -10 42 -32t16 -56q0 -41 -18 -73t-53 -50t-84 -18zM74 0l528 714h70l-527 -714h-71zM516 -11q-54 0 -84.5 26.5t-30.5 75.5q0 46 26.5 78t77.5 53q-23 20 -34 41.5t-11 51.5q0 34 15.5 61.5t45.5 42.5t70 15q50 0 76 -25.5
t26 -68.5q0 -39 -24.5 -68.5t-68.5 -48.5q27 -17 42.5 -40.5t15.5 -61.5q0 -39 -18 -69t-49.5 -46.5t-74.5 -16.5zM520 41q35 0 54.5 22.5t19.5 56.5q0 26 -14 44t-35 31q-35 -13 -57.5 -37.5t-22.5 -59.5q0 -25 14.5 -40.5t40.5 -16.5zM561 248q28 12 49.5 33t21.5 53
q0 23 -13 35.5t-35 12.5q-31 0 -47 -19t-16 -46q0 -23 10.5 -39.5t29.5 -29.5z" />
    <glyph glyph-name="fiveeighths" unicode="&#x215d;" horiz-adv-x="724" 
d="M75 0l528 714h70l-527 -714h-71zM133 277q-25 0 -47.5 5.5t-41.5 16.5l4 61q19 -14 41 -20.5t46 -6.5q32 0 53 15t31.5 38.5t10.5 50.5q0 32 -17 48t-46 16q-11 0 -23.5 -2.5t-25.5 -6.5l-29 23l59 199h182l-12 -58h-131l-33 -108q10 2 20 3.5t20 1.5q48 0 74.5 -29.5
t26.5 -79.5q0 -30 -9.5 -60t-29 -54t-50.5 -38.5t-73 -14.5zM518 -11q-54 0 -84.5 26.5t-30.5 75.5q0 46 26.5 78t77.5 53q-23 20 -34 41.5t-11 51.5q0 34 15.5 61.5t45.5 42.5t70 15q50 0 76 -25.5t26 -68.5q0 -39 -24.5 -68.5t-68.5 -48.5q27 -17 42.5 -40.5t15.5 -61.5
q0 -39 -18 -69t-49.5 -46.5t-74.5 -16.5zM522 41q35 0 54.5 22.5t19.5 56.5q0 26 -14 44t-35 31q-35 -13 -57.5 -37.5t-22.5 -59.5q0 -25 14.5 -40.5t40.5 -16.5zM563 248q28 12 49.5 33t21.5 53q0 23 -13 35.5t-35 12.5q-31 0 -47 -19t-16 -46q0 -23 10.5 -39.5t29.5 -29.5
z" />
    <glyph glyph-name="seveneighths" unicode="&#x215e;" horiz-adv-x="687" 
d="M31 0l528 714h70l-527 -714h-71zM482 -10q-54 0 -84.5 26.5t-30.5 75.5q0 46 26.5 78t77.5 53q-23 20 -34 41.5t-11 51.5q0 34 15.5 61.5t45.5 42.5t70 15q50 0 76 -25.5t26 -68.5q0 -39 -24.5 -68.5t-68.5 -48.5q27 -17 42.5 -40.5t15.5 -61.5q0 -39 -18 -69
t-49.5 -46.5t-74.5 -16.5zM486 42q35 0 54.5 22.5t19.5 56.5q0 26 -14 44t-35 31q-35 -13 -57.5 -37.5t-22.5 -59.5q0 -25 14.5 -40.5t40.5 -16.5zM527 249q28 12 49.5 33t21.5 53q0 23 -13 35.5t-35 12.5q-31 0 -47 -19t-16 -46q0 -23 10.5 -39.5t29.5 -29.5zM69 286
l204 371h-167l12 57h236l-10 -47l-204 -381h-71z" />
    <glyph glyph-name="uni0394" unicode="&#x394;" horiz-adv-x="486" 
d="M-52 0l12 56l321 660h99l47 -660l-11 -56h-468zM60 79h282l-25 451q0 15 -1 32.5t-1.5 35.5t-0.5 32h-3q-7 -14 -14 -31.5t-14.5 -35t-14.5 -33.5z" />
    <glyph glyph-name="cyrillicbreve" 
d="M215 600q-57 0 -87 29.5t-30 82.5q0 6 0.5 12.5t1.5 14.5h67q-1 -9 -1 -13.5v-10.5q0 -30 12 -44.5t41 -14.5q32 0 51.5 20.5t29.5 62.5h71q-16 -68 -55 -103.5t-101 -35.5z" />
    <glyph glyph-name="uni2074" unicode="&#x2074;" horiz-adv-x="300" 
d="M192 416l19 95h-155l9 48l215 288h66l-61 -281h51l-11 -55h-51l-20 -95h-62zM128 566h95l25 117q5 22 9 41.5t9 35.5q-5 -9 -12.5 -20.5l-15 -23t-15.5 -21.5z" />
    <glyph glyph-name="uni2075" unicode="&#x2075;" horiz-adv-x="300" 
d="M155 408q-25 0 -47.5 5.5t-41.5 16.5l4 61q19 -14 41 -20.5t46 -6.5q32 0 53 15t31.5 38.5t10.5 50.5q0 32 -17 48t-46 16q-11 0 -23.5 -2.5t-25.5 -6.5l-29 23l59 199h182l-12 -58h-131l-33 -108q10 2 20 3.5t20 1.5q48 0 74.5 -29.5t26.5 -79.5q0 -30 -9.5 -60t-29 -54
t-50.5 -38.5t-73 -14.5z" />
    <glyph glyph-name="uni2077" unicode="&#x2077;" horiz-adv-x="300" 
d="M90 416l204 371h-167l12 57h236l-10 -47l-204 -381h-71z" />
    <glyph glyph-name="uni2078" unicode="&#x2078;" horiz-adv-x="300" 
d="M179 408q-54 0 -84.5 26.5t-30.5 75.5q0 46 26.5 78t77.5 53q-23 20 -34 41.5t-11 51.5q0 34 15.5 61.5t45.5 42.5t70 15q50 0 76 -25.5t26 -68.5q0 -39 -24.5 -68.5t-68.5 -48.5q27 -17 42.5 -40.5t15.5 -61.5q0 -39 -18 -69t-49.5 -46.5t-74.5 -16.5zM183 460
q35 0 54.5 22.5t19.5 56.5q0 26 -14 44t-35 31q-35 -13 -57.5 -37.5t-22.5 -59.5q0 -25 14.5 -40.5t40.5 -16.5zM224 667q28 12 49.5 33t21.5 53q0 23 -13 35.5t-35 12.5q-31 0 -47 -19t-16 -46q0 -23 10.5 -39.5t29.5 -29.5z" />
    <glyph glyph-name="uni2000" unicode="&#x2000;" horiz-adv-x="500" 
 />
    <glyph glyph-name="uni2001" unicode="&#x2001;" horiz-adv-x="1000" 
 />
    </font>
</defs>
</svg>
