<?xml version="1.0" standalone="no"?>
<!DOCTYPE svg PUBLIC "-//W3C//DTD SVG 1.1//EN" "http://www.w3.org/Graphics/SVG/1.1/DTD/svg11.dtd" >
<svg xmlns="http://www.w3.org/2000/svg" xmlns:xlink="http://www.w3.org/1999/xlink" version="1.1">
<metadata>
Created by FontForge 20170924 at Fri Jan  6 11:26:55 2012
 By Glenn,,,
Copyright (c) 2011, Sorkin Type Co (www.sorkintype.com), with Reserved Font Name Wellfleet
</metadata>
<defs>
<font id="Wellfleet-Regular" horiz-adv-x="1366" >
  <font-face 
    font-family="Wellfleet"
    font-weight="400"
    font-stretch="normal"
    units-per-em="2048"
    panose-1="2 4 5 3 5 6 0 6 7 4"
    ascent="1638"
    descent="-410"
    x-height="1118"
    cap-height="1525"
    bbox="-74 -540 2141 2020"
    underline-thickness="102"
    underline-position="-205"
    stemh="204"
    stemv="226"
    unicode-range="U+0001-FB02"
  />
<missing-glyph horiz-adv-x="1877" 
d="M200 219l-8 1534c0 65 53 110 123 110l1270 -7c81 0 100 -57 100 -118l-4 -1534c0 -66 -32 -86 -85 -88l-840 23l-479 -14c-59 3 -77 36 -77 94zM1358 1249l-118 129c-4 4 -9 6 -13 6c-6 0 -11 -3 -15 -7l-277 -314l-277 304c-4 4 -8 7 -12 7s-8 -3 -13 -9l-112 -127
c-5 -6 -8 -11 -8 -16c0 -4 2 -7 6 -11l295 -274l-294 -282c-4 -4 -5 -7 -5 -10c0 -4 2 -9 7 -14l112 -122c5 -5 12 -8 18 -8c7 0 12 3 16 8l266 308l280 -295c7 -7 12 -11 18 -11c4 0 9 3 13 8l116 132c3 4 6 10 6 15c0 4 -1 8 -5 11l-305 265l298 276c7 7 10 12 10 17
c0 4 -2 9 -7 14z" />
    <glyph glyph-name=".notdef" horiz-adv-x="1877" 
d="M200 219l-8 1534c0 65 53 110 123 110l1270 -7c81 0 100 -57 100 -118l-4 -1534c0 -66 -32 -86 -85 -88l-840 23l-479 -14c-59 3 -77 36 -77 94zM1358 1249l-118 129c-4 4 -9 6 -13 6c-6 0 -11 -3 -15 -7l-277 -314l-277 304c-4 4 -8 7 -12 7s-8 -3 -13 -9l-112 -127
c-5 -6 -8 -11 -8 -16c0 -4 2 -7 6 -11l295 -274l-294 -282c-4 -4 -5 -7 -5 -10c0 -4 2 -9 7 -14l112 -122c5 -5 12 -8 18 -8c7 0 12 3 16 8l266 308l280 -295c7 -7 12 -11 18 -11c4 0 9 3 13 8l116 132c3 4 6 10 6 15c0 4 -1 8 -5 11l-305 265l298 276c7 7 10 12 10 17
c0 4 -2 9 -7 14z" />
    <glyph glyph-name="space" unicode=" " horiz-adv-x="590" 
 />
    <glyph glyph-name="exclam" unicode="!" horiz-adv-x="512" 
d="M380 1529l-43 -1079c-1 -14 -5 -20 -18 -20c-19 0 -37 2 -136 13c-16 2 -25 8 -26 29l-40 1067c1 16 8 22 24 24l218 -8c16 -1 21 -6 21 -26zM414 80c0 -73 -102 -113 -206 -113c-81 0 -110 105 -110 174c0 91 133 112 210 112c80 0 106 -106 106 -173z" />
    <glyph glyph-name="quotedbl" unicode="&#x22;" horiz-adv-x="1024" 
d="M191 1745l201 -8c16 -1 19 -7 20 -24l-46 -513c0 -12 -8 -14 -24 -14l-111 10c-14 1 -19 4 -19 16l-40 517c1 12 10 16 19 16zM631 1745l201 -8c16 -1 19 -7 20 -24l-46 -513c0 -12 -8 -14 -24 -14l-111 10c-14 1 -19 4 -19 16l-40 517c1 12 10 16 19 16z" />
    <glyph glyph-name="numbersign" unicode="#" horiz-adv-x="1194" 
d="M1057 600l-16 -154c-1 -12 -4 -19 -18 -19l-198 6l-42 -326c-2 -12 -9 -17 -25 -17h-148c-14 0 -19 8 -19 20l54 328l-117 4l-67 -1l-45 -339c-2 -12 -9 -17 -25 -17l-141 5c-14 0 -19 8 -19 20l53 329l-180 -2c-12 0 -17 5 -17 19l15 141c2 16 10 23 25 24l185 -10
l17 103l19 150l-180 -6c-11 0 -15 5 -15 19l9 141c1 16 8 24 19 24l189 -6l40 308c1 12 9 20 23 20l148 -8c16 -1 19 -7 20 -24l-50 -301l50 -1l131 2l38 297c1 12 9 20 23 20l148 2c16 -1 19 -7 20 -24l-47 -292l178 3c9 -1 15 -4 15 -20l-9 -156c-1 -9 -5 -14 -14 -14
l-198 10l-25 -155l-13 -94l194 8c10 0 15 -5 15 -17zM498 712l-15 -109l78 -4l112 4l17 103l20 160l-126 7l-60 -2z" />
    <glyph glyph-name="dollar" unicode="$" horiz-adv-x="1364" 
d="M199 371l196 18c10 0 18 -7 21 -23l-1 -161c70 -12 140 -20 212 -23l6 495c-314 115 -442 218 -442 457c0 221 161 373 429 393l-3 153c0 17 4 23 20 24l131 8c9 0 18 -4 19 -16l-3 -171c72 -6 134 -19 196 -38c62 18 143 39 164 39c16 0 29 -10 30 -27l-20 -395
c-1 -15 -4 -23 -16 -23l-168 6c-19 1 -20 9 -21 26l-8 209c-64 13 -106 21 -160 25l-8 -464c365 -143 446 -270 446 -469c0 -216 -124 -386 -435 -409l3 -176c0 -12 -5 -15 -19 -16l-121 -10c-16 0 -24 2 -24 14l2 189c-71 5 -136 17 -196 31l11 -81c0 -12 -8 -18 -23 -18
l-172 -5c-24 1 -40 15 -42 39l-28 377c0 16 8 21 24 22zM978 389c0 102 -45 166 -204 235l7 -437c138 20 197 88 197 202zM436 1165c0 -112 50 -159 196 -224l-8 402c-115 -17 -188 -70 -188 -178z" />
    <glyph glyph-name="percent" unicode="%" horiz-adv-x="1376" 
d="M1153 1477l94 -70c5 -4 8 -9 8 -14s-2 -10 -5 -15l-473 -640l-488 -700c-4 -5 -10 -8 -16 -8c-4 0 -9 2 -14 5l-90 64c-5 3 -8 8 -8 13c0 6 3 12 7 18l498 691l460 652c4 6 8 9 14 9c3 0 8 -2 13 -5zM649 1213c0 -178 -105 -301 -299 -301c-188 0 -283 133 -283 294
c0 159 89 297 294 297c197 0 288 -119 288 -290zM363 1361c-105 0 -133 -82 -133 -157c0 -71 36 -151 127 -151c89 0 133 75 133 162c0 75 -40 146 -127 146zM1309 296c0 -178 -105 -301 -299 -301c-188 0 -283 133 -283 294c0 159 89 297 294 297c197 0 288 -119 288 -290z
M1023 444c-105 0 -133 -82 -133 -157c0 -71 36 -151 127 -151c89 0 133 75 133 162c0 75 -40 146 -127 146z" />
    <glyph glyph-name="ampersand" unicode="&#x26;" horiz-adv-x="1355" 
d="M1291 360l143 -131c4 -4 7 -9 7 -15c0 -3 -2 -6 -5 -9l-314 -332c-3 -3 -7 -6 -11 -6s-9 3 -14 8l-121 107c-8 7 -12 12 -12 17c0 3 1 6 5 10l85 84l-95 90c-115 -121 -261 -207 -465 -207c-216 0 -416 116 -416 360c0 208 127 327 332 444c-122 145 -180 240 -180 386
c0 245 181 375 424 375c224 0 409 -109 409 -348c0 -185 -104 -294 -353 -421c152 -168 284 -309 483 -515l68 100c4 5 10 9 16 9c4 0 9 -2 14 -6zM534 177c122 0 228 53 303 128c-123 126 -226 242 -328 359c-144 -98 -194 -192 -194 -286c0 -138 107 -201 219 -201z
M459 1168c0 -92 23 -140 153 -287c176 95 239 180 239 288c0 107 -64 187 -187 187c-112 0 -205 -63 -205 -188z" />
    <glyph glyph-name="quoteright" unicode="&#x2019;" horiz-adv-x="512" 
d="M103 1665c0 54 99 86 169 86c77 0 107 -67 107 -159c0 -143 -35 -256 -106 -405l-117 22c10 73 15 124 15 188c0 103 -34 177 -56 225c-8 18 -12 32 -12 43z" />
    <glyph glyph-name="parenleft" unicode="(" horiz-adv-x="683" 
d="M479 -193c-260 0 -326 324 -326 886c0 592 81 936 376 936c28 0 49 -1 65 -3c12 -1 15 -5 16 -19l10 -156c0 -12 -3 -19 -14 -19c-8 1 -24 2 -40 2c-184 0 -210 -215 -210 -716c0 -463 25 -716 159 -716c20 0 43 2 59 4c12 0 17 -7 18 -24l-9 -151c-1 -14 -9 -18 -21 -19
c-30 -3 -57 -5 -83 -5z" />
    <glyph glyph-name="parenright" unicode=")" horiz-adv-x="683" 
d="M204 1629c260 0 326 -324 326 -886c0 -592 -81 -936 -376 -936c-28 0 -49 1 -65 3c-12 1 -15 5 -16 19l-10 156c0 12 3 19 14 19c8 -1 24 -2 40 -2c184 0 210 215 210 716c0 463 -25 716 -159 716c-20 0 -43 -2 -59 -4c-12 0 -17 7 -18 24l9 151c1 14 9 18 21 19
c30 3 57 5 83 5z" />
    <glyph glyph-name="asterisk" unicode="*" horiz-adv-x="1021" 
d="M707 1623l-108 -296l305 55c22 0 27 -3 31 -21l35 -165c0 -18 -4 -26 -21 -26l-339 24l147 -283c3 -7 5 -13 5 -17c0 -8 -5 -14 -14 -18l-145 -67c-4 -2 -8 -2 -11 -2c-9 0 -16 5 -19 17l-86 318l-231 -235c-7 -8 -13 -10 -18 -10s-10 3 -15 10l-97 124c-4 6 -7 12 -7 18
c0 5 2 11 9 15l277 179l-299 153c-8 4 -13 11 -13 18c0 5 2 11 6 16l92 128c6 8 12 11 18 11c5 0 11 -2 17 -7l247 -206l52 334c2 15 14 18 30 18l138 -54c11 -4 16 -11 16 -20c0 -3 -1 -7 -2 -11z" />
    <glyph glyph-name="plus" unicode="+" horiz-adv-x="1194" 
d="M514 1045l161 -8c16 -1 20 -7 20 -24l-10 -325l326 4c12 -1 18 -3 18 -19l-3 -161c0 -16 -7 -19 -24 -20l-319 10l6 -364c0 -12 -8 -15 -24 -16l-151 7c-14 1 -19 4 -19 16l8 356l-314 -13c-12 0 -13 8 -14 24l-10 151c1 14 4 19 16 19l322 4l-8 338c0 12 6 20 19 21z
" />
    <glyph glyph-name="comma" unicode="," horiz-adv-x="502" 
d="M104 115c0 54 107 136 177 136c100 0 127 -116 127 -200c0 -142 -76 -275 -154 -364l-127 32c35 77 57 159 57 197c0 62 -21 95 -43 122s-37 45 -37 77z" />
    <glyph glyph-name="hyphen" unicode="-" horiz-adv-x="1194" 
d="M1016 753l-18 -151c-2 -16 -7 -19 -24 -20l-783 -4c-12 0 -14 8 -14 24l10 141c1 14 4 19 16 19l797 10c12 -1 16 -10 16 -19z" />
    <glyph glyph-name="period" unicode="." horiz-adv-x="512" 
d="M421 80c0 -73 -102 -113 -206 -113c-81 0 -110 105 -110 174c0 91 133 112 210 112c80 0 106 -106 106 -173z" />
    <glyph glyph-name="slash" unicode="/" horiz-adv-x="682" 
d="M524 1736l134 -32c10 -3 15 -8 15 -17c0 -3 -1 -7 -2 -11l-501 -2117c-2 -9 -8 -14 -18 -14c-3 0 -6 0 -10 1l-126 31c-11 3 -16 11 -16 21c0 2 0 5 1 7l496 2115c2 11 10 17 20 17c2 0 4 0 7 -1z" />
    <glyph glyph-name="zero" unicode="0" horiz-adv-x="1194" 
d="M142 700c0 450 52 840 474 840c295 0 435 -243 435 -737c0 -542 -114 -823 -480 -823c-288 0 -429 254 -429 720zM600 202c202 0 225 248 225 632c0 339 -49 480 -226 480c-193 0 -234 -127 -234 -617c0 -304 39 -495 235 -495z" />
    <glyph glyph-name="one" unicode="1" horiz-adv-x="1194" 
d="M209 1372l364 149c14 6 22 9 36 10l149 -14c14 -1 18 -7 18 -23l-17 -214l-12 -1081l275 21c12 0 15 -5 16 -19l10 -181c0 -16 -2 -24 -14 -24l-803 14c-17 0 -23 4 -24 20l-8 171c0 9 4 19 16 19l317 -22v1038l-311 -40c-14 0 -18 6 -20 22l-15 125c0 15 8 23 23 29z
" />
    <glyph glyph-name="two" unicode="2" horiz-adv-x="1194" 
d="M365 1520l4 -66c100 52 190 80 293 80c251 0 398 -118 398 -354c0 -265 -112 -411 -650 -980l453 29l-2 105c0 24 18 39 42 39l150 -13c21 -2 31 -8 32 -30l-39 -382c-2 -16 -11 -23 -21 -23l-168 4c-18 0 -22 9 -22 26l11 65l-651 -8c-12 0 -16 8 -18 24l-24 173
c0 13 7 22 16 30c573 561 647 730 647 927c0 103 -74 167 -190 167c-98 0 -168 -16 -245 -56l12 -164c0 -17 -1 -25 -21 -26l-188 14c-12 1 -15 8 -16 23l-20 370c1 17 11 27 30 32c27 7 127 26 149 26c19 0 36 -8 38 -32z" />
    <glyph glyph-name="three" unicode="3" horiz-adv-x="1194" 
d="M182 343l136 18c10 0 18 -7 21 -23l16 -138c77 -16 156 -24 237 -24c150 0 277 88 277 263c0 179 -123 236 -208 236c-54 0 -125 -14 -183 -27c-37 -8 -68 -14 -82 -14c-12 0 -25 8 -26 23l-14 145c1 17 10 31 30 32c289 17 405 166 405 313c0 125 -77 187 -182 187
c-84 0 -158 -25 -231 -70l9 -121c-1 -17 -1 -24 -21 -26l-178 -16c-12 0 -15 8 -16 23l20 400c1 20 9 31 30 32l139 -4c19 -1 36 -8 38 -32l-10 -71c97 55 200 88 322 88c198 0 313 -150 313 -347c0 -174 -85 -278 -264 -382c225 -38 343 -158 343 -369
c0 -270 -220 -441 -484 -441c-101 0 -172 10 -243 30l7 -60c0 -12 -8 -17 -23 -18l-152 -15c-37 0 -41 14 -42 39l-8 347c0 15 8 20 24 22z" />
    <glyph glyph-name="four" unicode="4" horiz-adv-x="1194" 
d="M1059 166l8 -151c0 -9 -4 -19 -16 -19h-583c-13 0 -19 5 -20 19l-10 161c0 16 2 24 14 24l221 -6l6 266l-498 -4c-30 0 -45 12 -52 28l-45 102c-4 10 -5 13 -5 24c0 38 396 902 414 936c9 17 15 22 33 22l215 -50c12 -3 16 -7 17 -19c0 -24 -296 -582 -470 -886l395 14
l8 334c0 14 6 23 25 23l202 3c15 -2 20 -7 20 -22l-39 -331l192 7c12 0 16 -10 16 -19l8 -138c-1 -16 -7 -20 -24 -20l-196 -2v-273l140 -3c17 0 23 -5 24 -20z" />
    <glyph glyph-name="five" unicode="5" horiz-adv-x="1194" 
d="M183 333l126 8c10 0 21 -7 21 -23l1 -107c83 -17 172 -25 259 -25c171 0 270 93 270 280c0 174 -94 259 -218 259c-97 0 -179 -12 -237 -22c-39 -7 -65 -11 -79 -11c-13 0 -20 7 -31 23l-93 133l99 635c2 16 8 31 28 31l505 -27v45c0 16 6 24 22 26l128 14
c10 0 20 -7 21 -23l14 -350c-1 -14 -9 -17 -23 -18l-142 -15c-26 0 -42 15 -42 39l10 95h-350l-57 -430c101 31 189 48 269 48c270 0 396 -172 396 -448c0 -325 -187 -463 -453 -463c-120 0 -200 10 -282 35l9 -74c0 -14 -8 -17 -23 -18l-142 -15c-31 0 -41 14 -42 39
l12 337c0 15 6 21 24 22z" />
    <glyph glyph-name="six" unicode="6" horiz-adv-x="1194" 
d="M962 1168l-178 -34c-10 0 -20 7 -21 23l-9 217c-20 5 -41 8 -65 8c-256 0 -309 -169 -318 -510c76 27 173 48 285 48c206 0 421 -87 421 -433c0 -351 -200 -519 -475 -519c-343 0 -478 257 -478 770c0 542 167 810 495 810c53 0 104 -10 154 -27l131 49
c24 0 39 -15 42 -39l38 -337c0 -12 -4 -23 -22 -26zM630 735c-83 0 -171 -11 -260 -31c2 -388 57 -533 235 -533c167 0 255 104 255 294c0 241 -105 270 -230 270z" />
    <glyph glyph-name="seven" unicode="7" horiz-adv-x="1194" 
d="M1106 1350l-510 -1339c-5 -12 -12 -21 -26 -22l-232 20c-12 1 -16 7 -17 19c0 33 415 940 581 1293h-553l1 -240c0 -14 -8 -19 -24 -20l-173 -12c-9 1 -19 8 -21 24l9 469c0 14 7 18 23 18l164 -20c15 -2 20 -6 20 -23v-29l731 27c20 -1 30 -13 31 -35z" />
    <glyph glyph-name="eight" unicode="8" horiz-adv-x="1194" 
d="M1028 1186c0 -183 -86 -283 -216 -404c182 -115 258 -214 258 -392c0 -273 -178 -410 -462 -410c-250 0 -474 118 -474 400c0 214 107 323 227 433c-120 92 -186 191 -186 341c0 263 193 406 419 406c221 0 434 -105 434 -374zM487 728c-104 -115 -134 -207 -134 -298
c0 -165 114 -250 269 -250c129 0 220 72 220 207c0 138 -81 181 -355 341zM382 1162c0 -89 60 -168 308 -307c80 81 146 164 146 299c0 121 -97 202 -217 202c-122 0 -237 -55 -237 -194z" />
    <glyph glyph-name="nine" unicode="9" horiz-adv-x="1194" 
d="M221 351l138 10c10 0 19 -7 21 -23l21 -198c46 -8 91 -12 138 -12c240 0 285 168 293 531c-74 -28 -170 -50 -285 -50c-207 0 -425 85 -425 430c0 369 225 522 482 522c321 0 466 -243 466 -739c0 -552 -127 -860 -442 -860c-88 0 -164 5 -235 23l-184 -36
c-24 0 -39 15 -42 39l32 337c1 12 9 25 22 26zM577 1357c-161 0 -229 -115 -229 -284c0 -241 104 -283 227 -283c77 0 164 13 259 37v28c0 351 -58 502 -257 502z" />
    <glyph glyph-name="colon" unicode=":" horiz-adv-x="512" 
d="M421 80c0 -73 -102 -113 -206 -113c-81 0 -110 105 -110 174c0 91 133 112 210 112c80 0 106 -106 106 -173zM421 847c0 -73 -102 -113 -206 -113c-81 0 -110 105 -110 174c0 91 133 112 210 112c80 0 106 -106 106 -173z" />
    <glyph glyph-name="semicolon" unicode=";" horiz-adv-x="512" 
d="M126 115c0 -32 15 -50 37 -77s43 -60 43 -122c0 -38 -22 -120 -57 -197l127 -32c78 89 154 222 154 364c0 84 -27 200 -127 200c-70 0 -177 -82 -177 -136zM421 847c0 -73 -102 -113 -206 -113c-81 0 -110 105 -110 174c0 91 133 112 210 112c80 0 106 -106 106 -173z
" />
    <glyph glyph-name="less" unicode="&#x3c;" horiz-adv-x="1194" 
d="M862 132l-613 358c-13 8 -24 18 -25 35l-8 96c1 14 7 25 17 31l613 372c4 3 12 6 17 6c7 0 14 -1 19 -8l88 -137c4 -6 6 -11 6 -15c0 -3 -1 -7 -6 -10l-537 -283l538 -273c5 -3 6 -7 6 -11c0 -5 -2 -10 -6 -17l-84 -142c-3 -5 -7 -7 -11 -7s-9 2 -14 5z" />
    <glyph glyph-name="equal" unicode="=" horiz-adv-x="1194" 
d="M190 692l-8 151c0 11 6 19 18 19l795 -10c12 0 15 -5 16 -19v-141c0 -16 -5 -24 -17 -24l-398 12l-382 -8c-17 1 -23 4 -24 20zM1003 438l8 -151c0 -9 -4 -18 -16 -19l-797 10c-12 0 -15 5 -16 19v141c0 16 7 24 19 24l412 -12l366 8c17 -1 23 -4 24 -20z" />
    <glyph glyph-name="greater" unicode="&#x3e;" horiz-adv-x="1194" 
d="M332 1024l613 -358c13 -8 24 -18 25 -35l8 -96c-1 -14 -7 -25 -17 -31l-613 -372c-4 -3 -12 -6 -17 -6c-7 0 -14 1 -19 8l-88 137c-4 6 -6 11 -6 15c0 3 1 7 6 10l537 283l-538 273c-5 3 -6 7 -6 11c0 5 2 10 6 17l84 142c3 5 7 7 11 7s9 -2 14 -5z" />
    <glyph glyph-name="question" unicode="?" horiz-adv-x="1023" 
d="M307 1500l-2 -60c107 56 201 84 319 84c219 0 349 -105 349 -329c0 -174 -104 -327 -211 -471c-76 -102 -152 -203 -192 -306c-6 -15 -11 -22 -25 -22l-156 23c-9 1 -13 6 -13 15c0 8 2 18 4 26c23 92 81 193 148 291c103 150 211 305 211 427c0 86 -68 145 -168 145
c-114 0 -185 -27 -272 -72l-4 -128c-1 -17 -1 -25 -21 -26l-188 -6c-12 0 -15 8 -16 23l20 390c1 16 10 32 30 32l149 -4c19 -1 36 -9 38 -32zM646 80c0 -73 -102 -113 -206 -113c-81 0 -110 105 -110 174c0 91 133 112 210 112c80 0 106 -106 106 -173z" />
    <glyph glyph-name="at" unicode="@" horiz-adv-x="2042" 
d="M591 454c0 446 149 700 426 700c99 0 174 -31 229 -82c-1 35 -3 67 -7 102c0 13 7 21 24 21l170 -31c14 -3 18 -7 18 -23c0 0 -68 -650 -68 -839c0 -73 50 -115 112 -115c128 0 231 236 231 629c0 404 -233 581 -626 581c-525 0 -776 -311 -776 -950
c0 -509 215 -707 679 -707c236 0 470 40 773 178c17 0 21 -4 23 -18l31 -180c0 -17 -8 -23 -20 -28c-258 -98 -505 -160 -844 -160c-488 0 -828 262 -828 906c0 716 340 1157 976 1157c484 0 789 -244 789 -760c0 -539 -151 -840 -421 -840c-95 0 -181 50 -232 145
c-82 -118 -195 -166 -313 -166c-225 0 -346 177 -346 480zM958 188c220 0 256 326 256 499c0 197 -65 262 -188 262c-165 0 -229 -173 -229 -478c0 -158 20 -283 161 -283z" />
    <glyph glyph-name="A" unicode="A" 
d="M828 1516l432 -1283l91 3c19 -1 28 -8 28 -32v-158c0 -22 -9 -27 -31 -27h-463c-24 0 -24 11 -24 30l20 146c3 23 9 28 30 28l114 3l-86 266l-495 10l-81 -290l121 12c16 0 21 -6 23 -23l15 -152c-3 -22 -10 -29 -30 -30l-436 -17c-17 1 -22 13 -22 32v167
c0 21 8 28 30 29l92 -4l396 1284c4 12 9 20 24 21l227 8c13 -1 20 -8 25 -23zM670 1315l-179 -643h389z" />
    <glyph glyph-name="B" unicode="B" 
d="M155 233c34 0 74 -5 123 -12v1099c-42 -3 -83 -5 -123 -5c-18 0 -27 11 -28 28l-9 140c1 16 8 28 24 31c121 22 334 41 503 41c331 0 533 -121 533 -419c0 -191 -83 -293 -225 -341c181 -36 315 -137 315 -362c0 -329 -207 -448 -589 -448c-173 0 -429 22 -537 42
c-16 3 -23 15 -24 31l9 147c1 17 14 28 28 28zM699 668c-68 0 -130 -2 -197 -9v-464c48 -3 102 -5 162 -5c225 0 384 32 384 241c0 208 -157 237 -349 237zM653 1351c-48 0 -99 -4 -151 -9v-487c39 -2 78 -2 117 -2c199 0 336 48 336 258c0 203 -135 240 -302 240z" />
    <glyph glyph-name="C" unicode="C" 
d="M1181 1029l-168 -4c-10 0 -20 7 -21 23l-21 257c-75 19 -147 30 -230 30c-262 0 -375 -154 -375 -570c0 -440 142 -589 395 -589c96 0 164 15 235 38l-5 134c1 15 8 19 24 22l166 28c10 0 19 -7 21 -23l40 -390c0 -12 -9 -17 -23 -18l-172 -15c-24 0 -41 15 -42 39l-2 42
c-82 -44 -186 -74 -309 -74c-371 0 -564 287 -564 817c0 551 235 764 577 764c99 0 205 -11 286 -38l180 28c24 0 41 -15 42 -39l-12 -436c0 -16 -9 -26 -22 -26z" />
    <glyph glyph-name="D" unicode="D" 
d="M101 6c-12 1 -17 8 -18 24l12 177c1 13 4 17 16 19l109 -8l26 1095c-45 -3 -91 -7 -141 -12c-14 0 -17 6 -18 22l-14 186c1 16 8 19 24 21c396 10 469 10 553 10c369 0 609 -165 609 -754c0 -542 -247 -805 -614 -805c-201 0 -387 9 -544 25zM646 1336
c-31 0 -94 -2 -181 -7l-12 -1124c76 -5 118 -6 186 -6c271 0 394 189 394 562c0 447 -141 575 -387 575z" />
    <glyph glyph-name="E" unicode="E" 
d="M1251 -64l-188 4c-16 0 -22 10 -22 26l-2 61l-893 -25c-16 0 -23 8 -24 24l6 184c0 13 4 17 16 19l125 -17l-8 1089l-126 -11c-14 0 -18 6 -18 22l11 182c1 16 8 20 24 21l999 38c17 -1 30 -8 30 -27l-20 -365c0 -15 -4 -23 -16 -23l-168 6c-18 1 -20 9 -21 26l-6 172
l-473 -25l7 -466l491 31c14 0 26 -5 27 -23l7 -168c-1 -15 -7 -23 -21 -23l-502 -7l7 -457l540 18l-4 131c1 24 18 38 42 39l162 -5c15 -1 23 -6 23 -18l16 -410c-2 -16 -11 -23 -21 -23z" />
    <glyph glyph-name="F" unicode="F" horiz-adv-x="1195" 
d="M975 648l-503 13l-6 -448l258 15c14 0 22 -4 23 -22l11 -176c-1 -17 -4 -23 -18 -23l-599 -12c-16 2 -23 5 -24 21l-11 182c0 16 4 21 18 22l126 -6l8 1108l-135 -11c-12 2 -15 6 -16 19l14 184c1 16 6 24 18 24l732 -17l-1 53c0 16 6 24 22 26l158 14c10 0 19 -7 21 -23
l54 -420c0 -12 -8 -17 -23 -18l-182 -15c-24 0 -41 15 -42 39l-3 138l-393 11l-7 -476l516 2c13 0 18 -7 18 -19l-7 -162c-1 -18 -13 -23 -27 -23z" />
    <glyph glyph-name="G" unicode="G" 
d="M706 617l4 178c0 16 10 21 26 22l487 32c24 -1 38 -18 39 -42l-5 -172c0 -15 -10 -23 -18 -23l-52 -2l18 -595c-1 -18 -12 -28 -26 -28c-31 0 -112 30 -189 69c-78 -45 -181 -78 -305 -78c-382 0 -589 240 -589 812c0 553 218 750 565 750c120 0 227 -34 305 -97l20 121
c2 15 9 25 22 26l157 14c14 0 24 -7 24 -23l11 -366c0 -14 -8 -20 -20 -22l-190 -26c-74 100 -156 162 -281 162c-238 0 -397 -118 -397 -543c0 -474 160 -593 417 -593c79 0 182 20 248 44l-5 366l-243 -7c-16 2 -23 11 -23 21z" />
    <glyph glyph-name="H" unicode="H" horiz-adv-x="1538" 
d="M680 221l-13 -188c-1 -16 -7 -20 -24 -20l-464 -7c-12 0 -17 8 -18 24l2 177c0 13 4 17 16 19l107 -3v1081l-133 -1c-14 0 -17 6 -18 22l-9 176c1 16 8 19 24 21l499 -8c14 -1 18 -6 18 -23l-4 -176c0 -18 -9 -22 -23 -22l-131 7l-1 -442l542 7v457l-137 4
c-14 0 -17 6 -18 22l6 166c1 16 8 21 24 21l467 2c14 -1 17 -6 18 -23l13 -179c0 -18 -9 -22 -23 -22l-127 3l-3 -1111l154 5c12 0 16 -10 16 -19l-13 -178c-1 -16 -7 -20 -24 -20l-474 13c-12 0 -17 8 -18 24l2 167c0 13 4 17 16 19l121 -9v456l-543 -4l-1 -430l158 11
c12 0 16 -10 16 -19z" />
    <glyph glyph-name="I" unicode="I" horiz-adv-x="682" 
d="M601 191l-3 -178c0 -16 -7 -20 -24 -20l-464 13c-12 0 -17 8 -18 24l-8 177c1 13 4 17 16 19l139 -10l-8 1089l-137 1c-14 0 -18 6 -18 22l16 176c1 16 8 19 24 21l467 -18c14 -1 17 -6 18 -23l-7 -159c-1 -18 -9 -22 -23 -22h-117l-3 -1093h134c12 0 16 -10 16 -19z" />
    <glyph glyph-name="J" unicode="J" horiz-adv-x="852" 
d="M60 332l139 14c10 0 19 -7 21 -23l31 -228c13 -4 36 -8 58 -8c145 0 197 92 197 329c0 257 -20 532 -46 894l-207 -12c-12 0 -16 10 -16 19l-7 188c1 16 7 19 24 20l562 17c12 0 17 -8 18 -24l8 -187c-1 -13 -4 -17 -16 -19l-147 3c37 -421 43 -710 43 -958
c0 -332 -110 -446 -380 -446c-22 0 -44 3 -66 6l8 -54c0 -12 -8 -17 -23 -18l-153 -15c-26 0 -40 15 -42 39l-28 437c1 18 6 24 22 26z" />
    <glyph glyph-name="K" unicode="K" 
d="M836 1338l16 186c1 16 9 19 24 21l417 -8c13 -1 18 -6 18 -23l3 -179c0 -18 -9 -22 -23 -22l-111 1l-410 -582l374 -510l172 -12c19 -1 33 -11 33 -34l1 -147c0 -25 -10 -44 -37 -45l-262 -7c-18 1 -25 5 -35 20l-414 633l-121 -4v-406h104c12 0 16 -10 16 -19l7 -188
c-1 -16 -7 -20 -24 -20l-464 3c-12 0 -17 8 -18 24l-8 197c1 13 4 17 16 19l147 -9v1093l-143 -14c-14 0 -17 6 -18 22l-14 196c1 16 8 21 24 21l477 2c14 -1 17 -6 18 -23l-17 -189c-2 -18 -9 -22 -23 -22l-80 5v-520l126 8l339 509l-92 1c-14 0 -18 6 -18 22z" />
    <glyph glyph-name="L" unicode="L" horiz-adv-x="1195" 
d="M1127 -19l-158 -24c-10 0 -19 7 -21 23l-5 48l-843 -35c-12 0 -17 8 -18 24l16 174c1 13 4 17 16 19l138 -6l9 1100l-136 -13c-14 0 -17 6 -18 22l-9 180c1 16 8 23 24 23l485 8c14 -1 20 -6 22 -23l19 -176c0 -18 -10 -21 -23 -22l-146 5l-3 -1099l446 23l-18 175
c0 12 8 20 23 21l162 15c24 0 41 -15 42 -39l18 -397c-1 -16 -6 -24 -22 -26z" />
    <glyph glyph-name="M" unicode="M" horiz-adv-x="1872" 
d="M547 201l17 -178c-1 -16 -7 -20 -24 -20l-434 -7c-12 0 -17 8 -18 24l12 187c1 13 4 17 16 19l132 -12l59 1081l-124 -12c-15 0 -20 6 -21 22l-9 186c1 16 8 20 24 21l410 22c22 0 33 -13 37 -28l318 -1268l316 1259c4 17 15 28 37 28l393 -3c16 -2 23 -5 24 -21l11 -196
c-2 -16 -4 -22 -18 -22l-123 1l68 -1071l133 3c12 -2 15 -6 16 -19l-18 -167c-2 -16 -6 -24 -18 -24l-394 -3c-17 0 -23 4 -24 20l7 168c1 14 4 19 16 19h69l-60 1127l-319 -1327c-3 -14 -7 -20 -24 -20l-212 -3c-12 0 -19 6 -23 22l-331 1282l-29 -1075l92 4
c12 0 15 -10 16 -19z" />
    <glyph glyph-name="N" unicode="N" horiz-adv-x="1536" 
d="M639 221l17 -198c-1 -16 -7 -20 -24 -20l-484 3c-12 0 -16 8 -18 24l-18 167c1 13 4 19 16 19l157 4v1081l-183 -8c-14 1 -16 6 -18 22l11 176c1 16 8 20 24 21l440 22c22 -1 29 -9 37 -28l567 -1274l-26 1079l-155 5c-14 0 -17 6 -18 22l6 166c1 16 8 21 24 21l447 2
c14 -1 17 -6 18 -23l13 -179c0 -18 -9 -22 -23 -22l-127 3l-2 -1267c0 -16 -7 -28 -24 -29l-242 -13c-12 0 -16 7 -23 22l-589 1305l24 -1094l157 10c12 0 15 -5 16 -19z" />
    <glyph glyph-name="O" unicode="O" 
d="M105 751c0 502 185 789 566 789c378 0 589 -225 589 -789c0 -488 -176 -761 -561 -761c-390 0 -594 260 -594 761zM1034 745c0 463 -132 567 -361 567c-256 0 -344 -179 -344 -557c0 -410 124 -538 377 -538c244 0 328 164 328 528z" />
    <glyph glyph-name="P" unicode="P" 
d="M753 199l-13 -166c-1 -16 -7 -20 -24 -20l-574 -7c-12 0 -18 8 -18 24l2 175c0 13 4 17 16 19l157 -16v1120c-80 -7 -138 -13 -156 -13c-13 0 -25 12 -25 28l11 140c1 16 8 28 24 31c121 22 404 41 573 41c382 0 573 -138 573 -477c0 -346 -235 -448 -553 -448
c-79 0 -156 3 -233 10v-435l224 13c12 0 16 -10 16 -19zM764 1354c-83 0 -170 -4 -251 -9v-523c71 -7 136 -9 207 -9c203 0 346 46 346 267c0 196 -121 274 -302 274z" />
    <glyph glyph-name="Q" unicode="Q" 
d="M110 761c0 539 171 809 552 809c378 0 595 -229 595 -813c0 -498 -156 -770 -504 -795c40 -96 109 -125 200 -125c54 0 118 9 165 18c33 6 54 9 63 9c10 0 15 -6 16 -17l11 -167c-2 -16 -7 -18 -22 -22c-79 -21 -171 -39 -265 -39c-230 0 -294 130 -343 351
c-310 52 -468 313 -468 791zM1035 751c0 475 -142 593 -371 593c-256 0 -336 -173 -336 -578c0 -440 128 -602 381 -602c244 0 326 196 326 587z" />
    <glyph glyph-name="R" unicode="R" 
d="M118 1301c-14 0 -26 11 -28 28l-20 164c1 16 8 29 24 31c116 13 438 31 593 31c359 0 544 -144 544 -474c0 -252 -144 -392 -348 -432l262 -414l177 15c18 -1 33 -11 33 -34l1 -157c0 -25 -10 -54 -37 -55l-284 -7c-15 0 -23 5 -31 20l-338 621c-71 1 -138 5 -205 11
l3 -429h135c12 0 16 -10 16 -19l7 -188c-1 -16 -7 -20 -24 -20l-504 3c-12 0 -17 8 -18 24l22 197c1 13 4 17 16 19l127 -9v1080c-49 -4 -92 -6 -123 -6zM725 1345c-60 0 -163 -9 -270 -19l4 -498c69 -4 133 -5 203 -5c192 0 337 69 337 253c0 189 -91 269 -274 269z" />
    <glyph glyph-name="S" unicode="S" horiz-adv-x="1196" 
d="M118 381l196 18c10 0 20 -7 21 -23l13 -162c102 -11 218 -15 301 -15c171 0 243 65 243 195c0 128 -80 167 -294 271c-294 142 -478 196 -478 465c0 246 192 422 460 422c113 0 210 -18 308 -45c62 18 143 39 165 39c16 0 29 -10 30 -27l-20 -415c-1 -15 -4 -23 -16 -23
l-168 6c-18 1 -20 9 -21 26l-8 220c-67 16 -127 28 -198 28c-145 0 -297 -53 -297 -209c0 -135 141 -180 385 -293c300 -139 392 -222 392 -446c0 -253 -151 -409 -450 -409c-97 0 -218 14 -320 32l7 -80c0 -12 -8 -18 -23 -18l-172 -5c-24 1 -40 15 -42 39l-38 387
c0 16 8 21 24 22z" />
    <glyph glyph-name="T" unicode="T" 
d="M1232 1038l-171 8c-16 2 -19 7 -20 24l3 247l-258 -4l17 -1088l193 11c12 -2 16 -6 16 -19l2 -177c-1 -16 -6 -24 -18 -24l-594 -13c-17 0 -23 4 -24 20l7 198c0 9 4 19 16 19l178 -11l-18 1078l-252 -14l1 -212c-1 -14 -8 -19 -24 -20l-173 -12c-9 1 -19 8 -21 24l9 469
c0 14 7 18 23 18l164 -20c15 0 20 -6 20 -23v-26l767 8l184 20c14 0 22 -7 22 -22l-30 -443c-1 -12 -10 -16 -19 -16z" />
    <glyph glyph-name="U" unicode="U" horiz-adv-x="1538" 
d="M1431 181l-13 -178c-1 -16 -7 -20 -24 -20l-343 -7c-14 0 -23 9 -23 24l1 227c-114 -135 -264 -215 -418 -215c-253 0 -392 188 -392 526c0 249 7 377 39 768l-164 -13c-14 0 -16 5 -18 22l11 186c1 16 8 20 24 21l432 15c14 -1 18 -6 18 -23l-14 -176
c-2 -19 -9 -22 -23 -22h-48c-22 -382 -29 -488 -29 -694c0 -298 103 -376 224 -376c123 0 270 64 359 144l6 890l-107 -4c-9 0 -14 9 -14 22l6 186c1 16 8 21 24 21l448 12c13 -1 18 -6 18 -23l3 -179c0 -17 -10 -22 -23 -22l-140 -5v-1104l164 16c12 0 16 -10 16 -19z" />
    <glyph glyph-name="V" unicode="V" horiz-adv-x="1364" 
d="M574 15l-445 1275l-65 -5c-19 0 -28 8 -28 32l10 168c0 22 9 27 31 27l443 10c19 -2 23 -11 24 -30l10 -166c-3 -23 -9 -28 -30 -28l-146 1l322 -1049l303 1070l-127 -3c-16 0 -21 6 -23 23l5 162c1 22 10 29 30 30l436 -3c17 0 22 -13 22 -32l-10 -157
c-1 -21 -8 -28 -30 -29l-83 4l-413 -1294c-4 -12 -9 -20 -24 -21l-187 -8c-13 1 -20 8 -25 23z" />
    <glyph glyph-name="W" unicode="W" horiz-adv-x="1878" 
d="M1353 1350l5 162c1 22 10 29 30 30l446 -13c17 -1 22 -13 22 -32l-10 -157c-1 -21 -8 -28 -30 -29l-96 4l-312 -1294c-3 -12 -9 -20 -24 -21l-157 -8c-13 1 -22 8 -25 23l-247 1065l-233 -1059c-3 -12 -9 -20 -24 -21l-167 -8c-13 1 -20 8 -25 23l-329 1289l-94 -9
c-19 0 -28 8 -28 32l10 168c1 22 9 26 31 27l463 20c22 -1 23 -11 24 -30l10 -166c-3 -23 -9 -28 -30 -28l-161 2l226 -997l240 1168c2 12 9 20 24 21l151 11c13 -1 22 -8 25 -23l263 -1181l199 1004l-154 4c-16 0 -21 6 -23 23z" />
    <glyph glyph-name="X" unicode="X" 
d="M82 26l10 187c1 16 7 20 23 20l110 -17l402 546l-362 553l-130 -12c-14 0 -21 6 -21 24v179c0 16 7 20 23 20l491 11c18 0 18 -8 18 -22l5 -180c-2 -17 -6 -21 -22 -21l-91 5l187 -383l196 372l-69 4c-12 1 -16 5 -17 17l-11 175c2 16 7 21 22 22h437
c12 -1 15 -10 16 -24l-10 -193c-1 -15 -6 -21 -22 -21l-120 7l-342 -505l381 -570l134 2c13 0 15 -10 15 -24l-19 -166c-2 -15 -6 -19 -23 -19l-446 -6c-12 1 -19 6 -20 18l-12 169c1 16 8 21 23 21l80 1l-210 419l-246 -420l103 8c13 0 16 -10 16 -24l-2 -175
c-3 -17 -7 -20 -22 -21l-454 2c-14 0 -21 5 -21 21z" />
    <glyph glyph-name="Y" unicode="Y" 
d="M980 193l-16 -176c-1 -16 -8 -19 -24 -21l-532 15c-14 0 -17 6 -18 23l7 169c1 18 9 22 23 22l157 -3l3 337l-428 748l-86 -6c-19 0 -28 8 -28 32l-10 170c0 22 9 27 31 27h483c24 0 24 -11 24 -30l-10 -165c-1 -23 -9 -27 -30 -28l-110 4l298 -599l288 591l-127 -3
c-16 0 -21 6 -23 23l-15 167c1 22 10 30 30 30l456 7c17 -1 22 -13 22 -32l-10 -162c-1 -21 -8 -29 -30 -29h-87l-415 -746l-7 -340l166 -3c14 0 18 -6 18 -22z" />
    <glyph glyph-name="Z" unicode="Z" horiz-adv-x="1196" 
d="M322 1081l-167 -3c-15 2 -19 7 -20 22l13 399c1 19 5 25 22 27l187 -23l700 39c29 0 40 -21 44 -47l26 -198l-745 -1090l542 -12l5 141c1 15 5 26 21 26l178 -4c12 0 16 -8 16 -23l-12 -395c0 -15 -7 -20 -20 -21l-174 -12c-17 1 -23 11 -24 28l3 77l-718 11
c-37 1 -56 16 -60 53l-16 155l751 1111l-509 -17l-19 -222c-1 -15 -11 -22 -24 -22z" />
    <glyph glyph-name="bracketleft" unicode="[" horiz-adv-x="682" 
d="M173 -178l20 1789c0 12 5 16 19 16l374 9c12 0 15 -5 16 -19l-10 -166c-1 -13 -7 -19 -19 -19l-188 11l8 -603l-27 -839l212 20c12 0 14 -8 14 -24l-20 -151c-2 -14 -9 -18 -21 -19l-359 -21c-14 1 -19 4 -19 16z" />
    <glyph glyph-name="backslash" unicode="\" horiz-adv-x="682" 
d="M24 1704l134 32c3 1 5 1 7 1c10 0 18 -6 20 -17l496 -2115c1 -2 1 -5 1 -7c0 -10 -5 -18 -16 -21l-126 -31c-4 -1 -7 -1 -10 -1c-10 0 -16 5 -18 14l-501 2117c-1 4 -2 8 -2 11c0 9 5 14 15 17z" />
    <glyph glyph-name="bracketright" unicode="]" horiz-adv-x="682" 
d="M509 1620l-20 -1789c0 -12 -5 -16 -19 -16l-374 -9c-12 0 -15 5 -16 19l10 166c1 13 7 19 19 19l188 -11l-8 603l27 839l-212 -20c-12 0 -14 8 -14 24l20 151c2 14 9 18 21 19l359 21c14 -1 19 -4 19 -16z" />
    <glyph glyph-name="asciicircum" unicode="^" horiz-adv-x="1194" 
d="M66 427l444 983c6 14 17 22 35 25l96 -12c14 -2 26 -6 31 -17l457 -985c2 -4 4 -12 4 -20c0 -6 -2 -12 -8 -14l-166 -48c-6 -2 -11 -4 -15 -4c-6 0 -10 3 -13 10l-340 843l-331 -844c-3 -7 -8 -9 -15 -9c-6 0 -13 2 -18 4l-159 63c-5 2 -7 6 -7 10s2 9 5 15z" />
    <glyph glyph-name="underscore" unicode="_" horiz-adv-x="1659" 
d="M-40 -336l8 140c1 16 7 20 24 20h1683c12 0 14 -8 14 -24l-10 -136c-1 -14 -4 -19 -16 -19h-1687c-12 0 -16 10 -16 19z" />
    <glyph glyph-name="quoteleft" unicode="&#x2018;" horiz-adv-x="512" 
d="M409 1273c0 -54 -99 -86 -169 -86c-77 0 -107 67 -107 159c0 143 35 256 106 405l117 -22c-10 -73 -15 -124 -15 -188c0 -103 34 -177 56 -225c8 -18 12 -32 12 -43z" />
    <glyph glyph-name="a" unicode="a" horiz-adv-x="1196" 
d="M1154 147l-18 -158c-2 -16 -7 -19 -22 -20l-289 -18c-12 0 -14 8 -14 22l14 117c-100 -77 -228 -129 -363 -129c-197 0 -357 124 -357 342c0 288 194 365 558 365c41 0 83 -1 128 -3c1 34 1 65 1 86c0 133 -58 195 -171 195c-63 0 -146 -24 -220 -54c3 -24 6 -54 6 -68
c0 -17 -6 -22 -22 -22l-169 -3c-15 2 -19 7 -20 22l-17 286c0 19 5 25 22 27l167 22c17 0 21 -7 21 -22v-83c90 50 226 100 333 100c176 0 296 -100 296 -368c0 -130 -12 -463 -20 -628c37 3 80 6 135 11c15 0 21 -8 21 -19zM532 150c97 0 192 38 253 66c2 87 3 200 5 303
c-362 -1 -459 -54 -459 -193c0 -121 79 -176 201 -176z" />
    <glyph glyph-name="b" unicode="b" horiz-adv-x="1195" 
d="M397 1572l-16 -483c71 27 177 62 275 62c324 0 424 -190 424 -584c0 -391 -132 -576 -410 -576c-98 0 -188 14 -279 47c-80 -37 -134 -57 -177 -57c-22 0 -33 13 -33 38v1350l-146 8c-14 1 -19 7 -20 19l-12 155c2 13 7 19 23 20l353 24c14 0 18 -7 18 -23zM864 568
c0 273 -46 367 -237 367c-83 0 -163 -14 -249 -40l12 -677c67 -15 140 -26 225 -26c177 0 249 83 249 376z" />
    <glyph glyph-name="c" unicode="c" horiz-adv-x="1024" 
d="M697 1124l188 35c15 -2 19 -7 20 -22l17 -356c-1 -19 -6 -25 -22 -27l-167 -22c-17 0 -21 7 -21 22v169c-40 9 -79 15 -122 15c-235 0 -284 -127 -284 -385c0 -305 80 -365 217 -365c72 0 118 8 173 19l4 69c1 15 5 25 21 26l158 -6c12 -1 15 -8 16 -23l18 -313
c0 -13 -6 -21 -20 -21h-192c-12 0 -16 7 -17 19l3 57c-68 -13 -132 -22 -188 -22c-282 0 -405 155 -405 524c0 295 21 636 390 636c72 0 144 -12 213 -29z" />
    <glyph glyph-name="d" unicode="d" horiz-adv-x="1194" 
d="M671 1619l343 -19c14 -1 18 -7 18 -23v-1404l105 11c14 0 20 -7 20 -19l-18 -155c-2 -13 -7 -17 -23 -20l-248 -40c-13 0 -19 6 -19 22l8 99c-46 -19 -172 -69 -311 -69c-324 0 -424 190 -424 584c0 408 132 567 410 567c108 0 206 -17 307 -56l-13 315l-168 3
c-16 0 -20 7 -20 24l10 160c1 15 6 20 23 20zM338 575c0 -273 46 -367 237 -367c83 0 163 14 249 39l21 647c-75 19 -159 35 -258 35c-177 0 -249 -61 -249 -354z" />
    <glyph glyph-name="e" unicode="e" horiz-adv-x="1196" 
d="M1031 -69l-166 -20c-16 0 -22 6 -22 22l4 73c-84 -20 -212 -32 -325 -32c-264 0 -387 154 -387 533c0 166 16 325 81 439c82 143 220 207 450 207c247 0 353 -120 353 -369c0 -122 -29 -178 -74 -228c-82 -91 -366 -102 -598 -102c19 -244 112 -278 267 -278
c40 0 168 9 245 21l3 52c1 16 6 19 22 23l144 32c14 0 23 -2 25 -19c3 -23 22 -279 22 -310c0 -33 -20 -41 -44 -44zM791 790c0 102 -37 173 -160 173c-93 0 -183 -22 -227 -86c-40 -59 -56 -156 -60 -276c173 2 363 18 410 60c34 30 37 70 37 129z" />
    <glyph glyph-name="f" unicode="f" horiz-adv-x="854" 
d="M703 1676h157c13 0 19 -8 21 -23l-16 -295c-1 -13 -4 -20 -15 -20l-148 -4c-17 1 -25 7 -26 23l3 106c-25 3 -50 4 -76 4c-106 0 -160 -54 -160 -210c0 -45 1 -104 2 -159l295 4c18 -1 21 -8 22 -24l-10 -153c-1 -15 -6 -20 -22 -21l-272 7v-705l184 4
c12 0 16 -10 16 -19l-18 -171c-2 -16 -7 -19 -24 -20l-483 6c-12 0 -14 8 -14 24l10 151c1 14 4 19 16 19l100 2l9 707l-176 -11c-13 1 -18 5 -20 17l-21 155c0 11 7 22 22 22l189 3c-7 77 -9 130 -9 214c0 219 136 325 362 325c30 0 57 -1 82 -2l1 27c0 10 6 17 19 17z" />
    <glyph glyph-name="g" unicode="g" horiz-adv-x="1196" 
d="M1125 1105l-13 -157c-1 -16 -9 -21 -23 -21l-180 35c63 -67 107 -141 107 -202c0 -257 -125 -400 -453 -400c-57 0 -115 6 -170 20c-15 -33 -24 -68 -24 -103c0 -59 23 -78 128 -78c24 0 52 1 86 3c62 3 122 6 190 6c235 0 323 -144 323 -309c0 -207 -170 -384 -535 -384
c-274 0 -431 62 -431 255c0 91 49 184 115 270c-58 33 -80 84 -80 140c0 69 44 160 116 246c-95 57 -162 157 -162 323c0 282 200 402 460 402c73 0 144 -2 216 -4c95 -3 193 -6 301 -6c21 0 28 -16 29 -36zM813 762c0 126 -72 214 -228 214c-144 0 -254 -61 -254 -229
c0 -135 83 -205 254 -205c173 0 228 100 228 220zM439 2c-26 0 -50 1 -71 3c-20 -49 -33 -111 -33 -171c0 -87 78 -127 256 -127c197 0 305 71 305 167c0 70 -24 136 -183 136c-56 0 -112 -2 -162 -4c-43 -2 -81 -4 -112 -4z" />
    <glyph glyph-name="h" unicode="h" horiz-adv-x="1370" 
d="M115 1426v153c0 14 8 19 24 20l339 14c12 0 22 -8 23 -24l-24 -554c99 63 230 117 360 117c238 0 298 -181 298 -441c0 -140 -11 -361 -21 -507l120 6c14 -1 21 -5 21 -21v-147c0 -16 -7 -20 -23 -20l-430 -10c-13 0 -16 10 -16 24l22 135c3 17 7 20 22 21l84 3
c2 161 3 411 3 509c0 132 -39 222 -159 222c-79 0 -193 -34 -271 -77l-4 -659l121 -12c12 -1 16 -10 16 -18l-18 -129c-3 -17 -8 -21 -23 -21l-422 -7c-13 0 -15 10 -15 24l19 176c2 15 6 19 23 19l76 -8v832l20 367l-143 -11c-16 0 -22 7 -22 24z" />
    <glyph glyph-name="i" unicode="i" horiz-adv-x="683" 
d="M625 161l-18 -131c-2 -16 -7 -19 -24 -20l-433 -24c-12 0 -14 8 -14 24v151c0 14 4 19 16 19h120l8 699l-162 17c-14 1 -18 6 -18 22l22 165c2 12 8 19 24 21l321 33c14 0 17 -7 18 -23l13 -182l-3 -752h114c12 0 16 -10 16 -19zM327 1337c-100 0 -122 20 -122 126
c0 114 28 137 166 137c100 0 123 -13 123 -120c0 -124 -32 -142 -167 -143z" />
    <glyph glyph-name="j" unicode="j" horiz-adv-x="682" 
d="M101 908l-15 181c1 18 9 25 25 26l364 22c14 -1 19 -8 21 -23l-7 -189c10 -198 27 -607 27 -895c0 -313 -62 -478 -402 -478c-14 0 -20 6 -23 23l-30 164c0 15 6 20 23 20c133 0 218 48 218 166c0 275 -5 705 -9 969l-174 -8c-13 1 -17 6 -18 22zM392 1334
c-131 0 -187 33 -187 96c0 73 17 173 112 173c123 0 187 -29 187 -92c0 -123 -39 -177 -112 -177z" />
    <glyph glyph-name="k" unicode="k" horiz-adv-x="1195" 
d="M57 1418l-4 136c0 13 8 19 24 21l307 32c14 0 20 -8 22 -24l19 -178l-13 -756l128 5l241 297l-122 -14c-12 0 -16 10 -16 19l8 161c1 16 7 20 24 20l453 4c12 0 14 -8 14 -24l-10 -151c-1 -14 -4 -19 -16 -19l-101 9l-313 -373l288 -386l165 -6c14 0 20 -6 21 -24
l10 -137c0 -16 -7 -19 -23 -20l-305 -12c-13 0 -20 11 -27 22l-303 463l-119 -9l-5 -285l102 11c12 0 16 -10 16 -19l-8 -151c-1 -16 -7 -19 -24 -20l-393 -14c-12 0 -16 9 -17 25l-7 140c1 13 4 19 16 19h129v1197l-143 19c-14 2 -18 6 -18 22z" />
    <glyph glyph-name="l" unicode="l" horiz-adv-x="683" 
d="M641 201l12 -181c-2 -16 -7 -19 -24 -20l-543 6c-12 0 -14 8 -14 24v171c0 14 4 19 16 19l189 -12v1160l-151 -12c-14 0 -18 6 -18 22l6 196c0 16 8 19 24 21l325 -8c14 0 17 -7 18 -23l-7 -159l15 -1196l136 11c12 0 15 -4 16 -19z" />
    <glyph glyph-name="m" unicode="m" horiz-adv-x="1875" 
d="M1800 177l-20 -167c0 -16 -7 -19 -23 -20l-299 8c-11 0 -23 8 -23 22c5 170 5 564 5 659c0 159 -18 237 -148 237c-79 0 -149 -25 -221 -64c5 -37 7 -77 7 -120c0 -122 -5 -392 -10 -554l131 3c14 0 21 -6 21 -24l-10 -137c-1 -16 -7 -19 -23 -20l-371 8
c-11 0 -21 8 -21 22l-5 140c1 16 6 21 22 21l62 -5c2 185 2 421 2 493c0 159 -24 241 -154 241c-93 0 -170 -38 -255 -101v-622l105 5c12 0 17 -5 17 -17l11 -155c-2 -16 -7 -22 -22 -22l-410 10c-20 0 -23 10 -23 24l-10 153c2 15 6 21 22 21h97v658h-153
c-14 0 -20 8 -20 24l-2 191c2 13 8 19 24 21l252 -9c14 -1 19 -6 23 -23l29 -133c102 104 235 196 385 196c117 0 194 -50 238 -141c92 83 203 151 326 151c221 0 296 -140 296 -394c0 -116 -10 -391 -18 -565l145 9c14 0 21 -6 21 -24z" />
    <glyph glyph-name="n" unicode="n" horiz-adv-x="1370" 
d="M120 905l18 173c1 9 8 19 24 21l277 41c14 0 18 -7 18 -23v-173c104 105 255 206 405 206c214 0 286 -130 286 -384c0 -120 -11 -408 -18 -580l115 5c13 0 21 -6 21 -24v-147c0 -16 -7 -19 -23 -20l-290 -22c-11 0 -22 8 -22 22c5 170 5 593 5 688
c0 159 -22 215 -144 215c-99 0 -194 -43 -290 -104l12 -599l109 12c12 0 17 -5 17 -17l-19 -155c-2 -16 -7 -22 -22 -22h-417c-13 0 -16 10 -16 24l20 153c2 15 6 21 22 21h85v661l-153 4c-14 0 -20 8 -20 24z" />
    <glyph glyph-name="o" unicode="o" horiz-adv-x="1194" 
d="M123 561c0 458 152 590 452 590c297 0 495 -91 495 -594c0 -442 -153 -577 -457 -577c-309 0 -490 125 -490 581zM864 551c0 367 -139 384 -287 384c-175 0 -250 -45 -250 -369c0 -332 123 -382 295 -382c163 0 242 57 242 367z" />
    <glyph glyph-name="p" unicode="p" horiz-adv-x="1194" 
d="M17 926l-2 205c2 13 7 17 23 20l278 -10c13 0 18 -6 19 -22l6 -65c63 34 200 96 327 96c324 0 424 -191 424 -585c0 -391 -132 -564 -410 -564c-102 0 -194 15 -288 50l14 -318l188 7c14 -1 21 -5 21 -21l-10 -147c-1 -16 -7 -20 -23 -20l-464 -10c-13 0 -22 10 -22 24
l12 165c1 17 7 20 22 21l69 -9v1178l-164 -14c-14 0 -20 7 -20 19zM876 566c0 273 -46 368 -237 368c-77 0 -152 -18 -230 -43l-22 -649c71 -17 149 -30 240 -30c177 0 249 61 249 354z" />
    <glyph glyph-name="q" unicode="q" horiz-adv-x="1194" 
d="M619 -429l11 155c1 12 4 16 17 17l158 -6l3 322c-61 -25 -157 -57 -259 -57c-302 0 -426 165 -426 507c0 423 117 641 422 641c91 0 169 -26 250 -62l201 42c16 0 20 -7 20 -24l9 -1383l87 4c16 -1 22 -5 22 -21l-10 -133c-1 -14 -3 -24 -16 -24h-467c-15 0 -20 6 -22 22
zM600 929c-198 0 -260 -104 -260 -407c0 -232 60 -319 238 -319c77 0 152 12 231 34l-4 663c-61 17 -125 29 -205 29z" />
    <glyph glyph-name="r" unicode="r" horiz-adv-x="1024" 
d="M96 895l-22 213c1 9 8 20 24 21l307 21c14 0 18 -7 18 -23l-15 -165c101 111 294 179 460 179c45 0 61 -11 62 -32c2 -40 12 -335 12 -366c0 -13 -3 -19 -15 -20l-188 -14c-16 0 -26 2 -26 25v177c-93 -8 -162 -24 -229 -52l-11 -660l174 13c12 0 16 -5 17 -17l11 -165
c-2 -16 -7 -21 -22 -22l-517 -20c-13 0 -16 10 -16 24v173c0 15 6 21 22 21h117v677l-143 -12c-14 1 -18 8 -20 24z" />
    <glyph glyph-name="s" unicode="s" horiz-adv-x="1024" 
d="M129 261l156 28c10 0 18 -7 21 -23l12 -66c84 -13 174 -23 253 -23c106 0 172 58 172 144c0 84 -53 105 -227 132c-308 48 -429 110 -429 355c0 199 127 343 370 343c87 0 175 -35 242 -70l-19 79c0 15 5 25 21 26l198 16c12 0 16 -8 16 -23l-22 -305
c-1 -15 -7 -21 -20 -21c-196 67 -312 92 -381 92c-82 0 -179 -22 -179 -118c0 -85 35 -133 188 -158c350 -56 466 -105 466 -329c0 -227 -137 -349 -354 -349c-86 0 -177 12 -260 28l17 -83c0 -12 -8 -17 -23 -18l-172 -15c-24 0 -40 15 -42 39l-28 297c0 16 8 19 24 22z
" />
    <glyph glyph-name="t" unicode="t" horiz-adv-x="851" 
d="M5 975l-1 115c0 11 7 22 22 22l140 3c6 140 12 252 16 293c2 19 5 25 22 27l186 22c17 0 21 -7 21 -22c0 -18 -12 -162 -26 -314l392 11c18 0 22 -10 22 -24v-163c0 -15 -6 -20 -22 -21l-405 17c-10 -146 -17 -316 -17 -500c0 -219 33 -260 180 -260c21 0 41 1 58 2
c-2 30 -3 53 -3 56c0 10 6 15 19 17l167 20c13 0 21 -8 21 -23c1 -32 4 -225 4 -254c0 -13 -4 -18 -15 -20l-148 -24c-15 1 -24 3 -26 19l-4 32c-42 -2 -88 -3 -155 -3c-213 0 -310 98 -310 347c0 127 7 367 15 588l-133 10c-15 1 -20 10 -20 27z" />
    <glyph glyph-name="u" unicode="u" horiz-adv-x="1195" 
d="M1176 213l-18 -183c-1 -15 -8 -21 -24 -21h-247c-25 0 -35 12 -41 38l-24 101c-104 -89 -228 -142 -376 -142c-178 0 -295 97 -295 377c0 119 18 347 35 518l-128 -4c-14 0 -21 6 -21 24l20 177c2 16 7 19 23 20l318 -8c11 0 14 -8 14 -22c-19 -190 -52 -556 -52 -668
c0 -136 51 -198 171 -198c90 0 184 43 278 102v575l-125 7c-12 1 -15 5 -17 17l19 165c2 16 7 22 22 22l288 -10c13 0 16 -10 16 -24l10 -844l134 5c14 -1 20 -8 20 -24z" />
    <glyph glyph-name="v" unicode="v" horiz-adv-x="1195" 
d="M716 933l-11 165c2 16 7 21 22 22l427 20c12 -1 16 -10 16 -24v-183c-2 -15 -6 -21 -22 -21h-99l-310 -895c-5 -16 -11 -20 -27 -21l-179 -8c-14 1 -21 7 -28 24l-367 897l-92 -2c-14 0 -21 6 -21 24v169c0 16 7 20 23 20h454c18 0 18 -8 18 -22l-15 -160
c-2 -17 -6 -21 -22 -21l-105 -3l255 -716l222 731l-122 -13c-12 0 -16 5 -17 17z" />
    <glyph glyph-name="w" unicode="w" horiz-adv-x="1702" 
d="M1228 931l-11 165c2 16 7 21 22 22l417 20c12 -1 16 -10 16 -24v-183c0 -15 -6 -21 -22 -21h-99l-234 -895c-4 -16 -11 -21 -27 -21l-189 -3c-14 0 -25 8 -28 21l-211 844l-195 -833c-4 -16 -11 -20 -27 -21l-179 -8c-14 1 -24 8 -28 21l-291 899l-94 -9
c-14 0 -21 6 -21 24l-10 179c0 16 7 20 23 20l444 -10c18 0 18 -8 18 -22l-5 -170c-1 -17 -6 -21 -22 -21l-110 9l191 -701l190 895c3 16 11 20 27 21l190 9c14 -1 25 -8 28 -21l220 -904l158 714l-124 -13c-12 0 -16 5 -17 17z" />
    <glyph glyph-name="x" unicode="x" horiz-adv-x="1196" 
d="M75 36v147c0 16 7 20 23 20l98 1l317 347l-328 384l-104 -2c-14 0 -21 6 -21 24l10 159c0 16 7 20 23 20l461 -9c18 0 18 -8 18 -22l5 -140c-2 -17 -6 -21 -22 -21l-122 -3l181 -268l192 252l-78 -3c-12 0 -16 5 -17 17l9 175c1 16 7 21 22 22l397 -10
c12 0 16 -10 16 -24l-10 -143c-1 -15 -6 -20 -22 -21l-111 -5l-305 -354l327 -368l129 11c13 0 15 -10 15 -24l-19 -176c-2 -15 -6 -18 -23 -19l-430 14c-12 0 -16 13 -16 21l18 126c2 17 8 20 23 21l67 6l-194 262l-193 -246l71 1c13 0 16 -10 16 -24l4 -160
c-3 -17 -7 -20 -22 -21l-384 12c-14 0 -21 5 -21 21z" />
    <glyph glyph-name="y" unicode="y" horiz-adv-x="1197" 
d="M347 -366l219 419l-86 -3c-14 0 -17 7 -22 18l-336 841l-95 -2c-14 0 -21 6 -21 24l10 169c0 16 7 20 23 20l454 10c12 0 18 -8 18 -22l5 -170c-2 -17 -6 -21 -22 -21l-131 -3l260 -735l236 740l-137 -13c-12 0 -16 5 -17 17l9 185c1 15 7 22 22 22l437 10
c11 -1 16 -10 16 -24l-10 -173c-1 -15 -6 -21 -22 -21l-88 8l-482 -1360c-5 -15 -12 -24 -24 -24l-198 54c-14 2 -22 8 -22 20c0 4 1 9 4 14z" />
    <glyph glyph-name="z" unicode="z" horiz-adv-x="1196" 
d="M307 758l-147 17c-15 2 -19 7 -20 22l13 339c1 19 5 25 22 27l177 -23l20 -26l605 28c29 1 34 -21 38 -47l26 -178l-636 -728l471 24l-4 93c1 15 5 25 21 26l178 -14c12 -1 16 -8 16 -23l-12 -335c-1 -15 -7 -21 -20 -21l-144 8c-17 1 -23 11 -24 28l-2 41l-661 -13
c-37 2 -56 16 -60 53l-16 145l662 749l-458 2l-21 -172c-2 -15 -11 -22 -24 -22z" />
    <glyph glyph-name="braceleft" unicode="{" horiz-adv-x="683" 
d="M233 953c0 63 -3 112 -6 162c-3 51 -6 116 -6 171c0 224 19 353 318 353c23 0 48 -1 75 -3c12 -1 15 -5 16 -19l-10 -161c-1 -16 -2 -24 -14 -24c-154 0 -191 -12 -191 -136c0 -55 1 -104 4 -157c3 -52 3 -108 3 -181c0 -69 -33 -159 -102 -203c70 -35 93 -113 93 -199
c0 -58 -3 -107 -8 -162c-6 -68 -12 -147 -12 -261c0 -95 31 -121 132 -121c18 0 40 2 59 4c12 0 13 -7 14 -24l-10 -161c-1 -14 -4 -18 -16 -19c-30 -3 -57 -5 -83 -5c-250 0 -292 141 -292 289c0 64 8 178 19 280c9 84 15 161 15 194c0 81 -65 96 -151 96
c-12 0 -18 8 -19 24l-10 141c0 14 8 19 20 19c99 0 162 25 162 103z" />
    <glyph glyph-name="bar" unicode="|" horiz-adv-x="851" 
d="M347 1634l151 2c16 -1 20 -7 20 -24l4 -2118c0 -12 -3 -18 -17 -19l-148 -10c-14 0 -19 6 -19 18l-10 2131c0 12 7 20 19 20z" />
    <glyph glyph-name="braceright" unicode="}" horiz-adv-x="683" 
d="M450 493c0 -63 3 -112 6 -162c3 -51 6 -116 6 -171c0 -224 -19 -353 -318 -353c-23 0 -48 1 -75 3c-12 1 -15 5 -16 19l10 161c1 16 2 24 14 24c154 0 191 12 191 136c0 55 -1 104 -4 157c-3 52 -3 108 -3 181c0 69 33 159 102 203c-70 35 -93 113 -93 199
c0 58 3 107 8 162c6 68 12 147 12 261c0 95 -31 121 -132 121c-18 0 -40 -2 -59 -4c-12 0 -13 7 -14 24l10 161c1 14 4 18 16 19c30 3 57 5 83 5c250 0 292 -141 292 -289c0 -64 -8 -178 -19 -280c-9 -84 -15 -161 -15 -194c0 -81 65 -96 151 -96c12 0 18 -8 19 -24l10 -141
c0 -14 -8 -19 -20 -19c-99 0 -162 -25 -162 -103z" />
    <glyph glyph-name="asciitilde" unicode="~" horiz-adv-x="1194" 
d="M137 771l-32 81c0 9 5 14 13 22c59 64 160 151 294 151c65 0 120 -30 177 -60c56 -30 113 -59 180 -59c80 0 161 35 213 62c27 14 46 23 52 23c10 0 14 -6 20 -19l33 -68c2 -5 2 -8 2 -11c0 -9 -5 -15 -12 -22c-54 -60 -182 -164 -314 -164c-72 0 -135 36 -200 68
c-53 26 -106 49 -166 49c-71 0 -149 -34 -195 -56c-21 -10 -36 -17 -41 -17c-15 0 -18 4 -24 20z" />
    <glyph glyph-name="exclamdown" unicode="&#xa1;" horiz-adv-x="512" 
d="M132 -399l43 1079c1 14 5 20 18 20c19 0 37 -2 136 -13c16 -2 25 -8 26 -29l40 -1067c-1 -16 -8 -22 -24 -24l-218 8c-16 1 -21 6 -21 26zM98 1050c0 73 102 113 206 113c81 0 110 -105 110 -174c0 -91 -133 -112 -210 -112c-80 0 -106 106 -106 173z" />
    <glyph glyph-name="cent" unicode="&#xa2;" horiz-adv-x="1194" 
d="M879 1206l146 3c15 -2 19 -7 20 -22l17 -356c-1 -19 -6 -25 -22 -27l-147 -22c-17 0 -21 7 -21 22v109c-58 10 -123 18 -177 22l-7 -370l7 -371c60 6 121 15 182 25l3 57c1 15 5 25 21 26l138 -6c12 -1 15 -8 16 -23l18 -313c0 -13 -6 -21 -20 -21h-172
c-12 0 -16 7 -17 19l3 70c-54 -9 -114 -18 -169 -24l5 -225c0 -12 -5 -15 -19 -16l-123 -10c-16 0 -22 9 -22 21v219c-275 4 -405 159 -405 524c0 298 64 580 401 616l-2 207c0 17 4 23 20 24l131 8c9 0 18 -4 19 -16l-4 -223c50 -4 107 -10 160 -19c-3 32 -5 58 -5 69
c0 14 6 23 25 23zM346 553c0 -280 76 -353 194 -364l1 399l-4 338c-150 -40 -191 -177 -191 -373z" />
    <glyph glyph-name="sterling" unicode="&#xa3;" horiz-adv-x="1364" 
d="M1099 1059l-188 -14c-10 0 -19 7 -21 23l27 230c-81 18 -129 27 -212 27c-147 0 -194 -75 -194 -226c0 -74 3 -167 8 -271l250 31c15 0 20 -8 22 -24l20 -161c-1 -14 -4 -19 -16 -19h-267c7 -146 13 -307 15 -475l475 31l-24 162c0 19 8 23 23 26l162 35
c24 0 40 -15 42 -39l28 -427c0 -16 -7 -24 -22 -26l-188 -4c-10 0 -19 7 -21 23l2 47l-878 -35c-12 0 -17 8 -18 24l16 174c1 13 4 17 16 19l184 -15v42c0 146 -13 294 -27 438h-152c-12 0 -17 7 -18 19l-2 141c0 15 6 20 21 20l134 -9c-9 101 -16 199 -16 287
c0 257 105 430 360 430c124 0 194 -28 296 -76c2 11 4 16 19 19l126 24c24 0 40 -15 40 -39v-386c0 -16 -9 -25 -22 -26z" />
    <glyph glyph-name="fraction" unicode="&#x2044;" horiz-adv-x="1194" 
d="M1042 1477l94 -70c5 -4 8 -9 8 -14s-2 -10 -5 -15l-473 -640l-488 -700c-5 -5 -10 -8 -16 -8c-5 0 -9 2 -14 5l-90 64c-5 3 -8 8 -8 13c0 6 3 12 7 18l498 691l460 652c4 6 8 9 14 9c3 0 8 -2 13 -5z" />
    <glyph glyph-name="yen" unicode="&#xa5;" horiz-adv-x="1364" 
d="M217 649l-8 128c0 9 4 18 16 19l302 -3l-322 516l-82 -6c-19 0 -27 8 -28 32l-10 168c0 22 9 27 31 27l413 10c19 -2 23 -11 24 -30l10 -166c-3 -23 -9 -28 -30 -28l-68 1l250 -506l236 513l-71 -9c-16 0 -21 6 -23 23l-15 162c1 22 10 29 30 30l386 17
c17 -1 22 -13 22 -32l-10 -157c-1 -21 -8 -29 -30 -29h-76l-285 -536l275 3c12 0 16 -5 16 -19v-118c0 -16 -2 -24 -14 -24l-351 -1l-2 -142l335 14c17 -1 23 -4 24 -20l8 -127c0 -9 -4 -19 -16 -19h-354l-2 -138l134 3c14 0 22 -4 23 -22l7 -169c-1 -17 -4 -23 -18 -23
l-492 -15c-16 2 -23 5 -24 21l-16 176c0 16 4 22 18 22l149 3l1 142h-355c-12 0 -16 5 -16 19v117c0 16 2 24 14 24l358 -9l1 142l-341 -4c-17 1 -23 4 -24 20z" />
    <glyph glyph-name="florin" unicode="&#x192;" horiz-adv-x="1364" 
d="M367 705l9 165c1 11 7 22 22 22l207 -7c12 152 31 352 43 424c37 231 137 325 346 325c38 0 76 -4 113 -10l132 12c13 0 19 -8 21 -23l-16 -325c-1 -13 -4 -20 -15 -20l-168 16c-17 2 -25 7 -26 23l16 159c-10 1 -20 1 -29 1c-106 0 -163 -79 -183 -199
c-10 -58 -27 -237 -38 -389l248 -7c18 -1 21 -8 22 -24l-10 -133c-1 -15 -6 -20 -22 -21l-253 7l-80 -807c-22 -228 -83 -366 -279 -366c-48 0 -98 3 -148 12l-157 -10c-12 0 -17 7 -17 19l6 308c0 15 5 24 21 26l168 -6c10 0 14 -6 14 -16l-6 -163c7 -1 14 -1 21 -1
c98 0 157 45 174 197l88 805l-204 -11c-13 1 -18 5 -20 17z" />
    <glyph glyph-name="section" unicode="&#xa7;" horiz-adv-x="1190" 
d="M941 1355c-11 0 -32 9 -71 27c-59 27 -145 60 -237 60c-101 0 -181 -28 -181 -159c0 -116 93 -164 256 -252c249 -134 331 -218 331 -356c0 -182 -81 -308 -222 -353c114 -59 174 -116 174 -242c0 -259 -134 -385 -422 -385c-124 0 -231 11 -328 29c-24 4 -40 15 -42 39
l25 165c2 16 8 22 24 22c7 0 25 -4 51 -11c75 -21 206 -55 296 -55c123 0 173 71 173 167c0 85 -110 142 -271 218c-241 114 -345 192 -345 347c0 166 88 306 228 367c-99 70 -153 148 -153 263c0 252 154 390 371 390c169 0 284 -22 363 -46c11 -3 16 -14 16 -29l-16 -185
c-1 -15 -7 -21 -20 -21zM518 465c23 -13 47 -25 70 -35c21 -3 41 -5 59 -5c115 0 177 113 177 228c0 63 -36 105 -166 176c-22 12 -42 22 -62 30c-16 3 -31 5 -44 5c-110 0 -177 -100 -177 -215c0 -66 35 -123 143 -184z" />
    <glyph glyph-name="currency" unicode="&#xa4;" horiz-adv-x="1194" 
d="M169 104l-108 105c-5 5 -8 10 -8 14c0 6 4 11 11 18l160 163c-31 66 -46 152 -46 257s15 190 44 256l-176 168c-4 3 -5 7 -5 10c0 5 3 11 7 15l105 108c5 5 10 8 14 8c6 0 11 -4 18 -11l161 -158c69 41 160 59 272 59c72 0 135 -9 189 -30l158 166c3 4 7 5 10 5
c5 0 11 -3 15 -7l108 -105c5 -5 8 -10 8 -14c0 -6 -4 -11 -11 -18l-143 -146c42 -69 64 -165 64 -296c0 -106 -14 -191 -43 -258l175 -166c4 -3 5 -7 5 -10c0 -5 -3 -11 -7 -15l-105 -108c-5 -5 -10 -8 -14 -8c-6 0 -11 4 -18 11l-158 155c-67 -40 -156 -58 -268 -58
c-95 0 -173 16 -234 51l-155 -163c-3 -4 -7 -5 -10 -5c-5 0 -11 3 -15 7zM825 652c0 227 -94 263 -224 263c-180 0 -233 -61 -233 -261c0 -187 84 -250 228 -250c153 0 229 60 229 248z" />
    <glyph glyph-name="quotesingle" unicode="'" horiz-adv-x="512" 
d="M155 1745l201 -8c16 -1 19 -7 20 -24l-46 -513c0 -12 -8 -14 -24 -14l-111 10c-14 1 -19 4 -19 16l-40 517c1 12 10 16 19 16z" />
    <glyph glyph-name="quotedblleft" unicode="&#x201c;" horiz-adv-x="1024" 
d="M430 1273c0 -54 -99 -86 -169 -86c-77 0 -107 67 -107 159c0 143 35 256 106 405l117 -22c-10 -73 -15 -124 -15 -188c0 -103 34 -177 56 -225c8 -18 12 -32 12 -43zM900 1273c0 -54 -99 -86 -169 -86c-77 0 -107 67 -107 159c0 143 35 256 106 405l117 -22
c-10 -73 -15 -124 -15 -188c0 -103 34 -177 56 -225c8 -18 12 -32 12 -43z" />
    <glyph glyph-name="guillemotleft" unicode="&#xab;" horiz-adv-x="1533" 
d="M675 1l-560 505c-11 10 -25 23 -25 35l10 76c2 14 8 22 17 31l547 507c4 4 9 5 14 5c7 0 15 -3 20 -8l68 -67c3 -3 6 -8 6 -13c0 -4 -1 -8 -4 -11l-415 -484l422 -473c4 -5 6 -10 6 -14c0 -6 -3 -11 -8 -16l-72 -70c-5 -5 -10 -8 -15 -8c-3 0 -7 1 -11 5zM1315 1
l-560 505c-11 10 -25 23 -25 35l10 76c2 14 8 22 17 31l547 507c4 4 9 5 14 5c7 0 15 -3 20 -8l68 -67c3 -3 6 -8 6 -13c0 -4 -1 -8 -4 -11l-415 -484l422 -473c4 -5 6 -10 6 -14c0 -6 -3 -11 -8 -16l-72 -70c-5 -5 -10 -8 -15 -8c-3 0 -7 1 -11 5z" />
    <glyph glyph-name="guilsinglleft" unicode="&#x2039;" horiz-adv-x="854" 
d="M655 1l-560 505c-11 10 -25 23 -25 35l10 76c2 14 8 22 17 31l547 507c4 4 9 5 14 5c7 0 15 -3 20 -8l68 -67c3 -3 6 -8 6 -13c0 -4 -1 -8 -4 -11l-415 -484l422 -473c4 -5 6 -10 6 -14c0 -6 -3 -11 -8 -16l-72 -70c-5 -5 -10 -8 -15 -8c-3 0 -7 1 -11 5z" />
    <glyph glyph-name="guilsinglright" unicode="&#x203a;" horiz-adv-x="852" 
d="M757 506l-560 -505c-4 -4 -8 -5 -11 -5c-5 0 -10 3 -15 8l-72 70c-5 5 -8 10 -8 16c0 4 2 9 6 14l422 473l-415 484c-3 3 -4 7 -4 11c0 5 3 10 6 13l68 67c5 5 13 8 20 8c5 0 10 -1 14 -5l547 -507c9 -9 15 -17 17 -31l10 -76c0 -12 -14 -25 -25 -35z" />
    <glyph glyph-name="fi" unicode="&#xfb01;" horiz-adv-x="1537" 
d="M703 1676h157c13 0 19 -8 21 -23l-16 -295c-1 -13 -4 -20 -15 -20l-148 -4c-17 1 -25 7 -26 23l3 106c-25 3 -50 4 -76 4c-106 0 -160 -54 -160 -210c0 -45 1 -104 2 -159l295 4c18 -1 21 -8 22 -24l-10 -153c-1 -15 -6 -20 -22 -21l-272 7v-705l184 4
c12 0 16 -10 16 -19l-18 -171c-2 -16 -7 -19 -24 -20l-483 6c-12 0 -14 8 -14 24l10 151c1 14 4 19 16 19l100 2l9 707l-176 -11c-13 1 -18 5 -20 17l-21 155c0 11 7 22 22 22l189 3c-7 77 -9 130 -9 214c0 219 136 325 362 325c30 0 57 -1 82 -2l1 27c0 10 6 17 19 17z
M1479 161l-18 -131c-2 -16 -7 -19 -24 -20l-433 -24c-12 0 -14 8 -14 24v151c0 14 4 19 16 19h120l8 699l-162 17c-14 1 -18 6 -18 22l22 165c2 12 8 19 24 21l321 33c14 0 17 -7 18 -23l13 -182l-3 -752h114c12 0 16 -10 16 -19zM1181 1337c-100 0 -122 20 -122 126
c0 114 28 137 166 137c100 0 123 -13 123 -120c0 -124 -32 -142 -167 -143z" />
    <glyph glyph-name="fl" unicode="&#xfb02;" horiz-adv-x="1537" 
d="M703 1676h157c13 0 19 -8 21 -23l-16 -295c-1 -13 -4 -20 -15 -20l-148 -4c-17 1 -25 7 -26 23l3 106c-25 3 -50 4 -76 4c-106 0 -160 -54 -160 -210c0 -45 1 -104 2 -159l295 4c18 -1 21 -8 22 -24l-10 -153c-1 -15 -6 -20 -22 -21l-272 7v-705l184 4
c12 0 16 -10 16 -19l-18 -171c-2 -16 -7 -19 -24 -20l-483 6c-12 0 -14 8 -14 24l10 151c1 14 4 19 16 19l100 2l9 707l-176 -11c-13 1 -18 5 -20 17l-21 155c0 11 7 22 22 22l189 3c-7 77 -9 130 -9 214c0 219 136 325 362 325c30 0 57 -1 82 -2l1 27c0 10 6 17 19 17z
M1495 201l12 -181c-2 -16 -7 -19 -24 -20l-543 6c-12 0 -14 8 -14 24v171c0 14 4 19 16 19l189 -12v1160l-151 -12c-14 0 -18 6 -18 22l6 196c0 16 8 19 24 21l325 -8c14 0 17 -7 18 -23l-7 -159l15 -1196l136 11c12 0 15 -4 16 -19z" />
    <glyph glyph-name="endash" unicode="&#x2013;" horiz-adv-x="1193" 
d="M1107 848l4 -151c0 -9 -5 -19 -13 -19l-994 10c-11 0 -17 5 -17 19l-5 141c0 16 10 24 27 24l502 -12l480 8c9 -1 16 -7 16 -20z" />
    <glyph glyph-name="dagger" unicode="&#x2020;" horiz-adv-x="856" 
d="M338 1536l171 2c16 -1 19 -7 20 -24l-8 -433l255 11c12 -1 16 -10 16 -19l-8 -151c-2 -16 -7 -20 -24 -20l-239 -2l12 -1041c0 -12 -8 -21 -24 -22l-161 -10c-14 1 -19 4 -19 16l2 1056l-254 -1c-12 0 -14 8 -14 24v141c0 14 4 19 16 19l251 -4l-11 442c1 12 10 16 19 16
z" />
    <glyph glyph-name="daggerdbl" unicode="&#x2021;" horiz-adv-x="856" 
d="M337 1526l171 12c16 -1 19 -7 20 -24l-8 -436l250 4c12 -1 16 -10 16 -19l-3 -141c0 -16 -7 -20 -24 -20l-242 -2l-5 -389l263 11c12 -1 16 -6 16 -19l2 -151c0 -16 -7 -20 -24 -20l-257 -2l10 -483c0 -12 -8 -20 -24 -20l-161 5c-14 0 -19 8 -19 20l14 477l-252 -1
c-12 0 -18 8 -18 24l5 131c1 14 7 19 19 19l247 3l-2 394l-255 -1c-12 0 -14 8 -14 24l10 141c1 14 6 19 18 19l239 -4l-11 430c1 13 8 17 19 18z" />
    <glyph glyph-name="periodcentered" unicode="&#xb7;" horiz-adv-x="512" 
d="M421 620c0 -73 -102 -113 -206 -113c-81 0 -110 105 -110 174c0 91 133 112 210 112c80 0 106 -106 106 -173z" />
    <glyph glyph-name="paragraph" unicode="&#xb6;" horiz-adv-x="1529" 
d="M179 1175c0 363 284 480 613 480c232 0 453 -29 558 -51c16 -3 23 -15 24 -31l-9 -140c-2 -16 -12 -28 -25 -28c-10 0 -30 2 -63 6c-31 4 -67 8 -98 9l19 -1686c0 -16 -6 -23 -18 -24l-124 -16c-17 0 -24 4 -24 20l-8 1716c-51 2 -106 4 -166 5l-9 -1711
c0 -16 -6 -24 -18 -24l-152 4c-17 0 -24 8 -24 25l29 1001c-26 -3 -51 -5 -76 -5c-238 0 -429 159 -429 450z" />
    <glyph glyph-name="bullet" unicode="&#x2022;" horiz-adv-x="686" 
d="M544 613c0 -93 -130 -144 -262 -144c-104 0 -140 134 -140 221c0 116 169 143 267 143c101 0 135 -135 135 -220z" />
    <glyph glyph-name="quotesinglbase" unicode="&#x201a;" horiz-adv-x="512" 
d="M103 165c0 54 99 86 169 86c77 0 107 -67 107 -159c0 -143 -35 -256 -106 -405l-117 22c10 73 15 124 15 188c0 103 -34 177 -56 225c-8 18 -12 32 -12 43z" />
    <glyph glyph-name="quotedblbase" unicode="&#x201e;" horiz-adv-x="1020" 
d="M124 165c0 54 99 86 169 86c77 0 107 -67 107 -159c0 -143 -35 -256 -106 -405l-117 22c10 73 15 124 15 188c0 103 -34 177 -56 225c-8 18 -12 32 -12 43zM594 165c0 54 99 86 169 86c77 0 107 -67 107 -159c0 -143 -35 -256 -106 -405l-117 22c10 73 15 124 15 188
c0 103 -34 177 -56 225c-8 18 -12 32 -12 43z" />
    <glyph glyph-name="quotedblright" unicode="&#x201d;" horiz-adv-x="1024" 
d="M124 1665c0 54 99 86 169 86c77 0 107 -67 107 -159c0 -143 -35 -256 -106 -405l-117 22c10 73 15 124 15 188c0 103 -34 177 -56 225c-8 18 -12 32 -12 43zM594 1665c0 54 99 86 169 86c77 0 107 -67 107 -159c0 -143 -35 -256 -106 -405l-117 22c10 73 15 124 15 188
c0 103 -34 177 -56 225c-8 18 -12 32 -12 43z" />
    <glyph glyph-name="guillemotright" unicode="&#xbb;" horiz-adv-x="1533" 
d="M218 1155l560 -505c11 -10 25 -23 25 -35l-10 -76c-2 -14 -8 -22 -17 -31l-547 -507c-4 -4 -9 -5 -14 -5c-7 0 -15 3 -20 8l-68 67c-3 3 -6 8 -6 13c0 4 1 8 4 11l415 484l-422 473c-4 5 -6 10 -6 14c0 6 3 11 8 16l72 70c5 5 10 8 15 8c3 0 7 -1 11 -5zM858 1155
l560 -505c11 -10 25 -23 25 -35l-10 -76c-2 -14 -8 -22 -17 -31l-547 -507c-4 -4 -9 -5 -14 -5c-7 0 -15 3 -20 8l-68 67c-3 3 -6 8 -6 13c0 4 1 8 4 11l415 484l-422 473c-4 5 -6 10 -6 14c0 6 3 11 8 16l72 70c5 5 10 8 15 8c3 0 7 -1 11 -5z" />
    <glyph glyph-name="ellipsis" unicode="&#x2026;" horiz-adv-x="1536" 
d="M421 80c0 -73 -102 -113 -206 -113c-81 0 -110 105 -110 174c0 91 133 112 210 112c80 0 106 -106 106 -173zM933 80c0 -73 -102 -113 -206 -113c-81 0 -110 105 -110 174c0 91 133 112 210 112c80 0 106 -106 106 -173zM1445 80c0 -73 -102 -113 -206 -113
c-81 0 -110 105 -110 174c0 91 133 112 210 112c80 0 106 -106 106 -173z" />
    <glyph glyph-name="perthousand" unicode="&#x2030;" horiz-adv-x="2050" 
d="M1153 1477l94 -70c5 -4 8 -9 8 -14s-2 -10 -5 -15l-473 -640l-488 -700c-4 -5 -10 -8 -16 -8c-4 0 -9 2 -14 5l-90 64c-5 3 -8 8 -8 13c0 6 3 12 7 18l498 691l460 652c4 6 8 9 14 9c3 0 8 -2 13 -5zM649 1213c0 -178 -105 -301 -299 -301c-188 0 -283 133 -283 294
c0 159 89 297 294 297c197 0 288 -119 288 -290zM363 1361c-105 0 -133 -82 -133 -157c0 -71 36 -151 127 -151c89 0 133 75 133 162c0 75 -40 146 -127 146zM1309 296c0 -178 -105 -301 -299 -301c-188 0 -283 133 -283 294c0 159 89 297 294 297c197 0 288 -119 288 -290z
M1023 444c-105 0 -133 -82 -133 -157c0 -71 36 -151 127 -151c89 0 133 75 133 162c0 75 -40 146 -127 146zM1989 296c0 -178 -105 -301 -299 -301c-188 0 -283 133 -283 294c0 159 89 297 294 297c197 0 288 -119 288 -290zM1703 444c-105 0 -133 -82 -133 -157
c0 -71 36 -151 127 -151c89 0 133 75 133 162c0 75 -40 146 -127 146z" />
    <glyph glyph-name="questiondown" unicode="&#xbf;" horiz-adv-x="1023" 
d="M716 -377l2 60c-107 -56 -201 -84 -319 -84c-219 0 -349 105 -349 329c0 174 104 327 211 471c76 102 152 203 192 306c6 15 11 22 25 22l156 -23c9 -1 13 -6 13 -15c0 -8 -2 -18 -4 -26c-23 -92 -81 -193 -148 -291c-103 -150 -211 -305 -211 -427
c0 -86 68 -145 168 -145c114 0 185 27 272 72l4 128c1 17 1 25 21 26l188 6c12 0 15 -8 16 -23l-20 -390c-1 -16 -10 -32 -30 -32l-149 4c-19 1 -36 9 -38 32zM377 1043c0 73 102 113 206 113c81 0 110 -105 110 -174c0 -91 -133 -112 -210 -112c-80 0 -106 106 -106 173z
" />
    <glyph glyph-name="grave" unicode="`" horiz-adv-x="900" 
d="M120 1649l133 150c6 7 14 11 21 11c8 0 16 -4 22 -11l383 -420c3 -4 5 -9 5 -14c0 -7 -3 -14 -8 -20l-67 -68c-3 -3 -8 -6 -13 -6c-4 0 -8 1 -11 4l-462 340c-6 5 -8 12 -8 19c0 5 2 11 5 15z" />
    <glyph glyph-name="acute" unicode="&#xb4;" horiz-adv-x="900" 
d="M636 1799l133 -150c3 -4 5 -10 5 -15c0 -7 -2 -14 -8 -19l-462 -340c-3 -2 -7 -4 -11 -4c-5 0 -9 2 -13 6l-67 68c-5 6 -8 13 -8 20c0 5 2 10 5 14l383 420c6 7 14 11 22 11c7 0 15 -4 21 -11z" />
    <glyph glyph-name="circumflex" unicode="&#x2c6;" horiz-adv-x="900" 
d="M47 1368l318 377c10 11 24 23 42 25l101 10c16 0 32 -11 47 -30l298 -381c3 -4 5 -10 5 -15c0 -7 -3 -14 -8 -19l-67 -68c-4 -4 -9 -6 -14 -6c-4 0 -7 1 -10 4l-310 280l-299 -277c-5 -4 -10 -6 -14 -6c-6 0 -11 3 -16 8l-70 72c-5 5 -8 10 -8 15c0 3 1 7 5 11z" />
    <glyph glyph-name="tilde" unicode="&#x2dc;" horiz-adv-x="900" 
d="M90 1371l-32 91c0 9 5 14 13 22c66 71 166 148 240 148c40 0 88 -29 136 -58c46 -27 92 -54 131 -54c68 0 141 44 181 68c13 8 23 13 28 13c10 0 15 -6 20 -19l33 -78c2 -5 2 -8 2 -11c0 -9 -5 -15 -12 -22c-59 -65 -158 -161 -250 -161c-46 0 -95 27 -143 54
s-95 54 -139 54c-30 0 -75 -18 -116 -39c-31 -16 -59 -28 -68 -28c-15 0 -19 4 -24 20z" />
    <glyph glyph-name="macron" unicode="&#xaf;" horiz-adv-x="900" 
d="M792 1592l-18 -171c-2 -16 -7 -20 -24 -20l-629 6c-12 0 -14 8 -14 24l10 151c1 14 4 19 16 19l643 10c12 -1 16 -10 16 -19z" />
    <glyph glyph-name="breve" unicode="&#x2d8;" horiz-adv-x="900" 
d="M840 1675c0 -180 -131 -345 -363 -345c-223 0 -394 127 -394 346c0 15 9 22 24 23l143 13c15 0 20 -8 21 -24c7 -106 93 -175 199 -175c108 0 163 63 182 165c3 16 6 24 21 24l143 -4c14 0 24 -8 24 -23z" />
    <glyph glyph-name="dotaccent" unicode="&#x2d9;" horiz-adv-x="900" 
d="M427 1337c-100 0 -122 20 -122 126c0 114 28 137 166 137c100 0 123 -13 123 -120c0 -124 -32 -142 -167 -143z" />
    <glyph glyph-name="dieresis" unicode="&#xa8;" horiz-adv-x="900" 
d="M192 1337c-91 0 -122 29 -122 126c0 114 28 137 166 137c91 0 123 -22 123 -120c0 -124 -32 -142 -167 -143zM663 1337c-91 0 -122 29 -122 126c0 114 28 137 166 137c91 0 123 -22 123 -120c0 -124 -32 -142 -167 -143z" />
    <glyph glyph-name="ring" unicode="&#x2da;" horiz-adv-x="900" 
d="M451 1267c-189 0 -281 85 -281 241c0 153 74 264 284 264c197 0 276 -85 276 -244c0 -161 -77 -261 -279 -261zM456 1636c-105 0 -123 -61 -123 -117c0 -64 26 -111 117 -111c89 0 123 56 123 122c0 61 -30 106 -117 106z" />
    <glyph glyph-name="cedilla" unicode="&#xb8;" horiz-adv-x="900" 
d="M341 -242c-12 0 -73 78 -73 95l46 180h119l-22 -145c30 7 57 9 90 9c119 0 178 -89 178 -208c0 -151 -87 -211 -247 -211c-87 0 -212 28 -212 51l21 107c2 11 8 17 19 17c5 0 15 -2 36 -7c36 -9 89 -20 124 -20c66 0 83 36 83 69c0 39 -21 71 -84 71c-24 0 -70 -8 -78 -8
z" />
    <glyph glyph-name="hungarumlaut" unicode="&#x2dd;" horiz-adv-x="900" 
d="M789 1759l126 -120c4 -4 6 -10 6 -16s-2 -13 -8 -18l-351 -319c-3 -3 -6 -4 -10 -4c-5 0 -10 2 -14 6l-76 68c-5 5 -10 11 -10 19c0 5 2 10 6 15l288 369c6 7 13 11 21 11c7 0 16 -4 22 -11zM293 1778l131 -117c4 -3 6 -8 6 -13c0 -8 -3 -16 -8 -21l-331 -331
c-3 -3 -6 -4 -9 -4c-5 0 -10 3 -15 6l-79 58c-5 4 -9 11 -9 19c0 5 2 10 5 15l266 388c5 8 13 11 21 11c7 0 15 -5 22 -11z" />
    <glyph glyph-name="ogonek" unicode="&#x2db;" horiz-adv-x="900" 
d="M453 137l107 -87c-65 -75 -128 -168 -128 -231c0 -57 52 -64 96 -64c45 0 108 17 145 31c16 6 25 9 32 9c10 0 15 -6 16 -17l21 -166c0 -13 -7 -17 -22 -22c-71 -23 -163 -40 -251 -40c-131 0 -215 52 -215 179c0 129 94 291 199 408z" />
    <glyph glyph-name="caron" unicode="&#x2c7;" horiz-adv-x="900" 
d="M853 1673l-318 -377c-10 -11 -24 -23 -42 -25l-101 -10c-16 0 -32 11 -47 30l-298 381c-3 4 -5 10 -5 15c0 7 3 14 8 19l67 68c4 4 9 6 14 6c4 0 7 -1 10 -4l310 -280l299 277c4 4 8 6 13 6c6 0 12 -3 17 -8l70 -72c4 -4 7 -9 7 -15c0 -4 -1 -7 -4 -11z" />
    <glyph glyph-name="emdash" unicode="&#x2014;" horiz-adv-x="2223" 
d="M82 697l8 151c1 16 7 19 24 20l2008 4c12 0 19 -8 19 -24l-10 -141c-1 -14 -4 -19 -16 -19l-2017 -10c-12 1 -16 10 -16 19z" />
    <glyph glyph-name="AE" unicode="&#xc6;" horiz-adv-x="1903" 
d="M1845 -64l-208 4c-16 0 -22 10 -22 26l4 60l-830 -24c-16 0 -22 8 -23 24l6 179c0 13 7 22 19 24l126 -17l16 384l-400 -11l-148 -371l99 10c16 0 21 -6 23 -23l15 -152c-3 -22 -10 -29 -30 -30l-436 -17c-17 1 -22 13 -22 32v167c0 21 8 28 30 29l101 -5l517 1265
c5 12 12 20 27 21l1016 42c17 -1 30 -8 30 -27l-10 -355c0 -15 -8 -25 -20 -27l-162 -30c-18 0 -22 9 -23 26l-13 209l-367 -6l-19 -560l398 29c16 -1 27 -8 27 -25l-13 -156c-1 -15 -4 -23 -18 -23l-396 -7l-1 -397l496 18l9 121c2 24 18 38 42 39l135 5
c19 -1 29 -12 30 -31l16 -397c-1 -16 -9 -23 -21 -23zM841 1354l-238 -595l335 16l5 573z" />
    <glyph glyph-name="ordfeminine" unicode="&#xaa;" horiz-adv-x="1021" 
d="M826 941l-12 -147c-1 -11 -5 -12 -15 -13l-206 -13c-8 0 -10 6 -10 15l6 80c-52 -54 -121 -98 -222 -98c-147 0 -252 67 -252 222c0 195 131 247 378 247c28 0 48 0 78 -2v39c0 105 -45 139 -109 139c-45 0 -93 -3 -145 -18l13 -62c0 -12 -4 -15 -15 -15l-135 -2
c-10 0 -13 5 -13 15l-12 234c1 13 4 18 15 18l133 5c12 0 14 -5 14 -15l-6 -67c66 33 159 59 232 59c119 0 191 -58 191 -240c0 -78 -7 -259 -12 -376l90 8c10 0 14 -5 14 -13zM405 912c68 0 122 13 161 29l3 172c-218 0 -291 -17 -291 -111c0 -63 52 -90 127 -90z" />
    <glyph glyph-name="Lslash" unicode="&#x141;" horiz-adv-x="1195" 
d="M1127 -19l-158 -24c-10 0 -19 7 -21 23l-5 48l-843 -35c-12 0 -17 8 -18 24l16 174c1 13 4 17 16 19l138 -6l3 362l-115 -55c-4 -2 -9 -3 -13 -3c-6 0 -12 3 -16 11l-56 142c-1 3 -2 6 -2 8c0 5 3 9 9 12l194 76l5 547l-136 -13c-14 0 -17 6 -18 22l-9 180
c1 16 8 23 24 23l485 8c14 -1 20 -6 22 -23l19 -176c0 -18 -10 -21 -23 -22l-146 5l-1 -454l294 156c5 2 9 4 13 4c7 0 13 -5 17 -15l62 -143c1 -3 2 -6 2 -9c0 -6 -3 -12 -11 -15l-378 -162l-1 -461l446 23l-18 175c0 12 8 20 23 21l162 15c24 0 41 -15 42 -39l18 -397
c-1 -16 -6 -24 -22 -26z" />
    <glyph glyph-name="Oslash" unicode="&#xd8;" 
d="M106 751c0 502 185 789 566 789c81 0 155 -11 220 -33l70 194c4 10 7 17 17 17c3 0 6 0 10 -1l119 -43c10 -3 15 -8 15 -17c0 -3 -1 -7 -2 -11l-89 -214c149 -117 229 -335 229 -681c0 -488 -176 -761 -561 -761c-75 0 -143 10 -204 29l-75 -214c-3 -9 -8 -14 -18 -14
c-3 0 -6 0 -10 1l-117 47c-10 4 -16 11 -16 21c0 2 0 5 1 7l90 223c-162 119 -245 341 -245 661zM440 312l204 504l171 477c-42 14 -89 19 -141 19c-256 0 -344 -179 -344 -557c0 -223 36 -362 110 -443zM1035 745c0 234 -34 376 -97 459l-181 -440l-186 -531
c40 -11 85 -16 136 -16c244 0 328 164 328 528z" />
    <glyph glyph-name="OE" unicode="&#x152;" horiz-adv-x="1868" 
d="M106 751c0 502 185 789 566 789c82 0 149 -15 203 -42l821 55c17 0 30 -8 30 -27l-20 -345c-1 -15 -9 -22 -21 -23l-163 -14c-18 0 -20 9 -21 26l4 171l-392 -23l32 -467l395 31c14 0 26 -5 27 -23l-13 -168c-1 -15 -9 -23 -23 -23l-387 -7l-22 -458l436 18l-4 132
c1 24 18 37 42 39l159 15c15 -1 25 -8 26 -24l26 -404c-2 -16 -8 -25 -23 -26l-196 -13c-16 2 -22 10 -22 26l-2 64l-729 -8c-55 -22 -122 -34 -202 -34c-346 0 -527 292 -527 763zM955 745c0 463 -105 577 -291 577c-256 0 -334 -189 -334 -567c0 -384 100 -550 320 -550
c237 0 305 152 305 540z" />
    <glyph glyph-name="ordmasculine" unicode="&#xba;" horiz-adv-x="1021" 
d="M127 1156c0 297 125 418 318 418c203 0 348 -77 348 -420c0 -302 -114 -409 -322 -409c-211 0 -344 100 -344 411zM633 1150c0 250 -85 267 -186 267c-120 0 -161 -54 -161 -257c0 -227 74 -266 191 -266c112 0 156 44 156 256z" />
    <glyph glyph-name="ae" unicode="&#xe6;" horiz-adv-x="1771" 
d="M1606 -69l-166 -20c-16 0 -22 6 -22 22c0 13 2 46 4 73c-75 -20 -173 -32 -285 -32c-137 0 -236 41 -300 134c-93 -89 -187 -147 -389 -147c-187 0 -343 120 -343 325c0 248 166 352 518 352c42 0 86 -1 132 -3c0 41 -1 85 -3 116c-9 133 -58 195 -171 195
c-63 0 -146 -24 -220 -54c3 -18 6 -50 6 -68c0 -17 -6 -22 -22 -22l-169 -3c-15 2 -19 7 -20 22l-17 286c0 19 5 25 22 27l167 22c17 0 21 -7 21 -22v-84c101 54 202 94 348 94c89 0 165 -40 209 -132c85 89 207 141 375 141c245 0 353 -108 353 -352
c0 -312 -224 -320 -560 -320c-37 0 -74 0 -111 2c18 -273 105 -317 266 -317c39 0 138 8 205 20l3 63c1 16 6 19 22 23l144 32c14 0 24 -2 25 -19l22 -310c0 -33 -20 -41 -44 -44zM528 149c100 0 183 27 257 70c-23 72 -34 162 -35 270c-334 -1 -419 -66 -419 -191
c0 -104 87 -149 197 -149zM1406 800c0 102 -37 163 -160 163c-93 0 -184 -21 -227 -86c-40 -60 -56 -156 -59 -249c34 -2 68 -3 101 -3c211 0 345 4 345 175z" />
    <glyph glyph-name="dotlessi" unicode="&#x131;" horiz-adv-x="683" 
d="M625 161l-18 -131c-2 -16 -7 -19 -24 -20l-433 -24c-12 0 -14 8 -14 24v151c0 14 4 19 16 19h120l8 699l-162 17c-14 1 -18 6 -18 22l22 165c2 14 8 19 24 21l321 33c14 0 17 -7 18 -23l13 -182l-3 -752h114c12 0 16 -10 16 -19z" />
    <glyph glyph-name="lslash" unicode="&#x142;" horiz-adv-x="683" 
d="M641 201l12 -181c-2 -16 -7 -19 -24 -20l-543 6c-12 0 -14 8 -14 24v171c0 14 4 19 16 19l189 -12v478l-127 -65c-4 -2 -9 -3 -13 -3c-6 0 -12 3 -16 11l-56 142c-1 3 -2 6 -2 8c0 5 3 9 9 12l205 84v493l-151 -12c-14 0 -18 6 -18 22l6 196c0 16 8 19 24 21l325 -8
c14 0 17 -7 18 -23l-7 -159l5 -439l133 64c5 2 9 3 13 3c7 0 13 -4 17 -14l52 -143c1 -3 1 -5 1 -8c0 -6 -2 -12 -10 -16l-203 -73l7 -570l136 11c12 0 15 -4 16 -19z" />
    <glyph glyph-name="oslash" unicode="&#xf8;" horiz-adv-x="1194" 
d="M123 561c0 458 152 590 452 590c59 0 114 -4 165 -14l73 189c4 10 7 17 17 17c3 0 6 0 10 -1l99 -43c10 -4 15 -8 15 -17c0 -3 0 -6 -2 -11l-79 -182c124 -74 197 -227 197 -532c0 -442 -153 -577 -457 -577c-65 0 -124 6 -177 19l-82 -222c-3 -9 -8 -14 -18 -14
c-3 0 -6 0 -10 1l-107 47c-10 4 -16 11 -16 21c0 2 0 5 1 7l95 220c-114 81 -176 235 -176 502zM864 551c0 177 -33 273 -83 324l-140 -324l-132 -356c34 -8 72 -11 113 -11c163 0 242 57 242 367zM391 273l143 330l126 328c-27 3 -55 4 -83 4c-175 0 -250 -45 -250 -369
c0 -145 23 -237 64 -293z" />
    <glyph glyph-name="oe" unicode="&#x153;" horiz-adv-x="1881" 
d="M1744 -69l-166 -20c-16 0 -22 6 -22 22l4 73c-84 -20 -212 -32 -325 -32c-137 0 -236 51 -299 143c-75 -92 -190 -137 -344 -137c-309 0 -495 125 -495 581c0 458 157 590 457 590c177 0 317 -43 401 -175c84 115 217 177 424 177c247 0 353 -120 353 -369
c0 -122 -29 -178 -74 -228c-83 -93 -374 -102 -608 -102c20 -244 122 -278 277 -278c40 0 168 9 245 21l3 52c1 16 6 19 22 23l144 32c14 0 24 -2 25 -19l22 -310c0 -33 -20 -41 -44 -44zM848 551c0 367 -144 384 -292 384c-175 0 -255 -45 -255 -369
c0 -332 128 -382 300 -382c163 0 247 57 247 367zM1504 790c0 102 -37 173 -160 173c-93 0 -183 -22 -227 -86c-40 -59 -64 -156 -69 -276c175 1 371 18 419 60c34 30 37 70 37 129z" />
    <glyph glyph-name="germandbls" unicode="&#xdf;" horiz-adv-x="1364" 
d="M454 206l-18 -186c-2 -16 -7 -19 -24 -20l-283 6c-11 0 -14 8 -14 24l-10 151c0 14 4 19 16 19l129 2v686l-156 -10c-14 1 -18 5 -20 17l9 175c1 11 7 22 22 22h139c-9 79 -9 132 -9 217c0 277 283 337 551 337c284 0 419 -95 419 -297c0 -183 -60 -239 -249 -419
c-46 -44 -82 -82 -82 -130c0 -54 67 -90 184 -135c229 -88 287 -148 287 -363c0 -204 -129 -311 -335 -311c-127 0 -264 21 -373 41c-24 4 -40 15 -42 39l19 160c2 16 14 22 27 22c11 0 50 -13 101 -30c67 -22 157 -46 226 -46c106 0 172 54 172 140c0 70 -31 109 -97 132
c-282 98 -392 133 -392 325c0 117 88 216 176 305c111 113 157 162 157 246c0 97 -66 129 -196 129c-172 0 -349 -10 -349 -237c0 -69 7 -191 15 -302v-709z" />
    <glyph glyph-name="onesuperior" unicode="&#xb9;" horiz-adv-x="851" 
d="M176 1552l181 84c7 4 11 5 18 5l124 -17c7 -1 9 -3 9 -11l-8 -137l-6 -445l117 8c6 0 8 -2 8 -9l-5 -160c0 -8 -1 -12 -7 -12l-410 7c-8 0 -11 2 -12 10l6 155c0 4 2 9 8 9l118 -9v412l-125 -18c-7 0 -9 3 -10 11l-17 103c0 7 4 11 11 14z" />
    <glyph glyph-name="logicalnot" unicode="&#xac;" horiz-adv-x="1194" 
d="M1007 384l-161 -12c-16 2 -19 7 -20 24l7 203l-652 -31c-12 1 -14 8 -14 24l10 161c1 14 4 19 16 19l814 11c14 -1 19 -9 19 -21v-360c0 -12 -7 -17 -19 -18z" />
    <glyph glyph-name="mu" unicode="&#xb5;" horiz-adv-x="1194" 
d="M1163 183l12 -153c-1 -9 -8 -19 -24 -21l-297 -30c-25 0 -37 12 -41 38l-22 142c-85 -86 -189 -146 -310 -146c-67 0 -122 16 -167 46l27 -438c-1 -17 -7 -19 -23 -22l-173 -31c-13 0 -16 10 -16 24l-10 1511c0 16 8 22 24 23l177 11c14 -1 21 -8 21 -21l-27 -684
c3 -165 81 -201 184 -201c114 0 193 43 287 115l-18 766c2 16 7 21 22 22l160 6c13 0 21 -8 21 -24l20 -906l150 -3c14 0 22 -8 23 -24z" />
    <glyph glyph-name="mu" unicode="&#x3bc;" horiz-adv-x="1194" 
d="M1163 183l12 -153c-1 -9 -8 -19 -24 -21l-297 -30c-25 0 -37 12 -41 38l-22 142c-85 -86 -189 -146 -310 -146c-67 0 -122 16 -167 46l27 -438c-1 -17 -7 -19 -23 -22l-173 -31c-13 0 -16 10 -16 24l-10 1511c0 16 8 22 24 23l177 11c14 -1 21 -8 21 -21l-27 -684
c3 -165 81 -201 184 -201c114 0 193 43 287 115l-18 766c2 16 7 21 22 22l160 6c13 0 21 -8 21 -24l20 -906l150 -3c14 0 22 -8 23 -24z" />
    <glyph glyph-name="trademark" unicode="&#x2122;" horiz-adv-x="1881" 
d="M1086 933l7 -105c0 -8 -3 -10 -11 -10l-237 -4c-5 0 -10 4 -10 13l8 108c1 7 2 8 7 9l64 -6l52 475l-56 -5c-6 0 -7 2 -8 11l-4 107c0 8 3 9 11 11l256 11c11 0 15 -6 17 -14l120 -513l112 509c2 8 8 13 18 13l228 -1c7 0 11 -2 11 -10l5 -113c0 -7 -3 -11 -10 -11h-50
l71 -470l68 1c5 -1 7 -3 8 -9l-9 -100c-1 -7 -5 -11 -10 -11l-237 -1c-8 0 -11 2 -11 10l3 99c0 6 2 9 8 9h31l-58 454l-121 -569c-1 -7 -3 -9 -11 -9l-102 -2c-6 0 -9 2 -11 10l-172 570l-36 -450l51 2c6 0 8 -6 8 -9zM732 1292l-111 3c-7 0 -9 3 -9 11l1 122l-103 8
l8 -491l101 4c6 -1 8 -3 8 -9l1 -105c0 -7 -3 -11 -9 -11l-333 -6c-8 0 -12 2 -12 10l4 114c0 4 2 9 8 9l75 -5l-8 483l-102 -14l1 -103c0 -8 -3 -9 -12 -9l-112 -7c-4 0 -9 5 -10 11l4 245c0 6 4 8 12 8l107 -9c8 -1 10 -3 10 -11v-14l381 5l114 10c5 0 10 -4 10 -11
l-15 -229c0 -5 -4 -9 -9 -9z" />
    <glyph glyph-name="Eth" unicode="&#xd0;" 
d="M101 6c-12 1 -17 8 -18 24l12 177c1 13 4 17 16 19l109 -8l9 384l-131 -6c-17 1 -24 4 -24 19l-2 131c0 9 4 20 16 20l145 2l13 545c-45 -3 -91 -7 -141 -12c-14 0 -17 6 -18 22l-14 186c1 16 8 19 24 21c396 10 469 10 553 10c369 0 609 -165 609 -754
c0 -542 -247 -805 -614 -805c-201 0 -387 9 -544 25zM646 1336c-31 0 -94 -2 -181 -7l-6 -557h10l306 22c12 0 16 -4 16 -18c3 -133 3 -135 3 -137c0 -12 -3 -18 -13 -19l-324 -6l-4 -409c76 -5 118 -6 186 -6c271 0 394 189 394 562c0 447 -141 575 -387 575z" />
    <glyph glyph-name="onehalf" unicode="&#xbd;" horiz-adv-x="1533" 
d="M1160 1477l94 -70c5 -4 8 -9 8 -14s-2 -10 -5 -15l-473 -640l-488 -700c-4 -5 -10 -8 -16 -8c-4 0 -9 2 -14 5l-90 64c-5 3 -8 8 -8 13c0 6 3 12 7 18l498 691l460 652c4 6 8 9 14 9c3 0 8 -2 13 -5zM140 1452l181 84c7 4 11 5 18 5l124 -17c7 -1 9 -3 9 -11l-8 -137
l-6 -445l117 8c6 0 8 -2 8 -9l-5 -160c0 -8 -1 -12 -7 -12l-410 7c-8 0 -11 2 -12 10l6 155c0 4 2 9 8 9l118 -9v412l-125 -18c-7 0 -9 3 -10 11l-17 103c0 7 4 11 11 14zM1010 787l-2 -54c61 31 115 51 196 51c104 0 190 -80 190 -208c0 -106 -67 -191 -296 -424l176 11v31
c0 12 9 19 20 19l94 4c11 0 16 -4 16 -15l-9 -238c-1 -8 -6 -11 -11 -11l-112 1c-9 0 -11 5 -11 13l4 32l-359 -4c-6 0 -8 4 -9 12l-12 135c0 7 4 11 8 15c259 279 309 336 309 410c0 51 -32 79 -86 79c-38 0 -74 -9 -111 -26l-1 -53c0 -8 -1 -12 -11 -13l-122 17
c-6 1 -8 4 -8 11l10 202c0 9 5 15 15 16c15 1 92 3 103 3c9 0 18 -4 19 -16z" />
    <glyph glyph-name="plusminus" unicode="&#xb1;" horiz-adv-x="1194" 
d="M514 1145l161 -8c16 -1 20 -7 20 -24l-10 -325l326 4c12 -1 18 -3 18 -19l-3 -161c0 -16 -7 -19 -24 -20l-319 10l6 -364c0 -12 -8 -15 -24 -16l-151 7c-14 1 -19 4 -19 16l8 356l-314 -13c-12 0 -13 8 -14 24l-10 151c1 14 4 19 16 19l322 4l-8 338c0 12 6 20 19 21z
M1014 143l-18 -151c-2 -16 -7 -19 -24 -20l-783 -4c-12 0 -14 8 -14 24l10 141c1 14 4 19 16 19l797 10c12 -1 16 -10 16 -19z" />
    <glyph glyph-name="Thorn" unicode="&#xde;" 
d="M654 1521l-9 -176c-1 -17 -4 -22 -18 -22l-137 1l-1 -155c109 20 222 33 329 33c286 0 507 -106 507 -409c0 -319 -211 -427 -593 -427c-71 0 -159 6 -251 19l-2 -178l191 13c12 0 19 -7 19 -19l7 -178c-1 -16 -7 -20 -24 -20l-519 -7c-14 0 -21 8 -23 24l-18 177
c1 13 4 17 16 19l118 -7l25 1111l-131 -7c-14 0 -23 4 -23 22l-4 176c0 16 4 23 18 23l499 8c16 -2 23 -5 24 -21zM770 567c181 0 322 48 322 224c0 182 -134 218 -310 218c-101 0 -194 -10 -295 -24l-4 -397c92 -11 192 -21 287 -21z" />
    <glyph glyph-name="onequarter" unicode="&#xbc;" horiz-adv-x="1533" 
d="M1367 107l4 -95c0 -4 -2 -9 -8 -9h-351c-7 0 -8 2 -8 9l-5 100c0 8 1 12 7 12l91 -2l4 81l-279 -2c-10 0 -22 1 -26 14l-23 80c-1 5 -1 8 -1 13c0 19 188 451 194 463c4 9 8 11 17 11l166 -35c6 -2 9 -5 9 -11c0 -17 -134 -288 -207 -429l155 6l8 168c0 7 3 11 13 12
l170 -19c7 -1 10 -3 10 -11l-20 -143l86 3c6 0 7 -3 8 -10l13 -98c0 -8 -3 -10 -11 -10l-98 -1v-86l70 -1c8 0 11 -2 12 -10zM1174 1477l94 -70c5 -4 8 -9 8 -14s-2 -10 -5 -15l-473 -640l-488 -700c-4 -5 -10 -8 -16 -8c-4 0 -9 2 -14 5l-90 64c-5 3 -8 8 -8 13
c0 6 3 12 7 18l498 691l460 652c4 6 8 9 14 9c3 0 8 -2 13 -5zM154 1452l181 84c7 4 11 5 18 5l124 -17c7 -1 9 -3 9 -11l-8 -137l-6 -445l117 8c6 0 8 -2 8 -9l-5 -160c0 -8 -1 -12 -7 -12l-410 7c-8 0 -11 2 -12 10l6 155c0 4 2 9 8 9l118 -9v412l-125 -18
c-7 0 -9 3 -10 11l-17 103c0 7 4 11 11 14z" />
    <glyph glyph-name="divide" unicode="&#xf7;" horiz-adv-x="1194" 
d="M190 512l-8 151c0 9 4 18 16 19l404 -15l393 5c12 0 15 -5 16 -19v-141c0 -16 -2 -24 -14 -24l-413 12l-370 -8c-17 1 -23 4 -24 20zM752 899c0 -66 -90 -102 -182 -102c-72 0 -98 94 -98 156c0 82 118 100 186 100c71 0 94 -94 94 -154zM752 219
c0 -66 -90 -102 -182 -102c-72 0 -98 94 -98 156c0 82 118 100 186 100c71 0 94 -94 94 -154z" />
    <glyph glyph-name="brokenbar" unicode="&#xa6;" horiz-adv-x="851" 
d="M344 1634l151 2c16 -1 20 -7 20 -24l4 -836c0 -12 -8 -20 -24 -21l-141 -10c-14 1 -19 4 -19 16l-10 857c1 12 10 16 19 16zM354 344l151 12c16 -1 20 -7 20 -24l-6 -836c0 -12 -3 -20 -19 -21l-156 -10c-14 1 -19 4 -19 16l10 843c0 12 5 19 19 20z" />
    <glyph glyph-name="degree" unicode="&#xb0;" horiz-adv-x="851" 
d="M716 1358c0 -178 -105 -301 -299 -301c-188 0 -283 133 -283 294c0 159 89 297 294 297c197 0 288 -119 288 -290zM430 1506c-105 0 -133 -82 -133 -157c0 -71 36 -151 127 -151c89 0 133 75 133 162c0 75 -40 146 -127 146z" />
    <glyph glyph-name="thorn" unicode="&#xfe;" horiz-adv-x="1195" 
d="M397 1572l-16 -483c71 27 177 62 275 62c324 0 424 -190 424 -584c0 -391 -132 -576 -410 -576c-105 0 -199 16 -296 53l14 -311l188 7c14 -1 21 -5 21 -21l-10 -147c-1 -16 -7 -20 -23 -20l-466 -10c-13 0 -19 10 -20 24l-8 165c3 17 7 20 22 21l89 -10v1643l-146 -8
c-14 1 -19 7 -20 19l-12 155c2 13 7 19 23 20l353 24c14 0 18 -7 18 -23zM864 568c0 273 -46 367 -237 367c-84 0 -165 -15 -252 -41l-13 -267l5 -403c73 -18 153 -32 248 -32c177 0 249 83 249 376z" />
    <glyph glyph-name="threequarters" unicode="&#xbe;" horiz-adv-x="1533" 
d="M1404 107l4 -95c0 -4 -2 -9 -8 -9h-351c-7 0 -8 2 -8 9l-5 100c0 8 1 12 7 12l91 -2l4 81l-279 -2c-10 0 -21 1 -26 14l-23 80c-1 5 -1 8 -1 13c0 19 188 451 194 463c4 9 8 11 17 11l166 -35c6 -2 9 -5 9 -11c0 -17 -134 -288 -207 -429l155 6l8 168c0 7 3 11 13 12
l170 -19c7 -1 10 -3 10 -11l-20 -143l86 3c6 0 8 -5 8 -10l13 -98c0 -8 -3 -10 -11 -10l-98 -1v-86l70 -1c8 0 11 -2 12 -10zM1211 1477l94 -70c5 -4 8 -9 8 -14s-2 -10 -5 -15l-473 -640l-488 -700c-4 -5 -10 -8 -16 -8c-4 0 -9 2 -14 5l-90 64c-5 3 -8 8 -8 13
c0 6 3 12 7 18l498 691l460 652c4 6 8 9 14 9c3 0 8 -2 13 -5zM93 935l139 18c7 0 10 -4 10 -12v-43c38 -11 78 -19 118 -19c76 0 120 26 120 103c0 71 -42 119 -85 119c-22 0 -51 -5 -76 -10c-28 -6 -49 -10 -58 -10c-6 0 -13 4 -13 11l-7 113c0 9 5 16 15 17
c143 17 185 83 185 158c0 57 -32 74 -84 74c-42 0 -73 -13 -104 -34l4 -42c-1 -9 -2 -13 -11 -14l-140 -8c-6 0 -7 4 -8 12l10 202c0 10 5 16 15 16l130 -2c10 0 19 -4 20 -16l-7 -34c62 26 131 42 194 42c126 0 178 -75 178 -175c0 -106 -54 -170 -157 -214
c122 -22 197 -97 197 -205c0 -136 -67 -223 -226 -223c-66 0 -136 9 -198 28l11 -53c0 -6 -4 -9 -12 -9l-137 -7c-15 1 -20 7 -21 19l-14 187c0 7 4 10 12 11z" />
    <glyph glyph-name="twosuperior" unicode="&#xb2;" horiz-adv-x="851" 
d="M261 1646l-2 -54c61 31 115 51 196 51c104 0 190 -80 190 -208c0 -106 -67 -191 -296 -424l176 11v31c0 12 9 19 20 19l94 4c11 0 16 -4 16 -15l-9 -238c-1 -8 -6 -11 -11 -11l-112 1c-9 0 -11 5 -11 13l4 32l-359 -4c-6 0 -8 4 -9 12l-12 135c0 7 4 11 8 15
c259 279 309 336 309 410c0 51 -32 79 -86 79c-38 0 -74 -9 -111 -26l-1 -53c0 -8 -1 -12 -11 -13l-122 17c-6 1 -8 4 -8 11l10 202c0 9 5 15 15 16c15 1 92 3 103 3c9 0 18 -4 19 -16z" />
    <glyph glyph-name="registered" unicode="&#xae;" horiz-adv-x="1703" 
d="M854 -94c-521 0 -774 297 -774 822c0 514 204 887 783 887c543 0 760 -294 760 -828c0 -541 -200 -881 -769 -881zM869 1476c-554 0 -637 -384 -637 -736c0 -401 137 -696 607 -696c462 0 639 260 639 688c0 431 -124 744 -609 744zM525 1097c-10 0 -20 7 -20 19l17 122
c2 11 5 19 16 21c80 11 210 21 295 21c245 0 381 -80 381 -324c0 -152 -60 -244 -166 -282l103 -245l86 10c12 -1 22 -8 22 -23l1 -108c0 -17 -7 -35 -25 -37l-174 -15c-11 0 -18 2 -22 14l-138 384c-56 0 -96 1 -137 6l-10 -256l79 4c8 0 11 -7 11 -13l5 -128
c-1 -11 -5 -12 -17 -12h-304c-8 0 -11 6 -12 17l5 124c0 9 5 12 13 13l67 -6l24 702c-48 -5 -88 -8 -100 -8zM859 1117c-24 0 -50 -1 -76 -2l-14 -333c25 -2 49 -2 87 -2c131 0 190 47 190 173c0 129 -62 164 -187 164z" />
    <glyph glyph-name="minus" unicode="&#x2212;" horiz-adv-x="1194" 
d="M1016 753l-18 -151c-2 -16 -7 -19 -24 -20l-783 -4c-12 0 -14 8 -14 24l10 141c1 14 4 19 16 19l797 10c12 -1 16 -10 16 -19z" />
    <glyph glyph-name="eth" unicode="&#xf0;" horiz-adv-x="1194" 
d="M843 1670l112 -103c4 -4 6 -9 6 -14c0 -8 -3 -14 -9 -21l-103 -115c153 -143 220 -407 220 -739c0 -503 -168 -699 -488 -699c-257 0 -460 153 -460 522c0 345 208 470 415 470c129 0 229 -23 305 -54c-23 154 -67 264 -135 334l-131 -164c-5 -6 -10 -8 -16 -8
c-5 0 -10 1 -15 5l-101 74c-6 4 -8 9 -8 14c0 4 1 9 5 14l123 150c-39 11 -83 17 -131 17c-38 0 -79 -5 -113 -10c-16 -2 -29 -3 -37 -3c-9 0 -13 4 -13 14l12 144c1 11 6 18 19 20c65 10 123 19 228 19c60 0 115 -9 164 -26l108 159c4 6 12 10 20 10c7 0 16 -3 23 -10z
M859 629c0 38 -1 74 -2 109c-109 33 -206 42 -293 42c-123 0 -237 -72 -237 -313c0 -169 88 -284 249 -284c196 0 283 92 283 446z" />
    <glyph glyph-name="multiply" unicode="&#xd7;" horiz-adv-x="1194" 
d="M898 1018l118 -129c5 -5 7 -10 7 -14c0 -5 -3 -10 -10 -17l-298 -276l305 -265c4 -3 5 -7 5 -11c0 -5 -3 -11 -6 -15l-116 -132c-4 -5 -9 -8 -13 -8c-6 0 -11 4 -18 11l-280 295l-269 -311c-4 -5 -8 -7 -13 -7s-11 2 -16 8l-114 124c-5 5 -7 10 -7 14c0 3 1 6 5 10
l294 282l-294 273c-4 4 -7 8 -7 12c0 5 3 10 8 16l112 127c5 6 9 9 13 9s8 -3 12 -7l277 -304l277 314c4 4 9 7 15 7c4 0 9 -2 13 -6z" />
    <glyph glyph-name="threesuperior" unicode="&#xb3;" horiz-adv-x="851" 
d="M93 995l139 18c7 0 10 -4 10 -12v-43c38 -11 78 -19 118 -19c76 0 120 26 120 103c0 71 -42 119 -85 119c-22 0 -51 -5 -76 -10c-28 -6 -49 -10 -58 -10c-6 0 -13 4 -13 11l-7 113c0 9 5 16 15 17c143 17 185 83 185 158c0 57 -32 74 -84 74c-42 0 -73 -13 -104 -34
l4 -42c-1 -9 -2 -13 -11 -14l-140 -8c-6 0 -7 4 -8 12l10 202c0 10 5 16 15 16l130 -2c10 0 19 -4 20 -16l-7 -34c62 26 131 42 194 42c126 0 178 -75 178 -175c0 -106 -54 -170 -157 -214c122 -22 197 -97 197 -205c0 -136 -67 -223 -226 -223c-66 0 -136 9 -198 28l11 -53
c0 -6 -4 -9 -12 -9l-137 -7c-15 1 -20 7 -21 19l-14 187c0 7 4 10 12 11z" />
    <glyph glyph-name="copyright" unicode="&#xa9;" horiz-adv-x="1703" 
d="M854 -94c-521 0 -774 297 -774 822c0 514 204 887 783 887c543 0 760 -294 760 -828c0 -541 -200 -881 -769 -881zM869 1476c-554 0 -637 -384 -637 -736c0 -401 137 -696 607 -696c462 0 639 260 639 688c0 431 -124 744 -609 744zM1145 916l-115 -3c-7 0 -13 5 -14 16
l-14 180c-49 12 -96 18 -150 18c-179 0 -233 -83 -233 -360c0 -294 74 -387 247 -387c60 0 104 16 149 32v125c0 11 5 13 16 15l114 20c7 0 13 -5 15 -16l17 -307c0 -8 -6 -12 -16 -12l-114 38c-62 -28 -137 -53 -227 -53c-254 0 -373 195 -373 552c0 371 147 512 382 512
c65 0 135 -17 190 -35l111 18c16 0 28 -10 29 -27l1 -309c0 -11 -6 -17 -15 -17z" />
    <glyph glyph-name="Aacute" unicode="&#xc1;" 
d="M828 1516l432 -1283l91 3c19 -1 28 -8 28 -32v-158c0 -22 -9 -27 -31 -27h-463c-24 0 -24 11 -24 30l20 146c3 23 9 28 30 28l114 3l-86 266l-495 10l-81 -290l121 12c16 0 21 -6 23 -23l15 -152c-3 -22 -10 -29 -30 -30l-436 -17c-17 1 -22 13 -22 32v167
c0 21 8 28 30 29l92 -4l396 1284c4 12 9 20 24 21l227 8c13 -1 20 -8 25 -23zM670 1315l-179 -643h389zM959 2006l70 -164c3 -6 4 -12 4 -17c0 -9 -5 -16 -15 -20l-494 -207c-5 -2 -9 -3 -13 -3c-6 0 -10 3 -13 10l-39 92c-2 5 -4 10 -4 14c0 5 2 9 9 13l453 290
c8 4 15 6 22 6c8 0 16 -4 20 -14z" />
    <glyph glyph-name="Acircumflex" unicode="&#xc2;" 
d="M828 1516l432 -1283l91 3c19 -1 28 -8 28 -32v-158c0 -22 -9 -27 -31 -27h-463c-24 0 -24 11 -24 30l20 146c3 23 9 28 30 28l114 3l-86 266l-495 10l-81 -290l121 12c16 0 21 -6 23 -23l15 -152c-3 -22 -10 -29 -30 -30l-436 -17c-17 1 -22 13 -22 32v167
c0 21 8 28 30 29l92 -4l396 1284c4 12 9 20 24 21l227 8c13 -1 20 -8 25 -23zM670 1315l-179 -643h389zM292 1748l298 237c18 14 35 24 45 25l95 10c15 0 27 -10 46 -26l302 -251c5 -5 7 -10 7 -15c0 -4 -2 -9 -6 -14l-61 -73c-3 -4 -8 -6 -12 -6s-8 2 -12 4l-320 159
l-289 -150c-5 -3 -11 -6 -16 -6s-10 3 -14 8l-62 76c-3 4 -6 8 -6 13c0 3 1 6 5 9z" />
    <glyph glyph-name="Adieresis" unicode="&#xc4;" 
d="M828 1516l432 -1283l91 3c19 -1 28 -8 28 -32v-158c0 -22 -9 -27 -31 -27h-463c-24 0 -24 11 -24 30l20 146c3 23 9 28 30 28l114 3l-86 266l-495 10l-81 -290l121 12c16 0 21 -6 23 -23l15 -152c-3 -22 -10 -29 -30 -30l-436 -17c-17 1 -22 13 -22 32v167
c0 21 8 28 30 29l92 -4l396 1284c4 12 9 20 24 21l227 8c13 -1 20 -8 25 -23zM670 1315l-179 -643h389zM423 1725c-91 0 -122 29 -122 126c0 114 28 137 166 137c91 0 123 -22 123 -120c0 -124 -32 -142 -167 -143zM894 1725c-91 0 -122 29 -122 126c0 114 28 137 166 137
c91 0 123 -22 123 -120c0 -124 -32 -142 -167 -143z" />
    <glyph glyph-name="Agrave" unicode="&#xc0;" 
d="M828 1516l432 -1283l91 3c19 -1 28 -8 28 -32v-158c0 -22 -9 -27 -31 -27h-463c-24 0 -24 11 -24 30l20 146c3 23 9 28 30 28l114 3l-86 266l-495 10l-81 -290l121 12c16 0 21 -6 23 -23l15 -152c-3 -22 -10 -29 -30 -30l-436 -17c-17 1 -22 13 -22 32v167
c0 21 8 28 30 29l92 -4l396 1284c4 12 9 20 24 21l227 8c13 -1 20 -8 25 -23zM670 1315l-179 -643h389zM329 1842l70 164c4 10 12 14 20 14c7 0 14 -2 22 -6l492 -276c7 -4 9 -8 9 -13c0 -4 -2 -9 -4 -14l-39 -92c-3 -7 -7 -10 -13 -10c-4 0 -8 1 -13 3l-533 193
c-10 4 -15 11 -15 20c0 5 1 11 4 17z" />
    <glyph glyph-name="Aring" unicode="&#xc5;" 
d="M828 1516l432 -1283l91 3c19 -1 28 -8 28 -32v-158c0 -22 -9 -27 -31 -27h-463c-24 0 -24 11 -24 30l20 146c3 23 9 28 30 28l114 3l-86 266l-495 10l-81 -290l121 12c16 0 21 -6 23 -23l15 -152c-3 -22 -10 -29 -30 -30l-436 -17c-17 1 -22 13 -22 32v167
c0 21 8 28 30 29l92 -4l396 1284l6 12c-102 33 -152 109 -152 224c0 153 74 264 284 264c197 0 276 -85 276 -244c0 -118 -41 -203 -142 -240zM670 1315l-179 -643h389zM692 1874c-105 0 -123 -61 -123 -117c0 -64 26 -111 117 -111c89 0 123 56 123 122
c0 61 -30 106 -117 106z" />
    <glyph glyph-name="Atilde" unicode="&#xc3;" 
d="M828 1516l432 -1283l91 3c19 -1 28 -8 28 -32v-158c0 -22 -9 -27 -31 -27h-463c-24 0 -24 11 -24 30l20 146c3 23 9 28 30 28l114 3l-86 266l-495 10l-81 -290l121 12c16 0 21 -6 23 -23l15 -152c-3 -22 -10 -29 -30 -30l-436 -17c-17 1 -22 13 -22 32v167
c0 21 8 28 30 29l92 -4l396 1284c4 12 9 20 24 21l227 8c13 -1 20 -8 25 -23zM670 1315l-179 -643h389zM298 1751l-32 91c0 9 5 14 13 22c66 71 176 148 250 148c37 0 86 -24 136 -52c54 -30 109 -60 151 -60c62 0 133 37 177 62c21 12 36 19 42 19c10 0 15 -6 20 -19
l33 -78c2 -5 2 -8 2 -11c0 -9 -5 -15 -12 -22c-59 -65 -168 -161 -260 -161c-46 0 -101 28 -154 55s-104 53 -148 53c-38 0 -107 -31 -152 -52c-20 -9 -36 -15 -42 -15c-15 0 -19 4 -24 20z" />
    <glyph glyph-name="Ccedilla" unicode="&#xc7;" 
d="M716 -242c-12 0 -73 78 -73 95l27 107c-356 12 -540 297 -540 816c0 551 235 764 577 764c99 0 205 -11 286 -38l180 28c24 0 41 -15 42 -39l-12 -436c0 -16 -9 -26 -22 -26l-168 -4c-10 0 -20 7 -21 23l-21 257c-75 19 -147 30 -230 30c-262 0 -375 -154 -375 -570
c0 -440 142 -589 395 -589c96 0 164 15 235 38l-5 134c1 15 8 19 24 22l166 28c10 0 19 -7 21 -23l40 -390c0 -12 -9 -17 -23 -18l-172 -15c-24 0 -41 15 -42 39l-2 42c-58 -31 -127 -55 -205 -66l-12 -79c30 7 57 9 90 9c119 0 178 -89 178 -208c0 -151 -87 -211 -247 -211
c-87 0 -212 28 -212 51l21 107c2 11 8 17 19 17c5 0 15 -2 36 -7c36 -9 89 -20 124 -20c66 0 83 36 83 69c0 39 -21 71 -84 71c-24 0 -70 -8 -78 -8z" />
    <glyph glyph-name="Eacute" unicode="&#xc9;" 
d="M1251 -64l-188 4c-16 0 -22 10 -22 26l-2 61l-893 -25c-16 0 -23 8 -24 24l6 184c0 13 4 17 16 19l125 -17l-8 1089l-126 -11c-14 0 -18 6 -18 22l11 182c1 16 8 20 24 21l999 38c17 -1 30 -8 30 -27l-20 -365c0 -15 -4 -23 -16 -23l-168 6c-18 1 -20 9 -21 26l-6 172
l-473 -25l7 -466l491 31c14 0 26 -5 27 -23l7 -168c-1 -15 -7 -23 -21 -23l-502 -7l7 -457l540 18l-4 131c1 24 18 38 42 39l162 -5c15 -1 23 -6 23 -18l16 -410c-2 -16 -11 -23 -21 -23zM965 2006l70 -164c3 -6 4 -12 4 -17c0 -9 -5 -16 -15 -20l-494 -207
c-5 -2 -9 -3 -13 -3c-6 0 -10 3 -13 10l-39 92c-2 5 -4 10 -4 14c0 5 2 9 9 13l453 290c8 4 15 6 22 6c8 0 16 -4 20 -14z" />
    <glyph glyph-name="Ecircumflex" unicode="&#xca;" 
d="M1251 -64l-188 4c-16 0 -22 10 -22 26l-2 61l-893 -25c-16 0 -23 8 -24 24l6 184c0 13 4 17 16 19l125 -17l-8 1089l-126 -11c-14 0 -18 6 -18 22l11 182c1 16 8 20 24 21l999 38c17 -1 30 -8 30 -27l-20 -365c0 -15 -4 -23 -16 -23l-168 6c-18 1 -20 9 -21 26l-6 172
l-473 -25l7 -466l491 31c14 0 26 -5 27 -23l7 -168c-1 -15 -7 -23 -21 -23l-502 -7l7 -457l540 18l-4 131c1 24 18 38 42 39l162 -5c15 -1 23 -6 23 -18l16 -410c-2 -16 -11 -23 -21 -23zM298 1748l298 237c18 14 35 24 45 25l95 10c15 0 27 -10 46 -26l302 -251
c5 -5 7 -10 7 -15c0 -4 -2 -9 -6 -14l-61 -73c-3 -4 -8 -6 -12 -6s-8 2 -12 4l-320 159l-289 -150c-5 -3 -11 -6 -16 -6s-10 3 -14 8l-62 76c-3 4 -6 8 -6 13c0 3 1 6 5 9z" />
    <glyph glyph-name="Edieresis" unicode="&#xcb;" 
d="M1251 -64l-188 4c-16 0 -22 10 -22 26l-2 61l-893 -25c-16 0 -23 8 -24 24l6 184c0 13 4 17 16 19l125 -17l-8 1089l-126 -11c-14 0 -18 6 -18 22l11 182c1 16 8 20 24 21l999 38c17 -1 30 -8 30 -27l-20 -365c0 -15 -4 -23 -16 -23l-168 6c-18 1 -20 9 -21 26l-6 172
l-473 -25l7 -466l491 31c14 0 26 -5 27 -23l7 -168c-1 -15 -7 -23 -21 -23l-502 -7l7 -457l540 18l-4 131c1 24 18 38 42 39l162 -5c15 -1 23 -6 23 -18l16 -410c-2 -16 -11 -23 -21 -23zM429 1725c-91 0 -122 29 -122 126c0 114 28 137 166 137c91 0 123 -22 123 -120
c0 -124 -32 -142 -167 -143zM900 1725c-91 0 -122 29 -122 126c0 114 28 137 166 137c91 0 123 -22 123 -120c0 -124 -32 -142 -167 -143z" />
    <glyph glyph-name="Egrave" unicode="&#xc8;" 
d="M1251 -64l-188 4c-16 0 -22 10 -22 26l-2 61l-893 -25c-16 0 -23 8 -24 24l6 184c0 13 4 17 16 19l125 -17l-8 1089l-126 -11c-14 0 -18 6 -18 22l11 182c1 16 8 20 24 21l999 38c17 -1 30 -8 30 -27l-20 -365c0 -15 -4 -23 -16 -23l-168 6c-18 1 -20 9 -21 26l-6 172
l-473 -25l7 -466l491 31c14 0 26 -5 27 -23l7 -168c-1 -15 -7 -23 -21 -23l-502 -7l7 -457l540 18l-4 131c1 24 18 38 42 39l162 -5c15 -1 23 -6 23 -18l16 -410c-2 -16 -11 -23 -21 -23zM335 1842l70 164c4 10 12 14 20 14c7 0 14 -2 22 -6l492 -276c7 -4 9 -8 9 -13
c0 -4 -2 -9 -4 -14l-39 -92c-3 -7 -7 -10 -13 -10c-4 0 -8 1 -13 3l-533 193c-10 4 -15 11 -15 20c0 5 1 11 4 17z" />
    <glyph glyph-name="Iacute" unicode="&#xcd;" horiz-adv-x="682" 
d="M601 191l-3 -178c0 -16 -7 -20 -24 -20l-464 13c-12 0 -17 8 -18 24l-8 177c1 13 4 17 16 19l139 -10l-8 1089l-137 1c-14 0 -18 6 -18 22l16 176c1 16 8 19 24 21l467 -18c14 -1 17 -6 18 -23l-7 -159c-1 -18 -9 -22 -23 -22h-117l-3 -1093h134c12 0 16 -10 16 -19z
M619 2006l70 -164c3 -6 4 -12 4 -17c0 -9 -5 -16 -15 -20l-494 -207c-5 -2 -9 -3 -13 -3c-6 0 -10 3 -13 10l-39 92c-2 5 -4 10 -4 14c0 5 2 9 9 13l453 290c8 4 15 6 22 6c8 0 16 -4 20 -14z" />
    <glyph glyph-name="Icircumflex" unicode="&#xce;" horiz-adv-x="682" 
d="M601 191l-3 -178c0 -16 -7 -20 -24 -20l-464 13c-12 0 -17 8 -18 24l-8 177c1 13 4 17 16 19l139 -10l-8 1089l-137 1c-14 0 -18 6 -18 22l16 176c1 16 8 19 24 21l467 -18c14 -1 17 -6 18 -23l-7 -159c-1 -18 -9 -22 -23 -22h-117l-3 -1093h134c12 0 16 -10 16 -19z
M-48 1748l298 237c18 14 35 24 45 25l95 10c15 0 27 -10 46 -26l302 -251c5 -5 7 -10 7 -15c0 -4 -2 -9 -6 -14l-61 -73c-3 -4 -8 -6 -12 -6s-8 2 -12 4l-320 159l-289 -150c-5 -3 -11 -6 -16 -6s-10 3 -14 8l-62 76c-3 4 -6 8 -6 13c0 3 1 6 5 9z" />
    <glyph glyph-name="Idieresis" unicode="&#xcf;" horiz-adv-x="682" 
d="M601 191l-3 -178c0 -16 -7 -20 -24 -20l-464 13c-12 0 -17 8 -18 24l-8 177c1 13 4 17 16 19l139 -10l-8 1089l-137 1c-14 0 -18 6 -18 22l16 176c1 16 8 19 24 21l467 -18c14 -1 17 -6 18 -23l-7 -159c-1 -18 -9 -22 -23 -22h-117l-3 -1093h134c12 0 16 -10 16 -19z
M83 1725c-91 0 -122 29 -122 126c0 114 28 137 166 137c91 0 123 -22 123 -120c0 -124 -32 -142 -167 -143zM554 1725c-91 0 -122 29 -122 126c0 114 28 137 166 137c91 0 123 -22 123 -120c0 -124 -32 -142 -167 -143z" />
    <glyph glyph-name="Igrave" unicode="&#xcc;" horiz-adv-x="682" 
d="M601 191l-3 -178c0 -16 -7 -20 -24 -20l-464 13c-12 0 -17 8 -18 24l-8 177c1 13 4 17 16 19l139 -10l-8 1089l-137 1c-14 0 -18 6 -18 22l16 176c1 16 8 19 24 21l467 -18c14 -1 17 -6 18 -23l-7 -159c-1 -18 -9 -22 -23 -22h-117l-3 -1093h134c12 0 16 -10 16 -19z
M-11 1842l70 164c4 10 12 14 20 14c7 0 14 -2 22 -6l492 -276c7 -4 9 -8 9 -13c0 -4 -2 -9 -4 -14l-39 -92c-3 -7 -7 -10 -13 -10c-4 0 -8 1 -13 3l-533 193c-10 4 -15 11 -15 20c0 5 1 11 4 17z" />
    <glyph glyph-name="Ntilde" unicode="&#xd1;" horiz-adv-x="1536" 
d="M639 221l17 -198c-1 -16 -7 -20 -24 -20l-484 3c-12 0 -16 8 -18 24l-18 167c1 13 4 19 16 19l157 4v1081l-183 -8c-14 1 -16 6 -18 22l11 176c1 16 8 20 24 21l440 22c22 -1 29 -9 37 -28l567 -1274l-26 1079l-155 5c-14 0 -17 6 -18 22l6 166c1 16 8 21 24 21l447 2
c14 -1 17 -6 18 -23l13 -179c0 -18 -9 -22 -23 -22l-127 3l-2 -1267c0 -16 -7 -28 -24 -29l-242 -13c-12 0 -16 7 -23 22l-589 1305l24 -1094l157 10c12 0 15 -5 16 -19zM385 1751l-32 91c0 9 5 14 13 22c66 71 176 148 250 148c37 0 86 -24 136 -52c54 -30 109 -60 151 -60
c62 0 133 37 177 62c21 12 36 19 42 19c10 0 15 -6 20 -19l33 -78c2 -5 2 -8 2 -11c0 -9 -5 -15 -12 -22c-59 -65 -168 -161 -260 -161c-46 0 -101 28 -154 55s-104 53 -148 53c-38 0 -107 -31 -152 -52c-20 -9 -36 -15 -42 -15c-15 0 -19 4 -24 20z" />
    <glyph glyph-name="Oacute" unicode="&#xd3;" 
d="M105 751c0 502 185 789 566 789c378 0 589 -225 589 -789c0 -488 -176 -761 -561 -761c-390 0 -594 260 -594 761zM1034 745c0 463 -132 567 -361 567c-256 0 -344 -179 -344 -557c0 -410 124 -538 377 -538c244 0 328 164 328 528zM963 2006l70 -164c3 -6 4 -12 4 -17
c0 -9 -5 -16 -15 -20l-494 -207c-5 -2 -9 -3 -13 -3c-6 0 -10 3 -13 10l-39 92c-2 5 -4 10 -4 14c0 5 2 9 9 13l453 290c8 4 15 6 22 6c8 0 16 -4 20 -14z" />
    <glyph glyph-name="Ocircumflex" unicode="&#xd4;" 
d="M105 751c0 502 185 789 566 789c378 0 589 -225 589 -789c0 -488 -176 -761 -561 -761c-390 0 -594 260 -594 761zM1034 745c0 463 -132 567 -361 567c-256 0 -344 -179 -344 -557c0 -410 124 -538 377 -538c244 0 328 164 328 528zM296 1748l298 237c18 14 35 24 45 25
l95 10c15 0 27 -10 46 -26l302 -251c5 -5 7 -10 7 -15c0 -4 -2 -9 -6 -14l-61 -73c-3 -4 -8 -6 -12 -6s-8 2 -12 4l-320 159l-289 -150c-5 -3 -11 -6 -16 -6s-10 3 -14 8l-62 76c-3 4 -6 8 -6 13c0 3 1 6 5 9z" />
    <glyph glyph-name="Odieresis" unicode="&#xd6;" 
d="M105 751c0 502 185 789 566 789c378 0 589 -225 589 -789c0 -488 -176 -761 -561 -761c-390 0 -594 260 -594 761zM1034 745c0 463 -132 567 -361 567c-256 0 -344 -179 -344 -557c0 -410 124 -538 377 -538c244 0 328 164 328 528zM427 1725c-91 0 -122 29 -122 126
c0 114 28 137 166 137c91 0 123 -22 123 -120c0 -124 -32 -142 -167 -143zM898 1725c-91 0 -122 29 -122 126c0 114 28 137 166 137c91 0 123 -22 123 -120c0 -124 -32 -142 -167 -143z" />
    <glyph glyph-name="Ograve" unicode="&#xd2;" 
d="M105 751c0 502 185 789 566 789c378 0 589 -225 589 -789c0 -488 -176 -761 -561 -761c-390 0 -594 260 -594 761zM1034 745c0 463 -132 567 -361 567c-256 0 -344 -179 -344 -557c0 -410 124 -538 377 -538c244 0 328 164 328 528zM333 1842l70 164c4 10 12 14 20 14
c7 0 14 -2 22 -6l492 -276c7 -4 9 -8 9 -13c0 -4 -2 -9 -4 -14l-39 -92c-3 -7 -7 -10 -13 -10c-4 0 -8 1 -13 3l-533 193c-10 4 -15 11 -15 20c0 5 1 11 4 17z" />
    <glyph glyph-name="Otilde" unicode="&#xd5;" 
d="M105 751c0 502 185 789 566 789c378 0 589 -225 589 -789c0 -488 -176 -761 -561 -761c-390 0 -594 260 -594 761zM1034 745c0 463 -132 567 -361 567c-256 0 -344 -179 -344 -557c0 -410 124 -538 377 -538c244 0 328 164 328 528zM302 1751l-32 91c0 9 5 14 13 22
c66 71 176 148 250 148c37 0 86 -24 136 -52c54 -30 109 -60 151 -60c62 0 133 37 177 62c21 12 36 19 42 19c10 0 15 -6 20 -19l33 -78c2 -5 2 -8 2 -11c0 -9 -5 -15 -12 -22c-59 -65 -168 -161 -260 -161c-46 0 -101 28 -154 55s-104 53 -148 53c-38 0 -107 -31 -152 -52
c-20 -9 -36 -15 -42 -15c-15 0 -19 4 -24 20z" />
    <glyph glyph-name="Scaron" unicode="&#x160;" horiz-adv-x="1196" 
d="M118 381l196 18c10 0 20 -7 21 -23l13 -162c102 -11 218 -15 301 -15c171 0 243 65 243 195c0 128 -80 167 -294 271c-294 142 -478 196 -478 465c0 246 192 422 460 422c113 0 210 -18 308 -45c62 18 143 39 165 39c16 0 29 -10 30 -27l-20 -415c-1 -15 -4 -23 -16 -23
l-168 6c-18 1 -20 9 -21 26l-8 220c-67 16 -127 28 -198 28c-145 0 -297 -53 -297 -209c0 -135 141 -180 385 -293c300 -139 392 -222 392 -446c0 -253 -151 -409 -450 -409c-97 0 -218 14 -320 32l7 -80c0 -12 -8 -18 -23 -18l-172 -5c-24 1 -40 15 -42 39l-38 387
c0 16 8 21 24 22zM1004 1913l-306 -270c-17 -15 -29 -24 -42 -25l-98 -9c-15 0 -27 9 -46 25l-314 278c-5 5 -7 10 -7 15c0 4 2 9 6 14l61 73c3 4 8 6 12 6s8 -2 12 -4l331 -184l298 181c5 3 11 6 16 6s10 -3 14 -8l60 -72c4 -5 8 -11 8 -17c0 -3 -1 -6 -5 -9z" />
    <glyph glyph-name="Uacute" unicode="&#xda;" horiz-adv-x="1538" 
d="M1431 181l-13 -178c-1 -16 -7 -20 -24 -20l-343 -7c-14 0 -23 9 -23 24l1 227c-114 -135 -264 -215 -418 -215c-253 0 -392 188 -392 526c0 249 7 377 39 768l-164 -13c-14 0 -16 5 -18 22l11 186c1 16 8 20 24 21l432 15c14 -1 18 -6 18 -23l-14 -176
c-2 -19 -9 -22 -23 -22h-48c-22 -382 -29 -488 -29 -694c0 -298 103 -376 224 -376c123 0 270 64 359 144l6 890l-107 -4c-9 0 -14 9 -14 22l6 186c1 16 8 21 24 21l448 12c13 -1 18 -6 18 -23l3 -179c0 -17 -10 -22 -23 -22l-140 -5v-1104l164 16c12 0 16 -10 16 -19z
M1044 2006l70 -164c3 -6 4 -12 4 -17c0 -9 -5 -16 -15 -20l-494 -207c-5 -2 -9 -3 -13 -3c-6 0 -10 3 -13 10l-39 92c-2 5 -4 10 -4 14c0 5 2 9 9 13l453 290c8 4 15 6 22 6c8 0 16 -4 20 -14z" />
    <glyph glyph-name="Ucircumflex" unicode="&#xdb;" horiz-adv-x="1538" 
d="M1431 181l-13 -178c-1 -16 -7 -20 -24 -20l-343 -7c-14 0 -23 9 -23 24l1 227c-114 -135 -264 -215 -418 -215c-253 0 -392 188 -392 526c0 249 7 377 39 768l-164 -13c-14 0 -16 5 -18 22l11 186c1 16 8 20 24 21l432 15c14 -1 18 -6 18 -23l-14 -176
c-2 -19 -9 -22 -23 -22h-48c-22 -382 -29 -488 -29 -694c0 -298 103 -376 224 -376c123 0 270 64 359 144l6 890l-107 -4c-9 0 -14 9 -14 22l6 186c1 16 8 21 24 21l448 12c13 -1 18 -6 18 -23l3 -179c0 -17 -10 -22 -23 -22l-140 -5v-1104l164 16c12 0 16 -10 16 -19z
M377 1748l298 237c18 14 35 24 45 25l95 10c15 0 27 -10 46 -26l302 -251c5 -5 7 -10 7 -15c0 -4 -2 -9 -6 -14l-61 -73c-3 -4 -8 -6 -12 -6s-8 2 -12 4l-320 159l-289 -150c-5 -3 -11 -6 -16 -6s-10 3 -14 8l-62 76c-3 4 -6 8 -6 13c0 3 1 6 5 9z" />
    <glyph glyph-name="Udieresis" unicode="&#xdc;" horiz-adv-x="1538" 
d="M1431 181l-13 -178c-1 -16 -7 -20 -24 -20l-343 -7c-14 0 -23 9 -23 24l1 227c-114 -135 -264 -215 -418 -215c-253 0 -392 188 -392 526c0 249 7 377 39 768l-164 -13c-14 0 -16 5 -18 22l11 186c1 16 8 20 24 21l432 15c14 -1 18 -6 18 -23l-14 -176
c-2 -19 -9 -22 -23 -22h-48c-22 -382 -29 -488 -29 -694c0 -298 103 -376 224 -376c123 0 270 64 359 144l6 890l-107 -4c-9 0 -14 9 -14 22l6 186c1 16 8 21 24 21l448 12c13 -1 18 -6 18 -23l3 -179c0 -17 -10 -22 -23 -22l-140 -5v-1104l164 16c12 0 16 -10 16 -19z
M508 1725c-91 0 -122 29 -122 126c0 114 28 137 166 137c91 0 123 -22 123 -120c0 -124 -32 -142 -167 -143zM979 1725c-91 0 -122 29 -122 126c0 114 28 137 166 137c91 0 123 -22 123 -120c0 -124 -32 -142 -167 -143z" />
    <glyph glyph-name="Ugrave" unicode="&#xd9;" horiz-adv-x="1538" 
d="M1431 181l-13 -178c-1 -16 -7 -20 -24 -20l-343 -7c-14 0 -23 9 -23 24l1 227c-114 -135 -264 -215 -418 -215c-253 0 -392 188 -392 526c0 249 7 377 39 768l-164 -13c-14 0 -16 5 -18 22l11 186c1 16 8 20 24 21l432 15c14 -1 18 -6 18 -23l-14 -176
c-2 -19 -9 -22 -23 -22h-48c-22 -382 -29 -488 -29 -694c0 -298 103 -376 224 -376c123 0 270 64 359 144l6 890l-107 -4c-9 0 -14 9 -14 22l6 186c1 16 8 21 24 21l448 12c13 -1 18 -6 18 -23l3 -179c0 -17 -10 -22 -23 -22l-140 -5v-1104l164 16c12 0 16 -10 16 -19z
M414 1842l70 164c4 10 12 14 20 14c7 0 14 -2 22 -6l492 -276c7 -4 9 -8 9 -13c0 -4 -2 -9 -4 -14l-39 -92c-3 -7 -7 -10 -13 -10c-4 0 -8 1 -13 3l-533 193c-10 4 -15 11 -15 20c0 5 1 11 4 17z" />
    <glyph glyph-name="Yacute" unicode="&#xdd;" 
d="M980 193l-16 -176c-1 -16 -8 -19 -24 -21l-532 15c-14 0 -17 6 -18 23l7 169c1 18 9 22 23 22l157 -3l3 337l-428 748l-86 -6c-19 0 -28 8 -28 32l-10 170c0 22 9 27 31 27h483c24 0 24 -11 24 -30l-10 -165c-1 -23 -9 -27 -30 -28l-110 4l298 -599l288 591l-127 -3
c-16 0 -21 6 -23 23l-15 167c1 22 10 30 30 30l456 7c17 -1 22 -13 22 -32l-10 -162c-1 -21 -8 -29 -30 -29h-87l-415 -746l-7 -340l166 -3c14 0 18 -6 18 -22zM966 2006l70 -164c3 -6 4 -12 4 -17c0 -9 -5 -16 -15 -20l-494 -207c-5 -2 -9 -3 -13 -3c-6 0 -10 3 -13 10
l-39 92c-2 5 -4 10 -4 14c0 5 2 9 9 13l453 290c8 4 15 6 22 6c8 0 16 -4 20 -14z" />
    <glyph glyph-name="Ydieresis" unicode="&#x178;" 
d="M980 193l-16 -176c-1 -16 -8 -19 -24 -21l-532 15c-14 0 -17 6 -18 23l7 169c1 18 9 22 23 22l157 -3l3 337l-428 748l-86 -6c-19 0 -28 8 -28 32l-10 170c0 22 9 27 31 27h483c24 0 24 -11 24 -30l-10 -165c-1 -23 -9 -27 -30 -28l-110 4l298 -599l288 591l-127 -3
c-16 0 -21 6 -23 23l-15 167c1 22 10 30 30 30l456 7c17 -1 22 -13 22 -32l-10 -162c-1 -21 -8 -29 -30 -29h-87l-415 -746l-7 -340l166 -3c14 0 18 -6 18 -22zM460 1725c-91 0 -122 29 -122 126c0 114 28 137 166 137c91 0 123 -22 123 -120c0 -124 -32 -142 -167 -143z
M931 1725c-91 0 -122 29 -122 126c0 114 28 137 166 137c91 0 123 -22 123 -120c0 -124 -32 -142 -167 -143z" />
    <glyph glyph-name="Zcaron" unicode="&#x17d;" horiz-adv-x="1196" 
d="M322 1081l-167 -3c-15 2 -19 7 -20 22l13 399c1 19 5 25 22 27l187 -23l700 39c29 0 40 -21 44 -47l26 -198l-745 -1090l542 -12l5 141c1 15 5 26 21 26l178 -4c12 0 16 -8 16 -23l-12 -395c0 -15 -7 -20 -20 -21l-174 -12c-17 1 -23 11 -24 28l3 77l-718 11
c-37 1 -56 16 -60 53l-16 155l751 1111l-509 -17l-19 -222c-1 -15 -11 -22 -24 -22zM994 1913l-306 -270c-17 -15 -29 -24 -42 -25l-98 -9c-15 0 -27 9 -46 25l-314 278c-5 5 -7 10 -7 15c0 4 2 9 6 14l61 73c3 4 8 6 12 6s8 -2 12 -4l331 -184l298 181c5 3 11 6 16 6
s10 -3 14 -8l60 -72c4 -5 8 -11 8 -17c0 -3 -1 -6 -5 -9z" />
    <glyph glyph-name="aacute" unicode="&#xe1;" horiz-adv-x="1196" 
d="M1154 147l-18 -158c-2 -16 -7 -19 -22 -20l-289 -18c-12 0 -14 8 -14 22l14 117c-100 -77 -228 -129 -363 -129c-197 0 -357 124 -357 342c0 288 194 365 558 365c41 0 83 -1 128 -3c1 34 1 65 1 86c0 133 -58 195 -171 195c-63 0 -146 -24 -220 -54c3 -24 6 -54 6 -68
c0 -17 -6 -22 -22 -22l-169 -3c-15 2 -19 7 -20 22l-17 286c0 19 5 25 22 27l167 22c17 0 21 -7 21 -22v-83c90 50 226 100 333 100c176 0 296 -100 296 -368c0 -130 -12 -463 -20 -628c37 3 80 6 135 11c15 0 21 -8 21 -19zM532 150c97 0 192 38 253 66c2 87 3 200 5 303
c-362 -1 -459 -54 -459 -193c0 -121 79 -176 201 -176zM816 1799l133 -150c3 -4 5 -10 5 -15c0 -7 -2 -14 -8 -19l-462 -340c-3 -2 -7 -4 -11 -4c-5 0 -9 2 -13 6l-67 68c-5 6 -8 13 -8 20c0 5 2 10 5 14l383 420c6 7 14 11 22 11c7 0 15 -4 21 -11z" />
    <glyph glyph-name="acircumflex" unicode="&#xe2;" horiz-adv-x="1196" 
d="M1154 147l-18 -158c-2 -16 -7 -19 -22 -20l-289 -18c-12 0 -14 8 -14 22l14 117c-100 -77 -228 -129 -363 -129c-197 0 -357 124 -357 342c0 288 194 365 558 365c41 0 83 -1 128 -3c1 34 1 65 1 86c0 133 -58 195 -171 195c-63 0 -146 -24 -220 -54c3 -24 6 -54 6 -68
c0 -17 -6 -22 -22 -22l-169 -3c-15 2 -19 7 -20 22l-17 286c0 19 5 25 22 27l167 22c17 0 21 -7 21 -22v-83c90 50 226 100 333 100c176 0 296 -100 296 -368c0 -130 -12 -463 -20 -628c37 3 80 6 135 11c15 0 21 -8 21 -19zM532 150c97 0 192 38 253 66c2 87 3 200 5 303
c-362 -1 -459 -54 -459 -193c0 -121 79 -176 201 -176zM226 1368l318 377c10 11 24 23 42 25l101 10c16 0 32 -11 47 -30l298 -381c3 -4 5 -10 5 -15c0 -7 -3 -14 -8 -19l-67 -68c-4 -4 -9 -6 -14 -6c-4 0 -7 1 -10 4l-310 280l-299 -277c-5 -4 -10 -6 -14 -6
c-6 0 -11 3 -16 8l-70 72c-5 5 -8 10 -8 15c0 3 1 7 5 11z" />
    <glyph glyph-name="adieresis" unicode="&#xe4;" horiz-adv-x="1196" 
d="M1154 147l-18 -158c-2 -16 -7 -19 -22 -20l-289 -18c-12 0 -14 8 -14 22l14 117c-100 -77 -228 -129 -363 -129c-197 0 -357 124 -357 342c0 288 194 365 558 365c41 0 83 -1 128 -3c1 34 1 65 1 86c0 133 -58 195 -171 195c-63 0 -146 -24 -220 -54c3 -24 6 -54 6 -68
c0 -17 -6 -22 -22 -22l-169 -3c-15 2 -19 7 -20 22l-17 286c0 19 5 25 22 27l167 22c17 0 21 -7 21 -22v-83c90 50 226 100 333 100c176 0 296 -100 296 -368c0 -130 -12 -463 -20 -628c37 3 80 6 135 11c15 0 21 -8 21 -19zM532 150c97 0 192 38 253 66c2 87 3 200 5 303
c-362 -1 -459 -54 -459 -193c0 -121 79 -176 201 -176zM371 1337c-91 0 -122 29 -122 126c0 114 28 137 166 137c91 0 123 -22 123 -120c0 -124 -32 -142 -167 -143zM842 1337c-91 0 -122 29 -122 126c0 114 28 137 166 137c91 0 123 -22 123 -120
c0 -124 -32 -142 -167 -143z" />
    <glyph glyph-name="agrave" unicode="&#xe0;" horiz-adv-x="1196" 
d="M1154 147l-18 -158c-2 -16 -7 -19 -22 -20l-289 -18c-12 0 -14 8 -14 22l14 117c-100 -77 -228 -129 -363 -129c-197 0 -357 124 -357 342c0 288 194 365 558 365c41 0 83 -1 128 -3c1 34 1 65 1 86c0 133 -58 195 -171 195c-63 0 -146 -24 -220 -54c3 -24 6 -54 6 -68
c0 -17 -6 -22 -22 -22l-169 -3c-15 2 -19 7 -20 22l-17 286c0 19 5 25 22 27l167 22c17 0 21 -7 21 -22v-83c90 50 226 100 333 100c176 0 296 -100 296 -368c0 -130 -12 -463 -20 -628c37 3 80 6 135 11c15 0 21 -8 21 -19zM532 150c97 0 192 38 253 66c2 87 3 200 5 303
c-362 -1 -459 -54 -459 -193c0 -121 79 -176 201 -176zM300 1649l133 150c6 7 14 11 21 11c8 0 16 -4 22 -11l383 -420c3 -4 5 -9 5 -14c0 -7 -3 -14 -8 -20l-67 -68c-3 -3 -8 -6 -13 -6c-4 0 -8 1 -11 4l-462 340c-6 5 -8 12 -8 19c0 5 2 11 5 15z" />
    <glyph glyph-name="aring" unicode="&#xe5;" horiz-adv-x="1196" 
d="M1154 147l-18 -158c-2 -16 -7 -19 -22 -20l-289 -18c-12 0 -14 8 -14 22l14 117c-100 -77 -228 -129 -363 -129c-197 0 -357 124 -357 342c0 288 194 365 558 365c41 0 83 -1 128 -3c1 34 1 65 1 86c0 133 -58 195 -171 195c-63 0 -146 -24 -220 -54c3 -24 6 -54 6 -68
c0 -17 -6 -22 -22 -22l-169 -3c-15 2 -19 7 -20 22l-17 286c0 19 5 25 22 27l167 22c17 0 21 -7 21 -22v-83c90 50 226 100 333 100c176 0 296 -100 296 -368c0 -130 -12 -463 -20 -628c37 3 80 6 135 11c15 0 21 -8 21 -19zM532 150c97 0 192 38 253 66c2 87 3 200 5 303
c-362 -1 -459 -54 -459 -193c0 -121 79 -176 201 -176zM625 1267c-189 0 -281 85 -281 241c0 153 74 264 284 264c197 0 276 -85 276 -244c0 -161 -77 -261 -279 -261zM630 1636c-105 0 -123 -61 -123 -117c0 -64 26 -111 117 -111c89 0 123 56 123 122
c0 61 -30 106 -117 106z" />
    <glyph glyph-name="atilde" unicode="&#xe3;" horiz-adv-x="1196" 
d="M1154 147l-18 -158c-2 -16 -7 -19 -22 -20l-289 -18c-12 0 -14 8 -14 22l14 117c-100 -77 -228 -129 -363 -129c-197 0 -357 124 -357 342c0 288 194 365 558 365c41 0 83 -1 128 -3c1 34 1 65 1 86c0 133 -58 195 -171 195c-63 0 -146 -24 -220 -54c3 -24 6 -54 6 -68
c0 -17 -6 -22 -22 -22l-169 -3c-15 2 -19 7 -20 22l-17 286c0 19 5 25 22 27l167 22c17 0 21 -7 21 -22v-83c90 50 226 100 333 100c176 0 296 -100 296 -368c0 -130 -12 -463 -20 -628c37 3 80 6 135 11c15 0 21 -8 21 -19zM532 150c97 0 192 38 253 66c2 87 3 200 5 303
c-362 -1 -459 -54 -459 -193c0 -121 79 -176 201 -176zM269 1371l-32 91c0 9 5 14 13 22c66 71 166 148 240 148c40 0 88 -29 136 -58c46 -27 92 -54 131 -54c68 0 141 44 181 68c13 8 23 13 28 13c10 0 15 -6 20 -19l33 -78c2 -5 2 -8 2 -11c0 -9 -5 -15 -12 -22
c-59 -65 -158 -161 -250 -161c-46 0 -95 27 -143 54s-95 54 -139 54c-30 0 -75 -18 -116 -39c-31 -16 -59 -28 -68 -28c-15 0 -19 4 -24 20z" />
    <glyph glyph-name="ccedilla" unicode="&#xe7;" horiz-adv-x="1024" 
d="M481 -242c-12 0 -73 78 -73 95l36 142c-243 19 -350 177 -350 522c0 295 21 636 390 636c72 0 144 -12 213 -29l188 35c15 -2 19 -7 20 -22l17 -356c-1 -19 -6 -25 -22 -27l-167 -22c-17 0 -21 7 -21 22v169c-40 9 -79 15 -122 15c-235 0 -284 -127 -284 -385
c0 -305 80 -365 217 -365c72 0 118 8 173 19l4 69c1 15 5 25 21 26l158 -6c12 -1 15 -8 16 -23l18 -313c0 -13 -6 -21 -20 -21h-192c-12 0 -16 7 -17 19l3 57c-42 -8 -82 -15 -120 -18l-16 -109c30 7 57 9 90 9c119 0 178 -89 178 -208c0 -151 -87 -211 -247 -211
c-87 0 -212 28 -212 51l21 107c2 11 8 17 19 17c5 0 15 -2 36 -7c36 -9 89 -20 124 -20c66 0 83 36 83 69c0 39 -21 71 -84 71c-24 0 -70 -8 -78 -8z" />
    <glyph glyph-name="eacute" unicode="&#xe9;" horiz-adv-x="1196" 
d="M1031 -69l-166 -20c-16 0 -22 6 -22 22l4 73c-84 -20 -212 -32 -325 -32c-264 0 -387 154 -387 533c0 166 16 325 81 439c82 143 220 207 450 207c247 0 353 -120 353 -369c0 -122 -29 -178 -74 -228c-82 -91 -366 -102 -598 -102c19 -244 112 -278 267 -278
c40 0 168 9 245 21l3 52c1 16 6 19 22 23l144 32c14 0 23 -2 25 -19c3 -23 22 -279 22 -310c0 -33 -20 -41 -44 -44zM791 790c0 102 -37 173 -160 173c-93 0 -183 -22 -227 -86c-40 -59 -56 -156 -60 -276c173 2 363 18 410 60c34 30 37 70 37 129zM792 1799l133 -150
c3 -4 5 -10 5 -15c0 -7 -2 -14 -8 -19l-462 -340c-3 -2 -7 -4 -11 -4c-5 0 -9 2 -13 6l-67 68c-5 6 -8 13 -8 20c0 5 2 10 5 14l383 420c6 7 14 11 22 11c7 0 15 -4 21 -11z" />
    <glyph glyph-name="ecircumflex" unicode="&#xea;" horiz-adv-x="1196" 
d="M1031 -69l-166 -20c-16 0 -22 6 -22 22l4 73c-84 -20 -212 -32 -325 -32c-264 0 -387 154 -387 533c0 166 16 325 81 439c82 143 220 207 450 207c247 0 353 -120 353 -369c0 -122 -29 -178 -74 -228c-82 -91 -366 -102 -598 -102c19 -244 112 -278 267 -278
c40 0 168 9 245 21l3 52c1 16 6 19 22 23l144 32c14 0 23 -2 25 -19c3 -23 22 -279 22 -310c0 -33 -20 -41 -44 -44zM791 790c0 102 -37 173 -160 173c-93 0 -183 -22 -227 -86c-40 -59 -56 -156 -60 -276c173 2 363 18 410 60c34 30 37 70 37 129zM202 1368l318 377
c10 11 24 23 42 25l101 10c16 0 32 -11 47 -30l298 -381c3 -4 5 -10 5 -15c0 -7 -3 -14 -8 -19l-67 -68c-4 -4 -9 -6 -14 -6c-4 0 -7 1 -10 4l-310 280l-299 -277c-5 -4 -10 -6 -14 -6c-6 0 -11 3 -16 8l-70 72c-5 5 -8 10 -8 15c0 3 1 7 5 11z" />
    <glyph glyph-name="edieresis" unicode="&#xeb;" horiz-adv-x="1196" 
d="M1031 -69l-166 -20c-16 0 -22 6 -22 22l4 73c-84 -20 -212 -32 -325 -32c-264 0 -387 154 -387 533c0 166 16 325 81 439c82 143 220 207 450 207c247 0 353 -120 353 -369c0 -122 -29 -178 -74 -228c-82 -91 -366 -102 -598 -102c19 -244 112 -278 267 -278
c40 0 168 9 245 21l3 52c1 16 6 19 22 23l144 32c14 0 23 -2 25 -19c3 -23 22 -279 22 -310c0 -33 -20 -41 -44 -44zM791 790c0 102 -37 173 -160 173c-93 0 -183 -22 -227 -86c-40 -59 -56 -156 -60 -276c173 2 363 18 410 60c34 30 37 70 37 129zM347 1337
c-91 0 -122 29 -122 126c0 114 28 137 166 137c91 0 123 -22 123 -120c0 -124 -32 -142 -167 -143zM818 1337c-91 0 -122 29 -122 126c0 114 28 137 166 137c91 0 123 -22 123 -120c0 -124 -32 -142 -167 -143z" />
    <glyph glyph-name="egrave" unicode="&#xe8;" horiz-adv-x="1196" 
d="M1031 -69l-166 -20c-16 0 -22 6 -22 22l4 73c-84 -20 -212 -32 -325 -32c-264 0 -387 154 -387 533c0 166 16 325 81 439c82 143 220 207 450 207c247 0 353 -120 353 -369c0 -122 -29 -178 -74 -228c-82 -91 -366 -102 -598 -102c19 -244 112 -278 267 -278
c40 0 168 9 245 21l3 52c1 16 6 19 22 23l144 32c14 0 23 -2 25 -19c3 -23 22 -279 22 -310c0 -33 -20 -41 -44 -44zM791 790c0 102 -37 173 -160 173c-93 0 -183 -22 -227 -86c-40 -59 -56 -156 -60 -276c173 2 363 18 410 60c34 30 37 70 37 129zM276 1649l133 150
c6 7 14 11 21 11c8 0 16 -4 22 -11l383 -420c3 -4 5 -9 5 -14c0 -7 -3 -14 -8 -20l-67 -68c-3 -3 -8 -6 -13 -6c-4 0 -8 1 -11 4l-462 340c-6 5 -8 12 -8 19c0 5 2 11 5 15z" />
    <glyph glyph-name="iacute" unicode="&#xed;" horiz-adv-x="683" 
d="M625 161l-18 -131c-2 -16 -7 -19 -24 -20l-433 -24c-12 0 -14 8 -14 24v151c0 14 4 19 16 19h120l8 699l-162 17c-14 1 -18 6 -18 22l22 165c2 14 8 19 24 21l321 33c14 0 17 -7 18 -23l13 -182l-3 -752h114c12 0 16 -10 16 -19zM549 1799l133 -150c3 -4 5 -10 5 -15
c0 -7 -2 -14 -8 -19l-462 -340c-3 -2 -7 -4 -11 -4c-5 0 -9 2 -13 6l-67 68c-5 6 -8 13 -8 20c0 5 2 10 5 14l383 420c6 7 14 11 22 11c7 0 15 -4 21 -11z" />
    <glyph glyph-name="icircumflex" unicode="&#xee;" horiz-adv-x="683" 
d="M625 161l-18 -131c-2 -16 -7 -19 -24 -20l-433 -24c-12 0 -14 8 -14 24v151c0 14 4 19 16 19h120l8 699l-162 17c-14 1 -18 6 -18 22l22 165c2 14 8 19 24 21l321 33c14 0 17 -7 18 -23l13 -182l-3 -752h114c12 0 16 -10 16 -19zM-41 1368l318 377c10 11 24 23 42 25
l101 10c16 0 32 -11 47 -30l298 -381c3 -4 5 -10 5 -15c0 -7 -3 -14 -8 -19l-67 -68c-4 -4 -9 -6 -14 -6c-4 0 -7 1 -10 4l-310 280l-299 -277c-5 -4 -10 -6 -14 -6c-6 0 -11 3 -16 8l-70 72c-5 5 -8 10 -8 15c0 3 1 7 5 11z" />
    <glyph glyph-name="idieresis" unicode="&#xef;" horiz-adv-x="683" 
d="M625 161l-18 -131c-2 -16 -7 -19 -24 -20l-433 -24c-12 0 -14 8 -14 24v151c0 14 4 19 16 19h120l8 699l-162 17c-14 1 -18 6 -18 22l22 165c2 14 8 19 24 21l321 33c14 0 17 -7 18 -23l13 -182l-3 -752h114c12 0 16 -10 16 -19zM104 1337c-91 0 -122 29 -122 126
c0 114 28 137 166 137c91 0 123 -22 123 -120c0 -124 -32 -142 -167 -143zM575 1337c-91 0 -122 29 -122 126c0 114 28 137 166 137c91 0 123 -22 123 -120c0 -124 -32 -142 -167 -143z" />
    <glyph glyph-name="igrave" unicode="&#xec;" horiz-adv-x="683" 
d="M625 161l-18 -131c-2 -16 -7 -19 -24 -20l-433 -24c-12 0 -14 8 -14 24v151c0 14 4 19 16 19h120l8 699l-162 17c-14 1 -18 6 -18 22l22 165c2 14 8 19 24 21l321 33c14 0 17 -7 18 -23l13 -182l-3 -752h114c12 0 16 -10 16 -19zM33 1649l133 150c6 7 14 11 21 11
c8 0 16 -4 22 -11l383 -420c3 -4 5 -9 5 -14c0 -7 -3 -14 -8 -20l-67 -68c-3 -3 -8 -6 -13 -6c-4 0 -8 1 -11 4l-462 340c-6 5 -8 12 -8 19c0 5 2 11 5 15z" />
    <glyph glyph-name="ntilde" unicode="&#xf1;" horiz-adv-x="1370" 
d="M120 905l18 173c1 9 8 19 24 21l277 41c14 0 18 -7 18 -23v-173c104 105 255 206 405 206c214 0 286 -130 286 -384c0 -120 -11 -408 -18 -580l115 5c13 0 21 -6 21 -24v-147c0 -16 -7 -19 -23 -20l-290 -22c-11 0 -22 8 -22 22c5 170 5 593 5 688
c0 159 -22 215 -144 215c-99 0 -194 -43 -290 -104l12 -599l109 12c12 0 17 -5 17 -17l-19 -155c-2 -16 -7 -22 -22 -22h-417c-13 0 -16 10 -16 24l20 153c2 15 6 21 22 21h85v661l-153 4c-14 0 -20 8 -20 24zM328 1371l-32 91c0 9 5 14 13 22c66 71 166 148 240 148
c40 0 88 -29 136 -58c46 -27 92 -54 131 -54c68 0 141 44 181 68c13 8 23 13 28 13c10 0 15 -6 20 -19l33 -78c2 -5 2 -8 2 -11c0 -9 -5 -15 -12 -22c-59 -65 -158 -161 -250 -161c-46 0 -95 27 -143 54s-95 54 -139 54c-30 0 -75 -18 -116 -39c-31 -16 -59 -28 -68 -28
c-15 0 -19 4 -24 20z" />
    <glyph glyph-name="oacute" unicode="&#xf3;" horiz-adv-x="1194" 
d="M123 561c0 458 152 590 452 590c297 0 495 -91 495 -594c0 -442 -153 -577 -457 -577c-309 0 -490 125 -490 581zM864 551c0 367 -139 384 -287 384c-175 0 -250 -45 -250 -369c0 -332 123 -382 295 -382c163 0 242 57 242 367zM783 1799l133 -150c3 -4 5 -10 5 -15
c0 -7 -2 -14 -8 -19l-462 -340c-3 -2 -7 -4 -11 -4c-5 0 -9 2 -13 6l-67 68c-5 6 -8 13 -8 20c0 5 2 10 5 14l383 420c6 7 14 11 22 11c7 0 15 -4 21 -11z" />
    <glyph glyph-name="ocircumflex" unicode="&#xf4;" horiz-adv-x="1194" 
d="M123 561c0 458 152 590 452 590c297 0 495 -91 495 -594c0 -442 -153 -577 -457 -577c-309 0 -490 125 -490 581zM864 551c0 367 -139 384 -287 384c-175 0 -250 -45 -250 -369c0 -332 123 -382 295 -382c163 0 242 57 242 367zM193 1368l318 377c10 11 24 23 42 25
l101 10c16 0 32 -11 47 -30l298 -381c3 -4 5 -10 5 -15c0 -7 -3 -14 -8 -19l-67 -68c-4 -4 -9 -6 -14 -6c-4 0 -7 1 -10 4l-310 280l-299 -277c-5 -4 -10 -6 -14 -6c-6 0 -11 3 -16 8l-70 72c-5 5 -8 10 -8 15c0 3 1 7 5 11z" />
    <glyph glyph-name="odieresis" unicode="&#xf6;" horiz-adv-x="1194" 
d="M123 561c0 458 152 590 452 590c297 0 495 -91 495 -594c0 -442 -153 -577 -457 -577c-309 0 -490 125 -490 581zM864 551c0 367 -139 384 -287 384c-175 0 -250 -45 -250 -369c0 -332 123 -382 295 -382c163 0 242 57 242 367zM338 1337c-91 0 -122 29 -122 126
c0 114 28 137 166 137c91 0 123 -22 123 -120c0 -124 -32 -142 -167 -143zM809 1337c-91 0 -122 29 -122 126c0 114 28 137 166 137c91 0 123 -22 123 -120c0 -124 -32 -142 -167 -143z" />
    <glyph glyph-name="ograve" unicode="&#xf2;" horiz-adv-x="1194" 
d="M123 561c0 458 152 590 452 590c297 0 495 -91 495 -594c0 -442 -153 -577 -457 -577c-309 0 -490 125 -490 581zM864 551c0 367 -139 384 -287 384c-175 0 -250 -45 -250 -369c0 -332 123 -382 295 -382c163 0 242 57 242 367zM267 1649l133 150c6 7 14 11 21 11
c8 0 16 -4 22 -11l383 -420c3 -4 5 -9 5 -14c0 -7 -3 -14 -8 -20l-67 -68c-3 -3 -8 -6 -13 -6c-4 0 -8 1 -11 4l-462 340c-6 5 -8 12 -8 19c0 5 2 11 5 15z" />
    <glyph glyph-name="otilde" unicode="&#xf5;" horiz-adv-x="1194" 
d="M123 561c0 458 152 590 452 590c297 0 495 -91 495 -594c0 -442 -153 -577 -457 -577c-309 0 -490 125 -490 581zM864 551c0 367 -139 384 -287 384c-175 0 -250 -45 -250 -369c0 -332 123 -382 295 -382c163 0 242 57 242 367zM236 1371l-32 91c0 9 5 14 13 22
c66 71 166 148 240 148c40 0 88 -29 136 -58c46 -27 92 -54 131 -54c68 0 141 44 181 68c13 8 23 13 28 13c10 0 15 -6 20 -19l33 -78c2 -5 2 -8 2 -11c0 -9 -5 -15 -12 -22c-59 -65 -158 -161 -250 -161c-46 0 -95 27 -143 54s-95 54 -139 54c-30 0 -75 -18 -116 -39
c-31 -16 -59 -28 -68 -28c-15 0 -19 4 -24 20z" />
    <glyph glyph-name="scaron" unicode="&#x161;" horiz-adv-x="1024" 
d="M129 261l156 28c10 0 18 -7 21 -23l12 -66c84 -13 174 -23 253 -23c106 0 172 58 172 144c0 84 -53 105 -227 132c-308 48 -429 110 -429 355c0 199 127 343 370 343c87 0 175 -35 242 -70l-19 79c0 15 5 25 21 26l198 16c12 0 16 -8 16 -23l-22 -305
c-1 -15 -7 -21 -20 -21c-196 67 -312 92 -381 92c-82 0 -179 -22 -179 -118c0 -85 35 -133 188 -158c350 -56 466 -105 466 -329c0 -227 -137 -349 -354 -349c-86 0 -177 12 -260 28l17 -83c0 -12 -8 -17 -23 -18l-172 -15c-24 0 -40 15 -42 39l-28 297c0 16 8 19 24 22z
M937 1673l-318 -377c-10 -11 -24 -23 -42 -25l-101 -10c-16 0 -32 11 -47 30l-298 381c-3 4 -5 10 -5 15c0 7 3 14 8 19l67 68c4 4 9 6 14 6c4 0 7 -1 10 -4l310 -280l299 277c4 4 8 6 13 6c6 0 12 -3 17 -8l70 -72c4 -4 7 -9 7 -15c0 -4 -1 -7 -4 -11z" />
    <glyph glyph-name="uacute" unicode="&#xfa;" horiz-adv-x="1195" 
d="M1176 213l-18 -183c-1 -15 -8 -21 -24 -21h-247c-25 0 -35 12 -41 38l-24 101c-104 -89 -228 -142 -376 -142c-178 0 -295 97 -295 377c0 119 18 347 35 518l-128 -4c-14 0 -21 6 -21 24l20 177c2 16 7 19 23 20l318 -8c11 0 14 -8 14 -22c-19 -190 -52 -556 -52 -668
c0 -136 51 -198 171 -198c90 0 184 43 278 102v575l-125 7c-12 1 -15 5 -17 17l19 165c2 16 7 22 22 22l288 -10c13 0 16 -10 16 -24l10 -844l134 5c14 -1 20 -8 20 -24zM773 1799l133 -150c3 -4 5 -10 5 -15c0 -7 -2 -14 -8 -19l-462 -340c-3 -2 -7 -4 -11 -4
c-5 0 -9 2 -13 6l-67 68c-5 6 -8 13 -8 20c0 5 2 10 5 14l383 420c6 7 14 11 22 11c7 0 15 -4 21 -11z" />
    <glyph glyph-name="ucircumflex" unicode="&#xfb;" horiz-adv-x="1195" 
d="M1176 213l-18 -183c-1 -15 -8 -21 -24 -21h-247c-25 0 -35 12 -41 38l-24 101c-104 -89 -228 -142 -376 -142c-178 0 -295 97 -295 377c0 119 18 347 35 518l-128 -4c-14 0 -21 6 -21 24l20 177c2 16 7 19 23 20l318 -8c11 0 14 -8 14 -22c-19 -190 -52 -556 -52 -668
c0 -136 51 -198 171 -198c90 0 184 43 278 102v575l-125 7c-12 1 -15 5 -17 17l19 165c2 16 7 22 22 22l288 -10c13 0 16 -10 16 -24l10 -844l134 5c14 -1 20 -8 20 -24zM183 1368l318 377c10 11 24 23 42 25l101 10c16 0 32 -11 47 -30l298 -381c3 -4 5 -10 5 -15
c0 -7 -3 -14 -8 -19l-67 -68c-4 -4 -9 -6 -14 -6c-4 0 -7 1 -10 4l-310 280l-299 -277c-5 -4 -10 -6 -14 -6c-6 0 -11 3 -16 8l-70 72c-5 5 -8 10 -8 15c0 3 1 7 5 11z" />
    <glyph glyph-name="udieresis" unicode="&#xfc;" horiz-adv-x="1195" 
d="M1176 213l-18 -183c-1 -15 -8 -21 -24 -21h-247c-25 0 -35 12 -41 38l-24 101c-104 -89 -228 -142 -376 -142c-178 0 -295 97 -295 377c0 119 18 347 35 518l-128 -4c-14 0 -21 6 -21 24l20 177c2 16 7 19 23 20l318 -8c11 0 14 -8 14 -22c-19 -190 -52 -556 -52 -668
c0 -136 51 -198 171 -198c90 0 184 43 278 102v575l-125 7c-12 1 -15 5 -17 17l19 165c2 16 7 22 22 22l288 -10c13 0 16 -10 16 -24l10 -844l134 5c14 -1 20 -8 20 -24zM328 1337c-91 0 -122 29 -122 126c0 114 28 137 166 137c91 0 123 -22 123 -120
c0 -124 -32 -142 -167 -143zM799 1337c-91 0 -122 29 -122 126c0 114 28 137 166 137c91 0 123 -22 123 -120c0 -124 -32 -142 -167 -143z" />
    <glyph glyph-name="ugrave" unicode="&#xf9;" horiz-adv-x="1195" 
d="M1176 213l-18 -183c-1 -15 -8 -21 -24 -21h-247c-25 0 -35 12 -41 38l-24 101c-104 -89 -228 -142 -376 -142c-178 0 -295 97 -295 377c0 119 18 347 35 518l-128 -4c-14 0 -21 6 -21 24l20 177c2 16 7 19 23 20l318 -8c11 0 14 -8 14 -22c-19 -190 -52 -556 -52 -668
c0 -136 51 -198 171 -198c90 0 184 43 278 102v575l-125 7c-12 1 -15 5 -17 17l19 165c2 16 7 22 22 22l288 -10c13 0 16 -10 16 -24l10 -844l134 5c14 -1 20 -8 20 -24zM257 1649l133 150c6 7 14 11 21 11c8 0 16 -4 22 -11l383 -420c3 -4 5 -9 5 -14c0 -7 -3 -14 -8 -20
l-67 -68c-3 -3 -8 -6 -13 -6c-4 0 -8 1 -11 4l-462 340c-6 5 -8 12 -8 19c0 5 2 11 5 15z" />
    <glyph glyph-name="yacute" unicode="&#xfd;" horiz-adv-x="1197" 
d="M347 -366l219 419l-86 -3c-14 0 -17 7 -22 18l-336 841l-95 -2c-14 0 -21 6 -21 24l10 169c0 16 7 20 23 20l454 10c12 0 18 -8 18 -22l5 -170c-2 -17 -6 -21 -22 -21l-131 -3l260 -735l236 740l-137 -13c-12 0 -16 5 -17 17l9 185c1 15 7 22 22 22l437 10
c11 -1 16 -10 16 -24l-10 -173c-1 -15 -6 -21 -22 -21l-88 8l-482 -1360c-5 -15 -12 -24 -24 -24l-198 54c-14 2 -22 8 -22 20c0 4 1 9 4 14zM813 1799l133 -150c3 -4 5 -10 5 -15c0 -7 -2 -14 -8 -19l-462 -340c-3 -2 -7 -4 -11 -4c-5 0 -9 2 -13 6l-67 68
c-5 6 -8 13 -8 20c0 5 2 10 5 14l383 420c6 7 14 11 22 11c7 0 15 -4 21 -11z" />
    <glyph glyph-name="ydieresis" unicode="&#xff;" horiz-adv-x="1197" 
d="M347 -366l219 419l-86 -3c-14 0 -17 7 -22 18l-336 841l-95 -2c-14 0 -21 6 -21 24l10 169c0 16 7 20 23 20l454 10c12 0 18 -8 18 -22l5 -170c-2 -17 -6 -21 -22 -21l-131 -3l260 -735l236 740l-137 -13c-12 0 -16 5 -17 17l9 185c1 15 7 22 22 22l437 10
c11 -1 16 -10 16 -24l-10 -173c-1 -15 -6 -21 -22 -21l-88 8l-482 -1360c-5 -15 -12 -24 -24 -24l-198 54c-14 2 -22 8 -22 20c0 4 1 9 4 14zM368 1337c-91 0 -122 29 -122 126c0 114 28 137 166 137c91 0 123 -22 123 -120c0 -124 -32 -142 -167 -143zM839 1337
c-91 0 -122 29 -122 126c0 114 28 137 166 137c91 0 123 -22 123 -120c0 -124 -32 -142 -167 -143z" />
    <glyph glyph-name="zcaron" unicode="&#x17e;" horiz-adv-x="1196" 
d="M307 758l-147 17c-15 2 -19 7 -20 22l13 339c1 19 5 25 22 27l177 -23l20 -26l605 28c29 1 34 -21 38 -47l26 -178l-636 -728l471 24l-4 93c1 15 5 25 21 26l178 -14c12 -1 16 -8 16 -23l-12 -335c-1 -15 -7 -21 -20 -21l-144 8c-17 1 -23 11 -24 28l-2 41l-661 -13
c-37 2 -56 16 -60 53l-16 145l662 749l-458 2l-21 -172c-2 -15 -11 -22 -24 -22zM1037 1673l-318 -377c-10 -11 -24 -23 -42 -25l-101 -10c-16 0 -32 11 -47 30l-298 381c-3 4 -5 10 -5 15c0 7 3 14 8 19l67 68c4 4 9 6 14 6c4 0 7 -1 10 -4l310 -280l299 277c4 4 8 6 13 6
c6 0 12 -3 17 -8l70 -72c4 -4 7 -9 7 -15c0 -4 -1 -7 -4 -11z" />
    <glyph glyph-name="ff" unicode="&#xfb00;" horiz-adv-x="1708" 
d="M703 1676h157c13 0 19 -8 21 -23l-16 -295c-1 -13 -4 -20 -15 -20l-148 -4c-17 1 -25 7 -26 23l3 106c-25 3 -50 4 -76 4c-106 0 -160 -54 -160 -210c0 -45 1 -104 2 -159l295 4c18 -1 21 -8 22 -24l-10 -153c-1 -15 -6 -20 -22 -21l-272 7v-705l184 4
c12 0 16 -10 16 -19l-18 -171c-2 -16 -7 -19 -24 -20l-483 6c-12 0 -14 8 -14 24l10 151c1 14 4 19 16 19l100 2l9 707l-176 -11c-13 1 -18 5 -20 17l-21 155c0 11 7 22 22 22l189 3c-7 77 -9 130 -9 214c0 219 136 325 362 325c30 0 57 -1 82 -2l1 27c0 10 6 17 19 17z
M1557 1676h157c13 0 19 -8 21 -23l-16 -295c-1 -13 -4 -20 -15 -20l-148 -4c-17 1 -25 7 -26 23l3 106c-25 3 -50 4 -76 4c-106 0 -160 -54 -160 -210c0 -45 1 -104 2 -159l295 4c18 -1 21 -8 22 -24l-10 -153c-1 -15 -6 -20 -22 -21l-272 7v-705l184 4c12 0 16 -10 16 -19
l-18 -171c-2 -16 -7 -19 -24 -20l-483 6c-12 0 -14 8 -14 24l10 151c1 14 4 19 16 19l100 2l9 707l-176 -11c-13 1 -18 5 -20 17l-21 155c0 11 7 22 22 22l189 3c-7 77 -9 130 -9 214c0 219 136 325 362 325c30 0 57 -1 82 -2l1 27c0 10 6 17 19 17z" />
    <glyph glyph-name="eng" unicode="&#x14b;" horiz-adv-x="1370" 
d="M640 195l-19 -155c-2 -16 -7 -22 -22 -22h-417c-13 0 -16 10 -16 24l20 153c2 15 6 21 22 21h85v661l-153 4c-14 0 -20 8 -20 24l18 173c1 14 8 19 24 21l277 41c14 0 18 -7 18 -23v-174c106 106 274 207 425 207c214 0 316 -130 316 -384c0 -269 -19 -383 -19 -736
c0 -291 -77 -478 -382 -478c-14 0 -21 6 -23 23l-30 164c0 15 6 20 23 20c119 0 190 48 198 166c17 247 21 668 21 763c0 159 -52 215 -174 215c-99 0 -209 -44 -309 -105l11 -598l109 12c12 0 17 -5 17 -17z" />
    <glyph glyph-name="Eng" unicode="&#x14a;" horiz-adv-x="1536" 
d="M747 -128l139 14c10 0 21 -7 21 -23l1 -148c8 -1 16 -1 25 -1c122 0 183 68 195 287l-698 1323l23 -1094l153 10c12 0 19 -10 20 -19l17 -198c-1 -16 -7 -20 -24 -20l-484 3c-12 0 -16 8 -18 24l-18 167c1 13 4 19 16 19l157 4v1081l-183 -8c-14 1 -16 6 -18 22l11 176
c1 16 8 20 24 21l440 22c22 -1 30 -14 37 -28l563 -1109l-22 914l-155 5c-14 0 -17 6 -18 22l6 166c1 16 8 21 24 21l447 2c14 -1 17 -6 18 -23l13 -179c0 -18 -9 -22 -23 -22l-127 3l-2 -1276c0 -294 -75 -489 -348 -489c-16 0 -33 1 -49 2l1 -40c0 -12 -8 -17 -23 -18
l-153 -15c-26 0 -42 15 -42 39l32 337c2 16 6 24 22 26z" />
    <glyph glyph-name="kgreenlandic" unicode="&#x138;" horiz-adv-x="1195" 
d="M52 978l16 130c2 14 8 25 24 27l297 42c14 0 19 -8 22 -24c6 -29 18 -113 19 -176l-12 -324l140 -6l245 309l-129 -9c-12 0 -16 10 -16 19l18 171c2 16 7 19 24 20l428 -16c12 0 18 -8 19 -24l10 -151c0 -14 -4 -19 -16 -19l-112 10l-322 -377l272 -394l191 15
c14 0 21 -6 21 -24l-10 -147c-1 -16 -7 -19 -23 -20l-295 -22c-13 0 -20 11 -27 22l-284 468h-140l-12 -304l111 6c12 0 16 -10 16 -19l-8 -151c-1 -16 -7 -19 -24 -20l-413 6c-12 0 -14 8 -14 24l10 131c1 14 4 19 16 19h111l16 766l-151 20c-14 2 -18 6 -18 22z" />
    <glyph glyph-name="Ldot" unicode="&#x13f;" horiz-adv-x="1196" 
d="M1127 -19l-158 -24c-10 0 -19 7 -21 23l-5 48l-843 -35c-12 0 -17 8 -18 24l16 174c1 13 4 17 16 19l138 -6l9 1100l-136 -13c-14 0 -17 6 -18 22l-9 180c1 16 8 23 24 23l485 8c14 -1 20 -6 22 -23l19 -176c0 -18 -10 -21 -23 -22l-146 5l-3 -1099l446 23l-18 175
c0 12 8 20 23 21l162 15c24 0 41 -15 42 -39l18 -397c-1 -16 -6 -24 -22 -26zM1155 830c0 -73 -102 -113 -206 -113c-81 0 -110 105 -110 174c0 91 133 112 210 112c80 0 106 -106 106 -173z" />
    <glyph glyph-name="Euro" unicode="&#x20ac;" horiz-adv-x="1364" 
d="M812 618l8 -131c0 -9 -4 -18 -16 -19l-323 4c17 -218 75 -312 268 -312c63 0 161 11 258 32l9 178c1 16 7 19 24 22l176 8c10 0 18 -7 21 -23l-10 -392c0 -12 -9 -18 -23 -18l-186 44c-91 -37 -196 -55 -317 -55c-296 0 -400 192 -431 515l-163 -3c-12 0 -16 5 -16 19
v121c0 16 2 24 14 24l155 -1c-2 47 -2 97 -2 148v40l-105 -7c-17 1 -23 4 -24 20l-8 131c0 9 4 18 16 19h130c38 378 193 554 483 554c121 0 239 -27 330 -60l3 52c1 14 7 21 20 22l145 -10c24 -2 41 -15 42 -39l-22 -446c-1 -16 -9 -24 -22 -26l-168 16c-14 1 -19 7 -21 23
l13 242c-104 17 -190 27 -266 27c-207 0 -295 -99 -321 -355h361c12 0 16 -5 16 -19v-121c0 -16 -2 -24 -14 -24l-372 10v-62v-135l314 7c17 -1 23 -4 24 -20z" />
    <glyph glyph-name="hbar" unicode="&#x127;" horiz-adv-x="1370" 
d="M115 1426v153c0 14 8 19 24 20l339 14c12 0 22 -8 23 -24l-10 -225l223 44c16 0 25 -3 26 -19l7 -130c0 -9 -3 -18 -15 -20l-248 -36l-7 -168c99 63 230 117 360 117c238 0 298 -181 298 -441c0 -140 -11 -361 -21 -507l120 6c14 -1 21 -5 21 -21v-147
c0 -16 -7 -20 -23 -20l-430 -10c-13 0 -16 10 -16 24l22 135c3 17 7 20 22 21l84 3c2 161 3 411 3 509c0 132 -39 222 -159 222c-79 0 -193 -34 -271 -77l-4 -659l121 -12c12 -1 16 -10 16 -18l-18 -129c-3 -17 -8 -21 -23 -21l-422 -7c-13 0 -15 10 -15 24l19 176
c2 15 6 19 23 19l76 -8v832l6 119l-169 -34c-12 0 -17 3 -18 18l-8 139c0 10 2 16 12 17l192 24l5 84l-143 -11c-16 0 -22 7 -22 24z" />
    <glyph glyph-name="Tbar" unicode="&#x166;" 
d="M1232 1038l-171 8c-16 2 -19 7 -20 24l3 247l-258 -4l8 -528l221 22c15 0 22 -8 22 -24v-151c0 -14 -7 -19 -19 -19l-221 -3l6 -385l193 11c12 -2 16 -6 16 -19l2 -177c-1 -16 -6 -24 -18 -24l-594 -13c-17 0 -23 4 -24 20l7 198c0 9 4 19 16 19l178 -11l-6 377l-227 -3
c-12 0 -17 7 -18 19l8 151c1 15 10 20 25 20l209 -12l-9 526l-252 -14l1 -212c-1 -14 -8 -19 -24 -20l-173 -12c-9 1 -19 8 -21 24l9 469c0 14 7 18 23 18l164 -20c15 0 20 -6 20 -23v-26l767 8l184 20c14 0 22 -7 22 -22l-30 -443c-1 -12 -10 -16 -19 -16z" />
    <glyph glyph-name="Hbar" unicode="&#x126;" horiz-adv-x="1538" 
d="M680 221l-13 -188c-1 -16 -7 -20 -24 -20l-464 -7c-12 0 -17 8 -18 24l2 177c0 13 4 17 16 19l107 -3v787l-183 -9c-15 1 -21 5 -21 20l12 131c1 12 6 18 18 19l174 -8v141l-133 -1c-14 0 -17 6 -18 22l-9 176c1 16 8 19 24 21l499 -8c14 -1 18 -6 18 -23l-4 -176
c0 -18 -9 -22 -23 -22l-131 7l-1 -142l542 -4v168l-137 4c-14 0 -17 6 -18 22l6 166c1 16 8 21 24 21l467 2c14 -1 17 -6 18 -23l13 -179c0 -18 -9 -22 -23 -22l-127 3l-1 -160l165 5c12 0 15 -5 16 -19l10 -121c-2 -16 -7 -24 -22 -24l-169 10l-2 -802l154 5
c12 0 16 -10 16 -19l-13 -178c-1 -16 -7 -20 -24 -20l-474 13c-12 0 -17 8 -18 24l2 167c0 13 4 17 16 19l121 -9v456l-543 -4l-1 -430l158 11c12 0 16 -10 16 -19zM508 858l542 7v151l-542 3v-161z" />
    <glyph glyph-name="tbar" unicode="&#x167;" horiz-adv-x="1024" 
d="M72 975l-1 115c0 11 7 22 22 22l140 3c6 140 12 252 16 293c2 19 5 25 22 27l186 22c17 0 21 -7 21 -22c0 -18 -12 -162 -26 -314l392 11c18 0 22 -10 22 -24v-163c0 -15 -6 -20 -22 -21l-405 17c-5 -65 -9 -134 -12 -207l348 18c13 -1 20 -8 20 -24l-10 -141
c-1 -14 -4 -19 -21 -19l-341 -5c-1 -40 -1 -81 -1 -122c0 -219 33 -260 180 -260c21 0 41 1 58 2c-2 30 -3 53 -3 56c0 10 6 15 19 17l167 20c13 0 21 -8 21 -23c1 -32 4 -225 4 -254c0 -13 -4 -18 -15 -20l-148 -24c-15 1 -24 3 -26 19l-4 32c-42 -2 -88 -3 -155 -3
c-213 0 -310 98 -310 347c0 53 1 126 3 210l-121 -2c-12 0 -16 10 -16 19l8 151c1 16 7 19 24 20l110 -9c2 66 4 133 7 199l-133 10c-15 1 -20 10 -20 27z" />
    <glyph glyph-name="Dcroat" unicode="&#x110;" 
d="M101 6c-12 1 -17 8 -18 24l12 177c1 13 4 17 16 19l109 -8l9 384l-114 -6c-17 1 -24 4 -24 19l-2 131c0 9 4 20 16 20l128 2l13 545c-45 -3 -91 -7 -141 -12c-14 0 -17 6 -18 22l-14 186c1 16 8 19 24 21c396 10 469 10 553 10c369 0 609 -165 609 -754
c0 -542 -247 -805 -614 -805c-201 0 -387 9 -544 25zM646 1336c-31 0 -94 -2 -181 -7l-6 -558l27 1l306 22c12 0 16 -4 16 -18l3 -137c0 -12 -3 -19 -13 -19l-331 -6l-10 -1l-4 -408c76 -5 118 -6 186 -6c271 0 394 189 394 562c0 447 -141 575 -387 575z" />
    <glyph glyph-name="dcroat" unicode="&#x111;" horiz-adv-x="1194" 
d="M671 1619l343 -19c14 -1 18 -7 18 -23v-228l136 -1c11 0 16 -9 16 -21l-19 -120c-3 -15 -8 -18 -25 -18l-108 12v-1028l105 11c14 0 20 -7 20 -19l-18 -155c-2 -13 -7 -17 -23 -20l-248 -40c-13 0 -19 6 -19 22l8 99c-46 -19 -172 -69 -311 -69c-324 0 -424 190 -424 584
c0 408 132 567 410 567c108 0 206 -17 307 -56l-5 118l-234 -6c-10 1 -12 6 -12 17l10 108c2 14 5 18 17 18l213 -2l-2 62l-168 3c-16 0 -20 7 -20 24l10 160c1 15 6 20 23 20zM338 575c0 -273 46 -367 237 -367c83 0 163 14 249 39l21 647c-75 19 -159 35 -258 35
c-177 0 -249 -61 -249 -354z" />
    <glyph glyph-name="pi" unicode="&#x3c0;" horiz-adv-x="1194" 
d="M86 928l12 175c1 13 8 21 24 21l916 19c14 0 26 -4 27 -23l-7 -168c-1 -16 -7 -22 -21 -23l-145 7c-7 -297 -9 -512 -9 -595c0 -129 8 -150 85 -150c20 0 44 4 67 11c31 9 50 13 59 13c14 0 23 -4 27 -23l27 -128c0 -11 -8 -17 -21 -23c-65 -30 -155 -48 -240 -48
c-168 0 -206 40 -206 220c0 188 15 546 25 728h-242l7 -917c0 -16 -7 -20 -24 -20l-180 -4c-12 0 -20 8 -20 24l18 898l-161 -16c-14 0 -18 6 -18 22z" />
    <glyph glyph-name="dotlessj" unicode="&#x237;" horiz-adv-x="682" 
d="M101 908l-15 181c1 18 9 25 25 26l364 22c14 -1 19 -8 21 -23l-7 -189c10 -198 27 -607 27 -895c0 -313 -62 -478 -402 -478c-14 0 -20 6 -23 23l-30 164c0 15 6 20 23 20c133 0 218 48 218 166c0 275 -5 705 -9 969l-174 -8c-13 1 -17 6 -18 22z" />
    <glyph glyph-name="ring.cap" horiz-adv-x="900" 
d="M451 1515c-189 0 -281 85 -281 241c0 153 74 264 284 264c197 0 276 -85 276 -244c0 -161 -77 -261 -279 -261zM456 1884c-105 0 -123 -61 -123 -117c0 -64 26 -111 117 -111c89 0 123 56 123 122c0 61 -30 106 -117 106z" />
    <glyph glyph-name="commaaccent" horiz-adv-x="900" 
d="M465 -527c-5 -7 -12 -13 -22 -13l-95 36c-8 3 -14 7 -14 14c0 3 1 7 3 11c19 41 46 106 46 138c0 22 -17 37 -35 50c-19 14 -36 27 -36 47c0 67 83 143 148 143c96 0 128 -73 128 -146c0 -105 -65 -199 -123 -280z" />
    <glyph glyph-name="macron.cap" horiz-adv-x="900" 
d="M792 1952l-18 -171c-2 -16 -7 -20 -24 -20l-624 6c-12 0 -19 8 -19 24l10 151c1 14 8 19 20 19l639 10c12 -1 16 -10 16 -19z" />
    <glyph glyph-name="dotaccent.cap" horiz-adv-x="900" 
d="M421 1725c-85 0 -116 35 -116 126c0 114 28 137 166 137c88 0 123 -25 123 -120c0 -125 -37 -143 -173 -143z" />
    <glyph glyph-name="breve.cap" horiz-adv-x="900" 
d="M828 1983c0 -180 -131 -345 -363 -345c-223 0 -394 127 -394 346c0 15 9 23 24 23l143 13c15 0 20 -8 21 -24c7 -106 93 -175 199 -175c108 0 163 63 182 165c3 16 6 24 21 24l143 -4c14 0 24 -8 24 -23z" />
    <glyph glyph-name="hungarumlaut.cap" horiz-adv-x="900" 
d="M734 2010l153 -90c5 -3 7 -8 7 -14c0 -7 -4 -15 -9 -20l-276 -269c-3 -3 -7 -4 -11 -4c-5 0 -11 2 -15 4l-88 47c-6 3 -9 10 -9 18c0 6 2 12 5 16l200 311c5 8 11 10 18 10c8 0 17 -4 25 -9zM245 2011l146 -98c5 -3 8 -7 8 -13c0 -7 -4 -14 -10 -21l-256 -258
c-4 -4 -9 -5 -14 -5s-9 1 -13 3l-91 47c-6 3 -9 10 -9 17c0 6 2 12 5 17l189 309c6 10 13 11 21 11c7 0 16 -4 24 -9z" />
    <glyph glyph-name="acute.cap" horiz-adv-x="900" 
d="M665 2006l70 -164c3 -6 4 -12 4 -17c0 -9 -5 -16 -15 -20l-494 -207c-5 -2 -9 -3 -13 -3c-6 0 -10 3 -13 10l-39 92c-2 5 -4 10 -4 14c0 5 2 9 9 13l453 290c8 4 15 6 22 6c8 0 16 -4 20 -14z" />
    <glyph glyph-name="grave.cap" horiz-adv-x="900" 
d="M145 1842l70 164c4 10 12 14 20 14c7 0 14 -2 22 -6l492 -276c7 -4 9 -8 9 -13c0 -4 -2 -9 -4 -14l-39 -92c-3 -7 -7 -10 -13 -10c-4 0 -8 1 -13 3l-533 193c-10 4 -15 11 -15 20c0 5 1 11 4 17z" />
    <glyph glyph-name="caron.cap" horiz-adv-x="900" 
d="M854 1913l-306 -270c-17 -15 -29 -24 -42 -25l-98 -9c-15 0 -27 9 -46 25l-314 278c-5 5 -7 10 -7 15c0 4 2 9 6 14l61 73c3 4 8 6 12 6s8 -2 12 -4l331 -184l298 181c5 3 11 6 16 6s10 -3 14 -8l60 -72c4 -5 8 -11 8 -17c0 -3 -1 -6 -5 -9z" />
    <glyph glyph-name="cedilla.cap" horiz-adv-x="900" 
d="M341 -242c-12 0 -73 78 -73 95l46 180h119l-22 -145c30 7 57 9 90 9c119 0 178 -89 178 -208c0 -151 -87 -211 -247 -211c-87 0 -205 17 -212 44l21 114c2 11 8 17 19 17c6 0 27 -4 53 -11c34 -9 77 -16 107 -16c66 0 83 36 83 69c0 39 -21 71 -84 71
c-24 0 -70 -8 -78 -8z" />
    <glyph glyph-name="commaaccent.cap" horiz-adv-x="900" 
d="M465 -527c-8 -10 -12 -13 -22 -13l-95 36c-8 3 -14 7 -14 14c0 3 1 7 3 11c32 69 46 101 46 135c0 24 -18 39 -36 53s-35 27 -35 47c0 67 83 143 148 143c96 0 128 -73 128 -146c0 -111 -68 -211 -123 -280z" />
    <glyph glyph-name="ldot" unicode="&#x140;" horiz-adv-x="856" 
d="M641 201l12 -181c-2 -16 -7 -19 -24 -20l-543 6c-12 0 -14 8 -14 24v171c0 14 4 19 16 19l189 -12v1160l-151 -12c-14 0 -18 6 -18 22l6 196c0 16 8 19 24 21l325 -8c14 0 17 -7 18 -23l-7 -159l15 -1196l136 11c12 0 15 -4 16 -19zM900 620c0 -73 -102 -113 -206 -113
c-81 0 -110 105 -110 174c0 91 133 112 210 112c80 0 106 -106 106 -173z" />
    <glyph glyph-name="gcommaaccent" unicode="&#x123;" horiz-adv-x="1196" 
d="M1125 1105l-13 -157c-1 -16 -9 -21 -23 -21l-180 35c63 -67 107 -141 107 -202c0 -257 -125 -400 -453 -400c-57 0 -115 6 -170 20c-15 -33 -24 -68 -24 -103c0 -59 23 -78 128 -78c24 0 52 1 86 3c62 3 122 6 190 6c235 0 323 -144 323 -309c0 -207 -170 -384 -535 -384
c-274 0 -431 62 -431 255c0 91 49 184 115 270c-58 33 -80 84 -80 140c0 69 44 160 116 246c-95 57 -162 157 -162 323c0 282 200 402 460 402c73 0 144 -2 216 -4c95 -3 193 -6 301 -6c21 0 28 -16 29 -36zM813 762c0 126 -72 214 -228 214c-144 0 -254 -61 -254 -229
c0 -135 83 -205 254 -205c173 0 228 100 228 220zM439 2c-26 0 -50 1 -71 3c-20 -49 -33 -111 -33 -171c0 -87 78 -127 256 -127c197 0 305 71 305 167c0 70 -24 136 -183 136c-56 0 -112 -2 -162 -4c-43 -2 -81 -4 -112 -4zM744 1404c0 -54 -99 -86 -169 -86
c-77 0 -107 67 -107 159c0 143 35 256 106 405l117 -22c-10 -73 -15 -124 -15 -188c0 -103 34 -177 56 -225c8 -18 12 -32 12 -43z" />
    <glyph glyph-name="iogonek" unicode="&#x12f;" horiz-adv-x="683" 
d="M625 161l-18 -131c-2 -16 -7 -19 -24 -20l-132 -8c-52 -62 -98 -128 -98 -175c0 -56 50 -72 96 -72c65 0 144 40 157 40c10 0 15 -6 16 -17l21 -166c0 -13 -7 -17 -22 -22c-71 -23 -143 -40 -231 -40c-131 0 -215 52 -215 179c0 67 45 173 100 264l-125 -7
c-12 0 -14 8 -14 24v151c0 14 4 19 16 19h120l8 699l-162 17c-14 1 -18 6 -18 22l22 165c2 12 8 19 24 21l321 33c14 0 17 -7 18 -23l13 -182l-3 -752h114c12 0 16 -10 16 -19zM327 1337c-100 0 -122 20 -122 126c0 114 28 137 166 137c100 0 123 -13 123 -120
c0 -124 -32 -142 -167 -143z" />
    <glyph glyph-name="uogonek" unicode="&#x173;" horiz-adv-x="1195" 
d="M1176 213l-18 -183c-1 -15 -8 -21 -24 -21h-152c-52 -66 -94 -138 -94 -190c0 -57 52 -64 96 -64c45 0 108 17 145 31c16 6 25 9 32 9c10 0 15 -6 16 -17l21 -166c0 -13 -7 -17 -22 -22c-71 -23 -163 -40 -251 -40c-131 0 -215 52 -215 179c0 102 58 223 134 327l-22 92
c-104 -89 -228 -142 -376 -142c-178 0 -295 97 -295 377c0 119 18 347 35 518l-128 -4c-14 0 -21 6 -21 24l20 177c2 16 7 19 23 20l318 -8c11 0 14 -8 14 -22c-19 -190 -52 -556 -52 -668c0 -136 51 -198 171 -198c90 0 184 43 278 102v575l-125 7c-12 1 -15 5 -17 17
l19 165c2 16 7 22 22 22l288 -10c13 0 16 -10 16 -24l10 -844l134 5c14 -1 20 -8 20 -24z" />
    <glyph glyph-name="Iogonek" unicode="&#x12e;" horiz-adv-x="682" 
d="M601 191l-3 -178c0 -16 -7 -20 -24 -20l-145 4c-51 -55 -99 -110 -99 -170c0 -56 50 -72 96 -72c65 0 134 40 147 40c10 0 15 -6 16 -17l21 -166c0 -13 -7 -17 -22 -22c-71 -23 -133 -40 -221 -40c-131 0 -215 52 -215 179c0 75 51 182 110 272l-152 5
c-12 0 -17 8 -18 24l-8 177c1 13 4 17 16 19l139 -10l-8 1089l-137 1c-14 0 -18 6 -18 22l16 176c1 16 8 19 24 21l467 -18c14 -1 17 -6 18 -23l-7 -159c-1 -18 -9 -22 -23 -22h-117l-3 -1093h134c12 0 16 -10 16 -19z" />
    <glyph glyph-name="Uogonek" unicode="&#x172;" horiz-adv-x="1538" 
d="M1431 181l-13 -178c-1 -16 -7 -20 -24 -20l-208 -4c-41 -57 -71 -116 -71 -160c0 -57 52 -64 96 -64c45 0 108 17 145 31c16 6 25 9 32 9c10 0 15 -6 16 -17l21 -166c0 -13 -7 -17 -22 -22c-71 -23 -163 -40 -251 -40c-131 0 -215 52 -215 179c0 82 37 176 91 264l1 234
c-114 -135 -264 -215 -418 -215c-253 0 -392 188 -392 526c0 249 7 377 39 768l-164 -13c-14 0 -16 5 -18 22l11 186c1 16 8 20 24 21l432 15c14 -1 18 -6 18 -23l-14 -176c-2 -19 -9 -22 -23 -22h-48c-22 -382 -29 -488 -29 -694c0 -298 103 -376 224 -376
c123 0 270 64 359 144l6 890l-107 -4c-9 0 -14 9 -14 22l6 186c1 16 8 21 24 21l448 12c13 -1 18 -6 18 -23l3 -179c0 -17 -10 -22 -23 -22l-140 -5v-1104l164 16c12 0 16 -10 16 -19z" />
    <glyph glyph-name="Aogonek" unicode="&#x104;" 
d="M828 1516l432 -1283l91 3c19 -1 28 -8 28 -32v-158c0 -22 -9 -27 -31 -27h-154c-55 -68 -102 -145 -102 -200c0 -57 52 -64 96 -64c45 0 108 17 145 31c16 6 25 9 32 9c10 0 15 -6 16 -17l21 -166c0 -13 -7 -17 -22 -22c-71 -23 -163 -40 -251 -40
c-131 0 -215 52 -215 179c0 90 45 195 108 290h-137c-24 0 -24 11 -24 30l20 146c3 23 9 28 30 28l114 3l-86 266l-495 10l-81 -290l121 12c16 0 21 -6 23 -23l15 -152c-3 -22 -10 -29 -30 -30l-436 -17c-17 1 -22 13 -22 32v167c0 21 8 28 30 29l92 -4l396 1284
c4 12 9 20 24 21l227 8c13 -1 20 -8 25 -23zM670 1315l-179 -643h389z" />
    <glyph glyph-name="Eogonek" unicode="&#x118;" 
d="M1251 -64l-188 4c-16 0 -22 10 -22 26l-1 36c-49 -64 -89 -133 -89 -183c0 -57 52 -64 96 -64c45 0 108 17 145 31c16 6 25 9 32 9c10 0 15 -6 16 -17l21 -166c0 -13 -7 -17 -22 -22c-71 -23 -163 -40 -251 -40c-131 0 -215 52 -215 179c0 91 46 198 110 293l-737 -20
c-16 0 -23 8 -24 24l6 184c0 13 4 17 16 19l125 -17l-8 1089l-126 -11c-14 0 -18 6 -18 22l11 182c1 16 8 20 24 21l999 38c17 -1 30 -8 30 -27l-20 -365c0 -15 -4 -23 -16 -23l-168 6c-18 1 -20 9 -21 26l-6 172l-473 -25l7 -466l491 31c14 0 26 -5 27 -23l7 -168
c-1 -15 -7 -23 -21 -23l-502 -7l7 -457l540 18l-4 131c1 24 18 38 42 39l162 -5c15 -1 23 -6 23 -18l16 -410c-2 -16 -11 -23 -21 -23z" />
    <glyph glyph-name="eogonek" unicode="&#x119;" horiz-adv-x="1196" 
d="M1031 31l-189 -25c-50 -65 -91 -136 -91 -187c0 -57 52 -64 96 -64c45 0 108 17 145 31c16 6 25 9 32 9c10 0 15 -6 16 -17l21 -166c0 -13 -7 -17 -22 -22c-71 -23 -163 -40 -251 -40c-131 0 -215 52 -215 179c0 77 33 166 83 250c-45 -3 -91 -5 -134 -5
c-264 0 -387 154 -387 533c0 166 16 325 81 439c82 143 220 207 450 207c247 0 353 -120 353 -369c0 -122 -29 -178 -74 -228c-82 -91 -366 -102 -598 -102c19 -244 112 -278 267 -278c39 0 165 9 242 20c3 45 6 83 6 93c0 16 6 19 22 23l144 32c14 0 23 -2 25 -19
c3 -23 22 -219 22 -250c0 -33 -20 -41 -44 -44zM791 790c0 102 -37 173 -160 173c-93 0 -183 -22 -227 -86c-40 -59 -56 -156 -60 -276c173 2 363 18 410 60c34 30 37 70 37 129z" />
    <glyph glyph-name="aogonek" unicode="&#x105;" horiz-adv-x="1196" 
d="M1154 147l-18 -158c-2 -16 -7 -19 -22 -20l-214 -13c-33 -50 -56 -99 -56 -137c0 -57 52 -64 96 -64c45 0 108 17 145 31c16 6 25 9 32 9c10 0 15 -6 16 -17l21 -166c0 -13 -7 -17 -22 -22c-71 -23 -163 -40 -251 -40c-131 0 -215 52 -215 179c0 112 71 249 159 361
c-100 -77 -228 -129 -363 -129c-197 0 -357 124 -357 342c0 288 194 365 558 365c41 0 83 -1 128 -3c1 34 1 65 1 86c0 133 -58 195 -171 195c-63 0 -146 -24 -220 -54c3 -24 6 -54 6 -68c0 -17 -6 -22 -22 -22l-169 -3c-15 2 -19 7 -20 22l-17 286c0 19 5 25 22 27l167 22
c17 0 21 -7 21 -22v-83c90 50 226 100 333 100c176 0 296 -100 296 -368c0 -130 -12 -463 -20 -628c37 3 80 6 135 11c15 0 21 -8 21 -19zM532 150c97 0 192 38 253 66c2 87 3 200 5 303c-362 -1 -459 -54 -459 -193c0 -121 79 -176 201 -176z" />
    <glyph glyph-name="tcaron" unicode="&#x165;" horiz-adv-x="851" 
d="M5 975l-1 115c0 11 7 22 22 22l140 3c6 140 12 252 16 293c2 19 5 25 22 27l186 22c17 0 21 -7 21 -22c0 -18 -12 -162 -26 -314l392 11c18 0 22 -10 22 -24v-163c0 -15 -6 -20 -22 -21l-405 17c-10 -146 -17 -316 -17 -500c0 -219 33 -260 180 -260c21 0 41 1 58 2
c-2 30 -3 53 -3 56c0 10 6 15 19 17l167 20c13 0 21 -8 21 -23c1 -32 4 -225 4 -254c0 -13 -4 -18 -15 -20l-148 -24c-15 1 -24 3 -26 19l-4 32c-42 -2 -88 -3 -155 -3c-213 0 -310 98 -310 347c0 127 7 367 15 588l-133 10c-15 1 -20 10 -20 27zM502 1755
c0 54 99 86 169 86c77 0 107 -67 107 -159c0 -143 -35 -256 -106 -405l-117 22c10 73 15 124 15 188c0 103 -34 177 -56 225c-8 18 -12 32 -12 43z" />
    <glyph glyph-name="lcaron" unicode="&#x13e;" horiz-adv-x="851" 
d="M542 1665c0 54 82 86 152 86c77 0 107 -67 107 -159c0 -143 -18 -256 -89 -405l-117 22c10 73 15 124 15 188c0 141 -68 228 -68 268zM641 201l12 -181c-2 -16 -7 -19 -24 -20l-543 6c-12 0 -14 8 -14 24v171c0 14 4 19 16 19l189 -12v1160l-151 -12c-14 0 -18 6 -18 22
l6 196c0 16 8 19 24 21l325 -8c14 0 17 -7 18 -23l-7 -159l15 -1196l136 11c12 0 15 -4 16 -19z" />
    <glyph glyph-name="dcaron" unicode="&#x10f;" horiz-adv-x="1360" 
d="M1108 1665c0 54 82 86 152 86c77 0 107 -67 107 -159c0 -143 -18 -256 -89 -405l-117 22c10 73 15 124 15 188c0 141 -68 228 -68 268zM671 1619l343 -19c14 -1 18 -7 18 -23v-1404l105 11c14 0 20 -7 20 -19l-18 -155c-2 -13 -7 -17 -23 -20l-248 -40
c-13 0 -19 6 -19 22l8 99c-46 -19 -172 -69 -311 -69c-324 0 -424 190 -424 584c0 408 132 567 410 567c108 0 206 -17 307 -56l-13 315l-168 3c-16 0 -20 7 -20 24l10 160c1 15 6 20 23 20zM338 575c0 -273 46 -367 237 -367c83 0 163 14 249 39l21 647
c-75 19 -159 35 -258 35c-177 0 -249 -61 -249 -354z" />
    <glyph glyph-name="lacute" unicode="&#x13a;" horiz-adv-x="683" 
d="M568 2006l70 -164c3 -6 4 -12 4 -17c0 -9 -5 -16 -15 -20l-406 -182c-5 -2 -9 -3 -13 -3c-6 0 -10 3 -13 10l-39 92c-2 5 -4 10 -4 14c0 5 2 9 9 13l365 265c7 5 15 6 22 6c8 0 16 -4 20 -14zM641 201l12 -181c-2 -16 -7 -19 -24 -20l-543 6c-12 0 -14 8 -14 24v171
c0 14 4 19 16 19l189 -12v1060l-151 -12c-14 0 -18 6 -18 22l6 196c0 16 8 19 24 21l325 -8c14 0 17 -7 18 -23l-7 -159l15 -1096l136 11c12 0 15 -4 16 -19z" />
    <glyph glyph-name="lessequal" unicode="&#x2264;" horiz-adv-x="1194" 
d="M1018 143l-18 -151c-2 -16 -7 -19 -24 -20l-783 -4c-12 0 -14 8 -14 24l10 141c1 14 4 19 16 19l797 10c12 -1 16 -10 16 -19zM249 796l613 358c5 3 10 5 14 5s8 -2 11 -7l84 -142c4 -7 6 -12 6 -17c0 -4 -1 -8 -6 -11l-538 -273l537 -283c5 -3 6 -7 6 -10
c0 -4 -2 -9 -6 -15l-88 -137c-5 -7 -12 -8 -19 -8c-5 0 -13 3 -17 6l-613 372c-10 6 -16 17 -17 31l8 96c1 17 12 27 25 35z" />
    <glyph glyph-name="greaterequal" unicode="&#x2265;" horiz-adv-x="1194" 
d="M1028 143l-18 -151c-2 -16 -7 -19 -24 -20l-783 -4c-12 0 -14 8 -14 24l10 141c1 14 4 19 16 19l797 10c12 -1 16 -10 16 -19zM342 1154l613 -358c13 -8 24 -18 25 -35l8 -96c-1 -14 -7 -25 -17 -31l-613 -372c-4 -3 -12 -6 -17 -6c-7 0 -14 1 -19 8l-88 137
c-4 6 -6 11 -6 15c0 3 1 7 6 10l537 283l-538 273c-5 3 -6 7 -6 11c0 5 2 10 6 17l84 142c3 5 7 7 11 7s9 -2 14 -5z" />
    <glyph glyph-name="tilde.cap" horiz-adv-x="900" 
d="M70 1751l-32 91c0 9 5 14 13 22c66 71 176 148 250 148c37 0 86 -24 136 -52c54 -30 109 -60 151 -60c62 0 133 37 177 62c21 12 36 19 42 19c10 0 15 -6 20 -19l33 -78c2 -5 2 -8 2 -11c0 -9 -5 -15 -12 -22c-59 -65 -168 -161 -260 -161c-46 0 -101 28 -154 55
s-104 53 -148 53c-38 0 -107 -31 -152 -52c-20 -9 -36 -15 -42 -15c-15 0 -19 4 -24 20z" />
    <glyph glyph-name="hcircumflex" unicode="&#x125;" horiz-adv-x="1370" 
d="M115 1366v153c0 14 8 19 24 20l339 14c12 0 22 -8 23 -24l-24 -494c99 63 230 117 360 117c238 0 298 -181 298 -441c0 -140 -11 -361 -21 -507l120 6c14 -1 21 -5 21 -21v-147c0 -16 -7 -20 -23 -20l-430 -10c-13 0 -16 10 -16 24l22 135c3 17 7 20 22 21l84 3
c2 161 3 411 3 509c0 132 -39 222 -159 222c-79 0 -193 -34 -271 -77l-4 -659l121 -12c12 -1 16 -10 16 -18l-18 -129c-3 -17 -8 -21 -23 -21l-422 -7c-13 0 -15 10 -15 24l19 176c2 15 6 19 23 19l76 -8v772l20 367l-143 -11c-16 0 -22 7 -22 24zM284 1748l298 237
c18 14 35 24 45 25l95 10c15 0 27 -10 46 -26l302 -251c5 -5 7 -10 7 -15c0 -4 -2 -9 -6 -14l-61 -73c-3 -4 -8 -6 -12 -6s-8 2 -12 4l-320 159l-289 -150c-5 -3 -11 -6 -16 -6s-10 3 -14 8l-62 76c-3 4 -6 8 -6 13c0 3 1 6 5 9z" />
    <glyph glyph-name="Lacute" unicode="&#x139;" horiz-adv-x="1196" 
d="M1127 -19l-158 -24c-10 0 -19 7 -21 23l-5 48l-843 -35c-12 0 -17 8 -18 24l16 174c1 13 4 17 16 19l138 -6l9 1100l-136 -13c-14 0 -17 6 -18 22l-9 180c1 16 8 23 24 23l485 8c14 -1 20 -6 22 -23l19 -176c0 -18 -10 -21 -23 -22l-146 5l-3 -1099l446 23l-18 175
c0 12 8 20 23 21l162 15c24 0 41 -15 42 -39l18 -397c-1 -16 -6 -24 -22 -26zM754 2006l70 -164c3 -6 4 -12 4 -17c0 -9 -5 -16 -15 -20l-494 -207c-5 -2 -9 -3 -13 -3c-6 0 -10 3 -13 10l-39 92c-2 5 -4 10 -4 14c0 5 2 9 9 13l453 290c8 4 15 6 22 6c8 0 16 -4 20 -14z
" />
    <glyph glyph-name="Lcaron" unicode="&#x13d;" horiz-adv-x="1196" 
d="M1127 -19l-158 -24c-10 0 -19 7 -21 23l-5 48l-843 -35c-12 0 -17 8 -18 24l16 174c1 13 4 17 16 19l138 -6l9 1100l-136 -13c-14 0 -17 6 -18 22l-9 180c1 16 8 23 24 23l485 8c14 -1 20 -6 22 -23l19 -176c0 -18 -10 -21 -23 -22l-146 5l-3 -1099l446 23l-18 175
c0 12 8 20 23 21l162 15c24 0 41 -15 42 -39l18 -397c-1 -16 -6 -24 -22 -26zM796 1913l-306 -270c-17 -15 -29 -24 -42 -25l-98 -9c-15 0 -27 9 -46 25l-314 278c-5 5 -7 10 -7 15c0 4 2 9 6 14l61 73c3 4 8 6 12 6s8 -2 12 -4l331 -184l298 181c5 3 11 6 16 6s10 -3 14 -8
l60 -72c4 -5 8 -11 8 -17c0 -3 -1 -6 -5 -9z" />
    <glyph glyph-name="notequal" unicode="&#x2260;" horiz-adv-x="1194" 
d="M190 692l-8 151c0 11 6 19 18 19l492 -6l117 265c6 11 11 16 21 16c2 0 4 0 7 -2l91 -37c10 -5 15 -12 15 -19c0 -3 -1 -7 -4 -10l-108 -215l164 -2c12 0 16 -5 16 -19v-141c0 -16 -5 -24 -17 -24l-252 7l-71 -143l-36 -82l344 8c17 -1 23 -4 24 -20l8 -147
c0 -9 -6 -23 -24 -23l-431 5l-124 -281c-4 -8 -9 -15 -17 -15c-3 0 -8 2 -11 4l-94 36c-9 4 -15 12 -15 20c0 3 0 6 2 9l117 229l-216 3c-12 0 -16 5 -16 19v141c0 16 7 24 19 24l304 -9l63 122l46 104l-18 1l-382 -8c-17 0 -23 4 -24 20z" />
    <glyph glyph-name="summation" unicode="&#x2211;" horiz-adv-x="1194" 
d="M712 659l-355 -473l674 14c12 -1 16 -10 16 -19l-8 -161c-1 -16 -7 -20 -24 -20l-863 -4c-12 0 -17 8 -19 24l-15 136c1 16 5 23 13 34l416 565l-409 539c-6 8 -11 16 -11 24l18 151c2 16 7 20 24 20l836 24c12 0 19 -6 20 -22l11 -153c-1 -14 -10 -19 -22 -19l-652 -7
l342 -479c11 -15 16 -26 17 -42l7 -91c-1 -14 -6 -27 -16 -41z" />
    <glyph glyph-name="Omega" unicode="&#x3a9;" horiz-adv-x="1194" 
d="M522 187l-37 -157c-4 -16 -10 -23 -22 -24l-330 -16c-17 1 -22 4 -24 20l12 161c1 9 4 18 16 19l201 -4c-149 156 -234 434 -234 728c0 433 199 676 516 676c311 0 473 -258 473 -662c0 -338 -130 -607 -259 -751l233 13c12 -1 16 -10 16 -19l-8 -161
c-1 -16 -7 -19 -24 -20l-360 6c-14 0 -20 8 -22 24l-17 157c162 150 235 439 235 701c0 310 -93 512 -275 512c-206 0 -292 -185 -292 -506c0 -259 58 -537 202 -697z" />
    <glyph glyph-name="Omega" unicode="&#x2126;" horiz-adv-x="1194" 
d="M522 187l-37 -157c-4 -16 -10 -23 -22 -24l-330 -16c-17 1 -22 4 -24 20l12 161c1 9 4 18 16 19l201 -4c-149 156 -234 434 -234 728c0 433 199 676 516 676c311 0 473 -258 473 -662c0 -338 -130 -607 -259 -751l233 13c12 -1 16 -10 16 -19l-8 -161
c-1 -16 -7 -19 -24 -20l-360 6c-14 0 -20 8 -22 24l-17 157c162 150 235 439 235 701c0 310 -93 512 -275 512c-206 0 -292 -185 -292 -506c0 -259 58 -537 202 -697z" />
    <glyph glyph-name="Delta" unicode="&#x394;" horiz-adv-x="1194" 
d="M111 200l389 1322c4 12 8 19 24 21l146 -4c14 0 20 -2 25 -17l389 -1320c3 -11 5 -20 5 -31l-12 -141c-2 -16 -7 -24 -24 -24l-916 -10c-12 0 -18 8 -19 24l-13 143c0 13 3 26 6 37zM597 1235l-287 -1048l575 8z" />
    <glyph glyph-name="Delta" unicode="&#x2206;" horiz-adv-x="1194" 
d="M111 200l389 1322c4 12 8 19 24 21l146 -4c14 0 20 -2 25 -17l389 -1320c3 -11 5 -20 5 -31l-12 -141c-2 -16 -7 -24 -24 -24l-916 -10c-12 0 -18 8 -19 24l-13 143c0 13 3 26 6 37zM597 1235l-287 -1048l575 8z" />
    <glyph glyph-name="product" unicode="&#x220f;" horiz-adv-x="1194" 
d="M1083 1493l-5 -151c-1 -16 -7 -20 -24 -20l-132 -2l12 -1329c0 -12 -8 -14 -24 -14h-171c-14 0 -19 9 -19 21l12 1319l-267 -4l12 -1322c0 -12 -8 -14 -24 -14l-171 10c-14 1 -19 10 -19 22l12 1301l-138 -2c-12 0 -20 8 -20 24v151c0 14 7 19 19 19l679 -5l252 15
c12 -1 16 -10 16 -19z" />
    <glyph glyph-name="uni00AD" unicode="&#xad;" horiz-adv-x="1194" 
d="M1016 753l-18 -151c-2 -16 -7 -19 -24 -20l-783 -4c-12 0 -14 8 -14 24l10 141c1 14 4 19 16 19l797 10c12 -1 16 -10 16 -19z" />
    <glyph glyph-name="approxequal" unicode="&#x2248;" horiz-adv-x="1194" 
d="M137 427l-32 81c0 9 5 14 13 22c59 64 160 151 294 151c65 0 120 -30 177 -60c56 -30 113 -59 180 -59c80 0 161 35 213 62c27 14 46 23 52 23c10 0 14 -6 20 -19l33 -68c2 -5 2 -8 2 -11c0 -9 -5 -15 -12 -22c-54 -60 -182 -164 -314 -164c-72 0 -135 36 -200 68
c-53 26 -106 49 -166 49c-71 0 -149 -34 -195 -56c-21 -10 -36 -17 -41 -17c-15 0 -18 4 -24 20zM137 823l-32 81c0 9 5 14 13 22c59 64 160 151 294 151c65 0 120 -30 177 -60c56 -30 113 -59 180 -59c80 0 161 35 213 62c27 14 46 23 52 23c10 0 14 -6 20 -19l33 -68
c2 -5 2 -8 2 -11c0 -9 -5 -15 -12 -22c-54 -60 -182 -164 -314 -164c-72 0 -135 36 -200 68c-53 26 -106 49 -166 49c-71 0 -149 -34 -195 -56c-21 -10 -36 -17 -41 -17c-15 0 -18 4 -24 20z" />
    <glyph glyph-name="lozenge" unicode="&#x25ca;" horiz-adv-x="1194" 
d="M1076 814l-8 -95c-1 -13 -5 -26 -11 -37l-389 -682c-6 -11 -13 -20 -24 -21l-106 4c-14 1 -17 3 -25 17l-386 686c-5 9 -10 24 -10 43l11 107c2 22 5 32 14 47l383 669c7 13 10 19 26 21l104 -4c14 -1 19 -7 27 -21l387 -706c5 -9 7 -17 7 -28zM300 788l293 -606l303 582
l-296 587z" />
    <glyph glyph-name="partialdiff" unicode="&#x2202;" horiz-adv-x="1194" 
d="M392 1338c-9 0 -13 4 -15 14l-11 132c0 12 5 20 21 24c61 15 212 29 293 29c299 0 369 -214 369 -549c0 -495 -131 -1002 -510 -1002c-282 0 -402 188 -402 468c0 354 220 517 452 517c129 0 203 -23 258 -54c1 22 1 45 1 67c0 277 -40 378 -231 378
c-42 0 -105 -7 -154 -15c-36 -6 -61 -9 -71 -9zM535 180c196 0 276 265 302 553c-101 37 -162 47 -254 47c-190 0 -242 -160 -242 -350c0 -143 66 -250 194 -250z" />
    <glyph glyph-name="integral" unicode="&#x222b;" horiz-adv-x="1194" 
d="M1042 1600c13 -5 19 -15 19 -30l-25 -121c-4 -19 -13 -23 -27 -23c-9 0 -20 2 -42 7c-38 9 -92 18 -161 18c-81 0 -138 -52 -138 -171c0 -149 11 -360 26 -591c15 -225 24 -469 24 -693c0 -212 -108 -300 -276 -300c-234 0 -311 32 -311 71l27 128c4 19 13 23 27 23
c6 0 16 -1 31 -4c44 -9 120 -21 175 -21c98 0 135 57 135 171c0 145 -11 349 -25 574c-14 230 -25 480 -25 710c0 220 135 305 307 305c82 0 172 -20 259 -53z" />
    <glyph glyph-name="radical" unicode="&#x221a;" horiz-adv-x="1194" 
d="M409 585l68 -69l162 -547l237 1512c2 10 8 17 19 17l173 -30c15 -3 17 -9 17 -21l-334 -1726c-2 -12 -9 -20 -24 -21l-165 -8c-13 1 -22 8 -27 23l-215 652l-118 -80c-7 -5 -14 -7 -20 -7c-10 0 -19 5 -25 17l-57 113c-3 6 -4 11 -4 15c0 10 5 16 15 22l256 144
c7 4 14 6 19 6c8 0 15 -4 23 -12z" />
    <glyph glyph-name="infinity" unicode="&#x221e;" horiz-adv-x="1529" 
d="M433 1146c162 0 239 -72 320 -215c78 132 187 258 372 258c223 0 332 -172 332 -429c0 -232 -109 -412 -329 -412c-188 0 -276 87 -354 217c-81 -120 -178 -195 -339 -195c-243 0 -368 166 -368 381c0 207 112 395 366 395zM1112 978c-83 0 -155 -80 -254 -268
c63 -106 145 -157 243 -157c91 0 167 64 167 205c0 163 -63 220 -156 220zM437 561c87 0 143 46 242 232c-61 102 -139 153 -244 153c-114 0 -183 -65 -183 -182c0 -139 69 -203 185 -203z" />
    <glyph glyph-name="circumflex.cap" horiz-adv-x="900" 
d="M66 1748l298 237c18 14 35 24 45 25l95 10c15 0 27 -10 46 -26l302 -251c5 -5 7 -10 7 -15c0 -4 -2 -9 -6 -14l-61 -73c-3 -4 -8 -6 -12 -6s-8 2 -12 4l-320 159l-289 -150c-5 -3 -11 -6 -16 -6s-10 3 -14 8l-62 76c-3 4 -6 8 -6 13c0 3 1 6 5 9z" />
    <glyph glyph-name="dieresis.cap" horiz-adv-x="900" 
d="M192 1725c-91 0 -122 29 -122 126c0 114 28 137 166 137c91 0 123 -22 123 -120c0 -124 -32 -142 -167 -143zM663 1725c-91 0 -122 29 -122 126c0 114 28 137 166 137c91 0 123 -22 123 -120c0 -124 -32 -142 -167 -143z" />
    <glyph glyph-name="uni0001" horiz-adv-x="0" 
 />
    <glyph glyph-name="uni0002" horiz-adv-x="0" 
 />
    <glyph glyph-name="uni0003" horiz-adv-x="0" 
 />
    <glyph glyph-name="uni0004" horiz-adv-x="0" 
 />
    <glyph glyph-name="uni0005" horiz-adv-x="0" 
 />
    <glyph glyph-name="uni0006" horiz-adv-x="0" 
 />
    <glyph glyph-name="uni0007" horiz-adv-x="0" 
 />
    <glyph glyph-name="uni0008" horiz-adv-x="0" 
 />
    <glyph glyph-name="uni0009" unicode="&#x9;" horiz-adv-x="0" 
 />
    <glyph glyph-name="uni0010" horiz-adv-x="0" 
 />
    <glyph glyph-name="uni0011" horiz-adv-x="0" 
 />
    <glyph glyph-name="uni0012" horiz-adv-x="0" 
 />
    <glyph glyph-name="uni0013" horiz-adv-x="0" 
 />
    <glyph glyph-name="uni0014" horiz-adv-x="0" 
 />
    <glyph glyph-name="uni0015" horiz-adv-x="0" 
 />
    <glyph glyph-name="uni0016" horiz-adv-x="0" 
 />
    <glyph glyph-name="uni0017" horiz-adv-x="0" 
 />
    <glyph glyph-name="uni0018" horiz-adv-x="0" 
 />
    <glyph glyph-name="uni0019" horiz-adv-x="0" 
 />
    <glyph glyph-name="nbspace" unicode="&#xa0;" horiz-adv-x="688" 
 />
    <glyph glyph-name="CR" horiz-adv-x="0" 
 />
    <glyph glyph-name=".null" horiz-adv-x="0" 
 />
    <glyph glyph-name="itilde" unicode="&#x129;" horiz-adv-x="683" 
d="M625 161l-18 -131c-2 -16 -7 -19 -24 -20l-433 -24c-12 0 -14 8 -14 24v151c0 14 4 19 16 19h120l8 699l-162 17c-14 1 -18 6 -18 22l22 165c2 14 8 19 24 21l321 33c14 0 17 -7 18 -23l13 -182l-3 -752h114c12 0 16 -10 16 -19zM2 1371l-32 91c0 9 5 14 13 22
c66 71 166 148 240 148c40 0 88 -29 136 -58c46 -27 92 -54 131 -54c68 0 141 44 181 68c13 8 23 13 28 13c10 0 15 -6 20 -19l33 -78c2 -5 2 -8 2 -11c0 -9 -5 -15 -12 -22c-59 -65 -158 -161 -250 -161c-46 0 -95 27 -143 54s-95 54 -139 54c-30 0 -75 -18 -116 -39
c-31 -16 -59 -28 -68 -28c-15 0 -19 4 -24 20z" />
    <glyph glyph-name="ij" unicode="&#x133;" horiz-adv-x="1365" 
d="M625 161l-18 -131c-2 -16 -7 -19 -24 -20l-433 -24c-12 0 -14 8 -14 24v151c0 14 4 19 16 19h120l8 699l-162 17c-14 1 -18 6 -18 22l22 165c2 12 8 19 24 21l321 33c14 0 17 -7 18 -23l13 -182l-3 -752h114c12 0 16 -10 16 -19zM327 1337c-100 0 -122 20 -122 126
c0 114 28 137 166 137c100 0 123 -13 123 -120c0 -124 -32 -142 -167 -143zM784 908l-15 181c1 18 9 25 25 26l364 22c14 -1 19 -8 21 -23l-7 -189c10 -198 27 -607 27 -895c0 -313 -62 -478 -402 -478c-14 0 -20 6 -23 23l-30 164c0 15 6 20 23 20c133 0 218 48 218 166
c0 275 -5 705 -9 969l-174 -8c-13 1 -17 6 -18 22zM1075 1334c-131 0 -187 33 -187 96c0 73 17 173 112 173c123 0 187 -29 187 -92c0 -123 -39 -177 -112 -177z" />
    <glyph glyph-name="kcommaaccent" unicode="&#x137;" horiz-adv-x="1195" 
d="M57 1418l-4 136c0 13 8 19 24 21l307 32c14 0 20 -8 22 -24l19 -178l-13 -756l128 5l241 297l-122 -14c-12 0 -16 10 -16 19l8 161c1 16 7 20 24 20l453 4c12 0 14 -8 14 -24l-10 -151c-1 -14 -4 -19 -16 -19l-101 9l-313 -373l288 -386l165 -6c14 0 20 -6 21 -24
l10 -137c0 -16 -7 -19 -23 -20l-305 -12c-13 0 -20 11 -27 22l-303 463l-119 -9l-5 -285l102 11c12 0 16 -10 16 -19l-8 -151c-1 -16 -7 -19 -24 -20l-393 -14c-12 0 -16 9 -17 25l-7 140c1 13 4 19 16 19h129v1197l-143 19c-14 2 -18 6 -18 22zM649 -527
c-5 -7 -12 -13 -22 -13l-95 36c-8 3 -14 7 -14 14c0 3 1 7 3 11c19 41 46 106 46 138c0 22 -17 37 -35 50c-19 14 -36 27 -36 47c0 67 83 143 148 143c96 0 128 -73 128 -146c0 -105 -65 -199 -123 -280z" />
    <glyph glyph-name="nacute" unicode="&#x144;" horiz-adv-x="1370" 
d="M120 905l18 173c1 9 8 19 24 21l277 41c14 0 18 -7 18 -23v-173c104 105 255 206 405 206c214 0 286 -130 286 -384c0 -120 -11 -408 -18 -580l115 5c13 0 21 -6 21 -24v-147c0 -16 -7 -19 -23 -20l-290 -22c-11 0 -22 8 -22 22c5 170 5 593 5 688
c0 159 -22 215 -144 215c-99 0 -194 -43 -290 -104l12 -599l109 12c12 0 17 -5 17 -17l-19 -155c-2 -16 -7 -22 -22 -22h-417c-13 0 -16 10 -16 24l20 153c2 15 6 21 22 21h85v661l-153 4c-14 0 -20 8 -20 24zM875 1799l133 -150c3 -4 5 -10 5 -15c0 -7 -2 -14 -8 -19
l-462 -340c-3 -2 -7 -4 -11 -4c-5 0 -9 2 -13 6l-67 68c-5 6 -8 13 -8 20c0 5 2 10 5 14l383 420c6 7 14 11 22 11c7 0 15 -4 21 -11z" />
    <glyph glyph-name="rcaron" unicode="&#x159;" horiz-adv-x="1024" 
d="M96 895l-22 213c1 9 8 20 24 21l307 21c14 0 18 -7 18 -23l-15 -165c101 111 294 179 460 179c45 0 61 -11 62 -32c2 -40 12 -335 12 -366c0 -13 -3 -19 -15 -20l-188 -14c-16 0 -26 2 -26 25v177c-93 -8 -162 -24 -229 -52l-11 -660l174 13c12 0 16 -5 17 -17l11 -165
c-2 -16 -7 -21 -22 -22l-517 -20c-13 0 -16 10 -16 24v173c0 15 6 21 22 21h117v677l-143 -12c-14 1 -18 8 -20 24zM911 1673l-318 -377c-10 -11 -24 -23 -42 -25l-101 -10c-16 0 -32 11 -47 30l-298 381c-3 4 -5 10 -5 15c0 7 3 14 8 19l67 68c4 4 9 6 14 6c4 0 7 -1 10 -4
l310 -280l299 277c4 4 8 6 13 6c6 0 12 -3 17 -8l70 -72c4 -4 7 -9 7 -15c0 -4 -1 -7 -4 -11z" />
    <glyph glyph-name="rcommaaccent" unicode="&#x157;" horiz-adv-x="1024" 
d="M96 895l-22 213c1 9 8 20 24 21l307 21c14 0 18 -7 18 -23l-15 -165c101 111 294 179 460 179c45 0 61 -11 62 -32c2 -40 12 -335 12 -366c0 -13 -3 -19 -15 -20l-188 -14c-16 0 -26 2 -26 25v177c-93 -8 -162 -24 -229 -52l-11 -660l174 13c12 0 16 -5 17 -17l11 -165
c-2 -16 -7 -21 -22 -22l-517 -20c-13 0 -16 10 -16 24v173c0 15 6 21 22 21h117v677l-143 -12c-14 1 -18 8 -20 24zM438 -527c-5 -7 -12 -13 -22 -13l-95 36c-8 3 -14 7 -14 14c0 3 1 7 3 11c19 41 46 106 46 138c0 22 -17 37 -35 50c-19 14 -36 27 -36 47
c0 67 83 143 148 143c96 0 128 -73 128 -146c0 -105 -65 -199 -123 -280z" />
    <glyph glyph-name="Itilde" unicode="&#x128;" horiz-adv-x="682" 
d="M601 191l-3 -178c0 -16 -7 -20 -24 -20l-464 13c-12 0 -17 8 -18 24l-8 177c1 13 4 17 16 19l139 -10l-8 1089l-137 1c-14 0 -18 6 -18 22l16 176c1 16 8 19 24 21l467 -18c14 -1 17 -6 18 -23l-7 -159c-1 -18 -9 -22 -23 -22h-117l-3 -1093h134c12 0 16 -10 16 -19z
M-42 1751l-32 91c0 9 5 14 13 22c66 71 176 148 250 148c37 0 86 -24 136 -52c54 -30 109 -60 151 -60c62 0 133 37 177 62c21 12 36 19 42 19c10 0 15 -6 20 -19l33 -78c2 -5 2 -8 2 -11c0 -9 -5 -15 -12 -22c-59 -65 -168 -161 -260 -161c-46 0 -101 28 -154 55
s-104 53 -148 53c-38 0 -107 -31 -152 -52c-20 -9 -36 -15 -42 -15c-15 0 -19 4 -24 20z" />
    <glyph glyph-name="IJ" unicode="&#x132;" horiz-adv-x="1534" 
d="M802 174l139 14c10 0 19 -7 21 -23l25 -176h4c145 0 197 92 197 329c0 257 -20 620 -46 992l-207 -12c-10 0 -16 6 -16 19l-7 188c1 16 7 19 24 20l562 17c12 0 17 -5 18 -21l8 -190c-1 -13 -4 -17 -16 -19l-148 3c38 -435 44 -808 44 -1056c0 -332 -110 -446 -380 -446
h-12l14 -101c0 -12 -4 -23 -23 -25l-153 -15c-26 0 -40 15 -42 39l-28 437c0 16 7 25 22 26zM601 191l-3 -178c0 -16 -7 -20 -24 -20l-464 13c-12 0 -17 8 -18 24l-8 177c1 13 4 17 16 19l139 -10l-8 1089l-137 1c-14 0 -18 6 -18 22l16 176c1 16 8 19 24 21l467 -18
c14 -1 17 -6 18 -23l-7 -159c-1 -18 -9 -22 -23 -22h-117l-3 -1093h134c12 0 16 -10 16 -19z" />
    <glyph glyph-name="Jcircumflex" unicode="&#x134;" horiz-adv-x="852" 
d="M60 332l139 14c10 0 19 -7 21 -23l31 -228c13 -4 36 -8 58 -8c145 0 197 92 197 329c0 257 -20 532 -46 894l-207 -12c-12 0 -16 10 -16 19l-7 188c1 16 7 19 24 20l562 17c12 0 17 -8 18 -24l8 -187c-1 -13 -4 -17 -16 -19l-147 3c37 -421 43 -710 43 -958
c0 -332 -110 -446 -380 -446c-22 0 -44 3 -66 6l8 -54c0 -12 -8 -17 -23 -18l-153 -15c-26 0 -40 15 -42 39l-28 437c1 18 6 24 22 26zM165 1748l298 237c18 14 35 24 45 25l95 10c15 0 27 -10 46 -26l302 -251c5 -5 7 -10 7 -15c0 -4 -2 -9 -6 -14l-61 -73
c-3 -4 -8 -6 -12 -6s-8 2 -12 4l-320 159l-289 -150c-5 -3 -11 -6 -16 -6s-10 3 -14 8l-62 76c-3 4 -6 8 -6 13c0 3 1 6 5 9z" />
    <glyph glyph-name="Nacute" unicode="&#x143;" horiz-adv-x="1536" 
d="M639 221l17 -198c-1 -16 -7 -20 -24 -20l-484 3c-12 0 -16 8 -18 24l-18 167c1 13 4 19 16 19l157 4v1081l-183 -8c-14 1 -16 6 -18 22l11 176c1 16 8 20 24 21l440 22c22 -1 29 -9 37 -28l567 -1274l-26 1079l-155 5c-14 0 -17 6 -18 22l6 166c1 16 8 21 24 21l447 2
c14 -1 17 -6 18 -23l13 -179c0 -18 -9 -22 -23 -22l-127 3l-2 -1267c0 -16 -7 -28 -24 -29l-242 -13c-12 0 -16 7 -23 22l-589 1305l24 -1094l157 10c12 0 15 -5 16 -19zM1046 2006l70 -164c3 -6 4 -12 4 -17c0 -9 -5 -16 -15 -20l-494 -207c-5 -2 -9 -3 -13 -3
c-6 0 -10 3 -13 10l-39 92c-2 5 -4 10 -4 14c0 5 2 9 9 13l453 290c8 4 15 6 22 6c8 0 16 -4 20 -14z" />
    <glyph glyph-name="Racute" unicode="&#x154;" 
d="M118 1301c-14 0 -26 11 -28 28l-20 164c1 16 8 29 24 31c116 13 438 31 593 31c359 0 544 -144 544 -474c0 -252 -144 -392 -348 -432l262 -414l177 15c18 -1 33 -11 33 -34l1 -157c0 -25 -10 -54 -37 -55l-284 -7c-15 0 -23 5 -31 20l-338 621c-71 1 -138 5 -205 11
l3 -429h135c12 0 16 -10 16 -19l7 -188c-1 -16 -7 -20 -24 -20l-504 3c-12 0 -17 8 -18 24l22 197c1 13 4 17 16 19l127 -9v1080c-49 -4 -92 -6 -123 -6zM725 1345c-60 0 -163 -9 -270 -19l4 -498c69 -4 133 -5 203 -5c192 0 337 69 337 253c0 189 -91 269 -274 269z
M994 2006l70 -164c3 -6 4 -12 4 -17c0 -9 -5 -16 -15 -20l-494 -207c-5 -2 -9 -3 -13 -3c-6 0 -10 3 -13 10l-39 92c-2 5 -4 10 -4 14c0 5 2 9 9 13l453 290c8 4 15 6 22 6c8 0 16 -4 20 -14z" />
    <glyph glyph-name="Rcaron" unicode="&#x158;" 
d="M118 1301c-14 0 -26 11 -28 28l-20 164c1 16 8 29 24 31c116 13 438 31 593 31c359 0 544 -144 544 -474c0 -252 -144 -392 -348 -432l262 -414l177 15c18 -1 33 -11 33 -34l1 -157c0 -25 -10 -54 -37 -55l-284 -7c-15 0 -23 5 -31 20l-338 621c-71 1 -138 5 -205 11
l3 -429h135c12 0 16 -10 16 -19l7 -188c-1 -16 -7 -20 -24 -20l-504 3c-12 0 -17 8 -18 24l22 197c1 13 4 17 16 19l127 -9v1080c-49 -4 -92 -6 -123 -6zM725 1345c-60 0 -163 -9 -270 -19l4 -498c69 -4 133 -5 203 -5c192 0 337 69 337 253c0 189 -91 269 -274 269z
M1104 1913l-306 -270c-17 -15 -29 -24 -42 -25l-98 -9c-15 0 -27 9 -46 25l-314 278c-5 5 -7 10 -7 15c0 4 2 9 6 14l61 73c3 4 8 6 12 6s8 -2 12 -4l331 -184l298 181c5 3 11 6 16 6s10 -3 14 -8l60 -72c4 -5 8 -11 8 -17c0 -3 -1 -6 -5 -9z" />
    <glyph glyph-name="Rcommaaccent" unicode="&#x156;" 
d="M118 1301c-14 0 -26 11 -28 28l-20 164c1 16 8 29 24 31c116 13 438 31 593 31c359 0 544 -144 544 -474c0 -252 -144 -392 -348 -432l262 -414l177 15c18 -1 33 -11 33 -34l1 -157c0 -25 -10 -54 -37 -55l-284 -7c-15 0 -23 5 -31 20l-338 621c-71 1 -138 5 -205 11
l3 -429h135c12 0 16 -10 16 -19l7 -188c-1 -16 -7 -20 -24 -20l-504 3c-12 0 -17 8 -18 24l22 197c1 13 4 17 16 19l127 -9v1080c-49 -4 -92 -6 -123 -6zM725 1345c-60 0 -163 -9 -270 -19l4 -498c69 -4 133 -5 203 -5c192 0 337 69 337 253c0 189 -91 269 -274 269z
M743 -527c-5 -7 -12 -13 -22 -13l-95 36c-8 3 -14 7 -14 14c0 3 1 7 3 11c19 41 46 106 46 138c0 22 -17 37 -35 50c-19 14 -36 27 -36 47c0 67 83 143 148 143c96 0 128 -73 128 -146c0 -105 -65 -199 -123 -280z" />
    <glyph glyph-name="caronvertical" horiz-adv-x="0" 
 />
    <glyph glyph-name="Amacron" unicode="&#x100;" 
d="M828 1516l432 -1283l91 3c19 -1 28 -8 28 -32v-158c0 -22 -9 -27 -31 -27h-463c-24 0 -24 11 -24 30l20 146c3 23 9 28 30 28l114 3l-86 266l-495 10l-81 -290l121 12c16 0 21 -6 23 -23l15 -152c-3 -22 -10 -29 -30 -30l-436 -17c-17 1 -22 13 -22 32v167
c0 21 8 28 30 29l92 -4l396 1284c4 12 9 20 24 21l227 8c13 -1 20 -8 25 -23zM670 1315l-179 -643h389zM1017 1952l-18 -171c-2 -16 -7 -20 -24 -20l-624 6c-12 0 -19 8 -19 24l10 151c1 14 8 19 20 19l639 10c12 -1 16 -10 16 -19z" />
    <glyph glyph-name="Abreve" unicode="&#x102;" 
d="M828 1516l432 -1283l91 3c19 -1 28 -8 28 -32v-158c0 -22 -9 -27 -31 -27h-463c-24 0 -24 11 -24 30l20 146c3 23 9 28 30 28l114 3l-86 266l-495 10l-81 -290l121 12c16 0 21 -6 23 -23l15 -152c-3 -22 -10 -29 -30 -30l-436 -17c-17 1 -22 13 -22 32v167
c0 21 8 28 30 29l92 -4l396 1284c4 12 9 20 24 21l227 8c13 -1 20 -8 25 -23zM670 1315l-179 -643h389zM1057 1983c0 -180 -131 -345 -363 -345c-223 0 -394 127 -394 346c0 15 9 23 24 23l143 13c15 0 20 -8 21 -24c7 -106 93 -175 199 -175c108 0 163 63 182 165
c3 16 6 24 21 24l143 -4c14 0 24 -8 24 -23z" />
    <glyph glyph-name="AEacute" unicode="&#x1fc;" horiz-adv-x="1903" 
d="M1845 -64l-208 4c-16 0 -22 10 -22 26l4 60l-830 -24c-16 0 -22 8 -23 24l6 179c0 13 7 22 19 24l126 -17l16 384l-400 -11l-148 -371l99 10c16 0 21 -6 23 -23l15 -152c-3 -22 -10 -29 -30 -30l-436 -17c-17 1 -22 13 -22 32v167c0 21 8 28 30 29l101 -5l517 1265
c5 12 12 20 27 21l1016 42c17 -1 30 -8 30 -27l-10 -355c0 -15 -8 -25 -20 -27l-162 -30c-18 0 -22 9 -23 26l-13 209l-367 -6l-19 -560l398 29c16 -1 27 -8 27 -25l-13 -156c-1 -15 -4 -23 -18 -23l-396 -7l-1 -397l496 18l9 121c2 24 18 38 42 39l135 5
c19 -1 29 -12 30 -31l16 -397c-1 -16 -9 -23 -21 -23zM841 1354l-238 -595l335 16l5 573zM1360 2006l70 -164c3 -6 4 -12 4 -17c0 -9 -5 -16 -15 -20l-494 -207c-5 -2 -9 -3 -13 -3c-6 0 -10 3 -13 10l-39 92c-2 5 -4 10 -4 14c0 5 2 9 9 13l453 290c8 4 15 6 22 6
c8 0 16 -4 20 -14z" />
    <glyph glyph-name="Cacute" unicode="&#x106;" 
d="M1181 1029l-168 -4c-10 0 -20 7 -21 23l-21 257c-75 19 -147 30 -230 30c-262 0 -375 -154 -375 -570c0 -440 142 -589 395 -589c96 0 164 15 235 38l-5 134c1 15 8 19 24 22l166 28c10 0 19 -7 21 -23l40 -390c0 -12 -9 -17 -23 -18l-172 -15c-24 0 -41 15 -42 39l-2 42
c-82 -44 -186 -74 -309 -74c-371 0 -564 287 -564 817c0 551 235 764 577 764c99 0 205 -11 286 -38l180 28c24 0 41 -15 42 -39l-12 -436c0 -16 -9 -26 -22 -26zM1022 2006l70 -164c3 -6 4 -12 4 -17c0 -9 -5 -16 -15 -20l-494 -207c-5 -2 -9 -3 -13 -3c-6 0 -10 3 -13 10
l-39 92c-2 5 -4 10 -4 14c0 5 2 9 9 13l453 290c8 4 15 6 22 6c8 0 16 -4 20 -14z" />
    <glyph glyph-name="Ccircumflex" unicode="&#x108;" 
d="M1181 1029l-168 -4c-10 0 -20 7 -21 23l-21 257c-75 19 -147 30 -230 30c-262 0 -375 -154 -375 -570c0 -440 142 -589 395 -589c96 0 164 15 235 38l-5 134c1 15 8 19 24 22l166 28c10 0 19 -7 21 -23l40 -390c0 -12 -9 -17 -23 -18l-172 -15c-24 0 -41 15 -42 39l-2 42
c-82 -44 -186 -74 -309 -74c-371 0 -564 287 -564 817c0 551 235 764 577 764c99 0 205 -11 286 -38l180 28c24 0 41 -15 42 -39l-12 -436c0 -16 -9 -26 -22 -26zM355 1748l298 237c18 14 35 24 45 25l95 10c15 0 27 -10 46 -26l302 -251c5 -5 7 -10 7 -15
c0 -4 -2 -9 -6 -14l-61 -73c-3 -4 -8 -6 -12 -6s-8 2 -12 4l-320 159l-289 -150c-5 -3 -11 -6 -16 -6s-10 3 -14 8l-62 76c-3 4 -6 8 -6 13c0 3 1 6 5 9z" />
    <glyph glyph-name="Ccaron" unicode="&#x10c;" 
d="M1181 1029l-168 -4c-10 0 -20 7 -21 23l-21 257c-75 19 -147 30 -230 30c-262 0 -375 -154 -375 -570c0 -440 142 -589 395 -589c96 0 164 15 235 38l-5 134c1 15 8 19 24 22l166 28c10 0 19 -7 21 -23l40 -390c0 -12 -9 -17 -23 -18l-172 -15c-24 0 -41 15 -42 39l-2 42
c-82 -44 -186 -74 -309 -74c-371 0 -564 287 -564 817c0 551 235 764 577 764c99 0 205 -11 286 -38l180 28c24 0 41 -15 42 -39l-12 -436c0 -16 -9 -26 -22 -26zM1132 1913l-306 -270c-17 -15 -29 -24 -42 -25l-98 -9c-15 0 -27 9 -46 25l-314 278c-5 5 -7 10 -7 15
c0 4 2 9 6 14l61 73c3 4 8 6 12 6s8 -2 12 -4l331 -184l298 181c5 3 11 6 16 6s10 -3 14 -8l60 -72c4 -5 8 -11 8 -17c0 -3 -1 -6 -5 -9z" />
    <glyph glyph-name="Cdotaccent" unicode="&#x10a;" 
d="M1181 1029l-168 -4c-10 0 -20 7 -21 23l-21 257c-75 19 -147 30 -230 30c-262 0 -375 -154 -375 -570c0 -440 142 -589 395 -589c96 0 164 15 235 38l-5 134c1 15 8 19 24 22l166 28c10 0 19 -7 21 -23l40 -390c0 -12 -9 -17 -23 -18l-172 -15c-24 0 -41 15 -42 39l-2 42
c-82 -44 -186 -74 -309 -74c-371 0 -564 287 -564 817c0 551 235 764 577 764c99 0 205 -11 286 -38l180 28c24 0 41 -15 42 -39l-12 -436c0 -16 -9 -26 -22 -26zM713 1725c-85 0 -116 35 -116 126c0 114 28 137 166 137c88 0 123 -25 123 -120c0 -125 -37 -143 -173 -143z
" />
    <glyph glyph-name="Dcaron" unicode="&#x10e;" 
d="M101 6c-12 1 -17 8 -18 24l12 177c1 13 4 17 16 19l109 -8l26 1095c-45 -3 -91 -7 -141 -12c-14 0 -17 6 -18 22l-14 186c1 16 8 19 24 21c396 10 469 10 553 10c369 0 609 -165 609 -754c0 -542 -247 -805 -614 -805c-201 0 -387 9 -544 25zM646 1336
c-31 0 -94 -2 -181 -7l-12 -1124c76 -5 118 -6 186 -6c271 0 394 189 394 562c0 447 -141 575 -387 575zM1070 1913l-306 -270c-17 -15 -29 -24 -42 -25l-98 -9c-15 0 -27 9 -46 25l-314 278c-5 5 -7 10 -7 15c0 4 2 9 6 14l61 73c3 4 8 6 12 6s8 -2 12 -4l331 -184l298 181
c5 3 11 6 16 6s10 -3 14 -8l60 -72c4 -5 8 -11 8 -17c0 -3 -1 -6 -5 -9z" />
    <glyph glyph-name="Ecaron" unicode="&#x11a;" 
d="M1251 -64l-188 4c-16 0 -22 10 -22 26l-2 61l-893 -25c-16 0 -23 8 -24 24l6 184c0 13 4 17 16 19l125 -17l-8 1089l-126 -11c-14 0 -18 6 -18 22l11 182c1 16 8 20 24 21l999 38c17 -1 30 -8 30 -27l-20 -365c0 -15 -4 -23 -16 -23l-168 6c-18 1 -20 9 -21 26l-6 172
l-473 -25l7 -466l491 31c14 0 26 -5 27 -23l7 -168c-1 -15 -7 -23 -21 -23l-502 -7l7 -457l540 18l-4 131c1 24 18 38 42 39l162 -5c15 -1 23 -6 23 -18l16 -410c-2 -16 -11 -23 -21 -23zM1075 1913l-306 -270c-17 -15 -29 -24 -42 -25l-98 -9c-15 0 -27 9 -46 25l-314 278
c-5 5 -7 10 -7 15c0 4 2 9 6 14l61 73c3 4 8 6 12 6s8 -2 12 -4l331 -184l298 181c5 3 11 6 16 6s10 -3 14 -8l60 -72c4 -5 8 -11 8 -17c0 -3 -1 -6 -5 -9z" />
    <glyph glyph-name="Emacron" unicode="&#x112;" 
d="M1251 -64l-188 4c-16 0 -22 10 -22 26l-2 61l-893 -25c-16 0 -23 8 -24 24l6 184c0 13 4 17 16 19l125 -17l-8 1089l-126 -11c-14 0 -18 6 -18 22l11 182c1 16 8 20 24 21l999 38c17 -1 30 -8 30 -27l-20 -365c0 -15 -4 -23 -16 -23l-168 6c-18 1 -20 9 -21 26l-6 172
l-473 -25l7 -466l491 31c14 0 26 -5 27 -23l7 -168c-1 -15 -7 -23 -21 -23l-502 -7l7 -457l540 18l-4 131c1 24 18 38 42 39l162 -5c15 -1 23 -6 23 -18l16 -410c-2 -16 -11 -23 -21 -23zM1023 1952l-18 -171c-2 -16 -7 -20 -24 -20l-624 6c-12 0 -19 8 -19 24l10 151
c1 14 8 19 20 19l639 10c12 -1 16 -10 16 -19z" />
    <glyph glyph-name="Ebreve" unicode="&#x114;" 
d="M1251 -64l-188 4c-16 0 -22 10 -22 26l-2 61l-893 -25c-16 0 -23 8 -24 24l6 184c0 13 4 17 16 19l125 -17l-8 1089l-126 -11c-14 0 -18 6 -18 22l11 182c1 16 8 20 24 21l999 38c17 -1 30 -8 30 -27l-20 -365c0 -15 -4 -23 -16 -23l-168 6c-18 1 -20 9 -21 26l-6 172
l-473 -25l7 -466l491 31c14 0 26 -5 27 -23l7 -168c-1 -15 -7 -23 -21 -23l-502 -7l7 -457l540 18l-4 131c1 24 18 38 42 39l162 -5c15 -1 23 -6 23 -18l16 -410c-2 -16 -11 -23 -21 -23zM1063 1983c0 -180 -131 -345 -363 -345c-223 0 -394 127 -394 346c0 15 9 23 24 23
l143 13c15 0 20 -8 21 -24c7 -106 93 -175 199 -175c108 0 163 63 182 165c3 16 6 24 21 24l143 -4c14 0 24 -8 24 -23z" />
    <glyph glyph-name="Edotaccent" unicode="&#x116;" 
d="M1251 -64l-188 4c-16 0 -22 10 -22 26l-2 61l-893 -25c-16 0 -23 8 -24 24l6 184c0 13 4 17 16 19l125 -17l-8 1089l-126 -11c-14 0 -18 6 -18 22l11 182c1 16 8 20 24 21l999 38c17 -1 30 -8 30 -27l-20 -365c0 -15 -4 -23 -16 -23l-168 6c-18 1 -20 9 -21 26l-6 172
l-473 -25l7 -466l491 31c14 0 26 -5 27 -23l7 -168c-1 -15 -7 -23 -21 -23l-502 -7l7 -457l540 18l-4 131c1 24 18 38 42 39l162 -5c15 -1 23 -6 23 -18l16 -410c-2 -16 -11 -23 -21 -23zM656 1725c-85 0 -116 35 -116 126c0 114 28 137 166 137c88 0 123 -25 123 -120
c0 -125 -37 -143 -173 -143z" />
    <glyph glyph-name="Gcircumflex" unicode="&#x11c;" 
d="M706 617l4 178c0 16 10 21 26 22l487 32c24 -1 38 -18 39 -42l-5 -172c0 -15 -10 -23 -18 -23l-52 -2l18 -595c-1 -18 -12 -28 -26 -28c-31 0 -112 30 -189 69c-78 -45 -181 -78 -305 -78c-382 0 -589 240 -589 812c0 553 218 750 565 750c120 0 227 -34 305 -97l20 121
c2 15 9 25 22 26l157 14c14 0 24 -7 24 -23l11 -366c0 -14 -8 -20 -20 -22l-190 -26c-74 100 -156 162 -281 162c-238 0 -397 -118 -397 -543c0 -474 160 -593 417 -593c79 0 182 20 248 44l-5 366l-243 -7c-16 2 -23 11 -23 21zM248 1748l298 237c18 14 35 24 45 25l95 10
c15 0 27 -10 46 -26l302 -251c5 -5 7 -10 7 -15c0 -4 -2 -9 -6 -14l-61 -73c-3 -4 -8 -6 -12 -6s-8 2 -12 4l-320 159l-289 -150c-5 -3 -11 -6 -16 -6s-10 3 -14 8l-62 76c-3 4 -6 8 -6 13c0 3 1 6 5 9z" />
    <glyph glyph-name="Gbreve" unicode="&#x11e;" 
d="M706 617l4 178c0 16 10 21 26 22l487 32c24 -1 38 -18 39 -42l-5 -172c0 -15 -10 -23 -18 -23l-52 -2l18 -595c-1 -18 -12 -28 -26 -28c-31 0 -112 30 -189 69c-78 -45 -181 -78 -305 -78c-382 0 -589 240 -589 812c0 553 218 750 565 750c120 0 227 -34 305 -97l20 121
c2 15 9 25 22 26l157 14c14 0 24 -7 24 -23l11 -366c0 -14 -8 -20 -20 -22l-190 -26c-74 100 -156 162 -281 162c-238 0 -397 -118 -397 -543c0 -474 160 -593 417 -593c79 0 182 20 248 44l-5 366l-243 -7c-16 2 -23 11 -23 21zM1013 1983c0 -180 -131 -345 -363 -345
c-223 0 -394 127 -394 346c0 15 9 23 24 23l143 13c15 0 20 -8 21 -24c7 -106 93 -175 199 -175c108 0 163 63 182 165c3 16 6 24 21 24l143 -4c14 0 24 -8 24 -23z" />
    <glyph glyph-name="Gcommaaccent" unicode="&#x122;" 
d="M706 617l4 178c0 16 10 21 26 22l487 32c24 -1 38 -18 39 -42l-5 -172c0 -15 -10 -23 -18 -23l-52 -2l18 -595c-1 -18 -12 -28 -26 -28c-31 0 -112 30 -189 69c-78 -45 -181 -78 -305 -78c-382 0 -589 240 -589 812c0 553 218 750 565 750c120 0 227 -34 305 -97l20 121
c2 15 9 25 22 26l157 14c14 0 24 -7 24 -23l11 -366c0 -14 -8 -20 -20 -22l-190 -26c-74 100 -156 162 -281 162c-238 0 -397 -118 -397 -543c0 -474 160 -593 417 -593c79 0 182 20 248 44l-5 366l-243 -7c-16 2 -23 11 -23 21zM709 -527c-5 -7 -12 -13 -22 -13l-95 36
c-8 3 -14 7 -14 14c0 3 1 7 3 11c19 41 46 106 46 138c0 22 -17 37 -35 50c-19 14 -36 27 -36 47c0 67 83 143 148 143c96 0 128 -73 128 -146c0 -105 -65 -199 -123 -280z" />
    <glyph glyph-name="Gdotaccent" unicode="&#x120;" 
d="M706 617l4 178c0 16 10 21 26 22l487 32c24 -1 38 -18 39 -42l-5 -172c0 -15 -10 -23 -18 -23l-52 -2l18 -595c-1 -18 -12 -28 -26 -28c-31 0 -112 30 -189 69c-78 -45 -181 -78 -305 -78c-382 0 -589 240 -589 812c0 553 218 750 565 750c120 0 227 -34 305 -97l20 121
c2 15 9 25 22 26l157 14c14 0 24 -7 24 -23l11 -366c0 -14 -8 -20 -20 -22l-190 -26c-74 100 -156 162 -281 162c-238 0 -397 -118 -397 -543c0 -474 160 -593 417 -593c79 0 182 20 248 44l-5 366l-243 -7c-16 2 -23 11 -23 21zM606 1725c-85 0 -116 35 -116 126
c0 114 28 137 166 137c88 0 123 -25 123 -120c0 -125 -37 -143 -173 -143z" />
    <glyph glyph-name="Hcircumflex" unicode="&#x124;" horiz-adv-x="1538" 
d="M680 221l-13 -188c-1 -16 -7 -20 -24 -20l-464 -7c-12 0 -17 8 -18 24l2 177c0 13 4 17 16 19l107 -3v1081l-133 -1c-14 0 -17 6 -18 22l-9 176c1 16 8 19 24 21l499 -8c14 -1 18 -6 18 -23l-4 -176c0 -18 -9 -22 -23 -22l-131 7l-1 -442l542 7v457l-137 4
c-14 0 -17 6 -18 22l6 166c1 16 8 21 24 21l467 2c14 -1 17 -6 18 -23l13 -179c0 -18 -9 -22 -23 -22l-127 3l-3 -1111l154 5c12 0 16 -10 16 -19l-13 -178c-1 -16 -7 -20 -24 -20l-474 13c-12 0 -17 8 -18 24l2 167c0 13 4 17 16 19l121 -9v456l-543 -4l-1 -430l158 11
c12 0 16 -10 16 -19zM388 1748l298 237c18 14 35 24 45 25l95 10c15 0 27 -10 46 -26l302 -251c5 -5 7 -10 7 -15c0 -4 -2 -9 -6 -14l-61 -73c-3 -4 -8 -6 -12 -6s-8 2 -12 4l-320 159l-289 -150c-5 -3 -11 -6 -16 -6s-10 3 -14 8l-62 76c-3 4 -6 8 -6 13c0 3 1 6 5 9z" />
    <glyph glyph-name="Imacron" unicode="&#x12a;" horiz-adv-x="682" 
d="M601 191l-3 -178c0 -16 -7 -20 -24 -20l-464 13c-12 0 -17 8 -18 24l-8 177c1 13 4 17 16 19l139 -10l-8 1089l-137 1c-14 0 -18 6 -18 22l16 176c1 16 8 19 24 21l467 -18c14 -1 17 -6 18 -23l-7 -159c-1 -18 -9 -22 -23 -22h-117l-3 -1093h134c12 0 16 -10 16 -19z
M677 1952l-18 -171c-2 -16 -7 -20 -24 -20l-624 6c-12 0 -19 8 -19 24l10 151c1 14 8 19 20 19l639 10c12 -1 16 -10 16 -19z" />
    <glyph glyph-name="Ibreve" unicode="&#x12c;" horiz-adv-x="682" 
d="M601 191l-3 -178c0 -16 -7 -20 -24 -20l-464 13c-12 0 -17 8 -18 24l-8 177c1 13 4 17 16 19l139 -10l-8 1089l-137 1c-14 0 -18 6 -18 22l16 176c1 16 8 19 24 21l467 -18c14 -1 17 -6 18 -23l-7 -159c-1 -18 -9 -22 -23 -22h-117l-3 -1093h134c12 0 16 -10 16 -19z
M717 1983c0 -180 -131 -345 -363 -345c-223 0 -394 127 -394 346c0 15 9 23 24 23l143 13c15 0 20 -8 21 -24c7 -106 93 -175 199 -175c108 0 163 63 182 165c3 16 6 24 21 24l143 -4c14 0 24 -8 24 -23z" />
    <glyph glyph-name="Idotaccent" unicode="&#x130;" horiz-adv-x="682" 
d="M601 191l-3 -178c0 -16 -7 -20 -24 -20l-464 13c-12 0 -17 8 -18 24l-8 177c1 13 4 17 16 19l139 -10l-8 1089l-137 1c-14 0 -18 6 -18 22l16 176c1 16 8 19 24 21l467 -18c14 -1 17 -6 18 -23l-7 -159c-1 -18 -9 -22 -23 -22h-117l-3 -1093h134c12 0 16 -10 16 -19z
M310 1725c-85 0 -116 35 -116 126c0 114 28 137 166 137c88 0 123 -25 123 -120c0 -125 -37 -143 -173 -143z" />
    <glyph glyph-name="Kcommaaccent" unicode="&#x136;" 
d="M836 1338l16 186c1 16 9 19 24 21l417 -8c13 -1 18 -6 18 -23l3 -179c0 -18 -9 -22 -23 -22l-111 1l-410 -582l374 -510l172 -12c19 -1 33 -11 33 -34l1 -147c0 -25 -10 -44 -37 -45l-262 -7c-18 1 -25 5 -35 20l-414 633l-121 -4v-406h104c12 0 16 -10 16 -19l7 -188
c-1 -16 -7 -20 -24 -20l-464 3c-12 0 -17 8 -18 24l-8 197c1 13 4 17 16 19l147 -9v1093l-143 -14c-14 0 -17 6 -18 22l-14 196c1 16 8 21 24 21l477 2c14 -1 17 -6 18 -23l-17 -189c-2 -18 -9 -22 -23 -22l-80 5v-520l126 8l339 509l-92 1c-14 0 -18 6 -18 22zM736 -527
c-5 -7 -12 -13 -22 -13l-95 36c-8 3 -14 7 -14 14c0 3 1 7 3 11c19 41 46 106 46 138c0 22 -17 37 -35 50c-19 14 -36 27 -36 47c0 67 83 143 148 143c96 0 128 -73 128 -146c0 -105 -65 -199 -123 -280z" />
    <glyph glyph-name="Lcommaaccent" unicode="&#x13b;" horiz-adv-x="1195" 
d="M1127 -19l-158 -24c-10 0 -19 7 -21 23l-5 48l-843 -35c-12 0 -17 8 -18 24l16 174c1 13 4 17 16 19l138 -6l9 1100l-136 -13c-14 0 -17 6 -18 22l-9 180c1 16 8 23 24 23l485 8c14 -1 20 -6 22 -23l19 -176c0 -18 -10 -21 -23 -22l-146 5l-3 -1099l446 23l-18 175
c0 12 8 20 23 21l162 15c24 0 41 -15 42 -39l18 -397c-1 -16 -6 -24 -22 -26zM644 -527c-5 -7 -12 -13 -22 -13l-95 36c-8 3 -14 7 -14 14c0 3 1 7 3 11c19 41 46 106 46 138c0 22 -17 37 -35 50c-19 14 -36 27 -36 47c0 67 83 143 148 143c96 0 128 -73 128 -146
c0 -105 -65 -199 -123 -280z" />
    <glyph glyph-name="Ncaron" unicode="&#x147;" horiz-adv-x="1536" 
d="M639 221l17 -198c-1 -16 -7 -20 -24 -20l-484 3c-12 0 -16 8 -18 24l-18 167c1 13 4 19 16 19l157 4v1081l-183 -8c-14 1 -16 6 -18 22l11 176c1 16 8 20 24 21l440 22c22 -1 29 -9 37 -28l567 -1274l-26 1079l-155 5c-14 0 -17 6 -18 22l6 166c1 16 8 21 24 21l447 2
c14 -1 17 -6 18 -23l13 -179c0 -18 -9 -22 -23 -22l-127 3l-2 -1267c0 -16 -7 -28 -24 -29l-242 -13c-12 0 -16 7 -23 22l-589 1305l24 -1094l157 10c12 0 15 -5 16 -19zM1156 1913l-306 -270c-17 -15 -29 -24 -42 -25l-98 -9c-15 0 -27 9 -46 25l-314 278c-5 5 -7 10 -7 15
c0 4 2 9 6 14l61 73c3 4 8 6 12 6s8 -2 12 -4l331 -184l298 181c5 3 11 6 16 6s10 -3 14 -8l60 -72c4 -5 8 -11 8 -17c0 -3 -1 -6 -5 -9z" />
    <glyph glyph-name="Ncommaaccent" unicode="&#x145;" horiz-adv-x="1536" 
d="M639 221l17 -198c-1 -16 -7 -20 -24 -20l-484 3c-12 0 -16 8 -18 24l-18 167c1 13 4 19 16 19l157 4v1081l-183 -8c-14 1 -16 6 -18 22l11 176c1 16 8 20 24 21l440 22c22 -1 29 -9 37 -28l567 -1274l-26 1079l-155 5c-14 0 -17 6 -18 22l6 166c1 16 8 21 24 21l447 2
c14 -1 17 -6 18 -23l13 -179c0 -18 -9 -22 -23 -22l-127 3l-2 -1267c0 -16 -7 -28 -24 -29l-242 -13c-12 0 -16 7 -23 22l-589 1305l24 -1094l157 10c12 0 15 -5 16 -19zM795 -527c-5 -7 -12 -13 -22 -13l-95 36c-8 3 -14 7 -14 14c0 3 1 7 3 11c19 41 46 106 46 138
c0 22 -17 37 -35 50c-19 14 -36 27 -36 47c0 67 83 143 148 143c96 0 128 -73 128 -146c0 -105 -65 -199 -123 -280z" />
    <glyph glyph-name="Omacron" unicode="&#x14c;" 
d="M105 751c0 502 185 789 566 789c378 0 589 -225 589 -789c0 -488 -176 -761 -561 -761c-390 0 -594 260 -594 761zM1034 745c0 463 -132 567 -361 567c-256 0 -344 -179 -344 -557c0 -410 124 -538 377 -538c244 0 328 164 328 528zM1021 1952l-18 -171
c-2 -16 -7 -20 -24 -20l-624 6c-12 0 -19 8 -19 24l10 151c1 14 8 19 20 19l639 10c12 -1 16 -10 16 -19z" />
    <glyph glyph-name="Obreve" unicode="&#x14e;" 
d="M105 751c0 502 185 789 566 789c378 0 589 -225 589 -789c0 -488 -176 -761 -561 -761c-390 0 -594 260 -594 761zM1034 745c0 463 -132 567 -361 567c-256 0 -344 -179 -344 -557c0 -410 124 -538 377 -538c244 0 328 164 328 528zM1061 1983
c0 -180 -131 -345 -363 -345c-223 0 -394 127 -394 346c0 15 9 23 24 23l143 13c15 0 20 -8 21 -24c7 -106 93 -175 199 -175c108 0 163 63 182 165c3 16 6 24 21 24l143 -4c14 0 24 -8 24 -23z" />
    <glyph glyph-name="Sacute" unicode="&#x15a;" horiz-adv-x="1196" 
d="M118 381l196 18c10 0 20 -7 21 -23l13 -162c102 -11 218 -15 301 -15c171 0 243 65 243 195c0 128 -80 167 -294 271c-294 142 -478 196 -478 465c0 246 192 422 460 422c113 0 210 -18 308 -45c62 18 143 39 165 39c16 0 29 -10 30 -27l-20 -415c-1 -15 -4 -23 -16 -23
l-168 6c-18 1 -20 9 -21 26l-8 220c-67 16 -127 28 -198 28c-145 0 -297 -53 -297 -209c0 -135 141 -180 385 -293c300 -139 392 -222 392 -446c0 -253 -151 -409 -450 -409c-97 0 -218 14 -320 32l7 -80c0 -12 -8 -18 -23 -18l-172 -5c-24 1 -40 15 -42 39l-38 387
c0 16 8 21 24 22zM894 2006l70 -164c3 -6 4 -12 4 -17c0 -9 -5 -16 -15 -20l-494 -207c-5 -2 -9 -3 -13 -3c-6 0 -10 3 -13 10l-39 92c-2 5 -4 10 -4 14c0 5 2 9 9 13l453 290c8 4 15 6 22 6c8 0 16 -4 20 -14z" />
    <glyph glyph-name="Scircumflex" unicode="&#x15c;" horiz-adv-x="1196" 
d="M118 381l196 18c10 0 20 -7 21 -23l13 -162c102 -11 218 -15 301 -15c171 0 243 65 243 195c0 128 -80 167 -294 271c-294 142 -478 196 -478 465c0 246 192 422 460 422c113 0 210 -18 308 -45c62 18 143 39 165 39c16 0 29 -10 30 -27l-20 -415c-1 -15 -4 -23 -16 -23
l-168 6c-18 1 -20 9 -21 26l-8 220c-67 16 -127 28 -198 28c-145 0 -297 -53 -297 -209c0 -135 141 -180 385 -293c300 -139 392 -222 392 -446c0 -253 -151 -409 -450 -409c-97 0 -218 14 -320 32l7 -80c0 -12 -8 -18 -23 -18l-172 -5c-24 1 -40 15 -42 39l-38 387
c0 16 8 21 24 22zM227 1748l298 237c18 14 35 24 45 25l95 10c15 0 27 -10 46 -26l302 -251c5 -5 7 -10 7 -15c0 -4 -2 -9 -6 -14l-61 -73c-3 -4 -8 -6 -12 -6s-8 2 -12 4l-320 159l-289 -150c-5 -3 -11 -6 -16 -6s-10 3 -14 8l-62 76c-3 4 -6 8 -6 13c0 3 1 6 5 9z" />
    <glyph glyph-name="Scedilla" unicode="&#x15e;" horiz-adv-x="1196" 
d="M591 -242c-12 0 -73 78 -73 95l40 157c-66 6 -135 15 -196 26l7 -80c0 -12 -8 -18 -23 -18l-172 -5c-24 1 -40 15 -42 39l-38 387c0 16 8 21 24 22l196 18c10 0 20 -7 21 -23l13 -162c102 -11 218 -15 301 -15c171 0 243 65 243 195c0 128 -80 167 -294 271
c-294 142 -478 196 -478 465c0 246 192 422 460 422c113 0 210 -18 308 -45c62 18 143 39 165 39c16 0 29 -10 30 -27l-20 -415c-1 -15 -4 -23 -16 -23l-168 6c-18 1 -20 9 -21 26l-8 220c-67 16 -127 28 -198 28c-145 0 -297 -53 -297 -209c0 -135 141 -180 385 -293
c300 -139 392 -222 392 -446c0 -253 -151 -409 -450 -409h-4l-17 -116c30 7 57 9 90 9c119 0 178 -89 178 -208c0 -151 -87 -211 -247 -211c-87 0 -212 28 -212 51l21 107c2 11 8 17 19 17c5 0 15 -2 36 -7c36 -9 89 -20 124 -20c66 0 83 36 83 69c0 39 -21 71 -84 71
c-24 0 -70 -8 -78 -8z" />
    <glyph glyph-name="Scommaaccent" unicode="&#x218;" horiz-adv-x="1196" 
d="M118 381l196 18c10 0 20 -7 21 -23l13 -162c102 -11 218 -15 301 -15c171 0 243 65 243 195c0 128 -80 167 -294 271c-294 142 -478 196 -478 465c0 246 192 422 460 422c113 0 210 -18 308 -45c62 18 143 39 165 39c16 0 29 -10 30 -27l-20 -415c-1 -15 -4 -23 -16 -23
l-168 6c-18 1 -20 9 -21 26l-8 220c-67 16 -127 28 -198 28c-145 0 -297 -53 -297 -209c0 -135 141 -180 385 -293c300 -139 392 -222 392 -446c0 -253 -151 -409 -450 -409c-97 0 -218 14 -320 32l7 -80c0 -12 -8 -18 -23 -18l-172 -5c-24 1 -40 15 -42 39l-38 387
c0 16 8 21 24 22zM643 -527c-5 -7 -12 -13 -22 -13l-95 36c-8 3 -14 7 -14 14c0 3 1 7 3 11c19 41 46 106 46 138c0 22 -17 37 -35 50c-19 14 -36 27 -36 47c0 67 83 143 148 143c96 0 128 -73 128 -146c0 -105 -65 -199 -123 -280z" />
    <glyph glyph-name="Tcaron" unicode="&#x164;" 
d="M1232 1038l-171 8c-16 2 -19 7 -20 24l3 247l-258 -4l17 -1088l193 11c12 -2 16 -6 16 -19l2 -177c-1 -16 -6 -24 -18 -24l-594 -13c-17 0 -23 4 -24 20l7 198c0 9 4 19 16 19l178 -11l-18 1078l-252 -14l1 -212c-1 -14 -8 -19 -24 -20l-173 -12c-9 1 -19 8 -21 24l9 469
c0 14 7 18 23 18l164 -20c15 0 20 -6 20 -23v-26l767 8l184 20c14 0 22 -7 22 -22l-30 -443c-1 -12 -10 -16 -19 -16zM1077 1913l-306 -270c-17 -15 -29 -24 -42 -25l-98 -9c-15 0 -27 9 -46 25l-314 278c-5 5 -7 10 -7 15c0 4 2 9 6 14l61 73c3 4 8 6 12 6s8 -2 12 -4
l331 -184l298 181c5 3 11 6 16 6s10 -3 14 -8l60 -72c4 -5 8 -11 8 -17c0 -3 -1 -6 -5 -9z" />
    <glyph glyph-name="Tcommaaccent" unicode="&#x162;" 
d="M1232 1038l-171 8c-16 2 -19 7 -20 24l3 247l-258 -4l17 -1088l193 11c12 -2 16 -6 16 -19l2 -177c-1 -16 -6 -24 -18 -24l-594 -13c-17 0 -23 4 -24 20l7 198c0 9 4 19 16 19l178 -11l-18 1078l-252 -14l1 -212c-1 -14 -8 -19 -24 -20l-173 -12c-9 1 -19 8 -21 24l9 469
c0 14 7 18 23 18l164 -20c15 0 20 -6 20 -23v-26l767 8l184 20c14 0 22 -7 22 -22l-30 -443c-1 -12 -10 -16 -19 -16zM716 -527c-5 -7 -12 -13 -22 -13l-95 36c-8 3 -14 7 -14 14c0 3 1 7 3 11c19 41 46 106 46 138c0 22 -17 37 -35 50c-19 14 -36 27 -36 47
c0 67 83 143 148 143c96 0 128 -73 128 -146c0 -105 -65 -199 -123 -280z" />
    <glyph glyph-name="Utilde" unicode="&#x168;" horiz-adv-x="1538" 
d="M1431 181l-13 -178c-1 -16 -7 -20 -24 -20l-343 -7c-14 0 -23 9 -23 24l1 227c-114 -135 -264 -215 -418 -215c-253 0 -392 188 -392 526c0 249 7 377 39 768l-164 -13c-14 0 -16 5 -18 22l11 186c1 16 8 20 24 21l432 15c14 -1 18 -6 18 -23l-14 -176
c-2 -19 -9 -22 -23 -22h-48c-22 -382 -29 -488 -29 -694c0 -298 103 -376 224 -376c123 0 270 64 359 144l6 890l-107 -4c-9 0 -14 9 -14 22l6 186c1 16 8 21 24 21l448 12c13 -1 18 -6 18 -23l3 -179c0 -17 -10 -22 -23 -22l-140 -5v-1104l164 16c12 0 16 -10 16 -19z
M383 1751l-32 91c0 9 5 14 13 22c66 71 176 148 250 148c37 0 86 -24 136 -52c54 -30 109 -60 151 -60c62 0 133 37 177 62c21 12 36 19 42 19c10 0 15 -6 20 -19l33 -78c2 -5 2 -8 2 -11c0 -9 -5 -15 -12 -22c-59 -65 -168 -161 -260 -161c-46 0 -101 28 -154 55
s-104 53 -148 53c-38 0 -107 -31 -152 -52c-20 -9 -36 -15 -42 -15c-15 0 -19 4 -24 20z" />
    <glyph glyph-name="Umacron" unicode="&#x16a;" horiz-adv-x="1538" 
d="M1431 181l-13 -178c-1 -16 -7 -20 -24 -20l-343 -7c-14 0 -23 9 -23 24l1 227c-114 -135 -264 -215 -418 -215c-253 0 -392 188 -392 526c0 249 7 377 39 768l-164 -13c-14 0 -16 5 -18 22l11 186c1 16 8 20 24 21l432 15c14 -1 18 -6 18 -23l-14 -176
c-2 -19 -9 -22 -23 -22h-48c-22 -382 -29 -488 -29 -694c0 -298 103 -376 224 -376c123 0 270 64 359 144l6 890l-107 -4c-9 0 -14 9 -14 22l6 186c1 16 8 21 24 21l448 12c13 -1 18 -6 18 -23l3 -179c0 -17 -10 -22 -23 -22l-140 -5v-1104l164 16c12 0 16 -10 16 -19z
M1102 1952l-18 -171c-2 -16 -7 -20 -24 -20l-624 6c-12 0 -19 8 -19 24l10 151c1 14 8 19 20 19l639 10c12 -1 16 -10 16 -19z" />
    <glyph glyph-name="Ubreve" unicode="&#x16c;" horiz-adv-x="1538" 
d="M1431 181l-13 -178c-1 -16 -7 -20 -24 -20l-343 -7c-14 0 -23 9 -23 24l1 227c-114 -135 -264 -215 -418 -215c-253 0 -392 188 -392 526c0 249 7 377 39 768l-164 -13c-14 0 -16 5 -18 22l11 186c1 16 8 20 24 21l432 15c14 -1 18 -6 18 -23l-14 -176
c-2 -19 -9 -22 -23 -22h-48c-22 -382 -29 -488 -29 -694c0 -298 103 -376 224 -376c123 0 270 64 359 144l6 890l-107 -4c-9 0 -14 9 -14 22l6 186c1 16 8 21 24 21l448 12c13 -1 18 -6 18 -23l3 -179c0 -17 -10 -22 -23 -22l-140 -5v-1104l164 16c12 0 16 -10 16 -19z
M1142 1983c0 -180 -131 -345 -363 -345c-223 0 -394 127 -394 346c0 15 9 23 24 23l143 13c15 0 20 -8 21 -24c7 -106 93 -175 199 -175c108 0 163 63 182 165c3 16 6 24 21 24l143 -4c14 0 24 -8 24 -23z" />
    <glyph glyph-name="Uring" unicode="&#x16e;" horiz-adv-x="1538" 
d="M1431 181l-13 -178c-1 -16 -7 -20 -24 -20l-343 -7c-14 0 -23 9 -23 24l1 227c-114 -135 -264 -215 -418 -215c-253 0 -392 188 -392 526c0 249 7 377 39 768l-164 -13c-14 0 -16 5 -18 22l11 186c1 16 8 20 24 21l432 15c14 -1 18 -6 18 -23l-14 -176
c-2 -19 -9 -22 -23 -22h-48c-22 -382 -29 -488 -29 -694c0 -298 103 -376 224 -376c123 0 270 64 359 144l6 890l-107 -4c-9 0 -14 9 -14 22l6 186c1 16 8 21 24 21l448 12c13 -1 18 -6 18 -23l3 -179c0 -17 -10 -22 -23 -22l-140 -5v-1104l164 16c12 0 16 -10 16 -19z
M764 1515c-189 0 -281 85 -281 241c0 153 74 264 284 264c197 0 276 -85 276 -244c0 -161 -77 -261 -279 -261zM769 1884c-105 0 -123 -61 -123 -117c0 -64 26 -111 117 -111c89 0 123 56 123 122c0 61 -30 106 -117 106z" />
    <glyph glyph-name="Uhungarumlaut" unicode="&#x170;" horiz-adv-x="1538" 
d="M1431 181l-13 -178c-1 -16 -7 -20 -24 -20l-343 -7c-14 0 -23 9 -23 24l1 227c-114 -135 -264 -215 -418 -215c-253 0 -392 188 -392 526c0 249 7 377 39 768l-164 -13c-14 0 -16 5 -18 22l11 186c1 16 8 20 24 21l432 15c14 -1 18 -6 18 -23l-14 -176
c-2 -19 -9 -22 -23 -22h-48c-22 -382 -29 -488 -29 -694c0 -298 103 -376 224 -376c123 0 270 64 359 144l6 890l-107 -4c-9 0 -14 9 -14 22l6 186c1 16 8 21 24 21l448 12c13 -1 18 -6 18 -23l3 -179c0 -17 -10 -22 -23 -22l-140 -5v-1104l164 16c12 0 16 -10 16 -19z
M1160 2010l153 -90c5 -3 7 -8 7 -14c0 -7 -4 -15 -9 -20l-276 -269c-3 -3 -7 -4 -11 -4c-5 0 -11 2 -15 4l-88 47c-6 3 -9 10 -9 18c0 6 2 12 5 16l200 311c5 8 11 10 18 10c8 0 17 -4 25 -9zM671 2011l146 -98c5 -3 8 -7 8 -13c0 -7 -4 -14 -10 -21l-256 -258
c-4 -4 -9 -5 -14 -5s-9 1 -13 3l-91 47c-6 3 -9 10 -9 17c0 6 2 12 5 17l189 309c6 10 13 11 21 11c7 0 16 -4 24 -9z" />
    <glyph glyph-name="Ohungarumlaut" unicode="&#x150;" 
d="M105 751c0 502 185 789 566 789c378 0 589 -225 589 -789c0 -488 -176 -761 -561 -761c-390 0 -594 260 -594 761zM1034 745c0 463 -132 567 -361 567c-256 0 -344 -179 -344 -557c0 -410 124 -538 377 -538c244 0 328 164 328 528zM1079 2010l153 -90c5 -3 7 -8 7 -14
c0 -7 -4 -15 -9 -20l-276 -269c-3 -3 -7 -4 -11 -4c-5 0 -11 2 -15 4l-88 47c-6 3 -9 10 -9 18c0 6 2 12 5 16l200 311c5 8 11 10 18 10c8 0 17 -4 25 -9zM590 2011l146 -98c5 -3 8 -7 8 -13c0 -7 -4 -14 -10 -21l-256 -258c-4 -4 -9 -5 -14 -5s-9 1 -13 3l-91 47
c-6 3 -9 10 -9 17c0 6 2 12 5 17l189 309c6 10 13 11 21 11c7 0 16 -4 24 -9z" />
    <glyph glyph-name="Ygrave" unicode="&#x1ef2;" 
d="M980 193l-16 -176c-1 -16 -8 -19 -24 -21l-532 15c-14 0 -17 6 -18 23l7 169c1 18 9 22 23 22l157 -3l3 337l-428 748l-86 -6c-19 0 -28 8 -28 32l-10 170c0 22 9 27 31 27h483c24 0 24 -11 24 -30l-10 -165c-1 -23 -9 -27 -30 -28l-110 4l298 -599l288 591l-127 -3
c-16 0 -21 6 -23 23l-15 167c1 22 10 30 30 30l456 7c17 -1 22 -13 22 -32l-10 -162c-1 -21 -8 -29 -30 -29h-87l-415 -746l-7 -340l166 -3c14 0 18 -6 18 -22zM396 1842l70 164c4 10 12 14 20 14c7 0 14 -2 22 -6l492 -276c7 -4 9 -8 9 -13c0 -4 -2 -9 -4 -14l-39 -92
c-3 -7 -7 -10 -13 -10c-4 0 -8 1 -13 3l-533 193c-10 4 -15 11 -15 20c0 5 1 11 4 17z" />
    <glyph glyph-name="Ycircumflex" unicode="&#x176;" 
d="M980 193l-16 -176c-1 -16 -8 -19 -24 -21l-532 15c-14 0 -17 6 -18 23l7 169c1 18 9 22 23 22l157 -3l3 337l-428 748l-86 -6c-19 0 -28 8 -28 32l-10 170c0 22 9 27 31 27h483c24 0 24 -11 24 -30l-10 -165c-1 -23 -9 -27 -30 -28l-110 4l298 -599l288 591l-127 -3
c-16 0 -21 6 -23 23l-15 167c1 22 10 30 30 30l456 7c17 -1 22 -13 22 -32l-10 -162c-1 -21 -8 -29 -30 -29h-87l-415 -746l-7 -340l166 -3c14 0 18 -6 18 -22zM319 1748l298 237c18 14 35 24 45 25l95 10c15 0 27 -10 46 -26l302 -251c5 -5 7 -10 7 -15c0 -4 -2 -9 -6 -14
l-61 -73c-3 -4 -8 -6 -12 -6s-8 2 -12 4l-320 159l-289 -150c-5 -3 -11 -6 -16 -6s-10 3 -14 8l-62 76c-3 4 -6 8 -6 13c0 3 1 6 5 9z" />
    <glyph glyph-name="Zacute" unicode="&#x179;" horiz-adv-x="1196" 
d="M322 1081l-167 -3c-15 2 -19 7 -20 22l13 399c1 19 5 25 22 27l187 -23l700 39c29 0 40 -21 44 -47l26 -198l-745 -1090l542 -12l5 141c1 15 5 26 21 26l178 -4c12 0 16 -8 16 -23l-12 -395c0 -15 -7 -20 -20 -21l-174 -12c-17 1 -23 11 -24 28l3 77l-718 11
c-37 1 -56 16 -60 53l-16 155l751 1111l-509 -17l-19 -222c-1 -15 -11 -22 -24 -22zM884 2006l70 -164c3 -6 4 -12 4 -17c0 -9 -5 -16 -15 -20l-494 -207c-5 -2 -9 -3 -13 -3c-6 0 -10 3 -13 10l-39 92c-2 5 -4 10 -4 14c0 5 2 9 9 13l453 290c8 4 15 6 22 6
c8 0 16 -4 20 -14z" />
    <glyph glyph-name="Zdotaccent" unicode="&#x17b;" horiz-adv-x="1196" 
d="M322 1081l-167 -3c-15 2 -19 7 -20 22l13 399c1 19 5 25 22 27l187 -23l700 39c29 0 40 -21 44 -47l26 -198l-745 -1090l542 -12l5 141c1 15 5 26 21 26l178 -4c12 0 16 -8 16 -23l-12 -395c0 -15 -7 -20 -20 -21l-174 -12c-17 1 -23 11 -24 28l3 77l-718 11
c-37 1 -56 16 -60 53l-16 155l751 1111l-509 -17l-19 -222c-1 -15 -11 -22 -24 -22zM575 1725c-85 0 -116 35 -116 126c0 114 28 137 166 137c88 0 123 -25 123 -120c0 -125 -37 -143 -173 -143z" />
    <glyph glyph-name="amacron" unicode="&#x101;" horiz-adv-x="1196" 
d="M1154 147l-18 -158c-2 -16 -7 -19 -22 -20l-289 -18c-12 0 -14 8 -14 22l14 117c-100 -77 -228 -129 -363 -129c-197 0 -357 124 -357 342c0 288 194 365 558 365c41 0 83 -1 128 -3c1 34 1 65 1 86c0 133 -58 195 -171 195c-63 0 -146 -24 -220 -54c3 -24 6 -54 6 -68
c0 -17 -6 -22 -22 -22l-169 -3c-15 2 -19 7 -20 22l-17 286c0 19 5 25 22 27l167 22c17 0 21 -7 21 -22v-83c90 50 226 100 333 100c176 0 296 -100 296 -368c0 -130 -12 -463 -20 -628c37 3 80 6 135 11c15 0 21 -8 21 -19zM532 150c97 0 192 38 253 66c2 87 3 200 5 303
c-362 -1 -459 -54 -459 -193c0 -121 79 -176 201 -176zM969 1592l-18 -171c-2 -16 -7 -20 -24 -20l-629 6c-12 0 -14 8 -14 24l10 151c1 14 4 19 16 19l643 10c12 -1 16 -10 16 -19z" />
    <glyph glyph-name="abreve" unicode="&#x103;" horiz-adv-x="1196" 
d="M1154 147l-18 -158c-2 -16 -7 -19 -22 -20l-289 -18c-12 0 -14 8 -14 22l14 117c-100 -77 -228 -129 -363 -129c-197 0 -357 124 -357 342c0 288 194 365 558 365c41 0 83 -1 128 -3c1 34 1 65 1 86c0 133 -58 195 -171 195c-63 0 -146 -24 -220 -54c3 -24 6 -54 6 -68
c0 -17 -6 -22 -22 -22l-169 -3c-15 2 -19 7 -20 22l-17 286c0 19 5 25 22 27l167 22c17 0 21 -7 21 -22v-83c90 50 226 100 333 100c176 0 296 -100 296 -368c0 -130 -12 -463 -20 -628c37 3 80 6 135 11c15 0 21 -8 21 -19zM532 150c97 0 192 38 253 66c2 87 3 200 5 303
c-362 -1 -459 -54 -459 -193c0 -121 79 -176 201 -176zM1018 1675c0 -180 -131 -345 -363 -345c-223 0 -394 127 -394 346c0 15 9 22 24 23l143 13c15 0 20 -8 21 -24c7 -106 93 -175 199 -175c108 0 163 63 182 165c3 16 6 24 21 24l143 -4c14 0 24 -8 24 -23z" />
    <glyph glyph-name="cacute" unicode="&#x107;" horiz-adv-x="1024" 
d="M697 1124l188 35c15 -2 19 -7 20 -22l17 -356c-1 -19 -6 -25 -22 -27l-167 -22c-17 0 -21 7 -21 22v169c-40 9 -79 15 -122 15c-235 0 -284 -127 -284 -385c0 -305 80 -365 217 -365c72 0 118 8 173 19l4 69c1 15 5 25 21 26l158 -6c12 -1 15 -8 16 -23l18 -313
c0 -13 -6 -21 -20 -21h-192c-12 0 -16 7 -17 19l3 57c-68 -13 -132 -22 -188 -22c-282 0 -405 155 -405 524c0 295 21 636 390 636c72 0 144 -12 213 -29zM723 1799l133 -150c3 -4 5 -10 5 -15c0 -7 -2 -14 -8 -19l-462 -340c-3 -2 -7 -4 -11 -4c-5 0 -9 2 -13 6l-67 68
c-5 6 -8 13 -8 20c0 5 2 10 5 14l383 420c6 7 14 11 22 11c7 0 15 -4 21 -11z" />
    <glyph glyph-name="ccircumflex" unicode="&#x109;" horiz-adv-x="1024" 
d="M697 1124l188 35c15 -2 19 -7 20 -22l17 -356c-1 -19 -6 -25 -22 -27l-167 -22c-17 0 -21 7 -21 22v169c-40 9 -79 15 -122 15c-235 0 -284 -127 -284 -385c0 -305 80 -365 217 -365c72 0 118 8 173 19l4 69c1 15 5 25 21 26l158 -6c12 -1 15 -8 16 -23l18 -313
c0 -13 -6 -21 -20 -21h-192c-12 0 -16 7 -17 19l3 57c-68 -13 -132 -22 -188 -22c-282 0 -405 155 -405 524c0 295 21 636 390 636c72 0 144 -12 213 -29zM133 1368l318 377c10 11 24 23 42 25l101 10c16 0 32 -11 47 -30l298 -381c3 -4 5 -10 5 -15c0 -7 -3 -14 -8 -19
l-67 -68c-4 -4 -9 -6 -14 -6c-4 0 -7 1 -10 4l-310 280l-299 -277c-5 -4 -10 -6 -14 -6c-6 0 -11 3 -16 8l-70 72c-5 5 -8 10 -8 15c0 3 1 7 5 11z" />
    <glyph glyph-name="ccaron" unicode="&#x10d;" horiz-adv-x="1024" 
d="M697 1124l188 35c15 -2 19 -7 20 -22l17 -356c-1 -19 -6 -25 -22 -27l-167 -22c-17 0 -21 7 -21 22v169c-40 9 -79 15 -122 15c-235 0 -284 -127 -284 -385c0 -305 80 -365 217 -365c72 0 118 8 173 19l4 69c1 15 5 25 21 26l158 -6c12 -1 15 -8 16 -23l18 -313
c0 -13 -6 -21 -20 -21h-192c-12 0 -16 7 -17 19l3 57c-68 -13 -132 -22 -188 -22c-282 0 -405 155 -405 524c0 295 21 636 390 636c72 0 144 -12 213 -29zM939 1673l-318 -377c-10 -11 -24 -23 -42 -25l-101 -10c-16 0 -32 11 -47 30l-298 381c-3 4 -5 10 -5 15
c0 7 3 14 8 19l67 68c4 4 9 6 14 6c4 0 7 -1 10 -4l310 -280l299 277c4 4 8 6 13 6c6 0 12 -3 17 -8l70 -72c4 -4 7 -9 7 -15c0 -4 -1 -7 -4 -11z" />
    <glyph glyph-name="cdotaccent" unicode="&#x10b;" horiz-adv-x="1024" 
d="M697 1124l188 35c15 -2 19 -7 20 -22l17 -356c-1 -19 -6 -25 -22 -27l-167 -22c-17 0 -21 7 -21 22v169c-40 9 -79 15 -122 15c-235 0 -284 -127 -284 -385c0 -305 80 -365 217 -365c72 0 118 8 173 19l4 69c1 15 5 25 21 26l158 -6c12 -1 15 -8 16 -23l18 -313
c0 -13 -6 -21 -20 -21h-192c-12 0 -16 7 -17 19l3 57c-68 -13 -132 -22 -188 -22c-282 0 -405 155 -405 524c0 295 21 636 390 636c72 0 144 -12 213 -29zM514 1337c-100 0 -122 20 -122 126c0 114 28 137 166 137c100 0 123 -13 123 -120c0 -124 -32 -142 -167 -143z" />
    <glyph glyph-name="aeacute" unicode="&#x1fd;" horiz-adv-x="1771" 
d="M1606 -69l-166 -20c-16 0 -22 6 -22 22c0 13 2 46 4 73c-75 -20 -173 -32 -285 -32c-137 0 -236 41 -300 134c-93 -89 -187 -147 -389 -147c-187 0 -343 120 -343 325c0 248 166 352 518 352c42 0 86 -1 132 -3c0 41 -1 85 -3 116c-9 133 -58 195 -171 195
c-63 0 -146 -24 -220 -54c3 -18 6 -50 6 -68c0 -17 -6 -22 -22 -22l-169 -3c-15 2 -19 7 -20 22l-17 286c0 19 5 25 22 27l167 22c17 0 21 -7 21 -22v-84c101 54 202 94 348 94c89 0 165 -40 209 -132c85 89 207 141 375 141c245 0 353 -108 353 -352
c0 -312 -224 -320 -560 -320c-37 0 -74 0 -111 2c18 -273 105 -317 266 -317c39 0 138 8 205 20l3 63c1 16 6 19 22 23l144 32c14 0 24 -2 25 -19l22 -310c0 -33 -20 -41 -44 -44zM528 149c100 0 183 27 257 70c-23 72 -34 162 -35 270c-334 -1 -419 -66 -419 -191
c0 -104 87 -149 197 -149zM1406 800c0 102 -37 163 -160 163c-93 0 -184 -21 -227 -86c-40 -60 -56 -156 -59 -249c34 -2 68 -3 101 -3c211 0 345 4 345 175zM1064 1799l133 -150c3 -4 5 -10 5 -15c0 -7 -2 -14 -8 -19l-462 -340c-3 -2 -7 -4 -11 -4c-5 0 -9 2 -13 6l-67 68
c-5 6 -8 13 -8 20c0 5 2 10 5 14l383 420c6 7 14 11 22 11c7 0 15 -4 21 -11z" />
    <glyph glyph-name="ecaron" unicode="&#x11b;" horiz-adv-x="1196" 
d="M1031 -69l-166 -20c-16 0 -22 6 -22 22l4 73c-84 -20 -212 -32 -325 -32c-264 0 -387 154 -387 533c0 166 16 325 81 439c82 143 220 207 450 207c247 0 353 -120 353 -369c0 -122 -29 -178 -74 -228c-82 -91 -366 -102 -598 -102c19 -244 112 -278 267 -278
c40 0 168 9 245 21l3 52c1 16 6 19 22 23l144 32c14 0 23 -2 25 -19c3 -23 22 -279 22 -310c0 -33 -20 -41 -44 -44zM791 790c0 102 -37 173 -160 173c-93 0 -183 -22 -227 -86c-40 -59 -56 -156 -60 -276c173 2 363 18 410 60c34 30 37 70 37 129zM1008 1673l-318 -377
c-10 -11 -24 -23 -42 -25l-101 -10c-16 0 -32 11 -47 30l-298 381c-3 4 -5 10 -5 15c0 7 3 14 8 19l67 68c4 4 9 6 14 6c4 0 7 -1 10 -4l310 -280l299 277c4 4 8 6 13 6c6 0 12 -3 17 -8l70 -72c4 -4 7 -9 7 -15c0 -4 -1 -7 -4 -11z" />
    <glyph glyph-name="emacron" unicode="&#x113;" horiz-adv-x="1196" 
d="M1031 -69l-166 -20c-16 0 -22 6 -22 22l4 73c-84 -20 -212 -32 -325 -32c-264 0 -387 154 -387 533c0 166 16 325 81 439c82 143 220 207 450 207c247 0 353 -120 353 -369c0 -122 -29 -178 -74 -228c-82 -91 -366 -102 -598 -102c19 -244 112 -278 267 -278
c40 0 168 9 245 21l3 52c1 16 6 19 22 23l144 32c14 0 23 -2 25 -19c3 -23 22 -279 22 -310c0 -33 -20 -41 -44 -44zM791 790c0 102 -37 173 -160 173c-93 0 -183 -22 -227 -86c-40 -59 -56 -156 -60 -276c173 2 363 18 410 60c34 30 37 70 37 129zM945 1592l-18 -171
c-2 -16 -7 -20 -24 -20l-629 6c-12 0 -14 8 -14 24l10 151c1 14 4 19 16 19l643 10c12 -1 16 -10 16 -19z" />
    <glyph glyph-name="ebreve" unicode="&#x115;" horiz-adv-x="1196" 
d="M1031 -69l-166 -20c-16 0 -22 6 -22 22l4 73c-84 -20 -212 -32 -325 -32c-264 0 -387 154 -387 533c0 166 16 325 81 439c82 143 220 207 450 207c247 0 353 -120 353 -369c0 -122 -29 -178 -74 -228c-82 -91 -366 -102 -598 -102c19 -244 112 -278 267 -278
c40 0 168 9 245 21l3 52c1 16 6 19 22 23l144 32c14 0 23 -2 25 -19c3 -23 22 -279 22 -310c0 -33 -20 -41 -44 -44zM791 790c0 102 -37 173 -160 173c-93 0 -183 -22 -227 -86c-40 -59 -56 -156 -60 -276c173 2 363 18 410 60c34 30 37 70 37 129zM994 1675
c0 -180 -131 -345 -363 -345c-223 0 -394 127 -394 346c0 15 9 22 24 23l143 13c15 0 20 -8 21 -24c7 -106 93 -175 199 -175c108 0 163 63 182 165c3 16 6 24 21 24l143 -4c14 0 24 -8 24 -23z" />
    <glyph glyph-name="edotaccent" unicode="&#x117;" horiz-adv-x="1196" 
d="M1031 -69l-166 -20c-16 0 -22 6 -22 22l4 73c-84 -20 -212 -32 -325 -32c-264 0 -387 154 -387 533c0 166 16 325 81 439c82 143 220 207 450 207c247 0 353 -120 353 -369c0 -122 -29 -178 -74 -228c-82 -91 -366 -102 -598 -102c19 -244 112 -278 267 -278
c40 0 168 9 245 21l3 52c1 16 6 19 22 23l144 32c14 0 23 -2 25 -19c3 -23 22 -279 22 -310c0 -33 -20 -41 -44 -44zM791 790c0 102 -37 173 -160 173c-93 0 -183 -22 -227 -86c-40 -59 -56 -156 -60 -276c173 2 363 18 410 60c34 30 37 70 37 129zM583 1337
c-100 0 -122 20 -122 126c0 114 28 137 166 137c100 0 123 -13 123 -120c0 -124 -32 -142 -167 -143z" />
    <glyph glyph-name="gcircumflex" unicode="&#x11d;" horiz-adv-x="1196" 
d="M1125 1105l-13 -157c-1 -16 -9 -21 -23 -21l-180 35c63 -67 107 -141 107 -202c0 -257 -125 -400 -453 -400c-57 0 -115 6 -170 20c-15 -33 -24 -68 -24 -103c0 -59 23 -78 128 -78c24 0 52 1 86 3c62 3 122 6 190 6c235 0 323 -144 323 -309c0 -207 -170 -384 -535 -384
c-274 0 -431 62 -431 255c0 91 49 184 115 270c-58 33 -80 84 -80 140c0 69 44 160 116 246c-95 57 -162 157 -162 323c0 282 200 402 460 402c73 0 144 -2 216 -4c95 -3 193 -6 301 -6c21 0 28 -16 29 -36zM813 762c0 126 -72 214 -228 214c-144 0 -254 -61 -254 -229
c0 -135 83 -205 254 -205c173 0 228 100 228 220zM439 2c-26 0 -50 1 -71 3c-20 -49 -33 -111 -33 -171c0 -87 78 -127 256 -127c197 0 305 71 305 167c0 70 -24 136 -183 136c-56 0 -112 -2 -162 -4c-43 -2 -81 -4 -112 -4zM219 1368l318 377c10 11 24 23 42 25l101 10
c16 0 32 -11 47 -30l298 -381c3 -4 5 -10 5 -15c0 -7 -3 -14 -8 -19l-67 -68c-4 -4 -9 -6 -14 -6c-4 0 -7 1 -10 4l-310 280l-299 -277c-5 -4 -10 -6 -14 -6c-6 0 -11 3 -16 8l-70 72c-5 5 -8 10 -8 15c0 3 1 7 5 11z" />
    <glyph glyph-name="gbreve" unicode="&#x11f;" horiz-adv-x="1196" 
d="M1125 1105l-13 -157c-1 -16 -9 -21 -23 -21l-180 35c63 -67 107 -141 107 -202c0 -257 -125 -400 -453 -400c-57 0 -115 6 -170 20c-15 -33 -24 -68 -24 -103c0 -59 23 -78 128 -78c24 0 52 1 86 3c62 3 122 6 190 6c235 0 323 -144 323 -309c0 -207 -170 -384 -535 -384
c-274 0 -431 62 -431 255c0 91 49 184 115 270c-58 33 -80 84 -80 140c0 69 44 160 116 246c-95 57 -162 157 -162 323c0 282 200 402 460 402c73 0 144 -2 216 -4c95 -3 193 -6 301 -6c21 0 28 -16 29 -36zM813 762c0 126 -72 214 -228 214c-144 0 -254 -61 -254 -229
c0 -135 83 -205 254 -205c173 0 228 100 228 220zM439 2c-26 0 -50 1 -71 3c-20 -49 -33 -111 -33 -171c0 -87 78 -127 256 -127c197 0 305 71 305 167c0 70 -24 136 -183 136c-56 0 -112 -2 -162 -4c-43 -2 -81 -4 -112 -4zM1011 1675c0 -180 -131 -345 -363 -345
c-223 0 -394 127 -394 346c0 15 9 22 24 23l143 13c15 0 20 -8 21 -24c7 -106 93 -175 199 -175c108 0 163 63 182 165c3 16 6 24 21 24l143 -4c14 0 24 -8 24 -23z" />
    <glyph glyph-name="gdotaccent" unicode="&#x121;" horiz-adv-x="1196" 
d="M1125 1105l-13 -157c-1 -16 -9 -21 -23 -21l-180 35c63 -67 107 -141 107 -202c0 -257 -125 -400 -453 -400c-57 0 -115 6 -170 20c-15 -33 -24 -68 -24 -103c0 -59 23 -78 128 -78c24 0 52 1 86 3c62 3 122 6 190 6c235 0 323 -144 323 -309c0 -207 -170 -384 -535 -384
c-274 0 -431 62 -431 255c0 91 49 184 115 270c-58 33 -80 84 -80 140c0 69 44 160 116 246c-95 57 -162 157 -162 323c0 282 200 402 460 402c73 0 144 -2 216 -4c95 -3 193 -6 301 -6c21 0 28 -16 29 -36zM813 762c0 126 -72 214 -228 214c-144 0 -254 -61 -254 -229
c0 -135 83 -205 254 -205c173 0 228 100 228 220zM439 2c-26 0 -50 1 -71 3c-20 -49 -33 -111 -33 -171c0 -87 78 -127 256 -127c197 0 305 71 305 167c0 70 -24 136 -183 136c-56 0 -112 -2 -162 -4c-43 -2 -81 -4 -112 -4zM590 1337c-100 0 -122 20 -122 126
c0 114 28 137 166 137c100 0 123 -13 123 -120c0 -124 -32 -142 -167 -143z" />
    <glyph glyph-name="imacron" unicode="&#x12b;" horiz-adv-x="683" 
d="M625 161l-18 -131c-2 -16 -7 -19 -24 -20l-433 -24c-12 0 -14 8 -14 24v151c0 14 4 19 16 19h120l8 699l-162 17c-14 1 -18 6 -18 22l22 165c2 14 8 19 24 21l321 33c14 0 17 -7 18 -23l13 -182l-3 -752h114c12 0 16 -10 16 -19zM702 1592l-18 -171
c-2 -16 -7 -20 -24 -20l-629 6c-12 0 -14 8 -14 24l10 151c1 14 4 19 16 19l643 10c12 -1 16 -10 16 -19z" />
    <glyph glyph-name="ibreve" unicode="&#x12d;" horiz-adv-x="683" 
d="M625 161l-18 -131c-2 -16 -7 -19 -24 -20l-433 -24c-12 0 -14 8 -14 24v151c0 14 4 19 16 19h120l8 699l-162 17c-14 1 -18 6 -18 22l22 165c2 14 8 19 24 21l321 33c14 0 17 -7 18 -23l13 -182l-3 -752h114c12 0 16 -10 16 -19zM751 1675c0 -180 -131 -345 -363 -345
c-223 0 -394 127 -394 346c0 15 9 22 24 23l143 13c15 0 20 -8 21 -24c7 -106 93 -175 199 -175c108 0 163 63 182 165c3 16 6 24 21 24l143 -4c14 0 24 -8 24 -23z" />
    <glyph glyph-name="ygrave" unicode="&#x1ef3;" horiz-adv-x="1197" 
d="M347 -366l219 419l-86 -3c-14 0 -17 7 -22 18l-336 841l-95 -2c-14 0 -21 6 -21 24l10 169c0 16 7 20 23 20l454 10c12 0 18 -8 18 -22l5 -170c-2 -17 -6 -21 -22 -21l-131 -3l260 -735l236 740l-137 -13c-12 0 -16 5 -17 17l9 185c1 15 7 22 22 22l437 10
c11 -1 16 -10 16 -24l-10 -173c-1 -15 -6 -21 -22 -21l-88 8l-482 -1360c-5 -15 -12 -24 -24 -24l-198 54c-14 2 -22 8 -22 20c0 4 1 9 4 14zM297 1649l133 150c6 7 14 11 21 11c8 0 16 -4 22 -11l383 -420c3 -4 5 -9 5 -14c0 -7 -3 -14 -8 -20l-67 -68c-3 -3 -8 -6 -13 -6
c-4 0 -8 1 -11 4l-462 340c-6 5 -8 12 -8 19c0 5 2 11 5 15z" />
    <glyph glyph-name="ycircumflex" unicode="&#x177;" horiz-adv-x="1197" 
d="M347 -366l219 419l-86 -3c-14 0 -17 7 -22 18l-336 841l-95 -2c-14 0 -21 6 -21 24l10 169c0 16 7 20 23 20l454 10c12 0 18 -8 18 -22l5 -170c-2 -17 -6 -21 -22 -21l-131 -3l260 -735l236 740l-137 -13c-12 0 -16 5 -17 17l9 185c1 15 7 22 22 22l437 10
c11 -1 16 -10 16 -24l-10 -173c-1 -15 -6 -21 -22 -21l-88 8l-482 -1360c-5 -15 -12 -24 -24 -24l-198 54c-14 2 -22 8 -22 20c0 4 1 9 4 14zM223 1368l318 377c10 11 24 23 42 25l101 10c16 0 32 -11 47 -30l298 -381c3 -4 5 -10 5 -15c0 -7 -3 -14 -8 -19l-67 -68
c-4 -4 -9 -6 -14 -6c-4 0 -7 1 -10 4l-310 280l-299 -277c-5 -4 -10 -6 -14 -6c-6 0 -11 3 -16 8l-70 72c-5 5 -8 10 -8 15c0 3 1 7 5 11z" />
    <glyph glyph-name="wgrave" unicode="&#x1e81;" horiz-adv-x="1702" 
d="M1228 931l-11 165c2 16 7 21 22 22l417 20c12 -1 16 -10 16 -24v-183c0 -15 -6 -21 -22 -21h-99l-234 -895c-4 -16 -11 -21 -27 -21l-189 -3c-14 0 -25 8 -28 21l-211 844l-195 -833c-4 -16 -11 -20 -27 -21l-179 -8c-14 1 -24 8 -28 21l-291 899l-94 -9
c-14 0 -21 6 -21 24l-10 179c0 16 7 20 23 20l444 -10c18 0 18 -8 18 -22l-5 -170c-1 -17 -6 -21 -22 -21l-110 9l191 -701l190 895c3 16 11 20 27 21l190 9c14 -1 25 -8 28 -21l220 -904l158 714l-124 -13c-12 0 -16 5 -17 17zM550 1649l133 150c6 7 14 11 21 11
c8 0 16 -4 22 -11l383 -420c3 -4 5 -9 5 -14c0 -7 -3 -14 -8 -20l-67 -68c-3 -3 -8 -6 -13 -6c-4 0 -8 1 -11 4l-462 340c-6 5 -8 12 -8 19c0 5 2 11 5 15z" />
    </font>
</defs>
</svg>
