<?xml version="1.0" standalone="no"?>
<!DOCTYPE svg PUBLIC "-//W3C//DTD SVG 1.1//EN" "http://www.w3.org/Graphics/SVG/1.1/DTD/svg11.dtd" >
<svg xmlns="http://www.w3.org/2000/svg" xmlns:xlink="http://www.w3.org/1999/xlink" version="1.1">
<metadata>
Created by FontForge 20230101 at Thu Jan 18 10:50:24 2024
 By Glenn Lewis
Copyright 2018 The Do Hyeon Project Authors
</metadata>
<defs>
<font id="DoHyeon-Regular" horiz-adv-x="768" >
  <font-face 
    font-family="Do Hyeon"
    font-weight="400"
    font-stretch="normal"
    units-per-em="1000"
    panose-1="0 0 0 0 0 0 0 0 0 0"
    ascent="800"
    descent="-200"
    x-height="509"
    cap-height="681"
    bbox="-51 -174 911 761"
    underline-thickness="50"
    underline-position="-100"
    unicode-range="U+0020-FFE6"
  />
<missing-glyph horiz-adv-x="736" 
d="M157 574v-403h404v403h-404zM70 662h579v-580h-579v580z" />
    <glyph glyph-name=".notdef" horiz-adv-x="736" 
d="M157 574v-403h404v403h-404zM70 662h579v-580h-579v580z" />
    <glyph glyph-name="exclam" unicode="!" horiz-adv-x="304" 
d="M210 172h-117v553h117v-553zM210 0h-117v117h117v-117z" />
    <glyph glyph-name="quotedbl" unicode="&#x22;" horiz-adv-x="302" 
d="M45 582l-27 171h107l16 -171h-96zM181 582l-27 171h107l16 -171h-96z" />
    <glyph glyph-name="numbersign" unicode="#" horiz-adv-x="745" 
d="M178 258l46 137h-122l44 113h116l53 159h115l-54 -159h116l54 159h113l-53 -159h123l-43 -113h-118l-46 -137h120l-43 -113h-115l-56 -168h-114l56 168h-116l-56 -168h-115l56 168h-123l43 113h119zM292 258h116l46 137h-116z" />
    <glyph glyph-name="dollar" unicode="$" horiz-adv-x="558" 
d="M350 402q38 0 71.5 -15t58.5 -40t39.5 -59t14.5 -73q0 -38 -14.5 -71.5t-40 -59t-58.5 -40t-71 -14.5h-4h-17v-53h-100v52h-173v106h173v161h-20q-39 0 -72.5 15t-58.5 40t-39.5 59t-14.5 72q0 39 14.5 72.5t39.5 58.5t58.5 40t72.5 15h20v53h100v-53h123v-106h-123v-160
h21zM329 296v-161h22q32 2 54.5 24.5t22.5 55.5q0 17 -6.5 32t-17 25.5t-25 17t-31.5 6.5h-19zM130 482q0 -32 22 -55.5t55 -24.5h22v160h-19q-34 0 -57 -23t-23 -57z" />
    <glyph glyph-name="percent" unicode="%" horiz-adv-x="695" 
d="M529 703l-243 -726h-116l245 726h114zM174 673q18 0 35 -8t29.5 -21.5t20 -31.5t7.5 -38v-92q0 -20 -7 -39t-20 -32.5t-29.5 -21.5t-35.5 -8h-65q-19 0 -36 8t-30 21.5t-20 32.5t-7 39v88q0 19 7 37.5t20 33t30 23.5t36 9h65zM183 550q0 13 -8.5 22.5t-19.5 9.5h-28
q-11 0 -19.5 -9.5t-8.5 -22.5v-47q0 -13 8.5 -22t19.5 -9h28q11 0 19.5 9t8.5 22v47zM586 299q19 0 35.5 -8t29.5 -21.5t20.5 -31.5t7.5 -38v-91q0 -21 -7 -40t-20 -32.5t-29.5 -21.5t-36.5 -8h-64q-20 0 -36.5 8t-29.5 21.5t-20 32.5t-7 40v87q0 19 7 37.5t20 33.5
t29.5 23.5t36.5 8.5h64zM596 176q0 14 -8.5 23t-19.5 9h-28q-11 0 -19.5 -9t-8.5 -23v-46q0 -13 8.5 -22.5t19.5 -9.5h28q11 0 19.5 9.5t8.5 22.5v46z" />
    <glyph glyph-name="ampersand" unicode="&#x26;" horiz-adv-x="601" 
d="M580 -8h-125l-44 58q-9 -14 -19.5 -25.5t-23 -20.5t-28.5 -14t-38 -5h-138q-25 0 -45.5 9.5t-34.5 26.5t-22 41t-8 53v139q0 22 11 40.5t26.5 33t32 25t27.5 19.5q-9 12 -21 26.5t-22 32t-17.5 38t-8.5 44.5v49q0 47 10 78.5t28 51t44.5 28.5t61.5 9h76q73 0 106.5 -41
t33.5 -126v-57q-4 -52 -38.5 -89.5t-94.5 -73.5l97 -127l61 97l75 -45l-80 -131zM240 626q-48 0 -48 -62v-51q0 -11 7 -25t16 -28t18 -25t14 -14q15 9 30.5 19.5t27.5 21.5t19 21.5t8 21.5v59q0 33 -11 47.5t-37 14.5h-44zM160 140q0 -29 13 -41.5t35 -12.5h72q13 0 23 4
t18 10.5t14.5 14t10.5 15.5l-124 167q-6 -5 -16.5 -12.5t-21 -16t-17.5 -17t-7 -15.5v-96z" />
    <glyph glyph-name="quotesingle" unicode="'" horiz-adv-x="187" 
d="M34 582l16 171h107l-27 -171h-96z" />
    <glyph glyph-name="parenleft" unicode="(" horiz-adv-x="248" 
d="M232 734q-49 -88 -73 -180.5t-24 -187.5q0 -94 24 -186t73 -178h-109q-49 85 -74 177t-25 187q0 94 25 187t74 181h109z" />
    <glyph glyph-name="parenright" unicode=")" horiz-adv-x="248" 
d="M133 734q49 -88 74 -181t25 -187q0 -95 -25 -187t-74 -177h-109q49 86 73 178t24 186q0 95 -24 187.5t-73 180.5h109z" />
    <glyph glyph-name="asterisk" unicode="*" horiz-adv-x="521" 
d="M185 292h-161v91h161l-76 142l80 42l72 -133l72 133l80 -42l-76 -142h160v-91h-160l76 -141l-81 -43l-72 134l-71 -134l-80 43z" />
    <glyph glyph-name="plus" unicode="+" horiz-adv-x="448" 
d="M278 411h147v-99h-147v-146h-100v146h-146v99h146v147h100v-147z" />
    <glyph glyph-name="comma" unicode="," horiz-adv-x="189" 
d="M31 -39l16 131h119l-27 -131h-108z" />
    <glyph glyph-name="hyphen" unicode="-" horiz-adv-x="475" 
d="M422 418v-109h-374v109h374z" />
    <glyph glyph-name="period" unicode="." horiz-adv-x="200" 
d="M47 -23v115h119v-115h-119z" />
    <glyph glyph-name="slash" unicode="/" horiz-adv-x="395" 
d="M377 703l-243 -726h-116l245 726h114z" />
    <glyph glyph-name="zero" unicode="0" horiz-adv-x="550" 
d="M324 685q38 0 72 -15t59.5 -40t40 -59t14.5 -73v-312q0 -38 -14.5 -72t-40 -59t-59.5 -40t-72 -15h-102q-38 0 -72 15t-59 40t-39.5 59t-14.5 72v312q0 39 14.5 73t39.5 59t59 40t72 15h102zM394 478q0 17 -6.5 32.5t-18 27.5t-26.5 18.5t-33 6.5h-74q-18 0 -33 -6.5
t-26.5 -18.5t-18 -27.5t-6.5 -32.5v-271q0 -17 6.5 -33t18 -27.5t26.5 -18t33 -6.5h74q18 0 33 6.5t26.5 18t18 27.5t6.5 33v271z" />
    <glyph glyph-name="one" unicode="1" horiz-adv-x="339" 
d="M47 557l79 124h134v-681h-116v557h-97z" />
    <glyph glyph-name="two" unicode="2" horiz-adv-x="486" 
d="M29 151q70 53 135.5 110t125.5 113q16 15 27.5 27.5t18.5 25.5t10.5 28.5t3.5 38.5q0 16 -6 31.5t-17.5 26.5t-26 17.5t-30.5 6.5h-56q-17 0 -32 -6.5t-26 -17.5t-17.5 -26.5t-6.5 -31.5v-24h-110v44q0 37 14 69.5t38.5 56.5t57 38t69.5 14h87q37 0 69.5 -14t56.5 -38
t38 -56.5t14 -69.5v-15q0 -30 -2.5 -55t-10.5 -47.5t-23.5 -43t-39.5 -43.5q-57 -55 -119.5 -108.5t-126.5 -99.5h310v-102h-425v151z" />
    <glyph glyph-name="three" unicode="3" horiz-adv-x="503" 
d="M472 564q18 -53 8.5 -103.5t-52.5 -89.5l-6 -7l6 -6q27 -28 40 -61q38 -91 0 -182q-13 -32 -36.5 -57.5t-54.5 -39.5q-23 -11 -46 -15.5t-46 -6t-46 -1t-48 0.5q-36 0 -68 14t-56 38.5t-37.5 57t-13.5 68.5v20h108q0 -17 6 -31q6 -17 19 -27t30 -16t35 -7.5t33 -0.5
q21 2 42.5 6t39.5 17q22 17 28.5 48t-1.5 61q-14 52 -74 63q-24 6 -64 6h-35v103h35q40 0 64 6q30 4 47 18q12 10 19 24.5t7.5 30.5t-6 31.5t-20.5 28.5q-11 10 -30.5 16t-42 7t-46.5 -2.5t-43 -13.5t-31 -27t-12 -41h-108v21q0 43 18 76.5t47 55.5t66.5 33.5t75.5 11.5
h30.5t17.5 -0.5t8.5 -0.5h2.5q12 -1 24.5 -2t24.5 -3q22 -5 44.5 -15.5t39.5 -25.5q19 -16 34 -37t23 -44z" />
    <glyph glyph-name="four" unicode="4" horiz-adv-x="560" 
d="M440 240h104v-104h-104v-136h-117v134h-307v106l221 441h203v-441zM323 240v348l-179 -348h179z" />
    <glyph glyph-name="five" unicode="5" horiz-adv-x="526" 
d="M264 452q54 0 97 -15.5t73 -45t46 -73.5t16 -99q0 -109 -59 -171t-179 -62q-52 0 -95.5 13.5t-74 40.5t-47 68.5t-16.5 97.5h114q0 -48 27 -77.5t88 -29.5q56 0 89.5 31t33.5 88q0 33 -9.5 55.5t-27 36t-40.5 19.5t-50 6q-64 0 -92 -31h-117v373h422v-119h-296v-125
q15 10 42.5 14.5t54.5 4.5z" />
    <glyph glyph-name="six" unicode="6" horiz-adv-x="555" 
d="M242 -4q-40 0 -76 15.5t-63 42.5t-42.5 63t-15.5 77v32v8v256q0 40 15.5 76.5t42.5 63.5t63 42.5t76 15.5h86q39 0 72 -14t57.5 -38.5t39.5 -57t19 -71.5h-126q-5 27 -19 45t-44 18h-84q-35 0 -55.5 -25.5t-20.5 -61.5v-73q37 15 75 15h78q41 0 77 -15.5t62.5 -42.5
t42.5 -63.5t16 -77.5v-32q0 -41 -16 -77t-42.5 -63t-62.5 -42.5t-77 -15.5h-78zM167 197q2 -35 22.5 -59t53.5 -24h76q35 0 55.5 25.5t20.5 61.5v19q0 36 -20.5 61t-55.5 25h-76q-35 0 -55.5 -24.5t-20.5 -60.5v-24z" />
    <glyph glyph-name="seven" unicode="7" horiz-adv-x="527" 
d="M35 673h457l-120 -673h-128l96 550h-178v-102h-127v225z" />
    <glyph glyph-name="eight" unicode="8" horiz-adv-x="538" 
d="M310 689q40 0 74 -14.5t58 -39.5t36.5 -60.5t12.5 -76.5v-29q0 -36 -11.5 -66t-32.5 -54q29 -23 46 -56t17 -75v-44q0 -38 -14.5 -71t-40 -57t-59.5 -37t-72 -13h-102q-38 0 -72 13t-59 37t-39.5 57t-14.5 71v44q0 43 17 76.5t47 55.5q-20 24 -31.5 54t-11.5 65v29
q0 41 13.5 76.5t37 60.5t57 39.5t74.5 14.5h70zM394 201q0 36 -24 58.5t-60 22.5h-8h-8h-38h-8h-12q-35 0 -59.5 -22.5t-24.5 -58.5v-12q0 -36 24.5 -57t59.5 -21h74q36 0 60 21t24 57v12zM372 490q0 18 -4 33.5t-12.5 27.5t-21 19t-30.5 7h-58q-36 0 -52 -25.5t-16 -61.5
v-15q0 -35 16 -60.5t52 -25.5h58q18 0 30.5 6.5t21 18.5t12.5 28t4 33v15z" />
    <glyph glyph-name="nine" unicode="9" horiz-adv-x="511" 
d="M314 689q40 0 71.5 -14.5t52 -39.5t31 -60.5t10.5 -76.5v-88q0 -49 -16 -90l-61 -320h-112l42 221q-5 -1 -9.5 -1h-8.5h-118q-41 0 -71.5 14.5t-52 39.5t-32 60t-10.5 76v88q0 41 10.5 76.5t32 60.5t52 39.5t71.5 14.5h118zM357 492q0 36 -12.5 57t-47.5 21h-84
q-35 0 -47.5 -21t-12.5 -57v-75q0 -36 12.5 -57.5t47.5 -21.5h84q35 0 47.5 21.5t12.5 57.5v75z" />
    <glyph glyph-name="colon" unicode=":" horiz-adv-x="218" 
d="M56 182h114v-109h-114v109zM56 509h114v-109h-114v109z" />
    <glyph glyph-name="semicolon" unicode=";" horiz-adv-x="222" 
d="M54 510h113v-109h-113v109zM53 175h116l-39 -177h-88z" />
    <glyph glyph-name="less" unicode="&#x3c;" horiz-adv-x="344" 
d="M186 730h129l-161 -360l161 -368h-129l-160 368z" />
    <glyph glyph-name="equal" unicode="=" horiz-adv-x="450" 
d="M417 499v-99h-385v99h385zM417 323v-99h-385v99h385z" />
    <glyph glyph-name="greater" unicode="&#x3e;" horiz-adv-x="354" 
d="M315 370l-161 -368h-128l161 368l-161 360h128z" />
    <glyph glyph-name="question" unicode="?" horiz-adv-x="467" 
d="M30 532q0 32 5.5 66t20 62t39.5 46.5t66 18.5h140q33 0 58.5 -13.5t42 -34.5t26 -48t12 -54t-2 -52t-14.5 -44l-112 -205v-90h-115v102l106 185q9 15 12.5 39t0 46.5t-15 38.5t-32.5 16h-65q-17 0 -28 -5.5t-17.5 -16t-8.5 -25t-2 -32.5h-116zM314 0h-118v117h118v-117z
" />
    <glyph glyph-name="at" unicode="@" horiz-adv-x="700" 
d="M606 122q-22 -14 -43 -9t-49 25q-13 8 -25.5 17t-23.5 19q-36 -31 -76 -31h-80q-24 0 -45 10t-36.5 27.5t-24.5 40.5t-9 49v84q0 17 7 38t21 38.5t34.5 29.5t47.5 12h59q22 0 38.5 -5t22.5 -13v28h80v-207q0 -10 14 -23.5t29 -23.5q4 -3 9.5 -4.5t9.5 7.5v165
q0 34 -13.5 64t-36 52.5t-52.5 36t-63 13.5h-99q-32 0 -61.5 -14t-52 -37t-36 -53t-13.5 -62v-162q0 -36 12.5 -65t33.5 -50t49.5 -32.5t59.5 -11.5h106l202 1v-93h-322q-54 0 -100 20t-78.5 55t-51 81.5t-18.5 99.5v171q0 52 23 99t62 82t90 55t105 20h80q55 0 104.5 -20
t87 -55t59.5 -82t22 -99v-131q0 -34 -1.5 -57.5t-6.5 -41t-17 -31t-34 -27.5zM414 334q0 25 -13.5 41.5t-41.5 16.5h-27q-23 0 -37.5 -16.5t-14.5 -41.5v-48q0 -8 2.5 -17.5t8.5 -17.5t15 -13t24 -5h40q12 0 21 5.5t14 13.5t7 17.5t2 16.5v48z" />
    <glyph glyph-name="A" unicode="A" horiz-adv-x="534" 
d="M355 104h-183l-25 -104h-121l175 681h130l168 -681h-120zM196 205h136l-63 278h-7z" />
    <glyph glyph-name="B" unicode="B" horiz-adv-x="532" 
d="M506 459q0 -33 -13 -64t-35 -54v0q30 -22 43 -53.5t13 -65.5v-42q0 -42 -12 -76t-33.5 -57t-51 -35t-65.5 -12h-310v681h301q36 0 66 -12t51.5 -34t33.5 -53t12 -68v-55zM160 398h162q13 0 25 6t21.5 16t14.5 23.5t5 28.5v10q0 16 -5 29t-14.5 23.5t-21.5 16.5t-25 6
h-162v-159zM397 208q0 15 -5.5 28.5t-14.5 23.5t-21.5 16t-25.5 6h-170v-156h170q13 0 25.5 6t21.5 16t14.5 23.5t5.5 29.5v7z" />
    <glyph glyph-name="C" unicode="C" horiz-adv-x="550" 
d="M327 118q29 0 42.5 17.5t20.5 42.5h126q-4 -37 -19 -69.5t-39.5 -56.5t-58 -38t-71.5 -14h-86q-40 0 -76 15.5t-63 42.5t-42.5 63t-15.5 77v284q0 41 15.5 77.5t42.5 63.5t63 42.5t76 15.5h86q39 0 72 -14t57.5 -38.5t39.5 -57.5t19 -71h-126q-5 26 -19 44t-44 18h-84
q-35 0 -55.5 -25t-20.5 -61v-271q0 -36 20.5 -61.5t55.5 -25.5h84z" />
    <glyph glyph-name="D" unicode="D" horiz-adv-x="570" 
d="M51 681h311q33 0 62.5 -14t51.5 -39t34.5 -57.5t12.5 -69.5v-321q0 -38 -12.5 -70t-34.5 -57t-51.5 -39t-62.5 -14h-311v681zM331 126q15 0 27 6t21.5 16t14.5 23.5t5 29.5v280q0 15 -5 28.5t-14.5 24t-21.5 16.5t-27 6h-155v-430h155z" />
    <glyph glyph-name="E" unicode="E" horiz-adv-x="570" 
d="M180 115h339v-115h-468v681h468v-115h-339v-168h339v-114h-339v-169z" />
    <glyph glyph-name="F" unicode="F" horiz-adv-x="552" 
d="M166 0h-115v681h468v-115h-356v-168h357v-114h-354v-284z" />
    <glyph glyph-name="G" unicode="G" horiz-adv-x="560" 
d="M331 118q29 0 47 17.5t24 42.5v113h-113v107h228v-398h-115v22q-20 -11 -43.5 -16.5t-47.5 -5.5h-69q-40 0 -76 15.5t-63 42.5t-42.5 63t-15.5 77v284q0 41 15.5 77.5t42.5 63.5t63 42.5t76 15.5h86q39 0 72 -14t57.5 -38.5t39.5 -57.5t19 -71h-123q-7 26 -21.5 44
t-44.5 18h-84q-17 0 -31.5 -6.5t-24.5 -18.5t-15.5 -27.5t-5.5 -33.5v-271q0 -18 5.5 -33.5t15.5 -27.5t24.5 -19t31.5 -7h88z" />
    <glyph glyph-name="H" unicode="H" horiz-adv-x="567" 
d="M519 0h-126v284h-219v-284h-127v681h127v-283h219v283h126v-681z" />
    <glyph glyph-name="I" unicode="I" horiz-adv-x="229" 
d="M51 681h127v-681h-127v681z" />
    <glyph glyph-name="J" unicode="J" horiz-adv-x="478" 
d="M447 198q0 -41 -15.5 -77t-42.5 -63t-63 -42.5t-76 -15.5h-49q-39 0 -71.5 14t-57.5 38t-40 56.5t-18 69.5h123q6 -25 21.5 -42.5t43.5 -17.5h42q18 0 32 7t24.5 19t16.5 27.5t6 33.5v476h124v-483z" />
    <glyph glyph-name="K" unicode="K" horiz-adv-x="538" 
d="M266 345l128 -173q33 -44 65 -87t64 -85h-133l-204 269h-6v-269h-129v681h129v-269h6l204 269h132z" />
    <glyph glyph-name="L" unicode="L" horiz-adv-x="552" 
d="M155 115h369v-115h-489v681h120v-566z" />
    <glyph glyph-name="M" unicode="M" horiz-adv-x="605" 
d="M303 189h7q27 123 54.5 245.5t54.5 245.5h143v-680h-98v442h-6q-24 -111 -50 -221.5t-49 -220.5l-109 -1l-93 442h-7v-441h-99v680h143z" />
    <glyph glyph-name="N" unicode="N" horiz-adv-x="565" 
d="M173 446v-446h-122v681h122l231 -450v450h119v-681h-119z" />
    <glyph glyph-name="O" unicode="O" horiz-adv-x="560" 
d="M318 681q40 0 76 -15.5t63 -42.5t42.5 -63.5t15.5 -77.5v-284q0 -41 -15.5 -77t-42.5 -63t-63 -42.5t-76 -15.5h-78q-41 0 -77 15.5t-62.5 42.5t-42.5 63t-16 77v284q0 41 16 77.5t42.5 63.5t62.5 42.5t77 15.5h78zM393 476q0 36 -20.5 61t-55.5 25h-76q-35 0 -55.5 -25
t-20.5 -61v-271q0 -36 20.5 -61.5t55.5 -25.5h76q35 0 55.5 25.5t20.5 61.5v271z" />
    <glyph glyph-name="P" unicode="P" horiz-adv-x="542" 
d="M327 681q39 0 73 -14.5t58.5 -39.5t39 -59t14.5 -72v-30q0 -38 -14.5 -71.5t-39 -59t-58.5 -39.5t-73 -14h-172v-282h-120v681h292zM155 562v-161h152q43 0 63 21t20 59q0 36 -20 58.5t-63 22.5h-152z" />
    <glyph glyph-name="Q" unicode="Q" horiz-adv-x="590" 
d="M321 681q41 0 77 -15.5t62.5 -42.5t42 -63.5t15.5 -77.5v-284q0 -24 -6 -46.5t-15 -42.5l86 -109h-117l-30 38q-24 -18 -53 -28t-62 -10h-79q-40 0 -76 15.5t-63 42.5t-42.5 63t-15.5 77v284q0 41 15.5 77.5t42.5 63.5t63 42.5t76 15.5h79zM395 237v239q0 18 -5 33.5
t-15 27.5t-24 18.5t-31 6.5h-77q-35 0 -55.5 -25t-20.5 -61v-271q0 -36 20.5 -61.5t55.5 -25.5h77q23 0 41 13l-135 169h120z" />
    <glyph glyph-name="R" unicode="R" horiz-adv-x="566" 
d="M178 275v-275h-127v681h292q39 0 73 -14.5t58.5 -39.5t39 -59t14.5 -72v-30q0 -38 -14.5 -71.5t-39 -59t-58.5 -39.5t-73 -14h-34l231 -282h-145zM178 562v-161h145q43 0 63 21t20 59q0 36 -20 58.5t-63 22.5h-145z" />
    <glyph glyph-name="S" unicode="S" horiz-adv-x="583" 
d="M354 422q42 0 78.5 -16t63 -44.5t41 -68t14.5 -86.5q0 -44 -13.5 -82t-38.5 -65.5t-59 -43.5t-76 -16h-310v126h274q20 0 38.5 5t31.5 15t21 25t8 36q0 39 -25.5 61t-63.5 22h-81q-51 0 -93 11t-71 35t-45 62t-16 91q0 37 13 72t36 61.5t56 42.5t73 16h281v-133h-229
q-20 0 -37 -2.5t-30 -9t-20 -19.5t-7 -35q0 -25 17 -42.5t46 -17.5h123z" />
    <glyph glyph-name="T" unicode="T" horiz-adv-x="506" 
d="M192 555h-174v126h472v-126h-176v-555h-122v555z" />
    <glyph glyph-name="U" unicode="U" horiz-adv-x="565" 
d="M524 198q0 -41 -15 -77t-42 -63t-63 -42.5t-77 -15.5h-77q-41 0 -77 15.5t-63.5 42.5t-43 63t-15.5 77v483h123v-476q0 -18 6.5 -33.5t18 -27.5t27 -19t32.5 -7h60q17 0 32.5 7t26.5 19t18 27.5t7 33.5v476h122v-483z" />
    <glyph glyph-name="V" unicode="V" horiz-adv-x="534" 
d="M262 234h6q26 112 53.5 222t54.5 225h122l-168 -681h-130l-174 681h123z" />
    <glyph glyph-name="W" unicode="W" horiz-adv-x="860" 
d="M603 234h7q26 113 53 222.5t55 224.5h122l-168 -681h-130l-112 438l-108 -438h-131l-173 681h122l113 -447h6l27 109q20 85 40.5 168.5t41.5 169.5h122z" />
    <glyph glyph-name="X" unicode="X" horiz-adv-x="518" 
d="M338 345l161 -345h-129l-103 251h-6l-106 -251h-129l157 345q-38 83 -78.5 168t-78.5 168h129l106 -217h6q12 26 25 53t26 55l52 109h129z" />
    <glyph glyph-name="Y" unicode="Y" horiz-adv-x="504" 
d="M190 310l-172 371h129l105 -217h6q12 26 25 53t27 55l52 109h128l-178 -372v-309h-122v310z" />
    <glyph glyph-name="Z" unicode="Z" horiz-adv-x="529" 
d="M366 566h-340v115h472v-115l-340 -451h340v-115h-472v115z" />
    <glyph glyph-name="bracketleft" unicode="[" horiz-adv-x="310" 
d="M31 734h243v-115h-125v-504h125v-114h-243v733z" />
    <glyph glyph-name="backslash" unicode="\" horiz-adv-x="395" 
d="M18 703l244 -726h115l-245 726h-114z" />
    <glyph glyph-name="bracketright" unicode="]" horiz-adv-x="301" 
d="M274 1h-243v114h125v504h-125v115h243v-733z" />
    <glyph glyph-name="asciicircum" unicode="^" horiz-adv-x="389" 
d="M127 478h-111l114 220h124l119 -220h-112l-66 136z" />
    <glyph glyph-name="underscore" unicode="_" horiz-adv-x="417" 
d="M385 83v-99h-353v99h353z" />
    <glyph glyph-name="a" unicode="a" horiz-adv-x="484" 
d="M30 348q3 32 14.5 61t33.5 51t55 35.5t76 13.5h60q45 0 78.5 -15t55.5 -39.5t33 -56t11 -63.5v-335h-284q-33 0 -59 12.5t-43.5 33t-26 48.5t-8.5 60q0 31 9 58t26 46.5t42.5 31t57.5 11.5h171v10q0 18 -3 33.5t-11 26.5t-24 17.5t-43 6.5h-25q-40 0 -57 -11.5t-23 -35.5
h-116zM133 154q0 -26 10.5 -38.5t23.5 -12.5h165v102h-165q-13 0 -23.5 -13t-10.5 -38z" />
    <glyph glyph-name="b" unicode="b" horiz-adv-x="486" 
d="M262 509q44 0 78.5 -13.5t59 -37.5t37.5 -58t13 -77v-137q0 -42 -13 -76.5t-37.5 -59t-59 -37.5t-78.5 -13h-40q-44 0 -78.5 13t-59 37.5t-37.5 59t-13 76.5v137v8v350h118v-185q37 13 78 13h32zM222 394q-32 0 -50.5 -20t-19.5 -51v-133q0 -33 19 -54t51 -21h40
q32 0 52 21t20 54v130q0 33 -20 53.5t-52 20.5h-40z" />
    <glyph glyph-name="c" unicode="c" horiz-adv-x="451" 
d="M252 115q24 0 41 11.5t22 31.5h119q-9 -72 -56 -115t-126 -43h-41q-43 0 -78 13t-59 37.5t-37.5 59t-13.5 76.5v137q0 43 13.5 77t37.5 58t59 37.5t78 13.5h41q81 0 128 -43t54 -118h-118q-6 22 -22 34t-42 12h-41q-32 0 -52.5 -20.5t-20.5 -53.5v-130q0 -33 20.5 -54
t52.5 -21h41z" />
    <glyph glyph-name="d" unicode="d" horiz-adv-x="476" 
d="M218 0q-44 0 -78.5 13t-59 37.5t-37.5 59t-13 76.5v137q0 43 13 77t37.5 58t59 37.5t78.5 13.5h40q42 0 76 -12v184h112v-681h-228zM334 115v205q0 33 -22 53.5t-54 20.5h-40q-32 0 -54.5 -20.5t-22.5 -53.5v-130q0 -33 22.5 -54t54.5 -21h116z" />
    <glyph glyph-name="e" unicode="e" horiz-adv-x="506" 
d="M32 328q0 37 14 69.5t37 57.5t53 39.5t60 14.5h114q39 0 69.5 -16.5t51 -42t32 -57t11.5 -61.5v-129h-324v-27q0 -36 20 -51t53 -15h233v-112h-259q-34 0 -64 13.5t-52.5 36.5t-35.5 55t-13 70v155zM151 298h207v5q0 39 -20 64.5t-54 25.5h-62q-16 0 -29 -7.5t-22 -19.5
t-14.5 -28.5t-5.5 -34.5v-5z" />
    <glyph glyph-name="f" unicode="f" horiz-adv-x="366" 
d="M334 574h-36q-34 0 -55 -21t-21 -54v-22h112v-115h-112v-363h-105v363h-91v115h91v17q0 43 12 77.5t35.5 58.5t57 37.5t76.5 13.5h36v-107z" />
    <glyph glyph-name="g" unicode="g" horiz-adv-x="486" 
d="M452 509v-510q0 -41 -12 -72.5t-33 -54t-51 -34t-66 -11.5h-229v111h210q31 0 51.5 19t20.5 53v6h-149q-33 0 -62.5 11.5t-51.5 34.5t-35 56.5t-13 77.5v133q0 44 13 77.5t35 56.5t51.5 34.5t62.5 11.5h258zM342 398h-123q-15 0 -28 -6.5t-23 -18t-16 -25.5t-6 -31v-108
q0 -17 6 -32t16 -26t23 -17.5t28 -6.5h123v271z" />
    <glyph glyph-name="h" unicode="h" horiz-adv-x="494" 
d="M239 395q-26 0 -42.5 -6.5t-25.5 -17.5t-12.5 -26.5t-3.5 -33.5v-311h-112v681h112v-183q15 5 31.5 8t35.5 3h60q44 0 77.5 -15t56 -39.5t33.5 -56t11 -63.5v-335h-113v311q0 18 -3 33.5t-12.5 26.5t-25.5 17.5t-42 6.5h-25z" />
    <glyph glyph-name="i" unicode="i" horiz-adv-x="206" 
d="M162 0h-118v509h118v-509zM162 564h-118v117h118v-117z" />
    <glyph glyph-name="j" unicode="j" horiz-adv-x="203" 
d="M156 564h-110v117h110v-117zM-51 -66h21q34 0 53 20.5t19 53.5v501h116v-497q0 -42 -11 -76.5t-34 -58.5t-58.5 -37.5t-84.5 -13.5h-21v108z" />
    <glyph glyph-name="k" unicode="k" horiz-adv-x="464" 
d="M464 0h-132l-172 194v-194h-118v681h118v-333l162 161h139l-245 -235z" />
    <glyph glyph-name="l" unicode="l" horiz-adv-x="216" 
d="M47 681h118v-681h-118v681z" />
    <glyph glyph-name="m" unicode="m" horiz-adv-x="817" 
d="M555 395q-26 0 -42 -6.5t-24.5 -17.5t-11.5 -26t-3 -33v-312h-117v311q0 18 -3 33.5t-11.5 26.5t-24.5 17.5t-43 6.5h-24q-26 0 -42.5 -6.5t-25.5 -17.5t-12.5 -26.5t-3.5 -33.5v-311h-117v509h117v-15q39 15 83 15h44q40 0 71 -12t53 -33q24 21 56 33t72 12h52
q44 0 78 -15t56.5 -39.5t34 -56t11.5 -63.5v-335h-116v311q0 18 -3 33.5t-12 26.5t-25 17.5t-42 6.5h-25z" />
    <glyph glyph-name="n" unicode="n" horiz-adv-x="506" 
d="M251 395q-26 0 -42.5 -6.5t-25.5 -17.5t-12.5 -26.5t-3.5 -33.5v-311h-117v509h117v-13q35 13 75 13h52q44 0 78 -15t56.5 -39.5t34 -56t11.5 -63.5v-335h-117v311q0 18 -3 33.5t-11.5 26.5t-24.5 17.5t-43 6.5h-24z" />
    <glyph glyph-name="o" unicode="o" horiz-adv-x="476" 
d="M257 509q44 0 78.5 -13.5t59 -37.5t37.5 -58t13 -77v-137q0 -42 -13 -76.5t-37.5 -59t-59 -37.5t-78.5 -13h-41q-43 0 -78 13t-59.5 37.5t-37 59t-12.5 76.5v137q0 43 12.5 77t37 58t59.5 37.5t78 13.5h41zM216 394q-31 0 -52.5 -20.5t-21.5 -53.5v-130q0 -33 21.5 -54
t52.5 -21h41q32 0 52.5 21t20.5 54v130q0 33 -20.5 53.5t-52.5 20.5h-41z" />
    <glyph glyph-name="p" unicode="p" horiz-adv-x="478" 
d="M262 509q44 0 78.5 -13.5t59 -37.5t37.5 -58t13 -77v-137q0 -42 -13 -76.5t-37.5 -59t-59 -37.5t-78.5 -13h-32q-44 0 -80 14v-188h-116v683h228zM150 394v-204q0 -33 20 -54t52 -21h40q32 0 53 21t21 54v130q0 33 -21 53.5t-53 20.5h-112z" />
    <glyph glyph-name="q" unicode="q" horiz-adv-x="490" 
d="M222 0q-44 0 -78.5 13t-59 37.5t-37.5 59t-13 76.5v137q0 43 13 77t37.5 58t59 37.5t78.5 13.5h228v-323v-8v-352h-116v188q-36 -14 -80 -14h-32zM262 115q32 0 52 21t20 54v204h-112q-32 0 -53 -20.5t-21 -53.5v-130q0 -33 21 -54t53 -21h40z" />
    <glyph glyph-name="r" unicode="r" horiz-adv-x="426" 
d="M168 405q14 23 37.5 40.5t52 29.5t60.5 18t64 6h13v-124h-13q-36 0 -74 -14.5t-69.5 -38t-51 -52.5t-19.5 -58v-212h-124v513h124v-108z" />
    <glyph glyph-name="s" unicode="s" horiz-adv-x="474" 
d="M394 410h-199q-13 0 -21.5 -4.5t-14.5 -12.5t-9 -17.5t-3 -18.5q0 -19 12.5 -34.5t30.5 -15.5h112q35 0 61.5 -12t44 -33t26 -50t8.5 -62v-3q0 -33 -10.5 -60t-29.5 -46t-45 -30t-55 -11h-242v99h208q23 0 42.5 13t20.5 39v-1q0 15 -5.5 25t-14.5 16.5t-20 9.5t-23 3h-90
q-44 0 -72.5 14t-45 36t-22.5 50t-6 57q0 30 9 58t26.5 49.5t43.5 33.5t59 12h224v-104z" />
    <glyph glyph-name="t" unicode="t" horiz-adv-x="340" 
d="M18 509h94v172h118v-172h94v-115h-94v-394h-118v394h-94v115z" />
    <glyph glyph-name="u" unicode="u" horiz-adv-x="500" 
d="M263 114q25 0 40.5 6t25 16t13.5 24t4 30v319h117v-509h-117v13q-16 -7 -34.5 -10t-39.5 -3h-51q-45 0 -78.5 15t-55.5 39.5t-33.5 56t-11.5 63.5v335h116v-311q0 -18 3 -33t12 -26.5t25 -18t43 -6.5h22z" />
    <glyph glyph-name="v" unicode="v" horiz-adv-x="449" 
d="M279 0h-112l-154 509h111l98 -323l95 323h112z" />
    <glyph glyph-name="w" unicode="w" horiz-adv-x="746" 
d="M584 0h-113l-97 321l-95 -321h-112l-154 509h111l98 -323l95 323h112l97 -321l96 321h111z" />
    <glyph glyph-name="x" unicode="x" horiz-adv-x="454" 
d="M294 254q35 -63 71 -127t70 -127h-120l-88 173l-88 -173h-120l135 252l-135 257h120l88 -178l88 178h121z" />
    <glyph glyph-name="y" unicode="y" horiz-adv-x="445" 
d="M231 -174h-110l51 176l-154 507h111l97 -325l96 325h112z" />
    <glyph glyph-name="z" unicode="z" horiz-adv-x="424" 
d="M398 400l-233 -285h233v-115h-372v109l232 285h-232v115h372v-109z" />
    <glyph glyph-name="braceleft" unicode="{" horiz-adv-x="334" 
d="M87 304l-64 81l64 96l-16 149q-6 45 14.5 71.5t60.5 24.5h152v-115h-74q-17 2 -27 -4t-8 -20l16 -106l-64 -97l64 -79l-16 -110q-2 -11 -3 -22t0.5 -20.5t7 -16t19.5 -7.5l85 -10v-118l-159 13q-25 3 -40 14t-22 29t-7.5 42.5t1.5 53.5z" />
    <glyph glyph-name="bar" unicode="|" horiz-adv-x="194" 
d="M39 681h118v-681h-118v681z" />
    <glyph glyph-name="braceright" unicode="}" horiz-adv-x="326" 
d="M250 153q2 -29 1 -53.5t-7.5 -42.5t-21.5 -29t-40 -14l-159 -13v118l85 10q13 1 19 7.5t7.5 16t0.5 20.5t-3 22l-16 110l64 79l-64 97l16 106q2 14 -8 20t-27 4h-74v115h152q39 2 60 -24.5t15 -71.5l-16 -149l64 -96l-64 -81z" />
    <glyph glyph-name="asciitilde" unicode="~" horiz-adv-x="541" 
d="M514 329q0 -4 -14 -13t-37 -16.5t-53 -12.5t-61 -2q-25 2 -46.5 13.5t-43 24t-45.5 22t-51 9.5q-39 -2 -68.5 -17t-61.5 -39v113q32 28 63.5 39t65.5 11q24 0 50 -8t49.5 -18t44 -20.5t35.5 -15.5q20 -6 44 -5t48 6.5t45.5 15.5t35.5 20v-107z" />
    <glyph glyph-name="uni20A9" unicode="&#x20a9;" horiz-adv-x="745" 
d="M76 514l-30 167h111l25 -167h104l27 167h98l29 -167h102l25 167h110l-29 -167h55v-109h-73l-69 -405h-131l-68 391l-64 -391h-130l-72 405h-71v109h51zM498 210l28 195h-68l34 -195h6zM236 210l31 195h-68l31 -195h6z" />
    <glyph glyph-name="copyright" unicode="&#xa9;" horiz-adv-x="713" 
d="M416 682q55 0 103 -20t84 -55t57 -82t21 -99v-171q0 -53 -21 -99.5t-57 -81.5t-84 -55t-103 -20h-112q-54 0 -102 20t-84 55t-57 81.5t-21 99.5v171q0 52 21 99t57 82t84 55t102 20h112zM147 258q0 -39 14.5 -70.5t39.5 -53.5t57 -34.5t67 -12.5h71q34 0 65 12.5t55 35
t39.5 53.5t18.5 70v170q0 34 -14 63.5t-37 51t-54 33.5t-64 12h-87q-34 0 -65 -11.5t-54.5 -32.5t-37.5 -50.5t-14 -65.5v-170zM373 242q16 0 26.5 7.5t14.5 20.5h80q-6 -48 -37 -77t-84 -29h-28q-59 0 -92.5 34t-33.5 92v90q0 57 33.5 91t92.5 34h28q53 0 85 -29t36 -79
h-79q-4 14 -15 22.5t-27 8.5h-28q-21 0 -35 -14t-14 -36v-87q0 -21 14 -35t35 -14h28z" />
    <glyph glyph-name="uniFF3C" unicode="&#xff3c;" horiz-adv-x="720" 
d="M693 34l-38 -36l-628 692l37 40z" />
    <glyph glyph-name="uniFF5E" unicode="&#xff5e;" horiz-adv-x="546" 
d="M514 569q0 -4 -14 -13t-37 -16.5t-53 -12.5t-61 -2q-25 2 -46.5 13.5t-43 24t-45.5 22t-51 9.5q-39 -2 -68.5 -17t-61.5 -39v113q32 28 63.5 39t65.5 11q24 0 50 -8t49.5 -18t44 -20.5t35.5 -15.5q20 -6 44 -5t48 6.5t45.5 15.5t35.5 20v-107z" />
    <glyph glyph-name="quoteleft" unicode="&#x2018;" horiz-adv-x="208" 
d="M77 582l-27 171h107l16 -171h-96z" />
    <glyph glyph-name="quoteright" unicode="&#x2019;" horiz-adv-x="208" 
d="M34 582l16 171h107l-27 -171h-96z" />
    <glyph glyph-name="quotedblleft" unicode="&#x201c;" horiz-adv-x="308" 
d="M45 582l-27 171h107l16 -171h-96zM181 582l-27 171h107l16 -171h-96z" />
    <glyph glyph-name="quotedblright" unicode="&#x201d;" horiz-adv-x="308" 
d="M154 582l16 171h107l-27 -171h-96zM18 582l16 171h107l-27 -171h-96z" />
    <glyph glyph-name="plusminus" unicode="&#xb1;" horiz-adv-x="456" 
d="M278 507h147v-99h-147v-146h-100v146h-146v99h146v147h100v-147zM421 171v-99h-385v99h385z" />
    <glyph glyph-name="multiply" unicode="&#xd7;" horiz-adv-x="397" 
d="M196 448l104 104l70 -70l-104 -104l104 -104l-71 -70l-103 103l-103 -103l-71 70l104 104l-104 104l70 70z" />
    <glyph glyph-name="divide" unicode="&#xf7;" horiz-adv-x="506" 
d="M478 414v-101h-454v101h454zM200 497v100h103v-100h-103zM200 137v100h103v-100h-103z" />
    <glyph glyph-name="notequal" unicode="&#x2260;" horiz-adv-x="534" 
d="M198 331l33 77h-199v99h242l61 140h114l-60 -140h116v-99h-159l-33 -77h192v-99h-235l-64 -151h-116l65 151h-123v99h166z" />
    <glyph glyph-name="lessequal" unicode="&#x2264;" horiz-adv-x="480" 
d="M450 238l-423 160v85q49 19 85.5 33t67 25.5t58.5 22t59 22t67.5 25t85.5 31.5v-96l-292 -107q36 -13 61.5 -22.5t46 -16.5t38.5 -13.5t38.5 -13.5t46 -17t61.5 -22v-96zM29 104v84h421v-84h-421z" />
    <glyph glyph-name="greaterequal" unicode="&#x2265;" horiz-adv-x="480" 
d="M27 334q35 12 61 22t46 17t38 13.5t39 13.5t46.5 16.5t60.5 22.5l-291 107v96q49 -18 85.5 -31.5t67 -25t58.5 -22t59 -22t67.5 -25.5t85.5 -33v-85l-423 -160v96zM27 104v84h421v-84h-421z" />
    <glyph glyph-name="infinity" unicode="&#x221e;" horiz-adv-x="590" 
d="M441 216q-23 0 -42.5 8t-37.5 21t-34 29t-30 33q-16 -16 -32 -32.5t-34 -29.5t-39 -21t-46 -8q-29 0 -52.5 11t-40.5 30t-26 46t-9 58q0 29 9.5 55.5t27 46.5t42.5 31.5t55 11.5q22 0 42 -8t38 -21t34 -29.5t31 -32.5q15 17 30.5 33t33.5 29t39.5 21t46.5 8
q29 0 52.5 -10.5t40.5 -30t26 -46t9 -58.5q0 -30 -9.5 -56.5t-27.5 -46t-43 -31t-54 -11.5zM150 292q13 0 26.5 6t26 16t24 22.5t21.5 24.5q-7 9 -18 21.5t-23.5 23.5t-26.5 18t-28 7q-25 0 -42.5 -20.5t-17.5 -49.5q0 -31 17 -50t41 -19zM500 361q0 30 -16.5 50t-40.5 20
q-14 0 -28 -6.5t-26.5 -16.5t-23.5 -22t-21 -24q10 -11 21.5 -23.5t23 -22.5t24.5 -17t28 -7q12 0 22.5 5.5t18.5 15t13 21.5t5 27z" />
    <glyph glyph-name="therefore" unicode="&#x2234;" horiz-adv-x="600" 
d="M308 453q-26 0 -42 16t-16 41q0 24 16.5 41t42.5 17q25 0 40.5 -17t15.5 -41q0 -25 -15.5 -41t-41.5 -16zM486 148q-26 0 -42.5 15.5t-16.5 41.5q0 25 16.5 40.5t42.5 15.5q23 0 40 -15.5t17 -40.5q0 -26 -17 -41.5t-40 -15.5zM112 148q-24 0 -40.5 15.5t-16.5 41.5
q0 25 16.5 40.5t41.5 15.5t41 -15.5t16 -40.5q0 -26 -16 -41.5t-42 -15.5z" />
    <glyph glyph-name="degree" unicode="&#xb0;" horiz-adv-x="303" 
d="M151 668q-15 0 -27 -6.5t-20.5 -16.5t-13 -23t-4.5 -27q0 -29 19 -49.5t47 -20.5q29 0 48 20.5t19 51.5q0 13 -4.5 25.5t-12.5 22.5t-21 16.5t-29 6.5h-1zM154 724q29 0 53 -10.5t41.5 -27.5t27 -40.5t9.5 -47.5q0 -29 -11.5 -52.5t-29.5 -40t-42 -26t-50 -9.5
q-29 0 -53.5 10t-41.5 26.5t-27 39t-10 48.5q0 28 10.5 52t28.5 41t42 27t52 10h1z" />
    <glyph glyph-name="minute" unicode="&#x2032;" horiz-adv-x="197" 
d="M38 514l10 175h115l-30 -175h-95z" />
    <glyph glyph-name="second" unicode="&#x2033;" horiz-adv-x="358" 
d="M38 514l10 175h115l-30 -175h-95zM205 514q4 44 6.5 87.5t6.5 87.5h112q-7 -44 -14.5 -87.5t-15.5 -87.5h-95z" />
    <glyph glyph-name="uni2103" unicode="&#x2103;" horiz-adv-x="728" 
d="M134 726q36 0 56.5 -20.5t20.5 -55.5v-23q0 -35 -20.5 -56t-56.5 -21h-18q-36 0 -57 21t-21 56v23q0 35 21 55.5t57 20.5h18zM118 670q-10 0 -16.5 -6.5t-6.5 -17.5v-15q0 -11 6.5 -17.5t16.5 -6.5h13q11 0 17 6.5t6 17.5v15q0 11 -6 17.5t-17 6.5h-13zM487 118
q29 0 42.5 17.5t20.5 42.5h126q-4 -37 -19 -69.5t-39.5 -56.5t-58 -38t-71.5 -14h-86q-40 0 -76 15.5t-63 42.5t-42.5 63t-15.5 77v284q0 41 15.5 77.5t42.5 63.5t63 42.5t76 15.5h86q39 0 72 -14t57.5 -38.5t39.5 -57.5t19 -71h-126q-5 26 -19 44t-44 18h-84
q-35 0 -55.5 -25t-20.5 -61v-271q0 -36 20.5 -61.5t55.5 -25.5h84z" />
    <glyph glyph-name="uniFFE0" unicode="&#xffe0;" horiz-adv-x="486" 
d="M425 559l-31 -92q49 -43 56 -119h-96l-78 -233q21 3 35.5 14t19.5 29h119q-9 -72 -56 -115t-126 -43h-30l-16 -47h-108l22 65q-46 22 -71.5 65t-25.5 103v137q0 43 13.5 77t37.5 58t59 37.5t78 13.5h41q17 0 34 -3l17 53h106zM154 190q0 -35 22 -56l87 260h-36
q-32 0 -52.5 -20.5t-20.5 -53.5v-130z" />
    <glyph glyph-name="uniFFE1" unicode="&#xffe1;" horiz-adv-x="440" 
d="M26 334h60v67q0 52 17 89t45 60.5t65 35t78 11.5q47 0 78 -7.5t50 -17.5v-90q-24 8 -45 11.5t-54 3.5q-21 0 -40.5 -4.5t-35 -16t-25 -32t-9.5 -52.5v-58h141v-84h-141v-20q0 -52 -14 -81.5t-42 -50.5v-1h269v-97h-403v88q32 16 49 45t17 81v36h-60v84z" />
    <glyph glyph-name="uniFFE5" unicode="&#xffe5;" horiz-adv-x="515" 
d="M146 403l-128 278h129l105 -217h6q12 26 25 53t27 55l52 109h128l-133 -278h92v-99h-137v-77h137v-99h-137v-128h-122v128h-134v99h134v77h-134v99h90z" />
    <glyph glyph-name="male" unicode="&#x2642;" horiz-adv-x="621" 
d="M126 328q0 -27 10.5 -52t28 -43.5t41.5 -29.5t52 -11t52 11t41.5 29.5t28 43.5t10.5 52t-10.5 51.5t-28 43.5t-41.5 29.5t-52 10.5t-52 -10.5t-41.5 -29.5t-28 -43.5t-10.5 -51.5zM31 328q0 46 17.5 88t48.5 72t72 48t89 18q80 0 137 -44l14.5 14.5t26.5 27t26.5 26.5
t15.5 14h-77v67h189v-189h-67v76q-2 -1 -14.5 -13.5t-27.5 -27t-27 -27t-14 -14.5q45 -57 45 -136q0 -47 -17.5 -88.5t-48.5 -72.5t-72 -49t-89 -18t-89 18t-72 49t-48.5 72.5t-17.5 88.5z" />
    <glyph glyph-name="female" unicode="&#x2640;" horiz-adv-x="522" 
d="M129 493q0 -27 10 -51.5t28 -43.5t42 -29.5t52 -10.5q27 0 51 10.5t41.5 29.5t28 43.5t10.5 51.5t-10.5 51.5t-28 43t-41.5 30t-51 11.5q-28 0 -52 -11.5t-42 -30t-28 -43t-10 -51.5zM228 268q-41 6 -76.5 25t-62 48.5t-41 68.5t-14.5 83q0 47 17.5 88t48 72t72 49
t89.5 18q47 0 88 -18t72 -49t49 -72t18 -88q0 -44 -15 -83t-41 -69t-62 -49t-76 -24v-98h112v-68h-112v-108h-66v108h-114v68h114v98z" />
    <glyph glyph-name="angle" unicode="&#x2220;" horiz-adv-x="742" 
d="M624 114h-507v76l373 436l83 -68l-293 -340h344v-104z" />
    <glyph glyph-name="perpendicular" unicode="&#x22a5;" horiz-adv-x="742" 
d="M635 114h-529v104h211v379h109v-379h209v-104z" />
    <glyph glyph-name="uni2312" unicode="&#x2312;" horiz-adv-x="742" 
d="M476 580q-16 27 -45 41t-63 14q-33 0 -62.5 -14t-44.5 -41h-119q16 31 38 58t50 46.5t62 30.5t76 11t76 -11t62 -30.5t50 -46.5t38 -58h-118z" />
    <glyph glyph-name="partialdiff" unicode="&#x2202;" horiz-adv-x="451" 
d="M202 195q21 0 39 11.5t31.5 31.5t23 45t12.5 52q-4 11 -11.5 23t-19 21.5t-26 15.5t-32.5 6q-21 0 -37.5 -9t-29.5 -24.5t-19.5 -36.5t-6.5 -46q0 -43 21.5 -66.5t54.5 -23.5zM35 666q11 7 26.5 15t34.5 14.5t43 11.5t53 5q49 0 92 -20t75.5 -58t51 -92.5t18.5 -123.5
q0 -77 -19.5 -135.5t-52 -97.5t-76 -59t-91.5 -20q-45 0 -78.5 16t-55 42t-32 58t-10.5 63q0 41 13 78.5t36.5 64.5t57 43t73.5 16q24 0 44 -6t36 -15.5t26.5 -20.5t17.5 -22v0q1 4 1 8.5v8.5q0 41 -10 74.5t-28.5 57.5t-44 37t-55.5 13q-36 0 -63 -10t-50 -21z" />
    <glyph glyph-name="gradient" unicode="&#x2207;" horiz-adv-x="723" 
d="M511 511h-300l150 -237zM697 612l-336 -526l-335 526h671z" />
    <glyph glyph-name="equivalence" unicode="&#x2261;" horiz-adv-x="528" 
d="M482 467h-437v63h437v-63zM482 339h-437v64h437v-64zM482 210h-437v64h437v-64z" />
    <glyph glyph-name="uni2252" unicode="&#x2252;" horiz-adv-x="528" 
d="M430 186q0 -20 -14 -35t-35 -15t-35.5 15t-14.5 35t14.5 34.5t35.5 14.5t35 -14.5t14 -34.5zM197 557q0 -21 -15 -35.5t-36 -14.5q-20 0 -34.5 14.5t-14.5 35.5t14.5 35.5t34.5 14.5q21 0 36 -14.5t15 -35.5zM482 407h-437v59h437v-59zM482 278h-437v60h437v-60z" />
    <glyph glyph-name="section" unicode="&#xa7;" horiz-adv-x="435" 
d="M246 394q-16 5 -33.5 9.5t-33.5 10.5q0 -1 1 -2q-29 -3 -43.5 -17.5t-14.5 -37.5q0 -25 14 -39.5t50 -23.5q18 -5 34.5 -10.5t33.5 -10.5q0 -1 1 -1h1q60 10 60 57q0 13 -3 22t-11 16.5t-21.5 14t-34.5 12.5zM202 -23q-48 0 -88 9t-71 25v89q16 -6 31.5 -12t31.5 -10
t36 -6t44 -2q48 0 70 13.5t22 38.5q0 12 -2 20.5t-9 15.5t-19.5 12t-32.5 11q-19 5 -38 11t-39 11q-28 7 -51.5 18t-41 28t-27 40.5t-9.5 54.5q0 45 20.5 70.5t57.5 39.5q-18 16 -29 41.5t-11 62.5q0 67 47 107.5t142 40.5q26 0 46.5 -2.5t37 -7t30 -10t25.5 -11.5v-87
q-22 10 -54 18t-73 8q-39 0 -62 -11.5t-24 -34.5l-3 12q-1 -4 -1 -7v-5q0 -13 3 -21.5t10 -15.5t17.5 -12t27.5 -11q21 -6 41.5 -12t41.5 -12q33 -8 58 -19t41.5 -27t25 -39t8.5 -55q0 -47 -20.5 -73.5t-54.5 -40.5q41 -33 41 -98q0 -78 -50.5 -116.5t-145.5 -38.5z" />
    <glyph glyph-name="uni2606" unicode="&#x2606;" horiz-adv-x="736" 
d="M369 531l-44 -134h-145l115 -87l-45 -133l119 81l114 -81l-41 133l113 87h-142zM461 458h284l-230 -172l86 -271l-231 164l-236 -164l88 271l-231 172h288l91 268z" />
    <glyph glyph-name="uni2605" unicode="&#x2605;" horiz-adv-x="736" 
d="M461 458h284l-230 -172l86 -271l-231 164l-236 -164l88 271l-231 172h288l91 268z" />
    <glyph glyph-name="circle" unicode="&#x25cb;" horiz-adv-x="736" 
d="M142 373q0 -47 18 -88t48 -72t71 -48.5t88 -17.5t88.5 17.5t72 48.5t48 72t17.5 88q0 46 -17.5 87.5t-48 72t-72 48t-88.5 17.5t-88 -17.5t-71 -48t-48 -72t-18 -87.5zM66 373q0 62 24 117t64.5 96t95.5 64.5t117 23.5q63 0 118 -23.5t96 -64.5t64.5 -96t23.5 -117
q0 -63 -23.5 -118t-64.5 -96t-96 -65t-118 -24q-62 0 -117 24t-95.5 65t-64.5 96t-24 118z" />
    <glyph glyph-name="H18533" unicode="&#x25cf;" horiz-adv-x="736" 
d="M66 373q0 62 24 117t64.5 96t95.5 64.5t117 23.5q63 0 118 -23.5t96 -64.5t64.5 -96t23.5 -117q0 -63 -23.5 -118t-64.5 -96t-96 -65t-118 -24q-62 0 -117 24t-95.5 65t-64.5 96t-24 118z" />
    <glyph glyph-name="uni25CE" unicode="&#x25ce;" horiz-adv-x="736" 
d="M250 373q0 -24 9 -45.5t25 -37.5t37.5 -25.5t45.5 -9.5q25 0 46.5 9.5t37.5 25.5t25.5 37.5t9.5 45.5t-9.5 45t-25.5 37t-37.5 25.5t-46.5 9.5q-24 0 -45.5 -9.5t-37.5 -25.5t-25 -37t-9 -45zM192 373q0 36 13.5 68t37 55.5t55.5 37.5t69 14t69 -14t55.5 -37.5t37 -55.5
t13.5 -68q0 -37 -13.5 -69t-37 -56t-55.5 -37.5t-69 -13.5t-69 13.5t-55.5 37.5t-37 56t-13.5 69zM138 373q0 -47 18 -89t49.5 -73.5t73 -49.5t88.5 -18q48 0 90 18t73 49.5t49 73.5t18 89q0 46 -18 88t-49 73.5t-73 49.5t-90 18q-47 0 -88.5 -18t-73 -49.5t-49.5 -73.5
t-18 -88zM63 373q0 62 23.5 117.5t65 97.5t97 66t118.5 24t119 -24t97 -66t64.5 -97.5t23.5 -117.5q0 -64 -23.5 -119.5t-64.5 -96.5t-97 -64.5t-119 -23.5t-118.5 23.5t-97 64.5t-65 96.5t-23.5 119.5z" />
    <glyph glyph-name="uni25C7" unicode="&#x25c7;" horiz-adv-x="736" 
d="M368 564l-193 -191l193 -194l192 193zM368 700l327 -328l-327 -328l-328 328z" />
    <glyph glyph-name="uni25C6" unicode="&#x25c6;" horiz-adv-x="736" 
d="M40 373l328 327l328 -328l-327 -328z" />
    <glyph glyph-name="H22073" unicode="&#x25a1;" horiz-adv-x="736" 
d="M165 574v-403h404v403h-404zM78 662h579v-580h-579v580z" />
    <glyph glyph-name="filledbox" unicode="&#x25a0;" horiz-adv-x="736" 
d="M78 82v580h580v-580h-580z" />
    <glyph glyph-name="uni25B3" unicode="&#x25b3;" horiz-adv-x="736" 
d="M529 200l-163 319l-162 -319h325zM54 108l314 614l312 -614h-626z" />
    <glyph glyph-name="triagup" unicode="&#x25b2;" horiz-adv-x="736" 
d="M57 98l311 615l311 -615h-622z" />
    <glyph glyph-name="uni25BD" unicode="&#x25bd;" horiz-adv-x="736" 
d="M206 599l162 -321l162 321h-324zM680 682l-312 -614l-314 614h626z" />
    <glyph glyph-name="triagdn" unicode="&#x25bc;" horiz-adv-x="736" 
d="M679 682l-311 -614l-311 614h622z" />
    <glyph glyph-name="arrowright" unicode="&#x2192;" horiz-adv-x="736" 
d="M12 422h582l-61 104l13 14l174 -144l-174 -144l-13 14l61 104h-582v52z" />
    <glyph glyph-name="arrowleft" unicode="&#x2190;" horiz-adv-x="736" 
d="M728 370h-570l60 -104l-12 -14l-176 144l176 144l12 -14l-60 -104h570v-52z" />
    <glyph glyph-name="arrowup" unicode="&#x2191;" horiz-adv-x="469" 
d="M209 34v537l-103 -60l-16 14l144 173l144 -173l-15 -14l-103 60v-537h-51z" />
    <glyph glyph-name="arrowdown" unicode="&#x2193;" horiz-adv-x="469" 
d="M260 736v-515l104 59l14 -12l-144 -174l-144 173l15 13l104 -59v515h51z" />
    <glyph glyph-name="arrowboth" unicode="&#x2194;" horiz-adv-x="736" 
d="M198 266l-14 -14l-174 144l174 144l14 -14l-62 -104h462l-60 104l13 14l174 -144l-174 -144l-13 14l60 104h-462z" />
    <glyph glyph-name="uni3013" unicode="&#x3013;" 
d="M651 436h-534v30h534v-30zM651 274h-534v31h534v-31z" />
    <glyph glyph-name="radical" unicode="&#x221a;" 
d="M621 759q-47 -186 -93.5 -371.5t-94.5 -370.5h-73l-64 168t-64 169q-15 -6 -31 -11.5t-31 -12.5l-23 52q35 15 69 28.5t68 27.5q19 -53 38 -106.5t37 -106.5l16 -46t17 -47h1q1 11 4 22.5t5 21.5q36 144 71.5 291.5t69.5 291.5h78z" />
    <glyph glyph-name="uni223D" unicode="&#x223d;" 
d="M690 374q0 -32 -11 -60t-31.5 -50t-48 -34t-60.5 -12q-49 0 -101 36l27 48q20 -13 38 -20.5t36 -7.5q20 0 37.5 8t29.5 21t18.5 31t6.5 40q0 19 -6.5 36.5t-18.5 31t-29 21.5t-37 8q-42 0 -71 -27t-56 -78q-10 -19 -24.5 -44.5t-36 -48.5t-52 -39t-72.5 -16q-28 0 -55 10
t-48.5 29t-34 48t-12.5 69q0 36 12 65t33.5 49t48 30t55.5 10t55 -9.5t49 -24.5l-28 -49q-37 25 -70 25q-43 0 -69 -26.5t-26 -69.5q0 -44 24.5 -70.5t69.5 -26.5q29 0 51 13t38.5 32.5t28.5 41.5t21 38q13 24 29 47t37 40.5t46 28t55 10.5q33 0 61 -13t48.5 -34t31.5 -49
t11 -58z" />
    <glyph glyph-name="proportional" unicode="&#x221d;" 
d="M259 277q23 0 41.5 8.5t34 22.5t27 31.5t20.5 33.5q-9 17 -20.5 34t-26.5 31t-34 23t-42 9q-42 0 -67.5 -26.5t-25.5 -69.5q0 -44 24 -70.5t69 -26.5zM634 446q-16 12 -33.5 18.5t-33.5 6.5q-39 0 -68.5 -26.5t-54.5 -71.5q24 -44 53 -71.5t70 -27.5q12 0 26 5t30 14
l33 -46q-22 -13 -45.5 -21t-43.5 -8q-26 0 -49 7.5t-41.5 21t-34.5 32t-29 39.5q-11 -18 -26.5 -35.5t-35 -32t-44.5 -23.5t-54 -9q-28 0 -54.5 9.5t-47.5 28.5t-33 48.5t-12 69.5q0 36 12 65t32.5 49t47 30t54.5 10q31 0 56 -9t44.5 -23t34.5 -32t26 -35q13 19 29 37
t35.5 32t42 22t47.5 8q23 0 47.5 -9t47.5 -25z" />
    <glyph glyph-name="uni2235" unicode="&#x2235;" 
d="M375 266q25 0 42 -16t17 -41q0 -23 -17 -39.5t-43 -16.5q-25 0 -40.5 16.5t-15.5 39.5q0 25 16 41t41 16zM198 573q25 0 41 -16.5t16 -42.5q0 -24 -16 -40t-41 -16q-24 0 -41 16t-17 40q0 26 17 42.5t41 16.5zM571 573q25 0 41 -16.5t16 -40.5q0 -26 -16.5 -42t-41.5 -16
q-24 0 -40.5 16t-16.5 42q0 24 16.5 40.5t41.5 16.5z" />
    <glyph glyph-name="integral" unicode="&#x222b;" 
d="M509 665q-7 1 -14.5 2t-16.5 1q-11 0 -21.5 -7t-14.5 -18q-9 -13 -13.5 -41t-4.5 -76q0 -46 2 -87.5t4.5 -83.5t4.5 -87t2 -95q0 -105 -27 -149q-18 -34 -46 -47.5t-60 -13.5q-17 0 -33 2t-23 8l11 75q7 -2 15 -4t16 -2q20 0 36 18q7 12 13.5 37t6.5 73q0 51 -2 96.5
t-4 89t-4 87.5t-2 92q0 66 11.5 104.5t35.5 66.5q17 19 41 27.5t51 8.5q13 0 26.5 -2t19.5 -4z" />
    <glyph glyph-name="uni222C" unicode="&#x222c;" 
d="M612 659q-7 2 -14 2.5t-16 0.5q-11 0 -21 -6t-15 -18q-10 -13 -15 -41t-5 -76q0 -46 2 -87t5 -82.5t5 -85t2 -93.5q0 -105 -26 -149q-18 -34 -47 -47.5t-60 -13.5q-17 0 -32.5 2t-23.5 8l12 75q15 -6 31 -6q11 0 19 4.5t14 13.5q10 12 16.5 37t6.5 73q0 51 -2 95.5
t-4.5 87t-4.5 86t-2 91.5q0 32 2.5 58t8.5 46t15 36.5t21 30.5q17 18 41 26.5t51 8.5q14 0 27 -1.5t19 -4.5zM408 659q-8 2 -15 2.5t-15 0.5q-12 0 -22 -6t-15 -18q-10 -13 -14.5 -41t-4.5 -76q0 -46 2 -87t4 -82.5t4 -85t2 -93.5q0 -52 -5.5 -89t-19.5 -60
q-19 -34 -47 -47.5t-60 -13.5q-16 0 -32.5 2t-23.5 8l11 75q7 -2 14.5 -4t16.5 -2q20 0 35 18q9 12 15.5 37t6.5 73q0 51 -2 95.5t-4 87t-4 86t-2 91.5q0 32 2.5 58t8.5 46t15 36.5t21 30.5q16 18 40 26.5t50 8.5q15 0 28 -1.5t20 -4.5z" />
    <glyph glyph-name="element" unicode="&#x2208;" 
d="M667 329h-471q11 -35 42 -57t88 -22h343v-89h-339q-60 0 -104 16.5t-72 46t-42 68t-14 82.5q0 41 13.5 78.5t41.5 65.5t70.5 44t102.5 16h343v-88h-343q-55 0 -86 -20.5t-42 -51.5h469v-89z" />
    <glyph glyph-name="suchthat" unicode="&#x220b;" 
d="M102 418h460q-12 28 -42 48t-83 20h-334v92h334q60 0 102.5 -16.5t70.5 -45t41.5 -65.5t13.5 -77q0 -42 -14 -80.5t-43 -68t-72.5 -47t-102.5 -17.5h-330v90h334q55 0 86 23t43 55h-464v89z" />
    <glyph glyph-name="reflexsubset" unicode="&#x2286;" 
d="M663 58h-533v90h533v-90zM665 480h-334q-37 0 -62.5 -7t-42 -19.5t-24 -29.5t-7.5 -36q0 -43 31.5 -69t104.5 -26h334v-91h-331q-60 0 -103.5 14.5t-72 40t-42 59.5t-13.5 74q0 37 13.5 70t41.5 57.5t70.5 38.5t102.5 14h334v-90z" />
    <glyph glyph-name="reflexsuperset" unicode="&#x2287;" 
d="M103 570h335q60 0 103 -14t70.5 -38.5t41 -57.5t13.5 -70q0 -40 -14 -74t-42.5 -59.5t-72 -40t-103.5 -14.5h-331v91h335q36 0 61.5 6.5t41.5 19.5t23 30t7 39q0 19 -7 36t-22.5 29.5t-41.5 19.5t-62 7h-335v90zM102 148h536v-90h-536v90z" />
    <glyph glyph-name="propersubset" unicode="&#x2282;" 
d="M663 480h-330q-37 0 -62.5 -8.5t-42 -23t-24 -33.5t-7.5 -41q0 -23 7.5 -43t24 -34.5t42.5 -23t62 -8.5h330v-90h-327q-60 0 -103.5 16t-72 43.5t-42 64t-13.5 78.5q0 40 13 75t41 61.5t71 41.5t103 15h330v-90z" />
    <glyph glyph-name="propersuperset" unicode="&#x2283;" 
d="M103 567h332q60 0 103.5 -15t71.5 -41.5t41 -61.5t13 -75q0 -42 -14 -78.5t-43 -64t-72.5 -43.5t-103.5 -16h-328v90h332q37 0 62 8t41 23t23 35t7 43q0 22 -7 41t-22.5 33.5t-41 23t-62.5 8.5h-332v90z" />
    <glyph glyph-name="union" unicode="&#x222a;" horiz-adv-x="525" 
d="M154 632v-333q0 -37 8.5 -62.5t23 -42t33.5 -24t40 -7.5q48 0 79.5 32t31.5 104v333h93v-329q0 -60 -16 -103t-44 -71.5t-65.5 -42t-80.5 -13.5q-40 0 -75.5 12.5t-62.5 40.5t-42.5 70.5t-15.5 102.5v333h93z" />
    <glyph glyph-name="intersection" unicode="&#x2229;" horiz-adv-x="525" 
d="M262 646q44 0 80.5 -14t63 -42.5t41.5 -72t15 -103.5v-341h-92v345q0 72 -30 104.5t-78 32.5t-77.5 -32.5t-29.5 -104.5v-345h-93v341q0 60 15 103.5t42 72t63.5 42.5t79.5 14z" />
    <glyph glyph-name="logicaland" unicode="&#x2227;" 
d="M414 605q60 -117 120 -232.5t120 -232.5q-17 -9 -35 -17.5t-36 -16.5q-50 97 -100.5 193.5t-100.5 195.5q-50 -100 -99 -194.5t-97 -194.5q-18 8 -36 16.5t-36 17.5q60 117 120 232.5t120 232.5h60z" />
    <glyph glyph-name="logicalor" unicode="&#x2228;" 
d="M583 616l36 -18t35 -19q-60 -115 -120 -231t-120 -231h-60q-60 115 -120 231t-120 231q18 10 36 19l36 18l198 -386q50 100 98 194t101 192z" />
    <glyph glyph-name="arrowdblright" unicode="&#x21d2;" 
d="M517 586l227 -227l-227 -229l-42 40l83 82h-534v61h594l44 45l-44 45h-594v61h531l-80 81z" />
    <glyph glyph-name="arrowdblboth" unicode="&#x21d4;" 
d="M618 313l44 45l-44 46h-467l-45 -44l45 -47h467zM517 586l227 -226l-227 -230l-42 41l83 81h-347l82 -81l-42 -41l-227 230l227 226l42 -40l-81 -81h343l-80 81z" />
    <glyph glyph-name="universal" unicode="&#x2200;" horiz-adv-x="742" 
d="M629 667q-46 -148 -91 -293.5t-91 -291.5h-156l-178 585h125q12 -41 23.5 -82.5t23.5 -82.5h163q12 41 24.5 82.5t25.5 82.5h131zM366 171q3 24 7.5 49.5t12.5 49.5l45 144h-129q11 -36 21 -72t21 -72q6 -24 10.5 -50t7.5 -49h4z" />
    <glyph glyph-name="existential" unicode="&#x2203;" horiz-adv-x="742" 
d="M230 437h186v135h-196v99h317v-589h-332v99h211v158h-186v98z" />
    <glyph glyph-name="uni2236" unicode="&#x2236;" horiz-adv-x="736" 
d="M256 510l-77 -79l-77 79h154zM256 208h-154l77 78z" />
    <glyph glyph-name="uni222E" unicode="&#x222e;" horiz-adv-x="720" 
d="M339 451q-25 -9 -43 -33t-21 -58q-3 -36 12 -60.5t43 -32.5q3 42 4 94q1 24 2.5 46t2.5 44zM451 360q3 34 -13 61t-49 33q-3 -41 -5 -93q-1 -26 -2 -49.5t-4 -45.5q30 8 50 33t23 61zM493 631q-7 15 -17 23.5t-24 8.5q-18 0 -34.5 -48t-26.5 -136q22 -2 41 -11t33 -24
t21.5 -36t4.5 -48q-2 -26 -12 -46.5t-25.5 -36t-36 -24t-42.5 -11.5q-11 -92 -34 -150q-14 -31 -33.5 -50.5t-43.5 -19.5q-51 0 -76 48l37 21q7 -15 17 -24t24 -9q18 0 35 48t26 136q-21 4 -38.5 13t-30 24t-19 35t-4.5 46q3 25 12 45t23.5 34.5t33 24t38.5 13.5
q12 92 36 153q13 31 32 50t44 19q53 0 78 -51z" />
    <glyph glyph-name="summation" unicode="&#x2211;" horiz-adv-x="408" 
d="M440 -16h-457v69q50 63 98.5 128t98.5 130l-184 268v76h408v-100h-260v-3l158 -234l-171 -229v-6h309v-99z" />
    <glyph glyph-name="product" unicode="&#x220f;" horiz-adv-x="514" 
d="M462 558v-576h-113v576h-184v-576h-114v576h-65v97h540v-97h-64z" />
    <glyph glyph-name="currency" unicode="&#xa4;" horiz-adv-x="784" 
d="M709 579l-97 -87q15 -29 24.5 -61.5t9.5 -69.5q0 -39 -11.5 -76t-29.5 -67q3 -4 18 -17t32 -28.5t32 -29t19 -16.5l-57 -65l-103 94q-34 -28 -75 -44t-89 -16q-44 0 -83.5 13t-73.5 39q2 2 -3.5 -2.5t-15.5 -14t-23 -20.5t-25 -21.5t-21 -18.5t-11 -9l-57 65l95 85
q-20 31 -32.5 69t-12.5 80q0 74 39 137q-4 2 -18 14.5t-29.5 27t-29 26.5t-15.5 13l62 62l86 -76q34 25 77 41.5t91 16.5q50 0 93 -17t79 -47q-2 -2 3 2.5t14.5 12.5t22 19t23 21t19 17t10.5 10zM566 361q0 38 -14.5 71.5t-39.5 58t-58.5 39t-71.5 14.5q-39 0 -72 -14.5
t-58 -39t-39.5 -58t-14.5 -71.5q0 -39 14.5 -72t39.5 -58t58 -39t72 -14q38 0 71.5 14t58.5 39t39.5 58t14.5 72z" />
    <glyph glyph-name="uni2109" unicode="&#x2109;" horiz-adv-x="678" 
d="M368 0h-115v681h388v-115h-276v-168h277v-114h-274v-284zM135 726q36 0 57 -20.5t21 -55.5v-23q0 -35 -21 -56t-57 -21h-17q-36 0 -57 21t-21 56v23q0 35 21 55.5t57 20.5h17zM120 670q-10 0 -16.5 -6.5t-6.5 -17.5v-15q0 -11 6.5 -17.5t16.5 -6.5h13q10 0 16.5 6.5
t6.5 17.5v15q0 11 -6.5 17.5t-16.5 6.5h-13z" />
    <glyph glyph-name="perthousand" unicode="&#x2030;" horiz-adv-x="943" 
d="M585 703l-403 -726h-124l405 726h122zM174 641q18 0 35 -8t29.5 -21.5t20 -31.5t7.5 -38v-60q0 -20 -7 -39t-20 -32.5t-29.5 -21.5t-35.5 -8h-65q-19 0 -36 8t-30 21.5t-20 32.5t-7 39v56q0 19 7 37.5t20 33t30 23.5t36 9h65zM183 522q0 13 -7 21.5t-18 8.5h-33
q-11 0 -18.5 -8.5t-7.5 -21.5v-23q0 -13 7.5 -21t18.5 -8h33q11 0 18 8t7 21v23zM522 267q19 0 35.5 -8t29.5 -21.5t20.5 -31.5t7.5 -38v-59q0 -21 -7 -40t-20 -32.5t-29.5 -21.5t-36.5 -8h-64q-20 0 -36.5 8t-29.5 21.5t-20 32.5t-7 40v55q0 19 7 37.5t20 33.5t29.5 23.5
t36.5 8.5h64zM532 149q0 13 -7 21t-19 8h-32q-12 0 -19 -8t-7 -21v-23q0 -13 7 -21.5t19 -8.5h32q12 0 19 8.5t7 21.5v23zM818 267q19 0 35.5 -8t29.5 -21.5t20.5 -31.5t7.5 -38v-59q0 -21 -7 -40t-20 -32.5t-29.5 -21.5t-36.5 -8h-64q-20 0 -36.5 8t-29.5 21.5t-20 32.5
t-7 40v55q0 19 7 37.5t20 33.5t29.5 23.5t36.5 8.5h64zM828 149q0 13 -7 21t-19 8h-32q-12 0 -19 -8t-7 -21v-23q0 -13 7 -21.5t19 -8.5h32q12 0 19 8.5t7 21.5v23z" />
    <glyph glyph-name="uni25C1" unicode="&#x25c1;" 
d="M643 34l-518 327l518 329v-656zM578 150v424l-338 -213z" />
    <glyph glyph-name="uni25C0" unicode="&#x25c0;" 
d="M643 34l-518 327l518 329v-656z" />
    <glyph glyph-name="uni25B7" unicode="&#x25b7;" 
d="M643 361l-518 -327v656zM527 361l-337 213v-424z" />
    <glyph glyph-name="uni25B6" unicode="&#x25b6;" 
d="M643 361l-518 -327v656z" />
    <glyph glyph-name="uni2664" unicode="&#x2664;" 
d="M661 277q0 -28 -8.5 -51.5t-24 -40t-37 -26t-48.5 -9.5q-25 0 -47.5 9.5t-55.5 27.5q1 -16 5 -36.5t10 -41.5t13.5 -41.5t15.5 -36.5q1 0 2 -1q2 -2 4 -3q4 -7 -6 -10.5t-27 -5t-36.5 -1.5h-35.5h-39t-36.5 1.5t-26 5t-6.5 10.5l8 4q8 18 15 38.5t12.5 40.5t9.5 40t6 37
q-32 -18 -54.5 -27.5t-47.5 -9.5q-27 0 -49 9.5t-37.5 26t-24 40t-8.5 51.5q0 37 25.5 87.5t65.5 108.5t89.5 120t97.5 121q48 -59 96.5 -121t88.5 -120t65.5 -108.5t25.5 -87.5zM583 293q0 26 -19.5 65t-49 82t-64.5 87t-65 81q-31 -37 -66 -81t-64.5 -87t-49 -82
t-19.5 -65q0 -13 3.5 -27.5t11.5 -26.5t21 -19.5t32 -7.5q15 0 28.5 6t25.5 13.5t21.5 13.5t16.5 6q20 0 21 -23q1 -22 -6 -53.5t-17 -64.5q-3 -12 0.5 -14t13.5 -3l4 0.5t9 0.5h9h5h13.5h12.5q7 1 11.5 4t1.5 12q-10 33 -17 64.5t-6 53.5q1 13 6 18t16 5q7 0 16 -6
t21 -13.5t26 -13.5t29 -6q19 0 32 7.5t21 19.5t11.5 26.5t3.5 27.5z" />
    <glyph glyph-name="spade" unicode="&#x2660;" 
d="M660 277q0 -28 -8.5 -51.5t-24 -40t-36.5 -26t-48 -9.5q-25 0 -48.5 10t-56.5 30q1 -16 5 -37t10 -42.5t13.5 -42.5t15.5 -37q8 -15 -11 -17q-16 -3 -40 -4t-47 -1q-26 0 -48 1t-39 4q-19 2 -11 17q8 18 15 38.5t13 41.5t10 41.5t6 37.5q-33 -20 -56.5 -30t-48.5 -10
q-27 0 -48 9.5t-36.5 26t-24 40t-8.5 51.5q0 37 25 87.5t65 108.5t89 120t97 122q48 -60 97 -122t89 -120t65 -108.5t25 -87.5z" />
    <glyph glyph-name="uni2661" unicode="&#x2661;" 
d="M678 511q0 -61 -28.5 -127t-72.5 -130.5t-95.5 -122.5t-97.5 -102q-46 44 -97.5 102t-95.5 122.5t-72.5 130.5t-28.5 127q0 35 11.5 65t31.5 52t47 35t58 13q53 0 90 -35t56 -117q19 82 56 117t90 35q31 0 58 -13t47 -35t31.5 -52t11.5 -65zM597 480q0 49 -25.5 81
t-80.5 32q-17 0 -30 -8.5t-22.5 -21.5t-16.5 -29t-11 -30q-4 -12 -9.5 -24t-17.5 -12t-17.5 12t-9.5 24q-4 14 -11.5 30t-17 29t-22.5 21.5t-29 8.5q-55 0 -81.5 -32t-26.5 -81q0 -42 21 -89.5t52.5 -94.5t69.5 -91t72 -79q34 35 71.5 79t68.5 91t52 94.5t21 89.5z" />
    <glyph glyph-name="heart" unicode="&#x2665;" 
d="M678 511q0 -61 -28.5 -127t-72.5 -130.5t-95.5 -122.5t-97.5 -102q-46 44 -97.5 102t-95.5 122.5t-72.5 130.5t-28.5 127q0 35 11.5 65t31.5 52t47 35t58 13q53 0 90 -35t56 -117q19 82 56 117t90 35q31 0 58 -13t47 -35t31.5 -52t11.5 -65z" />
    <glyph glyph-name="uni2667" unicode="&#x2667;" 
d="M720 285q0 -31 -10 -59t-29 -49.5t-45 -34t-58 -12.5q-23 0 -43.5 6t-38 16.5t-31.5 22t-23 23.5q6 -15 12 -34.5t11 -42.5t7.5 -47t2.5 -47q0 -5 -4.5 -8.5t-9.5 -4.5q-11 0 -17.5 -0.5t-14 -1t-17.5 -0.5h-28q-21 0 -38 0.5t-39 1.5q-5 1 -9.5 4.5t-4.5 8.5
q0 23 2.5 47t7 47t10.5 42.5t13 34.5q-9 -12 -23.5 -23.5t-31.5 -22t-38 -16.5t-43 -6q-32 0 -58 12.5t-45 34t-29 49.5t-10 59q0 29 10.5 57t28.5 49t43 34t56 13q28 0 53.5 -10.5t50.5 -21.5q6 -4 13 -3t10 5q4 6 0.5 14t-7.5 12q-20 17 -34 32.5t-23.5 31.5t-14 34
t-4.5 41q0 31 13 56t34 43t49 27.5t58 9.5t58 -9.5t49 -27.5t34 -43t13 -56q0 -23 -4.5 -41t-14 -34t-23.5 -31.5t-34 -32.5q-4 -4 -7.5 -12t0.5 -14q3 -4 10 -5t13 3q25 11 50.5 21.5t53.5 10.5q30 0 55 -13t43.5 -34t29 -49t10.5 -57zM659 294q0 44 -29 67.5t-76 23.5
q-17 0 -33.5 -3.5t-31 -7.5t-26.5 -7.5t-21 -3.5q-16 0 -28 9.5t-12 27.5q0 15 11.5 29t26 31t26 39t11.5 53q0 48 -24 73t-69 25q-43 0 -68 -25t-25 -73q0 -31 11.5 -53t25.5 -39t25.5 -31t11.5 -29q0 -18 -11.5 -27.5t-27.5 -9.5q-9 0 -21 3.5t-26.5 7.5t-31 7.5
t-33.5 3.5q-47 0 -76 -23.5t-29 -67.5q0 -45 29.5 -73t79.5 -28q25 0 45 10.5t36 23.5t29 24t24 11q7 0 9 -4t2 -12q0 -14 -3 -32.5t-7.5 -40t-7.5 -46t-3 -49.5q0 -8 9 -9q7 -1 15.5 -1.5t17.5 -0.5t17.5 0.5t15.5 1.5q9 1 9 9q0 25 -3 49.5t-7.5 46t-7.5 40t-3 32.5
q0 8 2 12t9 4q10 0 23 -11t29 -24t36 -23.5t46 -10.5q50 0 79.5 28t29.5 73z" />
    <glyph glyph-name="club" unicode="&#x2663;" 
d="M720 285q0 -31 -10 -59t-29 -49.5t-45 -34t-58 -12.5q-23 0 -43.5 6t-38 16.5t-31.5 22t-23 23.5q6 -15 12 -34.5t11 -42.5t7.5 -47t2.5 -47q0 -5 -4.5 -8.5t-9.5 -4.5q-11 0 -17.5 -0.5t-14 -1t-17.5 -0.5h-28q-21 0 -38 0.5t-39 1.5q-5 1 -9.5 4.5t-4.5 8.5
q0 23 2.5 47t7 47t10.5 42.5t13 34.5q-9 -12 -23.5 -23.5t-31.5 -22t-38 -16.5t-43 -6q-32 0 -58 12.5t-45 34t-29 49.5t-10 59q0 29 10.5 57t28.5 49t43 34t56 13q28 0 53.5 -10.5t50.5 -21.5q6 -4 13 -3t10 5q4 6 0.5 14t-7.5 12q-20 17 -34 32.5t-23.5 31.5t-14 34
t-4.5 41q0 31 13 56t34 43t49 27.5t58 9.5t58 -9.5t49 -27.5t34 -43t13 -56q0 -23 -4.5 -41t-14 -34t-23.5 -31.5t-34 -32.5q-4 -4 -7.5 -12t0.5 -14q3 -4 10 -5t13 3q25 11 50.5 21.5t53.5 10.5q30 0 55 -13t43.5 -34t29 -49t10.5 -57z" />
    <glyph glyph-name="uni25C9" unicode="&#x25c9;" 
d="M713 360q0 -68 -26 -128t-70.5 -104.5t-104.5 -70.5t-128 -26q-67 0 -126.5 26t-105 70.5t-71.5 104.5t-26 128t26 128t71.5 104.5t105 70.5t126.5 26q68 0 128 -26t104.5 -70.5t70.5 -104.5t26 -128zM642 360q0 54 -20 100.5t-55.5 82t-82 55.5t-100.5 20t-100.5 -20
t-81.5 -55.5t-55.5 -82t-20.5 -100.5t20.5 -100.5t55.5 -81.5t81.5 -55.5t100.5 -20.5t100.5 20.5t82 55.5t55.5 81.5t20 100.5zM511 360q0 -26 -10 -49.5t-27 -40.5t-40.5 -27t-49.5 -10t-49 10t-40.5 27t-27.5 40.5t-10 49.5t10 49.5t27.5 40.5t40.5 27t49 10t49.5 -10
t40.5 -27t27 -40.5t10 -49.5z" />
    <glyph glyph-name="uni25C8" unicode="&#x25c8;" 
d="M750 359l-367 -366l-365 365l366 368zM689 359l-305 304l-307 -305l306 -306zM598 358l-214 -213l-214 213l214 214z" />
    <glyph glyph-name="uni25A3" unicode="&#x25a3;" 
d="M698 46h-628v626h628v-626zM650 93v532h-532v-532h532zM566 175h-365v365h365v-365z" />
    <glyph glyph-name="uni25D0" unicode="&#x25d0;" 
d="M704 360q0 -66 -25 -124t-69 -102t-102 -69t-124 -25q-65 0 -123.5 25t-102 69t-69 102t-25.5 124t25.5 124t69 102t102 69t123.5 25q66 0 124 -25t102 -69t69 -102t25 -124zM671 360q0 58 -22.5 110.5t-62 92t-92 62t-110.5 22.5v-573q58 0 110.5 22.5t92 61.5t62 91
t22.5 111z" />
    <glyph glyph-name="uni25D1" unicode="&#x25d1;" 
d="M704 360q0 -66 -25.5 -124t-69 -102t-102 -69t-123.5 -25q-66 0 -124 25t-102 69t-69 102t-25 124t25 124t69 102t102 69t124 25q65 0 123.5 -25t102 -69t69 -102t25.5 -124zM384 647q-59 0 -111 -22.5t-91.5 -62t-62 -92t-22.5 -110.5q0 -59 22.5 -111t62 -91
t91.5 -61.5t111 -22.5v573z" />
    <glyph glyph-name="shade" unicode="&#x2592;" 
d="M688 55h-608v607h608v-607zM662 82v554h-556v-554h556zM635 591q0 -9 -6 -15t-15 -6q-20 0 -20 21q0 9 5.5 15t14.5 6t15 -6t6 -15zM558 591q0 -21 -20 -21t-20 21q0 9 5.5 15t14.5 6q8 0 14 -6t6 -15zM635 514q0 -8 -6 -14t-15 -6t-14.5 6t-5.5 14t5.5 14t14.5 6t15 -6
t6 -14zM558 514q0 -8 -6 -14t-14 -6q-9 0 -14.5 6t-5.5 14t5.5 14t14.5 6q8 0 14 -6t6 -14zM482 591q0 -9 -6 -15t-14 -6q-9 0 -16 6t-7 15t7 15t16 6q8 0 14 -6t6 -15zM635 438q0 -8 -6 -15t-15 -7t-14.5 7t-5.5 15q0 9 5.5 15t14.5 6t15 -6t6 -15zM482 514q0 -8 -6 -14
t-14 -6q-9 0 -16 6t-7 14t7 14t16 6q8 0 14 -6t6 -14zM558 438q0 -8 -6 -15t-14 -7q-9 0 -14.5 7t-5.5 15q0 9 5.5 15t14.5 6q8 0 14 -6t6 -15zM404 591q0 -21 -20 -21q-8 0 -14.5 6t-6.5 15t6.5 15t14.5 6q9 0 14.5 -6t5.5 -15zM635 361q0 -8 -6 -14t-15 -6t-14.5 6
t-5.5 14q0 21 20 21q9 0 15 -6t6 -15zM404 514q0 -8 -5.5 -14t-14.5 -6q-8 0 -14.5 6t-6.5 14t6.5 14t14.5 6q9 0 14.5 -6t5.5 -14zM482 438q0 -8 -6 -15t-14 -7q-9 0 -16 7t-7 15q0 9 7 15t16 6q8 0 14 -6t6 -15zM558 361q0 -8 -6 -14t-14 -6q-9 0 -14.5 6t-5.5 14
q0 21 20 21t20 -21zM329 591q0 -9 -7 -15t-16 -6q-20 0 -20 21q0 9 6 15t14 6q9 0 16 -6t7 -15zM635 283q0 -9 -6 -15t-15 -6t-14.5 6t-5.5 15t5.5 16t14.5 7t15 -7t6 -16zM329 514q0 -8 -7 -14t-16 -6q-8 0 -14 6t-6 14t6 14t14 6q9 0 16 -6t7 -14zM404 438q0 -8 -5.5 -15
t-14.5 -7q-8 0 -14.5 7t-6.5 15q0 9 6.5 15t14.5 6q9 0 14.5 -6t5.5 -15zM482 361q0 -8 -6 -14t-14 -6q-9 0 -16 6t-7 14q0 9 7 15t16 6q8 0 14 -6t6 -15zM558 283q0 -9 -6 -15t-14 -6q-9 0 -14.5 6t-5.5 15t5.5 16t14.5 7q8 0 14 -7t6 -16zM251 591q0 -9 -6 -15t-14 -6
q-9 0 -15 6t-6 15t6 15t15 6q8 0 14 -6t6 -15zM635 208q0 -9 -6 -15t-15 -6t-14.5 6t-5.5 15q0 8 5.5 13.5t14.5 5.5t15 -5.5t6 -13.5zM174 591q0 -21 -20 -21q-8 0 -14 6t-6 15t6 15t14 6q10 0 15 -6t5 -15zM251 514q0 -8 -6 -14t-14 -6q-9 0 -15 6t-6 14t6 14t15 6
q8 0 14 -6t6 -14zM329 438q0 -8 -7 -15t-16 -7q-8 0 -14 7t-6 15q0 9 6 15t14 6q9 0 16 -6t7 -15zM404 361q0 -8 -5.5 -14t-14.5 -6q-8 0 -14.5 6t-6.5 14q0 9 6.5 15t14.5 6q20 0 20 -21zM482 283q0 -9 -6 -15t-14 -6q-9 0 -16 6t-7 15t7 16t16 7q8 0 14 -7t6 -16zM558 208
q0 -9 -6 -15t-14 -6q-9 0 -14.5 6t-5.5 15q0 8 5.5 13.5t14.5 5.5q8 0 14 -5.5t6 -13.5zM635 130q0 -8 -6 -14t-15 -6t-14.5 6t-5.5 14q0 21 20 21q9 0 15 -5.5t6 -15.5zM174 514q0 -8 -5 -14t-15 -6q-8 0 -14 6t-6 14t6 14t14 6q10 0 15 -6t5 -14zM558 130q0 -8 -6 -14
t-14 -6q-9 0 -14.5 6t-5.5 14q0 21 20 21t20 -21zM251 438q0 -8 -6 -15t-14 -7q-9 0 -15 7t-6 15q0 9 6 15t15 6q8 0 14 -6t6 -15zM329 361q0 -8 -7 -14t-16 -6q-8 0 -14 6t-6 14q0 21 20 21q9 0 16 -6t7 -15zM404 283q0 -9 -5.5 -15t-14.5 -6q-8 0 -14.5 6t-6.5 15t6.5 16
t14.5 7q9 0 14.5 -7t5.5 -16zM482 208q0 -9 -6 -15t-14 -6q-9 0 -16 6t-7 15q0 8 7 13.5t16 5.5q8 0 14 -5.5t6 -13.5zM174 438q0 -8 -5 -15t-15 -7q-8 0 -14 7t-6 15q0 9 6 15t14 6q10 0 15 -6t5 -15zM482 130q0 -8 -6 -14t-14 -6q-9 0 -16 6t-7 14q0 10 7 15.5t16 5.5
q8 0 14 -5.5t6 -15.5zM251 361q0 -8 -6 -14t-14 -6q-9 0 -15 6t-6 14q0 9 6 15t15 6q8 0 14 -6t6 -15zM329 283q0 -9 -7 -15t-16 -6q-8 0 -14 6t-6 15t6 16t14 7q9 0 16 -7t7 -16zM404 208q0 -9 -5.5 -15t-14.5 -6q-8 0 -14.5 6t-6.5 15q0 8 6.5 13.5t14.5 5.5
q9 0 14.5 -5.5t5.5 -13.5zM174 361q0 -8 -5 -14t-15 -6q-8 0 -14 6t-6 14q0 9 6 15t14 6q20 0 20 -21zM404 130q0 -8 -5.5 -14t-14.5 -6q-8 0 -14.5 6t-6.5 14q0 10 6.5 15.5t14.5 5.5q20 0 20 -21zM251 283q0 -9 -6 -15t-14 -6q-9 0 -15 6t-6 15t6 16t15 7q8 0 14 -7t6 -16
zM329 208q0 -9 -7 -15t-16 -6q-8 0 -14 6t-6 15q0 8 6 13.5t14 5.5q9 0 16 -5.5t7 -13.5zM174 283q0 -9 -5 -15t-15 -6q-8 0 -14 6t-6 15t6 16t14 7q10 0 15 -7t5 -16zM329 130q0 -8 -7 -14t-16 -6q-8 0 -14 6t-6 14q0 21 20 21q9 0 16 -5.5t7 -15.5zM251 208q0 -9 -6 -15
t-14 -6q-9 0 -15 6t-6 15q0 8 6 13.5t15 5.5q8 0 14 -5.5t6 -13.5zM174 208q0 -9 -5 -15t-15 -6q-8 0 -14 6t-6 15q0 8 6 13.5t14 5.5q10 0 15 -5.5t5 -13.5zM251 130q0 -8 -6 -14t-14 -6q-9 0 -15 6t-6 14q0 10 6 15.5t15 5.5q8 0 14 -5.5t6 -15.5zM174 130q0 -8 -5 -14
t-15 -6q-8 0 -14 6t-6 14q0 10 6 15.5t14 5.5q20 0 20 -21z" />
    <glyph glyph-name="uni25A4" unicode="&#x25a4;" 
d="M688 55h-608v607h608v-607zM662 580v56h-556v-56h556zM662 494v60h-556v-60h556zM662 414v55h-556v-55h556zM662 330v58h-556v-58h556zM662 244v60h-556v-60h556zM662 162v56h-556v-56h556zM662 82v55h-556v-55h556z" />
    <glyph glyph-name="uni25A5" unicode="&#x25a5;" 
d="M688 55h-608v607h608v-607zM662 82v554h-56v-554h56zM580 82v554h-56v-554h56zM498 82v554h-60v-554h60zM413 82v554h-59v-554h59zM329 82v554h-55v-554h55zM248 82v554h-60v-554h60zM162 82v554h-56v-554h56z" />
    <glyph glyph-name="uni25A8" unicode="&#x25a8;" 
d="M688 55h-608v607h608v-607zM662 520v97l-536 -535h97zM662 385v97l-400 -400h96zM662 248v98l-264 -264h97zM662 82v128l-128 -128h128zM234 636h-128v-126zM370 636h-98l-166 -165v-98zM506 636h-96l-304 -302v-97zM641 636h-96l-439 -438v-96z" />
    <glyph glyph-name="uni25A7" unicode="&#x25a7;" 
d="M688 55h-608v607h608v-607zM662 510v126h-128zM662 373v98l-166 165h-98zM662 237v97l-304 302h-96zM662 102v96l-439 438h-96zM642 82l-536 535v-97l439 -438h97zM506 82l-400 400v-97l304 -303h96zM370 82l-264 264v-98l167 -166h97zM234 82l-128 128v-128h128z" />
    <glyph glyph-name="uni25A6" unicode="&#x25a6;" 
d="M688 55h-608v607h608v-607zM662 578v58h-59v-58h59zM662 495v59h-59v-59h59zM578 578v58h-58v-58h58zM662 412v59h-59v-59h59zM496 578v58h-59v-58h59zM578 495v59h-58v-59h58zM662 330v58h-59v-58h59zM413 578v58h-59v-58h59zM496 495v59h-59v-59h59zM578 412v59h-58
v-59h58zM662 246v60h-59v-60h59zM330 578v58h-59v-58h59zM413 495v59h-59v-59h59zM496 412v59h-59v-59h59zM578 330v58h-58v-58h58zM662 164v58h-59v-58h59zM247 578v58h-58v-58h58zM330 495v59h-59v-59h59zM413 412v59h-59v-59h59zM496 330v58h-59v-58h59zM578 246v60h-58
v-60h58zM662 82v58h-59v-58h59zM165 578v58h-59v-58h59zM247 495v59h-58v-59h58zM330 412v59h-59v-59h59zM413 330v58h-59v-58h59zM496 246v60h-59v-60h59zM578 164v58h-58v-58h58zM578 82v58h-58v-58h58zM165 495v59h-59v-59h59zM247 412v59h-58v-59h58zM330 330v58h-59
v-58h59zM413 246v60h-59v-60h59zM496 164v58h-59v-58h59zM496 82v58h-59v-58h59zM165 412v59h-59v-59h59zM247 330v58h-58v-58h58zM330 246v60h-59v-60h59zM413 164v58h-59v-58h59zM413 82v58h-59v-58h59zM165 330v58h-59v-58h59zM247 246v60h-58v-60h58zM330 164v58h-59
v-58h59zM330 82v58h-59v-58h59zM165 246v60h-59v-60h59zM247 164v58h-58v-58h58zM247 82v58h-58v-58h58zM165 164v58h-59v-58h59zM165 82v58h-59v-58h59z" />
    <glyph glyph-name="uni25A9" unicode="&#x25a9;" 
d="M688 55h-608v607h608v-607zM662 510v108l-56 -54zM640 636h-106l53 -53zM642 490l-54 56l-50 -50l55 -54zM566 564l-51 52l-49 -48l53 -54zM497 636h-99l50 -49zM662 372v99l-49 -49zM427 568l-49 48l-48 -48l48 -49zM500 496l-53 52l-49 -48l54 -52zM574 423l-55 54
l-48 -48l54 -56zM642 354l-49 48l-49 -48l50 -48zM358 636h-96l48 -48zM662 237v97l-48 -49zM506 354l-55 54l-49 -48l56 -54zM290 568l-48 49l-48 -48l48 -49zM430 429l-52 52l-47 -48l52 -53zM574 285l-49 49l-47 -48l48 -49zM642 218l-48 48l-49 -48l49 -49zM358 500
l-49 49l-47 -48l48 -49zM223 636h-96l47 -47zM662 102v96l-48 -48zM642 82l-48 48l-49 -48h97zM154 569l-48 48v-97zM438 285l-55 57l-48 -51l54 -53zM223 501l-49 49l-48 -49l48 -48zM290 434l-48 48l-48 -48l48 -49zM362 360l-52 53l-48 -48l52 -52zM506 218l-48 48
l-48 -48l48 -49zM574 150l-48 48l-48 -48l48 -48zM506 82l-48 48l-48 -48h96zM154 434l-48 48v-97zM223 365l-49 48l-48 -48l48 -48zM294 292l-52 54l-48 -50l52 -52zM370 218l-56 55l-48 -48l54 -56zM438 150l-48 48l-48 -48l48 -48zM154 296l-48 50v-97zM370 82l-49 48
l-49 -48h98zM227 225l-53 52l-48 -48l52 -51zM301 150l-55 56l-48 -49l56 -55zM158 157l-52 53v-105zM234 82l-56 56l-54 -56h110z" />
    <glyph glyph-name="uni2668" unicode="&#x2668;" 
d="M549 359q2 -31 -4.5 -55t-16 -43t-20 -34.5t-17.5 -28.5q-11 -20 -16 -36t-7 -24q-2 -4 -5.5 -6t-5.5 6q-3 6 -4 16t-1 21t2 23t6 21q7 19 14.5 41.5t12 46.5t4 48t-9.5 45q-15 31 -19.5 56.5t-3.5 48.5t7.5 44t15.5 42q6 14 8.5 30t2.5 26q0 7 3.5 9t7.5 -7
q7 -13 11.5 -41.5t-1.5 -76.5q-4 -28 0 -46.5t10.5 -36.5t14.5 -38t11 -51zM441 350q4 -19 -1.5 -41t-14 -43.5t-19 -40.5t-16.5 -30q-23 -45 -24 -61q0 -7 -6 -6.5t-8 6.5q-6 13 -6.5 40t12.5 60q12 29 15 58t0.5 53.5t-7.5 42.5t-8 24q-17 38 -19.5 67.5t3 53.5t15 43
t18.5 36q11 24 15 44t4 33q0 9 4 8.5t8 -7.5q4 -9 8 -23.5t5 -32.5t-1 -38t-9 -40q-11 -30 -9.5 -54t8.5 -47t16.5 -48t16.5 -57zM326 329q2 -26 -12 -61t-35 -74q-10 -20 -14 -32t-5 -19t-5.5 -7.5t-8.5 7.5q-4 11 -6.5 32.5t6.5 46.5q4 12 8.5 32t7 44.5t0.5 50.5t-11 49
q-11 28 -14 54.5t0 52t11.5 50t20.5 47.5q14 24 19 49q2 7 6 6.5t5 -5.5q4 -12 5 -42.5t-13 -80.5q-5 -18 -1.5 -40t10 -47t14.5 -54t12 -59zM710 198q0 -37 -26 -68.5t-70.5 -54.5t-103 -36t-122.5 -13q-65 0 -124.5 11t-105.5 31t-73.5 47t-27.5 60t20.5 58t48 43
t56.5 28.5t46 15.5q9 3 10.5 -3.5t-8.5 -10.5l-22 -11t-38 -23.5t-36.5 -34.5t-16.5 -44q0 -22 24 -37.5t62.5 -26t87 -15.5t98.5 -5q49 0 97 6.5t87 20t63 32t24 42.5q0 16 -11 30.5t-25.5 26.5t-31 20t-27.5 11q-10 4 -7 10t12 5q12 -2 35 -10t46.5 -22.5t41 -34.5
t17.5 -48z" />
    <glyph glyph-name="uni260F" unicode="&#x260f;" 
d="M730 384q-4 -9 -16 -11t-26.5 -0.5t-32 5.5t-32.5 8q-25 8 -46 18.5t-24 26.5q-2 6 -0.5 14.5t3.5 18t4 18t2 13.5q-4 16 -14.5 17.5t-25.5 1.5q-2 -10 -3 -18.5t0 -18t3.5 -22.5t7.5 -33q6 -21 13.5 -36.5t17 -27.5t21 -22t24.5 -21q20 -17 32 -36.5t17.5 -38t6.5 -34.5
t1 -28q7 -4 10.5 -11.5t5.5 -17t2 -20t-1 -18.5q-1 -7 -8 -10t-19 -3h-538q-12 0 -19 3t-8 10q-1 8 -1 18.5t2 20t5.5 17t10.5 11.5q0 12 1 28t6.5 34.5t17.5 38t32 36.5q13 11 24.5 21t21 22t17 27.5t13.5 36.5q4 20 7 33t3.5 22.5t-0.5 18t-2 18.5q-15 0 -25.5 -1.5
t-14.5 -17.5q-1 -5 1 -13.5t4.5 -18t4 -18t-0.5 -14.5q-3 -16 -24 -26.5t-46 -18.5q-16 -4 -33 -8t-31.5 -5.5t-26.5 0.5t-16 11q-5 8 -6.5 23.5t1 33.5t9.5 36.5t18 32.5q20 26 55 45t78 31t92 18t99 6q49 0 98.5 -6t92.5 -18t78 -31t55 -45q11 -14 18 -32.5t9.5 -36.5
t1 -33.5t-6.5 -23.5zM429 467v41q-19 -8 -45 -8t-45 8v-41h90zM693 411q5 0 7 11t-2.5 27.5t-16 35.5t-34.5 36q-17 13 -49 24t-69 18.5t-75.5 11.5t-69.5 4q-41 0 -81 -4t-75 -11.5t-63 -18.5t-46 -24q-22 -16 -33.5 -35.5t-15.5 -35.5t-2 -27.5t6 -11.5q32 -3 60 6t40 24
q4 4 2.5 12t-4 18.5t-3 22t4.5 22.5q8 14 39.5 22.5t84.5 8.5q8 0 16.5 -2t19.5 -3q14 -4 25 -6t25 -2t25.5 2t24.5 6q11 1 19.5 3t16.5 2q53 0 84.5 -8t39.5 -23q5 -11 4.5 -22.5t-3 -22t-4 -18.5t2.5 -12q6 -7 16.5 -13t23.5 -10t28.5 -6t30.5 -1zM628 138q2 0 3 6t0.5 14
t-3 16t-8.5 12q0 8 -2 22t-6 28t-11 28t-18 22q-17 16 -29 28t-20.5 22t-15 20.5t-11.5 24.5q-13 37 -16.5 71t-1.5 58h-24v-75h-162v75h-25q3 -24 -0.5 -58t-16.5 -71q-5 -14 -11.5 -24.5t-15.5 -20.5t-21 -22l-28 -28q-11 -8 -18 -22t-11 -28t-6 -28t-2 -22q-6 -4 -9 -12
t-3.5 -16t1 -14t3.5 -6h488zM504 281q0 -24 -9.5 -46t-26 -39t-38 -26.5t-46.5 -9.5t-46.5 9.5t-38 26.5t-26 39t-9.5 46t9.5 46t26 38.5t38 26t46.5 9.5t46.5 -9.5t38 -26t26 -38.5t9.5 -46zM463 281q0 17 -6 31t-16.5 25t-25 17t-31.5 6t-31.5 -6t-25 -17t-16.5 -25
t-6 -31q0 -34 22.5 -56.5t56.5 -22.5t56.5 22.5t22.5 56.5z" />
    <glyph glyph-name="uni260E" unicode="&#x260e;" 
d="M730 384q-4 -9 -16 -11t-26.5 -0.5t-32 5.5t-32.5 8q-25 8 -46 18.5t-24 26.5q-2 6 0.5 14.5t5.5 18t5.5 18t1.5 13.5q-4 16 -16.5 21.5t-27.5 8.5q-3 -19 -3 -41.5t11 -61.5q6 -21 13.5 -36.5t17 -27.5t21 -22t24.5 -21q20 -17 32 -36.5t17.5 -38t6.5 -34.5t1 -28
q7 -4 10.5 -11.5t5.5 -17t2 -20t-1 -18.5q-1 -7 -8 -10t-19 -3h-538q-12 0 -19 3t-8 10q-1 8 -1 18.5t2 20t5.5 17t10.5 11.5q0 12 1 28t6.5 34.5t17.5 38t32 36.5q13 11 24.5 21t21 22t17 27.5t13.5 36.5q10 39 10.5 61.5t-2.5 41.5q-15 -3 -27.5 -8.5t-16.5 -21.5
q-2 -5 0.5 -13.5t6 -18t6 -18t0.5 -14.5q-3 -16 -24 -26.5t-46 -18.5q-16 -4 -33 -8t-31.5 -5.5t-26.5 0.5t-16 11q-5 8 -6.5 23.5t1 34t9.5 37t18 32.5q20 27 55 45.5t78 30.5t92 17.5t99 5.5q49 0 98.5 -5.5t92.5 -17.5t78 -30.5t55 -45.5q11 -14 18 -32.5t9.5 -37t1 -34
t-6.5 -23.5zM449 475v52q-13 -3 -30 -5.5t-35 -2.5t-35 2.5t-30 5.5v-52h130zM505 285q0 25 -9.5 47t-25.5 38t-38.5 26t-47.5 10q-26 0 -48 -10t-38 -26t-25.5 -38t-9.5 -47t9.5 -46.5t25.5 -38t38 -25.5t48 -9q25 0 47.5 9t38.5 25.5t25.5 38t9.5 46.5z" />
    <glyph glyph-name="uni261C" unicode="&#x261c;" 
d="M706 266h-64v16h-23q-21 -12 -53 -24t-84 -20q-16 -3 -37.5 -3.5t-44 -0.5t-43 1t-33.5 3q-16 2 -29 7.5t-17 19.5q-2 9 2 15t10 10q-11 0 -20.5 8t-10.5 20q-1 9 2 14.5t7 10.5q-11 2 -20 7.5t-9 19.5q0 18 15.5 25t51.5 7l-3 7q-19 1 -34.5 1t-31 0.5t-33.5 1.5t-40 2
l-36 2t-33 4.5t-24 10.5t-9 19q0 11 7.5 17t20.5 8.5t30.5 4t38.5 2.5q11 1 36.5 2t58 1.5t69 0.5h71.5h53t52.5 -4t49.5 -14t45 -30q14 -3 27 -4t22 0v25h63v-193zM643 292v126q-6 0 -17 0.5t-19 2.5q2 -6 3 -7q1 -8 -0.5 -8t-6.5 4q-6 8 -17.5 19t-30.5 22q-12 8 -33 13.5
t-43.5 7.5t-43 2.5t-30.5 -0.5q-12 -2 -27.5 -7t-27.5 -13q-6 -4 -9.5 -10t-7.5 -12q-3 -6 -7 -12t-10 -9q-3 -4 2.5 -7t23.5 3q8 3 15 8.5t12 10t8 8t5 0.5q4 -4 -4 -13q7 -3 17.5 -4t16.5 1q16 5 24.5 11t10.5 3q2 -4 -2 -10t-11 -10q5 -7 22.5 -20.5t43.5 -21.5
q16 -6 29.5 -8t24 -3t16 -2.5t5.5 -4.5q0 -2 -7.5 -3t-18.5 0t-23 3t-22 4q-17 6 -30.5 13t-24 15t-17.5 15t-10 11q-4 -2 -9.5 -2.5t-10.5 -0.5q-11 1 -20 2.5t-13 3.5l-13 -11q22 0 36.5 -5t17.5 -15q3 -11 -0.5 -19.5t-9.5 -13.5q23 -6 26 -23q1 -12 -2.5 -17t-9.5 -9
q23 -8 25 -24q3 -13 -3 -20t-7 -7q12 -3 29 0q64 5 102 19.5t63 32.5q3 2 5 2t1 -3l-2 -8h16zM362 474q-40 0 -93.5 -1t-108.5 -3q-40 -1 -62.5 -4t-22.5 -16q0 -12 19.5 -15t65.5 -6l152 -8q3 5 7 11.5t11 15.5t14 15.5t18 10.5zM693 278v168h-37v-168h37zM413 318
q1 12 -5 16t-18 7q-6 1 -19 1h-28.5t-29.5 -0.5t-21 -0.5q-8 -2 -13.5 -7.5t-5.5 -13.5q0 -13 21 -16q4 -1 19 -1.5t31 -0.5h29h14q8 0 16.5 3.5t9.5 12.5zM426 274q0 8 -8.5 11t-16.5 3q-22 1 -48.5 1t-44.5 -2q-9 -1 -12.5 -7t-1.5 -12q0 -5 4 -9.5t10 -5.5q22 -4 48 -4.5
t46 1.5q27 0 24 24zM394 374q0 4 -4 8.5t-12 5.5q-31 2 -58 2.5t-53 -2.5q-8 -2 -12 -7t-3 -11q0 -6 4 -11t12 -5h28h30.5t29 0.5t22.5 1.5q7 2 11.5 5.5t4.5 12.5z" />
    <glyph glyph-name="uni261E" unicode="&#x261e;" 
d="M706 450q0 -12 -9.5 -19t-24 -10.5t-33 -4.5t-36.5 -2q-23 -1 -40 -2t-33 -1.5t-31.5 -0.5t-34.5 -1l-2 -7q36 0 51 -7t15 -25q0 -14 -9 -19.5t-20 -7.5q4 -5 7 -10.5t2 -14.5q-1 -12 -10.5 -20t-20.5 -8q6 -4 10 -10t3 -15q-4 -14 -17.5 -19.5t-29.5 -7.5q-13 -2 -33 -3
t-43 -1t-44.5 0.5t-36.5 3.5q-53 8 -84.5 20t-53.5 24h-23v-16h-63v193h62v-25q10 -1 22.5 0t26.5 4q21 20 45 30t50 14t52.5 4h53.5h71t69 -0.5t57.5 -1.5t36.5 -2q20 -1 38 -2.5t31 -4t21 -8.5t8 -17zM451 411q-6 3 -9.5 9t-7.5 12t-7.5 12t-9.5 10q-12 8 -27.5 13
t-27.5 7q-11 1 -31 0.5t-42.5 -2.5t-43.5 -7.5t-33 -13.5q-18 -11 -30 -22t-18 -19q-5 -4 -6.5 -4t0.5 8q1 2 1 3t1 4q-8 -2 -19 -2.5t-17 -0.5v-126h16l-2 8q0 2 2 2.5t4 -1.5q26 -18 64 -32.5t101 -19.5q17 -3 29 0q-2 1 -7 8t-3 19q2 16 26 24q-7 4 -10.5 9t-1.5 17
q1 8 7 14t18 9q-6 5 -9.5 13.5t0.5 19.5q3 10 17.5 15t35.5 5l-13 11q-4 -2 -13 -3.5t-20 -2.5q-5 0 -10 0.5t-9 2.5l-11 -11t-17.5 -15t-24 -15t-30.5 -13q-9 -2 -21.5 -4t-23.5 -3t-18.5 0t-7.5 3q0 3 5.5 4.5t16 2.5t24 3t29.5 8q26 8 43.5 21.5t22.5 20.5q-7 4 -11 10
t-2 10q2 3 10.5 -3t24.5 -11q7 -2 17 -1t17 4q-7 9 -3 13q1 3 4.5 -0.5l8 -8t11 -10t15.5 -8.5q18 -6 23.5 -3t2.5 7zM692 450q0 13 -22.5 16t-62.5 4q-55 2 -108 3t-94 1q11 -4 18 -10.5t14 -15.5t11 -15.5t7 -11.5l152 8q46 3 65.5 6t19.5 15zM111 278v168h-37v-168h37z
M494 320q0 8 -5.5 13.5t-13.5 7.5q-7 0 -21 0.5t-29 0.5h-28.5t-18.5 -1q-12 -3 -18 -7t-6 -16q1 -9 9.5 -12.5t16.5 -3.5h14h29t31.5 0.5t19.5 1.5q20 3 20 16zM474 268q1 6 -2.5 12t-12.5 7q-18 2 -44.5 2t-48.5 -1q-8 0 -16 -3t-9 -11q-3 -24 25 -24q20 -2 45.5 -1.5
t47.5 4.5q7 1 10.5 5.5t4.5 9.5zM515 370q1 6 -3 11t-12 7q-26 3 -53 2.5t-57 -2.5q-9 -1 -12.5 -5.5t-3.5 -8.5q0 -9 4 -12.5t11 -5.5q9 -1 23 -1.5t29 -0.5h30h28q8 0 12 5t4 11z" />
    <glyph glyph-name="paragraph" unicode="&#xb6;" horiz-adv-x="490" 
d="M228 374h-32q-36 0 -67 10t-55 30t-37 48t-13 65q0 33 11 61.5t34.5 49t60 32.5t89.5 12h216v-689h-73v622h-62v-622h-72v381z" />
    <glyph glyph-name="dagger" unicode="&#x2020;" horiz-adv-x="452" 
d="M271 714l-2 -186l158 2v-76l-158 3l2 -376h-89l1 376l-157 -3v76l157 -2l-1 186h89z" />
    <glyph glyph-name="daggerdbl" unicode="&#x2021;" horiz-adv-x="450" 
d="M273 714l-3 -174l156 2v-76l-156 2v-90l156 2v-74l-156 3l3 -228h-95l2 228l-154 -3v74l155 -2v90l-155 -2v76l155 -2l-3 174h95z" />
    <glyph glyph-name="arrowupdn" unicode="&#x2195;" horiz-adv-x="469" 
d="M258 566v-340l104 59l14 -12l-142 -170l-141 170l13 12l104 -59v340l-104 -60l-13 12l141 170l142 -170l-14 -12z" />
    <glyph glyph-name="uni2197" unicode="&#x2197;" horiz-adv-x="644" 
d="M33 140l476 475l-116 30l-1 19l219 20l-20 -219l-19 1l-30 116l-476 -476z" />
    <glyph glyph-name="uni2199" unicode="&#x2199;" horiz-adv-x="645" 
d="M612 652l-477 -475l116 -31l2 -19l-220 -20l20 220l19 -1l30 -116l476 476z" />
    <glyph glyph-name="uni2196" unicode="&#x2196;" horiz-adv-x="644" 
d="M578 106l-476 476l-30 -116l-19 -1l-20 219l219 -20l-1 -19l-116 -30l476 -475z" />
    <glyph glyph-name="uni2198" unicode="&#x2198;" horiz-adv-x="645" 
d="M66 686l476 -476l31 116l19 1l20 -220l-220 20l2 19l116 31l-477 475z" />
    <glyph glyph-name="uni266D" unicode="&#x266d;" horiz-adv-x="414" 
d="M338 333q0 -47 -12 -82t-32 -61t-46 -43.5t-55.5 -29t-59.5 -16.5t-57 -7v545h51v-269q5 13 13 27t21.5 25.5t33 19t47.5 7.5q20 0 37.5 -8.5t30 -23.5t20.5 -36.5t8 -47.5zM276 302q1 44 -15.5 74t-43.5 30q-23 0 -40 -9.5t-28 -24t-16.5 -31t-5.5 -31.5v-176
q24 2 50.5 12t48.5 29.5t36 51t14 75.5z" />
    <glyph glyph-name="uni2669" unicode="&#x2669;" horiz-adv-x="310" 
d="M233 210q0 -36 -5.5 -59t-24.5 -44q-11 -13 -26 -24.5t-31 -17t-31 -3.5t-26 15t-11.5 28t6 30.5t19.5 29t28 23.5q31 18 70 23v446h32v-447z" />
    <glyph glyph-name="musicalnote" unicode="&#x266a;" horiz-adv-x="431" 
d="M386 393q0 -25 -7 -50.5t-24 -52.5q-16 -24 -40.5 -47.5t-47.5 -36.5q-9 -5 -11.5 -0.5t3.5 10.5q11 10 25 26t27 36t21.5 44t8.5 52q0 27 -15.5 46t-37.5 32.5t-47 21.5t-43 14v-278q0 -36 -5.5 -59t-22.5 -44q-12 -13 -27 -24.5t-30.5 -17t-31 -3.5t-25.5 15
q-11 13 -12 28t6 30.5t19.5 29t27.5 23.5q31 18 70 23v409q0 11 1 22t6 11q6 0 11 -4t15 -15q10 -13 22 -26.5t35 -32.5q35 -30 60 -55.5t40.5 -47.5t22 -41t6.5 -38z" />
    <glyph glyph-name="uni266C" unicode="&#x266c;" horiz-adv-x="554" 
d="M516 271q0 -28 -16 -52.5t-40 -43.5q-10 -9 -23.5 -16.5t-26.5 -10t-25.5 0t-22.5 14.5q-7 10 -6 22.5t6.5 25.5t14.5 25t21 20q23 17 42.5 22t42.5 8v151l-285 -63v-181q0 -29 -15.5 -54t-38.5 -44q-10 -9 -23.5 -16t-27.5 -10t-26.5 0t-21.5 15q-7 10 -6.5 22t6 25.5
t15 25.5t20.5 21q24 16 44 21.5t42 8.5v365l350 70v-372zM483 513v48l-285 -61v-47z" />
    <glyph glyph-name="uni327F" unicode="&#x327f;" horiz-adv-x="742" 
d="M546 183h-91l-135 156l-3 -4v-152h-70v373h70v-142l118 139h86l-155 -174zM633 478q-32 77 -103 124q-36 25 -75.5 38t-84.5 13q-108 1 -191 -72q-81 -70 -97 -178h101v-58h-162v17q0 144 102 245q52 52 113.5 77t133.5 26q112 0 203 -64q86 -64 125 -168h-65zM720 362
q0 -146 -102 -248q-103 -101 -248 -101q-124 0 -218 77q-48 39 -78.5 86.5t-43.5 107.5l64 1q12 -47 37 -85.5t63 -68.5q39 -31 82.5 -46t93.5 -15q115 0 200 80q84 80 90 195h-160v58h218q2 -21 2 -41z" />
    <glyph glyph-name="uni321C" unicode="&#x321c;" 
d="M387 621h-179v101q-46 -85 -68 -174.5t-22 -181.5q0 -94 24 -186t72 -178h-108q-50 85 -75 177t-25 187q0 94 25 187t75 181h108l-3 -5h344l-2 5h109q49 -88 74 -181t25 -187q0 -95 -25 -187t-74 -177h-109q49 86 73 178t24 186q0 92 -23.5 183t-69.5 177v-89l-111 -95
l121 -78v-124l-200 135l-159 -135v134zM614 288v-100h-179v-211h-112v211h-181v100h472z" />
    <glyph glyph-name="uni2116" unicode="&#x2116;" 
d="M512 681q44 0 74 -15.5t49 -42.5t27 -63.5t8 -77.5v-284q0 -41 -8 -77t-27 -63t-49 -42.5t-74 -15.5h-22q-44 0 -74 15.5t-48.5 42.5t-26.5 63t-8 77v284q0 41 8 77.5t26.5 63.5t48.5 42.5t74 15.5h22zM571 484q0 18 -4 33.5t-11.5 27.5t-18.5 18.5t-26 6.5h-20
q-14 0 -25.5 -6.5t-19 -18.5t-11.5 -27.5t-4 -33.5v-287q0 -18 4 -33.5t11.5 -27.5t19 -19t25.5 -7h20q15 0 26 7t18.5 19t11.5 27.5t4 33.5v287zM658 -15v100h104v-100h-104zM111 329v-329h-105v681h105l87 -333v333h104v-681h-104z" />
    <glyph glyph-name="uni33C7" unicode="&#x33c7;" 
d="M662 -15v100h103v-100h-103zM173 110q10 0 17.5 6t13.5 15.5t9.5 22t5.5 24.5h103q-4 -37 -13 -69.5t-26 -56.5t-44 -38t-65 -14h-22q-41 0 -69.5 15.5t-46.5 42.5t-26 63t-8 77v284q0 41 8 77.5t26 63.5t46.5 42.5t69.5 15.5h22q39 0 65.5 -14t43.5 -38.5t26 -57.5
t13 -71h-102q-2 13 -5 25.5t-8.5 22.5t-13.5 16t-20 6h-12q-15 0 -26 -6.5t-18.5 -18.5t-11.5 -27.5t-4 -33.5v-287q0 -18 2.5 -33.5t9.5 -27.5t18.5 -19t29.5 -7h12zM511 681q44 0 74 -15.5t49 -42.5t27 -63.5t8 -77.5v-284q0 -41 -8 -77t-27 -63t-49 -42.5t-74 -15.5h-21
q-44 0 -74 15.5t-49 42.5t-27 63t-8 77v284q0 41 8 77.5t27 63.5t49 42.5t74 15.5h21zM570 484q0 18 -4 33.5t-11.5 27.5t-18.5 18.5t-26 6.5h-20q-14 0 -25 -6.5t-19 -18.5t-12 -27.5t-4 -33.5v-287q0 -18 4 -33.5t12 -27.5t19 -19t25 -7h20q15 0 26 7t18.5 19t11.5 27.5
t4 33.5v287z" />
    <glyph glyph-name="trademark" unicode="&#x2122;" 
d="M142 571h-95v110h296v-110h-96v-171h-105v171zM541 509h6l38 171h135v-280h-82v170h-7l-42 -170h-94l-37 169h-6v-169h-83v280h135z" />
    <glyph glyph-name="uni33C2" unicode="&#x33c2;" 
d="M644 411q-13 0 -16 -21.5t-3 -54.5v-335h-94v327q0 36 -3 60t-17 24h-3q-14 0 -18 -24t-4 -60v-327h-94v509h94v-6q6 3 13 4.5t14 1.5h3q21 0 37.5 -9t30.5 -25q14 16 30.5 25t34.5 9h11q28 0 47 -14t31 -37.5t17.5 -55.5t5.5 -67v-335h-93v327q0 36 -3 60t-17 24h-4z
M5 348q2 32 8.5 61t21 51t39 35.5t61.5 13.5h4q39 0 64 -15t40 -39.5t21 -56t6 -63.5v-335h-132q-34 0 -59.5 12.5t-43 33t-26.5 48.5t-9 60q0 31 8 58t23.5 46.5t39.5 31t56 11.5h51v26q0 36 -8.5 60t-31.5 24h-9q-11 0 -19 -5t-12 -14.5t-6.5 -20.5t-3.5 -23h-83zM83 154
q0 -26 11 -42.5t24 -16.5h60v118h-60q-13 0 -24 -17t-11 -42zM282 -15v92h96v-92h-96z" />
    <glyph glyph-name="uni33D8" unicode="&#x33d8;" 
d="M138 509q43 0 71.5 -13.5t45.5 -37.5t24 -58t7 -77v-137q0 -42 -5.5 -76.5t-19.5 -59t-38 -37.5t-61 -13h-24q-9 0 -17 1t-16 3v-178h-99v683h132zM646 411q-13 0 -16.5 -21.5t-3.5 -54.5v-335h-93v327q0 36 -3.5 60t-16.5 24h-3q-12 0 -17 -20t-6 -50v-341h-93v335v7
v167h93v-6q7 3 13.5 4.5t13.5 1.5h4q20 0 37 -9t31 -25q14 16 30.5 25t33.5 9h12q28 0 47 -14t31 -37.5t17 -55.5t5 -67v-335h-92v327q0 36 -3.5 60t-16.5 24h-4zM105 410v-236q0 -33 6 -54t26 -21h25q19 0 26 21t7 54v162q0 16 -1 29.5t-5 23.5t-12.5 15.5t-22.5 5.5h-49z
M284 -15v92h95v-92h-95z" />
    <glyph glyph-name="uni2121" unicode="&#x2121;" 
d="M274 328q0 37 13 69.5t34 57.5t47 39.5t54 14.5h50q36 0 63.5 -16.5t46.5 -42t28.5 -57t9.5 -61.5v-125h-244v-47q0 -15 6.5 -27t17 -20.5t23.5 -13.5t27 -5h152v-96h-163q-80 0 -122.5 46.5t-42.5 128.5v155zM134 571h-114v110h344v-110h-116v-571h-114v571zM646 681
h101v-681h-101v681zM378 294h142v25q0 19 -5 35.5t-14 28.5t-21 19t-26 7h-14q-13 0 -24.5 -7.5t-20 -19.5t-13 -28.5t-4.5 -34.5v-25z" />
    <glyph glyph-name="uniFF01" unicode="&#xff01;" 
d="M442 172h-117v553h117v-553zM442 0h-117v117h117v-117z" />
    <glyph glyph-name="uniFF02" unicode="&#xff02;" 
d="M281 582l-27 171h107l16 -171h-96zM417 582l-27 171h107l16 -171h-96z" />
    <glyph glyph-name="uniFF03" unicode="&#xff03;" 
d="M189 258l46 137h-121l43 113h116l53 159h115l-54 -159h116l54 159h113l-53 -159h123l-43 -113h-118l-46 -137h121l-44 -113h-115l-56 -168h-114l56 168h-115l-56 -168h-116l56 168h-123l43 113h119zM303 258h116l47 137h-116z" />
    <glyph glyph-name="uniFF04" unicode="&#xff04;" 
d="M454 402q39 0 72.5 -15t58.5 -40t39 -59t14 -73q0 -38 -14 -71.5t-39.5 -59t-58.5 -40t-72 -14.5h-3h-17v-53h-100v52h-173v106h173v161h-20q-39 0 -72.5 15t-58.5 40t-39.5 59t-14.5 72q0 39 14.5 72.5t39.5 58.5t58.5 40t72.5 15h20v53h100v-53h123v-106h-123v-160h20z
M434 296v-161h22q32 2 54.5 24.5t22.5 55.5q0 17 -6.5 32t-17.5 25.5t-25 17t-31 6.5h-19zM234 482q0 -32 22.5 -55.5t55.5 -24.5h22v160h-20q-33 0 -56.5 -23t-23.5 -57z" />
    <glyph glyph-name="uniFF05" unicode="&#xff05;" 
d="M565 703l-243 -726h-116l245 726h114zM210 673q18 0 35 -8t29.5 -21.5t20 -31.5t7.5 -38v-92q0 -20 -7 -39t-20 -32.5t-29.5 -21.5t-35.5 -8h-65q-19 0 -36 8t-30 21.5t-20 32.5t-7 39v88q0 19 7 37.5t20 33t30 23.5t36 9h65zM219 550q0 13 -8.5 22.5t-19.5 9.5h-28
q-11 0 -19.5 -9.5t-8.5 -22.5v-47q0 -13 8.5 -22t19.5 -9h28q11 0 19.5 9t8.5 22v47zM622 299q19 0 35.5 -8t29.5 -21.5t20.5 -31.5t7.5 -38v-91q0 -21 -7 -40t-20 -32.5t-29.5 -21.5t-36.5 -8h-64q-20 0 -36.5 8t-29.5 21.5t-20 32.5t-7 40v87q0 19 7 37.5t20 33.5
t29.5 23.5t36.5 8.5h64zM632 176q0 14 -8.5 23t-19.5 9h-28q-11 0 -19.5 -9t-8.5 -23v-46q0 -13 8.5 -22.5t19.5 -9.5h28q11 0 19.5 9.5t8.5 22.5v46z" />
    <glyph glyph-name="uniFF06" unicode="&#xff06;" 
d="M647 -8h-125l-44 58q-9 -14 -19.5 -25.5t-23 -20.5t-28.5 -14t-37 -5h-139q-25 0 -45 9.5t-34.5 26.5t-22.5 41t-8 53v139q0 22 11 40.5t26.5 33t32 25t27.5 19.5q-9 12 -20.5 26.5t-22 32t-18 38t-7.5 44.5v49q0 47 9.5 78.5t27.5 51t44.5 28.5t62.5 9h76
q72 0 105.5 -41t33.5 -126v-57q-4 -52 -38.5 -89.5t-94.5 -73.5l97 -127l61 97l76 -45l-80 -131zM307 626q-48 0 -48 -62v-51q0 -11 7 -25t16 -28t18.5 -25t13.5 -14q16 9 31 19.5t27 21.5t19 21.5t8 21.5v59q0 33 -11 47.5t-37 14.5h-44zM227 140q0 -29 13 -41.5t35 -12.5
h72q13 0 23 4t18 10.5t14.5 14t11.5 15.5l-124 167l-17.5 -12.5t-20.5 -16t-17.5 -17t-7.5 -15.5v-96z" />
    <glyph glyph-name="uniFF07" unicode="&#xff07;" 
d="M322 582l16 171h107l-27 -171h-96z" />
    <glyph glyph-name="uniFF08" unicode="&#xff08;" 
d="M728 734q-49 -88 -73 -180.5t-24 -187.5q0 -94 24 -186t73 -178h-109q-49 85 -74 177t-25 187q0 94 25 187t74 181h109z" />
    <glyph glyph-name="uniFF09" unicode="&#xff09;" 
d="M149 734q49 -88 74 -181t25 -187q0 -95 -25 -187t-74 -177h-109q49 86 73 178t24 186q0 95 -24 187.5t-73 180.5h109z" />
    <glyph glyph-name="uniFF0A" unicode="&#xff0a;" 
d="M308 292h-161v91h161l-76 142l80 42l72 -133l72 133l80 -42l-76 -142h160v-91h-160l76 -141l-81 -43l-72 134l-71 -134l-80 43z" />
    <glyph glyph-name="uniFF0B" unicode="&#xff0b;" 
d="M433 411h147v-99h-147v-146h-99v146h-147v99h147v147h99v-147z" />
    <glyph glyph-name="uniFF0C" unicode="&#xff0c;" 
d="M317 -39l16 131h118l-26 -131h-108z" />
    <glyph glyph-name="uniFF0D" unicode="&#xff0d;" 
d="M571 418v-109h-374v109h374z" />
    <glyph glyph-name="uniFF0E" unicode="&#xff0e;" 
d="M325 -23v115h118v-115h-118z" />
    <glyph glyph-name="uniFF0F" unicode="&#xff0f;" 
d="M563 703l-243 -726h-115l245 726h113z" />
    <glyph glyph-name="uniFF10" unicode="&#xff10;" 
d="M434 685q39 0 73 -15t59 -40t40 -59t15 -73v-312q0 -38 -15 -72t-40 -59t-59 -40t-73 -15h-101q-39 0 -73 15t-59 40t-39.5 59t-14.5 72v312q0 39 14.5 73t39.5 59t59 40t73 15h101zM505 478q0 17 -7 32.5t-18 27.5t-26.5 18.5t-32.5 6.5h-75q-17 0 -32.5 -6.5t-27 -18.5
t-18 -27.5t-6.5 -32.5v-271q0 -17 6.5 -33t18 -27.5t27 -18t32.5 -6.5h75q17 0 32.5 6.5t26.5 18t18 27.5t7 33v271z" />
    <glyph glyph-name="uniFF11" unicode="&#xff11;" 
d="M278 557l78 124h134v-681h-116v557h-96z" />
    <glyph glyph-name="uniFF12" unicode="&#xff12;" 
d="M168 151q70 53 135.5 110t125.5 113q16 15 27.5 27.5t18.5 25.5t11 28.5t4 38.5q0 16 -6.5 31.5t-18 26.5t-25.5 17.5t-31 6.5h-56q-17 0 -32 -6.5t-26 -17.5t-17.5 -26.5t-6.5 -31.5v-24h-109v44q0 37 14 69.5t38 56.5t56.5 38t69.5 14h87q37 0 69.5 -14t57 -38
t38.5 -56.5t14 -69.5v-15q0 -30 -3 -55t-11 -47.5t-23 -43t-39 -43.5q-58 -55 -120.5 -108.5t-126.5 -99.5h311v-102h-426v151z" />
    <glyph glyph-name="uniFF13" unicode="&#xff13;" 
d="M604 564q18 -53 8.5 -103.5t-52.5 -89.5l-6 -7l6 -6q27 -28 40 -61q38 -91 0 -182q-13 -32 -36.5 -57.5t-54.5 -39.5q-23 -11 -46 -15.5t-46 -6t-46 -1t-48 0.5q-36 0 -68 14t-56 38.5t-37.5 57t-13.5 68.5v20h108q0 -17 6 -31q6 -17 19 -27t30 -16t35 -7.5t33 -0.5
q21 2 42.5 6t39.5 17q22 17 28.5 48t-1.5 61q-14 52 -74 63q-24 6 -64 6h-35v103h35q40 0 64 6q30 4 47 18q12 10 19 24.5t7.5 30.5t-6 31.5t-20.5 28.5q-11 10 -30.5 16t-42 7t-46.5 -2.5t-43 -13.5t-31 -27t-12 -41h-108v21q0 43 18 76.5t47 55.5t66.5 33.5t75.5 11.5
h30.5t17.5 -0.5t8.5 -0.5h2.5q12 -1 24.5 -2t24.5 -3q22 -5 44.5 -15.5t39.5 -25.5q19 -16 34 -37t23 -44z" />
    <glyph glyph-name="uniFF14" unicode="&#xff14;" 
d="M544 240h104v-104h-104v-136h-117v134h-307v106l221 441h203v-441zM427 240v348l-179 -348h179z" />
    <glyph glyph-name="uniFF15" unicode="&#xff15;" 
d="M387 452q54 0 97 -15.5t73 -45t46 -73.5t16 -99q0 -109 -59 -171t-178 -62q-53 0 -96.5 13.5t-73.5 40.5t-47 68.5t-17 97.5h114q0 -48 27 -77.5t88 -29.5q57 0 90 31t33 88q0 33 -9.5 55.5t-27 36t-40.5 19.5t-49 6q-64 0 -93 -31h-117v373h422v-119h-296v-125
q16 10 43 14.5t54 4.5z" />
    <glyph glyph-name="uniFF16" unicode="&#xff16;" 
d="M345 -4q-41 0 -77 15.5t-63 42.5t-42.5 63t-15.5 77v32v8v256q0 40 15.5 76.5t42.5 63.5t63 42.5t77 15.5h85q40 0 72.5 -14t57 -38.5t39.5 -57t19 -71.5h-125q-6 27 -20 45t-43 18h-84q-36 0 -56 -25.5t-20 -61.5v-73q36 15 75 15h77q41 0 77 -15.5t63 -42.5t42.5 -63.5
t15.5 -77.5v-32q0 -41 -15.5 -77t-42.5 -63t-63 -42.5t-77 -15.5h-77zM270 197q1 -35 21.5 -59t54.5 -24h76q35 0 55.5 25.5t20.5 61.5v19q0 36 -20.5 61t-55.5 25h-76q-36 0 -56 -24.5t-20 -60.5v-24z" />
    <glyph glyph-name="uniFF17" unicode="&#xff17;" 
d="M155 673h457l-120 -673h-128l96 550h-178v-102h-127v225z" />
    <glyph glyph-name="uniFF18" unicode="&#xff18;" 
d="M420 689q41 0 74.5 -14.5t57.5 -39.5t37 -60.5t13 -76.5v-29q0 -36 -12 -66t-32 -54q28 -23 45.5 -56t17.5 -75v-44q0 -38 -15 -71t-40 -57t-59 -37t-73 -13h-101q-39 0 -73 13t-59 37t-39.5 57t-14.5 71v44q0 43 17.5 76.5t46.5 55.5q-20 24 -31 54t-11 65v29
q0 41 13 76.5t36.5 60.5t57.5 39.5t74 14.5h70zM505 201q0 36 -24.5 58.5t-59.5 22.5h-9h-8h-38h-8h-12q-35 0 -59.5 -22.5t-24.5 -58.5v-12q0 -36 24.5 -57t59.5 -21h75q35 0 59.5 21t24.5 57v12zM482 490q0 18 -4 33.5t-12 27.5t-21 19t-31 7h-58q-35 0 -51.5 -25.5
t-16.5 -61.5v-15q0 -35 16.5 -60.5t51.5 -25.5h58q18 0 31 6.5t21 18.5t12 28t4 33v15z" />
    <glyph glyph-name="uniFF19" unicode="&#xff19;" 
d="M442 689q41 0 72.5 -14.5t52 -39.5t31 -60.5t10.5 -76.5v-88q0 -49 -16 -90l-61 -320h-113l43 221q-5 -1 -9.5 -1h-9.5h-117q-41 0 -72 14.5t-52 39.5t-31.5 60t-10.5 76v88q0 41 10.5 76.5t31.5 60.5t52 39.5t72 14.5h117zM486 492q0 36 -12.5 57t-47.5 21h-84
q-36 0 -48 -21t-12 -57v-75q0 -36 12 -57.5t48 -21.5h84q35 0 47.5 21.5t12.5 57.5v75z" />
    <glyph glyph-name="uniFF1A" unicode="&#xff1a;" 
d="M327 182h114v-109h-114v109zM327 509h114v-109h-114v109z" />
    <glyph glyph-name="uniFF1B" unicode="&#xff1b;" 
d="M332 510h114v-109h-114v109zM331 175h116l-38 -177h-89z" />
    <glyph glyph-name="uniFF1C" unicode="&#xff1c;" 
d="M600 730h129l-162 -360l162 -368h-129l-161 368z" />
    <glyph glyph-name="uniFF1D" unicode="&#xff1d;" 
d="M576 499v-99h-385v99h385zM576 323v-99h-385v99h385z" />
    <glyph glyph-name="uniFF1E" unicode="&#xff1e;" 
d="M329 370l-161 -368h-129l162 368l-162 360h129z" />
    <glyph glyph-name="uniFF1F" unicode="&#xff1f;" 
d="M178 532q0 32 5.5 66t20 62t39.5 46.5t66 18.5h140q33 0 58.5 -13.5t42 -34.5t26 -48t12 -54t-2 -52t-14.5 -44l-112 -205v-90h-115v102l106 185q9 15 12.5 39t0 46.5t-15 38.5t-32.5 16h-65q-17 0 -28 -5.5t-17.5 -16t-8.5 -25t-2 -32.5h-116zM462 0h-118v117h118v-117z
" />
    <glyph glyph-name="uniFF20" unicode="&#xff20;" 
d="M642 122q-23 -14 -44 -9t-49 25q-13 8 -25.5 17t-23.5 19q-36 -31 -76 -31h-80q-24 0 -45 10t-36.5 27.5t-24 40.5t-8.5 49v84q0 17 6.5 38t20.5 38.5t34.5 29.5t47.5 12h59q22 0 38.5 -5t22.5 -13v28h80v-207q0 -10 14 -23.5t29 -23.5q4 -3 10 -4.5t9 7.5v165
q0 34 -13.5 64t-36 52.5t-52.5 36t-63 13.5h-99q-32 0 -61.5 -14t-51.5 -37t-36 -53t-14 -62v-162q0 -36 12.5 -65t34 -50t49.5 -32.5t60 -11.5h105l202 1v-93h-322q-54 0 -99.5 20t-78.5 55t-51.5 81.5t-18.5 99.5v171q0 52 23.5 99t62 82t89.5 55t105 20h80
q55 0 104.5 -20t87 -55t59.5 -82t22 -99v-131q0 -34 -1 -57.5t-6.5 -41t-17.5 -31t-33 -27.5zM449 334q0 25 -13.5 41.5t-41.5 16.5h-27q-23 0 -37.5 -16.5t-14.5 -41.5v-48q0 -8 2.5 -17.5t8.5 -17.5t15 -13t24 -5h40q13 0 21.5 5.5t13.5 13.5t7 17.5t2 16.5v48z" />
    <glyph glyph-name="uniFF21" unicode="&#xff21;" 
d="M476 104h-183l-25 -104h-121l175 681h130l168 -681h-120zM317 205h136l-63 278h-7z" />
    <glyph glyph-name="uniFF22" unicode="&#xff22;" 
d="M611 459q0 -33 -12.5 -64t-35.5 -54h1q30 -22 43 -53.5t13 -65.5v-42q0 -42 -12 -76t-33.5 -57t-51 -35t-65.5 -12h-310v681h301q36 0 66 -12t51.5 -34t33 -53t11.5 -68v-55zM266 398h161q14 0 26 6t21 16t14.5 23.5t5.5 28.5v10q0 16 -5.5 29t-14.5 23.5t-21 16.5t-26 6
h-161v-159zM502 208q0 15 -5 28.5t-14 23.5t-21.5 16t-26.5 6h-169v-156h169q14 0 26.5 6t21.5 16t14 23.5t5 29.5v7z" />
    <glyph glyph-name="uniFF23" unicode="&#xff23;" 
d="M430 118q29 0 42.5 17.5t20.5 42.5h126q-4 -37 -19 -69.5t-39.5 -56.5t-57.5 -38t-72 -14h-85q-41 0 -77 15.5t-63 42.5t-42.5 63t-15.5 77v284q0 41 15.5 77.5t42.5 63.5t63 42.5t77 15.5h85q39 0 72 -14t57.5 -38.5t39.5 -57.5t19 -71h-125q-6 26 -20 44t-44 18h-84
q-35 0 -55.5 -25t-20.5 -61v-271q0 -36 20.5 -61.5t55.5 -25.5h84z" />
    <glyph glyph-name="uniFF24" unicode="&#xff24;" 
d="M148 681h310q34 0 63.5 -14t51 -39t34.5 -57.5t13 -69.5v-321q0 -38 -13 -70t-34.5 -57t-51 -39t-63.5 -14h-310v681zM428 126q14 0 26.5 6t22 16t14.5 23.5t5 29.5v280q0 15 -5 28.5t-14.5 24t-22 16.5t-26.5 6h-155v-430h155z" />
    <glyph glyph-name="uniFF25" unicode="&#xff25;" 
d="M278 115h340v-115h-468v681h468v-115h-340v-168h340v-114h-340v-169z" />
    <glyph glyph-name="uniFF26" unicode="&#xff26;" 
d="M265 0h-115v681h468v-115h-356v-168h356v-114h-353v-284z" />
    <glyph glyph-name="uniFF27" unicode="&#xff27;" 
d="M434 118q29 0 47 17.5t25 42.5v113h-114v107h228v-398h-114v22q-21 -11 -44.5 -16.5t-47.5 -5.5h-68q-41 0 -77 15.5t-63 42.5t-42.5 63t-15.5 77v284q0 41 15.5 77.5t42.5 63.5t63 42.5t77 15.5h85q39 0 72 -14t57.5 -38.5t39.5 -57.5t19 -71h-123q-6 26 -21 44t-45 18
h-84q-17 0 -31.5 -6.5t-24.5 -18.5t-15.5 -27.5t-5.5 -33.5v-271q0 -18 5.5 -33.5t15.5 -27.5t24.5 -19t31.5 -7h88z" />
    <glyph glyph-name="uniFF28" unicode="&#xff28;" 
d="M620 0h-126v284h-219v-284h-127v681h127v-283h219v283h126v-681z" />
    <glyph glyph-name="uniFF29" unicode="&#xff29;" 
d="M321 681h126v-681h-126v681z" />
    <glyph glyph-name="uniFF2A" unicode="&#xff2a;" 
d="M601 198q0 -41 -15.5 -77t-43 -63t-63 -42.5t-76.5 -15.5h-49q-38 0 -71 14t-57.5 38t-40 56.5t-18.5 69.5h123q7 -25 22 -42.5t43 -17.5h43q17 0 31.5 7t25 19t16.5 27.5t6 33.5v476h124v-483z" />
    <glyph glyph-name="uniFF2B" unicode="&#xff2b;" 
d="M363 345l128 -173q33 -44 65 -87t64 -85h-133l-205 269h-5v-269h-129v681h129v-269h5l205 269h132z" />
    <glyph glyph-name="uniFF2C" unicode="&#xff2c;" 
d="M259 115h369v-115h-489v681h120v-566z" />
    <glyph glyph-name="uniFF2D" unicode="&#xff2d;" 
d="M380 189h6q28 123 55.5 245.5t54.5 245.5h143v-680h-98v442h-7q-23 -111 -49 -221.5t-49 -220.5l-110 -1l-92 442h-7v-441h-99v680h143z" />
    <glyph glyph-name="uniFF2E" unicode="&#xff2e;" 
d="M270 446v-446h-122v681h122l231 -450v450h119v-681h-119z" />
    <glyph glyph-name="uniFF2F" unicode="&#xff2f;" 
d="M422 681q41 0 77 -15.5t63 -42.5t42.5 -63.5t15.5 -77.5v-284q0 -41 -15.5 -77t-42.5 -63t-63 -42.5t-77 -15.5h-77q-41 0 -77 15.5t-63 42.5t-42.5 63t-15.5 77v284q0 41 15.5 77.5t42.5 63.5t63 42.5t77 15.5h77zM498 476q0 36 -20.5 61t-55.5 25h-76q-36 0 -56 -25
t-20 -61v-271q0 -36 20 -61.5t56 -25.5h76q35 0 55.5 25.5t20.5 61.5v271z" />
    <glyph glyph-name="uniFF30" unicode="&#xff30;" 
d="M438 681q38 0 72 -14.5t59 -39.5t39 -59t14 -72v-30q0 -38 -14 -71.5t-39 -59t-59 -39.5t-72 -14h-172v-282h-120v681h292zM266 562v-161h152q43 0 62.5 21t19.5 59q0 36 -20 58.5t-62 22.5h-152z" />
    <glyph glyph-name="uniFF31" unicode="&#xff31;" 
d="M390 681q41 0 77 -15.5t63 -42.5t42 -63.5t15 -77.5v-284q0 -24 -5.5 -46.5t-15.5 -42.5l87 -109h-117l-30 38q-24 -18 -53.5 -28t-62.5 -10h-78q-41 0 -77 15.5t-62.5 42.5t-42.5 63t-16 77v284q0 41 16 77.5t42.5 63.5t62.5 42.5t77 15.5h78zM465 237v239
q0 18 -5.5 33.5t-15.5 27.5t-24 18.5t-30 6.5h-77q-35 0 -55.5 -25t-20.5 -61v-271q0 -36 20.5 -61.5t55.5 -25.5h77q23 0 40 13l-135 169h120z" />
    <glyph glyph-name="uniFF32" unicode="&#xff32;" 
d="M266 275v-275h-127v681h292q39 0 73 -14.5t58.5 -39.5t39 -59t14.5 -72v-30q0 -38 -14.5 -71.5t-39 -59t-58.5 -39.5t-73 -14h-34l231 -282h-145zM266 562v-161h145q43 0 63 21t20 59q0 36 -20 58.5t-63 22.5h-145z" />
    <glyph glyph-name="uniFF33" unicode="&#xff33;" 
d="M446 422q42 0 78.5 -16t63 -44.5t41 -68t14.5 -86.5q0 -44 -13.5 -82t-38.5 -65.5t-59 -43.5t-76 -16h-310v126h274q20 0 38.5 5t31.5 15t21 25t8 36q0 39 -25.5 61t-63.5 22h-81q-51 0 -93 11t-71 35t-45 62t-16 91q0 37 13 72t36 61.5t56 42.5t73 16h281v-133h-229
q-20 0 -37 -2.5t-30 -9t-20 -19.5t-7 -35q0 -25 17 -42.5t46 -17.5h123z" />
    <glyph glyph-name="uniFF34" unicode="&#xff34;" 
d="M322 555h-174v126h472v-126h-176v-555h-122v555z" />
    <glyph glyph-name="uniFF35" unicode="&#xff35;" 
d="M620 198q0 -41 -15 -77t-42 -63t-63 -42.5t-77 -15.5h-77q-41 0 -77 15.5t-63.5 42.5t-43 63t-15.5 77v483h123v-476q0 -18 6.5 -33.5t18 -27.5t27 -19t32.5 -7h60q17 0 32.5 7t26.5 19t18 27.5t7 33.5v476h122v-483z" />
    <glyph glyph-name="uniFF36" unicode="&#xff36;" 
d="M383 234h7q25 112 52.5 222t55.5 225h121l-167 -681h-130l-174 681h122z" />
    <glyph glyph-name="uniFF37" unicode="&#xff37;" 
d="M558 234h7q26 113 53.5 222.5t55.5 224.5h121l-168 -681h-130l-112 438l-108 -438h-131l-173 681h122l113 -447h6l27 109q21 85 41 168.5t41 169.5h123z" />
    <glyph glyph-name="uniFF38" unicode="&#xff38;" 
d="M458 345l162 -345h-129l-103 251h-6l-106 -251h-129l157 345q-38 83 -78.5 168t-78.5 168h129l106 -217h6q12 26 25 53t26 55l52 109h129z" />
    <glyph glyph-name="uniFF39" unicode="&#xff39;" 
d="M320 310l-173 371h130l105 -217h6q12 26 25 53t26 55l52 109h129l-178 -372v-309h-122v310z" />
    <glyph glyph-name="uniFF3A" unicode="&#xff3a;" 
d="M487 566h-339v115h471v-115l-339 -451h339v-115h-471v115z" />
    <glyph glyph-name="uniFF3B" unicode="&#xff3b;" 
d="M502 734h243v-115h-125v-504h125v-114h-243v733z" />
    <glyph glyph-name="uniFFE6" unicode="&#xffe6;" 
d="M96 514l-30 167h111l25 -167h104l27 167h98l29 -167h102l25 167h110l-29 -167h55v-109h-73l-69 -405h-131l-68 391l-64 -391h-130l-72 405h-71v109h51zM518 210l28 195h-68l34 -195h6zM256 210l31 195h-68l31 -195h6z" />
    <glyph glyph-name="uniFF3D" unicode="&#xff3d;" 
d="M265 1h-243v114h125v504h-125v115h243v-733z" />
    <glyph glyph-name="uniFF3E" unicode="&#xff3e;" 
d="M317 478h-111l114 220h124l118 -220h-112l-65 136z" />
    <glyph glyph-name="uniFF3F" unicode="&#xff3f;" 
d="M560 83v-99h-353v99h353z" />
    <glyph glyph-name="uniFF40" unicode="&#xff40;" 
d="M349 582l-27 171h107l16 -171h-96z" />
    <glyph glyph-name="uniFF41" unicode="&#xff41;" 
d="M178 348q2 32 13.5 61t33.5 51t55 35.5t76 13.5h60q45 0 78.5 -15t55.5 -39.5t33 -56t11 -63.5v-335h-284q-33 0 -58.5 12.5t-43.5 33t-26.5 48.5t-8.5 60q0 31 9 58t26.5 46.5t42.5 31t57 11.5h171v10q0 18 -2.5 33.5t-11 26.5t-24.5 17.5t-43 6.5h-24q-41 0 -58 -11.5
t-23 -35.5h-115zM280 154q0 -26 11 -38.5t23 -12.5h165v102h-165q-12 0 -23 -13t-11 -38z" />
    <glyph glyph-name="uniFF42" unicode="&#xff42;" 
d="M404 509q43 0 78 -13.5t59.5 -37.5t37.5 -58t13 -77v-137q0 -42 -13 -76.5t-37.5 -59t-59.5 -37.5t-78 -13h-41q-43 0 -78 13t-59 37.5t-37 59t-13 76.5v137v8v350h118v-185q36 13 78 13h32zM363 394q-31 0 -50 -20t-19 -51v-133q0 -33 18.5 -54t50.5 -21h41q32 0 52 21
t20 54v130q0 33 -20 53.5t-52 20.5h-41z" />
    <glyph glyph-name="uniFF43" unicode="&#xff43;" 
d="M407 115q24 0 41 11.5t22 31.5h119q-9 -72 -56 -115t-126 -43h-41q-43 0 -77.5 13t-59 37.5t-38 59t-13.5 76.5v137q0 43 13.5 77t38 58t59 37.5t77.5 13.5h41q81 0 128 -43t55 -118h-119q-5 22 -21.5 34t-42.5 12h-41q-32 0 -52.5 -20.5t-20.5 -53.5v-130
q0 -33 20.5 -54t52.5 -21h41z" />
    <glyph glyph-name="uniFF44" unicode="&#xff44;" 
d="M363 0q-43 0 -78 13t-59 37.5t-37 59t-13 76.5v137q0 43 13 77t37 58t59 37.5t78 13.5h41q42 0 75 -12v184h113v-681h-229zM479 115v205q0 33 -21.5 53.5t-53.5 20.5h-41q-32 0 -54.5 -20.5t-22.5 -53.5v-130q0 -33 22.5 -54t54.5 -21h116z" />
    <glyph glyph-name="uniFF45" unicode="&#xff45;" 
d="M163 328q0 37 14 69.5t37.5 57.5t53 39.5t59.5 14.5h114q39 0 69.5 -16.5t51 -42t32 -57t11.5 -61.5v-129h-324v-27q0 -36 20.5 -51t52.5 -15h233v-112h-259q-34 0 -64 13.5t-52 36.5t-35.5 55t-13.5 70v155zM282 298h207v5q0 39 -20 64.5t-54 25.5h-62q-16 0 -29 -7.5
t-22 -19.5t-14.5 -28.5t-5.5 -34.5v-5z" />
    <glyph glyph-name="uniFF46" unicode="&#xff46;" 
d="M538 574h-36q-35 0 -56 -21t-21 -54v-22h113v-115h-113v-363h-105v363h-90v115h90v17q0 43 12 77.5t35.5 58.5t57 37.5t77.5 13.5h36v-107z" />
    <glyph glyph-name="uniFF47" unicode="&#xff47;" 
d="M594 509v-510q0 -41 -12 -72.5t-33.5 -54t-51.5 -34t-66 -11.5h-229v111h211q30 0 51 19t21 53v6h-149q-34 0 -63.5 11.5t-51.5 34.5t-34.5 56.5t-12.5 77.5v133q0 44 12.5 77.5t34.5 56.5t51.5 34.5t63.5 11.5h258zM484 398h-123q-15 0 -28.5 -6.5t-23.5 -18
t-15.5 -25.5t-5.5 -31v-108q0 -17 5.5 -32t15.5 -26t23.5 -17.5t28.5 -6.5h123v271z" />
    <glyph glyph-name="uniFF48" unicode="&#xff48;" 
d="M371 395q-26 0 -42.5 -6.5t-25.5 -17.5t-12.5 -26.5t-3.5 -33.5v-311h-112v681h112v-183q15 5 31.5 8t35.5 3h60q44 0 77.5 -15t56 -39.5t33.5 -56t11 -63.5v-335h-113v311q0 18 -3 33.5t-12.5 26.5t-25.5 17.5t-42 6.5h-25z" />
    <glyph glyph-name="uniFF49" unicode="&#xff49;" 
d="M442 0h-117v509h117v-509zM442 564h-117v117h117v-117z" />
    <glyph glyph-name="uniFF4A" unicode="&#xff4a;" 
d="M486 564h-110v117h110v-117zM279 -66h21q34 0 53.5 20.5t19.5 53.5v501h115v-497q0 -42 -11 -76.5t-33.5 -58.5t-58 -37.5t-85.5 -13.5h-21v108z" />
    <glyph glyph-name="uniFF4B" unicode="&#xff4b;" 
d="M594 0h-132l-172 194v-194h-117v681h117v-333l163 161h138l-245 -235z" />
    <glyph glyph-name="uniFF4C" unicode="&#xff4c;" 
d="M325 681h117v-681h-117v681z" />
    <glyph glyph-name="uniFF4D" unicode="&#xff4d;" 
d="M525 395q-27 0 -43 -6.5t-24 -17.5t-11 -26t-3 -33v-312h-118v311q0 18 -2.5 33.5t-11.5 26.5t-25 17.5t-42 6.5h-24q-27 0 -43 -6.5t-25.5 -17.5t-12.5 -26.5t-3 -33.5v-311h-118v509h118v-15q39 15 83 15h43q40 0 71.5 -12t53.5 -33q23 21 55 33t73 12h51
q45 0 78.5 -15t56.5 -39.5t34.5 -56t11.5 -63.5v-335h-117v311q0 18 -2.5 33.5t-11.5 26.5t-25 17.5t-42 6.5h-25z" />
    <glyph glyph-name="uniFF4E" unicode="&#xff4e;" 
d="M373 395q-27 0 -43 -6.5t-25.5 -17.5t-12.5 -26.5t-3 -33.5v-311h-118v509h118v-13q34 13 74 13h52q44 0 78 -15t57 -39.5t34.5 -56t11.5 -63.5v-335h-118v311q0 18 -2.5 33.5t-11.5 26.5t-25 17.5t-42 6.5h-24z" />
    <glyph glyph-name="uniFF4F" unicode="&#xff4f;" 
d="M404 509q44 0 79 -13.5t59 -37.5t37 -58t13 -77v-137q0 -42 -13 -76.5t-37 -59t-59 -37.5t-79 -13h-41q-43 0 -78 13t-59 37.5t-37 59t-13 76.5v137q0 43 13 77t37 58t59 37.5t78 13.5h41zM363 394q-31 0 -52 -20.5t-21 -53.5v-130q0 -33 21 -54t52 -21h41q32 0 53 21
t21 54v130q0 33 -21 53.5t-53 20.5h-41z" />
    <glyph glyph-name="uniFF50" unicode="&#xff50;" 
d="M404 509q43 0 78 -13.5t59.5 -37.5t37.5 -58t13 -77v-137q0 -42 -13 -76.5t-37.5 -59t-59.5 -37.5t-78 -13h-32q-44 0 -81 14v-188h-115v683h228zM291 394v-204q0 -33 20 -54t52 -21h41q32 0 53 21t21 54v130q0 33 -21 53.5t-53 20.5h-113z" />
    <glyph glyph-name="uniFF51" unicode="&#xff51;" 
d="M363 0q-43 0 -78 13t-59 37.5t-37 59t-13 76.5v137q0 43 13 77t37 58t59 37.5t78 13.5h229v-323v-8v-352h-116v188q-37 -14 -80 -14h-33zM404 115q32 0 52 21t20 54v204h-113q-32 0 -52.5 -20.5t-20.5 -53.5v-130q0 -33 20.5 -54t52.5 -21h41z" />
    <glyph glyph-name="uniFF52" unicode="&#xff52;" 
d="M332 405q14 23 37.5 40.5t52 29.5t60.5 18t64 6h13v-124h-13q-36 0 -74 -14.5t-69.5 -38t-51 -52.5t-19.5 -58v-212h-124v513h124v-108z" />
    <glyph glyph-name="uniFF53" unicode="&#xff53;" 
d="M540 410h-198q-13 0 -22 -4.5t-15 -12.5t-8.5 -17.5t-2.5 -18.5q0 -19 12 -34.5t31 -15.5h111q35 0 61.5 -12t44 -33t26.5 -50t9 -62v-3q0 -33 -11 -60t-29.5 -46t-44.5 -30t-56 -11h-242v99h208q24 0 43 13t21 39v-1q0 15 -6 25t-14.5 16.5t-20 9.5t-23.5 3h-89
q-45 0 -73.5 14t-45 36t-22.5 50t-6 57q0 30 9.5 58t26.5 49.5t43 33.5t60 12h223v-104z" />
    <glyph glyph-name="uniFF54" unicode="&#xff54;" 
d="M230 509h95v172h117v-172h95v-115h-95v-394h-117v394h-95v115z" />
    <glyph glyph-name="uniFF55" unicode="&#xff55;" 
d="M394 114q25 0 40.5 6t25.5 16t13.5 24t4.5 30v319h116v-509h-116v13q-17 -7 -35.5 -10t-39.5 -3h-51q-45 0 -78.5 15t-55.5 39.5t-33 56t-11 63.5v335h116v-311q0 -18 2.5 -33t12 -26.5t25.5 -18t42 -6.5h22z" />
    <glyph glyph-name="uniFF56" unicode="&#xff56;" 
d="M442 0h-112l-154 509h111l98 -323l95 323h112z" />
    <glyph glyph-name="uniFF57" unicode="&#xff57;" 
d="M595 0h-113l-97 321l-95 -321h-112l-154 509h111l98 -323l95 323h112l98 -321l95 321h111z" />
    <glyph glyph-name="uniFF58" unicode="&#xff58;" 
d="M450 254q35 -63 71 -127t70 -127h-120l-88 173l-88 -173h-120l135 252l-135 257h120l88 -178l88 178h121z" />
    <glyph glyph-name="uniFF59" unicode="&#xff59;" 
d="M390 -174h-111l51 176l-154 507h111l98 -325l96 325h111z" />
    <glyph glyph-name="uniFF5A" unicode="&#xff5a;" 
d="M570 400l-233 -285h233v-115h-372v109l232 285h-232v115h372v-109z" />
    <glyph glyph-name="uniFF5B" unicode="&#xff5b;" 
d="M310 304l-64 81l64 96l-16 149q-6 45 15 71.5t60 24.5h152v-115h-74q-17 2 -27 -4t-8 -20l16 -106l-64 -97l64 -79l-16 -110q-2 -11 -3 -22t0.5 -20.5t7 -16t19.5 -7.5l85 -10v-118l-159 13q-25 3 -40 14t-21.5 29t-7.5 42.5t1 53.5z" />
    <glyph glyph-name="uniFF5C" unicode="&#xff5c;" 
d="M325 681h117v-681h-117v681z" />
    <glyph glyph-name="uniFF5D" unicode="&#xff5d;" 
d="M473 153q2 -29 1.5 -53.5t-7.5 -42.5t-22 -29t-40 -14l-159 -13v118l85 10q13 1 19 7.5t7.5 16t0.5 20.5t-3 22l-16 110l64 79l-64 97l16 106q2 14 -8 20t-27 4h-74v115h152q40 2 60.5 -24.5t14.5 -71.5l-16 -149l64 -96l-64 -81z" />
    <glyph glyph-name="uniFFE3" unicode="&#xffe3;" 
d="M560 651v-99h-353v99h353z" />
    <glyph glyph-name="uni3131" unicode="&#x3131;" 
d="M581 97h-116l38 397h-393v107h520v-107z" />
    <glyph glyph-name="uni3132" unicode="&#x3132;" 
d="M317 97h-116l38 397h-146v107h273v-107zM630 97h-116l38 397h-160v107h287v-107z" />
    <glyph glyph-name="uni3133" unicode="&#x3133;" 
d="M694 97h-108l-66 410l-78 -410h-217v396h-147v107h265v-455l91 455h172z" />
    <glyph glyph-name="uni3134" unicode="&#x3134;" 
d="M256 206h401v-109h-528v503h127v-394z" />
    <glyph glyph-name="uni3135" unicode="&#x3135;" 
d="M573 493h-198v107h326v-107l-119 -152l118 -111l1 -150l-183 178l-133 -170v159zM220 206h149v-109h-276v503h127v-394z" />
    <glyph glyph-name="uni3136" unicode="&#x3136;" 
d="M622 440q19 -28 28.5 -65t9.5 -85q0 -52 -11 -91.5t-31 -66t-47.5 -40.5t-60.5 -14q-68 0 -109 54.5t-41 157.5q0 93 37 150h-59v102h125v80h95v-80h120v-102h-56zM218 206h143v-109h-268v503h125v-394zM458 280q0 -21 3.5 -39t10 -31.5t16.5 -21t22 -7.5q24 0 38 28.5
t14 70.5v20q0 20 -3.5 38.5t-10.5 31.5t-16.5 21t-21.5 8t-22 -8t-16.5 -21t-10 -31.5t-3.5 -38.5v-20z" />
    <glyph glyph-name="uni3137" unicode="&#x3137;" 
d="M662 201v-104h-536v503h520v-104h-396v-295h412z" />
    <glyph glyph-name="uni3138" unicode="&#x3138;" 
d="M377 201v-104h-267v503h260v-104h-136v-295h143zM660 201v-104h-258v503h247v-104h-123v-295h134z" />
    <glyph glyph-name="uni3139" unicode="&#x3139;" 
d="M646 600v-302h-401v-98h417v-103h-536v300h401v100h-401v103h520z" />
    <glyph glyph-name="uni313A" unicode="&#x313a;" 
d="M669 98h-119v395h-147v106h266v-501zM375 600v-302h-162v-98h165v-103h-284v300h177v100h-177v103h281z" />
    <glyph glyph-name="uni313B" unicode="&#x313b;" 
d="M367 600v-302h-154v-98h157v-103h-276v300h169v100h-169v103h273zM663 600v-504h-268v504h268zM560 492h-62v-288h62v288z" />
    <glyph glyph-name="uni313C" unicode="&#x313c;" 
d="M663 96h-267v503h101v-138h65v138h101v-503zM367 600v-302h-154v-98h157v-103h-276v300h169v100h-169v103h273zM562 205v141h-65v-141h65z" />
    <glyph glyph-name="uni313D" unicode="&#x313d;" 
d="M667 97h-107l-34 393l-38 -393h-112l69 502h166zM367 600v-302h-154v-98h157v-103h-276v300h169v100h-169v103h273z" />
    <glyph glyph-name="uni313E" unicode="&#x313e;" 
d="M367 600v-302h-154v-98h157v-103h-276v300h169v100h-169v103h273zM663 191v-95h-268v504h260v-95h-143v-111h134v-94h-134v-109h151z" />
    <glyph glyph-name="uni313F" unicode="&#x313f;" 
d="M389 97v101h31v300h-31v102h280v-102h-34v-300h34v-101h-280zM367 600v-302h-154v-98h157v-103h-276v300h169v100h-169v103h273zM507 198h41v300h-41v-300z" />
    <glyph glyph-name="uni3140" unicode="&#x3140;" 
d="M608 441q15 -28 23 -65.5t8 -85.5q0 -103 -33.5 -157.5t-95.5 -54.5q-63 0 -96 54.5t-33 157.5q0 95 30 151h-42v101h93v81h97v-81h101v-101h-52zM351 600v-302h-146v-98h157v-103h-268v300h153v100h-153v103h257zM475 268q0 -39 8 -66.5t27 -27.5t27 27.5t8 66.5v43
q0 39 -8 66.5t-27 27.5t-27 -27.5t-8 -66.5v-43z" />
    <glyph glyph-name="uni3141" unicode="&#x3141;" 
d="M646 599v-502h-520v502h520zM527 497h-282v-298h282v298z" />
    <glyph glyph-name="uni3142" unicode="&#x3142;" 
d="M646 97h-520v503h124v-150h270v150h126v-503zM520 201v145h-270v-145h270z" />
    <glyph glyph-name="uni3143" unicode="&#x3143;" 
d="M378 97h-264v503h101v-161h62v161h101v-503zM670 97h-265v503h101v-161h62v161h102v-503zM277 188v169h-62v-169h62zM568 188v169h-62v-169h62z" />
    <glyph glyph-name="uni3144" unicode="&#x3144;" 
d="M667 97h-107l-34 393l-38 -393h-374v503h101v-161h62v161h101v-486l67 485h166zM277 188v169h-62v-169h62z" />
    <glyph glyph-name="uni3145" unicode="&#x3145;" 
d="M600 97h-121l-89 417l-102 -417h-121l134 503h179z" />
    <glyph glyph-name="uni3146" unicode="&#x3146;" 
d="M687 96h-120l-39 418l-76 -418h-137l-63 418l-52 -418h-120l82 504h168l56 -346l64 346h168z" />
    <glyph glyph-name="uni3147" unicode="&#x3147;" 
d="M163 446q0 36 17.5 68t47.5 56.5t69.5 38.5t84.5 14q46 0 85.5 -14t69.5 -38.5t47.5 -56.5t17.5 -68v-200q0 -36 -17.5 -67.5t-47.5 -54t-69.5 -36t-85.5 -13.5q-45 0 -84.5 13.5t-69.5 36t-47.5 54t-17.5 67.5v200zM290 246q0 -34 27 -54t65 -20q39 0 65.5 20t26.5 54
v200q0 34 -26.5 54t-65.5 20q-38 0 -65 -20t-27 -54v-200z" />
    <glyph glyph-name="uni3148" unicode="&#x3148;" 
d="M550 502h-440v107h569v-148l-185 -121l185 -122l-1 -142l-282 200l-302 -198v129z" />
    <glyph glyph-name="uni3149" unicode="&#x3149;" 
d="M287 502h-204v107h617v-107l-121 -159l121 -113v-150l-184 180l-131 -172l-167 160l-136 -168v158zM573 502h-150l-134 -167l96 -88z" />
    <glyph glyph-name="uni314A" unicode="&#x314a;" 
d="M456 592h223v-150l-187 -116l186 -121v-126l-280 189l-305 -189v123l451 284h-444v106h226v110h130v-110z" />
    <glyph glyph-name="uni314B" unicode="&#x314b;" 
d="M629 89h-116l17 184h-428v104h437l12 125h-437v107h564v-107z" />
    <glyph glyph-name="uni314C" unicode="&#x314c;" 
d="M662 201v-104h-536v503h520v-104h-396v-92h375v-107h-375v-96h412z" />
    <glyph glyph-name="uni314D" unicode="&#x314d;" 
d="M199 198v300h-105v101h584v-101h-96v-300h96v-102h-584v102h105zM326 198h129v300h-129v-300z" />
    <glyph glyph-name="uni314E" unicode="&#x314e;" 
d="M458 542h224v-112h-109q24 -24 38 -54.5t14 -68.5v-33q0 -48 -17.5 -87.5t-49.5 -67.5t-76.5 -43t-98.5 -15t-99 15t-76.5 43t-49 67.5t-17.5 87.5v32q0 39 13.5 69.5t38.5 54.5h-118v112h234v105h149v-105zM260 270q0 -50 33.5 -80.5t88.5 -30.5t87.5 30.5t32.5 80.5v37
q0 26 -9.5 46.5t-25.5 34.5t-38.5 22t-46.5 8t-46 -7.5t-39 -21.5t-27 -34.5t-10 -47.5v-37z" />
    <glyph glyph-name="uni314F" unicode="&#x314f;" 
d="M403 453h82v-109h-82v-367h-120v757h120v-281z" />
    <glyph glyph-name="uni3150" unicode="&#x3150;" 
d="M236 -23v757h113v-264h70v264h113v-757h-113v385h-70v-385h-113z" />
    <glyph glyph-name="uni3151" unicode="&#x3151;" 
d="M485 206h-82v-229h-120v757h120v-164h82v-108h-82v-148h82v-108z" />
    <glyph glyph-name="uni3152" unicode="&#x3152;" 
d="M236 -23v757h113v-178h70v178h113v-757h-113v217h-70v-217h-113zM349 300h70v150h-70v-150z" />
    <glyph glyph-name="uni3153" unicode="&#x3153;" 
d="M525 -23h-114v365h-168v111h168v281h114v-757z" />
    <glyph glyph-name="uni3154" unicode="&#x3154;" 
d="M321 -23v385h-163v108h163v264h109v-757h-109zM499 -23v757h110v-757h-110z" />
    <glyph glyph-name="uni3155" unicode="&#x3155;" 
d="M402 563v171h114v-757h-114v232h-150v109h150v136h-150v109h150z" />
    <glyph glyph-name="uni3156" unicode="&#x3156;" 
d="M333 -23v218h-173v109h173v117h-173v109h173v204h109v-757h-109zM498 -23v757h109v-757h-109z" />
    <glyph glyph-name="uni3157" unicode="&#x3157;" 
d="M324 82v320h117v-320h287v-105h-688v105h284z" />
    <glyph glyph-name="uni3158" unicode="&#x3158;" 
d="M189 318h124v-235h232v651h117v-234h82v-109h-82v-414h-638v106h165v235z" />
    <glyph glyph-name="uni3159" unicode="&#x3159;" 
d="M44 -23v101h142v216h109v-216h176v656h97v-234h59v234h97v-757h-97v414h-59v-414h-524z" />
    <glyph glyph-name="uni315A" unicode="&#x315a;" 
d="M226 318h124v-235h246v651h118v-757h-660v106h172v235z" />
    <glyph glyph-name="uni315B" unicode="&#x315b;" 
d="M196 83v278h120v-278h136v278h120v-278h156v-106h-688v106h156z" />
    <glyph glyph-name="uni315C" unicode="&#x315c;" 
d="M728 267v-107h-288v-183h-112v183h-288v107h688z" />
    <glyph glyph-name="uni315D" unicode="&#x315d;" 
d="M446 83h150v105h-238v-211h-124v211h-180v106h542v440h118v-757h-268v106z" />
    <glyph glyph-name="uni315E" unicode="&#x315e;" 
d="M354 83h94v93h-163v-199h-112v199h-131v107h406v451h111v-757h-205v106zM726 -23h-112v757h112v-757z" />
    <glyph glyph-name="uni315F" unicode="&#x315f;" 
d="M596 196h-238v-219h-124v219h-180v106h542v432h118v-757h-118v219z" />
    <glyph glyph-name="uni3160" unicode="&#x3160;" 
d="M728 283v-107h-152v-199h-112v199h-160v-199h-112v199h-152v107h688z" />
    <glyph glyph-name="uni3161" unicode="&#x3161;" 
d="M728 82v-105h-688v105h688z" />
    <glyph glyph-name="uni3162" unicode="&#x3162;" 
d="M601 85v649h113v-757h-660v108h547z" />
    <glyph glyph-name="uni3163" unicode="&#x3163;" 
d="M446 -23h-124v757h124v-757z" />
    <glyph glyph-name="uni3165" unicode="&#x3165;" 
d="M237 206h139v-109h-266v504h127v-395zM529 206h131v-109h-258v504h127v-395z" />
    <glyph glyph-name="uni3166" unicode="&#x3166;" 
d="M237 206h139v-109h-266v504h127v-395zM660 201v-104h-258v503h247v-104h-123v-295h134z" />
    <glyph glyph-name="uni3167" unicode="&#x3167;" 
d="M694 97h-108l-66 419l-78 -419h-332v504h127v-395h118l79 403h172z" />
    <glyph glyph-name="uni3168" unicode="&#x3168;" 
d="M670 97h-312l76 512h172zM237 206h113v-109h-240v504h127v-395zM478 198h73l-31 318z" />
    <glyph glyph-name="uni3169" unicode="&#x3169;" 
d="M721 97h-84l-39 379l-43 -379h-177v401h-67v101h160v-502l63 504h128zM291 600v-302h-114v-98h117v-103h-212v300h113v100h-113v103h209z" />
    <glyph glyph-name="uni316A" unicode="&#x316a;" 
d="M663 191v-95h-268v504h260v-95h-143v-314h151zM367 600v-302h-154v-98h157v-103h-276v300h169v100h-169v103h273z" />
    <glyph glyph-name="uni316B" unicode="&#x316b;" 
d="M493 134l41 467h128l43 -504h-84l-23 379l-24 -379h-274v503h78v-161h30v161h85v-466zM283 600v-302h-106v-98h109v-103h-204v300h105v100h-105v103h201zM408 188v169h-30v-169h30z" />
    <glyph glyph-name="uni316C" unicode="&#x316c;" 
d="M662 97h-296l77 512h163zM359 600v-302h-146v-98h149v-103h-268v300h161v100h-161v103h265zM486 198h60l-26 318z" />
    <glyph glyph-name="uni316D" unicode="&#x316d;" 
d="M351 600v-302h-146v-98h157v-103h-268v300h153v100h-153v103h257zM475 261q0 -36 8 -61t27 -25t27 25t8 61v37q0 36 -8 60.5t-27 24.5t-27 -24.5t-8 -60.5v-37zM381 279q0 91 33 142t96 51q62 0 95.5 -51t33.5 -142q0 -92 -33.5 -141.5t-95.5 -49.5q-63 0 -96 49.5
t-33 141.5zM380 498v101h259v-101h-259z" />
    <glyph glyph-name="uni316E" unicode="&#x316e;" 
d="M362 600v-504h-268v504h268zM663 96h-267v503h101v-138h65v138h101v-503zM258 492h-61v-288h61v288zM562 205v141h-65v-141h65z" />
    <glyph glyph-name="uni316F" unicode="&#x316f;" 
d="M362 600v-504h-268v504h268zM258 492h-61v-288h61v288zM667 97h-107l-34 393l-38 -393h-112l69 502h166z" />
    <glyph glyph-name="uni3170" unicode="&#x3170;" 
d="M362 600v-503h-268v503h268zM662 97h-296l77 502h163zM258 492h-61v-288h61v288zM486 198h59l-25 308z" />
    <glyph glyph-name="uni3171" unicode="&#x3171;" 
d="M554 614v-303h-340v303h340zM442 522h-116v-118h116v118zM337 146q0 -21 14.5 -33.5t37.5 -12.5q24 0 38 12.5t14 33.5v8q0 21 -14 33.5t-38 12.5q-23 0 -37.5 -12.5t-14.5 -33.5v-8zM241 150q0 60 40.5 92.5t107.5 32.5t107.5 -32.5t40.5 -92.5t-40.5 -92.5
t-107.5 -32.5t-107.5 32.5t-40.5 92.5z" />
    <glyph glyph-name="uni3172" unicode="&#x3172;" 
d="M375 96h-281v503h100v-138h80v138h101v-503zM669 98h-119v395h-147v106h266v-501zM274 205v141h-80v-141h80z" />
    <glyph glyph-name="uni3173" unicode="&#x3173;" 
d="M375 96h-281v503h100v-138h80v138h101v-503zM660 201v-104h-258v503h247v-104h-123v-295h134zM274 205v141h-80v-141h80z" />
    <glyph glyph-name="uni3174" unicode="&#x3174;" 
d="M297 187l51 413h128l59 -503h-84l-38 379l-43 -379h-288v503h82v-161h44v161h89v-413zM678 97h-93v402h-79v101h172v-503zM208 188v169h-44v-169h44z" />
    <glyph glyph-name="uni3175" unicode="&#x3175;" 
d="M297 119l52 481h128l53 -488v488h162v-94h-74v-316h82v-93h-253l-33 379l-36 -379h-296v503h82v-161h44v161h89v-481zM208 188v169h-44v-169h44z" />
    <glyph glyph-name="uni3176" unicode="&#x3176;" 
d="M375 96h-281v503h100v-138h80v138h101v-503zM570 502h-167v99h284v-99l-111 -160l110 -115l1 -150l-169 181l-120 -173v159zM274 205v141h-80v-141h80z" />
    <glyph glyph-name="uni3177" unicode="&#x3177;" 
d="M375 96h-281v503h100v-138h80v138h101v-503zM663 191v-95h-268v504h260v-95h-143v-111h134v-94h-134v-109h151zM274 205v141h-80v-141h80z" />
    <glyph glyph-name="uni3178" unicode="&#x3178;" 
d="M554 311h-340v305h109v-61h123v61h108v-305zM241 150q0 60 40.5 92.5t107.5 32.5t107.5 -32.5t40.5 -92.5t-40.5 -92.5t-107.5 -32.5t-107.5 32.5t-40.5 92.5zM337 146q0 -21 14.5 -33.5t37.5 -12.5q24 0 38 12.5t14 33.5v8q0 21 -14 33.5t-38 12.5q-23 0 -37.5 -12.5
t-14.5 -33.5v-8zM446 405v59h-123v-59h123z" />
    <glyph glyph-name="uni3179" unicode="&#x3179;" 
d="M436 555h54v61h104v-305h-420v305h105v-61h53v60h104v-60zM241 150q0 60 40.5 92.5t107.5 32.5t107.5 -32.5t40.5 -92.5t-40.5 -92.5t-107.5 -32.5t-107.5 32.5t-40.5 92.5zM337 146q0 -21 14.5 -33.5t37.5 -12.5q24 0 38 12.5t14 33.5v8q0 21 -14 33.5t-38 12.5
q-23 0 -37.5 -12.5t-14.5 -33.5v-8zM490 405v59h-54v-59h54zM279 405h53v59h-53v-59z" />
    <glyph glyph-name="uni317A" unicode="&#x317a;" 
d="M669 98h-119v395h-139v106h258v-501zM454 97h-108l-66 410l-78 -410h-108l100 503h172z" />
    <glyph glyph-name="uni317B" unicode="&#x317b;" 
d="M414 97h-108l-50 410l-62 -410h-108l84 503h172zM547 206h131v-109h-250v503h119v-394z" />
    <glyph glyph-name="uni317C" unicode="&#x317c;" 
d="M678 201v-104h-258v503h247v-104h-122v-295h133zM414 97h-108l-50 410l-62 -410h-108l84 503h172z" />
    <glyph glyph-name="uni317D" unicode="&#x317d;" 
d="M663 97h-373l-42 410l-54 -410h-108l76 503h172l62 -490v489h101v-138h65v138h101v-502zM562 205v141h-65v-141h65z" />
    <glyph glyph-name="uni317E" unicode="&#x317e;" 
d="M398 97h-108l-42 410l-54 -410h-108l76 503h172zM578 502h-167v99h284v-99l-111 -160l110 -115l1 -150l-169 181l-120 -173v159z" />
    <glyph glyph-name="uni317F" unicode="&#x317f;" 
d="M614 97h-496l165 503h163zM266 198h197l-103 309z" />
    <glyph glyph-name="uni3180" unicode="&#x3180;" 
d="M208 81q-28 0 -51.5 12t-40.5 32t-26.5 45t-9.5 52v261q0 25 10 50t27.5 45t41 33t49.5 13h48q27 0 50.5 -13t41 -33t27 -45.5t9.5 -49.5v-261q0 -27 -9.5 -52t-27 -45t-41 -32t-50.5 -12h-48zM179 226q0 -21 13.5 -37t34.5 -16h9q21 0 34.5 16t13.5 37v253
q0 9 -3.5 18.5t-9.5 17t-15.5 12.5t-19.5 5h-9q-11 0 -20 -5t-15 -13t-9.5 -17.5t-3.5 -17.5v-253zM528 81q-28 0 -51.5 12t-40.5 32t-26.5 45t-9.5 52v261q0 25 10 50t27.5 45t41 33t49.5 13h48q27 0 50.5 -13t41 -33t27 -45.5t9.5 -49.5v-261q0 -27 -9.5 -52t-27 -45
t-41 -32t-50.5 -12h-48zM499 226q0 -21 13.5 -37t34.5 -16h9q21 0 34.5 16t13.5 37v253q0 9 -3.5 18.5t-9.5 17t-15.5 12.5t-19.5 5h-9q-11 0 -20 -5t-15 -13t-9.5 -17.5t-3.5 -17.5v-253z" />
    <glyph glyph-name="uni3181" unicode="&#x3181;" 
d="M352 81q-28 0 -51.5 12t-40.5 32t-26.5 45t-9.5 52v132q0 22 8.5 45t23 42t34 32.5t42.5 18.5v136h112v-138q22 -6 40 -20t31.5 -33t21 -41t7.5 -42v-132q0 -27 -9.5 -52t-27 -45t-41 -32t-50.5 -12h-64zM323 226q0 -21 13.5 -37t34.5 -16h25q21 0 34.5 16t13.5 37v124
q0 8 -3.5 18t-9.5 17.5t-15.5 12t-19.5 4.5h-25q-11 0 -20 -5t-15 -12.5t-9.5 -17t-3.5 -17.5v-124z" />
    <glyph glyph-name="uni3182" unicode="&#x3182;" 
d="M205 81q-27 0 -47 12t-34.5 32t-22 45t-7.5 52v132q0 20 6 41.5t16.5 40t26 32.5t33.5 21v139h112v-138q20 -6 35.5 -20t27 -33t17.5 -41t6 -42v-132q0 -27 -8 -52t-22 -45t-35 -32t-47 -12h-57zM667 97h-107l-34 393l-38 -393h-112l69 502h166zM186 226q0 -21 8.5 -37
t27.5 -16h22q19 0 28.5 16t9.5 37v124q0 8 -2 18t-6.5 17.5t-12 12t-17.5 4.5h-22q-10 0 -17 -5t-11 -12.5t-6 -17t-2 -17.5v-124z" />
    <glyph glyph-name="uni3183" unicode="&#x3183;" 
d="M678 97h-312l76 512h172zM203 81q-26 0 -46.5 12t-35 32t-22 45t-7.5 52v132q0 20 6 41.5t17 40t26 32.5t33 21v139h112v-138q20 -6 36 -20t27 -33t17 -41t6 -42v-132q0 -27 -7.5 -52t-22 -45t-35.5 -32t-46 -12h-58zM184 226q0 -21 9 -37t28 -16h21q20 0 29 16t9 37v124
q0 8 -2 18t-6.5 17.5t-11.5 12t-18 4.5h-21q-11 0 -18 -5t-11 -12.5t-6 -17t-2 -17.5v-124zM486 198h73l-31 318z" />
    <glyph glyph-name="uni3184" unicode="&#x3184;" 
d="M231 403v120h-61v92h428v-92h-52v-120h52v-92h-428v92h61zM237 150q0 60 40.5 92.5t107.5 32.5t107.5 -32.5t40.5 -92.5t-40.5 -92.5t-107.5 -32.5t-107.5 32.5t-40.5 92.5zM340 403h98v120h-98v-120zM333 146q0 -21 14.5 -33.5t37.5 -12.5q24 0 38 12.5t14 33.5v8
q0 21 -14 33.5t-38 12.5q-23 0 -37.5 -12.5t-14.5 -33.5v-8z" />
    <glyph glyph-name="uni3185" unicode="&#x3185;" 
d="M608 441q15 -28 23 -65.5t8 -85.5q0 -103 -33.5 -157.5t-95.5 -54.5q-63 0 -96 54.5t-33 157.5q0 95 30 151h-31v101h82v81h97v-81h101v-101h-52zM328 441q15 -28 23 -65.5t8 -85.5q0 -103 -33.5 -157.5t-95.5 -54.5q-66 0 -97.5 54.5t-31.5 157.5q0 95 30 151h-42v101
h93v81h97v-81h80v-101h-31zM475 268q0 -39 8 -66.5t27 -27.5t27 27.5t8 66.5v43q0 39 -8 66.5t-27 27.5t-27 -27.5t-8 -66.5v-43zM195 268q0 -39 8 -66.5t27 -27.5t27 27.5t8 66.5v43q0 39 -8 66.5t-27 27.5t-27 -27.5t-8 -66.5v-43z" />
    <glyph glyph-name="uni3186" unicode="&#x3186;" 
d="M163 294q0 36 16.5 67t45.5 53.5t69 35t88 12.5t88.5 -12.5t69.5 -35t45.5 -53.5t16.5 -67v-48q0 -36 -16 -67.5t-44.5 -54t-69 -36t-90.5 -13.5q-48 0 -88.5 13.5t-69.5 36t-45 54t-16 67.5v48zM282 245q0 -19 8 -33.5t21.5 -25.5t32 -16.5t38.5 -5.5q21 0 39.5 5.5
t32 16.5t21 25.5t7.5 33.5v50q0 19 -7.5 33t-21 22.5t-32 12.5t-39.5 4q-20 0 -38.5 -4t-32 -12.5t-21.5 -22.5t-8 -33v-50zM136 498v101h496v-101h-496z" />
    <glyph glyph-name="uni3187" unicode="&#x3187;" 
d="M116 83v235h120v-235h104v235h120v-235h85v651h117v-178h82v-109h-82v-173h82v-108h-82v-189h-638v106h92z" />
    <glyph glyph-name="uni3188" unicode="&#x3188;" 
d="M120 78v240h96v-240h80v240h96v-240h79v656h97v-186h59v186h97v-757h-97v206h-59v-206h-524v101h76zM568 292h59v147h-59v-147z" />
    <glyph glyph-name="uni3189" unicode="&#x3189;" 
d="M154 85v233h120v-233h104v233h120v-233h103v649h113v-757h-660v108h100z" />
    <glyph glyph-name="uni318A" unicode="&#x318a;" 
d="M714 -23h-116v139h-96v-139h-112v139h-104v-139h-112v139h-120v106h544v99h-148v101h148v88h-148v101h148v123h116v-757z" />
    <glyph glyph-name="uni318B" unicode="&#x318b;" 
d="M118 -23v199h-76v91h406v86h-114v101h114v80h-114v101h114v99h111v-757h-111v199h-66v-199h-96v199h-72v-199h-96zM726 -23h-112v757h112v-757z" />
    <glyph glyph-name="uni318C" unicode="&#x318c;" 
d="M596 196h-94v-219h-112v219h-104v-219h-112v219h-120v106h542v432h118v-757h-118v219z" />
    <glyph glyph-name="uni318D" unicode="&#x318d;" 
d="M319 358q0 8 3.5 17.5t9.5 17t15 12.5t20 5h33q10 0 19.5 -4.5t15.5 -12t9.5 -17.5t3.5 -18v-20q0 -21 -13.5 -37t-34.5 -16h-33q-21 0 -34.5 16t-13.5 37v20z" />
    <glyph glyph-name="uni318E" unicode="&#x318e;" 
d="M546 -23h-123v757h123v-757zM222 358q0 8 3 17.5t9.5 17t15 12.5t20.5 5h32q11 0 20 -4.5t15 -12t9.5 -17.5t3.5 -18v-20q0 -21 -13.5 -37t-34.5 -16h-32q-21 0 -34.5 16t-13.5 37v20z" />
    <glyph glyph-name="uni2170" unicode="&#x2170;" 
d="M442 582h-120v101h120v-101zM323 94v427h122v-427h-122z" />
    <glyph glyph-name="uni2171" unicode="&#x2171;" 
d="M553 582h-122v101h122v-101zM335 582h-121v101h121v-101zM432 95v426h122v-426h-122zM218 95v426h121v-426h-121z" />
    <glyph glyph-name="uni2172" unicode="&#x2172;" 
d="M619 582h-121v101h121v-101zM268 582h-120v101h120v-101zM445 582h-121v101h121v-101zM502 95v426h118v-426h-118zM328 95v426h116v-426h-116zM151 95v426h117v-426h-117z" />
    <glyph glyph-name="uni2173" unicode="&#x2173;" 
d="M227 581h-121v102h121v-102zM661 520q-36 -107 -71 -212.5t-71 -211.5h-117q-36 106 -71 211.5t-71 212.5h133q13 -55 27 -110t27 -110q6 -21 10.5 -45t6.5 -47h3q10 78 30 156t37 156h127zM228 96h-118v424h118v-424z" />
    <glyph glyph-name="uni2174" unicode="&#x2174;" 
d="M609 522l-169 -424h-117q-41 106 -82 211.5t-82 212.5h135q12 -38 25.5 -78.5t26 -80t22.5 -78t17 -73.5h5q3 27 12.5 64.5t22.5 79.5t27.5 84.5t27.5 81.5h129z" />
    <glyph glyph-name="uni2175" unicode="&#x2175;" 
d="M509 520l-143 -424h-117q-35 106 -70 211.5t-69 212.5h132l54 -220q5 -21 9.5 -45t5.5 -47h3q9 78 29 156t39 156h127zM658 96h-116v424h116v-424zM658 581h-120v102h120v-102z" />
    <glyph glyph-name="uni2176" unicode="&#x2176;" 
d="M385 520l-109 -424h-108q-28 106 -55.5 211.5t-55.5 212.5h119q7 -39 14.5 -75.5t13.5 -73.5t11.5 -77t8.5 -86h2q11 85 23 159.5t25 152.5h111zM527 96h-108v424h108v-424zM710 96h-107v424h107v-424zM710 581h-110v102h110v-102zM528 581h-110v102h110v-102z" />
    <glyph glyph-name="uni2177" unicode="&#x2177;" 
d="M715 581h-97v102h97v-102zM574 581h-99v102h99v-102zM428 581h-98v102h98v-102zM718 96h-99v424h99v-424zM574 96h-99v424h99v-424zM429 96h-99v424h99v-424zM310 520q-21 -107 -41 -212.5t-41 -211.5h-91q-23 106 -44 211.5t-43 212.5h108q4 -40 7.5 -74t6.5 -70
t6 -76.5t7 -91.5h1q4 46 6.5 85.5t5.5 76.5l6 74t7 76h99z" />
    <glyph glyph-name="uni2178" unicode="&#x2178;" 
d="M538 311l56 -108t57 -107h-133q-18 34 -33 68.5t-27 77.5h-4q-12 -41 -26.5 -76.5t-30.5 -69.5h-126q28 52 56.5 105t56.5 105q-28 54 -57 107t-57 107h132q17 -36 34.5 -74t29.5 -75h2q15 40 30.5 76t32.5 73h124zM230 96h-117v424h117v-424zM228 581h-114v102h114v-102
z" />
    <glyph glyph-name="uni2179" unicode="&#x2179;" 
d="M601 524l-10 -15t-25.5 -36.5t-33 -47.5t-33.5 -49t-27 -39.5t-14 -19.5q2 -3 13 -20.5t27 -42t34 -52t32.5 -50.5t24 -38.5l9.5 -15.5v0h-140q0 1 -8 14t-17 28t-16.5 28t-7.5 14q-16 31 -28 63h-3q-7 -19 -14 -33t-16 -30q1 0 -6.5 -12.5t-16 -28t-16 -29t-7.5 -14.5
h-135h-1l10.5 15t26 38t33.5 50l34 51t27 41t13 19q-2 3 -13 20t-27 40.5t-34 50.5t-32.5 49t-24.5 37t-9 15h136q0 -2 7 -13t15 -24.5t14.5 -24.5l6.5 -11h-1q11 -17 21.5 -35.5t19.5 -34.5h2q10 19 19.5 37t20.5 36l-1 -1q0 1 6 11t12.5 22.5t12.5 24t7 13.5h-1l1 1v-1
h133z" />
    <glyph glyph-name="uni2160" unicode="&#x2160;" 
d="M445 687v-592h-123v592h123z" />
    <glyph glyph-name="uni2161" unicode="&#x2161;" 
d="M554 687v-592h-121v592h121zM335 687v-592h-121v592h121z" />
    <glyph glyph-name="uni2162" unicode="&#x2162;" 
d="M627 687v-592h-115v592h115zM256 687v-592h-115v592h115zM435 687v-592h-114v592h114z" />
    <glyph glyph-name="uni2163" unicode="&#x2163;" 
d="M689 686q-43 -149 -85.5 -296t-85.5 -294h-140q-40 147 -79.5 294t-79.5 296h134q26 -119 54.5 -235.5t45.5 -236.5h2q7 55 18 111.5t25 110.5l60 250h131zM194 96h-115v590h115v-590z" />
    <glyph glyph-name="uni2164" unicode="&#x2164;" 
d="M648 686q-52 -149 -103 -296t-103 -294h-137l-185 590h134q16 -60 34 -121.5t36 -122t32 -118.5t23 -113h2q8 54 23 111.5t34 117.5t39.5 122t40.5 124h130z" />
    <glyph glyph-name="uni2165" unicode="&#x2165;" 
d="M536 686l-170 -590h-139q-41 147 -80 294t-80 296h134q16 -70 32 -138t32 -137q10 -47 20 -98t14 -99h3q7 60 18.5 119.5t25.5 118t29.5 117t30.5 117.5h130zM700 96h-114v590h114v-590z" />
    <glyph glyph-name="uni2166" unicode="&#x2166;" 
d="M421 686l-135 -590h-106l-132 590h114q9 -58 20 -113.5t21 -112.5t18.5 -117t14.5 -125h5q1 50 9 102.5t15 97.5q12 68 22.5 134t22.5 134h111zM720 96h-106v590h106v-590zM542 96h-106v590h106v-590z" />
    <glyph glyph-name="uni2167" unicode="&#x2167;" 
d="M356 686q-26 -149 -52 -296t-54 -294h-98l-109 590h105l35 -266q4 -38 11.5 -92t9.5 -107h4q1 53 5.5 105t9.5 97q7 66 14 131.5t15 131.5h104zM597 96h-96v590h96v-590zM467 96h-94v590h94v-590zM725 96h-95v590h95v-590z" />
    <glyph glyph-name="uni2168" unicode="&#x2168;" 
d="M529 394q33 -75 66 -149.5t67 -148.5h-128q-10 27 -21 56.5t-22 58t-20 55.5t-16 49h-2q-13 -47 -32 -106t-37 -113h-124q32 74 63.5 148t62.5 149l-123 293h124q21 -55 41 -107.5t34 -108.5h4q16 60 32.5 111t35.5 105h123q-31 -74 -63.5 -146t-64.5 -146zM220 96h-114
v590h114v-590z" />
    <glyph glyph-name="uni2169" unicode="&#x2169;" 
d="M454 394q2 -4 15.5 -27.5t33 -56.5t41.5 -71t40 -69.5t30 -53t11 -21.5l-1 1h-140v-1q-1 0 -1 1h1l-11 22t-20 38.5t-19 37t-8 17.5v0q-19 36 -29.5 60t-19.5 45h-3q-6 -21 -15.5 -44.5t-27.5 -60.5q0 -1 -7.5 -18t-16.5 -37t-17 -38t-9 -22h1l-1 -1v1h-139v-1
q0 2 11.5 23t28.5 52.5t38 67.5t39 68t30.5 55.5t15.5 28.5h1v2h-1q0 -1 1 -1l-1 -1v2q-3 6 -15 29.5t-30 56t-38 68.5t-37 67t-28 52t-11 22v-1h140l4.5 -10t11.5 -24l15 -30t14.5 -30t11.5 -23.5t5 -10.5q12 -28 20 -47.5t14 -42.5h4q4 13 8 24t8 21.5l8 21t10 23.5v0
q0 1 5 11t11.5 24t14.5 30.5t15 30.5l11.5 23t3.5 9h139q0 1 1 1q0 -1 -11.5 -22t-29.5 -52t-39.5 -67t-40 -68t-31.5 -55t-15 -28h1z" />
    <glyph glyph-name="SF100000" unicode="&#x2500;" 
d="M752 350h-736v23h736v-23z" />
    <glyph glyph-name="SF110000" unicode="&#x2502;" 
d="M395 -39h-23v800h23v-800z" />
    <glyph glyph-name="SF010000" unicode="&#x250c;" 
d="M574 350h-356v-389h-24v412h380v-23z" />
    <glyph glyph-name="SF030000" unicode="&#x2510;" 
d="M574 -39h-24v389h-356v23h380v-412z" />
    <glyph glyph-name="SF040000" unicode="&#x2518;" 
d="M574 350h-380v23h356v388h24v-411z" />
    <glyph glyph-name="SF020000" unicode="&#x2514;" 
d="M570 350h-372v411h24v-388h348v-23z" />
    <glyph glyph-name="SF080000" unicode="&#x251c;" 
d="M574 350h-356v-389h-24v800h24v-388h356v-23z" />
    <glyph glyph-name="SF060000" unicode="&#x252c;" 
d="M752 350h-356v-389h-23v389h-357v23h736v-23z" />
    <glyph glyph-name="SF090000" unicode="&#x2524;" 
d="M574 -39h-24v389h-356v23h356v388h24v-800z" />
    <glyph glyph-name="SF070000" unicode="&#x2534;" 
d="M752 350h-736v23h357v388h23v-388h356v-23z" />
    <glyph glyph-name="SF050000" unicode="&#x253c;" 
d="M752 349h-356v-388h-23v388h-357v23h357v389h23v-389h356v-23z" />
    <glyph glyph-name="uni2501" unicode="&#x2501;" 
d="M752 338h-736v43h736v-43z" />
    <glyph glyph-name="uni2503" unicode="&#x2503;" 
d="M406 -39h-44v800h44v-800z" />
    <glyph glyph-name="uni250F" unicode="&#x250f;" 
d="M578 338h-346v-377h-43v420h389v-43z" />
    <glyph glyph-name="uni2513" unicode="&#x2513;" 
d="M578 -39h-43v377h-346v43h389v-420z" />
    <glyph glyph-name="uni251B" unicode="&#x251b;" 
d="M578 338h-389v43h346v380h43v-423z" />
    <glyph glyph-name="uni2517" unicode="&#x2517;" 
d="M578 338h-389v423h43v-380h346v-43z" />
    <glyph glyph-name="uni2523" unicode="&#x2523;" 
d="M578 338h-346v-377h-43v800h43v-380h346v-43z" />
    <glyph glyph-name="uni2533" unicode="&#x2533;" 
d="M752 338h-346v-377h-44v377h-346v43h736v-43z" />
    <glyph glyph-name="uni252B" unicode="&#x252b;" 
d="M578 -39h-43v377h-346v43h346v380h43v-800z" />
    <glyph glyph-name="uni253B" unicode="&#x253b;" 
d="M752 338h-736v43h346v380h44v-380h346v-43z" />
    <glyph glyph-name="uni254B" unicode="&#x254b;" 
d="M752 338h-346v-377h-44v377h-346v43h346v380h44v-380h346v-43z" />
    <glyph glyph-name="uni2520" unicode="&#x2520;" 
d="M583 346h-338v-385h-61v800h61v-386h338v-29z" />
    <glyph glyph-name="uni252F" unicode="&#x252f;" 
d="M752 332h-353v-371h-30v371h-353v58h736v-58z" />
    <glyph glyph-name="uni2528" unicode="&#x2528;" 
d="M583 -39h-61v385h-337v29h337v386h61v-800z" />
    <glyph glyph-name="uni2537" unicode="&#x2537;" 
d="M752 332h-736v58h353v371h30v-371h353v-58z" />
    <glyph glyph-name="uni253F" unicode="&#x253f;" 
d="M752 332h-353v-371h-30v371h-353v58h353v371h30v-371h353v-58z" />
    <glyph glyph-name="uni251D" unicode="&#x251d;" 
d="M575 332h-353v-371h-30v800h30v-371h353v-58z" />
    <glyph glyph-name="uni2530" unicode="&#x2530;" 
d="M752 346h-338v-385h-60v385h-338v29h736v-29z" />
    <glyph glyph-name="uni2525" unicode="&#x2525;" 
d="M575 -39h-30v371h-353v58h353v371h30v-800z" />
    <glyph glyph-name="uni2538" unicode="&#x2538;" 
d="M752 346h-736v29h338v386h60v-386h338v-29z" />
    <glyph glyph-name="uni2542" unicode="&#x2542;" 
d="M752 346h-338v-385h-60v385h-338v29h338v386h60v-386h338v-29z" />
    <glyph glyph-name="uni2512" unicode="&#x2512;" 
d="M583 -39h-61v385h-337v29h398v-414z" />
    <glyph glyph-name="uni2511" unicode="&#x2511;" 
d="M575 -39h-30v371h-353v58h383v-429z" />
    <glyph glyph-name="uni251A" unicode="&#x251a;" 
d="M583 346h-398v29h337v386h61v-415z" />
    <glyph glyph-name="uni2519" unicode="&#x2519;" 
d="M575 332h-383v58h353v371h30v-429z" />
    <glyph glyph-name="uni2516" unicode="&#x2516;" 
d="M583 346h-398v415h61v-386h337v-29z" />
    <glyph glyph-name="uni2515" unicode="&#x2515;" 
d="M575 332h-383v429h30v-371h353v-58z" />
    <glyph glyph-name="uni250E" unicode="&#x250e;" 
d="M583 346h-337v-385h-61v414h398v-29z" />
    <glyph glyph-name="uni250D" unicode="&#x250d;" 
d="M575 332h-353v-371h-30v429h383v-58z" />
    <glyph glyph-name="uni251E" unicode="&#x251e;" 
d="M583 346h-353v-385h-30v400h-15v400h61v-386h337v-29z" />
    <glyph glyph-name="uni251F" unicode="&#x251f;" 
d="M583 346h-337v-385h-61v400h15v400h30v-386h353v-29z" />
    <glyph glyph-name="uni2521" unicode="&#x2521;" 
d="M583 332h-353v-371h-30v400h-15v400h61v-371h337v-58z" />
    <glyph glyph-name="uni2522" unicode="&#x2522;" 
d="M583 332h-337v-371h-61v400h15v400h30v-371h353v-58z" />
    <glyph glyph-name="uni2526" unicode="&#x2526;" 
d="M583 361h-15v-400h-30v385h-353v29h337v386h61v-400z" />
    <glyph glyph-name="uni2527" unicode="&#x2527;" 
d="M583 -39h-61v385h-337v29h353v386h30v-400h15v-400z" />
    <glyph glyph-name="uni2529" unicode="&#x2529;" 
d="M583 361h-15v-400h-30v371h-353v58h337v371h61v-400z" />
    <glyph glyph-name="uni252A" unicode="&#x252a;" 
d="M583 -39h-61v371h-337v58h353v371h30v-400h15v-400z" />
    <glyph glyph-name="uni252D" unicode="&#x252d;" 
d="M752 346h-353v-385h-30v371h-353v58h368v-15h368v-29z" />
    <glyph glyph-name="uni252E" unicode="&#x252e;" 
d="M752 332h-353v-371h-30v385h-353v29h368v15h368v-58z" />
    <glyph glyph-name="uni2531" unicode="&#x2531;" 
d="M752 346h-338v-385h-60v371h-338v58h368v-15h368v-29z" />
    <glyph glyph-name="uni2532" unicode="&#x2532;" 
d="M752 332h-338v-371h-60v385h-338v29h368v15h368v-58z" />
    <glyph glyph-name="uni2535" unicode="&#x2535;" 
d="M752 346h-368v-14h-368v58h353v371h30v-386h353v-29z" />
    <glyph glyph-name="uni2536" unicode="&#x2536;" 
d="M752 332h-368v14h-368v29h353v386h30v-371h353v-58z" />
    <glyph glyph-name="uni2539" unicode="&#x2539;" 
d="M752 346h-368v-14h-368v58h338v371h60v-386h338v-29z" />
    <glyph glyph-name="uni253A" unicode="&#x253a;" 
d="M752 332h-368v14h-368v29h338v386h60v-371h338v-58z" />
    <glyph glyph-name="uni253D" unicode="&#x253d;" 
d="M752 346h-353v-385h-30v371h-353v61h353v368h30v-386h353v-29z" />
    <glyph glyph-name="uni253E" unicode="&#x253e;" 
d="M752 332h-353v-371h-30v385h-353v29h353v386h30v-371h353v-58z" />
    <glyph glyph-name="uni2540" unicode="&#x2540;" 
d="M752 346h-353v-385h-30v385h-353v29h338v386h60v-386h338v-29z" />
    <glyph glyph-name="uni2541" unicode="&#x2541;" 
d="M752 346h-338v-385h-60v385h-338v29h353v386h30v-386h353v-29z" />
    <glyph glyph-name="uni2543" unicode="&#x2543;" 
d="M752 346h-353v-385h-30v371h-353v58h338v371h60v-386h338v-29z" />
    <glyph glyph-name="uni2544" unicode="&#x2544;" 
d="M752 332h-353v-371h-30v385h-353v29h338v386h60v-371h338v-58z" />
    <glyph glyph-name="uni2545" unicode="&#x2545;" 
d="M752 346h-338v-385h-60v371h-338v58h353v371h30v-386h353v-29z" />
    <glyph glyph-name="uni2546" unicode="&#x2546;" 
d="M752 332h-338v-371h-60v385h-338v29h353v386h30v-371h353v-58z" />
    <glyph glyph-name="uni2547" unicode="&#x2547;" 
d="M752 332h-353v-371h-30v371h-353v58h338v371h60v-371h338v-58z" />
    <glyph glyph-name="uni2548" unicode="&#x2548;" 
d="M752 332h-338v-371h-60v371h-338v58h353v371h30v-371h353v-58z" />
    <glyph glyph-name="uni2549" unicode="&#x2549;" 
d="M752 346h-338v-385h-60v371h-338v58h338v371h60v-386h338v-29z" />
    <glyph glyph-name="uni254A" unicode="&#x254a;" 
d="M752 332h-338v-371h-60v385h-338v29h338v386h60v-371h338v-58z" />
    <glyph glyph-name="uni3260" unicode="&#x3260;" 
d="M457 722q55 0 105.5 -21.5t89 -57.5t62 -83.5t23.5 -100.5v-204q0 -59 -23.5 -106t-62.5 -80.5t-89.5 -51.5t-105.5 -18h-136q-54 0 -105 18t-90 51.5t-62 80.5t-23 106v203q0 52 23 100t62 84.5t90 58t105 21.5h137zM133 266q1 -44 17 -77t46 -56t70.5 -34.5t90.5 -11.5
h71q102 0 158.5 43.5t57.5 135.5v171q-1 49 -16 86t-43 62t-68 38t-90 13h-78q-50 0 -90 -13t-68 -38t-43 -62.5t-15 -86.5v-170zM439 402h-227v110h346v-110l-44 -241h-116z" />
    <glyph glyph-name="uni3261" unicode="&#x3261;" 
d="M457 722q55 0 105.5 -21.5t89 -57.5t62 -83.5t23.5 -100.5v-204q0 -59 -23.5 -106t-62.5 -80.5t-89.5 -51.5t-105.5 -18h-136q-54 0 -105 18t-90 51.5t-62 80.5t-23 106v203q0 52 23 100t62 84.5t90 58t105 21.5h137zM133 266q1 -44 17 -77t46 -56t70.5 -34.5t90.5 -11.5
h71q102 0 158.5 43.5t57.5 135.5v171q-1 49 -16 86t-43 62t-68 38t-90 13h-78q-50 0 -90 -13t-68 -38t-43 -62.5t-15 -86.5v-170zM330 285h248v-108h-356v350h108v-242z" />
    <glyph glyph-name="uni3262" unicode="&#x3262;" 
d="M457 722q55 0 105.5 -21.5t89 -57.5t62 -83.5t23.5 -100.5v-204q0 -59 -23.5 -106t-62.5 -80.5t-89.5 -51.5t-105.5 -18h-136q-54 0 -105 18t-90 51.5t-62 80.5t-23 106v203q0 52 23 100t62 84.5t90 58t105 21.5h137zM133 266q1 -44 17 -77t46 -56t70.5 -34.5t90.5 -11.5
h71q102 0 158.5 43.5t57.5 135.5v171q-1 49 -16 86t-43 62t-68 38t-90 13h-78q-50 0 -90 -13t-68 -38t-43 -62.5t-15 -86.5v-170zM550 271v-94h-324v351h324v-94h-210v-163h210z" />
    <glyph glyph-name="uni3263" unicode="&#x3263;" 
d="M457 722q55 0 105.5 -21.5t89 -57.5t62 -83.5t23.5 -100.5v-204q0 -59 -23.5 -106t-62.5 -80.5t-89.5 -51.5t-105.5 -18h-136q-54 0 -105 18t-90 51.5t-62 80.5t-23 106v203q0 52 23 100t62 84.5t90 58t105 21.5h137zM133 266q1 -44 17 -77t46 -56t70.5 -34.5t90.5 -11.5
h71q102 0 158.5 43.5t57.5 135.5v171q-1 49 -16 86t-43 62t-68 38t-90 13h-78q-50 0 -90 -13t-68 -38t-43 -62.5t-15 -86.5v-170zM551 528v-215h-218v-43h218v-93h-327v218h218v41h-218v92h327z" />
    <glyph glyph-name="uni3264" unicode="&#x3264;" 
d="M457 722q55 0 105.5 -21.5t89 -57.5t62 -83.5t23.5 -100.5v-204q0 -59 -23.5 -106t-62.5 -80.5t-89.5 -51.5t-105.5 -18h-136q-54 0 -105 18t-90 51.5t-62 80.5t-23 106v203q0 52 23 100t62 84.5t90 58t105 21.5h137zM133 266q1 -44 17 -77t46 -56t70.5 -34.5t90.5 -11.5
h71q102 0 158.5 43.5t57.5 135.5v171q-1 49 -16 86t-43 62t-68 38t-90 13h-78q-50 0 -90 -13t-68 -38t-43 -62.5t-15 -86.5v-170zM558 526v-349h-332v349h332zM450 434h-116v-164h116v164z" />
    <glyph glyph-name="uni3265" unicode="&#x3265;" 
d="M457 722q55 0 105.5 -21.5t89 -57.5t62 -83.5t23.5 -100.5v-204q0 -59 -23.5 -106t-62.5 -80.5t-89.5 -51.5t-105.5 -18h-136q-54 0 -105 18t-90 51.5t-62 80.5t-23 106v203q0 52 23 100t62 84.5t90 58t105 21.5h137zM133 266q1 -44 17 -77t46 -56t70.5 -34.5t90.5 -11.5
h71q102 0 158.5 43.5t57.5 135.5v171q-1 49 -16 86t-43 62t-68 38t-90 13h-78q-50 0 -90 -13t-68 -38t-43 -62.5t-15 -86.5v-170zM556 177h-334v349h99v-102h135v102h100v-349zM456 261v88h-135v-88h135z" />
    <glyph glyph-name="uni3266" unicode="&#x3266;" 
d="M457 722q55 0 105.5 -21.5t89 -57.5t62 -83.5t23.5 -100.5v-204q0 -59 -23.5 -106t-62.5 -80.5t-89.5 -51.5t-105.5 -18h-136q-54 0 -105 18t-90 51.5t-62 80.5t-23 106v203q0 52 23 100t62 84.5t90 58t105 21.5h137zM133 266q1 -44 17 -77t46 -56t70.5 -34.5t90.5 -11.5
h71q102 0 158.5 43.5t57.5 135.5v171q-1 49 -16 86t-43 62t-68 38t-90 13h-78q-50 0 -90 -13t-68 -38t-43 -62.5t-15 -86.5v-170zM558 177h-109l-59 269l-72 -269h-109l85 347h192z" />
    <glyph glyph-name="uni3267" unicode="&#x3267;" 
d="M457 722q55 0 105.5 -21.5t89 -57.5t62 -83.5t23.5 -100.5v-204q0 -59 -23.5 -106t-62.5 -80.5t-89.5 -51.5t-105.5 -18h-136q-54 0 -105 18t-90 51.5t-62 80.5t-23 106v203q0 52 23 100t62 84.5t90 58t105 21.5h137zM133 266q1 -44 17 -77t46 -56t70.5 -34.5t90.5 -11.5
h71q102 0 158.5 43.5t57.5 135.5v171q-1 49 -16 86t-43 62t-68 38t-90 13h-78q-50 0 -90 -13t-68 -38t-43 -62.5t-15 -86.5v-170zM189 395q0 33 15.5 62.5t42.5 51.5t63.5 35t77.5 13t77.5 -13t63.5 -35t42.5 -51.5t15.5 -62.5v-65q0 -32 -15.5 -62t-42.5 -52t-63.5 -34.5
t-77.5 -12.5t-77.5 12.5t-63.5 34.5t-42.5 52t-15.5 62v65zM304 345q0 -16 6.5 -29.5t18 -23.5t26.5 -16t33 -6t33 6t26 16t18 23.5t7 29.5v36q0 15 -7 28.5t-18 24t-26 16t-33 5.5t-33 -5.5t-26.5 -16t-18 -24t-6.5 -28.5v-36z" />
    <glyph glyph-name="uni3268" unicode="&#x3268;" 
d="M457 722q55 0 105.5 -21.5t89 -57.5t62 -83.5t23.5 -100.5v-204q0 -59 -23.5 -106t-62.5 -80.5t-89.5 -51.5t-105.5 -18h-136q-54 0 -105 18t-90 51.5t-62 80.5t-23 106v203q0 52 23 100t62 84.5t90 58t105 21.5h137zM133 266q1 -44 17 -77t46 -56t70.5 -34.5t90.5 -11.5
h71q102 0 158.5 43.5t57.5 135.5v171q-1 49 -16 86t-43 62t-68 38t-90 13h-78q-50 0 -90 -13t-68 -38t-43 -62.5t-15 -86.5v-170zM388 430h-168v106h328v-106l-76 -60l76 -56v-144l-162 132l-166 -132v136z" />
    <glyph glyph-name="uni3269" unicode="&#x3269;" 
d="M457 722q55 0 105.5 -21.5t89 -57.5t62 -83.5t23.5 -100.5v-204q0 -59 -23.5 -106t-62.5 -80.5t-89.5 -51.5t-105.5 -18h-136q-54 0 -105 18t-90 51.5t-62 80.5t-23 106v203q0 52 23 100t62 84.5t90 58t105 21.5h137zM133 266q1 -44 17 -77t46 -56t70.5 -34.5t90.5 -11.5
h71q102 0 158.5 43.5t57.5 135.5v171q-1 49 -16 86t-43 62t-68 38t-90 13h-78q-50 0 -90 -13t-68 -38t-43 -62.5t-15 -86.5v-170zM450 507h140v-99l-96 -59l100 -64v-124l-195 129l-209 -129v124l199 123h-199v99h138v65h122v-65z" />
    <glyph glyph-name="uni326A" unicode="&#x326a;" 
d="M457 722q55 0 105.5 -21.5t89 -57.5t62 -83.5t23.5 -100.5v-204q0 -59 -23.5 -106t-62.5 -80.5t-89.5 -51.5t-105.5 -18h-136q-54 0 -105 18t-90 51.5t-62 80.5t-23 106v203q0 52 23 100t62 84.5t90 58t105 21.5h137zM133 266q1 -44 17 -77t46 -56t70.5 -34.5t90.5 -11.5
h71q102 0 158.5 43.5t57.5 135.5v171q-1 49 -16 86t-43 62t-68 38t-90 13h-78q-50 0 -90 -13t-68 -38t-43 -62.5t-15 -86.5v-170zM546 161h-122l15 95h-240v94h255l12 67h-279v103h401v-102z" />
    <glyph glyph-name="uni326B" unicode="&#x326b;" 
d="M457 722q55 0 105.5 -21.5t89 -57.5t62 -83.5t23.5 -100.5v-204q0 -59 -23.5 -106t-62.5 -80.5t-89.5 -51.5t-105.5 -18h-136q-54 0 -105 18t-90 51.5t-62 80.5t-23 106v203q0 52 23 100t62 84.5t90 58t105 21.5h137zM133 266q1 -44 17 -77t46 -56t70.5 -34.5t90.5 -11.5
h71q102 0 158.5 43.5t57.5 135.5v171q-1 49 -16 86t-43 62t-68 38t-90 13h-78q-50 0 -90 -13t-68 -38t-43 -62.5t-15 -86.5v-170zM538 263v-86h-308v349h308v-86h-201v-45h201v-86h-201v-46h201z" />
    <glyph glyph-name="uni326C" unicode="&#x326c;" 
d="M457 722q55 0 105.5 -21.5t89 -57.5t62 -83.5t23.5 -100.5v-204q0 -59 -23.5 -106t-62.5 -80.5t-89.5 -51.5t-105.5 -18h-136q-54 0 -105 18t-90 51.5t-62 80.5t-23 106v203q0 52 23 100t62 84.5t90 58t105 21.5h137zM133 266q1 -44 17 -77t46 -56t70.5 -34.5t90.5 -11.5
h71q102 0 158.5 43.5t57.5 135.5v171q-1 49 -16 86t-43 62t-68 38t-90 13h-78q-50 0 -90 -13t-68 -38t-43 -62.5t-15 -86.5v-170zM247 269v166h-45v92h372v-92h-44v-166h44v-92h-372v92h45zM348 269h82v166h-82v-166z" />
    <glyph glyph-name="uni326D" unicode="&#x326d;" 
d="M457 722q55 0 105.5 -21.5t89 -57.5t62 -83.5t23.5 -100.5v-204q0 -59 -23.5 -106t-62.5 -80.5t-89.5 -51.5t-105.5 -18h-136q-54 0 -105 18t-90 51.5t-62 80.5t-23 106v203q0 52 23 100t62 84.5t90 58t105 21.5h137zM133 266q1 -44 17 -77t46 -56t70.5 -34.5t90.5 -11.5
h71q102 0 158.5 43.5t57.5 135.5v171q-1 49 -16 86t-43 62t-68 38t-90 13h-78q-50 0 -90 -13t-68 -38t-43 -62.5t-15 -86.5v-170zM442 479h124v-82h-72q21 -16 33 -40.5t12 -54.5q0 -60 -40.5 -92.5t-107.5 -32.5t-107.5 32.5t-40.5 92.5q0 30 11.5 54.5t32.5 40.5h-70v82
h125v55h100v-55zM339 298q0 -21 14.5 -33.5t37.5 -12.5q24 0 38 12.5t14 33.5v8q0 21 -14 33.5t-38 12.5q-23 0 -37.5 -12.5t-14.5 -33.5v-8z" />
    <glyph glyph-name="uni326E" unicode="&#x326e;" 
d="M457 722q55 0 105.5 -21.5t89 -57.5t62 -83.5t23.5 -100.5v-204q0 -59 -23.5 -106t-62.5 -80.5t-89.5 -51.5t-105.5 -18h-136q-54 0 -105 18t-90 51.5t-62 80.5t-23 106v203q0 52 23 100t62 84.5t90 58t105 21.5h137zM133 266q1 -44 17 -77t46 -56t70.5 -34.5t90.5 -11.5
h71q102 0 158.5 43.5t57.5 135.5v171q-1 49 -16 86t-43 62t-68 38t-90 13h-78q-50 0 -90 -13t-68 -38t-43 -62.5t-15 -86.5v-170zM338 477h-143v79h234v-70l-50 -347h-89zM554 410h42v-80h-42v-193h-86v421h86v-148z" />
    <glyph glyph-name="uni326F" unicode="&#x326f;" 
d="M457 722q55 0 105.5 -21.5t89 -57.5t62 -83.5t23.5 -100.5v-204q0 -59 -23.5 -106t-62.5 -80.5t-89.5 -51.5t-105.5 -18h-136q-54 0 -105 18t-90 51.5t-62 80.5t-23 106v203q0 52 23 100t62 84.5t90 58t105 21.5h137zM133 266q1 -44 17 -77t46 -56t70.5 -34.5t90.5 -11.5
h71q102 0 158.5 43.5t57.5 135.5v171q-1 49 -16 86t-43 62t-68 38t-90 13h-78q-50 0 -90 -13t-68 -38t-43 -62.5t-15 -86.5v-170zM451 220v-82h-241v418h88v-336h153zM553 424h43v-78h-43v-209h-83v421h83v-134z" />
    <glyph glyph-name="uni3270" unicode="&#x3270;" 
d="M457 722q55 0 105.5 -21.5t89 -57.5t62 -83.5t23.5 -100.5v-204q0 -59 -23.5 -106t-62.5 -80.5t-89.5 -51.5t-105.5 -18h-136q-54 0 -105 18t-90 51.5t-62 80.5t-23 106v203q0 52 23 100t62 84.5t90 58t105 21.5h137zM133 266q1 -44 17 -77t46 -56t70.5 -34.5t90.5 -11.5
h71q102 0 158.5 43.5t57.5 135.5v171q-1 49 -16 86t-43 62t-68 38t-90 13h-78q-50 0 -90 -13t-68 -38t-43 -62.5t-15 -86.5v-170zM438 556v-78h-140v-260h142v-80h-230v418h228zM596 424v-78h-43v-209h-83v421h83v-134h43z" />
    <glyph glyph-name="uni3271" unicode="&#x3271;" 
d="M457 722q55 0 105.5 -21.5t89 -57.5t62 -83.5t23.5 -100.5v-204q0 -59 -23.5 -106t-62.5 -80.5t-89.5 -51.5t-105.5 -18h-136q-54 0 -105 18t-90 51.5t-62 80.5t-23 106v203q0 52 23 100t62 84.5t90 58t105 21.5h137zM133 266q1 -44 17 -77t46 -56t70.5 -34.5t90.5 -11.5
h71q102 0 158.5 43.5t57.5 135.5v171q-1 49 -16 86t-43 62t-68 38t-90 13h-78q-50 0 -90 -13t-68 -38t-43 -62.5t-15 -86.5v-170zM430 556v-250h-139v-88h143v-79h-224v251h138v86h-138v80h220zM553 399h43v-78h-43v-184h-83v421h83v-159z" />
    <glyph glyph-name="uni3272" unicode="&#x3272;" 
d="M457 722q55 0 105.5 -21.5t89 -57.5t62 -83.5t23.5 -100.5v-204q0 -59 -23.5 -106t-62.5 -80.5t-89.5 -51.5t-105.5 -18h-136q-54 0 -105 18t-90 51.5t-62 80.5t-23 106v203q0 52 23 100t62 84.5t90 58t105 21.5h137zM133 266q1 -44 17 -77t46 -56t70.5 -34.5t90.5 -11.5
h71q102 0 158.5 43.5t57.5 135.5v171q-1 49 -16 86t-43 62t-68 38t-90 13h-78q-50 0 -90 -13t-68 -38t-43 -62.5t-15 -86.5v-170zM210 138v418h230v-418h-230zM470 137v421h83v-132h43v-80h-43v-209h-83zM297 219h55v257h-55v-257z" />
    <glyph glyph-name="uni3273" unicode="&#x3273;" 
d="M457 722q55 0 105.5 -21.5t89 -57.5t62 -83.5t23.5 -100.5v-204q0 -59 -23.5 -106t-62.5 -80.5t-89.5 -51.5t-105.5 -18h-136q-54 0 -105 18t-90 51.5t-62 80.5t-23 106v203q0 52 23 100t62 84.5t90 58t105 21.5h137zM133 266q1 -44 17 -77t46 -56t70.5 -34.5t90.5 -11.5
h71q102 0 158.5 43.5t57.5 135.5v171q-1 49 -16 86t-43 62t-68 38t-90 13h-78q-50 0 -90 -13t-68 -38t-43 -62.5t-15 -86.5v-170zM425 137h-220v419h81v-128h57v128h82v-419zM470 137v421h83v-132h43v-80h-43v-209h-83zM286 218h57v123h-57v-123z" />
    <glyph glyph-name="uni3274" unicode="&#x3274;" 
d="M457 722q55 0 105.5 -21.5t89 -57.5t62 -83.5t23.5 -100.5v-204q0 -59 -23.5 -106t-62.5 -80.5t-89.5 -51.5t-105.5 -18h-136q-54 0 -105 18t-90 51.5t-62 80.5t-23 106v203q0 52 23 100t62 84.5t90 58t105 21.5h137zM133 266q1 -44 17 -77t46 -56t70.5 -34.5t90.5 -11.5
h71q102 0 158.5 43.5t57.5 135.5v171q-1 49 -16 86t-43 62t-68 38t-90 13h-78q-50 0 -90 -13t-68 -38t-43 -62.5t-15 -86.5v-170zM374 139l-48 218l-48 -218h-85l96 417h75l96 -417h-86zM553 432h43v-80h-43v-215h-80v421h80v-126z" />
    <glyph glyph-name="uni3275" unicode="&#x3275;" 
d="M457 722q55 0 105.5 -21.5t89 -57.5t62 -83.5t23.5 -100.5v-204q0 -59 -23.5 -106t-62.5 -80.5t-89.5 -51.5t-105.5 -18h-136q-54 0 -105 18t-90 51.5t-62 80.5t-23 106v203q0 52 23 100t62 84.5t90 58t105 21.5h137zM133 266q1 -44 17 -77t46 -56t70.5 -34.5t90.5 -11.5
h71q102 0 158.5 43.5t57.5 135.5v171q-1 49 -16 86t-43 62t-68 38t-90 13h-78q-50 0 -90 -13t-68 -38t-43 -62.5t-15 -86.5v-170zM320 558q24 0 45 -9t36.5 -24t24.5 -35.5t9 -43.5v-196q0 -24 -9 -44.5t-24.5 -36t-36.5 -24t-45 -8.5t-45 8.5t-36.5 24t-24.5 36t-9 44.5
v196q0 23 9 43.5t24.5 35.5t36.5 24t45 9zM553 393h43v-81h-43v-175h-82v421h82v-165zM320 477q-14 0 -23.5 -9t-9.5 -22v-196q0 -13 9.5 -22t23.5 -9t23.5 9t9.5 22v196q0 13 -9.5 22t-23.5 9z" />
    <glyph glyph-name="uni3276" unicode="&#x3276;" 
d="M457 722q55 0 105.5 -21.5t89 -57.5t62 -83.5t23.5 -100.5v-204q0 -59 -23.5 -106t-62.5 -80.5t-89.5 -51.5t-105.5 -18h-136q-54 0 -105 18t-90 51.5t-62 80.5t-23 106v203q0 52 23 100t62 84.5t90 58t105 21.5h137zM133 266q1 -44 17 -77t46 -56t70.5 -34.5t90.5 -11.5
h71q102 0 158.5 43.5t57.5 135.5v171q-1 49 -16 86t-43 62t-68 38t-90 13h-78q-50 0 -90 -13t-68 -38t-43 -62.5t-15 -86.5v-170zM369 361l74 -223h-89l-31 96l-34 -96h-91l120 337h-113v81h209v-71zM596 344h-43v-207h-79v421h79v-136h43v-78z" />
    <glyph glyph-name="uni3277" unicode="&#x3277;" 
d="M457 722q55 0 105.5 -21.5t89 -57.5t62 -83.5t23.5 -100.5v-204q0 -59 -23.5 -106t-62.5 -80.5t-89.5 -51.5t-105.5 -18h-136q-54 0 -105 18t-90 51.5t-62 80.5t-23 106v203q0 52 23 100t62 84.5t90 58t105 21.5h137zM133 266q1 -44 17 -77t46 -56t70.5 -34.5t90.5 -11.5
h71q102 0 158.5 43.5t57.5 135.5v171q-1 49 -16 86t-43 62t-68 38t-90 13h-78q-50 0 -90 -13t-68 -38t-43 -62.5t-15 -86.5v-170zM363 539h71v-71l-52 -122l84 -208h-89l-41 100l-43 -100h-93l138 322h-128v79h72v34h81v-34zM596 344h-43v-207h-79v421h79v-136h43v-78z" />
    <glyph glyph-name="uni3278" unicode="&#x3278;" 
d="M457 722q55 0 105.5 -21.5t89 -57.5t62 -83.5t23.5 -100.5v-204q0 -59 -23.5 -106t-62.5 -80.5t-89.5 -51.5t-105.5 -18h-136q-54 0 -105 18t-90 51.5t-62 80.5t-23 106v203q0 52 23 100t62 84.5t90 58t105 21.5h137zM133 266q1 -44 17 -77t46 -56t70.5 -34.5t90.5 -11.5
h71q102 0 158.5 43.5t57.5 135.5v171q-1 49 -16 86t-43 62t-68 38t-90 13h-78q-50 0 -90 -13t-68 -38t-43 -62.5t-15 -86.5v-170zM322 326h-126v79h138l10 72h-150v79h240v-70l-49 -347h-88zM596 344h-43v-207h-79v421h79v-136h43v-78z" />
    <glyph glyph-name="uni3279" unicode="&#x3279;" 
d="M457 722q55 0 105.5 -21.5t89 -57.5t62 -83.5t23.5 -100.5v-204q0 -59 -23.5 -106t-62.5 -80.5t-89.5 -51.5t-105.5 -18h-136q-54 0 -105 18t-90 51.5t-62 80.5t-23 106v203q0 52 23 100t62 84.5t90 58t105 21.5h137zM133 266q1 -44 17 -77t46 -56t70.5 -34.5t90.5 -11.5
h71q102 0 158.5 43.5t57.5 135.5v171q-1 49 -16 86t-43 62t-68 38t-90 13h-78q-50 0 -90 -13t-68 -38t-43 -62.5t-15 -86.5v-170zM210 556h216v-80h-131v-84h125v-79h-125v-95h139v-79h-224v417zM596 344h-43v-207h-79v421h79v-136h43v-78z" />
    <glyph glyph-name="uni327A" unicode="&#x327a;" 
d="M457 722q55 0 105.5 -21.5t89 -57.5t62 -83.5t23.5 -100.5v-204q0 -59 -23.5 -106t-62.5 -80.5t-89.5 -51.5t-105.5 -18h-136q-54 0 -105 18t-90 51.5t-62 80.5t-23 106v203q0 52 23 100t62 84.5t90 58t105 21.5h137zM133 266q1 -44 17 -77t46 -56t70.5 -34.5t90.5 -11.5
h71q102 0 158.5 43.5t57.5 135.5v171q-1 49 -16 86t-43 62t-68 38t-90 13h-78q-50 0 -90 -13t-68 -38t-43 -62.5t-15 -86.5v-170zM202 217h33v262h-33v77h261v-77h-34v-262h34v-78h-261v78zM596 344h-43v-207h-79v421h79v-136h43v-78zM318 217h28v262h-28v-262z" />
    <glyph glyph-name="uni327B" unicode="&#x327b;" 
d="M457 722q55 0 105.5 -21.5t89 -57.5t62 -83.5t23.5 -100.5v-204q0 -59 -23.5 -106t-62.5 -80.5t-89.5 -51.5t-105.5 -18h-136q-54 0 -105 18t-90 51.5t-62 80.5t-23 106v203q0 52 23 100t62 84.5t90 58t105 21.5h137zM133 266q1 -44 17 -77t46 -56t70.5 -34.5t90.5 -11.5
h71q102 0 158.5 43.5t57.5 135.5v171q-1 49 -16 86t-43 62t-68 38t-90 13h-78q-50 0 -90 -13t-68 -38t-43 -62.5t-15 -86.5v-170zM342 454q20 0 37 -7.5t30 -20t21 -28.5t8 -36v-131q0 -19 -8 -35.5t-21 -29t-30 -20t-37 -7.5h-32q-20 0 -37 7.5t-30 20t-21 29t-8 35.5v131
q0 20 8 36t21 28.5t30 20t37 7.5h32zM553 398h43v-80h-43v-181h-82v421h82v-160zM368 533h81v-76h-244v76h81v40h82v-40zM329 218q11 0 19 7t8 18v107q0 12 -8 18.5t-19 6.5h-5q-11 0 -19 -6.5t-8 -18.5v-107q0 -11 8 -18t19 -7h5z" />
    <glyph glyph-name="uni24D0" unicode="&#x24d0;" 
d="M457 722q55 0 105.5 -21.5t89 -57.5t62 -83.5t23.5 -100.5v-204q0 -59 -23.5 -106t-62.5 -80.5t-89.5 -51.5t-105.5 -18h-136q-54 0 -105 18t-90 51.5t-62 80.5t-23 106v203q0 52 23 100t62 84.5t90 58t105 21.5h137zM133 266q1 -44 17 -77t46 -56t70.5 -34.5t90.5 -11.5
h71q102 0 158.5 43.5t57.5 135.5v171q-1 49 -16 86t-43 62t-68 38t-90 13h-78q-50 0 -90 -13t-68 -38t-43 -62.5t-15 -86.5v-170zM240 418q2 27 10 49.5t24 39.5t40 26.5t56 9.5h40q32 0 56 -10.5t40 -28.5t24 -40.5t8 -45.5v-236h-200q-24 0 -43.5 9t-32 24t-19 35.5
t-6.5 43.5q0 47 26 77.5t74 30.5h108q0 10 -1.5 19t-6.5 15.5t-14 10t-25 3.5h-17q-23 0 -33 -7t-15 -25h-93zM325 294q0 -13 5 -19.5t11 -6.5h104v53h-104q-6 0 -11 -6.5t-5 -20.5z" />
    <glyph glyph-name="uni24D1" unicode="&#x24d1;" 
d="M457 722q55 0 105.5 -21.5t89 -57.5t62 -83.5t23.5 -100.5v-204q0 -59 -23.5 -106t-62.5 -80.5t-89.5 -51.5t-105.5 -18h-136q-54 0 -105 18t-90 51.5t-62 80.5t-23 106v203q0 52 23 100t62 84.5t90 58t105 21.5h137zM133 266q1 -44 17 -77t46 -56t70.5 -34.5t90.5 -11.5
h71q102 0 158.5 43.5t57.5 135.5v171q-1 49 -16 86t-43 62t-68 38t-90 13h-78q-50 0 -90 -13t-68 -38t-43 -62.5t-15 -86.5v-170zM413 479q62 0 98.5 -36t36.5 -97v-93q0 -61 -36.5 -98t-98.5 -37h-28q-63 0 -99 37t-36 98v344h96v-123q10 2 21 3.5t24 1.5h22zM385 386
q-19 0 -29 -12t-10 -30v-93q1 -17 11 -27.5t28 -10.5h28q18 0 29.5 12t11.5 30v89q0 18 -11.5 30t-29.5 12h-28z" />
    <glyph glyph-name="uni24D2" unicode="&#x24d2;" 
d="M457 722q55 0 105.5 -21.5t89 -57.5t62 -83.5t23.5 -100.5v-204q0 -59 -23.5 -106t-62.5 -80.5t-89.5 -51.5t-105.5 -18h-136q-54 0 -105 18t-90 51.5t-62 80.5t-23 106v203q0 52 23 100t62 84.5t90 58t105 21.5h137zM133 266q1 -44 17 -77t46 -56t70.5 -34.5t90.5 -11.5
h71q102 0 158.5 43.5t57.5 135.5v171q-1 49 -16 86t-43 62t-68 38t-90 13h-78q-50 0 -90 -13t-68 -38t-43 -62.5t-15 -86.5v-170zM405 269q13 0 22.5 6.5t13.5 22.5h96q-7 -60 -41 -92t-91 -32h-27q-63 0 -99.5 37t-36.5 98v93q0 61 36.5 97t99.5 36h27q59 0 93 -31.5
t39 -92.5h-96q-6 31 -36 31h-27q-19 0 -31 -12t-12 -30v-89q0 -18 12 -30t31 -12h27z" />
    <glyph glyph-name="uni24D3" unicode="&#x24d3;" 
d="M457 722q55 0 105.5 -21.5t89 -57.5t62 -83.5t23.5 -100.5v-204q0 -59 -23.5 -106t-62.5 -80.5t-89.5 -51.5t-105.5 -18h-136q-54 0 -105 18t-90 51.5t-62 80.5t-23 106v203q0 52 23 100t62 84.5t90 58t105 21.5h137zM133 266q1 -44 17 -77t46 -56t70.5 -34.5t90.5 -11.5
h71q102 0 158.5 43.5t57.5 135.5v171q-1 49 -16 86t-43 62t-68 38t-90 13h-78q-50 0 -90 -13t-68 -38t-43 -62.5t-15 -86.5v-170zM366 118q-63 0 -98.5 37t-35.5 98v93q0 61 35.5 97t98.5 36h28q12 0 22.5 -1.5t21.5 -3.5v123h92v-479h-164zM438 213v131q0 18 -13 30t-31 12
h-28q-19 0 -31.5 -12t-12.5 -30v-89q0 -18 12.5 -30t31.5 -12h72z" />
    <glyph glyph-name="uni24D4" unicode="&#x24d4;" 
d="M457 722q55 0 105.5 -21.5t89 -57.5t62 -83.5t23.5 -100.5v-204q0 -59 -23.5 -106t-62.5 -80.5t-89.5 -51.5t-105.5 -18h-136q-54 0 -105 18t-90 51.5t-62 80.5t-23 106v203q0 52 23 100t62 84.5t90 58t105 21.5h137zM133 266q1 -44 17 -77t46 -56t70.5 -34.5t90.5 -11.5
h71q102 0 158.5 43.5t57.5 135.5v171q-1 49 -16 86t-43 62t-68 38t-90 13h-78q-50 0 -90 -13t-68 -38t-43 -62.5t-15 -86.5v-170zM227 413q0 26 10 50t27 41.5t38 28t44 10.5h77q28 0 50.5 -11.5t37.5 -30t23 -41t8 -44.5v-95h-220v-11q0 -21 12 -28.5t31 -7.5h165v-92h-184
q-24 0 -46 9.5t-38 26t-25.5 39.5t-9.5 50v106zM364 450q-18 0 -28.5 -14.5t-12.5 -34.5h125q-2 21 -13 35t-29 14h-42z" />
    <glyph glyph-name="uni24D5" unicode="&#x24d5;" 
d="M457 722q55 0 105.5 -21.5t89 -57.5t62 -83.5t23.5 -100.5v-204q0 -59 -23.5 -106t-62.5 -80.5t-89.5 -51.5t-105.5 -18h-136q-54 0 -105 18t-90 51.5t-62 80.5t-23 106v203q0 52 23 100t62 84.5t90 58t105 21.5h137zM133 266q1 -44 17 -77t46 -56t70.5 -34.5t90.5 -11.5
h71q102 0 158.5 43.5t57.5 135.5v171q-1 49 -16 86t-43 62t-68 38t-90 13h-78q-50 0 -90 -13t-68 -38t-43 -62.5t-15 -86.5v-170zM477 508h-32q-20 0 -32.5 -13t-12.5 -37h77v-93h-77v-247h-86v247h-62v93h62q0 64 34 101.5t97 37.5h32v-89z" />
    <glyph glyph-name="uni24D6" unicode="&#x24d6;" 
d="M457 722q55 0 105.5 -21.5t89 -57.5t62 -83.5t23.5 -100.5v-204q0 -59 -23.5 -106t-62.5 -80.5t-89.5 -51.5t-105.5 -18h-136q-54 0 -105 18t-90 51.5t-62 80.5t-23 106v203q0 52 23 100t62 84.5t90 58t105 21.5h137zM133 266q1 -44 17 -77t46 -56t70.5 -34.5t90.5 -11.5
h71q102 0 158.5 43.5t57.5 135.5v171q-1 49 -16 86t-43 62t-68 38t-90 13h-78q-50 0 -90 -13t-68 -38t-43 -62.5t-15 -86.5v-170zM536 591v-350q0 -59 -32.5 -92t-85.5 -33h-163v91h151q16 0 28.5 10.5t12.5 29.5v7h-93q-24 0 -45.5 8t-38 24.5t-25.5 41t-9 55.5v79
q0 31 9 55.5t25.5 40.5t38 24.5t45.5 8.5h182zM447 501h-77q-17 0 -29 -13.5t-12 -33.5v-61q0 -20 12 -34t29 -14h77v156z" />
    <glyph glyph-name="uni24D7" unicode="&#x24d7;" 
d="M457 722q55 0 105.5 -21.5t89 -57.5t62 -83.5t23.5 -100.5v-204q0 -59 -23.5 -106t-62.5 -80.5t-89.5 -51.5t-105.5 -18h-136q-54 0 -105 18t-90 51.5t-62 80.5t-23 106v203q0 52 23 100t62 84.5t90 58t105 21.5h137zM133 266q1 -44 17 -77t46 -56t70.5 -34.5t90.5 -11.5
h71q102 0 158.5 43.5t57.5 135.5v171q-1 49 -16 86t-43 62t-68 38t-90 13h-78q-50 0 -90 -13t-68 -38t-43 -62.5t-15 -86.5v-170zM381 387q-28 0 -38 -12.5t-11 -30.5v-226h-92v479h92v-123q17 5 38 5h40q32 0 56 -10.5t40 -28.5t24 -40t8 -46v-236h-91v220q0 21 -9 35
t-40 14h-17z" />
    <glyph glyph-name="uni24D8" unicode="&#x24d8;" 
d="M457 722q55 0 105.5 -21.5t89 -57.5t62 -83.5t23.5 -100.5v-204q0 -59 -23.5 -106t-62.5 -80.5t-89.5 -51.5t-105.5 -18h-136q-54 0 -105 18t-90 51.5t-62 80.5t-23 106v203q0 52 23 100t62 84.5t90 58t105 21.5h137zM133 266q1 -44 17 -77t46 -56t70.5 -34.5t90.5 -11.5
h71q102 0 158.5 43.5t57.5 135.5v171q-1 49 -16 86t-43 62t-68 38t-90 13h-78q-50 0 -90 -13t-68 -38t-43 -62.5t-15 -86.5v-170zM438 118h-96v361h96v-361zM438 502h-96v95h96v-95z" />
    <glyph glyph-name="uni24D9" unicode="&#x24d9;" 
d="M457 722q55 0 105.5 -21.5t89 -57.5t62 -83.5t23.5 -100.5v-204q0 -59 -23.5 -106t-62.5 -80.5t-89.5 -51.5t-105.5 -18h-136q-54 0 -105 18t-90 51.5t-62 80.5t-23 106v203q0 52 23 100t62 84.5t90 58t105 21.5h137zM133 266q1 -44 17 -77t46 -56t70.5 -34.5t90.5 -11.5
h71q102 0 158.5 43.5t57.5 135.5v171q-1 49 -16 86t-43 62t-68 38t-90 13h-78q-50 0 -90 -13t-68 -38t-43 -62.5t-15 -86.5v-170zM281 201h21q20 0 31.5 12.5t11.5 30.5v235h93v-232q0 -61 -32 -97.5t-104 -36.5h-21v88zM438 502h-96v95h96v-95z" />
    <glyph glyph-name="uni24DA" unicode="&#x24da;" 
d="M457 722q55 0 105.5 -21.5t89 -57.5t62 -83.5t23.5 -100.5v-204q0 -59 -23.5 -106t-62.5 -80.5t-89.5 -51.5t-105.5 -18h-136q-54 0 -105 18t-90 51.5t-62 80.5t-23 106v203q0 52 23 100t62 84.5t90 58t105 21.5h137zM133 266q1 -44 17 -77t46 -56t70.5 -34.5t90.5 -11.5
h71q102 0 158.5 43.5t57.5 135.5v171q-1 49 -16 86t-43 62t-68 38t-90 13h-78q-50 0 -90 -13t-68 -38t-43 -62.5t-15 -86.5v-170zM558 126h-109l-106 120v-120h-96v479h96v-216l99 98h114l-172 -167z" />
    <glyph glyph-name="uni24DB" unicode="&#x24db;" 
d="M457 722q55 0 105.5 -21.5t89 -57.5t62 -83.5t23.5 -100.5v-204q0 -59 -23.5 -106t-62.5 -80.5t-89.5 -51.5t-105.5 -18h-136q-54 0 -105 18t-90 51.5t-62 80.5t-23 106v203q0 52 23 100t62 84.5t90 58t105 21.5h137zM133 266q1 -44 17 -77t46 -56t70.5 -34.5t90.5 -11.5
h71q102 0 158.5 43.5t57.5 135.5v171q-1 49 -16 86t-43 62t-68 38t-90 13h-78q-50 0 -90 -13t-68 -38t-43 -62.5t-15 -86.5v-170zM438 118h-96v479h96v-479z" />
    <glyph glyph-name="uni24DC" unicode="&#x24dc;" 
d="M457 722q55 0 105.5 -21.5t89 -57.5t62 -83.5t23.5 -100.5v-204q0 -59 -23.5 -106t-62.5 -80.5t-89.5 -51.5t-105.5 -18h-136q-54 0 -105 18t-90 51.5t-62 80.5t-23 106v203q0 52 23 100t62 84.5t90 58t105 21.5h137zM133 266q1 -44 17 -77t46 -56t70.5 -34.5t90.5 -11.5
h71q102 0 158.5 43.5t57.5 135.5v171q-1 49 -16 86t-43 62t-68 38t-90 13h-78q-50 0 -90 -13t-68 -38t-43 -62.5t-15 -86.5v-170zM470 435q-20 0 -26 -14t-6 -35v-220h-96v220q0 21 -6 35t-25 14h-8q-20 0 -26.5 -14t-6.5 -35v-220h-96v361h96v-6q11 4 18 5t14 1h22
q18 0 35.5 -7.5t33.5 -20.5q16 14 32.5 21t37.5 7h27q30 0 51.5 -10.5t35.5 -28.5t21 -40t7 -46v-236h-95v220q0 21 -6.5 35t-25.5 14h-8z" />
    <glyph glyph-name="uni24DD" unicode="&#x24dd;" 
d="M457 722q55 0 105.5 -21.5t89 -57.5t62 -83.5t23.5 -100.5v-204q0 -59 -23.5 -106t-62.5 -80.5t-89.5 -51.5t-105.5 -18h-136q-54 0 -105 18t-90 51.5t-62 80.5t-23 106v203q0 52 23 100t62 84.5t90 58t105 21.5h137zM133 266q1 -44 17 -77t46 -56t70.5 -34.5t90.5 -11.5
h71q102 0 158.5 43.5t57.5 135.5v171q-1 49 -16 86t-43 62t-68 38t-90 13h-78q-50 0 -90 -13t-68 -38t-43 -62.5t-15 -86.5v-170zM386 435q-32 0 -41 -14t-9 -35v-220h-96v361h96v-5q10 3 20.5 4t21.5 1h36q32 0 56.5 -10.5t41 -28.5t25 -40t8.5 -46v-236h-96v220
q0 21 -8.5 35t-38.5 14h-16z" />
    <glyph glyph-name="uni24DE" unicode="&#x24de;" 
d="M457 722q55 0 105.5 -21.5t89 -57.5t62 -83.5t23.5 -100.5v-204q0 -59 -23.5 -106t-62.5 -80.5t-89.5 -51.5t-105.5 -18h-136q-54 0 -105 18t-90 51.5t-62 80.5t-23 106v203q0 52 23 100t62 84.5t90 58t105 21.5h137zM133 266q1 -44 17 -77t46 -56t70.5 -34.5t90.5 -11.5
h71q102 0 158.5 43.5t57.5 135.5v171q-1 49 -16 86t-43 62t-68 38t-90 13h-78q-50 0 -90 -13t-68 -38t-43 -62.5t-15 -86.5v-170zM405 543q63 0 99 -36t36 -97v-93q0 -61 -36 -98t-99 -37h-28q-63 0 -99 37t-36 98v93q0 61 36 97t99 36h28zM377 450q-18 0 -30 -12t-12 -30
v-89q0 -18 12 -30t30 -12h28q18 0 30 12t12 30v89q0 18 -12 30t-30 12h-28z" />
    <glyph glyph-name="uni24DF" unicode="&#x24df;" 
d="M457 722q55 0 105.5 -21.5t89 -57.5t62 -83.5t23.5 -100.5v-204q0 -59 -23.5 -106t-62.5 -80.5t-89.5 -51.5t-105.5 -18h-136q-54 0 -105 18t-90 51.5t-62 80.5t-23 106v203q0 52 23 100t62 84.5t90 58t105 21.5h137zM133 266q1 -44 17 -77t46 -56t70.5 -34.5t90.5 -11.5
h71q102 0 158.5 43.5t57.5 135.5v171q-1 49 -16 86t-43 62t-68 38t-90 13h-78q-50 0 -90 -13t-68 -38t-43 -62.5t-15 -86.5v-170zM421 599q62 0 98.5 -36t36.5 -97v-93q0 -61 -36.5 -98t-98.5 -37h-22q-24 0 -47 7v-124h-94v478h163zM352 506v-131q0 -18 11 -30t30 -12h28
q18 0 30 12t12 30v89q0 18 -12 30t-30 12h-69z" />
    <glyph glyph-name="uni24E0" unicode="&#x24e0;" 
d="M457 722q55 0 105.5 -21.5t89 -57.5t62 -83.5t23.5 -100.5v-204q0 -59 -23.5 -106t-62.5 -80.5t-89.5 -51.5t-105.5 -18h-136q-54 0 -105 18t-90 51.5t-62 80.5t-23 106v203q0 52 23 100t62 84.5t90 58t105 21.5h137zM133 266q1 -44 17 -77t46 -56t70.5 -34.5t90.5 -11.5
h71q102 0 158.5 43.5t57.5 135.5v171q-1 49 -16 86t-43 62t-68 38t-90 13h-78q-50 0 -90 -13t-68 -38t-43 -62.5t-15 -86.5v-170zM361 238q-63 0 -99 37t-36 98v93q0 61 36 97t99 36h163v-478h-94v124q-23 -7 -46 -7h-23zM389 333q18 0 29.5 12t11.5 30v131h-69
q-19 0 -31 -12t-12 -30v-89q0 -18 12 -30t31 -12h28z" />
    <glyph glyph-name="uni24E1" unicode="&#x24e1;" 
d="M457 722q55 0 105.5 -21.5t89 -57.5t62 -83.5t23.5 -100.5v-204q0 -59 -23.5 -106t-62.5 -80.5t-89.5 -51.5t-105.5 -18h-136q-54 0 -105 18t-90 51.5t-62 80.5t-23 106v203q0 52 23 100t62 84.5t90 58t105 21.5h137zM133 266q1 -44 17 -77t46 -56t70.5 -34.5t90.5 -11.5
h71q102 0 158.5 43.5t57.5 135.5v171q-1 49 -16 86t-43 62t-68 38t-90 13h-78q-50 0 -90 -13t-68 -38t-43 -62.5t-15 -86.5v-170zM368 472q24 24 61.5 37t76.5 13h16v-100h-16q-24 0 -48 -9.5t-44 -24t-33 -33t-13 -37.5v-152h-100v364h100v-58z" />
    <glyph glyph-name="uni24E2" unicode="&#x24e2;" 
d="M457 722q55 0 105.5 -21.5t89 -57.5t62 -83.5t23.5 -100.5v-204q0 -59 -23.5 -106t-62.5 -80.5t-89.5 -51.5t-105.5 -18h-136q-54 0 -105 18t-90 51.5t-62 80.5t-23 106v203q0 52 23 100t62 84.5t90 58t105 21.5h137zM133 266q1 -44 17 -77t46 -56t70.5 -34.5t90.5 -11.5
h71q102 0 158.5 43.5t57.5 135.5v171q-1 49 -16 86t-43 62t-68 38t-90 13h-78q-50 0 -90 -13t-68 -38t-43 -62.5t-15 -86.5v-170zM498 462h-143q-13 0 -19 -10t-6 -19q0 -11 6.5 -18.5t15.5 -7.5h75q27 0 46 -8.5t32 -24.5t19 -37.5t6 -46.5q0 -48 -29 -78t-74 -30h-172v84
h149q14 0 25 6.5t11 20.5q0 15 -11 22t-25 7h-61q-33 0 -53 10t-32 26t-16.5 36.5t-4.5 41.5q0 22 6.5 42t19.5 35.5t32 24.5t43 9h160v-85z" />
    <glyph glyph-name="uni24E3" unicode="&#x24e3;" 
d="M457 722q55 0 105.5 -21.5t89 -57.5t62 -83.5t23.5 -100.5v-204q0 -59 -23.5 -106t-62.5 -80.5t-89.5 -51.5t-105.5 -18h-136q-54 0 -105 18t-90 51.5t-62 80.5t-23 106v203q0 52 23 100t62 84.5t90 58t105 21.5h137zM133 266q1 -44 17 -77t46 -56t70.5 -34.5t90.5 -11.5
h71q102 0 158.5 43.5t57.5 135.5v171q-1 49 -16 86t-43 62t-68 38t-90 13h-78q-50 0 -90 -13t-68 -38t-43 -62.5t-15 -86.5v-170zM278 479h64v118h96v-118h64v-93h-64v-268h-96v268h-64v93z" />
    <glyph glyph-name="uni24E4" unicode="&#x24e4;" 
d="M457 722q55 0 105.5 -21.5t89 -57.5t62 -83.5t23.5 -100.5v-204q0 -59 -23.5 -106t-62.5 -80.5t-89.5 -51.5t-105.5 -18h-136q-54 0 -105 18t-90 51.5t-62 80.5t-23 106v203q0 52 23 100t62 84.5t90 58t105 21.5h137zM133 266q1 -44 17 -77t46 -56t70.5 -34.5t90.5 -11.5
h71q102 0 158.5 43.5t57.5 135.5v171q-1 49 -16 86t-43 62t-68 38t-90 13h-78q-50 0 -90 -13t-68 -38t-43 -62.5t-15 -86.5v-170zM401 268q29 0 39 13t10 31v223h95v-361h-95v7q-11 -3 -21.5 -5t-21.5 -2h-34q-33 0 -57 11t-40.5 29t-24.5 41t-8 46v234h95v-218q0 -21 9 -35
t39 -14h15z" />
    <glyph glyph-name="uni24E5" unicode="&#x24e5;" 
d="M457 722q55 0 105.5 -21.5t89 -57.5t62 -83.5t23.5 -100.5v-204q0 -59 -23.5 -106t-62.5 -80.5t-89.5 -51.5t-105.5 -18h-136q-54 0 -105 18t-90 51.5t-62 80.5t-23 106v203q0 52 23 100t62 84.5t90 58t105 21.5h137zM133 266q1 -44 17 -77t46 -56t70.5 -34.5t90.5 -11.5
h71q102 0 158.5 43.5t57.5 135.5v171q-1 49 -16 86t-43 62t-68 38t-90 13h-78q-50 0 -90 -13t-68 -38t-43 -62.5t-15 -86.5v-170zM434 174h-88l-110 361h93l60 -197q13 48 28 96t29 101h94z" />
    <glyph glyph-name="uni24E6" unicode="&#x24e6;" 
d="M457 722q55 0 105.5 -21.5t89 -57.5t62 -83.5t23.5 -100.5v-204q0 -59 -23.5 -106t-62.5 -80.5t-89.5 -51.5t-105.5 -18h-136q-54 0 -105 18t-90 51.5t-62 80.5t-23 106v203q0 52 23 100t62 84.5t90 58t105 21.5h137zM133 266q1 -44 17 -77t46 -56t70.5 -34.5t90.5 -11.5
h71q102 0 158.5 43.5t57.5 135.5v171q-1 49 -16 86t-43 62t-68 38t-90 13h-78q-50 0 -90 -13t-68 -38t-43 -62.5t-15 -86.5v-170zM538 174h-88l-60 197l-59 -197h-88l-85 361h92l42 -197q14 48 30 96t31 101h72l63 -195l39 195h92z" />
    <glyph glyph-name="uni24E7" unicode="&#x24e7;" 
d="M457 722q55 0 105.5 -21.5t89 -57.5t62 -83.5t23.5 -100.5v-204q0 -59 -23.5 -106t-62.5 -80.5t-89.5 -51.5t-105.5 -18h-136q-54 0 -105 18t-90 51.5t-62 80.5t-23 106v203q0 52 23 100t62 84.5t90 58t105 21.5h137zM133 266q1 -44 17 -77t46 -56t70.5 -34.5t90.5 -11.5
h71q102 0 158.5 43.5t57.5 135.5v171q-1 49 -16 86t-43 62t-68 38t-90 13h-78q-50 0 -90 -13t-68 -38t-43 -62.5t-15 -86.5v-170zM447 355l100 -181h-99l-55 108l-55 -108h-99l95 180l-95 181h99l55 -109l54 109h99z" />
    <glyph glyph-name="uni24E8" unicode="&#x24e8;" 
d="M457 722q55 0 105.5 -21.5t89 -57.5t62 -83.5t23.5 -100.5v-204q0 -59 -23.5 -106t-62.5 -80.5t-89.5 -51.5t-105.5 -18h-136q-54 0 -105 18t-90 51.5t-62 80.5t-23 106v203q0 52 23 100t62 84.5t90 58t105 21.5h137zM133 266q1 -44 17 -77t46 -56t70.5 -34.5t90.5 -11.5
h71q102 0 158.5 43.5t57.5 135.5v171q-1 49 -16 86t-43 62t-68 38t-90 13h-78q-50 0 -90 -13t-68 -38t-43 -62.5t-15 -86.5v-170zM402 113h-92l36 127l-106 351h93l59 -200l59 200h91z" />
    <glyph glyph-name="uni24E9" unicode="&#x24e9;" 
d="M457 722q55 0 105.5 -21.5t89 -57.5t62 -83.5t23.5 -100.5v-204q0 -59 -23.5 -106t-62.5 -80.5t-89.5 -51.5t-105.5 -18h-136q-54 0 -105 18t-90 51.5t-62 80.5t-23 106v203q0 52 23 100t62 84.5t90 58t105 21.5h137zM133 266q1 -44 17 -77t46 -56t70.5 -34.5t90.5 -11.5
h71q102 0 158.5 43.5t57.5 135.5v171q-1 49 -16 86t-43 62t-68 38t-90 13h-78q-50 0 -90 -13t-68 -38t-43 -62.5t-15 -86.5v-170zM516 451l-150 -182h150v-95h-268v85l149 183h-149v93h268v-84z" />
    <glyph glyph-name="uni2460" unicode="&#x2460;" 
d="M457 722q55 0 105.5 -21.5t89 -57.5t62 -83.5t23.5 -100.5v-204q0 -59 -23.5 -106t-62.5 -80.5t-89.5 -51.5t-105.5 -18h-136q-54 0 -105 18t-90 51.5t-62 80.5t-23 106v203q0 52 23 100t62 84.5t90 58t105 21.5h137zM133 266q1 -44 17 -77t46 -56t70.5 -34.5t90.5 -11.5
h71q102 0 158.5 43.5t57.5 135.5v171q-1 49 -16 86t-43 62t-68 38t-90 13h-78q-50 0 -90 -13t-68 -38t-43 -62.5t-15 -86.5v-170zM286 478l56 88h91v-412h-83v324h-64z" />
    <glyph glyph-name="uni2461" unicode="&#x2461;" 
d="M457 722q55 0 105.5 -21.5t89 -57.5t62 -83.5t23.5 -100.5v-204q0 -59 -23.5 -106t-62.5 -80.5t-89.5 -51.5t-105.5 -18h-136q-54 0 -105 18t-90 51.5t-62 80.5t-23 106v203q0 52 23 100t62 84.5t90 58t105 21.5h137zM133 266q1 -44 17 -77t46 -56t70.5 -34.5t90.5 -11.5
h71q102 0 158.5 43.5t57.5 135.5v171q-1 49 -16 86t-43 62t-68 38t-90 13h-78q-50 0 -90 -13t-68 -38t-43 -62.5t-15 -86.5v-170zM267 254q43 32 81.5 65.5t73.5 66.5q18 16 25 28t7 36q0 16 -11.5 28t-27.5 12h-33q-16 0 -28 -12t-12 -28v-22h-79v34q0 22 9 42.5t24 35.5
t35.5 24t43.5 9h51q23 0 43.5 -9t35.5 -24t24 -35.5t9 -42.5v-9q0 -19 -2 -34t-7 -28t-14 -26t-24 -27q-30 -28 -62 -56t-63 -52h164v-76h-263v100z" />
    <glyph glyph-name="uni2462" unicode="&#x2462;" 
d="M457 722q55 0 105.5 -21.5t89 -57.5t62 -83.5t23.5 -100.5v-204q0 -59 -23.5 -106t-62.5 -80.5t-89.5 -51.5t-105.5 -18h-136q-54 0 -105 18t-90 51.5t-62 80.5t-23 106v203q0 52 23 100t62 84.5t90 58t105 21.5h137zM133 266q1 -44 17 -77t46 -56t70.5 -34.5t90.5 -11.5
h71q102 0 158.5 43.5t57.5 135.5v171q-1 49 -16 86t-43 62t-68 38t-90 13h-78q-50 0 -90 -13t-68 -38t-43 -62.5t-15 -86.5v-170zM524 493q12 -31 5 -62t-31 -57q16 -17 26 -41t10 -51q0 -34 -18 -67t-51 -49q-24 -12 -47.5 -13t-47.5 -1q-29 0 -52.5 9t-39.5 24t-25 35.5
t-9 43.5v19h78q0 -10 1 -15t2 -7q2 -7 9 -12.5t15.5 -8.5t18.5 -4.5t18 -0.5q25 2 40 13t15 35q0 31 -20.5 43t-50.5 11h-29v75h29q9 0 22 1t23.5 5t18.5 12t8 22q0 10 -5.5 18t-14 12.5t-18.5 6.5t-20 2q-22 0 -42 -10.5t-20 -38.5h-78v20q0 28 11 48t29 34t41 21.5t47 7.5
q22 -1 46 -4t44 -11t36.5 -23.5t25.5 -41.5z" />
    <glyph glyph-name="uni2463" unicode="&#x2463;" 
d="M457 722q55 0 105.5 -21.5t89 -57.5t62 -83.5t23.5 -100.5v-204q0 -59 -23.5 -106t-62.5 -80.5t-89.5 -51.5t-105.5 -18h-136q-54 0 -105 18t-90 51.5t-62 80.5t-23 106v203q0 52 23 100t62 84.5t90 58t105 21.5h137zM133 266q1 -44 17 -77t46 -56t70.5 -34.5t90.5 -11.5
h71q102 0 158.5 43.5t57.5 135.5v171q-1 49 -16 86t-43 62t-68 38t-90 13h-78q-50 0 -90 -13t-68 -38t-43 -62.5t-15 -86.5v-170zM490 310h61v-76h-61v-80h-84v79h-178v70l131 263h131v-256zM406 310v161l-84 -161h84z" />
    <glyph glyph-name="uni2464" unicode="&#x2464;" 
d="M457 722q55 0 105.5 -21.5t89 -57.5t62 -83.5t23.5 -100.5v-204q0 -59 -23.5 -106t-62.5 -80.5t-89.5 -51.5t-105.5 -18h-136q-54 0 -105 18t-90 51.5t-62 80.5t-23 106v203q0 52 23 100t62 84.5t90 58t105 21.5h137zM133 266q1 -44 17 -77t46 -56t70.5 -34.5t90.5 -11.5
h71q102 0 158.5 43.5t57.5 135.5v171q-1 49 -16 86t-43 62t-68 38t-90 13h-78q-50 0 -90 -13t-68 -38t-43 -62.5t-15 -86.5v-170zM396 433q66 0 104.5 -37.5t38.5 -105.5t-36.5 -106t-109.5 -38q-66 0 -104.5 34t-38.5 110h81q0 -30 14 -46t45 -16q30 0 47 15.5t17 46.5
q0 33 -19 46.5t-47 13.5q-18 0 -30 -5t-24 -14h-76v233h261v-81h-172v-57q11 4 23.5 5.5t25.5 1.5z" />
    <glyph glyph-name="uni2465" unicode="&#x2465;" 
d="M457 722q55 0 105.5 -21.5t89 -57.5t62 -83.5t23.5 -100.5v-204q0 -59 -23.5 -106t-62.5 -80.5t-89.5 -51.5t-105.5 -18h-136q-54 0 -105 18t-90 51.5t-62 80.5t-23 106v203q0 52 23 100t62 84.5t90 58t105 21.5h137zM133 266q1 -44 17 -77t46 -56t70.5 -34.5t90.5 -11.5
h71q102 0 158.5 43.5t57.5 135.5v171q-1 49 -16 86t-43 62t-68 38t-90 13h-78q-50 0 -90 -13t-68 -38t-43 -62.5t-15 -86.5v-170zM368 152q-26 0 -48 9.5t-39 26.5t-26.5 39.5t-9.5 47.5v173q0 26 9.5 48t26.5 38.5t39 26t48 9.5h50q24 0 44 -8.5t36 -23.5t25.5 -35.5
t10.5 -44.5v-8h-88q-3 18 -9.5 27t-19.5 9h-49q-16 0 -26.5 -12t-10.5 -30v-32q9 2 18.5 4t18.5 2h45q25 0 47.5 -10t39 -26.5t26 -39.5t9.5 -48v-19q0 -25 -9.5 -47.5t-26 -39.5t-39 -26.5t-47.5 -9.5h-45zM331 278q2 -17 11.5 -29t25.5 -12h44q17 0 27 12.5t10 29.5v11
q0 18 -10 30.5t-27 12.5h-44q-16 0 -26.5 -12t-10.5 -31v-12z" />
    <glyph glyph-name="uni2466" unicode="&#x2466;" 
d="M457 722q55 0 105.5 -21.5t89 -57.5t62 -83.5t23.5 -100.5v-204q0 -59 -23.5 -106t-62.5 -80.5t-89.5 -51.5t-105.5 -18h-136q-54 0 -105 18t-90 51.5t-62 80.5t-23 106v203q0 52 23 100t62 84.5t90 58t105 21.5h137zM133 266q1 -44 17 -77t46 -56t70.5 -34.5t90.5 -11.5
h71q102 0 158.5 43.5t57.5 135.5v171q-1 49 -16 86t-43 62t-68 38t-90 13h-78q-50 0 -90 -13t-68 -38t-43 -62.5t-15 -86.5v-170zM246 562h284l-72 -408h-91l56 321h-87v-60h-90v147z" />
    <glyph glyph-name="uni2467" unicode="&#x2467;" 
d="M457 722q55 0 105.5 -21.5t89 -57.5t62 -83.5t23.5 -100.5v-204q0 -59 -23.5 -106t-62.5 -80.5t-89.5 -51.5t-105.5 -18h-136q-54 0 -105 18t-90 51.5t-62 80.5t-23 106v203q0 52 23 100t62 84.5t90 58t105 21.5h137zM133 266q1 -44 17 -77t46 -56t70.5 -34.5t90.5 -11.5
h71q102 0 158.5 43.5t57.5 135.5v171q-1 49 -16 86t-43 62t-68 38t-90 13h-78q-50 0 -90 -13t-68 -38t-43 -62.5t-15 -86.5v-170zM414 571q26 0 47 -8.5t36 -24.5t23 -38t8 -48v-17q0 -20 -6 -37.5t-16 -31.5q16 -13 24.5 -32.5t8.5 -43.5v-26q0 -24 -9 -45t-25 -35.5
t-37 -23t-45 -8.5h-59q-24 0 -45 8.5t-37 23t-25 35.5t-9 45v26q0 24 9 44t25 33q-21 31 -21 68v17q0 26 8 48t22.5 38t36 24.5t46.5 8.5h40zM457 279q0 17 -12.5 28t-29.5 11h-43q-17 0 -29.5 -11t-12.5 -28v-7q0 -17 12.5 -27t29.5 -10h43q17 0 29.5 10t12.5 27v7z
M443 448q0 18 -8 30t-24 12h-33q-17 0 -24.5 -12t-7.5 -30v-9q0 -17 6.5 -29t21.5 -14h37q16 0 24 13t8 30v9z" />
    <glyph glyph-name="uni2468" unicode="&#x2468;" 
d="M457 722q55 0 105.5 -21.5t89 -57.5t62 -83.5t23.5 -100.5v-204q0 -59 -23.5 -106t-62.5 -80.5t-89.5 -51.5t-105.5 -18h-136q-54 0 -105 18t-90 51.5t-62 80.5t-23 106v203q0 52 23 100t62 84.5t90 58t105 21.5h137zM133 266q1 -44 17 -77t46 -56t70.5 -34.5t90.5 -11.5
h71q102 0 158.5 43.5t57.5 135.5v171q-1 49 -16 86t-43 62t-68 38t-90 13h-78q-50 0 -90 -13t-68 -38t-43 -62.5t-15 -86.5v-170zM421 563q52 0 78 -33.5t26 -85.5v-51q0 -30 -10 -55l-35 -192h-83l25 128h-70q-52 0 -78 34t-26 85v51q0 52 26 85.5t78 33.5h69zM438 441
q0 17 -6 27t-21 10h-49q-16 0 -21.5 -10t-5.5 -27v-44q0 -17 5.5 -27.5t21.5 -10.5h49q15 0 21 10.5t6 27.5v44z" />
    <glyph glyph-name="uni2469" unicode="&#x2469;" 
d="M457 722q55 0 105.5 -21.5t89 -57.5t62 -83.5t23.5 -100.5v-204q0 -59 -23.5 -106t-62.5 -80.5t-89.5 -51.5t-105.5 -18h-136q-54 0 -105 18t-90 51.5t-62 80.5t-23 106v203q0 52 23 100t62 84.5t90 58t105 21.5h137zM133 266q1 -44 17 -77t46 -56t70.5 -34.5t90.5 -11.5
h71q102 0 158.5 43.5t57.5 135.5v171q-1 49 -16 86t-43 62t-68 38t-90 13h-78q-50 0 -90 -13t-68 -38t-43 -62.5t-15 -86.5v-170zM479 577q24 0 45 -9.5t37 -25t25 -36.5t9 -46v-198q0 -24 -9 -45t-25 -36.5t-37 -25t-45 -9.5h-27q-24 0 -45 9.5t-37 25t-25 36.5t-9 45v198
q0 25 9 46t25 36.5t37 25t45 9.5h27zM158 478l56 88h91v-412h-83v324h-64zM513 449q0 17 -12.5 29t-29.5 12h-11q-17 0 -29.5 -12t-12.5 -29v-174q0 -17 12.5 -29.5t29.5 -12.5h11q17 0 29.5 12.5t12.5 29.5v174z" />
    <glyph glyph-name="uni246A" unicode="&#x246a;" 
d="M457 722q55 0 105.5 -21.5t89 -57.5t62 -83.5t23.5 -100.5v-204q0 -59 -23.5 -106t-62.5 -80.5t-89.5 -51.5t-105.5 -18h-136q-54 0 -105 18t-90 51.5t-62 80.5t-23 106v203q0 52 23 100t62 84.5t90 58t105 21.5h137zM133 266q1 -44 17 -77t46 -56t70.5 -34.5t90.5 -11.5
h71q102 0 158.5 43.5t57.5 135.5v171q-1 49 -16 86t-43 62t-68 38t-90 13h-78q-50 0 -90 -13t-68 -38t-43 -62.5t-15 -86.5v-170zM406 478l56 88h91v-412h-83v324h-64zM190 478l56 88h91v-412h-83v324h-64z" />
    <glyph glyph-name="uni246B" unicode="&#x246b;" 
d="M457 722q55 0 105.5 -21.5t89 -57.5t62 -83.5t23.5 -100.5v-204q0 -59 -23.5 -106t-62.5 -80.5t-89.5 -51.5t-105.5 -18h-136q-54 0 -105 18t-90 51.5t-62 80.5t-23 106v203q0 52 23 100t62 84.5t90 58t105 21.5h137zM133 266q1 -44 17 -77t46 -56t70.5 -34.5t90.5 -11.5
h71q102 0 158.5 43.5t57.5 135.5v171q-1 49 -16 86t-43 62t-68 38t-90 13h-78q-50 0 -90 -13t-68 -38t-43 -62.5t-15 -86.5v-170zM323 254q43 32 81.5 65.5t73.5 66.5q18 16 25 28t7 36q0 16 -11.5 28t-27.5 12h-33q-16 0 -28 -12t-12 -28v-22h-79v34q0 22 9 42.5t24 35.5
t35.5 24t43.5 9h51q23 0 43.5 -9t35.5 -24t24 -35.5t9 -42.5v-9q0 -19 -2 -34t-7 -28t-14 -26t-24 -27q-30 -28 -62 -56t-63 -52h164v-76h-263v100zM158 478l56 88h91v-412h-83v324h-64z" />
    <glyph glyph-name="uni246C" unicode="&#x246c;" 
d="M457 722q55 0 105.5 -21.5t89 -57.5t62 -83.5t23.5 -100.5v-204q0 -59 -23.5 -106t-62.5 -80.5t-89.5 -51.5t-105.5 -18h-136q-54 0 -105 18t-90 51.5t-62 80.5t-23 106v203q0 52 23 100t62 84.5t90 58t105 21.5h137zM133 266q1 -44 17 -77t46 -56t70.5 -34.5t90.5 -11.5
h71q102 0 158.5 43.5t57.5 135.5v171q-1 49 -16 86t-43 62t-68 38t-90 13h-78q-50 0 -90 -13t-68 -38t-43 -62.5t-15 -86.5v-170zM596 493q11 -31 4.5 -62t-30.5 -57q16 -17 26 -41t10 -51q0 -34 -14 -67t-47 -49q-24 -12 -47.5 -13t-47.5 -1q-29 0 -52.5 9t-39.5 24
t-25 35.5t-9 43.5v19h78q0 -10 1 -15t2 -7q2 -7 9 -12.5t15.5 -8.5t18.5 -4.5t18 -0.5q25 2 40 13t15 35q0 31 -20.5 43t-50.5 11h-29v75h29q9 0 22 1t23.5 5t18.5 12t8 22q0 10 -5.5 18t-14 12.5t-18.5 6.5t-20 2q-22 0 -42 -10.5t-20 -38.5h-78v20q0 28 11 48t29 34
t41 21.5t47 7.5q22 0 44 -3.5t41.5 -12t34.5 -24t24 -40.5zM158 478l56 88h91v-412h-83v324h-64z" />
    <glyph glyph-name="uni246D" unicode="&#x246d;" 
d="M457 722q55 0 105.5 -21.5t89 -57.5t62 -83.5t23.5 -100.5v-204q0 -59 -23.5 -106t-62.5 -80.5t-89.5 -51.5t-105.5 -18h-136q-54 0 -105 18t-90 51.5t-62 80.5t-23 106v203q0 52 23 100t62 84.5t90 58t105 21.5h137zM133 266q1 -44 17 -77t46 -56t70.5 -34.5t90.5 -11.5
h71q102 0 158.5 43.5t57.5 135.5v171q-1 49 -16 86t-43 62t-68 38t-90 13h-78q-50 0 -90 -13t-68 -38t-43 -62.5t-15 -86.5v-170zM562 310h53v-76h-53v-80h-84v79h-162v70l131 263h115v-256zM158 478l56 88h91v-412h-83v324h-64zM478 310v145l-68 -145h68z" />
    <glyph glyph-name="uni246E" unicode="&#x246e;" 
d="M457 722q55 0 105.5 -21.5t89 -57.5t62 -83.5t23.5 -100.5v-204q0 -59 -23.5 -106t-62.5 -80.5t-89.5 -51.5t-105.5 -18h-136q-54 0 -105 18t-90 51.5t-62 80.5t-23 106v203q0 52 23 100t62 84.5t90 58t105 21.5h137zM133 266q1 -44 17 -77t46 -56t70.5 -34.5t90.5 -11.5
h71q102 0 158.5 43.5t57.5 135.5v171q-1 49 -16 86t-43 62t-68 38t-90 13h-78q-50 0 -90 -13t-68 -38t-43 -62.5t-15 -86.5v-170zM476 433q60 0 93.5 -37.5t33.5 -105.5q0 -30 -7.5 -56.5t-24 -45.5t-41 -30.5t-57.5 -11.5q-66 0 -104.5 34t-38.5 110h81q0 -30 14 -46
t45 -16q27 0 37.5 19t10.5 43q0 28 -12.5 44t-37.5 16q-18 0 -30 -5t-24 -14h-76v233h245v-81h-156v-57q11 4 23.5 5.5t25.5 1.5zM158 478l56 88h91v-412h-83v324h-64z" />
    <glyph glyph-name="onehalf" unicode="&#xbd;" horiz-adv-x="797" 
d="M14 572l67 106h108v-478h-100v372h-75zM593 703l-403 -726h-116l405 726h114zM442 118q50 38 95 77t83 75q20 17 29 31.5t9 40.5q0 18 -13 31t-31 13h-36q-19 0 -31.5 -13t-12.5 -31v-28h-96v41q0 27 10 51t28 42t42 28t51 10h58q27 0 51 -10t41.5 -28t28 -42t10.5 -51
v-9q0 -22 -2 -40t-8 -33.5t-16.5 -30.5t-28.5 -32q-33 -30 -67.5 -61t-70.5 -59h185v-90h-308v118z" />
    <glyph glyph-name="onethird" unicode="&#x2153;" horiz-adv-x="796" 
d="M626 486q28 -1 54 -11.5t46 -29t32.5 -44.5t12.5 -58q0 -51 -37 -89q18 -20 28.5 -47.5t10.5 -57.5q0 -36 -12.5 -64.5t-34.5 -47.5t-52.5 -29t-66.5 -10q-42 0 -74.5 10t-54 28t-32.5 41.5t-11 50.5v25h95q0 -13 0.5 -18.5t2.5 -9.5q3 -9 11 -14.5t17.5 -8.5t19.5 -4
t19 0q13 0 24.5 3.5t20.5 9.5t15 15.5t6 24.5q0 32 -23 44.5t-61 14.5h-36v91h36q10 0 24 1t26.5 5.5t21 13.5t8.5 24q0 12 -5.5 20.5t-14.5 13t-20.5 6.5t-23.5 2t-24.5 -2.5t-22 -8t-15.5 -14t-6 -20.5v-11h-95v25q0 32 13.5 56.5t34 41t47.5 24.5t55 8h20.5h12.5h8z
M14 572l67 106h108v-478h-100v372h-75zM593 703l-403 -726h-116l405 726h114z" />
    <glyph glyph-name="twothirds" unicode="&#x2154;" horiz-adv-x="899" 
d="M730 486q28 -1 54 -11.5t46 -29t32.5 -44.5t12.5 -58q0 -51 -37 -89q18 -20 28.5 -47.5t10.5 -57.5q0 -36 -12.5 -64.5t-34.5 -47.5t-52.5 -29t-66.5 -10q-42 0 -74.5 10t-54 28t-32.5 41.5t-11 50.5v25h95q0 -13 0.5 -18.5t2.5 -9.5q3 -9 11 -14.5t17.5 -8.5t19.5 -4
t19 0q13 0 24.5 3.5t20.5 9.5t15 15.5t6 24.5q0 32 -23 44.5t-61 14.5h-36v91h36q10 0 24 1t26.5 5.5t21 13.5t8.5 24q0 12 -5.5 20.5t-14.5 13t-20.5 6.5t-23.5 2t-24.5 -2.5t-22 -8t-15.5 -14t-6 -20.5v-11h-95v25q0 32 13.5 56.5t34 41t47.5 24.5t55 8h20.5h12.5h8z
M673 703l-323 -726h-116l325 726h114zM18 310q50 38 95 77t83 75q20 17 29 31.5t9 40.5q0 18 -13 31t-31 13h-36q-19 0 -31.5 -13t-12.5 -31v-28h-96v41q0 27 10 51t28 42t42 28t51 10h58q27 0 51 -10t41.5 -28t28 -42t10.5 -51v-9q0 -22 -2 -40t-8 -33.5t-16.5 -30.5
t-28.5 -32q-33 -30 -67.5 -61t-70.5 -59h185v-90h-308v118z" />
    <glyph glyph-name="onequarter" unicode="&#xbc;" horiz-adv-x="737" 
d="M654 183h70v-93h-70v-90h-100v90h-207v84l152 304h155v-295zM569 703l-371 -726h-116l373 726h114zM14 572l67 106h108v-478h-100v372h-75zM554 183v176l-91 -176h91z" />
    <glyph glyph-name="threequarters" unicode="&#xbe;" horiz-adv-x="860" 
d="M782 183h70v-93h-70v-90h-100v90h-207v84l152 304h155v-295zM206 678q28 -1 54 -11.5t46.5 -29t33 -44.5t12.5 -58q0 -51 -38 -89q19 -20 29.5 -47.5t10.5 -57.5q0 -36 -12.5 -64.5t-34.5 -47.5t-52.5 -29t-66.5 -10q-42 0 -74.5 10t-54 28t-32.5 41.5t-11 50.5v25h94
q0 -13 1 -18.5t3 -9.5q3 -9 11 -14.5t17.5 -8.5t19.5 -4t19 0q13 0 24.5 3.5t20.5 9.5t14.5 15.5t5.5 24.5q0 32 -22.5 44.5t-61.5 14.5h-35v91h35q11 0 25 1t26.5 5.5t21 13.5t8.5 24q0 12 -5.5 20.5t-14.5 13t-21 6.5t-23 2q-13 0 -25 -2.5t-22 -8t-16 -14t-6 -20.5v-11
h-94v25q0 32 13 56.5t34 41t48 24.5t55 8h20h12h8zM697 703l-371 -726h-116l373 726h114zM682 183v176l-91 -176h91z" />
    <glyph glyph-name="oneeighth" unicode="&#x215b;" 
d="M595 483q31 0 55.5 -10.5t42 -29t27 -44t9.5 -55.5v-20q0 -22 -7 -42t-18 -36q18 -16 28 -38.5t10 -50.5v-30q0 -28 -11 -52t-30 -41.5t-43.5 -27t-52.5 -9.5h-67q-28 0 -53.5 9.5t-44 27t-29 41.5t-10.5 52v30q0 28 10.5 50.5t28.5 39.5q-24 33 -24 77v20q0 30 9.5 55.5
t27 44t42 29t54.5 10.5h46zM537 703l-323 -726h-116l325 726h114zM14 572l67 106h108v-478h-100v372h-75zM641 145q0 18 -13.5 30.5t-31.5 12.5h-6h-5h-39q-19 0 -31.5 -12.5t-12.5 -30.5v-8q0 -19 12.5 -29.5t31.5 -10.5h50q18 0 31.5 10.5t13.5 29.5v8zM626 338
q0 20 -8 34t-26 14h-39q-19 0 -27 -14t-8 -34v-9q0 -19 8 -33t27 -14h42q16 2 23.5 15t7.5 32v9z" />
    <glyph glyph-name="threeeighths" unicode="&#x215c;" horiz-adv-x="875" 
d="M707 483q31 0 55.5 -10.5t42 -29t27 -44t9.5 -55.5v-20q0 -22 -7 -42t-18 -36q18 -16 28 -38.5t10 -50.5v-30q0 -28 -11 -52t-30 -41.5t-43.5 -27t-52.5 -9.5h-67q-28 0 -53.5 9.5t-44 27t-29 41.5t-10.5 52v30q0 28 10.5 50.5t28.5 39.5q-24 33 -24 77v20q0 30 9.5 55.5
t27 44t42 29t54.5 10.5h46zM206 678q28 -1 54 -11.5t46.5 -29t33 -44.5t12.5 -58q0 -51 -38 -89q19 -20 29.5 -47.5t10.5 -57.5q0 -36 -12.5 -64.5t-34.5 -47.5t-52.5 -29t-66.5 -10q-42 0 -74.5 10t-54 28t-32.5 41.5t-11 50.5v25h94q0 -13 1 -18.5t3 -9.5q3 -9 11 -14.5
t17.5 -8.5t19.5 -4t19 0q13 0 24.5 3.5t20.5 9.5t14.5 15.5t5.5 24.5q0 32 -22.5 44.5t-61.5 14.5h-35v91h35q11 0 25 1t26.5 5.5t21 13.5t8.5 24q0 12 -5.5 20.5t-14.5 13t-21 6.5t-23 2q-13 0 -25 -2.5t-22 -8t-16 -14t-6 -20.5v-11h-94v25q0 32 13 56.5t34 41t48 24.5
t55 8h20h12h8zM641 703l-291 -726h-116l293 726h114zM753 145q0 18 -13.5 30.5t-31.5 12.5h-6h-5h-39q-19 0 -31.5 -12.5t-12.5 -30.5v-8q0 -19 12.5 -29.5t31.5 -10.5h50q18 0 31.5 10.5t13.5 29.5v8zM738 338q0 20 -8 34t-26 14h-39q-19 0 -27 -14t-8 -34v-9q0 -19 8 -33
t27 -14h42q16 2 23.5 15t7.5 32v9z" />
    <glyph glyph-name="fiveeighths" unicode="&#x215d;" horiz-adv-x="855" 
d="M691 483q31 0 55.5 -10.5t42 -29t27 -44t9.5 -55.5v-20q0 -22 -7 -42t-18 -36q18 -16 28 -38.5t10 -50.5v-30q0 -28 -11 -52t-30 -41.5t-43.5 -27t-52.5 -9.5h-67q-28 0 -53.5 9.5t-44 27t-29 41.5t-10.5 52v30q0 28 10.5 50.5t28.5 39.5q-24 33 -24 77v20q0 30 9.5 55.5
t27 44t42 29t54.5 10.5h46zM181 526q77 0 121.5 -43.5t44.5 -124.5q0 -78 -42 -123t-128 -45q-38 0 -68.5 10t-52.5 31t-34 53t-12 77h99q0 -35 15 -53t50 -18q33 0 52 17t19 51q0 37 -21.5 52t-52.5 15q-23 0 -36 -6.5t-25 -15.5h-90v273h306v-98h-199v-60q12 4 26 6t28 2z
M625 703l-291 -726h-116l293 726h114zM737 145q0 18 -13.5 30.5t-31.5 12.5h-6h-5h-26h-6h-7q-19 0 -31.5 -12.5t-12.5 -30.5v-8q0 -19 12.5 -29.5t31.5 -10.5h50q18 0 31.5 10.5t13.5 29.5v8zM722 338q0 20 -8 34t-26 14h-39q-19 0 -27 -14t-8 -34v-9q0 -19 8 -33t27 -14
h39q18 0 26 14t8 33v9z" />
    <glyph glyph-name="seveneighths" unicode="&#x215e;" horiz-adv-x="825" 
d="M659 483q31 0 55.5 -10.5t42 -29t27 -44t9.5 -55.5v-20q0 -22 -7 -42t-18 -36q18 -16 28 -38.5t10 -50.5v-30q0 -28 -11 -52t-30 -41.5t-43.5 -27t-52.5 -9.5h-67q-28 0 -53.5 9.5t-44 27t-29 41.5t-10.5 52v30q0 28 10.5 50.5t28.5 39.5q-24 33 -24 77v20q0 30 9.5 55.5
t27 44t42 29t54.5 10.5h46zM593 703l-291 -726h-116l293 726h114zM16 674h330l-84 -474h-109l65 368h-95v-68h-107v174zM705 145q0 18 -13.5 30.5t-31.5 12.5h-6h-5h-26h-6h-7q-19 0 -31.5 -12.5t-12.5 -30.5v-8q0 -19 12.5 -29.5t31.5 -10.5h50q18 0 31.5 10.5t13.5 29.5v8
zM690 338q0 20 -8 34t-26 14h-39q-19 0 -27 -14t-8 -34v-9q0 -19 7.5 -32t23.5 -15h43q18 0 26 14t8 33v9z" />
    <glyph glyph-name="uni3200" unicode="&#x3200;" 
d="M224 734q-49 -88 -73 -180.5t-24 -187.5q0 -94 24 -186t73 -178h-101q-49 85 -74 177t-25 187q0 94 25 187t74 181h101zM645 734q49 -88 74 -181t25 -187q0 -95 -25 -187t-74 -177h-101q49 86 73 178t24 186q0 95 -24 187.5t-73 180.5h101zM439 418h-227v110h346v-110
l-44 -241h-116z" />
    <glyph glyph-name="uni3201" unicode="&#x3201;" 
d="M330 285h248v-108h-356v350h108v-242zM224 734q-49 -88 -73 -180.5t-24 -187.5q0 -94 24 -186t73 -178h-101q-49 85 -74 177t-25 187q0 94 25 187t74 181h101zM645 734q49 -88 74 -181t25 -187q0 -95 -25 -187t-74 -177h-101q49 86 73 178t24 186q0 95 -24 187.5
t-73 180.5h101z" />
    <glyph glyph-name="uni3202" unicode="&#x3202;" 
d="M550 271v-94h-324v351h324v-94h-210v-163h210zM224 734q-49 -88 -73 -180.5t-24 -187.5q0 -94 24 -186t73 -178h-101q-49 85 -74 177t-25 187q0 94 25 187t74 181h101zM645 734q49 -88 74 -181t25 -187q0 -95 -25 -187t-74 -177h-101q49 86 73 178t24 186q0 95 -24 187.5
t-73 180.5h101z" />
    <glyph glyph-name="uni3203" unicode="&#x3203;" 
d="M551 528v-215h-218v-43h218v-93h-327v218h218v41h-218v92h327zM224 734q-49 -88 -73 -180.5t-24 -187.5q0 -94 24 -186t73 -178h-101q-49 85 -74 177t-25 187q0 94 25 187t74 181h101zM645 734q49 -88 74 -181t25 -187q0 -95 -25 -187t-74 -177h-101q49 86 73 178t24 186
q0 95 -24 187.5t-73 180.5h101z" />
    <glyph glyph-name="uni3204" unicode="&#x3204;" 
d="M550 526v-349h-332v349h332zM442 434h-116v-164h116v164zM224 734q-49 -88 -73 -180.5t-24 -187.5q0 -94 24 -186t73 -178h-101q-49 85 -74 177t-25 187q0 94 25 187t74 181h101zM645 734q49 -88 74 -181t25 -187q0 -95 -25 -187t-74 -177h-101q49 86 73 178t24 186
q0 95 -24 187.5t-73 180.5h101z" />
    <glyph glyph-name="uni3205" unicode="&#x3205;" 
d="M556 177h-334v349h99v-102h135v102h100v-349zM645 734q49 -88 74 -181t25 -187q0 -95 -25 -187t-74 -177h-101q49 86 73 178t24 186q0 95 -24 187.5t-73 180.5h101zM224 734q-49 -88 -73 -180.5t-24 -187.5q0 -94 24 -186t73 -178h-101q-49 85 -74 177t-25 187
q0 94 25 187t74 181h101zM456 261v88h-135v-88h135z" />
    <glyph glyph-name="uni3206" unicode="&#x3206;" 
d="M558 177h-109l-59 269l-72 -269h-109l85 347h192zM224 734q-49 -88 -73 -180.5t-24 -187.5q0 -94 24 -186t73 -178h-101q-49 85 -74 177t-25 187q0 94 25 187t74 181h101zM645 734q49 -88 74 -181t25 -187q0 -95 -25 -187t-74 -177h-101q49 86 73 178t24 186
q0 95 -24 187.5t-73 180.5h101z" />
    <glyph glyph-name="uni3207" unicode="&#x3207;" 
d="M189 395q0 33 15.5 62.5t42.5 51.5t63.5 35t77.5 13t77.5 -13t63.5 -35t42.5 -51.5t15.5 -62.5v-65q0 -32 -15.5 -62t-42.5 -52t-63.5 -34.5t-77.5 -12.5t-77.5 12.5t-63.5 34.5t-42.5 52t-15.5 62v65zM304 345q0 -16 6.5 -29.5t18 -23.5t26.5 -16t33 -6t33 6t26 16
t18 23.5t7 29.5v36q0 15 -7 28.5t-18 24t-26 16t-33 5.5t-33 -5.5t-26.5 -16t-18 -24t-6.5 -28.5v-36zM224 734q-49 -88 -73 -180.5t-24 -187.5q0 -94 24 -186t73 -178h-101q-49 85 -74 177t-25 187q0 94 25 187t74 181h101zM645 734q49 -88 74 -181t25 -187q0 -95 -25 -187
t-74 -177h-101q49 86 73 178t24 186q0 95 -24 187.5t-73 180.5h101z" />
    <glyph glyph-name="uni3208" unicode="&#x3208;" 
d="M388 430h-168v106h328v-106l-76 -60l76 -56v-144l-162 132l-166 -132v136zM645 734q49 -88 74 -181t25 -187q0 -95 -25 -187t-74 -177h-101q49 86 73 178t24 186q0 95 -24 187.5t-73 180.5h101zM224 734q-49 -88 -73 -180.5t-24 -187.5q0 -94 24 -186t73 -178h-101
q-49 85 -74 177t-25 187q0 94 25 187t74 181h101z" />
    <glyph glyph-name="uni3209" unicode="&#x3209;" 
d="M442 507h140v-99l-96 -59l100 -64v-124l-195 129l-209 -129v124l199 123h-199v99h138v65h122v-65zM645 734q49 -88 74 -181t25 -187q0 -95 -25 -187t-74 -177h-101q49 86 73 178t24 186q0 95 -24 187.5t-73 180.5h101zM224 734q-49 -88 -73 -180.5t-24 -187.5
q0 -94 24 -186t73 -178h-101q-49 85 -74 177t-25 187q0 94 25 187t74 181h101z" />
    <glyph glyph-name="uni320A" unicode="&#x320a;" 
d="M546 161h-122l15 95h-240v94h255l12 67h-279v103h401v-102zM645 734q49 -88 74 -181t25 -187q0 -95 -25 -187t-74 -177h-101q49 86 73 178t24 186q0 95 -24 187.5t-73 180.5h101zM224 734q-49 -88 -73 -180.5t-24 -187.5q0 -94 24 -186t73 -178h-101q-49 85 -74 177
t-25 187q0 94 25 187t74 181h101z" />
    <glyph glyph-name="uni320B" unicode="&#x320b;" 
d="M538 263v-86h-308v349h308v-86h-201v-45h201v-86h-201v-46h201zM645 734q49 -88 74 -181t25 -187q0 -95 -25 -187t-74 -177h-101q49 86 73 178t24 186q0 95 -24 187.5t-73 180.5h101zM224 734q-49 -88 -73 -180.5t-24 -187.5q0 -94 24 -186t73 -178h-101q-49 85 -74 177
t-25 187q0 94 25 187t74 181h101z" />
    <glyph glyph-name="uni320C" unicode="&#x320c;" 
d="M247 269v166h-45v92h372v-92h-44v-166h44v-92h-372v92h45zM645 734q49 -88 74 -181t25 -187q0 -95 -25 -187t-74 -177h-101q49 86 73 178t24 186q0 95 -24 187.5t-73 180.5h101zM224 734q-49 -88 -73 -180.5t-24 -187.5q0 -94 24 -186t73 -178h-101q-49 85 -74 177
t-25 187q0 94 25 187t74 181h101zM348 269h82v166h-82v-166z" />
    <glyph glyph-name="uni320D" unicode="&#x320d;" 
d="M442 479h124v-82h-72q21 -16 33 -40.5t12 -54.5q0 -60 -40.5 -92.5t-107.5 -32.5t-107.5 32.5t-40.5 92.5q0 30 11.5 54.5t32.5 40.5h-70v82h125v55h100v-55zM645 734q49 -88 74 -181t25 -187q0 -95 -25 -187t-74 -177h-101q49 86 73 178t24 186q0 95 -24 187.5
t-73 180.5h101zM224 734q-49 -88 -73 -180.5t-24 -187.5q0 -94 24 -186t73 -178h-101q-49 85 -74 177t-25 187q0 94 25 187t74 181h101zM339 298q0 -21 14.5 -33.5t37.5 -12.5q24 0 38 12.5t14 33.5v8q0 21 -14 33.5t-38 12.5q-23 0 -37.5 -12.5t-14.5 -33.5v-8z" />
    <glyph glyph-name="uni320E" unicode="&#x320e;" 
d="M645 734q49 -88 74 -181t25 -187q0 -95 -25 -187t-74 -177h-101q49 86 73 178t24 186q0 95 -24 187.5t-73 180.5h101zM224 734q-49 -88 -73 -180.5t-24 -187.5q0 -94 24 -186t73 -178h-101q-49 85 -74 177t-25 187q0 94 25 187t74 181h101zM338 477h-143v79h234v-70
l-50 -347h-89zM554 410h42v-80h-42v-193h-86v421h86v-148z" />
    <glyph glyph-name="uni320F" unicode="&#x320f;" 
d="M645 734q49 -88 74 -181t25 -187q0 -95 -25 -187t-74 -177h-101q49 86 73 178t24 186q0 95 -24 187.5t-73 180.5h101zM224 734q-49 -88 -73 -180.5t-24 -187.5q0 -94 24 -186t73 -178h-101q-49 85 -74 177t-25 187q0 94 25 187t74 181h101zM451 220v-82h-241v418h88v-336
h153zM553 424h43v-78h-43v-209h-83v421h83v-134z" />
    <glyph glyph-name="uni3210" unicode="&#x3210;" 
d="M645 734q49 -88 74 -181t25 -187q0 -95 -25 -187t-74 -177h-101q49 86 73 178t24 186q0 95 -24 187.5t-73 180.5h101zM224 734q-49 -88 -73 -180.5t-24 -187.5q0 -94 24 -186t73 -178h-101q-49 85 -74 177t-25 187q0 94 25 187t74 181h101zM438 556v-78h-140v-260h142
v-80h-230v418h228zM596 424v-78h-43v-209h-83v421h83v-134h43z" />
    <glyph glyph-name="uni3211" unicode="&#x3211;" 
d="M645 734q49 -88 74 -181t25 -187q0 -95 -25 -187t-74 -177h-101q49 86 73 178t24 186q0 95 -24 187.5t-73 180.5h101zM224 734q-49 -88 -73 -180.5t-24 -187.5q0 -94 24 -186t73 -178h-101q-49 85 -74 177t-25 187q0 94 25 187t74 181h101zM430 556v-250h-139v-88h143
v-79h-224v251h138v86h-138v80h220zM553 399h43v-78h-43v-184h-83v421h83v-159z" />
    <glyph glyph-name="uni3212" unicode="&#x3212;" 
d="M210 138v418h230v-418h-230zM645 734q49 -88 74 -181t25 -187q0 -95 -25 -187t-74 -177h-101q49 86 73 178t24 186q0 95 -24 187.5t-73 180.5h101zM224 734q-49 -88 -73 -180.5t-24 -187.5q0 -94 24 -186t73 -178h-101q-49 85 -74 177t-25 187q0 94 25 187t74 181h101z
M470 137v421h83v-132h43v-80h-43v-209h-83zM297 219h55v257h-55v-257z" />
    <glyph glyph-name="uni3213" unicode="&#x3213;" 
d="M425 137h-220v419h81v-128h57v128h82v-419zM645 734q49 -88 74 -181t25 -187q0 -95 -25 -187t-74 -177h-101q49 86 73 178t24 186q0 95 -24 187.5t-73 180.5h101zM224 734q-49 -88 -73 -180.5t-24 -187.5q0 -94 24 -186t73 -178h-101q-49 85 -74 177t-25 187q0 94 25 187
t74 181h101zM470 137v421h83v-132h43v-80h-43v-209h-83zM286 218h57v123h-57v-123z" />
    <glyph glyph-name="uni3214" unicode="&#x3214;" 
d="M374 139l-48 218l-48 -218h-85l96 417h75l96 -417h-86zM553 432h43v-80h-43v-215h-80v421h80v-126zM224 734q-49 -88 -73 -180.5t-24 -187.5q0 -94 24 -186t73 -178h-101q-49 85 -74 177t-25 187q0 94 25 187t74 181h101zM645 734q49 -88 74 -181t25 -187q0 -95 -25 -187
t-74 -177h-101q49 86 73 178t24 186q0 95 -24 187.5t-73 180.5h101z" />
    <glyph glyph-name="uni3215" unicode="&#x3215;" 
d="M320 477q-14 0 -23.5 -9t-9.5 -22v-196q0 -13 9.5 -22t23.5 -9t23.5 9t9.5 22v196q0 13 -9.5 22t-23.5 9zM320 558q24 0 45 -9t36.5 -24t24.5 -35.5t9 -43.5v-196q0 -24 -9 -44.5t-24.5 -36t-36.5 -24t-45 -8.5t-45 8.5t-36.5 24t-24.5 36t-9 44.5v196q0 23 9 43.5
t24.5 35.5t36.5 24t45 9zM553 393h43v-81h-43v-175h-82v421h82v-165zM224 734q-49 -88 -73 -180.5t-24 -187.5q0 -94 24 -186t73 -178h-101q-49 85 -74 177t-25 187q0 94 25 187t74 181h101zM645 734q49 -88 74 -181t25 -187q0 -95 -25 -187t-74 -177h-101q49 86 73 178
t24 186q0 95 -24 187.5t-73 180.5h101z" />
    <glyph glyph-name="uni3216" unicode="&#x3216;" 
d="M596 344h-43v-207h-79v421h79v-136h43v-78zM369 361l74 -223h-89l-31 96l-34 -96h-91l120 337h-113v81h209v-71zM224 734q-49 -88 -73 -180.5t-24 -187.5q0 -94 24 -186t73 -178h-101q-49 85 -74 177t-25 187q0 94 25 187t74 181h101zM645 734q49 -88 74 -181t25 -187
q0 -95 -25 -187t-74 -177h-101q49 86 73 178t24 186q0 95 -24 187.5t-73 180.5h101z" />
    <glyph glyph-name="uni3217" unicode="&#x3217;" 
d="M363 539h71v-71l-52 -122l84 -208h-89l-41 100l-43 -100h-93l138 322h-128v79h72v34h81v-34zM596 344h-43v-207h-79v421h79v-136h43v-78zM224 734q-49 -88 -73 -180.5t-24 -187.5q0 -94 24 -186t73 -178h-101q-49 85 -74 177t-25 187q0 94 25 187t74 181h101zM645 734
q49 -88 74 -181t25 -187q0 -95 -25 -187t-74 -177h-101q49 86 73 178t24 186q0 95 -24 187.5t-73 180.5h101z" />
    <glyph glyph-name="uni3218" unicode="&#x3218;" 
d="M596 344h-43v-207h-79v421h79v-136h43v-78zM322 326h-126v79h138l10 72h-150v79h240v-70l-49 -347h-88zM224 734q-49 -88 -73 -180.5t-24 -187.5q0 -94 24 -186t73 -178h-101q-49 85 -74 177t-25 187q0 94 25 187t74 181h101zM645 734q49 -88 74 -181t25 -187
q0 -95 -25 -187t-74 -177h-101q49 86 73 178t24 186q0 95 -24 187.5t-73 180.5h101z" />
    <glyph glyph-name="uni3219" unicode="&#x3219;" 
d="M210 556h216v-80h-131v-84h125v-79h-125v-95h139v-79h-224v417zM596 344h-43v-207h-79v421h79v-136h43v-78zM224 734q-49 -88 -73 -180.5t-24 -187.5q0 -94 24 -186t73 -178h-101q-49 85 -74 177t-25 187q0 94 25 187t74 181h101zM645 734q49 -88 74 -181t25 -187
q0 -95 -25 -187t-74 -177h-101q49 86 73 178t24 186q0 95 -24 187.5t-73 180.5h101z" />
    <glyph glyph-name="uni321A" unicode="&#x321a;" 
d="M202 217h33v262h-33v77h261v-77h-34v-262h34v-78h-261v78zM645 734q49 -88 74 -181t25 -187q0 -95 -25 -187t-74 -177h-101q49 86 73 178t24 186q0 95 -24 187.5t-73 180.5h101zM224 734q-49 -88 -73 -180.5t-24 -187.5q0 -94 24 -186t73 -178h-101q-49 85 -74 177
t-25 187q0 94 25 187t74 181h101zM596 344h-43v-207h-79v421h79v-136h43v-78zM318 217h28v262h-28v-262z" />
    <glyph glyph-name="uni321B" unicode="&#x321b;" 
d="M342 454q20 0 37 -7.5t30 -20t21 -28.5t8 -36v-131q0 -19 -8 -35.5t-21 -29t-30 -20t-37 -7.5h-32q-20 0 -37 7.5t-30 20t-21 29t-8 35.5v131q0 20 8 36t21 28.5t30 20t37 7.5h32zM329 218q11 0 19 7t8 18v107q0 12 -8 18.5t-19 6.5h-5q-11 0 -19 -6.5t-8 -18.5v-107
q0 -11 8 -18t19 -7h5zM368 533h81v-76h-244v76h81v40h82v-40zM553 398h43v-80h-43v-181h-82v421h82v-160zM224 734q-49 -88 -73 -180.5t-24 -187.5q0 -94 24 -186t73 -178h-101q-49 85 -74 177t-25 187q0 94 25 187t74 181h101zM645 734q49 -88 74 -181t25 -187
q0 -95 -25 -187t-74 -177h-101q49 86 73 178t24 186q0 95 -24 187.5t-73 180.5h101z" />
    <glyph glyph-name="uni249C" unicode="&#x249c;" 
d="M240 418q2 27 10 49.5t24 39.5t40 26.5t56 9.5h40q32 0 56 -10.5t40 -28.5t24 -40.5t8 -45.5v-236h-200q-24 0 -43.5 9t-32 24t-19 35.5t-6.5 43.5q0 47 26 77.5t74 30.5h108q0 10 -1.5 19t-6.5 15.5t-14 10t-25 3.5h-17q-23 0 -33 -7t-15 -25h-93zM325 294
q0 -13 5 -19.5t11 -6.5h104v53h-104q-6 0 -11 -6.5t-5 -20.5zM224 734q-49 -88 -73 -180.5t-24 -187.5q0 -94 24 -186t73 -178h-101q-49 85 -74 177t-25 187q0 94 25 187t74 181h101zM645 734q49 -88 74 -181t25 -187q0 -95 -25 -187t-74 -177h-101q49 86 73 178t24 186
q0 95 -24 187.5t-73 180.5h101z" />
    <glyph glyph-name="uni249D" unicode="&#x249d;" 
d="M413 479q62 0 98.5 -36t36.5 -97v-93q0 -61 -36.5 -98t-98.5 -37h-28q-63 0 -99 37t-36 98v344h96v-123q10 2 21 3.5t24 1.5h22zM385 386q-19 0 -29 -12t-10 -30v-93q1 -17 11 -27.5t28 -10.5h28q18 0 29.5 12t11.5 30v89q0 18 -11.5 30t-29.5 12h-28zM224 734
q-49 -88 -73 -180.5t-24 -187.5q0 -94 24 -186t73 -178h-101q-49 85 -74 177t-25 187q0 94 25 187t74 181h101zM645 734q49 -88 74 -181t25 -187q0 -95 -25 -187t-74 -177h-101q49 86 73 178t24 186q0 95 -24 187.5t-73 180.5h101z" />
    <glyph glyph-name="uni249E" unicode="&#x249e;" 
d="M405 269q13 0 22.5 6.5t13.5 22.5h96q-7 -60 -41 -92t-91 -32h-27q-63 0 -99.5 37t-36.5 98v93q0 61 36.5 97t99.5 36h27q59 0 93 -31.5t39 -92.5h-96q-6 31 -36 31h-27q-19 0 -31 -12t-12 -30v-89q0 -18 12 -30t31 -12h27zM224 734q-49 -88 -73 -180.5t-24 -187.5
q0 -94 24 -186t73 -178h-101q-49 85 -74 177t-25 187q0 94 25 187t74 181h101zM645 734q49 -88 74 -181t25 -187q0 -95 -25 -187t-74 -177h-101q49 86 73 178t24 186q0 95 -24 187.5t-73 180.5h101z" />
    <glyph glyph-name="uni249F" unicode="&#x249f;" 
d="M366 118q-63 0 -98.5 37t-35.5 98v93q0 61 35.5 97t98.5 36h28q12 0 22.5 -1.5t21.5 -3.5v123h92v-479h-164zM438 213v131q0 18 -13 30t-31 12h-28q-19 0 -31.5 -12t-12.5 -30v-89q0 -18 12.5 -30t31.5 -12h72zM224 734q-49 -88 -73 -180.5t-24 -187.5q0 -94 24 -186
t73 -178h-101q-49 85 -74 177t-25 187q0 94 25 187t74 181h101zM645 734q49 -88 74 -181t25 -187q0 -95 -25 -187t-74 -177h-101q49 86 73 178t24 186q0 95 -24 187.5t-73 180.5h101z" />
    <glyph glyph-name="uni24A0" unicode="&#x24a0;" 
d="M227 413q0 26 10 50t27 41.5t38 28t44 10.5h77q28 0 50.5 -11.5t37.5 -30t23 -41t8 -44.5v-95h-220v-11q0 -21 12 -28.5t31 -7.5h165v-92h-184q-24 0 -46 9.5t-38 26t-25.5 39.5t-9.5 50v106zM364 450q-18 0 -28.5 -14.5t-12.5 -34.5h125q-2 21 -13 35t-29 14h-42z
M224 734q-49 -88 -73 -180.5t-24 -187.5q0 -94 24 -186t73 -178h-101q-49 85 -74 177t-25 187q0 94 25 187t74 181h101zM645 734q49 -88 74 -181t25 -187q0 -95 -25 -187t-74 -177h-101q49 86 73 178t24 186q0 95 -24 187.5t-73 180.5h101z" />
    <glyph glyph-name="uni24A1" unicode="&#x24a1;" 
d="M645 734q49 -88 74 -181t25 -187q0 -95 -25 -187t-74 -177h-101q49 86 73 178t24 186q0 95 -24 187.5t-73 180.5h101zM224 734q-49 -88 -73 -180.5t-24 -187.5q0 -94 24 -186t73 -178h-101q-49 85 -74 177t-25 187q0 94 25 187t74 181h101zM477 508h-32q-20 0 -32.5 -13
t-12.5 -37h77v-93h-77v-247h-86v247h-62v93h62q0 64 34 101.5t97 37.5h32v-89z" />
    <glyph glyph-name="uni24A2" unicode="&#x24a2;" 
d="M536 591v-350q0 -59 -32.5 -92t-85.5 -33h-163v91h151q16 0 28.5 10.5t12.5 29.5v7h-93q-24 0 -45.5 8t-38 24.5t-25.5 41t-9 55.5v79q0 31 9 55.5t25.5 40.5t38 24.5t45.5 8.5h182zM645 734q49 -88 74 -181t25 -187q0 -95 -25 -187t-74 -177h-101q49 86 73 178t24 186
q0 95 -24 187.5t-73 180.5h101zM224 734q-49 -88 -73 -180.5t-24 -187.5q0 -94 24 -186t73 -178h-101q-49 85 -74 177t-25 187q0 94 25 187t74 181h101zM447 501h-77q-17 0 -29 -13.5t-12 -33.5v-61q0 -20 12 -34t29 -14h77v156z" />
    <glyph glyph-name="uni24A3" unicode="&#x24a3;" 
d="M381 387q-28 0 -38 -12.5t-11 -30.5v-226h-92v479h92v-123q17 5 38 5h40q32 0 56 -10.5t40 -28.5t24 -40t8 -46v-236h-91v220q0 21 -9 35t-40 14h-17zM224 734q-49 -88 -73 -180.5t-24 -187.5q0 -94 24 -186t73 -178h-101q-49 85 -74 177t-25 187q0 94 25 187t74 181h101
zM645 734q49 -88 74 -181t25 -187q0 -95 -25 -187t-74 -177h-101q49 86 73 178t24 186q0 95 -24 187.5t-73 180.5h101z" />
    <glyph glyph-name="uni24A4" unicode="&#x24a4;" 
d="M438 118h-96v361h96v-361zM438 502h-96v95h96v-95zM224 734q-49 -88 -73 -180.5t-24 -187.5q0 -94 24 -186t73 -178h-101q-49 85 -74 177t-25 187q0 94 25 187t74 181h101zM645 734q49 -88 74 -181t25 -187q0 -95 -25 -187t-74 -177h-101q49 86 73 178t24 186
q0 95 -24 187.5t-73 180.5h101z" />
    <glyph glyph-name="uni24A5" unicode="&#x24a5;" 
d="M281 201h21q20 0 31.5 12.5t11.5 30.5v235h93v-232q0 -61 -32 -97.5t-104 -36.5h-21v88zM438 502h-96v95h96v-95zM224 734q-49 -88 -73 -180.5t-24 -187.5q0 -94 24 -186t73 -178h-101q-49 85 -74 177t-25 187q0 94 25 187t74 181h101zM645 734q49 -88 74 -181t25 -187
q0 -95 -25 -187t-74 -177h-101q49 86 73 178t24 186q0 95 -24 187.5t-73 180.5h101z" />
    <glyph glyph-name="uni24A6" unicode="&#x24a6;" 
d="M558 126h-109l-106 120v-120h-96v479h96v-216l99 98h114l-172 -167zM645 734q49 -88 74 -181t25 -187q0 -95 -25 -187t-74 -177h-101q49 86 73 178t24 186q0 95 -24 187.5t-73 180.5h101zM224 734q-49 -88 -73 -180.5t-24 -187.5q0 -94 24 -186t73 -178h-101
q-49 85 -74 177t-25 187q0 94 25 187t74 181h101z" />
    <glyph glyph-name="uni24A7" unicode="&#x24a7;" 
d="M438 118h-96v479h96v-479zM224 734q-49 -88 -73 -180.5t-24 -187.5q0 -94 24 -186t73 -178h-101q-49 85 -74 177t-25 187q0 94 25 187t74 181h101zM645 734q49 -88 74 -181t25 -187q0 -95 -25 -187t-74 -177h-101q49 86 73 178t24 186q0 95 -24 187.5t-73 180.5h101z" />
    <glyph glyph-name="uni24A8" unicode="&#x24a8;" 
d="M470 435q-20 0 -26 -14t-6 -35v-220h-96v220q0 21 -6 35t-25 14h-8q-20 0 -26.5 -14t-6.5 -35v-220h-96v361h96v-6q11 4 18 5t14 1h22q18 0 35.5 -7.5t33.5 -20.5q16 14 32.5 21t37.5 7h27q30 0 51.5 -10.5t35.5 -28.5t21 -40t7 -46v-236h-95v220q0 21 -6.5 35t-25.5 14
h-8zM645 734q49 -88 74 -181t25 -187q0 -95 -25 -187t-74 -177h-101q49 86 73 178t24 186q0 95 -24 187.5t-73 180.5h101zM224 734q-49 -88 -73 -180.5t-24 -187.5q0 -94 24 -186t73 -178h-101q-49 85 -74 177t-25 187q0 94 25 187t74 181h101z" />
    <glyph glyph-name="uni24A9" unicode="&#x24a9;" 
d="M386 435q-32 0 -41 -14t-9 -35v-220h-96v361h96v-5q10 3 20.5 4t21.5 1h36q32 0 56.5 -10.5t41 -28.5t25 -40t8.5 -46v-236h-96v220q0 21 -8.5 35t-38.5 14h-16zM224 734q-49 -88 -73 -180.5t-24 -187.5q0 -94 24 -186t73 -178h-101q-49 85 -74 177t-25 187q0 94 25 187
t74 181h101zM645 734q49 -88 74 -181t25 -187q0 -95 -25 -187t-74 -177h-101q49 86 73 178t24 186q0 95 -24 187.5t-73 180.5h101z" />
    <glyph glyph-name="uni24AA" unicode="&#x24aa;" 
d="M405 543q63 0 99 -36t36 -97v-93q0 -61 -36 -98t-99 -37h-28q-63 0 -99 37t-36 98v93q0 61 36 97t99 36h28zM377 450q-18 0 -30 -12t-12 -30v-89q0 -18 12 -30t30 -12h28q18 0 30 12t12 30v89q0 18 -12 30t-30 12h-28zM224 734q-49 -88 -73 -180.5t-24 -187.5
q0 -94 24 -186t73 -178h-101q-49 85 -74 177t-25 187q0 94 25 187t74 181h101zM645 734q49 -88 74 -181t25 -187q0 -95 -25 -187t-74 -177h-101q49 86 73 178t24 186q0 95 -24 187.5t-73 180.5h101z" />
    <glyph glyph-name="uni24AB" unicode="&#x24ab;" 
d="M421 599q62 0 98.5 -36t36.5 -97v-93q0 -61 -36.5 -98t-98.5 -37h-22q-24 0 -47 7v-124h-94v478h163zM352 506v-131q0 -18 11 -30t30 -12h28q18 0 30 12t12 30v89q0 18 -12 30t-30 12h-69zM224 734q-49 -88 -73 -180.5t-24 -187.5q0 -94 24 -186t73 -178h-101
q-49 85 -74 177t-25 187q0 94 25 187t74 181h101zM645 734q49 -88 74 -181t25 -187q0 -95 -25 -187t-74 -177h-101q49 86 73 178t24 186q0 95 -24 187.5t-73 180.5h101z" />
    <glyph glyph-name="uni24AC" unicode="&#x24ac;" 
d="M361 238q-63 0 -99 37t-36 98v93q0 61 36 97t99 36h163v-478h-94v124q-23 -7 -46 -7h-23zM389 333q18 0 29.5 12t11.5 30v131h-69q-19 0 -31 -12t-12 -30v-89q0 -18 12 -30t31 -12h28zM224 734q-49 -88 -73 -180.5t-24 -187.5q0 -94 24 -186t73 -178h-101q-49 85 -74 177
t-25 187q0 94 25 187t74 181h101zM645 734q49 -88 74 -181t25 -187q0 -95 -25 -187t-74 -177h-101q49 86 73 178t24 186q0 95 -24 187.5t-73 180.5h101z" />
    <glyph glyph-name="uni24AD" unicode="&#x24ad;" 
d="M368 472q24 24 61.5 37t76.5 13h16v-100h-16q-24 0 -48 -9.5t-44 -24t-33 -33t-13 -37.5v-152h-100v364h100v-58zM224 734q-49 -88 -73 -180.5t-24 -187.5q0 -94 24 -186t73 -178h-101q-49 85 -74 177t-25 187q0 94 25 187t74 181h101zM645 734q49 -88 74 -181t25 -187
q0 -95 -25 -187t-74 -177h-101q49 86 73 178t24 186q0 95 -24 187.5t-73 180.5h101z" />
    <glyph glyph-name="uni24AE" unicode="&#x24ae;" 
d="M498 462h-143q-13 0 -19 -10t-6 -19q0 -11 6.5 -18.5t15.5 -7.5h75q27 0 46 -8.5t32 -24.5t19 -37.5t6 -46.5q0 -48 -29 -78t-74 -30h-172v84h149q14 0 25 6.5t11 20.5q0 15 -11 22t-25 7h-61q-33 0 -53 10t-32 26t-16.5 36.5t-4.5 41.5q0 22 6.5 42t19.5 35.5t32 24.5
t43 9h160v-85zM224 734q-49 -88 -73 -180.5t-24 -187.5q0 -94 24 -186t73 -178h-101q-49 85 -74 177t-25 187q0 94 25 187t74 181h101zM645 734q49 -88 74 -181t25 -187q0 -95 -25 -187t-74 -177h-101q49 86 73 178t24 186q0 95 -24 187.5t-73 180.5h101z" />
    <glyph glyph-name="uni24AF" unicode="&#x24af;" 
d="M278 479h64v118h96v-118h64v-93h-64v-268h-96v268h-64v93zM224 734q-49 -88 -73 -180.5t-24 -187.5q0 -94 24 -186t73 -178h-101q-49 85 -74 177t-25 187q0 94 25 187t74 181h101zM645 734q49 -88 74 -181t25 -187q0 -95 -25 -187t-74 -177h-101q49 86 73 178t24 186
q0 95 -24 187.5t-73 180.5h101z" />
    <glyph glyph-name="uni24B0" unicode="&#x24b0;" 
d="M401 268q29 0 39 13t10 31v223h95v-361h-95v7q-11 -3 -21.5 -5t-21.5 -2h-34q-33 0 -57 11t-40.5 29t-24.5 41t-8 46v234h95v-218q0 -21 9 -35t39 -14h15zM224 734q-49 -88 -73 -180.5t-24 -187.5q0 -94 24 -186t73 -178h-101q-49 85 -74 177t-25 187q0 94 25 187t74 181
h101zM645 734q49 -88 74 -181t25 -187q0 -95 -25 -187t-74 -177h-101q49 86 73 178t24 186q0 95 -24 187.5t-73 180.5h101z" />
    <glyph glyph-name="uni24B1" unicode="&#x24b1;" 
d="M434 174h-88l-110 361h93l60 -197q13 48 28 96t29 101h94zM224 734q-49 -88 -73 -180.5t-24 -187.5q0 -94 24 -186t73 -178h-101q-49 85 -74 177t-25 187q0 94 25 187t74 181h101zM645 734q49 -88 74 -181t25 -187q0 -95 -25 -187t-74 -177h-101q49 86 73 178t24 186
q0 95 -24 187.5t-73 180.5h101z" />
    <glyph glyph-name="uni24B2" unicode="&#x24b2;" 
d="M534 174h-88l-60 197l-59 -197h-88l-85 361h92l42 -197q14 48 30 96t31 101h72l63 -195l39 195h92zM224 734q-49 -88 -73 -180.5t-24 -187.5q0 -94 24 -186t73 -178h-101q-49 85 -74 177t-25 187q0 94 25 187t74 181h101zM645 734q49 -88 74 -181t25 -187q0 -95 -25 -187
t-74 -177h-101q49 86 73 178t24 186q0 95 -24 187.5t-73 180.5h101z" />
    <glyph glyph-name="uni24B3" unicode="&#x24b3;" 
d="M447 355l100 -181h-99l-55 108l-55 -108h-99l95 180l-95 181h99l55 -109l54 109h99zM224 734q-49 -88 -73 -180.5t-24 -187.5q0 -94 24 -186t73 -178h-101q-49 85 -74 177t-25 187q0 94 25 187t74 181h101zM645 734q49 -88 74 -181t25 -187q0 -95 -25 -187t-74 -177h-101
q49 86 73 178t24 186q0 95 -24 187.5t-73 180.5h101z" />
    <glyph glyph-name="uni24B4" unicode="&#x24b4;" 
d="M645 734q49 -88 74 -181t25 -187q0 -95 -25 -187t-74 -177h-101q49 86 73 178t24 186q0 95 -24 187.5t-73 180.5h101zM224 734q-49 -88 -73 -180.5t-24 -187.5q0 -94 24 -186t73 -178h-101q-49 85 -74 177t-25 187q0 94 25 187t74 181h101zM402 113h-92l36 127l-106 351
h93l59 -200l59 200h91z" />
    <glyph glyph-name="uni24B5" unicode="&#x24b5;" 
d="M516 451l-150 -182h150v-95h-268v85l149 183h-149v93h268v-84zM224 734q-49 -88 -73 -180.5t-24 -187.5q0 -94 24 -186t73 -178h-101q-49 85 -74 177t-25 187q0 94 25 187t74 181h101zM645 734q49 -88 74 -181t25 -187q0 -95 -25 -187t-74 -177h-101q49 86 73 178t24 186
q0 95 -24 187.5t-73 180.5h101z" />
    <glyph glyph-name="uni2474" unicode="&#x2474;" 
d="M286 478l56 88h91v-412h-83v324h-64zM224 734q-49 -88 -73 -180.5t-24 -187.5q0 -94 24 -186t73 -178h-101q-49 85 -74 177t-25 187q0 94 25 187t74 181h101zM645 734q49 -88 74 -181t25 -187q0 -95 -25 -187t-74 -177h-101q49 86 73 178t24 186q0 95 -24 187.5
t-73 180.5h101z" />
    <glyph glyph-name="uni2475" unicode="&#x2475;" 
d="M267 254q43 32 81.5 65.5t73.5 66.5q18 16 25 28t7 36q0 16 -11.5 28t-27.5 12h-33q-16 0 -28 -12t-12 -28v-22h-79v34q0 22 9 42.5t24 35.5t35.5 24t43.5 9h51q23 0 43.5 -9t35.5 -24t24 -35.5t9 -42.5v-9q0 -19 -2 -34t-7 -28t-14 -26t-24 -27q-30 -28 -62 -56t-63 -52
h164v-76h-263v100zM224 734q-49 -88 -73 -180.5t-24 -187.5q0 -94 24 -186t73 -178h-101q-49 85 -74 177t-25 187q0 94 25 187t74 181h101zM645 734q49 -88 74 -181t25 -187q0 -95 -25 -187t-74 -177h-101q49 86 73 178t24 186q0 95 -24 187.5t-73 180.5h101z" />
    <glyph glyph-name="uni2476" unicode="&#x2476;" 
d="M524 493q12 -31 5 -62t-31 -57q16 -17 26 -41t10 -51q0 -34 -18 -67t-51 -49q-24 -12 -47.5 -13t-47.5 -1q-29 0 -52.5 9t-39.5 24t-25 35.5t-9 43.5v19h78q0 -10 1 -15t2 -7q2 -7 9 -12.5t15.5 -8.5t18.5 -4.5t18 -0.5q25 2 40 13t15 35q0 31 -20.5 43t-50.5 11h-29v75
h29q9 0 22 1t23.5 5t18.5 12t8 22q0 10 -5.5 18t-14 12.5t-18.5 6.5t-20 2q-22 0 -42 -10.5t-20 -38.5h-78v20q0 28 11 48t29 34t41 21.5t47 7.5q22 -1 46 -4t44 -11t36.5 -23.5t25.5 -41.5zM224 734q-49 -88 -73 -180.5t-24 -187.5q0 -94 24 -186t73 -178h-101
q-49 85 -74 177t-25 187q0 94 25 187t74 181h101zM645 734q49 -88 74 -181t25 -187q0 -95 -25 -187t-74 -177h-101q49 86 73 178t24 186q0 95 -24 187.5t-73 180.5h101z" />
    <glyph glyph-name="uni2477" unicode="&#x2477;" 
d="M490 310h61v-76h-61v-80h-84v79h-178v70l131 263h131v-256zM406 310v161l-84 -161h84zM224 734q-49 -88 -73 -180.5t-24 -187.5q0 -94 24 -186t73 -178h-101q-49 85 -74 177t-25 187q0 94 25 187t74 181h101zM645 734q49 -88 74 -181t25 -187q0 -95 -25 -187t-74 -177
h-101q49 86 73 178t24 186q0 95 -24 187.5t-73 180.5h101z" />
    <glyph glyph-name="uni2478" unicode="&#x2478;" 
d="M396 433q66 0 104.5 -37.5t38.5 -105.5t-36.5 -106t-109.5 -38q-66 0 -104.5 34t-38.5 110h81q0 -30 14 -46t45 -16q30 0 47 15.5t17 46.5q0 33 -19 46.5t-47 13.5q-18 0 -30 -5t-24 -14h-76v233h261v-81h-172v-57q11 4 23.5 5.5t25.5 1.5zM224 734q-49 -88 -73 -180.5
t-24 -187.5q0 -94 24 -186t73 -178h-101q-49 85 -74 177t-25 187q0 94 25 187t74 181h101zM645 734q49 -88 74 -181t25 -187q0 -95 -25 -187t-74 -177h-101q49 86 73 178t24 186q0 95 -24 187.5t-73 180.5h101z" />
    <glyph glyph-name="uni2479" unicode="&#x2479;" 
d="M368 152q-26 0 -48 9.5t-39 26.5t-26.5 39.5t-9.5 47.5v173q0 26 9.5 48t26.5 38.5t39 26t48 9.5h50q24 0 44 -8.5t36 -23.5t25.5 -35.5t10.5 -44.5v-8h-88q-3 18 -9.5 27t-19.5 9h-49q-16 0 -26.5 -12t-10.5 -30v-32q9 2 18.5 4t18.5 2h45q25 0 47.5 -10t39 -26.5
t26 -39.5t9.5 -48v-19q0 -25 -9.5 -47.5t-26 -39.5t-39 -26.5t-47.5 -9.5h-45zM331 278q2 -17 11.5 -29t25.5 -12h44q17 0 27 12.5t10 29.5v11q0 18 -10 30.5t-27 12.5h-44q-16 0 -26.5 -12t-10.5 -31v-12zM224 734q-49 -88 -73 -180.5t-24 -187.5q0 -94 24 -186t73 -178
h-101q-49 85 -74 177t-25 187q0 94 25 187t74 181h101zM645 734q49 -88 74 -181t25 -187q0 -95 -25 -187t-74 -177h-101q49 86 73 178t24 186q0 95 -24 187.5t-73 180.5h101z" />
    <glyph glyph-name="uni247A" unicode="&#x247a;" 
d="M246 562h284l-72 -408h-91l56 321h-87v-60h-90v147zM224 734q-49 -88 -73 -180.5t-24 -187.5q0 -94 24 -186t73 -178h-101q-49 85 -74 177t-25 187q0 94 25 187t74 181h101zM645 734q49 -88 74 -181t25 -187q0 -95 -25 -187t-74 -177h-101q49 86 73 178t24 186
q0 95 -24 187.5t-73 180.5h101z" />
    </font>
</defs>
</svg>
