<?xml version="1.0" standalone="no"?>
<!DOCTYPE svg PUBLIC "-//W3C//DTD SVG 1.1//EN" "http://www.w3.org/Graphics/SVG/1.1/DTD/svg11.dtd" >
<svg xmlns="http://www.w3.org/2000/svg" xmlns:xlink="http://www.w3.org/1999/xlink" version="1.1">
<metadata>
Created by FontForge 20170924 at Wed Jan 13 20:41:24 2016
 By Glenn,,,
Copyright (c) 2013 - 2016, Sorkin Type Co (www.sorkintype.com) with Reserved Font Name 'Atomic Age'.
</metadata>
<defs>
<font id="AtomicAge-Regular" horiz-adv-x="1275" >
  <font-face
    font-family="Atomic Age"
    font-weight="400"
    font-stretch="normal"
    units-per-em="2048"
    panose-1="2 1 6 4 1 2 0 4 0 4"
    ascent="1638"
    descent="-410"
    x-height="1047"
    cap-height="1516"
    bbox="-552 -656 2685 2091"
    underline-thickness="96"
    underline-position="-205"
    unicode-range="U+0009-FEFF"
  />
<missing-glyph horiz-adv-x="2027"
d="M-40 1636h1715v-1826h-1715v1826zM461 160l354 359l356 -359l189 193l-359 354l357 351l-187 190l-354 -356l-352 357l-188 -192l355 -352l-357 -354z" />
    <glyph glyph-name="f_f" unicode="ff" horiz-adv-x="1524"
d="M496 -269q0 -53 -16 -99.5t-43.5 -81t-64.5 -55t-78 -20.5h-36v1419h-80v154h80v288q0 53 15 99.5t40.5 81t60.5 54.5t74 20h382v-174h-334v-369h524v288q0 53 15 99.5t40.5 81t60.5 54.5t74 20h382v-174h-334v-369h250v-154h-250v-1163q0 -53 -16 -99.5t-43.5 -81
t-64.5 -55t-78 -20.5h-36v1419h-524v-1163v0z" />
    <glyph glyph-name="fi" unicode="fi" horiz-adv-x="1452"
d="M496 -269q0 -53 -16 -99.5t-43.5 -81t-64.5 -55t-78 -20.5h-36v1419h-80v154h80v288q0 53 15 99.5t40.5 81t60.5 54.5t74 20h342v-174h-294v-369h250v-154h-250v-1163zM1137 1289q-35 0 -65.5 13t-53.5 36t-36 53.5t-13 65.5t13 65.5t36 53.5t53.5 36.5t65.5 13.5
t65.5 -13.5t53.5 -36.5t36.5 -53.5t13.5 -65.5t-13.5 -65.5t-36.5 -53.5t-54 -36t-65 -13zM1020 1047h239v-876h214q-3 -35 -18.5 -66.5t-39 -54.5t-53.5 -36.5t-63 -13.5h-88q-39 0 -74 20t-61 54.5t-41 80.5t-15 99v793z" />
    <glyph glyph-name="fl" unicode="fl" horiz-adv-x="1453"
d="M1021 1591h239v-1420h213q-6 -40 -22.5 -72t-40 -54t-53 -33.5t-61.5 -11.5h-84q-39 0 -74 20t-61 54.5t-41 80.5t-15 99v1337zM496 -269q0 -53 -16 -99.5t-43.5 -81t-64.5 -55t-78 -20.5h-36v1419h-80v154h80v288q0 53 15 99.5t40.5 81t60.5 54.5t74 20h342v-174h-294
v-369h250v-154h-250v-1163z" />
    <glyph glyph-name="f_f_l" unicode="ffl" horiz-adv-x="2116"
d="M496 -269q0 -53 -16 -99.5t-43.5 -81t-64.5 -55t-78 -20.5h-36v1419h-80v154h80v288q0 53 15 99.5t40.5 81t60.5 54.5t74 20h382v-174h-334v-369h524v288q0 53 15 99.5t40.5 81t60.5 54.5t74 20h725v-1420h213q-6 -40 -22.5 -72t-40 -54t-53 -33.5t-61.5 -11.5h-84
q-39 0 -74 20t-61 54.5t-41 80.5t-15 99v1163h-438v-369h250v-154h-250v-1163q0 -53 -16 -99.5t-43.5 -81t-64.5 -55t-78 -20.5h-36v1419h-524v-1163v0z" />
    <glyph glyph-name="f_f_i" unicode="ffi" horiz-adv-x="2136"
d="M496 -269q0 -53 -16 -99.5t-43.5 -81t-64.5 -55t-78 -20.5h-36v1419h-80v154h80v288q0 53 15 99.5t40.5 81t60.5 54.5t74 20h382v-174h-334v-369h524v288q0 53 15 99.5t40.5 81t60.5 54.5t74 20h332v-174h-284v-369h250v-154h-250v-1163q0 -53 -16 -99.5t-43.5 -81
t-64.5 -55t-78 -20.5h-36v1419h-524v-1163zM1821 1289q-35 0 -65.5 13t-53.5 36t-36 53.5t-13 65.5t13 65.5t36 53.5t53.5 36.5t65.5 13.5t65.5 -13.5t53.5 -36.5t36.5 -53.5t13.5 -65.5t-13.5 -65.5t-36.5 -53.5t-54 -36t-65 -13zM1704 1047h239v-876h214
q-3 -35 -18.5 -66.5t-39 -54.5t-53.5 -36.5t-63 -13.5h-88q-39 0 -74 20t-61 54.5t-41 80.5t-15 99v793z" />
    <glyph glyph-name="f_i_trk" unicode="fitrk" horiz-adv-x="1452"
d="M496 -269q0 -53 -16 -99.5t-43.5 -81t-64.5 -55t-78 -20.5h-36v1419h-80v154h80v288q0 53 15 99.5t40.5 81t60.5 54.5t74 20h342v-174h-294v-369h250v-154h-250v-1163zM1137 1289q-35 0 -65.5 13t-53.5 36t-36 53.5t-13 65.5t13 65.5t36 53.5t53.5 36.5t65.5 13.5
t65.5 -13.5t53.5 -36.5t36.5 -53.5t13.5 -65.5t-13.5 -65.5t-36.5 -53.5t-54 -36t-65 -13zM1020 1047h239v-876h214q-3 -35 -18.5 -66.5t-39 -54.5t-53.5 -36.5t-63 -13.5h-88q-39 0 -74 20t-61 54.5t-41 80.5t-15 99v793z" />
    <glyph glyph-name="f_f_i_trk" unicode="ffitrk" horiz-adv-x="2136"
d="M496 -269q0 -53 -16 -99.5t-43.5 -81t-64.5 -55t-78 -20.5h-36v1419h-80v154h80v288q0 53 15 99.5t40.5 81t60.5 54.5t74 20h382v-174h-334v-369h250v-154h-250v-1163v0zM1258 -269q0 -53 -16 -99.5t-43.5 -81t-64.5 -55t-78 -20.5h-36v1419h-80v154h80v288q0 53 15 99.5
t40.5 81t60.5 54.5t74 20h382v-174h-334v-369h250v-154h-250v-1163v0zM1821 1289q-35 0 -65.5 13t-53.5 36t-36 53.5t-13 65.5t13 65.5t36 53.5t53.5 36.5t65.5 13.5t65.5 -13.5t53.5 -36.5t36.5 -53.5t13.5 -65.5t-13.5 -65.5t-36.5 -53.5t-54 -36t-65 -13zM1704 1047h239
v-876h214q-3 -35 -18.5 -66.5t-39 -54.5t-53.5 -36.5t-63 -13.5h-88q-39 0 -74 20t-61 54.5t-41 80.5t-15 99v793z" />
    <glyph glyph-name=".notdef" horiz-adv-x="2027"
d="M-40 1636h1715v-1826h-1715v1826zM461 160l354 359l356 -359l189 193l-359 354l357 351l-187 190l-354 -356l-352 357l-188 -192l355 -352l-357 -354z" />
    <glyph glyph-name="space" unicode=" " horiz-adv-x="663"
 />
    <glyph glyph-name="c" unicode="c" horiz-adv-x="1269"
d="M192 793q0 53 15 99t40.5 80.5t60.5 54.5t74 20h526q39 0 73.5 -20t60.5 -54.5t41 -80.5t15 -99v-186h-239v269h-429v-705h700q-4 -35 -19.5 -66t-39 -54t-53.5 -36.5t-63 -14.5h-573q-39 -1 -74 19t-60.5 54.5t-40.5 81t-15 99.5v539z" />
    <glyph glyph-name="d" unicode="d"
d="M192 793q0 53 15 99t40.5 80.5t60.5 54.5t74 20h462v543h238v-1419h190q-4 -35 -19.5 -66.5t-39 -54.5t-53.5 -36.5t-63 -13.5h-253v109q-27 -51 -69 -80t-89 -29h-304q-39 0 -74 20t-60.5 54.5t-40.5 80.5t-15 99v539zM844 171v705h-414v-705h414z" />
    <glyph glyph-name="f" unicode="f" horiz-adv-x="762"
d="M496 -269q0 -53 -16 -99.5t-43.5 -81t-64.5 -55t-78 -20.5h-36v1419h-80v154h80v288q0 53 15 99.5t40.5 81t60.5 54.5t74 20h382v-174h-334v-369h250v-154h-250v-1163v0z" />
    <glyph glyph-name="b" unicode="b"
d="M192 1591h238v-660q28 54 70 85t91 31h302q39 0 73 -20t60 -54.5t41 -80.5t15 -99v-622h211q-4 -35 -19.5 -66.5t-39 -54.5t-53.5 -36.5t-63 -13.5h-527q-49 0 -90.5 30.5t-70.5 82.5v-113h-238v1591zM844 171v705h-414v-705h414z" />
    <glyph glyph-name="g" unicode="g"
d="M192 793q0 53 15 99t40.5 80.5t60.5 54.5t74 20h700v-876h211q-4 -35 -19.5 -66.5t-39 -54.5t-53.5 -36.5t-63 -13.5h-36v-285q0 -53 -15 -99.5t-41 -81t-60 -55t-73 -20.5h-485v173h435v479q-29 -52 -71 -81.5t-88 -29.5h-302q-39 0 -74 20t-60.5 54.5t-40.5 80.5
t-15 99v539zM843 171v705h-413v-705h413z" />
    <glyph glyph-name="h" unicode="h"
d="M192 1590h239v-657q28 54 69.5 84t90.5 30h301q39 0 73.5 -20t60.5 -54.5t41 -80.5t15 -99v-622h214q-4 -35 -19.5 -66.5t-38.5 -54.5t-53 -36.5t-62 -13.5h-89q-39 0 -74 20t-61 54.5t-41 80.5t-15 99v622h-412v-876h-239v1590z" />
    <glyph glyph-name="n" unicode="n" horiz-adv-x="1311"
d="M220 1047h239v-396l309 320q32 37 66.5 57t82.5 20q40 0 77 -20t65 -54.5t44.5 -80.5t16.5 -99v-622h202q-4 -36 -19.5 -67t-39 -54.5t-53.5 -37t-63 -13.5h-78q-40 0 -74.5 20t-60 54.5t-40.5 80.5t-15 99v608l-420 -432v-430h-239v1047z" />
    <glyph glyph-name="i" unicode="i" horiz-adv-x="612"
d="M297 1289q-35 0 -65.5 13t-53.5 36t-36 53.5t-13 65.5t13 65.5t36 53.5t53.5 36.5t65.5 13.5t65.5 -13.5t53.5 -36.5t36.5 -53.5t13.5 -65.5t-13.5 -65.5t-36.5 -53.5t-54 -36t-65 -13zM180 1047h239v-876h214q-3 -35 -18.5 -66.5t-39 -54.5t-53.5 -36.5t-63 -13.5h-88
q-39 0 -74 20t-61 54.5t-41 80.5t-15 99v793z" />
    <glyph glyph-name="k" unicode="k" horiz-adv-x="1263"
d="M192 1591h239v-966h195l227 422h251l-241 -419q40 -7 75 -29.5t60.5 -57t40 -78t14.5 -92.5v-200h230q-4 -35 -19.5 -66.5t-39 -54.5t-53.5 -36.5t-63 -13.5h-103q-39 0 -73.5 20t-60.5 54.5t-41 80.5t-15 99v203h-384v-457h-239v1591z" />
    <glyph glyph-name="l" unicode="l" horiz-adv-x="592"
d="M172 1591h239v-1420h213q-6 -40 -22.5 -72t-40 -54t-53 -33.5t-61.5 -11.5h-84q-39 0 -74 20t-61 54.5t-41 80.5t-15 99v1337z" />
    <glyph glyph-name="p" unicode="p"
d="M431 -285q0 -53 -14.5 -99.5t-40 -81t-59.5 -55t-73 -20.5h-52v1588h701q39 0 73 -20t60 -54.5t41 -80.5t15 -99v-622h211q-4 -35 -19.5 -66.5t-39 -54.5t-53.5 -36.5t-63 -13.5h-527q-48 0 -90 30.5t-71 81.5zM843 172v704h-413v-704h413z" />
    <glyph glyph-name="q" unicode="q"
d="M192 793q0 53 15 99t40.5 80.5t60.5 54.5t74 20h700v-876h211q-4 -35 -19.5 -66.5t-39 -54.5t-53.5 -36.5t-63 -13.5h-36v-541h-239v661q-15 -27 -36.5 -49t-46.5 -37.5t-51 -24.5t-50 -9h-277q-39 0 -74 20t-60.5 54.5t-40.5 80.5t-15 99v539zM843 171v705h-413v-705
h413z" />
    <glyph glyph-name="t" unicode="t" horiz-adv-x="765"
d="M222 893h-80v154h80v278l239 119v-397h269v-154h-269v-722h358q-4 -35 -19.5 -66.5t-39.5 -54.5t-54 -36.5t-63 -13.5h-231q-39 0 -74 20t-60.5 54.5t-40.5 80.5t-15 99v639z" />
    <glyph glyph-name="y" unicode="y"
d="M192 1047h239v-876h412v876h239v-876h202q-4 -35 -19.5 -66.5t-39 -54.5t-53.5 -36.5t-63 -13.5h-27v-285q0 -53 -15 -99.5t-41 -81t-60.5 -55t-73.5 -20.5h-484v173h435v475q-27 -50 -69.5 -78.5t-90.5 -28.5h-301q-39 0 -74 20t-60.5 54.5t-40.5 80.5t-15 99v793z" />
    <glyph glyph-name="u" unicode="u" horiz-adv-x="1263"
d="M180 1047h239v-876h413v876h238v-876h203q-4 -35 -19.5 -66.5t-39 -54.5t-53.5 -36.5t-63 -13.5h-188l-78 127q-11 -28 -28 -51.5t-38.5 -40t-45 -26t-45.5 -9.5h-305q-39 0 -74 20t-60.5 54.5t-40.5 80.5t-15 99v793z" />
    <glyph glyph-name="v" unicode="v" horiz-adv-x="1103"
d="M41 1047h243l273 -879l273 879h242l-363 -1047h-306z" />
    <glyph glyph-name="x" unicode="x" horiz-adv-x="1103"
d="M442 551l-374 496h234l265 -334l259 334h234l-370 -489l308 -387h142q-4 -35 -19 -66t-37.5 -54t-52 -37t-61.5 -14h-111l-295 390l-295 -390h-254z" />
    <glyph glyph-name="z" unicode="z" horiz-adv-x="1083"
d="M162 186l570 690h-540v171h795v-184l-567 -692h645q-4 -35 -19.5 -66.5t-39 -54.5t-53.5 -36.5t-63 -13.5h-728v186z" />
    <glyph glyph-name="w" unicode="w" horiz-adv-x="1805"
d="M180 1047h239v-875h360v875h240v-875h360v875h443q-4 -35 -19.5 -66.5t-39 -54.5t-53.5 -36.5t-63 -13.5h-29v-622q0 -53 -15 -99t-41 -80.5t-61 -54.5t-74 -20h-365q-49 0 -93 33.5t-73 90.5q-29 -57 -73 -90.5t-93 -33.5h-359q-39 0 -74 20t-61 54.5t-41 80.5t-15 99
v793z" />
    <glyph glyph-name="j" unicode="j" horiz-adv-x="592"
d="M309 1289q-35 0 -65.5 13t-53.5 36t-36 53.5t-13 65.5t13 65.5t36 53.5t53.5 36.5t65.5 13.5t65.5 -13.5t53.5 -36.5t36.5 -53.5t13.5 -65.5t-13.5 -65.5t-36.5 -53.5t-54 -36t-65 -13zM192 -368v1415h239v-1332q0 -53 -15 -99.5t-40.5 -81t-60 -55t-73.5 -20.5h-196v173
h146z" />
    <glyph glyph-name="m" unicode="m" horiz-adv-x="1817"
d="M220 1047h239v-402l243 326q32 38 66.5 57.5t84.5 19.5q40 0 76.5 -20t64 -54.5t44 -80.5t16.5 -99v-113l210 290q32 37 72 57t89 20q40 0 76.5 -20t64 -54.5t44 -80.5t16.5 -99v-623h178q-4 -35 -19.5 -66.5t-39 -54.5t-53.5 -36.5t-63 -13.5h-54q-39 0 -73.5 20
t-59.5 54.5t-39.5 80.5t-14.5 99v601l-334 -405v-450h-239v855l-356 -440v-415h-239v1047z" />
    <glyph glyph-name="r" unicode="r"
d="M192 1157h240v-110h754q-4 -35 -19.5 -66.5t-38.5 -54.5t-52.5 -36.5t-60.5 -13.5v-705h232q-4 -35 -19.5 -66.5t-39.5 -54.5t-55 -36.5t-66 -13.5h-100q-39 0 -74 20t-61 54.5t-41 80.5t-15 99v622h-346v-876h-238v1157z" />
    <glyph glyph-name="s" unicode="s" horiz-adv-x="1266"
d="M499 1107h240q-9 -22 -13.5 -43.5t-6.5 -35.5q-3 -37 12 -67t40.5 -57.5t59 -54.5t68.5 -57q40 -32 81 -73.5t74 -91t53.5 -105t18.5 -115.5q-2 -42 -18 -80.5t-42 -69t-60.5 -52.5t-72.5 -32h372q-14 -39 -33.5 -70.5t-44 -54.5t-53.5 -35.5t-60 -12.5h-274
q-46 0 -76.5 14.5t-48 38.5t-24 55.5t-3.5 65.5q32 4 63 17t55.5 37.5t41 61.5t20.5 89q4 41 -8 77t-32 68t-46 61t-51 56q-26 34 -52 82t-37 117l-316 -840h-247z" />
    <glyph glyph-name="A" unicode="A" horiz-adv-x="1327"
d="M227 381h-231q4 35 19.5 66t39 54.5t53.5 37t63 13.5h86l133 775q7 41 26.5 76t46 60t58.5 39t64 14h243q31 0 63 -14t59 -39.5t46.5 -60t26.5 -76.5l228 -1326h-239l-62 381h-491l-61 -381h-236zM923 552l-128 795h-183q-32 -194 -63 -393.5t-63 -401.5h437z" />
    <glyph glyph-name="one" unicode="1" horiz-adv-x="843"
d="M326 1345h-154v171h393v-1516h-239v1345z" />
    <glyph glyph-name="B" unicode="B" horiz-adv-x="1348"
d="M230 565h-252q3 36 18 67t38.5 54t54 36.5t64.5 13.5h77v780h702q40 0 77 -19.5t65.5 -54t46 -81t17.5 -99.5v-374q0 -73 -33 -134t-96 -98q44 -16 76 -45t52.5 -64t30.5 -73t10 -72v-150q0 -52 -15 -98t-41.5 -80t-61 -54t-73.5 -20h-757v565zM901 736v609h-434v-609
h434zM939 171v394h-472v-394h472z" />
    <glyph glyph-name="C" unicode="C" horiz-adv-x="1328"
d="M200 1262q0 53 15 99.5t41 81t60 54t73 19.5h556q39 0 73.5 -19.5t60.5 -54t41 -81t15 -99.5v-391h-238v476h-460v-1176h770q-4 -35 -19.5 -66.5t-39 -54.5t-53.5 -36.5t-63 -13.5h-643q-39 0 -73 20t-60 54t-41 80t-15 98v1010z" />
    <glyph glyph-name="D" unicode="D" horiz-adv-x="1387"
d="M244 982q0 52 15.5 97.5t42 80t61.5 54.5t75 20h45v-1063h463v1176h-896q3 35 18.5 66t39 54t53.5 36t64 13h768q39 0 74 -19.5t60.5 -54t40.5 -81t15 -99.5v-1010q0 -52 -15 -98t-40.5 -80t-60 -54t-73.5 -20h-749z" />
    <glyph glyph-name="F" unicode="F" horiz-adv-x="1193"
d="M184 564q3 33 17 62.5t36.5 51t51 34.5t60.5 13h324v621h-647q4 35 19.5 66t39 54t53.5 36.5t63 13.5h706v-791h204l1 -161h-205v-575q0 -52 -16 -98t-43 -80t-62 -53.5t-73 -19.5h-40v826h-489v0z" />
    <glyph glyph-name="G" unicode="G" horiz-adv-x="1348"
d="M200 1261q0 53 15 99.5t40.5 81t59.5 54t73 19.5h800v-169h-749v-1174h514v711h237l-2 -1000q0 -51 -14.5 -96.5t-39.5 -80t-59 -54.5t-72 -20h-50v368h-565q-39 0 -73 20t-59.5 54t-40.5 80t-15 98v1009z" />
    <glyph glyph-name="H" unicode="H" horiz-adv-x="1437"
d="M230 565h-239q4 36 19.5 67t39 54t53.5 36.5t63 13.5h64v780h238v-780h539v780h240v-1516h-240v565h-539v-565h-238v565z" />
    <glyph glyph-name="I" unicode="I" horiz-adv-x="1102"
d="M319 171h317v1176h-330v-345h-206v260q0 53 15 99.5t41 81t60.5 54t74.5 19.5h583v-1264q0 -52 -15 -98t-41 -80t-60.5 -54t-73.5 -20h-365v171z" />
    <glyph glyph-name="J" unicode="J" horiz-adv-x="1244"
d="M134 670h233v-499h428v1176h-441v169h690v-1262q0 -52 -15 -98.5t-41 -81t-60.5 -54.5t-74.5 -20h-530q-39 0 -73.5 20t-60 54t-40.5 80t-15 98v418z" />
    <glyph glyph-name="K" unicode="K" horiz-adv-x="1369"
d="M220 1516h240v-753h199l258 753h254l-285 -753h51q39 0 71.5 -20t55.5 -54t36 -79.5t13 -97.5v-340h266q-4 -36 -19.5 -67t-39 -54.5t-53.5 -37t-63 -13.5h-141q-39 0 -73.5 20t-60.5 54t-41 80t-15 98v343h-413v-595h-240v1516z" />
    <glyph glyph-name="M" unicode="M" horiz-adv-x="1983"
d="M220 1516h239v-402l291 324q32 38 78.5 58t94.5 20q42 0 76 -18t58 -49.5t37 -74t13 -90.5v-170l263 324q29 40 77.5 59t95.5 19q42 0 76 -18t58 -49.5t37 -74t13 -90.5v-1113h216q-4 -35 -19.5 -66.5t-39 -54.5t-53.5 -36.5t-63 -13.5h-94q-39 0 -72.5 20t-58 54
t-38.5 80t-14 98v1068l-384 -459v-861h-236v1320l-412 -459v-861h-239v1516z" />
    <glyph glyph-name="O" unicode="O" horiz-adv-x="1358"
d="M200 1262q0 53 15 99.5t40.5 81t59.5 54t73 19.5h580q39 0 74 -19.5t60.5 -54t40.5 -81t15 -99.5v-1010q0 -52 -15 -98t-41 -80t-60.5 -54t-73.5 -20h-580q-39 0 -73 20t-59.5 54t-40.5 80t-15 98v1010zM920 171v1176h-481v-1176h481z" />
    <glyph glyph-name="Q" unicode="Q" horiz-adv-x="1402"
d="M282 0q4 35 19.5 66t39.5 54.5t53.5 37t62.5 13.5h456v1176h-473v-887h-50q-39 0 -73.5 20t-60.5 54.5t-41 81t-15 99.5v547q0 53 15 99.5t41 81t60 54t73 19.5h572q39 0 74 -19.5t61 -54t41 -81t15 -99.5v-853q0 -41 -10 -78.5t-28 -68t-43 -54t-55 -37.5h357
q-4 -35 -19.5 -66t-39 -54.5t-53.5 -37t-63 -13.5h-916v0z" />
    <glyph glyph-name="R" unicode="R" horiz-adv-x="1388"
d="M237 564h-223q3 35 18.5 66t39 54.5t53.5 37t64 13.5h48v781h678q40 0 77 -19.5t65.5 -54t45.5 -81t17 -99.5v-373q0 -73 -33 -134t-96 -98q44 -16 76 -45t53 -64t31 -73t10 -72l-1 -231h263q-4 -36 -19.5 -67t-39 -54.5t-53.5 -37t-63 -13.5h-138q-39 0 -73.5 20
t-60.5 54t-41 80t-15 98v312h-446l-1 -564h-236v564zM883 735v610h-409v-610h409z" />
    <glyph glyph-name="U" unicode="U" horiz-adv-x="1396"
d="M200 1516h240v-1334h93l385 304v1030h238v-1344h200q-4 -36 -19.5 -67t-39 -54.5t-53.5 -37t-63 -13.5h-263v288l-317 -255q-38 -33 -88 -33h-115q-40 0 -76 20t-63 54t-43 80t-16 98v1264z" />
    <glyph glyph-name="E" unicode="E" horiz-adv-x="1172"
d="M230 564h-225q3 33 17 62.5t36.5 51t51 34.5t60.5 13h60v537q0 53 14.5 99.5t40 81t60 54t73.5 19.5h628v-169h-576v-622h396v-161h-396v-393h665q-4 -35 -19.5 -66.5t-39 -54.5t-53.5 -36.5t-63 -13.5h-540q-40 0 -74.5 20t-60 54t-40.5 80t-15 98v312z" />
    <glyph glyph-name="W" unicode="W" horiz-adv-x="1888"
d="M230 1346h-264q4 35 19.5 66t39 54.5t53.5 37t63 13.5h328v-1345h370v1345h240v-1345h370v1345h239v-1263q0 -53 -15 -99t-41 -80.5t-60.5 -54.5t-74.5 -20h-373q-49 0 -93 33.5t-73 90.5q-29 -57 -73 -90.5t-93 -33.5h-371q-39 0 -74 20t-61 54.5t-41 80.5t-15 99v1092z
" />
    <glyph glyph-name="a" unicode="a" horiz-adv-x="1281"
d="M192 765q0 60 16.5 112t45.5 90t68.5 59.5t85.5 21.5h674v-877h217q-4 -35 -19.5 -66.5t-39 -54.5t-53.5 -36.5t-63 -13.5h-107q-49 0 -93 33.5t-73 90.5q-29 -57 -73 -90.5t-93 -33.5h-303q-39 0 -74 20t-60.5 54t-40.5 79.5t-15 97.5v514zM844 171v705h-414v-705h414z
" />
    <glyph glyph-name="o" unicode="o"
d="M192 793q0 53 15 99.5t40.5 81t59.5 54t73 19.5h838q-4 -35 -19.5 -66.5t-39 -54.5t-53.5 -36.5t-63 -13.5h-63q19 -14 37.5 -36t33 -51t23 -63.5t8.5 -74.5v-399q0 -52 -15 -98t-41 -80t-60.5 -54t-73.5 -20h-512q-39 0 -73 20t-59.5 54t-40.5 80t-15 98v541zM843 171
v705h-412v-705h412z" />
    <glyph glyph-name="e" unicode="e"
d="M192 793q0 53 15 99t40.5 80.5t60.5 54.5t74 20h531q39 0 73.5 -20t60.5 -54.5t41 -80.5t15 -99v-333h-672v-289h734q-4 -35 -19.5 -66.5t-39 -54.5t-53.5 -36.5t-63 -13.5h-608q-39 0 -74 20t-60.5 54.5t-40.5 80.5t-15 99v539zM864 600v276h-433v-276h433z" />
    <glyph glyph-name="T" unicode="T" horiz-adv-x="1209"
d="M265 0q4 35 19.5 66t39 54.5t53.5 37t63 13.5h294v1176h-444v-325h-239v240q0 53 15 99.5t41 81t60 54t73 19.5h939v-169h-207v-1094q0 -52 -15 -98t-41 -80.5t-60 -54.5t-73 -20h-518v0z" />
    <glyph glyph-name="L" unicode="L" horiz-adv-x="1193"
d="M50 0q3 34 18.5 65.5t39 54.5t53.5 37t64 14h42v1091q0 53 15 99.5t40.5 81t60 54t73.5 19.5h320v-159h-271v-941q0 -52 -14.5 -95t-36 -75t-47.5 -51.5t-49 -23.5h586v220h211v-221q0 -36 -15 -67t-39.5 -54t-56 -36t-64.5 -13h-930v0z" />
    <glyph glyph-name="P" unicode="P" horiz-adv-x="1305"
d="M231 526h-288q4 35 19.5 66t39 54.5t53.5 37t63 13.5h112v819h745q39 0 73.5 -19.5t60.5 -54t41 -81t15 -99.5v-484q0 -53 -15 -98.5t-41 -80t-60.5 -54t-73.5 -19.5h-504v-526h-240v526zM932 697v650h-462v-650h462z" />
    <glyph glyph-name="Y" unicode="Y" horiz-adv-x="1358"
d="M275 0q4 35 19.5 66t39 54.5t53.5 37t63 13.5h480v447l-304 -184q-20 -13 -49.5 -21t-53.5 -7h-113q-40 0 -76 20t-63 54t-43 80t-16 98v687h-212q4 35 19.5 66t40 54.5t56.5 37t69 13.5h267v-938h93l385 237v701h238v-1265q0 -51 -15 -96.5t-40.5 -80t-60.5 -54.5
t-74 -20h-703v0z" />
    <glyph glyph-name="three" unicode="3" horiz-adv-x="1297"
d="M190 322h238v-150h402v471h-338v171h338v527h-402v-189h-238v107q0 53 15 99t41 80.5t61 54.5t74 20h498q39 0 74 -20t61 -54.5t41 -80.5t15 -99v-275q0 -41 -11.5 -79.5t-31.5 -71.5t-47.5 -58.5t-59.5 -41.5q32 -17 59.5 -42.5t47.5 -57.5t31.5 -70t11.5 -80v-229
q0 -53 -15 -99t-41 -80.5t-61 -54.5t-74 -20h-498q-39 0 -74 20t-61 54.5t-41 80.5t-15 99v68z" />
    <glyph glyph-name="zero" unicode="0" horiz-adv-x="1325"
d="M227 1262q0 54 15 100.5t40.5 81t60.5 54t74 19.5h491q39 0 73.5 -19.5t60.5 -54t41 -81t15 -100.5v-1008q0 -53 -15 -99t-41 -80.5t-60 -54.5t-73 -20h-492q-39 0 -74 20t-60.5 54.5t-40.5 80.5t-15 99v1008zM860 172v1174h-395v-1174h395z" />
    <glyph glyph-name="two" unicode="2" horiz-adv-x="1230"
d="M190 368q0 38 7.5 74t21.5 67t34 54t44 36l502 260v485h-372v-187h-237v105q0 53 15 99t40.5 80.5t60.5 54.5t74 20h467q39 0 74 -20t60.5 -54.5t40.5 -80.5t15 -99v-372q0 -80 -32.5 -128t-84.5 -75l-493 -258v-257h610v-172h-847v368z" />
    <glyph glyph-name="five" unicode="5" horiz-adv-x="1325"
d="M251 360h237v-188h397v546h-634v798h836v-182h-599v-445h445q39 0 73 -20t60 -55t41 -81.5t15 -100.5v-378q0 -53 -15 -99t-41 -80.5t-60 -54.5t-73 -20h-492q-39 0 -74 20t-60.5 54.5t-40.5 80.5t-15 99v106z" />
    <glyph glyph-name="six" unicode="6" horiz-adv-x="1377"
d="M227 1262q0 53 15 99t41 80.5t61 54.5t74 20h628v-172h-581v-435h492q40 0 75 -20t61.5 -55t41.5 -81.5t15 -100.5v-398q0 -53 -15 -99t-41.5 -80.5t-61.5 -54.5t-75 -20h-539q-39 0 -74 20t-61 54.5t-41 80.5t-15 99v1008zM910 172v576h-445v-576h445z" />
    <glyph glyph-name="nine" unicode="9" horiz-adv-x="1327"
d="M358 172h502v332h-442q-39 0 -74 20t-61 54.5t-41 81t-15 100.5v501q0 53 15 99t41 80.5t61 54.5t74 20h489q40 0 75 -20t61.5 -54.5t41.5 -80.5t15 -99v-1007q0 -53 -15 -99t-41.5 -80.5t-61.5 -54.5t-75 -20h-549v172zM860 667v676h-395v-676h395z" />
    <glyph glyph-name="eight" unicode="8" horiz-adv-x="1334"
d="M227 569q0 42 11 80t31 70.5t47.5 58t60.5 41.5q-33 16 -60.5 42t-47.5 58.5t-31 71t-11 79.5v191q0 52 15 98.5t41.5 81t61 54.5t73.5 20h498q39 0 74 -20t61 -54.5t41 -81t15 -98.5v-191q0 -41 -11.5 -79.5t-31.5 -71.5t-47.5 -58.5t-59.5 -41.5q32 -17 59.5 -42.5
t47.5 -57.5t31.5 -70t11.5 -80v-315q0 -53 -15 -99t-41 -80.5t-61 -54.5t-74 -20h-498q-39 0 -73.5 20t-61 54.5t-41.5 80.5t-15 99v315zM867 900v444h-401v-444h401zM867 172v557h-401v-557h401z" />
    <glyph glyph-name="seven" unicode="7" horiz-adv-x="1285"
d="M886 1344h-445v-251h-224v422h891v-186l-359 -1329h-254z" />
    <glyph glyph-name="four" unicode="4" horiz-adv-x="1285"
d="M153 525l295 991h245l-298 -1006h391v555l238 47v-602h168v-170h-168v-340h-238v340h-633v185z" />
    <glyph glyph-name="N" unicode="N" horiz-adv-x="1443"
d="M220 1516h237v-367l373 292q18 15 36 28.5t37.5 24t41 16.5t46.5 6q39 0 73 -17.5t59.5 -49t40 -74t14.5 -91.5v-1112h225q-4 -36 -19.5 -67t-39 -54.5t-53.5 -37t-63 -13.5h-108q-39 0 -73 20t-59.5 54t-40 80t-14.5 98v1063l-476 -371v-944h-237v1516z" />
    <glyph glyph-name="V" unicode="V" horiz-adv-x="1339"
d="M170 1345h-186q4 35 19.5 66t39 54.5t53.5 37t63 13.5h213l320 -1364l311 1364h242l-392 -1516h-322z" />
    <glyph glyph-name="X" unicode="X" horiz-adv-x="1203"
d="M450 802l-388 714h249l264 -524l255 524h249l-391 -718l341 -627h217q-4 -35 -19.5 -66.5t-39 -54.5t-53.5 -36.5t-63 -13.5h-197l-314 606l-293 -606h-256z" />
    <glyph glyph-name="Z" unicode="Z" horiz-adv-x="1143"
d="M136 176l647 1171h-622v169h856v-173l-647 -1166l724 1q-4 -36 -19.5 -68t-39 -56.5t-53.5 -39t-63 -14.5h-783v176z" />
    <glyph glyph-name="S" unicode="S" horiz-adv-x="1279"
d="M275 0q4 35 19.5 66t39 54.5t53.5 37t63 13.5h367v243l-524 261q-60 30 -96 91t-36 152v344q0 53 14.5 99.5t40 81t59.5 54t73 19.5h553q39 0 73 -19.5t59.5 -54t40.5 -81t15 -99.5v-296h-239v379h-450v-474l542 -277q26 -13 47 -36t36 -53.5t23 -67.5t8 -77v-108
q0 -52 -15 -98t-40.5 -80t-59.5 -54t-73 -20h-593v0z" />
    <glyph glyph-name="ampersand" unicode="&#x26;" horiz-adv-x="1348"
d="M119 633q0 35 12 80.5t40.5 88.5t75.5 76t116 44l-25 35q-14 19 -24 37t-17.5 39t-11 46.5t-3.5 59.5v120q0 54 15 100.5t41 81.5t61 55t75 20h343q40 0 74.5 -20t60 -54.5t40 -81t14.5 -100.5v-105h-238v190h-249v-293l322 -441l190 333h213l-290 -485l330 -459h-257
l-177 243l-130 -243h-410q-39 0 -73.5 20t-60.5 54.5t-41.5 80.5t-15.5 99v379zM573 171l160 235l-363 513v-748h203z" />
    <glyph glyph-name="IJ" unicode="&#x132;" horiz-adv-x="1285"
d="M260 0q3 35 18.5 66t39 54.5t53.5 37t63 13.5h479v1345h239v-1262q0 -53 -15 -99t-41 -80.5t-61 -54.5t-74 -20h-701zM388 469q-39 0 -74 20t-61 54.5t-41 80.5t-15 99v793h239v-876h328q-3 -35 -18.5 -66.5t-39 -54.5t-53.5 -36.5t-63 -13.5h-202z" />
    <glyph glyph-name="period" unicode="." horiz-adv-x="757"
d="M210 156q0 35 13 65.5t36 53.5t53.5 36.5t65.5 13.5t65.5 -13.5t53.5 -36.5t36.5 -53.5t13.5 -65.5t-13.5 -65.5t-36.5 -53.5t-54 -36t-65 -13q-35 0 -65.5 13t-53.5 36t-36 53.5t-13 65.5z" />
    <glyph glyph-name="acute" unicode="&#xb4;" horiz-adv-x="909"
d="M150 1415l381 274q46 33 93 33q38 0 70.5 -22t51.5 -64q13 -29 13 -59q0 -27 -9.5 -51.5t-26 -45t-39.5 -35.5t-49 -22l-424 -113z" />
    <glyph glyph-name="grave" unicode="`" horiz-adv-x="909"
d="M274 1373q-26 7 -49 22t-39.5 35.5t-26 45t-9.5 51.5q0 30 13 59q19 42 51.5 64t70.5 22q46 0 93 -33l381 -274l-61 -105l-424 113v0z" />
    <glyph glyph-name="tilde" unicode="&#x2dc;" horiz-adv-x="1185"
d="M150 1348q4 28 8.5 48t10.5 48q9 45 37 82t68.5 64t91 41.5t104.5 14.5q43 0 84 -12.5t76.5 -35t64.5 -53.5t49 -68h101l54 110h136q-2 -20 -5 -38q-2 -16 -5.5 -31.5t-5.5 -26.5q-11 -46 -39.5 -83.5t-69 -64t-90 -40.5t-103.5 -14q-46 0 -88.5 12.5t-79.5 35
t-66.5 53.5t-49.5 68h-92l-55 -110h-136v0z" />
    <glyph glyph-name="asciitilde" unicode="~" horiz-adv-x="1285"
d="M128 519q13 46 45 85.5t77 68t100.5 44.5t117.5 16q49 0 95 -13.5t86.5 -37t73.5 -56.5t55 -72h157l68 116h144l-27 -102q-13 -48 -45 -88t-77.5 -68t-101.5 -43t-116 -15q-52 0 -100 13.5t-90 37t-75.5 56.5t-56.5 72h-147l-69 -116h-144z" />
    <glyph glyph-name="dieresis" unicode="&#xa8;" horiz-adv-x="1167"
d="M851 1289q-36 0 -67 12t-53 34.5t-34.5 53t-12.5 68.5q0 37 12.5 68.5t34.5 55t53 36.5t67 13q34 0 64.5 -13t53 -36.5t35.5 -55t13 -68.5q0 -38 -13 -68.5t-35.5 -53t-53 -34.5t-64.5 -12zM317 1289q-36 0 -67 12t-53 34.5t-34.5 53t-12.5 68.5q0 37 12.5 68.5t34.5 55
t53 36.5t67 13q34 0 64.5 -13t53 -36.5t35.5 -55t13 -68.5q0 -38 -13 -68.5t-35.5 -53t-53 -34.5t-64.5 -12z" />
    <glyph glyph-name="cedilla" unicode="&#xb8;" horiz-adv-x="949"
d="M508 0v-96h127q34 0 63.5 -16.5t52 -44.5t35.5 -65.5t13 -80.5q0 -42 -13 -79.5t-35.5 -65t-52 -44t-63.5 -16.5h-485q4 35 19 66t38.5 54t54 36.5t63.5 13.5h269v116h-206v222h120z" />
    <glyph glyph-name="circumflex" unicode="&#x2c6;" horiz-adv-x="1142"
d="M230 1245q-22 31 -40.5 54t-39.5 52l265 253q41 38 79.5 56t77.5 18q35 0 74.5 -17.5t80.5 -56.5l265 -253q-12 -16 -22.5 -28.5t-20 -24.5t-19.5 -24.5t-22 -28.5l-336 192q-84 -46 -170.5 -95t-171.5 -97z" />
    <glyph glyph-name="macron" unicode="&#xaf;" horiz-adv-x="1202"
d="M150 1359q4 35 19 66t38.5 54.5t54 37t63.5 13.5h727q-3 -35 -18.5 -66.5t-38.5 -54.5t-53.5 -36.5t-63.5 -13.5h-728v0z" />
    <glyph glyph-name="ring" unicode="&#x2da;" horiz-adv-x="877"
d="M438 1207q-60 0 -112.5 22.5t-91.5 62t-61.5 92t-22.5 112.5q0 59 22.5 111.5t61.5 91.5t91.5 62t112.5 23t112.5 -23t92 -62t62 -91.5t22.5 -111.5q0 -60 -22.5 -112.5t-62 -92t-92 -62t-112.5 -22.5zM438 1361q28 0 52.5 10.5t42.5 29t28.5 43t10.5 52.5
q0 27 -10.5 51.5t-28.5 43.5t-42.5 30t-52.5 11t-52 -11t-42 -30t-28.5 -43.5t-10.5 -51.5q0 -28 10.5 -52.5t28.5 -43t42 -29t52 -10.5z" />
    <glyph glyph-name="commaaccent" unicode="&#xf6c3;" horiz-adv-x="638"
d="M150 -256q0 35 13 66t35.5 53.5t53.5 35.5t67 13q35 0 65.5 -13t53.5 -35.5t36.5 -53.5t13.5 -66q0 -44 -16.5 -84.5t-46 -82.5t-69.5 -86.5t-88 -95.5l-94 45l68 179q-42 19 -67 51t-25 74z" />
    <glyph glyph-name="grave.cap" horiz-adv-x="818"
d="M262 1794q-24 6 -44.5 19.5t-35.5 32t-23.5 40.5t-8.5 46q0 26 12 53q17 38 46 57.5t64 19.5q42 0 83 -29l313 -267l-55 -94z" />
    <glyph glyph-name="acute.cap" horiz-adv-x="818"
d="M150 1766l313 267q41 29 83 29q35 0 64 -19.5t46 -57.5q12 -27 12 -53q0 -24 -8.5 -46t-23.5 -40.5t-35.5 -32t-44.5 -19.5l-351 -122z" />
    <glyph glyph-name="circumflex.cap" horiz-adv-x="1058"
d="M222 1601q-20 28 -36.5 48.5t-35.5 46.5l239 228q36 35 71 50.5t70 15.5q31 0 67 -15.5t72 -50.5l239 -228q-11 -15 -20.5 -26.5t-18 -22t-17.5 -21.5t-20 -25l-302 172q-75 -41 -153 -85.5t-155 -86.5z" />
    <glyph glyph-name="dieresis.cap" horiz-adv-x="1081"
d="M782 1693q-37 0 -65 12.5t-47 34t-29 51t-10 63.5q0 33 10 62.5t29 51.5t47 34.5t65 12.5q34 0 62 -12.5t47 -34.5t29.5 -51.5t10.5 -62.5q0 -34 -10.5 -63.5t-29.5 -51t-47 -34t-62 -12.5zM301 1693q-37 0 -65 12.5t-47 34t-29 51t-10 63.5q0 33 10 62.5t29 51.5
t47 34.5t65 12.5q34 0 62 -12.5t47 -34.5t29.5 -51.5t10.5 -62.5q0 -34 -10.5 -63.5t-29.5 -51t-47 -34t-62 -12.5z" />
    <glyph glyph-name="caron.cap" horiz-adv-x="1058"
d="M528 1625q-31 0 -67 15.5t-72 50.5l-239 228l76 95l302 -172q75 41 153 85.5t155 86.5l72 -95l-239 -228q-36 -35 -71 -50.5t-70 -15.5z" />
    <glyph glyph-name="ring.cap" horiz-adv-x="877"
d="M438 1504q-60 0 -112.5 22.5t-91.5 62t-61.5 92t-22.5 112.5q0 59 22.5 111.5t61.5 91.5t91.5 62t112.5 23t112.5 -23t92 -62t62 -91.5t22.5 -111.5q0 -60 -22.5 -112.5t-62 -92t-92 -62t-112.5 -22.5zM438 1658q28 0 52.5 10.5t42.5 29t28.5 43t10.5 52.5
q0 27 -10.5 51.5t-28.5 43.5t-42.5 30t-52.5 11t-52 -11t-42 -30t-28.5 -43.5t-10.5 -51.5q0 -28 10.5 -52.5t28.5 -43t42 -29t52 -10.5z" />
    <glyph glyph-name="tilde.cap" horiz-adv-x="1097"
d="M150 1746q5 26 8.5 43.5l8.5 42.5q8 40 33 73.5t62 57.5t82 37.5t94 13.5q39 0 76 -11t69 -31.5t58 -48.5t44 -61h91l48 99h123q-2 -18 -5 -34q-2 -14 -5 -28.5t-5 -23.5q-10 -41 -35.5 -75t-62 -58t-81 -36.5t-92.5 -12.5q-41 0 -79.5 11.5t-71.5 31.5t-60 48t-45 61
h-83l-49 -99h-123v0z" />
    <glyph glyph-name="comma" unicode="," horiz-adv-x="775"
d="M219 157q0 35 13 66t35.5 54t53.5 36t67 13q35 0 65.5 -13t53.5 -36t36.5 -54t13.5 -66q0 -44 -9.5 -82t-27.5 -74t-43.5 -72.5t-58.5 -76.5l-114 -143l-94 45l91 258q-37 22 -59.5 59.5t-22.5 85.5z" />
    <glyph glyph-name="semicolon" unicode=";" horiz-adv-x="757"
d="M210 812q0 35 13 65.5t36 53.5t53.5 36.5t65.5 13.5t65.5 -13.5t53.5 -36.5t36.5 -53.5t13.5 -65.5t-13.5 -65.5t-36.5 -53.5t-54 -36t-65 -13q-35 0 -65.5 13t-53.5 36t-36 53.5t-13 65.5zM209 157q0 35 13 66t35.5 54t53.5 36t67 13q35 0 65.5 -13t53.5 -36t36.5 -54
t13.5 -66q0 -44 -9.5 -82t-27.5 -74t-43.5 -72.5t-58.5 -76.5l-114 -143l-94 45l91 258q-37 22 -59.5 59.5t-22.5 85.5z" />
    <glyph glyph-name="colon" unicode=":" horiz-adv-x="757"
d="M210 156q0 35 13 65.5t36 53.5t53.5 36.5t65.5 13.5t65.5 -13.5t53.5 -36.5t36.5 -53.5t13.5 -65.5t-13.5 -65.5t-36.5 -53.5t-54 -36t-65 -13q-35 0 -65.5 13t-53.5 36t-36 53.5t-13 65.5zM210 812q0 35 13 65.5t36 53.5t53.5 36.5t65.5 13.5t65.5 -13.5t53.5 -36.5
t36.5 -53.5t13.5 -65.5t-13.5 -65.5t-36.5 -53.5t-54 -36t-65 -13q-35 0 -65.5 13t-53.5 36t-36 53.5t-13 65.5z" />
    <glyph glyph-name="quotedblright" unicode="&#x201d;" horiz-adv-x="1072"
d="M726 1201q-37 22 -59.5 59.5t-22.5 85.5q0 35 13 66t35.5 54t53.5 36t67 13q35 0 65.5 -13t53.5 -36t36.5 -54t13.5 -66q0 -44 -9.5 -81.5t-27.5 -74t-44 -73t-58 -76.5l-114 -143l-94 45zM120 943l91 258q-37 22 -59.5 59.5t-22.5 85.5q0 35 13 66t35.5 54t53.5 36
t67 13q35 0 65.5 -13t53.5 -36t36.5 -54t13.5 -66q0 -44 -9.5 -81.5t-27.5 -74t-44 -73t-58 -76.5l-114 -143z" />
    <glyph glyph-name="quotedblleft" unicode="&#x201c;" horiz-adv-x="1072"
d="M774 898q-35 0 -65.5 13t-53.5 36t-36.5 54t-13.5 66q0 43 9.5 81t27.5 74.5t44 72.5t58 77l114 143l94 -45l-91 -258q37 -22 59.5 -59.5t22.5 -85.5q0 -35 -13 -66t-35.5 -54t-53.5 -36t-67 -13zM259 898q-35 0 -65.5 13t-53.5 36t-36.5 54t-13.5 66q0 43 9.5 81
t27.5 74.5t44 72.5t58 77l114 143l94 -45l-91 -258q37 -22 59.5 -59.5t22.5 -85.5q0 -35 -13 -66t-35.5 -54t-53.5 -36t-67 -13z" />
    <glyph glyph-name="guilsinglleft" unicode="&#x2039;" horiz-adv-x="764"
d="M159 393q-25 28 -42 61t-17 75q0 40 17 73t42 62l316 365h159l-246 -499l246 -499h-159l-316 362v0z" />
    <glyph glyph-name="guilsinglright" unicode="&#x203a;" horiz-adv-x="784"
d="M376 530l-246 499h159l316 -365q25 -29 42 -62t17 -73q0 -42 -17 -75t-42 -61l-316 -362h-159z" />
    <glyph glyph-name="guillemotleft" unicode="&#xab;" horiz-adv-x="1311"
d="M706 393q-25 28 -42 61t-17 75q0 40 17 73t42 62l316 365h159l-246 -499l246 -499h-159zM159 393q-25 28 -42 61t-17 75q0 40 17 73t42 62l316 365h159l-246 -499l246 -499h-159z" />
    <glyph glyph-name="guillemotright" unicode="&#xbb;" horiz-adv-x="1311"
d="M923 530l-246 499h159l316 -365q25 -29 42 -62t17 -73q0 -42 -17 -75t-42 -61l-316 -362h-159zM376 530l-246 499h159l316 -365q25 -29 42 -62t17 -73q0 -42 -17 -75t-42 -61l-316 -362h-159z" />
    <glyph glyph-name="numbersign" unicode="#" horiz-adv-x="1285"
d="M300 290h-226q4 49 7.5 88.5t7.5 86.5h225l27 299h-225q4 49 8.5 88.5t9.5 87.5h220l27 290h150l-23 -290h326q3 30 5.5 67.5t5.5 77t6 77.5t6 68h153l-23 -290h224q-2 -25 -4 -46.5t-3.5 -42.5t-3.5 -42t-4 -45h-225l-26 -299h226l-17 -175h-227q-3 -30 -6 -67.5t-6 -77
t-5.5 -77.5t-5.5 -68h-151l23 290h-325l-26 -290h-153zM792 465l24 299h-325l-23 -299h324z" />
    <glyph glyph-name="sterling" unicode="&#xa3;" horiz-adv-x="1385"
d="M195 0q3 34 18.5 65.5t39 54.5t53.5 37t64 14h88v366h-236q3 34 18.5 65.5t39 54.5t53.5 37t64 14h61v383q0 53 15 99.5t40.5 81t60 54t73.5 19.5h337q39 0 73.5 -19.5t60 -54t40.5 -81t15 -99.5v-91h-238v186h-239v-478h413q0 -36 -15 -67t-39.5 -54.5t-56 -36.5
t-64.5 -13h-238v-121q0 -52 -14.5 -95t-36 -75t-47.5 -51.5t-49 -23.5h767q0 -36 -15 -67t-39.5 -54.5t-56 -36.5t-64.5 -13h-946v0z" />
    <glyph glyph-name="Euro" unicode="&#x20ac;" horiz-adv-x="1424"
d="M341 404h-197q3 34 18.5 65.5t39 54.5t53.5 37t64 14h22v146h-197q3 34 18.5 65.5t39 54.5t53.5 37t64 14h22v199q0 53 15 99.5t40.5 81t59.5 54t73 19.5h620q39 0 74 -19.5t61 -54t41 -81t15 -99.5l-1 -111h-238v196h-521v-284h423q0 -36 -15 -67t-39.5 -54.5t-56 -36.5
t-64.5 -13h-248v-146h391q0 -36 -21 -67t-53.5 -54.5t-70 -36.5t-70.5 -13h-176v-233h521v106h238v-25q0 -52 -15 -98t-41 -80t-60.5 -54t-73.5 -20h-620q-39 0 -73 20t-59.5 54t-40.5 80t-15 98v152z" />
    <glyph glyph-name="yen" unicode="&#xa5;" horiz-adv-x="1385"
d="M246 294q3 34 18.5 65.5t39 54.5t53.5 37t64 14h190v205h-365q3 34 18.5 65.5t39 54.5t53.5 37t64 14h104l-333 509h255l286 -452l284 452h256l-335 -509h297q0 -36 -15 -67t-39.5 -54.5t-56 -36.5t-64.5 -13h-210v-205h385q0 -36 -15 -67t-39.5 -54.5t-56 -36.5
t-64.5 -13h-210v-294h-239v294h-365v0z" />
    <glyph glyph-name="dollar" unicode="$" horiz-adv-x="1385"
d="M273 357h239v-186h147v439l-254 127q-60 30 -96 91t-36 152v112q0 53 14.5 99.5t40 81t59.5 54t73 19.5h200v219h156v-219h187q39 0 73 -19.5t59.5 -54t40.5 -81t15 -99.5v-103h-239v186h-136v-426l243 -121q60 -30 96 -91t36 -152v-131q0 -53 -14.5 -99.5t-40 -81
t-59.5 -54t-73 -19.5h-188v-217h-157v217h-198q-39 0 -73 19.5t-59.5 54t-40.5 81t-15 99.5v103zM660 827v348h-148v-272zM952 171v291l-136 69v-360h136z" />
    <glyph glyph-name="at" unicode="@" horiz-adv-x="2314"
d="M243 1221q0 51 18 96t48.5 78.5t71 52.5t86.5 19h1458q47 0 88 -19t72 -52.5t48.5 -78.5t17.5 -96v-969q0 -57 -19 -103.5t-50.5 -79.5t-71.5 -51t-81 -18h-414q-49 0 -93 33.5t-73 90.5q-29 -57 -73 -90.5t-93 -33.5h-273q-39 0 -74 20t-60.5 54t-40.5 79.5t-15 97.5
v513q0 60 16.5 112t45.5 90t68.5 59.5t85.5 21.5h644v-876h377v1152h-1522v-1617h1280q-13 -33 -34.5 -60t-49 -46.5t-59.5 -30t-67 -10.5h-1038q-46 0 -86.5 19.5t-71 53t-48.5 78.5t-18 96v1415zM1342 171v705h-384v-705h384z" />
    <glyph glyph-name="ae" unicode="&#xe6;" horiz-adv-x="1978"
d="M192 765q0 60 16.5 112t46 90t69 59.5t85.5 21.5h516l76 -172q12 31 34 61.5t49.5 55t58 39.5t58.5 15h425q39 0 73.5 -20t60.5 -54.5t41 -80.5t15 -99v-333h-702v-289h754q-4 -35 -19.5 -66.5t-39 -54.5t-53.5 -36.5t-63 -13.5h-628q-39 0 -73.5 19.5t-60.5 53.5t-41 80
t-15 98l-252 -218q-38 -33 -88 -33h-145q-40 0 -76 20t-63 54t-43 80t-16 98v513zM1577 600v276h-463v-276h463zM525 172l350 281v423h-443v-704h93z" />
    <glyph glyph-name="periodcentered" unicode="&#xb7;" horiz-adv-x="857"
d="M260 655q0 35 13 65.5t36 53.5t53.5 36.5t65.5 13.5t65.5 -13.5t53.5 -36.5t36.5 -53.5t13.5 -65.5t-13.5 -65.5t-36.5 -53.5t-54 -36t-65 -13q-35 0 -65.5 13t-53.5 36t-36 53.5t-13 65.5z" />
    <glyph glyph-name="quotesingle" unicode="'" horiz-adv-x="370"
d="M49 1321q-2 9 -3.5 22t-1.5 26q0 30 10.5 57t29.5 46.5t44.5 31t54.5 11.5q30 0 56 -11.5t45.5 -31.5t30.5 -46t11 -56q0 -13 -1 -26t-3 -25l-88 -497h-100z" />
    <glyph glyph-name="exclam" unicode="!" horiz-adv-x="775"
d="M228 1282q-2 14 -4 33.5t-2 38.5q0 39 12.5 73.5t34 60t50.5 40.5t63 15t64 -14.5t52.5 -40t35 -59.5t12.5 -73q0 -20 -1.5 -39.5t-3.5 -37.5l-101 -774h-115zM219 157q0 35 13 65.5t36 53.5t53.5 36.5t65.5 13.5t65.5 -13.5t53.5 -36.5t36.5 -53.5t13.5 -65.5
t-13.5 -65.5t-36.5 -53.5t-54 -36t-65 -13q-35 0 -65.5 13t-53.5 36t-36 53.5t-13 65.5z" />
    <glyph glyph-name="quotedbl" unicode="&#x22;" horiz-adv-x="808"
d="M49 1321q-2 9 -3.5 22t-1.5 26q0 30 10.5 57t29.5 46.5t44.5 31t54.5 11.5q30 0 56 -11.5t45.5 -31.5t30.5 -46t11 -56q0 -13 -1 -26t-3 -25l-88 -497h-100zM487 1321q-2 9 -3.5 22t-1.5 26q0 30 10.5 57t29.5 46.5t44.5 31t54.5 11.5q30 0 56 -11.5t45.5 -31.5t30.5 -46
t11 -56q0 -13 -1 -26t-3 -25l-88 -497h-100z" />
    <glyph glyph-name="bullet" unicode="&#x2022;" horiz-adv-x="1079"
d="M259.518 650.66q0 58.0332 21.5752 108.604q21.5742 50.5713 59.7451 88.708q38.1709 38.1357 88.7891 60.5195t108.704 22.3838q58.0869 0 108.705 -22.3838q50.6172 -22.3838 88.7881 -60.5195q38.1719 -38.1367 60.5762 -88.708t22.4043 -108.604
q0 -58.0322 -22.4043 -108.604q-22.4043 -50.5723 -60.5762 -88.708q-38.1709 -38.1357 -89.6182 -59.6904q-51.4482 -21.5547 -107.875 -21.5547q-58.0859 0 -108.704 21.5547t-88.7891 59.6904t-59.7451 88.708q-21.5752 50.5713 -21.5752 108.604z" />
    <glyph glyph-name="question" unicode="?" horiz-adv-x="1113"
d="M403 645q0 39 7.5 75t21.5 66.5t34 53.5t45 36l250 127v341h-410v-213h-239v131q0 53 15 99t40.5 80.5t60 54.5t74.5 20h508q39 0 74 -20t60.5 -54.5t40.5 -80.5t15 -99v-208q0 -38 -8.5 -75t-24 -68t-37 -55t-46.5 -37l-243 -124v-174h-238v124zM355 157q0 35 13 65.5
t36 53.5t53.5 36.5t65.5 13.5t65.5 -13.5t53.5 -36.5t36.5 -53.5t13.5 -65.5t-13.5 -65.5t-36.5 -53.5t-54 -36t-65 -13q-35 0 -65.5 13t-53.5 36t-36 53.5t-13 65.5z" />
    <glyph glyph-name="slash" unicode="/" horiz-adv-x="1218"
d="M150 -176q94 246 187.5 488.5t186 484.5t185.5 484.5t188 487.5h171l-747 -1945h-171v0z" />
    <glyph glyph-name="dotlessj" unicode="&#x237;" horiz-adv-x="592"
d="M192 -368v1415h239v-1332q0 -53 -15 -99.5t-40.5 -81t-60 -55t-73.5 -20.5h-196v173h146z" />
    <glyph glyph-name="dotlessi" unicode="&#x131;" horiz-adv-x="612"
d="M180 1047h239v-876h214q-3 -35 -18.5 -66.5t-39 -54.5t-53.5 -36.5t-63 -13.5h-88q-39 0 -74 20t-61 54.5t-41 80.5t-15 99v793z" />
    <glyph glyph-name="less" unicode="&#x3c;" horiz-adv-x="1285"
d="M179 615l836 268v-182l-648 -178l648 -181v-181l-836 268v186z" />
    <glyph glyph-name="greater" unicode="&#x3e;" horiz-adv-x="1285"
d="M270 342l648 181l-648 178v182l836 -268v-186l-836 -268v181z" />
    <glyph glyph-name="plus" unicode="+" horiz-adv-x="1285"
d="M251 608h349v358h177v-358h348v-176h-348v-361h-177v361h-349v176z" />
    <glyph glyph-name="plusminus" unicode="&#xb1;" horiz-adv-x="1285"
d="M250 819h349v298h177v-298h348v-176h-348v-288h-177v288h-349v176zM250 211h874v-176h-874v176z" />
    <glyph glyph-name="hyphen" unicode="-" horiz-adv-x="1254"
d="M200 533q3 35 18.5 68.5t39 59.5t53.5 42t64 16h679q-4 -35 -19.5 -68.5t-39 -59.5t-53.5 -42t-63 -16h-679v0z" />
    <glyph glyph-name="equal" unicode="=" horiz-adv-x="1285"
d="M250 859h874v-176h-874v176zM250 356h874v-175h-874v175z" />
    <glyph glyph-name="multiply" unicode="&#xd7;" horiz-adv-x="1285"
d="M551 522l-297 296l129 129l294 -299l295 297l33.5 -33.5t30.5 -30l30 -29t32 -32.5l-297 -295q72 -72 149 -148.5t151 -148.5l-129 -132l-297 299l-296 -299l-129 131z" />
    <glyph glyph-name="divide" unicode="&#xf7;" horiz-adv-x="1285"
d="M686 762q-29 0 -53.5 11t-42 30.5t-27.5 46t-10 56.5t10 56.5t27.5 46t42 30.5t53.5 11q27 0 52 -11t43.5 -30.5t29.5 -46t11 -56.5t-11 -56.5t-29.5 -46t-43.5 -30.5t-52 -11zM250 607h874v-176h-874v176zM553 129q0 31 10 57.5t27.5 46t42 31t53.5 11.5q27 0 52 -11.5
t43.5 -31t29.5 -46t11 -57.5t-11 -57t-29.5 -45t-43.5 -30t-52 -11q-29 0 -53.5 11t-42 30t-27.5 45t-10 57z" />
    <glyph glyph-name="logicalnot" unicode="&#xac;" horiz-adv-x="1285"
d="M130 868h1001v-575h-177v399h-824v176z" />
    <glyph glyph-name="endash" unicode="&#x2013;" horiz-adv-x="1604"
d="M200 533q3 35 18.5 68.5t39 59.5t53.5 42t64 16h1029q-4 -35 -19.5 -68.5t-39 -59.5t-53.5 -42t-63 -16h-1029v0z" />
    <glyph glyph-name="emdash" unicode="&#x2014;" horiz-adv-x="2095"
d="M200 533q3 35 18.5 68.5t39 59.5t53.5 42t64 16h1520q-4 -35 -19.5 -68.5t-39 -59.5t-53.5 -42t-63 -16h-1520v0z" />
    <glyph glyph-name="caron" unicode="&#x2c7;" horiz-adv-x="1142"
d="M570 1317q-35 0 -74.5 17.5t-80.5 56.5l-265 253q12 16 22.5 28.5t20 24.5t19.5 24.5t22 28.5l336 -192q84 46 170.5 95t171.5 97q22 -31 40.5 -54t39.5 -52l-265 -253q-41 -38 -79.5 -56t-77.5 -18z" />
    <glyph glyph-name="thorn" unicode="&#xfe;" horiz-adv-x="1286"
d="M431 -285q0 -53 -14.5 -99.5t-40 -81t-59.5 -55t-73 -20.5h-52v2132h239v-544h473q39 0 73 -20t60 -54.5t41 -80.5t15 -99v-622h211q-4 -35 -19.5 -66.5t-39 -54.5t-53.5 -36.5t-63 -13.5h-538q-48 0 -90 30.5t-71 81.5zM854 171v705h-424v-705h424z" />
    <glyph glyph-name="fraction" unicode="&#x2044;" horiz-adv-x="1048"
d="M700 1311h172l-526 -1370h-171z" />
    <glyph glyph-name="onequarter" unicode="&#xbc;" horiz-adv-x="1947"
d="M1015 1311h172l-526 -1370h-171zM265 1151h-132v98h343v-795h-211v697zM1074 244l210 553h209l-218 -559h276v389h203v-389h83v-106h-83v-133h-203v133h-477v112z" />
    <glyph glyph-name="onehalf" unicode="&#xbd;" horiz-adv-x="2065"
d="M489 -59q133 347 263 685.5t263 684.5h171l-526 -1370h-171zM264 1151h-132v98h344v-795h-212v697zM1203 207q0 51 21.5 90.5t57.5 53.5l441 170v166h-298v-121h-222v71q0 33 11.5 62t31.5 50.5t47 34t58 12.5h445q31 0 58 -12.5t47 -34t32 -50.5t12 -62v-100
q0 -51 -25 -90t-64 -55l-431 -169v-115h520v-108h-742v207z" />
    <glyph glyph-name="threequarters" unicode="&#xbe;" horiz-adv-x="2207"
d="M1275 1311h172l-525 -1370h-171zM281 454q-31 0 -58 12.5t-47 34.5t-31.5 51t-11.5 62v47h211v-97h297v243h-223v108h223v226h-297v-97h-211v47q0 33 11.5 62t31.5 50.5t47 34t58 12.5l423 -1q31 0 58 -12.5t47 -34t32 -50.5t12 -62v-64q0 -52 -36.5 -96t-94.5 -67
q58 -22 94.5 -65.5t36.5 -95.5v-88q0 -33 -12 -62t-32 -51t-47 -34.5t-58 -12.5h-423zM1334 245l210 553h209l-218 -559h276v389h203v-389h83v-106h-83v-133h-203v133h-477v112z" />
    <glyph glyph-name="percent" unicode="%" horiz-adv-x="1858"
d="M1285 1311h177l-806 -1370h-178zM329 615q-31 0 -58 12.5t-47.5 34t-32 50.5t-11.5 62v305q0 33 11.5 62t31.5 50.5t47 34t58 12.5l362 -1q31 0 58 -12.5t47 -34t32 -50.5t12 -62v-305q0 -33 -11.5 -62t-31.5 -50.5t-47 -34t-58 -12.5zM628 723v406h-236v-406h236z
M1096 464q0 33 11.5 62t31.5 50.5t47 34t58 12.5l362 -1q31 0 58 -12.5t47 -34t32 -50.5t12 -62v-305q0 -33 -11.5 -62t-31.5 -50.5t-47 -34t-58 -12.5l-362 1q-31 0 -58 12.5t-47.5 34t-32 50.5t-11.5 62v305zM1544 108v406h-236v-406h236z" />
    <glyph glyph-name="ordfeminine" unicode="&#xaa;" horiz-adv-x="1077"
d="M320 492q-27 0 -50.5 13.5t-41.5 36.5t-28 54.5t-10 66.5v350q0 41 11.5 76.5t31 61.5t46.5 40.5t58 14.5h550v-597h158q-3 -24 -13.5 -45.5t-26.5 -37.5t-36.5 -25t-42.5 -9h-123q-34 0 -64 23t-50 61q-19 -38 -49 -61t-64 -23h-256zM685 609v480h-293v-480h293z
M428 175q0 25 9.5 47.5t26.5 39.5t39 26.5t48 9.5q25 0 47.5 -9.5t39.5 -26.5t26.5 -39.5t9.5 -47.5q0 -26 -10 -48t-26.5 -39t-39 -26.5t-47.5 -9.5q-26 0 -48 9.5t-39 26.5t-26.5 39t-9.5 48z" />
    <glyph glyph-name="ordmasculine" unicode="&#xba;" horiz-adv-x="1077"
d="M320 492q-27 0 -50.5 13.5t-41.5 36.5t-28 54.5t-10 66.5v350q0 41 11.5 76.5t31 61.5t46.5 40.5t58 14.5h420q27 0 50.5 -13.5t41.5 -37t28 -54.5t10 -66v-350q0 -41 -11.5 -76.5t-31 -61.5t-46.5 -40.5t-58 -14.5h-420zM685 609v480h-293v-480h293zM428 175
q0 25 9.5 47.5t26.5 39.5t39 26.5t48 9.5q25 0 47.5 -9.5t39.5 -26.5t26.5 -39.5t9.5 -47.5q0 -26 -10 -48t-26.5 -39t-39 -26.5t-47.5 -9.5q-26 0 -48 9.5t-39 26.5t-26.5 39t-9.5 48z" />
    <glyph glyph-name="degree" unicode="&#xb0;" horiz-adv-x="950"
d="M475 557q-74 0 -138.5 28t-112.5 76.5t-76 113.5t-28 139t28 138.5t76 112.5t112.5 76t138.5 28q73 0 138 -28t113 -76t76 -112.5t28 -138.5t-28 -139t-76 -113.5t-113 -76.5t-138 -28zM475 724q37 0 72 15t61 40.5t42 60.5t16 74t-16 73t-42 60t-61 41t-72 15
q-39 0 -74 -15t-60.5 -41t-40.5 -60t-15 -73t15 -74t40.5 -60.5t60.5 -40.5t74 -15z" />
    <glyph glyph-name="asterisk" unicode="*" horiz-adv-x="1285"
d="M420 592q-27 0 -49.5 11.5t-38.5 30t-24.5 40.5t-8.5 43q0 32 14.5 62t42.5 54l179 154l-240 23q-25 3 -49 13.5t-43 27t-30.5 39t-11.5 48.5q0 32 11.5 56t29.5 40.5t40.5 25t45.5 8.5q22 0 42.5 -7t41.5 -19l194 -116l-49 223q-4 15 -4 35q0 25 8 50t24 45t39.5 32
t53.5 12t54.5 -11.5t41 -30t25.5 -43.5t9 -52q0 -17 -5 -39l-54 -226l205 120q19 11 40 17.5t43 5.5q22 0 44.5 -7.5t40.5 -23t29.5 -39.5t11.5 -57q0 -26 -10.5 -49t-29 -40t-43 -28t-52.5 -13l-233 -19l178 -156q25 -22 40 -54t15 -64q0 -21 -9 -43t-25.5 -39t-39 -28
t-49.5 -11q-42 0 -77.5 26t-53.5 69l-89 213l-94 -216q-8 -19 -21.5 -36t-31 -30t-37.5 -20t-41 -7z" />
    <glyph glyph-name="copyright" unicode="&#xa9;" horiz-adv-x="2052"
d="M250 1282q0 49 17 91.5t46 74t67.5 50t82.5 18.5h1126q43 0 82 -18.5t68 -50t46 -74t17 -91.5v-1047q0 -48 -17 -91t-46 -75t-68 -50.5t-82 -18.5h-1126q-44 0 -82.5 18.5t-67.5 50.5t-46 75t-17 91v1047zM1619 140v1239h-1186v-1239h1186zM636 959q0 51 14 95.5t39 77
t57.5 51.5t70.5 19h429q37 0 69.5 -19t57.5 -51.5t39.5 -77t14.5 -95.5v-125h-226v205h-338v-553h338v123h226v-45q0 -50 -14.5 -94t-39 -76.5t-57 -51.5t-69.5 -19h-430q-38 0 -70.5 19t-57.5 51.5t-39 76.5t-14 94v395z" />
    <glyph glyph-name="registered" unicode="&#xae;" horiz-adv-x="2052"
d="M250 1282q0 49 17 91.5t46 74t67.5 50t82.5 18.5h1126q43 0 82 -18.5t68 -50t46 -74t17 -91.5v-1047q0 -48 -17 -91t-46 -75t-68 -50.5t-82 -18.5h-1126q-44 0 -82.5 18.5t-67.5 50.5t-46 75t-17 91v1047zM1619 140v1239h-1186v-1239h1186zM637 1201h594q38 0 73 -17.5
t62 -47.5t43.5 -71t16.5 -87v-64q0 -69 -33 -124.5t-95 -86.5q34 -17 58.5 -41.5t40.5 -53.5t24 -60t8 -59v-166h-229v310h-337l-1 -310h-225v878zM1201 776v262h-338v-262h338z" />
    <glyph glyph-name="section" unicode="&#xa7;" horiz-adv-x="1285"
d="M436 -16v-190h473v207l-512 252q-52 27 -83 90t-31 144v199q0 52 14.5 98t40 80t60 54t73.5 20h83l-195 79q-60 30 -96 91t-36 152v77q0 53 14.5 99.5t40 81t59.5 54t73 19.5h536q39 0 70 -19.5t52.5 -54t33.5 -81t12 -99.5v-107h-219v190h-463v-207l512 -252
q52 -27 83 -90t31 -144v-199q0 -52 -15 -98t-40.5 -80t-59.5 -54t-73 -20h-74l186 -79q60 -30 96 -91t36 -152v-77q0 -53 -14.5 -99.5t-40 -81t-59.5 -54t-73 -19.5h-536q-39 0 -70 19.5t-52.5 54t-33.5 81t-12 99.5v107h209zM838 431v352h-331v-352h331z" />
    <glyph glyph-name="dagger" unicode="&#x2020;" horiz-adv-x="1285"
d="M526 892h-348q3 32 17 60.5t36 49.5t49.5 33.5t57.5 12.5h188v530h238v-530h337q-3 -32 -17 -60.5t-36 -49.5t-49.5 -33.5t-57.5 -12.5h-177v-1161q0 -53 -16 -99.5t-43.5 -81t-64.5 -55t-78 -20.5h-36v1417z" />
    <glyph glyph-name="bar" unicode="|" horiz-adv-x="775"
d="M299 1735h177v-2089h-177v2089z" />
    <glyph glyph-name="bracketleft" unicode="[" horiz-adv-x="1113"
d="M317 1534q0 51 18 95.5t48.5 78t71 52.5t86.5 19h334v-145h-329v-1879h329v-147h-334q-46 0 -86.5 19.5t-71 53t-48.5 78t-18 95.5v1680z" />
    <glyph glyph-name="bracketright" unicode="]" horiz-adv-x="1113"
d="M566 -244v1878h-328v147h329q48 0 89.5 -19t72.5 -52.5t49 -78t18 -95.5v-1678q0 -51 -18 -96t-49 -78t-72.5 -52.5t-89.5 -19.5h-329v144h328z" />
    <glyph glyph-name="parenleft" unicode="(" horiz-adv-x="1076"
d="M317 960q0 174 42 320t117 253.5t177.5 171t222.5 72.5v-148q-69 -14 -129.5 -60.5t-105 -119.5t-70 -169.5t-25.5 -210.5v-750q0 -114 25.5 -210.5t70 -170t105 -120t129.5 -60.5v-146q-116 15 -218 80.5t-178 172.5t-119.5 250.5t-43.5 313.5v531z" />
    <glyph glyph-name="parenright" unicode=")" horiz-adv-x="1076"
d="M200 -242q69 14 129 61t104.5 120t70 169.5t25.5 210.5v750q0 114 -25.5 210t-70 169t-104.5 120t-129 61v148q119 -9 221.5 -73t177.5 -171.5t117.5 -253.5t42.5 -319v-531q0 -170 -44 -313.5t-120 -250.5t-178 -172.5t-217 -80.5v146v0z" />
    <glyph glyph-name="braceleft" unicode="{" horiz-adv-x="1225"
d="M466 466q0 41 -13 71.5t-36.5 52.5t-56 35t-70.5 19v99q40 4 72.5 17.5t55.5 36.5t35.5 56.5t12.5 79.5v316q0 115 43.5 208.5t119.5 162t178 109t218 49.5v-146q-69 -6 -129 -29.5t-105 -59.5t-70.5 -83t-25.5 -102v-408q0 -40 -16 -78t-44.5 -71t-68 -61t-85.5 -48
q47 -18 86.5 -45.5t68 -61.5t44 -72t15.5 -78v-414q0 -53 25.5 -99t70.5 -80.5t105 -57t129 -29.5v-146q-118 7 -220 46.5t-177.5 106.5t-118.5 160t-43 207v337z" />
    <glyph glyph-name="braceright" unicode="}" horiz-adv-x="1225"
d="M200 -245q69 7 129 29.5t105 57t70.5 80.5t25.5 99v414q0 40 16 78t44.5 72t68 61.5t85.5 45.5q-46 20 -85 48t-67.5 61t-45 71t-16.5 78v408q0 55 -25.5 102t-70.5 83t-105 59.5t-129 29.5v146q118 -7 220 -47t177.5 -108.5t118.5 -163t43 -210.5v-316q0 -46 12.5 -79.5
t35.5 -56.5t55.5 -36.5t72.5 -17.5v-99q-38 -6 -70.5 -19t-56 -35t-36.5 -52.5t-13 -71.5v-337q0 -113 -44 -205t-119.5 -159t-177.5 -107t-218 -49v146v0z" />
    <glyph glyph-name="currency" unicode="&#xa4;" horiz-adv-x="1385"
d="M333 304q-8 23 -12 49t-4 53v384q0 52 13 94l-182 175l92 87l158 -146q23 21 50.5 33t58.5 12h451q29 0 57 -12t51 -33l159 146l92 -87l-183 -176q14 -45 14 -93v-384q0 -28 -4 -53.5t-12 -48.5l185 -178l-92 -87l-166 152q-45 -39 -100 -39h-452q-55 0 -102 39
l-165 -152l-92 87zM910 325v549h-355v-549h355z" />
    <glyph glyph-name="cent" unicode="&#xa2;" horiz-adv-x="1385"
d="M277 894q0 53 15 99.5t40.5 81t59.5 54t73 19.5h202v260h156v-260h174q39 0 74 -19.5t61 -54t41 -81t15 -99.5l-1 -167h-238v252h-126v-705h126v116h238v-35q0 -52 -15 -98t-41 -80t-60.5 -54t-73.5 -20h-174v-259h-157v259h-201q-39 0 -73 20t-59.5 54t-40.5 80t-15 98
v539zM666 274v178.5t0.5 173.5t0.5 173.5v179.5h-151v-705h150z" />
    <glyph glyph-name="paragraph" unicode="&#xb6;" horiz-adv-x="1504"
d="M394 249q-39 0 -73.5 19.5t-60.5 54t-41 80t-15 98.5v760q0 53 15 99.5t41 81t60.5 54t73.5 19.5h1083q-4 -35 -19.5 -66.5t-39 -54.5t-53.5 -36.5t-63 -13.5h-68v-1353q0 -53 -16 -99.5t-43.5 -81t-64.5 -55t-78 -20.5h-16v1609h-212v-1358q0 -53 -16.5 -99.5t-44 -81
t-64.5 -55t-78 -20.5h-16v519h-191v0z" />
    <glyph glyph-name="Oslash" unicode="&#xd8;" horiz-adv-x="1359"
d="M267 59q-31 35 -49 85t-18 108v1010q0 53 15 99.5t40.5 81t59.5 54t73 19.5h556l94 201h161l-118 -251q35 -35 56.5 -88t21.5 -116l-1 -1010q0 -52 -15 -98t-41 -80t-60.5 -54t-73.5 -20h-577l-83 -177h-151zM866 1347h-427v-918zM920 171v952l-448 -952h448z" />
    <glyph glyph-name="AE" unicode="&#xc6;" horiz-adv-x="1834"
d="M251 512h-241q3 33 17 62.5t36.5 51t51 34.5t60.5 13h103l113 654q7 41 26.5 76t46 60t58.5 39t64 14h1092v-169h-556v-674h426v-161h-426v-341h675q-4 -35 -19.5 -66.5t-39 -54.5t-53.5 -36.5t-63 -13.5h-550q-40 0 -74.5 20t-60 54t-40.5 80t-15 98v260h-402
q-20 -131 -40.5 -259t-40.5 -253h-236zM882 673v674h-269l-107 -674h376z" />
    <glyph glyph-name="eth" unicode="&#xf0;"
d="M192 706q0 53 15 99.5t40.5 81t59.5 54t73 19.5h389l-227 285l-269 -93l-55 142l248 79l-176 220l171 88l191 -231l334 113l55 -142l-295 -100l296 -388q24 -35 38 -79.5t14 -95.5l-1 -506q0 -52 -15 -98t-41 -80t-60.5 -54t-73.5 -20h-523q-39 0 -73 20t-59.5 54
t-40.5 80t-15 98v454zM865 171v618h-444v-618h444z" />
    <glyph glyph-name="Thorn" unicode="&#xde;" horiz-adv-x="1345"
d="M231 307h-288q4 35 19.5 66t39 54.5t53.5 37t63 13.5h112v1038h239v-260h546q39 0 73.5 -19.5t60.5 -54t41 -81t15 -99.5v-443q0 -53 -15 -98.5t-41 -80t-60.5 -54t-73.5 -19.5h-544v-307h-240v307zM972 478v609h-502v-609h502z" />
    <glyph glyph-name="foundryicon" horiz-adv-x="2919"
d="M352 232q-41 0 -77.5 15.5t-63.5 42.5t-42.5 63.5t-15.5 77.5v657q0 41 15.5 77.5t42.5 63.5t63.5 42.5t77.5 15.5h856q41 0 77 -16t63 -43t42.5 -63t15.5 -77v-652q0 -47 -17.5 -84.5t-45 -64t-62.5 -41t-70 -14.5h-859zM2166 1284l430 1q36 0 62 -25.5t26 -61.5v-98
q0 -17 -7 -33t-19 -28t-28 -19t-34 -7l-215 1q-25 0 -44 11t-31 30v-510h-140v739zM1608 654h376v119q-5 -31 -29 -52t-57 -21h-204q-17 0 -32.5 7t-27.5 19t-19 27.5t-7 33.5v70h-33v110h33v271l139 46v-317h194v-110h-194v-47h237v245q-8 -20 -28 -30.5t-41 -10.5h-29
q-18 0 -34 7t-27.5 19t-18 27.5t-6.5 33.5v183h138v-156h46v156h140v-652q0 -36 -25 -61.5t-62 -25.5h-342q-18 0 -33.5 7t-27.5 18.5t-19 27.5t-7 34v22zM2544 1128v48h-238v-48h238zM923 593q0 -24 7 -44.5t18.5 -36t27 -24.5t33.5 -9h112q29 0 51.5 22t27.5 54h-169v323
h129v69h-129v177l-108 -53v-124h-77v-69h77v-285zM439 479l134 368q5 -31 18.5 -51.5t25.5 -34.5q20 -22 36.5 -49t14.5 -64q-4 -47 -27.5 -67.5t-52.5 -23.5q-3 -31 11.5 -54.5t55.5 -23.5h127q28 0 50 21.5t31 56.5h-166q34 9 58 37.5t26 66.5q1 26 -6.5 50.5t-20 47
t-29 41.5t-34.5 34q-16 13 -31 25t-26.5 24t-18 25t-5.5 30q1 6 3 15.5t6 19.5h-103l-183 -494h106zM2350 879q0 18 7 34t19 28t28 19t33 7h160q36 0 62 -25.5t26 -62.5v-178h-194v-47h194v-22q0 -36 -26 -61.5t-62 -25.5h-160q-35 0 -61 25t-26 62v247zM2545 810v47h-54
v-47h54zM1607 409q0 18 7 34t19 27.5t27.5 18.5t33.5 7h338q37 0 62 -25.5t25 -61.5v-22h-372v-47h420v70q0 18 7 33.5t18.5 27.5t27 19t33.5 7h344q18 0 34 -7t28 -19t19 -27.5t7 -33.5v-92q0 -36 -26 -61.5t-62 -25.5h-344q-35 0 -60 24.5t-26 59.5q-1 -17 -8 -32.5
t-18.5 -26.5t-27 -17.5t-33.5 -6.5l-386 -1q-18 0 -33.5 7t-27.5 18.5t-19 27.5t-7 34v91zM2545 340v47h-238v-47h238z" />
    <glyph glyph-name="Lslash" unicode="&#x141;" horiz-adv-x="1193"
d="M30 0q3 34 18.5 65.5t39 54.5t53.5 37t64 14h62v468l-237 -76v169l237 76v454q0 53 15 99.5t40.5 81t60 54t73.5 19.5h320v-159h-271v-473l355 115v-169l-355 -115v-299q0 -52 -14.5 -95t-36 -75t-47.5 -51.5t-49 -23.5h586v200h211v-201q0 -36 -15 -67t-39.5 -54
t-56 -36t-64.5 -13h-950v0z" />
    <glyph glyph-name="Eth" unicode="&#xd0;" horiz-adv-x="1387"
d="M244 549h-193v154h193v279q0 52 15.5 97.5t42 80t61.5 54.5t75 20h45v-531h241v-154h-241v-378h461v1176h-894q3 35 18.5 66t39 54t53.5 36t64 13h768q39 0 74 -19.5t60.5 -54t40.5 -81t15 -99.5v-1010q0 -52 -15 -98t-40.5 -80t-60 -54t-73.5 -20h-749z" />
    <glyph glyph-name="nonbreakingspace" unicode="&#xa0;" horiz-adv-x="694"
 />
    <glyph glyph-name="nonmarkingreturn" unicode="&#xd;" horiz-adv-x="531"
 />
    <glyph glyph-name="underscore" unicode="_" horiz-adv-x="1529"
d="M1608 -127v-128h-1686v128h1686z" />
    <glyph glyph-name="asciicircum" unicode="^" horiz-adv-x="1285"
d="M567 1515h202q89 -265 177.5 -524t178.5 -524h-215l-242 816l-236 -816h-205z" />
    <glyph glyph-name="kgreenlandic" unicode="&#x138;" horiz-adv-x="1221"
d="M220 1047h239v-452h165l187 452h251l-201 -449q40 -7 75 -29.5t60.5 -57t40 -78t14.5 -92.5v-170h190q-4 -35 -19.5 -66.5t-39 -54.5t-53.5 -36.5t-63 -13.5h-63q-39 0 -73.5 20t-60.5 54.5t-41 80.5t-15 99v173h-354v-427h-239v1047z" />
    <glyph glyph-name="brokenbar" unicode="&#xa6;" horiz-adv-x="775"
d="M299 1735h177v-843h-177v843zM299 510h177v-864h-177v864z" />
    <glyph glyph-name="backslash" unicode="\" horiz-adv-x="1219"
d="M150 1769h170q188 -489 374.5 -973t374.5 -972h-173z" />
    <glyph glyph-name="exclamdown" unicode="&#xa1;" horiz-adv-x="775"
d="M387 1206q-35 0 -65.5 13t-53.5 36t-36 53.5t-13 65.5t13 65.5t36 53.5t53.5 36.5t65.5 13.5t65.5 -13.5t53.5 -36.5t36.5 -53.5t13.5 -65.5t-13.5 -65.5t-36.5 -53.5t-54 -36t-65 -13zM222 178q0 19 2 38.5t4 33.5l97 777h115l101 -774q2 -18 3.5 -37.5t1.5 -39.5
q0 -39 -12.5 -73t-35 -59.5t-52.5 -40t-64 -14.5t-63 15t-50.5 40.5t-34 60t-12.5 73.5z" />
    <glyph glyph-name="questiondown" unicode="&#xbf;" horiz-adv-x="1113"
d="M589 1190q-35 0 -65.5 13t-53.5 36t-36 53.5t-13 65.5t13 65.5t36 53.5t53.5 36.5t65.5 13.5t65.5 -13.5t53.5 -36.5t36.5 -53.5t13.5 -65.5t-13.5 -65.5t-36.5 -53.5t-54 -36t-65 -13zM113 462q0 38 8.5 75t24 68t37 55t46.5 37l243 124v174h238v-124q0 -39 -7.5 -75
t-21.5 -66.5t-34 -53.5t-45 -36l-250 -127v-341h410v213h239v-131q0 -53 -15 -99t-40.5 -80.5t-60 -54.5t-74.5 -20h-508q-39 0 -74 20t-60.5 54.5t-40.5 80.5t-15 99v208z" />
    <glyph glyph-name="quoteleft" unicode="&#x2018;" horiz-adv-x="557"
d="M259 898q-35 0 -65.5 13t-53.5 36t-36.5 54t-13.5 66q0 43 9.5 81.5t27.5 74.5t43.5 72.5t58.5 76.5l114 143l94 -45l-91 -258q37 -22 59.5 -59.5t22.5 -85.5q0 -35 -13 -66t-35.5 -54t-53.5 -36t-67 -13z" />
    <glyph glyph-name="quoteright" unicode="&#x2019;" horiz-adv-x="557"
d="M120 943l91 258q-37 22 -59.5 59.5t-22.5 85.5q0 35 13 66t35.5 54t53.5 36t67 13q35 0 65.5 -13t53.5 -36t36.5 -54t13.5 -66q0 -44 -9.5 -82t-27.5 -74t-43.5 -72.5t-58.5 -76.5l-114 -143z" />
    <glyph glyph-name="quotesinglbase" unicode="&#x201a;" horiz-adv-x="557"
d="M129 157q0 35 13 66t35.5 54t53.5 36t67 13q35 0 65.5 -13t53.5 -36t36.5 -54t13.5 -66q0 -44 -9.5 -82t-27.5 -74t-43.5 -72.5t-58.5 -76.5l-114 -143l-94 45l91 258q-37 22 -59.5 59.5t-22.5 85.5z" />
    <glyph glyph-name="quotedblbase" unicode="&#x201e;" horiz-adv-x="1072"
d="M644 157q0 35 13 66t35.5 54t53.5 36t67 13q35 0 65.5 -13t53.5 -36t36.5 -54t13.5 -66q0 -44 -9.5 -81.5t-27.5 -74t-44 -73t-58 -76.5l-114 -143l-94 45l91 258q-37 22 -59.5 59.5t-22.5 85.5zM129 157q0 35 13 66t35.5 54t53.5 36t67 13q35 0 65.5 -13t53.5 -36
t36.5 -54t13.5 -66q0 -44 -9.5 -81.5t-27.5 -74t-44 -73t-58 -76.5l-114 -143l-94 45l91 258q-37 22 -59.5 59.5t-22.5 85.5z" />
    <glyph glyph-name="lozenge" unicode="&#x25ca;" horiz-adv-x="1285"
d="M130 762l380 754h229l374 -754l-372 -762h-229zM891 762l-270 574l-278 -574l277 -582z" />
    <glyph glyph-name="dotaccent" unicode="&#x2d9;" horiz-adv-x="633"
d="M317 1319q-36 0 -67 12t-53 34.5t-34.5 53t-12.5 68.5q0 37 12.5 68.5t34.5 55t53 36.5t67 13q34 0 64.5 -13t53 -36.5t35.5 -55t13 -68.5q0 -38 -13 -68.5t-35.5 -53t-53 -34.5t-64.5 -12z" />
    <glyph glyph-name="hungarumlaut" unicode="&#x2dd;" horiz-adv-x="1213"
d="M150 1391l136 362q18 48 54.5 75.5t80.5 27.5q38 0 75 -22q34 -21 50 -53.5t16 -69.5q0 -32 -12 -64.5t-35 -58.5l-241 -272zM633 1385l158 349q19 45 54.5 70.5t77.5 25.5t82 -28q30 -22 44 -53t14 -65q0 -35 -14 -69.5t-41 -61.5l-249 -249z" />
    <glyph glyph-name="breve" unicode="&#x2d8;" horiz-adv-x="1109"
d="M509 1248q-75 0 -140 28.5t-114 80t-77 122.5t-28 156h151q0 -27 18.5 -55.5t50.5 -52.5t73.5 -39t88.5 -15h46q46 0 88 15t73.5 39t50.5 52.5t19 55.5h150q0 -85 -28 -156t-77 -122.5t-114 -80t-140 -28.5h-91v0z" />
    <glyph glyph-name="ogonek" unicode="&#x2db;" horiz-adv-x="863"
d="M512 111l166 -52l-347 -360h382v-208h-400q-34 0 -64 14t-52 38t-34.5 55t-12.5 65q0 45 13 74.5t36 55.5z" />
    <glyph glyph-name="perthousand" unicode="&#x2030;" horiz-adv-x="2675"
d="M1934 414q0 33 11.5 62t31.5 50.5t47 34t58 12.5l332 -1q31 0 58 -12.5t47 -34t32 -50.5t12 -62v-255q0 -33 -11.5 -62t-31.5 -50.5t-47 -34t-58 -12.5l-332 1q-31 0 -58 12.5t-47.5 34t-32 50.5t-11.5 62v255zM2352 108v356h-206v-356h206zM1285 1311h177l-806 -1370
h-178zM329 615q-31 0 -58 12.5t-47.5 34t-32 50.5t-11.5 62v305q0 33 11.5 62t31.5 50.5t47 34t58 12.5l362 -1q31 0 58 -12.5t47 -34t32 -50.5t12 -62v-305q0 -33 -11.5 -62t-31.5 -50.5t-47 -34t-58 -12.5zM628 723v406h-236v-406h236zM1096 464q0 33 11.5 62t31.5 50.5
t47 34t58 12.5l362 -1q31 0 58 -12.5t47 -34t32 -50.5t12 -62v-305q0 -33 -11.5 -62t-31.5 -50.5t-47 -34t-58 -12.5l-362 1q-31 0 -58 12.5t-47.5 34t-32 50.5t-11.5 62v305zM1544 108v406h-236v-406h236z" />
    <glyph glyph-name="trademark" unicode="&#x2122;" horiz-adv-x="1802"
d="M877 1516h131v-107l122 78q16 14 34 21.5t45 7.5q20 0 38.5 -8t32.5 -21t22.5 -31t8.5 -37v-11l124 79q16 14 32.5 21.5t44.5 7.5q20 0 38.5 -8t33 -21t23 -31t8.5 -37v-464h-133v455l-171 -106v-349h-131v455l-172 -105v-350h-131v561zM338 1421h-179l1 95h491v-95h-179
v-466h-134v466z" />
    <glyph glyph-name="daggerdbl" unicode="&#x2021;" horiz-adv-x="1285"
d="M177 527q3 32 17 60.5t36 49.5t49.5 33.5t57.5 12.5h188v209h-348q3 32 17 60.5t36 49.5t49.5 33.5t57.5 12.5h188v530h238v-530h337q-3 -32 -17 -60.5t-36 -49.5t-49.5 -33.5t-57.5 -12.5h-177v-209h337q-3 -32 -17 -60.5t-36 -49.5t-49.5 -33.5t-57.5 -12.5h-177v-796
q0 -53 -16 -99.5t-43.5 -81t-64.5 -55t-78 -20.5h-36v1052h-348v0z" />
    <glyph glyph-name="notequal" unicode="&#x2260;" horiz-adv-x="1285"
d="M250 376h294l118 307h-412v176h479l101 262h172l-101 -262h224v-176h-291l-118 -307h409v-175h-476l-99 -260h-173l100 260h-227v175z" />
    <glyph glyph-name="lessequal" unicode="&#x2264;" horiz-adv-x="1285"
d="M179 807q107 33 211 65t207.5 64l207 64t210.5 65v-182l-648 -168q75 -20 162.5 -43t174.5 -46t168 -44.5t143 -37.5v-181l-836 258v186zM179 259h836v-176h-836v176z" />
    <glyph glyph-name="greaterequal" unicode="&#x2265;" horiz-adv-x="1285"
d="M270 544q62 16 143 37.5t168 44.5t174.5 46t162.5 43l-648 168v182q107 -33 210.5 -65l207 -64t207.5 -64t211 -65v-186l-836 -258v181zM270 259h836v-176h-836v176z" />
    <glyph glyph-name="lcaron" unicode="&#x13e;" horiz-adv-x="651"
d="M172 1591h239v-1420h213q-6 -40 -22.5 -72t-40 -54t-53 -33.5t-61.5 -11.5h-84q-39 0 -74 20t-61 54.5t-41 80.5t-15 99v1337zM595 1491q6 27 23 40.5t57 13.5q35 0 62 -1t45 -9.5t27.5 -27.5t9.5 -54q0 -41 -6.5 -79.5t-19.5 -77.5t-33 -81.5t-46 -90.5h-134z" />
    <glyph glyph-name="Lcaron" unicode="&#x13d;" horiz-adv-x="1193"
d="M50 0q3 34 18.5 65.5t39 54.5t53.5 37t64 14h42v1091q0 53 15 99.5t40.5 81t60 54t73.5 19.5h320v-159h-271v-941q0 -52 -14.5 -95t-36 -75t-47.5 -51.5t-49 -23.5h586v220h211v-221q0 -36 -15 -67t-39.5 -54t-56 -36t-64.5 -13h-930v0zM913 1491q6 27 23 40.5t57 13.5
q35 0 62 -1t45 -9.5t27.5 -27.5t9.5 -54q0 -41 -6.5 -79.5t-19.5 -77.5t-33 -81.5t-46 -90.5h-134z" />
    <glyph glyph-name="Ldot" unicode="&#x13f;" horiz-adv-x="1193"
d="M863 792q0 37 12.5 68.5t34.5 55t53 36.5t67 13q34 0 64.5 -13t53 -36.5t35.5 -55t13 -68.5q0 -38 -13 -68.5t-35.5 -53t-53 -34.5t-64.5 -12q-36 0 -67 12t-53 34.5t-34.5 53t-12.5 68.5zM50 0q3 34 18.5 65.5t39 54.5t53.5 37t64 14h42v1091q0 53 15 99.5t40.5 81
t60 54t73.5 19.5h320v-159h-271v-941q0 -52 -14.5 -95t-36 -75t-47.5 -51.5t-49 -23.5h586v220h211v-221q0 -36 -15 -67t-39.5 -54t-56 -36t-64.5 -13h-930z" />
    <glyph glyph-name="OE" unicode="&#x152;" horiz-adv-x="1862"
d="M200 1262q0 53 15 99.5t40.5 81t59.5 54t73 19.5h489q49 0 93 -33.5t73 -90.5q29 57 73 90.5t93 33.5h527v-173h-576v-588h446v-161h-446v-423h665q-4 -35 -19.5 -66.5t-39 -54.5t-53.5 -36.5t-63 -13.5h-447q-49 0 -93 33.5t-73 90.5q-29 -57 -73 -90.5t-93 -33.5h-483
q-39 0 -73 20t-59.5 54t-40.5 80t-15 98v1010zM920 171v1172h-481v-1172h481z" />
    <glyph glyph-name="hbar" unicode="&#x127;" horiz-adv-x="1247"
d="M192 1237h-191v154h191v199h239v-199h412v-154h-412v-304q28 54 69.5 84t90.5 30h273q39 0 73.5 -20t60.5 -54.5t41 -80.5t15 -99v-622h214q-4 -35 -19.5 -66.5t-38.5 -54.5t-53 -36.5t-62 -13.5h-89q-39 0 -74 20t-61 54.5t-41 80.5t-15 99v622h-384v-876h-239v1237z
" />
    <glyph glyph-name="ldot" unicode="&#x140;" horiz-adv-x="863"
d="M728 583q-36 0 -67 12t-53 34.5t-34.5 53t-12.5 68.5q0 37 12.5 68.5t34.5 55t53 36.5t67 13q34 0 64.5 -13t53 -36.5t35.5 -55t13 -68.5q0 -38 -13 -68.5t-35.5 -53t-53 -34.5t-64.5 -12zM172 1591h239v-1420h213q-6 -40 -22.5 -72t-40 -54t-53 -33.5t-61.5 -11.5h-84
q-39 0 -74 20t-61 54.5t-41 80.5t-15 99v1337z" />
    <glyph glyph-name="oe" unicode="&#x153;" horiz-adv-x="1997"
d="M192 793q0 53 15 99.5t40.5 81t59.5 54t73 19.5h460q49 0 93 -33.5t73 -90.5q29 57 73 90.5t93 33.5h463q39 0 73.5 -20t60.5 -54.5t41 -80.5t15 -99v-333h-702v-289h754q-4 -35 -19.5 -66.5t-39 -54.5t-53.5 -36.5t-63 -13.5h-536q-49 0 -93 33.5t-73 90.5
q-29 -57 -73 -90.5t-93 -33.5h-454q-39 0 -73 20t-59.5 54t-40.5 80t-15 98v541zM1586 600v276h-463v-276h463zM883 171v705h-452v-705h452z" />
    <glyph glyph-name="lslash" unicode="&#x142;" horiz-adv-x="609"
d="M186 753l-118 -40v171l118 40v667h239v-584l215 74v-171l-215 -74v-665h213q-6 -40 -22.5 -72t-40 -54t-53 -33.5t-61.5 -11.5h-84q-39 0 -74 20t-61 54.5t-41 80.5t-15 99v499z" />
    <glyph glyph-name="uni1E9E" unicode="&#x1e9e;" horiz-adv-x="1359"
d="M459 -269q0 -53 -16 -99.5t-43.5 -81t-64.5 -55t-78 -20.5h-37v1786q0 53 15 99.5t40.5 81t59.5 54t73 19.5h573q37 0 69.5 -15t56.5 -40.5t38 -59.5t14 -73q0 -23 -7.5 -51t-17.5 -44l-206 -346h60q39 0 74 -19.5t61 -54t41 -81t15 -99.5l-1 -380q0 -52 -15 -98t-41 -80
t-60.5 -54t-73.5 -20h-321v171h273v546h-274v132l274 497h-481v-1615v0z" />
    <glyph glyph-name="itilde" unicode="&#x129;" horiz-adv-x="612"
d="M-116 1349q4 28 8.5 48t10.5 48q9 45 37 82t68.5 64t91 41.5t104.5 14.5q43 0 84 -12.5t76.5 -35t64.5 -53.5t49 -68h101l54 110h136q-2 -20 -5 -38q-2 -16 -5.5 -31.5t-5.5 -26.5q-11 -46 -39.5 -83.5t-69 -64t-90 -40.5t-103.5 -14q-46 0 -88.5 12.5t-79.5 35
t-66.5 53.5t-49.5 68h-92l-55 -110h-136zM180 1047h239v-876h214q-3 -35 -18.5 -66.5t-39 -54.5t-53.5 -36.5t-63 -13.5h-88q-39 0 -74 20t-61 54.5t-41 80.5t-15 99v793z" />
    <glyph glyph-name="Ccedilla" unicode="&#xc7;" horiz-adv-x="1328"
d="M200 1262q0 53 15 99.5t41 81t60 54t73 19.5h556q39 0 73.5 -19.5t60.5 -54t41 -81t15 -99.5v-391h-238v476h-460v-1176h770q-4 -35 -19.5 -66.5t-39 -54.5t-53.5 -36.5t-63 -13.5h-643q-39 0 -73 20t-60 54t-41 80t-15 98v1010zM714 -111h127q34 0 63.5 -16.5t52 -44.5
t35.5 -65.5t13 -80.5q0 -42 -13 -79.5t-35.5 -65t-52 -44t-63.5 -16.5h-485q4 35 19 66t38.5 54t54 36.5t63.5 13.5h269v116h-206v222h120v-96z" />
    <glyph glyph-name="jcircumflex" unicode="&#x135;" horiz-adv-x="592"
d="M192 -368v1415h239v-1332q0 -53 -15 -99.5t-40.5 -81t-60 -55t-73.5 -20.5h-196v173h146zM311 1407q-84 -46 -170.5 -95t-171.5 -97q-22 31 -40.5 54t-39.5 52l265 253q41 38 79.5 56t77.5 18q35 0 74.5 -17.5t80.5 -56.5l265 -253q-12 -16 -22.5 -28.5t-20 -24.5
t-19.5 -24.5t-22 -28.5z" />
    <glyph glyph-name="kcommaaccent" unicode="&#x137;" horiz-adv-x="1263"
d="M192 1591h239v-966h195l227 422h251l-241 -419q40 -7 75 -29.5t60.5 -57t40 -78t14.5 -92.5v-200h230q-4 -35 -19.5 -66.5t-39 -54.5t-53.5 -36.5t-63 -13.5h-103q-39 0 -73.5 20t-60.5 54.5t-41 80.5t-15 99v203h-384v-457h-239v1591zM615 -139q35 0 65.5 -13
t53.5 -35.5t36.5 -53.5t13.5 -66q0 -44 -16.5 -84.5t-46 -82.5t-69.5 -86.5t-88 -95.5l-94 45l68 179q-42 19 -67 51t-25 74q0 35 13 66t35.5 53.5t53.5 35.5t67 13z" />
    <glyph glyph-name="ccedilla" unicode="&#xe7;" horiz-adv-x="1269"
d="M192 793q0 53 15 99t40.5 80.5t60.5 54.5t74 20h526q39 0 73.5 -20t60.5 -54.5t41 -80.5t15 -99v-186h-239v269h-429v-705h700q-4 -35 -19.5 -66t-39 -54t-53.5 -36.5t-63 -14.5h-573q-39 -1 -74 19t-60.5 54.5t-40.5 81t-15 99.5v539zM700 -96h127q34 0 63.5 -16.5
t52 -44.5t35.5 -65.5t13 -80.5q0 -42 -13 -79.5t-35.5 -65t-52 -44t-63.5 -16.5h-485q4 35 19 66t38.5 54t54 36.5t63.5 13.5h269v116h-206v222h120v-96z" />
    <glyph glyph-name="egrave" unicode="&#xe8;"
d="M192 793q0 53 15 99t40.5 80.5t60.5 54.5t74 20h531q39 0 73.5 -20t60.5 -54.5t41 -80.5t15 -99v-333h-672v-289h734q-4 -35 -19.5 -66.5t-39 -54.5t-53.5 -36.5t-63 -13.5h-608q-39 0 -74 20t-60.5 54.5t-40.5 80.5t-15 99v539zM864 600v276h-433v-276h433zM368 1393
q-26 7 -49 22t-39.5 35.5t-26 45t-9.5 51.5q0 30 13 59q19 42 51.5 64t70.5 22q46 0 93 -33l381 -274l-61 -105z" />
    <glyph glyph-name="eacute" unicode="&#xe9;"
d="M192 793q0 53 15 99t40.5 80.5t60.5 54.5t74 20h531q39 0 73.5 -20t60.5 -54.5t41 -80.5t15 -99v-333h-672v-289h734q-4 -35 -19.5 -66.5t-39 -54.5t-53.5 -36.5t-63 -13.5h-608q-39 0 -74 20t-60.5 54.5t-40.5 80.5t-15 99v539zM864 600v276h-433v-276h433zM432 1385
l381 274q46 33 93 33q38 0 70.5 -22t51.5 -64q13 -29 13 -59q0 -27 -9.5 -51.5t-26 -45t-39.5 -35.5t-49 -22l-424 -113z" />
    <glyph glyph-name="ecircumflex" unicode="&#xea;"
d="M192 793q0 53 15 99t40.5 80.5t60.5 54.5t74 20h531q39 0 73.5 -20t60.5 -54.5t41 -80.5t15 -99v-333h-672v-289h734q-4 -35 -19.5 -66.5t-39 -54.5t-53.5 -36.5t-63 -13.5h-608q-39 0 -74 20t-60.5 54.5t-40.5 80.5t-15 99v539zM864 600v276h-433v-276h433zM643 1407
q-84 -46 -170.5 -95t-171.5 -97q-22 31 -40.5 54t-39.5 52l265 253q41 38 79.5 56t77.5 18q35 0 74.5 -17.5t80.5 -56.5l265 -253q-12 -16 -22.5 -28.5t-20 -24.5t-19.5 -24.5t-22 -28.5z" />
    <glyph glyph-name="edieresis" unicode="&#xeb;"
d="M192 793q0 53 15 99t40.5 80.5t60.5 54.5t74 20h531q39 0 73.5 -20t60.5 -54.5t41 -80.5t15 -99v-333h-672v-289h734q-4 -35 -19.5 -66.5t-39 -54.5t-53.5 -36.5t-63 -13.5h-608q-39 0 -74 20t-60.5 54.5t-40.5 80.5t-15 99v539zM864 600v276h-433v-276h433zM921 1288
q-36 0 -67 12t-53 34.5t-34.5 53t-12.5 68.5q0 37 12.5 68.5t34.5 55t53 36.5t67 13q34 0 64.5 -13t53 -36.5t35.5 -55t13 -68.5q0 -38 -13 -68.5t-35.5 -53t-53 -34.5t-64.5 -12zM387 1288q-36 0 -67 12t-53 34.5t-34.5 53t-12.5 68.5q0 37 12.5 68.5t34.5 55t53 36.5
t67 13q34 0 64.5 -13t53 -36.5t35.5 -55t13 -68.5q0 -38 -13 -68.5t-35.5 -53t-53 -34.5t-64.5 -12z" />
    <glyph glyph-name="igrave" unicode="&#xec;" horiz-adv-x="612"
d="M180 1047h239v-876h214q-3 -35 -18.5 -66.5t-39 -54.5t-53.5 -36.5t-63 -13.5h-88q-39 0 -74 20t-61 54.5t-41 80.5t-15 99v793zM51 1393q-26 7 -49 22t-39.5 35.5t-26 45t-9.5 51.5q0 30 13 59q19 42 51.5 64t70.5 22q46 0 93 -33l381 -274l-61 -105z" />
    <glyph glyph-name="iacute" unicode="&#xed;" horiz-adv-x="612"
d="M180 1047h239v-876h214q-3 -35 -18.5 -66.5t-39 -54.5t-53.5 -36.5t-63 -13.5h-88q-39 0 -74 20t-61 54.5t-41 80.5t-15 99v793zM115 1385l381 274q46 33 93 33q38 0 70.5 -22t51.5 -64q13 -29 13 -59q0 -27 -9.5 -51.5t-26 -45t-39.5 -35.5t-49 -22l-424 -113z" />
    <glyph glyph-name="icircumflex" unicode="&#xee;" horiz-adv-x="612"
d="M180 1047h239v-876h214q-3 -35 -18.5 -66.5t-39 -54.5t-53.5 -36.5t-63 -13.5h-88q-39 0 -74 20t-61 54.5t-41 80.5t-15 99v793zM326 1407q-84 -46 -170.5 -95t-171.5 -97q-22 31 -40.5 54t-39.5 52l265 253q41 38 79.5 56t77.5 18q35 0 74.5 -17.5t80.5 -56.5l265 -253
q-12 -16 -22.5 -28.5t-20 -24.5t-19.5 -24.5t-22 -28.5z" />
    <glyph glyph-name="idieresis" unicode="&#xef;" horiz-adv-x="612"
d="M180 1047h239v-876h214q-3 -35 -18.5 -66.5t-39 -54.5t-53.5 -36.5t-63 -13.5h-88q-39 0 -74 20t-61 54.5t-41 80.5t-15 99v793zM604 1288q-36 0 -67 12t-53 34.5t-34.5 53t-12.5 68.5q0 37 12.5 68.5t34.5 55t53 36.5t67 13q34 0 64.5 -13t53 -36.5t35.5 -55t13 -68.5
q0 -38 -13 -68.5t-35.5 -53t-53 -34.5t-64.5 -12zM70 1288q-36 0 -67 12t-53 34.5t-34.5 53t-12.5 68.5q0 37 12.5 68.5t34.5 55t53 36.5t67 13q34 0 64.5 -13t53 -36.5t35.5 -55t13 -68.5q0 -38 -13 -68.5t-35.5 -53t-53 -34.5t-64.5 -12z" />
    <glyph glyph-name="ograve" unicode="&#xf2;"
d="M192 793q0 53 15 99.5t40.5 81t59.5 54t73 19.5h838q-4 -35 -19.5 -66.5t-39 -54.5t-53.5 -36.5t-63 -13.5h-63q19 -14 37.5 -36t33 -51t23 -63.5t8.5 -74.5v-399q0 -52 -15 -98t-41 -80t-60.5 -54t-73.5 -20h-512q-39 0 -73 20t-59.5 54t-40.5 80t-15 98v541zM843 171
v705h-412v-705h412zM369 1393q-26 7 -49 22t-39.5 35.5t-26 45t-9.5 51.5q0 30 13 59q19 42 51.5 64t70.5 22q46 0 93 -33l381 -274l-61 -105z" />
    <glyph glyph-name="oacute" unicode="&#xf3;"
d="M192 793q0 53 15 99.5t40.5 81t59.5 54t73 19.5h838q-4 -35 -19.5 -66.5t-39 -54.5t-53.5 -36.5t-63 -13.5h-63q19 -14 37.5 -36t33 -51t23 -63.5t8.5 -74.5v-399q0 -52 -15 -98t-41 -80t-60.5 -54t-73.5 -20h-512q-39 0 -73 20t-59.5 54t-40.5 80t-15 98v541zM843 171
v705h-412v-705h412zM433 1385l381 274q46 33 93 33q38 0 70.5 -22t51.5 -64q13 -29 13 -59q0 -27 -9.5 -51.5t-26 -45t-39.5 -35.5t-49 -22l-424 -113z" />
    <glyph glyph-name="ocircumflex" unicode="&#xf4;"
d="M192 793q0 53 15 99.5t40.5 81t59.5 54t73 19.5h838q-4 -35 -19.5 -66.5t-39 -54.5t-53.5 -36.5t-63 -13.5h-63q19 -14 37.5 -36t33 -51t23 -63.5t8.5 -74.5v-399q0 -52 -15 -98t-41 -80t-60.5 -54t-73.5 -20h-512q-39 0 -73 20t-59.5 54t-40.5 80t-15 98v541zM843 171
v705h-412v-705h412zM644 1407q-84 -46 -170.5 -95t-171.5 -97q-22 31 -40.5 54t-39.5 52l265 253q41 38 79.5 56t77.5 18q35 0 74.5 -17.5t80.5 -56.5l265 -253q-12 -16 -22.5 -28.5t-20 -24.5t-19.5 -24.5t-22 -28.5z" />
    <glyph glyph-name="otilde" unicode="&#xf5;"
d="M192 793q0 53 15 99.5t40.5 81t59.5 54t73 19.5h838q-4 -35 -19.5 -66.5t-39 -54.5t-53.5 -36.5t-63 -13.5h-63q19 -14 37.5 -36t33 -51t23 -63.5t8.5 -74.5v-399q0 -52 -15 -98t-41 -80t-60.5 -54t-73.5 -20h-512q-39 0 -73 20t-59.5 54t-40.5 80t-15 98v541zM843 171
v705h-412v-705h412zM769 1290q-46 0 -88.5 12.5t-79.5 35t-66.5 53.5t-49.5 68h-92l-55 -110h-136q4 28 8.5 48t10.5 48q9 45 37 82t68.5 64t91 41.5t104.5 14.5q43 0 84 -12.5t76.5 -35t64.5 -53.5t49 -68h101l54 110h136q-2 -20 -5 -38q-2 -16 -5.5 -31.5t-5.5 -26.5
q-11 -46 -39.5 -83.5t-69 -64t-90 -40.5t-103.5 -14z" />
    <glyph glyph-name="odieresis" unicode="&#xf6;"
d="M192 793q0 53 15 99.5t40.5 81t59.5 54t73 19.5h838q-4 -35 -19.5 -66.5t-39 -54.5t-53.5 -36.5t-63 -13.5h-63q19 -14 37.5 -36t33 -51t23 -63.5t8.5 -74.5v-399q0 -52 -15 -98t-41 -80t-60.5 -54t-73.5 -20h-512q-39 0 -73 20t-59.5 54t-40.5 80t-15 98v541zM843 171
v705h-412v-705h412zM922 1288q-36 0 -67 12t-53 34.5t-34.5 53t-12.5 68.5q0 37 12.5 68.5t34.5 55t53 36.5t67 13q34 0 64.5 -13t53 -36.5t35.5 -55t13 -68.5q0 -38 -13 -68.5t-35.5 -53t-53 -34.5t-64.5 -12zM388 1288q-36 0 -67 12t-53 34.5t-34.5 53t-12.5 68.5
q0 37 12.5 68.5t34.5 55t53 36.5t67 13q34 0 64.5 -13t53 -36.5t35.5 -55t13 -68.5q0 -38 -13 -68.5t-35.5 -53t-53 -34.5t-64.5 -12z" />
    <glyph glyph-name="rcaron" unicode="&#x159;"
d="M192 1157h240v-110h754q-4 -35 -19.5 -66.5t-38.5 -54.5t-52.5 -36.5t-60.5 -13.5v-705h232q-4 -35 -19.5 -66.5t-39.5 -54.5t-55 -36.5t-66 -13.5h-100q-39 0 -74 20t-61 54.5t-41 80.5t-15 99v622h-346v-876h-238v1157zM633 1287q-35 0 -74.5 17.5t-80.5 56.5l-265 253
q12 16 22.5 28.5t20 24.5t19.5 24.5t22 28.5l336 -192q84 46 170.5 95t171.5 97q22 -31 40.5 -54t39.5 -52l-265 -253q-41 -38 -79.5 -56t-77.5 -18z" />
    <glyph glyph-name="nacute" unicode="&#x144;" horiz-adv-x="1311"
d="M220 1047h239v-396l309 320q32 37 66.5 57t82.5 20q40 0 77 -20t65 -54.5t44.5 -80.5t16.5 -99v-622h202q-4 -36 -19.5 -67t-39 -54.5t-53.5 -37t-63 -13.5h-78q-40 0 -74.5 20t-60 54.5t-40.5 80.5t-15 99v608l-420 -432v-430h-239v1047zM488 1385l381 274q46 33 93 33
q38 0 70.5 -22t51.5 -64q13 -29 13 -59q0 -27 -9.5 -51.5t-26 -45t-39.5 -35.5t-49 -22l-424 -113z" />
    <glyph glyph-name="ntilde" unicode="&#xf1;" horiz-adv-x="1311"
d="M220 1047h239v-396l309 320q32 37 66.5 57t82.5 20q40 0 77 -20t65 -54.5t44.5 -80.5t16.5 -99v-622h202q-4 -36 -19.5 -67t-39 -54.5t-53.5 -37t-63 -13.5h-78q-40 0 -74.5 20t-60 54.5t-40.5 80.5t-15 99v608l-420 -432v-430h-239v1047zM824 1290q-46 0 -88.5 12.5
t-79.5 35t-66.5 53.5t-49.5 68h-92l-55 -110h-136q4 28 8.5 48t10.5 48q9 45 37 82t68.5 64t91 41.5t104.5 14.5q43 0 84 -12.5t76.5 -35t64.5 -53.5t49 -68h101l54 110h136q-2 -20 -5 -38q-2 -16 -5.5 -31.5t-5.5 -26.5q-11 -46 -39.5 -83.5t-69 -64t-90 -40.5t-103.5 -14z
" />
    <glyph glyph-name="rcommaaccent" unicode="&#x157;"
d="M192 1157h240v-110h754q-4 -35 -19.5 -66.5t-38.5 -54.5t-52.5 -36.5t-60.5 -13.5v-705h232q-4 -35 -19.5 -66.5t-39.5 -54.5t-55 -36.5t-66 -13.5h-100q-39 0 -74 20t-61 54.5t-41 80.5t-15 99v622h-346v-876h-238v1157zM615 -139q35 0 65.5 -13t53.5 -35.5t36.5 -53.5
t13.5 -66q0 -44 -16.5 -84.5t-46 -82.5t-69.5 -86.5t-88 -95.5l-94 45l68 179q-42 19 -67 51t-25 74q0 35 13 66t35.5 53.5t53.5 35.5t67 13z" />
    <glyph glyph-name="ugrave" unicode="&#xf9;" horiz-adv-x="1263"
d="M180 1047h239v-876h413v876h238v-876h203q-4 -35 -19.5 -66.5t-39 -54.5t-53.5 -36.5t-63 -13.5h-188l-78 127q-11 -28 -28 -51.5t-38.5 -40t-45 -26t-45.5 -9.5h-305q-39 0 -74 20t-60.5 54.5t-40.5 80.5t-15 99v793zM347 1393q-26 7 -49 22t-39.5 35.5t-26 45
t-9.5 51.5q0 30 13 59q19 42 51.5 64t70.5 22q46 0 93 -33l381 -274l-61 -105z" />
    <glyph glyph-name="uacute" unicode="&#xfa;" horiz-adv-x="1263"
d="M180 1047h239v-876h413v876h238v-876h203q-4 -35 -19.5 -66.5t-39 -54.5t-53.5 -36.5t-63 -13.5h-188l-78 127q-11 -28 -28 -51.5t-38.5 -40t-45 -26t-45.5 -9.5h-305q-39 0 -74 20t-60.5 54.5t-40.5 80.5t-15 99v793zM411 1385l381 274q46 33 93 33q38 0 70.5 -22
t51.5 -64q13 -29 13 -59q0 -27 -9.5 -51.5t-26 -45t-39.5 -35.5t-49 -22l-424 -113z" />
    <glyph glyph-name="ucircumflex" unicode="&#xfb;" horiz-adv-x="1263"
d="M180 1047h239v-876h413v876h238v-876h203q-4 -35 -19.5 -66.5t-39 -54.5t-53.5 -36.5t-63 -13.5h-188l-78 127q-11 -28 -28 -51.5t-38.5 -40t-45 -26t-45.5 -9.5h-305q-39 0 -74 20t-60.5 54.5t-40.5 80.5t-15 99v793zM622 1407q-84 -46 -170.5 -95t-171.5 -97
q-22 31 -40.5 54t-39.5 52l265 253q41 38 79.5 56t77.5 18q35 0 74.5 -17.5t80.5 -56.5l265 -253q-12 -16 -22.5 -28.5t-20 -24.5t-19.5 -24.5t-22 -28.5z" />
    <glyph glyph-name="udieresis" unicode="&#xfc;" horiz-adv-x="1263"
d="M180 1047h239v-876h413v876h238v-876h203q-4 -35 -19.5 -66.5t-39 -54.5t-53.5 -36.5t-63 -13.5h-188l-78 127q-11 -28 -28 -51.5t-38.5 -40t-45 -26t-45.5 -9.5h-305q-39 0 -74 20t-60.5 54.5t-40.5 80.5t-15 99v793zM900 1288q-36 0 -67 12t-53 34.5t-34.5 53
t-12.5 68.5q0 37 12.5 68.5t34.5 55t53 36.5t67 13q34 0 64.5 -13t53 -36.5t35.5 -55t13 -68.5q0 -38 -13 -68.5t-35.5 -53t-53 -34.5t-64.5 -12zM366 1288q-36 0 -67 12t-53 34.5t-34.5 53t-12.5 68.5q0 37 12.5 68.5t34.5 55t53 36.5t67 13q34 0 64.5 -13t53 -36.5
t35.5 -55t13 -68.5q0 -38 -13 -68.5t-35.5 -53t-53 -34.5t-64.5 -12z" />
    <glyph glyph-name="yacute" unicode="&#xfd;"
d="M192 1047h239v-876h412v876h239v-876h202q-4 -35 -19.5 -66.5t-39 -54.5t-53.5 -36.5t-63 -13.5h-27v-285q0 -53 -15 -99.5t-41 -81t-60.5 -55t-73.5 -20.5h-484v173h435v475q-27 -50 -69.5 -78.5t-90.5 -28.5h-301q-39 0 -74 20t-60.5 54.5t-40.5 80.5t-15 99v793z
M425 1385l381 274q46 33 93 33q38 0 70.5 -22t51.5 -64q13 -29 13 -59q0 -27 -9.5 -51.5t-26 -45t-39.5 -35.5t-49 -22l-424 -113z" />
    <glyph glyph-name="ydieresis" unicode="&#xff;"
d="M192 1047h239v-876h412v876h239v-876h202q-4 -35 -19.5 -66.5t-39 -54.5t-53.5 -36.5t-63 -13.5h-27v-285q0 -53 -15 -99.5t-41 -81t-60.5 -55t-73.5 -20.5h-484v173h435v475q-27 -50 -69.5 -78.5t-90.5 -28.5h-301q-39 0 -74 20t-60.5 54.5t-40.5 80.5t-15 99v793z
M914 1288q-36 0 -67 12t-53 34.5t-34.5 53t-12.5 68.5q0 37 12.5 68.5t34.5 55t53 36.5t67 13q34 0 64.5 -13t53 -36.5t35.5 -55t13 -68.5q0 -38 -13 -68.5t-35.5 -53t-53 -34.5t-64.5 -12zM380 1288q-36 0 -67 12t-53 34.5t-34.5 53t-12.5 68.5q0 37 12.5 68.5t34.5 55
t53 36.5t67 13q34 0 64.5 -13t53 -36.5t35.5 -55t13 -68.5q0 -38 -13 -68.5t-35.5 -53t-53 -34.5t-64.5 -12z" />
    <glyph glyph-name="germandbls" unicode="&#xdf;" horiz-adv-x="1231"
d="M192 1336q0 53 15 99.5t40.5 81t60.5 54.5t74 20h420q40 0 77 -19.5t65.5 -53.5t45.5 -80t17 -99v-208q0 -68 -29.5 -126t-83.5 -96q53 -11 92 -39.5t64.5 -66t37.5 -79t12 -79.5v-229q0 -52 -14.5 -95t-36.5 -75t-48 -51.5t-49 -23.5h297q-3 -36 -18.5 -67t-39 -54.5
t-54 -36.5t-63.5 -13h-472q3 34 18.5 65.5t39 54.5t53.5 37t64 14h81v635h-220v171h127v446h-335v-1423h-238v1336z" />
    <glyph glyph-name="oslash" unicode="&#xf8;" horiz-adv-x="1286"
d="M307 20q-51 29 -83 91t-32 141v541q0 53 15 99.5t40.5 81t59.5 54t73 19.5h457l91 176h151l-101 -196q25 -15 46.5 -38.5t37 -53.5t24 -66t8.5 -76l-1 -541q0 -52 -15 -98t-41 -80t-60.5 -54t-73.5 -20h-456l-91 -177h-151zM748 876h-327v-635zM865 171v637l-329 -637
h329z" />
    <glyph glyph-name="ellipsis" unicode="&#x2026;" horiz-adv-x="2271"
d="M1724 156q0 35 13 65.5t36 53.5t53.5 36.5t65.5 13.5t65.5 -13.5t53.5 -36.5t36.5 -53.5t13.5 -65.5t-13.5 -65.5t-36.5 -53.5t-54 -36t-65 -13q-35 0 -65.5 13t-53.5 36t-36 53.5t-13 65.5zM967 156q0 35 13 65.5t36 53.5t53.5 36.5t65.5 13.5t65.5 -13.5t53.5 -36.5
t36.5 -53.5t13.5 -65.5t-13.5 -65.5t-36.5 -53.5t-54 -36t-65 -13q-35 0 -65.5 13t-53.5 36t-36 53.5t-13 65.5zM210 156q0 35 13 65.5t36 53.5t53.5 36.5t65.5 13.5t65.5 -13.5t53.5 -36.5t36.5 -53.5t13.5 -65.5t-13.5 -65.5t-36.5 -53.5t-54 -36t-65 -13q-35 0 -65.5 13
t-53.5 36t-36 53.5t-13 65.5z" />
    <glyph glyph-name="Yacute" unicode="&#xdd;" horiz-adv-x="1358"
d="M275 0q4 35 19.5 66t39 54.5t53.5 37t63 13.5h480v447l-304 -184q-20 -13 -49.5 -21t-53.5 -7h-113q-40 0 -76 20t-63 54t-43 80t-16 98v687h-212q4 35 19.5 66t40 54.5t56.5 37t69 13.5h267v-938h93l385 237v701h238v-1265q0 -51 -15 -96.5t-40.5 -80t-60.5 -54.5
t-74 -20h-703v0zM514 1751l313 267q41 29 83 29q35 0 64 -19.5t46 -57.5q12 -27 12 -53q0 -24 -8.5 -46t-23.5 -40.5t-35.5 -32t-44.5 -19.5l-351 -122z" />
    <glyph glyph-name="ij" unicode="&#x133;" horiz-adv-x="1204"
d="M297 1289q-35 0 -65.5 13t-53.5 36t-36 53.5t-13 65.5t13 65.5t36 53.5t53.5 36.5t65.5 13.5t65.5 -13.5t53.5 -36.5t36.5 -53.5t13.5 -65.5t-13.5 -65.5t-36.5 -53.5t-54 -36t-65 -13zM180 1047h239v-876h214q-3 -35 -18.5 -66.5t-39 -54.5t-53.5 -36.5t-63 -13.5h-88
q-39 0 -74 20t-61 54.5t-41 80.5t-15 99v793zM921 1289q-35 0 -65.5 13t-53.5 36t-36 53.5t-13 65.5t13 65.5t36 53.5t53.5 36.5t65.5 13.5t65.5 -13.5t53.5 -36.5t36.5 -53.5t13.5 -65.5t-13.5 -65.5t-36.5 -53.5t-54 -36t-65 -13zM804 -368v1415h239v-1332
q0 -53 -15 -99.5t-40.5 -81t-60 -55t-73.5 -20.5h-196v173h146z" />
    <glyph glyph-name="Ocircumflex" unicode="&#xd4;" horiz-adv-x="1358"
d="M200 1262q0 53 15 99.5t40.5 81t59.5 54t73 19.5h580q39 0 74 -19.5t60.5 -54t40.5 -81t15 -99.5v-1010q0 -52 -15 -98t-41 -80t-60.5 -54t-73.5 -20h-580q-39 0 -73 20t-59.5 54t-40.5 80t-15 98v1010zM920 171v1176h-481v-1176h481zM679 1793q-75 -41 -153 -85.5
t-155 -86.5q-20 28 -36.5 48.5t-35.5 46.5l239 228q36 35 71 50.5t70 15.5q31 0 67 -15.5t72 -50.5l239 -228q-11 -15 -20.5 -26.5t-18 -22t-17.5 -21.5t-20 -25z" />
    <glyph glyph-name="Ograve" unicode="&#xd2;" horiz-adv-x="1358"
d="M200 1262q0 53 15 99.5t40.5 81t59.5 54t73 19.5h580q39 0 74 -19.5t60.5 -54t40.5 -81t15 -99.5v-1010q0 -52 -15 -98t-41 -80t-60.5 -54t-73.5 -20h-580q-39 0 -73 20t-59.5 54t-40.5 80t-15 98v1010zM920 171v1176h-481v-1176h481zM401 1779q-24 6 -44.5 19.5
t-35.5 32t-23.5 40.5t-8.5 46q0 26 12 53q17 38 46 57.5t64 19.5q42 0 83 -29l313 -267l-55 -94z" />
    <glyph glyph-name="Oacute" unicode="&#xd3;" horiz-adv-x="1358"
d="M200 1262q0 53 15 99.5t40.5 81t59.5 54t73 19.5h580q39 0 74 -19.5t60.5 -54t40.5 -81t15 -99.5v-1010q0 -52 -15 -98t-41 -80t-60.5 -54t-73.5 -20h-580q-39 0 -73 20t-59.5 54t-40.5 80t-15 98v1010zM920 171v1176h-481v-1176h481zM528 1751l313 267q41 29 83 29
q35 0 64 -19.5t46 -57.5q12 -27 12 -53q0 -24 -8.5 -46t-23.5 -40.5t-35.5 -32t-44.5 -19.5l-351 -122z" />
    <glyph glyph-name="Nacute" unicode="&#x143;" horiz-adv-x="1443"
d="M220 1516h237v-367l373 292q18 15 36 28.5t37.5 24t41 16.5t46.5 6q39 0 73 -17.5t59.5 -49t40 -74t14.5 -91.5v-1112h225q-4 -36 -19.5 -67t-39 -54.5t-53.5 -37t-63 -13.5h-108q-39 0 -73 20t-59.5 54t-40 80t-14.5 98v1063l-476 -371v-944h-237v1516zM546 1751
l313 267q41 29 83 29q35 0 64 -19.5t46 -57.5q12 -27 12 -53q0 -24 -8.5 -46t-23.5 -40.5t-35.5 -32t-44.5 -19.5l-351 -122z" />
    <glyph glyph-name="Igrave" unicode="&#xcc;" horiz-adv-x="1102"
d="M319 171h317v1176h-330v-345h-206v260q0 53 15 99.5t41 81t60.5 54t74.5 19.5h583v-1264q0 -52 -15 -98t-41 -80t-60.5 -54t-73.5 -20h-365v171zM270 1779q-24 6 -44.5 19.5t-35.5 32t-23.5 40.5t-8.5 46q0 26 12 53q17 38 46 57.5t64 19.5q42 0 83 -29l313 -267l-55 -94
z" />
    <glyph glyph-name="Iacute" unicode="&#xcd;" horiz-adv-x="1102"
d="M319 171h317v1176h-330v-345h-206v260q0 53 15 99.5t41 81t60.5 54t74.5 19.5h583v-1264q0 -52 -15 -98t-41 -80t-60.5 -54t-73.5 -20h-365v171zM397 1751l313 267q41 29 83 29q35 0 64 -19.5t46 -57.5q12 -27 12 -53q0 -24 -8.5 -46t-23.5 -40.5t-35.5 -32t-44.5 -19.5
l-351 -122z" />
    <glyph glyph-name="Icircumflex" unicode="&#xce;" horiz-adv-x="1102"
d="M319 171h317v1176h-330v-345h-206v260q0 53 15 99.5t41 81t60.5 54t74.5 19.5h583v-1264q0 -52 -15 -98t-41 -80t-60.5 -54t-73.5 -20h-365v171zM548 1793q-75 -41 -153 -85.5t-155 -86.5q-20 28 -36.5 48.5t-35.5 46.5l239 228q36 35 71 50.5t70 15.5q31 0 67 -15.5
t72 -50.5l239 -228q-11 -15 -20.5 -26.5t-18 -22t-17.5 -21.5t-20 -25z" />
    <glyph glyph-name="Agrave" unicode="&#xc0;" horiz-adv-x="1327"
d="M227 381h-231q4 35 19.5 66t39 54.5t53.5 37t63 13.5h86l133 775q7 41 26.5 76t46 60t58.5 39t64 14h243q31 0 63 -14t59 -39.5t46.5 -60t26.5 -76.5l228 -1326h-239l-62 381h-491l-61 -381h-236zM923 552l-128 795h-183q-32 -194 -63 -393.5t-63 -401.5h437zM438 1779
q-24 6 -44.5 19.5t-35.5 32t-23.5 40.5t-8.5 46q0 26 12 53q17 38 46 57.5t64 19.5q42 0 83 -29l313 -267l-55 -94z" />
    <glyph glyph-name="Aacute" unicode="&#xc1;" horiz-adv-x="1327"
d="M227 381h-231q4 35 19.5 66t39 54.5t53.5 37t63 13.5h86l133 775q7 41 26.5 76t46 60t58.5 39t64 14h243q31 0 63 -14t59 -39.5t46.5 -60t26.5 -76.5l228 -1326h-239l-62 381h-491l-61 -381h-236zM923 552l-128 795h-183q-32 -194 -63 -393.5t-63 -401.5h437zM565 1751
l313 267q41 29 83 29q35 0 64 -19.5t46 -57.5q12 -27 12 -53q0 -24 -8.5 -46t-23.5 -40.5t-35.5 -32t-44.5 -19.5l-351 -122z" />
    <glyph glyph-name="Acircumflex" unicode="&#xc2;" horiz-adv-x="1327"
d="M227 381h-231q4 35 19.5 66t39 54.5t53.5 37t63 13.5h86l133 775q7 41 26.5 76t46 60t58.5 39t64 14h243q31 0 63 -14t59 -39.5t46.5 -60t26.5 -76.5l228 -1326h-239l-62 381h-491l-61 -381h-236zM923 552l-128 795h-183q-32 -194 -63 -393.5t-63 -401.5h437zM716 1793
q-75 -41 -153 -85.5t-155 -86.5q-20 28 -36.5 48.5t-35.5 46.5l239 228q36 35 71 50.5t70 15.5q31 0 67 -15.5t72 -50.5l239 -228q-11 -15 -20.5 -26.5t-18 -22t-17.5 -21.5t-20 -25z" />
    <glyph glyph-name="Racute" unicode="&#x154;" horiz-adv-x="1388"
d="M237 564h-223q3 35 18.5 66t39 54.5t53.5 37t64 13.5h48v781h678q40 0 77 -19.5t65.5 -54t45.5 -81t17 -99.5v-373q0 -73 -33 -134t-96 -98q44 -16 76 -45t53 -64t31 -73t10 -72l-1 -231h263q-4 -36 -19.5 -67t-39 -54.5t-53.5 -37t-63 -13.5h-138q-39 0 -73.5 20
t-60.5 54t-41 80t-15 98v312h-446l-1 -564h-236v564zM883 735v610h-409v-610h409zM498 1751l313 267q41 29 83 29q35 0 64 -19.5t46 -57.5q12 -27 12 -53q0 -24 -8.5 -46t-23.5 -40.5t-35.5 -32t-44.5 -19.5l-351 -122z" />
    <glyph glyph-name="Ugrave" unicode="&#xd9;" horiz-adv-x="1396"
d="M200 1516h240v-1334h93l385 304v1030h238v-1344h200q-4 -36 -19.5 -67t-39 -54.5t-53.5 -37t-63 -13.5h-263v288l-317 -255q-38 -33 -88 -33h-115q-40 0 -76 20t-63 54t-43 80t-16 98v1264zM422 1779q-24 6 -44.5 19.5t-35.5 32t-23.5 40.5t-8.5 46q0 26 12 53
q17 38 46 57.5t64 19.5q42 0 83 -29l313 -267l-55 -94z" />
    <glyph glyph-name="Uacute" unicode="&#xda;" horiz-adv-x="1396"
d="M200 1516h240v-1334h93l385 304v1030h238v-1344h200q-4 -36 -19.5 -67t-39 -54.5t-53.5 -37t-63 -13.5h-263v288l-317 -255q-38 -33 -88 -33h-115q-40 0 -76 20t-63 54t-43 80t-16 98v1264zM549 1751l313 267q41 29 83 29q35 0 64 -19.5t46 -57.5q12 -27 12 -53
q0 -24 -8.5 -46t-23.5 -40.5t-35.5 -32t-44.5 -19.5l-351 -122z" />
    <glyph glyph-name="Ucircumflex" unicode="&#xdb;" horiz-adv-x="1396"
d="M200 1516h240v-1334h93l385 304v1030h238v-1344h200q-4 -36 -19.5 -67t-39 -54.5t-53.5 -37t-63 -13.5h-263v288l-317 -255q-38 -33 -88 -33h-115q-40 0 -76 20t-63 54t-43 80t-16 98v1264zM700 1793q-75 -41 -153 -85.5t-155 -86.5q-20 28 -36.5 48.5t-35.5 46.5
l239 228q36 35 71 50.5t70 15.5q31 0 67 -15.5t72 -50.5l239 -228q-11 -15 -20.5 -26.5t-18 -22t-17.5 -21.5t-20 -25z" />
    <glyph glyph-name="Jcircumflex" unicode="&#x134;" horiz-adv-x="1244"
d="M134 670h233v-499h428v1176h-441v169h690v-1262q0 -52 -15 -98.5t-41 -81t-60.5 -54.5t-74.5 -20h-530q-39 0 -73.5 20t-60 54t-40.5 80t-15 98v418zM674 1793q-75 -41 -153 -85.5t-155 -86.5q-20 28 -36.5 48.5t-35.5 46.5l239 228q36 35 71 50.5t70 15.5q31 0 67 -15.5
t72 -50.5l239 -228q-11 -15 -20.5 -26.5t-18 -22t-17.5 -21.5t-20 -25z" />
    <glyph glyph-name="Egrave" unicode="&#xc8;" horiz-adv-x="1172"
d="M230 564h-225q3 33 17 62.5t36.5 51t51 34.5t60.5 13h60v537q0 53 14.5 99.5t40 81t60 54t73.5 19.5h628v-169h-576v-622h396v-161h-396v-393h665q-4 -35 -19.5 -66.5t-39 -54.5t-53.5 -36.5t-63 -13.5h-540q-40 0 -74.5 20t-60 54t-40.5 80t-15 98v312zM428 1779
q-24 6 -44.5 19.5t-35.5 32t-23.5 40.5t-8.5 46q0 26 12 53q17 38 46 57.5t64 19.5q42 0 83 -29l313 -267l-55 -94z" />
    <glyph glyph-name="Eacute" unicode="&#xc9;" horiz-adv-x="1172"
d="M230 564h-225q3 33 17 62.5t36.5 51t51 34.5t60.5 13h60v537q0 53 14.5 99.5t40 81t60 54t73.5 19.5h628v-169h-576v-622h396v-161h-396v-393h665q-4 -35 -19.5 -66.5t-39 -54.5t-53.5 -36.5t-63 -13.5h-540q-40 0 -74.5 20t-60 54t-40.5 80t-15 98v312zM555 1751
l313 267q41 29 83 29q35 0 64 -19.5t46 -57.5q12 -27 12 -53q0 -24 -8.5 -46t-23.5 -40.5t-35.5 -32t-44.5 -19.5l-351 -122z" />
    <glyph glyph-name="Ecircumflex" unicode="&#xca;" horiz-adv-x="1172"
d="M230 564h-225q3 33 17 62.5t36.5 51t51 34.5t60.5 13h60v537q0 53 14.5 99.5t40 81t60 54t73.5 19.5h628v-169h-576v-622h396v-161h-396v-393h665q-4 -35 -19.5 -66.5t-39 -54.5t-53.5 -36.5t-63 -13.5h-540q-40 0 -74.5 20t-60 54t-40.5 80t-15 98v312zM706 1793
q-75 -41 -153 -85.5t-155 -86.5q-20 28 -36.5 48.5t-35.5 46.5l239 228q36 35 71 50.5t70 15.5q31 0 67 -15.5t72 -50.5l239 -228q-11 -15 -20.5 -26.5t-18 -22t-17.5 -21.5t-20 -25z" />
    <glyph glyph-name="Itilde" unicode="&#x128;" horiz-adv-x="1102"
d="M128 1731q5 26 8.5 43.5l8.5 42.5q8 40 33 73.5t62 57.5t82 37.5t94 13.5q39 0 76 -11t69 -31.5t58 -48.5t44 -61h91l48 99h123q-2 -18 -5 -34q-2 -14 -5 -28.5t-5 -23.5q-10 -41 -35.5 -75t-62 -58t-81 -36.5t-92.5 -12.5q-41 0 -79.5 11.5t-71.5 31.5t-60 48t-45 61
h-83l-49 -99h-123zM319 171h317v1176h-330v-345h-206v260q0 53 15 99.5t41 81t60.5 54t74.5 19.5h583v-1264q0 -52 -15 -98t-41 -80t-60.5 -54t-73.5 -20h-365v171z" />
    <glyph glyph-name="Atilde" unicode="&#xc3;" horiz-adv-x="1327"
d="M296 1731q5 26 8.5 43.5l8.5 42.5q8 40 33 73.5t62 57.5t82 37.5t94 13.5q39 0 76 -11t69 -31.5t58 -48.5t44 -61h91l48 99h123q-2 -18 -5 -34q-2 -14 -5 -28.5t-5 -23.5q-10 -41 -35.5 -75t-62 -58t-81 -36.5t-92.5 -12.5q-41 0 -79.5 11.5t-71.5 31.5t-60 48t-45 61
h-83l-49 -99h-123zM227 381h-231q4 35 19.5 66t39 54.5t53.5 37t63 13.5h86l133 775q7 41 26.5 76t46 60t58.5 39t64 14h243q31 0 63 -14t59 -39.5t46.5 -60t26.5 -76.5l228 -1326h-239l-62 381h-491l-61 -381h-236zM923 552l-128 795h-183q-32 -194 -63 -393.5t-63 -401.5
h437z" />
    <glyph glyph-name="Rcaron" unicode="&#x158;" horiz-adv-x="1388"
d="M237 564h-223q3 35 18.5 66t39 54.5t53.5 37t64 13.5h48v781h678q40 0 77 -19.5t65.5 -54t45.5 -81t17 -99.5v-373q0 -73 -33 -134t-96 -98q44 -16 76 -45t53 -64t31 -73t10 -72l-1 -231h263q-4 -36 -19.5 -67t-39 -54.5t-53.5 -37t-63 -13.5h-138q-39 0 -73.5 20
t-60.5 54t-41 80t-15 98v312h-446l-1 -564h-236v564zM883 735v610h-409v-610h409zM651 1630q-31 0 -67 15.5t-72 50.5l-239 228l76 95l302 -172q75 41 153 85.5t155 86.5l72 -95l-239 -228q-36 -35 -71 -50.5t-70 -15.5z" />
    <glyph glyph-name="Adieresis" unicode="&#xc4;" horiz-adv-x="1327"
d="M227 381h-231q4 35 19.5 66t39 54.5t53.5 37t63 13.5h86l133 775q7 41 26.5 76t46 60t58.5 39t64 14h243q31 0 63 -14t59 -39.5t46.5 -60t26.5 -76.5l228 -1326h-239l-62 381h-491l-61 -381h-236zM923 552l-128 795h-183q-32 -194 -63 -393.5t-63 -401.5h437zM957 1678
q-37 0 -65 12.5t-47 34t-29 51t-10 63.5q0 33 10 62.5t29 51.5t47 34.5t65 12.5q34 0 62 -12.5t47 -34.5t29.5 -51.5t10.5 -62.5q0 -34 -10.5 -63.5t-29.5 -51t-47 -34t-62 -12.5zM476 1678q-37 0 -65 12.5t-47 34t-29 51t-10 63.5q0 33 10 62.5t29 51.5t47 34.5t65 12.5
q34 0 62 -12.5t47 -34.5t29.5 -51.5t10.5 -62.5q0 -34 -10.5 -63.5t-29.5 -51t-47 -34t-62 -12.5z" />
    <glyph glyph-name="Edieresis" unicode="&#xcb;" horiz-adv-x="1172"
d="M230 564h-225q3 33 17 62.5t36.5 51t51 34.5t60.5 13h60v537q0 53 14.5 99.5t40 81t60 54t73.5 19.5h628v-169h-576v-622h396v-161h-396v-393h665q-4 -35 -19.5 -66.5t-39 -54.5t-53.5 -36.5t-63 -13.5h-540q-40 0 -74.5 20t-60 54t-40.5 80t-15 98v312zM947 1678
q-37 0 -65 12.5t-47 34t-29 51t-10 63.5q0 33 10 62.5t29 51.5t47 34.5t65 12.5q34 0 62 -12.5t47 -34.5t29.5 -51.5t10.5 -62.5q0 -34 -10.5 -63.5t-29.5 -51t-47 -34t-62 -12.5zM466 1678q-37 0 -65 12.5t-47 34t-29 51t-10 63.5q0 33 10 62.5t29 51.5t47 34.5t65 12.5
q34 0 62 -12.5t47 -34.5t29.5 -51.5t10.5 -62.5q0 -34 -10.5 -63.5t-29.5 -51t-47 -34t-62 -12.5z" />
    <glyph glyph-name="Idieresis" unicode="&#xcf;" horiz-adv-x="1102"
d="M319 171h317v1176h-330v-345h-206v260q0 53 15 99.5t41 81t60.5 54t74.5 19.5h583v-1264q0 -52 -15 -98t-41 -80t-60.5 -54t-73.5 -20h-365v171zM789 1678q-37 0 -65 12.5t-47 34t-29 51t-10 63.5q0 33 10 62.5t29 51.5t47 34.5t65 12.5q34 0 62 -12.5t47 -34.5
t29.5 -51.5t10.5 -62.5q0 -34 -10.5 -63.5t-29.5 -51t-47 -34t-62 -12.5zM308 1678q-37 0 -65 12.5t-47 34t-29 51t-10 63.5q0 33 10 62.5t29 51.5t47 34.5t65 12.5q34 0 62 -12.5t47 -34.5t29.5 -51.5t10.5 -62.5q0 -34 -10.5 -63.5t-29.5 -51t-47 -34t-62 -12.5z" />
    <glyph glyph-name="Odieresis" unicode="&#xd6;" horiz-adv-x="1358"
d="M200 1262q0 53 15 99.5t40.5 81t59.5 54t73 19.5h580q39 0 74 -19.5t60.5 -54t40.5 -81t15 -99.5v-1010q0 -52 -15 -98t-41 -80t-60.5 -54t-73.5 -20h-580q-39 0 -73 20t-59.5 54t-40.5 80t-15 98v1010zM920 171v1176h-481v-1176h481zM920 1678q-37 0 -65 12.5t-47 34
t-29 51t-10 63.5q0 33 10 62.5t29 51.5t47 34.5t65 12.5q34 0 62 -12.5t47 -34.5t29.5 -51.5t10.5 -62.5q0 -34 -10.5 -63.5t-29.5 -51t-47 -34t-62 -12.5zM439 1678q-37 0 -65 12.5t-47 34t-29 51t-10 63.5q0 33 10 62.5t29 51.5t47 34.5t65 12.5q34 0 62 -12.5t47 -34.5
t29.5 -51.5t10.5 -62.5q0 -34 -10.5 -63.5t-29.5 -51t-47 -34t-62 -12.5z" />
    <glyph glyph-name="Otilde" unicode="&#xd5;" horiz-adv-x="1358"
d="M200 1262q0 53 15 99.5t40.5 81t59.5 54t73 19.5h580q39 0 74 -19.5t60.5 -54t40.5 -81t15 -99.5v-1010q0 -52 -15 -98t-41 -80t-60.5 -54t-73.5 -20h-580q-39 0 -73 20t-59.5 54t-40.5 80t-15 98v1010zM920 171v1176h-481v-1176h481zM770 1698q-41 0 -79.5 11.5
t-71.5 31.5t-60 48t-45 61h-83l-49 -99h-123q5 26 8.5 43.5l8.5 42.5q8 40 33 73.5t62 57.5t82 37.5t94 13.5q39 0 76 -11t69 -31.5t58 -48.5t44 -61h91l48 99h123q-2 -18 -5 -34q-2 -14 -5 -28.5t-5 -23.5q-10 -41 -35.5 -75t-62 -58t-81 -36.5t-92.5 -12.5z" />
    <glyph glyph-name="Udieresis" unicode="&#xdc;" horiz-adv-x="1396"
d="M200 1516h240v-1334h93l385 304v1030h238v-1344h200q-4 -36 -19.5 -67t-39 -54.5t-53.5 -37t-63 -13.5h-263v288l-317 -255q-38 -33 -88 -33h-115q-40 0 -76 20t-63 54t-43 80t-16 98v1264zM933 1678q-37 0 -65 12.5t-47 34t-29 51t-10 63.5q0 33 10 62.5t29 51.5
t47 34.5t65 12.5q34 0 62 -12.5t47 -34.5t29.5 -51.5t10.5 -62.5q0 -34 -10.5 -63.5t-29.5 -51t-47 -34t-62 -12.5zM452 1678q-37 0 -65 12.5t-47 34t-29 51t-10 63.5q0 33 10 62.5t29 51.5t47 34.5t65 12.5q34 0 62 -12.5t47 -34.5t29.5 -51.5t10.5 -62.5
q0 -34 -10.5 -63.5t-29.5 -51t-47 -34t-62 -12.5z" />
    <glyph glyph-name="Ydieresis" unicode="&#x178;" horiz-adv-x="1358"
d="M275 0q4 35 19.5 66t39 54.5t53.5 37t63 13.5h480v447l-304 -184q-20 -13 -49.5 -21t-53.5 -7h-113q-40 0 -76 20t-63 54t-43 80t-16 98v687h-212q4 35 19.5 66t40 54.5t56.5 37t69 13.5h267v-938h93l385 237v701h238v-1265q0 -51 -15 -96.5t-40.5 -80t-60.5 -54.5
t-74 -20h-703v0zM906 1678q-37 0 -65 12.5t-47 34t-29 51t-10 63.5q0 33 10 62.5t29 51.5t47 34.5t65 12.5q34 0 62 -12.5t47 -34.5t29.5 -51.5t10.5 -62.5q0 -34 -10.5 -63.5t-29.5 -51t-47 -34t-62 -12.5zM425 1678q-37 0 -65 12.5t-47 34t-29 51t-10 63.5q0 33 10 62.5
t29 51.5t47 34.5t65 12.5q34 0 62 -12.5t47 -34.5t29.5 -51.5t10.5 -62.5q0 -34 -10.5 -63.5t-29.5 -51t-47 -34t-62 -12.5z" />
    <glyph glyph-name="Ntilde" unicode="&#xd1;" horiz-adv-x="1443"
d="M220 1516h237v-367l373 292q18 15 36 28.5t37.5 24t41 16.5t46.5 6q39 0 73 -17.5t59.5 -49t40 -74t14.5 -91.5v-1112h225q-4 -36 -19.5 -67t-39 -54.5t-53.5 -37t-63 -13.5h-108q-39 0 -73 20t-59.5 54t-40 80t-14.5 98v1063l-476 -371v-944h-237v1516zM788 1698
q-41 0 -79.5 11.5t-71.5 31.5t-60 48t-45 61h-83l-49 -99h-123q5 26 8.5 43.5l8.5 42.5q8 40 33 73.5t62 57.5t82 37.5t94 13.5q39 0 76 -11t69 -31.5t58 -48.5t44 -61h91l48 99h123q-2 -18 -5 -34q-2 -14 -5 -28.5t-5 -23.5q-10 -41 -35.5 -75t-62 -58t-81 -36.5
t-92.5 -12.5z" />
    <glyph glyph-name="gdotaccent" unicode="&#x121;"
d="M192 793q0 53 15 99t40.5 80.5t60.5 54.5t74 20h700v-876h211q-4 -35 -19.5 -66.5t-39 -54.5t-53.5 -36.5t-63 -13.5h-36v-285q0 -53 -15 -99.5t-41 -81t-60 -55t-73 -20.5h-485v173h435v479q-29 -52 -71 -81.5t-88 -29.5h-302q-39 0 -74 20t-60.5 54.5t-40.5 80.5
t-15 99v539zM843 171v705h-413v-705h413zM661 1289q-36 0 -67 12t-53 34.5t-34.5 53t-12.5 68.5q0 37 12.5 68.5t34.5 55t53 36.5t67 13q34 0 64.5 -13t53 -36.5t35.5 -55t13 -68.5q0 -38 -13 -68.5t-35.5 -53t-53 -34.5t-64.5 -12z" />
    <glyph glyph-name="imacron" unicode="&#x12b;" horiz-adv-x="612"
d="M180 1047h239v-876h214q-3 -35 -18.5 -66.5t-39 -54.5t-53.5 -36.5t-63 -13.5h-88q-39 0 -74 20t-61 54.5t-41 80.5t-15 99v793zM-85 1324q4 35 19 71.5t38.5 66.5t54 49t63.5 19h667q-3 -35 -18.5 -71.5t-38.5 -66.5t-53.5 -49t-63.5 -19h-668z" />
    <glyph glyph-name="ygrave" unicode="&#x1ef3;"
d="M192 1047h239v-876h412v876h239v-876h202q-4 -35 -19.5 -66.5t-39 -54.5t-53.5 -36.5t-63 -13.5h-27v-285q0 -53 -15 -99.5t-41 -81t-60.5 -55t-73.5 -20.5h-484v173h435v475q-27 -50 -69.5 -78.5t-90.5 -28.5h-301q-39 0 -74 20t-60.5 54.5t-40.5 80.5t-15 99v793z
M361 1393q-26 7 -49 22t-39.5 35.5t-26 45t-9.5 51.5q0 30 13 59q19 42 51.5 64t70.5 22q46 0 93 -33l381 -274l-61 -105z" />
    <glyph glyph-name="ycircumflex" unicode="&#x177;"
d="M192 1047h239v-876h412v876h239v-876h202q-4 -35 -19.5 -66.5t-39 -54.5t-53.5 -36.5t-63 -13.5h-27v-285q0 -53 -15 -99.5t-41 -81t-60.5 -55t-73.5 -20.5h-484v173h435v475q-27 -50 -69.5 -78.5t-90.5 -28.5h-301q-39 0 -74 20t-60.5 54.5t-40.5 80.5t-15 99v793z
M636 1407q-84 -46 -170.5 -95t-171.5 -97q-22 31 -40.5 54t-39.5 52l265 253q41 38 79.5 56t77.5 18q35 0 74.5 -17.5t80.5 -56.5l265 -253q-12 -16 -22.5 -28.5t-20 -24.5t-19.5 -24.5t-22 -28.5z" />
    <glyph glyph-name="wgrave" unicode="&#x1e81;" horiz-adv-x="1805"
d="M180 1047h239v-875h360v875h240v-875h360v875h443q-4 -35 -19.5 -66.5t-39 -54.5t-53.5 -36.5t-63 -13.5h-29v-622q0 -53 -15 -99t-41 -80.5t-61 -54.5t-74 -20h-365q-49 0 -93 33.5t-73 90.5q-29 -57 -73 -90.5t-93 -33.5h-359q-39 0 -74 20t-61 54.5t-41 80.5t-15 99
v793zM622 1393q-26 7 -49 22t-39.5 35.5t-26 45t-9.5 51.5q0 30 13 59q19 42 51.5 64t70.5 22q46 0 93 -33l381 -274l-61 -105z" />
    <glyph glyph-name="wacute" unicode="&#x1e83;" horiz-adv-x="1805"
d="M180 1047h239v-875h360v875h240v-875h360v875h443q-4 -35 -19.5 -66.5t-39 -54.5t-53.5 -36.5t-63 -13.5h-29v-622q0 -53 -15 -99t-41 -80.5t-61 -54.5t-74 -20h-365q-49 0 -93 33.5t-73 90.5q-29 -57 -73 -90.5t-93 -33.5h-359q-39 0 -74 20t-61 54.5t-41 80.5t-15 99
v793zM686 1385l381 274q46 33 93 33q38 0 70.5 -22t51.5 -64q13 -29 13 -59q0 -27 -9.5 -51.5t-26 -45t-39.5 -35.5t-49 -22l-424 -113z" />
    <glyph glyph-name="wcircumflex" unicode="&#x175;" horiz-adv-x="1805"
d="M180 1047h239v-875h360v875h240v-875h360v875h443q-4 -35 -19.5 -66.5t-39 -54.5t-53.5 -36.5t-63 -13.5h-29v-622q0 -53 -15 -99t-41 -80.5t-61 -54.5t-74 -20h-365q-49 0 -93 33.5t-73 90.5q-29 -57 -73 -90.5t-93 -33.5h-359q-39 0 -74 20t-61 54.5t-41 80.5t-15 99
v793zM897 1407q-84 -46 -170.5 -95t-171.5 -97q-22 31 -40.5 54t-39.5 52l265 253q41 38 79.5 56t77.5 18q35 0 74.5 -17.5t80.5 -56.5l265 -253q-12 -16 -22.5 -28.5t-20 -24.5t-19.5 -24.5t-22 -28.5z" />
    <glyph glyph-name="wdieresis" unicode="&#x1e85;" horiz-adv-x="1805"
d="M180 1047h239v-875h360v875h240v-875h360v875h443q-4 -35 -19.5 -66.5t-39 -54.5t-53.5 -36.5t-63 -13.5h-29v-622q0 -53 -15 -99t-41 -80.5t-61 -54.5t-74 -20h-365q-49 0 -93 33.5t-73 90.5q-29 -57 -73 -90.5t-93 -33.5h-359q-39 0 -74 20t-61 54.5t-41 80.5t-15 99
v793zM1175 1288q-36 0 -67 12t-53 34.5t-34.5 53t-12.5 68.5q0 37 12.5 68.5t34.5 55t53 36.5t67 13q34 0 64.5 -13t53 -36.5t35.5 -55t13 -68.5q0 -38 -13 -68.5t-35.5 -53t-53 -34.5t-64.5 -12zM641 1288q-36 0 -67 12t-53 34.5t-34.5 53t-12.5 68.5q0 37 12.5 68.5
t34.5 55t53 36.5t67 13q34 0 64.5 -13t53 -36.5t35.5 -55t13 -68.5q0 -38 -13 -68.5t-35.5 -53t-53 -34.5t-64.5 -12z" />
    <glyph glyph-name="utilde" unicode="&#x169;" horiz-adv-x="1263"
d="M180 1047h239v-876h413v876h238v-876h203q-4 -35 -19.5 -66.5t-39 -54.5t-53.5 -36.5t-63 -13.5h-188l-78 127q-11 -28 -28 -51.5t-38.5 -40t-45 -26t-45.5 -9.5h-305q-39 0 -74 20t-60.5 54.5t-40.5 80.5t-15 99v793zM747 1290q-46 0 -88.5 12.5t-79.5 35t-66.5 53.5
t-49.5 68h-92l-55 -110h-136q4 28 8.5 48t10.5 48q9 45 37 82t68.5 64t91 41.5t104.5 14.5q43 0 84 -12.5t76.5 -35t64.5 -53.5t49 -68h101l54 110h136q-2 -20 -5 -38q-2 -16 -5.5 -31.5t-5.5 -26.5q-11 -46 -39.5 -83.5t-69 -64t-90 -40.5t-103.5 -14z" />
    <glyph glyph-name="umacron" unicode="&#x16b;" horiz-adv-x="1263"
d="M180 1047h239v-876h413v876h238v-876h203q-4 -35 -19.5 -66.5t-39 -54.5t-53.5 -36.5t-63 -13.5h-188l-78 127q-11 -28 -28 -51.5t-38.5 -40t-45 -26t-45.5 -9.5h-305q-39 0 -74 20t-60.5 54.5t-40.5 80.5t-15 99v793zM211 1324q4 35 19 71.5t38.5 66.5t54 49t63.5 19
h667q-3 -35 -18.5 -71.5t-38.5 -66.5t-53.5 -49t-63.5 -19h-668z" />
    <glyph glyph-name="uring" unicode="&#x16f;" horiz-adv-x="1263"
d="M180 1047h239v-876h413v876h238v-876h203q-4 -35 -19.5 -66.5t-39 -54.5t-53.5 -36.5t-63 -13.5h-188l-78 127q-11 -28 -28 -51.5t-38.5 -40t-45 -26t-45.5 -9.5h-305q-39 0 -74 20t-60.5 54.5t-40.5 80.5t-15 99v793zM623 1287q-60 0 -112.5 22.5t-91.5 62t-61.5 92
t-22.5 112.5q0 59 22.5 111.5t61.5 91.5t91.5 62t112.5 23t112.5 -23t92 -62t62 -91.5t22.5 -111.5q0 -60 -22.5 -112.5t-62 -92t-92 -62t-112.5 -22.5zM623 1441q28 0 52.5 10.5t42.5 29t28.5 43t10.5 52.5q0 27 -10.5 51.5t-28.5 43.5t-42.5 30t-52.5 11t-52 -11t-42 -30
t-28.5 -43.5t-10.5 -51.5q0 -28 10.5 -52.5t28.5 -43t42 -29t52 -10.5z" />
    <glyph glyph-name="sacute" unicode="&#x15b;" horiz-adv-x="1266"
d="M499 1107h240q-9 -22 -13.5 -43.5t-6.5 -35.5q-3 -37 12 -67t40.5 -57.5t59 -54.5t68.5 -57q40 -32 81 -73.5t74 -91t53.5 -105t18.5 -115.5q-2 -42 -18 -80.5t-42 -69t-60.5 -52.5t-72.5 -32h372q-14 -39 -33.5 -70.5t-44 -54.5t-53.5 -35.5t-60 -12.5h-274
q-46 0 -76.5 14.5t-48 38.5t-24 55.5t-3.5 65.5q32 4 63 17t55.5 37.5t41 61.5t20.5 89q4 41 -8 77t-32 68t-46 61t-51 56q-26 34 -52 82t-37 117l-316 -840h-247zM424 1385l381 274q46 33 93 33q38 0 70.5 -22t51.5 -64q13 -29 13 -59q0 -27 -9.5 -51.5t-26 -45
t-39.5 -35.5t-49 -22l-424 -113z" />
    <glyph glyph-name="scircumflex" unicode="&#x15d;" horiz-adv-x="1266"
d="M499 1107h240q-9 -22 -13.5 -43.5t-6.5 -35.5q-3 -37 12 -67t40.5 -57.5t59 -54.5t68.5 -57q40 -32 81 -73.5t74 -91t53.5 -105t18.5 -115.5q-2 -42 -18 -80.5t-42 -69t-60.5 -52.5t-72.5 -32h372q-14 -39 -33.5 -70.5t-44 -54.5t-53.5 -35.5t-60 -12.5h-274
q-46 0 -76.5 14.5t-48 38.5t-24 55.5t-3.5 65.5q32 4 63 17t55.5 37.5t41 61.5t20.5 89q4 41 -8 77t-32 68t-46 61t-51 56q-26 34 -52 82t-37 117l-316 -840h-247zM635 1407q-84 -46 -170.5 -95t-171.5 -97q-22 31 -40.5 54t-39.5 52l265 253q41 38 79.5 56t77.5 18
q35 0 74.5 -17.5t80.5 -56.5l265 -253q-12 -16 -22.5 -28.5t-20 -24.5t-19.5 -24.5t-22 -28.5z" />
    <glyph glyph-name="racute" unicode="&#x155;"
d="M192 1157h240v-110h754q-4 -35 -19.5 -66.5t-38.5 -54.5t-52.5 -36.5t-60.5 -13.5v-705h232q-4 -35 -19.5 -66.5t-39.5 -54.5t-55 -36.5t-66 -13.5h-100q-39 0 -74 20t-61 54.5t-41 80.5t-15 99v622h-346v-876h-238v1157zM424 1385l381 274q46 33 93 33q38 0 70.5 -22
t51.5 -64q13 -29 13 -59q0 -27 -9.5 -51.5t-26 -45t-39.5 -35.5t-49 -22l-424 -113z" />
    <glyph glyph-name="zacute" unicode="&#x17a;" horiz-adv-x="1083"
d="M162 186l570 690h-540v171h795v-184l-567 -692h645q-4 -35 -19.5 -66.5t-39 -54.5t-53.5 -36.5t-63 -13.5h-728v186zM361 1385l381 274q46 33 93 33q38 0 70.5 -22t51.5 -64q13 -29 13 -59q0 -27 -9.5 -51.5t-26 -45t-39.5 -35.5t-49 -22l-424 -113z" />
    <glyph glyph-name="zdotaccent" unicode="&#x17c;" horiz-adv-x="1083"
d="M162 186l570 690h-540v171h795v-184l-567 -692h645q-4 -35 -19.5 -66.5t-39 -54.5t-53.5 -36.5t-63 -13.5h-728v186zM570 1289q-36 0 -67 12t-53 34.5t-34.5 53t-12.5 68.5q0 37 12.5 68.5t34.5 55t53 36.5t67 13q34 0 64.5 -13t53 -36.5t35.5 -55t13 -68.5
q0 -38 -13 -68.5t-35.5 -53t-53 -34.5t-64.5 -12z" />
    <glyph glyph-name="omacron" unicode="&#x14d;"
d="M192 793q0 53 15 99.5t40.5 81t59.5 54t73 19.5h838q-4 -35 -19.5 -66.5t-39 -54.5t-53.5 -36.5t-63 -13.5h-63q19 -14 37.5 -36t33 -51t23 -63.5t8.5 -74.5v-399q0 -52 -15 -98t-41 -80t-60.5 -54t-73.5 -20h-512q-39 0 -73 20t-59.5 54t-40.5 80t-15 98v541zM843 171
v705h-412v-705h412zM233 1324q4 35 19 71.5t38.5 66.5t54 49t63.5 19h667q-3 -35 -18.5 -71.5t-38.5 -66.5t-53.5 -49t-63.5 -19h-668z" />
    <glyph glyph-name="obreve" unicode="&#x14f;"
d="M192 793q0 53 15 99.5t40.5 81t59.5 54t73 19.5h838q-4 -35 -19.5 -66.5t-39 -54.5t-53.5 -36.5t-63 -13.5h-63q19 -14 37.5 -36t33 -51t23 -63.5t8.5 -74.5v-399q0 -52 -15 -98t-41 -80t-60.5 -54t-73.5 -20h-512q-39 0 -73 20t-59.5 54t-40.5 80t-15 98v541zM843 171
v705h-412v-705h412zM598 1289q-75 0 -140 28.5t-114 80t-77 122.5t-28 156h151q0 -27 18.5 -55.5t50.5 -52.5t73.5 -39t88.5 -15h46q46 0 88 15t73.5 39t50.5 52.5t19 55.5h150q0 -85 -28 -156t-77 -122.5t-114 -80t-140 -28.5h-91v0z" />
    <glyph glyph-name="uni1E61" unicode="&#x1e61;" horiz-adv-x="1266"
d="M499 1107h240q-9 -22 -13.5 -43.5t-6.5 -35.5q-3 -37 12 -67t40.5 -57.5t59 -54.5t68.5 -57q40 -32 81 -73.5t74 -91t53.5 -105t18.5 -115.5q-2 -42 -18 -80.5t-42 -69t-60.5 -52.5t-72.5 -32h372q-14 -39 -33.5 -70.5t-44 -54.5t-53.5 -35.5t-60 -12.5h-274
q-46 0 -76.5 14.5t-48 38.5t-24 55.5t-3.5 65.5q32 4 63 17t55.5 37.5t41 61.5t20.5 89q4 41 -8 77t-32 68t-46 61t-51 56q-26 34 -52 82t-37 117l-316 -840h-247zM633 1289q-36 0 -67 12t-53 34.5t-34.5 53t-12.5 68.5q0 37 12.5 68.5t34.5 55t53 36.5t67 13q34 0 64.5 -13
t53 -36.5t35.5 -55t13 -68.5q0 -38 -13 -68.5t-35.5 -53t-53 -34.5t-64.5 -12z" />
    <glyph glyph-name="dotaccent.cap" horiz-adv-x="633"
d="M317 1693q-36 0 -67 10.5t-53 31t-34.5 49.5t-12.5 67q0 37 12.5 67t34.5 51.5t53 33t67 11.5q34 0 64.5 -11.5t53 -33t35.5 -51.5t13 -67q0 -38 -13 -67t-35.5 -49.5t-53 -31t-64.5 -10.5z" />
    <glyph glyph-name="uni1E60" unicode="&#x1e60;" horiz-adv-x="1279"
d="M275 0q4 35 19.5 66t39 54.5t53.5 37t63 13.5h367v243l-524 261q-60 30 -96 91t-36 152v344q0 53 14.5 99.5t40 81t59.5 54t73 19.5h553q39 0 73 -19.5t59.5 -54t40.5 -81t15 -99.5v-296h-239v379h-450v-474l542 -277q26 -13 47 -36t36 -53.5t23 -67.5t8 -77v-108
q0 -52 -15 -98t-40.5 -80t-59.5 -54t-73 -20h-593v0zM624 1678q-36 0 -67 10.5t-53 31t-34.5 49.5t-12.5 67q0 37 12.5 67t34.5 51.5t53 33t67 11.5q34 0 64.5 -11.5t53 -33t35.5 -51.5t13 -67q0 -38 -13 -67t-35.5 -49.5t-53 -31t-64.5 -10.5z" />
    <glyph glyph-name="uni1E56" unicode="&#x1e56;" horiz-adv-x="1305"
d="M231 526h-288q4 35 19.5 66t39 54.5t53.5 37t63 13.5h112v819h745q39 0 73.5 -19.5t60.5 -54t41 -81t15 -99.5v-484q0 -53 -15 -98.5t-41 -80t-60.5 -54t-73.5 -19.5h-504v-526h-240v526zM932 697v650h-462v-650h462zM709 1678q-36 0 -67 10.5t-53 31t-34.5 49.5
t-12.5 67q0 37 12.5 67t34.5 51.5t53 33t67 11.5q34 0 64.5 -11.5t53 -33t35.5 -51.5t13 -67q0 -38 -13 -67t-35.5 -49.5t-53 -31t-64.5 -10.5z" />
    <glyph glyph-name="uni1E57" unicode="&#x1e57;"
d="M431 -285q0 -53 -14.5 -99.5t-40 -81t-59.5 -55t-73 -20.5h-52v1588h701q39 0 73 -20t60 -54.5t41 -80.5t15 -99v-622h211q-4 -35 -19.5 -66.5t-39 -54.5t-53.5 -36.5t-63 -13.5h-527q-48 0 -90 30.5t-71 81.5zM843 172v704h-413v-704h413zM655 1289q-36 0 -67 12
t-53 34.5t-34.5 53t-12.5 68.5q0 37 12.5 68.5t34.5 55t53 36.5t67 13q34 0 64.5 -13t53 -36.5t35.5 -55t13 -68.5q0 -38 -13 -68.5t-35.5 -53t-53 -34.5t-64.5 -12z" />
    <glyph glyph-name="uni1E41" unicode="&#x1e41;" horiz-adv-x="1817"
d="M220 1047h239v-402l243 326q32 38 66.5 57.5t84.5 19.5q40 0 76.5 -20t64 -54.5t44 -80.5t16.5 -99v-113l210 290q32 37 72 57t89 20q40 0 76.5 -20t64 -54.5t44 -80.5t16.5 -99v-623h178q-4 -35 -19.5 -66.5t-39 -54.5t-53.5 -36.5t-63 -13.5h-54q-39 0 -73.5 20
t-59.5 54.5t-39.5 80.5t-14.5 99v601l-334 -405v-450h-239v855l-356 -440v-415h-239v1047zM1010 1289q-36 0 -67 12t-53 34.5t-34.5 53t-12.5 68.5q0 37 12.5 68.5t34.5 55t53 36.5t67 13q34 0 64.5 -13t53 -36.5t35.5 -55t13 -68.5q0 -38 -13 -68.5t-35.5 -53t-53 -34.5
t-64.5 -12z" />
    <glyph glyph-name="Zacute" unicode="&#x179;" horiz-adv-x="1143"
d="M136 176l647 1171h-622v169h856v-173l-647 -1166l724 1q-4 -36 -19.5 -68t-39 -56.5t-53.5 -39t-63 -14.5h-783v176zM456 1751l313 267q41 29 83 29q35 0 64 -19.5t46 -57.5q12 -27 12 -53q0 -24 -8.5 -46t-23.5 -40.5t-35.5 -32t-44.5 -19.5l-351 -122z" />
    <glyph glyph-name="Zcaron" unicode="&#x17d;" horiz-adv-x="1143"
d="M136 176l647 1171h-622v169h856v-173l-647 -1166l724 1q-4 -36 -19.5 -68t-39 -56.5t-53.5 -39t-63 -14.5h-783v176zM609 1630q-31 0 -67 15.5t-72 50.5l-239 228l76 95l302 -172q75 41 153 85.5t155 86.5l72 -95l-239 -228q-36 -35 -71 -50.5t-70 -15.5z" />
    <glyph glyph-name="Zdotaccent" unicode="&#x17b;" horiz-adv-x="1143"
d="M136 176l647 1171h-622v169h856v-173l-647 -1166l724 1q-4 -36 -19.5 -68t-39 -56.5t-53.5 -39t-63 -14.5h-783v176zM607 1678q-36 0 -67 10.5t-53 31t-34.5 49.5t-12.5 67q0 37 12.5 67t34.5 51.5t53 33t67 11.5q34 0 64.5 -11.5t53 -33t35.5 -51.5t13 -67
q0 -38 -13 -67t-35.5 -49.5t-53 -31t-64.5 -10.5z" />
    <glyph glyph-name="Ncaron" unicode="&#x147;" horiz-adv-x="1443"
d="M220 1516h237v-367l373 292q18 15 36 28.5t37.5 24t41 16.5t46.5 6q39 0 73 -17.5t59.5 -49t40 -74t14.5 -91.5v-1112h225q-4 -36 -19.5 -67t-39 -54.5t-53.5 -37t-63 -13.5h-108q-39 0 -73 20t-59.5 54t-40 80t-14.5 98v1063l-476 -371v-944h-237v1516zM711 1630
q-31 0 -67 15.5t-72 50.5l-239 228l76 95l302 -172q75 41 153 85.5t155 86.5l72 -95l-239 -228q-36 -35 -71 -50.5t-70 -15.5z" />
    <glyph glyph-name="Omacron" unicode="&#x14c;" horiz-adv-x="1358"
d="M200 1262q0 53 15 99.5t40.5 81t59.5 54t73 19.5h580q39 0 74 -19.5t60.5 -54t40.5 -81t15 -99.5v-1010q0 -52 -15 -98t-41 -80t-60.5 -54t-73.5 -20h-580q-39 0 -73 20t-59.5 54t-40.5 80t-15 98v1010zM920 171v1176h-481v-1176h481zM229 1700q4 35 19 70.5t38.5 64
t54 46.5t63.5 18h727q-3 -35 -18.5 -70.5t-38.5 -64t-53.5 -46.5t-63.5 -18h-728z" />
    <glyph glyph-name="Idotaccent" unicode="&#x130;" horiz-adv-x="1102"
d="M319 171h317v1176h-330v-345h-206v260q0 53 15 99.5t41 81t60.5 54t74.5 19.5h583v-1264q0 -52 -15 -98t-41 -80t-60.5 -54t-73.5 -20h-365v171zM548 1678q-36 0 -67 10.5t-53 31t-34.5 49.5t-12.5 67q0 37 12.5 67t34.5 51.5t53 33t67 11.5q34 0 64.5 -11.5t53 -33
t35.5 -51.5t13 -67q0 -38 -13 -67t-35.5 -49.5t-53 -31t-64.5 -10.5z" />
    <glyph glyph-name="breve.cap" horiz-adv-x="1109"
d="M509 1628q-75 0 -140 28.5t-114 79.5t-77 122t-28 156h151q0 -27 18.5 -55.5t50.5 -52t73.5 -38.5t88.5 -15h46q46 0 88 15t73.5 38.5t50.5 52t19 55.5h150q0 -85 -28 -156t-77 -122t-114 -79.5t-140 -28.5h-91v0z" />
    <glyph glyph-name="Ibreve" unicode="&#x12c;" horiz-adv-x="1102"
d="M319 171h317v1176h-330v-345h-206v260q0 53 15 99.5t41 81t60.5 54t74.5 19.5h583v-1264q0 -52 -15 -98t-41 -80t-60.5 -54t-73.5 -20h-365v171zM504 1633q-75 0 -140 28.5t-114 79.5t-77 122t-28 156h151q0 -27 18.5 -55.5t50.5 -52t73.5 -38.5t88.5 -15h46q46 0 88 15
t73.5 38.5t50.5 52t19 55.5h150q0 -85 -28 -156t-77 -122t-114 -79.5t-140 -28.5h-91v0z" />
    <glyph glyph-name="macron.cap" horiz-adv-x="1202"
d="M150 1713q4 35 19 66t38.5 54.5t54 37t63.5 13.5h727q-3 -35 -18.5 -66.5t-38.5 -54.5t-53.5 -36.5t-63.5 -13.5h-728v0z" />
    <glyph glyph-name="Imacron" unicode="&#x12a;" horiz-adv-x="1102"
d="M319 171h317v1176h-330v-345h-206v260q0 53 15 99.5t41 81t60.5 54t74.5 19.5h583v-1264q0 -52 -15 -98t-41 -80t-60.5 -54t-73.5 -20h-365v171zM98 1700q4 35 19 70.5t38.5 64t54 46.5t63.5 18h727q-3 -35 -18.5 -70.5t-38.5 -64t-53.5 -46.5t-63.5 -18h-728z" />
    <glyph glyph-name="hcircumflex" unicode="&#x125;"
d="M192 1590h239v-657q28 54 69.5 84t90.5 30h301q39 0 73.5 -20t60.5 -54.5t41 -80.5t15 -99v-622h214q-4 -35 -19.5 -66.5t-38.5 -54.5t-53 -36.5t-62 -13.5h-89q-39 0 -74 20t-61 54.5t-41 80.5t-15 99v622h-412v-876h-239v1590zM306 1825q-75 -41 -153 -85.5t-155 -86.5
q-20 28 -36.5 48.5t-35.5 46.5l239 228q36 35 71 50.5t70 15.5q31 0 67 -15.5t72 -50.5l239 -228q-11 -15 -20.5 -26.5t-18 -22t-17.5 -21.5t-20 -25z" />
    <glyph glyph-name="Amacron" unicode="&#x100;" horiz-adv-x="1327"
d="M227 381h-231q4 35 19.5 66t39 54.5t53.5 37t63 13.5h86l133 775q7 41 26.5 76t46 60t58.5 39t64 14h243q31 0 63 -14t59 -39.5t46.5 -60t26.5 -76.5l228 -1326h-239l-62 381h-491l-61 -381h-236zM923 552l-128 795h-183q-32 -194 -63 -393.5t-63 -401.5h437zM473 1698
q4 35 19 66t38.5 54.5t54 37t63.5 13.5h727q-3 -35 -18.5 -66.5t-38.5 -54.5t-53.5 -36.5t-63.5 -13.5h-728v0z" />
    <glyph glyph-name="Abreve" unicode="&#x102;" horiz-adv-x="1327"
d="M227 381h-231q4 35 19.5 66t39 54.5t53.5 37t63 13.5h86l133 775q7 41 26.5 76t46 60t58.5 39t64 14h243q31 0 63 -14t59 -39.5t46.5 -60t26.5 -76.5l228 -1326h-239l-62 381h-491l-61 -381h-236zM923 552l-128 795h-183q-32 -194 -63 -393.5t-63 -401.5h437zM672 1633
q-75 0 -140 28.5t-114 79.5t-77 122t-28 156h151q0 -27 18.5 -55.5t50.5 -52t73.5 -38.5t88.5 -15h46q46 0 88 15t73.5 38.5t50.5 52t19 55.5h150q0 -85 -28 -156t-77 -122t-114 -79.5t-140 -28.5h-91v0z" />
    <glyph glyph-name="AEacute" unicode="&#x1fc;" horiz-adv-x="1834"
d="M251 512h-241q3 33 17 62.5t36.5 51t51 34.5t60.5 13h103l113 654q7 41 26.5 76t46 60t58.5 39t64 14h1092v-169h-556v-674h426v-161h-426v-341h675q-4 -35 -19.5 -66.5t-39 -54.5t-53.5 -36.5t-63 -13.5h-550q-40 0 -74.5 20t-60 54t-40.5 80t-15 98v260h-402
q-20 -131 -40.5 -259t-40.5 -253h-236zM882 673v674h-269l-107 -674h376zM746 1751l313 267q41 29 83 29q35 0 64 -19.5t46 -57.5q12 -27 12 -53q0 -24 -8.5 -46t-23.5 -40.5t-35.5 -32t-44.5 -19.5l-351 -122z" />
    <glyph glyph-name="Cacute" unicode="&#x106;" horiz-adv-x="1328"
d="M200 1262q0 53 15 99.5t41 81t60 54t73 19.5h556q39 0 73.5 -19.5t60.5 -54t41 -81t15 -99.5v-391h-238v476h-460v-1176h770q-4 -35 -19.5 -66.5t-39 -54.5t-53.5 -36.5t-63 -13.5h-643q-39 0 -73 20t-60 54t-41 80t-15 98v1010zM509 1683l313 267q41 29 83 29
q35 0 64 -19.5t46 -57.5q12 -27 12 -53q0 -24 -8.5 -46t-23.5 -40.5t-35.5 -32t-44.5 -19.5l-351 -122z" />
    <glyph glyph-name="Ccircumflex" unicode="&#x108;" horiz-adv-x="1328"
d="M200 1262q0 53 15 99.5t41 81t60 54t73 19.5h556q39 0 73.5 -19.5t60.5 -54t41 -81t15 -99.5v-391h-238v476h-460v-1176h770q-4 -35 -19.5 -66.5t-39 -54.5t-53.5 -36.5t-63 -13.5h-643q-39 0 -73 20t-60 54t-41 80t-15 98v1010zM660 1725q-75 -41 -153 -85.5t-155 -86.5
q-20 28 -36.5 48.5t-35.5 46.5l239 228q36 35 71 50.5t70 15.5q31 0 67 -15.5t72 -50.5l239 -228q-11 -15 -20.5 -26.5t-18 -22t-17.5 -21.5t-20 -25z" />
    <glyph glyph-name="Ccaron" unicode="&#x10c;" horiz-adv-x="1328"
d="M200 1262q0 53 15 99.5t41 81t60 54t73 19.5h556q39 0 73.5 -19.5t60.5 -54t41 -81t15 -99.5v-391h-238v476h-460v-1176h770q-4 -35 -19.5 -66.5t-39 -54.5t-53.5 -36.5t-63 -13.5h-643q-39 0 -73 20t-60 54t-41 80t-15 98v1010zM662 1562q-31 0 -67 15.5t-72 50.5
l-239 228l76 95l302 -172q75 41 153 85.5t155 86.5l72 -95l-239 -228q-36 -35 -71 -50.5t-70 -15.5z" />
    <glyph glyph-name="Cdotaccent" unicode="&#x10a;" horiz-adv-x="1328"
d="M200 1262q0 53 15 99.5t41 81t60 54t73 19.5h556q39 0 73.5 -19.5t60.5 -54t41 -81t15 -99.5v-391h-238v476h-460v-1176h770q-4 -35 -19.5 -66.5t-39 -54.5t-53.5 -36.5t-63 -13.5h-643q-39 0 -73 20t-60 54t-41 80t-15 98v1010zM660 1610q-36 0 -67 10.5t-53 31
t-34.5 49.5t-12.5 67q0 37 12.5 67t34.5 51.5t53 33t67 11.5q34 0 64.5 -11.5t53 -33t35.5 -51.5t13 -67q0 -38 -13 -67t-35.5 -49.5t-53 -31t-64.5 -10.5z" />
    <glyph glyph-name="Dcaron" unicode="&#x10e;" horiz-adv-x="1387"
d="M244 982q0 52 15.5 97.5t42 80t61.5 54.5t75 20h45v-1063h463v1176h-896q3 35 18.5 66t39 54t53.5 36t64 13h768q39 0 74 -19.5t60.5 -54t40.5 -81t15 -99.5v-1010q0 -52 -15 -98t-40.5 -80t-60 -54t-73.5 -20h-749zM617 1630q-31 0 -67 15.5t-72 50.5l-239 228l76 95
l302 -172q75 41 153 85.5t155 86.5l72 -95l-239 -228q-36 -35 -71 -50.5t-70 -15.5z" />
    <glyph glyph-name="Ecaron" unicode="&#x11a;" horiz-adv-x="1172"
d="M230 564h-225q3 33 17 62.5t36.5 51t51 34.5t60.5 13h60v537q0 53 14.5 99.5t40 81t60 54t73.5 19.5h628v-169h-576v-622h396v-161h-396v-393h665q-4 -35 -19.5 -66.5t-39 -54.5t-53.5 -36.5t-63 -13.5h-540q-40 0 -74.5 20t-60 54t-40.5 80t-15 98v312zM708 1630
q-31 0 -67 15.5t-72 50.5l-239 228l76 95l302 -172q75 41 153 85.5t155 86.5l72 -95l-239 -228q-36 -35 -71 -50.5t-70 -15.5z" />
    <glyph glyph-name="Emacron" unicode="&#x112;" horiz-adv-x="1172"
d="M230 564h-225q3 33 17 62.5t36.5 51t51 34.5t60.5 13h60v537q0 53 14.5 99.5t40 81t60 54t73.5 19.5h628v-169h-576v-622h396v-161h-396v-393h665q-4 -35 -19.5 -66.5t-39 -54.5t-53.5 -36.5t-63 -13.5h-540q-40 0 -74.5 20t-60 54t-40.5 80t-15 98v312zM256 1700
q4 35 19 70.5t38.5 64t54 46.5t63.5 18h727q-3 -35 -18.5 -70.5t-38.5 -64t-53.5 -46.5t-63.5 -18h-728z" />
    <glyph glyph-name="Ebreve" unicode="&#x114;" horiz-adv-x="1172"
d="M230 564h-225q3 33 17 62.5t36.5 51t51 34.5t60.5 13h60v537q0 53 14.5 99.5t40 81t60 54t73.5 19.5h628v-169h-576v-622h396v-161h-396v-393h665q-4 -35 -19.5 -66.5t-39 -54.5t-53.5 -36.5t-63 -13.5h-540q-40 0 -74.5 20t-60 54t-40.5 80t-15 98v312zM662 1633
q-75 0 -140 28.5t-114 79.5t-77 122t-28 156h151q0 -27 18.5 -55.5t50.5 -52t73.5 -38.5t88.5 -15h46q46 0 88 15t73.5 38.5t50.5 52t19 55.5h150q0 -85 -28 -156t-77 -122t-114 -79.5t-140 -28.5h-91v0z" />
    <glyph glyph-name="Edotaccent" unicode="&#x116;" horiz-adv-x="1172"
d="M230 564h-225q3 33 17 62.5t36.5 51t51 34.5t60.5 13h60v537q0 53 14.5 99.5t40 81t60 54t73.5 19.5h628v-169h-576v-622h396v-161h-396v-393h665q-4 -35 -19.5 -66.5t-39 -54.5t-53.5 -36.5t-63 -13.5h-540q-40 0 -74.5 20t-60 54t-40.5 80t-15 98v312zM706 1678
q-36 0 -67 10.5t-53 31t-34.5 49.5t-12.5 67q0 37 12.5 67t34.5 51.5t53 33t67 11.5q34 0 64.5 -11.5t53 -33t35.5 -51.5t13 -67q0 -38 -13 -67t-35.5 -49.5t-53 -31t-64.5 -10.5z" />
    <glyph glyph-name="Gcircumflex" unicode="&#x11c;" horiz-adv-x="1348"
d="M200 1261q0 53 15 99.5t40.5 81t59.5 54t73 19.5h800v-169h-749v-1174h514v711h237l-2 -1000q0 -51 -14.5 -96.5t-39.5 -80t-59 -54.5t-72 -20h-50v368h-565q-39 0 -73 20t-59.5 54t-40.5 80t-15 98v1009zM699 1793q-75 -41 -153 -85.5t-155 -86.5q-20 28 -36.5 48.5
t-35.5 46.5l239 228q36 35 71 50.5t70 15.5q31 0 67 -15.5t72 -50.5l239 -228q-11 -15 -20.5 -26.5t-18 -22t-17.5 -21.5t-20 -25z" />
    <glyph glyph-name="Gbreve" unicode="&#x11e;" horiz-adv-x="1348"
d="M200 1261q0 53 15 99.5t40.5 81t59.5 54t73 19.5h800v-169h-749v-1174h514v711h237l-2 -1000q0 -51 -14.5 -96.5t-39.5 -80t-59 -54.5t-72 -20h-50v368h-565q-39 0 -73 20t-59.5 54t-40.5 80t-15 98v1009zM655 1633q-75 0 -140 28.5t-114 79.5t-77 122t-28 156h151
q0 -27 18.5 -55.5t50.5 -52t73.5 -38.5t88.5 -15h46q46 0 88 15t73.5 38.5t50.5 52t19 55.5h150q0 -85 -28 -156t-77 -122t-114 -79.5t-140 -28.5h-91v0z" />
    <glyph glyph-name="Gdotaccent" unicode="&#x120;" horiz-adv-x="1348"
d="M200 1261q0 53 15 99.5t40.5 81t59.5 54t73 19.5h800v-169h-749v-1174h514v711h237l-2 -1000q0 -51 -14.5 -96.5t-39.5 -80t-59 -54.5t-72 -20h-50v368h-565q-39 0 -73 20t-59.5 54t-40.5 80t-15 98v1009zM699 1678q-36 0 -67 10.5t-53 31t-34.5 49.5t-12.5 67
q0 37 12.5 67t34.5 51.5t53 33t67 11.5q34 0 64.5 -11.5t53 -33t35.5 -51.5t13 -67q0 -38 -13 -67t-35.5 -49.5t-53 -31t-64.5 -10.5z" />
    <glyph glyph-name="Hcircumflex" unicode="&#x124;" horiz-adv-x="1437"
d="M230 565h-239q4 36 19.5 67t39 54t53.5 36.5t63 13.5h64v780h238v-780h539v780h240v-1516h-240v565h-539v-565h-238v565zM741 1793q-75 -41 -153 -85.5t-155 -86.5q-20 28 -36.5 48.5t-35.5 46.5l239 228q36 35 71 50.5t70 15.5q31 0 67 -15.5t72 -50.5l239 -228
q-11 -15 -20.5 -26.5t-18 -22t-17.5 -21.5t-20 -25z" />
    <glyph glyph-name="Obreve" unicode="&#x14e;" horiz-adv-x="1358"
d="M200 1262q0 53 15 99.5t40.5 81t59.5 54t73 19.5h580q39 0 74 -19.5t60.5 -54t40.5 -81t15 -99.5v-1010q0 -52 -15 -98t-41 -80t-60.5 -54t-73.5 -20h-580q-39 0 -73 20t-59.5 54t-40.5 80t-15 98v1010zM920 171v1176h-481v-1176h481zM635 1633q-75 0 -140 28.5
t-114 79.5t-77 122t-28 156h151q0 -27 18.5 -55.5t50.5 -52t73.5 -38.5t88.5 -15h46q46 0 88 15t73.5 38.5t50.5 52t19 55.5h150q0 -85 -28 -156t-77 -122t-114 -79.5t-140 -28.5h-91v0z" />
    <glyph glyph-name="Sacute" unicode="&#x15a;" horiz-adv-x="1279"
d="M275 0q4 35 19.5 66t39 54.5t53.5 37t63 13.5h367v243l-524 261q-60 30 -96 91t-36 152v344q0 53 14.5 99.5t40 81t59.5 54t73 19.5h553q39 0 73 -19.5t59.5 -54t40.5 -81t15 -99.5v-296h-239v379h-450v-474l542 -277q26 -13 47 -36t36 -53.5t23 -67.5t8 -77v-108
q0 -52 -15 -98t-40.5 -80t-59.5 -54t-73 -20h-593v0zM473 1751l313 267q41 29 83 29q35 0 64 -19.5t46 -57.5q12 -27 12 -53q0 -24 -8.5 -46t-23.5 -40.5t-35.5 -32t-44.5 -19.5l-351 -122z" />
    <glyph glyph-name="Scircumflex" unicode="&#x15c;" horiz-adv-x="1279"
d="M275 0q4 35 19.5 66t39 54.5t53.5 37t63 13.5h367v243l-524 261q-60 30 -96 91t-36 152v344q0 53 14.5 99.5t40 81t59.5 54t73 19.5h553q39 0 73 -19.5t59.5 -54t40.5 -81t15 -99.5v-296h-239v379h-450v-474l542 -277q26 -13 47 -36t36 -53.5t23 -67.5t8 -77v-108
q0 -52 -15 -98t-40.5 -80t-59.5 -54t-73 -20h-593v0zM624 1793q-75 -41 -153 -85.5t-155 -86.5q-20 28 -36.5 48.5t-35.5 46.5l239 228q36 35 71 50.5t70 15.5q31 0 67 -15.5t72 -50.5l239 -228q-11 -15 -20.5 -26.5t-18 -22t-17.5 -21.5t-20 -25z" />
    <glyph glyph-name="Scaron" unicode="&#x160;" horiz-adv-x="1279"
d="M275 0q4 35 19.5 66t39 54.5t53.5 37t63 13.5h367v243l-524 261q-60 30 -96 91t-36 152v344q0 53 14.5 99.5t40 81t59.5 54t73 19.5h553q39 0 73 -19.5t59.5 -54t40.5 -81t15 -99.5v-296h-239v379h-450v-474l542 -277q26 -13 47 -36t36 -53.5t23 -67.5t8 -77v-108
q0 -52 -15 -98t-40.5 -80t-59.5 -54t-73 -20h-593v0zM626 1630q-31 0 -67 15.5t-72 50.5l-239 228l76 95l302 -172q75 41 153 85.5t155 86.5l72 -95l-239 -228q-36 -35 -71 -50.5t-70 -15.5z" />
    <glyph glyph-name="Tcaron" unicode="&#x164;" horiz-adv-x="1209"
d="M265 0q4 35 19.5 66t39 54.5t53.5 37t63 13.5h294v1176h-444v-325h-239v240q0 53 15 99.5t41 81t60 54t73 19.5h939v-169h-207v-1094q0 -52 -15 -98t-41 -80.5t-60 -54.5t-73 -20h-518v0zM840 1630q-31 0 -67 15.5t-72 50.5l-239 228l76 95l302 -172q75 41 153 85.5
t155 86.5l72 -95l-239 -228q-36 -35 -71 -50.5t-70 -15.5z" />
    <glyph glyph-name="Utilde" unicode="&#x168;" horiz-adv-x="1396"
d="M200 1516h240v-1334h93l385 304v1030h238v-1344h200q-4 -36 -19.5 -67t-39 -54.5t-53.5 -37t-63 -13.5h-263v288l-317 -255q-38 -33 -88 -33h-115q-40 0 -76 20t-63 54t-43 80t-16 98v1264zM791 1698q-41 0 -79.5 11.5t-71.5 31.5t-60 48t-45 61h-83l-49 -99h-123
q5 26 8.5 43.5l8.5 42.5q8 40 33 73.5t62 57.5t82 37.5t94 13.5q39 0 76 -11t69 -31.5t58 -48.5t44 -61h91l48 99h123q-2 -18 -5 -34q-2 -14 -5 -28.5t-5 -23.5q-10 -41 -35.5 -75t-62 -58t-81 -36.5t-92.5 -12.5z" />
    <glyph glyph-name="Umacron" unicode="&#x16a;" horiz-adv-x="1396"
d="M200 1516h240v-1334h93l385 304v1030h238v-1344h200q-4 -36 -19.5 -67t-39 -54.5t-53.5 -37t-63 -13.5h-263v288l-317 -255q-38 -33 -88 -33h-115q-40 0 -76 20t-63 54t-43 80t-16 98v1264zM250 1700q4 35 19 70.5t38.5 64t54 46.5t63.5 18h727q-3 -35 -18.5 -70.5
t-38.5 -64t-53.5 -46.5t-63.5 -18h-728z" />
    <glyph glyph-name="Ubreve" unicode="&#x16c;" horiz-adv-x="1396"
d="M200 1516h240v-1334h93l385 304v1030h238v-1344h200q-4 -36 -19.5 -67t-39 -54.5t-53.5 -37t-63 -13.5h-263v288l-317 -255q-38 -33 -88 -33h-115q-40 0 -76 20t-63 54t-43 80t-16 98v1264zM656 1633q-75 0 -140 28.5t-114 79.5t-77 122t-28 156h151q0 -27 18.5 -55.5
t50.5 -52t73.5 -38.5t88.5 -15h46q46 0 88 15t73.5 38.5t50.5 52t19 55.5h150q0 -85 -28 -156t-77 -122t-114 -79.5t-140 -28.5h-91v0z" />
    <glyph glyph-name="Wgrave" unicode="&#x1e80;" horiz-adv-x="1888"
d="M230 1346h-264q4 35 19.5 66t39 54.5t53.5 37t63 13.5h328v-1345h370v1345h240v-1345h370v1345h239v-1263q0 -53 -15 -99t-41 -80.5t-60.5 -54.5t-74.5 -20h-373q-49 0 -93 33.5t-73 90.5q-29 -57 -73 -90.5t-93 -33.5h-371q-39 0 -74 20t-61 54.5t-41 80.5t-15 99v1092z
M683 1779q-24 6 -44.5 19.5t-35.5 32t-23.5 40.5t-8.5 46q0 26 12 53q17 38 46 57.5t64 19.5q42 0 83 -29l313 -267l-55 -94z" />
    <glyph glyph-name="Wacute" unicode="&#x1e82;" horiz-adv-x="1888"
d="M230 1346h-264q4 35 19.5 66t39 54.5t53.5 37t63 13.5h328v-1345h370v1345h240v-1345h370v1345h239v-1263q0 -53 -15 -99t-41 -80.5t-60.5 -54.5t-74.5 -20h-373q-49 0 -93 33.5t-73 90.5q-29 -57 -73 -90.5t-93 -33.5h-371q-39 0 -74 20t-61 54.5t-41 80.5t-15 99v1092z
M810 1751l313 267q41 29 83 29q35 0 64 -19.5t46 -57.5q12 -27 12 -53q0 -24 -8.5 -46t-23.5 -40.5t-35.5 -32t-44.5 -19.5l-351 -122z" />
    <glyph glyph-name="Wcircumflex" unicode="&#x174;" horiz-adv-x="1888"
d="M230 1346h-264q4 35 19.5 66t39 54.5t53.5 37t63 13.5h328v-1345h370v1345h240v-1345h370v1345h239v-1263q0 -53 -15 -99t-41 -80.5t-60.5 -54.5t-74.5 -20h-373q-49 0 -93 33.5t-73 90.5q-29 -57 -73 -90.5t-93 -33.5h-371q-39 0 -74 20t-61 54.5t-41 80.5t-15 99v1092z
M961 1793q-75 -41 -153 -85.5t-155 -86.5q-20 28 -36.5 48.5t-35.5 46.5l239 228q36 35 71 50.5t70 15.5q31 0 67 -15.5t72 -50.5l239 -228q-11 -15 -20.5 -26.5t-18 -22t-17.5 -21.5t-20 -25z" />
    <glyph glyph-name="Wdieresis" unicode="&#x1e84;" horiz-adv-x="1888"
d="M230 1346h-264q4 35 19.5 66t39 54.5t53.5 37t63 13.5h328v-1345h370v1345h240v-1345h370v1345h239v-1263q0 -53 -15 -99t-41 -80.5t-60.5 -54.5t-74.5 -20h-373q-49 0 -93 33.5t-73 90.5q-29 -57 -73 -90.5t-93 -33.5h-371q-39 0 -74 20t-61 54.5t-41 80.5t-15 99v1092z
M1202 1678q-37 0 -65 12.5t-47 34t-29 51t-10 63.5q0 33 10 62.5t29 51.5t47 34.5t65 12.5q34 0 62 -12.5t47 -34.5t29.5 -51.5t10.5 -62.5q0 -34 -10.5 -63.5t-29.5 -51t-47 -34t-62 -12.5zM721 1678q-37 0 -65 12.5t-47 34t-29 51t-10 63.5q0 33 10 62.5t29 51.5t47 34.5
t65 12.5q34 0 62 -12.5t47 -34.5t29.5 -51.5t10.5 -62.5q0 -34 -10.5 -63.5t-29.5 -51t-47 -34t-62 -12.5z" />
    <glyph glyph-name="Ygrave" unicode="&#x1ef2;" horiz-adv-x="1358"
d="M275 0q4 35 19.5 66t39 54.5t53.5 37t63 13.5h480v447l-304 -184q-20 -13 -49.5 -21t-53.5 -7h-113q-40 0 -76 20t-63 54t-43 80t-16 98v687h-212q4 35 19.5 66t40 54.5t56.5 37t69 13.5h267v-938h93l385 237v701h238v-1265q0 -51 -15 -96.5t-40.5 -80t-60.5 -54.5
t-74 -20h-703v0zM387 1779q-24 6 -44.5 19.5t-35.5 32t-23.5 40.5t-8.5 46q0 26 12 53q17 38 46 57.5t64 19.5q42 0 83 -29l313 -267l-55 -94z" />
    <glyph glyph-name="Ycircumflex" unicode="&#x176;" horiz-adv-x="1358"
d="M275 0q4 35 19.5 66t39 54.5t53.5 37t63 13.5h480v447l-304 -184q-20 -13 -49.5 -21t-53.5 -7h-113q-40 0 -76 20t-63 54t-43 80t-16 98v687h-212q4 35 19.5 66t40 54.5t56.5 37t69 13.5h267v-938h93l385 237v701h238v-1265q0 -51 -15 -96.5t-40.5 -80t-60.5 -54.5
t-74 -20h-703v0zM665 1793q-75 -41 -153 -85.5t-155 -86.5q-20 28 -36.5 48.5t-35.5 46.5l239 228q36 35 71 50.5t70 15.5q31 0 67 -15.5t72 -50.5l239 -228q-11 -15 -20.5 -26.5t-18 -22t-17.5 -21.5t-20 -25z" />
    <glyph glyph-name="abreve" unicode="&#x103;" horiz-adv-x="1281"
d="M192 765q0 60 16.5 112t45.5 90t68.5 59.5t85.5 21.5h674v-877h217q-4 -35 -19.5 -66.5t-39 -54.5t-53.5 -36.5t-63 -13.5h-107q-49 0 -93 33.5t-73 90.5q-29 -57 -73 -90.5t-93 -33.5h-303q-39 0 -74 20t-60.5 54t-40.5 79.5t-15 97.5v514zM844 171v705h-414v-705h414z
M593 1289q-75 0 -140 28.5t-114 80t-77 122.5t-28 156h151q0 -27 18.5 -55.5t50.5 -52.5t73.5 -39t88.5 -15h46q46 0 88 15t73.5 39t50.5 52.5t19 55.5h150q0 -85 -28 -156t-77 -122.5t-114 -80t-140 -28.5h-91v0z" />
    <glyph glyph-name="cacute" unicode="&#x107;" horiz-adv-x="1269"
d="M192 793q0 53 15 99t40.5 80.5t60.5 54.5t74 20h526q39 0 73.5 -20t60.5 -54.5t41 -80.5t15 -99v-186h-239v269h-429v-705h700q-4 -35 -19.5 -66t-39 -54t-53.5 -36.5t-63 -14.5h-573q-39 -1 -74 19t-60.5 54.5t-40.5 81t-15 99.5v539zM445 1385l381 274q46 33 93 33
q38 0 70.5 -22t51.5 -64q13 -29 13 -59q0 -27 -9.5 -51.5t-26 -45t-39.5 -35.5t-49 -22l-424 -113z" />
    <glyph glyph-name="ccircumflex" unicode="&#x109;" horiz-adv-x="1269"
d="M192 793q0 53 15 99t40.5 80.5t60.5 54.5t74 20h526q39 0 73.5 -20t60.5 -54.5t41 -80.5t15 -99v-186h-239v269h-429v-705h700q-4 -35 -19.5 -66t-39 -54t-53.5 -36.5t-63 -14.5h-573q-39 -1 -74 19t-60.5 54.5t-40.5 81t-15 99.5v539zM656 1407q-84 -46 -170.5 -95
t-171.5 -97q-22 31 -40.5 54t-39.5 52l265 253q41 38 79.5 56t77.5 18q35 0 74.5 -17.5t80.5 -56.5l265 -253q-12 -16 -22.5 -28.5t-20 -24.5t-19.5 -24.5t-22 -28.5z" />
    <glyph glyph-name="cdotaccent" unicode="&#x10b;" horiz-adv-x="1269"
d="M192 793q0 53 15 99t40.5 80.5t60.5 54.5t74 20h526q39 0 73.5 -20t60.5 -54.5t41 -80.5t15 -99v-186h-239v269h-429v-705h700q-4 -35 -19.5 -66t-39 -54t-53.5 -36.5t-63 -14.5h-573q-39 -1 -74 19t-60.5 54.5t-40.5 81t-15 99.5v539zM654 1289q-36 0 -67 12t-53 34.5
t-34.5 53t-12.5 68.5q0 37 12.5 68.5t34.5 55t53 36.5t67 13q34 0 64.5 -13t53 -36.5t35.5 -55t13 -68.5q0 -38 -13 -68.5t-35.5 -53t-53 -34.5t-64.5 -12z" />
    <glyph glyph-name="ccaron" unicode="&#x10d;" horiz-adv-x="1269"
d="M192 793q0 53 15 99t40.5 80.5t60.5 54.5t74 20h526q39 0 73.5 -20t60.5 -54.5t41 -80.5t15 -99v-186h-239v269h-429v-705h700q-4 -35 -19.5 -66t-39 -54t-53.5 -36.5t-63 -14.5h-573q-39 -1 -74 19t-60.5 54.5t-40.5 81t-15 99.5v539zM654 1287q-35 0 -74.5 17.5
t-80.5 56.5l-265 253q12 16 22.5 28.5t20 24.5t19.5 24.5t22 28.5l336 -192q84 46 170.5 95t171.5 97q22 -31 40.5 -54t39.5 -52l-265 -253q-41 -38 -79.5 -56t-77.5 -18z" />
    <glyph glyph-name="aeacute" unicode="&#x1fd;" horiz-adv-x="1978"
d="M192 765q0 60 16.5 112t46 90t69 59.5t85.5 21.5h516l76 -172q12 31 34 61.5t49.5 55t58 39.5t58.5 15h425q39 0 73.5 -20t60.5 -54.5t41 -80.5t15 -99v-333h-702v-289h754q-4 -35 -19.5 -66.5t-39 -54.5t-53.5 -36.5t-63 -13.5h-628q-39 0 -73.5 19.5t-60.5 53.5t-41 80
t-15 98l-252 -218q-38 -33 -88 -33h-145q-40 0 -76 20t-63 54t-43 80t-16 98v513zM1577 600v276h-463v-276h463zM525 172l350 281v423h-443v-704h93zM789 1385l381 274q46 33 93 33q38 0 70.5 -22t51.5 -64q13 -29 13 -59q0 -27 -9.5 -51.5t-26 -45t-39.5 -35.5t-49 -22
l-424 -113z" />
    <glyph glyph-name="ecaron" unicode="&#x11b;"
d="M192 793q0 53 15 99t40.5 80.5t60.5 54.5t74 20h531q39 0 73.5 -20t60.5 -54.5t41 -80.5t15 -99v-333h-672v-289h734q-4 -35 -19.5 -66.5t-39 -54.5t-53.5 -36.5t-63 -13.5h-608q-39 0 -74 20t-60.5 54.5t-40.5 80.5t-15 99v539zM864 600v276h-433v-276h433zM641 1287
q-35 0 -74.5 17.5t-80.5 56.5l-265 253q12 16 22.5 28.5t20 24.5t19.5 24.5t22 28.5l336 -192q84 46 170.5 95t171.5 97q22 -31 40.5 -54t39.5 -52l-265 -253q-41 -38 -79.5 -56t-77.5 -18z" />
    <glyph glyph-name="emacron" unicode="&#x113;"
d="M192 793q0 53 15 99t40.5 80.5t60.5 54.5t74 20h531q39 0 73.5 -20t60.5 -54.5t41 -80.5t15 -99v-333h-672v-289h734q-4 -35 -19.5 -66.5t-39 -54.5t-53.5 -36.5t-63 -13.5h-608q-39 0 -74 20t-60.5 54.5t-40.5 80.5t-15 99v539zM864 600v276h-433v-276h433zM232 1324
q4 35 19 71.5t38.5 66.5t54 49t63.5 19h667q-3 -35 -18.5 -71.5t-38.5 -66.5t-53.5 -49t-63.5 -19h-668z" />
    <glyph glyph-name="ebreve" unicode="&#x115;"
d="M192 793q0 53 15 99t40.5 80.5t60.5 54.5t74 20h531q39 0 73.5 -20t60.5 -54.5t41 -80.5t15 -99v-333h-672v-289h734q-4 -35 -19.5 -66.5t-39 -54.5t-53.5 -36.5t-63 -13.5h-608q-39 0 -74 20t-60.5 54.5t-40.5 80.5t-15 99v539zM864 600v276h-433v-276h433zM597 1289
q-75 0 -140 28.5t-114 80t-77 122.5t-28 156h151q0 -27 18.5 -55.5t50.5 -52.5t73.5 -39t88.5 -15h46q46 0 88 15t73.5 39t50.5 52.5t19 55.5h150q0 -85 -28 -156t-77 -122.5t-114 -80t-140 -28.5h-91v0z" />
    <glyph glyph-name="edotaccent" unicode="&#x117;"
d="M192 793q0 53 15 99t40.5 80.5t60.5 54.5t74 20h531q39 0 73.5 -20t60.5 -54.5t41 -80.5t15 -99v-333h-672v-289h734q-4 -35 -19.5 -66.5t-39 -54.5t-53.5 -36.5t-63 -13.5h-608q-39 0 -74 20t-60.5 54.5t-40.5 80.5t-15 99v539zM864 600v276h-433v-276h433zM641 1289
q-36 0 -67 12t-53 34.5t-34.5 53t-12.5 68.5q0 37 12.5 68.5t34.5 55t53 36.5t67 13q34 0 64.5 -13t53 -36.5t35.5 -55t13 -68.5q0 -38 -13 -68.5t-35.5 -53t-53 -34.5t-64.5 -12z" />
    <glyph glyph-name="gcircumflex" unicode="&#x11d;"
d="M192 793q0 53 15 99t40.5 80.5t60.5 54.5t74 20h700v-876h211q-4 -35 -19.5 -66.5t-39 -54.5t-53.5 -36.5t-63 -13.5h-36v-285q0 -53 -15 -99.5t-41 -81t-60 -55t-73 -20.5h-485v173h435v479q-29 -52 -71 -81.5t-88 -29.5h-302q-39 0 -74 20t-60.5 54.5t-40.5 80.5
t-15 99v539zM843 171v705h-413v-705h413zM663 1407q-84 -46 -170.5 -95t-171.5 -97q-22 31 -40.5 54t-39.5 52l265 253q41 38 79.5 56t77.5 18q35 0 74.5 -17.5t80.5 -56.5l265 -253q-12 -16 -22.5 -28.5t-20 -24.5t-19.5 -24.5t-22 -28.5z" />
    <glyph glyph-name="gbreve" unicode="&#x11f;"
d="M192 793q0 53 15 99t40.5 80.5t60.5 54.5t74 20h700v-876h211q-4 -35 -19.5 -66.5t-39 -54.5t-53.5 -36.5t-63 -13.5h-36v-285q0 -53 -15 -99.5t-41 -81t-60 -55t-73 -20.5h-485v173h435v479q-29 -52 -71 -81.5t-88 -29.5h-302q-39 0 -74 20t-60.5 54.5t-40.5 80.5
t-15 99v539zM843 171v705h-413v-705h413zM617 1289q-75 0 -140 28.5t-114 80t-77 122.5t-28 156h151q0 -27 18.5 -55.5t50.5 -52.5t73.5 -39t88.5 -15h46q46 0 88 15t73.5 39t50.5 52.5t19 55.5h150q0 -85 -28 -156t-77 -122.5t-114 -80t-140 -28.5h-91v0z" />
    <glyph glyph-name="ibreve" unicode="&#x12d;" horiz-adv-x="612"
d="M180 1047h239v-876h214q-3 -35 -18.5 -66.5t-39 -54.5t-53.5 -36.5t-63 -13.5h-88q-39 0 -74 20t-61 54.5t-41 80.5t-15 99v793zM280 1289q-75 0 -140 28.5t-114 80t-77 122.5t-28 156h151q0 -27 18.5 -55.5t50.5 -52.5t73.5 -39t88.5 -15h46q46 0 88 15t73.5 39
t50.5 52.5t19 55.5h150q0 -85 -28 -156t-77 -122.5t-114 -80t-140 -28.5h-91v0z" />
    <glyph glyph-name="gcommaaccent" unicode="&#x123;"
d="M192 793q0 53 15 99t40.5 80.5t60.5 54.5t74 20h700v-876h211q-4 -35 -19.5 -66.5t-39 -54.5t-53.5 -36.5t-63 -13.5h-36v-285q0 -53 -15 -99.5t-41 -81t-60 -55t-73 -20.5h-485v173h435v479q-29 -52 -71 -81.5t-88 -29.5h-302q-39 0 -74 20t-60.5 54.5t-40.5 80.5
t-15 99v539zM843 171v705h-413v-705h413zM662 1289q-35 0 -65.5 11t-53.5 31.5t-36.5 49.5t-13.5 64q0 43 6.5 78.5t19.5 66t33 59t46 58.5l107 113l94 -45l-50 -172q37 -22 59.5 -59.5t22.5 -85.5q0 -35 -13 -66t-35.5 -54t-53.5 -36t-67 -13z" />
    <glyph glyph-name="ubreve" unicode="&#x16d;" horiz-adv-x="1263"
d="M180 1047h239v-876h413v876h238v-876h203q-4 -35 -19.5 -66.5t-39 -54.5t-53.5 -36.5t-63 -13.5h-188l-78 127q-11 -28 -28 -51.5t-38.5 -40t-45 -26t-45.5 -9.5h-305q-39 0 -74 20t-60.5 54.5t-40.5 80.5t-15 99v793zM576 1289q-75 0 -140 28.5t-114 80t-77 122.5
t-28 156h151q0 -27 18.5 -55.5t50.5 -52.5t73.5 -39t88.5 -15h46q46 0 88 15t73.5 39t50.5 52.5t19 55.5h150q0 -85 -28 -156t-77 -122.5t-114 -80t-140 -28.5h-91v0z" />
    <glyph glyph-name="scaron" unicode="&#x161;" horiz-adv-x="1266"
d="M499 1107h240q-9 -22 -13.5 -43.5t-6.5 -35.5q-3 -37 12 -67t40.5 -57.5t59 -54.5t68.5 -57q40 -32 81 -73.5t74 -91t53.5 -105t18.5 -115.5q-2 -42 -18 -80.5t-42 -69t-60.5 -52.5t-72.5 -32h372q-14 -39 -33.5 -70.5t-44 -54.5t-53.5 -35.5t-60 -12.5h-274
q-46 0 -76.5 14.5t-48 38.5t-24 55.5t-3.5 65.5q32 4 63 17t55.5 37.5t41 61.5t20.5 89q4 41 -8 77t-32 68t-46 61t-51 56q-26 34 -52 82t-37 117l-316 -840h-247zM633 1287q-35 0 -74.5 17.5t-80.5 56.5l-265 253q12 16 22.5 28.5t20 24.5t19.5 24.5t22 28.5l336 -192
q84 46 170.5 95t171.5 97q22 -31 40.5 -54t39.5 -52l-265 -253q-41 -38 -79.5 -56t-77.5 -18z" />
    <glyph glyph-name="zcaron" unicode="&#x17e;" horiz-adv-x="1083"
d="M162 186l570 690h-540v171h795v-184l-567 -692h645q-4 -35 -19.5 -66.5t-39 -54.5t-53.5 -36.5t-63 -13.5h-728v186zM570 1287q-35 0 -74.5 17.5t-80.5 56.5l-265 253q12 16 22.5 28.5t20 24.5t19.5 24.5t22 28.5l336 -192q84 46 170.5 95t171.5 97q22 -31 40.5 -54
t39.5 -52l-265 -253q-41 -38 -79.5 -56t-77.5 -18z" />
    <glyph glyph-name="ncaron" unicode="&#x148;" horiz-adv-x="1311"
d="M220 1047h239v-396l309 320q32 37 66.5 57t82.5 20q40 0 77 -20t65 -54.5t44.5 -80.5t16.5 -99v-622h202q-4 -36 -19.5 -67t-39 -54.5t-53.5 -37t-63 -13.5h-78q-40 0 -74.5 20t-60 54.5t-40.5 80.5t-15 99v608l-420 -432v-430h-239v1047zM697 1287q-35 0 -74.5 17.5
t-80.5 56.5l-265 253q12 16 22.5 28.5t20 24.5t19.5 24.5t22 28.5l336 -192q84 46 170.5 95t171.5 97q22 -31 40.5 -54t39.5 -52l-265 -253q-41 -38 -79.5 -56t-77.5 -18z" />
    <glyph glyph-name="uni1E40" unicode="&#x1e40;" horiz-adv-x="1983"
d="M220 1516h239v-402l291 324q32 38 78.5 58t94.5 20q42 0 76 -18t58 -49.5t37 -74t13 -90.5v-170l263 324q29 40 77.5 59t95.5 19q42 0 76 -18t58 -49.5t37 -74t13 -90.5v-1113h216q-4 -35 -19.5 -66.5t-39 -54.5t-53.5 -36.5t-63 -13.5h-94q-39 0 -72.5 20t-58 54
t-38.5 80t-14 98v1068l-384 -459v-861h-236v1320l-412 -459v-861h-239v1516zM1060 1678q-36 0 -67 10.5t-53 31t-34.5 49.5t-12.5 67q0 37 12.5 67t34.5 51.5t53 33t67 11.5q34 0 64.5 -11.5t53 -33t35.5 -51.5t13 -67q0 -38 -13 -67t-35.5 -49.5t-53 -31t-64.5 -10.5z" />
    <glyph glyph-name="uni1E1E" unicode="&#x1e1e;" horiz-adv-x="1193"
d="M184 564q3 33 17 62.5t36.5 51t51 34.5t60.5 13h324v621h-647q4 35 19.5 66t39 54t53.5 36.5t63 13.5h706v-791h204l1 -161h-205v-575q0 -52 -16 -98t-43 -80t-62 -53.5t-73 -19.5h-40v826h-489v0zM583 1678q-36 0 -67 10.5t-53 31t-34.5 49.5t-12.5 67q0 37 12.5 67
t34.5 51.5t53 33t67 11.5q34 0 64.5 -11.5t53 -33t35.5 -51.5t13 -67q0 -38 -13 -67t-35.5 -49.5t-53 -31t-64.5 -10.5z" />
    <glyph glyph-name="uni1E0B" unicode="&#x1e0b;"
d="M192 793q0 53 15 99t40.5 80.5t60.5 54.5t74 20h462v543h238v-1419h190q-4 -35 -19.5 -66.5t-39 -54.5t-53.5 -36.5t-63 -13.5h-253v109q-27 -51 -69 -80t-89 -29h-304q-39 0 -74 20t-60.5 54.5t-40.5 80.5t-15 99v539zM844 171v705h-414v-705h414zM463 1289
q-36 0 -67 12t-53 34.5t-34.5 53t-12.5 68.5q0 37 12.5 68.5t34.5 55t53 36.5t67 13q34 0 64.5 -13t53 -36.5t35.5 -55t13 -68.5q0 -38 -13 -68.5t-35.5 -53t-53 -34.5t-64.5 -12z" />
    <glyph glyph-name="uni1E03" unicode="&#x1e03;"
d="M192 1591h238v-660q28 54 70 85t91 31h302q39 0 73 -20t60 -54.5t41 -80.5t15 -99v-622h211q-4 -35 -19.5 -66.5t-39 -54.5t-53.5 -36.5t-63 -13.5h-527q-49 0 -90.5 30.5t-70.5 82.5v-113h-238v1591zM844 171v705h-414v-705h414zM826 1289q-36 0 -67 12t-53 34.5
t-34.5 53t-12.5 68.5q0 37 12.5 68.5t34.5 55t53 36.5t67 13q34 0 64.5 -13t53 -36.5t35.5 -55t13 -68.5q0 -38 -13 -68.5t-35.5 -53t-53 -34.5t-64.5 -12z" />
    <glyph glyph-name="uni1E02" unicode="&#x1e02;" horiz-adv-x="1348"
d="M230 565h-252q3 36 18 67t38.5 54t54 36.5t64.5 13.5h77v780h702q40 0 77 -19.5t65.5 -54t46 -81t17.5 -99.5v-374q0 -73 -33 -134t-96 -98q44 -16 76 -45t52.5 -64t30.5 -73t10 -72v-150q0 -52 -15 -98t-41.5 -80t-61 -54t-73.5 -20h-757v565zM901 736v609h-434v-609
h434zM939 171v394h-472v-394h472zM681 1678q-36 0 -67 10.5t-53 31t-34.5 49.5t-12.5 67q0 37 12.5 67t34.5 51.5t53 33t67 11.5q34 0 64.5 -11.5t53 -33t35.5 -51.5t13 -67q0 -38 -13 -67t-35.5 -49.5t-53 -31t-64.5 -10.5z" />
    <glyph glyph-name="uni1E1F" unicode="&#x1e1f;" horiz-adv-x="762"
d="M496 -269q0 -53 -16 -99.5t-43.5 -81t-64.5 -55t-78 -20.5h-36v1419h-80v154h80v288q0 53 15 99.5t40.5 81t60.5 54.5t74 20h382v-174h-334v-369h250v-154h-250v-1163v0zM354 1673q-36 0 -67 12t-53 34.5t-34.5 53t-12.5 68.5q0 37 12.5 68.5t34.5 55t53 36.5t67 13
q34 0 64.5 -13t53 -36.5t35.5 -55t13 -68.5q0 -38 -13 -68.5t-35.5 -53t-53 -34.5t-64.5 -12z" />
    <glyph glyph-name="uni1E6A" unicode="&#x1e6a;" horiz-adv-x="1209"
d="M265 0q4 35 19.5 66t39 54.5t53.5 37t63 13.5h294v1176h-444v-325h-239v240q0 53 15 99.5t41 81t60 54t73 19.5h939v-169h-207v-1094q0 -52 -15 -98t-41 -80.5t-60 -54.5t-73 -20h-518v0zM838 1678q-36 0 -67 10.5t-53 31t-34.5 49.5t-12.5 67q0 37 12.5 67t34.5 51.5
t53 33t67 11.5q34 0 64.5 -11.5t53 -33t35.5 -51.5t13 -67q0 -38 -13 -67t-35.5 -49.5t-53 -31t-64.5 -10.5z" />
    <glyph glyph-name="uni1E6B" unicode="&#x1e6b;" horiz-adv-x="765"
d="M222 893h-80v154h80v278l239 119v-397h269v-154h-269v-722h358q-4 -35 -19.5 -66.5t-39.5 -54.5t-54 -36.5t-63 -13.5h-231q-39 0 -74 20t-60.5 54.5t-40.5 80.5t-15 99v639zM345 1570q-36 0 -67 12t-53 34.5t-34.5 53t-12.5 68.5q0 37 12.5 68.5t34.5 55t53 36.5t67 13
q34 0 64.5 -13t53 -36.5t35.5 -55t13 -68.5q0 -38 -13 -68.5t-35.5 -53t-53 -34.5t-64.5 -12z" />
    <glyph glyph-name="Lcommaaccent" unicode="&#x13b;" horiz-adv-x="1193"
d="M50 0q3 34 18.5 65.5t39 54.5t53.5 37t64 14h42v1091q0 53 15 99.5t40.5 81t60 54t73.5 19.5h320v-159h-271v-941q0 -52 -14.5 -95t-36 -75t-47.5 -51.5t-49 -23.5h586v220h211v-221q0 -36 -15 -67t-39.5 -54t-56 -36t-64.5 -13h-930v0zM589 -139q35 0 65.5 -13
t53.5 -35.5t36.5 -53.5t13.5 -66q0 -44 -16.5 -84.5t-46 -82.5t-69.5 -86.5t-88 -95.5l-94 45l68 179q-42 19 -67 51t-25 74q0 35 13 66t35.5 53.5t53.5 35.5t67 13z" />
    <glyph glyph-name="Kcommaaccent" unicode="&#x136;" horiz-adv-x="1369"
d="M220 1516h240v-753h199l258 753h254l-285 -753h51q39 0 71.5 -20t55.5 -54t36 -79.5t13 -97.5v-340h266q-4 -36 -19.5 -67t-39 -54.5t-53.5 -37t-63 -13.5h-141q-39 0 -73.5 20t-60.5 54t-41 80t-15 98v343h-413v-595h-240v1516zM662 -139q35 0 65.5 -13t53.5 -35.5
t36.5 -53.5t13.5 -66q0 -44 -16.5 -84.5t-46 -82.5t-69.5 -86.5t-88 -95.5l-94 45l68 179q-42 19 -67 51t-25 74q0 35 13 66t35.5 53.5t53.5 35.5t67 13z" />
    <glyph glyph-name="Ncommaaccent" unicode="&#x145;" horiz-adv-x="1443"
d="M220 1516h237v-367l373 292q18 15 36 28.5t37.5 24t41 16.5t46.5 6q39 0 73 -17.5t59.5 -49t40 -74t14.5 -91.5v-1112h225q-4 -36 -19.5 -67t-39 -54.5t-53.5 -37t-63 -13.5h-108q-39 0 -73 20t-59.5 54t-40 80t-14.5 98v1063l-476 -371v-944h-237v1516zM723 -139
q35 0 65.5 -13t53.5 -35.5t36.5 -53.5t13.5 -66q0 -44 -16.5 -84.5t-46 -82.5t-69.5 -86.5t-88 -95.5l-94 45l68 179q-42 19 -67 51t-25 74q0 35 13 66t35.5 53.5t53.5 35.5t67 13z" />
    <glyph glyph-name="ncommaaccent" unicode="&#x146;" horiz-adv-x="1311"
d="M220 1047h239v-396l309 320q32 37 66.5 57t82.5 20q40 0 77 -20t65 -54.5t44.5 -80.5t16.5 -99v-622h202q-4 -36 -19.5 -67t-39 -54.5t-53.5 -37t-63 -13.5h-78q-40 0 -74.5 20t-60 54.5t-40.5 80.5t-15 99v608l-420 -432v-430h-239v1047zM776 -139q35 0 65.5 -13
t53.5 -35.5t36.5 -53.5t13.5 -66q0 -44 -16.5 -84.5t-46 -82.5t-69.5 -86.5t-88 -95.5l-94 45l68 179q-42 19 -67 51t-25 74q0 35 13 66t35.5 53.5t53.5 35.5t67 13z" />
    <glyph glyph-name="lcommaaccent" unicode="&#x13c;" horiz-adv-x="592"
d="M172 1591h239v-1420h213q-6 -40 -22.5 -72t-40 -54t-53 -33.5t-61.5 -11.5h-84q-39 0 -74 20t-61 54.5t-41 80.5t-15 99v1337zM395 -139q35 0 65.5 -13t53.5 -35.5t36.5 -53.5t13.5 -66q0 -44 -16.5 -84.5t-46 -82.5t-69.5 -86.5t-88 -95.5l-94 45l68 179q-42 19 -67 51
t-25 74q0 35 13 66t35.5 53.5t53.5 35.5t67 13z" />
    <glyph glyph-name="uni1E0A" unicode="&#x1e0a;" horiz-adv-x="1387"
d="M244 982q0 52 15.5 97.5t42 80t61.5 54.5t75 20h45v-1063h463v1176h-896q3 35 18.5 66t39 54t53.5 36t64 13h768q39 0 74 -19.5t60.5 -54t40.5 -81t15 -99.5v-1010q0 -52 -15 -98t-40.5 -80t-60 -54t-73.5 -20h-749zM615 1678q-36 0 -67 10.5t-53 31t-34.5 49.5t-12.5 67
q0 37 12.5 67t34.5 51.5t53 33t67 11.5q34 0 64.5 -11.5t53 -33t35.5 -51.5t13 -67q0 -38 -13 -67t-35.5 -49.5t-53 -31t-64.5 -10.5z" />
    <glyph glyph-name="Gcommaaccent" unicode="&#x122;" horiz-adv-x="1348"
d="M200 1261q0 53 15 99.5t40.5 81t59.5 54t73 19.5h800v-169h-749v-1174h514v711h237l-2 -1000q0 -51 -14.5 -96.5t-39.5 -80t-59 -54.5t-72 -20h-50v368h-565q-39 0 -73 20t-59.5 54t-40.5 80t-15 98v1009zM692 -139q35 0 65.5 -13t53.5 -35.5t36.5 -53.5t13.5 -66
q0 -44 -16.5 -84.5t-46 -82.5t-69.5 -86.5t-88 -95.5l-94 45l68 179q-42 19 -67 51t-25 74q0 35 13 66t35.5 53.5t53.5 35.5t67 13z" />
    <glyph glyph-name="Dcroat" unicode="&#x110;" horiz-adv-x="1387"
d="M244 549h-193v154h193v279q0 52 15.5 97.5t42 80t61.5 54.5t75 20h45v-531h241v-154h-241v-378h461v1176h-894q3 35 18.5 66t39 54t53.5 36t64 13h768q39 0 74 -19.5t60.5 -54t40.5 -81t15 -99.5v-1010q0 -52 -15 -98t-40.5 -80t-60 -54t-73.5 -20h-749z" />
    <glyph glyph-name="dcaron" unicode="&#x10f;" horiz-adv-x="1322"
d="M192 793q0 53 15 99t40.5 80.5t60.5 54.5t74 20h462v543h238v-1419h190q-4 -35 -19.5 -66.5t-39 -54.5t-53.5 -36.5t-63 -13.5h-253v109q-27 -51 -69 -80t-89 -29h-304q-39 0 -74 20t-60.5 54.5t-40.5 80.5t-15 99v539zM844 171v705h-414v-705h414zM1245 1491
q6 27 23 40.5t57 13.5q35 0 62 -1t45 -9.5t27.5 -27.5t9.5 -54q0 -41 -6.5 -79.5t-19.5 -77.5t-33 -81.5t-46 -90.5h-134z" />
    <glyph glyph-name="tcaron" unicode="&#x165;" horiz-adv-x="801"
d="M222 893h-80v154h80v278l239 119v-397h269v-154h-269v-722h358q-4 -35 -19.5 -66.5t-39.5 -54.5t-54 -36.5t-63 -13.5h-231q-39 0 -74 20t-60.5 54.5t-40.5 80.5t-15 99v639zM726 1491q6 27 23 40.5t57 13.5q35 0 62 -1t45 -9.5t27.5 -27.5t9.5 -54q0 -41 -6.5 -79.5
t-19.5 -77.5t-33 -81.5t-46 -90.5h-134z" />
    <glyph glyph-name="florin" unicode="&#x192;" horiz-adv-x="931"
d="M299 -269q-8 -53 -31 -99.5t-55.5 -81t-72.5 -55t-81 -20.5h-36l214 1419h-140l23 154h140l44 288q8 53 30 99.5t52.5 81t68.5 54.5t77 20h378l-26 -174h-330l-56 -369h246l-23 -154h-246l-176 -1163v0z" />
    <glyph glyph-name="hungarumlaut.cap" horiz-adv-x="1284"
d="M650 1741l232 258q25 27 55 41t61 14q27 0 52 -11.5t43.5 -30.5t29.5 -44.5t11 -53.5q0 -47 -27.5 -88.5t-73.5 -64.5l-296 -135zM150 1741l232 258q25 27 55 41t61 14q27 0 52 -11.5t43.5 -30.5t29.5 -44.5t11 -53.5q0 -47 -27.5 -88.5t-73.5 -64.5l-296 -135z" />
    <glyph glyph-name="ohungarumlaut" unicode="&#x151;"
d="M192 793q0 53 15 99.5t40.5 81t59.5 54t73 19.5h838q-4 -35 -19.5 -66.5t-39 -54.5t-53.5 -36.5t-63 -13.5h-63q19 -14 37.5 -36t33 -51t23 -63.5t8.5 -74.5v-399q0 -52 -15 -98t-41 -80t-60.5 -54t-73.5 -20h-512q-39 0 -73 20t-59.5 54t-40.5 80t-15 98v541zM843 171
v705h-412v-705h412zM301 1317l124 360q16 48 49 75t73 27q35 0 69 -22q31 -20 45.5 -52.5t14.5 -69.5q0 -32 -11 -64t-32 -58l-219 -271zM740 1311l144 347q17 45 49 70t70 25q40 0 75 -28q27 -22 40 -52.5t13 -64.5q0 -35 -13 -69.5t-37 -60.5l-226 -248z" />
    <glyph glyph-name="uhungarumlaut" unicode="&#x171;" horiz-adv-x="1263"
d="M180 1047h239v-876h413v876h238v-876h203q-4 -35 -19.5 -66.5t-39 -54.5t-53.5 -36.5t-63 -13.5h-188l-78 127q-11 -28 -28 -51.5t-38.5 -40t-45 -26t-45.5 -9.5h-305q-39 0 -74 20t-60.5 54.5t-40.5 80.5t-15 99v793zM279 1317l124 360q16 48 49 75t73 27q35 0 69 -22
q31 -20 45.5 -52.5t14.5 -69.5q0 -32 -11 -64t-32 -58l-219 -271zM718 1311l144 347q17 45 49 70t70 25q40 0 75 -28q27 -22 40 -52.5t13 -64.5q0 -35 -13 -69.5t-37 -60.5l-226 -248z" />
    <glyph glyph-name="Uhungarumlaut" unicode="&#x170;" horiz-adv-x="1396"
d="M200 1516h240v-1334h93l385 304v1030h238v-1344h200q-4 -36 -19.5 -67t-39 -54.5t-53.5 -37t-63 -13.5h-263v288l-317 -255q-38 -33 -88 -33h-115q-40 0 -76 20t-63 54t-43 80t-16 98v1264zM789 1726l232 258q25 27 55 41t61 14q27 0 52 -11.5t43.5 -30.5t29.5 -44.5
t11 -53.5q0 -47 -27.5 -88.5t-73.5 -64.5l-296 -135zM289 1726l232 258q25 27 55 41t61 14q27 0 52 -11.5t43.5 -30.5t29.5 -44.5t11 -53.5q0 -47 -27.5 -88.5t-73.5 -64.5l-296 -135z" />
    <glyph glyph-name="Ohungarumlaut" unicode="&#x150;" horiz-adv-x="1358"
d="M200 1262q0 53 15 99.5t40.5 81t59.5 54t73 19.5h580q39 0 74 -19.5t60.5 -54t40.5 -81t15 -99.5v-1010q0 -52 -15 -98t-41 -80t-60.5 -54t-73.5 -20h-580q-39 0 -73 20t-59.5 54t-40.5 80t-15 98v1010zM920 171v1176h-481v-1176h481zM768 1726l232 258q25 27 55 41
t61 14q27 0 52 -11.5t43.5 -30.5t29.5 -44.5t11 -53.5q0 -47 -27.5 -88.5t-73.5 -64.5l-296 -135zM268 1726l232 258q25 27 55 41t61 14q27 0 52 -11.5t43.5 -30.5t29.5 -44.5t11 -53.5q0 -47 -27.5 -88.5t-73.5 -64.5l-296 -135z" />
    <glyph glyph-name="dcroat" unicode="&#x111;"
d="M192 793q0 53 15 99t40.5 80.5t60.5 54.5t74 20h462v161h-306v166h306v216h238v-216h95v-166h-95v-1037h190q-4 -35 -19.5 -66.5t-39 -54.5t-53.5 -36.5t-63 -13.5h-253v109q-27 -51 -69 -80t-89 -29h-304q-39 0 -74 20t-60.5 54.5t-40.5 80.5t-15 99v539zM844 171v705
h-414v-705h414z" />
    <glyph glyph-name="Aring" unicode="&#xc5;" horiz-adv-x="1327"
d="M227 381h-231q4 35 19.5 66t39 54.5t53.5 37t63 13.5h86l133 775q7 41 26.5 76t46 60t58.5 39t64 14h243q31 0 63 -14t59 -39.5t46.5 -60t26.5 -76.5l228 -1326h-239l-62 381h-491l-61 -381h-236zM923 552l-128 795h-183q-32 -194 -63 -393.5t-63 -401.5h437zM717 1499
q-60 0 -112.5 22.5t-91.5 62t-61.5 92t-22.5 112.5q0 59 22.5 111.5t61.5 91.5t91.5 62t112.5 23t112.5 -23t92 -62t62 -91.5t22.5 -111.5q0 -60 -22.5 -112.5t-62 -92t-92 -62t-112.5 -22.5zM717 1653q28 0 52.5 10.5t42.5 29t28.5 43t10.5 52.5q0 27 -10.5 51.5
t-28.5 43.5t-42.5 30t-52.5 11t-52 -11t-42 -30t-28.5 -43.5t-10.5 -51.5q0 -28 10.5 -52.5t28.5 -43t42 -29t52 -10.5z" />
    <glyph glyph-name="Rcommaaccent" unicode="&#x156;" horiz-adv-x="1388"
d="M237 564h-223q3 35 18.5 66t39 54.5t53.5 37t64 13.5h48v781h678q40 0 77 -19.5t65.5 -54t45.5 -81t17 -99.5v-373q0 -73 -33 -134t-96 -98q44 -16 76 -45t53 -64t31 -73t10 -72l-1 -231h263q-4 -36 -19.5 -67t-39 -54.5t-53.5 -37t-63 -13.5h-138q-39 0 -73.5 20
t-60.5 54t-41 80t-15 98v312h-446l-1 -564h-236v564zM883 735v610h-409v-610h409zM725 -139q35 0 65.5 -13t53.5 -35.5t36.5 -53.5t13.5 -66q0 -44 -16.5 -84.5t-46 -82.5t-69.5 -86.5t-88 -95.5l-94 45l68 179q-42 19 -67 51t-25 74q0 35 13 66t35.5 53.5t53.5 35.5t67 13z
" />
    <glyph glyph-name="Uring" unicode="&#x16e;" horiz-adv-x="1396"
d="M200 1516h240v-1334h93l385 304v1030h238v-1344h200q-4 -36 -19.5 -67t-39 -54.5t-53.5 -37t-63 -13.5h-263v288l-317 -255q-38 -33 -88 -33h-115q-40 0 -76 20t-63 54t-43 80t-16 98v1264zM701 1499q-60 0 -112.5 22.5t-91.5 62t-61.5 92t-22.5 112.5q0 59 22.5 111.5
t61.5 91.5t91.5 62t112.5 23t112.5 -23t92 -62t62 -91.5t22.5 -111.5q0 -60 -22.5 -112.5t-62 -92t-92 -62t-112.5 -22.5zM701 1653q28 0 52.5 10.5t42.5 29t28.5 43t10.5 52.5q0 27 -10.5 51.5t-28.5 43.5t-42.5 30t-52.5 11t-52 -11t-42 -30t-28.5 -43.5t-10.5 -51.5
q0 -28 10.5 -52.5t28.5 -43t42 -29t52 -10.5z" />
    <glyph glyph-name="eogonek" unicode="&#x119;"
d="M192 793q0 53 15 99t40.5 80.5t60.5 54.5t74 20h531q39 0 73.5 -20t60.5 -54.5t41 -80.5t15 -99v-333h-672v-289h734q-4 -35 -19.5 -66.5t-39 -54.5t-53.5 -36.5t-63 -13.5h-608q-39 0 -74 20t-60.5 54.5t-40.5 80.5t-15 99v539zM864 600v276h-433v-276h433zM1084 59
l-347 -360h382v-208h-400q-34 0 -64 14t-52 38t-34.5 55t-12.5 65q0 45 13 74.5t36 55.5l313 318z" />
    <glyph glyph-name="aogonek" unicode="&#x105;" horiz-adv-x="1281"
d="M192 765q0 60 16.5 112t45.5 90t68.5 59.5t85.5 21.5h674v-877h217q-4 -35 -19.5 -66.5t-39 -54.5t-53.5 -36.5t-63 -13.5h-107q-49 0 -93 33.5t-73 90.5q-29 -57 -73 -90.5t-93 -33.5h-303q-39 0 -74 20t-60.5 54t-40.5 79.5t-15 97.5v514zM844 171v705h-414v-705h414z
M1243 59l-347 -360h382v-208h-400q-34 0 -64 14t-52 38t-34.5 55t-12.5 65q0 45 13 74.5t36 55.5l313 318z" />
    <glyph glyph-name="Aogonek" unicode="&#x104;" horiz-adv-x="1327"
d="M227 381h-231q4 35 19.5 66t39 54.5t53.5 37t63 13.5h86l133 775q7 41 26.5 76t46 60t58.5 39t64 14h243q31 0 63 -14t59 -39.5t46.5 -60t26.5 -76.5l228 -1326h-239l-62 381h-491l-61 -381h-236zM923 552l-128 795h-183q-32 -194 -63 -393.5t-63 -401.5h437zM1235 59
l-347 -360h382v-208h-400q-34 0 -64 14t-52 38t-34.5 55t-12.5 65q0 45 13 74.5t36 55.5l313 318z" />
    <glyph glyph-name="Eogonek" unicode="&#x118;" horiz-adv-x="1172"
d="M230 564h-225q3 33 17 62.5t36.5 51t51 34.5t60.5 13h60v537q0 53 14.5 99.5t40 81t60 54t73.5 19.5h628v-169h-576v-622h396v-161h-396v-393h665q-4 -35 -19.5 -66.5t-39 -54.5t-53.5 -36.5t-63 -13.5h-540q-40 0 -74.5 20t-60 54t-40.5 80t-15 98v312zM1045 59
l-347 -360h382v-208h-400q-34 0 -64 14t-52 38t-34.5 55t-12.5 65q0 45 13 74.5t36 55.5l313 318z" />
    <glyph glyph-name="iogonek" unicode="&#x12f;" horiz-adv-x="612"
d="M297 1289q-35 0 -65.5 13t-53.5 36t-36 53.5t-13 65.5t13 65.5t36 53.5t53.5 36.5t65.5 13.5t65.5 -13.5t53.5 -36.5t36.5 -53.5t13.5 -65.5t-13.5 -65.5t-36.5 -53.5t-54 -36t-65 -13zM180 1047h239v-876h214q-3 -35 -18.5 -66.5t-39 -54.5t-53.5 -36.5t-63 -13.5h-88
q-39 0 -74 20t-61 54.5t-41 80.5t-15 99v793zM571 59l-347 -360h382v-208h-400q-34 0 -64 14t-52 38t-34.5 55t-12.5 65q0 45 13 74.5t36 55.5l313 318z" />
    <glyph glyph-name="Iogonek" unicode="&#x12e;" horiz-adv-x="1102"
d="M319 171h317v1176h-330v-345h-206v260q0 53 15 99.5t41 81t60.5 54t74.5 19.5h583v-1264q0 -52 -15 -98t-41 -80t-60.5 -54t-73.5 -20h-365v171zM787 59l-347 -360h382v-208h-400q-34 0 -64 14t-52 38t-34.5 55t-12.5 65q0 45 13 74.5t36 55.5l313 318z" />
    <glyph glyph-name="uogonek" unicode="&#x173;" horiz-adv-x="1263"
d="M180 1047h239v-876h413v876h238v-876h203q-4 -35 -19.5 -66.5t-39 -54.5t-53.5 -36.5t-63 -13.5h-188l-78 127q-11 -28 -28 -51.5t-38.5 -40t-45 -26t-45.5 -9.5h-305q-39 0 -74 20t-60.5 54.5t-40.5 80.5t-15 99v793zM1212 59l-347 -360h382v-208h-400q-34 0 -64 14
t-52 38t-34.5 55t-12.5 65q0 45 13 74.5t36 55.5l313 318z" />
    <glyph glyph-name="Uogonek" unicode="&#x172;" horiz-adv-x="1396"
d="M200 1516h240v-1334h93l385 304v1030h238v-1344h200q-4 -36 -19.5 -67t-39 -54.5t-53.5 -37t-63 -13.5h-263v288l-317 -255q-38 -33 -88 -33h-115q-40 0 -76 20t-63 54t-43 80t-16 98v1264zM1288 59l-347 -360h382v-208h-400q-34 0 -64 14t-52 38t-34.5 55t-12.5 65
q0 45 13 74.5t36 55.5l313 318z" />
    <glyph glyph-name="minus" unicode="&#x2212;" horiz-adv-x="1285"
d="M250 607h874v-176h-874v176z" />
    <glyph glyph-name="infinity" unicode="&#x221e;" horiz-adv-x="1445"
d="M98 832q0 39 20 74t54.5 61t80.5 41t99 15h101q41 0 79.5 -11.5t71.5 -31.5t58.5 -47.5t41.5 -59.5q16 32 42 59.5t58 47.5t70 31.5t80 11.5h139q52 0 98.5 -15t81 -41t54.5 -61t20 -74v-498q0 -39 -20 -73.5t-54.5 -61t-81 -41.5t-98.5 -15h-139q-42 0 -80 11t-70.5 31
t-58 47.5t-41.5 60.5q-16 -33 -42 -60.5t-58.5 -47.5t-71 -31t-79.5 -11h-101q-53 0 -99 15t-80.5 41.5t-54.5 61t-20 73.5v498zM1175 382v401h-381v-401h381zM623 382v401h-354v-401h354z" />
    <glyph glyph-name="Eng" unicode="&#x14a;" horiz-adv-x="1370"
d="M220 1516h237v-367l373 292q18 15 36 28.5t37.5 24t41 16.5t46.5 6q39 0 73 -17.5t59.5 -49t40 -74t14.5 -91.5v-1570q0 -52 -14 -98.5t-38.5 -81t-58 -54.5t-73.5 -20h-494v171h433v1684l-476 -371v-944h-237v1516z" />
    <glyph glyph-name="eng" unicode="&#x14b;" horiz-adv-x="1234"
d="M220 1047h239v-396l309 320q32 37 66.5 57t82.5 20q40 0 77 -20t65 -54.5t44.5 -80.5t16.5 -99v-1079q0 -53 -15 -99.5t-41 -81t-61 -55t-74 -20.5h-196v173h146v1230l-420 -432v-430h-239v1047z" />
    <glyph glyph-name="partialdiff" unicode="&#x2202;"
d="M192 706q0 53 15 99.5t40.5 81t59.5 54t73 19.5h389l-479 633l171 88l581 -748q24 -35 38 -79.5t14 -95.5l-1 -506q0 -52 -15 -98t-41 -80t-60.5 -54t-73.5 -20h-523q-39 0 -73 20t-59.5 54t-40.5 80t-15 98v454zM865 171v618h-444v-618h444z" />
    <glyph glyph-name="product" unicode="&#x220f;" horiz-adv-x="1397"
d="M200 1345h-199q4 36 19.5 67t39 54t53.5 36.5t63 13.5h1021v-1686h-240v1515h-519v-1515h-238v1515z" />
    <glyph glyph-name="radical" unicode="&#x221a;" horiz-adv-x="1450"
d="M293 871h-140v176h320l237 -880l357 1533h239l-434 -1700h-326z" />
    <glyph glyph-name="approxequal" unicode="&#x2248;" horiz-adv-x="1285"
d="M128 808q13 46 45 85.5t77 68t100.5 44.5t117.5 16q49 0 95 -13.5t86.5 -37t73.5 -56.5t55 -72h157l68 116h144l-27 -102q-13 -48 -45 -88t-77.5 -68t-101.5 -43t-116 -15q-52 0 -100 13.5t-90 37t-75.5 56.5t-56.5 72h-147l-69 -116h-144zM148 335q13 46 45 85.5t77 68
t100.5 44.5t117.5 16q49 0 95 -13.5t86.5 -37t73.5 -56.5t55 -72h157l68 116h144l-27 -102q-13 -48 -45 -88t-77.5 -68t-101.5 -43t-116 -15q-52 0 -100 13.5t-90 37t-75.5 56.5t-56.5 72h-147l-69 -116h-144z" />
    <glyph glyph-name="summation" unicode="&#x2211;" horiz-adv-x="1113"
d="M404 684l-291 676q0 53 12 84t34.5 47t54 20.5t70.5 4.5h678v-169h-600l313 -667l-328 -679h704q-4 -35 -19.5 -66.5t-39 -54.5t-53.5 -36.5t-63 -13.5h-590q-40 0 -74 7t-59 26t-39.5 52t-14.5 85z" />
    <glyph glyph-name="integral" unicode="&#x222b;" horiz-adv-x="942"
d="M352 -166v1502q0 53 15 99.5t40.5 81t60.5 54.5t74 20h378v-174h-330v-1502q0 -53 -15 -99.5t-40.5 -81t-60.5 -54.5t-74 -20h-327v174h279z" />
    <glyph glyph-name="Delta" unicode="&#x2206;" horiz-adv-x="1450"
d="M320 171l341 1345h362l372 -1516h-1166q-33 0 -63 13.5t-53.5 36.5t-39 54.5t-19.5 66.5h266zM1107 176l-266 1169l-272 -1169h538z" />
    <glyph glyph-name="Hbar" unicode="&#x126;" horiz-adv-x="1457"
d="M230 1022h-188q4 35 19 66t38.5 54.5t54 37t63.5 13.5h13v323h238v-323h519v323h240v-323h188q-3 -35 -18.5 -66.5t-38.5 -54.5t-53.5 -36.5t-63.5 -13.5h-14v-1022h-240v565h-519v-565h-238v1022zM987 736v286h-519v-286h519z" />
    <glyph glyph-name="Lacute" unicode="&#x139;" horiz-adv-x="1193"
d="M50 0q3 34 18.5 65.5t39 54.5t53.5 37t64 14h42v1091q0 53 15 99.5t40.5 81t60 54t73.5 19.5h320v-159h-271v-941q0 -52 -14.5 -95t-36 -75t-47.5 -51.5t-49 -23.5h586v220h211v-221q0 -36 -15 -67t-39.5 -54t-56 -36t-64.5 -13h-930v0zM488 1683l313 267q41 29 83 29
q35 0 64 -19.5t46 -57.5q12 -27 12 -53q0 -24 -8.5 -46t-23.5 -40.5t-35.5 -32t-44.5 -19.5l-351 -122z" />
    <glyph glyph-name="lacute" unicode="&#x13a;" horiz-adv-x="592"
d="M172 1451h239v-1280h213q-6 -40 -22.5 -72t-40 -54t-53 -33.5t-61.5 -11.5h-84q-39 0 -74 20t-61 54.5t-41 80.5t-15 99v1197zM133 1751l313 267q41 29 83 29q35 0 64 -19.5t46 -57.5q12 -27 12 -53q0 -24 -8.5 -46t-23.5 -40.5t-35.5 -32t-44.5 -19.5l-351 -122z" />
    <glyph glyph-name="tbar" unicode="&#x167;" horiz-adv-x="765"
d="M111 679h573v-131h-573v131zM222 893h-80v154h80v278l239 119v-397h269v-154h-269v-722h358q-4 -35 -19.5 -66.5t-39.5 -54.5t-54 -36.5t-63 -13.5h-231q-39 0 -74 20t-60.5 54.5t-40.5 80.5t-15 99v639z" />
    <glyph glyph-name="Tbar" unicode="&#x166;" horiz-adv-x="1285"
d="M489 689h-245v161h245v497h-436q0 53 15 86t41 51.5t60 25t73 6.5h939v-169h-454v-497h304v-161h-304v-436q0 -52 -15 -98t-41 -80.5t-60 -54.5t-73 -20h-49v689z" />
    <glyph glyph-name="pi" unicode="&#x3c0;" horiz-adv-x="1285"
d="M270 765q6 58 29 110h-219v172h1098v-172h-151v-704h217q-4 -35 -19.5 -66.5t-39 -54.5t-53.5 -36.5t-63 -13.5h-107q-24 0 -52.5 10t-53 28.5t-41 44t-16.5 57.5v735h-318l-102 -875q-39 0 -79 20t-71 54t-48 79.5t-11 97.5z" />
    <glyph glyph-name="Omega" unicode="&#x2126;" horiz-adv-x="1385"
d="M349 171q-20 9 -37.5 34t-32.5 59.5t-27.5 75t-21 80.5t-13 77t-4.5 65v700q0 53 15 99.5t40.5 81t59.5 54t73 19.5h580q39 0 74 -19.5t61 -54t41 -81t15 -99.5v-700q0 -28 -4.5 -65t-13 -77t-21 -80.5t-27.5 -75t-32.5 -59.5t-37.5 -34h287q-4 -35 -19.5 -66t-39 -54.5
t-53.5 -37t-63 -13.5h-215v1347h-481v-1347h-185q-33 0 -63 13.5t-53.5 37t-39 54.5t-19.5 66h257z" />
    <glyph glyph-name="uniEFFD" unicode="&#xeffd;" horiz-adv-x="0"
 />
    <glyph glyph-name="thinspace" unicode="&#x2009;" horiz-adv-x="0"
 />
    <glyph glyph-name="enspace" unicode="&#x2002;" horiz-adv-x="0"
 />
    <glyph glyph-name="zerowidthspace" unicode="&#x200b;" horiz-adv-x="0"
 />
    <glyph glyph-name="zerowidthjoiner" unicode="&#xfeff;" horiz-adv-x="0"
 />
    <glyph glyph-name="zerowidthnonjoiner" unicode="&#x200c;" horiz-adv-x="0"
 />
    <glyph glyph-name="HT" unicode="&#x9;" horiz-adv-x="0"
 />
    <glyph glyph-name="DEL" horiz-adv-x="0"
 />
    <glyph glyph-name="US" horiz-adv-x="0"
 />
    <glyph glyph-name="RS" horiz-adv-x="0"
 />
    <glyph glyph-name="DC4" horiz-adv-x="0"
 />
    <glyph glyph-name="DC3" horiz-adv-x="0"
 />
    <glyph glyph-name="DC2" horiz-adv-x="0"
 />
    <glyph glyph-name="DC1" horiz-adv-x="0"
 />
    <glyph glyph-name="DLE" horiz-adv-x="0"
 />
    <glyph glyph-name="LF" unicode="&#xa;" horiz-adv-x="0"
 />
    <glyph glyph-name="uniF000" unicode="&#xf000;" horiz-adv-x="0"
 />
    <glyph glyph-name="Omegagreek" unicode="&#x3a9;" horiz-adv-x="1385"
d="M349 171q-20 9 -37.5 34t-32.5 59.5t-27.5 75t-21 80.5t-13 77t-4.5 65v700q0 53 15 99.5t40.5 81t59.5 54t73 19.5h580q39 0 74 -19.5t61 -54t41 -81t15 -99.5v-700q0 -28 -4.5 -65t-13 -77t-21 -80.5t-27.5 -75t-32.5 -59.5t-37.5 -34h287q-4 -35 -19.5 -66t-39 -54.5
t-53.5 -37t-63 -13.5h-215v1347h-481v-1347h-185q-33 0 -63 13.5t-53.5 37t-39 54.5t-19.5 66h257z" />
    <glyph glyph-name="Deltagreek" unicode="&#x394;" horiz-adv-x="1450"
d="M320 171l341 1345h362l372 -1516h-1166q-33 0 -63 13.5t-53.5 36.5t-39 54.5t-19.5 66.5h266zM1107 176l-266 1169l-272 -1169h538z" />
    <glyph glyph-name="uni0163" unicode="&#x163;" horiz-adv-x="765"
d="M222 893h-80v154h80v278l239 119v-397h269v-154h-269v-722h358q-4 -35 -19.5 -66.5t-39.5 -54.5t-54 -36.5t-63 -13.5h-231q-39 0 -74 20t-60.5 54.5t-40.5 80.5t-15 99v639zM526 -96h127q34 0 63.5 -16.5t52 -44.5t35.5 -65.5t13 -80.5q0 -42 -13 -79.5t-35.5 -65
t-52 -44t-63.5 -16.5h-485q4 35 19 66t38.5 54t54 36.5t63.5 13.5h269v116h-206v222h120v-96z" />
    <glyph glyph-name="uni0162" unicode="&#x162;" horiz-adv-x="1209"
d="M265 0q4 35 19.5 66t39 54.5t53.5 37t63 13.5h294v1176h-444v-325h-239v240q0 53 15 99.5t41 81t60 54t73 19.5h939v-169h-207v-1094q0 -52 -15 -98t-41 -80.5t-60 -54.5t-73 -20h-518v0zM666 -96h127q34 0 63.5 -16.5t52 -44.5t35.5 -65.5t13 -80.5q0 -42 -13 -79.5
t-35.5 -65t-52 -44t-63.5 -16.5h-485q4 35 19 66t38.5 54t54 36.5t63.5 13.5h269v116h-206v222h120v-96z" />
    <glyph glyph-name="uni0219" unicode="&#x219;" horiz-adv-x="1266"
d="M499 1107h240q-9 -22 -13.5 -43.5t-6.5 -35.5q-3 -37 12 -67t40.5 -57.5t59 -54.5t68.5 -57q40 -32 81 -73.5t74 -91t53.5 -105t18.5 -115.5q-2 -42 -18 -80.5t-42 -69t-60.5 -52.5t-72.5 -32h372q-14 -39 -33.5 -70.5t-44 -54.5t-53.5 -35.5t-60 -12.5h-274
q-46 0 -76.5 14.5t-48 38.5t-24 55.5t-3.5 65.5q32 4 63 17t55.5 37.5t41 61.5t20.5 89q4 41 -8 77t-32 68t-46 61t-51 56q-26 34 -52 82t-37 117l-316 -840h-247zM642 -139q35 0 65.5 -13t53.5 -35.5t36.5 -53.5t13.5 -66q0 -44 -16.5 -84.5t-46 -82.5t-69.5 -86.5
t-88 -95.5l-94 45l68 179q-42 19 -67 51t-25 74q0 35 13 66t35.5 53.5t53.5 35.5t67 13z" />
    <glyph glyph-name="uni021B" unicode="&#x21b;" horiz-adv-x="775"
d="M227 893h-80v154h80v278l239 119v-397h269v-154h-269v-722h358q-4 -35 -19.5 -66.5t-39.5 -54.5t-54 -36.5t-63 -13.5h-231q-39 0 -74 20t-60.5 54.5t-40.5 80.5t-15 99v639zM477 -139q35 0 65.5 -13t53.5 -35.5t36.5 -53.5t13.5 -66q0 -44 -16.5 -84.5t-46 -82.5
t-69.5 -86.5t-88 -95.5l-94 45l68 179q-42 19 -67 51t-25 74q0 35 13 66t35.5 53.5t53.5 35.5t67 13z" />
    <glyph glyph-name="i.dot" horiz-adv-x="612"
d="M297 1289q-35 0 -65.5 13t-53.5 36t-36 53.5t-13 65.5t13 65.5t36 53.5t53.5 36.5t65.5 13.5t65.5 -13.5t53.5 -36.5t36.5 -53.5t13.5 -65.5t-13.5 -65.5t-36.5 -53.5t-54 -36t-65 -13zM180 1047h239v-876h214q-3 -35 -18.5 -66.5t-39 -54.5t-53.5 -36.5t-63 -13.5h-88
q-39 0 -74 20t-61 54.5t-41 80.5t-15 99v793z" />
    <glyph glyph-name="uni0218" unicode="&#x218;" horiz-adv-x="1279"
d="M275 0q4 35 19.5 66t39 54.5t53.5 37t63 13.5h367v243l-524 261q-60 30 -96 91t-36 152v344q0 53 14.5 99.5t40 81t59.5 54t73 19.5h553q39 0 73 -19.5t59.5 -54t40.5 -81t15 -99.5v-296h-239v379h-450v-474l542 -277q26 -13 47 -36t36 -53.5t23 -67.5t8 -77v-108
q0 -52 -15 -98t-40.5 -80t-59.5 -54t-73 -20h-593v0zM622 -139q35 0 65.5 -13t53.5 -35.5t36.5 -53.5t13.5 -66q0 -44 -16.5 -84.5t-46 -82.5t-69.5 -86.5t-88 -95.5l-94 45l68 179q-42 19 -67 51t-25 74q0 35 13 66t35.5 53.5t53.5 35.5t67 13z" />
    <glyph glyph-name="uni021A" unicode="&#x21a;" horiz-adv-x="1209"
d="M265 0q4 35 19.5 66t39 54.5t53.5 37t63 13.5h294v1176h-444v-325h-239v240q0 53 15 99.5t41 81t60 54t73 19.5h939v-169h-207v-1094q0 -52 -15 -98t-41 -80.5t-60 -54.5t-73 -20h-518v0zM612 -139q35 0 65.5 -13t53.5 -35.5t36.5 -53.5t13.5 -66q0 -44 -16.5 -84.5
t-46 -82.5t-69.5 -86.5t-88 -95.5l-94 45l68 179q-42 19 -67 51t-25 74q0 35 13 66t35.5 53.5t53.5 35.5t67 13z" />
    <glyph glyph-name="i.uc" horiz-adv-x="1113"
d="M386 171h317v1176h-330v-345h-206v260q0 53 15 99.5t41 81t60.5 54t74.5 19.5h583v-1264q0 -52 -15 -98t-41 -80t-60.5 -54t-73.5 -20h-365v171zM508 1693q-36 0 -67 10.5t-53 31t-34.5 49.5t-12.5 67q0 37 12.5 67t34.5 51.5t53 33t67 11.5q34 0 64.5 -11.5t53 -33
t35.5 -51.5t13 -67q0 -38 -13 -67t-35.5 -49.5t-53 -31t-64.5 -10.5z" />
    <glyph glyph-name="uniE0FF" unicode="&#xe0ff;" horiz-adv-x="0"
 />
    <glyph glyph-name="one.superior" unicode="&#xb9;" horiz-adv-x="602"
d="M211 1151h-132v98h344v-795h-212v697z" />
    <glyph glyph-name="two.superior" unicode="&#xb2;" horiz-adv-x="1113"
d="M225 661q0 51 21.5 90.5t57.5 53.5l441 170v166h-298v-121h-222v71q0 33 11.5 62t31.5 50.5t47 34t58 12.5h445q31 0 58 -12.5t47 -34t32 -50.5t12 -62v-100q0 -51 -25 -90t-64 -55l-431 -169v-115h520v-108h-742v207z" />
    <glyph glyph-name="three.superior" unicode="&#xb3;" horiz-adv-x="1113"
d="M374 454q-31 0 -58 12.5t-47 34.5t-31.5 51t-11.5 62v47h211v-97h297v243h-223v108h223v226h-297v-97h-211v47q0 33 11.5 62t31.5 50.5t47 34t58 12.5l423 -1q31 0 58 -12.5t47 -34t32 -50.5t12 -62v-64q0 -52 -36.5 -96t-94.5 -67q58 -22 94.5 -65.5t36.5 -95.5v-88
q0 -33 -12 -62t-32 -51t-47 -34.5t-58 -12.5h-423v0z" />
    <glyph glyph-name="NULL" horiz-adv-x="0"
 />
    <glyph glyph-name="NULL" horiz-adv-x="0"
 />
    <glyph glyph-name="quotereversed" unicode="&#x201b;" horiz-adv-x="557"
d="M229 1041q-33 40 -58.5 76.5t-43.5 72.5t-27.5 74t-9.5 82q0 35 13.5 66t36.5 54t53.5 36t65.5 13q36 0 67 -13t53.5 -36t35.5 -54t13 -66q0 -48 -22.5 -85.5t-59.5 -59.5l91 -258l-94 -45z" />
    <glyph glyph-name="uni201F" unicode="&#x201f;" horiz-adv-x="1072"
d="M744 1041q-32 40 -58 76.5t-44 73t-27.5 74t-9.5 81.5q0 35 13.5 66t36.5 54t53.5 36t65.5 13q36 0 67 -13t53.5 -36t35.5 -54t13 -66q0 -48 -22.5 -85.5t-59.5 -59.5l91 -258l-94 -45zM229 1041q-32 40 -58 76.5t-44 73t-27.5 74t-9.5 81.5q0 35 13.5 66t36.5 54
t53.5 36t65.5 13q36 0 67 -13t53.5 -36t35.5 -54t13 -66q0 -48 -22.5 -85.5t-59.5 -59.5l91 -258l-94 -45z" />
    <glyph glyph-name="minute" unicode="&#x2032;" horiz-adv-x="643"
d="M181 1321q0 9 -0.5 22t0.5 26q3 30 17 57t35 46.5t47.5 31t55.5 11.5q30 0 55 -11.5t42 -31.5t25 -46t5 -56q-2 -27 -9 -51l-140 -497h-100z" />
    <glyph glyph-name="second" unicode="&#x2033;" horiz-adv-x="1081"
d="M181 1321q0 9 -0.5 22t0.5 26q3 30 17 57t35 46.5t47.5 31t55.5 11.5q30 0 55 -11.5t42 -31.5t25 -46t5 -56q-2 -27 -9 -51l-140 -497h-100zM619 1321q0 9 -0.5 22t0.5 26q3 30 17 57t35 46.5t47.5 31t55.5 11.5q30 0 55 -11.5t42 -31.5t25 -46t5 -56q-2 -27 -9 -51
l-140 -497h-100z" />
    <glyph glyph-name="uni0306" unicode="&#x306;" horiz-adv-x="0"
d="M-45 1289q-75 0 -140 28.5t-114 80t-77 122.5t-28 156h151q0 -27 18.5 -55.5t50.5 -52.5t73.5 -39t88.5 -15h46q46 0 88 15t73.5 39t50.5 52.5t19 55.5h150q0 -85 -28 -156t-77 -122.5t-114 -80t-140 -28.5h-91v0z" />
    <glyph glyph-name="uni0306.cap" horiz-adv-x="0"
d="M-45 1648q-75 0 -140 28.5t-114 79.5t-77 122t-28 156h151q0 -27 18.5 -55.5t50.5 -52t73.5 -38.5t88.5 -15h46q46 0 88 15t73.5 38.5t50.5 52t19 55.5h150q0 -85 -28 -156t-77 -122t-114 -79.5t-140 -28.5h-91v0z" />
    <glyph glyph-name="uni030C" unicode="&#x30c;" horiz-adv-x="0"
d="M-1 1287q-35 0 -74.5 17.5t-80.5 56.5l-265 253q12 16 22.5 28.5t20 24.5t19.5 24.5t22 28.5l336 -192q84 46 170.5 95t171.5 97q22 -31 40.5 -54t39.5 -52l-265 -253q-41 -38 -79.5 -56t-77.5 -18z" />
    <glyph glyph-name="uni030C.cap" horiz-adv-x="0"
d="M-1 1645q-31 0 -67 15.5t-72 50.5l-239 228l76 95l302 -172q75 41 153 85.5t155 86.5l72 -95l-239 -228q-36 -35 -71 -50.5t-70 -15.5z" />
    <glyph glyph-name="uni0302" unicode="&#x302;" horiz-adv-x="0"
d="M1 1407q-84 -46 -170.5 -95t-171.5 -97q-22 31 -40.5 54t-39.5 52l265 253q41 38 79.5 56t77.5 18q35 0 74.5 -17.5t80.5 -56.5l265 -253q-12 -16 -22.5 -28.5t-20 -24.5t-19.5 -24.5t-22 -28.5z" />
    <glyph glyph-name="uni0302.cap" horiz-adv-x="0"
d="M0 1793q-75 -41 -153 -85.5t-155 -86.5q-20 28 -36.5 48.5t-35.5 46.5l239 228q36 35 71 50.5t70 15.5q31 0 67 -15.5t72 -50.5l239 -228q-11 -15 -20.5 -26.5t-18 -22t-17.5 -21.5t-20 -25z" />
    <glyph glyph-name="uni0301" unicode="&#x301;" horiz-adv-x="0"
d="M-304 1385l381 274q46 33 93 33q38 0 70.5 -22t51.5 -64q13 -29 13 -59q0 -27 -9.5 -51.5t-26 -45t-39.5 -35.5t-49 -22l-424 -113z" />
    <glyph glyph-name="uni0301.cap" horiz-adv-x="0"
d="M-247 1766l313 267q41 29 83 29q35 0 64 -19.5t46 -57.5q12 -27 12 -53q0 -24 -8.5 -46t-23.5 -40.5t-35.5 -32t-44.5 -19.5l-351 -122z" />
    <glyph glyph-name="uni0300" unicode="&#x300;" horiz-adv-x="0"
d="M-180 1393q-26 7 -49 22t-39.5 35.5t-26 45t-9.5 51.5q0 30 13 59q19 42 51.5 64t70.5 22q46 0 93 -33l381 -274l-61 -105z" />
    <glyph glyph-name="uni0300.cap" horiz-adv-x="0"
d="M-159 1794q-24 6 -44.5 19.5t-35.5 32t-23.5 40.5t-8.5 46q0 26 12 53q17 38 46 57.5t64 19.5q42 0 83 -29l313 -267l-55 -94z" />
    <glyph glyph-name="uni030B" unicode="&#x30b;" horiz-adv-x="0"
d="M-374 1317l124 360q16 48 49 75t73 27q35 0 69 -22q31 -20 45.5 -52.5t14.5 -69.5q0 -32 -11 -64t-32 -58l-219 -271zM65 1311l144 347q17 45 49 70t70 25q40 0 75 -28q27 -22 40 -52.5t13 -64.5q0 -35 -13 -69.5t-37 -60.5l-226 -248z" />
    <glyph glyph-name="uni030B.cap" horiz-adv-x="0"
d="M9 1741l232 258q25 27 55 41t61 14q27 0 52 -11.5t43.5 -30.5t29.5 -44.5t11 -53.5q0 -47 -27.5 -88.5t-73.5 -64.5l-296 -135zM-491 1741l232 258q25 27 55 41t61 14q27 0 52 -11.5t43.5 -30.5t29.5 -44.5t11 -53.5q0 -47 -27.5 -88.5t-73.5 -64.5l-296 -135z" />
    <glyph glyph-name="uni030A" unicode="&#x30a;" horiz-adv-x="0"
d="M0 1287q-60 0 -112.5 22.5t-91.5 62t-61.5 92t-22.5 112.5q0 59 22.5 111.5t61.5 91.5t91.5 62t112.5 23t112.5 -23t92 -62t62 -91.5t22.5 -111.5q0 -60 -22.5 -112.5t-62 -92t-92 -62t-112.5 -22.5zM0 1441q28 0 52.5 10.5t42.5 29t28.5 43t10.5 52.5q0 27 -10.5 51.5
t-28.5 43.5t-42.5 30t-52.5 11t-52 -11t-42 -30t-28.5 -43.5t-10.5 -51.5q0 -28 10.5 -52.5t28.5 -43t42 -29t52 -10.5z" />
    <glyph glyph-name="uni030A.cap" horiz-adv-x="0"
d="M0 1514q-60 0 -112.5 22.5t-91.5 62t-61.5 92t-22.5 112.5q0 59 22.5 111.5t61.5 91.5t91.5 62t112.5 23t112.5 -23t92 -62t62 -91.5t22.5 -111.5q0 -60 -22.5 -112.5t-62 -92t-92 -62t-112.5 -22.5zM0 1668q28 0 52.5 10.5t42.5 29t28.5 43t10.5 52.5q0 27 -10.5 51.5
t-28.5 43.5t-42.5 30t-52.5 11t-52 -11t-42 -30t-28.5 -43.5t-10.5 -51.5q0 -28 10.5 -52.5t28.5 -43t42 -29t52 -10.5z" />
    <glyph glyph-name="uni0307" unicode="&#x307;" horiz-adv-x="0"
d="M1 1289q-36 0 -67 12t-53 34.5t-34.5 53t-12.5 68.5q0 37 12.5 68.5t34.5 55t53 36.5t67 13q34 0 64.5 -13t53 -36.5t35.5 -55t13 -68.5q0 -38 -13 -68.5t-35.5 -53t-53 -34.5t-64.5 -12z" />
    <glyph glyph-name="uni0307.cap" horiz-adv-x="0"
d="M1 1693q-36 0 -67 10.5t-53 31t-34.5 49.5t-12.5 67q0 37 12.5 67t34.5 51.5t53 33t67 11.5q34 0 64.5 -11.5t53 -33t35.5 -51.5t13 -67q0 -38 -13 -67t-35.5 -49.5t-53 -31t-64.5 -10.5z" />
    <glyph glyph-name="uni0308" unicode="&#x308;" horiz-adv-x="0"
d="M268 1288q-36 0 -67 12t-53 34.5t-34.5 53t-12.5 68.5q0 37 12.5 68.5t34.5 55t53 36.5t67 13q34 0 64.5 -13t53 -36.5t35.5 -55t13 -68.5q0 -38 -13 -68.5t-35.5 -53t-53 -34.5t-64.5 -12zM-266 1288q-36 0 -67 12t-53 34.5t-34.5 53t-12.5 68.5q0 37 12.5 68.5t34.5 55
t53 36.5t67 13q34 0 64.5 -13t53 -36.5t35.5 -55t13 -68.5q0 -38 -13 -68.5t-35.5 -53t-53 -34.5t-64.5 -12z" />
    <glyph glyph-name="uni0308.cap" horiz-adv-x="0"
d="M240 1693q-37 0 -65 12.5t-47 34t-29 51t-10 63.5q0 33 10 62.5t29 51.5t47 34.5t65 12.5q34 0 62 -12.5t47 -34.5t29.5 -51.5t10.5 -62.5q0 -34 -10.5 -63.5t-29.5 -51t-47 -34t-62 -12.5zM-241 1693q-37 0 -65 12.5t-47 34t-29 51t-10 63.5q0 33 10 62.5t29 51.5
t47 34.5t65 12.5q34 0 62 -12.5t47 -34.5t29.5 -51.5t10.5 -62.5q0 -34 -10.5 -63.5t-29.5 -51t-47 -34t-62 -12.5z" />
    <glyph glyph-name="uni0304" unicode="&#x304;" horiz-adv-x="0"
d="M-421 1324q4 35 19 71.5t38.5 66.5t54 49t63.5 19h667q-3 -35 -18.5 -71.5t-38.5 -66.5t-53.5 -49t-63.5 -19h-668z" />
    <glyph glyph-name="uni0304.cap" horiz-adv-x="0"
d="M-451 1715q4 35 19 70.5t38.5 64t54 46.5t63.5 18h727q-3 -35 -18.5 -70.5t-38.5 -64t-53.5 -46.5t-63.5 -18h-728z" />
    <glyph glyph-name="uni01F3" unicode="&#x1f3;" horiz-adv-x="2358"
d="M192 793q0 53 15 99t40.5 80.5t60.5 54.5t74 20h462v543h238v-1419h190q-4 -35 -19.5 -66.5t-39 -54.5t-53.5 -36.5t-63 -13.5h-253v109q-27 -51 -69 -80t-89 -29h-304q-39 0 -74 20t-60.5 54.5t-40.5 80.5t-15 99v539zM844 171v705h-414v-705h414zM1437 186l570 690
h-540v171h795v-184l-567 -692h645q-4 -35 -19.5 -66.5t-39 -54.5t-53.5 -36.5t-63 -13.5h-728v186z" />
    <glyph glyph-name="uni01C9" unicode="&#x1c9;" horiz-adv-x="1184"
d="M172 1591h239v-1420h213q-6 -40 -22.5 -72t-40 -54t-53 -33.5t-61.5 -11.5h-84q-39 0 -74 20t-61 54.5t-41 80.5t-15 99v1337zM901 1289q-35 0 -65.5 13t-53.5 36t-36 53.5t-13 65.5t13 65.5t36 53.5t53.5 36.5t65.5 13.5t65.5 -13.5t53.5 -36.5t36.5 -53.5t13.5 -65.5
t-13.5 -65.5t-36.5 -53.5t-54 -36t-65 -13zM784 -368v1415h239v-1332q0 -53 -15 -99.5t-40.5 -81t-60 -55t-73.5 -20.5h-196v173h146z" />
    <glyph glyph-name="uni01CC" unicode="&#x1cc;" horiz-adv-x="1903"
d="M220 1047h239v-396l309 320q32 37 66.5 57t82.5 20q40 0 77 -20t65 -54.5t44.5 -80.5t16.5 -99v-622h202q-4 -36 -19.5 -67t-39 -54.5t-53.5 -37t-63 -13.5h-78q-40 0 -74.5 20t-60 54.5t-40.5 80.5t-15 99v608l-420 -432v-430h-239v1047zM1620 1289q-35 0 -65.5 13
t-53.5 36t-36 53.5t-13 65.5t13 65.5t36 53.5t53.5 36.5t65.5 13.5t65.5 -13.5t53.5 -36.5t36.5 -53.5t13.5 -65.5t-13.5 -65.5t-36.5 -53.5t-54 -36t-65 -13zM1503 -368v1415h239v-1332q0 -53 -15 -99.5t-40.5 -81t-60 -55t-73.5 -20.5h-196v173h146z" />
    <glyph glyph-name="uni01C6" unicode="&#x1c6;" horiz-adv-x="2358"
d="M192 793q0 53 15 99t40.5 80.5t60.5 54.5t74 20h462v543h238v-1419h190q-4 -35 -19.5 -66.5t-39 -54.5t-53.5 -36.5t-63 -13.5h-253v109q-27 -51 -69 -80t-89 -29h-304q-39 0 -74 20t-60.5 54.5t-40.5 80.5t-15 99v539zM844 171v705h-414v-705h414zM1437 186l570 690
h-540v171h795v-184l-567 -692h645q-4 -35 -19.5 -66.5t-39 -54.5t-53.5 -36.5t-63 -13.5h-728v186zM1863 1287q-35 0 -74.5 17.5t-80.5 56.5l-265 253q12 16 22.5 28.5t20 24.5t19.5 24.5t22 28.5l336 -192q84 46 170.5 95t171.5 97q22 -31 40.5 -54t39.5 -52l-265 -253
q-41 -38 -79.5 -56t-77.5 -18z" />
    <glyph glyph-name="uni0323" unicode="&#x323;" horiz-adv-x="0"
d="M1 -171q34 0 64.5 -13t53 -36.5t35.5 -55t13 -68.5q0 -38 -13 -68.5t-35.5 -53t-53 -34.5t-64.5 -12q-36 0 -67 12t-53 34.5t-34.5 53t-12.5 68.5q0 37 12.5 68.5t34.5 55t53 36.5t67 13z" />
    <glyph glyph-name="uni0327" unicode="&#x327;" horiz-adv-x="0"
d="M34 -96h127q34 0 63.5 -16.5t52 -44.5t35.5 -65.5t13 -80.5q0 -42 -13 -79.5t-35.5 -65t-52 -44t-63.5 -16.5h-485q4 35 19 66t38.5 54t54 36.5t63.5 13.5h269v116h-206v222h120v-96z" />
    <glyph glyph-name="uni0328" unicode="&#x328;" horiz-adv-x="0"
d="M247 59l-347 -360h382v-208h-400q-34 0 -64 14t-52 38t-34.5 55t-12.5 65q0 45 13 74.5t36 55.5l313 318z" />
    <glyph glyph-name="uni032E" unicode="&#x32e;" horiz-adv-x="0"
d="M-253 -154q0 -27 18.5 -55.5t50.5 -52.5t73.5 -39t88.5 -15h46q46 0 88 15t73.5 39t50.5 52.5t19 55.5h150q0 -85 -28 -156t-77 -122.5t-114 -80t-140 -28.5h-91q-75 0 -140 28.5t-114 80t-77 122.5t-28 156h151v0z" />
    <glyph glyph-name="uni0331" unicode="&#x331;" horiz-adv-x="0"
d="M443 -247q-3 -35 -18.5 -66.5t-38.5 -54.5t-53.5 -36.5t-63.5 -13.5h-728q4 35 19 66t38.5 54.5t54 37t63.5 13.5h727z" />
    <glyph glyph-name="uni030F" unicode="&#x30f;" horiz-adv-x="0"
d="M0 1513q-21 26 -32 58t-11 64q0 37 14.5 69.5t45.5 52.5q34 22 69 22q40 0 73 -27t49 -75l124 -360l-113 -75zM-448 1478q-24 26 -37 60.5t-13 69.5q0 34 13 64.5t40 52.5q35 28 75 28q38 0 70 -25t49 -70l144 -347l-115 -81z" />
    <glyph glyph-name="uni030F.cap" horiz-adv-x="0"
d="M49 1721q-46 23 -73.5 64.5t-27.5 88.5q0 28 11 53.5t29.5 44.5t43.5 30.5t52 11.5q31 0 61 -14t55 -41l232 -258l-87 -115zM-451 1721q-46 23 -73.5 64.5t-27.5 88.5q0 28 11 53.5t29.5 44.5t43.5 30.5t52 11.5q31 0 61 -14t55 -41l232 -258l-87 -115z" />
    <glyph glyph-name="uni0313" unicode="&#x313;" horiz-adv-x="0"
d="M-137 1264l50 172q-37 22 -59.5 59.5t-22.5 85.5q0 35 13 66t35.5 54t53.5 36t67 13q35 0 65.5 -11t53.5 -31.5t36.5 -49.5t13.5 -64q0 -44 -6.5 -79t-19.5 -65.5t-33 -59t-46 -58.5l-107 -113z" />
    <glyph glyph-name="uni0312" unicode="&#x312;" horiz-adv-x="0"
d="M0 1289q-35 0 -65.5 11t-53.5 31.5t-36.5 49.5t-13.5 64q0 43 6.5 78.5t19.5 66t33 59t46 58.5l107 113l94 -45l-50 -172q37 -22 59.5 -59.5t22.5 -85.5q0 -35 -13 -66t-35.5 -54t-53.5 -36t-67 -13z" />
    <glyph glyph-name="uni0315" unicode="&#x315;" horiz-adv-x="0"
d="M-20 1491q6 27 23 40.5t57 13.5q35 0 62 -1t45 -9.5t27.5 -27.5t9.5 -54q0 -41 -6.5 -79.5t-19.5 -77.5t-33 -81.5t-46 -90.5h-134z" />
    <glyph glyph-name="uni0326" unicode="&#x326;" horiz-adv-x="0"
d="M0 -138q35 0 65.5 -13t53.5 -35.5t36.5 -53.5t13.5 -66q0 -44 -16.5 -84.5t-46 -82.5t-69.5 -86.5t-88 -95.5l-94 45l68 179q-42 19 -67 51t-25 74q0 35 13 66t35.5 53.5t53.5 35.5t67 13z" />
    <glyph glyph-name="aacute" unicode="&#xe1;" horiz-adv-x="1281"
d="M192 765q0 60 16.5 112t45.5 90t68.5 59.5t85.5 21.5h674v-877h217q-4 -35 -19.5 -66.5t-39 -54.5t-53.5 -36.5t-63 -13.5h-107q-49 0 -93 33.5t-73 90.5q-29 -57 -73 -90.5t-93 -33.5h-303q-39 0 -74 20t-60.5 54t-40.5 79.5t-15 97.5v514zM844 171v705h-414v-705h414z
M428 1385l381 274q46 33 93 33q38 0 70.5 -22t51.5 -64q13 -29 13 -59q0 -27 -9.5 -51.5t-26 -45t-39.5 -35.5t-49 -22l-424 -113z" />
    <glyph glyph-name="agrave" unicode="&#xe0;" horiz-adv-x="1281"
d="M192 765q0 60 16.5 112t45.5 90t68.5 59.5t85.5 21.5h674v-877h217q-4 -35 -19.5 -66.5t-39 -54.5t-53.5 -36.5t-63 -13.5h-107q-49 0 -93 33.5t-73 90.5q-29 -57 -73 -90.5t-93 -33.5h-303q-39 0 -74 20t-60.5 54t-40.5 79.5t-15 97.5v514zM844 171v705h-414v-705h414z
M364 1393q-26 7 -49 22t-39.5 35.5t-26 45t-9.5 51.5q0 30 13 59q19 42 51.5 64t70.5 22q46 0 93 -33l381 -274l-61 -105z" />
    <glyph glyph-name="acircumflex" unicode="&#xe2;" horiz-adv-x="1281"
d="M192 765q0 60 16.5 112t45.5 90t68.5 59.5t85.5 21.5h674v-877h217q-4 -35 -19.5 -66.5t-39 -54.5t-53.5 -36.5t-63 -13.5h-107q-49 0 -93 33.5t-73 90.5q-29 -57 -73 -90.5t-93 -33.5h-303q-39 0 -74 20t-60.5 54t-40.5 79.5t-15 97.5v514zM844 171v705h-414v-705h414z
M639 1407q-84 -46 -170.5 -95t-171.5 -97q-22 31 -40.5 54t-39.5 52l265 253q41 38 79.5 56t77.5 18q35 0 74.5 -17.5t80.5 -56.5l265 -253q-12 -16 -22.5 -28.5t-20 -24.5t-19.5 -24.5t-22 -28.5z" />
    <glyph glyph-name="adieresis" unicode="&#xe4;" horiz-adv-x="1281"
d="M192 765q0 60 16.5 112t45.5 90t68.5 59.5t85.5 21.5h674v-877h217q-4 -35 -19.5 -66.5t-39 -54.5t-53.5 -36.5t-63 -13.5h-107q-49 0 -93 33.5t-73 90.5q-29 -57 -73 -90.5t-93 -33.5h-303q-39 0 -74 20t-60.5 54t-40.5 79.5t-15 97.5v514zM844 171v705h-414v-705h414z
M917 1288q-36 0 -67 12t-53 34.5t-34.5 53t-12.5 68.5q0 37 12.5 68.5t34.5 55t53 36.5t67 13q34 0 64.5 -13t53 -36.5t35.5 -55t13 -68.5q0 -38 -13 -68.5t-35.5 -53t-53 -34.5t-64.5 -12zM383 1288q-36 0 -67 12t-53 34.5t-34.5 53t-12.5 68.5q0 37 12.5 68.5t34.5 55
t53 36.5t67 13q34 0 64.5 -13t53 -36.5t35.5 -55t13 -68.5q0 -38 -13 -68.5t-35.5 -53t-53 -34.5t-64.5 -12z" />
    <glyph glyph-name="atilde" unicode="&#xe3;" horiz-adv-x="1281"
d="M192 765q0 60 16.5 112t45.5 90t68.5 59.5t85.5 21.5h674v-877h217q-4 -35 -19.5 -66.5t-39 -54.5t-53.5 -36.5t-63 -13.5h-107q-49 0 -93 33.5t-73 90.5q-29 -57 -73 -90.5t-93 -33.5h-303q-39 0 -74 20t-60.5 54t-40.5 79.5t-15 97.5v514zM844 171v705h-414v-705h414z
M764 1290q-46 0 -88.5 12.5t-79.5 35t-66.5 53.5t-49.5 68h-92l-55 -110h-136q4 28 8.5 48t10.5 48q9 45 37 82t68.5 64t91 41.5t104.5 14.5q43 0 84 -12.5t76.5 -35t64.5 -53.5t49 -68h101l54 110h136q-2 -20 -5 -38q-2 -16 -5.5 -31.5t-5.5 -26.5q-11 -46 -39.5 -83.5
t-69 -64t-90 -40.5t-103.5 -14z" />
    <glyph glyph-name="amacron" unicode="&#x101;" horiz-adv-x="1281"
d="M192 765q0 60 16.5 112t45.5 90t68.5 59.5t85.5 21.5h674v-877h217q-4 -35 -19.5 -66.5t-39 -54.5t-53.5 -36.5t-63 -13.5h-107q-49 0 -93 33.5t-73 90.5q-29 -57 -73 -90.5t-93 -33.5h-303q-39 0 -74 20t-60.5 54t-40.5 79.5t-15 97.5v514zM844 171v705h-414v-705h414z
M228 1324q4 35 19 71.5t38.5 66.5t54 49t63.5 19h667q-3 -35 -18.5 -71.5t-38.5 -66.5t-53.5 -49t-63.5 -19h-668z" />
    <glyph glyph-name="uni0201" unicode="&#x201;" horiz-adv-x="1281"
d="M192 765q0 60 16.5 112t45.5 90t68.5 59.5t85.5 21.5h674v-877h217q-4 -35 -19.5 -66.5t-39 -54.5t-53.5 -36.5t-63 -13.5h-107q-49 0 -93 33.5t-73 90.5q-29 -57 -73 -90.5t-93 -33.5h-303q-39 0 -74 20t-60.5 54t-40.5 79.5t-15 97.5v514zM844 171v705h-414v-705h414z
M650 1513q-21 26 -32 58t-11 64q0 37 14.5 69.5t45.5 52.5q34 22 69 22q40 0 73 -27t49 -75l124 -360l-113 -75zM202 1478q-24 26 -37 60.5t-13 69.5q0 34 13 64.5t40 52.5q35 28 75 28q38 0 70 -25t49 -70l144 -347l-115 -81z" />
    <glyph glyph-name="aring" unicode="&#xe5;" horiz-adv-x="1281"
d="M192 765q0 60 16.5 112t45.5 90t68.5 59.5t85.5 21.5h674v-877h217q-4 -35 -19.5 -66.5t-39 -54.5t-53.5 -36.5t-63 -13.5h-107q-49 0 -93 33.5t-73 90.5q-29 -57 -73 -90.5t-93 -33.5h-303q-39 0 -74 20t-60.5 54t-40.5 79.5t-15 97.5v514zM844 171v705h-414v-705h414z
M640 1287q-60 0 -112.5 22.5t-91.5 62t-61.5 92t-22.5 112.5q0 59 22.5 111.5t61.5 91.5t91.5 62t112.5 23t112.5 -23t92 -62t62 -91.5t22.5 -111.5q0 -60 -22.5 -112.5t-62 -92t-92 -62t-112.5 -22.5zM640 1441q28 0 52.5 10.5t42.5 29t28.5 43t10.5 52.5q0 27 -10.5 51.5
t-28.5 43.5t-42.5 30t-52.5 11t-52 -11t-42 -30t-28.5 -43.5t-10.5 -51.5q0 -28 10.5 -52.5t28.5 -43t42 -29t52 -10.5z" />
    <glyph glyph-name="uni0209" unicode="&#x209;" horiz-adv-x="612"
d="M180 1047h239v-876h214q-3 -35 -18.5 -66.5t-39 -54.5t-53.5 -36.5t-63 -13.5h-88q-39 0 -74 20t-61 54.5t-41 80.5t-15 99v793zM337 1513q-21 26 -32 58t-11 64q0 37 14.5 69.5t45.5 52.5q34 22 69 22q40 0 73 -27t49 -75l124 -360l-113 -75zM-111 1478q-24 26 -37 60.5
t-13 69.5q0 34 13 64.5t40 52.5q35 28 75 28q38 0 70 -25t49 -70l144 -347l-115 -81z" />
    <glyph glyph-name="uni020D" unicode="&#x20d;"
d="M192 793q0 53 15 99.5t40.5 81t59.5 54t73 19.5h838q-4 -35 -19.5 -66.5t-39 -54.5t-53.5 -36.5t-63 -13.5h-63q19 -14 37.5 -36t33 -51t23 -63.5t8.5 -74.5v-399q0 -52 -15 -98t-41 -80t-60.5 -54t-73.5 -20h-512q-39 0 -73 20t-59.5 54t-40.5 80t-15 98v541zM843 171
v705h-412v-705h412zM655 1513q-21 26 -32 58t-11 64q0 37 14.5 69.5t45.5 52.5q34 22 69 22q40 0 73 -27t49 -75l124 -360l-113 -75zM207 1478q-24 26 -37 60.5t-13 69.5q0 34 13 64.5t40 52.5q35 28 75 28q38 0 70 -25t49 -70l144 -347l-115 -81z" />
    <glyph glyph-name="uni0211" unicode="&#x211;"
d="M192 1157h240v-110h754q-4 -35 -19.5 -66.5t-38.5 -54.5t-52.5 -36.5t-60.5 -13.5v-705h232q-4 -35 -19.5 -66.5t-39.5 -54.5t-55 -36.5t-66 -13.5h-100q-39 0 -74 20t-61 54.5t-41 80.5t-15 99v622h-346v-876h-238v1157zM646 1513q-21 26 -32 58t-11 64q0 37 14.5 69.5
t45.5 52.5q34 22 69 22q40 0 73 -27t49 -75l124 -360l-113 -75zM198 1478q-24 26 -37 60.5t-13 69.5q0 34 13 64.5t40 52.5q35 28 75 28q38 0 70 -25t49 -70l144 -347l-115 -81z" />
    <glyph glyph-name="uni0215" unicode="&#x215;" horiz-adv-x="1263"
d="M180 1047h239v-876h413v876h238v-876h203q-4 -35 -19.5 -66.5t-39 -54.5t-53.5 -36.5t-63 -13.5h-188l-78 127q-11 -28 -28 -51.5t-38.5 -40t-45 -26t-45.5 -9.5h-305q-39 0 -74 20t-60.5 54.5t-40.5 80.5t-15 99v793zM633 1513q-21 26 -32 58t-11 64q0 37 14.5 69.5
t45.5 52.5q34 22 69 22q40 0 73 -27t49 -75l124 -360l-113 -75zM185 1478q-24 26 -37 60.5t-13 69.5q0 34 13 64.5t40 52.5q35 28 75 28q38 0 70 -25t49 -70l144 -347l-115 -81z" />
    <glyph glyph-name="uni0217" unicode="&#x217;" horiz-adv-x="1263"
d="M180 1047h239v-876h413v876h238v-876h203q-4 -35 -19.5 -66.5t-39 -54.5t-53.5 -36.5t-63 -13.5h-188l-78 127q-11 -28 -28 -51.5t-38.5 -40t-45 -26t-45.5 -9.5h-305q-39 0 -74 20t-60.5 54.5t-40.5 80.5t-15 99v793z" />
    <glyph glyph-name="uni1E2B" unicode="&#x1e2b;"
d="M192 1590h239v-657q28 54 69.5 84t90.5 30h301q39 0 73.5 -20t60.5 -54.5t41 -80.5t15 -99v-622h214q-4 -35 -19.5 -66.5t-38.5 -54.5t-53 -36.5t-62 -13.5h-89q-39 0 -74 20t-61 54.5t-41 80.5t-15 99v622h-412v-876h-239v1590zM415 -154q0 -27 18.5 -55.5t50.5 -52.5
t73.5 -39t88.5 -15h46q46 0 88 15t73.5 39t50.5 52.5t19 55.5h150q0 -85 -28 -156t-77 -122.5t-114 -80t-140 -28.5h-91q-75 0 -140 28.5t-114 80t-77 122.5t-28 156h151v0z" />
    <glyph glyph-name="uni1E25" unicode="&#x1e25;"
d="M192 1590h239v-657q28 54 69.5 84t90.5 30h301q39 0 73.5 -20t60.5 -54.5t41 -80.5t15 -99v-622h214q-4 -35 -19.5 -66.5t-38.5 -54.5t-53 -36.5t-62 -13.5h-89q-39 0 -74 20t-61 54.5t-41 80.5t-15 99v622h-412v-876h-239v1590zM667 -172q34 0 64.5 -13t53 -36.5
t35.5 -55t13 -68.5q0 -38 -13 -68.5t-35.5 -53t-53 -34.5t-64.5 -12q-36 0 -67 12t-53 34.5t-34.5 53t-12.5 68.5q0 37 12.5 68.5t34.5 55t53 36.5t67 13z" />
    <glyph glyph-name="uni1E21" unicode="&#x1e21;"
d="M192 793q0 53 15 99t40.5 80.5t60.5 54.5t74 20h700v-876h211q-4 -35 -19.5 -66.5t-39 -54.5t-53.5 -36.5t-63 -13.5h-36v-285q0 -53 -15 -99.5t-41 -81t-60 -55t-73 -20.5h-485v173h435v479q-29 -52 -71 -81.5t-88 -29.5h-302q-39 0 -74 20t-60.5 54.5t-40.5 80.5
t-15 99v539zM843 171v705h-413v-705h413zM252 1324q4 35 19 71.5t38.5 66.5t54 49t63.5 19h667q-3 -35 -18.5 -71.5t-38.5 -66.5t-53.5 -49t-63.5 -19h-668z" />
    <glyph glyph-name="gtilde"
d="M192 793q0 53 15 99t40.5 80.5t60.5 54.5t74 20h700v-876h211q-4 -35 -19.5 -66.5t-39 -54.5t-53.5 -36.5t-63 -13.5h-36v-285q0 -53 -15 -99.5t-41 -81t-60 -55t-73 -20.5h-485v173h435v479q-29 -52 -71 -81.5t-88 -29.5h-302q-39 0 -74 20t-60.5 54.5t-40.5 80.5
t-15 99v539zM843 171v705h-413v-705h413zM788 1290q-46 0 -88.5 12.5t-79.5 35t-66.5 53.5t-49.5 68h-92l-55 -110h-136q4 28 8.5 48t10.5 48q9 45 37 82t68.5 64t91 41.5t104.5 14.5q43 0 84 -12.5t76.5 -35t64.5 -53.5t49 -68h101l54 110h136q-2 -20 -5 -38
q-2 -16 -5.5 -31.5t-5.5 -26.5q-11 -46 -39.5 -83.5t-69 -64t-90 -40.5t-103.5 -14z" />
    <glyph glyph-name="gcaron" unicode="&#x1e7;"
d="M192 793q0 53 15 99t40.5 80.5t60.5 54.5t74 20h700v-876h211q-4 -35 -19.5 -66.5t-39 -54.5t-53.5 -36.5t-63 -13.5h-36v-285q0 -53 -15 -99.5t-41 -81t-60 -55t-73 -20.5h-485v173h435v479q-29 -52 -71 -81.5t-88 -29.5h-302q-39 0 -74 20t-60.5 54.5t-40.5 80.5
t-15 99v539zM843 171v705h-413v-705h413zM661 1287q-35 0 -74.5 17.5t-80.5 56.5l-265 253q12 16 22.5 28.5t20 24.5t19.5 24.5t22 28.5l336 -192q84 46 170.5 95t171.5 97q22 -31 40.5 -54t39.5 -52l-265 -253q-41 -38 -79.5 -56t-77.5 -18z" />
    <glyph glyph-name="uni1E0F" unicode="&#x1e0f;"
d="M192 793q0 53 15 99t40.5 80.5t60.5 54.5t74 20h462v543h238v-1419h190q-4 -35 -19.5 -66.5t-39 -54.5t-53.5 -36.5t-63 -13.5h-253v109q-27 -51 -69 -80t-89 -29h-304q-39 0 -74 20t-60.5 54.5t-40.5 80.5t-15 99v539zM844 171v705h-414v-705h414zM1175 -232
q-3 -35 -18.5 -66.5t-38.5 -54.5t-53.5 -36.5t-63.5 -13.5h-728q4 35 19 66t38.5 54.5t54 37t63.5 13.5h727z" />
    <glyph glyph-name="uni1E0D" unicode="&#x1e0d;"
d="M192 793q0 53 15 99t40.5 80.5t60.5 54.5t74 20h462v543h238v-1419h190q-4 -35 -19.5 -66.5t-39 -54.5t-53.5 -36.5t-63 -13.5h-253v109q-27 -51 -69 -80t-89 -29h-304q-39 0 -74 20t-60.5 54.5t-40.5 80.5t-15 99v539zM844 171v705h-414v-705h414zM730 -172
q34 0 64.5 -13t53 -36.5t35.5 -55t13 -68.5q0 -38 -13 -68.5t-35.5 -53t-53 -34.5t-64.5 -12q-36 0 -67 12t-53 34.5t-34.5 53t-12.5 68.5q0 37 12.5 68.5t34.5 55t53 36.5t67 13z" />
    <glyph glyph-name="uni01CE" unicode="&#x1ce;" horiz-adv-x="1281"
d="M192 765q0 60 16.5 112t45.5 90t68.5 59.5t85.5 21.5h674v-877h217q-4 -35 -19.5 -66.5t-39 -54.5t-53.5 -36.5t-63 -13.5h-107q-49 0 -93 33.5t-73 90.5q-29 -57 -73 -90.5t-93 -33.5h-303q-39 0 -74 20t-60.5 54t-40.5 79.5t-15 97.5v514zM844 171v705h-414v-705h414z
M637 1287q-35 0 -74.5 17.5t-80.5 56.5l-265 253q12 16 22.5 28.5t20 24.5t19.5 24.5t22 28.5l336 -192q84 46 170.5 95t171.5 97q22 -31 40.5 -54t39.5 -52l-265 -253q-41 -38 -79.5 -56t-77.5 -18z" />
    <glyph glyph-name="uni01D0" unicode="&#x1d0;" horiz-adv-x="612"
d="M180 1047h239v-876h214q-3 -35 -18.5 -66.5t-39 -54.5t-53.5 -36.5t-63 -13.5h-88q-39 0 -74 20t-61 54.5t-41 80.5t-15 99v793zM324 1287q-35 0 -74.5 17.5t-80.5 56.5l-265 253q12 16 22.5 28.5t20 24.5t19.5 24.5t22 28.5l336 -192q84 46 170.5 95t171.5 97
q22 -31 40.5 -54t39.5 -52l-265 -253q-41 -38 -79.5 -56t-77.5 -18z" />
    <glyph glyph-name="uni1E37" unicode="&#x1e37;" horiz-adv-x="592"
d="M172 1591h239v-1420h213q-6 -40 -22.5 -72t-40 -54t-53 -33.5t-61.5 -11.5h-84q-39 0 -74 20t-61 54.5t-41 80.5t-15 99v1337zM396 -172q34 0 64.5 -13t53 -36.5t35.5 -55t13 -68.5q0 -38 -13 -68.5t-35.5 -53t-53 -34.5t-64.5 -12q-36 0 -67 12t-53 34.5t-34.5 53
t-12.5 68.5q0 37 12.5 68.5t34.5 55t53 36.5t67 13z" />
    <glyph glyph-name="uni1E39" unicode="&#x1e39;" horiz-adv-x="592"
d="M172 1591h239v-1420h213q-6 -40 -22.5 -72t-40 -54t-53 -33.5t-61.5 -11.5h-84q-39 0 -74 20t-61 54.5t-41 80.5t-15 99v1337zM396 -172q34 0 64.5 -13t53 -36.5t35.5 -55t13 -68.5q0 -38 -13 -68.5t-35.5 -53t-53 -34.5t-64.5 -12q-36 0 -67 12t-53 34.5t-34.5 53
t-12.5 68.5q0 37 12.5 68.5t34.5 55t53 36.5t67 13zM-166 1790q4 35 19 70.5t38.5 64t54 46.5t63.5 18h727q-3 -35 -18.5 -70.5t-38.5 -64t-53.5 -46.5t-63.5 -18h-728z" />
    <glyph glyph-name="uni1E3B" unicode="&#x1e3b;" horiz-adv-x="592"
d="M172 1591h239v-1420h213q-6 -40 -22.5 -72t-40 -54t-53 -33.5t-61.5 -11.5h-84q-39 0 -74 20t-61 54.5t-41 80.5t-15 99v1337zM841 -232q-3 -35 -18.5 -66.5t-38.5 -54.5t-53.5 -36.5t-63.5 -13.5h-728q4 35 19 66t38.5 54.5t54 37t63.5 13.5h727z" />
    <glyph glyph-name="uni1E43" unicode="&#x1e43;" horiz-adv-x="1817"
d="M220 1047h239v-402l243 326q32 38 66.5 57.5t84.5 19.5q40 0 76.5 -20t64 -54.5t44 -80.5t16.5 -99v-113l210 290q32 37 72 57t89 20q40 0 76.5 -20t64 -54.5t44 -80.5t16.5 -99v-623h178q-4 -35 -19.5 -66.5t-39 -54.5t-53.5 -36.5t-63 -13.5h-54q-39 0 -73.5 20
t-59.5 54.5t-39.5 80.5t-14.5 99v601l-334 -405v-450h-239v855l-356 -440v-415h-239v1047zM1010 -172q34 0 64.5 -13t53 -36.5t35.5 -55t13 -68.5q0 -38 -13 -68.5t-35.5 -53t-53 -34.5t-64.5 -12q-36 0 -67 12t-53 34.5t-34.5 53t-12.5 68.5q0 37 12.5 68.5t34.5 55
t53 36.5t67 13z" />
    <glyph glyph-name="uni1E45" unicode="&#x1e45;" horiz-adv-x="1311"
d="M220 1047h239v-396l309 320q32 37 66.5 57t82.5 20q40 0 77 -20t65 -54.5t44.5 -80.5t16.5 -99v-622h202q-4 -36 -19.5 -67t-39 -54.5t-53.5 -37t-63 -13.5h-78q-40 0 -74.5 20t-60 54.5t-40.5 80.5t-15 99v608l-420 -432v-430h-239v1047zM697 1289q-36 0 -67 12
t-53 34.5t-34.5 53t-12.5 68.5q0 37 12.5 68.5t34.5 55t53 36.5t67 13q34 0 64.5 -13t53 -36.5t35.5 -55t13 -68.5q0 -38 -13 -68.5t-35.5 -53t-53 -34.5t-64.5 -12z" />
    <glyph glyph-name="uni1E47" unicode="&#x1e47;" horiz-adv-x="1311"
d="M220 1047h239v-396l309 320q32 37 66.5 57t82.5 20q40 0 77 -20t65 -54.5t44.5 -80.5t16.5 -99v-622h202q-4 -36 -19.5 -67t-39 -54.5t-53.5 -37t-63 -13.5h-78q-40 0 -74.5 20t-60 54.5t-40.5 80.5t-15 99v608l-420 -432v-430h-239v1047zM777 -172q34 0 64.5 -13
t53 -36.5t35.5 -55t13 -68.5q0 -38 -13 -68.5t-35.5 -53t-53 -34.5t-64.5 -12q-36 0 -67 12t-53 34.5t-34.5 53t-12.5 68.5q0 37 12.5 68.5t34.5 55t53 36.5t67 13z" />
    <glyph glyph-name="uni1E49" unicode="&#x1e49;" horiz-adv-x="1311"
d="M220 1047h239v-396l309 320q32 37 66.5 57t82.5 20q40 0 77 -20t65 -54.5t44.5 -80.5t16.5 -99v-622h202q-4 -36 -19.5 -67t-39 -54.5t-53.5 -37t-63 -13.5h-78q-40 0 -74.5 20t-60 54.5t-40.5 80.5t-15 99v608l-420 -432v-430h-239v1047zM1222 -232q-3 -35 -18.5 -66.5
t-38.5 -54.5t-53.5 -36.5t-63.5 -13.5h-728q4 35 19 66t38.5 54.5t54 37t63.5 13.5h727z" />
    <glyph glyph-name="uni01D2" unicode="&#x1d2;"
d="M192 793q0 53 15 99.5t40.5 81t59.5 54t73 19.5h838q-4 -35 -19.5 -66.5t-39 -54.5t-53.5 -36.5t-63 -13.5h-63q19 -14 37.5 -36t33 -51t23 -63.5t8.5 -74.5v-399q0 -52 -15 -98t-41 -80t-60.5 -54t-73.5 -20h-512q-39 0 -73 20t-59.5 54t-40.5 80t-15 98v541zM843 171
v705h-412v-705h412zM642 1287q-35 0 -74.5 17.5t-80.5 56.5l-265 253q12 16 22.5 28.5t20 24.5t19.5 24.5t22 28.5l336 -192q84 46 170.5 95t171.5 97q22 -31 40.5 -54t39.5 -52l-265 -253q-41 -38 -79.5 -56t-77.5 -18z" />
    <glyph glyph-name="uni01EB" unicode="&#x1eb;"
d="M192 793q0 53 15 99.5t40.5 81t59.5 54t73 19.5h838q-4 -35 -19.5 -66.5t-39 -54.5t-53.5 -36.5t-63 -13.5h-63q19 -14 37.5 -36t33 -51t23 -63.5t8.5 -74.5v-399q0 -52 -15 -98t-41 -80t-60.5 -54t-73.5 -20h-512q-39 0 -73 20t-59.5 54t-40.5 80t-15 98v541zM843 171
v705h-412v-705h412zM898 59l-347 -360h382v-208h-400q-34 0 -64 14t-52 38t-34.5 55t-12.5 65q0 45 13 74.5t36 55.5l313 318z" />
    <glyph glyph-name="uni1E5B" unicode="&#x1e5b;"
d="M192 1157h240v-110h754q-4 -35 -19.5 -66.5t-38.5 -54.5t-52.5 -36.5t-60.5 -13.5v-705h232q-4 -35 -19.5 -66.5t-39.5 -54.5t-55 -36.5t-66 -13.5h-100q-39 0 -74 20t-61 54.5t-41 80.5t-15 99v622h-346v-876h-238v1157zM616 -172q34 0 64.5 -13t53 -36.5t35.5 -55
t13 -68.5q0 -38 -13 -68.5t-35.5 -53t-53 -34.5t-64.5 -12q-36 0 -67 12t-53 34.5t-34.5 53t-12.5 68.5q0 37 12.5 68.5t34.5 55t53 36.5t67 13z" />
    <glyph glyph-name="uni1E5D" unicode="&#x1e5d;"
d="M192 1157h240v-110h754q-4 -35 -19.5 -66.5t-38.5 -54.5t-52.5 -36.5t-60.5 -13.5v-705h232q-4 -35 -19.5 -66.5t-39.5 -54.5t-55 -36.5t-66 -13.5h-100q-39 0 -74 20t-61 54.5t-41 80.5t-15 99v622h-346v-876h-238v1157zM616 -172q34 0 64.5 -13t53 -36.5t35.5 -55
t13 -68.5q0 -38 -13 -68.5t-35.5 -53t-53 -34.5t-64.5 -12q-36 0 -67 12t-53 34.5t-34.5 53t-12.5 68.5q0 37 12.5 68.5t34.5 55t53 36.5t67 13zM224 1324q4 35 19 71.5t38.5 66.5t54 49t63.5 19h667q-3 -35 -18.5 -71.5t-38.5 -66.5t-53.5 -49t-63.5 -19h-668z" />
    <glyph glyph-name="uni1E5F" unicode="&#x1e5f;"
d="M192 1157h240v-110h754q-4 -35 -19.5 -66.5t-38.5 -54.5t-52.5 -36.5t-60.5 -13.5v-705h232q-4 -35 -19.5 -66.5t-39.5 -54.5t-55 -36.5t-66 -13.5h-100q-39 0 -74 20t-61 54.5t-41 80.5t-15 99v622h-346v-876h-238v1157zM1061 -232q-3 -35 -18.5 -66.5t-38.5 -54.5
t-53.5 -36.5t-63.5 -13.5h-728q4 35 19 66t38.5 54.5t54 37t63.5 13.5h727z" />
    <glyph glyph-name="uni1E63" unicode="&#x1e63;" horiz-adv-x="1266"
d="M499 1107h240q-9 -22 -13.5 -43.5t-6.5 -35.5q-3 -37 12 -67t40.5 -57.5t59 -54.5t68.5 -57q40 -32 81 -73.5t74 -91t53.5 -105t18.5 -115.5q-2 -42 -18 -80.5t-42 -69t-60.5 -52.5t-72.5 -32h372q-14 -39 -33.5 -70.5t-44 -54.5t-53.5 -35.5t-60 -12.5h-274
q-46 0 -76.5 14.5t-48 38.5t-24 55.5t-3.5 65.5q32 4 63 17t55.5 37.5t41 61.5t20.5 89q4 41 -8 77t-32 68t-46 61t-51 56q-26 34 -52 82t-37 117l-316 -840h-247zM643 -172q34 0 64.5 -13t53 -36.5t35.5 -55t13 -68.5q0 -38 -13 -68.5t-35.5 -53t-53 -34.5t-64.5 -12
q-36 0 -67 12t-53 34.5t-34.5 53t-12.5 68.5q0 37 12.5 68.5t34.5 55t53 36.5t67 13z" />
    <glyph glyph-name="uni1E6D" unicode="&#x1e6d;" horiz-adv-x="765"
d="M222 893h-80v154h80v278l239 119v-397h269v-154h-269v-722h358q-4 -35 -19.5 -66.5t-39.5 -54.5t-54 -36.5t-63 -13.5h-231q-39 0 -74 20t-60.5 54.5t-40.5 80.5t-15 99v639zM473 -172q34 0 64.5 -13t53 -36.5t35.5 -55t13 -68.5q0 -38 -13 -68.5t-35.5 -53t-53 -34.5
t-64.5 -12q-36 0 -67 12t-53 34.5t-34.5 53t-12.5 68.5q0 37 12.5 68.5t34.5 55t53 36.5t67 13z" />
    <glyph glyph-name="uni1E6F" unicode="&#x1e6f;" horiz-adv-x="765"
d="M222 893h-80v154h80v278l239 119v-397h269v-154h-269v-722h358q-4 -35 -19.5 -66.5t-39.5 -54.5t-54 -36.5t-63 -13.5h-231q-39 0 -74 20t-60.5 54.5t-40.5 80.5t-15 99v639zM918 -232q-3 -35 -18.5 -66.5t-38.5 -54.5t-53.5 -36.5t-63.5 -13.5h-728q4 35 19 66
t38.5 54.5t54 37t63.5 13.5h727z" />
    <glyph glyph-name="uni1E97" unicode="&#x1e97;" horiz-adv-x="765"
d="M222 893h-80v154h80v278l239 119v-397h269v-154h-269v-722h358q-4 -35 -19.5 -66.5t-39.5 -54.5t-54 -36.5t-63 -13.5h-231q-39 0 -74 20t-60.5 54.5t-40.5 80.5t-15 99v639zM625 1569q-36 0 -67 12t-53 34.5t-34.5 53t-12.5 68.5q0 37 12.5 68.5t34.5 55t53 36.5t67 13
q34 0 64.5 -13t53 -36.5t35.5 -55t13 -68.5q0 -38 -13 -68.5t-35.5 -53t-53 -34.5t-64.5 -12zM91 1569q-36 0 -67 12t-53 34.5t-34.5 53t-12.5 68.5q0 37 12.5 68.5t34.5 55t53 36.5t67 13q34 0 64.5 -13t53 -36.5t35.5 -55t13 -68.5q0 -38 -13 -68.5t-35.5 -53t-53 -34.5
t-64.5 -12z" />
    <glyph glyph-name="uni01D4" unicode="&#x1d4;" horiz-adv-x="1263"
d="M180 1047h239v-876h413v876h238v-876h203q-4 -35 -19.5 -66.5t-39 -54.5t-53.5 -36.5t-63 -13.5h-188l-78 127q-11 -28 -28 -51.5t-38.5 -40t-45 -26t-45.5 -9.5h-305q-39 0 -74 20t-60.5 54.5t-40.5 80.5t-15 99v793zM620 1287q-35 0 -74.5 17.5t-80.5 56.5l-265 253
q12 16 22.5 28.5t20 24.5t19.5 24.5t22 28.5l336 -192q84 46 170.5 95t171.5 97q22 -31 40.5 -54t39.5 -52l-265 -253q-41 -38 -79.5 -56t-77.5 -18z" />
    <glyph glyph-name="uni1E8F" unicode="&#x1e8f;"
d="M192 1047h239v-876h412v876h239v-876h202q-4 -35 -19.5 -66.5t-39 -54.5t-53.5 -36.5t-63 -13.5h-27v-285q0 -53 -15 -99.5t-41 -81t-60.5 -55t-73.5 -20.5h-484v173h435v475q-27 -50 -69.5 -78.5t-90.5 -28.5h-301q-39 0 -74 20t-60.5 54.5t-40.5 80.5t-15 99v793z
M634 1289q-36 0 -67 12t-53 34.5t-34.5 53t-12.5 68.5q0 37 12.5 68.5t34.5 55t53 36.5t67 13q34 0 64.5 -13t53 -36.5t35.5 -55t13 -68.5q0 -38 -13 -68.5t-35.5 -53t-53 -34.5t-64.5 -12z" />
    <glyph glyph-name="uni1E93" unicode="&#x1e93;" horiz-adv-x="1083"
d="M162 186l570 690h-540v171h795v-184l-567 -692h645q-4 -35 -19.5 -66.5t-39 -54.5t-53.5 -36.5t-63 -13.5h-728v186zM609 -172q34 0 64.5 -13t53 -36.5t35.5 -55t13 -68.5q0 -38 -13 -68.5t-35.5 -53t-53 -34.5t-64.5 -12q-36 0 -67 12t-53 34.5t-34.5 53t-12.5 68.5
q0 37 12.5 68.5t34.5 55t53 36.5t67 13z" />
    <glyph glyph-name="uni0200" unicode="&#x200;" horiz-adv-x="1327"
d="M227 381h-231q4 35 19.5 66t39 54.5t53.5 37t63 13.5h86l133 775q7 41 26.5 76t46 60t58.5 39t64 14h243q31 0 63 -14t59 -39.5t46.5 -60t26.5 -76.5l228 -1326h-239l-62 381h-491l-61 -381h-236zM923 552l-128 795h-183q-32 -194 -63 -393.5t-63 -401.5h437zM785 1706
q-46 23 -73.5 64.5t-27.5 88.5q0 28 11 53.5t29.5 44.5t43.5 30.5t52 11.5q31 0 61 -14t55 -41l232 -258l-87 -115zM285 1706q-46 23 -73.5 64.5t-27.5 88.5q0 28 11 53.5t29.5 44.5t43.5 30.5t52 11.5q31 0 61 -14t55 -41l232 -258l-87 -115z" />
    <glyph glyph-name="uni01F1" unicode="&#x1f1;" horiz-adv-x="2530"
d="M244 982q0 52 15.5 97.5t42 80t61.5 54.5t75 20h45v-1063h463v1176h-896q3 35 18.5 66t39 54t53.5 36t64 13h768q39 0 74 -19.5t60.5 -54t40.5 -81t15 -99.5v-1010q0 -52 -15 -98t-40.5 -80t-60 -54t-73.5 -20h-749zM1523 176l647 1171h-622v169h856v-173l-647 -1166
l724 1q-4 -36 -19.5 -68t-39 -56.5t-53.5 -39t-63 -14.5h-783v176z" />
    <glyph glyph-name="uni01C7" unicode="&#x1c7;" horiz-adv-x="2437"
d="M50 0q3 34 18.5 65.5t39 54.5t53.5 37t64 14h42v1091q0 53 15 99.5t40.5 81t60 54t73.5 19.5h320v-159h-271v-941q0 -52 -14.5 -95t-36 -75t-47.5 -51.5t-49 -23.5h586v220h211v-221q0 -36 -15 -67t-39.5 -54t-56 -36t-64.5 -13h-930v0zM1327 670h233v-499h428v1176h-441
v169h690v-1262q0 -52 -15 -98.5t-41 -81t-60.5 -54.5t-74.5 -20h-530q-39 0 -73.5 20t-60 54t-40.5 80t-15 98v418z" />
    <glyph glyph-name="uni01CA" unicode="&#x1ca;" horiz-adv-x="2687"
d="M220 1516h237v-367l373 292q18 15 36 28.5t37.5 24t41 16.5t46.5 6q39 0 73 -17.5t59.5 -49t40 -74t14.5 -91.5v-1112h225q-4 -36 -19.5 -67t-39 -54.5t-53.5 -37t-63 -13.5h-108q-39 0 -73 20t-59.5 54t-40 80t-14.5 98v1063l-476 -371v-944h-237v1516zM1577 670h233
v-499h428v1176h-441v169h690v-1262q0 -52 -15 -98.5t-41 -81t-60.5 -54.5t-74.5 -20h-530q-39 0 -73.5 20t-60 54t-40.5 80t-15 98v418z" />
    <glyph glyph-name="uni01F2" unicode="&#x1f2;" horiz-adv-x="2470"
d="M244 982q0 52 15.5 97.5t42 80t61.5 54.5t75 20h45v-1063h463v1176h-896q3 35 18.5 66t39 54t53.5 36t64 13h768q39 0 74 -19.5t60.5 -54t40.5 -81t15 -99.5v-1010q0 -52 -15 -98t-40.5 -80t-60 -54t-73.5 -20h-749zM1549 186l570 690h-540v171h795v-184l-567 -692h645
q-4 -35 -19.5 -66.5t-39 -54.5t-53.5 -36.5t-63 -13.5h-728v186z" />
    <glyph glyph-name="uni01C8" unicode="&#x1c8;" horiz-adv-x="1785"
d="M50 0q3 34 18.5 65.5t39 54.5t53.5 37t64 14h42v1091q0 53 15 99.5t40.5 81t60 54t73.5 19.5h320v-159h-271v-941q0 -52 -14.5 -95t-36 -75t-47.5 -51.5t-49 -23.5h586v220h211v-221q0 -36 -15 -67t-39.5 -54t-56 -36t-64.5 -13h-930v0zM1502 1289q-35 0 -65.5 13
t-53.5 36t-36 53.5t-13 65.5t13 65.5t36 53.5t53.5 36.5t65.5 13.5t65.5 -13.5t53.5 -36.5t36.5 -53.5t13.5 -65.5t-13.5 -65.5t-36.5 -53.5t-54 -36t-65 -13zM1385 -368v1415h239v-1332q0 -53 -15 -99.5t-40.5 -81t-60 -55t-73.5 -20.5h-196v173h146z" />
    <glyph glyph-name="uni01CB" unicode="&#x1cb;" horiz-adv-x="2035"
d="M220 1516h237v-367l373 292q18 15 36 28.5t37.5 24t41 16.5t46.5 6q39 0 73 -17.5t59.5 -49t40 -74t14.5 -91.5v-1112h225q-4 -36 -19.5 -67t-39 -54.5t-53.5 -37t-63 -13.5h-108q-39 0 -73 20t-59.5 54t-40 80t-14.5 98v1063l-476 -371v-944h-237v1516zM1752 1289
q-35 0 -65.5 13t-53.5 36t-36 53.5t-13 65.5t13 65.5t36 53.5t53.5 36.5t65.5 13.5t65.5 -13.5t53.5 -36.5t36.5 -53.5t13.5 -65.5t-13.5 -65.5t-36.5 -53.5t-54 -36t-65 -13zM1635 -368v1415h239v-1332q0 -53 -15 -99.5t-40.5 -81t-60 -55t-73.5 -20.5h-196v173h146z" />
    <glyph glyph-name="uni0204" unicode="&#x204;" horiz-adv-x="1172"
d="M230 564h-225q3 33 17 62.5t36.5 51t51 34.5t60.5 13h60v537q0 53 14.5 99.5t40 81t60 54t73.5 19.5h628v-169h-576v-622h396v-161h-396v-393h665q-4 -35 -19.5 -66.5t-39 -54.5t-53.5 -36.5t-63 -13.5h-540q-40 0 -74.5 20t-60 54t-40.5 80t-15 98v312zM775 1706
q-46 23 -73.5 64.5t-27.5 88.5q0 28 11 53.5t29.5 44.5t43.5 30.5t52 11.5q31 0 61 -14t55 -41l232 -258l-87 -115zM275 1706q-46 23 -73.5 64.5t-27.5 88.5q0 28 11 53.5t29.5 44.5t43.5 30.5t52 11.5q31 0 61 -14t55 -41l232 -258l-87 -115z" />
    <glyph glyph-name="uni01F4" unicode="&#x1f4;" horiz-adv-x="1348"
d="M200 1261q0 53 15 99.5t40.5 81t59.5 54t73 19.5h800v-169h-749v-1174h514v711h237l-2 -1000q0 -51 -14.5 -96.5t-39.5 -80t-59 -54.5t-72 -20h-50v368h-565q-39 0 -73 20t-59.5 54t-40.5 80t-15 98v1009zM548 1751l313 267q41 29 83 29q35 0 64 -19.5t46 -57.5
q12 -27 12 -53q0 -24 -8.5 -46t-23.5 -40.5t-35.5 -32t-44.5 -19.5l-351 -122z" />
    <glyph glyph-name="uni0208" unicode="&#x208;" horiz-adv-x="1102"
d="M319 171h317v1176h-330v-345h-206v260q0 53 15 99.5t41 81t60.5 54t74.5 19.5h583v-1264q0 -52 -15 -98t-41 -80t-60.5 -54t-73.5 -20h-365v171zM617 1706q-46 23 -73.5 64.5t-27.5 88.5q0 28 11 53.5t29.5 44.5t43.5 30.5t52 11.5q31 0 61 -14t55 -41l232 -258l-87 -115
zM117 1706q-46 23 -73.5 64.5t-27.5 88.5q0 28 11 53.5t29.5 44.5t43.5 30.5t52 11.5q31 0 61 -14t55 -41l232 -258l-87 -115z" />
    <glyph glyph-name="IJ_acutecomb" horiz-adv-x="1285"
d="M144 1751l313 267q41 29 83 29q35 0 64 -19.5t46 -57.5q12 -27 12 -53q0 -24 -8.5 -46t-23.5 -40.5t-35.5 -32t-44.5 -19.5l-351 -122zM858 1751l313 267q41 29 83 29q35 0 64 -19.5t46 -57.5q12 -27 12 -53q0 -24 -8.5 -46t-23.5 -40.5t-35.5 -32t-44.5 -19.5l-351 -122
zM260 0q3 35 18.5 66t39 54.5t53.5 37t63 13.5h479v1345h239v-1262q0 -53 -15 -99t-41 -80.5t-61 -54.5t-74 -20h-701zM388 469q-39 0 -74 20t-61 54.5t-41 80.5t-15 99v793h239v-876h328q-3 -35 -18.5 -66.5t-39 -54.5t-53.5 -36.5t-63 -13.5h-202z" />
    <glyph glyph-name="uni020C" unicode="&#x20c;" horiz-adv-x="1358"
d="M200 1262q0 53 15 99.5t40.5 81t59.5 54t73 19.5h580q39 0 74 -19.5t60.5 -54t40.5 -81t15 -99.5v-1010q0 -52 -15 -98t-41 -80t-60.5 -54t-73.5 -20h-580q-39 0 -73 20t-59.5 54t-40.5 80t-15 98v1010zM920 171v1176h-481v-1176h481zM748 1706q-46 23 -73.5 64.5
t-27.5 88.5q0 28 11 53.5t29.5 44.5t43.5 30.5t52 11.5q31 0 61 -14t55 -41l232 -258l-87 -115zM248 1706q-46 23 -73.5 64.5t-27.5 88.5q0 28 11 53.5t29.5 44.5t43.5 30.5t52 11.5q31 0 61 -14t55 -41l232 -258l-87 -115z" />
    <glyph glyph-name="uni0210" unicode="&#x210;" horiz-adv-x="1388"
d="M237 564h-223q3 35 18.5 66t39 54.5t53.5 37t64 13.5h48v781h678q40 0 77 -19.5t65.5 -54t45.5 -81t17 -99.5v-373q0 -73 -33 -134t-96 -98q44 -16 76 -45t53 -64t31 -73t10 -72l-1 -231h263q-4 -36 -19.5 -67t-39 -54.5t-53.5 -37t-63 -13.5h-138q-39 0 -73.5 20
t-60.5 54t-41 80t-15 98v312h-446l-1 -564h-236v564zM883 735v610h-409v-610h409zM718 1706q-46 23 -73.5 64.5t-27.5 88.5q0 28 11 53.5t29.5 44.5t43.5 30.5t52 11.5q31 0 61 -14t55 -41l232 -258l-87 -115zM218 1706q-46 23 -73.5 64.5t-27.5 88.5q0 28 11 53.5
t29.5 44.5t43.5 30.5t52 11.5q31 0 61 -14t55 -41l232 -258l-87 -115z" />
    <glyph glyph-name="uni0214" unicode="&#x214;" horiz-adv-x="1396"
d="M200 1516h240v-1334h93l385 304v1030h238v-1344h200q-4 -36 -19.5 -67t-39 -54.5t-53.5 -37t-63 -13.5h-263v288l-317 -255q-38 -33 -88 -33h-115q-40 0 -76 20t-63 54t-43 80t-16 98v1264zM769 1706q-46 23 -73.5 64.5t-27.5 88.5q0 28 11 53.5t29.5 44.5t43.5 30.5
t52 11.5q31 0 61 -14t55 -41l232 -258l-87 -115zM269 1706q-46 23 -73.5 64.5t-27.5 88.5q0 28 11 53.5t29.5 44.5t43.5 30.5t52 11.5q31 0 61 -14t55 -41l232 -258l-87 -115z" />
    <glyph glyph-name="uni01CD" unicode="&#x1cd;" horiz-adv-x="1327"
d="M227 381h-231q4 35 19.5 66t39 54.5t53.5 37t63 13.5h86l133 775q7 41 26.5 76t46 60t58.5 39t64 14h243q31 0 63 -14t59 -39.5t46.5 -60t26.5 -76.5l228 -1326h-239l-62 381h-491l-61 -381h-236zM923 552l-128 795h-183q-32 -194 -63 -393.5t-63 -401.5h437zM716 1793
q-75 -41 -153 -85.5t-155 -86.5q-20 28 -36.5 48.5t-35.5 46.5l239 228q36 35 71 50.5t70 15.5q31 0 67 -15.5t72 -50.5l239 -228q-11 -15 -20.5 -26.5t-18 -22t-17.5 -21.5t-20 -25z" />
    <glyph glyph-name="uni1E0C" unicode="&#x1e0c;" horiz-adv-x="1387"
d="M244 982q0 52 15.5 97.5t42 80t61.5 54.5t75 20h45v-1063h463v1176h-896q3 35 18.5 66t39 54t53.5 36t64 13h768q39 0 74 -19.5t60.5 -54t40.5 -81t15 -99.5v-1010q0 -52 -15 -98t-40.5 -80t-60 -54t-73.5 -20h-749zM694 -171q34 0 64.5 -13t53 -36.5t35.5 -55t13 -68.5
q0 -38 -13 -68.5t-35.5 -53t-53 -34.5t-64.5 -12q-36 0 -67 12t-53 34.5t-34.5 53t-12.5 68.5q0 37 12.5 68.5t34.5 55t53 36.5t67 13z" />
    <glyph glyph-name="uni1E0E" unicode="&#x1e0e;" horiz-adv-x="1387"
d="M244 982q0 52 15.5 97.5t42 80t61.5 54.5t75 20h45v-1063h463v1176h-896q3 35 18.5 66t39 54t53.5 36t64 13h768q39 0 74 -19.5t60.5 -54t40.5 -81t15 -99.5v-1010q0 -52 -15 -98t-40.5 -80t-60 -54t-73.5 -20h-749zM1144 -247q-3 -35 -18.5 -66.5t-38.5 -54.5
t-53.5 -36.5t-63.5 -13.5h-728q4 35 19 66t38.5 54.5t54 37t63.5 13.5h727z" />
    <glyph glyph-name="Gcaron" unicode="&#x1e6;" horiz-adv-x="1348"
d="M200 1261q0 53 15 99.5t40.5 81t59.5 54t73 19.5h800v-169h-749v-1174h514v711h237l-2 -1000q0 -51 -14.5 -96.5t-39.5 -80t-59 -54.5t-72 -20h-50v368h-565q-39 0 -73 20t-59.5 54t-40.5 80t-15 98v1009zM701 1630q-31 0 -67 15.5t-72 50.5l-239 228l76 95l302 -172
q75 41 153 85.5t155 86.5l72 -95l-239 -228q-36 -35 -71 -50.5t-70 -15.5z" />
    <glyph glyph-name="Gtilde" horiz-adv-x="1348"
d="M200 1261q0 53 15 99.5t40.5 81t59.5 54t73 19.5h800v-169h-749v-1174h514v711h237l-2 -1000q0 -51 -14.5 -96.5t-39.5 -80t-59 -54.5t-72 -20h-50v368h-565q-39 0 -73 20t-59.5 54t-40.5 80t-15 98v1009zM790 1698q-41 0 -79.5 11.5t-71.5 31.5t-60 48t-45 61h-83
l-49 -99h-123q5 26 8.5 43.5l8.5 42.5q8 40 33 73.5t62 57.5t82 37.5t94 13.5q39 0 76 -11t69 -31.5t58 -48.5t44 -61h91l48 99h123q-2 -18 -5 -34q-2 -14 -5 -28.5t-5 -23.5q-10 -41 -35.5 -75t-62 -58t-81 -36.5t-92.5 -12.5z" />
    <glyph glyph-name="uni1E20" unicode="&#x1e20;" horiz-adv-x="1348"
d="M200 1261q0 53 15 99.5t40.5 81t59.5 54t73 19.5h800v-169h-749v-1174h514v711h237l-2 -1000q0 -51 -14.5 -96.5t-39.5 -80t-59 -54.5t-72 -20h-50v368h-565q-39 0 -73 20t-59.5 54t-40.5 80t-15 98v1009zM249 1700q4 35 19 70.5t38.5 64t54 46.5t63.5 18h727
q-3 -35 -18.5 -70.5t-38.5 -64t-53.5 -46.5t-63.5 -18h-728z" />
    <glyph glyph-name="uni1E24" unicode="&#x1e24;" horiz-adv-x="1437"
d="M230 565h-239q4 36 19.5 67t39 54t53.5 36.5t63 13.5h64v780h238v-780h539v780h240v-1516h-240v565h-539v-565h-238v565zM719 -171q34 0 64.5 -13t53 -36.5t35.5 -55t13 -68.5q0 -38 -13 -68.5t-35.5 -53t-53 -34.5t-64.5 -12q-36 0 -67 12t-53 34.5t-34.5 53t-12.5 68.5
q0 37 12.5 68.5t34.5 55t53 36.5t67 13z" />
    <glyph glyph-name="uni1E2A" unicode="&#x1e2a;" horiz-adv-x="1437"
d="M230 565h-239q4 36 19.5 67t39 54t53.5 36.5t63 13.5h64v780h238v-780h539v780h240v-1516h-240v565h-539v-565h-238v565zM465 -154q0 -27 18.5 -55.5t50.5 -52.5t73.5 -39t88.5 -15h46q46 0 88 15t73.5 39t50.5 52.5t19 55.5h150q0 -85 -28 -156t-77 -122.5t-114 -80
t-140 -28.5h-91q-75 0 -140 28.5t-114 80t-77 122.5t-28 156h151v0z" />
    <glyph glyph-name="uni01CF" unicode="&#x1cf;" horiz-adv-x="1102"
d="M319 171h317v1176h-330v-345h-206v260q0 53 15 99.5t41 81t60.5 54t74.5 19.5h583v-1264q0 -52 -15 -98t-41 -80t-60.5 -54t-73.5 -20h-365v171zM550 1630q-31 0 -67 15.5t-72 50.5l-239 228l76 95l302 -172q75 41 153 85.5t155 86.5l72 -95l-239 -228q-36 -35 -71 -50.5
t-70 -15.5z" />
    <glyph glyph-name="uni1E36" unicode="&#x1e36;" horiz-adv-x="1193"
d="M50 0q3 34 18.5 65.5t39 54.5t53.5 37t64 14h42v1091q0 53 15 99.5t40.5 81t60 54t73.5 19.5h320v-159h-271v-941q0 -52 -14.5 -95t-36 -75t-47.5 -51.5t-49 -23.5h586v220h211v-221q0 -36 -15 -67t-39.5 -54t-56 -36t-64.5 -13h-930v0zM590 -172q34 0 64.5 -13t53 -36.5
t35.5 -55t13 -68.5q0 -38 -13 -68.5t-35.5 -53t-53 -34.5t-64.5 -12q-36 0 -67 12t-53 34.5t-34.5 53t-12.5 68.5q0 37 12.5 68.5t34.5 55t53 36.5t67 13z" />
    <glyph glyph-name="uni1E38" unicode="&#x1e38;" horiz-adv-x="1193"
d="M50 0q3 34 18.5 65.5t39 54.5t53.5 37t64 14h42v1091q0 53 15 99.5t40.5 81t60 54t73.5 19.5h320v-159h-271v-941q0 -52 -14.5 -95t-36 -75t-47.5 -51.5t-49 -23.5h586v220h211v-221q0 -36 -15 -67t-39.5 -54t-56 -36t-64.5 -13h-930v0zM590 -172q34 0 64.5 -13t53 -36.5
t35.5 -55t13 -68.5q0 -38 -13 -68.5t-35.5 -53t-53 -34.5t-64.5 -12q-36 0 -67 12t-53 34.5t-34.5 53t-12.5 68.5q0 37 12.5 68.5t34.5 55t53 36.5t67 13zM189 1632q4 35 19 70.5t38.5 64t54 46.5t63.5 18h727q-3 -35 -18.5 -70.5t-38.5 -64t-53.5 -46.5t-63.5 -18h-728z
" />
    </font>
</defs>
</svg>
