<?xml version="1.0" standalone="no"?>
<!DOCTYPE svg PUBLIC "-//W3C//DTD SVG 1.1//EN" "http://www.w3.org/Graphics/SVG/1.1/DTD/svg11.dtd" >
<svg xmlns="http://www.w3.org/2000/svg" xmlns:xlink="http://www.w3.org/1999/xlink" version="1.1">
<metadata>
Created by FontForge 20230101 at Fri Mar 25 09:43:37 2022
 By Glenn Lewis
Copyright 2010 The Crimson Text Project Authors (https://github.com/googlefonts/Crimson)
</metadata>
<defs>
<font id="CrimsonText-Bold" horiz-adv-x="0" >
  <font-face 
    font-family="Crimson Text"
    font-weight="700"
    font-stretch="normal"
    units-per-em="1024"
    panose-1="0 0 0 0 0 0 0 0 0 0"
    ascent="819"
    descent="-205"
    x-height="432"
    cap-height="662"
    bbox="-200 -261 1543 1092"
    underline-thickness="50"
    underline-position="-125"
    unicode-range="U+000D-FB02"
  />
<missing-glyph horiz-adv-x="374" 
d="M34 0v682h272v-682h-272zM68 34h204v614h-204v-614z" />
    <glyph glyph-name="f_f" unicode="ff" horiz-adv-x="800" 
d="M29 -4q-4 4 -4 21q0 16 4 16q8 0 23 4.5t28 10.5t14 10q7 28 7 76v229q0 7 -5 7h-53q-3 0 -3 6q0 7 2.5 19.5t6.5 23.5t6 11h41q5 0 5 6v7q0 50 20 93t54.5 76t76.5 51.5t85 18.5q124 0 164 -40q16 16 42.5 28t56 19t53.5 7q43 0 75 -10t40 -24l6 -40q2 -22 -10.5 -39.5
t-39.5 -17.5q-26 0 -53 35q-27 34 -50 34q-22 0 -41 -23.5t-30 -59.5t-10 -76l1 -41q0 -5 5 -5h111q5 0 5 -7q0 -28 -12 -52h-103q-6 0 -6 -6v-215q0 -66 7 -91q2 -4 15 -10t27.5 -10.5t20.5 -4.5q2 0 3 -8t1 -17t-2 -12q-6 0 -23 1.5t-39.5 3t-42.5 2.5t-32 1t-32.5 -1
t-42.5 -2.5t-39 -3t-23 -1.5q-4 4 -4 21q0 16 4 16q8 0 23 4.5t28 10.5t14 10q7 28 7 76v229q0 7 -5 7h-169q-6 0 -6 -6v-215q0 -66 7 -91q2 -4 15 -10t27.5 -10.5t20.5 -4.5q2 0 3 -8t1 -17t-2 -12q-6 0 -23 1.5t-39.5 3t-42.5 2.5t-32 1t-32.5 -1t-42.5 -2.5t-39 -3
t-23 -1.5zM235 430h171q5 0 5 6q0 8 1.5 25t3.5 36t4 31q2 10 -1 18.5t-8 15.5q-13 22 -31 40t-44 18q-109 0 -106 -145l1 -41q0 -4 4 -4z" />
    <glyph glyph-name="f_f_i" unicode="ffi" horiz-adv-x="953" 
d="M29 -4q-4 4 -4 21q0 16 4 16q8 0 23 4.5t28 10.5t14 10q7 28 7 76v229q0 7 -5 7h-53q-3 0 -3 6q0 7 2.5 19.5t6.5 23.5t6 11h41q5 0 5 6v7q0 50 20 93t54.5 76t76.5 51.5t85 18.5q124 0 164 -40q16 16 48 28t68 19t62 7q73 0 104 -6q33 -5 53.5 -24.5t20.5 -49.5
q0 -31 -21.5 -52.5t-52.5 -21.5q-51 0 -70 46t-70 46q-28 0 -52 -23.5t-38 -59.5t-13 -76l1 -41q0 -5 5 -5h209q52 0 86 12q7 2 9 2.5t3 0.5q5 0 9.5 -6t4.5 -11q-5 -40 -7.5 -65t-2.5 -35v-180q0 -57 8 -91q2 -4 13.5 -10t24.5 -10.5t18 -4.5q3 0 3.5 -14.5t-1.5 -19.5
q-8 1 -34 2.5t-54 3.5t-44 2t-43.5 -2t-52.5 -3.5t-34 -2.5q-4 4 -4 19t4 15q8 0 21 4t24.5 10t12.5 11q8 37 8 76v146q0 56 -18 75q-11 12 -23 15.5t-36 3.5h-103q-6 0 -6 -7v-216q0 -66 7 -91q2 -4 15 -10t27.5 -10.5t20.5 -4.5q2 0 3 -8t1 -17t-2 -12q-6 0 -23 1.5
t-39.5 3t-42.5 2.5t-32 1t-32.5 -1t-42.5 -2.5t-39 -3t-23 -1.5q-4 4 -4 21q0 16 4 16q8 0 23 4.5t28 10.5t14 10q7 28 7 76v229q0 7 -5 7h-169q-6 0 -6 -6v-215q0 -66 7 -91q2 -4 15 -10t27.5 -10.5t20.5 -4.5q2 0 3 -8t1 -17t-2 -12q-6 0 -23 1.5t-39.5 3t-42.5 2.5t-32 1
t-32.5 -1t-42.5 -2.5t-39 -3t-23 -1.5zM235 430h171q5 0 5 6v1q0 10 2.5 31t6.5 60q0 19 -9 34q-13 22 -31 40t-44 18q-110 0 -106 -145l1 -41q0 -4 4 -4z" />
    <glyph glyph-name="f_f_l" unicode="ffl" horiz-adv-x="952" 
d="M29 -4q-4 4 -4 21q0 16 4 16q8 0 23 4.5t28 10.5t14 10q7 28 7 76v229q0 7 -5 7h-53q-3 0 -3 6q0 7 2.5 19.5t6.5 23.5t6 11h41q5 0 5 6v7q0 49 20 92t54.5 76t76.5 52t85 19q124 0 164 -40q54 54 180 54q20 0 36.5 -9t28.5 -9t28.5 2.5t37.5 6.5l43 8q4 0 8 -6t5 -11
q-11 -47 -11 -101v-431q0 -29 2 -51.5t6 -38.5q2 -4 13.5 -10t24.5 -10.5t18 -4.5q3 0 3.5 -14.5t-1.5 -19.5q-8 1 -34 2.5t-54 3.5t-44 2t-43.5 -2t-52.5 -3.5t-34 -2.5q-4 4 -4 19t4 15q8 0 21 4t24.5 10t12.5 11q4 17 6 36t2 39v384q0 40 -14 73q-19 46 -70 46
q-28 0 -52 -23.5t-38 -59.5t-13 -76l1 -41q0 -5 5 -5h111q5 0 5 -7q0 -28 -12 -52h-103q-6 0 -6 -6v-215q0 -66 7 -91q2 -4 15 -10t27.5 -10.5t20.5 -4.5q2 0 3 -8t1 -17t-2 -12q-6 0 -23 1.5t-39.5 3t-42.5 2.5t-32 1t-32.5 -1t-42.5 -2.5t-39 -3t-23 -1.5q-4 4 -4 21
q0 16 4 16q8 0 23 4.5t28 10.5t14 10q7 28 7 76v229q0 7 -5 7h-170q-5 0 -5 -6v-215q0 -66 7 -91q2 -4 15 -10t27.5 -10.5t20.5 -4.5q2 0 3 -8t1 -17t-2 -12q-6 0 -23 1.5t-39.5 3t-42.5 2.5t-32 1t-32.5 -1t-42.5 -2.5t-39 -3t-23 -1.5zM236 430h170q5 0 5 5q0 11 2 31
t5 51q2 18 0 28t-7 17q-13 22 -31 40t-44 18q-109 -1 -106 -145l1 -41q0 -4 5 -4z" />
    <glyph glyph-name="fi" unicode="fi" horiz-adv-x="649" 
d="M29 -4q-4 4 -4 21q0 16 4 16q8 0 23 4.5t28 10.5t14 10q7 28 7 76v231q0 7 -5 7h-53q-3 0 -3 6q0 7 2.5 19t6.5 22.5t6 10.5h41q5 0 5 6v4q0 50 21.5 95.5t59 82t86.5 57.5t103 21q71 0 102 -6q33 -5 53.5 -24.5t20.5 -49.5q0 -31 -21.5 -52.5t-52.5 -21.5q-51 0 -70 46
t-70 46q-28 0 -52 -23.5t-38 -59.5t-13 -76l1 -41q0 -5 5 -5h209q52 0 86 12q7 2 9 2.5t3 0.5q5 0 9.5 -6t4.5 -11q-5 -40 -7.5 -65t-2.5 -35v-178q-2 -58 7 -91q2 -4 15 -10t27.5 -10.5t20.5 -4.5q2 0 3 -8t1 -17t-2 -12q-6 0 -23 1.5t-39.5 3t-42.5 2.5t-32 1t-32.5 -1
t-42.5 -2.5t-39 -3t-23 -1.5q-4 4 -4 21q0 16 4 16q8 0 23 4.5t28 10.5t14 10q7 28 7 76v144q0 56 -18 75q-11 12 -23 15.5t-36 3.5h-103q-6 0 -6 -6v-217q0 -66 7 -91q2 -4 15 -10t27.5 -10.5t20.5 -4.5q2 0 3 -8t1 -17t-2 -12q-6 0 -23 1.5t-39.5 3t-42.5 2.5t-32 1
t-32.5 -1t-42.5 -2.5t-39 -3t-23 -1.5z" />
    <glyph glyph-name="fl" unicode="fl" horiz-adv-x="649" 
d="M29 -4q-4 4 -4 21q0 16 4 16q8 0 23 4.5t28 10.5t14 10q7 28 7 76v231q0 7 -5 7h-53q-3 0 -3 6q0 7 2.5 19t6.5 22.5t6 10.5h41q5 0 5 6v4q0 50 21.5 95.5t59 82t86.5 57.5t103 21q18 0 35.5 -9t29.5 -9q18 0 44 4t44 8l21 5q4 0 8 -6t5 -11q-11 -47 -11 -101v-428
q0 -66 7 -91q2 -4 15 -10t27.5 -10.5t20.5 -4.5q2 0 3 -8t1 -17t-2 -12q-6 0 -23 1.5t-39.5 3t-42.5 2.5t-32 1t-32.5 -1t-42.5 -2.5t-39 -3t-23 -1.5q-4 4 -4 21q0 16 4 16q8 0 23 4.5t28 10.5t14 10q7 28 7 76v381q0 40 -14 73q-19 46 -70 46q-28 0 -52 -23.5t-38 -59.5
t-13 -76l1 -41q0 -5 5 -5h111q5 0 5 -7q0 -26 -12 -50h-103q-6 0 -6 -6v-217q0 -66 7 -91q2 -4 15 -10t27.5 -10.5t20.5 -4.5q2 0 3 -8t1 -17t-2 -12q-6 0 -23 1.5t-39.5 3t-42.5 2.5t-32 1t-32.5 -1t-42.5 -2.5t-39 -3t-23 -1.5z" />
    <glyph glyph-name=".notdef" horiz-adv-x="374" 
d="M34 0v682h272v-682h-272zM68 34h204v614h-204v-614z" />
    <glyph glyph-name="A" unicode="A" horiz-adv-x="720" 
d="M15 -4q-4 4 -4 15q0 21 2 21q8 0 24 5t31.5 12.5t19.5 14.5q8 12 17 29.5t13 28.5l5 12l221 508q11 26 37 26q15 0 24 -13l205 -507q9 -23 17.5 -43.5t15.5 -38.5q4 -10 18 -17.5t30.5 -11.5t25.5 -4q4 0 4 -17q0 -16 -2 -20l-61 4q-29 2 -50 3.5t-34 0.5l-151 -8
q-4 4 -4 21q0 16 4 16q22 0 45 9.5t23 25.5q0 1 -5.5 18t-19.5 49l-30 73q-4 4 -7 4q-10 1 -34 1h-62h-58.5t-42.5 -1q-4 0 -7 -5l-33 -76q-17 -40 -19.5 -58t17.5 -28q18 -9 31.5 -10.5t23.5 -1.5q3 -1 3 -16q0 -13 -2 -21q-45 3 -65.5 5t-30.5 2.5t-21.5 -0.5t-36.5 -2.5
t-77 -4.5zM333 273q20 0 37.5 0.5t33.5 1.5l3 5l-72 179l-78 -179q0 -4 2 -4q30 -3 74 -3z" />
    <glyph glyph-name="Aacute" unicode="&#xc1;" horiz-adv-x="720" 
d="M15 -4q-4 4 -4 15q0 21 2 21q8 0 24 5t31.5 12.5t19.5 14.5q8 12 17 29.5t13 28.5l5 12l221 508q11 26 37 26q15 0 24 -13l205 -507q9 -23 17.5 -43.5t15.5 -38.5q4 -10 18 -17.5t30.5 -11.5t25.5 -4q4 0 4 -17q0 -16 -2 -20l-61 4q-29 2 -50 3.5t-34 0.5l-151 -8
q-4 4 -4 21q0 16 4 16q22 0 45 9.5t23 25.5q0 1 -5.5 18t-19.5 49l-30 73q-4 4 -7 4q-10 1 -34 1h-62h-58.5t-42.5 -1q-4 0 -7 -5l-33 -76q-17 -40 -19.5 -58t17.5 -28q18 -9 31.5 -10.5t23.5 -1.5q3 -1 3 -16q0 -13 -2 -21q-45 3 -65.5 5t-30.5 2.5t-21.5 -0.5t-36.5 -2.5
t-77 -4.5zM333 273q20 0 37.5 0.5t33.5 1.5l3 5l-72 179l-78 -179q0 -4 2 -4q30 -3 74 -3zM332 729q-5 0 -9.5 7.5t-4.5 12.5q0 3 12.5 16.5t31 32.5t39.5 37.5t37 30.5q7 4 18 4q18 0 37 -9.5t19 -28.5q0 -10 -16 -23t-40.5 -27t-50 -26t-46 -19.5t-27.5 -7.5z" />
    <glyph glyph-name="Abreve" unicode="&#x102;" horiz-adv-x="720" 
d="M15 -4q-4 4 -4 15q0 21 2 21q8 0 24 5t31.5 12.5t19.5 14.5q8 12 17 29.5t13 28.5l5 12l221 508q11 26 37 26q15 0 24 -13l205 -507q9 -23 17.5 -43.5t15.5 -38.5q4 -10 18 -17.5t30.5 -11.5t25.5 -4q4 0 4 -17q0 -16 -2 -20l-61 4q-29 2 -50 3.5t-34 0.5l-151 -8
q-4 4 -4 21q0 16 4 16q22 0 45 9.5t23 25.5q0 1 -5.5 18t-19.5 49l-30 73q-4 4 -7 4q-10 1 -34 1h-62h-58.5t-42.5 -1q-4 0 -7 -5l-33 -76q-17 -40 -19.5 -58t17.5 -28q18 -9 31.5 -10.5t23.5 -1.5q3 -1 3 -16q0 -13 -2 -21q-45 3 -65.5 5t-30.5 2.5t-21.5 -0.5t-36.5 -2.5
t-77 -4.5zM333 273q20 0 37.5 0.5t33.5 1.5l3 5l-72 179l-78 -179q0 -4 2 -4q30 -3 74 -3zM377 728q-32 0 -59 18t-46 49q-5 8 -5 13t9 15.5t14 12.5q2 2 4 -2q13 -17 37.5 -31.5t45.5 -14.5t45.5 14.5t37.5 31.5q2 4 4 2q5 -2 14 -12.5t9 -15.5t-5 -13q-19 -31 -46 -49
t-59 -18z" />
    <glyph glyph-name="uni1EAE" unicode="&#x1eae;" horiz-adv-x="720" 
d="M15 -4q-4 4 -4 15q0 21 2 21q8 0 24 5t31.5 12.5t19.5 14.5q8 12 17 29.5t13 28.5l5 12l221 508q11 26 37 26q15 0 24 -13l205 -507q9 -23 17.5 -43.5t15.5 -38.5q4 -10 18 -17.5t30.5 -11.5t25.5 -4q4 0 4 -17q0 -16 -2 -20l-61 4q-29 2 -50 3.5t-34 0.5l-151 -8
q-4 4 -4 21q0 16 4 16q22 0 45 9.5t23 25.5q0 1 -5.5 18t-19.5 49l-30 73q-4 4 -7 4q-10 1 -34 1h-62h-58.5t-42.5 -1q-4 0 -7 -5l-33 -76q-17 -40 -19.5 -58t17.5 -28q18 -9 31.5 -10.5t23.5 -1.5q3 -1 3 -16q0 -13 -2 -21q-45 3 -65.5 5t-30.5 2.5t-21.5 -0.5t-36.5 -2.5
t-77 -4.5zM333 273q20 0 37.5 0.5t33.5 1.5l3 5l-72 179l-78 -179q0 -4 2 -4q30 -3 74 -3zM340 858q0 3 12.5 16.5t31 32.5t39.5 37.5t37 30.5q7 4 18 4q18 0 37 -9.5t19 -28.5q0 -10 -16 -23t-40.5 -27t-50 -26t-46 -19.5t-27.5 -7.5q-5 0 -9.5 7.5t-4.5 12.5zM291 835
q13 -17 37.5 -31.5t45.5 -14.5t45.5 14t36.5 30q3 6 6 4q5 -2 14 -13t8 -16q0 -3 -2 -7q-20 -34 -48 -53t-60 -19q-64 0 -108 72q-2 2 -2 7q-1 5 8.5 16t13.5 13q3 2 5 -2z" />
    <glyph glyph-name="uni1EB6" unicode="&#x1eb6;" horiz-adv-x="720" 
d="M15 -4q-4 4 -4 15q0 21 2 21q8 0 24 5t31.5 12.5t19.5 14.5q8 12 17 29.5t13 28.5l5 12l221 508q11 26 37 26q15 0 24 -13l205 -507q9 -23 17.5 -43.5t15.5 -38.5q4 -10 18 -17.5t30.5 -11.5t25.5 -4q4 0 4 -17q0 -16 -2 -20l-61 4q-29 2 -50 3.5t-34 0.5l-151 -8
q-4 4 -4 21q0 16 4 16q22 0 45 9.5t23 25.5q0 1 -5.5 18t-19.5 49l-30 73q-4 4 -7 4q-10 1 -34 1h-62h-58.5t-42.5 -1q-4 0 -7 -5l-33 -76q-17 -40 -19.5 -58t17.5 -28q18 -9 31.5 -10.5t23.5 -1.5q3 -1 3 -16q0 -13 -2 -21q-45 3 -65.5 5t-30.5 2.5t-21.5 -0.5t-36.5 -2.5
t-77 -4.5zM333 273q20 0 37.5 0.5t33.5 1.5l3 5l-72 179l-78 -179q0 -4 2 -4q30 -3 74 -3zM360 -200q-31 0 -53 21.5t-22 52.5q0 32 22 53.5t53 21.5t52.5 -21.5t21.5 -53.5q0 -31 -21.5 -52.5t-52.5 -21.5zM377 728q-32 0 -59 18t-46 49q-5 8 -5 13t9 15.5t14 12.5
q2 2 4 -2q13 -17 37.5 -31.5t45.5 -14.5t45.5 14.5t37.5 31.5q2 4 4 2q5 -2 14 -12.5t9 -15.5t-5 -13q-19 -31 -46 -49t-59 -18z" />
    <glyph glyph-name="uni1EB0" unicode="&#x1eb0;" horiz-adv-x="720" 
d="M15 -4q-4 4 -4 15q0 21 2 21q8 0 24 5t31.5 12.5t19.5 14.5q8 12 17 29.5t13 28.5l5 12l221 508q11 26 37 26q15 0 24 -13l205 -507q9 -23 17.5 -43.5t15.5 -38.5q4 -10 18 -17.5t30.5 -11.5t25.5 -4q4 0 4 -17q0 -16 -2 -20l-61 4q-29 2 -50 3.5t-34 0.5l-151 -8
q-4 4 -4 21q0 16 4 16q22 0 45 9.5t23 25.5q0 1 -5.5 18t-19.5 49l-30 73q-4 4 -7 4q-10 1 -34 1h-62h-58.5t-42.5 -1q-4 0 -7 -5l-33 -76q-17 -40 -19.5 -58t17.5 -28q18 -9 31.5 -10.5t23.5 -1.5q3 -1 3 -16q0 -13 -2 -21q-45 3 -65.5 5t-30.5 2.5t-21.5 -0.5t-36.5 -2.5
t-77 -4.5zM333 273q20 0 37.5 0.5t33.5 1.5l3 5l-72 179l-78 -179q0 -4 2 -4q30 -3 74 -3zM421 858q0 -5 -4.5 -12.5t-9.5 -7.5q-7 0 -27.5 7.5t-46 19.5t-50 26t-40.5 27t-16 23q0 19 19 28.5t37 9.5q11 0 18 -4q17 -12 37.5 -30.5t39 -37.5t31 -32.5t12.5 -16.5zM294 835
q13 -17 37.5 -31.5t45.5 -14.5t45.5 14t36.5 30q3 6 6 4q5 -2 14 -13t8 -16q0 -3 -2 -7q-20 -34 -48 -53t-60 -19q-64 0 -108 72q-2 2 -2 7q-1 5 8.5 16t13.5 13q3 2 5 -2z" />
    <glyph glyph-name="uni1EB2" unicode="&#x1eb2;" horiz-adv-x="720" 
d="M15 -4q-4 4 -4 15q0 21 2 21q8 0 24 5t31.5 12.5t19.5 14.5q8 12 17 29.5t13 28.5l5 12l221 508q11 26 37 26q15 0 24 -13l205 -507q9 -23 17.5 -43.5t15.5 -38.5q4 -10 18 -17.5t30.5 -11.5t25.5 -4q4 0 4 -17q0 -16 -2 -20l-61 4q-29 2 -50 3.5t-34 0.5l-151 -8
q-4 4 -4 21q0 16 4 16q22 0 45 9.5t23 25.5q0 1 -5.5 18t-19.5 49l-30 73q-4 4 -7 4q-10 1 -34 1h-62h-58.5t-42.5 -1q-4 0 -7 -5l-33 -76q-17 -40 -19.5 -58t17.5 -28q18 -9 31.5 -10.5t23.5 -1.5q3 -1 3 -16q0 -13 -2 -21q-45 3 -65.5 5t-30.5 2.5t-21.5 -0.5t-36.5 -2.5
t-77 -4.5zM333 273q20 0 37.5 0.5t33.5 1.5l3 5l-72 179l-78 -179q0 -4 2 -4q30 -3 74 -3zM350 834q-10 6 -10 17q0 28 45 49q36 17 36 42q0 30 -25 30q-33 0 -33 -36q0 -22 -39 -22q-7 0 -14.5 4.5t-7.5 12.5q0 36 31.5 57.5t72.5 21.5q30 0 49.5 -16.5t19.5 -41.5
q0 -53 -51 -74q-30 -13 -35 -21q-1 -2 -1 -6q0 -6 1 -8q0 -2 -14.5 -5.5t-24.5 -3.5zM294 835q13 -17 37.5 -31.5t45.5 -14.5t45.5 14t36.5 30q3 6 6 4q5 -2 14 -13t8 -16q0 -3 -2 -7q-20 -34 -48 -53t-60 -19q-64 0 -108 72q-2 2 -2 7q-1 5 8.5 16t13.5 13q3 2 5 -2z" />
    <glyph glyph-name="uni1EB4" unicode="&#x1eb4;" horiz-adv-x="720" 
d="M15 -4q-4 4 -4 15q0 21 2 21q8 0 24 5t31.5 12.5t19.5 14.5q8 12 17 29.5t13 28.5l5 12l221 508q11 26 37 26q15 0 24 -13l205 -507q9 -23 17.5 -43.5t15.5 -38.5q4 -10 18 -17.5t30.5 -11.5t25.5 -4q4 0 4 -17q0 -16 -2 -20l-61 4q-29 2 -50 3.5t-34 0.5l-151 -8
q-4 4 -4 21q0 16 4 16q22 0 45 9.5t23 25.5q0 1 -5.5 18t-19.5 49l-30 73q-4 4 -7 4q-10 1 -34 1h-62h-58.5t-42.5 -1q-4 0 -7 -5l-33 -76q-17 -40 -19.5 -58t17.5 -28q18 -9 31.5 -10.5t23.5 -1.5q3 -1 3 -16q0 -13 -2 -21q-45 3 -65.5 5t-30.5 2.5t-21.5 -0.5t-36.5 -2.5
t-77 -4.5zM333 273q20 0 37.5 0.5t33.5 1.5l3 5l-72 179l-78 -179q0 -4 2 -4q30 -3 74 -3zM447 861q-31 0 -79 30t-80 30q-14 0 -35 -25q-21 -26 -25 -26q-7 0 -7 20q0 18 16 44q31 46 71 46q31 0 79 -30q47 -31 79 -31q16 0 36 26q19 25 24 25q6 0 6 -20q0 -19 -15 -45
q-29 -44 -70 -44zM294 835q13 -17 37.5 -31.5t45.5 -14.5t45.5 14t36.5 30q3 6 6 4q5 -2 14 -13t8 -16q0 -3 -2 -7q-20 -34 -48 -53t-60 -19q-64 0 -108 72q-2 2 -2 7q-1 5 8.5 16t13.5 13q3 2 5 -2z" />
    <glyph glyph-name="uni01CD" unicode="&#x1cd;" horiz-adv-x="720" 
d="M15 -4q-4 4 -4 15q0 21 2 21q8 0 24 5t31.5 12.5t19.5 14.5q8 12 17 29.5t13 28.5l5 12l221 508q11 26 37 26q15 0 24 -13l205 -507q9 -23 17.5 -43.5t15.5 -38.5q4 -10 18 -17.5t30.5 -11.5t25.5 -4q4 0 4 -17q0 -16 -2 -20l-61 4q-29 2 -50 3.5t-34 0.5l-151 -8
q-4 4 -4 21q0 16 4 16q22 0 45 9.5t23 25.5q0 1 -5.5 18t-19.5 49l-30 73q-4 4 -7 4q-10 1 -34 1h-62h-58.5t-42.5 -1q-4 0 -7 -5l-33 -76q-17 -40 -19.5 -58t17.5 -28q18 -9 31.5 -10.5t23.5 -1.5q3 -1 3 -16q0 -13 -2 -21q-45 3 -65.5 5t-30.5 2.5t-21.5 -0.5t-36.5 -2.5
t-77 -4.5zM333 273q20 0 37.5 0.5t33.5 1.5l3 5l-72 179l-78 -179q0 -4 2 -4q30 -3 74 -3zM375 728q-5 0 -13 9q-9 11 -19.5 22.5t-23.5 24.5q-25 24 -43 40.5t-30 25.5q0 19 10 19q6 0 28 -10.5t48.5 -25t43.5 -26.5q18 12 44 26.5t48.5 25t27.5 10.5q10 0 10 -19
q-12 -9 -31 -26t-45 -44l-40 -43q-9 -9 -15 -9z" />
    <glyph glyph-name="Acircumflex" unicode="&#xc2;" horiz-adv-x="720" 
d="M15 -4q-4 4 -4 15q0 21 2 21q8 0 24 5t31.5 12.5t19.5 14.5q8 12 17 29.5t13 28.5l5 12l221 508q11 26 37 26q15 0 24 -13l205 -507q9 -23 17.5 -43.5t15.5 -38.5q4 -10 18 -17.5t30.5 -11.5t25.5 -4q4 0 4 -17q0 -16 -2 -20l-61 4q-29 2 -50 3.5t-34 0.5l-151 -8
q-4 4 -4 21q0 16 4 16q22 0 45 9.5t23 25.5q0 1 -5.5 18t-19.5 49l-30 73q-4 4 -7 4q-10 1 -34 1h-62h-58.5t-42.5 -1q-4 0 -7 -5l-33 -76q-17 -40 -19.5 -58t17.5 -28q18 -9 31.5 -10.5t23.5 -1.5q3 -1 3 -16q0 -13 -2 -21q-45 3 -65.5 5t-30.5 2.5t-21.5 -0.5t-36.5 -2.5
t-77 -4.5zM333 273q20 0 37.5 0.5t33.5 1.5l3 5l-72 179l-78 -179q0 -4 2 -4q30 -3 74 -3zM257 729q-10 0 -10 19q14 11 32.5 27t40.5 38q11 10 21.5 22t21.5 26q8 9 13 9q6 0 15 -9l15 -17q7 -7 13 -14t12 -13q24 -24 43 -41t33 -28q0 -19 -10 -19q-6 0 -28 10.5t-48 25.5
t-44 26q-17 -11 -43.5 -26t-48.5 -25.5t-28 -10.5z" />
    <glyph glyph-name="uni1EA4" unicode="&#x1ea4;" horiz-adv-x="720" 
d="M15 -4q-4 4 -4 15q0 21 2 21q8 0 24 5t31.5 12.5t19.5 14.5q8 12 17 29.5t13 28.5l5 12l221 508q11 26 37 26q15 0 24 -13l205 -507q9 -23 17.5 -43.5t15.5 -38.5q4 -10 18 -17.5t30.5 -11.5t25.5 -4q4 0 4 -17q0 -16 -2 -20l-61 4q-29 2 -50 3.5t-34 0.5l-151 -8
q-4 4 -4 21q0 16 4 16q22 0 45 9.5t23 25.5q0 1 -5.5 18t-19.5 49l-30 73q-4 4 -7 4q-10 1 -34 1h-62h-58.5t-42.5 -1q-4 0 -7 -5l-33 -76q-17 -40 -19.5 -58t17.5 -28q18 -9 31.5 -10.5t23.5 -1.5q3 -1 3 -16q0 -13 -2 -21q-45 3 -65.5 5t-30.5 2.5t-21.5 -0.5t-36.5 -2.5
t-77 -4.5zM333 273q20 0 37.5 0.5t33.5 1.5l3 5l-72 179l-78 -179q0 -4 2 -4q30 -3 74 -3zM484 841q-5 0 -9.5 7.5t-4.5 12.5q0 3 12.5 16.5t31 32.5t39.5 37.5t37 30.5q7 4 18 4q18 0 37 -9.5t19 -28.5q0 -10 -16 -23t-40.5 -27t-50 -26t-46 -19.5t-27.5 -7.5zM255 729
q-10 0 -10 19q14 11 32.5 27t40.5 38q11 10 21.5 22t21.5 26q8 9 13 9q6 0 15 -9l15 -17q7 -7 13 -14t12 -13q24 -24 43 -41t33 -28q0 -19 -10 -19q-5 0 -27.5 10.5t-48.5 25.5t-44 26q-17 -11 -43.5 -26t-48.5 -25.5t-28 -10.5z" />
    <glyph glyph-name="uni1EAC" unicode="&#x1eac;" horiz-adv-x="720" 
d="M15 -4q-4 4 -4 15q0 21 2 21q8 0 24 5t31.5 12.5t19.5 14.5q8 12 17 29.5t13 28.5l5 12l221 508q11 26 37 26q15 0 24 -13l205 -507q9 -23 17.5 -43.5t15.5 -38.5q4 -10 18 -17.5t30.5 -11.5t25.5 -4q4 0 4 -17q0 -16 -2 -20l-61 4q-29 2 -50 3.5t-34 0.5l-151 -8
q-4 4 -4 21q0 16 4 16q22 0 45 9.5t23 25.5q0 1 -5.5 18t-19.5 49l-30 73q-4 4 -7 4q-10 1 -34 1h-62h-58.5t-42.5 -1q-4 0 -7 -5l-33 -76q-17 -40 -19.5 -58t17.5 -28q18 -9 31.5 -10.5t23.5 -1.5q3 -1 3 -16q0 -13 -2 -21q-45 3 -65.5 5t-30.5 2.5t-21.5 -0.5t-36.5 -2.5
t-77 -4.5zM333 273q20 0 37.5 0.5t33.5 1.5l3 5l-72 179l-78 -179q0 -4 2 -4q30 -3 74 -3zM360 -200q-31 0 -53 21.5t-22 52.5q0 32 22 53.5t53 21.5t52.5 -21.5t21.5 -53.5q0 -31 -21.5 -52.5t-52.5 -21.5zM257 729q-10 0 -10 19q14 11 32.5 27t40.5 38q11 10 21.5 22
t21.5 26q8 9 13 9q6 0 15 -9l15 -17q7 -7 13 -14t12 -13q24 -24 43 -41t33 -28q0 -19 -10 -19q-6 0 -28 10.5t-48 25.5t-44 26q-17 -11 -43.5 -26t-48.5 -25.5t-28 -10.5z" />
    <glyph glyph-name="uni1EA6" unicode="&#x1ea6;" horiz-adv-x="720" 
d="M15 -4q-4 4 -4 15q0 21 2 21q8 0 24 5t31.5 12.5t19.5 14.5q8 12 17 29.5t13 28.5l5 12l221 508q11 26 37 26q15 0 24 -13l205 -507q9 -23 17.5 -43.5t15.5 -38.5q4 -10 18 -17.5t30.5 -11.5t25.5 -4q4 0 4 -17q0 -16 -2 -20l-61 4q-29 2 -50 3.5t-34 0.5l-151 -8
q-4 4 -4 21q0 16 4 16q22 0 45 9.5t23 25.5q0 1 -5.5 18t-19.5 49l-30 73q-4 4 -7 4q-10 1 -34 1h-62h-58.5t-42.5 -1q-4 0 -7 -5l-33 -76q-17 -40 -19.5 -58t17.5 -28q18 -9 31.5 -10.5t23.5 -1.5q3 -1 3 -16q0 -13 -2 -21q-45 3 -65.5 5t-30.5 2.5t-21.5 -0.5t-36.5 -2.5
t-77 -4.5zM333 273q20 0 37.5 0.5t33.5 1.5l3 5l-72 179l-78 -179q0 -4 2 -4q30 -3 74 -3zM570 819q-5 0 -22.5 7.5t-40 20t-44 27t-35.5 28t-14 23.5q0 9 16.5 17.5t29.5 8.5t21 -2.5t13 -6.5q29 -18 49.5 -41t32 -41t11.5 -23t-6 -11.5t-11 -6.5zM259 729q-10 0 -10 19
q14 11 32.5 27t40.5 38q11 10 21.5 22t21.5 26q8 9 13 9q6 0 15 -9l15 -17q7 -7 13 -14t12 -13q24 -24 43 -41t33 -28q0 -19 -10 -19q-6 0 -28 10.5t-48 25.5t-44 26q-17 -11 -43.5 -26t-48.5 -25.5t-28 -10.5z" />
    <glyph glyph-name="uni1EA8" unicode="&#x1ea8;" horiz-adv-x="720" 
d="M15 -4q-4 4 -4 15q0 21 2 21q8 0 24 5t31.5 12.5t19.5 14.5q8 12 17 29.5t13 28.5l5 12l221 508q11 26 37 26q15 0 24 -13l205 -507q9 -23 17.5 -43.5t15.5 -38.5q4 -10 18 -17.5t30.5 -11.5t25.5 -4q4 0 4 -17q0 -16 -2 -20l-61 4q-29 2 -50 3.5t-34 0.5l-151 -8
q-4 4 -4 21q0 16 4 16q22 0 45 9.5t23 25.5q0 1 -5.5 18t-19.5 49l-30 73q-4 4 -7 4q-10 1 -34 1h-62h-58.5t-42.5 -1q-4 0 -7 -5l-33 -76q-17 -40 -19.5 -58t17.5 -28q18 -9 31.5 -10.5t23.5 -1.5q3 -1 3 -16q0 -13 -2 -21q-45 3 -65.5 5t-30.5 2.5t-21.5 -0.5t-36.5 -2.5
t-77 -4.5zM333 273q20 0 37.5 0.5t33.5 1.5l3 5l-72 179l-78 -179q0 -4 2 -4q30 -3 74 -3zM257 729q-10 0 -10 19q14 11 32.5 27t40.5 38q11 10 21.5 22t21.5 26q8 9 13 9q6 0 15 -9l15 -17q7 -7 13 -14t12 -13q24 -24 43 -41t33 -28q0 -19 -10 -19q-6 0 -28 10.5t-48 25.5
t-44 26q-17 -11 -43.5 -26t-48.5 -25.5t-28 -10.5zM484 819q-10 6 -10 17q0 28 45 49q36 17 36 42q0 30 -25 30q-33 0 -33 -36q0 -22 -39 -22q-7 0 -14.5 4.5t-7.5 12.5q0 36 31.5 57.5t72.5 21.5q30 0 49.5 -16.5t19.5 -41.5q0 -53 -51 -74q-30 -13 -35 -21q-1 -2 -1 -6
q0 -6 1 -8q0 -2 -14.5 -5.5t-24.5 -3.5z" />
    <glyph glyph-name="uni1EAA" unicode="&#x1eaa;" horiz-adv-x="720" 
d="M15 -4q-4 4 -4 15q0 21 2 21q8 0 24 5t31.5 12.5t19.5 14.5q8 12 17 29.5t13 28.5l5 12l221 508q11 26 37 26q15 0 24 -13l205 -507q9 -23 17.5 -43.5t15.5 -38.5q4 -10 18 -17.5t30.5 -11.5t25.5 -4q4 0 4 -17q0 -16 -2 -20l-61 4q-29 2 -50 3.5t-34 0.5l-151 -8
q-4 4 -4 21q0 16 4 16q22 0 45 9.5t23 25.5q0 1 -5.5 18t-19.5 49l-30 73q-4 4 -7 4q-10 1 -34 1h-62h-58.5t-42.5 -1q-4 0 -7 -5l-33 -76q-17 -40 -19.5 -58t17.5 -28q18 -9 31.5 -10.5t23.5 -1.5q3 -1 3 -16q0 -13 -2 -21q-45 3 -65.5 5t-30.5 2.5t-21.5 -0.5t-36.5 -2.5
t-77 -4.5zM333 273q20 0 37.5 0.5t33.5 1.5l3 5l-72 179l-78 -179q0 -4 2 -4q30 -3 74 -3zM257 729q-10 0 -10 19q14 11 32.5 27t40.5 38q11 10 21.5 22t21.5 26q8 9 13 9q6 0 15 -9l15 -17q7 -7 13 -14t12 -13q24 -24 43 -41t33 -28q0 -19 -10 -19q-6 0 -28 10.5t-48 25.5
t-44 26q-17 -11 -43.5 -26t-48.5 -25.5t-28 -10.5zM465 885q-38 0 -96 34t-96 34q-19 0 -44 -28q-26 -29 -30 -29q-8 0 -8 22q0 25 18 50q38 51 88 51q38 0 96 -34t96 -34q19 0 43 29q24 28 29 28q8 0 8 -22q0 -25 -18 -51q-35 -50 -86 -50z" />
    <glyph glyph-name="Adieresis" unicode="&#xc4;" horiz-adv-x="720" 
d="M15 -4q-4 4 -4 15q0 21 2 21q8 0 24 5t31.5 12.5t19.5 14.5q8 12 17 29.5t13 28.5l5 12l221 508q11 26 37 26q15 0 24 -13l205 -507q9 -23 17.5 -43.5t15.5 -38.5q4 -10 18 -17.5t30.5 -11.5t25.5 -4q4 0 4 -17q0 -16 -2 -20l-61 4q-29 2 -50 3.5t-34 0.5l-151 -8
q-4 4 -4 21q0 16 4 16q22 0 45 9.5t23 25.5q0 1 -5.5 18t-19.5 49l-30 73q-4 4 -7 4q-10 1 -34 1h-62h-58.5t-42.5 -1q-4 0 -7 -5l-33 -76q-17 -40 -19.5 -58t17.5 -28q18 -9 31.5 -10.5t23.5 -1.5q3 -1 3 -16q0 -13 -2 -21q-45 3 -65.5 5t-30.5 2.5t-21.5 -0.5t-36.5 -2.5
t-77 -4.5zM333 273q20 0 37.5 0.5t33.5 1.5l3 5l-72 179l-78 -179q0 -4 2 -4q30 -3 74 -3zM477 726q-30 0 -52 22t-22 53t22 52t52 21q31 0 52.5 -22t21.5 -51q0 -31 -22.5 -53t-51.5 -22zM279 726q-30 0 -52.5 22t-22.5 53q0 29 22 51t53 22q29 0 51 -21t22 -52t-22 -53
t-51 -22z" />
    <glyph glyph-name="uni1EA0" unicode="&#x1ea0;" horiz-adv-x="720" 
d="M15 -4q-4 4 -4 15q0 21 2 21q8 0 24 5t31.5 12.5t19.5 14.5q8 12 17 29.5t13 28.5l5 12l221 508q11 26 37 26q15 0 24 -13l205 -507q9 -23 17.5 -43.5t15.5 -38.5q4 -10 18 -17.5t30.5 -11.5t25.5 -4q4 0 4 -17q0 -16 -2 -20l-61 4q-29 2 -50 3.5t-34 0.5l-151 -8
q-4 4 -4 21q0 16 4 16q22 0 45 9.5t23 25.5q0 1 -5.5 18t-19.5 49l-30 73q-4 4 -7 4q-10 1 -34 1h-62h-58.5t-42.5 -1q-4 0 -7 -5l-33 -76q-17 -40 -19.5 -58t17.5 -28q18 -9 31.5 -10.5t23.5 -1.5q3 -1 3 -16q0 -13 -2 -21q-45 3 -65.5 5t-30.5 2.5t-21.5 -0.5t-36.5 -2.5
t-77 -4.5zM333 273q20 0 37.5 0.5t33.5 1.5l3 5l-72 179l-78 -179q0 -4 2 -4q30 -3 74 -3zM360 -200q-31 0 -53 21.5t-22 52.5q0 32 22 53.5t53 21.5t52.5 -21.5t21.5 -53.5q0 -31 -21.5 -52.5t-52.5 -21.5z" />
    <glyph glyph-name="Agrave" unicode="&#xc0;" horiz-adv-x="720" 
d="M15 -4q-4 4 -4 15q0 21 2 21q8 0 24 5t31.5 12.5t19.5 14.5q8 12 17 29.5t13 28.5l5 12l221 508q11 26 37 26q15 0 24 -13l205 -507q9 -23 17.5 -43.5t15.5 -38.5q4 -10 18 -17.5t30.5 -11.5t25.5 -4q4 0 4 -17q0 -16 -2 -20l-61 4q-29 2 -50 3.5t-34 0.5l-151 -8
q-4 4 -4 21q0 16 4 16q22 0 45 9.5t23 25.5q0 1 -5.5 18t-19.5 49l-30 73q-4 4 -7 4q-10 1 -34 1h-62h-58.5t-42.5 -1q-4 0 -7 -5l-33 -76q-17 -40 -19.5 -58t17.5 -28q18 -9 31.5 -10.5t23.5 -1.5q3 -1 3 -16q0 -13 -2 -21q-45 3 -65.5 5t-30.5 2.5t-21.5 -0.5t-36.5 -2.5
t-77 -4.5zM333 273q20 0 37.5 0.5t33.5 1.5l3 5l-72 179l-78 -179q0 -4 2 -4q30 -3 74 -3zM411 728q-7 0 -27.5 7.5t-46 19.5t-50 26t-40.5 27t-16 23q0 19 19 28.5t37 9.5q11 0 18 -4q17 -12 37.5 -30.5t39 -37.5t31 -32.5t12.5 -16.5q0 -5 -4.5 -12.5t-9.5 -7.5z" />
    <glyph glyph-name="uni1EA2" unicode="&#x1ea2;" horiz-adv-x="720" 
d="M15 -4q-4 4 -4 15q0 21 2 21q8 0 24 5t31.5 12.5t19.5 14.5q8 12 17 29.5t13 28.5l5 12l221 508q11 26 37 26q15 0 24 -13l205 -507q9 -23 17.5 -43.5t15.5 -38.5q4 -10 18 -17.5t30.5 -11.5t25.5 -4q4 0 4 -17q0 -16 -2 -20l-61 4q-29 2 -50 3.5t-34 0.5l-151 -8
q-4 4 -4 21q0 16 4 16q22 0 45 9.5t23 25.5q0 1 -5.5 18t-19.5 49l-30 73q-4 4 -7 4q-10 1 -34 1h-62h-58.5t-42.5 -1q-4 0 -7 -5l-33 -76q-17 -40 -19.5 -58t17.5 -28q18 -9 31.5 -10.5t23.5 -1.5q3 -1 3 -16q0 -13 -2 -21q-45 3 -65.5 5t-30.5 2.5t-21.5 -0.5t-36.5 -2.5
t-77 -4.5zM333 273q20 0 37.5 0.5t33.5 1.5l3 5l-72 179l-78 -179q0 -4 2 -4q30 -3 74 -3zM361 725q-10 6 -10 17q0 28 45 49q36 17 36 42q0 30 -25 30q-33 0 -33 -36q0 -22 -39 -22q-7 0 -14.5 4.5t-7.5 12.5q0 36 31.5 57.5t72.5 21.5q30 0 49.5 -16.5t19.5 -41.5
q0 -53 -51 -74q-30 -13 -35 -21q-1 -2 -1 -6q0 -6 1 -8q0 -2 -14.5 -5.5t-24.5 -3.5z" />
    <glyph glyph-name="Amacron" unicode="&#x100;" horiz-adv-x="720" 
d="M15 -4q-4 4 -4 15q0 21 2 21q8 0 24 5t31.5 12.5t19.5 14.5q8 12 17 29.5t13 28.5l5 12l221 508q11 26 37 26q15 0 24 -13l205 -507q9 -23 17.5 -43.5t15.5 -38.5q4 -10 18 -17.5t30.5 -11.5t25.5 -4q4 0 4 -17q0 -16 -2 -20l-61 4q-29 2 -50 3.5t-34 0.5l-151 -8
q-4 4 -4 21q0 16 4 16q22 0 45 9.5t23 25.5q0 1 -5.5 18t-19.5 49l-30 73q-4 4 -7 4q-10 1 -34 1h-62h-58.5t-42.5 -1q-4 0 -7 -5l-33 -76q-17 -40 -19.5 -58t17.5 -28q18 -9 31.5 -10.5t23.5 -1.5q3 -1 3 -16q0 -13 -2 -21q-45 3 -65.5 5t-30.5 2.5t-21.5 -0.5t-36.5 -2.5
t-77 -4.5zM333 273q20 0 37.5 0.5t33.5 1.5l3 5l-72 179l-78 -179q0 -4 2 -4q30 -3 74 -3zM238 735l-5 2q-1 2 -1 9q3 58 15 58h287q6 0 6 -10q-1 -11 -1.5 -20t-2.5 -16q-5 -15 -7 -19l-3 -4h-288z" />
    <glyph glyph-name="Aogonek" unicode="&#x104;" horiz-adv-x="720" 
d="M15 -4q-4 4 -4 15q0 21 2 21q8 0 24 5t31.5 12.5t19.5 14.5q8 12 17 29.5t13 28.5l5 12l221 508q11 26 37 26q15 0 24 -13l205 -507q9 -23 17.5 -43.5t15.5 -38.5q4 -10 18 -17.5t30.5 -11.5t25.5 -4q4 0 4 -17q0 -16 -2 -20l-61 4q-29 2 -50 3.5t-34 0.5l-151 -8
q-4 4 -4 21q0 16 4 16q22 0 45 9.5t23 25.5q0 1 -5.5 18t-19.5 49l-30 73q-4 4 -7 4q-10 1 -34 1h-62h-58.5t-42.5 -1q-4 0 -7 -5l-33 -76q-17 -40 -19.5 -58t17.5 -28q18 -9 31.5 -10.5t23.5 -1.5q3 -1 3 -16q0 -13 -2 -21q-45 3 -65.5 5t-30.5 2.5t-21.5 -0.5t-36.5 -2.5
t-77 -4.5zM333 273q20 0 37.5 0.5t33.5 1.5l3 5l-72 179l-78 -179q0 -4 2 -4q30 -3 74 -3zM529 -213q-29 0 -55 21t-26 57q0 27 20 56.5t51 53.5t62 33l42 -3q-91 -55 -91 -110q0 -15 12 -23.5t29 -8.5q19 0 43.5 11.5t36.5 21.5q5 0 5 -18q0 -14 -6 -22q-11 -14 -31 -30.5
t-43.5 -27.5t-48.5 -11z" />
    <glyph glyph-name="Aring" unicode="&#xc5;" horiz-adv-x="720" 
d="M15 -4q-4 4 -4 15q0 21 2 21q8 0 24 5t31.5 12.5t19.5 14.5q8 12 17 29.5t13 28.5l5 12l221 508q11 26 37 26q15 0 24 -13l205 -507q9 -23 17.5 -43.5t15.5 -38.5q4 -10 18 -17.5t30.5 -11.5t25.5 -4q4 0 4 -17q0 -16 -2 -20l-61 4q-29 2 -50 3.5t-34 0.5l-151 -8
q-4 4 -4 21q0 16 4 16q22 0 45 9.5t23 25.5q0 1 -5.5 18t-19.5 49l-30 73q-4 4 -7 4q-10 1 -34 1h-62h-58.5t-42.5 -1q-4 0 -7 -5l-33 -76q-17 -40 -19.5 -58t17.5 -28q18 -9 31.5 -10.5t23.5 -1.5q3 -1 3 -16q0 -13 -2 -21q-45 3 -65.5 5t-30.5 2.5t-21.5 -0.5t-36.5 -2.5
t-77 -4.5zM333 273q20 0 37.5 0.5t33.5 1.5l3 5l-72 179l-78 -179q0 -4 2 -4q30 -3 74 -3zM375 660q-41 0 -70 29t-29 70q0 40 29 69t70 29t69.5 -28.5t28.5 -69.5t-29 -70t-69 -29zM375 705q22 0 37.5 15.5t15.5 38.5q0 25 -17 39.5t-37 14.5q-22 0 -37 -15.5t-15 -37.5
q0 -21 14.5 -38t38.5 -17z" />
    <glyph glyph-name="uni1E00" unicode="&#x1e00;" horiz-adv-x="720" 
d="M15 -4q-4 4 -4 15q0 21 2 21q8 0 24 5t31.5 12.5t19.5 14.5q8 12 17 29.5t13 28.5l5 12l221 508q11 26 37 26q15 0 24 -13l205 -507q9 -23 17.5 -43.5t15.5 -38.5q4 -10 18 -17.5t30.5 -11.5t25.5 -4q4 0 4 -17q0 -16 -2 -20l-61 4q-29 2 -50 3.5t-34 0.5l-151 -8
q-4 4 -4 21q0 16 4 16q22 0 45 9.5t23 25.5q0 1 -5.5 18t-19.5 49l-30 73q-4 4 -7 4q-10 1 -34 1h-62h-58.5t-42.5 -1q-4 0 -7 -5l-33 -76q-17 -40 -19.5 -58t17.5 -28q18 -9 31.5 -10.5t23.5 -1.5q3 -1 3 -16q0 -13 -2 -21q-45 3 -65.5 5t-30.5 2.5t-21.5 -0.5t-36.5 -2.5
t-77 -4.5zM333 273q20 0 37.5 0.5t33.5 1.5l3 5l-72 179l-78 -179q0 -4 2 -4q30 -3 74 -3zM369 -261q-41 0 -70 29t-29 70t29 69.5t70 28.5t69.5 -28.5t28.5 -69.5t-28.5 -70t-69.5 -29zM370 -216q23 0 37.5 16t14.5 38q0 23 -14.5 38.5t-37.5 15.5q-22 0 -38 -15.5
t-16 -38.5q0 -22 16 -38t38 -16z" />
    <glyph glyph-name="Atilde" unicode="&#xc3;" horiz-adv-x="720" 
d="M15 -4q-4 4 -4 15q0 21 2 21q8 0 24 5t31.5 12.5t19.5 14.5q8 12 17 29.5t13 28.5l5 12l221 508q11 26 37 26q15 0 24 -13l205 -507q9 -23 17.5 -43.5t15.5 -38.5q4 -10 18 -17.5t30.5 -11.5t25.5 -4q4 0 4 -17q0 -16 -2 -20l-61 4q-29 2 -50 3.5t-34 0.5l-151 -8
q-4 4 -4 21q0 16 4 16q22 0 45 9.5t23 25.5q0 1 -5.5 18t-19.5 49l-30 73q-4 4 -7 4q-10 1 -34 1h-62h-58.5t-42.5 -1q-4 0 -7 -5l-33 -76q-17 -40 -19.5 -58t17.5 -28q18 -9 31.5 -10.5t23.5 -1.5q3 -1 3 -16q0 -13 -2 -21q-45 3 -65.5 5t-30.5 2.5t-21.5 -0.5t-36.5 -2.5
t-77 -4.5zM333 273q20 0 37.5 0.5t33.5 1.5l3 5l-72 179l-78 -179q0 -4 2 -4q30 -3 74 -3zM459 728q-38 0 -96 34t-96 34q-19 0 -44 -28q-26 -29 -30 -29q-8 0 -8 22q0 25 18 50q38 51 88 51q38 0 96 -34t96 -34q19 0 43 29q24 28 29 28q8 0 8 -22q0 -25 -18 -51
q-35 -50 -86 -50z" />
    <glyph glyph-name="AE" unicode="&#xc6;" horiz-adv-x="931" 
d="M12 -4q-2 2 -2 12q0 5 2.5 15t3.5 10q8 0 27.5 5.5t38.5 14t24 16.5l41 63l282 452q4 5 4 14q0 11 -19 20t-30 9q-4 0 -4 17t3 20q35 -4 69.5 -6t68.5 -2q23 0 62 1t94 3q56 2 97.5 3t69.5 1q1 -5 8 -42t21 -106q-5 -5 -23 -5q-11 0 -14 7q-12 26 -35.5 46.5t-51 33
t-53.5 12.5h-38q-64 0 -65 -13q-2 -12 -3.5 -31.5t-1.5 -46.5v-154q0 -6 43 -6h53q63 0 68 4q5 5 8 29q2 16 6 29q1 7 15 7q17 0 22 -5v-189q-4 -4 -21 -4q-13 0 -16 8q-12 39 -16 48q-4 7 -5.5 6.5t-6.5 3.5q-14 8 -78 8q-72 0 -72 -9v-154q0 -47 8 -71q4 -16 68 -16h26
q62 0 112 26q17 9 38.5 34t33.5 56q2 6 14 6q24 0 30 -6q-50 -138 -54 -172q-28 0 -72.5 0.5t-105.5 1.5t-101.5 2t-62.5 0l-140 -6q-4 4 -4 17q0 20 4 20q8 0 21.5 4t25 9.5t13.5 9.5q6 23 6 79v65q0 10 -9 10q-13 1 -30 1h-39h-51.5t-40.5 -1q-6 0 -8 -5l-47 -76
q-14 -23 -22.5 -38.5t-10.5 -23.5q-3 -16 10 -23q25 -11 60 -11q3 0 0 -15.5t-6 -21.5l-52 5q-37 3 -63 3t-68 -3q-21 -2 -36 -3t-23 -2zM383 271q12 0 29 1t27 1q9 0 9 9v193q0 5 -3 5q-4 0 -7 -5l-122 -197q0 -4 2 -4q30 -3 65 -3z" />
    <glyph glyph-name="AEacute" unicode="&#x1fc;" horiz-adv-x="931" 
d="M12 -4q-2 2 -2 12q0 5 2.5 15t3.5 10q8 0 27.5 5.5t38.5 14t24 16.5l41 63l282 452q4 5 4 14q0 11 -19 20t-30 9q-4 0 -4 17t3 20q35 -4 69.5 -6t68.5 -2q23 0 62 1t94 3q56 2 97.5 3t69.5 1q1 -5 8 -42t21 -106q-5 -5 -23 -5q-11 0 -14 7q-12 26 -35.5 46.5t-51 33
t-53.5 12.5h-38q-64 0 -65 -13q-2 -12 -3.5 -31.5t-1.5 -46.5v-154q0 -6 43 -6h53q63 0 68 4q5 5 8 29q2 16 6 29q1 7 15 7q17 0 22 -5v-189q-4 -4 -21 -4q-13 0 -16 8q-12 39 -16 48q-4 7 -5.5 6.5t-6.5 3.5q-14 8 -78 8q-72 0 -72 -9v-154q0 -47 8 -71q4 -16 68 -16h26
q62 0 112 26q17 9 38.5 34t33.5 56q2 6 14 6q24 0 30 -6q-50 -138 -54 -172q-28 0 -72.5 0.5t-105.5 1.5t-101.5 2t-62.5 0l-140 -6q-4 4 -4 17q0 20 4 20q8 0 21.5 4t25 9.5t13.5 9.5q6 23 6 79v65q0 10 -9 10q-13 1 -30 1h-39h-51.5t-40.5 -1q-6 0 -8 -5l-47 -76
q-14 -23 -22.5 -38.5t-10.5 -23.5q-3 -16 10 -23q25 -11 60 -11q3 0 0 -15.5t-6 -21.5l-52 5q-37 3 -63 3t-68 -3q-21 -2 -36 -3t-23 -2zM383 271q12 0 29 1t27 1q9 0 9 9v193q0 5 -3 5q-4 0 -7 -5l-122 -197q0 -4 2 -4q30 -3 65 -3zM581 729q-5 0 -9.5 7.5t-4.5 12.5
q0 3 12.5 16.5t31 32.5t39.5 37.5t37 30.5q7 4 18 4q18 0 37 -9.5t19 -28.5q0 -10 -16 -23t-40.5 -27t-50 -26t-46 -19.5t-27.5 -7.5z" />
    <glyph glyph-name="uni01E2" unicode="&#x1e2;" horiz-adv-x="931" 
d="M12 -4q-2 2 -2 12q0 5 2.5 15t3.5 10q8 0 27.5 5.5t38.5 14t24 16.5l41 63l282 452q4 5 4 14q0 11 -19 20t-30 9q-4 0 -4 17t3 20q35 -4 69.5 -6t68.5 -2q23 0 62 1t94 3q56 2 97.5 3t69.5 1q1 -5 8 -42t21 -106q-5 -5 -23 -5q-11 0 -14 7q-12 26 -35.5 46.5t-51 33
t-53.5 12.5h-38q-64 0 -65 -13q-2 -12 -3.5 -31.5t-1.5 -46.5v-154q0 -6 43 -6h53q63 0 68 4q5 5 8 29q2 16 6 29q1 7 15 7q17 0 22 -5v-189q-4 -4 -21 -4q-13 0 -16 8q-12 39 -16 48q-4 7 -5.5 6.5t-6.5 3.5q-14 8 -78 8q-72 0 -72 -9v-154q0 -47 8 -71q4 -16 68 -16h26
q62 0 112 26q17 9 38.5 34t33.5 56q2 6 14 6q24 0 30 -6q-50 -138 -54 -172q-28 0 -72.5 0.5t-105.5 1.5t-101.5 2t-62.5 0l-140 -6q-4 4 -4 17q0 20 4 20q8 0 21.5 4t25 9.5t13.5 9.5q6 23 6 79v65q0 10 -9 10q-13 1 -30 1h-39h-51.5t-40.5 -1q-6 0 -8 -5l-47 -76
q-14 -23 -22.5 -38.5t-10.5 -23.5q-3 -16 10 -23q25 -11 60 -11q3 0 0 -15.5t-6 -21.5l-52 5q-37 3 -63 3t-68 -3q-21 -2 -36 -3t-23 -2zM383 271q12 0 29 1t27 1q9 0 9 9v193q0 5 -3 5q-4 0 -7 -5l-122 -197q0 -4 2 -4q30 -3 65 -3zM487 735l-5 2q-1 2 -1 9q3 58 15 58h287
q6 0 6 -10q-1 -11 -1.5 -20t-2.5 -16q-5 -15 -7 -19l-3 -4h-288z" />
    <glyph glyph-name="B" unicode="B" horiz-adv-x="605" 
d="M31 -4q-4 4 -4 17q0 20 4 20q8 0 23 3t28 8.5t15 10.5q6 23 6 88v378q0 56 -6 78q-2 6 -15.5 12.5t-28.5 11t-23 4.5q-4 0 -4 18q0 16 3 19q40 -2 76.5 -3.5t70.5 -1.5l151 2q37 0 75 -9.5t74 -29.5q35 -20 57 -56t22 -83q0 -34 -14.5 -61t-33.5 -44.5t-35 -23.5
q-8 -3 -5 -6q24 -4 49.5 -25t43.5 -55.5t18 -80.5q0 -57 -32 -100t-89 -65.5t-133 -21.5l-147 2q-30 0 -66.5 -1.5t-58.5 -2.5zM295 371q39 0 57 9q16 8 23 15q8 7 17.5 29.5t9.5 57.5q0 124 -92 124q-46 0 -58 -4q-9 -1 -9 -12v-205q0 -14 52 -14zM325 55q103 0 103 121
q0 139 -123 139q-31 0 -51 -5q-11 -5 -11 -9v-225q0 -10 7 -14q10 -7 75 -7z" />
    <glyph glyph-name="uni1E02" unicode="&#x1e02;" horiz-adv-x="605" 
d="M31 -4q-4 4 -4 17q0 20 4 20q8 0 23 3t28 8.5t15 10.5q6 23 6 88v378q0 56 -6 78q-2 6 -15.5 12.5t-28.5 11t-23 4.5q-4 0 -4 18q0 16 3 19q40 -2 76.5 -3.5t70.5 -1.5l151 2q37 0 75 -9.5t74 -29.5q35 -20 57 -56t22 -83q0 -34 -14.5 -61t-33.5 -44.5t-35 -23.5
q-8 -3 -5 -6q24 -4 49.5 -25t43.5 -55.5t18 -80.5q0 -57 -32 -100t-89 -65.5t-133 -21.5l-147 2q-30 0 -66.5 -1.5t-58.5 -2.5zM295 371q39 0 57 9q16 8 23 15q8 7 17.5 29.5t9.5 57.5q0 124 -92 124q-46 0 -58 -4q-9 -1 -9 -12v-205q0 -14 52 -14zM325 55q103 0 103 121
q0 139 -123 139q-31 0 -51 -5q-11 -5 -11 -9v-225q0 -10 7 -14q10 -7 75 -7zM303 768q-31 0 -52.5 21.5t-21.5 52.5t21.5 52.5t52.5 21.5t52.5 -21.5t21.5 -52.5t-21.5 -52.5t-52.5 -21.5z" />
    <glyph glyph-name="uni1E04" unicode="&#x1e04;" horiz-adv-x="605" 
d="M31 -4q-4 4 -4 17q0 20 4 20q8 0 23 3t28 8.5t15 10.5q6 23 6 88v378q0 56 -6 78q-2 6 -15.5 12.5t-28.5 11t-23 4.5q-4 0 -4 18q0 16 3 19q40 -2 76.5 -3.5t70.5 -1.5l151 2q37 0 75 -9.5t74 -29.5q35 -20 57 -56t22 -83q0 -34 -14.5 -61t-33.5 -44.5t-35 -23.5
q-8 -3 -5 -6q24 -4 49.5 -25t43.5 -55.5t18 -80.5q0 -57 -32 -100t-89 -65.5t-133 -21.5l-147 2q-30 0 -66.5 -1.5t-58.5 -2.5zM295 371q39 0 57 9q16 8 23 15q8 7 17.5 29.5t9.5 57.5q0 124 -92 124q-46 0 -58 -4q-9 -1 -9 -12v-205q0 -14 52 -14zM325 55q103 0 103 121
q0 139 -123 139q-31 0 -51 -5q-11 -5 -11 -9v-225q0 -10 7 -14q10 -7 75 -7zM303 -200q-31 0 -53 21.5t-22 52.5q0 32 22 53.5t53 21.5t52.5 -21.5t21.5 -53.5q0 -31 -21.5 -52.5t-52.5 -21.5z" />
    <glyph glyph-name="Bmacronbelow" unicode="&#x1e06;" horiz-adv-x="605" 
d="M31 -4q-4 4 -4 17q0 20 4 20q8 0 23 3t28 8.5t15 10.5q6 23 6 88v378q0 56 -6 78q-2 6 -15.5 12.5t-28.5 11t-23 4.5q-4 0 -4 18q0 16 3 19q40 -2 76.5 -3.5t70.5 -1.5l151 2q37 0 75 -9.5t74 -29.5q35 -20 57 -56t22 -83q0 -34 -14.5 -61t-33.5 -44.5t-35 -23.5
q-8 -3 -5 -6q24 -4 49.5 -25t43.5 -55.5t18 -80.5q0 -57 -32 -100t-89 -65.5t-133 -21.5l-147 2q-30 0 -66.5 -1.5t-58.5 -2.5zM295 371q39 0 57 9q16 8 23 15q8 7 17.5 29.5t9.5 57.5q0 124 -92 124q-46 0 -58 -4q-9 -1 -9 -12v-205q0 -14 52 -14zM325 55q103 0 103 121
q0 139 -123 139q-31 0 -51 -5q-11 -5 -11 -9v-225q0 -10 7 -14q10 -7 75 -7zM150 -133l-5 2q-1 2 -1 9q3 58 15 58h287q6 0 6 -10q-1 -11 -1.5 -20t-2.5 -16q-5 -15 -7 -19l-3 -4h-288z" />
    <glyph glyph-name="C" unicode="C" horiz-adv-x="638" 
d="M345 -7q-66 0 -124 26t-102 71.5t-69 105t-25 126.5q0 71 25 133.5t69.5 110t105 74.5t130.5 27q55 0 112 -7.5t117 -21.5q6 -2 13 -67q4 -37 6.5 -58t-2.5 -29.5t-24 -8.5l-16 3q-5 18 -16 38t-34 43q-22 23 -62 37.5t-89 14.5q-179 0 -179 -268q0 -83 24.5 -150.5
t72 -106.5t114.5 -39q74 0 128 54q16 16 24.5 36.5t13 36.5t8.5 16q41 0 45 -10q0 -7 -4.5 -29.5t-11 -49t-13.5 -46t-12 -21.5q-114 -41 -225 -41z" />
    <glyph glyph-name="Cacute" unicode="&#x106;" horiz-adv-x="638" 
d="M345 -7q-66 0 -124 26t-102 71.5t-69 105t-25 126.5q0 71 25 133.5t69.5 110t105 74.5t130.5 27q55 0 112 -7.5t117 -21.5q6 -2 13 -67q4 -37 6.5 -58t-2.5 -29.5t-24 -8.5l-16 3q-5 18 -16 38t-34 43q-22 23 -62 37.5t-89 14.5q-179 0 -179 -268q0 -83 24.5 -150.5
t72 -106.5t114.5 -39q74 0 128 54q16 16 24.5 36.5t13 36.5t8.5 16q41 0 45 -10q0 -7 -4.5 -29.5t-11 -49t-13.5 -46t-12 -21.5q-114 -41 -225 -41zM330 729q-5 0 -9.5 7.5t-4.5 12.5q0 3 12.5 16.5t31 32.5t39.5 37.5t37 30.5q7 4 18 4q18 0 37 -9.5t19 -28.5
q0 -10 -16 -23t-40.5 -27t-50 -26t-46 -19.5t-27.5 -7.5z" />
    <glyph glyph-name="Ccaron" unicode="&#x10c;" horiz-adv-x="638" 
d="M345 -7q-66 0 -124 26t-102 71.5t-69 105t-25 126.5q0 71 25 133.5t69.5 110t105 74.5t130.5 27q55 0 112 -7.5t117 -21.5q6 -2 13 -67q4 -37 6.5 -58t-2.5 -29.5t-24 -8.5l-16 3q-5 18 -16 38t-34 43q-22 23 -62 37.5t-89 14.5q-179 0 -179 -268q0 -83 24.5 -150.5
t72 -106.5t114.5 -39q74 0 128 54q16 16 24.5 36.5t13 36.5t8.5 16q41 0 45 -10q0 -7 -4.5 -29.5t-11 -49t-13.5 -46t-12 -21.5q-114 -41 -225 -41zM373 728q-5 0 -13 9q-9 11 -19.5 22.5t-23.5 24.5q-25 24 -43 40.5t-30 25.5q0 19 10 19q6 0 28 -10.5t48.5 -25t43.5 -26.5
q18 12 44 26.5t48.5 25t27.5 10.5q10 0 10 -19q-12 -9 -31 -26t-45 -44l-40 -43q-9 -9 -15 -9z" />
    <glyph glyph-name="Ccedilla" unicode="&#xc7;" horiz-adv-x="638" 
d="M345 -7q-66 0 -124 26t-102 71.5t-69 105t-25 126.5q0 71 25 133.5t69.5 110t105 74.5t130.5 27q55 0 112 -7.5t117 -21.5q6 -2 13 -67q4 -37 6.5 -58t-2.5 -29.5t-24 -8.5l-16 3q-5 18 -16 38t-34 43q-22 23 -62 37.5t-89 14.5q-179 0 -179 -268q0 -83 24.5 -150.5
t72 -106.5t114.5 -39q74 0 128 54q16 16 24.5 36.5t13 36.5t8.5 16q41 0 45 -10q0 -7 -4.5 -29.5t-11 -49t-13.5 -46t-12 -21.5q-114 -41 -225 -41zM320 -184q-38 0 -57 19q-1 4 -1.5 9t-0.5 11q0 16 8 16l22 -9q22 -8 37 -8q23 0 34.5 10t11.5 24q0 33 -29 33q-20 0 -35 -7
q-2 0 -9.5 8t-6.5 11l19 35q6 13 9.5 20.5t4.5 9.5h37l-16 -31l22 1q25 1 44.5 -18t19.5 -42q0 -42 -30.5 -67t-83.5 -25z" />
    <glyph glyph-name="uni1E08" unicode="&#x1e08;" horiz-adv-x="638" 
d="M345 -7q-66 0 -124 26t-102 71.5t-69 105t-25 126.5q0 71 25 133.5t69.5 110t105 74.5t130.5 27q55 0 112 -7.5t117 -21.5q6 -2 13 -67q4 -37 6.5 -58t-2.5 -29.5t-24 -8.5l-16 3q-5 18 -16 38t-34 43q-22 23 -62 37.5t-89 14.5q-179 0 -179 -268q0 -83 24.5 -150.5
t72 -106.5t114.5 -39q74 0 128 54q16 16 24.5 36.5t13 36.5t8.5 16q41 0 45 -10q0 -7 -4.5 -29.5t-11 -49t-13.5 -46t-12 -21.5q-114 -41 -225 -41zM330 729q-5 0 -9.5 7.5t-4.5 12.5q0 3 12.5 16.5t31 32.5t39.5 37.5t37 30.5q7 4 18 4q18 0 37 -9.5t19 -28.5
q0 -10 -16 -23t-40.5 -27t-50 -26t-46 -19.5t-27.5 -7.5zM320 -184q-38 0 -57 19q-1 4 -1.5 9t-0.5 11q0 16 8 16l22 -9q22 -8 37 -8q23 0 34.5 10t11.5 24q0 33 -29 33q-20 0 -35 -7q-2 0 -9.5 8t-6.5 11l19 35q6 13 9.5 20.5t4.5 9.5h37l-16 -31l22 1q25 1 44.5 -18
t19.5 -42q0 -42 -30.5 -67t-83.5 -25z" />
    <glyph glyph-name="Ccircumflex" unicode="&#x108;" horiz-adv-x="638" 
d="M345 -7q-66 0 -124 26t-102 71.5t-69 105t-25 126.5q0 71 25 133.5t69.5 110t105 74.5t130.5 27q55 0 112 -7.5t117 -21.5q6 -2 13 -67q4 -37 6.5 -58t-2.5 -29.5t-24 -8.5l-16 3q-5 18 -16 38t-34 43q-22 23 -62 37.5t-89 14.5q-179 0 -179 -268q0 -83 24.5 -150.5
t72 -106.5t114.5 -39q74 0 128 54q16 16 24.5 36.5t13 36.5t8.5 16q41 0 45 -10q0 -7 -4.5 -29.5t-11 -49t-13.5 -46t-12 -21.5q-114 -41 -225 -41zM255 729q-10 0 -10 19q14 11 32.5 27t40.5 38q11 10 21.5 22t21.5 26q8 9 13 9q6 0 15 -9l15 -17q7 -7 13 -14t12 -13
q24 -24 43 -41t33 -28q0 -19 -10 -19q-6 0 -28 10.5t-48 25.5t-44 26q-17 -11 -43.5 -26t-48.5 -25.5t-28 -10.5z" />
    <glyph glyph-name="Cdotaccent" unicode="&#x10a;" horiz-adv-x="638" 
d="M345 -7q-66 0 -124 26t-102 71.5t-69 105t-25 126.5q0 71 25 133.5t69.5 110t105 74.5t130.5 27q55 0 112 -7.5t117 -21.5q6 -2 13 -67q4 -37 6.5 -58t-2.5 -29.5t-24 -8.5l-16 3q-5 18 -16 38t-34 43q-22 23 -62 37.5t-89 14.5q-179 0 -179 -268q0 -83 24.5 -150.5
t72 -106.5t114.5 -39q74 0 128 54q16 16 24.5 36.5t13 36.5t8.5 16q41 0 45 -10q0 -7 -4.5 -29.5t-11 -49t-13.5 -46t-12 -21.5q-114 -41 -225 -41zM375 768q-31 0 -52.5 21.5t-21.5 52.5t21.5 52.5t52.5 21.5t52.5 -21.5t21.5 -52.5t-21.5 -52.5t-52.5 -21.5z" />
    <glyph glyph-name="D" unicode="D" horiz-adv-x="724" 
d="M31 -4q-4 4 -4 17q0 20 4 20q8 0 23 3t28 8.5t15 10.5q6 23 6 88v378q0 56 -6 78q-2 6 -15.5 12.5t-28.5 11t-23 4.5q-4 0 -4 18q0 16 3 19q40 -2 76.5 -3.5t70.5 -1.5h174q81 0 145.5 -26t109.5 -71t68.5 -103t23.5 -123q0 -96 -42 -172.5t-120 -121.5t-186 -45
q-10 0 -29.5 0.5t-48.5 1.5q-29 2 -53 3t-41 0zM365 53q84 0 130 72t46 215q0 74 -22 133.5t-62.5 94.5t-98.5 35h-5q-85 0 -97 -16q-13 -17 -13 -63v-388q0 -65 9 -70q22 -13 113 -13z" />
    <glyph glyph-name="Eth" unicode="&#xd0;" horiz-adv-x="706" 
d="M16 -4q-4 4 -4 17q0 20 4 20q8 0 23 3t28 8.5t15 10.5q6 23 6 88v164h-51q-5 0 -5 15q0 22 6 31h50v168q0 56 -6 78q-2 6 -15.5 12.5t-28.5 11t-23 4.5q-4 0 -4 18q0 16 3 19q41 -2 77.5 -3.5t69.5 -1.5h174q110 0 191 -48q80 -48 117 -120t37 -155q0 -96 -41.5 -173
t-119 -121.5t-185.5 -44.5q-10 0 -29 0.5t-48 1.5q-58 3 -95 3zM350 53q85 0 131.5 72t46.5 215q0 74 -22.5 133.5t-63.5 94.5t-99 35h-5q-85 0 -97 -16q-13 -17 -13 -63v-171h155q6 0 6 -14q0 -18 -6 -32h-155v-171q0 -65 9 -70q22 -13 113 -13z" />
    <glyph glyph-name="Dcaron" unicode="&#x10e;" horiz-adv-x="724" 
d="M31 -4q-4 4 -4 17q0 20 4 20q8 0 23 3t28 8.5t15 10.5q6 23 6 88v378q0 56 -6 78q-2 6 -15.5 12.5t-28.5 11t-23 4.5q-4 0 -4 18q0 16 3 19q40 -2 76.5 -3.5t70.5 -1.5h174q81 0 145.5 -26t109.5 -71t68.5 -103t23.5 -123q0 -96 -42 -172.5t-120 -121.5t-186 -45
q-10 0 -29.5 0.5t-48.5 1.5q-29 2 -53 3t-41 0zM365 53q84 0 130 72t46 215q0 74 -22 133.5t-62.5 94.5t-98.5 35h-5q-85 0 -97 -16q-13 -17 -13 -63v-388q0 -65 9 -70q22 -13 113 -13zM330 728q-5 0 -13 9q-9 11 -19.5 22.5t-23.5 24.5q-25 24 -43 40.5t-30 25.5
q0 19 10 19q6 0 28 -10.5t48.5 -25t43.5 -26.5q18 12 44 26.5t48.5 25t27.5 10.5q10 0 10 -19q-12 -9 -31 -26t-45 -44l-40 -43q-9 -9 -15 -9z" />
    <glyph glyph-name="uni1E10" unicode="&#x1e10;" horiz-adv-x="724" 
d="M31 -4q-4 4 -4 17q0 20 4 20q8 0 23 3t28 8.5t15 10.5q6 23 6 88v378q0 56 -6 78q-2 6 -15.5 12.5t-28.5 11t-23 4.5q-4 0 -4 18q0 16 3 19q40 -2 76.5 -3.5t70.5 -1.5h174q81 0 145.5 -26t109.5 -71t68.5 -103t23.5 -123q0 -96 -42 -172.5t-120 -121.5t-186 -45
q-10 0 -29.5 0.5t-48.5 1.5q-29 2 -53 3t-41 0zM365 53q84 0 130 72t46 215q0 74 -22 133.5t-62.5 94.5t-98.5 35h-5q-85 0 -97 -16q-13 -17 -13 -63v-388q0 -65 9 -70q22 -13 113 -13zM329 -218q-5 0 -15.5 6t-10.5 10q13 9 27 20.5t14 25.5q0 18 -22 31q-23 14 -23 32
q0 25 31.5 37.5t71.5 12.5q22 -19 22 -62q0 -37 -29 -68t-63 -45h-3z" />
    <glyph glyph-name="uni1E12" unicode="&#x1e12;" horiz-adv-x="724" 
d="M31 -4q-4 4 -4 17q0 20 4 20q8 0 23 3t28 8.5t15 10.5q6 23 6 88v378q0 56 -6 78q-2 6 -15.5 12.5t-28.5 11t-23 4.5q-4 0 -4 18q0 16 3 19q40 -2 76.5 -3.5t70.5 -1.5h174q81 0 145.5 -26t109.5 -71t68.5 -103t23.5 -123q0 -96 -42 -172.5t-120 -121.5t-186 -45
q-10 0 -29.5 0.5t-48.5 1.5q-29 2 -53 3t-41 0zM365 53q84 0 130 72t46 215q0 74 -22 133.5t-62.5 94.5t-98.5 35h-5q-85 0 -97 -16q-13 -17 -13 -63v-388q0 -65 9 -70q22 -13 113 -13zM208 -201q-10 0 -10 19q14 11 32.5 27t40.5 38q11 10 21.5 22t21.5 26q8 9 13 9
q6 0 15 -9l15 -17q7 -7 13 -14t12 -13q24 -24 43 -41t33 -28q0 -19 -10 -19q-6 0 -28 10.5t-48 25.5t-44 26q-17 -11 -43.5 -26t-48.5 -25.5t-28 -10.5z" />
    <glyph glyph-name="Dcroat" unicode="&#x110;" horiz-adv-x="706" 
d="M16 -4q-4 4 -4 17q0 20 4 20q8 0 23 3t28 8.5t15 10.5q6 23 6 88v164h-51q-5 0 -5 15q0 22 6 31h50v168q0 56 -6 78q-2 6 -15.5 12.5t-28.5 11t-23 4.5q-4 0 -4 18q0 16 3 19q41 -2 77.5 -3.5t69.5 -1.5h174q110 0 191 -48q80 -48 117 -120t37 -155q0 -96 -41.5 -173
t-119 -121.5t-185.5 -44.5q-10 0 -29 0.5t-48 1.5q-58 3 -95 3zM350 53q85 0 131.5 72t46.5 215q0 74 -22.5 133.5t-63.5 94.5t-99 35h-5q-85 0 -97 -16q-13 -17 -13 -63v-171h155q6 0 6 -14q0 -18 -6 -32h-155v-171q0 -65 9 -70q22 -13 113 -13z" />
    <glyph glyph-name="uni1E0A" unicode="&#x1e0a;" horiz-adv-x="724" 
d="M31 -4q-4 4 -4 17q0 20 4 20q8 0 23 3t28 8.5t15 10.5q6 23 6 88v378q0 56 -6 78q-2 6 -15.5 12.5t-28.5 11t-23 4.5q-4 0 -4 18q0 16 3 19q40 -2 76.5 -3.5t70.5 -1.5h174q81 0 145.5 -26t109.5 -71t68.5 -103t23.5 -123q0 -96 -42 -172.5t-120 -121.5t-186 -45
q-10 0 -29.5 0.5t-48.5 1.5q-29 2 -53 3t-41 0zM365 53q84 0 130 72t46 215q0 74 -22 133.5t-62.5 94.5t-98.5 35h-5q-85 0 -97 -16q-13 -17 -13 -63v-388q0 -65 9 -70q22 -13 113 -13zM332 768q-31 0 -52.5 21.5t-21.5 52.5t21.5 52.5t52.5 21.5t52.5 -21.5t21.5 -52.5
t-21.5 -52.5t-52.5 -21.5z" />
    <glyph glyph-name="uni1E0C" unicode="&#x1e0c;" horiz-adv-x="724" 
d="M31 -4q-4 4 -4 17q0 20 4 20q8 0 23 3t28 8.5t15 10.5q6 23 6 88v378q0 56 -6 78q-2 6 -15.5 12.5t-28.5 11t-23 4.5q-4 0 -4 18q0 16 3 19q40 -2 76.5 -3.5t70.5 -1.5h174q81 0 145.5 -26t109.5 -71t68.5 -103t23.5 -123q0 -96 -42 -172.5t-120 -121.5t-186 -45
q-10 0 -29.5 0.5t-48.5 1.5q-29 2 -53 3t-41 0zM365 53q84 0 130 72t46 215q0 74 -22 133.5t-62.5 94.5t-98.5 35h-5q-85 0 -97 -16q-13 -17 -13 -63v-388q0 -65 9 -70q22 -13 113 -13zM362 -200q-31 0 -53 21.5t-22 52.5q0 32 22 53.5t53 21.5t52.5 -21.5t21.5 -53.5
q0 -31 -21.5 -52.5t-52.5 -21.5z" />
    <glyph glyph-name="Dmacronbelow" unicode="&#x1e0e;" horiz-adv-x="724" 
d="M31 -4q-4 4 -4 17q0 20 4 20q8 0 23 3t28 8.5t15 10.5q6 23 6 88v378q0 56 -6 78q-2 6 -15.5 12.5t-28.5 11t-23 4.5q-4 0 -4 18q0 16 3 19q40 -2 76.5 -3.5t70.5 -1.5h174q81 0 145.5 -26t109.5 -71t68.5 -103t23.5 -123q0 -96 -42 -172.5t-120 -121.5t-186 -45
q-10 0 -29.5 0.5t-48.5 1.5q-29 2 -53 3t-41 0zM365 53q84 0 130 72t46 215q0 74 -22 133.5t-62.5 94.5t-98.5 35h-5q-85 0 -97 -16q-13 -17 -13 -63v-388q0 -65 9 -70q22 -13 113 -13zM190 -133l-5 2q-1 2 -1 9q3 58 15 58h287q6 0 6 -10q-1 -11 -1.5 -20t-2.5 -16
q-5 -15 -7 -19l-3 -4h-288z" />
    <glyph glyph-name="Dtail" unicode="&#x189;" horiz-adv-x="706" 
d="M16 -4q-4 4 -4 17q0 20 4 20q8 0 23 3t28 8.5t15 10.5q6 23 6 88v164h-51q-5 0 -5 15q0 22 6 31h50v168q0 56 -6 78q-2 6 -15.5 12.5t-28.5 11t-23 4.5q-4 0 -4 18q0 16 3 19q41 -2 77.5 -3.5t69.5 -1.5h174q110 0 191 -48q80 -48 117 -120t37 -155q0 -96 -41.5 -173
t-119 -121.5t-185.5 -44.5q-10 0 -29 0.5t-48 1.5q-58 3 -95 3zM350 53q85 0 131.5 72t46.5 215q0 74 -22.5 133.5t-63.5 94.5t-99 35h-5q-85 0 -97 -16q-13 -17 -13 -63v-171h155q6 0 6 -14q0 -18 -6 -32h-155v-171q0 -65 9 -70q22 -13 113 -13z" />
    <glyph glyph-name="Dtail" unicode="&#x256;" horiz-adv-x="706" 
d="M16 -4q-4 4 -4 17q0 20 4 20q8 0 23 3t28 8.5t15 10.5q6 23 6 88v164h-51q-5 0 -5 15q0 22 6 31h50v168q0 56 -6 78q-2 6 -15.5 12.5t-28.5 11t-23 4.5q-4 0 -4 18q0 16 3 19q41 -2 77.5 -3.5t69.5 -1.5h174q110 0 191 -48q80 -48 117 -120t37 -155q0 -96 -41.5 -173
t-119 -121.5t-185.5 -44.5q-10 0 -29 0.5t-48 1.5q-58 3 -95 3zM350 53q85 0 131.5 72t46.5 215q0 74 -22.5 133.5t-63.5 94.5t-99 35h-5q-85 0 -97 -16q-13 -17 -13 -63v-171h155q6 0 6 -14q0 -18 -6 -32h-155v-171q0 -65 9 -70q22 -13 113 -13z" />
    <glyph glyph-name="Dtail" unicode="&#x256;" horiz-adv-x="706" 
d="M16 -4q-4 4 -4 17q0 20 4 20q8 0 23 3t28 8.5t15 10.5q6 23 6 88v164h-51q-5 0 -5 15q0 22 6 31h50v168q0 56 -6 78q-2 6 -15.5 12.5t-28.5 11t-23 4.5q-4 0 -4 18q0 16 3 19q41 -2 77.5 -3.5t69.5 -1.5h174q110 0 191 -48q80 -48 117 -120t37 -155q0 -96 -41.5 -173
t-119 -121.5t-185.5 -44.5q-10 0 -29 0.5t-48 1.5q-58 3 -95 3zM350 53q85 0 131.5 72t46.5 215q0 74 -22.5 133.5t-63.5 94.5t-99 35h-5q-85 0 -97 -16q-13 -17 -13 -63v-171h155q6 0 6 -14q0 -18 -6 -32h-155v-171q0 -65 9 -70q22 -13 113 -13z" />
    <glyph glyph-name="E" unicode="E" horiz-adv-x="598" 
d="M31 -4q-4 4 -4 17q0 20 4 20q8 0 23 3t28 8.5t15 10.5q6 23 6 88v378q0 56 -6 78q-2 6 -15.5 12.5t-28.5 11t-23 4.5q-4 0 -4 18q0 16 3 19q40 -2 76.5 -3.5t70.5 -1.5q44 0 155 3q56 1 98 1.5t70 0.5q1 -5 8 -42t21 -106q-5 -5 -23 -5q-11 0 -14 7q-12 26 -35.5 46.5
t-51 33t-53.5 12.5h-38q-64 0 -65 -13q-2 -12 -3.5 -31.5t-1.5 -46.5v-154q0 -6 43 -6h53q63 0 68 4q5 5 8 29q2 16 6 29q1 7 15 7q17 0 22 -5v-189q-4 -4 -21 -4q-13 0 -16 8q-12 39 -16 48q-4 7 -5.5 6.5t-6.5 3.5q-14 8 -78 8q-72 0 -72 -9v-154q0 -47 8 -71
q4 -16 68 -16h26q62 0 112 26q17 9 38.5 34t33.5 56q2 6 14 6q24 0 30 -6q-50 -138 -54 -172q-25 0 -65.5 0.5t-96.5 1.5q-55 1 -100 2.5t-80 -0.5z" />
    <glyph glyph-name="Eacute" unicode="&#xc9;" horiz-adv-x="598" 
d="M31 -4q-4 4 -4 17q0 20 4 20q8 0 23 3t28 8.5t15 10.5q6 23 6 88v378q0 56 -6 78q-2 6 -15.5 12.5t-28.5 11t-23 4.5q-4 0 -4 18q0 16 3 19q40 -2 76.5 -3.5t70.5 -1.5q44 0 155 3q56 1 98 1.5t70 0.5q1 -5 8 -42t21 -106q-5 -5 -23 -5q-11 0 -14 7q-12 26 -35.5 46.5
t-51 33t-53.5 12.5h-38q-64 0 -65 -13q-2 -12 -3.5 -31.5t-1.5 -46.5v-154q0 -6 43 -6h53q63 0 68 4q5 5 8 29q2 16 6 29q1 7 15 7q17 0 22 -5v-189q-4 -4 -21 -4q-13 0 -16 8q-12 39 -16 48q-4 7 -5.5 6.5t-6.5 3.5q-14 8 -78 8q-72 0 -72 -9v-154q0 -47 8 -71
q4 -16 68 -16h26q62 0 112 26q17 9 38.5 34t33.5 56q2 6 14 6q24 0 30 -6q-50 -138 -54 -172q-25 0 -65.5 0.5t-96.5 1.5q-55 1 -100 2.5t-80 -0.5zM237 729q-5 0 -9.5 7.5t-4.5 12.5q0 3 12.5 16.5t31 32.5t39.5 37.5t37 30.5q7 4 18 4q18 0 37 -9.5t19 -28.5
q0 -10 -16 -23t-40.5 -27t-50 -26t-46 -19.5t-27.5 -7.5z" />
    <glyph glyph-name="Ebreve" unicode="&#x114;" horiz-adv-x="598" 
d="M31 -4q-4 4 -4 17q0 20 4 20q8 0 23 3t28 8.5t15 10.5q6 23 6 88v378q0 56 -6 78q-2 6 -15.5 12.5t-28.5 11t-23 4.5q-4 0 -4 18q0 16 3 19q40 -2 76.5 -3.5t70.5 -1.5q44 0 155 3q56 1 98 1.5t70 0.5q1 -5 8 -42t21 -106q-5 -5 -23 -5q-11 0 -14 7q-12 26 -35.5 46.5
t-51 33t-53.5 12.5h-38q-64 0 -65 -13q-2 -12 -3.5 -31.5t-1.5 -46.5v-154q0 -6 43 -6h53q63 0 68 4q5 5 8 29q2 16 6 29q1 7 15 7q17 0 22 -5v-189q-4 -4 -21 -4q-13 0 -16 8q-12 39 -16 48q-4 7 -5.5 6.5t-6.5 3.5q-14 8 -78 8q-72 0 -72 -9v-154q0 -47 8 -71
q4 -16 68 -16h26q62 0 112 26q17 9 38.5 34t33.5 56q2 6 14 6q24 0 30 -6q-50 -138 -54 -172q-25 0 -65.5 0.5t-96.5 1.5q-55 1 -100 2.5t-80 -0.5zM282 728q-32 0 -59 18t-46 49q-5 8 -5 13t9 15.5t14 12.5q2 2 4 -2q13 -17 37.5 -31.5t45.5 -14.5t45.5 14.5t37.5 31.5
q2 4 4 2q5 -2 14 -12.5t9 -15.5t-5 -13q-19 -31 -46 -49t-59 -18z" />
    <glyph glyph-name="Ecaron" unicode="&#x11a;" horiz-adv-x="598" 
d="M31 -4q-4 4 -4 17q0 20 4 20q8 0 23 3t28 8.5t15 10.5q6 23 6 88v378q0 56 -6 78q-2 6 -15.5 12.5t-28.5 11t-23 4.5q-4 0 -4 18q0 16 3 19q40 -2 76.5 -3.5t70.5 -1.5q44 0 155 3q56 1 98 1.5t70 0.5q1 -5 8 -42t21 -106q-5 -5 -23 -5q-11 0 -14 7q-12 26 -35.5 46.5
t-51 33t-53.5 12.5h-38q-64 0 -65 -13q-2 -12 -3.5 -31.5t-1.5 -46.5v-154q0 -6 43 -6h53q63 0 68 4q5 5 8 29q2 16 6 29q1 7 15 7q17 0 22 -5v-189q-4 -4 -21 -4q-13 0 -16 8q-12 39 -16 48q-4 7 -5.5 6.5t-6.5 3.5q-14 8 -78 8q-72 0 -72 -9v-154q0 -47 8 -71
q4 -16 68 -16h26q62 0 112 26q17 9 38.5 34t33.5 56q2 6 14 6q24 0 30 -6q-50 -138 -54 -172q-25 0 -65.5 0.5t-96.5 1.5q-55 1 -100 2.5t-80 -0.5zM280 728q-5 0 -13 9q-9 11 -19.5 22.5t-23.5 24.5q-25 24 -43 40.5t-30 25.5q0 19 10 19q6 0 28 -10.5t48.5 -25t43.5 -26.5
q18 12 44 26.5t48.5 25t27.5 10.5q10 0 10 -19q-12 -9 -31 -26t-45 -44l-40 -43q-9 -9 -15 -9z" />
    <glyph glyph-name="Ecircumflex" unicode="&#xca;" horiz-adv-x="598" 
d="M31 -4q-4 4 -4 17q0 20 4 20q8 0 23 3t28 8.5t15 10.5q6 23 6 88v378q0 56 -6 78q-2 6 -15.5 12.5t-28.5 11t-23 4.5q-4 0 -4 18q0 16 3 19q40 -2 76.5 -3.5t70.5 -1.5q44 0 155 3q56 1 98 1.5t70 0.5q1 -5 8 -42t21 -106q-5 -5 -23 -5q-11 0 -14 7q-12 26 -35.5 46.5
t-51 33t-53.5 12.5h-38q-64 0 -65 -13q-2 -12 -3.5 -31.5t-1.5 -46.5v-154q0 -6 43 -6h53q63 0 68 4q5 5 8 29q2 16 6 29q1 7 15 7q17 0 22 -5v-189q-4 -4 -21 -4q-13 0 -16 8q-12 39 -16 48q-4 7 -5.5 6.5t-6.5 3.5q-14 8 -78 8q-72 0 -72 -9v-154q0 -47 8 -71
q4 -16 68 -16h26q62 0 112 26q17 9 38.5 34t33.5 56q2 6 14 6q24 0 30 -6q-50 -138 -54 -172q-25 0 -65.5 0.5t-96.5 1.5q-55 1 -100 2.5t-80 -0.5zM162 729q-10 0 -10 19q14 11 32.5 27t40.5 38q11 10 21.5 22t21.5 26q8 9 13 9q6 0 15 -9l15 -17q7 -7 13 -14t12 -13
q24 -24 43 -41t33 -28q0 -19 -10 -19q-6 0 -28 10.5t-48 25.5t-44 26q-17 -11 -43.5 -26t-48.5 -25.5t-28 -10.5z" />
    <glyph glyph-name="uni1EBE" unicode="&#x1ebe;" horiz-adv-x="598" 
d="M31 -4q-4 4 -4 17q0 20 4 20q8 0 23 3t28 8.5t15 10.5q6 23 6 88v378q0 56 -6 78q-2 6 -15.5 12.5t-28.5 11t-23 4.5q-4 0 -4 18q0 16 3 19q40 -2 76.5 -3.5t70.5 -1.5q44 0 155 3q56 1 98 1.5t70 0.5q1 -5 8 -42t21 -106q-5 -5 -23 -5q-11 0 -14 7q-12 26 -35.5 46.5
t-51 33t-53.5 12.5h-38q-64 0 -65 -13q-2 -12 -3.5 -31.5t-1.5 -46.5v-154q0 -6 43 -6h53q63 0 68 4q5 5 8 29q2 16 6 29q1 7 15 7q17 0 22 -5v-189q-4 -4 -21 -4q-13 0 -16 8q-12 39 -16 48q-4 7 -5.5 6.5t-6.5 3.5q-14 8 -78 8q-72 0 -72 -9v-154q0 -47 8 -71
q4 -16 68 -16h26q62 0 112 26q17 9 38.5 34t33.5 56q2 6 14 6q24 0 30 -6q-50 -138 -54 -172q-25 0 -65.5 0.5t-96.5 1.5q-55 1 -100 2.5t-80 -0.5zM389 841q-5 0 -9.5 7.5t-4.5 12.5q0 3 12.5 16.5t31 32.5t39.5 37.5t37 30.5q7 4 18 4q18 0 37 -9.5t19 -28.5
q0 -10 -16 -23t-40.5 -27t-50 -26t-46 -19.5t-27.5 -7.5zM160 729q-10 0 -10 19q14 11 32.5 27t40.5 38q11 10 21.5 22t21.5 26q8 9 13 9q6 0 15 -9l15 -17q7 -7 13 -14t12 -13q24 -24 43 -41t33 -28q0 -19 -10 -19q-5 0 -27.5 10.5t-48.5 25.5t-44 26q-17 -11 -43.5 -26
t-48.5 -25.5t-28 -10.5z" />
    <glyph glyph-name="uni1E18" unicode="&#x1e18;" horiz-adv-x="598" 
d="M31 -4q-4 4 -4 17q0 20 4 20q8 0 23 3t28 8.5t15 10.5q6 23 6 88v378q0 56 -6 78q-2 6 -15.5 12.5t-28.5 11t-23 4.5q-4 0 -4 18q0 16 3 19q40 -2 76.5 -3.5t70.5 -1.5q44 0 155 3q56 1 98 1.5t70 0.5q1 -5 8 -42t21 -106q-5 -5 -23 -5q-11 0 -14 7q-12 26 -35.5 46.5
t-51 33t-53.5 12.5h-38q-64 0 -65 -13q-2 -12 -3.5 -31.5t-1.5 -46.5v-154q0 -6 43 -6h53q63 0 68 4q5 5 8 29q2 16 6 29q1 7 15 7q17 0 22 -5v-189q-4 -4 -21 -4q-13 0 -16 8q-12 39 -16 48q-4 7 -5.5 6.5t-6.5 3.5q-14 8 -78 8q-72 0 -72 -9v-154q0 -47 8 -71
q4 -16 68 -16h26q62 0 112 26q17 9 38.5 34t33.5 56q2 6 14 6q24 0 30 -6q-50 -138 -54 -172q-25 0 -65.5 0.5t-96.5 1.5q-55 1 -100 2.5t-80 -0.5zM146 -201q-10 0 -10 19q14 11 32.5 27t40.5 38q11 10 21.5 22t21.5 26q8 9 13 9q6 0 15 -9l15 -17q7 -7 13 -14t12 -13
q24 -24 43 -41t33 -28q0 -19 -10 -19q-6 0 -28 10.5t-48 25.5t-44 26q-17 -11 -43.5 -26t-48.5 -25.5t-28 -10.5z" />
    <glyph glyph-name="uni1EC6" unicode="&#x1ec6;" horiz-adv-x="598" 
d="M31 -4q-4 4 -4 17q0 20 4 20q8 0 23 3t28 8.5t15 10.5q6 23 6 88v378q0 56 -6 78q-2 6 -15.5 12.5t-28.5 11t-23 4.5q-4 0 -4 18q0 16 3 19q40 -2 76.5 -3.5t70.5 -1.5q44 0 155 3q56 1 98 1.5t70 0.5q1 -5 8 -42t21 -106q-5 -5 -23 -5q-11 0 -14 7q-12 26 -35.5 46.5
t-51 33t-53.5 12.5h-38q-64 0 -65 -13q-2 -12 -3.5 -31.5t-1.5 -46.5v-154q0 -6 43 -6h53q63 0 68 4q5 5 8 29q2 16 6 29q1 7 15 7q17 0 22 -5v-189q-4 -4 -21 -4q-13 0 -16 8q-12 39 -16 48q-4 7 -5.5 6.5t-6.5 3.5q-14 8 -78 8q-72 0 -72 -9v-154q0 -47 8 -71
q4 -16 68 -16h26q62 0 112 26q17 9 38.5 34t33.5 56q2 6 14 6q24 0 30 -6q-50 -138 -54 -172q-25 0 -65.5 0.5t-96.5 1.5q-55 1 -100 2.5t-80 -0.5zM299 -200q-31 0 -53 21.5t-22 52.5q0 32 22 53.5t53 21.5t52.5 -21.5t21.5 -53.5q0 -31 -21.5 -52.5t-52.5 -21.5zM162 729
q-10 0 -10 19q14 11 32.5 27t40.5 38q11 10 21.5 22t21.5 26q8 9 13 9q6 0 15 -9l15 -17q7 -7 13 -14t12 -13q24 -24 43 -41t33 -28q0 -19 -10 -19q-6 0 -28 10.5t-48 25.5t-44 26q-17 -11 -43.5 -26t-48.5 -25.5t-28 -10.5z" />
    <glyph glyph-name="uni1EC0" unicode="&#x1ec0;" horiz-adv-x="598" 
d="M31 -4q-4 4 -4 17q0 20 4 20q8 0 23 3t28 8.5t15 10.5q6 23 6 88v378q0 56 -6 78q-2 6 -15.5 12.5t-28.5 11t-23 4.5q-4 0 -4 18q0 16 3 19q40 -2 76.5 -3.5t70.5 -1.5q44 0 155 3q56 1 98 1.5t70 0.5q1 -5 8 -42t21 -106q-5 -5 -23 -5q-11 0 -14 7q-12 26 -35.5 46.5
t-51 33t-53.5 12.5h-38q-64 0 -65 -13q-2 -12 -3.5 -31.5t-1.5 -46.5v-154q0 -6 43 -6h53q63 0 68 4q5 5 8 29q2 16 6 29q1 7 15 7q17 0 22 -5v-189q-4 -4 -21 -4q-13 0 -16 8q-12 39 -16 48q-4 7 -5.5 6.5t-6.5 3.5q-14 8 -78 8q-72 0 -72 -9v-154q0 -47 8 -71
q4 -16 68 -16h26q62 0 112 26q17 9 38.5 34t33.5 56q2 6 14 6q24 0 30 -6q-50 -138 -54 -172q-25 0 -65.5 0.5t-96.5 1.5q-55 1 -100 2.5t-80 -0.5zM475 819q-5 0 -22.5 7.5t-40 20t-44 27t-35.5 28t-14 23.5q0 9 16.5 17.5t29.5 8.5t21 -2.5t13 -6.5q29 -18 49.5 -41
t32 -41t11.5 -23t-6 -11.5t-11 -6.5zM164 729q-10 0 -10 19q14 11 32.5 27t40.5 38q11 10 21.5 22t21.5 26q8 9 13 9q6 0 15 -9l15 -17q7 -7 13 -14t12 -13q24 -24 43 -41t33 -28q0 -19 -10 -19q-6 0 -28 10.5t-48 25.5t-44 26q-17 -11 -43.5 -26t-48.5 -25.5t-28 -10.5z
" />
    <glyph glyph-name="uni1EC2" unicode="&#x1ec2;" horiz-adv-x="598" 
d="M31 -4q-4 4 -4 17q0 20 4 20q8 0 23 3t28 8.5t15 10.5q6 23 6 88v378q0 56 -6 78q-2 6 -15.5 12.5t-28.5 11t-23 4.5q-4 0 -4 18q0 16 3 19q40 -2 76.5 -3.5t70.5 -1.5q44 0 155 3q56 1 98 1.5t70 0.5q1 -5 8 -42t21 -106q-5 -5 -23 -5q-11 0 -14 7q-12 26 -35.5 46.5
t-51 33t-53.5 12.5h-38q-64 0 -65 -13q-2 -12 -3.5 -31.5t-1.5 -46.5v-154q0 -6 43 -6h53q63 0 68 4q5 5 8 29q2 16 6 29q1 7 15 7q17 0 22 -5v-189q-4 -4 -21 -4q-13 0 -16 8q-12 39 -16 48q-4 7 -5.5 6.5t-6.5 3.5q-14 8 -78 8q-72 0 -72 -9v-154q0 -47 8 -71
q4 -16 68 -16h26q62 0 112 26q17 9 38.5 34t33.5 56q2 6 14 6q24 0 30 -6q-50 -138 -54 -172q-25 0 -65.5 0.5t-96.5 1.5q-55 1 -100 2.5t-80 -0.5zM162 729q-10 0 -10 19q14 11 32.5 27t40.5 38q11 10 21.5 22t21.5 26q8 9 13 9q6 0 15 -9l15 -17q7 -7 13 -14t12 -13
q24 -24 43 -41t33 -28q0 -19 -10 -19q-6 0 -28 10.5t-48 25.5t-44 26q-17 -11 -43.5 -26t-48.5 -25.5t-28 -10.5zM389 819q-10 6 -10 17q0 28 45 49q36 17 36 42q0 30 -25 30q-33 0 -33 -36q0 -22 -39 -22q-7 0 -14.5 4.5t-7.5 12.5q0 36 31.5 57.5t72.5 21.5
q30 0 49.5 -16.5t19.5 -41.5q0 -53 -51 -74q-30 -13 -35 -21q-1 -2 -1 -6q0 -6 1 -8q0 -2 -14.5 -5.5t-24.5 -3.5z" />
    <glyph glyph-name="uni1EC4" unicode="&#x1ec4;" horiz-adv-x="598" 
d="M31 -4q-4 4 -4 17q0 20 4 20q8 0 23 3t28 8.5t15 10.5q6 23 6 88v378q0 56 -6 78q-2 6 -15.5 12.5t-28.5 11t-23 4.5q-4 0 -4 18q0 16 3 19q40 -2 76.5 -3.5t70.5 -1.5q44 0 155 3q56 1 98 1.5t70 0.5q1 -5 8 -42t21 -106q-5 -5 -23 -5q-11 0 -14 7q-12 26 -35.5 46.5
t-51 33t-53.5 12.5h-38q-64 0 -65 -13q-2 -12 -3.5 -31.5t-1.5 -46.5v-154q0 -6 43 -6h53q63 0 68 4q5 5 8 29q2 16 6 29q1 7 15 7q17 0 22 -5v-189q-4 -4 -21 -4q-13 0 -16 8q-12 39 -16 48q-4 7 -5.5 6.5t-6.5 3.5q-14 8 -78 8q-72 0 -72 -9v-154q0 -47 8 -71
q4 -16 68 -16h26q62 0 112 26q17 9 38.5 34t33.5 56q2 6 14 6q24 0 30 -6q-50 -138 -54 -172q-25 0 -65.5 0.5t-96.5 1.5q-55 1 -100 2.5t-80 -0.5zM162 729q-10 0 -10 19q14 11 32.5 27t40.5 38q11 10 21.5 22t21.5 26q8 9 13 9q6 0 15 -9l15 -17q7 -7 13 -14t12 -13
q24 -24 43 -41t33 -28q0 -19 -10 -19q-6 0 -28 10.5t-48 25.5t-44 26q-17 -11 -43.5 -26t-48.5 -25.5t-28 -10.5zM379 872q-38 0 -96 34t-96 34q-19 0 -44 -28q-26 -29 -30 -29q-8 0 -8 22q0 25 18 50q38 51 88 51q38 0 96 -34t96 -34q19 0 43 29q24 28 29 28q8 0 8 -22
q0 -25 -18 -51q-35 -50 -86 -50z" />
    <glyph glyph-name="Edieresis" unicode="&#xcb;" horiz-adv-x="598" 
d="M31 -4q-4 4 -4 17q0 20 4 20q8 0 23 3t28 8.5t15 10.5q6 23 6 88v378q0 56 -6 78q-2 6 -15.5 12.5t-28.5 11t-23 4.5q-4 0 -4 18q0 16 3 19q40 -2 76.5 -3.5t70.5 -1.5q44 0 155 3q56 1 98 1.5t70 0.5q1 -5 8 -42t21 -106q-5 -5 -23 -5q-11 0 -14 7q-12 26 -35.5 46.5
t-51 33t-53.5 12.5h-38q-64 0 -65 -13q-2 -12 -3.5 -31.5t-1.5 -46.5v-154q0 -6 43 -6h53q63 0 68 4q5 5 8 29q2 16 6 29q1 7 15 7q17 0 22 -5v-189q-4 -4 -21 -4q-13 0 -16 8q-12 39 -16 48q-4 7 -5.5 6.5t-6.5 3.5q-14 8 -78 8q-72 0 -72 -9v-154q0 -47 8 -71
q4 -16 68 -16h26q62 0 112 26q17 9 38.5 34t33.5 56q2 6 14 6q24 0 30 -6q-50 -138 -54 -172q-25 0 -65.5 0.5t-96.5 1.5q-55 1 -100 2.5t-80 -0.5zM382 726q-30 0 -52 22t-22 53t22 52t52 21q31 0 52.5 -22t21.5 -51q0 -31 -22.5 -53t-51.5 -22zM184 726q-30 0 -52.5 22
t-22.5 53q0 29 22 51t53 22q29 0 51 -21t22 -52t-22 -53t-51 -22z" />
    <glyph glyph-name="Edotaccent" unicode="&#x116;" horiz-adv-x="598" 
d="M31 -4q-4 4 -4 17q0 20 4 20q8 0 23 3t28 8.5t15 10.5q6 23 6 88v378q0 56 -6 78q-2 6 -15.5 12.5t-28.5 11t-23 4.5q-4 0 -4 18q0 16 3 19q40 -2 76.5 -3.5t70.5 -1.5q44 0 155 3q56 1 98 1.5t70 0.5q1 -5 8 -42t21 -106q-5 -5 -23 -5q-11 0 -14 7q-12 26 -35.5 46.5
t-51 33t-53.5 12.5h-38q-64 0 -65 -13q-2 -12 -3.5 -31.5t-1.5 -46.5v-154q0 -6 43 -6h53q63 0 68 4q5 5 8 29q2 16 6 29q1 7 15 7q17 0 22 -5v-189q-4 -4 -21 -4q-13 0 -16 8q-12 39 -16 48q-4 7 -5.5 6.5t-6.5 3.5q-14 8 -78 8q-72 0 -72 -9v-154q0 -47 8 -71
q4 -16 68 -16h26q62 0 112 26q17 9 38.5 34t33.5 56q2 6 14 6q24 0 30 -6q-50 -138 -54 -172q-25 0 -65.5 0.5t-96.5 1.5q-55 1 -100 2.5t-80 -0.5zM282 768q-31 0 -52.5 21.5t-21.5 52.5t21.5 52.5t52.5 21.5t52.5 -21.5t21.5 -52.5t-21.5 -52.5t-52.5 -21.5z" />
    <glyph glyph-name="uni1EB8" unicode="&#x1eb8;" horiz-adv-x="598" 
d="M31 -4q-4 4 -4 17q0 20 4 20q8 0 23 3t28 8.5t15 10.5q6 23 6 88v378q0 56 -6 78q-2 6 -15.5 12.5t-28.5 11t-23 4.5q-4 0 -4 18q0 16 3 19q40 -2 76.5 -3.5t70.5 -1.5q44 0 155 3q56 1 98 1.5t70 0.5q1 -5 8 -42t21 -106q-5 -5 -23 -5q-11 0 -14 7q-12 26 -35.5 46.5
t-51 33t-53.5 12.5h-38q-64 0 -65 -13q-2 -12 -3.5 -31.5t-1.5 -46.5v-154q0 -6 43 -6h53q63 0 68 4q5 5 8 29q2 16 6 29q1 7 15 7q17 0 22 -5v-189q-4 -4 -21 -4q-13 0 -16 8q-12 39 -16 48q-4 7 -5.5 6.5t-6.5 3.5q-14 8 -78 8q-72 0 -72 -9v-154q0 -47 8 -71
q4 -16 68 -16h26q62 0 112 26q17 9 38.5 34t33.5 56q2 6 14 6q24 0 30 -6q-50 -138 -54 -172q-25 0 -65.5 0.5t-96.5 1.5q-55 1 -100 2.5t-80 -0.5zM299 -200q-31 0 -53 21.5t-22 52.5q0 32 22 53.5t53 21.5t52.5 -21.5t21.5 -53.5q0 -31 -21.5 -52.5t-52.5 -21.5z" />
    <glyph glyph-name="Egrave" unicode="&#xc8;" horiz-adv-x="598" 
d="M31 -4q-4 4 -4 17q0 20 4 20q8 0 23 3t28 8.5t15 10.5q6 23 6 88v378q0 56 -6 78q-2 6 -15.5 12.5t-28.5 11t-23 4.5q-4 0 -4 18q0 16 3 19q40 -2 76.5 -3.5t70.5 -1.5q44 0 155 3q56 1 98 1.5t70 0.5q1 -5 8 -42t21 -106q-5 -5 -23 -5q-11 0 -14 7q-12 26 -35.5 46.5
t-51 33t-53.5 12.5h-38q-64 0 -65 -13q-2 -12 -3.5 -31.5t-1.5 -46.5v-154q0 -6 43 -6h53q63 0 68 4q5 5 8 29q2 16 6 29q1 7 15 7q17 0 22 -5v-189q-4 -4 -21 -4q-13 0 -16 8q-12 39 -16 48q-4 7 -5.5 6.5t-6.5 3.5q-14 8 -78 8q-72 0 -72 -9v-154q0 -47 8 -71
q4 -16 68 -16h26q62 0 112 26q17 9 38.5 34t33.5 56q2 6 14 6q24 0 30 -6q-50 -138 -54 -172q-25 0 -65.5 0.5t-96.5 1.5q-55 1 -100 2.5t-80 -0.5zM316 728q-7 0 -27.5 7.5t-46 19.5t-50 26t-40.5 27t-16 23q0 19 19 28.5t37 9.5q11 0 18 -4q17 -12 37.5 -30.5t39 -37.5
t31 -32.5t12.5 -16.5q0 -5 -4.5 -12.5t-9.5 -7.5z" />
    <glyph glyph-name="uni1EBA" unicode="&#x1eba;" horiz-adv-x="598" 
d="M31 -4q-4 4 -4 17q0 20 4 20q8 0 23 3t28 8.5t15 10.5q6 23 6 88v378q0 56 -6 78q-2 6 -15.5 12.5t-28.5 11t-23 4.5q-4 0 -4 18q0 16 3 19q40 -2 76.5 -3.5t70.5 -1.5q44 0 155 3q56 1 98 1.5t70 0.5q1 -5 8 -42t21 -106q-5 -5 -23 -5q-11 0 -14 7q-12 26 -35.5 46.5
t-51 33t-53.5 12.5h-38q-64 0 -65 -13q-2 -12 -3.5 -31.5t-1.5 -46.5v-154q0 -6 43 -6h53q63 0 68 4q5 5 8 29q2 16 6 29q1 7 15 7q17 0 22 -5v-189q-4 -4 -21 -4q-13 0 -16 8q-12 39 -16 48q-4 7 -5.5 6.5t-6.5 3.5q-14 8 -78 8q-72 0 -72 -9v-154q0 -47 8 -71
q4 -16 68 -16h26q62 0 112 26q17 9 38.5 34t33.5 56q2 6 14 6q24 0 30 -6q-50 -138 -54 -172q-25 0 -65.5 0.5t-96.5 1.5q-55 1 -100 2.5t-80 -0.5zM266 725q-10 6 -10 17q0 28 45 49q36 17 36 42q0 30 -25 30q-33 0 -33 -36q0 -22 -39 -22q-7 0 -14.5 4.5t-7.5 12.5
q0 36 31.5 57.5t72.5 21.5q30 0 49.5 -16.5t19.5 -41.5q0 -53 -51 -74q-30 -13 -35 -21q-1 -2 -1 -6q0 -6 1 -8q0 -2 -14.5 -5.5t-24.5 -3.5z" />
    <glyph glyph-name="Emacron" unicode="&#x112;" horiz-adv-x="598" 
d="M31 -4q-4 4 -4 17q0 20 4 20q8 0 23 3t28 8.5t15 10.5q6 23 6 88v378q0 56 -6 78q-2 6 -15.5 12.5t-28.5 11t-23 4.5q-4 0 -4 18q0 16 3 19q40 -2 76.5 -3.5t70.5 -1.5q44 0 155 3q56 1 98 1.5t70 0.5q1 -5 8 -42t21 -106q-5 -5 -23 -5q-11 0 -14 7q-12 26 -35.5 46.5
t-51 33t-53.5 12.5h-38q-64 0 -65 -13q-2 -12 -3.5 -31.5t-1.5 -46.5v-154q0 -6 43 -6h53q63 0 68 4q5 5 8 29q2 16 6 29q1 7 15 7q17 0 22 -5v-189q-4 -4 -21 -4q-13 0 -16 8q-12 39 -16 48q-4 7 -5.5 6.5t-6.5 3.5q-14 8 -78 8q-72 0 -72 -9v-154q0 -47 8 -71
q4 -16 68 -16h26q62 0 112 26q17 9 38.5 34t33.5 56q2 6 14 6q24 0 30 -6q-50 -138 -54 -172q-25 0 -65.5 0.5t-96.5 1.5q-55 1 -100 2.5t-80 -0.5zM143 735l-5 2q-1 2 -1 9q3 58 15 58h287q6 0 6 -10q-1 -11 -1.5 -20t-2.5 -16q-5 -15 -7 -19l-3 -4h-288z" />
    <glyph glyph-name="Eogonek" unicode="&#x118;" horiz-adv-x="598" 
d="M365 -213q-29 0 -55 21t-26 57q0 27 18.5 54t48.5 48.5t62 31.5q-115 2 -178 3t-73 0l-146 -6q-4 4 -4 17q0 20 4 20q8 0 23 3t28 8.5t15 10.5q6 23 6 88v378q0 56 -6 78q-2 6 -15.5 12.5t-28.5 11t-23 4.5q-4 0 -4 18q0 16 3 19q40 -2 76.5 -3.5t70.5 -1.5
q18 0 50.5 0.5t72 1.5t78.5 1.5t71.5 1t50.5 0.5q1 -5 8 -42t21 -106q-5 -5 -23 -5q-11 0 -14 7q-12 26 -35.5 46.5t-51 33t-53.5 12.5h-38q-64 0 -65 -13q-2 -12 -3.5 -31.5t-1.5 -46.5v-154q0 -6 43 -6h53q63 0 68 4q5 5 7.5 25t6.5 33q1 7 15 7q17 0 22 -5v-189
q-4 -4 -21 -4q-13 0 -16 8q-12 39 -16 48q-9 14 -33.5 16t-56.5 2q-72 0 -72 -9v-154q0 -47 8 -71q4 -16 68 -16h26q62 0 112 26q17 9 38.5 34t33.5 56q2 6 14 6q24 0 30 -6q-50 -138 -54 -172q-25 -5 -57 -21t-55.5 -37.5t-23.5 -44.5q0 -15 12 -23.5t29 -8.5
q19 0 43.5 11.5t36.5 21.5q5 0 5 -18q0 -14 -6 -22q-11 -14 -31 -30.5t-43.5 -27.5t-48.5 -11z" />
    <glyph glyph-name="uni1EBC" unicode="&#x1ebc;" horiz-adv-x="598" 
d="M31 -4q-4 4 -4 17q0 20 4 20q8 0 23 3t28 8.5t15 10.5q6 23 6 88v378q0 56 -6 78q-2 6 -15.5 12.5t-28.5 11t-23 4.5q-4 0 -4 18q0 16 3 19q40 -2 76.5 -3.5t70.5 -1.5q44 0 155 3q56 1 98 1.5t70 0.5q1 -5 8 -42t21 -106q-5 -5 -23 -5q-11 0 -14 7q-12 26 -35.5 46.5
t-51 33t-53.5 12.5h-38q-64 0 -65 -13q-2 -12 -3.5 -31.5t-1.5 -46.5v-154q0 -6 43 -6h53q63 0 68 4q5 5 8 29q2 16 6 29q1 7 15 7q17 0 22 -5v-189q-4 -4 -21 -4q-13 0 -16 8q-12 39 -16 48q-4 7 -5.5 6.5t-6.5 3.5q-14 8 -78 8q-72 0 -72 -9v-154q0 -47 8 -71
q4 -16 68 -16h26q62 0 112 26q17 9 38.5 34t33.5 56q2 6 14 6q24 0 30 -6q-50 -138 -54 -172q-25 0 -65.5 0.5t-96.5 1.5q-55 1 -100 2.5t-80 -0.5zM364 728q-38 0 -96 34t-96 34q-19 0 -44 -28q-26 -29 -30 -29q-8 0 -8 22q0 25 18 50q38 51 88 51q38 0 96 -34t96 -34
q19 0 43 29q24 28 29 28q8 0 8 -22q0 -25 -18 -51q-35 -50 -86 -50z" />
    <glyph glyph-name="uni1E1A" unicode="&#x1e1a;" horiz-adv-x="598" 
d="M31 -4q-4 4 -4 17q0 20 4 20q8 0 23 3t28 8.5t15 10.5q6 23 6 88v378q0 56 -6 78q-2 6 -15.5 12.5t-28.5 11t-23 4.5q-4 0 -4 18q0 16 3 19q40 -2 76.5 -3.5t70.5 -1.5q44 0 155 3q56 1 98 1.5t70 0.5q1 -5 8 -42t21 -106q-5 -5 -23 -5q-11 0 -14 7q-12 26 -35.5 46.5
t-51 33t-53.5 12.5h-38q-64 0 -65 -13q-2 -12 -3.5 -31.5t-1.5 -46.5v-154q0 -6 43 -6h53q63 0 68 4q5 5 8 29q2 16 6 29q1 7 15 7q17 0 22 -5v-189q-4 -4 -21 -4q-13 0 -16 8q-12 39 -16 48q-4 7 -5.5 6.5t-6.5 3.5q-14 8 -78 8q-72 0 -72 -9v-154q0 -47 8 -71
q4 -16 68 -16h26q62 0 112 26q17 9 38.5 34t33.5 56q2 6 14 6q24 0 30 -6q-50 -138 -54 -172q-25 0 -65.5 0.5t-96.5 1.5q-55 1 -100 2.5t-80 -0.5zM358 -177q-31 0 -79 30t-80 30q-14 0 -35 -25q-21 -26 -25 -26q-7 0 -7 20q0 18 16 44q31 46 71 46q31 0 79 -30
q47 -31 79 -31q16 0 36 26q19 25 24 25q6 0 6 -20q0 -19 -15 -45q-29 -44 -70 -44z" />
    <glyph glyph-name="F" unicode="F" horiz-adv-x="553" 
d="M31 -4q-4 4 -4 17q0 20 4 20q8 0 23 3t28 8.5t15 10.5q6 23 6 88v378q0 56 -6 78q-2 6 -15.5 12.5t-28.5 11t-23 4.5q-4 0 -4 18q0 16 3 19q45 -2 82 -3.5t65 -1.5q65 0 168 3q52 1 90.5 1.5t64.5 0.5q1 -5 8 -42t21 -106q-5 -5 -23 -5q-11 0 -14 7q-12 26 -35.5 46.5
t-51 33t-53.5 12.5h-38q-64 0 -65 -13q-2 -12 -3.5 -31.5t-1.5 -46.5v-154q0 -6 43 -6h53q63 0 68 4q5 5 8 29q2 16 6 29q1 7 15 7q17 0 22 -5v-189q-4 -4 -21 -4q-13 0 -16 8q-12 39 -16 48q-4 7 -5.5 6.5t-6.5 3.5q-14 8 -78 8q-72 0 -72 -9v-154q0 -53 7 -82q2 -8 17 -14
t33 -9t28 -3q4 0 4 -19q0 -10 -2 -18q-120 6 -153 6z" />
    <glyph glyph-name="uni1E1E" unicode="&#x1e1e;" horiz-adv-x="553" 
d="M31 -4q-4 4 -4 17q0 20 4 20q8 0 23 3t28 8.5t15 10.5q6 23 6 88v378q0 56 -6 78q-2 6 -15.5 12.5t-28.5 11t-23 4.5q-4 0 -4 18q0 16 3 19q45 -2 82 -3.5t65 -1.5q65 0 168 3q52 1 90.5 1.5t64.5 0.5q1 -5 8 -42t21 -106q-5 -5 -23 -5q-11 0 -14 7q-12 26 -35.5 46.5
t-51 33t-53.5 12.5h-38q-64 0 -65 -13q-2 -12 -3.5 -31.5t-1.5 -46.5v-154q0 -6 43 -6h53q63 0 68 4q5 5 8 29q2 16 6 29q1 7 15 7q17 0 22 -5v-189q-4 -4 -21 -4q-13 0 -16 8q-12 39 -16 48q-4 7 -5.5 6.5t-6.5 3.5q-14 8 -78 8q-72 0 -72 -9v-154q0 -53 7 -82q2 -8 17 -14
t33 -9t28 -3q4 0 4 -19q0 -10 -2 -18q-120 6 -153 6zM277 768q-31 0 -52.5 21.5t-21.5 52.5t21.5 52.5t52.5 21.5t52.5 -21.5t21.5 -52.5t-21.5 -52.5t-52.5 -21.5z" />
    <glyph glyph-name="G" unicode="G" horiz-adv-x="705" 
d="M343 -9q-66 0 -123.5 26t-101.5 72t-68.5 106t-24.5 127q0 71 25.5 133t70.5 110t104.5 75t128.5 27q55 0 112 -7.5t117 -21.5q3 0 6.5 -22.5t7.5 -53t6.5 -56t2.5 -32.5q0 -8 -18 -8q-19 0 -31 5q-5 19 -16 39t-33 45t-61 40.5t-88 15.5q-180 0 -180 -266q0 -73 20 -139
q13 -43 39.5 -79t65 -58t87.5 -22q45 0 64 16q11 9 11 30v70q0 53 -7 77q-7 27 -66 27q-2 0 -3.5 8t-0.5 17.5t3 11.5l80 -4t69 -2q15 0 135 6q3 -9 3 -20q0 -18 -4 -18q-23 0 -53 -15q-16 -7 -16 -79v-58q0 -18 3 -27t3 -11q0 -17 -21 -28q-37 -19 -57 -27
q-21 -9 -73.5 -19.5t-117.5 -10.5z" />
    <glyph glyph-name="Gbreve" unicode="&#x11e;" horiz-adv-x="705" 
d="M343 -9q-66 0 -123.5 26t-101.5 72t-68.5 106t-24.5 127q0 71 25.5 133t70.5 110t104.5 75t128.5 27q55 0 112 -7.5t117 -21.5q3 0 6.5 -22.5t7.5 -53t6.5 -56t2.5 -32.5q0 -8 -18 -8q-19 0 -31 5q-5 19 -16 39t-33 45t-61 40.5t-88 15.5q-180 0 -180 -266q0 -73 20 -139
q13 -43 39.5 -79t65 -58t87.5 -22q45 0 64 16q11 9 11 30v70q0 53 -7 77q-7 27 -66 27q-2 0 -3.5 8t-0.5 17.5t3 11.5l80 -4t69 -2q15 0 135 6q3 -9 3 -20q0 -18 -4 -18q-23 0 -53 -15q-16 -7 -16 -79v-58q0 -18 3 -27t3 -11q0 -17 -21 -28q-37 -19 -57 -27
q-21 -9 -73.5 -19.5t-117.5 -10.5zM353 728q-32 0 -59 18t-46 49q-5 8 -5 13t9 15.5t14 12.5q2 2 4 -2q13 -17 37.5 -31.5t45.5 -14.5t45.5 14.5t37.5 31.5q2 4 4 2q5 -2 14 -12.5t9 -15.5t-5 -13q-19 -31 -46 -49t-59 -18z" />
    <glyph glyph-name="Gcircumflex" unicode="&#x11c;" horiz-adv-x="705" 
d="M343 -9q-66 0 -123.5 26t-101.5 72t-68.5 106t-24.5 127q0 71 25.5 133t70.5 110t104.5 75t128.5 27q55 0 112 -7.5t117 -21.5q3 0 6.5 -22.5t7.5 -53t6.5 -56t2.5 -32.5q0 -8 -18 -8q-19 0 -31 5q-5 19 -16 39t-33 45t-61 40.5t-88 15.5q-180 0 -180 -266q0 -73 20 -139
q13 -43 39.5 -79t65 -58t87.5 -22q45 0 64 16q11 9 11 30v70q0 53 -7 77q-7 27 -66 27q-2 0 -3.5 8t-0.5 17.5t3 11.5l80 -4t69 -2q15 0 135 6q3 -9 3 -20q0 -18 -4 -18q-23 0 -53 -15q-16 -7 -16 -79v-58q0 -18 3 -27t3 -11q0 -17 -21 -28q-37 -19 -57 -27
q-21 -9 -73.5 -19.5t-117.5 -10.5zM233 729q-10 0 -10 19q14 11 32.5 27t40.5 38q11 10 21.5 22t21.5 26q8 9 13 9q6 0 15 -9l15 -17q7 -7 13 -14t12 -13q24 -24 43 -41t33 -28q0 -19 -10 -19q-6 0 -28 10.5t-48 25.5t-44 26q-17 -11 -43.5 -26t-48.5 -25.5t-28 -10.5z" />
    <glyph glyph-name="uni0122" unicode="&#x122;" horiz-adv-x="705" 
d="M343 -9q-66 0 -123.5 26t-101.5 72t-68.5 106t-24.5 127q0 71 25.5 133t70.5 110t104.5 75t128.5 27q55 0 112 -7.5t117 -21.5q3 0 6.5 -22.5t7.5 -53t6.5 -56t2.5 -32.5q0 -8 -18 -8q-19 0 -31 5q-5 19 -16 39t-33 45t-61 40.5t-88 15.5q-180 0 -180 -266q0 -73 20 -139
q13 -43 39.5 -79t65 -58t87.5 -22q45 0 64 16q11 9 11 30v70q0 53 -7 77q-7 27 -66 27q-2 0 -3.5 8t-0.5 17.5t3 11.5l80 -4t69 -2q15 0 135 6q3 -9 3 -20q0 -18 -4 -18q-23 0 -53 -15q-16 -7 -16 -79v-58q0 -18 3 -27t3 -11q0 -17 -21 -28q-37 -19 -57 -27
q-21 -9 -73.5 -19.5t-117.5 -10.5zM320 -218q-5 0 -15.5 6t-10.5 10q13 9 27 20.5t14 25.5q0 18 -22 31q-23 14 -23 32q0 25 31.5 37.5t71.5 12.5q22 -19 22 -62q0 -37 -29 -68t-63 -45h-3z" />
    <glyph glyph-name="Gdotaccent" unicode="&#x120;" horiz-adv-x="705" 
d="M343 -9q-66 0 -123.5 26t-101.5 72t-68.5 106t-24.5 127q0 71 25.5 133t70.5 110t104.5 75t128.5 27q55 0 112 -7.5t117 -21.5q3 0 6.5 -22.5t7.5 -53t6.5 -56t2.5 -32.5q0 -8 -18 -8q-19 0 -31 5q-5 19 -16 39t-33 45t-61 40.5t-88 15.5q-180 0 -180 -266q0 -73 20 -139
q13 -43 39.5 -79t65 -58t87.5 -22q45 0 64 16q11 9 11 30v70q0 53 -7 77q-7 27 -66 27q-2 0 -3.5 8t-0.5 17.5t3 11.5l80 -4t69 -2q15 0 135 6q3 -9 3 -20q0 -18 -4 -18q-23 0 -53 -15q-16 -7 -16 -79v-58q0 -18 3 -27t3 -11q0 -17 -21 -28q-37 -19 -57 -27
q-21 -9 -73.5 -19.5t-117.5 -10.5zM353 768q-31 0 -52.5 21.5t-21.5 52.5t21.5 52.5t52.5 21.5t52.5 -21.5t21.5 -52.5t-21.5 -52.5t-52.5 -21.5z" />
    <glyph glyph-name="uni1E20" unicode="&#x1e20;" horiz-adv-x="705" 
d="M343 -9q-66 0 -123.5 26t-101.5 72t-68.5 106t-24.5 127q0 71 25.5 133t70.5 110t104.5 75t128.5 27q55 0 112 -7.5t117 -21.5q3 0 6.5 -22.5t7.5 -53t6.5 -56t2.5 -32.5q0 -8 -18 -8q-19 0 -31 5q-5 19 -16 39t-33 45t-61 40.5t-88 15.5q-180 0 -180 -266q0 -73 20 -139
q13 -43 39.5 -79t65 -58t87.5 -22q45 0 64 16q11 9 11 30v70q0 53 -7 77q-7 27 -66 27q-2 0 -3.5 8t-0.5 17.5t3 11.5l80 -4t69 -2q15 0 135 6q3 -9 3 -20q0 -18 -4 -18q-23 0 -53 -15q-16 -7 -16 -79v-58q0 -18 3 -27t3 -11q0 -17 -21 -28q-37 -19 -57 -27
q-21 -9 -73.5 -19.5t-117.5 -10.5zM214 735l-5 2q-1 2 -1 9q3 58 15 58h287q6 0 6 -10q-1 -11 -1.5 -20t-2.5 -16q-5 -15 -7 -19l-3 -4h-288z" />
    <glyph glyph-name="H" unicode="H" horiz-adv-x="727" 
d="M30 -4q-4 4 -4 17q0 20 2 20q8 0 23.5 3.5t28.5 9.5t15 11q7 25 7 81v382q0 63 -7 78q-3 8 -15.5 14t-26 9.5t-21.5 3.5q-4 0 -4 20q0 15 2 17l139 -6q13 -1 49.5 1t96.5 5q3 -4 3 -21q0 -16 -4 -16q-6 0 -20.5 -4t-28 -9.5t-15.5 -10.5q-8 -22 -8 -85v-142l2 -3l120 -2
q14 0 43 0.5t74 1.5q2 2 2 4v145q0 54 -7 79q-2 6 -14.5 12t-26.5 10t-22 4q-2 0 -3.5 8t-0.5 17.5t3 11.5l149 -6q15 0 135 6q3 -9 3 -18q0 -19 -5 -19q-6 0 -20.5 -4t-27.5 -9.5t-15 -10.5q-4 -15 -6 -36t-2 -49v-374q0 -27 2 -48t6 -37q2 -4 14.5 -9.5t27 -9.5t20.5 -4
q4 0 4 -21q0 -8 -3 -17q-4 0 -19 1t-40 3t-44 3t-32 1t-35.5 -1t-46 -2.5t-42.5 -3t-25 -1.5q-2 3 -3 12t0.5 17t3.5 8q8 0 23 4t28 10.5t15 11.5q6 23 6 79v167l-2 4l-117 2q-124 -1 -124 -3l2 -2v-164q0 -26 2 -47t6 -37q2 -4 14.5 -10t27 -10.5t20.5 -4.5q4 0 4.5 -15
t-2.5 -22q-49 3 -82.5 5.5t-60.5 2.5q-33 0 -66.5 -2.5t-74.5 -5.5z" />
    <glyph glyph-name="Hbar" unicode="&#x126;" horiz-adv-x="727" 
d="M30 -4q-4 4 -4 17q0 20 2 20q8 0 23.5 3.5t28.5 9.5t15 11q7 25 7 81v351h-60q-5 0 -5 15q0 22 6 31h59q-1 26 -3 41.5t-4 21.5q-3 8 -15.5 14t-26 9.5t-21.5 3.5q-4 0 -4 20q0 15 2 17l139 -6q26 0 146 6q3 -4 3 -21q0 -16 -4 -16q-6 0 -20.5 -4t-28 -9.5t-15.5 -10.5
q-2 -7 -4 -23.5t-3 -42.5l119 -1l121 1q-2 44 -7 64q-2 6 -14.5 12t-26.5 10t-22 4q-2 0 -3.5 8t-0.5 17.5t3 11.5l149 -6q15 0 135 6q3 -9 3 -18q0 -19 -5 -19q-6 0 -20.5 -4t-27.5 -9.5t-15 -10.5q-4 -13 -5.5 -29.5t-2.5 -36.5h62q6 0 6 -14q0 -18 -6 -32h-62v-347
q0 -27 2 -48t6 -37q2 -4 14.5 -9.5t27 -9.5t20.5 -4q4 0 4 -21q0 -8 -3 -17q-4 0 -19 1t-40 3t-44 3t-32 1t-35.5 -1t-46 -2.5t-42.5 -3t-25 -1.5q-2 3 -3 12t0.5 17t3.5 8q8 0 23 4t28 10.5t15 11.5q6 23 6 79v167l-2 4l-117 2q-124 -1 -124 -3l2 -2v-164q0 -26 2 -47
t6 -37q2 -4 14.5 -10t27 -10.5t20.5 -4.5q4 0 4.5 -15t-2.5 -22q-67 0 -106 0.5t-58 1.5t-25.5 2t-9 1h-8t-23 -1t-54.5 -4zM364 369q14 0 43 0.5t74 1.5q2 2 2 4v114l-120 1l-121 -1v-115l2 -3z" />
    <glyph glyph-name="uni1E2A" unicode="&#x1e2a;" horiz-adv-x="727" 
d="M30 -4q-4 4 -4 17q0 20 2 20q8 0 23.5 3.5t28.5 9.5t15 11q7 25 7 81v382q0 63 -7 78q-3 8 -15.5 14t-26 9.5t-21.5 3.5q-4 0 -4 20q0 15 2 17l139 -6q13 -1 49.5 1t96.5 5q3 -4 3 -21q0 -16 -4 -16q-6 0 -20.5 -4t-28 -9.5t-15.5 -10.5q-8 -22 -8 -85v-142l2 -3l120 -2
q14 0 43 0.5t74 1.5q2 2 2 4v145q0 54 -7 79q-2 6 -14.5 12t-26.5 10t-22 4q-2 0 -3.5 8t-0.5 17.5t3 11.5l149 -6q15 0 135 6q3 -9 3 -18q0 -19 -5 -19q-6 0 -20.5 -4t-27.5 -9.5t-15 -10.5q-4 -15 -6 -36t-2 -49v-374q0 -27 2 -48t6 -37q2 -4 14.5 -9.5t27 -9.5t20.5 -4
q4 0 4 -21q0 -8 -3 -17q-4 0 -19 1t-40 3t-44 3t-32 1t-35.5 -1t-46 -2.5t-42.5 -3t-25 -1.5q-2 3 -3 12t0.5 17t3.5 8q8 0 23 4t28 10.5t15 11.5q6 23 6 79v167l-2 4l-117 2q-124 -1 -124 -3l2 -2v-164q0 -26 2 -47t6 -37q2 -4 14.5 -10t27 -10.5t20.5 -4.5q4 0 4.5 -15
t-2.5 -22q-49 3 -82.5 5.5t-60.5 2.5q-33 0 -66.5 -2.5t-74.5 -5.5zM363 -181q-40 0 -70 26t-42 66q-2 5 6 17t23 12q3 0 4 -3q8 -27 31 -42.5t48 -15.5t48 15.5t31 42.5q2 3 4 3q15 0 23 -12t6 -17q-11 -40 -41.5 -66t-70.5 -26z" />
    <glyph glyph-name="uni1E28" unicode="&#x1e28;" horiz-adv-x="727" 
d="M30 -4q-4 4 -4 17q0 20 2 20q8 0 23.5 3.5t28.5 9.5t15 11q7 25 7 81v382q0 63 -7 78q-3 8 -15.5 14t-26 9.5t-21.5 3.5q-4 0 -4 20q0 15 2 17l139 -6q13 -1 49.5 1t96.5 5q3 -4 3 -21q0 -16 -4 -16q-6 0 -20.5 -4t-28 -9.5t-15.5 -10.5q-8 -22 -8 -85v-142l2 -3l120 -2
q14 0 43 0.5t74 1.5q2 2 2 4v145q0 54 -7 79q-2 6 -14.5 12t-26.5 10t-22 4q-2 0 -3.5 8t-0.5 17.5t3 11.5l149 -6q15 0 135 6q3 -9 3 -18q0 -19 -5 -19q-6 0 -20.5 -4t-27.5 -9.5t-15 -10.5q-4 -15 -6 -36t-2 -49v-374q0 -27 2 -48t6 -37q2 -4 14.5 -9.5t27 -9.5t20.5 -4
q4 0 4 -21q0 -8 -3 -17q-4 0 -19 1t-40 3t-44 3t-32 1t-35.5 -1t-46 -2.5t-42.5 -3t-25 -1.5q-2 3 -3 12t0.5 17t3.5 8q8 0 23 4t28 10.5t15 11.5q6 23 6 79v167l-2 4l-117 2q-124 -1 -124 -3l2 -2v-164q0 -26 2 -47t6 -37q2 -4 14.5 -10t27 -10.5t20.5 -4.5q4 0 4.5 -15
t-2.5 -22q-49 3 -82.5 5.5t-60.5 2.5q-33 0 -66.5 -2.5t-74.5 -5.5zM149 -177q-38 0 -57 19q-1 4 -1.5 9t-0.5 11q0 16 8 16l22 -9q22 -8 37 -8q23 0 34.5 10t11.5 24q0 33 -29 33q-20 0 -35 -7q-2 0 -9.5 8t-6.5 11l19 35q6 13 9.5 20.5t4.5 9.5h37l-16 -31l22 1
q25 1 44.5 -18t19.5 -42q0 -42 -30.5 -67t-83.5 -25z" />
    <glyph glyph-name="Hcircumflex" unicode="&#x124;" horiz-adv-x="727" 
d="M30 -4q-4 4 -4 17q0 20 2 20q8 0 23.5 3.5t28.5 9.5t15 11q7 25 7 81v382q0 63 -7 78q-3 8 -15.5 14t-26 9.5t-21.5 3.5q-4 0 -4 20q0 15 2 17l139 -6q13 -1 49.5 1t96.5 5q3 -4 3 -21q0 -16 -4 -16q-6 0 -20.5 -4t-28 -9.5t-15.5 -10.5q-8 -22 -8 -85v-142l2 -3l120 -2
q14 0 43 0.5t74 1.5q2 2 2 4v145q0 54 -7 79q-2 6 -14.5 12t-26.5 10t-22 4q-2 0 -3.5 8t-0.5 17.5t3 11.5l149 -6q15 0 135 6q3 -9 3 -18q0 -19 -5 -19q-6 0 -20.5 -4t-27.5 -9.5t-15 -10.5q-4 -15 -6 -36t-2 -49v-374q0 -27 2 -48t6 -37q2 -4 14.5 -9.5t27 -9.5t20.5 -4
q4 0 4 -21q0 -8 -3 -17q-4 0 -19 1t-40 3t-44 3t-32 1t-35.5 -1t-46 -2.5t-42.5 -3t-25 -1.5q-2 3 -3 12t0.5 17t3.5 8q8 0 23 4t28 10.5t15 11.5q6 23 6 79v167l-2 4l-117 2q-124 -1 -124 -3l2 -2v-164q0 -26 2 -47t6 -37q2 -4 14.5 -10t27 -10.5t20.5 -4.5q4 0 4.5 -15
t-2.5 -22q-49 3 -82.5 5.5t-60.5 2.5q-33 0 -66.5 -2.5t-74.5 -5.5zM244 729q-10 0 -10 19q14 11 32.5 27t40.5 38q11 10 21.5 22t21.5 26q8 9 13 9q6 0 15 -9l15 -17q7 -7 13 -14t12 -13q24 -24 43 -41t33 -28q0 -19 -10 -19q-6 0 -28 10.5t-48 25.5t-44 26
q-17 -11 -43.5 -26t-48.5 -25.5t-28 -10.5z" />
    <glyph glyph-name="uni1E26" unicode="&#x1e26;" horiz-adv-x="727" 
d="M30 -4q-4 4 -4 17q0 20 2 20q8 0 23.5 3.5t28.5 9.5t15 11q7 25 7 81v382q0 63 -7 78q-3 8 -15.5 14t-26 9.5t-21.5 3.5q-4 0 -4 20q0 15 2 17l139 -6q13 -1 49.5 1t96.5 5q3 -4 3 -21q0 -16 -4 -16q-6 0 -20.5 -4t-28 -9.5t-15.5 -10.5q-8 -22 -8 -85v-142l2 -3l120 -2
q14 0 43 0.5t74 1.5q2 2 2 4v145q0 54 -7 79q-2 6 -14.5 12t-26.5 10t-22 4q-2 0 -3.5 8t-0.5 17.5t3 11.5l149 -6q15 0 135 6q3 -9 3 -18q0 -19 -5 -19q-6 0 -20.5 -4t-27.5 -9.5t-15 -10.5q-4 -15 -6 -36t-2 -49v-374q0 -27 2 -48t6 -37q2 -4 14.5 -9.5t27 -9.5t20.5 -4
q4 0 4 -21q0 -8 -3 -17q-4 0 -19 1t-40 3t-44 3t-32 1t-35.5 -1t-46 -2.5t-42.5 -3t-25 -1.5q-2 3 -3 12t0.5 17t3.5 8q8 0 23 4t28 10.5t15 11.5q6 23 6 79v167l-2 4l-117 2q-124 -1 -124 -3l2 -2v-164q0 -26 2 -47t6 -37q2 -4 14.5 -10t27 -10.5t20.5 -4.5q4 0 4.5 -15
t-2.5 -22q-49 3 -82.5 5.5t-60.5 2.5q-33 0 -66.5 -2.5t-74.5 -5.5zM464 726q-30 0 -52 22t-22 53t22 52t52 21q31 0 52.5 -22t21.5 -51q0 -31 -22.5 -53t-51.5 -22zM266 726q-30 0 -52.5 22t-22.5 53q0 29 22 51t53 22q29 0 51 -21t22 -52t-22 -53t-51 -22z" />
    <glyph glyph-name="uni1E22" unicode="&#x1e22;" horiz-adv-x="727" 
d="M30 -4q-4 4 -4 17q0 20 2 20q8 0 23.5 3.5t28.5 9.5t15 11q7 25 7 81v382q0 63 -7 78q-3 8 -15.5 14t-26 9.5t-21.5 3.5q-4 0 -4 20q0 15 2 17l139 -6q13 -1 49.5 1t96.5 5q3 -4 3 -21q0 -16 -4 -16q-6 0 -20.5 -4t-28 -9.5t-15.5 -10.5q-8 -22 -8 -85v-142l2 -3l120 -2
q14 0 43 0.5t74 1.5q2 2 2 4v145q0 54 -7 79q-2 6 -14.5 12t-26.5 10t-22 4q-2 0 -3.5 8t-0.5 17.5t3 11.5l149 -6q15 0 135 6q3 -9 3 -18q0 -19 -5 -19q-6 0 -20.5 -4t-27.5 -9.5t-15 -10.5q-4 -15 -6 -36t-2 -49v-374q0 -27 2 -48t6 -37q2 -4 14.5 -9.5t27 -9.5t20.5 -4
q4 0 4 -21q0 -8 -3 -17q-4 0 -19 1t-40 3t-44 3t-32 1t-35.5 -1t-46 -2.5t-42.5 -3t-25 -1.5q-2 3 -3 12t0.5 17t3.5 8q8 0 23 4t28 10.5t15 11.5q6 23 6 79v167l-2 4l-117 2q-124 -1 -124 -3l2 -2v-164q0 -26 2 -47t6 -37q2 -4 14.5 -10t27 -10.5t20.5 -4.5q4 0 4.5 -15
t-2.5 -22q-49 3 -82.5 5.5t-60.5 2.5q-33 0 -66.5 -2.5t-74.5 -5.5zM364 768q-31 0 -52.5 21.5t-21.5 52.5t21.5 52.5t52.5 21.5t52.5 -21.5t21.5 -52.5t-21.5 -52.5t-52.5 -21.5z" />
    <glyph glyph-name="uni1E24" unicode="&#x1e24;" horiz-adv-x="727" 
d="M30 -4q-4 4 -4 17q0 20 2 20q8 0 23.5 3.5t28.5 9.5t15 11q7 25 7 81v382q0 63 -7 78q-3 8 -15.5 14t-26 9.5t-21.5 3.5q-4 0 -4 20q0 15 2 17l139 -6q13 -1 49.5 1t96.5 5q3 -4 3 -21q0 -16 -4 -16q-6 0 -20.5 -4t-28 -9.5t-15.5 -10.5q-8 -22 -8 -85v-142l2 -3l120 -2
q14 0 43 0.5t74 1.5q2 2 2 4v145q0 54 -7 79q-2 6 -14.5 12t-26.5 10t-22 4q-2 0 -3.5 8t-0.5 17.5t3 11.5l149 -6q15 0 135 6q3 -9 3 -18q0 -19 -5 -19q-6 0 -20.5 -4t-27.5 -9.5t-15 -10.5q-4 -15 -6 -36t-2 -49v-374q0 -27 2 -48t6 -37q2 -4 14.5 -9.5t27 -9.5t20.5 -4
q4 0 4 -21q0 -8 -3 -17q-4 0 -19 1t-40 3t-44 3t-32 1t-35.5 -1t-46 -2.5t-42.5 -3t-25 -1.5q-2 3 -3 12t0.5 17t3.5 8q8 0 23 4t28 10.5t15 11.5q6 23 6 79v167l-2 4l-117 2q-124 -1 -124 -3l2 -2v-164q0 -26 2 -47t6 -37q2 -4 14.5 -10t27 -10.5t20.5 -4.5q4 0 4.5 -15
t-2.5 -22q-49 3 -82.5 5.5t-60.5 2.5q-33 0 -66.5 -2.5t-74.5 -5.5zM364 -200q-31 0 -53 21.5t-22 52.5q0 32 22 53.5t53 21.5t52.5 -21.5t21.5 -53.5q0 -31 -21.5 -52.5t-52.5 -21.5z" />
    <glyph glyph-name="I" unicode="I" horiz-adv-x="346" 
d="M30 -4q-4 4 -4 16q0 21 3 21q8 0 23 4t28 10t15 11q4 14 5.5 34t1.5 46v384q0 64 -8 78q-3 6 -15.5 11.5t-25.5 9.5t-21 4q-4 0 -4 17q0 18 2 20l48 -3q22 -2 36 -3t27.5 -0.5t33.5 0.5t140 6q3 -9 3 -18q0 -19 -4 -19q-6 0 -21 -4t-28.5 -9.5t-15.5 -10.5
q-3 -12 -5 -33.5t-2 -36.5v-385q0 -28 2 -50t6 -38q2 -4 14.5 -10t27 -10.5t20.5 -4.5q4 0 4 -19q0 -10 -2 -18q-4 0 -19 1t-41 3t-46 3t-33 1q-18 0 -49 -2t-58.5 -3.5t-37.5 -2.5z" />
    <glyph glyph-name="IJ" unicode="&#x132;" horiz-adv-x="698" 
d="M30 -4q-4 4 -4 16q0 21 3 21q8 0 23 4t28 10t15 11q4 14 5.5 34t1.5 46v384q0 64 -8 78q-3 6 -15.5 11.5t-25.5 9.5t-21 4q-4 0 -4 17q0 18 2 20l48 -3q22 -2 36 -3t27.5 -0.5t33.5 0.5t140 6q3 -9 3 -18q0 -19 -4 -19q-6 0 -21 -4t-28.5 -9.5t-15.5 -10.5
q-3 -12 -5 -33.5t-2 -36.5v-385q0 -28 2 -50t6 -38q2 -4 14.5 -10t27 -10.5t20.5 -4.5q4 0 4 -19q0 -10 -2 -18q-4 0 -19 1t-41 3t-46 3t-33 1q-18 0 -49 -2t-58.5 -3.5t-37.5 -2.5zM300 -218q-34 0 -57 18q-15 24 -15 52q0 25 19 43t44 18q24 0 52 -31q27 -30 41 -30
q45 0 58 70q7 35 10.5 88.5t3.5 124.5v387q0 64 -8 78q-3 6 -15.5 11.5t-25.5 9.5t-21 4q-4 0 -4 17q0 18 2 20l145 -6q10 -1 45 1t95 5q3 -9 3 -18q0 -19 -4 -19q-6 0 -21 -4t-28.5 -9.5t-15.5 -10.5q-7 -25 -7 -85v-373q0 -113 -36 -194t-102 -124t-158 -43z" />
    <glyph glyph-name="Iacute" unicode="&#xcd;" horiz-adv-x="346" 
d="M30 -4q-4 4 -4 16q0 21 3 21q8 0 23 4t28 10t15 11q4 14 5.5 34t1.5 46v384q0 64 -8 78q-3 6 -15.5 11.5t-25.5 9.5t-21 4q-4 0 -4 17q0 18 2 20l48 -3q22 -2 36 -3t27.5 -0.5t33.5 0.5t140 6q3 -9 3 -18q0 -19 -4 -19q-6 0 -21 -4t-28.5 -9.5t-15.5 -10.5
q-3 -12 -5 -33.5t-2 -36.5v-385q0 -28 2 -50t6 -38q2 -4 14.5 -10t27 -10.5t20.5 -4.5q4 0 4 -19q0 -10 -2 -18q-4 0 -19 1t-41 3t-46 3t-33 1q-18 0 -49 -2t-58.5 -3.5t-37.5 -2.5zM130 729q-5 0 -9.5 7.5t-4.5 12.5q0 3 12.5 16.5t31 32.5t39.5 37.5t37 30.5q7 4 18 4
q18 0 37 -9.5t19 -28.5q0 -10 -16 -23t-40.5 -27t-50 -26t-46 -19.5t-27.5 -7.5z" />
    <glyph glyph-name="Ibreve" unicode="&#x12c;" horiz-adv-x="346" 
d="M30 -4q-4 4 -4 16q0 21 3 21q8 0 23 4t28 10t15 11q4 14 5.5 34t1.5 46v384q0 64 -8 78q-3 6 -15.5 11.5t-25.5 9.5t-21 4q-4 0 -4 17q0 18 2 20l48 -3q22 -2 36 -3t27.5 -0.5t33.5 0.5t140 6q3 -9 3 -18q0 -19 -4 -19q-6 0 -21 -4t-28.5 -9.5t-15.5 -10.5
q-3 -12 -5 -33.5t-2 -36.5v-385q0 -28 2 -50t6 -38q2 -4 14.5 -10t27 -10.5t20.5 -4.5q4 0 4 -19q0 -10 -2 -18q-4 0 -19 1t-41 3t-46 3t-33 1q-18 0 -49 -2t-58.5 -3.5t-37.5 -2.5zM175 728q-32 0 -59 18t-46 49q-5 8 -5 13t9 15.5t14 12.5q2 2 4 -2q13 -17 37.5 -31.5
t45.5 -14.5t45.5 14.5t37.5 31.5q2 4 4 2q5 -2 14 -12.5t9 -15.5t-5 -13q-19 -31 -46 -49t-59 -18z" />
    <glyph glyph-name="uni01CF" unicode="&#x1cf;" horiz-adv-x="346" 
d="M30 -4q-4 4 -4 16q0 21 3 21q8 0 23 4t28 10t15 11q4 14 5.5 34t1.5 46v384q0 64 -8 78q-3 6 -15.5 11.5t-25.5 9.5t-21 4q-4 0 -4 17q0 18 2 20l48 -3q22 -2 36 -3t27.5 -0.5t33.5 0.5t140 6q3 -9 3 -18q0 -19 -4 -19q-6 0 -21 -4t-28.5 -9.5t-15.5 -10.5
q-3 -12 -5 -33.5t-2 -36.5v-385q0 -28 2 -50t6 -38q2 -4 14.5 -10t27 -10.5t20.5 -4.5q4 0 4 -19q0 -10 -2 -18q-4 0 -19 1t-41 3t-46 3t-33 1q-18 0 -49 -2t-58.5 -3.5t-37.5 -2.5zM173 728q-5 0 -13 9q-9 11 -19.5 22.5t-23.5 24.5q-25 24 -43 40.5t-30 25.5q0 19 10 19
q6 0 28 -10.5t48.5 -25t43.5 -26.5q18 12 44 26.5t48.5 25t27.5 10.5q10 0 10 -19q-12 -9 -31 -26t-45 -44l-40 -43q-9 -9 -15 -9z" />
    <glyph glyph-name="Icircumflex" unicode="&#xce;" horiz-adv-x="346" 
d="M30 -4q-4 4 -4 16q0 21 3 21q8 0 23 4t28 10t15 11q4 14 5.5 34t1.5 46v384q0 64 -8 78q-3 6 -15.5 11.5t-25.5 9.5t-21 4q-4 0 -4 17q0 18 2 20l48 -3q22 -2 36 -3t27.5 -0.5t33.5 0.5t140 6q3 -9 3 -18q0 -19 -4 -19q-6 0 -21 -4t-28.5 -9.5t-15.5 -10.5
q-3 -12 -5 -33.5t-2 -36.5v-385q0 -28 2 -50t6 -38q2 -4 14.5 -10t27 -10.5t20.5 -4.5q4 0 4 -19q0 -10 -2 -18q-4 0 -19 1t-41 3t-46 3t-33 1q-18 0 -49 -2t-58.5 -3.5t-37.5 -2.5zM55 729q-10 0 -10 19q14 11 32.5 27t40.5 38q11 10 21.5 22t21.5 26q8 9 13 9q6 0 15 -9
l15 -17q7 -7 13 -14t12 -13q24 -24 43 -41t33 -28q0 -19 -10 -19q-6 0 -28 10.5t-48 25.5t-44 26q-17 -11 -43.5 -26t-48.5 -25.5t-28 -10.5z" />
    <glyph glyph-name="Idieresis" unicode="&#xcf;" horiz-adv-x="346" 
d="M30 -4q-4 4 -4 16q0 21 3 21q8 0 23 4t28 10t15 11q4 14 5.5 34t1.5 46v384q0 64 -8 78q-3 6 -15.5 11.5t-25.5 9.5t-21 4q-4 0 -4 17q0 18 2 20l48 -3q22 -2 36 -3t27.5 -0.5t33.5 0.5t140 6q3 -9 3 -18q0 -19 -4 -19q-6 0 -21 -4t-28.5 -9.5t-15.5 -10.5
q-3 -12 -5 -33.5t-2 -36.5v-385q0 -28 2 -50t6 -38q2 -4 14.5 -10t27 -10.5t20.5 -4.5q4 0 4 -19q0 -10 -2 -18q-4 0 -19 1t-41 3t-46 3t-33 1q-18 0 -49 -2t-58.5 -3.5t-37.5 -2.5zM275 726q-30 0 -52 22t-22 53t22 52t52 21q31 0 52.5 -22t21.5 -51q0 -31 -22.5 -53
t-51.5 -22zM77 726q-30 0 -52.5 22t-22.5 53q0 29 22 51t53 22q29 0 51 -21t22 -52t-22 -53t-51 -22z" />
    <glyph glyph-name="uni1E2E" unicode="&#x1e2e;" horiz-adv-x="346" 
d="M30 -4q-4 4 -4 16q0 21 3 21q8 0 23 4t28 10t15 11q4 14 5.5 34t1.5 46v384q0 64 -8 78q-3 6 -15.5 11.5t-25.5 9.5t-21 4q-4 0 -4 17q0 18 2 20l48 -3q22 -2 36 -3t27.5 -0.5t33.5 0.5t140 6q3 -9 3 -18q0 -19 -4 -19q-6 0 -21 -4t-28.5 -9.5t-15.5 -10.5
q-3 -12 -5 -33.5t-2 -36.5v-385q0 -28 2 -50t6 -38q2 -4 14.5 -10t27 -10.5t20.5 -4.5q4 0 4 -19q0 -10 -2 -18q-4 0 -19 1t-41 3t-46 3t-33 1q-18 0 -49 -2t-58.5 -3.5t-37.5 -2.5zM275 726q-30 0 -52 22t-22 53t22 52t52 21q31 0 52.5 -22t21.5 -51q0 -31 -22.5 -53
t-51.5 -22zM77 726q-30 0 -52.5 22t-22.5 53q0 29 22 51t53 22q29 0 51 -21t22 -52t-22 -53t-51 -22zM130 903q-5 0 -9.5 7.5t-4.5 12.5q0 3 12.5 16.5t31 32.5t39.5 37.5t37 30.5q7 4 18 4q18 0 37 -9.5t19 -28.5q0 -10 -16 -23t-40.5 -27t-50 -26t-46 -19.5t-27.5 -7.5z
" />
    <glyph glyph-name="Idotaccent" unicode="&#x130;" horiz-adv-x="346" 
d="M30 -4q-4 4 -4 16q0 21 3 21q8 0 23 4t28 10t15 11q4 14 5.5 34t1.5 46v384q0 64 -8 78q-3 6 -15.5 11.5t-25.5 9.5t-21 4q-4 0 -4 17q0 18 2 20l48 -3q22 -2 36 -3t27.5 -0.5t33.5 0.5t140 6q3 -9 3 -18q0 -19 -4 -19q-6 0 -21 -4t-28.5 -9.5t-15.5 -10.5
q-3 -12 -5 -33.5t-2 -36.5v-385q0 -28 2 -50t6 -38q2 -4 14.5 -10t27 -10.5t20.5 -4.5q4 0 4 -19q0 -10 -2 -18q-4 0 -19 1t-41 3t-46 3t-33 1q-18 0 -49 -2t-58.5 -3.5t-37.5 -2.5zM175 768q-31 0 -52.5 21.5t-21.5 52.5t21.5 52.5t52.5 21.5t52.5 -21.5t21.5 -52.5
t-21.5 -52.5t-52.5 -21.5z" />
    <glyph glyph-name="uni1ECA" unicode="&#x1eca;" horiz-adv-x="346" 
d="M30 -4q-4 4 -4 16q0 21 3 21q8 0 23 4t28 10t15 11q4 14 5.5 34t1.5 46v384q0 64 -8 78q-3 6 -15.5 11.5t-25.5 9.5t-21 4q-4 0 -4 17q0 18 2 20l48 -3q22 -2 36 -3t27.5 -0.5t33.5 0.5t140 6q3 -9 3 -18q0 -19 -4 -19q-6 0 -21 -4t-28.5 -9.5t-15.5 -10.5
q-3 -12 -5 -33.5t-2 -36.5v-385q0 -28 2 -50t6 -38q2 -4 14.5 -10t27 -10.5t20.5 -4.5q4 0 4 -19q0 -10 -2 -18q-4 0 -19 1t-41 3t-46 3t-33 1q-18 0 -49 -2t-58.5 -3.5t-37.5 -2.5zM173 -200q-31 0 -53 21.5t-22 52.5q0 32 22 53.5t53 21.5t52.5 -21.5t21.5 -53.5
q0 -31 -21.5 -52.5t-52.5 -21.5z" />
    <glyph glyph-name="Igrave" unicode="&#xcc;" horiz-adv-x="346" 
d="M30 -4q-4 4 -4 16q0 21 3 21q8 0 23 4t28 10t15 11q4 14 5.5 34t1.5 46v384q0 64 -8 78q-3 6 -15.5 11.5t-25.5 9.5t-21 4q-4 0 -4 17q0 18 2 20l48 -3q22 -2 36 -3t27.5 -0.5t33.5 0.5t140 6q3 -9 3 -18q0 -19 -4 -19q-6 0 -21 -4t-28.5 -9.5t-15.5 -10.5
q-3 -12 -5 -33.5t-2 -36.5v-385q0 -28 2 -50t6 -38q2 -4 14.5 -10t27 -10.5t20.5 -4.5q4 0 4 -19q0 -10 -2 -18q-4 0 -19 1t-41 3t-46 3t-33 1q-18 0 -49 -2t-58.5 -3.5t-37.5 -2.5zM209 728q-7 0 -27.5 7.5t-46 19.5t-50 26t-40.5 27t-16 23q0 19 19 28.5t37 9.5
q11 0 18 -4q17 -12 37.5 -30.5t39 -37.5t31 -32.5t12.5 -16.5q0 -5 -4.5 -12.5t-9.5 -7.5z" />
    <glyph glyph-name="uni1EC8" unicode="&#x1ec8;" horiz-adv-x="346" 
d="M30 -4q-4 4 -4 16q0 21 3 21q8 0 23 4t28 10t15 11q4 14 5.5 34t1.5 46v384q0 64 -8 78q-3 6 -15.5 11.5t-25.5 9.5t-21 4q-4 0 -4 17q0 18 2 20l48 -3q22 -2 36 -3t27.5 -0.5t33.5 0.5t140 6q3 -9 3 -18q0 -19 -4 -19q-6 0 -21 -4t-28.5 -9.5t-15.5 -10.5
q-3 -12 -5 -33.5t-2 -36.5v-385q0 -28 2 -50t6 -38q2 -4 14.5 -10t27 -10.5t20.5 -4.5q4 0 4 -19q0 -10 -2 -18q-4 0 -19 1t-41 3t-46 3t-33 1q-18 0 -49 -2t-58.5 -3.5t-37.5 -2.5zM159 725q-10 6 -10 17q0 28 45 49q36 17 36 42q0 30 -25 30q-33 0 -33 -36q0 -22 -39 -22
q-7 0 -14.5 4.5t-7.5 12.5q0 36 31.5 57.5t72.5 21.5q30 0 49.5 -16.5t19.5 -41.5q0 -53 -51 -74q-30 -13 -35 -21q-1 -2 -1 -6q0 -6 1 -8q0 -2 -14.5 -5.5t-24.5 -3.5z" />
    <glyph glyph-name="Imacron" unicode="&#x12a;" horiz-adv-x="346" 
d="M30 -4q-4 4 -4 16q0 21 3 21q8 0 23 4t28 10t15 11q4 14 5.5 34t1.5 46v384q0 64 -8 78q-3 6 -15.5 11.5t-25.5 9.5t-21 4q-4 0 -4 17q0 18 2 20l48 -3q22 -2 36 -3t27.5 -0.5t33.5 0.5t140 6q3 -9 3 -18q0 -19 -4 -19q-6 0 -21 -4t-28.5 -9.5t-15.5 -10.5
q-3 -12 -5 -33.5t-2 -36.5v-385q0 -28 2 -50t6 -38q2 -4 14.5 -10t27 -10.5t20.5 -4.5q4 0 4 -19q0 -10 -2 -18q-4 0 -19 1t-41 3t-46 3t-33 1q-18 0 -49 -2t-58.5 -3.5t-37.5 -2.5zM36 735l-5 2q-1 2 -1 9q3 58 15 58h287q6 0 6 -10q-1 -11 -1.5 -20t-2.5 -16
q-5 -15 -7 -19l-3 -4h-288z" />
    <glyph glyph-name="Iogonek" unicode="&#x12e;" horiz-adv-x="346" 
d="M30 -4q-4 4 -4 16q0 21 3 21q8 0 23 4t28 10t15 11q4 14 5.5 34t1.5 46v384q0 64 -8 78q-3 6 -15.5 11.5t-25.5 9.5t-21 4q-4 0 -4 17q0 18 2 20l48 -3q22 -2 36 -3t27.5 -0.5t33.5 0.5t140 6q3 -9 3 -18q0 -19 -4 -19q-6 0 -21 -4t-28.5 -9.5t-15.5 -10.5
q-3 -12 -5 -33.5t-2 -36.5v-385q0 -28 2 -50t6 -38q2 -4 14.5 -10t27 -10.5t20.5 -4.5q4 0 4 -19q0 -10 -2 -18q-4 0 -19 1t-41 3t-46 3t-33 1q-18 0 -49 -2t-58.5 -3.5t-37.5 -2.5zM144 -213q-29 0 -55 21t-26 57q0 27 20 56.5t51 53.5t62 33l42 -3q-91 -55 -91 -110
q0 -15 12 -23.5t29 -8.5q19 0 43.5 11.5t36.5 21.5q5 0 5 -18q0 -14 -6 -22q-11 -14 -31 -30.5t-43.5 -27.5t-48.5 -11z" />
    <glyph glyph-name="Itilde" unicode="&#x128;" horiz-adv-x="346" 
d="M30 -4q-4 4 -4 16q0 21 3 21q8 0 23 4t28 10t15 11q4 14 5.5 34t1.5 46v384q0 64 -8 78q-3 6 -15.5 11.5t-25.5 9.5t-21 4q-4 0 -4 17q0 18 2 20l48 -3q22 -2 36 -3t27.5 -0.5t33.5 0.5t140 6q3 -9 3 -18q0 -19 -4 -19q-6 0 -21 -4t-28.5 -9.5t-15.5 -10.5
q-3 -12 -5 -33.5t-2 -36.5v-385q0 -28 2 -50t6 -38q2 -4 14.5 -10t27 -10.5t20.5 -4.5q4 0 4 -19q0 -10 -2 -18q-4 0 -19 1t-41 3t-46 3t-33 1q-18 0 -49 -2t-58.5 -3.5t-37.5 -2.5zM257 728q-38 0 -96 34t-96 34q-19 0 -44 -28q-26 -29 -30 -29q-8 0 -8 22q0 25 18 50
q38 51 88 51q38 0 96 -34t96 -34q19 0 43 29q24 28 29 28q8 0 8 -22q0 -25 -18 -51q-35 -50 -86 -50z" />
    <glyph glyph-name="J" unicode="J" horiz-adv-x="370" 
d="M-28 -218q-34 0 -57 18q-15 24 -15 52q0 25 19 43t44 18q24 0 52 -31q27 -30 41 -30q45 0 58 70q7 35 10.5 88.5t3.5 124.5v387q0 64 -8 78q-3 6 -15.5 11.5t-25.5 9.5t-21 4q-4 0 -4 17q0 18 2 20l145 -6q10 -1 45 1t95 5q3 -9 3 -18q0 -19 -4 -19q-6 0 -21 -4
t-28.5 -9.5t-15.5 -10.5q-7 -25 -7 -85v-373q0 -113 -36 -194t-102 -124t-158 -43z" />
    <glyph glyph-name="Jcircumflex" unicode="&#x134;" horiz-adv-x="370" 
d="M-28 -218q-34 0 -57 18q-15 24 -15 52q0 25 19 43t44 18q24 0 52 -31q27 -30 41 -30q45 0 58 70q7 35 10.5 88.5t3.5 124.5v387q0 64 -8 78q-3 6 -15.5 11.5t-25.5 9.5t-21 4q-4 0 -4 17q0 18 2 20l145 -6q10 -1 45 1t95 5q3 -9 3 -18q0 -19 -4 -19q-6 0 -21 -4
t-28.5 -9.5t-15.5 -10.5q-7 -25 -7 -85v-373q0 -113 -36 -194t-102 -124t-158 -43zM82 729q-10 0 -10 19q14 11 32.5 27t40.5 38q11 10 21.5 22t21.5 26q8 9 13 9q6 0 15 -9l15 -17q7 -7 13 -14t12 -13q24 -24 43 -41t33 -28q0 -19 -10 -19q-6 0 -28 10.5t-48 25.5t-44 26
q-17 -11 -43.5 -26t-48.5 -25.5t-28 -10.5z" />
    <glyph glyph-name="K" unicode="K" horiz-adv-x="720" 
d="M30 -4q-4 4 -4 16q0 21 3 21q8 0 23 4t28 10t15 11q4 14 5.5 34t1.5 46v384q0 64 -8 78q-3 6 -15.5 11.5t-25.5 9.5t-21 4q-4 0 -4 17q0 18 2 20l145 -6q10 -1 45 1t95 5q3 -9 3 -18q0 -19 -4 -19q-6 0 -21 -4t-28.5 -9.5t-15.5 -10.5q-7 -25 -7 -85v-158q0 -8 6 -8h8
q6 0 44 38q43 44 88.5 93.5t93.5 104.5q8 11 8 23q0 7 -10.5 10.5t-24.5 5.5t-25 2q-4 0 -6 14t0 21q111 -6 134 -6q12 0 132 6q2 -4 1.5 -19t-3.5 -16l-6 -1q-10 0 -21.5 -1.5t-21.5 -3.5q-13 -3 -34.5 -12.5t-32.5 -22.5l-172 -190q-12 -13 -1 -29l237 -309
q11 -13 34.5 -19t35.5 -6q4 0 4 -19q0 -11 -4 -18l-63 4q-31 2 -53 3t-35 1q-27 0 -62.5 -2t-79.5 -6q-4 4 -4 21q0 16 4 16q11 0 29 6t18 14q0 33 -178 233q-3 3 -14 3q-26 0 -26 -17v-126q0 -28 2 -50t6 -38q2 -4 14.5 -10t27 -10.5t20.5 -4.5q4 0 4 -19q0 -10 -2 -18
q-4 0 -19 1t-41 3t-46 3t-33 1q-18 0 -49 -2t-58.5 -3.5t-37.5 -2.5z" />
    <glyph glyph-name="uni1E30" unicode="&#x1e30;" horiz-adv-x="720" 
d="M30 -4q-4 4 -4 16q0 21 3 21q8 0 23 4t28 10t15 11q4 14 5.5 34t1.5 46v384q0 64 -8 78q-3 6 -15.5 11.5t-25.5 9.5t-21 4q-4 0 -4 17q0 18 2 20l145 -6q10 -1 45 1t95 5q3 -9 3 -18q0 -19 -4 -19q-6 0 -21 -4t-28.5 -9.5t-15.5 -10.5q-7 -25 -7 -85v-158q0 -8 6 -8h8
q6 0 44 38q43 44 88.5 93.5t93.5 104.5q8 11 8 23q0 7 -10.5 10.5t-24.5 5.5t-25 2q-4 0 -6 14t0 21q111 -6 134 -6q12 0 132 6q2 -4 1.5 -19t-3.5 -16l-6 -1q-10 0 -21.5 -1.5t-21.5 -3.5q-13 -3 -34.5 -12.5t-32.5 -22.5l-172 -190q-12 -13 -1 -29l237 -309
q11 -13 34.5 -19t35.5 -6q4 0 4 -19q0 -11 -4 -18l-63 4q-31 2 -53 3t-35 1q-27 0 -62.5 -2t-79.5 -6q-4 4 -4 21q0 16 4 16q11 0 29 6t18 14q0 33 -178 233q-3 3 -14 3q-26 0 -26 -17v-126q0 -28 2 -50t6 -38q2 -4 14.5 -10t27 -10.5t20.5 -4.5q4 0 4 -19q0 -10 -2 -18
q-4 0 -19 1t-41 3t-46 3t-33 1q-18 0 -49 -2t-58.5 -3.5t-37.5 -2.5zM339 729q-5 0 -9.5 7.5t-4.5 12.5q0 3 12.5 16.5t31 32.5t39.5 37.5t37 30.5q7 4 18 4q18 0 37 -9.5t19 -28.5q0 -10 -16 -23t-40.5 -27t-50 -26t-46 -19.5t-27.5 -7.5z" />
    <glyph glyph-name="uni0136" unicode="&#x136;" horiz-adv-x="720" 
d="M30 -4q-4 4 -4 16q0 21 3 21q8 0 23 4t28 10t15 11q4 14 5.5 34t1.5 46v384q0 64 -8 78q-3 6 -15.5 11.5t-25.5 9.5t-21 4q-4 0 -4 17q0 18 2 20l145 -6q10 -1 45 1t95 5q3 -9 3 -18q0 -19 -4 -19q-6 0 -21 -4t-28.5 -9.5t-15.5 -10.5q-7 -25 -7 -85v-158q0 -8 6 -8h8
q6 0 44 38q43 44 88.5 93.5t93.5 104.5q8 11 8 23q0 7 -10.5 10.5t-24.5 5.5t-25 2q-4 0 -6 14t0 21q111 -6 134 -6q12 0 132 6q2 -4 1.5 -19t-3.5 -16l-6 -1q-10 0 -21.5 -1.5t-21.5 -3.5q-13 -3 -34.5 -12.5t-32.5 -22.5l-172 -190q-12 -13 -1 -29l237 -309
q11 -13 34.5 -19t35.5 -6q4 0 4 -19q0 -11 -4 -18l-63 4q-31 2 -53 3t-35 1q-27 0 -62.5 -2t-79.5 -6q-4 4 -4 21q0 16 4 16q11 0 29 6t18 14q0 33 -178 233q-3 3 -14 3q-26 0 -26 -17v-126q0 -28 2 -50t6 -38q2 -4 14.5 -10t27 -10.5t20.5 -4.5q4 0 4 -19q0 -10 -2 -18
q-4 0 -19 1t-41 3t-46 3t-33 1q-18 0 -49 -2t-58.5 -3.5t-37.5 -2.5zM338 -218q-5 0 -15.5 6t-10.5 10q13 9 27 20.5t14 25.5q0 18 -22 31q-23 14 -23 32q0 25 31.5 37.5t71.5 12.5q22 -19 22 -62q0 -37 -29 -68t-63 -45h-3z" />
    <glyph glyph-name="uni1E32" unicode="&#x1e32;" horiz-adv-x="720" 
d="M30 -4q-4 4 -4 16q0 21 3 21q8 0 23 4t28 10t15 11q4 14 5.5 34t1.5 46v384q0 64 -8 78q-3 6 -15.5 11.5t-25.5 9.5t-21 4q-4 0 -4 17q0 18 2 20l145 -6q10 -1 45 1t95 5q3 -9 3 -18q0 -19 -4 -19q-6 0 -21 -4t-28.5 -9.5t-15.5 -10.5q-7 -25 -7 -85v-158q0 -8 6 -8h8
q6 0 44 38q43 44 88.5 93.5t93.5 104.5q8 11 8 23q0 7 -10.5 10.5t-24.5 5.5t-25 2q-4 0 -6 14t0 21q111 -6 134 -6q12 0 132 6q2 -4 1.5 -19t-3.5 -16l-6 -1q-10 0 -21.5 -1.5t-21.5 -3.5q-13 -3 -34.5 -12.5t-32.5 -22.5l-172 -190q-12 -13 -1 -29l237 -309
q11 -13 34.5 -19t35.5 -6q4 0 4 -19q0 -11 -4 -18l-63 4q-31 2 -53 3t-35 1q-27 0 -62.5 -2t-79.5 -6q-4 4 -4 21q0 16 4 16q11 0 29 6t18 14q0 33 -178 233q-3 3 -14 3q-26 0 -26 -17v-126q0 -28 2 -50t6 -38q2 -4 14.5 -10t27 -10.5t20.5 -4.5q4 0 4 -19q0 -10 -2 -18
q-4 0 -19 1t-41 3t-46 3t-33 1q-18 0 -49 -2t-58.5 -3.5t-37.5 -2.5zM371 -200q-31 0 -53 21.5t-22 52.5q0 32 22 53.5t53 21.5t52.5 -21.5t21.5 -53.5q0 -31 -21.5 -52.5t-52.5 -21.5z" />
    <glyph glyph-name="Kmacronbelow" unicode="&#x1e34;" horiz-adv-x="720" 
d="M30 -4q-4 4 -4 16q0 21 3 21q8 0 23 4t28 10t15 11q4 14 5.5 34t1.5 46v384q0 64 -8 78q-3 6 -15.5 11.5t-25.5 9.5t-21 4q-4 0 -4 17q0 18 2 20l145 -6q10 -1 45 1t95 5q3 -9 3 -18q0 -19 -4 -19q-6 0 -21 -4t-28.5 -9.5t-15.5 -10.5q-7 -25 -7 -85v-158q0 -8 6 -8h8
q6 0 44 38q43 44 88.5 93.5t93.5 104.5q8 11 8 23q0 7 -10.5 10.5t-24.5 5.5t-25 2q-4 0 -6 14t0 21q111 -6 134 -6q12 0 132 6q2 -4 1.5 -19t-3.5 -16l-6 -1q-10 0 -21.5 -1.5t-21.5 -3.5q-13 -3 -34.5 -12.5t-32.5 -22.5l-172 -190q-12 -13 -1 -29l237 -309
q11 -13 34.5 -19t35.5 -6q4 0 4 -19q0 -11 -4 -18l-63 4q-31 2 -53 3t-35 1q-27 0 -62.5 -2t-79.5 -6q-4 4 -4 21q0 16 4 16q11 0 29 6t18 14q0 33 -178 233q-3 3 -14 3q-26 0 -26 -17v-126q0 -28 2 -50t6 -38q2 -4 14.5 -10t27 -10.5t20.5 -4.5q4 0 4 -19q0 -10 -2 -18
q-4 0 -19 1t-41 3t-46 3t-33 1q-18 0 -49 -2t-58.5 -3.5t-37.5 -2.5zM218 -133l-5 2q-1 2 -1 9q3 58 15 58h287q6 0 6 -10q-1 -11 -1.5 -20t-2.5 -16q-5 -15 -7 -19l-3 -4h-288z" />
    <glyph glyph-name="L" unicode="L" horiz-adv-x="598" 
d="M30 -4q-4 4 -4 17q0 20 4 20q8 0 23 3t28 8.5t15 10.5q6 23 6 88v382q0 61 -8 75q-3 6 -15.5 11.5t-25.5 9.5t-21 4q-4 0 -4 17q0 18 2 20l145 -6q10 -1 45 1t95 5q3 -9 3 -18q0 -19 -4 -19q-6 0 -21 -4t-28.5 -9.5t-15.5 -10.5q-4 -13 -5.5 -33.5t-1.5 -46.5v-379
q0 -48 8 -72q4 -16 68 -16h26q62 0 112 26q17 9 38.5 34t33.5 56q2 6 14 6q24 0 30 -6q-50 -138 -54 -172q-28 0 -72.5 0.5t-105.5 1.5t-101.5 2t-62.5 0z" />
    <glyph glyph-name="Lacute" unicode="&#x139;" horiz-adv-x="598" 
d="M30 -4q-4 4 -4 17q0 20 4 20q8 0 23 3t28 8.5t15 10.5q6 23 6 88v382q0 61 -8 75q-3 6 -15.5 11.5t-25.5 9.5t-21 4q-4 0 -4 17q0 18 2 20l145 -6q10 -1 45 1t95 5q3 -9 3 -18q0 -19 -4 -19q-6 0 -21 -4t-28.5 -9.5t-15.5 -10.5q-4 -13 -5.5 -33.5t-1.5 -46.5v-379
q0 -48 8 -72q4 -16 68 -16h26q62 0 112 26q17 9 38.5 34t33.5 56q2 6 14 6q24 0 30 -6q-50 -138 -54 -172q-28 0 -72.5 0.5t-105.5 1.5t-101.5 2t-62.5 0zM111 729q-5 0 -9.5 7.5t-4.5 12.5q0 3 12.5 16.5t31 32.5t39.5 37.5t37 30.5q7 4 18 4q18 0 37 -9.5t19 -28.5
q0 -10 -16 -23t-40.5 -27t-50 -26t-46 -19.5t-27.5 -7.5z" />
    <glyph glyph-name="Lcaron" unicode="&#x13d;" horiz-adv-x="598" 
d="M30 -4q-4 4 -4 17q0 20 4 20q8 0 23 3t28 8.5t15 10.5q6 23 6 88v382q0 61 -8 75q-3 6 -15.5 11.5t-25.5 9.5t-21 4q-4 0 -4 17q0 18 2 20l145 -6q10 -1 45 1t95 5q3 -9 3 -18q0 -19 -4 -19q-6 0 -21 -4t-28.5 -9.5t-15.5 -10.5q-4 -13 -5.5 -33.5t-1.5 -46.5v-379
q0 -48 8 -72q4 -16 68 -16h26q62 0 112 26q17 9 38.5 34t33.5 56q2 6 14 6q24 0 30 -6q-50 -138 -54 -172q-28 0 -72.5 0.5t-105.5 1.5t-101.5 2t-62.5 0zM477 468q-5 0 -14.5 9.5t-9.5 13.5q0 3 12 13t23.5 26t11.5 36q0 13 -18 34q-18 20 -18 45q0 23 13 33.5t33.5 13.5
t42.5 3q14 -26 14 -71q0 -30 -13 -61t-33 -56t-42 -39h-2z" />
    <glyph glyph-name="uni1E3C" unicode="&#x1e3c;" horiz-adv-x="598" 
d="M30 -4q-4 4 -4 17q0 20 4 20q8 0 23 3t28 8.5t15 10.5q6 23 6 88v382q0 61 -8 75q-3 6 -15.5 11.5t-25.5 9.5t-21 4q-4 0 -4 17q0 18 2 20l145 -6q10 -1 45 1t95 5q3 -9 3 -18q0 -19 -4 -19q-6 0 -21 -4t-28.5 -9.5t-15.5 -10.5q-4 -13 -5.5 -33.5t-1.5 -46.5v-379
q0 -48 8 -72q4 -16 68 -16h26q62 0 112 26q17 9 38.5 34t33.5 56q2 6 14 6q24 0 30 -6q-50 -138 -54 -172q-28 0 -72.5 0.5t-105.5 1.5t-101.5 2t-62.5 0zM179 -201q-10 0 -10 19q14 11 32.5 27t40.5 38q11 10 21.5 22t21.5 26q8 9 13 9q6 0 15 -9l15 -17q7 -7 13 -14
t12 -13q24 -24 43 -41t33 -28q0 -19 -10 -19q-6 0 -28 10.5t-48 25.5t-44 26q-17 -11 -43.5 -26t-48.5 -25.5t-28 -10.5z" />
    <glyph glyph-name="uni013B" unicode="&#x13b;" horiz-adv-x="598" 
d="M30 -4q-4 4 -4 17q0 20 4 20q8 0 23 3t28 8.5t15 10.5q6 23 6 88v382q0 61 -8 75q-3 6 -15.5 11.5t-25.5 9.5t-21 4q-4 0 -4 17q0 18 2 20l145 -6q10 -1 45 1t95 5q3 -9 3 -18q0 -19 -4 -19q-6 0 -21 -4t-28.5 -9.5t-15.5 -10.5q-4 -13 -5.5 -33.5t-1.5 -46.5v-379
q0 -48 8 -72q4 -16 68 -16h26q62 0 112 26q17 9 38.5 34t33.5 56q2 6 14 6q24 0 30 -6q-50 -138 -54 -172q-28 0 -72.5 0.5t-105.5 1.5t-101.5 2t-62.5 0zM266 -218q-5 0 -15.5 6t-10.5 10q13 9 27 20.5t14 25.5q0 18 -22 31q-23 14 -23 32q0 25 31.5 37.5t71.5 12.5
q22 -19 22 -62q0 -37 -29 -68t-63 -45h-3z" />
    <glyph glyph-name="Ldot" unicode="&#x13f;" horiz-adv-x="598" 
d="M30 -4q-4 4 -4 17q0 20 4 20q8 0 23 3t28 8.5t15 10.5q6 23 6 88v382q0 61 -8 75q-3 6 -15.5 11.5t-25.5 9.5t-21 4q-4 0 -4 17q0 18 2 20l145 -6q10 -1 45 1t95 5q3 -9 3 -18q0 -19 -4 -19q-6 0 -21 -4t-28.5 -9.5t-15.5 -10.5q-4 -13 -5.5 -33.5t-1.5 -46.5v-379
q0 -48 8 -72q4 -16 68 -16h26q62 0 112 26q17 9 38.5 34t33.5 56q2 6 14 6q24 0 30 -6q-50 -138 -54 -172q-28 0 -72.5 0.5t-105.5 1.5t-101.5 2t-62.5 0zM473 273q-37 0 -56 24t-19 52t18 51t55 23q30 0 51.5 -21.5t21.5 -51.5q0 -31 -20.5 -54t-50.5 -23z" />
    <glyph glyph-name="uni1E36" unicode="&#x1e36;" horiz-adv-x="598" 
d="M30 -4q-4 4 -4 17q0 20 4 20q8 0 23 3t28 8.5t15 10.5q6 23 6 88v382q0 61 -8 75q-3 6 -15.5 11.5t-25.5 9.5t-21 4q-4 0 -4 17q0 18 2 20l145 -6q10 -1 45 1t95 5q3 -9 3 -18q0 -19 -4 -19q-6 0 -21 -4t-28.5 -9.5t-15.5 -10.5q-4 -13 -5.5 -33.5t-1.5 -46.5v-379
q0 -48 8 -72q4 -16 68 -16h26q62 0 112 26q17 9 38.5 34t33.5 56q2 6 14 6q24 0 30 -6q-50 -138 -54 -172q-28 0 -72.5 0.5t-105.5 1.5t-101.5 2t-62.5 0zM299 -200q-31 0 -53 21.5t-22 52.5q0 32 22 53.5t53 21.5t52.5 -21.5t21.5 -53.5q0 -31 -21.5 -52.5t-52.5 -21.5z
" />
    <glyph glyph-name="uni1E38" unicode="&#x1e38;" horiz-adv-x="598" 
d="M30 -4q-4 4 -4 17q0 20 4 20q8 0 23 3t28 8.5t15 10.5q6 23 6 88v382q0 61 -8 75q-3 6 -15.5 11.5t-25.5 9.5t-21 4q-4 0 -4 17q0 18 2 20l145 -6q10 -1 45 1t95 5q3 -9 3 -18q0 -19 -4 -19q-6 0 -21 -4t-28.5 -9.5t-15.5 -10.5q-4 -13 -5.5 -33.5t-1.5 -46.5v-379
q0 -48 8 -72q4 -16 68 -16h26q62 0 112 26q17 9 38.5 34t33.5 56q2 6 14 6q24 0 30 -6q-50 -138 -54 -172q-28 0 -72.5 0.5t-105.5 1.5t-101.5 2t-62.5 0zM299 -200q-31 0 -53 21.5t-22 52.5q0 32 22 53.5t53 21.5t52.5 -21.5t21.5 -53.5q0 -31 -21.5 -52.5t-52.5 -21.5z
M17 735l-5 2q-1 2 -1 9q3 58 15 58h287q6 0 6 -10q-1 -11 -1.5 -20t-2.5 -16q-5 -15 -7 -19l-3 -4h-288z" />
    <glyph glyph-name="Lmacronbelow" unicode="&#x1e3a;" horiz-adv-x="598" 
d="M30 -4q-4 4 -4 17q0 20 4 20q8 0 23 3t28 8.5t15 10.5q6 23 6 88v382q0 61 -8 75q-3 6 -15.5 11.5t-25.5 9.5t-21 4q-4 0 -4 17q0 18 2 20l145 -6q10 -1 45 1t95 5q3 -9 3 -18q0 -19 -4 -19q-6 0 -21 -4t-28.5 -9.5t-15.5 -10.5q-4 -13 -5.5 -33.5t-1.5 -46.5v-379
q0 -48 8 -72q4 -16 68 -16h26q62 0 112 26q17 9 38.5 34t33.5 56q2 6 14 6q24 0 30 -6q-50 -138 -54 -172q-28 0 -72.5 0.5t-105.5 1.5t-101.5 2t-62.5 0zM151 -134l-5 2q-1 2 -1 9q3 58 15 58h287q6 0 6 -10q-1 -11 -1.5 -20t-2.5 -16q-5 -15 -7 -19l-3 -4h-288z" />
    <glyph glyph-name="Lslash" unicode="&#x141;" horiz-adv-x="588" 
d="M30 -4q-4 4 -4 17q0 20 4 20q8 0 23 3t28 8.5t15 10.5q6 23 6 88v80l-66 -45q-27 28 -20 34l86 60v253q0 61 -8 75q-3 6 -15.5 11.5t-25.5 9.5t-21 4q-4 0 -4 17q0 18 2 20l145 -6q20 0 140 6q3 -9 3 -18q0 -19 -4 -19q-6 0 -21 -4t-28.5 -9.5t-15.5 -10.5
q-4 -13 -5.5 -33.5t-1.5 -46.5v-152l126 87q27 -28 21 -34l-147 -102v-178q0 -48 8 -72q4 -16 68 -16h26q62 0 112 26q17 9 38.5 34t33.5 56q2 6 14 6q24 0 30 -6q-50 -138 -54 -172q-28 0 -72.5 0.5t-105.5 1.5t-101.5 1.5t-62.5 0.5z" />
    <glyph glyph-name="M" unicode="M" horiz-adv-x="907" 
d="M19 -4q-4 4 -4 17q0 19 3 19q12 0 35.5 7t44 18.5t21.5 25.5l4 48q11 179 13 298t5 158q0 11 -3 18q-2 6 -17 10.5t-31.5 7.5t-25.5 3q-4 0 -4 21q0 11 4 15q10 0 30.5 -1.5t44 -3t40.5 -1.5q14 0 35.5 1.5t41.5 3t28 1.5q5 -16 25.5 -63t56.5 -125q36 -79 63 -139.5
t44 -104.5h2q2 0 2 1q38 95 69 174t53 141l33 112q9 -1 29.5 -1.5t51.5 -0.5l126 6q4 -5 4 -16q0 -21 -5 -21h-1q-25 0 -42 -12q-16 -11 -14 -41l20 -420q3 -60 15 -92q3 -6 14.5 -12t24.5 -10.5t19 -4.5q4 0 4 -20q0 -9 -2 -17q-7 1 -31 2.5t-51 3.5t-45 2t-49 -2
t-58.5 -3.5t-37.5 -2.5q-5 5 -5 16q0 21 3 21q8 0 21 4.5t25.5 11t15.5 12.5q8 16 8 28q0 11 -0.5 26t-1.5 33l-8 254q-4 67 -8 67q-2 0 -5 -7l-173 -431q-4 -10 -16 -21.5t-24 -11.5q-1 0 -9 2l-220 494l-17 -385v-23t1 -13q2 -6 14.5 -13t29.5 -13t32.5 -10t21.5 -4
q4 0 4 -20q0 -9 -2 -17q-60 0 -90.5 1t-43.5 2t-19 1.5t-15 0.5t-32 -1t-72 -4z" />
    <glyph glyph-name="uni1E3E" unicode="&#x1e3e;" horiz-adv-x="907" 
d="M19 -4q-4 4 -4 17q0 19 3 19q12 0 35.5 7t44 18.5t21.5 25.5l4 48q11 179 13 298t5 158q0 11 -3 18q-2 6 -17 10.5t-31.5 7.5t-25.5 3q-4 0 -4 21q0 11 4 15q10 0 30.5 -1.5t44 -3t40.5 -1.5q14 0 35.5 1.5t41.5 3t28 1.5q5 -16 25.5 -63t56.5 -125q36 -79 63 -139.5
t44 -104.5h2q2 0 2 1q38 95 69 174t53 141l33 112q9 -1 29.5 -1.5t51.5 -0.5l126 6q4 -5 4 -16q0 -21 -5 -21h-1q-25 0 -42 -12q-16 -11 -14 -41l20 -420q3 -60 15 -92q3 -6 14.5 -12t24.5 -10.5t19 -4.5q4 0 4 -20q0 -9 -2 -17q-7 1 -31 2.5t-51 3.5t-45 2t-49 -2
t-58.5 -3.5t-37.5 -2.5q-5 5 -5 16q0 21 3 21q8 0 21 4.5t25.5 11t15.5 12.5q8 16 8 28q0 11 -0.5 26t-1.5 33l-8 254q-4 67 -8 67q-2 0 -5 -7l-173 -431q-4 -10 -16 -21.5t-24 -11.5q-1 0 -9 2l-220 494l-17 -385v-23t1 -13q2 -6 14.5 -13t29.5 -13t32.5 -10t21.5 -4
q4 0 4 -20q0 -9 -2 -17q-60 0 -90.5 1t-43.5 2t-19 1.5t-15 0.5t-32 -1t-72 -4zM403 729q-5 0 -9.5 7.5t-4.5 12.5q0 3 12.5 16.5t31 32.5t39.5 37.5t37 30.5q7 4 18 4q18 0 37 -9.5t19 -28.5q0 -10 -16 -23t-40.5 -27t-50 -26t-46 -19.5t-27.5 -7.5z" />
    <glyph glyph-name="uni1E40" unicode="&#x1e40;" horiz-adv-x="907" 
d="M19 -4q-4 4 -4 17q0 19 3 19q12 0 35.5 7t44 18.5t21.5 25.5l4 48q11 179 13 298t5 158q0 11 -3 18q-2 6 -17 10.5t-31.5 7.5t-25.5 3q-4 0 -4 21q0 11 4 15q10 0 30.5 -1.5t44 -3t40.5 -1.5q14 0 35.5 1.5t41.5 3t28 1.5q5 -16 25.5 -63t56.5 -125q36 -79 63 -139.5
t44 -104.5h2q2 0 2 1q38 95 69 174t53 141l33 112q9 -1 29.5 -1.5t51.5 -0.5l126 6q4 -5 4 -16q0 -21 -5 -21h-1q-25 0 -42 -12q-16 -11 -14 -41l20 -420q3 -60 15 -92q3 -6 14.5 -12t24.5 -10.5t19 -4.5q4 0 4 -20q0 -9 -2 -17q-7 1 -31 2.5t-51 3.5t-45 2t-49 -2
t-58.5 -3.5t-37.5 -2.5q-5 5 -5 16q0 21 3 21q8 0 21 4.5t25.5 11t15.5 12.5q8 16 8 28q0 11 -0.5 26t-1.5 33l-8 254q-4 67 -8 67q-2 0 -5 -7l-173 -431q-4 -10 -16 -21.5t-24 -11.5q-1 0 -9 2l-220 494l-17 -385v-23t1 -13q2 -6 14.5 -13t29.5 -13t32.5 -10t21.5 -4
q4 0 4 -20q0 -9 -2 -17q-60 0 -90.5 1t-43.5 2t-19 1.5t-15 0.5t-32 -1t-72 -4zM448 768q-31 0 -52.5 21.5t-21.5 52.5t21.5 52.5t52.5 21.5t52.5 -21.5t21.5 -52.5t-21.5 -52.5t-52.5 -21.5z" />
    <glyph glyph-name="uni1E42" unicode="&#x1e42;" horiz-adv-x="907" 
d="M19 -4q-4 4 -4 17q0 19 3 19q12 0 35.5 7t44 18.5t21.5 25.5l4 48q11 179 13 298t5 158q0 11 -3 18q-2 6 -17 10.5t-31.5 7.5t-25.5 3q-4 0 -4 21q0 11 4 15q10 0 30.5 -1.5t44 -3t40.5 -1.5q14 0 35.5 1.5t41.5 3t28 1.5q5 -16 25.5 -63t56.5 -125q36 -79 63 -139.5
t44 -104.5h2q2 0 2 1q38 95 69 174t53 141l33 112q9 -1 29.5 -1.5t51.5 -0.5l126 6q4 -5 4 -16q0 -21 -5 -21h-1q-25 0 -42 -12q-16 -11 -14 -41l20 -420q3 -60 15 -92q3 -6 14.5 -12t24.5 -10.5t19 -4.5q4 0 4 -20q0 -9 -2 -17q-7 1 -31 2.5t-51 3.5t-45 2t-49 -2
t-58.5 -3.5t-37.5 -2.5q-5 5 -5 16q0 21 3 21q8 0 21 4.5t25.5 11t15.5 12.5q8 16 8 28q0 11 -0.5 26t-1.5 33l-8 254q-4 67 -8 67q-2 0 -5 -7l-173 -431q-4 -10 -16 -21.5t-24 -11.5q-1 0 -9 2l-220 494l-17 -385v-23t1 -13q2 -6 14.5 -13t29.5 -13t32.5 -10t21.5 -4
q4 0 4 -20q0 -9 -2 -17q-60 0 -90.5 1t-43.5 2t-19 1.5t-15 0.5t-32 -1t-72 -4zM448 -200q-31 0 -53 21.5t-22 52.5q0 32 22 53.5t53 21.5t52.5 -21.5t21.5 -53.5q0 -31 -21.5 -52.5t-52.5 -21.5z" />
    <glyph glyph-name="N" unicode="N" horiz-adv-x="777" 
d="M628 -5q-11 0 -31 23l-407 506v-383q0 -53 8 -71q6 -11 24 -19.5t37 -12.5t29 -4q2 0 3 -8.5t1 -17.5t-2 -12q-48 0 -81.5 4t-53.5 4q-24 0 -38 -1t-31.5 -3t-54.5 -4q-3 3 -3 18q0 19 3 19q23 0 48.5 9.5t36.5 28.5q10 16 10 73v393q0 52 -15 71q-3 5 -18.5 8.5t-33 6
t-27.5 2.5q-2 0 -3.5 8t-1 17.5t2.5 11.5l64 -4q23 -2 41.5 -3t31.5 -1q17 0 41.5 2t56.5 6q20 -40 55.5 -88t80 -101.5t92 -110.5t90.5 -114q1 4 1.5 14t0.5 27v235q0 58 -13 72q-6 8 -21.5 14.5t-32 10.5t-24.5 4q-2 0 -3.5 8t-1.5 17.5t2 11.5q46 -4 79 -6t53 -2
q17 0 43 2t49.5 4t31.5 2q4 -7 4 -18q0 -19 -5 -19q-54 0 -83 -33q-14 -17 -14 -73v-380q0 -18 1 -53t3 -87q-4 -4 -25 -4z" />
    <glyph glyph-name="Nacute" unicode="&#x143;" horiz-adv-x="777" 
d="M628 -5q-11 0 -31 23l-407 506v-383q0 -53 8 -71q6 -11 24 -19.5t37 -12.5t29 -4q2 0 3 -8.5t1 -17.5t-2 -12q-48 0 -81.5 4t-53.5 4q-24 0 -38 -1t-31.5 -3t-54.5 -4q-3 3 -3 18q0 19 3 19q23 0 48.5 9.5t36.5 28.5q10 16 10 73v393q0 52 -15 71q-3 5 -18.5 8.5t-33 6
t-27.5 2.5q-2 0 -3.5 8t-1 17.5t2.5 11.5l64 -4q23 -2 41.5 -3t31.5 -1q17 0 41.5 2t56.5 6q20 -40 55.5 -88t80 -101.5t92 -110.5t90.5 -114q1 4 1.5 14t0.5 27v235q0 58 -13 72q-6 8 -21.5 14.5t-32 10.5t-24.5 4q-2 0 -3.5 8t-1.5 17.5t2 11.5q46 -4 79 -6t53 -2
q17 0 43 2t49.5 4t31.5 2q4 -7 4 -18q0 -19 -5 -19q-54 0 -83 -33q-14 -17 -14 -73v-380q0 -18 1 -53t3 -87q-4 -4 -25 -4zM344 729q-5 0 -9.5 7.5t-4.5 12.5q0 3 12.5 16.5t31 32.5t39.5 37.5t37 30.5q7 4 18 4q18 0 37 -9.5t19 -28.5q0 -10 -16 -23t-40.5 -27t-50 -26
t-46 -19.5t-27.5 -7.5z" />
    <glyph glyph-name="Ncaron" unicode="&#x147;" horiz-adv-x="777" 
d="M628 -5q-11 0 -31 23l-407 506v-383q0 -53 8 -71q6 -11 24 -19.5t37 -12.5t29 -4q2 0 3 -8.5t1 -17.5t-2 -12q-48 0 -81.5 4t-53.5 4q-24 0 -38 -1t-31.5 -3t-54.5 -4q-3 3 -3 18q0 19 3 19q23 0 48.5 9.5t36.5 28.5q10 16 10 73v393q0 52 -15 71q-3 5 -18.5 8.5t-33 6
t-27.5 2.5q-2 0 -3.5 8t-1 17.5t2.5 11.5l64 -4q23 -2 41.5 -3t31.5 -1q17 0 41.5 2t56.5 6q20 -40 55.5 -88t80 -101.5t92 -110.5t90.5 -114q1 4 1.5 14t0.5 27v235q0 58 -13 72q-6 8 -21.5 14.5t-32 10.5t-24.5 4q-2 0 -3.5 8t-1.5 17.5t2 11.5q46 -4 79 -6t53 -2
q17 0 43 2t49.5 4t31.5 2q4 -7 4 -18q0 -19 -5 -19q-54 0 -83 -33q-14 -17 -14 -73v-380q0 -18 1 -53t3 -87q-4 -4 -25 -4zM387 728q-5 0 -13 9q-9 11 -19.5 22.5t-23.5 24.5q-25 24 -43 40.5t-30 25.5q0 19 10 19q6 0 28 -10.5t48.5 -25t43.5 -26.5q18 12 44 26.5t48.5 25
t27.5 10.5q10 0 10 -19q-12 -9 -31 -26t-45 -44l-40 -43q-9 -9 -15 -9z" />
    <glyph glyph-name="uni1E4A" unicode="&#x1e4a;" horiz-adv-x="777" 
d="M628 -5q-11 0 -31 23l-407 506v-383q0 -53 8 -71q6 -11 24 -19.5t37 -12.5t29 -4q2 0 3 -8.5t1 -17.5t-2 -12q-48 0 -81.5 4t-53.5 4q-24 0 -38 -1t-31.5 -3t-54.5 -4q-3 3 -3 18q0 19 3 19q23 0 48.5 9.5t36.5 28.5q10 16 10 73v393q0 52 -15 71q-3 5 -18.5 8.5t-33 6
t-27.5 2.5q-2 0 -3.5 8t-1 17.5t2.5 11.5l64 -4q23 -2 41.5 -3t31.5 -1q17 0 41.5 2t56.5 6q20 -40 55.5 -88t80 -101.5t92 -110.5t90.5 -114q1 4 1.5 14t0.5 27v235q0 58 -13 72q-6 8 -21.5 14.5t-32 10.5t-24.5 4q-2 0 -3.5 8t-1.5 17.5t2 11.5q46 -4 79 -6t53 -2
q17 0 43 2t49.5 4t31.5 2q4 -7 4 -18q0 -19 -5 -19q-54 0 -83 -33q-14 -17 -14 -73v-380q0 -18 1 -53t3 -87q-4 -4 -25 -4zM269 -201q-10 0 -10 19q14 11 32.5 27t40.5 38q11 10 21.5 22t21.5 26q8 9 13 9q6 0 15 -9l15 -17q7 -7 13 -14t12 -13q24 -24 43 -41t33 -28
q0 -19 -10 -19q-6 0 -28 10.5t-48 25.5t-44 26q-17 -11 -43.5 -26t-48.5 -25.5t-28 -10.5z" />
    <glyph glyph-name="uni0145" unicode="&#x145;" horiz-adv-x="777" 
d="M628 -5q-11 0 -31 23l-407 506v-383q0 -53 8 -71q6 -11 24 -19.5t37 -12.5t29 -4q2 0 3 -8.5t1 -17.5t-2 -12q-48 0 -81.5 4t-53.5 4q-24 0 -38 -1t-31.5 -3t-54.5 -4q-3 3 -3 18q0 19 3 19q23 0 48.5 9.5t36.5 28.5q10 16 10 73v393q0 52 -15 71q-3 5 -18.5 8.5t-33 6
t-27.5 2.5q-2 0 -3.5 8t-1 17.5t2.5 11.5l64 -4q23 -2 41.5 -3t31.5 -1q17 0 41.5 2t56.5 6q20 -40 55.5 -88t80 -101.5t92 -110.5t90.5 -114q1 4 1.5 14t0.5 27v235q0 58 -13 72q-6 8 -21.5 14.5t-32 10.5t-24.5 4q-2 0 -3.5 8t-1.5 17.5t2 11.5q46 -4 79 -6t53 -2
q17 0 43 2t49.5 4t31.5 2q4 -7 4 -18q0 -19 -5 -19q-54 0 -83 -33q-14 -17 -14 -73v-380q0 -18 1 -53t3 -87q-4 -4 -25 -4zM356 -218q-5 0 -15.5 6t-10.5 10q13 9 27 20.5t14 25.5q0 18 -22 31q-23 14 -23 32q0 25 31.5 37.5t71.5 12.5q22 -19 22 -62q0 -37 -29 -68t-63 -45
h-3z" />
    <glyph glyph-name="uni1E44" unicode="&#x1e44;" horiz-adv-x="777" 
d="M628 -5q-11 0 -31 23l-407 506v-383q0 -53 8 -71q6 -11 24 -19.5t37 -12.5t29 -4q2 0 3 -8.5t1 -17.5t-2 -12q-48 0 -81.5 4t-53.5 4q-24 0 -38 -1t-31.5 -3t-54.5 -4q-3 3 -3 18q0 19 3 19q23 0 48.5 9.5t36.5 28.5q10 16 10 73v393q0 52 -15 71q-3 5 -18.5 8.5t-33 6
t-27.5 2.5q-2 0 -3.5 8t-1 17.5t2.5 11.5l64 -4q23 -2 41.5 -3t31.5 -1q17 0 41.5 2t56.5 6q20 -40 55.5 -88t80 -101.5t92 -110.5t90.5 -114q1 4 1.5 14t0.5 27v235q0 58 -13 72q-6 8 -21.5 14.5t-32 10.5t-24.5 4q-2 0 -3.5 8t-1.5 17.5t2 11.5q46 -4 79 -6t53 -2
q17 0 43 2t49.5 4t31.5 2q4 -7 4 -18q0 -19 -5 -19q-54 0 -83 -33q-14 -17 -14 -73v-380q0 -18 1 -53t3 -87q-4 -4 -25 -4zM389 768q-31 0 -52.5 21.5t-21.5 52.5t21.5 52.5t52.5 21.5t52.5 -21.5t21.5 -52.5t-21.5 -52.5t-52.5 -21.5z" />
    <glyph glyph-name="uni1E46" unicode="&#x1e46;" horiz-adv-x="777" 
d="M628 -5q-11 0 -31 23l-407 506v-383q0 -53 8 -71q6 -11 24 -19.5t37 -12.5t29 -4q2 0 3 -8.5t1 -17.5t-2 -12q-48 0 -81.5 4t-53.5 4q-24 0 -38 -1t-31.5 -3t-54.5 -4q-3 3 -3 18q0 19 3 19q23 0 48.5 9.5t36.5 28.5q10 16 10 73v393q0 52 -15 71q-3 5 -18.5 8.5t-33 6
t-27.5 2.5q-2 0 -3.5 8t-1 17.5t2.5 11.5l64 -4q23 -2 41.5 -3t31.5 -1q17 0 41.5 2t56.5 6q20 -40 55.5 -88t80 -101.5t92 -110.5t90.5 -114q1 4 1.5 14t0.5 27v235q0 58 -13 72q-6 8 -21.5 14.5t-32 10.5t-24.5 4q-2 0 -3.5 8t-1.5 17.5t2 11.5q46 -4 79 -6t53 -2
q17 0 43 2t49.5 4t31.5 2q4 -7 4 -18q0 -19 -5 -19q-54 0 -83 -33q-14 -17 -14 -73v-380q0 -18 1 -53t3 -87q-4 -4 -25 -4zM389 -200q-31 0 -53 21.5t-22 52.5q0 32 22 53.5t53 21.5t52.5 -21.5t21.5 -53.5q0 -31 -21.5 -52.5t-52.5 -21.5z" />
    <glyph glyph-name="Nmacronbelow" unicode="&#x1e48;" horiz-adv-x="777" 
d="M628 -5q-11 0 -31 23l-407 506v-383q0 -53 8 -71q6 -11 24 -19.5t37 -12.5t29 -4q2 0 3 -8.5t1 -17.5t-2 -12q-48 0 -81.5 4t-53.5 4q-24 0 -38 -1t-31.5 -3t-54.5 -4q-3 3 -3 18q0 19 3 19q23 0 48.5 9.5t36.5 28.5q10 16 10 73v393q0 52 -15 71q-3 5 -18.5 8.5t-33 6
t-27.5 2.5q-2 0 -3.5 8t-1 17.5t2.5 11.5l64 -4q23 -2 41.5 -3t31.5 -1q17 0 41.5 2t56.5 6q20 -40 55.5 -88t80 -101.5t92 -110.5t90.5 -114q1 4 1.5 14t0.5 27v235q0 58 -13 72q-6 8 -21.5 14.5t-32 10.5t-24.5 4q-2 0 -3.5 8t-1.5 17.5t2 11.5q46 -4 79 -6t53 -2
q17 0 43 2t49.5 4t31.5 2q4 -7 4 -18q0 -19 -5 -19q-54 0 -83 -33q-14 -17 -14 -73v-380q0 -18 1 -53t3 -87q-4 -4 -25 -4zM254 -135l-5 2q-1 2 -1 9q3 58 15 58h287q6 0 6 -10q-1 -11 -1.5 -20t-2.5 -16q-5 -15 -7 -19l-3 -4h-288z" />
    <glyph glyph-name="Ntilde" unicode="&#xd1;" horiz-adv-x="777" 
d="M628 -5q-11 0 -31 23l-407 506v-383q0 -53 8 -71q6 -11 24 -19.5t37 -12.5t29 -4q2 0 3 -8.5t1 -17.5t-2 -12q-48 0 -81.5 4t-53.5 4q-24 0 -38 -1t-31.5 -3t-54.5 -4q-3 3 -3 18q0 19 3 19q23 0 48.5 9.5t36.5 28.5q10 16 10 73v393q0 52 -15 71q-3 5 -18.5 8.5t-33 6
t-27.5 2.5q-2 0 -3.5 8t-1 17.5t2.5 11.5l64 -4q23 -2 41.5 -3t31.5 -1q17 0 41.5 2t56.5 6q20 -40 55.5 -88t80 -101.5t92 -110.5t90.5 -114q1 4 1.5 14t0.5 27v235q0 58 -13 72q-6 8 -21.5 14.5t-32 10.5t-24.5 4q-2 0 -3.5 8t-1.5 17.5t2 11.5q46 -4 79 -6t53 -2
q17 0 43 2t49.5 4t31.5 2q4 -7 4 -18q0 -19 -5 -19q-54 0 -83 -33q-14 -17 -14 -73v-380q0 -18 1 -53t3 -87q-4 -4 -25 -4zM471 728q-38 0 -96 34t-96 34q-19 0 -44 -28q-26 -29 -30 -29q-8 0 -8 22q0 25 18 50q38 51 88 51q38 0 96 -34t96 -34q19 0 43 29q24 28 29 28
q8 0 8 -22q0 -25 -18 -51q-35 -50 -86 -50z" />
    <glyph glyph-name="Eng" unicode="&#x14a;" horiz-adv-x="748" 
d="M370 -218q-34 0 -57 18q-15 24 -15 52q0 25 19 43t44 18q24 0 52 -31q27 -30 41 -30q38 0 68.5 52.5t42.5 137.5l-388 482v-383q0 -53 8 -71q6 -11 24 -19.5t37 -12.5t29 -4q2 0 3 -8.5t1 -17.5t-2 -12q-48 0 -81.5 4t-53.5 4q-24 0 -38 -1t-31.5 -3t-54.5 -4q-3 3 -3 18
q0 19 3 19q23 0 48.5 9.5t36.5 28.5q10 16 10 73v393q0 52 -15 71q-3 5 -19 8.5t-33 6t-27 2.5q-2 0 -3.5 8t-1 17.5t2.5 11.5l64 -4q23 -2 41.5 -3t31.5 -1q17 0 41.5 2t56.5 6q20 -40 55.5 -88t80 -101.5t92 -110.5t90.5 -114q1 4 1.5 14t0.5 27v235q0 58 -13 72
q-6 8 -21.5 14.5t-32 10.5t-24.5 4q-2 0 -3.5 8t-1.5 17.5t2 11.5q46 -4 79 -6t53 -2q17 0 43 2t49.5 4t31.5 2q4 -7 4 -18q0 -19 -5 -19q-54 0 -83 -33q-14 -17 -14 -73v-376q0 -175 -66 -268t-200 -93z" />
    <glyph glyph-name="O" unicode="O" horiz-adv-x="703" 
d="M125 89q-95 100 -95 239q0 70 25 131.5t69.5 108t102.5 73t124 26.5t124.5 -26.5t102.5 -73t69.5 -108t25.5 -131.5q0 -139 -95 -239q-65 -68 -146 -90.5t-161.5 0t-145.5 90.5zM367 46q50 0 83.5 35t50 94.5t16.5 133.5q0 55 -8.5 105t-27.5 96q-19 47 -56 74t-89 27
q-53 0 -88 -38q-35 -39 -48.5 -95t-13.5 -128q0 -102 39 -197q20 -48 56.5 -77.5t85.5 -29.5z" />
    <glyph glyph-name="Oacute" unicode="&#xd3;" horiz-adv-x="703" 
d="M125 89q-95 100 -95 239q0 70 25 131.5t69.5 108t102.5 73t124 26.5t124.5 -26.5t102.5 -73t69.5 -108t25.5 -131.5q0 -139 -95 -239q-65 -68 -146 -90.5t-161.5 0t-145.5 90.5zM367 46q50 0 83.5 35t50 94.5t16.5 133.5q0 55 -8.5 105t-27.5 96q-19 47 -56 74t-89 27
q-53 0 -88 -38q-35 -39 -48.5 -95t-13.5 -128q0 -102 39 -197q20 -48 56.5 -77.5t85.5 -29.5zM308 729q-5 0 -9.5 7.5t-4.5 12.5q0 3 12.5 16.5t31 32.5t39.5 37.5t37 30.5q7 4 18 4q18 0 37 -9.5t19 -28.5q0 -10 -16 -23t-40.5 -27t-50 -26t-46 -19.5t-27.5 -7.5z" />
    <glyph glyph-name="Obreve" unicode="&#x14e;" horiz-adv-x="703" 
d="M125 89q-95 100 -95 239q0 70 25 131.5t69.5 108t102.5 73t124 26.5t124.5 -26.5t102.5 -73t69.5 -108t25.5 -131.5q0 -139 -95 -239q-65 -68 -146 -90.5t-161.5 0t-145.5 90.5zM367 46q50 0 83.5 35t50 94.5t16.5 133.5q0 55 -8.5 105t-27.5 96q-19 47 -56 74t-89 27
q-53 0 -88 -38q-35 -39 -48.5 -95t-13.5 -128q0 -102 39 -197q20 -48 56.5 -77.5t85.5 -29.5zM353 728q-32 0 -59 18t-46 49q-5 8 -5 13t9 15.5t14 12.5q2 2 4 -2q13 -17 37.5 -31.5t45.5 -14.5t45.5 14.5t37.5 31.5q2 4 4 2q5 -2 14 -12.5t9 -15.5t-5 -13q-19 -31 -46 -49
t-59 -18z" />
    <glyph glyph-name="uni01D1" unicode="&#x1d1;" horiz-adv-x="703" 
d="M125 89q-95 100 -95 239q0 70 25 131.5t69.5 108t102.5 73t124 26.5t124.5 -26.5t102.5 -73t69.5 -108t25.5 -131.5q0 -139 -95 -239q-65 -68 -146 -90.5t-161.5 0t-145.5 90.5zM367 46q50 0 83.5 35t50 94.5t16.5 133.5q0 55 -8.5 105t-27.5 96q-19 47 -56 74t-89 27
q-53 0 -88 -38q-35 -39 -48.5 -95t-13.5 -128q0 -102 39 -197q20 -48 56.5 -77.5t85.5 -29.5zM351 728q-5 0 -13 9q-9 11 -19.5 22.5t-23.5 24.5q-25 24 -43 40.5t-30 25.5q0 19 10 19q6 0 28 -10.5t48.5 -25t43.5 -26.5q18 12 44 26.5t48.5 25t27.5 10.5q10 0 10 -19
q-12 -9 -31 -26t-45 -44l-40 -43q-9 -9 -15 -9z" />
    <glyph glyph-name="Ocircumflex" unicode="&#xd4;" horiz-adv-x="703" 
d="M125 89q-95 100 -95 239q0 70 25 131.5t69.5 108t102.5 73t124 26.5t124.5 -26.5t102.5 -73t69.5 -108t25.5 -131.5q0 -139 -95 -239q-65 -68 -146 -90.5t-161.5 0t-145.5 90.5zM367 46q50 0 83.5 35t50 94.5t16.5 133.5q0 55 -8.5 105t-27.5 96q-19 47 -56 74t-89 27
q-53 0 -88 -38q-35 -39 -48.5 -95t-13.5 -128q0 -102 39 -197q20 -48 56.5 -77.5t85.5 -29.5zM233 729q-10 0 -10 19q14 11 32.5 27t40.5 38q11 10 21.5 22t21.5 26q8 9 13 9q6 0 15 -9l15 -17q7 -7 13 -14t12 -13q24 -24 43 -41t33 -28q0 -19 -10 -19q-6 0 -28 10.5
t-48 25.5t-44 26q-17 -11 -43.5 -26t-48.5 -25.5t-28 -10.5z" />
    <glyph glyph-name="uni1ED0" unicode="&#x1ed0;" horiz-adv-x="703" 
d="M125 89q-95 100 -95 239q0 70 25 131.5t69.5 108t102.5 73t124 26.5t124.5 -26.5t102.5 -73t69.5 -108t25.5 -131.5q0 -139 -95 -239q-65 -68 -146 -90.5t-161.5 0t-145.5 90.5zM367 46q50 0 83.5 35t50 94.5t16.5 133.5q0 55 -8.5 105t-27.5 96q-19 47 -56 74t-89 27
q-53 0 -88 -38q-35 -39 -48.5 -95t-13.5 -128q0 -102 39 -197q20 -48 56.5 -77.5t85.5 -29.5zM460 841q-5 0 -9.5 7.5t-4.5 12.5q0 3 12.5 16.5t31 32.5t39.5 37.5t37 30.5q7 4 18 4q18 0 37 -9.5t19 -28.5q0 -10 -16 -23t-40.5 -27t-50 -26t-46 -19.5t-27.5 -7.5zM231 729
q-10 0 -10 19q14 11 32.5 27t40.5 38q11 10 21.5 22t21.5 26q8 9 13 9q6 0 15 -9l15 -17q7 -7 13 -14t12 -13q24 -24 43 -41t33 -28q0 -19 -10 -19q-5 0 -27.5 10.5t-48.5 25.5t-44 26q-17 -11 -43.5 -26t-48.5 -25.5t-28 -10.5z" />
    <glyph glyph-name="uni1ED8" unicode="&#x1ed8;" horiz-adv-x="703" 
d="M125 89q-95 100 -95 239q0 70 25 131.5t69.5 108t102.5 73t124 26.5t124.5 -26.5t102.5 -73t69.5 -108t25.5 -131.5q0 -139 -95 -239q-65 -68 -146 -90.5t-161.5 0t-145.5 90.5zM367 46q50 0 83.5 35t50 94.5t16.5 133.5q0 55 -8.5 105t-27.5 96q-19 47 -56 74t-89 27
q-53 0 -88 -38q-35 -39 -48.5 -95t-13.5 -128q0 -102 39 -197q20 -48 56.5 -77.5t85.5 -29.5zM353 -200q-31 0 -53 21.5t-22 52.5q0 32 22 53.5t53 21.5t52.5 -21.5t21.5 -53.5q0 -31 -21.5 -52.5t-52.5 -21.5zM233 729q-10 0 -10 19q14 11 32.5 27t40.5 38q11 10 21.5 22
t21.5 26q8 9 13 9q6 0 15 -9l15 -17q7 -7 13 -14t12 -13q24 -24 43 -41t33 -28q0 -19 -10 -19q-6 0 -28 10.5t-48 25.5t-44 26q-17 -11 -43.5 -26t-48.5 -25.5t-28 -10.5z" />
    <glyph glyph-name="uni1ED2" unicode="&#x1ed2;" horiz-adv-x="703" 
d="M125 89q-95 100 -95 239q0 70 25 131.5t69.5 108t102.5 73t124 26.5t124.5 -26.5t102.5 -73t69.5 -108t25.5 -131.5q0 -139 -95 -239q-65 -68 -146 -90.5t-161.5 0t-145.5 90.5zM367 46q50 0 83.5 35t50 94.5t16.5 133.5q0 55 -8.5 105t-27.5 96q-19 47 -56 74t-89 27
q-53 0 -88 -38q-35 -39 -48.5 -95t-13.5 -128q0 -102 39 -197q20 -48 56.5 -77.5t85.5 -29.5zM546 819q-5 0 -22.5 7.5t-40 20t-44 27t-35.5 28t-14 23.5q0 9 16.5 17.5t29.5 8.5t21 -2.5t13 -6.5q29 -18 49.5 -41t32 -41t11.5 -23t-6 -11.5t-11 -6.5zM235 729q-10 0 -10 19
q14 11 32.5 27t40.5 38q11 10 21.5 22t21.5 26q8 9 13 9q6 0 15 -9l15 -17q7 -7 13 -14t12 -13q24 -24 43 -41t33 -28q0 -19 -10 -19q-6 0 -28 10.5t-48 25.5t-44 26q-17 -11 -43.5 -26t-48.5 -25.5t-28 -10.5z" />
    <glyph glyph-name="uni1ED4" unicode="&#x1ed4;" horiz-adv-x="703" 
d="M125 89q-95 100 -95 239q0 70 25 131.5t69.5 108t102.5 73t124 26.5t124.5 -26.5t102.5 -73t69.5 -108t25.5 -131.5q0 -139 -95 -239q-65 -68 -146 -90.5t-161.5 0t-145.5 90.5zM367 46q50 0 83.5 35t50 94.5t16.5 133.5q0 55 -8.5 105t-27.5 96q-19 47 -56 74t-89 27
q-53 0 -88 -38q-35 -39 -48.5 -95t-13.5 -128q0 -102 39 -197q20 -48 56.5 -77.5t85.5 -29.5zM233 729q-10 0 -10 19q14 11 32.5 27t40.5 38q11 10 21.5 22t21.5 26q8 9 13 9q6 0 15 -9l15 -17q7 -7 13 -14t12 -13q24 -24 43 -41t33 -28q0 -19 -10 -19q-6 0 -28 10.5
t-48 25.5t-44 26q-17 -11 -43.5 -26t-48.5 -25.5t-28 -10.5zM460 819q-10 6 -10 17q0 28 45 49q36 17 36 42q0 30 -25 30q-33 0 -33 -36q0 -22 -39 -22q-7 0 -14.5 4.5t-7.5 12.5q0 36 31.5 57.5t72.5 21.5q30 0 49.5 -16.5t19.5 -41.5q0 -53 -51 -74q-30 -13 -35 -21
q-1 -2 -1 -6q0 -6 1 -8q0 -2 -14.5 -5.5t-24.5 -3.5z" />
    <glyph glyph-name="uni1ED6" unicode="&#x1ed6;" horiz-adv-x="703" 
d="M125 89q-95 100 -95 239q0 70 25 131.5t69.5 108t102.5 73t124 26.5t124.5 -26.5t102.5 -73t69.5 -108t25.5 -131.5q0 -139 -95 -239q-65 -68 -146 -90.5t-161.5 0t-145.5 90.5zM367 46q50 0 83.5 35t50 94.5t16.5 133.5q0 55 -8.5 105t-27.5 96q-19 47 -56 74t-89 27
q-53 0 -88 -38q-35 -39 -48.5 -95t-13.5 -128q0 -102 39 -197q20 -48 56.5 -77.5t85.5 -29.5zM233 729q-10 0 -10 19q14 11 32.5 27t40.5 38q11 10 21.5 22t21.5 26q8 9 13 9q6 0 15 -9l15 -17q7 -7 13 -14t12 -13q24 -24 43 -41t33 -28q0 -19 -10 -19q-6 0 -28 10.5
t-48 25.5t-44 26q-17 -11 -43.5 -26t-48.5 -25.5t-28 -10.5zM437 897q-38 0 -96 34t-96 34q-19 0 -44 -28q-26 -29 -30 -29q-8 0 -8 22q0 25 18 50q38 51 88 51q38 0 96 -34t96 -34q19 0 43 29q24 28 29 28q8 0 8 -22q0 -25 -18 -51q-35 -50 -86 -50z" />
    <glyph glyph-name="Odieresis" unicode="&#xd6;" horiz-adv-x="703" 
d="M125 89q-95 100 -95 239q0 70 25 131.5t69.5 108t102.5 73t124 26.5t124.5 -26.5t102.5 -73t69.5 -108t25.5 -131.5q0 -139 -95 -239q-65 -68 -146 -90.5t-161.5 0t-145.5 90.5zM367 46q50 0 83.5 35t50 94.5t16.5 133.5q0 55 -8.5 105t-27.5 96q-19 47 -56 74t-89 27
q-53 0 -88 -38q-35 -39 -48.5 -95t-13.5 -128q0 -102 39 -197q20 -48 56.5 -77.5t85.5 -29.5zM453 726q-30 0 -52 22t-22 53t22 52t52 21q31 0 52.5 -22t21.5 -51q0 -31 -22.5 -53t-51.5 -22zM255 726q-30 0 -52.5 22t-22.5 53q0 29 22 51t53 22q29 0 51 -21t22 -52t-22 -53
t-51 -22z" />
    <glyph glyph-name="uni1ECC" unicode="&#x1ecc;" horiz-adv-x="703" 
d="M125 89q-95 100 -95 239q0 70 25 131.5t69.5 108t102.5 73t124 26.5t124.5 -26.5t102.5 -73t69.5 -108t25.5 -131.5q0 -139 -95 -239q-65 -68 -146 -90.5t-161.5 0t-145.5 90.5zM367 46q50 0 83.5 35t50 94.5t16.5 133.5q0 55 -8.5 105t-27.5 96q-19 47 -56 74t-89 27
q-53 0 -88 -38q-35 -39 -48.5 -95t-13.5 -128q0 -102 39 -197q20 -48 56.5 -77.5t85.5 -29.5zM353 -200q-31 0 -53 21.5t-22 52.5q0 32 22 53.5t53 21.5t52.5 -21.5t21.5 -53.5q0 -31 -21.5 -52.5t-52.5 -21.5z" />
    <glyph glyph-name="Ograve" unicode="&#xd2;" horiz-adv-x="703" 
d="M125 89q-95 100 -95 239q0 70 25 131.5t69.5 108t102.5 73t124 26.5t124.5 -26.5t102.5 -73t69.5 -108t25.5 -131.5q0 -139 -95 -239q-65 -68 -146 -90.5t-161.5 0t-145.5 90.5zM367 46q50 0 83.5 35t50 94.5t16.5 133.5q0 55 -8.5 105t-27.5 96q-19 47 -56 74t-89 27
q-53 0 -88 -38q-35 -39 -48.5 -95t-13.5 -128q0 -102 39 -197q20 -48 56.5 -77.5t85.5 -29.5zM387 728q-7 0 -27.5 7.5t-46 19.5t-50 26t-40.5 27t-16 23q0 19 19 28.5t37 9.5q11 0 18 -4q17 -12 37.5 -30.5t39 -37.5t31 -32.5t12.5 -16.5q0 -5 -4.5 -12.5t-9.5 -7.5z" />
    <glyph glyph-name="uni1ECE" unicode="&#x1ece;" horiz-adv-x="703" 
d="M125 89q-95 100 -95 239q0 70 25 131.5t69.5 108t102.5 73t124 26.5t124.5 -26.5t102.5 -73t69.5 -108t25.5 -131.5q0 -139 -95 -239q-65 -68 -146 -90.5t-161.5 0t-145.5 90.5zM367 46q50 0 83.5 35t50 94.5t16.5 133.5q0 55 -8.5 105t-27.5 96q-19 47 -56 74t-89 27
q-53 0 -88 -38q-35 -39 -48.5 -95t-13.5 -128q0 -102 39 -197q20 -48 56.5 -77.5t85.5 -29.5zM337 725q-10 6 -10 17q0 28 45 49q36 17 36 42q0 30 -25 30q-33 0 -33 -36q0 -22 -39 -22q-7 0 -14.5 4.5t-7.5 12.5q0 36 31.5 57.5t72.5 21.5q30 0 49.5 -16.5t19.5 -41.5
q0 -53 -51 -74q-30 -13 -35 -21q-1 -2 -1 -6q0 -6 1 -8q0 -2 -14.5 -5.5t-24.5 -3.5z" />
    <glyph glyph-name="Ohorn" unicode="&#x1a0;" horiz-adv-x="695" 
d="M346 -10q-66 0 -124 26.5t-102.5 72.5t-69.5 107.5t-25 131.5q0 71 24.5 132t68 108t102 73t126.5 26q61 0 118 -24q104 -40 134 -40q36 0 36 19q0 12 -11 22.5t-11 29.5q0 23 25 36.5t69 9.5q7 -7 13 -27.5t6 -40.5q0 -27 -18.5 -48.5t-46 -34.5t-56.5 -13q-16 0 -25 5
q89 -99 89 -233q0 -70 -25.5 -131.5t-69.5 -107.5t-102.5 -72.5t-124.5 -26.5zM362 46q50 0 83.5 35t50 94.5t16.5 133.5q0 51 -8 104t-28.5 98t-55.5 72.5t-89 27.5q-44 0 -73 -23t-46 -61.5t-24 -84.5t-7 -92t9 -99t29.5 -99.5t55.5 -76t87 -29.5z" />
    <glyph glyph-name="uni1EDA" unicode="&#x1eda;" horiz-adv-x="695" 
d="M346 -10q-66 0 -124 26.5t-102.5 72.5t-69.5 107.5t-25 131.5q0 71 24.5 132t68 108t102 73t126.5 26q61 0 118 -24q104 -40 134 -40q36 0 36 19q0 12 -11 22.5t-11 29.5q0 23 25 36.5t69 9.5q7 -7 13 -27.5t6 -40.5q0 -27 -18.5 -48.5t-46 -34.5t-56.5 -13q-16 0 -25 5
q89 -99 89 -233q0 -70 -25.5 -131.5t-69.5 -107.5t-102.5 -72.5t-124.5 -26.5zM362 46q50 0 83.5 35t50 94.5t16.5 133.5q0 51 -8 104t-28.5 98t-55.5 72.5t-89 27.5q-44 0 -73 -23t-46 -61.5t-24 -84.5t-7 -92t9 -99t29.5 -99.5t55.5 -76t87 -29.5zM308 729q-5 0 -9.5 7.5
t-4.5 12.5q0 3 12.5 16.5t31 32.5t39.5 37.5t37 30.5q7 4 18 4q18 0 37 -9.5t19 -28.5q0 -10 -16 -23t-40.5 -27t-50 -26t-46 -19.5t-27.5 -7.5z" />
    <glyph glyph-name="uni1EE2" unicode="&#x1ee2;" horiz-adv-x="695" 
d="M346 -10q-66 0 -124 26.5t-102.5 72.5t-69.5 107.5t-25 131.5q0 71 24.5 132t68 108t102 73t126.5 26q61 0 118 -24q104 -40 134 -40q36 0 36 19q0 12 -11 22.5t-11 29.5q0 23 25 36.5t69 9.5q7 -7 13 -27.5t6 -40.5q0 -27 -18.5 -48.5t-46 -34.5t-56.5 -13q-16 0 -25 5
q89 -99 89 -233q0 -70 -25.5 -131.5t-69.5 -107.5t-102.5 -72.5t-124.5 -26.5zM362 46q50 0 83.5 35t50 94.5t16.5 133.5q0 51 -8 104t-28.5 98t-55.5 72.5t-89 27.5q-44 0 -73 -23t-46 -61.5t-24 -84.5t-7 -92t9 -99t29.5 -99.5t55.5 -76t87 -29.5zM353 -200
q-31 0 -53 21.5t-22 52.5q0 32 22 53.5t53 21.5t52.5 -21.5t21.5 -53.5q0 -31 -21.5 -52.5t-52.5 -21.5z" />
    <glyph glyph-name="uni1EDC" unicode="&#x1edc;" horiz-adv-x="695" 
d="M346 -10q-66 0 -124 26.5t-102.5 72.5t-69.5 107.5t-25 131.5q0 71 24.5 132t68 108t102 73t126.5 26q61 0 118 -24q104 -40 134 -40q36 0 36 19q0 12 -11 22.5t-11 29.5q0 23 25 36.5t69 9.5q7 -7 13 -27.5t6 -40.5q0 -27 -18.5 -48.5t-46 -34.5t-56.5 -13q-16 0 -25 5
q89 -99 89 -233q0 -70 -25.5 -131.5t-69.5 -107.5t-102.5 -72.5t-124.5 -26.5zM362 46q50 0 83.5 35t50 94.5t16.5 133.5q0 51 -8 104t-28.5 98t-55.5 72.5t-89 27.5q-44 0 -73 -23t-46 -61.5t-24 -84.5t-7 -92t9 -99t29.5 -99.5t55.5 -76t87 -29.5zM387 728q-7 0 -27.5 7.5
t-46 19.5t-50 26t-40.5 27t-16 23q0 19 19 28.5t37 9.5q11 0 18 -4q17 -12 37.5 -30.5t39 -37.5t31 -32.5t12.5 -16.5q0 -5 -4.5 -12.5t-9.5 -7.5z" />
    <glyph glyph-name="uni1EDE" unicode="&#x1ede;" horiz-adv-x="695" 
d="M346 -10q-66 0 -124 26.5t-102.5 72.5t-69.5 107.5t-25 131.5q0 71 24.5 132t68 108t102 73t126.5 26q61 0 118 -24q104 -40 134 -40q36 0 36 19q0 12 -11 22.5t-11 29.5q0 23 25 36.5t69 9.5q7 -7 13 -27.5t6 -40.5q0 -27 -18.5 -48.5t-46 -34.5t-56.5 -13q-16 0 -25 5
q89 -99 89 -233q0 -70 -25.5 -131.5t-69.5 -107.5t-102.5 -72.5t-124.5 -26.5zM362 46q50 0 83.5 35t50 94.5t16.5 133.5q0 51 -8 104t-28.5 98t-55.5 72.5t-89 27.5q-44 0 -73 -23t-46 -61.5t-24 -84.5t-7 -92t9 -99t29.5 -99.5t55.5 -76t87 -29.5zM337 725q-10 6 -10 17
q0 28 45 49q36 17 36 42q0 30 -25 30q-33 0 -33 -36q0 -22 -39 -22q-7 0 -14.5 4.5t-7.5 12.5q0 36 31.5 57.5t72.5 21.5q30 0 49.5 -16.5t19.5 -41.5q0 -53 -51 -74q-30 -13 -35 -21q-1 -2 -1 -6q0 -6 1 -8q0 -2 -14.5 -5.5t-24.5 -3.5z" />
    <glyph glyph-name="uni1EE0" unicode="&#x1ee0;" horiz-adv-x="695" 
d="M346 -10q-66 0 -124 26.5t-102.5 72.5t-69.5 107.5t-25 131.5q0 71 24.5 132t68 108t102 73t126.5 26q61 0 118 -24q104 -40 134 -40q36 0 36 19q0 12 -11 22.5t-11 29.5q0 23 25 36.5t69 9.5q7 -7 13 -27.5t6 -40.5q0 -27 -18.5 -48.5t-46 -34.5t-56.5 -13q-16 0 -25 5
q89 -99 89 -233q0 -70 -25.5 -131.5t-69.5 -107.5t-102.5 -72.5t-124.5 -26.5zM362 46q50 0 83.5 35t50 94.5t16.5 133.5q0 51 -8 104t-28.5 98t-55.5 72.5t-89 27.5q-44 0 -73 -23t-46 -61.5t-24 -84.5t-7 -92t9 -99t29.5 -99.5t55.5 -76t87 -29.5zM435 728q-38 0 -96 34
t-96 34q-19 0 -44 -28q-26 -29 -30 -29q-8 0 -8 22q0 25 18 50q38 51 88 51q38 0 96 -34t96 -34q19 0 43 29q24 28 29 28q8 0 8 -22q0 -25 -18 -51q-35 -50 -86 -50z" />
    <glyph glyph-name="Ohungarumlaut" unicode="&#x150;" horiz-adv-x="703" 
d="M125 89q-95 100 -95 239q0 70 25 131.5t69.5 108t102.5 73t124 26.5t124.5 -26.5t102.5 -73t69.5 -108t25.5 -131.5q0 -139 -95 -239q-65 -68 -146 -90.5t-161.5 0t-145.5 90.5zM367 46q50 0 83.5 35t50 94.5t16.5 133.5q0 55 -8.5 105t-27.5 96q-19 47 -56 74t-89 27
q-53 0 -88 -38q-35 -39 -48.5 -95t-13.5 -128q0 -102 39 -197q20 -48 56.5 -77.5t85.5 -29.5zM413 728q-5 0 -11 6.5t-6 11.5q0 4 13.5 25.5t36 53.5t49.5 65q6 9 34 9q23 0 34.5 -10t11.5 -19q0 -10 -15 -27t-37 -37t-45.5 -37.5t-41.5 -29t-23 -11.5zM274 728
q-5 0 -11 6.5t-6 11.5q0 4 13.5 25.5t36 53.5t49.5 65q6 9 34 9q23 0 34.5 -10t11.5 -19q0 -10 -15 -27t-37 -37t-45.5 -37.5t-41.5 -29t-23 -11.5z" />
    <glyph glyph-name="Omacron" unicode="&#x14c;" horiz-adv-x="703" 
d="M125 89q-95 100 -95 239q0 70 25 131.5t69.5 108t102.5 73t124 26.5t124.5 -26.5t102.5 -73t69.5 -108t25.5 -131.5q0 -139 -95 -239q-65 -68 -146 -90.5t-161.5 0t-145.5 90.5zM367 46q50 0 83.5 35t50 94.5t16.5 133.5q0 55 -8.5 105t-27.5 96q-19 47 -56 74t-89 27
q-53 0 -88 -38q-35 -39 -48.5 -95t-13.5 -128q0 -102 39 -197q20 -48 56.5 -77.5t85.5 -29.5zM214 735l-5 2q-1 2 -1 9q3 58 15 58h287q6 0 6 -10q-1 -11 -1.5 -20t-2.5 -16q-5 -15 -7 -19l-3 -4h-288z" />
    <glyph glyph-name="Oslash" unicode="&#xd8;" horiz-adv-x="700" 
d="M167 -18q-39 15 -38 22l28 51q-63 48 -99.5 121t-36.5 152q0 67 25 128t69.5 108.5t103.5 75t127 27.5q72 0 137 -32l23 41q40 -15 38 -21l-24 -42q67 -46 107.5 -121t40.5 -164q0 -70 -25.5 -131.5t-69.5 -108t-102.5 -72.5t-124.5 -26q-42 0 -80 10.5t-72 29.5z
M181 350q0 -46 8.5 -96.5t27.5 -93.5l226 403q-21 23 -49 35.5t-63 12.5q-44 0 -73 -23t-46 -61t-24 -84t-7 -93zM362 46q50 0 83.5 35t50 94.5t16.5 133.5q0 55 -8.5 105t-27.5 96q-3 7 -6 13l-229 -408q22 -31 51.5 -50t69.5 -19z" />
    <glyph glyph-name="Oslashacute" unicode="&#x1fe;" horiz-adv-x="700" 
d="M167 -18q-39 15 -38 22l28 51q-63 48 -99.5 121t-36.5 152q0 67 25 128t69.5 108.5t103.5 75t127 27.5q72 0 137 -32l23 41q40 -15 38 -21l-24 -42q67 -46 107.5 -121t40.5 -164q0 -70 -25.5 -131.5t-69.5 -108t-102.5 -72.5t-124.5 -26q-42 0 -80 10.5t-72 29.5z
M181 350q0 -46 8.5 -96.5t27.5 -93.5l226 403q-21 23 -49 35.5t-63 12.5q-44 0 -73 -23t-46 -61t-24 -84t-7 -93zM362 46q50 0 83.5 35t50 94.5t16.5 133.5q0 55 -8.5 105t-27.5 96q-3 7 -6 13l-229 -408q22 -31 51.5 -50t69.5 -19zM305 729q-5 0 -9.5 7.5t-4.5 12.5
q0 3 12.5 16.5t31 32.5t39.5 37.5t37 30.5q7 4 18 4q18 0 37 -9.5t19 -28.5q0 -10 -16 -23t-40.5 -27t-50 -26t-46 -19.5t-27.5 -7.5z" />
    <glyph glyph-name="Otilde" unicode="&#xd5;" horiz-adv-x="703" 
d="M125 89q-95 100 -95 239q0 70 25 131.5t69.5 108t102.5 73t124 26.5t124.5 -26.5t102.5 -73t69.5 -108t25.5 -131.5q0 -139 -95 -239q-65 -68 -146 -90.5t-161.5 0t-145.5 90.5zM367 46q50 0 83.5 35t50 94.5t16.5 133.5q0 55 -8.5 105t-27.5 96q-19 47 -56 74t-89 27
q-53 0 -88 -38q-35 -39 -48.5 -95t-13.5 -128q0 -102 39 -197q20 -48 56.5 -77.5t85.5 -29.5zM435 728q-38 0 -96 34t-96 34q-19 0 -44 -28q-26 -29 -30 -29q-8 0 -8 22q0 25 18 50q38 51 88 51q38 0 96 -34t96 -34q19 0 43 29q24 28 29 28q8 0 8 -22q0 -25 -18 -51
q-35 -50 -86 -50z" />
    <glyph glyph-name="uni1E4E" unicode="&#x1e4e;" horiz-adv-x="703" 
d="M125 89q-95 100 -95 239q0 70 25 131.5t69.5 108t102.5 73t124 26.5t124.5 -26.5t102.5 -73t69.5 -108t25.5 -131.5q0 -139 -95 -239q-65 -68 -146 -90.5t-161.5 0t-145.5 90.5zM367 46q50 0 83.5 35t50 94.5t16.5 133.5q0 55 -8.5 105t-27.5 96q-19 47 -56 74t-89 27
q-53 0 -88 -38q-35 -39 -48.5 -95t-13.5 -128q0 -102 39 -197q20 -48 56.5 -77.5t85.5 -29.5zM435 728q-38 0 -96 34t-96 34q-19 0 -44 -28q-26 -29 -30 -29q-8 0 -8 22q0 25 18 50q38 51 88 51q38 0 96 -34t96 -34q19 0 43 29q24 28 29 28q8 0 8 -22q0 -25 -18 -51
q-35 -50 -86 -50zM442 906q-30 0 -52 22t-22 53t22 52t52 21q31 0 52.5 -22t21.5 -51q0 -31 -22.5 -53t-51.5 -22zM244 906q-30 0 -52.5 22t-22.5 53q0 29 22 51t53 22q29 0 51 -21t22 -52t-22 -53t-51 -22z" />
    <glyph glyph-name="OE" unicode="&#x152;" horiz-adv-x="1036" 
d="M362 -10q-66 0 -124 26t-102.5 72.5t-69.5 108t-25 131.5q0 71 24.5 132t68 108t102 73t126.5 26q24 0 59 -1t72 -3t70 -3t53 -1q18 0 50.5 0.5t72 1.5t78.5 1.5t71.5 1t50.5 0.5q1 -5 8 -42t21 -106q-5 -5 -23 -5q-11 0 -14 7q-12 26 -35.5 46.5t-51 33t-53.5 12.5h-38
q-64 0 -65 -13q-2 -12 -3.5 -31.5t-1.5 -46.5v-154q0 -6 43 -6h53q63 0 68 4q3 3 5.5 14.5t4.5 24.5t4 19q1 7 15 7q17 0 22 -5v-189q-4 -4 -21 -4q-13 0 -16 8q-6 20 -8.5 31.5t-7.5 16.5q-10 12 -34 15t-56 3q-72 0 -72 -9v-154q0 -47 8 -71q4 -16 68 -16h26q62 0 112 26
q17 9 38.5 34t33.5 56q2 6 14 6q24 0 30 -6q-50 -138 -54 -172q-25 0 -65.5 0.5t-96.5 1.5q-55 1 -100 1.5t-80 0.5q-37 0 -63.5 -0.5t-43.5 -1.5zM378 46h26.5t18.5 1q48 3 74 27.5t36 66t10 93.5v225q0 66 -21.5 98.5t-65 43t-109.5 10.5q-53 0 -88 -38q-35 -39 -48.5 -95
t-13.5 -128q0 -102 39 -197q20 -48 56.5 -77.5t85.5 -29.5z" />
    <glyph glyph-name="P" unicode="P" horiz-adv-x="572" 
d="M31 -4q-4 4 -4 17q0 20 4 20q8 0 23 3t28 8.5t15 10.5q6 23 6 88v378q0 56 -6 78q-2 6 -15.5 12.5t-28.5 11t-23 4.5q-4 0 -4 18q0 16 3 19q45 -2 82 -3.5t65 -1.5q14 0 30.5 0.5t33.5 1.5t33 1h31q60 0 111 -16q35 -10 64.5 -33.5t47.5 -57t18 -76.5q0 -54 -28.5 -99
t-77 -72.5t-108.5 -27.5q-20 0 -39.5 6t-26.5 16q-4 6 -5 22t4 16q14 -8 45 -8q84 0 84 136q0 137 -92 137q-35 0 -46 -8q-12 -9 -12 -98v-358q0 -53 7 -82q2 -8 17 -14t33 -9t28 -3q4 0 4 -19q0 -10 -2 -18q-120 6 -153 6z" />
    <glyph glyph-name="uni1E54" unicode="&#x1e54;" horiz-adv-x="572" 
d="M31 -4q-4 4 -4 17q0 20 4 20q8 0 23 3t28 8.5t15 10.5q6 23 6 88v378q0 56 -6 78q-2 6 -15.5 12.5t-28.5 11t-23 4.5q-4 0 -4 18q0 16 3 19q45 -2 82 -3.5t65 -1.5q14 0 30.5 0.5t33.5 1.5t33 1h31q60 0 111 -16q35 -10 64.5 -33.5t47.5 -57t18 -76.5q0 -54 -28.5 -99
t-77 -72.5t-108.5 -27.5q-20 0 -39.5 6t-26.5 16q-4 6 -5 22t4 16q14 -8 45 -8q84 0 84 136q0 137 -92 137q-35 0 -46 -8q-12 -9 -12 -98v-358q0 -53 7 -82q2 -8 17 -14t33 -9t28 -3q4 0 4 -19q0 -10 -2 -18q-120 6 -153 6zM241 729q-5 0 -9.5 7.5t-4.5 12.5q0 3 12.5 16.5
t31 32.5t39.5 37.5t37 30.5q7 4 18 4q18 0 37 -9.5t19 -28.5q0 -10 -16 -23t-40.5 -27t-50 -26t-46 -19.5t-27.5 -7.5z" />
    <glyph glyph-name="uni1E56" unicode="&#x1e56;" horiz-adv-x="572" 
d="M31 -4q-4 4 -4 17q0 20 4 20q8 0 23 3t28 8.5t15 10.5q6 23 6 88v378q0 56 -6 78q-2 6 -15.5 12.5t-28.5 11t-23 4.5q-4 0 -4 18q0 16 3 19q45 -2 82 -3.5t65 -1.5q14 0 30.5 0.5t33.5 1.5t33 1h31q60 0 111 -16q35 -10 64.5 -33.5t47.5 -57t18 -76.5q0 -54 -28.5 -99
t-77 -72.5t-108.5 -27.5q-20 0 -39.5 6t-26.5 16q-4 6 -5 22t4 16q14 -8 45 -8q84 0 84 136q0 137 -92 137q-35 0 -46 -8q-12 -9 -12 -98v-358q0 -53 7 -82q2 -8 17 -14t33 -9t28 -3q4 0 4 -19q0 -10 -2 -18q-120 6 -153 6zM286 768q-31 0 -52.5 21.5t-21.5 52.5t21.5 52.5
t52.5 21.5t52.5 -21.5t21.5 -52.5t-21.5 -52.5t-52.5 -21.5z" />
    <glyph glyph-name="Thorn" unicode="&#xde;" horiz-adv-x="572" 
d="M10 -4q-4 4 -4 16q0 21 3 21q8 0 23 4t28 10t15 11q4 14 5.5 34t1.5 46v384q0 64 -8 78q-3 6 -15.5 11.5t-25.5 9.5t-21 4q-4 0 -4 17q0 18 2 20l145 -6q20 0 140 6q3 -9 3 -18q0 -19 -4 -19q-6 0 -21 -4t-28.5 -9.5t-15.5 -10.5q-4 -13 -5.5 -33.5t-1.5 -46.5v-5
q0 -4 4 -4l10 2q11 2 28 4t32 2q34 0 71 -9t74 -29q36 -19 59.5 -57t23.5 -86q0 -54 -28.5 -99t-77 -72.5t-108.5 -27.5q-20 0 -39.5 6t-26.5 16q-4 6 -5 22t4 16q14 -8 45 -8q84 0 84 136q0 137 -92 137q-38 0 -46 -5q-4 -3 -6 -6q-3 -5 -4.5 -31.5t-1.5 -63.5v-218
q0 -26 2 -46.5t6 -36.5q2 -4 14.5 -10t27 -10.5t20.5 -4.5q4 0 4 -19q0 -10 -2 -18q-4 0 -19 1t-41 3t-46 3t-33 1q-18 0 -49 -2t-58.5 -3.5t-37.5 -2.5z" />
    <glyph glyph-name="Q" unicode="Q" horiz-adv-x="730" 
d="M553 -143q-48 0 -97 28q-55 32 -103 66t-95 49q-36 11 -74 37t-75 66t-60.5 99.5t-23.5 125.5q0 70 25 131.5t68.5 108t101.5 73t124 26.5t124 -26.5t102 -73t69 -108t25 -131.5q0 -64 -20 -119.5t-53 -98.5t-72.5 -70t-78.5 -35q30 -13 59 -30t51 -28q17 -8 46 -14.5
t66 -6.5q32 0 52 5t24 5q12 0 12 -20v-5q-43 -23 -98 -38.5t-99 -15.5zM360 51q50 0 83.5 33.5t50 92t16.5 132.5q0 55 -8.5 103t-27.5 93t-56 71.5t-89 26.5t-85 -32.5t-49 -89.5t-16 -131q0 -102 39 -195q20 -46 56.5 -75t85.5 -29z" />
    <glyph glyph-name="R" unicode="R" horiz-adv-x="682" 
d="M638 -7q-49 0 -89.5 9.5t-64.5 21.5q-25 12 -49 36q-12 12 -22 23t-21.5 27.5t-29.5 44t-47 73.5q-39 59 -52 64q-2 1 -11 1t-9 -16v-136q0 -53 7 -82q2 -8 17 -14t33 -9t28 -3q4 0 4 -19q0 -10 -2 -18q-60 3 -98 5t-55 1l-146 -6q-4 4 -4 17q0 20 4 20q8 0 23 3t28 8.5
t15 10.5q6 23 6 88v378q0 56 -6 78q-2 6 -15.5 12.5t-28.5 11t-23 4.5q-4 0 -4 18q0 16 3 19q46 -2 82.5 -3.5t64.5 -1.5q48 1 75 1h41h24q40 0 80.5 -10t74.5 -30.5t54.5 -52t20.5 -75.5t-18 -82t-46.5 -64t-58.5 -36q-8 -3 -3 -11q22 -37 34 -56t20.5 -30.5t20.5 -28
t34 -49.5q17 -24 40.5 -47.5t51 -39t52.5 -15.5q4 -4 4 -18q0 -12 -4 -20q-7 -1 -15.5 -1.5t-19.5 -0.5zM285 348h27q39 0 60.5 34t21.5 90q0 133 -93 133q-35 0 -46 -8q-12 -9 -12 -98v-108q0 -28 11.5 -35.5t30.5 -7.5z" />
    <glyph glyph-name="Racute" unicode="&#x154;" horiz-adv-x="682" 
d="M638 -7q-49 0 -89.5 9.5t-64.5 21.5q-25 12 -49 36q-12 12 -22 23t-21.5 27.5t-29.5 44t-47 73.5q-39 59 -52 64q-2 1 -11 1t-9 -16v-136q0 -53 7 -82q2 -8 17 -14t33 -9t28 -3q4 0 4 -19q0 -10 -2 -18q-60 3 -98 5t-55 1l-146 -6q-4 4 -4 17q0 20 4 20q8 0 23 3t28 8.5
t15 10.5q6 23 6 88v378q0 56 -6 78q-2 6 -15.5 12.5t-28.5 11t-23 4.5q-4 0 -4 18q0 16 3 19q46 -2 82.5 -3.5t64.5 -1.5q48 1 75 1h41h24q40 0 80.5 -10t74.5 -30.5t54.5 -52t20.5 -75.5t-18 -82t-46.5 -64t-58.5 -36q-8 -3 -3 -11q22 -37 34 -56t20.5 -30.5t20.5 -28
t34 -49.5q17 -24 40.5 -47.5t51 -39t52.5 -15.5q4 -4 4 -18q0 -12 -4 -20q-7 -1 -15.5 -1.5t-19.5 -0.5zM285 348h27q39 0 60.5 34t21.5 90q0 133 -93 133q-35 0 -46 -8q-12 -9 -12 -98v-108q0 -28 11.5 -35.5t30.5 -7.5zM240 729q-5 0 -9.5 7.5t-4.5 12.5q0 3 12.5 16.5
t31 32.5t39.5 37.5t37 30.5q7 4 18 4q18 0 37 -9.5t19 -28.5q0 -10 -16 -23t-40.5 -27t-50 -26t-46 -19.5t-27.5 -7.5z" />
    <glyph glyph-name="Rcaron" unicode="&#x158;" horiz-adv-x="682" 
d="M638 -7q-49 0 -89.5 9.5t-64.5 21.5q-25 12 -49 36q-12 12 -22 23t-21.5 27.5t-29.5 44t-47 73.5q-39 59 -52 64q-2 1 -11 1t-9 -16v-136q0 -53 7 -82q2 -8 17 -14t33 -9t28 -3q4 0 4 -19q0 -10 -2 -18q-60 3 -98 5t-55 1l-146 -6q-4 4 -4 17q0 20 4 20q8 0 23 3t28 8.5
t15 10.5q6 23 6 88v378q0 56 -6 78q-2 6 -15.5 12.5t-28.5 11t-23 4.5q-4 0 -4 18q0 16 3 19q46 -2 82.5 -3.5t64.5 -1.5q48 1 75 1h41h24q40 0 80.5 -10t74.5 -30.5t54.5 -52t20.5 -75.5t-18 -82t-46.5 -64t-58.5 -36q-8 -3 -3 -11q22 -37 34 -56t20.5 -30.5t20.5 -28
t34 -49.5q17 -24 40.5 -47.5t51 -39t52.5 -15.5q4 -4 4 -18q0 -12 -4 -20q-7 -1 -15.5 -1.5t-19.5 -0.5zM285 348h27q39 0 60.5 34t21.5 90q0 133 -93 133q-35 0 -46 -8q-12 -9 -12 -98v-108q0 -28 11.5 -35.5t30.5 -7.5zM283 728q-5 0 -13 9q-9 11 -19.5 22.5t-23.5 24.5
q-25 24 -43 40.5t-30 25.5q0 19 10 19q6 0 28 -10.5t48.5 -25t43.5 -26.5q18 12 44 26.5t48.5 25t27.5 10.5q10 0 10 -19q-12 -9 -31 -26t-45 -44l-40 -43q-9 -9 -15 -9z" />
    <glyph glyph-name="uni0156" unicode="&#x156;" horiz-adv-x="682" 
d="M638 -7q-49 0 -89.5 9.5t-64.5 21.5q-25 12 -49 36q-12 12 -22 23t-21.5 27.5t-29.5 44t-47 73.5q-39 59 -52 64q-2 1 -11 1t-9 -16v-136q0 -53 7 -82q2 -8 17 -14t33 -9t28 -3q4 0 4 -19q0 -10 -2 -18q-60 3 -98 5t-55 1l-146 -6q-4 4 -4 17q0 20 4 20q8 0 23 3t28 8.5
t15 10.5q6 23 6 88v378q0 56 -6 78q-2 6 -15.5 12.5t-28.5 11t-23 4.5q-4 0 -4 18q0 16 3 19q46 -2 82.5 -3.5t64.5 -1.5q48 1 75 1h41h24q40 0 80.5 -10t74.5 -30.5t54.5 -52t20.5 -75.5t-18 -82t-46.5 -64t-58.5 -36q-8 -3 -3 -11q22 -37 34 -56t20.5 -30.5t20.5 -28
t34 -49.5q17 -24 40.5 -47.5t51 -39t52.5 -15.5q4 -4 4 -18q0 -12 -4 -20q-7 -1 -15.5 -1.5t-19.5 -0.5zM285 348h27q39 0 60.5 34t21.5 90q0 133 -93 133q-35 0 -46 -8q-12 -9 -12 -98v-108q0 -28 11.5 -35.5t30.5 -7.5zM322 -218q-5 0 -15.5 6t-10.5 10q13 9 27 20.5
t14 25.5q0 18 -22 31q-23 14 -23 32q0 25 31.5 37.5t71.5 12.5q22 -19 22 -62q0 -37 -29 -68t-63 -45h-3z" />
    <glyph glyph-name="uni1E58" unicode="&#x1e58;" horiz-adv-x="682" 
d="M638 -7q-49 0 -89.5 9.5t-64.5 21.5q-25 12 -49 36q-12 12 -22 23t-21.5 27.5t-29.5 44t-47 73.5q-39 59 -52 64q-2 1 -11 1t-9 -16v-136q0 -53 7 -82q2 -8 17 -14t33 -9t28 -3q4 0 4 -19q0 -10 -2 -18q-60 3 -98 5t-55 1l-146 -6q-4 4 -4 17q0 20 4 20q8 0 23 3t28 8.5
t15 10.5q6 23 6 88v378q0 56 -6 78q-2 6 -15.5 12.5t-28.5 11t-23 4.5q-4 0 -4 18q0 16 3 19q46 -2 82.5 -3.5t64.5 -1.5q48 1 75 1h41h24q40 0 80.5 -10t74.5 -30.5t54.5 -52t20.5 -75.5t-18 -82t-46.5 -64t-58.5 -36q-8 -3 -3 -11q22 -37 34 -56t20.5 -30.5t20.5 -28
t34 -49.5q17 -24 40.5 -47.5t51 -39t52.5 -15.5q4 -4 4 -18q0 -12 -4 -20q-7 -1 -15.5 -1.5t-19.5 -0.5zM285 348h27q39 0 60.5 34t21.5 90q0 133 -93 133q-35 0 -46 -8q-12 -9 -12 -98v-108q0 -28 11.5 -35.5t30.5 -7.5zM285 768q-31 0 -52.5 21.5t-21.5 52.5t21.5 52.5
t52.5 21.5t52.5 -21.5t21.5 -52.5t-21.5 -52.5t-52.5 -21.5z" />
    <glyph glyph-name="uni1E5A" unicode="&#x1e5a;" horiz-adv-x="682" 
d="M638 -7q-49 0 -89.5 9.5t-64.5 21.5q-25 12 -49 36q-12 12 -22 23t-21.5 27.5t-29.5 44t-47 73.5q-39 59 -52 64q-2 1 -11 1t-9 -16v-136q0 -53 7 -82q2 -8 17 -14t33 -9t28 -3q4 0 4 -19q0 -10 -2 -18q-60 3 -98 5t-55 1l-146 -6q-4 4 -4 17q0 20 4 20q8 0 23 3t28 8.5
t15 10.5q6 23 6 88v378q0 56 -6 78q-2 6 -15.5 12.5t-28.5 11t-23 4.5q-4 0 -4 18q0 16 3 19q46 -2 82.5 -3.5t64.5 -1.5q48 1 75 1h41h24q40 0 80.5 -10t74.5 -30.5t54.5 -52t20.5 -75.5t-18 -82t-46.5 -64t-58.5 -36q-8 -3 -3 -11q22 -37 34 -56t20.5 -30.5t20.5 -28
t34 -49.5q17 -24 40.5 -47.5t51 -39t52.5 -15.5q4 -4 4 -18q0 -12 -4 -20q-7 -1 -15.5 -1.5t-19.5 -0.5zM285 348h27q39 0 60.5 34t21.5 90q0 133 -93 133q-35 0 -46 -8q-12 -9 -12 -98v-108q0 -28 11.5 -35.5t30.5 -7.5zM355 -200q-31 0 -53 21.5t-22 52.5q0 32 22 53.5
t53 21.5t52.5 -21.5t21.5 -53.5q0 -31 -21.5 -52.5t-52.5 -21.5z" />
    <glyph glyph-name="Rmacronbelow" unicode="&#x1e5e;" horiz-adv-x="682" 
d="M638 -7q-49 0 -89.5 9.5t-64.5 21.5q-25 12 -49 36q-12 12 -22 23t-21.5 27.5t-29.5 44t-47 73.5q-39 59 -52 64q-2 1 -11 1t-9 -16v-136q0 -53 7 -82q2 -8 17 -14t33 -9t28 -3q4 0 4 -19q0 -10 -2 -18q-60 3 -98 5t-55 1l-146 -6q-4 4 -4 17q0 20 4 20q8 0 23 3t28 8.5
t15 10.5q6 23 6 88v378q0 56 -6 78q-2 6 -15.5 12.5t-28.5 11t-23 4.5q-4 0 -4 18q0 16 3 19q46 -2 82.5 -3.5t64.5 -1.5q48 1 75 1h41h24q40 0 80.5 -10t74.5 -30.5t54.5 -52t20.5 -75.5t-18 -82t-46.5 -64t-58.5 -36q-8 -3 -3 -11q22 -37 34 -56t20.5 -30.5t20.5 -28
t34 -49.5q17 -24 40.5 -47.5t51 -39t52.5 -15.5q4 -4 4 -18q0 -12 -4 -20q-7 -1 -15.5 -1.5t-19.5 -0.5zM285 348h27q39 0 60.5 34t21.5 90q0 133 -93 133q-35 0 -46 -8q-12 -9 -12 -98v-108q0 -28 11.5 -35.5t30.5 -7.5zM198 -123l-5 2q-1 2 -1 9q3 58 15 58h287q6 0 6 -10
q-1 -11 -1.5 -20t-2.5 -16q-5 -15 -7 -19l-3 -4h-288z" />
    <glyph glyph-name="S" unicode="S" horiz-adv-x="483" 
d="M238 -10q-40 0 -87 6.5t-103 19.5q-5 22 -10.5 55t-9 64.5t-3.5 46.5q3 10 18 10q31 0 32 -6q6 -30 27 -62.5t51.5 -54.5t64.5 -22q99 0 99 109q0 29 -22.5 53t-52 43t-50.5 33l-30 20q-34 23 -64 47.5t-48.5 57t-18.5 79.5q0 51 31 92t80 65t102 24q21 0 43.5 -3
t38.5 -6q30 -6 51.5 -11.5t34.5 -7.5q5 -49 8 -90t3 -76q-4 -10 -15 -10q-30 0 -31 7q-4 34 -22 66t-46 53.5t-64 21.5q-34 0 -57.5 -21t-23.5 -67q0 -41 36.5 -72t94.5 -68l51 -32q28 -17 53 -37.5t41 -53t16 -88.5q0 -53 -30.5 -95t-80 -66t-107.5 -24z" />
    <glyph glyph-name="Sacute" unicode="&#x15a;" horiz-adv-x="483" 
d="M238 -10q-40 0 -87 6.5t-103 19.5q-5 22 -10.5 55t-9 64.5t-3.5 46.5q3 10 18 10q31 0 32 -6q6 -30 27 -62.5t51.5 -54.5t64.5 -22q99 0 99 109q0 29 -22.5 53t-52 43t-50.5 33l-30 20q-34 23 -64 47.5t-48.5 57t-18.5 79.5q0 51 31 92t80 65t102 24q21 0 43.5 -3
t38.5 -6q30 -6 51.5 -11.5t34.5 -7.5q5 -49 8 -90t3 -76q-4 -10 -15 -10q-30 0 -31 7q-4 34 -22 66t-46 53.5t-64 21.5q-34 0 -57.5 -21t-23.5 -67q0 -41 36.5 -72t94.5 -68l51 -32q28 -17 53 -37.5t41 -53t16 -88.5q0 -53 -30.5 -95t-80 -66t-107.5 -24zM197 729
q-5 0 -9.5 7.5t-4.5 12.5q0 3 12.5 16.5t31 32.5t39.5 37.5t37 30.5q7 4 18 4q18 0 37 -9.5t19 -28.5q0 -10 -16 -23t-40.5 -27t-50 -26t-46 -19.5t-27.5 -7.5z" />
    <glyph glyph-name="uni1E64" unicode="&#x1e64;" horiz-adv-x="483" 
d="M238 -10q-40 0 -87 6.5t-103 19.5q-5 22 -10.5 55t-9 64.5t-3.5 46.5q3 10 18 10q31 0 32 -6q6 -30 27 -62.5t51.5 -54.5t64.5 -22q99 0 99 109q0 29 -22.5 53t-52 43t-50.5 33l-30 20q-34 23 -64 47.5t-48.5 57t-18.5 79.5q0 51 31 92t80 65t102 24q21 0 43.5 -3
t38.5 -6q30 -6 51.5 -11.5t34.5 -7.5q5 -49 8 -90t3 -76q-4 -10 -15 -10q-30 0 -31 7q-4 34 -22 66t-46 53.5t-64 21.5q-34 0 -57.5 -21t-23.5 -67q0 -41 36.5 -72t94.5 -68l51 -32q28 -17 53 -37.5t41 -53t16 -88.5q0 -53 -30.5 -95t-80 -66t-107.5 -24zM197 729
q-5 0 -9.5 7.5t-4.5 12.5q0 3 12.5 16.5t31 32.5t39.5 37.5t37 30.5q7 4 18 4q18 0 37 -9.5t19 -28.5q0 -10 -16 -23t-40.5 -27t-50 -26t-46 -19.5t-27.5 -7.5zM314 944q-31 0 -52.5 21.5t-21.5 52.5t21.5 52.5t52.5 21.5t52.5 -21.5t21.5 -52.5t-21.5 -52.5t-52.5 -21.5z
" />
    <glyph glyph-name="Scaron" unicode="&#x160;" horiz-adv-x="483" 
d="M238 -10q-40 0 -87 6.5t-103 19.5q-5 22 -10.5 55t-9 64.5t-3.5 46.5q3 10 18 10q31 0 32 -6q6 -30 27 -62.5t51.5 -54.5t64.5 -22q99 0 99 109q0 29 -22.5 53t-52 43t-50.5 33l-30 20q-34 23 -64 47.5t-48.5 57t-18.5 79.5q0 51 31 92t80 65t102 24q21 0 43.5 -3
t38.5 -6q30 -6 51.5 -11.5t34.5 -7.5q5 -49 8 -90t3 -76q-4 -10 -15 -10q-30 0 -31 7q-4 34 -22 66t-46 53.5t-64 21.5q-34 0 -57.5 -21t-23.5 -67q0 -41 36.5 -72t94.5 -68l51 -32q28 -17 53 -37.5t41 -53t16 -88.5q0 -53 -30.5 -95t-80 -66t-107.5 -24zM240 728
q-5 0 -13 9q-9 11 -19.5 22.5t-23.5 24.5q-25 24 -43 40.5t-30 25.5q0 19 10 19q6 0 28 -10.5t48.5 -25t43.5 -26.5q18 12 44 26.5t48.5 25t27.5 10.5q10 0 10 -19q-12 -9 -31 -26t-45 -44l-40 -43q-9 -9 -15 -9z" />
    <glyph glyph-name="uni1E66" unicode="&#x1e66;" horiz-adv-x="483" 
d="M238 -10q-40 0 -87 6.5t-103 19.5q-5 22 -10.5 55t-9 64.5t-3.5 46.5q3 10 18 10q31 0 32 -6q6 -30 27 -62.5t51.5 -54.5t64.5 -22q99 0 99 109q0 29 -22.5 53t-52 43t-50.5 33l-30 20q-34 23 -64 47.5t-48.5 57t-18.5 79.5q0 51 31 92t80 65t102 24q21 0 43.5 -3
t38.5 -6q30 -6 51.5 -11.5t34.5 -7.5q5 -49 8 -90t3 -76q-4 -10 -15 -10q-30 0 -31 7q-4 34 -22 66t-46 53.5t-64 21.5q-34 0 -57.5 -21t-23.5 -67q0 -41 36.5 -72t94.5 -68l51 -32q28 -17 53 -37.5t41 -53t16 -88.5q0 -53 -30.5 -95t-80 -66t-107.5 -24zM240 728
q-5 0 -13 9q-9 11 -19.5 22.5t-23.5 24.5q-25 24 -43 40.5t-30 25.5q0 19 10 19q6 0 28 -10.5t48.5 -25t43.5 -26.5q18 12 44 26.5t48.5 25t27.5 10.5q10 0 10 -19q-12 -9 -31 -26t-45 -44l-40 -43q-9 -9 -15 -9zM241 889q-25 0 -49.5 20t-24.5 54q0 31 21.5 52.5t52.5 21.5
t52.5 -21.5t21.5 -52.5q0 -34 -23.5 -54t-50.5 -20z" />
    <glyph glyph-name="Scedilla" unicode="&#x15e;" horiz-adv-x="483" 
d="M238 -10q-40 0 -87 6.5t-103 19.5q-5 22 -10.5 55t-9 64.5t-3.5 46.5q3 10 18 10q31 0 32 -6q6 -30 27 -62.5t51.5 -54.5t64.5 -22q99 0 99 109q0 29 -22.5 53t-52 43t-50.5 33l-30 20q-34 23 -64 47.5t-48.5 57t-18.5 79.5q0 51 31 92t80 65t102 24q21 0 43.5 -3
t38.5 -6q30 -6 51.5 -11.5t34.5 -7.5q5 -49 8 -90t3 -76q-4 -10 -15 -10q-30 0 -31 7q-4 34 -22 66t-46 53.5t-64 21.5q-34 0 -57.5 -21t-23.5 -67q0 -41 36.5 -72t94.5 -68l51 -32q28 -17 53 -37.5t41 -53t16 -88.5q0 -53 -30.5 -95t-80 -66t-107.5 -24zM215 -156
q-32 0 -48 16q-2 8 -2 17q0 14 7 14l19 -7l16.5 -5.5t14.5 -2.5q19 0 29 8.5t10 20.5q0 28 -24 28q-15 0 -30 -6q-2 0 -8.5 6.5t-5.5 9.5l15 28q5 10 8 17t5 10h32l-14 -26l19 1q22 2 38 -14.5t16 -36.5q0 -36 -26 -57t-71 -21z" />
    <glyph glyph-name="Scircumflex" unicode="&#x15c;" horiz-adv-x="483" 
d="M238 -10q-40 0 -87 6.5t-103 19.5q-5 22 -10.5 55t-9 64.5t-3.5 46.5q3 10 18 10q31 0 32 -6q6 -30 27 -62.5t51.5 -54.5t64.5 -22q99 0 99 109q0 29 -22.5 53t-52 43t-50.5 33l-30 20q-34 23 -64 47.5t-48.5 57t-18.5 79.5q0 51 31 92t80 65t102 24q21 0 43.5 -3
t38.5 -6q30 -6 51.5 -11.5t34.5 -7.5q5 -49 8 -90t3 -76q-4 -10 -15 -10q-30 0 -31 7q-4 34 -22 66t-46 53.5t-64 21.5q-34 0 -57.5 -21t-23.5 -67q0 -41 36.5 -72t94.5 -68l51 -32q28 -17 53 -37.5t41 -53t16 -88.5q0 -53 -30.5 -95t-80 -66t-107.5 -24zM122 729
q-10 0 -10 19q14 11 32.5 27t40.5 38q11 10 21.5 22t21.5 26q8 9 13 9q6 0 15 -9l15 -17q7 -7 13 -14t12 -13q24 -24 43 -41t33 -28q0 -19 -10 -19q-6 0 -28 10.5t-48 25.5t-44 26q-17 -11 -43.5 -26t-48.5 -25.5t-28 -10.5z" />
    <glyph glyph-name="uni0218" unicode="&#x218;" horiz-adv-x="483" 
d="M238 -10q-40 0 -87 6.5t-103 19.5q-5 22 -10.5 55t-9 64.5t-3.5 46.5q3 10 18 10q31 0 32 -6q6 -30 27 -62.5t51.5 -54.5t64.5 -22q99 0 99 109q0 29 -22.5 53t-52 43t-50.5 33l-30 20q-34 23 -64 47.5t-48.5 57t-18.5 79.5q0 51 31 92t80 65t102 24q21 0 43.5 -3
t38.5 -6q30 -6 51.5 -11.5t34.5 -7.5q5 -49 8 -90t3 -76q-4 -10 -15 -10q-30 0 -31 7q-4 34 -22 66t-46 53.5t-64 21.5q-34 0 -57.5 -21t-23.5 -67q0 -41 36.5 -72t94.5 -68l51 -32q28 -17 53 -37.5t41 -53t16 -88.5q0 -53 -30.5 -95t-80 -66t-107.5 -24zM209 -218
q-5 0 -15.5 6t-10.5 10q13 9 27 20.5t14 25.5q0 18 -22 31q-23 14 -23 32q0 25 31.5 37.5t71.5 12.5q22 -19 22 -62q0 -37 -29 -68t-63 -45h-3z" />
    <glyph glyph-name="uni1E60" unicode="&#x1e60;" horiz-adv-x="483" 
d="M238 -10q-40 0 -87 6.5t-103 19.5q-5 22 -10.5 55t-9 64.5t-3.5 46.5q3 10 18 10q31 0 32 -6q6 -30 27 -62.5t51.5 -54.5t64.5 -22q99 0 99 109q0 29 -22.5 53t-52 43t-50.5 33l-30 20q-34 23 -64 47.5t-48.5 57t-18.5 79.5q0 51 31 92t80 65t102 24q21 0 43.5 -3
t38.5 -6q30 -6 51.5 -11.5t34.5 -7.5q5 -49 8 -90t3 -76q-4 -10 -15 -10q-30 0 -31 7q-4 34 -22 66t-46 53.5t-64 21.5q-34 0 -57.5 -21t-23.5 -67q0 -41 36.5 -72t94.5 -68l51 -32q28 -17 53 -37.5t41 -53t16 -88.5q0 -53 -30.5 -95t-80 -66t-107.5 -24zM242 768
q-31 0 -52.5 21.5t-21.5 52.5t21.5 52.5t52.5 21.5t52.5 -21.5t21.5 -52.5t-21.5 -52.5t-52.5 -21.5z" />
    <glyph glyph-name="uni1E62" unicode="&#x1e62;" horiz-adv-x="483" 
d="M238 -10q-40 0 -87 6.5t-103 19.5q-5 22 -10.5 55t-9 64.5t-3.5 46.5q3 10 18 10q31 0 32 -6q6 -30 27 -62.5t51.5 -54.5t64.5 -22q99 0 99 109q0 29 -22.5 53t-52 43t-50.5 33l-30 20q-34 23 -64 47.5t-48.5 57t-18.5 79.5q0 51 31 92t80 65t102 24q21 0 43.5 -3
t38.5 -6q30 -6 51.5 -11.5t34.5 -7.5q5 -49 8 -90t3 -76q-4 -10 -15 -10q-30 0 -31 7q-4 34 -22 66t-46 53.5t-64 21.5q-34 0 -57.5 -21t-23.5 -67q0 -41 36.5 -72t94.5 -68l51 -32q28 -17 53 -37.5t41 -53t16 -88.5q0 -53 -30.5 -95t-80 -66t-107.5 -24zM242 -200
q-31 0 -53 21.5t-22 52.5q0 32 22 53.5t53 21.5t52.5 -21.5t21.5 -53.5q0 -31 -21.5 -52.5t-52.5 -21.5z" />
    <glyph glyph-name="uni1E68" unicode="&#x1e68;" horiz-adv-x="483" 
d="M238 -10q-40 0 -87 6.5t-103 19.5q-5 22 -10.5 55t-9 64.5t-3.5 46.5q3 10 18 10q31 0 32 -6q6 -30 27 -62.5t51.5 -54.5t64.5 -22q99 0 99 109q0 29 -22.5 53t-52 43t-50.5 33l-30 20q-34 23 -64 47.5t-48.5 57t-18.5 79.5q0 51 31 92t80 65t102 24q21 0 43.5 -3
t38.5 -6q30 -6 51.5 -11.5t34.5 -7.5q5 -49 8 -90t3 -76q-4 -10 -15 -10q-30 0 -31 7q-4 34 -22 66t-46 53.5t-64 21.5q-34 0 -57.5 -21t-23.5 -67q0 -41 36.5 -72t94.5 -68l51 -32q28 -17 53 -37.5t41 -53t16 -88.5q0 -53 -30.5 -95t-80 -66t-107.5 -24zM242 -200
q-31 0 -53 21.5t-22 52.5q0 32 22 53.5t53 21.5t52.5 -21.5t21.5 -53.5q0 -31 -21.5 -52.5t-52.5 -21.5zM242 768q-31 0 -52.5 21.5t-21.5 52.5t21.5 52.5t52.5 21.5t52.5 -21.5t21.5 -52.5t-21.5 -52.5t-52.5 -21.5z" />
    <glyph glyph-name="T" unicode="T" horiz-adv-x="665" 
d="M188 -4q-4 4 -4 16q0 21 3 21q8 0 23 4t28 10t15 11q4 14 5.5 33t1.5 44v362q0 78 -8 92l-5 9q-4 4 -26 6.5t-51 2.5q-41 0 -67 -22.5t-40 -75.5q-2 -5 -10 -5q-22 0 -29 7l19 163q22 -5 39 -8t30 -3q51 0 109.5 -3t109.5 -3t110 3t110 3q13 0 30 3t39 8l19 -164
q-7 -7 -29 -7q-8 0 -10 5q-25 99 -107 99q-80 0 -85 -18q-4 -14 -6 -36t-2 -53v-361q0 -25 2 -45t6 -36q2 -4 14.5 -10t27 -10.5t20.5 -4.5q4 0 4 -19q0 -10 -2 -18q-4 0 -19 1t-41 3t-46 3t-33 1q-18 0 -49 -2t-58.5 -3.5t-37.5 -2.5z" />
    <glyph glyph-name="Tbar" unicode="&#x166;" horiz-adv-x="666" 
d="M188 -4q-4 4 -4 16q0 21 3 21q8 0 23 4t28 10t15 11q4 14 5.5 33t1.5 44v176h-100q-5 0 -5 15q0 22 6 31h99v140q0 78 -8 92l-5 9q-4 4 -26 6.5t-51 2.5q-41 0 -67 -22.5t-40 -75.5q-2 -5 -10 -5q-22 0 -29 7l19 163q22 -5 39 -8t30 -3q51 0 109.5 -3t109.5 -3t110 3
t110 3q13 0 30 3t39 8l19 -164q-7 -7 -29 -7q-8 0 -10 5q-25 99 -107 99q-80 0 -85 -18q-4 -14 -6 -36t-2 -53v-143h106q6 0 6 -14q0 -18 -6 -32h-106v-172q0 -25 2 -45t6 -36q2 -4 14.5 -10t27 -10.5t20.5 -4.5q4 0 4 -19q0 -10 -2 -18q-4 0 -19 1t-41 3t-46 3t-33 1
q-18 0 -49 -2t-58.5 -3.5t-37.5 -2.5z" />
    <glyph glyph-name="Tcaron" unicode="&#x164;" horiz-adv-x="665" 
d="M188 -4q-4 4 -4 16q0 21 3 21q8 0 23 4t28 10t15 11q4 14 5.5 33t1.5 44v362q0 78 -8 92l-5 9q-4 4 -26 6.5t-51 2.5q-41 0 -67 -22.5t-40 -75.5q-2 -5 -10 -5q-22 0 -29 7l19 163q22 -5 39 -8t30 -3q51 0 109.5 -3t109.5 -3t110 3t110 3q13 0 30 3t39 8l19 -164
q-7 -7 -29 -7q-8 0 -10 5q-25 99 -107 99q-80 0 -85 -18q-4 -14 -6 -36t-2 -53v-361q0 -25 2 -45t6 -36q2 -4 14.5 -10t27 -10.5t20.5 -4.5q4 0 4 -19q0 -10 -2 -18q-4 0 -19 1t-41 3t-46 3t-33 1q-18 0 -49 -2t-58.5 -3.5t-37.5 -2.5zM331 728q-5 0 -13 9q-9 11 -19.5 22.5
t-23.5 24.5q-25 24 -43 40.5t-30 25.5q0 19 10 19q6 0 28 -10.5t48.5 -25t43.5 -26.5q18 12 44 26.5t48.5 25t27.5 10.5q10 0 10 -19q-12 -9 -31 -26t-45 -44l-40 -43q-9 -9 -15 -9z" />
    <glyph glyph-name="uni0162" unicode="&#x162;" horiz-adv-x="665" 
d="M188 -4q-4 4 -4 16q0 21 3 21q8 0 23 4t28 10t15 11q4 14 5.5 33t1.5 44v362q0 78 -8 92l-5 9q-4 4 -26 6.5t-51 2.5q-41 0 -67 -22.5t-40 -75.5q-2 -5 -10 -5q-22 0 -29 7l19 163q22 -5 39 -8t30 -3q51 0 109.5 -3t109.5 -3t110 3t110 3q13 0 30 3t39 8l19 -164
q-7 -7 -29 -7q-8 0 -10 5q-25 99 -107 99q-80 0 -85 -18q-4 -14 -6 -36t-2 -53v-361q0 -25 2 -45t6 -36q2 -4 14.5 -10t27 -10.5t20.5 -4.5q4 0 4 -19q0 -10 -2 -18q-4 0 -19 1t-41 3t-46 3t-33 1q-18 0 -49 -2t-58.5 -3.5t-37.5 -2.5zM306 -149q-32 0 -48 16q-2 8 -2 17
q0 14 7 14l19 -7l16.5 -5.5t14.5 -2.5q19 0 29 8.5t10 20.5q0 28 -24 28q-15 0 -30 -6q-2 0 -8.5 6.5t-5.5 9.5l15 28q5 10 8 17t5 10h32l-14 -26l19 1q22 2 38 -14.5t16 -36.5q0 -36 -26 -57t-71 -21z" />
    <glyph glyph-name="uni1E70" unicode="&#x1e70;" horiz-adv-x="665" 
d="M188 -4q-4 4 -4 16q0 21 3 21q8 0 23 4t28 10t15 11q4 14 5.5 33t1.5 44v362q0 78 -8 92l-5 9q-4 4 -26 6.5t-51 2.5q-41 0 -67 -22.5t-40 -75.5q-2 -5 -10 -5q-22 0 -29 7l19 163q22 -5 39 -8t30 -3q51 0 109.5 -3t109.5 -3t110 3t110 3q13 0 30 3t39 8l19 -164
q-7 -7 -29 -7q-8 0 -10 5q-25 99 -107 99q-80 0 -85 -18q-4 -14 -6 -36t-2 -53v-361q0 -25 2 -45t6 -36q2 -4 14.5 -10t27 -10.5t20.5 -4.5q4 0 4 -19q0 -10 -2 -18q-4 0 -19 1t-41 3t-46 3t-33 1q-18 0 -49 -2t-58.5 -3.5t-37.5 -2.5zM212 -191q-10 0 -10 19q14 11 32.5 27
t40.5 38q11 10 21.5 22t21.5 26q8 9 13 9q6 0 15 -9l15 -17q7 -7 13 -14t12 -13q24 -24 43 -41t33 -28q0 -19 -10 -19q-6 0 -28 10.5t-48 25.5t-44 26q-17 -11 -43.5 -26t-48.5 -25.5t-28 -10.5z" />
    <glyph glyph-name="uni021A" unicode="&#x21a;" horiz-adv-x="665" 
d="M188 -4q-4 4 -4 16q0 21 3 21q8 0 23 4t28 10t15 11q4 14 5.5 33t1.5 44v362q0 78 -8 92l-5 9q-4 4 -26 6.5t-51 2.5q-41 0 -67 -22.5t-40 -75.5q-2 -5 -10 -5q-22 0 -29 7l19 163q22 -5 39 -8t30 -3q51 0 109.5 -3t109.5 -3t110 3t110 3q13 0 30 3t39 8l19 -164
q-7 -7 -29 -7q-8 0 -10 5q-25 99 -107 99q-80 0 -85 -18q-4 -14 -6 -36t-2 -53v-361q0 -25 2 -45t6 -36q2 -4 14.5 -10t27 -10.5t20.5 -4.5q4 0 4 -19q0 -10 -2 -18q-4 0 -19 1t-41 3t-46 3t-33 1q-18 0 -49 -2t-58.5 -3.5t-37.5 -2.5zM300 -211q-5 0 -15.5 6t-10.5 10
q13 9 27 20.5t14 25.5q0 18 -22 31q-23 14 -23 32q0 25 31.5 37.5t71.5 12.5q22 -19 22 -62q0 -37 -29 -68t-63 -45h-3z" />
    <glyph glyph-name="uni1E6A" unicode="&#x1e6a;" horiz-adv-x="665" 
d="M188 -4q-4 4 -4 16q0 21 3 21q8 0 23 4t28 10t15 11q4 14 5.5 33t1.5 44v362q0 78 -8 92l-5 9q-4 4 -26 6.5t-51 2.5q-41 0 -67 -22.5t-40 -75.5q-2 -5 -10 -5q-22 0 -29 7l19 163q22 -5 39 -8t30 -3q51 0 109.5 -3t109.5 -3t110 3t110 3q13 0 30 3t39 8l19 -164
q-7 -7 -29 -7q-8 0 -10 5q-25 99 -107 99q-80 0 -85 -18q-4 -14 -6 -36t-2 -53v-361q0 -25 2 -45t6 -36q2 -4 14.5 -10t27 -10.5t20.5 -4.5q4 0 4 -19q0 -10 -2 -18q-4 0 -19 1t-41 3t-46 3t-33 1q-18 0 -49 -2t-58.5 -3.5t-37.5 -2.5zM333 768q-31 0 -52.5 21.5t-21.5 52.5
t21.5 52.5t52.5 21.5t52.5 -21.5t21.5 -52.5t-21.5 -52.5t-52.5 -21.5z" />
    <glyph glyph-name="uni1E6C" unicode="&#x1e6c;" horiz-adv-x="665" 
d="M188 -4q-4 4 -4 16q0 21 3 21q8 0 23 4t28 10t15 11q4 14 5.5 33t1.5 44v362q0 78 -8 92l-5 9q-4 4 -26 6.5t-51 2.5q-41 0 -67 -22.5t-40 -75.5q-2 -5 -10 -5q-22 0 -29 7l19 163q22 -5 39 -8t30 -3q51 0 109.5 -3t109.5 -3t110 3t110 3q13 0 30 3t39 8l19 -164
q-7 -7 -29 -7q-8 0 -10 5q-25 99 -107 99q-80 0 -85 -18q-4 -14 -6 -36t-2 -53v-361q0 -25 2 -45t6 -36q2 -4 14.5 -10t27 -10.5t20.5 -4.5q4 0 4 -19q0 -10 -2 -18q-4 0 -19 1t-41 3t-46 3t-33 1q-18 0 -49 -2t-58.5 -3.5t-37.5 -2.5zM333 -193q-31 0 -53 21.5t-22 52.5
q0 32 22 53.5t53 21.5t52.5 -21.5t21.5 -53.5q0 -31 -21.5 -52.5t-52.5 -21.5z" />
    <glyph glyph-name="Tmacronbelow" unicode="&#x1e6e;" horiz-adv-x="665" 
d="M188 -4q-4 4 -4 16q0 21 3 21q8 0 23 4t28 10t15 11q4 14 5.5 33t1.5 44v362q0 78 -8 92l-5 9q-4 4 -26 6.5t-51 2.5q-41 0 -67 -22.5t-40 -75.5q-2 -5 -10 -5q-22 0 -29 7l19 163q22 -5 39 -8t30 -3q51 0 109.5 -3t109.5 -3t110 3t110 3q13 0 30 3t39 8l19 -164
q-7 -7 -29 -7q-8 0 -10 5q-25 99 -107 99q-80 0 -85 -18q-4 -14 -6 -36t-2 -53v-361q0 -25 2 -45t6 -36q2 -4 14.5 -10t27 -10.5t20.5 -4.5q4 0 4 -19q0 -10 -2 -18q-4 0 -19 1t-41 3t-46 3t-33 1q-18 0 -49 -2t-58.5 -3.5t-37.5 -2.5zM184 -123l-5 2q-1 2 -1 9q3 58 15 58
h287q6 0 6 -10q-1 -11 -1.5 -20t-2.5 -16q-5 -15 -7 -19l-3 -4h-288z" />
    <glyph glyph-name="U" unicode="U" horiz-adv-x="733" 
d="M359 -5q-81 0 -142 33.5t-94.5 103.5t-33.5 179v211q0 64 -8 78q-3 6 -15.5 11.5t-25.5 9.5t-21 4q-4 0 -4 17q0 18 2 20l145 -6q10 -1 45 1t95 5q3 -9 3 -18q0 -19 -4 -19q-6 0 -21 -4t-28.5 -9.5t-15.5 -10.5q-7 -25 -7 -85v-237q0 -92 41.5 -148t112.5 -56
q74 0 121.5 48.5t47.5 162.5v238q0 58 -13 72q-6 8 -21.5 14.5t-32 10.5t-24.5 4q-2 0 -3.5 8t-1.5 17.5t2 11.5q46 -4 79 -6t53 -2q17 0 43 2t49.5 4t31.5 2q4 -7 4 -18q0 -19 -5 -19q-54 0 -83 -33q-14 -17 -14 -73v-228q0 -97 -32.5 -163t-90.5 -99.5t-134 -33.5z" />
    <glyph glyph-name="Uacute" unicode="&#xda;" horiz-adv-x="733" 
d="M359 -5q-81 0 -142 33.5t-94.5 103.5t-33.5 179v211q0 64 -8 78q-3 6 -15.5 11.5t-25.5 9.5t-21 4q-4 0 -4 17q0 18 2 20l145 -6q10 -1 45 1t95 5q3 -9 3 -18q0 -19 -4 -19q-6 0 -21 -4t-28.5 -9.5t-15.5 -10.5q-7 -25 -7 -85v-237q0 -92 41.5 -148t112.5 -56
q74 0 121.5 48.5t47.5 162.5v238q0 58 -13 72q-6 8 -21.5 14.5t-32 10.5t-24.5 4q-2 0 -3.5 8t-1.5 17.5t2 11.5q46 -4 79 -6t53 -2q17 0 43 2t49.5 4t31.5 2q4 -7 4 -18q0 -19 -5 -19q-54 0 -83 -33q-14 -17 -14 -73v-228q0 -97 -32.5 -163t-90.5 -99.5t-134 -33.5z
M323 729q-5 0 -9.5 7.5t-4.5 12.5q0 3 12.5 16.5t31 32.5t39.5 37.5t37 30.5q7 4 18 4q18 0 37 -9.5t19 -28.5q0 -10 -16 -23t-40.5 -27t-50 -26t-46 -19.5t-27.5 -7.5z" />
    <glyph glyph-name="Ubreve" unicode="&#x16c;" horiz-adv-x="733" 
d="M359 -5q-81 0 -142 33.5t-94.5 103.5t-33.5 179v211q0 64 -8 78q-3 6 -15.5 11.5t-25.5 9.5t-21 4q-4 0 -4 17q0 18 2 20l145 -6q10 -1 45 1t95 5q3 -9 3 -18q0 -19 -4 -19q-6 0 -21 -4t-28.5 -9.5t-15.5 -10.5q-7 -25 -7 -85v-237q0 -92 41.5 -148t112.5 -56
q74 0 121.5 48.5t47.5 162.5v238q0 58 -13 72q-6 8 -21.5 14.5t-32 10.5t-24.5 4q-2 0 -3.5 8t-1.5 17.5t2 11.5q46 -4 79 -6t53 -2q17 0 43 2t49.5 4t31.5 2q4 -7 4 -18q0 -19 -5 -19q-54 0 -83 -33q-14 -17 -14 -73v-228q0 -97 -32.5 -163t-90.5 -99.5t-134 -33.5z
M368 728q-32 0 -59 18t-46 49q-5 8 -5 13t9 15.5t14 12.5q2 2 4 -2q13 -17 37.5 -31.5t45.5 -14.5t45.5 14.5t37.5 31.5q2 4 4 2q5 -2 14 -12.5t9 -15.5t-5 -13q-19 -31 -46 -49t-59 -18z" />
    <glyph glyph-name="uni01D3" unicode="&#x1d3;" horiz-adv-x="733" 
d="M359 -5q-81 0 -142 33.5t-94.5 103.5t-33.5 179v211q0 64 -8 78q-3 6 -15.5 11.5t-25.5 9.5t-21 4q-4 0 -4 17q0 18 2 20l145 -6q10 -1 45 1t95 5q3 -9 3 -18q0 -19 -4 -19q-6 0 -21 -4t-28.5 -9.5t-15.5 -10.5q-7 -25 -7 -85v-237q0 -92 41.5 -148t112.5 -56
q74 0 121.5 48.5t47.5 162.5v238q0 58 -13 72q-6 8 -21.5 14.5t-32 10.5t-24.5 4q-2 0 -3.5 8t-1.5 17.5t2 11.5q46 -4 79 -6t53 -2q17 0 43 2t49.5 4t31.5 2q4 -7 4 -18q0 -19 -5 -19q-54 0 -83 -33q-14 -17 -14 -73v-228q0 -97 -32.5 -163t-90.5 -99.5t-134 -33.5z
M366 728q-5 0 -13 9q-9 11 -19.5 22.5t-23.5 24.5q-25 24 -43 40.5t-30 25.5q0 19 10 19q6 0 28 -10.5t48.5 -25t43.5 -26.5q18 12 44 26.5t48.5 25t27.5 10.5q10 0 10 -19q-12 -9 -31 -26t-45 -44l-40 -43q-9 -9 -15 -9z" />
    <glyph glyph-name="Ucircumflex" unicode="&#xdb;" horiz-adv-x="733" 
d="M359 -5q-81 0 -142 33.5t-94.5 103.5t-33.5 179v211q0 64 -8 78q-3 6 -15.5 11.5t-25.5 9.5t-21 4q-4 0 -4 17q0 18 2 20l145 -6q10 -1 45 1t95 5q3 -9 3 -18q0 -19 -4 -19q-6 0 -21 -4t-28.5 -9.5t-15.5 -10.5q-7 -25 -7 -85v-237q0 -92 41.5 -148t112.5 -56
q74 0 121.5 48.5t47.5 162.5v238q0 58 -13 72q-6 8 -21.5 14.5t-32 10.5t-24.5 4q-2 0 -3.5 8t-1.5 17.5t2 11.5q46 -4 79 -6t53 -2q17 0 43 2t49.5 4t31.5 2q4 -7 4 -18q0 -19 -5 -19q-54 0 -83 -33q-14 -17 -14 -73v-228q0 -97 -32.5 -163t-90.5 -99.5t-134 -33.5z
M248 729q-10 0 -10 19q14 11 32.5 27t40.5 38q11 10 21.5 22t21.5 26q8 9 13 9q6 0 15 -9l15 -17q7 -7 13 -14t12 -13q24 -24 43 -41t33 -28q0 -19 -10 -19q-6 0 -28 10.5t-48 25.5t-44 26q-17 -11 -43.5 -26t-48.5 -25.5t-28 -10.5z" />
    <glyph glyph-name="uni1E76" unicode="&#x1e76;" horiz-adv-x="733" 
d="M359 -5q-81 0 -142 33.5t-94.5 103.5t-33.5 179v211q0 64 -8 78q-3 6 -15.5 11.5t-25.5 9.5t-21 4q-4 0 -4 17q0 18 2 20l145 -6q10 -1 45 1t95 5q3 -9 3 -18q0 -19 -4 -19q-6 0 -21 -4t-28.5 -9.5t-15.5 -10.5q-7 -25 -7 -85v-237q0 -92 41.5 -148t112.5 -56
q74 0 121.5 48.5t47.5 162.5v238q0 58 -13 72q-6 8 -21.5 14.5t-32 10.5t-24.5 4q-2 0 -3.5 8t-1.5 17.5t2 11.5q46 -4 79 -6t53 -2q17 0 43 2t49.5 4t31.5 2q4 -7 4 -18q0 -19 -5 -19q-54 0 -83 -33q-14 -17 -14 -73v-228q0 -97 -32.5 -163t-90.5 -99.5t-134 -33.5z
M252 -201q-10 0 -10 19q14 11 32.5 27t40.5 38q11 10 21.5 22t21.5 26q8 9 13 9q6 0 15 -9l15 -17q7 -7 13 -14t12 -13q24 -24 43 -41t33 -28q0 -19 -10 -19q-6 0 -28 10.5t-48 25.5t-44 26q-17 -11 -43.5 -26t-48.5 -25.5t-28 -10.5z" />
    <glyph glyph-name="Udieresis" unicode="&#xdc;" horiz-adv-x="733" 
d="M359 -5q-81 0 -142 33.5t-94.5 103.5t-33.5 179v211q0 64 -8 78q-3 6 -15.5 11.5t-25.5 9.5t-21 4q-4 0 -4 17q0 18 2 20l145 -6q10 -1 45 1t95 5q3 -9 3 -18q0 -19 -4 -19q-6 0 -21 -4t-28.5 -9.5t-15.5 -10.5q-7 -25 -7 -85v-237q0 -92 41.5 -148t112.5 -56
q74 0 121.5 48.5t47.5 162.5v238q0 58 -13 72q-6 8 -21.5 14.5t-32 10.5t-24.5 4q-2 0 -3.5 8t-1.5 17.5t2 11.5q46 -4 79 -6t53 -2q17 0 43 2t49.5 4t31.5 2q4 -7 4 -18q0 -19 -5 -19q-54 0 -83 -33q-14 -17 -14 -73v-228q0 -97 -32.5 -163t-90.5 -99.5t-134 -33.5z
M468 726q-30 0 -52 22t-22 53t22 52t52 21q31 0 52.5 -22t21.5 -51q0 -31 -22.5 -53t-51.5 -22zM270 726q-30 0 -52.5 22t-22.5 53q0 29 22 51t53 22q29 0 51 -21t22 -52t-22 -53t-51 -22z" />
    <glyph glyph-name="uni01D7" unicode="&#x1d7;" horiz-adv-x="733" 
d="M359 -5q-81 0 -142 33.5t-94.5 103.5t-33.5 179v211q0 64 -8 78q-3 6 -15.5 11.5t-25.5 9.5t-21 4q-4 0 -4 17q0 18 2 20l145 -6q10 -1 45 1t95 5q3 -9 3 -18q0 -19 -4 -19q-6 0 -21 -4t-28.5 -9.5t-15.5 -10.5q-7 -25 -7 -85v-237q0 -92 41.5 -148t112.5 -56
q74 0 121.5 48.5t47.5 162.5v238q0 58 -13 72q-6 8 -21.5 14.5t-32 10.5t-24.5 4q-2 0 -3.5 8t-1.5 17.5t2 11.5q46 -4 79 -6t53 -2q17 0 43 2t49.5 4t31.5 2q4 -7 4 -18q0 -19 -5 -19q-54 0 -83 -33q-14 -17 -14 -73v-228q0 -97 -32.5 -163t-90.5 -99.5t-134 -33.5z
M468 726q-30 0 -52 22t-22 53t22 52t52 21q31 0 52.5 -22t21.5 -51q0 -31 -22.5 -53t-51.5 -22zM270 726q-30 0 -52.5 22t-22.5 53q0 29 22 51t53 22q29 0 51 -21t22 -52t-22 -53t-51 -22zM323 903q-5 0 -9.5 7.5t-4.5 12.5q0 3 12.5 16.5t31 32.5t39.5 37.5t37 30.5
q7 4 18 4q18 0 37 -9.5t19 -28.5q0 -10 -16 -23t-40.5 -27t-50 -26t-46 -19.5t-27.5 -7.5z" />
    <glyph glyph-name="uni1E72" unicode="&#x1e72;" horiz-adv-x="743" 
d="M359 -5q-81 0 -142 33.5t-94.5 103.5t-33.5 179v211q0 64 -8 78q-3 6 -15.5 11.5t-25.5 9.5t-21 4q-4 0 -4 17q0 18 2 20l145 -6q10 -1 45 1t95 5q3 -9 3 -18q0 -19 -4 -19q-6 0 -21 -4t-28.5 -9.5t-15.5 -10.5q-7 -25 -7 -85v-237q0 -92 41.5 -148t112.5 -56
q74 0 121.5 48.5t47.5 162.5v238q0 58 -13 72q-6 8 -21.5 14.5t-32 10.5t-24.5 4q-2 0 -3.5 8t-1.5 17.5t2 11.5q46 -4 79 -6t53 -2q17 0 43 2t49.5 4t31.5 2q4 -7 4 -18q0 -19 -5 -19q-54 0 -83 -33q-14 -17 -14 -73v-228q0 -97 -32.5 -163t-90.5 -99.5t-134 -33.5z
M471 -197q-30 0 -52 22t-22 53t22 52t52 21q31 0 52.5 -22t21.5 -51q0 -31 -22.5 -53t-51.5 -22zM273 -197q-30 0 -52.5 22t-22.5 53q0 29 22 51t53 22q29 0 51 -21t22 -52t-22 -53t-51 -22z" />
    <glyph glyph-name="uni01D9" unicode="&#x1d9;" horiz-adv-x="733" 
d="M359 -5q-81 0 -142 33.5t-94.5 103.5t-33.5 179v211q0 64 -8 78q-3 6 -15.5 11.5t-25.5 9.5t-21 4q-4 0 -4 17q0 18 2 20l145 -6q10 -1 45 1t95 5q3 -9 3 -18q0 -19 -4 -19q-6 0 -21 -4t-28.5 -9.5t-15.5 -10.5q-7 -25 -7 -85v-237q0 -92 41.5 -148t112.5 -56
q74 0 121.5 48.5t47.5 162.5v238q0 58 -13 72q-6 8 -21.5 14.5t-32 10.5t-24.5 4q-2 0 -3.5 8t-1.5 17.5t2 11.5q46 -4 79 -6t53 -2q17 0 43 2t49.5 4t31.5 2q4 -7 4 -18q0 -19 -5 -19q-54 0 -83 -33q-14 -17 -14 -73v-228q0 -97 -32.5 -163t-90.5 -99.5t-134 -33.5z
M468 726q-30 0 -52 22t-22 53t22 52t52 21q31 0 52.5 -22t21.5 -51q0 -31 -22.5 -53t-51.5 -22zM270 726q-30 0 -52.5 22t-22.5 53q0 29 22 51t53 22q29 0 51 -21t22 -52t-22 -53t-51 -22zM368 912q-7 0 -13 10q-18 30 -39 57q-42 54 -66 78q0 23 9 23q6 0 26 -13t44 -30
t39 -31q16 14 39.5 31t44 30t25.5 13q9 0 9 -23q-13 -13 -30 -33.5t-39 -49.5q-5 -7 -11 -14.5t-11 -15.5l-15 -22q-7 -10 -12 -10z" />
    <glyph glyph-name="uni01DB" unicode="&#x1db;" horiz-adv-x="733" 
d="M359 -5q-81 0 -142 33.5t-94.5 103.5t-33.5 179v211q0 64 -8 78q-3 6 -15.5 11.5t-25.5 9.5t-21 4q-4 0 -4 17q0 18 2 20l145 -6q10 -1 45 1t95 5q3 -9 3 -18q0 -19 -4 -19q-6 0 -21 -4t-28.5 -9.5t-15.5 -10.5q-7 -25 -7 -85v-237q0 -92 41.5 -148t112.5 -56
q74 0 121.5 48.5t47.5 162.5v238q0 58 -13 72q-6 8 -21.5 14.5t-32 10.5t-24.5 4q-2 0 -3.5 8t-1.5 17.5t2 11.5q46 -4 79 -6t53 -2q17 0 43 2t49.5 4t31.5 2q4 -7 4 -18q0 -19 -5 -19q-54 0 -83 -33q-14 -17 -14 -73v-228q0 -97 -32.5 -163t-90.5 -99.5t-134 -33.5z
M468 726q-30 0 -52 22t-22 53t22 52t52 21q31 0 52.5 -22t21.5 -51q0 -31 -22.5 -53t-51.5 -22zM270 726q-30 0 -52.5 22t-22.5 53q0 29 22 51t53 22q29 0 51 -21t22 -52t-22 -53t-51 -22zM402 902q-7 0 -27.5 7.5t-46 19.5t-50 26t-40.5 27t-16 23q0 19 19 28.5t37 9.5
q11 0 18 -4q17 -12 37.5 -30.5t39 -37.5t31 -32.5t12.5 -16.5q0 -5 -4.5 -12.5t-9.5 -7.5z" />
    <glyph glyph-name="uni1EE4" unicode="&#x1ee4;" horiz-adv-x="733" 
d="M359 -5q-81 0 -142 33.5t-94.5 103.5t-33.5 179v211q0 64 -8 78q-3 6 -15.5 11.5t-25.5 9.5t-21 4q-4 0 -4 17q0 18 2 20l145 -6q10 -1 45 1t95 5q3 -9 3 -18q0 -19 -4 -19q-6 0 -21 -4t-28.5 -9.5t-15.5 -10.5q-7 -25 -7 -85v-237q0 -92 41.5 -148t112.5 -56
q74 0 121.5 48.5t47.5 162.5v238q0 58 -13 72q-6 8 -21.5 14.5t-32 10.5t-24.5 4q-2 0 -3.5 8t-1.5 17.5t2 11.5q46 -4 79 -6t53 -2q17 0 43 2t49.5 4t31.5 2q4 -7 4 -18q0 -19 -5 -19q-54 0 -83 -33q-14 -17 -14 -73v-228q0 -97 -32.5 -163t-90.5 -99.5t-134 -33.5z
M368 -200q-31 0 -53 21.5t-22 52.5q0 32 22 53.5t53 21.5t52.5 -21.5t21.5 -53.5q0 -31 -21.5 -52.5t-52.5 -21.5z" />
    <glyph glyph-name="Ugrave" unicode="&#xd9;" horiz-adv-x="733" 
d="M359 -5q-81 0 -142 33.5t-94.5 103.5t-33.5 179v211q0 64 -8 78q-3 6 -15.5 11.5t-25.5 9.5t-21 4q-4 0 -4 17q0 18 2 20l145 -6q10 -1 45 1t95 5q3 -9 3 -18q0 -19 -4 -19q-6 0 -21 -4t-28.5 -9.5t-15.5 -10.5q-7 -25 -7 -85v-237q0 -92 41.5 -148t112.5 -56
q74 0 121.5 48.5t47.5 162.5v238q0 58 -13 72q-6 8 -21.5 14.5t-32 10.5t-24.5 4q-2 0 -3.5 8t-1.5 17.5t2 11.5q46 -4 79 -6t53 -2q17 0 43 2t49.5 4t31.5 2q4 -7 4 -18q0 -19 -5 -19q-54 0 -83 -33q-14 -17 -14 -73v-228q0 -97 -32.5 -163t-90.5 -99.5t-134 -33.5z
M402 728q-7 0 -27.5 7.5t-46 19.5t-50 26t-40.5 27t-16 23q0 19 19 28.5t37 9.5q11 0 18 -4q17 -12 37.5 -30.5t39 -37.5t31 -32.5t12.5 -16.5q0 -5 -4.5 -12.5t-9.5 -7.5z" />
    <glyph glyph-name="uni1EE6" unicode="&#x1ee6;" horiz-adv-x="733" 
d="M359 -5q-81 0 -142 33.5t-94.5 103.5t-33.5 179v211q0 64 -8 78q-3 6 -15.5 11.5t-25.5 9.5t-21 4q-4 0 -4 17q0 18 2 20l145 -6q10 -1 45 1t95 5q3 -9 3 -18q0 -19 -4 -19q-6 0 -21 -4t-28.5 -9.5t-15.5 -10.5q-7 -25 -7 -85v-237q0 -92 41.5 -148t112.5 -56
q74 0 121.5 48.5t47.5 162.5v238q0 58 -13 72q-6 8 -21.5 14.5t-32 10.5t-24.5 4q-2 0 -3.5 8t-1.5 17.5t2 11.5q46 -4 79 -6t53 -2q17 0 43 2t49.5 4t31.5 2q4 -7 4 -18q0 -19 -5 -19q-54 0 -83 -33q-14 -17 -14 -73v-228q0 -97 -32.5 -163t-90.5 -99.5t-134 -33.5z
M352 725q-10 6 -10 17q0 28 45 49q36 17 36 42q0 30 -25 30q-33 0 -33 -36q0 -22 -39 -22q-7 0 -14.5 4.5t-7.5 12.5q0 36 31.5 57.5t72.5 21.5q30 0 49.5 -16.5t19.5 -41.5q0 -53 -51 -74q-30 -13 -35 -21q-1 -2 -1 -6q0 -6 1 -8q0 -2 -14.5 -5.5t-24.5 -3.5z" />
    <glyph glyph-name="Uhorn" unicode="&#x1af;" horiz-adv-x="797" 
d="M736 692q0 6 -11 23q-11 16 -11 29q0 46 94 46q7 -7 13 -27.5t6 -40.5q0 -24 -19.5 -43.5t-50.5 -34.5t-65 -23q-37 -9 -53 -29q-14 -17 -14 -73v-228q0 -97 -32.5 -163t-90.5 -99.5t-134 -33.5q-81 0 -142 33.5t-94.5 103.5t-33.5 179v211q0 64 -8 78q-3 5 -15.5 11
t-26 10t-20.5 4q-4 0 -4 17q0 18 2 20q138 -6 145 -6q20 0 140 6q3 -9 3 -18q0 -19 -4 -19q-6 0 -21 -4t-29 -9.5t-15 -10.5q-7 -27 -7 -85v-237q0 -92 41.5 -148t112.5 -56q74 0 121.5 48.5t47.5 162.5v238q0 57 -13 72q-6 7 -21.5 14t-32 11t-24.5 4q-3 0 -4 8t-1 17t2 12
q92 -8 132 -8q57 0 97 10t40 28z" />
    <glyph glyph-name="uni1EE8" unicode="&#x1ee8;" horiz-adv-x="797" 
d="M736 692q0 6 -11 23q-11 16 -11 29q0 46 94 46q7 -7 13 -27.5t6 -40.5q0 -24 -19.5 -43.5t-50.5 -34.5t-65 -23q-37 -9 -53 -29q-14 -17 -14 -73v-228q0 -97 -32.5 -163t-90.5 -99.5t-134 -33.5q-81 0 -142 33.5t-94.5 103.5t-33.5 179v211q0 64 -8 78q-3 5 -15.5 11
t-26 10t-20.5 4q-4 0 -4 17q0 18 2 20q138 -6 145 -6q20 0 140 6q3 -9 3 -18q0 -19 -4 -19q-6 0 -21 -4t-29 -9.5t-15 -10.5q-7 -27 -7 -85v-237q0 -92 41.5 -148t112.5 -56q74 0 121.5 48.5t47.5 162.5v238q0 57 -13 72q-6 7 -21.5 14t-32 11t-24.5 4q-3 0 -4 8t-1 17t2 12
q92 -8 132 -8q57 0 97 10t40 28zM332 729q-5 0 -9.5 7.5t-4.5 12.5q0 3 12.5 16.5t31 32.5t39.5 37.5t37 30.5q7 4 18 4q18 0 37 -9.5t19 -28.5q0 -10 -16 -23t-40.5 -27t-50 -26t-46 -19.5t-27.5 -7.5z" />
    <glyph glyph-name="uni1EF0" unicode="&#x1ef0;" horiz-adv-x="797" 
d="M736 692q0 6 -11 23q-11 16 -11 29q0 46 94 46q7 -7 13 -27.5t6 -40.5q0 -24 -19.5 -43.5t-50.5 -34.5t-65 -23q-37 -9 -53 -29q-14 -17 -14 -73v-228q0 -97 -32.5 -163t-90.5 -99.5t-134 -33.5q-81 0 -142 33.5t-94.5 103.5t-33.5 179v211q0 64 -8 78q-3 5 -15.5 11
t-26 10t-20.5 4q-4 0 -4 17q0 18 2 20q138 -6 145 -6q20 0 140 6q3 -9 3 -18q0 -19 -4 -19q-6 0 -21 -4t-29 -9.5t-15 -10.5q-7 -27 -7 -85v-237q0 -92 41.5 -148t112.5 -56q74 0 121.5 48.5t47.5 162.5v238q0 57 -13 72q-6 7 -21.5 14t-32 11t-24.5 4q-3 0 -4 8t-1 17t2 12
q92 -8 132 -8q57 0 97 10t40 28zM377 -200q-31 0 -53 21.5t-22 52.5q0 32 22 53.5t53 21.5t52.5 -21.5t21.5 -53.5q0 -31 -21.5 -52.5t-52.5 -21.5z" />
    <glyph glyph-name="uni1EEA" unicode="&#x1eea;" horiz-adv-x="797" 
d="M736 692q0 6 -11 23q-11 16 -11 29q0 46 94 46q7 -7 13 -27.5t6 -40.5q0 -24 -19.5 -43.5t-50.5 -34.5t-65 -23q-37 -9 -53 -29q-14 -17 -14 -73v-228q0 -97 -32.5 -163t-90.5 -99.5t-134 -33.5q-81 0 -142 33.5t-94.5 103.5t-33.5 179v211q0 64 -8 78q-3 5 -15.5 11
t-26 10t-20.5 4q-4 0 -4 17q0 18 2 20q138 -6 145 -6q20 0 140 6q3 -9 3 -18q0 -19 -4 -19q-6 0 -21 -4t-29 -9.5t-15 -10.5q-7 -27 -7 -85v-237q0 -92 41.5 -148t112.5 -56q74 0 121.5 48.5t47.5 162.5v238q0 57 -13 72q-6 7 -21.5 14t-32 11t-24.5 4q-3 0 -4 8t-1 17t2 12
q92 -8 132 -8q57 0 97 10t40 28zM411 728q-7 0 -27.5 7.5t-46 19.5t-50 26t-40.5 27t-16 23q0 19 19 28.5t37 9.5q11 0 18 -4q17 -12 37.5 -30.5t39 -37.5t31 -32.5t12.5 -16.5q0 -5 -4.5 -12.5t-9.5 -7.5z" />
    <glyph glyph-name="uni1EEC" unicode="&#x1eec;" horiz-adv-x="797" 
d="M736 692q0 6 -11 23q-11 16 -11 29q0 46 94 46q7 -7 13 -27.5t6 -40.5q0 -24 -19.5 -43.5t-50.5 -34.5t-65 -23q-37 -9 -53 -29q-14 -17 -14 -73v-228q0 -97 -32.5 -163t-90.5 -99.5t-134 -33.5q-81 0 -142 33.5t-94.5 103.5t-33.5 179v211q0 64 -8 78q-3 5 -15.5 11
t-26 10t-20.5 4q-4 0 -4 17q0 18 2 20q138 -6 145 -6q20 0 140 6q3 -9 3 -18q0 -19 -4 -19q-6 0 -21 -4t-29 -9.5t-15 -10.5q-7 -27 -7 -85v-237q0 -92 41.5 -148t112.5 -56q74 0 121.5 48.5t47.5 162.5v238q0 57 -13 72q-6 7 -21.5 14t-32 11t-24.5 4q-3 0 -4 8t-1 17t2 12
q92 -8 132 -8q57 0 97 10t40 28zM361 725q-10 6 -10 17q0 28 45 49q36 17 36 42q0 30 -25 30q-33 0 -33 -36q0 -22 -39 -22q-7 0 -14.5 4.5t-7.5 12.5q0 36 31.5 57.5t72.5 21.5q30 0 49.5 -16.5t19.5 -41.5q0 -53 -51 -74q-30 -13 -35 -21q-1 -2 -1 -6q0 -6 1 -8
q0 -2 -14.5 -5.5t-24.5 -3.5z" />
    <glyph glyph-name="uni1EEE" unicode="&#x1eee;" horiz-adv-x="797" 
d="M736 692q0 6 -11 23q-11 16 -11 29q0 46 94 46q7 -7 13 -27.5t6 -40.5q0 -24 -19.5 -43.5t-50.5 -34.5t-65 -23q-37 -9 -53 -29q-14 -17 -14 -73v-228q0 -97 -32.5 -163t-90.5 -99.5t-134 -33.5q-81 0 -142 33.5t-94.5 103.5t-33.5 179v211q0 64 -8 78q-3 5 -15.5 11
t-26 10t-20.5 4q-4 0 -4 17q0 18 2 20q138 -6 145 -6q20 0 140 6q3 -9 3 -18q0 -19 -4 -19q-6 0 -21 -4t-29 -9.5t-15 -10.5q-7 -27 -7 -85v-237q0 -92 41.5 -148t112.5 -56q74 0 121.5 48.5t47.5 162.5v238q0 57 -13 72q-6 7 -21.5 14t-32 11t-24.5 4q-3 0 -4 8t-1 17t2 12
q92 -8 132 -8q57 0 97 10t40 28zM459 728q-38 0 -96 34t-96 34q-19 0 -44 -28q-26 -29 -30 -29q-8 0 -8 22q0 25 18 50q38 51 88 51q38 0 96 -34t96 -34q19 0 43 29q24 28 29 28q8 0 8 -22q0 -25 -18 -51q-35 -50 -86 -50z" />
    <glyph glyph-name="Uhungarumlaut" unicode="&#x170;" horiz-adv-x="733" 
d="M359 -5q-81 0 -142 33.5t-94.5 103.5t-33.5 179v211q0 64 -8 78q-3 6 -15.5 11.5t-25.5 9.5t-21 4q-4 0 -4 17q0 18 2 20l145 -6q10 -1 45 1t95 5q3 -9 3 -18q0 -19 -4 -19q-6 0 -21 -4t-28.5 -9.5t-15.5 -10.5q-7 -25 -7 -85v-237q0 -92 41.5 -148t112.5 -56
q74 0 121.5 48.5t47.5 162.5v238q0 58 -13 72q-6 8 -21.5 14.5t-32 10.5t-24.5 4q-2 0 -3.5 8t-1.5 17.5t2 11.5q46 -4 79 -6t53 -2q17 0 43 2t49.5 4t31.5 2q4 -7 4 -18q0 -19 -5 -19q-54 0 -83 -33q-14 -17 -14 -73v-228q0 -97 -32.5 -163t-90.5 -99.5t-134 -33.5z
M428 728q-5 0 -11 6.5t-6 11.5q0 4 13.5 25.5t36 53.5t49.5 65q6 9 34 9q23 0 34.5 -10t11.5 -19q0 -10 -15 -27t-37 -37t-45.5 -37.5t-41.5 -29t-23 -11.5zM289 728q-5 0 -11 6.5t-6 11.5q0 4 13.5 25.5t36 53.5t49.5 65q6 9 34 9q23 0 34.5 -10t11.5 -19q0 -10 -15 -27
t-37 -37t-45.5 -37.5t-41.5 -29t-23 -11.5z" />
    <glyph glyph-name="Umacron" unicode="&#x16a;" horiz-adv-x="733" 
d="M359 -5q-81 0 -142 33.5t-94.5 103.5t-33.5 179v211q0 64 -8 78q-3 6 -15.5 11.5t-25.5 9.5t-21 4q-4 0 -4 17q0 18 2 20l145 -6q10 -1 45 1t95 5q3 -9 3 -18q0 -19 -4 -19q-6 0 -21 -4t-28.5 -9.5t-15.5 -10.5q-7 -25 -7 -85v-237q0 -92 41.5 -148t112.5 -56
q74 0 121.5 48.5t47.5 162.5v238q0 58 -13 72q-6 8 -21.5 14.5t-32 10.5t-24.5 4q-2 0 -3.5 8t-1.5 17.5t2 11.5q46 -4 79 -6t53 -2q17 0 43 2t49.5 4t31.5 2q4 -7 4 -18q0 -19 -5 -19q-54 0 -83 -33q-14 -17 -14 -73v-228q0 -97 -32.5 -163t-90.5 -99.5t-134 -33.5z
M229 735l-5 2q-1 2 -1 9q3 58 15 58h287q6 0 6 -10q-1 -11 -1.5 -20t-2.5 -16q-5 -15 -7 -19l-3 -4h-288z" />
    <glyph glyph-name="Uogonek" unicode="&#x172;" horiz-adv-x="720" 
d="M402 -218q-29 0 -55 21t-26 57q0 22 12 48.5t32 51.5t43 41q-30 -6 -62 -6q-81 0 -142 33.5t-94.5 103.5t-33.5 179v211q0 64 -8 78q-3 6 -15.5 11.5t-25.5 9.5t-21 4q-4 0 -4 17q0 18 2 20l145 -6q20 0 140 6q3 -9 3 -18q0 -19 -4 -19q-6 0 -21 -4t-28.5 -9.5
t-15.5 -10.5q-7 -25 -7 -85v-237q0 -92 41.5 -148t112.5 -56q74 0 121.5 48.5t47.5 162.5v238q0 58 -13 72q-6 8 -21.5 14.5t-32 10.5t-24.5 4q-2 0 -3.5 8t-1.5 17.5t2 11.5q46 -4 79 -6t53 -2q17 0 43 2t49.5 4t31.5 2q4 -7 4 -18q0 -19 -5 -19q-54 0 -83 -33
q-14 -17 -14 -73v-228q0 -173 -104 -250q-24 -18 -45.5 -45.5t-35 -55.5t-13.5 -50q0 -15 12 -23.5t29 -8.5q19 0 43.5 11.5t36.5 21.5q5 0 5 -18q0 -14 -6 -22q-11 -14 -31 -30.5t-43.5 -27.5t-48.5 -11z" />
    <glyph glyph-name="Uring" unicode="&#x16e;" horiz-adv-x="733" 
d="M359 -5q-81 0 -142 33.5t-94.5 103.5t-33.5 179v211q0 64 -8 78q-3 6 -15.5 11.5t-25.5 9.5t-21 4q-4 0 -4 17q0 18 2 20l145 -6q10 -1 45 1t95 5q3 -9 3 -18q0 -19 -4 -19q-6 0 -21 -4t-28.5 -9.5t-15.5 -10.5q-7 -25 -7 -85v-237q0 -92 41.5 -148t112.5 -56
q74 0 121.5 48.5t47.5 162.5v238q0 58 -13 72q-6 8 -21.5 14.5t-32 10.5t-24.5 4q-2 0 -3.5 8t-1.5 17.5t2 11.5q46 -4 79 -6t53 -2q17 0 43 2t49.5 4t31.5 2q4 -7 4 -18q0 -19 -5 -19q-54 0 -83 -33q-14 -17 -14 -73v-228q0 -97 -32.5 -163t-90.5 -99.5t-134 -33.5z
M365 728q-41 0 -70 29t-29 70q0 40 29 69t70 29t69.5 -28.5t28.5 -69.5t-29 -70t-69 -29zM365 773q22 0 37.5 15.5t15.5 38.5q0 25 -17 39.5t-37 14.5q-22 0 -37 -15.5t-15 -37.5q0 -21 14.5 -38t38.5 -17z" />
    <glyph glyph-name="Utilde" unicode="&#x168;" horiz-adv-x="733" 
d="M359 -5q-81 0 -142 33.5t-94.5 103.5t-33.5 179v211q0 64 -8 78q-3 6 -15.5 11.5t-25.5 9.5t-21 4q-4 0 -4 17q0 18 2 20l145 -6q10 -1 45 1t95 5q3 -9 3 -18q0 -19 -4 -19q-6 0 -21 -4t-28.5 -9.5t-15.5 -10.5q-7 -25 -7 -85v-237q0 -92 41.5 -148t112.5 -56
q74 0 121.5 48.5t47.5 162.5v238q0 58 -13 72q-6 8 -21.5 14.5t-32 10.5t-24.5 4q-2 0 -3.5 8t-1.5 17.5t2 11.5q46 -4 79 -6t53 -2q17 0 43 2t49.5 4t31.5 2q4 -7 4 -18q0 -19 -5 -19q-54 0 -83 -33q-14 -17 -14 -73v-228q0 -97 -32.5 -163t-90.5 -99.5t-134 -33.5z
M450 728q-38 0 -96 34t-96 34q-19 0 -44 -28q-26 -29 -30 -29q-8 0 -8 22q0 25 18 50q38 51 88 51q38 0 96 -34t96 -34q19 0 43 29q24 28 29 28q8 0 8 -22q0 -25 -18 -51q-35 -50 -86 -50z" />
    <glyph glyph-name="uni1E74" unicode="&#x1e74;" horiz-adv-x="733" 
d="M359 -5q-81 0 -142 33.5t-94.5 103.5t-33.5 179v211q0 64 -8 78q-3 6 -15.5 11.5t-25.5 9.5t-21 4q-4 0 -4 17q0 18 2 20l145 -6q10 -1 45 1t95 5q3 -9 3 -18q0 -19 -4 -19q-6 0 -21 -4t-28.5 -9.5t-15.5 -10.5q-7 -25 -7 -85v-237q0 -92 41.5 -148t112.5 -56
q74 0 121.5 48.5t47.5 162.5v238q0 58 -13 72q-6 8 -21.5 14.5t-32 10.5t-24.5 4q-2 0 -3.5 8t-1.5 17.5t2 11.5q46 -4 79 -6t53 -2q17 0 43 2t49.5 4t31.5 2q4 -7 4 -18q0 -19 -5 -19q-54 0 -83 -33q-14 -17 -14 -73v-228q0 -97 -32.5 -163t-90.5 -99.5t-134 -33.5z
M446 -171q-31 0 -79 30t-80 30q-14 0 -35 -25q-21 -26 -25 -26q-7 0 -7 20q0 18 16 44q31 46 71 46q31 0 79 -30q47 -31 79 -31q16 0 36 26q19 25 24 25q6 0 6 -20q0 -19 -15 -45q-29 -44 -70 -44z" />
    <glyph glyph-name="V" unicode="V" horiz-adv-x="729" 
d="M354 -10q-14 0 -23 13l-205 507l-33 82q-4 11 -18 18t-29.5 11t-25.5 4q-4 0 -4 17q0 16 2 20l62 -4q28 -2 48.5 -3t33.5 -1l151 8q4 -4 4 -20q0 -17 -4 -17q-11 0 -27 -4t-27.5 -12t-11.5 -20q0 -8 23 -66l134 -330l141 329q20 46 20 68q0 15 -20.5 25t-50.5 10
q-3 2 -3 16q0 13 2 21q42 -3 63 -5t30.5 -2.5t15.5 -0.5t17 1t34.5 3t69.5 4q4 -4 4 -15q0 -21 -2 -21q-11 0 -35 -8.5t-39 -20.5q-9 -9 -38 -73l-216 -497q-8 -17 -20.5 -27t-22.5 -10z" />
    <glyph glyph-name="uni1E7E" unicode="&#x1e7e;" horiz-adv-x="729" 
d="M354 -10q-14 0 -23 13l-205 507l-33 82q-4 11 -18 18t-29.5 11t-25.5 4q-4 0 -4 17q0 16 2 20l62 -4q28 -2 48.5 -3t33.5 -1l151 8q4 -4 4 -20q0 -17 -4 -17q-11 0 -27 -4t-27.5 -12t-11.5 -20q0 -8 23 -66l134 -330l141 329q20 46 20 68q0 15 -20.5 25t-50.5 10
q-3 2 -3 16q0 13 2 21q42 -3 63 -5t30.5 -2.5t15.5 -0.5t17 1t34.5 3t69.5 4q4 -4 4 -15q0 -21 -2 -21q-11 0 -35 -8.5t-39 -20.5q-9 -9 -38 -73l-216 -497q-8 -17 -20.5 -27t-22.5 -10zM365 -200q-31 0 -53 21.5t-22 52.5q0 32 22 53.5t53 21.5t52.5 -21.5t21.5 -53.5
q0 -31 -21.5 -52.5t-52.5 -21.5z" />
    <glyph glyph-name="uni1E7C" unicode="&#x1e7c;" horiz-adv-x="729" 
d="M354 -10q-14 0 -23 13l-205 507l-33 82q-4 11 -18 18t-29.5 11t-25.5 4q-4 0 -4 17q0 16 2 20l62 -4q28 -2 48.5 -3t33.5 -1l151 8q4 -4 4 -20q0 -17 -4 -17q-11 0 -27 -4t-27.5 -12t-11.5 -20q0 -8 23 -66l134 -330l141 329q20 46 20 68q0 15 -20.5 25t-50.5 10
q-3 2 -3 16q0 13 2 21q42 -3 63 -5t30.5 -2.5t15.5 -0.5t17 1t34.5 3t69.5 4q4 -4 4 -15q0 -21 -2 -21q-11 0 -35 -8.5t-39 -20.5q-9 -9 -38 -73l-216 -497q-8 -17 -20.5 -27t-22.5 -10zM447 728q-38 0 -96 34t-96 34q-19 0 -44 -28q-26 -29 -30 -29q-8 0 -8 22q0 25 18 50
q38 51 88 51q38 0 96 -34t96 -34q19 0 43 29q24 28 29 28q8 0 8 -22q0 -25 -18 -51q-35 -50 -86 -50z" />
    <glyph glyph-name="W" unicode="W" horiz-adv-x="1094" 
d="M392 -13q-6 0 -9 5l-271 535q-13 26 -24.5 45.5t-21.5 31.5q-8 10 -27.5 15.5t-32.5 5.5q-4 0 -4 19q0 16 2 18l142 -6q16 0 136 6q2 -6 2.5 -21t-2.5 -16q-46 0 -46 -34l12 -31l184 -365q5 -13 15 5l62 110l-110 217q-31 62 -43 73q-25 25 -58 25q-4 0 -4 19q0 16 2 18
l139 -6q12 0 132 6q2 -6 2.5 -21t-2.5 -16q-16 0 -31 -7.5t-15 -24.5l12 -31l58 -115l48 95q11 20 15.5 33.5t4.5 18.5q0 12 -12 19t-29 10t-33 3q-2 0 -3.5 8t-0.5 17t3 11q48 -3 78 -5t41 -1l125 6q2 -6 2.5 -20.5t-2.5 -15.5q-15 0 -39 -9.5t-34 -20.5q-28 -29 -56 -86
l-70 -138l87 -171q5 -11 13 4l171 339q18 36 18 50q0 12 -13 19t-29.5 10t-28.5 3q-2 0 -3.5 8t-0.5 17t3 11q48 -3 78 -5t41 -1l125 6q3 -7 3 -25q0 -11 -3 -11q-15 0 -38 -9t-33 -19q-28 -29 -58 -88l-247 -491q-17 -32 -34 -32q-8 0 -11 5l-123 241l-120 -214
q-18 -32 -34 -32z" />
    <glyph glyph-name="Wacute" unicode="&#x1e82;" horiz-adv-x="1094" 
d="M392 -13q-6 0 -9 5l-271 535q-13 26 -24.5 45.5t-21.5 31.5q-8 10 -27.5 15.5t-32.5 5.5q-4 0 -4 19q0 16 2 18l142 -6q16 0 136 6q2 -6 2.5 -21t-2.5 -16q-46 0 -46 -34l12 -31l184 -365q5 -13 15 5l62 110l-110 217q-31 62 -43 73q-25 25 -58 25q-4 0 -4 19q0 16 2 18
l139 -6q12 0 132 6q2 -6 2.5 -21t-2.5 -16q-16 0 -31 -7.5t-15 -24.5l12 -31l58 -115l48 95q11 20 15.5 33.5t4.5 18.5q0 12 -12 19t-29 10t-33 3q-2 0 -3.5 8t-0.5 17t3 11q48 -3 78 -5t41 -1l125 6q2 -6 2.5 -20.5t-2.5 -15.5q-15 0 -39 -9.5t-34 -20.5q-28 -29 -56 -86
l-70 -138l87 -171q5 -11 13 4l171 339q18 36 18 50q0 12 -13 19t-29.5 10t-28.5 3q-2 0 -3.5 8t-0.5 17t3 11q48 -3 78 -5t41 -1l125 6q3 -7 3 -25q0 -11 -3 -11q-15 0 -38 -9t-33 -19q-28 -29 -58 -88l-247 -491q-17 -32 -34 -32q-8 0 -11 5l-123 241l-120 -214
q-18 -32 -34 -32zM527 729q-5 0 -9.5 7.5t-4.5 12.5q0 3 12.5 16.5t31 32.5t39.5 37.5t37 30.5q7 4 18 4q18 0 37 -9.5t19 -28.5q0 -10 -16 -23t-40.5 -27t-50 -26t-46 -19.5t-27.5 -7.5z" />
    <glyph glyph-name="Wcircumflex" unicode="&#x174;" horiz-adv-x="1094" 
d="M392 -13q-6 0 -9 5l-271 535q-13 26 -24.5 45.5t-21.5 31.5q-8 10 -27.5 15.5t-32.5 5.5q-4 0 -4 19q0 16 2 18l142 -6q16 0 136 6q2 -6 2.5 -21t-2.5 -16q-46 0 -46 -34l12 -31l184 -365q5 -13 15 5l62 110l-110 217q-31 62 -43 73q-25 25 -58 25q-4 0 -4 19q0 16 2 18
l139 -6q12 0 132 6q2 -6 2.5 -21t-2.5 -16q-16 0 -31 -7.5t-15 -24.5l12 -31l58 -115l48 95q11 20 15.5 33.5t4.5 18.5q0 12 -12 19t-29 10t-33 3q-2 0 -3.5 8t-0.5 17t3 11q48 -3 78 -5t41 -1l125 6q2 -6 2.5 -20.5t-2.5 -15.5q-15 0 -39 -9.5t-34 -20.5q-28 -29 -56 -86
l-70 -138l87 -171q5 -11 13 4l171 339q18 36 18 50q0 12 -13 19t-29.5 10t-28.5 3q-2 0 -3.5 8t-0.5 17t3 11q48 -3 78 -5t41 -1l125 6q3 -7 3 -25q0 -11 -3 -11q-15 0 -38 -9t-33 -19q-28 -29 -58 -88l-247 -491q-17 -32 -34 -32q-8 0 -11 5l-123 241l-120 -214
q-18 -32 -34 -32zM452 729q-10 0 -10 19q14 11 32.5 27t40.5 38q11 10 21.5 22t21.5 26q8 9 13 9q6 0 15 -9l15 -17q7 -7 13 -14t12 -13q24 -24 43 -41t33 -28q0 -19 -10 -19q-6 0 -28 10.5t-48 25.5t-44 26q-17 -11 -43.5 -26t-48.5 -25.5t-28 -10.5z" />
    <glyph glyph-name="Wdieresis" unicode="&#x1e84;" horiz-adv-x="1094" 
d="M392 -13q-6 0 -9 5l-271 535q-13 26 -24.5 45.5t-21.5 31.5q-8 10 -27.5 15.5t-32.5 5.5q-4 0 -4 19q0 16 2 18l142 -6q16 0 136 6q2 -6 2.5 -21t-2.5 -16q-46 0 -46 -34l12 -31l184 -365q5 -13 15 5l62 110l-110 217q-31 62 -43 73q-25 25 -58 25q-4 0 -4 19q0 16 2 18
l139 -6q12 0 132 6q2 -6 2.5 -21t-2.5 -16q-16 0 -31 -7.5t-15 -24.5l12 -31l58 -115l48 95q11 20 15.5 33.5t4.5 18.5q0 12 -12 19t-29 10t-33 3q-2 0 -3.5 8t-0.5 17t3 11q48 -3 78 -5t41 -1l125 6q2 -6 2.5 -20.5t-2.5 -15.5q-15 0 -39 -9.5t-34 -20.5q-28 -29 -56 -86
l-70 -138l87 -171q5 -11 13 4l171 339q18 36 18 50q0 12 -13 19t-29.5 10t-28.5 3q-2 0 -3.5 8t-0.5 17t3 11q48 -3 78 -5t41 -1l125 6q3 -7 3 -25q0 -11 -3 -11q-15 0 -38 -9t-33 -19q-28 -29 -58 -88l-247 -491q-17 -32 -34 -32q-8 0 -11 5l-123 241l-120 -214
q-18 -32 -34 -32zM672 726q-30 0 -52 22t-22 53t22 52t52 21q31 0 52.5 -22t21.5 -51q0 -31 -22.5 -53t-51.5 -22zM474 726q-30 0 -52.5 22t-22.5 53q0 29 22 51t53 22q29 0 51 -21t22 -52t-22 -53t-51 -22z" />
    <glyph glyph-name="uni1E86" unicode="&#x1e86;" horiz-adv-x="1094" 
d="M392 -13q-6 0 -9 5l-271 535q-13 26 -24.5 45.5t-21.5 31.5q-8 10 -27.5 15.5t-32.5 5.5q-4 0 -4 19q0 16 2 18l142 -6q16 0 136 6q2 -6 2.5 -21t-2.5 -16q-46 0 -46 -34l12 -31l184 -365q5 -13 15 5l62 110l-110 217q-31 62 -43 73q-25 25 -58 25q-4 0 -4 19q0 16 2 18
l139 -6q12 0 132 6q2 -6 2.5 -21t-2.5 -16q-16 0 -31 -7.5t-15 -24.5l12 -31l58 -115l48 95q11 20 15.5 33.5t4.5 18.5q0 12 -12 19t-29 10t-33 3q-2 0 -3.5 8t-0.5 17t3 11q48 -3 78 -5t41 -1l125 6q2 -6 2.5 -20.5t-2.5 -15.5q-15 0 -39 -9.5t-34 -20.5q-28 -29 -56 -86
l-70 -138l87 -171q5 -11 13 4l171 339q18 36 18 50q0 12 -13 19t-29.5 10t-28.5 3q-2 0 -3.5 8t-0.5 17t3 11q48 -3 78 -5t41 -1l125 6q3 -7 3 -25q0 -11 -3 -11q-15 0 -38 -9t-33 -19q-28 -29 -58 -88l-247 -491q-17 -32 -34 -32q-8 0 -11 5l-123 241l-120 -214
q-18 -32 -34 -32zM572 768q-31 0 -52.5 21.5t-21.5 52.5t21.5 52.5t52.5 21.5t52.5 -21.5t21.5 -52.5t-21.5 -52.5t-52.5 -21.5z" />
    <glyph glyph-name="uni1E88" unicode="&#x1e88;" horiz-adv-x="1094" 
d="M392 -13q-6 0 -9 5l-271 535q-13 26 -24.5 45.5t-21.5 31.5q-8 10 -27.5 15.5t-32.5 5.5q-4 0 -4 19q0 16 2 18l142 -6q16 0 136 6q2 -6 2.5 -21t-2.5 -16q-46 0 -46 -34l12 -31l184 -365q5 -13 15 5l62 110l-110 217q-31 62 -43 73q-25 25 -58 25q-4 0 -4 19q0 16 2 18
l139 -6q12 0 132 6q2 -6 2.5 -21t-2.5 -16q-16 0 -31 -7.5t-15 -24.5l12 -31l58 -115l48 95q11 20 15.5 33.5t4.5 18.5q0 12 -12 19t-29 10t-33 3q-2 0 -3.5 8t-0.5 17t3 11q48 -3 78 -5t41 -1l125 6q2 -6 2.5 -20.5t-2.5 -15.5q-15 0 -39 -9.5t-34 -20.5q-28 -29 -56 -86
l-70 -138l87 -171q5 -11 13 4l171 339q18 36 18 50q0 12 -13 19t-29.5 10t-28.5 3q-2 0 -3.5 8t-0.5 17t3 11q48 -3 78 -5t41 -1l125 6q3 -7 3 -25q0 -11 -3 -11q-15 0 -38 -9t-33 -19q-28 -29 -58 -88l-247 -491q-17 -32 -34 -32q-8 0 -11 5l-123 241l-120 -214
q-18 -32 -34 -32zM547 -200q-31 0 -53 21.5t-22 52.5q0 32 22 53.5t53 21.5t52.5 -21.5t21.5 -53.5q0 -31 -21.5 -52.5t-52.5 -21.5z" />
    <glyph glyph-name="Wgrave" unicode="&#x1e80;" horiz-adv-x="1094" 
d="M392 -13q-6 0 -9 5l-271 535q-13 26 -24.5 45.5t-21.5 31.5q-8 10 -27.5 15.5t-32.5 5.5q-4 0 -4 19q0 16 2 18l142 -6q16 0 136 6q2 -6 2.5 -21t-2.5 -16q-46 0 -46 -34l12 -31l184 -365q5 -13 15 5l62 110l-110 217q-31 62 -43 73q-25 25 -58 25q-4 0 -4 19q0 16 2 18
l139 -6q12 0 132 6q2 -6 2.5 -21t-2.5 -16q-16 0 -31 -7.5t-15 -24.5l12 -31l58 -115l48 95q11 20 15.5 33.5t4.5 18.5q0 12 -12 19t-29 10t-33 3q-2 0 -3.5 8t-0.5 17t3 11q48 -3 78 -5t41 -1l125 6q2 -6 2.5 -20.5t-2.5 -15.5q-15 0 -39 -9.5t-34 -20.5q-28 -29 -56 -86
l-70 -138l87 -171q5 -11 13 4l171 339q18 36 18 50q0 12 -13 19t-29.5 10t-28.5 3q-2 0 -3.5 8t-0.5 17t3 11q48 -3 78 -5t41 -1l125 6q3 -7 3 -25q0 -11 -3 -11q-15 0 -38 -9t-33 -19q-28 -29 -58 -88l-247 -491q-17 -32 -34 -32q-8 0 -11 5l-123 241l-120 -214
q-18 -32 -34 -32zM606 728q-7 0 -27.5 7.5t-46 19.5t-50 26t-40.5 27t-16 23q0 19 19 28.5t37 9.5q11 0 18 -4q17 -12 37.5 -30.5t39 -37.5t31 -32.5t12.5 -16.5q0 -5 -4.5 -12.5t-9.5 -7.5z" />
    <glyph glyph-name="X" unicode="X" horiz-adv-x="768" 
d="M31 -4q-4 11 -4 14q0 23 4 23q9 0 27 4.5t36 12t25 17.5l193 265l-134 205q-43 66 -54 73q-21 15 -53 15q-4 0 -4 17q0 16 4 20l59 -3q53 -3 82 -3q24 0 144 6q2 -2 2 -11.5t-1 -17.5t-3 -8q-15 0 -33.5 -5.5t-19.5 -15.5q0 -9 8 -22l111 -168l33 41q11 13 20 23.5
t16 20.5q64 80 64 95q0 12 -23.5 21.5t-50.5 9.5q-2 0 -3.5 8t-0.5 17.5t3 11.5q111 -6 124 -6t133 6q3 -4 3 -21q0 -16 -4 -16q-14 0 -43 -9t-46 -30l-187 -230q173 -260 190 -280q19 -22 45.5 -32.5t39.5 -10.5q3 0 3 -22q0 -9 -3 -15q-120 6 -146 6q-32 0 -91 -3l-67 -3
q-2 3 -2.5 12t1 17t3.5 8q9 0 22 3.5t23.5 10t10.5 14.5q0 7 -3 11l-130 197q-140 -187 -140 -203q0 -15 24 -24t50 -9q5 0 5 -21q0 -10 -2 -16q-99 6 -132 6z" />
    <glyph glyph-name="uni1E8C" unicode="&#x1e8c;" horiz-adv-x="768" 
d="M31 -4q-4 11 -4 14q0 23 4 23q9 0 27 4.5t36 12t25 17.5l193 265l-134 205q-43 66 -54 73q-21 15 -53 15q-4 0 -4 17q0 16 4 20l59 -3q53 -3 82 -3q24 0 144 6q2 -2 2 -11.5t-1 -17.5t-3 -8q-15 0 -33.5 -5.5t-19.5 -15.5q0 -9 8 -22l111 -168l33 41q11 13 20 23.5
t16 20.5q64 80 64 95q0 12 -23.5 21.5t-50.5 9.5q-2 0 -3.5 8t-0.5 17.5t3 11.5q111 -6 124 -6t133 6q3 -4 3 -21q0 -16 -4 -16q-14 0 -43 -9t-46 -30l-187 -230q173 -260 190 -280q19 -22 45.5 -32.5t39.5 -10.5q3 0 3 -22q0 -9 -3 -15q-120 6 -146 6q-32 0 -91 -3l-67 -3
q-2 3 -2.5 12t1 17t3.5 8q9 0 22 3.5t23.5 10t10.5 14.5q0 7 -3 11l-130 197q-140 -187 -140 -203q0 -15 24 -24t50 -9q5 0 5 -21q0 -10 -2 -16q-99 6 -132 6zM484 726q-30 0 -52 22t-22 53t22 52t52 21q31 0 52.5 -22t21.5 -51q0 -31 -22.5 -53t-51.5 -22zM286 726
q-30 0 -52.5 22t-22.5 53q0 29 22 51t53 22q29 0 51 -21t22 -52t-22 -53t-51 -22z" />
    <glyph glyph-name="uni1E8A" unicode="&#x1e8a;" horiz-adv-x="768" 
d="M31 -4q-4 11 -4 14q0 23 4 23q9 0 27 4.5t36 12t25 17.5l193 265l-134 205q-43 66 -54 73q-21 15 -53 15q-4 0 -4 17q0 16 4 20l59 -3q53 -3 82 -3q24 0 144 6q2 -2 2 -11.5t-1 -17.5t-3 -8q-15 0 -33.5 -5.5t-19.5 -15.5q0 -9 8 -22l111 -168l33 41q11 13 20 23.5
t16 20.5q64 80 64 95q0 12 -23.5 21.5t-50.5 9.5q-2 0 -3.5 8t-0.5 17.5t3 11.5q111 -6 124 -6t133 6q3 -4 3 -21q0 -16 -4 -16q-14 0 -43 -9t-46 -30l-187 -230q173 -260 190 -280q19 -22 45.5 -32.5t39.5 -10.5q3 0 3 -22q0 -9 -3 -15q-120 6 -146 6q-32 0 -91 -3l-67 -3
q-2 3 -2.5 12t1 17t3.5 8q9 0 22 3.5t23.5 10t10.5 14.5q0 7 -3 11l-130 197q-140 -187 -140 -203q0 -15 24 -24t50 -9q5 0 5 -21q0 -10 -2 -16q-99 6 -132 6zM384 768q-31 0 -52.5 21.5t-21.5 52.5t21.5 52.5t52.5 21.5t52.5 -21.5t21.5 -52.5t-21.5 -52.5t-52.5 -21.5z
" />
    <glyph glyph-name="Y" unicode="Y" horiz-adv-x="669" 
d="M195 -4q-4 4 -4 16q0 21 3 21q8 0 23 4t28 10t15 11q7 25 7 81v170q0 8 -31 64l-63 111l-31 53q-17 30 -30 48.5t-24 24.5q-25 15 -53 15q-4 0 -4 17q0 16 4 20l76 -4t66 -2q23 0 143 6q2 -2 2 -11.5t-1 -17.5t-3 -8q-15 0 -33.5 -5.5t-19.5 -15.5q0 -8 8 -22l100 -177
q6 -5 10 2q15 21 33.5 51t35.5 60t28.5 53.5t11.5 31.5q0 22 -64 22q-2 0 -3.5 8t-0.5 17.5t3 11.5q90 -6 121 -6q26 0 113 6q3 -9 3 -18q0 -18 -4 -18q-18 0 -41 -9t-37 -27q-10 -14 -31 -45.5t-45.5 -70.5t-47 -76t-37 -63t-14.5 -31v-159q0 -28 2 -49.5t6 -37.5
q2 -4 14.5 -10t27 -10.5t20.5 -4.5q4 0 4 -19q0 -10 -2 -18q-4 0 -19 1t-41 3t-46 3t-33 1q-18 0 -49 -2t-58.5 -3.5t-37.5 -2.5z" />
    <glyph glyph-name="Yacute" unicode="&#xdd;" horiz-adv-x="669" 
d="M195 -4q-4 4 -4 16q0 21 3 21q8 0 23 4t28 10t15 11q7 25 7 81v170q0 8 -31 64l-63 111l-31 53q-17 30 -30 48.5t-24 24.5q-25 15 -53 15q-4 0 -4 17q0 16 4 20l76 -4t66 -2q23 0 143 6q2 -2 2 -11.5t-1 -17.5t-3 -8q-15 0 -33.5 -5.5t-19.5 -15.5q0 -8 8 -22l100 -177
q6 -5 10 2q15 21 33.5 51t35.5 60t28.5 53.5t11.5 31.5q0 22 -64 22q-2 0 -3.5 8t-0.5 17.5t3 11.5q90 -6 121 -6q26 0 113 6q3 -9 3 -18q0 -18 -4 -18q-18 0 -41 -9t-37 -27q-10 -14 -31 -45.5t-45.5 -70.5t-47 -76t-37 -63t-14.5 -31v-159q0 -28 2 -49.5t6 -37.5
q2 -4 14.5 -10t27 -10.5t20.5 -4.5q4 0 4 -19q0 -10 -2 -18q-4 0 -19 1t-41 3t-46 3t-33 1q-18 0 -49 -2t-58.5 -3.5t-37.5 -2.5zM310 729q-5 0 -9.5 7.5t-4.5 12.5q0 3 12.5 16.5t31 32.5t39.5 37.5t37 30.5q7 4 18 4q18 0 37 -9.5t19 -28.5q0 -10 -16 -23t-40.5 -27
t-50 -26t-46 -19.5t-27.5 -7.5z" />
    <glyph glyph-name="Ycircumflex" unicode="&#x176;" horiz-adv-x="669" 
d="M195 -4q-4 4 -4 16q0 21 3 21q8 0 23 4t28 10t15 11q7 25 7 81v170q0 8 -31 64l-63 111l-31 53q-17 30 -30 48.5t-24 24.5q-25 15 -53 15q-4 0 -4 17q0 16 4 20l76 -4t66 -2q23 0 143 6q2 -2 2 -11.5t-1 -17.5t-3 -8q-15 0 -33.5 -5.5t-19.5 -15.5q0 -8 8 -22l100 -177
q6 -5 10 2q15 21 33.5 51t35.5 60t28.5 53.5t11.5 31.5q0 22 -64 22q-2 0 -3.5 8t-0.5 17.5t3 11.5q90 -6 121 -6q26 0 113 6q3 -9 3 -18q0 -18 -4 -18q-18 0 -41 -9t-37 -27q-10 -14 -31 -45.5t-45.5 -70.5t-47 -76t-37 -63t-14.5 -31v-159q0 -28 2 -49.5t6 -37.5
q2 -4 14.5 -10t27 -10.5t20.5 -4.5q4 0 4 -19q0 -10 -2 -18q-4 0 -19 1t-41 3t-46 3t-33 1q-18 0 -49 -2t-58.5 -3.5t-37.5 -2.5zM235 729q-10 0 -10 19q14 11 32.5 27t40.5 38q11 10 21.5 22t21.5 26q8 9 13 9q6 0 15 -9l15 -17q7 -7 13 -14t12 -13q24 -24 43 -41t33 -28
q0 -19 -10 -19q-6 0 -28 10.5t-48 25.5t-44 26q-17 -11 -43.5 -26t-48.5 -25.5t-28 -10.5z" />
    <glyph glyph-name="Ydieresis" unicode="&#x178;" horiz-adv-x="669" 
d="M195 -4q-4 4 -4 16q0 21 3 21q8 0 23 4t28 10t15 11q7 25 7 81v170q0 8 -31 64l-63 111l-31 53q-17 30 -30 48.5t-24 24.5q-25 15 -53 15q-4 0 -4 17q0 16 4 20l76 -4t66 -2q23 0 143 6q2 -2 2 -11.5t-1 -17.5t-3 -8q-15 0 -33.5 -5.5t-19.5 -15.5q0 -8 8 -22l100 -177
q6 -5 10 2q15 21 33.5 51t35.5 60t28.5 53.5t11.5 31.5q0 22 -64 22q-2 0 -3.5 8t-0.5 17.5t3 11.5q90 -6 121 -6q26 0 113 6q3 -9 3 -18q0 -18 -4 -18q-18 0 -41 -9t-37 -27q-10 -14 -31 -45.5t-45.5 -70.5t-47 -76t-37 -63t-14.5 -31v-159q0 -28 2 -49.5t6 -37.5
q2 -4 14.5 -10t27 -10.5t20.5 -4.5q4 0 4 -19q0 -10 -2 -18q-4 0 -19 1t-41 3t-46 3t-33 1q-18 0 -49 -2t-58.5 -3.5t-37.5 -2.5zM455 726q-30 0 -52 22t-22 53t22 52t52 21q31 0 52.5 -22t21.5 -51q0 -31 -22.5 -53t-51.5 -22zM257 726q-30 0 -52.5 22t-22.5 53q0 29 22 51
t53 22q29 0 51 -21t22 -52t-22 -53t-51 -22z" />
    <glyph glyph-name="uni1E8E" unicode="&#x1e8e;" horiz-adv-x="669" 
d="M195 -4q-4 4 -4 16q0 21 3 21q8 0 23 4t28 10t15 11q7 25 7 81v170q0 8 -31 64l-63 111l-31 53q-17 30 -30 48.5t-24 24.5q-25 15 -53 15q-4 0 -4 17q0 16 4 20l76 -4t66 -2q23 0 143 6q2 -2 2 -11.5t-1 -17.5t-3 -8q-15 0 -33.5 -5.5t-19.5 -15.5q0 -8 8 -22l100 -177
q6 -5 10 2q15 21 33.5 51t35.5 60t28.5 53.5t11.5 31.5q0 22 -64 22q-2 0 -3.5 8t-0.5 17.5t3 11.5q90 -6 121 -6q26 0 113 6q3 -9 3 -18q0 -18 -4 -18q-18 0 -41 -9t-37 -27q-10 -14 -31 -45.5t-45.5 -70.5t-47 -76t-37 -63t-14.5 -31v-159q0 -28 2 -49.5t6 -37.5
q2 -4 14.5 -10t27 -10.5t20.5 -4.5q4 0 4 -19q0 -10 -2 -18q-4 0 -19 1t-41 3t-46 3t-33 1q-18 0 -49 -2t-58.5 -3.5t-37.5 -2.5zM355 768q-31 0 -52.5 21.5t-21.5 52.5t21.5 52.5t52.5 21.5t52.5 -21.5t21.5 -52.5t-21.5 -52.5t-52.5 -21.5z" />
    <glyph glyph-name="uni1EF4" unicode="&#x1ef4;" horiz-adv-x="669" 
d="M195 -4q-4 4 -4 16q0 21 3 21q8 0 23 4t28 10t15 11q7 25 7 81v170q0 8 -31 64l-63 111l-31 53q-17 30 -30 48.5t-24 24.5q-25 15 -53 15q-4 0 -4 17q0 16 4 20l76 -4t66 -2q23 0 143 6q2 -2 2 -11.5t-1 -17.5t-3 -8q-15 0 -33.5 -5.5t-19.5 -15.5q0 -8 8 -22l100 -177
q6 -5 10 2q15 21 33.5 51t35.5 60t28.5 53.5t11.5 31.5q0 22 -64 22q-2 0 -3.5 8t-0.5 17.5t3 11.5q90 -6 121 -6q26 0 113 6q3 -9 3 -18q0 -18 -4 -18q-18 0 -41 -9t-37 -27q-10 -14 -31 -45.5t-45.5 -70.5t-47 -76t-37 -63t-14.5 -31v-159q0 -28 2 -49.5t6 -37.5
q2 -4 14.5 -10t27 -10.5t20.5 -4.5q4 0 4 -19q0 -10 -2 -18q-4 0 -19 1t-41 3t-46 3t-33 1q-18 0 -49 -2t-58.5 -3.5t-37.5 -2.5zM335 -200q-31 0 -53 21.5t-22 52.5q0 32 22 53.5t53 21.5t52.5 -21.5t21.5 -53.5q0 -31 -21.5 -52.5t-52.5 -21.5z" />
    <glyph glyph-name="Ygrave" unicode="&#x1ef2;" horiz-adv-x="669" 
d="M195 -4q-4 4 -4 16q0 21 3 21q8 0 23 4t28 10t15 11q7 25 7 81v170q0 8 -31 64l-63 111l-31 53q-17 30 -30 48.5t-24 24.5q-25 15 -53 15q-4 0 -4 17q0 16 4 20l76 -4t66 -2q23 0 143 6q2 -2 2 -11.5t-1 -17.5t-3 -8q-15 0 -33.5 -5.5t-19.5 -15.5q0 -8 8 -22l100 -177
q6 -5 10 2q15 21 33.5 51t35.5 60t28.5 53.5t11.5 31.5q0 22 -64 22q-2 0 -3.5 8t-0.5 17.5t3 11.5q90 -6 121 -6q26 0 113 6q3 -9 3 -18q0 -18 -4 -18q-18 0 -41 -9t-37 -27q-10 -14 -31 -45.5t-45.5 -70.5t-47 -76t-37 -63t-14.5 -31v-159q0 -28 2 -49.5t6 -37.5
q2 -4 14.5 -10t27 -10.5t20.5 -4.5q4 0 4 -19q0 -10 -2 -18q-4 0 -19 1t-41 3t-46 3t-33 1q-18 0 -49 -2t-58.5 -3.5t-37.5 -2.5zM389 728q-7 0 -27.5 7.5t-46 19.5t-50 26t-40.5 27t-16 23q0 19 19 28.5t37 9.5q11 0 18 -4q17 -12 37.5 -30.5t39 -37.5t31 -32.5t12.5 -16.5
q0 -5 -4.5 -12.5t-9.5 -7.5z" />
    <glyph glyph-name="uni1EF6" unicode="&#x1ef6;" horiz-adv-x="669" 
d="M195 -4q-4 4 -4 16q0 21 3 21q8 0 23 4t28 10t15 11q7 25 7 81v170q0 8 -31 64l-63 111l-31 53q-17 30 -30 48.5t-24 24.5q-25 15 -53 15q-4 0 -4 17q0 16 4 20l76 -4t66 -2q23 0 143 6q2 -2 2 -11.5t-1 -17.5t-3 -8q-15 0 -33.5 -5.5t-19.5 -15.5q0 -8 8 -22l100 -177
q6 -5 10 2q15 21 33.5 51t35.5 60t28.5 53.5t11.5 31.5q0 22 -64 22q-2 0 -3.5 8t-0.5 17.5t3 11.5q90 -6 121 -6q26 0 113 6q3 -9 3 -18q0 -18 -4 -18q-18 0 -41 -9t-37 -27q-10 -14 -31 -45.5t-45.5 -70.5t-47 -76t-37 -63t-14.5 -31v-159q0 -28 2 -49.5t6 -37.5
q2 -4 14.5 -10t27 -10.5t20.5 -4.5q4 0 4 -19q0 -10 -2 -18q-4 0 -19 1t-41 3t-46 3t-33 1q-18 0 -49 -2t-58.5 -3.5t-37.5 -2.5zM339 725q-10 6 -10 17q0 28 45 49q36 17 36 42q0 30 -25 30q-33 0 -33 -36q0 -22 -39 -22q-7 0 -14.5 4.5t-7.5 12.5q0 36 31.5 57.5
t72.5 21.5q30 0 49.5 -16.5t19.5 -41.5q0 -53 -51 -74q-30 -13 -35 -21q-1 -2 -1 -6q0 -6 1 -8q0 -2 -14.5 -5.5t-24.5 -3.5z" />
    <glyph glyph-name="uni0232" unicode="&#x232;" horiz-adv-x="669" 
d="M195 -4q-4 4 -4 16q0 21 3 21q8 0 23 4t28 10t15 11q7 25 7 81v170q0 8 -31 64l-63 111l-31 53q-17 30 -30 48.5t-24 24.5q-25 15 -53 15q-4 0 -4 17q0 16 4 20l76 -4t66 -2q23 0 143 6q2 -2 2 -11.5t-1 -17.5t-3 -8q-15 0 -33.5 -5.5t-19.5 -15.5q0 -8 8 -22l100 -177
q6 -5 10 2q15 21 33.5 51t35.5 60t28.5 53.5t11.5 31.5q0 22 -64 22q-2 0 -3.5 8t-0.5 17.5t3 11.5q90 -6 121 -6q26 0 113 6q3 -9 3 -18q0 -18 -4 -18q-18 0 -41 -9t-37 -27q-10 -14 -31 -45.5t-45.5 -70.5t-47 -76t-37 -63t-14.5 -31v-159q0 -28 2 -49.5t6 -37.5
q2 -4 14.5 -10t27 -10.5t20.5 -4.5q4 0 4 -19q0 -10 -2 -18q-4 0 -19 1t-41 3t-46 3t-33 1q-18 0 -49 -2t-58.5 -3.5t-37.5 -2.5zM216 735l-5 2q-1 2 -1 9q3 58 15 58h287q6 0 6 -10q-1 -11 -1.5 -20t-2.5 -16q-5 -15 -7 -19l-3 -4h-288z" />
    <glyph glyph-name="uni1EF8" unicode="&#x1ef8;" horiz-adv-x="669" 
d="M195 -4q-4 4 -4 16q0 21 3 21q8 0 23 4t28 10t15 11q7 25 7 81v170q0 8 -31 64l-63 111l-31 53q-17 30 -30 48.5t-24 24.5q-25 15 -53 15q-4 0 -4 17q0 16 4 20l76 -4t66 -2q23 0 143 6q2 -2 2 -11.5t-1 -17.5t-3 -8q-15 0 -33.5 -5.5t-19.5 -15.5q0 -8 8 -22l100 -177
q6 -5 10 2q15 21 33.5 51t35.5 60t28.5 53.5t11.5 31.5q0 22 -64 22q-2 0 -3.5 8t-0.5 17.5t3 11.5q90 -6 121 -6q26 0 113 6q3 -9 3 -18q0 -18 -4 -18q-18 0 -41 -9t-37 -27q-10 -14 -31 -45.5t-45.5 -70.5t-47 -76t-37 -63t-14.5 -31v-159q0 -28 2 -49.5t6 -37.5
q2 -4 14.5 -10t27 -10.5t20.5 -4.5q4 0 4 -19q0 -10 -2 -18q-4 0 -19 1t-41 3t-46 3t-33 1q-18 0 -49 -2t-58.5 -3.5t-37.5 -2.5zM437 728q-38 0 -96 34t-96 34q-19 0 -44 -28q-26 -29 -30 -29q-8 0 -8 22q0 25 18 50q38 51 88 51q38 0 96 -34t96 -34q19 0 43 29
q24 28 29 28q8 0 8 -22q0 -25 -18 -51q-35 -50 -86 -50z" />
    <glyph glyph-name="Z" unicode="Z" horiz-adv-x="635" 
d="M38 0q-8 10 -8 26q0 13 4 17l368 556h-171q-36 0 -59.5 -7t-38.5 -25q-10 -12 -15.5 -20.5t-9.5 -19t-12 -30.5l-5 -13q-1 -6 -13 -6q-29 0 -33 4q24 128 30 180q24 -6 162 -6h109q46 0 104 2.5t128 7.5q3 -1 6.5 -13t3.5 -20l-365 -551q-7 -10 -7 -15q0 -10 14 -10h159
q70 0 114.5 33.5t61.5 83.5q3 6 13 6q24 0 31 -6q-6 -17 -16.5 -47t-16.5 -48t-12.5 -40.5t-8.5 -38.5h-517z" />
    <glyph glyph-name="Zacute" unicode="&#x179;" horiz-adv-x="635" 
d="M38 0q-8 10 -8 26q0 13 4 17l368 556h-171q-36 0 -59.5 -7t-38.5 -25q-10 -12 -15.5 -20.5t-9.5 -19t-12 -30.5l-5 -13q-1 -6 -13 -6q-29 0 -33 4q24 128 30 180q24 -6 162 -6h109q46 0 104 2.5t128 7.5q3 -1 6.5 -13t3.5 -20l-365 -551q-7 -10 -7 -15q0 -10 14 -10h159
q70 0 114.5 33.5t61.5 83.5q3 6 13 6q24 0 31 -6q-6 -17 -16.5 -47t-16.5 -48t-12.5 -40.5t-8.5 -38.5h-517zM273 729q-5 0 -9.5 7.5t-4.5 12.5q0 3 12.5 16.5t31 32.5t39.5 37.5t37 30.5q7 4 18 4q18 0 37 -9.5t19 -28.5q0 -10 -16 -23t-40.5 -27t-50 -26t-46 -19.5
t-27.5 -7.5z" />
    <glyph glyph-name="Zcaron" unicode="&#x17d;" horiz-adv-x="635" 
d="M38 0q-8 10 -8 26q0 13 4 17l368 556h-171q-36 0 -59.5 -7t-38.5 -25q-10 -12 -15.5 -20.5t-9.5 -19t-12 -30.5l-5 -13q-1 -6 -13 -6q-29 0 -33 4q24 128 30 180q24 -6 162 -6h109q46 0 104 2.5t128 7.5q3 -1 6.5 -13t3.5 -20l-365 -551q-7 -10 -7 -15q0 -10 14 -10h159
q70 0 114.5 33.5t61.5 83.5q3 6 13 6q24 0 31 -6q-6 -17 -16.5 -47t-16.5 -48t-12.5 -40.5t-8.5 -38.5h-517zM316 728q-5 0 -13 9q-9 11 -19.5 22.5t-23.5 24.5q-25 24 -43 40.5t-30 25.5q0 19 10 19q6 0 28 -10.5t48.5 -25t43.5 -26.5q18 12 44 26.5t48.5 25t27.5 10.5
q10 0 10 -19q-12 -9 -31 -26t-45 -44l-40 -43q-9 -9 -15 -9z" />
    <glyph glyph-name="uni1E90" unicode="&#x1e90;" horiz-adv-x="635" 
d="M38 0q-8 10 -8 26q0 13 4 17l368 556h-171q-36 0 -59.5 -7t-38.5 -25q-10 -12 -15.5 -20.5t-9.5 -19t-12 -30.5l-5 -13q-1 -6 -13 -6q-29 0 -33 4q24 128 30 180q24 -6 162 -6h109q46 0 104 2.5t128 7.5q3 -1 6.5 -13t3.5 -20l-365 -551q-7 -10 -7 -15q0 -10 14 -10h159
q70 0 114.5 33.5t61.5 83.5q3 6 13 6q24 0 31 -6q-6 -17 -16.5 -47t-16.5 -48t-12.5 -40.5t-8.5 -38.5h-517zM198 729q-10 0 -10 19q14 11 32.5 27t40.5 38q11 10 21.5 22t21.5 26q8 9 13 9q6 0 15 -9l15 -17q7 -7 13 -14t12 -13q24 -24 43 -41t33 -28q0 -19 -10 -19
q-6 0 -28 10.5t-48 25.5t-44 26q-17 -11 -43.5 -26t-48.5 -25.5t-28 -10.5z" />
    <glyph glyph-name="Zdotaccent" unicode="&#x17b;" horiz-adv-x="635" 
d="M38 0q-8 10 -8 26q0 13 4 17l368 556h-171q-36 0 -59.5 -7t-38.5 -25q-10 -12 -15.5 -20.5t-9.5 -19t-12 -30.5l-5 -13q-1 -6 -13 -6q-29 0 -33 4q24 128 30 180q24 -6 162 -6h109q46 0 104 2.5t128 7.5q3 -1 6.5 -13t3.5 -20l-365 -551q-7 -10 -7 -15q0 -10 14 -10h159
q70 0 114.5 33.5t61.5 83.5q3 6 13 6q24 0 31 -6q-6 -17 -16.5 -47t-16.5 -48t-12.5 -40.5t-8.5 -38.5h-517zM318 768q-31 0 -52.5 21.5t-21.5 52.5t21.5 52.5t52.5 21.5t52.5 -21.5t21.5 -52.5t-21.5 -52.5t-52.5 -21.5z" />
    <glyph glyph-name="uni1E92" unicode="&#x1e92;" horiz-adv-x="635" 
d="M38 0q-8 10 -8 26q0 13 4 17l368 556h-171q-36 0 -59.5 -7t-38.5 -25q-10 -12 -15.5 -20.5t-9.5 -19t-12 -30.5l-5 -13q-1 -6 -13 -6q-29 0 -33 4q24 128 30 180q24 -6 162 -6h109q46 0 104 2.5t128 7.5q3 -1 6.5 -13t3.5 -20l-365 -551q-7 -10 -7 -15q0 -10 14 -10h159
q70 0 114.5 33.5t61.5 83.5q3 6 13 6q24 0 31 -6q-6 -17 -16.5 -47t-16.5 -48t-12.5 -40.5t-8.5 -38.5h-517zM318 -200q-31 0 -53 21.5t-22 52.5q0 32 22 53.5t53 21.5t52.5 -21.5t21.5 -53.5q0 -31 -21.5 -52.5t-52.5 -21.5z" />
    <glyph glyph-name="Zmacronbelow" unicode="&#x1e94;" horiz-adv-x="635" 
d="M38 0q-8 10 -8 26q0 13 4 17l368 556h-171q-36 0 -59.5 -7t-38.5 -25q-10 -12 -15.5 -20.5t-9.5 -19t-12 -30.5l-5 -13q-1 -6 -13 -6q-29 0 -33 4q24 128 30 180q24 -6 162 -6h109q46 0 104 2.5t128 7.5q3 -1 6.5 -13t3.5 -20l-365 -551q-7 -10 -7 -15q0 -10 14 -10h159
q70 0 114.5 33.5t61.5 83.5q3 6 13 6q24 0 31 -6q-6 -17 -16.5 -47t-16.5 -48t-12.5 -40.5t-8.5 -38.5h-517zM172 -128l-5 2q-1 2 -1 9q3 58 15 58h287q6 0 6 -10q-1 -11 -1.5 -20t-2.5 -16q-5 -15 -7 -19l-3 -4h-288z" />
    <glyph glyph-name="T_h" horiz-adv-x="1185" 
d="M188 -4q-4 4 -4 16q0 21 3 21q8 0 23 4t28 10t15 11q4 14 5.5 33t1.5 44v362q0 39 -2 63t-10 34q-7 10 -28 11.5t-50 1.5q-41 0 -67 -22.5t-40 -75.5q-2 -5 -10 -5q-22 0 -29 7l19 163q22 -5 39 -8t30 -3q43 0 110 -3q68 -3 109 -3q47 0 138 3q90 3 109 3q74 2 125.5 12
t77.5 17l13 3q4 0 8 -6t5 -11q-11 -47 -11 -101v-181q0 -8 5 -8l6 6q17 17 51.5 35t68.5 18q43 0 77.5 -19t55.5 -52t21 -76v-151q0 -66 7 -91q2 -4 15 -10t27.5 -10.5t20.5 -4.5q2 0 3 -8t1 -17t-2 -12q-6 0 -23 1.5t-39.5 3t-42.5 2.5t-32 1q-16 0 -44.5 -2t-54.5 -3.5
t-34 -2.5q-4 4 -4 21q0 16 4 16q8 0 22 4.5t26 10.5t13 10q7 28 7 76v90q0 82 -16.5 114.5t-61.5 32.5q-22 0 -38 -9t-33 -31q-6 -7 -6 -17v-165q0 -66 7 -91q2 -4 14 -10t26 -10.5t19 -4.5q2 0 3 -8t1 -17t-2 -12q-8 1 -34 2.5t-54.5 3.5t-44.5 2q-12 0 -32.5 -1
t-42.5 -2.5t-39 -3t-23 -1.5q-4 4 -4 21q0 16 4 16q8 0 23 4.5t28 10.5t14 10q7 28 7 76v355q0 118 -131 118q-56 0 -90.5 -5.5t-36.5 -12.5q-4 -14 -6 -36t-2 -53v-361q0 -25 2 -45t6 -36q2 -4 14.5 -10t27 -10.5t20.5 -4.5q4 0 4 -19q0 -10 -2 -18q-4 0 -19 1t-41 3t-46 3
t-33 1q-18 0 -49 -2t-58.5 -3.5t-37.5 -2.5z" />
    <glyph glyph-name="a" unicode="a" horiz-adv-x="486" 
d="M148 -7q-55 0 -87.5 30.5t-32.5 76.5q0 39 24.5 68t61.5 46q14 6 26 10.5t22 8.5q38 12 61 17.5t34 9.5q9 3 9 15v36q0 82 -50 82q-58 0 -58 -67q0 -22 -18 -32.5t-40 -10.5q-46 0 -63 30q0 26 18.5 50t49 43.5t69 31t77.5 11.5q70 0 107.5 -38.5t37.5 -139.5v-162
q0 -34 24 -34q18 0 34 13q7 -4 7 -15q0 -26 -7 -37q-14 -13 -45.5 -27.5t-59.5 -14.5q-24 0 -46 14.5t-29 33.5q-1 0 -11 -7t-15 -11q-20 -13 -46 -22t-54 -9zM211 65q26 0 40.5 12.5t14.5 30.5v101l-52 -18q-21 -7 -38.5 -21t-17.5 -37q0 -36 15.5 -52t37.5 -16z" />
    <glyph glyph-name="aacute" unicode="&#xe1;" horiz-adv-x="486" 
d="M148 -7q-55 0 -87.5 30.5t-32.5 76.5q0 39 24.5 68t61.5 46q14 6 26 10.5t22 8.5q38 12 61 17.5t34 9.5q9 3 9 15v36q0 82 -50 82q-58 0 -58 -67q0 -22 -18 -32.5t-40 -10.5q-46 0 -63 30q0 26 18.5 50t49 43.5t69 31t77.5 11.5q70 0 107.5 -38.5t37.5 -139.5v-162
q0 -34 24 -34q18 0 34 13q7 -4 7 -15q0 -26 -7 -37q-14 -13 -45.5 -27.5t-59.5 -14.5q-24 0 -46 14.5t-29 33.5q-1 0 -11 -7t-15 -11q-20 -13 -46 -22t-54 -9zM211 65q26 0 40.5 12.5t14.5 30.5v101l-52 -18q-21 -7 -38.5 -21t-17.5 -37q0 -36 15.5 -52t37.5 -16zM205 502
q-5 0 -11 6.5t-6 11.5q0 8 25 48t68 90q9 9 34 9q23 0 34.5 -10t11.5 -19q0 -10 -14 -26.5t-35.5 -35.5t-44 -36t-40 -27.5t-22.5 -10.5z" />
    <glyph glyph-name="abreve" unicode="&#x103;" horiz-adv-x="486" 
d="M148 -7q-55 0 -87.5 30.5t-32.5 76.5q0 39 24.5 68t61.5 46q14 6 26 10.5t22 8.5q38 12 61 17.5t34 9.5q9 3 9 15v36q0 82 -50 82q-58 0 -58 -67q0 -22 -18 -32.5t-40 -10.5q-46 0 -63 30q0 26 18.5 50t49 43.5t69 31t77.5 11.5q70 0 107.5 -38.5t37.5 -139.5v-162
q0 -34 24 -34q18 0 34 13q7 -4 7 -15q0 -26 -7 -37q-14 -13 -45.5 -27.5t-59.5 -14.5q-24 0 -46 14.5t-29 33.5q-1 0 -11 -7t-15 -11q-20 -13 -46 -22t-54 -9zM211 65q26 0 40.5 12.5t14.5 30.5v101l-52 -18q-21 -7 -38.5 -21t-17.5 -37q0 -36 15.5 -52t37.5 -16zM238 511
q-40 0 -70 26t-42 66q-2 5 6 17t23 12q3 0 4 -3q8 -27 31 -42.5t48 -15.5t48 15.5t31 42.5q2 3 4 3q15 0 23 -12t6 -17q-11 -40 -41.5 -66t-70.5 -26z" />
    </font>
</defs>
</svg>
