<?xml version="1.0" standalone="no"?>
<!DOCTYPE svg PUBLIC "-//W3C//DTD SVG 1.1//EN" "http://www.w3.org/Graphics/SVG/1.1/DTD/svg11.dtd" >
<svg xmlns="http://www.w3.org/2000/svg" xmlns:xlink="http://www.w3.org/1999/xlink" version="1.1">
<metadata>
Created by FontForge 20170924 at Fri Mar 30 11:56:51 2012
 By Glenn,,,
Copyright (c) 2011 by vernon adams. All rights reserved.
</metadata>
<defs>
<font id="Oxygen-Italic" horiz-adv-x="203" >
  <font-face 
    font-family="Oxygen"
    font-weight="400"
    font-style="italic"
    font-stretch="normal"
    units-per-em="1000"
    panose-1="2 0 5 3 0 0 0 9 0 4"
    ascent="800"
    descent="-200"
    x-height="509"
    cap-height="730"
    bbox="-60 -328 1372 1230"
    underline-thickness="49"
    underline-position="-99"
    stemh="75"
    stemv="276"
    unicode-range="U+000D-FB03"
  />
<missing-glyph horiz-adv-x="142" 
 />
    <glyph glyph-name=".notdef" horiz-adv-x="142" 
 />
    <glyph glyph-name="uni000D" unicode="&#xd;" horiz-adv-x="142" 
 />
    <glyph glyph-name="space" unicode=" " horiz-adv-x="192" 
 />
    <glyph glyph-name="exclam" unicode="!" horiz-adv-x="270" 
d="M286 730l-10 -69l-89 -449h-37l34 449l9 69h93zM83 59c4 32 31 64 72 64c42 0 57 -32 53 -64s-29 -65 -71 -65c-41 0 -58 33 -54 65z" />
    <glyph glyph-name="quotedbl" unicode="&#x22;" horiz-adv-x="329" 
d="M145 496l24 241h71l-48 -241h-47zM279 496l24 241h71l-48 -241h-47z" />
    <glyph glyph-name="numbersign" unicode="#" horiz-adv-x="522" 
d="M405 455h-109l-65 -193h111zM550 515l-15 -60h-68l-58 -193h68l-13 -62h-72l-69 -211h-71l69 211h-109l-66 -211h-61l64 211h-78l13 62h84l56 192h-82l12 61h90l65 199h72l-65 -199h109l60 199h60l-59 -199h64z" />
    <glyph glyph-name="dollar" unicode="$" horiz-adv-x="605" 
d="M51 49l34 70c50 -28 113 -50 187 -55l40 284l-62 18c-91 25 -143 79 -129 176c18 131 113 193 247 202l12 83h44l-12 -82c79 -2 146 -24 186 -53l-34 -68c-31 19 -94 43 -162 46l-35 -248l50 -13c99 -26 156 -79 139 -198c-20 -146 -117 -215 -249 -221l-12 -85h-45
l12 85c-104 4 -176 34 -211 59zM472 208c8 59 -9 99 -92 122l-25 6l-38 -273c89 5 141 51 155 145zM206 547c-8 -57 24 -88 87 -105l31 -9l33 236c-89 -7 -140 -47 -151 -122z" />
    <glyph glyph-name="percent" unicode="%" horiz-adv-x="860" 
d="M289 673c-58 0 -95 -65 -105 -134c-10 -72 11 -127 68 -127c58 0 94 59 104 127c10 71 -11 134 -67 134zM185 -2l465 716h74l-477 -716h-62zM296 727c90 0 136 -80 121 -188c-15 -105 -83 -184 -173 -184s-135 79 -120 184c15 106 82 188 172 188zM701 312
c-68 0 -111 -63 -121 -132c-10 -71 17 -132 84 -132c68 0 111 63 121 132c10 71 -17 132 -84 132zM708 368c106 0 151 -80 136 -188c-15 -105 -83 -187 -188 -187c-106 0 -150 82 -135 187c15 106 83 188 187 188z" />
    <glyph glyph-name="ampersand" unicode="&#x26;" horiz-adv-x="679" 
d="M264 410c-41 55 -67 95 -58 159c14 98 92 158 201 158c94 0 172 -49 158 -150c-12 -86 -89 -141 -182 -184l155 -210c30 29 58 69 80 109l49 -44c-24 -43 -55 -86 -89 -123l67 -105c-24 -9 -51 -18 -75 -25l-51 75c-64 -49 -141 -81 -233 -81c-159 0 -228 79 -210 204
c15 106 87 168 188 217zM304 354c-76 -38 -134 -84 -144 -156c-12 -83 40 -134 141 -134c66 0 123 24 173 62zM398 657c-55 0 -97 -32 -105 -88c-7 -48 17 -83 51 -125c66 33 124 66 133 128c8 57 -31 85 -79 85z" />
    <glyph glyph-name="quotesingle" unicode="'" horiz-adv-x="181" 
d="M186 496h-49l24 241h72z" />
    <glyph glyph-name="parenleft" unicode="(" horiz-adv-x="281" 
d="M102 311c22 155 87 295 174 426h67c-84 -130 -142 -273 -163 -424c-20 -139 -1 -296 46 -419h-67c-49 117 -78 268 -57 417z" />
    <glyph glyph-name="parenright" unicode=")" horiz-adv-x="280" 
d="M94 -106h-65c81 123 142 279 162 419c21 151 3 294 -44 424h67c50 -132 77 -270 55 -426c-21 -150 -93 -299 -175 -417z" />
    <glyph glyph-name="asterisk" unicode="*" horiz-adv-x="491" 
d="M389 727l-42 -208l158 93l23 -78l-170 -66s64 -112 93 -167c-23 -17 -45 -29 -68 -46l-77 178l-123 -178l-56 46l139 167l-149 66l43 78l133 -93l15 208h81z" />
    <glyph glyph-name="plus" unicode="+" horiz-adv-x="491" 
d="M83 250l9 65h175l29 205h60l-28 -205h167l-9 -65h-168l-30 -211h-61l29 211h-173z" />
    <glyph glyph-name="comma" unicode="," horiz-adv-x="234" 
d="M188 112l-95 -255h-50l45 255h100z" />
    <glyph glyph-name="hyphen" unicode="-" horiz-adv-x="319" 
d="M78 254l9 70h238l-10 -70h-237z" />
    <glyph glyph-name="period" unicode="." horiz-adv-x="229" 
d="M122 -6c-41 0 -58 33 -54 65s30 64 72 64s57 -32 53 -64s-29 -65 -71 -65z" />
    <glyph glyph-name="slash" unicode="/" horiz-adv-x="432" 
d="M74 -106h-66l423 822h66z" />
    <glyph glyph-name="zero" unicode="0" horiz-adv-x="569" 
d="M381 670c-94 0 -164 -126 -188 -300c-25 -177 9 -307 103 -307s163 130 188 307c24 174 -9 300 -103 300zM285 -11c-167 0 -212 164 -182 378c32 224 129 378 289 378s213 -154 181 -378c-30 -214 -121 -378 -288 -378z" />
    <glyph glyph-name="one" unicode="1" horiz-adv-x="285" 
d="M241 730h74l-103 -730h-83l90 640c-40 -25 -85 -44 -119 -55l11 82c43 19 90 36 130 63z" />
    <glyph glyph-name="two" unicode="2" horiz-adv-x="509" 
d="M163 681c43 38 104 64 193 64c125 0 193 -79 176 -199v-3c-14 -92 -70 -162 -158 -248l-223 -220h317l-15 -75h-400v80l275 280c62 63 103 119 112 176l1 5c11 81 -26 127 -103 127c-57 0 -115 -18 -159 -60z" />
    <glyph glyph-name="three" unicode="3" horiz-adv-x="504" 
d="M405 201c19 131 -80 152 -207 152l10 72c104 0 205 13 221 128c11 81 -27 117 -108 117c-62 0 -119 -21 -159 -52l-16 71c46 34 109 56 204 56c101 0 188 -64 171 -181c-13 -94 -68 -151 -147 -175c83 -20 128 -86 113 -189c-19 -130 -127 -211 -260 -211
c-89 0 -149 30 -171 56l35 72c30 -29 76 -54 145 -54c89 0 156 49 169 138z" />
    <glyph glyph-name="four" unicode="4" horiz-adv-x="553" 
d="M445 620l-279 -368h227zM539 181h-77l-25 -181h-80l26 181h-307l10 75l366 474h87l-67 -478h83z" />
    <glyph glyph-name="five" unicode="5" horiz-adv-x="540" 
d="M565 730l-18 -80h-279l-39 -230c40 25 78 36 117 36c139 0 195 -99 177 -223c-21 -146 -128 -244 -283 -244c-81 0 -141 27 -176 67l40 69c26 -24 73 -57 149 -57c102 0 171 68 185 164c12 84 -28 147 -120 147c-43 0 -82 -14 -115 -48l-63 9l72 390h353z" />
    <glyph glyph-name="six" unicode="6" horiz-adv-x="553" 
d="M168 221c-12 -84 25 -158 120 -158c94 0 155 71 167 155c13 90 -30 158 -123 158c-102 0 -152 -71 -164 -155zM358 450c117 0 204 -96 185 -231c-19 -130 -121 -230 -263 -230c-148 0 -218 109 -199 241c16 110 59 179 168 302c46 53 179 195 179 195h108l-286 -307
c32 17 71 30 108 30z" />
    <glyph glyph-name="seven" unicode="7" horiz-adv-x="478" 
d="M120 0l325 655h-306l15 75h394l-9 -66l-336 -664h-83z" />
    <glyph glyph-name="eight" unicode="8" horiz-adv-x="542" 
d="M369 670c-67 0 -134 -38 -144 -108c-11 -78 28 -125 108 -145c86 20 136 67 147 145c10 70 -44 108 -111 108zM323 343c-84 -20 -154 -68 -165 -149c-11 -82 43 -131 125 -131s149 49 160 131c11 81 -41 129 -120 149zM273 -11c-123 0 -216 69 -198 199
c13 94 77 166 172 197c-76 30 -118 87 -105 176c17 118 115 184 237 184s200 -66 183 -184c-13 -89 -67 -146 -144 -176c79 -31 119 -103 106 -197c-18 -130 -128 -199 -251 -199z" />
    <glyph glyph-name="nine" unicode="9" horiz-adv-x="537" 
d="M489 518c12 84 -23 152 -118 152c-94 0 -158 -70 -170 -154c-13 -90 32 -151 125 -151c102 0 151 69 163 153zM298 292c-117 0 -204 87 -185 222c19 130 124 231 266 231c148 0 216 -104 197 -236c-14 -97 -52 -161 -138 -263c-53 -63 -218 -246 -218 -246h-103l290 321
c-32 -17 -72 -29 -109 -29z" />
    <glyph glyph-name="colon" unicode=":" horiz-adv-x="228" 
d="M67 -12l16 114h96l-16 -114h-96zM130 436l16 113h96l-16 -113h-96z" />
    <glyph glyph-name="semicolon" unicode=";" horiz-adv-x="238" 
d="M189 96l-93 -247h-53l61 247h85zM142 436l16 113h97l-16 -113h-97z" />
    <glyph glyph-name="less" unicode="&#x3c;" horiz-adv-x="535" 
d="M551 479l-375 -188l320 -186l-11 -81l-399 243l6 46l470 248z" />
    <glyph glyph-name="equal" unicode="=" horiz-adv-x="584" 
d="M99 221h455l-11 -72h-454zM128 435h455l-10 -73h-455z" />
    <glyph glyph-name="greater" unicode="&#x3e;" horiz-adv-x="537" 
d="M75 112l372 180l-318 195l12 79l398 -254l-7 -46l-469 -236z" />
    <glyph glyph-name="question" unicode="?" horiz-adv-x="398" 
d="M119 59c4 32 30 64 71 64c42 0 58 -32 54 -64s-30 -65 -72 -65c-41 0 -57 33 -53 65zM217 212h-41c16 114 170 271 184 367c8 64 -29 91 -91 91c-56 0 -101 -24 -125 -39l-12 66c46 35 109 47 160 47c97 0 159 -56 145 -158c-19 -133 -127 -210 -220 -374z" />
    <glyph glyph-name="at" unicode="@" horiz-adv-x="817" 
d="M405 216c81 0 122 146 162 271c-11 7 -42 11 -60 11c-94 0 -140 -103 -153 -195c-7 -53 10 -87 51 -87zM577 145c-45 0 -74 23 -74 77c-38 -48 -77 -68 -118 -68c-66 0 -106 58 -92 154c18 127 91 247 221 247c47 0 96 -16 132 -30c-38 -113 -80 -230 -85 -269
c-5 -37 8 -52 33 -52c59 0 161 92 177 207c24 172 -86 275 -256 275c-171 0 -332 -146 -358 -334c-29 -206 88 -330 254 -330c83 0 159 23 217 68l26 -43c-65 -56 -156 -84 -253 -84c-203 0 -337 152 -304 389c31 219 220 393 428 393c196 0 335 -130 306 -335
c-24 -169 -160 -265 -254 -265z" />
    <glyph glyph-name="A" unicode="A" horiz-adv-x="596" 
d="M233 298h217l-54 348zM510 0l-42 231h-270l-113 -231h-82l356 730h96l139 -730h-84z" />
    <glyph glyph-name="B" unicode="B" horiz-adv-x="591" 
d="M201 350l-39 -282h142c119 0 186 43 200 141c13 92 -35 141 -137 141h-166zM245 660l-35 -245h161c63 0 133 17 148 120c16 110 -58 125 -168 125h-106zM69 0l102 730h201c166 0 254 -49 236 -178c-10 -70 -48 -137 -122 -161c85 -20 113 -105 102 -183
c-18 -128 -99 -208 -278 -208h-241z" />
    <glyph glyph-name="C" unicode="C" horiz-adv-x="588" 
d="M478 745c90 0 148 -26 189 -67l-38 -66c-34 32 -89 58 -159 58c-165 0 -261 -144 -284 -306c-22 -155 25 -301 204 -301c68 0 129 28 171 60l16 -71c-51 -43 -117 -63 -205 -63c-214 0 -303 168 -274 375c30 216 170 381 380 381z" />
    <glyph glyph-name="D" unicode="D" horiz-adv-x="692" 
d="M244 655l-81 -579h143c166 0 278 93 304 282c32 230 -82 297 -268 297h-98zM69 0l102 730h171c237 0 397 -88 357 -370c-34 -243 -197 -360 -413 -360h-217z" />
    <glyph glyph-name="E" unicode="E" horiz-adv-x="524" 
d="M511 413l-11 -75h-301l-36 -262h333l-17 -76h-410l102 730h404l-17 -75h-314l-34 -242h301z" />
    <glyph glyph-name="F" unicode="F" horiz-adv-x="469" 
d="M489 409l-10 -70h-279l-48 -339h-83l102 730h379l-17 -75h-289l-35 -246h280z" />
    <glyph glyph-name="G" unicode="G" horiz-adv-x="653" 
d="M370 -11c-216 0 -299 175 -271 375c29 205 160 381 380 381c87 0 153 -26 199 -71l-39 -67c-32 32 -97 63 -163 63c-172 0 -267 -145 -289 -306c-23 -162 31 -301 203 -301c57 0 126 24 159 44l27 193h-168l16 73h233l-44 -313c-89 -53 -156 -71 -243 -71z" />
    <glyph glyph-name="H" unicode="H" horiz-adv-x="670" 
d="M571 340h-371l-48 -340h-83l102 730h83l-44 -316h371l44 316h83l-102 -730h-83z" />
    <glyph glyph-name="I" unicode="I" horiz-adv-x="234" 
d="M262 730l-103 -730h-83l103 730h83z" />
    <glyph glyph-name="J" unicode="J" horiz-adv-x="250" 
d="M114 88l91 642h83l-86 -612c-21 -150 -48 -222 -210 -222h-16v69h34c83 0 94 51 104 123z" />
    <glyph glyph-name="K" unicode="K" horiz-adv-x="566" 
d="M324 390l259 -390h-105l-225 343l-60 -49l-42 -294h-83l103 730h83l-50 -354l340 354h109z" />
    <glyph glyph-name="L" unicode="L" horiz-adv-x="449" 
d="M172 730h83l-92 -654h298l-16 -76h-376z" />
    <glyph glyph-name="M" unicode="M" horiz-adv-x="815" 
d="M229 577l-81 -577h-78l102 730h90l175 -561l330 561h86l-103 -730h-78l81 574l-283 -485h-91z" />
    <glyph glyph-name="N" unicode="N" horiz-adv-x="681" 
d="M616 0h-92l-292 605l-85 -605h-78l102 730h91l295 -606l85 606h77z" />
    <glyph glyph-name="O" unicode="O" horiz-adv-x="758" 
d="M475 670c-164 0 -263 -122 -289 -306c-23 -168 33 -301 204 -301s264 133 287 301c25 182 -38 306 -202 306zM379 -11c-220 0 -311 161 -281 375c32 227 175 381 387 381s313 -154 281 -381c-30 -214 -168 -375 -387 -375z" />
    <glyph glyph-name="P" unicode="P" horiz-adv-x="533" 
d="M323 380c154 0 178 79 188 152c12 86 -44 121 -128 121h-140l-38 -272s87 -1 118 -1zM151 0h-83l103 730h222c130 0 223 -55 203 -196c-19 -136 -87 -229 -290 -229c-28 0 -77 4 -111 7z" />
    <glyph glyph-name="Q" unicode="Q" horiz-adv-x="809" 
d="M379 -11c-220 0 -311 161 -281 375c32 227 175 381 387 381s313 -154 281 -381c-24 -168 -114 -304 -258 -354c21 -71 86 -167 98 -181l-62 -58c-15 19 -90 136 -117 221c-16 -2 -32 -3 -48 -3zM475 670c-164 0 -263 -122 -289 -306c-23 -168 33 -301 204 -301
s264 133 287 301c25 182 -38 306 -202 306z" />
    <glyph glyph-name="R" unicode="R" horiz-adv-x="614" 
d="M244 655l-35 -244l162 -2c123 -1 164 42 176 129c11 76 -19 117 -123 117h-180zM585 0h-93l-61 227c-12 43 -22 84 -33 109c-13 -1 -63 -2 -79 -2c-9 0 -120 4 -120 4l-47 -338h-83l102 730h218c164 0 263 -25 240 -190c-13 -90 -64 -161 -157 -186c-1 0 26 -62 37 -99z
" />
    <glyph glyph-name="S" unicode="S" horiz-adv-x="562" 
d="M51 49l34 70c57 -32 131 -56 218 -56c97 0 155 46 169 145c8 59 -9 99 -92 122l-130 36c-91 25 -143 79 -129 176c20 142 129 203 279 203c84 0 156 -22 198 -53l-34 -68c-33 21 -102 46 -176 46c-108 0 -170 -39 -182 -123c-8 -57 24 -88 87 -105l124 -33
c99 -26 156 -79 139 -198c-21 -152 -126 -222 -267 -222c-119 0 -200 33 -238 60z" />
    <glyph glyph-name="T" unicode="T" horiz-adv-x="486" 
d="M91 655l10 75h490l-11 -75h-204l-91 -655h-83l91 655h-202z" />
    <glyph glyph-name="U" unicode="U" horiz-adv-x="634" 
d="M315 -11c-200 0 -242 109 -220 266l67 475h83l-66 -472c-20 -143 24 -197 147 -197c122 0 182 54 202 197l66 472h83l-67 -475c-22 -157 -95 -266 -295 -266z" />
    <glyph glyph-name="V" unicode="V" horiz-adv-x="574" 
d="M300 95c0 0 194 418 297 635h85l-351 -730h-88l-145 730h87z" />
    <glyph glyph-name="W" unicode="W" horiz-adv-x="972" 
d="M715 95l287 635h85l-337 -730h-96l-75 598l-266 -598h-95l-128 730h86l106 -634l262 608h96z" />
    <glyph glyph-name="X" unicode="X" horiz-adv-x="596" 
d="M5 0l296 381l-178 349h100l142 -294l237 294h88l-278 -349l180 -381h-96l-149 332l-250 -332h-92z" />
    <glyph glyph-name="Y" unicode="Y" horiz-adv-x="569" 
d="M672 730l-316 -430l-42 -300h-83l43 300l-172 430h86l144 -350l251 350h89z" />
    <glyph glyph-name="Z" unicode="Z" horiz-adv-x="545" 
d="M629 730l-8 -60l-466 -594h379l-16 -76h-476l10 68l460 587h-362l11 75h468z" />
    <glyph glyph-name="bracketleft" unicode="[" horiz-adv-x="314" 
d="M258 -68l-8 -59h-211l121 862h211l-9 -61h-127l-104 -742h127z" />
    <glyph glyph-name="backslash" unicode="\" horiz-adv-x="424" 
d="M393 -59h-66l-188 775h67z" />
    <glyph glyph-name="bracketright" unicode="]" horiz-adv-x="314" 
d="M42 -68h126l105 742h-127l8 61h211l-121 -862h-211z" />
    <glyph glyph-name="asciicircum" unicode="^" horiz-adv-x="546" 
d="M147 306h-62l271 455h48l146 -455h-61l-123 365z" />
    <glyph glyph-name="underscore" unicode="_" horiz-adv-x="568" 
d="M492 -76l-10 -67h-432l10 67h432z" />
    <glyph glyph-name="grave" unicode="`" horiz-adv-x="298" 
d="M277 611l-125 189h118l60 -189h-53z" />
    <glyph glyph-name="a" unicode="a" horiz-adv-x="444" 
d="M193 52c43 0 108 28 144 73l17 124s-41 -7 -42 -7c-133 -19 -175 -42 -185 -112c-8 -56 22 -78 66 -78zM330 58c-47 -52 -106 -70 -154 -70c-76 0 -133 43 -119 139c19 134 137 153 258 172l47 6l9 57c8 60 -15 91 -78 91c-51 0 -107 -14 -148 -34l-11 62
c38 22 102 41 167 41c91 0 156 -33 140 -147l-52 -375h-57z" />
    <glyph glyph-name="b" unicode="b" horiz-adv-x="497" 
d="M264 -12c-62 0 -110 33 -130 90l-11 -78h-70l102 726l72 11l-43 -308c45 67 107 93 157 93c127 0 176 -125 157 -261c-21 -148 -104 -273 -234 -273zM269 55c99 0 143 109 156 200c13 90 0 200 -98 200c-81 -1 -151 -81 -168 -200c-15 -108 13 -200 110 -200z" />
    <glyph glyph-name="c" unicode="c" horiz-adv-x="402" 
d="M375 93l10 -56c-35 -33 -86 -49 -131 -49c-143 0 -204 125 -184 267c21 141 121 267 258 267c54 0 96 -17 118 -46l-25 -56c-31 25 -68 35 -103 35c-84 0 -160 -86 -176 -202c-16 -115 33 -198 125 -198c42 0 80 18 108 38z" />
    <glyph glyph-name="d" unicode="d" horiz-adv-x="496" 
d="M244 61c94 0 151 87 166 195c15 107 -14 194 -112 194c-94 0 -142 -101 -155 -192c-14 -100 6 -197 101 -197zM229 -12c-124 0 -180 113 -158 273c21 145 115 261 231 261c61 0 116 -34 132 -90l41 294l71 11l-103 -737h-62l3 83c-34 -54 -92 -95 -155 -95z" />
    <glyph glyph-name="e" unicode="e" horiz-adv-x="459" 
d="M244 -12c-131 0 -196 103 -173 267c21 152 120 263 240 267c114 0 170 -96 149 -246l-5 -35h-314c-16 -113 34 -183 115 -183c65 0 117 26 153 50l14 -56c-43 -38 -105 -64 -179 -64zM151 294h245c15 107 -27 162 -95 162c-69 0 -128 -63 -150 -162z" />
    <glyph glyph-name="f" unicode="f" horiz-adv-x="269" 
d="M81 452l8 57h67l3 18c27 179 71 223 181 223h30v-62h-39c-73 0 -85 -40 -102 -160l-2 -19h104l-8 -57h-104l-64 -452h-70l63 452h-67z" />
    <glyph glyph-name="g" unicode="g" horiz-adv-x="493" 
d="M104 -245v74h86c145 0 171 77 190 211l7 47c-37 -50 -82 -87 -154 -87c-135 0 -179 136 -162 253c21 145 101 269 241 269c61 0 99 -29 126 -84l10 71h68l-68 -480c-19 -134 -56 -274 -270 -274h-74zM253 70c99 0 145 80 158 170l5 37c13 95 -14 176 -109 176
c-99 0 -151 -109 -163 -196c-12 -86 15 -187 109 -187z" />
    <glyph glyph-name="h" unicode="h" horiz-adv-x="473" 
d="M170 345l-49 -345h-70l102 726l72 11l-42 -299c46 54 105 84 175 84c96 0 129 -79 110 -213l-44 -309h-70l41 284c16 114 9 168 -69 168c-72 0 -138 -59 -156 -107z" />
    <glyph glyph-name="i" unicode="i" horiz-adv-x="206" 
d="M244 730l-14 -96h-70l14 96h70zM217 536l-76 -536h-70l75 536h71z" />
    <glyph glyph-name="j" unicode="j" horiz-adv-x="185" 
d="M239 730l-14 -96h-70l13 96h71zM211 536l-85 -604c-19 -131 -50 -177 -164 -177h-22l1 74h22c76 0 83 31 94 112l84 595h70z" />
    <glyph glyph-name="k" unicode="k" horiz-adv-x="425" 
d="M153 728l72 9l-60 -428l236 227h96l-228 -223l166 -313h-90l-136 275l-56 -50l-32 -225h-70z" />
    <glyph glyph-name="l" unicode="l" horiz-adv-x="237" 
d="M238 737l-74 -527c-17 -117 -18 -153 29 -153c10 0 16 1 38 3l-4 -64c-24 -5 -42 -6 -49 -6c-113 0 -107 61 -82 239l71 499z" />
    <glyph glyph-name="m" unicode="m" horiz-adv-x="749" 
d="M121 0h-70l53 380l17 129h61l-5 -78c49 62 110 91 168 91c64 0 105 -27 116 -98c50 71 108 98 172 98c104 0 130 -79 113 -198l-45 -324h-70l37 264c16 114 23 187 -56 187c-59 0 -115 -46 -146 -114l-48 -337h-69l39 280c15 103 8 171 -61 171c-72 0 -135 -54 -157 -106
z" />
    <glyph glyph-name="n" unicode="n" horiz-adv-x="472" 
d="M353 522c101 0 134 -74 114 -217l-43 -305h-70l36 254c19 131 24 198 -61 198c-77 0 -141 -61 -159 -106l-49 -346h-70l54 385l16 124h61l-5 -78c43 56 113 91 176 91z" />
    <glyph glyph-name="o" unicode="o" horiz-adv-x="498" 
d="M426 254c15 106 -7 201 -111 201c-99 0 -157 -100 -172 -203c-14 -101 16 -197 117 -197c99 0 151 96 166 199zM499 255c-20 -141 -112 -267 -250 -267c-139 0 -200 120 -179 266s116 268 255 268c141 0 195 -120 174 -267z" />
    <glyph glyph-name="p" unicode="p" horiz-adv-x="495" 
d="M160 254c-15 -107 9 -196 105 -196s145 105 158 196s-7 199 -103 199s-145 -91 -160 -199zM23 -224l103 733h67l-6 -71c43 55 92 84 153 84c135 0 175 -126 154 -273c-20 -138 -109 -261 -229 -261c-59 0 -106 28 -129 89l-41 -290z" />
    <glyph glyph-name="q" unicode="q" horiz-adv-x="496" 
d="M409 255c15 106 -13 195 -110 195c-99 0 -143 -105 -156 -195c-13 -94 3 -195 102 -195c98 0 149 88 164 195zM226 -12c-128 0 -176 125 -157 262c21 147 103 272 237 272c64 0 106 -35 128 -89l11 76h68l-101 -723l-72 -10l43 306c-37 -58 -93 -94 -157 -94z" />
    <glyph glyph-name="r" unicode="r" horiz-adv-x="279" 
d="M125 0h-70l55 392c6 41 10 78 15 117h60l-7 -92c42 68 92 92 146 92h13l-5 -74h-17c-85 0 -137 -64 -148 -139z" />
    <glyph glyph-name="s" unicode="s" horiz-adv-x="398" 
d="M379 138v-2c-17 -96 -85 -148 -172 -148c-70 0 -128 26 -152 50l26 60c16 -12 63 -42 125 -42h7c52 0 89 28 101 80c0 2 1 4 1 6c4 32 -10 61 -59 77l-57 19c-89 28 -109 77 -101 139c10 73 70 144 173 145c59 0 103 -14 135 -35l-25 -57c-23 11 -63 27 -113 27
c-51 0 -93 -29 -100 -81c-4 -31 9 -55 56 -69l60 -19c72 -22 107 -66 95 -150z" />
    <glyph glyph-name="t" unicode="t" horiz-adv-x="290" 
d="M214 452l-39 -281c-13 -94 -6 -113 50 -113c8 0 24 1 57 4l-3 -65c-53 -5 -66 -7 -80 -7c-112 0 -111 61 -90 215l35 247h-70l13 57h65l46 200l53 5l-29 -205h122l-9 -57h-121z" />
    <glyph glyph-name="u" unicode="u" horiz-adv-x="466" 
d="M72 169l48 340h70l-47 -338c-13 -91 32 -116 98 -116c65 0 117 26 130 116l47 338h70l-48 -340c-19 -134 -112 -181 -209 -181s-178 48 -159 181z" />
    <glyph glyph-name="v" unicode="v" horiz-adv-x="433" 
d="M181 0l-110 509h75l85 -424l197 424h75l-251 -509h-71z" />
    <glyph glyph-name="w" unicode="w" horiz-adv-x="677" 
d="M78 509h73l45 -405l178 405h82l60 -404l156 404h71l-210 -509h-69l-61 431l-189 -431h-70z" />
    <glyph glyph-name="x" unicode="x" horiz-adv-x="437" 
d="M417 509h81l-200 -253l129 -256h-76l-101 204l-158 -204h-81l204 258l-129 251h81l97 -193z" />
    <glyph glyph-name="y" unicode="y" horiz-adv-x="423" 
d="M73 509h74l86 -418c54 124 180 418 180 418h74l-243 -540c-56 -125 -111 -214 -241 -214h-23l3 74h12c99 0 116 17 186 175z" />
    <glyph glyph-name="z" unicode="z" horiz-adv-x="364" 
d="M38 0l9 64l273 383h-221l8 62h302l-9 -62l-275 -384h229l-8 -63h-308z" />
    <glyph glyph-name="braceleft" unicode="{" horiz-adv-x="318" 
d="M181 336c52 -29 54 -99 48 -146l-15 -114c-14 -98 -17 -125 48 -125l-10 -67c-100 0 -135 40 -121 142l19 138c9 63 17 136 -38 136h-28l10 73h28c55 0 68 73 77 136l19 138c14 102 62 142 162 142l-10 -67c-65 0 -69 -27 -83 -125l-16 -115c-6 -47 -30 -117 -90 -146z
" />
    <glyph glyph-name="bar" unicode="|" horiz-adv-x="216" 
d="M255 783l-130 -931h-71l131 931h70z" />
    <glyph glyph-name="braceright" unicode="}" horiz-adv-x="323" 
d="M238 336c-52 29 -54 99 -48 146l17 115c14 98 15 125 -50 125l9 67c100 0 137 -40 123 -142l-19 -138c-9 -63 -16 -136 39 -136h27l-10 -73h-28c-55 0 -68 -73 -77 -136l-19 -138c-14 -102 -63 -142 -163 -142l9 67c65 0 71 27 85 125l16 114c6 47 29 117 89 146z" />
    <glyph glyph-name="asciitilde" unicode="~" horiz-adv-x="612" 
d="M252 371c71 0 163 -84 208 -84c42 0 78 46 95 93l50 -20c-26 -84 -79 -144 -154 -144c-57 0 -147 84 -207 84c-49 0 -86 -48 -103 -97l-44 28c22 72 76 140 155 140z" />
    <glyph glyph-name="uni00A0" unicode="&#xa0;" horiz-adv-x="142" 
 />
    <glyph glyph-name="exclamdown" unicode="&#xa1;" horiz-adv-x="229" 
d="M207 365l-80 -568h-64l80 568h64zM137 465l15 108h88l-15 -108h-88z" />
    <glyph glyph-name="cent" unicode="&#xa2;" horiz-adv-x="504" 
d="M83 349c-20 -140 39 -263 177 -267l10 67c-86 6 -131 87 -115 198c15 114 89 199 171 202l10 67c-135 -3 -233 -128 -253 -267zM331 549c13 0 26 -2 39 -5l-56 -391c-11 -3 -22 -4 -34 -4h-10l56 400h5zM398 131l-10 56c-20 -15 -46 -28 -74 -34l-9 -68c34 7 67 22 93 46
zM459 570c-17 21 -44 37 -80 43l-9 -69c22 -5 44 -14 64 -30zM352 730h44l-17 -117c-12 2 -25 3 -38 3h-5zM293 0h-44l11 82h7c12 0 25 1 38 3z" />
    <glyph glyph-name="sterling" unicode="&#xa3;" horiz-adv-x="500" 
d="M94 345l10 70h79l5 42c21 151 64 288 242 288c79 0 126 -39 150 -86l-51 -53c-27 41 -58 64 -109 64c-89 0 -129 -74 -144 -178l-11 -77h181l-10 -70h-181l-12 -86c-10 -68 -29 -142 -75 -185c15 2 26 5 41 5h281l-11 -79h-419v67c67 35 86 85 97 161l16 117h-79z" />
    <glyph glyph-name="currency" unicode="&#xa4;" horiz-adv-x="467" 
d="M153 362c-13 -93 47 -169 133 -169s167 76 180 169s-47 168 -133 168s-167 -75 -180 -168zM199 520c40 34 89 54 140 54c52 0 96 -21 126 -56l124 107l17 -27l-122 -106c22 -36 31 -81 24 -130s-29 -94 -61 -130l93 -106l-24 -27l-95 107c-40 -35 -90 -57 -142 -57
c-51 0 -95 22 -125 56l-122 -106l-20 25l124 106c-22 36 -33 83 -26 132c7 50 31 95 63 131l-94 107l27 25z" />
    <glyph glyph-name="yen" unicode="&#xa5;" horiz-adv-x="500" 
d="M309 161l-23 -161h-71l23 161h-178l8 60h178l13 94h-176l8 60h160l-140 355h82l118 -303l208 303h77l-246 -355h159l-9 -60h-170l-13 -94h172l-9 -60h-171z" />
    <glyph glyph-name="brokenbar" unicode="&#xa6;" horiz-adv-x="206" 
d="M121 -147h-71l44 313h71zM207 471h-70l44 312h70z" />
    <glyph glyph-name="section" unicode="&#xa7;" horiz-adv-x="449" 
d="M289 288c34 21 75 50 81 92c9 61 -63 77 -100 99c-34 -21 -69 -47 -75 -89c-7 -52 34 -73 94 -102zM465 763l-11 -77c-23 16 -66 27 -96 27c-58 0 -106 -20 -113 -71c-6 -42 15 -67 90 -105c68 -37 119 -75 109 -149c-8 -58 -51 -105 -96 -136c36 -26 60 -57 51 -119
c-14 -102 -104 -157 -206 -157c-44 0 -82 7 -114 26l11 79c36 -23 73 -35 111 -35c72 0 119 37 125 82c6 46 -28 62 -87 92l-37 19c-60 33 -89 77 -80 144c8 61 50 104 96 130c-36 32 -55 65 -46 127c14 97 92 145 193 145c41 0 69 -8 100 -22z" />
    <glyph glyph-name="dieresis" unicode="&#xa8;" horiz-adv-x="354" 
d="M213 612h-71l14 104h72zM394 612h-73l14 104h73z" />
    <glyph glyph-name="copyright" unicode="&#xa9;" horiz-adv-x="841" 
d="M578 224l10 -52c-35 -22 -95 -40 -152 -40c-126 0 -203 106 -182 251s123 252 257 252c55 0 101 -16 135 -44l-34 -47c-25 21 -70 33 -112 33c-106 0 -168 -90 -182 -192c-16 -110 24 -196 136 -196c42 0 96 16 124 35zM418 33c206 0 335 156 362 347
c27 190 -59 349 -266 349c-195 0 -326 -159 -352 -347c-27 -192 59 -349 256 -349zM833 381c-37 -263 -231 -394 -421 -394c-179 0 -341 131 -304 394c37 262 234 393 413 393c190 0 349 -132 312 -393z" />
    <glyph glyph-name="ordfeminine" unicode="&#xaa;" horiz-adv-x="347" 
d="M223 458c50 0 79 53 89 112l1 13c-54 -14 -124 -1 -134 -69c-5 -39 14 -56 44 -56zM207 403c-53 0 -87 43 -78 110c8 61 53 101 106 113c29 6 58 6 86 10c9 63 0 83 -43 83c-31 0 -61 -8 -84 -48l-21 38c25 47 69 67 115 67c54 0 96 -36 83 -127l-25 -170
c-1 -6 -3 -21 -7 -65h-48l4 38c-21 -29 -51 -49 -88 -49z" />
    <glyph glyph-name="guillemotleft" unicode="&#xab;" horiz-adv-x="449" 
d="M253 285l148 194h63l-132 -194l74 -196h-61zM96 285l138 194h78l-147 -194l87 -196h-76z" />
    <glyph glyph-name="logicalnot" unicode="&#xac;" horiz-adv-x="583" 
d="M537 125h-62l31 221h-403l10 74h466z" />
    <glyph glyph-name="uni00AD" unicode="&#xad;" horiz-adv-x="561" 
d="M506 0h-444l10 72h445z" />
    <glyph glyph-name="registered" unicode="&#xae;" horiz-adv-x="835" 
d="M470 350h-84l-28 -203h-62l67 477h119c139 0 197 -46 185 -132c-9 -63 -46 -121 -139 -133c38 -36 52 -100 100 -212h-70l-41 109c-17 45 -28 76 -47 94zM452 412c83 0 131 14 140 76c9 64 -29 73 -123 73h-53l-21 -149h57zM419 33c206 0 336 156 363 347
c27 190 -60 349 -267 349c-196 0 -327 -159 -353 -347c-27 -192 59 -349 257 -349zM835 381c-37 -263 -232 -394 -422 -394c-180 0 -342 131 -305 394c37 262 233 393 413 393c190 0 351 -132 314 -393z" />
    <glyph glyph-name="uni00AF" unicode="&#xaf;" horiz-adv-x="482" 
d="M537 793l-9 -67h-363l9 67h363z" />
    <glyph glyph-name="degree" unicode="&#xb0;" horiz-adv-x="374" 
d="M252 449c-70 0 -119 71 -107 156c12 84 81 154 151 154c71 0 119 -70 107 -154c-12 -85 -81 -156 -151 -156zM287 698c-42 0 -83 -40 -90 -93s22 -94 64 -94s85 41 92 94s-24 93 -66 93z" />
    <glyph glyph-name="plusminus" unicode="&#xb1;" horiz-adv-x="562" 
d="M117 385h189l27 198h63l-28 -198h193l-10 -72h-191l-27 -196h-63l27 196h-191zM508 0h-446l10 72h447z" />
    <glyph glyph-name="twosuperior" unicode="&#xb2;" horiz-adv-x="348" 
d="M328 317h-221l9 58c114 118 196 202 204 261c5 36 -12 59 -48 59c-35 0 -62 -26 -84 -69l-27 41c26 57 73 90 124 90c60 0 99 -47 89 -120c-13 -89 -89 -166 -184 -257h146z" />
    <glyph glyph-name="threesuperior" unicode="&#xb3;" horiz-adv-x="345" 
d="M259 695c-29 0 -54 -16 -81 -41l-17 50c29 31 70 54 109 54c56 0 103 -45 92 -121c-6 -41 -26 -74 -57 -94c31 -20 46 -53 39 -104c-11 -81 -74 -131 -139 -131c-39 0 -72 18 -93 51l33 50c20 -27 41 -41 66 -41c38 0 74 28 80 73c7 52 -23 70 -77 70h-22l9 62h20
c46 0 81 16 88 63c6 41 -17 59 -50 59z" />
    <glyph glyph-name="acute" unicode="&#xb4;" horiz-adv-x="297" 
d="M378 800l-179 -190h-53l114 190h118z" />
    <glyph glyph-name="paragraph" unicode="&#xb6;" horiz-adv-x="492" 
d="M232 -77h-59l69 491c-74 1 -128 73 -113 181c19 133 124 167 239 167h169l-9 -64h-34l-109 -775h-53l108 775h-99z" />
    <glyph glyph-name="periodcentered" unicode="&#xb7;" horiz-adv-x="216" 
d="M166 389c42 0 57 -33 53 -65s-30 -64 -72 -64c-41 0 -57 32 -53 64s31 65 72 65z" />
    <glyph glyph-name="cedilla" unicode="&#xb8;" horiz-adv-x="273" 
d="M26 -197l10 45c22 -7 43 -13 60 -13c35 0 48 15 51 38c4 28 -14 39 -40 39c-1 0 -8 -1 -15 -1l-13 -1l26 98h41l-15 -55h4c43 0 78 -24 71 -78c-8 -56 -54 -83 -110 -83c-21 0 -46 5 -70 11z" />
    <glyph glyph-name="onesuperior" unicode="&#xb9;" horiz-adv-x="280" 
d="M280 751l-52 -373h48l-8 -61h-147l8 63h49l40 288c-20 -12 -44 -25 -66 -36l10 69c29 12 53 25 74 41z" />
    <glyph glyph-name="ordmasculine" unicode="&#xba;" horiz-adv-x="385" 
d="M194 589c-10 -73 9 -130 64 -130c52 0 88 59 98 128c10 72 -10 132 -63 132c-52 0 -89 -60 -99 -130zM301 776c85 0 122 -84 107 -188c-15 -103 -74 -185 -158 -185c-88 0 -123 83 -108 188c15 104 74 185 159 185z" />
    <glyph glyph-name="guillemotright" unicode="&#xbb;" horiz-adv-x="457" 
d="M282 286l-148 -197h-63l133 197l-76 193h62zM448 286l-137 -197h-74l143 197l-83 193h72z" />
    <glyph glyph-name="onequarter" unicode="&#xbc;" horiz-adv-x="734" 
d="M652 20h-49l13 97h-177l7 49l210 273h56l-37 -264h43l-4 -58h-48zM660 755h66l-530 -755h-61zM145 632l10 69c29 12 52 25 73 41l45 9l-53 -373h51l-8 -61h-150l9 63h49l39 288c-20 -12 -43 -25 -65 -36zM512 175h112l17 122c3 25 6 39 8 53z" />
    <glyph glyph-name="onehalf" unicode="&#xbd;" horiz-adv-x="726" 
d="M665 -15h-239l8 60c131 117 227 203 235 261c5 36 -16 58 -58 58c-40 0 -74 -26 -98 -69l-34 41c30 57 83 90 144 90c69 0 109 -46 99 -119c-13 -90 -99 -167 -201 -259h152zM639 755h70l-533 -755h-63zM146 632l10 69c30 12 52 25 73 41l45 9l-52 -373h56l-8 -61h-156
l9 63h49l40 288c-20 -12 -44 -25 -66 -36z" />
    <glyph glyph-name="threequarters" unicode="&#xbe;" horiz-adv-x="744" 
d="M521 176h112c17 121 21 148 26 176zM663 21h-50l13 99h-177l6 47l211 274h56l-37 -265h44l-4 -56h-48zM677 755h67l-531 -755h-61zM169 654l-16 50c29 31 71 54 110 54c57 0 114 -45 103 -121c-6 -41 -30 -74 -67 -94c37 -20 55 -53 48 -104c-11 -81 -84 -131 -150 -131
c-39 0 -71 18 -92 51l30 50c20 -27 43 -41 68 -41c38 0 75 28 81 73c7 52 -24 70 -77 70h-23l9 62h20c46 0 81 16 88 63c6 41 -16 59 -49 59c-29 0 -56 -16 -83 -41z" />
    <glyph glyph-name="questiondown" unicode="&#xbf;" horiz-adv-x="399" 
d="M380 715l-16 -112h-103l15 112h104zM350 101l11 -61c-45 -33 -98 -52 -147 -52c-102 0 -167 56 -152 163c22 155 183 172 201 297l7 54h63l-3 -32c-1 -18 -3 -39 -5 -53c-15 -104 -173 -140 -190 -262c-9 -64 37 -96 99 -96c55 0 92 27 116 42z" />
    <glyph glyph-name="Agrave" unicode="&#xc0;" horiz-adv-x="635" 
d="M233 298h217l-54 348zM510 0l-42 231h-270l-113 -231h-82l356 730h96l139 -730h-84zM482 802l-125 189h118l60 -189h-53z" />
    <glyph glyph-name="Aacute" unicode="&#xc1;" horiz-adv-x="635" 
d="M233 298h217l-54 348zM510 0l-42 231h-270l-113 -231h-82l356 730h96l139 -730h-84zM561 991l-179 -190h-53l114 190h118z" />
    <glyph glyph-name="Acircumflex" unicode="&#xc2;" horiz-adv-x="635" 
d="M233 298h217l-54 348zM510 0l-42 231h-270l-113 -231h-82l356 730h96l139 -730h-84zM292 802l115 189h100l61 -189h-63l-57 133l-94 -133h-62z" />
    <glyph glyph-name="Atilde" unicode="&#xc3;" horiz-adv-x="635" 
d="M233 298h217l-54 348zM510 0l-42 231h-270l-113 -231h-82l356 730h96l139 -730h-84zM337 821h-50c10 73 44 107 93 107c57 0 111 -46 128 -46h1c19 1 24 25 28 46h50c-9 -67 -35 -107 -83 -107c-41 0 -99 48 -135 48h-1c-15 0 -26 -21 -31 -48z" />
    <glyph glyph-name="Adieresis" unicode="&#xc4;" horiz-adv-x="635" 
d="M233 298h217l-54 348zM510 0l-42 231h-270l-113 -231h-82l356 730h96l139 -730h-84zM375 803h-71l14 104h72zM556 803h-73l14 104h73z" />
    <glyph glyph-name="Aring" unicode="&#xc5;" horiz-adv-x="635" 
d="M233 298h217l-54 348zM510 0l-42 231h-270l-113 -231h-82l356 730h96l139 -730h-84zM457 991c48 0 84 -41 76 -96c-8 -56 -55 -90 -101 -90c-48 0 -86 34 -78 90c8 58 57 96 103 96zM436 840c23 0 47 25 51 55s-11 56 -36 56c-23 0 -48 -26 -52 -56c-4 -33 9 -55 37 -55z
" />
    <glyph glyph-name="AE" unicode="&#xc6;" horiz-adv-x="949" 
d="M40 0l480 766h473l-12 -78h-319l-19 -257h287l-11 -77h-278l-19 -277h283l-11 -77h-355l15 208h-305l-131 -208h-78zM583 688h-23l-262 -400h257z" />
    <glyph glyph-name="Ccedilla" unicode="&#xc7;" horiz-adv-x="626" 
d="M194 -197l10 45c22 -7 43 -13 60 -13c35 0 48 15 51 38c4 28 -14 39 -40 39c-1 0 -8 -1 -15 -1l-13 -1l25 93c-142 45 -198 190 -174 361c30 216 170 381 380 381c90 0 148 -26 189 -67l-38 -66c-34 32 -89 58 -159 58c-165 0 -261 -144 -284 -306
c-22 -155 25 -301 204 -301c68 0 129 28 171 60l16 -71c-51 -43 -117 -63 -205 -63c-22 0 -43 2 -62 5l-11 -41h4c43 0 78 -24 71 -78c-8 -56 -54 -83 -110 -83c-21 0 -46 5 -70 11z" />
    <glyph glyph-name="Egrave" unicode="&#xc8;" horiz-adv-x="556" 
d="M511 413l-11 -75h-301l-36 -262h333l-17 -76h-410l102 730h404l-17 -75h-314l-34 -242h301zM434 802l-125 189h118l60 -189h-53z" />
    <glyph glyph-name="Eacute" unicode="&#xc9;" horiz-adv-x="556" 
d="M511 413l-11 -75h-301l-36 -262h333l-17 -76h-410l102 730h404l-17 -75h-314l-34 -242h301zM513 991l-179 -190h-53l114 190h118z" />
    <glyph glyph-name="Ecircumflex" unicode="&#xca;" horiz-adv-x="556" 
d="M511 413l-11 -75h-301l-36 -262h333l-17 -76h-410l102 730h404l-17 -75h-314l-34 -242h301zM245 802l115 189h100l61 -189h-63l-57 133l-94 -133h-62z" />
    <glyph glyph-name="Edieresis" unicode="&#xcb;" horiz-adv-x="556" 
d="M511 413l-11 -75h-301l-36 -262h333l-17 -76h-410l102 730h404l-17 -75h-314l-34 -242h301zM327 803h-71l14 104h72zM508 803h-73l14 104h73z" />
    <glyph glyph-name="Igrave" unicode="&#xcc;" horiz-adv-x="248" 
d="M262 730l-103 -730h-83l103 730h83zM280 802l-125 189h118l60 -189h-53z" />
    <glyph glyph-name="Iacute" unicode="&#xcd;" horiz-adv-x="248" 
d="M262 730l-103 -730h-83l103 730h83zM359 991l-179 -190h-53l114 190h118z" />
    <glyph glyph-name="Icircumflex" unicode="&#xce;" horiz-adv-x="248" 
d="M262 730l-103 -730h-83l103 730h83zM91 802l115 189h100l61 -189h-63l-57 133l-94 -133h-62z" />
    <glyph glyph-name="Idieresis" unicode="&#xcf;" horiz-adv-x="248" 
d="M262 730l-103 -730h-83l103 730h83zM173 803h-71l14 104h72zM354 803h-73l14 104h73z" />
    <glyph glyph-name="Eth" unicode="&#xd0;" horiz-adv-x="743" 
d="M61 340l9 66h55l46 324h171c237 0 397 -88 357 -370c-34 -243 -197 -360 -413 -360h-217l47 340h-55zM244 655l-35 -249h105l-9 -66h-105l-37 -264h143c166 0 278 93 304 282c32 230 -82 297 -268 297h-98z" />
    <glyph glyph-name="Ntilde" unicode="&#xd1;" horiz-adv-x="726" 
d="M616 0h-92l-292 605l-85 -605h-78l102 730h91l295 -606l85 606h77zM375 821h-50c10 73 44 107 93 107c57 0 111 -46 128 -46h1c19 1 24 25 28 46h50c-9 -67 -35 -107 -83 -107c-41 0 -99 48 -135 48h-1c-15 0 -26 -21 -31 -48z" />
    <glyph glyph-name="Ograve" unicode="&#xd2;" horiz-adv-x="811" 
d="M475 670c-164 0 -263 -122 -289 -306c-23 -168 33 -301 204 -301s264 133 287 301c25 182 -38 306 -202 306zM379 -11c-220 0 -311 161 -281 375c32 227 175 381 387 381s313 -154 281 -381c-30 -214 -168 -375 -387 -375zM562 802l-125 189h118l60 -189h-53z" />
    <glyph glyph-name="Oacute" unicode="&#xd3;" horiz-adv-x="811" 
d="M475 670c-164 0 -263 -122 -289 -306c-23 -168 33 -301 204 -301s264 133 287 301c25 182 -38 306 -202 306zM379 -11c-220 0 -311 161 -281 375c32 227 175 381 387 381s313 -154 281 -381c-30 -214 -168 -375 -387 -375zM641 991l-179 -190h-53l114 190h118z" />
    <glyph glyph-name="Ocircumflex" unicode="&#xd4;" horiz-adv-x="811" 
d="M475 670c-164 0 -263 -122 -289 -306c-23 -168 33 -301 204 -301s264 133 287 301c25 182 -38 306 -202 306zM379 -11c-220 0 -311 161 -281 375c32 227 175 381 387 381s313 -154 281 -381c-30 -214 -168 -375 -387 -375zM372 802l115 189h100l61 -189h-63l-57 133
l-94 -133h-62z" />
    <glyph glyph-name="Otilde" unicode="&#xd5;" horiz-adv-x="811" 
d="M475 670c-164 0 -263 -122 -289 -306c-23 -168 33 -301 204 -301s264 133 287 301c25 182 -38 306 -202 306zM379 -11c-220 0 -311 161 -281 375c32 227 175 381 387 381s313 -154 281 -381c-30 -214 -168 -375 -387 -375zM417 821h-50c10 73 44 107 93 107
c57 0 111 -46 128 -46h1c19 1 24 25 28 46h50c-9 -67 -35 -107 -83 -107c-41 0 -99 48 -135 48h-1c-15 0 -26 -21 -31 -48z" />
    <glyph glyph-name="Odieresis" unicode="&#xd6;" horiz-adv-x="811" 
d="M475 670c-164 0 -263 -122 -289 -306c-23 -168 33 -301 204 -301s264 133 287 301c25 182 -38 306 -202 306zM379 -11c-220 0 -311 161 -281 375c32 227 175 381 387 381s313 -154 281 -381c-30 -214 -168 -375 -387 -375zM455 803h-71l14 104h72zM636 803h-73l14 104h73
z" />
    <glyph glyph-name="multiply" unicode="&#xd7;" horiz-adv-x="451" 
d="M455 447l-142 -155l98 -156l-50 -55l-104 156l-151 -156l-33 54l143 157l-99 156l49 53l106 -156l148 156z" />
    <glyph glyph-name="Oslash" unicode="&#xd8;" horiz-adv-x="785" 
d="M329 84c21 -7 45 -10 72 -10c166 0 264 135 288 309c16 112 -5 210 -69 263zM659 852l56 -22l-50 -99c97 -62 137 -185 114 -351c-32 -228 -170 -392 -389 -392c-39 0 -73 4 -104 14l-47 -90l-53 21l47 93c-105 61 -146 192 -123 354c34 240 178 394 389 394
c41 0 78 -6 111 -17zM488 688c-164 0 -264 -135 -288 -305c-17 -120 7 -221 77 -272l291 564c-23 9 -50 13 -80 13z" />
    <glyph glyph-name="Ugrave" unicode="&#xd9;" horiz-adv-x="676" 
d="M315 -11c-200 0 -242 109 -220 266l67 475h83l-66 -472c-20 -143 24 -197 147 -197c122 0 182 54 202 197l66 472h83l-67 -475c-22 -157 -95 -266 -295 -266zM494 802l-125 189h118l60 -189h-53z" />
    <glyph glyph-name="Uacute" unicode="&#xda;" horiz-adv-x="676" 
d="M315 -11c-200 0 -242 109 -220 266l67 475h83l-66 -472c-20 -143 24 -197 147 -197c122 0 182 54 202 197l66 472h83l-67 -475c-22 -157 -95 -266 -295 -266zM573 991l-179 -190h-53l114 190h118z" />
    <glyph glyph-name="Ucircumflex" unicode="&#xdb;" horiz-adv-x="676" 
d="M315 -11c-200 0 -242 109 -220 266l67 475h83l-66 -472c-20 -143 24 -197 147 -197c122 0 182 54 202 197l66 472h83l-67 -475c-22 -157 -95 -266 -295 -266zM305 802l115 189h100l61 -189h-63l-57 133l-94 -133h-62z" />
    <glyph glyph-name="Udieresis" unicode="&#xdc;" horiz-adv-x="676" 
d="M315 -11c-200 0 -242 109 -220 266l67 475h83l-66 -472c-20 -143 24 -197 147 -197c122 0 182 54 202 197l66 472h83l-67 -475c-22 -157 -95 -266 -295 -266zM387 803h-71l14 104h72zM568 803h-73l14 104h73z" />
    <glyph glyph-name="Yacute" unicode="&#xdd;" horiz-adv-x="606" 
d="M672 730l-316 -430l-42 -300h-83l43 300l-172 430h86l144 -350l251 350h89zM538 991l-179 -190h-53l114 190h118z" />
    <glyph glyph-name="Thorn" unicode="&#xde;" horiz-adv-x="592" 
d="M225 521l-39 -280h174c113 0 160 59 171 141c14 96 -26 139 -151 139h-155zM69 0l102 730h83l-19 -136h148c165 0 248 -54 227 -208c-18 -130 -95 -219 -254 -219c-3 0 -180 3 -180 3l-24 -170h-83z" />
    <glyph glyph-name="germandbls" unicode="&#xdf;" horiz-adv-x="518" 
d="M336 72c55 0 93 37 101 95c12 85 -89 134 -138 177c-18 16 -30 34 -27 57c2 17 14 36 36 55c47 40 102 54 111 121c8 59 -32 93 -84 93c-85 0 -126 -61 -139 -154l-73 -516h-70l72 511c21 145 92 234 221 234c105 0 168 -63 153 -168c-13 -93 -82 -122 -153 -168
c69 -65 187 -114 169 -239c-18 -124 -93 -170 -183 -170h-144l18 72h130z" />
    <glyph glyph-name="agrave" unicode="&#xe0;" horiz-adv-x="501" 
d="M193 52c43 0 108 28 144 73l17 124s-41 -7 -42 -7c-133 -19 -175 -42 -185 -112c-8 -56 22 -78 66 -78zM330 58c-47 -52 -106 -70 -154 -70c-76 0 -133 43 -119 139c19 134 137 153 258 172l47 6l9 57c8 60 -15 91 -78 91c-51 0 -107 -14 -148 -34l-11 62
c38 22 102 41 167 41c91 0 156 -33 140 -147l-52 -375h-57zM387 611l-125 189h118l60 -189h-53z" />
    <glyph glyph-name="aacute" unicode="&#xe1;" horiz-adv-x="501" 
d="M193 52c43 0 108 28 144 73l17 124s-41 -7 -42 -7c-133 -19 -175 -42 -185 -112c-8 -56 22 -78 66 -78zM330 58c-47 -52 -106 -70 -154 -70c-76 0 -133 43 -119 139c19 134 137 153 258 172l47 6l9 57c8 60 -15 91 -78 91c-51 0 -107 -14 -148 -34l-11 62
c38 22 102 41 167 41c91 0 156 -33 140 -147l-52 -375h-57zM466 800l-179 -190h-53l114 190h118z" />
    <glyph glyph-name="acircumflex" unicode="&#xe2;" horiz-adv-x="501" 
d="M193 52c43 0 108 28 144 73l17 124s-41 -7 -42 -7c-133 -19 -175 -42 -185 -112c-8 -56 22 -78 66 -78zM330 58c-47 -52 -106 -70 -154 -70c-76 0 -133 43 -119 139c19 134 137 153 258 172l47 6l9 57c8 60 -15 91 -78 91c-51 0 -107 -14 -148 -34l-11 62
c38 22 102 41 167 41c91 0 156 -33 140 -147l-52 -375h-57zM198 611l115 189h100l61 -189h-63l-57 133l-94 -133h-62z" />
    <glyph glyph-name="atilde" unicode="&#xe3;" horiz-adv-x="501" 
d="M193 52c43 0 108 28 144 73l17 124s-41 -7 -42 -7c-133 -19 -175 -42 -185 -112c-8 -56 22 -78 66 -78zM330 58c-47 -52 -106 -70 -154 -70c-76 0 -133 43 -119 139c19 134 137 153 258 172l47 6l9 57c8 60 -15 91 -78 91c-51 0 -107 -14 -148 -34l-11 62
c38 22 102 41 167 41c91 0 156 -33 140 -147l-52 -375h-57zM243 630h-50c10 73 44 107 93 107c57 0 111 -46 128 -46h1c19 1 24 25 28 46h50c-9 -67 -35 -107 -83 -107c-41 0 -99 48 -135 48h-1c-15 0 -26 -21 -31 -48z" />
    <glyph glyph-name="adieresis" unicode="&#xe4;" horiz-adv-x="501" 
d="M193 52c43 0 108 28 144 73l17 124s-41 -7 -42 -7c-133 -19 -175 -42 -185 -112c-8 -56 22 -78 66 -78zM330 58c-47 -52 -106 -70 -154 -70c-76 0 -133 43 -119 139c19 134 137 153 258 172l47 6l9 57c8 60 -15 91 -78 91c-51 0 -107 -14 -148 -34l-11 62
c38 22 102 41 167 41c91 0 156 -33 140 -147l-52 -375h-57zM280 612h-71l14 104h72zM461 612h-73l14 104h73z" />
    <glyph glyph-name="aring" unicode="&#xe5;" horiz-adv-x="501" 
d="M193 52c43 0 108 28 144 73l17 124s-41 -7 -42 -7c-133 -19 -175 -42 -185 -112c-8 -56 22 -78 66 -78zM330 58c-47 -52 -106 -70 -154 -70c-76 0 -133 43 -119 139c19 134 137 153 258 172l47 6l9 57c8 60 -15 91 -78 91c-51 0 -107 -14 -148 -34l-11 62
c38 22 102 41 167 41c91 0 156 -33 140 -147l-52 -375h-57zM363 800c48 0 84 -41 76 -96c-8 -56 -55 -90 -101 -90c-48 0 -86 34 -78 90c8 58 57 96 103 96zM342 649c23 0 47 25 51 55s-11 56 -36 56c-23 0 -48 -26 -52 -56c-4 -33 9 -55 37 -55z" />
    <glyph glyph-name="ae" unicode="&#xe6;" horiz-adv-x="706" 
d="M56 146c18 129 133 145 261 153c9 0 18 2 27 2l11 80c9 65 -7 96 -66 96c-57 0 -117 -19 -155 -40l-6 67c37 22 106 45 169 45c66 0 117 -31 120 -94c40 64 100 94 161 94c114 0 142 -105 126 -215c-6 -47 -20 -69 -88 -73l-210 -12c-9 -114 15 -191 104 -191
c54 0 110 30 143 54l13 -59c-39 -34 -97 -65 -170 -65c-60 0 -100 24 -127 67c-55 -36 -134 -68 -199 -68c-73 0 -131 41 -114 159zM184 55c46 0 111 28 162 47c-13 40 -17 87 -12 142c-9 0 -18 -1 -27 -2c-136 -12 -173 -42 -181 -100c-9 -65 17 -87 58 -87zM568 480
c-84 0 -133 -79 -152 -180l219 14v5c15 111 -5 161 -67 161z" />
    <glyph glyph-name="ccedilla" unicode="&#xe7;" horiz-adv-x="469" 
d="M116 -197l10 45c22 -7 43 -13 60 -13c35 0 48 15 51 38c4 28 -14 39 -40 39c-1 0 -8 -1 -15 -1l-13 -1l23 87c-99 31 -139 138 -122 258c21 141 121 267 258 267c54 0 96 -17 118 -46l-25 -56c-31 25 -68 35 -103 35c-84 0 -160 -86 -176 -202c-16 -115 33 -198 125 -198
c42 0 80 18 108 38l10 -56c-35 -33 -86 -49 -131 -49c-8 0 -16 1 -23 1l-10 -36h4c43 0 78 -24 71 -78c-8 -56 -54 -83 -110 -83c-21 0 -46 5 -70 11z" />
    <glyph glyph-name="egrave" unicode="&#xe8;" horiz-adv-x="531" 
d="M244 -12c74 0 136 26 179 64l-14 56c-36 -24 -88 -50 -153 -50c-81 0 -131 70 -115 183h314l5 35c21 150 -35 246 -149 246c-120 -4 -219 -115 -240 -267c-23 -164 42 -267 173 -267zM151 294c22 99 81 162 150 162c68 0 110 -55 95 -162h-245zM396 611l-125 189h118
l60 -189h-53z" />
    <glyph glyph-name="eacute" unicode="&#xe9;" horiz-adv-x="531" 
d="M244 -12c74 0 136 26 179 64l-14 56c-36 -24 -88 -50 -153 -50c-81 0 -131 70 -115 183h314l5 35c21 150 -35 246 -149 246c-120 -4 -219 -115 -240 -267c-23 -164 42 -267 173 -267zM151 294c22 99 81 162 150 162c68 0 110 -55 95 -162h-245zM475 800l-179 -190h-53
l114 190h118z" />
    <glyph glyph-name="ecircumflex" unicode="&#xea;" horiz-adv-x="531" 
d="M244 -12c74 0 136 26 179 64l-14 56c-36 -24 -88 -50 -153 -50c-81 0 -131 70 -115 183h314l5 35c21 150 -35 246 -149 246c-120 -4 -219 -115 -240 -267c-23 -164 42 -267 173 -267zM151 294c22 99 81 162 150 162c68 0 110 -55 95 -162h-245zM206 611l115 189h100
l61 -189h-63l-57 133l-94 -133h-62z" />
    <glyph glyph-name="edieresis" unicode="&#xeb;" horiz-adv-x="531" 
d="M244 -12c74 0 136 26 179 64l-14 56c-36 -24 -88 -50 -153 -50c-81 0 -131 70 -115 183h314l5 35c21 150 -35 246 -149 246c-120 -4 -219 -115 -240 -267c-23 -164 42 -267 173 -267zM151 294c22 99 81 162 150 162c68 0 110 -55 95 -162h-245zM470 612h-73l14 104h73z
M289 612h-71l14 104h72z" />
    <glyph glyph-name="igrave" unicode="&#xec;" horiz-adv-x="209" 
d="M203 509l-72 -509h-70l71 509h71zM234 611l-125 189h118l60 -189h-53z" />
    <glyph glyph-name="iacute" unicode="&#xed;" horiz-adv-x="209" 
d="M203 509l-72 -509h-70l71 509h71zM314 800l-179 -190h-53l114 190h118z" />
    <glyph glyph-name="icircumflex" unicode="&#xee;" horiz-adv-x="209" 
d="M203 509l-72 -509h-70l71 509h71zM45 611l115 189h100l61 -189h-63l-57 133l-94 -133h-62z" />
    <glyph glyph-name="idieresis" unicode="&#xef;" horiz-adv-x="209" 
d="M203 509l-72 -509h-70l71 509h71zM127 612h-71l14 104h72zM308 612h-73l14 104h73z" />
    <glyph glyph-name="eth" unicode="&#xf0;" horiz-adv-x="509" 
d="M307 475c55 0 88 -26 109 -47c-13 42 -46 107 -101 186l-121 -55l-9 65l98 42l-83 109h93l60 -76l119 54l10 -63l-98 -44c50 -83 84 -151 104 -214s26 -124 16 -192c-20 -143 -109 -252 -251 -252c-139 0 -200 115 -181 249c20 142 114 238 235 238zM312 407
c-89 0 -151 -77 -164 -170s23 -181 118 -181c90 0 151 76 165 174c12 88 -26 177 -119 177z" />
    <glyph glyph-name="ntilde" unicode="&#xf1;" horiz-adv-x="544" 
d="M353 522c101 0 134 -74 114 -217l-43 -305h-70l36 254c19 131 24 198 -61 198c-77 0 -141 -61 -159 -106l-49 -346h-70l54 385l16 124h61l-5 -78c43 56 113 91 176 91zM257 630h-50c10 73 44 107 93 107c57 0 111 -46 128 -46h1c19 1 24 25 28 46h50
c-9 -67 -35 -107 -83 -107c-41 0 -99 48 -135 48h-1c-15 0 -26 -21 -31 -48z" />
    <glyph glyph-name="ograve" unicode="&#xf2;" horiz-adv-x="577" 
d="M419 611l-125 189h118l60 -189h-53zM426 254c15 106 -7 201 -111 201c-99 0 -157 -100 -172 -203c-14 -101 16 -197 117 -197c99 0 151 96 166 199zM499 255c-20 -141 -112 -267 -250 -267c-139 0 -200 120 -179 266s116 268 255 268c141 0 195 -120 174 -267z" />
    <glyph glyph-name="oacute" unicode="&#xf3;" horiz-adv-x="577" 
d="M497 800l-179 -190h-53l114 190h118zM426 254c15 106 -7 201 -111 201c-99 0 -157 -100 -172 -203c-14 -101 16 -197 117 -197c99 0 151 96 166 199zM499 255c-20 -141 -112 -267 -250 -267c-139 0 -200 120 -179 266s116 268 255 268c141 0 195 -120 174 -267z" />
    <glyph glyph-name="ocircumflex" unicode="&#xf4;" horiz-adv-x="577" 
d="M229 611l115 189h100l61 -189h-63l-57 133l-94 -133h-62zM426 254c15 106 -7 201 -111 201c-99 0 -157 -100 -172 -203c-14 -101 16 -197 117 -197c99 0 151 96 166 199zM499 255c-20 -141 -112 -267 -250 -267c-139 0 -200 120 -179 266s116 268 255 268
c141 0 195 -120 174 -267z" />
    <glyph glyph-name="otilde" unicode="&#xf5;" horiz-adv-x="577" 
d="M274 630h-50c10 73 44 107 93 107c57 0 111 -46 128 -46h1c19 1 24 25 28 46h50c-9 -67 -35 -107 -83 -107c-41 0 -99 48 -135 48h-1c-15 0 -26 -21 -31 -48zM426 254c15 106 -7 201 -111 201c-99 0 -157 -100 -172 -203c-14 -101 16 -197 117 -197c99 0 151 96 166 199z
M499 255c-20 -141 -112 -267 -250 -267c-139 0 -200 120 -179 266s116 268 255 268c141 0 195 -120 174 -267z" />
    <glyph glyph-name="odieresis" unicode="&#xf6;" horiz-adv-x="575" 
d="M312 612h-71l14 104h72zM493 612h-73l14 104h73zM426 254c15 106 -7 201 -111 201c-99 0 -157 -100 -172 -203c-14 -101 16 -197 117 -197c99 0 151 96 166 199zM499 255c-20 -141 -112 -267 -250 -267c-139 0 -200 120 -179 266s116 268 255 268
c141 0 195 -120 174 -267z" />
    <glyph glyph-name="divide" unicode="&#xf7;" horiz-adv-x="553" 
d="M331 122l-16 -111h-89l16 111h89zM410 569l-15 -111h-106l15 111h106zM539 255h-457l10 73h457z" />
    <glyph glyph-name="oslash" unicode="&#xf8;" horiz-adv-x="498" 
d="M470 667l30 -18l-78 -153c68 -43 92 -135 77 -241c-20 -141 -112 -267 -250 -267c-29 0 -55 5 -77 14l-69 -136l-27 18l68 135c-64 45 -89 133 -74 235c21 146 116 268 255 268c25 0 47 -4 67 -11zM426 254c10 73 3 141 -37 176l-184 -363c15 -8 33 -12 55 -12
c99 0 151 96 166 199zM143 252c-9 -66 0 -129 35 -165l182 360c-13 5 -28 8 -45 8c-99 0 -157 -100 -172 -203z" />
    <glyph glyph-name="ugrave" unicode="&#xf9;" horiz-adv-x="536" 
d="M398 611l-125 189h118l60 -189h-53zM72 169l48 340h70l-47 -338c-13 -91 32 -116 98 -116c65 0 117 26 130 116l47 338h70l-48 -340c-19 -134 -112 -181 -209 -181s-178 48 -159 181z" />
    <glyph glyph-name="uacute" unicode="&#xfa;" horiz-adv-x="536" 
d="M477 800l-179 -190h-53l114 190h118zM72 169l48 340h70l-47 -338c-13 -91 32 -116 98 -116c65 0 117 26 130 116l47 338h70l-48 -340c-19 -134 -112 -181 -209 -181s-178 48 -159 181z" />
    <glyph glyph-name="ucircumflex" unicode="&#xfb;" horiz-adv-x="536" 
d="M208 611l115 189h100l61 -189h-63l-57 133l-94 -133h-62zM72 169l48 340h70l-47 -338c-13 -91 32 -116 98 -116c65 0 117 26 130 116l47 338h70l-48 -340c-19 -134 -112 -181 -209 -181s-178 48 -159 181z" />
    <glyph glyph-name="udieresis" unicode="&#xfc;" horiz-adv-x="536" 
d="M291 612h-71l14 104h72zM472 612h-73l14 104h73zM72 169l48 340h70l-47 -338c-13 -91 32 -116 98 -116c65 0 117 26 130 116l47 338h70l-48 -340c-19 -134 -112 -181 -209 -181s-178 48 -159 181z" />
    <glyph glyph-name="yacute" unicode="&#xfd;" horiz-adv-x="483" 
d="M450 800l-179 -190h-53l114 190h118zM147 509h-74l108 -505c-70 -158 -87 -175 -186 -175h-12l-3 -74h23c130 0 185 89 241 214l243 540h-74s-126 -294 -180 -418z" />
    <glyph glyph-name="thorn" unicode="&#xfe;" horiz-adv-x="512" 
d="M272 55c98 0 143 113 155 200c12 88 1 200 -95 200c-95 0 -156 -95 -171 -200s11 -200 111 -200zM137 78l-43 -302h-70l135 961h70l-43 -307c44 61 98 92 160 92c115 -1 175 -114 154 -262c-19 -136 -100 -272 -229 -272c-63 0 -111 28 -134 90z" />
    <glyph glyph-name="ydieresis" unicode="&#xff;" horiz-adv-x="483" 
d="M147 509h-74l108 -505c-70 -158 -87 -175 -186 -175h-12l-3 -74h23c130 0 185 89 241 214l243 540h-74s-126 -294 -180 -418zM265 612h-71l14 104h72zM446 612h-73l14 104h73z" />
    <glyph glyph-name="Amacron" unicode="&#x100;" horiz-adv-x="635" 
d="M467 813h-245v70h245v-70zM232 298h217l-54 348zM509 0l-42 231h-270l-113 -231h-82l356 730h96l139 -730h-84z" />
    <glyph glyph-name="amacron" unicode="&#x101;" horiz-adv-x="501" 
d="M193 52c43 0 108 28 144 73l17 124s-41 -7 -42 -7c-133 -19 -175 -42 -185 -112c-8 -56 22 -78 66 -78zM330 58c-47 -52 -106 -70 -154 -70c-76 0 -133 43 -119 139c19 134 137 153 258 172l47 6l9 57c8 60 -15 91 -78 91c-51 0 -107 -14 -148 -34l-11 62
c38 22 102 41 167 41c91 0 156 -33 140 -147l-52 -375h-57zM373 622h-245v70h245v-70z" />
    <glyph glyph-name="Abreve" unicode="&#x102;" horiz-adv-x="635" 
d="M424 825c-57 0 -109 42 -97 126h54c-6 -47 18 -69 51 -69s65 22 71 69h55c-12 -84 -77 -126 -134 -126zM233 298h217l-54 348zM510 0l-42 231h-270l-113 -231h-82l356 730h96l139 -730h-84z" />
    <glyph glyph-name="abreve" unicode="&#x103;" horiz-adv-x="501" 
d="M330 634c-57 0 -109 42 -97 126h54c-6 -47 18 -69 51 -69s65 22 71 69h55c-12 -84 -77 -126 -134 -126zM193 52c43 0 108 28 144 73l17 124s-41 -7 -42 -7c-133 -19 -175 -42 -185 -112c-8 -56 22 -78 66 -78zM330 58c-47 -52 -106 -70 -154 -70c-76 0 -133 43 -119 139
c19 134 137 153 258 172l47 6l9 57c8 60 -15 91 -78 91c-51 0 -107 -14 -148 -34l-11 62c38 22 102 41 167 41c91 0 156 -33 140 -147l-52 -375h-57z" />
    <glyph glyph-name="Aogonek" unicode="&#x104;" horiz-adv-x="635" 
d="M476 -148c24 0 41 6 65 16l-9 -57c-19 -8 -49 -16 -74 -16c-50 0 -84 30 -76 86c7 53 57 94 105 121h22l-41 229h-270l-113 -231h-82l356 730h96l139 -730h-58c-52 -37 -89 -71 -94 -104c-3 -26 15 -44 34 -44zM233 298h217l-54 348z" />
    <glyph glyph-name="aogonek" unicode="&#x105;" horiz-adv-x="501" 
d="M330 58c-47 -52 -106 -70 -154 -70c-76 0 -133 43 -119 139c19 134 137 153 258 172l47 6l9 57c8 60 -15 91 -78 91c-51 0 -107 -14 -148 -34l-11 62c38 22 102 41 167 41c91 0 156 -33 140 -147l-52 -373h30c-53 -38 -92 -73 -97 -106c-3 -26 15 -44 34 -44
c24 0 41 6 65 16l-9 -57c-19 -8 -49 -16 -74 -16c-50 0 -84 30 -76 86c7 52 54 92 101 119h-31zM193 52c43 0 108 28 144 73l17 124s-41 -7 -42 -7c-133 -19 -175 -42 -185 -112c-8 -56 22 -78 66 -78z" />
    <glyph glyph-name="Cacute" unicode="&#x106;" horiz-adv-x="626" 
d="M548 991l-179 -190h-53l114 190h118zM478 745c90 0 148 -26 189 -67l-38 -66c-34 32 -89 58 -159 58c-165 0 -261 -144 -284 -306c-22 -155 25 -301 204 -301c68 0 129 28 171 60l16 -71c-51 -43 -117 -63 -205 -63c-214 0 -303 168 -274 375c30 216 170 381 380 381z
" />
    <glyph glyph-name="cacute" unicode="&#x107;" horiz-adv-x="469" 
d="M443 800l-179 -190h-53l114 190h118zM385 37l-10 56c-28 -20 -66 -38 -108 -38c-92 0 -141 83 -125 198c16 116 92 202 176 202c35 0 72 -10 103 -35l25 56c-22 29 -64 46 -118 46c-137 0 -237 -126 -258 -267c-20 -142 41 -267 184 -267c45 0 96 16 131 49z" />
    <glyph glyph-name="Ccircumflex" unicode="&#x108;" horiz-adv-x="626" 
d="M280 802l115 189h100l61 -189h-63l-57 133l-94 -133h-62zM478 745c90 0 148 -26 189 -67l-38 -66c-34 32 -89 58 -159 58c-165 0 -261 -144 -284 -306c-22 -155 25 -301 204 -301c68 0 129 28 171 60l16 -71c-51 -43 -117 -63 -205 -63c-214 0 -303 168 -274 375
c30 216 170 381 380 381z" />
    <glyph glyph-name="ccircumflex" unicode="&#x109;" horiz-adv-x="469" 
d="M175 611l115 189h100l61 -189h-63l-57 133l-94 -133h-62zM385 37l-10 56c-28 -20 -66 -38 -108 -38c-92 0 -141 83 -125 198c16 116 92 202 176 202c35 0 72 -10 103 -35l25 56c-22 29 -64 46 -118 46c-137 0 -237 -126 -258 -267c-20 -142 41 -267 184 -267
c45 0 96 16 131 49z" />
    <glyph glyph-name="Cdotaccent" unicode="&#x10a;" horiz-adv-x="626" 
d="M456 923c42 0 57 -32 53 -64s-29 -65 -71 -65c-41 0 -57 33 -53 65s30 64 71 64zM478 745c90 0 148 -26 189 -67l-38 -66c-34 32 -89 58 -159 58c-165 0 -261 -144 -284 -306c-22 -155 25 -301 204 -301c68 0 129 28 171 60l16 -71c-51 -43 -117 -63 -205 -63
c-214 0 -303 168 -274 375c30 216 170 381 380 381z" />
    <glyph glyph-name="cdotaccent" unicode="&#x10b;" horiz-adv-x="469" 
d="M343 727c42 0 57 -32 53 -64s-29 -65 -71 -65c-41 0 -57 33 -53 65s30 64 71 64zM385 37l-10 56c-28 -20 -66 -38 -108 -38c-92 0 -141 83 -125 198c16 116 92 202 176 202c35 0 72 -10 103 -35l25 56c-22 29 -64 46 -118 46c-137 0 -237 -126 -258 -267
c-20 -142 41 -267 184 -267c45 0 96 16 131 49z" />
    <glyph glyph-name="Ccaron" unicode="&#x10c;" horiz-adv-x="626" 
d="M307 991h62l53 -152l97 152h63l-114 -189h-100zM478 745c90 0 148 -26 189 -67l-38 -66c-34 32 -89 58 -159 58c-165 0 -261 -144 -284 -306c-22 -155 25 -301 204 -301c68 0 129 28 171 60l16 -71c-51 -43 -117 -63 -205 -63c-214 0 -303 168 -274 375
c30 216 170 381 380 381z" />
    <glyph glyph-name="ccaron" unicode="&#x10d;" horiz-adv-x="469" 
d="M202 800h62l53 -152l97 152h63l-114 -189h-100zM385 37l-10 56c-28 -20 -66 -38 -108 -38c-92 0 -141 83 -125 198c16 116 92 202 176 202c35 0 72 -10 103 -35l25 56c-22 29 -64 46 -118 46c-137 0 -237 -126 -258 -267c-20 -142 41 -267 184 -267c45 0 96 16 131 49z
" />
    <glyph glyph-name="Dcaron" unicode="&#x10e;" horiz-adv-x="743" 
d="M365 991h62l53 -152l97 152h63l-114 -189h-100zM244 655l-81 -579h143c166 0 278 93 304 282c32 230 -82 297 -268 297h-98zM69 0l102 730h171c237 0 397 -88 357 -370c-34 -243 -197 -360 -413 -360h-217z" />
    <glyph glyph-name="dcaron" unicode="&#x10f;" horiz-adv-x="573" 
d="M820 737l-95 -255h-50l45 255h100zM244 61c-95 0 -115 97 -101 197c13 91 61 192 155 192c98 0 127 -87 112 -194c-15 -108 -72 -195 -166 -195zM229 -12c63 0 121 41 155 95l-3 -83h62l103 737l-71 -11l-41 -294c-16 56 -71 90 -132 90c-116 0 -210 -116 -231 -261
c-22 -160 34 -273 158 -273z" />
    <glyph glyph-name="Dcroat" unicode="&#x110;" horiz-adv-x="743" 
d="M61 340l9 66h55l46 324h171c237 0 397 -88 357 -370c-34 -243 -197 -360 -413 -360h-217l47 340h-55zM244 655l-35 -249h105l-9 -66h-105l-37 -264h143c166 0 278 93 304 282c32 230 -82 297 -268 297h-98z" />
    <glyph glyph-name="dcroat" unicode="&#x111;" horiz-adv-x="573" 
d="M402 585l9 70h54l10 71l71 11l-12 -82h115l-10 -70h-115l-81 -585h-62l3 83c-34 -54 -92 -95 -155 -95c-124 0 -180 113 -158 273c21 145 115 261 231 261c61 0 116 -34 132 -90l21 153h-53zM244 61c94 0 151 87 166 195c15 107 -14 194 -112 194
c-94 0 -142 -101 -155 -192c-14 -100 6 -197 101 -197z" />
    <glyph glyph-name="Emacron" unicode="&#x112;" horiz-adv-x="556" 
d="M427 813h-245v70h245v-70zM510 413l-11 -75h-301l-36 -262h333l-17 -76h-410l102 730h404l-17 -75h-314l-34 -242h301z" />
    <glyph glyph-name="emacron" unicode="&#x113;" horiz-adv-x="531" 
d="M243 -12c74 0 136 26 179 64l-14 56c-36 -24 -88 -50 -153 -50c-81 0 -131 70 -115 183h314l5 35c21 150 -35 246 -149 246c-120 -4 -219 -115 -240 -267c-23 -164 42 -267 173 -267zM150 294c22 99 81 162 150 162c68 0 110 -55 95 -162h-245zM388 622h-245v70h245v-70z
" />
    <glyph glyph-name="Edotaccent" unicode="&#x116;" horiz-adv-x="556" 
d="M420 923c42 0 57 -32 53 -64s-29 -65 -71 -65c-41 0 -57 33 -53 65s30 64 71 64zM511 413l-11 -75h-301l-36 -262h333l-17 -76h-410l102 730h404l-17 -75h-314l-34 -242h301z" />
    <glyph glyph-name="edotaccent" unicode="&#x117;" horiz-adv-x="531" 
d="M244 -12c74 0 136 26 179 64l-14 56c-36 -24 -88 -50 -153 -50c-81 0 -131 70 -115 183h314l5 35c21 150 -35 246 -149 246c-120 -4 -219 -115 -240 -267c-23 -164 42 -267 173 -267zM151 294c22 99 81 162 150 162c68 0 110 -55 95 -162h-245zM365 727
c42 0 57 -32 53 -64s-29 -65 -71 -65c-41 0 -57 33 -53 65s30 64 71 64z" />
    <glyph glyph-name="Eogonek" unicode="&#x118;" horiz-adv-x="556" 
d="M405 -148c24 0 41 6 65 16l-9 -57c-19 -8 -49 -16 -74 -16c-50 0 -84 30 -76 86c7 52 54 92 101 119h-343l102 730h404l-17 -75h-314l-34 -242h301l-11 -75h-301l-36 -262h333l-17 -76h-14c-52 -37 -89 -71 -94 -104c-3 -26 15 -44 34 -44z" />
    <glyph glyph-name="eogonek" unicode="&#x119;" horiz-adv-x="531" 
d="M244 -12c-131 0 -196 103 -173 267c21 152 120 263 240 267c114 0 170 -96 149 -246l-5 -35h-314c-16 -113 34 -183 115 -183c65 0 117 26 153 50l14 -56c-43 -38 -105 -64 -179 -64zM151 294h245c15 107 -27 162 -95 162c-69 0 -128 -63 -150 -162zM384 -148
c24 0 41 6 65 16l-9 -57c-19 -8 -49 -16 -74 -16c-50 0 -84 30 -76 86c7 53 57 94 105 121h52c-53 -38 -92 -73 -97 -106c-3 -26 15 -44 34 -44z" />
    <glyph glyph-name="Ecaron" unicode="&#x11a;" horiz-adv-x="556" 
d="M511 413l-11 -75h-301l-36 -262h333l-17 -76h-410l102 730h404l-17 -75h-314l-34 -242h301zM272 991h62l53 -152l97 152h63l-114 -189h-100z" />
    <glyph glyph-name="ecaron" unicode="&#x11b;" horiz-adv-x="531" 
d="M244 -12c74 0 136 26 179 64l-14 56c-36 -24 -88 -50 -153 -50c-81 0 -131 70 -115 183h314l5 35c21 150 -35 246 -149 246c-120 -4 -219 -115 -240 -267c-23 -164 42 -267 173 -267zM151 294c22 99 81 162 150 162c68 0 110 -55 95 -162h-245zM233 800h62l53 -152
l97 152h63l-114 -189h-100z" />
    <glyph glyph-name="Gcircumflex" unicode="&#x11c;" horiz-adv-x="699" 
d="M316 802l115 189h100l61 -189h-63l-57 133l-94 -133h-62zM370 -11c87 0 154 18 243 71l44 313h-233l-16 -73h168l-27 -193c-33 -20 -102 -44 -159 -44c-172 0 -226 139 -203 301c22 161 117 306 289 306c66 0 131 -31 163 -63l39 67c-46 45 -112 71 -199 71
c-220 0 -351 -176 -380 -381c-28 -200 55 -375 271 -375z" />
    <glyph glyph-name="gcircumflex" unicode="&#x11d;" horiz-adv-x="569" 
d="M225 611l115 189h100l61 -189h-63l-57 133l-94 -133h-62zM104 -245v74h86c145 0 171 77 190 211l7 47c-37 -50 -82 -87 -154 -87c-135 0 -179 136 -162 253c21 145 101 269 241 269c61 0 99 -29 126 -84l10 71h68l-68 -480c-19 -134 -56 -274 -270 -274h-74zM253 70
c99 0 145 80 158 170l5 37c13 95 -14 176 -109 176c-99 0 -151 -109 -163 -196c-12 -86 15 -187 109 -187z" />
    <glyph glyph-name="Gbreve" unicode="&#x11e;" horiz-adv-x="699" 
d="M455 825c-57 0 -109 42 -97 126h54c-6 -47 18 -69 51 -69s65 22 71 69h55c-12 -84 -77 -126 -134 -126zM370 -11c87 0 154 18 243 71l44 313h-233l-16 -73h168l-27 -193c-33 -20 -102 -44 -159 -44c-172 0 -226 139 -203 301c22 161 117 306 289 306
c66 0 131 -31 163 -63l39 67c-46 45 -112 71 -199 71c-220 0 -351 -176 -380 -381c-28 -200 55 -375 271 -375z" />
    <glyph glyph-name="gbreve" unicode="&#x11f;" horiz-adv-x="569" 
d="M364 634c-57 0 -109 42 -97 126h54c-6 -47 18 -69 51 -69s65 22 71 69h55c-12 -84 -77 -126 -134 -126zM104 -245v74h86c145 0 171 77 190 211l7 47c-37 -50 -82 -87 -154 -87c-135 0 -179 136 -162 253c21 145 101 269 241 269c61 0 99 -29 126 -84l10 71h68l-68 -480
c-19 -134 -56 -274 -270 -274h-74zM253 70c99 0 145 80 158 170l5 37c13 95 -14 176 -109 176c-99 0 -151 -109 -163 -196c-12 -86 15 -187 109 -187z" />
    <glyph glyph-name="Gdotaccent" unicode="&#x120;" horiz-adv-x="699" 
d="M473 923c42 0 57 -32 53 -64s-29 -65 -71 -65c-41 0 -57 33 -53 65s30 64 71 64zM370 -11c87 0 154 18 243 71l44 313h-233l-16 -73h168l-27 -193c-33 -20 -102 -44 -159 -44c-172 0 -226 139 -203 301c22 161 117 306 289 306c66 0 131 -31 163 -63l39 67
c-46 45 -112 71 -199 71c-220 0 -351 -176 -380 -381c-28 -200 55 -375 271 -375z" />
    <glyph glyph-name="gdotaccent" unicode="&#x121;" horiz-adv-x="569" 
d="M376 727c42 0 57 -32 53 -64s-29 -65 -71 -65c-41 0 -57 33 -53 65s30 64 71 64zM104 -245v74h86c145 0 171 77 190 211l7 47c-37 -50 -82 -87 -154 -87c-135 0 -179 136 -162 253c21 145 101 269 241 269c61 0 99 -29 126 -84l10 71h68l-68 -480
c-19 -134 -56 -274 -270 -274h-74zM253 70c99 0 145 80 158 170l5 37c13 95 -14 176 -109 176c-99 0 -151 -109 -163 -196c-12 -86 15 -187 109 -187z" />
    <glyph glyph-name="Gcedilla" unicode="&#x122;" horiz-adv-x="699" 
d="M370 -11c-216 0 -299 175 -271 375c29 205 160 381 380 381c87 0 153 -26 199 -71l-39 -67c-32 32 -97 63 -163 63c-172 0 -267 -145 -289 -306c-23 -162 31 -301 203 -301c57 0 126 24 159 44l27 193h-168l16 73h233l-44 -313c-89 -53 -156 -71 -243 -71zM286 -304
l46 243h81l-70 -243h-57z" />
    <glyph glyph-name="gcedilla" unicode="&#x123;" horiz-adv-x="598" 
d="M451 854l-80 -244h-81l103 244h58zM104 -245v74h86c145 0 171 77 190 211l7 47c-37 -50 -82 -87 -154 -87c-135 0 -179 136 -162 253c21 145 101 269 241 269c61 0 99 -29 126 -84l10 71h68l-68 -480c-19 -134 -56 -274 -270 -274h-74zM253 70c99 0 145 80 158 170l5 37
c13 95 -14 176 -109 176c-99 0 -151 -109 -163 -196c-12 -86 15 -187 109 -187z" />
    <glyph glyph-name="Hcircumflex" unicode="&#x124;" horiz-adv-x="715" 
d="M571 340h-371l-48 -340h-83l102 730h83l-44 -316h371l44 316h83l-102 -730h-83zM324 802l115 189h100l61 -189h-63l-57 133l-94 -133h-62z" />
    <glyph glyph-name="hcircumflex" unicode="&#x125;" horiz-adv-x="543" 
d="M121 0l49 345c18 48 84 107 156 107c78 0 85 -54 69 -168l-41 -284h70l44 309c19 134 -14 213 -110 213c-70 0 -129 -30 -175 -84l42 299l-72 -11l-102 -726h70zM212 611l115 189h100l61 -189h-63l-57 133l-94 -133h-62z" />
    <glyph glyph-name="Hbar" unicode="&#x126;" horiz-adv-x="669" 
d="M569 340h-371l-48 -340h-83l79 560h-41l8 51h40l17 119h83l-17 -119h371l17 119h83l-17 -119h41l-7 -51h-41l-79 -560h-83zM229 560l-20 -146h371l20 146h-371z" />
    <glyph glyph-name="hbar" unicode="&#x127;" horiz-adv-x="526" 
d="M170 345l-49 -345h-70l87 620h-42l8 57h42l7 49l72 11l-9 -60h111l-8 -57h-111l-25 -182c46 54 105 84 175 84c96 0 129 -79 110 -213l-44 -309h-70l41 284c16 114 9 168 -69 168c-72 0 -138 -59 -156 -107z" />
    <glyph glyph-name="Itilde" unicode="&#x128;" horiz-adv-x="248" 
d="M262 730l-103 -730h-83l103 730h83zM136 821h-50c10 73 44 107 93 107c57 0 111 -46 128 -46h1c19 1 24 25 28 46h50c-9 -67 -35 -107 -83 -107c-41 0 -99 48 -135 48h-1c-15 0 -26 -21 -31 -48z" />
    <glyph glyph-name="itilde" unicode="&#x129;" horiz-adv-x="209" 
d="M203 509l-72 -509h-70l71 509h71zM89 630h-50c10 73 44 107 93 107c57 0 111 -46 128 -46h1c19 1 24 25 28 46h50c-9 -67 -35 -107 -83 -107c-41 0 -99 48 -135 48h-1c-15 0 -26 -21 -31 -48z" />
    <glyph glyph-name="Imacron" unicode="&#x12a;" horiz-adv-x="248" 
d="M262 730l-103 -730h-83l103 730h83zM273 813h-245v70h245v-70z" />
    <glyph glyph-name="imacron" unicode="&#x12b;" horiz-adv-x="209" 
d="M203 509l-72 -509h-70l71 509h71zM227 622h-245v70h245v-70z" />
    <glyph glyph-name="Ibreve" unicode="&#x12c;" horiz-adv-x="248" 
d="M230 825c-57 0 -109 42 -97 126h54c-6 -47 18 -69 51 -69s65 22 71 69h55c-12 -84 -77 -126 -134 -126zM262 730l-103 -730h-83l103 730h83z" />
    <glyph glyph-name="ibreve" unicode="&#x12d;" horiz-adv-x="209" 
d="M184 634c-57 0 -109 42 -97 126h54c-6 -47 18 -69 51 -69s65 22 71 69h55c-12 -84 -77 -126 -134 -126zM203 509l-72 -509h-70l71 509h71z" />
    <glyph glyph-name="Iogonek" unicode="&#x12e;" horiz-adv-x="248" 
d="M128 -148c24 0 41 6 65 16l-9 -57c-19 -8 -49 -16 -74 -16c-50 0 -84 30 -76 86c7 52 54 92 101 119h-59l103 730h83l-103 -728h32c-53 -38 -92 -73 -97 -106c-3 -26 15 -44 34 -44z" />
    <glyph glyph-name="iogonek" unicode="&#x12f;" horiz-adv-x="216" 
d="M53 -147c24 0 41 6 65 16l-9 -57c-19 -8 -49 -16 -74 -16c-50 0 -84 30 -76 86c7 53 57 94 105 121h7l75 533h71l-76 -536h-30c-51 -37 -87 -71 -92 -103c-3 -26 15 -44 34 -44zM244 730l-14 -96h-70l14 96h70z" />
    <glyph glyph-name="Idotaccent" unicode="&#x130;" horiz-adv-x="248" 
d="M262 730l-103 -730h-83l103 730h83zM241 902c42 0 57 -32 53 -64s-29 -65 -71 -65c-41 0 -57 33 -53 65s30 64 71 64z" />
    <glyph glyph-name="dotlessi" unicode="&#x131;" horiz-adv-x="189" 
d="M203 509l-72 -509h-70l71 509h71z" />
    <glyph glyph-name="IJ" unicode="&#x132;" horiz-adv-x="670" 
d="M547 200l79 560h82l-75 -535c-22 -160 -48 -239 -227 -239h-15l11 82h24c98 2 110 55 121 132zM263 760l-106 -760h-84l107 760h83z" />
    <glyph glyph-name="ij" unicode="&#x133;" horiz-adv-x="419" 
d="M421 536l-63 -448c-22 -159 -40 -217 -189 -238l-3 -1l12 82h3c85 12 92 55 103 131l67 474h70zM216 536l-75 -536h-72l76 536h71zM247 760l-13 -96h-71l13 96h71zM453 760l-14 -96h-70l13 96h71z" />
    <glyph glyph-name="Jcircumflex" unicode="&#x134;" horiz-adv-x="268" 
d="M114 88l91 642h83l-86 -612c-21 -150 -48 -222 -210 -222h-16v69h34c83 0 94 51 104 123zM101 802l115 189h100l61 -189h-63l-57 133l-94 -133h-62z" />
    <glyph glyph-name="jcircumflex" unicode="&#x135;" horiz-adv-x="216" 
d="M208 509l-83 -583c-18 -126 -49 -171 -163 -171h-22l1 74h22c76 0 83 30 94 108l80 572h71zM48 611l115 189h100l61 -189h-63l-57 133l-94 -133h-62z" />
    <glyph glyph-name="Kcommaaccent" unicode="&#x136;" horiz-adv-x="599" 
d="M324 390l259 -390h-105l-225 343l-60 -49l-42 -294h-83l103 730h83l-50 -354l340 354h109zM285 -293l46 243h81l-70 -243h-57z" />
    <glyph glyph-name="kcommaaccent" unicode="&#x137;" horiz-adv-x="491" 
d="M153 728l72 9l-60 -428l236 227h96l-228 -223l166 -313h-90l-136 275l-56 -50l-32 -225h-70zM221 -293l46 243h81l-70 -243h-57z" />
    <glyph glyph-name="kgreenlandic" unicode="&#x138;" horiz-adv-x="470" 
d="M349 0l-187 247l-35 -247h-61l76 540h61l-35 -247l237 247h86l-258 -271c70 -89 138 -180 195 -269h-79z" />
    <glyph glyph-name="Lacute" unicode="&#x139;" horiz-adv-x="468" 
d="M469 991l-179 -190h-53l114 190h118zM172 730h83l-92 -654h298l-16 -76h-376z" />
    <glyph glyph-name="lacute" unicode="&#x13a;" horiz-adv-x="269" 
d="M343 800l-113 -120l-66 -470c-17 -117 -18 -153 29 -153c10 0 16 1 38 3l-4 -64c-24 -5 -42 -6 -49 -6c-113 0 -107 61 -82 239l54 381h-39l51 85l5 33l16 2l42 70h118z" />
    <glyph glyph-name="Lcommaaccent" unicode="&#x13b;" horiz-adv-x="468" 
d="M172 730h83l-92 -654h298l-16 -76h-376zM214 -293l46 243h81l-70 -243h-57z" />
    <glyph glyph-name="lcommaaccent" unicode="&#x13c;" horiz-adv-x="269" 
d="M238 737l-74 -527c-17 -117 -18 -153 29 -153c10 0 16 1 38 3l-4 -64c-24 -5 -42 -6 -49 -6c-113 0 -107 61 -82 239l71 499zM122 -293l46 243h81l-70 -243h-57z" />
    <glyph glyph-name="Lcaron" unicode="&#x13d;" horiz-adv-x="468" 
d="M172 730h83l-92 -654h298l-16 -76h-376zM536 744l-95 -255h-50l45 255h100z" />
    <glyph glyph-name="lcaron" unicode="&#x13e;" horiz-adv-x="269" 
d="M238 737l-74 -527c-17 -117 -18 -153 29 -153c10 0 16 1 38 3l-4 -64c-24 -5 -42 -6 -49 -6c-113 0 -107 61 -82 239l71 499zM432 715l-95 -255h-50l45 255h100z" />
    <glyph glyph-name="Ldotaccent" unicode="&#x13f;" horiz-adv-x="468" 
d="M172 730h83l-92 -654h298l-16 -76h-376zM349 435c43 0 64 -32 64 -64s-21 -64 -64 -64s-65 32 -65 64s22 64 65 64z" />
    <glyph glyph-name="ldot" unicode="&#x140;" horiz-adv-x="269" 
d="M238 737l-74 -527c-17 -117 -18 -153 29 -153c10 0 16 1 38 3l-4 -64c-24 -5 -42 -6 -49 -6c-113 0 -107 61 -82 239l71 499zM403 387c43 0 64 -32 64 -64s-21 -64 -64 -64s-65 32 -65 64s22 64 65 64z" />
    <glyph glyph-name="Lslash" unicode="&#x141;" horiz-adv-x="468" 
d="M172 730h83l-44 -312l170 92l-10 -76l-171 -90l-37 -268h298l-16 -76h-376l42 296l-75 -39l10 73l75 40z" />
    <glyph glyph-name="lslash" unicode="&#x142;" horiz-adv-x="274" 
d="M238 737l-45 -318l77 62l-10 -71l-77 -62l-19 -138c-17 -117 -18 -153 29 -153c10 0 16 1 38 3l-4 -64c-24 -5 -42 -6 -49 -6c-113 0 -107 61 -82 239l8 54l-58 -46l10 71l58 47l53 373z" />
    <glyph glyph-name="Nacute" unicode="&#x143;" horiz-adv-x="726" 
d="M598 991l-179 -190h-53l114 190h118zM616 0h-92l-292 605l-85 -605h-78l102 730h91l295 -606l85 606h77z" />
    <glyph glyph-name="nacute" unicode="&#x144;" horiz-adv-x="544" 
d="M481 800l-179 -190h-53l114 190h118zM353 522c101 0 134 -74 114 -217l-43 -305h-70l36 254c19 131 24 198 -61 198c-77 0 -141 -61 -159 -106l-49 -346h-70l54 385l16 124h61l-5 -78c43 56 113 91 176 91z" />
    <glyph glyph-name="Ncommaaccent" unicode="&#x145;" horiz-adv-x="726" 
d="M304 -293l46 243h81l-70 -243h-57zM616 0h-92l-292 605l-85 -605h-78l102 730h91l295 -606l85 606h77z" />
    <glyph glyph-name="ncommaaccent" unicode="&#x146;" horiz-adv-x="544" 
d="M216 -293l46 243h81l-70 -243h-57zM353 522c101 0 134 -74 114 -217l-43 -305h-70l36 254c19 131 24 198 -61 198c-77 0 -141 -61 -159 -106l-49 -346h-70l54 385l16 124h61l-5 -78c43 56 113 91 176 91z" />
    <glyph glyph-name="Ncaron" unicode="&#x147;" horiz-adv-x="726" 
d="M357 991h62l53 -152l97 152h63l-114 -189h-100zM616 0h-92l-292 605l-85 -605h-78l102 730h91l295 -606l85 606h77z" />
    <glyph glyph-name="ncaron" unicode="&#x148;" horiz-adv-x="544" 
d="M239 800h62l53 -152l97 152h63l-114 -189h-100zM353 522c101 0 134 -74 114 -217l-43 -305h-70l36 254c19 131 24 198 -61 198c-77 0 -141 -61 -159 -106l-49 -346h-70l54 385l16 124h61l-5 -78c43 56 113 91 176 91z" />
    <glyph glyph-name="Eng" unicode="&#x14a;" horiz-adv-x="650" 
d="M364 -160c-13 0 -36 1 -91 7v72c61 -4 70 -4 80 -4c126 0 141 35 160 168l57 407c18 130 -9 173 -107 173c-99 0 -184 -61 -237 -131l-75 -532h-83l102 730h75l-6 -103c96 96 181 115 261 115c124 0 176 -87 153 -249l-58 -412c-21 -150 -65 -241 -231 -241z" />
    <glyph glyph-name="eng" unicode="&#x14b;" horiz-adv-x="475" 
d="M243 -138l5 69h18c73 0 83 14 97 114l29 207c19 132 23 200 -62 200c-77 0 -141 -61 -159 -107l-48 -348h-71l55 388l16 124h61l-5 -78c43 57 111 91 174 91c102 0 137 -74 116 -219l-33 -234c-20 -144 -39 -207 -164 -207h-29z" />
    <glyph glyph-name="Omacron" unicode="&#x14c;" horiz-adv-x="811" 
d="M555 813h-245v70h245v-70zM474 670c-164 0 -263 -122 -289 -306c-23 -168 33 -301 204 -301s264 133 287 301c25 182 -38 306 -202 306zM378 -11c-220 0 -311 161 -281 375c32 227 175 381 387 381s313 -154 281 -381c-30 -214 -168 -375 -387 -375z" />
    <glyph glyph-name="omacron" unicode="&#x14d;" horiz-adv-x="577" 
d="M412 622h-245v70h245v-70zM425 254c15 106 -7 201 -111 201c-99 0 -157 -100 -172 -203c-14 -101 16 -197 117 -197c99 0 151 96 166 199zM498 255c-20 -141 -112 -267 -250 -267c-139 0 -200 120 -179 266s116 268 255 268c141 0 195 -120 174 -267z" />
    <glyph glyph-name="Obreve" unicode="&#x14e;" horiz-adv-x="811" 
d="M512 825c-57 0 -109 42 -97 126h54c-6 -47 18 -69 51 -69s65 22 71 69h55c-12 -84 -77 -126 -134 -126zM475 670c-164 0 -263 -122 -289 -306c-23 -168 33 -301 204 -301s264 133 287 301c25 182 -38 306 -202 306zM379 -11c-220 0 -311 161 -281 375
c32 227 175 381 387 381s313 -154 281 -381c-30 -214 -168 -375 -387 -375z" />
    <glyph glyph-name="obreve" unicode="&#x14f;" horiz-adv-x="577" 
d="M368 634c-57 0 -109 42 -97 126h54c-6 -47 18 -69 51 -69s65 22 71 69h55c-12 -84 -77 -126 -134 -126zM426 254c15 106 -7 201 -111 201c-99 0 -157 -100 -172 -203c-14 -101 16 -197 117 -197c99 0 151 96 166 199zM499 255c-20 -141 -112 -267 -250 -267
c-139 0 -200 120 -179 266s116 268 255 268c141 0 195 -120 174 -267z" />
    <glyph glyph-name="Ohungarumlaut" unicode="&#x150;" horiz-adv-x="811" 
d="M671 969l-141 -163h-47l118 163h70zM561 969l-141 -163h-47l116 163h72zM475 670c-164 0 -263 -122 -289 -306c-23 -168 33 -301 204 -301s264 133 287 301c25 182 -38 306 -202 306zM379 -11c-220 0 -311 161 -281 375c32 227 175 381 387 381s313 -154 281 -381
c-30 -214 -168 -375 -387 -375z" />
    <glyph glyph-name="ohungarumlaut" unicode="&#x151;" horiz-adv-x="577" 
d="M528 778l-141 -163h-47l118 163h70zM418 778l-141 -163h-47l116 163h72zM426 254c15 106 -7 201 -111 201c-99 0 -157 -100 -172 -203c-14 -101 16 -197 117 -197c99 0 151 96 166 199zM499 255c-20 -141 -112 -267 -250 -267c-139 0 -200 120 -179 266s116 268 255 268
c141 0 195 -120 174 -267z" />
    <glyph glyph-name="OE" unicode="&#x152;" horiz-adv-x="904" 
d="M612 615c-31 31 -80 55 -143 55c-147 0 -253 -123 -280 -293c-24 -173 21 -312 198 -314c59 0 130 31 154 45zM471 744c67 0 122 -22 152 -54l5 40h332l-18 -75h-241l-34 -242h225l-11 -75h-225l-37 -262h260l-17 -76h-337l6 40c-23 -22 -103 -51 -156 -51
c-217 0 -307 157 -275 387c35 213 187 368 371 368z" />
    <glyph glyph-name="oe" unicode="&#x153;" horiz-adv-x="806" 
d="M597 -12c-81 0 -137 41 -161 112c-43 -67 -107 -112 -189 -112c-139 0 -196 120 -175 266s112 268 251 268c84 0 135 -45 158 -112c43 67 114 110 186 112c114 0 162 -96 141 -246c-1 -7 -5 -26 -6 -35h-309c-16 -113 35 -183 116 -183c65 0 112 26 148 50l13 -56
c-43 -38 -99 -64 -173 -64zM503 293h241c15 107 -22 163 -90 163c-70 0 -129 -64 -151 -163zM257 55c99 0 152 96 167 199c15 106 -8 201 -112 201c-99 0 -152 -100 -167 -203c-14 -101 11 -197 112 -197z" />
    <glyph glyph-name="Racute" unicode="&#x154;" horiz-adv-x="625" 
d="M244 655l-35 -244l162 -2c123 -1 164 42 176 129c11 76 -19 117 -123 117h-180zM585 0h-93l-61 227c-12 43 -22 84 -33 109c-13 -1 -63 -2 -79 -2c-9 0 -120 4 -120 4l-47 -338h-83l102 730h218c164 0 263 -25 240 -190c-13 -90 -64 -161 -157 -186c-1 0 26 -62 37 -99z
M548 991l-179 -190h-53l114 190h118z" />
    <glyph glyph-name="racute" unicode="&#x155;" horiz-adv-x="323" 
d="M55 0h70l42 296c11 75 63 139 148 139h17l5 74h-13c-54 0 -104 -24 -146 -92l7 92h-60c-5 -39 -9 -76 -15 -117zM370 800l-179 -190h-53l114 190h118z" />
    <glyph glyph-name="Rcommaaccent" unicode="&#x156;" horiz-adv-x="625" 
d="M244 655l-35 -244l162 -2c123 -1 164 42 176 129c11 76 -19 117 -123 117h-180zM585 0h-93l-61 227c-12 43 -22 84 -33 109c-13 -1 -63 -2 -79 -2c-9 0 -120 4 -120 4l-47 -338h-83l102 730h218c164 0 263 -25 240 -190c-13 -90 -64 -161 -157 -186c-1 0 26 -62 37 -99z
M286 -293l46 243h81l-70 -243h-57z" />
    <glyph glyph-name="rcommaaccent" unicode="&#x157;" horiz-adv-x="323" 
d="M125 0h-70l55 392c6 41 10 78 15 117h60l-7 -92c42 68 92 92 146 92h13l-5 -74h-17c-85 0 -137 -64 -148 -139zM130 -293l46 243h81l-70 -243h-57z" />
    <glyph glyph-name="Rcaron" unicode="&#x158;" horiz-adv-x="625" 
d="M307 991h62l53 -152l97 152h63l-114 -189h-100zM244 655l-35 -244l162 -2c123 -1 164 42 176 129c11 76 -19 117 -123 117h-180zM585 0h-93l-61 227c-12 43 -22 84 -33 109c-13 -1 -63 -2 -79 -2c-9 0 -120 4 -120 4l-47 -338h-83l102 730h218c164 0 263 -25 240 -190
c-13 -90 -64 -161 -157 -186c-1 0 26 -62 37 -99z" />
    <glyph glyph-name="rcaron" unicode="&#x159;" horiz-adv-x="323" 
d="M129 800h62l53 -152l97 152h63l-114 -189h-100zM55 0h70l42 296c11 75 63 139 148 139h17l5 74h-13c-54 0 -104 -24 -146 -92l7 92h-60c-5 -39 -9 -76 -15 -117z" />
    <glyph glyph-name="Sacute" unicode="&#x15a;" horiz-adv-x="605" 
d="M538 991l-179 -190h-53l114 190h118zM85 119l-34 -70c38 -27 119 -60 238 -60c141 0 246 70 267 222c17 119 -40 172 -139 198l-124 33c-63 17 -95 48 -87 105c12 84 74 123 182 123c74 0 143 -25 176 -46l34 68c-42 31 -114 53 -198 53c-150 0 -259 -61 -279 -203
c-14 -97 38 -151 129 -176l130 -36c83 -23 100 -63 92 -122c-14 -99 -72 -145 -169 -145c-87 0 -161 24 -218 56z" />
    <glyph glyph-name="sacute" unicode="&#x15b;" horiz-adv-x="443" 
d="M431 800l-179 -190h-53l114 190h118zM379 136v2c12 84 -23 128 -95 150l-60 19c-47 14 -60 38 -56 69c7 52 49 81 100 81c50 0 90 -16 113 -27l25 57c-32 21 -76 35 -135 35c-103 -1 -163 -72 -173 -145c-8 -62 12 -111 101 -139l57 -19c49 -16 63 -45 59 -77
c0 -2 -1 -4 -1 -6c-12 -52 -49 -80 -101 -80h-7c-62 0 -109 30 -125 42l-26 -60c24 -24 82 -50 152 -50c87 0 155 52 172 148z" />
    <glyph glyph-name="Scircumflex" unicode="&#x15c;" horiz-adv-x="605" 
d="M270 802l115 189h100l61 -189h-63l-57 133l-94 -133h-62zM85 119l-34 -70c38 -27 119 -60 238 -60c141 0 246 70 267 222c17 119 -40 172 -139 198l-124 33c-63 17 -95 48 -87 105c12 84 74 123 182 123c74 0 143 -25 176 -46l34 68c-42 31 -114 53 -198 53
c-150 0 -259 -61 -279 -203c-14 -97 38 -151 129 -176l130 -36c83 -23 100 -63 92 -122c-14 -99 -72 -145 -169 -145c-87 0 -161 24 -218 56z" />
    <glyph glyph-name="scircumflex" unicode="&#x15d;" horiz-adv-x="443" 
d="M162 611l115 189h100l61 -189h-63l-57 133l-94 -133h-62zM379 136v2c12 84 -23 128 -95 150l-60 19c-47 14 -60 38 -56 69c7 52 49 81 100 81c50 0 90 -16 113 -27l25 57c-32 21 -76 35 -135 35c-103 -1 -163 -72 -173 -145c-8 -62 12 -111 101 -139l57 -19
c49 -16 63 -45 59 -77c0 -2 -1 -4 -1 -6c-12 -52 -49 -80 -101 -80h-7c-62 0 -109 30 -125 42l-26 -60c24 -24 82 -50 152 -50c87 0 155 52 172 148z" />
    <glyph glyph-name="Scedilla" unicode="&#x15e;" horiz-adv-x="605" 
d="M51 49l34 70c57 -32 131 -56 218 -56c97 0 155 46 169 145c8 59 -9 99 -92 122l-130 36c-91 25 -143 79 -129 176c20 142 129 203 279 203c84 0 156 -22 198 -53l-34 -68c-33 21 -102 46 -176 46c-108 0 -170 -39 -182 -123c-8 -57 24 -88 87 -105l124 -33
c99 -26 156 -79 139 -198c-21 -149 -121 -218 -257 -222l5 19h-41l-5 -18c-102 5 -173 34 -207 59zM184 -197l10 45c22 -7 43 -13 60 -13c35 0 48 15 51 38c4 28 -14 39 -40 39c-1 0 -8 -1 -15 -1l-13 -1l21 80c10 0 20 -1 31 -1h10l-10 -36h4c43 0 78 -24 71 -78
c-8 -56 -54 -83 -110 -83c-21 0 -46 5 -70 11z" />
    <glyph glyph-name="scedilla" unicode="&#x15f;" horiz-adv-x="443" 
d="M379 138v-2c-17 -92 -80 -143 -162 -147l6 19h-41l-5 -18c-56 6 -102 27 -122 48l26 60c16 -12 63 -42 125 -42h7c52 0 89 28 101 80c0 2 1 4 1 6c4 32 -10 61 -59 77l-57 19c-89 28 -109 77 -101 139c10 73 70 144 173 145c59 0 103 -14 135 -35l-25 -57
c-23 11 -63 27 -113 27c-51 0 -93 -29 -100 -81c-4 -31 9 -55 56 -69l60 -19c72 -22 107 -66 95 -150zM103 -197l10 45c22 -7 43 -13 60 -13c35 0 48 15 51 38c4 28 -14 39 -40 39c-1 0 -8 -1 -15 -1l-13 -1l21 80c9 -1 19 -2 30 -2c3 0 7 1 10 1l-9 -36h4
c43 0 78 -24 71 -78c-8 -56 -54 -83 -110 -83c-21 0 -46 5 -70 11z" />
    <glyph glyph-name="Scaron" unicode="&#x160;" horiz-adv-x="605" 
d="M297 991h62l53 -152l97 152h63l-114 -189h-100zM85 119l-34 -70c38 -27 119 -60 238 -60c141 0 246 70 267 222c17 119 -40 172 -139 198l-124 33c-63 17 -95 48 -87 105c12 84 74 123 182 123c74 0 143 -25 176 -46l34 68c-42 31 -114 53 -198 53
c-150 0 -259 -61 -279 -203c-14 -97 38 -151 129 -176l130 -36c83 -23 100 -63 92 -122c-14 -99 -72 -145 -169 -145c-87 0 -161 24 -218 56z" />
    <glyph glyph-name="scaron" unicode="&#x161;" horiz-adv-x="443" 
d="M189 800h62l53 -152l97 152h63l-114 -189h-100zM379 136v2c12 84 -23 128 -95 150l-60 19c-47 14 -60 38 -56 69c7 52 49 81 100 81c50 0 90 -16 113 -27l25 57c-32 21 -76 35 -135 35c-103 -1 -163 -72 -173 -145c-8 -62 12 -111 101 -139l57 -19c49 -16 63 -45 59 -77
c0 -2 -1 -4 -1 -6c-12 -52 -49 -80 -101 -80h-7c-62 0 -109 30 -125 42l-26 -60c24 -24 82 -50 152 -50c87 0 155 52 172 148z" />
    <glyph glyph-name="Tcaron" unicode="&#x164;" horiz-adv-x="500" 
d="M91 655l10 75h490l-11 -75h-204l-91 -655h-83l91 655h-202zM244 991h62l53 -152l97 152h63l-114 -189h-100z" />
    <glyph glyph-name="tcaron" unicode="&#x165;" horiz-adv-x="327" 
d="M214 452l-39 -281c-13 -94 -6 -113 50 -113c8 0 24 1 57 4l-3 -65c-53 -5 -66 -7 -80 -7c-112 0 -111 61 -90 215l35 247h-70l13 57h65l46 200l53 5l-29 -205h122l-9 -57h-121zM607 715l-95 -255h-50l45 255h100z" />
    <glyph glyph-name="Tbar" unicode="&#x166;" horiz-adv-x="512" 
d="M91 655l10 75h490l-11 -75h-204l-47 -336h66l-9 -60h-65l-36 -259h-83l36 259h-85l8 60h85l47 336h-202z" />
    <glyph glyph-name="tbar" unicode="&#x167;" horiz-adv-x="317" 
d="M214 452l-11 -79h87l-9 -61h-87l-19 -141c-13 -94 -6 -113 50 -113c8 0 24 1 57 4l-3 -65c-53 -5 -66 -7 -80 -7c-112 0 -111 61 -90 215l15 107h-64l8 61h64l12 79h-70l13 57h65l46 200l53 5l-29 -205h122l-9 -57h-121z" />
    <glyph glyph-name="Utilde" unicode="&#x168;" horiz-adv-x="676" 
d="M350 821h-50c10 73 44 107 93 107c57 0 111 -46 128 -46h1c19 1 24 25 28 46h50c-9 -67 -35 -107 -83 -107c-41 0 -99 48 -135 48h-1c-15 0 -26 -21 -31 -48zM315 -11c-200 0 -242 109 -220 266l67 475h83l-66 -472c-20 -143 24 -197 147 -197c122 0 182 54 202 197
l66 472h83l-67 -475c-22 -157 -95 -266 -295 -266z" />
    <glyph glyph-name="utilde" unicode="&#x169;" horiz-adv-x="536" 
d="M254 630h-50c10 73 44 107 93 107c57 0 111 -46 128 -46h1c19 1 24 25 28 46h50c-9 -67 -35 -107 -83 -107c-41 0 -99 48 -135 48h-1c-15 0 -26 -21 -31 -48zM72 169l48 340h70l-47 -338c-13 -91 32 -116 98 -116c65 0 117 26 130 116l47 338h70l-48 -340
c-19 -134 -112 -181 -209 -181s-178 48 -159 181z" />
    <glyph glyph-name="Umacron" unicode="&#x16a;" horiz-adv-x="676" 
d="M487 813h-245v70h245v-70zM314 -11c-200 0 -242 109 -220 266l67 475h83l-66 -472c-20 -143 24 -197 147 -197c122 0 182 54 202 197l66 472h83l-67 -475c-22 -157 -95 -266 -295 -266z" />
    <glyph glyph-name="umacron" unicode="&#x16b;" horiz-adv-x="536" 
d="M391 622h-245v70h245v-70zM71 169l48 340h70l-47 -338c-13 -91 32 -116 98 -116c65 0 117 26 130 116l47 338h70l-48 -340c-19 -134 -112 -181 -209 -181s-178 48 -159 181z" />
    <glyph glyph-name="Ubreve" unicode="&#x16c;" horiz-adv-x="676" 
d="M444 825c-57 0 -109 42 -97 126h54c-6 -47 18 -69 51 -69s65 22 71 69h55c-12 -84 -77 -126 -134 -126zM315 -11c-200 0 -242 109 -220 266l67 475h83l-66 -472c-20 -143 24 -197 147 -197c122 0 182 54 202 197l66 472h83l-67 -475c-22 -157 -95 -266 -295 -266z" />
    <glyph glyph-name="ubreve" unicode="&#x16d;" horiz-adv-x="536" 
d="M347 634c-57 0 -109 42 -97 126h54c-6 -47 18 -69 51 -69s65 22 71 69h55c-12 -84 -77 -126 -134 -126zM72 169l48 340h70l-47 -338c-13 -91 32 -116 98 -116c65 0 117 26 130 116l47 338h70l-48 -340c-19 -134 -112 -181 -209 -181s-178 48 -159 181z" />
    <glyph glyph-name="Uring" unicode="&#x16e;" horiz-adv-x="676" 
d="M470 991c48 0 84 -41 76 -96c-8 -56 -55 -90 -101 -90c-48 0 -86 34 -78 90c8 58 57 96 103 96zM449 840c23 0 47 25 51 55s-11 56 -36 56c-23 0 -48 -26 -52 -56c-4 -33 9 -55 37 -55zM315 -11c-200 0 -242 109 -220 266l67 475h83l-66 -472c-20 -143 24 -197 147 -197
c122 0 182 54 202 197l66 472h83l-67 -475c-22 -157 -95 -266 -295 -266z" />
    <glyph glyph-name="uring" unicode="&#x16f;" horiz-adv-x="536" 
d="M373 800c48 0 84 -41 76 -96c-8 -56 -55 -90 -101 -90c-48 0 -86 34 -78 90c8 58 57 96 103 96zM352 649c23 0 47 25 51 55s-11 56 -36 56c-23 0 -48 -26 -52 -56c-4 -33 9 -55 37 -55zM72 169l48 340h70l-47 -338c-13 -91 32 -116 98 -116c65 0 117 26 130 116l47 338
h70l-48 -340c-19 -134 -112 -181 -209 -181s-178 48 -159 181z" />
    <glyph glyph-name="Uhungarumlaut" unicode="&#x170;" horiz-adv-x="676" 
d="M604 969l-141 -163h-47l118 163h70zM494 969l-141 -163h-47l116 163h72zM315 -11c-200 0 -242 109 -220 266l67 475h83l-66 -472c-20 -143 24 -197 147 -197c122 0 182 54 202 197l66 472h83l-67 -475c-22 -157 -95 -266 -295 -266z" />
    <glyph glyph-name="uhungarumlaut" unicode="&#x171;" horiz-adv-x="536" 
d="M507 778l-141 -163h-47l118 163h70zM397 778l-141 -163h-47l116 163h72zM72 169l48 340h70l-47 -338c-13 -91 32 -116 98 -116c65 0 117 26 130 116l47 338h70l-48 -340c-19 -134 -112 -181 -209 -181s-178 48 -159 181z" />
    <glyph glyph-name="Uogonek" unicode="&#x172;" horiz-adv-x="676" 
d="M513 -148c24 0 41 6 65 16l-9 -57c-19 -8 -49 -16 -74 -16c-50 0 -84 30 -76 86c7 53 57 94 105 121h52c-53 -38 -92 -73 -97 -106c-3 -26 15 -44 34 -44zM315 -11c-200 0 -242 109 -220 266l67 475h83l-66 -472c-20 -143 24 -197 147 -197c122 0 182 54 202 197l66 472
h83l-67 -475c-22 -157 -95 -266 -295 -266z" />
    <glyph glyph-name="uogonek" unicode="&#x173;" horiz-adv-x="536" 
d="M387 -148c24 0 41 6 65 16l-9 -57c-19 -8 -49 -16 -74 -16c-50 0 -84 30 -76 86c7 53 57 94 105 121h52c-53 -38 -92 -73 -97 -106c-3 -26 15 -44 34 -44zM72 169l48 340h70l-47 -338c-13 -91 32 -116 98 -116c65 0 117 26 130 116l47 338h70l-48 -340
c-19 -134 -112 -181 -209 -181s-178 48 -159 181z" />
    <glyph glyph-name="Wcircumflex" unicode="&#x174;" horiz-adv-x="1040" 
d="M487 802l115 189h100l61 -189h-63l-57 133l-94 -133h-62zM715 95l287 635h85l-337 -730h-96l-75 598l-266 -598h-95l-128 730h86l106 -634l262 608h96z" />
    <glyph glyph-name="wcircumflex" unicode="&#x175;" horiz-adv-x="780" 
d="M330 611l115 189h100l61 -189h-63l-57 133l-94 -133h-62zM78 509h73l45 -405l178 405h82l60 -404l156 404h71l-210 -509h-69l-61 431l-189 -431h-70z" />
    <glyph glyph-name="Ycircumflex" unicode="&#x176;" horiz-adv-x="606" 
d="M270 802l115 189h100l61 -189h-63l-57 133l-94 -133h-62zM672 730l-316 -430l-42 -300h-83l43 300l-172 430h86l144 -350l251 350h89z" />
    <glyph glyph-name="ycircumflex" unicode="&#x177;" horiz-adv-x="483" 
d="M182 611l115 189h100l61 -189h-63l-57 133l-94 -133h-62zM147 509h-74l108 -505c-70 -158 -87 -175 -186 -175h-12l-3 -74h23c130 0 185 89 241 214l243 540h-74s-126 -294 -180 -418z" />
    <glyph glyph-name="Ydieresis" unicode="&#x178;" horiz-adv-x="606" 
d="M352 803h-71l14 104h72zM533 803h-73l14 104h73zM672 730l-316 -430l-42 -300h-83l43 300l-172 430h86l144 -350l251 350h89z" />
    <glyph glyph-name="Zacute" unicode="&#x179;" horiz-adv-x="585" 
d="M528 991l-179 -190h-53l114 190h118zM629 730l-8 -60l-466 -594h379l-16 -76h-476l10 68l460 587h-362l11 75h468z" />
    <glyph glyph-name="zacute" unicode="&#x17a;" horiz-adv-x="432" 
d="M425 800l-179 -190h-53l114 190h118zM47 64l-9 -64h308l8 63h-229l275 384l9 62h-302l-8 -62h221z" />
    <glyph glyph-name="Zdotaccent" unicode="&#x17b;" horiz-adv-x="585" 
d="M430 923c42 0 57 -32 53 -64s-29 -65 -71 -65c-41 0 -57 33 -53 65s30 64 71 64zM629 730l-8 -60l-466 -594h379l-16 -76h-476l10 68l460 587h-362l11 75h468z" />
    <glyph glyph-name="zdotaccent" unicode="&#x17c;" horiz-adv-x="432" 
d="M318 727c42 0 57 -32 53 -64s-29 -65 -71 -65c-41 0 -57 33 -53 65s30 64 71 64zM47 64l-9 -64h308l8 63h-229l275 384l9 62h-302l-8 -62h221z" />
    <glyph glyph-name="Zcaron" unicode="&#x17d;" horiz-adv-x="585" 
d="M287 991h62l53 -152l97 152h63l-114 -189h-100zM629 730l-8 -60l-466 -594h379l-16 -76h-476l10 68l460 587h-362l11 75h468z" />
    <glyph glyph-name="zcaron" unicode="&#x17e;" horiz-adv-x="432" 
d="M184 800h62l53 -152l97 152h63l-114 -189h-100zM47 64l-9 -64h308l8 63h-229l275 384l9 62h-302l-8 -62h221z" />
    <glyph glyph-name="uni018F" unicode="&#x18f;" horiz-adv-x="652" 
d="M301 -11c-205 0 -254 176 -240 324c3 22 13 66 13 66h494c18 151 -29 291 -204 291c-71 0 -128 -28 -178 -60l-22 66c65 46 123 69 217 69c214 0 304 -168 275 -375c-31 -219 -176 -381 -355 -381zM555 308h-412c-8 -104 7 -245 169 -245c120 0 209 108 243 245z" />
    <glyph glyph-name="florin" unicode="&#x192;" horiz-adv-x="411" 
d="M232 422h-66l15 74h72l20 79c24 94 70 180 161 180c16 0 35 -4 52 -10l-14 -77c-14 8 -27 12 -39 12c-43 0 -61 -29 -75 -81l-31 -103h78l-15 -74h-82l-106 -359c-38 -125 -81 -238 -176 -238c-10 0 -23 4 -37 9l15 72c11 -5 19 -9 27 -9c36 0 58 49 76 106
c45 134 83 281 125 419z" />
    <glyph glyph-name="uni01C4" unicode="&#x1c4;" horiz-adv-x="1329" 
d="M1030 991h62l53 -152l97 152h63l-114 -189h-100zM1372 730l-8 -60l-466 -594h379l-16 -76h-476l10 68l460 587h-362l11 75h468zM244 655l-81 -579h143c166 0 278 93 304 282c32 230 -82 297 -268 297h-98zM69 0l102 730h171c237 0 397 -88 357 -370
c-34 -243 -197 -360 -413 -360h-217z" />
    <glyph glyph-name="uni01C5" unicode="&#x1c5;" horiz-adv-x="1175" 
d="M927 800h62l53 -152l97 152h63l-114 -189h-100zM790 64l-9 -64h308l8 63h-229l275 384l9 62h-302l-8 -62h221zM244 655l-81 -579h143c166 0 278 93 304 282c32 230 -82 297 -268 297h-98zM69 0l102 730h171c237 0 397 -88 357 -370c-34 -243 -197 -360 -413 -360h-217z
" />
    <glyph glyph-name="uni01c7" unicode="&#x1c7;" horiz-adv-x="737" 
d="M583 88l91 642h83l-86 -612c-21 -150 -48 -222 -210 -222h-16v69h34c83 0 94 51 104 123zM172 730h83l-92 -654h298l-16 -76h-376z" />
    <glyph glyph-name="uni01c8" unicode="&#x1c8;" horiz-adv-x="686" 
d="M708 730l-14 -96h-70l13 96h71zM680 536l-85 -604c-19 -131 -50 -177 -164 -177h-22l1 74h22c76 0 83 31 94 112l84 595h70zM172 730h83l-92 -654h298l-16 -76h-376z" />
    <glyph glyph-name="uni01ca" unicode="&#x1ca;" horiz-adv-x="995" 
d="M841 88l91 642h83l-86 -612c-21 -150 -48 -222 -210 -222h-16v69h34c83 0 94 51 104 123zM616 0h-92l-292 605l-85 -605h-78l102 730h91l295 -606l85 606h77z" />
    <glyph glyph-name="uni01cb" unicode="&#x1cb;" horiz-adv-x="943" 
d="M966 730l-14 -96h-70l13 96h71zM938 536l-85 -604c-19 -131 -50 -177 -164 -177h-22l1 74h22c76 0 83 31 94 112l84 595h70zM616 0h-92l-292 605l-85 -605h-78l102 730h91l295 -606l85 606h77z" />
    <glyph glyph-name="Gacute" unicode="&#x1f4;" horiz-adv-x="699" 
d="M585 991l-179 -190h-53l114 190h118zM370 -11c87 0 154 18 243 71l44 313h-233l-16 -73h168l-27 -193c-33 -20 -102 -44 -159 -44c-172 0 -226 139 -203 301c22 161 117 306 289 306c66 0 131 -31 163 -63l39 67c-46 45 -112 71 -199 71c-220 0 -351 -176 -380 -381
c-28 -200 55 -375 271 -375z" />
    <glyph glyph-name="gacute" unicode="&#x1f5;" horiz-adv-x="569" 
d="M493 800l-179 -190h-53l114 190h118zM104 -245v74h86c145 0 171 77 190 211l7 47c-37 -50 -82 -87 -154 -87c-135 0 -179 136 -162 253c21 145 101 269 241 269c61 0 99 -29 126 -84l10 71h68l-68 -480c-19 -134 -56 -274 -270 -274h-74zM253 70c99 0 145 80 158 170
l5 37c13 95 -14 176 -109 176c-99 0 -151 -109 -163 -196c-12 -86 15 -187 109 -187z" />
    <glyph glyph-name="uni01FA" unicode="&#x1fa;" horiz-adv-x="635" 
d="M673 1230l-179 -190h-53l114 190h118zM233 298h217l-54 348zM510 0l-42 231h-270l-113 -231h-82l356 730h96l139 -730h-84zM457 991c-46 0 -95 -38 -103 -96c-8 -56 30 -90 78 -90c46 0 93 34 101 90c8 55 -28 96 -76 96zM436 840c-28 0 -41 22 -37 55c4 30 29 56 52 56
c25 0 40 -26 36 -56s-28 -55 -51 -55z" />
    <glyph glyph-name="uni01FB" unicode="&#x1fb;" horiz-adv-x="501" 
d="M564 1039l-179 -190h-53l114 190h118zM193 52c43 0 108 28 144 73l17 124s-41 -7 -42 -7c-133 -19 -175 -42 -185 -112c-8 -56 22 -78 66 -78zM330 58c-47 -52 -106 -70 -154 -70c-76 0 -133 43 -119 139c19 134 137 153 258 172l47 6l9 57c8 60 -15 91 -78 91
c-51 0 -107 -14 -148 -34l-11 62c38 22 102 41 167 41c91 0 156 -33 140 -147l-52 -375h-57zM363 800c-46 0 -95 -38 -103 -96c-8 -56 30 -90 78 -90c46 0 93 34 101 90c8 55 -28 96 -76 96zM342 649c-28 0 -41 22 -37 55c4 30 29 56 52 56c25 0 40 -26 36 -56
s-28 -55 -51 -55z" />
    <glyph glyph-name="uni01FC" unicode="&#x1fc;" horiz-adv-x="1021" 
d="M746 991l-179 -190h-53l114 190h118zM40 0l480 766h473l-12 -78h-319l-19 -257h287l-11 -77h-278l-19 -277h283l-11 -77h-355l15 208h-305l-131 -208h-78zM583 688h-23l-262 -400h257z" />
    <glyph glyph-name="uni01FD" unicode="&#x1fd;" horiz-adv-x="817" 
d="M617 800l-179 -190h-53l114 190h118zM56 146c18 129 133 145 261 153c9 0 18 2 27 2l11 80c9 65 -7 96 -66 96c-57 0 -117 -19 -155 -40l-6 67c37 22 106 45 169 45c66 0 117 -31 120 -94c40 64 100 94 161 94c114 0 142 -105 126 -215c-6 -47 -20 -69 -88 -73l-210 -12
c-9 -114 15 -191 104 -191c54 0 110 30 143 54l13 -59c-39 -34 -97 -65 -170 -65c-60 0 -100 24 -127 67c-55 -36 -134 -68 -199 -68c-73 0 -131 41 -114 159zM184 55c46 0 111 28 162 47c-13 40 -17 87 -12 142c-9 0 -18 -1 -27 -2c-136 -12 -173 -42 -181 -100
c-9 -65 17 -87 58 -87zM568 480c-84 0 -133 -79 -152 -180l219 14v5c15 111 -5 161 -67 161z" />
    <glyph glyph-name="uni01FE" unicode="&#x1fe;" horiz-adv-x="838" 
d="M654 991l-179 -190h-53l114 190h118zM329 84c21 -7 45 -10 72 -10c166 0 264 135 288 309c16 112 -5 210 -69 263zM659 852l56 -22l-50 -99c97 -62 137 -185 114 -351c-32 -228 -170 -392 -389 -392c-39 0 -73 4 -104 14l-47 -90l-53 21l47 93c-105 61 -146 192 -123 354
c34 240 178 394 389 394c41 0 78 -6 111 -17zM488 688c-164 0 -264 -135 -288 -305c-17 -120 7 -221 77 -272l291 564c-23 9 -50 13 -80 13z" />
    <glyph glyph-name="uni01FF" unicode="&#x1ff;" horiz-adv-x="585" 
d="M470 667l30 -18l-78 -153c68 -43 92 -135 77 -241c-20 -141 -112 -267 -250 -267c-29 0 -55 5 -77 14l-69 -136l-27 18l68 135c-64 45 -89 133 -74 235c21 146 116 268 255 268c25 0 47 -4 67 -11zM426 254c10 73 3 141 -37 176l-184 -363c15 -8 33 -12 55 -12
c99 0 151 96 166 199zM143 252c-9 -66 0 -129 35 -165l182 360c-13 5 -28 8 -45 8c-99 0 -157 -100 -172 -203zM501 800l-179 -190h-53l114 190h118z" />
    <glyph glyph-name="uni0200" unicode="&#x200;" horiz-adv-x="635" 
d="M465 795l-92 163h70l70 -163h-48zM340 795l-94 163h70l72 -163h-48zM233 298h217l-54 348zM510 0l-42 231h-270l-113 -231h-82l356 730h96l139 -730h-84z" />
    <glyph glyph-name="uni0201" unicode="&#x201;" horiz-adv-x="501" 
d="M355 599l-92 163h70l70 -163h-48zM230 599l-94 163h70l72 -163h-48zM193 52c43 0 108 28 144 73l17 124s-41 -7 -42 -7c-133 -19 -175 -42 -185 -112c-8 -56 22 -78 66 -78zM330 58c-47 -52 -106 -70 -154 -70c-76 0 -133 43 -119 139c19 134 137 153 258 172l47 6l9 57
c8 60 -15 91 -78 91c-51 0 -107 -14 -148 -34l-11 62c38 22 102 41 167 41c91 0 156 -33 140 -147l-52 -375h-57z" />
    <glyph glyph-name="uni0202" unicode="&#x202;" horiz-adv-x="635" 
d="M444 920c57 0 111 -42 99 -126h-54c6 47 -20 69 -53 69s-63 -22 -69 -69h-55c12 84 75 126 132 126zM233 298h217l-54 348zM510 0l-42 231h-270l-113 -231h-82l356 730h96l139 -730h-84z" />
    <glyph glyph-name="uni0203" unicode="&#x203;" horiz-adv-x="501" 
d="M334 724c57 0 111 -42 99 -126h-54c6 47 -20 69 -53 69s-63 -22 -69 -69h-55c12 84 75 126 132 126zM193 52c43 0 108 28 144 73l17 124s-41 -7 -42 -7c-133 -19 -175 -42 -185 -112c-8 -56 22 -78 66 -78zM330 58c-47 -52 -106 -70 -154 -70c-76 0 -133 43 -119 139
c19 134 137 153 258 172l47 6l9 57c8 60 -15 91 -78 91c-51 0 -107 -14 -148 -34l-11 62c38 22 102 41 167 41c91 0 156 -33 140 -147l-52 -375h-57z" />
    <glyph glyph-name="uni0204" unicode="&#x204;" horiz-adv-x="556" 
d="M434 795l-92 163h70l70 -163h-48zM309 795l-94 163h70l72 -163h-48zM511 413l-11 -75h-301l-36 -262h333l-17 -76h-410l102 730h404l-17 -75h-314l-34 -242h301z" />
    <glyph glyph-name="uni0205" unicode="&#x205;" horiz-adv-x="531" 
d="M244 -12c74 0 136 26 179 64l-14 56c-36 -24 -88 -50 -153 -50c-81 0 -131 70 -115 183h314l5 35c21 150 -35 246 -149 246c-120 -4 -219 -115 -240 -267c-23 -164 42 -267 173 -267zM151 294c22 99 81 162 150 162c68 0 110 -55 95 -162h-245zM379 599l-92 163h70
l70 -163h-48zM254 599l-94 163h70l72 -163h-48z" />
    <glyph glyph-name="uni0206" unicode="&#x206;" horiz-adv-x="556" 
d="M413 920c57 0 111 -42 99 -126h-54c6 47 -20 69 -53 69s-63 -22 -69 -69h-55c12 84 75 126 132 126zM511 413l-11 -75h-301l-36 -262h333l-17 -76h-410l102 730h404l-17 -75h-314l-34 -242h301z" />
    <glyph glyph-name="uni0207" unicode="&#x207;" horiz-adv-x="531" 
d="M244 -12c74 0 136 26 179 64l-14 56c-36 -24 -88 -50 -153 -50c-81 0 -131 70 -115 183h314l5 35c21 150 -35 246 -149 246c-120 -4 -219 -115 -240 -267c-23 -164 42 -267 173 -267zM151 294c22 99 81 162 150 162c68 0 110 -55 95 -162h-245zM358 724
c57 0 111 -42 99 -126h-54c6 47 -20 69 -53 69s-63 -22 -69 -69h-55c12 84 75 126 132 126z" />
    <glyph glyph-name="uni0208" unicode="&#x208;" horiz-adv-x="248" 
d="M262 795l-92 163h70l70 -163h-48zM137 795l-94 163h70l72 -163h-48zM262 730l-103 -730h-83l103 730h83z" />
    <glyph glyph-name="uni0209" unicode="&#x209;" horiz-adv-x="209" 
d="M219 599l-92 163h70l70 -163h-48zM94 599l-94 163h70l72 -163h-48zM203 509l-72 -509h-70l71 509h71z" />
    <glyph glyph-name="uni020A" unicode="&#x20a;" horiz-adv-x="248" 
d="M242 920c57 0 111 -42 99 -126h-54c6 47 -20 69 -53 69s-63 -22 -69 -69h-55c12 84 75 126 132 126zM262 730l-103 -730h-83l103 730h83z" />
    <glyph glyph-name="uni020B" unicode="&#x20b;" horiz-adv-x="209" 
d="M198 724c57 0 111 -42 99 -126h-54c6 47 -20 69 -53 69s-63 -22 -69 -69h-55c12 84 75 126 132 126zM203 509l-72 -509h-70l71 509h71z" />
    <glyph glyph-name="uni020C" unicode="&#x20c;" horiz-adv-x="811" 
d="M545 795l-92 163h70l70 -163h-48zM420 795l-94 163h70l72 -163h-48zM475 670c-164 0 -263 -122 -289 -306c-23 -168 33 -301 204 -301s264 133 287 301c25 182 -38 306 -202 306zM379 -11c-220 0 -311 161 -281 375c32 227 175 381 387 381s313 -154 281 -381
c-30 -214 -168 -375 -387 -375z" />
    <glyph glyph-name="uni020D" unicode="&#x20d;" horiz-adv-x="577" 
d="M402 599l-92 163h70l70 -163h-48zM277 599l-94 163h70l72 -163h-48zM426 254c15 106 -7 201 -111 201c-99 0 -157 -100 -172 -203c-14 -101 16 -197 117 -197c99 0 151 96 166 199zM499 255c-20 -141 -112 -267 -250 -267c-139 0 -200 120 -179 266s116 268 255 268
c141 0 195 -120 174 -267z" />
    <glyph glyph-name="uni020E" unicode="&#x20e;" horiz-adv-x="811" 
d="M524 920c57 0 111 -42 99 -126h-54c6 47 -20 69 -53 69s-63 -22 -69 -69h-55c12 84 75 126 132 126zM475 670c-164 0 -263 -122 -289 -306c-23 -168 33 -301 204 -301s264 133 287 301c25 182 -38 306 -202 306zM379 -11c-220 0 -311 161 -281 375
c32 227 175 381 387 381s313 -154 281 -381c-30 -214 -168 -375 -387 -375z" />
    <glyph glyph-name="uni020F" unicode="&#x20f;" horiz-adv-x="577" 
d="M381 724c57 0 111 -42 99 -126h-54c6 47 -20 69 -53 69s-63 -22 -69 -69h-55c12 84 75 126 132 126zM426 254c15 106 -7 201 -111 201c-99 0 -157 -100 -172 -203c-14 -101 16 -197 117 -197c99 0 151 96 166 199zM499 255c-20 -141 -112 -267 -250 -267
c-139 0 -200 120 -179 266s116 268 255 268c141 0 195 -120 174 -267z" />
    <glyph glyph-name="uni0210" unicode="&#x210;" horiz-adv-x="625" 
d="M485 795l-92 163h70l70 -163h-48zM360 795l-94 163h70l72 -163h-48zM244 655l-35 -244l162 -2c123 -1 164 42 176 129c11 76 -19 117 -123 117h-180zM585 0h-93l-61 227c-12 43 -22 84 -33 109c-13 -1 -63 -2 -79 -2c-9 0 -120 4 -120 4l-47 -338h-83l102 730h218
c164 0 263 -25 240 -190c-13 -90 -64 -161 -157 -186c-1 0 26 -62 37 -99z" />
    <glyph glyph-name="uni0211" unicode="&#x211;" horiz-adv-x="323" 
d="M299 599l-92 163h70l70 -163h-48zM174 599l-94 163h70l72 -163h-48zM55 0h70l42 296c11 75 63 139 148 139h17l5 74h-13c-54 0 -104 -24 -146 -92l7 92h-60c-5 -39 -9 -76 -15 -117z" />
    <glyph glyph-name="uni0212" unicode="&#x212;" horiz-adv-x="625" 
d="M465 920c57 0 111 -42 99 -126h-54c6 47 -20 69 -53 69s-63 -22 -69 -69h-55c12 84 75 126 132 126zM244 655l-35 -244l162 -2c123 -1 164 42 176 129c11 76 -19 117 -123 117h-180zM585 0h-93l-61 227c-12 43 -22 84 -33 109c-13 -1 -63 -2 -79 -2c-9 0 -120 4 -120 4
l-47 -338h-83l102 730h218c164 0 263 -25 240 -190c-13 -90 -64 -161 -157 -186c-1 0 26 -62 37 -99z" />
    <glyph glyph-name="uni0213" unicode="&#x213;" horiz-adv-x="323" 
d="M278 724c57 0 111 -42 99 -126h-54c6 47 -20 69 -53 69s-63 -22 -69 -69h-55c12 84 75 126 132 126zM55 0h70l42 296c11 75 63 139 148 139h17l5 74h-13c-54 0 -104 -24 -146 -92l7 92h-60c-5 -39 -9 -76 -15 -117z" />
    <glyph glyph-name="uni0214" unicode="&#x214;" horiz-adv-x="676" 
d="M476 795l-92 163h70l70 -163h-48zM351 795l-94 163h70l72 -163h-48zM315 -11c-200 0 -242 109 -220 266l67 475h83l-66 -472c-20 -143 24 -197 147 -197c122 0 182 54 202 197l66 472h83l-67 -475c-22 -157 -95 -266 -295 -266z" />
    <glyph glyph-name="uni0215" unicode="&#x215;" horiz-adv-x="536" 
d="M380 599l-92 163h70l70 -163h-48zM255 599l-94 163h70l72 -163h-48zM72 169l48 340h70l-47 -338c-13 -91 32 -116 98 -116c65 0 117 26 130 116l47 338h70l-48 -340c-19 -134 -112 -181 -209 -181s-178 48 -159 181z" />
    <glyph glyph-name="uni0216" unicode="&#x216;" horiz-adv-x="676" 
d="M455 920c57 0 111 -42 99 -126h-54c6 47 -20 69 -53 69s-63 -22 -69 -69h-55c12 84 75 126 132 126zM315 -11c-200 0 -242 109 -220 266l67 475h83l-66 -472c-20 -143 24 -197 147 -197c122 0 182 54 202 197l66 472h83l-67 -475c-22 -157 -95 -266 -295 -266z" />
    <glyph glyph-name="uni0217" unicode="&#x217;" horiz-adv-x="536" 
d="M359 724c57 0 111 -42 99 -126h-54c6 47 -20 69 -53 69s-63 -22 -69 -69h-55c12 84 75 126 132 126zM72 169l48 340h70l-47 -338c-13 -91 32 -116 98 -116c65 0 117 26 130 116l47 338h70l-48 -340c-19 -134 -112 -181 -209 -181s-178 48 -159 181z" />
    <glyph glyph-name="uni0218" unicode="&#x218;" horiz-adv-x="605" 
d="M245 -304l46 243h81l-70 -243h-57zM51 49l34 70c57 -32 131 -56 218 -56c97 0 155 46 169 145c8 59 -9 99 -92 122l-130 36c-91 25 -143 79 -129 176c20 142 129 203 279 203c84 0 156 -22 198 -53l-34 -68c-33 21 -102 46 -176 46c-108 0 -170 -39 -182 -123
c-8 -57 24 -88 87 -105l124 -33c99 -26 156 -79 139 -198c-21 -152 -126 -222 -267 -222c-119 0 -200 33 -238 60z" />
    <glyph glyph-name="uni0219" unicode="&#x219;" horiz-adv-x="443" 
d="M158 -305l46 243h81l-70 -243h-57zM379 138v-2c-17 -96 -85 -148 -172 -148c-70 0 -128 26 -152 50l26 60c16 -12 63 -42 125 -42h7c52 0 89 28 101 80c0 2 1 4 1 6c4 32 -10 61 -59 77l-57 19c-89 28 -109 77 -101 139c10 73 70 144 173 145c59 0 103 -14 135 -35
l-25 -57c-23 11 -63 27 -113 27c-51 0 -93 -29 -100 -81c-4 -31 9 -55 56 -69l60 -19c72 -22 107 -66 95 -150z" />
    <glyph glyph-name="uni021A" unicode="&#x21a;" horiz-adv-x="500" 
d="M191 -293l46 243h81l-70 -243h-57zM91 655l10 75h490l-11 -75h-204l-91 -655h-83l91 655h-202z" />
    <glyph glyph-name="uni021B" unicode="&#x21b;" horiz-adv-x="327" 
d="M102 -297l46 243h81l-70 -243h-57zM214 452l-39 -281c-13 -94 -6 -113 50 -113c8 0 24 1 57 4l-3 -65c-53 -5 -66 -7 -80 -7c-112 0 -111 61 -90 215l35 247h-70l13 57h65l46 200l53 5l-29 -205h122l-9 -57h-121z" />
    <glyph glyph-name="dotlessj" unicode="&#x237;" horiz-adv-x="184" 
d="M208 509l-83 -583c-18 -126 -49 -171 -163 -171h-22l1 74h22c76 0 83 30 94 108l80 572h71z" />
    <glyph glyph-name="uni0259" unicode="&#x259;" horiz-adv-x="462" 
d="M287 522c131 0 196 -104 173 -268c-21 -152 -117 -262 -237 -266h-7c-114 0 -166 96 -145 247l6 36h314c16 112 -35 181 -116 181c-65 0 -116 -26 -152 -50l-15 56c43 38 105 64 179 64zM230 54c69 0 129 62 150 160h-244c-15 -106 26 -160 94 -160z" />
    <glyph glyph-name="afii57929" unicode="&#x2bc;" horiz-adv-x="232" 
d="M138 538l76 231h74l-96 -231h-54z" />
    <glyph glyph-name="circumflex" unicode="&#x2c6;" horiz-adv-x="372" 
d="M136 611l115 189h100l61 -189h-63l-57 133l-94 -133h-62z" />
    <glyph glyph-name="caron" unicode="&#x2c7;" horiz-adv-x="372" 
d="M163 800h62l53 -152l97 152h63l-114 -189h-100z" />
    <glyph glyph-name="breve" unicode="&#x2d8;" horiz-adv-x="346" 
d="M264 634c-57 0 -109 42 -97 126h54c-6 -47 18 -69 51 -69s65 22 71 69h55c-12 -84 -77 -126 -134 -126z" />
    <glyph glyph-name="dotaccent" unicode="&#x2d9;" horiz-adv-x="190" 
d="M203 751c42 0 57 -32 53 -64s-29 -64 -71 -64c-41 0 -57 32 -53 64s30 64 71 64z" />
    <glyph glyph-name="ring" unicode="&#x2da;" horiz-adv-x="291" 
d="M261 800c48 0 84 -41 76 -96c-8 -56 -55 -90 -101 -90c-48 0 -86 34 -78 90c8 58 57 96 103 96zM240 649c23 0 47 25 51 55s-11 56 -36 56c-23 0 -48 -26 -52 -56c-4 -33 9 -55 37 -55z" />
    <glyph glyph-name="ogonek" unicode="&#x2db;" horiz-adv-x="270" 
d="M133 -148c24 0 41 6 65 16l-9 -57c-19 -8 -49 -16 -74 -16c-50 0 -84 30 -76 86c7 53 57 94 105 121h52c-53 -38 -92 -73 -97 -106c-3 -26 15 -44 34 -44z" />
    <glyph glyph-name="tilde" unicode="&#x2dc;" horiz-adv-x="405" 
d="M193 630h-50c10 73 44 107 93 107c57 0 111 -46 128 -46h1c19 1 24 25 28 46h50c-9 -67 -35 -107 -83 -107c-41 0 -99 48 -135 48h-1c-15 0 -26 -21 -31 -48z" />
    <glyph glyph-name="hungarumlaut" unicode="&#x2dd;" horiz-adv-x="380" 
d="M444 778l-141 -163h-47l118 163h70zM334 778l-141 -163h-47l116 163h72z" />
    <glyph glyph-name="dotaccentcmb" unicode="&#x307;" horiz-adv-x="190" 
d="M205 762c42 0 57 -32 53 -64s-29 -65 -71 -65c-41 0 -57 33 -53 65s30 64 71 64z" />
    <glyph glyph-name="uni030F" unicode="&#x30f;" horiz-adv-x="397" 
d="M380 615l-92 163h70l70 -163h-48zM255 615l-94 163h70l72 -163h-48z" />
    <glyph glyph-name="uni0311" unicode="&#x311;" horiz-adv-x="352" 
d="M284 760c57 0 111 -42 99 -126h-54c6 47 -20 69 -53 69s-63 -22 -69 -69h-55c12 84 75 126 132 126z" />
    <glyph glyph-name="uni0326" unicode="&#x326;" horiz-adv-x="256" 
d="M21 -328l79 243h77l-101 -243h-55z" />
    <glyph glyph-name="tonos" unicode="&#x384;" horiz-adv-x="216" 
d="M166 389c42 0 57 -33 53 -65s-30 -64 -72 -64c-41 0 -57 32 -53 64s31 65 72 65z" />
    <glyph glyph-name="dieresistonos" unicode="&#x385;" horiz-adv-x="216" 
d="M166 389c42 0 57 -33 53 -65s-30 -64 -72 -64c-41 0 -57 32 -53 64s31 65 72 65z" />
    <glyph glyph-name="Alphatonos" unicode="&#x386;" horiz-adv-x="216" 
d="M166 389c42 0 57 -33 53 -65s-30 -64 -72 -64c-41 0 -57 32 -53 64s31 65 72 65z" />
    <glyph glyph-name="Epsilontonos" unicode="&#x388;" horiz-adv-x="216" 
d="M166 389c42 0 57 -33 53 -65s-30 -64 -72 -64c-41 0 -57 32 -53 64s31 65 72 65z" />
    <glyph glyph-name="Etatonos" unicode="&#x389;" horiz-adv-x="216" 
d="M166 389c42 0 57 -33 53 -65s-30 -64 -72 -64c-41 0 -57 32 -53 64s31 65 72 65z" />
    <glyph glyph-name="Iotatonos" unicode="&#x38a;" horiz-adv-x="216" 
d="M166 389c42 0 57 -33 53 -65s-30 -64 -72 -64c-41 0 -57 32 -53 64s31 65 72 65z" />
    <glyph glyph-name="Omicrontonos" unicode="&#x38c;" horiz-adv-x="216" 
d="M166 389c42 0 57 -33 53 -65s-30 -64 -72 -64c-41 0 -57 32 -53 64s31 65 72 65z" />
    <glyph glyph-name="Upsilontonos" unicode="&#x38e;" horiz-adv-x="216" 
d="M166 389c42 0 57 -33 53 -65s-30 -64 -72 -64c-41 0 -57 32 -53 64s31 65 72 65z" />
    <glyph glyph-name="Omegatonos" unicode="&#x38f;" horiz-adv-x="216" 
d="M166 389c42 0 57 -33 53 -65s-30 -64 -72 -64c-41 0 -57 32 -53 64s31 65 72 65z" />
    <glyph glyph-name="iotadieresistonos" unicode="&#x390;" 
d="M157 389c37 0 51 -33 47 -65s-28 -64 -65 -64s-51 32 -47 64s28 65 65 65z" />
    <glyph glyph-name="Alpha" unicode="&#x391;" horiz-adv-x="650" 
d="M233 298h217l-54 348zM510 0l-42 231h-270l-113 -231h-82l356 730h96l139 -730h-84z" />
    <glyph glyph-name="Beta" unicode="&#x392;" horiz-adv-x="628" 
d="M201 350l-39 -282h142c119 0 186 43 200 141c13 92 -35 141 -137 141h-166zM245 660l-35 -245h161c63 0 133 17 148 120c16 110 -58 125 -168 125h-106zM69 0l102 730h201c166 0 254 -49 236 -178c-10 -70 -48 -137 -122 -161c85 -20 113 -105 102 -183
c-18 -128 -99 -208 -278 -208h-241z" />
    <glyph glyph-name="Gamma" unicode="&#x393;" horiz-adv-x="534" 
d="M552 655h-308l-93 -655h-83l103 730h399z" />
    <glyph glyph-name="Epsilon" unicode="&#x395;" horiz-adv-x="556" 
d="M511 413l-11 -75h-301l-36 -262h333l-17 -76h-410l102 730h404l-17 -75h-314l-34 -242h301z" />
    <glyph glyph-name="Zeta" unicode="&#x396;" horiz-adv-x="585" 
d="M629 730l-8 -60l-466 -594h379l-16 -76h-476l10 68l460 587h-362l11 75h468z" />
    <glyph glyph-name="Eta" unicode="&#x397;" horiz-adv-x="715" 
d="M571 340h-371l-48 -340h-83l102 730h83l-44 -316h371l44 316h83l-102 -730h-83z" />
    <glyph glyph-name="Theta" unicode="&#x398;" horiz-adv-x="216" 
d="M166 389c42 0 57 -33 53 -65s-30 -64 -72 -64c-41 0 -57 32 -53 64s31 65 72 65z" />
    <glyph glyph-name="Iota" unicode="&#x399;" horiz-adv-x="248" 
d="M262 730l-103 -730h-83l103 730h83z" />
    <glyph glyph-name="Kappa" unicode="&#x39a;" horiz-adv-x="599" 
d="M324 390l259 -390h-105l-225 343l-60 -49l-42 -294h-83l103 730h83l-50 -354l340 354h109z" />
    <glyph glyph-name="Lambda" unicode="&#x39b;" horiz-adv-x="574" 
d="M376 638l-296 -638h-85l352 730h84l148 -730h-83z" />
    <glyph glyph-name="Mu" unicode="&#x39c;" horiz-adv-x="871" 
d="M229 577l-81 -577h-78l102 730h90l175 -561l330 561h86l-103 -730h-78l81 574l-283 -485h-91z" />
    <glyph glyph-name="Nu" unicode="&#x39d;" horiz-adv-x="726" 
d="M616 0h-92l-292 605l-85 -605h-78l102 730h91l295 -606l85 606h77z" />
    <glyph glyph-name="Xi" unicode="&#x39e;" horiz-adv-x="216" 
d="M166 389c42 0 57 -33 53 -65s-30 -64 -72 -64c-41 0 -57 32 -53 64s31 65 72 65z" />
    <glyph glyph-name="Omicron" unicode="&#x39f;" horiz-adv-x="811" 
d="M475 670c-164 0 -263 -122 -289 -306c-23 -168 33 -301 204 -301s264 133 287 301c25 182 -38 306 -202 306zM379 -11c-220 0 -311 161 -281 375c32 227 175 381 387 381s313 -154 281 -381c-30 -214 -168 -375 -387 -375z" />
    <glyph glyph-name="Pi" unicode="&#x3a0;" horiz-adv-x="670" 
d="M615 656h-371l-92 -656h-83l102 730h537l-102 -730h-83z" />
    <glyph glyph-name="Rho" unicode="&#x3a1;" horiz-adv-x="557" 
d="M323 380c154 0 178 79 188 152c12 86 -44 121 -128 121h-140l-38 -272s87 -1 118 -1zM151 0h-83l103 730h222c130 0 223 -55 203 -196c-19 -136 -87 -229 -290 -229c-28 0 -77 4 -111 7z" />
    <glyph glyph-name="Sigma" unicode="&#x3a3;" horiz-adv-x="556" 
d="M511 413l-11 -75h-301l-36 -262h333l-17 -76h-410l102 730h404l-17 -75h-314l-34 -242h301z" />
    <glyph glyph-name="Tau" unicode="&#x3a4;" horiz-adv-x="500" 
d="M91 655l10 75h490l-11 -75h-204l-91 -655h-83l91 655h-202z" />
    <glyph glyph-name="Upsilon" unicode="&#x3a5;" horiz-adv-x="606" 
d="M672 730l-316 -430l-42 -300h-83l43 300l-172 430h86l144 -350l251 350h89z" />
    <glyph glyph-name="Phi" unicode="&#x3a6;" horiz-adv-x="762" 
d="M100 377c-22 -157 61 -278 252 -294l10 75c-139 15 -189 106 -173 219c16 116 95 197 234 211l10 75c-189 -14 -311 -126 -333 -286zM771 377c22 160 -69 272 -255 286l-10 -75c136 -13 193 -95 177 -211c-16 -114 -92 -205 -238 -219l-10 -75c196 15 314 136 336 294z
M466 590c14 0 27 -1 40 -2l-61 -430c-13 -2 -26 -2 -40 -2c-15 0 -29 0 -43 2l61 430c13 1 28 2 43 2zM423 0h-83l12 83c14 -1 28 -1 43 -1c13 0 27 0 40 1zM526 730l-10 -67c-13 1 -26 2 -40 2c-15 0 -29 -1 -43 -2l10 67h83z" />
    <glyph glyph-name="Chi" unicode="&#x3a7;" horiz-adv-x="634" 
d="M5 0l296 381l-178 349h100l142 -294l237 294h88l-278 -349l180 -381h-96l-149 332l-250 -332h-92z" />
    <glyph glyph-name="Psi" unicode="&#x3a8;" horiz-adv-x="216" 
d="M166 389c42 0 57 -33 53 -65s-30 -64 -72 -64c-41 0 -57 32 -53 64s31 65 72 65z" />
    <glyph glyph-name="Iotadieresis" unicode="&#x3aa;" horiz-adv-x="248" 
d="M262 730l-103 -730h-83l103 730h83zM171 794h-71l14 104h72zM352 794h-73l14 104h73z" />
    <glyph glyph-name="Upsilondieresis" unicode="&#x3ab;" horiz-adv-x="606" 
d="M672 730l-316 -430l-42 -300h-83l43 300l-172 430h86l144 -350l251 350h89zM351 794h-71l14 104h72zM532 794h-73l14 104h73z" />
    <glyph glyph-name="alphatonos" unicode="&#x3ac;" 
d="M157 389c37 0 51 -33 47 -65s-28 -64 -65 -64s-51 32 -47 64s28 65 65 65z" />
    <glyph glyph-name="epsilontonos" unicode="&#x3ad;" 
d="M157 389c37 0 51 -33 47 -65s-28 -64 -65 -64s-51 32 -47 64s28 65 65 65z" />
    <glyph glyph-name="etatonos" unicode="&#x3ae;" 
d="M157 389c37 0 51 -33 47 -65s-28 -64 -65 -64s-51 32 -47 64s28 65 65 65z" />
    <glyph glyph-name="iotatonos" unicode="&#x3af;" 
d="M157 389c37 0 51 -33 47 -65s-28 -64 -65 -64s-51 32 -47 64s28 65 65 65z" />
    <glyph glyph-name="upsilondieresistonos" unicode="&#x3b0;" 
d="M157 389c37 0 51 -33 47 -65s-28 -64 -65 -64s-51 32 -47 64s28 65 65 65z" />
    <glyph glyph-name="alpha" unicode="&#x3b1;" 
d="M157 389c37 0 51 -33 47 -65s-28 -64 -65 -64s-51 32 -47 64s28 65 65 65z" />
    <glyph glyph-name="beta" unicode="&#x3b2;" 
d="M157 389c37 0 51 -33 47 -65s-28 -64 -65 -64s-51 32 -47 64s28 65 65 65z" />
    <glyph glyph-name="gamma" unicode="&#x3b3;" 
d="M157 389c37 0 51 -33 47 -65s-28 -64 -65 -64s-51 32 -47 64s28 65 65 65z" />
    <glyph glyph-name="delta" unicode="&#x3b4;" 
d="M157 389c37 0 51 -33 47 -65s-28 -64 -65 -64s-51 32 -47 64s28 65 65 65z" />
    <glyph glyph-name="epsilon" unicode="&#x3b5;" 
d="M157 389c37 0 51 -33 47 -65s-28 -64 -65 -64s-51 32 -47 64s28 65 65 65z" />
    <glyph glyph-name="zeta" unicode="&#x3b6;" 
d="M157 389c37 0 51 -33 47 -65s-28 -64 -65 -64s-51 32 -47 64s28 65 65 65z" />
    <glyph glyph-name="eta" unicode="&#x3b7;" 
d="M157 389c37 0 51 -33 47 -65s-28 -64 -65 -64s-51 32 -47 64s28 65 65 65z" />
    <glyph glyph-name="theta" unicode="&#x3b8;" 
d="M157 389c37 0 51 -33 47 -65s-28 -64 -65 -64s-51 32 -47 64s28 65 65 65z" />
    <glyph glyph-name="iota" unicode="&#x3b9;" 
d="M157 389c37 0 51 -33 47 -65s-28 -64 -65 -64s-51 32 -47 64s28 65 65 65z" />
    <glyph glyph-name="kappa" unicode="&#x3ba;" horiz-adv-x="539" 
d="M349 0l-187 247l-35 -247h-61l76 540h61l-35 -247l237 247h86l-258 -271c70 -89 138 -180 195 -269h-79z" />
    <glyph glyph-name="lambda" unicode="&#x3bb;" 
d="M157 389c37 0 51 -33 47 -65s-28 -64 -65 -64s-51 32 -47 64s28 65 65 65z" />
    <glyph glyph-name="nu" unicode="&#x3bd;" 
d="M157 389c37 0 51 -33 47 -65s-28 -64 -65 -64s-51 32 -47 64s28 65 65 65z" />
    <glyph glyph-name="xi" unicode="&#x3be;" 
d="M157 389c37 0 51 -33 47 -65s-28 -64 -65 -64s-51 32 -47 64s28 65 65 65z" />
    <glyph glyph-name="omicron" unicode="&#x3bf;" horiz-adv-x="555" 
d="M426 254c15 106 -7 201 -111 201c-99 0 -157 -100 -172 -203c-14 -101 16 -197 117 -197c99 0 151 96 166 199zM499 255c-20 -141 -112 -267 -250 -267c-139 0 -200 120 -179 266s116 268 255 268c141 0 195 -120 174 -267z" />
    <glyph glyph-name="pi" unicode="&#x3c0;" horiz-adv-x="620" 
d="M619 520l-10 -70h-76l-42 -303c-4 -29 -9 -70 27 -70c8 0 18 3 31 6c-1 -11 -6 -20 -7 -31c-2 -17 -2 -31 -1 -49c-19 -4 -37 -7 -52 -7c-58 0 -70 40 -56 143l44 311h-171c-12 -70 -25 -134 -38 -194c-22 -102 -51 -214 -77 -256h-62c49 87 92 306 115 450
c-45 -1 -77 -10 -107 -30l3 67c28 27 69 33 134 33h345z" />
    <glyph glyph-name="rho" unicode="&#x3c1;" horiz-adv-x="570" 
d="M160 254c-15 -107 9 -196 105 -196s145 105 158 196s-7 199 -103 199s-145 -91 -160 -199zM23 -224l103 733h67l-6 -71c43 55 92 84 153 84c135 0 175 -126 154 -273c-20 -138 -109 -261 -229 -261c-59 0 -106 28 -129 89l-41 -290z" />
    <glyph glyph-name="sigma1" unicode="&#x3c2;" 
d="M157 389c37 0 51 -33 47 -65s-28 -64 -65 -64s-51 32 -47 64s28 65 65 65z" />
    <glyph glyph-name="sigma" unicode="&#x3c3;" 
d="M157 389c37 0 51 -33 47 -65s-28 -64 -65 -64s-51 32 -47 64s28 65 65 65z" />
    <glyph glyph-name="tau" unicode="&#x3c4;" 
d="M157 389c37 0 51 -33 47 -65s-28 -64 -65 -64s-51 32 -47 64s28 65 65 65z" />
    <glyph glyph-name="upsilon" unicode="&#x3c5;" 
d="M157 389c37 0 51 -33 47 -65s-28 -64 -65 -64s-51 32 -47 64s28 65 65 65z" />
    <glyph glyph-name="phi" unicode="&#x3c6;" 
d="M157 389c37 0 51 -33 47 -65s-28 -64 -65 -64s-51 32 -47 64s28 65 65 65z" />
    <glyph glyph-name="chi" unicode="&#x3c7;" horiz-adv-x="502" 
d="M417 509h81l-200 -253l129 -256h-76l-101 204l-158 -204h-81l204 258l-129 251h81l97 -193z" />
    <glyph glyph-name="psi" unicode="&#x3c8;" 
d="M157 389c37 0 51 -33 47 -65s-28 -64 -65 -64s-51 32 -47 64s28 65 65 65z" />
    <glyph glyph-name="omega" unicode="&#x3c9;" 
d="M157 389c37 0 51 -33 47 -65s-28 -64 -65 -64s-51 32 -47 64s28 65 65 65z" />
    <glyph glyph-name="iotadieresis" unicode="&#x3ca;" horiz-adv-x="228" 
d="M157 389c37 0 51 -33 47 -65s-28 -64 -65 -64s-51 32 -47 64s28 65 65 65zM137 612h-71l14 104h72zM318 612h-73l14 104h73z" />
    <glyph glyph-name="upsilondieresis" unicode="&#x3cb;" 
d="M157 389c37 0 51 -33 47 -65s-28 -64 -65 -64s-51 32 -47 64s28 65 65 65z" />
    <glyph glyph-name="omicrontonos" unicode="&#x3cc;" 
d="M157 389c37 0 51 -33 47 -65s-28 -64 -65 -64s-51 32 -47 64s28 65 65 65z" />
    <glyph glyph-name="upsilontonos" unicode="&#x3cd;" 
d="M157 389c37 0 51 -33 47 -65s-28 -64 -65 -64s-51 32 -47 64s28 65 65 65z" />
    <glyph glyph-name="omegatonos" unicode="&#x3ce;" 
d="M157 389c37 0 51 -33 47 -65s-28 -64 -65 -64s-51 32 -47 64s28 65 65 65z" />
    <glyph glyph-name="uni0400" unicode="&#x400;" horiz-adv-x="535" 
d="M444 795l-125 189h118l60 -189h-53zM511 413l-11 -75h-301l-36 -262h333l-17 -76h-410l102 730h404l-17 -75h-314l-34 -242h301z" />
    <glyph glyph-name="afii10023" unicode="&#x401;" horiz-adv-x="535" 
d="M337 794h-71l14 104h72zM518 794h-73l14 104h73zM511 413l-11 -75h-301l-36 -262h333l-17 -76h-410l102 730h404l-17 -75h-314l-34 -242h301z" />
    <glyph glyph-name="afii10051" unicode="&#x402;" horiz-adv-x="468" 
d="M81 655l11 75h489l-10 -75h-204l-92 -655h-83l92 655h-203z" />
    <glyph glyph-name="uni0403" unicode="&#x403;" horiz-adv-x="462" 
d="M552 656h-308l-92 -656h-83l102 730h392z" />
    <glyph glyph-name="afii10053" unicode="&#x404;" horiz-adv-x="604" 
d="M170 324c-7 -144 53 -261 199 -261c69 0 137 27 179 58l19 -66c-53 -41 -123 -66 -213 -66c-210 0 -298 165 -268 381c29 207 162 375 376 375c88 0 152 -21 191 -64l-36 -71c-33 32 -90 60 -158 60c-167 0 -252 -128 -280 -271h314l-11 -75h-312z" />
    <glyph glyph-name="uni0405" unicode="&#x405;" horiz-adv-x="605" 
d="M51 49l34 70c57 -32 131 -56 218 -56c97 0 155 46 169 145c8 59 -9 99 -92 122l-130 36c-91 25 -143 79 -129 176c20 142 129 203 279 203c84 0 156 -22 198 -53l-34 -68c-33 21 -102 46 -176 46c-108 0 -170 -39 -182 -123c-8 -57 24 -88 87 -105l124 -33
c99 -26 156 -79 139 -198c-21 -152 -126 -222 -267 -222c-119 0 -200 33 -238 60z" />
    <glyph glyph-name="uni0406" unicode="&#x406;" horiz-adv-x="225" 
d="M258 731l-103 -731h-82l102 731h83z" />
    <glyph glyph-name="afii10056" unicode="&#x407;" horiz-adv-x="239" 
d="M166 784h-71l14 104h72zM347 784h-73l14 104h73zM258 731l-103 -731h-82l102 731h83z" />
    <glyph glyph-name="uni0408" unicode="&#x408;" horiz-adv-x="268" 
d="M114 88l91 642h83l-86 -612c-21 -150 -48 -222 -210 -222h-16v69h34c83 0 94 51 104 123z" />
    <glyph glyph-name="uni0409" unicode="&#x409;" horiz-adv-x="836" 
d="M635 350h-118l-38 -274h117c75 0 137 48 149 134s-33 140 -110 140zM571 730l-43 -305h118c126 0 205 -62 184 -216c-20 -141 -114 -209 -245 -209h-200l92 655h-174l-62 -444c-21 -150 -47 -224 -209 -224h-13l11 77h20c82 0 95 52 105 124l76 542h340z" />
    <glyph glyph-name="uni040A" unicode="&#x40a;" horiz-adv-x="772" 
d="M576 350h-99l-38 -272h99c75 0 137 46 149 132s-34 140 -111 140zM488 425h99c126 0 205 -62 184 -216c-20 -141 -113 -209 -244 -209h-182l49 350h-193l-49 -350h-83l102 730h83l-43 -305h194l43 305h82z" />
    <glyph glyph-name="afii10060" unicode="&#x40b;" horiz-adv-x="468" 
d="M81 655l11 75h489l-10 -75h-204l-92 -655h-83l92 655h-203z" />
    <glyph glyph-name="afii10061" unicode="&#x40c;" horiz-adv-x="599" 
d="M324 390l259 -390h-105l-225 343l-60 -49l-42 -294h-83l103 730h83l-50 -354l340 354h109zM657 984l-179 -190h-53l114 190h118z" />
    <glyph glyph-name="afii10062" unicode="&#x40e;" horiz-adv-x="591" 
d="M244 0h-89l117 228l-170 502h91l140 -419l230 419h90zM397 794c-57 0 -109 42 -97 126h54c-6 -47 18 -69 51 -69s65 22 71 69h55c-12 -84 -77 -126 -134 -126z" />
    <glyph glyph-name="afii10145" unicode="&#x40f;" horiz-adv-x="669" 
d="M533 75l92 655h83l-103 -730h-536l102 730h83l-91 -655h370z" />
    <glyph glyph-name="uni0410" unicode="&#x410;" horiz-adv-x="635" 
d="M233 298h217l-54 348zM510 0l-42 231h-270l-113 -231h-82l356 730h96l139 -730h-84z" />
    <glyph glyph-name="uni0411" unicode="&#x411;" horiz-adv-x="546" 
d="M454 209c12 86 -24 141 -110 141h-143l-38 -274h142c84 0 137 47 149 133zM171 730h407l-11 -75h-323l-33 -230h144c126 0 205 -63 184 -217c-20 -141 -115 -208 -245 -208h-225z" />
    <glyph glyph-name="uni0412" unicode="&#x412;" horiz-adv-x="576" 
d="M201 346l-39 -277h129c119 0 186 42 200 140c13 92 -36 137 -138 137h-152zM245 659l-35 -246h143c63 0 137 19 152 122c16 110 -58 124 -168 124h-92zM69 0l102 730h187c166 0 255 -49 237 -178c-10 -70 -48 -137 -122 -161c85 -20 113 -105 102 -183
c-18 -128 -100 -208 -279 -208h-227z" />
    <glyph glyph-name="uni0413" unicode="&#x413;" horiz-adv-x="462" 
d="M552 655h-308l-93 -655h-83l103 730h399z" />
    <glyph glyph-name="uni0414" unicode="&#x414;" horiz-adv-x="635" 
d="M475 74l82 587h-159l-218 -587h295zM343 730h307l-92 -656h54l-29 -203h-83l19 129h-430l-18 -129h-83l29 203h74z" />
    <glyph glyph-name="uni0415" unicode="&#x415;" horiz-adv-x="521" 
d="M511 413l-11 -75h-301l-36 -262h333l-17 -76h-410l102 730h404l-17 -75h-314l-34 -242h301z" />
    <glyph glyph-name="afii10024" unicode="&#x416;" horiz-adv-x="803" 
d="M546 731l-49 -346l293 346h100l-277 -324l210 -407h-104l-175 354l-61 -72l-40 -282h-83l40 282l-38 68l-278 -350h-104l329 402l-190 329h99l197 -346l48 346h83z" />
    <glyph glyph-name="afii10025" unicode="&#x417;" horiz-adv-x="524" 
d="M292 331h-53l11 78h58c97 0 145 66 154 127l1 7c7 82 -46 127 -115 127c-59 0 -129 -24 -174 -50l-21 65c57 42 130 59 212 59c142 0 192 -111 181 -190c-12 -87 -73 -160 -135 -179c62 -16 114 -89 101 -179c-18 -124 -109 -207 -268 -207c-90 0 -156 27 -197 61l38 70
c35 -31 98 -57 167 -57c85 0 165 39 178 134c10 68 -26 134 -138 134z" />
    <glyph glyph-name="afii10026" unicode="&#x418;" horiz-adv-x="681" 
d="M69 0l103 731h76l-85 -604c153 204 311 402 466 604h90l-103 -731h-75l84 601l-51 -70l-412 -531h-93z" />
    <glyph glyph-name="afii10027" unicode="&#x419;" horiz-adv-x="727" 
d="M69 0l103 731h76l-85 -604c153 204 311 402 466 604h90l-103 -731h-75l84 601l-51 -70l-412 -531h-93zM465 794c-57 0 -109 42 -97 126h54c-6 -47 18 -69 51 -69s65 22 71 69h55c-12 -84 -77 -126 -134 -126z" />
    <glyph glyph-name="afii10028" unicode="&#x41a;" horiz-adv-x="599" 
d="M324 390l259 -390h-105l-225 343l-60 -49l-42 -294h-83l103 730h83l-50 -354l340 354h109z" />
    <glyph glyph-name="uni041B" unicode="&#x41b;" horiz-adv-x="559" 
d="M13 0l276 730h308l-103 -730h-83l92 655h-157l-246 -655h-87z" />
    <glyph glyph-name="uni041C" unicode="&#x41c;" horiz-adv-x="871" 
d="M229 577l-81 -577h-78l102 730h90l175 -561l330 561h86l-103 -730h-78l81 574l-283 -485h-91z" />
    <glyph glyph-name="uni041D" unicode="&#x41d;" horiz-adv-x="715" 
d="M571 340h-371l-48 -340h-83l102 730h83l-44 -316h371l44 316h83l-102 -730h-83z" />
    <glyph glyph-name="uni041E" unicode="&#x41e;" horiz-adv-x="811" 
d="M475 670c-164 0 -263 -122 -289 -306c-23 -168 33 -301 204 -301s264 133 287 301c25 182 -38 306 -202 306zM379 -11c-220 0 -311 161 -281 375c32 227 175 381 387 381s313 -154 281 -381c-30 -214 -168 -375 -387 -375z" />
    <glyph glyph-name="uni041F" unicode="&#x41f;" horiz-adv-x="669" 
d="M614 655h-370l-92 -655h-83l102 730h537l-103 -730h-83z" />
    <glyph glyph-name="uni0420" unicode="&#x420;" horiz-adv-x="524" 
d="M351 380c87 0 137 55 149 141s-26 134 -110 134h-146l-38 -275h145zM195 306l-43 -306h-83l102 730h227c130 0 206 -67 186 -208c-21 -154 -118 -216 -244 -216h-145z" />
    <glyph glyph-name="uni0421" unicode="&#x421;" horiz-adv-x="626" 
d="M478 745c90 0 148 -26 189 -67l-38 -66c-34 32 -89 58 -159 58c-165 0 -261 -144 -284 -306c-22 -155 25 -301 204 -301c68 0 129 28 171 60l16 -71c-51 -43 -117 -63 -205 -63c-214 0 -303 168 -274 375c30 216 170 381 380 381z" />
    <glyph glyph-name="uni0422" unicode="&#x422;" horiz-adv-x="500" 
d="M91 655l10 75h490l-11 -75h-204l-91 -655h-83l91 655h-202z" />
    <glyph glyph-name="afii10037" unicode="&#x423;" horiz-adv-x="549" 
d="M244 0h-89l117 228l-170 502h91l140 -419l230 419h90z" />
    <glyph glyph-name="uni0424" unicode="&#x424;" horiz-adv-x="792" 
d="M438 588c-153 -17 -233 -99 -251 -224s40 -208 188 -225zM515 589l-63 -450c159 16 240 100 258 225s-40 209 -195 225zM535 730l-9 -64c193 -14 299 -119 273 -302s-161 -288 -358 -302l-9 -62h-76l9 62c-195 18 -290 129 -266 302s149 283 350 301l9 65h77z" />
    <glyph glyph-name="uni0425" unicode="&#x425;" horiz-adv-x="634" 
d="M5 0l296 381l-178 349h100l142 -294l237 294h88l-278 -349l180 -381h-96l-149 332l-250 -332h-92z" />
    <glyph glyph-name="afii10040" unicode="&#x426;" horiz-adv-x="684" 
d="M533 76l92 654h83l-92 -654h54l-29 -205h-82l18 129h-508l102 730h83l-91 -654h370z" />
    <glyph glyph-name="afii10041" unicode="&#x427;" horiz-adv-x="567" 
d="M480 426l42 304h83l-102 -730h-83l47 333c-45 -58 -122 -85 -185 -85c-116 0 -179 71 -161 199l39 283h83l-33 -235c-17 -117 18 -167 102 -167c65 0 164 65 168 98z" />
    <glyph glyph-name="uni0428" unicode="&#x428;" horiz-adv-x="767" 
d="M163 76h191l92 654h83l-92 -654h193l92 654h83l-103 -730h-633l102 730h83z" />
    <glyph glyph-name="afii10043" unicode="&#x429;" horiz-adv-x="798" 
d="M655 -129l18 129h-604l102 730h83l-91 -654h191l93 654h83l-92 -654h192l92 654h83l-92 -654h54l-29 -205h-83z" />
    <glyph glyph-name="uni042A" unicode="&#x42a;" horiz-adv-x="651" 
d="M569 210c11 79 -28 130 -142 130h-105l-37 -264h105c113 0 167 48 179 134zM191 0l92 655h-175l11 75h258l-44 -315h96c158 0 237 -65 217 -206s-118 -209 -277 -209h-178z" />
    <glyph glyph-name="uni042B" unicode="&#x42b;" horiz-adv-x="772" 
d="M760 730l-103 -730h-83l103 730h83zM200 340l-37 -264h73c115 0 176 48 188 134c12 83 -33 130 -153 130h-71zM254 730l-44 -315h62c156 0 249 -71 230 -203c-18 -128 -114 -212 -286 -212h-147l102 730h83z" />
    <glyph glyph-name="uni042C" unicode="&#x42c;" horiz-adv-x="525" 
d="M200 340l-37 -264h73c115 0 176 48 188 134c12 83 -33 130 -153 130h-71zM254 730l-44 -315h62c156 0 249 -71 230 -203c-18 -128 -114 -212 -286 -212h-147l102 730h83z" />
    <glyph glyph-name="afii10047" unicode="&#x42d;" horiz-adv-x="604" 
d="M237 -11c-90 0 -153 25 -195 66l38 66c33 -31 93 -58 162 -58c146 0 240 117 273 261h-313l10 75h314c12 143 -37 271 -204 271c-68 0 -132 -28 -174 -60l-16 71c52 43 122 64 212 64c212 0 297 -168 268 -375c-30 -216 -165 -381 -375 -381z" />
    <glyph glyph-name="uni042E" unicode="&#x42e;" horiz-adv-x="936" 
d="M684 670c-140 0 -229 -146 -251 -306c-22 -159 29 -301 170 -301c140 0 228 139 251 302c22 155 -25 305 -170 305zM591 -11c-182 0 -264 155 -250 346h-142l-47 -335h-83l102 730h83l-45 -321h144c42 197 163 336 340 336c192 0 280 -165 249 -383
c-29 -205 -159 -373 -351 -373z" />
    <glyph glyph-name="uni042F" unicode="&#x42f;" horiz-adv-x="596" 
d="M344 387h159l38 268h-159c-115 0 -170 -46 -182 -132c-12 -83 17 -136 144 -136zM449 0l43 312h-84c-69 0 -91 3 -109 4l-187 -316h-94c49 84 203 333 203 333c-74 31 -113 97 -100 191c20 141 121 206 290 206h223l-103 -730h-82z" />
    <glyph glyph-name="uni0430" unicode="&#x430;" horiz-adv-x="501" 
d="M193 52c43 0 108 28 144 73l17 124s-41 -7 -42 -7c-133 -19 -175 -42 -185 -112c-8 -56 22 -78 66 -78zM330 58c-47 -52 -106 -70 -154 -70c-76 0 -133 43 -119 139c19 134 137 153 258 172l47 6l9 57c8 60 -15 91 -78 91c-51 0 -107 -14 -148 -34l-11 62
c38 22 102 41 167 41c91 0 156 -33 140 -147l-52 -375h-57z" />
    <glyph glyph-name="afii10066" unicode="&#x431;" horiz-adv-x="431" 
d="M123 509h305l-9 -69h-235l-16 -108h118c112 0 153 -78 141 -161s-75 -171 -187 -171h-189zM285 265h-126l-28 -200h126c56 0 96 63 102 107s-18 93 -74 93z" />
    <glyph glyph-name="afii10067" unicode="&#x432;" horiz-adv-x="438" 
d="M164 297h122c56 0 88 36 93 71c6 41 -17 72 -73 72h-122zM277 230h-123l-23 -165h123c62 0 102 36 109 87c3 38 -24 78 -86 78zM429 147c-11 -77 -73 -147 -188 -147h-190l72 509h189c108 0 145 -65 135 -134c-6 -42 -30 -85 -76 -108c46 -23 62 -76 58 -120z" />
    <glyph glyph-name="uni0433" unicode="&#x433;" horiz-adv-x="283" 
d="M336 440h-152l-62 -440h-71l72 509h223z" />
    <glyph glyph-name="uni0434" unicode="&#x434;" horiz-adv-x="463" 
d="M132 59h203l54 381h-156l-26 -149c-23 -80 -48 -157 -75 -232zM70 -6l-18 -125h-66l27 191h40c42 47 66 146 78 208l47 241h291l-63 -450h36l-26 -190h-68l17 125h-295z" />
    <glyph glyph-name="uni0435" unicode="&#x435;" horiz-adv-x="531" 
d="M244 -12c-131 0 -196 103 -173 267c21 152 120 263 240 267c114 0 170 -96 149 -246l-5 -35h-314c-16 -113 34 -183 115 -183c65 0 117 26 153 50l14 -56c-43 -38 -105 -64 -179 -64zM151 294h245c15 107 -27 162 -95 162c-69 0 -128 -63 -150 -162z" />
    <glyph glyph-name="afii10072" unicode="&#x436;" horiz-adv-x="630" 
d="M320 275l33 234h69l-33 -234l219 234h83l-240 -248l173 -261h-84l-156 236l-33 -236h-69l33 236l-222 -236h-85l246 261l-171 248h84z" />
    <glyph glyph-name="afii10073" unicode="&#x437;" horiz-adv-x="404" 
d="M177 -12c-53 0 -113 15 -140 54c12 21 21 32 32 53c25 -26 73 -39 123 -39c75 0 119 40 126 91c6 41 -19 84 -84 84h-81l9 64h81c58 0 88 42 93 78c6 46 -19 82 -93 82c-49 0 -107 -23 -130 -44c0 0 -12 41 -16 57c40 41 104 54 157 54c125 0 161 -71 151 -142
c-6 -43 -24 -89 -86 -114c60 -20 72 -71 67 -121c-12 -84 -76 -157 -209 -157z" />
    <glyph glyph-name="uni0438" unicode="&#x438;" horiz-adv-x="466" 
d="M72 169l48 340h70l-47 -338c-13 -91 32 -116 98 -116c65 0 117 26 130 116l47 338h70l-48 -340c-19 -134 -112 -181 -209 -181s-178 48 -159 181z" />
    <glyph glyph-name="uni0439" unicode="&#x439;" horiz-adv-x="545" 
d="M72 169l48 340h70l-47 -338c-13 -91 32 -116 98 -116c65 0 117 26 130 116l47 338h70l-48 -340c-19 -134 -112 -181 -209 -181s-178 48 -159 181zM347 598c-57 0 -109 42 -97 126h54c-6 -47 18 -69 51 -69s65 22 71 69h55c-12 -84 -77 -126 -134 -126z" />
    <glyph glyph-name="afii10076" unicode="&#x43a;" horiz-adv-x="422" 
d="M161 278l100 108c85 92 110 129 175 129c11 0 17 -3 32 -6l-11 -73c-11 2 -20 4 -29 4c-40 0 -84 -70 -164 -145l-49 -45l202 -250h-94l-171 218l-30 -218h-71l72 509h70z" />
    <glyph glyph-name="uni043B" unicode="&#x43b;" horiz-adv-x="493" 
d="M157 509h357l-72 -509h-69l62 440h-218l-35 -248c-21 -151 -30 -204 -158 -204h-15l6 74h20c58 0 62 27 77 130z" />
    <glyph glyph-name="uni043C" unicode="&#x43c;" horiz-adv-x="500" 
d="M299 179h-45l-80 197l-53 -376h-70l72 509h62l102 -238l171 238h62l-72 -509h-70l53 376z" />
    <glyph glyph-name="uni043D" unicode="&#x43d;" horiz-adv-x="475" 
d="M123 509h70l-28 -205h231l28 205h70l-72 -509h-69l33 238h-231l-33 -238h-71z" />
    <glyph glyph-name="uni043E" unicode="&#x43e;" horiz-adv-x="577" 
d="M426 254c15 106 -7 201 -111 201c-99 0 -157 -100 -172 -203c-14 -101 16 -197 117 -197c99 0 151 96 166 199zM499 255c-20 -141 -112 -267 -250 -267c-139 0 -200 120 -179 266s116 268 255 268c141 0 195 -120 174 -267z" />
    <glyph glyph-name="uni043F" unicode="&#x43f;" horiz-adv-x="472" 
d="M353 522c101 0 134 -74 114 -217l-43 -305h-70l36 254c19 131 24 198 -61 198c-77 0 -141 -61 -159 -106l-49 -346h-70l54 385l16 124h61l-5 -78c43 56 113 91 176 91z" />
    <glyph glyph-name="uni0440" unicode="&#x440;" horiz-adv-x="570" 
d="M160 254c-15 -107 9 -196 105 -196s145 105 158 196s-7 199 -103 199s-145 -91 -160 -199zM23 -224l103 733h67l-6 -71c43 55 92 84 153 84c135 0 175 -126 154 -273c-20 -138 -109 -261 -229 -261c-59 0 -106 28 -129 89l-41 -290z" />
    <glyph glyph-name="uni0441" unicode="&#x441;" horiz-adv-x="469" 
d="M375 93l10 -56c-35 -33 -86 -49 -131 -49c-143 0 -204 125 -184 267c21 141 121 267 258 267c54 0 96 -17 118 -46l-25 -56c-31 25 -68 35 -103 35c-84 0 -160 -86 -176 -202c-16 -115 33 -198 125 -198c42 0 80 18 108 38z" />
    <glyph glyph-name="uni0442" unicode="&#x442;" horiz-adv-x="749" 
d="M121 0h-70l53 380l17 129h61l-5 -78c49 62 110 91 168 91c64 0 105 -27 116 -98c50 71 108 98 172 98c104 0 130 -79 113 -198l-45 -324h-70l37 264c16 114 23 187 -56 187c-59 0 -115 -46 -146 -114l-48 -337h-69l39 280c15 103 8 171 -61 171c-72 0 -135 -54 -157 -106
z" />
    <glyph glyph-name="uni0443" unicode="&#x443;" horiz-adv-x="460" 
d="M244 90l187 419h76l-234 -506c-70 -150 -75 -203 -226 -203h-24v80h31c87 0 90 17 138 129l-101 500h78z" />
    <glyph glyph-name="uni0444" unicode="&#x444;" horiz-adv-x="595" 
d="M216 82c18 0 39 3 60 14l48 346c-20 12 -38 14 -56 14c-60 0 -105 -88 -119 -185c-14 -96 7 -189 67 -189zM455 456c-19 0 -38 -4 -61 -16l-48 -343c19 -12 37 -15 55 -15c59 0 107 93 121 189c14 97 -8 185 -67 185zM352 641h70l-19 -134c21 9 42 15 61 15
c99 0 150 -110 130 -250c-20 -139 -103 -256 -201 -256c-19 0 -38 3 -57 12l-17 -123h-70l17 123c-21 -9 -42 -12 -61 -12c-98 0 -148 117 -128 256c20 140 100 250 200 250c18 0 37 -6 56 -15z" />
    <glyph glyph-name="uni0445" unicode="&#x445;" horiz-adv-x="502" 
d="M417 509h81l-200 -253l129 -256h-76l-101 204l-158 -204h-81l204 258l-129 251h81l97 -193z" />
    <glyph glyph-name="afii10088" unicode="&#x446;" horiz-adv-x="470" 
d="M385 -6h-328l72 515h70l-63 -449h207l63 449h70l-63 -448h41l-27 -192h-55z" />
    <glyph glyph-name="uni0447" unicode="&#x447;" horiz-adv-x="437" 
d="M160 401c-16 -110 13 -150 82 -150c47 0 99 35 122 100l23 158h70l-72 -509h-70l36 256c-26 -48 -78 -74 -132 -74c-106 0 -149 81 -131 209l16 118h71z" />
    <glyph glyph-name="uni0448" unicode="&#x448;" horiz-adv-x="749" 
d="M704 536h70l-53 -380l-17 -129h-61l5 78c-49 -62 -110 -91 -168 -91c-64 0 -105 27 -116 98c-50 -71 -108 -98 -172 -98c-104 0 -130 79 -113 198l45 324h70l-37 -264c-16 -114 -23 -187 56 -187c59 0 115 46 146 114l48 337h69l-39 -280c-15 -103 -8 -171 61 -171
c72 0 135 54 157 106z" />
    <glyph glyph-name="afii10091" unicode="&#x449;" horiz-adv-x="581" 
d="M478 -116l15 111h-442l72 514h70l-63 -449h123l63 449h71l-63 -449h123l63 449h71l-63 -449h41l-25 -176h-56z" />
    <glyph glyph-name="uni044A" unicode="&#x44a;" horiz-adv-x="483" 
d="M344 239h-130l-25 -174h133c56 0 88 50 94 92c5 38 -16 82 -72 82zM252 509l-29 -204h121c112 0 150 -72 139 -148c-11 -80 -67 -157 -179 -157h-194l62 440h-98l9 69h169z" />
    <glyph glyph-name="afii10093" unicode="&#x44b;" horiz-adv-x="628" 
d="M577 509l-72 -509h-69l71 509h70zM263 261h-105l-27 -196h107c55 0 87 59 93 104s-13 92 -68 92zM193 509l-26 -182h95c112 0 148 -76 136 -160s-67 -167 -179 -167h-168l72 509h70z" />
    <glyph glyph-name="afii10094" unicode="&#x44c;" horiz-adv-x="405" 
d="M263 261h-105l-27 -196h107c55 0 87 59 93 104s-13 92 -68 92zM193 509l-26 -182h95c112 0 148 -76 136 -160s-67 -167 -179 -167h-168l72 509h70z" />
    <glyph glyph-name="afii10095" unicode="&#x44d;" horiz-adv-x="423" 
d="M159 -12c-58 0 -106 17 -130 46l28 58c35 -25 70 -37 107 -37c87 0 154 66 177 165h-194l10 69h194c5 100 -36 166 -131 166c-45 0 -87 -18 -118 -38l-12 56c37 33 93 49 142 49c152 0 207 -126 187 -269c-20 -138 -111 -265 -260 -265z" />
    <glyph glyph-name="uni044E" unicode="&#x44e;" horiz-adv-x="621" 
d="M399 55c91 0 130 96 145 199c15 106 5 201 -90 201c-90 0 -137 -100 -152 -203c-14 -101 5 -197 97 -197zM617 255c-20 -141 -91 -267 -229 -267c-128 0 -172 101 -162 232h-73l-31 -220h-71l72 509h70l-31 -220h74c27 130 100 233 228 233c141 0 174 -120 153 -267z" />
    <glyph glyph-name="afii10097" unicode="&#x44f;" horiz-adv-x="443" 
d="M226 268h133l24 172h-133c-56 0 -93 -46 -99 -88c-5 -38 19 -84 75 -84zM321 0l29 200h-121l-112 -200h-84l125 209c-62 22 -83 83 -75 143c11 80 69 157 181 157h199l-72 -509h-70z" />
    <glyph glyph-name="uni0450" unicode="&#x450;" horiz-adv-x="529" 
d="M244 -12c74 0 136 26 179 64l-14 56c-36 -24 -88 -50 -153 -50c-81 0 -131 70 -115 183h314l5 35c21 150 -35 246 -149 246c-120 -4 -219 -115 -240 -267c-23 -164 42 -267 173 -267zM151 294c22 99 81 162 150 162c68 0 110 -55 95 -162h-245zM395 599l-125 189h118
l60 -189h-53z" />
    <glyph glyph-name="afii10071" unicode="&#x451;" horiz-adv-x="529" 
d="M244 -12c74 0 136 26 179 64l-14 56c-36 -24 -88 -50 -153 -50c-81 0 -131 70 -115 183h314l5 35c21 150 -35 246 -149 246c-120 -4 -219 -115 -240 -267c-23 -164 42 -267 173 -267zM151 294c22 99 81 162 150 162c68 0 110 -55 95 -162h-245zM469 598h-73l14 104h73z
M288 598h-71l14 104h72z" />
    <glyph glyph-name="afii10099" unicode="&#x452;" horiz-adv-x="303" 
d="M58 0l15 62h303l-15 -62h-303z" />
    <glyph glyph-name="uni0453" unicode="&#x453;" horiz-adv-x="325" 
d="M336 440h-152l-62 -440h-71l72 509h223zM393 788l-179 -190h-53l114 190h118z" />
    <glyph glyph-name="afii10101" unicode="&#x454;" horiz-adv-x="422" 
d="M246 -12c-149 0 -206 127 -186 265c20 143 110 269 262 269c49 0 100 -16 128 -49l-27 -56c-25 20 -62 38 -107 38c-95 0 -154 -66 -177 -166h193l-9 -69h-194c-4 -99 44 -165 131 -165c37 0 75 12 117 37l11 -58c-32 -29 -84 -46 -142 -46z" />
    <glyph glyph-name="uni0455" unicode="&#x455;" horiz-adv-x="443" 
d="M379 138v-2c-17 -96 -85 -148 -172 -148c-70 0 -128 26 -152 50l26 60c16 -12 63 -42 125 -42h7c52 0 89 28 101 80c0 2 1 4 1 6c4 32 -10 61 -59 77l-57 19c-89 28 -109 77 -101 139c10 73 70 144 173 145c59 0 103 -14 135 -35l-25 -57c-23 11 -63 27 -113 27
c-51 0 -93 -29 -100 -81c-4 -31 9 -55 56 -69l60 -19c72 -22 107 -66 95 -150z" />
    <glyph glyph-name="uni0456" unicode="&#x456;" horiz-adv-x="216" 
d="M245 728l-14 -97h-71l14 97h71zM218 536l-76 -536h-70l75 536h71z" />
    <glyph glyph-name="afii10104" unicode="&#x457;" horiz-adv-x="209" 
d="M203 509l-72 -509h-70l71 509h71zM127 612h-71l14 104h72zM308 612h-73l14 104h73z" />
    <glyph glyph-name="afii10105" unicode="&#x458;" horiz-adv-x="217" 
d="M239 730l-14 -96h-70l13 96h71zM211 536l-85 -604c-19 -131 -50 -177 -164 -177h-22l1 74h22c76 0 83 31 94 112l84 595h70z" />
    <glyph glyph-name="afii10106" unicode="&#x459;" horiz-adv-x="384" 
d="M163 192l45 317h337l-26 -185h88c112 0 148 -75 136 -158s-67 -166 -179 -166h-161l62 440h-197l-35 -248c-21 -151 -30 -204 -158 -204h-15l6 74h19c59 0 63 27 78 130zM509 258l-27 -193h102c56 0 87 58 93 102s-13 91 -69 91h-99z" />
    <glyph glyph-name="afii10107" unicode="&#x45a;" horiz-adv-x="685" 
d="M123 509h70l-28 -203h202l29 203h69l-26 -181h87c112 0 148 -76 136 -160s-67 -168 -179 -168h-159l33 240h-202l-33 -240h-71zM430 261l-27 -196h100c56 0 87 59 93 104s-13 92 -69 92h-97z" />
    <glyph glyph-name="afii10108" unicode="&#x45b;" horiz-adv-x="468" 
d="M151 228l-32 -228h-70l72 510h-40l8 56h39l24 171h71l-24 -171h173l-8 -56h-173l-26 -182c44 54 98 87 160 87c107 0 145 -74 126 -208l-29 -207h-69l23 169c16 114 10 171 -68 171c-72 0 -139 -64 -157 -112z" />
    <glyph glyph-name="afii10109" unicode="&#x45c;" horiz-adv-x="486" 
d="M161 278l100 108c85 92 110 129 175 129c11 0 17 -3 32 -6l-11 -73c-11 2 -20 4 -29 4c-40 0 -84 -70 -164 -145l-49 -45l202 -250h-94l-171 218l-30 -218h-71l72 509h70zM556 788l-179 -190h-53l114 190h118z" />
    <glyph glyph-name="afii10110" unicode="&#x45e;" horiz-adv-x="534" 
d="M244 90l187 419h76l-234 -506c-70 -150 -75 -203 -226 -203h-24v80h31c87 0 90 17 138 129l-101 500h78zM338 598c-57 0 -109 42 -97 126h54c-6 -47 18 -69 51 -69s65 22 71 69h55c-12 -84 -77 -126 -134 -126z" />
    <glyph glyph-name="afii10193" unicode="&#x45f;" horiz-adv-x="466" 
d="M72 169l48 340h70l-47 -338c-13 -91 32 -116 98 -116c65 0 117 26 130 116l47 338h70l-48 -340c-19 -134 -112 -181 -209 -181s-178 48 -159 181z" />
    <glyph glyph-name="uni1E02" unicode="&#x1e02;" horiz-adv-x="628" 
d="M457 923c42 0 57 -32 53 -64s-29 -65 -71 -65c-41 0 -57 33 -53 65s30 64 71 64zM201 350l-39 -282h142c119 0 186 43 200 141c13 92 -35 141 -137 141h-166zM245 660l-35 -245h161c63 0 133 17 148 120c16 110 -58 125 -168 125h-106zM69 0l102 730h201
c166 0 254 -49 236 -178c-10 -70 -48 -137 -122 -161c85 -20 113 -105 102 -183c-18 -128 -99 -208 -278 -208h-241z" />
    <glyph glyph-name="uni1E03" unicode="&#x1e03;" horiz-adv-x="572" 
d="M421 916c42 0 57 -32 53 -64s-29 -65 -71 -65c-41 0 -57 33 -53 65s30 64 71 64zM264 -12c130 0 213 125 234 273c19 136 -30 261 -157 261c-50 0 -112 -26 -157 -93l43 308l-72 -11l-102 -726h70l11 78c20 -57 68 -90 130 -90zM269 55c-97 0 -125 92 -110 200
c17 119 87 199 168 200c98 0 111 -110 98 -200c-13 -91 -57 -200 -156 -200z" />
    <glyph glyph-name="uni1E0A" unicode="&#x1e0a;" horiz-adv-x="743" 
d="M508 923c42 0 57 -32 53 -64s-29 -65 -71 -65c-41 0 -57 33 -53 65s30 64 71 64zM244 655l-81 -579h143c166 0 278 93 304 282c32 230 -82 297 -268 297h-98zM69 0l102 730h171c237 0 397 -88 357 -370c-34 -243 -197 -360 -413 -360h-217z" />
    <glyph glyph-name="uni1E0B" unicode="&#x1e0b;" horiz-adv-x="573" 
d="M402 916c42 0 57 -32 53 -64s-29 -65 -71 -65c-41 0 -57 33 -53 65s30 64 71 64zM244 61c-95 0 -115 97 -101 197c13 91 61 192 155 192c98 0 127 -87 112 -194c-15 -108 -72 -195 -166 -195zM229 -12c63 0 121 41 155 95l-3 -83h62l103 737l-71 -11l-41 -294
c-16 56 -71 90 -132 90c-116 0 -210 -116 -231 -261c-22 -160 34 -273 158 -273z" />
    <glyph glyph-name="uni1E1E" unicode="&#x1e1e;" horiz-adv-x="500" 
d="M399 923c42 0 57 -32 53 -64s-29 -65 -71 -65c-41 0 -57 33 -53 65s30 64 71 64zM489 409l-10 -70h-279l-48 -339h-83l102 730h379l-17 -75h-289l-35 -246h280z" />
    <glyph glyph-name="uni1E1F" unicode="&#x1e1f;" horiz-adv-x="303" 
d="M81 452l8 57h67l3 18c27 179 71 223 181 223h30v-62h-39c-73 0 -85 -40 -102 -160l-2 -19h104l-8 -57h-104l-64 -452h-70l63 452h-67zM295 929c42 0 57 -32 53 -64s-29 -65 -71 -65c-41 0 -57 33 -53 65s30 64 71 64z" />
    <glyph glyph-name="uni1E40" unicode="&#x1e40;" horiz-adv-x="871" 
d="M561 923c42 0 57 -32 53 -64s-29 -65 -71 -65c-41 0 -57 33 -53 65s30 64 71 64zM229 577l-81 -577h-78l102 730h90l175 -561l330 561h86l-103 -730h-78l81 574l-283 -485h-91z" />
    <glyph glyph-name="uni1E41" unicode="&#x1e41;" horiz-adv-x="867" 
d="M51 0h70l49 345c22 52 85 106 157 106c69 0 76 -68 61 -171l-39 -280h69l48 337c31 68 87 114 146 114c79 0 72 -73 56 -187l-37 -264h70l45 324c17 119 -9 198 -113 198c-64 0 -122 -27 -172 -98c-11 71 -52 98 -116 98c-58 0 -119 -29 -168 -91l5 78h-61l-17 -129z
M535 727c42 0 57 -32 53 -64s-29 -65 -71 -65c-41 0 -57 33 -53 65s30 64 71 64z" />
    <glyph glyph-name="uni1E56" unicode="&#x1e56;" horiz-adv-x="557" 
d="M434 923c42 0 57 -32 53 -64s-29 -65 -71 -65c-41 0 -57 33 -53 65s30 64 71 64zM323 380c154 0 178 79 188 152c12 86 -44 121 -128 121h-140l-38 -272s87 -1 118 -1zM151 0h-83l103 730h222c130 0 223 -55 203 -196c-19 -136 -87 -229 -290 -229c-28 0 -77 4 -111 7z
" />
    <glyph glyph-name="uni1E57" unicode="&#x1e57;" horiz-adv-x="570" 
d="M394 727c42 0 57 -32 53 -64s-29 -65 -71 -65c-41 0 -57 33 -53 65s30 64 71 64zM160 254c-15 -107 9 -196 105 -196s145 105 158 196s-7 199 -103 199s-145 -91 -160 -199zM23 -224l103 733h67l-6 -71c43 55 92 84 153 84c135 0 175 -126 154 -273
c-20 -138 -109 -261 -229 -261c-59 0 -106 28 -129 89l-41 -290z" />
    <glyph glyph-name="uni1E60" unicode="&#x1e60;" horiz-adv-x="605" 
d="M431 923c42 0 57 -32 53 -64s-29 -65 -71 -65c-41 0 -57 33 -53 65s30 64 71 64zM85 119l-34 -70c38 -27 119 -60 238 -60c141 0 246 70 267 222c17 119 -40 172 -139 198l-124 33c-63 17 -95 48 -87 105c12 84 74 123 182 123c74 0 143 -25 176 -46l34 68
c-42 31 -114 53 -198 53c-150 0 -259 -61 -279 -203c-14 -97 38 -151 129 -176l130 -36c83 -23 100 -63 92 -122c-14 -99 -72 -145 -169 -145c-87 0 -161 24 -218 56z" />
    <glyph glyph-name="uni1E61" unicode="&#x1e61;" horiz-adv-x="443" 
d="M317 727c42 0 57 -32 53 -64s-29 -65 -71 -65c-41 0 -57 33 -53 65s30 64 71 64zM379 136v2c12 84 -23 128 -95 150l-60 19c-47 14 -60 38 -56 69c7 52 49 81 100 81c50 0 90 -16 113 -27l25 57c-32 21 -76 35 -135 35c-103 -1 -163 -72 -173 -145
c-8 -62 12 -111 101 -139l57 -19c49 -16 63 -45 59 -77c0 -2 -1 -4 -1 -6c-12 -52 -49 -80 -101 -80h-7c-62 0 -109 30 -125 42l-26 -60c24 -24 82 -50 152 -50c87 0 155 52 172 148z" />
    <glyph glyph-name="uni1E6A" unicode="&#x1e6a;" horiz-adv-x="500" 
d="M376 923c42 0 57 -32 53 -64s-29 -65 -71 -65c-41 0 -57 33 -53 65s30 64 71 64zM91 655l10 75h490l-11 -75h-204l-91 -655h-83l91 655h-202z" />
    <glyph glyph-name="uni1E6B" unicode="&#x1e6b;" horiz-adv-x="327" 
d="M284 892c42 0 57 -32 53 -64s-29 -65 -71 -65c-41 0 -57 33 -53 65s30 64 71 64zM214 452l-39 -281c-13 -94 -6 -113 50 -113c8 0 24 1 57 4l-3 -65c-53 -5 -66 -7 -80 -7c-112 0 -111 61 -90 215l35 247h-70l13 57h65l46 200l53 5l-29 -205h122l-9 -57h-121z" />
    <glyph glyph-name="Wgrave" unicode="&#x1e80;" horiz-adv-x="1040" 
d="M676 802l-125 189h118l60 -189h-53zM715 95l287 635h85l-337 -730h-96l-75 598l-266 -598h-95l-128 730h86l106 -634l262 608h96z" />
    <glyph glyph-name="wgrave" unicode="&#x1e81;" horiz-adv-x="780" 
d="M520 611l-125 189h118l60 -189h-53zM78 509h73l45 -405l178 405h82l60 -404l156 404h71l-210 -509h-69l-61 431l-189 -431h-70z" />
    <glyph glyph-name="Wacute" unicode="&#x1e82;" horiz-adv-x="1040" 
d="M755 991l-179 -190h-53l114 190h118zM715 95l287 635h85l-337 -730h-96l-75 598l-266 -598h-95l-128 730h86l106 -634l262 608h96z" />
    <glyph glyph-name="wacute" unicode="&#x1e83;" horiz-adv-x="780" 
d="M599 800l-179 -190h-53l114 190h118zM78 509h73l45 -405l178 405h82l60 -404l156 404h71l-210 -509h-69l-61 431l-189 -431h-70z" />
    <glyph glyph-name="Wdieresis" unicode="&#x1e84;" horiz-adv-x="1040" 
d="M569 803h-71l14 104h72zM750 803h-73l14 104h73zM715 95l287 635h85l-337 -730h-96l-75 598l-266 -598h-95l-128 730h86l106 -634l262 608h96z" />
    <glyph glyph-name="wdieresis" unicode="&#x1e85;" horiz-adv-x="780" 
d="M413 612h-71l14 104h72zM594 612h-73l14 104h73zM78 509h73l45 -405l178 405h82l60 -404l156 404h71l-210 -509h-69l-61 431l-189 -431h-70z" />
    <glyph glyph-name="uni1ebc" unicode="&#x1ebc;" horiz-adv-x="556" 
d="M290 821h-50c10 73 44 107 93 107c57 0 111 -46 128 -46h1c19 1 24 25 28 46h50c-9 -67 -35 -107 -83 -107c-41 0 -99 48 -135 48h-1c-15 0 -26 -21 -31 -48zM511 413l-11 -75h-301l-36 -262h333l-17 -76h-410l102 730h404l-17 -75h-314l-34 -242h301z" />
    <glyph glyph-name="uni1ebd" unicode="&#x1ebd;" horiz-adv-x="531" 
d="M244 -12c74 0 136 26 179 64l-14 56c-36 -24 -88 -50 -153 -50c-81 0 -131 70 -115 183h314l5 35c21 150 -35 246 -149 246c-120 -4 -219 -115 -240 -267c-23 -164 42 -267 173 -267zM151 294c22 99 81 162 150 162c68 0 110 -55 95 -162h-245zM251 630h-50
c10 73 44 107 93 107c57 0 111 -46 128 -46h1c19 1 24 25 28 46h50c-9 -67 -35 -107 -83 -107c-41 0 -99 48 -135 48h-1c-15 0 -26 -21 -31 -48z" />
    <glyph glyph-name="Ygrave" unicode="&#x1ef2;" horiz-adv-x="606" 
d="M459 802l-125 189h118l60 -189h-53zM672 730l-316 -430l-42 -300h-83l43 300l-172 430h86l144 -350l251 350h89z" />
    <glyph glyph-name="ygrave" unicode="&#x1ef3;" horiz-adv-x="483" 
d="M372 611l-125 189h118l60 -189h-53zM147 509h-74l108 -505c-70 -158 -87 -175 -186 -175h-12l-3 -74h23c130 0 185 89 241 214l243 540h-74s-126 -294 -180 -418z" />
    <glyph glyph-name="uni1ef8" unicode="&#x1ef8;" horiz-adv-x="606" 
d="M315 821h-50c10 73 44 107 93 107c57 0 111 -46 128 -46h1c19 1 24 25 28 46h50c-9 -67 -35 -107 -83 -107c-41 0 -99 48 -135 48h-1c-15 0 -26 -21 -31 -48zM672 730l-316 -430l-42 -300h-83l43 300l-172 430h86l144 -350l251 350h89z" />
    <glyph glyph-name="uni1ef9" unicode="&#x1ef9;" horiz-adv-x="483" 
d="M227 630h-50c10 73 44 107 93 107c57 0 111 -46 128 -46h1c19 1 24 25 28 46h50c-9 -67 -35 -107 -83 -107c-41 0 -99 48 -135 48h-1c-15 0 -26 -21 -31 -48zM147 509h-74l108 -505c-70 -158 -87 -175 -186 -175h-12l-3 -74h23c130 0 185 89 241 214l243 540h-74
s-126 -294 -180 -418z" />
    <glyph glyph-name="endash" unicode="&#x2013;" horiz-adv-x="598" 
d="M587 330l-10 -73h-475l9 73h476z" />
    <glyph glyph-name="emdash" unicode="&#x2014;" horiz-adv-x="1102" 
d="M1091 330l-10 -73h-979l9 73h980z" />
    <glyph glyph-name="quoteleft" unicode="&#x2018;" horiz-adv-x="235" 
d="M287 769l-75 -231h-76l96 231h55z" />
    <glyph glyph-name="quoteright" unicode="&#x2019;" horiz-adv-x="232" 
d="M192 538h-54l76 231h74z" />
    <glyph glyph-name="quotesinglbase" unicode="&#x201a;" horiz-adv-x="232" 
d="M42 -125l75 230h75l-95 -230h-55z" />
    <glyph glyph-name="quotedblleft" unicode="&#x201c;" horiz-adv-x="379" 
d="M136 538l95 231h57l-77 -231h-75zM281 538l95 231h56l-75 -231h-76z" />
    <glyph glyph-name="quotedblright" unicode="&#x201d;" horiz-adv-x="369" 
d="M272 538l76 231h76l-97 -231h-55zM138 538l76 231h75l-96 -231h-55z" />
    <glyph glyph-name="quotedblbase" unicode="&#x201e;" horiz-adv-x="380" 
d="M189 -125l75 230h76l-95 -230h-56zM42 -125l74 230h75l-94 -230h-55z" />
    <glyph glyph-name="dagger" unicode="&#x2020;" horiz-adv-x="399" 
d="M176 59l60 433h-133l9 69h134l28 201h61l-28 -201h141l-10 -69h-149l-61 -433h-52z" />
    <glyph glyph-name="daggerdbl" unicode="&#x2021;" horiz-adv-x="433" 
d="M234 295l32 222h-141l10 68h144l12 177h64l-25 -177h142l-10 -68h-145l-31 -222h142l-10 -67h-142l-12 -169h-74l35 169h-143l10 67h142z" />
    <glyph glyph-name="bullet" unicode="&#x2022;" horiz-adv-x="402" 
d="M395 368c-13 -90 -88 -165 -164 -165c-78 0 -127 74 -115 162c13 90 89 165 163 165c76 0 128 -74 116 -162z" />
    <glyph glyph-name="ellipsis" unicode="&#x2026;" horiz-adv-x="723" 
d="M604 -6c-41 0 -58 33 -54 65s30 64 72 64s57 -32 53 -64s-29 -65 -71 -65zM363 -6c-41 0 -58 33 -54 65s30 64 72 64s57 -32 53 -64s-29 -65 -71 -65zM122 -6c-41 0 -58 33 -54 65s30 64 72 64s57 -32 53 -64s-29 -65 -71 -65z" />
    <glyph glyph-name="perthousand" unicode="&#x2030;" horiz-adv-x="1057" 
d="M181 -11h-61l500 766h71zM286 702c-51 0 -84 -58 -94 -126c-10 -72 7 -127 60 -127c50 0 83 58 93 126c10 72 -7 127 -59 127zM551 298c-61 0 -97 -57 -107 -125c-10 -72 11 -128 72 -128s99 61 108 128c10 71 -11 125 -73 125zM506 -15c-101 0 -140 76 -124 188
c15 106 76 186 179 186s140 -74 124 -187c-15 -105 -77 -187 -179 -187zM242 389c-87 0 -126 75 -110 187c15 107 75 185 163 185c89 0 126 -73 110 -187c-15 -105 -76 -185 -163 -185zM861 -15c-100 0 -140 76 -124 188c15 106 76 186 179 186c101 0 139 -72 123 -187
c-15 -105 -76 -187 -178 -187zM906 298c-62 0 -99 -57 -109 -125c-10 -72 13 -128 75 -128c61 0 98 60 108 128c10 70 -14 125 -74 125z" />
    <glyph glyph-name="guilsinglleft" unicode="&#x2039;" horiz-adv-x="284" 
d="M233 479h66l-135 -194l77 -196h-65l-80 196z" />
    <glyph glyph-name="guilsinglright" unicode="&#x203a;" horiz-adv-x="286" 
d="M277 286l-141 -197h-65l136 197l-79 193h65z" />
    <glyph glyph-name="fraction" unicode="&#x2044;" horiz-adv-x="515" 
d="M532 755h59l-504 -755h-59z" />
    <glyph glyph-name="foursuperior" unicode="&#x2074;" horiz-adv-x="344" 
d="M165 478h95l17 123c3 25 6 39 8 53zM289 323h-50l14 99h-150l6 49l184 271h56l-37 -264h42l-3 -56h-48z" />
    <glyph glyph-name="Euro" unicode="&#x20ac;" horiz-adv-x="552" 
d="M89 283l15 50h42c0 8 1 16 2 24c2 19 8 38 11 56h-52l17 54h50c46 162 146 277 296 277c57 0 96 -14 126 -46l-13 -88c-25 36 -64 58 -113 58c-104 0 -171 -81 -207 -201h254l-16 -54h-254c-6 -24 -12 -80 -13 -80h249l-12 -50h-237c-3 -115 36 -217 143 -217
c43 0 89 16 138 53l-13 -85c-44 -31 -92 -45 -146 -45c-159 0 -211 151 -211 294h-56z" />
    <glyph glyph-name="afii61352" unicode="&#x2116;" horiz-adv-x="1304" 
d="M1194 0h-92l-292 605l-85 -605h-78l102 730h91l295 -606l85 606h77zM426 254c15 106 -7 201 -111 201c-99 0 -157 -100 -172 -203c-14 -101 16 -197 117 -197c99 0 151 96 166 199zM499 255c-20 -141 -112 -267 -250 -267c-139 0 -200 120 -179 266s116 268 255 268
c141 0 195 -120 174 -267z" />
    <glyph glyph-name="trademark" unicode="&#x2122;" horiz-adv-x="827" 
d="M145 730h291l-7 -49h-120l-54 -384h-53l53 384h-117zM491 730h73l76 -328l173 328h70l-61 -433h-53l50 362l-173 -327h-39l-74 327l-51 -362h-52z" />
    <glyph glyph-name="partialdiff" unicode="&#x2202;" horiz-adv-x="553" 
d="M237 686l4 72c42 28 98 49 154 49c136 0 194 -113 159 -359c-32 -227 -140 -462 -321 -462c-126 0 -168 103 -149 235c24 173 136 305 268 305c62 0 107 -31 130 -86l6 39c22 159 -16 257 -115 257c-46 0 -96 -23 -136 -50zM244 58c99 0 182 129 219 286
c-8 59 -44 113 -109 113c-94 0 -183 -110 -201 -237c-14 -98 22 -162 91 -162z" />
    <glyph glyph-name="uni2206" unicode="&#x2206;" horiz-adv-x="608" 
d="M142 85h354l-93 498l-8 58l-23 -58zM581 42l-6 -42h-536l6 42l325 710h86z" />
    <glyph glyph-name="product" unicode="&#x220f;" horiz-adv-x="669" 
d="M614 655h-370l-92 -655h-83l102 730h537l-103 -730h-83z" />
    <glyph glyph-name="summation" unicode="&#x2211;" horiz-adv-x="583" 
d="M534 -95l-11 -79h-509l7 49l340 416l-215 407l7 50h481l-10 -75h-384l217 -378l-336 -390h413z" />
    <glyph glyph-name="minus" unicode="&#x2212;" horiz-adv-x="579" 
d="M112 333h455l-10 -72h-455z" />
    <glyph glyph-name="radical" unicode="&#x221a;" horiz-adv-x="553" 
d="M589 839h53l-331 -920h-63l-89 444l-71 -15l1 59l122 27l64 -322l14 -91z" />
    <glyph glyph-name="infinity" unicode="&#x221e;" horiz-adv-x="826" 
d="M812 313c-16 -112 -98 -189 -189 -189c-69 0 -120 44 -170 132c-65 -77 -133 -132 -209 -132c-104 0 -151 91 -136 198c14 97 96 175 186 175c78 0 129 -53 174 -133c63 77 129 133 209 133c104 0 150 -78 135 -184zM160 312c-9 -63 27 -126 94 -126c61 0 122 57 174 125
c-32 72 -77 125 -142 125c-67 0 -117 -57 -126 -124zM755 325c8 61 -28 111 -90 111c-63 0 -123 -60 -172 -124c44 -82 81 -126 139 -126c71 0 112 62 123 139z" />
    <glyph glyph-name="integral" unicode="&#x222b;" horiz-adv-x="318" 
d="M123 -24l96 684c16 113 58 197 149 197c23 0 36 -5 54 -11l-9 -68c-10 5 -27 8 -43 8c-55 0 -71 -39 -81 -113l-97 -685c-16 -113 -56 -197 -147 -197c-23 0 -36 3 -54 9l9 68c10 -5 26 -7 42 -7c55 0 71 41 81 115z" />
    <glyph glyph-name="approxequal" unicode="&#x2248;" horiz-adv-x="600" 
d="M561 482l43 -14c-26 -81 -70 -134 -147 -134c-40 0 -75 16 -121 50c-28 21 -54 36 -81 36c-46 0 -75 -33 -96 -86l-46 14c26 83 79 134 151 134c40 0 73 -18 113 -46c38 -27 63 -40 89 -40c40 0 69 30 95 86zM534 288l44 -16c-26 -81 -70 -134 -148 -134
c-38 0 -73 17 -120 50c-28 21 -54 36 -81 36c-46 0 -76 -34 -98 -87l-45 15c27 84 79 136 151 136c84 0 146 -87 202 -87c40 0 69 32 95 87z" />
    <glyph glyph-name="notequal" unicode="&#x2260;" horiz-adv-x="541" 
d="M447 589l51 -7l-72 -135h126l-5 -65h-157l-92 -148h225l-5 -62h-256l-86 -149l-50 10l73 139h-118l5 62h151l90 148h-217l5 65h248z" />
    <glyph glyph-name="lessequal" unicode="&#x2264;" horiz-adv-x="537" 
d="M495 69l-9 -65h-438l9 65h438zM500 187l-10 -74l-380 237l6 44l448 247l-10 -74l-370 -193z" />
    <glyph glyph-name="greaterequal" unicode="&#x2265;" horiz-adv-x="537" 
d="M150 568l10 74l380 -248l-6 -43l-450 -237l10 74l372 184zM502 69l-9 -65h-436l9 65h436z" />
    <glyph glyph-name="lozenge" unicode="&#x25ca;" horiz-adv-x="518" 
d="M396 773l137 -398l-253 -398h-50l-137 397l253 399h50zM265 52l208 322c-37 107 -76 213 -112 321c-70 -106 -139 -213 -208 -320c37 -107 73 -217 112 -323z" />
    <glyph glyph-name="ff" unicode="&#xfb00;" horiz-adv-x="496" 
d="M76 0l64 452h-68l9 57h67c27 193 70 241 184 241h30l-1 -62h-39c-76 0 -85 -45 -104 -179h175c27 193 69 241 183 241h30v-62h-39c-76 0 -85 -45 -104 -179h104l-8 -57h-104l-64 -452h-70l64 452h-175l-64 -452h-70z" />
    <glyph glyph-name="fi" unicode="&#xfb01;" horiz-adv-x="459" 
d="M76 0l64 452h-68l9 57h67c27 193 70 241 184 241h30l-1 -62h-39c-76 0 -85 -45 -104 -179h254l-72 -509h-69l63 452h-184l-64 -452h-70zM433 730h70l-13 -96h-71z" />
    <glyph glyph-name="fl" unicode="&#xfb02;" horiz-adv-x="518" 
d="M458 -6c-113 0 -110 65 -85 243l60 434c-45 4 -69 5 -84 5c-13 0 -18 -1 -20 -1c-66 0 -93 -40 -111 -166h104l-8 -57h-104l-64 -452h-70l64 452h-68l9 57h67c25 180 88 229 186 229c8 0 17 1 177 -10l-71 -508c-17 -117 -22 -158 43 -158c10 0 9 0 31 2l-4 -64
c-41 -5 -45 -6 -52 -6z" />
    <glyph glyph-name="ffi" unicode="&#xfb03;" horiz-adv-x="666" 
d="M210 452l-64 -452h-70l64 452h-68l9 57h67c27 193 70 241 184 241h30l-1 -62h-39c-76 0 -85 -45 -104 -179h163c27 193 59 241 173 241h32l-5 -62h-36c-64 0 -74 -32 -86 -120l-8 -59h229l-72 -509h-69l63 452h-159l-64 -452h-69l63 452h-163zM642 730h69l-14 -96h-69z
" />
    <glyph glyph-name="fj" horiz-adv-x="473" 
d="M446 730h79l-13 -96h-79zM211 -245v74h24c83 0 89 31 100 112l76 538h-183l-67 -479h-79l67 479h-72l8 57h72c24 172 70 214 195 214h34v-62h-43c-83 0 -91 -38 -107 -152h262l-85 -604c-19 -131 -53 -177 -178 -177h-24z" />
    </font>
</defs>
</svg>
