<?xml version="1.0" standalone="no"?>
<!DOCTYPE svg PUBLIC "-//W3C//DTD SVG 1.1//EN" "http://www.w3.org/Graphics/SVG/1.1/DTD/svg11.dtd" >
<svg xmlns="http://www.w3.org/2000/svg" xmlns:xlink="http://www.w3.org/1999/xlink" version="1.1">
<metadata>
Created by FontForge 20230101 at Tue Mar 29 13:04:51 2022
 By Glenn Lewis
</metadata>
<defs>
<font id="MRKMaston-Regular" horiz-adv-x="0" >
  <font-face 
    font-family="MRK Maston"
    font-weight="400"
    font-stretch="normal"
    units-per-em="1000"
    panose-1="0 0 0 0 0 0 0 0 0 0"
    ascent="800"
    descent="-200"
    cap-height="700"
    bbox="-27 -220 973 947"
    underline-thickness="50"
    underline-position="-125"
    unicode-range="U+0020-2265"
  />
<missing-glyph horiz-adv-x="500" 
d="M410 -200h-317v1000h317v-1000zM333 -131v33h-102l70 47h32v33h-166v-33h70l-70 -47v-33h166zM333 5v113h-166v-113h166zM333 178v113h-100v-56h34v23h33v-47h-100v80h-33v-113h166zM333 313v100h-33v-66h-133v-34h166zM267 370v70h66v33h-166v-33h66v-37h-66v-33h100z
M333 500v34h-66v70h-100v-104h166zM333 630v33h-66v37h66v33h-165v-33h65v-37h-66v-33h166zM200 85h100v-47h-100v47zM200 570h33v-36h-33v36z" />
    <glyph glyph-name=".notdef" horiz-adv-x="500" 
d="M410 -200h-317v1000h317v-1000zM333 -131v33h-102l70 47h32v33h-166v-33h70l-70 -47v-33h166zM333 5v113h-166v-113h166zM333 178v113h-100v-56h34v23h33v-47h-100v80h-33v-113h166zM333 313v100h-33v-66h-133v-34h166zM267 370v70h66v33h-166v-33h66v-37h-66v-33h100z
M333 500v34h-66v70h-100v-104h166zM333 630v33h-66v37h66v33h-165v-33h65v-37h-66v-33h166zM200 85h100v-47h-100v47zM200 570h33v-36h-33v36z" />
    <glyph glyph-name="space" unicode=" " horiz-adv-x="200" 
 />
    <glyph glyph-name="space" unicode="&#xa0;" horiz-adv-x="200" 
 />
    <glyph glyph-name="space" unicode="&#xa0;" horiz-adv-x="200" 
 />
    <glyph glyph-name="A" unicode="A" horiz-adv-x="463" 
d="M19 30q5 15 22 72t21 81l84 517h161l84 -517q4 -24 21 -81t22 -72l9 -30h-114q-13 73 -30 185q-43 4 -72 4q-21 0 -37 -1t-36 -4q-17 -111 -30 -184h-114zM227 265q35 0 58 3q-23 150 -53 351h-11q-29 -201 -53 -351q30 -3 59 -3z" />
    <glyph glyph-name="A" unicode="a" horiz-adv-x="463" 
d="M19 30q5 15 22 72t21 81l84 517h161l84 -517q4 -24 21 -81t22 -72l9 -30h-114q-13 73 -30 185q-43 4 -72 4q-21 0 -37 -1t-36 -4q-17 -111 -30 -184h-114zM227 265q35 0 58 3q-23 150 -53 351h-11q-29 -201 -53 -351q30 -3 59 -3z" />
    <glyph glyph-name="A" unicode="a" horiz-adv-x="463" 
d="M19 30q5 15 22 72t21 81l84 517h161l84 -517q4 -24 21 -81t22 -72l9 -30h-114q-13 73 -30 185q-43 4 -72 4q-21 0 -37 -1t-36 -4q-17 -111 -30 -184h-114zM227 265q35 0 58 3q-23 150 -53 351h-11q-29 -201 -53 -351q30 -3 59 -3z" />
    <glyph glyph-name="Aacute" unicode="&#xc1;" horiz-adv-x="463" 
d="M19 30q5 15 22 72t21 81l84 517h161l84 -517q4 -24 21 -81t22 -72l9 -30h-114q-13 73 -30 185q-43 4 -72 4q-21 0 -37 -1t-36 -4q-17 -111 -30 -184h-114zM227 265q35 0 58 3q-23 150 -53 351h-11q-29 -201 -53 -351q30 -3 59 -3zM154 809l36 59q8 13 26 46l15 30
q30 -32 69 -52l-22 -21q-20 -18 -40 -41l-42 -49z" />
    <glyph glyph-name="Aacute" unicode="&#xe1;" horiz-adv-x="463" 
d="M19 30q5 15 22 72t21 81l84 517h161l84 -517q4 -24 21 -81t22 -72l9 -30h-114q-13 73 -30 185q-43 4 -72 4q-21 0 -37 -1t-36 -4q-17 -111 -30 -184h-114zM227 265q35 0 58 3q-23 150 -53 351h-11q-29 -201 -53 -351q30 -3 59 -3zM154 809l36 59q8 13 26 46l15 30
q30 -32 69 -52l-22 -21q-20 -18 -40 -41l-42 -49z" />
    <glyph glyph-name="Aacute" unicode="&#xe1;" horiz-adv-x="463" 
d="M19 30q5 15 22 72t21 81l84 517h161l84 -517q4 -24 21 -81t22 -72l9 -30h-114q-13 73 -30 185q-43 4 -72 4q-21 0 -37 -1t-36 -4q-17 -111 -30 -184h-114zM227 265q35 0 58 3q-23 150 -53 351h-11q-29 -201 -53 -351q30 -3 59 -3zM154 809l36 59q8 13 26 46l15 30
q30 -32 69 -52l-22 -21q-20 -18 -40 -41l-42 -49z" />
    <glyph glyph-name="Abreve" unicode="&#x102;" horiz-adv-x="463" 
d="M19 30q5 15 22 72t21 81l84 517h161l84 -517q4 -24 21 -81t22 -72l9 -30h-114q-13 73 -30 185q-43 4 -72 4q-21 0 -37 -1t-36 -4q-17 -111 -30 -184h-114zM227 265q35 0 58 3q-23 150 -53 351h-11q-29 -201 -53 -351q30 -3 59 -3zM149.5 844q-31.5 30 -41.5 74h70
q4 -19 18.5 -30t31.5 -11t30.5 11t17.5 30h70q-10 -44 -41.5 -74t-76.5 -30q-47 0 -78.5 30z" />
    <glyph glyph-name="Abreve" unicode="&#x103;" horiz-adv-x="463" 
d="M19 30q5 15 22 72t21 81l84 517h161l84 -517q4 -24 21 -81t22 -72l9 -30h-114q-13 73 -30 185q-43 4 -72 4q-21 0 -37 -1t-36 -4q-17 -111 -30 -184h-114zM227 265q35 0 58 3q-23 150 -53 351h-11q-29 -201 -53 -351q30 -3 59 -3zM149.5 844q-31.5 30 -41.5 74h70
q4 -19 18.5 -30t31.5 -11t30.5 11t17.5 30h70q-10 -44 -41.5 -74t-76.5 -30q-47 0 -78.5 30z" />
    <glyph glyph-name="Abreve" unicode="&#x103;" horiz-adv-x="463" 
d="M19 30q5 15 22 72t21 81l84 517h161l84 -517q4 -24 21 -81t22 -72l9 -30h-114q-13 73 -30 185q-43 4 -72 4q-21 0 -37 -1t-36 -4q-17 -111 -30 -184h-114zM227 265q35 0 58 3q-23 150 -53 351h-11q-29 -201 -53 -351q30 -3 59 -3zM149.5 844q-31.5 30 -41.5 74h70
q4 -19 18.5 -30t31.5 -11t30.5 11t17.5 30h70q-10 -44 -41.5 -74t-76.5 -30q-47 0 -78.5 30z" />
    <glyph glyph-name="Acircumflex" unicode="&#xc2;" horiz-adv-x="463" 
d="M19 30q5 15 22 72t21 81l84 517h161l84 -517q4 -24 21 -81t22 -72l9 -30h-114q-13 73 -30 185q-43 4 -72 4q-21 0 -37 -1t-36 -4q-17 -111 -30 -184h-114zM227 265q35 0 58 3q-23 150 -53 351h-11q-29 -201 -53 -351q30 -3 59 -3zM132.5 857.5q11.5 11.5 25.5 27.5
q16 18 25 30.5t20 30.5h47q11 -18 20 -30.5t25 -30.5q14 -16 25.5 -27.5t29.5 -27.5l-55 -46q-22 32 -46 62q-4 4 -23 30q-12 -18 -22 -30q-24 -30 -46 -62l-55 46q18 16 29.5 27.5z" />
    <glyph glyph-name="Acircumflex" unicode="&#xe2;" horiz-adv-x="463" 
d="M19 30q5 15 22 72t21 81l84 517h161l84 -517q4 -24 21 -81t22 -72l9 -30h-114q-13 73 -30 185q-43 4 -72 4q-21 0 -37 -1t-36 -4q-17 -111 -30 -184h-114zM227 265q35 0 58 3q-23 150 -53 351h-11q-29 -201 -53 -351q30 -3 59 -3zM132.5 857.5q11.5 11.5 25.5 27.5
q16 18 25 30.5t20 30.5h47q11 -18 20 -30.5t25 -30.5q14 -16 25.5 -27.5t29.5 -27.5l-55 -46q-22 32 -46 62q-4 4 -23 30q-12 -18 -22 -30q-24 -30 -46 -62l-55 46q18 16 29.5 27.5z" />
    <glyph glyph-name="Acircumflex" unicode="&#xe2;" horiz-adv-x="463" 
d="M19 30q5 15 22 72t21 81l84 517h161l84 -517q4 -24 21 -81t22 -72l9 -30h-114q-13 73 -30 185q-43 4 -72 4q-21 0 -37 -1t-36 -4q-17 -111 -30 -184h-114zM227 265q35 0 58 3q-23 150 -53 351h-11q-29 -201 -53 -351q30 -3 59 -3zM132.5 857.5q11.5 11.5 25.5 27.5
q16 18 25 30.5t20 30.5h47q11 -18 20 -30.5t25 -30.5q14 -16 25.5 -27.5t29.5 -27.5l-55 -46q-22 32 -46 62q-4 4 -23 30q-12 -18 -22 -30q-24 -30 -46 -62l-55 46q18 16 29.5 27.5z" />
    <glyph glyph-name="Adieresis" unicode="&#xc4;" horiz-adv-x="463" 
d="M19 30q5 15 22 72t21 81l84 517h161l84 -517q4 -24 21 -81t22 -72l9 -30h-114q-13 73 -30 185q-43 4 -72 4q-21 0 -37 -1t-36 -4q-17 -111 -30 -184h-114zM227 265q35 0 58 3q-23 150 -53 351h-11q-29 -201 -53 -351q30 -3 59 -3zM258.5 828q-14.5 15 -14.5 41
q0 27 14.5 41t41.5 14q26 0 40.5 -14.5t14.5 -40.5q0 -27 -14.5 -41.5t-40.5 -14.5q-27 0 -41.5 15zM113.5 910q14.5 14 41.5 14q26 0 40.5 -14.5t14.5 -40.5q0 -27 -14.5 -41.5t-40.5 -14.5q-27 0 -41.5 15t-14.5 41q0 27 14.5 41z" />
    <glyph glyph-name="Adieresis" unicode="&#xe4;" horiz-adv-x="463" 
d="M19 30q5 15 22 72t21 81l84 517h161l84 -517q4 -24 21 -81t22 -72l9 -30h-114q-13 73 -30 185q-43 4 -72 4q-21 0 -37 -1t-36 -4q-17 -111 -30 -184h-114zM227 265q35 0 58 3q-23 150 -53 351h-11q-29 -201 -53 -351q30 -3 59 -3zM258.5 828q-14.5 15 -14.5 41
q0 27 14.5 41t41.5 14q26 0 40.5 -14.5t14.5 -40.5q0 -27 -14.5 -41.5t-40.5 -14.5q-27 0 -41.5 15zM113.5 910q14.5 14 41.5 14q26 0 40.5 -14.5t14.5 -40.5q0 -27 -14.5 -41.5t-40.5 -14.5q-27 0 -41.5 15t-14.5 41q0 27 14.5 41z" />
    <glyph glyph-name="Adieresis" unicode="&#xe4;" horiz-adv-x="463" 
d="M19 30q5 15 22 72t21 81l84 517h161l84 -517q4 -24 21 -81t22 -72l9 -30h-114q-13 73 -30 185q-43 4 -72 4q-21 0 -37 -1t-36 -4q-17 -111 -30 -184h-114zM227 265q35 0 58 3q-23 150 -53 351h-11q-29 -201 -53 -351q30 -3 59 -3zM258.5 828q-14.5 15 -14.5 41
q0 27 14.5 41t41.5 14q26 0 40.5 -14.5t14.5 -40.5q0 -27 -14.5 -41.5t-40.5 -14.5q-27 0 -41.5 15zM113.5 910q14.5 14 41.5 14q26 0 40.5 -14.5t14.5 -40.5q0 -27 -14.5 -41.5t-40.5 -14.5q-27 0 -41.5 15t-14.5 41q0 27 14.5 41z" />
    <glyph glyph-name="Agrave" unicode="&#xc0;" horiz-adv-x="463" 
d="M19 30q5 15 22 72t21 81l84 517h161l84 -517q4 -24 21 -81t22 -72l9 -30h-114q-13 73 -30 185q-43 4 -72 4q-21 0 -37 -1t-36 -4q-17 -111 -30 -184h-114zM227 265q35 0 58 3q-23 150 -53 351h-11q-29 -201 -53 -351q30 -3 59 -3zM196 838q-13 18 -24 30t-26 27l69 52
q10 -18 19 -32t22 -32q12 -16 23 -29t28 -30l-69 -51q-23 37 -42 65z" />
    <glyph glyph-name="Agrave" unicode="&#xe0;" horiz-adv-x="463" 
d="M19 30q5 15 22 72t21 81l84 517h161l84 -517q4 -24 21 -81t22 -72l9 -30h-114q-13 73 -30 185q-43 4 -72 4q-21 0 -37 -1t-36 -4q-17 -111 -30 -184h-114zM227 265q35 0 58 3q-23 150 -53 351h-11q-29 -201 -53 -351q30 -3 59 -3zM196 838q-13 18 -24 30t-26 27l69 52
q10 -18 19 -32t22 -32q12 -16 23 -29t28 -30l-69 -51q-23 37 -42 65z" />
    <glyph glyph-name="Agrave" unicode="&#xe0;" horiz-adv-x="463" 
d="M19 30q5 15 22 72t21 81l84 517h161l84 -517q4 -24 21 -81t22 -72l9 -30h-114q-13 73 -30 185q-43 4 -72 4q-21 0 -37 -1t-36 -4q-17 -111 -30 -184h-114zM227 265q35 0 58 3q-23 150 -53 351h-11q-29 -201 -53 -351q30 -3 59 -3zM196 838q-13 18 -24 30t-26 27l69 52
q10 -18 19 -32t22 -32q12 -16 23 -29t28 -30l-69 -51q-23 37 -42 65z" />
    <glyph glyph-name="Amacron" unicode="&#x100;" horiz-adv-x="463" 
d="M19 30q5 15 22 72t21 81l84 517h161l84 -517q4 -24 21 -81t22 -72l9 -30h-114q-13 73 -30 185q-43 4 -72 4q-21 0 -37 -1t-36 -4q-17 -111 -30 -184h-114zM227 265q35 0 58 3q-23 150 -53 351h-11q-29 -201 -53 -351q30 -3 59 -3zM153.5 895q25.5 -2 71.5 -2q30 0 52.5 1
t58.5 4v-81q-24 2 -30 2q-43 3 -81 3t-86 -3l-22 -2v81q11 -1 36.5 -3z" />
    <glyph glyph-name="Amacron" unicode="&#x101;" horiz-adv-x="463" 
d="M19 30q5 15 22 72t21 81l84 517h161l84 -517q4 -24 21 -81t22 -72l9 -30h-114q-13 73 -30 185q-43 4 -72 4q-21 0 -37 -1t-36 -4q-17 -111 -30 -184h-114zM227 265q35 0 58 3q-23 150 -53 351h-11q-29 -201 -53 -351q30 -3 59 -3zM153.5 895q25.5 -2 71.5 -2q30 0 52.5 1
t58.5 4v-81q-24 2 -30 2q-43 3 -81 3t-86 -3l-22 -2v81q11 -1 36.5 -3z" />
    <glyph glyph-name="Amacron" unicode="&#x101;" horiz-adv-x="463" 
d="M19 30q5 15 22 72t21 81l84 517h161l84 -517q4 -24 21 -81t22 -72l9 -30h-114q-13 73 -30 185q-43 4 -72 4q-21 0 -37 -1t-36 -4q-17 -111 -30 -184h-114zM227 265q35 0 58 3q-23 150 -53 351h-11q-29 -201 -53 -351q30 -3 59 -3zM153.5 895q25.5 -2 71.5 -2q30 0 52.5 1
t58.5 4v-81q-24 2 -30 2q-43 3 -81 3t-86 -3l-22 -2v81q11 -1 36.5 -3z" />
    <glyph glyph-name="Aogonek" unicode="&#x104;" horiz-adv-x="463" 
d="M19 30q5 15 22 72t21 81l84 517h161l84 -517q4 -24 21 -81t22 -72l9 -30h-114q-13 73 -30 185q-43 4 -72 4q-21 0 -37 -1t-36 -4q-17 -111 -30 -184h-114zM227 265q35 0 58 3q-23 150 -53 351h-11q-29 -201 -53 -351q30 -3 59 -3zM310 -103l-25 45l-36 59l42 28l42 -49
q20 -23 40 -41l22 -21q-39 -20 -69 -52z" />
    <glyph glyph-name="Aogonek" unicode="&#x105;" horiz-adv-x="463" 
d="M19 30q5 15 22 72t21 81l84 517h161l84 -517q4 -24 21 -81t22 -72l9 -30h-114q-13 73 -30 185q-43 4 -72 4q-21 0 -37 -1t-36 -4q-17 -111 -30 -184h-114zM227 265q35 0 58 3q-23 150 -53 351h-11q-29 -201 -53 -351q30 -3 59 -3zM310 -103l-25 45l-36 59l42 28l42 -49
q20 -23 40 -41l22 -21q-39 -20 -69 -52z" />
    <glyph glyph-name="Aogonek" unicode="&#x105;" horiz-adv-x="463" 
d="M19 30q5 15 22 72t21 81l84 517h161l84 -517q4 -24 21 -81t22 -72l9 -30h-114q-13 73 -30 185q-43 4 -72 4q-21 0 -37 -1t-36 -4q-17 -111 -30 -184h-114zM227 265q35 0 58 3q-23 150 -53 351h-11q-29 -201 -53 -351q30 -3 59 -3zM310 -103l-25 45l-36 59l42 28l42 -49
q20 -23 40 -41l22 -21q-39 -20 -69 -52z" />
    <glyph glyph-name="Aring" unicode="&#xc5;" horiz-adv-x="463" 
d="M19 30q5 15 22 72t21 81l84 517h161l84 -517q4 -24 21 -81t22 -72l9 -30h-114q-13 73 -30 185q-43 4 -72 4q-21 0 -37 -1t-36 -4q-17 -111 -30 -184h-114zM227 265q35 0 58 3q-23 150 -53 351h-11q-29 -201 -53 -351q30 -3 59 -3zM171.5 804q-19.5 20 -19.5 55
q0 36 19.5 55t55.5 19q35 0 54.5 -19.5t19.5 -54.5q0 -36 -19.5 -55.5t-54.5 -19.5q-36 0 -55.5 20zM197.5 825.5q10.5 -11.5 29.5 -11.5q18 0 28.5 12.5t10.5 32.5q0 21 -10.5 32.5t-28.5 11.5q-19 0 -29.5 -12t-10.5 -32q0 -22 10.5 -33.5z" />
    <glyph glyph-name="Aring" unicode="&#xe5;" horiz-adv-x="463" 
d="M19 30q5 15 22 72t21 81l84 517h161l84 -517q4 -24 21 -81t22 -72l9 -30h-114q-13 73 -30 185q-43 4 -72 4q-21 0 -37 -1t-36 -4q-17 -111 -30 -184h-114zM227 265q35 0 58 3q-23 150 -53 351h-11q-29 -201 -53 -351q30 -3 59 -3zM171.5 804q-19.5 20 -19.5 55
q0 36 19.5 55t55.5 19q35 0 54.5 -19.5t19.5 -54.5q0 -36 -19.5 -55.5t-54.5 -19.5q-36 0 -55.5 20zM197.5 825.5q10.5 -11.5 29.5 -11.5q18 0 28.5 12.5t10.5 32.5q0 21 -10.5 32.5t-28.5 11.5q-19 0 -29.5 -12t-10.5 -32q0 -22 10.5 -33.5z" />
    <glyph glyph-name="Aring" unicode="&#xe5;" horiz-adv-x="463" 
d="M19 30q5 15 22 72t21 81l84 517h161l84 -517q4 -24 21 -81t22 -72l9 -30h-114q-13 73 -30 185q-43 4 -72 4q-21 0 -37 -1t-36 -4q-17 -111 -30 -184h-114zM227 265q35 0 58 3q-23 150 -53 351h-11q-29 -201 -53 -351q30 -3 59 -3zM171.5 804q-19.5 20 -19.5 55
q0 36 19.5 55t55.5 19q35 0 54.5 -19.5t19.5 -54.5q0 -36 -19.5 -55.5t-54.5 -19.5q-36 0 -55.5 20zM197.5 825.5q10.5 -11.5 29.5 -11.5q18 0 28.5 12.5t10.5 32.5q0 21 -10.5 32.5t-28.5 11.5q-19 0 -29.5 -12t-10.5 -32q0 -22 10.5 -33.5z" />
    <glyph glyph-name="Atilde" unicode="&#xc3;" horiz-adv-x="463" 
d="M19 30q5 15 22 72t21 81l84 517h161l84 -517q4 -24 21 -81t22 -72l9 -30h-114q-13 73 -30 185q-43 4 -72 4q-21 0 -37 -1t-36 -4q-17 -111 -30 -184h-114zM227 265q35 0 58 3q-23 150 -53 351h-11q-29 -201 -53 -351q30 -3 59 -3zM240.5 780q-16.5 13 -32.5 35
q-14 17 -21 23.5t-18 6.5q-19 0 -26 -13.5t-7 -43.5v-14h-44v39q0 32 16.5 60t52.5 28q29 0 45 -12.5t32 -35.5q11 -15 19 -22.5t20 -7.5q25 0 33 14.5t8 42.5v15h44v-40q0 -31 -20 -59.5t-60 -28.5q-25 0 -41.5 13z" />
    <glyph glyph-name="Atilde" unicode="&#xe3;" horiz-adv-x="463" 
d="M19 30q5 15 22 72t21 81l84 517h161l84 -517q4 -24 21 -81t22 -72l9 -30h-114q-13 73 -30 185q-43 4 -72 4q-21 0 -37 -1t-36 -4q-17 -111 -30 -184h-114zM227 265q35 0 58 3q-23 150 -53 351h-11q-29 -201 -53 -351q30 -3 59 -3zM240.5 780q-16.5 13 -32.5 35
q-14 17 -21 23.5t-18 6.5q-19 0 -26 -13.5t-7 -43.5v-14h-44v39q0 32 16.5 60t52.5 28q29 0 45 -12.5t32 -35.5q11 -15 19 -22.5t20 -7.5q25 0 33 14.5t8 42.5v15h44v-40q0 -31 -20 -59.5t-60 -28.5q-25 0 -41.5 13z" />
    <glyph glyph-name="Atilde" unicode="&#xe3;" horiz-adv-x="463" 
d="M19 30q5 15 22 72t21 81l84 517h161l84 -517q4 -24 21 -81t22 -72l9 -30h-114q-13 73 -30 185q-43 4 -72 4q-21 0 -37 -1t-36 -4q-17 -111 -30 -184h-114zM227 265q35 0 58 3q-23 150 -53 351h-11q-29 -201 -53 -351q30 -3 59 -3zM240.5 780q-16.5 13 -32.5 35
q-14 17 -21 23.5t-18 6.5q-19 0 -26 -13.5t-7 -43.5v-14h-44v39q0 32 16.5 60t52.5 28q29 0 45 -12.5t32 -35.5q11 -15 19 -22.5t20 -7.5q25 0 33 14.5t8 42.5v15h44v-40q0 -31 -20 -59.5t-60 -28.5q-25 0 -41.5 13z" />
    <glyph glyph-name="AE" unicode="&#xc6;" horiz-adv-x="636" 
d="M19 32q5 15 22 72t21 81l84 515h441l-20 -86q-22 3 -39 4t-39 1q-27 0 -46.5 -2t-26.5 -3v-179q33 -3 62 -3q20 0 36.5 1t40.5 4v-86q-22 3 -38.5 4t-38.5 1q-27 0 -62 -3v-268q39 -4 82 -4q54 0 108 6l-20 -87h-261v190q-20 1 -98 1q-21 0 -37 -1t-36 -4
q-17 -111 -30 -184h-114zM227 267q78 0 98 1v353q-36 2 -50 2q-20 0 -54 -2q-29 -201 -53 -351q30 -3 59 -3z" />
    <glyph glyph-name="AE" unicode="&#xe6;" horiz-adv-x="636" 
d="M19 32q5 15 22 72t21 81l84 515h441l-20 -86q-22 3 -39 4t-39 1q-27 0 -46.5 -2t-26.5 -3v-179q33 -3 62 -3q20 0 36.5 1t40.5 4v-86q-22 3 -38.5 4t-38.5 1q-27 0 -62 -3v-268q39 -4 82 -4q54 0 108 6l-20 -87h-261v190q-20 1 -98 1q-21 0 -37 -1t-36 -4
q-17 -111 -30 -184h-114zM227 267q78 0 98 1v353q-36 2 -50 2q-20 0 -54 -2q-29 -201 -53 -351q30 -3 59 -3z" />
    <glyph glyph-name="AE" unicode="&#xe6;" horiz-adv-x="636" 
d="M19 32q5 15 22 72t21 81l84 515h441l-20 -86q-22 3 -39 4t-39 1q-27 0 -46.5 -2t-26.5 -3v-179q33 -3 62 -3q20 0 36.5 1t40.5 4v-86q-22 3 -38.5 4t-38.5 1q-27 0 -62 -3v-268q39 -4 82 -4q54 0 108 6l-20 -87h-261v190q-20 1 -98 1q-21 0 -37 -1t-36 -4
q-17 -111 -30 -184h-114zM227 267q78 0 98 1v353q-36 2 -50 2q-20 0 -54 -2q-29 -201 -53 -351q30 -3 59 -3z" />
    <glyph glyph-name="B" unicode="B" horiz-adv-x="447" 
d="M65 183v333q0 55 -21 184h86h40q65 0 107.5 -9t70.5 -41t28 -97v-62q0 -77 -52 -113q87 -40 87 -138v-74q0 -99 -72 -132t-183 -34h-112q21 143 21 183zM282.5 106.5q37.5 16.5 37.5 59.5v74q0 51 -38 70t-126 21v-243q89 2 126.5 18.5zM240 416q29 9 40 28.5t11 55.5v54
q0 41 -32.5 54.5t-102.5 14.5v-218q55 2 84 11z" />
    <glyph glyph-name="B" unicode="b" horiz-adv-x="447" 
d="M65 183v333q0 55 -21 184h86h40q65 0 107.5 -9t70.5 -41t28 -97v-62q0 -77 -52 -113q87 -40 87 -138v-74q0 -99 -72 -132t-183 -34h-112q21 143 21 183zM282.5 106.5q37.5 16.5 37.5 59.5v74q0 51 -38 70t-126 21v-243q89 2 126.5 18.5zM240 416q29 9 40 28.5t11 55.5v54
q0 41 -32.5 54.5t-102.5 14.5v-218q55 2 84 11z" />
    <glyph glyph-name="B" unicode="b" horiz-adv-x="447" 
d="M65 183v333q0 55 -21 184h86h40q65 0 107.5 -9t70.5 -41t28 -97v-62q0 -77 -52 -113q87 -40 87 -138v-74q0 -99 -72 -132t-183 -34h-112q21 143 21 183zM282.5 106.5q37.5 16.5 37.5 59.5v74q0 51 -38 70t-126 21v-243q89 2 126.5 18.5zM240 416q29 9 40 28.5t11 55.5v54
q0 41 -32.5 54.5t-102.5 14.5v-218q55 2 84 11z" />
    <glyph glyph-name="C" unicode="C" horiz-adv-x="443" 
d="M101 40.5q-41 54.5 -54 171.5q-7 60 -7 132q0 76 7 140q12 116 54 173.5t129 57.5q78 0 119.5 -45.5t57.5 -136.5q-26 2 -40 2q-13 0 -41 -2q-4 49 -29 77t-67 28q-46 0 -71.5 -32.5t-25.5 -89.5l-1 -332q0 -58 26 -90.5t72 -32.5q40 0 65 24.5t31 69.5q21 -3 42 -3
q19 0 37 3q-17 -86 -57.5 -127.5t-117.5 -41.5q-88 0 -129 54.5z" />
    <glyph glyph-name="C" unicode="c" horiz-adv-x="443" 
d="M101 40.5q-41 54.5 -54 171.5q-7 60 -7 132q0 76 7 140q12 116 54 173.5t129 57.5q78 0 119.5 -45.5t57.5 -136.5q-26 2 -40 2q-13 0 -41 -2q-4 49 -29 77t-67 28q-46 0 -71.5 -32.5t-25.5 -89.5l-1 -332q0 -58 26 -90.5t72 -32.5q40 0 65 24.5t31 69.5q21 -3 42 -3
q19 0 37 3q-17 -86 -57.5 -127.5t-117.5 -41.5q-88 0 -129 54.5z" />
    <glyph glyph-name="C" unicode="c" horiz-adv-x="443" 
d="M101 40.5q-41 54.5 -54 171.5q-7 60 -7 132q0 76 7 140q12 116 54 173.5t129 57.5q78 0 119.5 -45.5t57.5 -136.5q-26 2 -40 2q-13 0 -41 -2q-4 49 -29 77t-67 28q-46 0 -71.5 -32.5t-25.5 -89.5l-1 -332q0 -58 26 -90.5t72 -32.5q40 0 65 24.5t31 69.5q21 -3 42 -3
q19 0 37 3q-17 -86 -57.5 -127.5t-117.5 -41.5q-88 0 -129 54.5z" />
    <glyph glyph-name="Cacute" unicode="&#x106;" horiz-adv-x="443" 
d="M101 40.5q-41 54.5 -54 171.5q-7 60 -7 132q0 76 7 140q12 116 54 173.5t129 57.5q78 0 119.5 -45.5t57.5 -136.5q-26 2 -40 2q-13 0 -41 -2q-4 49 -29 77t-67 28q-46 0 -71.5 -32.5t-25.5 -89.5l-1 -332q0 -58 26 -90.5t72 -32.5q40 0 65 24.5t31 69.5q21 -3 42 -3
q19 0 37 3q-17 -86 -57.5 -127.5t-117.5 -41.5q-88 0 -129 54.5zM144 809l36 59q8 13 26 46l15 30q30 -32 69 -52l-22 -21q-20 -18 -40 -41l-42 -49z" />
    <glyph glyph-name="Cacute" unicode="&#x107;" horiz-adv-x="443" 
d="M101 40.5q-41 54.5 -54 171.5q-7 60 -7 132q0 76 7 140q12 116 54 173.5t129 57.5q78 0 119.5 -45.5t57.5 -136.5q-26 2 -40 2q-13 0 -41 -2q-4 49 -29 77t-67 28q-46 0 -71.5 -32.5t-25.5 -89.5l-1 -332q0 -58 26 -90.5t72 -32.5q40 0 65 24.5t31 69.5q21 -3 42 -3
q19 0 37 3q-17 -86 -57.5 -127.5t-117.5 -41.5q-88 0 -129 54.5zM144 809l36 59q8 13 26 46l15 30q30 -32 69 -52l-22 -21q-20 -18 -40 -41l-42 -49z" />
    <glyph glyph-name="Cacute" unicode="&#x107;" horiz-adv-x="443" 
d="M101 40.5q-41 54.5 -54 171.5q-7 60 -7 132q0 76 7 140q12 116 54 173.5t129 57.5q78 0 119.5 -45.5t57.5 -136.5q-26 2 -40 2q-13 0 -41 -2q-4 49 -29 77t-67 28q-46 0 -71.5 -32.5t-25.5 -89.5l-1 -332q0 -58 26 -90.5t72 -32.5q40 0 65 24.5t31 69.5q21 -3 42 -3
q19 0 37 3q-17 -86 -57.5 -127.5t-117.5 -41.5q-88 0 -129 54.5zM144 809l36 59q8 13 26 46l15 30q30 -32 69 -52l-22 -21q-20 -18 -40 -41l-42 -49z" />
    <glyph glyph-name="Ccaron" unicode="&#x10c;" horiz-adv-x="443" 
d="M101 40.5q-41 54.5 -54 171.5q-7 60 -7 132q0 76 7 140q12 116 54 173.5t129 57.5q78 0 119.5 -45.5t57.5 -136.5q-26 2 -40 2q-13 0 -41 -2q-4 49 -29 77t-67 28q-46 0 -71.5 -32.5t-25.5 -89.5l-1 -332q0 -58 26 -90.5t72 -32.5q40 0 65 24.5t31 69.5q21 -3 42 -3
q19 0 37 3q-17 -86 -57.5 -127.5t-117.5 -41.5q-88 0 -129 54.5zM170 806.5q-10 12.5 -25 30.5q-16 18 -28 29.5t-32 27.5l56 33q24 -34 49 -64l27 -28l27 28q25 31 48 64l56 -33q-20 -16 -32 -27.5t-28 -29.5q-15 -18 -25 -30.5t-22 -33.5q-13 3 -26 3q-11 0 -23 -3
q-12 21 -22 33.5z" />
    <glyph glyph-name="Ccaron" unicode="&#x10d;" horiz-adv-x="443" 
d="M101 40.5q-41 54.5 -54 171.5q-7 60 -7 132q0 76 7 140q12 116 54 173.5t129 57.5q78 0 119.5 -45.5t57.5 -136.5q-26 2 -40 2q-13 0 -41 -2q-4 49 -29 77t-67 28q-46 0 -71.5 -32.5t-25.5 -89.5l-1 -332q0 -58 26 -90.5t72 -32.5q40 0 65 24.5t31 69.5q21 -3 42 -3
q19 0 37 3q-17 -86 -57.5 -127.5t-117.5 -41.5q-88 0 -129 54.5zM170 806.5q-10 12.5 -25 30.5q-16 18 -28 29.5t-32 27.5l56 33q24 -34 49 -64l27 -28l27 28q25 31 48 64l56 -33q-20 -16 -32 -27.5t-28 -29.5q-15 -18 -25 -30.5t-22 -33.5q-13 3 -26 3q-11 0 -23 -3
q-12 21 -22 33.5z" />
    <glyph glyph-name="Ccaron" unicode="&#x10d;" horiz-adv-x="443" 
d="M101 40.5q-41 54.5 -54 171.5q-7 60 -7 132q0 76 7 140q12 116 54 173.5t129 57.5q78 0 119.5 -45.5t57.5 -136.5q-26 2 -40 2q-13 0 -41 -2q-4 49 -29 77t-67 28q-46 0 -71.5 -32.5t-25.5 -89.5l-1 -332q0 -58 26 -90.5t72 -32.5q40 0 65 24.5t31 69.5q21 -3 42 -3
q19 0 37 3q-17 -86 -57.5 -127.5t-117.5 -41.5q-88 0 -129 54.5zM170 806.5q-10 12.5 -25 30.5q-16 18 -28 29.5t-32 27.5l56 33q24 -34 49 -64l27 -28l27 28q25 31 48 64l56 -33q-20 -16 -32 -27.5t-28 -29.5q-15 -18 -25 -30.5t-22 -33.5q-13 3 -26 3q-11 0 -23 -3
q-12 21 -22 33.5z" />
    <glyph glyph-name="Ccedilla" unicode="&#xc7;" horiz-adv-x="443" 
d="M101 40.5q-41 54.5 -54 171.5q-7 60 -7 132q0 76 7 140q12 116 54 173.5t129 57.5q78 0 119.5 -45.5t57.5 -136.5q-26 2 -40 2q-13 0 -41 -2q-4 49 -29 77t-67 28q-46 0 -71.5 -32.5t-25.5 -89.5l-1 -332q0 -58 26 -90.5t72 -32.5q40 0 65 24.5t31 69.5q21 -3 42 -3
q19 0 37 3q-15 -74 -46.5 -115t-87.5 -51l19 -12l-36 -59q-8 -13 -26 -46l-15 -30q-30 32 -69 52l22 21q20 18 40 41l26 30h-2q-88 0 -129 54.5z" />
    <glyph glyph-name="Ccedilla" unicode="&#xe7;" horiz-adv-x="443" 
d="M101 40.5q-41 54.5 -54 171.5q-7 60 -7 132q0 76 7 140q12 116 54 173.5t129 57.5q78 0 119.5 -45.5t57.5 -136.5q-26 2 -40 2q-13 0 -41 -2q-4 49 -29 77t-67 28q-46 0 -71.5 -32.5t-25.5 -89.5l-1 -332q0 -58 26 -90.5t72 -32.5q40 0 65 24.5t31 69.5q21 -3 42 -3
q19 0 37 3q-15 -74 -46.5 -115t-87.5 -51l19 -12l-36 -59q-8 -13 -26 -46l-15 -30q-30 32 -69 52l22 21q20 18 40 41l26 30h-2q-88 0 -129 54.5z" />
    <glyph glyph-name="Ccedilla" unicode="&#xe7;" horiz-adv-x="443" 
d="M101 40.5q-41 54.5 -54 171.5q-7 60 -7 132q0 76 7 140q12 116 54 173.5t129 57.5q78 0 119.5 -45.5t57.5 -136.5q-26 2 -40 2q-13 0 -41 -2q-4 49 -29 77t-67 28q-46 0 -71.5 -32.5t-25.5 -89.5l-1 -332q0 -58 26 -90.5t72 -32.5q40 0 65 24.5t31 69.5q21 -3 42 -3
q19 0 37 3q-15 -74 -46.5 -115t-87.5 -51l19 -12l-36 -59q-8 -13 -26 -46l-15 -30q-30 32 -69 52l22 21q20 18 40 41l26 30h-2q-88 0 -129 54.5z" />
    <glyph glyph-name="Ccircumflex" unicode="&#x108;" horiz-adv-x="443" 
d="M101 40.5q-41 54.5 -54 171.5q-7 60 -7 132q0 76 7 140q12 116 54 173.5t129 57.5q78 0 119.5 -45.5t57.5 -136.5q-26 2 -40 2q-13 0 -41 -2q-4 49 -29 77t-67 28q-46 0 -71.5 -32.5t-25.5 -89.5l-1 -332q0 -58 26 -90.5t72 -32.5q40 0 65 24.5t31 69.5q21 -3 42 -3
q19 0 37 3q-17 -86 -57.5 -127.5t-117.5 -41.5q-88 0 -129 54.5zM122.5 857.5q11.5 11.5 25.5 27.5q16 18 25 30.5t20 30.5h47q11 -18 20 -30.5t25 -30.5q14 -16 25.5 -27.5t29.5 -27.5l-55 -46q-22 32 -46 62q-4 4 -23 30q-12 -18 -22 -30q-24 -30 -46 -62l-55 46
q18 16 29.5 27.5z" />
    <glyph glyph-name="Ccircumflex" unicode="&#x109;" horiz-adv-x="443" 
d="M101 40.5q-41 54.5 -54 171.5q-7 60 -7 132q0 76 7 140q12 116 54 173.5t129 57.5q78 0 119.5 -45.5t57.5 -136.5q-26 2 -40 2q-13 0 -41 -2q-4 49 -29 77t-67 28q-46 0 -71.5 -32.5t-25.5 -89.5l-1 -332q0 -58 26 -90.5t72 -32.5q40 0 65 24.5t31 69.5q21 -3 42 -3
q19 0 37 3q-17 -86 -57.5 -127.5t-117.5 -41.5q-88 0 -129 54.5zM122.5 857.5q11.5 11.5 25.5 27.5q16 18 25 30.5t20 30.5h47q11 -18 20 -30.5t25 -30.5q14 -16 25.5 -27.5t29.5 -27.5l-55 -46q-22 32 -46 62q-4 4 -23 30q-12 -18 -22 -30q-24 -30 -46 -62l-55 46
q18 16 29.5 27.5z" />
    <glyph glyph-name="Ccircumflex" unicode="&#x109;" horiz-adv-x="443" 
d="M101 40.5q-41 54.5 -54 171.5q-7 60 -7 132q0 76 7 140q12 116 54 173.5t129 57.5q78 0 119.5 -45.5t57.5 -136.5q-26 2 -40 2q-13 0 -41 -2q-4 49 -29 77t-67 28q-46 0 -71.5 -32.5t-25.5 -89.5l-1 -332q0 -58 26 -90.5t72 -32.5q40 0 65 24.5t31 69.5q21 -3 42 -3
q19 0 37 3q-17 -86 -57.5 -127.5t-117.5 -41.5q-88 0 -129 54.5zM122.5 857.5q11.5 11.5 25.5 27.5q16 18 25 30.5t20 30.5h47q11 -18 20 -30.5t25 -30.5q14 -16 25.5 -27.5t29.5 -27.5l-55 -46q-22 32 -46 62q-4 4 -23 30q-12 -18 -22 -30q-24 -30 -46 -62l-55 46
q18 16 29.5 27.5z" />
    <glyph glyph-name="Cdotaccent" unicode="&#x10a;" horiz-adv-x="443" 
d="M101 40.5q-41 54.5 -54 171.5q-7 60 -7 132q0 76 7 140q12 116 54 173.5t129 57.5q78 0 119.5 -45.5t57.5 -136.5q-26 2 -40 2q-13 0 -41 -2q-4 49 -29 77t-67 28q-46 0 -71.5 -32.5t-25.5 -89.5l-1 -332q0 -58 26 -90.5t72 -32.5q40 0 65 24.5t31 69.5q21 -3 42 -3
q19 0 37 3q-17 -86 -57.5 -127.5t-117.5 -41.5q-88 0 -129 54.5zM175.5 910q14.5 14 41.5 14q26 0 40.5 -14.5t14.5 -40.5q0 -27 -14.5 -41.5t-40.5 -14.5q-27 0 -41.5 15t-14.5 41q0 27 14.5 41z" />
    <glyph glyph-name="Cdotaccent" unicode="&#x10b;" horiz-adv-x="443" 
d="M101 40.5q-41 54.5 -54 171.5q-7 60 -7 132q0 76 7 140q12 116 54 173.5t129 57.5q78 0 119.5 -45.5t57.5 -136.5q-26 2 -40 2q-13 0 -41 -2q-4 49 -29 77t-67 28q-46 0 -71.5 -32.5t-25.5 -89.5l-1 -332q0 -58 26 -90.5t72 -32.5q40 0 65 24.5t31 69.5q21 -3 42 -3
q19 0 37 3q-17 -86 -57.5 -127.5t-117.5 -41.5q-88 0 -129 54.5zM175.5 910q14.5 14 41.5 14q26 0 40.5 -14.5t14.5 -40.5q0 -27 -14.5 -41.5t-40.5 -14.5q-27 0 -41.5 15t-14.5 41q0 27 14.5 41z" />
    <glyph glyph-name="Cdotaccent" unicode="&#x10b;" horiz-adv-x="443" 
d="M101 40.5q-41 54.5 -54 171.5q-7 60 -7 132q0 76 7 140q12 116 54 173.5t129 57.5q78 0 119.5 -45.5t57.5 -136.5q-26 2 -40 2q-13 0 -41 -2q-4 49 -29 77t-67 28q-46 0 -71.5 -32.5t-25.5 -89.5l-1 -332q0 -58 26 -90.5t72 -32.5q40 0 65 24.5t31 69.5q21 -3 42 -3
q19 0 37 3q-17 -86 -57.5 -127.5t-117.5 -41.5q-88 0 -129 54.5zM175.5 910q14.5 14 41.5 14q26 0 40.5 -14.5t14.5 -40.5q0 -27 -14.5 -41.5t-40.5 -14.5q-27 0 -41.5 15t-14.5 41q0 27 14.5 41z" />
    <glyph glyph-name="D" unicode="D" horiz-adv-x="429" 
d="M68 183v333q0 55 -24 184h112q72 1 121 -13t80.5 -61t31.5 -141v-269q0 -133 -70 -174.5t-162 -41.5h-113q24 143 24 183zM251 104.5q30 15.5 38.5 42.5t8.5 76v289q0 59 -33.5 81t-106.5 23v-221v-307q63 1 93 16.5z" />
    <glyph glyph-name="D" unicode="d" horiz-adv-x="429" 
d="M68 183v333q0 55 -24 184h112q72 1 121 -13t80.5 -61t31.5 -141v-269q0 -133 -70 -174.5t-162 -41.5h-113q24 143 24 183zM251 104.5q30 15.5 38.5 42.5t8.5 76v289q0 59 -33.5 81t-106.5 23v-221v-307q63 1 93 16.5z" />
    <glyph glyph-name="D" unicode="d" horiz-adv-x="429" 
d="M68 183v333q0 55 -24 184h112q72 1 121 -13t80.5 -61t31.5 -141v-269q0 -133 -70 -174.5t-162 -41.5h-113q24 143 24 183zM251 104.5q30 15.5 38.5 42.5t8.5 76v289q0 59 -33.5 81t-106.5 23v-221v-307q63 1 93 16.5z" />
    <glyph glyph-name="Eth" unicode="&#xd0;" horiz-adv-x="487" 
d="M120 413v103q0 55 -24 184h112q72 1 121 -13t80.5 -61t31.5 -141v-269q0 -133 -70 -174.5t-162 -41.5h-113q24 143 24 183v152l-60 -4v86zM303 104.5q30 15.5 38.5 42.5t8.5 76v289q0 59 -33.5 81t-106.5 23v-204q32 1 79 5v-86q-47 4 -79 5v-248q63 1 93 16.5z" />
    <glyph glyph-name="Eth" unicode="&#xf0;" horiz-adv-x="487" 
d="M120 413v103q0 55 -24 184h112q72 1 121 -13t80.5 -61t31.5 -141v-269q0 -133 -70 -174.5t-162 -41.5h-113q24 143 24 183v152l-60 -4v86zM303 104.5q30 15.5 38.5 42.5t8.5 76v289q0 59 -33.5 81t-106.5 23v-204q32 1 79 5v-86q-47 4 -79 5v-248q63 1 93 16.5z" />
    <glyph glyph-name="Eth" unicode="&#xf0;" horiz-adv-x="487" 
d="M120 413v103q0 55 -24 184h112q72 1 121 -13t80.5 -61t31.5 -141v-269q0 -133 -70 -174.5t-162 -41.5h-113q24 143 24 183v152l-60 -4v86zM303 104.5q30 15.5 38.5 42.5t8.5 76v289q0 59 -33.5 81t-106.5 23v-204q32 1 79 5v-86q-47 4 -79 5v-248q63 1 93 16.5z" />
    <glyph glyph-name="Dcaron" unicode="&#x10e;" horiz-adv-x="429" 
d="M68 183v333q0 55 -24 184h112q72 1 121 -13t80.5 -61t31.5 -141v-269q0 -133 -70 -174.5t-162 -41.5h-113q24 143 24 183zM251 104.5q30 15.5 38.5 42.5t8.5 76v289q0 59 -33.5 81t-106.5 23v-221v-307q63 1 93 16.5zM165 806.5q-10 12.5 -25 30.5q-16 18 -28 29.5
t-32 27.5l56 33q24 -34 49 -64l27 -28l27 28q25 31 48 64l56 -33q-20 -16 -32 -27.5t-28 -29.5q-15 -18 -25 -30.5t-22 -33.5q-13 3 -26 3q-11 0 -23 -3q-12 21 -22 33.5z" />
    <glyph glyph-name="Dcaron" unicode="&#x10f;" horiz-adv-x="429" 
d="M68 183v333q0 55 -24 184h112q72 1 121 -13t80.5 -61t31.5 -141v-269q0 -133 -70 -174.5t-162 -41.5h-113q24 143 24 183zM251 104.5q30 15.5 38.5 42.5t8.5 76v289q0 59 -33.5 81t-106.5 23v-221v-307q63 1 93 16.5zM165 806.5q-10 12.5 -25 30.5q-16 18 -28 29.5
t-32 27.5l56 33q24 -34 49 -64l27 -28l27 28q25 31 48 64l56 -33q-20 -16 -32 -27.5t-28 -29.5q-15 -18 -25 -30.5t-22 -33.5q-13 3 -26 3q-11 0 -23 -3q-12 21 -22 33.5z" />
    <glyph glyph-name="Dcaron" unicode="&#x10f;" horiz-adv-x="429" 
d="M68 183v333q0 55 -24 184h112q72 1 121 -13t80.5 -61t31.5 -141v-269q0 -133 -70 -174.5t-162 -41.5h-113q24 143 24 183zM251 104.5q30 15.5 38.5 42.5t8.5 76v289q0 59 -33.5 81t-106.5 23v-221v-307q63 1 93 16.5zM165 806.5q-10 12.5 -25 30.5q-16 18 -28 29.5
t-32 27.5l56 33q24 -34 49 -64l27 -28l27 28q25 31 48 64l56 -33q-20 -16 -32 -27.5t-28 -29.5q-15 -18 -25 -30.5t-22 -33.5q-13 3 -26 3q-11 0 -23 -3q-12 21 -22 33.5z" />
    <glyph glyph-name="Dcroat" unicode="&#x110;" horiz-adv-x="487" 
d="M120 413v103q0 55 -24 184h112q72 1 121 -13t80.5 -61t31.5 -141v-269q0 -133 -70 -174.5t-162 -41.5h-113q24 143 24 183v152l-60 -4v86zM303 104.5q30 15.5 38.5 42.5t8.5 76v289q0 59 -33.5 81t-106.5 23v-204q32 1 79 5v-86q-47 4 -79 5v-248q63 1 93 16.5z" />
    <glyph glyph-name="Dcroat" unicode="&#x111;" horiz-adv-x="487" 
d="M120 413v103q0 55 -24 184h112q72 1 121 -13t80.5 -61t31.5 -141v-269q0 -133 -70 -174.5t-162 -41.5h-113q24 143 24 183v152l-60 -4v86zM303 104.5q30 15.5 38.5 42.5t8.5 76v289q0 59 -33.5 81t-106.5 23v-204q32 1 79 5v-86q-47 4 -79 5v-248q63 1 93 16.5z" />
    <glyph glyph-name="Dcroat" unicode="&#x111;" horiz-adv-x="487" 
d="M120 413v103q0 55 -24 184h112q72 1 121 -13t80.5 -61t31.5 -141v-269q0 -133 -70 -174.5t-162 -41.5h-113q24 143 24 183v152l-60 -4v86zM303 104.5q30 15.5 38.5 42.5t8.5 76v289q0 59 -33.5 81t-106.5 23v-204q32 1 79 5v-86q-47 4 -79 5v-248q63 1 93 16.5z" />
    <glyph glyph-name="E" unicode="E" horiz-adv-x="376" 
d="M65 183v333q0 55 -21 184h283l-20 -86q-22 3 -39 4t-39 1q-27 0 -46.5 -2t-26.5 -3v-179q33 -3 62 -3q20 0 36.5 1t40.5 4v-86q-22 3 -38.5 4t-38.5 1q-27 0 -62 -3v-268q39 -4 82 -4q54 0 108 6l-20 -87h-282q21 143 21 183z" />
    <glyph glyph-name="E" unicode="e" horiz-adv-x="376" 
d="M65 183v333q0 55 -21 184h283l-20 -86q-22 3 -39 4t-39 1q-27 0 -46.5 -2t-26.5 -3v-179q33 -3 62 -3q20 0 36.5 1t40.5 4v-86q-22 3 -38.5 4t-38.5 1q-27 0 -62 -3v-268q39 -4 82 -4q54 0 108 6l-20 -87h-282q21 143 21 183z" />
    <glyph glyph-name="E" unicode="e" horiz-adv-x="376" 
d="M65 183v333q0 55 -21 184h283l-20 -86q-22 3 -39 4t-39 1q-27 0 -46.5 -2t-26.5 -3v-179q33 -3 62 -3q20 0 36.5 1t40.5 4v-86q-22 3 -38.5 4t-38.5 1q-27 0 -62 -3v-268q39 -4 82 -4q54 0 108 6l-20 -87h-282q21 143 21 183z" />
    <glyph glyph-name="Eacute" unicode="&#xc9;" horiz-adv-x="376" 
d="M65 183v333q0 55 -21 184h283l-20 -86q-22 3 -39 4t-39 1q-27 0 -46.5 -2t-26.5 -3v-179q33 -3 62 -3q20 0 36.5 1t40.5 4v-86q-22 3 -38.5 4t-38.5 1q-27 0 -62 -3v-268q39 -4 82 -4q54 0 108 6l-20 -87h-282q21 143 21 183zM114 809l36 59q8 13 26 46l15 30
q30 -32 69 -52l-22 -21q-20 -18 -40 -41l-42 -49z" />
    <glyph glyph-name="Eacute" unicode="&#xe9;" horiz-adv-x="376" 
d="M65 183v333q0 55 -21 184h283l-20 -86q-22 3 -39 4t-39 1q-27 0 -46.5 -2t-26.5 -3v-179q33 -3 62 -3q20 0 36.5 1t40.5 4v-86q-22 3 -38.5 4t-38.5 1q-27 0 -62 -3v-268q39 -4 82 -4q54 0 108 6l-20 -87h-282q21 143 21 183zM114 809l36 59q8 13 26 46l15 30
q30 -32 69 -52l-22 -21q-20 -18 -40 -41l-42 -49z" />
    <glyph glyph-name="Eacute" unicode="&#xe9;" horiz-adv-x="376" 
d="M65 183v333q0 55 -21 184h283l-20 -86q-22 3 -39 4t-39 1q-27 0 -46.5 -2t-26.5 -3v-179q33 -3 62 -3q20 0 36.5 1t40.5 4v-86q-22 3 -38.5 4t-38.5 1q-27 0 -62 -3v-268q39 -4 82 -4q54 0 108 6l-20 -87h-282q21 143 21 183zM114 809l36 59q8 13 26 46l15 30
q30 -32 69 -52l-22 -21q-20 -18 -40 -41l-42 -49z" />
    <glyph glyph-name="Ecaron" unicode="&#x11a;" horiz-adv-x="376" 
d="M65 183v333q0 55 -21 184h283l-20 -86q-22 3 -39 4t-39 1q-27 0 -46.5 -2t-26.5 -3v-179q33 -3 62 -3q20 0 36.5 1t40.5 4v-86q-22 3 -38.5 4t-38.5 1q-27 0 -62 -3v-268q39 -4 82 -4q54 0 108 6l-20 -87h-282q21 143 21 183zM140 806.5q-10 12.5 -25 30.5
q-16 18 -28 29.5t-32 27.5l56 33q24 -34 49 -64l27 -28l27 28q25 31 48 64l56 -33q-20 -16 -32 -27.5t-28 -29.5q-15 -18 -25 -30.5t-22 -33.5q-13 3 -26 3q-11 0 -23 -3q-12 21 -22 33.5z" />
    <glyph glyph-name="Ecaron" unicode="&#x11b;" horiz-adv-x="376" 
d="M65 183v333q0 55 -21 184h283l-20 -86q-22 3 -39 4t-39 1q-27 0 -46.5 -2t-26.5 -3v-179q33 -3 62 -3q20 0 36.5 1t40.5 4v-86q-22 3 -38.5 4t-38.5 1q-27 0 -62 -3v-268q39 -4 82 -4q54 0 108 6l-20 -87h-282q21 143 21 183zM140 806.5q-10 12.5 -25 30.5
q-16 18 -28 29.5t-32 27.5l56 33q24 -34 49 -64l27 -28l27 28q25 31 48 64l56 -33q-20 -16 -32 -27.5t-28 -29.5q-15 -18 -25 -30.5t-22 -33.5q-13 3 -26 3q-11 0 -23 -3q-12 21 -22 33.5z" />
    <glyph glyph-name="Ecaron" unicode="&#x11b;" horiz-adv-x="376" 
d="M65 183v333q0 55 -21 184h283l-20 -86q-22 3 -39 4t-39 1q-27 0 -46.5 -2t-26.5 -3v-179q33 -3 62 -3q20 0 36.5 1t40.5 4v-86q-22 3 -38.5 4t-38.5 1q-27 0 -62 -3v-268q39 -4 82 -4q54 0 108 6l-20 -87h-282q21 143 21 183zM140 806.5q-10 12.5 -25 30.5
q-16 18 -28 29.5t-32 27.5l56 33q24 -34 49 -64l27 -28l27 28q25 31 48 64l56 -33q-20 -16 -32 -27.5t-28 -29.5q-15 -18 -25 -30.5t-22 -33.5q-13 3 -26 3q-11 0 -23 -3q-12 21 -22 33.5z" />
    <glyph glyph-name="Ecircumflex" unicode="&#xca;" horiz-adv-x="376" 
d="M65 183v333q0 55 -21 184h283l-20 -86q-22 3 -39 4t-39 1q-27 0 -46.5 -2t-26.5 -3v-179q33 -3 62 -3q20 0 36.5 1t40.5 4v-86q-22 3 -38.5 4t-38.5 1q-27 0 -62 -3v-268q39 -4 82 -4q54 0 108 6l-20 -87h-282q21 143 21 183zM92.5 857.5q11.5 11.5 25.5 27.5
q16 18 25 30.5t20 30.5h47q11 -18 20 -30.5t25 -30.5q14 -16 25.5 -27.5t29.5 -27.5l-55 -46q-22 32 -46 62q-4 4 -23 30q-12 -18 -22 -30q-24 -30 -46 -62l-55 46q18 16 29.5 27.5z" />
    <glyph glyph-name="Ecircumflex" unicode="&#xea;" horiz-adv-x="376" 
d="M65 183v333q0 55 -21 184h283l-20 -86q-22 3 -39 4t-39 1q-27 0 -46.5 -2t-26.5 -3v-179q33 -3 62 -3q20 0 36.5 1t40.5 4v-86q-22 3 -38.5 4t-38.5 1q-27 0 -62 -3v-268q39 -4 82 -4q54 0 108 6l-20 -87h-282q21 143 21 183zM92.5 857.5q11.5 11.5 25.5 27.5
q16 18 25 30.5t20 30.5h47q11 -18 20 -30.5t25 -30.5q14 -16 25.5 -27.5t29.5 -27.5l-55 -46q-22 32 -46 62q-4 4 -23 30q-12 -18 -22 -30q-24 -30 -46 -62l-55 46q18 16 29.5 27.5z" />
    <glyph glyph-name="Ecircumflex" unicode="&#xea;" horiz-adv-x="376" 
d="M65 183v333q0 55 -21 184h283l-20 -86q-22 3 -39 4t-39 1q-27 0 -46.5 -2t-26.5 -3v-179q33 -3 62 -3q20 0 36.5 1t40.5 4v-86q-22 3 -38.5 4t-38.5 1q-27 0 -62 -3v-268q39 -4 82 -4q54 0 108 6l-20 -87h-282q21 143 21 183zM92.5 857.5q11.5 11.5 25.5 27.5
q16 18 25 30.5t20 30.5h47q11 -18 20 -30.5t25 -30.5q14 -16 25.5 -27.5t29.5 -27.5l-55 -46q-22 32 -46 62q-4 4 -23 30q-12 -18 -22 -30q-24 -30 -46 -62l-55 46q18 16 29.5 27.5z" />
    <glyph glyph-name="Edieresis" unicode="&#xcb;" horiz-adv-x="376" 
d="M65 183v333q0 55 -21 184h283l-20 -86q-22 3 -39 4t-39 1q-27 0 -46.5 -2t-26.5 -3v-179q33 -3 62 -3q20 0 36.5 1t40.5 4v-86q-22 3 -38.5 4t-38.5 1q-27 0 -62 -3v-268q39 -4 82 -4q54 0 108 6l-20 -87h-282q21 143 21 183zM218.5 828q-14.5 15 -14.5 41q0 27 14.5 41
t41.5 14q26 0 40.5 -14.5t14.5 -40.5q0 -27 -14.5 -41.5t-40.5 -14.5q-27 0 -41.5 15zM73.5 910q14.5 14 41.5 14q26 0 40.5 -14.5t14.5 -40.5q0 -27 -14.5 -41.5t-40.5 -14.5q-27 0 -41.5 15t-14.5 41q0 27 14.5 41z" />
    <glyph glyph-name="Edieresis" unicode="&#xeb;" horiz-adv-x="376" 
d="M65 183v333q0 55 -21 184h283l-20 -86q-22 3 -39 4t-39 1q-27 0 -46.5 -2t-26.5 -3v-179q33 -3 62 -3q20 0 36.5 1t40.5 4v-86q-22 3 -38.5 4t-38.5 1q-27 0 -62 -3v-268q39 -4 82 -4q54 0 108 6l-20 -87h-282q21 143 21 183zM218.5 828q-14.5 15 -14.5 41q0 27 14.5 41
t41.5 14q26 0 40.5 -14.5t14.5 -40.5q0 -27 -14.5 -41.5t-40.5 -14.5q-27 0 -41.5 15zM73.5 910q14.5 14 41.5 14q26 0 40.5 -14.5t14.5 -40.5q0 -27 -14.5 -41.5t-40.5 -14.5q-27 0 -41.5 15t-14.5 41q0 27 14.5 41z" />
    <glyph glyph-name="Edieresis" unicode="&#xeb;" horiz-adv-x="376" 
d="M65 183v333q0 55 -21 184h283l-20 -86q-22 3 -39 4t-39 1q-27 0 -46.5 -2t-26.5 -3v-179q33 -3 62 -3q20 0 36.5 1t40.5 4v-86q-22 3 -38.5 4t-38.5 1q-27 0 -62 -3v-268q39 -4 82 -4q54 0 108 6l-20 -87h-282q21 143 21 183zM218.5 828q-14.5 15 -14.5 41q0 27 14.5 41
t41.5 14q26 0 40.5 -14.5t14.5 -40.5q0 -27 -14.5 -41.5t-40.5 -14.5q-27 0 -41.5 15zM73.5 910q14.5 14 41.5 14q26 0 40.5 -14.5t14.5 -40.5q0 -27 -14.5 -41.5t-40.5 -14.5q-27 0 -41.5 15t-14.5 41q0 27 14.5 41z" />
    <glyph glyph-name="Edotaccent" unicode="&#x116;" horiz-adv-x="376" 
d="M65 183v333q0 55 -21 184h283l-20 -86q-22 3 -39 4t-39 1q-27 0 -46.5 -2t-26.5 -3v-179q33 -3 62 -3q20 0 36.5 1t40.5 4v-86q-22 3 -38.5 4t-38.5 1q-27 0 -62 -3v-268q39 -4 82 -4q54 0 108 6l-20 -87h-282q21 143 21 183zM145.5 910q14.5 14 41.5 14q26 0 40.5 -14.5
t14.5 -40.5q0 -27 -14.5 -41.5t-40.5 -14.5q-27 0 -41.5 15t-14.5 41q0 27 14.5 41z" />
    <glyph glyph-name="Edotaccent" unicode="&#x117;" horiz-adv-x="376" 
d="M65 183v333q0 55 -21 184h283l-20 -86q-22 3 -39 4t-39 1q-27 0 -46.5 -2t-26.5 -3v-179q33 -3 62 -3q20 0 36.5 1t40.5 4v-86q-22 3 -38.5 4t-38.5 1q-27 0 -62 -3v-268q39 -4 82 -4q54 0 108 6l-20 -87h-282q21 143 21 183zM145.5 910q14.5 14 41.5 14q26 0 40.5 -14.5
t14.5 -40.5q0 -27 -14.5 -41.5t-40.5 -14.5q-27 0 -41.5 15t-14.5 41q0 27 14.5 41z" />
    <glyph glyph-name="Edotaccent" unicode="&#x117;" horiz-adv-x="376" 
d="M65 183v333q0 55 -21 184h283l-20 -86q-22 3 -39 4t-39 1q-27 0 -46.5 -2t-26.5 -3v-179q33 -3 62 -3q20 0 36.5 1t40.5 4v-86q-22 3 -38.5 4t-38.5 1q-27 0 -62 -3v-268q39 -4 82 -4q54 0 108 6l-20 -87h-282q21 143 21 183zM145.5 910q14.5 14 41.5 14q26 0 40.5 -14.5
t14.5 -40.5q0 -27 -14.5 -41.5t-40.5 -14.5q-27 0 -41.5 15t-14.5 41q0 27 14.5 41z" />
    <glyph glyph-name="Egrave" unicode="&#xc8;" horiz-adv-x="376" 
d="M65 183v333q0 55 -21 184h283l-20 -86q-22 3 -39 4t-39 1q-27 0 -46.5 -2t-26.5 -3v-179q33 -3 62 -3q20 0 36.5 1t40.5 4v-86q-22 3 -38.5 4t-38.5 1q-27 0 -62 -3v-268q39 -4 82 -4q54 0 108 6l-20 -87h-282q21 143 21 183zM156 838q-13 18 -24 30t-26 27l69 52
q10 -18 19 -32t22 -32q12 -16 23 -29t28 -30l-69 -51q-23 37 -42 65z" />
    <glyph glyph-name="Egrave" unicode="&#xe8;" horiz-adv-x="376" 
d="M65 183v333q0 55 -21 184h283l-20 -86q-22 3 -39 4t-39 1q-27 0 -46.5 -2t-26.5 -3v-179q33 -3 62 -3q20 0 36.5 1t40.5 4v-86q-22 3 -38.5 4t-38.5 1q-27 0 -62 -3v-268q39 -4 82 -4q54 0 108 6l-20 -87h-282q21 143 21 183zM156 838q-13 18 -24 30t-26 27l69 52
q10 -18 19 -32t22 -32q12 -16 23 -29t28 -30l-69 -51q-23 37 -42 65z" />
    <glyph glyph-name="Egrave" unicode="&#xe8;" horiz-adv-x="376" 
d="M65 183v333q0 55 -21 184h283l-20 -86q-22 3 -39 4t-39 1q-27 0 -46.5 -2t-26.5 -3v-179q33 -3 62 -3q20 0 36.5 1t40.5 4v-86q-22 3 -38.5 4t-38.5 1q-27 0 -62 -3v-268q39 -4 82 -4q54 0 108 6l-20 -87h-282q21 143 21 183zM156 838q-13 18 -24 30t-26 27l69 52
q10 -18 19 -32t22 -32q12 -16 23 -29t28 -30l-69 -51q-23 37 -42 65z" />
    <glyph glyph-name="Emacron" unicode="&#x112;" horiz-adv-x="376" 
d="M65 183v333q0 55 -21 184h283l-20 -86q-22 3 -39 4t-39 1q-27 0 -46.5 -2t-26.5 -3v-179q33 -3 62 -3q20 0 36.5 1t40.5 4v-86q-22 3 -38.5 4t-38.5 1q-27 0 -62 -3v-268q39 -4 82 -4q54 0 108 6l-20 -87h-282q21 143 21 183zM113.5 895q25.5 -2 71.5 -2q30 0 52.5 1
t58.5 4v-81q-24 2 -30 2q-43 3 -81 3t-86 -3l-22 -2v81q11 -1 36.5 -3z" />
    <glyph glyph-name="Emacron" unicode="&#x113;" horiz-adv-x="376" 
d="M65 183v333q0 55 -21 184h283l-20 -86q-22 3 -39 4t-39 1q-27 0 -46.5 -2t-26.5 -3v-179q33 -3 62 -3q20 0 36.5 1t40.5 4v-86q-22 3 -38.5 4t-38.5 1q-27 0 -62 -3v-268q39 -4 82 -4q54 0 108 6l-20 -87h-282q21 143 21 183zM113.5 895q25.5 -2 71.5 -2q30 0 52.5 1
t58.5 4v-81q-24 2 -30 2q-43 3 -81 3t-86 -3l-22 -2v81q11 -1 36.5 -3z" />
    <glyph glyph-name="Emacron" unicode="&#x113;" horiz-adv-x="376" 
d="M65 183v333q0 55 -21 184h283l-20 -86q-22 3 -39 4t-39 1q-27 0 -46.5 -2t-26.5 -3v-179q33 -3 62 -3q20 0 36.5 1t40.5 4v-86q-22 3 -38.5 4t-38.5 1q-27 0 -62 -3v-268q39 -4 82 -4q54 0 108 6l-20 -87h-282q21 143 21 183zM113.5 895q25.5 -2 71.5 -2q30 0 52.5 1
t58.5 4v-81q-24 2 -30 2q-43 3 -81 3t-86 -3l-22 -2v81q11 -1 36.5 -3z" />
    <glyph glyph-name="Eogonek" unicode="&#x118;" horiz-adv-x="376" 
d="M65 183v333q0 55 -21 184h283l-20 -86q-22 3 -39 4t-39 1q-27 0 -46.5 -2t-26.5 -3v-179q33 -3 62 -3q20 0 36.5 1t40.5 4v-86q-22 3 -38.5 4t-38.5 1q-27 0 -62 -3v-268q39 -4 82 -4q54 0 108 6l-20 -87h-85l17 -20q20 -23 40 -41l22 -21q-39 -20 -69 -52l-16 31l-25 45
l-35 58h-131q21 143 21 183z" />
    <glyph glyph-name="Eogonek" unicode="&#x119;" horiz-adv-x="376" 
d="M65 183v333q0 55 -21 184h283l-20 -86q-22 3 -39 4t-39 1q-27 0 -46.5 -2t-26.5 -3v-179q33 -3 62 -3q20 0 36.5 1t40.5 4v-86q-22 3 -38.5 4t-38.5 1q-27 0 -62 -3v-268q39 -4 82 -4q54 0 108 6l-20 -87h-85l17 -20q20 -23 40 -41l22 -21q-39 -20 -69 -52l-16 31l-25 45
l-35 58h-131q21 143 21 183z" />
    <glyph glyph-name="Eogonek" unicode="&#x119;" horiz-adv-x="376" 
d="M65 183v333q0 55 -21 184h283l-20 -86q-22 3 -39 4t-39 1q-27 0 -46.5 -2t-26.5 -3v-179q33 -3 62 -3q20 0 36.5 1t40.5 4v-86q-22 3 -38.5 4t-38.5 1q-27 0 -62 -3v-268q39 -4 82 -4q54 0 108 6l-20 -87h-85l17 -20q20 -23 40 -41l22 -21q-39 -20 -69 -52l-16 31l-25 45
l-35 58h-131q21 143 21 183z" />
    <glyph glyph-name="uni1EBC" unicode="&#x1ebc;" horiz-adv-x="376" 
d="M65 183v333q0 55 -21 184h283l-20 -86q-22 3 -39 4t-39 1q-27 0 -46.5 -2t-26.5 -3v-179q33 -3 62 -3q20 0 36.5 1t40.5 4v-86q-22 3 -38.5 4t-38.5 1q-27 0 -62 -3v-268q39 -4 82 -4q54 0 108 6l-20 -87h-282q21 143 21 183zM200.5 780q-16.5 13 -32.5 35
q-14 17 -21 23.5t-18 6.5q-19 0 -26 -13.5t-7 -43.5v-14h-44v39q0 32 16.5 60t52.5 28q29 0 45 -12.5t32 -35.5q11 -15 19 -22.5t20 -7.5q25 0 33 14.5t8 42.5v15h44v-40q0 -31 -20 -59.5t-60 -28.5q-25 0 -41.5 13z" />
    <glyph glyph-name="uni1EBC" unicode="&#x1ebd;" horiz-adv-x="376" 
d="M65 183v333q0 55 -21 184h283l-20 -86q-22 3 -39 4t-39 1q-27 0 -46.5 -2t-26.5 -3v-179q33 -3 62 -3q20 0 36.5 1t40.5 4v-86q-22 3 -38.5 4t-38.5 1q-27 0 -62 -3v-268q39 -4 82 -4q54 0 108 6l-20 -87h-282q21 143 21 183zM200.5 780q-16.5 13 -32.5 35
q-14 17 -21 23.5t-18 6.5q-19 0 -26 -13.5t-7 -43.5v-14h-44v39q0 32 16.5 60t52.5 28q29 0 45 -12.5t32 -35.5q11 -15 19 -22.5t20 -7.5q25 0 33 14.5t8 42.5v15h44v-40q0 -31 -20 -59.5t-60 -28.5q-25 0 -41.5 13z" />
    <glyph glyph-name="uni1EBC" unicode="&#x1ebd;" horiz-adv-x="376" 
d="M65 183v333q0 55 -21 184h283l-20 -86q-22 3 -39 4t-39 1q-27 0 -46.5 -2t-26.5 -3v-179q33 -3 62 -3q20 0 36.5 1t40.5 4v-86q-22 3 -38.5 4t-38.5 1q-27 0 -62 -3v-268q39 -4 82 -4q54 0 108 6l-20 -87h-282q21 143 21 183zM200.5 780q-16.5 13 -32.5 35
q-14 17 -21 23.5t-18 6.5q-19 0 -26 -13.5t-7 -43.5v-14h-44v39q0 32 16.5 60t52.5 28q29 0 45 -12.5t32 -35.5q11 -15 19 -22.5t20 -7.5q25 0 33 14.5t8 42.5v15h44v-40q0 -31 -20 -59.5t-60 -28.5q-25 0 -41.5 13z" />
    <glyph glyph-name="uni018F" unicode="&#x18f;" horiz-adv-x="447" 
d="M87.5 34q-45.5 48 -45.5 140v237q46 -6 169 -6q59 0 106 5l-3 76q-2 68 -26.5 110t-68.5 42q-80 0 -88 -105q-19 3 -45 3q-25 0 -46 -3q16 91 57.5 136.5t119.5 45.5q87 0 129 -57.5t54 -173.5q7 -64 7 -140q0 -72 -7 -132q-13 -115 -55 -170.5t-127 -55.5t-130.5 48z
M150.5 86.5q28.5 -25.5 67.5 -25.5q47 0 71 44.5t26 108.5l3 116h-197q-3 -19 -3 -61q0 -34 2 -92q1 -8 1 -22q1 -43 29.5 -68.5z" />
    <glyph glyph-name="uni018F" unicode="&#x259;" horiz-adv-x="447" 
d="M87.5 34q-45.5 48 -45.5 140v237q46 -6 169 -6q59 0 106 5l-3 76q-2 68 -26.5 110t-68.5 42q-80 0 -88 -105q-19 3 -45 3q-25 0 -46 -3q16 91 57.5 136.5t119.5 45.5q87 0 129 -57.5t54 -173.5q7 -64 7 -140q0 -72 -7 -132q-13 -115 -55 -170.5t-127 -55.5t-130.5 48z
M150.5 86.5q28.5 -25.5 67.5 -25.5q47 0 71 44.5t26 108.5l3 116h-197q-3 -19 -3 -61q0 -34 2 -92q1 -8 1 -22q1 -43 29.5 -68.5z" />
    <glyph glyph-name="uni018F" unicode="&#x259;" horiz-adv-x="447" 
d="M87.5 34q-45.5 48 -45.5 140v237q46 -6 169 -6q59 0 106 5l-3 76q-2 68 -26.5 110t-68.5 42q-80 0 -88 -105q-19 3 -45 3q-25 0 -46 -3q16 91 57.5 136.5t119.5 45.5q87 0 129 -57.5t54 -173.5q7 -64 7 -140q0 -72 -7 -132q-13 -115 -55 -170.5t-127 -55.5t-130.5 48z
M150.5 86.5q28.5 -25.5 67.5 -25.5q47 0 71 44.5t26 108.5l3 116h-197q-3 -19 -3 -61q0 -34 2 -92q1 -8 1 -22q1 -43 29.5 -68.5z" />
    <glyph glyph-name="F" unicode="F" horiz-adv-x="363" 
d="M62 183v333q0 55 -18 184h295l-20 -86q-22 3 -39 4t-39 1q-36 0 -88 -5v-202q20 -3 36 -4t38 -1q18 0 34.5 1t39.5 4v-86q-22 3 -38 4t-36 1q-21 0 -37.5 -1t-36.5 -4v-143q0 -40 18 -183h-126q17 143 17 183z" />
    <glyph glyph-name="F" unicode="f" horiz-adv-x="363" 
d="M62 183v333q0 55 -18 184h295l-20 -86q-22 3 -39 4t-39 1q-36 0 -88 -5v-202q20 -3 36 -4t38 -1q18 0 34.5 1t39.5 4v-86q-22 3 -38 4t-36 1q-21 0 -37.5 -1t-36.5 -4v-143q0 -40 18 -183h-126q17 143 17 183z" />
    <glyph glyph-name="F" unicode="f" horiz-adv-x="363" 
d="M62 183v333q0 55 -18 184h295l-20 -86q-22 3 -39 4t-39 1q-36 0 -88 -5v-202q20 -3 36 -4t38 -1q18 0 34.5 1t39.5 4v-86q-22 3 -38 4t-36 1q-21 0 -37.5 -1t-36.5 -4v-143q0 -40 18 -183h-126q17 143 17 183z" />
    <glyph glyph-name="G" unicode="G" horiz-adv-x="445" 
d="M105.5 41.5q-45.5 55.5 -58.5 170.5q-7 60 -7 132q0 76 7 140q12 116 54 173.5t129 57.5q78 0 119.5 -45.5t57.5 -136.5q-19 3 -45 3q-25 0 -46 -3q-8 105 -88 105q-44 0 -69.5 -45t-25.5 -107l-1 -272q0 -61 27 -107t71 -46q41 0 68 25t28 69l1 35q2 34 2 47q0 24 -3 43
q-51 -2 -74 -5v86q21 -3 37.5 -4t38.5 -1q20 0 36.5 1t40.5 4v-187q0 -92 -43 -140t-122 -48q-89 0 -134.5 55.5z" />
    <glyph glyph-name="G" unicode="g" horiz-adv-x="445" 
d="M105.5 41.5q-45.5 55.5 -58.5 170.5q-7 60 -7 132q0 76 7 140q12 116 54 173.5t129 57.5q78 0 119.5 -45.5t57.5 -136.5q-19 3 -45 3q-25 0 -46 -3q-8 105 -88 105q-44 0 -69.5 -45t-25.5 -107l-1 -272q0 -61 27 -107t71 -46q41 0 68 25t28 69l1 35q2 34 2 47q0 24 -3 43
q-51 -2 -74 -5v86q21 -3 37.5 -4t38.5 -1q20 0 36.5 1t40.5 4v-187q0 -92 -43 -140t-122 -48q-89 0 -134.5 55.5z" />
    <glyph glyph-name="G" unicode="g" horiz-adv-x="445" 
d="M105.5 41.5q-45.5 55.5 -58.5 170.5q-7 60 -7 132q0 76 7 140q12 116 54 173.5t129 57.5q78 0 119.5 -45.5t57.5 -136.5q-19 3 -45 3q-25 0 -46 -3q-8 105 -88 105q-44 0 -69.5 -45t-25.5 -107l-1 -272q0 -61 27 -107t71 -46q41 0 68 25t28 69l1 35q2 34 2 47q0 24 -3 43
q-51 -2 -74 -5v86q21 -3 37.5 -4t38.5 -1q20 0 36.5 1t40.5 4v-187q0 -92 -43 -140t-122 -48q-89 0 -134.5 55.5z" />
    <glyph glyph-name="Gbreve" unicode="&#x11e;" horiz-adv-x="445" 
d="M105.5 41.5q-45.5 55.5 -58.5 170.5q-7 60 -7 132q0 76 7 140q12 116 54 173.5t129 57.5q78 0 119.5 -45.5t57.5 -136.5q-19 3 -45 3q-25 0 -46 -3q-8 105 -88 105q-44 0 -69.5 -45t-25.5 -107l-1 -272q0 -61 27 -107t71 -46q41 0 68 25t28 69l1 35q2 34 2 47q0 24 -3 43
q-51 -2 -74 -5v86q21 -3 37.5 -4t38.5 -1q20 0 36.5 1t40.5 4v-187q0 -92 -43 -140t-122 -48q-89 0 -134.5 55.5zM144.5 844q-31.5 30 -41.5 74h70q4 -19 18.5 -30t31.5 -11t30.5 11t17.5 30h70q-10 -44 -41.5 -74t-76.5 -30q-47 0 -78.5 30z" />
    <glyph glyph-name="Gbreve" unicode="&#x11f;" horiz-adv-x="445" 
d="M105.5 41.5q-45.5 55.5 -58.5 170.5q-7 60 -7 132q0 76 7 140q12 116 54 173.5t129 57.5q78 0 119.5 -45.5t57.5 -136.5q-19 3 -45 3q-25 0 -46 -3q-8 105 -88 105q-44 0 -69.5 -45t-25.5 -107l-1 -272q0 -61 27 -107t71 -46q41 0 68 25t28 69l1 35q2 34 2 47q0 24 -3 43
q-51 -2 -74 -5v86q21 -3 37.5 -4t38.5 -1q20 0 36.5 1t40.5 4v-187q0 -92 -43 -140t-122 -48q-89 0 -134.5 55.5zM144.5 844q-31.5 30 -41.5 74h70q4 -19 18.5 -30t31.5 -11t30.5 11t17.5 30h70q-10 -44 -41.5 -74t-76.5 -30q-47 0 -78.5 30z" />
    <glyph glyph-name="Gbreve" unicode="&#x11f;" horiz-adv-x="445" 
d="M105.5 41.5q-45.5 55.5 -58.5 170.5q-7 60 -7 132q0 76 7 140q12 116 54 173.5t129 57.5q78 0 119.5 -45.5t57.5 -136.5q-19 3 -45 3q-25 0 -46 -3q-8 105 -88 105q-44 0 -69.5 -45t-25.5 -107l-1 -272q0 -61 27 -107t71 -46q41 0 68 25t28 69l1 35q2 34 2 47q0 24 -3 43
q-51 -2 -74 -5v86q21 -3 37.5 -4t38.5 -1q20 0 36.5 1t40.5 4v-187q0 -92 -43 -140t-122 -48q-89 0 -134.5 55.5zM144.5 844q-31.5 30 -41.5 74h70q4 -19 18.5 -30t31.5 -11t30.5 11t17.5 30h70q-10 -44 -41.5 -74t-76.5 -30q-47 0 -78.5 30z" />
    <glyph glyph-name="Gcircumflex" unicode="&#x11c;" horiz-adv-x="445" 
d="M105.5 41.5q-45.5 55.5 -58.5 170.5q-7 60 -7 132q0 76 7 140q12 116 54 173.5t129 57.5q78 0 119.5 -45.5t57.5 -136.5q-19 3 -45 3q-25 0 -46 -3q-8 105 -88 105q-44 0 -69.5 -45t-25.5 -107l-1 -272q0 -61 27 -107t71 -46q41 0 68 25t28 69l1 35q2 34 2 47q0 24 -3 43
q-51 -2 -74 -5v86q21 -3 37.5 -4t38.5 -1q20 0 36.5 1t40.5 4v-187q0 -92 -43 -140t-122 -48q-89 0 -134.5 55.5zM127.5 857.5q11.5 11.5 25.5 27.5q16 18 25 30.5t20 30.5h47q11 -18 20 -30.5t25 -30.5q14 -16 25.5 -27.5t29.5 -27.5l-55 -46q-22 32 -46 62q-4 4 -23 30
q-12 -18 -22 -30q-24 -30 -46 -62l-55 46q18 16 29.5 27.5z" />
    <glyph glyph-name="Gcircumflex" unicode="&#x11d;" horiz-adv-x="445" 
d="M105.5 41.5q-45.5 55.5 -58.5 170.5q-7 60 -7 132q0 76 7 140q12 116 54 173.5t129 57.5q78 0 119.5 -45.5t57.5 -136.5q-19 3 -45 3q-25 0 -46 -3q-8 105 -88 105q-44 0 -69.5 -45t-25.5 -107l-1 -272q0 -61 27 -107t71 -46q41 0 68 25t28 69l1 35q2 34 2 47q0 24 -3 43
q-51 -2 -74 -5v86q21 -3 37.5 -4t38.5 -1q20 0 36.5 1t40.5 4v-187q0 -92 -43 -140t-122 -48q-89 0 -134.5 55.5zM127.5 857.5q11.5 11.5 25.5 27.5q16 18 25 30.5t20 30.5h47q11 -18 20 -30.5t25 -30.5q14 -16 25.5 -27.5t29.5 -27.5l-55 -46q-22 32 -46 62q-4 4 -23 30
q-12 -18 -22 -30q-24 -30 -46 -62l-55 46q18 16 29.5 27.5z" />
    <glyph glyph-name="Gcircumflex" unicode="&#x11d;" horiz-adv-x="445" 
d="M105.5 41.5q-45.5 55.5 -58.5 170.5q-7 60 -7 132q0 76 7 140q12 116 54 173.5t129 57.5q78 0 119.5 -45.5t57.5 -136.5q-19 3 -45 3q-25 0 -46 -3q-8 105 -88 105q-44 0 -69.5 -45t-25.5 -107l-1 -272q0 -61 27 -107t71 -46q41 0 68 25t28 69l1 35q2 34 2 47q0 24 -3 43
q-51 -2 -74 -5v86q21 -3 37.5 -4t38.5 -1q20 0 36.5 1t40.5 4v-187q0 -92 -43 -140t-122 -48q-89 0 -134.5 55.5zM127.5 857.5q11.5 11.5 25.5 27.5q16 18 25 30.5t20 30.5h47q11 -18 20 -30.5t25 -30.5q14 -16 25.5 -27.5t29.5 -27.5l-55 -46q-22 32 -46 62q-4 4 -23 30
q-12 -18 -22 -30q-24 -30 -46 -62l-55 46q18 16 29.5 27.5z" />
    <glyph glyph-name="uni0122" unicode="&#x122;" horiz-adv-x="445" 
d="M105.5 41.5q-45.5 55.5 -58.5 170.5q-7 60 -7 132q0 76 7 140q12 116 54 173.5t129 57.5q78 0 119.5 -45.5t57.5 -136.5q-19 3 -45 3q-25 0 -46 -3q-8 105 -88 105q-44 0 -69.5 -45t-25.5 -107l-1 -272q0 -61 27 -107t71 -46q41 0 68 25t28 69l1 35q2 34 2 47q0 24 -3 43
q-51 -2 -74 -5v86q21 -3 37.5 -4t38.5 -1q20 0 36.5 1t40.5 4v-187q0 -92 -43 -140t-122 -48q-89 0 -134.5 55.5zM167 -196l9 21q17 34 30 69l22 61l49 -11l-12 -68q-8 -37 -15 -96q-37 18 -83 24z" />
    <glyph glyph-name="uni0122" unicode="&#x123;" horiz-adv-x="445" 
d="M105.5 41.5q-45.5 55.5 -58.5 170.5q-7 60 -7 132q0 76 7 140q12 116 54 173.5t129 57.5q78 0 119.5 -45.5t57.5 -136.5q-19 3 -45 3q-25 0 -46 -3q-8 105 -88 105q-44 0 -69.5 -45t-25.5 -107l-1 -272q0 -61 27 -107t71 -46q41 0 68 25t28 69l1 35q2 34 2 47q0 24 -3 43
q-51 -2 -74 -5v86q21 -3 37.5 -4t38.5 -1q20 0 36.5 1t40.5 4v-187q0 -92 -43 -140t-122 -48q-89 0 -134.5 55.5zM167 -196l9 21q17 34 30 69l22 61l49 -11l-12 -68q-8 -37 -15 -96q-37 18 -83 24z" />
    <glyph glyph-name="uni0122" unicode="&#x123;" horiz-adv-x="445" 
d="M105.5 41.5q-45.5 55.5 -58.5 170.5q-7 60 -7 132q0 76 7 140q12 116 54 173.5t129 57.5q78 0 119.5 -45.5t57.5 -136.5q-19 3 -45 3q-25 0 -46 -3q-8 105 -88 105q-44 0 -69.5 -45t-25.5 -107l-1 -272q0 -61 27 -107t71 -46q41 0 68 25t28 69l1 35q2 34 2 47q0 24 -3 43
q-51 -2 -74 -5v86q21 -3 37.5 -4t38.5 -1q20 0 36.5 1t40.5 4v-187q0 -92 -43 -140t-122 -48q-89 0 -134.5 55.5zM167 -196l9 21q17 34 30 69l22 61l49 -11l-12 -68q-8 -37 -15 -96q-37 18 -83 24z" />
    <glyph glyph-name="Gdotaccent" unicode="&#x120;" horiz-adv-x="445" 
d="M105.5 41.5q-45.5 55.5 -58.5 170.5q-7 60 -7 132q0 76 7 140q12 116 54 173.5t129 57.5q78 0 119.5 -45.5t57.5 -136.5q-19 3 -45 3q-25 0 -46 -3q-8 105 -88 105q-44 0 -69.5 -45t-25.5 -107l-1 -272q0 -61 27 -107t71 -46q41 0 68 25t28 69l1 35q2 34 2 47q0 24 -3 43
q-51 -2 -74 -5v86q21 -3 37.5 -4t38.5 -1q20 0 36.5 1t40.5 4v-187q0 -92 -43 -140t-122 -48q-89 0 -134.5 55.5zM180.5 910q14.5 14 41.5 14q26 0 40.5 -14.5t14.5 -40.5q0 -27 -14.5 -41.5t-40.5 -14.5q-27 0 -41.5 15t-14.5 41q0 27 14.5 41z" />
    <glyph glyph-name="Gdotaccent" unicode="&#x121;" horiz-adv-x="445" 
d="M105.5 41.5q-45.5 55.5 -58.5 170.5q-7 60 -7 132q0 76 7 140q12 116 54 173.5t129 57.5q78 0 119.5 -45.5t57.5 -136.5q-19 3 -45 3q-25 0 -46 -3q-8 105 -88 105q-44 0 -69.5 -45t-25.5 -107l-1 -272q0 -61 27 -107t71 -46q41 0 68 25t28 69l1 35q2 34 2 47q0 24 -3 43
q-51 -2 -74 -5v86q21 -3 37.5 -4t38.5 -1q20 0 36.5 1t40.5 4v-187q0 -92 -43 -140t-122 -48q-89 0 -134.5 55.5zM180.5 910q14.5 14 41.5 14q26 0 40.5 -14.5t14.5 -40.5q0 -27 -14.5 -41.5t-40.5 -14.5q-27 0 -41.5 15t-14.5 41q0 27 14.5 41z" />
    <glyph glyph-name="Gdotaccent" unicode="&#x121;" horiz-adv-x="445" 
d="M105.5 41.5q-45.5 55.5 -58.5 170.5q-7 60 -7 132q0 76 7 140q12 116 54 173.5t129 57.5q78 0 119.5 -45.5t57.5 -136.5q-19 3 -45 3q-25 0 -46 -3q-8 105 -88 105q-44 0 -69.5 -45t-25.5 -107l-1 -272q0 -61 27 -107t71 -46q41 0 68 25t28 69l1 35q2 34 2 47q0 24 -3 43
q-51 -2 -74 -5v86q21 -3 37.5 -4t38.5 -1q20 0 36.5 1t40.5 4v-187q0 -92 -43 -140t-122 -48q-89 0 -134.5 55.5zM180.5 910q14.5 14 41.5 14q26 0 40.5 -14.5t14.5 -40.5q0 -27 -14.5 -41.5t-40.5 -14.5q-27 0 -41.5 15t-14.5 41q0 27 14.5 41z" />
    <glyph glyph-name="uni1E20" unicode="&#x1e20;" horiz-adv-x="445" 
d="M105.5 41.5q-45.5 55.5 -58.5 170.5q-7 60 -7 132q0 76 7 140q12 116 54 173.5t129 57.5q78 0 119.5 -45.5t57.5 -136.5q-19 3 -45 3q-25 0 -46 -3q-8 105 -88 105q-44 0 -69.5 -45t-25.5 -107l-1 -272q0 -61 27 -107t71 -46q41 0 68 25t28 69l1 35q2 34 2 47q0 24 -3 43
q-51 -2 -74 -5v86q21 -3 37.5 -4t38.5 -1q20 0 36.5 1t40.5 4v-187q0 -92 -43 -140t-122 -48q-89 0 -134.5 55.5zM148.5 895q25.5 -2 71.5 -2q30 0 52.5 1t58.5 4v-81q-24 2 -30 2q-43 3 -81 3t-86 -3l-22 -2v81q11 -1 36.5 -3z" />
    <glyph glyph-name="uni1E20" unicode="&#x1e21;" horiz-adv-x="445" 
d="M105.5 41.5q-45.5 55.5 -58.5 170.5q-7 60 -7 132q0 76 7 140q12 116 54 173.5t129 57.5q78 0 119.5 -45.5t57.5 -136.5q-19 3 -45 3q-25 0 -46 -3q-8 105 -88 105q-44 0 -69.5 -45t-25.5 -107l-1 -272q0 -61 27 -107t71 -46q41 0 68 25t28 69l1 35q2 34 2 47q0 24 -3 43
q-51 -2 -74 -5v86q21 -3 37.5 -4t38.5 -1q20 0 36.5 1t40.5 4v-187q0 -92 -43 -140t-122 -48q-89 0 -134.5 55.5zM148.5 895q25.5 -2 71.5 -2q30 0 52.5 1t58.5 4v-81q-24 2 -30 2q-43 3 -81 3t-86 -3l-22 -2v81q11 -1 36.5 -3z" />
    <glyph glyph-name="uni1E20" unicode="&#x1e21;" horiz-adv-x="445" 
d="M105.5 41.5q-45.5 55.5 -58.5 170.5q-7 60 -7 132q0 76 7 140q12 116 54 173.5t129 57.5q78 0 119.5 -45.5t57.5 -136.5q-19 3 -45 3q-25 0 -46 -3q-8 105 -88 105q-44 0 -69.5 -45t-25.5 -107l-1 -272q0 -61 27 -107t71 -46q41 0 68 25t28 69l1 35q2 34 2 47q0 24 -3 43
q-51 -2 -74 -5v86q21 -3 37.5 -4t38.5 -1q20 0 36.5 1t40.5 4v-187q0 -92 -43 -140t-122 -48q-89 0 -134.5 55.5zM148.5 895q25.5 -2 71.5 -2q30 0 52.5 1t58.5 4v-81q-24 2 -30 2q-43 3 -81 3t-86 -3l-22 -2v81q11 -1 36.5 -3z" />
    <glyph glyph-name="H" unicode="H" horiz-adv-x="457" 
d="M62 183v333q0 55 -18 184h123q-14 -133 -14 -184v-99q20 -3 36.5 -4t38.5 -1q20 0 36.5 1t39.5 4v99q0 55 -14 184h123q-18 -133 -18 -184v-333q0 -40 18 -183h-125q16 143 16 183v148q-22 3 -38 4t-38 1t-38 -1t-37 -4v-148q0 -40 16 -183h-125q18 143 18 183z" />
    <glyph glyph-name="H" unicode="h" horiz-adv-x="457" 
d="M62 183v333q0 55 -18 184h123q-14 -133 -14 -184v-99q20 -3 36.5 -4t38.5 -1q20 0 36.5 1t39.5 4v99q0 55 -14 184h123q-18 -133 -18 -184v-333q0 -40 18 -183h-125q16 143 16 183v148q-22 3 -38 4t-38 1t-38 -1t-37 -4v-148q0 -40 16 -183h-125q18 143 18 183z" />
    <glyph glyph-name="H" unicode="h" horiz-adv-x="457" 
d="M62 183v333q0 55 -18 184h123q-14 -133 -14 -184v-99q20 -3 36.5 -4t38.5 -1q20 0 36.5 1t39.5 4v99q0 55 -14 184h123q-18 -133 -18 -184v-333q0 -40 18 -183h-125q16 143 16 183v148q-22 3 -38 4t-38 1t-38 -1t-37 -4v-148q0 -40 16 -183h-125q18 143 18 183z" />
    <glyph glyph-name="Hcircumflex" unicode="&#x124;" horiz-adv-x="457" 
d="M62 183v333q0 55 -18 184h123q-14 -133 -14 -184v-99q20 -3 36.5 -4t38.5 -1q20 0 36.5 1t39.5 4v99q0 55 -14 184h123q-18 -133 -18 -184v-333q0 -40 18 -183h-125q16 143 16 183v148q-22 3 -38 4t-38 1t-38 -1t-37 -4v-148q0 -40 16 -183h-125q18 143 18 183z
M134.5 857.5q11.5 11.5 25.5 27.5q16 18 25 30.5t20 30.5h47q11 -18 20 -30.5t25 -30.5q14 -16 25.5 -27.5t29.5 -27.5l-55 -46q-22 32 -46 62q-4 4 -23 30q-12 -18 -22 -30q-24 -30 -46 -62l-55 46q18 16 29.5 27.5z" />
    <glyph glyph-name="Hcircumflex" unicode="&#x125;" horiz-adv-x="457" 
d="M62 183v333q0 55 -18 184h123q-14 -133 -14 -184v-99q20 -3 36.5 -4t38.5 -1q20 0 36.5 1t39.5 4v99q0 55 -14 184h123q-18 -133 -18 -184v-333q0 -40 18 -183h-125q16 143 16 183v148q-22 3 -38 4t-38 1t-38 -1t-37 -4v-148q0 -40 16 -183h-125q18 143 18 183z
M134.5 857.5q11.5 11.5 25.5 27.5q16 18 25 30.5t20 30.5h47q11 -18 20 -30.5t25 -30.5q14 -16 25.5 -27.5t29.5 -27.5l-55 -46q-22 32 -46 62q-4 4 -23 30q-12 -18 -22 -30q-24 -30 -46 -62l-55 46q18 16 29.5 27.5z" />
    <glyph glyph-name="Hcircumflex" unicode="&#x125;" horiz-adv-x="457" 
d="M62 183v333q0 55 -18 184h123q-14 -133 -14 -184v-99q20 -3 36.5 -4t38.5 -1q20 0 36.5 1t39.5 4v99q0 55 -14 184h123q-18 -133 -18 -184v-333q0 -40 18 -183h-125q16 143 16 183v148q-22 3 -38 4t-38 1t-38 -1t-37 -4v-148q0 -40 16 -183h-125q18 143 18 183z
M134.5 857.5q11.5 11.5 25.5 27.5q16 18 25 30.5t20 30.5h47q11 -18 20 -30.5t25 -30.5q14 -16 25.5 -27.5t29.5 -27.5l-55 -46q-22 32 -46 62q-4 4 -23 30q-12 -18 -22 -30q-24 -30 -46 -62l-55 46q18 16 29.5 27.5z" />
    <glyph glyph-name="I" unicode="I" horiz-adv-x="215" 
d="M62 183v333q0 55 -18 184h127q-18 -133 -18 -184v-333q0 -40 18 -183h-127q18 143 18 183z" />
    <glyph glyph-name="I" unicode="i" horiz-adv-x="215" 
d="M62 183v333q0 55 -18 184h127q-18 -133 -18 -184v-333q0 -40 18 -183h-127q18 143 18 183z" />
    <glyph glyph-name="I" unicode="i" horiz-adv-x="215" 
d="M62 183v333q0 55 -18 184h127q-18 -133 -18 -184v-333q0 -40 18 -183h-127q18 143 18 183z" />
    <glyph glyph-name="IJ" unicode="&#x132;" horiz-adv-x="600" 
d="M62 183v333q0 55 -18 184h127q-18 -133 -18 -184v-333q0 -40 18 -183h-127q18 143 18 183zM272 34.5q-45 49.5 -45 175.5q24 -3 48 -3t48 3q0 -148 70 -148q60 0 60 87v367q0 55 -12 184h115q-12 -133 -12 -184v-375q-2 -78 -44 -117t-107 -39q-76 0 -121 49.5z" />
    <glyph glyph-name="IJ" unicode="&#x133;" horiz-adv-x="600" 
d="M62 183v333q0 55 -18 184h127q-18 -133 -18 -184v-333q0 -40 18 -183h-127q18 143 18 183zM272 34.5q-45 49.5 -45 175.5q24 -3 48 -3t48 3q0 -148 70 -148q60 0 60 87v367q0 55 -12 184h115q-12 -133 -12 -184v-375q-2 -78 -44 -117t-107 -39q-76 0 -121 49.5z" />
    <glyph glyph-name="IJ" unicode="&#x133;" horiz-adv-x="600" 
d="M62 183v333q0 55 -18 184h127q-18 -133 -18 -184v-333q0 -40 18 -183h-127q18 143 18 183zM272 34.5q-45 49.5 -45 175.5q24 -3 48 -3t48 3q0 -148 70 -148q60 0 60 87v367q0 55 -12 184h115q-12 -133 -12 -184v-375q-2 -78 -44 -117t-107 -39q-76 0 -121 49.5z" />
    <glyph glyph-name="Icircumflex" unicode="&#xce;" horiz-adv-x="215" 
d="M62 183v333q0 55 -18 184h127q-18 -133 -18 -184v-333q0 -40 18 -183h-127q18 143 18 183zM13.5 857.5q11.5 11.5 25.5 27.5q16 18 25 30.5t20 30.5h47q11 -18 20 -30.5t25 -30.5q14 -16 25.5 -27.5t29.5 -27.5l-55 -46q-22 32 -46 62q-4 4 -23 30q-12 -18 -22 -30
q-24 -30 -46 -62l-55 46q18 16 29.5 27.5z" />
    <glyph glyph-name="Icircumflex" unicode="&#xee;" horiz-adv-x="215" 
d="M62 183v333q0 55 -18 184h127q-18 -133 -18 -184v-333q0 -40 18 -183h-127q18 143 18 183zM13.5 857.5q11.5 11.5 25.5 27.5q16 18 25 30.5t20 30.5h47q11 -18 20 -30.5t25 -30.5q14 -16 25.5 -27.5t29.5 -27.5l-55 -46q-22 32 -46 62q-4 4 -23 30q-12 -18 -22 -30
q-24 -30 -46 -62l-55 46q18 16 29.5 27.5z" />
    <glyph glyph-name="Icircumflex" unicode="&#xee;" horiz-adv-x="215" 
d="M62 183v333q0 55 -18 184h127q-18 -133 -18 -184v-333q0 -40 18 -183h-127q18 143 18 183zM13.5 857.5q11.5 11.5 25.5 27.5q16 18 25 30.5t20 30.5h47q11 -18 20 -30.5t25 -30.5q14 -16 25.5 -27.5t29.5 -27.5l-55 -46q-22 32 -46 62q-4 4 -23 30q-12 -18 -22 -30
q-24 -30 -46 -62l-55 46q18 16 29.5 27.5z" />
    <glyph glyph-name="Idieresis" unicode="&#xcf;" horiz-adv-x="215" 
d="M62 183v333q0 55 -18 184h127q-18 -133 -18 -184v-333q0 -40 18 -183h-127q18 143 18 183zM139.5 828q-14.5 15 -14.5 41q0 27 14.5 41t41.5 14q26 0 40.5 -14.5t14.5 -40.5q0 -27 -14.5 -41.5t-40.5 -14.5q-27 0 -41.5 15zM-5.5 910q14.5 14 41.5 14q26 0 40.5 -14.5
t14.5 -40.5q0 -27 -14.5 -41.5t-40.5 -14.5q-27 0 -41.5 15t-14.5 41q0 27 14.5 41z" />
    <glyph glyph-name="Idieresis" unicode="&#xef;" horiz-adv-x="215" 
d="M62 183v333q0 55 -18 184h127q-18 -133 -18 -184v-333q0 -40 18 -183h-127q18 143 18 183zM139.5 828q-14.5 15 -14.5 41q0 27 14.5 41t41.5 14q26 0 40.5 -14.5t14.5 -40.5q0 -27 -14.5 -41.5t-40.5 -14.5q-27 0 -41.5 15zM-5.5 910q14.5 14 41.5 14q26 0 40.5 -14.5
t14.5 -40.5q0 -27 -14.5 -41.5t-40.5 -14.5q-27 0 -41.5 15t-14.5 41q0 27 14.5 41z" />
    <glyph glyph-name="Idieresis" unicode="&#xef;" horiz-adv-x="215" 
d="M62 183v333q0 55 -18 184h127q-18 -133 -18 -184v-333q0 -40 18 -183h-127q18 143 18 183zM139.5 828q-14.5 15 -14.5 41q0 27 14.5 41t41.5 14q26 0 40.5 -14.5t14.5 -40.5q0 -27 -14.5 -41.5t-40.5 -14.5q-27 0 -41.5 15zM-5.5 910q14.5 14 41.5 14q26 0 40.5 -14.5
t14.5 -40.5q0 -27 -14.5 -41.5t-40.5 -14.5q-27 0 -41.5 15t-14.5 41q0 27 14.5 41z" />
    <glyph glyph-name="Idotaccent" unicode="&#x130;" horiz-adv-x="215" 
d="M62 183v333q0 55 -18 184h127q-18 -133 -18 -184v-333q0 -40 18 -183h-127q18 143 18 183zM66.5 910q14.5 14 41.5 14q26 0 40.5 -14.5t14.5 -40.5q0 -27 -14.5 -41.5t-40.5 -14.5q-27 0 -41.5 15t-14.5 41q0 27 14.5 41z" />
    <glyph glyph-name="Igrave" unicode="&#xcc;" horiz-adv-x="215" 
d="M62 183v333q0 55 -18 184h127q-18 -133 -18 -184v-333q0 -40 18 -183h-127q18 143 18 183zM77 838q-13 18 -24 30t-26 27l69 52q10 -18 19 -32t22 -32q12 -16 23 -29t28 -30l-69 -51q-23 37 -42 65z" />
    <glyph glyph-name="Igrave" unicode="&#xec;" horiz-adv-x="215" 
d="M62 183v333q0 55 -18 184h127q-18 -133 -18 -184v-333q0 -40 18 -183h-127q18 143 18 183zM77 838q-13 18 -24 30t-26 27l69 52q10 -18 19 -32t22 -32q12 -16 23 -29t28 -30l-69 -51q-23 37 -42 65z" />
    <glyph glyph-name="Igrave" unicode="&#xec;" horiz-adv-x="215" 
d="M62 183v333q0 55 -18 184h127q-18 -133 -18 -184v-333q0 -40 18 -183h-127q18 143 18 183zM77 838q-13 18 -24 30t-26 27l69 52q10 -18 19 -32t22 -32q12 -16 23 -29t28 -30l-69 -51q-23 37 -42 65z" />
    <glyph glyph-name="Itilde" unicode="&#x128;" horiz-adv-x="215" 
d="M62 183v333q0 55 -18 184h127q-18 -133 -18 -184v-333q0 -40 18 -183h-127q18 143 18 183zM121.5 780q-16.5 13 -32.5 35q-14 17 -21 23.5t-18 6.5q-19 0 -26 -13.5t-7 -43.5v-14h-44v39q0 32 16.5 60t52.5 28q29 0 45 -12.5t32 -35.5q11 -15 19 -22.5t20 -7.5
q25 0 33 14.5t8 42.5v15h44v-40q0 -31 -20 -59.5t-60 -28.5q-25 0 -41.5 13z" />
    <glyph glyph-name="Itilde" unicode="&#x129;" horiz-adv-x="215" 
d="M62 183v333q0 55 -18 184h127q-18 -133 -18 -184v-333q0 -40 18 -183h-127q18 143 18 183zM121.5 780q-16.5 13 -32.5 35q-14 17 -21 23.5t-18 6.5q-19 0 -26 -13.5t-7 -43.5v-14h-44v39q0 32 16.5 60t52.5 28q29 0 45 -12.5t32 -35.5q11 -15 19 -22.5t20 -7.5
q25 0 33 14.5t8 42.5v15h44v-40q0 -31 -20 -59.5t-60 -28.5q-25 0 -41.5 13z" />
    <glyph glyph-name="Itilde" unicode="&#x129;" horiz-adv-x="215" 
d="M62 183v333q0 55 -18 184h127q-18 -133 -18 -184v-333q0 -40 18 -183h-127q18 143 18 183zM121.5 780q-16.5 13 -32.5 35q-14 17 -21 23.5t-18 6.5q-19 0 -26 -13.5t-7 -43.5v-14h-44v39q0 32 16.5 60t52.5 28q29 0 45 -12.5t32 -35.5q11 -15 19 -22.5t20 -7.5
q25 0 33 14.5t8 42.5v15h44v-40q0 -31 -20 -59.5t-60 -28.5q-25 0 -41.5 13z" />
    <glyph glyph-name="J" unicode="J" horiz-adv-x="385" 
d="M57 34.5q-45 49.5 -45 175.5q24 -3 48 -3t48 3q0 -148 70 -148q60 0 60 87v367q0 55 -12 184h115q-12 -133 -12 -184v-375q-2 -78 -44 -117t-107 -39q-76 0 -121 49.5z" />
    <glyph glyph-name="J" unicode="j" horiz-adv-x="385" 
d="M57 34.5q-45 49.5 -45 175.5q24 -3 48 -3t48 3q0 -148 70 -148q60 0 60 87v367q0 55 -12 184h115q-12 -133 -12 -184v-375q-2 -78 -44 -117t-107 -39q-76 0 -121 49.5z" />
    <glyph glyph-name="J" unicode="j" horiz-adv-x="385" 
d="M57 34.5q-45 49.5 -45 175.5q24 -3 48 -3t48 3q0 -148 70 -148q60 0 60 87v367q0 55 -12 184h115q-12 -133 -12 -184v-375q-2 -78 -44 -117t-107 -39q-76 0 -121 49.5z" />
    <glyph glyph-name="uni004A0301" horiz-adv-x="385" 
d="M57 34.5q-45 49.5 -45 175.5q24 -3 48 -3t48 3q0 -148 70 -148q60 0 60 87v367q0 55 -12 184h115q-12 -133 -12 -184v-375q-2 -78 -44 -117t-107 -39q-76 0 -121 49.5zM109 809l36 59q8 13 26 46l15 30q30 -32 69 -52l-22 -21q-20 -18 -40 -41l-42 -49z" />
    <glyph glyph-name="Jcircumflex" unicode="&#x134;" horiz-adv-x="385" 
d="M57 34.5q-45 49.5 -45 175.5q24 -3 48 -3t48 3q0 -148 70 -148q60 0 60 87v367q0 55 -12 184h115q-12 -133 -12 -184v-375q-2 -78 -44 -117t-107 -39q-76 0 -121 49.5zM87.5 857.5q11.5 11.5 25.5 27.5q16 18 25 30.5t20 30.5h47q11 -18 20 -30.5t25 -30.5
q14 -16 25.5 -27.5t29.5 -27.5l-55 -46q-22 32 -46 62q-4 4 -23 30q-12 -18 -22 -30q-24 -30 -46 -62l-55 46q18 16 29.5 27.5z" />
    <glyph glyph-name="Jcircumflex" unicode="&#x135;" horiz-adv-x="385" 
d="M57 34.5q-45 49.5 -45 175.5q24 -3 48 -3t48 3q0 -148 70 -148q60 0 60 87v367q0 55 -12 184h115q-12 -133 -12 -184v-375q-2 -78 -44 -117t-107 -39q-76 0 -121 49.5zM87.5 857.5q11.5 11.5 25.5 27.5q16 18 25 30.5t20 30.5h47q11 -18 20 -30.5t25 -30.5
q14 -16 25.5 -27.5t29.5 -27.5l-55 -46q-22 32 -46 62q-4 4 -23 30q-12 -18 -22 -30q-24 -30 -46 -62l-55 46q18 16 29.5 27.5z" />
    <glyph glyph-name="Jcircumflex" unicode="&#x135;" horiz-adv-x="385" 
d="M57 34.5q-45 49.5 -45 175.5q24 -3 48 -3t48 3q0 -148 70 -148q60 0 60 87v367q0 55 -12 184h115q-12 -133 -12 -184v-375q-2 -78 -44 -117t-107 -39q-76 0 -121 49.5zM87.5 857.5q11.5 11.5 25.5 27.5q16 18 25 30.5t20 30.5h47q11 -18 20 -30.5t25 -30.5
q14 -16 25.5 -27.5t29.5 -27.5l-55 -46q-22 32 -46 62q-4 4 -23 30q-12 -18 -22 -30q-24 -30 -46 -62l-55 46q18 16 29.5 27.5z" />
    <glyph glyph-name="K" unicode="K" horiz-adv-x="436" 
d="M259 151q-8 25 -21.5 58.5t-19.5 46.5q-18 39 -32 74l-33 -65v-82q0 -40 15 -183h-124q18 143 18 183v333q0 55 -18 184h124q-15 -133 -15 -184v-100q77 170 107 284h119q-15 -26 -40 -74.5t-36 -72.5l-67 -130q63 -172 198 -423h-128q-14 51 -47 151z" />
    <glyph glyph-name="K" unicode="k" horiz-adv-x="436" 
d="M259 151q-8 25 -21.5 58.5t-19.5 46.5q-18 39 -32 74l-33 -65v-82q0 -40 15 -183h-124q18 143 18 183v333q0 55 -18 184h124q-15 -133 -15 -184v-100q77 170 107 284h119q-15 -26 -40 -74.5t-36 -72.5l-67 -130q63 -172 198 -423h-128q-14 51 -47 151z" />
    <glyph glyph-name="K" unicode="k" horiz-adv-x="436" 
d="M259 151q-8 25 -21.5 58.5t-19.5 46.5q-18 39 -32 74l-33 -65v-82q0 -40 15 -183h-124q18 143 18 183v333q0 55 -18 184h124q-15 -133 -15 -184v-100q77 170 107 284h119q-15 -26 -40 -74.5t-36 -72.5l-67 -130q63 -172 198 -423h-128q-14 51 -47 151z" />
    <glyph glyph-name="uni0136" unicode="&#x136;" horiz-adv-x="436" 
d="M259 151q-8 25 -21.5 58.5t-19.5 46.5q-18 39 -32 74l-33 -65v-82q0 -40 15 -183h-124q18 143 18 183v333q0 55 -18 184h124q-15 -133 -15 -184v-100q77 170 107 284h119q-15 -26 -40 -74.5t-36 -72.5l-67 -130q63 -172 198 -423h-128q-14 51 -47 151zM168 -196l9 21
q17 34 30 69l22 61l49 -11l-12 -68q-8 -37 -15 -96q-37 18 -83 24z" />
    <glyph glyph-name="uni0136" unicode="&#x137;" horiz-adv-x="436" 
d="M259 151q-8 25 -21.5 58.5t-19.5 46.5q-18 39 -32 74l-33 -65v-82q0 -40 15 -183h-124q18 143 18 183v333q0 55 -18 184h124q-15 -133 -15 -184v-100q77 170 107 284h119q-15 -26 -40 -74.5t-36 -72.5l-67 -130q63 -172 198 -423h-128q-14 51 -47 151zM168 -196l9 21
q17 34 30 69l22 61l49 -11l-12 -68q-8 -37 -15 -96q-37 18 -83 24z" />
    <glyph glyph-name="uni0136" unicode="&#x137;" horiz-adv-x="436" 
d="M259 151q-8 25 -21.5 58.5t-19.5 46.5q-18 39 -32 74l-33 -65v-82q0 -40 15 -183h-124q18 143 18 183v333q0 55 -18 184h124q-15 -133 -15 -184v-100q77 170 107 284h119q-15 -26 -40 -74.5t-36 -72.5l-67 -130q63 -172 198 -423h-128q-14 51 -47 151zM168 -196l9 21
q17 34 30 69l22 61l49 -11l-12 -68q-8 -37 -15 -96q-37 18 -83 24z" />
    <glyph glyph-name="L" unicode="L" horiz-adv-x="376" 
d="M62 183v333q0 55 -18 184h126q-17 -133 -17 -184v-333q0 -13 6 -71l3 -28q50 -3 98 -3q60 0 102 5l-20 -86h-298q18 143 18 183z" />
    <glyph glyph-name="L" unicode="l" horiz-adv-x="376" 
d="M62 183v333q0 55 -18 184h126q-17 -133 -17 -184v-333q0 -13 6 -71l3 -28q50 -3 98 -3q60 0 102 5l-20 -86h-298q18 143 18 183z" />
    <glyph glyph-name="L" unicode="l" horiz-adv-x="376" 
d="M62 183v333q0 55 -18 184h126q-17 -133 -17 -184v-333q0 -13 6 -71l3 -28q50 -3 98 -3q60 0 102 5l-20 -86h-298q18 143 18 183z" />
    <glyph glyph-name="Lacute" unicode="&#x139;" horiz-adv-x="376" 
d="M62 183v333q0 55 -18 184h126q-17 -133 -17 -184v-333q0 -13 6 -71l3 -28q50 -3 98 -3q60 0 102 5l-20 -86h-298q18 143 18 183zM114 809l36 59q8 13 26 46l15 30q30 -32 69 -52l-22 -21q-20 -18 -40 -41l-42 -49z" />
    <glyph glyph-name="Lacute" unicode="&#x13a;" horiz-adv-x="376" 
d="M62 183v333q0 55 -18 184h126q-17 -133 -17 -184v-333q0 -13 6 -71l3 -28q50 -3 98 -3q60 0 102 5l-20 -86h-298q18 143 18 183zM114 809l36 59q8 13 26 46l15 30q30 -32 69 -52l-22 -21q-20 -18 -40 -41l-42 -49z" />
    <glyph glyph-name="Lacute" unicode="&#x13a;" horiz-adv-x="376" 
d="M62 183v333q0 55 -18 184h126q-17 -133 -17 -184v-333q0 -13 6 -71l3 -28q50 -3 98 -3q60 0 102 5l-20 -86h-298q18 143 18 183zM114 809l36 59q8 13 26 46l15 30q30 -32 69 -52l-22 -21q-20 -18 -40 -41l-42 -49z" />
    <glyph glyph-name="Lcaron" unicode="&#x13d;" horiz-adv-x="376" 
d="M62 183v333q0 55 -18 184h126q-17 -133 -17 -184v-333q0 -13 6 -71l3 -28q50 -3 98 -3q60 0 102 5l-20 -86h-298q18 143 18 183zM381 447q-9 3 -9 8q0 4 5 22t8 38q4 23 6 56q0 8 2 30q41 -18 84 -21l-12 -29q-14 -32 -21 -52q-10 -32 -16.5 -47t-15.5 -13q-15 3 -31 8z
" />
    <glyph glyph-name="Lcaron" unicode="&#x13e;" horiz-adv-x="376" 
d="M62 183v333q0 55 -18 184h126q-17 -133 -17 -184v-333q0 -13 6 -71l3 -28q50 -3 98 -3q60 0 102 5l-20 -86h-298q18 143 18 183zM381 447q-9 3 -9 8q0 4 5 22t8 38q4 23 6 56q0 8 2 30q41 -18 84 -21l-12 -29q-14 -32 -21 -52q-10 -32 -16.5 -47t-15.5 -13q-15 3 -31 8z
" />
    <glyph glyph-name="Lcaron" unicode="&#x13e;" horiz-adv-x="376" 
d="M62 183v333q0 55 -18 184h126q-17 -133 -17 -184v-333q0 -13 6 -71l3 -28q50 -3 98 -3q60 0 102 5l-20 -86h-298q18 143 18 183zM381 447q-9 3 -9 8q0 4 5 22t8 38q4 23 6 56q0 8 2 30q41 -18 84 -21l-12 -29q-14 -32 -21 -52q-10 -32 -16.5 -47t-15.5 -13q-15 3 -31 8z
" />
    <glyph glyph-name="uni013B" unicode="&#x13b;" horiz-adv-x="376" 
d="M62 183v333q0 55 -18 184h126q-17 -133 -17 -184v-333q0 -13 6 -71l3 -28q50 -3 98 -3q60 0 102 5l-20 -86h-298q18 143 18 183zM132 -196l9 21q17 34 30 69l22 61l49 -11l-12 -68q-8 -37 -15 -96q-37 18 -83 24z" />
    <glyph glyph-name="uni013B" unicode="&#x13c;" horiz-adv-x="376" 
d="M62 183v333q0 55 -18 184h126q-17 -133 -17 -184v-333q0 -13 6 -71l3 -28q50 -3 98 -3q60 0 102 5l-20 -86h-298q18 143 18 183zM132 -196l9 21q17 34 30 69l22 61l49 -11l-12 -68q-8 -37 -15 -96q-37 18 -83 24z" />
    <glyph glyph-name="uni013B" unicode="&#x13c;" horiz-adv-x="376" 
d="M62 183v333q0 55 -18 184h126q-17 -133 -17 -184v-333q0 -13 6 -71l3 -28q50 -3 98 -3q60 0 102 5l-20 -86h-298q18 143 18 183zM132 -196l9 21q17 34 30 69l22 61l49 -11l-12 -68q-8 -37 -15 -96q-37 18 -83 24z" />
    <glyph glyph-name="Lslash" unicode="&#x141;" horiz-adv-x="411" 
d="M61 183v154l-60 -32v86l60 23v102q0 55 -21 184h133q-21 -133 -21 -184v-64l30 13l59 29l37 19v-87l-27 -10q-39 -14 -69 -27l-30 -13v-193q0 -13 6 -71l3 -28q50 -3 98 -3q60 0 102 5l-20 -86h-301q21 143 21 183z" />
    <glyph glyph-name="Lslash" unicode="&#x142;" horiz-adv-x="411" 
d="M61 183v154l-60 -32v86l60 23v102q0 55 -21 184h133q-21 -133 -21 -184v-64l30 13l59 29l37 19v-87l-27 -10q-39 -14 -69 -27l-30 -13v-193q0 -13 6 -71l3 -28q50 -3 98 -3q60 0 102 5l-20 -86h-301q21 143 21 183z" />
    <glyph glyph-name="Lslash" unicode="&#x142;" horiz-adv-x="411" 
d="M61 183v154l-60 -32v86l60 23v102q0 55 -21 184h133q-21 -133 -21 -184v-64l30 13l59 29l37 19v-87l-27 -10q-39 -14 -69 -27l-30 -13v-193q0 -13 6 -71l3 -28q50 -3 98 -3q60 0 102 5l-20 -86h-301q21 143 21 183z" />
    <glyph glyph-name="M" unicode="M" horiz-adv-x="572" 
d="M62 183v333q0 55 -18 184h130l115 -411l109 411h130q-18 -133 -18 -184v-333q0 -40 18 -183h-126q17 143 17 183v287l-133 -385l-133 390v-292q0 -40 17 -183h-126q18 143 18 183z" />
    <glyph glyph-name="M" unicode="m" horiz-adv-x="572" 
d="M62 183v333q0 55 -18 184h130l115 -411l109 411h130q-18 -133 -18 -184v-333q0 -40 18 -183h-126q17 143 17 183v287l-133 -385l-133 390v-292q0 -40 17 -183h-126q18 143 18 183z" />
    <glyph glyph-name="M" unicode="m" horiz-adv-x="572" 
d="M62 183v333q0 55 -18 184h130l115 -411l109 411h130q-18 -133 -18 -184v-333q0 -40 18 -183h-126q17 143 17 183v287l-133 -385l-133 390v-292q0 -40 17 -183h-126q18 143 18 183z" />
    <glyph glyph-name="N" unicode="N" horiz-adv-x="516" 
d="M62 183v333q0 55 -18 184h130l204 -530l-15 346q-3 55 -15 184h124q-18 -133 -18 -184v-333q0 -40 18 -183h-127l-200 529l8 -346q1 -40 15 -183h-122q16 143 16 183z" />
    <glyph glyph-name="N" unicode="n" horiz-adv-x="516" 
d="M62 183v333q0 55 -18 184h130l204 -530l-15 346q-3 55 -15 184h124q-18 -133 -18 -184v-333q0 -40 18 -183h-127l-200 529l8 -346q1 -40 15 -183h-122q16 143 16 183z" />
    <glyph glyph-name="N" unicode="n" horiz-adv-x="516" 
d="M62 183v333q0 55 -18 184h130l204 -530l-15 346q-3 55 -15 184h124q-18 -133 -18 -184v-333q0 -40 18 -183h-127l-200 529l8 -346q1 -40 15 -183h-122q16 143 16 183z" />
    <glyph glyph-name="Nacute" unicode="&#x143;" horiz-adv-x="516" 
d="M62 183v333q0 55 -18 184h130l204 -530l-15 346q-3 55 -15 184h124q-18 -133 -18 -184v-333q0 -40 18 -183h-127l-200 529l8 -346q1 -40 15 -183h-122q16 143 16 183zM190 809l36 59q8 13 26 46l15 30q30 -32 69 -52l-22 -21q-20 -18 -40 -41l-42 -49z" />
    <glyph glyph-name="Nacute" unicode="&#x144;" horiz-adv-x="516" 
d="M62 183v333q0 55 -18 184h130l204 -530l-15 346q-3 55 -15 184h124q-18 -133 -18 -184v-333q0 -40 18 -183h-127l-200 529l8 -346q1 -40 15 -183h-122q16 143 16 183zM190 809l36 59q8 13 26 46l15 30q30 -32 69 -52l-22 -21q-20 -18 -40 -41l-42 -49z" />
    <glyph glyph-name="Nacute" unicode="&#x144;" horiz-adv-x="516" 
d="M62 183v333q0 55 -18 184h130l204 -530l-15 346q-3 55 -15 184h124q-18 -133 -18 -184v-333q0 -40 18 -183h-127l-200 529l8 -346q1 -40 15 -183h-122q16 143 16 183zM190 809l36 59q8 13 26 46l15 30q30 -32 69 -52l-22 -21q-20 -18 -40 -41l-42 -49z" />
    <glyph glyph-name="Ncaron" unicode="&#x147;" horiz-adv-x="516" 
d="M62 183v333q0 55 -18 184h130l204 -530l-15 346q-3 55 -15 184h124q-18 -133 -18 -184v-333q0 -40 18 -183h-127l-200 529l8 -346q1 -40 15 -183h-122q16 143 16 183zM216 806.5q-10 12.5 -25 30.5q-16 18 -28 29.5t-32 27.5l56 33q24 -34 49 -64l27 -28l27 28
q25 31 48 64l56 -33q-20 -16 -32 -27.5t-28 -29.5q-15 -18 -25 -30.5t-22 -33.5q-13 3 -26 3q-11 0 -23 -3q-12 21 -22 33.5z" />
    <glyph glyph-name="Ncaron" unicode="&#x148;" horiz-adv-x="516" 
d="M62 183v333q0 55 -18 184h130l204 -530l-15 346q-3 55 -15 184h124q-18 -133 -18 -184v-333q0 -40 18 -183h-127l-200 529l8 -346q1 -40 15 -183h-122q16 143 16 183zM216 806.5q-10 12.5 -25 30.5q-16 18 -28 29.5t-32 27.5l56 33q24 -34 49 -64l27 -28l27 28
q25 31 48 64l56 -33q-20 -16 -32 -27.5t-28 -29.5q-15 -18 -25 -30.5t-22 -33.5q-13 3 -26 3q-11 0 -23 -3q-12 21 -22 33.5z" />
    <glyph glyph-name="Ncaron" unicode="&#x148;" horiz-adv-x="516" 
d="M62 183v333q0 55 -18 184h130l204 -530l-15 346q-3 55 -15 184h124q-18 -133 -18 -184v-333q0 -40 18 -183h-127l-200 529l8 -346q1 -40 15 -183h-122q16 143 16 183zM216 806.5q-10 12.5 -25 30.5q-16 18 -28 29.5t-32 27.5l56 33q24 -34 49 -64l27 -28l27 28
q25 31 48 64l56 -33q-20 -16 -32 -27.5t-28 -29.5q-15 -18 -25 -30.5t-22 -33.5q-13 3 -26 3q-11 0 -23 -3q-12 21 -22 33.5z" />
    <glyph glyph-name="uni0145" unicode="&#x145;" horiz-adv-x="516" 
d="M62 183v333q0 55 -18 184h130l204 -530l-15 346q-3 55 -15 184h124q-18 -133 -18 -184v-333q0 -40 18 -183h-127l-200 529l8 -346q1 -40 15 -183h-122q16 143 16 183zM208 -196l9 21q17 34 30 69l22 61l49 -11l-12 -68q-8 -37 -15 -96q-37 18 -83 24z" />
    <glyph glyph-name="uni0145" unicode="&#x146;" horiz-adv-x="516" 
d="M62 183v333q0 55 -18 184h130l204 -530l-15 346q-3 55 -15 184h124q-18 -133 -18 -184v-333q0 -40 18 -183h-127l-200 529l8 -346q1 -40 15 -183h-122q16 143 16 183zM208 -196l9 21q17 34 30 69l22 61l49 -11l-12 -68q-8 -37 -15 -96q-37 18 -83 24z" />
    <glyph glyph-name="uni0145" unicode="&#x146;" horiz-adv-x="516" 
d="M62 183v333q0 55 -18 184h130l204 -530l-15 346q-3 55 -15 184h124q-18 -133 -18 -184v-333q0 -40 18 -183h-127l-200 529l8 -346q1 -40 15 -183h-122q16 143 16 183zM208 -196l9 21q17 34 30 69l22 61l49 -11l-12 -68q-8 -37 -15 -96q-37 18 -83 24z" />
    <glyph glyph-name="Ntilde" unicode="&#xd1;" horiz-adv-x="516" 
d="M62 183v333q0 55 -18 184h130l204 -530l-15 346q-3 55 -15 184h124q-18 -133 -18 -184v-333q0 -40 18 -183h-127l-200 529l8 -346q1 -40 15 -183h-122q16 143 16 183zM276.5 780q-16.5 13 -32.5 35q-14 17 -21 23.5t-18 6.5q-19 0 -26 -13.5t-7 -43.5v-14h-44v39
q0 32 16.5 60t52.5 28q29 0 45 -12.5t32 -35.5q11 -15 19 -22.5t20 -7.5q25 0 33 14.5t8 42.5v15h44v-40q0 -31 -20 -59.5t-60 -28.5q-25 0 -41.5 13z" />
    <glyph glyph-name="Ntilde" unicode="&#xf1;" horiz-adv-x="516" 
d="M62 183v333q0 55 -18 184h130l204 -530l-15 346q-3 55 -15 184h124q-18 -133 -18 -184v-333q0 -40 18 -183h-127l-200 529l8 -346q1 -40 15 -183h-122q16 143 16 183zM276.5 780q-16.5 13 -32.5 35q-14 17 -21 23.5t-18 6.5q-19 0 -26 -13.5t-7 -43.5v-14h-44v39
q0 32 16.5 60t52.5 28q29 0 45 -12.5t32 -35.5q11 -15 19 -22.5t20 -7.5q25 0 33 14.5t8 42.5v15h44v-40q0 -31 -20 -59.5t-60 -28.5q-25 0 -41.5 13z" />
    <glyph glyph-name="Ntilde" unicode="&#xf1;" horiz-adv-x="516" 
d="M62 183v333q0 55 -18 184h130l204 -530l-15 346q-3 55 -15 184h124q-18 -133 -18 -184v-333q0 -40 18 -183h-127l-200 529l8 -346q1 -40 15 -183h-122q16 143 16 183zM276.5 780q-16.5 13 -32.5 35q-14 17 -21 23.5t-18 6.5q-19 0 -26 -13.5t-7 -43.5v-14h-44v39
q0 32 16.5 60t52.5 28q29 0 45 -12.5t32 -35.5q11 -15 19 -22.5t20 -7.5q25 0 33 14.5t8 42.5v15h44v-40q0 -31 -20 -59.5t-60 -28.5q-25 0 -41.5 13z" />
    <glyph glyph-name="O" unicode="O" horiz-adv-x="462" 
d="M101.5 40.5q-41.5 54.5 -54.5 171.5q-7 60 -7 132q0 76 7 140q12 116 54.5 173.5t129.5 57.5t129.5 -57.5t54.5 -173.5q7 -64 7 -140q0 -72 -7 -132q-13 -117 -54.5 -171.5t-129.5 -54.5t-129.5 54.5zM159 93.5q26 -32.5 72 -32.5t72 32.5t26 90.5l-1 332
q0 57 -25.5 89.5t-71.5 32.5t-71.5 -32.5t-25.5 -89.5l-1 -332q0 -58 26 -90.5z" />
    <glyph glyph-name="O" unicode="o" horiz-adv-x="462" 
d="M101.5 40.5q-41.5 54.5 -54.5 171.5q-7 60 -7 132q0 76 7 140q12 116 54.5 173.5t129.5 57.5t129.5 -57.5t54.5 -173.5q7 -64 7 -140q0 -72 -7 -132q-13 -117 -54.5 -171.5t-129.5 -54.5t-129.5 54.5zM159 93.5q26 -32.5 72 -32.5t72 32.5t26 90.5l-1 332
q0 57 -25.5 89.5t-71.5 32.5t-71.5 -32.5t-25.5 -89.5l-1 -332q0 -58 26 -90.5z" />
    <glyph glyph-name="O" unicode="o" horiz-adv-x="462" 
d="M101.5 40.5q-41.5 54.5 -54.5 171.5q-7 60 -7 132q0 76 7 140q12 116 54.5 173.5t129.5 57.5t129.5 -57.5t54.5 -173.5q7 -64 7 -140q0 -72 -7 -132q-13 -117 -54.5 -171.5t-129.5 -54.5t-129.5 54.5zM159 93.5q26 -32.5 72 -32.5t72 32.5t26 90.5l-1 332
q0 57 -25.5 89.5t-71.5 32.5t-71.5 -32.5t-25.5 -89.5l-1 -332q0 -58 26 -90.5z" />
    <glyph glyph-name="Oacute" unicode="&#xd3;" horiz-adv-x="462" 
d="M101.5 40.5q-41.5 54.5 -54.5 171.5q-7 60 -7 132q0 76 7 140q12 116 54.5 173.5t129.5 57.5t129.5 -57.5t54.5 -173.5q7 -64 7 -140q0 -72 -7 -132q-13 -117 -54.5 -171.5t-129.5 -54.5t-129.5 54.5zM159 93.5q26 -32.5 72 -32.5t72 32.5t26 90.5l-1 332
q0 57 -25.5 89.5t-71.5 32.5t-71.5 -32.5t-25.5 -89.5l-1 -332q0 -58 26 -90.5zM158 809l36 59q8 13 26 46l15 30q30 -32 69 -52l-22 -21q-20 -18 -40 -41l-42 -49z" />
    <glyph glyph-name="Oacute" unicode="&#xf3;" horiz-adv-x="462" 
d="M101.5 40.5q-41.5 54.5 -54.5 171.5q-7 60 -7 132q0 76 7 140q12 116 54.5 173.5t129.5 57.5t129.5 -57.5t54.5 -173.5q7 -64 7 -140q0 -72 -7 -132q-13 -117 -54.5 -171.5t-129.5 -54.5t-129.5 54.5zM159 93.5q26 -32.5 72 -32.5t72 32.5t26 90.5l-1 332
q0 57 -25.5 89.5t-71.5 32.5t-71.5 -32.5t-25.5 -89.5l-1 -332q0 -58 26 -90.5zM158 809l36 59q8 13 26 46l15 30q30 -32 69 -52l-22 -21q-20 -18 -40 -41l-42 -49z" />
    <glyph glyph-name="Oacute" unicode="&#xf3;" horiz-adv-x="462" 
d="M101.5 40.5q-41.5 54.5 -54.5 171.5q-7 60 -7 132q0 76 7 140q12 116 54.5 173.5t129.5 57.5t129.5 -57.5t54.5 -173.5q7 -64 7 -140q0 -72 -7 -132q-13 -117 -54.5 -171.5t-129.5 -54.5t-129.5 54.5zM159 93.5q26 -32.5 72 -32.5t72 32.5t26 90.5l-1 332
q0 57 -25.5 89.5t-71.5 32.5t-71.5 -32.5t-25.5 -89.5l-1 -332q0 -58 26 -90.5zM158 809l36 59q8 13 26 46l15 30q30 -32 69 -52l-22 -21q-20 -18 -40 -41l-42 -49z" />
    <glyph glyph-name="Ocircumflex" unicode="&#xd4;" horiz-adv-x="462" 
d="M101.5 40.5q-41.5 54.5 -54.5 171.5q-7 60 -7 132q0 76 7 140q12 116 54.5 173.5t129.5 57.5t129.5 -57.5t54.5 -173.5q7 -64 7 -140q0 -72 -7 -132q-13 -117 -54.5 -171.5t-129.5 -54.5t-129.5 54.5zM159 93.5q26 -32.5 72 -32.5t72 32.5t26 90.5l-1 332
q0 57 -25.5 89.5t-71.5 32.5t-71.5 -32.5t-25.5 -89.5l-1 -332q0 -58 26 -90.5zM136.5 857.5q11.5 11.5 25.5 27.5q16 18 25 30.5t20 30.5h47q11 -18 20 -30.5t25 -30.5q14 -16 25.5 -27.5t29.5 -27.5l-55 -46q-22 32 -46 62q-4 4 -23 30q-12 -18 -22 -30q-24 -30 -46 -62
l-55 46q18 16 29.5 27.5z" />
    <glyph glyph-name="Ocircumflex" unicode="&#xf4;" horiz-adv-x="462" 
d="M101.5 40.5q-41.5 54.5 -54.5 171.5q-7 60 -7 132q0 76 7 140q12 116 54.5 173.5t129.5 57.5t129.5 -57.5t54.5 -173.5q7 -64 7 -140q0 -72 -7 -132q-13 -117 -54.5 -171.5t-129.5 -54.5t-129.5 54.5zM159 93.5q26 -32.5 72 -32.5t72 32.5t26 90.5l-1 332
q0 57 -25.5 89.5t-71.5 32.5t-71.5 -32.5t-25.5 -89.5l-1 -332q0 -58 26 -90.5zM136.5 857.5q11.5 11.5 25.5 27.5q16 18 25 30.5t20 30.5h47q11 -18 20 -30.5t25 -30.5q14 -16 25.5 -27.5t29.5 -27.5l-55 -46q-22 32 -46 62q-4 4 -23 30q-12 -18 -22 -30q-24 -30 -46 -62
l-55 46q18 16 29.5 27.5z" />
    <glyph glyph-name="Ocircumflex" unicode="&#xf4;" horiz-adv-x="462" 
d="M101.5 40.5q-41.5 54.5 -54.5 171.5q-7 60 -7 132q0 76 7 140q12 116 54.5 173.5t129.5 57.5t129.5 -57.5t54.5 -173.5q7 -64 7 -140q0 -72 -7 -132q-13 -117 -54.5 -171.5t-129.5 -54.5t-129.5 54.5zM159 93.5q26 -32.5 72 -32.5t72 32.5t26 90.5l-1 332
q0 57 -25.5 89.5t-71.5 32.5t-71.5 -32.5t-25.5 -89.5l-1 -332q0 -58 26 -90.5zM136.5 857.5q11.5 11.5 25.5 27.5q16 18 25 30.5t20 30.5h47q11 -18 20 -30.5t25 -30.5q14 -16 25.5 -27.5t29.5 -27.5l-55 -46q-22 32 -46 62q-4 4 -23 30q-12 -18 -22 -30q-24 -30 -46 -62
l-55 46q18 16 29.5 27.5z" />
    <glyph glyph-name="Odieresis" unicode="&#xd6;" horiz-adv-x="462" 
d="M101.5 40.5q-41.5 54.5 -54.5 171.5q-7 60 -7 132q0 76 7 140q12 116 54.5 173.5t129.5 57.5t129.5 -57.5t54.5 -173.5q7 -64 7 -140q0 -72 -7 -132q-13 -117 -54.5 -171.5t-129.5 -54.5t-129.5 54.5zM159 93.5q26 -32.5 72 -32.5t72 32.5t26 90.5l-1 332
q0 57 -25.5 89.5t-71.5 32.5t-71.5 -32.5t-25.5 -89.5l-1 -332q0 -58 26 -90.5zM262.5 828q-14.5 15 -14.5 41q0 27 14.5 41t41.5 14q26 0 40.5 -14.5t14.5 -40.5q0 -27 -14.5 -41.5t-40.5 -14.5q-27 0 -41.5 15zM117.5 910q14.5 14 41.5 14q26 0 40.5 -14.5t14.5 -40.5
q0 -27 -14.5 -41.5t-40.5 -14.5q-27 0 -41.5 15t-14.5 41q0 27 14.5 41z" />
    <glyph glyph-name="Odieresis" unicode="&#xf6;" horiz-adv-x="462" 
d="M101.5 40.5q-41.5 54.5 -54.5 171.5q-7 60 -7 132q0 76 7 140q12 116 54.5 173.5t129.5 57.5t129.5 -57.5t54.5 -173.5q7 -64 7 -140q0 -72 -7 -132q-13 -117 -54.5 -171.5t-129.5 -54.5t-129.5 54.5zM159 93.5q26 -32.5 72 -32.5t72 32.5t26 90.5l-1 332
q0 57 -25.5 89.5t-71.5 32.5t-71.5 -32.5t-25.5 -89.5l-1 -332q0 -58 26 -90.5zM262.5 828q-14.5 15 -14.5 41q0 27 14.5 41t41.5 14q26 0 40.5 -14.5t14.5 -40.5q0 -27 -14.5 -41.5t-40.5 -14.5q-27 0 -41.5 15zM117.5 910q14.5 14 41.5 14q26 0 40.5 -14.5t14.5 -40.5
q0 -27 -14.5 -41.5t-40.5 -14.5q-27 0 -41.5 15t-14.5 41q0 27 14.5 41z" />
    <glyph glyph-name="Odieresis" unicode="&#xf6;" horiz-adv-x="462" 
d="M101.5 40.5q-41.5 54.5 -54.5 171.5q-7 60 -7 132q0 76 7 140q12 116 54.5 173.5t129.5 57.5t129.5 -57.5t54.5 -173.5q7 -64 7 -140q0 -72 -7 -132q-13 -117 -54.5 -171.5t-129.5 -54.5t-129.5 54.5zM159 93.5q26 -32.5 72 -32.5t72 32.5t26 90.5l-1 332
q0 57 -25.5 89.5t-71.5 32.5t-71.5 -32.5t-25.5 -89.5l-1 -332q0 -58 26 -90.5zM262.5 828q-14.5 15 -14.5 41q0 27 14.5 41t41.5 14q26 0 40.5 -14.5t14.5 -40.5q0 -27 -14.5 -41.5t-40.5 -14.5q-27 0 -41.5 15zM117.5 910q14.5 14 41.5 14q26 0 40.5 -14.5t14.5 -40.5
q0 -27 -14.5 -41.5t-40.5 -14.5q-27 0 -41.5 15t-14.5 41q0 27 14.5 41z" />
    <glyph glyph-name="Ograve" unicode="&#xd2;" horiz-adv-x="462" 
d="M101.5 40.5q-41.5 54.5 -54.5 171.5q-7 60 -7 132q0 76 7 140q12 116 54.5 173.5t129.5 57.5t129.5 -57.5t54.5 -173.5q7 -64 7 -140q0 -72 -7 -132q-13 -117 -54.5 -171.5t-129.5 -54.5t-129.5 54.5zM159 93.5q26 -32.5 72 -32.5t72 32.5t26 90.5l-1 332
q0 57 -25.5 89.5t-71.5 32.5t-71.5 -32.5t-25.5 -89.5l-1 -332q0 -58 26 -90.5zM200 838q-13 18 -24 30t-26 27l69 52q10 -18 19 -32t22 -32q12 -16 23 -29t28 -30l-69 -51q-23 37 -42 65z" />
    <glyph glyph-name="Ograve" unicode="&#xf2;" horiz-adv-x="462" 
d="M101.5 40.5q-41.5 54.5 -54.5 171.5q-7 60 -7 132q0 76 7 140q12 116 54.5 173.5t129.5 57.5t129.5 -57.5t54.5 -173.5q7 -64 7 -140q0 -72 -7 -132q-13 -117 -54.5 -171.5t-129.5 -54.5t-129.5 54.5zM159 93.5q26 -32.5 72 -32.5t72 32.5t26 90.5l-1 332
q0 57 -25.5 89.5t-71.5 32.5t-71.5 -32.5t-25.5 -89.5l-1 -332q0 -58 26 -90.5zM200 838q-13 18 -24 30t-26 27l69 52q10 -18 19 -32t22 -32q12 -16 23 -29t28 -30l-69 -51q-23 37 -42 65z" />
    <glyph glyph-name="Ograve" unicode="&#xf2;" horiz-adv-x="462" 
d="M101.5 40.5q-41.5 54.5 -54.5 171.5q-7 60 -7 132q0 76 7 140q12 116 54.5 173.5t129.5 57.5t129.5 -57.5t54.5 -173.5q7 -64 7 -140q0 -72 -7 -132q-13 -117 -54.5 -171.5t-129.5 -54.5t-129.5 54.5zM159 93.5q26 -32.5 72 -32.5t72 32.5t26 90.5l-1 332
q0 57 -25.5 89.5t-71.5 32.5t-71.5 -32.5t-25.5 -89.5l-1 -332q0 -58 26 -90.5zM200 838q-13 18 -24 30t-26 27l69 52q10 -18 19 -32t22 -32q12 -16 23 -29t28 -30l-69 -51q-23 37 -42 65z" />
    <glyph glyph-name="Ohungarumlaut" unicode="&#x150;" horiz-adv-x="462" 
d="M101.5 40.5q-41.5 54.5 -54.5 171.5q-7 60 -7 132q0 76 7 140q12 116 54.5 173.5t129.5 57.5t129.5 -57.5t54.5 -173.5q7 -64 7 -140q0 -72 -7 -132q-13 -117 -54.5 -171.5t-129.5 -54.5t-129.5 54.5zM159 93.5q26 -32.5 72 -32.5t72 32.5t26 90.5l-1 332
q0 57 -25.5 89.5t-71.5 32.5t-71.5 -32.5t-25.5 -89.5l-1 -332q0 -58 26 -90.5zM219 805l36 59q8 13 26 46l15 30q29 -30 63 -48l-22 -21q-20 -18 -40 -41l-42 -49zM138 868q8 13 26 46l15 30q29 -30 63 -48l-22 -21q-20 -18 -40 -41l-42 -49l-36 24z" />
    <glyph glyph-name="Ohungarumlaut" unicode="&#x151;" horiz-adv-x="462" 
d="M101.5 40.5q-41.5 54.5 -54.5 171.5q-7 60 -7 132q0 76 7 140q12 116 54.5 173.5t129.5 57.5t129.5 -57.5t54.5 -173.5q7 -64 7 -140q0 -72 -7 -132q-13 -117 -54.5 -171.5t-129.5 -54.5t-129.5 54.5zM159 93.5q26 -32.5 72 -32.5t72 32.5t26 90.5l-1 332
q0 57 -25.5 89.5t-71.5 32.5t-71.5 -32.5t-25.5 -89.5l-1 -332q0 -58 26 -90.5zM219 805l36 59q8 13 26 46l15 30q29 -30 63 -48l-22 -21q-20 -18 -40 -41l-42 -49zM138 868q8 13 26 46l15 30q29 -30 63 -48l-22 -21q-20 -18 -40 -41l-42 -49l-36 24z" />
    <glyph glyph-name="Ohungarumlaut" unicode="&#x151;" horiz-adv-x="462" 
d="M101.5 40.5q-41.5 54.5 -54.5 171.5q-7 60 -7 132q0 76 7 140q12 116 54.5 173.5t129.5 57.5t129.5 -57.5t54.5 -173.5q7 -64 7 -140q0 -72 -7 -132q-13 -117 -54.5 -171.5t-129.5 -54.5t-129.5 54.5zM159 93.5q26 -32.5 72 -32.5t72 32.5t26 90.5l-1 332
q0 57 -25.5 89.5t-71.5 32.5t-71.5 -32.5t-25.5 -89.5l-1 -332q0 -58 26 -90.5zM219 805l36 59q8 13 26 46l15 30q29 -30 63 -48l-22 -21q-20 -18 -40 -41l-42 -49zM138 868q8 13 26 46l15 30q29 -30 63 -48l-22 -21q-20 -18 -40 -41l-42 -49l-36 24z" />
    <glyph glyph-name="Omacron" unicode="&#x14c;" horiz-adv-x="462" 
d="M101.5 40.5q-41.5 54.5 -54.5 171.5q-7 60 -7 132q0 76 7 140q12 116 54.5 173.5t129.5 57.5t129.5 -57.5t54.5 -173.5q7 -64 7 -140q0 -72 -7 -132q-13 -117 -54.5 -171.5t-129.5 -54.5t-129.5 54.5zM159 93.5q26 -32.5 72 -32.5t72 32.5t26 90.5l-1 332
q0 57 -25.5 89.5t-71.5 32.5t-71.5 -32.5t-25.5 -89.5l-1 -332q0 -58 26 -90.5zM157.5 895q25.5 -2 71.5 -2q30 0 52.5 1t58.5 4v-81q-24 2 -30 2q-43 3 -81 3t-86 -3l-22 -2v81q11 -1 36.5 -3z" />
    <glyph glyph-name="Omacron" unicode="&#x14d;" horiz-adv-x="462" 
d="M101.5 40.5q-41.5 54.5 -54.5 171.5q-7 60 -7 132q0 76 7 140q12 116 54.5 173.5t129.5 57.5t129.5 -57.5t54.5 -173.5q7 -64 7 -140q0 -72 -7 -132q-13 -117 -54.5 -171.5t-129.5 -54.5t-129.5 54.5zM159 93.5q26 -32.5 72 -32.5t72 32.5t26 90.5l-1 332
q0 57 -25.5 89.5t-71.5 32.5t-71.5 -32.5t-25.5 -89.5l-1 -332q0 -58 26 -90.5zM157.5 895q25.5 -2 71.5 -2q30 0 52.5 1t58.5 4v-81q-24 2 -30 2q-43 3 -81 3t-86 -3l-22 -2v81q11 -1 36.5 -3z" />
    <glyph glyph-name="Omacron" unicode="&#x14d;" horiz-adv-x="462" 
d="M101.5 40.5q-41.5 54.5 -54.5 171.5q-7 60 -7 132q0 76 7 140q12 116 54.5 173.5t129.5 57.5t129.5 -57.5t54.5 -173.5q7 -64 7 -140q0 -72 -7 -132q-13 -117 -54.5 -171.5t-129.5 -54.5t-129.5 54.5zM159 93.5q26 -32.5 72 -32.5t72 32.5t26 90.5l-1 332
q0 57 -25.5 89.5t-71.5 32.5t-71.5 -32.5t-25.5 -89.5l-1 -332q0 -58 26 -90.5zM157.5 895q25.5 -2 71.5 -2q30 0 52.5 1t58.5 4v-81q-24 2 -30 2q-43 3 -81 3t-86 -3l-22 -2v81q11 -1 36.5 -3z" />
    <glyph glyph-name="Oslash" unicode="&#xd8;" horiz-adv-x="532" 
d="M0 94l62 83q-4 21 -5 35q-7 60 -7 132q0 76 7 140q12 116 54.5 173.5t129.5 57.5q56 0 93 -23.5t58 -70.5l42 56l48 -55l-64 -85q4 -20 7 -53q7 -64 7 -140q0 -72 -7 -132q-13 -117 -54.5 -171.5t-129.5 -54.5q-61 0 -99 26t-59 80l-40 -53zM171.5 90q25.5 -29 69.5 -29
q46 0 72 32.5t26 90.5l-1 247l-195 -259q3 -53 28.5 -82zM336 545q-6 44 -31 68.5t-64 24.5q-46 0 -71.5 -32.5t-25.5 -89.5l-1 -229z" />
    <glyph glyph-name="Oslash" unicode="&#xf8;" horiz-adv-x="532" 
d="M0 94l62 83q-4 21 -5 35q-7 60 -7 132q0 76 7 140q12 116 54.5 173.5t129.5 57.5q56 0 93 -23.5t58 -70.5l42 56l48 -55l-64 -85q4 -20 7 -53q7 -64 7 -140q0 -72 -7 -132q-13 -117 -54.5 -171.5t-129.5 -54.5q-61 0 -99 26t-59 80l-40 -53zM171.5 90q25.5 -29 69.5 -29
q46 0 72 32.5t26 90.5l-1 247l-195 -259q3 -53 28.5 -82zM336 545q-6 44 -31 68.5t-64 24.5q-46 0 -71.5 -32.5t-25.5 -89.5l-1 -229z" />
    <glyph glyph-name="Oslash" unicode="&#xf8;" horiz-adv-x="532" 
d="M0 94l62 83q-4 21 -5 35q-7 60 -7 132q0 76 7 140q12 116 54.5 173.5t129.5 57.5q56 0 93 -23.5t58 -70.5l42 56l48 -55l-64 -85q4 -20 7 -53q7 -64 7 -140q0 -72 -7 -132q-13 -117 -54.5 -171.5t-129.5 -54.5q-61 0 -99 26t-59 80l-40 -53zM171.5 90q25.5 -29 69.5 -29
q46 0 72 32.5t26 90.5l-1 247l-195 -259q3 -53 28.5 -82zM336 545q-6 44 -31 68.5t-64 24.5q-46 0 -71.5 -32.5t-25.5 -89.5l-1 -229z" />
    <glyph glyph-name="Otilde" unicode="&#xd5;" horiz-adv-x="462" 
d="M101.5 40.5q-41.5 54.5 -54.5 171.5q-7 60 -7 132q0 76 7 140q12 116 54.5 173.5t129.5 57.5t129.5 -57.5t54.5 -173.5q7 -64 7 -140q0 -72 -7 -132q-13 -117 -54.5 -171.5t-129.5 -54.5t-129.5 54.5zM159 93.5q26 -32.5 72 -32.5t72 32.5t26 90.5l-1 332
q0 57 -25.5 89.5t-71.5 32.5t-71.5 -32.5t-25.5 -89.5l-1 -332q0 -58 26 -90.5zM244.5 780q-16.5 13 -32.5 35q-14 17 -21 23.5t-18 6.5q-19 0 -26 -13.5t-7 -43.5v-14h-44v39q0 32 16.5 60t52.5 28q29 0 45 -12.5t32 -35.5q11 -15 19 -22.5t20 -7.5q25 0 33 14.5t8 42.5v15
h44v-40q0 -31 -20 -59.5t-60 -28.5q-25 0 -41.5 13z" />
    <glyph glyph-name="Otilde" unicode="&#xf5;" horiz-adv-x="462" 
d="M101.5 40.5q-41.5 54.5 -54.5 171.5q-7 60 -7 132q0 76 7 140q12 116 54.5 173.5t129.5 57.5t129.5 -57.5t54.5 -173.5q7 -64 7 -140q0 -72 -7 -132q-13 -117 -54.5 -171.5t-129.5 -54.5t-129.5 54.5zM159 93.5q26 -32.5 72 -32.5t72 32.5t26 90.5l-1 332
q0 57 -25.5 89.5t-71.5 32.5t-71.5 -32.5t-25.5 -89.5l-1 -332q0 -58 26 -90.5zM244.5 780q-16.5 13 -32.5 35q-14 17 -21 23.5t-18 6.5q-19 0 -26 -13.5t-7 -43.5v-14h-44v39q0 32 16.5 60t52.5 28q29 0 45 -12.5t32 -35.5q11 -15 19 -22.5t20 -7.5q25 0 33 14.5t8 42.5v15
h44v-40q0 -31 -20 -59.5t-60 -28.5q-25 0 -41.5 13z" />
    <glyph glyph-name="Otilde" unicode="&#xf5;" horiz-adv-x="462" 
d="M101.5 40.5q-41.5 54.5 -54.5 171.5q-7 60 -7 132q0 76 7 140q12 116 54.5 173.5t129.5 57.5t129.5 -57.5t54.5 -173.5q7 -64 7 -140q0 -72 -7 -132q-13 -117 -54.5 -171.5t-129.5 -54.5t-129.5 54.5zM159 93.5q26 -32.5 72 -32.5t72 32.5t26 90.5l-1 332
q0 57 -25.5 89.5t-71.5 32.5t-71.5 -32.5t-25.5 -89.5l-1 -332q0 -58 26 -90.5zM244.5 780q-16.5 13 -32.5 35q-14 17 -21 23.5t-18 6.5q-19 0 -26 -13.5t-7 -43.5v-14h-44v39q0 32 16.5 60t52.5 28q29 0 45 -12.5t32 -35.5q11 -15 19 -22.5t20 -7.5q25 0 33 14.5t8 42.5v15
h44v-40q0 -31 -20 -59.5t-60 -28.5q-25 0 -41.5 13z" />
    <glyph glyph-name="OE" unicode="&#x152;" horiz-adv-x="739" 
d="M408 164q-16 -91 -57.5 -134.5t-119.5 -43.5q-88 0 -129.5 54.5t-54.5 171.5q-7 60 -7 132q0 76 7 140q12 116 54.5 173.5t129.5 57.5q77 0 119 -45t58 -135v165h262l-20 -86q-22 3 -39 4t-39 1q-27 0 -46.5 -2t-26.5 -3v-179q33 -3 62 -3q20 0 36.5 1t40.5 4v-86
q-22 3 -38.5 4t-38.5 1q-27 0 -62 -3v-268q39 -4 82 -4q54 0 108 6l-20 -87h-261v164zM159 93.5q26 -32.5 72 -32.5t72 32.5t26 90.5l-1 332q0 57 -25.5 89.5t-71.5 32.5t-71.5 -32.5t-25.5 -89.5l-1 -332q0 -58 26 -90.5z" />
    <glyph glyph-name="OE" unicode="&#x153;" horiz-adv-x="739" 
d="M408 164q-16 -91 -57.5 -134.5t-119.5 -43.5q-88 0 -129.5 54.5t-54.5 171.5q-7 60 -7 132q0 76 7 140q12 116 54.5 173.5t129.5 57.5q77 0 119 -45t58 -135v165h262l-20 -86q-22 3 -39 4t-39 1q-27 0 -46.5 -2t-26.5 -3v-179q33 -3 62 -3q20 0 36.5 1t40.5 4v-86
q-22 3 -38.5 4t-38.5 1q-27 0 -62 -3v-268q39 -4 82 -4q54 0 108 6l-20 -87h-261v164zM159 93.5q26 -32.5 72 -32.5t72 32.5t26 90.5l-1 332q0 57 -25.5 89.5t-71.5 32.5t-71.5 -32.5t-25.5 -89.5l-1 -332q0 -58 26 -90.5z" />
    <glyph glyph-name="OE" unicode="&#x153;" horiz-adv-x="739" 
d="M408 164q-16 -91 -57.5 -134.5t-119.5 -43.5q-88 0 -129.5 54.5t-54.5 171.5q-7 60 -7 132q0 76 7 140q12 116 54.5 173.5t129.5 57.5q77 0 119 -45t58 -135v165h262l-20 -86q-22 3 -39 4t-39 1q-27 0 -46.5 -2t-26.5 -3v-179q33 -3 62 -3q20 0 36.5 1t40.5 4v-86
q-22 3 -38.5 4t-38.5 1q-27 0 -62 -3v-268q39 -4 82 -4q54 0 108 6l-20 -87h-261v164zM159 93.5q26 -32.5 72 -32.5t72 32.5t26 90.5l-1 332q0 57 -25.5 89.5t-71.5 32.5t-71.5 -32.5t-25.5 -89.5l-1 -332q0 -58 26 -90.5z" />
    <glyph glyph-name="P" unicode="P" horiz-adv-x="395" 
d="M65 183v333q0 55 -21 184h113q56 0 99.5 -8.5t78 -45t34.5 -111.5v-114q0 -75 -33.5 -111.5t-77 -45.5t-102.5 -9v-72q0 -40 21 -183h-133q21 143 21 183zM157 330q49 0 75 9.5t36 28.5t10 53v114q0 34 -10 53.5t-36 28.5t-75 9h-1v-296h1z" />
    <glyph glyph-name="P" unicode="p" horiz-adv-x="395" 
d="M65 183v333q0 55 -21 184h113q56 0 99.5 -8.5t78 -45t34.5 -111.5v-114q0 -75 -33.5 -111.5t-77 -45.5t-102.5 -9v-72q0 -40 21 -183h-133q21 143 21 183zM157 330q49 0 75 9.5t36 28.5t10 53v114q0 34 -10 53.5t-36 28.5t-75 9h-1v-296h1z" />
    <glyph glyph-name="P" unicode="p" horiz-adv-x="395" 
d="M65 183v333q0 55 -21 184h113q56 0 99.5 -8.5t78 -45t34.5 -111.5v-114q0 -75 -33.5 -111.5t-77 -45.5t-102.5 -9v-72q0 -40 21 -183h-133q21 143 21 183zM157 330q49 0 75 9.5t36 28.5t10 53v114q0 34 -10 53.5t-36 28.5t-75 9h-1v-296h1z" />
    <glyph glyph-name="Thorn" unicode="&#xde;" horiz-adv-x="473" 
d="M159 142q5 -55 18 -142h-133q21 143 21 183v333q0 55 -21 184h133q-10 -62 -16 -114h79q54 0 97 -9t76.5 -45.5t33.5 -110.5v-114q0 -74 -32.5 -110.5t-76 -45.5t-100.5 -9h-79zM238 216q48 0 73 9.5t35 29t10 52.5v114q0 34 -10 53t-35 28.5t-73 9.5h-82v-296h82z" />
    <glyph glyph-name="Thorn" unicode="&#xfe;" horiz-adv-x="473" 
d="M159 142q5 -55 18 -142h-133q21 143 21 183v333q0 55 -21 184h133q-10 -62 -16 -114h79q54 0 97 -9t76.5 -45.5t33.5 -110.5v-114q0 -74 -32.5 -110.5t-76 -45.5t-100.5 -9h-79zM238 216q48 0 73 9.5t35 29t10 52.5v114q0 34 -10 53t-35 28.5t-73 9.5h-82v-296h82z" />
    <glyph glyph-name="Thorn" unicode="&#xfe;" horiz-adv-x="473" 
d="M159 142q5 -55 18 -142h-133q21 143 21 183v333q0 55 -21 184h133q-10 -62 -16 -114h79q54 0 97 -9t76.5 -45.5t33.5 -110.5v-114q0 -74 -32.5 -110.5t-76 -45.5t-100.5 -9h-79zM238 216q48 0 73 9.5t35 29t10 52.5v114q0 34 -10 53t-35 28.5t-73 9.5h-82v-296h82z" />
    <glyph glyph-name="Q" unicode="Q" horiz-adv-x="462" 
d="M288 -30l-15 20q-17 -4 -42 -4q-88 0 -129.5 54.5t-54.5 171.5q-7 60 -7 132q0 76 7 140q12 116 54.5 173.5t129.5 57.5t129.5 -57.5t54.5 -173.5q7 -64 7 -140q0 -72 -7 -132q-8 -70 -25 -116.5t-47 -73.5l5 -7q12 -16 23 -29t28 -30l-69 -51q-23 37 -42 65zM159 93.5
q26 -32.5 72 -32.5t72 32.5t26 90.5l-1 332q0 57 -25.5 89.5t-71.5 32.5t-71.5 -32.5t-25.5 -89.5l-1 -332q0 -58 26 -90.5z" />
    <glyph glyph-name="Q" unicode="q" horiz-adv-x="462" 
d="M288 -30l-15 20q-17 -4 -42 -4q-88 0 -129.5 54.5t-54.5 171.5q-7 60 -7 132q0 76 7 140q12 116 54.5 173.5t129.5 57.5t129.5 -57.5t54.5 -173.5q7 -64 7 -140q0 -72 -7 -132q-8 -70 -25 -116.5t-47 -73.5l5 -7q12 -16 23 -29t28 -30l-69 -51q-23 37 -42 65zM159 93.5
q26 -32.5 72 -32.5t72 32.5t26 90.5l-1 332q0 57 -25.5 89.5t-71.5 32.5t-71.5 -32.5t-25.5 -89.5l-1 -332q0 -58 26 -90.5z" />
    <glyph glyph-name="Q" unicode="q" horiz-adv-x="462" 
d="M288 -30l-15 20q-17 -4 -42 -4q-88 0 -129.5 54.5t-54.5 171.5q-7 60 -7 132q0 76 7 140q12 116 54.5 173.5t129.5 57.5t129.5 -57.5t54.5 -173.5q7 -64 7 -140q0 -72 -7 -132q-8 -70 -25 -116.5t-47 -73.5l5 -7q12 -16 23 -29t28 -30l-69 -51q-23 37 -42 65zM159 93.5
q26 -32.5 72 -32.5t72 32.5t26 90.5l-1 332q0 57 -25.5 89.5t-71.5 32.5t-71.5 -32.5t-25.5 -89.5l-1 -332q0 -58 26 -90.5z" />
    <glyph glyph-name="R" unicode="R" horiz-adv-x="426" 
d="M242.5 218q-20.5 37 -61.5 37h-25v-72q0 -40 21 -183h-133q21 143 21 183v333q0 55 -21 184h112q63 0 109.5 -8.5t82 -45t35.5 -111.5v-114q0 -114 -88 -149q29 -33 42 -59.5t26 -75.5q14 -53 27 -137h-117l-10 137q0 44 -20.5 81zM240 339q29 9 39.5 28.5t10.5 53.5v114
q0 34 -10.5 53.5t-39.5 28t-84 8.5v-295q55 0 84 9z" />
    <glyph glyph-name="R" unicode="r" horiz-adv-x="426" 
d="M242.5 218q-20.5 37 -61.5 37h-25v-72q0 -40 21 -183h-133q21 143 21 183v333q0 55 -21 184h112q63 0 109.5 -8.5t82 -45t35.5 -111.5v-114q0 -114 -88 -149q29 -33 42 -59.5t26 -75.5q14 -53 27 -137h-117l-10 137q0 44 -20.5 81zM240 339q29 9 39.5 28.5t10.5 53.5v114
q0 34 -10.5 53.5t-39.5 28t-84 8.5v-295q55 0 84 9z" />
    <glyph glyph-name="R" unicode="r" horiz-adv-x="426" 
d="M242.5 218q-20.5 37 -61.5 37h-25v-72q0 -40 21 -183h-133q21 143 21 183v333q0 55 -21 184h112q63 0 109.5 -8.5t82 -45t35.5 -111.5v-114q0 -114 -88 -149q29 -33 42 -59.5t26 -75.5q14 -53 27 -137h-117l-10 137q0 44 -20.5 81zM240 339q29 9 39.5 28.5t10.5 53.5v114
q0 34 -10.5 53.5t-39.5 28t-84 8.5v-295q55 0 84 9z" />
    <glyph glyph-name="Racute" unicode="&#x154;" horiz-adv-x="426" 
d="M242.5 218q-20.5 37 -61.5 37h-25v-72q0 -40 21 -183h-133q21 143 21 183v333q0 55 -21 184h112q63 0 109.5 -8.5t82 -45t35.5 -111.5v-114q0 -114 -88 -149q29 -33 42 -59.5t26 -75.5q14 -53 27 -137h-117l-10 137q0 44 -20.5 81zM240 339q29 9 39.5 28.5t10.5 53.5v114
q0 34 -10.5 53.5t-39.5 28t-84 8.5v-295q55 0 84 9zM139 809l36 59q8 13 26 46l15 30q30 -32 69 -52l-22 -21q-20 -18 -40 -41l-42 -49z" />
    <glyph glyph-name="Racute" unicode="&#x155;" horiz-adv-x="426" 
d="M242.5 218q-20.5 37 -61.5 37h-25v-72q0 -40 21 -183h-133q21 143 21 183v333q0 55 -21 184h112q63 0 109.5 -8.5t82 -45t35.5 -111.5v-114q0 -114 -88 -149q29 -33 42 -59.5t26 -75.5q14 -53 27 -137h-117l-10 137q0 44 -20.5 81zM240 339q29 9 39.5 28.5t10.5 53.5v114
q0 34 -10.5 53.5t-39.5 28t-84 8.5v-295q55 0 84 9zM139 809l36 59q8 13 26 46l15 30q30 -32 69 -52l-22 -21q-20 -18 -40 -41l-42 -49z" />
    <glyph glyph-name="Racute" unicode="&#x155;" horiz-adv-x="426" 
d="M242.5 218q-20.5 37 -61.5 37h-25v-72q0 -40 21 -183h-133q21 143 21 183v333q0 55 -21 184h112q63 0 109.5 -8.5t82 -45t35.5 -111.5v-114q0 -114 -88 -149q29 -33 42 -59.5t26 -75.5q14 -53 27 -137h-117l-10 137q0 44 -20.5 81zM240 339q29 9 39.5 28.5t10.5 53.5v114
q0 34 -10.5 53.5t-39.5 28t-84 8.5v-295q55 0 84 9zM139 809l36 59q8 13 26 46l15 30q30 -32 69 -52l-22 -21q-20 -18 -40 -41l-42 -49z" />
    <glyph glyph-name="Rcaron" unicode="&#x158;" horiz-adv-x="426" 
d="M242.5 218q-20.5 37 -61.5 37h-25v-72q0 -40 21 -183h-133q21 143 21 183v333q0 55 -21 184h112q63 0 109.5 -8.5t82 -45t35.5 -111.5v-114q0 -114 -88 -149q29 -33 42 -59.5t26 -75.5q14 -53 27 -137h-117l-10 137q0 44 -20.5 81zM240 339q29 9 39.5 28.5t10.5 53.5v114
q0 34 -10.5 53.5t-39.5 28t-84 8.5v-295q55 0 84 9zM165 806.5q-10 12.5 -25 30.5q-16 18 -28 29.5t-32 27.5l56 33q24 -34 49 -64l27 -28l27 28q25 31 48 64l56 -33q-20 -16 -32 -27.5t-28 -29.5q-15 -18 -25 -30.5t-22 -33.5q-13 3 -26 3q-11 0 -23 -3q-12 21 -22 33.5z
" />
    <glyph glyph-name="Rcaron" unicode="&#x159;" horiz-adv-x="426" 
d="M242.5 218q-20.5 37 -61.5 37h-25v-72q0 -40 21 -183h-133q21 143 21 183v333q0 55 -21 184h112q63 0 109.5 -8.5t82 -45t35.5 -111.5v-114q0 -114 -88 -149q29 -33 42 -59.5t26 -75.5q14 -53 27 -137h-117l-10 137q0 44 -20.5 81zM240 339q29 9 39.5 28.5t10.5 53.5v114
q0 34 -10.5 53.5t-39.5 28t-84 8.5v-295q55 0 84 9zM165 806.5q-10 12.5 -25 30.5q-16 18 -28 29.5t-32 27.5l56 33q24 -34 49 -64l27 -28l27 28q25 31 48 64l56 -33q-20 -16 -32 -27.5t-28 -29.5q-15 -18 -25 -30.5t-22 -33.5q-13 3 -26 3q-11 0 -23 -3q-12 21 -22 33.5z
" />
    <glyph glyph-name="Rcaron" unicode="&#x159;" horiz-adv-x="426" 
d="M242.5 218q-20.5 37 -61.5 37h-25v-72q0 -40 21 -183h-133q21 143 21 183v333q0 55 -21 184h112q63 0 109.5 -8.5t82 -45t35.5 -111.5v-114q0 -114 -88 -149q29 -33 42 -59.5t26 -75.5q14 -53 27 -137h-117l-10 137q0 44 -20.5 81zM240 339q29 9 39.5 28.5t10.5 53.5v114
q0 34 -10.5 53.5t-39.5 28t-84 8.5v-295q55 0 84 9zM165 806.5q-10 12.5 -25 30.5q-16 18 -28 29.5t-32 27.5l56 33q24 -34 49 -64l27 -28l27 28q25 31 48 64l56 -33q-20 -16 -32 -27.5t-28 -29.5q-15 -18 -25 -30.5t-22 -33.5q-13 3 -26 3q-11 0 -23 -3q-12 21 -22 33.5z
" />
    <glyph glyph-name="uni0156" unicode="&#x156;" horiz-adv-x="426" 
d="M242.5 218q-20.5 37 -61.5 37h-25v-72q0 -40 21 -183h-133q21 143 21 183v333q0 55 -21 184h112q63 0 109.5 -8.5t82 -45t35.5 -111.5v-114q0 -114 -88 -149q29 -33 42 -59.5t26 -75.5q14 -53 27 -137h-117l-10 137q0 44 -20.5 81zM240 339q29 9 39.5 28.5t10.5 53.5v114
q0 34 -10.5 53.5t-39.5 28t-84 8.5v-295q55 0 84 9zM157 -196l9 21q17 34 30 69l22 61l49 -11l-12 -68q-8 -37 -15 -96q-37 18 -83 24z" />
    <glyph glyph-name="uni0156" unicode="&#x157;" horiz-adv-x="426" 
d="M242.5 218q-20.5 37 -61.5 37h-25v-72q0 -40 21 -183h-133q21 143 21 183v333q0 55 -21 184h112q63 0 109.5 -8.5t82 -45t35.5 -111.5v-114q0 -114 -88 -149q29 -33 42 -59.5t26 -75.5q14 -53 27 -137h-117l-10 137q0 44 -20.5 81zM240 339q29 9 39.5 28.5t10.5 53.5v114
q0 34 -10.5 53.5t-39.5 28t-84 8.5v-295q55 0 84 9zM157 -196l9 21q17 34 30 69l22 61l49 -11l-12 -68q-8 -37 -15 -96q-37 18 -83 24z" />
    <glyph glyph-name="uni0156" unicode="&#x157;" horiz-adv-x="426" 
d="M242.5 218q-20.5 37 -61.5 37h-25v-72q0 -40 21 -183h-133q21 143 21 183v333q0 55 -21 184h112q63 0 109.5 -8.5t82 -45t35.5 -111.5v-114q0 -114 -88 -149q29 -33 42 -59.5t26 -75.5q14 -53 27 -137h-117l-10 137q0 44 -20.5 81zM240 339q29 9 39.5 28.5t10.5 53.5v114
q0 34 -10.5 53.5t-39.5 28t-84 8.5v-295q55 0 84 9zM157 -196l9 21q17 34 30 69l22 61l49 -11l-12 -68q-8 -37 -15 -96q-37 18 -83 24z" />
    <glyph glyph-name="S" unicode="S" horiz-adv-x="385" 
d="M83.5 20.5q-34.5 35.5 -42.5 79.5t-8 100q18 -3 49 -3q30 0 50 3q-1 -9 -1 -25q0 -48 16 -77.5t46 -29.5q33 0 51 29.5t18 78.5q0 47 -18 84t-50 60q-66 52 -114 107.5t-48 120.5q0 77 40 122t110 45q51 0 87 -25.5t53.5 -65t17.5 -80.5q-29 3 -52 3q-25 0 -47 -4
q2 17 -4 39t-19.5 38t-33.5 16q-28 0 -45.5 -17t-17.5 -53q0 -6 2 -22q5 -34 30 -63.5t72 -69.5q7 -7 16.5 -14.5t19.5 -17.5q57 -55 75.5 -97t18.5 -106q0 -68 -32 -129.5t-133 -61.5q-72 0 -106.5 35.5z" />
    <glyph glyph-name="S" unicode="s" horiz-adv-x="385" 
d="M83.5 20.5q-34.5 35.5 -42.5 79.5t-8 100q18 -3 49 -3q30 0 50 3q-1 -9 -1 -25q0 -48 16 -77.5t46 -29.5q33 0 51 29.5t18 78.5q0 47 -18 84t-50 60q-66 52 -114 107.5t-48 120.5q0 77 40 122t110 45q51 0 87 -25.5t53.5 -65t17.5 -80.5q-29 3 -52 3q-25 0 -47 -4
q2 17 -4 39t-19.5 38t-33.5 16q-28 0 -45.5 -17t-17.5 -53q0 -6 2 -22q5 -34 30 -63.5t72 -69.5q7 -7 16.5 -14.5t19.5 -17.5q57 -55 75.5 -97t18.5 -106q0 -68 -32 -129.5t-133 -61.5q-72 0 -106.5 35.5z" />
    <glyph glyph-name="S" unicode="s" horiz-adv-x="385" 
d="M83.5 20.5q-34.5 35.5 -42.5 79.5t-8 100q18 -3 49 -3q30 0 50 3q-1 -9 -1 -25q0 -48 16 -77.5t46 -29.5q33 0 51 29.5t18 78.5q0 47 -18 84t-50 60q-66 52 -114 107.5t-48 120.5q0 77 40 122t110 45q51 0 87 -25.5t53.5 -65t17.5 -80.5q-29 3 -52 3q-25 0 -47 -4
q2 17 -4 39t-19.5 38t-33.5 16q-28 0 -45.5 -17t-17.5 -53q0 -6 2 -22q5 -34 30 -63.5t72 -69.5q7 -7 16.5 -14.5t19.5 -17.5q57 -55 75.5 -97t18.5 -106q0 -68 -32 -129.5t-133 -61.5q-72 0 -106.5 35.5z" />
    <glyph glyph-name="Sacute" unicode="&#x15a;" horiz-adv-x="385" 
d="M83.5 20.5q-34.5 35.5 -42.5 79.5t-8 100q18 -3 49 -3q30 0 50 3q-1 -9 -1 -25q0 -48 16 -77.5t46 -29.5q33 0 51 29.5t18 78.5q0 47 -18 84t-50 60q-66 52 -114 107.5t-48 120.5q0 77 40 122t110 45q51 0 87 -25.5t53.5 -65t17.5 -80.5q-29 3 -52 3q-25 0 -47 -4
q2 17 -4 39t-19.5 38t-33.5 16q-28 0 -45.5 -17t-17.5 -53q0 -6 2 -22q5 -34 30 -63.5t72 -69.5q7 -7 16.5 -14.5t19.5 -17.5q57 -55 75.5 -97t18.5 -106q0 -68 -32 -129.5t-133 -61.5q-72 0 -106.5 35.5zM121 809l36 59q8 13 26 46l15 30q30 -32 69 -52l-22 -21
q-20 -18 -40 -41l-42 -49z" />
    <glyph glyph-name="Sacute" unicode="&#x15b;" horiz-adv-x="385" 
d="M83.5 20.5q-34.5 35.5 -42.5 79.5t-8 100q18 -3 49 -3q30 0 50 3q-1 -9 -1 -25q0 -48 16 -77.5t46 -29.5q33 0 51 29.5t18 78.5q0 47 -18 84t-50 60q-66 52 -114 107.5t-48 120.5q0 77 40 122t110 45q51 0 87 -25.5t53.5 -65t17.5 -80.5q-29 3 -52 3q-25 0 -47 -4
q2 17 -4 39t-19.5 38t-33.5 16q-28 0 -45.5 -17t-17.5 -53q0 -6 2 -22q5 -34 30 -63.5t72 -69.5q7 -7 16.5 -14.5t19.5 -17.5q57 -55 75.5 -97t18.5 -106q0 -68 -32 -129.5t-133 -61.5q-72 0 -106.5 35.5zM121 809l36 59q8 13 26 46l15 30q30 -32 69 -52l-22 -21
q-20 -18 -40 -41l-42 -49z" />
    <glyph glyph-name="Sacute" unicode="&#x15b;" horiz-adv-x="385" 
d="M83.5 20.5q-34.5 35.5 -42.5 79.5t-8 100q18 -3 49 -3q30 0 50 3q-1 -9 -1 -25q0 -48 16 -77.5t46 -29.5q33 0 51 29.5t18 78.5q0 47 -18 84t-50 60q-66 52 -114 107.5t-48 120.5q0 77 40 122t110 45q51 0 87 -25.5t53.5 -65t17.5 -80.5q-29 3 -52 3q-25 0 -47 -4
q2 17 -4 39t-19.5 38t-33.5 16q-28 0 -45.5 -17t-17.5 -53q0 -6 2 -22q5 -34 30 -63.5t72 -69.5q7 -7 16.5 -14.5t19.5 -17.5q57 -55 75.5 -97t18.5 -106q0 -68 -32 -129.5t-133 -61.5q-72 0 -106.5 35.5zM121 809l36 59q8 13 26 46l15 30q30 -32 69 -52l-22 -21
q-20 -18 -40 -41l-42 -49z" />
    <glyph glyph-name="Scaron" unicode="&#x160;" horiz-adv-x="385" 
d="M83.5 20.5q-34.5 35.5 -42.5 79.5t-8 100q18 -3 49 -3q30 0 50 3q-1 -9 -1 -25q0 -48 16 -77.5t46 -29.5q33 0 51 29.5t18 78.5q0 47 -18 84t-50 60q-66 52 -114 107.5t-48 120.5q0 77 40 122t110 45q51 0 87 -25.5t53.5 -65t17.5 -80.5q-29 3 -52 3q-25 0 -47 -4
q2 17 -4 39t-19.5 38t-33.5 16q-28 0 -45.5 -17t-17.5 -53q0 -6 2 -22q5 -34 30 -63.5t72 -69.5q7 -7 16.5 -14.5t19.5 -17.5q57 -55 75.5 -97t18.5 -106q0 -68 -32 -129.5t-133 -61.5q-72 0 -106.5 35.5zM147 806.5q-10 12.5 -25 30.5q-16 18 -28 29.5t-32 27.5l56 33
q24 -34 49 -64l27 -28l27 28q25 31 48 64l56 -33q-20 -16 -32 -27.5t-28 -29.5q-15 -18 -25 -30.5t-22 -33.5q-13 3 -26 3q-11 0 -23 -3q-12 21 -22 33.5z" />
    <glyph glyph-name="Scaron" unicode="&#x161;" horiz-adv-x="385" 
d="M83.5 20.5q-34.5 35.5 -42.5 79.5t-8 100q18 -3 49 -3q30 0 50 3q-1 -9 -1 -25q0 -48 16 -77.5t46 -29.5q33 0 51 29.5t18 78.5q0 47 -18 84t-50 60q-66 52 -114 107.5t-48 120.5q0 77 40 122t110 45q51 0 87 -25.5t53.5 -65t17.5 -80.5q-29 3 -52 3q-25 0 -47 -4
q2 17 -4 39t-19.5 38t-33.5 16q-28 0 -45.5 -17t-17.5 -53q0 -6 2 -22q5 -34 30 -63.5t72 -69.5q7 -7 16.5 -14.5t19.5 -17.5q57 -55 75.5 -97t18.5 -106q0 -68 -32 -129.5t-133 -61.5q-72 0 -106.5 35.5zM147 806.5q-10 12.5 -25 30.5q-16 18 -28 29.5t-32 27.5l56 33
q24 -34 49 -64l27 -28l27 28q25 31 48 64l56 -33q-20 -16 -32 -27.5t-28 -29.5q-15 -18 -25 -30.5t-22 -33.5q-13 3 -26 3q-11 0 -23 -3q-12 21 -22 33.5z" />
    <glyph glyph-name="Scaron" unicode="&#x161;" horiz-adv-x="385" 
d="M83.5 20.5q-34.5 35.5 -42.5 79.5t-8 100q18 -3 49 -3q30 0 50 3q-1 -9 -1 -25q0 -48 16 -77.5t46 -29.5q33 0 51 29.5t18 78.5q0 47 -18 84t-50 60q-66 52 -114 107.5t-48 120.5q0 77 40 122t110 45q51 0 87 -25.5t53.5 -65t17.5 -80.5q-29 3 -52 3q-25 0 -47 -4
q2 17 -4 39t-19.5 38t-33.5 16q-28 0 -45.5 -17t-17.5 -53q0 -6 2 -22q5 -34 30 -63.5t72 -69.5q7 -7 16.5 -14.5t19.5 -17.5q57 -55 75.5 -97t18.5 -106q0 -68 -32 -129.5t-133 -61.5q-72 0 -106.5 35.5zM147 806.5q-10 12.5 -25 30.5q-16 18 -28 29.5t-32 27.5l56 33
q24 -34 49 -64l27 -28l27 28q25 31 48 64l56 -33q-20 -16 -32 -27.5t-28 -29.5q-15 -18 -25 -30.5t-22 -33.5q-13 3 -26 3q-11 0 -23 -3q-12 21 -22 33.5z" />
    <glyph glyph-name="Scedilla" unicode="&#x15e;" horiz-adv-x="385" 
d="M83.5 20.5q-34.5 35.5 -42.5 79.5t-8 100q18 -3 49 -3q30 0 50 3q-1 -9 -1 -25q0 -48 16 -77.5t46 -29.5q33 0 51 29.5t18 78.5q0 47 -18 84t-50 60q-66 52 -114 107.5t-48 120.5q0 77 40 122t110 45q51 0 87 -25.5t53.5 -65t17.5 -80.5q-29 3 -52 3q-25 0 -47 -4
q2 17 -4 39t-19.5 38t-33.5 16q-28 0 -45.5 -17t-17.5 -53q0 -6 2 -22q5 -34 30 -63.5t72 -69.5q7 -7 16.5 -14.5t19.5 -17.5q57 -55 75.5 -97t18.5 -106q0 -56 -21.5 -110.5t-88.5 -73.5l22 -15l-36 -59q-8 -13 -26 -46l-15 -30q-30 32 -69 52l22 21q20 18 40 41l25 30
q-5 -1 -18 -1q-72 0 -106.5 35.5z" />
    <glyph glyph-name="Scedilla" unicode="&#x15f;" horiz-adv-x="385" 
d="M83.5 20.5q-34.5 35.5 -42.5 79.5t-8 100q18 -3 49 -3q30 0 50 3q-1 -9 -1 -25q0 -48 16 -77.5t46 -29.5q33 0 51 29.5t18 78.5q0 47 -18 84t-50 60q-66 52 -114 107.5t-48 120.5q0 77 40 122t110 45q51 0 87 -25.5t53.5 -65t17.5 -80.5q-29 3 -52 3q-25 0 -47 -4
q2 17 -4 39t-19.5 38t-33.5 16q-28 0 -45.5 -17t-17.5 -53q0 -6 2 -22q5 -34 30 -63.5t72 -69.5q7 -7 16.5 -14.5t19.5 -17.5q57 -55 75.5 -97t18.5 -106q0 -56 -21.5 -110.5t-88.5 -73.5l22 -15l-36 -59q-8 -13 -26 -46l-15 -30q-30 32 -69 52l22 21q20 18 40 41l25 30
q-5 -1 -18 -1q-72 0 -106.5 35.5z" />
    <glyph glyph-name="Scedilla" unicode="&#x15f;" horiz-adv-x="385" 
d="M83.5 20.5q-34.5 35.5 -42.5 79.5t-8 100q18 -3 49 -3q30 0 50 3q-1 -9 -1 -25q0 -48 16 -77.5t46 -29.5q33 0 51 29.5t18 78.5q0 47 -18 84t-50 60q-66 52 -114 107.5t-48 120.5q0 77 40 122t110 45q51 0 87 -25.5t53.5 -65t17.5 -80.5q-29 3 -52 3q-25 0 -47 -4
q2 17 -4 39t-19.5 38t-33.5 16q-28 0 -45.5 -17t-17.5 -53q0 -6 2 -22q5 -34 30 -63.5t72 -69.5q7 -7 16.5 -14.5t19.5 -17.5q57 -55 75.5 -97t18.5 -106q0 -56 -21.5 -110.5t-88.5 -73.5l22 -15l-36 -59q-8 -13 -26 -46l-15 -30q-30 32 -69 52l22 21q20 18 40 41l25 30
q-5 -1 -18 -1q-72 0 -106.5 35.5z" />
    <glyph glyph-name="Scircumflex" unicode="&#x15c;" horiz-adv-x="385" 
d="M83.5 20.5q-34.5 35.5 -42.5 79.5t-8 100q18 -3 49 -3q30 0 50 3q-1 -9 -1 -25q0 -48 16 -77.5t46 -29.5q33 0 51 29.5t18 78.5q0 47 -18 84t-50 60q-66 52 -114 107.5t-48 120.5q0 77 40 122t110 45q51 0 87 -25.5t53.5 -65t17.5 -80.5q-29 3 -52 3q-25 0 -47 -4
q2 17 -4 39t-19.5 38t-33.5 16q-28 0 -45.5 -17t-17.5 -53q0 -6 2 -22q5 -34 30 -63.5t72 -69.5q7 -7 16.5 -14.5t19.5 -17.5q57 -55 75.5 -97t18.5 -106q0 -68 -32 -129.5t-133 -61.5q-72 0 -106.5 35.5zM99.5 857.5q11.5 11.5 25.5 27.5q16 18 25 30.5t20 30.5h47
q11 -18 20 -30.5t25 -30.5q14 -16 25.5 -27.5t29.5 -27.5l-55 -46q-22 32 -46 62q-4 4 -23 30q-12 -18 -22 -30q-24 -30 -46 -62l-55 46q18 16 29.5 27.5z" />
    <glyph glyph-name="Scircumflex" unicode="&#x15d;" horiz-adv-x="385" 
d="M83.5 20.5q-34.5 35.5 -42.5 79.5t-8 100q18 -3 49 -3q30 0 50 3q-1 -9 -1 -25q0 -48 16 -77.5t46 -29.5q33 0 51 29.5t18 78.5q0 47 -18 84t-50 60q-66 52 -114 107.5t-48 120.5q0 77 40 122t110 45q51 0 87 -25.5t53.5 -65t17.5 -80.5q-29 3 -52 3q-25 0 -47 -4
q2 17 -4 39t-19.5 38t-33.5 16q-28 0 -45.5 -17t-17.5 -53q0 -6 2 -22q5 -34 30 -63.5t72 -69.5q7 -7 16.5 -14.5t19.5 -17.5q57 -55 75.5 -97t18.5 -106q0 -68 -32 -129.5t-133 -61.5q-72 0 -106.5 35.5zM99.5 857.5q11.5 11.5 25.5 27.5q16 18 25 30.5t20 30.5h47
q11 -18 20 -30.5t25 -30.5q14 -16 25.5 -27.5t29.5 -27.5l-55 -46q-22 32 -46 62q-4 4 -23 30q-12 -18 -22 -30q-24 -30 -46 -62l-55 46q18 16 29.5 27.5z" />
    <glyph glyph-name="Scircumflex" unicode="&#x15d;" horiz-adv-x="385" 
d="M83.5 20.5q-34.5 35.5 -42.5 79.5t-8 100q18 -3 49 -3q30 0 50 3q-1 -9 -1 -25q0 -48 16 -77.5t46 -29.5q33 0 51 29.5t18 78.5q0 47 -18 84t-50 60q-66 52 -114 107.5t-48 120.5q0 77 40 122t110 45q51 0 87 -25.5t53.5 -65t17.5 -80.5q-29 3 -52 3q-25 0 -47 -4
q2 17 -4 39t-19.5 38t-33.5 16q-28 0 -45.5 -17t-17.5 -53q0 -6 2 -22q5 -34 30 -63.5t72 -69.5q7 -7 16.5 -14.5t19.5 -17.5q57 -55 75.5 -97t18.5 -106q0 -68 -32 -129.5t-133 -61.5q-72 0 -106.5 35.5zM99.5 857.5q11.5 11.5 25.5 27.5q16 18 25 30.5t20 30.5h47
q11 -18 20 -30.5t25 -30.5q14 -16 25.5 -27.5t29.5 -27.5l-55 -46q-22 32 -46 62q-4 4 -23 30q-12 -18 -22 -30q-24 -30 -46 -62l-55 46q18 16 29.5 27.5z" />
    <glyph glyph-name="uni0218" unicode="&#x218;" horiz-adv-x="385" 
d="M83.5 20.5q-34.5 35.5 -42.5 79.5t-8 100q18 -3 49 -3q30 0 50 3q-1 -9 -1 -25q0 -48 16 -77.5t46 -29.5q33 0 51 29.5t18 78.5q0 47 -18 84t-50 60q-66 52 -114 107.5t-48 120.5q0 77 40 122t110 45q51 0 87 -25.5t53.5 -65t17.5 -80.5q-29 3 -52 3q-25 0 -47 -4
q2 17 -4 39t-19.5 38t-33.5 16q-28 0 -45.5 -17t-17.5 -53q0 -6 2 -22q5 -34 30 -63.5t72 -69.5q7 -7 16.5 -14.5t19.5 -17.5q57 -55 75.5 -97t18.5 -106q0 -68 -32 -129.5t-133 -61.5q-72 0 -106.5 35.5zM139 -196l9 21q17 34 30 69l22 61l49 -11l-12 -68q-8 -37 -15 -96
q-37 18 -83 24z" />
    <glyph glyph-name="uni0218" unicode="&#x219;" horiz-adv-x="385" 
d="M83.5 20.5q-34.5 35.5 -42.5 79.5t-8 100q18 -3 49 -3q30 0 50 3q-1 -9 -1 -25q0 -48 16 -77.5t46 -29.5q33 0 51 29.5t18 78.5q0 47 -18 84t-50 60q-66 52 -114 107.5t-48 120.5q0 77 40 122t110 45q51 0 87 -25.5t53.5 -65t17.5 -80.5q-29 3 -52 3q-25 0 -47 -4
q2 17 -4 39t-19.5 38t-33.5 16q-28 0 -45.5 -17t-17.5 -53q0 -6 2 -22q5 -34 30 -63.5t72 -69.5q7 -7 16.5 -14.5t19.5 -17.5q57 -55 75.5 -97t18.5 -106q0 -68 -32 -129.5t-133 -61.5q-72 0 -106.5 35.5zM139 -196l9 21q17 34 30 69l22 61l49 -11l-12 -68q-8 -37 -15 -96
q-37 18 -83 24z" />
    <glyph glyph-name="uni0218" unicode="&#x219;" horiz-adv-x="385" 
d="M83.5 20.5q-34.5 35.5 -42.5 79.5t-8 100q18 -3 49 -3q30 0 50 3q-1 -9 -1 -25q0 -48 16 -77.5t46 -29.5q33 0 51 29.5t18 78.5q0 47 -18 84t-50 60q-66 52 -114 107.5t-48 120.5q0 77 40 122t110 45q51 0 87 -25.5t53.5 -65t17.5 -80.5q-29 3 -52 3q-25 0 -47 -4
q2 17 -4 39t-19.5 38t-33.5 16q-28 0 -45.5 -17t-17.5 -53q0 -6 2 -22q5 -34 30 -63.5t72 -69.5q7 -7 16.5 -14.5t19.5 -17.5q57 -55 75.5 -97t18.5 -106q0 -68 -32 -129.5t-133 -61.5q-72 0 -106.5 35.5zM139 -196l9 21q17 34 30 69l22 61l49 -11l-12 -68q-8 -37 -15 -96
q-37 18 -83 24z" />
    <glyph glyph-name="uni1E9E" unicode="&#xdf;" horiz-adv-x="590" 
d="M65 183v333q0 55 -21 184h96q4 1 248 1q76 0 115.5 -41t41.5 -114v-30q0 -47 -20 -81.5t-48 -52.5q30 -22 45.5 -46t21.5 -61.5t6 -104.5q0 -87 -40.5 -132.5t-120.5 -45.5q-51 0 -87 23t-54 60t-19 78q17 -3 40 -3q27 0 55 4q-4 -26 10.5 -49t46.5 -23q36 0 54.5 19.5
t18.5 68.5l-2 64q-2 50 -16.5 73.5t-43.5 23.5q-25 0 -48 -5v101q12 -3 29 -3q40 0 60 16t20 59v31q0 41 -19 61t-54 20h-224v-428q0 -40 21 -183h-133q21 143 21 183z" />
    <glyph glyph-name="uni1E9E" unicode="&#x1e9e;" horiz-adv-x="590" 
d="M65 183v333q0 55 -21 184h96q4 1 248 1q76 0 115.5 -41t41.5 -114v-30q0 -47 -20 -81.5t-48 -52.5q30 -22 45.5 -46t21.5 -61.5t6 -104.5q0 -87 -40.5 -132.5t-120.5 -45.5q-51 0 -87 23t-54 60t-19 78q17 -3 40 -3q27 0 55 4q-4 -26 10.5 -49t46.5 -23q36 0 54.5 19.5
t18.5 68.5l-2 64q-2 50 -16.5 73.5t-43.5 23.5q-25 0 -48 -5v101q12 -3 29 -3q40 0 60 16t20 59v31q0 41 -19 61t-54 20h-224v-428q0 -40 21 -183h-133q21 143 21 183z" />
    <glyph glyph-name="uni1E9E" unicode="&#x1e9e;" horiz-adv-x="590" 
d="M65 183v333q0 55 -21 184h96q4 1 248 1q76 0 115.5 -41t41.5 -114v-30q0 -47 -20 -81.5t-48 -52.5q30 -22 45.5 -46t21.5 -61.5t6 -104.5q0 -87 -40.5 -132.5t-120.5 -45.5q-51 0 -87 23t-54 60t-19 78q17 -3 40 -3q27 0 55 4q-4 -26 10.5 -49t46.5 -23q36 0 54.5 19.5
t18.5 68.5l-2 64q-2 50 -16.5 73.5t-43.5 23.5q-25 0 -48 -5v101q12 -3 29 -3q40 0 60 16t20 59v31q0 41 -19 61t-54 20h-224v-428q0 -40 21 -183h-133q21 143 21 183z" />
    <glyph glyph-name="T" unicode="T" horiz-adv-x="479" 
d="M184 183v333q0 28 -8 98q-41 5 -77 5q-30 0 -53 -2.5t-30 -3.5l8 87h439l-20 -86q-22 3 -39 4t-39 1q-31 0 -53.5 -2.5t-27.5 -3.5q-9 -63 -9 -97v-333q0 -40 21 -183h-133q21 143 21 183z" />
    <glyph glyph-name="T" unicode="t" horiz-adv-x="479" 
d="M184 183v333q0 28 -8 98q-41 5 -77 5q-30 0 -53 -2.5t-30 -3.5l8 87h439l-20 -86q-22 3 -39 4t-39 1q-31 0 -53.5 -2.5t-27.5 -3.5q-9 -63 -9 -97v-333q0 -40 21 -183h-133q21 143 21 183z" />
    <glyph glyph-name="T" unicode="t" horiz-adv-x="479" 
d="M184 183v333q0 28 -8 98q-41 5 -77 5q-30 0 -53 -2.5t-30 -3.5l8 87h439l-20 -86q-22 3 -39 4t-39 1q-31 0 -53.5 -2.5t-27.5 -3.5q-9 -63 -9 -97v-333q0 -40 21 -183h-133q21 143 21 183z" />
    <glyph glyph-name="Tcaron" unicode="&#x164;" horiz-adv-x="479" 
d="M184 183v333q0 28 -8 98q-41 5 -77 5q-30 0 -53 -2.5t-30 -3.5l8 87h439l-20 -86q-22 3 -39 4t-39 1q-31 0 -53.5 -2.5t-27.5 -3.5q-9 -63 -9 -97v-333q0 -40 21 -183h-133q21 143 21 183zM193 806.5q-10 12.5 -25 30.5q-16 18 -28 29.5t-32 27.5l56 33q24 -34 49 -64
l27 -28l27 28q25 31 48 64l56 -33q-20 -16 -32 -27.5t-28 -29.5q-15 -18 -25 -30.5t-22 -33.5q-13 3 -26 3q-11 0 -23 -3q-12 21 -22 33.5z" />
    <glyph glyph-name="Tcaron" unicode="&#x165;" horiz-adv-x="479" 
d="M184 183v333q0 28 -8 98q-41 5 -77 5q-30 0 -53 -2.5t-30 -3.5l8 87h439l-20 -86q-22 3 -39 4t-39 1q-31 0 -53.5 -2.5t-27.5 -3.5q-9 -63 -9 -97v-333q0 -40 21 -183h-133q21 143 21 183zM193 806.5q-10 12.5 -25 30.5q-16 18 -28 29.5t-32 27.5l56 33q24 -34 49 -64
l27 -28l27 28q25 31 48 64l56 -33q-20 -16 -32 -27.5t-28 -29.5q-15 -18 -25 -30.5t-22 -33.5q-13 3 -26 3q-11 0 -23 -3q-12 21 -22 33.5z" />
    <glyph glyph-name="Tcaron" unicode="&#x165;" horiz-adv-x="479" 
d="M184 183v333q0 28 -8 98q-41 5 -77 5q-30 0 -53 -2.5t-30 -3.5l8 87h439l-20 -86q-22 3 -39 4t-39 1q-31 0 -53.5 -2.5t-27.5 -3.5q-9 -63 -9 -97v-333q0 -40 21 -183h-133q21 143 21 183zM193 806.5q-10 12.5 -25 30.5q-16 18 -28 29.5t-32 27.5l56 33q24 -34 49 -64
l27 -28l27 28q25 31 48 64l56 -33q-20 -16 -32 -27.5t-28 -29.5q-15 -18 -25 -30.5t-22 -33.5q-13 3 -26 3q-11 0 -23 -3q-12 21 -22 33.5z" />
    <glyph glyph-name="uni0162" unicode="&#x162;" horiz-adv-x="479" 
d="M184 183v333q0 28 -8 98q-41 5 -77 5q-30 0 -53 -2.5t-30 -3.5l8 87h439l-20 -86q-22 3 -39 4t-39 1q-31 0 -53.5 -2.5t-27.5 -3.5q-9 -63 -9 -97v-333q0 -40 21 -183h-17l34 -23l-36 -59q-8 -13 -26 -46l-15 -30q-30 32 -69 52l22 21q20 18 40 41l38 44h-104
q21 143 21 183z" />
    <glyph glyph-name="uni0162" unicode="&#x163;" horiz-adv-x="479" 
d="M184 183v333q0 28 -8 98q-41 5 -77 5q-30 0 -53 -2.5t-30 -3.5l8 87h439l-20 -86q-22 3 -39 4t-39 1q-31 0 -53.5 -2.5t-27.5 -3.5q-9 -63 -9 -97v-333q0 -40 21 -183h-17l34 -23l-36 -59q-8 -13 -26 -46l-15 -30q-30 32 -69 52l22 21q20 18 40 41l38 44h-104
q21 143 21 183z" />
    <glyph glyph-name="uni0162" unicode="&#x163;" horiz-adv-x="479" 
d="M184 183v333q0 28 -8 98q-41 5 -77 5q-30 0 -53 -2.5t-30 -3.5l8 87h439l-20 -86q-22 3 -39 4t-39 1q-31 0 -53.5 -2.5t-27.5 -3.5q-9 -63 -9 -97v-333q0 -40 21 -183h-17l34 -23l-36 -59q-8 -13 -26 -46l-15 -30q-30 32 -69 52l22 21q20 18 40 41l38 44h-104
q21 143 21 183z" />
    <glyph glyph-name="uni021A" unicode="&#x21a;" horiz-adv-x="479" 
d="M184 183v333q0 28 -8 98q-41 5 -77 5q-30 0 -53 -2.5t-30 -3.5l8 87h439l-20 -86q-22 3 -39 4t-39 1q-31 0 -53.5 -2.5t-27.5 -3.5q-9 -63 -9 -97v-333q0 -40 21 -183h-133q21 143 21 183zM185 -196l9 21q17 34 30 69l22 61l49 -11l-12 -68q-8 -37 -15 -96q-37 18 -83 24
z" />
    <glyph glyph-name="uni021A" unicode="&#x21b;" horiz-adv-x="479" 
d="M184 183v333q0 28 -8 98q-41 5 -77 5q-30 0 -53 -2.5t-30 -3.5l8 87h439l-20 -86q-22 3 -39 4t-39 1q-31 0 -53.5 -2.5t-27.5 -3.5q-9 -63 -9 -97v-333q0 -40 21 -183h-133q21 143 21 183zM185 -196l9 21q17 34 30 69l22 61l49 -11l-12 -68q-8 -37 -15 -96q-37 18 -83 24
z" />
    <glyph glyph-name="uni021A" unicode="&#x21b;" horiz-adv-x="479" 
d="M184 183v333q0 28 -8 98q-41 5 -77 5q-30 0 -53 -2.5t-30 -3.5l8 87h439l-20 -86q-22 3 -39 4t-39 1q-31 0 -53.5 -2.5t-27.5 -3.5q-9 -63 -9 -97v-333q0 -40 21 -183h-133q21 143 21 183zM185 -196l9 21q17 34 30 69l22 61l49 -11l-12 -68q-8 -37 -15 -96q-37 18 -83 24
z" />
    <glyph glyph-name="U" unicode="U" horiz-adv-x="480" 
d="M99 47.5q-38 62.5 -38 180.5v288q0 55 -21 184h130q-18 -133 -18 -184v-295q0 -59 8.5 -93t29 -50t58.5 -16q37 0 54 15.5t21.5 47t4.5 96.5v295q0 51 -17 184h129q-21 -129 -21 -184v-288q0 -117 -38.5 -180t-123.5 -63h-35q-85 0 -123 62.5z" />
    <glyph glyph-name="U" unicode="u" horiz-adv-x="480" 
d="M99 47.5q-38 62.5 -38 180.5v288q0 55 -21 184h130q-18 -133 -18 -184v-295q0 -59 8.5 -93t29 -50t58.5 -16q37 0 54 15.5t21.5 47t4.5 96.5v295q0 51 -17 184h129q-21 -129 -21 -184v-288q0 -117 -38.5 -180t-123.5 -63h-35q-85 0 -123 62.5z" />
    <glyph glyph-name="U" unicode="u" horiz-adv-x="480" 
d="M99 47.5q-38 62.5 -38 180.5v288q0 55 -21 184h130q-18 -133 -18 -184v-295q0 -59 8.5 -93t29 -50t58.5 -16q37 0 54 15.5t21.5 47t4.5 96.5v295q0 51 -17 184h129q-21 -129 -21 -184v-288q0 -117 -38.5 -180t-123.5 -63h-35q-85 0 -123 62.5z" />
    <glyph glyph-name="Uacute" unicode="&#xda;" horiz-adv-x="480" 
d="M99 47.5q-38 62.5 -38 180.5v288q0 55 -21 184h130q-18 -133 -18 -184v-295q0 -59 8.5 -93t29 -50t58.5 -16q37 0 54 15.5t21.5 47t4.5 96.5v295q0 51 -17 184h129q-21 -129 -21 -184v-288q0 -117 -38.5 -180t-123.5 -63h-35q-85 0 -123 62.5zM172 809l36 59q8 13 26 46
l15 30q30 -32 69 -52l-22 -21q-20 -18 -40 -41l-42 -49z" />
    <glyph glyph-name="Uacute" unicode="&#xfa;" horiz-adv-x="480" 
d="M99 47.5q-38 62.5 -38 180.5v288q0 55 -21 184h130q-18 -133 -18 -184v-295q0 -59 8.5 -93t29 -50t58.5 -16q37 0 54 15.5t21.5 47t4.5 96.5v295q0 51 -17 184h129q-21 -129 -21 -184v-288q0 -117 -38.5 -180t-123.5 -63h-35q-85 0 -123 62.5zM172 809l36 59q8 13 26 46
l15 30q30 -32 69 -52l-22 -21q-20 -18 -40 -41l-42 -49z" />
    <glyph glyph-name="Uacute" unicode="&#xfa;" horiz-adv-x="480" 
d="M99 47.5q-38 62.5 -38 180.5v288q0 55 -21 184h130q-18 -133 -18 -184v-295q0 -59 8.5 -93t29 -50t58.5 -16q37 0 54 15.5t21.5 47t4.5 96.5v295q0 51 -17 184h129q-21 -129 -21 -184v-288q0 -117 -38.5 -180t-123.5 -63h-35q-85 0 -123 62.5zM172 809l36 59q8 13 26 46
l15 30q30 -32 69 -52l-22 -21q-20 -18 -40 -41l-42 -49z" />
    <glyph glyph-name="Ucircumflex" unicode="&#xdb;" horiz-adv-x="480" 
d="M99 47.5q-38 62.5 -38 180.5v288q0 55 -21 184h130q-18 -133 -18 -184v-295q0 -59 8.5 -93t29 -50t58.5 -16q37 0 54 15.5t21.5 47t4.5 96.5v295q0 51 -17 184h129q-21 -129 -21 -184v-288q0 -117 -38.5 -180t-123.5 -63h-35q-85 0 -123 62.5zM150.5 857.5
q11.5 11.5 25.5 27.5q16 18 25 30.5t20 30.5h47q11 -18 20 -30.5t25 -30.5q14 -16 25.5 -27.5t29.5 -27.5l-55 -46q-22 32 -46 62q-4 4 -23 30q-12 -18 -22 -30q-24 -30 -46 -62l-55 46q18 16 29.5 27.5z" />
    <glyph glyph-name="Ucircumflex" unicode="&#xfb;" horiz-adv-x="480" 
d="M99 47.5q-38 62.5 -38 180.5v288q0 55 -21 184h130q-18 -133 -18 -184v-295q0 -59 8.5 -93t29 -50t58.5 -16q37 0 54 15.5t21.5 47t4.5 96.5v295q0 51 -17 184h129q-21 -129 -21 -184v-288q0 -117 -38.5 -180t-123.5 -63h-35q-85 0 -123 62.5zM150.5 857.5
q11.5 11.5 25.5 27.5q16 18 25 30.5t20 30.5h47q11 -18 20 -30.5t25 -30.5q14 -16 25.5 -27.5t29.5 -27.5l-55 -46q-22 32 -46 62q-4 4 -23 30q-12 -18 -22 -30q-24 -30 -46 -62l-55 46q18 16 29.5 27.5z" />
    <glyph glyph-name="Ucircumflex" unicode="&#xfb;" horiz-adv-x="480" 
d="M99 47.5q-38 62.5 -38 180.5v288q0 55 -21 184h130q-18 -133 -18 -184v-295q0 -59 8.5 -93t29 -50t58.5 -16q37 0 54 15.5t21.5 47t4.5 96.5v295q0 51 -17 184h129q-21 -129 -21 -184v-288q0 -117 -38.5 -180t-123.5 -63h-35q-85 0 -123 62.5zM150.5 857.5
q11.5 11.5 25.5 27.5q16 18 25 30.5t20 30.5h47q11 -18 20 -30.5t25 -30.5q14 -16 25.5 -27.5t29.5 -27.5l-55 -46q-22 32 -46 62q-4 4 -23 30q-12 -18 -22 -30q-24 -30 -46 -62l-55 46q18 16 29.5 27.5z" />
    <glyph glyph-name="Udieresis" unicode="&#xdc;" horiz-adv-x="480" 
d="M99 47.5q-38 62.5 -38 180.5v288q0 55 -21 184h130q-18 -133 -18 -184v-295q0 -59 8.5 -93t29 -50t58.5 -16q37 0 54 15.5t21.5 47t4.5 96.5v295q0 51 -17 184h129q-21 -129 -21 -184v-288q0 -117 -38.5 -180t-123.5 -63h-35q-85 0 -123 62.5zM276.5 828
q-14.5 15 -14.5 41q0 27 14.5 41t41.5 14q26 0 40.5 -14.5t14.5 -40.5q0 -27 -14.5 -41.5t-40.5 -14.5q-27 0 -41.5 15zM131.5 910q14.5 14 41.5 14q26 0 40.5 -14.5t14.5 -40.5q0 -27 -14.5 -41.5t-40.5 -14.5q-27 0 -41.5 15t-14.5 41q0 27 14.5 41z" />
    <glyph glyph-name="Udieresis" unicode="&#xfc;" horiz-adv-x="480" 
d="M99 47.5q-38 62.5 -38 180.5v288q0 55 -21 184h130q-18 -133 -18 -184v-295q0 -59 8.5 -93t29 -50t58.5 -16q37 0 54 15.5t21.5 47t4.5 96.5v295q0 51 -17 184h129q-21 -129 -21 -184v-288q0 -117 -38.5 -180t-123.5 -63h-35q-85 0 -123 62.5zM276.5 828
q-14.5 15 -14.5 41q0 27 14.5 41t41.5 14q26 0 40.5 -14.5t14.5 -40.5q0 -27 -14.5 -41.5t-40.5 -14.5q-27 0 -41.5 15zM131.5 910q14.5 14 41.5 14q26 0 40.5 -14.5t14.5 -40.5q0 -27 -14.5 -41.5t-40.5 -14.5q-27 0 -41.5 15t-14.5 41q0 27 14.5 41z" />
    <glyph glyph-name="Udieresis" unicode="&#xfc;" horiz-adv-x="480" 
d="M99 47.5q-38 62.5 -38 180.5v288q0 55 -21 184h130q-18 -133 -18 -184v-295q0 -59 8.5 -93t29 -50t58.5 -16q37 0 54 15.5t21.5 47t4.5 96.5v295q0 51 -17 184h129q-21 -129 -21 -184v-288q0 -117 -38.5 -180t-123.5 -63h-35q-85 0 -123 62.5zM276.5 828
q-14.5 15 -14.5 41q0 27 14.5 41t41.5 14q26 0 40.5 -14.5t14.5 -40.5q0 -27 -14.5 -41.5t-40.5 -14.5q-27 0 -41.5 15zM131.5 910q14.5 14 41.5 14q26 0 40.5 -14.5t14.5 -40.5q0 -27 -14.5 -41.5t-40.5 -14.5q-27 0 -41.5 15t-14.5 41q0 27 14.5 41z" />
    <glyph glyph-name="Ugrave" unicode="&#xd9;" horiz-adv-x="480" 
d="M99 47.5q-38 62.5 -38 180.5v288q0 55 -21 184h130q-18 -133 -18 -184v-295q0 -59 8.5 -93t29 -50t58.5 -16q37 0 54 15.5t21.5 47t4.5 96.5v295q0 51 -17 184h129q-21 -129 -21 -184v-288q0 -117 -38.5 -180t-123.5 -63h-35q-85 0 -123 62.5zM214 838q-13 18 -24 30
t-26 27l69 52q10 -18 19 -32t22 -32q12 -16 23 -29t28 -30l-69 -51q-23 37 -42 65z" />
    <glyph glyph-name="Ugrave" unicode="&#xf9;" horiz-adv-x="480" 
d="M99 47.5q-38 62.5 -38 180.5v288q0 55 -21 184h130q-18 -133 -18 -184v-295q0 -59 8.5 -93t29 -50t58.5 -16q37 0 54 15.5t21.5 47t4.5 96.5v295q0 51 -17 184h129q-21 -129 -21 -184v-288q0 -117 -38.5 -180t-123.5 -63h-35q-85 0 -123 62.5zM214 838q-13 18 -24 30
t-26 27l69 52q10 -18 19 -32t22 -32q12 -16 23 -29t28 -30l-69 -51q-23 37 -42 65z" />
    <glyph glyph-name="Ugrave" unicode="&#xf9;" horiz-adv-x="480" 
d="M99 47.5q-38 62.5 -38 180.5v288q0 55 -21 184h130q-18 -133 -18 -184v-295q0 -59 8.5 -93t29 -50t58.5 -16q37 0 54 15.5t21.5 47t4.5 96.5v295q0 51 -17 184h129q-21 -129 -21 -184v-288q0 -117 -38.5 -180t-123.5 -63h-35q-85 0 -123 62.5zM214 838q-13 18 -24 30
t-26 27l69 52q10 -18 19 -32t22 -32q12 -16 23 -29t28 -30l-69 -51q-23 37 -42 65z" />
    <glyph glyph-name="Uhungarumlaut" unicode="&#x170;" horiz-adv-x="480" 
d="M99 47.5q-38 62.5 -38 180.5v288q0 55 -21 184h130q-18 -133 -18 -184v-295q0 -59 8.5 -93t29 -50t58.5 -16q37 0 54 15.5t21.5 47t4.5 96.5v295q0 51 -17 184h129q-21 -129 -21 -184v-288q0 -117 -38.5 -180t-123.5 -63h-35q-85 0 -123 62.5zM233 805l36 59q8 13 26 46
l15 30q29 -30 63 -48l-22 -21q-20 -18 -40 -41l-42 -49zM152 868q8 13 26 46l15 30q29 -30 63 -48l-22 -21q-20 -18 -40 -41l-42 -49l-36 24z" />
    <glyph glyph-name="Uhungarumlaut" unicode="&#x171;" horiz-adv-x="480" 
d="M99 47.5q-38 62.5 -38 180.5v288q0 55 -21 184h130q-18 -133 -18 -184v-295q0 -59 8.5 -93t29 -50t58.5 -16q37 0 54 15.5t21.5 47t4.5 96.5v295q0 51 -17 184h129q-21 -129 -21 -184v-288q0 -117 -38.5 -180t-123.5 -63h-35q-85 0 -123 62.5zM233 805l36 59q8 13 26 46
l15 30q29 -30 63 -48l-22 -21q-20 -18 -40 -41l-42 -49zM152 868q8 13 26 46l15 30q29 -30 63 -48l-22 -21q-20 -18 -40 -41l-42 -49l-36 24z" />
    <glyph glyph-name="Uhungarumlaut" unicode="&#x171;" horiz-adv-x="480" 
d="M99 47.5q-38 62.5 -38 180.5v288q0 55 -21 184h130q-18 -133 -18 -184v-295q0 -59 8.5 -93t29 -50t58.5 -16q37 0 54 15.5t21.5 47t4.5 96.5v295q0 51 -17 184h129q-21 -129 -21 -184v-288q0 -117 -38.5 -180t-123.5 -63h-35q-85 0 -123 62.5zM233 805l36 59q8 13 26 46
l15 30q29 -30 63 -48l-22 -21q-20 -18 -40 -41l-42 -49zM152 868q8 13 26 46l15 30q29 -30 63 -48l-22 -21q-20 -18 -40 -41l-42 -49l-36 24z" />
    <glyph glyph-name="Umacron" unicode="&#x16a;" horiz-adv-x="480" 
d="M99 47.5q-38 62.5 -38 180.5v288q0 55 -21 184h130q-18 -133 -18 -184v-295q0 -59 8.5 -93t29 -50t58.5 -16q37 0 54 15.5t21.5 47t4.5 96.5v295q0 51 -17 184h129q-21 -129 -21 -184v-288q0 -117 -38.5 -180t-123.5 -63h-35q-85 0 -123 62.5zM171.5 895q25.5 -2 71.5 -2
q30 0 52.5 1t58.5 4v-81q-24 2 -30 2q-43 3 -81 3t-86 -3l-22 -2v81q11 -1 36.5 -3z" />
    <glyph glyph-name="Umacron" unicode="&#x16b;" horiz-adv-x="480" 
d="M99 47.5q-38 62.5 -38 180.5v288q0 55 -21 184h130q-18 -133 -18 -184v-295q0 -59 8.5 -93t29 -50t58.5 -16q37 0 54 15.5t21.5 47t4.5 96.5v295q0 51 -17 184h129q-21 -129 -21 -184v-288q0 -117 -38.5 -180t-123.5 -63h-35q-85 0 -123 62.5zM171.5 895q25.5 -2 71.5 -2
q30 0 52.5 1t58.5 4v-81q-24 2 -30 2q-43 3 -81 3t-86 -3l-22 -2v81q11 -1 36.5 -3z" />
    <glyph glyph-name="Umacron" unicode="&#x16b;" horiz-adv-x="480" 
d="M99 47.5q-38 62.5 -38 180.5v288q0 55 -21 184h130q-18 -133 -18 -184v-295q0 -59 8.5 -93t29 -50t58.5 -16q37 0 54 15.5t21.5 47t4.5 96.5v295q0 51 -17 184h129q-21 -129 -21 -184v-288q0 -117 -38.5 -180t-123.5 -63h-35q-85 0 -123 62.5zM171.5 895q25.5 -2 71.5 -2
q30 0 52.5 1t58.5 4v-81q-24 2 -30 2q-43 3 -81 3t-86 -3l-22 -2v81q11 -1 36.5 -3z" />
    <glyph glyph-name="Uogonek" unicode="&#x172;" horiz-adv-x="480" 
d="M99 47.5q-38 62.5 -38 180.5v288q0 55 -21 184h130q-18 -133 -18 -184v-295q0 -59 8.5 -93t29 -50t58.5 -16q37 0 54 15.5t21.5 47t4.5 96.5v295q0 51 -17 184h129q-21 -129 -21 -184v-288q0 -180 -88 -226l19 -22q20 -23 40 -41l22 -21q-39 -20 -69 -52l-16 31l-25 45
l-27 44q-6 -1 -18 -1h-35q-85 0 -123 62.5z" />
    <glyph glyph-name="Uogonek" unicode="&#x173;" horiz-adv-x="480" 
d="M99 47.5q-38 62.5 -38 180.5v288q0 55 -21 184h130q-18 -133 -18 -184v-295q0 -59 8.5 -93t29 -50t58.5 -16q37 0 54 15.5t21.5 47t4.5 96.5v295q0 51 -17 184h129q-21 -129 -21 -184v-288q0 -180 -88 -226l19 -22q20 -23 40 -41l22 -21q-39 -20 -69 -52l-16 31l-25 45
l-27 44q-6 -1 -18 -1h-35q-85 0 -123 62.5z" />
    <glyph glyph-name="Uogonek" unicode="&#x173;" horiz-adv-x="480" 
d="M99 47.5q-38 62.5 -38 180.5v288q0 55 -21 184h130q-18 -133 -18 -184v-295q0 -59 8.5 -93t29 -50t58.5 -16q37 0 54 15.5t21.5 47t4.5 96.5v295q0 51 -17 184h129q-21 -129 -21 -184v-288q0 -180 -88 -226l19 -22q20 -23 40 -41l22 -21q-39 -20 -69 -52l-16 31l-25 45
l-27 44q-6 -1 -18 -1h-35q-85 0 -123 62.5z" />
    <glyph glyph-name="Uring" unicode="&#x16e;" horiz-adv-x="480" 
d="M99 47.5q-38 62.5 -38 180.5v288q0 55 -21 184h130q-18 -133 -18 -184v-295q0 -59 8.5 -93t29 -50t58.5 -16q37 0 54 15.5t21.5 47t4.5 96.5v295q0 51 -17 184h129q-21 -129 -21 -184v-288q0 -117 -38.5 -180t-123.5 -63h-35q-85 0 -123 62.5zM189.5 804
q-19.5 20 -19.5 55q0 36 19.5 55t55.5 19q35 0 54.5 -19.5t19.5 -54.5q0 -36 -19.5 -55.5t-54.5 -19.5q-36 0 -55.5 20zM215.5 825.5q10.5 -11.5 29.5 -11.5q18 0 28.5 12.5t10.5 32.5q0 21 -10.5 32.5t-28.5 11.5q-19 0 -29.5 -12t-10.5 -32q0 -22 10.5 -33.5z" />
    <glyph glyph-name="Uring" unicode="&#x16f;" horiz-adv-x="480" 
d="M99 47.5q-38 62.5 -38 180.5v288q0 55 -21 184h130q-18 -133 -18 -184v-295q0 -59 8.5 -93t29 -50t58.5 -16q37 0 54 15.5t21.5 47t4.5 96.5v295q0 51 -17 184h129q-21 -129 -21 -184v-288q0 -117 -38.5 -180t-123.5 -63h-35q-85 0 -123 62.5zM189.5 804
q-19.5 20 -19.5 55q0 36 19.5 55t55.5 19q35 0 54.5 -19.5t19.5 -54.5q0 -36 -19.5 -55.5t-54.5 -19.5q-36 0 -55.5 20zM215.5 825.5q10.5 -11.5 29.5 -11.5q18 0 28.5 12.5t10.5 32.5q0 21 -10.5 32.5t-28.5 11.5q-19 0 -29.5 -12t-10.5 -32q0 -22 10.5 -33.5z" />
    <glyph glyph-name="Uring" unicode="&#x16f;" horiz-adv-x="480" 
d="M99 47.5q-38 62.5 -38 180.5v288q0 55 -21 184h130q-18 -133 -18 -184v-295q0 -59 8.5 -93t29 -50t58.5 -16q37 0 54 15.5t21.5 47t4.5 96.5v295q0 51 -17 184h129q-21 -129 -21 -184v-288q0 -117 -38.5 -180t-123.5 -63h-35q-85 0 -123 62.5zM189.5 804
q-19.5 20 -19.5 55q0 36 19.5 55t55.5 19q35 0 54.5 -19.5t19.5 -54.5q0 -36 -19.5 -55.5t-54.5 -19.5q-36 0 -55.5 20zM215.5 825.5q10.5 -11.5 29.5 -11.5q18 0 28.5 12.5t10.5 32.5q0 21 -10.5 32.5t-28.5 11.5q-19 0 -29.5 -12t-10.5 -32q0 -22 10.5 -33.5z" />
    <glyph glyph-name="Utilde" unicode="&#x168;" horiz-adv-x="480" 
d="M99 47.5q-38 62.5 -38 180.5v288q0 55 -21 184h130q-18 -133 -18 -184v-295q0 -59 8.5 -93t29 -50t58.5 -16q37 0 54 15.5t21.5 47t4.5 96.5v295q0 51 -17 184h129q-21 -129 -21 -184v-288q0 -117 -38.5 -180t-123.5 -63h-35q-85 0 -123 62.5zM258.5 780
q-16.5 13 -32.5 35q-14 17 -21 23.5t-18 6.5q-19 0 -26 -13.5t-7 -43.5v-14h-44v39q0 32 16.5 60t52.5 28q29 0 45 -12.5t32 -35.5q11 -15 19 -22.5t20 -7.5q25 0 33 14.5t8 42.5v15h44v-40q0 -31 -20 -59.5t-60 -28.5q-25 0 -41.5 13z" />
    <glyph glyph-name="Utilde" unicode="&#x169;" horiz-adv-x="480" 
d="M99 47.5q-38 62.5 -38 180.5v288q0 55 -21 184h130q-18 -133 -18 -184v-295q0 -59 8.5 -93t29 -50t58.5 -16q37 0 54 15.5t21.5 47t4.5 96.5v295q0 51 -17 184h129q-21 -129 -21 -184v-288q0 -117 -38.5 -180t-123.5 -63h-35q-85 0 -123 62.5zM258.5 780
q-16.5 13 -32.5 35q-14 17 -21 23.5t-18 6.5q-19 0 -26 -13.5t-7 -43.5v-14h-44v39q0 32 16.5 60t52.5 28q29 0 45 -12.5t32 -35.5q11 -15 19 -22.5t20 -7.5q25 0 33 14.5t8 42.5v15h44v-40q0 -31 -20 -59.5t-60 -28.5q-25 0 -41.5 13z" />
    <glyph glyph-name="Utilde" unicode="&#x169;" horiz-adv-x="480" 
d="M99 47.5q-38 62.5 -38 180.5v288q0 55 -21 184h130q-18 -133 -18 -184v-295q0 -59 8.5 -93t29 -50t58.5 -16q37 0 54 15.5t21.5 47t4.5 96.5v295q0 51 -17 184h129q-21 -129 -21 -184v-288q0 -117 -38.5 -180t-123.5 -63h-35q-85 0 -123 62.5zM258.5 780
q-16.5 13 -32.5 35q-14 17 -21 23.5t-18 6.5q-19 0 -26 -13.5t-7 -43.5v-14h-44v39q0 32 16.5 60t52.5 28q29 0 45 -12.5t32 -35.5q11 -15 19 -22.5t20 -7.5q25 0 33 14.5t8 42.5v15h44v-40q0 -31 -20 -59.5t-60 -28.5q-25 0 -41.5 13z" />
    <glyph glyph-name="V" unicode="V" horiz-adv-x="499" 
d="M28 666l-10 34h114q1 0 20 -87t45 -225.5t51 -306.5h3q25 168 51 306.5t45 225.5t20 87h114l-10 -34q-37 -118 -42 -149l-94 -517h-171l-94 517q-5 31 -42 149z" />
    <glyph glyph-name="V" unicode="v" horiz-adv-x="499" 
d="M28 666l-10 34h114q1 0 20 -87t45 -225.5t51 -306.5h3q25 168 51 306.5t45 225.5t20 87h114l-10 -34q-37 -118 -42 -149l-94 -517h-171l-94 517q-5 31 -42 149z" />
    <glyph glyph-name="V" unicode="v" horiz-adv-x="499" 
d="M28 666l-10 34h114q1 0 20 -87t45 -225.5t51 -306.5h3q25 168 51 306.5t45 225.5t20 87h114l-10 -34q-37 -118 -42 -149l-94 -517h-171l-94 517q-5 31 -42 149z" />
    <glyph glyph-name="W" unicode="W" horiz-adv-x="712" 
d="M44.5 601.5q-18.5 59.5 -22.5 72.5l-8 26h114q1 0 17 -87t37.5 -225.5t42.5 -306.5h4q7 47 37 206q4 24 21.5 121.5t23.5 150.5q32 -4 44 -4q17 0 36 3q8 -46 29 -142q21 -95 35.5 -169t28.5 -166h3q21 168 42.5 306.5t37.5 225.5t17 87h114l-8 -26q-4 -13 -22.5 -72.5
t-21.5 -84.5l-76 -517h-158l-53 328h-8l-50 -328h-157l-78 517q-3 25 -21.5 84.5z" />
    <glyph glyph-name="W" unicode="w" horiz-adv-x="712" 
d="M44.5 601.5q-18.5 59.5 -22.5 72.5l-8 26h114q1 0 17 -87t37.5 -225.5t42.5 -306.5h4q7 47 37 206q4 24 21.5 121.5t23.5 150.5q32 -4 44 -4q17 0 36 3q8 -46 29 -142q21 -95 35.5 -169t28.5 -166h3q21 168 42.5 306.5t37.5 225.5t17 87h114l-8 -26q-4 -13 -22.5 -72.5
t-21.5 -84.5l-76 -517h-158l-53 328h-8l-50 -328h-157l-78 517q-3 25 -21.5 84.5z" />
    <glyph glyph-name="W" unicode="w" horiz-adv-x="712" 
d="M44.5 601.5q-18.5 59.5 -22.5 72.5l-8 26h114q1 0 17 -87t37.5 -225.5t42.5 -306.5h4q7 47 37 206q4 24 21.5 121.5t23.5 150.5q32 -4 44 -4q17 0 36 3q8 -46 29 -142q21 -95 35.5 -169t28.5 -166h3q21 168 42.5 306.5t37.5 225.5t17 87h114l-8 -26q-4 -13 -22.5 -72.5
t-21.5 -84.5l-76 -517h-158l-53 328h-8l-50 -328h-157l-78 517q-3 25 -21.5 84.5z" />
    <glyph glyph-name="Wacute" unicode="&#x1e82;" horiz-adv-x="712" 
d="M44.5 601.5q-18.5 59.5 -22.5 72.5l-8 26h114q1 0 17 -87t37.5 -225.5t42.5 -306.5h4q7 47 37 206q4 24 21.5 121.5t23.5 150.5q32 -4 44 -4q17 0 36 3q8 -46 29 -142q21 -95 35.5 -169t28.5 -166h3q21 168 42.5 306.5t37.5 225.5t17 87h114l-8 -26q-4 -13 -22.5 -72.5
t-21.5 -84.5l-76 -517h-158l-53 328h-8l-50 -328h-157l-78 517q-3 25 -21.5 84.5zM283 809l36 59q8 13 26 46l15 30q30 -32 69 -52l-22 -21q-20 -18 -40 -41l-42 -49z" />
    <glyph glyph-name="Wacute" unicode="&#x1e83;" horiz-adv-x="712" 
d="M44.5 601.5q-18.5 59.5 -22.5 72.5l-8 26h114q1 0 17 -87t37.5 -225.5t42.5 -306.5h4q7 47 37 206q4 24 21.5 121.5t23.5 150.5q32 -4 44 -4q17 0 36 3q8 -46 29 -142q21 -95 35.5 -169t28.5 -166h3q21 168 42.5 306.5t37.5 225.5t17 87h114l-8 -26q-4 -13 -22.5 -72.5
t-21.5 -84.5l-76 -517h-158l-53 328h-8l-50 -328h-157l-78 517q-3 25 -21.5 84.5zM283 809l36 59q8 13 26 46l15 30q30 -32 69 -52l-22 -21q-20 -18 -40 -41l-42 -49z" />
    <glyph glyph-name="Wacute" unicode="&#x1e83;" horiz-adv-x="712" 
d="M44.5 601.5q-18.5 59.5 -22.5 72.5l-8 26h114q1 0 17 -87t37.5 -225.5t42.5 -306.5h4q7 47 37 206q4 24 21.5 121.5t23.5 150.5q32 -4 44 -4q17 0 36 3q8 -46 29 -142q21 -95 35.5 -169t28.5 -166h3q21 168 42.5 306.5t37.5 225.5t17 87h114l-8 -26q-4 -13 -22.5 -72.5
t-21.5 -84.5l-76 -517h-158l-53 328h-8l-50 -328h-157l-78 517q-3 25 -21.5 84.5zM283 809l36 59q8 13 26 46l15 30q30 -32 69 -52l-22 -21q-20 -18 -40 -41l-42 -49z" />
    <glyph glyph-name="Wcircumflex" unicode="&#x174;" horiz-adv-x="712" 
d="M44.5 601.5q-18.5 59.5 -22.5 72.5l-8 26h114q1 0 17 -87t37.5 -225.5t42.5 -306.5h4q7 47 37 206q4 24 21.5 121.5t23.5 150.5q32 -4 44 -4q17 0 36 3q8 -46 29 -142q21 -95 35.5 -169t28.5 -166h3q21 168 42.5 306.5t37.5 225.5t17 87h114l-8 -26q-4 -13 -22.5 -72.5
t-21.5 -84.5l-76 -517h-158l-53 328h-8l-50 -328h-157l-78 517q-3 25 -21.5 84.5zM261.5 857.5q11.5 11.5 25.5 27.5q16 18 25 30.5t20 30.5h47q11 -18 20 -30.5t25 -30.5q14 -16 25.5 -27.5t29.5 -27.5l-55 -46q-22 32 -46 62q-4 4 -23 30q-12 -18 -22 -30q-24 -30 -46 -62
l-55 46q18 16 29.5 27.5z" />
    <glyph glyph-name="Wcircumflex" unicode="&#x175;" horiz-adv-x="712" 
d="M44.5 601.5q-18.5 59.5 -22.5 72.5l-8 26h114q1 0 17 -87t37.5 -225.5t42.5 -306.5h4q7 47 37 206q4 24 21.5 121.5t23.5 150.5q32 -4 44 -4q17 0 36 3q8 -46 29 -142q21 -95 35.5 -169t28.5 -166h3q21 168 42.5 306.5t37.5 225.5t17 87h114l-8 -26q-4 -13 -22.5 -72.5
t-21.5 -84.5l-76 -517h-158l-53 328h-8l-50 -328h-157l-78 517q-3 25 -21.5 84.5zM261.5 857.5q11.5 11.5 25.5 27.5q16 18 25 30.5t20 30.5h47q11 -18 20 -30.5t25 -30.5q14 -16 25.5 -27.5t29.5 -27.5l-55 -46q-22 32 -46 62q-4 4 -23 30q-12 -18 -22 -30q-24 -30 -46 -62
l-55 46q18 16 29.5 27.5z" />
    <glyph glyph-name="Wcircumflex" unicode="&#x175;" horiz-adv-x="712" 
d="M44.5 601.5q-18.5 59.5 -22.5 72.5l-8 26h114q1 0 17 -87t37.5 -225.5t42.5 -306.5h4q7 47 37 206q4 24 21.5 121.5t23.5 150.5q32 -4 44 -4q17 0 36 3q8 -46 29 -142q21 -95 35.5 -169t28.5 -166h3q21 168 42.5 306.5t37.5 225.5t17 87h114l-8 -26q-4 -13 -22.5 -72.5
t-21.5 -84.5l-76 -517h-158l-53 328h-8l-50 -328h-157l-78 517q-3 25 -21.5 84.5zM261.5 857.5q11.5 11.5 25.5 27.5q16 18 25 30.5t20 30.5h47q11 -18 20 -30.5t25 -30.5q14 -16 25.5 -27.5t29.5 -27.5l-55 -46q-22 32 -46 62q-4 4 -23 30q-12 -18 -22 -30q-24 -30 -46 -62
l-55 46q18 16 29.5 27.5z" />
    <glyph glyph-name="Wdieresis" unicode="&#x1e84;" horiz-adv-x="712" 
d="M44.5 601.5q-18.5 59.5 -22.5 72.5l-8 26h114q1 0 17 -87t37.5 -225.5t42.5 -306.5h4q7 47 37 206q4 24 21.5 121.5t23.5 150.5q32 -4 44 -4q17 0 36 3q8 -46 29 -142q21 -95 35.5 -169t28.5 -166h3q21 168 42.5 306.5t37.5 225.5t17 87h114l-8 -26q-4 -13 -22.5 -72.5
t-21.5 -84.5l-76 -517h-158l-53 328h-8l-50 -328h-157l-78 517q-3 25 -21.5 84.5zM387.5 828q-14.5 15 -14.5 41q0 27 14.5 41t41.5 14q26 0 40.5 -14.5t14.5 -40.5q0 -27 -14.5 -41.5t-40.5 -14.5q-27 0 -41.5 15zM242.5 910q14.5 14 41.5 14q26 0 40.5 -14.5t14.5 -40.5
q0 -27 -14.5 -41.5t-40.5 -14.5q-27 0 -41.5 15t-14.5 41q0 27 14.5 41z" />
    <glyph glyph-name="Wdieresis" unicode="&#x1e85;" horiz-adv-x="712" 
d="M44.5 601.5q-18.5 59.5 -22.5 72.5l-8 26h114q1 0 17 -87t37.5 -225.5t42.5 -306.5h4q7 47 37 206q4 24 21.5 121.5t23.5 150.5q32 -4 44 -4q17 0 36 3q8 -46 29 -142q21 -95 35.5 -169t28.5 -166h3q21 168 42.5 306.5t37.5 225.5t17 87h114l-8 -26q-4 -13 -22.5 -72.5
t-21.5 -84.5l-76 -517h-158l-53 328h-8l-50 -328h-157l-78 517q-3 25 -21.5 84.5zM387.5 828q-14.5 15 -14.5 41q0 27 14.5 41t41.5 14q26 0 40.5 -14.5t14.5 -40.5q0 -27 -14.5 -41.5t-40.5 -14.5q-27 0 -41.5 15zM242.5 910q14.5 14 41.5 14q26 0 40.5 -14.5t14.5 -40.5
q0 -27 -14.5 -41.5t-40.5 -14.5q-27 0 -41.5 15t-14.5 41q0 27 14.5 41z" />
    <glyph glyph-name="Wdieresis" unicode="&#x1e85;" horiz-adv-x="712" 
d="M44.5 601.5q-18.5 59.5 -22.5 72.5l-8 26h114q1 0 17 -87t37.5 -225.5t42.5 -306.5h4q7 47 37 206q4 24 21.5 121.5t23.5 150.5q32 -4 44 -4q17 0 36 3q8 -46 29 -142q21 -95 35.5 -169t28.5 -166h3q21 168 42.5 306.5t37.5 225.5t17 87h114l-8 -26q-4 -13 -22.5 -72.5
t-21.5 -84.5l-76 -517h-158l-53 328h-8l-50 -328h-157l-78 517q-3 25 -21.5 84.5zM387.5 828q-14.5 15 -14.5 41q0 27 14.5 41t41.5 14q26 0 40.5 -14.5t14.5 -40.5q0 -27 -14.5 -41.5t-40.5 -14.5q-27 0 -41.5 15zM242.5 910q14.5 14 41.5 14q26 0 40.5 -14.5t14.5 -40.5
q0 -27 -14.5 -41.5t-40.5 -14.5q-27 0 -41.5 15t-14.5 41q0 27 14.5 41z" />
    <glyph glyph-name="Wgrave" unicode="&#x1e80;" horiz-adv-x="712" 
d="M44.5 601.5q-18.5 59.5 -22.5 72.5l-8 26h114q1 0 17 -87t37.5 -225.5t42.5 -306.5h4q7 47 37 206q4 24 21.5 121.5t23.5 150.5q32 -4 44 -4q17 0 36 3q8 -46 29 -142q21 -95 35.5 -169t28.5 -166h3q21 168 42.5 306.5t37.5 225.5t17 87h114l-8 -26q-4 -13 -22.5 -72.5
t-21.5 -84.5l-76 -517h-158l-53 328h-8l-50 -328h-157l-78 517q-3 25 -21.5 84.5zM325 838q-13 18 -24 30t-26 27l69 52q10 -18 19 -32t22 -32q12 -16 23 -29t28 -30l-69 -51q-23 37 -42 65z" />
    <glyph glyph-name="Wgrave" unicode="&#x1e81;" horiz-adv-x="712" 
d="M44.5 601.5q-18.5 59.5 -22.5 72.5l-8 26h114q1 0 17 -87t37.5 -225.5t42.5 -306.5h4q7 47 37 206q4 24 21.5 121.5t23.5 150.5q32 -4 44 -4q17 0 36 3q8 -46 29 -142q21 -95 35.5 -169t28.5 -166h3q21 168 42.5 306.5t37.5 225.5t17 87h114l-8 -26q-4 -13 -22.5 -72.5
t-21.5 -84.5l-76 -517h-158l-53 328h-8l-50 -328h-157l-78 517q-3 25 -21.5 84.5zM325 838q-13 18 -24 30t-26 27l69 52q10 -18 19 -32t22 -32q12 -16 23 -29t28 -30l-69 -51q-23 37 -42 65z" />
    <glyph glyph-name="Wgrave" unicode="&#x1e81;" horiz-adv-x="712" 
d="M44.5 601.5q-18.5 59.5 -22.5 72.5l-8 26h114q1 0 17 -87t37.5 -225.5t42.5 -306.5h4q7 47 37 206q4 24 21.5 121.5t23.5 150.5q32 -4 44 -4q17 0 36 3q8 -46 29 -142q21 -95 35.5 -169t28.5 -166h3q21 168 42.5 306.5t37.5 225.5t17 87h114l-8 -26q-4 -13 -22.5 -72.5
t-21.5 -84.5l-76 -517h-158l-53 328h-8l-50 -328h-157l-78 517q-3 25 -21.5 84.5zM325 838q-13 18 -24 30t-26 27l69 52q10 -18 19 -32t22 -32q12 -16 23 -29t28 -30l-69 -51q-23 37 -42 65z" />
    <glyph glyph-name="X" unicode="X" horiz-adv-x="467" 
d="M116 183l72 187l-56 146q-20 51 -92 184h133q33 -128 50 -184l11 -37l10 37l50 184h133q-72 -133 -92 -184l-56 -146l72 -187q15 -40 101 -183h-133q-44 143 -59 183l-26 69l-27 -69q-15 -40 -59 -183h-133q86 143 101 183z" />
    <glyph glyph-name="X" unicode="x" horiz-adv-x="467" 
d="M116 183l72 187l-56 146q-20 51 -92 184h133q33 -128 50 -184l11 -37l10 37l50 184h133q-72 -133 -92 -184l-56 -146l72 -187q15 -40 101 -183h-133q-44 143 -59 183l-26 69l-27 -69q-15 -40 -59 -183h-133q86 143 101 183z" />
    <glyph glyph-name="X" unicode="x" horiz-adv-x="467" 
d="M116 183l72 187l-56 146q-20 51 -92 184h133q33 -128 50 -184l11 -37l10 37l50 184h133q-72 -133 -92 -184l-56 -146l72 -187q15 -40 101 -183h-133q-44 143 -59 183l-26 69l-27 -69q-15 -40 -59 -183h-133q86 143 101 183z" />
    <glyph glyph-name="Y" unicode="Y" horiz-adv-x="479" 
d="M194 183v88l-90 245q-19 51 -92 184h133q32 -128 50 -184l45 -136l44 136q18 56 50 184h133q-73 -133 -92 -184l-90 -245v-88q0 -40 21 -183h-133q21 143 21 183z" />
    <glyph glyph-name="Y" unicode="y" horiz-adv-x="479" 
d="M194 183v88l-90 245q-19 51 -92 184h133q32 -128 50 -184l45 -136l44 136q18 56 50 184h133q-73 -133 -92 -184l-90 -245v-88q0 -40 21 -183h-133q21 143 21 183z" />
    <glyph glyph-name="Y" unicode="y" horiz-adv-x="479" 
d="M194 183v88l-90 245q-19 51 -92 184h133q32 -128 50 -184l45 -136l44 136q18 56 50 184h133q-73 -133 -92 -184l-90 -245v-88q0 -40 21 -183h-133q21 143 21 183z" />
    <glyph glyph-name="Yacute" unicode="&#xdd;" horiz-adv-x="479" 
d="M194 183v88l-90 245q-19 51 -92 184h133q32 -128 50 -184l45 -136l44 136q18 56 50 184h133q-73 -133 -92 -184l-90 -245v-88q0 -40 21 -183h-133q21 143 21 183zM167 809l36 59q8 13 26 46l15 30q30 -32 69 -52l-22 -21q-20 -18 -40 -41l-42 -49z" />
    <glyph glyph-name="Yacute" unicode="&#xfd;" horiz-adv-x="479" 
d="M194 183v88l-90 245q-19 51 -92 184h133q32 -128 50 -184l45 -136l44 136q18 56 50 184h133q-73 -133 -92 -184l-90 -245v-88q0 -40 21 -183h-133q21 143 21 183zM167 809l36 59q8 13 26 46l15 30q30 -32 69 -52l-22 -21q-20 -18 -40 -41l-42 -49z" />
    <glyph glyph-name="Yacute" unicode="&#xfd;" horiz-adv-x="479" 
d="M194 183v88l-90 245q-19 51 -92 184h133q32 -128 50 -184l45 -136l44 136q18 56 50 184h133q-73 -133 -92 -184l-90 -245v-88q0 -40 21 -183h-133q21 143 21 183zM167 809l36 59q8 13 26 46l15 30q30 -32 69 -52l-22 -21q-20 -18 -40 -41l-42 -49z" />
    <glyph glyph-name="Ycircumflex" unicode="&#x176;" horiz-adv-x="479" 
d="M194 183v88l-90 245q-19 51 -92 184h133q32 -128 50 -184l45 -136l44 136q18 56 50 184h133q-73 -133 -92 -184l-90 -245v-88q0 -40 21 -183h-133q21 143 21 183zM145.5 857.5q11.5 11.5 25.5 27.5q16 18 25 30.5t20 30.5h47q11 -18 20 -30.5t25 -30.5q14 -16 25.5 -27.5
t29.5 -27.5l-55 -46q-22 32 -46 62q-4 4 -23 30q-12 -18 -22 -30q-24 -30 -46 -62l-55 46q18 16 29.5 27.5z" />
    <glyph glyph-name="Ycircumflex" unicode="&#x177;" horiz-adv-x="479" 
d="M194 183v88l-90 245q-19 51 -92 184h133q32 -128 50 -184l45 -136l44 136q18 56 50 184h133q-73 -133 -92 -184l-90 -245v-88q0 -40 21 -183h-133q21 143 21 183zM145.5 857.5q11.5 11.5 25.5 27.5q16 18 25 30.5t20 30.5h47q11 -18 20 -30.5t25 -30.5q14 -16 25.5 -27.5
t29.5 -27.5l-55 -46q-22 32 -46 62q-4 4 -23 30q-12 -18 -22 -30q-24 -30 -46 -62l-55 46q18 16 29.5 27.5z" />
    <glyph glyph-name="Ycircumflex" unicode="&#x177;" horiz-adv-x="479" 
d="M194 183v88l-90 245q-19 51 -92 184h133q32 -128 50 -184l45 -136l44 136q18 56 50 184h133q-73 -133 -92 -184l-90 -245v-88q0 -40 21 -183h-133q21 143 21 183zM145.5 857.5q11.5 11.5 25.5 27.5q16 18 25 30.5t20 30.5h47q11 -18 20 -30.5t25 -30.5q14 -16 25.5 -27.5
t29.5 -27.5l-55 -46q-22 32 -46 62q-4 4 -23 30q-12 -18 -22 -30q-24 -30 -46 -62l-55 46q18 16 29.5 27.5z" />
    <glyph glyph-name="Ydieresis" unicode="&#xff;" horiz-adv-x="479" 
d="M194 183v88l-90 245q-19 51 -92 184h133q32 -128 50 -184l45 -136l44 136q18 56 50 184h133q-73 -133 -92 -184l-90 -245v-88q0 -40 21 -183h-133q21 143 21 183zM271.5 828q-14.5 15 -14.5 41q0 27 14.5 41t41.5 14q26 0 40.5 -14.5t14.5 -40.5q0 -27 -14.5 -41.5
t-40.5 -14.5q-27 0 -41.5 15zM126.5 910q14.5 14 41.5 14q26 0 40.5 -14.5t14.5 -40.5q0 -27 -14.5 -41.5t-40.5 -14.5q-27 0 -41.5 15t-14.5 41q0 27 14.5 41z" />
    <glyph glyph-name="Ydieresis" unicode="&#x178;" horiz-adv-x="479" 
d="M194 183v88l-90 245q-19 51 -92 184h133q32 -128 50 -184l45 -136l44 136q18 56 50 184h133q-73 -133 -92 -184l-90 -245v-88q0 -40 21 -183h-133q21 143 21 183zM271.5 828q-14.5 15 -14.5 41q0 27 14.5 41t41.5 14q26 0 40.5 -14.5t14.5 -40.5q0 -27 -14.5 -41.5
t-40.5 -14.5q-27 0 -41.5 15zM126.5 910q14.5 14 41.5 14q26 0 40.5 -14.5t14.5 -40.5q0 -27 -14.5 -41.5t-40.5 -14.5q-27 0 -41.5 15t-14.5 41q0 27 14.5 41z" />
    <glyph glyph-name="Ydieresis" unicode="&#x178;" horiz-adv-x="479" 
d="M194 183v88l-90 245q-19 51 -92 184h133q32 -128 50 -184l45 -136l44 136q18 56 50 184h133q-73 -133 -92 -184l-90 -245v-88q0 -40 21 -183h-133q21 143 21 183zM271.5 828q-14.5 15 -14.5 41q0 27 14.5 41t41.5 14q26 0 40.5 -14.5t14.5 -40.5q0 -27 -14.5 -41.5
t-40.5 -14.5q-27 0 -41.5 15zM126.5 910q14.5 14 41.5 14q26 0 40.5 -14.5t14.5 -40.5q0 -27 -14.5 -41.5t-40.5 -14.5q-27 0 -41.5 15t-14.5 41q0 27 14.5 41z" />
    <glyph glyph-name="Ygrave" unicode="&#x1ef2;" horiz-adv-x="479" 
d="M194 183v88l-90 245q-19 51 -92 184h133q32 -128 50 -184l45 -136l44 136q18 56 50 184h133q-73 -133 -92 -184l-90 -245v-88q0 -40 21 -183h-133q21 143 21 183zM209 838q-13 18 -24 30t-26 27l69 52q10 -18 19 -32t22 -32q12 -16 23 -29t28 -30l-69 -51q-23 37 -42 65z
" />
    <glyph glyph-name="Ygrave" unicode="&#x1ef3;" horiz-adv-x="479" 
d="M194 183v88l-90 245q-19 51 -92 184h133q32 -128 50 -184l45 -136l44 136q18 56 50 184h133q-73 -133 -92 -184l-90 -245v-88q0 -40 21 -183h-133q21 143 21 183zM209 838q-13 18 -24 30t-26 27l69 52q10 -18 19 -32t22 -32q12 -16 23 -29t28 -30l-69 -51q-23 37 -42 65z
" />
    <glyph glyph-name="Ygrave" unicode="&#x1ef3;" horiz-adv-x="479" 
d="M194 183v88l-90 245q-19 51 -92 184h133q32 -128 50 -184l45 -136l44 136q18 56 50 184h133q-73 -133 -92 -184l-90 -245v-88q0 -40 21 -183h-133q21 143 21 183zM209 838q-13 18 -24 30t-26 27l69 52q10 -18 19 -32t22 -32q12 -16 23 -29t28 -30l-69 -51q-23 37 -42 65z
" />
    <glyph glyph-name="uni1EF8" unicode="&#x1ef8;" horiz-adv-x="479" 
d="M194 183v88l-90 245q-19 51 -92 184h133q32 -128 50 -184l45 -136l44 136q18 56 50 184h133q-73 -133 -92 -184l-90 -245v-88q0 -40 21 -183h-133q21 143 21 183zM253.5 780q-16.5 13 -32.5 35q-14 17 -21 23.5t-18 6.5q-19 0 -26 -13.5t-7 -43.5v-14h-44v39
q0 32 16.5 60t52.5 28q29 0 45 -12.5t32 -35.5q11 -15 19 -22.5t20 -7.5q25 0 33 14.5t8 42.5v15h44v-40q0 -31 -20 -59.5t-60 -28.5q-25 0 -41.5 13z" />
    <glyph glyph-name="uni1EF8" unicode="&#x1ef9;" horiz-adv-x="479" 
d="M194 183v88l-90 245q-19 51 -92 184h133q32 -128 50 -184l45 -136l44 136q18 56 50 184h133q-73 -133 -92 -184l-90 -245v-88q0 -40 21 -183h-133q21 143 21 183zM253.5 780q-16.5 13 -32.5 35q-14 17 -21 23.5t-18 6.5q-19 0 -26 -13.5t-7 -43.5v-14h-44v39
q0 32 16.5 60t52.5 28q29 0 45 -12.5t32 -35.5q11 -15 19 -22.5t20 -7.5q25 0 33 14.5t8 42.5v15h44v-40q0 -31 -20 -59.5t-60 -28.5q-25 0 -41.5 13z" />
    <glyph glyph-name="uni1EF8" unicode="&#x1ef9;" horiz-adv-x="479" 
d="M194 183v88l-90 245q-19 51 -92 184h133q32 -128 50 -184l45 -136l44 136q18 56 50 184h133q-73 -133 -92 -184l-90 -245v-88q0 -40 21 -183h-133q21 143 21 183zM253.5 780q-16.5 13 -32.5 35q-14 17 -21 23.5t-18 6.5q-19 0 -26 -13.5t-7 -43.5v-14h-44v39
q0 32 16.5 60t52.5 28q29 0 45 -12.5t32 -35.5q11 -15 19 -22.5t20 -7.5q25 0 33 14.5t8 42.5v15h44v-40q0 -31 -20 -59.5t-60 -28.5q-25 0 -41.5 13z" />
    <glyph glyph-name="Z" unicode="Z" horiz-adv-x="449" 
d="M106 183l128 333q12 32 30 88q-56 2 -80 2q-64 0 -139 -6l22 100h360q-78 -133 -98 -184l-128 -333q-7 -17 -25 -85q74 -9 130 -9q65 0 128 7l-20 -96h-399q76 143 91 183z" />
    <glyph glyph-name="Z" unicode="z" horiz-adv-x="449" 
d="M106 183l128 333q12 32 30 88q-56 2 -80 2q-64 0 -139 -6l22 100h360q-78 -133 -98 -184l-128 -333q-7 -17 -25 -85q74 -9 130 -9q65 0 128 7l-20 -96h-399q76 143 91 183z" />
    <glyph glyph-name="Z" unicode="z" horiz-adv-x="449" 
d="M106 183l128 333q12 32 30 88q-56 2 -80 2q-64 0 -139 -6l22 100h360q-78 -133 -98 -184l-128 -333q-7 -17 -25 -85q74 -9 130 -9q65 0 128 7l-20 -96h-399q76 143 91 183z" />
    <glyph glyph-name="Zacute" unicode="&#x179;" horiz-adv-x="449" 
d="M106 183l128 333q12 32 30 88q-56 2 -80 2q-64 0 -139 -6l22 100h360q-78 -133 -98 -184l-128 -333q-7 -17 -25 -85q74 -9 130 -9q65 0 128 7l-20 -96h-399q76 143 91 183zM151 809l36 59q8 13 26 46l15 30q30 -32 69 -52l-22 -21q-20 -18 -40 -41l-42 -49z" />
    <glyph glyph-name="Zacute" unicode="&#x17a;" horiz-adv-x="449" 
d="M106 183l128 333q12 32 30 88q-56 2 -80 2q-64 0 -139 -6l22 100h360q-78 -133 -98 -184l-128 -333q-7 -17 -25 -85q74 -9 130 -9q65 0 128 7l-20 -96h-399q76 143 91 183zM151 809l36 59q8 13 26 46l15 30q30 -32 69 -52l-22 -21q-20 -18 -40 -41l-42 -49z" />
    <glyph glyph-name="Zacute" unicode="&#x17a;" horiz-adv-x="449" 
d="M106 183l128 333q12 32 30 88q-56 2 -80 2q-64 0 -139 -6l22 100h360q-78 -133 -98 -184l-128 -333q-7 -17 -25 -85q74 -9 130 -9q65 0 128 7l-20 -96h-399q76 143 91 183zM151 809l36 59q8 13 26 46l15 30q30 -32 69 -52l-22 -21q-20 -18 -40 -41l-42 -49z" />
    <glyph glyph-name="Zcaron" unicode="&#x17d;" horiz-adv-x="449" 
d="M106 183l128 333q12 32 30 88q-56 2 -80 2q-64 0 -139 -6l22 100h360q-78 -133 -98 -184l-128 -333q-7 -17 -25 -85q74 -9 130 -9q65 0 128 7l-20 -96h-399q76 143 91 183zM177 806.5q-10 12.5 -25 30.5q-16 18 -28 29.5t-32 27.5l56 33q24 -34 49 -64l27 -28l27 28
q25 31 48 64l56 -33q-20 -16 -32 -27.5t-28 -29.5q-15 -18 -25 -30.5t-22 -33.5q-13 3 -26 3q-11 0 -23 -3q-12 21 -22 33.5z" />
    <glyph glyph-name="Zcaron" unicode="&#x17e;" horiz-adv-x="449" 
d="M106 183l128 333q12 32 30 88q-56 2 -80 2q-64 0 -139 -6l22 100h360q-78 -133 -98 -184l-128 -333q-7 -17 -25 -85q74 -9 130 -9q65 0 128 7l-20 -96h-399q76 143 91 183zM177 806.5q-10 12.5 -25 30.5q-16 18 -28 29.5t-32 27.5l56 33q24 -34 49 -64l27 -28l27 28
q25 31 48 64l56 -33q-20 -16 -32 -27.5t-28 -29.5q-15 -18 -25 -30.5t-22 -33.5q-13 3 -26 3q-11 0 -23 -3q-12 21 -22 33.5z" />
    <glyph glyph-name="Zcaron" unicode="&#x17e;" horiz-adv-x="449" 
d="M106 183l128 333q12 32 30 88q-56 2 -80 2q-64 0 -139 -6l22 100h360q-78 -133 -98 -184l-128 -333q-7 -17 -25 -85q74 -9 130 -9q65 0 128 7l-20 -96h-399q76 143 91 183zM177 806.5q-10 12.5 -25 30.5q-16 18 -28 29.5t-32 27.5l56 33q24 -34 49 -64l27 -28l27 28
q25 31 48 64l56 -33q-20 -16 -32 -27.5t-28 -29.5q-15 -18 -25 -30.5t-22 -33.5q-13 3 -26 3q-11 0 -23 -3q-12 21 -22 33.5z" />
    <glyph glyph-name="Zdotaccent" unicode="&#x17b;" horiz-adv-x="449" 
d="M106 183l128 333q12 32 30 88q-56 2 -80 2q-64 0 -139 -6l22 100h360q-78 -133 -98 -184l-128 -333q-7 -17 -25 -85q74 -9 130 -9q65 0 128 7l-20 -96h-399q76 143 91 183zM182.5 910q14.5 14 41.5 14q26 0 40.5 -14.5t14.5 -40.5q0 -27 -14.5 -41.5t-40.5 -14.5
q-27 0 -41.5 15t-14.5 41q0 27 14.5 41z" />
    <glyph glyph-name="Zdotaccent" unicode="&#x17c;" horiz-adv-x="449" 
d="M106 183l128 333q12 32 30 88q-56 2 -80 2q-64 0 -139 -6l22 100h360q-78 -133 -98 -184l-128 -333q-7 -17 -25 -85q74 -9 130 -9q65 0 128 7l-20 -96h-399q76 143 91 183zM182.5 910q14.5 14 41.5 14q26 0 40.5 -14.5t14.5 -40.5q0 -27 -14.5 -41.5t-40.5 -14.5
q-27 0 -41.5 15t-14.5 41q0 27 14.5 41z" />
    <glyph glyph-name="Zdotaccent" unicode="&#x17c;" horiz-adv-x="449" 
d="M106 183l128 333q12 32 30 88q-56 2 -80 2q-64 0 -139 -6l22 100h360q-78 -133 -98 -184l-128 -333q-7 -17 -25 -85q74 -9 130 -9q65 0 128 7l-20 -96h-399q76 143 91 183zM182.5 910q14.5 14 41.5 14q26 0 40.5 -14.5t14.5 -40.5q0 -27 -14.5 -41.5t-40.5 -14.5
q-27 0 -41.5 15t-14.5 41q0 27 14.5 41z" />
    <glyph glyph-name="uni013B.loclMAH" horiz-adv-x="376" 
d="M62 183v333q0 55 -18 184h126q-17 -133 -17 -184v-333q0 -13 6 -71l3 -28q50 -3 98 -3q60 0 102 5l-20 -86h-298q18 143 18 183zM132 -196l9 21q17 34 30 69l22 61l49 -11l-12 -68q-8 -37 -15 -96q-37 18 -83 24z" />
    <glyph glyph-name="uni0145.loclMAH" horiz-adv-x="516" 
d="M62 183v333q0 55 -18 184h130l204 -530l-15 346q-3 55 -15 184h124q-18 -133 -18 -184v-333q0 -40 18 -183h-127l-200 529l8 -346q1 -40 15 -183h-122q16 143 16 183zM208 -196l9 21q17 34 30 69l22 61l49 -11l-12 -68q-8 -37 -15 -96q-37 18 -83 24z" />
    <glyph glyph-name="dotlessi" unicode="&#x131;" horiz-adv-x="215" 
d="M62 183v333q0 55 -18 184h127q-18 -133 -18 -184v-333q0 -40 18 -183h-127q18 143 18 183z" />
    <glyph glyph-name="i.loclTRK" horiz-adv-x="215" 
d="M62 183v333q0 55 -18 184h127q-18 -133 -18 -184v-333q0 -40 18 -183h-127q18 143 18 183zM66.5 910q14.5 14 41.5 14q26 0 40.5 -14.5t14.5 -40.5q0 -27 -14.5 -41.5t-40.5 -14.5q-27 0 -41.5 15t-14.5 41q0 27 14.5 41z" />
    <glyph glyph-name="zero" unicode="0" horiz-adv-x="444" 
d="M85.5 42q-45.5 57 -45.5 170v272q0 112 46 171.5t136 59.5t136 -59.5t46 -171.5v-272q0 -113 -45.5 -170t-136.5 -57t-136.5 57zM151 93q25 -33 71 -33q44 0 69 30t27 84l-191 235l-1 -225q0 -58 25 -91zM318 290l-1 226q0 57 -24.5 89.5t-70.5 32.5q-45 0 -69.5 -31
t-25.5 -87z" />
    <glyph glyph-name="one" unicode="1" horiz-adv-x="275" 
d="M119 183v396l-89 -20v70q32 9 53 25.5t36 45.5h112q-21 -129 -21 -184v-333q0 -40 21 -183h-133q21 143 21 183z" />
    <glyph glyph-name="two" unicode="2" horiz-adv-x="366" 
d="M67.5 179q33.5 84 94.5 149q34 37 50.5 64t22 54t5.5 69q0 59 -17.5 84t-53.5 25q-34 0 -46.5 -36t-12.5 -74q-28 4 -55 4q-23 0 -40 -3q0 89 41 144t119 55q77 0 119.5 -52.5t42.5 -138.5q-1 -54 -11.5 -90t-29.5 -64.5t-55 -69.5q-38 -44 -61.5 -102t-27.5 -104
q33 -3 71 -3q74 0 128 6l-20 -96h-297q0 95 33.5 179z" />
    <glyph glyph-name="three" unicode="3" horiz-adv-x="383" 
d="M232.5 307.5q-14.5 23.5 -43.5 23.5q-25 0 -48 -5v101q12 -3 29 -3q40 0 60 16t20 59v31q0 50 -19 72t-54 22q-32 0 -46.5 -25.5t-10.5 -52.5q-28 4 -55 4q-23 0 -40 -3q1 41 19 79.5t54 63t87 24.5q77 0 117 -42.5t40 -119.5v-36q0 -47 -20 -81.5t-48 -52.5
q30 -22 45.5 -46t21.5 -61.5t6 -104.5q0 -87 -40.5 -132.5t-120.5 -45.5q-51 0 -87 23t-54 60t-19 78q17 -3 40 -3q27 0 55 4q-4 -26 10.5 -49t46.5 -23q36 0 54.5 19.5t18.5 68.5l-2 64q-2 50 -16.5 73.5z" />
    <glyph glyph-name="four" unicode="4" horiz-adv-x="405" 
d="M332 175h-22q2 -47 21 -175h-133q19 128 21 175h-203v82q68 163 90 242q24 78 56 201h169q-21 -129 -21 -184v-260h22q15 0 37 5v-91q-26 5 -37 5zM219 256v369q-68 -256 -101 -369h101z" />
    <glyph glyph-name="five" unicode="5" horiz-adv-x="390" 
d="M82.5 20.5q-34.5 34.5 -42.5 77.5t-8 98q18 -2 49 -2q30 0 50 2q0 -59 13.5 -89.5t47.5 -30.5q35 0 52 34t17 117l1 44q0 47 -20 80q-16 25 -48 25q-35 0 -70 -28l-82 -4l13 172l1 23q0 60 -12 161h299l-20 -86q-42 5 -98 5q-37 0 -76 -3l-10 -100l-9 -105q42 36 88 36
q30 0 56 -13q80 -38 80 -196q0 -67 -10 -120.5t-46.5 -92.5t-108.5 -39t-106.5 34.5z" />
    <glyph glyph-name="six" unicode="6" horiz-adv-x="391" 
d="M82 30.5q-41 45.5 -41 121.5l-1 400q0 156 151 156q51 0 87 -23t54 -60t19 -78q-17 3 -40 3q-27 0 -55 -4q4 26 -10.5 49t-46.5 23q-36 0 -55 -19.5t-19 -68.5v-121q22 17 54 28t66 11q25 0 42 -5q72 -19 72 -127v-166q-2 -41 -20 -79t-54 -62t-88 -24q-74 0 -115 45.5z
M146 102q20 -23 55 -23q30 0 47 23t16 48v159q0 62 -58 62q-31 0 -53 -11t-27 -36v-156q0 -43 20 -66z" />
    <glyph glyph-name="seven" unicode="7" horiz-adv-x="401" 
d="M148 134q4 84 15 160q8 57 36.5 147t61.5 170q-8 0 -28 -0.5t-68 -0.5q-64 0 -151 -10l22 100h347q-40 -78 -72 -153t-41 -120q-15 -79 -18 -107t-4 -88l-1 -49q-1 -40 20 -183h-130q7 60 11 134z" />
    <glyph glyph-name="eight" unicode="8" horiz-adv-x="423" 
d="M110 9q-40 24 -59 58t-19 62v141q0 40 20 71t57 48q-28 15 -42.5 38.5t-14.5 52.5v106q0 28 17 58t52 50.5t88 20.5q55 0 91.5 -20.5t53 -50.5t16.5 -58v-106q0 -61 -56 -91q38 -17 57.5 -48t19.5 -71v-141q0 -28 -19 -62t-60 -58t-103 -24q-59 0 -99 24zM145 98
q21 -33 63 -33q47 0 69.5 32.5t22.5 77.5v95q0 30 -21.5 58t-66.5 28q-44 0 -66 -28t-22 -58v-95q0 -44 21 -77zM153 432.5q19 -22.5 59 -22.5q41 0 59.5 22.5t18.5 47.5v89q0 34 -20.5 57.5t-61.5 23.5q-37 0 -55.5 -23.5t-18.5 -57.5v-89q0 -25 19 -47.5z" />
    <glyph glyph-name="nine" unicode="9" horiz-adv-x="391" 
d="M113 11q-36 25 -54 63.5t-19 79.5q17 -3 40 -3q27 0 55 4q-4 -27 10.5 -53t46.5 -26q74 0 74 95v121q-35 -27 -87 -27q-26 0 -53 7q-44 11 -67.5 49.5t-26.5 77.5v152q2 41 20.5 78.5t54.5 61.5t87 24q76 0 116 -44.5t40 -121.5l1 -400q0 -78 -37 -120.5t-114 -42.5
q-51 0 -87 25zM192 344q31 0 49.5 6t23.5 27v192q0 30 -19 49.5t-52 19.5q-32 0 -49.5 -19.5t-17.5 -49.5v-163q0 -62 65 -62z" />
    <glyph glyph-name="period" unicode="." horiz-adv-x="157" 
d="M35.5 10.5q-15.5 15.5 -15.5 43.5t15.5 43t43.5 15t43 -15.5t15 -42.5q0 -28 -15.5 -43.5t-42.5 -15.5q-28 0 -43.5 15.5z" />
    <glyph glyph-name="comma" unicode="," horiz-adv-x="191" 
d="M65.5 47.5q3.5 20.5 9.5 70.5l96 -27q-19 -33 -26 -48t-18 -45l-10 -26q-7 -19 -8 -22q-13 -30 -27 -84h-62l31 118q11 43 14.5 63.5z" />
    <glyph glyph-name="colon" unicode=":" horiz-adv-x="157" 
d="M35.5 398.5q-15.5 15.5 -15.5 43.5t15.5 43t43.5 15t43 -15.5t15 -42.5q0 -28 -15.5 -43.5t-42.5 -15.5q-28 0 -43.5 15.5zM35.5 97q15.5 15 43.5 15t43 -15.5t15 -42.5q0 -28 -15.5 -43.5t-42.5 -15.5q-28 0 -43.5 15.5t-15.5 43.5t15.5 43z" />
    <glyph glyph-name="semicolon" unicode=";" horiz-adv-x="191" 
d="M65.5 47.5q3.5 20.5 9.5 70.5l96 -27q-19 -33 -26 -48t-18 -45l-10 -26q-7 -19 -8 -22q-13 -30 -27 -84h-62l31 118q11 43 14.5 63.5zM67.5 485q15.5 15 43.5 15t43 -15.5t15 -42.5q0 -28 -15.5 -43.5t-42.5 -15.5q-28 0 -43.5 15.5t-15.5 43.5t15.5 43z" />
    <glyph glyph-name="ellipsis" unicode="&#x2026;" horiz-adv-x="157" 
d="M35.5 10.5q-15.5 15.5 -15.5 43.5t15.5 43t43.5 15t43 -15.5t15 -42.5q0 -28 -15.5 -43.5t-42.5 -15.5q-28 0 -43.5 15.5z" />
    <glyph glyph-name="exclam" unicode="!" horiz-adv-x="173" 
d="M41 524q0 55 -21 184h133q-21 -133 -21 -184q0 -86 -4 -336h-82q-5 250 -5 336zM42.5 97q15.5 15 43.5 15t43 -15.5t15 -42.5q0 -28 -15.5 -43.5t-42.5 -15.5q-28 0 -43.5 15.5t-15.5 43.5t15.5 43z" />
    <glyph glyph-name="exclamdown" unicode="&#xa1;" horiz-adv-x="173" 
d="M41 8q0 86 5 346h82q4 -260 4 -346q0 -51 21 -184h-133q21 129 21 184zM42.5 521.5q15.5 15.5 43.5 15.5q27 0 42.5 -15.5t15.5 -43.5q0 -27 -15 -42.5t-43 -15.5t-43.5 15t-15.5 43t15.5 43.5z" />
    <glyph glyph-name="question" unicode="?" horiz-adv-x="358" 
d="M165 395q16 34 44 72q20 28 29 45t9 38q0 75 -63 75q-30 0 -47.5 -27.5t-17.5 -54.5q-22 4 -47 4q-23 0 -52 -3q0 41 17.5 80.5t53.5 65t87 25.5q72 0 116 -46t44 -121q0 -31 -13 -54.5t-40 -55.5q-30 -36 -45 -63.5t-15 -67.5v-109h-76v114q0 49 16 83zM143.5 97
q15.5 15 43.5 15t43 -15.5t15 -42.5q0 -28 -15.5 -43.5t-42.5 -15.5q-28 0 -43.5 15.5t-15.5 43.5t15.5 43z" />
    <glyph glyph-name="questiondown" unicode="&#xbf;" horiz-adv-x="358" 
d="M64 -132q-44 46 -44 121q0 31 13 54.5t40 55.5q30 36 45 63.5t15 67.5v89q26 -4 39 -4t37 4v-94q0 -49 -15.5 -83.5t-44.5 -73.5q-20 -29 -29 -46.5t-9 -37.5q0 -36 20.5 -53.5t48.5 -17.5q32 0 45.5 25.5t13.5 55.5q22 -4 47 -4q23 0 52 3q0 -41 -17.5 -80.5t-53.5 -65
t-87 -25.5q-72 0 -116 46zM128.5 526.5q15.5 15.5 42.5 15.5q28 0 43.5 -15.5t15.5 -43.5t-15.5 -43t-43.5 -15t-43 15.5t-15 42.5q0 28 15.5 43.5z" />
    <glyph glyph-name="periodcentered" unicode="&#xb7;" horiz-adv-x="157" 
d="M35.5 205.5q-15.5 15.5 -15.5 43.5t15.5 43t43.5 15t43 -15.5t15 -42.5q0 -28 -15.5 -43.5t-42.5 -15.5q-28 0 -43.5 15.5z" />
    <glyph glyph-name="bullet" unicode="&#x2022;" horiz-adv-x="289" 
d="M53 187q-33 33 -33 93t33 91.5t93 31.5q58 0 90.5 -33t32.5 -90q0 -60 -32.5 -93t-90.5 -33q-60 0 -93 33z" />
    <glyph glyph-name="asterisk" unicode="*" horiz-adv-x="314" 
d="M123 470q2 22 2 33l-23 -16l-44 -30l-38 66l74 36l-45 21l-29 14l37 66l69 -47l-7 82h76l-7 -82l25 17q16 12 43 30l38 -66q-39 -19 -45 -21l-29 -14l74 -36l-37 -66q-16 11 -49 33l-19 13q0 -8 2 -30q1 -8 2 -20t2 -31h-76q2 33 4 48z" />
    <glyph glyph-name="numbersign" unicode="#" horiz-adv-x="651" 
d="M359 183l5 21h-148q-4 -14 -5 -21q-9 -40 -20 -183h-143q53 143 62 183l4 19l-94 -3v86l111 -3q-4 -16 17 75l19 86l-105 -3v86l122 -4q10 55 18 178h143q-47 -122 -60 -179h147q10 54 19 179h143q-46 -120 -60 -177l97 3v-86l-115 3l-9 -44q-6 -27 -12.5 -56.5
t-13.5 -60.5q39 0 108 3v-86l-125 4l-4 -20q-9 -40 -20 -183h-143q53 143 62 183zM380 280l36 165h-148l-36 -165h148z" />
    <glyph glyph-name="slash" unicode="/" horiz-adv-x="399" 
d="M98 138l17 67q50 200 86 335q15 62 35 222h143q-61 -155 -77 -222q-36 -135 -86 -335l-17 -67q-12 -48 -36 -220h-143q66 173 78 220z" />
    <glyph glyph-name="backslash" unicode="\" horiz-adv-x="399" 
d="M200 138l-17 67q-50 200 -86 335q-16 67 -77 222h143q20 -160 35 -222q36 -135 86 -335l17 -67q12 -47 78 -220h-143q-24 173 -36 220z" />
    <glyph glyph-name="hyphen" unicode="-" horiz-adv-x="263" 
d="M74 388q24 -1 56 -1q30 0 54 1t59 4v-86q-33 3 -57 4t-56 1q-31 0 -55 -1t-55 -4v86q30 -3 54 -4z" />
    <glyph glyph-name="endash" unicode="&#x2013;" horiz-adv-x="461" 
d="M67.5 392q18.5 -1 29.5 -2q65 -5 132 -5q44 0 130 4q8 1 82 5v-90q10 0 -80 4q-80 4 -132 4q-53 0 -133 -4q-12 -1 -30 -2t-46 -2v90q29 -1 47.5 -2z" />
    <glyph glyph-name="emdash" unicode="&#x2014;" horiz-adv-x="873" 
d="M194 387q134 -6 240 -6q86 0 222 6q154 6 197 7v-99q-120 3 -189 7q-128 6 -230 6q-103 0 -233 -6q-68 -4 -181 -7v99q107 -3 174 -7z" />
    <glyph glyph-name="underscore" unicode="_" horiz-adv-x="461" 
d="M67.5 -35q18.5 -1 29.5 -2q65 -5 132 -5q44 0 130 4q8 1 82 5v-90q10 0 -80 4q-80 4 -132 4q-53 0 -133 -4q-12 -1 -30 -2t-46 -2v90q29 -1 47.5 -2z" />
    <glyph glyph-name="parenleft" unicode="(" horiz-adv-x="257" 
d="M82.5 40q-41.5 55 -54.5 172q-8 74 -8 139q0 64 8 133q12 102 55 156.5t129 54.5h25v-77h-25q-49 0 -73 -32t-24 -90l-1 -312q0 -58 26 -90.5t72 -32.5h25v-76h-25q-88 0 -129.5 55z" />
    <glyph glyph-name="parenright" unicode=")" horiz-adv-x="256" 
d="M20 61h25q46 0 72 32.5t26 90.5l-1 312q0 58 -24 90t-73 32h-25v77h25q87 0 129.5 -57.5t54.5 -173.5q7 -64 7 -129q0 -63 -7 -123q-13 -117 -54.5 -172t-129.5 -55h-25v76z" />
    <glyph glyph-name="braceleft" unicode="{" horiz-adv-x="314" 
d="M132 -60.5q-39 25.5 -43 85.5q-1 24 -1 59q0 19 3 73q3 24 3 52q0 36 -19.5 52t-54.5 21v108q35 5 54.5 21t19.5 50q0 29 -3 53q-3 54 -3 73q0 36 1 60q4 60 43 85.5t91 22.5l71 -3l-2 -72l-26 1q-10 1 -27 1q-35 0 -50 -11.5t-16 -39.5q-1 -24 1 -65q2 -38 2 -68
q0 -34 -1 -57q-1 -71 -68 -105q30 -15 48.5 -42t19.5 -64q1 -22 1 -57q0 -32 -2 -66q-2 -42 -1 -66q1 -28 16 -39.5t50 -11.5q17 0 27 1l26 1l2 -72l-71 -3q-52 -3 -91 22.5z" />
    <glyph glyph-name="braceright" unicode="}" horiz-adv-x="314" 
d="M20 -80l2 72l26 -1q10 -1 27 -1q35 0 50 11.5t16 39.5q1 24 -1 66q-2 34 -2 66q0 35 1 57q1 37 19.5 64t48.5 42q-67 34 -68 105q-1 23 -1 57q0 30 2 68q2 41 1 65q-1 28 -16 39.5t-50 11.5q-17 0 -27 -1l-26 -1l-2 72l71 3q52 3 91 -22.5t43 -85.5q1 -24 1 -59
q0 -19 -3 -73q-3 -24 -3 -52q0 -36 19.5 -52t54.5 -21v-108q-35 -5 -54.5 -21t-19.5 -50q0 -29 3 -53q3 -54 3 -73q0 -36 -1 -60q-4 -60 -43 -85.5t-91 -22.5z" />
    <glyph glyph-name="bracketleft" unicode="[" horiz-adv-x="342" 
d="M41 141v399q0 66 -21 220h283l-20 -86q-22 3 -39 4t-39 1q-27 0 -46.5 -2t-26.5 -3v-668q39 -4 82 -4q54 0 108 6l-20 -87h-282q21 172 21 220z" />
    <glyph glyph-name="bracketright" unicode="]" horiz-adv-x="342" 
d="M128 2q43 0 82 4v668q-7 1 -26.5 3t-46.5 2q-22 0 -39 -1t-39 -4l-20 86h283q-21 -154 -21 -220v-399q0 -48 21 -220h-282l-20 87q54 -6 108 -6z" />
    <glyph glyph-name="quotesinglbase" unicode="&#x201a;" horiz-adv-x="191" 
d="M65.5 47.5q3.5 20.5 9.5 70.5l96 -27q-19 -33 -26 -48t-18 -45l-10 -26q-7 -19 -8 -22q-13 -30 -27 -84h-62l31 118q11 43 14.5 63.5z" />
    <glyph glyph-name="quotedblbase" unicode="&#x201e;" horiz-adv-x="191" 
d="M65.5 47.5q3.5 20.5 9.5 70.5l96 -27q-19 -33 -26 -48t-18 -45l-10 -26q-7 -19 -8 -22q-13 -30 -27 -84h-62l31 118q11 43 14.5 63.5z" />
    <glyph glyph-name="quotedblleft" unicode="&#x201c;" horiz-adv-x="323" 
d="M176 511q7 15 18 45l10 26q7 18 19 60q3 11 8 28t13 43l59 -15l-33 -128q-10 -41 -13.5 -60.5t-9.5 -73.5l-97 27q19 33 26 48zM46 523q7 15 18 45l10 26q7 18 19 60q3 11 8 28t13 43l59 -15l-33 -128q-10 -41 -13.5 -60.5t-9.5 -73.5l-97 27q19 33 26 48z" />
    <glyph glyph-name="quotedblright" unicode="&#x201d;" horiz-adv-x="323" 
d="M150 451l33 128q10 41 13.5 60.5t9.5 73.5l97 -27q-19 -33 -26 -48t-18 -45l-10 -26q-7 -18 -19 -60q-3 -11 -8 -28t-13 -43zM53 591q10 41 13.5 60.5t9.5 73.5l97 -27q-19 -33 -26 -48t-18 -45l-10 -26q-7 -18 -19 -60q-3 -11 -8 -28t-13 -43l-59 15z" />
    <glyph glyph-name="quoteleft" unicode="&#x2018;" horiz-adv-x="193" 
d="M46 523q7 15 18 45l10 26q7 18 19 60q3 11 8 28t13 43l59 -15l-33 -128q-10 -41 -13.5 -60.5t-9.5 -73.5l-97 27q19 33 26 48z" />
    <glyph glyph-name="quoteright" unicode="&#x2019;" horiz-adv-x="193" 
d="M20 451l33 128q10 41 13.5 60.5t9.5 73.5l97 -27q-19 -33 -26 -48t-18 -45l-10 -26q-7 -18 -19 -60q-3 -11 -8 -28t-13 -43z" />
    <glyph glyph-name="guillemotleft" unicode="&#xab;" horiz-adv-x="473" 
d="M150.5 171q-11.5 17 -39.5 52q-26 33 -41 48t-50 49q35 34 50 49t41 48q28 35 39.5 52t37.5 59l77 -64q-51 -53 -92 -98l-17 -22l-18 -24l13 -17l23 -28q25 -30 44.5 -50.5t46.5 -48.5l-77 -64q-26 42 -37.5 59zM258 369q15 15 41 48q28 35 39.5 52t37.5 59l77 -64
q-27 -28 -46.5 -48.5t-44.5 -50.5q-22 -26 -35 -45q13 -19 35 -45q25 -30 44.5 -50.5t46.5 -48.5l-77 -64q-26 42 -37.5 59t-39.5 52q-26 33 -41 48t-50 49q35 34 50 49z" />
    <glyph glyph-name="guillemotright" unicode="&#xbb;" horiz-adv-x="473" 
d="M66.5 224.5q19.5 20.5 44.5 50.5q22 26 35 45q-13 19 -35 45q-25 30 -44.5 50.5t-46.5 48.5l77 64q26 -42 37.5 -59t39.5 -52q26 -33 41 -48t50 -49q-35 -34 -50 -49t-41 -48q-28 -35 -39.5 -52t-37.5 -59l-77 64q27 28 46.5 48.5zM254.5 224.5q19.5 20.5 44.5 50.5
l23 28l13 17l-18 24l-17 22q-41 45 -92 98l77 64q26 -42 37.5 -59t39.5 -52q26 -33 41 -48t50 -49q-35 -34 -50 -49t-41 -48q-28 -35 -39.5 -52t-37.5 -59l-77 64q27 28 46.5 48.5z" />
    <glyph glyph-name="guilsinglleft" unicode="&#x2039;" horiz-adv-x="285" 
d="M150.5 115q-11.5 17 -39.5 52q-26 33 -41 48t-50 49q35 34 50 49t41 48q28 35 39.5 52t37.5 59l77 -64q-51 -53 -92 -98l-17 -22l-18 -24l13 -17l23 -28q25 -30 44.5 -50.5t46.5 -48.5l-77 -64q-26 42 -37.5 59z" />
    <glyph glyph-name="guilsinglright" unicode="&#x203a;" horiz-adv-x="285" 
d="M66.5 168.5q19.5 20.5 44.5 50.5l23 28l13 17l-18 24l-17 22q-41 45 -92 98l77 64q26 -42 37.5 -59t39.5 -52q26 -33 41 -48t50 -49q-35 -34 -50 -49t-41 -48q-28 -35 -39.5 -52t-37.5 -59l-77 64q27 28 46.5 48.5z" />
    <glyph glyph-name="quotedbl" unicode="&#x22;" horiz-adv-x="267" 
d="M156.5 633q-1.5 20 -9.5 72l100 -1q-10 -38 -13 -54.5t-5 -40.5t-3 -34q-3 -32 -3 -127h-64v122q-1 43 -2.5 63zM120 704q-10 -38 -13 -54.5t-5 -40.5t-3 -34q-3 -32 -3 -127h-64v122q-1 43 -2.5 63t-9.5 72z" />
    <glyph glyph-name="quotesingle" unicode="'" horiz-adv-x="140" 
d="M29.5 633q-1.5 20 -9.5 72l100 -1q-10 -38 -13 -54.5t-5 -40.5t-3 -34q-3 -32 -3 -127h-64v122q-1 43 -2.5 63z" />
    <glyph glyph-name="at" unicode="@" horiz-adv-x="786" 
d="M120 41.5q-100 104.5 -100 292.5q0 191 101 289.5t287 98.5q182 0 270 -101.5t88 -286.5q0 -112 -20 -163t-51 -63t-88 -12q-62 0 -96 38q-46 -42 -131 -42q-98 0 -146 54.5t-48 163.5v40q0 112 48 167.5t146 55.5q71 0 105 -31v23h90v-236q0 -75 5 -107.5t18 -43
t43 -13.5q22 3 33 17t15 48.5t5 103.5q0 160 -68.5 244t-217.5 84q-160 0 -236.5 -79t-76.5 -249q0 -161 79.5 -249t233.5 -88l34 1l6 -60l-40 -1q-188 0 -288 104.5zM300.5 196.5q28.5 -31.5 79.5 -31.5q44 0 71 23.5t34 66.5v143q-5 47 -32 74t-73 27q-50 0 -77.5 -31.5
t-28.5 -86.5l-1 -98q-1 -55 27.5 -86.5z" />
    <glyph glyph-name="ampersand" unicode="&#x26;" horiz-adv-x="653" 
d="M132 10.5q-52 25.5 -82 70t-30 98.5v91q0 25 13 53.5t33 51t39 30.5q-28 17 -46.5 49.5t-18.5 62.5v69q0 28 17 58t52 50.5t88 20.5q55 0 91.5 -20.5t53 -50.5t16.5 -58v-14q-21 3 -42 3q-19 0 -39 -3q-3 32 -24 55t-57 23q-37 0 -55.5 -23t-18.5 -57v-24
q0 -46 67 -121.5t183 -184.5q12 -12 24 -23t22 -21q14 21 20 32l15 23q7 11 13.5 27.5t9.5 22.5l72 -57q-4 -3 -14.5 -11t-19.5 -17.5t-18 -22.5l-16.5 -22t-13.5 -17l167 -154h-111l-100 84q-32 -39 -50 -56.5t-48.5 -30t-76.5 -12.5q-63 0 -115 25.5zM132.5 117
q20.5 -23 52 -37.5t61.5 -14.5q35 0 56 7t34 19t36 39l-217 218q-26 -9 -34.5 -36.5t-8.5 -71.5v-75q0 -25 20.5 -48z" />
    <glyph glyph-name="paragraph" unicode="&#xb6;" horiz-adv-x="529" 
d="M397 147v397q0 65 -21 218h133q-21 -158 -21 -218v-397q0 -47 21 -218h-133q21 171 21 218zM45.5 667.5q25.5 43.5 69 69t94.5 25.5h112q-21 -158 -21 -218v-397q0 -47 21 -218h-133q21 171 21 218v238q-51 0 -94.5 25.5t-69 68.5t-25.5 94t25.5 94.5z" />
    <glyph glyph-name="section" unicode="&#xa7;" horiz-adv-x="391" 
d="M99.5 -10.5q-39.5 19.5 -58.5 50t-18 62.5q33 -2 59 -2q28 0 52 3q-2 -12 5 -27t22.5 -25.5t37.5 -10.5q21 0 38.5 14.5t18.5 44.5q0 27 -30.5 57t-77.5 56q-66 35 -97 71.5t-31 82.5q0 39 23.5 67t54.5 45q-73 54 -73 110q0 61 41 96t120 35q58 0 97.5 -19.5t58.5 -50
t18 -62.5q-33 2 -59 2q-28 0 -52 -3q2 12 -5 27t-22.5 25.5t-37.5 10.5q-21 0 -38.5 -14.5t-18.5 -44.5q0 -27 30.5 -57t77.5 -56q66 -36 101 -75t35 -84q0 -30 -8.5 -53.5t-18.5 -37.5t-28 -37q52 -43 52 -91q-2 -59 -47 -94t-124 -35q-58 0 -97.5 19.5zM119 401
q-15 -16 -15 -36q0 -46 98 -103l48 -28q18 20 29.5 43.5t8.5 47.5q-4 27 -38.5 54.5t-68.5 47.5l-19 11q-28 -21 -43 -37z" />
    <glyph glyph-name="copyright" unicode="&#xa9;" horiz-adv-x="825" 
d="M200.5 -15.5q-88.5 47.5 -134.5 136.5t-46 213q0 190 103.5 289t290.5 99q124 0 211.5 -47t133.5 -134.5t46 -206.5q0 -125 -47 -214.5t-135 -136t-209 -46.5q-125 0 -213.5 47.5zM177 85.5q82 -88.5 237 -88.5q154 0 235 85t81 252q0 155 -82 241.5t-234 86.5
q-161 0 -240 -79.5t-79 -248.5q0 -160 82 -248.5zM221 350q5 113 51 168t143 55q85 0 131 -44t62 -131q-14 2 -44 2q-29 0 -44 -2q-5 47 -32 74t-73 27q-50 0 -77.5 -31.5t-28.5 -86.5l-1 -98q-1 -56 27.5 -87.5t79.5 -31.5q44 0 71 24t34 67q20 -4 45 -4q24 0 41 4
q-19 -83 -63 -123t-128 -40q-98 0 -146 54.5t-48 163.5v40z" />
    <glyph glyph-name="registered" unicode="&#xae;" horiz-adv-x="502" 
d="M80.5 351.5q-60.5 61.5 -60.5 171.5q0 112 61 170.5t171 58.5q109 0 169.5 -61t60.5 -168q0 -110 -61 -171.5t-169 -61.5q-111 0 -171.5 61.5zM124 389q45 -48 128 -48t126.5 46.5t43.5 135.5q0 84 -44 131t-126 47q-87 0 -130 -43.5t-43 -134.5q0 -86 45 -134zM187 484
v95q0 15 -9 73h52q42 0 70 -13t28 -61v-10q0 -51 -39 -67q13 -15 19 -26.5t11 -33.5q7 -24 13 -39h-55q-3 48 -10.5 67t-29.5 25h-7v-10q0 -18 9 -82h-61q9 64 9 82zM274 536q11 9 11 32v10q0 23 -11 31.5t-44 8.5v-91q33 0 44 9z" />
    <glyph glyph-name="trademark" unicode="&#x2122;" horiz-adv-x="578" 
d="M299 437v170q0 28 -11 93h78l59 -210l55 210h78q-11 -67 -11 -93v-170q0 -20 11 -94h-78q12 74 12 94v145l-69 -212l-67 216v-149q0 -20 10 -94h-78q11 74 11 94zM23 700h224l-9 -54q-27 3 -40 3q-10 0 -37 -3q-4 -36 -4 -49v-160q0 -20 10 -94h-78q10 74 10 94v160
q0 22 -3 49q-25 3 -34 3q-13 0 -42 -3z" />
    <glyph glyph-name="degree" unicode="&#xb0;" horiz-adv-x="335" 
d="M58.5 426.5q-38.5 39.5 -38.5 109.5q0 72 39 109t109 37t108.5 -39t38.5 -107q0 -71 -39 -110t-108 -39q-71 0 -109.5 39.5zM121.5 483.5q16.5 -18.5 46.5 -18.5q28 0 45 19.5t17 51.5q0 33 -17 51.5t-45 18.5q-29 0 -46 -19.5t-17 -50.5q0 -34 16.5 -52.5z" />
    <glyph glyph-name="bar" unicode="|" horiz-adv-x="173" 
d="M41 87v397q0 65 -21 218h133q-21 -158 -21 -218v-397q0 -48 21 -218h-133q21 171 21 218z" />
    <glyph glyph-name="brokenbar" unicode="&#xa6;" horiz-adv-x="126" 
d="M24 455q1 36 1 84q0 47 -1 82.5t-4 81.5h86q-3 -46 -4 -81.5t-1 -82.5q0 -44 1 -80.5t4 -88.5h-86q3 49 4 85zM24 -43q1 36 1 84q0 47 -1 82.5t-4 81.5h86q-3 -46 -4 -81.5t-1 -82.5q0 -44 1 -80.5t4 -88.5h-86q3 49 4 85z" />
    <glyph glyph-name="dagger" unicode="&#x2020;" horiz-adv-x="400" 
d="M156 247q5 93 6 248l-50 -3q-17 -1 -92 -5v90l86 -5q21 -2 56 -4q-1 50 -4 85q-1 11 -2 29.5t-2 48.5h90q-1 -34 -5 -78q-3 -33 -4 -84l69 4l76 4v-90q-74 3 -92 5l-53 3q1 -104 2.5 -151t4.5 -101q0 -11 2 -39h-90z" />
    <glyph glyph-name="daggerdbl" unicode="&#x2021;" horiz-adv-x="437" 
d="M179 380q-48 -1 -81 -4q-11 -1 -29.5 -2t-48.5 -2v90q35 -1 78 -5q33 -3 84 -4v109q-50 -1 -84 -4q-11 -1 -29.5 -2t-48.5 -2v90q38 -1 83 -5q14 -1 32 -2t44 -2l-5 112h90q-2 -46 -6 -112q43 2 73 4l86 5v-90q-32 1 -50.5 2t-29.5 2q-32 3 -82 4l1 -109q43 1 79 4l82 5
v-90q-32 1 -50.5 2t-29.5 2q-31 2 -78 4l5 -108h-90z" />
    <glyph glyph-name="dollar" unicode="$" horiz-adv-x="363" 
d="M141 -12q-55 10 -81.5 45.5t-32.5 75.5t-6 91q18 -3 49 -3q30 0 50 3q-1 -9 -1 -25q0 -46 15.5 -73t46.5 -27q34 0 51.5 25.5t17.5 72.5t-23.5 94t-55.5 70q-47 36 -75 61.5t-52 65t-24 84.5q0 68 32 112t90 53l-7 75h90q-4 -38 -7 -80q53 -16 81.5 -63.5t28.5 -100.5
q-29 3 -52 3q-25 0 -47 -4q3 28 -9 54.5t-41 26.5t-44 -17.5t-15 -58.5q0 -35 27.5 -73.5t71.5 -72.5q60 -46 92 -101.5t32 -116.5t-25 -121t-103 -75l8 -88h-90z" />
    <glyph glyph-name="Euro" unicode="&#x20ac;" horiz-adv-x="469" 
d="M286.5 12q-60.5 26 -102.5 77.5t-50 122.5l-3 31l-71 -4q-10 0 -40 -2v79l61 -3q24 -3 46 -3l1 84q-13 0 -45 -2q-20 -2 -63 -4v79l112 -7l2 24q7 70 49 122.5t103.5 80.5t125.5 28h23.5t13.5 -1v-78q-3 1 -13.5 1.5t-23.5 0.5q-47 0 -89 -17.5t-68 -51.5t-26 -83v-27
q47 1 87 4l71 4v-79l-46 3q-61 3 -112 4l-1 -87q46 1 87 4l72 4v-79l-46 3q-59 3 -113 4v-30q0 -50 26.5 -84.5t68.5 -51.5t89 -17q32 0 37 1v-76h-37q-65 0 -125.5 26z" />
    <glyph glyph-name="sterling" unicode="&#xa3;" horiz-adv-x="516" 
d="M97.5 174.5q27.5 21.5 27.5 68.5q0 36 -4.5 70t-5.5 43q-15 -1 -29.5 -2t-30.5 -2l-24 -1v79l78 -4q-2 40 -2 70q0 35 1 54q6 86 52 120t119 34q21 0 42.5 -1.5t31.5 -1.5l27 -2l-3 -82l-37 1q-51 2 -79.5 -3t-43 -21t-15.5 -47q-1 -45 6 -123h5q37 0 73 1.5t92 4.5v-79
l-68 4q-51 3 -97 3q2 -46 2 -77v-34q-1 -67 -31 -107t-79 -58l169 3q52 1 100 4.5t122 11.5l-43 -97h-433v140q50 9 77.5 30.5z" />
    <glyph glyph-name="plus" unicode="+" horiz-adv-x="437" 
d="M176 187q1 19 2 31q3 32 4 80q-50 -1 -84 -4q-11 -1 -29.5 -2t-48.5 -2v90q35 -1 78 -5q33 -3 84 -4q-1 50 -4 85q-1 11 -2 29.5t-2 48.5h90q-1 -34 -5 -78q-2 -32 -4 -85q44 1 80 4q9 1 82 5v-90q-33 1 -52 2t-29 2q-33 3 -81 4q2 -45 4 -80q1 -10 5 -81h-90q1 31 2 50z
" />
    <glyph glyph-name="minus" unicode="&#x2212;" horiz-adv-x="437" 
d="M64.5 378q17.5 -1 28.5 -2q60 -5 124 -5q42 0 122 4q8 1 78 5v-90q-29 1 -47 2t-28 2q-74 4 -125 4q-49 0 -125 -4q-83 -4 -72 -4v90q27 -1 44.5 -2z" />
    <glyph glyph-name="multiply" unicode="&#xd7;" horiz-adv-x="385" 
d="M75 265q48 43 65 60q-31 30 -78 72l-42 37l64 63q31 -34 46 -53q43 -47 62 -67q45 49 62 68l47 52l64 -63l-60 -54q-32 -27 -61 -55q17 -17 65 -59l55 -49l-63 -64l-57 63q-33 37 -52 57q-24 -25 -59 -65l-49 -55l-63 64z" />
    <glyph glyph-name="divide" unicode="&#xf7;" horiz-adv-x="462" 
d="M66 366q18 -1 31 -2q65 -5 133 -5q44 0 130 4q8 1 82 5v-90q-31 1 -49.5 2t-29.5 2q-80 4 -133 4t-133 -4q-11 -1 -29.5 -2t-47.5 -2v90q28 -1 46 -2zM186.5 188q15.5 15 43.5 15t43 -15.5t15 -42.5q0 -28 -15.5 -43.5t-42.5 -15.5q-28 0 -43.5 15.5t-15.5 43.5t15.5 43z
M186.5 536q15.5 15 43.5 15t43 -15.5t15 -42.5q0 -28 -15.5 -43.5t-42.5 -15.5q-28 0 -43.5 15.5t-15.5 43.5t15.5 43z" />
    <glyph glyph-name="equal" unicode="=" horiz-adv-x="437" 
d="M64.5 492q17.5 -1 28.5 -2q60 -5 124 -5q42 0 122 4q8 1 78 5v-90q-29 1 -47 2t-28 2q-74 4 -125 4q-49 0 -125 -4q-83 -4 -72 -4v90q27 -1 44.5 -2zM20 294q27 -1 44.5 -2t28.5 -2q60 -5 124 -5q42 0 122 4q8 1 78 5v-90q-29 1 -47 2t-28 2q-74 4 -125 4q-49 0 -125 -4
q-83 -4 -72 -4v90z" />
    <glyph glyph-name="notequal" unicode="&#x2260;" horiz-adv-x="437" 
d="M137 191q-15 0 -47 -2q-22 -2 -70 -4v90q25 -1 42 -2t28 -2q29 -2 73 -4l40 126q-42 0 -114 -4q-77 -4 -69 -4v90q27 -1 44.5 -2t28.5 -2q60 -5 124 -5h9q10 41 24 113h95q-33 -68 -49 -111l55 3q10 1 26 2t40 2v-90q8 0 -73 4l-73 3l-41 -126q34 0 112 4q8 1 75 5v-90
q-29 1 -47 2t-28 2q-74 4 -125 4h-10q-10 -38 -24 -112h-95q34 72 49 110z" />
    <glyph glyph-name="greater" unicode="&#x3e;" horiz-adv-x="479" 
d="M346 229.5q-34 -16.5 -102 -53.5l-99 -55l-125 -68v111l60 26q243 109 315 143q-180 84 -375 168v111q39 -20 115 -64q60 -36 109 -61q74 -40 154 -76l61 -27v-103q-79 -35 -113 -51.5z" />
    <glyph glyph-name="less" unicode="&#x3c;" horiz-adv-x="479" 
d="M81 411q80 36 154 76q49 25 109 61q76 44 115 64v-111q-195 -84 -375 -168q72 -34 315 -143l60 -26v-111l-125 68l-99 55q-68 37 -102 53.5t-113 51.5v103z" />
    <glyph glyph-name="greaterequal" unicode="&#x2265;" horiz-adv-x="527" 
d="M420 326q-78 -18 -157 -40q-71 -20 -138 -42l-105 -33v90l87 19q15 3 56.5 12.5t99.5 26.5q57 16 129 40l-30 9q-48 15 -99 30q-58 17 -99.5 26.5t-56.5 12.5l-87 19v90l105 -33q67 -22 138 -42q79 -22 157 -40l87 -20v-105zM20 154q32 -1 53.5 -2t35.5 -2q73 -5 151 -5
q50 0 150 4q12 1 97 5v-90q-37 1 -59.5 2t-35.5 2q-92 4 -152 4t-152 -4q-98 -4 -88 -4v90z" />
    <glyph glyph-name="lessequal" unicode="&#x2264;" horiz-adv-x="527" 
d="M107 471q78 18 157 40q71 20 138 42l105 33v-90l-87 -19q-15 -3 -56.5 -12.5t-99.5 -26.5q-51 -15 -99 -30l-30 -9q72 -24 129 -40q58 -17 99.5 -26.5t56.5 -12.5l87 -19v-90q-19 6 -33 10t-23 7q-76 24 -187 55q-70 19 -122 32.5t-122 30.5v105zM20 154q85 -4 97 -5
q100 -4 150 -4q78 0 151 5q14 1 35.5 2t53.5 2v-90q10 0 -88 4q-92 4 -152 4t-152 -4q-13 -1 -35.5 -2t-59.5 -2v90z" />
    <glyph glyph-name="plusminus" unicode="&#xb1;" horiz-adv-x="477" 
d="M65 438q19 -1 33 -2q71 -4 104 -5q-2 41 -4 67q-1 10 -2 25.5t-2 40.5h90q-1 -30 -5 -68q-1 -12 -2 -28t-2 -37q64 2 104 5l78 4v-90q-28 1 -48 2t-34 2q-39 2 -99 4l4 -72l4 -59h-90l4 73q2 22 4 58q-63 -2 -104 -4q-14 -1 -33 -2t-45 -2v90q26 -1 45 -2zM20 168
q23 -1 40 -2t30 -2q77 -5 147 -5q62 0 152 5q12 1 29 2t39 2v-90l-71 3q-80 5 -149 5q-70 0 -150 -5l-67 -3v90z" />
    <glyph glyph-name="approxequal" unicode="&#x2248;" horiz-adv-x="523" 
d="M284 336q-30 21 -63 59q-24 26 -39 38.5t-34 12.5q-30 0 -44 -22t-15 -60h-69v17q0 49 30 90.5t95 41.5q36 0 62.5 -11.5t43 -27.5t37.5 -42q22 -27 36.5 -39t35.5 -12q40 0 57 25.5t17 63.5h69v-24q0 -28 -14.5 -58.5t-46.5 -51.5t-82 -21q-46 0 -76 21zM20 195
q0 49 30 90.5t95 41.5q36 0 62.5 -11.5t43 -27.5t37.5 -42q22 -27 36.5 -39t35.5 -12q41 0 57.5 25t16.5 64h69v-24q0 -28 -14.5 -58.5t-46.5 -51.5t-82 -21q-46 0 -76 21t-63 59q-24 26 -39 38.5t-34 12.5q-30 0 -44 -22t-15 -60h-69v17z" />
    <glyph glyph-name="asciitilde" unicode="~" horiz-adv-x="543" 
d="M295.5 226.5q-30.5 23.5 -66.5 67.5q-24 30 -40.5 44t-35.5 14q-34 0 -42.5 -27t-8.5 -86v-14h-82v56q0 33 12.5 67t41.5 58t76 24q38 0 65.5 -13t45 -31t38.5 -47q23 -31 38 -44.5t37 -13.5q32 0 46.5 16t17.5 38t3 60v15h82v-58q0 -32 -15 -66.5t-48.5 -58.5t-85.5 -24
q-48 0 -78.5 23.5z" />
    <glyph glyph-name="logicalnot" unicode="&#xac;" horiz-adv-x="477" 
d="M68 342q19 -1 31 -2q68 -5 138 -5q46 0 134 4q7 1 86 5v-292q-21 3 -43 3q-23 0 -47 -3q0 -5 4 42q4 44 4 72t-4 68q0 6 -2 24q-78 4 -132 4q-55 0 -139 -4q-11 -1 -29.5 -2t-48.5 -2v90q29 -1 48 -2z" />
    <glyph glyph-name="asciicircum" unicode="^" horiz-adv-x="451" 
d="M70.5 508.5q14.5 16.5 42.5 54.5q28 37 40 56t35 63q16 -4 36 -4q22 0 39 4q23 -44 35 -63t40 -56q28 -38 42.5 -54.5t50.5 -53.5l-88 -61q-37 61 -76 121q-34 43 -41 51q-24 -28 -41 -52q-24 -34 -40 -59.5t-37 -60.5l-88 61q36 37 50.5 53.5z" />
    <glyph glyph-name="infinity" unicode="&#x221e;" horiz-adv-x="858" 
d="M549.5 199.5q-44.5 27.5 -103.5 81.5l-17 15l-17 -15q-59 -54 -103.5 -81.5t-101.5 -27.5q-91 0 -139 42.5t-48 126.5q0 85 47 119.5t140 34.5q43 0 80.5 -15t67 -36.5t74.5 -59.5q45 38 74.5 59.5t67 36.5t80.5 15q93 0 140 -34.5t47 -119.5q0 -84 -48 -126.5
t-139 -42.5q-57 0 -101.5 27.5zM129 282.5q32 -18.5 78 -18.5q33 0 59.5 9.5t45.5 23t58 44.5l-34 24q-36 28 -64 41.5t-65 13.5q-48 0 -79 -18.5t-31 -60.5q0 -40 32 -58.5zM546 296.5q19 -13.5 45.5 -23t59.5 -9.5q46 0 78 18.5t32 58.5q0 42 -31 60.5t-79 18.5
q-37 0 -65 -13.5t-64 -41.5l-34 -24q39 -31 58 -44.5z" />
    <glyph glyph-name="integral" unicode="&#x222b;" horiz-adv-x="441" 
d="M88 32q22 0 33.5 9.5t16.5 30.5q5 28 20 198q16 170 25 254t19 133q13 53 49.5 79.5t79.5 26.5q8 0 24 -2l66 -13l-19 -63l-25 6q-17 5 -37 5q-25 0 -37.5 -13.5t-19.5 -41.5q-4 -20 -12 -100.5t-11 -107.5q-28 -303 -43 -372q-9 -51 -48 -78t-91 -27q-29 0 -58 9l13 75
q35 -8 55 -8z" />
    <glyph glyph-name="product" unicode="&#x220f;" horiz-adv-x="646" 
d="M433 136v397q0 35 -11 138h-192q-11 -106 -11 -138v-397q0 -47 11 -217h-123q21 170 21 217v397q0 52 -11 136q-34 0 -77 -5l-20 86h606l-20 -86q-40 5 -71 5q-11 -103 -11 -136v-397q0 -47 21 -217h-123q11 170 11 217z" />
    <glyph glyph-name="summation" unicode="&#x2211;" horiz-adv-x="402" 
d="M76 63q8 27 38 97q6 17 15 38.5t18 46.5q5 14 20 49t22 50q-1 3 -18.5 42.5t-23.5 57.5q-9 25 -18 46.5t-15 38.5q-30 70 -38 97q-9 29 -56 100h340l-24 -95q-50 5 -92 5q-34 0 -67 -3l111 -289l-111 -289q50 -2 77 -2q64 0 128 6l-24 -96h-338q46 71 56 100z" />
    <glyph glyph-name="radical" unicode="&#x221a;" horiz-adv-x="613" 
d="M45 294q-7 24 -16.5 55.5t-8.5 31.5h111l4 -22q2 -12 25 -130t53 -207h7q54 355 87.5 565.5t34.5 210.5h251l-19 -84q-41 5 -76 5q-24 0 -71 -5q-21 -69 -25 -94l-115 -677h-147l-69 260z" />
    <glyph glyph-name="partialdiff" unicode="&#x2202;" horiz-adv-x="399" 
d="M120.5 11.5q-46.5 26.5 -73.5 72.5t-27 103v109q1 58 30.5 96t81.5 51q18 5 42 5q34 0 66 -11t54 -28v81q0 67 -48.5 118t-140.5 65l31 71q83 -12 138 -49.5t80 -86.5t25 -96l-1 -360q0 -76 -41 -121.5t-115 -45.5q-55 0 -101.5 26.5zM131 135q16 -28 39.5 -42t47.5 -14
q35 0 55 23t20 66v156q-5 24 -27 35.5t-53 11.5q-39 0 -68.5 -22t-29.5 -60v-86q0 -40 16 -68z" />
    <glyph glyph-name="percent" unicode="%" horiz-adv-x="651" 
d="M170 182l21 35q128 214 180 299q30 51 89 184h143q-99 -129 -131 -184q-52 -85 -180 -299l-21 -35q-25 -39 -90 -182h-143q107 143 132 182zM59.5 676q39.5 38 111.5 38q70 0 109 -40t39 -109q0 -71 -39.5 -110.5t-108.5 -39.5q-72 0 -111.5 40t-39.5 110q0 73 39.5 111z
M114.5 502.5q20.5 -22.5 56.5 -22.5q33 0 53.5 23.5t20.5 61.5q0 41 -20 62.5t-54 21.5q-36 0 -56.5 -23t-20.5 -61q0 -40 20.5 -62.5zM371.5 246q39.5 38 111.5 38q70 0 109 -40t39 -109q0 -71 -39.5 -110.5t-108.5 -39.5q-72 0 -111.5 40t-39.5 110q0 73 39.5 111z
M426.5 72.5q20.5 -22.5 56.5 -22.5q33 0 53.5 23.5t20.5 61.5q0 41 -20 62.5t-54 21.5q-36 0 -56.5 -23t-20.5 -61q0 -40 20.5 -62.5z" />
    <glyph glyph-name="perthousand" unicode="&#x2030;" horiz-adv-x="993" 
d="M170 182l21 35q128 214 180 299q30 51 89 184h143q-99 -129 -131 -184q-52 -85 -180 -299l-21 -35q-25 -39 -90 -182h-143q107 143 132 182zM59.5 676q39.5 38 111.5 38q70 0 109 -40t39 -109q0 -71 -39.5 -110.5t-108.5 -39.5q-72 0 -111.5 40t-39.5 110q0 73 39.5 111z
M114.5 502.5q20.5 -22.5 56.5 -22.5q33 0 53.5 23.5t20.5 61.5q0 41 -20 62.5t-54 21.5q-36 0 -56.5 -23t-20.5 -61q0 -40 20.5 -62.5zM371.5 246q39.5 38 111.5 38q70 0 109 -40t39 -109q0 -71 -39.5 -110.5t-108.5 -39.5q-72 0 -111.5 40t-39.5 110q0 73 39.5 111z
M426.5 72.5q20.5 -22.5 56.5 -22.5q33 0 53.5 23.5t20.5 61.5q0 41 -20 62.5t-54 21.5q-36 0 -56.5 -23t-20.5 -61q0 -40 20.5 -62.5zM713.5 246q39.5 38 111.5 38q70 0 109 -40t39 -109q0 -71 -39.5 -110.5t-108.5 -39.5q-72 0 -111.5 40t-39.5 110q0 73 39.5 111z
M768.5 72.5q20.5 -22.5 56.5 -22.5q33 0 53.5 23.5t20.5 61.5q0 41 -20 62.5t-54 21.5q-36 0 -56.5 -23t-20.5 -61q0 -40 20.5 -62.5z" />
    <glyph glyph-name="uni0308" unicode="&#x308;" 
d="M199.5 628q-14.5 15 -14.5 41q0 27 14.5 41t41.5 14q26 0 40.5 -14.5t14.5 -40.5q0 -27 -14.5 -41.5t-40.5 -14.5q-27 0 -41.5 15zM54.5 710q14.5 14 41.5 14q26 0 40.5 -14.5t14.5 -40.5q0 -27 -14.5 -41.5t-40.5 -14.5q-27 0 -41.5 15t-14.5 41q0 27 14.5 41z" />
    <glyph glyph-name="uni0307" unicode="&#x307;" 
d="M64.5 710q14.5 14 41.5 14q26 0 40.5 -14.5t14.5 -40.5q0 -27 -14.5 -41.5t-40.5 -14.5q-27 0 -41.5 15t-14.5 41q0 27 14.5 41z" />
    <glyph glyph-name="gravecomb" unicode="&#x300;" 
d="M90 638q-13 18 -24 30t-26 27l69 52q10 -18 19 -32t22 -32q12 -16 23 -29t28 -30l-69 -51q-23 37 -42 65z" />
    <glyph glyph-name="acutecomb" unicode="&#x301;" 
d="M40 609l36 59q8 13 26 46l15 30q30 -32 69 -52l-22 -21q-20 -18 -40 -41l-42 -49z" />
    <glyph glyph-name="uni030B" unicode="&#x30b;" 
d="M157 605l36 59q8 13 26 46l15 30q29 -30 63 -48l-22 -21q-20 -18 -40 -41l-42 -49zM76 668q8 13 26 46l15 30q29 -30 63 -48l-22 -21q-20 -18 -40 -41l-42 -49l-36 24z" />
    <glyph glyph-name="uni030C.alt" 
d="M49 547q-9 3 -9 8q0 4 5 22t8 38q4 23 6 56q0 8 2 30q41 -18 84 -21l-12 -29q-14 -32 -21 -52q-10 -32 -16.5 -47t-15.5 -13q-15 3 -31 8z" />
    <glyph glyph-name="uni0302" unicode="&#x302;" 
d="M69.5 657.5q11.5 11.5 25.5 27.5q16 18 25 30.5t20 30.5h47q11 -18 20 -30.5t25 -30.5q14 -16 25.5 -27.5t29.5 -27.5l-55 -46q-22 32 -46 62q-4 4 -23 30q-12 -18 -22 -30q-24 -30 -46 -62l-55 46q18 16 29.5 27.5z" />
    <glyph glyph-name="uni030C" unicode="&#x30c;" 
d="M125 606.5q-10 12.5 -25 30.5q-16 18 -28 29.5t-32 27.5l56 33q24 -34 49 -64l27 -28l27 28q25 31 48 64l56 -33q-20 -16 -32 -27.5t-28 -29.5q-15 -18 -25 -30.5t-22 -33.5q-13 3 -26 3q-11 0 -23 -3q-12 21 -22 33.5z" />
    <glyph glyph-name="uni0306" unicode="&#x306;" 
d="M81.5 644q-31.5 30 -41.5 74h70q4 -19 18.5 -30t31.5 -11t30.5 11t17.5 30h70q-10 -44 -41.5 -74t-76.5 -30q-47 0 -78.5 30z" />
    <glyph glyph-name="uni030A" unicode="&#x30a;" 
d="M59.5 604q-19.5 20 -19.5 55q0 36 19.5 55t55.5 19q35 0 54.5 -19.5t19.5 -54.5q0 -36 -19.5 -55.5t-54.5 -19.5q-36 0 -55.5 20zM85.5 625.5q10.5 -11.5 29.5 -11.5q18 0 28.5 12.5t10.5 32.5q0 21 -10.5 32.5t-28.5 11.5q-19 0 -29.5 -12t-10.5 -32q0 -22 10.5 -33.5z
" />
    <glyph glyph-name="tildecomb" unicode="&#x303;" 
d="M188.5 580q-16.5 13 -32.5 35q-14 17 -21 23.5t-18 6.5q-19 0 -26 -13.5t-7 -43.5v-14h-44v39q0 32 16.5 60t52.5 28q29 0 45 -12.5t32 -35.5q11 -15 19 -22.5t20 -7.5q25 0 33 14.5t8 42.5v15h44v-40q0 -31 -20 -59.5t-60 -28.5q-25 0 -41.5 13z" />
    <glyph glyph-name="uni0304" unicode="&#x304;" 
d="M76.5 695q25.5 -2 71.5 -2q30 0 52.5 1t58.5 4v-81q-24 2 -30 2q-43 3 -81 3t-86 -3l-22 -2v81q11 -1 36.5 -3z" />
    <glyph glyph-name="uni0312" unicode="&#x312;" 
d="M48 720q3 14 7 37l9 64h50l-6 -69l-1 -44q18 -5 30 -19.5t12 -33.5q0 -23 -15.5 -39t-38.5 -16t-39 16t-16 39q0 25 8 65z" />
    <glyph glyph-name="uni0326" unicode="&#x326;" 
d="M40 -196l9 21q17 34 30 69l22 61l49 -11l-12 -68q-8 -37 -15 -96q-37 18 -83 24z" />
    <glyph glyph-name="uni0327" unicode="&#x327;" 
d="M40 -106l22 21q20 18 40 41l42 49l42 -28l-36 -59q-8 -13 -26 -46l-15 -30q-30 32 -69 52z" />
    <glyph glyph-name="uni0328" unicode="&#x328;" 
d="M101 -127l-25 45l-36 59l42 28l42 -49q20 -23 40 -41l22 -21q-39 -20 -69 -52z" />
    </font>
</defs>
</svg>
