<?xml version="1.0" standalone="no"?>
<!DOCTYPE svg PUBLIC "-//W3C//DTD SVG 1.1//EN" "http://www.w3.org/Graphics/SVG/1.1/DTD/svg11.dtd" >
<svg xmlns="http://www.w3.org/2000/svg" xmlns:xlink="http://www.w3.org/1999/xlink" version="1.1">
<metadata>
Created by FontForge 20230101 at Thu Jun 29 06:35:15 2023
 By Glenn Lewis
Copyright 2018 The Signika Project Authors (https://github.com/googlefonts/Signika).
</metadata>
<defs>
<font id="Signika-Medium" horiz-adv-x="1931" >
  <font-face 
    font-family="Signika Medium"
    font-weight="500"
    font-stretch="normal"
    units-per-em="2000"
    panose-1="0 0 0 0 0 0 0 0 0 0"
    ascent="1600"
    descent="-400"
    x-height="989"
    cap-height="1374"
    bbox="-455 -544 2488 2202"
    underline-thickness="50"
    underline-position="-125"
    unicode-range="U+0020-FB04"
  />
<missing-glyph horiz-adv-x="1269" 
d="M271 0q-96 0 -96 96v1178q0 96 96 96h727q96 0 96 -96v-1178q0 -96 -96 -96h-727zM284 17l-72 232l88 -20q15 36 30 67.5t41.5 78t75.5 126t132 211.5l50 56l357 575l82 -216l-87 20q-15 -36 -30.5 -67.5t-42 -78t-75.5 -126t-132 -211.5l-50 -56zM985 28l-386 610
q-91 144 -144.5 229t-82 133t-44 79.5t-30.5 67.5l-97 -20l91 219l386 -610q91 -144 144.5 -229t82 -133t43.5 -79.5t30 -67.5l98 20zM279 108q63 7 139.5 9.5t218.5 2.5q143 0 221.5 -2.5t141.5 -9.5q-8 74 -13 130t-7.5 113.5t-3.5 134.5t-1 194q0 115 1 193.5t3.5 139
t7.5 118.5t13 131q-62 -4 -141 -8t-222 -4q-142 0 -218.5 4t-139.5 8q8 -72 13 -130t7.5 -118.5t3.5 -139.5t1 -194q0 -117 -1 -194.5t-3.5 -135t-7.5 -113t-13 -129.5z" />
    <glyph glyph-name="f_f" unicode="ff" horiz-adv-x="1292" 
d="M306 987l319 3h39l253 -3l376 4q4 -20 6 -40.5t2 -41.5q0 -22 -2 -43.5t-6 -40.5l-378 5l-251 -4h-39l-321 4l-279 -5q-5 21 -7.5 41.5t-2.5 42.5q0 21 2.5 41t7.5 41zM808 892q-6 70 -14.5 137.5t-8.5 130.5q0 91 37.5 163t108.5 114t170 42q73 0 146 -15t120 -34
q1 -39 -13.5 -83t-37.5 -69q-37 11 -82 20t-87 9q-69 0 -107.5 -41.5t-38.5 -119.5q0 -59 10 -125.5t19 -131.5v-889q-26 -4 -55 -6t-58 -2q-26 0 -55 2t-54 6v892zM197 892q-7 68 -19 136.5t-12 131.5q0 91 38 163t109.5 114t170.5 42q56 0 110 -9t95 -21q2 -25 -3.5 -56
t-15.5 -58.5t-24 -42.5q-24 6 -54 10.5t-63 4.5q-68 0 -106.5 -41.5t-38.5 -119.5q0 -59 13.5 -124.5t21.5 -132.5v-889q-30 -4 -57.5 -6t-54.5 -2q-25 0 -52.5 2t-57.5 6v892z" />
    <glyph glyph-name="f_f_i" unicode="ffi" horiz-adv-x="1784" 
d="M197 892q-7 68 -19 136.5t-12 131.5q0 91 38 163t109.5 114t170.5 42q56 0 110 -9t95 -21q2 -25 -3.5 -56t-15.5 -58.5t-24 -42.5q-24 6 -54 10.5t-63 4.5q-68 0 -106.5 -41.5t-38.5 -119.5q0 -59 13.5 -124.5t21.5 -132.5v-889q-30 -4 -57.5 -6t-54.5 -2q-25 0 -52.5 2
t-57.5 6v892zM808 892q-7 68 -19.5 136.5t-12.5 131.5q0 91 37.5 163t108.5 114t170 42q46 0 94.5 -7t84.5 -17q3 -24 -2.5 -55t-15 -59t-23.5 -44q-27 5 -49.5 7.5t-44.5 2.5q-68 0 -106 -41.5t-38 -119.5q0 -59 14.5 -124.5t23.5 -132.5v-889q-30 -4 -57.5 -6t-54.5 -2
q-25 0 -52.5 2t-57.5 6v892zM1634 0q-28 -4 -56.5 -6t-57.5 -2q-28 0 -56 2t-57 6v719q0 49 -19.5 78t-69.5 29h-156q-61 0 -122.5 1.5t-124.5 2.5l-251 -4h-39l-321 4l-279 -5q-5 21 -7.5 41.5t-2.5 42.5q0 21 2.5 41t7.5 41l281 -4l319 3h39l253 -3q128 2 257.5 5t258.5 3
h31q81 0 125.5 -51.5t44.5 -137.5v-806zM1365 1253q0 23 4.5 49t13.5 46q19 11 51.5 18.5t63.5 7.5q29 0 63.5 -7.5t51.5 -18.5q9 -20 14 -46.5t5 -48.5q0 -23 -5 -49t-14 -46q-16 -11 -51 -18t-64 -7q-31 0 -64 7t-51 18q-18 42 -18 95z" />
    <glyph glyph-name="f_f_j" unicode="ffj" horiz-adv-x="1788" 
d="M917 987q105 1 193.5 3t169.5 3.5t159 1.5h30q79 0 124 -50t45 -138v-766q0 -101 -9 -179t-39 -136t-92 -98.5t-167 -66.5q-24 21 -42.5 59.5t-23.5 80.5q85 41 117 91.5t32 154.5v772q0 52 -19.5 79.5t-69.5 27.5h-163l-247 4l-251 -4h-39l-321 4l-279 -5
q-5 21 -7.5 41.5t-2.5 42.5q0 21 2.5 41t7.5 41l281 -4l319 3h39zM197 892q-7 68 -19 136.5t-12 131.5q0 91 38 163t109.5 114t170.5 42q56 0 110 -9t95 -21q2 -25 -3.5 -56t-15.5 -58.5t-24 -42.5q-24 6 -54 10.5t-63 4.5q-68 0 -106.5 -41.5t-38.5 -119.5
q0 -59 13.5 -124.5t21.5 -132.5v-889q-30 -4 -57.5 -6t-54.5 -2q-25 0 -52.5 2t-57.5 6v892zM808 892q-7 68 -19.5 136.5t-12.5 131.5q0 91 37.5 163t108.5 114t170 42q46 0 94.5 -7t84.5 -17q3 -24 -2.5 -55t-15 -59t-23.5 -44q-27 5 -49.5 7.5t-44.5 2.5q-68 0 -106 -41.5
t-38 -119.5q0 -59 14.5 -124.5t23.5 -132.5v-889q-30 -4 -57.5 -6t-54.5 -2q-25 0 -52.5 2t-57.5 6v892zM1369 1257q0 23 5 49t13 45q19 12 51.5 19t63.5 7q30 0 64.5 -7t50.5 -19q9 -19 14 -45.5t5 -48.5q0 -23 -5 -49t-14 -45q-16 -12 -50.5 -19t-64.5 -7q-31 0 -64 6.5
t-51 19.5q-8 19 -13 45t-5 49z" />
    <glyph glyph-name="f_f_l" unicode="ffl" horiz-adv-x="1857" 
d="M306 987l319 3h39l253 -3l347 4q4 -20 6.5 -40.5t2.5 -41.5q0 -22 -2.5 -43.5t-6.5 -40.5l-349 5l-251 -4h-39l-321 4l-279 -5q-5 21 -7.5 41.5t-2.5 42.5q0 21 2.5 41t7.5 41zM1781 170q9 -24 14 -53.5t5 -59.5q0 -13 -0.5 -26t-4.5 -25q-37 -5 -86 -10t-94 -5
q-105 0 -156 54.5t-51 165.5v1147l222 66v-1165q0 -44 19.5 -66.5t61.5 -22.5h70zM806 892q-6 70 -14 137.5t-8 130.5q0 147 100 233t283 86q65 0 145.5 -8t163.5 -20.5t154 -26.5l-79 -162q-54 12 -118 22t-125 16.5t-108 6.5q-94 0 -147 -37t-53 -124q0 -59 10 -125.5
t19 -131.5v-889q-26 -4 -55 -6t-58 -2q-26 0 -55 2t-55 6v892zM197 892q-7 68 -19 136.5t-12 131.5q0 91 38 163t109.5 114t170.5 42q56 0 110 -9t95 -21q2 -25 -3.5 -56t-15.5 -58.5t-24 -42.5q-24 6 -54 10.5t-63 4.5q-68 0 -106.5 -41.5t-38.5 -119.5q0 -59 13.5 -124.5
t21.5 -132.5v-889q-30 -4 -57.5 -6t-54.5 -2q-25 0 -52.5 2t-57.5 6v892z" />
    <glyph glyph-name="f_f_t" unicode="fft" horiz-adv-x="1930" 
d="M1221 826l-307 4l-250 -4h-39l-321 4l-279 -5q-5 21 -7.5 41.5t-2.5 42.5q0 21 2.5 41t7.5 41l281 -4l319 3h39l253 -3l304 3h51l270 -3l333 4q5 -22 7.5 -41.5t2.5 -40.5q0 -22 -2.5 -42.5t-7.5 -41.5l-337 5l-265 -4h-52zM1407 1152q0 76 26.5 109.5t96.5 33.5h86
l13 -14v-1023q0 -41 19.5 -64.5t64.5 -23.5h132q19 -52 19 -113q0 -13 -0.5 -26t-4.5 -25q-51 -6 -110.5 -10.5t-119.5 -4.5q-109 0 -165.5 54.5t-56.5 165.5v941zM808 892q-6 70 -14.5 137.5t-8.5 130.5q0 91 37.5 163t108.5 114t170 42q59 0 119 -10.5t101 -24.5
q3 -41 -10.5 -85t-35.5 -69q-31 7 -63.5 12t-64.5 5q-69 0 -107.5 -41.5t-38.5 -119.5q0 -59 10 -125.5t19 -131.5v-889q-26 -4 -55 -6t-58 -2q-26 0 -55 2t-54 6v892zM197 892q-7 68 -19 136.5t-12 131.5q0 91 38 163t109.5 114t170.5 42q56 0 110 -9t95 -21
q2 -25 -3.5 -56t-15.5 -58.5t-24 -42.5q-24 6 -54 10.5t-63 4.5q-68 0 -106.5 -41.5t-38.5 -119.5q0 -59 13.5 -124.5t21.5 -132.5v-889q-30 -4 -57.5 -6t-54.5 -2q-25 0 -52.5 2t-57.5 6v892z" />
    <glyph glyph-name="f_i" unicode="fi" horiz-adv-x="1172" 
d="M1022 0q-28 -4 -56.5 -6t-57.5 -2q-28 0 -56 2t-57 6v719q0 52 -19.5 79.5t-68.5 27.5h-155q-62 1 -124 1.5t-123 2.5l-280 -5q-10 42 -10 84q0 41 10 82l280 -4q140 3 267 5.5t250 2.5h30q81 0 125.5 -51.5t44.5 -137.5v-806zM196 892q-7 68 -19.5 136.5t-12.5 131.5
q0 91 37.5 163t108.5 114t170 42q46 0 94.5 -7t84.5 -17q3 -24 -2.5 -55t-15 -59t-23.5 -44q-27 5 -49.5 7.5t-44.5 2.5q-67 0 -105.5 -41.5t-38.5 -119.5q0 -59 15 -124.5t23 -132.5v-889q-30 -4 -57.5 -6t-54.5 -2q-25 0 -52.5 2t-57.5 6v892zM753 1257q0 23 4.5 49
t13.5 45q19 12 51.5 19t63.5 7q29 0 63.5 -7t51.5 -19q9 -19 14 -45.5t5 -48.5q0 -23 -5 -49t-14 -45q-16 -12 -51 -19t-64 -7q-31 0 -64 6.5t-51 19.5q-9 19 -13.5 45t-4.5 49z" />
    <glyph glyph-name="f_j" unicode="fj" horiz-adv-x="1177" 
d="M306 987q156 1 287 4.5t235 3.5h31q79 0 124 -50t45 -138v-766q0 -101 -9 -179t-39.5 -136t-92.5 -98.5t-167 -66.5q-24 21 -42.5 59.5t-23.5 80.5q85 41 117 91.5t32 154.5v772q0 52 -19.5 79.5t-69.5 27.5h-163q-61 1 -123 2l-124 2l-279 -5q-5 21 -7.5 41.5t-2.5 42.5
q0 21 2.5 41t7.5 41zM197 892q-7 68 -19.5 136.5t-12.5 131.5q0 91 37.5 163t108.5 114t170 42q46 0 94.5 -7t84.5 -17q3 -24 -2.5 -55t-15 -59t-23.5 -44q-27 5 -49.5 7.5t-44.5 2.5q-67 0 -105.5 -41.5t-38.5 -119.5q0 -59 15 -124.5t23 -132.5v-889q-30 -4 -57.5 -6
t-54.5 -2q-25 0 -52.5 2t-57.5 6v892zM751 1257q0 23 5 49t13 45q20 12 53.5 19t65.5 7q29 0 64.5 -7t52.5 -19q10 -19 14.5 -45.5t4.5 -48.5q0 -23 -4.5 -49t-14.5 -45q-16 -12 -52 -19t-65 -7q-32 0 -66 6.5t-53 19.5q-18 42 -18 94z" />
    <glyph glyph-name="f_l" unicode="fl" horiz-adv-x="1247" 
d="M1171 170q9 -24 14 -53.5t5 -59.5q0 -13 -1 -26t-4 -25q-37 -5 -86.5 -10t-93.5 -5q-104 0 -155.5 54.5t-51.5 165.5v1147l222 66v-1165q0 -89 81 -89h70zM306 987l346 4q10 -39 10 -82q0 -21 -2.5 -42.5t-7.5 -41.5l-348 5l-279 -5q-5 20 -7.5 41.5t-2.5 42.5t2.5 41.5
t7.5 40.5zM197 892q-6 70 -15 137.5t-9 130.5q0 147 100.5 233t283.5 86q65 0 145.5 -8t163.5 -20.5t154 -26.5l-80 -162q-53 12 -116.5 22t-124.5 16.5t-108 6.5q-95 0 -148 -37t-53 -124q0 -59 10.5 -125.5t18.5 -131.5v-889q-25 -4 -54.5 -6t-58.5 -2q-26 0 -55 2t-54 6
v892z" />
    <glyph glyph-name="f_t" unicode="ft" horiz-adv-x="1319" 
d="M795 1152q0 76 26.5 109.5t96.5 33.5h87l13 -14v-1023q0 -41 19 -64.5t65 -23.5h132q19 -52 19 -113q0 -13 -1 -26t-4 -25q-51 -6 -111 -10.5t-119 -4.5q-110 0 -166.5 54.5t-56.5 165.5v941zM298 987l299 3h62l268 -3l338 4q9 -41 9 -82q0 -44 -9 -84l-341 5l-265 -4
h-62l-300 4l-272 -5q-5 21 -7.5 41.5t-2.5 42.5q0 21 2.5 41t7.5 41zM795 1152q0 76 26.5 109.5t96.5 33.5h87l13 -14v-1023q0 -41 19 -64.5t65 -23.5h132q19 -52 19 -113q0 -13 -1 -26t-4 -25q-51 -6 -111 -10.5t-119 -4.5q-110 0 -166.5 54.5t-56.5 165.5v941zM197 892
q-6 70 -15 137.5t-9 130.5q0 91 38 163t109.5 114t170.5 42q58 0 117.5 -10.5t102.5 -24.5q2 -41 -11.5 -85t-36.5 -69q-31 7 -63 12t-64 5q-69 0 -107.5 -41.5t-38.5 -119.5q0 -59 10.5 -125.5t18.5 -131.5v-889q-25 -4 -54.5 -6t-58.5 -2q-26 0 -55 2t-54 6v892z" />
    <glyph glyph-name="v_i" unicode="vi" horiz-adv-x="1443" 
d="M1297 0q-24 -4 -53.5 -6t-59.5 -2t-60 2t-55 6v719q0 52 -19 79.5t-69 27.5h-113l-259 -826q-39 -6 -83.5 -8.5t-85.5 -2.5q-67 0 -103 23t-60 99l-270 861q36 16 69 24.5t61 8.5q50 0 81 -22t45 -78l125 -426q15 -47 28.5 -101t24.5 -102t17 -79q5 -16 19 -16l221 800
q22 6 54 9t56 3h319q78 0 124 -50t46 -136v-807zM1008 1259q0 23 5 49t14 46q20 11 53.5 18.5t64.5 7.5q30 0 65.5 -7.5t52.5 -18.5q9 -20 14 -46.5t5 -48.5t-5 -48.5t-14 -45.5q-16 -11 -52 -18.5t-66 -7.5q-31 0 -65.5 7t-52.5 19q-9 19 -14 45.5t-5 48.5z" />
    <glyph glyph-name="v_j" unicode="vj" horiz-adv-x="1449" 
d="M1015 1259q0 54 19 96q20 11 53 18t65 7q30 0 65 -7t53 -18q9 -21 14 -47t5 -49q0 -22 -5 -48t-14 -46q-17 -11 -52.5 -18.5t-65.5 -7.5q-32 0 -66 7.5t-52 18.5q-19 42 -19 94zM1134 993q79 0 124.5 -49t45.5 -137v-824q0 -129 -27 -212.5t-93.5 -132.5t-187.5 -77
q-24 21 -42.5 59.5t-22.5 80.5q85 41 116.5 91.5t31.5 154.5v772q0 52 -19.5 79.5t-69.5 27.5h-122l-259 -826q-39 -6 -83.5 -8.5t-85.5 -2.5q-67 0 -103.5 23t-59.5 99l-270 861q36 16 69 24.5t61 8.5q50 0 81 -22t45 -78l125 -426q15 -47 28.5 -101t24.5 -102t17 -79
q5 -16 19 -16l221 800q22 6 54 9t56 3h326z" />
    <glyph glyph-name=".notdef" horiz-adv-x="1269" 
d="M271 0q-96 0 -96 96v1178q0 96 96 96h727q96 0 96 -96v-1178q0 -96 -96 -96h-727zM284 17l-72 232l88 -20q15 36 30 67.5t41.5 78t75.5 126t132 211.5l50 56l357 575l82 -216l-87 20q-15 -36 -30.5 -67.5t-42 -78t-75.5 -126t-132 -211.5l-50 -56zM985 28l-386 610
q-91 144 -144.5 229t-82 133t-44 79.5t-30.5 67.5l-97 -20l91 219l386 -610q91 -144 144.5 -229t82 -133t43.5 -79.5t30 -67.5l98 20zM279 108q63 7 139.5 9.5t218.5 2.5q143 0 221.5 -2.5t141.5 -9.5q-8 74 -13 130t-7.5 113.5t-3.5 134.5t-1 194q0 115 1 193.5t3.5 139
t7.5 118.5t13 131q-62 -4 -141 -8t-222 -4q-142 0 -218.5 4t-139.5 8q8 -72 13 -130t7.5 -118.5t3.5 -139.5t1 -194q0 -117 -1 -194.5t-3.5 -135t-7.5 -113t-13 -129.5z" />
    <glyph glyph-name="A" unicode="A" horiz-adv-x="1234" 
d="M485 1366q27 4 67 6t69 2q27 0 67 -2t65 -7l445 -1350q-25 -15 -62 -22t-73 -7q-56 0 -87 25.5t-53 98.5l-205 658q-27 86 -55.5 187t-51.5 184h-11q-10 -46 -24.5 -102.5t-29.5 -110t-27 -94.5l-262 -834q-22 -5 -47.5 -6.5t-53.5 -1.5q-29 0 -60 4t-53 10l-8 13z
M468 321q-10 0 -36.5 0.5t-53.5 1t-37 0.5h-113l72 188h100q10 0 34 0.5t47.5 1t33.5 0.5h189q11 0 34.5 -0.5t48.5 -1t35 -0.5h102l62 -188h-112q-11 0 -38 -0.5l-54 -1t-37 -0.5h-277z" />
    <glyph glyph-name="Aacute" unicode="&#xc1;" horiz-adv-x="1234" 
d="M485 1366q27 4 67 6t69 2q27 0 67 -2t65 -7l445 -1350q-25 -15 -62 -22t-73 -7q-56 0 -87 25.5t-53 98.5l-205 658q-27 86 -55.5 187t-51.5 184h-11q-10 -46 -24.5 -102.5t-29.5 -110t-27 -94.5l-262 -834q-22 -5 -47.5 -6.5t-53.5 -1.5q-29 0 -60 4t-53 10l-8 13z
M468 321q-10 0 -36.5 0.5t-53.5 1t-37 0.5h-113l72 188h100q10 0 34 0.5t47.5 1t33.5 0.5h189q11 0 34.5 -0.5t48.5 -1t35 -0.5h102l62 -188h-112q-11 0 -38 -0.5l-54 -1t-37 -0.5h-277zM823 1820q21 -15 42 -45t36 -66t19 -72l-444 -181q-26 16 -44.5 51t-22.5 65z" />
    <glyph glyph-name="Abreve" unicode="&#x102;" horiz-adv-x="1234" 
d="M485 1366q27 4 67 6t69 2q27 0 67 -2t65 -7l445 -1350q-25 -15 -62 -22t-73 -7q-56 0 -87 25.5t-53 98.5l-205 658q-27 86 -55.5 187t-51.5 184h-11q-10 -46 -24.5 -102.5t-29.5 -110t-27 -94.5l-262 -834q-22 -5 -47.5 -6.5t-53.5 -1.5q-29 0 -60 4t-53 10l-8 13z
M468 321q-10 0 -36.5 0.5t-53.5 1t-37 0.5h-113l72 188h100q10 0 34 0.5t47.5 1t33.5 0.5h189q11 0 34.5 -0.5t48.5 -1t35 -0.5h102l62 -188h-112q-11 0 -38 -0.5l-54 -1t-37 -0.5h-277zM960 1724q-31 -109 -122.5 -180t-217.5 -71t-217.5 71t-122.5 180q22 25 58 38.5
t71 12.5q27 -59 84 -92.5t127 -33.5t127 33.5t84 92.5q36 1 71.5 -12.5t57.5 -38.5z" />
    <glyph glyph-name="uni1EAE" unicode="&#x1eae;" horiz-adv-x="1234" 
d="M485 1366q27 4 67 6t69 2q27 0 67 -2t65 -7l445 -1350q-25 -15 -62 -22t-73 -7q-56 0 -87 25.5t-53 98.5l-205 658q-27 86 -55.5 187t-51.5 184h-11q-10 -46 -24.5 -102.5t-29.5 -110t-27 -94.5l-262 -834q-22 -5 -47.5 -6.5t-53.5 -1.5q-29 0 -60 4t-53 10l-8 13z
M468 321q-10 0 -36.5 0.5t-53.5 1t-37 0.5h-113l72 188h100q10 0 34 0.5t47.5 1t33.5 0.5h189q11 0 34.5 -0.5t48.5 -1t35 -0.5h102l62 -188h-112q-11 0 -38 -0.5l-54 -1t-37 -0.5h-277zM293 1714q22 24 56.5 37t68.5 12q26 -56 80.5 -88.5t121.5 -32.5t122 32.5t80 88.5
q35 1 69.5 -12t55.5 -37q-29 -105 -117 -173t-210 -68q-121 0 -209.5 68t-117.5 173zM788 2143l-410 -207q3 -30 14.5 -61t35.5 -51l439 143q-2 52 -25.5 102.5t-53.5 73.5z" />
    <glyph glyph-name="uni1EB6" unicode="&#x1eb6;" horiz-adv-x="1234" 
d="M485 1366q27 4 67 6t69 2q27 0 67 -2t65 -7l445 -1350q-25 -15 -62 -22t-73 -7q-56 0 -87 25.5t-53 98.5l-205 658q-27 86 -55.5 187t-51.5 184h-11q-10 -46 -24.5 -102.5t-29.5 -110t-27 -94.5l-262 -834q-22 -5 -47.5 -6.5t-53.5 -1.5q-29 0 -60 4t-53 10l-8 13z
M468 321q-10 0 -36.5 0.5t-53.5 1t-37 0.5h-113l72 188h100q10 0 34 0.5t47.5 1t33.5 0.5h189q11 0 34.5 -0.5t48.5 -1t35 -0.5h102l62 -188h-112q-11 0 -38 -0.5l-54 -1t-37 -0.5h-277zM483 -241q0 24 5 49.5t14 46.5q18 11 52.5 18t65.5 7t66.5 -7t51.5 -18
q9 -21 14 -46.5t5 -49.5q0 -22 -5 -48t-14 -46q-17 -11 -52 -18.5t-66 -7.5t-64.5 7.5t-53.5 18.5q-9 20 -14 46t-5 48zM960 1724q-31 -109 -122.5 -180t-217.5 -71t-217.5 71t-122.5 180q22 25 58 38.5t71 12.5q27 -59 84 -92.5t127 -33.5t127 33.5t84 92.5
q36 1 71.5 -12.5t57.5 -38.5z" />
    <glyph glyph-name="uni1EB0" unicode="&#x1eb0;" horiz-adv-x="1234" 
d="M485 1366q27 4 67 6t69 2q27 0 67 -2t65 -7l445 -1350q-25 -15 -62 -22t-73 -7q-56 0 -87 25.5t-53 98.5l-205 658q-27 86 -55.5 187t-51.5 184h-11q-10 -46 -24.5 -102.5t-29.5 -110t-27 -94.5l-262 -834q-22 -5 -47.5 -6.5t-53.5 -1.5q-29 0 -60 4t-53 10l-8 13z
M468 321q-10 0 -36.5 0.5t-53.5 1t-37 0.5h-113l72 188h100q10 0 34 0.5t47.5 1t33.5 0.5h189q11 0 34.5 -0.5t48.5 -1t35 -0.5h102l62 -188h-112q-11 0 -38 -0.5l-54 -1t-37 -0.5h-277zM947 1714q-29 -105 -117.5 -173t-209.5 -68q-122 0 -210 68t-117 173q22 24 56.5 37
t68.5 12q26 -56 80.5 -88.5t121.5 -32.5t122 32.5t80 88.5q35 1 69.5 -12t55.5 -37zM452 2143q-30 -23 -53.5 -73.5t-25.5 -102.5l439 -143q24 20 35.5 51t14.5 61z" />
    <glyph glyph-name="uni1EB2" unicode="&#x1eb2;" horiz-adv-x="1234" 
d="M485 1366q27 4 67 6t69 2q27 0 67 -2t65 -7l445 -1350q-25 -15 -62 -22t-73 -7q-56 0 -87 25.5t-53 98.5l-205 658q-27 86 -55.5 187t-51.5 184h-11q-10 -46 -24.5 -102.5t-29.5 -110t-27 -94.5l-262 -834q-22 -5 -47.5 -6.5t-53.5 -1.5q-29 0 -60 4t-53 10l-8 13z
M468 321q-10 0 -36.5 0.5t-53.5 1t-37 0.5h-113l72 188h100q10 0 34 0.5t47.5 1t33.5 0.5h189q11 0 34.5 -0.5t48.5 -1t35 -0.5h102l62 -188h-112q-11 0 -38 -0.5l-54 -1t-37 -0.5h-277zM533 1872q54 17 85 41t31 55q0 24 -19 40t-52 16q-28 0 -53 -8.5t-49 -19.5
q-21 20 -33 50t-13 60q34 19 85 34.5t106 15.5q96 0 150 -48t54 -116q0 -78 -66 -137.5t-169 -87.5q-26 17 -40.5 45.5t-16.5 59.5zM947 1714q-29 -105 -117.5 -173t-209.5 -68q-122 0 -210 68t-117 173q22 24 56.5 37t68.5 12q26 -56 80.5 -88.5t121.5 -32.5t122 32.5
t80 88.5q35 1 69.5 -12t55.5 -37z" />
    <glyph glyph-name="uni1EB4" unicode="&#x1eb4;" horiz-adv-x="1234" 
d="M485 1366q27 4 67 6t69 2q27 0 67 -2t65 -7l445 -1350q-25 -15 -62 -22t-73 -7q-56 0 -87 25.5t-53 98.5l-205 658q-27 86 -55.5 187t-51.5 184h-11q-10 -46 -24.5 -102.5t-29.5 -110t-27 -94.5l-262 -834q-22 -5 -47.5 -6.5t-53.5 -1.5q-29 0 -60 4t-53 10l-8 13z
M468 321q-10 0 -36.5 0.5t-53.5 1t-37 0.5h-113l72 188h100q10 0 34 0.5t47.5 1t33.5 0.5h189q11 0 34.5 -0.5t48.5 -1t35 -0.5h102l62 -188h-112q-11 0 -38 -0.5l-54 -1t-37 -0.5h-277zM947 1714q-29 -105 -117.5 -173t-209.5 -68q-122 0 -210 68t-117 173q22 24 56.5 37
t68.5 12q26 -56 80.5 -88.5t121.5 -32.5t122 32.5t80 88.5q35 1 69.5 -12t55.5 -37zM540 1929q-13 6 -29 11t-33 5q-19 0 -37.5 -12t-34.5 -32l-20 -27q-31 1 -62.5 19t-43.5 46l14 30q31 68 81.5 107.5t117.5 39.5q32 0 61 -9.5t52 -21.5l94 -47q14 -7 30.5 -12t31.5 -5
q20 0 37.5 12.5t34.5 33.5l20 26q32 -1 63 -18.5t43 -45.5l-14 -31q-30 -67 -81 -106.5t-118 -39.5q-32 0 -61 9t-52 21z" />
    <glyph glyph-name="Acircumflex" unicode="&#xc2;" horiz-adv-x="1234" 
d="M485 1366q27 4 67 6t69 2q27 0 67 -2t65 -7l445 -1350q-25 -15 -62 -22t-73 -7q-56 0 -87 25.5t-53 98.5l-205 658q-27 86 -55.5 187t-51.5 184h-11q-10 -46 -24.5 -102.5t-29.5 -110t-27 -94.5l-262 -834q-22 -5 -47.5 -6.5t-53.5 -1.5q-29 0 -60 4t-53 10l-8 13z
M468 321q-10 0 -36.5 0.5t-53.5 1t-37 0.5h-113l72 188h100q10 0 34 0.5t47.5 1t33.5 0.5h189q11 0 34.5 -0.5t48.5 -1t35 -0.5h102l62 -188h-112q-11 0 -38 -0.5l-54 -1t-37 -0.5h-277zM717 1785l225 -214q-12 -36 -42 -62.5t-56 -34.5l-226 149l-227 -149
q-25 8 -55.5 34.5t-41.5 62.5l224 214q21 3 47 5.5t53 2.5t52.5 -2.5t46.5 -5.5z" />
    <glyph glyph-name="uni1EA4" unicode="&#x1ea4;" horiz-adv-x="1234" 
d="M485 1366q27 4 67 6t69 2q27 0 67 -2t65 -7l445 -1350q-25 -15 -62 -22t-73 -7q-56 0 -87 25.5t-53 98.5l-205 658q-27 86 -55.5 187t-51.5 184h-11q-10 -46 -24.5 -102.5t-29.5 -110t-27 -94.5l-262 -834q-22 -5 -47.5 -6.5t-53.5 -1.5q-29 0 -60 4t-53 10l-8 13z
M468 321q-10 0 -36.5 0.5t-53.5 1t-37 0.5h-113l72 188h100q10 0 34 0.5t47.5 1t33.5 0.5h189q11 0 34.5 -0.5t48.5 -1t35 -0.5h102l62 -188h-112q-11 0 -38 -0.5l-54 -1t-37 -0.5h-277zM714 1769l223 -198q-10 -35 -38.5 -61.5t-53.5 -35.5l-227 149l-226 -149
q-26 9 -54 35.5t-39 61.5l223 198q20 4 45 6.5t51 2.5q27 0 51.5 -2.5t44.5 -6.5zM783 2143l-411 -207q3 -30 15 -61t35 -51l441 143q-4 52 -27 102.5t-53 73.5z" />
    <glyph glyph-name="uni1EAC" unicode="&#x1eac;" horiz-adv-x="1234" 
d="M485 1366q27 4 67 6t69 2q27 0 67 -2t65 -7l445 -1350q-25 -15 -62 -22t-73 -7q-56 0 -87 25.5t-53 98.5l-205 658q-27 86 -55.5 187t-51.5 184h-11q-10 -46 -24.5 -102.5t-29.5 -110t-27 -94.5l-262 -834q-22 -5 -47.5 -6.5t-53.5 -1.5q-29 0 -60 4t-53 10l-8 13z
M468 321q-10 0 -36.5 0.5t-53.5 1t-37 0.5h-113l72 188h100q10 0 34 0.5t47.5 1t33.5 0.5h189q11 0 34.5 -0.5t48.5 -1t35 -0.5h102l62 -188h-112q-11 0 -38 -0.5l-54 -1t-37 -0.5h-277zM483 -241q0 24 5 49.5t14 46.5q18 11 52.5 18t65.5 7t66.5 -7t51.5 -18
q9 -21 14 -46.5t5 -49.5q0 -22 -5 -48t-14 -46q-17 -11 -52 -18.5t-66 -7.5t-64.5 7.5t-53.5 18.5q-9 20 -14 46t-5 48zM717 1785l225 -214q-12 -36 -42 -62.5t-56 -34.5l-226 149l-227 -149q-25 8 -55.5 34.5t-41.5 62.5l224 214q21 3 47 5.5t53 2.5t52.5 -2.5t46.5 -5.5z
" />
    <glyph glyph-name="uni1EA6" unicode="&#x1ea6;" horiz-adv-x="1234" 
d="M485 1366q27 4 67 6t69 2q27 0 67 -2t65 -7l445 -1350q-25 -15 -62 -22t-73 -7q-56 0 -87 25.5t-53 98.5l-205 658q-27 86 -55.5 187t-51.5 184h-11q-10 -46 -24.5 -102.5t-29.5 -110t-27 -94.5l-262 -834q-22 -5 -47.5 -6.5t-53.5 -1.5q-29 0 -60 4t-53 10l-8 13z
M468 321q-10 0 -36.5 0.5t-53.5 1t-37 0.5h-113l72 188h100q10 0 34 0.5t47.5 1t33.5 0.5h189q11 0 34.5 -0.5t48.5 -1t35 -0.5h102l62 -188h-112q-11 0 -38 -0.5l-54 -1t-37 -0.5h-277zM522 1769q20 4 45 6.5t51 2.5q27 0 51.5 -2.5t44.5 -6.5l223 -198
q-10 -35 -38.5 -61.5t-54.5 -35.5l-226 149l-226 -149q-26 9 -54 35.5t-39 61.5zM453 2143q-29 -23 -52.5 -73.5t-26.5 -102.5l439 -143q24 20 36 51t15 61z" />
    <glyph glyph-name="uni1EA8" unicode="&#x1ea8;" horiz-adv-x="1234" 
d="M485 1366q27 4 67 6t69 2q27 0 67 -2t65 -7l445 -1350q-25 -15 -62 -22t-73 -7q-56 0 -87 25.5t-53 98.5l-205 658q-27 86 -55.5 187t-51.5 184h-11q-10 -46 -24.5 -102.5t-29.5 -110t-27 -94.5l-262 -834q-22 -5 -47.5 -6.5t-53.5 -1.5q-29 0 -60 4t-53 10l-8 13z
M468 321q-10 0 -36.5 0.5t-53.5 1t-37 0.5h-113l72 188h100q10 0 34 0.5t47.5 1t33.5 0.5h189q11 0 34.5 -0.5t48.5 -1t35 -0.5h102l62 -188h-112q-11 0 -38 -0.5l-54 -1t-37 -0.5h-277zM714 1769l223 -198q-10 -35 -38.5 -61.5t-53.5 -35.5l-227 149l-226 -149
q-26 9 -54 35.5t-39 61.5l223 198q20 4 45 6.5t51 2.5q27 0 51.5 -2.5t44.5 -6.5zM793 1857q49 18 78 41.5t29 55.5q0 24 -19 39.5t-51 15.5q-26 0 -50.5 -8.5t-47.5 -19.5q-20 20 -32 50.5t-12 59.5q32 19 81.5 34.5t103.5 15.5q93 0 144.5 -47.5t51.5 -116.5
q0 -77 -62 -136.5t-158 -88.5q-26 17 -40 45.5t-16 59.5z" />
    <glyph glyph-name="uni1EAA" unicode="&#x1eaa;" horiz-adv-x="1234" 
d="M485 1366q27 4 67 6t69 2q27 0 67 -2t65 -7l445 -1350q-25 -15 -62 -22t-73 -7q-56 0 -87 25.5t-53 98.5l-205 658q-27 86 -55.5 187t-51.5 184h-11q-10 -46 -24.5 -102.5t-29.5 -110t-27 -94.5l-262 -834q-22 -5 -47.5 -6.5t-53.5 -1.5q-29 0 -60 4t-53 10l-8 13z
M468 321q-10 0 -36.5 0.5t-53.5 1t-37 0.5h-113l72 188h100q10 0 34 0.5t47.5 1t33.5 0.5h189q11 0 34.5 -0.5t48.5 -1t35 -0.5h102l62 -188h-112q-11 0 -38 -0.5l-54 -1t-37 -0.5h-277zM540 1933q-13 7 -29 12t-33 5q-19 0 -37.5 -12.5t-34.5 -32.5l-20 -27
q-31 1 -62.5 19.5t-43.5 45.5l14 31q31 67 81.5 106.5t117.5 39.5q32 0 61 -9t52 -21l94 -48q14 -7 30.5 -12t31.5 -5q20 0 37.5 12.5t34.5 33.5l20 26q32 0 63 -18t43 -46l-14 -31q-31 -66 -81.5 -106t-117.5 -40q-32 0 -61 9t-52 21zM714 1769l223 -198
q-10 -35 -38.5 -61.5t-53.5 -35.5l-227 149l-226 -149q-26 9 -54 35.5t-39 61.5l223 198q20 4 45 6.5t51 2.5q27 0 51.5 -2.5t44.5 -6.5z" />
    <glyph glyph-name="uni0200" unicode="&#x200;" horiz-adv-x="1234" 
d="M485 1366q27 4 67 6t69 2q27 0 67 -2t65 -7l445 -1350q-25 -15 -62 -22t-73 -7q-56 0 -87 25.5t-53 98.5l-205 658q-27 86 -55.5 187t-51.5 184h-11q-10 -46 -24.5 -102.5t-29.5 -110t-27 -94.5l-262 -834q-22 -5 -47.5 -6.5t-53.5 -1.5q-29 0 -60 4t-53 10l-8 13z
M468 321q-10 0 -36.5 0.5t-53.5 1t-37 0.5h-113l72 188h100q10 0 34 0.5t47.5 1t33.5 0.5h189q11 0 34.5 -0.5t48.5 -1t35 -0.5h102l62 -188h-112q-11 0 -38 -0.5l-54 -1t-37 -0.5h-277zM315 1822l263 -273q-8 -30 -32.5 -56.5t-51.5 -38.5l-329 228q17 48 55.5 87t94.5 53z
M688 1822l263 -273q-8 -28 -32.5 -55.5t-52.5 -39.5l-329 228q18 48 56.5 87t94.5 53z" />
    <glyph glyph-name="Adieresis" unicode="&#xc4;" horiz-adv-x="1234" 
d="M485 1366q27 4 67 6t69 2q27 0 67 -2t65 -7l445 -1350q-25 -15 -62 -22t-73 -7q-56 0 -87 25.5t-53 98.5l-205 658q-27 86 -55.5 187t-51.5 184h-11q-10 -46 -24.5 -102.5t-29.5 -110t-27 -94.5l-262 -834q-22 -5 -47.5 -6.5t-53.5 -1.5q-29 0 -60 4t-53 10l-8 13z
M468 321q-10 0 -36.5 0.5t-53.5 1t-37 0.5h-113l72 188h100q10 0 34 0.5t47.5 1t33.5 0.5h189q11 0 34.5 -0.5t48.5 -1t35 -0.5h102l62 -188h-112q-11 0 -38 -0.5l-54 -1t-37 -0.5h-277zM834 1486q-28 0 -57 6.5t-50 18.5q-8 22 -11.5 45.5t-3.5 40.5q0 19 3.5 42t11.5 45
q21 13 50 19t57 6q27 0 56 -6t49 -19q9 -22 12.5 -45t3.5 -42q0 -17 -3.5 -40.5t-12.5 -45.5q-20 -12 -49 -18.5t-56 -6.5zM406 1486q-27 0 -56 6.5t-50 18.5q-8 22 -11.5 45.5t-3.5 40.5q0 19 3.5 42t11.5 45q21 13 50 19t56 6q28 0 57 -6t50 -19q9 -22 12 -45t3 -42
q0 -17 -3 -40.5t-12 -45.5q-21 -12 -50 -18.5t-57 -6.5z" />
    <glyph glyph-name="uni1EA0" unicode="&#x1ea0;" horiz-adv-x="1234" 
d="M485 1366q27 4 67 6t69 2q27 0 67 -2t65 -7l445 -1350q-25 -15 -62 -22t-73 -7q-56 0 -87 25.5t-53 98.5l-205 658q-27 86 -55.5 187t-51.5 184h-11q-10 -46 -24.5 -102.5t-29.5 -110t-27 -94.5l-262 -834q-22 -5 -47.5 -6.5t-53.5 -1.5q-29 0 -60 4t-53 10l-8 13z
M468 321q-10 0 -36.5 0.5t-53.5 1t-37 0.5h-113l72 188h100q10 0 34 0.5t47.5 1t33.5 0.5h189q11 0 34.5 -0.5t48.5 -1t35 -0.5h102l62 -188h-112q-11 0 -38 -0.5l-54 -1t-37 -0.5h-277zM483 -241q0 24 5 49.5t14 46.5q18 11 52.5 18t65.5 7t66.5 -7t51.5 -18
q9 -21 14 -46.5t5 -49.5q0 -22 -5 -48t-14 -46q-17 -11 -52 -18.5t-66 -7.5t-64.5 7.5t-53.5 18.5q-9 20 -14 46t-5 48z" />
    <glyph glyph-name="Agrave" unicode="&#xc0;" horiz-adv-x="1234" 
d="M485 1366q27 4 67 6t69 2q27 0 67 -2t65 -7l445 -1350q-25 -15 -62 -22t-73 -7q-56 0 -87 25.5t-53 98.5l-205 658q-27 86 -55.5 187t-51.5 184h-11q-10 -46 -24.5 -102.5t-29.5 -110t-27 -94.5l-262 -834q-22 -5 -47.5 -6.5t-53.5 -1.5q-29 0 -60 4t-53 10l-8 13z
M468 321q-10 0 -36.5 0.5t-53.5 1t-37 0.5h-113l72 188h100q10 0 34 0.5t47.5 1t33.5 0.5h189q11 0 34.5 -0.5t48.5 -1t35 -0.5h102l62 -188h-112q-11 0 -38 -0.5l-54 -1t-37 -0.5h-277zM442 1820q-21 -15 -42.5 -45t-37 -66t-19.5 -72l445 -181q29 18 45.5 51t22.5 65z" />
    <glyph glyph-name="uni1EA2" unicode="&#x1ea2;" horiz-adv-x="1234" 
d="M485 1366q27 4 67 6t69 2q27 0 67 -2t65 -7l445 -1350q-25 -15 -62 -22t-73 -7q-56 0 -87 25.5t-53 98.5l-205 658q-27 86 -55.5 187t-51.5 184h-11q-10 -46 -24.5 -102.5t-29.5 -110t-27 -94.5l-262 -834q-22 -5 -47.5 -6.5t-53.5 -1.5q-29 0 -60 4t-53 10l-8 13z
M468 321q-10 0 -36.5 0.5t-53.5 1t-37 0.5h-113l72 188h100q10 0 34 0.5t47.5 1t33.5 0.5h189q11 0 34.5 -0.5t48.5 -1t35 -0.5h102l62 -188h-112q-11 0 -38 -0.5l-54 -1t-37 -0.5h-277zM527 1561q58 19 92 45t34 59q0 27 -21 44t-57 17q-30 0 -57.5 -8.5t-53.5 -22.5
q-22 23 -33 53.5t-12 61.5q36 21 89.5 37t112.5 16q101 0 158 -50t57 -124q0 -80 -70 -142.5t-178 -94.5q-27 17 -43 47t-18 62z" />
    <glyph glyph-name="uni0202" unicode="&#x202;" horiz-adv-x="1234" 
d="M485 1366q27 4 67 6t69 2q27 0 67 -2t65 -7l445 -1350q-25 -15 -62 -22t-73 -7q-56 0 -87 25.5t-53 98.5l-205 658q-27 86 -55.5 187t-51.5 184h-11q-10 -46 -24.5 -102.5t-29.5 -110t-27 -94.5l-262 -834q-22 -5 -47.5 -6.5t-53.5 -1.5q-29 0 -60 4t-53 10l-8 13z
M468 321q-10 0 -36.5 0.5t-53.5 1t-37 0.5h-113l72 188h100q10 0 34 0.5t47.5 1t33.5 0.5h189q11 0 34.5 -0.5t48.5 -1t35 -0.5h102l62 -188h-112q-11 0 -38 -0.5l-54 -1t-37 -0.5h-277zM960 1542q-22 -25 -57.5 -38.5t-71.5 -12.5q-27 58 -84 92t-127 34t-127 -34t-84 -92
q-35 -1 -71 12.5t-58 38.5q31 110 122.5 180t217.5 70t217.5 -70t122.5 -180z" />
    <glyph glyph-name="Amacron" unicode="&#x100;" horiz-adv-x="1234" 
d="M485 1366q27 4 67 6t69 2q27 0 67 -2t65 -7l445 -1350q-25 -15 -62 -22t-73 -7q-56 0 -87 25.5t-53 98.5l-205 658q-27 86 -55.5 187t-51.5 184h-11q-10 -46 -24.5 -102.5t-29.5 -110t-27 -94.5l-262 -834q-22 -5 -47.5 -6.5t-53.5 -1.5q-29 0 -60 4t-53 10l-8 13z
M468 321q-10 0 -36.5 0.5t-53.5 1t-37 0.5h-113l72 188h100q10 0 34 0.5t47.5 1t33.5 0.5h189q11 0 34.5 -0.5t48.5 -1t35 -0.5h102l62 -188h-112q-11 0 -38 -0.5l-54 -1t-37 -0.5h-277zM319 1512q-7 22 -9.5 42t-2.5 46q0 25 2.5 45.5t9.5 43.5h603q6 -23 8.5 -41.5
t2.5 -46.5q0 -48 -11 -89h-603z" />
    <glyph glyph-name="Aogonek" unicode="&#x104;" horiz-adv-x="1234" 
d="M1231 -254q20 -16 34.5 -44.5t15.5 -63.5q-35 -31 -93.5 -52t-122.5 -21q-95 0 -157.5 50.5t-62.5 139.5q0 65 34 122.5t84.5 103.5t99.5 74l135 -40q-78 -46 -126.5 -99t-48.5 -115q0 -43 26.5 -64.5t66.5 -21.5q32 0 62.5 10t52.5 21zM485 1366q27 4 67 6t69 2
q27 0 67 -2t65 -7l445 -1350q-25 -15 -62 -22t-73 -7q-56 0 -87 25.5t-53 98.5l-205 658q-27 86 -55.5 187t-51.5 184h-11q-10 -46 -24.5 -102.5t-29.5 -110t-27 -94.5l-262 -834q-22 -5 -47.5 -6.5t-53.5 -1.5q-29 0 -60 4t-53 10l-8 13zM468 321q-10 0 -36.5 0.5t-53.5 1
t-37 0.5h-113l72 188h100q10 0 34 0.5t47.5 1t33.5 0.5h189q11 0 34.5 -0.5t48.5 -1t35 -0.5h102l62 -188h-112q-11 0 -38 -0.5l-54 -1t-37 -0.5h-277z" />
    <glyph glyph-name="Aring" unicode="&#xc5;" horiz-adv-x="1234" 
d="M487 1374h264l447 -1359q-25 -15 -62 -22t-73 -7q-56 0 -87 25.5t-53 98.5l-205 658q-27 86 -55.5 187t-51.5 184h-11q-10 -46 -24.5 -102.5t-29.5 -110t-27 -94.5l-262 -834q-22 -5 -47.5 -6.5t-53.5 -1.5q-29 0 -60 4t-53 10l-8 13zM468 321q-10 0 -36.5 0.5t-53.5 1
t-37 0.5h-113l72 188h100q10 0 34 0.5t47.5 1t33.5 0.5h189q11 0 34.5 -0.5t48.5 -1t35 -0.5h102l62 -188h-112q-11 0 -38 -0.5l-54 -1t-37 -0.5h-277zM369 1564q0 97 69.5 165t181.5 68q111 0 180 -68t69 -165q0 -96 -69 -164t-180 -68q-112 0 -181.5 68t-69.5 164z
M519 1564q0 -46 28.5 -76.5t72.5 -30.5t72 30.5t28 76.5q0 47 -28 77.5t-72 30.5t-72.5 -30.5t-28.5 -77.5z" />
    <glyph glyph-name="Aringacute" unicode="&#x1fa;" horiz-adv-x="1234" 
d="M487 1374h264l447 -1359q-25 -15 -62 -22t-73 -7q-56 0 -87 25.5t-53 98.5l-205 658q-27 86 -55.5 187t-51.5 184h-11q-10 -46 -24.5 -102.5t-29.5 -110t-27 -94.5l-262 -834q-22 -5 -47.5 -6.5t-53.5 -1.5q-29 0 -60 4t-53 10l-8 13zM468 321q-10 0 -36.5 0.5t-53.5 1
t-37 0.5h-113l72 188h100q10 0 34 0.5t47.5 1t33.5 0.5h189q11 0 34.5 -0.5t48.5 -1t35 -0.5h102l62 -188h-112q-11 0 -38 -0.5l-54 -1t-37 -0.5h-277zM369 1564q0 97 69.5 165t181.5 68q111 0 180 -68t69 -165q0 -96 -69 -164t-180 -68q-112 0 -181.5 68t-69.5 164z
M519 1564q0 -46 28.5 -76.5t72.5 -30.5t72 30.5t28 76.5q0 47 -28 77.5t-72 30.5t-72.5 -30.5t-28.5 -77.5zM823 2189q21 -15 42 -45t36 -66t19 -72l-444 -181q-26 16 -44.5 51t-22.5 65z" />
    <glyph glyph-name="Atilde" unicode="&#xc3;" horiz-adv-x="1234" 
d="M485 1366q27 4 67 6t69 2q27 0 67 -2t65 -7l445 -1350q-25 -15 -62 -22t-73 -7q-56 0 -87 25.5t-53 98.5l-205 658q-27 86 -55.5 187t-51.5 184h-11q-10 -46 -24.5 -102.5t-29.5 -110t-27 -94.5l-262 -834q-22 -5 -47.5 -6.5t-53.5 -1.5q-29 0 -60 4t-53 10l-8 13z
M468 321q-10 0 -36.5 0.5t-53.5 1t-37 0.5h-113l72 188h100q10 0 34 0.5t47.5 1t33.5 0.5h189q11 0 34.5 -0.5t48.5 -1t35 -0.5h102l62 -188h-112q-11 0 -38 -0.5l-54 -1t-37 -0.5h-277zM530 1566q-16 8 -32 13t-33 5q-20 0 -40.5 -13.5t-37.5 -36.5l-22 -28q-33 1 -67 20.5
t-47 48.5l15 34q32 72 87 114.5t128 42.5q34 0 65 -10t56 -22l103 -49q17 -9 35.5 -14.5t34.5 -5.5q20 0 40 12.5t38 36.5l21 28q33 -1 68 -20.5t47 -48.5l-15 -34q-32 -72 -87 -114.5t-128 -42.5q-35 0 -66.5 10t-55.5 21z" />
    <glyph glyph-name="AE" unicode="&#xc6;" horiz-adv-x="1757" 
d="M669 1344q27 13 68 17.5t73 4.5h159l-171 -227h-11q-28 -73 -63 -156.5t-66 -151.5l-394 -832q-26 -5 -56 -7t-57 -2q-32 0 -63 4t-54 11l-8 12zM518 321q-15 0 -39 0.5t-47.5 1t-37.5 0.5h-93l88 187h85q21 0 53 1t55 1h114q16 0 40 -0.5t47 -1t37 -0.5h84v-187h-85
q-13 0 -36.5 -0.5l-47 -1t-38.5 -0.5h-179zM797 1353l13 13h212v-192q0 -42 1 -70t1 -69v-732q0 -29 -1 -54.5t-1 -56.5v-194h-92q-62 0 -97.5 37.5t-35.5 104.5v1213zM1514 786q8 -22 10.5 -49.5t2.5 -46.5q0 -21 -2.5 -47.5t-10.5 -50.5h-364q-23 0 -59.5 0.5t-75.5 1.5
t-70 1v188q31 1 70 1.5t75.5 1t59.5 0.5h364zM1625 1366q6 -26 7 -49.5t1 -43.5t-4.5 -49t-13.5 -56h-465q-23 0 -59.5 0.5t-75.5 1t-70 1.5v195h680zM1666 196q0 -114 -35 -156t-119 -42h-567v189q52 3 100.5 6t111.5 3h509z" />
    <glyph glyph-name="AEacute" unicode="&#x1fc;" horiz-adv-x="1757" 
d="M669 1344q27 13 68 17.5t73 4.5h159l-171 -227h-11q-28 -73 -63 -156.5t-66 -151.5l-394 -832q-26 -5 -56 -7t-57 -2q-32 0 -63 4t-54 11l-8 12zM518 321q-15 0 -39 0.5t-47.5 1t-37.5 0.5h-93l88 187h85q21 0 53 1t55 1h114q16 0 40 -0.5t47 -1t37 -0.5h84v-187h-85
q-13 0 -36.5 -0.5l-47 -1t-38.5 -0.5h-179zM797 1353l13 13h212v-192q0 -42 1 -70t1 -69v-732q0 -29 -1 -54.5t-1 -56.5v-194h-92q-62 0 -97.5 37.5t-35.5 104.5v1213zM1514 786q8 -22 10.5 -49.5t2.5 -46.5q0 -21 -2.5 -47.5t-10.5 -50.5h-364q-23 0 -59.5 0.5t-75.5 1.5
t-70 1v188q31 1 70 1.5t75.5 1t59.5 0.5h364zM1625 1366q6 -26 7 -49.5t1 -43.5t-4.5 -49t-13.5 -56h-465q-23 0 -59.5 0.5t-75.5 1t-70 1.5v195h680zM1666 196q0 -114 -35 -156t-119 -42h-567v189q52 3 100.5 6t111.5 3h509zM1130 1820q21 -15 42 -45t36 -66t19 -72
l-444 -181q-26 16 -44.5 51t-22.5 65z" />
    <glyph glyph-name="B" unicode="B" horiz-adv-x="1214" 
d="M189 1368q111 2 217.5 4t206.5 2q146 0 244.5 -42t148.5 -122.5t50 -196.5q0 -75 -33.5 -140t-91.5 -107t-133 -50v30q83 -3 157 -51.5t120 -129.5t46 -180q0 -117 -52 -206t-158.5 -138t-270.5 -49q-120 0 -228 2.5t-223 3.5l-14 13v1344zM407 164q61 1 118.5 1.5
t109.5 0.5q77 0 125.5 21.5t75 56.5t37 75.5t10.5 76.5q0 49 -22 103t-78.5 92t-158.5 38h-308v177h288q89 0 136 30.5t65 76t18 91.5q0 47 -17 92t-63.5 74t-135.5 29q-38 0 -95.5 0.5t-104.5 1.5v-1037z" />
    <glyph glyph-name="C" unicode="C" horiz-adv-x="1209" 
d="M910 880q1 77 -23 151.5t-82 123.5t-163 49q-151 0 -226.5 -135t-75.5 -393q0 -241 84.5 -370t235.5 -129q96 0 183 41t170 109q37 -24 71 -67t44 -84q-56 -56 -135 -102t-174 -73t-200 -27q-146 0 -246.5 59t-162 160t-89 226.5t-27.5 257.5q0 250 76 408t202.5 233
t276.5 75t259.5 -55.5t169 -145t59.5 -194.5q0 -63 -32 -97.5t-101 -34.5q-26 0 -47.5 3.5t-46.5 10.5z" />
    <glyph glyph-name="Cacute" unicode="&#x106;" horiz-adv-x="1209" 
d="M910 880q1 77 -23 151.5t-82 123.5t-163 49q-151 0 -226.5 -135t-75.5 -393q0 -241 84.5 -370t235.5 -129q96 0 183 41t170 109q37 -24 71 -67t44 -84q-56 -56 -135 -102t-174 -73t-200 -27q-146 0 -246.5 59t-162 160t-89 226.5t-27.5 257.5q0 250 76 408t202.5 233
t276.5 75t259.5 -55.5t169 -145t59.5 -194.5q0 -63 -32 -97.5t-101 -34.5q-26 0 -47.5 3.5t-46.5 10.5zM848 1822q21 -15 42 -45t36 -66t19 -72l-444 -181q-26 16 -44.5 51t-22.5 65z" />
    <glyph glyph-name="Ccaron" unicode="&#x10c;" horiz-adv-x="1209" 
d="M910 880q1 77 -23 151.5t-82 123.5t-163 49q-151 0 -226.5 -135t-75.5 -393q0 -241 84.5 -370t235.5 -129q96 0 183 41t170 109q37 -24 71 -67t44 -84q-56 -56 -135 -102t-174 -73t-200 -27q-146 0 -246.5 59t-162 160t-89 226.5t-27.5 257.5q0 250 76 408t202.5 233
t276.5 75t259.5 -55.5t169 -145t59.5 -194.5q0 -63 -32 -97.5t-101 -34.5q-26 0 -47.5 3.5t-46.5 10.5zM872 1797q25 -9 55 -35t42 -63l-225 -213q-20 -5 -46 -7.5t-53 -2.5t-53 2.5t-46 7.5l-225 213q12 37 42 63t55 35l227 -149z" />
    <glyph glyph-name="Ccedilla" unicode="&#xc7;" horiz-adv-x="1209" 
d="M910 880q1 77 -23 151.5t-82 123.5t-163 49q-151 0 -226.5 -135t-75.5 -393q0 -241 84.5 -370t235.5 -129q96 0 183 41t170 109q37 -24 71 -67t44 -84q-56 -56 -135 -102t-174 -73t-200 -27q-146 0 -246.5 59t-162 160t-89 226.5t-27.5 257.5q0 250 76 408t202.5 233
t276.5 75t259.5 -55.5t169 -145t59.5 -194.5q0 -63 -32 -97.5t-101 -34.5q-26 0 -47.5 3.5t-46.5 10.5zM514 -150q12 34 33.5 83t39.5 79h134q-10 -14 -23.5 -40.5t-20.5 -42.5q76 -7 128.5 -54.5t52.5 -121.5q0 -90 -70 -146.5t-178 -56.5q-47 0 -90.5 12t-69.5 29
q2 31 14 60t29 51q19 -11 45.5 -19t53.5 -8q44 0 64.5 21.5t20.5 51.5q0 31 -20.5 52.5t-59.5 21.5q-12 0 -24 -2.5t-22 -6.5q-12 5 -22.5 15.5t-14.5 21.5z" />
    <glyph glyph-name="uni1E08" unicode="&#x1e08;" horiz-adv-x="1209" 
d="M910 880q1 77 -23 151.5t-82 123.5t-163 49q-151 0 -226.5 -135t-75.5 -393q0 -241 84.5 -370t235.5 -129q96 0 183 41t170 109q37 -24 71 -67t44 -84q-56 -56 -135 -102t-174 -73t-200 -27q-146 0 -246.5 59t-162 160t-89 226.5t-27.5 257.5q0 250 76 408t202.5 233
t276.5 75t259.5 -55.5t169 -145t59.5 -194.5q0 -63 -32 -97.5t-101 -34.5q-26 0 -47.5 3.5t-46.5 10.5zM514 -150q12 34 33.5 83t39.5 79h134q-10 -14 -23.5 -40.5t-20.5 -42.5q76 -7 128.5 -54.5t52.5 -121.5q0 -90 -70 -146.5t-178 -56.5q-47 0 -90.5 12t-69.5 29
q2 31 14 60t29 51q19 -11 45.5 -19t53.5 -8q44 0 64.5 21.5t20.5 51.5q0 31 -20.5 52.5t-59.5 21.5q-12 0 -24 -2.5t-22 -6.5q-12 5 -22.5 15.5t-14.5 21.5zM848 1822q21 -15 42 -45t36 -66t19 -72l-444 -181q-26 16 -44.5 51t-22.5 65z" />
    <glyph glyph-name="Ccircumflex" unicode="&#x108;" horiz-adv-x="1209" 
d="M910 880q1 77 -23 151.5t-82 123.5t-163 49q-151 0 -226.5 -135t-75.5 -393q0 -241 84.5 -370t235.5 -129q96 0 183 41t170 109q37 -24 71 -67t44 -84q-56 -56 -135 -102t-174 -73t-200 -27q-146 0 -246.5 59t-162 160t-89 226.5t-27.5 257.5q0 250 76 408t202.5 233
t276.5 75t259.5 -55.5t169 -145t59.5 -194.5q0 -63 -32 -97.5t-101 -34.5q-26 0 -47.5 3.5t-46.5 10.5zM742 1787l225 -214q-12 -36 -42 -62.5t-56 -34.5l-226 149l-227 -149q-25 8 -55.5 34.5t-41.5 62.5l224 214q21 3 47 5.5t53 2.5t52.5 -2.5t46.5 -5.5z" />
    <glyph glyph-name="Cdotaccent" unicode="&#x10a;" horiz-adv-x="1209" 
d="M910 880q1 77 -23 151.5t-82 123.5t-163 49q-151 0 -226.5 -135t-75.5 -393q0 -241 84.5 -370t235.5 -129q96 0 183 41t170 109q37 -24 71 -67t44 -84q-56 -56 -135 -102t-174 -73t-200 -27q-146 0 -246.5 59t-162 160t-89 226.5t-27.5 257.5q0 250 76 408t202.5 233
t276.5 75t259.5 -55.5t169 -145t59.5 -194.5q0 -63 -32 -97.5t-101 -34.5q-26 0 -47.5 3.5t-46.5 10.5zM508 1609q0 23 5 48.5t14 45.5q20 12 53.5 19t64.5 7t66 -7t52 -19q9 -20 14 -46t5 -48q0 -53 -19 -96q-16 -11 -51.5 -18t-66.5 -7t-65.5 7t-52.5 18q-19 43 -19 96z
" />
    <glyph glyph-name="D" unicode="D" horiz-adv-x="1304" 
d="M1208 683q0 -117 -15.5 -224t-61.5 -200t-138 -167q-44 -36 -106 -58.5t-127 -33t-119 -10.5q-82 0 -152 1t-141.5 3t-158.5 4l-14 13v1344l14 13q86 3 157.5 4.5t142 1.5h152.5q54 0 119 -10t127.5 -32.5t105.5 -58.5q91 -74 137 -167t62 -200t16 -223zM965 683
q0 87 -11.5 176t-45 163t-98 120t-170.5 46q-60 0 -112.5 0.5t-118.5 1.5v-1012q66 0 118.5 -0.5t112.5 -0.5q106 0 170.5 46t98 121t45 164t11.5 175z" />
    <glyph glyph-name="uni01C4" unicode="&#x1c4;" horiz-adv-x="2404" 
d="M1208 683q0 -117 -15.5 -224t-61.5 -200t-138 -167q-44 -36 -106 -58.5t-127 -33t-119 -10.5q-82 0 -152 1t-141.5 3t-158.5 4l-14 13v1344l14 13q86 3 157.5 4.5t142 1.5h152.5q54 0 119 -10t127.5 -32.5t105.5 -58.5q91 -74 137 -167t62 -200t16 -223zM965 683
q0 87 -11.5 176t-45 163t-98 120t-170.5 46q-60 0 -112.5 0.5t-118.5 1.5v-1012q66 0 118.5 -0.5t112.5 -0.5q106 0 170.5 46t98 121t45 164t11.5 175zM1888 971q30 46 73 101.5t84 107.5l-6 6q-26 -4 -68.5 -7t-89 -5t-88 -3t-65.5 -1h-314q-6 21 -8 40.5t-2 39.5
q0 30 4.5 58t13.5 58h836q16 -53 22.5 -81.5t8.5 -43t2 -24.5q0 -21 -6.5 -44t-22.5 -47l-491 -723q-31 -46 -74.5 -103.5t-82.5 -105.5l6 -6q64 5 133.5 8.5t119.5 3.5h189q78 0 136 10.5t98 28.5q7 -23 12 -52t5 -58q0 -64 -41 -96.5t-119 -32.5h-760q-13 51 -19 79t-8 42
t-2 25q0 23 7.5 48.5t22.5 48.5zM2070 1795q25 -9 55 -35t42 -63l-225 -213q-20 -5 -46 -7.5t-53 -2.5t-53 2.5t-46 7.5l-225 213q12 37 42 63t55 35l227 -149z" />
    <glyph glyph-name="Dcaron" unicode="&#x10e;" horiz-adv-x="1304" 
d="M1208 683q0 -117 -15.5 -224t-61.5 -200t-138 -167q-44 -36 -106 -58.5t-127 -33t-119 -10.5q-82 0 -152 1t-141.5 3t-158.5 4l-14 13v1344l14 13q86 3 157.5 4.5t142 1.5h152.5q54 0 119 -10t127.5 -32.5t105.5 -58.5q91 -74 137 -167t62 -200t16 -223zM965 683
q0 87 -11.5 176t-45 163t-98 120t-170.5 46q-60 0 -112.5 0.5t-118.5 1.5v-1012q66 0 118.5 -0.5t112.5 -0.5q106 0 170.5 46t98 121t45 164t11.5 175zM849 1795q25 -9 55 -35t42 -63l-225 -213q-20 -5 -46 -7.5t-53 -2.5t-53 2.5t-46 7.5l-225 213q12 37 42 63t55 35
l227 -149z" />
    <glyph glyph-name="Dcroat" unicode="&#x110;" horiz-adv-x="1335" 
d="M1239 684q0 -117 -15.5 -224.5t-61.5 -200.5t-137 -167q-44 -36 -106.5 -58.5t-127 -33t-118.5 -10.5q-82 0 -152.5 1t-142.5 3t-159 4l-13 13v1344l13 13q87 3 159 4.5t142.5 1.5h152.5q54 0 118.5 -10t127 -32.5t106.5 -58.5q90 -74 136 -167t62 -199.5t16 -222.5z
M996 684q0 87 -11.5 175.5t-45 163t-97.5 120t-170 45.5q-61 0 -115.5 0.5t-120.5 1.5v-1012q66 0 120.5 -0.5t115.5 -0.5q106 0 170 46t97.5 121t45 164.5t11.5 175.5zM57 596q-6 22 -8 45t-2 49q0 25 2 50.5t8 48.5h678q5 -23 7 -46.5t2 -50.5t-2 -50.5t-7 -45.5h-678z
" />
    <glyph glyph-name="uni1E0C" unicode="&#x1e0c;" horiz-adv-x="1304" 
d="M1208 683q0 -117 -15.5 -224t-61.5 -200t-138 -167q-44 -36 -106 -58.5t-127 -33t-119 -10.5q-82 0 -152 1t-141.5 3t-158.5 4l-14 13v1344l14 13q86 3 157.5 4.5t142 1.5h152.5q54 0 119 -10t127.5 -32.5t105.5 -58.5q91 -74 137 -167t62 -200t16 -223zM965 683
q0 87 -11.5 176t-45 163t-98 120t-170.5 46q-60 0 -112.5 0.5t-118.5 1.5v-1012q66 0 118.5 -0.5t112.5 -0.5q106 0 170.5 46t98 121t45 164t11.5 175zM480 -241q0 24 5 49.5t14 46.5q18 11 52.5 18t65.5 7t66.5 -7t51.5 -18q9 -21 14 -46.5t5 -49.5q0 -22 -5 -48t-14 -46
q-17 -11 -52 -18.5t-66 -7.5t-64.5 7.5t-53.5 18.5q-9 20 -14 46t-5 48z" />
    <glyph glyph-name="uni1E0E" unicode="&#x1e0e;" horiz-adv-x="1304" 
d="M1208 683q0 -117 -15.5 -224t-61.5 -200t-138 -167q-44 -36 -106 -58.5t-127 -33t-119 -10.5q-82 0 -152 1t-141.5 3t-158.5 4l-14 13v1344l14 13q86 3 157.5 4.5t142 1.5h152.5q54 0 119 -10t127.5 -32.5t105.5 -58.5q91 -74 137 -167t62 -200t16 -223zM965 683
q0 87 -11.5 176t-45 163t-98 120t-170.5 46q-60 0 -112.5 0.5t-118.5 1.5v-1012q66 0 118.5 -0.5t112.5 -0.5q106 0 170.5 46t98 121t45 164t11.5 175zM919 -146q6 -22 8.5 -42t2.5 -46q0 -25 -2.5 -45t-8.5 -44h-604q-6 24 -8.5 42t-2.5 46q0 48 11 89h604z" />
    <glyph glyph-name="uni01C5" unicode="&#x1c5;" horiz-adv-x="2171" 
d="M1208 683q0 -117 -15.5 -224t-61.5 -200t-138 -167q-44 -36 -106 -58.5t-127 -33t-119 -10.5q-82 0 -152 1t-141.5 3t-158.5 4l-14 13v1344l14 13q86 3 157.5 4.5t142 1.5h152.5q54 0 119 -10t127.5 -32.5t105.5 -58.5q91 -74 137 -167t62 -200t16 -223zM965 683
q0 87 -11.5 176t-45 163t-98 120t-170.5 46q-60 0 -112.5 0.5t-118.5 1.5v-1012q66 0 118.5 -0.5t112.5 -0.5q106 0 170.5 46t98 121t45 164t11.5 175zM1686 628q34 46 78.5 97.5t80.5 94.5l-6 8q-30 -4 -76.5 -7t-96 -4.5t-89.5 -1.5h-199q-4 18 -5.5 37.5t-1.5 34.5
q0 23 3.5 50t8.5 52h675q16 -46 24 -76.5t8 -54.5q0 -17 -6 -36.5t-21 -38.5l-309 -416q-34 -46 -75.5 -97.5t-78.5 -94.5l6 -8q48 5 95.5 7t83.5 2h90q64 0 118 6t93 23q11 -27 16.5 -51t5.5 -48q0 -49 -30 -77.5t-108 -28.5h-597q-17 47 -23.5 73t-6.5 48q0 19 7.5 41
t26.5 48zM1627 1113l-193 252q16 36 48 62.5t58 34.5l186 -180l186 180q26 -8 58 -34.5t48 -62.5l-193 -252q-20 -5 -46 -8.5t-53 -3.5t-53 3.5t-46 8.5z" />
    <glyph glyph-name="Eth" unicode="&#xd0;" horiz-adv-x="1335" 
d="M1239 684q0 -117 -15.5 -224.5t-61.5 -200.5t-137 -167q-44 -36 -106.5 -58.5t-127 -33t-118.5 -10.5q-82 0 -152.5 1t-142.5 3t-159 4l-13 13v1344l13 13q87 3 159 4.5t142.5 1.5h152.5q54 0 118.5 -10t127 -32.5t106.5 -58.5q90 -74 136 -167t62 -199.5t16 -222.5z
M996 684q0 87 -11.5 175.5t-45 163t-97.5 120t-170 45.5q-61 0 -115.5 0.5t-120.5 1.5v-1012q66 0 120.5 -0.5t115.5 -0.5q106 0 170 46t97.5 121t45 164.5t11.5 175.5zM57 596q-6 22 -8 45t-2 49q0 25 2 50.5t8 48.5h678q5 -23 7 -46.5t2 -50.5t-2 -50.5t-7 -45.5h-678z
" />
    <glyph glyph-name="E" unicode="E" horiz-adv-x="1135" 
d="M174 1353l13 13h216v-192q0 -42 1 -70t1 -69v-733q0 -30 -1 -54.5t-1 -55.5v-194h-94q-63 0 -99 37.5t-36 104.5v1213zM893 786q7 -22 9.5 -49.5t2.5 -46.5q0 -21 -2.5 -47.5t-9.5 -50.5h-361q-23 0 -60.5 0.5t-77 1.5t-70.5 1v188q31 1 70.5 1.5t77 1t60.5 0.5h361z
M1004 1366q5 -26 6 -49.5t1 -43.5t-4 -49t-14 -56h-461q-23 0 -60.5 0.5t-77 1t-70.5 1.5v195h680zM1045 196q0 -105 -32 -151.5t-123 -46.5h-566v189q52 3 101.5 6t112.5 3h507z" />
    <glyph glyph-name="Eacute" unicode="&#xc9;" horiz-adv-x="1135" 
d="M174 1353l13 13h216v-192q0 -42 1 -70t1 -69v-733q0 -30 -1 -54.5t-1 -55.5v-194h-94q-63 0 -99 37.5t-36 104.5v1213zM893 786q7 -22 9.5 -49.5t2.5 -46.5q0 -21 -2.5 -47.5t-9.5 -50.5h-361q-23 0 -60.5 0.5t-77 1.5t-70.5 1v188q31 1 70.5 1.5t77 1t60.5 0.5h361z
M1004 1366q5 -26 6 -49.5t1 -43.5t-4 -49t-14 -56h-461q-23 0 -60.5 0.5t-77 1t-70.5 1.5v195h680zM1045 196q0 -105 -32 -151.5t-123 -46.5h-566v189q52 3 101.5 6t112.5 3h507zM801 1820q21 -15 42 -45t36 -66t19 -72l-444 -181q-26 16 -44.5 51t-22.5 65z" />
    <glyph glyph-name="Ebreve" unicode="&#x114;" horiz-adv-x="1135" 
d="M174 1353l13 13h216v-192q0 -42 1 -70t1 -69v-733q0 -30 -1 -54.5t-1 -55.5v-194h-94q-63 0 -99 37.5t-36 104.5v1213zM893 786q7 -22 9.5 -49.5t2.5 -46.5q0 -21 -2.5 -47.5t-9.5 -50.5h-361q-23 0 -60.5 0.5t-77 1.5t-70.5 1v188q31 1 70.5 1.5t77 1t60.5 0.5h361z
M1004 1366q5 -26 6 -49.5t1 -43.5t-4 -49t-14 -56h-461q-23 0 -60.5 0.5t-77 1t-70.5 1.5v195h680zM1045 196q0 -105 -32 -151.5t-123 -46.5h-566v189q52 3 101.5 6t112.5 3h507zM938 1724q-31 -109 -122.5 -180t-217.5 -71t-217.5 71t-122.5 180q22 25 58 38.5t71 12.5
q27 -59 84 -92.5t127 -33.5t127 33.5t84 92.5q36 1 71.5 -12.5t57.5 -38.5z" />
    <glyph glyph-name="Ecaron" unicode="&#x11a;" horiz-adv-x="1135" 
d="M174 1353l13 13h216v-192q0 -42 1 -70t1 -69v-733q0 -30 -1 -54.5t-1 -55.5v-194h-94q-63 0 -99 37.5t-36 104.5v1213zM893 786q7 -22 9.5 -49.5t2.5 -46.5q0 -21 -2.5 -47.5t-9.5 -50.5h-361q-23 0 -60.5 0.5t-77 1.5t-70.5 1v188q31 1 70.5 1.5t77 1t60.5 0.5h361z
M1004 1366q5 -26 6 -49.5t1 -43.5t-4 -49t-14 -56h-461q-23 0 -60.5 0.5t-77 1t-70.5 1.5v195h680zM1045 196q0 -105 -32 -151.5t-123 -46.5h-566v189q52 3 101.5 6t112.5 3h507zM825 1795q25 -9 55 -35t42 -63l-225 -213q-20 -5 -46 -7.5t-53 -2.5t-53 2.5t-46 7.5
l-225 213q12 37 42 63t55 35l227 -149z" />
    <glyph glyph-name="uni1E1C" unicode="&#x1e1c;" horiz-adv-x="1135" 
d="M174 1353l13 13h216v-192q0 -42 1 -70t1 -69v-733q0 -30 -1 -54.5t-1 -55.5v-194h-94q-63 0 -99 37.5t-36 104.5v1213zM893 786q7 -22 9.5 -49.5t2.5 -46.5q0 -21 -2.5 -47.5t-9.5 -50.5h-361q-23 0 -60.5 0.5t-77 1.5t-70.5 1v188q31 1 70.5 1.5t77 1t60.5 0.5h361z
M1004 1366q5 -26 6 -49.5t1 -43.5t-4 -49t-14 -56h-461q-23 0 -60.5 0.5t-77 1t-70.5 1.5v195h680zM1045 196q0 -105 -32 -151.5t-123 -46.5h-566v189q52 3 101.5 6t112.5 3h507zM488 -150q12 34 33.5 83t39.5 79h134q-10 -14 -23.5 -40.5t-20.5 -42.5q76 -7 128.5 -54.5
t52.5 -121.5q0 -90 -70 -146.5t-178 -56.5q-47 0 -90.5 12t-69.5 29q2 31 14 60t29 51q19 -11 45.5 -19t53.5 -8q44 0 64.5 21.5t20.5 51.5q0 31 -20.5 52.5t-59.5 21.5q-12 0 -24 -2.5t-22 -6.5q-12 5 -22.5 15.5t-14.5 21.5zM938 1724q-31 -109 -122.5 -180t-217.5 -71
t-217.5 71t-122.5 180q22 25 58 38.5t71 12.5q27 -59 84 -92.5t127 -33.5t127 33.5t84 92.5q36 1 71.5 -12.5t57.5 -38.5z" />
    <glyph glyph-name="Ecircumflex" unicode="&#xca;" horiz-adv-x="1135" 
d="M174 1353l13 13h216v-192q0 -42 1 -70t1 -69v-733q0 -30 -1 -54.5t-1 -55.5v-194h-94q-63 0 -99 37.5t-36 104.5v1213zM893 786q7 -22 9.5 -49.5t2.5 -46.5q0 -21 -2.5 -47.5t-9.5 -50.5h-361q-23 0 -60.5 0.5t-77 1.5t-70.5 1v188q31 1 70.5 1.5t77 1t60.5 0.5h361z
M1004 1366q5 -26 6 -49.5t1 -43.5t-4 -49t-14 -56h-461q-23 0 -60.5 0.5t-77 1t-70.5 1.5v195h680zM1045 196q0 -105 -32 -151.5t-123 -46.5h-566v189q52 3 101.5 6t112.5 3h507zM696 1785l225 -214q-12 -36 -42 -62.5t-56 -34.5l-226 149l-227 -149q-25 8 -55.5 34.5
t-41.5 62.5l224 214q21 3 47 5.5t53 2.5t52.5 -2.5t46.5 -5.5z" />
    <glyph glyph-name="uni1EBE" unicode="&#x1ebe;" horiz-adv-x="1135" 
d="M174 1353l13 13h216v-192q0 -42 1 -70t1 -69v-733q0 -30 -1 -54.5t-1 -55.5v-194h-94q-63 0 -99 37.5t-36 104.5v1213zM893 786q7 -22 9.5 -49.5t2.5 -46.5q0 -21 -2.5 -47.5t-9.5 -50.5h-361q-23 0 -60.5 0.5t-77 1.5t-70.5 1v188q31 1 70.5 1.5t77 1t60.5 0.5h361z
M1004 1366q5 -26 6 -49.5t1 -43.5t-4 -49t-14 -56h-461q-23 0 -60.5 0.5t-77 1t-70.5 1.5v195h680zM1045 196q0 -105 -32 -151.5t-123 -46.5h-566v189q52 3 101.5 6t112.5 3h507zM692 1769l223 -198q-10 -35 -38.5 -61.5t-53.5 -35.5l-227 149l-226 -149q-26 9 -54 35.5
t-39 61.5l223 198q20 4 45 6.5t51 2.5q27 0 51.5 -2.5t44.5 -6.5zM761 2143l-411 -207q3 -30 15 -61t35 -51l441 143q-4 52 -27 102.5t-53 73.5z" />
    <glyph glyph-name="uni1EC6" unicode="&#x1ec6;" horiz-adv-x="1135" 
d="M174 1353l13 13h216v-192q0 -42 1 -70t1 -69v-733q0 -30 -1 -54.5t-1 -55.5v-194h-94q-63 0 -99 37.5t-36 104.5v1213zM893 786q7 -22 9.5 -49.5t2.5 -46.5q0 -21 -2.5 -47.5t-9.5 -50.5h-361q-23 0 -60.5 0.5t-77 1.5t-70.5 1v188q31 1 70.5 1.5t77 1t60.5 0.5h361z
M1004 1366q5 -26 6 -49.5t1 -43.5t-4 -49t-14 -56h-461q-23 0 -60.5 0.5t-77 1t-70.5 1.5v195h680zM1045 196q0 -105 -32 -151.5t-123 -46.5h-566v189q52 3 101.5 6t112.5 3h507zM480 -241q0 24 5 49.5t14 46.5q18 11 52.5 18t65.5 7t66.5 -7t51.5 -18q9 -21 14 -46.5
t5 -49.5q0 -22 -5 -48t-14 -46q-17 -11 -52 -18.5t-66 -7.5t-64.5 7.5t-53.5 18.5q-9 20 -14 46t-5 48zM696 1785l225 -214q-12 -36 -42 -62.5t-56 -34.5l-226 149l-227 -149q-25 8 -55.5 34.5t-41.5 62.5l224 214q21 3 47 5.5t53 2.5t52.5 -2.5t46.5 -5.5z" />
    <glyph glyph-name="uni1EC0" unicode="&#x1ec0;" horiz-adv-x="1135" 
d="M174 1353l13 13h216v-192q0 -42 1 -70t1 -69v-733q0 -30 -1 -54.5t-1 -55.5v-194h-94q-63 0 -99 37.5t-36 104.5v1213zM893 786q7 -22 9.5 -49.5t2.5 -46.5q0 -21 -2.5 -47.5t-9.5 -50.5h-361q-23 0 -60.5 0.5t-77 1.5t-70.5 1v188q31 1 70.5 1.5t77 1t60.5 0.5h361z
M1004 1366q5 -26 6 -49.5t1 -43.5t-4 -49t-14 -56h-461q-23 0 -60.5 0.5t-77 1t-70.5 1.5v195h680zM1045 196q0 -105 -32 -151.5t-123 -46.5h-566v189q52 3 101.5 6t112.5 3h507zM500 1769q20 4 45 6.5t51 2.5q27 0 51.5 -2.5t44.5 -6.5l223 -198q-10 -35 -38.5 -61.5
t-54.5 -35.5l-226 149l-226 -149q-26 9 -54 35.5t-39 61.5zM431 2143q-29 -23 -52.5 -73.5t-26.5 -102.5l439 -143q24 20 36 51t15 61z" />
    <glyph glyph-name="uni1EC2" unicode="&#x1ec2;" horiz-adv-x="1135" 
d="M174 1353l13 13h216v-192q0 -42 1 -70t1 -69v-733q0 -30 -1 -54.5t-1 -55.5v-194h-94q-63 0 -99 37.5t-36 104.5v1213zM893 786q7 -22 9.5 -49.5t2.5 -46.5q0 -21 -2.5 -47.5t-9.5 -50.5h-361q-23 0 -60.5 0.5t-77 1.5t-70.5 1v188q31 1 70.5 1.5t77 1t60.5 0.5h361z
M1004 1366q5 -26 6 -49.5t1 -43.5t-4 -49t-14 -56h-461q-23 0 -60.5 0.5t-77 1t-70.5 1.5v195h680zM1045 196q0 -105 -32 -151.5t-123 -46.5h-566v189q52 3 101.5 6t112.5 3h507zM692 1769l223 -198q-10 -35 -38.5 -61.5t-53.5 -35.5l-227 149l-226 -149q-26 9 -54 35.5
t-39 61.5l223 198q20 4 45 6.5t51 2.5q27 0 51.5 -2.5t44.5 -6.5zM771 1857q49 18 78 41.5t29 55.5q0 24 -19 39.5t-51 15.5q-26 0 -50.5 -8.5t-47.5 -19.5q-20 20 -32 50.5t-12 59.5q32 19 81.5 34.5t103.5 15.5q93 0 144.5 -47.5t51.5 -116.5q0 -77 -62 -136.5t-158 -88.5
q-26 17 -40 45.5t-16 59.5z" />
    <glyph glyph-name="uni1EC4" unicode="&#x1ec4;" horiz-adv-x="1135" 
d="M174 1353l13 13h216v-192q0 -42 1 -70t1 -69v-733q0 -30 -1 -54.5t-1 -55.5v-194h-94q-63 0 -99 37.5t-36 104.5v1213zM893 786q7 -22 9.5 -49.5t2.5 -46.5q0 -21 -2.5 -47.5t-9.5 -50.5h-361q-23 0 -60.5 0.5t-77 1.5t-70.5 1v188q31 1 70.5 1.5t77 1t60.5 0.5h361z
M1004 1366q5 -26 6 -49.5t1 -43.5t-4 -49t-14 -56h-461q-23 0 -60.5 0.5t-77 1t-70.5 1.5v195h680zM1045 196q0 -105 -32 -151.5t-123 -46.5h-566v189q52 3 101.5 6t112.5 3h507zM518 1933q-13 7 -29 12t-33 5q-19 0 -37.5 -12.5t-34.5 -32.5l-20 -27q-31 1 -62.5 19.5
t-43.5 45.5l14 31q31 67 81.5 106.5t117.5 39.5q32 0 61 -9t52 -21l94 -48q14 -7 30.5 -12t31.5 -5q20 0 37.5 12.5t34.5 33.5l20 26q32 0 63 -18t43 -46l-14 -31q-31 -66 -81.5 -106t-117.5 -40q-32 0 -61 9t-52 21zM692 1769l223 -198q-10 -35 -38.5 -61.5t-53.5 -35.5
l-227 149l-226 -149q-26 9 -54 35.5t-39 61.5l223 198q20 4 45 6.5t51 2.5q27 0 51.5 -2.5t44.5 -6.5z" />
    <glyph glyph-name="uni0204" unicode="&#x204;" horiz-adv-x="1135" 
d="M174 1353l13 13h216v-192q0 -42 1 -70t1 -69v-733q0 -30 -1 -54.5t-1 -55.5v-194h-94q-63 0 -99 37.5t-36 104.5v1213zM893 786q7 -22 9.5 -49.5t2.5 -46.5q0 -21 -2.5 -47.5t-9.5 -50.5h-361q-23 0 -60.5 0.5t-77 1.5t-70.5 1v188q31 1 70.5 1.5t77 1t60.5 0.5h361z
M1004 1366q5 -26 6 -49.5t1 -43.5t-4 -49t-14 -56h-461q-23 0 -60.5 0.5t-77 1t-70.5 1.5v195h680zM1045 196q0 -105 -32 -151.5t-123 -46.5h-566v189q52 3 101.5 6t112.5 3h507zM293 1822l263 -273q-8 -30 -32.5 -56.5t-51.5 -38.5l-329 228q17 48 55.5 87t94.5 53z
M666 1822l263 -273q-8 -28 -32.5 -55.5t-52.5 -39.5l-329 228q18 48 56.5 87t94.5 53z" />
    <glyph glyph-name="Edieresis" unicode="&#xcb;" horiz-adv-x="1135" 
d="M174 1353l13 13h216v-192q0 -42 1 -70t1 -69v-733q0 -30 -1 -54.5t-1 -55.5v-194h-94q-63 0 -99 37.5t-36 104.5v1213zM893 786q7 -22 9.5 -49.5t2.5 -46.5q0 -21 -2.5 -47.5t-9.5 -50.5h-361q-23 0 -60.5 0.5t-77 1.5t-70.5 1v188q31 1 70.5 1.5t77 1t60.5 0.5h361z
M1004 1366q5 -26 6 -49.5t1 -43.5t-4 -49t-14 -56h-461q-23 0 -60.5 0.5t-77 1t-70.5 1.5v195h680zM1045 196q0 -105 -32 -151.5t-123 -46.5h-566v189q52 3 101.5 6t112.5 3h507zM812 1486q-28 0 -57 6.5t-50 18.5q-8 22 -11.5 45.5t-3.5 40.5q0 19 3.5 42t11.5 45
q21 13 50 19t57 6q27 0 56 -6t49 -19q9 -22 12.5 -45t3.5 -42q0 -17 -3.5 -40.5t-12.5 -45.5q-20 -12 -49 -18.5t-56 -6.5zM384 1486q-27 0 -56 6.5t-50 18.5q-8 22 -11.5 45.5t-3.5 40.5q0 19 3.5 42t11.5 45q21 13 50 19t56 6q28 0 57 -6t50 -19q9 -22 12 -45t3 -42
q0 -17 -3 -40.5t-12 -45.5q-21 -12 -50 -18.5t-57 -6.5z" />
    <glyph glyph-name="Edotaccent" unicode="&#x116;" horiz-adv-x="1135" 
d="M174 1353l13 13h216v-192q0 -42 1 -70t1 -69v-733q0 -30 -1 -54.5t-1 -55.5v-194h-94q-63 0 -99 37.5t-36 104.5v1213zM893 786q7 -22 9.5 -49.5t2.5 -46.5q0 -21 -2.5 -47.5t-9.5 -50.5h-361q-23 0 -60.5 0.5t-77 1.5t-70.5 1v188q31 1 70.5 1.5t77 1t60.5 0.5h361z
M1004 1366q5 -26 6 -49.5t1 -43.5t-4 -49t-14 -56h-461q-23 0 -60.5 0.5t-77 1t-70.5 1.5v195h680zM1045 196q0 -105 -32 -151.5t-123 -46.5h-566v189q52 3 101.5 6t112.5 3h507zM461 1607q0 23 5 48.5t14 45.5q20 12 53.5 19t64.5 7t66 -7t52 -19q9 -20 14 -46t5 -48
q0 -53 -19 -96q-16 -11 -51.5 -18t-66.5 -7t-65.5 7t-52.5 18q-19 43 -19 96z" />
    <glyph glyph-name="uni1EB8" unicode="&#x1eb8;" horiz-adv-x="1135" 
d="M174 1353l13 13h216v-192q0 -42 1 -70t1 -69v-733q0 -30 -1 -54.5t-1 -55.5v-194h-94q-63 0 -99 37.5t-36 104.5v1213zM893 786q7 -22 9.5 -49.5t2.5 -46.5q0 -21 -2.5 -47.5t-9.5 -50.5h-361q-23 0 -60.5 0.5t-77 1.5t-70.5 1v188q31 1 70.5 1.5t77 1t60.5 0.5h361z
M1004 1366q5 -26 6 -49.5t1 -43.5t-4 -49t-14 -56h-461q-23 0 -60.5 0.5t-77 1t-70.5 1.5v195h680zM1045 196q0 -105 -32 -151.5t-123 -46.5h-566v189q52 3 101.5 6t112.5 3h507zM480 -241q0 24 5 49.5t14 46.5q18 11 52.5 18t65.5 7t66.5 -7t51.5 -18q9 -21 14 -46.5
t5 -49.5q0 -22 -5 -48t-14 -46q-17 -11 -52 -18.5t-66 -7.5t-64.5 7.5t-53.5 18.5q-9 20 -14 46t-5 48z" />
    <glyph glyph-name="Egrave" unicode="&#xc8;" horiz-adv-x="1135" 
d="M174 1353l13 13h216v-192q0 -42 1 -70t1 -69v-733q0 -30 -1 -54.5t-1 -55.5v-194h-94q-63 0 -99 37.5t-36 104.5v1213zM893 786q7 -22 9.5 -49.5t2.5 -46.5q0 -21 -2.5 -47.5t-9.5 -50.5h-361q-23 0 -60.5 0.5t-77 1.5t-70.5 1v188q31 1 70.5 1.5t77 1t60.5 0.5h361z
M1004 1366q5 -26 6 -49.5t1 -43.5t-4 -49t-14 -56h-461q-23 0 -60.5 0.5t-77 1t-70.5 1.5v195h680zM1045 196q0 -105 -32 -151.5t-123 -46.5h-566v189q52 3 101.5 6t112.5 3h507zM420 1820q-21 -15 -42.5 -45t-37 -66t-19.5 -72l445 -181q29 18 45.5 51t22.5 65z" />
    <glyph glyph-name="uni1EBA" unicode="&#x1eba;" horiz-adv-x="1135" 
d="M174 1353l13 13h216v-192q0 -42 1 -70t1 -69v-733q0 -30 -1 -54.5t-1 -55.5v-194h-94q-63 0 -99 37.5t-36 104.5v1213zM893 786q7 -22 9.5 -49.5t2.5 -46.5q0 -21 -2.5 -47.5t-9.5 -50.5h-361q-23 0 -60.5 0.5t-77 1.5t-70.5 1v188q31 1 70.5 1.5t77 1t60.5 0.5h361z
M1004 1366q5 -26 6 -49.5t1 -43.5t-4 -49t-14 -56h-461q-23 0 -60.5 0.5t-77 1t-70.5 1.5v195h680zM1045 196q0 -105 -32 -151.5t-123 -46.5h-566v189q52 3 101.5 6t112.5 3h507zM505 1561q58 19 92 45t34 59q0 27 -21 44t-57 17q-30 0 -57.5 -8.5t-53.5 -22.5
q-22 23 -33 53.5t-12 61.5q36 21 89.5 37t112.5 16q101 0 158 -50t57 -124q0 -80 -70 -142.5t-178 -94.5q-27 17 -43 47t-18 62z" />
    <glyph glyph-name="uni0206" unicode="&#x206;" horiz-adv-x="1135" 
d="M174 1353l13 13h216v-192q0 -42 1 -70t1 -69v-733q0 -30 -1 -54.5t-1 -55.5v-194h-94q-63 0 -99 37.5t-36 104.5v1213zM893 786q7 -22 9.5 -49.5t2.5 -46.5q0 -21 -2.5 -47.5t-9.5 -50.5h-361q-23 0 -60.5 0.5t-77 1.5t-70.5 1v188q31 1 70.5 1.5t77 1t60.5 0.5h361z
M1004 1366q5 -26 6 -49.5t1 -43.5t-4 -49t-14 -56h-461q-23 0 -60.5 0.5t-77 1t-70.5 1.5v195h680zM1045 196q0 -105 -32 -151.5t-123 -46.5h-566v189q52 3 101.5 6t112.5 3h507zM938 1542q-22 -25 -57.5 -38.5t-71.5 -12.5q-27 58 -84 92t-127 34t-127 -34t-84 -92
q-35 -1 -71 12.5t-58 38.5q31 110 122.5 180t217.5 70t217.5 -70t122.5 -180z" />
    <glyph glyph-name="Emacron" unicode="&#x112;" horiz-adv-x="1135" 
d="M174 1353l13 13h216v-192q0 -42 1 -70t1 -69v-733q0 -30 -1 -54.5t-1 -55.5v-194h-94q-63 0 -99 37.5t-36 104.5v1213zM893 786q7 -22 9.5 -49.5t2.5 -46.5q0 -21 -2.5 -47.5t-9.5 -50.5h-361q-23 0 -60.5 0.5t-77 1.5t-70.5 1v188q31 1 70.5 1.5t77 1t60.5 0.5h361z
M1004 1366q5 -26 6 -49.5t1 -43.5t-4 -49t-14 -56h-461q-23 0 -60.5 0.5t-77 1t-70.5 1.5v195h680zM1045 196q0 -105 -32 -151.5t-123 -46.5h-566v189q52 3 101.5 6t112.5 3h507zM297 1512q-7 22 -9.5 42t-2.5 46q0 25 2.5 45.5t9.5 43.5h603q6 -23 8.5 -41.5t2.5 -46.5
q0 -48 -11 -89h-603z" />
    <glyph glyph-name="uni1E16" unicode="&#x1e16;" horiz-adv-x="1135" 
d="M174 1353l13 13h216v-192q0 -42 1 -70t1 -69v-733q0 -30 -1 -54.5t-1 -55.5v-194h-94q-63 0 -99 37.5t-36 104.5v1213zM893 786q7 -22 9.5 -49.5t2.5 -46.5q0 -21 -2.5 -47.5t-9.5 -50.5h-361q-23 0 -60.5 0.5t-77 1.5t-70.5 1v188q31 1 70.5 1.5t77 1t60.5 0.5h361z
M1004 1366q5 -26 6 -49.5t1 -43.5t-4 -49t-14 -56h-461q-23 0 -60.5 0.5t-77 1t-70.5 1.5v195h680zM1045 196q0 -105 -32 -151.5t-123 -46.5h-566v189q52 3 101.5 6t112.5 3h507zM297 1512q-7 22 -9.5 42t-2.5 46q0 25 2.5 45.5t9.5 43.5h603q6 -23 8.5 -41.5t2.5 -46.5
q0 -48 -11 -89h-603zM801 2140q21 -15 42 -45t36 -66t19 -72l-444 -181q-26 16 -44.5 51t-22.5 65z" />
    <glyph glyph-name="uni1E14" unicode="&#x1e14;" horiz-adv-x="1135" 
d="M174 1353l13 13h216v-192q0 -42 1 -70t1 -69v-733q0 -30 -1 -54.5t-1 -55.5v-194h-94q-63 0 -99 37.5t-36 104.5v1213zM893 786q7 -22 9.5 -49.5t2.5 -46.5q0 -21 -2.5 -47.5t-9.5 -50.5h-361q-23 0 -60.5 0.5t-77 1.5t-70.5 1v188q31 1 70.5 1.5t77 1t60.5 0.5h361z
M1004 1366q5 -26 6 -49.5t1 -43.5t-4 -49t-14 -56h-461q-23 0 -60.5 0.5t-77 1t-70.5 1.5v195h680zM1045 196q0 -105 -32 -151.5t-123 -46.5h-566v189q52 3 101.5 6t112.5 3h507zM297 1512q-7 22 -9.5 42t-2.5 46q0 25 2.5 45.5t9.5 43.5h603q6 -23 8.5 -41.5t2.5 -46.5
q0 -48 -11 -89h-603zM420 2140q-21 -15 -42.5 -45t-37 -66t-19.5 -72l445 -181q29 18 45.5 51t22.5 65z" />
    <glyph glyph-name="Eogonek" unicode="&#x118;" horiz-adv-x="1135" 
d="M987 -254q20 -16 35 -44.5t17 -63.5q-37 -31 -95.5 -52t-122.5 -21q-95 0 -157.5 50.5t-62.5 140.5q0 93 63 168.5t149 118.5q38 6 83 -4t66 -31q-88 -35 -135 -93.5t-47 -113.5q0 -43 26.5 -64.5t66.5 -21.5q32 0 61.5 10t52.5 21zM174 1353l13 13h216v-192q0 -42 1 -70
t1 -69v-733q0 -30 -1 -54.5t-1 -55.5v-194h-94q-63 0 -99 37.5t-36 104.5v1213zM893 786q7 -22 9.5 -49.5t2.5 -46.5q0 -21 -2.5 -47.5t-9.5 -50.5h-361q-23 0 -60.5 0.5t-77 1.5t-70.5 1v188q31 1 70.5 1.5t77 1t60.5 0.5h361zM1004 1366q5 -26 6 -49.5t1 -43.5t-4 -49
t-14 -56h-461q-23 0 -60.5 0.5t-77 1t-70.5 1.5v195h680zM1045 196q0 -94 -19.5 -132t-63.5 -56q-29 -10 -72 -10h-566v189q52 3 101.5 6t112.5 3h507z" />
    <glyph glyph-name="uni1EBC" unicode="&#x1ebc;" horiz-adv-x="1135" 
d="M174 1353l13 13h216v-192q0 -42 1 -70t1 -69v-733q0 -30 -1 -54.5t-1 -55.5v-194h-94q-63 0 -99 37.5t-36 104.5v1213zM893 786q7 -22 9.5 -49.5t2.5 -46.5q0 -21 -2.5 -47.5t-9.5 -50.5h-361q-23 0 -60.5 0.5t-77 1.5t-70.5 1v188q31 1 70.5 1.5t77 1t60.5 0.5h361z
M1004 1366q5 -26 6 -49.5t1 -43.5t-4 -49t-14 -56h-461q-23 0 -60.5 0.5t-77 1t-70.5 1.5v195h680zM1045 196q0 -105 -32 -151.5t-123 -46.5h-566v189q52 3 101.5 6t112.5 3h507zM508 1566q-16 8 -32 13t-33 5q-20 0 -40.5 -13.5t-37.5 -36.5l-22 -28q-33 1 -67 20.5
t-47 48.5l15 34q32 72 87 114.5t128 42.5q34 0 65 -10t56 -22l103 -49q17 -9 35.5 -14.5t34.5 -5.5q20 0 40 12.5t38 36.5l21 28q33 -1 68 -20.5t47 -48.5l-15 -34q-32 -72 -87 -114.5t-128 -42.5q-35 0 -66.5 10t-55.5 21z" />
    <glyph glyph-name="uni018F" unicode="&#x18f;" horiz-adv-x="1270" 
d="M1003 774v-194h-661v-75q0 -156 69.5 -251.5t203.5 -95.5q148 0 231.5 119t83.5 329v134q0 218 -102 336t-283 118q-82 0 -166 -24.5t-166 -69.5q-39 32 -60.5 82.5t-19.5 96.5q99 53 210.5 83t225.5 30q284 0 446 -184t162 -536q0 -221 -68 -377.5t-195 -238.5t-305 -82
q-167 0 -281 72.5t-172.5 207.5t-58.5 322q0 50 5 103t13 95h888z" />
    <glyph glyph-name="F" unicode="F" horiz-adv-x="1048" 
d="M410 0q-28 -5 -58.5 -6.5t-57.5 -1.5q-26 0 -58.5 1.5t-60.5 6.5v1354l14 12h219v-103q0 -79 1 -159t1 -156v-948zM993 1366q7 -20 9.5 -45t2.5 -47q0 -57 -32 -82.5t-98 -25.5h-285q-81 0 -148 1.5t-126 3.5v195h677zM884 783q6 -22 8.5 -50t2.5 -47q0 -20 -2.5 -47.5
t-8.5 -49.5h-399q-38 0 -83 1t-81 2v188q36 1 81 2t83 1h399z" />
    <glyph glyph-name="G" unicode="G" horiz-adv-x="1291" 
d="M1166 1247q-7 -53 -41.5 -101t-69.5 -72q-72 53 -164 86.5t-186 33.5q-106 0 -189.5 -51.5t-132 -166t-48.5 -305.5q0 -259 96.5 -383t287.5 -124q104 0 192 23t137 41l120 -170q-59 -22 -139 -41t-170 -31t-182 -12q-159 0 -270.5 54.5t-180.5 150.5t-100.5 223
t-31.5 271q0 189 50.5 325.5t137 223.5t194.5 128.5t223 41.5q126 0 250.5 -39.5t216.5 -105.5zM946 401q0 70 4 133.5t17 113.5l201 -68v-522l-222 -4v347zM1005 730q92 0 127.5 -40t35.5 -110v-49h-375q-30 0 -56.5 7.5t-42 29t-15.5 63.5q0 24 5 51t12 48h309z" />
    <glyph glyph-name="Gbreve" unicode="&#x11e;" horiz-adv-x="1291" 
d="M1166 1247q-7 -53 -41.5 -101t-69.5 -72q-72 53 -164 86.5t-186 33.5q-106 0 -189.5 -51.5t-132 -166t-48.5 -305.5q0 -259 96.5 -383t287.5 -124q104 0 192 23t137 41l120 -170q-59 -22 -139 -41t-170 -31t-182 -12q-159 0 -270.5 54.5t-180.5 150.5t-100.5 223
t-31.5 271q0 189 50.5 325.5t137 223.5t194.5 128.5t223 41.5q126 0 250.5 -39.5t216.5 -105.5zM946 401q0 70 4 133.5t17 113.5l201 -68v-522l-222 -4v347zM1005 730q92 0 127.5 -40t35.5 -110v-49h-375q-30 0 -56.5 7.5t-42 29t-15.5 63.5q0 24 5 51t12 48h309zM1031 1724
q-31 -109 -122.5 -180t-217.5 -71t-217.5 71t-122.5 180q22 25 58 38.5t71 12.5q27 -59 84 -92.5t127 -33.5t127 33.5t84 92.5q36 1 71.5 -12.5t57.5 -38.5z" />
    <glyph glyph-name="Gcaron" unicode="&#x1e6;" horiz-adv-x="1291" 
d="M1166 1247q-7 -53 -41.5 -101t-69.5 -72q-72 53 -164 86.5t-186 33.5q-106 0 -189.5 -51.5t-132 -166t-48.5 -305.5q0 -259 96.5 -383t287.5 -124q104 0 192 23t137 41l120 -170q-59 -22 -139 -41t-170 -31t-182 -12q-159 0 -270.5 54.5t-180.5 150.5t-100.5 223
t-31.5 271q0 189 50.5 325.5t137 223.5t194.5 128.5t223 41.5q126 0 250.5 -39.5t216.5 -105.5zM946 401q0 70 4 133.5t17 113.5l201 -68v-522l-222 -4v347zM1005 730q92 0 127.5 -40t35.5 -110v-49h-375q-30 0 -56.5 7.5t-42 29t-15.5 63.5q0 24 5 51t12 48h309zM918 1795
q25 -9 55 -35t42 -63l-225 -213q-20 -5 -46 -7.5t-53 -2.5t-53 2.5t-46 7.5l-225 213q12 37 42 63t55 35l227 -149z" />
    <glyph glyph-name="Gcircumflex" unicode="&#x11c;" horiz-adv-x="1291" 
d="M1166 1247q-7 -53 -41.5 -101t-69.5 -72q-72 53 -164 86.5t-186 33.5q-106 0 -189.5 -51.5t-132 -166t-48.5 -305.5q0 -259 96.5 -383t287.5 -124q104 0 192 23t137 41l120 -170q-59 -22 -139 -41t-170 -31t-182 -12q-159 0 -270.5 54.5t-180.5 150.5t-100.5 223
t-31.5 271q0 189 50.5 325.5t137 223.5t194.5 128.5t223 41.5q126 0 250.5 -39.5t216.5 -105.5zM946 401q0 70 4 133.5t17 113.5l201 -68v-522l-222 -4v347zM1005 730q92 0 127.5 -40t35.5 -110v-49h-375q-30 0 -56.5 7.5t-42 29t-15.5 63.5q0 24 5 51t12 48h309zM789 1785
l225 -214q-12 -36 -42 -62.5t-56 -34.5l-226 149l-227 -149q-25 8 -55.5 34.5t-41.5 62.5l224 214q21 3 47 5.5t53 2.5t52.5 -2.5t46.5 -5.5z" />
    <glyph glyph-name="uni0122" unicode="&#x122;" horiz-adv-x="1291" 
d="M1166 1247q-7 -53 -41.5 -101t-69.5 -72q-72 53 -164 86.5t-186 33.5q-106 0 -189.5 -51.5t-132 -166t-48.5 -305.5q0 -259 96.5 -383t287.5 -124q104 0 192 23t137 41l120 -170q-59 -22 -139 -41t-170 -31t-182 -12q-159 0 -270.5 54.5t-180.5 150.5t-100.5 223
t-31.5 271q0 189 50.5 325.5t137 223.5t194.5 128.5t223 41.5q126 0 250.5 -39.5t216.5 -105.5zM946 401q0 70 4 133.5t17 113.5l201 -68v-522l-222 -4v347zM1005 730q92 0 127.5 -40t35.5 -110v-49h-375q-30 0 -56.5 7.5t-42 29t-15.5 63.5q0 24 5 51t12 48h309zM789 -122
q9 -18 14.5 -48.5t5.5 -59.5q0 -105 -70 -187.5t-189 -126.5q-28 10 -47.5 36.5t-25.5 59.5q122 78 122 194q0 26 -6.5 54t-19.5 51q57 38 140 38q20 0 39.5 -3t36.5 -8z" />
    <glyph glyph-name="Gdotaccent" unicode="&#x120;" horiz-adv-x="1291" 
d="M1166 1247q-7 -53 -41.5 -101t-69.5 -72q-72 53 -164 86.5t-186 33.5q-106 0 -189.5 -51.5t-132 -166t-48.5 -305.5q0 -259 96.5 -383t287.5 -124q104 0 192 23t137 41l120 -170q-59 -22 -139 -41t-170 -31t-182 -12q-159 0 -270.5 54.5t-180.5 150.5t-100.5 223
t-31.5 271q0 189 50.5 325.5t137 223.5t194.5 128.5t223 41.5q126 0 250.5 -39.5t216.5 -105.5zM946 401q0 70 4 133.5t17 113.5l201 -68v-522l-222 -4v347zM1005 730q92 0 127.5 -40t35.5 -110v-49h-375q-30 0 -56.5 7.5t-42 29t-15.5 63.5q0 24 5 51t12 48h309zM554 1607
q0 23 5 48.5t14 45.5q20 12 53.5 19t64.5 7t66 -7t52 -19q9 -20 14 -46t5 -48q0 -53 -19 -96q-16 -11 -51.5 -18t-66.5 -7t-65.5 7t-52.5 18q-19 43 -19 96z" />
    <glyph glyph-name="uni1E20" unicode="&#x1e20;" horiz-adv-x="1291" 
d="M1166 1247q-7 -53 -41.5 -101t-69.5 -72q-72 53 -164 86.5t-186 33.5q-106 0 -189.5 -51.5t-132 -166t-48.5 -305.5q0 -259 96.5 -383t287.5 -124q104 0 192 23t137 41l120 -170q-59 -22 -139 -41t-170 -31t-182 -12q-159 0 -270.5 54.5t-180.5 150.5t-100.5 223
t-31.5 271q0 189 50.5 325.5t137 223.5t194.5 128.5t223 41.5q126 0 250.5 -39.5t216.5 -105.5zM946 401q0 70 4 133.5t17 113.5l201 -68v-522l-222 -4v347zM1005 730q92 0 127.5 -40t35.5 -110v-49h-375q-30 0 -56.5 7.5t-42 29t-15.5 63.5q0 24 5 51t12 48h309zM390 1512
q-7 22 -9.5 42t-2.5 46q0 25 2.5 45.5t9.5 43.5h603q6 -23 8.5 -41.5t2.5 -46.5q0 -48 -11 -89h-603z" />
    <glyph glyph-name="H" unicode="H" horiz-adv-x="1354" 
d="M1062 -8q-27 0 -59 1.5t-59 6.5v459q0 42 1 75t1 73v196q0 41 -1 73.5t-1 74.5v415q27 5 58.5 6.5t57.5 1.5q25 0 58.5 -1.5t60.5 -6.5v-1366q-28 -5 -59 -6.5t-58 -1.5zM291 -8q-23 0 -56.5 1.5t-59.5 6.5v1366q26 5 59.5 6.5t56.5 1.5q27 0 59.5 -1.5t59.5 -6.5v-415
q0 -42 -1 -74.5t-1 -73.5v-196q0 -40 1 -73t1 -75v-459q-27 -5 -59.5 -6.5t-59.5 -1.5zM268 605v200q35 0 70.5 -1t69.5 -1q12 0 34 0.5t44.5 1t32.5 0.5h316q10 0 32.5 -0.5l45 -1t33.5 -0.5q34 0 69.5 1t69.5 1v-200q-34 0 -69.5 1t-69.5 1q-11 0 -33.5 -0.5l-45 -1
t-32.5 -0.5h-316q-10 0 -32.5 0.5t-44.5 1t-34 0.5q-34 0 -69.5 -1t-70.5 -1z" />
    <glyph glyph-name="Hbar" unicode="&#x126;" horiz-adv-x="1372" 
d="M45 986q-6 22 -8.5 42t-2.5 46q0 25 2.5 46t8.5 45h1283q5 -24 7.5 -43t2.5 -46q0 -48 -10 -90h-1283zM528 603q-10 0 -32.5 0.5t-44.5 1t-34 0.5q-34 0 -69.5 -1t-70.5 -1v197q35 0 70.5 -1t69.5 -1q12 0 34 0.5t44.5 1t32.5 0.5h316q11 0 33 -0.5t44.5 -1t33.5 -0.5
q34 0 70 1t70 1v-197q-34 0 -70 1t-70 1q-11 0 -33.5 -0.5t-44.5 -1t-33 -0.5h-316zM419 0q-27 -5 -59.5 -6.5t-59.5 -1.5q-23 0 -56.5 1.5t-59.5 6.5v1366q26 5 59.5 6.5t56.5 1.5q27 0 59.5 -1.5t59.5 -6.5v-418q0 -42 -1 -75.5t-1 -74.5v-193q0 -40 1 -73t1 -75v-457z
M953 457q0 42 1 75t1 73v193q0 41 -1 74.5t-1 75.5v418q27 5 59 6.5t57 1.5t58.5 -1.5t60.5 -6.5v-1366q-28 -5 -59 -6.5t-58 -1.5t-59 1.5t-59 6.5v457z" />
    <glyph glyph-name="uni1E2A" unicode="&#x1e2a;" horiz-adv-x="1354" 
d="M1062 -8q-27 0 -59 1.5t-59 6.5v459q0 42 1 75t1 73v196q0 41 -1 73.5t-1 74.5v415q27 5 58.5 6.5t57.5 1.5q25 0 58.5 -1.5t60.5 -6.5v-1366q-28 -5 -59 -6.5t-58 -1.5zM291 -8q-23 0 -56.5 1.5t-59.5 6.5v1366q26 5 59.5 6.5t56.5 1.5q27 0 59.5 -1.5t59.5 -6.5v-415
q0 -42 -1 -74.5t-1 -73.5v-196q0 -40 1 -73t1 -75v-459q-27 -5 -59.5 -6.5t-59.5 -1.5zM268 605v200q35 0 70.5 -1t69.5 -1q12 0 34 0.5t44.5 1t32.5 0.5h316q10 0 32.5 -0.5l45 -1t33.5 -0.5q34 0 69.5 1t69.5 1v-200q-34 0 -69.5 1t-69.5 1q-11 0 -33.5 -0.5l-45 -1
t-32.5 -0.5h-316q-10 0 -32.5 0.5t-44.5 1t-34 0.5q-34 0 -69.5 -1t-70.5 -1zM1017 -171q-31 -109 -122.5 -180t-217.5 -71t-217.5 71t-122.5 180q22 25 58 38t71 13q27 -59 84 -93t127 -34t127 34t84 93q36 0 71.5 -13t57.5 -38z" />
    <glyph glyph-name="Hcircumflex" unicode="&#x124;" horiz-adv-x="1354" 
d="M1062 -8q-27 0 -59 1.5t-59 6.5v459q0 42 1 75t1 73v196q0 41 -1 73.5t-1 74.5v415q27 5 58.5 6.5t57.5 1.5q25 0 58.5 -1.5t60.5 -6.5v-1366q-28 -5 -59 -6.5t-58 -1.5zM291 -8q-23 0 -56.5 1.5t-59.5 6.5v1366q26 5 59.5 6.5t56.5 1.5q27 0 59.5 -1.5t59.5 -6.5v-415
q0 -42 -1 -74.5t-1 -73.5v-196q0 -40 1 -73t1 -75v-459q-27 -5 -59.5 -6.5t-59.5 -1.5zM268 605v200q35 0 70.5 -1t69.5 -1q12 0 34 0.5t44.5 1t32.5 0.5h316q10 0 32.5 -0.5l45 -1t33.5 -0.5q34 0 69.5 1t69.5 1v-200q-34 0 -69.5 1t-69.5 1q-11 0 -33.5 -0.5l-45 -1
t-32.5 -0.5h-316q-10 0 -32.5 0.5t-44.5 1t-34 0.5q-34 0 -69.5 -1t-70.5 -1zM774 1786l225 -214q-12 -36 -42 -62.5t-56 -34.5l-226 149l-227 -149q-25 8 -55.5 34.5t-41.5 62.5l224 214q21 3 47 5.5t53 2.5t52.5 -2.5t46.5 -5.5z" />
    <glyph glyph-name="uni1E24" unicode="&#x1e24;" horiz-adv-x="1354" 
d="M1062 -8q-27 0 -59 1.5t-59 6.5v459q0 42 1 75t1 73v196q0 41 -1 73.5t-1 74.5v415q27 5 58.5 6.5t57.5 1.5q25 0 58.5 -1.5t60.5 -6.5v-1366q-28 -5 -59 -6.5t-58 -1.5zM291 -8q-23 0 -56.5 1.5t-59.5 6.5v1366q26 5 59.5 6.5t56.5 1.5q27 0 59.5 -1.5t59.5 -6.5v-415
q0 -42 -1 -74.5t-1 -73.5v-196q0 -40 1 -73t1 -75v-459q-27 -5 -59.5 -6.5t-59.5 -1.5zM268 605v200q35 0 70.5 -1t69.5 -1q12 0 34 0.5t44.5 1t32.5 0.5h316q10 0 32.5 -0.5l45 -1t33.5 -0.5q34 0 69.5 1t69.5 1v-200q-34 0 -69.5 1t-69.5 1q-11 0 -33.5 -0.5l-45 -1
t-32.5 -0.5h-316q-10 0 -32.5 0.5t-44.5 1t-34 0.5q-34 0 -69.5 -1t-70.5 -1zM540 -241q0 24 5 49.5t14 46.5q18 11 52.5 18t65.5 7t66.5 -7t51.5 -18q9 -21 14 -46.5t5 -49.5q0 -22 -5 -48t-14 -46q-17 -11 -52 -18.5t-66 -7.5t-64.5 7.5t-53.5 18.5q-9 20 -14 46t-5 48z
" />
    <glyph glyph-name="I" unicode="I" horiz-adv-x="596" 
d="M181 1366q26 5 59 6.5t57 1.5q27 0 59 -1.5t59 -6.5v-1366q-27 -5 -59 -6.5t-59 -1.5q-24 0 -57 1.5t-59 6.5v1366z" />
    <glyph glyph-name="IJ" unicode="&#x132;" horiz-adv-x="1502" 
d="M181 1366q26 5 59 6.5t57 1.5q27 0 59 -1.5t59 -6.5v-1366q-27 -5 -59 -6.5t-59 -1.5q-24 0 -57 1.5t-59 6.5v1366zM702 240q44 -27 99 -45.5t109 -18.5q119 0 162.5 72t43.5 224v894q27 5 60 6.5t58 1.5q26 0 57.5 -1.5t58.5 -6.5v-864q0 -111 -16.5 -206t-61 -166
t-127.5 -110.5t-215 -39.5q-77 0 -162.5 22t-151.5 62q8 48 30.5 94t55.5 82z" />
    <glyph glyph-name="Iacute" unicode="&#xcd;" horiz-adv-x="596" 
d="M181 1366q26 5 59 6.5t57 1.5q27 0 59 -1.5t59 -6.5v-1366q-27 -5 -59 -6.5t-59 -1.5q-24 0 -57 1.5t-59 6.5v1366zM501 1821q21 -15 42 -45t36 -66t19 -72l-444 -181q-26 16 -44.5 51t-22.5 65z" />
    <glyph glyph-name="Ibreve" unicode="&#x12c;" horiz-adv-x="596" 
d="M181 1366q26 5 59 6.5t57 1.5q27 0 59 -1.5t59 -6.5v-1366q-27 -5 -59 -6.5t-59 -1.5q-24 0 -57 1.5t-59 6.5v1366zM638 1725q-31 -109 -122.5 -180t-217.5 -71t-217.5 71t-122.5 180q22 25 58 38.5t71 12.5q27 -59 84 -92.5t127 -33.5t127 33.5t84 92.5q36 1 71.5 -12.5
t57.5 -38.5z" />
    <glyph glyph-name="Icircumflex" unicode="&#xce;" horiz-adv-x="596" 
d="M181 1366q26 5 59 6.5t57 1.5q27 0 59 -1.5t59 -6.5v-1366q-27 -5 -59 -6.5t-59 -1.5q-24 0 -57 1.5t-59 6.5v1366zM396 1786l225 -214q-12 -36 -42 -62.5t-56 -34.5l-226 149l-227 -149q-25 8 -55.5 34.5t-41.5 62.5l224 214q21 3 47 5.5t53 2.5t52.5 -2.5t46.5 -5.5z
" />
    <glyph glyph-name="uni0208" unicode="&#x208;" horiz-adv-x="596" 
d="M181 1366q26 5 59 6.5t57 1.5q27 0 59 -1.5t59 -6.5v-1366q-27 -5 -59 -6.5t-59 -1.5q-24 0 -57 1.5t-59 6.5v1366zM-7 1823l263 -273q-8 -30 -32.5 -56.5t-51.5 -38.5l-329 228q17 48 55.5 87t94.5 53zM366 1823l263 -273q-8 -28 -32.5 -55.5t-52.5 -39.5l-329 228
q18 48 56.5 87t94.5 53z" />
    <glyph glyph-name="Idieresis" unicode="&#xcf;" horiz-adv-x="596" 
d="M181 1366q26 5 59 6.5t57 1.5q27 0 59 -1.5t59 -6.5v-1366q-27 -5 -59 -6.5t-59 -1.5q-24 0 -57 1.5t-59 6.5v1366zM512 1487q-28 0 -57 6.5t-50 18.5q-8 22 -11.5 45.5t-3.5 40.5q0 19 3.5 42t11.5 45q21 13 50 19t57 6q27 0 56 -6t49 -19q9 -22 12.5 -45t3.5 -42
q0 -17 -3.5 -40.5t-12.5 -45.5q-20 -12 -49 -18.5t-56 -6.5zM84 1487q-27 0 -56 6.5t-50 18.5q-8 22 -11.5 45.5t-3.5 40.5q0 19 3.5 42t11.5 45q21 13 50 19t56 6q28 0 57 -6t50 -19q9 -22 12 -45t3 -42q0 -17 -3 -40.5t-12 -45.5q-21 -12 -50 -18.5t-57 -6.5z" />
    <glyph glyph-name="uni1E2E" unicode="&#x1e2e;" horiz-adv-x="596" 
d="M181 1366q26 5 59 6.5t57 1.5q27 0 59 -1.5t59 -6.5v-1366q-27 -5 -59 -6.5t-59 -1.5q-24 0 -57 1.5t-59 6.5v1366zM512 1487q-28 0 -57 6.5t-50 18.5q-8 22 -11.5 45.5t-3.5 40.5q0 19 3.5 42t11.5 45q21 13 50 19t57 6q27 0 56 -6t49 -19q9 -22 12.5 -45t3.5 -42
q0 -17 -3.5 -40.5t-12.5 -45.5q-20 -12 -49 -18.5t-56 -6.5zM84 1487q-27 0 -56 6.5t-50 18.5q-8 22 -11.5 45.5t-3.5 40.5q0 19 3.5 42t11.5 45q21 13 50 19t56 6q28 0 57 -6t50 -19q9 -22 12 -45t3 -42q0 -17 -3 -40.5t-12 -45.5q-21 -12 -50 -18.5t-57 -6.5zM501 2133
q21 -15 42 -45t36 -66t19 -72l-444 -181q-26 16 -44.5 51t-22.5 65z" />
    <glyph glyph-name="Idotaccent" unicode="&#x130;" horiz-adv-x="596" 
d="M181 1366q26 5 59 6.5t57 1.5q27 0 59 -1.5t59 -6.5v-1366q-27 -5 -59 -6.5t-59 -1.5q-24 0 -57 1.5t-59 6.5v1366zM161 1608q0 23 5 48.5t14 45.5q20 12 53.5 19t64.5 7t66 -7t52 -19q9 -20 14 -46t5 -48q0 -53 -19 -96q-16 -11 -51.5 -18t-66.5 -7t-65.5 7t-52.5 18
q-19 43 -19 96z" />
    <glyph glyph-name="uni1ECA" unicode="&#x1eca;" horiz-adv-x="596" 
d="M181 1366q26 5 59 6.5t57 1.5q27 0 59 -1.5t59 -6.5v-1366q-27 -5 -59 -6.5t-59 -1.5q-24 0 -57 1.5t-59 6.5v1366zM160 -241q0 24 5 49.5t14 46.5q18 11 52.5 18t65.5 7t66.5 -7t51.5 -18q9 -21 14 -46.5t5 -49.5q0 -22 -5 -48t-14 -46q-17 -11 -52 -18.5t-66 -7.5
t-64.5 7.5t-53.5 18.5q-9 20 -14 46t-5 48z" />
    <glyph glyph-name="Igrave" unicode="&#xcc;" horiz-adv-x="596" 
d="M181 1366q26 5 59 6.5t57 1.5q27 0 59 -1.5t59 -6.5v-1366q-27 -5 -59 -6.5t-59 -1.5q-24 0 -57 1.5t-59 6.5v1366zM120 1821q-21 -15 -42.5 -45t-37 -66t-19.5 -72l445 -181q29 18 45.5 51t22.5 65z" />
    <glyph glyph-name="uni1EC8" unicode="&#x1ec8;" horiz-adv-x="596" 
d="M181 1366q26 5 59 6.5t57 1.5q27 0 59 -1.5t59 -6.5v-1366q-27 -5 -59 -6.5t-59 -1.5q-24 0 -57 1.5t-59 6.5v1366zM205 1562q58 19 92 45t34 59q0 27 -21 44t-57 17q-30 0 -57.5 -8.5t-53.5 -22.5q-22 23 -33 53.5t-12 61.5q36 21 89.5 37t112.5 16q101 0 158 -50
t57 -124q0 -80 -70 -142.5t-178 -94.5q-27 17 -43 47t-18 62z" />
    <glyph glyph-name="uni020A" unicode="&#x20a;" horiz-adv-x="596" 
d="M181 1366q26 5 59 6.5t57 1.5q27 0 59 -1.5t59 -6.5v-1366q-27 -5 -59 -6.5t-59 -1.5q-24 0 -57 1.5t-59 6.5v1366zM638 1543q-22 -25 -57.5 -38.5t-71.5 -12.5q-27 58 -84 92t-127 34t-127 -34t-84 -92q-35 -1 -71 12.5t-58 38.5q31 110 122.5 180t217.5 70t217.5 -70
t122.5 -180z" />
    <glyph glyph-name="Imacron" unicode="&#x12a;" horiz-adv-x="596" 
d="M181 1366q26 5 59 6.5t57 1.5q27 0 59 -1.5t59 -6.5v-1366q-27 -5 -59 -6.5t-59 -1.5q-24 0 -57 1.5t-59 6.5v1366zM-3 1513q-7 22 -9.5 42t-2.5 46q0 25 2.5 45.5t9.5 43.5h603q6 -23 8.5 -41.5t2.5 -46.5q0 -48 -11 -89h-603z" />
    <glyph glyph-name="Iogonek" unicode="&#x12e;" horiz-adv-x="596" 
d="M181 1366q26 5 59 6.5t57 1.5q27 0 59 -1.5t59 -6.5v-1366q-27 -5 -59 -6.5t-59 -1.5q-24 0 -57 1.5t-59 6.5v1366zM295 -435q-96 0 -158 50.5t-62 138.5q0 65 36.5 122t93 105t115.5 83q26 -6 52.5 -23t42.5 -41q-66 -42 -113.5 -92.5t-47.5 -106.5q0 -43 26.5 -64.5
t66.5 -21.5q32 0 62 10t52 21q21 -16 35 -44.5t16 -63.5q-36 -31 -94 -52t-123 -21z" />
    <glyph glyph-name="Itilde" unicode="&#x128;" horiz-adv-x="596" 
d="M181 1366q26 5 59 6.5t57 1.5q27 0 59 -1.5t59 -6.5v-1366q-27 -5 -59 -6.5t-59 -1.5q-24 0 -57 1.5t-59 6.5v1366zM208 1567q-16 8 -32 13t-33 5q-20 0 -40.5 -13.5t-37.5 -36.5l-22 -28q-33 1 -67 20.5t-47 48.5l15 34q32 72 87 114.5t128 42.5q34 0 65 -10t56 -22
l103 -49q17 -9 35.5 -14.5t34.5 -5.5q20 0 40 12.5t38 36.5l21 28q33 -1 68 -20.5t47 -48.5l-15 -34q-32 -72 -87 -114.5t-128 -42.5q-35 0 -66.5 10t-55.5 21z" />
    <glyph glyph-name="J" unicode="J" horiz-adv-x="906" 
d="M106 240q44 -27 99 -45.5t109 -18.5q119 0 162.5 72t43.5 224v894q27 5 60 6.5t58 1.5q26 0 57.5 -1.5t58.5 -6.5v-864q0 -111 -16.5 -206t-61 -166t-127.5 -110.5t-215 -39.5q-77 0 -162.5 22t-151.5 62q8 48 30.5 94t55.5 82z" />
    <glyph glyph-name="Jcircumflex" unicode="&#x134;" horiz-adv-x="906" 
d="M106 240q44 -27 99 -45.5t109 -18.5q119 0 162.5 72t43.5 224v894q27 5 60 6.5t58 1.5q26 0 57.5 -1.5t58.5 -6.5v-864q0 -111 -16.5 -206t-61 -166t-127.5 -110.5t-215 -39.5q-77 0 -162.5 22t-151.5 62q8 48 30.5 94t55.5 82zM736 1785l225 -214q-12 -36 -42 -62.5
t-56 -34.5l-226 149l-227 -149q-25 8 -55.5 34.5t-41.5 62.5l224 214q21 3 47 5.5t53 2.5t52.5 -2.5t46.5 -5.5z" />
    <glyph glyph-name="K" unicode="K" horiz-adv-x="1202" 
d="M175 1366q26 5 59.5 6.5t56.5 1.5q27 0 59.5 -1.5t59.5 -6.5v-1366q-27 -5 -59.5 -6.5t-59.5 -1.5q-23 0 -56.5 1.5t-59.5 6.5v1366zM1173 60q-23 -35 -68 -54t-89 -19q-68 0 -97.5 35t-53.5 104l-102 281q-39 111 -90.5 155t-136.5 44q-34 0 -96 -2.5t-151 -8.5v151h355
q104 0 167 -30t100.5 -86t66.5 -136l103 -280q17 -45 31 -73t28.5 -46.5t32.5 -34.5zM832 1282q25 46 51.5 68.5t83.5 22.5q30 0 65.5 -1.5t69.5 -4.5l15 -19l-291 -502q-46 -83 -117 -131.5t-182 -48.5h-238v134q52 2 111.5 3t108.5 2q32 0 46.5 13t33.5 45z" />
    <glyph glyph-name="uni0136" unicode="&#x136;" horiz-adv-x="1202" 
d="M175 1366q26 5 59.5 6.5t56.5 1.5q27 0 59.5 -1.5t59.5 -6.5v-1366q-27 -5 -59.5 -6.5t-59.5 -1.5q-23 0 -56.5 1.5t-59.5 6.5v1366zM1173 60q-23 -35 -68 -54t-89 -19q-68 0 -97.5 35t-53.5 104l-102 281q-39 111 -90.5 155t-136.5 44q-34 0 -96 -2.5t-151 -8.5v151h355
q104 0 167 -30t100.5 -86t66.5 -136l103 -280q17 -45 31 -73t28.5 -46.5t32.5 -34.5zM832 1282q25 46 51.5 68.5t83.5 22.5q30 0 65.5 -1.5t69.5 -4.5l15 -19l-291 -502q-46 -83 -117 -131.5t-182 -48.5h-238v134q52 2 111.5 3t108.5 2q32 0 46.5 13t33.5 45zM743 -122
q9 -18 14.5 -48.5t5.5 -59.5q0 -105 -70 -187.5t-189 -126.5q-28 10 -47.5 36.5t-25.5 59.5q122 78 122 194q0 26 -6.5 54t-19.5 51q57 38 140 38q20 0 39.5 -3t36.5 -8z" />
    <glyph glyph-name="L" unicode="L" horiz-adv-x="1028" 
d="M409 -2h-98q-61 0 -99 37t-38 106v1221l13 13h89q70 0 101.5 -35.5t31.5 -113.5v-1228zM976 201q0 -116 -36.5 -159.5t-121.5 -43.5h-507l-123 170q100 17 207 25t194 8h387z" />
    <glyph glyph-name="uni01C7" unicode="&#x1c7;" horiz-adv-x="1934" 
d="M409 -2h-98q-61 0 -99 37t-38 106v1221l13 13h89q70 0 101.5 -35.5t31.5 -113.5v-1228zM976 201q0 -116 -36.5 -159.5t-121.5 -43.5h-507l-123 170q100 17 207 25t194 8h387zM1134 240q44 -27 99 -45.5t109 -18.5q119 0 162.5 72t43.5 224v894q27 5 60 6.5t58 1.5
q26 0 57.5 -1.5t58.5 -6.5v-864q0 -111 -16.5 -206t-61 -166t-127.5 -110.5t-215 -39.5q-77 0 -162.5 22t-151.5 62q8 48 30.5 94t55.5 82z" />
    <glyph glyph-name="Lacute" unicode="&#x139;" horiz-adv-x="1028" 
d="M409 -2h-98q-61 0 -99 37t-38 106v1221l13 13h89q70 0 101.5 -35.5t31.5 -113.5v-1228zM976 201q0 -116 -36.5 -159.5t-121.5 -43.5h-507l-123 170q100 17 207 25t194 8h387zM493 1816q21 -15 42 -45t36 -66t19 -72l-444 -181q-26 16 -44.5 51t-22.5 65z" />
    <glyph glyph-name="Lcaron" unicode="&#x13d;" horiz-adv-x="1028" 
d="M409 -2h-98q-61 0 -99 37t-38 106v1221l13 13h89q70 0 101.5 -35.5t31.5 -113.5v-1228zM976 201q0 -116 -36.5 -159.5t-121.5 -43.5h-507l-123 170q100 17 207 25t194 8h387zM625 1395q14 4 30 5.5t33 1.5q37 0 70.5 -9t58.5 -25l-77 -369q-11 -4 -25 -5.5t-27 -1.5
q-22 0 -44 4.5t-36 11.5z" />
    <glyph glyph-name="uni013B" unicode="&#x13b;" horiz-adv-x="1028" 
d="M409 -2h-98q-61 0 -99 37t-38 106v1221l13 13h89q70 0 101.5 -35.5t31.5 -113.5v-1228zM976 201q0 -116 -36.5 -159.5t-121.5 -43.5h-507l-123 170q100 17 207 25t194 8h387zM685 -122q9 -18 14.5 -48.5t5.5 -59.5q0 -105 -70 -187.5t-189 -126.5q-28 10 -47.5 36.5
t-25.5 59.5q122 78 122 194q0 26 -6.5 54t-19.5 51q57 38 140 38q20 0 39.5 -3t36.5 -8z" />
    <glyph glyph-name="Ldot" unicode="&#x13f;" horiz-adv-x="1028" 
d="M409 -2h-98q-61 0 -99 37t-38 106v1221l13 13h89q70 0 101.5 -35.5t31.5 -113.5v-1228zM976 201q0 -116 -36.5 -159.5t-121.5 -43.5h-507l-123 170q100 17 207 25t194 8h387zM679 720q0 22 4 51t12 48q20 12 50 19.5t61 7.5q30 0 60 -7.5t49 -19.5q9 -19 13.5 -48
t4.5 -51q0 -20 -4.5 -50t-13.5 -49q-19 -12 -49 -19.5t-60 -7.5q-31 0 -61 7.5t-50 19.5q-8 19 -12 49t-4 50z" />
    <glyph glyph-name="uni1E36" unicode="&#x1e36;" horiz-adv-x="1028" 
d="M409 -2h-98q-61 0 -99 37t-38 106v1221l13 13h89q70 0 101.5 -35.5t31.5 -113.5v-1228zM976 201q0 -116 -36.5 -159.5t-121.5 -43.5h-507l-123 170q100 17 207 25t194 8h387zM438 -241q0 24 5 49.5t14 46.5q18 11 52.5 18t65.5 7t66.5 -7t51.5 -18q9 -21 14 -46.5
t5 -49.5q0 -22 -5 -48t-14 -46q-17 -11 -52 -18.5t-66 -7.5t-64.5 7.5t-53.5 18.5q-9 20 -14 46t-5 48z" />
    <glyph glyph-name="uni01C8" unicode="&#x1c8;" horiz-adv-x="1575" 
d="M409 -2h-98q-61 0 -99 37t-38 106v1221l13 13h89q70 0 101.5 -35.5t31.5 -113.5v-1228zM976 201q0 -116 -36.5 -159.5t-121.5 -43.5h-507l-123 170q100 17 207 25t194 8h387zM1429 -22q0 -124 -26 -206.5t-92.5 -132.5t-188.5 -78q-24 21 -42.5 59.5t-23.5 80.5
q57 27 89 56t46 73.5t14 116.5v772q0 52 -19.5 79t-69.5 27h-42q-9 40 -9 80q0 19 2 40t7 42q44 5 87.5 7t68.5 2h30q79 0 124 -50.5t45 -138.5v-829zM1138 1259q0 23 5 49t14 46q20 11 53.5 18.5t64.5 7.5t66 -7.5t52 -18.5q9 -20 14 -46.5t5 -48.5t-5 -48.5t-14 -45.5
q-16 -11 -51.5 -18.5t-66.5 -7.5t-65.5 7t-52.5 19q-9 19 -14 45.5t-5 48.5z" />
    <glyph glyph-name="uni1E3A" unicode="&#x1e3a;" horiz-adv-x="1028" 
d="M409 -2h-98q-61 0 -99 37t-38 106v1221l13 13h89q70 0 101.5 -35.5t31.5 -113.5v-1228zM976 201q0 -116 -36.5 -159.5t-121.5 -43.5h-507l-123 170q100 17 207 25t194 8h387zM877 -146q6 -22 8.5 -42t2.5 -46q0 -25 -2.5 -45t-8.5 -44h-604q-6 24 -8.5 42t-2.5 46
q0 48 11 89h604z" />
    <glyph glyph-name="Lslash" unicode="&#x141;" horiz-adv-x="1042" 
d="M387 621l-148 -41l-188 -66l-17 8q-11 34 -11.5 83.5t7.5 93.5l209 70l148 40l380 130l16 -9q11 -34 12 -83.5t-8 -92.5zM424 -2h-99q-61 0 -98.5 37t-37.5 106v1221l13 13h88q71 0 102.5 -35.5t31.5 -113.5v-1228zM990 201q0 -116 -36.5 -159.5t-121.5 -43.5h-507
l-122 170q100 17 206.5 25t193.5 8h387z" />
    <glyph glyph-name="M" unicode="M" horiz-adv-x="1626" 
d="M246 1365q40 7 85 8.5t74 1.5q30 0 70 -1.5t79 -8.5l175 -599q7 -22 18 -66t24 -95t22.5 -96t13.5 -70h11q4 25 14.5 70t23 96t23.5 95t18 66l176 599q40 7 79.5 8.5t68.5 1.5t73.5 -1.5t84.5 -8.5l106 -1362q-24 -6 -57 -9.5t-62 -3.5q-27 0 -52.5 2t-51.5 6l-43 697
q-4 58 -7 132t-5.5 149t-3.5 136h-12l-259 -905q-27 -4 -60.5 -6t-59.5 -2q-24 0 -58 2t-60 6l-259 905h-12q-1 -61 -3.5 -136t-5.5 -149t-7 -132l-44 -697q-25 -4 -51.5 -6t-53.5 -2q-29 0 -61 3.5t-57 9.5z" />
    <glyph glyph-name="uni1E42" unicode="&#x1e42;" horiz-adv-x="1626" 
d="M246 1365q40 7 85 8.5t74 1.5q30 0 70 -1.5t79 -8.5l175 -599q7 -22 18 -66t24 -95t22.5 -96t13.5 -70h11q4 25 14.5 70t23 96t23.5 95t18 66l176 599q40 7 79.5 8.5t68.5 1.5t73.5 -1.5t84.5 -8.5l106 -1362q-24 -6 -57 -9.5t-62 -3.5q-27 0 -52.5 2t-51.5 6l-43 697
q-4 58 -7 132t-5.5 149t-3.5 136h-12l-259 -905q-27 -4 -60.5 -6t-59.5 -2q-24 0 -58 2t-60 6l-259 905h-12q-1 -61 -3.5 -136t-5.5 -149t-7 -132l-44 -697q-25 -4 -51.5 -6t-53.5 -2q-29 0 -61 3.5t-57 9.5zM675 -241q0 24 5 49.5t14 46.5q18 11 52.5 18t65.5 7t66.5 -7
t51.5 -18q9 -21 14 -46.5t5 -49.5q0 -22 -5 -48t-14 -46q-17 -11 -52 -18.5t-66 -7.5t-64.5 7.5t-53.5 18.5q-9 20 -14 46t-5 48z" />
    <glyph glyph-name="N" unicode="N" horiz-adv-x="1366" 
d="M175 1364q29 5 71.5 7.5t67.5 2.5q27 0 65.5 -1.5t73.5 -6.5l-61 -271l-17 -4q5 -73 9 -163t6.5 -181t2.5 -168v-579q-29 -5 -56.5 -6.5t-50.5 -1.5q-22 0 -52 1.5t-59 6.5v1364zM506 814q-35 75 -66.5 146t-57.5 133l-110 131l181 142l400 -813q39 -81 72 -156.5
t60 -136.5l117 -123l-192 -137zM1191 1364v-1362q-19 -3 -44.5 -5.5t-51 -3.5t-45.5 -1q-30 0 -67 1.5t-73 6.5l64 259l18 3q-5 83 -9.5 177.5t-6.5 184.5t-2 159v448q0 77 28.5 110.5t98.5 33.5h77z" />
    <glyph glyph-name="uni01CA" unicode="&#x1ca;" horiz-adv-x="2272" 
d="M175 1364q29 5 71.5 7.5t67.5 2.5q27 0 65.5 -1.5t73.5 -6.5l-61 -271l-17 -4q5 -73 9 -163t6.5 -181t2.5 -168v-579q-29 -5 -56.5 -6.5t-50.5 -1.5q-22 0 -52 1.5t-59 6.5v1364zM506 814q-35 75 -66.5 146t-57.5 133l-110 131l181 142l400 -813q39 -81 72 -156.5
t60 -136.5l117 -123l-192 -137zM1191 1364v-1362q-19 -3 -44.5 -5.5t-51 -3.5t-45.5 -1q-30 0 -67 1.5t-73 6.5l64 259l18 3q-5 83 -9.5 177.5t-6.5 184.5t-2 159v448q0 77 28.5 110.5t98.5 33.5h77zM1472 240q44 -27 99 -45.5t109 -18.5q119 0 162.5 72t43.5 224v894
q27 5 60 6.5t58 1.5q26 0 57.5 -1.5t58.5 -6.5v-864q0 -111 -16.5 -206t-61 -166t-127.5 -110.5t-215 -39.5q-77 0 -162.5 22t-151.5 62q8 48 30.5 94t55.5 82z" />
    <glyph glyph-name="Nacute" unicode="&#x143;" horiz-adv-x="1366" 
d="M175 1364q29 5 71.5 7.5t67.5 2.5q27 0 65.5 -1.5t73.5 -6.5l-61 -271l-17 -4q5 -73 9 -163t6.5 -181t2.5 -168v-579q-29 -5 -56.5 -6.5t-50.5 -1.5q-22 0 -52 1.5t-59 6.5v1364zM506 814q-35 75 -66.5 146t-57.5 133l-110 131l181 142l400 -813q39 -81 72 -156.5
t60 -136.5l117 -123l-192 -137zM1191 1364v-1362q-19 -3 -44.5 -5.5t-51 -3.5t-45.5 -1q-30 0 -67 1.5t-73 6.5l64 259l18 3q-5 83 -9.5 177.5t-6.5 184.5t-2 159v448q0 77 28.5 110.5t98.5 33.5h77zM892 1820q21 -15 42 -45t36 -66t19 -72l-444 -181q-26 16 -44.5 51
t-22.5 65z" />
    <glyph glyph-name="Ncaron" unicode="&#x147;" horiz-adv-x="1366" 
d="M175 1364q29 5 71.5 7.5t67.5 2.5q27 0 65.5 -1.5t73.5 -6.5l-61 -271l-17 -4q5 -73 9 -163t6.5 -181t2.5 -168v-579q-29 -5 -56.5 -6.5t-50.5 -1.5q-22 0 -52 1.5t-59 6.5v1364zM506 814q-35 75 -66.5 146t-57.5 133l-110 131l181 142l400 -813q39 -81 72 -156.5
t60 -136.5l117 -123l-192 -137zM1191 1364v-1362q-19 -3 -44.5 -5.5t-51 -3.5t-45.5 -1q-30 0 -67 1.5t-73 6.5l64 259l18 3q-5 83 -9.5 177.5t-6.5 184.5t-2 159v448q0 77 28.5 110.5t98.5 33.5h77zM916 1795q25 -9 55 -35t42 -63l-225 -213q-20 -5 -46 -7.5t-53 -2.5
t-53 2.5t-46 7.5l-225 213q12 37 42 63t55 35l227 -149z" />
    <glyph glyph-name="uni0145" unicode="&#x145;" horiz-adv-x="1366" 
d="M175 1364q29 5 71.5 7.5t67.5 2.5q27 0 65.5 -1.5t73.5 -6.5l-61 -271l-17 -4q5 -73 9 -163t6.5 -181t2.5 -168v-579q-29 -5 -56.5 -6.5t-50.5 -1.5q-22 0 -52 1.5t-59 6.5v1364zM506 814q-35 75 -66.5 146t-57.5 133l-110 131l181 142l400 -813q39 -81 72 -156.5
t60 -136.5l117 -123l-192 -137zM1191 1364v-1362q-19 -3 -44.5 -5.5t-51 -3.5t-45.5 -1q-30 0 -67 1.5t-73 6.5l64 259l18 3q-5 83 -9.5 177.5t-6.5 184.5t-2 159v448q0 77 28.5 110.5t98.5 33.5h77zM793 -122q9 -18 14.5 -48.5t5.5 -59.5q0 -105 -70 -187.5t-189 -126.5
q-28 10 -47.5 36.5t-25.5 59.5q122 78 122 194q0 26 -6.5 54t-19.5 51q57 38 140 38q20 0 39.5 -3t36.5 -8z" />
    <glyph glyph-name="uni1E44" unicode="&#x1e44;" horiz-adv-x="1366" 
d="M175 1364q29 5 71.5 7.5t67.5 2.5q27 0 65.5 -1.5t73.5 -6.5l-61 -271l-17 -4q5 -73 9 -163t6.5 -181t2.5 -168v-579q-29 -5 -56.5 -6.5t-50.5 -1.5q-22 0 -52 1.5t-59 6.5v1364zM506 814q-35 75 -66.5 146t-57.5 133l-110 131l181 142l400 -813q39 -81 72 -156.5
t60 -136.5l117 -123l-192 -137zM1191 1364v-1362q-19 -3 -44.5 -5.5t-51 -3.5t-45.5 -1q-30 0 -67 1.5t-73 6.5l64 259l18 3q-5 83 -9.5 177.5t-6.5 184.5t-2 159v448q0 77 28.5 110.5t98.5 33.5h77zM552 1607q0 23 5 48.5t14 45.5q20 12 53.5 19t64.5 7t66 -7t52 -19
q9 -20 14 -46t5 -48q0 -53 -19 -96q-16 -11 -51.5 -18t-66.5 -7t-65.5 7t-52.5 18q-19 43 -19 96z" />
    <glyph glyph-name="uni1E46" unicode="&#x1e46;" horiz-adv-x="1366" 
d="M175 1364q29 5 71.5 7.5t67.5 2.5q27 0 65.5 -1.5t73.5 -6.5l-61 -271l-17 -4q5 -73 9 -163t6.5 -181t2.5 -168v-579q-29 -5 -56.5 -6.5t-50.5 -1.5q-22 0 -52 1.5t-59 6.5v1364zM506 814q-35 75 -66.5 146t-57.5 133l-110 131l181 142l400 -813q39 -81 72 -156.5
t60 -136.5l117 -123l-192 -137zM1191 1364v-1362q-19 -3 -44.5 -5.5t-51 -3.5t-45.5 -1q-30 0 -67 1.5t-73 6.5l64 259l18 3q-5 83 -9.5 177.5t-6.5 184.5t-2 159v448q0 77 28.5 110.5t98.5 33.5h77zM546 -241q0 24 5 49.5t14 46.5q18 11 52.5 18t65.5 7t66.5 -7t51.5 -18
q9 -21 14 -46.5t5 -49.5q0 -22 -5 -48t-14 -46q-17 -11 -52 -18.5t-66 -7.5t-64.5 7.5t-53.5 18.5q-9 20 -14 46t-5 48z" />
    <glyph glyph-name="uni01CB" unicode="&#x1cb;" horiz-adv-x="1932" 
d="M175 1364q29 5 71.5 7.5t67.5 2.5q27 0 65.5 -1.5t73.5 -6.5l-61 -271l-17 -4q5 -73 9 -163t6.5 -181t2.5 -168v-579q-29 -5 -56.5 -6.5t-50.5 -1.5q-22 0 -52 1.5t-59 6.5v1364zM506 814q-35 75 -66.5 146t-57.5 133l-110 131l181 142l400 -813q39 -81 72 -156.5
t60 -136.5l117 -123l-192 -137zM1191 1364v-1362q-19 -3 -44.5 -5.5t-51 -3.5t-45.5 -1q-30 0 -67 1.5t-73 6.5l64 259l18 3q-5 83 -9.5 177.5t-6.5 184.5t-2 159v448q0 77 28.5 110.5t98.5 33.5h77zM1786 -22q0 -124 -26 -206.5t-92.5 -132.5t-188.5 -78q-24 21 -42.5 59.5
t-23.5 80.5q57 27 89 56t46 73.5t14 116.5v772q0 52 -19.5 79t-69.5 27h-42q-9 40 -9 80q0 19 2 40t7 42q44 5 87.5 7t68.5 2h30q79 0 124 -50.5t45 -138.5v-829zM1495 1259q0 23 5 49t14 46q20 11 53.5 18.5t64.5 7.5t66 -7.5t52 -18.5q9 -20 14 -46.5t5 -48.5t-5 -48.5
t-14 -45.5q-16 -11 -51.5 -18.5t-66.5 -7.5t-65.5 7t-52.5 19q-9 19 -14 45.5t-5 48.5z" />
    <glyph glyph-name="uni1E48" unicode="&#x1e48;" horiz-adv-x="1366" 
d="M175 1364q29 5 71.5 7.5t67.5 2.5q27 0 65.5 -1.5t73.5 -6.5l-61 -271l-17 -4q5 -73 9 -163t6.5 -181t2.5 -168v-579q-29 -5 -56.5 -6.5t-50.5 -1.5q-22 0 -52 1.5t-59 6.5v1364zM506 814q-35 75 -66.5 146t-57.5 133l-110 131l181 142l400 -813q39 -81 72 -156.5
t60 -136.5l117 -123l-192 -137zM1191 1364v-1362q-19 -3 -44.5 -5.5t-51 -3.5t-45.5 -1q-30 0 -67 1.5t-73 6.5l64 259l18 3q-5 83 -9.5 177.5t-6.5 184.5t-2 159v448q0 77 28.5 110.5t98.5 33.5h77zM985 -146q6 -22 8.5 -42t2.5 -46q0 -25 -2.5 -45t-8.5 -44h-604
q-6 24 -8.5 42t-2.5 46q0 48 11 89h604z" />
    <glyph glyph-name="Ntilde" unicode="&#xd1;" horiz-adv-x="1366" 
d="M175 1364q29 5 71.5 7.5t67.5 2.5q27 0 65.5 -1.5t73.5 -6.5l-61 -271l-17 -4q5 -73 9 -163t6.5 -181t2.5 -168v-579q-29 -5 -56.5 -6.5t-50.5 -1.5q-22 0 -52 1.5t-59 6.5v1364zM506 814q-35 75 -66.5 146t-57.5 133l-110 131l181 142l400 -813q39 -81 72 -156.5
t60 -136.5l117 -123l-192 -137zM1191 1364v-1362q-19 -3 -44.5 -5.5t-51 -3.5t-45.5 -1q-30 0 -67 1.5t-73 6.5l64 259l18 3q-5 83 -9.5 177.5t-6.5 184.5t-2 159v448q0 77 28.5 110.5t98.5 33.5h77zM599 1566q-16 8 -32 13t-33 5q-20 0 -40.5 -13.5t-37.5 -36.5l-22 -28
q-33 1 -67 20.5t-47 48.5l15 34q32 72 87 114.5t128 42.5q34 0 65 -10t56 -22l103 -49q17 -9 35.5 -14.5t34.5 -5.5q20 0 40 12.5t38 36.5l21 28q33 -1 68 -20.5t47 -48.5l-15 -34q-32 -72 -87 -114.5t-128 -42.5q-35 0 -66.5 10t-55.5 21z" />
    <glyph glyph-name="Eng" unicode="&#x14a;" horiz-adv-x="1366" 
d="M669 -232q73 -32 138 -32q90 0 133.5 63t43.5 180v59h207v-36q0 -138 -39.5 -239t-123 -156t-215.5 -55q-42 0 -103.5 12.5t-107.5 36.5q12 93 67 167zM175 1364q29 5 71.5 7.5t67.5 2.5q27 0 65.5 -1.5t73.5 -6.5l-61 -271l-17 -4q5 -73 9 -163t6.5 -181t2.5 -168v-579
q-28 -5 -55.5 -6.5t-51.5 -1.5q-23 0 -53.5 1.5t-57.5 6.5v1364zM506 814q-35 75 -66.5 146t-57.5 133l-113 132l184 141l400 -813q39 -81 72 -156.5t60 -136.5l91 -95l-166 -165zM1191 1364v-1362q-19 -3 -46 -5.5t-53 -3.5t-42 -1q-27 0 -65.5 1.5t-74.5 6.5l64 259l18 3
q-5 83 -9.5 177.5t-6.5 184.5t-2 159v448q0 77 28.5 110.5t98.5 33.5h77z" />
    <glyph glyph-name="O" unicode="O" horiz-adv-x="1319" 
d="M339 684q0 -88 12.5 -180.5t46.5 -170.5t97 -126.5t164 -48.5q102 0 164.5 48.5t96.5 126.5t46.5 170.5t12.5 180.5t-12.5 180t-46.5 170t-96.5 126t-164.5 48q-101 0 -164 -48t-97 -126t-46.5 -170t-12.5 -180zM94 684q0 204 61 364t186.5 252t317.5 92q145 0 251.5 -53
t176.5 -148.5t104 -225t34 -281.5q0 -205 -61.5 -365.5t-186.5 -252.5t-318 -92q-144 0 -251 53t-176.5 149t-103.5 225.5t-34 282.5z" />
    <glyph glyph-name="Oacute" unicode="&#xd3;" horiz-adv-x="1319" 
d="M339 684q0 -88 12.5 -180.5t46.5 -170.5t97 -126.5t164 -48.5q102 0 164.5 48.5t96.5 126.5t46.5 170.5t12.5 180.5t-12.5 180t-46.5 170t-96.5 126t-164.5 48q-101 0 -164 -48t-97 -126t-46.5 -170t-12.5 -180zM94 684q0 204 61 364t186.5 252t317.5 92q145 0 251.5 -53
t176.5 -148.5t104 -225t34 -281.5q0 -205 -61.5 -365.5t-186.5 -252.5t-318 -92q-144 0 -251 53t-176.5 149t-103.5 225.5t-34 282.5zM862 1820q21 -15 42 -45t36 -66t19 -72l-444 -181q-26 16 -44.5 51t-22.5 65z" />
    <glyph glyph-name="Obreve" unicode="&#x14e;" horiz-adv-x="1319" 
d="M339 684q0 -88 12.5 -180.5t46.5 -170.5t97 -126.5t164 -48.5q102 0 164.5 48.5t96.5 126.5t46.5 170.5t12.5 180.5t-12.5 180t-46.5 170t-96.5 126t-164.5 48q-101 0 -164 -48t-97 -126t-46.5 -170t-12.5 -180zM94 684q0 204 61 364t186.5 252t317.5 92q145 0 251.5 -53
t176.5 -148.5t104 -225t34 -281.5q0 -205 -61.5 -365.5t-186.5 -252.5t-318 -92q-144 0 -251 53t-176.5 149t-103.5 225.5t-34 282.5zM999 1724q-31 -109 -122.5 -180t-217.5 -71t-217.5 71t-122.5 180q22 25 58 38.5t71 12.5q27 -59 84 -92.5t127 -33.5t127 33.5t84 92.5
q36 1 71.5 -12.5t57.5 -38.5z" />
    <glyph glyph-name="Ocircumflex" unicode="&#xd4;" horiz-adv-x="1319" 
d="M339 684q0 -88 12.5 -180.5t46.5 -170.5t97 -126.5t164 -48.5q102 0 164.5 48.5t96.5 126.5t46.5 170.5t12.5 180.5t-12.5 180t-46.5 170t-96.5 126t-164.5 48q-101 0 -164 -48t-97 -126t-46.5 -170t-12.5 -180zM94 684q0 204 61 364t186.5 252t317.5 92q145 0 251.5 -53
t176.5 -148.5t104 -225t34 -281.5q0 -205 -61.5 -365.5t-186.5 -252.5t-318 -92q-144 0 -251 53t-176.5 149t-103.5 225.5t-34 282.5zM757 1785l225 -214q-12 -36 -42 -62.5t-56 -34.5l-226 149l-227 -149q-25 8 -55.5 34.5t-41.5 62.5l224 214q21 3 47 5.5t53 2.5
t52.5 -2.5t46.5 -5.5z" />
    <glyph glyph-name="uni1ED0" unicode="&#x1ed0;" horiz-adv-x="1319" 
d="M339 684q0 -88 12.5 -180.5t46.5 -170.5t97 -126.5t164 -48.5q102 0 164.5 48.5t96.5 126.5t46.5 170.5t12.5 180.5t-12.5 180t-46.5 170t-96.5 126t-164.5 48q-101 0 -164 -48t-97 -126t-46.5 -170t-12.5 -180zM94 684q0 204 61 364t186.5 252t317.5 92q145 0 251.5 -53
t176.5 -148.5t104 -225t34 -281.5q0 -205 -61.5 -365.5t-186.5 -252.5t-318 -92q-144 0 -251 53t-176.5 149t-103.5 225.5t-34 282.5zM753 1769l223 -198q-10 -35 -38.5 -61.5t-53.5 -35.5l-227 149l-226 -149q-26 9 -54 35.5t-39 61.5l223 198q20 4 45 6.5t51 2.5
q27 0 51.5 -2.5t44.5 -6.5zM822 2143l-411 -207q3 -30 15 -61t35 -51l441 143q-4 52 -27 102.5t-53 73.5z" />
    <glyph glyph-name="uni1ED8" unicode="&#x1ed8;" horiz-adv-x="1319" 
d="M339 684q0 -88 12.5 -180.5t46.5 -170.5t97 -126.5t164 -48.5q102 0 164.5 48.5t96.5 126.5t46.5 170.5t12.5 180.5t-12.5 180t-46.5 170t-96.5 126t-164.5 48q-101 0 -164 -48t-97 -126t-46.5 -170t-12.5 -180zM94 684q0 204 61 364t186.5 252t317.5 92q145 0 251.5 -53
t176.5 -148.5t104 -225t34 -281.5q0 -205 -61.5 -365.5t-186.5 -252.5t-318 -92q-144 0 -251 53t-176.5 149t-103.5 225.5t-34 282.5zM522 -241q0 24 5 49.5t14 46.5q18 11 52.5 18t65.5 7t66.5 -7t51.5 -18q9 -21 14 -46.5t5 -49.5q0 -22 -5 -48t-14 -46q-17 -11 -52 -18.5
t-66 -7.5t-64.5 7.5t-53.5 18.5q-9 20 -14 46t-5 48zM757 1785l225 -214q-12 -36 -42 -62.5t-56 -34.5l-226 149l-227 -149q-25 8 -55.5 34.5t-41.5 62.5l224 214q21 3 47 5.5t53 2.5t52.5 -2.5t46.5 -5.5z" />
    <glyph glyph-name="uni1ED2" unicode="&#x1ed2;" horiz-adv-x="1319" 
d="M339 684q0 -88 12.5 -180.5t46.5 -170.5t97 -126.5t164 -48.5q102 0 164.5 48.5t96.5 126.5t46.5 170.5t12.5 180.5t-12.5 180t-46.5 170t-96.5 126t-164.5 48q-101 0 -164 -48t-97 -126t-46.5 -170t-12.5 -180zM94 684q0 204 61 364t186.5 252t317.5 92q145 0 251.5 -53
t176.5 -148.5t104 -225t34 -281.5q0 -205 -61.5 -365.5t-186.5 -252.5t-318 -92q-144 0 -251 53t-176.5 149t-103.5 225.5t-34 282.5zM561 1769q20 4 45 6.5t51 2.5q27 0 51.5 -2.5t44.5 -6.5l223 -198q-10 -35 -38.5 -61.5t-54.5 -35.5l-226 149l-226 -149q-26 9 -54 35.5
t-39 61.5zM492 2143q-29 -23 -52.5 -73.5t-26.5 -102.5l439 -143q24 20 36 51t15 61z" />
    <glyph glyph-name="uni1ED4" unicode="&#x1ed4;" horiz-adv-x="1319" 
d="M339 684q0 -88 12.5 -180.5t46.5 -170.5t97 -126.5t164 -48.5q102 0 164.5 48.5t96.5 126.5t46.5 170.5t12.5 180.5t-12.5 180t-46.5 170t-96.5 126t-164.5 48q-101 0 -164 -48t-97 -126t-46.5 -170t-12.5 -180zM94 684q0 204 61 364t186.5 252t317.5 92q145 0 251.5 -53
t176.5 -148.5t104 -225t34 -281.5q0 -205 -61.5 -365.5t-186.5 -252.5t-318 -92q-144 0 -251 53t-176.5 149t-103.5 225.5t-34 282.5zM753 1769l223 -198q-10 -35 -38.5 -61.5t-53.5 -35.5l-227 149l-226 -149q-26 9 -54 35.5t-39 61.5l223 198q20 4 45 6.5t51 2.5
q27 0 51.5 -2.5t44.5 -6.5zM832 1857q49 18 78 41.5t29 55.5q0 24 -19 39.5t-51 15.5q-26 0 -50.5 -8.5t-47.5 -19.5q-20 20 -32 50.5t-12 59.5q32 19 81.5 34.5t103.5 15.5q93 0 144.5 -47.5t51.5 -116.5q0 -77 -62 -136.5t-158 -88.5q-26 17 -40 45.5t-16 59.5z" />
    <glyph glyph-name="uni1ED6" unicode="&#x1ed6;" horiz-adv-x="1319" 
d="M339 684q0 -88 12.5 -180.5t46.5 -170.5t97 -126.5t164 -48.5q102 0 164.5 48.5t96.5 126.5t46.5 170.5t12.5 180.5t-12.5 180t-46.5 170t-96.5 126t-164.5 48q-101 0 -164 -48t-97 -126t-46.5 -170t-12.5 -180zM94 684q0 204 61 364t186.5 252t317.5 92q145 0 251.5 -53
t176.5 -148.5t104 -225t34 -281.5q0 -205 -61.5 -365.5t-186.5 -252.5t-318 -92q-144 0 -251 53t-176.5 149t-103.5 225.5t-34 282.5zM579 1933q-13 7 -29 12t-33 5q-19 0 -37.5 -12.5t-34.5 -32.5l-20 -27q-31 1 -62.5 19.5t-43.5 45.5l14 31q31 67 81.5 106.5t117.5 39.5
q32 0 61 -9t52 -21l94 -48q14 -7 30.5 -12t31.5 -5q20 0 37.5 12.5t34.5 33.5l20 26q32 0 63 -18t43 -46l-14 -31q-31 -66 -81.5 -106t-117.5 -40q-32 0 -61 9t-52 21zM753 1769l223 -198q-10 -35 -38.5 -61.5t-53.5 -35.5l-227 149l-226 -149q-26 9 -54 35.5t-39 61.5
l223 198q20 4 45 6.5t51 2.5q27 0 51.5 -2.5t44.5 -6.5z" />
    <glyph glyph-name="uni020C" unicode="&#x20c;" horiz-adv-x="1319" 
d="M339 684q0 -88 12.5 -180.5t46.5 -170.5t97 -126.5t164 -48.5q102 0 164.5 48.5t96.5 126.5t46.5 170.5t12.5 180.5t-12.5 180t-46.5 170t-96.5 126t-164.5 48q-101 0 -164 -48t-97 -126t-46.5 -170t-12.5 -180zM94 684q0 204 61 364t186.5 252t317.5 92q145 0 251.5 -53
t176.5 -148.5t104 -225t34 -281.5q0 -205 -61.5 -365.5t-186.5 -252.5t-318 -92q-144 0 -251 53t-176.5 149t-103.5 225.5t-34 282.5zM355 1822l263 -273q-8 -30 -32.5 -56.5t-51.5 -38.5l-329 228q17 48 55.5 87t94.5 53zM728 1822l263 -273q-8 -28 -32.5 -55.5
t-52.5 -39.5l-329 228q18 48 56.5 87t94.5 53z" />
    <glyph glyph-name="Odieresis" unicode="&#xd6;" horiz-adv-x="1319" 
d="M339 684q0 -88 12.5 -180.5t46.5 -170.5t97 -126.5t164 -48.5q102 0 164.5 48.5t96.5 126.5t46.5 170.5t12.5 180.5t-12.5 180t-46.5 170t-96.5 126t-164.5 48q-101 0 -164 -48t-97 -126t-46.5 -170t-12.5 -180zM94 684q0 204 61 364t186.5 252t317.5 92q145 0 251.5 -53
t176.5 -148.5t104 -225t34 -281.5q0 -205 -61.5 -365.5t-186.5 -252.5t-318 -92q-144 0 -251 53t-176.5 149t-103.5 225.5t-34 282.5zM873 1486q-28 0 -57 6.5t-50 18.5q-8 22 -11.5 45.5t-3.5 40.5q0 19 3.5 42t11.5 45q21 13 50 19t57 6q27 0 56 -6t49 -19q9 -22 12.5 -45
t3.5 -42q0 -17 -3.5 -40.5t-12.5 -45.5q-20 -12 -49 -18.5t-56 -6.5zM445 1486q-27 0 -56 6.5t-50 18.5q-8 22 -11.5 45.5t-3.5 40.5q0 19 3.5 42t11.5 45q21 13 50 19t56 6q28 0 57 -6t50 -19q9 -22 12 -45t3 -42q0 -17 -3 -40.5t-12 -45.5q-21 -12 -50 -18.5t-57 -6.5z
" />
    <glyph glyph-name="uni022A" unicode="&#x22a;" horiz-adv-x="1319" 
d="M339 684q0 -88 12.5 -180.5t46.5 -170.5t97 -126.5t164 -48.5q102 0 164.5 48.5t96.5 126.5t46.5 170.5t12.5 180.5t-12.5 180t-46.5 170t-96.5 126t-164.5 48q-101 0 -164 -48t-97 -126t-46.5 -170t-12.5 -180zM94 684q0 204 61 364t186.5 252t317.5 92q145 0 251.5 -53
t176.5 -148.5t104 -225t34 -281.5q0 -205 -61.5 -365.5t-186.5 -252.5t-318 -92q-144 0 -251 53t-176.5 149t-103.5 225.5t-34 282.5zM873 1486q-28 0 -57 6.5t-50 18.5q-8 22 -11.5 45.5t-3.5 40.5q0 19 3.5 42t11.5 45q21 13 50 19t57 6q27 0 56 -6t49 -19q9 -22 12.5 -45
t3.5 -42q0 -17 -3.5 -40.5t-12.5 -45.5q-20 -12 -49 -18.5t-56 -6.5zM445 1486q-27 0 -56 6.5t-50 18.5q-8 22 -11.5 45.5t-3.5 40.5q0 19 3.5 42t11.5 45q21 13 50 19t56 6q28 0 57 -6t50 -19q9 -22 12 -45t3 -42q0 -17 -3 -40.5t-12 -45.5q-21 -12 -50 -18.5t-57 -6.5z
M358 1824q-7 22 -9.5 42t-2.5 46q0 25 2.5 45.5t9.5 43.5h603q6 -23 8.5 -41.5t2.5 -46.5q0 -48 -11 -89h-603z" />
    <glyph glyph-name="uni0230" unicode="&#x230;" horiz-adv-x="1319" 
d="M339 684q0 -88 12.5 -180.5t46.5 -170.5t97 -126.5t164 -48.5q102 0 164.5 48.5t96.5 126.5t46.5 170.5t12.5 180.5t-12.5 180t-46.5 170t-96.5 126t-164.5 48q-101 0 -164 -48t-97 -126t-46.5 -170t-12.5 -180zM94 684q0 204 61 364t186.5 252t317.5 92q145 0 251.5 -53
t176.5 -148.5t104 -225t34 -281.5q0 -205 -61.5 -365.5t-186.5 -252.5t-318 -92q-144 0 -251 53t-176.5 149t-103.5 225.5t-34 282.5zM522 1607q0 23 5 48.5t14 45.5q20 12 53.5 19t64.5 7t66 -7t52 -19q9 -20 14 -46t5 -48q0 -53 -19 -96q-16 -11 -51.5 -18t-66.5 -7
t-65.5 7t-52.5 18q-19 43 -19 96zM358 1844q-7 22 -9.5 42t-2.5 46q0 25 2.5 45.5t9.5 43.5h603q6 -23 8.5 -41.5t2.5 -46.5q0 -48 -11 -89h-603z" />
    <glyph glyph-name="uni1ECC" unicode="&#x1ecc;" horiz-adv-x="1319" 
d="M339 684q0 -88 12.5 -180.5t46.5 -170.5t97 -126.5t164 -48.5q102 0 164.5 48.5t96.5 126.5t46.5 170.5t12.5 180.5t-12.5 180t-46.5 170t-96.5 126t-164.5 48q-101 0 -164 -48t-97 -126t-46.5 -170t-12.5 -180zM94 684q0 204 61 364t186.5 252t317.5 92q145 0 251.5 -53
t176.5 -148.5t104 -225t34 -281.5q0 -205 -61.5 -365.5t-186.5 -252.5t-318 -92q-144 0 -251 53t-176.5 149t-103.5 225.5t-34 282.5zM522 -241q0 24 5 49.5t14 46.5q18 11 52.5 18t65.5 7t66.5 -7t51.5 -18q9 -21 14 -46.5t5 -49.5q0 -22 -5 -48t-14 -46q-17 -11 -52 -18.5
t-66 -7.5t-64.5 7.5t-53.5 18.5q-9 20 -14 46t-5 48z" />
    <glyph glyph-name="Ograve" unicode="&#xd2;" horiz-adv-x="1319" 
d="M339 684q0 -88 12.5 -180.5t46.5 -170.5t97 -126.5t164 -48.5q102 0 164.5 48.5t96.5 126.5t46.5 170.5t12.5 180.5t-12.5 180t-46.5 170t-96.5 126t-164.5 48q-101 0 -164 -48t-97 -126t-46.5 -170t-12.5 -180zM94 684q0 204 61 364t186.5 252t317.5 92q145 0 251.5 -53
t176.5 -148.5t104 -225t34 -281.5q0 -205 -61.5 -365.5t-186.5 -252.5t-318 -92q-144 0 -251 53t-176.5 149t-103.5 225.5t-34 282.5zM482 1820q-21 -15 -42.5 -45t-37 -66t-19.5 -72l445 -181q29 18 45.5 51t22.5 65z" />
    <glyph glyph-name="uni1ECE" unicode="&#x1ece;" horiz-adv-x="1319" 
d="M339 684q0 -88 12.5 -180.5t46.5 -170.5t97 -126.5t164 -48.5q102 0 164.5 48.5t96.5 126.5t46.5 170.5t12.5 180.5t-12.5 180t-46.5 170t-96.5 126t-164.5 48q-101 0 -164 -48t-97 -126t-46.5 -170t-12.5 -180zM94 684q0 204 61 364t186.5 252t317.5 92q145 0 251.5 -53
t176.5 -148.5t104 -225t34 -281.5q0 -205 -61.5 -365.5t-186.5 -252.5t-318 -92q-144 0 -251 53t-176.5 149t-103.5 225.5t-34 282.5zM566 1561q58 19 92 45t34 59q0 27 -21 44t-57 17q-30 0 -57.5 -8.5t-53.5 -22.5q-22 23 -33 53.5t-12 61.5q36 21 89.5 37t112.5 16
q101 0 158 -50t57 -124q0 -80 -70 -142.5t-178 -94.5q-27 17 -43 47t-18 62z" />
    <glyph glyph-name="Ohorn" unicode="&#x1a0;" horiz-adv-x="1324" 
d="M94 684q0 157 35 287t106.5 224t178 145.5t249.5 51.5q71 0 120.5 -9.5t89.5 -19.5t81 -10q65 0 95.5 28t30.5 68q0 27 -11 58.5t-23 51.5q31 29 80.5 46.5t104.5 13.5q19 -27 35.5 -75.5t16.5 -101.5q0 -84 -54.5 -144.5t-161.5 -82.5q80 -93 119.5 -230.5t39.5 -300.5
q0 -205 -61.5 -365.5t-186.5 -252.5t-318 -92q-145 0 -252 53t-176.5 149t-103.5 225.5t-34 282.5zM339 684q0 -88 12.5 -180.5t46.5 -170.5t97 -126.5t165 -48.5q101 0 164 48.5t96.5 126.5t46 170.5t12.5 180.5t-12.5 180t-46 170t-96.5 126t-164 48q-102 0 -165 -48
t-97 -126t-46.5 -170t-12.5 -180z" />
    <glyph glyph-name="uni1EDA" unicode="&#x1eda;" horiz-adv-x="1324" 
d="M94 684q0 157 35 287t106.5 224t178 145.5t249.5 51.5q71 0 120.5 -9.5t89.5 -19.5t81 -10q65 0 95.5 28t30.5 68q0 27 -11 58.5t-23 51.5q31 29 80.5 46.5t104.5 13.5q19 -27 35.5 -75.5t16.5 -101.5q0 -84 -54.5 -144.5t-161.5 -82.5q80 -93 119.5 -230.5t39.5 -300.5
q0 -205 -61.5 -365.5t-186.5 -252.5t-318 -92q-145 0 -252 53t-176.5 149t-103.5 225.5t-34 282.5zM339 684q0 -88 12.5 -180.5t46.5 -170.5t97 -126.5t165 -48.5q101 0 164 48.5t96.5 126.5t46 170.5t12.5 180.5t-12.5 180t-46 170t-96.5 126t-164 48q-102 0 -165 -48
t-97 -126t-46.5 -170t-12.5 -180zM833 1820q21 -15 42 -45t36 -66t19 -72l-444 -181q-26 16 -44.5 51t-22.5 65z" />
    <glyph glyph-name="uni1EE2" unicode="&#x1ee2;" horiz-adv-x="1324" 
d="M94 684q0 157 35 287t106.5 224t178 145.5t249.5 51.5q71 0 120.5 -9.5t89.5 -19.5t81 -10q65 0 95.5 28t30.5 68q0 27 -11 58.5t-23 51.5q31 29 80.5 46.5t104.5 13.5q19 -27 35.5 -75.5t16.5 -101.5q0 -84 -54.5 -144.5t-161.5 -82.5q80 -93 119.5 -230.5t39.5 -300.5
q0 -205 -61.5 -365.5t-186.5 -252.5t-318 -92q-145 0 -252 53t-176.5 149t-103.5 225.5t-34 282.5zM339 684q0 -88 12.5 -180.5t46.5 -170.5t97 -126.5t165 -48.5q101 0 164 48.5t96.5 126.5t46 170.5t12.5 180.5t-12.5 180t-46 170t-96.5 126t-164 48q-102 0 -165 -48
t-97 -126t-46.5 -170t-12.5 -180zM523 -241q0 24 5 49.5t14 46.5q18 11 52.5 18t65.5 7t66.5 -7t51.5 -18q9 -21 14 -46.5t5 -49.5q0 -22 -5 -48t-14 -46q-17 -11 -52 -18.5t-66 -7.5t-64.5 7.5t-53.5 18.5q-9 20 -14 46t-5 48z" />
    <glyph glyph-name="uni1EDC" unicode="&#x1edc;" horiz-adv-x="1324" 
d="M94 684q0 157 35 287t106.5 224t178 145.5t249.5 51.5q71 0 120.5 -9.5t89.5 -19.5t81 -10q65 0 95.5 28t30.5 68q0 27 -11 58.5t-23 51.5q31 29 80.5 46.5t104.5 13.5q19 -27 35.5 -75.5t16.5 -101.5q0 -84 -54.5 -144.5t-161.5 -82.5q80 -93 119.5 -230.5t39.5 -300.5
q0 -205 -61.5 -365.5t-186.5 -252.5t-318 -92q-145 0 -252 53t-176.5 149t-103.5 225.5t-34 282.5zM339 684q0 -88 12.5 -180.5t46.5 -170.5t97 -126.5t165 -48.5q101 0 164 48.5t96.5 126.5t46 170.5t12.5 180.5t-12.5 180t-46 170t-96.5 126t-164 48q-102 0 -165 -48
t-97 -126t-46.5 -170t-12.5 -180zM452 1820q-21 -15 -42.5 -45t-37 -66t-19.5 -72l445 -181q29 18 45.5 51t22.5 65z" />
    <glyph glyph-name="uni1EDE" unicode="&#x1ede;" horiz-adv-x="1324" 
d="M94 684q0 157 35 287t106.5 224t178 145.5t249.5 51.5q71 0 120.5 -9.5t89.5 -19.5t81 -10q65 0 95.5 28t30.5 68q0 27 -11 58.5t-23 51.5q31 29 80.5 46.5t104.5 13.5q19 -27 35.5 -75.5t16.5 -101.5q0 -84 -54.5 -144.5t-161.5 -82.5q80 -93 119.5 -230.5t39.5 -300.5
q0 -205 -61.5 -365.5t-186.5 -252.5t-318 -92q-145 0 -252 53t-176.5 149t-103.5 225.5t-34 282.5zM339 684q0 -88 12.5 -180.5t46.5 -170.5t97 -126.5t165 -48.5q101 0 164 48.5t96.5 126.5t46 170.5t12.5 180.5t-12.5 180t-46 170t-96.5 126t-164 48q-102 0 -165 -48
t-97 -126t-46.5 -170t-12.5 -180zM567 1561q58 19 92 45t34 59q0 27 -21 44t-57 17q-30 0 -57.5 -8.5t-53.5 -22.5q-22 23 -33 53.5t-12 61.5q36 21 89.5 37t112.5 16q101 0 158 -50t57 -124q0 -80 -70 -142.5t-178 -94.5q-27 17 -43 47t-18 62z" />
    <glyph glyph-name="uni1EE0" unicode="&#x1ee0;" horiz-adv-x="1324" 
d="M94 684q0 157 35 287t106.5 224t178 145.5t249.5 51.5q71 0 120.5 -9.5t89.5 -19.5t81 -10q65 0 95.5 28t30.5 68q0 27 -11 58.5t-23 51.5q31 29 80.5 46.5t104.5 13.5q19 -27 35.5 -75.5t16.5 -101.5q0 -84 -54.5 -144.5t-161.5 -82.5q80 -93 119.5 -230.5t39.5 -300.5
q0 -205 -61.5 -365.5t-186.5 -252.5t-318 -92q-145 0 -252 53t-176.5 149t-103.5 225.5t-34 282.5zM339 684q0 -88 12.5 -180.5t46.5 -170.5t97 -126.5t165 -48.5q101 0 164 48.5t96.5 126.5t46 170.5t12.5 180.5t-12.5 180t-46 170t-96.5 126t-164 48q-102 0 -165 -48
t-97 -126t-46.5 -170t-12.5 -180zM564 1561q-14 8 -31 14t-34 6q-26 0 -46.5 -14t-35.5 -35l-22 -28q-33 1 -67 20t-47 49l15 33q31 72 86 115t128 43q37 0 68 -10t58 -26l59 -35q15 -8 32 -13.5t34 -5.5q26 0 46.5 14t35.5 35l21 28q33 -1 68 -20.5t47 -49.5l-15 -33
q-32 -71 -86.5 -114t-128.5 -43q-35 0 -67 10.5t-59 24.5z" />
    <glyph glyph-name="Ohungarumlaut" unicode="&#x150;" horiz-adv-x="1319" 
d="M339 684q0 -88 12.5 -180.5t46.5 -170.5t97 -126.5t164 -48.5q102 0 164.5 48.5t96.5 126.5t46.5 170.5t12.5 180.5t-12.5 180t-46.5 170t-96.5 126t-164.5 48q-101 0 -164 -48t-97 -126t-46.5 -170t-12.5 -180zM94 684q0 204 61 364t186.5 252t317.5 92q145 0 251.5 -53
t176.5 -148.5t104 -225t34 -281.5q0 -205 -61.5 -365.5t-186.5 -252.5t-318 -92q-144 0 -251 53t-176.5 149t-103.5 225.5t-34 282.5zM964 1822q55 -14 93.5 -53t56.5 -87l-330 -228q-26 12 -50.5 38.5t-32.5 56.5zM591 1822q56 -14 94.5 -53t56.5 -87l-330 -228
q-27 12 -51.5 39.5t-32.5 55.5z" />
    <glyph glyph-name="uni020E" unicode="&#x20e;" horiz-adv-x="1319" 
d="M339 684q0 -88 12.5 -180.5t46.5 -170.5t97 -126.5t164 -48.5q102 0 164.5 48.5t96.5 126.5t46.5 170.5t12.5 180.5t-12.5 180t-46.5 170t-96.5 126t-164.5 48q-101 0 -164 -48t-97 -126t-46.5 -170t-12.5 -180zM94 684q0 204 61 364t186.5 252t317.5 92q145 0 251.5 -53
t176.5 -148.5t104 -225t34 -281.5q0 -205 -61.5 -365.5t-186.5 -252.5t-318 -92q-144 0 -251 53t-176.5 149t-103.5 225.5t-34 282.5zM999 1542q-22 -25 -57.5 -38.5t-71.5 -12.5q-27 58 -84 92t-127 34t-127 -34t-84 -92q-35 -1 -71 12.5t-58 38.5q31 110 122.5 180
t217.5 70t217.5 -70t122.5 -180z" />
    <glyph glyph-name="Omacron" unicode="&#x14c;" horiz-adv-x="1319" 
d="M339 684q0 -88 12.5 -180.5t46.5 -170.5t97 -126.5t164 -48.5q102 0 164.5 48.5t96.5 126.5t46.5 170.5t12.5 180.5t-12.5 180t-46.5 170t-96.5 126t-164.5 48q-101 0 -164 -48t-97 -126t-46.5 -170t-12.5 -180zM94 684q0 204 61 364t186.5 252t317.5 92q145 0 251.5 -53
t176.5 -148.5t104 -225t34 -281.5q0 -205 -61.5 -365.5t-186.5 -252.5t-318 -92q-144 0 -251 53t-176.5 149t-103.5 225.5t-34 282.5zM358 1512q-7 22 -9.5 42t-2.5 46q0 25 2.5 45.5t9.5 43.5h603q6 -23 8.5 -41.5t2.5 -46.5q0 -48 -11 -89h-603z" />
    <glyph glyph-name="uni1E52" unicode="&#x1e52;" horiz-adv-x="1319" 
d="M339 684q0 -88 12.5 -180.5t46.5 -170.5t97 -126.5t164 -48.5q102 0 164.5 48.5t96.5 126.5t46.5 170.5t12.5 180.5t-12.5 180t-46.5 170t-96.5 126t-164.5 48q-101 0 -164 -48t-97 -126t-46.5 -170t-12.5 -180zM94 684q0 204 61 364t186.5 252t317.5 92q145 0 251.5 -53
t176.5 -148.5t104 -225t34 -281.5q0 -205 -61.5 -365.5t-186.5 -252.5t-318 -92q-144 0 -251 53t-176.5 149t-103.5 225.5t-34 282.5zM358 1512q-7 22 -9.5 42t-2.5 46q0 25 2.5 45.5t9.5 43.5h603q6 -23 8.5 -41.5t2.5 -46.5q0 -48 -11 -89h-603zM862 2140q21 -15 42 -45
t36 -66t19 -72l-444 -181q-26 16 -44.5 51t-22.5 65z" />
    <glyph glyph-name="uni1E50" unicode="&#x1e50;" horiz-adv-x="1319" 
d="M339 684q0 -88 12.5 -180.5t46.5 -170.5t97 -126.5t164 -48.5q102 0 164.5 48.5t96.5 126.5t46.5 170.5t12.5 180.5t-12.5 180t-46.5 170t-96.5 126t-164.5 48q-101 0 -164 -48t-97 -126t-46.5 -170t-12.5 -180zM94 684q0 204 61 364t186.5 252t317.5 92q145 0 251.5 -53
t176.5 -148.5t104 -225t34 -281.5q0 -205 -61.5 -365.5t-186.5 -252.5t-318 -92q-144 0 -251 53t-176.5 149t-103.5 225.5t-34 282.5zM358 1512q-7 22 -9.5 42t-2.5 46q0 25 2.5 45.5t9.5 43.5h603q6 -23 8.5 -41.5t2.5 -46.5q0 -48 -11 -89h-603zM482 2140
q-21 -15 -42.5 -45t-37 -66t-19.5 -72l445 -181q29 18 45.5 51t22.5 65z" />
    <glyph glyph-name="uni01EA" unicode="&#x1ea;" horiz-adv-x="1319" 
d="M94 683q0 209 62 368.5t188 250t316 90.5q186 0 311.5 -88t189.5 -248.5t64 -376.5q0 -191 -43.5 -317.5t-119 -207t-169.5 -134.5q-44 -24 -92 -54.5t-81.5 -70t-33.5 -91.5q0 -46 27 -67.5t67 -21.5q32 0 61.5 10t52.5 21q20 -16 34.5 -44.5t15.5 -63.5
q-35 -31 -93.5 -52t-123.5 -21q-96 0 -157.5 50.5t-61.5 138.5q0 80 53.5 148t132.5 117l30 -44q-16 -1 -34.5 -1h-28.5q-145 0 -252.5 53t-177 149t-103.5 225.5t-34 281.5zM339 684q0 -88 12.5 -180.5t46.5 -170.5t97 -126.5t165 -48.5q101 0 164 48.5t96.5 126.5
t46 170.5t12.5 180.5t-12.5 180t-46 170t-96.5 126t-164 48q-102 0 -165 -48t-97 -126t-46.5 -170t-12.5 -180z" />
    <glyph glyph-name="Oslash" unicode="&#xd8;" horiz-adv-x="1323" 
d="M876 1282l115 201q41 -6 84 -29t67 -54l-136 -242l-558 -1071l-116 -201q-40 6 -83 29.5t-68 52.5l137 242zM332 684q0 -89 13.5 -182t49.5 -172t100 -127.5t166 -48.5q103 0 167.5 48.5t100 127.5t48.5 172t13 182t-13 181.5t-48.5 171t-100 127t-167.5 48.5
q-102 0 -166 -48.5t-100 -127t-49.5 -171t-13.5 -181.5zM94 684q0 203 61.5 363t187.5 252.5t318 92.5q194 0 320 -93t187 -253.5t61 -361.5q0 -203 -61.5 -363.5t-187 -253.5t-319.5 -93q-145 0 -252 54t-177 150.5t-104 225.5t-34 280z" />
    <glyph glyph-name="Oslashacute" unicode="&#x1fe;" horiz-adv-x="1323" 
d="M876 1282l115 201q41 -6 84 -29t67 -54l-136 -242l-558 -1071l-116 -201q-40 6 -83 29.5t-68 52.5l137 242zM332 684q0 -89 13.5 -182t49.5 -172t100 -127.5t166 -48.5q103 0 167.5 48.5t100 127.5t48.5 172t13 182t-13 181.5t-48.5 171t-100 127t-167.5 48.5
q-102 0 -166 -48.5t-100 -127t-49.5 -171t-13.5 -181.5zM94 684q0 203 61.5 363t187.5 252.5t318 92.5q194 0 320 -93t187 -253.5t61 -361.5q0 -203 -61.5 -363.5t-187 -253.5t-319.5 -93q-145 0 -252 54t-177 150.5t-104 225.5t-34 280zM863 1820q21 -15 42 -45t36 -66
t19 -72l-444 -181q-26 16 -44.5 51t-22.5 65z" />
    <glyph glyph-name="Otilde" unicode="&#xd5;" horiz-adv-x="1319" 
d="M339 684q0 -88 12.5 -180.5t46.5 -170.5t97 -126.5t164 -48.5q102 0 164.5 48.5t96.5 126.5t46.5 170.5t12.5 180.5t-12.5 180t-46.5 170t-96.5 126t-164.5 48q-101 0 -164 -48t-97 -126t-46.5 -170t-12.5 -180zM94 684q0 204 61 364t186.5 252t317.5 92q145 0 251.5 -53
t176.5 -148.5t104 -225t34 -281.5q0 -205 -61.5 -365.5t-186.5 -252.5t-318 -92q-144 0 -251 53t-176.5 149t-103.5 225.5t-34 282.5zM569 1566q-16 8 -32 13t-33 5q-20 0 -40.5 -13.5t-37.5 -36.5l-22 -28q-33 1 -67 20.5t-47 48.5l15 34q32 72 87 114.5t128 42.5
q34 0 65 -10t56 -22l103 -49q17 -9 35.5 -14.5t34.5 -5.5q20 0 40 12.5t38 36.5l21 28q33 -1 68 -20.5t47 -48.5l-15 -34q-32 -72 -87 -114.5t-128 -42.5q-35 0 -66.5 10t-55.5 21z" />
    <glyph glyph-name="uni1E4C" unicode="&#x1e4c;" horiz-adv-x="1319" 
d="M339 684q0 -88 12.5 -180.5t46.5 -170.5t97 -126.5t164 -48.5q102 0 164.5 48.5t96.5 126.5t46.5 170.5t12.5 180.5t-12.5 180t-46.5 170t-96.5 126t-164.5 48q-101 0 -164 -48t-97 -126t-46.5 -170t-12.5 -180zM94 684q0 204 61 364t186.5 252t317.5 92q145 0 251.5 -53
t176.5 -148.5t104 -225t34 -281.5q0 -205 -61.5 -365.5t-186.5 -252.5t-318 -92q-144 0 -251 53t-176.5 149t-103.5 225.5t-34 282.5zM569 1566q-16 8 -32 13t-33 5q-20 0 -40.5 -13.5t-37.5 -36.5l-22 -28q-33 1 -67 20.5t-47 48.5l15 34q32 72 87 114.5t128 42.5
q34 0 65 -10t56 -22l103 -49q17 -9 35.5 -14.5t34.5 -5.5q20 0 40 12.5t38 36.5l21 28q33 -1 68 -20.5t47 -48.5l-15 -34q-32 -72 -87 -114.5t-128 -42.5q-35 0 -66.5 10t-55.5 21zM862 2202q21 -15 42 -45t36 -66t19 -72l-444 -181q-26 16 -44.5 51t-22.5 65z" />
    <glyph glyph-name="uni1E4E" unicode="&#x1e4e;" horiz-adv-x="1319" 
d="M339 684q0 -88 12.5 -180.5t46.5 -170.5t97 -126.5t164 -48.5q102 0 164.5 48.5t96.5 126.5t46.5 170.5t12.5 180.5t-12.5 180t-46.5 170t-96.5 126t-164.5 48q-101 0 -164 -48t-97 -126t-46.5 -170t-12.5 -180zM94 684q0 204 61 364t186.5 252t317.5 92q145 0 251.5 -53
t176.5 -148.5t104 -225t34 -281.5q0 -205 -61.5 -365.5t-186.5 -252.5t-318 -92q-144 0 -251 53t-176.5 149t-103.5 225.5t-34 282.5zM569 1566q-16 8 -32 13t-33 5q-20 0 -40.5 -13.5t-37.5 -36.5l-22 -28q-33 1 -67 20.5t-47 48.5l15 34q32 72 87 114.5t128 42.5
q34 0 65 -10t56 -22l103 -49q17 -9 35.5 -14.5t34.5 -5.5q20 0 40 12.5t38 36.5l21 28q33 -1 68 -20.5t47 -48.5l-15 -34q-32 -72 -87 -114.5t-128 -42.5q-35 0 -66.5 10t-55.5 21zM873 1868q-28 0 -57 6.5t-50 18.5q-8 22 -11.5 45.5t-3.5 40.5q0 19 3.5 42t11.5 45
q21 13 50 19t57 6q27 0 56 -6t49 -19q9 -22 12.5 -45t3.5 -42q0 -17 -3.5 -40.5t-12.5 -45.5q-20 -12 -49 -18.5t-56 -6.5zM445 1868q-27 0 -56 6.5t-50 18.5q-8 22 -11.5 45.5t-3.5 40.5q0 19 3.5 42t11.5 45q21 13 50 19t56 6q28 0 57 -6t50 -19q9 -22 12 -45t3 -42
q0 -17 -3 -40.5t-12 -45.5q-21 -12 -50 -18.5t-57 -6.5z" />
    <glyph glyph-name="uni022C" unicode="&#x22c;" horiz-adv-x="1319" 
d="M339 684q0 -88 12.5 -180.5t46.5 -170.5t97 -126.5t164 -48.5q102 0 164.5 48.5t96.5 126.5t46.5 170.5t12.5 180.5t-12.5 180t-46.5 170t-96.5 126t-164.5 48q-101 0 -164 -48t-97 -126t-46.5 -170t-12.5 -180zM94 684q0 204 61 364t186.5 252t317.5 92q145 0 251.5 -53
t176.5 -148.5t104 -225t34 -281.5q0 -205 -61.5 -365.5t-186.5 -252.5t-318 -92q-144 0 -251 53t-176.5 149t-103.5 225.5t-34 282.5zM569 1566q-16 8 -32 13t-33 5q-20 0 -40.5 -13.5t-37.5 -36.5l-22 -28q-33 1 -67 20.5t-47 48.5l15 34q32 72 87 114.5t128 42.5
q34 0 65 -10t56 -22l103 -49q17 -9 35.5 -14.5t34.5 -5.5q20 0 40 12.5t38 36.5l21 28q33 -1 68 -20.5t47 -48.5l-15 -34q-32 -72 -87 -114.5t-128 -42.5q-35 0 -66.5 10t-55.5 21zM358 1894q-7 22 -9.5 42t-2.5 46q0 25 2.5 45.5t9.5 43.5h603q6 -23 8.5 -41.5t2.5 -46.5
q0 -48 -11 -89h-603z" />
    <glyph glyph-name="OE" unicode="&#x152;" horiz-adv-x="1804" 
d="M1001 10q-42 -6 -98 -14.5t-118 -15t-122 -6.5q-195 0 -321 93t-187 254t-61 363q0 204 62 364t188 252t319 92q59 0 121 -7t118.5 -15.5t98.5 -15.5v-223q-38 16 -94 33.5t-120 30.5t-124 13q-102 0 -166.5 -48t-99.5 -126t-48 -170t-13 -180t13 -180.5t48 -170.5
t99 -126.5t165 -48.5q62 0 126.5 12.5t120 30.5t93.5 33v-224zM853 1366h225v-192q0 -42 1 -70t1 -69v-732q0 -30 -1 -54.5t-1 -55.5v-195h-225v1368zM1569 786q7 -22 10 -49.5t3 -46.5q0 -21 -3 -47.5t-10 -50.5h-361q-24 0 -61 0.5t-76.5 1.5t-70.5 1v188q31 1 70.5 1.5
t76.5 1t61 0.5h361zM1679 1366q6 -26 7.5 -49.5t1.5 -43.5t-5 -49t-14 -56h-461q-24 0 -61 0.5t-76 1t-70 1.5v195h678zM1721 197q0 -115 -37 -157t-117 -42h-566v190q51 3 100.5 6t112.5 3h507z" />
    <glyph glyph-name="P" unicode="P" horiz-adv-x="1144" 
d="M1075 924q0 -149 -59.5 -249.5t-164.5 -151.5t-241 -51h-299v178q32 2 90.5 3t115 2t82.5 1q96 0 146.5 43t69 105t18.5 120t-18.5 119.5t-69 104t-146.5 42.5q-39 0 -90 0.5t-99 1.5v-1192q-27 -5 -59.5 -6.5t-59.5 -1.5q-23 0 -56.5 1.5t-59.5 6.5v1355l14 13
q115 2 216.5 4t204.5 2q135 0 240 -49t165 -149.5t60 -251.5z" />
    <glyph glyph-name="Thorn" unicode="&#xde;" horiz-adv-x="1150" 
d="M291 1161q79 3 157.5 5t157.5 2q136 0 241 -46.5t166 -144t61 -249.5q0 -148 -60.5 -246.5t-165.5 -147t-242 -48.5h-315v180q24 1 66.5 2t90 2t87.5 1.5t60 0.5q97 0 147.5 40t69.5 99.5t19 116.5q0 58 -19 117.5t-69.5 98.5t-147.5 39q-29 0 -83.5 1t-114.5 2t-106 1
v174zM175 1366q26 5 59.5 6.5t56.5 1.5q27 0 59.5 -1.5t59.5 -6.5v-1366q-27 -5 -59.5 -6.5t-59.5 -1.5q-23 0 -56.5 1.5t-59.5 6.5v1366z" />
    <glyph glyph-name="Q" unicode="Q" horiz-adv-x="1310" 
d="M336 684q0 -89 12.5 -181t46 -169.5t96.5 -125t164 -47.5t164 47.5t96 125t45 169.5t12 181q0 90 -12 182t-45 169.5t-96 125t-164 47.5t-164 -47.5t-96.5 -125t-46 -169.5t-12.5 -182zM94 684q0 205 59 364.5t183 251.5t319 92q196 0 320.5 -92.5t183 -253t58.5 -363.5
q0 -121 -24 -237.5t-74.5 -211t-128.5 -151t-186 -58.5q-30 -20 -62 -35.5t-81 -15.5q-200 0 -325 92t-183.5 252.5t-58.5 365.5zM584 47l231 76l152 -108q61 -43 104 -66.5t78 -32t71 -9.5q-3 -83 -50 -126t-106 -43q-52 0 -91.5 16t-73.5 43z" />
    <glyph glyph-name="R" unicode="R" horiz-adv-x="1207" 
d="M1089 960q0 -93 -34.5 -167t-92 -124t-126.5 -74q51 -17 86.5 -64.5t57.5 -107.5l83 -221q21 -57 42 -90t49 -56q-23 -32 -68 -51t-90 -19q-65 0 -95.5 35.5t-55.5 105.5l-94 258q-23 65 -64 110t-131 45h-244v180q43 2 100.5 4t112.5 3t89 1q94 0 144.5 34.5t69.5 87.5
t19 110q0 59 -19 112t-69.5 86.5t-144.5 33.5h-62t-73.5 0.5t-70.5 1.5v-1194q-27 -5 -59 -6.5t-59 -1.5q-23 0 -56 1.5t-59 6.5v1355l14 13q115 2 225 4t215 2q139 0 242.5 -46.5t160.5 -138.5t57 -229z" />
    <glyph glyph-name="Racute" unicode="&#x154;" horiz-adv-x="1207" 
d="M1089 960q0 -93 -34.5 -167t-92 -124t-126.5 -74q51 -17 86.5 -64.5t57.5 -107.5l83 -221q21 -57 42 -90t49 -56q-23 -32 -68 -51t-90 -19q-65 0 -95.5 35.5t-55.5 105.5l-94 258q-23 65 -64 110t-131 45h-244v180q43 2 100.5 4t112.5 3t89 1q94 0 144.5 34.5t69.5 87.5
t19 110q0 59 -19 112t-69.5 86.5t-144.5 33.5h-62t-73.5 0.5t-70.5 1.5v-1194q-27 -5 -59 -6.5t-59 -1.5q-23 0 -56 1.5t-59 6.5v1355l14 13q115 2 225 4t215 2q139 0 242.5 -46.5t160.5 -138.5t57 -229zM800 1820q21 -15 42 -45t36 -66t19 -72l-444 -181q-26 16 -44.5 51
t-22.5 65z" />
    <glyph glyph-name="Rcaron" unicode="&#x158;" horiz-adv-x="1207" 
d="M1089 960q0 -93 -34.5 -167t-92 -124t-126.5 -74q51 -17 86.5 -64.5t57.5 -107.5l83 -221q21 -57 42 -90t49 -56q-23 -32 -68 -51t-90 -19q-65 0 -95.5 35.5t-55.5 105.5l-94 258q-23 65 -64 110t-131 45h-244v180q43 2 100.5 4t112.5 3t89 1q94 0 144.5 34.5t69.5 87.5
t19 110q0 59 -19 112t-69.5 86.5t-144.5 33.5h-62t-73.5 0.5t-70.5 1.5v-1194q-27 -5 -59 -6.5t-59 -1.5q-23 0 -56 1.5t-59 6.5v1355l14 13q115 2 225 4t215 2q139 0 242.5 -46.5t160.5 -138.5t57 -229zM824 1795q25 -9 55 -35t42 -63l-225 -213q-20 -5 -46 -7.5t-53 -2.5
t-53 2.5t-46 7.5l-225 213q12 37 42 63t55 35l227 -149z" />
    <glyph glyph-name="uni0156" unicode="&#x156;" horiz-adv-x="1207" 
d="M1089 960q0 -93 -34.5 -167t-92 -124t-126.5 -74q51 -17 86.5 -64.5t57.5 -107.5l83 -221q21 -57 42 -90t49 -56q-23 -32 -68 -51t-90 -19q-65 0 -95.5 35.5t-55.5 105.5l-94 258q-23 65 -64 110t-131 45h-244v180q43 2 100.5 4t112.5 3t89 1q94 0 144.5 34.5t69.5 87.5
t19 110q0 59 -19 112t-69.5 86.5t-144.5 33.5h-62t-73.5 0.5t-70.5 1.5v-1194q-27 -5 -59 -6.5t-59 -1.5q-23 0 -56 1.5t-59 6.5v1355l14 13q115 2 225 4t215 2q139 0 242.5 -46.5t160.5 -138.5t57 -229zM738 -122q9 -18 14.5 -48.5t5.5 -59.5q0 -105 -70 -187.5
t-189 -126.5q-28 10 -47.5 36.5t-25.5 59.5q122 78 122 194q0 26 -6.5 54t-19.5 51q57 38 140 38q20 0 39.5 -3t36.5 -8z" />
    <glyph glyph-name="uni0210" unicode="&#x210;" horiz-adv-x="1207" 
d="M1089 960q0 -93 -34.5 -167t-92 -124t-126.5 -74q51 -17 86.5 -64.5t57.5 -107.5l83 -221q21 -57 42 -90t49 -56q-23 -32 -68 -51t-90 -19q-65 0 -95.5 35.5t-55.5 105.5l-94 258q-23 65 -64 110t-131 45h-244v180q43 2 100.5 4t112.5 3t89 1q94 0 144.5 34.5t69.5 87.5
t19 110q0 59 -19 112t-69.5 86.5t-144.5 33.5h-62t-73.5 0.5t-70.5 1.5v-1194q-27 -5 -59 -6.5t-59 -1.5q-23 0 -56 1.5t-59 6.5v1355l14 13q115 2 225 4t215 2q139 0 242.5 -46.5t160.5 -138.5t57 -229zM293 1822l263 -273q-8 -30 -32.5 -56.5t-51.5 -38.5l-329 228
q17 48 55.5 87t94.5 53zM666 1822l263 -273q-8 -28 -32.5 -55.5t-52.5 -39.5l-329 228q18 48 56.5 87t94.5 53z" />
    <glyph glyph-name="uni1E5A" unicode="&#x1e5a;" horiz-adv-x="1207" 
d="M1089 960q0 -93 -34.5 -167t-92 -124t-126.5 -74q51 -17 86.5 -64.5t57.5 -107.5l83 -221q21 -57 42 -90t49 -56q-23 -32 -68 -51t-90 -19q-65 0 -95.5 35.5t-55.5 105.5l-94 258q-23 65 -64 110t-131 45h-244v180q43 2 100.5 4t112.5 3t89 1q94 0 144.5 34.5t69.5 87.5
t19 110q0 59 -19 112t-69.5 86.5t-144.5 33.5h-62t-73.5 0.5t-70.5 1.5v-1194q-27 -5 -59 -6.5t-59 -1.5q-23 0 -56 1.5t-59 6.5v1355l14 13q115 2 225 4t215 2q139 0 242.5 -46.5t160.5 -138.5t57 -229zM491 -241q0 24 5 49.5t14 46.5q18 11 52.5 18t65.5 7t66.5 -7
t51.5 -18q9 -21 14 -46.5t5 -49.5q0 -22 -5 -48t-14 -46q-17 -11 -52 -18.5t-66 -7.5t-64.5 7.5t-53.5 18.5q-9 20 -14 46t-5 48z" />
    <glyph glyph-name="uni0212" unicode="&#x212;" horiz-adv-x="1207" 
d="M1089 960q0 -93 -34.5 -167t-92 -124t-126.5 -74q51 -17 86.5 -64.5t57.5 -107.5l83 -221q21 -57 42 -90t49 -56q-23 -32 -68 -51t-90 -19q-65 0 -95.5 35.5t-55.5 105.5l-94 258q-23 65 -64 110t-131 45h-244v180q43 2 100.5 4t112.5 3t89 1q94 0 144.5 34.5t69.5 87.5
t19 110q0 59 -19 112t-69.5 86.5t-144.5 33.5h-62t-73.5 0.5t-70.5 1.5v-1194q-27 -5 -59 -6.5t-59 -1.5q-23 0 -56 1.5t-59 6.5v1355l14 13q115 2 225 4t215 2q139 0 242.5 -46.5t160.5 -138.5t57 -229zM937 1542q-22 -25 -57.5 -38.5t-71.5 -12.5q-27 58 -84 92t-127 34
t-127 -34t-84 -92q-35 -1 -71 12.5t-58 38.5q31 110 122.5 180t217.5 70t217.5 -70t122.5 -180z" />
    <glyph glyph-name="uni1E5E" unicode="&#x1e5e;" horiz-adv-x="1207" 
d="M1089 960q0 -93 -34.5 -167t-92 -124t-126.5 -74q51 -17 86.5 -64.5t57.5 -107.5l83 -221q21 -57 42 -90t49 -56q-23 -32 -68 -51t-90 -19q-65 0 -95.5 35.5t-55.5 105.5l-94 258q-23 65 -64 110t-131 45h-244v180q43 2 100.5 4t112.5 3t89 1q94 0 144.5 34.5t69.5 87.5
t19 110q0 59 -19 112t-69.5 86.5t-144.5 33.5h-62t-73.5 0.5t-70.5 1.5v-1194q-27 -5 -59 -6.5t-59 -1.5q-23 0 -56 1.5t-59 6.5v1355l14 13q115 2 225 4t215 2q139 0 242.5 -46.5t160.5 -138.5t57 -229zM930 -146q6 -22 8.5 -42t2.5 -46q0 -25 -2.5 -45t-8.5 -44h-604
q-6 24 -8.5 42t-2.5 46q0 48 11 89h604z" />
    <glyph glyph-name="S" unicode="S" horiz-adv-x="1112" 
d="M54 123q5 51 33 100t63 78q87 -55 193.5 -94.5t210.5 -39.5q114 0 175 50.5t61 126.5q0 62 -42 114t-129 89l-241 101q-126 53 -202 136.5t-76 215.5q0 112 59 200.5t163 140t238 51.5q129 0 242 -32.5t191 -72.5q-3 -50 -25.5 -99t-58.5 -82q-78 39 -173 67t-173 28
q-106 0 -164.5 -51t-58.5 -123q0 -60 42 -99.5t114 -70.5l241 -99q88 -36 155.5 -90.5t106 -126t38.5 -161.5q0 -116 -55 -208t-165 -145t-277 -53q-124 0 -253.5 39.5t-232.5 109.5z" />
    <glyph glyph-name="Sacute" unicode="&#x15a;" horiz-adv-x="1112" 
d="M54 123q5 51 33 100t63 78q87 -55 193.5 -94.5t210.5 -39.5q114 0 175 50.5t61 126.5q0 62 -42 114t-129 89l-241 101q-126 53 -202 136.5t-76 215.5q0 112 59 200.5t163 140t238 51.5q129 0 242 -32.5t191 -72.5q-3 -50 -25.5 -99t-58.5 -82q-78 39 -173 67t-173 28
q-106 0 -164.5 -51t-58.5 -123q0 -60 42 -99.5t114 -70.5l241 -99q88 -36 155.5 -90.5t106 -126t38.5 -161.5q0 -116 -55 -208t-165 -145t-277 -53q-124 0 -253.5 39.5t-232.5 109.5zM768 1820q21 -15 42 -45t36 -66t19 -72l-444 -181q-26 16 -44.5 51t-22.5 65z" />
    <glyph glyph-name="uni1E64" unicode="&#x1e64;" horiz-adv-x="1112" 
d="M54 123q5 51 33 100t63 78q87 -55 193.5 -94.5t210.5 -39.5q114 0 175 50.5t61 126.5q0 62 -42 114t-129 89l-241 101q-126 53 -202 136.5t-76 215.5q0 112 59 200.5t163 140t238 51.5q129 0 242 -32.5t191 -72.5q-3 -50 -25.5 -99t-58.5 -82q-78 39 -173 67t-173 28
q-106 0 -164.5 -51t-58.5 -123q0 -60 42 -99.5t114 -70.5l241 -99q88 -36 155.5 -90.5t106 -126t38.5 -161.5q0 -116 -55 -208t-165 -145t-277 -53q-124 0 -253.5 39.5t-232.5 109.5zM795 1815q20 -15 40.5 -45.5t35 -67t17.5 -72.5l-450 -170q-26 17 -43 53t-21 66z
M307 1901q0 24 5 49.5t14 45.5q20 12 53.5 19t64.5 7q30 0 65.5 -7t52.5 -19q9 -20 14 -46t5 -49q0 -22 -5 -48t-14 -46q-16 -11 -52 -18.5t-66 -7.5q-31 0 -65.5 7t-52.5 19q-9 20 -14 46t-5 48z" />
    <glyph glyph-name="Scaron" unicode="&#x160;" horiz-adv-x="1112" 
d="M54 123q5 51 33 100t63 78q87 -55 193.5 -94.5t210.5 -39.5q114 0 175 50.5t61 126.5q0 62 -42 114t-129 89l-241 101q-126 53 -202 136.5t-76 215.5q0 112 59 200.5t163 140t238 51.5q129 0 242 -32.5t191 -72.5q-3 -50 -25.5 -99t-58.5 -82q-78 39 -173 67t-173 28
q-106 0 -164.5 -51t-58.5 -123q0 -60 42 -99.5t114 -70.5l241 -99q88 -36 155.5 -90.5t106 -126t38.5 -161.5q0 -116 -55 -208t-165 -145t-277 -53q-124 0 -253.5 39.5t-232.5 109.5zM792 1795q25 -9 55 -35t42 -63l-225 -213q-20 -5 -46 -7.5t-53 -2.5t-53 2.5t-46 7.5
l-225 213q12 37 42 63t55 35l227 -149z" />
    <glyph glyph-name="uni1E66" unicode="&#x1e66;" horiz-adv-x="1112" 
d="M54 123q5 51 33 100t63 78q87 -55 193.5 -94.5t210.5 -39.5q114 0 175 50.5t61 126.5q0 62 -42 114t-129 89l-241 101q-126 53 -202 136.5t-76 215.5q0 112 59 200.5t163 140t238 51.5q129 0 242 -32.5t191 -72.5q-3 -50 -25.5 -99t-58.5 -82q-78 39 -173 67t-173 28
q-106 0 -164.5 -51t-58.5 -123q0 -60 42 -99.5t114 -70.5l241 -99q88 -36 155.5 -90.5t106 -126t38.5 -161.5q0 -116 -55 -208t-165 -145t-277 -53q-124 0 -253.5 39.5t-232.5 109.5zM792 1795q25 -9 55 -35t42 -63l-225 -213q-20 -5 -46 -7.5t-53 -2.5t-53 2.5t-46 7.5
l-225 213q12 37 42 63t55 35l227 -149zM428 1995q0 23 5 48.5t14 45.5q20 12 53.5 19t64.5 7t66 -7t52 -19q9 -20 14 -46t5 -48q0 -53 -19 -96q-16 -11 -51.5 -18t-66.5 -7t-65.5 7t-52.5 18q-19 43 -19 96z" />
    <glyph glyph-name="Scedilla" unicode="&#x15e;" horiz-adv-x="1112" 
d="M54 123q5 51 33 100t63 78q87 -55 193.5 -94.5t210.5 -39.5q114 0 175 50.5t61 126.5q0 62 -42 114t-129 89l-241 101q-126 53 -202 136.5t-76 215.5q0 112 59 200.5t163 140t238 51.5q129 0 242 -32.5t191 -72.5q-3 -50 -25.5 -99t-58.5 -82q-78 39 -173 67t-173 28
q-106 0 -164.5 -51t-58.5 -123q0 -60 42 -99.5t114 -70.5l241 -99q88 -36 155.5 -90.5t106 -126t38.5 -161.5q0 -116 -55 -208t-165 -145t-277 -53q-124 0 -253.5 39.5t-232.5 109.5zM412 -150q12 34 33.5 83t39.5 79h134q-10 -14 -23.5 -40.5t-20.5 -42.5
q76 -7 128.5 -54.5t52.5 -121.5q0 -90 -70 -146.5t-178 -56.5q-47 0 -90.5 12t-69.5 29q2 31 14 60t29 51q19 -11 45.5 -19t53.5 -8q44 0 64.5 21.5t20.5 51.5q0 31 -20.5 52.5t-59.5 21.5q-12 0 -24 -2.5t-22 -6.5q-12 5 -22.5 15.5t-14.5 21.5z" />
    <glyph glyph-name="Scircumflex" unicode="&#x15c;" horiz-adv-x="1112" 
d="M54 123q5 51 33 100t63 78q87 -55 193.5 -94.5t210.5 -39.5q114 0 175 50.5t61 126.5q0 62 -42 114t-129 89l-241 101q-126 53 -202 136.5t-76 215.5q0 112 59 200.5t163 140t238 51.5q129 0 242 -32.5t191 -72.5q-3 -50 -25.5 -99t-58.5 -82q-78 39 -173 67t-173 28
q-106 0 -164.5 -51t-58.5 -123q0 -60 42 -99.5t114 -70.5l241 -99q88 -36 155.5 -90.5t106 -126t38.5 -161.5q0 -116 -55 -208t-165 -145t-277 -53q-124 0 -253.5 39.5t-232.5 109.5zM663 1785l225 -214q-12 -36 -42 -62.5t-56 -34.5l-226 149l-227 -149q-25 8 -55.5 34.5
t-41.5 62.5l224 214q21 3 47 5.5t53 2.5t52.5 -2.5t46.5 -5.5z" />
    <glyph glyph-name="uni0218" unicode="&#x218;" horiz-adv-x="1112" 
d="M54 123q5 51 33 100t63 78q87 -55 193.5 -94.5t210.5 -39.5q114 0 175 50.5t61 126.5q0 62 -42 114t-129 89l-241 101q-126 53 -202 136.5t-76 215.5q0 112 59 200.5t163 140t238 51.5q129 0 242 -32.5t191 -72.5q-3 -50 -25.5 -99t-58.5 -82q-78 39 -173 67t-173 28
q-106 0 -164.5 -51t-58.5 -123q0 -60 42 -99.5t114 -70.5l241 -99q88 -36 155.5 -90.5t106 -126t38.5 -161.5q0 -116 -55 -208t-165 -145t-277 -53q-124 0 -253.5 39.5t-232.5 109.5zM664 -122q9 -18 14.5 -48.5t5.5 -59.5q0 -105 -70 -187.5t-189 -126.5q-28 10 -47.5 36.5
t-25.5 59.5q122 78 122 194q0 26 -6.5 54t-19.5 51q57 38 140 38q20 0 39.5 -3t36.5 -8z" />
    <glyph glyph-name="uni1E60" unicode="&#x1e60;" horiz-adv-x="1112" 
d="M54 123q5 51 33 100t63 78q87 -55 193.5 -94.5t210.5 -39.5q114 0 175 50.5t61 126.5q0 62 -42 114t-129 89l-241 101q-126 53 -202 136.5t-76 215.5q0 112 59 200.5t163 140t238 51.5q129 0 242 -32.5t191 -72.5q-3 -50 -25.5 -99t-58.5 -82q-78 39 -173 67t-173 28
q-106 0 -164.5 -51t-58.5 -123q0 -60 42 -99.5t114 -70.5l241 -99q88 -36 155.5 -90.5t106 -126t38.5 -161.5q0 -116 -55 -208t-165 -145t-277 -53q-124 0 -253.5 39.5t-232.5 109.5zM428 1607q0 23 5 48.5t14 45.5q20 12 53.5 19t64.5 7t66 -7t52 -19q9 -20 14 -46t5 -48
q0 -53 -19 -96q-16 -11 -51.5 -18t-66.5 -7t-65.5 7t-52.5 18q-19 43 -19 96z" />
    <glyph glyph-name="uni1E62" unicode="&#x1e62;" horiz-adv-x="1112" 
d="M54 123q5 51 33 100t63 78q87 -55 193.5 -94.5t210.5 -39.5q114 0 175 50.5t61 126.5q0 62 -42 114t-129 89l-241 101q-126 53 -202 136.5t-76 215.5q0 112 59 200.5t163 140t238 51.5q129 0 242 -32.5t191 -72.5q-3 -50 -25.5 -99t-58.5 -82q-78 39 -173 67t-173 28
q-106 0 -164.5 -51t-58.5 -123q0 -60 42 -99.5t114 -70.5l241 -99q88 -36 155.5 -90.5t106 -126t38.5 -161.5q0 -116 -55 -208t-165 -145t-277 -53q-124 0 -253.5 39.5t-232.5 109.5zM417 -241q0 24 5 49.5t14 46.5q18 11 52.5 18t65.5 7t66.5 -7t51.5 -18q9 -21 14 -46.5
t5 -49.5q0 -22 -5 -48t-14 -46q-17 -11 -52 -18.5t-66 -7.5t-64.5 7.5t-53.5 18.5q-9 20 -14 46t-5 48z" />
    <glyph glyph-name="uni1E68" unicode="&#x1e68;" horiz-adv-x="1112" 
d="M54 123q5 51 33 100t63 78q87 -55 193.5 -94.5t210.5 -39.5q114 0 175 50.5t61 126.5q0 62 -42 114t-129 89l-241 101q-126 53 -202 136.5t-76 215.5q0 112 59 200.5t163 140t238 51.5q129 0 242 -32.5t191 -72.5q-3 -50 -25.5 -99t-58.5 -82q-78 39 -173 67t-173 28
q-106 0 -164.5 -51t-58.5 -123q0 -60 42 -99.5t114 -70.5l241 -99q88 -36 155.5 -90.5t106 -126t38.5 -161.5q0 -116 -55 -208t-165 -145t-277 -53q-124 0 -253.5 39.5t-232.5 109.5zM417 -241q0 24 5 49.5t14 46.5q18 11 52.5 18t65.5 7t66.5 -7t51.5 -18q9 -21 14 -46.5
t5 -49.5q0 -22 -5 -48t-14 -46q-17 -11 -52 -18.5t-66 -7.5t-64.5 7.5t-53.5 18.5q-9 20 -14 46t-5 48zM428 1607q0 23 5 48.5t14 45.5q20 12 53.5 19t64.5 7t66 -7t52 -19q9 -20 14 -46t5 -48q0 -53 -19 -96q-16 -11 -51.5 -18t-66.5 -7t-65.5 7t-52.5 18q-19 43 -19 96z
" />
    <glyph glyph-name="uni1E9E" unicode="&#x1e9e;" horiz-adv-x="1289" 
d="M797 -23q-81 0 -155.5 20.5t-126.5 54.5q5 46 28.5 91t56.5 71q83 -51 174 -51q93 0 151.5 58.5t58.5 166.5q0 113 -64.5 171t-159.5 58q-26 0 -48 -3.5t-41 -9.5q-75 54 -90 147l226 267q32 38 55.5 65t54.5 56l-2 12q-47 24 -114 39t-133 15q-130 0 -204 -76.5
t-74 -242.5v-886q-27 -5 -60 -6.5t-57 -1.5q-23 0 -55.5 1.5t-60.5 6.5v925q0 143 59.5 248.5t172.5 163.5t272 58q120 0 235 -23.5t209 -65.5q19 -40 30 -72.5t11 -64.5q0 -40 -18 -68t-45 -59l-167 -192q-34 -39 -72.5 -75t-82.5 -66l-13 45q29 11 52 15t49 4
q162 0 264.5 -102t102.5 -279q0 -126 -53.5 -219.5t-148 -144.5t-217.5 -51z" />
    <glyph glyph-name="T" unicode="T" horiz-adv-x="991" 
d="M31 1169q-5 26 -7 51.5t-2 46.5q0 22 2 47.5t7 51.5h934q6 -19 9.5 -44t3.5 -48q0 -57 -31.5 -81t-97.5 -24h-117q-20 0 -58 1t-59 1h-235q-20 0 -58 -1t-59 -1h-232zM380 1023q0 41 0.5 73.5t0.5 74.5v97h233v-97q0 -42 0.5 -74.5t0.5 -73.5v-1023q-28 -5 -59.5 -6.5
t-57.5 -1.5t-57.5 1.5t-60.5 6.5v1023z" />
    <glyph glyph-name="Tbar" unicode="&#x166;" horiz-adv-x="991" 
d="M136 568q-11 39 -11 88q0 25 2.5 46.5t8.5 44.5h723q6 -23 8.5 -42t2.5 -47q0 -49 -11 -90h-723zM31 1169q-5 26 -7 51.5t-2 46.5q0 22 2 47.5t7 51.5h934q6 -19 9.5 -44t3.5 -48q0 -57 -31.5 -81t-97.5 -24h-117q-20 0 -58 1t-59 1h-235q-20 0 -58 -1t-59 -1h-232z
M380 1023q0 41 0.5 73.5t0.5 74.5v97h233v-97q0 -42 0.5 -74.5t0.5 -73.5v-1023q-28 -5 -59.5 -6.5t-57.5 -1.5t-57.5 1.5t-60.5 6.5v1023z" />
    <glyph glyph-name="Tcaron" unicode="&#x164;" horiz-adv-x="991" 
d="M31 1169q-5 26 -7 51.5t-2 46.5q0 22 2 47.5t7 51.5h934q6 -19 9.5 -44t3.5 -48q0 -57 -31.5 -81t-97.5 -24h-117q-20 0 -58 1t-59 1h-235q-20 0 -58 -1t-59 -1h-232zM380 1023q0 41 0.5 73.5t0.5 74.5v97h233v-97q0 -42 0.5 -74.5t0.5 -73.5v-1023q-28 -5 -59.5 -6.5
t-57.5 -1.5t-57.5 1.5t-60.5 6.5v1023zM724 1795q25 -9 55 -35t42 -63l-225 -213q-20 -5 -46 -7.5t-53 -2.5t-53 2.5t-46 7.5l-225 213q12 37 42 63t55 35l227 -149z" />
    <glyph glyph-name="uni0162" unicode="&#x162;" horiz-adv-x="991" 
d="M31 1169q-5 26 -7 51.5t-2 46.5q0 22 2 47.5t7 51.5h934q6 -19 9.5 -44t3.5 -48q0 -57 -31.5 -81t-97.5 -24h-117q-20 0 -58 1t-59 1h-235q-20 0 -58 -1t-59 -1h-232zM380 1023q0 41 0.5 73.5t0.5 74.5v97h233v-97q0 -42 0.5 -74.5t0.5 -73.5v-1023q-28 -5 -59.5 -6.5
t-57.5 -1.5t-57.5 1.5t-60.5 6.5v1023zM369 -150q12 34 33.5 83t39.5 79h134q-10 -14 -23.5 -40.5t-20.5 -42.5q76 -7 128.5 -54.5t52.5 -121.5q0 -90 -70 -146.5t-178 -56.5q-47 0 -90.5 12t-69.5 29q2 31 14 60t29 51q19 -11 45.5 -19t53.5 -8q44 0 64.5 21.5t20.5 51.5
q0 31 -20.5 52.5t-59.5 21.5q-12 0 -24 -2.5t-22 -6.5q-12 5 -22.5 15.5t-14.5 21.5z" />
    <glyph glyph-name="uni021A" unicode="&#x21a;" horiz-adv-x="991" 
d="M31 1169q-5 26 -7 51.5t-2 46.5q0 22 2 47.5t7 51.5h934q6 -19 9.5 -44t3.5 -48q0 -57 -31.5 -81t-97.5 -24h-117q-20 0 -58 1t-59 1h-235q-20 0 -58 -1t-59 -1h-232zM380 1023q0 41 0.5 73.5t0.5 74.5v97h233v-97q0 -42 0.5 -74.5t0.5 -73.5v-1023q-28 -5 -59.5 -6.5
t-57.5 -1.5t-57.5 1.5t-60.5 6.5v1023zM608 -122q9 -18 14.5 -48.5t5.5 -59.5q0 -105 -70 -187.5t-189 -126.5q-28 10 -47.5 36.5t-25.5 59.5q122 78 122 194q0 26 -6.5 54t-19.5 51q57 38 140 38q20 0 39.5 -3t36.5 -8z" />
    <glyph glyph-name="uni1E6C" unicode="&#x1e6c;" horiz-adv-x="991" 
d="M31 1169q-5 26 -7 51.5t-2 46.5q0 22 2 47.5t7 51.5h934q6 -19 9.5 -44t3.5 -48q0 -57 -31.5 -81t-97.5 -24h-117q-20 0 -58 1t-59 1h-235q-20 0 -58 -1t-59 -1h-232zM380 1023q0 41 0.5 73.5t0.5 74.5v97h233v-97q0 -42 0.5 -74.5t0.5 -73.5v-1023q-28 -5 -59.5 -6.5
t-57.5 -1.5t-57.5 1.5t-60.5 6.5v1023zM361 -241q0 24 5 49.5t14 46.5q18 11 52.5 18t65.5 7t66.5 -7t51.5 -18q9 -21 14 -46.5t5 -49.5q0 -22 -5 -48t-14 -46q-17 -11 -52 -18.5t-66 -7.5t-64.5 7.5t-53.5 18.5q-9 20 -14 46t-5 48z" />
    <glyph glyph-name="uni1E6E" unicode="&#x1e6e;" horiz-adv-x="991" 
d="M31 1169q-5 26 -7 51.5t-2 46.5q0 22 2 47.5t7 51.5h934q6 -19 9.5 -44t3.5 -48q0 -57 -31.5 -81t-97.5 -24h-117q-20 0 -58 1t-59 1h-235q-20 0 -58 -1t-59 -1h-232zM380 1023q0 41 0.5 73.5t0.5 74.5v97h233v-97q0 -42 0.5 -74.5t0.5 -73.5v-1023q-28 -5 -59.5 -6.5
t-57.5 -1.5t-57.5 1.5t-60.5 6.5v1023zM800 -146q6 -22 8.5 -42t2.5 -46q0 -25 -2.5 -45t-8.5 -44h-604q-6 24 -8.5 42t-2.5 46q0 48 11 89h604z" />
    <glyph glyph-name="U" unicode="U" horiz-adv-x="1340" 
d="M1183 484q0 -165 -63 -279t-178 -172.5t-273 -58.5q-156 0 -271 58.5t-178 172.5t-63 279v878l13 13h89q70 0 101.5 -35.5t31.5 -113.5v-742q0 -159 69.5 -240.5t208.5 -81.5q140 0 209 81.5t69 240.5v882q27 5 58 6.5t56 1.5t59.5 -1.5t61.5 -6.5v-882z" />
    <glyph glyph-name="Uacute" unicode="&#xda;" horiz-adv-x="1340" 
d="M1183 484q0 -165 -63 -279t-178 -172.5t-273 -58.5q-156 0 -271 58.5t-178 172.5t-63 279v878l13 13h89q70 0 101.5 -35.5t31.5 -113.5v-742q0 -159 69.5 -240.5t208.5 -81.5q140 0 209 81.5t69 240.5v882q27 5 58 6.5t56 1.5t59.5 -1.5t61.5 -6.5v-882zM870 1820
q21 -15 42 -45t36 -66t19 -72l-444 -181q-26 16 -44.5 51t-22.5 65z" />
    <glyph glyph-name="Ubreve" unicode="&#x16c;" horiz-adv-x="1340" 
d="M1183 484q0 -165 -63 -279t-178 -172.5t-273 -58.5q-156 0 -271 58.5t-178 172.5t-63 279v878l13 13h89q70 0 101.5 -35.5t31.5 -113.5v-742q0 -159 69.5 -240.5t208.5 -81.5q140 0 209 81.5t69 240.5v882q27 5 58 6.5t56 1.5t59.5 -1.5t61.5 -6.5v-882zM1007 1724
q-31 -109 -122.5 -180t-217.5 -71t-217.5 71t-122.5 180q22 25 58 38.5t71 12.5q27 -59 84 -92.5t127 -33.5t127 33.5t84 92.5q36 1 71.5 -12.5t57.5 -38.5z" />
    <glyph glyph-name="Ucircumflex" unicode="&#xdb;" horiz-adv-x="1340" 
d="M1183 484q0 -165 -63 -279t-178 -172.5t-273 -58.5q-156 0 -271 58.5t-178 172.5t-63 279v878l13 13h89q70 0 101.5 -35.5t31.5 -113.5v-742q0 -159 69.5 -240.5t208.5 -81.5q140 0 209 81.5t69 240.5v882q27 5 58 6.5t56 1.5t59.5 -1.5t61.5 -6.5v-882zM764 1785
l225 -214q-12 -36 -42 -62.5t-56 -34.5l-226 149l-227 -149q-25 8 -55.5 34.5t-41.5 62.5l224 214q21 3 47 5.5t53 2.5t52.5 -2.5t46.5 -5.5z" />
    <glyph glyph-name="uni0214" unicode="&#x214;" horiz-adv-x="1340" 
d="M1183 484q0 -165 -63 -279t-178 -172.5t-273 -58.5q-156 0 -271 58.5t-178 172.5t-63 279v878l13 13h89q70 0 101.5 -35.5t31.5 -113.5v-742q0 -159 69.5 -240.5t208.5 -81.5q140 0 209 81.5t69 240.5v882q27 5 58 6.5t56 1.5t59.5 -1.5t61.5 -6.5v-882zM362 1822
l263 -273q-8 -30 -32.5 -56.5t-51.5 -38.5l-329 228q17 48 55.5 87t94.5 53zM735 1822l263 -273q-8 -28 -32.5 -55.5t-52.5 -39.5l-329 228q18 48 56.5 87t94.5 53z" />
    <glyph glyph-name="Udieresis" unicode="&#xdc;" horiz-adv-x="1340" 
d="M1183 484q0 -165 -63 -279t-178 -172.5t-273 -58.5q-156 0 -271 58.5t-178 172.5t-63 279v878l13 13h89q70 0 101.5 -35.5t31.5 -113.5v-742q0 -159 69.5 -240.5t208.5 -81.5q140 0 209 81.5t69 240.5v882q27 5 58 6.5t56 1.5t59.5 -1.5t61.5 -6.5v-882zM881 1486
q-28 0 -57 6.5t-50 18.5q-8 22 -11.5 45.5t-3.5 40.5q0 19 3.5 42t11.5 45q21 13 50 19t57 6q27 0 56 -6t49 -19q9 -22 12.5 -45t3.5 -42q0 -17 -3.5 -40.5t-12.5 -45.5q-20 -12 -49 -18.5t-56 -6.5zM453 1486q-27 0 -56 6.5t-50 18.5q-8 22 -11.5 45.5t-3.5 40.5
q0 19 3.5 42t11.5 45q21 13 50 19t56 6q28 0 57 -6t50 -19q9 -22 12 -45t3 -42q0 -17 -3 -40.5t-12 -45.5q-21 -12 -50 -18.5t-57 -6.5z" />
    <glyph glyph-name="uni1EE4" unicode="&#x1ee4;" horiz-adv-x="1340" 
d="M1183 484q0 -165 -63 -279t-178 -172.5t-273 -58.5q-156 0 -271 58.5t-178 172.5t-63 279v878l13 13h89q70 0 101.5 -35.5t31.5 -113.5v-742q0 -159 69.5 -240.5t208.5 -81.5q140 0 209 81.5t69 240.5v882q27 5 58 6.5t56 1.5t59.5 -1.5t61.5 -6.5v-882zM532 -241
q0 24 5 49.5t14 46.5q18 11 52.5 18t65.5 7t66.5 -7t51.5 -18q9 -21 14 -46.5t5 -49.5q0 -22 -5 -48t-14 -46q-17 -11 -52 -18.5t-66 -7.5t-64.5 7.5t-53.5 18.5q-9 20 -14 46t-5 48z" />
    <glyph glyph-name="Ugrave" unicode="&#xd9;" horiz-adv-x="1340" 
d="M1183 484q0 -165 -63 -279t-178 -172.5t-273 -58.5q-156 0 -271 58.5t-178 172.5t-63 279v878l13 13h89q70 0 101.5 -35.5t31.5 -113.5v-742q0 -159 69.5 -240.5t208.5 -81.5q140 0 209 81.5t69 240.5v882q27 5 58 6.5t56 1.5t59.5 -1.5t61.5 -6.5v-882zM489 1820
q-21 -15 -42.5 -45t-37 -66t-19.5 -72l445 -181q29 18 45.5 51t22.5 65z" />
    <glyph glyph-name="uni1EE6" unicode="&#x1ee6;" horiz-adv-x="1340" 
d="M1183 484q0 -165 -63 -279t-178 -172.5t-273 -58.5q-156 0 -271 58.5t-178 172.5t-63 279v878l13 13h89q70 0 101.5 -35.5t31.5 -113.5v-742q0 -159 69.5 -240.5t208.5 -81.5q140 0 209 81.5t69 240.5v882q27 5 58 6.5t56 1.5t59.5 -1.5t61.5 -6.5v-882zM574 1561
q58 19 92 45t34 59q0 27 -21 44t-57 17q-30 0 -57.5 -8.5t-53.5 -22.5q-22 23 -33 53.5t-12 61.5q36 21 89.5 37t112.5 16q101 0 158 -50t57 -124q0 -80 -70 -142.5t-178 -94.5q-27 17 -43 47t-18 62z" />
    <glyph glyph-name="Uhorn" unicode="&#x1af;" horiz-adv-x="1369" 
d="M157 484v878l13 13h89q70 0 101.5 -35.5t31.5 -113.5v-742q0 -159 69 -240.5t208 -81.5q140 0 209.5 81.5t69.5 240.5v882q27 5 58 6.5t56 1.5h23q71 0 98.5 29.5t27.5 69.5q0 27 -11 59t-22 52q31 28 80 46t105 15q18 -27 34 -76.5t16 -101.5q0 -86 -56.5 -148
t-174.5 -80v-755q0 -165 -62.5 -279t-177.5 -172.5t-273 -58.5q-157 0 -271.5 58.5t-177.5 172.5t-63 279z" />
    <glyph glyph-name="uni1EE8" unicode="&#x1ee8;" horiz-adv-x="1369" 
d="M157 484v878l13 13h89q70 0 101.5 -35.5t31.5 -113.5v-742q0 -159 69 -240.5t208 -81.5q140 0 209.5 81.5t69.5 240.5v882q27 5 58 6.5t56 1.5h23q71 0 98.5 29.5t27.5 69.5q0 27 -11 59t-22 52q31 28 80 46t105 15q18 -27 34 -76.5t16 -101.5q0 -86 -56.5 -148
t-174.5 -80v-755q0 -165 -62.5 -279t-177.5 -172.5t-273 -58.5q-157 0 -271.5 58.5t-177.5 172.5t-63 279zM870 1820q21 -15 42 -45t36 -66t19 -72l-444 -181q-26 16 -44.5 51t-22.5 65z" />
    <glyph glyph-name="uni1EF0" unicode="&#x1ef0;" horiz-adv-x="1369" 
d="M157 484v878l13 13h89q70 0 101.5 -35.5t31.5 -113.5v-742q0 -159 69 -240.5t208 -81.5q140 0 209.5 81.5t69.5 240.5v882q27 5 58 6.5t56 1.5h23q71 0 98.5 29.5t27.5 69.5q0 27 -11 59t-22 52q31 28 80 46t105 15q18 -27 34 -76.5t16 -101.5q0 -86 -56.5 -148
t-174.5 -80v-755q0 -165 -62.5 -279t-177.5 -172.5t-273 -58.5q-157 0 -271.5 58.5t-177.5 172.5t-63 279zM532 -241q0 24 5 49.5t14 46.5q18 11 52.5 18t65.5 7t66.5 -7t51.5 -18q9 -21 14 -46.5t5 -49.5q0 -22 -5 -48t-14 -46q-17 -11 -52 -18.5t-66 -7.5t-64.5 7.5
t-53.5 18.5q-9 20 -14 46t-5 48z" />
    <glyph glyph-name="uni1EEA" unicode="&#x1eea;" horiz-adv-x="1369" 
d="M157 484v878l13 13h89q70 0 101.5 -35.5t31.5 -113.5v-742q0 -159 69 -240.5t208 -81.5q140 0 209.5 81.5t69.5 240.5v882q27 5 58 6.5t56 1.5h23q71 0 98.5 29.5t27.5 69.5q0 27 -11 59t-22 52q31 28 80 46t105 15q18 -27 34 -76.5t16 -101.5q0 -86 -56.5 -148
t-174.5 -80v-755q0 -165 -62.5 -279t-177.5 -172.5t-273 -58.5q-157 0 -271.5 58.5t-177.5 172.5t-63 279zM489 1820q-21 -15 -42.5 -45t-37 -66t-19.5 -72l445 -181q29 18 45.5 51t22.5 65z" />
    <glyph glyph-name="uni1EEC" unicode="&#x1eec;" horiz-adv-x="1369" 
d="M157 484v878l13 13h89q70 0 101.5 -35.5t31.5 -113.5v-742q0 -159 69 -240.5t208 -81.5q140 0 209.5 81.5t69.5 240.5v882q27 5 58 6.5t56 1.5h23q71 0 98.5 29.5t27.5 69.5q0 27 -11 59t-22 52q31 28 80 46t105 15q18 -27 34 -76.5t16 -101.5q0 -86 -56.5 -148
t-174.5 -80v-755q0 -165 -62.5 -279t-177.5 -172.5t-273 -58.5q-157 0 -271.5 58.5t-177.5 172.5t-63 279zM574 1561q58 19 92 45t34 59q0 27 -21 44t-57 17q-30 0 -57.5 -8.5t-53.5 -22.5q-22 23 -33 53.5t-12 61.5q36 21 89.5 37t112.5 16q101 0 158 -50t57 -124
q0 -80 -70 -142.5t-178 -94.5q-27 17 -43 47t-18 62z" />
    <glyph glyph-name="uni1EEE" unicode="&#x1eee;" horiz-adv-x="1369" 
d="M157 484v878l13 13h89q70 0 101.5 -35.5t31.5 -113.5v-742q0 -159 69 -240.5t208 -81.5q140 0 209.5 81.5t69.5 240.5v882q27 5 58 6.5t56 1.5h23q71 0 98.5 29.5t27.5 69.5q0 27 -11 59t-22 52q31 28 80 46t105 15q18 -27 34 -76.5t16 -101.5q0 -86 -56.5 -148
t-174.5 -80v-755q0 -165 -62.5 -279t-177.5 -172.5t-273 -58.5q-157 0 -271.5 58.5t-177.5 172.5t-63 279zM601 1561q-14 8 -31 14t-34 6q-26 0 -46.5 -14t-35.5 -35l-22 -28q-33 1 -67 20t-47 49l15 33q31 72 86 115t128 43q37 0 68 -10t58 -26l59 -35q15 -8 32 -13.5
t34 -5.5q26 0 46.5 14t35.5 35l21 28q33 -1 68 -20.5t47 -49.5l-15 -33q-32 -71 -86.5 -114t-128.5 -43q-35 0 -67 10.5t-59 24.5z" />
    <glyph glyph-name="Uhungarumlaut" unicode="&#x170;" horiz-adv-x="1340" 
d="M1183 484q0 -165 -63 -279t-178 -172.5t-273 -58.5q-156 0 -271 58.5t-178 172.5t-63 279v878l13 13h89q70 0 101.5 -35.5t31.5 -113.5v-742q0 -159 69.5 -240.5t208.5 -81.5q140 0 209 81.5t69 240.5v882q27 5 58 6.5t56 1.5t59.5 -1.5t61.5 -6.5v-882zM972 1822
q55 -14 93.5 -53t56.5 -87l-330 -228q-26 12 -50.5 38.5t-32.5 56.5zM599 1822q56 -14 94.5 -53t56.5 -87l-330 -228q-27 12 -51.5 39.5t-32.5 55.5z" />
    <glyph glyph-name="uni0216" unicode="&#x216;" horiz-adv-x="1340" 
d="M1183 484q0 -165 -63 -279t-178 -172.5t-273 -58.5q-156 0 -271 58.5t-178 172.5t-63 279v878l13 13h89q70 0 101.5 -35.5t31.5 -113.5v-742q0 -159 69.5 -240.5t208.5 -81.5q140 0 209 81.5t69 240.5v882q27 5 58 6.5t56 1.5t59.5 -1.5t61.5 -6.5v-882zM1007 1542
q-22 -25 -57.5 -38.5t-71.5 -12.5q-27 58 -84 92t-127 34t-127 -34t-84 -92q-35 -1 -71 12.5t-58 38.5q31 110 122.5 180t217.5 70t217.5 -70t122.5 -180z" />
    <glyph glyph-name="Umacron" unicode="&#x16a;" horiz-adv-x="1340" 
d="M1183 484q0 -165 -63 -279t-178 -172.5t-273 -58.5q-156 0 -271 58.5t-178 172.5t-63 279v878l13 13h89q70 0 101.5 -35.5t31.5 -113.5v-742q0 -159 69.5 -240.5t208.5 -81.5q140 0 209 81.5t69 240.5v882q27 5 58 6.5t56 1.5t59.5 -1.5t61.5 -6.5v-882zM366 1512
q-7 22 -9.5 42t-2.5 46q0 25 2.5 45.5t9.5 43.5h603q6 -23 8.5 -41.5t2.5 -46.5q0 -48 -11 -89h-603z" />
    <glyph glyph-name="uni1E7A" unicode="&#x1e7a;" horiz-adv-x="1340" 
d="M1183 484q0 -165 -63 -279t-178 -172.5t-273 -58.5q-156 0 -271 58.5t-178 172.5t-63 279v878l13 13h89q70 0 101.5 -35.5t31.5 -113.5v-742q0 -159 69.5 -240.5t208.5 -81.5q140 0 209 81.5t69 240.5v882q27 5 58 6.5t56 1.5t59.5 -1.5t61.5 -6.5v-882zM366 1512
q-7 22 -9.5 42t-2.5 46q0 25 2.5 45.5t9.5 43.5h603q6 -23 8.5 -41.5t2.5 -46.5q0 -48 -11 -89h-603zM881 1806q-28 0 -57 6.5t-50 18.5q-8 22 -11.5 45.5t-3.5 40.5q0 19 3.5 42t11.5 45q21 13 50 19t57 6q27 0 56 -6t49 -19q9 -22 12.5 -45t3.5 -42q0 -17 -3.5 -40.5
t-12.5 -45.5q-20 -12 -49 -18.5t-56 -6.5zM453 1806q-27 0 -56 6.5t-50 18.5q-8 22 -11.5 45.5t-3.5 40.5q0 19 3.5 42t11.5 45q21 13 50 19t56 6q28 0 57 -6t50 -19q9 -22 12 -45t3 -42q0 -17 -3 -40.5t-12 -45.5q-21 -12 -50 -18.5t-57 -6.5z" />
    <glyph glyph-name="Uogonek" unicode="&#x172;" horiz-adv-x="1339" 
d="M157 484v878l13 13h89q70 0 101.5 -35.5t31.5 -113.5v-742q0 -159 69 -240.5t208 -81.5q140 0 209.5 81.5t69.5 240.5v882q27 5 58 6.5t56 1.5t59 -1.5t61 -6.5v-870q0 -149 -45 -254t-166 -189q-44 -31 -92.5 -67t-82.5 -81t-34 -101q0 -46 27.5 -67.5t67.5 -21.5
q31 0 61 10t52 21q20 -16 34.5 -44.5t16.5 -63.5q-36 -31 -94.5 -52t-122.5 -21q-95 0 -157.5 49.5t-62.5 140.5q0 81 50.5 149.5t121.5 114.5l25 -37q-28 -4 -59 -6t-56 -2q-154 0 -268.5 58.5t-177.5 172.5t-63 279z" />
    <glyph glyph-name="Uring" unicode="&#x16e;" horiz-adv-x="1340" 
d="M1183 484q0 -165 -63 -279t-178 -172.5t-273 -58.5q-156 0 -271 58.5t-178 172.5t-63 279v878l13 13h89q70 0 101.5 -35.5t31.5 -113.5v-742q0 -159 69.5 -240.5t208.5 -81.5q140 0 209 81.5t69 240.5v882q27 5 58 6.5t56 1.5t59.5 -1.5t61.5 -6.5v-882zM415 1564
q0 97 69.5 165t180.5 68t180.5 -68t69.5 -165q0 -96 -69.5 -164t-180.5 -68t-180.5 68t-69.5 164zM565 1564q0 -46 28 -76.5t72 -30.5t72 30.5t28 76.5t-28 77t-72 31t-72 -31t-28 -77z" />
    <glyph glyph-name="Utilde" unicode="&#x168;" horiz-adv-x="1340" 
d="M1183 484q0 -165 -63 -279t-178 -172.5t-273 -58.5q-156 0 -271 58.5t-178 172.5t-63 279v878l13 13h89q70 0 101.5 -35.5t31.5 -113.5v-742q0 -159 69.5 -240.5t208.5 -81.5q140 0 209 81.5t69 240.5v882q27 5 58 6.5t56 1.5t59.5 -1.5t61.5 -6.5v-882zM577 1566
q-16 8 -32 13t-33 5q-20 0 -40.5 -13.5t-37.5 -36.5l-22 -28q-33 1 -67 20.5t-47 48.5l15 34q32 72 87 114.5t128 42.5q34 0 65 -10t56 -22l103 -49q17 -9 35.5 -14.5t34.5 -5.5q20 0 40 12.5t38 36.5l21 28q33 -1 68 -20.5t47 -48.5l-15 -34q-32 -72 -87 -114.5t-128 -42.5
q-35 0 -66.5 10t-55.5 21z" />
    <glyph glyph-name="uni1E78" unicode="&#x1e78;" horiz-adv-x="1340" 
d="M1183 484q0 -165 -63 -279t-178 -172.5t-273 -58.5q-156 0 -271 58.5t-178 172.5t-63 279v878l13 13h89q70 0 101.5 -35.5t31.5 -113.5v-742q0 -159 69.5 -240.5t208.5 -81.5q140 0 209 81.5t69 240.5v882q27 5 58 6.5t56 1.5t59.5 -1.5t61.5 -6.5v-882zM577 1566
q-16 8 -32 13t-33 5q-20 0 -40.5 -13.5t-37.5 -36.5l-22 -28q-33 1 -67 20.5t-47 48.5l15 34q32 72 87 114.5t128 42.5q34 0 65 -10t56 -22l103 -49q17 -9 35.5 -14.5t34.5 -5.5q20 0 40 12.5t38 36.5l21 28q33 -1 68 -20.5t47 -48.5l-15 -34q-32 -72 -87 -114.5t-128 -42.5
q-35 0 -66.5 10t-55.5 21zM870 2202q21 -15 42 -45t36 -66t19 -72l-444 -181q-26 16 -44.5 51t-22.5 65z" />
    <glyph glyph-name="V" unicode="V" horiz-adv-x="1162" 
d="M913 1366q24 5 50.5 6.5t50.5 1.5q25 0 55.5 -3.5t52.5 -9.5l10 -16l-392 -1346q-42 -4 -89.5 -6.5t-93.5 -2.5q-67 0 -104 23t-56 88l-361 1244q33 16 69 25.5t74 9.5q49 0 79.5 -25.5t47.5 -88.5l197 -691q14 -51 29.5 -111.5t29.5 -121.5t26 -115q3 -13 7 -17t11 -4z
" />
    <glyph glyph-name="W" unicode="W" horiz-adv-x="1722" 
d="M54 1353q31 14 63.5 20.5t64.5 6.5q59 0 87 -27t40 -99l117 -646q9 -55 21 -128t23.5 -143.5t17.5 -118.5q3 -17 6.5 -20.5t11.5 -3.5l208 1144q34 6 76.5 8.5t74.5 2.5q35 0 78 -2.5t73 -8.5l190 -1120q3 -17 7 -20.5t13 -3.5q8 61 20 136.5t25 149.5t23 130l146 756
q25 5 53 6.5t52 1.5q28 0 58 -3t54 -10l12 -16l-282 -1343q-42 -6 -101.5 -9t-105.5 -3q-52 0 -92 19t-52 93l-91 515q-17 103 -37.5 234.5t-38.5 253.5h-14q-18 -122 -40.5 -253t-42.5 -235l-116 -616q-42 -5 -98 -8t-101 -3q-56 0 -98 19.5t-57 93.5z" />
    <glyph glyph-name="Wacute" unicode="&#x1e82;" horiz-adv-x="1722" 
d="M54 1353q31 14 63.5 20.5t64.5 6.5q59 0 87 -27t40 -99l117 -646q9 -55 21 -128t23.5 -143.5t17.5 -118.5q3 -17 6.5 -20.5t11.5 -3.5l208 1144q34 6 76.5 8.5t74.5 2.5q35 0 78 -2.5t73 -8.5l190 -1120q3 -17 7 -20.5t13 -3.5q8 61 20 136.5t25 149.5t23 130l146 756
q25 5 53 6.5t52 1.5q28 0 58 -3t54 -10l12 -16l-282 -1343q-42 -6 -101.5 -9t-105.5 -3q-52 0 -92 19t-52 93l-91 515q-17 103 -37.5 234.5t-38.5 253.5h-14q-18 -122 -40.5 -253t-42.5 -235l-116 -616q-42 -5 -98 -8t-101 -3q-56 0 -98 19.5t-57 93.5zM1068 1820
q21 -15 42 -45t36 -66t19 -72l-444 -181q-26 16 -44.5 51t-22.5 65z" />
    <glyph glyph-name="Wcircumflex" unicode="&#x174;" horiz-adv-x="1722" 
d="M54 1353q31 14 63.5 20.5t64.5 6.5q59 0 87 -27t40 -99l117 -646q9 -55 21 -128t23.5 -143.5t17.5 -118.5q3 -17 6.5 -20.5t11.5 -3.5l208 1144q34 6 76.5 8.5t74.5 2.5q35 0 78 -2.5t73 -8.5l190 -1120q3 -17 7 -20.5t13 -3.5q8 61 20 136.5t25 149.5t23 130l146 756
q25 5 53 6.5t52 1.5q28 0 58 -3t54 -10l12 -16l-282 -1343q-42 -6 -101.5 -9t-105.5 -3q-52 0 -92 19t-52 93l-91 515q-17 103 -37.5 234.5t-38.5 253.5h-14q-18 -122 -40.5 -253t-42.5 -235l-116 -616q-42 -5 -98 -8t-101 -3q-56 0 -98 19.5t-57 93.5zM963 1785l225 -214
q-12 -36 -42 -62.5t-56 -34.5l-226 149l-227 -149q-25 8 -55.5 34.5t-41.5 62.5l224 214q21 3 47 5.5t53 2.5t52.5 -2.5t46.5 -5.5z" />
    <glyph glyph-name="Wdieresis" unicode="&#x1e84;" horiz-adv-x="1722" 
d="M54 1353q31 14 63.5 20.5t64.5 6.5q59 0 87 -27t40 -99l117 -646q9 -55 21 -128t23.5 -143.5t17.5 -118.5q3 -17 6.5 -20.5t11.5 -3.5l208 1144q34 6 76.5 8.5t74.5 2.5q35 0 78 -2.5t73 -8.5l190 -1120q3 -17 7 -20.5t13 -3.5q8 61 20 136.5t25 149.5t23 130l146 756
q25 5 53 6.5t52 1.5q28 0 58 -3t54 -10l12 -16l-282 -1343q-42 -6 -101.5 -9t-105.5 -3q-52 0 -92 19t-52 93l-91 515q-17 103 -37.5 234.5t-38.5 253.5h-14q-18 -122 -40.5 -253t-42.5 -235l-116 -616q-42 -5 -98 -8t-101 -3q-56 0 -98 19.5t-57 93.5zM1079 1486
q-28 0 -57 6.5t-50 18.5q-8 22 -11.5 45.5t-3.5 40.5q0 19 3.5 42t11.5 45q21 13 50 19t57 6q27 0 56 -6t49 -19q9 -22 12.5 -45t3.5 -42q0 -17 -3.5 -40.5t-12.5 -45.5q-20 -12 -49 -18.5t-56 -6.5zM651 1486q-27 0 -56 6.5t-50 18.5q-8 22 -11.5 45.5t-3.5 40.5
q0 19 3.5 42t11.5 45q21 13 50 19t56 6q28 0 57 -6t50 -19q9 -22 12 -45t3 -42q0 -17 -3 -40.5t-12 -45.5q-21 -12 -50 -18.5t-57 -6.5z" />
    <glyph glyph-name="Wgrave" unicode="&#x1e80;" horiz-adv-x="1722" 
d="M54 1353q31 14 63.5 20.5t64.5 6.5q59 0 87 -27t40 -99l117 -646q9 -55 21 -128t23.5 -143.5t17.5 -118.5q3 -17 6.5 -20.5t11.5 -3.5l208 1144q34 6 76.5 8.5t74.5 2.5q35 0 78 -2.5t73 -8.5l190 -1120q3 -17 7 -20.5t13 -3.5q8 61 20 136.5t25 149.5t23 130l146 756
q25 5 53 6.5t52 1.5q28 0 58 -3t54 -10l12 -16l-282 -1343q-42 -6 -101.5 -9t-105.5 -3q-52 0 -92 19t-52 93l-91 515q-17 103 -37.5 234.5t-38.5 253.5h-14q-18 -122 -40.5 -253t-42.5 -235l-116 -616q-42 -5 -98 -8t-101 -3q-56 0 -98 19.5t-57 93.5zM688 1820
q-21 -15 -42.5 -45t-37 -66t-19.5 -72l445 -181q29 18 45.5 51t22.5 65z" />
    <glyph glyph-name="X" unicode="X" horiz-adv-x="1186" 
d="M77 1330q36 25 77 38t77 13q46 0 80.5 -20t67.5 -72l775 -1252q-35 -26 -76.5 -39t-77.5 -13q-46 0 -81 20t-69 73zM886 1366q16 4 42.5 7t54.5 3q35 0 68 -6t54 -14l7 -15l-416 -677l-96 -104l-337 -560q-17 -4 -44 -7t-56 -3q-35 0 -68 6t-56 15l-7 15l463 746l96 105z
" />
    <glyph glyph-name="Y" unicode="Y" horiz-adv-x="1022" 
d="M395 576h234v-576q-27 -5 -59 -6.5t-58 -1.5q-24 0 -57.5 1.5t-59.5 6.5v576zM789 1366q24 6 49.5 8t48.5 2q30 0 60 -4t54 -12l10 -16l-399 -951h-197l-402 946q36 20 73.5 31t72.5 11q50 0 77.5 -24t47.5 -75l146 -356q22 -54 44.5 -123t40.5 -134h11q12 43 28 91.5
t33 94.5t29 77z" />
    <glyph glyph-name="Yacute" unicode="&#xdd;" horiz-adv-x="1022" 
d="M395 576h234v-576q-27 -5 -59 -6.5t-58 -1.5q-24 0 -57.5 1.5t-59.5 6.5v576zM789 1366q24 6 49.5 8t48.5 2q30 0 60 -4t54 -12l10 -16l-399 -951h-197l-402 946q36 20 73.5 31t72.5 11q50 0 77.5 -24t47.5 -75l146 -356q22 -54 44.5 -123t40.5 -134h11q12 43 28 91.5
t33 94.5t29 77zM721 1820q21 -15 42 -45t36 -66t19 -72l-444 -181q-26 16 -44.5 51t-22.5 65z" />
    <glyph glyph-name="Ycircumflex" unicode="&#x176;" horiz-adv-x="1022" 
d="M395 576h234v-576q-27 -5 -59 -6.5t-58 -1.5q-24 0 -57.5 1.5t-59.5 6.5v576zM789 1366q24 6 49.5 8t48.5 2q30 0 60 -4t54 -12l10 -16l-399 -951h-197l-402 946q36 20 73.5 31t72.5 11q50 0 77.5 -24t47.5 -75l146 -356q22 -54 44.5 -123t40.5 -134h11q12 43 28 91.5
t33 94.5t29 77zM616 1785l225 -214q-12 -36 -42 -62.5t-56 -34.5l-226 149l-227 -149q-25 8 -55.5 34.5t-41.5 62.5l224 214q21 3 47 5.5t53 2.5t52.5 -2.5t46.5 -5.5z" />
    <glyph glyph-name="Ydieresis" unicode="&#x178;" horiz-adv-x="1022" 
d="M395 576h234v-576q-27 -5 -59 -6.5t-58 -1.5q-24 0 -57.5 1.5t-59.5 6.5v576zM789 1366q24 6 49.5 8t48.5 2q30 0 60 -4t54 -12l10 -16l-399 -951h-197l-402 946q36 20 73.5 31t72.5 11q50 0 77.5 -24t47.5 -75l146 -356q22 -54 44.5 -123t40.5 -134h11q12 43 28 91.5
t33 94.5t29 77zM732 1486q-28 0 -57 6.5t-50 18.5q-8 22 -11.5 45.5t-3.5 40.5q0 19 3.5 42t11.5 45q21 13 50 19t57 6q27 0 56 -6t49 -19q9 -22 12.5 -45t3.5 -42q0 -17 -3.5 -40.5t-12.5 -45.5q-20 -12 -49 -18.5t-56 -6.5zM304 1486q-27 0 -56 6.5t-50 18.5
q-8 22 -11.5 45.5t-3.5 40.5q0 19 3.5 42t11.5 45q21 13 50 19t56 6q28 0 57 -6t50 -19q9 -22 12 -45t3 -42q0 -17 -3 -40.5t-12 -45.5q-21 -12 -50 -18.5t-57 -6.5z" />
    <glyph glyph-name="uni1E8E" unicode="&#x1e8e;" horiz-adv-x="1022" 
d="M395 576h234v-576q-27 -5 -59 -6.5t-58 -1.5q-24 0 -57.5 1.5t-59.5 6.5v576zM789 1366q24 6 49.5 8t48.5 2q30 0 60 -4t54 -12l10 -16l-399 -951h-197l-402 946q36 20 73.5 31t72.5 11q50 0 77.5 -24t47.5 -75l146 -356q22 -54 44.5 -123t40.5 -134h11q12 43 28 91.5
t33 94.5t29 77zM381 1607q0 23 5 48.5t14 45.5q20 12 53.5 19t64.5 7t66 -7t52 -19q9 -20 14 -46t5 -48q0 -53 -19 -96q-16 -11 -51.5 -18t-66.5 -7t-65.5 7t-52.5 18q-19 43 -19 96z" />
    <glyph glyph-name="uni1EF4" unicode="&#x1ef4;" horiz-adv-x="1022" 
d="M395 576h234v-576q-27 -5 -59 -6.5t-58 -1.5q-24 0 -57.5 1.5t-59.5 6.5v576zM789 1366q24 6 49.5 8t48.5 2q30 0 60 -4t54 -12l10 -16l-399 -951h-197l-402 946q36 20 73.5 31t72.5 11q50 0 77.5 -24t47.5 -75l146 -356q22 -54 44.5 -123t40.5 -134h11q12 43 28 91.5
t33 94.5t29 77zM375 -241q0 24 5 49.5t14 46.5q18 11 52.5 18t65.5 7t66.5 -7t51.5 -18q9 -21 14 -46.5t5 -49.5q0 -22 -5 -48t-14 -46q-17 -11 -52 -18.5t-66 -7.5t-64.5 7.5t-53.5 18.5q-9 20 -14 46t-5 48z" />
    <glyph glyph-name="Ygrave" unicode="&#x1ef2;" horiz-adv-x="1022" 
d="M395 576h234v-576q-27 -5 -59 -6.5t-58 -1.5q-24 0 -57.5 1.5t-59.5 6.5v576zM789 1366q24 6 49.5 8t48.5 2q30 0 60 -4t54 -12l10 -16l-399 -951h-197l-402 946q36 20 73.5 31t72.5 11q50 0 77.5 -24t47.5 -75l146 -356q22 -54 44.5 -123t40.5 -134h11q12 43 28 91.5
t33 94.5t29 77zM341 1820q-21 -15 -42.5 -45t-37 -66t-19.5 -72l445 -181q29 18 45.5 51t22.5 65z" />
    <glyph glyph-name="uni1EF6" unicode="&#x1ef6;" horiz-adv-x="1022" 
d="M395 576h234v-576q-27 -5 -59 -6.5t-58 -1.5q-24 0 -57.5 1.5t-59.5 6.5v576zM789 1366q24 6 49.5 8t48.5 2q30 0 60 -4t54 -12l10 -16l-399 -951h-197l-402 946q36 20 73.5 31t72.5 11q50 0 77.5 -24t47.5 -75l146 -356q22 -54 44.5 -123t40.5 -134h11q12 43 28 91.5
t33 94.5t29 77zM425 1561q58 19 92 45t34 59q0 27 -21 44t-57 17q-30 0 -57.5 -8.5t-53.5 -22.5q-22 23 -33 53.5t-12 61.5q36 21 89.5 37t112.5 16q101 0 158 -50t57 -124q0 -80 -70 -142.5t-178 -94.5q-27 17 -43 47t-18 62z" />
    <glyph glyph-name="uni0232" unicode="&#x232;" horiz-adv-x="1022" 
d="M395 576h234v-576q-27 -5 -59 -6.5t-58 -1.5q-24 0 -57.5 1.5t-59.5 6.5v576zM789 1366q24 6 49.5 8t48.5 2q30 0 60 -4t54 -12l10 -16l-399 -951h-197l-402 946q36 20 73.5 31t72.5 11q50 0 77.5 -24t47.5 -75l146 -356q22 -54 44.5 -123t40.5 -134h11q12 43 28 91.5
t33 94.5t29 77zM217 1512q-7 22 -9.5 42t-2.5 46q0 25 2.5 45.5t9.5 43.5h603q6 -23 8.5 -41.5t2.5 -46.5q0 -48 -11 -89h-603z" />
    <glyph glyph-name="uni1EF8" unicode="&#x1ef8;" horiz-adv-x="1022" 
d="M395 576h234v-576q-27 -5 -59 -6.5t-58 -1.5q-24 0 -57.5 1.5t-59.5 6.5v576zM789 1366q24 6 49.5 8t48.5 2q30 0 60 -4t54 -12l10 -16l-399 -951h-197l-402 946q36 20 73.5 31t72.5 11q50 0 77.5 -24t47.5 -75l146 -356q22 -54 44.5 -123t40.5 -134h11q12 43 28 91.5
t33 94.5t29 77zM428 1566q-16 8 -32 13t-33 5q-20 0 -40.5 -13.5t-37.5 -36.5l-22 -28q-33 1 -67 20.5t-47 48.5l15 34q32 72 87 114.5t128 42.5q34 0 65 -10t56 -22l103 -49q17 -9 35.5 -14.5t34.5 -5.5q20 0 40 12.5t38 36.5l21 28q33 -1 68 -20.5t47 -48.5l-15 -34
q-32 -72 -87 -114.5t-128 -42.5q-35 0 -66.5 10t-55.5 21z" />
    <glyph glyph-name="Z" unicode="Z" horiz-adv-x="1131" 
d="M615 971q30 46 73 101.5t84 107.5l-6 6q-26 -4 -68.5 -7t-89 -5t-88 -3t-65.5 -1h-314q-6 21 -8 40.5t-2 39.5q0 30 4.5 58t13.5 58h836q16 -53 22.5 -81.5t8.5 -43t2 -24.5q0 -21 -6.5 -44t-22.5 -47l-491 -723q-31 -46 -74.5 -103.5t-82.5 -105.5l6 -6q64 5 133.5 8.5
t119.5 3.5h189q78 0 136 10.5t98 28.5q7 -23 12 -52t5 -58q0 -64 -41 -96.5t-119 -32.5h-760q-13 51 -19 79t-8 42t-2 25q0 23 7.5 48.5t22.5 48.5z" />
    <glyph glyph-name="Zacute" unicode="&#x179;" horiz-adv-x="1131" 
d="M615 971q30 46 73 101.5t84 107.5l-6 6q-26 -4 -68.5 -7t-89 -5t-88 -3t-65.5 -1h-314q-6 21 -8 40.5t-2 39.5q0 30 4.5 58t13.5 58h836q16 -53 22.5 -81.5t8.5 -43t2 -24.5q0 -21 -6.5 -44t-22.5 -47l-491 -723q-31 -46 -74.5 -103.5t-82.5 -105.5l6 -6q64 5 133.5 8.5
t119.5 3.5h189q78 0 136 10.5t98 28.5q7 -23 12 -52t5 -58q0 -64 -41 -96.5t-119 -32.5h-760q-13 51 -19 79t-8 42t-2 25q0 23 7.5 48.5t22.5 48.5zM773 1820q21 -15 42 -45t36 -66t19 -72l-444 -181q-26 16 -44.5 51t-22.5 65z" />
    <glyph glyph-name="Zcaron" unicode="&#x17d;" horiz-adv-x="1131" 
d="M615 971q30 46 73 101.5t84 107.5l-6 6q-26 -4 -68.5 -7t-89 -5t-88 -3t-65.5 -1h-314q-6 21 -8 40.5t-2 39.5q0 30 4.5 58t13.5 58h836q16 -53 22.5 -81.5t8.5 -43t2 -24.5q0 -21 -6.5 -44t-22.5 -47l-491 -723q-31 -46 -74.5 -103.5t-82.5 -105.5l6 -6q64 5 133.5 8.5
t119.5 3.5h189q78 0 136 10.5t98 28.5q7 -23 12 -52t5 -58q0 -64 -41 -96.5t-119 -32.5h-760q-13 51 -19 79t-8 42t-2 25q0 23 7.5 48.5t22.5 48.5zM797 1795q25 -9 55 -35t42 -63l-225 -213q-20 -5 -46 -7.5t-53 -2.5t-53 2.5t-46 7.5l-225 213q12 37 42 63t55 35l227 -149
z" />
    <glyph glyph-name="Zdotaccent" unicode="&#x17b;" horiz-adv-x="1131" 
d="M615 971q30 46 73 101.5t84 107.5l-6 6q-26 -4 -68.5 -7t-89 -5t-88 -3t-65.5 -1h-314q-6 21 -8 40.5t-2 39.5q0 30 4.5 58t13.5 58h836q16 -53 22.5 -81.5t8.5 -43t2 -24.5q0 -21 -6.5 -44t-22.5 -47l-491 -723q-31 -46 -74.5 -103.5t-82.5 -105.5l6 -6q64 5 133.5 8.5
t119.5 3.5h189q78 0 136 10.5t98 28.5q7 -23 12 -52t5 -58q0 -64 -41 -96.5t-119 -32.5h-760q-13 51 -19 79t-8 42t-2 25q0 23 7.5 48.5t22.5 48.5zM433 1607q0 23 5 48.5t14 45.5q20 12 53.5 19t64.5 7t66 -7t52 -19q9 -20 14 -46t5 -48q0 -53 -19 -96q-16 -11 -51.5 -18
t-66.5 -7t-65.5 7t-52.5 18q-19 43 -19 96z" />
    <glyph glyph-name="uni1E92" unicode="&#x1e92;" horiz-adv-x="1131" 
d="M615 971q30 46 73 101.5t84 107.5l-6 6q-26 -4 -68.5 -7t-89 -5t-88 -3t-65.5 -1h-314q-6 21 -8 40.5t-2 39.5q0 30 4.5 58t13.5 58h836q16 -53 22.5 -81.5t8.5 -43t2 -24.5q0 -21 -6.5 -44t-22.5 -47l-491 -723q-31 -46 -74.5 -103.5t-82.5 -105.5l6 -6q64 5 133.5 8.5
t119.5 3.5h189q78 0 136 10.5t98 28.5q7 -23 12 -52t5 -58q0 -64 -41 -96.5t-119 -32.5h-760q-13 51 -19 79t-8 42t-2 25q0 23 7.5 48.5t22.5 48.5zM427 -241q0 24 5 49.5t14 46.5q18 11 52.5 18t65.5 7t66.5 -7t51.5 -18q9 -21 14 -46.5t5 -49.5q0 -22 -5 -48t-14 -46
q-17 -11 -52 -18.5t-66 -7.5t-64.5 7.5t-53.5 18.5q-9 20 -14 46t-5 48z" />
    <glyph glyph-name="Q.ss02" horiz-adv-x="1308" 
d="M242 -68q-8 36 -8 75q0 29 5.5 57.5t14.5 55.5q50 4 84 4.5t65 -0.5t72 1q241 10 362.5 144t121.5 414q0 89 -14 181t-49.5 170t-100 125.5t-166.5 47.5q-116 0 -184.5 -57.5t-98.5 -150.5t-30 -201q0 -191 81.5 -279t219.5 -67q4 -12 6.5 -29t2.5 -33q0 -62 -40 -101.5
t-124 -39.5q-107 0 -194 63t-138.5 181.5t-51.5 281.5q0 184 68 323t191 216.5t290 77.5q129 0 214.5 -32.5t149.5 -89.5q79 -70 125.5 -167t67 -205.5t20.5 -214.5q0 -70 -12 -156t-43.5 -174.5t-90.5 -166.5t-152 -132t-227 -70q103 -34 201 -65.5t196 -31.5
q31 0 63.5 3.5t64.5 12.5q7 -19 7 -64q0 -79 -50 -122.5t-135 -43.5q-84 0 -166 32t-194 91q-69 36 -129.5 63.5t-127 43t-153.5 15.5z" />
    <glyph glyph-name="ordfeminine.lf" horiz-adv-x="862" 
d="M79 812q0 90 40.5 148t110 85t157.5 27q45 0 101.5 -4t106.5 -10v-130q-43 7 -96.5 11t-100.5 4q-61 0 -94.5 -32t-33.5 -87q0 -41 26 -71t72 -30q53 0 117 41t106 112l32 -134q-30 -35 -74 -73.5t-101 -65.5t-128 -27q-79 0 -132.5 34t-81 88t-27.5 114zM774 685
q-4 -27 -27 -57t-51 -44q-80 11 -124 68.5t-44 151.5v316q0 64 -33.5 92t-80.5 28q-63 0 -122 -14.5t-126 -39.5q-22 23 -37 59.5t-16 74.5q70 30 163.5 51t177.5 21q77 0 138 -27.5t96.5 -86.5t35.5 -151v-311q0 -44 9.5 -76.5t40.5 -54.5z" />
    <glyph glyph-name="ordmasculine.lf" horiz-adv-x="843" 
d="M769 985q0 -94 -26 -178t-89 -147q-42 -42 -103 -63.5t-130 -21.5q-70 0 -129.5 21.5t-102.5 63.5q-63 63 -89 147t-26 178q0 93 26 176t89 148q43 41 102.5 62t129.5 21q69 0 130 -21t103 -62q63 -65 89 -148t26 -176zM269 985q0 -71 14.5 -129.5t48 -94t90.5 -35.5
t90 35.5t47.5 94t14.5 129.5t-14.5 129.5t-47.5 93.5t-90 35t-90.5 -35t-48 -93.5t-14.5 -129.5z" />
    <glyph glyph-name="a" unicode="a" horiz-adv-x="1016" 
d="M82 269q0 116 51.5 190t139 109.5t194.5 35.5q54 0 124 -4.5t130 -17.5v-151q-51 12 -117 15.5t-120 3.5q-86 0 -132 -44.5t-46 -120.5q0 -57 33 -96t94 -39q70 0 147.5 49t130.5 143l34 -165q-36 -43 -88.5 -90.5t-121.5 -80t-157 -32.5q-100 0 -166 44t-98 112t-32 139
zM930 103q-7 -31 -30.5 -66t-49.5 -52q-68 10 -111 45t-64 84.5t-26 101.5v447q0 87 -40.5 126.5t-116.5 39.5q-73 0 -152 -22t-159 -51q-26 27 -43 74t-19 91q58 25 131 45.5t149.5 32.5t143.5 12q96 0 170.5 -35t117.5 -109.5t43 -191.5v-410q0 -53 12 -94t44 -68z" />
    <glyph glyph-name="aacute" unicode="&#xe1;" horiz-adv-x="1016" 
d="M82 269q0 116 51.5 190t139 109.5t194.5 35.5q54 0 124 -4.5t130 -17.5v-151q-51 12 -117 15.5t-120 3.5q-86 0 -132 -44.5t-46 -120.5q0 -57 33 -96t94 -39q70 0 147.5 49t130.5 143l34 -165q-36 -43 -88.5 -90.5t-121.5 -80t-157 -32.5q-100 0 -166 44t-98 112t-32 139
zM930 103q-7 -31 -30.5 -66t-49.5 -52q-68 10 -111 45t-64 84.5t-26 101.5v447q0 87 -40.5 126.5t-116.5 39.5q-73 0 -152 -22t-159 -51q-26 27 -43 74t-19 91q58 25 131 45.5t149.5 32.5t143.5 12q96 0 170.5 -35t117.5 -109.5t43 -191.5v-410q0 -53 12 -94t44 -68z
M626 1490q48 -15 92.5 -56.5t61.5 -88.5l-348 -268q-30 9 -57.5 34t-40.5 57z" />
    <glyph glyph-name="abreve" unicode="&#x103;" horiz-adv-x="1016" 
d="M82 269q0 116 51.5 190t139 109.5t194.5 35.5q54 0 124 -4.5t130 -17.5v-151q-51 12 -117 15.5t-120 3.5q-86 0 -132 -44.5t-46 -120.5q0 -57 33 -96t94 -39q70 0 147.5 49t130.5 143l34 -165q-36 -43 -88.5 -90.5t-121.5 -80t-157 -32.5q-100 0 -166 44t-98 112t-32 139
zM930 103q-7 -31 -30.5 -66t-49.5 -52q-68 10 -111 45t-64 84.5t-26 101.5v447q0 87 -40.5 126.5t-116.5 39.5q-73 0 -152 -22t-159 -51q-26 27 -43 74t-19 91q58 25 131 45.5t149.5 32.5t143.5 12q96 0 170.5 -35t117.5 -109.5t43 -191.5v-410q0 -53 12 -94t44 -68z
M812 1360q-28 -113 -114 -184.5t-207 -71.5t-207 71.5t-114 184.5q19 25 53.5 38t69.5 13q25 -61 77 -94.5t121 -33.5t121.5 33.5t75.5 94.5q36 0 70.5 -13t53.5 -38z" />
    <glyph glyph-name="uni1EAF" unicode="&#x1eaf;" horiz-adv-x="1016" 
d="M82 269q0 116 51.5 190t139 109.5t194.5 35.5q54 0 124 -4.5t130 -17.5v-151q-51 12 -117 15.5t-120 3.5q-86 0 -132 -44.5t-46 -120.5q0 -57 33 -96t94 -39q70 0 147.5 49t130.5 143l34 -165q-36 -43 -88.5 -90.5t-121.5 -80t-157 -32.5q-100 0 -166 44t-98 112t-32 139
zM930 103q-7 -31 -30.5 -66t-49.5 -52q-68 10 -111 45t-64 84.5t-26 101.5v447q0 87 -40.5 126.5t-116.5 39.5q-73 0 -152 -22t-159 -51q-26 27 -43 74t-19 91q58 25 131 45.5t149.5 32.5t143.5 12q96 0 170.5 -35t117.5 -109.5t43 -191.5v-410q0 -53 12 -94t44 -68z
M175 1352q20 25 53.5 36.5t68.5 10.5q24 -58 75.5 -90.5t118.5 -32.5t119 32.5t75 90.5q35 1 68.5 -10.5t53.5 -36.5q-28 -109 -112 -178.5t-204 -69.5q-119 0 -203 69.5t-113 178.5zM559 1823l-172 -343q17 -27 48 -45t60 -20l233 307q-24 40 -74 68.5t-95 32.5z" />
    <glyph glyph-name="uni1EB7" unicode="&#x1eb7;" horiz-adv-x="1016" 
d="M82 269q0 116 51.5 190t139 109.5t194.5 35.5q54 0 124 -4.5t130 -17.5v-151q-51 12 -117 15.5t-120 3.5q-86 0 -132 -44.5t-46 -120.5q0 -57 33 -96t94 -39q70 0 147.5 49t130.5 143l34 -165q-36 -43 -88.5 -90.5t-121.5 -80t-157 -32.5q-100 0 -166 44t-98 112t-32 139
zM930 103q-7 -31 -30.5 -66t-49.5 -52q-68 10 -111 45t-64 84.5t-26 101.5v447q0 87 -40.5 126.5t-116.5 39.5q-73 0 -152 -22t-159 -51q-26 27 -43 74t-19 91q58 25 131 45.5t149.5 32.5t143.5 12q96 0 170.5 -35t117.5 -109.5t43 -191.5v-410q0 -53 12 -94t44 -68z
M501 -361q-31 0 -64.5 7.5t-53.5 18.5q-9 20 -14 46t-5 48q0 24 5 49.5t14 46.5q18 11 52.5 18t65.5 7t66.5 -7t51.5 -18q9 -21 14 -46.5t5 -49.5q0 -22 -5 -48t-14 -46q-17 -11 -52 -18.5t-66 -7.5zM812 1360q-28 -113 -114 -184.5t-207 -71.5t-207 71.5t-114 184.5
q19 25 53.5 38t69.5 13q25 -61 77 -94.5t121 -33.5t121.5 33.5t75.5 94.5q36 0 70.5 -13t53.5 -38z" />
    <glyph glyph-name="uni1EB1" unicode="&#x1eb1;" horiz-adv-x="1016" 
d="M82 269q0 116 51.5 190t139 109.5t194.5 35.5q54 0 124 -4.5t130 -17.5v-151q-51 12 -117 15.5t-120 3.5q-86 0 -132 -44.5t-46 -120.5q0 -57 33 -96t94 -39q70 0 147.5 49t130.5 143l34 -165q-36 -43 -88.5 -90.5t-121.5 -80t-157 -32.5q-100 0 -166 44t-98 112t-32 139
zM930 103q-7 -31 -30.5 -66t-49.5 -52q-68 10 -111 45t-64 84.5t-26 101.5v447q0 87 -40.5 126.5t-116.5 39.5q-73 0 -152 -22t-159 -51q-26 27 -43 74t-19 91q58 25 131 45.5t149.5 32.5t143.5 12q96 0 170.5 -35t117.5 -109.5t43 -191.5v-410q0 -53 12 -94t44 -68z
M424 1823q-46 -4 -95.5 -32.5t-74.5 -68.5l233 -307q29 2 60.5 20t48.5 45zM176 1352q20 25 53.5 36.5t68.5 10.5q24 -58 75.5 -90.5t118.5 -32.5t119 32.5t75 90.5q35 1 68.5 -10.5t53.5 -36.5q-28 -109 -112 -178.5t-204 -69.5q-119 0 -203 69.5t-113 178.5z" />
    <glyph glyph-name="uni1EB3" unicode="&#x1eb3;" horiz-adv-x="1016" 
d="M82 269q0 116 51.5 190t139 109.5t194.5 35.5q54 0 124 -4.5t130 -17.5v-151q-51 12 -117 15.5t-120 3.5q-86 0 -132 -44.5t-46 -120.5q0 -57 33 -96t94 -39q70 0 147.5 49t130.5 143l34 -165q-36 -43 -88.5 -90.5t-121.5 -80t-157 -32.5q-100 0 -166 44t-98 112t-32 139
zM930 103q-7 -31 -30.5 -66t-49.5 -52q-68 10 -111 45t-64 84.5t-26 101.5v447q0 87 -40.5 126.5t-116.5 39.5q-73 0 -152 -22t-159 -51q-26 27 -43 74t-19 91q58 25 131 45.5t149.5 32.5t143.5 12q96 0 170.5 -35t117.5 -109.5t43 -191.5v-410q0 -53 12 -94t44 -68z
M402 1526q53 20 81 43.5t28 54.5q0 26 -19.5 42t-53.5 16q-24 0 -47.5 -7.5t-43.5 -17.5q-21 20 -33.5 50.5t-13.5 60.5q35 19 83.5 32.5t101.5 13.5q96 0 148 -48t52 -117q0 -80 -62.5 -139.5t-162.5 -89.5q-24 16 -39.5 45t-18.5 61zM175 1352q20 25 53.5 36.5t68.5 10.5
q24 -58 75.5 -90.5t118.5 -32.5t119 32.5t75 90.5q35 1 68.5 -10.5t53.5 -36.5q-28 -109 -112 -178.5t-204 -69.5q-119 0 -203 69.5t-113 178.5z" />
    <glyph glyph-name="uni1EB5" unicode="&#x1eb5;" horiz-adv-x="1016" 
d="M82 269q0 116 51.5 190t139 109.5t194.5 35.5q54 0 124 -4.5t130 -17.5v-151q-51 12 -117 15.5t-120 3.5q-86 0 -132 -44.5t-46 -120.5q0 -57 33 -96t94 -39q70 0 147.5 49t130.5 143l34 -165q-36 -43 -88.5 -90.5t-121.5 -80t-157 -32.5q-100 0 -166 44t-98 112t-32 139
zM930 103q-7 -31 -30.5 -66t-49.5 -52q-68 10 -111 45t-64 84.5t-26 101.5v447q0 87 -40.5 126.5t-116.5 39.5q-73 0 -152 -22t-159 -51q-26 27 -43 74t-19 91q58 25 131 45.5t149.5 32.5t143.5 12q96 0 170.5 -35t117.5 -109.5t43 -191.5v-410q0 -53 12 -94t44 -68z
M491 1104q-119 0 -203 69.5t-113 178.5q20 25 53.5 36.5t68.5 10.5q24 -58 75.5 -90.5t118.5 -32.5t119 32.5t75 90.5q35 1 68.5 -10.5t53.5 -36.5q-28 -109 -112 -178.5t-204 -69.5zM610 1489q-36 0 -64 10t-45 20l-81 43q-8 5 -24.5 12t-35.5 7q-23 0 -41 -13.5t-32 -31.5
l-19 -26q-30 1 -60.5 19.5t-42.5 46.5l16 36q28 64 78.5 103.5t112.5 39.5q35 0 64 -11t45 -19l81 -43q11 -5 27 -12t34 -7q22 0 39.5 12.5t32.5 32.5l19 25q30 0 60.5 -18.5t42.5 -47.5l-17 -36q-30 -67 -79.5 -104.5t-110.5 -37.5z" />
    <glyph glyph-name="acircumflex" unicode="&#xe2;" horiz-adv-x="1016" 
d="M82 269q0 116 51.5 190t139 109.5t194.5 35.5q54 0 124 -4.5t130 -17.5v-151q-51 12 -117 15.5t-120 3.5q-86 0 -132 -44.5t-46 -120.5q0 -57 33 -96t94 -39q70 0 147.5 49t130.5 143l34 -165q-36 -43 -88.5 -90.5t-121.5 -80t-157 -32.5q-100 0 -166 44t-98 112t-32 139
zM930 103q-7 -31 -30.5 -66t-49.5 -52q-68 10 -111 45t-64 84.5t-26 101.5v447q0 87 -40.5 126.5t-116.5 39.5q-73 0 -152 -22t-159 -51q-26 27 -43 74t-19 91q58 25 131 45.5t149.5 32.5t143.5 12q96 0 170.5 -35t117.5 -109.5t43 -191.5v-410q0 -53 12 -94t44 -68z
M592 1444l193 -252q-15 -36 -47.5 -62.5t-58.5 -34.5l-186 180l-185 -180q-27 8 -59 34.5t-47 62.5l192 252q20 5 46 8.5t53 3.5q28 0 54 -3.5t45 -8.5z" />
    <glyph glyph-name="uni1EA5" unicode="&#x1ea5;" horiz-adv-x="1016" 
d="M82 269q0 116 51.5 190t139 109.5t194.5 35.5q54 0 124 -4.5t130 -17.5v-151q-51 12 -117 15.5t-120 3.5q-86 0 -132 -44.5t-46 -120.5q0 -57 33 -96t94 -39q70 0 147.5 49t130.5 143l34 -165q-36 -43 -88.5 -90.5t-121.5 -80t-157 -32.5q-100 0 -166 44t-98 112t-32 139
zM930 103q-7 -31 -30.5 -66t-49.5 -52q-68 10 -111 45t-64 84.5t-26 101.5v447q0 87 -40.5 126.5t-116.5 39.5q-73 0 -152 -22t-159 -51q-26 27 -43 74t-19 91q58 25 131 45.5t149.5 32.5t143.5 12q96 0 170.5 -35t117.5 -109.5t43 -191.5v-410q0 -53 12 -94t44 -68z
M594 1423l205 -234q-15 -35 -46 -60t-59 -34l-200 177l-202 -177q-27 9 -56 34t-44 60l204 234q20 6 46 9.5t54 3.5t53.5 -3.5t44.5 -9.5zM842 1820l-172 -343q16 -26 47.5 -44t60.5 -21l233 307q-24 40 -74 68.5t-95 32.5z" />
    <glyph glyph-name="uni1EAD" unicode="&#x1ead;" horiz-adv-x="1016" 
d="M82 269q0 116 51.5 190t139 109.5t194.5 35.5q54 0 124 -4.5t130 -17.5v-151q-51 12 -117 15.5t-120 3.5q-86 0 -132 -44.5t-46 -120.5q0 -57 33 -96t94 -39q70 0 147.5 49t130.5 143l34 -165q-36 -43 -88.5 -90.5t-121.5 -80t-157 -32.5q-100 0 -166 44t-98 112t-32 139
zM930 103q-7 -31 -30.5 -66t-49.5 -52q-68 10 -111 45t-64 84.5t-26 101.5v447q0 87 -40.5 126.5t-116.5 39.5q-73 0 -152 -22t-159 -51q-26 27 -43 74t-19 91q58 25 131 45.5t149.5 32.5t143.5 12q96 0 170.5 -35t117.5 -109.5t43 -191.5v-410q0 -53 12 -94t44 -68z
M501 -361q-31 0 -64.5 7.5t-53.5 18.5q-9 20 -14 46t-5 48q0 24 5 49.5t14 46.5q18 11 52.5 18t65.5 7t66.5 -7t51.5 -18q9 -21 14 -46.5t5 -49.5q0 -22 -5 -48t-14 -46q-17 -11 -52 -18.5t-66 -7.5zM592 1444l193 -252q-15 -36 -47.5 -62.5t-58.5 -34.5l-186 180l-185 -180
q-27 8 -59 34.5t-47 62.5l192 252q20 5 46 8.5t53 3.5q28 0 54 -3.5t45 -8.5z" />
    <glyph glyph-name="uni1EA7" unicode="&#x1ea7;" horiz-adv-x="1016" 
d="M82 269q0 116 51.5 190t139 109.5t194.5 35.5q54 0 124 -4.5t130 -17.5v-151q-51 12 -117 15.5t-120 3.5q-86 0 -132 -44.5t-46 -120.5q0 -57 33 -96t94 -39q70 0 147.5 49t130.5 143l34 -165q-36 -43 -88.5 -90.5t-121.5 -80t-157 -32.5q-100 0 -166 44t-98 112t-32 139
zM930 103q-7 -31 -30.5 -66t-49.5 -52q-68 10 -111 45t-64 84.5t-26 101.5v447q0 87 -40.5 126.5t-116.5 39.5q-73 0 -152 -22t-159 -51q-26 27 -43 74t-19 91q58 25 131 45.5t149.5 32.5t143.5 12q96 0 170.5 -35t117.5 -109.5t43 -191.5v-410q0 -53 12 -94t44 -68z
M594 1423l205 -234q-15 -35 -46 -60t-59 -34l-200 177l-202 -177q-27 9 -56 34t-44 60l204 234q20 6 46 9.5t54 3.5t53.5 -3.5t44.5 -9.5zM686 1821q-46 -4 -95 -32.5t-74 -67.5l233 -308q28 2 60 20.5t48 45.5z" />
    <glyph glyph-name="uni1EA9" unicode="&#x1ea9;" horiz-adv-x="1016" 
d="M82 269q0 116 51.5 190t139 109.5t194.5 35.5q54 0 124 -4.5t130 -17.5v-151q-51 12 -117 15.5t-120 3.5q-86 0 -132 -44.5t-46 -120.5q0 -57 33 -96t94 -39q70 0 147.5 49t130.5 143l34 -165q-36 -43 -88.5 -90.5t-121.5 -80t-157 -32.5q-100 0 -166 44t-98 112t-32 139
zM930 103q-7 -31 -30.5 -66t-49.5 -52q-68 10 -111 45t-64 84.5t-26 101.5v447q0 87 -40.5 126.5t-116.5 39.5q-73 0 -152 -22t-159 -51q-26 27 -43 74t-19 91q58 25 131 45.5t149.5 32.5t143.5 12q96 0 170.5 -35t117.5 -109.5t43 -191.5v-410q0 -53 12 -94t44 -68z
M594 1423l205 -234q-15 -35 -46 -60t-59 -34l-200 177l-202 -177q-27 9 -56 34t-44 60l204 234q20 6 46 9.5t54 3.5t53.5 -3.5t44.5 -9.5zM655 1511q54 20 81.5 43.5t27.5 54.5q0 26 -19 42.5t-54 16.5q-23 0 -46.5 -8t-44.5 -19q-21 21 -33.5 51.5t-13.5 60.5
q35 19 83.5 33t101.5 14q96 0 148 -48.5t52 -117.5q0 -80 -62.5 -139.5t-162.5 -89.5q-24 16 -39.5 45t-18.5 61z" />
    <glyph glyph-name="uni1EAB" unicode="&#x1eab;" horiz-adv-x="1016" 
d="M82 269q0 116 51.5 190t139 109.5t194.5 35.5q54 0 124 -4.5t130 -17.5v-151q-51 12 -117 15.5t-120 3.5q-86 0 -132 -44.5t-46 -120.5q0 -57 33 -96t94 -39q70 0 147.5 49t130.5 143l34 -165q-36 -43 -88.5 -90.5t-121.5 -80t-157 -32.5q-100 0 -166 44t-98 112t-32 139
zM930 103q-7 -31 -30.5 -66t-49.5 -52q-68 10 -111 45t-64 84.5t-26 101.5v447q0 87 -40.5 126.5t-116.5 39.5q-73 0 -152 -22t-159 -51q-26 27 -43 74t-19 91q58 25 131 45.5t149.5 32.5t143.5 12q96 0 170.5 -35t117.5 -109.5t43 -191.5v-410q0 -53 12 -94t44 -68z
M594 1423l205 -234q-15 -35 -46 -60t-59 -34l-200 177l-202 -177q-27 9 -56 34t-44 60l204 234q20 6 46 9.5t54 3.5t53.5 -3.5t44.5 -9.5zM420 1594q-9 5 -25 12t-34 7q-23 0 -40.5 -12.5t-33.5 -32.5l-19 -25q-30 1 -60.5 19t-42.5 47l16 36q28 63 78.5 102.5t112.5 39.5
q35 0 63 -10t46 -20l81 -42q10 -5 26 -12.5t35 -7.5q22 0 40 13t32 32l19 26q30 -1 60.5 -19.5t42.5 -46.5l-17 -36q-30 -67 -79.5 -105t-110.5 -38q-37 0 -65 11t-44 20z" />
    <glyph glyph-name="uni0201" unicode="&#x201;" horiz-adv-x="1016" 
d="M82 269q0 116 51.5 190t139 109.5t194.5 35.5q54 0 124 -4.5t130 -17.5v-151q-51 12 -117 15.5t-120 3.5q-86 0 -132 -44.5t-46 -120.5q0 -57 33 -96t94 -39q70 0 147.5 49t130.5 143l34 -165q-36 -43 -88.5 -90.5t-121.5 -80t-157 -32.5q-100 0 -166 44t-98 112t-32 139
zM930 103q-7 -31 -30.5 -66t-49.5 -52q-68 10 -111 45t-64 84.5t-26 101.5v447q0 87 -40.5 126.5t-116.5 39.5q-73 0 -152 -22t-159 -51q-26 27 -43 74t-19 91q58 25 131 45.5t149.5 32.5t143.5 12q96 0 170.5 -35t117.5 -109.5t43 -191.5v-410q0 -53 12 -94t44 -68z
M275 1492l176 -333q-15 -28 -45.5 -47t-58.5 -24l-263 306q31 40 80.5 69.5t110.5 28.5zM608 1493l155 -341q-15 -26 -47 -43.5t-62 -21.5l-241 320q33 38 83.5 63.5t111.5 22.5z" />
    <glyph glyph-name="adieresis" unicode="&#xe4;" horiz-adv-x="1016" 
d="M82 269q0 116 51.5 190t139 109.5t194.5 35.5q54 0 124 -4.5t130 -17.5v-151q-51 12 -117 15.5t-120 3.5q-86 0 -132 -44.5t-46 -120.5q0 -57 33 -96t94 -39q70 0 147.5 49t130.5 143l34 -165q-36 -43 -88.5 -90.5t-121.5 -80t-157 -32.5q-100 0 -166 44t-98 112t-32 139
zM930 103q-7 -31 -30.5 -66t-49.5 -52q-68 10 -111 45t-64 84.5t-26 101.5v447q0 87 -40.5 126.5t-116.5 39.5q-73 0 -152 -22t-159 -51q-26 27 -43 74t-19 91q58 25 131 45.5t149.5 32.5t143.5 12q96 0 170.5 -35t117.5 -109.5t43 -191.5v-410q0 -53 12 -94t44 -68z
M183 1234q0 19 3.5 42.5t11.5 41.5q19 12 48.5 18.5t55.5 6.5t55 -6.5t49 -18.5q8 -18 11.5 -41.5t3.5 -42.5t-3.5 -42.5t-11.5 -41.5q-20 -11 -49 -18t-55 -7t-55.5 7t-48.5 18q-8 18 -11.5 41.5t-3.5 42.5zM561 1234q0 19 3.5 42.5t11.5 41.5q20 12 49 18.5t55 6.5
t55.5 -6.5t47.5 -18.5q9 -18 12.5 -41.5t3.5 -42.5t-3.5 -42.5t-12.5 -41.5q-18 -11 -47.5 -18t-55.5 -7t-55 7t-49 18q-8 18 -11.5 41.5t-3.5 42.5z" />
    <glyph glyph-name="uni1EA1" unicode="&#x1ea1;" horiz-adv-x="1016" 
d="M82 269q0 116 51.5 190t139 109.5t194.5 35.5q54 0 124 -4.5t130 -17.5v-151q-51 12 -117 15.5t-120 3.5q-86 0 -132 -44.5t-46 -120.5q0 -57 33 -96t94 -39q70 0 147.5 49t130.5 143l34 -165q-36 -43 -88.5 -90.5t-121.5 -80t-157 -32.5q-100 0 -166 44t-98 112t-32 139
zM930 103q-7 -31 -30.5 -66t-49.5 -52q-68 10 -111 45t-64 84.5t-26 101.5v447q0 87 -40.5 126.5t-116.5 39.5q-73 0 -152 -22t-159 -51q-26 27 -43 74t-19 91q58 25 131 45.5t149.5 32.5t143.5 12q96 0 170.5 -35t117.5 -109.5t43 -191.5v-410q0 -53 12 -94t44 -68z
M501 -361q-31 0 -64.5 7.5t-53.5 18.5q-9 20 -14 46t-5 48q0 24 5 49.5t14 46.5q18 11 52.5 18t65.5 7t66.5 -7t51.5 -18q9 -21 14 -46.5t5 -49.5q0 -22 -5 -48t-14 -46q-17 -11 -52 -18.5t-66 -7.5z" />
    <glyph glyph-name="agrave" unicode="&#xe0;" horiz-adv-x="1016" 
d="M82 269q0 116 51.5 190t139 109.5t194.5 35.5q54 0 124 -4.5t130 -17.5v-151q-51 12 -117 15.5t-120 3.5q-86 0 -132 -44.5t-46 -120.5q0 -57 33 -96t94 -39q70 0 147.5 49t130.5 143l34 -165q-36 -43 -88.5 -90.5t-121.5 -80t-157 -32.5q-100 0 -166 44t-98 112t-32 139
zM930 103q-7 -31 -30.5 -66t-49.5 -52q-68 10 -111 45t-64 84.5t-26 101.5v447q0 87 -40.5 126.5t-116.5 39.5q-73 0 -152 -22t-159 -51q-26 27 -43 74t-19 91q58 25 131 45.5t149.5 32.5t143.5 12q96 0 170.5 -35t117.5 -109.5t43 -191.5v-410q0 -53 12 -94t44 -68z
M374 1490q-47 -15 -92 -56.5t-61 -88.5l347 -268q30 9 57.5 34t40.5 57z" />
    <glyph glyph-name="uni1EA3" unicode="&#x1ea3;" horiz-adv-x="1016" 
d="M82 269q0 116 51.5 190t139 109.5t194.5 35.5q54 0 124 -4.5t130 -17.5v-151q-51 12 -117 15.5t-120 3.5q-86 0 -132 -44.5t-46 -120.5q0 -57 33 -96t94 -39q70 0 147.5 49t130.5 143l34 -165q-36 -43 -88.5 -90.5t-121.5 -80t-157 -32.5q-100 0 -166 44t-98 112t-32 139
zM930 103q-7 -31 -30.5 -66t-49.5 -52q-68 10 -111 45t-64 84.5t-26 101.5v447q0 87 -40.5 126.5t-116.5 39.5q-73 0 -152 -22t-159 -51q-26 27 -43 74t-19 91q58 25 131 45.5t149.5 32.5t143.5 12q96 0 170.5 -35t117.5 -109.5t43 -191.5v-410q0 -53 12 -94t44 -68z
M403 1187q117 46 117 110q0 27 -21.5 45.5t-56.5 18.5q-25 0 -51.5 -8t-49.5 -20q-22 22 -33.5 53t-12.5 63q39 21 89.5 36t103.5 15q95 0 154 -49.5t59 -130.5q0 -84 -65 -145.5t-171 -97.5q-26 17 -42 47t-20 63z" />
    <glyph glyph-name="uni0203" unicode="&#x203;" horiz-adv-x="1016" 
d="M82 269q0 116 51.5 190t139 109.5t194.5 35.5q54 0 124 -4.5t130 -17.5v-151q-51 12 -117 15.5t-120 3.5q-86 0 -132 -44.5t-46 -120.5q0 -57 33 -96t94 -39q70 0 147.5 49t130.5 143l34 -165q-36 -43 -88.5 -90.5t-121.5 -80t-157 -32.5q-100 0 -166 44t-98 112t-32 139
zM930 103q-7 -31 -30.5 -66t-49.5 -52q-68 10 -111 45t-64 84.5t-26 101.5v447q0 87 -40.5 126.5t-116.5 39.5q-73 0 -152 -22t-159 -51q-26 27 -43 74t-19 91q58 25 131 45.5t149.5 32.5t143.5 12q96 0 170.5 -35t117.5 -109.5t43 -191.5v-410q0 -53 12 -94t44 -68z
M812 1155q-19 -25 -53.5 -38t-70.5 -13q-23 60 -75.5 93.5t-121.5 33.5t-121 -33.5t-77 -93.5q-35 0 -69.5 13t-53.5 38q28 113 114 184.5t207 71.5t207 -71.5t114 -184.5z" />
    <glyph glyph-name="amacron" unicode="&#x101;" horiz-adv-x="1016" 
d="M82 269q0 116 51.5 190t139 109.5t194.5 35.5q54 0 124 -4.5t130 -17.5v-151q-51 12 -117 15.5t-120 3.5q-86 0 -132 -44.5t-46 -120.5q0 -57 33 -96t94 -39q70 0 147.5 49t130.5 143l34 -165q-36 -43 -88.5 -90.5t-121.5 -80t-157 -32.5q-100 0 -166 44t-98 112t-32 139
zM930 103q-7 -31 -30.5 -66t-49.5 -52q-68 10 -111 45t-64 84.5t-26 101.5v447q0 87 -40.5 126.5t-116.5 39.5q-73 0 -152 -22t-159 -51q-26 27 -43 74t-19 91q58 25 131 45.5t149.5 32.5t143.5 12q96 0 170.5 -35t117.5 -109.5t43 -191.5v-410q0 -53 12 -94t44 -68z
M206 1149q-7 22 -9.5 42t-2.5 46q0 25 2.5 46t9.5 44h571q6 -23 8.5 -42t2.5 -47q0 -26 -2.5 -46.5t-8.5 -42.5h-571z" />
    <glyph glyph-name="aogonek" unicode="&#x105;" horiz-adv-x="1026" 
d="M82 269q0 116 51.5 190t139 109.5t194.5 35.5q54 0 124 -4.5t130 -17.5v-151q-51 12 -117 15.5t-120 3.5q-86 0 -132 -44.5t-46 -120.5q0 -57 33 -96t94 -39q70 0 147.5 49t130.5 143l34 -165q-36 -43 -88.5 -90.5t-121.5 -80t-157 -32.5q-100 0 -166 44t-98 112t-32 139
zM780 9q-62 31 -93.5 88t-37.5 119v447q0 87 -40.5 126.5t-116.5 39.5q-73 0 -152 -21.5t-159 -51.5q-26 27 -43 74t-19 91q58 25 131 45.5t149.5 32.5t143.5 12q96 0 170.5 -35t117.5 -109.5t43 -191.5v-410q0 -53 17.5 -92.5t52.5 -69.5zM937 -254q21 -16 36 -44.5
t16 -63.5q-36 -31 -94.5 -52t-122.5 -21q-96 0 -157.5 49.5t-61.5 140.5q0 66 32.5 123.5t82 104.5t99.5 78l177 42q-13 -32 -39.5 -63t-60.5 -62q-49 -41 -81.5 -83t-32.5 -93q0 -44 27 -65.5t68 -21.5q31 0 60.5 10t51.5 21z" />
    <glyph glyph-name="aring" unicode="&#xe5;" horiz-adv-x="1016" 
d="M82 269q0 116 51.5 190t139 109.5t194.5 35.5q54 0 124 -4.5t130 -17.5v-151q-51 12 -117 15.5t-120 3.5q-86 0 -132 -44.5t-46 -120.5q0 -57 33 -96t94 -39q70 0 147.5 49t130.5 143l34 -165q-36 -43 -88.5 -90.5t-121.5 -80t-157 -32.5q-100 0 -166 44t-98 112t-32 139
zM930 103q-7 -31 -30.5 -66t-49.5 -52q-68 10 -111 45t-64 84.5t-26 101.5v447q0 87 -40.5 126.5t-116.5 39.5q-73 0 -152 -22t-159 -51q-26 27 -43 74t-19 91q58 25 131 45.5t149.5 32.5t143.5 12q96 0 170.5 -35t117.5 -109.5t43 -191.5v-410q0 -53 12 -94t44 -68z
M241 1312q0 -96 69.5 -164.5t180.5 -68.5t180.5 68.5t69.5 164.5t-69.5 164t-180.5 68t-180.5 -68t-69.5 -164zM391 1312q0 46 28 77t72 31t72 -31t28 -77t-28 -77t-72 -31t-72 31t-28 77z" />
    <glyph glyph-name="aringacute" unicode="&#x1fb;" horiz-adv-x="1016" 
d="M82 269q0 116 51.5 190t139 109.5t194.5 35.5q54 0 124 -4.5t130 -17.5v-151q-51 12 -117 15.5t-120 3.5q-86 0 -132 -44.5t-46 -120.5q0 -57 33 -96t94 -39q70 0 147.5 49t130.5 143l34 -165q-36 -43 -88.5 -90.5t-121.5 -80t-157 -32.5q-100 0 -166 44t-98 112t-32 139
zM930 103q-7 -31 -30.5 -66t-49.5 -52q-68 10 -111 45t-64 84.5t-26 101.5v447q0 87 -40.5 126.5t-116.5 39.5q-73 0 -152 -22t-159 -51q-26 27 -43 74t-19 91q58 25 131 45.5t149.5 32.5t143.5 12q96 0 170.5 -35t117.5 -109.5t43 -191.5v-410q0 -53 12 -94t44 -68z
M241 1312q0 -96 69.5 -164.5t180.5 -68.5t180.5 68.5t69.5 164.5t-69.5 164t-180.5 68t-180.5 -68t-69.5 -164zM391 1312q0 46 28 77t72 31t72 -31t28 -77t-28 -77t-72 -31t-72 31t-28 77zM626 1985q48 -15 92.5 -56.5t61.5 -88.5l-348 -268q-30 9 -57.5 34t-40.5 57z" />
    <glyph glyph-name="atilde" unicode="&#xe3;" horiz-adv-x="1016" 
d="M82 269q0 116 51.5 190t139 109.5t194.5 35.5q54 0 124 -4.5t130 -17.5v-151q-51 12 -117 15.5t-120 3.5q-86 0 -132 -44.5t-46 -120.5q0 -57 33 -96t94 -39q70 0 147.5 49t130.5 143l34 -165q-36 -43 -88.5 -90.5t-121.5 -80t-157 -32.5q-100 0 -166 44t-98 112t-32 139
zM930 103q-7 -31 -30.5 -66t-49.5 -52q-68 10 -111 45t-64 84.5t-26 101.5v447q0 87 -40.5 126.5t-116.5 39.5q-73 0 -152 -22t-159 -51q-26 27 -43 74t-19 91q58 25 131 45.5t149.5 32.5t143.5 12q96 0 170.5 -35t117.5 -109.5t43 -191.5v-410q0 -53 12 -94t44 -68z
M618 1114q-34 0 -63.5 10t-52.5 21l-84 46q-10 6 -27.5 13t-36.5 7q-31 0 -49.5 -18t-28.5 -31l-22 -28q-32 1 -64.5 20.5t-44.5 49.5l17 38q31 69 84 111t121 42q36 0 66.5 -10.5t48.5 -21.5l85 -45q10 -5 27.5 -13t38.5 -8q28 0 46 17t30 33l21 28q33 -1 64.5 -20.5
t44.5 -50.5l-17 -39q-31 -71 -85 -111t-119 -40z" />
    <glyph glyph-name="ae" unicode="&#xe6;" horiz-adv-x="1553" 
d="M82 270q0 116 51.5 189.5t139 109t194.5 35.5q59 0 126.5 -5t127.5 -17v-153q-53 11 -118 16t-119 5q-86 0 -132 -44t-46 -120q0 -57 33 -96.5t94 -39.5q49 0 102.5 22t103 67.5t84.5 115.5l49 -175q-37 -49 -95 -96.5t-133 -78.5t-166 -31q-100 0 -166 43.5t-98 112
t-32 140.5zM649 493v170q0 87 -40.5 126.5t-115.5 39.5q-73 0 -152.5 -21.5t-159.5 -51.5q-26 27 -43 74t-19 91q87 36 200.5 63t210.5 27q99 0 171 -38t111.5 -113.5t39.5 -188.5v-178h-203zM788 422v163h459v23q0 66 -17.5 120.5t-57.5 88t-107 33.5q-97 0 -142.5 -81.5
t-45.5 -230.5v-65q0 -88 17.5 -160.5t65 -114.5t137.5 -42q73 0 141 21t132 52q27 -26 44.5 -67t23.5 -76q-73 -52 -172.5 -82t-204.5 -30q-201 0 -306.5 132t-106.5 387q0 92 25 184t76.5 169.5t130.5 123.5t186 46q130 0 219 -56.5t134.5 -153t45.5 -215.5q0 -52 -4 -88.5
t-13 -80.5h-660z" />
    <glyph glyph-name="aeacute" unicode="&#x1fd;" horiz-adv-x="1553" 
d="M82 270q0 116 51.5 189.5t139 109t194.5 35.5q59 0 126.5 -5t127.5 -17v-153q-53 11 -118 16t-119 5q-86 0 -132 -44t-46 -120q0 -57 33 -96.5t94 -39.5q49 0 102.5 22t103 67.5t84.5 115.5l49 -175q-37 -49 -95 -96.5t-133 -78.5t-166 -31q-100 0 -166 43.5t-98 112
t-32 140.5zM649 493v170q0 87 -40.5 126.5t-115.5 39.5q-73 0 -152.5 -21.5t-159.5 -51.5q-26 27 -43 74t-19 91q87 36 200.5 63t210.5 27q99 0 171 -38t111.5 -113.5t39.5 -188.5v-178h-203zM788 422v163h459v23q0 66 -17.5 120.5t-57.5 88t-107 33.5q-97 0 -142.5 -81.5
t-45.5 -230.5v-65q0 -88 17.5 -160.5t65 -114.5t137.5 -42q73 0 141 21t132 52q27 -26 44.5 -67t23.5 -76q-73 -52 -172.5 -82t-204.5 -30q-201 0 -306.5 132t-106.5 387q0 92 25 184t76.5 169.5t130.5 123.5t186 46q130 0 219 -56.5t134.5 -153t45.5 -215.5q0 -52 -4 -88.5
t-13 -80.5h-660zM936 1490q48 -15 92.5 -56.5t61.5 -88.5l-348 -268q-30 9 -57.5 34t-40.5 57z" />
    <glyph glyph-name="b" unicode="b" horiz-adv-x="1058" 
d="M372 50h-223v1408l13 13h85q70 0 97.5 -33.5t27.5 -109.5v-1278zM977 508q1 -172 -60 -289t-165.5 -176t-233.5 -59q-98 0 -192.5 17.5t-176.5 48.5l111 173q60 -36 123 -54t138 -18q67 0 117.5 40t78.5 119t28 194q0 167 -48.5 241t-123.5 74q-68 1 -135 -43.5
t-107 -118.5l-34 182q33 39 81 78t111 64.5t140 25.5q116 0 193 -64t116 -177t39 -258z" />
    <glyph glyph-name="c" unicode="c" horiz-adv-x="944" 
d="M666 596q2 67 -10.5 123.5t-49 90t-104.5 33.5q-90 0 -137.5 -87.5t-47.5 -265.5q0 -176 56.5 -254.5t158.5 -78.5q67 0 127.5 30t111.5 68q30 -18 58 -57.5t36 -75.5q-68 -67 -163.5 -107.5t-204.5 -40.5q-107 0 -185.5 40t-129 111t-75 164.5t-24.5 200.5
q0 140 35.5 240t96.5 163t136.5 93t155.5 30q90 0 158.5 -26.5t115.5 -71t70.5 -99t23.5 -110.5q0 -58 -28.5 -90t-86.5 -32q-52 0 -94 9z" />
    <glyph glyph-name="cacute" unicode="&#x107;" horiz-adv-x="944" 
d="M666 596q2 67 -10.5 123.5t-49 90t-104.5 33.5q-90 0 -137.5 -87.5t-47.5 -265.5q0 -176 56.5 -254.5t158.5 -78.5q67 0 127.5 30t111.5 68q30 -18 58 -57.5t36 -75.5q-68 -67 -163.5 -107.5t-204.5 -40.5q-107 0 -185.5 40t-129 111t-75 164.5t-24.5 200.5
q0 140 35.5 240t96.5 163t136.5 93t155.5 30q90 0 158.5 -26.5t115.5 -71t70.5 -99t23.5 -110.5q0 -58 -28.5 -90t-86.5 -32q-52 0 -94 9zM638 1490q48 -15 92.5 -56.5t61.5 -88.5l-348 -268q-30 9 -57.5 34t-40.5 57z" />
    <glyph glyph-name="ccaron" unicode="&#x10d;" horiz-adv-x="944" 
d="M666 596q2 67 -10.5 123.5t-49 90t-104.5 33.5q-90 0 -137.5 -87.5t-47.5 -265.5q0 -176 56.5 -254.5t158.5 -78.5q67 0 127.5 30t111.5 68q30 -18 58 -57.5t36 -75.5q-68 -67 -163.5 -107.5t-204.5 -40.5q-107 0 -185.5 40t-129 111t-75 164.5t-24.5 200.5
q0 140 35.5 240t96.5 163t136.5 93t155.5 30q90 0 158.5 -26.5t115.5 -71t70.5 -99t23.5 -110.5q0 -58 -28.5 -90t-86.5 -32q-52 0 -94 9zM404 1113l-193 252q16 36 48 62.5t58 34.5l186 -180l186 180q26 -8 58 -34.5t48 -62.5l-193 -252q-20 -5 -46 -8.5t-53 -3.5t-53 3.5
t-46 8.5z" />
    <glyph glyph-name="ccedilla" unicode="&#xe7;" horiz-adv-x="944" 
d="M666 596q2 67 -10.5 123.5t-49 90t-104.5 33.5q-90 0 -137.5 -87.5t-47.5 -265.5q0 -176 56.5 -254.5t158.5 -78.5q67 0 127.5 30t111.5 68q30 -18 58 -57.5t36 -75.5q-68 -67 -163.5 -107.5t-204.5 -40.5q-107 0 -185.5 40t-129 111t-75 164.5t-24.5 200.5
q0 140 35.5 240t96.5 163t136.5 93t155.5 30q90 0 158.5 -26.5t115.5 -71t70.5 -99t23.5 -110.5q0 -58 -28.5 -90t-86.5 -32q-52 0 -94 9zM368 -150q12 34 33.5 83t39.5 79h134q-10 -14 -23.5 -40.5t-20.5 -42.5q76 -7 128.5 -54.5t52.5 -121.5q0 -90 -70 -146.5t-178 -56.5
q-47 0 -90.5 12t-69.5 29q2 31 14 60t29 51q19 -11 45.5 -19t53.5 -8q44 0 64.5 21.5t20.5 51.5q0 31 -20.5 52.5t-59.5 21.5q-12 0 -24 -2.5t-22 -6.5q-12 5 -22.5 15.5t-14.5 21.5z" />
    <glyph glyph-name="uni1E09" unicode="&#x1e09;" horiz-adv-x="944" 
d="M666 596q2 67 -10.5 123.5t-49 90t-104.5 33.5q-90 0 -137.5 -87.5t-47.5 -265.5q0 -176 56.5 -254.5t158.5 -78.5q67 0 127.5 30t111.5 68q30 -18 58 -57.5t36 -75.5q-68 -67 -163.5 -107.5t-204.5 -40.5q-107 0 -185.5 40t-129 111t-75 164.5t-24.5 200.5
q0 140 35.5 240t96.5 163t136.5 93t155.5 30q90 0 158.5 -26.5t115.5 -71t70.5 -99t23.5 -110.5q0 -58 -28.5 -90t-86.5 -32q-52 0 -94 9zM368 -150q12 34 33.5 83t39.5 79h134q-10 -14 -23.5 -40.5t-20.5 -42.5q76 -7 128.5 -54.5t52.5 -121.5q0 -90 -70 -146.5t-178 -56.5
q-47 0 -90.5 12t-69.5 29q2 31 14 60t29 51q19 -11 45.5 -19t53.5 -8q44 0 64.5 21.5t20.5 51.5q0 31 -20.5 52.5t-59.5 21.5q-12 0 -24 -2.5t-22 -6.5q-12 5 -22.5 15.5t-14.5 21.5zM638 1490q48 -15 92.5 -56.5t61.5 -88.5l-348 -268q-30 9 -57.5 34t-40.5 57z" />
    <glyph glyph-name="ccircumflex" unicode="&#x109;" horiz-adv-x="944" 
d="M666 596q2 67 -10.5 123.5t-49 90t-104.5 33.5q-90 0 -137.5 -87.5t-47.5 -265.5q0 -176 56.5 -254.5t158.5 -78.5q67 0 127.5 30t111.5 68q30 -18 58 -57.5t36 -75.5q-68 -67 -163.5 -107.5t-204.5 -40.5q-107 0 -185.5 40t-129 111t-75 164.5t-24.5 200.5
q0 140 35.5 240t96.5 163t136.5 93t155.5 30q90 0 158.5 -26.5t115.5 -71t70.5 -99t23.5 -110.5q0 -58 -28.5 -90t-86.5 -32q-52 0 -94 9zM604 1444l193 -252q-15 -36 -47.5 -62.5t-58.5 -34.5l-186 180l-185 -180q-27 8 -59 34.5t-47 62.5l192 252q20 5 46 8.5t53 3.5
q28 0 54 -3.5t45 -8.5z" />
    <glyph glyph-name="cdotaccent" unicode="&#x10b;" horiz-adv-x="944" 
d="M666 596q2 67 -10.5 123.5t-49 90t-104.5 33.5q-90 0 -137.5 -87.5t-47.5 -265.5q0 -176 56.5 -254.5t158.5 -78.5q67 0 127.5 30t111.5 68q30 -18 58 -57.5t36 -75.5q-68 -67 -163.5 -107.5t-204.5 -40.5q-107 0 -185.5 40t-129 111t-75 164.5t-24.5 200.5
q0 140 35.5 240t96.5 163t136.5 93t155.5 30q90 0 158.5 -26.5t115.5 -71t70.5 -99t23.5 -110.5q0 -58 -28.5 -90t-86.5 -32q-52 0 -94 9zM366 1259q0 23 5 49t14 46q20 11 53.5 18.5t64.5 7.5t66 -7.5t52 -18.5q9 -20 14 -46.5t5 -48.5t-5 -48.5t-14 -45.5
q-16 -11 -51.5 -18.5t-66.5 -7.5t-65.5 7t-52.5 19q-9 19 -14 45.5t-5 48.5z" />
    <glyph glyph-name="d" unicode="d" horiz-adv-x="1063" 
d="M911 283q0 -56 12.5 -104.5t43.5 -75.5q-7 -31 -31 -66t-50 -52q-105 16 -151 92.5t-46 178.5v1202l13 13h87q70 0 96 -33.5t26 -109.5v-1045zM84 483q0 177 55.5 293.5t144 173.5t186.5 57q97 0 177 -40t150 -88l-28 -176q-58 45 -126.5 85.5t-138.5 40.5
q-54 0 -96.5 -38.5t-67 -115.5t-24.5 -194q0 -113 23 -183.5t62 -103.5t83 -33q47 0 99.5 26t98.5 82.5t71 148.5l49 -158q-17 -70 -69.5 -135.5t-129.5 -108t-173 -42.5q-115 0 -192 64.5t-115.5 179.5t-38.5 265z" />
    <glyph glyph-name="dcaron" unicode="&#x10f;" horiz-adv-x="1187" 
d="M1043 1508q15 4 30.5 5.5t32.5 1.5q36 0 69.5 -9t59.5 -25l-76 -369q-12 -4 -26 -5.5t-27 -1.5q-22 0 -44 4.5t-36 11.5zM911 283q0 -56 12.5 -104.5t43.5 -75.5q-7 -31 -31 -66t-50 -52q-105 16 -151 92.5t-46 178.5v1202l13 13h87q70 0 96 -33.5t26 -109.5v-1045z
M84 483q0 177 55.5 293.5t144 173.5t186.5 57q97 0 177 -40t150 -88l-28 -176q-58 45 -126.5 85.5t-138.5 40.5q-54 0 -96.5 -38.5t-67 -115.5t-24.5 -194q0 -113 23 -183.5t62 -103.5t83 -33q47 0 99.5 26t98.5 82.5t71 148.5l49 -158q-17 -70 -69.5 -135.5t-129.5 -108
t-173 -42.5q-115 0 -192 64.5t-115.5 179.5t-38.5 265z" />
    <glyph glyph-name="dcroat" unicode="&#x111;" horiz-adv-x="1069" 
d="M376 1132q-5 22 -7.5 39t-2.5 36q0 23 2.5 40.5t7.5 37.5l403 -4l275 4q6 -20 8 -37.5t2 -40.5q0 -19 -2 -36t-8 -39l-279 5zM911 283q0 -56 12.5 -104.5t43.5 -75.5q-7 -31 -31 -66t-50 -52q-105 16 -151 92.5t-46 178.5v1202l13 13h87q70 0 96 -33.5t26 -109.5v-1045z
M84 483q0 177 55.5 293.5t144 173.5t186.5 57q97 0 177 -40t150 -88l-28 -176q-58 45 -126.5 85.5t-138.5 40.5q-54 0 -96.5 -38.5t-67 -115.5t-24.5 -194q0 -113 23 -183.5t62 -103.5t83 -33q47 0 99.5 26t98.5 82.5t71 148.5l49 -158q-17 -70 -69.5 -135.5t-129.5 -108
t-173 -42.5q-115 0 -192 64.5t-115.5 179.5t-38.5 265z" />
    <glyph glyph-name="uni1E0D" unicode="&#x1e0d;" horiz-adv-x="1063" 
d="M911 283q0 -56 12.5 -104.5t43.5 -75.5q-7 -31 -31 -66t-50 -52q-105 16 -151 92.5t-46 178.5v1202l13 13h87q70 0 96 -33.5t26 -109.5v-1045zM84 483q0 177 55.5 293.5t144 173.5t186.5 57q97 0 177 -40t150 -88l-28 -176q-58 45 -126.5 85.5t-138.5 40.5
q-54 0 -96.5 -38.5t-67 -115.5t-24.5 -194q0 -113 23 -183.5t62 -103.5t83 -33q47 0 99.5 26t98.5 82.5t71 148.5l49 -158q-17 -70 -69.5 -135.5t-129.5 -108t-173 -42.5q-115 0 -192 64.5t-115.5 179.5t-38.5 265zM551 -361q-31 0 -64.5 7.5t-53.5 18.5q-9 20 -14 46t-5 48
q0 24 5 49.5t14 46.5q18 11 52.5 18t65.5 7t66.5 -7t51.5 -18q9 -21 14 -46.5t5 -49.5q0 -22 -5 -48t-14 -46q-17 -11 -52 -18.5t-66 -7.5z" />
    <glyph glyph-name="uni1E0F" unicode="&#x1e0f;" horiz-adv-x="1063" 
d="M911 283q0 -56 12.5 -104.5t43.5 -75.5q-7 -31 -31 -66t-50 -52q-105 16 -151 92.5t-46 178.5v1202l13 13h87q70 0 96 -33.5t26 -109.5v-1045zM84 483q0 177 55.5 293.5t144 173.5t186.5 57q97 0 177 -40t150 -88l-28 -176q-58 45 -126.5 85.5t-138.5 40.5
q-54 0 -96.5 -38.5t-67 -115.5t-24.5 -194q0 -113 23 -183.5t62 -103.5t83 -33q47 0 99.5 26t98.5 82.5t71 148.5l49 -158q-17 -70 -69.5 -135.5t-129.5 -108t-173 -42.5q-115 0 -192 64.5t-115.5 179.5t-38.5 265zM836 -146q7 -22 9 -42t2 -46q0 -25 -2 -45t-9 -44h-571
q-5 24 -7.5 42t-2.5 46q0 48 10 89h571z" />
    <glyph glyph-name="uni01C6" unicode="&#x1c6;" horiz-adv-x="1957" 
d="M911 283q0 -56 12.5 -104.5t43.5 -75.5q-7 -31 -31 -66t-50 -52q-105 16 -151 92.5t-46 178.5v1202l13 13h87q70 0 96 -33.5t26 -109.5v-1045zM84 483q0 177 55.5 293.5t144 173.5t186.5 57q97 0 177 -40t150 -88l-28 -176q-58 45 -126.5 85.5t-138.5 40.5
q-54 0 -96.5 -38.5t-67 -115.5t-24.5 -194q0 -113 23 -183.5t62 -103.5t83 -33q47 0 99.5 26t98.5 82.5t71 148.5l49 -158q-17 -70 -69.5 -135.5t-129.5 -108t-173 -42.5q-115 0 -192 64.5t-115.5 179.5t-38.5 265zM1472 628q34 46 78.5 97.5t80.5 94.5l-6 8
q-30 -4 -76.5 -7t-96 -4.5t-89.5 -1.5h-199q-4 18 -5.5 37.5t-1.5 34.5q0 23 3.5 50t8.5 52h675q16 -46 24 -76.5t8 -54.5q0 -17 -6 -36.5t-21 -38.5l-309 -416q-34 -46 -75.5 -97.5t-78.5 -94.5l6 -8q48 5 95.5 7t83.5 2h90q64 0 118 6t93 23q11 -27 16.5 -51t5.5 -48
q0 -49 -30 -77.5t-108 -28.5h-597q-17 47 -23.5 73t-6.5 48q0 19 7.5 41t26.5 48zM1413 1113l-193 252q16 36 48 62.5t58 34.5l186 -180l186 180q26 -8 58 -34.5t48 -62.5l-193 -252q-20 -5 -46 -8.5t-53 -3.5t-53 3.5t-46 8.5z" />
    <glyph glyph-name="eth" unicode="&#xf0;" horiz-adv-x="1039" 
d="M957 492q0 -153 -50 -269.5t-148 -182.5t-241 -66t-240.5 66t-146.5 181t-49 261q0 144 50.5 255t145 174t227.5 63q84 0 159.5 -40.5t121.5 -89.5v-173q-46 57 -115 96t-151 39q-77 0 -122 -43t-64 -116.5t-19 -166.5q0 -85 17.5 -162t61.5 -126t125 -49t125 50
t61.5 129.5t17.5 169.5q0 127 -17 209.5t-47 153.5q-10 99 -75 194t-160 174t-197 132q7 42 32.5 83.5t57.5 58.5q205 -86 347.5 -232t217.5 -342t75 -431zM715 1488q25 -17 50 -50t30 -65l-501 -345q-26 18 -50 51t-30 64z" />
    <glyph glyph-name="e" unicode="e" horiz-adv-x="999" 
d="M226 422v163h464v26q0 65 -18.5 119t-59 87t-107.5 33q-96 0 -142.5 -81t-46.5 -226v-70q0 -88 18 -160.5t65.5 -114.5t136.5 -42q75 0 144 21t131 52q28 -26 46 -67t23 -76q-72 -52 -173 -82t-206 -30q-121 0 -202 42.5t-128.5 115.5t-67.5 166t-20 194q0 149 46 267.5
t140 187.5t237 69q130 0 219.5 -56.5t135.5 -153t46 -215.5q0 -52 -4 -88.5t-14 -80.5h-663z" />
    <glyph glyph-name="eacute" unicode="&#xe9;" horiz-adv-x="999" 
d="M226 422v163h464v26q0 65 -18.5 119t-59 87t-107.5 33q-96 0 -142.5 -81t-46.5 -226v-70q0 -88 18 -160.5t65.5 -114.5t136.5 -42q75 0 144 21t131 52q28 -26 46 -67t23 -76q-72 -52 -173 -82t-206 -30q-121 0 -202 42.5t-128.5 115.5t-67.5 166t-20 194q0 149 46 267.5
t140 187.5t237 69q130 0 219.5 -56.5t135.5 -153t46 -215.5q0 -52 -4 -88.5t-14 -80.5h-663zM645 1490q48 -15 92.5 -56.5t61.5 -88.5l-348 -268q-30 9 -57.5 34t-40.5 57z" />
    <glyph glyph-name="ebreve" unicode="&#x115;" horiz-adv-x="999" 
d="M226 422v163h464v26q0 65 -18.5 119t-59 87t-107.5 33q-96 0 -142.5 -81t-46.5 -226v-70q0 -88 18 -160.5t65.5 -114.5t136.5 -42q75 0 144 21t131 52q28 -26 46 -67t23 -76q-72 -52 -173 -82t-206 -30q-121 0 -202 42.5t-128.5 115.5t-67.5 166t-20 194q0 149 46 267.5
t140 187.5t237 69q130 0 219.5 -56.5t135.5 -153t46 -215.5q0 -52 -4 -88.5t-14 -80.5h-663zM831 1360q-28 -113 -114 -184.5t-207 -71.5t-207 71.5t-114 184.5q19 25 53.5 38t69.5 13q25 -61 77 -94.5t121 -33.5t121.5 33.5t75.5 94.5q36 0 70.5 -13t53.5 -38z" />
    <glyph glyph-name="ecaron" unicode="&#x11b;" horiz-adv-x="999" 
d="M226 422v163h464v26q0 65 -18.5 119t-59 87t-107.5 33q-96 0 -142.5 -81t-46.5 -226v-70q0 -88 18 -160.5t65.5 -114.5t136.5 -42q75 0 144 21t131 52q28 -26 46 -67t23 -76q-72 -52 -173 -82t-206 -30q-121 0 -202 42.5t-128.5 115.5t-67.5 166t-20 194q0 149 46 267.5
t140 187.5t237 69q130 0 219.5 -56.5t135.5 -153t46 -215.5q0 -52 -4 -88.5t-14 -80.5h-663zM411 1113l-193 252q16 36 48 62.5t58 34.5l186 -180l186 180q26 -8 58 -34.5t48 -62.5l-193 -252q-20 -5 -46 -8.5t-53 -3.5t-53 3.5t-46 8.5z" />
    <glyph glyph-name="uni1E1D" unicode="&#x1e1d;" horiz-adv-x="999" 
d="M226 422v163h464v26q0 65 -18.5 119t-59 87t-107.5 33q-96 0 -142.5 -81t-46.5 -226v-70q0 -88 18 -160.5t65.5 -114.5t136.5 -42q75 0 144 21t131 52q28 -26 46 -67t23 -76q-72 -52 -173 -82t-206 -30q-121 0 -202 42.5t-128.5 115.5t-67.5 166t-20 194q0 149 46 267.5
t140 187.5t237 69q130 0 219.5 -56.5t135.5 -153t46 -215.5q0 -52 -4 -88.5t-14 -80.5h-663zM388 -150q12 34 33.5 83t39.5 79h134q-10 -14 -23.5 -40.5t-20.5 -42.5q76 -7 128.5 -54.5t52.5 -121.5q0 -90 -70 -146.5t-178 -56.5q-47 0 -90.5 12t-69.5 29q2 31 14 60t29 51
q19 -11 45.5 -19t53.5 -8q44 0 64.5 21.5t20.5 51.5q0 31 -20.5 52.5t-59.5 21.5q-12 0 -24 -2.5t-22 -6.5q-12 5 -22.5 15.5t-14.5 21.5zM831 1360q-28 -113 -114 -184.5t-207 -71.5t-207 71.5t-114 184.5q19 25 53.5 38t69.5 13q25 -61 77 -94.5t121 -33.5t121.5 33.5
t75.5 94.5q36 0 70.5 -13t53.5 -38z" />
    <glyph glyph-name="ecircumflex" unicode="&#xea;" horiz-adv-x="999" 
d="M226 422v163h464v26q0 65 -18.5 119t-59 87t-107.5 33q-96 0 -142.5 -81t-46.5 -226v-70q0 -88 18 -160.5t65.5 -114.5t136.5 -42q75 0 144 21t131 52q28 -26 46 -67t23 -76q-72 -52 -173 -82t-206 -30q-121 0 -202 42.5t-128.5 115.5t-67.5 166t-20 194q0 149 46 267.5
t140 187.5t237 69q130 0 219.5 -56.5t135.5 -153t46 -215.5q0 -52 -4 -88.5t-14 -80.5h-663zM611 1444l193 -252q-15 -36 -47.5 -62.5t-58.5 -34.5l-186 180l-185 -180q-27 8 -59 34.5t-47 62.5l192 252q20 5 46 8.5t53 3.5q28 0 54 -3.5t45 -8.5z" />
    <glyph glyph-name="uni1EBF" unicode="&#x1ebf;" horiz-adv-x="999" 
d="M226 422v163h464v26q0 65 -18.5 119t-59 87t-107.5 33q-96 0 -142.5 -81t-46.5 -226v-70q0 -88 18 -160.5t65.5 -114.5t136.5 -42q75 0 144 21t131 52q28 -26 46 -67t23 -76q-72 -52 -173 -82t-206 -30q-121 0 -202 42.5t-128.5 115.5t-67.5 166t-20 194q0 149 46 267.5
t140 187.5t237 69q130 0 219.5 -56.5t135.5 -153t46 -215.5q0 -52 -4 -88.5t-14 -80.5h-663zM613 1423l205 -234q-15 -35 -46 -60t-59 -34l-200 177l-202 -177q-27 9 -56 34t-44 60l204 234q20 6 46 9.5t54 3.5t53.5 -3.5t44.5 -9.5zM861 1820l-172 -343q16 -26 47.5 -44
t60.5 -21l233 307q-24 40 -74 68.5t-95 32.5z" />
    <glyph glyph-name="uni1EC7" unicode="&#x1ec7;" horiz-adv-x="999" 
d="M226 422v163h464v26q0 65 -18.5 119t-59 87t-107.5 33q-96 0 -142.5 -81t-46.5 -226v-70q0 -88 18 -160.5t65.5 -114.5t136.5 -42q75 0 144 21t131 52q28 -26 46 -67t23 -76q-72 -52 -173 -82t-206 -30q-121 0 -202 42.5t-128.5 115.5t-67.5 166t-20 194q0 149 46 267.5
t140 187.5t237 69q130 0 219.5 -56.5t135.5 -153t46 -215.5q0 -52 -4 -88.5t-14 -80.5h-663zM517 -361q-31 0 -64.5 7.5t-53.5 18.5q-9 20 -14 46t-5 48q0 24 5 49.5t14 46.5q18 11 52.5 18t65.5 7t66.5 -7t51.5 -18q9 -21 14 -46.5t5 -49.5q0 -22 -5 -48t-14 -46
q-17 -11 -52 -18.5t-66 -7.5zM611 1444l193 -252q-15 -36 -47.5 -62.5t-58.5 -34.5l-186 180l-185 -180q-27 8 -59 34.5t-47 62.5l192 252q20 5 46 8.5t53 3.5q28 0 54 -3.5t45 -8.5z" />
    <glyph glyph-name="uni1EC1" unicode="&#x1ec1;" horiz-adv-x="999" 
d="M226 422v163h464v26q0 65 -18.5 119t-59 87t-107.5 33q-96 0 -142.5 -81t-46.5 -226v-70q0 -88 18 -160.5t65.5 -114.5t136.5 -42q75 0 144 21t131 52q28 -26 46 -67t23 -76q-72 -52 -173 -82t-206 -30q-121 0 -202 42.5t-128.5 115.5t-67.5 166t-20 194q0 149 46 267.5
t140 187.5t237 69q130 0 219.5 -56.5t135.5 -153t46 -215.5q0 -52 -4 -88.5t-14 -80.5h-663zM613 1423l205 -234q-15 -35 -46 -60t-59 -34l-200 177l-202 -177q-27 9 -56 34t-44 60l204 234q20 6 46 9.5t54 3.5t53.5 -3.5t44.5 -9.5zM705 1821q-46 -4 -95 -32.5t-74 -67.5
l233 -308q28 2 60 20.5t48 45.5z" />
    <glyph glyph-name="uni1EC3" unicode="&#x1ec3;" horiz-adv-x="999" 
d="M226 422v163h464v26q0 65 -18.5 119t-59 87t-107.5 33q-96 0 -142.5 -81t-46.5 -226v-70q0 -88 18 -160.5t65.5 -114.5t136.5 -42q75 0 144 21t131 52q28 -26 46 -67t23 -76q-72 -52 -173 -82t-206 -30q-121 0 -202 42.5t-128.5 115.5t-67.5 166t-20 194q0 149 46 267.5
t140 187.5t237 69q130 0 219.5 -56.5t135.5 -153t46 -215.5q0 -52 -4 -88.5t-14 -80.5h-663zM613 1423l205 -234q-15 -35 -46 -60t-59 -34l-200 177l-202 -177q-27 9 -56 34t-44 60l204 234q20 6 46 9.5t54 3.5t53.5 -3.5t44.5 -9.5zM674 1511q54 20 81.5 43.5t27.5 54.5
q0 26 -19 42.5t-54 16.5q-23 0 -46.5 -8t-44.5 -19q-21 21 -33.5 51.5t-13.5 60.5q35 19 83.5 33t101.5 14q96 0 148 -48.5t52 -117.5q0 -80 -62.5 -139.5t-162.5 -89.5q-24 16 -39.5 45t-18.5 61z" />
    <glyph glyph-name="uni1EC5" unicode="&#x1ec5;" horiz-adv-x="999" 
d="M226 422v163h464v26q0 65 -18.5 119t-59 87t-107.5 33q-96 0 -142.5 -81t-46.5 -226v-70q0 -88 18 -160.5t65.5 -114.5t136.5 -42q75 0 144 21t131 52q28 -26 46 -67t23 -76q-72 -52 -173 -82t-206 -30q-121 0 -202 42.5t-128.5 115.5t-67.5 166t-20 194q0 149 46 267.5
t140 187.5t237 69q130 0 219.5 -56.5t135.5 -153t46 -215.5q0 -52 -4 -88.5t-14 -80.5h-663zM613 1423l205 -234q-15 -35 -46 -60t-59 -34l-200 177l-202 -177q-27 9 -56 34t-44 60l204 234q20 6 46 9.5t54 3.5t53.5 -3.5t44.5 -9.5zM439 1594q-9 5 -25 12t-34 7
q-23 0 -40.5 -12.5t-33.5 -32.5l-19 -25q-30 1 -60.5 19t-42.5 47l16 36q28 63 78.5 102.5t112.5 39.5q35 0 63 -10t46 -20l81 -42q10 -5 26 -12.5t35 -7.5q22 0 40 13t32 32l19 26q30 -1 60.5 -19.5t42.5 -46.5l-17 -36q-30 -67 -79.5 -105t-110.5 -38q-37 0 -65 11t-44 20
z" />
    <glyph glyph-name="uni0205" unicode="&#x205;" horiz-adv-x="999" 
d="M226 422v163h464v26q0 65 -18.5 119t-59 87t-107.5 33q-96 0 -142.5 -81t-46.5 -226v-70q0 -88 18 -160.5t65.5 -114.5t136.5 -42q75 0 144 21t131 52q28 -26 46 -67t23 -76q-72 -52 -173 -82t-206 -30q-121 0 -202 42.5t-128.5 115.5t-67.5 166t-20 194q0 149 46 267.5
t140 187.5t237 69q130 0 219.5 -56.5t135.5 -153t46 -215.5q0 -52 -4 -88.5t-14 -80.5h-663zM294 1492l176 -333q-15 -28 -45.5 -47t-58.5 -24l-263 306q31 40 80.5 69.5t110.5 28.5zM627 1493l155 -341q-15 -26 -47 -43.5t-62 -21.5l-241 320q33 38 83.5 63.5t111.5 22.5z
" />
    <glyph glyph-name="edieresis" unicode="&#xeb;" horiz-adv-x="999" 
d="M226 422v163h464v26q0 65 -18.5 119t-59 87t-107.5 33q-96 0 -142.5 -81t-46.5 -226v-70q0 -88 18 -160.5t65.5 -114.5t136.5 -42q75 0 144 21t131 52q28 -26 46 -67t23 -76q-72 -52 -173 -82t-206 -30q-121 0 -202 42.5t-128.5 115.5t-67.5 166t-20 194q0 149 46 267.5
t140 187.5t237 69q130 0 219.5 -56.5t135.5 -153t46 -215.5q0 -52 -4 -88.5t-14 -80.5h-663zM202 1234q0 19 3.5 42.5t11.5 41.5q19 12 48.5 18.5t55.5 6.5t55 -6.5t49 -18.5q8 -18 11.5 -41.5t3.5 -42.5t-3.5 -42.5t-11.5 -41.5q-20 -11 -49 -18t-55 -7t-55.5 7t-48.5 18
q-8 18 -11.5 41.5t-3.5 42.5zM580 1234q0 19 3.5 42.5t11.5 41.5q20 12 49 18.5t55 6.5t55.5 -6.5t47.5 -18.5q9 -18 12.5 -41.5t3.5 -42.5t-3.5 -42.5t-12.5 -41.5q-18 -11 -47.5 -18t-55.5 -7t-55 7t-49 18q-8 18 -11.5 41.5t-3.5 42.5z" />
    <glyph glyph-name="edotaccent" unicode="&#x117;" horiz-adv-x="999" 
d="M226 422v163h464v26q0 65 -18.5 119t-59 87t-107.5 33q-96 0 -142.5 -81t-46.5 -226v-70q0 -88 18 -160.5t65.5 -114.5t136.5 -42q75 0 144 21t131 52q28 -26 46 -67t23 -76q-72 -52 -173 -82t-206 -30q-121 0 -202 42.5t-128.5 115.5t-67.5 166t-20 194q0 149 46 267.5
t140 187.5t237 69q130 0 219.5 -56.5t135.5 -153t46 -215.5q0 -52 -4 -88.5t-14 -80.5h-663zM373 1259q0 23 5 49t14 46q20 11 53.5 18.5t64.5 7.5t66 -7.5t52 -18.5q9 -20 14 -46.5t5 -48.5t-5 -48.5t-14 -45.5q-16 -11 -51.5 -18.5t-66.5 -7.5t-65.5 7t-52.5 19
q-9 19 -14 45.5t-5 48.5z" />
    <glyph glyph-name="uni1EB9" unicode="&#x1eb9;" horiz-adv-x="999" 
d="M226 422v163h464v26q0 65 -18.5 119t-59 87t-107.5 33q-96 0 -142.5 -81t-46.5 -226v-70q0 -88 18 -160.5t65.5 -114.5t136.5 -42q75 0 144 21t131 52q28 -26 46 -67t23 -76q-72 -52 -173 -82t-206 -30q-121 0 -202 42.5t-128.5 115.5t-67.5 166t-20 194q0 149 46 267.5
t140 187.5t237 69q130 0 219.5 -56.5t135.5 -153t46 -215.5q0 -52 -4 -88.5t-14 -80.5h-663zM517 -361q-31 0 -64.5 7.5t-53.5 18.5q-9 20 -14 46t-5 48q0 24 5 49.5t14 46.5q18 11 52.5 18t65.5 7t66.5 -7t51.5 -18q9 -21 14 -46.5t5 -49.5q0 -22 -5 -48t-14 -46
q-17 -11 -52 -18.5t-66 -7.5z" />
    <glyph glyph-name="egrave" unicode="&#xe8;" horiz-adv-x="999" 
d="M226 422v163h464v26q0 65 -18.5 119t-59 87t-107.5 33q-96 0 -142.5 -81t-46.5 -226v-70q0 -88 18 -160.5t65.5 -114.5t136.5 -42q75 0 144 21t131 52q28 -26 46 -67t23 -76q-72 -52 -173 -82t-206 -30q-121 0 -202 42.5t-128.5 115.5t-67.5 166t-20 194q0 149 46 267.5
t140 187.5t237 69q130 0 219.5 -56.5t135.5 -153t46 -215.5q0 -52 -4 -88.5t-14 -80.5h-663zM393 1490q-47 -15 -92 -56.5t-61 -88.5l347 -268q30 9 57.5 34t40.5 57z" />
    <glyph glyph-name="uni1EBB" unicode="&#x1ebb;" horiz-adv-x="999" 
d="M226 422v163h464v26q0 65 -18.5 119t-59 87t-107.5 33q-96 0 -142.5 -81t-46.5 -226v-70q0 -88 18 -160.5t65.5 -114.5t136.5 -42q75 0 144 21t131 52q28 -26 46 -67t23 -76q-72 -52 -173 -82t-206 -30q-121 0 -202 42.5t-128.5 115.5t-67.5 166t-20 194q0 149 46 267.5
t140 187.5t237 69q130 0 219.5 -56.5t135.5 -153t46 -215.5q0 -52 -4 -88.5t-14 -80.5h-663zM422 1187q117 46 117 110q0 27 -21.5 45.5t-56.5 18.5q-25 0 -51.5 -8t-49.5 -20q-22 22 -33.5 53t-12.5 63q39 21 89.5 36t103.5 15q95 0 154 -49.5t59 -130.5q0 -84 -65 -145.5
t-171 -97.5q-26 17 -42 47t-20 63z" />
    <glyph glyph-name="uni0207" unicode="&#x207;" horiz-adv-x="999" 
d="M226 422v163h464v26q0 65 -18.5 119t-59 87t-107.5 33q-96 0 -142.5 -81t-46.5 -226v-70q0 -88 18 -160.5t65.5 -114.5t136.5 -42q75 0 144 21t131 52q28 -26 46 -67t23 -76q-72 -52 -173 -82t-206 -30q-121 0 -202 42.5t-128.5 115.5t-67.5 166t-20 194q0 149 46 267.5
t140 187.5t237 69q130 0 219.5 -56.5t135.5 -153t46 -215.5q0 -52 -4 -88.5t-14 -80.5h-663zM831 1155q-19 -25 -53.5 -38t-70.5 -13q-23 60 -75.5 93.5t-121.5 33.5t-121 -33.5t-77 -93.5q-35 0 -69.5 13t-53.5 38q28 113 114 184.5t207 71.5t207 -71.5t114 -184.5z" />
    <glyph glyph-name="emacron" unicode="&#x113;" horiz-adv-x="999" 
d="M226 422v163h464v26q0 65 -18.5 119t-59 87t-107.5 33q-96 0 -142.5 -81t-46.5 -226v-70q0 -88 18 -160.5t65.5 -114.5t136.5 -42q75 0 144 21t131 52q28 -26 46 -67t23 -76q-72 -52 -173 -82t-206 -30q-121 0 -202 42.5t-128.5 115.5t-67.5 166t-20 194q0 149 46 267.5
t140 187.5t237 69q130 0 219.5 -56.5t135.5 -153t46 -215.5q0 -52 -4 -88.5t-14 -80.5h-663zM225 1149q-7 22 -9.5 42t-2.5 46q0 25 2.5 46t9.5 44h571q6 -23 8.5 -42t2.5 -47q0 -26 -2.5 -46.5t-8.5 -42.5h-571z" />
    <glyph glyph-name="uni1E17" unicode="&#x1e17;" horiz-adv-x="999" 
d="M226 422v163h464v26q0 65 -18.5 119t-59 87t-107.5 33q-96 0 -142.5 -81t-46.5 -226v-70q0 -88 18 -160.5t65.5 -114.5t136.5 -42q75 0 144 21t131 52q28 -26 46 -67t23 -76q-72 -52 -173 -82t-206 -30q-121 0 -202 42.5t-128.5 115.5t-67.5 166t-20 194q0 149 46 267.5
t140 187.5t237 69q130 0 219.5 -56.5t135.5 -153t46 -215.5q0 -52 -4 -88.5t-14 -80.5h-663zM225 1149q-7 22 -9.5 42t-2.5 46q0 25 2.5 46t9.5 44h571q6 -23 8.5 -42t2.5 -47q0 -26 -2.5 -46.5t-8.5 -42.5h-571zM645 1825q48 -15 92.5 -56.5t61.5 -88.5l-348 -268
q-30 9 -57.5 34t-40.5 57z" />
    <glyph glyph-name="uni1E15" unicode="&#x1e15;" horiz-adv-x="999" 
d="M226 422v163h464v26q0 65 -18.5 119t-59 87t-107.5 33q-96 0 -142.5 -81t-46.5 -226v-70q0 -88 18 -160.5t65.5 -114.5t136.5 -42q75 0 144 21t131 52q28 -26 46 -67t23 -76q-72 -52 -173 -82t-206 -30q-121 0 -202 42.5t-128.5 115.5t-67.5 166t-20 194q0 149 46 267.5
t140 187.5t237 69q130 0 219.5 -56.5t135.5 -153t46 -215.5q0 -52 -4 -88.5t-14 -80.5h-663zM225 1149q-7 22 -9.5 42t-2.5 46q0 25 2.5 46t9.5 44h571q6 -23 8.5 -42t2.5 -47q0 -26 -2.5 -46.5t-8.5 -42.5h-571zM393 1825q-47 -15 -92 -56.5t-61 -88.5l347 -268
q30 9 57.5 34t40.5 57z" />
    <glyph glyph-name="eogonek" unicode="&#x119;" horiz-adv-x="999" 
d="M816 -254q20 -16 35 -44.5t16 -63.5q-36 -31 -94.5 -52t-121.5 -21q-96 0 -158.5 50.5t-62.5 139.5q0 63 32 119t89 105.5t133 87.5l196 19q-29 -22 -56 -38.5t-60 -35.5q-156 -91 -156 -207q0 -45 26.5 -67.5t67.5 -22.5q32 0 62 10t52 21zM226 422v163h464v26
q0 65 -18.5 119t-59 87t-107.5 33q-96 0 -142.5 -81t-46.5 -226v-70q0 -88 18 -160.5t65.5 -114.5t136.5 -42q75 0 144 21t131 52q28 -26 46 -67t23 -76q-76 -43 -175 -77.5t-204 -34.5q-121 0 -202 42.5t-128.5 115.5t-67.5 166t-20 194q0 149 46 267.5t140 187.5t237 69
q130 0 219.5 -56.5t135.5 -153t46 -215.5q0 -52 -4 -88.5t-14 -80.5h-663z" />
    </font>
</defs>
</svg>
