<?xml version="1.0" standalone="no"?>
<!DOCTYPE svg PUBLIC "-//W3C//DTD SVG 1.1//EN" "http://www.w3.org/Graphics/SVG/1.1/DTD/svg11.dtd" >
<svg xmlns="http://www.w3.org/2000/svg" xmlns:xlink="http://www.w3.org/1999/xlink" version="1.1">
<metadata>
Created by FontForge 20230101 at Sat Sep 30 05:29:59 2023
 By Glenn Lewis
Copyright 2022 The Noto Project Authors (https://github.com/notofonts/latin-greek-cyrillic)
</metadata>
<defs>
<font id="NotoSansCondensed-ExtraLightItalic" horiz-adv-x="0" >
  <font-face 
    font-family="Noto Sans Condensed ExtraLight"
    font-weight="250"
    font-style="italic"
    font-stretch="condensed"
    units-per-em="1000"
    panose-1="2 11 5 2 4 5 4 9 2 4"
    ascent="800"
    descent="-200"
    x-height="529"
    cap-height="714"
    bbox="-596 -394 2531 1064"
    underline-thickness="50"
    underline-position="-125"
    slope="-12"
    unicode-range="U+000D-1DF1E"
  />
<missing-glyph horiz-adv-x="555" 
d="M85 0v714h378v-714h-378zM130 46h288v622h-288v-622z" />
    <glyph glyph-name="f_f" unicode="ff" horiz-adv-x="430" 
d="M-82 -240q-14 0 -26.5 2t-20.5 5v35q10 -4 21 -6t24 -2q37 0 55 29.5t28 79.5l127 592h-70l5 25l72 9l20 91q8 36 18.5 63.5t26 45.5t36.5 27t49 9q17 0 33.5 -4t26.5 -8l-13 -32q-10 5 -22.5 7.5t-25.5 2.5q-41 0 -61 -29.5t-33 -87.5l-18 -85h175l19 91q9 36 19.5 63.5
t25.5 45.5t36 27t50 9q17 0 33.5 -4t26.5 -8l-13 -32q-10 5 -23 7.5t-25 2.5q-41 0 -61.5 -29.5t-32.5 -87.5l-19 -85h85l-7 -34h-84l-128 -596q-8 -40 -22 -72t-36.5 -49.5t-58.5 -17.5q-14 0 -26.5 2t-20.5 5v35q10 -4 21 -6t24 -2q37 0 55 29.5t28 79.5l126 592h-174
l-127 -596q-9 -40 -23 -72t-36.5 -49.5t-58.5 -17.5z" />
    <glyph glyph-name="f_f_i" unicode="ffi" horiz-adv-x="603" 
d="M-82 -240q-14 0 -26.5 2t-20.5 5v35q10 -4 21 -6t24 -2q37 0 55 29.5t28 79.5l127 592h-70l5 25l72 9l20 91q8 36 18.5 63.5t26 45.5t36.5 27t49 9q17 0 33.5 -4t26.5 -8l-13 -32q-10 5 -22.5 7.5t-25.5 2.5q-41 0 -61 -29.5t-33 -87.5l-18 -85h175l19 91q9 36 19.5 63.5
t25.5 45.5t36 27t50 9q17 0 33.5 -4t26.5 -8l-13 -32q-10 5 -23 7.5t-25 2.5q-41 0 -61.5 -29.5t-32.5 -87.5l-19 -85h85l-7 -34h-84l-128 -596q-8 -40 -22 -72t-36.5 -49.5t-58.5 -17.5q-14 0 -26.5 2t-20.5 5v35q10 -4 21 -6t24 -2q37 0 55 29.5t28 79.5l126 592h-174
l-127 -596q-9 -40 -23 -72t-36.5 -49.5t-58.5 -17.5zM437 0l112 529h38l-113 -529h-37zM595 643q-10 0 -16.5 7.5t-6.5 19.5t3.5 23t11.5 18.5t20 7.5q11 0 17 -7t6 -20q0 -17 -9 -33t-26 -16z" />
    <glyph glyph-name="f_f_l" unicode="ffl" horiz-adv-x="602" 
d="M-82 -240q-14 0 -26.5 2t-20.5 5v35q10 -4 21 -6t24 -2q37 0 55 29.5t28 79.5l127 592h-70l5 25l72 9l20 91q8 36 18.5 63.5t26 45.5t36.5 27t49 9q17 0 33.5 -4t26.5 -8l-13 -32q-10 5 -22.5 7.5t-25.5 2.5q-41 0 -61 -29.5t-33 -87.5l-18 -85h175l19 91q9 36 19.5 63.5
t25.5 45.5t36 27t50 9q17 0 33.5 -4t26.5 -8l-13 -32q-10 5 -23 7.5t-25 2.5q-41 0 -61.5 -29.5t-32.5 -87.5l-19 -85h85l-7 -34h-84l-128 -596q-8 -40 -22 -72t-36.5 -49.5t-58.5 -17.5q-14 0 -26.5 2t-20.5 5v35q10 -4 21 -6t24 -2q37 0 55 29.5t28 79.5l126 592h-174
l-127 -596q-9 -40 -23 -72t-36.5 -49.5t-58.5 -17.5zM439 0l162 760h37l-163 -760h-36z" />
    <glyph glyph-name="fi" unicode="fi" horiz-adv-x="391" 
d="M-82 -240q-14 0 -26.5 2t-20.5 5v35q10 -4 21 -6t24 -2q37 0 55 29.5t28 79.5l127 592h-70l5 25l72 9l20 91q8 36 18.5 63.5t26 45.5t36.5 27t49 9q17 0 33.5 -4t26.5 -8l-13 -32q-10 5 -22.5 7.5t-25.5 2.5q-41 0 -61 -29.5t-33 -87.5l-18 -85h84l-6 -34h-85l-127 -596
q-9 -40 -23 -72t-36.5 -49.5t-58.5 -17.5zM226 0l112 529h37l-112 -529h-37zM384 643q-11 0 -17.5 7.5t-6.5 19.5t4 23t12 18.5t19 7.5q12 0 18 -7t6 -20q0 -17 -9 -33t-26 -16z" />
    <glyph glyph-name="fl" unicode="fl" horiz-adv-x="392" 
d="M-82 -240q-14 0 -26.5 2t-20.5 5v35q10 -4 21 -6t24 -2q37 0 55 29.5t28 79.5l127 592h-70l5 25l72 9l20 91q8 36 18.5 63.5t26 45.5t36.5 27t49 9q17 0 33.5 -4t26.5 -8l-13 -32q-10 5 -22.5 7.5t-25.5 2.5q-41 0 -61 -29.5t-33 -87.5l-18 -85h84l-6 -34h-85l-127 -596
q-9 -40 -23 -72t-36.5 -49.5t-58.5 -17.5zM225 0l162 760h37l-162 -760h-37z" />
    <glyph glyph-name=".notdef" horiz-adv-x="555" 
d="M85 0v714h378v-714h-378zM130 46h288v622h-288v-622z" />
    <glyph glyph-name="NULL" 
 />
    <glyph glyph-name="CR" unicode="&#xd;" horiz-adv-x="196" 
 />
    <glyph glyph-name="space" unicode=" " horiz-adv-x="196" 
 />
    <glyph glyph-name="exclam" unicode="!" horiz-adv-x="212" 
d="M64 175l114 539h42l-123 -539h-33zM43 -4q-11 0 -17.5 7.5t-6.5 20.5q0 17 9 34t28 17q11 0 17.5 -8t6.5 -21q0 -17 -9.5 -33.5t-27.5 -16.5z" />
    <glyph glyph-name="quotedbl" unicode="&#x22;" horiz-adv-x="289" 
d="M229 456l48 258h41l-62 -258h-27zM100 456l48 258h41l-62 -258h-27z" />
    <glyph glyph-name="numbersign" unicode="#" horiz-adv-x="450" 
d="M33 0l69 229h-90l2 33h98l63 208h-95l2 32h103l64 212h34l-64 -212h125l64 212h33l-64 -212h89l-3 -32h-96l-62 -208h93l-2 -33h-101l-70 -229h-33l70 229h-126l-69 -229h-34zM146 262h125l63 208h-125z" />
    <glyph glyph-name="dollar" unicode="$" horiz-adv-x="411" 
d="M136 43q-42 1 -74.5 9.5t-52.5 17.5l1 38q23 -13 56.5 -21.5t77.5 -10.5l58 275q-29 22 -52.5 44t-37.5 49.5t-14 65.5q0 54 22 89.5t61 55t90 21.5l17 83h29l-18 -83q38 -2 67 -11.5t49 -20.5l-16 -32q-21 12 -47 20.5t-60 10.5l-58 -272q31 -23 55.5 -46t38 -49
t13.5 -60q0 -53 -22.5 -90.5t-61.5 -58t-92 -24.5l-22 -101h-29zM173 78q41 3 70.5 19.5t45.5 45.5t16 70q0 26 -9.5 45t-27 36.5t-42.5 36.5zM264 643q-40 -3 -69 -18.5t-45 -43.5t-16 -68q0 -28 9.5 -49t26.5 -38.5t40 -35.5z" />
    <glyph glyph-name="percent" unicode="%" horiz-adv-x="608" 
d="M90 0l408 714h35l-406 -714h-37zM136 276q-36 0 -57 27t-21 88q0 35 6.5 79.5t19 89t32 82t46 60t61.5 22.5q37 0 56.5 -26t19.5 -83q0 -32 -5.5 -76t-18 -90t-32 -85t-46 -63.5t-61.5 -24.5zM139 308q26 0 46 23.5t35 59.5t25 77.5t15 80.5t5 64q0 43 -11.5 61t-34.5 18
q-24 0 -44 -21t-35.5 -55.5t-25.5 -74.5t-16 -79t-6 -68q0 -48 13 -67t34 -19zM401 -12q-36 0 -56.5 27t-20.5 88q0 36 6 80.5t19 89t32 81.5t45.5 59.5t61.5 22.5q37 0 57 -26t20 -82q0 -33 -6 -77t-18.5 -89.5t-32 -85t-46 -64t-61.5 -24.5zM405 21q25 0 45 23t35 59.5
t25 78t15.5 80t5.5 64.5q0 43 -12 60.5t-35 17.5q-24 0 -44 -21t-35.5 -55.5t-25.5 -74.5t-15.5 -79t-5.5 -68q0 -47 12.5 -66t34.5 -19z" />
    <glyph glyph-name="ampersand" unicode="&#x26;" horiz-adv-x="445" 
d="M130 -10q-56 0 -90 35t-34 99q0 59 21 105.5t58.5 85.5t88.5 75q-15 36 -24 73.5t-9 74.5q0 54 16 96t46.5 66t72.5 24q27 0 47.5 -12t32.5 -35t12 -54q0 -53 -19.5 -95.5t-52.5 -78.5t-76 -68l90 -226q21 32 40.5 73t33.5 86h36q-10 -34 -24.5 -68t-32 -67t-37.5 -63
l47 -116h-39l-36 87q-31 -38 -69.5 -67.5t-98.5 -29.5zM135 24q35 0 61 13.5t47.5 35t40.5 47.5l-96 240q-44 -33 -76.5 -67t-50 -74t-17.5 -90q0 -33 11.5 -57t32.5 -36t47 -12zM207 412q23 18 45 40t39.5 48t28 56t10.5 64q0 33 -16 52t-43 19q-28 0 -49 -20.5
t-32.5 -54.5t-11.5 -75q0 -36 7.5 -67.5t21.5 -61.5z" />
    <glyph glyph-name="quotesingle" unicode="'" horiz-adv-x="161" 
d="M101 456l48 258h41l-63 -258h-26z" />
    <glyph glyph-name="parenleft" unicode="(" horiz-adv-x="246" 
d="M89 -158q-19 37 -33 83.5t-21.5 98t-7.5 102.5q0 87 16.5 166.5t48.5 152.5t77 140t102 127h36q-58 -65 -103 -134t-76.5 -141.5t-47.5 -150t-16 -161.5q0 -51 7 -101.5t20 -96.5t32 -85h-34z" />
    <glyph glyph-name="parenright" unicode=")" horiz-adv-x="247" 
d="M-69 -158q59 66 104 135t76 141.5t47 150t16 160.5q0 52 -6.5 102.5t-19.5 96.5t-32 84h34q19 -37 32.5 -83.5t21 -97t7.5 -102.5q0 -88 -16.5 -167.5t-48 -153t-76.5 -139.5t-103 -127h-36z" />
    <glyph glyph-name="asterisk" unicode="*" horiz-adv-x="389" 
d="M323 434l-61 138l-110 -108l-23 24l118 100l-129 65l14 30l124 -75l22 150l35 -6l-34 -148l141 27l2 -33l-140 -15l72 -135z" />
    <glyph glyph-name="plus" unicode="+" horiz-adv-x="455" 
d="M252 368h173v-33h-173v-213h-34v213h-174v33h174v216h34v-216z" />
    <glyph glyph-name="comma" unicode="," horiz-adv-x="175" 
d="M-42 -128q19 35 37 75t33.5 80t24.5 74h38l3 -11q-12 -32 -29.5 -71.5t-37.5 -77.5t-40 -69h-29z" />
    <glyph glyph-name="hyphen" unicode="-" horiz-adv-x="277" 
d="M26 253l5 36h217l-5 -36h-217z" />
    <glyph glyph-name="period" unicode="." horiz-adv-x="180" 
d="M44 -4q-11 0 -18 7t-7 20q0 18 9.5 35t28.5 17q11 0 17.5 -8t6.5 -21q0 -17 -9.5 -33.5t-27.5 -16.5z" />
    <glyph glyph-name="slash" unicode="/" horiz-adv-x="305" 
d="M-45 1l386 712h37l-386 -712h-37z" />
    <glyph glyph-name="zero" unicode="0" horiz-adv-x="412" 
d="M152 -10q-54 0 -86.5 45t-32.5 139q0 43 7 100t20.5 119t34 120.5t49 106.5t64.5 76t80 28q29 0 50.5 -10.5t36 -32t22 -53t7.5 -73.5q0 -50 -7 -111t-21 -124.5t-35 -122.5t-49 -105.5t-63 -74t-77 -27.5zM154 25q34 0 63 26.5t52.5 72t41.5 101.5t30.5 115.5t18.5 115
t6 98.5q0 69 -19.5 102t-61.5 33q-34 0 -63.5 -26.5t-53.5 -71.5t-42 -100t-30.5 -113t-18.5 -111.5t-6 -92.5q0 -81 22 -115t61 -34z" />
    <glyph glyph-name="one" unicode="1" horiz-adv-x="412" 
d="M264 571q4 18 7.5 34t7.5 32l8 32l-18 -16t-23 -18l-99 -75l-20 26l168 128h37l-151 -714h-38z" />
    <glyph glyph-name="two" unicode="2" horiz-adv-x="412" 
d="M-22 0l6 32l195 218q38 43 70.5 83t58.5 80t40 82t14 88q0 51 -27 78.5t-74 27.5q-22 0 -42.5 -5.5t-38.5 -15.5t-36 -24l-19 29q28 23 63.5 37t77.5 14q40 0 70.5 -17t47.5 -48t17 -73q0 -63 -25 -120.5t-68 -113.5t-97 -116l-180 -199v-2h272l-7 -35h-318z" />
    <glyph glyph-name="three" unicode="3" horiz-adv-x="412" 
d="M122 -11q-41 0 -74.5 8.5t-56.5 21.5v40q24 -15 57.5 -25t72.5 -10q46 0 80.5 16.5t56.5 44t33.5 62.5t11.5 71q0 49 -16.5 78.5t-45.5 43t-70 13.5h-41l7 34h42q43 0 77.5 15.5t59.5 42.5t39 62t14 75q0 49 -26 78.5t-77 29.5q-40 0 -72.5 -15t-60.5 -37l-19 30
q30 23 68.5 39.5t87.5 16.5q44 0 74.5 -18t46.5 -49t16 -73q0 -53 -21 -98t-57 -75.5t-82 -39.5l-1 -2q43 -12 69 -48t26 -101q0 -44 -13.5 -85t-41 -74t-68.5 -52.5t-96 -19.5z" />
    <glyph glyph-name="four" unicode="4" horiz-adv-x="412" 
d="M214 0l37 172h-261l6 29l359 520h49l-109 -514h85l-8 -35h-84l-37 -172h-37zM39 207h219l74 343q6 25 10.5 47.5t9.5 42.5t9 40h-2q-10 -18 -18.5 -31.5t-17.5 -27t-21 -30.5z" />
    <glyph glyph-name="five" unicode="5" horiz-adv-x="412" 
d="M116 -10q-26 0 -49 4.5t-41.5 11t-30.5 13.5v41q20 -14 52 -25t70 -11q49 0 85.5 18.5t61.5 50t38 72.5t13 87q0 69 -32 105t-95 36q-27 0 -49 -5t-44 -12l-18 22l90 316h246l-8 -35h-212l-75 -264q14 4 33.5 8t45.5 4q49 0 84 -21t54 -59t19 -91t-15.5 -100.5t-45.5 -85
t-74.5 -59t-102.5 -21.5z" />
    <glyph glyph-name="six" unicode="6" horiz-adv-x="412" 
d="M169 -10q-43 0 -73 21.5t-45 62t-15 97.5q0 56 8.5 115t24 115.5t36.5 107t47 89.5q22 35 51.5 63.5t66.5 45.5t81 17q23 0 42 -3t32 -8l-10 -35q-13 5 -29.5 8.5t-35.5 3.5q-58 0 -106.5 -35.5t-86.5 -110.5t-66 -195h4q16 26 38 46.5t50 32t62 11.5q57 0 90.5 -40.5
t33.5 -110.5q0 -52 -13 -104.5t-38.5 -96.5t-63 -70.5t-85.5 -26.5zM171 25q40 0 70.5 25.5t50.5 65t29.5 84.5t9.5 84q0 59 -25 90t-68 31q-38 0 -69 -17.5t-52 -46.5t-30 -62q-4 -13 -7 -29.5t-4.5 -36.5t-1.5 -44q0 -33 5.5 -59.5t17 -45.5t30 -29t44.5 -10z" />
    <glyph glyph-name="seven" unicode="7" horiz-adv-x="412" 
d="M57 0l340 679h-294l7 35h332l-3 -31l-340 -683h-42z" />
    <glyph glyph-name="eight" unicode="8" horiz-adv-x="412" 
d="M163 -10q-47 0 -82.5 19.5t-55 55t-19.5 80.5q0 60 23 103t64.5 74t96.5 56q-23 23 -41.5 48t-29 55t-10.5 65q0 52 21 92.5t59.5 63t89.5 22.5q41 0 71 -17.5t47 -47.5t17 -70q0 -50 -20 -90t-57 -71.5t-87 -55.5q29 -25 52 -53t36 -61t13 -76q0 -54 -23 -97t-65.5 -69
t-99.5 -26zM163 24q46 0 79.5 20t52 55.5t18.5 81.5q0 40 -12.5 70t-34.5 55.5t-51 49.5q-48 -22 -87 -49t-61.5 -65t-22.5 -94t33.5 -90t85.5 -34zM225 394q48 22 82 50t51.5 63t17.5 78q0 50 -28 77.5t-72 27.5q-37 0 -66.5 -16.5t-46.5 -48.5t-17 -78q0 -50 21.5 -86
t57.5 -67z" />
    <glyph glyph-name="nine" unicode="9" horiz-adv-x="412" 
d="M93 -10q-25 0 -45.5 4t-36.5 9v37q14 -6 36 -10.5t46 -4.5q42 0 79 19.5t68 61t57.5 105.5t46.5 152h-2q-16 -25 -38 -45t-50 -31.5t-62 -11.5q-39 0 -67 18.5t-43 52.5t-15 80q0 51 13 103.5t38.5 96.5t63 71t86.5 27q42 0 71.5 -21t45 -61t15.5 -98q0 -55 -8.5 -114
t-23.5 -115.5t-35.5 -106.5t-45.5 -88q-16 -26 -36 -50t-44 -42t-52.5 -28t-61.5 -10zM198 309q38 0 67.5 16.5t50 44.5t30.5 60q9 22 12.5 49t3.5 65q0 46 -10.5 78.5t-31 49.5t-54.5 17q-40 0 -70.5 -25t-50.5 -64.5t-30 -84.5t-10 -85q0 -58 25 -89.5t68 -31.5z" />
    <glyph glyph-name="colon" unicode=":" horiz-adv-x="180" 
d="M132 454q-11 0 -18 7t-7 20t4 24.5t12.5 19.5t20.5 8t18 -8t6 -21q0 -17 -9 -33.5t-27 -16.5zM35 -4q-11 0 -18 7t-7 20q0 18 9.5 35t28.5 17q11 0 17.5 -8t6.5 -21q0 -17 -9.5 -33.5t-27.5 -16.5z" />
    <glyph glyph-name="semicolon" unicode=";" horiz-adv-x="182" 
d="M-46 -128q19 36 37 76t33 79.5t25 73.5h37l3 -11q-11 -32 -28.5 -71.5t-37.5 -77.5t-40 -69h-29zM136 454q-12 0 -18.5 7t-6.5 20t4 24.5t12.5 19.5t20.5 8t18 -8t6 -21q0 -17 -9.5 -33.5t-26.5 -16.5z" />
    <glyph glyph-name="less" unicode="&#x3c;" horiz-adv-x="455" 
d="M425 141l-381 208v27l381 195v-38l-337 -170l337 -184v-38z" />
    <glyph glyph-name="equal" unicode="=" horiz-adv-x="455" 
d="M44 441v34h380v-34h-380zM44 230v34h380v-34h-380z" />
    <glyph glyph-name="greater" unicode="&#x3e;" horiz-adv-x="455" 
d="M44 179l339 183l-339 171v38l381 -195v-27l-381 -208v38z" />
    <glyph glyph-name="question" unicode="?" horiz-adv-x="298" 
d="M69 175q10 52 23 87.5t35 66t54 65.5q34 37 59 66.5t40 62t15 75.5t-24 67t-65 24q-27 0 -51 -8t-46 -21l-14 30q28 17 57 25.5t59 8.5q57 0 89.5 -33t32.5 -89q0 -46 -16 -82.5t-43.5 -70t-63.5 -71.5q-33 -34 -53.5 -62t-33 -60.5t-21.5 -80.5h-33zM58 -4q-11 0 -18 7
t-7 20q0 18 9.5 35t28.5 17q11 0 17.5 -8t6.5 -21q0 -17 -9.5 -33.5t-27.5 -16.5z" />
    <glyph glyph-name="at" unicode="@" horiz-adv-x="618" 
d="M241 -89q-48 0 -86.5 17t-65.5 49.5t-41 80.5t-14 110q0 75 15.5 152.5t45.5 148.5t75 126.5t103 87.5t130 32q64 0 107.5 -28t66 -81t22.5 -130q0 -45 -8 -95.5t-23.5 -98t-36.5 -86t-48 -61t-58 -22.5q-36 0 -49.5 24t-13.5 67l-2 -2q-16 -40 -42.5 -65.5t-61.5 -25.5
q-34 0 -55 26t-21 80q0 36 8.5 77t25.5 80t41 70.5t54.5 50t65.5 18.5q23 0 45 -4.5t39 -11.5l-49 -190q-10 -39 -15 -65.5t-5 -41.5q0 -27 8.5 -41.5t29.5 -14.5q23 0 43 20.5t37 55.5t30 78t20 88.5t7 87.5q0 70 -18.5 116.5t-55.5 69.5t-91 23q-64 0 -116.5 -30
t-92.5 -81.5t-67 -118t-41.5 -139.5t-14.5 -144t21 -122.5t60 -78.5t95 -27q34 0 66.5 8t57.5 19v-32q-26 -11 -57.5 -18.5t-69.5 -7.5zM263 143q34 0 63.5 45.5t52.5 135.5l40 151q-9 3 -21 5t-27 2q-35 0 -63 -25.5t-49.5 -65.5t-33 -85.5t-11.5 -85.5t13 -58.5t36 -18.5z
" />
    <glyph glyph-name="A" unicode="A" horiz-adv-x="404" 
d="M-63 0l330 717h45l30 -717h-38l-11 269h-191l-123 -269h-42zM117 304h175l-9 282l-2 44t0 39h-3q-6 -17 -15 -38t-20 -46z" />
    <glyph glyph-name="B" unicode="B" horiz-adv-x="449" 
d="M17 0l150 714h125q53 0 87 -16.5t51.5 -47t17.5 -72.5q0 -48 -16.5 -91t-50 -72.5t-82.5 -40.5l-1 -2q44 -10 69 -45t25 -91q0 -69 -27 -122.5t-79.5 -83.5t-128.5 -30h-140zM161 35q65 0 107.5 27t63.5 72t21 101q0 66 -36 94.5t-97 28.5h-90l-68 -323h99zM229 392
q61 0 100.5 25t59 66.5t19.5 90.5q0 52 -30 78.5t-93 26.5h-87l-61 -287h92z" />
    <glyph glyph-name="C" unicode="C" horiz-adv-x="421" 
d="M228 -10q-58 0 -97.5 27.5t-60 82t-20.5 136.5q0 61 13.5 128.5t40 131.5t65.5 115.5t90.5 82.5t116.5 31q35 0 62.5 -8t48.5 -23l-20 -32q-18 14 -41.5 21t-51.5 7q-54 0 -99 -29t-80 -76.5t-58.5 -106.5t-35.5 -121.5t-12 -118.5q0 -108 37 -160.5t107 -52.5
q27 0 52.5 5.5t52.5 15.5v-36q-26 -9 -53 -14.5t-57 -5.5z" />
    <glyph glyph-name="D" unicode="D" horiz-adv-x="498" 
d="M16 0l151 714h104q96 0 149.5 -55.5t53.5 -175.5q0 -61 -12.5 -128t-38.5 -130t-67 -114t-98.5 -81t-133.5 -30h-108zM126 35q65 0 115 27.5t86.5 74.5t60 105.5t35 120.5t11.5 120q0 106 -44 151t-127 45h-65l-137 -644h65z" />
    <glyph glyph-name="E" unicode="E" horiz-adv-x="400" 
d="M16 0l151 714h270l-7 -35h-232l-61 -286h218l-8 -35h-218l-69 -323h233l-7 -35h-270z" />
    <glyph glyph-name="F" unicode="F" horiz-adv-x="369" 
d="M16 0l151 714h271l-7 -35h-233l-68 -320h219l-8 -35h-219l-69 -324h-37z" />
    <glyph glyph-name="G" unicode="G" horiz-adv-x="528" 
d="M252 -10q-99 0 -150.5 61.5t-51.5 178.5q0 79 15 152.5t44.5 135.5t70.5 108.5t92.5 72.5t112.5 26q48 0 85 -12t67 -31l-20 -32q-29 18 -61.5 29t-71.5 11q-67 0 -121 -38t-93.5 -102.5t-60 -146t-20.5 -170.5q0 -71 19.5 -117.5t57 -68.5t90.5 -22q33 0 63 6t56 15
l58 276h-124l8 35h162l-72 -337q-35 -14 -73.5 -22t-81.5 -8z" />
    <glyph glyph-name="H" unicode="H" horiz-adv-x="518" 
d="M16 0l151 714h38l-68 -321h286l68 321h37l-151 -714h-38l76 357h-286l-76 -357h-37z" />
    <glyph glyph-name="I" unicode="I" horiz-adv-x="215" 
d="M-39 0l5 25l66 6l138 652l-62 6l5 25h165l-6 -25l-65 -6l-138 -652l62 -6l-5 -25h-165z" />
    <glyph glyph-name="J" unicode="J" horiz-adv-x="186" 
d="M-89 -176q-18 0 -34 3.5t-27 8.5l7 34q12 -5 26.5 -8t28.5 -3q29 0 47.5 13t31.5 40.5t22 69.5l155 732h38l-157 -740q-10 -51 -28 -84.5t-45 -49.5t-65 -16z" />
    <glyph glyph-name="K" unicode="K" horiz-adv-x="415" 
d="M16 0l151 714h38l-82 -386l64 82l260 304h45l-263 -313l122 -401h-42l-110 372l-86 -89l-60 -283h-37z" />
    <glyph glyph-name="L" unicode="L" horiz-adv-x="363" 
d="M16 0l151 714h38l-145 -679h226l-7 -35h-263z" />
    <glyph glyph-name="M" unicode="M" horiz-adv-x="663" 
d="M16 0l151 714h54l56 -658h3l334 658h59l-151 -714h-38l119 559q3 15 6.5 29.5t7.5 31t8 34.5h-2l-334 -654h-43l-55 654h-2q-3 -19 -6 -34.5t-6 -30.5t-6 -31l-119 -558h-36z" />
    <glyph glyph-name="N" unicode="N" horiz-adv-x="534" 
d="M16 0l151 714h42l162 -640h2l10 52t10 50t9 42l105 496h37l-151 -714h-42l-161 646h-2q-3 -16 -6 -33t-6.5 -35.5t-7.5 -37.5t-9 -39l-106 -501h-37z" />
    <glyph glyph-name="O" unicode="O" horiz-adv-x="533" 
d="M217 -10q-58 0 -95 26.5t-55.5 76.5t-18.5 121q0 51 8 108t24 114t40 108.5t57 92t74.5 64t91.5 23.5q79 0 122.5 -51.5t43.5 -162.5q0 -45 -7 -100.5t-21.5 -114t-37 -113t-55.5 -98t-75 -69t-96 -25.5zM220 25q44 0 79.5 24t63.5 64.5t48 91t33 105t19.5 106t6.5 93.5
q0 91 -32 135.5t-98 44.5q-44 0 -80 -23.5t-64 -63t-48.5 -89.5t-33.5 -103.5t-19.5 -103.5t-6.5 -90q0 -63 14 -105.5t43.5 -64t74.5 -21.5z" />
    <glyph glyph-name="P" unicode="P" horiz-adv-x="422" 
d="M16 0l151 714h99q56 0 92.5 -18.5t55 -53.5t18.5 -85q0 -56 -16 -103t-46.5 -81.5t-76 -53.5t-105.5 -19h-71l-63 -300h-38zM189 335q70 0 115.5 28.5t67 78.5t21.5 113q0 60 -32 92t-101 32h-62l-73 -344h64z" />
    <glyph glyph-name="Q" unicode="Q" horiz-adv-x="533" 
d="M230 -9q-3 0 -8 -0.5t-10 -0.5q-55 1 -91.5 27t-54.5 76t-18 121q0 51 8 108t24 114t40 108.5t57 92t74.5 64t91.5 23.5q79 0 122.5 -51.5t43.5 -162.5q0 -49 -8.5 -110.5t-26 -125.5t-45.5 -121t-67.5 -98t-92.5 -57l70 -168l-43 -1zM220 25q44 0 79.5 24t63.5 64.5
t48 91t33 105t19.5 106t6.5 93.5q0 91 -32 135.5t-98 44.5q-44 0 -80 -23.5t-64 -63t-48.5 -89.5t-33.5 -103.5t-19.5 -103.5t-6.5 -90q0 -63 14 -105.5t43.5 -64t74.5 -21.5z" />
    <glyph glyph-name="R" unicode="R" horiz-adv-x="428" 
d="M16 0l151 714h102q76 0 119 -38.5t43 -114.5q0 -60 -19 -109.5t-55.5 -83.5t-91.5 -45l76 -323h-41l-72 316h-107l-67 -316h-38zM215 350q45 0 78 17t55 46.5t33 66.5t11 77q0 64 -33 93t-99 29h-62l-70 -329h87z" />
    <glyph glyph-name="S" unicode="S" horiz-adv-x="394" 
d="M125 -10q-46 0 -80.5 8.5t-58.5 20.5l2 41q27 -15 61 -25t77 -10q34 0 64 10.5t53 30.5t35.5 50t12.5 70q0 33 -11.5 59.5t-34 51t-56.5 54.5q-28 26 -51 52t-36.5 57.5t-13.5 73.5q0 48 15.5 83.5t42.5 59t62 35.5t75 12q43 0 77 -10t57 -24l-18 -34q-24 14 -52.5 23.5
t-65.5 9.5q-31 0 -58.5 -9.5t-49 -28t-34 -47t-12.5 -67.5q0 -36 12 -63t33.5 -51t51.5 -52q31 -26 55 -53t37.5 -58.5t13.5 -71.5q0 -49 -15.5 -85.5t-43.5 -61.5t-65.5 -38t-80.5 -13z" />
    <glyph glyph-name="T" unicode="T" horiz-adv-x="359" 
d="M96 0l144 679h-154l8 35h346l-7 -35h-155l-144 -679h-38z" />
    <glyph glyph-name="U" unicode="U" horiz-adv-x="510" 
d="M201 -10q-46 0 -80.5 17t-53.5 51t-19 83q0 18 2.5 40t7.5 45l104 488h38l-104 -488q-5 -23 -7 -44.5t-2 -38.5q0 -58 31.5 -88t84.5 -30q52 0 86.5 24t57 71t37.5 116l104 478h38l-105 -482q-16 -76 -43.5 -130.5t-70 -83t-106.5 -28.5z" />
    <glyph glyph-name="V" unicode="V" horiz-adv-x="411" 
d="M117 0l-27 714h38l18 -557q0 -19 1 -37t1 -35.5t-1 -35.5h2q9 25 21.5 53.5t27.5 60.5l251 551h41l-329 -714h-44z" />
    <glyph glyph-name="W" unicode="W" horiz-adv-x="676" 
d="M98 0l-2 714h36l1 -540q0 -36 -1 -65.5t-2 -52.5h3q11 32 23.5 63.5t25.5 60.5l223 534h37l-3 -521q0 -25 -0.5 -48.5t-1 -46.5t-1.5 -46h2l16 44t18 46.5t22 53.5l214 518h40l-298 -714h-46l3 544q0 17 0.5 33t1 31.5t0.5 32.5h-2q-8 -22 -15.5 -43.5t-16.5 -42.5
l-232 -555h-45z" />
    <glyph glyph-name="X" unicode="X" horiz-adv-x="371" 
d="M-58 0l242 377l-68 337h38l59 -305l189 305h41l-216 -344l71 -370h-39l-61 336l-215 -336h-41z" />
    <glyph glyph-name="Y" unicode="Y" horiz-adv-x="359" 
d="M96 0l59 275l-69 439h39l57 -388l222 388h42l-253 -438l-59 -276h-38z" />
    <glyph glyph-name="Z" unicode="Z" horiz-adv-x="379" 
d="M-32 0l6 31l405 647h-255l8 36h299l-6 -32l-404 -647h274l-8 -35h-319z" />
    <glyph glyph-name="bracketleft" unicode="[" horiz-adv-x="283" 
d="M-16 -158l186 873h177l-7 -33h-141l-172 -807h142l-8 -33h-177z" />
    <glyph glyph-name="backslash" unicode="\" horiz-adv-x="321" 
d="M210 0l-108 714h34l110 -714h-36z" />
    <glyph glyph-name="bracketright" unicode="]" horiz-adv-x="283" 
d="M-65 -158l7 33h141l172 807h-142l8 33h177l-186 -873h-177z" />
    <glyph glyph-name="asciicircum" unicode="^" horiz-adv-x="441" 
d="M30 337l218 378h29l147 -378h-39l-127 331l-188 -331h-40z" />
    <glyph glyph-name="underscore" unicode="_" horiz-adv-x="301" 
d="M-80 -127l4 33h299l-4 -33h-299z" />
    <glyph glyph-name="grave" unicode="`" horiz-adv-x="221" 
d="M233 606q-14 19 -30.5 45.5t-31.5 54.5t-25 50v8h39q10 -26 21 -52t23.5 -50.5t24.5 -46.5v-9h-21z" />
    <glyph glyph-name="a" unicode="a" horiz-adv-x="437" 
d="M148 -10q-37 0 -62 19t-38 54.5t-13 86.5q0 48 9 101t27.5 104.5t46 92.5t63.5 66t82 25q32 0 53 -14t33.5 -36.5t16.5 -49.5h3l22 90h30l-111 -529h-31l18 100h-2q-17 -30 -39 -55t-48.5 -40t-59.5 -15zM155 24q41 0 73.5 30t56.5 79t38 105q10 44 16.5 84t6.5 74
q0 50 -22 79t-60 29q-37 0 -67 -22.5t-53 -60t-39 -84t-24 -95t-8 -90.5q0 -65 22 -96.5t60 -31.5z" />
    <glyph glyph-name="b" unicode="b" horiz-adv-x="438" 
d="M178 -10q-35 0 -58 14t-35.5 37t-16.5 50h-3l-22 -91h-30l160 760h37l-53 -250q-3 -15 -6.5 -29.5t-6.5 -27.5t-7 -24h3q15 29 37 54t50 40t62 15q36 0 62 -18t39.5 -53.5t13.5 -87.5q0 -44 -9 -96.5t-26.5 -104t-44.5 -94t-63.5 -68.5t-82.5 -26zM177 24q38 0 68 23.5
t52.5 63t38 86t23 94t7.5 86.5q0 66 -23 96.5t-62 30.5q-32 0 -59 -19t-48 -51.5t-37.5 -72t-27.5 -80t-16 -77.5t-5 -63q0 -56 23.5 -86.5t65.5 -30.5z" />
    <glyph glyph-name="c" unicode="c" horiz-adv-x="331" 
d="M173 -10q-44 0 -75 19t-46.5 57t-15.5 96q0 49 9.5 101.5t28 101.5t46.5 88.5t65.5 62.5t84.5 23q23 0 45 -4.5t38 -12.5l-13 -34q-15 9 -33.5 12.5t-37.5 3.5q-46 0 -82 -30.5t-61.5 -81t-38.5 -110.5t-13 -118q0 -46 11.5 -77.5t35 -47t57.5 -15.5q23 0 44 6t41 16v-35
q-17 -9 -39.5 -15t-50.5 -6z" />
    <glyph glyph-name="d" unicode="d" horiz-adv-x="442" 
d="M148 -10q-37 0 -62 19t-38 54.5t-13 86.5q0 48 9 101t27.5 104t46 92.5t64 66t81.5 24.5q33 0 55 -12.5t35 -34.5t17 -47h3q3 18 6.5 37t7.5 38.5t8 38.5l43 202h37l-161 -760h-30l17 102h-2q-17 -31 -39.5 -56.5t-50 -40.5t-61.5 -15zM156 24q31 0 57.5 19.5t48.5 53
t38.5 74t28 82.5t17 79.5t5.5 64.5q0 51 -23 79t-63 28q-37 0 -68 -22.5t-54 -60.5t-38.5 -84.5t-23.5 -94.5t-8 -91q0 -65 22 -96t61 -31z" />
    <glyph glyph-name="e" unicode="e" horiz-adv-x="384" 
d="M175 -10q-41 0 -72.5 18.5t-49 56t-17.5 94.5q0 77 18 145.5t49 121.5t72.5 83t88.5 30q44 0 71 -25.5t27 -75.5q0 -40 -17 -74t-50.5 -59.5t-83.5 -40t-116 -14.5h-14q-3 -19 -5 -41t-2 -46q0 -71 27.5 -105t81.5 -34q29 0 54 8.5t48 20.5v-36q-20 -11 -48 -19t-62 -8z
M102 282q75 0 124.5 21.5t74 56t24.5 76.5q0 32 -16 50.5t-49 18.5q-36 0 -71 -28.5t-62 -78.5t-40 -116h15z" />
    <glyph glyph-name="f" unicode="f" horiz-adv-x="218" 
d="M-82 -240q-14 0 -26.5 2t-20.5 5v35q10 -4 21 -6t24 -2q37 0 55 29.5t28 79.5l127 592h-70l5 25l72 9l20 91q8 36 18.5 63.5t26 45.5t36.5 27t49 9q17 0 33.5 -4t26.5 -8l-13 -32q-10 5 -22.5 7.5t-25.5 2.5q-41 0 -61 -29.5t-33 -87.5l-18 -85h84l-6 -34h-85l-127 -596
q-9 -40 -23 -72t-36.5 -49.5t-58.5 -17.5z" />
    <glyph glyph-name="g" unicode="g" horiz-adv-x="442" 
d="M107 -240q-34 0 -64 9t-48 19v38q12 -7 30 -14.5t39.5 -12.5t43.5 -5q72 0 108 43t54 127l12 53q3 16 8.5 39t10.5 45h-2q-18 -32 -40 -57t-49.5 -39.5t-61.5 -14.5q-37 0 -62 18.5t-38 54.5t-13 86q0 48 9 101.5t27.5 104.5t46 92.5t64 66.5t82.5 25q34 0 56 -14
t34.5 -36.5t16.5 -49.5h3l22 90h30l-121 -570q-13 -63 -37.5 -108t-63 -68t-97.5 -23zM157 24q30 0 56 20t48 53t38.5 74t28 82.5t17.5 79.5t6 64q0 51 -23 79t-63 28q-37 0 -67.5 -22.5t-54 -60.5t-39 -84.5t-23.5 -94.5t-8 -90q0 -65 21 -96.5t63 -31.5z" />
    <glyph glyph-name="h" unicode="h" horiz-adv-x="426" 
d="M13 0l161 760h37l-48 -221q-3 -17 -7 -34.5t-8 -34.5t-9 -34h2q14 28 35.5 51.5t49.5 37t62 13.5q31 0 53 -11t34 -33t12 -55q0 -20 -5 -49.5t-11 -56.5l-70 -333h-38l72 339q6 25 10.5 50t4.5 46q0 34 -19 51.5t-52 17.5q-40 0 -73 -26t-57 -75.5t-39 -120.5l-60 -282
h-37z" />
    <glyph glyph-name="i" unicode="i" horiz-adv-x="179" 
d="M13 0l112 529h37l-112 -529h-37zM171 643q-11 0 -17.5 7.5t-6.5 19.5t4 23t12 18.5t19 7.5q12 0 18 -7t6 -20q0 -17 -9 -33t-26 -16z" />
    <glyph glyph-name="j" unicode="j" horiz-adv-x="182" 
d="M-91 -240q-12 0 -24 2t-19 4v36q9 -4 19.5 -6t22.5 -2q26 0 43 13.5t29 44t22 81.5l126 596h37l-127 -599q-12 -58 -27 -96t-39 -56t-63 -18zM174 643q-10 0 -16.5 7.5t-6.5 19.5t3.5 23t11.5 18.5t20 7.5q11 0 17 -7t6 -20q0 -17 -9 -33t-26 -16z" />
    <glyph glyph-name="k" unicode="k" horiz-adv-x="352" 
d="M12 0l162 760h37l-82 -383q-8 -39 -15.5 -72.5t-16.5 -67.5h1l248 292h43l-181 -214l82 -315h-39l-73 284l-90 -99l-39 -185h-37z" />
    <glyph glyph-name="l" unicode="l" horiz-adv-x="175" 
d="M12 0l162 760h37l-162 -760h-37z" />
    <glyph glyph-name="m" unicode="m" horiz-adv-x="646" 
d="M13 0l111 529h31l-16 -89h2q14 27 34 49.5t45.5 36t56.5 13.5q45 0 68 -24.5t25 -68.5h2q13 25 32.5 46t46 34t57.5 13q44 0 71.5 -25t27.5 -75q0 -15 -2.5 -34t-5.5 -35l-79 -370h-37l78 369q5 20 7 35.5t2 27.5q0 37 -19 54.5t-52 17.5q-28 0 -50.5 -13t-40 -36
t-30 -52t-19.5 -62l-74 -341h-37l81 378q4 16 5.5 30.5t1.5 25.5q0 33 -17.5 51.5t-50.5 18.5q-31 0 -56.5 -17t-44.5 -47.5t-33 -70.5t-24 -86l-60 -283h-37z" />
    <glyph glyph-name="n" unicode="n" horiz-adv-x="425" 
d="M12 0l112 529h31l-17 -93h2q14 28 35.5 51.5t49.5 37.5t62 14q31 0 53 -11t34.5 -33t12.5 -55q0 -21 -5 -50.5t-11 -55.5l-71 -334h-37l72 339q5 26 9.5 50.5t4.5 45.5q0 35 -18.5 52t-51.5 17q-40 0 -73 -26.5t-57 -76.5t-40 -120l-59 -281h-38z" />
    <glyph glyph-name="o" unicode="o" horiz-adv-x="428" 
d="M167 -10q-42 0 -71.5 18.5t-45 56t-15.5 91.5q0 44 8.5 95.5t26.5 102.5t45.5 92.5t64.5 66.5t84 25q41 0 69.5 -19t43.5 -56t15 -91q0 -49 -9 -102t-27 -103t-45 -90t-63 -63.5t-81 -23.5zM169 24q36 0 65.5 22t52 59t37.5 83t22.5 94t7.5 91q0 41 -10.5 70.5t-30.5 45
t-52 15.5q-37 0 -66.5 -23t-52 -61t-38 -84.5t-23.5 -93.5t-8 -86q0 -64 24.5 -98t71.5 -34z" />
    <glyph glyph-name="p" unicode="p" horiz-adv-x="438" 
d="M-35 -230l160 759h31l-18 -103h2q18 33 39.5 58t49 39.5t61.5 14.5q36 0 61.5 -18.5t39.5 -54t14 -86.5q0 -48 -9.5 -101.5t-27.5 -104.5t-45.5 -92.5t-64 -66t-82.5 -24.5q-32 0 -54.5 13t-35 34.5t-17.5 47.5h-3q-4 -26 -9.5 -55.5t-11.5 -56.5l-43 -203h-37zM175 24
q37 0 67.5 22.5t53.5 60.5t39 84.5t24 94.5t8 91q0 65 -23 96.5t-63 31.5q-31 0 -57.5 -20t-48 -53t-38 -73.5t-27.5 -82.5t-16.5 -79.5t-5.5 -64.5q0 -51 23.5 -79.5t63.5 -28.5z" />
    <glyph glyph-name="q" unicode="q" horiz-adv-x="443" 
d="M281 17q4 14 7 28.5t7 29t6 26.5h-2q-15 -29 -37.5 -54.5t-51 -41t-62.5 -15.5q-36 0 -61.5 18t-38.5 54t-13 87q0 44 8.5 96.5t26.5 104t45 94.5t63.5 69t83.5 26q34 0 57 -14.5t36 -37t16 -50.5h2l23 92h30l-161 -764h-37zM157 24q31 0 57 19t47.5 51.5t38.5 72
t28.5 80.5t17 78t5.5 63q0 56 -23 86t-66 30q-38 0 -68 -23.5t-52.5 -62.5t-38 -86t-23 -94t-7.5 -86q0 -67 21.5 -97.5t62.5 -30.5z" />
    <glyph glyph-name="r" unicode="r" horiz-adv-x="282" 
d="M13 0l111 529h30l-18 -102h2q15 31 35 56t47 40t58 15q13 0 24 -2t19 -5l-9 -35q-7 2 -16.5 4t-20.5 2q-34 0 -61 -20t-47.5 -53.5t-35 -73.5t-23.5 -79l-58 -276h-37z" />
    <glyph glyph-name="s" unicode="s" horiz-adv-x="325" 
d="M105 -10q-38 0 -67 9t-45 18v40q19 -12 48.5 -22.5t62.5 -10.5q40 0 65.5 13.5t37.5 39t12 60.5q0 26 -8.5 45t-25.5 37.5t-41 41.5q-23 20 -41.5 40t-29 44.5t-10.5 56.5q0 41 18 71.5t51.5 48t76.5 17.5q39 0 67.5 -9.5t48.5 -21.5l-17 -31q-18 11 -42.5 19.5
t-57.5 8.5q-48 0 -77.5 -26.5t-29.5 -73.5q0 -23 8 -42.5t23.5 -36.5t37.5 -37q26 -25 46 -46t31 -45t11 -58q0 -47 -17.5 -80.5t-51.5 -51.5t-84 -18z" />
    <glyph glyph-name="t" unicode="t" horiz-adv-x="229" 
d="M101 -10q-35 0 -54.5 20t-19.5 57q0 15 3 34.5t8 41.5l75 352h-57l6 27l58 8l36 127h28l-27 -128h94l-7 -34h-94l-75 -353q-5 -22 -7.5 -39.5t-2.5 -30.5q0 -23 10 -35.5t34 -12.5q15 0 27 2.5t22 6.5v-33q-11 -4 -25 -7t-32 -3z" />
    <glyph glyph-name="u" unicode="u" horiz-adv-x="426" 
d="M134 -10q-30 0 -52.5 11t-34.5 33.5t-12 54.5q0 20 4.5 49t10.5 55l71 336h37l-72 -342q-5 -24 -9.5 -48t-4.5 -45q0 -35 18.5 -52.5t51.5 -17.5q41 0 74 27t57.5 77t38.5 120l59 281h37l-111 -529h-30l16 92h-3q-13 -27 -34.5 -50.5t-49.5 -37.5t-62 -14z" />
    <glyph glyph-name="v" unicode="v" horiz-adv-x="325" 
d="M81 0l-26 529h37l16 -355q1 -19 2 -39.5t1 -40v-38.5h3q7 18 15 36.5t16.5 37.5t17.5 37l173 362h39l-253 -529h-41z" />
    <glyph glyph-name="w" unicode="w" horiz-adv-x="533" 
d="M66 -1l-6 530h36l3 -356q0 -33 -0.5 -61t-1.5 -54h3q5 16 12.5 34.5t16 39t17.5 41.5l156 356h38l5 -356q1 -26 0.5 -57.5t-1.5 -58.5h2q6 18 13 36t15 37.5t17 42.5l146 356h38l-221 -530h-40l-4 376q-1 16 -1 31.5t0.5 32.5t0.5 33h-1q-6 -16 -12 -31l-12 -30t-14 -32
l-165 -380h-40z" />
    <glyph glyph-name="x" unicode="x" horiz-adv-x="346" 
d="M-41 0l191 275l-69 254h38l59 -225l154 225h42l-180 -259l75 -270h-38l-65 240l-165 -240h-42z" />
    <glyph glyph-name="y" unicode="y" horiz-adv-x="339" 
d="M-62 -243q-16 0 -28.5 3t-19.5 7l4 35q9 -4 20 -7t25 -3q33 0 57 24t50 77l54 116l-31 520h37l18 -359q2 -18 3 -37t1.5 -37.5t0.5 -33.5h2q7 15 14.5 33.5t16.5 37t17 34.5l171 362h39l-309 -647q-20 -42 -40.5 -69.5t-44.5 -41.5t-57 -14z" />
    <glyph glyph-name="z" unicode="z" horiz-adv-x="300" 
d="M-28 0l6 29l294 466h-181l7 34h224l-6 -30l-295 -466h201l-6 -33h-244z" />
    <glyph glyph-name="braceleft" unicode="{" horiz-adv-x="319" 
d="M189 -158q-63 0 -92.5 25t-29.5 74q0 12 2 25.5t5 28.5l33 155q4 15 5.5 28t1.5 24q0 32 -19.5 45.5t-65.5 13.5l7 34q57 0 84 22t40 81l39 184q11 48 32 77t56 42t84 13h7l-7 -34q-62 0 -93 -24t-44 -82l-39 -185q-10 -48 -33 -76.5t-66 -34.5v-2q27 -7 41 -24.5
t14 -49.5q0 -10 -1.5 -22.5t-4.5 -26.5l-34 -160q-3 -15 -4.5 -26.5t-1.5 -21.5q0 -40 22.5 -54.5t73.5 -14.5l-4 -34h-8z" />
    <glyph glyph-name="bar" unicode="|" horiz-adv-x="405" 
d="M191 -242v1003h35v-1003h-35z" />
    <glyph glyph-name="braceright" unicode="}" horiz-adv-x="318" 
d="M-55 -125q42 1 69.5 11.5t44 34t24.5 61.5l39 184q10 48 33 76.5t66 34.5v2q-26 7 -40.5 24.5t-14.5 49.5q0 12 1.5 24t4.5 25l34 161q3 14 5 26t2 22q0 39 -23 54t-74 15l6 34h8q42 0 68.5 -11t39 -33t12.5 -55q0 -12 -2 -25.5t-5 -28.5l-33 -156q-3 -15 -5 -27.5
t-2 -23.5q0 -33 19.5 -46.5t65.5 -13.5l-6 -34q-57 0 -84.5 -22t-39.5 -81l-40 -184q-10 -48 -31.5 -77t-56 -41.5t-83.5 -12.5h-7z" />
    <glyph glyph-name="asciitilde" unicode="~" horiz-adv-x="455" 
d="M233 336q-22 13 -42.5 21.5t-45.5 8.5q-26 0 -51 -13t-49 -42v42q19 21 44.5 34t56.5 13q30 0 52 -8.5t46 -22.5q24 -13 42 -20.5t41 -7.5q25 0 51 13t47 39v-41q-17 -19 -42 -32t-57 -13q-27 0 -48.5 8.5t-44.5 20.5z" />
    <glyph glyph-name="uni00A0" unicode="&#xa0;" horiz-adv-x="196" 
 />
    <glyph glyph-name="exclamdown" unicode="&#xa1;" horiz-adv-x="213" 
d="M-10 -181l125 539h29l-112 -539h-42zM154 458q-11 0 -17.5 7.5t-6.5 21.5q0 17 9.5 33.5t27.5 16.5q11 0 17.5 -7.5t6.5 -20.5q0 -17 -9 -34t-28 -17z" />
    <glyph glyph-name="cent" unicode="&#xa2;" horiz-adv-x="411" 
d="M180 95q-50 10 -76 52t-26 115q0 48 9 98.5t26.5 98.5t43 87t60 64t76.5 29l18 85h32l-17 -84q19 -1 37 -5t32 -11l-13 -34q-16 8 -34.5 12t-36.5 4q-45 0 -81.5 -31t-61.5 -81.5t-38.5 -110.5t-13.5 -119q0 -70 26 -104t76 -34q22 0 43.5 5t41.5 15l3 -33
q-23 -11 -46.5 -16t-48.5 -5l-22 -102h-32z" />
    <glyph glyph-name="sterling" unicode="&#xa3;" horiz-adv-x="413" 
d="M-17 32q29 7 51 25.5t38 50t26 80.5l31 147h-79l6 33h80l40 190q11 53 30.5 90t51 56.5t78.5 19.5q37 0 64.5 -11.5t46.5 -27.5l-20 -29q-16 13 -38.5 23t-53.5 10q-55 0 -82 -35t-41 -101l-39 -185h132l-6 -33h-133l-31 -147q-15 -72 -38 -105.5t-49 -47.5h275l-7 -35
h-340z" />
    <glyph glyph-name="currency" unicode="&#xa4;" horiz-adv-x="559" 
d="M414 206q-27 -23 -59.5 -34.5t-65.5 -11.5q-34 0 -66 12t-60 35l-74 -73l-20 21l73 72q-23 28 -34.5 61t-11.5 66t11.5 65.5t34.5 59.5l-73 74l20 21l74 -74q28 23 61 35t65 12t64.5 -11.5t60.5 -35.5l74 73l21 -21l-73 -72q23 -27 35 -60t12 -66t-12 -66t-35 -61l74 -74
l-21 -20zM288 190q46 0 83.5 23t59.5 60.5t22 81.5q1 43 -22 80.5t-60.5 60t-80.5 22.5q-44 0 -82 -22.5t-60.5 -60t-21.5 -81.5q0 -46 22 -83t58.5 -59t81.5 -22z" />
    <glyph glyph-name="yen" unicode="&#xa5;" horiz-adv-x="401" 
d="M115 0l33 151h-115l7 32h114l22 104h-113l7 32h104l-52 395h37l47 -372l203 372h41l-220 -395h106l-7 -32h-116l-22 -104h116l-7 -32h-115l-33 -151h-37z" />
    <glyph glyph-name="brokenbar" unicode="&#xa6;" horiz-adv-x="404" 
d="M190 382v377h36v-377h-36zM190 -241v378h36v-378h-36z" />
    <glyph glyph-name="section" unicode="&#xa7;" horiz-adv-x="359" 
d="M110 37q-39 0 -67 8.5t-46 17.5v38q20 -13 49.5 -22.5t63.5 -9.5q59 0 93.5 29t34.5 77q0 24 -10.5 42t-29 32.5t-43.5 29.5q-23 15 -44 31.5t-34.5 39t-13.5 53.5q0 32 13.5 56.5t37.5 42.5t56 31q-25 19 -39 42.5t-14 52.5q0 40 18.5 69.5t52 45.5t75.5 17q36 0 66 -9
t52 -23l-17 -29q-21 13 -47 20.5t-53 7.5q-30 0 -54.5 -10.5t-40 -31.5t-15.5 -53q0 -37 21.5 -58t54.5 -41q27 -16 48.5 -33t34 -38t12.5 -51q0 -31 -12.5 -57t-34 -46.5t-49.5 -37.5q20 -16 33 -39.5t13 -52.5q0 -43 -20.5 -74.5t-57.5 -49t-87 -17.5zM206 290
q36 21 59.5 50t23.5 67q0 24 -11 41.5t-31.5 33t-50.5 31.5q-28 -10 -50 -24t-34.5 -34.5t-12.5 -48.5q0 -25 12.5 -43.5t36.5 -35t58 -37.5z" />
    <glyph glyph-name="dieresis" unicode="&#xa8;" horiz-adv-x="500" 
d="M375 644q-11 0 -16.5 6.5t-5.5 18.5q0 16 8 31t24 15q11 0 16.5 -6.5t5.5 -18.5q0 -16 -8.5 -31t-23.5 -15zM230 644q-10 0 -16 6.5t-6 18.5q0 16 8 31t24 15q8 0 12.5 -3t7 -8.5t2.5 -13.5q0 -16 -8 -31t-24 -15z" />
    <glyph glyph-name="copyright" unicode="&#xa9;" horiz-adv-x="831" 
d="M414 -8q-83 0 -150 27.5t-115 77.5t-74 116t-26 144q0 81 28 148t78 115.5t116.5 75t144.5 26.5q81 0 148.5 -28t116 -78.5t75 -117t26.5 -142.5q0 -78 -27.5 -144.5t-76.5 -116t-116.5 -76.5t-147.5 -27zM436 141q-95 0 -150.5 55t-55.5 160q0 67 24 116t70 75t110 26
q37 0 67.5 -7t56.5 -19l-15 -29q-23 11 -50.5 17t-58.5 6q-79 0 -123.5 -49t-44.5 -135q0 -92 46 -138t127 -46q28 0 54 5t55 16v-31q-25 -11 -53 -16.5t-59 -5.5zM414 22q74 0 135.5 26t106 72t69 106.5t24.5 130.5t-24 130.5t-68.5 106.5t-106 72t-135.5 26
q-73 0 -134 -25t-106 -70.5t-69.5 -106.5t-24.5 -133q0 -71 24 -132t67.5 -106.5t105 -71t136.5 -25.5z" />
    <glyph glyph-name="ordfeminine" unicode="&#xaa;" horiz-adv-x="266" 
d="M154 397q-24 0 -42.5 11.5t-29.5 36t-11 62.5q0 39 9.5 77t27.5 69.5t44.5 50t59.5 18.5t48 -16t22 -38h2l15 48h25l-65 -314h-26l8 54h-2q-14 -27 -35 -43t-50 -16zM159 427q22 0 39.5 14t30 37t20.5 48.5t12.5 48.5t4.5 39q0 35 -13 56.5t-43 21.5q-23 0 -42.5 -16
t-34 -43t-21.5 -59.5t-7 -64.5q0 -42 14.5 -62t39.5 -20z" />
    <glyph glyph-name="guillemotleft" unicode="&#xab;" horiz-adv-x="369" 
d="M118 77l-90 184l3 14l166 171l21 -18l-147 -164l73 -175zM271 77l-89 183l2 13l166 173l22 -18l-147 -165l73 -174z" />
    <glyph glyph-name="logicalnot" unicode="&#xac;" horiz-adv-x="455" 
d="M413 368v-245h-34v212h-332v33h366z" />
    <glyph glyph-name="uni00AD" unicode="&#xad;" horiz-adv-x="274" 
d="M26 253l5 36h217l-5 -36h-217z" />
    <glyph glyph-name="registered" unicode="&#xae;" horiz-adv-x="831" 
d="M294 143v427h119q65 0 104 -29t39 -93q0 -51 -25.5 -78.5t-63.5 -39.5l102 -187h-41l-95 179h-104v-179h-35zM408 352q48 0 80.5 23t32.5 73q0 48 -30.5 69.5t-80.5 21.5h-82v-187h80zM414 -8q-83 0 -150 27.5t-115 77.5t-74 116t-26 144q0 81 28 148t78 115.5t116.5 75
t144.5 26.5q81 0 148.5 -28t116 -78.5t75 -117t26.5 -142.5q0 -78 -27.5 -144.5t-76.5 -116t-116.5 -76.5t-147.5 -27zM414 22q74 0 135.5 26t106 72t69 106.5t24.5 130.5t-24 130.5t-68.5 106.5t-106 72t-135.5 26q-73 0 -134 -25t-106 -70.5t-69.5 -106.5t-24.5 -133
q0 -71 24 -132t67.5 -106.5t105 -71t136.5 -25.5z" />
    <glyph glyph-name="overscore" unicode="&#xaf;" horiz-adv-x="393" 
d="M101 760l8 33h376l-8 -33h-376z" />
    <glyph glyph-name="degree" unicode="&#xb0;" horiz-adv-x="380" 
d="M190 463q-37 0 -67 16t-47 45.5t-17 69.5t17.5 69t47 44.5t65.5 15.5q37 0 67 -16t47.5 -44.5t17.5 -69.5q0 -39 -17 -68.5t-47 -45.5t-67 -16zM189 492q44 0 72 28.5t28 73.5t-27.5 72.5t-72.5 27.5t-71.5 -28t-26.5 -72q0 -46 28 -74t70 -28z" />
    <glyph glyph-name="plusminus" unicode="&#xb1;" horiz-adv-x="455" 
d="M48 1v34h374v-34h-374zM252 371h173v-33h-173v-214h-34v214h-174v33h174v216h34v-216z" />
    <glyph glyph-name="uni00B2" unicode="&#xb2;" horiz-adv-x="283" 
d="M51 415l4 28l122 129q33 34 60.5 65t44 61t16.5 63q0 30 -17 46.5t-46 16.5q-24 0 -44 -8.5t-41 -24.5l-15 26q20 17 46 27.5t58 10.5q29 0 50 -11t32 -31t11 -48q0 -38 -17 -72t-46 -67t-64 -69l-106 -110h178l-7 -32h-219z" />
    <glyph glyph-name="uni00B3" unicode="&#xb3;" horiz-adv-x="283" 
d="M146 410q-28 0 -50 5.5t-37 13.5v36q18 -11 40 -17.5t49 -6.5q53 0 81.5 29.5t28.5 75.5q0 42 -23 60.5t-60 18.5h-31l6 30h31q39 0 64.5 15t38.5 39t13 50q0 29 -15.5 46.5t-46.5 17.5q-26 0 -47.5 -9t-40.5 -22l-15 26q20 15 47 26t59 11t52.5 -12t31 -32.5t10.5 -46.5
q0 -49 -27.5 -81.5t-69.5 -42.5v-2q24 -8 41 -30t17 -61q0 -38 -16.5 -69t-49 -49.5t-81.5 -18.5z" />
    <glyph glyph-name="acute" unicode="&#xb4;" horiz-adv-x="216" 
d="M115 614q23 23 47 50.5t44 54t32 47.5h43v-8q-11 -16 -28 -36.5t-37.5 -42t-41 -40.5t-38.5 -33h-21v8z" />
    <glyph glyph-name="uni03BC" unicode="&#x3bc;" horiz-adv-x="461" 
d="M-36 -230l162 759h37l-80 -373q-8 -39 -6 -69t18.5 -46.5t49.5 -16.5q41 0 74 26t57.5 75t38.5 117l61 287h37l-86 -405q-12 -57 -6 -78.5t30 -21.5q8 0 17.5 1.5t18.5 4.5l-7 -32q-5 -2 -11.5 -4t-14 -3t-16.5 -1q-25 0 -36.5 13.5t-14.5 36.5t0 52h-3
q-7 -12 -18.5 -29.5t-29 -34t-41 -27.5t-56.5 -11t-52 15t-28 45h-2q-2 -17 -4.5 -32t-5 -29t-5.5 -27l-41 -192h-37z" />
    <glyph glyph-name="paragraph" unicode="&#xb6;" horiz-adv-x="487" 
d="M260 399q-9 -4 -19.5 -5.5t-23.5 -1.5q-26 0 -47.5 11t-37 33.5t-23.5 57t-8 80.5q0 49 9 84t26.5 58t43 33.5t57.5 10.5h185v-887h-32v855h-98v-855h-32v526z" />
    <glyph glyph-name="periodcentered" unicode="&#xb7;" horiz-adv-x="190" 
d="M107 303q-11 0 -18 7t-7 20q0 18 9.5 35t28.5 17q11 0 17.5 -8t6.5 -21q0 -17 -9.5 -33.5t-27.5 -16.5z" />
    <glyph glyph-name="cedilla" unicode="&#xb8;" horiz-adv-x="205" 
d="M-16 -240q-19 0 -32.5 2t-24.5 5v30q9 -3 23 -5t33 -2q24 0 44.5 8.5t32 25t11.5 37.5q0 28 -21 41.5t-60 16.5l53 81h30l-40 -63q32 -5 52 -23t20 -50q0 -31 -16 -54.5t-43 -36.5t-62 -13z" />
    <glyph glyph-name="uni00B9" unicode="&#xb9;" horiz-adv-x="283" 
d="M230 742q3 17 7.5 33.5t8.5 31.5q-12 -9 -22.5 -16.5t-23.5 -15.5l-60 -39l-14 25l127 83h33l-92 -428h-34z" />
    <glyph glyph-name="ordmasculine" unicode="&#xba;" horiz-adv-x="272" 
d="M169 394q-43 0 -65.5 28.5t-22.5 78.5q0 36 9 74.5t26.5 72t44.5 54.5t63 21q42 0 64 -27.5t22 -79.5q0 -38 -9 -77t-27 -72t-44.5 -53t-60.5 -20zM171 425q26 0 46 18.5t33 47.5t19.5 61.5t6.5 61.5q0 37 -13.5 57.5t-40.5 20.5q-26 0 -46 -18t-33.5 -47t-20.5 -62
t-7 -63q0 -37 13.5 -57t42.5 -20z" />
    <glyph glyph-name="guillemotright" unicode="&#xbb;" horiz-adv-x="370" 
d="M168 77l-22 19l148 164l-74 175l27 11l89 -183l-2 -14zM14 78l-21 18l147 165l-73 174l26 11l89 -182l-2 -14z" />
    <glyph glyph-name="onequarter" unicode="&#xbc;" horiz-adv-x="608" 
d="M17 0l548 714h41l-548 -714h-41zM204 612q3 17 7.5 33.5t8.5 31.5q-12 -9 -22.5 -16.5t-23.5 -15.5l-60 -39l-14 25l127 83h33l-92 -428h-34zM439 0l24 110h-158l4 29l224 292h32l-62 -290h51l-7 -31h-50l-25 -110h-33zM347 141h122l32 145q5 23 10 46.5t9 39.5
q-6 -9 -13.5 -20t-16.5 -23t-20 -25z" />
    <glyph glyph-name="onehalf" unicode="&#xbd;" horiz-adv-x="656" 
d="M14 0l548 714h41l-548 -714h-41zM204 612q3 17 7.5 33.5t8.5 31.5q-12 -9 -22.5 -16.5t-23.5 -15.5l-60 -39l-14 25l127 83h33l-92 -428h-34zM343 -1l4 28l122 129q33 34 60.5 65t44 61t16.5 63q0 30 -17 46.5t-46 16.5q-24 0 -44 -8.5t-41 -24.5l-15 26q20 17 46 27.5
t58 10.5q29 0 50 -11t32 -31t11 -48q0 -38 -17 -72t-46 -67t-64 -69l-106 -110h178l-7 -32h-219z" />
    <glyph glyph-name="threequarters" unicode="&#xbe;" horiz-adv-x="624" 
d="M118 280q-28 0 -50 5.5t-37 13.5v36q18 -11 40 -17.5t49 -6.5q53 0 81.5 29.5t28.5 75.5q0 42 -23 60.5t-60 18.5h-31l6 30h31q39 0 64.5 15t38.5 39t13 50q0 29 -15.5 46.5t-46.5 17.5q-26 0 -47.5 -9t-40.5 -22l-15 26q20 15 47 26t59 11t52.5 -12t31 -32.5t10.5 -46.5
q0 -49 -27.5 -81.5t-69.5 -42.5v-2q24 -8 41 -30t17 -61q0 -38 -16.5 -69t-49 -49.5t-81.5 -18.5zM43 0l548 714h41l-548 -714h-41zM455 0l24 110h-158l4 29l224 292h32l-62 -290h51l-7 -31h-50l-25 -110h-33zM363 141h122l32 145q5 23 10 46.5t9 39.5q-6 -9 -13.5 -20
t-16.5 -23t-20 -25z" />
    <glyph glyph-name="questiondown" unicode="&#xbf;" horiz-adv-x="292" 
d="M224 349q-10 -51 -23.5 -87t-34.5 -66t-54 -66t-59 -66t-40.5 -62t-14.5 -76q0 -43 24 -67t64 -24q28 0 52 8.5t46 20.5l14 -30q-28 -16 -56.5 -25t-59.5 -9q-57 0 -89.5 33.5t-32.5 88.5q0 46 16 82.5t43.5 70.5t63.5 71q33 35 53.5 63t33 60t21.5 80h33zM235 528
q11 0 18 -7t7 -20q0 -18 -9.5 -35t-28.5 -17q-11 0 -17.5 8t-6.5 21q0 17 9.5 33.5t27.5 16.5z" />
    <glyph glyph-name="Agrave" unicode="&#xc0;" horiz-adv-x="404" 
d="M-63 0l330 717h45l30 -717h-38l-11 269h-191l-123 -269h-42zM117 304h175l-9 282l-2 44t0 39h-3q-6 -17 -15 -38t-20 -46zM321 793q-14 19 -30.5 45.5t-31.5 54.5t-25 50v8h39q10 -26 21 -52t23.5 -50.5t24.5 -46.5v-9h-21z" />
    <glyph glyph-name="Aacute" unicode="&#xc1;" horiz-adv-x="404" 
d="M-63 0l330 717h45l30 -717h-38l-11 269h-191l-123 -269h-42zM117 304h175l-9 282l-2 44t0 39h-3q-6 -17 -15 -38t-20 -46zM274 798q23 23 47 50.5t44 54t32 47.5h43v-8q-11 -16 -28 -36.5t-37.5 -42t-41 -40.5t-38.5 -33h-21v8z" />
    <glyph glyph-name="Acircumflex" unicode="&#xc2;" horiz-adv-x="404" 
d="M-63 0l330 717h45l30 -717h-38l-11 269h-191l-123 -269h-42zM117 304h175l-9 282l-2 44t0 39h-3q-6 -17 -15 -38t-20 -46zM182 798q20 20 43 46.5t44.5 54t36.5 50.5h32q5 -20 16 -49t24 -56.5t22 -45.5l-1 -8h-19q-11 16 -23 35t-22.5 40t-19.5 41q-23 -28 -52.5 -59
t-60.5 -57h-21z" />
    <glyph glyph-name="Atilde" unicode="&#xc3;" horiz-adv-x="404" 
d="M-63 0l330 717h45l30 -717h-38l-11 269h-191l-123 -269h-42zM117 304h175l-9 282l-2 44t0 39h-3q-6 -17 -15 -38t-20 -46zM162 796q7 34 18.5 56t29.5 33t42 11q21 0 36.5 -10t28.5 -23t25 -23t27 -10q20 0 33.5 14.5t21.5 51.5h31q-6 -33 -18 -55.5t-29.5 -33.5
t-40.5 -11q-20 0 -35.5 10t-28 23.5t-25.5 23.5t-29 10q-22 0 -35.5 -16t-20.5 -51h-31z" />
    <glyph glyph-name="Adieresis" unicode="&#xc4;" horiz-adv-x="404" 
d="M-63 0l330 717h45l30 -717h-38l-11 269h-191l-123 -269h-42zM117 304h175l-9 282l-2 44t0 39h-3q-6 -17 -15 -38t-20 -46zM368 828q-11 0 -16.5 6.5t-5.5 18.5q0 16 8 31t24 15q11 0 16.5 -6.5t5.5 -18.5q0 -16 -8.5 -31t-23.5 -15zM223 828q-10 0 -16 6.5t-6 18.5
q0 16 8 31t24 15q8 0 12.5 -3t7 -8.5t2.5 -13.5q0 -16 -8 -31t-24 -15z" />
    <glyph glyph-name="Aring" unicode="&#xc5;" horiz-adv-x="404" 
d="M-63 0l330 717h45l30 -717h-38l-11 269h-191l-123 -269h-42zM117 304h175l-9 282l-2 44t0 39h-3q-6 -17 -15 -38t-20 -46zM306 773q-42 0 -67.5 25t-25.5 67q0 41 25.5 67t67.5 26q43 0 68 -26.5t25 -65.5q0 -40 -25.5 -66.5t-67.5 -26.5zM306 802q29 0 46 17.5t17 45.5
t-17 46t-46 18t-46.5 -18t-17.5 -46t17 -45.5t47 -17.5z" />
    <glyph glyph-name="AE" unicode="&#xc6;" horiz-adv-x="580" 
d="M-65 0l366 714h322l-7 -35h-235l-61 -286h220l-8 -35h-220l-68 -323h234l-7 -35h-272l57 270h-142l-137 -270h-42zM132 305h131l80 374h-21z" />
    <glyph glyph-name="Ccedilla" unicode="&#xc7;" horiz-adv-x="421" 
d="M228 -10q-58 0 -97.5 27.5t-60 82t-20.5 136.5q0 61 13.5 128.5t40 131.5t65.5 115.5t90.5 82.5t116.5 31q35 0 62.5 -8t48.5 -23l-20 -32q-18 14 -41.5 21t-51.5 7q-54 0 -99 -29t-80 -76.5t-58.5 -106.5t-35.5 -121.5t-12 -118.5q0 -108 37 -160.5t107 -52.5
q27 0 52.5 5.5t52.5 15.5v-36q-26 -9 -53 -14.5t-57 -5.5zM120 -240q-19 0 -32.5 2t-24.5 5v30q9 -3 23 -5t33 -2q24 0 44.5 8.5t32 25t11.5 37.5q0 28 -21 41.5t-60 16.5l53 81h30l-40 -63q32 -5 52 -23t20 -50q0 -31 -16 -54.5t-43 -36.5t-62 -13z" />
    <glyph glyph-name="Egrave" unicode="&#xc8;" horiz-adv-x="400" 
d="M16 0l151 714h270l-7 -35h-232l-61 -286h218l-8 -35h-218l-69 -323h233l-7 -35h-270zM323 792q-14 19 -30.5 45.5t-31.5 54.5t-25 50v8h39q10 -26 21 -52t23.5 -50.5t24.5 -46.5v-9h-21z" />
    <glyph glyph-name="Eacute" unicode="&#xc9;" horiz-adv-x="400" 
d="M16 0l151 714h270l-7 -35h-232l-61 -286h218l-8 -35h-218l-69 -323h233l-7 -35h-270zM273 798q23 23 47 50.5t44 54t32 47.5h43v-8q-11 -16 -28 -36.5t-37.5 -42t-41 -40.5t-38.5 -33h-21v8z" />
    <glyph glyph-name="Ecircumflex" unicode="&#xca;" horiz-adv-x="400" 
d="M16 0l151 714h270l-7 -35h-232l-61 -286h218l-8 -35h-218l-69 -323h233l-7 -35h-270zM200 785q20 20 43 46.5t44.5 54t36.5 50.5h32q5 -20 16 -49t24 -56.5t22 -45.5l-1 -8h-19q-11 16 -23 35t-22.5 40t-19.5 41q-23 -28 -52.5 -59t-60.5 -57h-21z" />
    <glyph glyph-name="Edieresis" unicode="&#xcb;" horiz-adv-x="400" 
d="M16 0l151 714h270l-7 -35h-232l-61 -286h218l-8 -35h-218l-69 -323h233l-7 -35h-270zM384 815q-11 0 -16.5 6.5t-5.5 18.5q0 16 8 31t24 15q11 0 16.5 -6.5t5.5 -18.5q0 -16 -8.5 -31t-23.5 -15zM239 815q-10 0 -16 6.5t-6 18.5q0 16 8 31t24 15q8 0 12.5 -3t7 -8.5
t2.5 -13.5q0 -16 -8 -31t-24 -15z" />
    <glyph glyph-name="Igrave" unicode="&#xcc;" horiz-adv-x="215" 
d="M-39 0l5 25l66 6l138 652l-62 6l5 25h165l-6 -25l-65 -6l-138 -652l62 -6l-5 -25h-165zM227 792q-14 19 -30.5 45.5t-31.5 54.5t-25 50v8h39q10 -26 21 -52t23.5 -50.5t24.5 -46.5v-9h-21z" />
    <glyph glyph-name="Iacute" unicode="&#xcd;" horiz-adv-x="215" 
d="M-39 0l5 25l66 6l138 652l-62 6l5 25h165l-6 -25l-65 -6l-138 -652l62 -6l-5 -25h-165zM177 798q23 23 47 50.5t44 54t32 47.5h43v-8q-11 -16 -28 -36.5t-37.5 -42t-41 -40.5t-38.5 -33h-21v8z" />
    <glyph glyph-name="Icircumflex" unicode="&#xce;" horiz-adv-x="215" 
d="M-39 0l5 25l66 6l138 652l-62 6l5 25h165l-6 -25l-65 -6l-138 -652l62 -6l-5 -25h-165zM102 801q20 20 43 46.5t44.5 54t36.5 50.5h32q5 -20 16 -49t24 -56.5t22 -45.5l-1 -8h-19q-11 16 -23 35t-22.5 40t-19.5 41q-23 -28 -52.5 -59t-60.5 -57h-21z" />
    <glyph glyph-name="Idieresis" unicode="&#xcf;" horiz-adv-x="215" 
d="M-39 0l5 25l66 6l138 652l-62 6l5 25h165l-6 -25l-65 -6l-138 -652l62 -6l-5 -25h-165zM288 831q-11 0 -16.5 6.5t-5.5 18.5q0 16 8 31t24 15q11 0 16.5 -6.5t5.5 -18.5q0 -16 -8.5 -31t-23.5 -15zM143 831q-10 0 -16 6.5t-6 18.5q0 16 8 31t24 15q8 0 12.5 -3t7 -8.5
t2.5 -13.5q0 -16 -8 -31t-24 -15z" />
    <glyph glyph-name="Eth" unicode="&#xd0;" horiz-adv-x="501" 
d="M29 348l8 34h221l-7 -34h-222zM16 0l151 714h104q96 0 149.5 -55.5t53.5 -175.5q0 -61 -12.5 -128t-38.5 -130t-67 -114t-98.5 -81t-133.5 -30h-108zM126 35q65 0 115 27.5t86.5 74.5t60 105.5t35 120.5t11.5 120q0 106 -44 151t-127 45h-65l-137 -644h65z" />
    <glyph glyph-name="Ntilde" unicode="&#xd1;" horiz-adv-x="534" 
d="M16 0l151 714h42l162 -640h2l10 52t10 50t9 42l105 496h37l-151 -714h-42l-161 646h-2q-3 -16 -6 -33t-6.5 -35.5t-7.5 -37.5t-9 -39l-106 -501h-37zM228 783q7 34 18.5 56t29.5 33t42 11q21 0 36.5 -10t28.5 -23t25 -23t27 -10q20 0 33.5 14.5t21.5 51.5h31
q-6 -33 -18 -55.5t-29.5 -33.5t-40.5 -11q-20 0 -35.5 10t-28 23.5t-25.5 23.5t-29 10q-22 0 -35.5 -16t-20.5 -51h-31z" />
    <glyph glyph-name="Ograve" unicode="&#xd2;" horiz-adv-x="533" 
d="M217 -10q-58 0 -95 26.5t-55.5 76.5t-18.5 121q0 51 8 108t24 114t40 108.5t57 92t74.5 64t91.5 23.5q79 0 122.5 -51.5t43.5 -162.5q0 -45 -7 -100.5t-21.5 -114t-37 -113t-55.5 -98t-75 -69t-96 -25.5zM220 25q44 0 79.5 24t63.5 64.5t48 91t33 105t19.5 106t6.5 93.5
q0 91 -32 135.5t-98 44.5q-44 0 -80 -23.5t-64 -63t-48.5 -89.5t-33.5 -103.5t-19.5 -103.5t-6.5 -90q0 -63 14 -105.5t43.5 -64t74.5 -21.5zM382 792q-14 19 -30.5 45.5t-31.5 54.5t-25 50v8h39q10 -26 21 -52t23.5 -50.5t24.5 -46.5v-9h-21z" />
    <glyph glyph-name="Oacute" unicode="&#xd3;" horiz-adv-x="533" 
d="M217 -10q-58 0 -95 26.5t-55.5 76.5t-18.5 121q0 51 8 108t24 114t40 108.5t57 92t74.5 64t91.5 23.5q79 0 122.5 -51.5t43.5 -162.5q0 -45 -7 -100.5t-21.5 -114t-37 -113t-55.5 -98t-75 -69t-96 -25.5zM220 25q44 0 79.5 24t63.5 64.5t48 91t33 105t19.5 106t6.5 93.5
q0 91 -32 135.5t-98 44.5q-44 0 -80 -23.5t-64 -63t-48.5 -89.5t-33.5 -103.5t-19.5 -103.5t-6.5 -90q0 -63 14 -105.5t43.5 -64t74.5 -21.5zM332 798q23 23 47 50.5t44 54t32 47.5h43v-8q-11 -16 -28 -36.5t-37.5 -42t-41 -40.5t-38.5 -33h-21v8z" />
    <glyph glyph-name="Ocircumflex" unicode="&#xd4;" horiz-adv-x="533" 
d="M217 -10q-58 0 -95 26.5t-55.5 76.5t-18.5 121q0 51 8 108t24 114t40 108.5t57 92t74.5 64t91.5 23.5q79 0 122.5 -51.5t43.5 -162.5q0 -45 -7 -100.5t-21.5 -114t-37 -113t-55.5 -98t-75 -69t-96 -25.5zM220 25q44 0 79.5 24t63.5 64.5t48 91t33 105t19.5 106t6.5 93.5
q0 91 -32 135.5t-98 44.5q-44 0 -80 -23.5t-64 -63t-48.5 -89.5t-33.5 -103.5t-19.5 -103.5t-6.5 -90q0 -63 14 -105.5t43.5 -64t74.5 -21.5zM243 785q20 20 43 46.5t44.5 54t36.5 50.5h32q5 -20 16 -49t24 -56.5t22 -45.5l-1 -8h-19q-11 16 -23 35t-22.5 40t-19.5 41
q-23 -28 -52.5 -59t-60.5 -57h-21z" />
    <glyph glyph-name="Otilde" unicode="&#xd5;" horiz-adv-x="533" 
d="M217 -10q-58 0 -95 26.5t-55.5 76.5t-18.5 121q0 51 8 108t24 114t40 108.5t57 92t74.5 64t91.5 23.5q79 0 122.5 -51.5t43.5 -162.5q0 -45 -7 -100.5t-21.5 -114t-37 -113t-55.5 -98t-75 -69t-96 -25.5zM220 25q44 0 79.5 24t63.5 64.5t48 91t33 105t19.5 106t6.5 93.5
q0 91 -32 135.5t-98 44.5q-44 0 -80 -23.5t-64 -63t-48.5 -89.5t-33.5 -103.5t-19.5 -103.5t-6.5 -90q0 -63 14 -105.5t43.5 -64t74.5 -21.5zM220 783q7 34 18.5 56t29.5 33t42 11q21 0 36.5 -10t28.5 -23t25 -23t27 -10q20 0 33.5 14.5t21.5 51.5h31q-6 -33 -18 -55.5
t-29.5 -33.5t-40.5 -11q-20 0 -35.5 10t-28 23.5t-25.5 23.5t-29 10q-22 0 -35.5 -16t-20.5 -51h-31z" />
    <glyph glyph-name="Odieresis" unicode="&#xd6;" horiz-adv-x="533" 
d="M217 -10q-58 0 -95 26.5t-55.5 76.5t-18.5 121q0 51 8 108t24 114t40 108.5t57 92t74.5 64t91.5 23.5q79 0 122.5 -51.5t43.5 -162.5q0 -45 -7 -100.5t-21.5 -114t-37 -113t-55.5 -98t-75 -69t-96 -25.5zM220 25q44 0 79.5 24t63.5 64.5t48 91t33 105t19.5 106t6.5 93.5
q0 91 -32 135.5t-98 44.5q-44 0 -80 -23.5t-64 -63t-48.5 -89.5t-33.5 -103.5t-19.5 -103.5t-6.5 -90q0 -63 14 -105.5t43.5 -64t74.5 -21.5zM462 830q-11 0 -16.5 6.5t-5.5 18.5q0 16 8 31t24 15q11 0 16.5 -6.5t5.5 -18.5q0 -16 -8.5 -31t-23.5 -15zM317 830
q-10 0 -16 6.5t-6 18.5q0 16 8 31t24 15q8 0 12.5 -3t7 -8.5t2.5 -13.5q0 -16 -8 -31t-24 -15z" />
    <glyph glyph-name="multiply" unicode="&#xd7;" horiz-adv-x="455" 
d="M392 534l23 -22l-158 -158l156 -158l-23 -22l-156 157l-157 -158l-22 23l157 158l-156 156l23 23l156 -157z" />
    <glyph glyph-name="Oslash" unicode="&#xd8;" horiz-adv-x="536" 
d="M21 -38l-26 18l76 108q-12 25 -17.5 57t-5.5 69q0 51 8 108t24 114t40 108.5t57 92t74.5 64t91.5 23.5q43 0 75 -15.5t53 -48.5l64 92l27 -18l-74 -106q10 -23 15.5 -52.5t5.5 -65.5q0 -45 -7 -100.5t-21.5 -114t-37 -113t-55.5 -98t-75 -69t-96 -25.5q-44 0 -76.5 17
t-52.5 49zM220 25q44 0 79.5 23.5t63 63.5t47.5 90t33 104t19.5 105.5t6.5 93.5q0 24 -2.5 44t-7.5 36l-347 -494q15 -33 42.5 -49.5t65.5 -16.5zM447 625q-15 33 -41.5 48.5t-65.5 15.5q-44 0 -80 -23t-64 -62.5t-48 -89t-33.5 -102t-20 -102.5t-6.5 -90q0 -26 3 -48.5
t8 -41.5z" />
    <glyph glyph-name="Ugrave" unicode="&#xd9;" horiz-adv-x="510" 
d="M201 -10q-46 0 -80.5 17t-53.5 51t-19 83q0 18 2.5 40t7.5 45l104 488h38l-104 -488q-5 -23 -7 -44.5t-2 -38.5q0 -58 31.5 -88t84.5 -30q52 0 86.5 24t57 71t37.5 116l104 478h38l-105 -482q-16 -76 -43.5 -130.5t-70 -83t-106.5 -28.5zM374 792q-14 19 -30.5 45.5
t-31.5 54.5t-25 50v8h39q10 -26 21 -52t23.5 -50.5t24.5 -46.5v-9h-21z" />
    <glyph glyph-name="Uacute" unicode="&#xda;" horiz-adv-x="510" 
d="M201 -10q-46 0 -80.5 17t-53.5 51t-19 83q0 18 2.5 40t7.5 45l104 488h38l-104 -488q-5 -23 -7 -44.5t-2 -38.5q0 -58 31.5 -88t84.5 -30q52 0 86.5 24t57 71t37.5 116l104 478h38l-105 -482q-16 -76 -43.5 -130.5t-70 -83t-106.5 -28.5zM322 798q23 23 47 50.5t44 54
t32 47.5h43v-8q-11 -16 -28 -36.5t-37.5 -42t-41 -40.5t-38.5 -33h-21v8z" />
    <glyph glyph-name="Ucircumflex" unicode="&#xdb;" horiz-adv-x="510" 
d="M201 -10q-46 0 -80.5 17t-53.5 51t-19 83q0 18 2.5 40t7.5 45l104 488h38l-104 -488q-5 -23 -7 -44.5t-2 -38.5q0 -58 31.5 -88t84.5 -30q52 0 86.5 24t57 71t37.5 116l104 478h38l-105 -482q-16 -76 -43.5 -130.5t-70 -83t-106.5 -28.5zM240 785q20 20 43 46.5t44.5 54
t36.5 50.5h32q5 -20 16 -49t24 -56.5t22 -45.5l-1 -8h-19q-11 16 -23 35t-22.5 40t-19.5 41q-23 -28 -52.5 -59t-60.5 -57h-21z" />
    <glyph glyph-name="Udieresis" unicode="&#xdc;" horiz-adv-x="510" 
d="M201 -10q-46 0 -80.5 17t-53.5 51t-19 83q0 18 2.5 40t7.5 45l104 488h38l-104 -488q-5 -23 -7 -44.5t-2 -38.5q0 -58 31.5 -88t84.5 -30q52 0 86.5 24t57 71t37.5 116l104 478h38l-105 -482q-16 -76 -43.5 -130.5t-70 -83t-106.5 -28.5zM451 830q-11 0 -16.5 6.5
t-5.5 18.5q0 16 8 31t24 15q11 0 16.5 -6.5t5.5 -18.5q0 -16 -8.5 -31t-23.5 -15zM306 830q-10 0 -16 6.5t-6 18.5q0 16 8 31t24 15q8 0 12.5 -3t7 -8.5t2.5 -13.5q0 -16 -8 -31t-24 -15z" />
    <glyph glyph-name="Yacute" unicode="&#xdd;" horiz-adv-x="359" 
d="M96 0l59 275l-69 439h39l57 -388l222 388h42l-253 -438l-59 -276h-38zM248 798q23 23 47 50.5t44 54t32 47.5h43v-8q-11 -16 -28 -36.5t-37.5 -42t-41 -40.5t-38.5 -33h-21v8z" />
    <glyph glyph-name="Thorn" unicode="&#xde;" horiz-adv-x="421" 
d="M16 0l151 714h38l-28 -131h61q56 0 93 -18.5t55.5 -52.5t18.5 -83q0 -61 -18 -109.5t-50.5 -82t-78.5 -51t-103 -17.5h-66l-36 -169h-37zM156 204q67 0 113.5 27t71 77t24.5 118q0 58 -31.5 90t-100.5 32h-63l-73 -344h59z" />
    <glyph glyph-name="germandbls" unicode="&#xdf;" horiz-adv-x="404" 
d="M-94 -240q-14 0 -26 2.5t-20 5.5v36q9 -5 20.5 -7.5t23.5 -2.5q35 0 53 28.5t29 83.5l147 689q13 58 33 95.5t51 56t75 18.5q53 0 81.5 -29.5t28.5 -74.5q0 -36 -11.5 -62t-30.5 -48t-44 -45q-31 -29 -47 -54t-16 -59q0 -17 6 -34t16 -34t21 -37q17 -25 32.5 -58
t15.5 -74q0 -49 -18 -86t-52.5 -58.5t-84.5 -21.5q-30 0 -54.5 7t-39.5 16l1 38q21 -13 44.5 -20t48.5 -7q54 0 85 34.5t31 95.5q0 22 -5.5 41.5t-14.5 38t-21 35.5q-19 29 -34 59.5t-15 62.5q0 28 8.5 50t24.5 41t36 38q24 22 41.5 42t28 43t10.5 54q0 34 -20.5 53
t-54.5 19q-33 0 -56 -15.5t-38 -45.5t-25 -77l-147 -690q-9 -42 -22.5 -74.5t-36 -50.5t-58.5 -18z" />
    <glyph glyph-name="agrave" unicode="&#xe0;" horiz-adv-x="437" 
d="M148 -10q-37 0 -62 19t-38 54.5t-13 86.5q0 48 9 101t27.5 104.5t46 92.5t63.5 66t82 25q32 0 53 -14t33.5 -36.5t16.5 -49.5h3l22 90h30l-111 -529h-31l18 100h-2q-17 -30 -39 -55t-48.5 -40t-59.5 -15zM155 24q41 0 73.5 30t56.5 79t38 105q10 44 16.5 84t6.5 74
q0 50 -22 79t-60 29q-37 0 -67 -22.5t-53 -60t-39 -84t-24 -95t-8 -90.5q0 -65 22 -96.5t60 -31.5zM302 607q-14 19 -30.5 45.5t-31.5 54.5t-25 50v8h39q10 -26 21 -52t23.5 -50.5t24.5 -46.5v-9h-21z" />
    <glyph glyph-name="aacute" unicode="&#xe1;" horiz-adv-x="437" 
d="M148 -10q-37 0 -62 19t-38 54.5t-13 86.5q0 48 9 101t27.5 104.5t46 92.5t63.5 66t82 25q32 0 53 -14t33.5 -36.5t16.5 -49.5h3l22 90h30l-111 -529h-31l18 100h-2q-17 -30 -39 -55t-48.5 -40t-59.5 -15zM155 24q41 0 73.5 30t56.5 79t38 105q10 44 16.5 84t6.5 74
q0 50 -22 79t-60 29q-37 0 -67 -22.5t-53 -60t-39 -84t-24 -95t-8 -90.5q0 -65 22 -96.5t60 -31.5zM247 613q23 23 47 50.5t44 54t32 47.5h43v-8q-11 -16 -28 -36.5t-37.5 -42t-41 -40.5t-38.5 -33h-21v8z" />
    <glyph glyph-name="acircumflex" unicode="&#xe2;" horiz-adv-x="437" 
d="M148 -10q-37 0 -62 19t-38 54.5t-13 86.5q0 48 9 101t27.5 104.5t46 92.5t63.5 66t82 25q32 0 53 -14t33.5 -36.5t16.5 -49.5h3l22 90h30l-111 -529h-31l18 100h-2q-17 -30 -39 -55t-48.5 -40t-59.5 -15zM155 24q41 0 73.5 30t56.5 79t38 105q10 44 16.5 84t6.5 74
q0 50 -22 79t-60 29q-37 0 -67 -22.5t-53 -60t-39 -84t-24 -95t-8 -90.5q0 -65 22 -96.5t60 -31.5zM176 614q20 20 43 46.5t44.5 54t36.5 50.5h32q5 -20 16 -49t24 -56.5t22 -45.5l-1 -8h-19q-11 16 -23 35t-22.5 40t-19.5 41q-23 -28 -52.5 -59t-60.5 -57h-21z" />
    <glyph glyph-name="atilde" unicode="&#xe3;" horiz-adv-x="437" 
d="M148 -10q-37 0 -62 19t-38 54.5t-13 86.5q0 48 9 101t27.5 104.5t46 92.5t63.5 66t82 25q32 0 53 -14t33.5 -36.5t16.5 -49.5h3l22 90h30l-111 -529h-31l18 100h-2q-17 -30 -39 -55t-48.5 -40t-59.5 -15zM155 24q41 0 73.5 30t56.5 79t38 105q10 44 16.5 84t6.5 74
q0 50 -22 79t-60 29q-37 0 -67 -22.5t-53 -60t-39 -84t-24 -95t-8 -90.5q0 -65 22 -96.5t60 -31.5zM151 612q7 34 18.5 56t29.5 33t42 11q21 0 36.5 -10t28.5 -23t25 -23t27 -10q20 0 33.5 14.5t21.5 51.5h31q-6 -33 -18 -55.5t-29.5 -33.5t-40.5 -11q-20 0 -35.5 10
t-28 23.5t-25.5 23.5t-29 10q-22 0 -35.5 -16t-20.5 -51h-31z" />
    <glyph glyph-name="adieresis" unicode="&#xe4;" horiz-adv-x="437" 
d="M148 -10q-37 0 -62 19t-38 54.5t-13 86.5q0 48 9 101t27.5 104.5t46 92.5t63.5 66t82 25q32 0 53 -14t33.5 -36.5t16.5 -49.5h3l22 90h30l-111 -529h-31l18 100h-2q-17 -30 -39 -55t-48.5 -40t-59.5 -15zM155 24q41 0 73.5 30t56.5 79t38 105q10 44 16.5 84t6.5 74
q0 50 -22 79t-60 29q-37 0 -67 -22.5t-53 -60t-39 -84t-24 -95t-8 -90.5q0 -65 22 -96.5t60 -31.5zM362 644q-11 0 -16.5 6.5t-5.5 18.5q0 16 8 31t24 15q11 0 16.5 -6.5t5.5 -18.5q0 -16 -8.5 -31t-23.5 -15zM217 644q-10 0 -16 6.5t-6 18.5q0 16 8 31t24 15q8 0 12.5 -3
t7 -8.5t2.5 -13.5q0 -16 -8 -31t-24 -15z" />
    <glyph glyph-name="aring" unicode="&#xe5;" horiz-adv-x="437" 
d="M148 -10q-37 0 -62 19t-38 54.5t-13 86.5q0 48 9 101t27.5 104.5t46 92.5t63.5 66t82 25q32 0 53 -14t33.5 -36.5t16.5 -49.5h3l22 90h30l-111 -529h-31l18 100h-2q-17 -30 -39 -55t-48.5 -40t-59.5 -15zM155 24q41 0 73.5 30t56.5 79t38 105q10 44 16.5 84t6.5 74
q0 50 -22 79t-60 29q-37 0 -67 -22.5t-53 -60t-39 -84t-24 -95t-8 -90.5q0 -65 22 -96.5t60 -31.5zM300 611q-42 0 -67.5 25t-25.5 67q0 41 25.5 67t67.5 26q43 0 68 -26.5t25 -65.5q0 -40 -25.5 -66.5t-67.5 -26.5zM300 640q29 0 46 17.5t17 45.5t-17 46t-46 18t-46.5 -18
t-17.5 -46t17 -45.5t47 -17.5z" />
    <glyph glyph-name="ae" unicode="&#xe6;" horiz-adv-x="651" 
d="M145 -10q-35 0 -59.5 18.5t-37.5 54.5t-13 87q0 50 9.5 103.5t28 104.5t46 91.5t63 65t79.5 24.5q31 0 51 -14.5t31.5 -36.5t15.5 -48h2l22 89h29l-21 -95q28 46 65.5 75.5t84.5 29.5q42 0 69 -25.5t27 -75.5q0 -40 -17.5 -74t-51 -60t-83.5 -40t-115 -14h-14
q-3 -19 -5 -41t-2 -46q0 -69 26.5 -104t82.5 -35q28 0 54 8.5t49 20.5l-2 -36q-20 -12 -47.5 -19.5t-59.5 -7.5q-52 0 -85.5 28t-43.5 88l-22 -106h-29l18 98h-2q-16 -30 -37 -55t-47 -39t-59 -14zM154 24q30 0 55 17t45.5 47t36 68.5t25.5 81.5q10 44 16.5 84.5t6.5 74.5
q0 50 -20 78.5t-57 28.5q-35 0 -65 -22t-53 -59.5t-39 -83.5t-24 -95t-8 -93q0 -65 22 -96t59 -31zM377 282q75 0 124.5 21.5t74 56t24.5 77.5q0 30 -16 49t-48 19q-38 0 -72.5 -28.5t-61.5 -78.5t-41 -116h16z" />
    <glyph glyph-name="ccedilla" unicode="&#xe7;" horiz-adv-x="331" 
d="M173 -10q-44 0 -75 19t-46.5 57t-15.5 96q0 49 9.5 101.5t28 101.5t46.5 88.5t65.5 62.5t84.5 23q23 0 45 -4.5t38 -12.5l-13 -34q-15 9 -33.5 12.5t-37.5 3.5q-46 0 -82 -30.5t-61.5 -81t-38.5 -110.5t-13 -118q0 -46 11.5 -77.5t35 -47t57.5 -15.5q23 0 44 6t41 16v-35
q-17 -9 -39.5 -15t-50.5 -6zM64 -240q-19 0 -32.5 2t-24.5 5v30q9 -3 23 -5t33 -2q24 0 44.5 8.5t32 25t11.5 37.5q0 28 -21 41.5t-60 16.5l53 81h30l-40 -63q32 -5 52 -23t20 -50q0 -31 -16 -54.5t-43 -36.5t-62 -13z" />
    <glyph glyph-name="egrave" unicode="&#xe8;" horiz-adv-x="384" 
d="M175 -10q-41 0 -72.5 18.5t-49 56t-17.5 94.5q0 77 18 145.5t49 121.5t72.5 83t88.5 30q44 0 71 -25.5t27 -75.5q0 -40 -17 -74t-50.5 -59.5t-83.5 -40t-116 -14.5h-14q-3 -19 -5 -41t-2 -46q0 -71 27.5 -105t81.5 -34q29 0 54 8.5t48 20.5v-36q-20 -11 -48 -19t-62 -8z
M102 282q75 0 124.5 21.5t74 56t24.5 76.5q0 32 -16 50.5t-49 18.5q-36 0 -71 -28.5t-62 -78.5t-40 -116h15zM275 606q-14 19 -30.5 45.5t-31.5 54.5t-25 50v8h39q10 -26 21 -52t23.5 -50.5t24.5 -46.5v-9h-21z" />
    <glyph glyph-name="eacute" unicode="&#xe9;" horiz-adv-x="384" 
d="M175 -10q-41 0 -72.5 18.5t-49 56t-17.5 94.5q0 77 18 145.5t49 121.5t72.5 83t88.5 30q44 0 71 -25.5t27 -75.5q0 -40 -17 -74t-50.5 -59.5t-83.5 -40t-116 -14.5h-14q-3 -19 -5 -41t-2 -46q0 -71 27.5 -105t81.5 -34q29 0 54 8.5t48 20.5v-36q-20 -11 -48 -19t-62 -8z
M102 282q75 0 124.5 21.5t74 56t24.5 76.5q0 32 -16 50.5t-49 18.5q-36 0 -71 -28.5t-62 -78.5t-40 -116h15zM223 612q23 23 47 50.5t44 54t32 47.5h43v-8q-11 -16 -28 -36.5t-37.5 -42t-41 -40.5t-38.5 -33h-21v8z" />
    <glyph glyph-name="ecircumflex" unicode="&#xea;" horiz-adv-x="384" 
d="M175 -10q-41 0 -72.5 18.5t-49 56t-17.5 94.5q0 77 18 145.5t49 121.5t72.5 83t88.5 30q44 0 71 -25.5t27 -75.5q0 -40 -17 -74t-50.5 -59.5t-83.5 -40t-116 -14.5h-14q-3 -19 -5 -41t-2 -46q0 -71 27.5 -105t81.5 -34q29 0 54 8.5t48 20.5v-36q-20 -11 -48 -19t-62 -8z
M102 282q75 0 124.5 21.5t74 56t24.5 76.5q0 32 -16 50.5t-49 18.5q-36 0 -71 -28.5t-62 -78.5t-40 -116h15zM160 614q20 20 43 46.5t44.5 54t36.5 50.5h32q5 -20 16 -49t24 -56.5t22 -45.5l-1 -8h-19q-11 16 -23 35t-22.5 40t-19.5 41q-23 -28 -52.5 -59t-60.5 -57h-21z
" />
    <glyph glyph-name="edieresis" unicode="&#xeb;" horiz-adv-x="384" 
d="M175 -10q-41 0 -72.5 18.5t-49 56t-17.5 94.5q0 77 18 145.5t49 121.5t72.5 83t88.5 30q44 0 71 -25.5t27 -75.5q0 -40 -17 -74t-50.5 -59.5t-83.5 -40t-116 -14.5h-14q-3 -19 -5 -41t-2 -46q0 -71 27.5 -105t81.5 -34q29 0 54 8.5t48 20.5v-36q-20 -11 -48 -19t-62 -8z
M102 282q75 0 124.5 21.5t74 56t24.5 76.5q0 32 -16 50.5t-49 18.5q-36 0 -71 -28.5t-62 -78.5t-40 -116h15zM347 644q-11 0 -16.5 6.5t-5.5 18.5q0 16 8 31t24 15q11 0 16.5 -6.5t5.5 -18.5q0 -16 -8.5 -31t-23.5 -15zM202 644q-10 0 -16 6.5t-6 18.5q0 16 8 31t24 15
q8 0 12.5 -3t7 -8.5t2.5 -13.5q0 -16 -8 -31t-24 -15z" />
    <glyph glyph-name="igrave" unicode="&#xec;" horiz-adv-x="179" 
d="M13 0l112 529h36l-112 -529h-36zM168 607q-14 19 -30.5 45.5t-31.5 54.5t-25 50v8h39q10 -26 21 -52t23.5 -50.5t24.5 -46.5v-9h-21z" />
    <glyph glyph-name="iacute" unicode="&#xed;" horiz-adv-x="179" 
d="M13 0l112 529h36l-112 -529h-36zM116 613q23 23 47 50.5t44 54t32 47.5h43v-8q-11 -16 -28 -36.5t-37.5 -42t-41 -40.5t-38.5 -33h-21v8z" />
    <glyph glyph-name="icircumflex" unicode="&#xee;" horiz-adv-x="179" 
d="M13 0l112 529h36l-112 -529h-36zM45 614q20 20 43 46.5t44.5 54t36.5 50.5h32q5 -20 16 -49t24 -56.5t22 -45.5l-1 -8h-19q-11 16 -23 35t-22.5 40t-19.5 41q-23 -28 -52.5 -59t-60.5 -57h-21z" />
    <glyph glyph-name="idieresis" unicode="&#xef;" horiz-adv-x="179" 
d="M13 0l112 529h36l-112 -529h-36zM230 644q-11 0 -16.5 6.5t-5.5 18.5q0 16 8 31t24 15q11 0 16.5 -6.5t5.5 -18.5q0 -16 -8.5 -31t-23.5 -15zM85 644q-10 0 -16 6.5t-6 18.5q0 16 8 31t24 15q8 0 12.5 -3t7 -8.5t2.5 -13.5q0 -16 -8 -31t-24 -15z" />
    <glyph glyph-name="eth" unicode="&#xf0;" horiz-adv-x="423" 
d="M153 -10q-42 0 -71.5 19.5t-45.5 56.5t-16 87q0 53 13.5 108t40 101t66 74.5t92.5 28.5q50 0 76 -29.5t34 -68.5h2q0 83 -19 156.5t-58 127.5l-122 -69l-14 27l118 65q-11 16 -33.5 34t-48.5 33l20 25q25 -13 48.5 -32t44.5 -43l118 65l15 -25l-115 -63q25 -35 43 -80
t28 -97t10 -109q0 -45 -7.5 -98.5t-23 -105.5t-42 -94.5t-64 -68t-89.5 -25.5zM155 24q34 0 62 17.5t49 47.5t35 66t21.5 74t7.5 72q0 26 -6 49.5t-18 41.5t-30.5 28.5t-44.5 10.5q-42 0 -74.5 -25t-54.5 -66t-33 -90t-11 -96q0 -64 26.5 -97t70.5 -33z" />
    <glyph glyph-name="ntilde" unicode="&#xf1;" horiz-adv-x="425" 
d="M12 0l112 529h31l-17 -93h2q14 28 35.5 51.5t49.5 37.5t62 14q31 0 53 -11t34.5 -33t12.5 -55q0 -21 -5 -50.5t-11 -55.5l-71 -334h-37l72 339q5 26 9.5 50.5t4.5 45.5q0 35 -18.5 52t-51.5 17q-40 0 -73 -26.5t-57 -76.5t-40 -120l-59 -281h-38zM140 612q7 34 18.5 56
t29.5 33t42 11q21 0 36.5 -10t28.5 -23t25 -23t27 -10q20 0 33.5 14.5t21.5 51.5h31q-6 -33 -18 -55.5t-29.5 -33.5t-40.5 -11q-20 0 -35.5 10t-28 23.5t-25.5 23.5t-29 10q-22 0 -35.5 -16t-20.5 -51h-31z" />
    <glyph glyph-name="ograve" unicode="&#xf2;" horiz-adv-x="428" 
d="M167 -10q-42 0 -71.5 18.5t-45 56t-15.5 91.5q0 44 8.5 95.5t26.5 102.5t45.5 92.5t64.5 66.5t84 25q41 0 69.5 -19t43.5 -56t15 -91q0 -49 -9 -102t-27 -103t-45 -90t-63 -63.5t-81 -23.5zM169 24q36 0 65.5 22t52 59t37.5 83t22.5 94t7.5 91q0 41 -10.5 70.5t-30.5 45
t-52 15.5q-37 0 -66.5 -23t-52 -61t-38 -84.5t-23.5 -93.5t-8 -86q0 -64 24.5 -98t71.5 -34zM290 606q-14 19 -30.5 45.5t-31.5 54.5t-25 50v8h39q10 -26 21 -52t23.5 -50.5t24.5 -46.5v-9h-21z" />
    <glyph glyph-name="oacute" unicode="&#xf3;" horiz-adv-x="428" 
d="M167 -10q-42 0 -71.5 18.5t-45 56t-15.5 91.5q0 44 8.5 95.5t26.5 102.5t45.5 92.5t64.5 66.5t84 25q41 0 69.5 -19t43.5 -56t15 -91q0 -49 -9 -102t-27 -103t-45 -90t-63 -63.5t-81 -23.5zM169 24q36 0 65.5 22t52 59t37.5 83t22.5 94t7.5 91q0 41 -10.5 70.5t-30.5 45
t-52 15.5q-37 0 -66.5 -23t-52 -61t-38 -84.5t-23.5 -93.5t-8 -86q0 -64 24.5 -98t71.5 -34zM240 612q23 23 47 50.5t44 54t32 47.5h43v-8q-11 -16 -28 -36.5t-37.5 -42t-41 -40.5t-38.5 -33h-21v8z" />
    <glyph glyph-name="ocircumflex" unicode="&#xf4;" horiz-adv-x="428" 
d="M167 -10q-42 0 -71.5 18.5t-45 56t-15.5 91.5q0 44 8.5 95.5t26.5 102.5t45.5 92.5t64.5 66.5t84 25q41 0 69.5 -19t43.5 -56t15 -91q0 -49 -9 -102t-27 -103t-45 -90t-63 -63.5t-81 -23.5zM169 24q36 0 65.5 22t52 59t37.5 83t22.5 94t7.5 91q0 41 -10.5 70.5t-30.5 45
t-52 15.5q-37 0 -66.5 -23t-52 -61t-38 -84.5t-23.5 -93.5t-8 -86q0 -64 24.5 -98t71.5 -34zM165 614q20 20 43 46.5t44.5 54t36.5 50.5h32q5 -20 16 -49t24 -56.5t22 -45.5l-1 -8h-19q-11 16 -23 35t-22.5 40t-19.5 41q-23 -28 -52.5 -59t-60.5 -57h-21z" />
    <glyph glyph-name="otilde" unicode="&#xf5;" horiz-adv-x="428" 
d="M167 -10q-42 0 -71.5 18.5t-45 56t-15.5 91.5q0 44 8.5 95.5t26.5 102.5t45.5 92.5t64.5 66.5t84 25q41 0 69.5 -19t43.5 -56t15 -91q0 -49 -9 -102t-27 -103t-45 -90t-63 -63.5t-81 -23.5zM169 24q36 0 65.5 22t52 59t37.5 83t22.5 94t7.5 91q0 41 -10.5 70.5t-30.5 45
t-52 15.5q-37 0 -66.5 -23t-52 -61t-38 -84.5t-23.5 -93.5t-8 -86q0 -64 24.5 -98t71.5 -34zM136 612q7 34 18.5 56t29.5 33t42 11q21 0 36.5 -10t28.5 -23t25 -23t27 -10q20 0 33.5 14.5t21.5 51.5h31q-6 -33 -18 -55.5t-29.5 -33.5t-40.5 -11q-20 0 -35.5 10t-28 23.5
t-25.5 23.5t-29 10q-22 0 -35.5 -16t-20.5 -51h-31z" />
    <glyph glyph-name="odieresis" unicode="&#xf6;" horiz-adv-x="428" 
d="M167 -10q-42 0 -71.5 18.5t-45 56t-15.5 91.5q0 44 8.5 95.5t26.5 102.5t45.5 92.5t64.5 66.5t84 25q41 0 69.5 -19t43.5 -56t15 -91q0 -49 -9 -102t-27 -103t-45 -90t-63 -63.5t-81 -23.5zM169 24q36 0 65.5 22t52 59t37.5 83t22.5 94t7.5 91q0 41 -10.5 70.5t-30.5 45
t-52 15.5q-37 0 -66.5 -23t-52 -61t-38 -84.5t-23.5 -93.5t-8 -86q0 -64 24.5 -98t71.5 -34zM354 644q-11 0 -16.5 6.5t-5.5 18.5q0 16 8 31t24 15q11 0 16.5 -6.5t5.5 -18.5q0 -16 -8.5 -31t-23.5 -15zM209 644q-10 0 -16 6.5t-6 18.5q0 16 8 31t24 15q8 0 12.5 -3t7 -8.5
t2.5 -13.5q0 -16 -8 -31t-24 -15z" />
    <glyph glyph-name="divide" unicode="&#xf7;" horiz-adv-x="455" 
d="M44 336v34h381v-34h-381zM234 136q-17 0 -23.5 11t-6.5 28q0 19 7.5 29.5t22.5 10.5q18 0 24.5 -11t6.5 -28q0 -18 -6.5 -29t-24.5 -11zM234 490q-17 0 -23.5 11t-6.5 29q0 17 6.5 28t23.5 11q18 0 24.5 -11t6.5 -29q0 -17 -6.5 -28t-24.5 -11z" />
    <glyph glyph-name="oslash" unicode="&#xf8;" horiz-adv-x="430" 
d="M24 -52l-25 17l58 87q-11 20 -16.5 46t-5.5 58q0 44 8.5 95.5t26.5 102t45.5 92.5t64.5 67t84 25q28 0 50.5 -9t38.5 -28l51 76l26 -17l-58 -86q10 -19 15 -44.5t5 -56.5q0 -49 -8.5 -101.5t-27 -102.5t-45 -90.5t-63 -64.5t-81.5 -24q-29 0 -51.5 9.5t-38.5 26.5z
M169 24q36 0 65.5 21.5t51.5 58t37.5 81.5t23 92.5t7.5 90.5q1 20 -1 36.5t-7 29.5l-249 -376q13 -17 31 -25.5t41 -8.5zM332 469q-11 17 -29 26.5t-42 9.5q-36 0 -66 -22.5t-52.5 -60.5t-38 -83.5t-23.5 -92.5t-8 -87q0 -20 2.5 -37.5t7.5 -31.5z" />
    <glyph glyph-name="ugrave" unicode="&#xf9;" horiz-adv-x="426" 
d="M134 -10q-30 0 -52.5 11t-34.5 33.5t-12 54.5q0 20 4.5 49t10.5 55l71 336h37l-72 -342q-5 -24 -9.5 -48t-4.5 -45q0 -35 18.5 -52.5t51.5 -17.5q41 0 74 27t57.5 77t38.5 120l59 281h37l-111 -529h-30l16 92h-3q-13 -27 -34.5 -50.5t-49.5 -37.5t-62 -14zM293 606
q-14 19 -30.5 45.5t-31.5 54.5t-25 50v8h39q10 -26 21 -52t23.5 -50.5t24.5 -46.5v-9h-21z" />
    <glyph glyph-name="uacute" unicode="&#xfa;" horiz-adv-x="426" 
d="M134 -10q-30 0 -52.5 11t-34.5 33.5t-12 54.5q0 20 4.5 49t10.5 55l71 336h37l-72 -342q-5 -24 -9.5 -48t-4.5 -45q0 -35 18.5 -52.5t51.5 -17.5q41 0 74 27t57.5 77t38.5 120l59 281h37l-111 -529h-30l16 92h-3q-13 -27 -34.5 -50.5t-49.5 -37.5t-62 -14zM240 612
q23 23 47 50.5t44 54t32 47.5h43v-8q-11 -16 -28 -36.5t-37.5 -42t-41 -40.5t-38.5 -33h-21v8z" />
    <glyph glyph-name="ucircumflex" unicode="&#xfb;" horiz-adv-x="426" 
d="M134 -10q-30 0 -52.5 11t-34.5 33.5t-12 54.5q0 20 4.5 49t10.5 55l71 336h37l-72 -342q-5 -24 -9.5 -48t-4.5 -45q0 -35 18.5 -52.5t51.5 -17.5q41 0 74 27t57.5 77t38.5 120l59 281h37l-111 -529h-30l16 92h-3q-13 -27 -34.5 -50.5t-49.5 -37.5t-62 -14zM168 614
q20 20 43 46.5t44.5 54t36.5 50.5h32q5 -20 16 -49t24 -56.5t22 -45.5l-1 -8h-19q-11 16 -23 35t-22.5 40t-19.5 41q-23 -28 -52.5 -59t-60.5 -57h-21z" />
    <glyph glyph-name="udieresis" unicode="&#xfc;" horiz-adv-x="426" 
d="M134 -10q-30 0 -52.5 11t-34.5 33.5t-12 54.5q0 20 4.5 49t10.5 55l71 336h37l-72 -342q-5 -24 -9.5 -48t-4.5 -45q0 -35 18.5 -52.5t51.5 -17.5q41 0 74 27t57.5 77t38.5 120l59 281h37l-111 -529h-30l16 92h-3q-13 -27 -34.5 -50.5t-49.5 -37.5t-62 -14zM349 644
q-11 0 -16.5 6.5t-5.5 18.5q0 16 8 31t24 15q11 0 16.5 -6.5t5.5 -18.5q0 -16 -8.5 -31t-23.5 -15zM204 644q-10 0 -16 6.5t-6 18.5q0 16 8 31t24 15q8 0 12.5 -3t7 -8.5t2.5 -13.5q0 -16 -8 -31t-24 -15z" />
    <glyph glyph-name="yacute" unicode="&#xfd;" horiz-adv-x="339" 
d="M-62 -243q-16 0 -28.5 3t-19.5 7l4 35q9 -4 20 -7t25 -3q33 0 57 24t50 77l54 116l-31 520h37l18 -359q2 -18 3 -37t1.5 -37.5t0.5 -33.5h2q7 15 14.5 33.5t16.5 37t17 34.5l171 362h39l-309 -647q-20 -42 -40.5 -69.5t-44.5 -41.5t-57 -14zM193 612q23 23 47 50.5t44 54
t32 47.5h43v-8q-11 -16 -28 -36.5t-37.5 -42t-41 -40.5t-38.5 -33h-21v8z" />
    <glyph glyph-name="thorn" unicode="&#xfe;" horiz-adv-x="439" 
d="M-35 -230l209 990h37l-54 -252q-5 -22 -9.5 -42t-9.5 -37h3q17 31 39 55.5t49.5 39t60.5 14.5q54 0 84.5 -41.5t30.5 -117.5q0 -48 -9.5 -101.5t-27.5 -104.5t-45.5 -92.5t-64 -66t-82.5 -24.5q-32 0 -54.5 13t-35 34.5t-17.5 47.5h-3q-3 -24 -8.5 -52.5t-11.5 -54.5
l-44 -208h-37zM175 24q37 0 67.5 23t54 61t39 84.5t23.5 94.5t8 90q0 65 -23 96.5t-63 31.5q-38 0 -71.5 -29.5t-58 -77t-38.5 -103.5q-9 -33 -14 -64t-8 -56.5t-3 -42.5q0 -51 23.5 -79.5t63.5 -28.5z" />
    <glyph glyph-name="ydieresis" unicode="&#xff;" horiz-adv-x="339" 
d="M-62 -243q-16 0 -28.5 3t-19.5 7l4 35q9 -4 20 -7t25 -3q33 0 57 24t50 77l54 116l-31 520h37l18 -359q2 -18 3 -37t1.5 -37.5t0.5 -33.5h2q7 15 14.5 33.5t16.5 37t17 34.5l171 362h39l-309 -647q-20 -42 -40.5 -69.5t-44.5 -41.5t-57 -14zM290 644q-11 0 -16.5 6.5
t-5.5 18.5q0 16 8 31t24 15q11 0 16.5 -6.5t5.5 -18.5q0 -16 -8.5 -31t-23.5 -15zM145 644q-10 0 -16 6.5t-6 18.5q0 16 8 31t24 15q8 0 12.5 -3t7 -8.5t2.5 -13.5q0 -16 -8 -31t-24 -15z" />
    <glyph glyph-name="Amacron" unicode="&#x100;" horiz-adv-x="404" 
d="M-63 0l330 717h45l30 -717h-38l-11 269h-191l-123 -269h-42zM117 304h175l-9 282l-2 44t0 39h-3q-6 -17 -15 -38t-20 -46zM180 796l7 33h227l-7 -33h-227z" />
    <glyph glyph-name="amacron" unicode="&#x101;" horiz-adv-x="437" 
d="M148 -10q-37 0 -62 19t-38 54.5t-13 86.5q0 48 9 101t27.5 104.5t46 92.5t63.5 66t82 25q32 0 53 -14t33.5 -36.5t16.5 -49.5h3l22 90h30l-111 -529h-31l18 100h-2q-17 -30 -39 -55t-48.5 -40t-59.5 -15zM155 24q41 0 73.5 30t56.5 79t38 105q10 44 16.5 84t6.5 74
q0 50 -22 79t-60 29q-37 0 -67 -22.5t-53 -60t-39 -84t-24 -95t-8 -90.5q0 -65 22 -96.5t60 -31.5zM172 612l7 33h227l-7 -33h-227z" />
    <glyph glyph-name="Abreve" unicode="&#x102;" horiz-adv-x="404" 
d="M-63 0l330 717h45l30 -717h-38l-11 269h-191l-123 -269h-42zM117 304h175l-9 282l-2 44t0 39h-3q-6 -17 -15 -38t-20 -46zM300 791q-34 0 -55 12t-31 33t-10 47v11v8h28q-1 -23 4.5 -41t21 -27.5t43.5 -9.5q41 0 61.5 18.5t29.5 59.5h28q-10 -55 -38.5 -83t-81.5 -28z
" />
    <glyph glyph-name="abreve" unicode="&#x103;" horiz-adv-x="437" 
d="M148 -10q-37 0 -62 19t-38 54.5t-13 86.5q0 48 9 101t27.5 104.5t46 92.5t63.5 66t82 25q32 0 53 -14t33.5 -36.5t16.5 -49.5h3l22 90h30l-111 -529h-31l18 100h-2q-17 -30 -39 -55t-48.5 -40t-59.5 -15zM155 24q41 0 73.5 30t56.5 79t38 105q10 44 16.5 84t6.5 74
q0 50 -22 79t-60 29q-37 0 -67 -22.5t-53 -60t-39 -84t-24 -95t-8 -90.5q0 -65 22 -96.5t60 -31.5zM293 607q-34 0 -55 12t-31 33t-10 47v11v8h28q-1 -23 4.5 -41t21 -27.5t43.5 -9.5q41 0 61.5 18.5t29.5 59.5h28q-10 -55 -38.5 -83t-81.5 -28z" />
    <glyph glyph-name="Aogonek" unicode="&#x104;" horiz-adv-x="404" 
d="M-63 0l330 717h45l30 -717h-38l-11 269h-191l-123 -269h-42zM117 304h175l-9 282l-2 44t0 39h-3q-6 -17 -15 -38t-20 -46zM269 -217q-33 0 -52 19t-19 49q0 28 12 52.5t36 49t61 50.5l29 -3q-32 -26 -55 -49t-35 -46t-12 -48q0 -21 11 -31.5t32 -10.5q11 0 20.5 2t18.5 4
l-4 -30q-9 -3 -19 -5.5t-24 -2.5z" />
    <glyph glyph-name="aogonek" unicode="&#x105;" horiz-adv-x="437" 
d="M148 -10q-37 0 -62 19t-38 54.5t-13 86.5q0 48 9 101t27.5 104.5t46 92.5t63.5 66t82 25q32 0 53 -14t33.5 -36.5t16.5 -49.5h3l22 90h30l-111 -529h-31l18 100h-2q-17 -30 -39 -55t-48.5 -40t-59.5 -15zM155 24q41 0 73.5 30t56.5 79t38 105q10 44 16.5 84t6.5 74
q0 50 -22 79t-60 29q-37 0 -67 -22.5t-53 -60t-39 -84t-24 -95t-8 -90.5q0 -65 22 -96.5t60 -31.5zM242 -217q-33 0 -52 19t-19 49q0 28 12 52.5t36 49t61 50.5l29 -3q-32 -26 -55 -49t-35 -46t-12 -48q0 -21 11 -31.5t32 -10.5q11 0 20.5 2t18.5 4l-4 -30q-9 -3 -19 -5.5
t-24 -2.5z" />
    <glyph glyph-name="Cacute" unicode="&#x106;" horiz-adv-x="421" 
d="M228 -10q-58 0 -97.5 27.5t-60 82t-20.5 136.5q0 61 13.5 128.5t40 131.5t65.5 115.5t90.5 82.5t116.5 31q35 0 62.5 -8t48.5 -23l-20 -32q-18 14 -41.5 21t-51.5 7q-54 0 -99 -29t-80 -76.5t-58.5 -106.5t-35.5 -121.5t-12 -118.5q0 -108 37 -160.5t107 -52.5
q27 0 52.5 5.5t52.5 15.5v-36q-26 -9 -53 -14.5t-57 -5.5zM294 798q23 23 47 50.5t44 54t32 47.5h43v-8q-11 -16 -28 -36.5t-37.5 -42t-41 -40.5t-38.5 -33h-21v8z" />
    <glyph glyph-name="cacute" unicode="&#x107;" horiz-adv-x="331" 
d="M173 -10q-44 0 -75 19t-46.5 57t-15.5 96q0 49 9.5 101.5t28 101.5t46.5 88.5t65.5 62.5t84.5 23q23 0 45 -4.5t38 -12.5l-13 -34q-15 9 -33.5 12.5t-37.5 3.5q-46 0 -82 -30.5t-61.5 -81t-38.5 -110.5t-13 -118q0 -46 11.5 -77.5t35 -47t57.5 -15.5q23 0 44 6t41 16v-35
q-17 -9 -39.5 -15t-50.5 -6zM201 613q23 23 47 50.5t44 54t32 47.5h43v-8q-11 -16 -28 -36.5t-37.5 -42t-41 -40.5t-38.5 -33h-21v8z" />
    <glyph glyph-name="Ccircumflex" unicode="&#x108;" horiz-adv-x="421" 
d="M228 -10q-58 0 -97.5 27.5t-60 82t-20.5 136.5q0 61 13.5 128.5t40 131.5t65.5 115.5t90.5 82.5t116.5 31q35 0 62.5 -8t48.5 -23l-20 -32q-18 14 -41.5 21t-51.5 7q-54 0 -99 -29t-80 -76.5t-58.5 -106.5t-35.5 -121.5t-12 -118.5q0 -108 37 -160.5t107 -52.5
q27 0 52.5 5.5t52.5 15.5v-36q-26 -9 -53 -14.5t-57 -5.5zM255 785q20 20 43 46.5t44.5 54t36.5 50.5h32q5 -20 16 -49t24 -56.5t22 -45.5l-1 -8h-19q-11 16 -23 35t-22.5 40t-19.5 41q-23 -28 -52.5 -59t-60.5 -57h-21z" />
    <glyph glyph-name="ccircumflex" unicode="&#x109;" horiz-adv-x="331" 
d="M173 -10q-44 0 -75 19t-46.5 57t-15.5 96q0 49 9.5 101.5t28 101.5t46.5 88.5t65.5 62.5t84.5 23q23 0 45 -4.5t38 -12.5l-13 -34q-15 9 -33.5 12.5t-37.5 3.5q-46 0 -82 -30.5t-61.5 -81t-38.5 -110.5t-13 -118q0 -46 11.5 -77.5t35 -47t57.5 -15.5q23 0 44 6t41 16v-35
q-17 -9 -39.5 -15t-50.5 -6zM147 614q20 20 43 46.5t44.5 54t36.5 50.5h32q5 -20 16 -49t24 -56.5t22 -45.5l-1 -8h-19q-11 16 -23 35t-22.5 40t-19.5 41q-23 -28 -52.5 -59t-60.5 -57h-21z" />
    <glyph glyph-name="Cdotaccent" unicode="&#x10a;" horiz-adv-x="421" 
d="M228 -10q-58 0 -97.5 27.5t-60 82t-20.5 136.5q0 61 13.5 128.5t40 131.5t65.5 115.5t90.5 82.5t116.5 31q35 0 62.5 -8t48.5 -23l-20 -32q-18 14 -41.5 21t-51.5 7q-54 0 -99 -29t-80 -76.5t-58.5 -106.5t-35.5 -121.5t-12 -118.5q0 -108 37 -160.5t107 -52.5
q27 0 52.5 5.5t52.5 15.5v-36q-26 -9 -53 -14.5t-57 -5.5zM402 818q-11 0 -17.5 7.5t-6.5 20.5q0 16 8.5 32t26.5 16q8 0 13 -3t7.5 -9t2.5 -15q0 -17 -9 -33t-25 -16z" />
    <glyph glyph-name="cdotaccent" unicode="&#x10b;" horiz-adv-x="331" 
d="M173 -10q-44 0 -75 19t-46.5 57t-15.5 96q0 49 9.5 101.5t28 101.5t46.5 88.5t65.5 62.5t84.5 23q23 0 45 -4.5t38 -12.5l-13 -34q-15 9 -33.5 12.5t-37.5 3.5q-46 0 -82 -30.5t-61.5 -81t-38.5 -110.5t-13 -118q0 -46 11.5 -77.5t35 -47t57.5 -15.5q23 0 44 6t41 16v-35
q-17 -9 -39.5 -15t-50.5 -6zM292 643q-11 0 -17.5 7.5t-6.5 20.5q0 16 8.5 32t26.5 16q8 0 13 -3t7.5 -9t2.5 -15q0 -17 -9 -33t-25 -16z" />
    <glyph glyph-name="Ccaron" unicode="&#x10c;" horiz-adv-x="421" 
d="M228 -10q-58 0 -97.5 27.5t-60 82t-20.5 136.5q0 61 13.5 128.5t40 131.5t65.5 115.5t90.5 82.5t116.5 31q35 0 62.5 -8t48.5 -23l-20 -32q-18 14 -41.5 21t-51.5 7q-54 0 -99 -29t-80 -76.5t-58.5 -106.5t-35.5 -121.5t-12 -118.5q0 -108 37 -160.5t107 -52.5
q27 0 52.5 5.5t52.5 15.5v-36q-26 -9 -53 -14.5t-57 -5.5zM363 777q-5 21 -16 49.5t-23.5 56.5t-23.5 45l2 8h19q11 -14 22.5 -33.5t22.5 -40.5t19 -42q24 29 53.5 60t60.5 56h21l-1 -8q-18 -18 -42 -45t-46 -54.5t-36 -51.5h-32z" />
    <glyph glyph-name="ccaron" unicode="&#x10d;" horiz-adv-x="331" 
d="M173 -10q-44 0 -75 19t-46.5 57t-15.5 96q0 49 9.5 101.5t28 101.5t46.5 88.5t65.5 62.5t84.5 23q23 0 45 -4.5t38 -12.5l-13 -34q-15 9 -33.5 12.5t-37.5 3.5q-46 0 -82 -30.5t-61.5 -81t-38.5 -110.5t-13 -118q0 -46 11.5 -77.5t35 -47t57.5 -15.5q23 0 44 6t41 16v-35
q-17 -9 -39.5 -15t-50.5 -6zM255 606q-5 21 -16 49.5t-23.5 56.5t-23.5 45l2 8h19q11 -14 22.5 -33.5t22.5 -40.5t19 -42q24 29 53.5 60t60.5 56h21l-1 -8q-18 -18 -42 -45t-46 -54.5t-36 -51.5h-32z" />
    <glyph glyph-name="Dcaron" unicode="&#x10e;" horiz-adv-x="498" 
d="M16 0l151 714h104q96 0 149.5 -55.5t53.5 -175.5q0 -61 -12.5 -128t-38.5 -130t-67 -114t-98.5 -81t-133.5 -30h-108zM126 35q65 0 115 27.5t86.5 74.5t60 105.5t35 120.5t11.5 120q0 106 -44 151t-127 45h-65l-137 -644h65zM311 777q-5 21 -16 49.5t-23.5 56.5t-23.5 45
l2 8h19q11 -14 22.5 -33.5t22.5 -40.5t19 -42q24 29 53.5 60t60.5 56h21l-1 -8q-18 -18 -42 -45t-46 -54.5t-36 -51.5h-32z" />
    <glyph glyph-name="dcaron" unicode="&#x10f;" horiz-adv-x="453" 
d="M478 607q14 23 27.5 49.5t25 54t17.5 49.5h37v-9q-7 -20 -21 -47.5t-31 -55t-33 -48.5h-22v7zM147 -10q-37 0 -62 19t-38 54.5t-13 86.5q0 48 9 101t27.5 104t45.5 92.5t64 66t82 24.5q32 0 54.5 -12.5t35.5 -34.5t17 -47h3q3 18 6.5 37t7.5 38.5t8 38.5l42 202h37
l-160 -760h-30l17 102h-2q-18 -31 -40 -56.5t-49.5 -40.5t-61.5 -15zM155 24q31 0 57.5 19.5t48 53t38.5 74t28 82.5t17 79.5t6 64.5q0 51 -23 79t-63 28q-38 0 -68.5 -22.5t-53.5 -60.5t-38.5 -84.5t-23.5 -94.5t-8 -91q0 -65 22 -96t61 -31z" />
    <glyph glyph-name="Dcroat" unicode="&#x110;" horiz-adv-x="501" 
d="M29 348l8 34h221l-7 -34h-222zM16 0l151 714h104q96 0 149.5 -55.5t53.5 -175.5q0 -61 -12.5 -128t-38.5 -130t-67 -114t-98.5 -81t-133.5 -30h-108zM126 35q65 0 115 27.5t86.5 74.5t60 105.5t35 120.5t11.5 120q0 106 -44 151t-127 45h-65l-137 -644h65z" />
    <glyph glyph-name="dcroat" unicode="&#x111;" horiz-adv-x="442" 
d="M149 -10q-36 0 -61.5 19t-39 54.5t-13.5 86.5q0 48 9 101t27.5 104t45.5 92.5t64 66.5t82 25q32 0 54.5 -13t35.5 -34.5t17 -47.5h3q3 17 6.5 36t7 37.5t7.5 36.5l16 75h-137l6 33h138l21 98h37l-21 -98h64l-7 -33h-64l-133 -629h-30l17 102h-2q-17 -32 -39 -57.5
t-49 -40t-62 -14.5zM157 24q32 0 59 19.5t48.5 53t37.5 74.5t27 83t16.5 79.5t5.5 64.5q0 50 -23 78t-63 28q-38 0 -68.5 -22.5t-53.5 -60.5t-38.5 -84.5t-23.5 -94.5t-8 -91q0 -64 23 -95.5t61 -31.5z" />
    <glyph glyph-name="Emacron" unicode="&#x112;" horiz-adv-x="400" 
d="M16 0l151 714h270l-7 -35h-232l-61 -286h218l-8 -35h-218l-69 -323h233l-7 -35h-270zM198 783l7 33h227l-7 -33h-227z" />
    <glyph glyph-name="emacron" unicode="&#x113;" horiz-adv-x="384" 
d="M175 -10q-41 0 -72.5 18.5t-49 56t-17.5 94.5q0 77 18 145.5t49 121.5t72.5 83t88.5 30q44 0 71 -25.5t27 -75.5q0 -40 -17 -74t-50.5 -59.5t-83.5 -40t-116 -14.5h-14q-3 -19 -5 -41t-2 -46q0 -71 27.5 -105t81.5 -34q29 0 54 8.5t48 20.5v-36q-20 -11 -48 -19t-62 -8z
M102 282q75 0 124.5 21.5t74 56t24.5 76.5q0 32 -16 50.5t-49 18.5q-36 0 -71 -28.5t-62 -78.5t-40 -116h15zM159 612l7 33h227l-7 -33h-227z" />
    <glyph glyph-name="Ebreve" unicode="&#x114;" horiz-adv-x="400" 
d="M16 0l151 714h270l-7 -35h-232l-61 -286h218l-8 -35h-218l-69 -323h233l-7 -35h-270zM313 778q-34 0 -55 12t-31 33t-10 47v11v8h28q-1 -23 4.5 -41t21 -27.5t43.5 -9.5q41 0 61.5 18.5t29.5 59.5h28q-10 -55 -38.5 -83t-81.5 -28z" />
    <glyph glyph-name="ebreve" unicode="&#x115;" horiz-adv-x="384" 
d="M175 -10q-41 0 -72.5 18.5t-49 56t-17.5 94.5q0 77 18 145.5t49 121.5t72.5 83t88.5 30q44 0 71 -25.5t27 -75.5q0 -40 -17 -74t-50.5 -59.5t-83.5 -40t-116 -14.5h-14q-3 -19 -5 -41t-2 -46q0 -71 27.5 -105t81.5 -34q29 0 54 8.5t48 20.5v-36q-20 -11 -48 -19t-62 -8z
M102 282q75 0 124.5 21.5t74 56t24.5 76.5q0 32 -16 50.5t-49 18.5q-36 0 -71 -28.5t-62 -78.5t-40 -116h15zM286 607q-34 0 -55 12t-31 33t-10 47v11v8h28q-1 -23 4.5 -41t21 -27.5t43.5 -9.5q41 0 61.5 18.5t29.5 59.5h28q-10 -55 -38.5 -83t-81.5 -28z" />
    <glyph glyph-name="Edotaccent" unicode="&#x116;" horiz-adv-x="400" 
d="M16 0l151 714h270l-7 -35h-232l-61 -286h218l-8 -35h-218l-69 -323h233l-7 -35h-270zM338 804q-11 0 -17.5 7.5t-6.5 20.5q0 16 8.5 32t26.5 16q8 0 13 -3t7.5 -9t2.5 -15q0 -17 -9 -33t-25 -16z" />
    <glyph glyph-name="edotaccent" unicode="&#x117;" horiz-adv-x="384" 
d="M175 -10q-41 0 -72.5 18.5t-49 56t-17.5 94.5q0 77 18 145.5t49 121.5t72.5 83t88.5 30q44 0 71 -25.5t27 -75.5q0 -40 -17 -74t-50.5 -59.5t-83.5 -40t-116 -14.5h-14q-3 -19 -5 -41t-2 -46q0 -71 27.5 -105t81.5 -34q29 0 54 8.5t48 20.5v-36q-20 -11 -48 -19t-62 -8z
M102 282q75 0 124.5 21.5t74 56t24.5 76.5q0 32 -16 50.5t-49 18.5q-36 0 -71 -28.5t-62 -78.5t-40 -116h15zM305 643q-11 0 -17.5 7.5t-6.5 20.5q0 16 8.5 32t26.5 16q8 0 13 -3t7.5 -9t2.5 -15q0 -17 -9 -33t-25 -16z" />
    <glyph glyph-name="Eogonek" unicode="&#x118;" horiz-adv-x="400" 
d="M16 0l151 714h270l-7 -35h-232l-61 -286h218l-8 -35h-218l-69 -323h233l-7 -35h-270zM181 -217q-33 0 -52 19t-19 49q0 28 12 52.5t36 49t61 50.5l29 -3q-32 -26 -55 -49t-35 -46t-12 -48q0 -21 11 -31.5t32 -10.5q11 0 20.5 2t18.5 4l-4 -30q-9 -3 -19 -5.5t-24 -2.5z
" />
    <glyph glyph-name="eogonek" unicode="&#x119;" horiz-adv-x="384" 
d="M207 -201q-31 0 -47.5 19t-16.5 50q0 27 11 51.5t34 48.5t59 50h29q-27 -24 -48.5 -47.5t-34 -48t-12.5 -50.5q0 -21 10 -31.5t29 -10.5q10 0 18.5 2t17.5 3l-5 -28q-9 -4 -20 -6t-24 -2zM173 -10q-41 0 -72.5 18.5t-48.5 56t-17 94.5q0 77 17.5 145.5t48.5 121.5
t72.5 83t88.5 30q45 0 72 -25.5t27 -75.5q0 -40 -17.5 -74t-51 -59.5t-83.5 -40t-116 -14.5h-13q-3 -19 -5.5 -41t-2.5 -46q0 -71 28 -105t81 -34q29 0 54.5 8.5t47.5 20.5v-36q-20 -11 -48 -19t-62 -8zM100 282q76 0 125 21.5t74 56t25 76.5q0 32 -16.5 50.5t-48.5 18.5
q-37 0 -71.5 -28.5t-61.5 -78.5t-41 -116h15z" />
    <glyph glyph-name="Ecaron" unicode="&#x11a;" horiz-adv-x="400" 
d="M16 0l151 714h270l-7 -35h-232l-61 -286h218l-8 -35h-218l-69 -323h233l-7 -35h-270zM291 777q-5 21 -16 49.5t-23.5 56.5t-23.5 45l2 8h19q11 -14 22.5 -33.5t22.5 -40.5t19 -42q24 29 53.5 60t60.5 56h21l-1 -8q-18 -18 -42 -45t-46 -54.5t-36 -51.5h-32z" />
    <glyph glyph-name="ecaron" unicode="&#x11b;" horiz-adv-x="384" 
d="M175 -10q-41 0 -72.5 18.5t-49 56t-17.5 94.5q0 77 18 145.5t49 121.5t72.5 83t88.5 30q44 0 71 -25.5t27 -75.5q0 -40 -17 -74t-50.5 -59.5t-83.5 -40t-116 -14.5h-14q-3 -19 -5 -41t-2 -46q0 -71 27.5 -105t81.5 -34q29 0 54 8.5t48 20.5v-36q-20 -11 -48 -19t-62 -8z
M102 282q75 0 124.5 21.5t74 56t24.5 76.5q0 32 -16 50.5t-49 18.5q-36 0 -71 -28.5t-62 -78.5t-40 -116h15zM258 606q-5 21 -16 49.5t-23.5 56.5t-23.5 45l2 8h19q11 -14 22.5 -33.5t22.5 -40.5t19 -42q24 29 53.5 60t60.5 56h21l-1 -8q-18 -18 -42 -45t-46 -54.5
t-36 -51.5h-32z" />
    <glyph glyph-name="Gcircumflex" unicode="&#x11c;" horiz-adv-x="528" 
d="M252 -10q-99 0 -150.5 61.5t-51.5 178.5q0 79 15 152.5t44.5 135.5t70.5 108.5t92.5 72.5t112.5 26q48 0 85 -12t67 -31l-20 -32q-29 18 -61.5 29t-71.5 11q-67 0 -121 -38t-93.5 -102.5t-60 -146t-20.5 -170.5q0 -71 19.5 -117.5t57 -68.5t90.5 -22q33 0 63 6t56 15
l58 276h-124l8 35h162l-72 -337q-35 -14 -73.5 -22t-81.5 -8zM276 785q20 20 43 46.5t44.5 54t36.5 50.5h32q5 -20 16 -49t24 -56.5t22 -45.5l-1 -8h-19q-11 16 -23 35t-22.5 40t-19.5 41q-23 -28 -52.5 -59t-60.5 -57h-21z" />
    <glyph glyph-name="gcircumflex" unicode="&#x11d;" horiz-adv-x="442" 
d="M107 -240q-34 0 -64 9t-48 19v38q12 -7 30 -14.5t39.5 -12.5t43.5 -5q72 0 108 43t54 127l12 53q3 16 8.5 39t10.5 45h-2q-18 -32 -40 -57t-49.5 -39.5t-61.5 -14.5q-37 0 -62 18.5t-38 54.5t-13 86q0 48 9 101.5t27.5 104.5t46 92.5t64 66.5t82.5 25q34 0 56 -14
t34.5 -36.5t16.5 -49.5h3l22 90h30l-121 -570q-13 -63 -37.5 -108t-63 -68t-97.5 -23zM157 24q30 0 56 20t48 53t38.5 74t28 82.5t17.5 79.5t6 64q0 51 -23 79t-63 28q-37 0 -67.5 -22.5t-54 -60.5t-39 -84.5t-23.5 -94.5t-8 -90q0 -65 21 -96.5t63 -31.5zM155 614
q20 20 43 46.5t44.5 54t36.5 50.5h32q5 -20 16 -49t24 -56.5t22 -45.5l-1 -8h-19q-11 16 -23 35t-22.5 40t-19.5 41q-23 -28 -52.5 -59t-60.5 -57h-21z" />
    <glyph glyph-name="Gbreve" unicode="&#x11e;" horiz-adv-x="528" 
d="M252 -10q-99 0 -150.5 61.5t-51.5 178.5q0 79 15 152.5t44.5 135.5t70.5 108.5t92.5 72.5t112.5 26q48 0 85 -12t67 -31l-20 -32q-29 18 -61.5 29t-71.5 11q-67 0 -121 -38t-93.5 -102.5t-60 -146t-20.5 -170.5q0 -71 19.5 -117.5t57 -68.5t90.5 -22q33 0 63 6t56 15
l58 276h-124l8 35h162l-72 -337q-35 -14 -73.5 -22t-81.5 -8zM391 778q-34 0 -55 12t-31 33t-10 47v11v8h28q-1 -23 4.5 -41t21 -27.5t43.5 -9.5q41 0 61.5 18.5t29.5 59.5h28q-10 -55 -38.5 -83t-81.5 -28z" />
    <glyph glyph-name="gbreve" unicode="&#x11f;" horiz-adv-x="442" 
d="M107 -240q-34 0 -64 9t-48 19v38q12 -7 30 -14.5t39.5 -12.5t43.5 -5q72 0 108 43t54 127l12 53q3 16 8.5 39t10.5 45h-2q-18 -32 -40 -57t-49.5 -39.5t-61.5 -14.5q-37 0 -62 18.5t-38 54.5t-13 86q0 48 9 101.5t27.5 104.5t46 92.5t64 66.5t82.5 25q34 0 56 -14
t34.5 -36.5t16.5 -49.5h3l22 90h30l-121 -570q-13 -63 -37.5 -108t-63 -68t-97.5 -23zM157 24q30 0 56 20t48 53t38.5 74t28 82.5t17.5 79.5t6 64q0 51 -23 79t-63 28q-37 0 -67.5 -22.5t-54 -60.5t-39 -84.5t-23.5 -94.5t-8 -90q0 -65 21 -96.5t63 -31.5zM273 607
q-34 0 -55 12t-31 33t-10 47v11v8h28q-1 -23 4.5 -41t21 -27.5t43.5 -9.5q41 0 61.5 18.5t29.5 59.5h28q-10 -55 -38.5 -83t-81.5 -28z" />
    <glyph glyph-name="Gdotaccent" unicode="&#x120;" horiz-adv-x="528" 
d="M252 -10q-99 0 -150.5 61.5t-51.5 178.5q0 79 15 152.5t44.5 135.5t70.5 108.5t92.5 72.5t112.5 26q48 0 85 -12t67 -31l-20 -32q-29 18 -61.5 29t-71.5 11q-67 0 -121 -38t-93.5 -102.5t-60 -146t-20.5 -170.5q0 -71 19.5 -117.5t57 -68.5t90.5 -22q33 0 63 6t56 15
l58 276h-124l8 35h162l-72 -337q-35 -14 -73.5 -22t-81.5 -8zM419 814q-11 0 -17.5 7.5t-6.5 20.5q0 16 8.5 32t26.5 16q8 0 13 -3t7.5 -9t2.5 -15q0 -17 -9 -33t-25 -16z" />
    <glyph glyph-name="gdotaccent" unicode="&#x121;" horiz-adv-x="442" 
d="M107 -240q-34 0 -64 9t-48 19v38q12 -7 30 -14.5t39.5 -12.5t43.5 -5q72 0 108 43t54 127l12 53q3 16 8.5 39t10.5 45h-2q-18 -32 -40 -57t-49.5 -39.5t-61.5 -14.5q-37 0 -62 18.5t-38 54.5t-13 86q0 48 9 101.5t27.5 104.5t46 92.5t64 66.5t82.5 25q34 0 56 -14
t34.5 -36.5t16.5 -49.5h3l22 90h30l-121 -570q-13 -63 -37.5 -108t-63 -68t-97.5 -23zM157 24q30 0 56 20t48 53t38.5 74t28 82.5t17.5 79.5t6 64q0 51 -23 79t-63 28q-37 0 -67.5 -22.5t-54 -60.5t-39 -84.5t-23.5 -94.5t-8 -90q0 -65 21 -96.5t63 -31.5zM292 643
q-11 0 -17.5 7.5t-6.5 20.5q0 16 8.5 32t26.5 16q8 0 13 -3t7.5 -9t2.5 -15q0 -17 -9 -33t-25 -16z" />
    <glyph glyph-name="uni0122" unicode="&#x122;" horiz-adv-x="528" 
d="M252 -10q-99 0 -150.5 61.5t-51.5 178.5q0 79 15 152.5t44.5 135.5t70.5 108.5t92.5 72.5t112.5 26q48 0 85 -12t67 -31l-20 -32q-29 18 -61.5 29t-71.5 11q-67 0 -121 -38t-93.5 -102.5t-60 -146t-20.5 -170.5q0 -71 19.5 -117.5t57 -68.5t90.5 -22q33 0 63 6t56 15
l58 276h-124l8 35h162l-72 -337q-35 -14 -73.5 -22t-81.5 -8zM129 -208q14 16 31 41.5t32 54t22 51.5h36v-11q-8 -21 -25 -49t-37.5 -54.5t-39.5 -45.5h-19v13z" />
    <glyph glyph-name="uni0123" unicode="&#x123;" horiz-adv-x="442" 
d="M253 617q9 21 26 49t37 55t39 45h17v-14q-12 -13 -28.5 -39.5t-31.5 -55t-23 -51.5h-36v11zM107 -240q-34 0 -64 9t-48 19v38q12 -7 30 -14.5t39.5 -12.5t43.5 -5q72 0 108 43t54 127l12 53q3 16 8.5 39t10.5 45h-2q-18 -32 -40 -57t-49.5 -39.5t-61.5 -14.5
q-37 0 -62 18.5t-38 54.5t-13 86q0 48 9 101.5t27.5 104.5t46 92.5t64 66.5t82.5 25q34 0 56 -14t34.5 -36.5t16.5 -49.5h3l22 90h30l-121 -570q-13 -63 -37.5 -108t-63 -68t-97.5 -23zM157 24q30 0 56 20t48 53t38.5 74t28 82.5t17.5 79.5t6 64q0 51 -23 79t-63 28
q-37 0 -67.5 -22.5t-54 -60.5t-39 -84.5t-23.5 -94.5t-8 -90q0 -65 21 -96.5t63 -31.5z" />
    <glyph glyph-name="Hcircumflex" unicode="&#x124;" horiz-adv-x="518" 
d="M16 0l151 714h38l-68 -321h286l68 321h37l-151 -714h-38l76 357h-286l-76 -357h-37zM242 785q20 20 43 46.5t44.5 54t36.5 50.5h32q5 -20 16 -49t24 -56.5t22 -45.5l-1 -8h-19q-11 16 -23 35t-22.5 40t-19.5 41q-23 -28 -52.5 -59t-60.5 -57h-21z" />
    <glyph glyph-name="hcircumflex" unicode="&#x125;" horiz-adv-x="426" 
d="M13 0l161 760h37l-48 -221q-3 -17 -7 -34.5t-8 -34.5t-9 -34h2q14 28 35.5 51.5t49.5 37t62 13.5q31 0 53 -11t34 -33t12 -55q0 -20 -5 -49.5t-11 -56.5l-70 -333h-38l72 339q6 25 10.5 50t4.5 46q0 34 -19 51.5t-52 17.5q-40 0 -73 -26t-57 -75.5t-39 -120.5l-60 -282
h-37zM98 840q20 20 43 46.5t44.5 54t36.5 50.5h32q5 -20 16 -49t24 -56.5t22 -45.5l-1 -8h-19q-11 16 -23 35t-22.5 40t-19.5 41q-23 -28 -52.5 -59t-60.5 -57h-21z" />
    <glyph glyph-name="Hbar" unicode="&#x126;" horiz-adv-x="512" 
d="M16 0l114 541h-78l6 33h80l29 140h38l-30 -140h286l29 140h38l-29 -140h70l-7 -33h-71l-114 -541h-38l76 357h-286l-76 -357h-37zM137 392h285l32 149h-286z" />
    <glyph glyph-name="hbar" unicode="&#x127;" horiz-adv-x="429" 
d="M13 0l134 629h-66l7 33h65l21 98h37l-21 -98h137l-7 -33h-137q-11 -52 -19.5 -88.5t-14.5 -62t-10 -43.5h2q14 28 35.5 51t49.5 37t61 14q31 0 53.5 -11t34.5 -33t12 -55q0 -21 -5 -50.5t-11 -55.5l-70 -332h-38l72 337q5 25 9.5 50t4.5 46q0 35 -18.5 52.5t-51.5 17.5
q-40 0 -73 -26.5t-57 -76t-39 -120.5l-60 -280h-37z" />
    <glyph glyph-name="Itilde" unicode="&#x128;" horiz-adv-x="215" 
d="M-39 0l5 25l66 6l138 652l-62 6l5 25h165l-6 -25l-65 -6l-138 -652l62 -6l-5 -25h-165zM83 799q7 34 18.5 56t29.5 33t42 11q21 0 36.5 -10t28.5 -23t25 -23t27 -10q20 0 33.5 14.5t21.5 51.5h31q-6 -33 -18 -55.5t-29.5 -33.5t-40.5 -11q-20 0 -35.5 10t-28 23.5
t-25.5 23.5t-29 10q-22 0 -35.5 -16t-20.5 -51h-31z" />
    <glyph glyph-name="itilde" unicode="&#x129;" horiz-adv-x="179" 
d="M13 0l112 529h36l-112 -529h-36zM23 612q7 34 18.5 56t29.5 33t42 11q21 0 36.5 -10t28.5 -23t25 -23t27 -10q20 0 33.5 14.5t21.5 51.5h31q-6 -33 -18 -55.5t-29.5 -33.5t-40.5 -11q-20 0 -35.5 10t-28 23.5t-25.5 23.5t-29 10q-22 0 -35.5 -16t-20.5 -51h-31z" />
    <glyph glyph-name="Imacron" unicode="&#x12a;" horiz-adv-x="215" 
d="M-39 0l5 25l66 6l138 652l-62 6l5 25h165l-6 -25l-65 -6l-138 -652l62 -6l-5 -25h-165zM99 799l7 33h227l-7 -33h-227z" />
    <glyph glyph-name="imacron" unicode="&#x12b;" horiz-adv-x="179" 
d="M13 0l112 529h36l-112 -529h-36zM42 612l7 33h227l-7 -33h-227z" />
    <glyph glyph-name="Ibreve" unicode="&#x12c;" horiz-adv-x="215" 
d="M-39 0l5 25l66 6l138 652l-62 6l5 25h165l-6 -25l-65 -6l-138 -652l62 -6l-5 -25h-165zM221 794q-34 0 -55 12t-31 33t-10 47v11v8h28q-1 -23 4.5 -41t21 -27.5t43.5 -9.5q41 0 61.5 18.5t29.5 59.5h28q-10 -55 -38.5 -83t-81.5 -28z" />
    <glyph glyph-name="ibreve" unicode="&#x12d;" horiz-adv-x="179" 
d="M13 0l112 529h36l-112 -529h-36zM164 607q-34 0 -55 12t-31 33t-10 47v11v8h28q-1 -23 4.5 -41t21 -27.5t43.5 -9.5q41 0 61.5 18.5t29.5 59.5h28q-10 -55 -38.5 -83t-81.5 -28z" />
    <glyph glyph-name="Iogonek" unicode="&#x12e;" horiz-adv-x="215" 
d="M-39 0l5 25l66 6l138 652l-62 6l5 25h165l-6 -25l-65 -6l-138 -652l62 -6l-5 -25h-165zM36 -217q-33 0 -52 19t-19 49q0 28 12 52.5t36 49t61 50.5l29 -3q-32 -26 -55 -49t-35 -46t-12 -48q0 -21 11 -31.5t32 -10.5q11 0 20.5 2t18.5 4l-4 -30q-9 -3 -19 -5.5t-24 -2.5z
" />
    <glyph glyph-name="iogonek" unicode="&#x12f;" horiz-adv-x="179" 
d="M13 0l112 529h37l-112 -529h-37zM171 643q-11 0 -17.5 7.5t-6.5 19.5t4 23t12 18.5t19 7.5q12 0 18 -7t6 -20q0 -17 -9 -33t-26 -16zM-19 -217q-33 0 -52 19t-19 49q0 28 12 52.5t36 49t61 50.5l29 -3q-32 -26 -55 -49t-35 -46t-12 -48q0 -21 11 -31.5t32 -10.5
q11 0 20.5 2t18.5 4l-4 -30q-9 -3 -19 -5.5t-24 -2.5z" />
    <glyph glyph-name="Idotaccent" unicode="&#x130;" horiz-adv-x="215" 
d="M-39 0l5 25l66 6l138 652l-62 6l5 25h165l-6 -25l-65 -6l-138 -652l62 -6l-5 -25h-165zM236 830q-11 0 -17.5 7.5t-6.5 20.5q0 16 8.5 32t26.5 16q8 0 13 -3t7.5 -9t2.5 -15q0 -17 -9 -33t-25 -16z" />
    <glyph glyph-name="IJ" unicode="&#x132;" horiz-adv-x="420" 
d="M-39 0l5 25l66 6l138 652l-62 6l5 25h165l-6 -25l-65 -6l-138 -652l62 -6l-5 -25h-165zM145 -176q-18 0 -34 3.5t-27 8.5l7 34q12 -5 26.5 -8t28.5 -3q29 0 47.5 13t31.5 40.5t22 69.5l155 732h38l-157 -740q-10 -51 -28 -84.5t-45 -49.5t-65 -16z" />
    <glyph glyph-name="ij" unicode="&#x133;" horiz-adv-x="353" 
d="M13 0l112 529h37l-112 -529h-37zM171 643q-11 0 -17.5 7.5t-6.5 19.5t4 23t12 18.5t19 7.5q12 0 18 -7t6 -20q0 -17 -9 -33t-26 -16zM86 -240q-12 0 -24 2t-19 4v36q9 -4 19.5 -6t22.5 -2q26 0 43 13.5t29 44t22 81.5l126 596h37l-127 -599q-12 -58 -27 -96t-39 -56
t-63 -18zM351 643q-10 0 -16.5 7.5t-6.5 19.5t3.5 23t11.5 18.5t20 7.5q11 0 17 -7t6 -20q0 -17 -9 -33t-26 -16z" />
    <glyph glyph-name="Jcircumflex" unicode="&#x134;" horiz-adv-x="186" 
d="M-89 -176q-18 0 -34 3.5t-27 8.5l7 34q12 -5 26.5 -8t28.5 -3q29 0 47.5 13t31.5 40.5t22 69.5l155 732h38l-157 -740q-10 -51 -28 -84.5t-45 -49.5t-65 -16zM85 785q20 20 43 46.5t44.5 54t36.5 50.5h32q5 -20 16 -49t24 -56.5t22 -45.5l-1 -8h-19q-11 16 -23 35
t-22.5 40t-19.5 41q-23 -28 -52.5 -59t-60.5 -57h-21z" />
    <glyph glyph-name="jcircumflex" unicode="&#x135;" horiz-adv-x="179" 
d="M-91 -240q-12 0 -24 2t-19 4v36q9 -4 19.5 -6t22.5 -2q26 0 43 13.5t29 44t22 81.5l126 596h37l-127 -599q-12 -58 -27 -96t-39 -56t-63 -18zM45 614q20 20 43 46.5t44.5 54t36.5 50.5h32q5 -20 16 -49t24 -56.5t22 -45.5l-1 -8h-19q-11 16 -23 35t-22.5 40t-19.5 41
q-23 -28 -52.5 -59t-60.5 -57h-21z" />
    <glyph glyph-name="uni0136" unicode="&#x136;" horiz-adv-x="415" 
d="M16 0l151 714h38l-82 -386l64 82l260 304h45l-263 -313l122 -401h-42l-110 372l-86 -89l-60 -283h-37zM65 -208q14 16 31 41.5t32 54t22 51.5h36v-11q-8 -21 -25 -49t-37.5 -54.5t-39.5 -45.5h-19v13z" />
    <glyph glyph-name="uni0137" unicode="&#x137;" horiz-adv-x="352" 
d="M12 0l162 760h37l-82 -383q-8 -39 -15.5 -72.5t-16.5 -67.5h1l248 292h43l-181 -214l82 -315h-39l-73 284l-90 -99l-39 -185h-37zM35 -208q14 16 31 41.5t32 54t22 51.5h36v-11q-8 -21 -25 -49t-37.5 -54.5t-39.5 -45.5h-19v13z" />
    <glyph glyph-name="kgreenlandic" unicode="&#x138;" horiz-adv-x="346" 
d="M12 0l114 529h37l-34 -156q-8 -34 -16 -70t-16 -66h1l248 292h43l-181 -214l82 -315h-39l-73 284l-90 -99l-39 -185h-37z" />
    <glyph glyph-name="Lacute" unicode="&#x139;" horiz-adv-x="363" 
d="M16 0l151 714h38l-145 -679h226l-7 -35h-263zM217 798q23 23 47 50.5t44 54t32 47.5h43v-8q-11 -16 -28 -36.5t-37.5 -42t-41 -40.5t-38.5 -33h-21v8z" />
    <glyph glyph-name="lacute" unicode="&#x13a;" horiz-adv-x="175" 
d="M12 0l162 760h37l-162 -760h-37zM168 844q23 23 47 50.5t44 54t32 47.5h43v-8q-11 -16 -28 -36.5t-37.5 -42t-41 -40.5t-38.5 -33h-21v8z" />
    <glyph glyph-name="uni013B" unicode="&#x13b;" horiz-adv-x="363" 
d="M16 0l151 714h38l-145 -679h226l-7 -35h-263zM44 -208q14 16 31 41.5t32 54t22 51.5h36v-11q-8 -21 -25 -49t-37.5 -54.5t-39.5 -45.5h-19v13z" />
    <glyph glyph-name="uni013C" unicode="&#x13c;" horiz-adv-x="175" 
d="M12 0l162 760h37l-162 -760h-37zM-62 -208q14 16 31 41.5t32 54t22 51.5h36v-11q-8 -21 -25 -49t-37.5 -54.5t-39.5 -45.5h-19v13z" />
    <glyph glyph-name="Lcaron" unicode="&#x13d;" horiz-adv-x="363" 
d="M275 559q14 23 27.5 49.5t25 54t17.5 49.5h37v-9q-7 -20 -21 -47.5t-31 -55t-33 -48.5h-22v7zM16 0l151 714h38l-145 -679h226l-7 -35h-263z" />
    <glyph glyph-name="lcaron" unicode="&#x13e;" horiz-adv-x="188" 
d="M214 607q13 22 26.5 49t25 54.5t17.5 48.5h38l-1 -9q-7 -19 -21 -47t-30.5 -55.5t-33.5 -48.5h-21v8zM12 0l162 760h37l-162 -760h-37z" />
    <glyph glyph-name="Ldot" unicode="&#x13f;" horiz-adv-x="363" 
d="M16 0l151 714h38l-145 -679h226l-7 -35h-263zM282 330q-11 0 -17.5 7.5t-6.5 20.5q0 16 8.5 32t26.5 16q8 0 13 -3t7.5 -9t2.5 -15q0 -17 -9 -33t-25 -16z" />
    <glyph glyph-name="ldot" unicode="&#x140;" horiz-adv-x="248" 
d="M12 0l162 760h37l-162 -760h-37zM223 303q-11 0 -17.5 7.5t-6.5 20.5q0 16 8.5 32t26.5 16q8 0 13 -3t7.5 -9t2.5 -15q0 -17 -9 -33t-25 -16z" />
    <glyph glyph-name="Lslash" unicode="&#x141;" horiz-adv-x="358" 
d="M17 0l64 305l-78 -44l-14 29l101 58l78 366h38l-73 -341l122 68l14 -28l-145 -82l-63 -296h228l-7 -35h-265z" />
    <glyph glyph-name="lslash" unicode="&#x142;" horiz-adv-x="179" 
d="M13 0l73 342l-73 -43l-13 29l95 55l80 377h37l-76 -354l80 46l13 -28l-101 -58l-78 -366h-37z" />
    <glyph glyph-name="Nacute" unicode="&#x143;" horiz-adv-x="534" 
d="M16 0l151 714h42l162 -640h2l10 52t10 50t9 42l105 496h37l-151 -714h-42l-161 646h-2q-3 -16 -6 -33t-6.5 -35.5t-7.5 -37.5t-9 -39l-106 -501h-37zM338 798q23 23 47 50.5t44 54t32 47.5h43v-8q-11 -16 -28 -36.5t-37.5 -42t-41 -40.5t-38.5 -33h-21v8z" />
    <glyph glyph-name="nacute" unicode="&#x144;" horiz-adv-x="425" 
d="M12 0l112 529h31l-17 -93h2q14 28 35.5 51.5t49.5 37.5t62 14q31 0 53 -11t34.5 -33t12.5 -55q0 -21 -5 -50.5t-11 -55.5l-71 -334h-37l72 339q5 26 9.5 50.5t4.5 45.5q0 35 -18.5 52t-51.5 17q-40 0 -73 -26.5t-57 -76.5t-40 -120l-59 -281h-38zM241 612q23 23 47 50.5
t44 54t32 47.5h43v-8q-11 -16 -28 -36.5t-37.5 -42t-41 -40.5t-38.5 -33h-21v8z" />
    <glyph glyph-name="uni0145" unicode="&#x145;" horiz-adv-x="534" 
d="M16 0l151 714h42l162 -640h2l10 52t10 50t9 42l105 496h37l-151 -714h-42l-161 646h-2q-3 -16 -6 -33t-6.5 -35.5t-7.5 -37.5t-9 -39l-106 -501h-37zM116 -208q14 16 31 41.5t32 54t22 51.5h36v-11q-8 -21 -25 -49t-37.5 -54.5t-39.5 -45.5h-19v13z" />
    <glyph glyph-name="uni0146" unicode="&#x146;" horiz-adv-x="425" 
d="M12 0l112 529h31l-17 -93h2q14 28 35.5 51.5t49.5 37.5t62 14q31 0 53 -11t34.5 -33t12.5 -55q0 -21 -5 -50.5t-11 -55.5l-71 -334h-37l72 339q5 26 9.5 50.5t4.5 45.5q0 35 -18.5 52t-51.5 17q-40 0 -73 -26.5t-57 -76.5t-40 -120l-59 -281h-38zM63 -208q14 16 31 41.5
t32 54t22 51.5h36v-11q-8 -21 -25 -49t-37.5 -54.5t-39.5 -45.5h-19v13z" />
    <glyph glyph-name="Ncaron" unicode="&#x147;" horiz-adv-x="534" 
d="M16 0l151 714h42l162 -640h2l10 52t10 50t9 42l105 496h37l-151 -714h-42l-161 646h-2q-3 -16 -6 -33t-6.5 -35.5t-7.5 -37.5t-9 -39l-106 -501h-37zM339 777q-5 21 -16 49.5t-23.5 56.5t-23.5 45l2 8h19q11 -14 22.5 -33.5t22.5 -40.5t19 -42q24 29 53.5 60t60.5 56h21
l-1 -8q-18 -18 -42 -45t-46 -54.5t-36 -51.5h-32z" />
    <glyph glyph-name="ncaron" unicode="&#x148;" horiz-adv-x="425" 
d="M12 0l112 529h31l-17 -93h2q14 28 35.5 51.5t49.5 37.5t62 14q31 0 53 -11t34.5 -33t12.5 -55q0 -21 -5 -50.5t-11 -55.5l-71 -334h-37l72 339q5 26 9.5 50.5t4.5 45.5q0 35 -18.5 52t-51.5 17q-40 0 -73 -26.5t-57 -76.5t-40 -120l-59 -281h-38zM258 606q-5 21 -16 49.5
t-23.5 56.5t-23.5 45l2 8h19q11 -14 22.5 -33.5t22.5 -40.5t19 -42q24 29 53.5 60t60.5 56h21l-1 -8q-18 -18 -42 -45t-46 -54.5t-36 -51.5h-32z" />
    <glyph glyph-name="napostrophe" unicode="&#x149;" horiz-adv-x="449" 
d="M36 0l112 529h31l-17 -93h2q14 28 35.5 51.5t49.5 37.5t62 14q31 0 53 -11t34.5 -33t12.5 -55q0 -21 -5 -50.5t-11 -55.5l-71 -334h-37l72 339q5 26 9.5 50.5t4.5 45.5q0 35 -18.5 52t-51.5 17q-40 0 -73 -26.5t-57 -76.5t-40 -120l-59 -281h-38zM43 484q20 34 39 74
t34.5 80.5t24.5 75.5h36l4 -11q-12 -34 -29.5 -72.5t-38 -76.5t-41.5 -70h-29z" />
    <glyph glyph-name="Eng" unicode="&#x14a;" horiz-adv-x="532" 
d="M248 -176q-17 0 -32.5 3.5t-25.5 8.5l7 34q12 -5 25 -8t27 -3q30 0 50 15.5t33 45.5t21 74l-163 653h-2q-3 -14 -5.5 -29t-5.5 -31.5t-7 -34.5t-8 -39l-109 -513h-37l151 714h43l161 -639h2q4 23 8.5 46t9.5 46t9 45l107 502h37l-153 -725q-11 -55 -29 -92t-45.5 -55
t-68.5 -18z" />
    <glyph glyph-name="eng" unicode="&#x14b;" horiz-adv-x="425" 
d="M155 -240q-13 0 -24 2t-19 4v36q10 -4 20 -6t22 -2q25 0 42 13t29.5 43.5t23.5 82.5l86 406q5 25 9.5 50t4.5 46q0 35 -18.5 52t-51.5 17q-40 0 -73 -26.5t-57.5 -76t-39.5 -119.5l-59 -282h-37l111 529h31l-17 -93h2q15 28 36 51.5t49 37.5t62 14q31 0 53 -11.5
t34.5 -33t12.5 -54.5q0 -21 -5 -50t-11 -56l-86 -404q-12 -61 -28 -98t-40 -54.5t-62 -17.5z" />
    <glyph glyph-name="Omacron" unicode="&#x14c;" horiz-adv-x="533" 
d="M217 -10q-58 0 -95 26.5t-55.5 76.5t-18.5 121q0 51 8 108t24 114t40 108.5t57 92t74.5 64t91.5 23.5q79 0 122.5 -51.5t43.5 -162.5q0 -45 -7 -100.5t-21.5 -114t-37 -113t-55.5 -98t-75 -69t-96 -25.5zM220 25q44 0 79.5 24t63.5 64.5t48 91t33 105t19.5 106t6.5 93.5
q0 91 -32 135.5t-98 44.5q-44 0 -80 -23.5t-64 -63t-48.5 -89.5t-33.5 -103.5t-19.5 -103.5t-6.5 -90q0 -63 14 -105.5t43.5 -64t74.5 -21.5zM243 783l7 33h227l-7 -33h-227z" />
    <glyph glyph-name="omacron" unicode="&#x14d;" horiz-adv-x="428" 
d="M167 -10q-42 0 -71.5 18.5t-45 56t-15.5 91.5q0 44 8.5 95.5t26.5 102.5t45.5 92.5t64.5 66.5t84 25q41 0 69.5 -19t43.5 -56t15 -91q0 -49 -9 -102t-27 -103t-45 -90t-63 -63.5t-81 -23.5zM169 24q36 0 65.5 22t52 59t37.5 83t22.5 94t7.5 91q0 41 -10.5 70.5t-30.5 45
t-52 15.5q-37 0 -66.5 -23t-52 -61t-38 -84.5t-23.5 -93.5t-8 -86q0 -64 24.5 -98t71.5 -34zM162 612l7 33h227l-7 -33h-227z" />
    <glyph glyph-name="Obreve" unicode="&#x14e;" horiz-adv-x="533" 
d="M217 -10q-58 0 -95 26.5t-55.5 76.5t-18.5 121q0 51 8 108t24 114t40 108.5t57 92t74.5 64t91.5 23.5q79 0 122.5 -51.5t43.5 -162.5q0 -45 -7 -100.5t-21.5 -114t-37 -113t-55.5 -98t-75 -69t-96 -25.5zM220 25q44 0 79.5 24t63.5 64.5t48 91t33 105t19.5 106t6.5 93.5
q0 91 -32 135.5t-98 44.5q-44 0 -80 -23.5t-64 -63t-48.5 -89.5t-33.5 -103.5t-19.5 -103.5t-6.5 -90q0 -63 14 -105.5t43.5 -64t74.5 -21.5zM361 778q-34 0 -55 12t-31 33t-10 47v11v8h28q-1 -23 4.5 -41t21 -27.5t43.5 -9.5q41 0 61.5 18.5t29.5 59.5h28
q-10 -55 -38.5 -83t-81.5 -28z" />
    <glyph glyph-name="obreve" unicode="&#x14f;" horiz-adv-x="428" 
d="M167 -10q-42 0 -71.5 18.5t-45 56t-15.5 91.5q0 44 8.5 95.5t26.5 102.5t45.5 92.5t64.5 66.5t84 25q41 0 69.5 -19t43.5 -56t15 -91q0 -49 -9 -102t-27 -103t-45 -90t-63 -63.5t-81 -23.5zM169 24q36 0 65.5 22t52 59t37.5 83t22.5 94t7.5 91q0 41 -10.5 70.5t-30.5 45
t-52 15.5q-37 0 -66.5 -23t-52 -61t-38 -84.5t-23.5 -93.5t-8 -86q0 -64 24.5 -98t71.5 -34zM286 607q-34 0 -55 12t-31 33t-10 47v11v8h28q-1 -23 4.5 -41t21 -27.5t43.5 -9.5q41 0 61.5 18.5t29.5 59.5h28q-10 -55 -38.5 -83t-81.5 -28z" />
    <glyph glyph-name="Ohungarumlaut" unicode="&#x150;" horiz-adv-x="533" 
d="M217 -10q-58 0 -95 26.5t-55.5 76.5t-18.5 121q0 51 8 108t24 114t40 108.5t57 92t74.5 64t91.5 23.5q79 0 122.5 -51.5t43.5 -162.5q0 -45 -7 -100.5t-21.5 -114t-37 -113t-55.5 -98t-75 -69t-96 -25.5zM220 25q44 0 79.5 24t63.5 64.5t48 91t33 105t19.5 106t6.5 93.5
q0 91 -32 135.5t-98 44.5q-44 0 -80 -23.5t-64 -63t-48.5 -89.5t-33.5 -103.5t-19.5 -103.5t-6.5 -90q0 -63 14 -105.5t43.5 -64t74.5 -21.5zM399 785q24 24 48 51.5t44 54t31 46.5h43v-8q-11 -16 -28.5 -36.5t-37.5 -42t-40.5 -40.5t-39.5 -33h-19zM256 785
q24 24 47.5 51.5t43.5 54t31 46.5h43v-8q-11 -16 -28 -36.5t-37.5 -41.5t-41 -40.5t-39.5 -33.5h-19v8z" />
    <glyph glyph-name="ohungarumlaut" unicode="&#x151;" horiz-adv-x="428" 
d="M167 -10q-42 0 -71.5 18.5t-45 56t-15.5 91.5q0 44 8.5 95.5t26.5 102.5t45.5 92.5t64.5 66.5t84 25q41 0 69.5 -19t43.5 -56t15 -91q0 -49 -9 -102t-27 -103t-45 -90t-63 -63.5t-81 -23.5zM169 24q36 0 65.5 22t52 59t37.5 83t22.5 94t7.5 91q0 41 -10.5 70.5t-30.5 45
t-52 15.5q-37 0 -66.5 -23t-52 -61t-38 -84.5t-23.5 -93.5t-8 -86q0 -64 24.5 -98t71.5 -34zM331 614q24 24 48 51.5t44 54t31 46.5h43v-8q-11 -16 -28.5 -36.5t-37.5 -42t-40.5 -40.5t-39.5 -33h-19zM188 614q24 24 47.5 51.5t43.5 54t31 46.5h43v-8q-11 -16 -28 -36.5
t-37.5 -41.5t-41 -40.5t-39.5 -33.5h-19v8z" />
    <glyph glyph-name="OE" unicode="&#x152;" horiz-adv-x="629" 
d="M223 -3q-60 0 -99 26.5t-57 75.5t-18 116q0 61 10.5 129.5t32.5 134.5t57 120.5t83.5 87t111.5 32.5q20 0 38.5 -1.5t30.5 -3.5h264l-7 -35h-235l-61 -286h220l-7 -35h-220l-69 -323h235l-8 -35h-255q-8 -1 -19 -2t-28 -1zM227 32q9 0 18 0.5t15 2.5l138 645
q-11 1 -25 2.5t-32 1.5q-53 0 -94.5 -30.5t-71.5 -81t-49 -112.5t-28.5 -125.5t-9.5 -118.5q0 -59 15 -100.5t46 -62.5t78 -21z" />
    <glyph glyph-name="oe" unicode="&#x153;" horiz-adv-x="677" 
d="M164 -10q-61 0 -95 43t-34 129q0 41 8.5 92t26 101t44 91.5t63.5 66.5t84 25q59 0 87.5 -39.5t31.5 -110.5q30 68 76 109t102 41q43 0 70 -24.5t27 -74.5q0 -40 -17.5 -74.5t-51 -60t-83 -40t-115.5 -14.5h-14q-3 -19 -5 -41t-2 -46q0 -70 28 -104.5t83 -34.5
q29 0 53 8.5t47 21.5l1 -36q-21 -12 -48.5 -20t-60.5 -8q-38 0 -67 16t-46 48.5t-21 82.5q-26 -64 -69 -105.5t-103 -41.5zM168 24q35 0 64.5 22t51.5 59.5t36.5 83t21.5 94t7 91.5q0 62 -22.5 96t-68.5 34q-37 0 -66.5 -22.5t-51.5 -59.5t-37 -82.5t-22.5 -92t-7.5 -86.5
q0 -69 24.5 -103t70.5 -34zM395 282q75 0 124.5 21.5t74 56.5t24.5 78q0 30 -15.5 48t-47.5 18q-39 0 -74 -29t-62 -79t-40 -114h16z" />
    <glyph glyph-name="Racute" unicode="&#x154;" horiz-adv-x="428" 
d="M16 0l151 714h102q76 0 119 -38.5t43 -114.5q0 -60 -19 -109.5t-55.5 -83.5t-91.5 -45l76 -323h-41l-72 316h-107l-67 -316h-38zM215 350q45 0 78 17t55 46.5t33 66.5t11 77q0 64 -33 93t-99 29h-62l-70 -329h87zM283 798q23 23 47 50.5t44 54t32 47.5h43v-8
q-11 -16 -28 -36.5t-37.5 -42t-41 -40.5t-38.5 -33h-21v8z" />
    <glyph glyph-name="racute" unicode="&#x155;" horiz-adv-x="282" 
d="M13 0l111 529h30l-18 -102h2q15 31 35 56t47 40t58 15q13 0 24 -2t19 -5l-9 -35q-7 2 -16.5 4t-20.5 2q-34 0 -61 -20t-47.5 -53.5t-35 -73.5t-23.5 -79l-58 -276h-37zM173 612q23 23 47 50.5t44 54t32 47.5h43v-8q-11 -16 -28 -36.5t-37.5 -42t-41 -40.5t-38.5 -33h-21
v8z" />
    <glyph glyph-name="uni0156" unicode="&#x156;" horiz-adv-x="428" 
d="M16 0l151 714h102q76 0 119 -38.5t43 -114.5q0 -60 -19 -109.5t-55.5 -83.5t-91.5 -45l76 -323h-41l-72 316h-107l-67 -316h-38zM215 350q45 0 78 17t55 46.5t33 66.5t11 77q0 64 -33 93t-99 29h-62l-70 -329h87zM69 -208q14 16 31 41.5t32 54t22 51.5h36v-11
q-8 -21 -25 -49t-37.5 -54.5t-39.5 -45.5h-19v13z" />
    <glyph glyph-name="uni0157" unicode="&#x157;" horiz-adv-x="282" 
d="M13 0l111 529h30l-18 -102h2q15 31 35 56t47 40t58 15q13 0 24 -2t19 -5l-9 -35q-7 2 -16.5 4t-20.5 2q-34 0 -61 -20t-47.5 -53.5t-35 -73.5t-23.5 -79l-58 -276h-37zM-32 -208q14 16 31 41.5t32 54t22 51.5h36v-11q-8 -21 -25 -49t-37.5 -54.5t-39.5 -45.5h-19v13z" />
    <glyph glyph-name="Rcaron" unicode="&#x158;" horiz-adv-x="428" 
d="M16 0l151 714h102q76 0 119 -38.5t43 -114.5q0 -60 -19 -109.5t-55.5 -83.5t-91.5 -45l76 -323h-41l-72 316h-107l-67 -316h-38zM215 350q45 0 78 17t55 46.5t33 66.5t11 77q0 64 -33 93t-99 29h-62l-70 -329h87zM291 777q-5 21 -16 49.5t-23.5 56.5t-23.5 45l2 8h19
q11 -14 22.5 -33.5t22.5 -40.5t19 -42q24 29 53.5 60t60.5 56h21l-1 -8q-18 -18 -42 -45t-46 -54.5t-36 -51.5h-32z" />
    <glyph glyph-name="rcaron" unicode="&#x159;" horiz-adv-x="282" 
d="M13 0l111 529h30l-18 -102h2q15 31 35 56t47 40t58 15q13 0 24 -2t19 -5l-9 -35q-7 2 -16.5 4t-20.5 2q-34 0 -61 -20t-47.5 -53.5t-35 -73.5t-23.5 -79l-58 -276h-37zM211 606q-5 21 -16 49.5t-23.5 56.5t-23.5 45l2 8h19q11 -14 22.5 -33.5t22.5 -40.5t19 -42
q24 29 53.5 60t60.5 56h21l-1 -8q-18 -18 -42 -45t-46 -54.5t-36 -51.5h-32z" />
    <glyph glyph-name="Sacute" unicode="&#x15a;" horiz-adv-x="394" 
d="M125 -10q-46 0 -80.5 8.5t-58.5 20.5l2 41q27 -15 61 -25t77 -10q34 0 64 10.5t53 30.5t35.5 50t12.5 70q0 33 -11.5 59.5t-34 51t-56.5 54.5q-28 26 -51 52t-36.5 57.5t-13.5 73.5q0 48 15.5 83.5t42.5 59t62 35.5t75 12q43 0 77 -10t57 -24l-18 -34q-24 14 -52.5 23.5
t-65.5 9.5q-31 0 -58.5 -9.5t-49 -28t-34 -47t-12.5 -67.5q0 -36 12 -63t33.5 -51t51.5 -52q31 -26 55 -53t37.5 -58.5t13.5 -71.5q0 -49 -15.5 -85.5t-43.5 -61.5t-65.5 -38t-80.5 -13zM260 798q23 23 47 50.5t44 54t32 47.5h43v-8q-11 -16 -28 -36.5t-37.5 -42t-41 -40.5
t-38.5 -33h-21v8z" />
    <glyph glyph-name="sacute" unicode="&#x15b;" horiz-adv-x="325" 
d="M105 -10q-38 0 -67 9t-45 18v40q19 -12 48.5 -22.5t62.5 -10.5q40 0 65.5 13.5t37.5 39t12 60.5q0 26 -8.5 45t-25.5 37.5t-41 41.5q-23 20 -41.5 40t-29 44.5t-10.5 56.5q0 41 18 71.5t51.5 48t76.5 17.5q39 0 67.5 -9.5t48.5 -21.5l-17 -31q-18 11 -42.5 19.5
t-57.5 8.5q-48 0 -77.5 -26.5t-29.5 -73.5q0 -23 8 -42.5t23.5 -36.5t37.5 -37q26 -25 46 -46t31 -45t11 -58q0 -47 -17.5 -80.5t-51.5 -51.5t-84 -18zM186 612q23 23 47 50.5t44 54t32 47.5h43v-8q-11 -16 -28 -36.5t-37.5 -42t-41 -40.5t-38.5 -33h-21v8z" />
    <glyph glyph-name="Scircumflex" unicode="&#x15c;" horiz-adv-x="394" 
d="M125 -10q-46 0 -80.5 8.5t-58.5 20.5l2 41q27 -15 61 -25t77 -10q34 0 64 10.5t53 30.5t35.5 50t12.5 70q0 33 -11.5 59.5t-34 51t-56.5 54.5q-28 26 -51 52t-36.5 57.5t-13.5 73.5q0 48 15.5 83.5t42.5 59t62 35.5t75 12q43 0 77 -10t57 -24l-18 -34q-24 14 -52.5 23.5
t-65.5 9.5q-31 0 -58.5 -9.5t-49 -28t-34 -47t-12.5 -67.5q0 -36 12 -63t33.5 -51t51.5 -52q31 -26 55 -53t37.5 -58.5t13.5 -71.5q0 -49 -15.5 -85.5t-43.5 -61.5t-65.5 -38t-80.5 -13zM178 785q20 20 43 46.5t44.5 54t36.5 50.5h32q5 -20 16 -49t24 -56.5t22 -45.5l-1 -8
h-19q-11 16 -23 35t-22.5 40t-19.5 41q-23 -28 -52.5 -59t-60.5 -57h-21z" />
    <glyph glyph-name="scircumflex" unicode="&#x15d;" horiz-adv-x="325" 
d="M105 -10q-38 0 -67 9t-45 18v40q19 -12 48.5 -22.5t62.5 -10.5q40 0 65.5 13.5t37.5 39t12 60.5q0 26 -8.5 45t-25.5 37.5t-41 41.5q-23 20 -41.5 40t-29 44.5t-10.5 56.5q0 41 18 71.5t51.5 48t76.5 17.5q39 0 67.5 -9.5t48.5 -21.5l-17 -31q-18 11 -42.5 19.5
t-57.5 8.5q-48 0 -77.5 -26.5t-29.5 -73.5q0 -23 8 -42.5t23.5 -36.5t37.5 -37q26 -25 46 -46t31 -45t11 -58q0 -47 -17.5 -80.5t-51.5 -51.5t-84 -18zM114 614q20 20 43 46.5t44.5 54t36.5 50.5h32q5 -20 16 -49t24 -56.5t22 -45.5l-1 -8h-19q-11 16 -23 35t-22.5 40
t-19.5 41q-23 -28 -52.5 -59t-60.5 -57h-21z" />
    <glyph glyph-name="Scedilla" unicode="&#x15e;" horiz-adv-x="394" 
d="M125 -10q-46 0 -80.5 8.5t-58.5 20.5l2 41q27 -15 61 -25t77 -10q34 0 64 10.5t53 30.5t35.5 50t12.5 70q0 33 -11.5 59.5t-34 51t-56.5 54.5q-28 26 -51 52t-36.5 57.5t-13.5 73.5q0 48 15.5 83.5t42.5 59t62 35.5t75 12q43 0 77 -10t57 -24l-18 -34q-24 14 -52.5 23.5
t-65.5 9.5q-31 0 -58.5 -9.5t-49 -28t-34 -47t-12.5 -67.5q0 -36 12 -63t33.5 -51t51.5 -52q31 -26 55 -53t37.5 -58.5t13.5 -71.5q0 -49 -15.5 -85.5t-43.5 -61.5t-65.5 -38t-80.5 -13zM48 -240q-19 0 -32.5 2t-24.5 5v30q9 -3 23 -5t33 -2q24 0 44.5 8.5t32 25t11.5 37.5
q0 28 -21 41.5t-60 16.5l53 81h30l-40 -63q32 -5 52 -23t20 -50q0 -31 -16 -54.5t-43 -36.5t-62 -13z" />
    <glyph glyph-name="scedilla" unicode="&#x15f;" horiz-adv-x="325" 
d="M105 -10q-38 0 -67 9t-45 18v40q19 -12 48.5 -22.5t62.5 -10.5q40 0 65.5 13.5t37.5 39t12 60.5q0 26 -8.5 45t-25.5 37.5t-41 41.5q-23 20 -41.5 40t-29 44.5t-10.5 56.5q0 41 18 71.5t51.5 48t76.5 17.5q39 0 67.5 -9.5t48.5 -21.5l-17 -31q-18 11 -42.5 19.5
t-57.5 8.5q-48 0 -77.5 -26.5t-29.5 -73.5q0 -23 8 -42.5t23.5 -36.5t37.5 -37q26 -25 46 -46t31 -45t11 -58q0 -47 -17.5 -80.5t-51.5 -51.5t-84 -18zM19 -240q-19 0 -32.5 2t-24.5 5v30q9 -3 23 -5t33 -2q24 0 44.5 8.5t32 25t11.5 37.5q0 28 -21 41.5t-60 16.5l53 81h30
l-40 -63q32 -5 52 -23t20 -50q0 -31 -16 -54.5t-43 -36.5t-62 -13z" />
    <glyph glyph-name="Scaron" unicode="&#x160;" horiz-adv-x="394" 
d="M125 -10q-46 0 -80.5 8.5t-58.5 20.5l2 41q27 -15 61 -25t77 -10q34 0 64 10.5t53 30.5t35.5 50t12.5 70q0 33 -11.5 59.5t-34 51t-56.5 54.5q-28 26 -51 52t-36.5 57.5t-13.5 73.5q0 48 15.5 83.5t42.5 59t62 35.5t75 12q43 0 77 -10t57 -24l-18 -34q-24 14 -52.5 23.5
t-65.5 9.5q-31 0 -58.5 -9.5t-49 -28t-34 -47t-12.5 -67.5q0 -36 12 -63t33.5 -51t51.5 -52q31 -26 55 -53t37.5 -58.5t13.5 -71.5q0 -49 -15.5 -85.5t-43.5 -61.5t-65.5 -38t-80.5 -13zM278 777q-5 21 -16 49.5t-23.5 56.5t-23.5 45l2 8h19q11 -14 22.5 -33.5t22.5 -40.5
t19 -42q24 29 53.5 60t60.5 56h21l-1 -8q-18 -18 -42 -45t-46 -54.5t-36 -51.5h-32z" />
    <glyph glyph-name="scaron" unicode="&#x161;" horiz-adv-x="325" 
d="M105 -10q-38 0 -67 9t-45 18v40q19 -12 48.5 -22.5t62.5 -10.5q40 0 65.5 13.5t37.5 39t12 60.5q0 26 -8.5 45t-25.5 37.5t-41 41.5q-23 20 -41.5 40t-29 44.5t-10.5 56.5q0 41 18 71.5t51.5 48t76.5 17.5q39 0 67.5 -9.5t48.5 -21.5l-17 -31q-18 11 -42.5 19.5
t-57.5 8.5q-48 0 -77.5 -26.5t-29.5 -73.5q0 -23 8 -42.5t23.5 -36.5t37.5 -37q26 -25 46 -46t31 -45t11 -58q0 -47 -17.5 -80.5t-51.5 -51.5t-84 -18zM210 606q-5 21 -16 49.5t-23.5 56.5t-23.5 45l2 8h19q11 -14 22.5 -33.5t22.5 -40.5t19 -42q24 29 53.5 60t60.5 56h21
l-1 -8q-18 -18 -42 -45t-46 -54.5t-36 -51.5h-32z" />
    <glyph glyph-name="uni021A" unicode="&#x21a;" horiz-adv-x="359" 
d="M96 0l144 679h-154l8 35h346l-7 -35h-155l-144 -679h-38zM29 -208q14 16 31 41.5t32 54t22 51.5h36v-11q-8 -21 -25 -49t-37.5 -54.5t-39.5 -45.5h-19v13z" />
    <glyph glyph-name="uni021B" unicode="&#x21b;" horiz-adv-x="229" 
d="M101 -10q-35 0 -54.5 20t-19.5 57q0 15 3 34.5t8 41.5l75 352h-57l6 27l58 8l36 127h28l-27 -128h94l-7 -34h-94l-75 -353q-5 -22 -7.5 -39.5t-2.5 -30.5q0 -23 10 -35.5t34 -12.5q15 0 27 2.5t22 6.5v-33q-11 -4 -25 -7t-32 -3zM-30 -208q14 16 31 41.5t32 54t22 51.5
h36v-11q-8 -21 -25 -49t-37.5 -54.5t-39.5 -45.5h-19v13z" />
    <glyph glyph-name="Tcaron" unicode="&#x164;" horiz-adv-x="359" 
d="M96 0l144 679h-154l8 35h346l-7 -35h-155l-144 -679h-38zM257 777q-5 21 -16 49.5t-23.5 56.5t-23.5 45l2 8h19q11 -14 22.5 -33.5t22.5 -40.5t19 -42q24 29 53.5 60t60.5 56h21l-1 -8q-18 -18 -42 -45t-46 -54.5t-36 -51.5h-32z" />
    <glyph glyph-name="tcaron" unicode="&#x165;" horiz-adv-x="219" 
d="M225 601q13 22 26.5 49t25 54.5t17.5 49.5h38l-1 -9q-7 -20 -21 -47.5t-30.5 -55.5t-33.5 -48h-21v7zM101 -10q-35 0 -54.5 20t-19.5 57q0 15 3 34.5t8 41.5l75 352h-57l6 27l58 8l36 127h28l-27 -128h94l-7 -34h-94l-75 -353q-5 -22 -7.5 -39.5t-2.5 -30.5
q0 -23 10 -35.5t34 -12.5q15 0 27 2.5t22 6.5v-33q-11 -4 -25 -7t-32 -3z" />
    <glyph glyph-name="Tbar" unicode="&#x166;" horiz-adv-x="357" 
d="M96 0l75 355h-115l6 33h116l62 291h-153l7 35h346l-7 -35h-155l-62 -291h120l-7 -33h-120l-75 -355h-38z" />
    <glyph glyph-name="tbar" unicode="&#x167;" horiz-adv-x="222" 
d="M101 -10q-36 0 -55 20t-19 57q0 15 3 34.5t7 40.5l31 142h-58l6 33h59l38 178h-57l6 27l58 8l36 127h28l-27 -128h94l-7 -34h-94l-38 -178h95l-7 -33h-95l-30 -142q-5 -22 -7.5 -39.5t-2.5 -30.5q0 -22 10.5 -35t33.5 -13q15 0 26.5 2.5t22.5 6.5v-33q-11 -4 -25.5 -7
t-31.5 -3z" />
    <glyph glyph-name="Utilde" unicode="&#x168;" horiz-adv-x="510" 
d="M201 -10q-46 0 -80.5 17t-53.5 51t-19 83q0 18 2.5 40t7.5 45l104 488h38l-104 -488q-5 -23 -7 -44.5t-2 -38.5q0 -58 31.5 -88t84.5 -30q52 0 86.5 24t57 71t37.5 116l104 478h38l-105 -482q-16 -76 -43.5 -130.5t-70 -83t-106.5 -28.5zM217 783q7 34 18.5 56t29.5 33
t42 11q21 0 36.5 -10t28.5 -23t25 -23t27 -10q20 0 33.5 14.5t21.5 51.5h31q-6 -33 -18 -55.5t-29.5 -33.5t-40.5 -11q-20 0 -35.5 10t-28 23.5t-25.5 23.5t-29 10q-22 0 -35.5 -16t-20.5 -51h-31z" />
    <glyph glyph-name="utilde" unicode="&#x169;" horiz-adv-x="426" 
d="M134 -10q-30 0 -52.5 11t-34.5 33.5t-12 54.5q0 20 4.5 49t10.5 55l71 336h37l-72 -342q-5 -24 -9.5 -48t-4.5 -45q0 -35 18.5 -52.5t51.5 -17.5q41 0 74 27t57.5 77t38.5 120l59 281h37l-111 -529h-30l16 92h-3q-13 -27 -34.5 -50.5t-49.5 -37.5t-62 -14zM146 612
q7 34 18.5 56t29.5 33t42 11q21 0 36.5 -10t28.5 -23t25 -23t27 -10q20 0 33.5 14.5t21.5 51.5h31q-6 -33 -18 -55.5t-29.5 -33.5t-40.5 -11q-20 0 -35.5 10t-28 23.5t-25.5 23.5t-29 10q-22 0 -35.5 -16t-20.5 -51h-31z" />
    <glyph glyph-name="Umacron" unicode="&#x16a;" horiz-adv-x="510" 
d="M201 -10q-46 0 -80.5 17t-53.5 51t-19 83q0 18 2.5 40t7.5 45l104 488h38l-104 -488q-5 -23 -7 -44.5t-2 -38.5q0 -58 31.5 -88t84.5 -30q52 0 86.5 24t57 71t37.5 116l104 478h38l-105 -482q-16 -76 -43.5 -130.5t-70 -83t-106.5 -28.5zM240 783l7 33h227l-7 -33h-227z
" />
    <glyph glyph-name="umacron" unicode="&#x16b;" horiz-adv-x="426" 
d="M134 -10q-30 0 -52.5 11t-34.5 33.5t-12 54.5q0 20 4.5 49t10.5 55l71 336h37l-72 -342q-5 -24 -9.5 -48t-4.5 -45q0 -35 18.5 -52.5t51.5 -17.5q41 0 74 27t57.5 77t38.5 120l59 281h37l-111 -529h-30l16 92h-3q-13 -27 -34.5 -50.5t-49.5 -37.5t-62 -14zM165 612l7 33
h227l-7 -33h-227z" />
    <glyph glyph-name="Ubreve" unicode="&#x16c;" horiz-adv-x="510" 
d="M201 -10q-46 0 -80.5 17t-53.5 51t-19 83q0 18 2.5 40t7.5 45l104 488h38l-104 -488q-5 -23 -7 -44.5t-2 -38.5q0 -58 31.5 -88t84.5 -30q52 0 86.5 24t57 71t37.5 116l104 478h38l-105 -482q-16 -76 -43.5 -130.5t-70 -83t-106.5 -28.5zM352 778q-34 0 -55 12t-31 33
t-10 47v11v8h28q-1 -23 4.5 -41t21 -27.5t43.5 -9.5q41 0 61.5 18.5t29.5 59.5h28q-10 -55 -38.5 -83t-81.5 -28z" />
    <glyph glyph-name="ubreve" unicode="&#x16d;" horiz-adv-x="426" 
d="M134 -10q-30 0 -52.5 11t-34.5 33.5t-12 54.5q0 20 4.5 49t10.5 55l71 336h37l-72 -342q-5 -24 -9.5 -48t-4.5 -45q0 -35 18.5 -52.5t51.5 -17.5q41 0 74 27t57.5 77t38.5 120l59 281h37l-111 -529h-30l16 92h-3q-13 -27 -34.5 -50.5t-49.5 -37.5t-62 -14zM281 607
q-34 0 -55 12t-31 33t-10 47v11v8h28q-1 -23 4.5 -41t21 -27.5t43.5 -9.5q41 0 61.5 18.5t29.5 59.5h28q-10 -55 -38.5 -83t-81.5 -28z" />
    <glyph glyph-name="Uring" unicode="&#x16e;" horiz-adv-x="510" 
d="M201 -10q-46 0 -80.5 17t-53.5 51t-19 83q0 18 2.5 40t7.5 45l104 488h38l-104 -488q-5 -23 -7 -44.5t-2 -38.5q0 -58 31.5 -88t84.5 -30q52 0 86.5 24t57 71t37.5 116l104 478h38l-105 -482q-16 -76 -43.5 -130.5t-70 -83t-106.5 -28.5zM363 782q-42 0 -67.5 25
t-25.5 67q0 41 25.5 67t67.5 26q43 0 68 -26.5t25 -65.5q0 -40 -25.5 -66.5t-67.5 -26.5zM363 811q29 0 46 17.5t17 45.5t-17 46t-46 18t-46.5 -18t-17.5 -46t17 -45.5t47 -17.5z" />
    <glyph glyph-name="uring" unicode="&#x16f;" horiz-adv-x="426" 
d="M134 -10q-30 0 -52.5 11t-34.5 33.5t-12 54.5q0 20 4.5 49t10.5 55l71 336h37l-72 -342q-5 -24 -9.5 -48t-4.5 -45q0 -35 18.5 -52.5t51.5 -17.5q41 0 74 27t57.5 77t38.5 120l59 281h37l-111 -529h-30l16 92h-3q-13 -27 -34.5 -50.5t-49.5 -37.5t-62 -14zM288 611
q-42 0 -67.5 25t-25.5 67q0 41 25.5 67t67.5 26q43 0 68 -26.5t25 -65.5q0 -40 -25.5 -66.5t-67.5 -26.5zM288 640q29 0 46 17.5t17 45.5t-17 46t-46 18t-46.5 -18t-17.5 -46t17 -45.5t47 -17.5z" />
    <glyph glyph-name="Uhungarumlaut" unicode="&#x170;" horiz-adv-x="510" 
d="M201 -10q-46 0 -80.5 17t-53.5 51t-19 83q0 18 2.5 40t7.5 45l104 488h38l-104 -488q-5 -23 -7 -44.5t-2 -38.5q0 -58 31.5 -88t84.5 -30q52 0 86.5 24t57 71t37.5 116l104 478h38l-105 -482q-16 -76 -43.5 -130.5t-70 -83t-106.5 -28.5zM402 785q24 24 48 51.5t44 54
t31 46.5h43v-8q-11 -16 -28.5 -36.5t-37.5 -42t-40.5 -40.5t-39.5 -33h-19zM259 785q24 24 47.5 51.5t43.5 54t31 46.5h43v-8q-11 -16 -28 -36.5t-37.5 -41.5t-41 -40.5t-39.5 -33.5h-19v8z" />
    <glyph glyph-name="uhungarumlaut" unicode="&#x171;" horiz-adv-x="426" 
d="M134 -10q-30 0 -52.5 11t-34.5 33.5t-12 54.5q0 20 4.5 49t10.5 55l71 336h37l-72 -342q-5 -24 -9.5 -48t-4.5 -45q0 -35 18.5 -52.5t51.5 -17.5q41 0 74 27t57.5 77t38.5 120l59 281h37l-111 -529h-30l16 92h-3q-13 -27 -34.5 -50.5t-49.5 -37.5t-62 -14zM329 614
q24 24 48 51.5t44 54t31 46.5h43v-8q-11 -16 -28.5 -36.5t-37.5 -42t-40.5 -40.5t-39.5 -33h-19zM186 614q24 24 47.5 51.5t43.5 54t31 46.5h43v-8q-11 -16 -28 -36.5t-37.5 -41.5t-41 -40.5t-39.5 -33.5h-19v8z" />
    <glyph glyph-name="Uogonek" unicode="&#x172;" horiz-adv-x="510" 
d="M201 -10q-46 0 -80.5 17t-53.5 51t-19 83q0 18 2.5 40t7.5 45l104 488h38l-104 -488q-5 -23 -7 -44.5t-2 -38.5q0 -58 31.5 -88t84.5 -30q52 0 86.5 24t57 71t37.5 116l104 478h38l-105 -482q-16 -76 -43.5 -130.5t-70 -83t-106.5 -28.5zM188 -217q-33 0 -52 19t-19 49
q0 28 12 52.5t36 49t61 50.5l29 -3q-32 -26 -55 -49t-35 -46t-12 -48q0 -21 11 -31.5t32 -10.5q11 0 20.5 2t18.5 4l-4 -30q-9 -3 -19 -5.5t-24 -2.5z" />
    <glyph glyph-name="uogonek" unicode="&#x173;" horiz-adv-x="426" 
d="M134 -10q-30 0 -52.5 11t-34.5 33.5t-12 54.5q0 20 4.5 49t10.5 55l71 336h37l-72 -342q-5 -24 -9.5 -48t-4.5 -45q0 -35 18.5 -52.5t51.5 -17.5q41 0 74 27t57.5 77t38.5 120l59 281h37l-111 -529h-30l16 92h-3q-13 -27 -34.5 -50.5t-49.5 -37.5t-62 -14zM231 -217
q-33 0 -52 19t-19 49q0 28 12 52.5t36 49t61 50.5l29 -3q-32 -26 -55 -49t-35 -46t-12 -48q0 -21 11 -31.5t32 -10.5q11 0 20.5 2t18.5 4l-4 -30q-9 -3 -19 -5.5t-24 -2.5z" />
    <glyph glyph-name="Wcircumflex" unicode="&#x174;" horiz-adv-x="676" 
d="M98 0l-2 714h36l1 -540q0 -36 -1 -65.5t-2 -52.5h3q11 32 23.5 63.5t25.5 60.5l223 534h37l-3 -521q0 -25 -0.5 -48.5t-1 -46.5t-1.5 -46h2l16 44t18 46.5t22 53.5l214 518h40l-298 -714h-46l3 544q0 17 0.5 33t1 31.5t0.5 32.5h-2q-8 -22 -15.5 -43.5t-16.5 -42.5
l-232 -555h-45zM313 785q20 20 43 46.5t44.5 54t36.5 50.5h32q5 -20 16 -49t24 -56.5t22 -45.5l-1 -8h-19q-11 16 -23 35t-22.5 40t-19.5 41q-23 -28 -52.5 -59t-60.5 -57h-21z" />
    <glyph glyph-name="wcircumflex" unicode="&#x175;" horiz-adv-x="533" 
d="M66 -1l-6 530h36l3 -356q0 -33 -0.5 -61t-1.5 -54h3q5 16 12.5 34.5t16 39t17.5 41.5l156 356h38l5 -356q1 -26 0.5 -57.5t-1.5 -58.5h2q6 18 13 36t15 37.5t17 42.5l146 356h38l-221 -530h-40l-4 376q-1 16 -1 31.5t0.5 32.5t0.5 33h-1q-6 -16 -12 -31l-12 -30t-14 -32
l-165 -380h-40zM214 614q20 20 43 46.5t44.5 54t36.5 50.5h32q5 -20 16 -49t24 -56.5t22 -45.5l-1 -8h-19q-11 16 -23 35t-22.5 40t-19.5 41q-23 -28 -52.5 -59t-60.5 -57h-21z" />
    <glyph glyph-name="Ycircumflex" unicode="&#x176;" horiz-adv-x="359" 
d="M96 0l59 275l-69 439h39l57 -388l222 388h42l-253 -438l-59 -276h-38zM164 785q20 20 43 46.5t44.5 54t36.5 50.5h32q5 -20 16 -49t24 -56.5t22 -45.5l-1 -8h-19q-11 16 -23 35t-22.5 40t-19.5 41q-23 -28 -52.5 -59t-60.5 -57h-21z" />
    <glyph glyph-name="ycircumflex" unicode="&#x177;" horiz-adv-x="339" 
d="M-62 -243q-16 0 -28.5 3t-19.5 7l4 35q9 -4 20 -7t25 -3q33 0 57 24t50 77l54 116l-31 520h37l18 -359q2 -18 3 -37t1.5 -37.5t0.5 -33.5h2q7 15 14.5 33.5t16.5 37t17 34.5l171 362h39l-309 -647q-20 -42 -40.5 -69.5t-44.5 -41.5t-57 -14zM125 614q20 20 43 46.5
t44.5 54t36.5 50.5h32q5 -20 16 -49t24 -56.5t22 -45.5l-1 -8h-19q-11 16 -23 35t-22.5 40t-19.5 41q-23 -28 -52.5 -59t-60.5 -57h-21z" />
    <glyph glyph-name="Ydieresis" unicode="&#x178;" horiz-adv-x="359" 
d="M96 0l59 275l-69 439h39l57 -388l222 388h42l-253 -438l-59 -276h-38zM347 815q-11 0 -16.5 6.5t-5.5 18.5q0 16 8 31t24 15q11 0 16.5 -6.5t5.5 -18.5q0 -16 -8.5 -31t-23.5 -15zM202 815q-10 0 -16 6.5t-6 18.5q0 16 8 31t24 15q8 0 12.5 -3t7 -8.5t2.5 -13.5
q0 -16 -8 -31t-24 -15z" />
    <glyph glyph-name="Zacute" unicode="&#x179;" horiz-adv-x="379" 
d="M-32 0l6 31l405 647h-255l8 36h299l-6 -32l-404 -647h274l-8 -35h-319zM255 798q23 23 47 50.5t44 54t32 47.5h43v-8q-11 -16 -28 -36.5t-37.5 -42t-41 -40.5t-38.5 -33h-21v8z" />
    <glyph glyph-name="zacute" unicode="&#x17a;" horiz-adv-x="300" 
d="M-28 0l6 29l294 466h-181l7 34h224l-6 -30l-295 -466h201l-6 -33h-244zM176 612q23 23 47 50.5t44 54t32 47.5h43v-8q-11 -16 -28 -36.5t-37.5 -42t-41 -40.5t-38.5 -33h-21v8z" />
    <glyph glyph-name="Zdotaccent" unicode="&#x17b;" horiz-adv-x="379" 
d="M-32 0l6 31l405 647h-255l8 36h299l-6 -32l-404 -647h274l-8 -35h-319zM292 814q-11 0 -17.5 7.5t-6.5 20.5q0 16 8.5 32t26.5 16q8 0 13 -3t7.5 -9t2.5 -15q0 -17 -9 -33t-25 -16z" />
    <glyph glyph-name="zdotaccent" unicode="&#x17c;" horiz-adv-x="300" 
d="M-28 0l6 29l294 466h-181l7 34h224l-6 -30l-295 -466h201l-6 -33h-244zM234 643q-11 0 -17.5 7.5t-6.5 20.5q0 16 8.5 32t26.5 16q8 0 13 -3t7.5 -9t2.5 -15q0 -17 -9 -33t-25 -16z" />
    <glyph glyph-name="Zcaron" unicode="&#x17d;" horiz-adv-x="379" 
d="M-32 0l6 31l405 647h-255l8 36h299l-6 -32l-404 -647h274l-8 -35h-319zM273 777q-5 21 -16 49.5t-23.5 56.5t-23.5 45l2 8h19q11 -14 22.5 -33.5t22.5 -40.5t19 -42q24 29 53.5 60t60.5 56h21l-1 -8q-18 -18 -42 -45t-46 -54.5t-36 -51.5h-32z" />
    <glyph glyph-name="zcaron" unicode="&#x17e;" horiz-adv-x="300" 
d="M-28 0l6 29l294 466h-181l7 34h224l-6 -30l-295 -466h201l-6 -33h-244zM206 606q-5 21 -16 49.5t-23.5 56.5t-23.5 45l2 8h19q11 -14 22.5 -33.5t22.5 -40.5t19 -42q24 29 53.5 60t60.5 56h21l-1 -8q-18 -18 -42 -45t-46 -54.5t-36 -51.5h-32z" />
    <glyph glyph-name="longs" unicode="&#x17f;" horiz-adv-x="189" 
d="M-96 -240q-13 0 -25 2t-19 5v35q8 -3 19 -5.5t24 -2.5q38 0 56.5 29.5t29.5 83.5l153 716q11 47 27 78.5t41 47.5t62 16q18 0 34.5 -4t25.5 -8l-13 -33q-9 5 -22.5 8t-26.5 3q-28 0 -45.5 -14.5t-28.5 -40.5t-18 -61l-153 -713q-9 -41 -23 -73.5t-37 -50.5t-61 -18z" />
    <glyph glyph-name="fhook" unicode="&#x192;" horiz-adv-x="341" 
d="M28 -241q-39 0 -64.5 16.5t-37.5 43.5t-12 59q0 15 2 27.5t6 23.5l33 -10l-4 -20t-2 -21q0 -23 8.5 -42.5t26 -31t44.5 -11.5q41 0 62.5 28.5t31.5 78.5l126 595h-69l5 25l71 9l20 91q9 36 19.5 63.5t25.5 45.5t36 27t50 9q17 0 33.5 -4t26.5 -8l-13 -32q-10 5 -22.5 7.5
t-26.5 2.5q-40 0 -60.5 -29.5t-32.5 -87.5l-18 -85h84l-7 -34h-84l-126 -598q-14 -65 -44.5 -101.5t-87.5 -36.5z" />
    <glyph glyph-name="Aringacute" unicode="&#x1fa;" horiz-adv-x="404" 
d="M233 609q-23 10 -36.5 30.5t-13.5 49.5q0 42 25.5 67.5t68.5 25.5q42 0 67.5 -26.5t26.5 -64.5q0 -37 -19.5 -60t-50.5 -29l41 -602h-37l-18 248h-188l-121 -248h-40zM114 283h172l-15 244q-1 17 -2 35.5t-1 32.5l-7 1q-6 -14 -13.5 -32t-17.5 -38zM277 627
q28 0 45.5 17.5t17.5 44.5q0 28 -17.5 46t-45.5 18q-29 0 -46 -18t-17 -46q0 -27 16 -44.5t47 -17.5zM265 815q23 22 46 48.5t43 52.5t32 46h44v-8q-15 -20 -39.5 -48t-51.5 -54t-52 -44h-22v7z" />
    <glyph glyph-name="aringacute" unicode="&#x1fb;" horiz-adv-x="439" 
d="M151 -10q-39 0 -64.5 17.5t-38 51t-12.5 82.5q0 47 9 101t27 106.5t45.5 95.5t65 69t84.5 26q28 0 48.5 -11.5t33 -31.5t19.5 -46h2l22 79h30l-112 -529h-30l15 93h-2q-18 -29 -41 -52.5t-48.5 -37t-52.5 -13.5zM152 25q41 0 74.5 29.5t58.5 78.5t40 105q11 44 16.5 82.5
t5.5 75.5q0 50 -22.5 79t-60.5 29q-36 0 -66 -23t-53 -62t-39 -87t-24 -99t-8 -97q0 -54 18 -82.5t60 -28.5zM291 581q-40 0 -66.5 24.5t-26.5 66.5q0 41 25.5 66.5t67.5 25.5q41 0 67.5 -25t27.5 -65q0 -42 -26 -67.5t-69 -25.5zM292 609q27 0 45 17.5t18 45.5
q0 29 -17.5 47t-45.5 18q-29 0 -46 -18t-17 -47q0 -30 16 -46.5t47 -16.5zM288 811q18 20 37.5 43t39 48.5t34.5 50.5h53l1 -8q-15 -19 -38 -44t-51 -50.5t-57 -47.5h-19v8z" />
    <glyph glyph-name="AEacute" unicode="&#x1fc;" horiz-adv-x="580" 
d="M-65 0l366 714h322l-7 -35h-235l-61 -286h220l-8 -35h-220l-68 -323h234l-7 -35h-272l57 270h-142l-137 -270h-42zM132 305h131l80 374h-21zM364 798q23 23 47 50.5t44 54t32 47.5h43v-8q-11 -16 -28 -36.5t-37.5 -42t-41 -40.5t-38.5 -33h-21v8z" />
    <glyph glyph-name="aeacute" unicode="&#x1fd;" horiz-adv-x="651" 
d="M145 -10q-35 0 -59.5 18.5t-37.5 54.5t-13 87q0 50 9.5 103.5t28 104.5t46 91.5t63 65t79.5 24.5q31 0 51 -14.5t31.5 -36.5t15.5 -48h2l22 89h29l-21 -95q28 46 65.5 75.5t84.5 29.5q42 0 69 -25.5t27 -75.5q0 -40 -17.5 -74t-51 -60t-83.5 -40t-115 -14h-14
q-3 -19 -5 -41t-2 -46q0 -69 26.5 -104t82.5 -35q28 0 54 8.5t49 20.5l-2 -36q-20 -12 -47.5 -19.5t-59.5 -7.5q-52 0 -85.5 28t-43.5 88l-22 -106h-29l18 98h-2q-16 -30 -37 -55t-47 -39t-59 -14zM154 24q30 0 55 17t45.5 47t36 68.5t25.5 81.5q10 44 16.5 84.5t6.5 74.5
q0 50 -20 78.5t-57 28.5q-35 0 -65 -22t-53 -59.5t-39 -83.5t-24 -95t-8 -93q0 -65 22 -96t59 -31zM377 282q75 0 124.5 21.5t74 56t24.5 77.5q0 30 -16 49t-48 19q-38 0 -72.5 -28.5t-61.5 -78.5t-41 -116h16zM356 612q23 23 47 50.5t44 54t32 47.5h43v-8
q-11 -16 -28 -36.5t-37.5 -42t-41 -40.5t-38.5 -33h-21v8z" />
    <glyph glyph-name="Oslashacute" unicode="&#x1fe;" horiz-adv-x="536" 
d="M21 -38l-26 18l76 108q-12 25 -17.5 57t-5.5 69q0 51 8 108t24 114t40 108.5t57 92t74.5 64t91.5 23.5q43 0 75 -15.5t53 -48.5l64 92l27 -18l-74 -106q10 -23 15.5 -52.5t5.5 -65.5q0 -45 -7 -100.5t-21.5 -114t-37 -113t-55.5 -98t-75 -69t-96 -25.5q-44 0 -76.5 17
t-52.5 49zM220 25q44 0 79.5 23.5t63 63.5t47.5 90t33 104t19.5 105.5t6.5 93.5q0 24 -2.5 44t-7.5 36l-347 -494q15 -33 42.5 -49.5t65.5 -16.5zM447 625q-15 33 -41.5 48.5t-65.5 15.5q-44 0 -80 -23t-64 -62.5t-48 -89t-33.5 -102t-20 -102.5t-6.5 -90q0 -26 3 -48.5
t8 -41.5zM337 799q23 23 47 50.5t44 54t32 47.5h43v-8q-11 -16 -28 -36.5t-37.5 -42t-41 -40.5t-38.5 -33h-21v8z" />
    <glyph glyph-name="oslashacute" unicode="&#x1ff;" horiz-adv-x="430" 
d="M24 -52l-25 17l58 87q-11 20 -16.5 46t-5.5 58q0 44 8.5 95.5t26.5 102t45.5 92.5t64.5 67t84 25q28 0 50.5 -9t38.5 -28l51 76l26 -17l-58 -86q10 -19 15 -44.5t5 -56.5q0 -49 -8.5 -101.5t-27 -102.5t-45 -90.5t-63 -64.5t-81.5 -24q-29 0 -51.5 9.5t-38.5 26.5z
M169 24q36 0 65.5 21.5t51.5 58t37.5 81.5t23 92.5t7.5 90.5q1 20 -1 36.5t-7 29.5l-249 -376q13 -17 31 -25.5t41 -8.5zM332 469q-11 17 -29 26.5t-42 9.5q-36 0 -66 -22.5t-52.5 -60.5t-38 -83.5t-23.5 -92.5t-8 -87q0 -20 2.5 -37.5t7.5 -31.5zM246 612q23 23 47 50.5
t44 54t32 47.5h43v-8q-11 -16 -28 -36.5t-37.5 -42t-41 -40.5t-38.5 -33h-21v8z" />
    <glyph glyph-name="uni0218" unicode="&#x218;" horiz-adv-x="394" 
d="M125 -10q-46 0 -80.5 8.5t-58.5 20.5l2 41q27 -15 61 -25t77 -10q34 0 64 10.5t53 30.5t35.5 50t12.5 70q0 33 -11.5 59.5t-34 51t-56.5 54.5q-28 26 -51 52t-36.5 57.5t-13.5 73.5q0 48 15.5 83.5t42.5 59t62 35.5t75 12q43 0 77 -10t57 -24l-18 -34q-24 14 -52.5 23.5
t-65.5 9.5q-31 0 -58.5 -9.5t-49 -28t-34 -47t-12.5 -67.5q0 -36 12 -63t33.5 -51t51.5 -52q31 -26 55 -53t37.5 -58.5t13.5 -71.5q0 -49 -15.5 -85.5t-43.5 -61.5t-65.5 -38t-80.5 -13zM48 -208q14 16 31 41.5t32 54t22 51.5h36v-11q-8 -21 -25 -49t-37.5 -54.5
t-39.5 -45.5h-19v13z" />
    <glyph glyph-name="uni0219" unicode="&#x219;" horiz-adv-x="325" 
d="M105 -10q-38 0 -67 9t-45 18v40q19 -12 48.5 -22.5t62.5 -10.5q40 0 65.5 13.5t37.5 39t12 60.5q0 26 -8.5 45t-25.5 37.5t-41 41.5q-23 20 -41.5 40t-29 44.5t-10.5 56.5q0 41 18 71.5t51.5 48t76.5 17.5q39 0 67.5 -9.5t48.5 -21.5l-17 -31q-18 11 -42.5 19.5
t-57.5 8.5q-48 0 -77.5 -26.5t-29.5 -73.5q0 -23 8 -42.5t23.5 -36.5t37.5 -37q26 -25 46 -46t31 -45t11 -58q0 -47 -17.5 -80.5t-51.5 -51.5t-84 -18zM14 -208q14 16 31 41.5t32 54t22 51.5h36v-11q-8 -21 -25 -49t-37.5 -54.5t-39.5 -45.5h-19v13z" />
    <glyph glyph-name="circumflex" unicode="&#x2c6;" horiz-adv-x="299" 
d="M115 614q20 20 43 46.5t44.5 54t36.5 50.5h32q5 -20 16 -49t24 -56.5t22 -45.5l-1 -8h-19q-11 16 -23 35t-22.5 40t-19.5 41q-23 -28 -52.5 -59t-60.5 -57h-21z" />
    <glyph glyph-name="caron" unicode="&#x2c7;" horiz-adv-x="300" 
d="M208 606q-5 21 -16 49.5t-23.5 56.5t-23.5 45l2 8h19q11 -14 22.5 -33.5t22.5 -40.5t19 -42q24 29 53.5 60t60.5 56h21l-1 -8q-18 -18 -42 -45t-46 -54.5t-36 -51.5h-32z" />
    <glyph glyph-name="macronmod" unicode="&#x2c9;" horiz-adv-x="308" 
d="M114 612l7 33h227l-7 -33h-227z" />
    <glyph glyph-name="breve" unicode="&#x2d8;" horiz-adv-x="296" 
d="M232 607q-34 0 -55 12t-31 33t-10 47v11v8h28q-1 -23 4.5 -41t21 -27.5t43.5 -9.5q41 0 61.5 18.5t29.5 59.5h28q-10 -55 -38.5 -83t-81.5 -28z" />
    <glyph glyph-name="dotaccent" unicode="&#x2d9;" horiz-adv-x="137" 
d="M152 643q-11 0 -17.5 7.5t-6.5 20.5q0 16 8.5 32t26.5 16q8 0 13 -3t7.5 -9t2.5 -15q0 -17 -9 -33t-25 -16z" />
    <glyph glyph-name="ring" unicode="&#x2da;" horiz-adv-x="271" 
d="M229 611q-42 0 -67.5 25t-25.5 67q0 41 25.5 67t67.5 26q43 0 68 -26.5t25 -65.5q0 -40 -25.5 -66.5t-67.5 -26.5zM229 640q29 0 46 17.5t17 45.5t-17 46t-46 18t-46.5 -18t-17.5 -46t17 -45.5t47 -17.5z" />
    <glyph glyph-name="ogonek" unicode="&#x2db;" horiz-adv-x="210" 
d="M26 -217q-33 0 -52 19t-19 49q0 28 12 52.5t36 49t61 50.5l29 -3q-32 -26 -55 -49t-35 -46t-12 -48q0 -21 11 -31.5t32 -10.5q11 0 20.5 2t18.5 4l-4 -30q-9 -3 -19 -5.5t-24 -2.5z" />
    <glyph glyph-name="tilde" unicode="&#x2dc;" horiz-adv-x="352" 
d="M114 612q7 34 18.5 56t29.5 33t42 11q21 0 36.5 -10t28.5 -23t25 -23t27 -10q20 0 33.5 14.5t21.5 51.5h31q-6 -33 -18 -55.5t-29.5 -33.5t-40.5 -11q-20 0 -35.5 10t-28 23.5t-25.5 23.5t-29 10q-22 0 -35.5 -16t-20.5 -51h-31z" />
    <glyph glyph-name="hungarumlaut" unicode="&#x2dd;" horiz-adv-x="359" 
d="M258 614q24 24 48 51.5t44 54t31 46.5h43v-8q-11 -16 -28.5 -36.5t-37.5 -42t-40.5 -40.5t-39.5 -33h-19zM115 614q24 24 47.5 51.5t43.5 54t31 46.5h43v-8q-11 -16 -28 -36.5t-37.5 -41.5t-41 -40.5t-39.5 -33.5h-19v8z" />
    <glyph glyph-name="tonos" unicode="&#x384;" horiz-adv-x="174" 
d="M113 606l2 10l82 158h45l-2 -7l-103 -161h-24z" />
    <glyph glyph-name="dieresistonos" unicode="&#x385;" horiz-adv-x="531" 
d="M273 606l2 10l76 158h44l-2 -7l-96 -161h-24zM228 633q-13 0 -18.5 9t-3.5 24q3 16 12.5 27t23.5 11q13 0 18.5 -9t2.5 -24q-3 -16 -12 -27t-23 -11zM399 633q-12 0 -18 9.5t-3 23.5q2 16 11.5 27t23.5 11q12 0 18.5 -9t3.5 -24q-2 -16 -12 -27t-24 -11z" />
    <glyph glyph-name="Alphatonos" unicode="&#x386;" horiz-adv-x="425" 
d="M-42 0l330 717h45l30 -717h-38l-11 269h-191l-123 -269h-42zM138 304h175l-9 282l-2 44t0 39h-3q-6 -17 -15 -38t-20 -46zM64 546l2 10l82 158h45l-2 -7l-103 -161h-24z" />
    <glyph glyph-name="anoteleia" unicode="&#x387;" horiz-adv-x="190" 
d="M138 454q-11 0 -18 7t-7 20q0 18 9.5 35t28.5 17q11 0 17.5 -8t6.5 -21q0 -17 -9.5 -33.5t-27.5 -16.5z" />
    <glyph glyph-name="Epsilontonos" unicode="&#x388;" horiz-adv-x="503" 
d="M119 0l151 714h270l-7 -35h-232l-61 -286h218l-8 -35h-218l-69 -323h233l-7 -35h-270zM70 546l2 10l82 158h45l-2 -7l-103 -161h-24z" />
    <glyph glyph-name="Etatonos" unicode="&#x389;" horiz-adv-x="621" 
d="M119 0l151 714h38l-68 -321h286l68 321h37l-151 -714h-38l76 357h-286l-76 -357h-37zM70 546l2 10l82 158h45l-2 -7l-103 -161h-24z" />
    <glyph glyph-name="Iotatonos" unicode="&#x38a;" horiz-adv-x="339" 
d="M84 0l5 25l66 6l138 652l-62 6l5 25h165l-6 -25l-65 -6l-138 -652l62 -6l-5 -25h-165zM70 546l2 10l82 158h45l-2 -7l-103 -161h-24z" />
    <glyph glyph-name="Omicrontonos" unicode="&#x38c;" horiz-adv-x="605" 
d="M288 -10q-58 0 -95 26.5t-55.5 76.5t-18.5 121q0 51 8 108t24 114t40 108.5t57 92t74.5 64t91.5 23.5q79 0 122.5 -51.5t43.5 -162.5q0 -45 -7 -100.5t-21.5 -114t-37 -113t-55.5 -98t-75 -69t-96 -25.5zM291 25q44 0 79.5 24t63.5 64.5t48 91t33 105t19.5 106t6.5 93.5
q0 91 -32 135.5t-98 44.5q-44 0 -80 -23.5t-64 -63t-48.5 -89.5t-33.5 -103.5t-19.5 -103.5t-6.5 -90q0 -63 14 -105.5t43.5 -64t74.5 -21.5zM70 546l2 10l82 158h45l-2 -7l-103 -161h-24z" />
    <glyph glyph-name="Upsilontonos" unicode="&#x38e;" horiz-adv-x="505" 
d="M242 0l59 275l-69 439h39l57 -388l222 388h42l-253 -438l-59 -276h-38zM70 546l2 10l82 158h45l-2 -7l-103 -161h-24z" />
    <glyph glyph-name="Omegatonos" unicode="&#x38f;" horiz-adv-x="640" 
d="M110 0l8 36h142q-37 33 -59.5 82t-28 115.5t4.5 149.5q16 112 50 188t88.5 114.5t128.5 38.5t117.5 -38.5t57 -115.5t-3.5 -190q-11 -86 -38.5 -151.5t-67 -113.5t-88.5 -79h141l-8 -36h-191l7 29q57 35 99 84.5t69 115.5t39 150q14 102 4 171t-45.5 104t-97.5 35
q-61 0 -106 -35.5t-74 -104t-42 -167.5q-11 -85 -5 -153t29.5 -118t65.5 -82l-7 -29h-189zM70 546l2 10l82 158h45l-2 -7l-103 -161h-24z" />
    <glyph glyph-name="iotadieresistonos" unicode="&#x390;" horiz-adv-x="236" 
d="M97 -10q-21 0 -36.5 8t-24 24.5t-8.5 43.5q0 11 1 23t4 27l88 413h38l-87 -408q-4 -13 -5 -25t-1 -22q0 -24 10 -36.5t32 -12.5q10 0 20.5 2t20.5 7l-8 -36q-8 -3 -18.5 -5.5t-25.5 -2.5zM155 605l2 10l76 158h44l-2 -7l-96 -161h-24zM110 632q-13 0 -18.5 9t-3.5 24
q3 16 12.5 27t23.5 11q13 0 18.5 -9t2.5 -24q-3 -16 -12 -27t-23 -11zM281 632q-12 0 -18 9.5t-3 23.5q2 16 11.5 27t23.5 11q12 0 18.5 -9t3.5 -24q-2 -16 -12 -27t-24 -11z" />
    <glyph glyph-name="Alpha" unicode="&#x391;" horiz-adv-x="404" 
d="M-63 0l330 717h45l30 -717h-38l-11 269h-191l-123 -269h-42zM117 304h175l-9 282l-2 44t0 39h-3q-6 -17 -15 -38t-20 -46z" />
    <glyph glyph-name="Beta" unicode="&#x392;" horiz-adv-x="449" 
d="M17 0l150 714h125q53 0 87 -16.5t51.5 -47t17.5 -72.5q0 -48 -16.5 -91t-50 -72.5t-82.5 -40.5l-1 -2q44 -10 69 -45t25 -91q0 -69 -27 -122.5t-79.5 -83.5t-128.5 -30h-140zM161 35q65 0 107.5 27t63.5 72t21 101q0 66 -36 94.5t-97 28.5h-90l-68 -323h99zM229 392
q61 0 100.5 25t59 66.5t19.5 90.5q0 52 -30 78.5t-93 26.5h-87l-61 -287h92z" />
    <glyph glyph-name="Gamma" unicode="&#x393;" horiz-adv-x="348" 
d="M16 0l151 714h250l-7 -35h-212l-145 -679h-37z" />
    <glyph glyph-name="Epsilon" unicode="&#x395;" horiz-adv-x="400" 
d="M16 0l151 714h270l-7 -35h-232l-61 -286h218l-8 -35h-218l-69 -323h233l-7 -35h-270z" />
    <glyph glyph-name="Zeta" unicode="&#x396;" horiz-adv-x="379" 
d="M-32 0l6 31l405 647h-255l8 36h299l-6 -32l-404 -647h274l-8 -35h-319z" />
    <glyph glyph-name="Eta" unicode="&#x397;" horiz-adv-x="518" 
d="M16 0l151 714h38l-68 -321h286l68 321h37l-151 -714h-38l76 357h-286l-76 -357h-37z" />
    <glyph glyph-name="Theta" unicode="&#x398;" horiz-adv-x="533" 
d="M162 344l8 35h226l-8 -35h-226zM217 -10q-58 0 -95 26.5t-55.5 76.5t-18.5 121q0 51 8 108t24 114t40 108.5t57 92t74.5 64t91.5 23.5q79 0 122.5 -51.5t43.5 -162.5q0 -45 -7 -100.5t-21.5 -114t-37 -113t-55.5 -98t-75 -69t-96 -25.5zM220 25q44 0 79.5 24t63.5 64.5
t48 91t33 105t19.5 106t6.5 93.5q0 91 -32 135.5t-98 44.5q-44 0 -80 -23.5t-64 -63t-48.5 -89.5t-33.5 -103.5t-19.5 -103.5t-6.5 -90q0 -63 14 -105.5t43.5 -64t74.5 -21.5z" />
    <glyph glyph-name="Iota" unicode="&#x399;" horiz-adv-x="215" 
d="M-39 0l5 25l66 6l138 652l-62 6l5 25h165l-6 -25l-65 -6l-138 -652l62 -6l-5 -25h-165z" />
    <glyph glyph-name="Kappa" unicode="&#x39a;" horiz-adv-x="415" 
d="M16 0l151 714h38l-82 -386l64 82l260 304h45l-263 -313l122 -401h-42l-110 372l-86 -89l-60 -283h-37z" />
    <glyph glyph-name="Lambda" unicode="&#x39b;" horiz-adv-x="407" 
d="M-63 0l334 715h45l29 -715h-38l-20 568q-1 26 -1.5 52t-0.5 50h-2q-10 -25 -21 -52t-26 -60l-258 -558h-41z" />
    <glyph glyph-name="Mu" unicode="&#x39c;" horiz-adv-x="663" 
d="M16 0l151 714h54l56 -658h3l334 658h59l-151 -714h-38l119 559q3 15 6.5 29.5t7.5 31t8 34.5h-2l-334 -654h-43l-55 654h-2q-3 -19 -6 -34.5t-6 -30.5t-6 -31l-119 -558h-36z" />
    <glyph glyph-name="Nu" unicode="&#x39d;" horiz-adv-x="534" 
d="M16 0l151 714h42l162 -640h2l10 52t10 50t9 42l105 496h37l-151 -714h-42l-161 646h-2q-3 -16 -6 -33t-6.5 -35.5t-7.5 -37.5t-9 -39l-106 -501h-37z" />
    <glyph glyph-name="Xi" unicode="&#x39e;" horiz-adv-x="427" 
d="M2 0l8 35h310l-8 -35h-310zM106 357l8 36h253l-8 -36h-253zM154 679l8 35h295l-7 -35h-296z" />
    <glyph glyph-name="Omicron" unicode="&#x39f;" horiz-adv-x="533" 
d="M217 -10q-58 0 -95 26.5t-55.5 76.5t-18.5 121q0 51 8 108t24 114t40 108.5t57 92t74.5 64t91.5 23.5q79 0 122.5 -51.5t43.5 -162.5q0 -45 -7 -100.5t-21.5 -114t-37 -113t-55.5 -98t-75 -69t-96 -25.5zM220 25q44 0 79.5 24t63.5 64.5t48 91t33 105t19.5 106t6.5 93.5
q0 91 -32 135.5t-98 44.5q-44 0 -80 -23.5t-64 -63t-48.5 -89.5t-33.5 -103.5t-19.5 -103.5t-6.5 -90q0 -63 14 -105.5t43.5 -64t74.5 -21.5z" />
    <glyph glyph-name="Pi" unicode="&#x3a0;" horiz-adv-x="516" 
d="M16 0l151 714h358l-151 -714h-38l144 679h-282l-145 -679h-37z" />
    <glyph glyph-name="Rho" unicode="&#x3a1;" horiz-adv-x="422" 
d="M16 0l151 714h99q56 0 92.5 -18.5t55 -53.5t18.5 -85q0 -56 -16 -103t-46.5 -81.5t-76 -53.5t-105.5 -19h-71l-63 -300h-38zM189 335q70 0 115.5 28.5t67 78.5t21.5 113q0 60 -32 92t-101 32h-62l-73 -344h64z" />
    <glyph glyph-name="Sigma" unicode="&#x3a3;" horiz-adv-x="378" 
d="M-32 0l7 31l229 343l-70 312l6 28h286l-7 -35h-177h-22.5t-21.5 0.5t-24 0.5l66 -304l-2 -10l-222 -333q18 1 40 1.5t52 0.5h186l-7 -35h-319z" />
    <glyph glyph-name="Tau" unicode="&#x3a4;" horiz-adv-x="359" 
d="M96 0l144 679h-154l8 35h346l-7 -35h-155l-144 -679h-38z" />
    <glyph glyph-name="Upsilon" unicode="&#x3a5;" horiz-adv-x="359" 
d="M96 0l59 275l-69 439h39l57 -388l222 388h42l-253 -438l-59 -276h-38z" />
    <glyph glyph-name="Phi" unicode="&#x3a6;" horiz-adv-x="648" 
d="M240 0l19 91q-61 4 -104 26t-67.5 60t-32.5 89.5t2 114.5q10 64 34.5 114t64 84t95 50.5t126.5 15.5l15 69h37l-15 -69q62 -4 105.5 -25.5t68.5 -59.5t32.5 -90t-1.5 -115q-10 -64 -34.5 -114t-64.5 -84t-96 -51t-128 -15l-19 -91h-37zM266 125l104 487q-80 2 -137 -24.5
t-91 -79t-46 -128.5q-9 -57 -3 -103.5t26.5 -79t57 -51t89.5 -21.5zM303 124q81 -1 138.5 25t92.5 78.5t46 128.5q8 58 2 104.5t-27 79t-57.5 51t-90.5 20.5z" />
    <glyph glyph-name="Chi" unicode="&#x3a7;" horiz-adv-x="371" 
d="M-58 0l242 377l-68 337h38l59 -305l189 305h41l-216 -344l71 -370h-39l-61 336l-215 -336h-41z" />
    <glyph glyph-name="Psi" unicode="&#x3a8;" horiz-adv-x="593" 
d="M214 0l41 192q-46 3 -81 16t-56 40.5t-25.5 74.5t10.5 117l59 274h37l-57 -270q-16 -72 -10.5 -119.5t37 -71.5t94.5 -26l103 487h38l-104 -487q56 1 97 22t70 67.5t45 124.5l59 273h38l-60 -276q-14 -67 -36.5 -113.5t-54.5 -75.5t-73 -42.5t-92 -14.5l-41 -192h-38z
" />
    <glyph glyph-name="Iotadieresis" unicode="&#x3aa;" horiz-adv-x="215" 
d="M-39 0l5 25l66 6l138 652l-62 6l5 25h165l-6 -25l-65 -6l-138 -652l62 -6l-5 -25h-165zM288 831q-11 0 -16.5 6.5t-5.5 18.5q0 16 8 31t24 15q11 0 16.5 -6.5t5.5 -18.5q0 -16 -8.5 -31t-23.5 -15zM143 831q-10 0 -16 6.5t-6 18.5q0 16 8 31t24 15q8 0 12.5 -3t7 -8.5
t2.5 -13.5q0 -16 -8 -31t-24 -15z" />
    <glyph glyph-name="Upsilondieresis" unicode="&#x3ab;" horiz-adv-x="359" 
d="M96 0l59 275l-69 439h39l57 -388l222 388h42l-253 -438l-59 -276h-38zM347 815q-11 0 -16.5 6.5t-5.5 18.5q0 16 8 31t24 15q11 0 16.5 -6.5t5.5 -18.5q0 -16 -8.5 -31t-23.5 -15zM202 815q-10 0 -16 6.5t-6 18.5q0 16 8 31t24 15q8 0 12.5 -3t7 -8.5t2.5 -13.5
q0 -16 -8 -31t-24 -15z" />
    <glyph glyph-name="alphatonos" unicode="&#x3ac;" horiz-adv-x="463" 
d="M146 -10q-53 0 -83 41.5t-30 118.5q0 46 9 99t27 104t45.5 93t63.5 67.5t82 25.5q32 0 54.5 -13t36.5 -35.5t18 -53.5h3l28 92h24l-80 -379l-9.5 -47.5t-4.5 -38.5q0 -18 7 -29t25 -11q6 0 15 1.5t21 4.5l-7 -32q-7 -2 -14.5 -4t-14 -3t-12.5 -1q-27 0 -39.5 14.5t-14 40
t3.5 56.5h-2q-17 -32 -40 -57t-51 -39.5t-61 -14.5zM153 24q42 0 75.5 30t58 78.5t39.5 100.5q13 47 18.5 87.5t5.5 64.5q0 60 -24 89.5t-64 29.5t-71 -24t-53.5 -63.5t-37 -86.5t-22 -93.5t-7.5 -83.5q0 -66 21.5 -97.5t60.5 -31.5zM266 605l2 10l82 158h45l-2 -7
l-103 -161h-24z" />
    <glyph glyph-name="epsilontonos" unicode="&#x3ad;" horiz-adv-x="311" 
d="M149 -10q-47 0 -76 20.5t-40 55.5t-7 77q6 58 36 91.5t74 41.5l1 2q-30 13 -45.5 44t-10.5 82q4 47 25.5 76.5t54.5 44t70 14.5q29 0 54.5 -7.5t43.5 -22.5l-14 -32q-14 12 -37 20t-47 8q-34 0 -58.5 -12.5t-38 -35.5t-15.5 -55q-5 -48 13 -78.5t71 -30.5h41l-6 -33h-41
q-41 0 -69.5 -13t-44 -38t-19.5 -64q-6 -56 15.5 -88.5t75.5 -32.5q32 0 54 5.5t44 16.5v-34q-18 -11 -44 -16.5t-60 -5.5zM233 605l2 10l82 158h45l-2 -7l-103 -161h-24z" />
    <glyph glyph-name="etatonos" unicode="&#x3ae;" horiz-adv-x="425" 
d="M335 339q5 25 9.5 50t4.5 46q0 35 -18.5 52t-51.5 17q-31 0 -57.5 -15.5t-47.5 -44.5t-37 -70.5t-28 -92.5l-59 -281h-38l112 529h31l-17 -93h2q11 20 25 38.5t33 33t41.5 23t47.5 8.5q31 0 53 -11t34.5 -33t12.5 -55q0 -21 -5 -50.5t-11 -55.5l-122 -574h-37zM220 605
l2 10l82 158h45l-2 -7l-103 -161h-24z" />
    <glyph glyph-name="iotatonos" unicode="&#x3af;" horiz-adv-x="203" 
d="M97 -10q-21 0 -36.5 8t-24 24.5t-8.5 43.5q0 11 1 23t4 27l88 413h38l-87 -408q-4 -13 -5 -25t-1 -22q0 -24 10 -36.5t32 -12.5q10 0 20.5 2t20.5 7l-8 -36q-8 -3 -18.5 -5.5t-25.5 -2.5zM145 605l2 10l82 158h45l-2 -7l-103 -161h-24z" />
    <glyph glyph-name="upsilondieresistonos" unicode="&#x3b0;" horiz-adv-x="415" 
d="M140 -10q-45 0 -71 18.5t-32.5 56t6.5 96.5l79 368h37l-79 -367q-16 -74 -1 -105.5t65 -31.5q71 0 119 61t68 170q8 43 12.5 81t6 72.5t0.5 64.5t-3 55h36q5 -33 5 -76t-4.5 -93.5t-14.5 -106.5q-16 -86 -48 -144.5t-77.5 -88.5t-103.5 -30zM255 605l2 10l76 158h44
l-2 -7l-96 -161h-24zM210 632q-13 0 -18.5 9t-3.5 24q3 16 12.5 27t23.5 11q13 0 18.5 -9t2.5 -24q-3 -16 -12 -27t-23 -11zM381 632q-12 0 -18 9.5t-3 23.5q2 16 11.5 27t23.5 11q12 0 18.5 -9t3.5 -24q-2 -16 -12 -27t-24 -11z" />
    <glyph glyph-name="alpha" unicode="&#x3b1;" horiz-adv-x="463" 
d="M146 -10q-53 0 -83 41.5t-30 118.5q0 46 9 99t27 104t45.5 93t63.5 67.5t82 25.5q32 0 54.5 -13t36.5 -35.5t18 -53.5h3l28 92h24l-80 -379l-9.5 -47.5t-4.5 -38.5q0 -18 7 -29t25 -11q6 0 15 1.5t21 4.5l-7 -32q-7 -2 -14.5 -4t-14 -3t-12.5 -1q-27 0 -39.5 14.5t-14 40
t3.5 56.5h-2q-17 -32 -40 -57t-51 -39.5t-61 -14.5zM153 24q42 0 75.5 30t58 78.5t39.5 100.5q13 47 18.5 87.5t5.5 64.5q0 60 -24 89.5t-64 29.5t-71 -24t-53.5 -63.5t-37 -86.5t-22 -93.5t-7.5 -83.5q0 -66 21.5 -97.5t60.5 -31.5z" />
    <glyph glyph-name="beta" unicode="&#x3b2;" horiz-adv-x="439" 
d="M-35 -230l170 800q13 61 35 105t57.5 67t88.5 23q40 0 69.5 -16t45 -48t12.5 -80q-2 -52 -19.5 -99.5t-51 -79.5t-84.5 -42q52 -10 80.5 -52t24.5 -110q-2 -47 -16.5 -91.5t-41 -79.5t-65.5 -56t-90 -21q-38 0 -69 13.5t-52 32.5l-57 -266h-37zM179 24q45 0 77 19
t53.5 49.5t32.5 68t13 75.5q3 47 -9.5 80t-40.5 50.5t-73 17.5h-30l6 34h31q42 0 72.5 17t50.5 45.5t30.5 64.5t11.5 72q4 57 -20.5 85.5t-70.5 28.5q-39 0 -66.5 -18.5t-45.5 -54.5t-30 -90l-104 -497q21 -20 50 -33.5t62 -13.5z" />
    <glyph glyph-name="gamma" unicode="&#x3b3;" horiz-adv-x="356" 
d="M32 -204l46 215l-23 518h36l16 -382q1 -12 1 -29.5t0.5 -35.5t-0.5 -33h3q55 61 99 133.5t74 158.5t41 188h38q-11 -108 -44.5 -200t-85 -172t-119.5 -151l-45 -210h-37z" />
    <glyph glyph-name="delta" unicode="&#x3b4;" horiz-adv-x="427" 
d="M178 -10q-47 0 -80.5 22t-50.5 63t-14 99q2 66 27 126t72 105t116 66q-32 37 -50.5 71.5t-16.5 83.5q2 41 21 71t52.5 46.5t78.5 16.5q44 0 74 -13t45 -26l-19 -30q-18 15 -43.5 25t-59.5 10q-50 0 -79.5 -26.5t-31.5 -72.5q-2 -30 6.5 -54.5t25 -46.5t38.5 -48
q36 -37 56.5 -73.5t29 -76.5t6.5 -88q-2 -46 -15 -90.5t-37.5 -80.5t-62 -57.5t-88.5 -21.5zM181 24q41 0 71 20t49.5 52.5t29.5 70t11 73.5q3 45 -5 81.5t-25 67.5t-43 58q-62 -19 -105.5 -59.5t-67 -95.5t-25.5 -116q-3 -48 9.5 -82t38 -52t62.5 -18z" />
    <glyph glyph-name="epsilon" unicode="&#x3b5;" horiz-adv-x="311" 
d="M149 -10q-47 0 -76 20.5t-40 55.5t-7 77q6 58 36 91.5t74 41.5l1 2q-30 13 -45.5 44t-10.5 82q4 47 25.5 76.5t54.5 44t70 14.5q29 0 54.5 -7.5t43.5 -22.5l-14 -32q-14 12 -37 20t-47 8q-34 0 -58.5 -12.5t-38 -35.5t-15.5 -55q-5 -48 13 -78.5t71 -30.5h41l-6 -33h-41
q-41 0 -69.5 -13t-44 -38t-19.5 -64q-6 -56 15.5 -88.5t75.5 -32.5q32 0 54 5.5t44 16.5v-34q-18 -11 -44 -16.5t-60 -5.5z" />
    <glyph glyph-name="zeta" unicode="&#x3b6;" horiz-adv-x="304" 
d="M174 -202q21 28 36 53t18 58q2 22 -3 39t-21.5 31t-49.5 25q-47 16 -78 41.5t-45 63.5t-8 91q4 36 15.5 70.5t32 72.5t52 84.5t75.5 107.5l150 194q-12 0 -25.5 -0.5t-27.5 -1t-28 -0.5h-141l7 33h260l-5 -27l-166 -215q-55 -75 -88.5 -130.5t-50 -100t-21.5 -86.5
q-5 -36 3 -67.5t33.5 -56t73.5 -42.5q37 -12 58.5 -29.5t29.5 -40t5 -53.5q-3 -21 -10 -40.5t-18 -37t-26 -36.5h-37z" />
    <glyph glyph-name="eta" unicode="&#x3b7;" horiz-adv-x="425" 
d="M335 339q5 25 9.5 50t4.5 46q0 35 -18.5 52t-51.5 17q-31 0 -57.5 -15.5t-47.5 -44.5t-37 -70.5t-28 -92.5l-59 -281h-38l112 529h31l-17 -93h2q11 20 25 38.5t33 33t41.5 23t47.5 8.5q31 0 53 -11t34.5 -33t12.5 -55q0 -21 -5 -50.5t-11 -55.5l-122 -574h-37z" />
    <glyph glyph-name="theta" unicode="&#x3b8;" horiz-adv-x="426" 
d="M38 181q0 29 3 65t9 76.5t15 83.5q15 76 37.5 141.5t52.5 115t68.5 78t84.5 28.5q41 0 67.5 -19t39.5 -58.5t13 -102.5q0 -32 -3.5 -72t-10 -83t-16.5 -86q-16 -77 -39 -142.5t-52.5 -114t-65.5 -75.5t-80 -27q-40 0 -67.5 19.5t-41.5 62t-14 110.5zM76 182
q0 -88 22.5 -123.5t63.5 -35.5q37 0 68 27t56.5 75.5t45.5 113t34 137.5h-269q-10 -57 -15.5 -107t-5.5 -87zM104 410h268q10 52 14 99t4 81q0 79 -20.5 112t-64.5 33q-35 0 -65.5 -24.5t-55.5 -69t-45 -103.5t-35 -128z" />
    <glyph glyph-name="iota" unicode="&#x3b9;" horiz-adv-x="203" 
d="M97 -10q-21 0 -36.5 8t-24 24.5t-8.5 43.5q0 11 1 23t4 27l88 413h38l-87 -408q-4 -13 -5 -25t-1 -22q0 -24 10 -36.5t32 -12.5q10 0 20.5 2t20.5 7l-8 -36q-8 -3 -18.5 -5.5t-25.5 -2.5z" />
    <glyph glyph-name="kappa" unicode="&#x3ba;" horiz-adv-x="352" 
d="M12 0l114 529h37l-34 -156q-8 -34 -16 -70t-16 -66h1l248 292h43l-181 -214l82 -315h-39l-73 284l-90 -99l-39 -185h-37z" />
    <glyph glyph-name="lambda" unicode="&#x3bb;" horiz-adv-x="396" 
d="M301 -10q-23 0 -36.5 10t-20 30.5t-7.5 55.5l-11 289q0 22 -0.5 36.5t-1.5 24t-1 17v16.5h-3q-7 -16 -15 -32t-17 -33l-195 -404h-39l263 533l-2 118q0 46 -15.5 62.5t-44.5 16.5q-11 0 -23 -3t-21 -7l7 37q5 2 12 3.5t16 3t19 1.5q27 0 45.5 -9.5t29 -32.5t12.5 -62
l22 -568q1 -26 5.5 -41t13 -21t20.5 -6q8 0 14.5 1.5t11.5 2.5l-8 -33q-4 -2 -8 -3t-9.5 -2t-12.5 -1z" />
    <glyph glyph-name="nu" unicode="&#x3bd;" horiz-adv-x="356" 
d="M78 0l-23 529h36l16 -382q1 -12 1 -30t0.5 -36.5t-0.5 -33.5h3q55 61 99 134t74 159.5t41 188.5h38q-11 -108 -44.5 -200t-86 -173.5t-120.5 -155.5h-34z" />
    <glyph glyph-name="xi" unicode="&#x3be;" horiz-adv-x="369" 
d="M189 -202q17 22 28.5 40.5t18.5 38t8 44.5q1 28 -13.5 48t-58.5 34q-45 15 -76.5 36.5t-47 54.5t-15.5 80q1 63 22.5 111.5t59 79.5t87.5 39v2q-37 15 -55 46t-17 76q0 38 11.5 71.5t31 59.5t45.5 44.5t56 26.5q-12 -1 -21.5 -1.5l-19 -1t-20.5 -0.5h-63l7 33h253l-6 -30
h-28q-34 0 -65 -9.5t-57 -27.5t-45 -42.5t-29.5 -55t-11.5 -65.5q0 -33 11.5 -58t36 -38.5t62.5 -13.5h53l-7 -34h-59q-44 0 -79 -14.5t-60.5 -41.5t-39 -64.5t-14.5 -84.5q0 -39 11 -66.5t37.5 -46.5t70.5 -34q36 -11 55.5 -27.5t27.5 -36.5t7 -45q-1 -24 -8.5 -46
t-19 -41.5t-26.5 -39.5h-38z" />
    <glyph glyph-name="omicron" unicode="&#x3bf;" horiz-adv-x="428" 
d="M167 -10q-42 0 -71.5 18.5t-45 56t-15.5 91.5q0 44 8.5 95.5t26.5 102.5t45.5 92.5t64.5 66.5t84 25q41 0 69.5 -19t43.5 -56t15 -91q0 -49 -9 -102t-27 -103t-45 -90t-63 -63.5t-81 -23.5zM169 24q36 0 65.5 22t52 59t37.5 83t22.5 94t7.5 91q0 41 -10.5 70.5t-30.5 45
t-52 15.5q-37 0 -66.5 -23t-52 -61t-38 -84.5t-23.5 -93.5t-8 -86q0 -64 24.5 -98t71.5 -34z" />
    <glyph glyph-name="pi" unicode="&#x3c0;" horiz-adv-x="430" 
d="M317 -6q-28 0 -45 16t-17 48q0 13 2 29t6 32l80 376h-171l-108 -495h-37l108 495h-79l8 34h397l-6 -34h-75l-80 -377q-3 -17 -5 -29.5t-2 -24.5q0 -17 8.5 -26t25.5 -9q9 0 18 2t14 3v-32q-8 -3 -18.5 -5.5t-23.5 -2.5z" />
    <glyph glyph-name="rho" unicode="&#x3c1;" horiz-adv-x="431" 
d="M81 318q11 55 27.5 96t38.5 68.5t51.5 41.5t66.5 14q44 0 72 -19t42.5 -57t15.5 -94q1 -42 -7 -93t-24.5 -101t-43.5 -91.5t-64 -67t-84 -25.5q-40 0 -69 14t-46 33q-3 -19 -6.5 -37t-7.5 -37l-43 -201h-36zM170 23q38 0 68.5 22.5t53 60t37.5 83t22 92t6 86.5
q-2 68 -24 102.5t-72 34.5q-40 0 -67.5 -22.5t-46 -66.5t-32.5 -109l-48 -234q15 -20 42 -34.5t61 -14.5z" />
    <glyph glyph-name="uni03C2" unicode="&#x3c2;" horiz-adv-x="369" 
d="M189 -202q14 19 25 36t19 35t10 40t-3 39t-21 30.5t-48 24.5q-42 15 -72.5 36.5t-46.5 55t-15 83.5q0 43 9.5 92t28 96.5t46 86.5t64.5 62.5t83 23.5q23 0 45.5 -4.5t39.5 -12.5l-13 -34q-16 9 -35.5 12.5t-37.5 3.5q-36 0 -66 -19.5t-53.5 -53.5t-39.5 -76t-24.5 -87
t-9.5 -88q1 -35 11.5 -62.5t35.5 -47.5t69 -36q36 -12 57 -29t29 -39.5t4 -53.5q-3 -21 -10 -40.5t-18 -37.5t-25 -36h-38z" />
    <glyph glyph-name="sigma" unicode="&#x3c3;" horiz-adv-x="430" 
d="M168 -10q-55 0 -87 33t-41 93t4 141q15 87 48 147.5t87 92.5t129 32h153l-6 -35h-111q37 -41 43 -104.5t-7 -136.5q-10 -64 -29 -113t-46.5 -82.5t-61.5 -50.5t-75 -17zM173 24q64 0 107 60t62 170q8 48 9.5 92.5t-7 82.5t-33.5 65h-11q-62 0 -106 -27t-71 -80t-40 -130
q-12 -72 -7.5 -124.5t28.5 -80.5t69 -28z" />
    <glyph glyph-name="tau" unicode="&#x3c4;" horiz-adv-x="294" 
d="M160 -11q-39 0 -61.5 20.5t-22.5 62.5q0 13 2.5 31t7.5 42l75 349h-105l8 35h268l-7 -35h-127l-75 -352q-4 -20 -6.5 -35.5t-2.5 -30.5q0 -26 13.5 -39.5t39.5 -13.5q15 0 27.5 2.5t23.5 6.5v-33q-12 -4 -26 -7t-32 -3z" />
    <glyph glyph-name="upsilon" unicode="&#x3c5;" horiz-adv-x="415" 
d="M140 -10q-45 0 -71 18.5t-32.5 56t6.5 96.5l79 368h37l-79 -367q-16 -74 -1 -105.5t65 -31.5q71 0 119 61t68 170q8 43 12.5 81t6 72.5t0.5 64.5t-3 55h36q5 -33 5 -76t-4.5 -93.5t-14.5 -106.5q-16 -86 -48 -144.5t-77.5 -88.5t-103.5 -30z" />
    <glyph glyph-name="phi" unicode="&#x3c6;" horiz-adv-x="518" 
d="M132 -238l48 227q-47 5 -79.5 31.5t-48 71.5t-11.5 108q2 69 21 133.5t52 117.5t77 85l24 -24q-38 -28 -68 -75.5t-48 -107.5t-20 -128q-3 -55 8.5 -93.5t37 -59.5t62.5 -25l81 383q10 44 25 74t38 45t54 15q37 0 60 -20t33.5 -57.5t7.5 -89.5q-2 -50 -13.5 -103
t-33 -102t-53 -89t-74 -64.5t-96.5 -26.5l-48 -226h-36zM223 22q45 4 80 27t61.5 59.5t44 81.5t27.5 91.5t12 89.5q3 43 -3 73t-21 46t-40 16q-32 0 -50.5 -25.5t-29.5 -77.5z" />
    <glyph glyph-name="chi" unicode="&#x3c7;" horiz-adv-x="429" 
d="M283 -240q-20 0 -32.5 7t-19 23.5t-10.5 44.5l-79 607q-5 33 -12.5 47t-27.5 14q-9 0 -16.5 -2t-13.5 -5l5 34q7 2 17 4.5t22 2.5q21 0 32.5 -7.5t17.5 -24t9 -44.5l79 -606q4 -23 8 -36t12 -19t20 -6q8 0 13.5 1.5t11.5 2.5l-6 -32q-4 -1 -8.5 -2.5t-10 -2.5t-11.5 -1z
M-45 -234l233 396l6 -51l-198 -345h-41zM211 135l-6 50l193 344h41z" />
    <glyph glyph-name="psi" unicode="&#x3c8;" horiz-adv-x="501" 
d="M131 -236l49 230q-63 2 -95 28.5t-37.5 79.5t11.5 133l62 294h37l-62 -294q-15 -66 -12.5 -111.5t27 -69t76.5 -26.5l156 736h36l-156 -736q55 2 94.5 33t65.5 87t38 135q9 49 12.5 90.5t3.5 79.5t-4 76h37q3 -39 3.5 -77.5t-3 -79.5t-11.5 -90q-14 -89 -45.5 -153
t-80.5 -98t-117 -37l-48 -230h-37z" />
    <glyph glyph-name="omega" unicode="&#x3c9;" horiz-adv-x="552" 
d="M133 -10q-31 0 -51 15t-30 46t-9.5 77t11.5 108q13 66 32 121t44.5 98t57.5 74h39q-36 -34 -61.5 -78.5t-43.5 -98.5t-31 -117q-12 -70 -11.5 -117t15.5 -70t45 -23q25 0 46 19t37.5 57t27.5 95l33 153h37l-33 -153q-12 -59 -7.5 -97t21.5 -56t42 -18q31 0 53 19.5
t38.5 61.5t28.5 111q14 61 16 120t-4.5 108.5t-19.5 83.5h39q12 -32 18.5 -80t4.5 -107t-16 -125q-13 -77 -35 -127.5t-53.5 -75t-75.5 -24.5q-26 0 -46 13t-30.5 36.5t-9.5 53.5h-2q-11 -30 -29 -53.5t-40 -36.5t-48 -13z" />
    <glyph glyph-name="iotadieresis" unicode="&#x3ca;" horiz-adv-x="203" 
d="M97 -10q-21 0 -36.5 8t-24 24.5t-8.5 43.5q0 11 1 23t4 27l88 413h38l-87 -408q-4 -13 -5 -25t-1 -22q0 -24 10 -36.5t32 -12.5q10 0 20.5 2t20.5 7l-8 -36q-8 -3 -18.5 -5.5t-25.5 -2.5zM242 645q-11 0 -16.5 6.5t-5.5 18.5q0 16 8 31t24 15q11 0 16.5 -6.5t5.5 -18.5
q0 -16 -8.5 -31t-23.5 -15zM97 645q-10 0 -16 6.5t-6 18.5q0 16 8 31t24 15q8 0 12.5 -3t7 -8.5t2.5 -13.5q0 -16 -8 -31t-24 -15z" />
    <glyph glyph-name="upsilondieresis" unicode="&#x3cb;" horiz-adv-x="415" 
d="M140 -10q-45 0 -71 18.5t-32.5 56t6.5 96.5l79 368h37l-79 -367q-16 -74 -1 -105.5t65 -31.5q71 0 119 61t68 170q8 43 12.5 81t6 72.5t0.5 64.5t-3 55h36q5 -33 5 -76t-4.5 -93.5t-14.5 -106.5q-16 -86 -48 -144.5t-77.5 -88.5t-103.5 -30zM351 645q-11 0 -16.5 6.5
t-5.5 18.5q0 16 8 31t24 15q11 0 16.5 -6.5t5.5 -18.5q0 -16 -8.5 -31t-23.5 -15zM206 645q-10 0 -16 6.5t-6 18.5q0 16 8 31t24 15q8 0 12.5 -3t7 -8.5t2.5 -13.5q0 -16 -8 -31t-24 -15z" />
    <glyph glyph-name="omicrontonos" unicode="&#x3cc;" horiz-adv-x="428" 
d="M167 -10q-42 0 -71.5 18.5t-45 56t-15.5 91.5q0 44 8.5 95.5t26.5 102.5t45.5 92.5t64.5 66.5t84 25q41 0 69.5 -19t43.5 -56t15 -91q0 -49 -9 -102t-27 -103t-45 -90t-63 -63.5t-81 -23.5zM169 24q36 0 65.5 22t52 59t37.5 83t22.5 94t7.5 91q0 41 -10.5 70.5t-30.5 45
t-52 15.5q-37 0 -66.5 -23t-52 -61t-38 -84.5t-23.5 -93.5t-8 -86q0 -64 24.5 -98t71.5 -34zM272 604l2 10l82 158h45l-2 -7l-103 -161h-24z" />
    <glyph glyph-name="upsilontonos" unicode="&#x3cd;" horiz-adv-x="415" 
d="M140 -10q-45 0 -71 18.5t-32.5 56t6.5 96.5l79 368h37l-79 -367q-16 -74 -1 -105.5t65 -31.5q71 0 119 61t68 170q8 43 12.5 81t6 72.5t0.5 64.5t-3 55h36q5 -33 5 -76t-4.5 -93.5t-14.5 -106.5q-16 -86 -48 -144.5t-77.5 -88.5t-103.5 -30zM254 605l2 10l82 158h45
l-2 -7l-103 -161h-24z" />
    <glyph glyph-name="omegatonos" unicode="&#x3ce;" horiz-adv-x="552" 
d="M133 -10q-31 0 -51 15t-30 46t-9.5 77t11.5 108q13 66 32 121t44.5 98t57.5 74h39q-36 -34 -61.5 -78.5t-43.5 -98.5t-31 -117q-12 -70 -11.5 -117t15.5 -70t45 -23q25 0 46 19t37.5 57t27.5 95l33 153h37l-33 -153q-12 -59 -7.5 -97t21.5 -56t42 -18q31 0 53 19.5
t38.5 61.5t28.5 111q14 61 16 120t-4.5 108.5t-19.5 83.5h39q12 -32 18.5 -80t4.5 -107t-16 -125q-13 -77 -35 -127.5t-53.5 -75t-75.5 -24.5q-26 0 -46 13t-30.5 36.5t-9.5 53.5h-2q-11 -30 -29 -53.5t-40 -36.5t-48 -13zM340 605l2 10l82 158h45l-2 -7l-103 -161h-24z" />
    <glyph glyph-name="uni0401" unicode="&#x401;" horiz-adv-x="398" 
d="M15 0l152 714h270l-7 -35h-232l-61 -286h217l-8 -35h-217l-69 -323h232l-7 -35h-270zM370 857q3 16 11 24.5t19 8.5q14 0 20 -10.5t2 -29.5q-4 -16 -11.5 -24.5t-19.5 -8.5q-14 0 -20 11t-1 29zM240 857q3 16 11.5 24.5t19.5 8.5q14 0 19.5 -10.5t1.5 -29.5
q-3 -16 -11 -24.5t-19 -8.5q-14 0 -20 11t-2 29z" />
    <glyph glyph-name="uni0402" unicode="&#x402;" horiz-adv-x="513" 
d="M280 -10q-17 0 -33 2.5t-28 6.5v36q12 -4 27.5 -7.5t30.5 -3.5q48 0 81 31.5t50.5 81.5t17.5 108q0 70 -33.5 103t-93.5 33q-28 0 -55 -5.5t-57 -17.5l18 19l-80 -377h-37l144 679h-133l7 35h358l-7 -35h-187l-63 -291l-12 6q28 11 55 16.5t55 5.5q75 0 117.5 -43
t42.5 -127q0 -47 -11.5 -92.5t-35 -82.5t-58 -59t-80.5 -22z" />
    <glyph glyph-name="uni0403" unicode="&#x403;" horiz-adv-x="355" 
d="M22 0l152 714h256l-7 -35h-219l-144 -679h-38zM282 799l123 152h43v-8l-145 -152h-21v8z" />
    <glyph glyph-name="uni0404" unicode="&#x404;" horiz-adv-x="434" 
d="M245 -10q-59 0 -99.5 27t-62.5 78.5t-23.5 123.5t16.5 161q16 74 43.5 137t66.5 109.5t89 72.5t110 26q31 0 59 -7t53 -22l-16 -34q-22 15 -47 21.5t-51 6.5q-52 0 -95 -24t-76.5 -66.5t-58 -100t-38.5 -125.5q-23 -107 -15 -185.5t45.5 -121t103.5 -42.5q23 0 51 5
t50 14v-35q-22 -9 -50 -14t-55 -5zM98 356l7 35h260l-7 -35h-260z" />
    <glyph glyph-name="uni0405" unicode="&#x405;" horiz-adv-x="391" 
d="M131 -10q-47 0 -81 8.5t-58 20.5l1 41q27 -15 61.5 -25t77.5 -10q39 0 72.5 13t56.5 39t31 65q9 41 1 74t-32.5 65t-65.5 70q-45 42 -69 79.5t-30 75t3 78.5q10 48 38 78.5t67.5 46t83.5 15.5q40 0 73.5 -9t60.5 -25l-18 -34q-26 16 -55 24.5t-63 8.5t-65.5 -12
t-53 -36.5t-30.5 -62.5q-8 -40 -1 -73t30.5 -65t63.5 -69q46 -40 71 -78t32 -76t-3 -81q-9 -48 -37.5 -80.5t-70 -49t-91.5 -16.5z" />
    <glyph glyph-name="uni0406" unicode="&#x406;" horiz-adv-x="193" 
d="M22 0l152 714h37l-152 -714h-37z" />
    <glyph glyph-name="uni0407" unicode="&#x407;" horiz-adv-x="193" 
d="M22 0l152 714h37l-152 -714h-37zM167 817q-13 0 -19 11t-2 29q3 16 11 24.5t19 8.5q14 0 20 -10.5t2 -29.5q-3 -16 -11 -24.5t-20 -8.5zM268 817q-14 0 -19.5 11t-1.5 29q3 16 11 24.5t19 8.5q14 0 20 -10.5t2 -29.5q-3 -16 -11 -24.5t-20 -8.5z" />
    <glyph glyph-name="uni0408" unicode="&#x408;" horiz-adv-x="186" 
d="M-88 -176q-16 0 -31.5 2.5t-27.5 7.5l1 36q12 -5 27.5 -8t29.5 -3q44 0 66.5 29.5t35.5 93.5l155 732h38l-157 -740q-10 -51 -28 -84.5t-44.5 -49.5t-64.5 -16z" />
    <glyph glyph-name="uni0409" unicode="&#x409;" horiz-adv-x="737" 
d="M-16 -7q-9 0 -18 1.5t-16 3.5v36q8 -3 16 -4.5t16 -1.5q29 0 48.5 17t35.5 53t31 93l140 523h282l-64 -302h68q64 0 105 -27.5t56 -78.5t0 -121q-20 -93 -78.5 -139t-155.5 -46h-120l145 679h-211l-133 -498q-17 -66 -37.5 -107.5t-47 -61t-62.5 -19.5zM375 35h77
q82 0 129 37.5t64 118.5q19 91 -14.5 138.5t-111.5 47.5h-71z" />
    <glyph glyph-name="uni040A" unicode="&#x40a;" horiz-adv-x="733" 
d="M23 0l151 714h37l-65 -308h269l66 308h37l-65 -308h65q64 0 105 -27t56.5 -77t-0.5 -120q-19 -91 -77.5 -136.5t-156.5 -45.5h-115l78 370h-270l-78 -370h-37zM375 35h72q83 0 130 37t64 117q19 88 -15 135t-112 47h-68z" />
    <glyph glyph-name="uni040B" unicode="&#x40b;" horiz-adv-x="526" 
d="M88 0l144 679h-133l7 35h358l-7 -35h-187l-63 -292l-13 7q28 11 57 16.5t58 5.5q89 0 129.5 -49t20.5 -143l-47 -224h-37l47 223q17 80 -13.5 119t-105.5 39q-28 0 -57 -5.5t-60 -17.5l19 20l-80 -378h-37z" />
    <glyph glyph-name="uni040C" unicode="&#x40c;" horiz-adv-x="427" 
d="M329 0l-112 364l2 21l246 329h43l-263 -352l3 28l121 -390h-40zM23 0l151 714h37l-151 -714h-37zM125 357l8 35h110l-8 -35h-110zM321 799l123 152h43v-8l-145 -152h-21v8z" />
    <glyph glyph-name="uni040E" unicode="&#x40e;" horiz-adv-x="396" 
d="M22 -10q-11 0 -22 1.5t-20 4.5v36q9 -3 19.5 -5t20.5 -2q25 0 43 9.5t35 30.5t35.5 56t43.5 85l-5 -38l-72 546h37l52 -397q2 -14 3 -28t2.5 -27.5t2.5 -26.5q9 20 18 40.5t19 39.5l205 399h41l-291 -564q-28 -55 -51 -90t-50.5 -52.5t-65.5 -17.5zM305 783
q-48 0 -76 24.5t-28 71.5v9t1 10h34q-1 -6 -1 -10v-7q0 -34 18 -51t53 -17q45 0 68 23.5t31 61.5h36q-12 -55 -46 -85t-90 -30z" />
    <glyph glyph-name="uni040F" unicode="&#x40f;" horiz-adv-x="506" 
d="M146 -148l32 148h-156l152 714h37l-144 -679h273l146 679h37l-152 -714h-156l-32 -148h-37z" />
    <glyph glyph-name="uni0410" unicode="&#x410;" horiz-adv-x="408" 
d="M-55 0l330 717h45l30 -717h-38l-11 269h-191l-123 -269h-42zM125 304h175l-9 282l-2 44t0 39h-3q-6 -17 -15 -38t-20 -46z" />
    <glyph glyph-name="uni0411" unicode="&#x411;" horiz-adv-x="440" 
d="M23 0l151 714h278l-7 -35h-242l-57 -274h75q65 0 106.5 -26.5t56.5 -76.5t-1 -121q-20 -92 -77.5 -136.5t-153.5 -44.5h-129zM67 35h87q80 0 127 36.5t64 115.5q19 89 -14.5 136.5t-113.5 47.5h-78z" />
    <glyph glyph-name="uni0412" unicode="&#x412;" horiz-adv-x="453" 
d="M23 0l151 714h120q62 0 100 -23.5t52 -66.5t2 -101q-13 -59 -48.5 -97.5t-95.5 -51.5l-1 -2q38 -10 62 -37.5t31.5 -67.5t-3.5 -89q-17 -83 -76 -130.5t-159 -47.5h-135zM68 35h93q86 0 132.5 39.5t60.5 108.5q12 54 0.5 93t-44 60.5t-84.5 21.5h-89zM144 392h92
q76 0 118 36.5t55 97.5q15 72 -14.5 112.5t-105.5 40.5h-85z" />
    <glyph glyph-name="uni0413" unicode="&#x413;" horiz-adv-x="355" 
d="M22 0l152 714h256l-7 -35h-219l-144 -679h-38z" />
    <glyph glyph-name="uni0414" unicode="&#x414;" horiz-adv-x="552" 
d="M-78 -147l38 182h53q37 44 64 87t48.5 94.5t39.5 121.5l101 376h294l-144 -679h76l-39 -182h-37l31 147h-457l-32 -147h-36zM59 35h319l137 644h-223l-91 -345q-19 -71 -40.5 -124t-46.5 -95t-55 -80z" />
    <glyph glyph-name="uni0415" unicode="&#x415;" horiz-adv-x="398" 
d="M15 0l152 714h270l-7 -35h-232l-61 -286h217l-8 -35h-217l-69 -323h232l-7 -35h-270z" />
    <glyph glyph-name="uni0416" unicode="&#x416;" horiz-adv-x="609" 
d="M-56 0l278 394l-3 -35l-104 355h36l98 -331l-6 -24l-255 -359h-44zM229 0l152 714h36l-152 -714h-36zM229 357l7 35h195l-8 -35h-194zM511 0l-106 364l2 22l240 328h43l-257 -351l3 29l115 -392h-40z" />
    <glyph glyph-name="uni0417" unicode="&#x417;" horiz-adv-x="403" 
d="M118 -10q-35 0 -70.5 7t-61.5 19v38q31 -14 63.5 -21.5t67.5 -7.5q47 0 84.5 15t63.5 47.5t36 83.5q11 55 -1 97t-44.5 65.5t-83.5 23.5h-64l7 35h68q51 0 87.5 16.5t59 48t31.5 73.5q10 49 -1.5 84.5t-42 55t-76.5 19.5q-27 0 -57 -6.5t-60 -20.5l-11 33
q31 14 65.5 21.5t66.5 7.5q57 0 96 -25t54.5 -69t3.5 -103q-9 -45 -31 -77t-52.5 -50.5t-66.5 -26.5l-1 -3q38 -12 62 -42t32 -72.5t-3 -92.5q-12 -58 -42.5 -96.5t-76 -57.5t-102.5 -19z" />
    <glyph glyph-name="uni0418" unicode="&#x418;" horiz-adv-x="528" 
d="M22 0l152 714h38l-106 -498q-6 -28 -11.5 -52.5t-11.5 -47t-13 -49.5h3l427 647h45l-152 -714h-38l105 494q6 27 10.5 47.5t9 37.5t8.5 33t10 35h-3l-428 -647h-45z" />
    <glyph glyph-name="uni0419" unicode="&#x419;" horiz-adv-x="528" 
d="M22 0l152 714h38l-106 -498q-6 -28 -11.5 -52.5t-11.5 -47t-13 -49.5h3l427 647h45l-152 -714h-38l105 494q6 27 10.5 47.5t9 37.5t8.5 33t10 35h-3l-428 -647h-45zM375 785q-48 0 -76 24.5t-28 71.5v9t1 10h34q-1 -6 -1 -10v-7q0 -34 18 -51t53 -17q45 0 68 23.5
t31 61.5h36q-12 -55 -46 -85t-90 -30z" />
    <glyph glyph-name="uni041A" unicode="&#x41a;" horiz-adv-x="427" 
d="M329 0l-112 364l2 21l246 329h43l-263 -352l3 28l121 -390h-40zM23 0l151 714h37l-151 -714h-37zM125 357l8 35h110l-8 -35h-110z" />
    <glyph glyph-name="uni041B" unicode="&#x41b;" horiz-adv-x="515" 
d="M-16 -7q-9 0 -18 1.5t-16 3.5v36q8 -3 16 -4.5t16 -1.5q29 0 48.5 17t35.5 53t31 93l140 523h296l-152 -714h-38l145 679h-224l-133 -498q-17 -66 -37.5 -107.5t-47 -61t-62.5 -19.5z" />
    <glyph glyph-name="uni041C" unicode="&#x41c;" horiz-adv-x="666" 
d="M22 0l152 714h54l58 -658h3l336 658h59l-152 -714h-37l118 559q4 15 7 29.5t7 31t8 34.5h-2l-336 -654h-42l-58 654h-2q-3 -19 -6 -34.5t-5.5 -30.5t-6.5 -31l-118 -558h-37z" />
    <glyph glyph-name="uni041D" unicode="&#x41d;" horiz-adv-x="517" 
d="M22 0l152 714h37l-68 -322h286l68 322h38l-152 -714h-38l76 357h-286l-75 -357h-38z" />
    <glyph glyph-name="uni041E" unicode="&#x41e;" horiz-adv-x="526" 
d="M223 -10q-48 0 -81 22t-52.5 60t-26.5 88.5t-3.5 107.5t16.5 117q36 166 102.5 253t162.5 87q49 0 83 -22t53 -60.5t26 -89t3.5 -107.5t-15.5 -115q-36 -167 -102.5 -254t-165.5 -87zM225 25q82 0 138 79t89 231q24 110 18 189.5t-39 122.5t-91 43q-80 0 -136 -79.5
t-89 -230.5q-24 -109 -18 -188.5t38 -123t90 -43.5z" />
    <glyph glyph-name="uni041F" unicode="&#x41f;" horiz-adv-x="507" 
d="M22 0l152 714h351l-152 -714h-38l145 679h-276l-144 -679h-38z" />
    <glyph glyph-name="uni0420" unicode="&#x420;" horiz-adv-x="432" 
d="M22 0l152 714h106q65 0 106.5 -27t56 -78t-0.5 -121q-20 -94 -78.5 -141t-156.5 -47h-84l-64 -300h-37zM131 335h78q83 0 130 38.5t64 120.5q19 89 -14 137t-113 48h-72z" />
    <glyph glyph-name="uni0421" unicode="&#x421;" horiz-adv-x="431" 
d="M242 -10q-59 0 -99.5 27t-62 78.5t-23.5 123.5t17 162q16 74 43.5 136.5t66.5 109t88.5 72.5t109.5 26q32 0 60 -7t53 -22l-16 -34q-23 15 -47.5 21.5t-50.5 6.5q-53 0 -96 -24t-76.5 -66t-57.5 -100t-39 -126q-22 -107 -14.5 -185.5t45.5 -121t103 -42.5q24 0 51 5
t50 14v-35q-22 -9 -50 -14t-55 -5z" />
    <glyph glyph-name="uni0422" unicode="&#x422;" horiz-adv-x="368" 
d="M109 0l144 679h-154l8 35h346l-7 -35h-155l-144 -679h-38z" />
    <glyph glyph-name="uni0423" unicode="&#x423;" horiz-adv-x="396" 
d="M22 -10q-11 0 -22 1.5t-20 4.5v36q9 -3 19.5 -5t20.5 -2q25 0 43 9.5t35 30.5t35.5 56t43.5 85l-5 -38l-72 546h37l52 -397q2 -14 3 -28t2.5 -27.5t2.5 -26.5q9 20 18 40.5t19 39.5l205 399h41l-291 -564q-28 -55 -51 -90t-50.5 -52.5t-65.5 -17.5z" />
    <glyph glyph-name="uni0424" unicode="&#x424;" horiz-adv-x="625" 
d="M266 89q-75 4 -125 42.5t-69 104.5t-2 151q26 123 106 188t206 61l-7 -34q-107 5 -175.5 -52t-91.5 -166q-15 -76 -0.5 -133.5t57 -91t108.5 -37.5zM236 -2l22 103l4 14l105 498l3 13l19 90h37l-19 -91l-3 -13l-106 -497l-4 -16l-21 -101h-37zM285 88l7 34
q108 -4 176 53.5t90 166.5q16 76 1 133t-56.5 90.5t-108.5 36.5l7 33q76 -3 125.5 -41.5t68.5 -104.5t2 -151q-26 -123 -106 -188t-206 -62z" />
    <glyph glyph-name="uni0425" unicode="&#x425;" horiz-adv-x="379" 
d="M-53 0l259 391l-5 -31l-80 354h38l70 -322l-12 3l206 319h42l-233 -358l4 31l83 -387h-38l-74 353l14 -3l-232 -350h-42z" />
    <glyph glyph-name="uni0426" unicode="&#x426;" horiz-adv-x="515" 
d="M380 -147l31 147h-390l152 714h37l-144 -679h276l144 679h38l-145 -679h76l-39 -182h-36z" />
    <glyph glyph-name="uni0427" unicode="&#x427;" horiz-adv-x="479" 
d="M307 0l70 327l15 -9q-23 -10 -46.5 -16.5t-47 -10t-47.5 -3.5q-92 0 -129.5 50t-18.5 143l50 233h37l-49 -234q-17 -80 11.5 -119t105.5 -39q36 0 72.5 8.5t69.5 24.5l-23 -23l81 382h38l-151 -714h-38z" />
    <glyph glyph-name="uni0428" unicode="&#x428;" horiz-adv-x="723" 
d="M22 0l152 714h38l-145 -679h227l145 679h37l-144 -679h226l145 679h38l-152 -714h-567z" />
    <glyph glyph-name="uni0429" unicode="&#x429;" horiz-adv-x="732" 
d="M596 -147l31 147h-605l152 714h38l-145 -679h227l144 679h38l-145 -679h227l145 679h38l-145 -679h76l-39 -182h-37z" />
    <glyph glyph-name="uni042A" unicode="&#x42a;" horiz-adv-x="505" 
d="M96 0l143 679h-140l7 35h179l-65 -302h71q63 0 104 -27.5t56.5 -78.5t-0.5 -121q-19 -93 -77.5 -139t-155.5 -46h-122zM141 35h78q82 0 129.5 37.5t64.5 118.5q19 91 -14.5 138.5t-112.5 47.5h-73z" />
    <glyph glyph-name="uni042B" unicode="&#x42b;" horiz-adv-x="602" 
d="M23 0l151 714h37l-63 -302h67q63 0 104 -27.5t56.5 -78.5t-0.5 -121q-20 -93 -78 -139t-156 -46h-118zM68 35h75q82 0 129.5 37.5t64.5 118.5q19 91 -14.5 138.5t-112.5 47.5h-69zM430 0l152 714h38l-152 -714h-38z" />
    <glyph glyph-name="uni042C" unicode="&#x42c;" horiz-adv-x="431" 
d="M22 0l151 714h37l-63 -302h70q64 0 105 -27.5t56.5 -78.5t-0.5 -121q-20 -93 -78 -139t-156 -46h-122zM67 35h79q82 0 129.5 37t64.5 119q19 90 -14.5 138t-112.5 48h-73z" />
    <glyph glyph-name="uni042D" unicode="&#x42d;" horiz-adv-x="437" 
d="M107 -10q-30 0 -59.5 5.5t-52.5 16.5v37q24 -11 53.5 -17.5t58.5 -6.5q54 0 95.5 25t73 68.5t53.5 100t35 118.5q24 111 16 189.5t-46 121t-103 42.5q-25 0 -51.5 -6t-54.5 -18l-10 34q29 12 59 18.5t59 6.5q78 0 124.5 -46.5t59 -133.5t-13.5 -211q-15 -72 -39.5 -134.5
t-61 -109.5t-85 -73.5t-110.5 -26.5zM116 355l7 35h262l-5 -35h-264z" />
    <glyph glyph-name="uni042E" unicode="&#x42e;" horiz-adv-x="707" 
d="M410 -10q-47 0 -79 21.5t-50.5 59.5t-25 88.5t-2.5 108t16 117.5q36 165 101.5 252.5t158.5 87.5q47 0 79.5 -22t51.5 -60.5t25.5 -88.5t2.5 -107.5t-17 -116.5q-35 -166 -101 -253t-160 -87zM22 0l152 714h37l-68 -322h146l-6 -35h-147l-76 -357h-38zM411 25
q78 0 133 78.5t88 231.5q25 111 19.5 190t-37 121.5t-87.5 42.5q-77 0 -131.5 -78.5t-87.5 -229.5q-24 -110 -19 -190t36 -123t86 -43z" />
    <glyph glyph-name="uni042F" unicode="&#x42f;" horiz-adv-x="432" 
d="M-38 0l233 329q-61 21 -83.5 78t-6.5 134q19 90 77.5 131.5t155.5 41.5h111l-151 -714h-38l67 317h-97l-222 -317h-46zM258 352h76l70 327h-70q-81 0 -127.5 -33t-62.5 -108q-12 -55 -3 -97.5t38.5 -65.5t78.5 -23z" />
    <glyph glyph-name="uni0430" unicode="&#x430;" horiz-adv-x="430" 
d="M147 -10q-38 0 -64 20.5t-38.5 59t-12 91t14.5 116.5q12 58 32 105.5t47 82.5t60 54t71 19q34 0 56 -13.5t34 -36t16 -49.5h3l22 90h31l-112 -529h-30l17 100h-2q-28 -51 -64 -80.5t-81 -29.5zM154 23q37 0 69.5 27.5t58.5 80t43 128.5q12 54 15.5 99t-3.5 78t-26.5 51
t-52.5 18q-41 0 -75 -29t-59 -81.5t-40 -123.5q-17 -76 -14 -131.5t24.5 -86t59.5 -30.5z" />
    <glyph glyph-name="uni0431" unicode="&#x431;" horiz-adv-x="419" 
d="M171 -10q-37 0 -63 14t-41.5 41.5t-22 67t-2.5 91t16 112.5q20 91 44.5 165.5t59 129.5t82.5 89t114 46q21 4 45.5 7.5t51.5 6.5l2 -33q-29 -4 -53 -7.5t-47 -7.5q-55 -11 -93.5 -38.5t-65.5 -68t-46 -89.5t-35 -105h2q29 53 65 77.5t77 24.5q40 0 66.5 -19.5t40.5 -56
t14.5 -87t-13.5 -114.5q-25 -119 -76 -182.5t-122 -63.5zM171 23q57 0 98 56t64 162q16 75 12 128.5t-27 82t-65 28.5q-34 0 -66 -24t-57 -70t-40 -112q-12 -55 -13.5 -101t8 -79.5t31 -52t55.5 -18.5z" />
    <glyph glyph-name="uni0432" unicode="&#x432;" horiz-adv-x="396" 
d="M178 -10q-46 0 -77 22t-47.5 61.5t-18 93.5t11.5 118q17 78 47 134.5t73 87.5t95 31q40 0 67 -18.5t38 -51t2 -74.5q-10 -48 -42 -78t-83 -39v-2q35 -8 56.5 -30t28.5 -53.5t-1 -72.5q-9 -40 -30 -69t-51 -44.5t-69 -15.5zM181 23q42 0 71 26.5t39 75.5q13 62 -15.5 99
t-90.5 37h-115l6 33h99q41 0 73.5 10t54.5 32.5t29 58.5q11 49 -9 80t-64 31q-40 0 -74 -26.5t-59.5 -77t-41.5 -125.5q-24 -116 1.5 -185.5t95.5 -68.5z" />
    <glyph glyph-name="uni0433" unicode="&#x433;" horiz-adv-x="319" 
d="M124 -10q-49 0 -78 21t-38.5 55.5t-0.5 75.5q7 35 26 61t48.5 46.5t66.5 40.5q33 18 59 34t42.5 37t22.5 49q9 43 -10.5 68.5t-62.5 25.5q-27 0 -52.5 -8t-47.5 -21l-12 32q25 14 54 22.5t61 8.5q44 0 70.5 -18t35.5 -48.5t1 -67.5q-7 -34 -26.5 -59t-48.5 -44t-63 -38
q-56 -30 -87 -57t-40 -70q-7 -32 0 -57.5t28 -40t56 -14.5q18 0 35.5 3t35 9t32.5 13v-35q-22 -10 -50 -17t-57 -7z" />
    <glyph glyph-name="uni0434" unicode="&#x434;" horiz-adv-x="413" 
d="M160 -10q-45 0 -72.5 22.5t-41 62.5t-12.5 92.5t14 112.5q16 74 44 126.5t67 80t87 27.5q28 0 48.5 -9.5t35.5 -25.5t24 -37h2q1 13 1.5 29.5t0.5 29.5q-1 119 -31.5 176.5t-92.5 57.5q-17 0 -37 -5t-38 -13l-11 32q22 10 46 14.5t44 4.5q45 0 75 -22t48 -61t25.5 -88.5
t7 -104.5t-7 -111t-17.5 -107q-13 -63 -32 -115t-44.5 -90t-58.5 -58.5t-74 -20.5zM162 23q36 0 64 24.5t49.5 65t36.5 90t24.5 102t14.5 98.5l1 -29q-6 24 -15.5 44t-22 34t-29 21.5t-37.5 7.5q-41 0 -73 -26.5t-55 -73.5t-36 -107q-11 -52 -13 -98t6.5 -80t29 -53.5
t55.5 -19.5z" />
    <glyph glyph-name="uni0435" unicode="&#x435;" horiz-adv-x="371" 
d="M178 -10q-45 0 -74 18.5t-44.5 49.5t-20.5 69.5t-1.5 79.5t11.5 79q15 73 46.5 130t74.5 89.5t93 32.5q42 0 65 -20.5t30.5 -52t-0.5 -64.5q-9 -45 -42 -79t-89 -53t-133 -19h-21l5 32h23q66 0 112 16t73.5 44t34.5 64q5 23 1.5 45.5t-18.5 38t-45 15.5q-37 0 -71.5 -28
t-60.5 -78.5t-41 -117.5q-6 -33 -10 -68.5t-1.5 -69.5t14 -60.5t34.5 -42.5t60 -16q28 0 53.5 7.5t48.5 19.5v-36q-21 -10 -49 -17.5t-58 -7.5z" />
    <glyph glyph-name="uni0436" unicode="&#x436;" horiz-adv-x="673" 
d="M15 -9q-8 0 -16.5 1t-16.5 3l9 32q6 -1 13 -2t14 -1q38 0 68.5 26t54 76t38.5 122q17 79 14.5 136.5t-22.5 89t-59 31.5q-7 0 -14.5 -0.5t-13.5 -3.5v33q8 2 15.5 3t16.5 1q37 0 62 -20t38.5 -57.5t13 -91.5t-14.5 -122q-16 -85 -45 -142t-68 -85.5t-87 -28.5zM558 -9
q-38 0 -63 19.5t-38 57t-13 90.5t13 120q19 87 47.5 145t67 86.5t86.5 28.5q8 0 17 -1t16 -3l-8 -33q-7 2 -14 3t-14 1q-37 0 -67.5 -26t-53.5 -76t-39 -123q-16 -78 -14.5 -135.5t22 -89t58.5 -31.5q7 0 14.5 1t13.5 2v-32q-8 -2 -15.5 -3t-15.5 -1zM262 0l113 529h36
l-113 -529h-36zM205 254l5 33h258l-6 -33h-257z" />
    <glyph glyph-name="uni0437" unicode="&#x437;" horiz-adv-x="326" 
d="M88 -10q-30 0 -57.5 6t-47.5 16v37q23 -13 50 -19.5t55 -6.5q36 0 63.5 11.5t46 35t25.5 59.5q13 61 -12.5 98t-81.5 37h-50l6 33h52q34 0 59.5 9.5t42 30t23.5 53.5q11 54 -13 84.5t-77 30.5q-20 0 -42.5 -5t-44.5 -15l-11 31q25 11 51.5 16.5t51.5 5.5q46 0 76 -18.5
t42.5 -52t3.5 -77.5q-9 -45 -35.5 -73t-69.5 -38l-1 -3q32 -10 49 -33.5t21 -54.5t-4 -67q-14 -64 -58.5 -97.5t-112.5 -33.5z" />
    <glyph glyph-name="uni0438" unicode="&#x438;" horiz-adv-x="417" 
d="M134 -10q-32 0 -54 12t-33 34.5t-12.5 54.5t7.5 71l78 367h37l-78 -370q-9 -41 -6 -71.5t20 -47t50 -16.5q38 0 70 25.5t56 75.5t40 123l59 281h37l-112 -529h-30l17 92h-3q-15 -29 -36 -52t-47.5 -36.5t-59.5 -13.5z" />
    <glyph glyph-name="uni0439" unicode="&#x439;" horiz-adv-x="417" 
d="M134 -10q-32 0 -54 12t-33 34.5t-12.5 54.5t7.5 71l78 367h37l-78 -370q-9 -41 -6 -71.5t20 -47t50 -16.5q38 0 70 25.5t56 75.5t40 123l59 281h37l-112 -529h-30l17 92h-3q-15 -29 -36 -52t-47.5 -36.5t-59.5 -13.5zM280 601q-47 0 -74 24t-27 72v10.5t1 12.5h33
q-1 -8 -1 -12.5v-9.5q0 -35 17.5 -51t51.5 -16q43 0 65.5 24.5t31.5 64.5h34q-12 -58 -45 -88.5t-87 -30.5z" />
    <glyph glyph-name="uni043A" unicode="&#x43a;" horiz-adv-x="345" 
d="M247 0l-79 269l2 17l177 243h42l-192 -262l2 24l86 -291h-38zM12 0l112 529h37l-112 -529h-37zM92 260l7 34h92l-7 -34h-92z" />
    <glyph glyph-name="uni043B" unicode="&#x43b;" horiz-adv-x="423" 
d="M-22 -7q-8 0 -16 1.5t-14 3.5v34q7 -2 14.5 -3t14.5 -1q31 0 53 24.5t41 94.5l100 382h242l-113 -529h-37l106 495h-171l-93 -355q-14 -53 -31 -85.5t-40.5 -47t-55.5 -14.5z" />
    <glyph glyph-name="uni043C" unicode="&#x43c;" horiz-adv-x="534" 
d="M11 0l114 529h47l47 -472h2l252 472h50l-113 -529h-36l74 344q7 31 12.5 56.5t13.5 55.5h-2l-245 -456h-34l-49 457h-1q-5 -26 -9 -49t-11 -52l-76 -356h-36z" />
    <glyph glyph-name="uni043D" unicode="&#x43d;" horiz-adv-x="415" 
d="M11 0l112 529h37l-50 -236h208l50 236h37l-113 -529h-37l55 259h-207l-56 -259h-36z" />
    <glyph glyph-name="uni043E" unicode="&#x43e;" horiz-adv-x="415" 
d="M164 -10q-55 0 -87.5 35t-40 100.5t11.5 157.5q27 125 79 190t125 65q55 0 87 -34.5t39.5 -99.5t-11.5 -157q-27 -126 -78.5 -191.5t-124.5 -65.5zM166 23q58 0 99 57.5t65 171.5q27 122 5 187.5t-86 65.5q-57 0 -98.5 -56.5t-65.5 -170.5q-27 -122 -4.5 -188.5
t85.5 -66.5z" />
    <glyph glyph-name="uni043F" unicode="&#x43f;" horiz-adv-x="418" 
d="M11 0l112 529h30l-16 -93h2q16 29 36.5 52.5t47.5 36.5t60 13q32 0 54 -12t33.5 -34t13 -53t-6.5 -69l-79 -370h-37l79 373q9 40 5.5 69t-20.5 45.5t-52 16.5q-38 0 -70 -25.5t-56 -75.5t-39 -122l-60 -281h-37z" />
    <glyph glyph-name="uni0440" unicode="&#x440;" horiz-adv-x="431" 
d="M-39 -237l162 766h31l-18 -101h2q28 53 64.5 81.5t80.5 28.5q32 0 54.5 -14t37 -40t19.5 -61.5t2.5 -79t-12.5 -91.5q-13 -58 -32.5 -106t-46.5 -83t-59.5 -54t-70.5 -19q-46 0 -73 26.5t-34 70.5h-3q-4 -22 -9 -47.5t-9 -48.5l-50 -228h-36zM174 24q41 0 74.5 29.5
t58.5 82t40 121.5q11 53 12.5 98.5t-6.5 79t-27.5 52t-50.5 18.5q-36 0 -68.5 -27.5t-58 -79.5t-42.5 -127q-11 -49 -15 -94t2 -79.5t25.5 -54t55.5 -19.5z" />
    <glyph glyph-name="uni0441" unicode="&#x441;" horiz-adv-x="342" 
d="M174 -10q-47 0 -78 21.5t-46 61t-15 94t14 120.5q17 80 48.5 136t75 85.5t98.5 29.5q22 0 43 -4.5t39 -13.5l-13 -33q-14 8 -33 13t-38 5q-43 0 -79 -26t-62.5 -75.5t-41.5 -121.5q-12 -58 -13.5 -105t9.5 -81.5t34.5 -53.5t61.5 -19q20 0 41.5 5t41.5 15v-34
q-17 -8 -39.5 -13.5t-47.5 -5.5z" />
    <glyph glyph-name="uni0442" unicode="&#x442;" horiz-adv-x="636" 
d="M11 0l112 529h31l-16 -89h2q15 28 35 50t45 35t55 13q43 0 66 -25t26 -67h2q14 25 33.5 46t45 33.5t56.5 12.5q33 0 54 -12.5t31.5 -35.5t12 -53.5t-6.5 -66.5l-79 -370h-37l79 369q8 39 5.5 70t-19 48t-50.5 17q-27 0 -49 -13t-39.5 -35.5t-29.5 -50.5t-19 -59l-75 -346
h-37l80 369q7 28 7.5 52.5t-6.5 43.5t-21.5 29t-39.5 10q-28 0 -51.5 -14.5t-43 -42t-34.5 -67.5t-26 -91l-62 -289h-37z" />
    <glyph glyph-name="uni0443" unicode="&#x443;" horiz-adv-x="350" 
d="M-61 -243q-11 0 -21.5 2.5t-19.5 5.5v34q9 -3 19.5 -5t20.5 -2q34 0 57.5 24t49.5 77l56 116l-32 520h37l18 -359q2 -18 3 -37t2 -37.5t0 -33.5h3q6 15 14 33.5t16.5 37t16.5 34.5l172 362h39l-312 -647q-20 -42 -40 -69.5t-43.5 -41.5t-55.5 -14z" />
    <glyph glyph-name="uni0444" unicode="&#x444;" horiz-adv-x="482" 
d="M117 -240l50 240l4 14l105 501l3 15l48 230h37l-48 -230l-3 -15l-106 -501l-3 -14l-51 -240h-36zM176 -10q-44 3 -75 25.5t-48.5 61.5t-19.5 92t12 118q17 81 51.5 137t83.5 85.5t111 28.5l-7 -33q-50 1 -90 -25t-68.5 -75.5t-44.5 -121.5q-12 -58 -11.5 -105t14 -81
t38.5 -53t61 -21zM191 -11l7 34q51 -1 90.5 24.5t68.5 75.5t44 122q12 57 11.5 104t-14 81.5t-38 53.5t-60.5 21l6 33q45 -4 75.5 -26t48 -61t19.5 -92.5t-12 -117.5q-12 -61 -35 -108t-54.5 -79t-70.5 -48.5t-86 -16.5z" />
    <glyph glyph-name="uni0445" unicode="&#x445;" horiz-adv-x="332" 
d="M-45 0l200 289l-5 -30l-74 270h39l63 -242l-14 3l164 239h42l-191 -273l6 29l80 -285h-39l-69 257l14 -3l-174 -254h-42z" />
    <glyph glyph-name="uni0446" unicode="&#x446;" horiz-adv-x="429" 
d="M300 -134l31 149l10 -17q-28 1 -43 11t-19.5 31t-1.5 52h-2q-15 -29 -36 -52t-47 -36.5t-58 -13.5q-33 0 -54.5 12t-32.5 34.5t-12.5 54.5t7.5 70l78 368h36l-78 -370q-8 -41 -5 -71.5t20 -47t49 -16.5q29 0 54 14.5t45.5 43t37 70.5t28.5 96l59 281h37l-81 -385
q-10 -45 -11 -69.5t8.5 -34t27.5 -9.5q7 0 13 0.5t11 2.5l-35 -168h-36z" />
    <glyph glyph-name="uni0447" unicode="&#x447;" horiz-adv-x="399" 
d="M239 0l41 197q5 22 10 43t11 41h-3q-22 -45 -58 -70.5t-81 -25.5q-31 0 -52.5 11.5t-33 33.5t-12.5 53.5t7 70.5l37 175h38l-38 -175q-9 -43 -5.5 -73.5t20.5 -46.5t49 -16q39 0 70 24.5t53.5 74t38.5 121.5l20 91h37l-112 -529h-37z" />
    <glyph glyph-name="uni0448" unicode="&#x448;" horiz-adv-x="639" 
d="M134 -10q-32 0 -53 12t-32 34.5t-12.5 54t6.5 68.5l78 370h37l-78 -370q-9 -41 -5.5 -71t20.5 -47t49 -17q37 0 64 22.5t45.5 59t27.5 78.5l74 345h38l-81 -372q-8 -39 -5.5 -69.5t18.5 -47t48 -16.5q28 0 51.5 15t43 43t34.5 68t26 90l61 289h37l-112 -529h-30l15 88h-2
q-14 -28 -33.5 -50t-44.5 -35t-55 -13q-23 0 -40 7.5t-28 20.5t-17.5 29t-7.5 34h-3q-13 -24 -32.5 -45t-45 -33.5t-56.5 -12.5z" />
    <glyph glyph-name="uni0449" unicode="&#x449;" horiz-adv-x="651" 
d="M522 -134l30 149l10 -17q-27 1 -42.5 11t-19.5 31t-1 52h-2q-14 -28 -33.5 -51t-44.5 -37t-57 -14q-23 0 -40 7.5t-28 20.5t-17 29t-8 34h-3q-13 -24 -32.5 -45t-45 -33.5t-56.5 -12.5q-32 0 -53 12t-32 35t-12.5 54t6.5 69l79 369h37l-79 -369q-9 -42 -6 -72t20.5 -47
t49.5 -17q37 0 64 22.5t45.5 59t27.5 78.5l75 345h37l-80 -372q-9 -39 -6.5 -69.5t18.5 -47t47 -16.5q28 0 51.5 15t43.5 43t35.5 68t26.5 90l61 289h37l-81 -385q-10 -45 -11 -69.5t7.5 -34t28.5 -9.5q6 0 12.5 0.5t11.5 2.5l-36 -168h-35z" />
    <glyph glyph-name="uni044A" unicode="&#x44a;" horiz-adv-x="433" 
d="M221 -10q-78 0 -106 53t-5 159l63 292h-120l7 35h157l-69 -321q-21 -100 -2 -142.5t77 -42.5q47 0 76.5 26.5t41.5 83.5q14 68 -11 103.5t-85 35.5q-22 0 -48 -4t-44 -9l7 33q15 5 41 9t50 4q40 0 68 -13t44 -36.5t19.5 -56t-4.5 -70.5q-15 -68 -55.5 -103.5
t-101.5 -35.5z" />
    <glyph glyph-name="uni044B" unicode="&#x44b;" horiz-adv-x="521" 
d="M161 -10q-76 0 -104 53.5t-6 158.5l70 327h38l-70 -322q-14 -65 -10.5 -105.5t25 -59.5t60.5 -19q45 0 75 27t42 84q14 68 -11 103.5t-85 35.5q-20 0 -46 -3.5t-45 -9.5l8 33q14 5 40 9t49 4q40 0 67.5 -13t43.5 -36t19.5 -55.5t-4.5 -71.5q-14 -69 -54.5 -104.5
t-101.5 -35.5zM359 0l112 529h37l-112 -529h-37z" />
    <glyph glyph-name="uni044C" unicode="&#x44c;" horiz-adv-x="373" 
d="M160 -10q-77 0 -105 53.5t-6 158.5l71 327h37l-69 -321q-21 -99 -2.5 -142t76.5 -43q47 0 76.5 26.5t42.5 83.5q14 68 -11 103.5t-86 35.5q-21 0 -47 -4t-44 -9l7 33q15 5 41 9t50 4q52 0 84 -21.5t43.5 -61t-0.5 -94.5q-15 -68 -55.5 -103t-102.5 -35z" />
    <glyph glyph-name="uni044D" unicode="&#x44d;" horiz-adv-x="340" 
d="M68 -10q-24 0 -47 4.5t-40 11.5v36q18 -9 41.5 -14t45.5 -5q69 0 116 52.5t71 166.5q12 58 13.5 106.5t-9.5 83.5t-34.5 54t-61.5 19q-19 0 -40 -5t-41 -14l-10 32q21 9 45.5 14.5t48.5 5.5q48 0 79 -22t46 -62t15 -95t-14 -121q-18 -81 -48 -136t-73.5 -83.5
t-102.5 -28.5zM81 261l6 33h183l-5 -33h-184z" />
    <glyph glyph-name="uni044E" unicode="&#x44e;" horiz-adv-x="563" 
d="M318 -10q-52 0 -83.5 35.5t-38 101t12.5 156.5q26 125 76 190t121 65q53 0 84 -34.5t38 -99.5t-13 -157q-27 -126 -76.5 -191.5t-120.5 -65.5zM11 0l112 529h37l-49 -236h115l-6 -34h-116l-56 -259h-37zM320 23q55 0 94.5 57.5t64.5 171.5q26 121 5.5 187t-80.5 66
q-55 0 -94.5 -57t-64.5 -170q-17 -80 -13.5 -137t26.5 -87.5t62 -30.5z" />
    <glyph glyph-name="uni044F" unicode="&#x44f;" horiz-adv-x="380" 
d="M-41 0l189 247q-45 16 -66.5 57.5t-9.5 97.5q13 60 56 93.5t110 33.5h129l-112 -529h-37l50 236h-85l-180 -236h-44zM206 269h69l48 226h-86q-54 0 -86 -25t-42 -74q-8 -38 1 -66.5t33.5 -44.5t62.5 -16z" />
    <glyph glyph-name="uni0451" unicode="&#x451;" horiz-adv-x="371" 
d="M178 -10q-45 0 -74 18.5t-44.5 49.5t-20.5 69.5t-1.5 79.5t11.5 79q15 73 46.5 130t74.5 89.5t93 32.5q42 0 65 -20.5t30.5 -52t-0.5 -64.5q-9 -45 -42 -79t-89 -53t-133 -19h-21l5 32h23q66 0 112 16t73.5 44t34.5 64q5 23 1.5 45.5t-18.5 38t-45 15.5q-37 0 -71.5 -28
t-60.5 -78.5t-41 -117.5q-6 -33 -10 -68.5t-1.5 -69.5t14 -60.5t34.5 -42.5t60 -16q28 0 53.5 7.5t48.5 19.5v-36q-21 -10 -49 -17.5t-58 -7.5zM350 639q-14 0 -20 10.5t-2 28.5q3 16 11 24.5t20 8.5q14 0 20 -10t2 -29q-4 -16 -11.5 -24.5t-19.5 -8.5zM213 639
q-14 0 -20 10.5t-2 28.5q3 16 11 24.5t20 8.5q14 0 20 -10t1 -29q-3 -16 -11 -24.5t-19 -8.5z" />
    <glyph glyph-name="uni0452" unicode="&#x452;" horiz-adv-x="423" 
d="M155 -240q-13 0 -25 2t-21 5v35q9 -3 20.5 -5t22.5 -2q27 0 44 13t30 43.5t23 81.5l91 430q10 44 6.5 74.5t-21 47t-51.5 16.5q-38 0 -69.5 -25t-55.5 -74.5t-39 -123.5l-60 -278h-37l134 629h-65l7 32h64l21 99h37l-21 -99h140l-7 -32h-140l-16 -75q-4 -19 -7 -33
t-5.5 -24.5t-5 -20t-5 -19.5t-6.5 -24h3q15 28 35 51t47.5 37t60.5 14t54.5 -12.5t33 -35.5t13 -55t-7.5 -72l-91 -430q-12 -58 -28.5 -96t-40.5 -56t-62 -18z" />
    <glyph glyph-name="uni0453" unicode="&#x453;" horiz-adv-x="319" 
d="M124 -10q-49 0 -78 21t-38.5 55.5t-0.5 75.5q7 35 26 61t48.5 46.5t66.5 40.5q33 18 59 34t42.5 37t22.5 49q9 43 -10.5 68.5t-62.5 25.5q-27 0 -52.5 -8t-47.5 -21l-12 32q25 14 54 22.5t61 8.5q44 0 70.5 -18t35.5 -48.5t1 -67.5q-7 -34 -26.5 -59t-48.5 -44t-63 -38
q-56 -30 -87 -57t-40 -70q-7 -32 0 -57.5t28 -40t56 -14.5q18 0 35.5 3t35 9t32.5 13v-35q-22 -10 -50 -17t-57 -7zM194 614l123 152h43v-8l-145 -152h-21v8z" />
    <glyph glyph-name="uni0454" unicode="&#x454;" horiz-adv-x="343" 
d="M174 -10q-47 0 -78 21.5t-46 61t-15 94t14 120.5q17 80 48.5 136t75 85.5t98.5 29.5q22 0 43 -4.5t39 -13.5l-13 -33q-14 8 -33 13t-38 5q-44 0 -79.5 -26t-62 -75.5t-42.5 -121.5q-11 -57 -12.5 -104.5t9.5 -82t34.5 -53.5t61.5 -19q20 0 41.5 5t42.5 15v-34
q-18 -8 -40.5 -13.5t-47.5 -5.5zM75 261l7 33h185l-8 -33h-184z" />
    <glyph glyph-name="uni0455" unicode="&#x455;" horiz-adv-x="325" 
d="M105 -10q-34 0 -62 7.5t-46 16.5v38q22 -12 50 -20t57 -8q48 0 76 20.5t36 60.5q7 30 0.5 54t-25 48t-48.5 53q-32 32 -51 59.5t-25.5 55t0.5 60.5q9 48 47 75.5t95 27.5q34 0 63.5 -8t51.5 -22l-17 -31q-21 13 -46 20.5t-53 7.5q-41 0 -69 -18.5t-35 -55.5
q-6 -27 0.5 -51t23.5 -46.5t41 -45.5q38 -36 59 -66.5t26.5 -59.5t-1.5 -64q-11 -51 -48 -79.5t-100 -28.5z" />
    <glyph glyph-name="uni0456" unicode="&#x456;" horiz-adv-x="177" 
d="M12 0l112 529h37l-112 -529h-37zM171 642q-10 0 -16 5.5t-8 14.5t0 21q4 17 12 26t20 9q10 0 16 -5t8.5 -14t-0.5 -22q-4 -16 -11.5 -25.5t-20.5 -9.5z" />
    <glyph glyph-name="uni0457" unicode="&#x457;" horiz-adv-x="171" 
d="M11 0l112 529h37l-113 -529h-36zM125 642q-15 0 -20 11.5t-2 29.5q4 17 11.5 26t19.5 9q14 0 19.5 -11t1.5 -30q-3 -16 -10.5 -25.5t-19.5 -9.5zM213 642q-14 0 -19.5 11.5t-1.5 29.5q4 17 11.5 26t19.5 9q14 0 19.5 -10.5t1.5 -30.5q-4 -16 -11.5 -25.5t-19.5 -9.5z" />
    <glyph glyph-name="uni0458" unicode="&#x458;" horiz-adv-x="179" 
d="M-91 -240q-12 0 -24 2t-20 5v35q9 -4 20.5 -5.5t21.5 -1.5q26 0 43 13t29 43.5t22 81.5l127 596h37l-128 -599q-12 -58 -27 -96t-39 -56t-62 -18zM173 642q-10 0 -16 5.5t-7.5 14.5t0.5 21q3 17 11.5 26t20.5 9q10 0 16 -5t8 -14t-1 -22q-3 -16 -11 -25.5t-21 -9.5z" />
    <glyph glyph-name="uni0459" unicode="&#x459;" horiz-adv-x="615" 
d="M-22 -7q-8 0 -16 1.5t-14 3.5v34q7 -2 14.5 -3t14.5 -1q31 0 53 24.5t41 94.5l100 382h231l-69 -323q-21 -97 -2 -140t75 -43q46 0 75.5 27t41.5 84q14 68 -11 103t-84 35q-20 0 -46 -4t-44 -9l7 33q15 5 41 9t49 4q50 0 82 -21.5t43 -60.5t0 -94q-15 -69 -55 -104
t-101 -35q-75 0 -103.5 53.5t-6.5 158.5l64 293h-160l-93 -355q-14 -53 -31 -85.5t-40.5 -47t-55.5 -14.5z" />
    <glyph glyph-name="uni045A" unicode="&#x45a;" horiz-adv-x="601" 
d="M391 -10q-76 0 -104 53.5t-5 159.5l70 326h37l-69 -321q-21 -99 -3 -142t76 -43q45 0 74.5 26.5t41.5 81.5q14 67 -11.5 101.5t-88.5 34.5h-88h-14h-202l-58 -267h-36l112 529h37l-48 -228h202h14h87q53 0 86 -21t44.5 -59.5t0.5 -92.5q-15 -68 -55 -103t-100 -35z" />
    <glyph glyph-name="uni045B" unicode="&#x45b;" horiz-adv-x="420" 
d="M13 0l134 631h-65l6 33h66l20 96h37l-21 -96h140l-7 -33h-139q-12 -52 -20.5 -89.5t-14.5 -63.5t-10 -45h2q16 30 36.5 53t47.5 36.5t59 13.5q34 0 56 -13t33 -36t12 -55.5t-8 -70.5l-76 -361h-38l77 364q6 29 6.5 54.5t-6.5 44t-23 28.5t-43 10q-37 0 -69 -25t-56 -74
t-39 -123l-60 -279h-37z" />
    <glyph glyph-name="uni045C" unicode="&#x45c;" horiz-adv-x="345" 
d="M247 0l-79 269l2 17l177 243h42l-192 -262l2 24l86 -291h-38zM12 0l112 529h37l-112 -529h-37zM92 260l7 34h92l-7 -34h-92zM237 614l123 152h43v-8l-145 -152h-21v8z" />
    <glyph glyph-name="uni045E" unicode="&#x45e;" horiz-adv-x="350" 
d="M-61 -243q-11 0 -21.5 2.5t-19.5 5.5v34q9 -3 19.5 -5t20.5 -2q34 0 57.5 24t49.5 77l56 116l-32 520h37l18 -359q2 -18 3 -37t2 -37.5t0 -33.5h3q6 15 14 33.5t16.5 37t16.5 34.5l172 362h39l-312 -647q-20 -42 -40 -69.5t-43.5 -41.5t-55.5 -14zM242 600q-47 0 -74 24
t-27 72v10.5t1 12.5h33q-1 -8 -1 -12.5v-9.5q0 -35 17.5 -51t51.5 -16q43 0 65.5 24.5t31.5 64.5h34q-12 -58 -45 -88.5t-87 -30.5z" />
    <glyph glyph-name="uni045F" unicode="&#x45f;" horiz-adv-x="417" 
d="M102 -202l34 150l27 9h10l-35 -159h-36zM134 -10q-32 0 -54 12t-33 34.5t-12.5 54.5t7.5 71l78 367h37l-78 -370q-9 -41 -6 -71.5t20 -47t50 -16.5q38 0 70 25.5t56 75.5t40 123l59 281h37l-112 -529h-30l17 92h-3q-15 -29 -36 -52t-47.5 -36.5t-59.5 -13.5z" />
    <glyph glyph-name="uni0490" unicode="&#x490;" horiz-adv-x="346" 
d="M16 0l151 714h209l31 145h37l-38 -180h-208l-145 -679h-37z" />
    <glyph glyph-name="uni0491" unicode="&#x491;" horiz-adv-x="289" 
d="M7 0l112 529h157l33 161h36l-39 -195h-157l-105 -495h-37z" />
    <glyph glyph-name="Wgrave" unicode="&#x1e80;" horiz-adv-x="676" 
d="M98 0l-2 714h36l1 -540q0 -36 -1 -65.5t-2 -52.5h3q11 32 23.5 63.5t25.5 60.5l223 534h37l-3 -521q0 -25 -0.5 -48.5t-1 -46.5t-1.5 -46h2l16 44t18 46.5t22 53.5l214 518h40l-298 -714h-46l3 544q0 17 0.5 33t1 31.5t0.5 32.5h-2q-8 -22 -15.5 -43.5t-16.5 -42.5
l-232 -555h-45zM454 792q-14 19 -30.5 45.5t-31.5 54.5t-25 50v8h39q10 -26 21 -52t23.5 -50.5t24.5 -46.5v-9h-21z" />
    <glyph glyph-name="wgrave" unicode="&#x1e81;" horiz-adv-x="533" 
d="M66 -1l-6 530h36l3 -356q0 -33 -0.5 -61t-1.5 -54h3q5 16 12.5 34.5t16 39t17.5 41.5l156 356h38l5 -356q1 -26 0.5 -57.5t-1.5 -58.5h2q6 18 13 36t15 37.5t17 42.5l146 356h38l-221 -530h-40l-4 376q-1 16 -1 31.5t0.5 32.5t0.5 33h-1q-6 -16 -12 -31l-12 -30t-14 -32
l-165 -380h-40zM340 606q-14 19 -30.5 45.5t-31.5 54.5t-25 50v8h39q10 -26 21 -52t23.5 -50.5t24.5 -46.5v-9h-21z" />
    <glyph glyph-name="Wacute" unicode="&#x1e82;" horiz-adv-x="676" 
d="M98 0l-2 714h36l1 -540q0 -36 -1 -65.5t-2 -52.5h3q11 32 23.5 63.5t25.5 60.5l223 534h37l-3 -521q0 -25 -0.5 -48.5t-1 -46.5t-1.5 -46h2l16 44t18 46.5t22 53.5l214 518h40l-298 -714h-46l3 544q0 17 0.5 33t1 31.5t0.5 32.5h-2q-8 -22 -15.5 -43.5t-16.5 -42.5
l-232 -555h-45zM409 798q23 23 47 50.5t44 54t32 47.5h43v-8q-11 -16 -28 -36.5t-37.5 -42t-41 -40.5t-38.5 -33h-21v8z" />
    <glyph glyph-name="wacute" unicode="&#x1e83;" horiz-adv-x="533" 
d="M66 -1l-6 530h36l3 -356q0 -33 -0.5 -61t-1.5 -54h3q5 16 12.5 34.5t16 39t17.5 41.5l156 356h38l5 -356q1 -26 0.5 -57.5t-1.5 -58.5h2q6 18 13 36t15 37.5t17 42.5l146 356h38l-221 -530h-40l-4 376q-1 16 -1 31.5t0.5 32.5t0.5 33h-1q-6 -16 -12 -31l-12 -30t-14 -32
l-165 -380h-40zM295 612q23 23 47 50.5t44 54t32 47.5h43v-8q-11 -16 -28 -36.5t-37.5 -42t-41 -40.5t-38.5 -33h-21v8z" />
    <glyph glyph-name="Wdieresis" unicode="&#x1e84;" horiz-adv-x="676" 
d="M98 0l-2 714h36l1 -540q0 -36 -1 -65.5t-2 -52.5h3q11 32 23.5 63.5t25.5 60.5l223 534h37l-3 -521q0 -25 -0.5 -48.5t-1 -46.5t-1.5 -46h2l16 44t18 46.5t22 53.5l214 518h40l-298 -714h-46l3 544q0 17 0.5 33t1 31.5t0.5 32.5h-2q-8 -22 -15.5 -43.5t-16.5 -42.5
l-232 -555h-45zM534 830q-11 0 -16.5 6.5t-5.5 18.5q0 16 8 31t24 15q11 0 16.5 -6.5t5.5 -18.5q0 -16 -8.5 -31t-23.5 -15zM389 830q-10 0 -16 6.5t-6 18.5q0 16 8 31t24 15q8 0 12.5 -3t7 -8.5t2.5 -13.5q0 -16 -8 -31t-24 -15z" />
    <glyph glyph-name="wdieresis" unicode="&#x1e85;" horiz-adv-x="533" 
d="M66 -1l-6 530h36l3 -356q0 -33 -0.5 -61t-1.5 -54h3q5 16 12.5 34.5t16 39t17.5 41.5l156 356h38l5 -356q1 -26 0.5 -57.5t-1.5 -58.5h2q6 18 13 36t15 37.5t17 42.5l146 356h38l-221 -530h-40l-4 376q-1 16 -1 31.5t0.5 32.5t0.5 33h-1q-6 -16 -12 -31l-12 -30t-14 -32
l-165 -380h-40zM396 644q-11 0 -16.5 6.5t-5.5 18.5q0 16 8 31t24 15q11 0 16.5 -6.5t5.5 -18.5q0 -16 -8.5 -31t-23.5 -15zM251 644q-10 0 -16 6.5t-6 18.5q0 16 8 31t24 15q8 0 12.5 -3t7 -8.5t2.5 -13.5q0 -16 -8 -31t-24 -15z" />
    <glyph glyph-name="Ygrave" unicode="&#x1ef2;" horiz-adv-x="359" 
d="M96 0l59 275l-69 439h39l57 -388l222 388h42l-253 -438l-59 -276h-38zM294 792q-14 19 -30.5 45.5t-31.5 54.5t-25 50v8h39q10 -26 21 -52t23.5 -50.5t24.5 -46.5v-9h-21z" />
    <glyph glyph-name="ygrave" unicode="&#x1ef3;" horiz-adv-x="339" 
d="M-62 -243q-16 0 -28.5 3t-19.5 7l4 35q9 -4 20 -7t25 -3q33 0 57 24t50 77l54 116l-31 520h37l18 -359q2 -18 3 -37t1.5 -37.5t0.5 -33.5h2q7 15 14.5 33.5t16.5 37t17 34.5l171 362h39l-309 -647q-20 -42 -40.5 -69.5t-44.5 -41.5t-57 -14zM246 606q-14 19 -30.5 45.5
t-31.5 54.5t-25 50v8h39q10 -26 21 -52t23.5 -50.5t24.5 -46.5v-9h-21z" />
    <glyph glyph-name="endash" unicode="&#x2013;" horiz-adv-x="458" 
d="M33 252l7 35h382l-7 -35h-382z" />
    <glyph glyph-name="emdash" unicode="&#x2014;" horiz-adv-x="916" 
d="M33 252l7 35h840l-7 -35h-840z" />
    <glyph glyph-name="uni2015" unicode="&#x2015;" horiz-adv-x="909" 
d="M33 252l7 35h840l-7 -35h-840z" />
    <glyph glyph-name="underscoredbl" unicode="&#x2017;" horiz-adv-x="365" 
d="M-80 -117l7 31h368l-7 -31h-368zM-102 -225l7 31h368l-8 -31h-367z" />
    <glyph glyph-name="quoteleft" unicode="&#x2018;" horiz-adv-x="129" 
d="M66 495q13 35 30 73.5t37.5 76.5t42.5 69h28q-15 -24 -29.5 -53.5t-27.5 -60.5t-24 -60.5t-17 -55.5h-36z" />
    <glyph glyph-name="quoteright" unicode="&#x2019;" horiz-adv-x="129" 
d="M58 484q20 34 39 74t34.5 80.5t24.5 75.5h36l4 -11q-12 -34 -29.5 -72.5t-38 -76.5t-41.5 -70h-29z" />
    <glyph glyph-name="quotesinglbase" unicode="&#x201a;" horiz-adv-x="185" 
d="M-41 -128q20 33 39 73t35 81t25 76h35l4 -11q-12 -34 -29 -72.5t-37.5 -76.5t-42.5 -70h-29z" />
    <glyph glyph-name="quotereversed" unicode="&#x201b;" horiz-adv-x="132" 
d="M121 484q-8 35 -15 73.5t-10.5 77t-4.5 70.5l7 9h35q-2 -27 -1.5 -57t3 -60.5t6 -59.5t6.5 -53h-26z" />
    <glyph glyph-name="quotedblleft" unicode="&#x201c;" horiz-adv-x="251" 
d="M189 495q12 35 29.5 73.5t37.5 76.5t42 69h29q-20 -33 -39 -73.5t-34.5 -81t-25.5 -75.5h-35zM67 495q12 35 29.5 73.5t37.5 76.5t42 69h29q-15 -24 -29.5 -53.5t-27.5 -60.5t-24 -60.5t-18 -55.5h-35z" />
    <glyph glyph-name="quotedblright" unicode="&#x201d;" horiz-adv-x="251" 
d="M177 484q21 33 39.5 73t34 81t25.5 76h35l4 -11q-12 -34 -29 -72.5t-37.5 -76.5t-42.5 -70h-29zM55 484q21 33 39.5 73t34 81t25.5 76h35l4 -11q-12 -34 -29 -72.5t-37.5 -76.5t-42.5 -70h-29z" />
    <glyph glyph-name="quotedblbase" unicode="&#x201e;" horiz-adv-x="274" 
d="M61 -129q20 33 38.5 73.5t34.5 81.5t25 75h35l5 -11q-12 -34 -29.5 -72.5t-38 -76t-42.5 -70.5h-28zM-61 -129q20 34 38.5 74t34 80.5t25.5 75.5h35l5 -11q-12 -34 -29.5 -72.5t-38 -76t-42.5 -70.5h-28z" />
    <glyph glyph-name="dagger" unicode="&#x2020;" horiz-adv-x="405" 
d="M112 0l119 528l-134 -4l8 34l131 -5l38 207h39l-51 -207l138 5l-8 -34l-135 4l-106 -528h-39z" />
    <glyph glyph-name="daggerdbl" unicode="&#x2021;" horiz-adv-x="405" 
d="M111 0l50 203l-137 -4l7 33l135 -4l29 154l37 150l-134 -4l7 33l132 -5l37 204h39l-50 -204l138 5l-8 -33l-135 4l-28 -150l-38 -154l135 4l-8 -33l-132 4l-37 -203h-39z" />
    <glyph glyph-name="bullet" unicode="&#x2022;" horiz-adv-x="346" 
d="M183 263q-42 0 -64.5 25t-22.5 72q0 33 10.5 57t31 37t51.5 13q28 0 47.5 -10.5t29.5 -32.5t10 -54t-10.5 -56.5t-31.5 -37.5t-51 -13z" />
    <glyph glyph-name="ellipsis" unicode="&#x2026;" horiz-adv-x="579" 
d="M44 -4q-11 0 -18 7t-7 20q0 18 9.5 35t28.5 17q11 0 17.5 -8t6.5 -21q0 -17 -9.5 -33.5t-27.5 -16.5zM239 -4q-11 0 -18 7t-7 20q0 18 9.5 35t28.5 17q11 0 17.5 -8t6.5 -21q0 -17 -9.5 -33.5t-27.5 -16.5zM434 -4q-11 0 -18 7t-7 20q0 18 9.5 35t28.5 17q11 0 17.5 -8
t6.5 -21q0 -17 -9.5 -33.5t-27.5 -16.5z" />
    <glyph glyph-name="perthousand" unicode="&#x2030;" horiz-adv-x="870" 
d="M90 0l408 714h35l-406 -714h-37zM136 276q-36 0 -57 27t-21 88q0 35 6.5 79.5t19 89t32 82t46 60t61.5 22.5q37 0 56.5 -26t19.5 -83q0 -32 -5.5 -76t-18 -90t-32 -85t-46 -63.5t-61.5 -24.5zM139 308q26 0 46 23.5t35 59.5t25 77.5t15 80.5t5 64q0 43 -11.5 61t-34.5 18
q-24 0 -44 -21t-35.5 -55.5t-25.5 -74.5t-16 -79t-6 -68q0 -48 13 -67t34 -19zM401 -11q-36 0 -56.5 27t-20.5 88q0 36 6 80.5t19 88.5t32 81.5t45.5 60t61.5 22.5q37 0 57 -26t20 -83q0 -32 -6 -76t-18.5 -89.5t-32 -85t-46 -64t-61.5 -24.5zM405 21q25 0 45 23.5t35 59.5
t25 77.5t15.5 80.5t5.5 64q0 44 -12 61.5t-35 17.5q-24 0 -44 -21t-35.5 -55.5t-25.5 -74.5t-15.5 -79t-5.5 -68q0 -48 12.5 -67t34.5 -19zM664 -11q-36 0 -56.5 27t-20.5 88q0 36 6 80.5t19 88.5t32 81.5t46 60t61 22.5q37 0 57 -26t20 -83q0 -32 -6 -76t-18 -89.5t-32 -85
t-46.5 -64t-61.5 -24.5zM668 21q25 0 45 23.5t35.5 59.5t25.5 77.5t15 80.5t5 64q0 44 -12 61.5t-34 17.5q-25 0 -45 -21t-35.5 -55.5t-25.5 -74.5t-15.5 -79t-5.5 -68q0 -48 13 -67t34 -19z" />
    <glyph glyph-name="minute" unicode="&#x2032;" horiz-adv-x="173" 
d="M83 508l88 206h40l-102 -206h-26z" />
    <glyph glyph-name="second" unicode="&#x2033;" horiz-adv-x="310" 
d="M220 508l88 206h40l-102 -206h-26zM88 508l88 206h40l-102 -206h-26z" />
    <glyph glyph-name="guilsinglleft" unicode="&#x2039;" horiz-adv-x="220" 
d="M118 77l-90 184l3 13l166 172l21 -18l-147 -164l73 -175z" />
    <glyph glyph-name="guilsinglright" unicode="&#x203a;" horiz-adv-x="220" 
d="M16 77l-21 19l147 164l-73 175l27 11l89 -183l-2 -14z" />
    <glyph glyph-name="exclamdbl" unicode="&#x203c;" horiz-adv-x="380" 
d="M239 175l114 539h42l-123 -539h-33zM218 -4q-11 0 -17.5 7.5t-6.5 20.5q0 17 9 34t28 17q11 0 17.5 -8t6.5 -21q0 -17 -9.5 -33.5t-27.5 -16.5zM58 175l114 539h42l-123 -539h-33zM37 -4q-11 0 -17.5 7.5t-6.5 20.5q0 17 9 34t28 17q11 0 17.5 -8t6.5 -21
q0 -17 -9.5 -33.5t-27.5 -16.5z" />
    <glyph glyph-name="fraction" unicode="&#x2044;" horiz-adv-x="124" 
d="M-229 0l548 714h41l-548 -714h-41z" />
    <glyph glyph-name="uni207F" unicode="&#x207f;" horiz-adv-x="276" 
d="M61 287l73 318h20l-11 -57h1q9 17 23 31t32.5 23t39.5 9q20 0 34.5 -7t23 -20.5t8.5 -32.5q0 -13 -3.5 -30.5t-7.5 -33.5l-46 -200h-24l47 203q3 16 6 31t3 27q0 21 -12 31.5t-34 10.5q-26 0 -47.5 -16t-37 -46t-25.5 -73l-38 -168h-25z" />
    <glyph glyph-name="franc" unicode="&#x20a3;" horiz-adv-x="410" 
d="M54 0l32 151h-75l7 33h75l112 530h258l-7 -35h-220l-68 -318h206l-7 -35h-207l-30 -142h116l-7 -33h-116l-32 -151h-37z" />
    <glyph glyph-name="lira" unicode="&#x20a4;" horiz-adv-x="410" 
d="M-20 32q36 9 59 31t38.5 63t29.5 106h-82l7 32h82l25 122h-82l7 32h81l30 139q12 53 31.5 90.5t52 57t80.5 19.5q38 0 66 -11.5t47 -27.5l-20 -29q-17 13 -40.5 23t-54.5 10q-57 0 -84.5 -36t-40.5 -100l-29 -135h134l-7 -32h-134l-25 -122h133l-6 -32h-134
q-13 -62 -26.5 -100.5t-30.5 -61t-42 -35.5h281l-7 -35h-345z" />
    <glyph glyph-name="peseta" unicode="&#x20a7;" horiz-adv-x="528" 
d="M10 0l151 714h51q56 0 92 -18.5t54 -53t18 -83.5q0 -52 -13 -98.5t-41.5 -82.5t-73.5 -56.5t-110 -20.5h-27l-64 -301h-37zM141 335q55 0 92.5 18t60 49t33 70.5t10.5 83.5q0 57 -29.5 90t-99.5 33h-17l-73 -344h23zM425 -10q-34 0 -52 20.5t-18 56.5q0 19 4 42t9 50
l46 212h-54l6 25l55 9l36 128h27l-27 -129h81l-7 -33h-80l-47 -219q-5 -23 -8.5 -43.5t-3.5 -35.5q0 -25 11 -36.5t30 -11.5q14 0 24.5 2.5t19.5 6.5v-33q-10 -4 -23 -7.5t-29 -3.5z" />
    <glyph glyph-name="Euro" unicode="&#x20ac;" horiz-adv-x="410" 
d="M228 -10q-64 0 -97.5 32.5t-47 91.5t-13.5 137h-62l6 32h58q1 18 3.5 43.5t6.5 50.5t8 43h-52l7 32h53q21 81 57 142t88 96t119 35q35 0 60.5 -8t43.5 -22l-20 -31q-15 12 -37 19t-49 7q-55 0 -98.5 -29.5t-74.5 -83t-50 -125.5h195l-7 -32h-197q-3 -17 -7 -42.5
t-7 -50.5t-4 -44h173l-6 -32h-169q0 -68 9.5 -119t36.5 -79t78 -28q23 0 44.5 5t43.5 15l5 -35q-22 -9 -46 -14.5t-51 -5.5z" />
    <glyph glyph-name="uni2105" unicode="&#x2105;" horiz-adv-x="570" 
d="M70 0l408 714h36l-408 -714h-36zM356 -6q-42 0 -63.5 28t-21.5 76q0 34 8 72.5t25.5 73t44 57t64.5 22.5q40 0 62.5 -26t22.5 -77q0 -37 -8 -77t-25.5 -74t-44.5 -54.5t-64 -20.5zM359 26q27 0 47 18.5t32.5 49t18.5 64t6 63.5q0 33 -13 51.5t-40 18.5t-46.5 -19.5
t-32.5 -50t-18.5 -63.5t-5.5 -60q0 -34 13 -53t39 -19zM195 391q-42 0 -66 27t-24 81q0 33 8.5 71t26.5 72t46.5 55.5t69.5 21.5q19 0 33.5 -3t25.5 -10l-13 -30q-9 6 -21.5 9t-27.5 3q-28 0 -49 -17.5t-35 -46t-21 -61.5t-7 -63q0 -41 16 -59t44 -18q17 0 30.5 4t26.5 10
l-2 -31q-12 -7 -26.5 -11t-34.5 -4z" />
    <glyph glyph-name="uni2113" unicode="&#x2113;" horiz-adv-x="394" 
d="M214 -9q-39 0 -62.5 18.5t-34 53.5t-10.5 85v147q-19 -8 -39 -14.5t-37 -11.5v34q18 5 38.5 12t37.5 16v245q0 54 12 86.5t33.5 47t51.5 14.5q34 0 56 -16t33 -47t11 -77q0 -60 -17.5 -111.5t-53.5 -92t-89 -70.5v-160q0 -64 16.5 -95t55.5 -31q42 0 60 28t20 90h34
q-2 -51 -14.5 -85t-37.5 -50t-64 -16zM144 346q62 39 93.5 98t31.5 140q0 36 -7.5 60t-22 36t-35.5 12q-30 0 -45 -25t-15 -86v-235z" />
    <glyph glyph-name="uni2116" unicode="&#x2116;" horiz-adv-x="730" 
d="M16 0l151 714h48l109 -640q3 19 6 36t6.5 33.5t6.5 33.5l114 537h36l-151 -714h-42l-112 653q-2 -12 -4 -25t-5 -26t-5.5 -26t-4.5 -25l-117 -551h-36zM431 0l6 32h177l-6 -32h-177zM552 133q-44 0 -67 28.5t-23 79.5q0 34 8.5 72t25.5 71t43.5 54t63.5 21q47 0 70 -28.5
t23 -79.5q0 -32 -8 -70t-24.5 -71.5t-44 -55t-67.5 -21.5zM555 164q29 0 50 19t33.5 48.5t18 61.5t5.5 58q0 37 -15 57t-46 20q-28 0 -47.5 -18.5t-32.5 -47.5t-19 -61t-6 -59q0 -40 15 -59t44 -19z" />
    <glyph glyph-name="trademark" unicode="&#x2122;" horiz-adv-x="622" 
d="M264 362v352h48l99 -305l102 305h45v-352h-32v189q0 31 0.5 57.5t0.5 55.5h-2l-102 -302h-28l-99 305h-2q1 -28 1 -54v-57v-194h-31zM99 362v322h-97v30h226v-30h-97v-322h-32z" />
    <glyph glyph-name="uni03A9" unicode="&#x3a9;" horiz-adv-x="518" 
d="M-11 0l8 36h142q-37 33 -59.5 82t-28 115.5t4.5 149.5q16 112 50 188t88.5 114.5t128.5 38.5t117.5 -38.5t57 -115.5t-3.5 -190q-11 -86 -38.5 -151.5t-67 -113.5t-88.5 -79h141l-8 -36h-191l7 29q57 35 99 84.5t69 115.5t39 150q14 102 4 171t-45.5 104t-97.5 35
q-61 0 -106 -35.5t-74 -104t-42 -167.5q-11 -85 -5 -153t29.5 -118t65.5 -82l-7 -29h-189z" />
    <glyph glyph-name="estimated" unicode="&#x212e;" horiz-adv-x="576" 
d="M285 -17q-77 0 -131 38.5t-82 101.5t-28 136q0 63 18 114t51 87.5t76.5 55.5t95.5 19q69 1 123.5 -34t86 -97.5t31.5 -144.5h-376v-174q22 -25 59.5 -42.5t75.5 -17.5q66 0 106 28.5t73 85.5l33 -20q-25 -43 -54 -73.5t-67 -46.5t-91 -16zM150 301h270v135q-21 24 -57 41
t-79 17q-42 0 -75.5 -15t-58.5 -42v-136z" />
    <glyph glyph-name="oneeighth" unicode="&#x215b;" horiz-adv-x="631" 
d="M11 0l548 714h41l-548 -714h-41zM204 612q3 17 7.5 33.5t8.5 31.5q-12 -9 -22.5 -16.5t-23.5 -15.5l-60 -39l-14 25l127 83h33l-92 -428h-34zM443 -9q-48 0 -77 27.5t-29 72.5q0 54 30.5 85t83.5 50q-24 21 -37.5 44.5t-13.5 54.5q0 29 13 54t39 40.5t64 15.5
q46 0 71 -24.5t25 -64.5q0 -49 -28 -78t-74 -47q26 -17 43.5 -42.5t17.5 -64.5q0 -34 -14.5 -62t-42.5 -44.5t-71 -16.5zM446 22q45 0 68 26t23 65q0 34 -17.5 56.5t-42.5 38.5q-47 -15 -76.5 -41t-29.5 -73q0 -33 20 -52.5t55 -19.5zM484 238q43 15 69 39t26 65
q0 29 -17 46t-50 17q-39 0 -59 -23.5t-20 -55.5q0 -31 14.5 -50.5t36.5 -37.5z" />
    <glyph glyph-name="threeeighths" unicode="&#x215c;" horiz-adv-x="662" 
d="M118 280q-28 0 -50 5.5t-37 13.5v36q18 -11 40 -17.5t49 -6.5q53 0 81.5 29.5t28.5 75.5q0 42 -23 60.5t-60 18.5h-31l6 30h31q39 0 64.5 15t38.5 39t13 50q0 29 -15.5 46.5t-46.5 17.5q-26 0 -47.5 -9t-40.5 -22l-15 26q20 15 47 26t59 11t52.5 -12t31 -32.5t10.5 -46.5
q0 -49 -27.5 -81.5t-69.5 -42.5v-2q24 -8 41 -30t17 -61q0 -38 -16.5 -69t-49 -49.5t-81.5 -18.5zM45 0l548 714h41l-548 -714h-41zM473 -10q-48 0 -77 27.5t-29 72.5q0 54 30.5 85t83.5 50q-24 21 -37.5 44.5t-13.5 54.5q0 29 13 54t39 40.5t64 15.5q46 0 71 -24.5
t25 -64.5q0 -49 -28 -78t-74 -47q26 -17 43.5 -42.5t17.5 -64.5q0 -34 -14.5 -62t-42.5 -44.5t-71 -16.5zM476 21q45 0 68 26t23 65q0 34 -17.5 56.5t-42.5 38.5q-47 -15 -76.5 -41t-29.5 -73q0 -33 20 -52.5t55 -19.5zM514 237q43 15 69 39t26 65q0 29 -17 46t-50 17
q-39 0 -59 -23.5t-20 -55.5q0 -31 14.5 -50.5t36.5 -37.5z" />
    <glyph glyph-name="fiveeighths" unicode="&#x215d;" horiz-adv-x="651" 
d="M34 0l548 714h41l-548 -714h-41zM119 277q-24 0 -44 5t-33 12l1 35q14 -9 34 -15t44 -6q41 0 66 20t37 50.5t12 61.5q0 38 -18.5 56t-53.5 18q-17 0 -33.5 -3t-26.5 -7l-16 14l59 195h160l-6 -32h-132l-43 -143q9 3 22 5t27 2q44 0 70 -26t26 -76q0 -30 -9 -59.5
t-27.5 -53.5t-47.5 -38.5t-68 -14.5zM462 -11q-48 0 -77 27.5t-29 72.5q0 54 30.5 85t83.5 50q-24 21 -37.5 44.5t-13.5 54.5q0 29 13 54t39 40.5t64 15.5q46 0 71 -24.5t25 -64.5q0 -49 -28 -78t-74 -47q26 -17 43.5 -42.5t17.5 -64.5q0 -34 -14.5 -62t-42.5 -44.5
t-71 -16.5zM465 20q45 0 68 26t23 65q0 34 -17.5 56.5t-42.5 38.5q-47 -15 -76.5 -41t-29.5 -73q0 -33 20 -52.5t55 -19.5zM503 236q43 15 69 39t26 65q0 29 -17 46t-50 17q-39 0 -59 -23.5t-20 -55.5q0 -31 14.5 -50.5t36.5 -37.5z" />
    <glyph glyph-name="seveneighths" unicode="&#x215e;" horiz-adv-x="612" 
d="M-5 0l548 714h41l-548 -714h-41zM423 -10q-48 0 -77 27.5t-29 72.5q0 54 30.5 85t83.5 50q-24 21 -37.5 44.5t-13.5 54.5q0 29 13 54t39 40.5t64 15.5q46 0 71 -24.5t25 -64.5q0 -49 -28 -78t-74 -47q26 -17 43.5 -42.5t17.5 -64.5q0 -34 -14.5 -62t-42.5 -44.5
t-71 -16.5zM426 21q45 0 68 26t23 65q0 34 -17.5 56.5t-42.5 38.5q-47 -15 -76.5 -41t-29.5 -73q0 -33 20 -52.5t55 -19.5zM464 237q43 15 69 39t26 65q0 29 -17 46t-50 17q-39 0 -59 -23.5t-20 -55.5q0 -31 14.5 -50.5t36.5 -37.5zM73 286l209 397h-175l8 31h208l-5 -28
l-208 -400h-37z" />
    <glyph glyph-name="uni0394" unicode="&#x394;" horiz-adv-x="452" 
d="M-53 0l6 27l338 690h45l49 -690l-6 -27h-432zM-2 36h349l-39 555q0 15 -1 27t-1 24t-2 27h-2q-6 -13 -11.5 -25.5t-11.5 -25t-13 -27.5z" />
    <glyph glyph-name="cyrillicbreve" 
d="M197 601q-47 0 -74 24t-27 72v10.5t1 12.5h33q-1 -8 -1 -12.5v-9.5q0 -35 17.5 -51t51.5 -16q43 0 65.5 24.5t31.5 64.5h34q-12 -58 -45 -88.5t-87 -30.5z" />
    <glyph glyph-name="uni2074" unicode="&#x2074;" horiz-adv-x="283" 
d="M197 416l24 110h-158l4 29l224 292h32l-62 -290h51l-7 -31h-50l-25 -110h-33zM105 557h122l32 145q5 23 10 46.5t9 39.5q-6 -9 -13.5 -20t-16.5 -23t-20 -25z" />
    <glyph glyph-name="uni2075" unicode="&#x2075;" horiz-adv-x="283" 
d="M146 408q-24 0 -44 5t-33 12l1 35q14 -9 34 -15t44 -6q41 0 66 20t37 50.5t12 61.5q0 38 -18.5 56t-53.5 18q-17 0 -33.5 -3t-26.5 -7l-16 14l59 195h160l-6 -32h-132l-43 -143q9 3 22 5t27 2q44 0 70 -26t26 -76q0 -30 -9 -59.5t-27.5 -53.5t-47.5 -38.5t-68 -14.5z" />
    <glyph glyph-name="uni2077" unicode="&#x2077;" horiz-adv-x="283" 
d="M100 416l209 397h-175l8 31h208l-5 -28l-208 -400h-37z" />
    <glyph glyph-name="uni2078" unicode="&#x2078;" horiz-adv-x="283" 
d="M176 408q-48 0 -77 27.5t-29 72.5q0 54 30.5 85t83.5 50q-24 21 -37.5 44.5t-13.5 54.5q0 29 13 54t39 40.5t64 15.5q46 0 71 -24.5t25 -64.5q0 -49 -28 -78t-74 -47q26 -17 43.5 -42.5t17.5 -64.5q0 -34 -14.5 -62t-42.5 -44.5t-71 -16.5zM179 439q45 0 68 26t23 65
q0 34 -17.5 56.5t-42.5 38.5q-47 -15 -76.5 -41t-29.5 -73q0 -33 20 -52.5t55 -19.5zM217 655q43 15 69 39t26 65q0 29 -17 46t-50 17q-39 0 -59 -23.5t-20 -55.5q0 -31 14.5 -50.5t36.5 -37.5z" />
    <glyph glyph-name="uni2000" unicode="&#x2000;" horiz-adv-x="500" 
 />
    <glyph glyph-name="uni2001" unicode="&#x2001;" horiz-adv-x="1000" 
 />
    <glyph glyph-name="uni2002" unicode="&#x2002;" horiz-adv-x="500" 
 />
    <glyph glyph-name="uni2003" unicode="&#x2003;" horiz-adv-x="1000" 
 />
    <glyph glyph-name="uni2004" unicode="&#x2004;" horiz-adv-x="333" 
 />
    <glyph glyph-name="uni2005" unicode="&#x2005;" horiz-adv-x="250" 
 />
    <glyph glyph-name="uni2006" unicode="&#x2006;" horiz-adv-x="167" 
 />
    <glyph glyph-name="uni2007" unicode="&#x2007;" horiz-adv-x="412" 
 />
    <glyph glyph-name="uni2008" unicode="&#x2008;" horiz-adv-x="180" 
 />
    <glyph glyph-name="uni2009" unicode="&#x2009;" horiz-adv-x="166" 
 />
    <glyph glyph-name="uni200A" unicode="&#x200a;" horiz-adv-x="100" 
 />
    <glyph glyph-name="uni200B" unicode="&#x200b;" 
 />
    <glyph glyph-name="uniFEFF" unicode="&#xfeff;" 
 />
    </font>
</defs>
</svg>
